{
  "jsonPath": "Classical/Classical/Francis Poulenc/mouvement-perpetuel-n-1.json",
  "path": "Classical\\Classical\\Francis Poulenc\\Mouvement Perpétuel N 1.mid",
  "name": "Mouvement Perpétuel N 1",
  "difficulty": "Advanced",
  "bpm": 120,
  "notes": [
    {
      "midi": 77,
      "hit": false,
      "t": 2000,
      "d": 132.8125,
      "v": 60
    },
    {
      "midi": 46,
      "hit": false,
      "t": 2010.4166666666667,
      "d": 210.93749999999977,
      "v": 25
    },
    {
      "midi": 62,
      "hit": false,
      "t": 2278.645833333333,
      "d": 62.5,
      "v": 32
    },
    {
      "midi": 53,
      "hit": false,
      "t": 2278.645833333333,
      "d": 101.5625,
      "v": 39
    },
    {
      "midi": 77,
      "hit": false,
      "t": 2481.770833333333,
      "d": 49.47916666666697,
      "v": 67
    },
    {
      "midi": 41,
      "hit": false,
      "t": 2486.9791666666665,
      "d": 98.95833333333348,
      "v": 36
    },
    {
      "midi": 75,
      "hit": false,
      "t": 2687.5,
      "d": 135.41666666666652,
      "v": 62
    },
    {
      "midi": 55,
      "hit": false,
      "t": 2718.75,
      "d": 114.58333333333303,
      "v": 26
    },
    {
      "midi": 63,
      "hit": false,
      "t": 2721.3541666666665,
      "d": 59.895833333333485,
      "v": 32
    },
    {
      "midi": 74,
      "hit": false,
      "t": 2906.2499999999995,
      "d": 281.24999999999955,
      "v": 73
    },
    {
      "midi": 46,
      "hit": false,
      "t": 2921.8749999999995,
      "d": 442.7083333333326,
      "v": 33
    },
    {
      "midi": 57,
      "hit": false,
      "t": 3119.791666666666,
      "d": 78.12499999999955,
      "v": 29
    },
    {
      "midi": 65,
      "hit": false,
      "t": 3130.2083333333326,
      "d": 260.41666666666606,
      "v": 37
    },
    {
      "midi": 72,
      "hit": false,
      "t": 3322.9166666666656,
      "d": 453.125,
      "v": 69
    },
    {
      "midi": 41,
      "hit": false,
      "t": 3341.145833333332,
      "d": 398.43750000000045,
      "v": 44
    },
    {
      "midi": 55,
      "hit": false,
      "t": 3536.458333333332,
      "d": 161.45833333333348,
      "v": 33
    },
    {
      "midi": 63,
      "hit": false,
      "t": 3541.6666666666656,
      "d": 171.875,
      "v": 49
    },
    {
      "midi": 70,
      "hit": false,
      "t": 3718.749999999999,
      "d": 335.9375,
      "v": 62
    },
    {
      "midi": 46,
      "hit": false,
      "t": 3742.187499999999,
      "d": 411.45833333333303,
      "v": 31
    },
    {
      "midi": 62,
      "hit": false,
      "t": 3963.5416666666656,
      "d": 257.81249999999955,
      "v": 33
    },
    {
      "midi": 53,
      "hit": false,
      "t": 3979.1666666666656,
      "d": 96.35416666666697,
      "v": 53
    },
    {
      "midi": 67,
      "hit": false,
      "t": 4148.437499999999,
      "d": 528.6458333333312,
      "v": 63
    },
    {
      "midi": 41,
      "hit": false,
      "t": 4177.083333333332,
      "d": 447.91666666666515,
      "v": 33
    },
    {
      "midi": 63,
      "hit": false,
      "t": 4364.583333333331,
      "d": 85.9375,
      "v": 62
    },
    {
      "midi": 55,
      "hit": false,
      "t": 4374.999999999998,
      "d": 158.85416666666606,
      "v": 38
    },
    {
      "midi": 65,
      "hit": false,
      "t": 4585.937499999997,
      "d": 690.1041666666661,
      "v": 63
    },
    {
      "midi": 46,
      "hit": false,
      "t": 4601.562499999997,
      "d": 622.395833333333,
      "v": 26
    },
    {
      "midi": 62,
      "hit": false,
      "t": 4804.687499999997,
      "d": 393.22916666666606,
      "v": 48
    },
    {
      "midi": 57,
      "hit": false,
      "t": 4812.499999999997,
      "d": 143.22916666666697,
      "v": 29
    },
    {
      "midi": 41,
      "hit": false,
      "t": 5059.89583333333,
      "d": 59.89583333333303,
      "v": 44
    },
    {
      "midi": 60,
      "hit": false,
      "t": 5229.166666666663,
      "d": 54.6875,
      "v": 52
    },
    {
      "midi": 55,
      "hit": false,
      "t": 5268.229166666663,
      "d": 78.125,
      "v": 42
    },
    {
      "midi": 77,
      "hit": false,
      "t": 5468.749999999996,
      "d": 122.39583333333394,
      "v": 89
    },
    {
      "midi": 46,
      "hit": false,
      "t": 5479.166666666663,
      "d": 229.16666666666788,
      "v": 41
    },
    {
      "midi": 62,
      "hit": false,
      "t": 5705.729166666664,
      "d": 54.6875,
      "v": 43
    },
    {
      "midi": 53,
      "hit": false,
      "t": 5729.166666666664,
      "d": 106.77083333333303,
      "v": 41
    },
    {
      "midi": 77,
      "hit": false,
      "t": 5906.249999999997,
      "d": 52.08333333333303,
      "v": 71
    },
    {
      "midi": 41,
      "hit": false,
      "t": 5927.08333333333,
      "d": 117.1875,
      "v": 41
    },
    {
      "midi": 75,
      "hit": false,
      "t": 6130.20833333333,
      "d": 125,
      "v": 56
    },
    {
      "midi": 63,
      "hit": false,
      "t": 6135.416666666663,
      "d": 52.08333333333394,
      "v": 54
    },
    {
      "midi": 55,
      "hit": false,
      "t": 6138.02083333333,
      "d": 111.97916666666697,
      "v": 35
    },
    {
      "midi": 74,
      "hit": false,
      "t": 6343.749999999997,
      "d": 263.02083333333394,
      "v": 68
    },
    {
      "midi": 46,
      "hit": false,
      "t": 6372.395833333331,
      "d": 401.04166666666697,
      "v": 34
    },
    {
      "midi": 57,
      "hit": false,
      "t": 6549.479166666664,
      "d": 83.33333333333394,
      "v": 25
    },
    {
      "midi": 65,
      "hit": false,
      "t": 6572.916666666664,
      "d": 255.20833333333394,
      "v": 39
    },
    {
      "midi": 72,
      "hit": false,
      "t": 6768.229166666665,
      "d": 492.1875,
      "v": 61
    },
    {
      "midi": 41,
      "hit": false,
      "t": 6783.854166666665,
      "d": 492.1875,
      "v": 31
    },
    {
      "midi": 63,
      "hit": false,
      "t": 6994.791666666665,
      "d": 93.75,
      "v": 36
    },
    {
      "midi": 70,
      "hit": false,
      "t": 7179.687499999998,
      "d": 286.45833333333394,
      "v": 55
    },
    {
      "midi": 46,
      "hit": false,
      "t": 7187.499999999998,
      "d": 398.4375,
      "v": 30
    },
    {
      "midi": 62,
      "hit": false,
      "t": 7411.458333333332,
      "d": 223.95833333333303,
      "v": 39
    },
    {
      "midi": 53,
      "hit": false,
      "t": 7432.291666666665,
      "d": 101.5625,
      "v": 38
    },
    {
      "midi": 67,
      "hit": false,
      "t": 7609.374999999998,
      "d": 481.77083333333394,
      "v": 51
    },
    {
      "midi": 41,
      "hit": false,
      "t": 7624.999999999998,
      "d": 390.6250000000009,
      "v": 30
    },
    {
      "midi": 63,
      "hit": false,
      "t": 7820.312499999999,
      "d": 125,
      "v": 50
    },
    {
      "midi": 55,
      "hit": false,
      "t": 7843.749999999999,
      "d": 148.4375,
      "v": 32
    },
    {
      "midi": 65,
      "hit": false,
      "t": 8028.645833333332,
      "d": 796.875,
      "v": 44
    },
    {
      "midi": 46,
      "hit": false,
      "t": 8033.854166666665,
      "d": 510.41666666666515,
      "v": 37
    },
    {
      "midi": 57,
      "hit": false,
      "t": 8249.999999999998,
      "d": 83.33333333333212,
      "v": 25
    },
    {
      "midi": 62,
      "hit": false,
      "t": 8252.604166666664,
      "d": 403.6458333333321,
      "v": 39
    },
    {
      "midi": 41,
      "hit": false,
      "t": 8510.416666666664,
      "d": 83.33333333333212,
      "v": 30
    },
    {
      "midi": 60,
      "hit": false,
      "t": 8677.08333333333,
      "d": 135.41666666666788,
      "v": 29
    },
    {
      "midi": 55,
      "hit": false,
      "t": 8729.166666666664,
      "d": 96.35416666666788,
      "v": 27
    },
    {
      "midi": 46,
      "hit": false,
      "t": 8895.833333333332,
      "d": 463.54166666666606,
      "v": 37
    },
    {
      "midi": 60,
      "hit": false,
      "t": 9109.375,
      "d": 273.4374999999982,
      "v": 81
    },
    {
      "midi": 53,
      "hit": false,
      "t": 9132.8125,
      "d": 197.91666666666606,
      "v": 54
    },
    {
      "midi": 62,
      "hit": false,
      "t": 9317.708333333332,
      "d": 281.25,
      "v": 83
    },
    {
      "midi": 41,
      "hit": false,
      "t": 9333.333333333332,
      "d": 479.16666666666424,
      "v": 43
    },
    {
      "midi": 64,
      "hit": false,
      "t": 9528.645833333332,
      "d": 273.4374999999982,
      "v": 89
    },
    {
      "midi": 55,
      "hit": false,
      "t": 9549.479166666666,
      "d": 226.56249999999818,
      "v": 44
    },
    {
      "midi": 65,
      "hit": false,
      "t": 9736.979166666666,
      "d": 270.8333333333285,
      "v": 79
    },
    {
      "midi": 46,
      "hit": false,
      "t": 9765.624999999998,
      "d": 554.6874999999964,
      "v": 38
    },
    {
      "midi": 67,
      "hit": false,
      "t": 9947.916666666662,
      "d": 291.66666666666606,
      "v": 84
    },
    {
      "midi": 57,
      "hit": false,
      "t": 9958.333333333328,
      "d": 119.79166666666606,
      "v": 43
    },
    {
      "midi": 64,
      "hit": false,
      "t": 10151.04166666666,
      "d": 268.22916666666606,
      "v": 87
    },
    {
      "midi": 41,
      "hit": false,
      "t": 10203.124999999995,
      "d": 390.62499999999636,
      "v": 44
    },
    {
      "midi": 65,
      "hit": false,
      "t": 10354.16666666666,
      "d": 302.0833333333303,
      "v": 81
    },
    {
      "midi": 55,
      "hit": false,
      "t": 10380.208333333327,
      "d": 192.70833333333212,
      "v": 40
    },
    {
      "midi": 62,
      "hit": false,
      "t": 10572.916666666659,
      "d": 270.8333333333321,
      "v": 79
    },
    {
      "midi": 46,
      "hit": false,
      "t": 10583.333333333325,
      "d": 468.75,
      "v": 39
    },
    {
      "midi": 60,
      "hit": false,
      "t": 10796.87499999999,
      "d": 286.45833333333394,
      "v": 77
    },
    {
      "midi": 53,
      "hit": false,
      "t": 10817.708333333325,
      "d": 218.75,
      "v": 63
    },
    {
      "midi": 62,
      "hit": false,
      "t": 11015.62499999999,
      "d": 270.83333333333394,
      "v": 84
    },
    {
      "midi": 41,
      "hit": false,
      "t": 11028.645833333325,
      "d": 520.8333333333321,
      "v": 41
    },
    {
      "midi": 64,
      "hit": false,
      "t": 11226.56249999999,
      "d": 252.60416666666606,
      "v": 85
    },
    {
      "midi": 55,
      "hit": false,
      "t": 11234.37499999999,
      "d": 234.375,
      "v": 42
    },
    {
      "midi": 65,
      "hit": false,
      "t": 11434.895833333325,
      "d": 263.02083333333394,
      "v": 69
    },
    {
      "midi": 46,
      "hit": false,
      "t": 11466.145833333325,
      "d": 606.7708333333339,
      "v": 28
    },
    {
      "midi": 67,
      "hit": false,
      "t": 11656.24999999999,
      "d": 289.0625000000018,
      "v": 67
    },
    {
      "midi": 57,
      "hit": false,
      "t": 11677.083333333325,
      "d": 96.35416666666606,
      "v": 35
    },
    {
      "midi": 64,
      "hit": false,
      "t": 11864.583333333325,
      "d": 252.60416666666788,
      "v": 67
    },
    {
      "midi": 41,
      "hit": false,
      "t": 11901.041666666659,
      "d": 453.125,
      "v": 43
    },
    {
      "midi": 65,
      "hit": false,
      "t": 12072.916666666659,
      "d": 320.3125,
      "v": 64
    },
    {
      "midi": 55,
      "hit": false,
      "t": 12085.937499999993,
      "d": 164.0625,
      "v": 43
    },
    {
      "midi": 46,
      "hit": false,
      "t": 12291.666666666659,
      "d": 552.0833333333321,
      "v": 42
    },
    {
      "midi": 62,
      "hit": false,
      "t": 12302.083333333325,
      "d": 541.6666666666661,
      "v": 70
    },
    {
      "midi": 53,
      "hit": false,
      "t": 12552.083333333325,
      "d": 226.5625,
      "v": 53
    },
    {
      "midi": 60,
      "hit": false,
      "t": 12734.37499999999,
      "d": 518.2291666666679,
      "v": 54
    },
    {
      "midi": 41,
      "hit": false,
      "t": 12757.81249999999,
      "d": 565.1041666666679,
      "v": 39
    },
    {
      "midi": 55,
      "hit": false,
      "t": 12973.958333333325,
      "d": 200.52083333333394,
      "v": 38
    },
    {
      "midi": 62,
      "hit": false,
      "t": 13192.708333333325,
      "d": 622.3958333333339,
      "v": 50
    },
    {
      "midi": 46,
      "hit": false,
      "t": 13208.333333333325,
      "d": 658.8541666666661,
      "v": 18
    },
    {
      "midi": 57,
      "hit": false,
      "t": 13437.499999999993,
      "d": 177.08333333333394,
      "v": 31
    },
    {
      "midi": 41,
      "hit": false,
      "t": 13749.999999999993,
      "d": 106.77083333333212,
      "v": 22
    },
    {
      "midi": 55,
      "hit": false,
      "t": 13992.18749999999,
      "d": 153.64583333333394,
      "v": 20
    },
    {
      "midi": 77,
      "hit": false,
      "t": 14205.729166666659,
      "d": 148.4375,
      "v": 55
    },
    {
      "midi": 46,
      "hit": false,
      "t": 14234.374999999993,
      "d": 210.93749999999818,
      "v": 25
    },
    {
      "midi": 62,
      "hit": false,
      "t": 14479.166666666657,
      "d": 62.5,
      "v": 31
    },
    {
      "midi": 53,
      "hit": false,
      "t": 14489.583333333323,
      "d": 93.75,
      "v": 41
    },
    {
      "midi": 77,
      "hit": false,
      "t": 14687.499999999989,
      "d": 52.08333333333394,
      "v": 54
    },
    {
      "midi": 41,
      "hit": false,
      "t": 14710.937499999989,
      "d": 122.39583333333394,
      "v": 33
    },
    {
      "midi": 75,
      "hit": false,
      "t": 14916.666666666657,
      "d": 182.29166666666788,
      "v": 50
    },
    {
      "midi": 55,
      "hit": false,
      "t": 14921.87499999999,
      "d": 171.875,
      "v": 27
    },
    {
      "midi": 74,
      "hit": false,
      "t": 15140.62499999999,
      "d": 234.375,
      "v": 52
    },
    {
      "midi": 46,
      "hit": false,
      "t": 15145.833333333325,
      "d": 453.1249999999982,
      "v": 23
    },
    {
      "midi": 57,
      "hit": false,
      "t": 15348.958333333325,
      "d": 67.70833333333212,
      "v": 28
    },
    {
      "midi": 65,
      "hit": false,
      "t": 15385.416666666657,
      "d": 210.9375,
      "v": 23
    },
    {
      "midi": 72,
      "hit": false,
      "t": 15562.49999999999,
      "d": 427.0833333333321,
      "v": 48
    },
    {
      "midi": 41,
      "hit": false,
      "t": 15604.166666666657,
      "d": 122.39583333333394,
      "v": 26
    },
    {
      "midi": 55,
      "hit": false,
      "t": 15770.833333333325,
      "d": 91.14583333333212,
      "v": 39
    },
    {
      "midi": 63,
      "hit": false,
      "t": 15781.24999999999,
      "d": 85.9375,
      "v": 42
    },
    {
      "midi": 70,
      "hit": false,
      "t": 15971.354166666657,
      "d": 281.2500000000018,
      "v": 49
    },
    {
      "midi": 46,
      "hit": false,
      "t": 15989.583333333323,
      "d": 309.89583333333576,
      "v": 30
    },
    {
      "midi": 62,
      "hit": false,
      "t": 16210.93749999999,
      "d": 158.85416666666788,
      "v": 33
    },
    {
      "midi": 53,
      "hit": false,
      "t": 16223.958333333325,
      "d": 91.14583333333394,
      "v": 48
    },
    {
      "midi": 67,
      "hit": false,
      "t": 16408.854166666657,
      "d": 427.0833333333394,
      "v": 55
    },
    {
      "midi": 41,
      "hit": false,
      "t": 16429.687499999993,
      "d": 385.4166666666679,
      "v": 37
    },
    {
      "midi": 63,
      "hit": false,
      "t": 16619.79166666666,
      "d": 70.3125,
      "v": 58
    },
    {
      "midi": 55,
      "hit": false,
      "t": 16635.41666666666,
      "d": 125,
      "v": 31
    },
    {
      "midi": 65,
      "hit": false,
      "t": 16817.70833333333,
      "d": 640.6250000000036,
      "v": 51
    },
    {
      "midi": 46,
      "hit": false,
      "t": 16825.52083333333,
      "d": 466.14583333333576,
      "v": 33
    },
    {
      "midi": 57,
      "hit": false,
      "t": 17023.437499999996,
      "d": 78.125,
      "v": 29
    },
    {
      "midi": 62,
      "hit": false,
      "t": 17036.45833333333,
      "d": 255.20833333333576,
      "v": 42
    },
    {
      "midi": 41,
      "hit": false,
      "t": 17265.624999999996,
      "d": 67.70833333333576,
      "v": 44
    },
    {
      "midi": 60,
      "hit": false,
      "t": 17455.729166666664,
      "d": 62.5,
      "v": 40
    },
    {
      "midi": 55,
      "hit": false,
      "t": 17479.166666666664,
      "d": 98.95833333333212,
      "v": 37
    },
    {
      "midi": 73,
      "hit": false,
      "t": 17687.499999999996,
      "d": 385.41666666666424,
      "v": 83
    },
    {
      "midi": 46,
      "hit": false,
      "t": 17705.729166666664,
      "d": 427.0833333333285,
      "v": 34
    },
    {
      "midi": 53,
      "hit": false,
      "t": 17968.749999999996,
      "d": 208.33333333332848,
      "v": 52
    },
    {
      "midi": 73,
      "hit": false,
      "t": 18179.687499999993,
      "d": 205.72916666666788,
      "v": 75
    },
    {
      "midi": 41,
      "hit": false,
      "t": 18203.124999999993,
      "d": 473.95833333333576,
      "v": 30
    },
    {
      "midi": 55,
      "hit": false,
      "t": 18395.83333333333,
      "d": 145.83333333333212,
      "v": 51
    },
    {
      "midi": 73,
      "hit": false,
      "t": 18489.58333333333,
      "d": 44.27083333333212,
      "v": 53
    },
    {
      "midi": 75,
      "hit": false,
      "t": 18554.687499999993,
      "d": 127.60416666666788,
      "v": 66
    },
    {
      "midi": 73,
      "hit": false,
      "t": 18583.33333333333,
      "d": 281.25,
      "v": 78
    },
    {
      "midi": 46,
      "hit": false,
      "t": 18611.97916666666,
      "d": 533.8541666666679,
      "v": 36
    },
    {
      "midi": 57,
      "hit": false,
      "t": 18822.91666666666,
      "d": 83.33333333333576,
      "v": 37
    },
    {
      "midi": 72,
      "hit": false,
      "t": 18825.52083333333,
      "d": 268.2291666666679,
      "v": 76
    },
    {
      "midi": 70,
      "hit": false,
      "t": 19010.416666666664,
      "d": 309.8958333333321,
      "v": 78
    },
    {
      "midi": 41,
      "hit": false,
      "t": 19049.479166666664,
      "d": 158.85416666666424,
      "v": 49
    },
    {
      "midi": 68,
      "hit": false,
      "t": 19218.749999999996,
      "d": 304.6875,
      "v": 84
    },
    {
      "midi": 55,
      "hit": false,
      "t": 19239.58333333333,
      "d": 104.16666666666788,
      "v": 41
    },
    {
      "midi": 66,
      "hit": false,
      "t": 19437.499999999996,
      "d": 510.41666666666424,
      "v": 80
    },
    {
      "midi": 46,
      "hit": false,
      "t": 19466.14583333333,
      "d": 427.0833333333321,
      "v": 32
    },
    {
      "midi": 53,
      "hit": false,
      "t": 19739.58333333333,
      "d": 109.375,
      "v": 22
    },
    {
      "midi": 63,
      "hit": false,
      "t": 19864.58333333333,
      "d": 479.1666666666679,
      "v": 78
    },
    {
      "midi": 41,
      "hit": false,
      "t": 19903.64583333333,
      "d": 388.0208333333321,
      "v": 41
    },
    {
      "midi": 55,
      "hit": false,
      "t": 20132.812499999993,
      "d": 104.16666666666788,
      "v": 37
    },
    {
      "midi": 61,
      "hit": false,
      "t": 20302.08333333333,
      "d": 299.4791666666715,
      "v": 82
    },
    {
      "midi": 46,
      "hit": false,
      "t": 20341.14583333333,
      "d": 200.52083333333576,
      "v": 36
    },
    {
      "midi": 57,
      "hit": false,
      "t": 20544.270833333332,
      "d": 72.91666666666788,
      "v": 33
    },
    {
      "midi": 41,
      "hit": false,
      "t": 20789.0625,
      "d": 75.52083333333212,
      "v": 34
    },
    {
      "midi": 55,
      "hit": false,
      "t": 21033.854166666664,
      "d": 130.20833333333212,
      "v": 25
    },
    {
      "midi": 82,
      "hit": false,
      "t": 21244.791666666664,
      "d": 385.4166666666715,
      "v": 46
    },
    {
      "midi": 68,
      "hit": false,
      "t": 21247.395833333332,
      "d": 500.00000000000364,
      "v": 29
    },
    {
      "midi": 46,
      "hit": false,
      "t": 21255.208333333332,
      "d": 307.2916666666679,
      "v": 23
    },
    {
      "midi": 53,
      "hit": false,
      "t": 21500,
      "d": 111.97916666666788,
      "v": 44
    },
    {
      "midi": 41,
      "hit": false,
      "t": 21703.125000000004,
      "d": 78.125,
      "v": 36
    },
    {
      "midi": 55,
      "hit": false,
      "t": 21906.250000000004,
      "d": 119.79166666666788,
      "v": 33
    },
    {
      "midi": 61,
      "hit": false,
      "t": 22130.20833333334,
      "d": 307.29166666666424,
      "v": 50
    },
    {
      "midi": 75,
      "hit": false,
      "t": 22143.22916666667,
      "d": 343.74999999999636,
      "v": 50
    },
    {
      "midi": 46,
      "hit": false,
      "t": 22156.250000000004,
      "d": 380.2083333333321,
      "v": 28
    },
    {
      "midi": 57,
      "hit": false,
      "t": 22356.770833333336,
      "d": 85.9375,
      "v": 27
    },
    {
      "midi": 41,
      "hit": false,
      "t": 22625.000000000004,
      "d": 67.70833333333212,
      "v": 13
    },
    {
      "midi": 55,
      "hit": false,
      "t": 22789.062500000004,
      "d": 179.6875,
      "v": 39
    },
    {
      "midi": 82,
      "hit": false,
      "t": 23010.41666666667,
      "d": 343.75000000000364,
      "v": 41
    },
    {
      "midi": 46,
      "hit": false,
      "t": 23015.625000000004,
      "d": 213.54166666666788,
      "v": 25
    },
    {
      "midi": 68,
      "hit": false,
      "t": 23036.458333333336,
      "d": 453.1250000000073,
      "v": 28
    },
    {
      "midi": 53,
      "hit": false,
      "t": 23255.20833333334,
      "d": 98.95833333333576,
      "v": 42
    },
    {
      "midi": 41,
      "hit": false,
      "t": 23447.916666666675,
      "d": 83.33333333333576,
      "v": 44
    },
    {
      "midi": 55,
      "hit": false,
      "t": 23671.87500000001,
      "d": 93.75,
      "v": 38
    },
    {
      "midi": 75,
      "hit": false,
      "t": 23898.43750000001,
      "d": 632.8125,
      "v": 36
    },
    {
      "midi": 61,
      "hit": false,
      "t": 23903.645833333343,
      "d": 372.3958333333321,
      "v": 35
    },
    {
      "midi": 46,
      "hit": false,
      "t": 23919.270833333343,
      "d": 247.39583333333212,
      "v": 26
    },
    {
      "midi": 57,
      "hit": false,
      "t": 24117.187500000007,
      "d": 85.9375,
      "v": 28
    },
    {
      "midi": 41,
      "hit": false,
      "t": 24403.645833333343,
      "d": 80.72916666666788,
      "v": 14
    },
    {
      "midi": 55,
      "hit": false,
      "t": 24604.16666666668,
      "d": 158.85416666666788,
      "v": 28
    },
    {
      "midi": 80,
      "hit": false,
      "t": 24828.125000000015,
      "d": 479.1666666666715,
      "v": 66
    },
    {
      "midi": 46,
      "hit": false,
      "t": 24830.729166666682,
      "d": 403.64583333333576,
      "v": 27
    },
    {
      "midi": 53,
      "hit": false,
      "t": 25085.93750000002,
      "d": 111.97916666666788,
      "v": 34
    },
    {
      "midi": 82,
      "hit": false,
      "t": 25197.916666666686,
      "d": 93.75,
      "v": 43
    },
    {
      "midi": 79,
      "hit": false,
      "t": 25260.416666666686,
      "d": 278.6458333333321,
      "v": 68
    },
    {
      "midi": 41,
      "hit": false,
      "t": 25278.645833333354,
      "d": 143.22916666666424,
      "v": 24
    },
    {
      "midi": 55,
      "hit": false,
      "t": 25468.75000000002,
      "d": 197.91666666666788,
      "v": 36
    },
    {
      "midi": 78,
      "hit": false,
      "t": 25484.37500000002,
      "d": 213.54166666666788,
      "v": 64
    },
    {
      "midi": 75,
      "hit": false,
      "t": 25687.50000000002,
      "d": 364.58333333333576,
      "v": 56
    },
    {
      "midi": 46,
      "hit": false,
      "t": 25687.50000000002,
      "d": 463.5416666666679,
      "v": 33
    },
    {
      "midi": 57,
      "hit": false,
      "t": 25890.625000000022,
      "d": 78.125,
      "v": 28
    },
    {
      "midi": 78,
      "hit": false,
      "t": 25976.562500000022,
      "d": 140.62499999999636,
      "v": 44
    },
    {
      "midi": 74,
      "hit": false,
      "t": 26052.083333333354,
      "d": 291.66666666666424,
      "v": 59
    },
    {
      "midi": 41,
      "hit": false,
      "t": 26125.00000000002,
      "d": 385.41666666666424,
      "v": 35
    },
    {
      "midi": 73,
      "hit": false,
      "t": 26281.25000000002,
      "d": 236.97916666666424,
      "v": 56
    },
    {
      "midi": 55,
      "hit": false,
      "t": 26304.68750000002,
      "d": 114.58333333333212,
      "v": 42
    },
    {
      "midi": 70,
      "hit": false,
      "t": 26505.20833333335,
      "d": 372.3958333333321,
      "v": 49
    },
    {
      "midi": 46,
      "hit": false,
      "t": 26518.229166666682,
      "d": 375,
      "v": 33
    },
    {
      "midi": 53,
      "hit": false,
      "t": 26731.77083333335,
      "d": 101.5625,
      "v": 48
    },
    {
      "midi": 73,
      "hit": false,
      "t": 26820.31250000002,
      "d": 156.25,
      "v": 35
    },
    {
      "midi": 69,
      "hit": false,
      "t": 26895.83333333335,
      "d": 265.62500000000364,
      "v": 45
    },
    {
      "midi": 41,
      "hit": false,
      "t": 26906.25000000002,
      "d": 533.8541666666715,
      "v": 41
    },
    {
      "midi": 68,
      "hit": false,
      "t": 27098.95833333335,
      "d": 223.9583333333394,
      "v": 55
    },
    {
      "midi": 55,
      "hit": false,
      "t": 27101.56250000002,
      "d": 190.10416666667152,
      "v": 43
    },
    {
      "midi": 67,
      "hit": false,
      "t": 27317.708333333358,
      "d": 265.625,
      "v": 59
    },
    {
      "midi": 46,
      "hit": false,
      "t": 27367.187500000022,
      "d": 427.0833333333394,
      "v": 25
    },
    {
      "midi": 66,
      "hit": false,
      "t": 27526.04166666669,
      "d": 252.60416666667152,
      "v": 56
    },
    {
      "midi": 57,
      "hit": false,
      "t": 27552.083333333358,
      "d": 72.91666666666788,
      "v": 34
    },
    {
      "midi": 63,
      "hit": false,
      "t": 27750.000000000025,
      "d": 177.08333333333576,
      "v": 72
    },
    {
      "midi": 41,
      "hit": false,
      "t": 27760.416666666693,
      "d": 330.7291666666679,
      "v": 44
    },
    {
      "midi": 55,
      "hit": false,
      "t": 27979.166666666693,
      "d": 138.02083333333576,
      "v": 20
    },
    {
      "midi": 80,
      "hit": false,
      "t": 28166.666666666697,
      "d": 466.14583333333576,
      "v": 75
    },
    {
      "midi": 46,
      "hit": false,
      "t": 28171.87500000003,
      "d": 424.4791666666679,
      "v": 31
    },
    {
      "midi": 53,
      "hit": false,
      "t": 28406.25000000003,
      "d": 98.95833333333212,
      "v": 48
    },
    {
      "midi": 82,
      "hit": false,
      "t": 28546.87500000003,
      "d": 91.14583333333576,
      "v": 45
    },
    {
      "midi": 79,
      "hit": false,
      "t": 28596.354166666697,
      "d": 255.20833333333576,
      "v": 69
    },
    {
      "midi": 41,
      "hit": false,
      "t": 28598.958333333365,
      "d": 401.0416666666679,
      "v": 38
    },
    {
      "midi": 55,
      "hit": false,
      "t": 28802.083333333365,
      "d": 179.6875,
      "v": 38
    },
    {
      "midi": 78,
      "hit": false,
      "t": 28812.500000000033,
      "d": 213.54166666666788,
      "v": 64
    },
    {
      "midi": 75,
      "hit": false,
      "t": 29031.250000000033,
      "d": 401.04166666666424,
      "v": 54
    },
    {
      "midi": 46,
      "hit": false,
      "t": 29031.250000000033,
      "d": 406.24999999999636,
      "v": 31
    },
    {
      "midi": 57,
      "hit": false,
      "t": 29242.187500000033,
      "d": 78.125,
      "v": 26
    },
    {
      "midi": 78,
      "hit": false,
      "t": 29372.395833333365,
      "d": 111.97916666666424,
      "v": 39
    },
    {
      "midi": 41,
      "hit": false,
      "t": 29442.70833333336,
      "d": 252.60416666666788,
      "v": 37
    },
    {
      "midi": 74,
      "hit": false,
      "t": 29453.12500000003,
      "d": 260.4166666666679,
      "v": 47
    },
    {
      "midi": 73,
      "hit": false,
      "t": 29661.45833333336,
      "d": 218.75000000000364,
      "v": 46
    },
    {
      "midi": 55,
      "hit": false,
      "t": 29664.06250000003,
      "d": 96.35416666666788,
      "v": 40
    },
    {
      "midi": 70,
      "hit": false,
      "t": 29880.208333333365,
      "d": 354.1666666666679,
      "v": 42
    },
    {
      "midi": 46,
      "hit": false,
      "t": 29882.812500000033,
      "d": 385.4166666666679,
      "v": 41
    },
    {
      "midi": 53,
      "hit": false,
      "t": 30117.187500000033,
      "d": 119.79166666666788,
      "v": 51
    },
    {
      "midi": 73,
      "hit": false,
      "t": 30203.125000000033,
      "d": 80.72916666666788,
      "v": 26
    },
    {
      "midi": 69,
      "hit": false,
      "t": 30263.02083333337,
      "d": 257.8125,
      "v": 44
    },
    {
      "midi": 41,
      "hit": false,
      "t": 30291.6666666667,
      "d": 309.89583333333576,
      "v": 45
    },
    {
      "midi": 68,
      "hit": false,
      "t": 30463.5416666667,
      "d": 223.95833333333576,
      "v": 52
    },
    {
      "midi": 55,
      "hit": false,
      "t": 30492.187500000033,
      "d": 119.79166666667152,
      "v": 41
    },
    {
      "midi": 67,
      "hit": false,
      "t": 30697.916666666704,
      "d": 263.02083333333576,
      "v": 55
    },
    {
      "midi": 46,
      "hit": false,
      "t": 30718.750000000036,
      "d": 414.0625000000073,
      "v": 30
    },
    {
      "midi": 66,
      "hit": false,
      "t": 30893.229166666704,
      "d": 244.79166666667152,
      "v": 55
    },
    {
      "midi": 57,
      "hit": false,
      "t": 30919.270833333372,
      "d": 75.52083333333576,
      "v": 25
    },
    {
      "midi": 63,
      "hit": false,
      "t": 31130.208333333376,
      "d": 41.66666666666788,
      "v": 75
    },
    {
      "midi": 41,
      "hit": false,
      "t": 31140.625000000044,
      "d": 75.52083333333212,
      "v": 31
    },
    {
      "midi": 55,
      "hit": false,
      "t": 31341.145833333376,
      "d": 80.72916666666788,
      "v": 42
    },
    {
      "midi": 82,
      "hit": false,
      "t": 31565.10416666671,
      "d": 372.3958333333285,
      "v": 82
    },
    {
      "midi": 68,
      "hit": false,
      "t": 31580.72916666671,
      "d": 471.35416666666424,
      "v": 54
    },
    {
      "midi": 46,
      "hit": false,
      "t": 31601.562500000044,
      "d": 315.10416666666424,
      "v": 29
    },
    {
      "midi": 53,
      "hit": false,
      "t": 31796.875000000044,
      "d": 106.77083333333212,
      "v": 56
    },
    {
      "midi": 41,
      "hit": false,
      "t": 31994.791666666708,
      "d": 72.91666666666788,
      "v": 42
    },
    {
      "midi": 55,
      "hit": false,
      "t": 32226.562500000044,
      "d": 117.1875,
      "v": 41
    },
    {
      "midi": 61,
      "hit": false,
      "t": 32403.645833333376,
      "d": 283.8541666666679,
      "v": 62
    },
    {
      "midi": 75,
      "hit": false,
      "t": 32408.854166666708,
      "d": 393.22916666666424,
      "v": 62
    },
    {
      "midi": 46,
      "hit": false,
      "t": 32447.916666666708,
      "d": 174.47916666666788,
      "v": 34
    },
    {
      "midi": 57,
      "hit": false,
      "t": 32632.812500000044,
      "d": 75.52083333333212,
      "v": 34
    },
    {
      "midi": 41,
      "hit": false,
      "t": 32875.00000000004,
      "d": 72.91666666666424,
      "v": 36
    },
    {
      "midi": 55,
      "hit": false,
      "t": 33080.7291666667,
      "d": 145.83333333333576,
      "v": 36
    },
    {
      "midi": 82,
      "hit": false,
      "t": 33263.02083333337,
      "d": 346.35416666665697,
      "v": 47
    },
    {
      "midi": 68,
      "hit": false,
      "t": 33278.64583333337,
      "d": 440.10416666665697,
      "v": 36
    },
    {
      "midi": 46,
      "hit": false,
      "t": 33291.6666666667,
      "d": 205.72916666666424,
      "v": 29
    },
    {
      "midi": 53,
      "hit": false,
      "t": 33515.62500000003,
      "d": 85.9375,
      "v": 43
    },
    {
      "midi": 41,
      "hit": false,
      "t": 33718.75000000003,
      "d": 85.9375,
      "v": 33
    },
    {
      "midi": 55,
      "hit": false,
      "t": 33927.083333333365,
      "d": 127.60416666666424,
      "v": 37
    },
    {
      "midi": 61,
      "hit": false,
      "t": 34125.00000000003,
      "d": 393.22916666665697,
      "v": 39
    },
    {
      "midi": 75,
      "hit": false,
      "t": 34135.41666666669,
      "d": 854.166666666657,
      "v": 28
    },
    {
      "midi": 46,
      "hit": false,
      "t": 34161.45833333336,
      "d": 208.33333333332848,
      "v": 27
    },
    {
      "midi": 57,
      "hit": false,
      "t": 34367.18750000002,
      "d": 70.3125,
      "v": 36
    },
    {
      "midi": 41,
      "hit": false,
      "t": 34619.791666666686,
      "d": 78.125,
      "v": 36
    },
    {
      "midi": 55,
      "hit": false,
      "t": 34859.37500000002,
      "d": 119.79166666666424,
      "v": 28
    },
    {
      "midi": 77,
      "hit": false,
      "t": 35114.58333333335,
      "d": 135.41666666666424,
      "v": 71
    },
    {
      "midi": 46,
      "hit": false,
      "t": 35138.02083333335,
      "d": 216.14583333332848,
      "v": 25
    },
    {
      "midi": 62,
      "hit": false,
      "t": 35367.187500000015,
      "d": 59.89583333333576,
      "v": 32
    },
    {
      "midi": 53,
      "hit": false,
      "t": 35382.812500000015,
      "d": 85.9375,
      "v": 31
    },
    {
      "midi": 77,
      "hit": false,
      "t": 35546.875000000015,
      "d": 59.89583333333576,
      "v": 65
    },
    {
      "midi": 41,
      "hit": false,
      "t": 35559.89583333335,
      "d": 70.3125,
      "v": 40
    },
    {
      "midi": 75,
      "hit": false,
      "t": 35755.20833333335,
      "d": 239.58333333332848,
      "v": 54
    },
    {
      "midi": 63,
      "hit": false,
      "t": 35765.625000000015,
      "d": 54.6875,
      "v": 50
    },
    {
      "midi": 55,
      "hit": false,
      "t": 35776.04166666668,
      "d": 98.95833333333576,
      "v": 39
    },
    {
      "midi": 74,
      "hit": false,
      "t": 35968.750000000015,
      "d": 278.6458333333212,
      "v": 73
    },
    {
      "midi": 46,
      "hit": false,
      "t": 35997.39583333334,
      "d": 177.08333333332848,
      "v": 29
    },
    {
      "midi": 57,
      "hit": false,
      "t": 36171.87500000001,
      "d": 72.91666666666424,
      "v": 33
    },
    {
      "midi": 65,
      "hit": false,
      "t": 36213.54166666667,
      "d": 242.1875,
      "v": 34
    },
    {
      "midi": 72,
      "hit": false,
      "t": 36395.833333333336,
      "d": 468.75,
      "v": 65
    },
    {
      "midi": 41,
      "hit": false,
      "t": 36416.66666666667,
      "d": 138.02083333333576,
      "v": 41
    },
    {
      "midi": 55,
      "hit": false,
      "t": 36611.97916666667,
      "d": 106.77083333333576,
      "v": 39
    },
    {
      "midi": 63,
      "hit": false,
      "t": 36617.18750000001,
      "d": 52.08333333333576,
      "v": 53
    },
    {
      "midi": 70,
      "hit": false,
      "t": 36802.08333333334,
      "d": 273.4374999999927,
      "v": 65
    },
    {
      "midi": 46,
      "hit": false,
      "t": 36822.91666666667,
      "d": 239.58333333332848,
      "v": 32
    },
    {
      "midi": 62,
      "hit": false,
      "t": 37036.458333333336,
      "d": 169.27083333332848,
      "v": 46
    },
    {
      "midi": 53,
      "hit": false,
      "t": 37039.0625,
      "d": 78.125,
      "v": 49
    },
    {
      "midi": 67,
      "hit": false,
      "t": 37229.166666666664,
      "d": 531.2499999999927,
      "v": 69
    },
    {
      "midi": 41,
      "hit": false,
      "t": 37260.416666666664,
      "d": 111.97916666666424,
      "v": 39
    },
    {
      "midi": 63,
      "hit": false,
      "t": 37447.91666666666,
      "d": 46.875,
      "v": 54
    },
    {
      "midi": 55,
      "hit": false,
      "t": 37471.35416666666,
      "d": 80.72916666666424,
      "v": 32
    },
    {
      "midi": 65,
      "hit": false,
      "t": 37666.66666666666,
      "d": 760.4166666666715,
      "v": 56
    },
    {
      "midi": 46,
      "hit": false,
      "t": 37690.10416666666,
      "d": 250.00000000000728,
      "v": 34
    },
    {
      "midi": 57,
      "hit": false,
      "t": 37882.81249999999,
      "d": 83.33333333333576,
      "v": 28
    },
    {
      "midi": 62,
      "hit": false,
      "t": 37895.83333333333,
      "d": 385.4166666666715,
      "v": 48
    },
    {
      "midi": 41,
      "hit": false,
      "t": 38119.791666666664,
      "d": 130.20833333333576,
      "v": 25
    },
    {
      "midi": 55,
      "hit": false,
      "t": 38333.333333333336,
      "d": 85.93749999999272,
      "v": 32
    },
    {
      "midi": 60,
      "hit": false,
      "t": 38343.75,
      "d": 59.89583333332848,
      "v": 48
    },
    {
      "midi": 46,
      "hit": false,
      "t": 38572.916666666664,
      "d": 218.75000000000728,
      "v": 34
    },
    {
      "midi": 77,
      "hit": false,
      "t": 38578.125,
      "d": 130.20833333333576,
      "v": 83
    },
    {
      "midi": 62,
      "hit": false,
      "t": 38817.708333333336,
      "d": 57.29166666666424,
      "v": 40
    },
    {
      "midi": 53,
      "hit": false,
      "t": 38828.125,
      "d": 83.33333333333576,
      "v": 48
    },
    {
      "midi": 77,
      "hit": false,
      "t": 39026.04166666667,
      "d": 49.47916666667152,
      "v": 42
    },
    {
      "midi": 41,
      "hit": false,
      "t": 39031.25000000001,
      "d": 62.5,
      "v": 41
    },
    {
      "midi": 75,
      "hit": false,
      "t": 39213.54166666667,
      "d": 229.16666666667152,
      "v": 56
    },
    {
      "midi": 63,
      "hit": false,
      "t": 39218.75000000001,
      "d": 46.875,
      "v": 55
    },
    {
      "midi": 55,
      "hit": false,
      "t": 39234.37500000001,
      "d": 127.60416666666424,
      "v": 46
    },
    {
      "midi": 74,
      "hit": false,
      "t": 39437.50000000001,
      "d": 276.0416666666715,
      "v": 71
    },
    {
      "midi": 46,
      "hit": false,
      "t": 39468.75000000001,
      "d": 231.77083333333576,
      "v": 34
    },
    {
      "midi": 57,
      "hit": false,
      "t": 39653.64583333334,
      "d": 75.52083333333576,
      "v": 36
    },
    {
      "midi": 65,
      "hit": false,
      "t": 39687.50000000001,
      "d": 270.83333333334303,
      "v": 31
    },
    {
      "midi": 72,
      "hit": false,
      "t": 39867.187500000015,
      "d": 424.4791666666715,
      "v": 57
    },
    {
      "midi": 41,
      "hit": false,
      "t": 39880.20833333335,
      "d": 156.25,
      "v": 31
    },
    {
      "midi": 63,
      "hit": false,
      "t": 40083.33333333335,
      "d": 70.3125,
      "v": 47
    },
    {
      "midi": 55,
      "hit": false,
      "t": 40091.14583333335,
      "d": 78.125,
      "v": 30
    },
    {
      "midi": 70,
      "hit": false,
      "t": 40265.62500000002,
      "d": 250,
      "v": 48
    },
    {
      "midi": 46,
      "hit": false,
      "t": 40299.479166666686,
      "d": 179.6875,
      "v": 20
    },
    {
      "midi": 62,
      "hit": false,
      "t": 40484.37500000002,
      "d": 153.64583333333576,
      "v": 40
    },
    {
      "midi": 53,
      "hit": false,
      "t": 40518.229166666686,
      "d": 98.95833333333576,
      "v": 28
    },
    {
      "midi": 67,
      "hit": false,
      "t": 40679.68750000002,
      "d": 440.1041666666715,
      "v": 41
    },
    {
      "midi": 41,
      "hit": false,
      "t": 40703.12500000002,
      "d": 104.16666666666424,
      "v": 29
    },
    {
      "midi": 63,
      "hit": false,
      "t": 40890.62500000002,
      "d": 104.16666666667152,
      "v": 43
    },
    {
      "midi": 55,
      "hit": false,
      "t": 40927.08333333336,
      "d": 104.16666666667152,
      "v": 9
    },
    {
      "midi": 65,
      "hit": false,
      "t": 41106.770833333365,
      "d": 757.8124999999927,
      "v": 34
    },
    {
      "midi": 46,
      "hit": false,
      "t": 41109.37500000003,
      "d": 403.6458333333285,
      "v": 17
    },
    {
      "midi": 57,
      "hit": false,
      "t": 41325.52083333336,
      "d": 59.89583333333576,
      "v": 7
    },
    {
      "midi": 62,
      "hit": false,
      "t": 41330.72916666669,
      "d": 429.6875,
      "v": 33
    },
    {
      "midi": 41,
      "hit": false,
      "t": 41591.14583333336,
      "d": 62.5,
      "v": 12
    },
    {
      "midi": 60,
      "hit": false,
      "t": 41768.22916666669,
      "d": 83.33333333332848,
      "v": 27
    },
    {
      "midi": 55,
      "hit": false,
      "t": 41770.83333333336,
      "d": 88.54166666666424,
      "v": 21
    },
    {
      "midi": 46,
      "hit": false,
      "t": 41966.14583333336,
      "d": 481.7708333333285,
      "v": 28
    },
    {
      "midi": 60,
      "hit": false,
      "t": 42192.70833333336,
      "d": 265.6249999999927,
      "v": 68
    },
    {
      "midi": 53,
      "hit": false,
      "t": 42205.72916666669,
      "d": 179.6875,
      "v": 48
    },
    {
      "midi": 62,
      "hit": false,
      "t": 42395.83333333336,
      "d": 273.4374999999927,
      "v": 79
    },
    {
      "midi": 41,
      "hit": false,
      "t": 42437.50000000002,
      "d": 455.72916666666424,
      "v": 37
    },
    {
      "midi": 64,
      "hit": false,
      "t": 42598.95833333335,
      "d": 286.45833333333576,
      "v": 83
    },
    {
      "midi": 55,
      "hit": false,
      "t": 42617.187500000015,
      "d": 213.54166666667152,
      "v": 45
    },
    {
      "midi": 65,
      "hit": false,
      "t": 42815.104166666686,
      "d": 265.625,
      "v": 74
    },
    {
      "midi": 46,
      "hit": false,
      "t": 42843.75000000002,
      "d": 450.5208333333285,
      "v": 30
    },
    {
      "midi": 57,
      "hit": false,
      "t": 43026.041666666686,
      "d": 101.5625,
      "v": 34
    },
    {
      "midi": 67,
      "hit": false,
      "t": 43028.64583333335,
      "d": 268.22916666666424,
      "v": 76
    },
    {
      "midi": 64,
      "hit": false,
      "t": 43231.77083333335,
      "d": 257.8125,
      "v": 79
    },
    {
      "midi": 41,
      "hit": false,
      "t": 43260.416666666686,
      "d": 408.8541666666715,
      "v": 40
    },
    {
      "midi": 65,
      "hit": false,
      "t": 43437.500000000015,
      "d": 273.4375000000073,
      "v": 76
    },
    {
      "midi": 55,
      "hit": false,
      "t": 43445.312500000015,
      "d": 182.29166666667152,
      "v": 43
    },
    {
      "midi": 62,
      "hit": false,
      "t": 43656.25000000002,
      "d": 234.375,
      "v": 75
    },
    {
      "midi": 46,
      "hit": false,
      "t": 43677.08333333336,
      "d": 445.31249999998545,
      "v": 31
    },
    {
      "midi": 60,
      "hit": false,
      "t": 43875.00000000002,
      "d": 276.04166666665697,
      "v": 72
    },
    {
      "midi": 53,
      "hit": false,
      "t": 43893.229166666686,
      "d": 218.74999999999272,
      "v": 56
    },
    {
      "midi": 41,
      "hit": false,
      "t": 44091.14583333335,
      "d": 505.2083333333285,
      "v": 39
    },
    {
      "midi": 62,
      "hit": false,
      "t": 44093.750000000015,
      "d": 263.02083333333576,
      "v": 74
    },
    {
      "midi": 55,
      "hit": false,
      "t": 44296.875000000015,
      "d": 195.3125,
      "v": 38
    },
    {
      "midi": 64,
      "hit": false,
      "t": 44302.08333333335,
      "d": 247.39583333332848,
      "v": 73
    },
    {
      "midi": 65,
      "hit": false,
      "t": 44502.60416666668,
      "d": 265.625,
      "v": 65
    },
    {
      "midi": 46,
      "hit": false,
      "t": 44518.22916666668,
      "d": 591.1458333333285,
      "v": 32
    },
    {
      "midi": 57,
      "hit": false,
      "t": 44721.35416666668,
      "d": 96.35416666666424,
      "v": 33
    },
    {
      "midi": 67,
      "hit": false,
      "t": 44734.375000000015,
      "d": 255.20833333332848,
      "v": 63
    },
    {
      "midi": 64,
      "hit": false,
      "t": 44934.89583333334,
      "d": 234.375,
      "v": 69
    },
    {
      "midi": 41,
      "hit": false,
      "t": 44947.91666666668,
      "d": 539.0624999999927,
      "v": 41
    },
    {
      "midi": 65,
      "hit": false,
      "t": 45138.02083333334,
      "d": 354.16666666666424,
      "v": 64
    },
    {
      "midi": 55,
      "hit": false,
      "t": 45166.66666666668,
      "d": 166.66666666666424,
      "v": 26
    },
    {
      "midi": 62,
      "hit": false,
      "t": 45382.81250000001,
      "d": 549.479166666657,
      "v": 71
    },
    {
      "midi": 46,
      "hit": false,
      "t": 45385.41666666667,
      "d": 497.3958333333285,
      "v": 28
    },
    {
      "midi": 53,
      "hit": false,
      "t": 45638.02083333334,
      "d": 122.39583333332848,
      "v": 46
    },
    {
      "midi": 60,
      "hit": false,
      "t": 45820.31250000001,
      "d": 513.0208333333212,
      "v": 57
    },
    {
      "midi": 41,
      "hit": false,
      "t": 45846.35416666667,
      "d": 455.72916666665697,
      "v": 36
    },
    {
      "midi": 55,
      "hit": false,
      "t": 46072.916666666664,
      "d": 143.22916666666424,
      "v": 29
    },
    {
      "midi": 46,
      "hit": false,
      "t": 46286.45833333333,
      "d": 460.9375,
      "v": 28
    },
    {
      "midi": 62,
      "hit": false,
      "t": 46296.87499999999,
      "d": 390.625,
      "v": 53
    },
    {
      "midi": 57,
      "hit": false,
      "t": 46518.229166666664,
      "d": 80.72916666666424,
      "v": 18
    },
    {
      "midi": 41,
      "hit": false,
      "t": 46747.39583333333,
      "d": 119.79166666666424,
      "v": 32
    },
    {
      "midi": 55,
      "hit": false,
      "t": 46994.79166666666,
      "d": 125,
      "v": 12
    },
    {
      "midi": 46,
      "hit": false,
      "t": 47270.83333333332,
      "d": 354.16666666666424,
      "v": 27
    },
    {
      "midi": 77,
      "hit": false,
      "t": 47281.249999999985,
      "d": 156.25,
      "v": 55
    },
    {
      "midi": 53,
      "hit": false,
      "t": 47575.520833333314,
      "d": 130.20833333333576,
      "v": 28
    },
    {
      "midi": 62,
      "hit": false,
      "t": 47580.72916666665,
      "d": 54.6875,
      "v": 45
    },
    {
      "midi": 77,
      "hit": false,
      "t": 47773.437499999985,
      "d": 59.89583333332848,
      "v": 70
    },
    {
      "midi": 41,
      "hit": false,
      "t": 47807.29166666665,
      "d": 104.16666666666424,
      "v": 33
    },
    {
      "midi": 75,
      "hit": false,
      "t": 47999.99999999998,
      "d": 234.37499999999272,
      "v": 60
    },
    {
      "midi": 55,
      "hit": false,
      "t": 48028.645833333314,
      "d": 132.81249999999272,
      "v": 34
    },
    {
      "midi": 63,
      "hit": false,
      "t": 48039.06249999998,
      "d": 57.29166666666424,
      "v": 14
    },
    {
      "midi": 74,
      "hit": false,
      "t": 48223.95833333331,
      "d": 276.0416666666715,
      "v": 69
    },
    {
      "midi": 46,
      "hit": false,
      "t": 48255.20833333331,
      "d": 466.14583333334303,
      "v": 25
    },
    {
      "midi": 57,
      "hit": false,
      "t": 48432.29166666664,
      "d": 85.9375,
      "v": 34
    },
    {
      "midi": 65,
      "hit": false,
      "t": 48460.93749999998,
      "d": 364.58333333333576,
      "v": 29
    },
    {
      "midi": 72,
      "hit": false,
      "t": 48656.24999999998,
      "d": 450.5208333333285,
      "v": 59
    },
    {
      "midi": 41,
      "hit": false,
      "t": 48671.87499999998,
      "d": 380.20833333333576,
      "v": 36
    },
    {
      "midi": 55,
      "hit": false,
      "t": 48877.60416666665,
      "d": 91.14583333332848,
      "v": 36
    },
    {
      "midi": 63,
      "hit": false,
      "t": 48877.60416666665,
      "d": 111.97916666666424,
      "v": 38
    },
    {
      "midi": 70,
      "hit": false,
      "t": 49078.12499999998,
      "d": 289.0624999999927,
      "v": 52
    },
    {
      "midi": 46,
      "hit": false,
      "t": 49088.54166666664,
      "d": 380.2083333333285,
      "v": 29
    },
    {
      "midi": 53,
      "hit": false,
      "t": 49315.10416666664,
      "d": 91.14583333332848,
      "v": 44
    },
    {
      "midi": 62,
      "hit": false,
      "t": 49333.33333333331,
      "d": 192.70833333332848,
      "v": 39
    },
    {
      "midi": 41,
      "hit": false,
      "t": 49523.43749999997,
      "d": 460.9374999999927,
      "v": 32
    },
    {
      "midi": 67,
      "hit": false,
      "t": 49533.854166666635,
      "d": 520.8333333333285,
      "v": 51
    },
    {
      "midi": 63,
      "hit": false,
      "t": 49768.229166666635,
      "d": 70.3125,
      "v": 46
    },
    {
      "midi": 55,
      "hit": false,
      "t": 49768.229166666635,
      "d": 132.8125,
      "v": 26
    },
    {
      "midi": 65,
      "hit": false,
      "t": 49963.541666666635,
      "d": 776.0416666666497,
      "v": 49
    },
    {
      "midi": 46,
      "hit": false,
      "t": 49966.1458333333,
      "d": 664.0624999999854,
      "v": 26
    },
    {
      "midi": 57,
      "hit": false,
      "t": 50174.47916666663,
      "d": 106.77083333332848,
      "v": 29
    },
    {
      "midi": 62,
      "hit": false,
      "t": 50192.70833333329,
      "d": 427.0833333333285,
      "v": 43
    },
    {
      "midi": 41,
      "hit": false,
      "t": 50440.10416666662,
      "d": 171.875,
      "v": 34
    },
    {
      "midi": 60,
      "hit": false,
      "t": 50692.708333333285,
      "d": 59.89583333333576,
      "v": 46
    },
    {
      "midi": 55,
      "hit": false,
      "t": 50697.91666666662,
      "d": 119.79166666666424,
      "v": 30
    },
    {
      "midi": 73,
      "hit": false,
      "t": 50927.083333333285,
      "d": 390.625,
      "v": 81
    },
    {
      "midi": 46,
      "hit": false,
      "t": 50942.708333333285,
      "d": 429.6875,
      "v": 34
    },
    {
      "midi": 53,
      "hit": false,
      "t": 51195.31249999995,
      "d": 177.08333333333576,
      "v": 48
    },
    {
      "midi": 41,
      "hit": false,
      "t": 51395.833333333285,
      "d": 515.625,
      "v": 38
    },
    {
      "midi": 73,
      "hit": false,
      "t": 51421.87499999995,
      "d": 171.875,
      "v": 72
    },
    {
      "midi": 55,
      "hit": false,
      "t": 51622.395833333285,
      "d": 187.5,
      "v": 46
    },
    {
      "midi": 73,
      "hit": false,
      "t": 51695.31249999995,
      "d": 41.66666666666424,
      "v": 53
    },
    {
      "midi": 75,
      "hit": false,
      "t": 51749.99999999995,
      "d": 114.58333333333576,
      "v": 72
    },
    {
      "midi": 73,
      "hit": false,
      "t": 51786.458333333285,
      "d": 278.64583333333576,
      "v": 78
    },
    {
      "midi": 46,
      "hit": false,
      "t": 51825.520833333285,
      "d": 497.39583333334303,
      "v": 36
    },
    {
      "midi": 72,
      "hit": false,
      "t": 52020.833333333285,
      "d": 281.2500000000073,
      "v": 75
    },
    {
      "midi": 57,
      "hit": false,
      "t": 52036.458333333285,
      "d": 98.95833333333576,
      "v": 38
    },
    {
      "midi": 70,
      "hit": false,
      "t": 52226.562499999956,
      "d": 312.5000000000073,
      "v": 76
    },
    {
      "midi": 41,
      "hit": false,
      "t": 52270.83333333329,
      "d": 565.1041666666715,
      "v": 42
    },
    {
      "midi": 68,
      "hit": false,
      "t": 52440.10416666663,
      "d": 294.27083333333576,
      "v": 77
    },
    {
      "midi": 55,
      "hit": false,
      "t": 52468.74999999996,
      "d": 130.20833333333576,
      "v": 37
    },
    {
      "midi": 66,
      "hit": false,
      "t": 52661.4583333333,
      "d": 510.41666666666424,
      "v": 77
    },
    {
      "midi": 46,
      "hit": false,
      "t": 52695.31249999996,
      "d": 408.85416666666424,
      "v": 29
    },
    {
      "midi": 53,
      "hit": false,
      "t": 52916.66666666663,
      "d": 148.4375,
      "v": 56
    },
    {
      "midi": 63,
      "hit": false,
      "t": 53093.74999999996,
      "d": 471.35416666665697,
      "v": 79
    },
    {
      "midi": 41,
      "hit": false,
      "t": 53117.18749999996,
      "d": 528.6458333333212,
      "v": 43
    },
    {
      "midi": 55,
      "hit": false,
      "t": 53320.31249999996,
      "d": 208.33333333332848,
      "v": 34
    },
    {
      "midi": 61,
      "hit": false,
      "t": 53531.249999999956,
      "d": 325.5208333333285,
      "v": 76
    },
    {
      "midi": 46,
      "hit": false,
      "t": 53546.874999999956,
      "d": 414.0624999999927,
      "v": 36
    },
    {
      "midi": 57,
      "hit": false,
      "t": 53768.22916666662,
      "d": 91.14583333332848,
      "v": 36
    },
    {
      "midi": 41,
      "hit": false,
      "t": 54020.833333333285,
      "d": 114.58333333333576,
      "v": 31
    },
    {
      "midi": 55,
      "hit": false,
      "t": 54247.395833333285,
      "d": 96.35416666666424,
      "v": 19
    },
    {
      "midi": 82,
      "hit": false,
      "t": 54440.10416666661,
      "d": 403.6458333333285,
      "v": 55
    },
    {
      "midi": 68,
      "hit": false,
      "t": 54450.52083333328,
      "d": 497.3958333333285,
      "v": 34
    },
    {
      "midi": 46,
      "hit": false,
      "t": 54460.93749999994,
      "d": 286.45833333333576,
      "v": 23
    },
    {
      "midi": 53,
      "hit": false,
      "t": 54695.31249999994,
      "d": 151.04166666666424,
      "v": 35
    },
    {
      "midi": 41,
      "hit": false,
      "t": 54885.416666666606,
      "d": 127.60416666666424,
      "v": 37
    },
    {
      "midi": 55,
      "hit": false,
      "t": 55104.166666666606,
      "d": 145.83333333333576,
      "v": 34
    },
    {
      "midi": 61,
      "hit": false,
      "t": 55312.49999999994,
      "d": 247.39583333333576,
      "v": 40
    },
    {
      "midi": 75,
      "hit": false,
      "t": 55312.49999999994,
      "d": 406.2500000000073,
      "v": 48
    },
    {
      "midi": 46,
      "hit": false,
      "t": 55333.33333333327,
      "d": 364.58333333334303,
      "v": 25
    },
    {
      "midi": 57,
      "hit": false,
      "t": 55518.229166666606,
      "d": 85.93750000000728,
      "v": 36
    },
    {
      "midi": 41,
      "hit": false,
      "t": 55755.208333333285,
      "d": 78.125,
      "v": 37
    },
    {
      "midi": 55,
      "hit": false,
      "t": 55979.16666666662,
      "d": 80.72916666666424,
      "v": 37
    },
    {
      "midi": 68,
      "hit": false,
      "t": 56161.458333333285,
      "d": 505.2083333333212,
      "v": 53
    },
    {
      "midi": 82,
      "hit": false,
      "t": 56171.87499999995,
      "d": 401.04166666665697,
      "v": 43
    },
    {
      "midi": 46,
      "hit": false,
      "t": 56195.31249999995,
      "d": 359.3749999999927,
      "v": 29
    },
    {
      "midi": 53,
      "hit": false,
      "t": 56447.91666666661,
      "d": 104.16666666666424,
      "v": 32
    },
    {
      "midi": 41,
      "hit": false,
      "t": 56648.43749999994,
      "d": 111.97916666666424,
      "v": 26
    },
    {
      "midi": 55,
      "hit": false,
      "t": 56869.791666666606,
      "d": 98.95833333333576,
      "v": 30
    },
    {
      "midi": 61,
      "hit": false,
      "t": 57054.68749999994,
      "d": 429.6875000000073,
      "v": 47
    },
    {
      "midi": 75,
      "hit": false,
      "t": 57067.70833333328,
      "d": 710.9375000000073,
      "v": 35
    },
    {
      "midi": 46,
      "hit": false,
      "t": 57096.35416666661,
      "d": 473.95833333333576,
      "v": 26
    },
    {
      "midi": 57,
      "hit": false,
      "t": 57291.66666666661,
      "d": 93.75,
      "v": 29
    },
    {
      "midi": 41,
      "hit": false,
      "t": 57583.333333333285,
      "d": 132.8125,
      "v": 24
    },
    {
      "midi": 55,
      "hit": false,
      "t": 57828.12499999995,
      "d": 158.85416666666424,
      "v": 26
    },
    {
      "midi": 80,
      "hit": false,
      "t": 58054.68749999995,
      "d": 486.9791666666715,
      "v": 72
    },
    {
      "midi": 46,
      "hit": false,
      "t": 58078.12499999995,
      "d": 403.64583333334303,
      "v": 27
    },
    {
      "midi": 53,
      "hit": false,
      "t": 58278.645833333285,
      "d": 182.29166666667152,
      "v": 52
    },
    {
      "midi": 82,
      "hit": false,
      "t": 58432.29166666662,
      "d": 153.64583333333576,
      "v": 45
    },
    {
      "midi": 79,
      "hit": false,
      "t": 58484.374999999956,
      "d": 299.47916666665697,
      "v": 72
    },
    {
      "midi": 41,
      "hit": false,
      "t": 58492.187499999956,
      "d": 427.0833333333212,
      "v": 37
    },
    {
      "midi": 55,
      "hit": false,
      "t": 58697.91666666662,
      "d": 164.06249999999272,
      "v": 38
    },
    {
      "midi": 78,
      "hit": false,
      "t": 58708.333333333285,
      "d": 234.37499999999272,
      "v": 71
    },
    {
      "midi": 75,
      "hit": false,
      "t": 58927.08333333328,
      "d": 432.2916666666715,
      "v": 63
    },
    {
      "midi": 46,
      "hit": false,
      "t": 58937.49999999994,
      "d": 458.33333333333576,
      "v": 25
    },
    {
      "midi": 57,
      "hit": false,
      "t": 59135.41666666661,
      "d": 93.75,
      "v": 32
    },
    {
      "midi": 78,
      "hit": false,
      "t": 59265.62499999995,
      "d": 179.68749999999272,
      "v": 48
    },
    {
      "midi": 74,
      "hit": false,
      "t": 59333.333333333285,
      "d": 291.66666666665697,
      "v": 64
    },
    {
      "midi": 41,
      "hit": false,
      "t": 59377.60416666661,
      "d": 320.3124999999927,
      "v": 33
    },
    {
      "midi": 73,
      "hit": false,
      "t": 59546.87499999994,
      "d": 250,
      "v": 62
    },
    {
      "midi": 55,
      "hit": false,
      "t": 59575.52083333328,
      "d": 127.60416666666424,
      "v": 27
    },
    {
      "midi": 70,
      "hit": false,
      "t": 59773.43749999994,
      "d": 408.85416666666424,
      "v": 60
    },
    {
      "midi": 46,
      "hit": false,
      "t": 59799.479166666606,
      "d": 375,
      "v": 24
    },
    {
      "midi": 53,
      "hit": false,
      "t": 60028.64583333327,
      "d": 104.16666666667152,
      "v": 45
    },
    {
      "midi": 73,
      "hit": false,
      "t": 60119.791666666606,
      "d": 177.08333333333576,
      "v": 40
    },
    {
      "midi": 69,
      "hit": false,
      "t": 60197.916666666606,
      "d": 273.4375000000073,
      "v": 49
    },
    {
      "midi": 41,
      "hit": false,
      "t": 60203.12499999994,
      "d": 401.0416666666715,
      "v": 34
    },
    {
      "midi": 68,
      "hit": false,
      "t": 60406.24999999994,
      "d": 229.16666666667152,
      "v": 54
    },
    {
      "midi": 55,
      "hit": false,
      "t": 60414.06249999994,
      "d": 156.25000000000728,
      "v": 35
    },
    {
      "midi": 67,
      "hit": false,
      "t": 60627.60416666661,
      "d": 289.0625,
      "v": 50
    },
    {
      "midi": 46,
      "hit": false,
      "t": 60638.02083333328,
      "d": 536.4583333333358,
      "v": 28
    },
    {
      "midi": 66,
      "hit": false,
      "t": 60841.14583333328,
      "d": 283.8541666666715,
      "v": 43
    },
    {
      "midi": 57,
      "hit": false,
      "t": 60861.97916666661,
      "d": 106.77083333333576,
      "v": 21
    },
    {
      "midi": 63,
      "hit": false,
      "t": 61080.72916666662,
      "d": 231.77083333332848,
      "v": 62
    },
    {
      "midi": 41,
      "hit": false,
      "t": 61114.583333333285,
      "d": 182.29166666666424,
      "v": 37
    },
    {
      "midi": 55,
      "hit": false,
      "t": 61354.16666666661,
      "d": 93.75,
      "v": 27
    },
    {
      "midi": 80,
      "hit": false,
      "t": 61510.41666666661,
      "d": 442.7083333333285,
      "v": 75
    },
    {
      "midi": 46,
      "hit": false,
      "t": 61528.64583333328,
      "d": 424.47916666666424,
      "v": 26
    },
    {
      "midi": 53,
      "hit": false,
      "t": 61739.58333333328,
      "d": 143.22916666666424,
      "v": 42
    },
    {
      "midi": 82,
      "hit": false,
      "t": 61864.58333333328,
      "d": 156.25,
      "v": 56
    },
    {
      "midi": 41,
      "hit": false,
      "t": 61921.87499999994,
      "d": 515.625,
      "v": 40
    },
    {
      "midi": 79,
      "hit": false,
      "t": 61924.479166666606,
      "d": 276.0416666666715,
      "v": 68
    },
    {
      "midi": 55,
      "hit": false,
      "t": 62132.81249999994,
      "d": 213.54166666667152,
      "v": 39
    },
    {
      "midi": 78,
      "hit": false,
      "t": 62148.43749999994,
      "d": 239.58333333333576,
      "v": 60
    },
    {
      "midi": 75,
      "hit": false,
      "t": 62364.58333333328,
      "d": 421.8749999999927,
      "v": 57
    },
    {
      "midi": 46,
      "hit": false,
      "t": 62374.99999999994,
      "d": 260.41666666666424,
      "v": 34
    },
    {
      "midi": 57,
      "hit": false,
      "t": 62562.49999999994,
      "d": 98.95833333332848,
      "v": 42
    },
    {
      "midi": 78,
      "hit": false,
      "t": 62700.52083333327,
      "d": 177.08333333332848,
      "v": 44
    },
    {
      "midi": 74,
      "hit": false,
      "t": 62789.062499999935,
      "d": 263.02083333333576,
      "v": 53
    },
    {
      "midi": 41,
      "hit": false,
      "t": 62796.874999999935,
      "d": 385.4166666666715,
      "v": 34
    },
    {
      "midi": 55,
      "hit": false,
      "t": 62994.7916666666,
      "d": 135.41666666667152,
      "v": 39
    },
    {
      "midi": 73,
      "hit": false,
      "t": 62999.999999999935,
      "d": 210.9375,
      "v": 49
    },
    {
      "midi": 46,
      "hit": false,
      "t": 63208.33333333327,
      "d": 385.41666666666424,
      "v": 27
    },
    {
      "midi": 70,
      "hit": false,
      "t": 63218.749999999935,
      "d": 351.5625,
      "v": 42
    },
    {
      "midi": 53,
      "hit": false,
      "t": 63421.874999999935,
      "d": 177.08333333333576,
      "v": 59
    },
    {
      "midi": 73,
      "hit": false,
      "t": 63502.6041666666,
      "d": 171.87500000000728,
      "v": 32
    },
    {
      "midi": 69,
      "hit": false,
      "t": 63588.5416666666,
      "d": 270.83333333334303,
      "v": 42
    },
    {
      "midi": 41,
      "hit": false,
      "t": 63619.791666666606,
      "d": 296.875,
      "v": 46
    },
    {
      "midi": 68,
      "hit": false,
      "t": 63791.666666666606,
      "d": 229.16666666666424,
      "v": 52
    },
    {
      "midi": 55,
      "hit": false,
      "t": 63822.916666666606,
      "d": 195.3125,
      "v": 48
    },
    {
      "midi": 67,
      "hit": false,
      "t": 64031.249999999935,
      "d": 252.60416666667152,
      "v": 51
    },
    {
      "midi": 46,
      "hit": false,
      "t": 64044.27083333327,
      "d": 187.5,
      "v": 38
    },
    {
      "midi": 57,
      "hit": false,
      "t": 64236.979166666606,
      "d": 72.91666666666424,
      "v": 39
    },
    {
      "midi": 66,
      "hit": false,
      "t": 64242.18749999994,
      "d": 273.4374999999927,
      "v": 44
    },
    {
      "midi": 63,
      "hit": false,
      "t": 64460.937499999935,
      "d": 171.875,
      "v": 56
    },
    {
      "midi": 41,
      "hit": false,
      "t": 64466.14583333327,
      "d": 135.41666666666424,
      "v": 33
    },
    {
      "midi": 55,
      "hit": false,
      "t": 64692.70833333327,
      "d": 96.35416666666424,
      "v": 27
    },
    {
      "midi": 46,
      "hit": false,
      "t": 64932.2916666666,
      "d": 255.20833333332848,
      "v": 32
    },
    {
      "midi": 82,
      "hit": false,
      "t": 64934.89583333326,
      "d": 361.97916666666424,
      "v": 77
    },
    {
      "midi": 68,
      "hit": false,
      "t": 64945.31249999993,
      "d": 442.70833333333576,
      "v": 52
    },
    {
      "midi": 53,
      "hit": false,
      "t": 65169.27083333326,
      "d": 83.33333333332848,
      "v": 45
    },
    {
      "midi": 41,
      "hit": false,
      "t": 65356.77083333326,
      "d": 122.39583333333576,
      "v": 46
    },
    {
      "midi": 55,
      "hit": false,
      "t": 65596.3541666666,
      "d": 80.72916666667152,
      "v": 41
    },
    {
      "midi": 75,
      "hit": false,
      "t": 65781.24999999994,
      "d": 424.47916666668607,
      "v": 63
    },
    {
      "midi": 61,
      "hit": false,
      "t": 65791.66666666661,
      "d": 296.87500000001455,
      "v": 56
    },
    {
      "midi": 46,
      "hit": false,
      "t": 65828.12499999994,
      "d": 182.29166666667152,
      "v": 33
    },
    {
      "midi": 57,
      "hit": false,
      "t": 66013.02083333328,
      "d": 75.52083333334303,
      "v": 34
    },
    {
      "midi": 41,
      "hit": false,
      "t": 66231.7708333333,
      "d": 80.72916666667152,
      "v": 41
    },
    {
      "midi": 55,
      "hit": false,
      "t": 66463.54166666664,
      "d": 70.3125,
      "v": 39
    },
    {
      "midi": 82,
      "hit": false,
      "t": 66656.24999999997,
      "d": 354.16666666665697,
      "v": 60
    },
    {
      "midi": 68,
      "hit": false,
      "t": 66669.2708333333,
      "d": 445.3125,
      "v": 33
    },
    {
      "midi": 46,
      "hit": false,
      "t": 66677.0833333333,
      "d": 226.5625,
      "v": 33
    },
    {
      "midi": 53,
      "hit": false,
      "t": 66906.24999999997,
      "d": 88.54166666665697,
      "v": 44
    },
    {
      "midi": 41,
      "hit": false,
      "t": 67119.79166666663,
      "d": 70.3125,
      "v": 32
    },
    {
      "midi": 55,
      "hit": false,
      "t": 67322.91666666663,
      "d": 88.54166666667152,
      "v": 32
    },
    {
      "midi": 75,
      "hit": false,
      "t": 67526.04166666663,
      "d": 755.2083333333285,
      "v": 29
    },
    {
      "midi": 61,
      "hit": false,
      "t": 67533.85416666663,
      "d": 276.04166666665697,
      "v": 26
    },
    {
      "midi": 46,
      "hit": false,
      "t": 67541.66666666663,
      "d": 184.89583333332848,
      "v": 25
    },
    {
      "midi": 57,
      "hit": false,
      "t": 67749.99999999996,
      "d": 70.3125,
      "v": 34
    },
    {
      "midi": 41,
      "hit": false,
      "t": 67997.39583333328,
      "d": 88.54166666667152,
      "v": 39
    },
    {
      "midi": 55,
      "hit": false,
      "t": 68249.99999999996,
      "d": 83.33333333332848,
      "v": 32
    },
    {
      "midi": 77,
      "hit": false,
      "t": 68473.95833333328,
      "d": 145.83333333334303,
      "v": 64
    },
    {
      "midi": 46,
      "hit": false,
      "t": 68507.81249999996,
      "d": 190.10416666667152,
      "v": 27
    },
    {
      "midi": 62,
      "hit": false,
      "t": 68744.79166666663,
      "d": 67.70833333334303,
      "v": 34
    },
    {
      "midi": 53,
      "hit": false,
      "t": 68755.2083333333,
      "d": 78.125,
      "v": 41
    },
    {
      "midi": 77,
      "hit": false,
      "t": 68955.72916666663,
      "d": 65.10416666665697,
      "v": 55
    },
    {
      "midi": 41,
      "hit": false,
      "t": 68960.93749999996,
      "d": 83.33333333332848,
      "v": 30
    },
    {
      "midi": 75,
      "hit": false,
      "t": 69166.66666666661,
      "d": 182.29166666665697,
      "v": 55
    },
    {
      "midi": 63,
      "hit": false,
      "t": 69179.68749999994,
      "d": 59.89583333332848,
      "v": 39
    },
    {
      "midi": 55,
      "hit": false,
      "t": 69187.49999999994,
      "d": 88.54166666665697,
      "v": 27
    },
    {
      "midi": 74,
      "hit": false,
      "t": 69385.4166666666,
      "d": 278.64583333331393,
      "v": 69
    },
    {
      "midi": 46,
      "hit": false,
      "t": 69403.64583333326,
      "d": 174.47916666667152,
      "v": 29
    },
    {
      "midi": 57,
      "hit": false,
      "t": 69578.12499999993,
      "d": 70.31249999998545,
      "v": 37
    },
    {
      "midi": 65,
      "hit": false,
      "t": 69619.79166666658,
      "d": 247.39583333332848,
      "v": 33
    },
    {
      "midi": 72,
      "hit": false,
      "t": 69820.31249999991,
      "d": 450.5208333333285,
      "v": 52
    },
    {
      "midi": 41,
      "hit": false,
      "t": 69835.93749999991,
      "d": 164.0625,
      "v": 27
    },
    {
      "midi": 63,
      "hit": false,
      "t": 70036.45833333324,
      "d": 106.77083333334303,
      "v": 41
    },
    {
      "midi": 55,
      "hit": false,
      "t": 70062.49999999991,
      "d": 96.35416666667152,
      "v": 13
    },
    {
      "midi": 70,
      "hit": false,
      "t": 70218.74999999991,
      "d": 247.39583333332848,
      "v": 53
    },
    {
      "midi": 46,
      "hit": false,
      "t": 70249.99999999991,
      "d": 208.33333333332848,
      "v": 19
    },
    {
      "midi": 62,
      "hit": false,
      "t": 70453.12499999991,
      "d": 169.27083333332848,
      "v": 40
    },
    {
      "midi": 53,
      "hit": false,
      "t": 70489.58333333324,
      "d": 72.91666666667152,
      "v": 16
    },
    {
      "midi": 41,
      "hit": false,
      "t": 70666.66666666657,
      "d": 80.72916666667152,
      "v": 31
    },
    {
      "midi": 67,
      "hit": false,
      "t": 70729.16666666657,
      "d": 367.18749999998545,
      "v": 5
    },
    {
      "midi": 63,
      "hit": false,
      "t": 70843.74999999991,
      "d": 171.87499999998545,
      "v": 62
    },
    {
      "midi": 55,
      "hit": false,
      "t": 70880.20833333324,
      "d": 98.95833333332848,
      "v": 27
    },
    {
      "midi": 46,
      "hit": false,
      "t": 71083.33333333323,
      "d": 408.85416666665697,
      "v": 19
    },
    {
      "midi": 65,
      "hit": false,
      "t": 71088.54166666656,
      "d": 5682.2916666666715,
      "v": 45
    },
    {
      "midi": 57,
      "hit": false,
      "t": 71299.47916666656,
      "d": 75.52083333332848,
      "v": 19
    },
    {
      "midi": 62,
      "hit": false,
      "t": 71322.91666666656,
      "d": 421.87499999998545,
      "v": 30
    },
    {
      "midi": 41,
      "hit": false,
      "t": 71567.70833333321,
      "d": 67.70833333332848,
      "v": 14
    },
    {
      "midi": 55,
      "hit": false,
      "t": 71757.81249999987,
      "d": 104.16666666665697,
      "v": 19
    },
    {
      "midi": 60,
      "hit": false,
      "t": 71763.0208333332,
      "d": 91.14583333332848,
      "v": 29
    },
    {
      "midi": 46,
      "hit": false,
      "t": 71979.16666666653,
      "d": 468.75000000001455,
      "v": 34
    },
    {
      "midi": 62,
      "hit": false,
      "t": 72184.8958333332,
      "d": 492.18750000001455,
      "v": 73
    },
    {
      "midi": 53,
      "hit": false,
      "t": 72223.9583333332,
      "d": 119.79166666667152,
      "v": 48
    },
    {
      "midi": 41,
      "hit": false,
      "t": 72437.49999999987,
      "d": 93.75,
      "v": 41
    },
    {
      "midi": 60,
      "hit": false,
      "t": 72632.81249999987,
      "d": 460.9375,
      "v": 61
    },
    {
      "midi": 55,
      "hit": false,
      "t": 72666.66666666654,
      "d": 182.29166666667152,
      "v": 30
    },
    {
      "midi": 46,
      "hit": false,
      "t": 72877.60416666654,
      "d": 473.95833333334303,
      "v": 27
    },
    {
      "midi": 62,
      "hit": false,
      "t": 73104.16666666654,
      "d": 497.3958333333576,
      "v": 49
    },
    {
      "midi": 57,
      "hit": false,
      "t": 73106.77083333321,
      "d": 135.41666666667152,
      "v": 15
    },
    {
      "midi": 41,
      "hit": false,
      "t": 73416.66666666656,
      "d": 80.72916666667152,
      "v": 14
    },
    {
      "midi": 60,
      "hit": false,
      "t": 73593.7499999999,
      "d": 197.91666666665697,
      "v": 34
    },
    {
      "midi": 55,
      "hit": false,
      "t": 73679.6874999999,
      "d": 106.77083333332848,
      "v": 2
    },
    {
      "midi": 46,
      "hit": false,
      "t": 73809.89583333323,
      "d": 432.29166666668607,
      "v": 28
    },
    {
      "midi": 62,
      "hit": false,
      "t": 74072.91666666657,
      "d": 489.5833333333285,
      "v": 54
    },
    {
      "midi": 53,
      "hit": false,
      "t": 74083.33333333324,
      "d": 93.75,
      "v": 44
    },
    {
      "midi": 41,
      "hit": false,
      "t": 74299.47916666657,
      "d": 567.7083333333139,
      "v": 26
    },
    {
      "midi": 55,
      "hit": false,
      "t": 74588.54166666657,
      "d": 197.91666666665697,
      "v": 18
    },
    {
      "midi": 60,
      "hit": false,
      "t": 74588.54166666657,
      "d": 572.916666666657,
      "v": 38
    },
    {
      "midi": 46,
      "hit": false,
      "t": 74885.41666666656,
      "d": 156.25,
      "v": 17
    },
    {
      "midi": 57,
      "hit": false,
      "t": 75192.70833333323,
      "d": 114.58333333332848,
      "v": 15
    },
    {
      "midi": 62,
      "hit": false,
      "t": 75192.70833333323,
      "d": 817.7083333333285,
      "v": 35
    },
    {
      "midi": 41,
      "hit": false,
      "t": 75531.24999999988,
      "d": 187.5,
      "v": 32
    },
    {
      "midi": 55,
      "hit": false,
      "t": 75966.14583333321,
      "d": 309.89583333334303,
      "v": 21
    },
    {
      "midi": 60,
      "hit": false,
      "t": 75976.56249999988,
      "d": 606.770833333343,
      "v": 23
    },
    {
      "midi": 46,
      "hit": false,
      "t": 77395.83333333323,
      "d": 635.4166666666715,
      "v": 23
    },
    {
      "midi": 62,
      "hit": false,
      "t": 77833.33333333323,
      "d": 343.75,
      "v": 30
    },
    {
      "midi": 69,
      "hit": false,
      "t": 78333.33333333323,
      "d": 244.79166666667152,
      "v": 21
    },
    {
      "midi": 54,
      "hit": false,
      "t": 78346.35416666656,
      "d": 151.04166666667152,
      "v": 23
    },
    {
      "midi": 73,
      "hit": false,
      "t": 78843.7499999999,
      "d": 140.625,
      "v": 30
    },
    {
      "midi": 66,
      "hit": false,
      "t": 79341.14583333323,
      "d": 140.625,
      "v": 12
    },
    {
      "midi": 81,
      "hit": false,
      "t": 79341.14583333323,
      "d": 140.625,
      "v": 26
    },
    {
      "midi": 85,
      "hit": false,
      "t": 79825.52083333323,
      "d": 83.33333333332848,
      "v": 38
    },
    {
      "midi": 78,
      "hit": false,
      "t": 80505.20833333323,
      "d": 135.41666666667152,
      "v": 27
    },
    {
      "midi": 73,
      "hit": false,
      "t": 80523.4374999999,
      "d": 91.14583333332848,
      "v": 21
    },
    {
      "midi": 93,
      "hit": false,
      "t": 80692.70833333323,
      "d": 492.18750000001455,
      "v": 23
    },
    {
      "midi": 90,
      "hit": false,
      "t": 80695.3124999999,
      "d": 302.08333333334303,
      "v": 14
    },
    {
      "midi": 77,
      "hit": false,
      "t": 80721.35416666657,
      "d": 187.5,
      "v": 16
    },
    {
      "midi": 72,
      "hit": false,
      "t": 80744.79166666657,
      "d": 226.5625,
      "v": 16
    },
    {
      "midi": 62,
      "hit": false,
      "t": 89510.41666666657,
      "d": 510.4166666666715,
      "v": 25
    },
    {
      "midi": 64,
      "hit": false,
      "t": 89924.47916666657,
      "d": 445.3125,
      "v": 43
    },
    {
      "midi": 61,
      "hit": false,
      "t": 89927.08333333324,
      "d": 354.1666666666715,
      "v": 30
    },
    {
      "midi": 65,
      "hit": false,
      "t": 90270.83333333324,
      "d": 445.31249999998545,
      "v": 57
    },
    {
      "midi": 60,
      "hit": false,
      "t": 90296.87499999991,
      "d": 328.12499999998545,
      "v": 19
    },
    {
      "midi": 58,
      "hit": false,
      "t": 90609.3749999999,
      "d": 359.37499999998545,
      "v": 18
    },
    {
      "midi": 67,
      "hit": false,
      "t": 90614.58333333323,
      "d": 401.04166666665697,
      "v": 63
    },
    {
      "midi": 69,
      "hit": false,
      "t": 90942.70833333323,
      "d": 471.3541666666715,
      "v": 55
    },
    {
      "midi": 55,
      "hit": false,
      "t": 90955.72916666656,
      "d": 307.2916666666715,
      "v": 44
    },
    {
      "midi": 58,
      "hit": false,
      "t": 91263.02083333323,
      "d": 343.75000000001455,
      "v": 33
    },
    {
      "midi": 64,
      "hit": false,
      "t": 91291.66666666656,
      "d": 385.4166666666715,
      "v": 51
    },
    {
      "midi": 57,
      "hit": false,
      "t": 91611.97916666657,
      "d": 335.93749999998545,
      "v": 25
    },
    {
      "midi": 62,
      "hit": false,
      "t": 91632.8124999999,
      "d": 377.60416666665697,
      "v": 41
    },
    {
      "midi": 60,
      "hit": false,
      "t": 91989.58333333323,
      "d": 174.47916666665697,
      "v": 20
    },
    {
      "midi": 62,
      "hit": false,
      "t": 92317.70833333321,
      "d": 440.1041666666715,
      "v": 63
    },
    {
      "midi": 64,
      "hit": false,
      "t": 92664.06249999988,
      "d": 414.06250000001455,
      "v": 64
    },
    {
      "midi": 61,
      "hit": false,
      "t": 92671.87499999988,
      "d": 330.7291666666715,
      "v": 46
    },
    {
      "midi": 65,
      "hit": false,
      "t": 92992.18749999988,
      "d": 421.87500000001455,
      "v": 59
    },
    {
      "midi": 60,
      "hit": false,
      "t": 93020.83333333323,
      "d": 335.9375,
      "v": 41
    },
    {
      "midi": 58,
      "hit": false,
      "t": 93343.7499999999,
      "d": 369.7916666666715,
      "v": 23
    },
    {
      "midi": 67,
      "hit": false,
      "t": 93348.95833333323,
      "d": 364.58333333334303,
      "v": 54
    },
    {
      "midi": 69,
      "hit": false,
      "t": 93703.1249999999,
      "d": 213.54166666667152,
      "v": 39
    },
    {
      "midi": 55,
      "hit": false,
      "t": 93739.58333333324,
      "d": 335.9375,
      "v": 29
    },
    {
      "midi": 64,
      "hit": false,
      "t": 93869.79166666657,
      "d": 151.04166666667152,
      "v": 51
    },
    {
      "midi": 58,
      "hit": false,
      "t": 94041.66666666657,
      "d": 419.27083333334303,
      "v": 22
    },
    {
      "midi": 69,
      "hit": false,
      "t": 94052.08333333324,
      "d": 182.29166666667152,
      "v": 34
    },
    {
      "midi": 64,
      "hit": false,
      "t": 94244.79166666658,
      "d": 216.14583333332848,
      "v": 48
    },
    {
      "midi": 57,
      "hit": false,
      "t": 94460.93749999991,
      "d": 294.27083333334303,
      "v": 20
    },
    {
      "midi": 62,
      "hit": false,
      "t": 94463.54166666658,
      "d": 234.375,
      "v": 39
    },
    {
      "midi": 60,
      "hit": false,
      "t": 94828.12499999993,
      "d": 111.97916666667152,
      "v": 23
    },
    {
      "midi": 62,
      "hit": false,
      "t": 95153.64583333327,
      "d": 367.18749999998545,
      "v": 56
    },
    {
      "midi": 61,
      "hit": false,
      "t": 95492.18749999993,
      "d": 367.1875,
      "v": 34
    },
    {
      "midi": 64,
      "hit": false,
      "t": 95499.99999999993,
      "d": 341.1458333333285,
      "v": 63
    },
    {
      "midi": 65,
      "hit": false,
      "t": 95817.70833333326,
      "d": 377.6041666666715,
      "v": 50
    },
    {
      "midi": 60,
      "hit": false,
      "t": 95843.74999999993,
      "d": 369.7916666666715,
      "v": 32
    },
    {
      "midi": 70,
      "hit": false,
      "t": 96151.0416666666,
      "d": 390.625,
      "v": 52
    },
    {
      "midi": 58,
      "hit": false,
      "t": 96195.31249999993,
      "d": 359.375,
      "v": 21
    },
    {
      "midi": 76,
      "hit": false,
      "t": 96507.81249999993,
      "d": 414.06250000001455,
      "v": 45
    },
    {
      "midi": 55,
      "hit": false,
      "t": 96570.31249999993,
      "d": 273.4375,
      "v": 24
    },
    {
      "midi": 69,
      "hit": false,
      "t": 96867.18749999993,
      "d": 359.3750000000291,
      "v": 30
    },
    {
      "midi": 64,
      "hit": false,
      "t": 96888.02083333327,
      "d": 226.56250000001455,
      "v": 35
    },
    {
      "midi": 65,
      "hit": false,
      "t": 97210.93749999996,
      "d": 609.3749999999854,
      "v": 37
    },
    {
      "midi": 57,
      "hit": false,
      "t": 97229.16666666663,
      "d": 291.66666666665697,
      "v": 24
    },
    {
      "midi": 58,
      "hit": false,
      "t": 97570.31249999994,
      "d": 59.89583333332848,
      "v": 44
    },
    {
      "midi": 62,
      "hit": false,
      "t": 97877.60416666661,
      "d": 385.41666666665697,
      "v": 61
    },
    {
      "midi": 64,
      "hit": false,
      "t": 98213.54166666661,
      "d": 335.9375,
      "v": 70
    },
    {
      "midi": 61,
      "hit": false,
      "t": 98226.56249999994,
      "d": 346.3541666666715,
      "v": 41
    },
    {
      "midi": 65,
      "hit": false,
      "t": 98531.24999999994,
      "d": 390.625,
      "v": 59
    },
    {
      "midi": 60,
      "hit": false,
      "t": 98559.89583333328,
      "d": 348.9583333333285,
      "v": 29
    },
    {
      "midi": 70,
      "hit": false,
      "t": 98874.99999999996,
      "d": 343.74999999998545,
      "v": 53
    },
    {
      "midi": 58,
      "hit": false,
      "t": 98888.02083333328,
      "d": 333.3333333333285,
      "v": 23
    },
    {
      "midi": 76,
      "hit": false,
      "t": 99216.14583333327,
      "d": 158.85416666668607,
      "v": 42
    },
    {
      "midi": 55,
      "hit": false,
      "t": 99244.79166666661,
      "d": 263.02083333334303,
      "v": 30
    },
    {
      "midi": 69,
      "hit": false,
      "t": 99356.77083333328,
      "d": 151.04166666667152,
      "v": 47
    },
    {
      "midi": 76,
      "hit": false,
      "t": 99533.85416666663,
      "d": 122.39583333332848,
      "v": 30
    },
    {
      "midi": 64,
      "hit": false,
      "t": 99541.66666666663,
      "d": 187.5,
      "v": 34
    },
    {
      "midi": 69,
      "hit": false,
      "t": 99666.66666666663,
      "d": 195.3125,
      "v": 37
    },
    {
      "midi": 57,
      "hit": false,
      "t": 99854.16666666663,
      "d": 208.33333333334303,
      "v": 28
    },
    {
      "midi": 65,
      "hit": false,
      "t": 99864.5833333333,
      "d": 708.3333333333285,
      "v": 45
    },
    {
      "midi": 58,
      "hit": false,
      "t": 100231.7708333333,
      "d": 80.72916666667152,
      "v": 22
    },
    {
      "midi": 62,
      "hit": false,
      "t": 100552.0833333333,
      "d": 312.5,
      "v": 55
    },
    {
      "midi": 64,
      "hit": false,
      "t": 100591.1458333333,
      "d": 367.1875,
      "v": 67
    },
    {
      "midi": 61,
      "hit": false,
      "t": 100908.85416666663,
      "d": 289.0625,
      "v": 32
    },
    {
      "midi": 62,
      "hit": false,
      "t": 101174.47916666663,
      "d": 52.08333333332848,
      "v": 58
    },
    {
      "midi": 64,
      "hit": false,
      "t": 101229.16666666663,
      "d": 364.58333333334303,
      "v": 66
    },
    {
      "midi": 60,
      "hit": false,
      "t": 101239.5833333333,
      "d": 312.5,
      "v": 29
    },
    {
      "midi": 58,
      "hit": false,
      "t": 101575.5208333333,
      "d": 236.97916666667152,
      "v": 21
    },
    {
      "midi": 62,
      "hit": false,
      "t": 101770.8333333333,
      "d": 59.895833333343035,
      "v": 58
    },
    {
      "midi": 64,
      "hit": false,
      "t": 101864.58333333331,
      "d": 208.33333333332848,
      "v": 66
    },
    {
      "midi": 55,
      "hit": false,
      "t": 101919.27083333331,
      "d": 210.9375,
      "v": 26
    },
    {
      "midi": 69,
      "hit": false,
      "t": 102205.72916666664,
      "d": 377.6041666666715,
      "v": 46
    },
    {
      "midi": 64,
      "hit": false,
      "t": 102216.14583333331,
      "d": 299.4791666666715,
      "v": 24
    },
    {
      "midi": 65,
      "hit": false,
      "t": 102562.49999999999,
      "d": 518.229166666657,
      "v": 49
    },
    {
      "midi": 57,
      "hit": false,
      "t": 102585.93749999999,
      "d": 236.97916666665697,
      "v": 20
    },
    {
      "midi": 58,
      "hit": false,
      "t": 102916.66666666664,
      "d": 83.33333333332848,
      "v": 30
    },
    {
      "midi": 62,
      "hit": false,
      "t": 103226.56249999999,
      "d": 59.895833333343035,
      "v": 55
    },
    {
      "midi": 64,
      "hit": false,
      "t": 103229.16666666666,
      "d": 161.45833333334303,
      "v": 81
    },
    {
      "midi": 62,
      "hit": false,
      "t": 103380.20833333333,
      "d": 158.85416666667152,
      "v": 71
    },
    {
      "midi": 64,
      "hit": false,
      "t": 103554.6875,
      "d": 127.60416666667152,
      "v": 72
    },
    {
      "midi": 61,
      "hit": false,
      "t": 103557.29166666667,
      "d": 320.3125,
      "v": 41
    },
    {
      "midi": 62,
      "hit": false,
      "t": 103695.3125,
      "d": 171.875,
      "v": 71
    },
    {
      "midi": 64,
      "hit": false,
      "t": 103864.58333333333,
      "d": 359.37500000001455,
      "v": 63
    },
    {
      "midi": 60,
      "hit": false,
      "t": 103880.20833333334,
      "d": 325.5208333333285,
      "v": 37
    },
    {
      "midi": 62,
      "hit": false,
      "t": 104200.52083333334,
      "d": 351.5625,
      "v": 51
    },
    {
      "midi": 58,
      "hit": false,
      "t": 104205.72916666667,
      "d": 356.77083333334303,
      "v": 23
    },
    {
      "midi": 64,
      "hit": false,
      "t": 104533.85416666667,
      "d": 283.8541666666715,
      "v": 51
    },
    {
      "midi": 55,
      "hit": false,
      "t": 104598.95833333334,
      "d": 260.4166666666715,
      "v": 21
    },
    {
      "midi": 69,
      "hit": false,
      "t": 104867.18750000001,
      "d": 338.5416666666715,
      "v": 43
    },
    {
      "midi": 64,
      "hit": false,
      "t": 104911.45833333334,
      "d": 190.10416666667152,
      "v": 52
    },
    {
      "midi": 65,
      "hit": false,
      "t": 105208.33333333336,
      "d": 476.5625,
      "v": 54
    },
    {
      "midi": 57,
      "hit": false,
      "t": 105239.58333333336,
      "d": 197.91666666665697,
      "v": 24
    },
    {
      "midi": 58,
      "hit": false,
      "t": 105526.04166666669,
      "d": 72.91666666667152,
      "v": 35
    },
    {
      "midi": 62,
      "hit": false,
      "t": 105828.12500000003,
      "d": 88.54166666667152,
      "v": 55
    },
    {
      "midi": 58,
      "hit": false,
      "t": 105833.33333333336,
      "d": 507.8125,
      "v": 51
    },
    {
      "midi": 64,
      "hit": false,
      "t": 105843.75000000003,
      "d": 421.875,
      "v": 75
    },
    {
      "midi": 50,
      "hit": false,
      "t": 106135.4166666667,
      "d": 372.39583333331393,
      "v": 56
    },
    {
      "midi": 62,
      "hit": false,
      "t": 106450.52083333336,
      "d": 57.291666666656965,
      "v": 67
    },
    {
      "midi": 64,
      "hit": false,
      "t": 106479.16666666669,
      "d": 481.77083333334303,
      "v": 80
    },
    {
      "midi": 52,
      "hit": false,
      "t": 106484.37500000001,
      "d": 338.5416666666715,
      "v": 63
    },
    {
      "midi": 43,
      "hit": false,
      "t": 106791.66666666669,
      "d": 309.89583333334303,
      "v": 64
    },
    {
      "midi": 62,
      "hit": false,
      "t": 107080.7291666667,
      "d": 75.52083333332848,
      "v": 58
    },
    {
      "midi": 50,
      "hit": false,
      "t": 107101.56250000003,
      "d": 359.375,
      "v": 45
    },
    {
      "midi": 64,
      "hit": false,
      "t": 107104.1666666667,
      "d": 468.75,
      "v": 61
    },
    {
      "midi": 36,
      "hit": false,
      "t": 107432.29166666669,
      "d": 356.7708333333576,
      "v": 57
    },
    {
      "midi": 69,
      "hit": false,
      "t": 107434.89583333336,
      "d": 338.54166666668607,
      "v": 59
    },
    {
      "midi": 65,
      "hit": false,
      "t": 107752.6041666667,
      "d": 695.3125000000146,
      "v": 68
    },
    {
      "midi": 38,
      "hit": false,
      "t": 107789.06250000004,
      "d": 268.2291666666715,
      "v": 50
    },
    {
      "midi": 58,
      "hit": false,
      "t": 108072.91666666672,
      "d": 190.10416666667152,
      "v": 34
    },
    {
      "midi": 53,
      "hit": false,
      "t": 108101.56250000004,
      "d": 111.97916666667152,
      "v": 75
    },
    {
      "midi": 58,
      "hit": false,
      "t": 108385.41666666672,
      "d": 395.8333333333285,
      "v": 55
    },
    {
      "midi": 64,
      "hit": false,
      "t": 108388.02083333339,
      "d": 195.3125,
      "v": 80
    },
    {
      "midi": 62,
      "hit": false,
      "t": 108552.08333333339,
      "d": 169.27083333332848,
      "v": 78
    },
    {
      "midi": 50,
      "hit": false,
      "t": 108669.27083333339,
      "d": 359.37499999998545,
      "v": 59
    },
    {
      "midi": 64,
      "hit": false,
      "t": 108690.10416666672,
      "d": 174.47916666667152,
      "v": 65
    },
    {
      "midi": 62,
      "hit": false,
      "t": 108838.54166666672,
      "d": 200.52083333332848,
      "v": 68
    },
    {
      "midi": 52,
      "hit": false,
      "t": 108932.29166666672,
      "d": 411.4583333333285,
      "v": 70
    },
    {
      "midi": 64,
      "hit": false,
      "t": 109007.81250000004,
      "d": 369.7916666666715,
      "v": 76
    },
    {
      "midi": 62,
      "hit": false,
      "t": 109317.70833333337,
      "d": 361.9791666666715,
      "v": 73
    },
    {
      "midi": 43,
      "hit": false,
      "t": 109325.52083333337,
      "d": 289.06250000001455,
      "v": 52
    },
    {
      "midi": 50,
      "hit": false,
      "t": 109635.41666666672,
      "d": 309.8958333333285,
      "v": 55
    },
    {
      "midi": 64,
      "hit": false,
      "t": 109635.41666666672,
      "d": 351.5625,
      "v": 79
    },
    {
      "midi": 69,
      "hit": false,
      "t": 109955.72916666672,
      "d": 231.77083333332848,
      "v": 65
    },
    {
      "midi": 36,
      "hit": false,
      "t": 109979.16666666672,
      "d": 361.9791666666715,
      "v": 46
    },
    {
      "midi": 65,
      "hit": false,
      "t": 110291.66666666672,
      "d": 338.5416666666715,
      "v": 68
    },
    {
      "midi": 38,
      "hit": false,
      "t": 110348.95833333339,
      "d": 203.125,
      "v": 44
    },
    {
      "midi": 53,
      "hit": false,
      "t": 110585.93750000006,
      "d": 52.08333333332848,
      "v": 56
    },
    {
      "midi": 58,
      "hit": false,
      "t": 110593.75000000006,
      "d": 78.125,
      "v": 36
    },
    {
      "midi": 74,
      "hit": false,
      "t": 110937.50000000006,
      "d": 91.14583333334303,
      "v": 44
    },
    {
      "midi": 58,
      "hit": false,
      "t": 110947.91666666673,
      "d": 408.8541666666715,
      "v": 25
    },
    {
      "midi": 76,
      "hit": false,
      "t": 110947.91666666673,
      "d": 526.0416666666715,
      "v": 60
    },
    {
      "midi": 50,
      "hit": false,
      "t": 111283.85416666673,
      "d": 296.87500000001455,
      "v": 29
    },
    {
      "midi": 74,
      "hit": false,
      "t": 111570.31250000007,
      "d": 91.14583333334303,
      "v": 48
    },
    {
      "midi": 76,
      "hit": false,
      "t": 111591.14583333342,
      "d": 252.60416666667152,
      "v": 20
    },
    {
      "midi": 52,
      "hit": false,
      "t": 111606.77083333342,
      "d": 208.33333333334303,
      "v": 34
    },
    {
      "midi": 43,
      "hit": false,
      "t": 111906.25000000009,
      "d": 119.79166666667152,
      "v": 25
    },
    {
      "midi": 50,
      "hit": false,
      "t": 112247.39583333343,
      "d": 125,
      "v": 36
    },
    {
      "midi": 76,
      "hit": false,
      "t": 112252.60416666676,
      "d": 179.6875,
      "v": 19
    },
    {
      "midi": 74,
      "hit": false,
      "t": 112255.20833333343,
      "d": 132.8125,
      "v": 36
    },
    {
      "midi": 88,
      "hit": false,
      "t": 112601.56250000009,
      "d": 57.29166666667152,
      "v": 38
    },
    {
      "midi": 36,
      "hit": false,
      "t": 112604.16666666676,
      "d": 166.66666666667152,
      "v": 28
    },
    {
      "midi": 86,
      "hit": false,
      "t": 112627.60416666676,
      "d": 78.125,
      "v": 23
    },
    {
      "midi": 76,
      "hit": false,
      "t": 112921.8750000001,
      "d": 320.31249999998545,
      "v": 32
    },
    {
      "midi": 74,
      "hit": false,
      "t": 112937.5000000001,
      "d": 333.33333333331393,
      "v": 32
    },
    {
      "midi": 38,
      "hit": false,
      "t": 112958.33333333343,
      "d": 218.75,
      "v": 24
    },
    {
      "midi": 70,
      "hit": false,
      "t": 113192.70833333343,
      "d": 83.33333333331393,
      "v": 34
    },
    {
      "midi": 65,
      "hit": false,
      "t": 113213.54166666676,
      "d": 57.291666666656965,
      "v": 31
    },
    {
      "midi": 58,
      "hit": false,
      "t": 113552.08333333342,
      "d": 299.47916666665697,
      "v": 32
    },
    {
      "midi": 76,
      "hit": false,
      "t": 113552.08333333342,
      "d": 390.62499999998545,
      "v": 30
    },
    {
      "midi": 74,
      "hit": false,
      "t": 113557.29166666674,
      "d": 309.8958333333285,
      "v": 63
    },
    {
      "midi": 88,
      "hit": false,
      "t": 113895.8333333334,
      "d": 187.5,
      "v": 47
    },
    {
      "midi": 86,
      "hit": false,
      "t": 113906.25000000007,
      "d": 145.83333333332848,
      "v": 56
    },
    {
      "midi": 50,
      "hit": false,
      "t": 113911.4583333334,
      "d": 223.95833333332848,
      "v": 36
    },
    {
      "midi": 76,
      "hit": false,
      "t": 114216.1458333334,
      "d": 312.49999999998545,
      "v": 23
    },
    {
      "midi": 74,
      "hit": false,
      "t": 114221.35416666673,
      "d": 260.41666666665697,
      "v": 61
    },
    {
      "midi": 52,
      "hit": false,
      "t": 114247.3958333334,
      "d": 278.64583333331393,
      "v": 37
    },
    {
      "midi": 43,
      "hit": false,
      "t": 114544.27083333339,
      "d": 140.625,
      "v": 27
    },
    {
      "midi": 88,
      "hit": false,
      "t": 114552.08333333339,
      "d": 114.58333333332848,
      "v": 52
    },
    {
      "midi": 86,
      "hit": false,
      "t": 114567.70833333339,
      "d": 67.70833333332848,
      "v": 41
    },
    {
      "midi": 76,
      "hit": false,
      "t": 114890.62500000006,
      "d": 250.00000000001455,
      "v": 22
    },
    {
      "midi": 74,
      "hit": false,
      "t": 114901.04166666673,
      "d": 210.9375,
      "v": 39
    },
    {
      "midi": 50,
      "hit": false,
      "t": 114901.04166666673,
      "d": 236.97916666667152,
      "v": 31
    },
    {
      "midi": 88,
      "hit": false,
      "t": 115239.5833333334,
      "d": 59.89583333332848,
      "v": 37
    },
    {
      "midi": 36,
      "hit": false,
      "t": 115244.79166666673,
      "d": 96.35416666667152,
      "v": 22
    },
    {
      "midi": 86,
      "hit": false,
      "t": 115260.41666666673,
      "d": 65.10416666667152,
      "v": 29
    },
    {
      "midi": 76,
      "hit": false,
      "t": 115565.10416666673,
      "d": 382.81250000001455,
      "v": 36
    },
    {
      "midi": 74,
      "hit": false,
      "t": 115591.1458333334,
      "d": 434.89583333334303,
      "v": 30
    },
    {
      "midi": 38,
      "hit": false,
      "t": 115606.7708333334,
      "d": 213.54166666667152,
      "v": 22
    },
    {
      "midi": 70,
      "hit": false,
      "t": 115924.47916666674,
      "d": 250,
      "v": 22
    },
    {
      "midi": 65,
      "hit": false,
      "t": 115958.33333333342,
      "d": 140.625,
      "v": 17
    },
    {
      "midi": 64,
      "hit": false,
      "t": 116395.83333333342,
      "d": 296.875,
      "v": 29
    },
    {
      "midi": 55,
      "hit": false,
      "t": 116453.12500000009,
      "d": 356.77083333334303,
      "v": 21
    },
    {
      "midi": 76,
      "hit": false,
      "t": 116473.95833333342,
      "d": 286.45833333334303,
      "v": 33
    },
    {
      "midi": 58,
      "hit": false,
      "t": 116757.81250000009,
      "d": 226.56250000001455,
      "v": 15
    },
    {
      "midi": 69,
      "hit": false,
      "t": 116986.97916666677,
      "d": 203.12499999998545,
      "v": 32
    },
    {
      "midi": 57,
      "hit": false,
      "t": 117015.6250000001,
      "d": 208.33333333332848,
      "v": 23
    },
    {
      "midi": 81,
      "hit": false,
      "t": 117067.70833333343,
      "d": 210.9375,
      "v": 41
    },
    {
      "midi": 60,
      "hit": false,
      "t": 117343.7500000001,
      "d": 250,
      "v": 21
    },
    {
      "midi": 76,
      "hit": false,
      "t": 117546.8750000001,
      "d": 166.66666666665697,
      "v": 29
    },
    {
      "midi": 58,
      "hit": false,
      "t": 117622.39583333343,
      "d": 591.1458333333285,
      "v": 14
    },
    {
      "midi": 88,
      "hit": false,
      "t": 117635.41666666676,
      "d": 218.75,
      "v": 43
    },
    {
      "midi": 62,
      "hit": false,
      "t": 117895.83333333343,
      "d": 106.77083333332848,
      "v": 31
    },
    {
      "midi": 81,
      "hit": false,
      "t": 118125.00000000009,
      "d": 156.25,
      "v": 26
    },
    {
      "midi": 93,
      "hit": false,
      "t": 118221.35416666676,
      "d": 166.66666666665697,
      "v": 33
    },
    {
      "midi": 60,
      "hit": false,
      "t": 118221.35416666676,
      "d": 497.3958333333285,
      "v": 15
    },
    {
      "midi": 64,
      "hit": false,
      "t": 118513.02083333342,
      "d": 169.27083333332848,
      "v": 20
    },
    {
      "midi": 76,
      "hit": false,
      "t": 118684.89583333342,
      "d": 91.14583333334303,
      "v": 20
    },
    {
      "midi": 58,
      "hit": false,
      "t": 118778.64583333343,
      "d": 283.8541666666715,
      "v": 16
    },
    {
      "midi": 88,
      "hit": false,
      "t": 118791.66666666676,
      "d": 104.16666666667152,
      "v": 39
    },
    {
      "midi": 62,
      "hit": false,
      "t": 119080.72916666677,
      "d": 140.625,
      "v": 22
    },
    {
      "midi": 69,
      "hit": false,
      "t": 119263.02083333344,
      "d": 174.47916666667152,
      "v": 13
    },
    {
      "midi": 57,
      "hit": false,
      "t": 119369.79166666677,
      "d": 153.64583333334303,
      "v": 5
    },
    {
      "midi": 81,
      "hit": false,
      "t": 119372.39583333344,
      "d": 127.60416666667152,
      "v": 34
    },
    {
      "midi": 60,
      "hit": false,
      "t": 119671.87500000012,
      "d": 143.22916666667152,
      "v": 7
    },
    {
      "midi": 64,
      "hit": false,
      "t": 119898.43750000012,
      "d": 93.75,
      "v": 24
    },
    {
      "midi": 55,
      "hit": false,
      "t": 119955.72916666679,
      "d": 328.12499999998545,
      "v": 18
    },
    {
      "midi": 76,
      "hit": false,
      "t": 119986.97916666679,
      "d": 174.47916666665697,
      "v": 36
    },
    {
      "midi": 58,
      "hit": false,
      "t": 120247.39583333344,
      "d": 234.37499999998545,
      "v": 21
    },
    {
      "midi": 69,
      "hit": false,
      "t": 120453.1250000001,
      "d": 104.16666666667152,
      "v": 24
    },
    {
      "midi": 57,
      "hit": false,
      "t": 120531.2500000001,
      "d": 257.81250000001455,
      "v": 17
    },
    {
      "midi": 81,
      "hit": false,
      "t": 120554.6875000001,
      "d": 138.02083333334303,
      "v": 45
    },
    {
      "midi": 60,
      "hit": false,
      "t": 120835.93750000012,
      "d": 276.0416666666715,
      "v": 22
    },
    {
      "midi": 76,
      "hit": false,
      "t": 121023.43750000012,
      "d": 125,
      "v": 31
    },
    {
      "midi": 88,
      "hit": false,
      "t": 121143.22916666679,
      "d": 143.22916666665697,
      "v": 28
    },
    {
      "midi": 58,
      "hit": false,
      "t": 121153.64583333344,
      "d": 549.479166666657,
      "v": 17
    },
    {
      "midi": 62,
      "hit": false,
      "t": 121432.29166666677,
      "d": 161.45833333332848,
      "v": 21
    },
    {
      "midi": 81,
      "hit": false,
      "t": 121625.0000000001,
      "d": 96.35416666667152,
      "v": 19
    },
    {
      "midi": 93,
      "hit": false,
      "t": 121729.16666666677,
      "d": 132.8125,
      "v": 26
    },
    {
      "midi": 60,
      "hit": false,
      "t": 121789.0625000001,
      "d": 343.75,
      "v": 14
    },
    {
      "midi": 64,
      "hit": false,
      "t": 122026.04166666677,
      "d": 169.27083333332848,
      "v": 23
    },
    {
      "midi": 76,
      "hit": false,
      "t": 122208.33333333343,
      "d": 101.5625,
      "v": 12
    },
    {
      "midi": 88,
      "hit": false,
      "t": 122343.7500000001,
      "d": 85.9375,
      "v": 32
    },
    {
      "midi": 58,
      "hit": false,
      "t": 122351.5625000001,
      "d": 283.8541666666715,
      "v": 13
    },
    {
      "midi": 62,
      "hit": false,
      "t": 122661.45833333344,
      "d": 192.70833333332848,
      "v": 14
    },
    {
      "midi": 69,
      "hit": false,
      "t": 122838.54166666677,
      "d": 114.58333333332848,
      "v": 17
    },
    {
      "midi": 81,
      "hit": false,
      "t": 123010.41666666677,
      "d": 164.0625,
      "v": 12
    },
    {
      "midi": 57,
      "hit": false,
      "t": 123067.70833333344,
      "d": 156.25,
      "v": 5
    },
    {
      "midi": 60,
      "hit": false,
      "t": 123406.25000000012,
      "d": 104.16666666667152,
      "v": 16
    },
    {
      "midi": 62,
      "hit": false,
      "t": 123901.04166666679,
      "d": 526.041666666657,
      "v": 48
    },
    {
      "midi": 64,
      "hit": false,
      "t": 124302.08333333344,
      "d": 463.54166666665697,
      "v": 56
    },
    {
      "midi": 61,
      "hit": false,
      "t": 124312.50000000012,
      "d": 416.66666666665697,
      "v": 34
    },
    {
      "midi": 65,
      "hit": false,
      "t": 124622.39583333344,
      "d": 450.5208333333285,
      "v": 60
    },
    {
      "midi": 60,
      "hit": false,
      "t": 124651.04166666677,
      "d": 341.1458333333285,
      "v": 35
    },
    {
      "midi": 67,
      "hit": false,
      "t": 124947.91666666677,
      "d": 432.2916666666715,
      "v": 60
    },
    {
      "midi": 58,
      "hit": false,
      "t": 124963.54166666677,
      "d": 361.9791666666715,
      "v": 26
    },
    {
      "midi": 69,
      "hit": false,
      "t": 125291.66666666677,
      "d": 552.0833333333285,
      "v": 39
    },
    {
      "midi": 55,
      "hit": false,
      "t": 125322.91666666677,
      "d": 359.375,
      "v": 27
    },
    {
      "midi": 58,
      "hit": false,
      "t": 125687.5000000001,
      "d": 479.1666666666715,
      "v": 22
    },
    {
      "midi": 64,
      "hit": false,
      "t": 125690.10416666677,
      "d": 583.3333333333285,
      "v": 44
    },
    {
      "midi": 62,
      "hit": false,
      "t": 126135.41666666677,
      "d": 1210.9375,
      "v": 55
    },
    {
      "midi": 57,
      "hit": false,
      "t": 126166.66666666677,
      "d": 401.04166666665697,
      "v": 16
    },
    {
      "midi": 60,
      "hit": false,
      "t": 126578.1250000001,
      "d": 166.66666666667152,
      "v": 18
    },
    {
      "midi": 43,
      "hit": false,
      "t": 127260.41666666677,
      "d": 197.91666666667152,
      "v": 27
    },
    {
      "midi": 31,
      "hit": false,
      "t": 127281.2500000001,
      "d": 218.75,
      "v": 22
    },
    {
      "midi": 64,
      "hit": false,
      "t": 127486.97916666677,
      "d": 62.5,
      "v": 25
    },
    {
      "midi": 65,
      "hit": false,
      "t": 127578.1250000001,
      "d": 57.29166666667152,
      "v": 28
    },
    {
      "midi": 67,
      "hit": false,
      "t": 127666.66666666677,
      "d": 59.89583333332848,
      "v": 39
    },
    {
      "midi": 69,
      "hit": false,
      "t": 127744.79166666677,
      "d": 62.5,
      "v": 36
    },
    {
      "midi": 71,
      "hit": false,
      "t": 127815.10416666677,
      "d": 59.89583333332848,
      "v": 49
    },
    {
      "midi": 72,
      "hit": false,
      "t": 127880.20833333343,
      "d": 67.70833333332848,
      "v": 38
    },
    {
      "midi": 74,
      "hit": false,
      "t": 127934.89583333343,
      "d": 70.3125,
      "v": 36
    },
    {
      "midi": 76,
      "hit": false,
      "t": 127989.58333333343,
      "d": 65.10416666667152,
      "v": 19
    },
    {
      "midi": 77,
      "hit": false,
      "t": 128031.2500000001,
      "d": 62.5,
      "v": 24
    },
    {
      "midi": 79,
      "hit": false,
      "t": 128072.91666666677,
      "d": 59.89583333332848,
      "v": 24
    },
    {
      "midi": 81,
      "hit": false,
      "t": 128111.97916666677,
      "d": 67.70833333332848,
      "v": 25
    },
    {
      "midi": 83,
      "hit": false,
      "t": 128158.85416666677,
      "d": 57.291666666656965,
      "v": 27
    },
    {
      "midi": 84,
      "hit": false,
      "t": 128195.3125000001,
      "d": 67.70833333332848,
      "v": 30
    },
    {
      "midi": 86,
      "hit": false,
      "t": 128242.1875000001,
      "d": 65.10416666667152,
      "v": 25
    },
    {
      "midi": 88,
      "hit": false,
      "t": 128281.2500000001,
      "d": 78.12500000001455,
      "v": 33
    },
    {
      "midi": 89,
      "hit": false,
      "t": 128333.33333333344,
      "d": 70.31250000001455,
      "v": 29
    },
    {
      "midi": 91,
      "hit": false,
      "t": 128385.41666666679,
      "d": 67.70833333334303,
      "v": 27
    },
    {
      "midi": 93,
      "hit": false,
      "t": 128450.52083333346,
      "d": 59.895833333343035,
      "v": 15
    },
    {
      "midi": 96,
      "hit": false,
      "t": 128570.31250000013,
      "d": 65.10416666667152,
      "v": 21
    },
    {
      "midi": 98,
      "hit": false,
      "t": 128619.7916666668,
      "d": 54.6875,
      "v": 52
    },
    {
      "midi": 36,
      "hit": false,
      "t": 128625.00000000013,
      "d": 119.79166666667152,
      "v": 25
    },
    {
      "midi": 24,
      "hit": false,
      "t": 128627.6041666668,
      "d": 132.8125,
      "v": 23
    },
    {
      "midi": 92,
      "hit": false,
      "t": 130260.4166666668,
      "d": 72.91666666667152,
      "v": 28
    },
    {
      "midi": 94,
      "hit": false,
      "t": 130338.5416666668,
      "d": 72.91666666667152,
      "v": 28
    },
    {
      "midi": 106,
      "hit": false,
      "t": 130403.64583333347,
      "d": 75.52083333332848,
      "v": 23
    },
    {
      "midi": 72,
      "hit": false,
      "t": 134666.6666666668,
      "d": 153.64583333334303,
      "v": 43
    },
    {
      "midi": 74,
      "hit": false,
      "t": 134781.25000000015,
      "d": 127.60416666665697,
      "v": 63
    },
    {
      "midi": 76,
      "hit": false,
      "t": 134893.2291666668,
      "d": 96.35416666665697,
      "v": 55
    },
    {
      "midi": 77,
      "hit": false,
      "t": 135031.25000000012,
      "d": 361.97916666662786,
      "v": 77
    },
    {
      "midi": 65,
      "hit": false,
      "t": 135041.66666666677,
      "d": 299.47916666662786,
      "v": 59
    },
    {
      "midi": 57,
      "hit": false,
      "t": 135046.87500000012,
      "d": 114.58333333331393,
      "v": 36
    },
    {
      "midi": 41,
      "hit": false,
      "t": 135049.47916666677,
      "d": 111.97916666665697,
      "v": 29
    },
    {
      "midi": 48,
      "hit": false,
      "t": 135078.12500000012,
      "d": 80.72916666665697,
      "v": 10
    },
    {
      "midi": 72,
      "hit": false,
      "t": 135312.5000000001,
      "d": 156.25,
      "v": 50
    },
    {
      "midi": 69,
      "hit": false,
      "t": 135330.72916666674,
      "d": 101.5625,
      "v": 28
    },
    {
      "midi": 46,
      "hit": false,
      "t": 135507.8125000001,
      "d": 54.6875,
      "v": 53
    },
    {
      "midi": 77,
      "hit": false,
      "t": 135570.3125000001,
      "d": 276.04166666668607,
      "v": 95
    },
    {
      "midi": 65,
      "hit": false,
      "t": 135575.52083333343,
      "d": 203.125,
      "v": 72
    },
    {
      "midi": 62,
      "hit": false,
      "t": 135609.3750000001,
      "d": 67.70833333334303,
      "v": 70
    },
    {
      "midi": 70,
      "hit": false,
      "t": 135807.29166666677,
      "d": 52.083333333343035,
      "v": 47
    },
    {
      "midi": 74,
      "hit": false,
      "t": 135812.50000000012,
      "d": 46.875,
      "v": 59
    },
    {
      "midi": 77,
      "hit": false,
      "t": 135973.95833333346,
      "d": 148.4375,
      "v": 77
    },
    {
      "midi": 43,
      "hit": false,
      "t": 136010.4166666668,
      "d": 229.16666666665697,
      "v": 57
    },
    {
      "midi": 79,
      "hit": false,
      "t": 136096.3541666668,
      "d": 208.33333333334303,
      "v": 97
    },
    {
      "midi": 58,
      "hit": false,
      "t": 136119.7916666668,
      "d": 239.58333333334303,
      "v": 41
    },
    {
      "midi": 77,
      "hit": false,
      "t": 136229.1666666668,
      "d": 161.45833333334303,
      "v": 68
    },
    {
      "midi": 76,
      "hit": false,
      "t": 136354.1666666668,
      "d": 127.60416666668607,
      "v": 73
    },
    {
      "midi": 74,
      "hit": false,
      "t": 136468.75000000015,
      "d": 114.58333333334303,
      "v": 78
    },
    {
      "midi": 72,
      "hit": false,
      "t": 136583.3333333335,
      "d": 49.479166666656965,
      "v": 77
    },
    {
      "midi": 48,
      "hit": false,
      "t": 136593.75000000015,
      "d": 1096.354166666686,
      "v": 55
    },
    {
      "midi": 72,
      "hit": false,
      "t": 136854.1666666668,
      "d": 151.04166666668607,
      "v": 70
    },
    {
      "midi": 69,
      "hit": false,
      "t": 136854.1666666668,
      "d": 346.35416666668607,
      "v": 55
    },
    {
      "midi": 64,
      "hit": false,
      "t": 136859.37500000015,
      "d": 307.29166666668607,
      "v": 75
    },
    {
      "midi": 60,
      "hit": false,
      "t": 136872.3958333335,
      "d": 330.72916666665697,
      "v": 52
    },
    {
      "midi": 57,
      "hit": false,
      "t": 136885.41666666683,
      "d": 270.83333333334303,
      "v": 55
    },
    {
      "midi": 76,
      "hit": false,
      "t": 136979.16666666683,
      "d": 177.08333333334303,
      "v": 74
    },
    {
      "midi": 72,
      "hit": false,
      "t": 137111.97916666683,
      "d": 130.20833333331393,
      "v": 66
    },
    {
      "midi": 72,
      "hit": false,
      "t": 137385.41666666683,
      "d": 153.64583333331393,
      "v": 79
    },
    {
      "midi": 58,
      "hit": false,
      "t": 137395.8333333335,
      "d": 325.52083333334303,
      "v": 27
    },
    {
      "midi": 69,
      "hit": false,
      "t": 137398.43750000015,
      "d": 85.9375,
      "v": 42
    },
    {
      "midi": 65,
      "hit": false,
      "t": 137401.0416666668,
      "d": 276.04166666668607,
      "v": 52
    },
    {
      "midi": 62,
      "hit": false,
      "t": 137406.25000000015,
      "d": 322.91666666668607,
      "v": 35
    },
    {
      "midi": 76,
      "hit": false,
      "t": 137520.8333333335,
      "d": 171.875,
      "v": 65
    },
    {
      "midi": 72,
      "hit": false,
      "t": 137653.6458333335,
      "d": 127.60416666668607,
      "v": 68
    },
    {
      "midi": 69,
      "hit": false,
      "t": 137906.25000000017,
      "d": 158.85416666665697,
      "v": 65
    },
    {
      "midi": 64,
      "hit": false,
      "t": 137924.47916666683,
      "d": 205.72916666665697,
      "v": 38
    },
    {
      "midi": 60,
      "hit": false,
      "t": 137940.10416666683,
      "d": 80.72916666665697,
      "v": 34
    },
    {
      "midi": 70,
      "hit": false,
      "t": 138041.66666666683,
      "d": 132.8125,
      "v": 66
    },
    {
      "midi": 72,
      "hit": false,
      "t": 138169.2708333335,
      "d": 166.66666666668607,
      "v": 70
    },
    {
      "midi": 70,
      "hit": false,
      "t": 138291.66666666683,
      "d": 166.66666666665697,
      "v": 51
    },
    {
      "midi": 69,
      "hit": false,
      "t": 138408.85416666683,
      "d": 143.22916666665697,
      "v": 58
    },
    {
      "midi": 67,
      "hit": false,
      "t": 138544.2708333335,
      "d": 80.72916666665697,
      "v": 60
    },
    {
      "midi": 65,
      "hit": false,
      "t": 138671.87500000015,
      "d": 59.895833333343035,
      "v": 62
    },
    {
      "midi": 72,
      "hit": false,
      "t": 138796.87500000015,
      "d": 143.22916666665697,
      "v": 79
    },
    {
      "midi": 74,
      "hit": false,
      "t": 138898.43750000015,
      "d": 158.85416666665697,
      "v": 88
    },
    {
      "midi": 76,
      "hit": false,
      "t": 139018.2291666668,
      "d": 190.10416666665697,
      "v": 80
    },
    {
      "midi": 77,
      "hit": false,
      "t": 139184.89583333346,
      "d": 380.20833333331393,
      "v": 83
    },
    {
      "midi": 41,
      "hit": false,
      "t": 139187.50000000012,
      "d": 153.64583333334303,
      "v": 45
    },
    {
      "midi": 57,
      "hit": false,
      "t": 139195.31250000012,
      "d": 210.9375,
      "v": 37
    },
    {
      "midi": 79,
      "hit": false,
      "t": 139226.56250000012,
      "d": 54.6875,
      "v": 20
    },
    {
      "midi": 69,
      "hit": false,
      "t": 139479.16666666677,
      "d": 109.375,
      "v": 36
    },
    {
      "midi": 72,
      "hit": false,
      "t": 139489.58333333343,
      "d": 195.3125,
      "v": 49
    },
    {
      "midi": 46,
      "hit": false,
      "t": 139645.83333333343,
      "d": 59.895833333343035,
      "v": 50
    },
    {
      "midi": 77,
      "hit": false,
      "t": 139710.93750000012,
      "d": 315.10416666668607,
      "v": 100
    },
    {
      "midi": 65,
      "hit": false,
      "t": 139729.16666666677,
      "d": 145.83333333334303,
      "v": 74
    },
    {
      "midi": 62,
      "hit": false,
      "t": 139760.41666666677,
      "d": 70.3125,
      "v": 66
    },
    {
      "midi": 70,
      "hit": false,
      "t": 139950.52083333346,
      "d": 49.479166666656965,
      "v": 56
    },
    {
      "midi": 74,
      "hit": false,
      "t": 139968.75000000012,
      "d": 44.270833333343035,
      "v": 62
    },
    {
      "midi": 77,
      "hit": false,
      "t": 140093.75000000015,
      "d": 169.27083333331393,
      "v": 83
    },
    {
      "midi": 43,
      "hit": false,
      "t": 140158.8541666668,
      "d": 59.895833333343035,
      "v": 57
    },
    {
      "midi": 79,
      "hit": false,
      "t": 140234.37500000015,
      "d": 203.1249999999709,
      "v": 99
    },
    {
      "midi": 58,
      "hit": false,
      "t": 140260.4166666668,
      "d": 252.60416666665697,
      "v": 48
    },
    {
      "midi": 77,
      "hit": false,
      "t": 140364.58333333346,
      "d": 166.66666666665697,
      "v": 74
    },
    {
      "midi": 76,
      "hit": false,
      "t": 140492.18750000012,
      "d": 153.64583333334303,
      "v": 77
    },
    {
      "midi": 74,
      "hit": false,
      "t": 140617.18750000012,
      "d": 101.5625,
      "v": 79
    },
    {
      "midi": 72,
      "hit": false,
      "t": 140731.77083333346,
      "d": 44.270833333343035,
      "v": 76
    },
    {
      "midi": 48,
      "hit": false,
      "t": 140755.20833333346,
      "d": 1080.7291666667152,
      "v": 45
    },
    {
      "midi": 72,
      "hit": false,
      "t": 141005.20833333346,
      "d": 130.20833333331393,
      "v": 63
    },
    {
      "midi": 69,
      "hit": false,
      "t": 141005.20833333346,
      "d": 158.85416666665697,
      "v": 48
    },
    {
      "midi": 64,
      "hit": false,
      "t": 141013.02083333346,
      "d": 195.3125,
      "v": 59
    },
    {
      "midi": 60,
      "hit": false,
      "t": 141013.02083333346,
      "d": 338.54166666668607,
      "v": 49
    },
    {
      "midi": 57,
      "hit": false,
      "t": 141023.43750000012,
      "d": 304.6875000000291,
      "v": 42
    },
    {
      "midi": 76,
      "hit": false,
      "t": 141111.97916666677,
      "d": 171.8750000000291,
      "v": 71
    },
    {
      "midi": 72,
      "hit": false,
      "t": 141260.4166666668,
      "d": 153.64583333334303,
      "v": 73
    },
    {
      "midi": 72,
      "hit": false,
      "t": 141520.83333333346,
      "d": 156.2500000000291,
      "v": 45
    },
    {
      "midi": 69,
      "hit": false,
      "t": 141541.6666666668,
      "d": 83.33333333334303,
      "v": 32
    },
    {
      "midi": 65,
      "hit": false,
      "t": 141541.6666666668,
      "d": 171.8750000000291,
      "v": 41
    },
    {
      "midi": 62,
      "hit": false,
      "t": 141541.6666666668,
      "d": 338.5416666667152,
      "v": 37
    },
    {
      "midi": 58,
      "hit": false,
      "t": 141546.87500000015,
      "d": 333.33333333337214,
      "v": 25
    },
    {
      "midi": 76,
      "hit": false,
      "t": 141661.4583333335,
      "d": 85.9375,
      "v": 61
    },
    {
      "midi": 72,
      "hit": false,
      "t": 141804.68750000017,
      "d": 143.22916666668607,
      "v": 62
    },
    {
      "midi": 69,
      "hit": false,
      "t": 142062.5000000002,
      "d": 117.1875,
      "v": 53
    },
    {
      "midi": 64,
      "hit": false,
      "t": 142075.52083333355,
      "d": 257.8124999999709,
      "v": 34
    },
    {
      "midi": 60,
      "hit": false,
      "t": 142098.95833333355,
      "d": 260.41666666662786,
      "v": 28
    },
    {
      "midi": 70,
      "hit": false,
      "t": 142197.91666666686,
      "d": 158.85416666665697,
      "v": 59
    },
    {
      "midi": 72,
      "hit": false,
      "t": 142359.37500000017,
      "d": 130.20833333334303,
      "v": 63
    },
    {
      "midi": 70,
      "hit": false,
      "t": 142481.77083333352,
      "d": 145.83333333331393,
      "v": 43
    },
    {
      "midi": 69,
      "hit": false,
      "t": 142625.00000000017,
      "d": 143.22916666665697,
      "v": 51
    },
    {
      "midi": 67,
      "hit": false,
      "t": 142760.41666666683,
      "d": 52.083333333343035,
      "v": 62
    },
    {
      "midi": 60,
      "hit": false,
      "t": 143111.97916666683,
      "d": 476.5624999999709,
      "v": 86
    },
    {
      "midi": 41,
      "hit": false,
      "t": 143135.41666666683,
      "d": 395.83333333331393,
      "v": 27
    },
    {
      "midi": 48,
      "hit": false,
      "t": 143135.41666666683,
      "d": 408.85416666665697,
      "v": 31
    },
    {
      "midi": 29,
      "hit": false,
      "t": 143145.8333333335,
      "d": 382.8125,
      "v": 27
    },
    {
      "midi": 57,
      "hit": false,
      "t": 143455.72916666683,
      "d": 138.02083333331393,
      "v": 41
    },
    {
      "midi": 53,
      "hit": false,
      "t": 143476.56250000017,
      "d": 85.9374999999709,
      "v": 62
    },
    {
      "midi": 62,
      "hit": false,
      "t": 143729.1666666668,
      "d": 364.58333333334303,
      "v": 85
    },
    {
      "midi": 43,
      "hit": false,
      "t": 143752.6041666668,
      "d": 182.29166666668607,
      "v": 37
    },
    {
      "midi": 31,
      "hit": false,
      "t": 143752.6041666668,
      "d": 244.79166666668607,
      "v": 39
    },
    {
      "midi": 50,
      "hit": false,
      "t": 143765.62500000015,
      "d": 252.60416666668607,
      "v": 38
    },
    {
      "midi": 52,
      "hit": false,
      "t": 143789.06250000015,
      "d": 70.3125,
      "v": 31
    },
    {
      "midi": 58,
      "hit": false,
      "t": 144010.41666666683,
      "d": 106.77083333331393,
      "v": 48
    },
    {
      "midi": 55,
      "hit": false,
      "t": 144018.22916666683,
      "d": 57.291666666656965,
      "v": 47
    },
    {
      "midi": 69,
      "hit": false,
      "t": 144281.25000000015,
      "d": 432.29166666665697,
      "v": 92
    },
    {
      "midi": 24,
      "hit": false,
      "t": 144296.87500000015,
      "d": 166.66666666665697,
      "v": 45
    },
    {
      "midi": 57,
      "hit": false,
      "t": 144299.4791666668,
      "d": 369.79166666665697,
      "v": 75
    },
    {
      "midi": 36,
      "hit": false,
      "t": 144307.2916666668,
      "d": 195.3125,
      "v": 44
    },
    {
      "midi": 62,
      "hit": false,
      "t": 144604.1666666668,
      "d": 143.22916666665697,
      "v": 37
    },
    {
      "midi": 64,
      "hit": false,
      "t": 144604.1666666668,
      "d": 317.70833333331393,
      "v": 47
    },
    {
      "midi": 67,
      "hit": false,
      "t": 144906.25000000012,
      "d": 210.9375,
      "v": 83
    },
    {
      "midi": 55,
      "hit": false,
      "t": 144919.27083333346,
      "d": 158.85416666665697,
      "v": 63
    },
    {
      "midi": 58,
      "hit": false,
      "t": 144924.47916666677,
      "d": 158.85416666668607,
      "v": 34
    },
    {
      "midi": 69,
      "hit": false,
      "t": 145203.12500000012,
      "d": 39.062500000029104,
      "v": 84
    },
    {
      "midi": 57,
      "hit": false,
      "t": 145208.33333333346,
      "d": 96.35416666668607,
      "v": 78
    },
    {
      "midi": 60,
      "hit": false,
      "t": 145221.3541666668,
      "d": 52.083333333343035,
      "v": 59
    },
    {
      "midi": 48,
      "hit": false,
      "t": 145565.1041666668,
      "d": 427.08333333331393,
      "v": 62
    },
    {
      "midi": 60,
      "hit": false,
      "t": 145567.70833333346,
      "d": 432.29166666665697,
      "v": 81
    },
    {
      "midi": 41,
      "hit": false,
      "t": 145604.1666666668,
      "d": 385.41666666665697,
      "v": 50
    },
    {
      "midi": 29,
      "hit": false,
      "t": 145614.58333333346,
      "d": 351.5625,
      "v": 47
    },
    {
      "midi": 57,
      "hit": false,
      "t": 145875.00000000012,
      "d": 145.83333333334303,
      "v": 35
    },
    {
      "midi": 53,
      "hit": false,
      "t": 145882.81250000012,
      "d": 111.97916666665697,
      "v": 66
    },
    {
      "midi": 50,
      "hit": false,
      "t": 146119.7916666668,
      "d": 255.20833333334303,
      "v": 89
    },
    {
      "midi": 62,
      "hit": false,
      "t": 146119.7916666668,
      "d": 330.72916666668607,
      "v": 95
    },
    {
      "midi": 43,
      "hit": false,
      "t": 146140.62500000015,
      "d": 203.125,
      "v": 46
    },
    {
      "midi": 31,
      "hit": false,
      "t": 146145.8333333335,
      "d": 250,
      "v": 50
    },
    {
      "midi": 58,
      "hit": false,
      "t": 146424.47916666683,
      "d": 54.6875,
      "v": 42
    },
    {
      "midi": 69,
      "hit": false,
      "t": 146697.91666666683,
      "d": 437.4999999999709,
      "v": 80
    },
    {
      "midi": 57,
      "hit": false,
      "t": 146700.5208333335,
      "d": 450.52083333331393,
      "v": 76
    },
    {
      "midi": 24,
      "hit": false,
      "t": 146726.56250000015,
      "d": 164.0624999999709,
      "v": 43
    },
    {
      "midi": 36,
      "hit": false,
      "t": 146731.77083333346,
      "d": 210.9375,
      "v": 49
    },
    {
      "midi": 62,
      "hit": false,
      "t": 147041.6666666668,
      "d": 145.83333333334303,
      "v": 29
    },
    {
      "midi": 64,
      "hit": false,
      "t": 147041.6666666668,
      "d": 330.72916666668607,
      "v": 29
    },
    {
      "midi": 55,
      "hit": false,
      "t": 147312.50000000015,
      "d": 161.45833333334303,
      "v": 56
    },
    {
      "midi": 67,
      "hit": false,
      "t": 147312.50000000015,
      "d": 197.91666666668607,
      "v": 63
    },
    {
      "midi": 58,
      "hit": false,
      "t": 147325.5208333335,
      "d": 192.70833333334303,
      "v": 35
    },
    {
      "midi": 69,
      "hit": false,
      "t": 147645.8333333335,
      "d": 151.04166666665697,
      "v": 45
    },
    {
      "midi": 57,
      "hit": false,
      "t": 147656.25000000015,
      "d": 182.29166666665697,
      "v": 32
    },
    {
      "midi": 60,
      "hit": false,
      "t": 147666.6666666668,
      "d": 52.083333333343035,
      "v": 52
    },
    {
      "midi": 43,
      "hit": false,
      "t": 148010.4166666668,
      "d": 848.9583333332557,
      "v": 74
    },
    {
      "midi": 58,
      "hit": false,
      "t": 148270.83333333346,
      "d": 359.3749999999418,
      "v": 50
    },
    {
      "midi": 62,
      "hit": false,
      "t": 148281.25000000012,
      "d": 283.85416666662786,
      "v": 60
    },
    {
      "midi": 53,
      "hit": false,
      "t": 148291.66666666677,
      "d": 98.95833333334303,
      "v": 76
    },
    {
      "midi": 60,
      "hit": false,
      "t": 148559.89583333343,
      "d": 294.27083333331393,
      "v": 76
    },
    {
      "midi": 52,
      "hit": false,
      "t": 148562.5000000001,
      "d": 52.08333333331393,
      "v": 61
    },
    {
      "midi": 57,
      "hit": false,
      "t": 148567.7083333334,
      "d": 177.08333333334303,
      "v": 48
    },
    {
      "midi": 50,
      "hit": false,
      "t": 148572.91666666674,
      "d": 252.60416666665697,
      "v": 68
    },
    {
      "midi": 53,
      "hit": false,
      "t": 148846.35416666674,
      "d": 54.687499999970896,
      "v": 62
    },
    {
      "midi": 62,
      "hit": false,
      "t": 148846.35416666674,
      "d": 101.5624999999709,
      "v": 64
    },
    {
      "midi": 58,
      "hit": false,
      "t": 148854.16666666674,
      "d": 57.29166666662786,
      "v": 48
    },
    {
      "midi": 55,
      "hit": false,
      "t": 148856.7708333334,
      "d": 46.874999999970896,
      "v": 77
    },
    {
      "midi": 67,
      "hit": false,
      "t": 149216.14583333337,
      "d": 554.6875,
      "v": 79
    },
    {
      "midi": 70,
      "hit": false,
      "t": 149473.95833333337,
      "d": 335.9375,
      "v": 44
    },
    {
      "midi": 74,
      "hit": false,
      "t": 149479.16666666672,
      "d": 299.47916666665697,
      "v": 59
    },
    {
      "midi": 65,
      "hit": false,
      "t": 149481.77083333337,
      "d": 156.25,
      "v": 43
    },
    {
      "midi": 72,
      "hit": false,
      "t": 149760.4166666667,
      "d": 317.70833333334303,
      "v": 60
    },
    {
      "midi": 69,
      "hit": false,
      "t": 149765.62500000003,
      "d": 239.58333333334303,
      "v": 45
    },
    {
      "midi": 62,
      "hit": false,
      "t": 149765.62500000003,
      "d": 307.29166666665697,
      "v": 62
    },
    {
      "midi": 64,
      "hit": false,
      "t": 149770.83333333337,
      "d": 125,
      "v": 45
    },
    {
      "midi": 67,
      "hit": false,
      "t": 150046.87500000003,
      "d": 114.58333333331393,
      "v": 72
    },
    {
      "midi": 74,
      "hit": false,
      "t": 150046.87500000003,
      "d": 205.72916666665697,
      "v": 59
    },
    {
      "midi": 65,
      "hit": false,
      "t": 150057.2916666667,
      "d": 101.5625,
      "v": 46
    },
    {
      "midi": 70,
      "hit": false,
      "t": 150057.2916666667,
      "d": 182.29166666665697,
      "v": 45
    },
    {
      "midi": 67,
      "hit": false,
      "t": 150330.7291666667,
      "d": 520.8333333333139,
      "v": 83
    },
    {
      "midi": 74,
      "hit": false,
      "t": 150593.75,
      "d": 291.66666666665697,
      "v": 58
    },
    {
      "midi": 70,
      "hit": false,
      "t": 150598.95833333334,
      "d": 320.3125,
      "v": 50
    },
    {
      "midi": 65,
      "hit": false,
      "t": 150601.5625,
      "d": 132.8125,
      "v": 48
    },
    {
      "midi": 72,
      "hit": false,
      "t": 150893.22916666666,
      "d": 320.3125000000291,
      "v": 53
    },
    {
      "midi": 62,
      "hit": false,
      "t": 150901.04166666666,
      "d": 161.45833333334303,
      "v": 49
    },
    {
      "midi": 64,
      "hit": false,
      "t": 150906.25,
      "d": 200.52083333334303,
      "v": 43
    },
    {
      "midi": 69,
      "hit": false,
      "t": 150906.25,
      "d": 255.20833333334303,
      "v": 36
    },
    {
      "midi": 67,
      "hit": false,
      "t": 151195.3125,
      "d": 109.3750000000291,
      "v": 55
    },
    {
      "midi": 70,
      "hit": false,
      "t": 151208.33333333334,
      "d": 143.22916666668607,
      "v": 26
    },
    {
      "midi": 74,
      "hit": false,
      "t": 151208.33333333334,
      "d": 177.08333333334303,
      "v": 41
    },
    {
      "midi": 65,
      "hit": false,
      "t": 151213.5416666667,
      "d": 106.77083333334303,
      "v": 27
    },
    {
      "midi": 67,
      "hit": false,
      "t": 151510.4166666667,
      "d": 341.14583333334303,
      "v": 42
    },
    {
      "midi": 74,
      "hit": false,
      "t": 151781.25000000003,
      "d": 312.5,
      "v": 35
    },
    {
      "midi": 70,
      "hit": false,
      "t": 151781.25000000003,
      "d": 348.95833333334303,
      "v": 32
    },
    {
      "midi": 65,
      "hit": false,
      "t": 151812.50000000003,
      "d": 98.95833333334303,
      "v": 19
    },
    {
      "midi": 62,
      "hit": false,
      "t": 152158.85416666672,
      "d": 208.33333333334303,
      "v": 17
    },
    {
      "midi": 72,
      "hit": false,
      "t": 152169.27083333337,
      "d": 348.95833333334303,
      "v": 20
    },
    {
      "midi": 64,
      "hit": false,
      "t": 152174.47916666672,
      "d": 132.8125,
      "v": 24
    },
    {
      "midi": 69,
      "hit": false,
      "t": 152184.89583333337,
      "d": 231.77083333334303,
      "v": 6
    },
    {
      "midi": 74,
      "hit": false,
      "t": 152544.27083333337,
      "d": 143.22916666665697,
      "v": 35
    },
    {
      "midi": 70,
      "hit": false,
      "t": 152546.87500000003,
      "d": 106.77083333334303,
      "v": 23
    },
    {
      "midi": 65,
      "hit": false,
      "t": 152567.70833333337,
      "d": 78.125,
      "v": 16
    },
    {
      "midi": 67,
      "hit": false,
      "t": 152572.91666666672,
      "d": 65.10416666665697,
      "v": 31
    },
    {
      "midi": 43,
      "hit": false,
      "t": 152916.6666666667,
      "d": 270.83333333331393,
      "v": 25
    },
    {
      "midi": 50,
      "hit": false,
      "t": 153010.4166666667,
      "d": 255.20833333331393,
      "v": 5
    },
    {
      "midi": 81,
      "hit": false,
      "t": 153109.375,
      "d": 164.0625,
      "v": 57
    },
    {
      "midi": 69,
      "hit": false,
      "t": 153135.41666666666,
      "d": 177.08333333334303,
      "v": 12
    },
    {
      "midi": 77,
      "hit": false,
      "t": 153156.25,
      "d": 93.75,
      "v": 22
    },
    {
      "midi": 58,
      "hit": false,
      "t": 153161.45833333334,
      "d": 122.39583333331393,
      "v": 20
    },
    {
      "midi": 74,
      "hit": false,
      "t": 153164.0625,
      "d": 72.91666666665697,
      "v": 22
    },
    {
      "midi": 70,
      "hit": false,
      "t": 153479.16666666666,
      "d": 98.95833333334303,
      "v": 26
    },
    {
      "midi": 74,
      "hit": false,
      "t": 153486.97916666666,
      "d": 132.8125,
      "v": 36
    },
    {
      "midi": 65,
      "hit": false,
      "t": 153497.3958333333,
      "d": 75.52083333334303,
      "v": 26
    },
    {
      "midi": 67,
      "hit": false,
      "t": 153791.66666666666,
      "d": 91.14583333334303,
      "v": 26
    },
    {
      "midi": 62,
      "hit": false,
      "t": 153799.47916666666,
      "d": 93.75,
      "v": 26
    },
    {
      "midi": 70,
      "hit": false,
      "t": 154091.1458333333,
      "d": 156.25,
      "v": 27
    },
    {
      "midi": 74,
      "hit": false,
      "t": 154093.74999999997,
      "d": 184.89583333334303,
      "v": 46
    },
    {
      "midi": 65,
      "hit": false,
      "t": 154117.18749999997,
      "d": 156.25,
      "v": 31
    },
    {
      "midi": 67,
      "hit": false,
      "t": 154406.24999999997,
      "d": 75.52083333334303,
      "v": 43
    },
    {
      "midi": 62,
      "hit": false,
      "t": 154442.7083333333,
      "d": 75.52083333334303,
      "v": 27
    },
    {
      "midi": 70,
      "hit": false,
      "t": 154546.875,
      "d": 75.52083333334303,
      "v": 32
    },
    {
      "midi": 65,
      "hit": false,
      "t": 154562.5,
      "d": 70.3125,
      "v": 24
    },
    {
      "midi": 74,
      "hit": false,
      "t": 154562.5,
      "d": 75.52083333334303,
      "v": 35
    },
    {
      "midi": 67,
      "hit": false,
      "t": 154736.9791666667,
      "d": 54.6875,
      "v": 52
    },
    {
      "midi": 62,
      "hit": false,
      "t": 154739.58333333334,
      "d": 54.6875,
      "v": 38
    },
    {
      "midi": 43,
      "hit": false,
      "t": 155057.2916666667,
      "d": 221.35416666668607,
      "v": 44
    },
    {
      "midi": 50,
      "hit": false,
      "t": 155135.4166666667,
      "d": 182.29166666668607,
      "v": 33
    },
    {
      "midi": 81,
      "hit": false,
      "t": 155135.4166666667,
      "d": 216.14583333337214,
      "v": 78
    },
    {
      "midi": 69,
      "hit": false,
      "t": 155156.25000000003,
      "d": 197.91666666668607,
      "v": 42
    },
    {
      "midi": 58,
      "hit": false,
      "t": 155177.08333333337,
      "d": 161.45833333334303,
      "v": 29
    },
    {
      "midi": 77,
      "hit": false,
      "t": 155187.50000000003,
      "d": 125,
      "v": 30
    },
    {
      "midi": 74,
      "hit": false,
      "t": 155190.1041666667,
      "d": 75.52083333334303,
      "v": 36
    },
    {
      "midi": 70,
      "hit": false,
      "t": 155515.62500000006,
      "d": 135.41666666668607,
      "v": 40
    },
    {
      "midi": 74,
      "hit": false,
      "t": 155531.25000000006,
      "d": 111.97916666668607,
      "v": 38
    },
    {
      "midi": 65,
      "hit": false,
      "t": 155536.4583333334,
      "d": 70.3125,
      "v": 36
    },
    {
      "midi": 67,
      "hit": false,
      "t": 155820.3125000001,
      "d": 75.52083333334303,
      "v": 40
    },
    {
      "midi": 62,
      "hit": false,
      "t": 155833.33333333343,
      "d": 78.125,
      "v": 29
    },
    {
      "midi": 74,
      "hit": false,
      "t": 156104.16666666677,
      "d": 210.9375,
      "v": 45
    },
    {
      "midi": 70,
      "hit": false,
      "t": 156109.37500000012,
      "d": 208.33333333331393,
      "v": 28
    },
    {
      "midi": 65,
      "hit": false,
      "t": 156130.20833333346,
      "d": 182.29166666665697,
      "v": 18
    },
    {
      "midi": 67,
      "hit": false,
      "t": 156427.08333333343,
      "d": 78.125,
      "v": 31
    },
    {
      "midi": 62,
      "hit": false,
      "t": 156437.5000000001,
      "d": 72.91666666668607,
      "v": 25
    },
    {
      "midi": 70,
      "hit": false,
      "t": 156567.70833333343,
      "d": 182.29166666665697,
      "v": 27
    },
    {
      "midi": 74,
      "hit": false,
      "t": 156572.91666666677,
      "d": 205.72916666665697,
      "v": 42
    },
    {
      "midi": 65,
      "hit": false,
      "t": 156575.52083333343,
      "d": 70.3125,
      "v": 35
    },
    {
      "midi": 67,
      "hit": false,
      "t": 156791.66666666677,
      "d": 177.08333333334303,
      "v": 36
    },
    {
      "midi": 62,
      "hit": false,
      "t": 156796.87500000012,
      "d": 203.125,
      "v": 25
    },
    {
      "midi": 81,
      "hit": false,
      "t": 157091.14583333346,
      "d": 520.8333333333139,
      "v": 81
    },
    {
      "midi": 82,
      "hit": false,
      "t": 157494.7916666668,
      "d": 385.41666666665697,
      "v": 76
    },
    {
      "midi": 70,
      "hit": false,
      "t": 157520.83333333346,
      "d": 1187.4999999999418,
      "v": 21
    },
    {
      "midi": 74,
      "hit": false,
      "t": 157523.43750000012,
      "d": 716.145833333343,
      "v": 27
    },
    {
      "midi": 65,
      "hit": false,
      "t": 157539.06250000012,
      "d": 304.6875,
      "v": 22
    },
    {
      "midi": 84,
      "hit": false,
      "t": 157835.93750000012,
      "d": 518.229166666657,
      "v": 81
    },
    {
      "midi": 64,
      "hit": false,
      "t": 157864.58333333346,
      "d": 78.125,
      "v": 41
    },
    {
      "midi": 81,
      "hit": false,
      "t": 158195.31250000012,
      "d": 421.8749999999709,
      "v": 61
    },
    {
      "midi": 62,
      "hit": false,
      "t": 158247.39583333346,
      "d": 565.1041666665988,
      "v": 9
    },
    {
      "midi": 67,
      "hit": false,
      "t": 158335.93750000012,
      "d": 289.0624999999709,
      "v": 2
    },
    {
      "midi": 79,
      "hit": false,
      "t": 158523.4375000001,
      "d": 320.3124999999709,
      "v": 57
    },
    {
      "midi": 74,
      "hit": false,
      "t": 158851.56250000006,
      "d": 359.375,
      "v": 69
    },
    {
      "midi": 81,
      "hit": false,
      "t": 159177.0833333334,
      "d": 390.625,
      "v": 80
    },
    {
      "midi": 82,
      "hit": false,
      "t": 159486.97916666672,
      "d": 343.75,
      "v": 74
    },
    {
      "midi": 60,
      "hit": false,
      "t": 159500.00000000006,
      "d": 205.72916666668607,
      "v": 39
    },
    {
      "midi": 57,
      "hit": false,
      "t": 159515.62500000006,
      "d": 153.64583333334303,
      "v": 34
    },
    {
      "midi": 52,
      "hit": false,
      "t": 159515.62500000006,
      "d": 158.85416666668607,
      "v": 41
    },
    {
      "midi": 62,
      "hit": false,
      "t": 159794.2708333334,
      "d": 135.41666666662786,
      "v": 63
    },
    {
      "midi": 84,
      "hit": false,
      "t": 159794.2708333334,
      "d": 164.0624999999709,
      "v": 85
    },
    {
      "midi": 58,
      "hit": false,
      "t": 159804.68750000006,
      "d": 117.1874999999709,
      "v": 38
    },
    {
      "midi": 53,
      "hit": false,
      "t": 159822.91666666672,
      "d": 80.72916666665697,
      "v": 69
    },
    {
      "midi": 81,
      "hit": false,
      "t": 159971.35416666672,
      "d": 44.270833333343035,
      "v": 64
    },
    {
      "midi": 82,
      "hit": false,
      "t": 160018.22916666672,
      "d": 148.4375,
      "v": 73
    },
    {
      "midi": 81,
      "hit": false,
      "t": 160067.70833333337,
      "d": 476.5625,
      "v": 88
    },
    {
      "midi": 64,
      "hit": false,
      "t": 160083.33333333337,
      "d": 166.66666666668607,
      "v": 46
    },
    {
      "midi": 60,
      "hit": false,
      "t": 160093.75000000003,
      "d": 132.8125000000291,
      "v": 44
    },
    {
      "midi": 55,
      "hit": false,
      "t": 160098.95833333337,
      "d": 296.875,
      "v": 44
    },
    {
      "midi": 65,
      "hit": false,
      "t": 160406.25000000003,
      "d": 135.41666666668607,
      "v": 41
    },
    {
      "midi": 79,
      "hit": false,
      "t": 160406.25000000003,
      "d": 377.60416666668607,
      "v": 85
    },
    {
      "midi": 62,
      "hit": false,
      "t": 160419.27083333337,
      "d": 67.70833333334303,
      "v": 38
    },
    {
      "midi": 57,
      "hit": false,
      "t": 160442.70833333337,
      "d": 70.3125,
      "v": 23
    },
    {
      "midi": 67,
      "hit": false,
      "t": 160763.02083333337,
      "d": 54.687500000029104,
      "v": 55
    },
    {
      "midi": 74,
      "hit": false,
      "t": 160763.02083333337,
      "d": 278.64583333337214,
      "v": 87
    },
    {
      "midi": 64,
      "hit": false,
      "t": 160783.85416666672,
      "d": 46.875000000029104,
      "v": 49
    },
    {
      "midi": 59,
      "hit": false,
      "t": 160796.87500000006,
      "d": 67.70833333334303,
      "v": 26
    },
    {
      "midi": 43,
      "hit": false,
      "t": 161109.3750000001,
      "d": 49.479166666656965,
      "v": 55
    },
    {
      "midi": 50,
      "hit": false,
      "t": 161166.66666666674,
      "d": 72.91666666668607,
      "v": 47
    },
    {
      "midi": 81,
      "hit": false,
      "t": 161187.5000000001,
      "d": 135.41666666668607,
      "v": 97
    },
    {
      "midi": 69,
      "hit": false,
      "t": 161205.72916666674,
      "d": 169.27083333337214,
      "v": 64
    },
    {
      "midi": 77,
      "hit": false,
      "t": 161210.9375000001,
      "d": 67.70833333334303,
      "v": 56
    },
    {
      "midi": 58,
      "hit": false,
      "t": 161216.14583333343,
      "d": 59.895833333343035,
      "v": 62
    },
    {
      "midi": 74,
      "hit": false,
      "t": 161234.3750000001,
      "d": 57.29166666668607,
      "v": 38
    },
    {
      "midi": 70,
      "hit": false,
      "t": 161601.56250000012,
      "d": 156.25,
      "v": 41
    },
    {
      "midi": 65,
      "hit": false,
      "t": 161611.97916666677,
      "d": 117.1875,
      "v": 57
    },
    {
      "midi": 74,
      "hit": false,
      "t": 161614.58333333343,
      "d": 151.04166666668607,
      "v": 60
    },
    {
      "midi": 67,
      "hit": false,
      "t": 161921.87500000012,
      "d": 57.291666666656965,
      "v": 60
    },
    {
      "midi": 62,
      "hit": false,
      "t": 161929.68750000012,
      "d": 59.89583333331393,
      "v": 41
    },
    {
      "midi": 70,
      "hit": false,
      "t": 162205.72916666677,
      "d": 195.3125,
      "v": 51
    },
    {
      "midi": 65,
      "hit": false,
      "t": 162208.33333333343,
      "d": 156.25,
      "v": 55
    },
    {
      "midi": 74,
      "hit": false,
      "t": 162208.33333333343,
      "d": 187.5,
      "v": 67
    },
    {
      "midi": 67,
      "hit": false,
      "t": 162505.20833333343,
      "d": 52.083333333343035,
      "v": 63
    },
    {
      "midi": 62,
      "hit": false,
      "t": 162510.41666666677,
      "d": 57.291666666656965,
      "v": 49
    },
    {
      "midi": 70,
      "hit": false,
      "t": 162627.60416666677,
      "d": 83.33333333334303,
      "v": 55
    },
    {
      "midi": 65,
      "hit": false,
      "t": 162635.41666666677,
      "d": 49.47916666668607,
      "v": 55
    },
    {
      "midi": 74,
      "hit": false,
      "t": 162640.62500000012,
      "d": 72.91666666665697,
      "v": 56
    },
    {
      "midi": 67,
      "hit": false,
      "t": 162802.08333333343,
      "d": 46.875,
      "v": 74
    },
    {
      "midi": 62,
      "hit": false,
      "t": 162825.52083333343,
      "d": 49.479166666656965,
      "v": 40
    },
    {
      "midi": 43,
      "hit": false,
      "t": 163091.14583333343,
      "d": 257.8124999999709,
      "v": 42
    },
    {
      "midi": 50,
      "hit": false,
      "t": 163197.91666666677,
      "d": 195.3124999999709,
      "v": 29
    },
    {
      "midi": 81,
      "hit": false,
      "t": 163221.35416666677,
      "d": 208.33333333331393,
      "v": 88
    },
    {
      "midi": 77,
      "hit": false,
      "t": 163247.39583333343,
      "d": 158.85416666665697,
      "v": 49
    },
    {
      "midi": 69,
      "hit": false,
      "t": 163247.39583333343,
      "d": 184.89583333331393,
      "v": 37
    },
    {
      "midi": 74,
      "hit": false,
      "t": 163250.0000000001,
      "d": 101.5624999999709,
      "v": 47
    },
    {
      "midi": 58,
      "hit": false,
      "t": 163260.41666666674,
      "d": 153.64583333334303,
      "v": 38
    },
    {
      "midi": 74,
      "hit": false,
      "t": 163611.97916666674,
      "d": 153.64583333337214,
      "v": 61
    },
    {
      "midi": 70,
      "hit": false,
      "t": 163625.0000000001,
      "d": 135.41666666668607,
      "v": 33
    },
    {
      "midi": 65,
      "hit": false,
      "t": 163630.20833333343,
      "d": 98.95833333334303,
      "v": 41
    },
    {
      "midi": 67,
      "hit": false,
      "t": 163945.31250000012,
      "d": 85.9375,
      "v": 47
    },
    {
      "midi": 62,
      "hit": false,
      "t": 163947.91666666677,
      "d": 98.95833333334303,
      "v": 37
    },
    {
      "midi": 69,
      "hit": false,
      "t": 164229.16666666677,
      "d": 130.20833333334303,
      "v": 38
    },
    {
      "midi": 74,
      "hit": false,
      "t": 164236.97916666677,
      "d": 75.52083333334303,
      "v": 39
    },
    {
      "midi": 77,
      "hit": false,
      "t": 164236.97916666677,
      "d": 135.41666666668607,
      "v": 46
    },
    {
      "midi": 70,
      "hit": false,
      "t": 164554.68750000012,
      "d": 161.45833333331393,
      "v": 35
    },
    {
      "midi": 65,
      "hit": false,
      "t": 164578.12500000012,
      "d": 57.291666666656965,
      "v": 32
    },
    {
      "midi": 74,
      "hit": false,
      "t": 164578.12500000012,
      "d": 229.16666666665697,
      "v": 36
    },
    {
      "midi": 67,
      "hit": false,
      "t": 164911.45833333343,
      "d": 78.125,
      "v": 39
    },
    {
      "midi": 62,
      "hit": false,
      "t": 164934.89583333343,
      "d": 96.35416666665697,
      "v": 25
    },
    {
      "midi": 76,
      "hit": false,
      "t": 165291.66666666674,
      "d": 200.52083333334303,
      "v": 51
    },
    {
      "midi": 64,
      "hit": false,
      "t": 165304.6875000001,
      "d": 476.5625,
      "v": 37
    },
    {
      "midi": 77,
      "hit": false,
      "t": 165442.70833333343,
      "d": 135.41666666665697,
      "v": 53
    },
    {
      "midi": 79,
      "hit": false,
      "t": 165583.33333333343,
      "d": 148.4375,
      "v": 68
    },
    {
      "midi": 53,
      "hit": false,
      "t": 165604.16666666677,
      "d": 265.6249999999709,
      "v": 44
    },
    {
      "midi": 76,
      "hit": false,
      "t": 165721.35416666677,
      "d": 161.45833333331393,
      "v": 55
    },
    {
      "midi": 77,
      "hit": false,
      "t": 165867.1875000001,
      "d": 153.64583333334303,
      "v": 60
    },
    {
      "midi": 57,
      "hit": false,
      "t": 165898.4375000001,
      "d": 59.895833333343035,
      "v": 41
    },
    {
      "midi": 79,
      "hit": false,
      "t": 166000.0000000001,
      "d": 125,
      "v": 68
    },
    {
      "midi": 76,
      "hit": false,
      "t": 166166.66666666674,
      "d": 203.125,
      "v": 54
    },
    {
      "midi": 48,
      "hit": false,
      "t": 166192.7083333334,
      "d": 356.77083333334303,
      "v": 49
    },
    {
      "midi": 77,
      "hit": false,
      "t": 166322.91666666674,
      "d": 164.0625,
      "v": 56
    },
    {
      "midi": 79,
      "hit": false,
      "t": 166479.16666666674,
      "d": 148.4375,
      "v": 59
    },
    {
      "midi": 41,
      "hit": false,
      "t": 166486.97916666674,
      "d": 106.77083333334303,
      "v": 45
    },
    {
      "midi": 76,
      "hit": false,
      "t": 166625.0000000001,
      "d": 184.89583333331393,
      "v": 52
    },
    {
      "midi": 77,
      "hit": false,
      "t": 166783.85416666674,
      "d": 151.04166666665697,
      "v": 52
    },
    {
      "midi": 57,
      "hit": false,
      "t": 166802.0833333334,
      "d": 75.52083333334303,
      "v": 37
    },
    {
      "midi": 79,
      "hit": false,
      "t": 166937.50000000006,
      "d": 135.41666666665697,
      "v": 57
    },
    {
      "midi": 76,
      "hit": false,
      "t": 167088.54166666672,
      "d": 197.91666666668607,
      "v": 51
    },
    {
      "midi": 64,
      "hit": false,
      "t": 167088.54166666672,
      "d": 351.5625,
      "v": 71
    },
    {
      "midi": 77,
      "hit": false,
      "t": 167234.37500000006,
      "d": 153.64583333334303,
      "v": 54
    },
    {
      "midi": 79,
      "hit": false,
      "t": 167375.00000000006,
      "d": 161.45833333331393,
      "v": 63
    },
    {
      "midi": 53,
      "hit": false,
      "t": 167390.62500000006,
      "d": 184.89583333331393,
      "v": 77
    },
    {
      "midi": 76,
      "hit": false,
      "t": 167513.02083333337,
      "d": 174.47916666668607,
      "v": 62
    },
    {
      "midi": 77,
      "hit": false,
      "t": 167666.66666666672,
      "d": 145.83333333334303,
      "v": 65
    },
    {
      "midi": 57,
      "hit": false,
      "t": 167687.50000000006,
      "d": 72.91666666665697,
      "v": 57
    },
    {
      "midi": 79,
      "hit": false,
      "t": 167807.29166666672,
      "d": 166.66666666668607,
      "v": 70
    },
    {
      "midi": 76,
      "hit": false,
      "t": 167966.1458333334,
      "d": 169.27083333331393,
      "v": 63
    },
    {
      "midi": 48,
      "hit": false,
      "t": 167981.7708333334,
      "d": 320.3125,
      "v": 51
    },
    {
      "midi": 77,
      "hit": false,
      "t": 168117.18750000006,
      "d": 140.625,
      "v": 63
    },
    {
      "midi": 79,
      "hit": false,
      "t": 168252.60416666672,
      "d": 156.2500000000291,
      "v": 71
    },
    {
      "midi": 41,
      "hit": false,
      "t": 168265.62500000006,
      "d": 70.3125,
      "v": 49
    },
    {
      "midi": 76,
      "hit": false,
      "t": 168395.8333333334,
      "d": 169.27083333334303,
      "v": 63
    },
    {
      "midi": 77,
      "hit": false,
      "t": 168552.0833333334,
      "d": 98.95833333334303,
      "v": 62
    },
    {
      "midi": 57,
      "hit": false,
      "t": 168583.3333333334,
      "d": 72.91666666668607,
      "v": 26
    },
    {
      "midi": 79,
      "hit": false,
      "t": 168697.91666666674,
      "d": 216.14583333331393,
      "v": 61
    },
    {
      "midi": 43,
      "hit": false,
      "t": 168770.8333333334,
      "d": 291.66666666665697,
      "v": 31
    },
    {
      "midi": 50,
      "hit": false,
      "t": 168906.25000000006,
      "d": 213.54166666665697,
      "v": 12
    },
    {
      "midi": 81,
      "hit": false,
      "t": 168945.31250000006,
      "d": 210.9375,
      "v": 84
    },
    {
      "midi": 77,
      "hit": false,
      "t": 168992.18750000006,
      "d": 70.3125,
      "v": 49
    },
    {
      "midi": 74,
      "hit": false,
      "t": 168994.79166666672,
      "d": 78.125,
      "v": 42
    },
    {
      "midi": 69,
      "hit": false,
      "t": 169000.00000000006,
      "d": 140.625,
      "v": 21
    },
    {
      "midi": 58,
      "hit": false,
      "t": 169033.85416666672,
      "d": 119.79166666668607,
      "v": 34
    },
    {
      "midi": 70,
      "hit": false,
      "t": 169333.3333333334,
      "d": 161.45833333334303,
      "v": 33
    },
    {
      "midi": 74,
      "hit": false,
      "t": 169338.54166666674,
      "d": 158.85416666665697,
      "v": 48
    },
    {
      "midi": 65,
      "hit": false,
      "t": 169343.7500000001,
      "d": 78.125,
      "v": 33
    },
    {
      "midi": 67,
      "hit": false,
      "t": 169653.6458333334,
      "d": 85.9375,
      "v": 46
    },
    {
      "midi": 62,
      "hit": false,
      "t": 169666.66666666674,
      "d": 54.6875,
      "v": 40
    },
    {
      "midi": 69,
      "hit": false,
      "t": 169958.3333333334,
      "d": 223.95833333334303,
      "v": 48
    },
    {
      "midi": 77,
      "hit": false,
      "t": 169966.1458333334,
      "d": 208.33333333334303,
      "v": 54
    },
    {
      "midi": 74,
      "hit": false,
      "t": 169973.9583333334,
      "d": 164.0625,
      "v": 51
    },
    {
      "midi": 67,
      "hit": false,
      "t": 170260.41666666674,
      "d": 59.895833333343035,
      "v": 54
    },
    {
      "midi": 62,
      "hit": false,
      "t": 170289.0625000001,
      "d": 65.10416666665697,
      "v": 37
    },
    {
      "midi": 70,
      "hit": false,
      "t": 170377.60416666674,
      "d": 93.7500000000291,
      "v": 47
    },
    {
      "midi": 74,
      "hit": false,
      "t": 170380.2083333334,
      "d": 85.9375000000291,
      "v": 64
    },
    {
      "midi": 65,
      "hit": false,
      "t": 170385.41666666674,
      "d": 52.083333333343035,
      "v": 53
    },
    {
      "midi": 67,
      "hit": false,
      "t": 170544.27083333343,
      "d": 46.875,
      "v": 72
    },
    {
      "midi": 62,
      "hit": false,
      "t": 170554.6875000001,
      "d": 54.6875,
      "v": 45
    },
    {
      "midi": 43,
      "hit": false,
      "t": 170864.58333333343,
      "d": 257.8124999999709,
      "v": 50
    },
    {
      "midi": 50,
      "hit": false,
      "t": 170955.72916666677,
      "d": 231.77083333331393,
      "v": 18
    },
    {
      "midi": 81,
      "hit": false,
      "t": 171013.02083333343,
      "d": 187.5,
      "v": 57
    },
    {
      "midi": 77,
      "hit": false,
      "t": 171039.0625000001,
      "d": 148.4375,
      "v": 30
    },
    {
      "midi": 69,
      "hit": false,
      "t": 171041.66666666674,
      "d": 210.9375,
      "v": 19
    },
    {
      "midi": 58,
      "hit": false,
      "t": 171046.8750000001,
      "d": 156.25,
      "v": 30
    },
    {
      "midi": 74,
      "hit": false,
      "t": 171049.47916666674,
      "d": 93.75,
      "v": 26
    },
    {
      "midi": 74,
      "hit": false,
      "t": 171403.6458333334,
      "d": 169.27083333331393,
      "v": 38
    },
    {
      "midi": 70,
      "hit": false,
      "t": 171414.06250000006,
      "d": 101.5625,
      "v": 27
    },
    {
      "midi": 65,
      "hit": false,
      "t": 171432.29166666672,
      "d": 91.14583333334303,
      "v": 20
    },
    {
      "midi": 67,
      "hit": false,
      "t": 171739.58333333337,
      "d": 83.33333333334303,
      "v": 26
    },
    {
      "midi": 62,
      "hit": false,
      "t": 171744.79166666672,
      "d": 75.52083333334303,
      "v": 19
    },
    {
      "midi": 77,
      "hit": false,
      "t": 172020.83333333337,
      "d": 164.0625000000291,
      "v": 37
    },
    {
      "midi": 69,
      "hit": false,
      "t": 172028.64583333337,
      "d": 171.8750000000291,
      "v": 25
    },
    {
      "midi": 74,
      "hit": false,
      "t": 172041.66666666672,
      "d": 83.33333333334303,
      "v": 26
    },
    {
      "midi": 62,
      "hit": false,
      "t": 172338.54166666674,
      "d": 96.35416666665697,
      "v": 12
    },
    {
      "midi": 67,
      "hit": false,
      "t": 172348.9583333334,
      "d": 72.91666666665697,
      "v": 24
    },
    {
      "midi": 70,
      "hit": false,
      "t": 172458.3333333334,
      "d": 109.375,
      "v": 22
    },
    {
      "midi": 74,
      "hit": false,
      "t": 172468.75000000006,
      "d": 91.14583333334303,
      "v": 32
    },
    {
      "midi": 65,
      "hit": false,
      "t": 172476.56250000006,
      "d": 59.895833333343035,
      "v": 22
    },
    {
      "midi": 67,
      "hit": false,
      "t": 172674.47916666674,
      "d": 65.10416666665697,
      "v": 34
    },
    {
      "midi": 62,
      "hit": false,
      "t": 172682.29166666674,
      "d": 91.14583333331393,
      "v": 15
    },
    {
      "midi": 81,
      "hit": false,
      "t": 173085.93750000006,
      "d": 393.22916666662786,
      "v": 69
    },
    {
      "midi": 58,
      "hit": false,
      "t": 173104.16666666672,
      "d": 325.52083333331393,
      "v": 28
    },
    {
      "midi": 82,
      "hit": false,
      "t": 173403.64583333337,
      "d": 351.5625,
      "v": 69
    },
    {
      "midi": 50,
      "hit": false,
      "t": 173479.1666666667,
      "d": 75.52083333334303,
      "v": 23
    },
    {
      "midi": 84,
      "hit": false,
      "t": 173692.70833333337,
      "d": 476.5624999999709,
      "v": 75
    },
    {
      "midi": 43,
      "hit": false,
      "t": 173705.72916666672,
      "d": 52.08333333331393,
      "v": 39
    },
    {
      "midi": 81,
      "hit": false,
      "t": 174026.0416666667,
      "d": 419.27083333334303,
      "v": 69
    },
    {
      "midi": 69,
      "hit": false,
      "t": 174041.6666666667,
      "d": 364.58333333334303,
      "v": 22
    },
    {
      "midi": 79,
      "hit": false,
      "t": 174356.77083333334,
      "d": 320.3125000000291,
      "v": 72
    },
    {
      "midi": 65,
      "hit": false,
      "t": 174393.2291666667,
      "d": 200.52083333334303,
      "v": 22
    },
    {
      "midi": 74,
      "hit": false,
      "t": 174645.83333333337,
      "d": 325.52083333331393,
      "v": 69
    },
    {
      "midi": 58,
      "hit": false,
      "t": 174677.08333333337,
      "d": 72.91666666665697,
      "v": 28
    },
    {
      "midi": 81,
      "hit": false,
      "t": 174932.2916666667,
      "d": 388.02083333331393,
      "v": 76
    },
    {
      "midi": 69,
      "hit": false,
      "t": 174963.5416666667,
      "d": 302.08333333331393,
      "v": 35
    },
    {
      "midi": 74,
      "hit": false,
      "t": 175239.58333333334,
      "d": 343.75,
      "v": 82
    },
    {
      "midi": 65,
      "hit": false,
      "t": 175283.85416666666,
      "d": 135.41666666668607,
      "v": 24
    },
    {
      "midi": 76,
      "hit": false,
      "t": 175520.83333333334,
      "d": 294.27083333334303,
      "v": 79
    },
    {
      "midi": 59,
      "hit": false,
      "t": 175559.89583333334,
      "d": 54.6875,
      "v": 33
    },
    {
      "midi": 79,
      "hit": false,
      "t": 175791.6666666667,
      "d": 166.66666666665697,
      "v": 88
    },
    {
      "midi": 59,
      "hit": false,
      "t": 175802.08333333334,
      "d": 208.33333333331393,
      "v": 42
    },
    {
      "midi": 77,
      "hit": false,
      "t": 175989.58333333334,
      "d": 41.666666666656965,
      "v": 73
    },
    {
      "midi": 79,
      "hit": false,
      "t": 176052.08333333334,
      "d": 111.97916666665697,
      "v": 75
    },
    {
      "midi": 50,
      "hit": false,
      "t": 176080.7291666667,
      "d": 140.6249999999709,
      "v": 39
    },
    {
      "midi": 77,
      "hit": false,
      "t": 176098.95833333334,
      "d": 302.08333333331393,
      "v": 74
    },
    {
      "midi": 43,
      "hit": false,
      "t": 176401.04166666666,
      "d": 75.52083333334303,
      "v": 27
    },
    {
      "midi": 76,
      "hit": false,
      "t": 176401.04166666666,
      "d": 445.3125000000291,
      "v": 61
    },
    {
      "midi": 81,
      "hit": false,
      "t": 176770.83333333334,
      "d": 393.22916666668607,
      "v": 78
    },
    {
      "midi": 58,
      "hit": false,
      "t": 176804.6875,
      "d": 299.47916666668607,
      "v": 23
    },
    {
      "midi": 82,
      "hit": false,
      "t": 177078.12500000003,
      "d": 299.47916666665697,
      "v": 76
    },
    {
      "midi": 50,
      "hit": false,
      "t": 177109.37500000003,
      "d": 78.125,
      "v": 38
    },
    {
      "midi": 43,
      "hit": false,
      "t": 177322.9166666667,
      "d": 75.52083333334303,
      "v": 31
    },
    {
      "midi": 84,
      "hit": false,
      "t": 177354.1666666667,
      "d": 190.10416666665697,
      "v": 86
    },
    {
      "midi": 81,
      "hit": false,
      "t": 177533.8541666667,
      "d": 46.875,
      "v": 61
    },
    {
      "midi": 82,
      "hit": false,
      "t": 177585.93750000003,
      "d": 125.0000000000291,
      "v": 68
    },
    {
      "midi": 81,
      "hit": false,
      "t": 177638.02083333337,
      "d": 398.4375000000291,
      "v": 78
    },
    {
      "midi": 69,
      "hit": false,
      "t": 177658.85416666672,
      "d": 320.3125,
      "v": 39
    },
    {
      "midi": 79,
      "hit": false,
      "t": 177966.14583333337,
      "d": 291.6666666667152,
      "v": 75
    },
    {
      "midi": 65,
      "hit": false,
      "t": 177984.37500000006,
      "d": 119.79166666668607,
      "v": 27
    },
    {
      "midi": 74,
      "hit": false,
      "t": 178265.6250000001,
      "d": 307.29166666665697,
      "v": 61
    },
    {
      "midi": 58,
      "hit": false,
      "t": 178302.08333333343,
      "d": 96.35416666665697,
      "v": 27
    },
    {
      "midi": 81,
      "hit": false,
      "t": 178572.91666666674,
      "d": 348.95833333331393,
      "v": 67
    },
    {
      "midi": 69,
      "hit": false,
      "t": 178588.54166666674,
      "d": 312.4999999999709,
      "v": 31
    },
    {
      "midi": 74,
      "hit": false,
      "t": 178898.43750000006,
      "d": 291.66666666668607,
      "v": 68
    },
    {
      "midi": 65,
      "hit": false,
      "t": 178950.5208333334,
      "d": 127.60416666665697,
      "v": 23
    },
    {
      "midi": 76,
      "hit": false,
      "t": 179161.4583333334,
      "d": 273.4375,
      "v": 67
    },
    {
      "midi": 59,
      "hit": false,
      "t": 179208.3333333334,
      "d": 65.10416666665697,
      "v": 28
    },
    {
      "midi": 79,
      "hit": false,
      "t": 179427.0833333334,
      "d": 169.27083333334303,
      "v": 78
    },
    {
      "midi": 59,
      "hit": false,
      "t": 179455.72916666674,
      "d": 255.20833333331393,
      "v": 44
    },
    {
      "midi": 77,
      "hit": false,
      "t": 179645.8333333334,
      "d": 46.875,
      "v": 59
    },
    {
      "midi": 79,
      "hit": false,
      "t": 179718.75000000006,
      "d": 72.91666666665697,
      "v": 61
    },
    {
      "midi": 77,
      "hit": false,
      "t": 179760.41666666672,
      "d": 406.2499999999709,
      "v": 68
    },
    {
      "midi": 50,
      "hit": false,
      "t": 179781.25000000006,
      "d": 98.95833333331393,
      "v": 27
    },
    {
      "midi": 43,
      "hit": false,
      "t": 180057.29166666672,
      "d": 67.70833333331393,
      "v": 31
    },
    {
      "midi": 76,
      "hit": false,
      "t": 180091.14583333337,
      "d": 328.1249999999709,
      "v": 47
    },
    {
      "midi": 74,
      "hit": false,
      "t": 180416.6666666667,
      "d": 338.54166666665697,
      "v": 50
    },
    {
      "midi": 48,
      "hit": false,
      "t": 180427.08333333334,
      "d": 570.3125,
      "v": 20
    },
    {
      "midi": 72,
      "hit": false,
      "t": 180752.6041666667,
      "d": 403.64583333334303,
      "v": 36
    },
    {
      "midi": 58,
      "hit": false,
      "t": 180794.27083333334,
      "d": 393.22916666668607,
      "v": 12
    },
    {
      "midi": 69,
      "hit": false,
      "t": 181182.2916666667,
      "d": 450.52083333334303,
      "v": 25
    },
    {
      "midi": 62,
      "hit": false,
      "t": 181216.14583333337,
      "d": 65.10416666665697,
      "v": 19
    },
    {
      "midi": 77,
      "hit": false,
      "t": 181747.39583333337,
      "d": 281.25,
      "v": 95
    },
    {
      "midi": 65,
      "hit": false,
      "t": 181763.02083333337,
      "d": 273.4375,
      "v": 63
    },
    {
      "midi": 41,
      "hit": false,
      "t": 181776.04166666672,
      "d": 67.70833333334303,
      "v": 50
    },
    {
      "midi": 57,
      "hit": false,
      "t": 181781.25000000006,
      "d": 104.16666666665697,
      "v": 47
    },
    {
      "midi": 72,
      "hit": false,
      "t": 182036.45833333337,
      "d": 135.41666666668607,
      "v": 48
    },
    {
      "midi": 69,
      "hit": false,
      "t": 182052.08333333337,
      "d": 83.33333333334303,
      "v": 21
    },
    {
      "midi": 46,
      "hit": false,
      "t": 182229.16666666672,
      "d": 52.08333333331393,
      "v": 51
    },
    {
      "midi": 77,
      "hit": false,
      "t": 182270.83333333337,
      "d": 260.41666666668607,
      "v": 98
    },
    {
      "midi": 65,
      "hit": false,
      "t": 182289.06250000003,
      "d": 143.22916666668607,
      "v": 69
    },
    {
      "midi": 62,
      "hit": false,
      "t": 182317.70833333337,
      "d": 41.66666666668607,
      "v": 79
    },
    {
      "midi": 70,
      "hit": false,
      "t": 182500.00000000006,
      "d": 54.6875,
      "v": 44
    },
    {
      "midi": 74,
      "hit": false,
      "t": 182515.62500000006,
      "d": 44.270833333343035,
      "v": 60
    },
    {
      "midi": 77,
      "hit": false,
      "t": 182674.47916666674,
      "d": 140.6249999999709,
      "v": 81
    },
    {
      "midi": 43,
      "hit": false,
      "t": 182750.00000000006,
      "d": 59.89583333331393,
      "v": 45
    },
    {
      "midi": 79,
      "hit": false,
      "t": 182791.66666666672,
      "d": 192.70833333334303,
      "v": 98
    },
    {
      "midi": 58,
      "hit": false,
      "t": 182807.29166666672,
      "d": 70.3125,
      "v": 59
    },
    {
      "midi": 77,
      "hit": false,
      "t": 182916.66666666672,
      "d": 169.27083333334303,
      "v": 71
    },
    {
      "midi": 76,
      "hit": false,
      "t": 183062.50000000006,
      "d": 153.64583333331393,
      "v": 68
    },
    {
      "midi": 74,
      "hit": false,
      "t": 183205.72916666672,
      "d": 117.1875,
      "v": 74
    },
    {
      "midi": 72,
      "hit": false,
      "t": 183315.10416666672,
      "d": 117.1875000000291,
      "v": 85
    },
    {
      "midi": 48,
      "hit": false,
      "t": 183328.12500000006,
      "d": 1179.687500000029,
      "v": 40
    },
    {
      "midi": 72,
      "hit": false,
      "t": 183604.16666666674,
      "d": 164.0625000000291,
      "v": 70
    },
    {
      "midi": 69,
      "hit": false,
      "t": 183617.1875000001,
      "d": 117.1875000000291,
      "v": 47
    },
    {
      "midi": 64,
      "hit": false,
      "t": 183625.0000000001,
      "d": 75.52083333334303,
      "v": 53
    },
    {
      "midi": 57,
      "hit": false,
      "t": 183625.0000000001,
      "d": 302.08333333334303,
      "v": 37
    },
    {
      "midi": 60,
      "hit": false,
      "t": 183625.0000000001,
      "d": 348.95833333334303,
      "v": 42
    },
    {
      "midi": 76,
      "hit": false,
      "t": 183721.35416666677,
      "d": 247.39583333331393,
      "v": 78
    },
    {
      "midi": 72,
      "hit": false,
      "t": 183895.83333333343,
      "d": 151.04166666665697,
      "v": 89
    },
    {
      "midi": 69,
      "hit": false,
      "t": 184187.5000000001,
      "d": 106.77083333334303,
      "v": 42
    },
    {
      "midi": 62,
      "hit": false,
      "t": 184187.5000000001,
      "d": 351.5625,
      "v": 42
    },
    {
      "midi": 65,
      "hit": false,
      "t": 184192.70833333343,
      "d": 70.3125,
      "v": 50
    },
    {
      "midi": 58,
      "hit": false,
      "t": 184192.70833333343,
      "d": 348.95833333331393,
      "v": 28
    },
    {
      "midi": 72,
      "hit": false,
      "t": 184197.91666666677,
      "d": 130.20833333331393,
      "v": 58
    },
    {
      "midi": 76,
      "hit": false,
      "t": 184312.5000000001,
      "d": 62.5,
      "v": 64
    },
    {
      "midi": 72,
      "hit": false,
      "t": 184463.54166666674,
      "d": 70.3125,
      "v": 54
    },
    {
      "midi": 69,
      "hit": false,
      "t": 184697.91666666674,
      "d": 125,
      "v": 54
    },
    {
      "midi": 64,
      "hit": false,
      "t": 184726.5625000001,
      "d": 328.125,
      "v": 36
    },
    {
      "midi": 60,
      "hit": false,
      "t": 184750.0000000001,
      "d": 333.33333333334303,
      "v": 30
    },
    {
      "midi": 70,
      "hit": false,
      "t": 184835.9375000001,
      "d": 125,
      "v": 55
    },
    {
      "midi": 72,
      "hit": false,
      "t": 184973.95833333343,
      "d": 138.02083333331393,
      "v": 57
    },
    {
      "midi": 70,
      "hit": false,
      "t": 185093.7500000001,
      "d": 148.4375,
      "v": 48
    },
    {
      "midi": 69,
      "hit": false,
      "t": 185234.3750000001,
      "d": 122.39583333334303,
      "v": 49
    },
    {
      "midi": 67,
      "hit": false,
      "t": 185372.39583333343,
      "d": 85.9375,
      "v": 55
    },
    {
      "midi": 65,
      "hit": false,
      "t": 185500.0000000001,
      "d": 41.666666666656965,
      "v": 77
    },
    {
      "midi": 72,
      "hit": false,
      "t": 185622.3958333334,
      "d": 52.083333333343035,
      "v": 81
    },
    {
      "midi": 74,
      "hit": false,
      "t": 185729.16666666674,
      "d": 148.4375,
      "v": 88
    },
    {
      "midi": 76,
      "hit": false,
      "t": 185848.9583333334,
      "d": 138.02083333334303,
      "v": 75
    },
    {
      "midi": 57,
      "hit": false,
      "t": 185994.79166666674,
      "d": 98.95833333331393,
      "v": 48
    },
    {
      "midi": 77,
      "hit": false,
      "t": 186002.60416666674,
      "d": 351.5624999999709,
      "v": 86
    },
    {
      "midi": 41,
      "hit": false,
      "t": 186010.41666666674,
      "d": 65.10416666665697,
      "v": 52
    },
    {
      "midi": 65,
      "hit": false,
      "t": 186026.04166666674,
      "d": 156.2499999999709,
      "v": 39
    },
    {
      "midi": 67,
      "hit": false,
      "t": 186044.2708333334,
      "d": 91.14583333331393,
      "v": 32
    },
    {
      "midi": 72,
      "hit": false,
      "t": 186281.25000000006,
      "d": 135.41666666665697,
      "v": 63
    },
    {
      "midi": 69,
      "hit": false,
      "t": 186291.66666666672,
      "d": 119.79166666665697,
      "v": 35
    },
    {
      "midi": 46,
      "hit": false,
      "t": 186429.68750000006,
      "d": 59.895833333343035,
      "v": 55
    },
    {
      "midi": 77,
      "hit": false,
      "t": 186520.8333333334,
      "d": 276.04166666662786,
      "v": 102
    },
    {
      "midi": 65,
      "hit": false,
      "t": 186536.4583333334,
      "d": 88.54166666665697,
      "v": 80
    },
    {
      "midi": 62,
      "hit": false,
      "t": 186552.0833333334,
      "d": 83.33333333331393,
      "v": 78
    },
    {
      "midi": 70,
      "hit": false,
      "t": 186773.43750000003,
      "d": 52.08333333331393,
      "v": 48
    },
    {
      "midi": 74,
      "hit": false,
      "t": 186776.0416666667,
      "d": 46.875,
      "v": 73
    },
    {
      "midi": 77,
      "hit": false,
      "t": 186927.08333333334,
      "d": 151.04166666665697,
      "v": 81
    },
    {
      "midi": 43,
      "hit": false,
      "t": 186958.33333333334,
      "d": 177.08333333331393,
      "v": 52
    },
    {
      "midi": 79,
      "hit": false,
      "t": 187044.27083333334,
      "d": 192.70833333331393,
      "v": 97
    },
    {
      "midi": 58,
      "hit": false,
      "t": 187062.5,
      "d": 223.95833333331393,
      "v": 41
    },
    {
      "midi": 77,
      "hit": false,
      "t": 187177.0833333333,
      "d": 153.64583333334303,
      "v": 64
    },
    {
      "midi": 76,
      "hit": false,
      "t": 187302.0833333333,
      "d": 125,
      "v": 65
    },
    {
      "midi": 74,
      "hit": false,
      "t": 187424.47916666666,
      "d": 106.77083333331393,
      "v": 72
    },
    {
      "midi": 72,
      "hit": false,
      "t": 187541.66666666663,
      "d": 44.27083333331393,
      "v": 79
    },
    {
      "midi": 48,
      "hit": false,
      "t": 187552.08333333328,
      "d": 1057.2916666666279,
      "v": 55
    },
    {
      "midi": 69,
      "hit": false,
      "t": 187822.91666666663,
      "d": 145.83333333334303,
      "v": 46
    },
    {
      "midi": 72,
      "hit": false,
      "t": 187822.91666666663,
      "d": 164.0625,
      "v": 74
    },
    {
      "midi": 64,
      "hit": false,
      "t": 187825.52083333328,
      "d": 101.5625000000291,
      "v": 68
    },
    {
      "midi": 60,
      "hit": false,
      "t": 187830.72916666663,
      "d": 273.4374999999709,
      "v": 43
    },
    {
      "midi": 57,
      "hit": false,
      "t": 187867.18749999997,
      "d": 187.4999999999709,
      "v": 6
    },
    {
      "midi": 76,
      "hit": false,
      "t": 187953.12499999997,
      "d": 192.70833333328483,
      "v": 71
    },
    {
      "midi": 72,
      "hit": false,
      "t": 188093.74999999994,
      "d": 122.39583333331393,
      "v": 63
    },
    {
      "midi": 72,
      "hit": false,
      "t": 188361.9791666666,
      "d": 179.6875,
      "v": 75
    },
    {
      "midi": 58,
      "hit": false,
      "t": 188374.99999999994,
      "d": 312.4999999999709,
      "v": 28
    },
    {
      "midi": 65,
      "hit": false,
      "t": 188380.20833333328,
      "d": 114.58333333331393,
      "v": 52
    },
    {
      "midi": 69,
      "hit": false,
      "t": 188382.81249999994,
      "d": 80.72916666665697,
      "v": 35
    },
    {
      "midi": 62,
      "hit": false,
      "t": 188385.4166666666,
      "d": 312.4999999999709,
      "v": 36
    },
    {
      "midi": 76,
      "hit": false,
      "t": 188513.02083333326,
      "d": 153.64583333331393,
      "v": 67
    },
    {
      "midi": 72,
      "hit": false,
      "t": 188627.60416666657,
      "d": 208.33333333334303,
      "v": 60
    },
    {
      "midi": 69,
      "hit": false,
      "t": 188898.4374999999,
      "d": 156.25,
      "v": 53
    },
    {
      "midi": 64,
      "hit": false,
      "t": 188927.08333333326,
      "d": 325.52083333331393,
      "v": 34
    },
    {
      "midi": 60,
      "hit": false,
      "t": 188929.6874999999,
      "d": 351.5625,
      "v": 32
    },
    {
      "midi": 70,
      "hit": false,
      "t": 189031.2499999999,
      "d": 127.60416666665697,
      "v": 57
    },
    {
      "midi": 72,
      "hit": false,
      "t": 189166.66666666657,
      "d": 174.47916666668607,
      "v": 65
    },
    {
      "midi": 70,
      "hit": false,
      "t": 189281.2499999999,
      "d": 205.72916666668607,
      "v": 59
    },
    {
      "midi": 69,
      "hit": false,
      "t": 189427.08333333326,
      "d": 140.6250000000291,
      "v": 58
    },
    {
      "midi": 67,
      "hit": false,
      "t": 189554.68749999994,
      "d": 164.0625,
      "v": 62
    },
    {
      "midi": 57,
      "hit": false,
      "t": 189710.93749999994,
      "d": 330.72916666665697,
      "v": 32
    },
    {
      "midi": 58,
      "hit": false,
      "t": 189716.14583333328,
      "d": 291.66666666665697,
      "v": 26
    },
    {
      "midi": 69,
      "hit": false,
      "t": 189729.1666666666,
      "d": 447.91666666668607,
      "v": 55
    },
    {
      "midi": 64,
      "hit": false,
      "t": 190080.7291666666,
      "d": 169.27083333334303,
      "v": 26
    },
    {
      "midi": 60,
      "hit": false,
      "t": 190085.93749999994,
      "d": 236.97916666665697,
      "v": 11
    },
    {
      "midi": 69,
      "hit": false,
      "t": 190356.77083333326,
      "d": 471.35416666668607,
      "v": 47
    },
    {
      "midi": 58,
      "hit": false,
      "t": 190374.9999999999,
      "d": 270.83333333334303,
      "v": 6
    },
    {
      "midi": 57,
      "hit": false,
      "t": 190406.2499999999,
      "d": 322.91666666668607,
      "v": 17
    },
    {
      "midi": 65,
      "hit": false,
      "t": 190669.27083333326,
      "d": 216.14583333334303,
      "v": 21
    },
    {
      "midi": 62,
      "hit": false,
      "t": 190692.70833333326,
      "d": 143.22916666668607,
      "v": 22
    },
    {
      "midi": 69,
      "hit": false,
      "t": 190992.18749999994,
      "d": 1065.104166666686,
      "v": 48
    },
    {
      "midi": 58,
      "hit": false,
      "t": 191020.83333333328,
      "d": 315.10416666662786,
      "v": 18
    },
    {
      "midi": 57,
      "hit": false,
      "t": 191041.6666666666,
      "d": 236.97916666665697,
      "v": 16
    },
    {
      "midi": 64,
      "hit": false,
      "t": 191322.9166666666,
      "d": 229.16666666665697,
      "v": 25
    },
    {
      "midi": 60,
      "hit": false,
      "t": 191380.20833333326,
      "d": 213.54166666665697,
      "v": 8
    },
    {
      "midi": 58,
      "hit": false,
      "t": 191661.45833333326,
      "d": 317.70833333334303,
      "v": 14
    },
    {
      "midi": 57,
      "hit": false,
      "t": 191684.89583333326,
      "d": 187.5,
      "v": 25
    },
    {
      "midi": 67,
      "hit": false,
      "t": 191976.56249999994,
      "d": 390.625,
      "v": 53
    },
    {
      "midi": 65,
      "hit": false,
      "t": 191999.99999999994,
      "d": 239.58333333334303,
      "v": 22
    },
    {
      "midi": 62,
      "hit": false,
      "t": 192020.83333333328,
      "d": 273.4375,
      "v": 18
    },
    {
      "midi": 69,
      "hit": false,
      "t": 192296.87499999994,
      "d": 380.20833333331393,
      "v": 54
    },
    {
      "midi": 58,
      "hit": false,
      "t": 192312.49999999994,
      "d": 325.52083333331393,
      "v": 17
    },
    {
      "midi": 57,
      "hit": false,
      "t": 192348.95833333328,
      "d": 255.20833333331393,
      "v": 19
    },
    {
      "midi": 67,
      "hit": false,
      "t": 192601.56249999994,
      "d": 364.58333333331393,
      "v": 58
    },
    {
      "midi": 64,
      "hit": false,
      "t": 192622.39583333326,
      "d": 257.8125,
      "v": 30
    },
    {
      "midi": 60,
      "hit": false,
      "t": 192645.83333333326,
      "d": 268.22916666668607,
      "v": 26
    },
    {
      "midi": 69,
      "hit": false,
      "t": 192908.8541666666,
      "d": 325.52083333331393,
      "v": 53
    },
    {
      "midi": 58,
      "hit": false,
      "t": 192932.2916666666,
      "d": 338.54166666665697,
      "v": 19
    },
    {
      "midi": 57,
      "hit": false,
      "t": 192968.7499999999,
      "d": 226.5625,
      "v": 21
    },
    {
      "midi": 72,
      "hit": false,
      "t": 193208.33333333326,
      "d": 367.1875,
      "v": 52
    },
    {
      "midi": 65,
      "hit": false,
      "t": 193226.5624999999,
      "d": 281.25,
      "v": 23
    },
    {
      "midi": 62,
      "hit": false,
      "t": 193255.20833333326,
      "d": 260.41666666665697,
      "v": 20
    },
    {
      "midi": 69,
      "hit": false,
      "t": 193515.6249999999,
      "d": 1036.458333333343,
      "v": 47
    },
    {
      "midi": 58,
      "hit": false,
      "t": 193520.83333333326,
      "d": 354.16666666665697,
      "v": 26
    },
    {
      "midi": 57,
      "hit": false,
      "t": 193570.3124999999,
      "d": 234.375,
      "v": 26
    },
    {
      "midi": 64,
      "hit": false,
      "t": 193843.7499999999,
      "d": 223.95833333334303,
      "v": 31
    },
    {
      "midi": 60,
      "hit": false,
      "t": 193848.95833333326,
      "d": 276.04166666665697,
      "v": 25
    },
    {
      "midi": 58,
      "hit": false,
      "t": 194156.2499999999,
      "d": 364.58333333334303,
      "v": 21
    },
    {
      "midi": 57,
      "hit": false,
      "t": 194208.33333333326,
      "d": 257.8125,
      "v": 21
    },
    {
      "midi": 67,
      "hit": false,
      "t": 194473.95833333326,
      "d": 382.8125000000291,
      "v": 47
    },
    {
      "midi": 65,
      "hit": false,
      "t": 194510.4166666666,
      "d": 226.5625,
      "v": 20
    },
    {
      "midi": 62,
      "hit": false,
      "t": 194544.27083333326,
      "d": 252.60416666668607,
      "v": 10
    },
    {
      "midi": 69,
      "hit": false,
      "t": 194802.08333333328,
      "d": 367.1875,
      "v": 42
    },
    {
      "midi": 58,
      "hit": false,
      "t": 194815.10416666663,
      "d": 356.77083333331393,
      "v": 16
    },
    {
      "midi": 57,
      "hit": false,
      "t": 194856.77083333328,
      "d": 247.39583333334303,
      "v": 15
    },
    {
      "midi": 67,
      "hit": false,
      "t": 195124.99999999997,
      "d": 346.35416666665697,
      "v": 47
    },
    {
      "midi": 64,
      "hit": false,
      "t": 195127.60416666663,
      "d": 247.39583333331393,
      "v": 29
    },
    {
      "midi": 60,
      "hit": false,
      "t": 195171.87499999994,
      "d": 234.375,
      "v": 21
    },
    {
      "midi": 69,
      "hit": false,
      "t": 195437.49999999994,
      "d": 283.85416666665697,
      "v": 46
    },
    {
      "midi": 58,
      "hit": false,
      "t": 195458.33333333328,
      "d": 289.0624999999709,
      "v": 21
    },
    {
      "midi": 57,
      "hit": false,
      "t": 195489.58333333328,
      "d": 125,
      "v": 18
    },
    {
      "midi": 74,
      "hit": false,
      "t": 195723.95833333326,
      "d": 67.70833333334303,
      "v": 57
    },
    {
      "midi": 65,
      "hit": false,
      "t": 195749.9999999999,
      "d": 205.72916666668607,
      "v": 19
    },
    {
      "midi": 62,
      "hit": false,
      "t": 195763.02083333326,
      "d": 234.375,
      "v": 18
    },
    {
      "midi": 72,
      "hit": false,
      "t": 195893.2291666666,
      "d": 52.083333333343035,
      "v": 54
    },
    {
      "midi": 74,
      "hit": false,
      "t": 195947.9166666666,
      "d": 125,
      "v": 61
    },
    {
      "midi": 58,
      "hit": false,
      "t": 196010.4166666666,
      "d": 291.66666666665697,
      "v": 32
    },
    {
      "midi": 72,
      "hit": false,
      "t": 196015.62499999994,
      "d": 213.54166666665697,
      "v": 53
    },
    {
      "midi": 57,
      "hit": false,
      "t": 196096.3541666666,
      "d": 119.79166666665697,
      "v": 10
    },
    {
      "midi": 70,
      "hit": false,
      "t": 196177.08333333326,
      "d": 177.08333333334303,
      "v": 50
    },
    {
      "midi": 69,
      "hit": false,
      "t": 196322.9166666666,
      "d": 156.25,
      "v": 56
    },
    {
      "midi": 64,
      "hit": false,
      "t": 196351.56249999994,
      "d": 179.6875,
      "v": 31
    },
    {
      "midi": 60,
      "hit": false,
      "t": 196364.58333333326,
      "d": 229.16666666668607,
      "v": 19
    },
    {
      "midi": 67,
      "hit": false,
      "t": 196466.14583333326,
      "d": 156.25,
      "v": 59
    },
    {
      "midi": 69,
      "hit": false,
      "t": 196622.39583333326,
      "d": 184.89583333334303,
      "v": 59
    },
    {
      "midi": 58,
      "hit": false,
      "t": 196638.02083333326,
      "d": 289.0625,
      "v": 22
    },
    {
      "midi": 57,
      "hit": false,
      "t": 196674.4791666666,
      "d": 122.39583333334303,
      "v": 27
    },
    {
      "midi": 69,
      "hit": false,
      "t": 196927.08333333326,
      "d": 148.4375,
      "v": 47
    },
    {
      "midi": 65,
      "hit": false,
      "t": 196955.7291666666,
      "d": 203.125,
      "v": 25
    },
    {
      "midi": 62,
      "hit": false,
      "t": 196971.3541666666,
      "d": 236.97916666665697,
      "v": 18
    },
    {
      "midi": 58,
      "hit": false,
      "t": 197257.8124999999,
      "d": 369.79166666665697,
      "v": 23
    },
    {
      "midi": 69,
      "hit": false,
      "t": 197265.6249999999,
      "d": 440.10416666665697,
      "v": 53
    },
    {
      "midi": 57,
      "hit": false,
      "t": 197325.52083333326,
      "d": 244.79166666665697,
      "v": 19
    },
    {
      "midi": 64,
      "hit": false,
      "t": 197588.54166666657,
      "d": 205.72916666665697,
      "v": 29
    },
    {
      "midi": 60,
      "hit": false,
      "t": 197604.16666666657,
      "d": 125,
      "v": 26
    },
    {
      "midi": 69,
      "hit": false,
      "t": 197880.20833333323,
      "d": 356.77083333331393,
      "v": 47
    },
    {
      "midi": 58,
      "hit": false,
      "t": 197929.68749999988,
      "d": 257.8125,
      "v": 15
    },
    {
      "midi": 57,
      "hit": false,
      "t": 197947.91666666654,
      "d": 91.14583333334303,
      "v": 22
    },
    {
      "midi": 65,
      "hit": false,
      "t": 198229.16666666654,
      "d": 179.6875,
      "v": 19
    },
    {
      "midi": 62,
      "hit": false,
      "t": 198239.5833333332,
      "d": 171.875,
      "v": 15
    },
    {
      "midi": 58,
      "hit": false,
      "t": 198507.81249999985,
      "d": 286.45833333331393,
      "v": 19
    },
    {
      "midi": 69,
      "hit": false,
      "t": 198507.81249999985,
      "d": 937.4999999999709,
      "v": 47
    },
    {
      "midi": 57,
      "hit": false,
      "t": 198549.4791666665,
      "d": 85.9375,
      "v": 32
    },
    {
      "midi": 64,
      "hit": false,
      "t": 198835.93749999983,
      "d": 153.64583333331393,
      "v": 27
    },
    {
      "midi": 60,
      "hit": false,
      "t": 198846.35416666648,
      "d": 156.25,
      "v": 15
    },
    {
      "midi": 58,
      "hit": false,
      "t": 199124.99999999983,
      "d": 276.04166666665697,
      "v": 22
    },
    {
      "midi": 57,
      "hit": false,
      "t": 199166.66666666648,
      "d": 91.14583333334303,
      "v": 25
    },
    {
      "midi": 67,
      "hit": false,
      "t": 199424.47916666648,
      "d": 335.9375,
      "v": 59
    },
    {
      "midi": 65,
      "hit": false,
      "t": 199455.72916666648,
      "d": 231.77083333334303,
      "v": 28
    },
    {
      "midi": 62,
      "hit": false,
      "t": 199499.99999999983,
      "d": 197.91666666665697,
      "v": 11
    },
    {
      "midi": 69,
      "hit": false,
      "t": 199710.93749999983,
      "d": 333.3333333332848,
      "v": 60
    },
    {
      "midi": 58,
      "hit": false,
      "t": 199726.56249999983,
      "d": 304.6874999999709,
      "v": 20
    },
    {
      "midi": 57,
      "hit": false,
      "t": 199778.64583333314,
      "d": 101.5625,
      "v": 18
    },
    {
      "midi": 67,
      "hit": false,
      "t": 200013.02083333314,
      "d": 348.9583333332848,
      "v": 66
    },
    {
      "midi": 64,
      "hit": false,
      "t": 200041.66666666645,
      "d": 187.4999999999709,
      "v": 31
    },
    {
      "midi": 60,
      "hit": false,
      "t": 200093.74999999977,
      "d": 135.41666666665697,
      "v": 13
    },
    {
      "midi": 69,
      "hit": false,
      "t": 200312.49999999977,
      "d": 302.0833333332848,
      "v": 51
    },
    {
      "midi": 58,
      "hit": false,
      "t": 200322.91666666642,
      "d": 302.0833333332848,
      "v": 23
    },
    {
      "midi": 57,
      "hit": false,
      "t": 200380.20833333308,
      "d": 140.625,
      "v": 21
    },
    {
      "midi": 72,
      "hit": false,
      "t": 200611.9791666664,
      "d": 403.64583333331393,
      "v": 51
    },
    {
      "midi": 65,
      "hit": false,
      "t": 200640.6249999997,
      "d": 255.20833333334303,
      "v": 18
    },
    {
      "midi": 62,
      "hit": false,
      "t": 200653.64583333305,
      "d": 283.85416666665697,
      "v": 22
    },
    {
      "midi": 69,
      "hit": false,
      "t": 200971.35416666637,
      "d": 869.7916666666861,
      "v": 40
    },
    {
      "midi": 58,
      "hit": false,
      "t": 200992.1874999997,
      "d": 322.91666666668607,
      "v": 14
    },
    {
      "midi": 57,
      "hit": false,
      "t": 201072.91666666637,
      "d": 171.875,
      "v": 8
    },
    {
      "midi": 64,
      "hit": false,
      "t": 201302.08333333305,
      "d": 171.875,
      "v": 25
    },
    {
      "midi": 60,
      "hit": false,
      "t": 201322.9166666664,
      "d": 216.14583333331393,
      "v": 16
    },
    {
      "midi": 58,
      "hit": false,
      "t": 201572.91666666637,
      "d": 291.66666666668607,
      "v": 23
    },
    {
      "midi": 57,
      "hit": false,
      "t": 201624.9999999997,
      "d": 114.58333333334303,
      "v": 18
    },
    {
      "midi": 65,
      "hit": false,
      "t": 201872.39583333305,
      "d": 223.95833333334303,
      "v": 21
    },
    {
      "midi": 62,
      "hit": false,
      "t": 201885.4166666664,
      "d": 244.79166666665697,
      "v": 22
    },
    {
      "midi": 58,
      "hit": false,
      "t": 202124.9999999997,
      "d": 343.7500000000291,
      "v": 26
    },
    {
      "midi": 57,
      "hit": false,
      "t": 202174.4791666664,
      "d": 236.97916666665697,
      "v": 29
    },
    {
      "midi": 60,
      "hit": false,
      "t": 202447.9166666664,
      "d": 276.0416666667152,
      "v": 32
    },
    {
      "midi": 64,
      "hit": false,
      "t": 202453.12499999974,
      "d": 247.39583333334303,
      "v": 27
    },
    {
      "midi": 67,
      "hit": false,
      "t": 202695.31249999974,
      "d": 307.2916666667152,
      "v": 82
    },
    {
      "midi": 58,
      "hit": false,
      "t": 202718.74999999977,
      "d": 307.29166666668607,
      "v": 27
    },
    {
      "midi": 57,
      "hit": false,
      "t": 202791.66666666645,
      "d": 177.08333333334303,
      "v": 19
    },
    {
      "midi": 69,
      "hit": false,
      "t": 202984.3749999998,
      "d": 91.14583333331393,
      "v": 53
    },
    {
      "midi": 65,
      "hit": false,
      "t": 203010.41666666645,
      "d": 263.02083333331393,
      "v": 31
    },
    {
      "midi": 62,
      "hit": false,
      "t": 203028.6458333331,
      "d": 302.08333333331393,
      "v": 30
    },
    {
      "midi": 67,
      "hit": false,
      "t": 203083.3333333331,
      "d": 91.14583333334303,
      "v": 49
    },
    {
      "midi": 69,
      "hit": false,
      "t": 203177.0833333331,
      "d": 65.10416666665697,
      "v": 46
    },
    {
      "midi": 67,
      "hit": false,
      "t": 203260.41666666642,
      "d": 72.91666666665697,
      "v": 47
    },
    {
      "midi": 58,
      "hit": false,
      "t": 203312.49999999977,
      "d": 330.72916666662786,
      "v": 32
    },
    {
      "midi": 69,
      "hit": false,
      "t": 203335.93749999974,
      "d": 75.52083333331393,
      "v": 39
    },
    {
      "midi": 57,
      "hit": false,
      "t": 203385.4166666664,
      "d": 203.125,
      "v": 10
    },
    {
      "midi": 67,
      "hit": false,
      "t": 203427.08333333305,
      "d": 80.72916666665697,
      "v": 40
    },
    {
      "midi": 69,
      "hit": false,
      "t": 203520.83333333305,
      "d": 67.70833333334303,
      "v": 41
    },
    {
      "midi": 67,
      "hit": false,
      "t": 203596.3541666664,
      "d": 83.33333333334303,
      "v": 40
    },
    {
      "midi": 64,
      "hit": false,
      "t": 203624.99999999974,
      "d": 205.72916666668607,
      "v": 30
    },
    {
      "midi": 60,
      "hit": false,
      "t": 203643.2291666664,
      "d": 242.1875000000291,
      "v": 22
    },
    {
      "midi": 69,
      "hit": false,
      "t": 203682.2916666664,
      "d": 75.52083333334303,
      "v": 31
    },
    {
      "midi": 67,
      "hit": false,
      "t": 203770.83333333308,
      "d": 75.52083333334303,
      "v": 35
    },
    {
      "midi": 69,
      "hit": false,
      "t": 203838.54166666642,
      "d": 72.91666666665697,
      "v": 38
    },
    {
      "midi": 58,
      "hit": false,
      "t": 203880.20833333308,
      "d": 294.27083333334303,
      "v": 21
    },
    {
      "midi": 57,
      "hit": false,
      "t": 203927.08333333308,
      "d": 125.0000000000291,
      "v": 13
    },
    {
      "midi": 67,
      "hit": false,
      "t": 203947.91666666642,
      "d": 75.52083333334303,
      "v": 26
    },
    {
      "midi": 69,
      "hit": false,
      "t": 203999.99999999977,
      "d": 70.3125,
      "v": 40
    },
    {
      "midi": 69,
      "hit": false,
      "t": 204158.85416666642,
      "d": 226.5624999999709,
      "v": 35
    },
    {
      "midi": 65,
      "hit": false,
      "t": 204192.70833333308,
      "d": 166.66666666665697,
      "v": 23
    },
    {
      "midi": 62,
      "hit": false,
      "t": 204218.74999999974,
      "d": 179.6875,
      "v": 22
    },
    {
      "midi": 67,
      "hit": false,
      "t": 204229.1666666664,
      "d": 229.16666666665697,
      "v": 2
    },
    {
      "midi": 58,
      "hit": false,
      "t": 204432.2916666664,
      "d": 364.58333333331393,
      "v": 26
    },
    {
      "midi": 57,
      "hit": false,
      "t": 204486.9791666664,
      "d": 234.375,
      "v": 25
    },
    {
      "midi": 64,
      "hit": false,
      "t": 204770.83333333305,
      "d": 283.85416666665697,
      "v": 31
    },
    {
      "midi": 60,
      "hit": false,
      "t": 204794.27083333305,
      "d": 286.45833333331393,
      "v": 18
    },
    {
      "midi": 67,
      "hit": false,
      "t": 205062.4999999997,
      "d": 122.39583333331393,
      "v": 51
    },
    {
      "midi": 58,
      "hit": false,
      "t": 205080.72916666637,
      "d": 320.3125,
      "v": 22
    },
    {
      "midi": 57,
      "hit": false,
      "t": 205143.22916666637,
      "d": 166.66666666668607,
      "v": 10
    },
    {
      "midi": 69,
      "hit": false,
      "t": 205221.35416666637,
      "d": 75.52083333334303,
      "v": 26
    },
    {
      "midi": 67,
      "hit": false,
      "t": 205296.8749999997,
      "d": 78.125,
      "v": 48
    },
    {
      "midi": 69,
      "hit": false,
      "t": 205374.9999999997,
      "d": 83.33333333331393,
      "v": 37
    },
    {
      "midi": 65,
      "hit": false,
      "t": 205382.8124999997,
      "d": 236.97916666665697,
      "v": 20
    },
    {
      "midi": 62,
      "hit": false,
      "t": 205416.66666666637,
      "d": 247.39583333334303,
      "v": 23
    },
    {
      "midi": 67,
      "hit": false,
      "t": 205473.95833333302,
      "d": 72.91666666668607,
      "v": 40
    },
    {
      "midi": 69,
      "hit": false,
      "t": 205541.66666666637,
      "d": 83.33333333334303,
      "v": 41
    },
    {
      "midi": 67,
      "hit": false,
      "t": 205640.6249999997,
      "d": 75.52083333334303,
      "v": 36
    },
    {
      "midi": 58,
      "hit": false,
      "t": 205645.83333333305,
      "d": 302.08333333331393,
      "v": 20
    },
    {
      "midi": 57,
      "hit": false,
      "t": 205700.52083333305,
      "d": 140.625,
      "v": 21
    },
    {
      "midi": 69,
      "hit": false,
      "t": 205708.33333333305,
      "d": 72.91666666665697,
      "v": 38
    },
    {
      "midi": 67,
      "hit": false,
      "t": 205812.4999999997,
      "d": 67.70833333334303,
      "v": 37
    },
    {
      "midi": 69,
      "hit": false,
      "t": 205859.3749999997,
      "d": 70.3125,
      "v": 42
    },
    {
      "midi": 64,
      "hit": false,
      "t": 205981.77083333302,
      "d": 169.27083333334303,
      "v": 28
    },
    {
      "midi": 67,
      "hit": false,
      "t": 205989.58333333302,
      "d": 229.16666666665697,
      "v": 15
    },
    {
      "midi": 60,
      "hit": false,
      "t": 205994.79166666637,
      "d": 242.1874999999709,
      "v": 20
    },
    {
      "midi": 69,
      "hit": false,
      "t": 206023.4374999997,
      "d": 78.125,
      "v": 41
    },
    {
      "midi": 69,
      "hit": false,
      "t": 206184.89583333302,
      "d": 75.52083333331393,
      "v": 40
    },
    {
      "midi": 58,
      "hit": false,
      "t": 206239.583333333,
      "d": 239.58333333331393,
      "v": 19
    },
    {
      "midi": 67,
      "hit": false,
      "t": 206278.645833333,
      "d": 91.14583333334303,
      "v": 5
    },
    {
      "midi": 57,
      "hit": false,
      "t": 206304.68749999965,
      "d": 96.35416666668607,
      "v": 18
    },
    {
      "midi": 69,
      "hit": false,
      "t": 206341.145833333,
      "d": 70.3125,
      "v": 44
    },
    {
      "midi": 67,
      "hit": false,
      "t": 206427.083333333,
      "d": 101.5624999999709,
      "v": 13
    },
    {
      "midi": 69,
      "hit": false,
      "t": 206510.4166666663,
      "d": 101.5625,
      "v": 29
    },
    {
      "midi": 65,
      "hit": false,
      "t": 206604.1666666663,
      "d": 72.91666666668607,
      "v": 14
    },
    {
      "midi": 67,
      "hit": false,
      "t": 206656.24999999965,
      "d": 59.895833333343035,
      "v": 47
    },
    {
      "midi": 81,
      "hit": false,
      "t": 207052.083333333,
      "d": 434.89583333331393,
      "v": 60
    },
    {
      "midi": 58,
      "hit": false,
      "t": 207062.49999999965,
      "d": 236.97916666668607,
      "v": 41
    },
    {
      "midi": 69,
      "hit": false,
      "t": 207062.49999999965,
      "d": 406.25,
      "v": 33
    },
    {
      "midi": 43,
      "hit": false,
      "t": 207114.583333333,
      "d": 252.60416666668607,
      "v": 15
    },
    {
      "midi": 76,
      "hit": false,
      "t": 207416.66666666634,
      "d": 320.3124999999709,
      "v": 16
    },
    {
      "midi": 74,
      "hit": false,
      "t": 207442.708333333,
      "d": 132.8124999999709,
      "v": 25
    },
    {
      "midi": 81,
      "hit": false,
      "t": 207723.95833333296,
      "d": 283.85416666668607,
      "v": 76
    },
    {
      "midi": 69,
      "hit": false,
      "t": 207736.9791666663,
      "d": 286.45833333334303,
      "v": 38
    },
    {
      "midi": 50,
      "hit": false,
      "t": 207749.99999999965,
      "d": 184.89583333334303,
      "v": 23
    },
    {
      "midi": 36,
      "hit": false,
      "t": 207763.020833333,
      "d": 80.72916666665697,
      "v": 18
    },
    {
      "midi": 72,
      "hit": false,
      "t": 208041.6666666663,
      "d": 132.8125,
      "v": 25
    },
    {
      "midi": 76,
      "hit": false,
      "t": 208065.1041666663,
      "d": 195.3125,
      "v": 13
    },
    {
      "midi": 81,
      "hit": false,
      "t": 208322.9166666663,
      "d": 718.7499999999709,
      "v": 70
    },
    {
      "midi": 58,
      "hit": false,
      "t": 208335.93749999962,
      "d": 203.125,
      "v": 35
    },
    {
      "midi": 69,
      "hit": false,
      "t": 208335.93749999962,
      "d": 744.791666666657,
      "v": 37
    },
    {
      "midi": 43,
      "hit": false,
      "t": 208367.18749999962,
      "d": 226.5625,
      "v": 16
    },
    {
      "midi": 74,
      "hit": false,
      "t": 208661.45833333296,
      "d": 78.125,
      "v": 24
    },
    {
      "midi": 76,
      "hit": false,
      "t": 208661.45833333296,
      "d": 151.04166666665697,
      "v": 21
    },
    {
      "midi": 50,
      "hit": false,
      "t": 208947.91666666628,
      "d": 130.20833333334303,
      "v": 30
    },
    {
      "midi": 36,
      "hit": false,
      "t": 208958.33333333294,
      "d": 70.3125,
      "v": 20
    },
    {
      "midi": 79,
      "hit": false,
      "t": 209218.74999999962,
      "d": 174.47916666668607,
      "v": 73
    },
    {
      "midi": 67,
      "hit": false,
      "t": 209239.58333333296,
      "d": 117.1875,
      "v": 32
    },
    {
      "midi": 69,
      "hit": false,
      "t": 209513.020833333,
      "d": 169.27083333334303,
      "v": 57
    },
    {
      "midi": 81,
      "hit": false,
      "t": 209518.22916666634,
      "d": 179.6875,
      "v": 75
    },
    {
      "midi": 58,
      "hit": false,
      "t": 209531.24999999968,
      "d": 171.875,
      "v": 37
    },
    {
      "midi": 43,
      "hit": false,
      "t": 209554.68749999968,
      "d": 195.3125,
      "v": 20
    },
    {
      "midi": 79,
      "hit": false,
      "t": 209799.47916666634,
      "d": 169.27083333334303,
      "v": 82
    },
    {
      "midi": 67,
      "hit": false,
      "t": 209812.49999999968,
      "d": 109.375,
      "v": 48
    },
    {
      "midi": 81,
      "hit": false,
      "t": 210088.54166666634,
      "d": 125,
      "v": 85
    },
    {
      "midi": 69,
      "hit": false,
      "t": 210101.56249999968,
      "d": 65.10416666665697,
      "v": 52
    },
    {
      "midi": 36,
      "hit": false,
      "t": 210111.97916666634,
      "d": 57.291666666656965,
      "v": 41
    },
    {
      "midi": 50,
      "hit": false,
      "t": 210127.60416666634,
      "d": 104.16666666665697,
      "v": 16
    },
    {
      "midi": 84,
      "hit": false,
      "t": 210385.41666666634,
      "d": 101.5625,
      "v": 83
    },
    {
      "midi": 72,
      "hit": false,
      "t": 210398.43749999968,
      "d": 80.72916666665697,
      "v": 50
    },
    {
      "midi": 81,
      "hit": false,
      "t": 210677.083333333,
      "d": 687.5,
      "v": 73
    },
    {
      "midi": 69,
      "hit": false,
      "t": 210687.49999999965,
      "d": 692.708333333343,
      "v": 36
    },
    {
      "midi": 58,
      "hit": false,
      "t": 210716.145833333,
      "d": 161.45833333334303,
      "v": 29
    },
    {
      "midi": 43,
      "hit": false,
      "t": 210721.35416666634,
      "d": 226.5625,
      "v": 24
    },
    {
      "midi": 76,
      "hit": false,
      "t": 210973.958333333,
      "d": 242.1875,
      "v": 20
    },
    {
      "midi": 74,
      "hit": false,
      "t": 210989.583333333,
      "d": 72.91666666665697,
      "v": 27
    },
    {
      "midi": 50,
      "hit": false,
      "t": 211268.22916666634,
      "d": 119.79166666665697,
      "v": 34
    },
    {
      "midi": 36,
      "hit": false,
      "t": 211276.04166666634,
      "d": 70.3125,
      "v": 26
    },
    {
      "midi": 79,
      "hit": false,
      "t": 211557.29166666634,
      "d": 161.45833333331393,
      "v": 74
    },
    {
      "midi": 67,
      "hit": false,
      "t": 211572.91666666634,
      "d": 88.54166666665697,
      "v": 36
    },
    {
      "midi": 81,
      "hit": false,
      "t": 211830.7291666663,
      "d": 325.52083333334303,
      "v": 80
    },
    {
      "midi": 69,
      "hit": false,
      "t": 211835.93749999965,
      "d": 67.70833333331393,
      "v": 55
    },
    {
      "midi": 58,
      "hit": false,
      "t": 211838.5416666663,
      "d": 70.3125,
      "v": 29
    },
    {
      "midi": 43,
      "hit": false,
      "t": 211864.58333333296,
      "d": 132.8125,
      "v": 14
    },
    {
      "midi": 79,
      "hit": false,
      "t": 212127.6041666663,
      "d": 338.54166666668607,
      "v": 81
    },
    {
      "midi": 50,
      "hit": false,
      "t": 212161.458333333,
      "d": 96.35416666665697,
      "v": 32
    },
    {
      "midi": 81,
      "hit": false,
      "t": 212411.458333333,
      "d": 296.8749999999709,
      "v": 79
    },
    {
      "midi": 36,
      "hit": false,
      "t": 212442.708333333,
      "d": 127.60416666665697,
      "v": 29
    },
    {
      "midi": 43,
      "hit": false,
      "t": 212442.708333333,
      "d": 171.8749999999709,
      "v": 32
    },
    {
      "midi": 52,
      "hit": false,
      "t": 212692.70833333296,
      "d": 75.52083333334303,
      "v": 47
    },
    {
      "midi": 86,
      "hit": false,
      "t": 212700.52083333296,
      "d": 70.3125,
      "v": 68
    },
    {
      "midi": 84,
      "hit": false,
      "t": 212898.43749999962,
      "d": 57.291666666656965,
      "v": 44
    },
    {
      "midi": 86,
      "hit": false,
      "t": 212960.93749999962,
      "d": 125,
      "v": 61
    },
    {
      "midi": 84,
      "hit": false,
      "t": 213028.64583333296,
      "d": 184.89583333331393,
      "v": 66
    },
    {
      "midi": 43,
      "hit": false,
      "t": 213041.66666666628,
      "d": 333.33333333331393,
      "v": 12
    },
    {
      "midi": 58,
      "hit": false,
      "t": 213072.91666666628,
      "d": 93.75,
      "v": 38
    },
    {
      "midi": 82,
      "hit": false,
      "t": 213169.27083333294,
      "d": 156.25,
      "v": 51
    },
    {
      "midi": 81,
      "hit": false,
      "t": 213317.70833333294,
      "d": 98.95833333334303,
      "v": 55
    },
    {
      "midi": 50,
      "hit": false,
      "t": 213325.52083333294,
      "d": 54.6875,
      "v": 53
    },
    {
      "midi": 79,
      "hit": false,
      "t": 213453.12499999962,
      "d": 177.08333333334303,
      "v": 68
    },
    {
      "midi": 81,
      "hit": false,
      "t": 213614.58333333296,
      "d": 312.4999999999709,
      "v": 66
    },
    {
      "midi": 36,
      "hit": false,
      "t": 213627.6041666663,
      "d": 161.45833333331393,
      "v": 41
    },
    {
      "midi": 43,
      "hit": false,
      "t": 213630.20833333296,
      "d": 192.70833333331393,
      "v": 36
    },
    {
      "midi": 79,
      "hit": false,
      "t": 213908.85416666628,
      "d": 390.6249999999709,
      "v": 74
    },
    {
      "midi": 52,
      "hit": false,
      "t": 213916.66666666628,
      "d": 62.5,
      "v": 54
    },
    {
      "midi": 81,
      "hit": false,
      "t": 214229.16666666628,
      "d": 315.10416666665697,
      "v": 68
    },
    {
      "midi": 58,
      "hit": false,
      "t": 214239.58333333294,
      "d": 127.60416666665697,
      "v": 41
    },
    {
      "midi": 43,
      "hit": false,
      "t": 214249.9999999996,
      "d": 333.33333333334303,
      "v": 9
    },
    {
      "midi": 79,
      "hit": false,
      "t": 214515.6249999996,
      "d": 317.70833333334303,
      "v": 72
    },
    {
      "midi": 50,
      "hit": false,
      "t": 214539.0624999996,
      "d": 75.52083333334303,
      "v": 37
    },
    {
      "midi": 81,
      "hit": false,
      "t": 214791.66666666628,
      "d": 265.6249999999709,
      "v": 66
    },
    {
      "midi": 36,
      "hit": false,
      "t": 214830.72916666628,
      "d": 130.20833333331393,
      "v": 38
    },
    {
      "midi": 43,
      "hit": false,
      "t": 214835.9374999996,
      "d": 151.04166666665697,
      "v": 39
    },
    {
      "midi": 86,
      "hit": false,
      "t": 215057.29166666625,
      "d": 70.3125,
      "v": 57
    },
    {
      "midi": 52,
      "hit": false,
      "t": 215080.72916666625,
      "d": 62.5,
      "v": 53
    },
    {
      "midi": 84,
      "hit": false,
      "t": 215229.16666666625,
      "d": 52.083333333343035,
      "v": 68
    },
    {
      "midi": 86,
      "hit": false,
      "t": 215302.08333333294,
      "d": 135.41666666665697,
      "v": 53
    },
    {
      "midi": 43,
      "hit": false,
      "t": 215304.6874999996,
      "d": 403.64583333334303,
      "v": 57
    },
    {
      "midi": 84,
      "hit": false,
      "t": 215374.9999999996,
      "d": 195.3125,
      "v": 49
    },
    {
      "midi": 58,
      "hit": false,
      "t": 215440.10416666625,
      "d": 67.70833333334303,
      "v": 40
    },
    {
      "midi": 82,
      "hit": false,
      "t": 215520.83333333294,
      "d": 166.66666666665697,
      "v": 51
    },
    {
      "midi": 81,
      "hit": false,
      "t": 215674.47916666625,
      "d": 83.33333333334303,
      "v": 59
    },
    {
      "midi": 50,
      "hit": false,
      "t": 215682.29166666625,
      "d": 57.29166666668607,
      "v": 50
    },
    {
      "midi": 79,
      "hit": false,
      "t": 215812.4999999996,
      "d": 187.5,
      "v": 63
    },
    {
      "midi": 36,
      "hit": false,
      "t": 215989.58333333294,
      "d": 127.60416666665697,
      "v": 36
    },
    {
      "midi": 81,
      "hit": false,
      "t": 215997.39583333294,
      "d": 197.91666666665697,
      "v": 58
    },
    {
      "midi": 43,
      "hit": false,
      "t": 216007.8124999996,
      "d": 179.6875,
      "v": 29
    },
    {
      "midi": 52,
      "hit": false,
      "t": 216294.27083333294,
      "d": 49.479166666656965,
      "v": 43
    },
    {
      "midi": 55,
      "hit": false,
      "t": 216716.14583333294,
      "d": 406.2500000000291,
      "v": 86
    },
    {
      "midi": 58,
      "hit": false,
      "t": 216729.16666666628,
      "d": 250.0000000000291,
      "v": 29
    },
    {
      "midi": 57,
      "hit": false,
      "t": 216742.18749999962,
      "d": 184.89583333334303,
      "v": 28
    },
    {
      "midi": 64,
      "hit": false,
      "t": 217041.6666666663,
      "d": 239.58333333331393,
      "v": 26
    },
    {
      "midi": 60,
      "hit": false,
      "t": 217083.33333333296,
      "d": 197.91666666665697,
      "v": 19
    },
    {
      "midi": 55,
      "hit": false,
      "t": 217322.91666666628,
      "d": 320.3125,
      "v": 86
    },
    {
      "midi": 58,
      "hit": false,
      "t": 217333.33333333294,
      "d": 221.35416666665697,
      "v": 20
    },
    {
      "midi": 57,
      "hit": false,
      "t": 217377.60416666625,
      "d": 153.64583333334303,
      "v": 29
    },
    {
      "midi": 65,
      "hit": false,
      "t": 217624.9999999996,
      "d": 210.9375000000291,
      "v": 27
    },
    {
      "midi": 62,
      "hit": false,
      "t": 217638.02083333294,
      "d": 182.29166666668607,
      "v": 27
    },
    {
      "midi": 55,
      "hit": false,
      "t": 217882.81249999962,
      "d": 320.3125,
      "v": 77
    },
    {
      "midi": 57,
      "hit": false,
      "t": 217919.27083333296,
      "d": 197.91666666665697,
      "v": 21
    },
    {
      "midi": 58,
      "hit": false,
      "t": 217937.49999999962,
      "d": 268.22916666665697,
      "v": 17
    },
    {
      "midi": 53,
      "hit": false,
      "t": 218164.06249999962,
      "d": 315.10416666668607,
      "v": 98
    },
    {
      "midi": 64,
      "hit": false,
      "t": 218184.89583333296,
      "d": 226.5625,
      "v": 38
    },
    {
      "midi": 60,
      "hit": false,
      "t": 218210.93749999962,
      "d": 252.60416666668607,
      "v": 33
    },
    {
      "midi": 52,
      "hit": false,
      "t": 218458.33333333296,
      "d": 291.66666666668607,
      "v": 89
    },
    {
      "midi": 58,
      "hit": false,
      "t": 218484.37499999965,
      "d": 375,
      "v": 26
    },
    {
      "midi": 57,
      "hit": false,
      "t": 218507.81249999965,
      "d": 286.45833333334303,
      "v": 32
    },
    {
      "midi": 50,
      "hit": false,
      "t": 218729.1666666663,
      "d": 377.60416666668607,
      "v": 78
    },
    {
      "midi": 65,
      "hit": false,
      "t": 218752.6041666663,
      "d": 315.10416666668607,
      "v": 32
    },
    {
      "midi": 62,
      "hit": false,
      "t": 218781.24999999965,
      "d": 309.89583333334303,
      "v": 32
    },
    {
      "midi": 48,
      "hit": false,
      "t": 219028.645833333,
      "d": 664.0625,
      "v": 77
    },
    {
      "midi": 58,
      "hit": false,
      "t": 219036.458333333,
      "d": 369.79166666665697,
      "v": 29
    },
    {
      "midi": 57,
      "hit": false,
      "t": 219091.145833333,
      "d": 255.20833333331393,
      "v": 36
    },
    {
      "midi": 64,
      "hit": false,
      "t": 219343.74999999965,
      "d": 263.02083333334303,
      "v": 39
    },
    {
      "midi": 60,
      "hit": false,
      "t": 219369.7916666663,
      "d": 281.2500000000291,
      "v": 15
    },
    {
      "midi": 55,
      "hit": false,
      "t": 219630.208333333,
      "d": 697.9166666666861,
      "v": 74
    },
    {
      "midi": 58,
      "hit": false,
      "t": 219661.458333333,
      "d": 312.5000000000291,
      "v": 31
    },
    {
      "midi": 57,
      "hit": false,
      "t": 219695.31249999965,
      "d": 192.70833333334303,
      "v": 23
    },
    {
      "midi": 65,
      "hit": false,
      "t": 219924.47916666634,
      "d": 309.89583333334303,
      "v": 31
    },
    {
      "midi": 62,
      "hit": false,
      "t": 219945.31249999968,
      "d": 312.5,
      "v": 29
    },
    {
      "midi": 48,
      "hit": false,
      "t": 220216.14583333302,
      "d": 1101.5625,
      "v": 53
    },
    {
      "midi": 58,
      "hit": false,
      "t": 220239.58333333302,
      "d": 343.75,
      "v": 26
    },
    {
      "midi": 57,
      "hit": false,
      "t": 220263.02083333302,
      "d": 164.0625,
      "v": 26
    },
    {
      "midi": 64,
      "hit": false,
      "t": 220520.83333333302,
      "d": 260.41666666665697,
      "v": 34
    },
    {
      "midi": 60,
      "hit": false,
      "t": 220562.49999999968,
      "d": 247.39583333334303,
      "v": 24
    },
    {
      "midi": 58,
      "hit": false,
      "t": 220817.70833333302,
      "d": 304.6875,
      "v": 24
    },
    {
      "midi": 57,
      "hit": false,
      "t": 220882.81249999968,
      "d": 106.77083333334303,
      "v": 13
    },
    {
      "midi": 65,
      "hit": false,
      "t": 221104.16666666637,
      "d": 213.54166666665697,
      "v": 23
    },
    {
      "midi": 62,
      "hit": false,
      "t": 221140.62499999968,
      "d": 229.16666666668607,
      "v": 18
    },
    {
      "midi": 58,
      "hit": false,
      "t": 221388.02083333302,
      "d": 302.08333333334303,
      "v": 22
    },
    {
      "midi": 57,
      "hit": false,
      "t": 221421.87499999968,
      "d": 216.14583333334303,
      "v": 24
    },
    {
      "midi": 64,
      "hit": false,
      "t": 221682.29166666637,
      "d": 255.20833333334303,
      "v": 30
    },
    {
      "midi": 60,
      "hit": false,
      "t": 221695.3124999997,
      "d": 281.25,
      "v": 19
    },
    {
      "midi": 58,
      "hit": false,
      "t": 221976.5624999997,
      "d": 289.0625,
      "v": 26
    },
    {
      "midi": 67,
      "hit": false,
      "t": 221981.77083333305,
      "d": 213.54166666668607,
      "v": 41
    },
    {
      "midi": 57,
      "hit": false,
      "t": 222026.0416666664,
      "d": 218.75,
      "v": 22
    },
    {
      "midi": 69,
      "hit": false,
      "t": 222182.2916666664,
      "d": 72.91666666665697,
      "v": 41
    },
    {
      "midi": 65,
      "hit": false,
      "t": 222257.8124999997,
      "d": 216.14583333337214,
      "v": 24
    },
    {
      "midi": 67,
      "hit": false,
      "t": 222270.83333333305,
      "d": 72.91666666668607,
      "v": 49
    },
    {
      "midi": 62,
      "hit": false,
      "t": 222278.64583333305,
      "d": 234.3750000000291,
      "v": 20
    },
    {
      "midi": 69,
      "hit": false,
      "t": 222338.5416666664,
      "d": 72.91666666668607,
      "v": 40
    },
    {
      "midi": 67,
      "hit": false,
      "t": 222406.24999999974,
      "d": 70.3125,
      "v": 49
    },
    {
      "midi": 69,
      "hit": false,
      "t": 222484.37499999974,
      "d": 70.3125,
      "v": 51
    },
    {
      "midi": 58,
      "hit": false,
      "t": 222505.20833333308,
      "d": 317.70833333331393,
      "v": 27
    },
    {
      "midi": 57,
      "hit": false,
      "t": 222552.08333333308,
      "d": 166.66666666665697,
      "v": 25
    },
    {
      "midi": 67,
      "hit": false,
      "t": 222578.12499999974,
      "d": 78.125,
      "v": 30
    },
    {
      "midi": 69,
      "hit": false,
      "t": 222627.6041666664,
      "d": 80.72916666668607,
      "v": 45
    },
    {
      "midi": 67,
      "hit": false,
      "t": 222729.1666666664,
      "d": 190.10416666665697,
      "v": 27
    },
    {
      "midi": 69,
      "hit": false,
      "t": 222791.6666666664,
      "d": 70.3125,
      "v": 39
    },
    {
      "midi": 64,
      "hit": false,
      "t": 222804.68749999974,
      "d": 216.14583333331393,
      "v": 29
    },
    {
      "midi": 60,
      "hit": false,
      "t": 222822.9166666664,
      "d": 281.25,
      "v": 27
    },
    {
      "midi": 69,
      "hit": false,
      "t": 222895.83333333305,
      "d": 70.3125,
      "v": 39
    },
    {
      "midi": 67,
      "hit": false,
      "t": 222994.7916666664,
      "d": 65.10416666665697,
      "v": 55
    },
    {
      "midi": 69,
      "hit": false,
      "t": 223059.89583333305,
      "d": 164.0625,
      "v": 2
    },
    {
      "midi": 58,
      "hit": false,
      "t": 223091.14583333305,
      "d": 273.4374999999709,
      "v": 22
    },
    {
      "midi": 57,
      "hit": false,
      "t": 223153.64583333305,
      "d": 109.375,
      "v": 16
    },
    {
      "midi": 67,
      "hit": false,
      "t": 223164.0624999997,
      "d": 132.8125,
      "v": 27
    },
    {
      "midi": 65,
      "hit": false,
      "t": 223369.79166666637,
      "d": 203.125,
      "v": 20
    },
    {
      "midi": 62,
      "hit": false,
      "t": 223380.20833333302,
      "d": 216.14583333334303,
      "v": 25
    },
    {
      "midi": 58,
      "hit": false,
      "t": 223635.41666666637,
      "d": 309.89583333334303,
      "v": 25
    },
    {
      "midi": 57,
      "hit": false,
      "t": 223684.89583333302,
      "d": 213.54166666668607,
      "v": 27
    },
    {
      "midi": 64,
      "hit": false,
      "t": 223942.70833333305,
      "d": 231.77083333331393,
      "v": 27
    },
    {
      "midi": 60,
      "hit": false,
      "t": 223960.9374999997,
      "d": 231.77083333331393,
      "v": 13
    },
    {
      "midi": 58,
      "hit": false,
      "t": 224218.74999999968,
      "d": 289.0625,
      "v": 17
    },
    {
      "midi": 67,
      "hit": false,
      "t": 224223.95833333302,
      "d": 67.70833333331393,
      "v": 36
    },
    {
      "midi": 57,
      "hit": false,
      "t": 224265.62499999968,
      "d": 109.375,
      "v": 26
    },
    {
      "midi": 69,
      "hit": false,
      "t": 224291.66666666634,
      "d": 78.125,
      "v": 34
    },
    {
      "midi": 67,
      "hit": false,
      "t": 224369.79166666634,
      "d": 67.70833333334303,
      "v": 42
    },
    {
      "midi": 69,
      "hit": false,
      "t": 224453.12499999968,
      "d": 75.52083333331393,
      "v": 37
    },
    {
      "midi": 65,
      "hit": false,
      "t": 224505.20833333302,
      "d": 213.54166666662786,
      "v": 24
    },
    {
      "midi": 67,
      "hit": false,
      "t": 224510.41666666634,
      "d": 70.3124999999709,
      "v": 55
    },
    {
      "midi": 62,
      "hit": false,
      "t": 224539.06249999965,
      "d": 231.77083333331393,
      "v": 23
    },
    {
      "midi": 69,
      "hit": false,
      "t": 224604.1666666663,
      "d": 109.375,
      "v": 22
    },
    {
      "midi": 67,
      "hit": false,
      "t": 224669.27083333296,
      "d": 70.3125000000291,
      "v": 45
    },
    {
      "midi": 69,
      "hit": false,
      "t": 224749.99999999965,
      "d": 70.3124999999709,
      "v": 39
    },
    {
      "midi": 58,
      "hit": false,
      "t": 224770.83333333296,
      "d": 302.08333333331393,
      "v": 30
    },
    {
      "midi": 57,
      "hit": false,
      "t": 224812.49999999962,
      "d": 122.39583333334303,
      "v": 27
    },
    {
      "midi": 67,
      "hit": false,
      "t": 224828.12499999962,
      "d": 65.10416666665697,
      "v": 43
    },
    {
      "midi": 69,
      "hit": false,
      "t": 224906.24999999962,
      "d": 70.3125,
      "v": 39
    },
    {
      "midi": 67,
      "hit": false,
      "t": 224986.97916666628,
      "d": 72.91666666665697,
      "v": 29
    },
    {
      "midi": 64,
      "hit": false,
      "t": 225065.10416666628,
      "d": 221.35416666665697,
      "v": 28
    },
    {
      "midi": 69,
      "hit": false,
      "t": 225067.70833333294,
      "d": 72.91666666665697,
      "v": 35
    },
    {
      "midi": 60,
      "hit": false,
      "t": 225091.14583333294,
      "d": 273.4375,
      "v": 25
    },
    {
      "midi": 67,
      "hit": false,
      "t": 225138.02083333294,
      "d": 62.5,
      "v": 46
    },
    {
      "midi": 69,
      "hit": false,
      "t": 225231.77083333294,
      "d": 213.54166666668607,
      "v": 26
    },
    {
      "midi": 67,
      "hit": false,
      "t": 225281.2499999996,
      "d": 72.91666666668607,
      "v": 47
    },
    {
      "midi": 58,
      "hit": false,
      "t": 225361.97916666628,
      "d": 380.20833333334303,
      "v": 22
    },
    {
      "midi": 57,
      "hit": false,
      "t": 225416.66666666628,
      "d": 153.64583333334303,
      "v": 20
    },
    {
      "midi": 69,
      "hit": false,
      "t": 225499.99999999962,
      "d": 127.60416666668607,
      "v": 17
    },
    {
      "midi": 67,
      "hit": false,
      "t": 225606.77083333296,
      "d": 80.72916666668607,
      "v": 5
    },
    {
      "midi": 65,
      "hit": false,
      "t": 225721.3541666663,
      "d": 65.10416666665697,
      "v": 21
    },
    {
      "midi": 62,
      "hit": false,
      "t": 225739.58333333296,
      "d": 67.70833333334303,
      "v": 27
    },
    {
      "midi": 60,
      "hit": false,
      "t": 226177.08333333296,
      "d": 312.4999999999709,
      "v": 35
    },
    {
      "midi": 58,
      "hit": false,
      "t": 226468.74999999962,
      "d": 263.02083333331393,
      "v": 21
    },
    {
      "midi": 62,
      "hit": false,
      "t": 226479.16666666628,
      "d": 273.4374999999709,
      "v": 28
    },
    {
      "midi": 64,
      "hit": false,
      "t": 226749.9999999996,
      "d": 296.8749999999709,
      "v": 46
    },
    {
      "midi": 57,
      "hit": false,
      "t": 226773.4374999996,
      "d": 213.54166666665697,
      "v": 17
    },
    {
      "midi": 65,
      "hit": false,
      "t": 227028.6458333329,
      "d": 330.72916666662786,
      "v": 40
    },
    {
      "midi": 55,
      "hit": false,
      "t": 227049.47916666622,
      "d": 239.58333333331393,
      "v": 28
    },
    {
      "midi": 67,
      "hit": false,
      "t": 227322.9166666662,
      "d": 356.77083333337214,
      "v": 41
    },
    {
      "midi": 53,
      "hit": false,
      "t": 227328.12499999953,
      "d": 255.20833333334303,
      "v": 44
    },
    {
      "midi": 69,
      "hit": false,
      "t": 227601.56249999953,
      "d": 315.10416666668607,
      "v": 47
    },
    {
      "midi": 52,
      "hit": false,
      "t": 227614.58333333288,
      "d": 231.77083333334303,
      "v": 37
    },
    {
      "midi": 70,
      "hit": false,
      "t": 227861.97916666622,
      "d": 296.875,
      "v": 54
    },
    {
      "midi": 50,
      "hit": false,
      "t": 227869.79166666622,
      "d": 234.375,
      "v": 45
    },
    {
      "midi": 48,
      "hit": false,
      "t": 228135.41666666622,
      "d": 291.66666666665697,
      "v": 45
    },
    {
      "midi": 72,
      "hit": false,
      "t": 228145.83333333288,
      "d": 315.10416666665697,
      "v": 61
    },
    {
      "midi": 74,
      "hit": false,
      "t": 228416.66666666622,
      "d": 302.08333333331393,
      "v": 80
    },
    {
      "midi": 46,
      "hit": false,
      "t": 228424.47916666622,
      "d": 257.8124999999709,
      "v": 59
    },
    {
      "midi": 45,
      "hit": false,
      "t": 228679.68749999953,
      "d": 164.0625,
      "v": 60
    },
    {
      "midi": 76,
      "hit": false,
      "t": 228697.9166666662,
      "d": 302.08333333334303,
      "v": 83
    },
    {
      "midi": 41,
      "hit": false,
      "t": 228911.45833333288,
      "d": 104.16666666665697,
      "v": 71
    },
    {
      "midi": 77,
      "hit": false,
      "t": 228999.99999999953,
      "d": 419.27083333334303,
      "v": 97
    },
    {
      "midi": 65,
      "hit": false,
      "t": 229013.02083333288,
      "d": 330.72916666665697,
      "v": 56
    },
    {
      "midi": 57,
      "hit": false,
      "t": 229031.24999999953,
      "d": 39.0625,
      "v": 84
    },
    {
      "midi": 72,
      "hit": false,
      "t": 229273.43749999953,
      "d": 252.60416666665697,
      "v": 62
    },
    {
      "midi": 69,
      "hit": false,
      "t": 229281.24999999953,
      "d": 164.0625,
      "v": 40
    },
    {
      "midi": 46,
      "hit": false,
      "t": 229450.52083333288,
      "d": 57.291666666656965,
      "v": 49
    },
    {
      "midi": 53,
      "hit": false,
      "t": 229489.58333333288,
      "d": 41.666666666656965,
      "v": 74
    },
    {
      "midi": 77,
      "hit": false,
      "t": 229518.2291666662,
      "d": 289.0625000000291,
      "v": 91
    },
    {
      "midi": 65,
      "hit": false,
      "t": 229544.27083333288,
      "d": 156.25,
      "v": 71
    },
    {
      "midi": 62,
      "hit": false,
      "t": 229546.87499999953,
      "d": 36.458333333343035,
      "v": 91
    },
    {
      "midi": 70,
      "hit": false,
      "t": 229776.04166666622,
      "d": 52.083333333343035,
      "v": 44
    },
    {
      "midi": 74,
      "hit": false,
      "t": 229786.45833333288,
      "d": 41.66666666668607,
      "v": 74
    },
    {
      "midi": 77,
      "hit": false,
      "t": 229921.87499999956,
      "d": 156.25,
      "v": 82
    },
    {
      "midi": 43,
      "hit": false,
      "t": 229940.10416666622,
      "d": 49.479166666656965,
      "v": 64
    },
    {
      "midi": 50,
      "hit": false,
      "t": 230010.41666666622,
      "d": 54.6875,
      "v": 50
    },
    {
      "midi": 79,
      "hit": false,
      "t": 230041.66666666622,
      "d": 208.33333333334303,
      "v": 102
    },
    {
      "midi": 58,
      "hit": false,
      "t": 230052.08333333288,
      "d": 70.3125000000291,
      "v": 72
    },
    {
      "midi": 77,
      "hit": false,
      "t": 230171.87499999956,
      "d": 174.47916666665697,
      "v": 73
    },
    {
      "midi": 58,
      "hit": false,
      "t": 230239.5833333329,
      "d": 93.7499999999709,
      "v": 15
    },
    {
      "midi": 76,
      "hit": false,
      "t": 230291.66666666622,
      "d": 164.0625,
      "v": 81
    },
    {
      "midi": 74,
      "hit": false,
      "t": 230419.27083333288,
      "d": 101.5625,
      "v": 89
    },
    {
      "midi": 48,
      "hit": false,
      "t": 230520.83333333288,
      "d": 1114.583333333314,
      "v": 63
    },
    {
      "midi": 72,
      "hit": false,
      "t": 230526.04166666622,
      "d": 46.875,
      "v": 82
    },
    {
      "midi": 70,
      "hit": false,
      "t": 230645.83333333288,
      "d": 72.91666666665697,
      "v": 39
    },
    {
      "midi": 72,
      "hit": false,
      "t": 230802.08333333288,
      "d": 148.4374999999709,
      "v": 78
    },
    {
      "midi": 69,
      "hit": false,
      "t": 230802.08333333288,
      "d": 195.3124999999709,
      "v": 47
    },
    {
      "midi": 64,
      "hit": false,
      "t": 230802.08333333288,
      "d": 322.91666666662786,
      "v": 74
    },
    {
      "midi": 57,
      "hit": false,
      "t": 230812.49999999953,
      "d": 257.8124999999709,
      "v": 55
    },
    {
      "midi": 60,
      "hit": false,
      "t": 230812.49999999953,
      "d": 304.6874999999709,
      "v": 67
    },
    {
      "midi": 76,
      "hit": false,
      "t": 230916.6666666662,
      "d": 200.52083333331393,
      "v": 77
    },
    {
      "midi": 72,
      "hit": false,
      "t": 231072.91666666616,
      "d": 104.16666666668607,
      "v": 86
    },
    {
      "midi": 72,
      "hit": false,
      "t": 231328.1249999995,
      "d": 148.4375,
      "v": 80
    },
    {
      "midi": 65,
      "hit": false,
      "t": 231335.9374999995,
      "d": 283.85416666668607,
      "v": 57
    },
    {
      "midi": 62,
      "hit": false,
      "t": 231341.14583333285,
      "d": 346.35416666668607,
      "v": 57
    },
    {
      "midi": 58,
      "hit": false,
      "t": 231343.7499999995,
      "d": 338.54166666668607,
      "v": 40
    },
    {
      "midi": 69,
      "hit": false,
      "t": 231348.95833333285,
      "d": 93.75,
      "v": 36
    },
    {
      "midi": 76,
      "hit": false,
      "t": 231458.33333333285,
      "d": 177.08333333334303,
      "v": 70
    },
    {
      "midi": 72,
      "hit": false,
      "t": 231591.14583333285,
      "d": 125.0000000000291,
      "v": 66
    },
    {
      "midi": 69,
      "hit": false,
      "t": 231846.35416666622,
      "d": 145.83333333334303,
      "v": 63
    },
    {
      "midi": 64,
      "hit": false,
      "t": 231861.97916666622,
      "d": 270.83333333337214,
      "v": 47
    },
    {
      "midi": 60,
      "hit": false,
      "t": 231874.99999999956,
      "d": 299.47916666668607,
      "v": 44
    },
    {
      "midi": 70,
      "hit": false,
      "t": 231973.9583333329,
      "d": 125,
      "v": 61
    },
    {
      "midi": 72,
      "hit": false,
      "t": 232104.16666666625,
      "d": 166.66666666668607,
      "v": 73
    },
    {
      "midi": 70,
      "hit": false,
      "t": 232218.7499999996,
      "d": 182.29166666668607,
      "v": 52
    },
    {
      "midi": 69,
      "hit": false,
      "t": 232348.95833333294,
      "d": 132.8125,
      "v": 62
    },
    {
      "midi": 67,
      "hit": false,
      "t": 232481.77083333294,
      "d": 80.72916666665697,
      "v": 61
    },
    {
      "midi": 65,
      "hit": false,
      "t": 232596.35416666625,
      "d": 49.479166666656965,
      "v": 75
    },
    {
      "midi": 72,
      "hit": false,
      "t": 232721.35416666625,
      "d": 122.39583333331393,
      "v": 89
    },
    {
      "midi": 74,
      "hit": false,
      "t": 232833.3333333329,
      "d": 158.85416666665697,
      "v": 88
    },
    {
      "midi": 76,
      "hit": false,
      "t": 232953.12499999956,
      "d": 125,
      "v": 79
    },
    {
      "midi": 77,
      "hit": false,
      "t": 233104.16666666622,
      "d": 322.91666666668607,
      "v": 100
    },
    {
      "midi": 41,
      "hit": false,
      "t": 233111.97916666622,
      "d": 46.875,
      "v": 52
    },
    {
      "midi": 57,
      "hit": false,
      "t": 233114.58333333288,
      "d": 72.91666666668607,
      "v": 58
    },
    {
      "midi": 65,
      "hit": false,
      "t": 233114.58333333288,
      "d": 244.79166666668607,
      "v": 74
    },
    {
      "midi": 72,
      "hit": false,
      "t": 233395.8333333329,
      "d": 117.1875,
      "v": 64
    },
    {
      "midi": 69,
      "hit": false,
      "t": 233406.24999999956,
      "d": 75.52083333334303,
      "v": 36
    },
    {
      "midi": 46,
      "hit": false,
      "t": 233549.47916666625,
      "d": 65.10416666665697,
      "v": 57
    },
    {
      "midi": 77,
      "hit": false,
      "t": 233632.81249999956,
      "d": 247.39583333334303,
      "v": 103
    },
    {
      "midi": 65,
      "hit": false,
      "t": 233645.8333333329,
      "d": 54.6875,
      "v": 81
    },
    {
      "midi": 62,
      "hit": false,
      "t": 233653.6458333329,
      "d": 54.6875,
      "v": 86
    },
    {
      "midi": 70,
      "hit": false,
      "t": 233872.3958333329,
      "d": 54.6875,
      "v": 48
    },
    {
      "midi": 74,
      "hit": false,
      "t": 233874.99999999956,
      "d": 41.66666666668607,
      "v": 72
    },
    {
      "midi": 77,
      "hit": false,
      "t": 234015.62499999956,
      "d": 145.83333333334303,
      "v": 89
    },
    {
      "midi": 43,
      "hit": false,
      "t": 234093.74999999956,
      "d": 218.7499999999709,
      "v": 60
    },
    {
      "midi": 79,
      "hit": false,
      "t": 234138.0208333329,
      "d": 200.52083333328483,
      "v": 101
    },
    {
      "midi": 58,
      "hit": false,
      "t": 234164.06249999956,
      "d": 257.8124999999418,
      "v": 57
    },
    {
      "midi": 77,
      "hit": false,
      "t": 234268.22916666622,
      "d": 158.85416666662786,
      "v": 70
    },
    {
      "midi": 76,
      "hit": false,
      "t": 234388.02083333285,
      "d": 151.04166666665697,
      "v": 73
    },
    {
      "midi": 74,
      "hit": false,
      "t": 234515.6249999995,
      "d": 117.1874999999709,
      "v": 73
    },
    {
      "midi": 72,
      "hit": false,
      "t": 234627.60416666616,
      "d": 41.666666666656965,
      "v": 78
    },
    {
      "midi": 48,
      "hit": false,
      "t": 234630.20833333282,
      "d": 1130.2083333332848,
      "v": 61
    },
    {
      "midi": 72,
      "hit": false,
      "t": 234906.24999999948,
      "d": 145.83333333334303,
      "v": 75
    },
    {
      "midi": 69,
      "hit": false,
      "t": 234911.45833333282,
      "d": 140.625,
      "v": 50
    },
    {
      "midi": 64,
      "hit": false,
      "t": 234916.66666666616,
      "d": 96.35416666665697,
      "v": 59
    },
    {
      "midi": 60,
      "hit": false,
      "t": 234919.27083333282,
      "d": 286.45833333331393,
      "v": 49
    },
    {
      "midi": 57,
      "hit": false,
      "t": 234921.87499999948,
      "d": 242.1875,
      "v": 47
    },
    {
      "midi": 76,
      "hit": false,
      "t": 235031.24999999948,
      "d": 195.3125,
      "v": 66
    },
    {
      "midi": 72,
      "hit": false,
      "t": 235187.49999999948,
      "d": 135.41666666665697,
      "v": 57
    },
    {
      "midi": 72,
      "hit": false,
      "t": 235447.91666666613,
      "d": 145.83333333331393,
      "v": 52
    },
    {
      "midi": 58,
      "hit": false,
      "t": 235455.72916666613,
      "d": 343.7499999999709,
      "v": 25
    },
    {
      "midi": 69,
      "hit": false,
      "t": 235458.3333333328,
      "d": 80.72916666665697,
      "v": 34
    },
    {
      "midi": 62,
      "hit": false,
      "t": 235458.3333333328,
      "d": 333.33333333331393,
      "v": 44
    },
    {
      "midi": 65,
      "hit": false,
      "t": 235468.74999999945,
      "d": 164.0625,
      "v": 31
    },
    {
      "midi": 76,
      "hit": false,
      "t": 235580.7291666661,
      "d": 140.625,
      "v": 58
    },
    {
      "midi": 72,
      "hit": false,
      "t": 235718.74999999945,
      "d": 135.41666666665697,
      "v": 59
    },
    {
      "midi": 69,
      "hit": false,
      "t": 235971.3541666661,
      "d": 161.45833333334303,
      "v": 57
    },
    {
      "midi": 64,
      "hit": false,
      "t": 235997.39583333276,
      "d": 190.10416666668607,
      "v": 37
    },
    {
      "midi": 60,
      "hit": false,
      "t": 236010.4166666661,
      "d": 244.79166666668607,
      "v": 35
    },
    {
      "midi": 70,
      "hit": false,
      "t": 236104.1666666661,
      "d": 135.41666666668607,
      "v": 54
    },
    {
      "midi": 72,
      "hit": false,
      "t": 236252.60416666613,
      "d": 132.8124999999709,
      "v": 62
    },
    {
      "midi": 70,
      "hit": false,
      "t": 236367.18749999945,
      "d": 158.85416666665697,
      "v": 52
    },
    {
      "midi": 69,
      "hit": false,
      "t": 236499.99999999945,
      "d": 153.64583333334303,
      "v": 57
    },
    {
      "midi": 67,
      "hit": false,
      "t": 236617.18749999945,
      "d": 44.270833333343035,
      "v": 75
    },
    {
      "midi": 60,
      "hit": false,
      "t": 236906.24999999945,
      "d": 434.89583333331393,
      "v": 89
    },
    {
      "midi": 48,
      "hit": false,
      "t": 236916.6666666661,
      "d": 395.83333333334303,
      "v": 68
    },
    {
      "midi": 41,
      "hit": false,
      "t": 236916.6666666661,
      "d": 406.25,
      "v": 41
    },
    {
      "midi": 29,
      "hit": false,
      "t": 236921.87499999945,
      "d": 390.625,
      "v": 39
    },
    {
      "midi": 57,
      "hit": false,
      "t": 237231.7708333328,
      "d": 122.39583333331393,
      "v": 42
    },
    {
      "midi": 53,
      "hit": false,
      "t": 237265.62499999945,
      "d": 59.89583333331393,
      "v": 74
    },
    {
      "midi": 62,
      "hit": false,
      "t": 237481.77083333276,
      "d": 330.72916666668607,
      "v": 102
    },
    {
      "midi": 50,
      "hit": false,
      "t": 237489.58333333276,
      "d": 263.02083333337214,
      "v": 89
    },
    {
      "midi": 31,
      "hit": false,
      "t": 237494.7916666661,
      "d": 213.54166666668607,
      "v": 54
    },
    {
      "midi": 43,
      "hit": false,
      "t": 237497.39583333276,
      "d": 161.45833333334303,
      "v": 51
    },
    {
      "midi": 58,
      "hit": false,
      "t": 237744.79166666613,
      "d": 122.39583333331393,
      "v": 59
    },
    {
      "midi": 55,
      "hit": false,
      "t": 237755.2083333328,
      "d": 57.291666666656965,
      "v": 54
    },
    {
      "midi": 69,
      "hit": false,
      "t": 237992.18749999945,
      "d": 393.22916666668607,
      "v": 95
    },
    {
      "midi": 57,
      "hit": false,
      "t": 237999.99999999945,
      "d": 380.20833333334303,
      "v": 76
    },
    {
      "midi": 24,
      "hit": false,
      "t": 238013.0208333328,
      "d": 143.22916666665697,
      "v": 57
    },
    {
      "midi": 36,
      "hit": false,
      "t": 238023.43749999945,
      "d": 184.89583333334303,
      "v": 55
    },
    {
      "midi": 62,
      "hit": false,
      "t": 238281.24999999948,
      "d": 242.1874999999709,
      "v": 46
    },
    {
      "midi": 64,
      "hit": false,
      "t": 238291.66666666613,
      "d": 286.45833333331393,
      "v": 58
    },
    {
      "midi": 67,
      "hit": false,
      "t": 238513.0208333328,
      "d": 174.47916666665697,
      "v": 86
    },
    {
      "midi": 58,
      "hit": false,
      "t": 238520.8333333328,
      "d": 164.0625,
      "v": 50
    },
    {
      "midi": 55,
      "hit": false,
      "t": 238528.6458333328,
      "d": 109.375,
      "v": 78
    },
    {
      "midi": 69,
      "hit": false,
      "t": 238786.4583333328,
      "d": 39.0625,
      "v": 80
    },
    {
      "midi": 60,
      "hit": false,
      "t": 238791.66666666613,
      "d": 46.875,
      "v": 72
    },
    {
      "midi": 57,
      "hit": false,
      "t": 238802.0833333328,
      "d": 59.895833333343035,
      "v": 60
    },
    {
      "midi": 60,
      "hit": false,
      "t": 239098.9583333328,
      "d": 398.4375000000291,
      "v": 94
    },
    {
      "midi": 48,
      "hit": false,
      "t": 239106.7708333328,
      "d": 361.97916666668607,
      "v": 80
    },
    {
      "midi": 41,
      "hit": false,
      "t": 239119.79166666613,
      "d": 380.20833333334303,
      "v": 69
    },
    {
      "midi": 29,
      "hit": false,
      "t": 239124.99999999948,
      "d": 322.91666666665697,
      "v": 54
    },
    {
      "midi": 57,
      "hit": false,
      "t": 239385.41666666613,
      "d": 148.4375,
      "v": 52
    },
    {
      "midi": 53,
      "hit": false,
      "t": 239406.24999999948,
      "d": 83.33333333334303,
      "v": 81
    },
    {
      "midi": 62,
      "hit": false,
      "t": 239635.41666666613,
      "d": 315.10416666665697,
      "v": 103
    },
    {
      "midi": 50,
      "hit": false,
      "t": 239640.62499999948,
      "d": 213.54166666665697,
      "v": 92
    },
    {
      "midi": 43,
      "hit": false,
      "t": 239645.83333333282,
      "d": 161.45833333331393,
      "v": 68
    },
    {
      "midi": 31,
      "hit": false,
      "t": 239645.83333333282,
      "d": 203.1249999999709,
      "v": 68
    },
    {
      "midi": 58,
      "hit": false,
      "t": 239911.4583333328,
      "d": 70.3125,
      "v": 60
    },
    {
      "midi": 55,
      "hit": false,
      "t": 239914.06249999945,
      "d": 46.875,
      "v": 62
    },
    {
      "midi": 69,
      "hit": false,
      "t": 240130.2083333328,
      "d": 390.625,
      "v": 95
    },
    {
      "midi": 57,
      "hit": false,
      "t": 240140.62499999945,
      "d": 380.20833333334303,
      "v": 84
    },
    {
      "midi": 36,
      "hit": false,
      "t": 240156.24999999945,
      "d": 153.64583333334303,
      "v": 73
    },
    {
      "midi": 24,
      "hit": false,
      "t": 240161.4583333328,
      "d": 101.5625,
      "v": 69
    },
    {
      "midi": 62,
      "hit": false,
      "t": 240432.2916666661,
      "d": 312.5,
      "v": 51
    },
    {
      "midi": 64,
      "hit": false,
      "t": 240437.49999999945,
      "d": 276.04166666665697,
      "v": 58
    },
    {
      "midi": 67,
      "hit": false,
      "t": 240664.06249999945,
      "d": 164.0625,
      "v": 79
    },
    {
      "midi": 58,
      "hit": false,
      "t": 240666.6666666661,
      "d": 177.08333333334303,
      "v": 58
    },
    {
      "midi": 55,
      "hit": false,
      "t": 240671.87499999945,
      "d": 109.375,
      "v": 74
    },
    {
      "midi": 69,
      "hit": false,
      "t": 240934.8958333328,
      "d": 49.479166666656965,
      "v": 63
    },
    {
      "midi": 60,
      "hit": false,
      "t": 240937.49999999945,
      "d": 44.270833333343035,
      "v": 74
    },
    {
      "midi": 57,
      "hit": false,
      "t": 240942.7083333328,
      "d": 93.75,
      "v": 52
    },
    {
      "midi": 43,
      "hit": false,
      "t": 241218.74999999945,
      "d": 776.041666666657,
      "v": 76
    },
    {
      "midi": 58,
      "hit": false,
      "t": 241455.7291666661,
      "d": 304.6875,
      "v": 50
    },
    {
      "midi": 53,
      "hit": false,
      "t": 241460.93749999945,
      "d": 143.22916666665697,
      "v": 84
    },
    {
      "midi": 62,
      "hit": false,
      "t": 241463.5416666661,
      "d": 286.45833333331393,
      "v": 67
    },
    {
      "midi": 60,
      "hit": false,
      "t": 241736.9791666661,
      "d": 304.6875,
      "v": 74
    },
    {
      "midi": 52,
      "hit": false,
      "t": 241739.58333333276,
      "d": 72.91666666668607,
      "v": 66
    },
    {
      "midi": 57,
      "hit": false,
      "t": 241742.18749999942,
      "d": 184.89583333337214,
      "v": 47
    },
    {
      "midi": 50,
      "hit": false,
      "t": 241755.20833333276,
      "d": 236.97916666668607,
      "v": 68
    },
    {
      "midi": 55,
      "hit": false,
      "t": 241994.7916666661,
      "d": 46.875,
      "v": 81
    },
    {
      "midi": 53,
      "hit": false,
      "t": 242015.62499999945,
      "d": 41.666666666656965,
      "v": 82
    },
    {
      "midi": 62,
      "hit": false,
      "t": 242018.2291666661,
      "d": 101.5625,
      "v": 66
    },
    {
      "midi": 58,
      "hit": false,
      "t": 242028.64583333276,
      "d": 62.5,
      "v": 41
    },
    {
      "midi": 67,
      "hit": false,
      "t": 242302.08333333276,
      "d": 523.4375,
      "v": 89
    },
    {
      "midi": 70,
      "hit": false,
      "t": 242539.06249999942,
      "d": 335.9375,
      "v": 51
    },
    {
      "midi": 65,
      "hit": false,
      "t": 242544.27083333276,
      "d": 161.45833333334303,
      "v": 56
    },
    {
      "midi": 74,
      "hit": false,
      "t": 242544.27083333276,
      "d": 299.47916666665697,
      "v": 66
    },
    {
      "midi": 62,
      "hit": false,
      "t": 242820.31249999945,
      "d": 263.02083333331393,
      "v": 74
    },
    {
      "midi": 69,
      "hit": false,
      "t": 242822.9166666661,
      "d": 223.95833333331393,
      "v": 50
    },
    {
      "midi": 64,
      "hit": false,
      "t": 242825.52083333276,
      "d": 93.75,
      "v": 57
    },
    {
      "midi": 72,
      "hit": false,
      "t": 242825.52083333276,
      "d": 276.04166666665697,
      "v": 63
    },
    {
      "midi": 67,
      "hit": false,
      "t": 243083.33333333276,
      "d": 140.625,
      "v": 83
    },
    {
      "midi": 74,
      "hit": false,
      "t": 243085.93749999942,
      "d": 210.9375000000291,
      "v": 61
    },
    {
      "midi": 70,
      "hit": false,
      "t": 243088.54166666607,
      "d": 195.3125000000291,
      "v": 46
    },
    {
      "midi": 65,
      "hit": false,
      "t": 243096.35416666607,
      "d": 148.4375000000291,
      "v": 45
    },
    {
      "midi": 67,
      "hit": false,
      "t": 243372.3958333328,
      "d": 523.4374999999709,
      "v": 88
    },
    {
      "midi": 70,
      "hit": false,
      "t": 243627.60416666613,
      "d": 299.47916666662786,
      "v": 50
    },
    {
      "midi": 74,
      "hit": false,
      "t": 243630.2083333328,
      "d": 307.29166666662786,
      "v": 69
    },
    {
      "midi": 65,
      "hit": false,
      "t": 243640.62499999945,
      "d": 127.60416666665697,
      "v": 53
    },
    {
      "midi": 72,
      "hit": false,
      "t": 243937.49999999942,
      "d": 302.08333333331393,
      "v": 50
    },
    {
      "midi": 64,
      "hit": false,
      "t": 243940.10416666607,
      "d": 135.41666666665697,
      "v": 39
    },
    {
      "midi": 69,
      "hit": false,
      "t": 243942.70833333273,
      "d": 276.04166666665697,
      "v": 34
    },
    {
      "midi": 62,
      "hit": false,
      "t": 243950.52083333273,
      "d": 294.27083333334303,
      "v": 41
    },
    {
      "midi": 67,
      "hit": false,
      "t": 244226.5624999994,
      "d": 177.08333333334303,
      "v": 39
    },
    {
      "midi": 65,
      "hit": false,
      "t": 244239.58333333273,
      "d": 179.6875,
      "v": 29
    },
    {
      "midi": 74,
      "hit": false,
      "t": 244244.79166666607,
      "d": 197.91666666665697,
      "v": 40
    },
    {
      "midi": 70,
      "hit": false,
      "t": 244247.39583333273,
      "d": 223.95833333334303,
      "v": 27
    },
    {
      "midi": 67,
      "hit": false,
      "t": 244549.47916666607,
      "d": 455.72916666668607,
      "v": 30
    },
    {
      "midi": 70,
      "hit": false,
      "t": 244817.70833333273,
      "d": 265.6250000000291,
      "v": 30
    },
    {
      "midi": 74,
      "hit": false,
      "t": 244822.91666666607,
      "d": 260.41666666668607,
      "v": 33
    },
    {
      "midi": 65,
      "hit": false,
      "t": 244838.54166666607,
      "d": 130.20833333334303,
      "v": 21
    },
    {
      "midi": 72,
      "hit": false,
      "t": 245140.62499999942,
      "d": 367.1875,
      "v": 25
    },
    {
      "midi": 62,
      "hit": false,
      "t": 245166.66666666607,
      "d": 229.16666666668607,
      "v": 30
    },
    {
      "midi": 64,
      "hit": false,
      "t": 245177.08333333273,
      "d": 122.39583333334303,
      "v": 7
    },
    {
      "midi": 69,
      "hit": false,
      "t": 245184.89583333273,
      "d": 190.10416666668607,
      "v": 7
    },
    {
      "midi": 74,
      "hit": false,
      "t": 245572.91666666607,
      "d": 171.875,
      "v": 24
    },
    {
      "midi": 70,
      "hit": false,
      "t": 245578.12499999942,
      "d": 101.5625,
      "v": 17
    },
    {
      "midi": 65,
      "hit": false,
      "t": 245596.35416666607,
      "d": 83.33333333334303,
      "v": 9
    },
    {
      "midi": 67,
      "hit": false,
      "t": 245604.16666666607,
      "d": 67.70833333334303,
      "v": 28
    },
    {
      "midi": 43,
      "hit": false,
      "t": 245874.99999999942,
      "d": 364.58333333337214,
      "v": 11
    },
    {
      "midi": 50,
      "hit": false,
      "t": 245997.39583333276,
      "d": 91.14583333334303,
      "v": 24
    },
    {
      "midi": 81,
      "hit": false,
      "t": 246138.02083333276,
      "d": 200.52083333331393,
      "v": 56
    },
    {
      "midi": 69,
      "hit": false,
      "t": 246166.6666666661,
      "d": 218.7499999999709,
      "v": 7
    },
    {
      "midi": 77,
      "hit": false,
      "t": 246187.49999999945,
      "d": 148.4374999999709,
      "v": 15
    },
    {
      "midi": 74,
      "hit": false,
      "t": 246192.7083333328,
      "d": 119.79166666665697,
      "v": 17
    },
    {
      "midi": 58,
      "hit": false,
      "t": 246221.35416666613,
      "d": 101.5624999999709,
      "v": 32
    },
    {
      "midi": 50,
      "hit": false,
      "t": 246263.0208333328,
      "d": 70.3124999999709,
      "v": 21
    },
    {
      "midi": 70,
      "hit": false,
      "t": 246572.91666666607,
      "d": 145.83333333331393,
      "v": 11
    },
    {
      "midi": 74,
      "hit": false,
      "t": 246575.52083333273,
      "d": 190.10416666665697,
      "v": 29
    },
    {
      "midi": 65,
      "hit": false,
      "t": 246593.7499999994,
      "d": 93.75,
      "v": 17
    },
    {
      "midi": 62,
      "hit": false,
      "t": 246906.2499999994,
      "d": 132.8125,
      "v": 25
    },
    {
      "midi": 67,
      "hit": false,
      "t": 246906.2499999994,
      "d": 143.22916666665697,
      "v": 27
    },
    {
      "midi": 70,
      "hit": false,
      "t": 247213.54166666605,
      "d": 200.52083333334303,
      "v": 24
    },
    {
      "midi": 74,
      "hit": false,
      "t": 247216.1458333327,
      "d": 182.29166666668607,
      "v": 44
    },
    {
      "midi": 65,
      "hit": false,
      "t": 247239.5833333327,
      "d": 98.95833333334303,
      "v": 22
    },
    {
      "midi": 67,
      "hit": false,
      "t": 247531.2499999994,
      "d": 72.91666666665697,
      "v": 30
    },
    {
      "midi": 62,
      "hit": false,
      "t": 247541.66666666605,
      "d": 85.9375,
      "v": 14
    },
    {
      "midi": 65,
      "hit": false,
      "t": 247666.66666666605,
      "d": 65.10416666665697,
      "v": 33
    },
    {
      "midi": 74,
      "hit": false,
      "t": 247666.66666666605,
      "d": 72.91666666665697,
      "v": 38
    },
    {
      "midi": 70,
      "hit": false,
      "t": 247677.0833333327,
      "d": 83.33333333334303,
      "v": 18
    },
    {
      "midi": 67,
      "hit": false,
      "t": 247874.9999999994,
      "d": 62.5,
      "v": 41
    },
    {
      "midi": 62,
      "hit": false,
      "t": 247882.8124999994,
      "d": 67.70833333334303,
      "v": 24
    },
    {
      "midi": 43,
      "hit": false,
      "t": 248218.7499999994,
      "d": 229.16666666665697,
      "v": 50
    },
    {
      "midi": 81,
      "hit": false,
      "t": 248315.10416666605,
      "d": 208.33333333334303,
      "v": 76
    },
    {
      "midi": 50,
      "hit": false,
      "t": 248330.72916666605,
      "d": 171.8750000000291,
      "v": 19
    },
    {
      "midi": 69,
      "hit": false,
      "t": 248338.54166666605,
      "d": 221.35416666665697,
      "v": 25
    },
    {
      "midi": 74,
      "hit": false,
      "t": 248361.97916666605,
      "d": 98.95833333334303,
      "v": 31
    },
    {
      "midi": 77,
      "hit": false,
      "t": 248361.97916666605,
      "d": 143.22916666668607,
      "v": 27
    },
    {
      "midi": 58,
      "hit": false,
      "t": 248385.41666666605,
      "d": 140.625,
      "v": 24
    },
    {
      "midi": 70,
      "hit": false,
      "t": 248679.68749999936,
      "d": 98.95833333334303,
      "v": 45
    },
    {
      "midi": 74,
      "hit": false,
      "t": 248687.49999999936,
      "d": 75.52083333334303,
      "v": 54
    },
    {
      "midi": 65,
      "hit": false,
      "t": 248700.5208333327,
      "d": 70.3125,
      "v": 41
    },
    {
      "midi": 67,
      "hit": false,
      "t": 249007.81249999936,
      "d": 80.72916666668607,
      "v": 51
    },
    {
      "midi": 62,
      "hit": false,
      "t": 249020.8333333327,
      "d": 62.5,
      "v": 38
    },
    {
      "midi": 70,
      "hit": false,
      "t": 249296.8749999994,
      "d": 140.625,
      "v": 35
    },
    {
      "midi": 74,
      "hit": false,
      "t": 249309.89583333273,
      "d": 158.85416666665697,
      "v": 50
    },
    {
      "midi": 65,
      "hit": false,
      "t": 249312.4999999994,
      "d": 101.5625,
      "v": 38
    },
    {
      "midi": 67,
      "hit": false,
      "t": 249614.58333333273,
      "d": 78.125,
      "v": 33
    },
    {
      "midi": 62,
      "hit": false,
      "t": 249617.1874999994,
      "d": 85.9375,
      "v": 24
    },
    {
      "midi": 65,
      "hit": false,
      "t": 249752.60416666605,
      "d": 59.895833333343035,
      "v": 30
    },
    {
      "midi": 74,
      "hit": false,
      "t": 249752.60416666605,
      "d": 78.125,
      "v": 42
    },
    {
      "midi": 70,
      "hit": false,
      "t": 249760.41666666605,
      "d": 93.75,
      "v": 18
    },
    {
      "midi": 67,
      "hit": false,
      "t": 249960.9374999994,
      "d": 109.3749999999709,
      "v": 35
    },
    {
      "midi": 62,
      "hit": false,
      "t": 249963.54166666605,
      "d": 80.72916666665697,
      "v": 30
    },
    {
      "midi": 81,
      "hit": false,
      "t": 250343.74999999936,
      "d": 440.10416666668607,
      "v": 78
    },
    {
      "midi": 82,
      "hit": false,
      "t": 250677.0833333327,
      "d": 364.58333333334303,
      "v": 69
    },
    {
      "midi": 70,
      "hit": false,
      "t": 250682.29166666605,
      "d": 981.7708333333721,
      "v": 25
    },
    {
      "midi": 65,
      "hit": false,
      "t": 250710.9374999994,
      "d": 281.25,
      "v": 30
    },
    {
      "midi": 74,
      "hit": false,
      "t": 250710.9374999994,
      "d": 820.3125000000291,
      "v": 34
    },
    {
      "midi": 84,
      "hit": false,
      "t": 251010.41666666605,
      "d": 442.70833333337214,
      "v": 77
    },
    {
      "midi": 64,
      "hit": false,
      "t": 251018.22916666605,
      "d": 67.70833333334303,
      "v": 52
    },
    {
      "midi": 81,
      "hit": false,
      "t": 251333.33333333273,
      "d": 377.60416666668607,
      "v": 65
    },
    {
      "midi": 62,
      "hit": false,
      "t": 251359.37499999942,
      "d": 296.875,
      "v": 22
    },
    {
      "midi": 79,
      "hit": false,
      "t": 251640.62499999942,
      "d": 296.875,
      "v": 69
    },
    {
      "midi": 74,
      "hit": false,
      "t": 251945.31249999942,
      "d": 364.58333333334303,
      "v": 78
    },
    {
      "midi": 81,
      "hit": false,
      "t": 252255.20833333276,
      "d": 408.85416666668607,
      "v": 83
    },
    {
      "midi": 82,
      "hit": false,
      "t": 252580.7291666661,
      "d": 341.14583333334303,
      "v": 67
    },
    {
      "midi": 52,
      "hit": false,
      "t": 252591.14583333276,
      "d": 158.85416666668607,
      "v": 50
    },
    {
      "midi": 60,
      "hit": false,
      "t": 252596.3541666661,
      "d": 182.29166666668607,
      "v": 39
    },
    {
      "midi": 57,
      "hit": false,
      "t": 252601.56249999945,
      "d": 268.22916666668607,
      "v": 29
    },
    {
      "midi": 84,
      "hit": false,
      "t": 252888.0208333328,
      "d": 156.25,
      "v": 80
    },
    {
      "midi": 58,
      "hit": false,
      "t": 252898.43749999945,
      "d": 101.5625,
      "v": 42
    },
    {
      "midi": 62,
      "hit": false,
      "t": 252911.4583333328,
      "d": 83.33333333331393,
      "v": 45
    },
    {
      "midi": 53,
      "hit": false,
      "t": 252934.8958333328,
      "d": 57.291666666656965,
      "v": 65
    },
    {
      "midi": 81,
      "hit": false,
      "t": 253072.91666666613,
      "d": 41.666666666656965,
      "v": 67
    },
    {
      "midi": 82,
      "hit": false,
      "t": 253130.2083333328,
      "d": 122.39583333331393,
      "v": 62
    },
    {
      "midi": 81,
      "hit": false,
      "t": 253177.0833333328,
      "d": 463.54166666659876,
      "v": 73
    },
    {
      "midi": 64,
      "hit": false,
      "t": 253197.9166666661,
      "d": 156.25,
      "v": 44
    },
    {
      "midi": 60,
      "hit": false,
      "t": 253205.7291666661,
      "d": 101.5625,
      "v": 44
    },
    {
      "midi": 55,
      "hit": false,
      "t": 253210.93749999945,
      "d": 343.7499999999418,
      "v": 44
    },
    {
      "midi": 79,
      "hit": false,
      "t": 253541.66666666607,
      "d": 348.9583333332848,
      "v": 70
    },
    {
      "midi": 65,
      "hit": false,
      "t": 253549.47916666607,
      "d": 221.35416666662786,
      "v": 34
    },
    {
      "midi": 57,
      "hit": false,
      "t": 253552.08333333273,
      "d": 192.70833333331393,
      "v": 36
    },
    {
      "midi": 62,
      "hit": false,
      "t": 253578.1249999994,
      "d": 151.04166666665697,
      "v": 48
    },
    {
      "midi": 74,
      "hit": false,
      "t": 253903.6458333327,
      "d": 218.75,
      "v": 63
    },
    {
      "midi": 67,
      "hit": false,
      "t": 253911.4583333327,
      "d": 62.499999999970896,
      "v": 41
    },
    {
      "midi": 59,
      "hit": false,
      "t": 253921.87499999936,
      "d": 78.125,
      "v": 42
    },
    {
      "midi": 64,
      "hit": false,
      "t": 253924.47916666602,
      "d": 54.6875,
      "v": 38
    },
    {
      "midi": 43,
      "hit": false,
      "t": 254244.79166666605,
      "d": 250,
      "v": 29
    },
    {
      "midi": 50,
      "hit": false,
      "t": 254299.47916666605,
      "d": 234.3750000000291,
      "v": 40
    },
    {
      "midi": 81,
      "hit": false,
      "t": 254348.9583333327,
      "d": 171.8750000000291,
      "v": 86
    },
    {
      "midi": 69,
      "hit": false,
      "t": 254361.97916666605,
      "d": 208.33333333334303,
      "v": 44
    },
    {
      "midi": 74,
      "hit": false,
      "t": 254364.5833333327,
      "d": 75.52083333334303,
      "v": 51
    },
    {
      "midi": 77,
      "hit": false,
      "t": 254369.79166666605,
      "d": 164.0625000000291,
      "v": 45
    },
    {
      "midi": 58,
      "hit": false,
      "t": 254390.6249999994,
      "d": 161.45833333334303,
      "v": 29
    },
    {
      "midi": 74,
      "hit": false,
      "t": 254700.52083333273,
      "d": 177.08333333334303,
      "v": 61
    },
    {
      "midi": 65,
      "hit": false,
      "t": 254710.9374999994,
      "d": 91.14583333334303,
      "v": 48
    },
    {
      "midi": 70,
      "hit": false,
      "t": 254710.9374999994,
      "d": 171.8750000000291,
      "v": 36
    },
    {
      "midi": 67,
      "hit": false,
      "t": 254994.79166666607,
      "d": 109.375,
      "v": 51
    },
    {
      "midi": 62,
      "hit": false,
      "t": 255002.60416666607,
      "d": 93.75,
      "v": 44
    },
    {
      "midi": 65,
      "hit": false,
      "t": 255309.89583333273,
      "d": 171.8749999999709,
      "v": 49
    },
    {
      "midi": 70,
      "hit": false,
      "t": 255309.89583333273,
      "d": 174.47916666662786,
      "v": 41
    },
    {
      "midi": 74,
      "hit": false,
      "t": 255312.4999999994,
      "d": 166.66666666665697,
      "v": 58
    },
    {
      "midi": 67,
      "hit": false,
      "t": 255606.7708333327,
      "d": 70.3125,
      "v": 47
    },
    {
      "midi": 62,
      "hit": false,
      "t": 255614.5833333327,
      "d": 72.91666666665697,
      "v": 35
    },
    {
      "midi": 70,
      "hit": false,
      "t": 255721.35416666602,
      "d": 72.91666666668607,
      "v": 40
    },
    {
      "midi": 74,
      "hit": false,
      "t": 255723.95833333267,
      "d": 78.1250000000291,
      "v": 44
    },
    {
      "midi": 65,
      "hit": false,
      "t": 255729.16666666602,
      "d": 52.083333333343035,
      "v": 38
    },
    {
      "midi": 67,
      "hit": false,
      "t": 255885.41666666605,
      "d": 52.083333333343035,
      "v": 57
    },
    {
      "midi": 62,
      "hit": false,
      "t": 255914.0624999994,
      "d": 62.5,
      "v": 29
    },
    {
      "midi": 43,
      "hit": false,
      "t": 256158.85416666605,
      "d": 341.14583333331393,
      "v": 34
    },
    {
      "midi": 50,
      "hit": false,
      "t": 256270.8333333327,
      "d": 283.85416666662786,
      "v": 17
    },
    {
      "midi": 81,
      "hit": false,
      "t": 256348.9583333327,
      "d": 216.14583333328483,
      "v": 64
    },
    {
      "midi": 69,
      "hit": false,
      "t": 256374.99999999936,
      "d": 187.4999999999709,
      "v": 20
    },
    {
      "midi": 77,
      "hit": false,
      "t": 256385.41666666602,
      "d": 166.66666666665697,
      "v": 28
    },
    {
      "midi": 74,
      "hit": false,
      "t": 256390.62499999936,
      "d": 158.85416666665697,
      "v": 31
    },
    {
      "midi": 58,
      "hit": false,
      "t": 256427.0833333327,
      "d": 98.95833333331393,
      "v": 24
    },
    {
      "midi": 70,
      "hit": false,
      "t": 256749.99999999933,
      "d": 164.0625,
      "v": 29
    },
    {
      "midi": 74,
      "hit": false,
      "t": 256749.99999999933,
      "d": 182.29166666665697,
      "v": 45
    },
    {
      "midi": 65,
      "hit": false,
      "t": 256763.02083333267,
      "d": 78.125,
      "v": 36
    },
    {
      "midi": 67,
      "hit": false,
      "t": 257072.916666666,
      "d": 98.95833333334303,
      "v": 35
    },
    {
      "midi": 62,
      "hit": false,
      "t": 257085.93749999933,
      "d": 80.72916666665697,
      "v": 23
    },
    {
      "midi": 69,
      "hit": false,
      "t": 257369.791666666,
      "d": 109.375,
      "v": 29
    },
    {
      "midi": 77,
      "hit": false,
      "t": 257380.20833333264,
      "d": 171.875,
      "v": 41
    },
    {
      "midi": 74,
      "hit": false,
      "t": 257385.416666666,
      "d": 62.5,
      "v": 35
    },
    {
      "midi": 70,
      "hit": false,
      "t": 257695.3124999993,
      "d": 151.04166666662786,
      "v": 29
    },
    {
      "midi": 74,
      "hit": false,
      "t": 257721.35416666596,
      "d": 106.77083333331393,
      "v": 34
    },
    {
      "midi": 65,
      "hit": false,
      "t": 257723.95833333262,
      "d": 57.291666666656965,
      "v": 26
    },
    {
      "midi": 67,
      "hit": false,
      "t": 258023.43749999927,
      "d": 59.895833333343035,
      "v": 39
    },
    {
      "midi": 62,
      "hit": false,
      "t": 258044.27083333262,
      "d": 67.70833333334303,
      "v": 22
    },
    {
      "midi": 76,
      "hit": false,
      "t": 258354.16666666596,
      "d": 192.70833333334303,
      "v": 48
    },
    {
      "midi": 64,
      "hit": false,
      "t": 258395.83333333262,
      "d": 463.5416666667152,
      "v": 31
    },
    {
      "midi": 77,
      "hit": false,
      "t": 258502.60416666596,
      "d": 138.02083333334303,
      "v": 58
    },
    {
      "midi": 79,
      "hit": false,
      "t": 258645.83333333264,
      "d": 111.97916666668607,
      "v": 65
    },
    {
      "midi": 53,
      "hit": false,
      "t": 258682.291666666,
      "d": 192.70833333334303,
      "v": 33
    },
    {
      "midi": 76,
      "hit": false,
      "t": 258786.45833333267,
      "d": 148.4374999999709,
      "v": 50
    },
    {
      "midi": 77,
      "hit": false,
      "t": 258942.70833333264,
      "d": 122.39583333334303,
      "v": 48
    },
    {
      "midi": 57,
      "hit": false,
      "t": 258966.14583333264,
      "d": 75.52083333334303,
      "v": 17
    },
    {
      "midi": 79,
      "hit": false,
      "t": 259085.93749999933,
      "d": 114.58333333334303,
      "v": 53
    },
    {
      "midi": 48,
      "hit": false,
      "t": 259234.37499999936,
      "d": 346.35416666665697,
      "v": 35
    },
    {
      "midi": 76,
      "hit": false,
      "t": 259239.5833333327,
      "d": 174.47916666665697,
      "v": 44
    },
    {
      "midi": 77,
      "hit": false,
      "t": 259395.8333333327,
      "d": 135.41666666665697,
      "v": 46
    },
    {
      "midi": 79,
      "hit": false,
      "t": 259541.66666666602,
      "d": 93.75,
      "v": 50
    },
    {
      "midi": 41,
      "hit": false,
      "t": 259546.87499999936,
      "d": 138.02083333334303,
      "v": 49
    },
    {
      "midi": 76,
      "hit": false,
      "t": 259679.68749999936,
      "d": 148.4375,
      "v": 35
    },
    {
      "midi": 57,
      "hit": false,
      "t": 259835.93749999936,
      "d": 91.14583333334303,
      "v": 34
    },
    {
      "midi": 77,
      "hit": false,
      "t": 259841.1458333327,
      "d": 98.95833333334303,
      "v": 39
    },
    {
      "midi": 79,
      "hit": false,
      "t": 259984.3749999994,
      "d": 78.125,
      "v": 42
    },
    {
      "midi": 64,
      "hit": false,
      "t": 260145.83333333273,
      "d": 260.41666666665697,
      "v": 51
    },
    {
      "midi": 76,
      "hit": false,
      "t": 260148.4374999994,
      "d": 153.64583333334303,
      "v": 34
    },
    {
      "midi": 77,
      "hit": false,
      "t": 260286.45833333273,
      "d": 130.20833333331393,
      "v": 44
    },
    {
      "midi": 79,
      "hit": false,
      "t": 260432.29166666605,
      "d": 119.79166666668607,
      "v": 45
    },
    {
      "midi": 53,
      "hit": false,
      "t": 260460.9374999994,
      "d": 174.47916666665697,
      "v": 59
    },
    {
      "midi": 76,
      "hit": false,
      "t": 260578.1249999994,
      "d": 140.625,
      "v": 34
    },
    {
      "midi": 77,
      "hit": false,
      "t": 260721.35416666605,
      "d": 138.02083333331393,
      "v": 45
    },
    {
      "midi": 57,
      "hit": false,
      "t": 260739.5833333327,
      "d": 78.125,
      "v": 49
    },
    {
      "midi": 79,
      "hit": false,
      "t": 260880.2083333327,
      "d": 88.54166666665697,
      "v": 41
    },
    {
      "midi": 48,
      "hit": false,
      "t": 261031.24999999936,
      "d": 302.0833333332848,
      "v": 53
    },
    {
      "midi": 76,
      "hit": false,
      "t": 261041.66666666602,
      "d": 174.47916666665697,
      "v": 42
    },
    {
      "midi": 77,
      "hit": false,
      "t": 261192.70833333267,
      "d": 119.79166666665697,
      "v": 44
    },
    {
      "midi": 79,
      "hit": false,
      "t": 261330.729166666,
      "d": 93.75,
      "v": 49
    },
    {
      "midi": 41,
      "hit": false,
      "t": 261361.979166666,
      "d": 127.60416666665697,
      "v": 40
    },
    {
      "midi": 76,
      "hit": false,
      "t": 261481.77083333264,
      "d": 184.89583333334303,
      "v": 40
    },
    {
      "midi": 77,
      "hit": false,
      "t": 261666.666666666,
      "d": 122.39583333331393,
      "v": 47
    },
    {
      "midi": 57,
      "hit": false,
      "t": 261674.479166666,
      "d": 80.72916666665697,
      "v": 20
    },
    {
      "midi": 79,
      "hit": false,
      "t": 261822.91666666596,
      "d": 85.9375,
      "v": 49
    },
    {
      "midi": 43,
      "hit": false,
      "t": 261874.9999999993,
      "d": 158.85416666665697,
      "v": 35
    },
    {
      "midi": 50,
      "hit": false,
      "t": 261963.54166666596,
      "d": 169.27083333334303,
      "v": 32
    },
    {
      "midi": 81,
      "hit": false,
      "t": 262018.22916666596,
      "d": 153.64583333334303,
      "v": 84
    },
    {
      "midi": 77,
      "hit": false,
      "t": 262044.27083333262,
      "d": 62.500000000029104,
      "v": 49
    },
    {
      "midi": 69,
      "hit": false,
      "t": 262057.29166666596,
      "d": 104.16666666665697,
      "v": 15
    },
    {
      "midi": 74,
      "hit": false,
      "t": 262072.91666666596,
      "d": 67.70833333334303,
      "v": 19
    },
    {
      "midi": 58,
      "hit": false,
      "t": 262091.14583333264,
      "d": 78.1249999999709,
      "v": 39
    },
    {
      "midi": 70,
      "hit": false,
      "t": 262348.9583333326,
      "d": 119.79166666662786,
      "v": 49
    },
    {
      "midi": 74,
      "hit": false,
      "t": 262351.5624999993,
      "d": 143.22916666662786,
      "v": 64
    },
    {
      "midi": 65,
      "hit": false,
      "t": 262356.7708333326,
      "d": 83.33333333331393,
      "v": 52
    },
    {
      "midi": 67,
      "hit": false,
      "t": 262653.6458333326,
      "d": 104.16666666668607,
      "v": 56
    },
    {
      "midi": 62,
      "hit": false,
      "t": 262661.4583333326,
      "d": 62.5,
      "v": 50
    },
    {
      "midi": 69,
      "hit": false,
      "t": 262963.541666666,
      "d": 182.29166666662786,
      "v": 57
    },
    {
      "midi": 74,
      "hit": false,
      "t": 262976.5624999993,
      "d": 156.25,
      "v": 57
    },
    {
      "midi": 77,
      "hit": false,
      "t": 262976.5624999993,
      "d": 210.9375,
      "v": 63
    },
    {
      "midi": 67,
      "hit": false,
      "t": 263296.8749999993,
      "d": 62.5,
      "v": 48
    },
    {
      "midi": 62,
      "hit": false,
      "t": 263307.291666666,
      "d": 59.89583333331393,
      "v": 37
    },
    {
      "midi": 65,
      "hit": false,
      "t": 263395.8333333326,
      "d": 49.47916666668607,
      "v": 47
    },
    {
      "midi": 70,
      "hit": false,
      "t": 263395.8333333326,
      "d": 83.33333333337214,
      "v": 43
    },
    {
      "midi": 74,
      "hit": false,
      "t": 263395.8333333326,
      "d": 104.16666666668607,
      "v": 57
    },
    {
      "midi": 67,
      "hit": false,
      "t": 263562.4999999993,
      "d": 44.27083333337214,
      "v": 69
    },
    {
      "midi": 62,
      "hit": false,
      "t": 263572.916666666,
      "d": 52.08333333337214,
      "v": 36
    },
    {
      "midi": 43,
      "hit": false,
      "t": 263877.60416666605,
      "d": 226.5625,
      "v": 40
    },
    {
      "midi": 50,
      "hit": false,
      "t": 263958.33333333273,
      "d": 218.75,
      "v": 25
    },
    {
      "midi": 81,
      "hit": false,
      "t": 264018.22916666605,
      "d": 166.66666666668607,
      "v": 67
    },
    {
      "midi": 77,
      "hit": false,
      "t": 264033.85416666605,
      "d": 148.4375,
      "v": 35
    },
    {
      "midi": 69,
      "hit": false,
      "t": 264039.06249999936,
      "d": 169.27083333337214,
      "v": 31
    },
    {
      "midi": 74,
      "hit": false,
      "t": 264052.0833333327,
      "d": 72.91666666668607,
      "v": 32
    },
    {
      "midi": 58,
      "hit": false,
      "t": 264078.12499999936,
      "d": 111.97916666668607,
      "v": 25
    },
    {
      "midi": 74,
      "hit": false,
      "t": 264388.02083333273,
      "d": 164.0624999999418,
      "v": 45
    },
    {
      "midi": 70,
      "hit": false,
      "t": 264395.83333333273,
      "d": 135.41666666662786,
      "v": 26
    },
    {
      "midi": 65,
      "hit": false,
      "t": 264401.04166666605,
      "d": 78.125,
      "v": 37
    },
    {
      "midi": 67,
      "hit": false,
      "t": 264690.104166666,
      "d": 78.125,
      "v": 37
    },
    {
      "midi": 62,
      "hit": false,
      "t": 264697.916666666,
      "d": 72.91666666668607,
      "v": 27
    },
    {
      "midi": 69,
      "hit": false,
      "t": 264986.979166666,
      "d": 187.5,
      "v": 34
    },
    {
      "midi": 77,
      "hit": false,
      "t": 264986.979166666,
      "d": 195.3125,
      "v": 44
    },
    {
      "midi": 74,
      "hit": false,
      "t": 265010.416666666,
      "d": 104.16666666668607,
      "v": 27
    },
    {
      "midi": 67,
      "hit": false,
      "t": 265322.916666666,
      "d": 83.33333333331393,
      "v": 24
    },
    {
      "midi": 62,
      "hit": false,
      "t": 265328.1249999993,
      "d": 93.75,
      "v": 16
    },
    {
      "midi": 70,
      "hit": false,
      "t": 265453.1249999993,
      "d": 114.58333333337214,
      "v": 24
    },
    {
      "midi": 74,
      "hit": false,
      "t": 265460.9374999993,
      "d": 85.93750000005821,
      "v": 36
    },
    {
      "midi": 65,
      "hit": false,
      "t": 265479.166666666,
      "d": 65.10416666668607,
      "v": 18
    },
    {
      "midi": 67,
      "hit": false,
      "t": 265666.666666666,
      "d": 78.125,
      "v": 31
    },
    {
      "midi": 62,
      "hit": false,
      "t": 265674.479166666,
      "d": 96.35416666668607,
      "v": 26
    },
    {
      "midi": 81,
      "hit": false,
      "t": 266096.354166666,
      "d": 419.27083333337214,
      "v": 61
    },
    {
      "midi": 58,
      "hit": false,
      "t": 266130.2083333327,
      "d": 296.875,
      "v": 21
    },
    {
      "midi": 82,
      "hit": false,
      "t": 266427.0833333327,
      "d": 364.58333333337214,
      "v": 58
    },
    {
      "midi": 50,
      "hit": false,
      "t": 266484.37499999936,
      "d": 85.9375,
      "v": 27
    },
    {
      "midi": 84,
      "hit": false,
      "t": 266749.99999999936,
      "d": 447.91666666668607,
      "v": 73
    },
    {
      "midi": 43,
      "hit": false,
      "t": 266760.41666666605,
      "d": 57.29166666668607,
      "v": 35
    },
    {
      "midi": 81,
      "hit": false,
      "t": 267054.6874999994,
      "d": 390.625,
      "v": 72
    },
    {
      "midi": 69,
      "hit": false,
      "t": 267075.52083333273,
      "d": 333.33333333331393,
      "v": 31
    },
    {
      "midi": 79,
      "hit": false,
      "t": 267374.99999999936,
      "d": 304.6875000000582,
      "v": 75
    },
    {
      "midi": 65,
      "hit": false,
      "t": 267419.27083333273,
      "d": 93.75,
      "v": 27
    },
    {
      "midi": 74,
      "hit": false,
      "t": 267669.27083333273,
      "d": 341.14583333343035,
      "v": 68
    },
    {
      "midi": 58,
      "hit": false,
      "t": 267700.52083333273,
      "d": 104.16666666668607,
      "v": 22
    },
    {
      "midi": 81,
      "hit": false,
      "t": 267979.1666666661,
      "d": 364.58333333343035,
      "v": 69
    },
    {
      "midi": 69,
      "hit": false,
      "t": 267989.5833333328,
      "d": 302.08333333343035,
      "v": 27
    },
    {
      "midi": 74,
      "hit": false,
      "t": 268281.24999999953,
      "d": 338.54166666662786,
      "v": 75
    },
    {
      "midi": 65,
      "hit": false,
      "t": 268312.49999999953,
      "d": 208.33333333331393,
      "v": 23
    },
    {
      "midi": 76,
      "hit": false,
      "t": 268565.10416666616,
      "d": 299.47916666668607,
      "v": 69
    },
    {
      "midi": 59,
      "hit": false,
      "t": 268575.52083333285,
      "d": 52.08333333331393,
      "v": 38
    },
    {
      "midi": 79,
      "hit": false,
      "t": 268841.14583333285,
      "d": 208.33333333331393,
      "v": 74
    },
    {
      "midi": 59,
      "hit": false,
      "t": 268880.20833333285,
      "d": 223.95833333325572,
      "v": 37
    },
    {
      "midi": 77,
      "hit": false,
      "t": 269091.1458333328,
      "d": 52.08333333331393,
      "v": 50
    },
    {
      "midi": 79,
      "hit": false,
      "t": 269145.8333333328,
      "d": 85.9375,
      "v": 68
    },
    {
      "midi": 77,
      "hit": false,
      "t": 269208.3333333328,
      "d": 260.41666666662786,
      "v": 80
    },
    {
      "midi": 50,
      "hit": false,
      "t": 269223.9583333328,
      "d": 83.33333333331393,
      "v": 34
    },
    {
      "midi": 76,
      "hit": false,
      "t": 269481.77083333273,
      "d": 346.35416666662786,
      "v": 67
    },
    {
      "midi": 43,
      "hit": false,
      "t": 269486.97916666605,
      "d": 65.10416666668607,
      "v": 30
    },
    {
      "midi": 58,
      "hit": false,
      "t": 269760.41666666605,
      "d": 335.9374999999418,
      "v": 33
    },
    {
      "midi": 81,
      "hit": false,
      "t": 269828.12499999936,
      "d": 369.79166666662786,
      "v": 72
    },
    {
      "midi": 50,
      "hit": false,
      "t": 270119.791666666,
      "d": 70.3125,
      "v": 33
    },
    {
      "midi": 82,
      "hit": false,
      "t": 270145.8333333327,
      "d": 276.04166666662786,
      "v": 64
    },
    {
      "midi": 43,
      "hit": false,
      "t": 270320.3124999993,
      "d": 54.6875,
      "v": 41
    },
    {
      "midi": 84,
      "hit": false,
      "t": 270419.2708333326,
      "d": 122.39583333337214,
      "v": 73
    },
    {
      "midi": 81,
      "hit": false,
      "t": 270541.666666666,
      "d": 49.47916666668607,
      "v": 53
    },
    {
      "midi": 82,
      "hit": false,
      "t": 270588.541666666,
      "d": 135.41666666668607,
      "v": 60
    },
    {
      "midi": 81,
      "hit": false,
      "t": 270651.041666666,
      "d": 390.625,
      "v": 87
    },
    {
      "midi": 69,
      "hit": false,
      "t": 270666.666666666,
      "d": 312.5,
      "v": 36
    },
    {
      "midi": 79,
      "hit": false,
      "t": 270973.9583333327,
      "d": 234.375,
      "v": 74
    },
    {
      "midi": 65,
      "hit": false,
      "t": 271007.8124999993,
      "d": 80.72916666668607,
      "v": 30
    },
    {
      "midi": 74,
      "hit": false,
      "t": 271249.99999999936,
      "d": 291.66666666662786,
      "v": 68
    },
    {
      "midi": 58,
      "hit": false,
      "t": 271257.81249999936,
      "d": 106.77083333331393,
      "v": 33
    },
    {
      "midi": 81,
      "hit": false,
      "t": 271554.6874999993,
      "d": 317.70833333337214,
      "v": 63
    },
    {
      "midi": 69,
      "hit": false,
      "t": 271557.291666666,
      "d": 315.10416666668607,
      "v": 28
    },
    {
      "midi": 74,
      "hit": false,
      "t": 271838.541666666,
      "d": 328.1250000000582,
      "v": 63
    },
    {
      "midi": 65,
      "hit": false,
      "t": 271882.81249999936,
      "d": 195.3125,
      "v": 24
    },
    {
      "midi": 76,
      "hit": false,
      "t": 272124.99999999936,
      "d": 283.85416666668607,
      "v": 59
    },
    {
      "midi": 59,
      "hit": false,
      "t": 272164.06249999936,
      "d": 54.6875,
      "v": 35
    },
    {
      "midi": 79,
      "hit": false,
      "t": 272398.43749999936,
      "d": 190.10416666674428,
      "v": 63
    },
    {
      "midi": 59,
      "hit": false,
      "t": 272424.47916666605,
      "d": 203.1250000000582,
      "v": 36
    },
    {
      "midi": 77,
      "hit": false,
      "t": 272614.5833333328,
      "d": 46.875,
      "v": 56
    },
    {
      "midi": 79,
      "hit": false,
      "t": 272666.6666666661,
      "d": 62.5,
      "v": 70
    },
    {
      "midi": 77,
      "hit": false,
      "t": 272729.1666666661,
      "d": 325.52083333337214,
      "v": 72
    },
    {
      "midi": 50,
      "hit": false,
      "t": 272744.7916666661,
      "d": 98.95833333331393,
      "v": 29
    },
    {
      "midi": 43,
      "hit": false,
      "t": 273002.6041666661,
      "d": 49.47916666668607,
      "v": 46
    },
    {
      "midi": 76,
      "hit": false,
      "t": 273013.0208333328,
      "d": 278.64583333337214,
      "v": 56
    },
    {
      "midi": 74,
      "hit": false,
      "t": 273312.4999999995,
      "d": 338.54166666668607,
      "v": 57
    },
    {
      "midi": 48,
      "hit": false,
      "t": 273322.91666666616,
      "d": 309.89583333331393,
      "v": 34
    },
    {
      "midi": 72,
      "hit": false,
      "t": 273617.1874999995,
      "d": 395.83333333337214,
      "v": 57
    },
    {
      "midi": 58,
      "hit": false,
      "t": 273627.60416666616,
      "d": 88.54166666668607,
      "v": 25
    },
    {
      "midi": 69,
      "hit": false,
      "t": 274005.20833333285,
      "d": 367.1874999999418,
      "v": 44
    },
    {
      "midi": 62,
      "hit": false,
      "t": 274018.22916666616,
      "d": 54.6875,
      "v": 38
    },
    {
      "midi": 41,
      "hit": false,
      "t": 274343.7499999995,
      "d": 304.6875,
      "v": 39
    },
    {
      "midi": 77,
      "hit": false,
      "t": 274432.2916666661,
      "d": 330.7291666667443,
      "v": 101
    },
    {
      "midi": 65,
      "hit": false,
      "t": 274440.1041666661,
      "d": 351.5625000000582,
      "v": 86
    },
    {
      "midi": 57,
      "hit": false,
      "t": 274458.3333333328,
      "d": 260.41666666668607,
      "v": 74
    },
    {
      "midi": 69,
      "hit": false,
      "t": 274729.16666666616,
      "d": 177.08333333331393,
      "v": 37
    },
    {
      "midi": 72,
      "hit": false,
      "t": 274729.16666666616,
      "d": 239.58333333325572,
      "v": 54
    },
    {
      "midi": 46,
      "hit": false,
      "t": 274919.2708333328,
      "d": 49.47916666662786,
      "v": 59
    },
    {
      "midi": 77,
      "hit": false,
      "t": 274963.5416666661,
      "d": 281.25,
      "v": 98
    },
    {
      "midi": 65,
      "hit": false,
      "t": 274979.1666666661,
      "d": 182.29166666662786,
      "v": 79
    },
    {
      "midi": 62,
      "hit": false,
      "t": 275015.6249999994,
      "d": 59.89583333331393,
      "v": 81
    },
    {
      "midi": 70,
      "hit": false,
      "t": 275218.7499999994,
      "d": 52.08333333337214,
      "v": 52
    },
    {
      "midi": 74,
      "hit": false,
      "t": 275229.1666666661,
      "d": 41.66666666668607,
      "v": 64
    },
    {
      "midi": 77,
      "hit": false,
      "t": 275354.1666666661,
      "d": 151.04166666662786,
      "v": 74
    },
    {
      "midi": 43,
      "hit": false,
      "t": 275390.6249999994,
      "d": 208.33333333331393,
      "v": 62
    },
    {
      "midi": 79,
      "hit": false,
      "t": 275471.35416666605,
      "d": 192.70833333337214,
      "v": 102
    },
    {
      "midi": 58,
      "hit": false,
      "t": 275486.97916666605,
      "d": 250.0000000000582,
      "v": 61
    },
    {
      "midi": 77,
      "hit": false,
      "t": 275593.7499999994,
      "d": 177.08333333337214,
      "v": 71
    },
    {
      "midi": 76,
      "hit": false,
      "t": 275721.3541666661,
      "d": 166.66666666668607,
      "v": 75
    },
    {
      "midi": 74,
      "hit": false,
      "t": 275854.1666666661,
      "d": 122.39583333337214,
      "v": 72
    },
    {
      "midi": 72,
      "hit": false,
      "t": 275966.1458333328,
      "d": 46.875,
      "v": 81
    },
    {
      "midi": 48,
      "hit": false,
      "t": 275966.1458333328,
      "d": 1148.4375000001164,
      "v": 55
    },
    {
      "midi": 72,
      "hit": false,
      "t": 276247.3958333328,
      "d": 138.02083333337214,
      "v": 75
    },
    {
      "midi": 64,
      "hit": false,
      "t": 276255.2083333328,
      "d": 182.29166666668607,
      "v": 68
    },
    {
      "midi": 60,
      "hit": false,
      "t": 276265.6249999995,
      "d": 234.375,
      "v": 52
    },
    {
      "midi": 69,
      "hit": false,
      "t": 276268.22916666616,
      "d": 104.16666666668607,
      "v": 37
    },
    {
      "midi": 57,
      "hit": false,
      "t": 276268.22916666616,
      "d": 226.5625,
      "v": 42
    },
    {
      "midi": 76,
      "hit": false,
      "t": 276364.58333333285,
      "d": 184.89583333331393,
      "v": 72
    },
    {
      "midi": 72,
      "hit": false,
      "t": 276510.41666666616,
      "d": 145.83333333331393,
      "v": 67
    },
    {
      "midi": 72,
      "hit": false,
      "t": 276789.0624999995,
      "d": 135.41666666674428,
      "v": 55
    },
    {
      "midi": 58,
      "hit": false,
      "t": 276791.66666666616,
      "d": 359.3750000001164,
      "v": 31
    },
    {
      "midi": 65,
      "hit": false,
      "t": 276802.08333333285,
      "d": 205.72916666668607,
      "v": 48
    },
    {
      "midi": 69,
      "hit": false,
      "t": 276804.68749999953,
      "d": 80.72916666668607,
      "v": 32
    },
    {
      "midi": 62,
      "hit": false,
      "t": 276804.68749999953,
      "d": 343.7500000000582,
      "v": 46
    },
    {
      "midi": 76,
      "hit": false,
      "t": 276906.24999999953,
      "d": 169.27083333337214,
      "v": 59
    },
    {
      "midi": 72,
      "hit": false,
      "t": 277057.2916666662,
      "d": 93.75000000005821,
      "v": 59
    },
    {
      "midi": 69,
      "hit": false,
      "t": 277317.70833333296,
      "d": 122.39583333337214,
      "v": 55
    },
    {
      "midi": 64,
      "hit": false,
      "t": 277333.33333333296,
      "d": 216.14583333337214,
      "v": 48
    },
    {
      "midi": 60,
      "hit": false,
      "t": 277343.74999999965,
      "d": 260.41666666662786,
      "v": 42
    },
    {
      "midi": 70,
      "hit": false,
      "t": 277440.10416666634,
      "d": 130.20833333331393,
      "v": 61
    },
    {
      "midi": 72,
      "hit": false,
      "t": 277583.33333333296,
      "d": 184.89583333331393,
      "v": 72
    },
    {
      "midi": 70,
      "hit": false,
      "t": 277697.9166666663,
      "d": 195.3125,
      "v": 61
    },
    {
      "midi": 69,
      "hit": false,
      "t": 277820.3124999996,
      "d": 177.08333333337214,
      "v": 66
    },
    {
      "midi": 67,
      "hit": false,
      "t": 277955.7291666663,
      "d": 119.79166666668607,
      "v": 70
    },
    {
      "midi": 65,
      "hit": false,
      "t": 278080.7291666663,
      "d": 54.6875,
      "v": 81
    },
    {
      "midi": 72,
      "hit": false,
      "t": 278203.1249999996,
      "d": 158.85416666668607,
      "v": 89
    },
    {
      "midi": 74,
      "hit": false,
      "t": 278317.70833333296,
      "d": 213.54166666662786,
      "v": 89
    },
    {
      "midi": 76,
      "hit": false,
      "t": 278447.9166666663,
      "d": 109.375,
      "v": 79
    },
    {
      "midi": 41,
      "hit": false,
      "t": 278580.7291666663,
      "d": 67.70833333331393,
      "v": 63
    },
    {
      "midi": 77,
      "hit": false,
      "t": 278585.9374999996,
      "d": 333.33333333331393,
      "v": 101
    },
    {
      "midi": 57,
      "hit": false,
      "t": 278593.7499999996,
      "d": 96.35416666662786,
      "v": 47
    },
    {
      "midi": 65,
      "hit": false,
      "t": 278596.3541666663,
      "d": 294.27083333331393,
      "v": 78
    },
    {
      "midi": 72,
      "hit": false,
      "t": 278872.3958333329,
      "d": 130.20833333337214,
      "v": 63
    },
    {
      "midi": 69,
      "hit": false,
      "t": 278880.2083333329,
      "d": 88.54166666668607,
      "v": 40
    },
    {
      "midi": 46,
      "hit": false,
      "t": 279046.8749999996,
      "d": 59.89583333331393,
      "v": 52
    },
    {
      "midi": 77,
      "hit": false,
      "t": 279109.3749999996,
      "d": 268.22916666662786,
      "v": 101
    },
    {
      "midi": 65,
      "hit": false,
      "t": 279124.9999999996,
      "d": 145.83333333331393,
      "v": 76
    },
    {
      "midi": 62,
      "hit": false,
      "t": 279158.8541666663,
      "d": 52.08333333331393,
      "v": 75
    },
    {
      "midi": 70,
      "hit": false,
      "t": 279338.5416666662,
      "d": 46.875,
      "v": 51
    },
    {
      "midi": 74,
      "hit": false,
      "t": 279343.74999999953,
      "d": 44.27083333337214,
      "v": 74
    },
    {
      "midi": 77,
      "hit": false,
      "t": 279476.5624999996,
      "d": 169.27083333331393,
      "v": 74
    },
    {
      "midi": 43,
      "hit": false,
      "t": 279536.4583333329,
      "d": 213.54166666668607,
      "v": 48
    },
    {
      "midi": 79,
      "hit": false,
      "t": 279614.5833333329,
      "d": 195.3125,
      "v": 100
    },
    {
      "midi": 58,
      "hit": false,
      "t": 279635.4166666662,
      "d": 234.375,
      "v": 58
    },
    {
      "midi": 77,
      "hit": false,
      "t": 279739.5833333329,
      "d": 166.66666666668607,
      "v": 71
    },
    {
      "midi": 76,
      "hit": false,
      "t": 279872.3958333329,
      "d": 132.8125000000582,
      "v": 72
    },
    {
      "midi": 74,
      "hit": false,
      "t": 279994.7916666663,
      "d": 122.39583333337214,
      "v": 73
    },
    {
      "midi": 72,
      "hit": false,
      "t": 280119.79166666634,
      "d": 54.6875,
      "v": 81
    },
    {
      "midi": 48,
      "hit": false,
      "t": 280119.79166666634,
      "d": 1122.3958333334303,
      "v": 60
    },
    {
      "midi": 72,
      "hit": false,
      "t": 280414.06249999965,
      "d": 148.4375,
      "v": 79
    },
    {
      "midi": 57,
      "hit": false,
      "t": 280419.27083333296,
      "d": 226.5625,
      "v": 44
    },
    {
      "midi": 60,
      "hit": false,
      "t": 280419.27083333296,
      "d": 252.60416666668607,
      "v": 51
    },
    {
      "midi": 69,
      "hit": false,
      "t": 280427.08333333296,
      "d": 70.3125,
      "v": 47
    },
    {
      "midi": 64,
      "hit": false,
      "t": 280429.68749999965,
      "d": 106.77083333331393,
      "v": 59
    },
    {
      "midi": 76,
      "hit": false,
      "t": 280533.8541666663,
      "d": 166.66666666668607,
      "v": 60
    },
    {
      "midi": 72,
      "hit": false,
      "t": 280677.08333333296,
      "d": 143.22916666668607,
      "v": 63
    },
    {
      "midi": 72,
      "hit": false,
      "t": 280958.333333333,
      "d": 164.0625000000582,
      "v": 61
    },
    {
      "midi": 58,
      "hit": false,
      "t": 280960.9374999997,
      "d": 348.95833333337214,
      "v": 17
    },
    {
      "midi": 65,
      "hit": false,
      "t": 280963.5416666664,
      "d": 156.25,
      "v": 49
    },
    {
      "midi": 62,
      "hit": false,
      "t": 280963.5416666664,
      "d": 346.35416666668607,
      "v": 42
    },
    {
      "midi": 69,
      "hit": false,
      "t": 280973.9583333331,
      "d": 85.9375,
      "v": 22
    },
    {
      "midi": 76,
      "hit": false,
      "t": 281104.1666666664,
      "d": 169.27083333337214,
      "v": 56
    },
    {
      "midi": 72,
      "hit": false,
      "t": 281221.35416666645,
      "d": 153.64583333331393,
      "v": 51
    },
    {
      "midi": 69,
      "hit": false,
      "t": 281489.5833333331,
      "d": 135.41666666668607,
      "v": 52
    },
    {
      "midi": 64,
      "hit": false,
      "t": 281528.6458333331,
      "d": 125,
      "v": 31
    },
    {
      "midi": 60,
      "hit": false,
      "t": 281536.4583333331,
      "d": 127.60416666668607,
      "v": 23
    },
    {
      "midi": 70,
      "hit": false,
      "t": 281624.99999999977,
      "d": 132.8125,
      "v": 49
    },
    {
      "midi": 72,
      "hit": false,
      "t": 281763.0208333331,
      "d": 148.4375,
      "v": 59
    },
    {
      "midi": 70,
      "hit": false,
      "t": 281893.2291666664,
      "d": 190.10416666668607,
      "v": 51
    },
    {
      "midi": 69,
      "hit": false,
      "t": 282033.8541666664,
      "d": 148.4375,
      "v": 56
    },
    {
      "midi": 67,
      "hit": false,
      "t": 282166.6666666664,
      "d": 218.75,
      "v": 69
    },
    {
      "midi": 58,
      "hit": false,
      "t": 282343.74999999977,
      "d": 440.10416666668607,
      "v": 21
    },
    {
      "midi": 69,
      "hit": false,
      "t": 282372.3958333331,
      "d": 557.2916666667443,
      "v": 54
    },
    {
      "midi": 57,
      "hit": false,
      "t": 282385.4166666664,
      "d": 330.72916666668607,
      "v": 25
    },
    {
      "midi": 64,
      "hit": false,
      "t": 282682.2916666664,
      "d": 244.79166666674428,
      "v": 34
    },
    {
      "midi": 60,
      "hit": false,
      "t": 282734.37499999977,
      "d": 182.29166666668607,
      "v": 29
    },
    {
      "midi": 69,
      "hit": false,
      "t": 282994.7916666665,
      "d": 476.5624999999418,
      "v": 53
    },
    {
      "midi": 58,
      "hit": false,
      "t": 283041.6666666665,
      "d": 315.10416666662786,
      "v": 13
    },
    {
      "midi": 57,
      "hit": false,
      "t": 283078.1249999998,
      "d": 106.77083333331393,
      "v": 23
    },
    {
      "midi": 65,
      "hit": false,
      "t": 283302.08333333314,
      "d": 197.91666666662786,
      "v": 29
    },
    {
      "midi": 62,
      "hit": false,
      "t": 283315.10416666645,
      "d": 184.89583333331393,
      "v": 25
    },
    {
      "midi": 58,
      "hit": false,
      "t": 283632.81249999977,
      "d": 406.2500000000582,
      "v": 20
    },
    {
      "midi": 69,
      "hit": false,
      "t": 283635.41666666645,
      "d": 992.1875000000582,
      "v": 41
    },
    {
      "midi": 57,
      "hit": false,
      "t": 283682.29166666645,
      "d": 255.20833333331393,
      "v": 22
    },
    {
      "midi": 64,
      "hit": false,
      "t": 283963.54166666645,
      "d": 177.08333333337214,
      "v": 28
    },
    {
      "midi": 60,
      "hit": false,
      "t": 283981.77083333314,
      "d": 203.125,
      "v": 16
    },
    {
      "midi": 58,
      "hit": false,
      "t": 284270.83333333314,
      "d": 304.6875,
      "v": 15
    },
    {
      "midi": 57,
      "hit": false,
      "t": 284322.91666666645,
      "d": 145.83333333331393,
      "v": 23
    },
    {
      "midi": 67,
      "hit": false,
      "t": 284565.10416666645,
      "d": 367.1875000000582,
      "v": 54
    },
    {
      "midi": 65,
      "hit": false,
      "t": 284598.95833333314,
      "d": 187.5000000000582,
      "v": 24
    },
    {
      "midi": 62,
      "hit": false,
      "t": 284609.3749999998,
      "d": 234.3750000000582,
      "v": 19
    },
    {
      "midi": 69,
      "hit": false,
      "t": 284864.5833333332,
      "d": 364.5833333331975,
      "v": 48
    },
    {
      "midi": 58,
      "hit": false,
      "t": 284872.3958333332,
      "d": 343.7499999998836,
      "v": 19
    },
    {
      "midi": 57,
      "hit": false,
      "t": 284924.4791666665,
      "d": 221.35416666662786,
      "v": 21
    },
    {
      "midi": 67,
      "hit": false,
      "t": 285166.66666666645,
      "d": 333.3333333332557,
      "v": 51
    },
    {
      "midi": 60,
      "hit": false,
      "t": 285197.91666666645,
      "d": 249.9999999999418,
      "v": 23
    },
    {
      "midi": 64,
      "hit": false,
      "t": 285203.12499999977,
      "d": 174.47916666662786,
      "v": 15
    },
    {
      "midi": 69,
      "hit": false,
      "t": 285471.3541666664,
      "d": 312.5,
      "v": 41
    },
    {
      "midi": 58,
      "hit": false,
      "t": 285484.3749999997,
      "d": 302.08333333337214,
      "v": 21
    },
    {
      "midi": 57,
      "hit": false,
      "t": 285575.5208333331,
      "d": 119.79166666668607,
      "v": 9
    },
    {
      "midi": 72,
      "hit": false,
      "t": 285770.8333333331,
      "d": 341.14583333331393,
      "v": 44
    },
    {
      "midi": 65,
      "hit": false,
      "t": 285783.8541666664,
      "d": 210.9375,
      "v": 23
    },
    {
      "midi": 62,
      "hit": false,
      "t": 285791.6666666664,
      "d": 265.625,
      "v": 21
    },
    {
      "midi": 69,
      "hit": false,
      "t": 286083.3333333331,
      "d": 971.3541666666279,
      "v": 37
    },
    {
      "midi": 58,
      "hit": false,
      "t": 286096.3541666664,
      "d": 328.125,
      "v": 19
    },
    {
      "midi": 57,
      "hit": false,
      "t": 286158.8541666664,
      "d": 210.9375,
      "v": 13
    },
    {
      "midi": 64,
      "hit": false,
      "t": 286401.0416666664,
      "d": 210.9375,
      "v": 23
    },
    {
      "midi": 60,
      "hit": false,
      "t": 286414.0624999997,
      "d": 221.35416666668607,
      "v": 14
    },
    {
      "midi": 58,
      "hit": false,
      "t": 286695.3124999997,
      "d": 307.29166666668607,
      "v": 20
    },
    {
      "midi": 57,
      "hit": false,
      "t": 286768.2291666664,
      "d": 111.97916666668607,
      "v": 10
    },
    {
      "midi": 67,
      "hit": false,
      "t": 287031.2499999997,
      "d": 320.3125000000582,
      "v": 52
    },
    {
      "midi": 65,
      "hit": false,
      "t": 287057.2916666664,
      "d": 200.52083333337214,
      "v": 23
    },
    {
      "midi": 62,
      "hit": false,
      "t": 287072.9166666664,
      "d": 111.97916666668607,
      "v": 18
    },
    {
      "midi": 58,
      "hit": false,
      "t": 287317.7083333331,
      "d": 354.1666666667443,
      "v": 23
    },
    {
      "midi": 69,
      "hit": false,
      "t": 287328.12499999977,
      "d": 322.91666666668607,
      "v": 57
    },
    {
      "midi": 57,
      "hit": false,
      "t": 287382.81249999977,
      "d": 148.4375,
      "v": 25
    },
    {
      "midi": 67,
      "hit": false,
      "t": 287635.41666666645,
      "d": 307.2916666667443,
      "v": 63
    },
    {
      "midi": 64,
      "hit": false,
      "t": 287669.27083333314,
      "d": 184.89583333337214,
      "v": 26
    },
    {
      "midi": 60,
      "hit": false,
      "t": 287687.4999999998,
      "d": 231.77083333337214,
      "v": 20
    },
    {
      "midi": 69,
      "hit": false,
      "t": 287934.8958333332,
      "d": 289.0625,
      "v": 63
    },
    {
      "midi": 58,
      "hit": false,
      "t": 287947.9166666665,
      "d": 307.29166666668607,
      "v": 20
    },
    {
      "midi": 57,
      "hit": false,
      "t": 288007.8124999999,
      "d": 179.6875,
      "v": 17
    },
    {
      "midi": 74,
      "hit": false,
      "t": 288210.9374999999,
      "d": 114.58333333331393,
      "v": 67
    },
    {
      "midi": 62,
      "hit": false,
      "t": 288231.7708333332,
      "d": 291.6666666667443,
      "v": 29
    },
    {
      "midi": 65,
      "hit": false,
      "t": 288239.5833333332,
      "d": 270.83333333337214,
      "v": 27
    },
    {
      "midi": 72,
      "hit": false,
      "t": 288398.4374999999,
      "d": 54.6875,
      "v": 48
    },
    {
      "midi": 74,
      "hit": false,
      "t": 288442.7083333332,
      "d": 111.97916666674428,
      "v": 58
    },
    {
      "midi": 58,
      "hit": false,
      "t": 288513.02083333326,
      "d": 346.35416666668607,
      "v": 26
    },
    {
      "midi": 72,
      "hit": false,
      "t": 288520.83333333326,
      "d": 190.10416666668607,
      "v": 67
    },
    {
      "midi": 57,
      "hit": false,
      "t": 288578.12499999994,
      "d": 187.5,
      "v": 23
    },
    {
      "midi": 70,
      "hit": false,
      "t": 288656.24999999994,
      "d": 164.0625,
      "v": 54
    },
    {
      "midi": 69,
      "hit": false,
      "t": 288804.68749999994,
      "d": 153.64583333331393,
      "v": 46
    },
    {
      "midi": 60,
      "hit": false,
      "t": 288835.93749999994,
      "d": 309.89583333331393,
      "v": 20
    },
    {
      "midi": 64,
      "hit": false,
      "t": 288843.74999999994,
      "d": 182.29166666662786,
      "v": 30
    },
    {
      "midi": 67,
      "hit": false,
      "t": 288958.33333333326,
      "d": 161.45833333331393,
      "v": 56
    },
    {
      "midi": 69,
      "hit": false,
      "t": 289143.22916666657,
      "d": 187.5000000000582,
      "v": 49
    },
    {
      "midi": 58,
      "hit": false,
      "t": 289156.24999999994,
      "d": 354.16666666668607,
      "v": 23
    },
    {
      "midi": 57,
      "hit": false,
      "t": 289187.49999999994,
      "d": 174.47916666668607,
      "v": 21
    },
    {
      "midi": 69,
      "hit": false,
      "t": 289497.3958333333,
      "d": 96.35416666662786,
      "v": 39
    },
    {
      "midi": 65,
      "hit": false,
      "t": 289505.2083333333,
      "d": 260.41666666662786,
      "v": 23
    },
    {
      "midi": 62,
      "hit": false,
      "t": 289523.43749999994,
      "d": 161.45833333331393,
      "v": 20
    },
    {
      "midi": 69,
      "hit": false,
      "t": 289848.95833333326,
      "d": 471.35416666668607,
      "v": 41
    },
    {
      "midi": 58,
      "hit": false,
      "t": 289861.97916666657,
      "d": 398.4375000000582,
      "v": 18
    },
    {
      "midi": 57,
      "hit": false,
      "t": 289927.08333333326,
      "d": 221.35416666668607,
      "v": 20
    },
    {
      "midi": 60,
      "hit": false,
      "t": 290229.1666666666,
      "d": 239.58333333331393,
      "v": 11
    },
    {
      "midi": 64,
      "hit": false,
      "t": 290234.37499999994,
      "d": 114.58333333331393,
      "v": 13
    },
    {
      "midi": 69,
      "hit": false,
      "t": 290494.7916666666,
      "d": 403.64583333331393,
      "v": 29
    },
    {
      "midi": 58,
      "hit": false,
      "t": 290523.43749999994,
      "d": 286.45833333331393,
      "v": 13
    },
    {
      "midi": 57,
      "hit": false,
      "t": 290578.12499999994,
      "d": 109.375,
      "v": 12
    },
    {
      "midi": 65,
      "hit": false,
      "t": 290833.33333333326,
      "d": 200.52083333331393,
      "v": 19
    },
    {
      "midi": 62,
      "hit": false,
      "t": 290872.39583333326,
      "d": 117.1875,
      "v": 13
    },
    {
      "midi": 69,
      "hit": false,
      "t": 291119.79166666657,
      "d": 932.2916666666279,
      "v": 28
    },
    {
      "midi": 58,
      "hit": false,
      "t": 291132.8124999999,
      "d": 263.02083333331393,
      "v": 18
    },
    {
      "midi": 57,
      "hit": false,
      "t": 291200.5208333332,
      "d": 101.5625,
      "v": 11
    },
    {
      "midi": 60,
      "hit": false,
      "t": 291447.9166666665,
      "d": 242.1875,
      "v": 14
    },
    {
      "midi": 64,
      "hit": false,
      "t": 291479.1666666665,
      "d": 114.58333333331393,
      "v": 23
    },
    {
      "midi": 58,
      "hit": false,
      "t": 291739.5833333332,
      "d": 244.79166666662786,
      "v": 15
    },
    {
      "midi": 57,
      "hit": false,
      "t": 291791.6666666665,
      "d": 85.9375,
      "v": 20
    },
    {
      "midi": 67,
      "hit": false,
      "t": 292041.6666666665,
      "d": 343.75,
      "v": 47
    },
    {
      "midi": 65,
      "hit": false,
      "t": 292070.3124999999,
      "d": 187.5,
      "v": 27
    },
    {
      "midi": 62,
      "hit": false,
      "t": 292098.9583333332,
      "d": 203.125,
      "v": 17
    },
    {
      "midi": 69,
      "hit": false,
      "t": 292333.3333333332,
      "d": 325.52083333331393,
      "v": 42
    },
    {
      "midi": 58,
      "hit": false,
      "t": 292348.9583333332,
      "d": 309.89583333331393,
      "v": 20
    },
    {
      "midi": 57,
      "hit": false,
      "t": 292437.4999999998,
      "d": 114.58333333331393,
      "v": 8
    },
    {
      "midi": 67,
      "hit": false,
      "t": 292632.8124999998,
      "d": 335.9375,
      "v": 52
    },
    {
      "midi": 64,
      "hit": false,
      "t": 292679.6874999998,
      "d": 164.0625,
      "v": 22
    },
    {
      "midi": 60,
      "hit": false,
      "t": 292679.6874999998,
      "d": 257.8125,
      "v": 19
    },
    {
      "midi": 58,
      "hit": false,
      "t": 292934.89583333314,
      "d": 341.14583333337214,
      "v": 21
    },
    {
      "midi": 69,
      "hit": false,
      "t": 292937.4999999998,
      "d": 291.66666666668607,
      "v": 40
    },
    {
      "midi": 57,
      "hit": false,
      "t": 293028.64583333314,
      "d": 132.8125,
      "v": 10
    },
    {
      "midi": 72,
      "hit": false,
      "t": 293226.5624999998,
      "d": 312.4999999999418,
      "v": 38
    },
    {
      "midi": 65,
      "hit": false,
      "t": 293270.8333333332,
      "d": 182.29166666662786,
      "v": 21
    },
    {
      "midi": 62,
      "hit": false,
      "t": 293304.6874999998,
      "d": 216.14583333331393,
      "v": 17
    },
    {
      "midi": 69,
      "hit": false,
      "t": 293520.83333333314,
      "d": 1182.2916666665697,
      "v": 36
    },
    {
      "midi": 58,
      "hit": false,
      "t": 293533.85416666645,
      "d": 283.85416666662786,
      "v": 26
    },
    {
      "midi": 57,
      "hit": false,
      "t": 293630.2083333331,
      "d": 127.60416666668607,
      "v": 8
    },
    {
      "midi": 64,
      "hit": false,
      "t": 293841.1458333331,
      "d": 179.6875,
      "v": 33
    },
    {
      "midi": 60,
      "hit": false,
      "t": 293854.1666666664,
      "d": 226.5625,
      "v": 8
    },
    {
      "midi": 58,
      "hit": false,
      "t": 294096.3541666664,
      "d": 299.47916666668607,
      "v": 23
    },
    {
      "midi": 57,
      "hit": false,
      "t": 294153.6458333331,
      "d": 85.9375,
      "v": 25
    },
    {
      "midi": 65,
      "hit": false,
      "t": 294427.0833333331,
      "d": 179.6875,
      "v": 16
    },
    {
      "midi": 62,
      "hit": false,
      "t": 294427.0833333331,
      "d": 239.58333333331393,
      "v": 20
    },
    {
      "midi": 58,
      "hit": false,
      "t": 294703.1249999997,
      "d": 325.52083333343035,
      "v": 20
    },
    {
      "midi": 57,
      "hit": false,
      "t": 294744.7916666664,
      "d": 239.58333333337214,
      "v": 25
    },
    {
      "midi": 64,
      "hit": false,
      "t": 295018.22916666645,
      "d": 221.35416666668607,
      "v": 24
    },
    {
      "midi": 60,
      "hit": false,
      "t": 295020.83333333314,
      "d": 278.64583333331393,
      "v": 28
    },
    {
      "midi": 67,
      "hit": false,
      "t": 295302.08333333314,
      "d": 286.4583333332557,
      "v": 61
    },
    {
      "midi": 58,
      "hit": false,
      "t": 295315.10416666645,
      "d": 296.8749999999418,
      "v": 24
    },
    {
      "midi": 57,
      "hit": false,
      "t": 295401.04166666645,
      "d": 114.58333333331393,
      "v": 13
    },
    {
      "midi": 69,
      "hit": false,
      "t": 295572.9166666664,
      "d": 80.72916666668607,
      "v": 34
    },
    {
      "midi": 65,
      "hit": false,
      "t": 295617.1874999997,
      "d": 236.97916666674428,
      "v": 27
    },
    {
      "midi": 62,
      "hit": false,
      "t": 295635.4166666664,
      "d": 250.0000000000582,
      "v": 24
    },
    {
      "midi": 67,
      "hit": false,
      "t": 295674.4791666664,
      "d": 75.52083333337214,
      "v": 47
    },
    {
      "midi": 69,
      "hit": false,
      "t": 295739.5833333331,
      "d": 83.33333333337214,
      "v": 41
    },
    {
      "midi": 67,
      "hit": false,
      "t": 295846.35416666645,
      "d": 70.31249999994179,
      "v": 39
    },
    {
      "midi": 58,
      "hit": false,
      "t": 295890.62499999977,
      "d": 309.8958333332557,
      "v": 24
    },
    {
      "midi": 69,
      "hit": false,
      "t": 295903.6458333331,
      "d": 67.70833333331393,
      "v": 46
    },
    {
      "midi": 57,
      "hit": false,
      "t": 295945.3124999997,
      "d": 96.35416666668607,
      "v": 23
    },
    {
      "midi": 67,
      "hit": false,
      "t": 295999.9999999997,
      "d": 72.91666666668607,
      "v": 42
    },
    {
      "midi": 69,
      "hit": false,
      "t": 296065.1041666664,
      "d": 70.3125,
      "v": 37
    },
    {
      "midi": 67,
      "hit": false,
      "t": 296179.6874999997,
      "d": 213.54166666662786,
      "v": 25
    },
    {
      "midi": 69,
      "hit": false,
      "t": 296218.7499999997,
      "d": 83.33333333331393,
      "v": 41
    },
    {
      "midi": 64,
      "hit": false,
      "t": 296218.7499999997,
      "d": 104.16666666662786,
      "v": 30
    },
    {
      "midi": 60,
      "hit": false,
      "t": 296218.7499999997,
      "d": 231.77083333331393,
      "v": 22
    },
    {
      "midi": 69,
      "hit": false,
      "t": 296385.41666666634,
      "d": 67.70833333337214,
      "v": 43
    },
    {
      "midi": 58,
      "hit": false,
      "t": 296453.1249999997,
      "d": 335.9375,
      "v": 25
    },
    {
      "midi": 67,
      "hit": false,
      "t": 296458.333333333,
      "d": 83.33333333331393,
      "v": 31
    },
    {
      "midi": 57,
      "hit": false,
      "t": 296518.22916666634,
      "d": 85.9375,
      "v": 24
    },
    {
      "midi": 69,
      "hit": false,
      "t": 296531.24999999965,
      "d": 234.3750000000582,
      "v": 37
    },
    {
      "midi": 67,
      "hit": false,
      "t": 296598.958333333,
      "d": 78.125,
      "v": 15
    },
    {
      "midi": 67,
      "hit": false,
      "t": 296770.833333333,
      "d": 156.25,
      "v": 17
    },
    {
      "midi": 65,
      "hit": false,
      "t": 296781.2499999997,
      "d": 239.58333333331393,
      "v": 28
    },
    {
      "midi": 62,
      "hit": false,
      "t": 296789.0624999997,
      "d": 234.375,
      "v": 29
    },
    {
      "midi": 58,
      "hit": false,
      "t": 297080.7291666664,
      "d": 330.7291666667443,
      "v": 26
    },
    {
      "midi": 57,
      "hit": false,
      "t": 297135.4166666664,
      "d": 218.7500000000582,
      "v": 18
    },
    {
      "midi": 64,
      "hit": false,
      "t": 297406.24999999977,
      "d": 250.0000000000582,
      "v": 25
    },
    {
      "midi": 60,
      "hit": false,
      "t": 297408.85416666645,
      "d": 281.2500000000582,
      "v": 27
    },
    {
      "midi": 58,
      "hit": false,
      "t": 297682.2916666665,
      "d": 325.52083333343035,
      "v": 25
    },
    {
      "midi": 67,
      "hit": false,
      "t": 297700.5208333332,
      "d": 80.72916666668607,
      "v": 28
    },
    {
      "midi": 57,
      "hit": false,
      "t": 297757.8124999999,
      "d": 98.95833333337214,
      "v": 15
    },
    {
      "midi": 69,
      "hit": false,
      "t": 297770.8333333332,
      "d": 75.52083333337214,
      "v": 32
    },
    {
      "midi": 67,
      "hit": false,
      "t": 297893.22916666657,
      "d": 208.33333333337214,
      "v": 17
    },
    {
      "midi": 69,
      "hit": false,
      "t": 297919.27083333326,
      "d": 85.9375,
      "v": 47
    },
    {
      "midi": 65,
      "hit": false,
      "t": 297989.58333333326,
      "d": 231.77083333337214,
      "v": 20
    },
    {
      "midi": 62,
      "hit": false,
      "t": 298020.83333333326,
      "d": 250.0000000000582,
      "v": 24
    },
    {
      "midi": 69,
      "hit": false,
      "t": 298098.95833333326,
      "d": 80.72916666668607,
      "v": 34
    },
    {
      "midi": 67,
      "hit": false,
      "t": 298148.43749999994,
      "d": 88.54166666668607,
      "v": 29
    },
    {
      "midi": 69,
      "hit": false,
      "t": 298244.7916666666,
      "d": 109.37500000005821,
      "v": 24
    },
    {
      "midi": 58,
      "hit": false,
      "t": 298286.4583333333,
      "d": 294.27083333337214,
      "v": 23
    },
    {
      "midi": 67,
      "hit": false,
      "t": 298312.5,
      "d": 83.33333333337214,
      "v": 59
    },
    {
      "midi": 57,
      "hit": false,
      "t": 298322.9166666667,
      "d": 197.91666666668607,
      "v": 16
    },
    {
      "midi": 69,
      "hit": false,
      "t": 298416.6666666667,
      "d": 109.375,
      "v": 24
    },
    {
      "midi": 67,
      "hit": false,
      "t": 298497.3958333334,
      "d": 75.52083333331393,
      "v": 36
    },
    {
      "midi": 69,
      "hit": false,
      "t": 298552.0833333334,
      "d": 80.72916666668607,
      "v": 29
    },
    {
      "midi": 64,
      "hit": false,
      "t": 298598.9583333334,
      "d": 192.70833333337214,
      "v": 25
    },
    {
      "midi": 60,
      "hit": false,
      "t": 298622.3958333334,
      "d": 244.79166666674428,
      "v": 16
    },
    {
      "midi": 67,
      "hit": false,
      "t": 298658.85416666674,
      "d": 70.3125,
      "v": 14
    },
    {
      "midi": 69,
      "hit": false,
      "t": 298718.75000000006,
      "d": 75.52083333337214,
      "v": 41
    },
    {
      "midi": 67,
      "hit": false,
      "t": 298786.45833333343,
      "d": 80.72916666668607,
      "v": 21
    },
    {
      "midi": 58,
      "hit": false,
      "t": 298859.3750000001,
      "d": 265.625,
      "v": 22
    },
    {
      "midi": 69,
      "hit": false,
      "t": 298895.83333333343,
      "d": 380.20833333331393,
      "v": 23
    },
    {
      "midi": 67,
      "hit": false,
      "t": 298955.72916666674,
      "d": 67.70833333337214,
      "v": 46
    },
    {
      "midi": 57,
      "hit": false,
      "t": 298973.95833333343,
      "d": 229.16666666668607,
      "v": 3
    },
    {
      "midi": 67,
      "hit": false,
      "t": 299117.1875000001,
      "d": 195.3124999999418,
      "v": 22
    },
    {
      "midi": 65,
      "hit": false,
      "t": 299197.9166666668,
      "d": 62.49999999994179,
      "v": 21
    },
    {
      "midi": 62,
      "hit": false,
      "t": 299216.14583333343,
      "d": 59.89583333331393,
      "v": 24
    },
    {
      "midi": 58,
      "hit": false,
      "t": 299690.10416666674,
      "d": 223.95833333337214,
      "v": 27
    },
    {
      "midi": 69,
      "hit": false,
      "t": 299692.70833333343,
      "d": 380.20833333337214,
      "v": 27
    },
    {
      "midi": 81,
      "hit": false,
      "t": 299692.70833333343,
      "d": 411.45833333337214,
      "v": 54
    },
    {
      "midi": 43,
      "hit": false,
      "t": 299718.7500000001,
      "d": 276.04166666668607,
      "v": 7
    },
    {
      "midi": 76,
      "hit": false,
      "t": 300041.6666666668,
      "d": 296.875,
      "v": 18
    },
    {
      "midi": 74,
      "hit": false,
      "t": 300052.0833333335,
      "d": 231.77083333331393,
      "v": 32
    },
    {
      "midi": 81,
      "hit": false,
      "t": 300328.1250000001,
      "d": 252.60416666662786,
      "v": 66
    },
    {
      "midi": 50,
      "hit": false,
      "t": 300335.9375000001,
      "d": 177.08333333331393,
      "v": 19
    },
    {
      "midi": 36,
      "hit": false,
      "t": 300338.5416666668,
      "d": 91.14583333331393,
      "v": 25
    },
    {
      "midi": 69,
      "hit": false,
      "t": 300338.5416666668,
      "d": 265.6249999999418,
      "v": 34
    },
    {
      "midi": 72,
      "hit": false,
      "t": 300625.00000000006,
      "d": 114.58333333331393,
      "v": 22
    },
    {
      "midi": 76,
      "hit": false,
      "t": 300656.25000000006,
      "d": 184.89583333331393,
      "v": 21
    },
    {
      "midi": 58,
      "hit": false,
      "t": 300906.25000000006,
      "d": 171.875,
      "v": 42
    },
    {
      "midi": 81,
      "hit": false,
      "t": 300911.4583333334,
      "d": 664.0625,
      "v": 58
    },
    {
      "midi": 69,
      "hit": false,
      "t": 300911.4583333334,
      "d": 723.9583333333139,
      "v": 33
    },
    {
      "midi": 43,
      "hit": false,
      "t": 300942.7083333334,
      "d": 234.375,
      "v": 12
    },
    {
      "midi": 76,
      "hit": false,
      "t": 301231.7708333334,
      "d": 156.25,
      "v": 17
    },
    {
      "midi": 74,
      "hit": false,
      "t": 301247.3958333334,
      "d": 96.35416666668607,
      "v": 16
    },
    {
      "midi": 50,
      "hit": false,
      "t": 301520.8333333334,
      "d": 148.4375,
      "v": 22
    },
    {
      "midi": 79,
      "hit": false,
      "t": 301791.6666666667,
      "d": 184.89583333337214,
      "v": 73
    },
    {
      "midi": 67,
      "hit": false,
      "t": 301802.0833333334,
      "d": 119.79166666668607,
      "v": 39
    },
    {
      "midi": 81,
      "hit": false,
      "t": 302085.93750000006,
      "d": 171.8750000000582,
      "v": 70
    },
    {
      "midi": 69,
      "hit": false,
      "t": 302088.54166666674,
      "d": 143.22916666668607,
      "v": 44
    },
    {
      "midi": 58,
      "hit": false,
      "t": 302104.16666666674,
      "d": 148.4375000000582,
      "v": 29
    },
    {
      "midi": 43,
      "hit": false,
      "t": 302111.97916666674,
      "d": 221.35416666668607,
      "v": 20
    },
    {
      "midi": 79,
      "hit": false,
      "t": 302369.79166666674,
      "d": 161.45833333331393,
      "v": 74
    },
    {
      "midi": 67,
      "hit": false,
      "t": 302377.60416666674,
      "d": 109.375,
      "v": 51
    },
    {
      "midi": 81,
      "hit": false,
      "t": 302666.66666666674,
      "d": 130.20833333331393,
      "v": 66
    },
    {
      "midi": 69,
      "hit": false,
      "t": 302677.08333333343,
      "d": 78.125,
      "v": 36
    },
    {
      "midi": 36,
      "hit": false,
      "t": 302690.10416666674,
      "d": 78.125,
      "v": 19
    },
    {
      "midi": 50,
      "hit": false,
      "t": 302697.91666666674,
      "d": 135.41666666662786,
      "v": 6
    },
    {
      "midi": 84,
      "hit": false,
      "t": 302958.3333333334,
      "d": 54.6875,
      "v": 68
    },
    {
      "midi": 72,
      "hit": false,
      "t": 302968.75000000006,
      "d": 93.75,
      "v": 32
    },
    {
      "midi": 81,
      "hit": false,
      "t": 303252.60416666674,
      "d": 598.9583333333721,
      "v": 55
    },
    {
      "midi": 69,
      "hit": false,
      "t": 303255.20833333343,
      "d": 677.0833333333721,
      "v": 31
    },
    {
      "midi": 58,
      "hit": false,
      "t": 303273.4375000001,
      "d": 174.47916666668607,
      "v": 15
    },
    {
      "midi": 43,
      "hit": false,
      "t": 303291.6666666668,
      "d": 229.16666666662786,
      "v": 9
    },
    {
      "midi": 74,
      "hit": false,
      "t": 303578.1250000001,
      "d": 88.54166666668607,
      "v": 17
    },
    {
      "midi": 76,
      "hit": false,
      "t": 303578.1250000001,
      "d": 210.9375,
      "v": 16
    },
    {
      "midi": 50,
      "hit": false,
      "t": 303851.5625000001,
      "d": 151.04166666668607,
      "v": 11
    },
    {
      "midi": 36,
      "hit": false,
      "t": 303854.1666666668,
      "d": 78.125,
      "v": 21
    },
    {
      "midi": 79,
      "hit": false,
      "t": 304135.4166666668,
      "d": 151.04166666668607,
      "v": 62
    },
    {
      "midi": 67,
      "hit": false,
      "t": 304145.8333333335,
      "d": 104.16666666668607,
      "v": 39
    },
    {
      "midi": 58,
      "hit": false,
      "t": 304414.0625000002,
      "d": 138.02083333331393,
      "v": 34
    },
    {
      "midi": 81,
      "hit": false,
      "t": 304416.66666666686,
      "d": 320.3124999999418,
      "v": 67
    },
    {
      "midi": 43,
      "hit": false,
      "t": 304429.6875000002,
      "d": 317.70833333331393,
      "v": 23
    },
    {
      "midi": 69,
      "hit": false,
      "t": 304434.8958333335,
      "d": 88.54166666668607,
      "v": 32
    },
    {
      "midi": 79,
      "hit": false,
      "t": 304708.3333333335,
      "d": 364.58333333331393,
      "v": 76
    },
    {
      "midi": 50,
      "hit": false,
      "t": 304729.1666666668,
      "d": 65.10416666668607,
      "v": 43
    },
    {
      "midi": 81,
      "hit": false,
      "t": 305000.0000000001,
      "d": 296.8750000000582,
      "v": 74
    },
    {
      "midi": 36,
      "hit": false,
      "t": 305026.0416666668,
      "d": 143.22916666668607,
      "v": 41
    },
    {
      "midi": 43,
      "hit": false,
      "t": 305049.4791666668,
      "d": 169.27083333337214,
      "v": 34
    },
    {
      "midi": 86,
      "hit": false,
      "t": 305289.0625000002,
      "d": 109.375,
      "v": 66
    },
    {
      "midi": 52,
      "hit": false,
      "t": 305302.0833333335,
      "d": 72.91666666668607,
      "v": 43
    },
    {
      "midi": 84,
      "hit": false,
      "t": 305466.1458333335,
      "d": 46.875,
      "v": 67
    },
    {
      "midi": 43,
      "hit": false,
      "t": 305531.2500000002,
      "d": 369.79166666656965,
      "v": 43
    },
    {
      "midi": 86,
      "hit": false,
      "t": 305552.0833333335,
      "d": 119.79166666662786,
      "v": 64
    },
    {
      "midi": 84,
      "hit": false,
      "t": 305593.7500000001,
      "d": 229.16666666662786,
      "v": 54
    },
    {
      "midi": 58,
      "hit": false,
      "t": 305666.6666666668,
      "d": 75.52083333331393,
      "v": 40
    },
    {
      "midi": 82,
      "hit": false,
      "t": 305742.1875000001,
      "d": 182.29166666662786,
      "v": 49
    },
    {
      "midi": 81,
      "hit": false,
      "t": 305895.83333333343,
      "d": 135.41666666668607,
      "v": 50
    },
    {
      "midi": 50,
      "hit": false,
      "t": 305906.25000000006,
      "d": 52.08333333337214,
      "v": 51
    },
    {
      "midi": 79,
      "hit": false,
      "t": 306039.0625000001,
      "d": 195.3125,
      "v": 61
    },
    {
      "midi": 81,
      "hit": false,
      "t": 306216.14583333343,
      "d": 341.14583333331393,
      "v": 56
    },
    {
      "midi": 36,
      "hit": false,
      "t": 306218.7500000001,
      "d": 145.83333333331393,
      "v": 34
    },
    {
      "midi": 43,
      "hit": false,
      "t": 306226.5625000001,
      "d": 177.08333333331393,
      "v": 34
    },
    {
      "midi": 52,
      "hit": false,
      "t": 306513.02083333343,
      "d": 57.29166666662786,
      "v": 49
    },
    {
      "midi": 79,
      "hit": false,
      "t": 306520.83333333343,
      "d": 380.20833333337214,
      "v": 65
    },
    {
      "midi": 81,
      "hit": false,
      "t": 306815.10416666674,
      "d": 325.52083333337214,
      "v": 63
    },
    {
      "midi": 43,
      "hit": false,
      "t": 306825.52083333343,
      "d": 330.72916666668607,
      "v": 18
    },
    {
      "midi": 58,
      "hit": false,
      "t": 306828.1250000001,
      "d": 117.1875,
      "v": 38
    },
    {
      "midi": 79,
      "hit": false,
      "t": 307109.3750000001,
      "d": 328.1249999999418,
      "v": 71
    },
    {
      "midi": 50,
      "hit": false,
      "t": 307114.58333333343,
      "d": 62.5,
      "v": 45
    },
    {
      "midi": 81,
      "hit": false,
      "t": 307382.8125000001,
      "d": 270.8333333332557,
      "v": 65
    },
    {
      "midi": 36,
      "hit": false,
      "t": 307427.08333333343,
      "d": 93.74999999994179,
      "v": 39
    },
    {
      "midi": 43,
      "hit": false,
      "t": 307432.29166666674,
      "d": 151.04166666662786,
      "v": 33
    },
    {
      "midi": 86,
      "hit": false,
      "t": 307645.8333333334,
      "d": 62.5,
      "v": 62
    },
    {
      "midi": 52,
      "hit": false,
      "t": 307671.87500000006,
      "d": 57.29166666662786,
      "v": 30
    },
    {
      "midi": 84,
      "hit": false,
      "t": 307820.3125,
      "d": 65.10416666668607,
      "v": 57
    },
    {
      "midi": 43,
      "hit": false,
      "t": 307851.5625,
      "d": 414.0624999999418,
      "v": 42
    },
    {
      "midi": 86,
      "hit": false,
      "t": 307901.0416666667,
      "d": 117.1875,
      "v": 52
    },
    {
      "midi": 84,
      "hit": false,
      "t": 307966.1458333334,
      "d": 179.68749999988358,
      "v": 50
    },
    {
      "midi": 58,
      "hit": false,
      "t": 308031.25,
      "d": 83.33333333331393,
      "v": 19
    },
    {
      "midi": 82,
      "hit": false,
      "t": 308119.7916666666,
      "d": 158.85416666662786,
      "v": 46
    },
    {
      "midi": 81,
      "hit": false,
      "t": 308263.02083333326,
      "d": 91.14583333331393,
      "v": 46
    },
    {
      "midi": 50,
      "hit": false,
      "t": 308265.62499999994,
      "d": 57.29166666662786,
      "v": 44
    },
    {
      "midi": 79,
      "hit": false,
      "t": 308406.2499999999,
      "d": 164.0625,
      "v": 52
    },
    {
      "midi": 81,
      "hit": false,
      "t": 308585.9374999999,
      "d": 213.54166666668607,
      "v": 46
    },
    {
      "midi": 36,
      "hit": false,
      "t": 308601.5624999999,
      "d": 88.54166666668607,
      "v": 34
    },
    {
      "midi": 43,
      "hit": false,
      "t": 308611.97916666657,
      "d": 179.6875,
      "v": 31
    },
    {
      "midi": 52,
      "hit": false,
      "t": 308947.91666666657,
      "d": 70.3125,
      "v": 32
    },
    {
      "midi": 58,
      "hit": false,
      "t": 309364.58333333326,
      "d": 307.29166666668607,
      "v": 30
    },
    {
      "midi": 55,
      "hit": false,
      "t": 309364.58333333326,
      "d": 416.6666666667443,
      "v": 68
    },
    {
      "midi": 57,
      "hit": false,
      "t": 309403.64583333326,
      "d": 184.89583333337214,
      "v": 32
    },
    {
      "midi": 64,
      "hit": false,
      "t": 309700.5208333333,
      "d": 218.7500000000582,
      "v": 24
    },
    {
      "midi": 60,
      "hit": false,
      "t": 309739.5833333333,
      "d": 98.95833333337214,
      "v": 18
    },
    {
      "midi": 55,
      "hit": false,
      "t": 309997.3958333334,
      "d": 236.97916666668607,
      "v": 72
    },
    {
      "midi": 58,
      "hit": false,
      "t": 310010.4166666667,
      "d": 197.91666666668607,
      "v": 14
    },
    {
      "midi": 57,
      "hit": false,
      "t": 310072.9166666667,
      "d": 104.16666666668607,
      "v": 14
    },
    {
      "midi": 65,
      "hit": false,
      "t": 310289.06250000006,
      "d": 158.85416666668607,
      "v": 23
    },
    {
      "midi": 62,
      "hit": false,
      "t": 310289.06250000006,
      "d": 229.16666666668607,
      "v": 23
    },
    {
      "midi": 55,
      "hit": false,
      "t": 310559.89583333343,
      "d": 385.41666666668607,
      "v": 59
    },
    {
      "midi": 58,
      "hit": false,
      "t": 310601.56250000006,
      "d": 361.9791666667443,
      "v": 19
    },
    {
      "midi": 57,
      "hit": false,
      "t": 310625.00000000006,
      "d": 255.20833333337214,
      "v": 13
    },
    {
      "midi": 53,
      "hit": false,
      "t": 310843.75000000006,
      "d": 380.20833333343035,
      "v": 92
    },
    {
      "midi": 64,
      "hit": false,
      "t": 310854.16666666674,
      "d": 333.33333333343035,
      "v": 37
    },
    {
      "midi": 60,
      "hit": false,
      "t": 310906.2500000001,
      "d": 317.70833333337214,
      "v": 30
    },
    {
      "midi": 52,
      "hit": false,
      "t": 311145.8333333335,
      "d": 312.5,
      "v": 78
    },
    {
      "midi": 58,
      "hit": false,
      "t": 311169.2708333335,
      "d": 335.9375,
      "v": 23
    },
    {
      "midi": 57,
      "hit": false,
      "t": 311218.7500000002,
      "d": 166.66666666662786,
      "v": 25
    },
    {
      "midi": 50,
      "hit": false,
      "t": 311419.2708333335,
      "d": 427.08333333331393,
      "v": 72
    },
    {
      "midi": 65,
      "hit": false,
      "t": 311437.5000000002,
      "d": 348.9583333332557,
      "v": 35
    },
    {
      "midi": 62,
      "hit": false,
      "t": 311453.1250000002,
      "d": 328.1249999999418,
      "v": 33
    },
    {
      "midi": 48,
      "hit": false,
      "t": 311729.1666666668,
      "d": 765.625,
      "v": 69
    },
    {
      "midi": 58,
      "hit": false,
      "t": 311760.4166666668,
      "d": 385.41666666662786,
      "v": 28
    },
    {
      "midi": 57,
      "hit": false,
      "t": 311796.8750000001,
      "d": 257.8125,
      "v": 23
    },
    {
      "midi": 64,
      "hit": false,
      "t": 312041.6666666668,
      "d": 354.16666666662786,
      "v": 40
    },
    {
      "midi": 60,
      "hit": false,
      "t": 312075.52083333343,
      "d": 322.91666666668607,
      "v": 27
    },
    {
      "midi": 55,
      "hit": false,
      "t": 312343.7500000001,
      "d": 747.3958333333721,
      "v": 58
    },
    {
      "midi": 58,
      "hit": false,
      "t": 312364.58333333343,
      "d": 333.33333333337214,
      "v": 30
    },
    {
      "midi": 57,
      "hit": false,
      "t": 312429.6875000001,
      "d": 231.77083333337214,
      "v": 17
    },
    {
      "midi": 65,
      "hit": false,
      "t": 312645.8333333335,
      "d": 320.3125,
      "v": 25
    },
    {
      "midi": 62,
      "hit": false,
      "t": 312682.2916666668,
      "d": 276.04166666668607,
      "v": 29
    },
    {
      "midi": 48,
      "hit": false,
      "t": 312927.0833333335,
      "d": 1187.5000000000582,
      "v": 47
    },
    {
      "midi": 58,
      "hit": false,
      "t": 312940.1041666668,
      "d": 341.14583333337214,
      "v": 21
    },
    {
      "midi": 57,
      "hit": false,
      "t": 312984.3750000002,
      "d": 247.39583333331393,
      "v": 21
    },
    {
      "midi": 64,
      "hit": false,
      "t": 313242.1875000002,
      "d": 273.4375,
      "v": 31
    },
    {
      "midi": 60,
      "hit": false,
      "t": 313273.4375000002,
      "d": 263.02083333337214,
      "v": 18
    },
    {
      "midi": 58,
      "hit": false,
      "t": 313526.04166666686,
      "d": 317.70833333337214,
      "v": 28
    },
    {
      "midi": 57,
      "hit": false,
      "t": 313585.93750000023,
      "d": 190.10416666668607,
      "v": 12
    },
    {
      "midi": 65,
      "hit": false,
      "t": 313804.68750000023,
      "d": 268.22916666662786,
      "v": 25
    },
    {
      "midi": 62,
      "hit": false,
      "t": 313851.56250000023,
      "d": 236.97916666662786,
      "v": 22
    },
    {
      "midi": 58,
      "hit": false,
      "t": 314117.18750000023,
      "d": 335.9375,
      "v": 21
    },
    {
      "midi": 57,
      "hit": false,
      "t": 314145.83333333355,
      "d": 234.375,
      "v": 18
    },
    {
      "midi": 64,
      "hit": false,
      "t": 314403.64583333355,
      "d": 278.64583333337214,
      "v": 30
    },
    {
      "midi": 60,
      "hit": false,
      "t": 314421.87500000023,
      "d": 315.10416666668607,
      "v": 29
    },
    {
      "midi": 67,
      "hit": false,
      "t": 314718.75000000023,
      "d": 226.5625,
      "v": 46
    },
    {
      "midi": 58,
      "hit": false,
      "t": 314721.3541666669,
      "d": 328.1249999999418,
      "v": 20
    },
    {
      "midi": 57,
      "hit": false,
      "t": 314796.87500000023,
      "d": 203.125,
      "v": 8
    },
    {
      "midi": 69,
      "hit": false,
      "t": 314942.70833333355,
      "d": 78.125,
      "v": 34
    },
    {
      "midi": 67,
      "hit": false,
      "t": 315020.83333333355,
      "d": 67.70833333331393,
      "v": 54
    },
    {
      "midi": 65,
      "hit": false,
      "t": 315020.83333333355,
      "d": 218.7499999999418,
      "v": 19
    },
    {
      "midi": 62,
      "hit": false,
      "t": 315033.85416666686,
      "d": 257.8125,
      "v": 19
    },
    {
      "midi": 69,
      "hit": false,
      "t": 315109.3750000002,
      "d": 75.52083333331393,
      "v": 35
    },
    {
      "midi": 67,
      "hit": false,
      "t": 315171.8750000002,
      "d": 57.29166666662786,
      "v": 55
    },
    {
      "midi": 69,
      "hit": false,
      "t": 315239.5833333335,
      "d": 78.125,
      "v": 24
    },
    {
      "midi": 58,
      "hit": false,
      "t": 315257.8125000002,
      "d": 294.27083333331393,
      "v": 22
    },
    {
      "midi": 57,
      "hit": false,
      "t": 315299.47916666686,
      "d": 106.77083333331393,
      "v": 23
    },
    {
      "midi": 67,
      "hit": false,
      "t": 315304.6875000002,
      "d": 62.5,
      "v": 43
    },
    {
      "midi": 69,
      "hit": false,
      "t": 315375.0000000002,
      "d": 78.125,
      "v": 24
    },
    {
      "midi": 67,
      "hit": false,
      "t": 315447.91666666686,
      "d": 67.70833333331393,
      "v": 43
    },
    {
      "midi": 69,
      "hit": false,
      "t": 315515.6250000002,
      "d": 221.35416666668607,
      "v": 35
    },
    {
      "midi": 64,
      "hit": false,
      "t": 315536.4583333335,
      "d": 234.375,
      "v": 30
    },
    {
      "midi": 60,
      "hit": false,
      "t": 315546.8750000002,
      "d": 273.4374999999418,
      "v": 19
    },
    {
      "midi": 67,
      "hit": false,
      "t": 315593.7500000002,
      "d": 72.91666666668607,
      "v": 41
    },
    {
      "midi": 67,
      "hit": false,
      "t": 315750.0000000002,
      "d": 348.95833333331393,
      "v": 21
    },
    {
      "midi": 69,
      "hit": false,
      "t": 315799.4791666668,
      "d": 93.75,
      "v": 25
    },
    {
      "midi": 58,
      "hit": false,
      "t": 315822.9166666668,
      "d": 317.70833333337214,
      "v": 23
    },
    {
      "midi": 57,
      "hit": false,
      "t": 315869.7916666668,
      "d": 203.125,
      "v": 22
    },
    {
      "midi": 65,
      "hit": false,
      "t": 316111.9791666668,
      "d": 208.33333333337214,
      "v": 27
    },
    {
      "midi": 62,
      "hit": false,
      "t": 316130.2083333335,
      "d": 111.97916666668607,
      "v": 23
    },
    {
      "midi": 58,
      "hit": false,
      "t": 316401.04166666686,
      "d": 343.75,
      "v": 28
    },
    {
      "midi": 57,
      "hit": false,
      "t": 316447.91666666686,
      "d": 239.58333333331393,
      "v": 26
    },
    {
      "midi": 64,
      "hit": false,
      "t": 316747.39583333355,
      "d": 221.35416666662786,
      "v": 22
    },
    {
      "midi": 60,
      "hit": false,
      "t": 316760.41666666686,
      "d": 260.41666666662786,
      "v": 19
    },
    {
      "midi": 67,
      "hit": false,
      "t": 317031.2500000002,
      "d": 91.14583333331393,
      "v": 24
    },
    {
      "midi": 58,
      "hit": false,
      "t": 317039.0625000002,
      "d": 291.66666666662786,
      "v": 23
    },
    {
      "midi": 57,
      "hit": false,
      "t": 317083.3333333335,
      "d": 122.39583333331393,
      "v": 8
    },
    {
      "midi": 69,
      "hit": false,
      "t": 317088.5416666668,
      "d": 80.72916666668607,
      "v": 36
    },
    {
      "midi": 67,
      "hit": false,
      "t": 317197.9166666668,
      "d": 197.91666666668607,
      "v": 9
    },
    {
      "midi": 69,
      "hit": false,
      "t": 317265.6250000001,
      "d": 78.12500000005821,
      "v": 32
    },
    {
      "midi": 65,
      "hit": false,
      "t": 317333.3333333335,
      "d": 169.27083333337214,
      "v": 23
    },
    {
      "midi": 62,
      "hit": false,
      "t": 317354.16666666686,
      "d": 250,
      "v": 23
    },
    {
      "midi": 69,
      "hit": false,
      "t": 317375.0000000002,
      "d": 78.125,
      "v": 24
    },
    {
      "midi": 67,
      "hit": false,
      "t": 317468.7500000002,
      "d": 65.10416666668607,
      "v": 39
    },
    {
      "midi": 69,
      "hit": false,
      "t": 317552.08333333355,
      "d": 78.125,
      "v": 24
    },
    {
      "midi": 58,
      "hit": false,
      "t": 317614.58333333355,
      "d": 291.66666666662786,
      "v": 21
    },
    {
      "midi": 67,
      "hit": false,
      "t": 317632.81250000023,
      "d": 210.9375,
      "v": 35
    },
    {
      "midi": 57,
      "hit": false,
      "t": 317656.25000000023,
      "d": 106.77083333331393,
      "v": 18
    },
    {
      "midi": 69,
      "hit": false,
      "t": 317674.4791666669,
      "d": 109.37499999994179,
      "v": 37
    },
    {
      "midi": 69,
      "hit": false,
      "t": 317841.14583333355,
      "d": 98.95833333331393,
      "v": 15
    },
    {
      "midi": 64,
      "hit": false,
      "t": 317895.83333333355,
      "d": 234.3750000000582,
      "v": 30
    },
    {
      "midi": 67,
      "hit": false,
      "t": 317901.04166666686,
      "d": 78.125,
      "v": 31
    },
    {
      "midi": 60,
      "hit": false,
      "t": 317932.29166666686,
      "d": 283.8541666668025,
      "v": 23
    },
    {
      "midi": 69,
      "hit": false,
      "t": 317989.58333333355,
      "d": 78.12500000005821,
      "v": 24
    },
    {
      "midi": 67,
      "hit": false,
      "t": 318072.9166666669,
      "d": 75.52083333337214,
      "v": 38
    },
    {
      "midi": 69,
      "hit": false,
      "t": 318127.6041666669,
      "d": 91.14583333343035,
      "v": 38
    },
    {
      "midi": 58,
      "hit": false,
      "t": 318192.70833333366,
      "d": 421.8750000000582,
      "v": 25
    },
    {
      "midi": 67,
      "hit": false,
      "t": 318234.37500000035,
      "d": 432.2916666667443,
      "v": 17
    },
    {
      "midi": 57,
      "hit": false,
      "t": 318263.02083333366,
      "d": 247.39583333337214,
      "v": 13
    },
    {
      "midi": 69,
      "hit": false,
      "t": 318289.06250000035,
      "d": 289.0625000000582,
      "v": 37
    },
    {
      "midi": 65,
      "hit": false,
      "t": 318567.7083333337,
      "d": 88.54166666668607,
      "v": 14
    },
    {
      "midi": 62,
      "hit": false,
      "t": 318578.1250000004,
      "d": 91.14583333337214,
      "v": 25
    },
    {
      "midi": 72,
      "hit": false,
      "t": 318997.3958333338,
      "d": 533.8541666666861,
      "v": 40
    },
    {
      "midi": 60,
      "hit": false,
      "t": 319015.62500000047,
      "d": 427.08333333331393,
      "v": 30
    },
    {
      "midi": 58,
      "hit": false,
      "t": 319411.4583333338,
      "d": 380.20833333337214,
      "v": 31
    },
    {
      "midi": 74,
      "hit": false,
      "t": 319419.2708333338,
      "d": 434.89583333337214,
      "v": 50
    },
    {
      "midi": 76,
      "hit": false,
      "t": 319791.66666666715,
      "d": 333.33333333337214,
      "v": 48
    },
    {
      "midi": 57,
      "hit": false,
      "t": 319802.08333333384,
      "d": 273.4375,
      "v": 33
    },
    {
      "midi": 77,
      "hit": false,
      "t": 320117.1875000005,
      "d": 343.75,
      "v": 51
    },
    {
      "midi": 55,
      "hit": false,
      "t": 320135.4166666672,
      "d": 239.58333333331393,
      "v": 41
    },
    {
      "midi": 53,
      "hit": false,
      "t": 320429.6875000005,
      "d": 268.22916666668607,
      "v": 58
    },
    {
      "midi": 79,
      "hit": false,
      "t": 320432.2916666672,
      "d": 382.8125,
      "v": 63
    },
    {
      "midi": 81,
      "hit": false,
      "t": 320734.3750000005,
      "d": 382.8125,
      "v": 63
    },
    {
      "midi": 52,
      "hit": false,
      "t": 320750.0000000005,
      "d": 291.66666666668607,
      "v": 49
    },
    {
      "midi": 82,
      "hit": false,
      "t": 321070.3125000005,
      "d": 369.79166666662786,
      "v": 57
    },
    {
      "midi": 50,
      "hit": false,
      "t": 321088.5416666672,
      "d": 291.66666666662786,
      "v": 27
    },
    {
      "midi": 84,
      "hit": false,
      "t": 321432.29166666715,
      "d": 450.52083333337214,
      "v": 63
    },
    {
      "midi": 48,
      "hit": false,
      "t": 321442.70833333384,
      "d": 395.83333333337214,
      "v": 29
    },
    {
      "midi": 86,
      "hit": false,
      "t": 321809.89583333384,
      "d": 481.77083333331393,
      "v": 53
    },
    {
      "midi": 46,
      "hit": false,
      "t": 321812.5000000005,
      "d": 395.83333333331393,
      "v": 31
    },
    {
      "midi": 88,
      "hit": false,
      "t": 322234.3750000005,
      "d": 528.6458333332557,
      "v": 42
    },
    {
      "midi": 43,
      "hit": false,
      "t": 322263.02083333384,
      "d": 486.97916666662786,
      "v": 24
    },
    {
      "midi": 89,
      "hit": false,
      "t": 322687.50000000047,
      "d": 713.5416666666861,
      "v": 38
    },
    {
      "midi": 38,
      "hit": false,
      "t": 322713.54166666715,
      "d": 588.5416666666861,
      "v": 23
    },
    {
      "midi": 91,
      "hit": false,
      "t": 323296.87500000047,
      "d": 1114.5833333333721,
      "v": 30
    },
    {
      "midi": 31,
      "hit": false,
      "t": 323299.47916666715,
      "d": 971.3541666666861,
      "v": 30
    },
    {
      "midi": 93,
      "hit": false,
      "t": 324382.8125000005,
      "d": 825.5208333333139,
      "v": 35
    },
    {
      "midi": 24,
      "hit": false,
      "t": 324388.02083333384,
      "d": 768.2291666666861,
      "v": 33
    },
    {
      "midi": 64,
      "hit": false,
      "t": 325968.7500000005,
      "d": 5158.854166666744,
      "v": 30
    },
    {
      "midi": 72,
      "hit": false,
      "t": 325973.95833333384,
      "d": 5161.45833333343,
      "v": 17
    },
    {
      "midi": 69,
      "hit": false,
      "t": 325976.5625000005,
      "d": 5174.479166666744,
      "v": 22
    },
    {
      "midi": 62,
      "hit": false,
      "t": 325979.1666666672,
      "d": 5013.020833333372,
      "v": 2
    },
    {
      "midi": 58,
      "hit": false,
      "t": 325979.1666666672,
      "d": 5125.000000000058,
      "v": 12
    },
    {
      "midi": 76,
      "hit": false,
      "t": 325979.1666666672,
      "d": 5125.000000000058,
      "v": 34
    },
    {
      "midi": 70,
      "hit": false,
      "t": 325981.7708333339,
      "d": 5114.583333333372,
      "v": 14
    }
  ]
}