{
  "jsonPath": "Rock/Anadolu Rock/Hayko Cepkin/siki-tutun-intro.json",
  "path": "Rock\\Anadolu Rock\\Hayko Cepkin\\Siki Tutun Intro.mid",
  "name": "Siki Tutun Intro",
  "difficulty": "Advanced",
  "bpm": 85.01003826868556,
  "notes": [
    {
      "midi": 64,
      "hit": false,
      "t": 8469.588,
      "d": 786.6718020833323,
      "v": 57
    },
    {
      "midi": 53,
      "hit": false,
      "t": 8469.588,
      "d": 801.3759479166656,
      "v": 57
    },
    {
      "midi": 57,
      "hit": false,
      "t": 8469.588,
      "d": 801.3759479166656,
      "v": 57
    },
    {
      "midi": 60,
      "hit": false,
      "t": 8469.588,
      "d": 801.3759479166656,
      "v": 57
    },
    {
      "midi": 41,
      "hit": false,
      "t": 8469.588,
      "d": 852.8404583333322,
      "v": 57
    },
    {
      "midi": 53,
      "hit": false,
      "t": 9881.185999999998,
      "d": 786.6718020833323,
      "v": 57
    },
    {
      "midi": 59,
      "hit": false,
      "t": 9881.185999999998,
      "d": 801.3759479166656,
      "v": 57
    },
    {
      "midi": 62,
      "hit": false,
      "t": 9881.185999999998,
      "d": 801.3759479166656,
      "v": 57
    },
    {
      "midi": 56,
      "hit": false,
      "t": 9881.185999999998,
      "d": 808.7280208333323,
      "v": 57
    },
    {
      "midi": 44,
      "hit": false,
      "t": 9881.185999999998,
      "d": 830.7842395833322,
      "v": 57
    },
    {
      "midi": 57,
      "hit": false,
      "t": 11292.783999999996,
      "d": 779.3197291666656,
      "v": 57
    },
    {
      "midi": 64,
      "hit": false,
      "t": 11292.783999999996,
      "d": 786.6718020833323,
      "v": 57
    },
    {
      "midi": 60,
      "hit": false,
      "t": 11292.783999999996,
      "d": 801.3759479166656,
      "v": 57
    },
    {
      "midi": 45,
      "hit": false,
      "t": 11292.783999999996,
      "d": 808.7280208333323,
      "v": 57
    },
    {
      "midi": 60,
      "hit": false,
      "t": 12704.381999999994,
      "d": 735.2072916666657,
      "v": 57
    },
    {
      "midi": 57,
      "hit": false,
      "t": 12704.381999999994,
      "d": 764.6155833333323,
      "v": 57
    },
    {
      "midi": 54,
      "hit": false,
      "t": 12704.381999999994,
      "d": 771.967656249999,
      "v": 57
    },
    {
      "midi": 64,
      "hit": false,
      "t": 12704.381999999994,
      "d": 771.967656249999,
      "v": 57
    },
    {
      "midi": 50,
      "hit": false,
      "t": 12704.381999999994,
      "d": 801.3759479166656,
      "v": 57
    },
    {
      "midi": 54,
      "hit": false,
      "t": 13645.447333333326,
      "d": 66.16865624999991,
      "v": 57
    },
    {
      "midi": 60,
      "hit": false,
      "t": 13645.447333333326,
      "d": 66.16865624999991,
      "v": 57
    },
    {
      "midi": 50,
      "hit": false,
      "t": 13645.447333333326,
      "d": 73.52072916666657,
      "v": 57
    },
    {
      "midi": 57,
      "hit": false,
      "t": 13645.447333333326,
      "d": 80.87280208333323,
      "v": 57
    },
    {
      "midi": 64,
      "hit": false,
      "t": 13645.447333333326,
      "d": 88.22487499999988,
      "v": 57
    },
    {
      "midi": 57,
      "hit": false,
      "t": 14115.979999999992,
      "d": 874.8966770833322,
      "v": 57
    },
    {
      "midi": 53,
      "hit": false,
      "t": 14115.979999999992,
      "d": 882.2487499999988,
      "v": 57
    },
    {
      "midi": 60,
      "hit": false,
      "t": 14115.979999999992,
      "d": 882.2487499999988,
      "v": 57
    },
    {
      "midi": 64,
      "hit": false,
      "t": 14115.979999999992,
      "d": 889.6008229166655,
      "v": 57
    },
    {
      "midi": 41,
      "hit": false,
      "t": 14115.979999999992,
      "d": 911.6570416666655,
      "v": 57
    },
    {
      "midi": 53,
      "hit": false,
      "t": 15527.57799999999,
      "d": 794.023874999999,
      "v": 57
    },
    {
      "midi": 56,
      "hit": false,
      "t": 15527.57799999999,
      "d": 808.7280208333323,
      "v": 57
    },
    {
      "midi": 62,
      "hit": false,
      "t": 15527.57799999999,
      "d": 808.7280208333323,
      "v": 57
    },
    {
      "midi": 44,
      "hit": false,
      "t": 15527.57799999999,
      "d": 816.0800937499989,
      "v": 57
    },
    {
      "midi": 59,
      "hit": false,
      "t": 15527.57799999999,
      "d": 816.0800937499989,
      "v": 57
    },
    {
      "midi": 64,
      "hit": false,
      "t": 16939.17599999999,
      "d": 838.1363124999989,
      "v": 57
    },
    {
      "midi": 45,
      "hit": false,
      "t": 16939.17599999999,
      "d": 845.4883854166656,
      "v": 57
    },
    {
      "midi": 57,
      "hit": false,
      "t": 16939.17599999999,
      "d": 845.4883854166656,
      "v": 57
    },
    {
      "midi": 60,
      "hit": false,
      "t": 16939.17599999999,
      "d": 852.8404583333322,
      "v": 57
    },
    {
      "midi": 48,
      "hit": false,
      "t": 18350.773999999987,
      "d": 904.3049687499988,
      "v": 57
    },
    {
      "midi": 62,
      "hit": false,
      "t": 18350.773999999987,
      "d": 904.3049687499988,
      "v": 57
    },
    {
      "midi": 53,
      "hit": false,
      "t": 18350.773999999987,
      "d": 926.3611874999988,
      "v": 57
    },
    {
      "midi": 58,
      "hit": false,
      "t": 18350.773999999987,
      "d": 926.3611874999988,
      "v": 57
    },
    {
      "midi": 64,
      "hit": false,
      "t": 19762.371999999985,
      "d": 852.8404583333322,
      "v": 57
    },
    {
      "midi": 41,
      "hit": false,
      "t": 19762.371999999985,
      "d": 867.5446041666655,
      "v": 57
    },
    {
      "midi": 60,
      "hit": false,
      "t": 19762.371999999985,
      "d": 874.8966770833322,
      "v": 57
    },
    {
      "midi": 53,
      "hit": false,
      "t": 19762.371999999985,
      "d": 882.2487499999988,
      "v": 57
    },
    {
      "midi": 57,
      "hit": false,
      "t": 19762.371999999985,
      "d": 882.2487499999988,
      "v": 57
    },
    {
      "midi": 44,
      "hit": false,
      "t": 21173.969999999983,
      "d": 860.1925312499989,
      "v": 57
    },
    {
      "midi": 53,
      "hit": false,
      "t": 21173.969999999983,
      "d": 860.1925312499989,
      "v": 57
    },
    {
      "midi": 56,
      "hit": false,
      "t": 21173.969999999983,
      "d": 860.1925312499989,
      "v": 57
    },
    {
      "midi": 59,
      "hit": false,
      "t": 21173.969999999983,
      "d": 867.5446041666655,
      "v": 57
    },
    {
      "midi": 62,
      "hit": false,
      "t": 21173.969999999983,
      "d": 867.5446041666655,
      "v": 57
    },
    {
      "midi": 64,
      "hit": false,
      "t": 22585.56799999998,
      "d": 823.4321666666656,
      "v": 57
    },
    {
      "midi": 45,
      "hit": false,
      "t": 22585.56799999998,
      "d": 830.7842395833322,
      "v": 57
    },
    {
      "midi": 57,
      "hit": false,
      "t": 22585.56799999998,
      "d": 838.1363124999989,
      "v": 57
    },
    {
      "midi": 60,
      "hit": false,
      "t": 22585.56799999998,
      "d": 838.1363124999989,
      "v": 57
    },
    {
      "midi": 50,
      "hit": false,
      "t": 23997.16599999998,
      "d": 654.3344895833325,
      "v": 57
    },
    {
      "midi": 64,
      "hit": false,
      "t": 23997.16599999998,
      "d": 661.6865624999991,
      "v": 57
    },
    {
      "midi": 54,
      "hit": false,
      "t": 23997.16599999998,
      "d": 669.0386354166658,
      "v": 57
    },
    {
      "midi": 57,
      "hit": false,
      "t": 23997.16599999998,
      "d": 669.0386354166658,
      "v": 57
    },
    {
      "midi": 60,
      "hit": false,
      "t": 23997.16599999998,
      "d": 676.3907083333324,
      "v": 57
    },
    {
      "midi": 54,
      "hit": false,
      "t": 24938.23133333331,
      "d": 264.67462499999965,
      "v": 57
    },
    {
      "midi": 60,
      "hit": false,
      "t": 24938.23133333331,
      "d": 264.67462499999965,
      "v": 57
    },
    {
      "midi": 57,
      "hit": false,
      "t": 24938.23133333331,
      "d": 272.0266979166663,
      "v": 57
    },
    {
      "midi": 64,
      "hit": false,
      "t": 24938.23133333331,
      "d": 272.0266979166663,
      "v": 57
    },
    {
      "midi": 40,
      "hit": false,
      "t": 24938.23133333331,
      "d": 463.1805937499994,
      "v": 57
    },
    {
      "midi": 60,
      "hit": false,
      "t": 25408.763999999977,
      "d": 830.7842395833322,
      "v": 57
    },
    {
      "midi": 53,
      "hit": false,
      "t": 25408.763999999977,
      "d": 838.1363124999989,
      "v": 57
    },
    {
      "midi": 64,
      "hit": false,
      "t": 25408.763999999977,
      "d": 838.1363124999989,
      "v": 57
    },
    {
      "midi": 57,
      "hit": false,
      "t": 25408.763999999977,
      "d": 845.4883854166656,
      "v": 57
    },
    {
      "midi": 41,
      "hit": false,
      "t": 25408.763999999977,
      "d": 860.1925312499989,
      "v": 57
    },
    {
      "midi": 53,
      "hit": false,
      "t": 26820.361999999976,
      "d": 830.7842395833322,
      "v": 57
    },
    {
      "midi": 59,
      "hit": false,
      "t": 26820.361999999976,
      "d": 852.8404583333322,
      "v": 57
    },
    {
      "midi": 56,
      "hit": false,
      "t": 26820.361999999976,
      "d": 860.1925312499989,
      "v": 57
    },
    {
      "midi": 62,
      "hit": false,
      "t": 26820.361999999976,
      "d": 860.1925312499989,
      "v": 57
    },
    {
      "midi": 44,
      "hit": false,
      "t": 26820.361999999976,
      "d": 904.3049687499988,
      "v": 57
    },
    {
      "midi": 64,
      "hit": false,
      "t": 28231.959999999974,
      "d": 830.7842395833322,
      "v": 57
    },
    {
      "midi": 57,
      "hit": false,
      "t": 28231.959999999974,
      "d": 838.1363124999989,
      "v": 57
    },
    {
      "midi": 60,
      "hit": false,
      "t": 28231.959999999974,
      "d": 845.4883854166656,
      "v": 57
    },
    {
      "midi": 45,
      "hit": false,
      "t": 28231.959999999974,
      "d": 860.1925312499989,
      "v": 57
    },
    {
      "midi": 53,
      "hit": false,
      "t": 29643.55799999997,
      "d": 845.4883854166656,
      "v": 57
    },
    {
      "midi": 48,
      "hit": false,
      "t": 29643.55799999997,
      "d": 860.1925312499989,
      "v": 57
    },
    {
      "midi": 62,
      "hit": false,
      "t": 29643.55799999997,
      "d": 867.5446041666655,
      "v": 57
    },
    {
      "midi": 58,
      "hit": false,
      "t": 29643.55799999997,
      "d": 874.8966770833322,
      "v": 57
    },
    {
      "midi": 64,
      "hit": false,
      "t": 31055.15599999997,
      "d": 852.8404583333322,
      "v": 57
    },
    {
      "midi": 41,
      "hit": false,
      "t": 31055.15599999997,
      "d": 867.5446041666655,
      "v": 57
    },
    {
      "midi": 60,
      "hit": false,
      "t": 31055.15599999997,
      "d": 874.8966770833322,
      "v": 57
    },
    {
      "midi": 53,
      "hit": false,
      "t": 31055.15599999997,
      "d": 882.2487499999988,
      "v": 57
    },
    {
      "midi": 57,
      "hit": false,
      "t": 31055.15599999997,
      "d": 882.2487499999988,
      "v": 57
    },
    {
      "midi": 44,
      "hit": false,
      "t": 32466.753999999968,
      "d": 860.1925312500061,
      "v": 57
    },
    {
      "midi": 53,
      "hit": false,
      "t": 32466.753999999968,
      "d": 860.1925312500061,
      "v": 57
    },
    {
      "midi": 56,
      "hit": false,
      "t": 32466.753999999968,
      "d": 860.1925312500061,
      "v": 57
    },
    {
      "midi": 59,
      "hit": false,
      "t": 32466.753999999968,
      "d": 867.5446041666764,
      "v": 57
    },
    {
      "midi": 62,
      "hit": false,
      "t": 32466.753999999968,
      "d": 867.5446041666764,
      "v": 57
    },
    {
      "midi": 64,
      "hit": false,
      "t": 33878.35199999998,
      "d": 823.4321666666729,
      "v": 57
    },
    {
      "midi": 45,
      "hit": false,
      "t": 33878.35199999998,
      "d": 830.7842395833432,
      "v": 57
    },
    {
      "midi": 57,
      "hit": false,
      "t": 33878.35199999998,
      "d": 838.1363125000134,
      "v": 57
    },
    {
      "midi": 60,
      "hit": false,
      "t": 33878.35199999998,
      "d": 838.1363125000134,
      "v": 57
    },
    {
      "midi": 50,
      "hit": false,
      "t": 35289.94999999999,
      "d": 654.3344895833361,
      "v": 57
    },
    {
      "midi": 64,
      "hit": false,
      "t": 35289.94999999999,
      "d": 661.6865625000064,
      "v": 57
    },
    {
      "midi": 54,
      "hit": false,
      "t": 35289.94999999999,
      "d": 669.0386354166767,
      "v": 57
    },
    {
      "midi": 57,
      "hit": false,
      "t": 35289.94999999999,
      "d": 669.0386354166767,
      "v": 57
    },
    {
      "midi": 60,
      "hit": false,
      "t": 35289.94999999999,
      "d": 676.390708333347,
      "v": 57
    },
    {
      "midi": 54,
      "hit": false,
      "t": 36231.01533333334,
      "d": 264.67462499999965,
      "v": 57
    },
    {
      "midi": 60,
      "hit": false,
      "t": 36231.01533333334,
      "d": 264.67462499999965,
      "v": 57
    },
    {
      "midi": 57,
      "hit": false,
      "t": 36231.01533333334,
      "d": 272.02669791666995,
      "v": 57
    },
    {
      "midi": 64,
      "hit": false,
      "t": 36231.01533333334,
      "d": 272.02669791666995,
      "v": 57
    },
    {
      "midi": 40,
      "hit": false,
      "t": 36231.01533333334,
      "d": 463.180593750003,
      "v": 57
    },
    {
      "midi": 60,
      "hit": false,
      "t": 36701.54800000001,
      "d": 830.7842395833359,
      "v": 57
    },
    {
      "midi": 53,
      "hit": false,
      "t": 36701.54800000001,
      "d": 838.1363125000062,
      "v": 57
    },
    {
      "midi": 64,
      "hit": false,
      "t": 36701.54800000001,
      "d": 838.1363125000062,
      "v": 57
    },
    {
      "midi": 57,
      "hit": false,
      "t": 36701.54800000001,
      "d": 845.4883854166765,
      "v": 57
    },
    {
      "midi": 41,
      "hit": false,
      "t": 36701.54800000001,
      "d": 860.1925312500098,
      "v": 57
    },
    {
      "midi": 53,
      "hit": false,
      "t": 38113.14600000002,
      "d": 830.7842395833359,
      "v": 57
    },
    {
      "midi": 59,
      "hit": false,
      "t": 38113.14600000002,
      "d": 852.8404583333395,
      "v": 57
    },
    {
      "midi": 56,
      "hit": false,
      "t": 38113.14600000002,
      "d": 860.1925312500098,
      "v": 57
    },
    {
      "midi": 62,
      "hit": false,
      "t": 38113.14600000002,
      "d": 860.1925312500098,
      "v": 57
    },
    {
      "midi": 44,
      "hit": false,
      "t": 38113.14600000002,
      "d": 904.3049687500097,
      "v": 57
    },
    {
      "midi": 64,
      "hit": false,
      "t": 39524.744000000035,
      "d": 830.7842395833359,
      "v": 57
    },
    {
      "midi": 57,
      "hit": false,
      "t": 39524.744000000035,
      "d": 838.1363125000062,
      "v": 57
    },
    {
      "midi": 60,
      "hit": false,
      "t": 39524.744000000035,
      "d": 845.4883854166765,
      "v": 57
    },
    {
      "midi": 45,
      "hit": false,
      "t": 39524.744000000035,
      "d": 860.1925312500098,
      "v": 57
    },
    {
      "midi": 53,
      "hit": false,
      "t": 40936.34200000005,
      "d": 845.4883854166692,
      "v": 57
    },
    {
      "midi": 48,
      "hit": false,
      "t": 40936.34200000005,
      "d": 860.1925312500025,
      "v": 57
    },
    {
      "midi": 62,
      "hit": false,
      "t": 40936.34200000005,
      "d": 867.5446041666728,
      "v": 57
    },
    {
      "midi": 58,
      "hit": false,
      "t": 40936.34200000005,
      "d": 874.8966770833431,
      "v": 57
    },
    {
      "midi": 64,
      "hit": false,
      "t": 42347.94000000006,
      "d": 852.8404583333395,
      "v": 57
    },
    {
      "midi": 41,
      "hit": false,
      "t": 42347.94000000006,
      "d": 867.5446041666728,
      "v": 57
    },
    {
      "midi": 60,
      "hit": false,
      "t": 42347.94000000006,
      "d": 874.8966770833431,
      "v": 57
    },
    {
      "midi": 53,
      "hit": false,
      "t": 42347.94000000006,
      "d": 882.2487500000134,
      "v": 57
    },
    {
      "midi": 57,
      "hit": false,
      "t": 42347.94000000006,
      "d": 882.2487500000134,
      "v": 57
    },
    {
      "midi": 44,
      "hit": false,
      "t": 43759.53800000007,
      "d": 860.1925312500025,
      "v": 57
    },
    {
      "midi": 53,
      "hit": false,
      "t": 43759.53800000007,
      "d": 860.1925312500025,
      "v": 57
    },
    {
      "midi": 56,
      "hit": false,
      "t": 43759.53800000007,
      "d": 860.1925312500025,
      "v": 57
    },
    {
      "midi": 59,
      "hit": false,
      "t": 43759.53800000007,
      "d": 867.5446041666728,
      "v": 57
    },
    {
      "midi": 62,
      "hit": false,
      "t": 43759.53800000007,
      "d": 867.5446041666728,
      "v": 57
    },
    {
      "midi": 64,
      "hit": false,
      "t": 45171.13600000008,
      "d": 823.4321666666729,
      "v": 57
    },
    {
      "midi": 45,
      "hit": false,
      "t": 45171.13600000008,
      "d": 830.7842395833432,
      "v": 57
    },
    {
      "midi": 57,
      "hit": false,
      "t": 45171.13600000008,
      "d": 838.1363125000134,
      "v": 57
    },
    {
      "midi": 60,
      "hit": false,
      "t": 45171.13600000008,
      "d": 838.1363125000134,
      "v": 57
    },
    {
      "midi": 50,
      "hit": false,
      "t": 46582.73400000009,
      "d": 654.3344895833361,
      "v": 57
    },
    {
      "midi": 64,
      "hit": false,
      "t": 46582.73400000009,
      "d": 661.6865625000064,
      "v": 57
    },
    {
      "midi": 54,
      "hit": false,
      "t": 46582.73400000009,
      "d": 669.0386354166767,
      "v": 57
    },
    {
      "midi": 57,
      "hit": false,
      "t": 46582.73400000009,
      "d": 669.0386354166767,
      "v": 57
    },
    {
      "midi": 60,
      "hit": false,
      "t": 46582.73400000009,
      "d": 676.390708333347,
      "v": 57
    },
    {
      "midi": 54,
      "hit": false,
      "t": 47523.79933333344,
      "d": 264.67462499999965,
      "v": 57
    },
    {
      "midi": 60,
      "hit": false,
      "t": 47523.79933333344,
      "d": 264.67462499999965,
      "v": 57
    },
    {
      "midi": 57,
      "hit": false,
      "t": 47523.79933333344,
      "d": 272.02669791666995,
      "v": 57
    },
    {
      "midi": 64,
      "hit": false,
      "t": 47523.79933333344,
      "d": 272.02669791666995,
      "v": 57
    },
    {
      "midi": 40,
      "hit": false,
      "t": 47523.79933333344,
      "d": 463.180593750003,
      "v": 57
    },
    {
      "midi": 60,
      "hit": false,
      "t": 47994.33200000011,
      "d": 830.7842395833359,
      "v": 57
    },
    {
      "midi": 53,
      "hit": false,
      "t": 47994.33200000011,
      "d": 838.1363125000062,
      "v": 57
    },
    {
      "midi": 64,
      "hit": false,
      "t": 47994.33200000011,
      "d": 838.1363125000062,
      "v": 57
    },
    {
      "midi": 57,
      "hit": false,
      "t": 47994.33200000011,
      "d": 845.4883854166765,
      "v": 57
    },
    {
      "midi": 41,
      "hit": false,
      "t": 47994.33200000011,
      "d": 860.1925312500098,
      "v": 57
    },
    {
      "midi": 53,
      "hit": false,
      "t": 49405.930000000124,
      "d": 830.7842395833359,
      "v": 57
    },
    {
      "midi": 59,
      "hit": false,
      "t": 49405.930000000124,
      "d": 852.8404583333395,
      "v": 57
    },
    {
      "midi": 56,
      "hit": false,
      "t": 49405.930000000124,
      "d": 860.1925312500098,
      "v": 57
    },
    {
      "midi": 62,
      "hit": false,
      "t": 49405.930000000124,
      "d": 860.1925312500098,
      "v": 57
    },
    {
      "midi": 44,
      "hit": false,
      "t": 49405.930000000124,
      "d": 904.3049687500097,
      "v": 57
    },
    {
      "midi": 64,
      "hit": false,
      "t": 50817.52800000014,
      "d": 830.7842395833359,
      "v": 57
    },
    {
      "midi": 57,
      "hit": false,
      "t": 50817.52800000014,
      "d": 838.1363125000062,
      "v": 57
    },
    {
      "midi": 60,
      "hit": false,
      "t": 50817.52800000014,
      "d": 845.4883854166765,
      "v": 57
    },
    {
      "midi": 45,
      "hit": false,
      "t": 50817.52800000014,
      "d": 860.1925312500098,
      "v": 57
    },
    {
      "midi": 53,
      "hit": false,
      "t": 52229.12600000015,
      "d": 845.4883854166692,
      "v": 57
    },
    {
      "midi": 48,
      "hit": false,
      "t": 52229.12600000015,
      "d": 860.1925312500025,
      "v": 57
    },
    {
      "midi": 62,
      "hit": false,
      "t": 52229.12600000015,
      "d": 867.5446041666728,
      "v": 57
    },
    {
      "midi": 58,
      "hit": false,
      "t": 52229.12600000015,
      "d": 874.8966770833431,
      "v": 57
    },
    {
      "midi": 64,
      "hit": false,
      "t": 53640.72400000016,
      "d": 852.8404583333395,
      "v": 57
    },
    {
      "midi": 41,
      "hit": false,
      "t": 53640.72400000016,
      "d": 867.5446041666728,
      "v": 57
    },
    {
      "midi": 60,
      "hit": false,
      "t": 53640.72400000016,
      "d": 874.8966770833431,
      "v": 57
    },
    {
      "midi": 53,
      "hit": false,
      "t": 53640.72400000016,
      "d": 882.2487500000134,
      "v": 57
    },
    {
      "midi": 57,
      "hit": false,
      "t": 53640.72400000016,
      "d": 882.2487500000134,
      "v": 57
    },
    {
      "midi": 44,
      "hit": false,
      "t": 55052.322000000175,
      "d": 860.1925312500025,
      "v": 57
    },
    {
      "midi": 53,
      "hit": false,
      "t": 55052.322000000175,
      "d": 860.1925312500025,
      "v": 57
    },
    {
      "midi": 56,
      "hit": false,
      "t": 55052.322000000175,
      "d": 860.1925312500025,
      "v": 57
    },
    {
      "midi": 59,
      "hit": false,
      "t": 55052.322000000175,
      "d": 867.5446041666728,
      "v": 57
    },
    {
      "midi": 62,
      "hit": false,
      "t": 55052.322000000175,
      "d": 867.5446041666728,
      "v": 57
    },
    {
      "midi": 64,
      "hit": false,
      "t": 56463.92000000018,
      "d": 823.4321666666729,
      "v": 57
    },
    {
      "midi": 45,
      "hit": false,
      "t": 56463.92000000018,
      "d": 830.7842395833432,
      "v": 57
    },
    {
      "midi": 57,
      "hit": false,
      "t": 56463.92000000018,
      "d": 838.1363125000134,
      "v": 57
    },
    {
      "midi": 60,
      "hit": false,
      "t": 56463.92000000018,
      "d": 838.1363125000134,
      "v": 57
    },
    {
      "midi": 50,
      "hit": false,
      "t": 57875.51800000019,
      "d": 654.3344895833361,
      "v": 57
    },
    {
      "midi": 64,
      "hit": false,
      "t": 57875.51800000019,
      "d": 661.6865625000064,
      "v": 57
    },
    {
      "midi": 54,
      "hit": false,
      "t": 57875.51800000019,
      "d": 669.0386354166767,
      "v": 57
    },
    {
      "midi": 57,
      "hit": false,
      "t": 57875.51800000019,
      "d": 669.0386354166767,
      "v": 57
    },
    {
      "midi": 60,
      "hit": false,
      "t": 57875.51800000019,
      "d": 676.390708333347,
      "v": 57
    },
    {
      "midi": 54,
      "hit": false,
      "t": 58816.58333333354,
      "d": 264.67462499999965,
      "v": 57
    },
    {
      "midi": 60,
      "hit": false,
      "t": 58816.58333333354,
      "d": 264.67462499999965,
      "v": 57
    },
    {
      "midi": 57,
      "hit": false,
      "t": 58816.58333333354,
      "d": 272.02669791666995,
      "v": 57
    },
    {
      "midi": 64,
      "hit": false,
      "t": 58816.58333333354,
      "d": 272.02669791666995,
      "v": 57
    },
    {
      "midi": 40,
      "hit": false,
      "t": 58816.58333333354,
      "d": 463.180593750003,
      "v": 57
    },
    {
      "midi": 60,
      "hit": false,
      "t": 59287.11600000021,
      "d": 830.7842395833359,
      "v": 57
    },
    {
      "midi": 53,
      "hit": false,
      "t": 59287.11600000021,
      "d": 838.1363125000062,
      "v": 57
    },
    {
      "midi": 64,
      "hit": false,
      "t": 59287.11600000021,
      "d": 838.1363125000062,
      "v": 57
    },
    {
      "midi": 57,
      "hit": false,
      "t": 59287.11600000021,
      "d": 845.4883854166765,
      "v": 57
    },
    {
      "midi": 41,
      "hit": false,
      "t": 59287.11600000021,
      "d": 860.1925312500098,
      "v": 57
    },
    {
      "midi": 53,
      "hit": false,
      "t": 60698.714000000225,
      "d": 830.7842395833359,
      "v": 57
    },
    {
      "midi": 59,
      "hit": false,
      "t": 60698.714000000225,
      "d": 852.8404583333395,
      "v": 57
    },
    {
      "midi": 56,
      "hit": false,
      "t": 60698.714000000225,
      "d": 860.1925312500098,
      "v": 57
    },
    {
      "midi": 62,
      "hit": false,
      "t": 60698.714000000225,
      "d": 860.1925312500098,
      "v": 57
    },
    {
      "midi": 44,
      "hit": false,
      "t": 60698.714000000225,
      "d": 904.3049687500097,
      "v": 57
    },
    {
      "midi": 64,
      "hit": false,
      "t": 62110.31200000024,
      "d": 830.7842395833359,
      "v": 57
    },
    {
      "midi": 57,
      "hit": false,
      "t": 62110.31200000024,
      "d": 838.1363125000062,
      "v": 57
    },
    {
      "midi": 60,
      "hit": false,
      "t": 62110.31200000024,
      "d": 845.4883854166765,
      "v": 57
    },
    {
      "midi": 45,
      "hit": false,
      "t": 62110.31200000024,
      "d": 860.1925312500098,
      "v": 57
    },
    {
      "midi": 53,
      "hit": false,
      "t": 63521.91000000025,
      "d": 845.4883854166692,
      "v": 57
    },
    {
      "midi": 48,
      "hit": false,
      "t": 63521.91000000025,
      "d": 860.1925312500025,
      "v": 57
    },
    {
      "midi": 62,
      "hit": false,
      "t": 63521.91000000025,
      "d": 867.5446041666728,
      "v": 57
    },
    {
      "midi": 58,
      "hit": false,
      "t": 63521.91000000025,
      "d": 874.8966770833431,
      "v": 57
    },
    {
      "midi": 64,
      "hit": false,
      "t": 64933.50800000026,
      "d": 852.8404583333322,
      "v": 57
    },
    {
      "midi": 41,
      "hit": false,
      "t": 64933.50800000026,
      "d": 867.5446041666728,
      "v": 57
    },
    {
      "midi": 60,
      "hit": false,
      "t": 64933.50800000026,
      "d": 874.8966770833358,
      "v": 57
    },
    {
      "midi": 53,
      "hit": false,
      "t": 64933.50800000026,
      "d": 882.2487499999988,
      "v": 57
    },
    {
      "midi": 57,
      "hit": false,
      "t": 64933.50800000026,
      "d": 882.2487499999988,
      "v": 57
    },
    {
      "midi": 44,
      "hit": false,
      "t": 66345.10600000026,
      "d": 860.1925312500098,
      "v": 57
    },
    {
      "midi": 53,
      "hit": false,
      "t": 66345.10600000026,
      "d": 860.1925312500098,
      "v": 57
    },
    {
      "midi": 56,
      "hit": false,
      "t": 66345.10600000026,
      "d": 860.1925312500098,
      "v": 57
    },
    {
      "midi": 59,
      "hit": false,
      "t": 66345.10600000026,
      "d": 867.5446041666728,
      "v": 57
    },
    {
      "midi": 62,
      "hit": false,
      "t": 66345.10600000026,
      "d": 867.5446041666728,
      "v": 57
    },
    {
      "midi": 64,
      "hit": false,
      "t": 67756.70400000027,
      "d": 823.4321666666656,
      "v": 57
    },
    {
      "midi": 45,
      "hit": false,
      "t": 67756.70400000027,
      "d": 830.7842395833286,
      "v": 57
    },
    {
      "midi": 57,
      "hit": false,
      "t": 67756.70400000027,
      "d": 838.1363124999916,
      "v": 57
    },
    {
      "midi": 60,
      "hit": false,
      "t": 67756.70400000027,
      "d": 838.1363124999916,
      "v": 57
    },
    {
      "midi": 50,
      "hit": false,
      "t": 69168.30200000027,
      "d": 654.3344895833434,
      "v": 57
    },
    {
      "midi": 64,
      "hit": false,
      "t": 69168.30200000027,
      "d": 661.6865625000064,
      "v": 57
    },
    {
      "midi": 54,
      "hit": false,
      "t": 69168.30200000027,
      "d": 669.0386354166694,
      "v": 57
    },
    {
      "midi": 57,
      "hit": false,
      "t": 69168.30200000027,
      "d": 669.0386354166694,
      "v": 57
    },
    {
      "midi": 60,
      "hit": false,
      "t": 69168.30200000027,
      "d": 676.3907083333324,
      "v": 57
    },
    {
      "midi": 54,
      "hit": false,
      "t": 70109.3673333336,
      "d": 264.67462499999965,
      "v": 57
    },
    {
      "midi": 60,
      "hit": false,
      "t": 70109.3673333336,
      "d": 264.67462499999965,
      "v": 57
    },
    {
      "midi": 57,
      "hit": false,
      "t": 70109.3673333336,
      "d": 272.02669791666267,
      "v": 57
    },
    {
      "midi": 64,
      "hit": false,
      "t": 70109.3673333336,
      "d": 272.02669791666267,
      "v": 57
    },
    {
      "midi": 40,
      "hit": false,
      "t": 70109.3673333336,
      "d": 463.180593750003,
      "v": 57
    },
    {
      "midi": 60,
      "hit": false,
      "t": 70579.90000000027,
      "d": 830.7842395833286,
      "v": 57
    },
    {
      "midi": 53,
      "hit": false,
      "t": 70579.90000000027,
      "d": 838.1363124999916,
      "v": 57
    },
    {
      "midi": 64,
      "hit": false,
      "t": 70579.90000000027,
      "d": 838.1363124999916,
      "v": 57
    },
    {
      "midi": 57,
      "hit": false,
      "t": 70579.90000000027,
      "d": 845.4883854166546,
      "v": 57
    },
    {
      "midi": 41,
      "hit": false,
      "t": 70579.90000000027,
      "d": 860.1925312499952,
      "v": 57
    },
    {
      "midi": 53,
      "hit": false,
      "t": 71991.49800000027,
      "d": 830.7842395833286,
      "v": 57
    },
    {
      "midi": 59,
      "hit": false,
      "t": 71991.49800000027,
      "d": 852.8404583333322,
      "v": 57
    },
    {
      "midi": 56,
      "hit": false,
      "t": 71991.49800000027,
      "d": 860.1925312499952,
      "v": 57
    },
    {
      "midi": 62,
      "hit": false,
      "t": 71991.49800000027,
      "d": 860.1925312499952,
      "v": 57
    },
    {
      "midi": 44,
      "hit": false,
      "t": 71991.49800000027,
      "d": 904.3049687500024,
      "v": 57
    },
    {
      "midi": 64,
      "hit": false,
      "t": 73403.09600000027,
      "d": 830.7842395833432,
      "v": 57
    },
    {
      "midi": 57,
      "hit": false,
      "t": 73403.09600000027,
      "d": 838.1363125000062,
      "v": 57
    },
    {
      "midi": 60,
      "hit": false,
      "t": 73403.09600000027,
      "d": 845.4883854166692,
      "v": 57
    },
    {
      "midi": 45,
      "hit": false,
      "t": 73403.09600000027,
      "d": 860.1925312500098,
      "v": 57
    },
    {
      "midi": 53,
      "hit": false,
      "t": 74814.69400000028,
      "d": 845.4883854166692,
      "v": 57
    },
    {
      "midi": 48,
      "hit": false,
      "t": 74814.69400000028,
      "d": 860.1925312500098,
      "v": 57
    },
    {
      "midi": 62,
      "hit": false,
      "t": 74814.69400000028,
      "d": 867.5446041666728,
      "v": 57
    },
    {
      "midi": 58,
      "hit": false,
      "t": 74814.69400000028,
      "d": 874.8966770833358,
      "v": 57
    },
    {
      "midi": 64,
      "hit": false,
      "t": 76226.29200000028,
      "d": 852.8404583333322,
      "v": 57
    },
    {
      "midi": 41,
      "hit": false,
      "t": 76226.29200000028,
      "d": 867.5446041666728,
      "v": 57
    },
    {
      "midi": 60,
      "hit": false,
      "t": 76226.29200000028,
      "d": 874.8966770833358,
      "v": 57
    },
    {
      "midi": 53,
      "hit": false,
      "t": 76226.29200000028,
      "d": 882.2487499999988,
      "v": 57
    },
    {
      "midi": 57,
      "hit": false,
      "t": 76226.29200000028,
      "d": 882.2487499999988,
      "v": 57
    },
    {
      "midi": 44,
      "hit": false,
      "t": 77637.89000000028,
      "d": 860.1925312500098,
      "v": 57
    },
    {
      "midi": 53,
      "hit": false,
      "t": 77637.89000000028,
      "d": 860.1925312500098,
      "v": 57
    },
    {
      "midi": 56,
      "hit": false,
      "t": 77637.89000000028,
      "d": 860.1925312500098,
      "v": 57
    },
    {
      "midi": 59,
      "hit": false,
      "t": 77637.89000000028,
      "d": 867.5446041666728,
      "v": 57
    },
    {
      "midi": 62,
      "hit": false,
      "t": 77637.89000000028,
      "d": 867.5446041666728,
      "v": 57
    },
    {
      "midi": 64,
      "hit": false,
      "t": 79049.48800000029,
      "d": 823.4321666666656,
      "v": 57
    },
    {
      "midi": 45,
      "hit": false,
      "t": 79049.48800000029,
      "d": 830.7842395833286,
      "v": 57
    },
    {
      "midi": 57,
      "hit": false,
      "t": 79049.48800000029,
      "d": 838.1363124999916,
      "v": 57
    },
    {
      "midi": 60,
      "hit": false,
      "t": 79049.48800000029,
      "d": 838.1363124999916,
      "v": 57
    },
    {
      "midi": 50,
      "hit": false,
      "t": 80461.08600000029,
      "d": 654.3344895833434,
      "v": 57
    },
    {
      "midi": 64,
      "hit": false,
      "t": 80461.08600000029,
      "d": 661.6865625000064,
      "v": 57
    },
    {
      "midi": 54,
      "hit": false,
      "t": 80461.08600000029,
      "d": 669.0386354166694,
      "v": 57
    },
    {
      "midi": 57,
      "hit": false,
      "t": 80461.08600000029,
      "d": 669.0386354166694,
      "v": 57
    },
    {
      "midi": 60,
      "hit": false,
      "t": 80461.08600000029,
      "d": 676.3907083333324,
      "v": 57
    },
    {
      "midi": 54,
      "hit": false,
      "t": 81402.15133333362,
      "d": 264.67462499999965,
      "v": 57
    },
    {
      "midi": 60,
      "hit": false,
      "t": 81402.15133333362,
      "d": 264.67462499999965,
      "v": 57
    },
    {
      "midi": 57,
      "hit": false,
      "t": 81402.15133333362,
      "d": 272.02669791666267,
      "v": 57
    },
    {
      "midi": 64,
      "hit": false,
      "t": 81402.15133333362,
      "d": 272.02669791666267,
      "v": 57
    },
    {
      "midi": 40,
      "hit": false,
      "t": 81402.15133333362,
      "d": 463.180593750003,
      "v": 57
    },
    {
      "midi": 60,
      "hit": false,
      "t": 81872.68400000028,
      "d": 830.7842395833286,
      "v": 57
    },
    {
      "midi": 53,
      "hit": false,
      "t": 81872.68400000028,
      "d": 838.1363124999916,
      "v": 57
    },
    {
      "midi": 64,
      "hit": false,
      "t": 81872.68400000028,
      "d": 838.1363124999916,
      "v": 57
    },
    {
      "midi": 57,
      "hit": false,
      "t": 81872.68400000028,
      "d": 845.4883854166546,
      "v": 57
    },
    {
      "midi": 41,
      "hit": false,
      "t": 81872.68400000028,
      "d": 860.1925312499952,
      "v": 57
    },
    {
      "midi": 53,
      "hit": false,
      "t": 83284.28200000028,
      "d": 830.7842395833286,
      "v": 57
    },
    {
      "midi": 59,
      "hit": false,
      "t": 83284.28200000028,
      "d": 852.8404583333322,
      "v": 57
    },
    {
      "midi": 56,
      "hit": false,
      "t": 83284.28200000028,
      "d": 860.1925312499952,
      "v": 57
    },
    {
      "midi": 62,
      "hit": false,
      "t": 83284.28200000028,
      "d": 860.1925312499952,
      "v": 57
    },
    {
      "midi": 44,
      "hit": false,
      "t": 83284.28200000028,
      "d": 904.3049687500024,
      "v": 57
    },
    {
      "midi": 64,
      "hit": false,
      "t": 84695.88000000028,
      "d": 830.7842395833432,
      "v": 57
    },
    {
      "midi": 57,
      "hit": false,
      "t": 84695.88000000028,
      "d": 838.1363125000062,
      "v": 57
    },
    {
      "midi": 60,
      "hit": false,
      "t": 84695.88000000028,
      "d": 845.4883854166692,
      "v": 57
    },
    {
      "midi": 45,
      "hit": false,
      "t": 84695.88000000028,
      "d": 860.1925312500098,
      "v": 57
    },
    {
      "midi": 53,
      "hit": false,
      "t": 86107.4780000003,
      "d": 845.4883854166692,
      "v": 57
    },
    {
      "midi": 48,
      "hit": false,
      "t": 86107.4780000003,
      "d": 860.1925312500098,
      "v": 57
    },
    {
      "midi": 62,
      "hit": false,
      "t": 86107.4780000003,
      "d": 867.5446041666728,
      "v": 57
    },
    {
      "midi": 58,
      "hit": false,
      "t": 86107.4780000003,
      "d": 874.8966770833358,
      "v": 57
    },
    {
      "midi": 64,
      "hit": false,
      "t": 87519.07600000029,
      "d": 852.8404583333322,
      "v": 57
    },
    {
      "midi": 41,
      "hit": false,
      "t": 87519.07600000029,
      "d": 867.5446041666728,
      "v": 57
    },
    {
      "midi": 60,
      "hit": false,
      "t": 87519.07600000029,
      "d": 874.8966770833358,
      "v": 57
    },
    {
      "midi": 53,
      "hit": false,
      "t": 87519.07600000029,
      "d": 882.2487499999988,
      "v": 57
    },
    {
      "midi": 57,
      "hit": false,
      "t": 87519.07600000029,
      "d": 882.2487499999988,
      "v": 57
    },
    {
      "midi": 44,
      "hit": false,
      "t": 88930.67400000029,
      "d": 860.1925312500098,
      "v": 57
    },
    {
      "midi": 53,
      "hit": false,
      "t": 88930.67400000029,
      "d": 860.1925312500098,
      "v": 57
    },
    {
      "midi": 56,
      "hit": false,
      "t": 88930.67400000029,
      "d": 860.1925312500098,
      "v": 57
    },
    {
      "midi": 59,
      "hit": false,
      "t": 88930.67400000029,
      "d": 867.5446041666728,
      "v": 57
    },
    {
      "midi": 62,
      "hit": false,
      "t": 88930.67400000029,
      "d": 867.5446041666728,
      "v": 57
    },
    {
      "midi": 64,
      "hit": false,
      "t": 90342.2720000003,
      "d": 786.6718020833359,
      "v": 57
    },
    {
      "midi": 67,
      "hit": false,
      "t": 90342.2720000003,
      "d": 786.6718020833359,
      "v": 57
    },
    {
      "midi": 57,
      "hit": false,
      "t": 90342.2720000003,
      "d": 808.7280208333395,
      "v": 57
    },
    {
      "midi": 60,
      "hit": false,
      "t": 90342.2720000003,
      "d": 808.7280208333395,
      "v": 57
    },
    {
      "midi": 45,
      "hit": false,
      "t": 90342.2720000003,
      "d": 830.7842395833432,
      "v": 57
    },
    {
      "midi": 54,
      "hit": false,
      "t": 91753.87000000032,
      "d": 735.2072916666657,
      "v": 57
    },
    {
      "midi": 57,
      "hit": false,
      "t": 91753.87000000032,
      "d": 749.9114375000063,
      "v": 57
    },
    {
      "midi": 60,
      "hit": false,
      "t": 91753.87000000032,
      "d": 749.9114375000063,
      "v": 57
    },
    {
      "midi": 64,
      "hit": false,
      "t": 91753.87000000032,
      "d": 779.3197291666729,
      "v": 57
    },
    {
      "midi": 50,
      "hit": false,
      "t": 91753.87000000032,
      "d": 794.0238750000135,
      "v": 57
    },
    {
      "midi": 38,
      "hit": false,
      "t": 91753.87000000032,
      "d": 808.7280208333541,
      "v": 57
    },
    {
      "midi": 65,
      "hit": false,
      "t": 93165.46800000034,
      "d": 801.375947916662,
      "v": 57
    },
    {
      "midi": 69,
      "hit": false,
      "t": 93165.46800000034,
      "d": 801.375947916662,
      "v": 57
    },
    {
      "midi": 62,
      "hit": false,
      "t": 93165.46800000034,
      "d": 816.0800937500026,
      "v": 57
    },
    {
      "midi": 58,
      "hit": false,
      "t": 93165.46800000034,
      "d": 830.7842395833432,
      "v": 57
    },
    {
      "midi": 46,
      "hit": false,
      "t": 93165.46800000034,
      "d": 867.5446041666728,
      "v": 57
    },
    {
      "midi": 67,
      "hit": false,
      "t": 94577.06600000036,
      "d": 742.5593645833287,
      "v": 57
    },
    {
      "midi": 56,
      "hit": false,
      "t": 94577.06600000036,
      "d": 749.9114374999917,
      "v": 57
    },
    {
      "midi": 60,
      "hit": false,
      "t": 94577.06600000036,
      "d": 749.9114374999917,
      "v": 57
    },
    {
      "midi": 63,
      "hit": false,
      "t": 94577.06600000036,
      "d": 749.9114374999917,
      "v": 57
    },
    {
      "midi": 44,
      "hit": false,
      "t": 94577.06600000036,
      "d": 779.3197291666584,
      "v": 57
    },
    {
      "midi": 62,
      "hit": false,
      "t": 95988.66400000035,
      "d": 757.2635104166693,
      "v": 57
    },
    {
      "midi": 65,
      "hit": false,
      "t": 95988.66400000035,
      "d": 757.2635104166693,
      "v": 57
    },
    {
      "midi": 55,
      "hit": false,
      "t": 95988.66400000035,
      "d": 764.6155833333323,
      "v": 57
    },
    {
      "midi": 58,
      "hit": false,
      "t": 95988.66400000035,
      "d": 779.3197291666729,
      "v": 57
    },
    {
      "midi": 43,
      "hit": false,
      "t": 95988.66400000035,
      "d": 801.3759479166765,
      "v": 57
    },
    {
      "midi": 58,
      "hit": false,
      "t": 97400.26200000037,
      "d": 654.3344895833434,
      "v": 57
    },
    {
      "midi": 62,
      "hit": false,
      "t": 97400.26200000037,
      "d": 654.3344895833434,
      "v": 57
    },
    {
      "midi": 52,
      "hit": false,
      "t": 97400.26200000037,
      "d": 661.6865625000064,
      "v": 57
    },
    {
      "midi": 55,
      "hit": false,
      "t": 97400.26200000037,
      "d": 661.6865625000064,
      "v": 57
    },
    {
      "midi": 48,
      "hit": false,
      "t": 97400.26200000037,
      "d": 933.7132604166691,
      "v": 57
    },
    {
      "midi": 36,
      "hit": false,
      "t": 97400.26200000037,
      "d": 1029.290208333332,
      "v": 57
    },
    {
      "midi": 53,
      "hit": false,
      "t": 98811.86000000036,
      "d": 786.6718020833359,
      "v": 57
    },
    {
      "midi": 57,
      "hit": false,
      "t": 98811.86000000036,
      "d": 801.3759479166765,
      "v": 57
    },
    {
      "midi": 60,
      "hit": false,
      "t": 98811.86000000036,
      "d": 808.7280208333395,
      "v": 57
    },
    {
      "midi": 64,
      "hit": false,
      "t": 98811.86000000036,
      "d": 816.0800937500026,
      "v": 57
    },
    {
      "midi": 41,
      "hit": false,
      "t": 98811.86000000036,
      "d": 852.8404583333322,
      "v": 57
    },
    {
      "midi": 56,
      "hit": false,
      "t": 100223.45800000036,
      "d": 823.4321666666656,
      "v": 57
    },
    {
      "midi": 62,
      "hit": false,
      "t": 100223.45800000036,
      "d": 823.4321666666656,
      "v": 57
    },
    {
      "midi": 59,
      "hit": false,
      "t": 100223.45800000036,
      "d": 830.7842395833286,
      "v": 57
    },
    {
      "midi": 65,
      "hit": false,
      "t": 100223.45800000036,
      "d": 852.8404583333322,
      "v": 57
    },
    {
      "midi": 44,
      "hit": false,
      "t": 100223.45800000036,
      "d": 867.5446041666728,
      "v": 57
    },
    {
      "midi": 64,
      "hit": false,
      "t": 101635.05600000038,
      "d": 808.728020833325,
      "v": 57
    },
    {
      "midi": 67,
      "hit": false,
      "t": 101635.05600000038,
      "d": 808.728020833325,
      "v": 57
    },
    {
      "midi": 60,
      "hit": false,
      "t": 101635.05600000038,
      "d": 816.080093749988,
      "v": 57
    },
    {
      "midi": 57,
      "hit": false,
      "t": 101635.05600000038,
      "d": 838.1363124999916,
      "v": 57
    },
    {
      "midi": 45,
      "hit": false,
      "t": 101635.05600000038,
      "d": 874.8966770833213,
      "v": 57
    },
    {
      "midi": 54,
      "hit": false,
      "t": 103046.65400000036,
      "d": 757.2635104166839,
      "v": 57
    },
    {
      "midi": 60,
      "hit": false,
      "t": 103046.65400000036,
      "d": 771.9676562500244,
      "v": 57
    },
    {
      "midi": 57,
      "hit": false,
      "t": 103046.65400000036,
      "d": 779.3197291666875,
      "v": 57
    },
    {
      "midi": 64,
      "hit": false,
      "t": 103046.65400000036,
      "d": 794.023875000028,
      "v": 57
    },
    {
      "midi": 38,
      "hit": false,
      "t": 103046.65400000036,
      "d": 838.1363125000353,
      "v": 57
    },
    {
      "midi": 58,
      "hit": false,
      "t": 104458.2520000004,
      "d": 1161.6275208333245,
      "v": 57
    },
    {
      "midi": 65,
      "hit": false,
      "t": 104458.2520000004,
      "d": 1161.6275208333245,
      "v": 57
    },
    {
      "midi": 46,
      "hit": false,
      "t": 104458.2520000004,
      "d": 1168.9795937499875,
      "v": 57
    },
    {
      "midi": 62,
      "hit": false,
      "t": 104458.2520000004,
      "d": 1168.9795937499875,
      "v": 57
    },
    {
      "midi": 69,
      "hit": false,
      "t": 104458.2520000004,
      "d": 1191.0358124999912,
      "v": 57
    },
    {
      "midi": 59,
      "hit": false,
      "t": 107281.4480000004,
      "d": 779.3197291666729,
      "v": 57
    },
    {
      "midi": 62,
      "hit": false,
      "t": 107281.4480000004,
      "d": 794.0238750000135,
      "v": 57
    },
    {
      "midi": 65,
      "hit": false,
      "t": 107281.4480000004,
      "d": 794.0238750000135,
      "v": 57
    },
    {
      "midi": 68,
      "hit": false,
      "t": 107281.4480000004,
      "d": 794.0238750000135,
      "v": 57
    },
    {
      "midi": 47,
      "hit": false,
      "t": 107281.4480000004,
      "d": 838.1363125000207,
      "v": 57
    },
    {
      "midi": 56,
      "hit": false,
      "t": 108693.04600000042,
      "d": 860.1925312500098,
      "v": 57
    },
    {
      "midi": 52,
      "hit": false,
      "t": 108693.04600000042,
      "d": 874.8966770833504,
      "v": 57
    },
    {
      "midi": 59,
      "hit": false,
      "t": 108693.04600000042,
      "d": 889.600822916691,
      "v": 57
    },
    {
      "midi": 62,
      "hit": false,
      "t": 108693.04600000042,
      "d": 896.952895833354,
      "v": 57
    },
    {
      "midi": 65,
      "hit": false,
      "t": 108693.04600000042,
      "d": 919.0091145833576,
      "v": 57
    },
    {
      "midi": 40,
      "hit": false,
      "t": 108693.04600000042,
      "d": 933.7132604166982,
      "v": 57
    },
    {
      "midi": 41,
      "hit": false,
      "t": 110104.64400000045,
      "d": 1191.0358125000057,
      "v": 57
    },
    {
      "midi": 64,
      "hit": false,
      "t": 110457.54350000045,
      "d": 249.9704791666736,
      "v": 57
    },
    {
      "midi": 57,
      "hit": false,
      "t": 110457.54350000045,
      "d": 257.32255208333663,
      "v": 57
    },
    {
      "midi": 60,
      "hit": false,
      "t": 110457.54350000045,
      "d": 257.32255208333663,
      "v": 57
    },
    {
      "midi": 53,
      "hit": false,
      "t": 110457.54350000045,
      "d": 264.67462499999965,
      "v": 57
    },
    {
      "midi": 64,
      "hit": false,
      "t": 111163.34250000045,
      "d": 345.5474270833365,
      "v": 57
    },
    {
      "midi": 53,
      "hit": false,
      "t": 111163.34250000045,
      "d": 374.95571875000314,
      "v": 57
    },
    {
      "midi": 60,
      "hit": false,
      "t": 111163.34250000045,
      "d": 374.95571875000314,
      "v": 57
    },
    {
      "midi": 57,
      "hit": false,
      "t": 111163.34250000045,
      "d": 389.65986458334373,
      "v": 57
    },
    {
      "midi": 44,
      "hit": false,
      "t": 111516.24200000045,
      "d": 1205.7399583333463,
      "v": 57
    },
    {
      "midi": 56,
      "hit": false,
      "t": 111869.14150000046,
      "d": 154.39353124999616,
      "v": 57
    },
    {
      "midi": 53,
      "hit": false,
      "t": 111869.14150000046,
      "d": 161.74560416665918,
      "v": 57
    },
    {
      "midi": 62,
      "hit": false,
      "t": 111869.14150000046,
      "d": 176.44974999999977,
      "v": 57
    },
    {
      "midi": 59,
      "hit": false,
      "t": 111869.14150000046,
      "d": 183.8018229166628,
      "v": 57
    },
    {
      "midi": 53,
      "hit": false,
      "t": 112574.94050000046,
      "d": 323.4912083333329,
      "v": 57
    },
    {
      "midi": 59,
      "hit": false,
      "t": 112574.94050000046,
      "d": 345.5474270833365,
      "v": 57
    },
    {
      "midi": 62,
      "hit": false,
      "t": 112574.94050000046,
      "d": 352.89949999999953,
      "v": 57
    },
    {
      "midi": 56,
      "hit": false,
      "t": 112574.94050000046,
      "d": 360.25157291666255,
      "v": 57
    },
    {
      "midi": 45,
      "hit": false,
      "t": 112927.84000000046,
      "d": 1389.541781250009,
      "v": 57
    },
    {
      "midi": 57,
      "hit": false,
      "t": 113280.73950000046,
      "d": 161.74560416667373,
      "v": 57
    },
    {
      "midi": 60,
      "hit": false,
      "t": 113280.73950000046,
      "d": 161.74560416667373,
      "v": 57
    },
    {
      "midi": 64,
      "hit": false,
      "t": 113280.73950000046,
      "d": 161.74560416667373,
      "v": 57
    },
    {
      "midi": 60,
      "hit": false,
      "t": 113986.53850000048,
      "d": 352.89949999999953,
      "v": 57
    },
    {
      "midi": 64,
      "hit": false,
      "t": 113986.53850000048,
      "d": 360.25157291666255,
      "v": 57
    },
    {
      "midi": 57,
      "hit": false,
      "t": 113986.53850000048,
      "d": 367.6036458333256,
      "v": 57
    },
    {
      "midi": 38,
      "hit": false,
      "t": 114339.43800000047,
      "d": 911.6570416666655,
      "v": 57
    },
    {
      "midi": 54,
      "hit": false,
      "t": 114692.33750000047,
      "d": 154.39353124999616,
      "v": 57
    },
    {
      "midi": 57,
      "hit": false,
      "t": 114692.33750000047,
      "d": 176.44974999999977,
      "v": 57
    },
    {
      "midi": 60,
      "hit": false,
      "t": 114692.33750000047,
      "d": 176.44974999999977,
      "v": 57
    },
    {
      "midi": 64,
      "hit": false,
      "t": 114692.33750000047,
      "d": 176.44974999999977,
      "v": 57
    },
    {
      "midi": 40,
      "hit": false,
      "t": 115280.5033333338,
      "d": 455.82852083334,
      "v": 57
    },
    {
      "midi": 60,
      "hit": false,
      "t": 115280.5033333338,
      "d": 470.5326666666806,
      "v": 57
    },
    {
      "midi": 54,
      "hit": false,
      "t": 115280.5033333338,
      "d": 492.5888854166842,
      "v": 57
    },
    {
      "midi": 57,
      "hit": false,
      "t": 115280.5033333338,
      "d": 492.5888854166842,
      "v": 57
    },
    {
      "midi": 64,
      "hit": false,
      "t": 115280.5033333338,
      "d": 499.9409583333472,
      "v": 57
    },
    {
      "midi": 41,
      "hit": false,
      "t": 115751.03600000049,
      "d": 1271.908614583328,
      "v": 57
    },
    {
      "midi": 53,
      "hit": false,
      "t": 116103.93550000049,
      "d": 124.98523958332953,
      "v": 57
    },
    {
      "midi": 64,
      "hit": false,
      "t": 116103.93550000049,
      "d": 132.33731249999255,
      "v": 57
    },
    {
      "midi": 57,
      "hit": false,
      "t": 116103.93550000049,
      "d": 147.04145833333314,
      "v": 57
    },
    {
      "midi": 60,
      "hit": false,
      "t": 116103.93550000049,
      "d": 147.04145833333314,
      "v": 57
    },
    {
      "midi": 64,
      "hit": false,
      "t": 116809.73450000049,
      "d": 345.5474270833365,
      "v": 57
    },
    {
      "midi": 60,
      "hit": false,
      "t": 116809.73450000049,
      "d": 360.25157291666255,
      "v": 57
    },
    {
      "midi": 53,
      "hit": false,
      "t": 116809.73450000049,
      "d": 382.30779166666616,
      "v": 57
    },
    {
      "midi": 57,
      "hit": false,
      "t": 116809.73450000049,
      "d": 389.6598645833292,
      "v": 57
    },
    {
      "midi": 44,
      "hit": false,
      "t": 117162.63400000049,
      "d": 1338.0772708333388,
      "v": 57
    },
    {
      "midi": 53,
      "hit": false,
      "t": 117515.53350000049,
      "d": 117.63316666666651,
      "v": 57
    },
    {
      "midi": 56,
      "hit": false,
      "t": 117515.53350000049,
      "d": 117.63316666666651,
      "v": 57
    },
    {
      "midi": 59,
      "hit": false,
      "t": 117515.53350000049,
      "d": 139.68938541667012,
      "v": 57
    },
    {
      "midi": 62,
      "hit": false,
      "t": 117515.53350000049,
      "d": 147.04145833333314,
      "v": 57
    },
    {
      "midi": 53,
      "hit": false,
      "t": 118221.33250000048,
      "d": 382.3077916666807,
      "v": 57
    },
    {
      "midi": 56,
      "hit": false,
      "t": 118221.33250000048,
      "d": 397.0119375000213,
      "v": 57
    },
    {
      "midi": 59,
      "hit": false,
      "t": 118221.33250000048,
      "d": 404.3640104166843,
      "v": 57
    },
    {
      "midi": 62,
      "hit": false,
      "t": 118221.33250000048,
      "d": 404.3640104166843,
      "v": 57
    },
    {
      "midi": 45,
      "hit": false,
      "t": 118574.2320000005,
      "d": 1418.9500729166612,
      "v": 57
    },
    {
      "midi": 57,
      "hit": false,
      "t": 118927.1315000005,
      "d": 124.98523958332953,
      "v": 57
    },
    {
      "midi": 60,
      "hit": false,
      "t": 118927.1315000005,
      "d": 139.68938541667012,
      "v": 57
    },
    {
      "midi": 64,
      "hit": false,
      "t": 118927.1315000005,
      "d": 147.04145833333314,
      "v": 57
    },
    {
      "midi": 57,
      "hit": false,
      "t": 119632.9305000005,
      "d": 294.0829166666663,
      "v": 57
    },
    {
      "midi": 60,
      "hit": false,
      "t": 119632.9305000005,
      "d": 338.1953541666735,
      "v": 57
    },
    {
      "midi": 64,
      "hit": false,
      "t": 119632.9305000005,
      "d": 345.5474270833365,
      "v": 57
    },
    {
      "midi": 48,
      "hit": false,
      "t": 119985.8300000005,
      "d": 1374.8376354166685,
      "v": 57
    },
    {
      "midi": 53,
      "hit": false,
      "t": 120338.7295000005,
      "d": 220.56218750000698,
      "v": 57
    },
    {
      "midi": 58,
      "hit": false,
      "t": 120338.7295000005,
      "d": 227.91426041667,
      "v": 57
    },
    {
      "midi": 62,
      "hit": false,
      "t": 120338.7295000005,
      "d": 227.91426041667,
      "v": 57
    },
    {
      "midi": 62,
      "hit": false,
      "t": 121044.5285000005,
      "d": 286.73084375000326,
      "v": 57
    },
    {
      "midi": 58,
      "hit": false,
      "t": 121044.5285000005,
      "d": 308.78706250000687,
      "v": 57
    },
    {
      "midi": 53,
      "hit": false,
      "t": 121044.5285000005,
      "d": 316.1391354166699,
      "v": 57
    },
    {
      "midi": 41,
      "hit": false,
      "t": 121397.4280000005,
      "d": 1191.0358125000057,
      "v": 57
    },
    {
      "midi": 64,
      "hit": false,
      "t": 121750.3275000005,
      "d": 249.9704791666736,
      "v": 57
    },
    {
      "midi": 57,
      "hit": false,
      "t": 121750.3275000005,
      "d": 257.32255208333663,
      "v": 57
    },
    {
      "midi": 60,
      "hit": false,
      "t": 121750.3275000005,
      "d": 257.32255208333663,
      "v": 57
    },
    {
      "midi": 53,
      "hit": false,
      "t": 121750.3275000005,
      "d": 264.67462499999965,
      "v": 57
    },
    {
      "midi": 64,
      "hit": false,
      "t": 122456.1265000005,
      "d": 345.5474270833365,
      "v": 57
    },
    {
      "midi": 53,
      "hit": false,
      "t": 122456.1265000005,
      "d": 374.95571875000314,
      "v": 57
    },
    {
      "midi": 60,
      "hit": false,
      "t": 122456.1265000005,
      "d": 374.95571875000314,
      "v": 57
    },
    {
      "midi": 57,
      "hit": false,
      "t": 122456.1265000005,
      "d": 389.65986458334373,
      "v": 57
    },
    {
      "midi": 44,
      "hit": false,
      "t": 122809.0260000005,
      "d": 1205.7399583333463,
      "v": 57
    },
    {
      "midi": 56,
      "hit": false,
      "t": 123161.9255000005,
      "d": 154.39353124999616,
      "v": 57
    },
    {
      "midi": 53,
      "hit": false,
      "t": 123161.9255000005,
      "d": 161.74560416665918,
      "v": 57
    },
    {
      "midi": 62,
      "hit": false,
      "t": 123161.9255000005,
      "d": 176.44974999999977,
      "v": 57
    },
    {
      "midi": 59,
      "hit": false,
      "t": 123161.9255000005,
      "d": 183.8018229166628,
      "v": 57
    },
    {
      "midi": 53,
      "hit": false,
      "t": 123867.7245000005,
      "d": 323.4912083333329,
      "v": 57
    },
    {
      "midi": 59,
      "hit": false,
      "t": 123867.7245000005,
      "d": 345.5474270833365,
      "v": 57
    },
    {
      "midi": 62,
      "hit": false,
      "t": 123867.7245000005,
      "d": 352.89949999999953,
      "v": 57
    },
    {
      "midi": 56,
      "hit": false,
      "t": 123867.7245000005,
      "d": 360.25157291666255,
      "v": 57
    },
    {
      "midi": 45,
      "hit": false,
      "t": 124220.6240000005,
      "d": 1389.541781250009,
      "v": 57
    },
    {
      "midi": 57,
      "hit": false,
      "t": 124573.5235000005,
      "d": 161.74560416667373,
      "v": 57
    },
    {
      "midi": 60,
      "hit": false,
      "t": 124573.5235000005,
      "d": 161.74560416667373,
      "v": 57
    },
    {
      "midi": 64,
      "hit": false,
      "t": 124573.5235000005,
      "d": 161.74560416667373,
      "v": 57
    },
    {
      "midi": 60,
      "hit": false,
      "t": 125279.32250000052,
      "d": 352.89949999999953,
      "v": 57
    },
    {
      "midi": 64,
      "hit": false,
      "t": 125279.32250000052,
      "d": 360.25157291666255,
      "v": 57
    },
    {
      "midi": 57,
      "hit": false,
      "t": 125279.32250000052,
      "d": 367.6036458333256,
      "v": 57
    },
    {
      "midi": 38,
      "hit": false,
      "t": 125632.22200000052,
      "d": 911.6570416666655,
      "v": 57
    },
    {
      "midi": 54,
      "hit": false,
      "t": 125985.12150000052,
      "d": 154.39353124999616,
      "v": 57
    },
    {
      "midi": 57,
      "hit": false,
      "t": 125985.12150000052,
      "d": 176.44974999999977,
      "v": 57
    },
    {
      "midi": 60,
      "hit": false,
      "t": 125985.12150000052,
      "d": 176.44974999999977,
      "v": 57
    },
    {
      "midi": 64,
      "hit": false,
      "t": 125985.12150000052,
      "d": 176.44974999999977,
      "v": 57
    },
    {
      "midi": 40,
      "hit": false,
      "t": 126573.28733333385,
      "d": 455.82852083334,
      "v": 57
    },
    {
      "midi": 60,
      "hit": false,
      "t": 126573.28733333385,
      "d": 470.5326666666806,
      "v": 57
    },
    {
      "midi": 54,
      "hit": false,
      "t": 126573.28733333385,
      "d": 492.5888854166842,
      "v": 57
    },
    {
      "midi": 57,
      "hit": false,
      "t": 126573.28733333385,
      "d": 492.5888854166842,
      "v": 57
    },
    {
      "midi": 64,
      "hit": false,
      "t": 126573.28733333385,
      "d": 499.9409583333472,
      "v": 57
    },
    {
      "midi": 41,
      "hit": false,
      "t": 127043.82000000053,
      "d": 1271.908614583328,
      "v": 57
    },
    {
      "midi": 53,
      "hit": false,
      "t": 127396.71950000053,
      "d": 124.98523958332953,
      "v": 57
    },
    {
      "midi": 64,
      "hit": false,
      "t": 127396.71950000053,
      "d": 132.33731249999255,
      "v": 57
    },
    {
      "midi": 57,
      "hit": false,
      "t": 127396.71950000053,
      "d": 147.04145833333314,
      "v": 57
    },
    {
      "midi": 60,
      "hit": false,
      "t": 127396.71950000053,
      "d": 147.04145833333314,
      "v": 57
    },
    {
      "midi": 64,
      "hit": false,
      "t": 128102.51850000053,
      "d": 345.5474270833365,
      "v": 57
    },
    {
      "midi": 60,
      "hit": false,
      "t": 128102.51850000053,
      "d": 360.25157291666255,
      "v": 57
    },
    {
      "midi": 53,
      "hit": false,
      "t": 128102.51850000053,
      "d": 382.30779166666616,
      "v": 57
    },
    {
      "midi": 57,
      "hit": false,
      "t": 128102.51850000053,
      "d": 389.6598645833292,
      "v": 57
    },
    {
      "midi": 44,
      "hit": false,
      "t": 128455.41800000053,
      "d": 1338.0772708333388,
      "v": 57
    },
    {
      "midi": 53,
      "hit": false,
      "t": 128808.31750000053,
      "d": 117.63316666666651,
      "v": 57
    },
    {
      "midi": 56,
      "hit": false,
      "t": 128808.31750000053,
      "d": 117.63316666666651,
      "v": 57
    },
    {
      "midi": 59,
      "hit": false,
      "t": 128808.31750000053,
      "d": 139.68938541667012,
      "v": 57
    },
    {
      "midi": 62,
      "hit": false,
      "t": 128808.31750000053,
      "d": 147.04145833333314,
      "v": 57
    },
    {
      "midi": 53,
      "hit": false,
      "t": 129514.11650000053,
      "d": 382.3077916666807,
      "v": 57
    },
    {
      "midi": 56,
      "hit": false,
      "t": 129514.11650000053,
      "d": 397.0119375000213,
      "v": 57
    },
    {
      "midi": 59,
      "hit": false,
      "t": 129514.11650000053,
      "d": 404.3640104166843,
      "v": 57
    },
    {
      "midi": 62,
      "hit": false,
      "t": 129514.11650000053,
      "d": 404.3640104166843,
      "v": 57
    },
    {
      "midi": 45,
      "hit": false,
      "t": 129867.01600000054,
      "d": 1418.9500729166757,
      "v": 57
    },
    {
      "midi": 57,
      "hit": false,
      "t": 130219.91550000054,
      "d": 124.98523958332953,
      "v": 57
    },
    {
      "midi": 60,
      "hit": false,
      "t": 130219.91550000054,
      "d": 139.68938541667012,
      "v": 57
    },
    {
      "midi": 64,
      "hit": false,
      "t": 130219.91550000054,
      "d": 147.04145833333314,
      "v": 57
    },
    {
      "midi": 57,
      "hit": false,
      "t": 130925.71450000054,
      "d": 294.08291666668083,
      "v": 57
    },
    {
      "midi": 60,
      "hit": false,
      "t": 130925.71450000054,
      "d": 338.19535416668805,
      "v": 57
    },
    {
      "midi": 64,
      "hit": false,
      "t": 130925.71450000054,
      "d": 345.54742708335107,
      "v": 57
    },
    {
      "midi": 48,
      "hit": false,
      "t": 131278.61400000055,
      "d": 1374.837635416654,
      "v": 57
    },
    {
      "midi": 53,
      "hit": false,
      "t": 131631.51350000055,
      "d": 220.56218750000698,
      "v": 57
    },
    {
      "midi": 58,
      "hit": false,
      "t": 131631.51350000055,
      "d": 227.91426041667,
      "v": 57
    },
    {
      "midi": 62,
      "hit": false,
      "t": 131631.51350000055,
      "d": 227.91426041667,
      "v": 57
    },
    {
      "midi": 62,
      "hit": false,
      "t": 132337.31250000055,
      "d": 286.73084375000326,
      "v": 57
    },
    {
      "midi": 58,
      "hit": false,
      "t": 132337.31250000055,
      "d": 308.7870624999923,
      "v": 57
    },
    {
      "midi": 53,
      "hit": false,
      "t": 132337.31250000055,
      "d": 316.13913541665534,
      "v": 57
    },
    {
      "midi": 41,
      "hit": false,
      "t": 132690.21200000055,
      "d": 1191.0358124999912,
      "v": 57
    },
    {
      "midi": 64,
      "hit": false,
      "t": 133043.11150000055,
      "d": 249.97047916665906,
      "v": 57
    },
    {
      "midi": 57,
      "hit": false,
      "t": 133043.11150000055,
      "d": 257.3225520833221,
      "v": 57
    },
    {
      "midi": 60,
      "hit": false,
      "t": 133043.11150000055,
      "d": 257.3225520833221,
      "v": 57
    },
    {
      "midi": 53,
      "hit": false,
      "t": 133043.11150000055,
      "d": 264.6746249999851,
      "v": 57
    },
    {
      "midi": 64,
      "hit": false,
      "t": 133748.91050000055,
      "d": 345.5474270833365,
      "v": 57
    },
    {
      "midi": 53,
      "hit": false,
      "t": 133748.91050000055,
      "d": 374.9557187499886,
      "v": 57
    },
    {
      "midi": 60,
      "hit": false,
      "t": 133748.91050000055,
      "d": 374.9557187499886,
      "v": 57
    },
    {
      "midi": 57,
      "hit": false,
      "t": 133748.91050000055,
      "d": 389.65986458331463,
      "v": 57
    },
    {
      "midi": 44,
      "hit": false,
      "t": 134101.81000000055,
      "d": 1205.7399583333172,
      "v": 57
    },
    {
      "midi": 56,
      "hit": false,
      "t": 134454.70950000052,
      "d": 154.3935312500107,
      "v": 57
    },
    {
      "midi": 53,
      "hit": false,
      "t": 134454.70950000052,
      "d": 161.74560416667373,
      "v": 57
    },
    {
      "midi": 62,
      "hit": false,
      "t": 134454.70950000052,
      "d": 176.44974999999977,
      "v": 57
    },
    {
      "midi": 59,
      "hit": false,
      "t": 134454.70950000052,
      "d": 183.8018229166628,
      "v": 57
    },
    {
      "midi": 53,
      "hit": false,
      "t": 135160.50850000052,
      "d": 323.49120833334746,
      "v": 57
    },
    {
      "midi": 59,
      "hit": false,
      "t": 135160.50850000052,
      "d": 345.5474270833365,
      "v": 57
    },
    {
      "midi": 62,
      "hit": false,
      "t": 135160.50850000052,
      "d": 352.89949999999953,
      "v": 57
    },
    {
      "midi": 56,
      "hit": false,
      "t": 135160.50850000052,
      "d": 360.25157291666255,
      "v": 57
    },
    {
      "midi": 45,
      "hit": false,
      "t": 135513.40800000052,
      "d": 1389.541781250009,
      "v": 57
    },
    {
      "midi": 57,
      "hit": false,
      "t": 135866.30750000052,
      "d": 161.74560416667373,
      "v": 57
    },
    {
      "midi": 60,
      "hit": false,
      "t": 135866.30750000052,
      "d": 161.74560416667373,
      "v": 57
    },
    {
      "midi": 64,
      "hit": false,
      "t": 135866.30750000052,
      "d": 161.74560416667373,
      "v": 57
    },
    {
      "midi": 60,
      "hit": false,
      "t": 136572.10650000052,
      "d": 352.89949999999953,
      "v": 57
    },
    {
      "midi": 64,
      "hit": false,
      "t": 136572.10650000052,
      "d": 360.25157291666255,
      "v": 57
    },
    {
      "midi": 57,
      "hit": false,
      "t": 136572.10650000052,
      "d": 367.6036458333256,
      "v": 57
    },
    {
      "midi": 38,
      "hit": false,
      "t": 136925.00600000052,
      "d": 911.65704166668,
      "v": 57
    },
    {
      "midi": 54,
      "hit": false,
      "t": 137277.90550000052,
      "d": 154.3935312500107,
      "v": 57
    },
    {
      "midi": 57,
      "hit": false,
      "t": 137277.90550000052,
      "d": 176.44974999999977,
      "v": 57
    },
    {
      "midi": 60,
      "hit": false,
      "t": 137277.90550000052,
      "d": 176.44974999999977,
      "v": 57
    },
    {
      "midi": 64,
      "hit": false,
      "t": 137277.90550000052,
      "d": 176.44974999999977,
      "v": 57
    },
    {
      "midi": 40,
      "hit": false,
      "t": 137866.07133333388,
      "d": 455.82852083334,
      "v": 57
    },
    {
      "midi": 60,
      "hit": false,
      "t": 137866.07133333388,
      "d": 470.53266666666605,
      "v": 57
    },
    {
      "midi": 54,
      "hit": false,
      "t": 137866.07133333388,
      "d": 492.5888854166551,
      "v": 57
    },
    {
      "midi": 57,
      "hit": false,
      "t": 137866.07133333388,
      "d": 492.5888854166551,
      "v": 57
    },
    {
      "midi": 64,
      "hit": false,
      "t": 137866.07133333388,
      "d": 499.9409583333181,
      "v": 57
    },
    {
      "midi": 41,
      "hit": false,
      "t": 138336.60400000055,
      "d": 1271.9086145833426,
      "v": 57
    },
    {
      "midi": 53,
      "hit": false,
      "t": 138689.50350000054,
      "d": 124.98523958332953,
      "v": 57
    },
    {
      "midi": 64,
      "hit": false,
      "t": 138689.50350000054,
      "d": 132.33731249999255,
      "v": 57
    },
    {
      "midi": 57,
      "hit": false,
      "t": 138689.50350000054,
      "d": 147.0414583333186,
      "v": 57
    },
    {
      "midi": 60,
      "hit": false,
      "t": 138689.50350000054,
      "d": 147.0414583333186,
      "v": 57
    },
    {
      "midi": 64,
      "hit": false,
      "t": 139395.30250000054,
      "d": 345.5474270833365,
      "v": 57
    },
    {
      "midi": 60,
      "hit": false,
      "t": 139395.30250000054,
      "d": 360.25157291666255,
      "v": 57
    },
    {
      "midi": 53,
      "hit": false,
      "t": 139395.30250000054,
      "d": 382.3077916666516,
      "v": 57
    },
    {
      "midi": 57,
      "hit": false,
      "t": 139395.30250000054,
      "d": 389.65986458331463,
      "v": 57
    },
    {
      "midi": 44,
      "hit": false,
      "t": 139748.20200000054,
      "d": 1338.0772708333097,
      "v": 57
    },
    {
      "midi": 53,
      "hit": false,
      "t": 140101.1015000005,
      "d": 117.63316666666651,
      "v": 57
    },
    {
      "midi": 56,
      "hit": false,
      "t": 140101.1015000005,
      "d": 117.63316666666651,
      "v": 57
    },
    {
      "midi": 59,
      "hit": false,
      "t": 140101.1015000005,
      "d": 139.68938541665557,
      "v": 57
    },
    {
      "midi": 62,
      "hit": false,
      "t": 140101.1015000005,
      "d": 147.0414583333186,
      "v": 57
    },
    {
      "midi": 53,
      "hit": false,
      "t": 140806.9005000005,
      "d": 382.3077916666807,
      "v": 57
    },
    {
      "midi": 56,
      "hit": false,
      "t": 140806.9005000005,
      "d": 397.01193750000675,
      "v": 57
    },
    {
      "midi": 59,
      "hit": false,
      "t": 140806.9005000005,
      "d": 404.36401041666977,
      "v": 57
    },
    {
      "midi": 62,
      "hit": false,
      "t": 140806.9005000005,
      "d": 404.36401041666977,
      "v": 57
    },
    {
      "midi": 45,
      "hit": false,
      "t": 141159.8000000005,
      "d": 1418.9500729166612,
      "v": 57
    },
    {
      "midi": 57,
      "hit": false,
      "t": 141512.6995000005,
      "d": 124.98523958332953,
      "v": 57
    },
    {
      "midi": 60,
      "hit": false,
      "t": 141512.6995000005,
      "d": 139.68938541665557,
      "v": 57
    },
    {
      "midi": 64,
      "hit": false,
      "t": 141512.6995000005,
      "d": 147.0414583333186,
      "v": 57
    },
    {
      "midi": 57,
      "hit": false,
      "t": 142218.4985000005,
      "d": 294.0829166666663,
      "v": 57
    },
    {
      "midi": 60,
      "hit": false,
      "t": 142218.4985000005,
      "d": 338.1953541666735,
      "v": 57
    },
    {
      "midi": 64,
      "hit": false,
      "t": 142218.4985000005,
      "d": 345.5474270833365,
      "v": 57
    },
    {
      "midi": 48,
      "hit": false,
      "t": 142571.3980000005,
      "d": 1374.837635416654,
      "v": 57
    },
    {
      "midi": 53,
      "hit": false,
      "t": 142924.2975000005,
      "d": 220.56218750000698,
      "v": 57
    },
    {
      "midi": 58,
      "hit": false,
      "t": 142924.2975000005,
      "d": 227.91426041667,
      "v": 57
    },
    {
      "midi": 62,
      "hit": false,
      "t": 142924.2975000005,
      "d": 227.91426041667,
      "v": 57
    },
    {
      "midi": 62,
      "hit": false,
      "t": 143630.0965000005,
      "d": 286.73084375000326,
      "v": 57
    },
    {
      "midi": 58,
      "hit": false,
      "t": 143630.0965000005,
      "d": 308.7870624999923,
      "v": 57
    },
    {
      "midi": 53,
      "hit": false,
      "t": 143630.0965000005,
      "d": 316.13913541665534,
      "v": 57
    },
    {
      "midi": 41,
      "hit": false,
      "t": 143982.9960000005,
      "d": 1191.0358124999912,
      "v": 57
    },
    {
      "midi": 64,
      "hit": false,
      "t": 144335.8955000005,
      "d": 249.97047916665906,
      "v": 57
    },
    {
      "midi": 57,
      "hit": false,
      "t": 144335.8955000005,
      "d": 257.3225520833221,
      "v": 57
    },
    {
      "midi": 60,
      "hit": false,
      "t": 144335.8955000005,
      "d": 257.3225520833221,
      "v": 57
    },
    {
      "midi": 53,
      "hit": false,
      "t": 144335.8955000005,
      "d": 264.6746249999851,
      "v": 57
    },
    {
      "midi": 64,
      "hit": false,
      "t": 145041.6945000005,
      "d": 345.5474270833365,
      "v": 57
    },
    {
      "midi": 53,
      "hit": false,
      "t": 145041.6945000005,
      "d": 374.9557187499886,
      "v": 57
    },
    {
      "midi": 60,
      "hit": false,
      "t": 145041.6945000005,
      "d": 374.9557187499886,
      "v": 57
    },
    {
      "midi": 57,
      "hit": false,
      "t": 145041.6945000005,
      "d": 389.65986458331463,
      "v": 57
    },
    {
      "midi": 44,
      "hit": false,
      "t": 145394.5940000005,
      "d": 1205.7399583333172,
      "v": 57
    },
    {
      "midi": 56,
      "hit": false,
      "t": 145747.49350000048,
      "d": 154.3935312500107,
      "v": 57
    },
    {
      "midi": 53,
      "hit": false,
      "t": 145747.49350000048,
      "d": 161.74560416667373,
      "v": 57
    },
    {
      "midi": 62,
      "hit": false,
      "t": 145747.49350000048,
      "d": 176.44974999999977,
      "v": 57
    },
    {
      "midi": 59,
      "hit": false,
      "t": 145747.49350000048,
      "d": 183.8018229166628,
      "v": 57
    },
    {
      "midi": 53,
      "hit": false,
      "t": 146453.29250000048,
      "d": 323.49120833334746,
      "v": 57
    },
    {
      "midi": 59,
      "hit": false,
      "t": 146453.29250000048,
      "d": 345.5474270833365,
      "v": 57
    },
    {
      "midi": 62,
      "hit": false,
      "t": 146453.29250000048,
      "d": 352.89949999999953,
      "v": 57
    },
    {
      "midi": 56,
      "hit": false,
      "t": 146453.29250000048,
      "d": 360.25157291666255,
      "v": 57
    },
    {
      "midi": 45,
      "hit": false,
      "t": 146806.19200000048,
      "d": 1389.541781250009,
      "v": 57
    },
    {
      "midi": 57,
      "hit": false,
      "t": 147159.09150000048,
      "d": 161.74560416667373,
      "v": 57
    },
    {
      "midi": 60,
      "hit": false,
      "t": 147159.09150000048,
      "d": 161.74560416667373,
      "v": 57
    },
    {
      "midi": 64,
      "hit": false,
      "t": 147159.09150000048,
      "d": 161.74560416667373,
      "v": 57
    },
    {
      "midi": 60,
      "hit": false,
      "t": 147864.89050000047,
      "d": 352.89949999999953,
      "v": 57
    },
    {
      "midi": 64,
      "hit": false,
      "t": 147864.89050000047,
      "d": 360.25157291666255,
      "v": 57
    },
    {
      "midi": 57,
      "hit": false,
      "t": 147864.89050000047,
      "d": 367.6036458333256,
      "v": 57
    },
    {
      "midi": 38,
      "hit": false,
      "t": 148217.79000000047,
      "d": 911.65704166668,
      "v": 57
    },
    {
      "midi": 54,
      "hit": false,
      "t": 148570.68950000047,
      "d": 154.3935312500107,
      "v": 57
    },
    {
      "midi": 57,
      "hit": false,
      "t": 148570.68950000047,
      "d": 176.44974999999977,
      "v": 57
    },
    {
      "midi": 60,
      "hit": false,
      "t": 148570.68950000047,
      "d": 176.44974999999977,
      "v": 57
    },
    {
      "midi": 64,
      "hit": false,
      "t": 148570.68950000047,
      "d": 176.44974999999977,
      "v": 57
    },
    {
      "midi": 40,
      "hit": false,
      "t": 149158.85533333384,
      "d": 455.82852083334,
      "v": 57
    },
    {
      "midi": 60,
      "hit": false,
      "t": 149158.85533333384,
      "d": 470.53266666666605,
      "v": 57
    },
    {
      "midi": 54,
      "hit": false,
      "t": 149158.85533333384,
      "d": 492.5888854166551,
      "v": 57
    },
    {
      "midi": 57,
      "hit": false,
      "t": 149158.85533333384,
      "d": 492.5888854166551,
      "v": 57
    },
    {
      "midi": 64,
      "hit": false,
      "t": 149158.85533333384,
      "d": 499.9409583333181,
      "v": 57
    },
    {
      "midi": 41,
      "hit": false,
      "t": 149629.3880000005,
      "d": 1271.9086145833426,
      "v": 57
    },
    {
      "midi": 53,
      "hit": false,
      "t": 149982.2875000005,
      "d": 124.98523958332953,
      "v": 57
    },
    {
      "midi": 64,
      "hit": false,
      "t": 149982.2875000005,
      "d": 132.33731249999255,
      "v": 57
    },
    {
      "midi": 57,
      "hit": false,
      "t": 149982.2875000005,
      "d": 147.0414583333186,
      "v": 57
    },
    {
      "midi": 60,
      "hit": false,
      "t": 149982.2875000005,
      "d": 147.0414583333186,
      "v": 57
    },
    {
      "midi": 64,
      "hit": false,
      "t": 150688.0865000005,
      "d": 345.5474270833365,
      "v": 57
    },
    {
      "midi": 60,
      "hit": false,
      "t": 150688.0865000005,
      "d": 360.25157291666255,
      "v": 57
    },
    {
      "midi": 53,
      "hit": false,
      "t": 150688.0865000005,
      "d": 382.3077916666516,
      "v": 57
    },
    {
      "midi": 57,
      "hit": false,
      "t": 150688.0865000005,
      "d": 389.65986458331463,
      "v": 57
    },
    {
      "midi": 44,
      "hit": false,
      "t": 151040.9860000005,
      "d": 1338.0772708333097,
      "v": 57
    },
    {
      "midi": 53,
      "hit": false,
      "t": 151393.88550000047,
      "d": 117.63316666666651,
      "v": 57
    },
    {
      "midi": 56,
      "hit": false,
      "t": 151393.88550000047,
      "d": 117.63316666666651,
      "v": 57
    },
    {
      "midi": 59,
      "hit": false,
      "t": 151393.88550000047,
      "d": 139.68938541665557,
      "v": 57
    },
    {
      "midi": 62,
      "hit": false,
      "t": 151393.88550000047,
      "d": 147.0414583333186,
      "v": 57
    },
    {
      "midi": 53,
      "hit": false,
      "t": 152099.68450000047,
      "d": 382.3077916666807,
      "v": 57
    },
    {
      "midi": 56,
      "hit": false,
      "t": 152099.68450000047,
      "d": 397.01193750000675,
      "v": 57
    },
    {
      "midi": 59,
      "hit": false,
      "t": 152099.68450000047,
      "d": 404.36401041666977,
      "v": 57
    },
    {
      "midi": 62,
      "hit": false,
      "t": 152099.68450000047,
      "d": 404.36401041666977,
      "v": 57
    },
    {
      "midi": 45,
      "hit": false,
      "t": 152452.58400000047,
      "d": 1418.9500729166612,
      "v": 57
    },
    {
      "midi": 57,
      "hit": false,
      "t": 152805.48350000047,
      "d": 124.98523958332953,
      "v": 57
    },
    {
      "midi": 60,
      "hit": false,
      "t": 152805.48350000047,
      "d": 139.68938541665557,
      "v": 57
    },
    {
      "midi": 64,
      "hit": false,
      "t": 152805.48350000047,
      "d": 147.0414583333186,
      "v": 57
    },
    {
      "midi": 57,
      "hit": false,
      "t": 153511.28250000047,
      "d": 294.0829166666663,
      "v": 57
    },
    {
      "midi": 60,
      "hit": false,
      "t": 153511.28250000047,
      "d": 338.1953541666735,
      "v": 57
    },
    {
      "midi": 64,
      "hit": false,
      "t": 153511.28250000047,
      "d": 345.5474270833365,
      "v": 57
    },
    {
      "midi": 48,
      "hit": false,
      "t": 153864.18200000047,
      "d": 1374.837635416654,
      "v": 57
    },
    {
      "midi": 53,
      "hit": false,
      "t": 154217.08150000047,
      "d": 220.56218750000698,
      "v": 57
    },
    {
      "midi": 58,
      "hit": false,
      "t": 154217.08150000047,
      "d": 227.91426041667,
      "v": 57
    },
    {
      "midi": 62,
      "hit": false,
      "t": 154217.08150000047,
      "d": 227.91426041667,
      "v": 57
    },
    {
      "midi": 62,
      "hit": false,
      "t": 154922.88050000046,
      "d": 286.73084375000326,
      "v": 57
    },
    {
      "midi": 58,
      "hit": false,
      "t": 154922.88050000046,
      "d": 308.7870624999923,
      "v": 57
    },
    {
      "midi": 53,
      "hit": false,
      "t": 154922.88050000046,
      "d": 316.13913541665534,
      "v": 57
    },
    {
      "midi": 41,
      "hit": false,
      "t": 155275.78000000046,
      "d": 1191.0358124999912,
      "v": 57
    },
    {
      "midi": 64,
      "hit": false,
      "t": 155628.67950000046,
      "d": 249.97047916665906,
      "v": 57
    },
    {
      "midi": 57,
      "hit": false,
      "t": 155628.67950000046,
      "d": 257.3225520833221,
      "v": 57
    },
    {
      "midi": 60,
      "hit": false,
      "t": 155628.67950000046,
      "d": 257.3225520833221,
      "v": 57
    },
    {
      "midi": 53,
      "hit": false,
      "t": 155628.67950000046,
      "d": 264.6746249999851,
      "v": 57
    },
    {
      "midi": 64,
      "hit": false,
      "t": 156334.47850000046,
      "d": 345.5474270833365,
      "v": 57
    },
    {
      "midi": 53,
      "hit": false,
      "t": 156334.47850000046,
      "d": 374.9557187499886,
      "v": 57
    },
    {
      "midi": 60,
      "hit": false,
      "t": 156334.47850000046,
      "d": 374.9557187499886,
      "v": 57
    },
    {
      "midi": 57,
      "hit": false,
      "t": 156334.47850000046,
      "d": 389.65986458331463,
      "v": 57
    },
    {
      "midi": 44,
      "hit": false,
      "t": 156687.37800000046,
      "d": 1205.7399583333172,
      "v": 57
    },
    {
      "midi": 56,
      "hit": false,
      "t": 157040.27750000043,
      "d": 154.3935312500107,
      "v": 57
    },
    {
      "midi": 53,
      "hit": false,
      "t": 157040.27750000043,
      "d": 161.74560416667373,
      "v": 57
    },
    {
      "midi": 62,
      "hit": false,
      "t": 157040.27750000043,
      "d": 176.44974999999977,
      "v": 57
    },
    {
      "midi": 59,
      "hit": false,
      "t": 157040.27750000043,
      "d": 183.8018229166628,
      "v": 57
    },
    {
      "midi": 53,
      "hit": false,
      "t": 157746.07650000043,
      "d": 323.49120833334746,
      "v": 57
    },
    {
      "midi": 59,
      "hit": false,
      "t": 157746.07650000043,
      "d": 345.5474270833365,
      "v": 57
    },
    {
      "midi": 62,
      "hit": false,
      "t": 157746.07650000043,
      "d": 352.89949999999953,
      "v": 57
    },
    {
      "midi": 56,
      "hit": false,
      "t": 157746.07650000043,
      "d": 360.25157291666255,
      "v": 57
    },
    {
      "midi": 45,
      "hit": false,
      "t": 158098.97600000043,
      "d": 1389.541781250009,
      "v": 57
    },
    {
      "midi": 57,
      "hit": false,
      "t": 158451.87550000043,
      "d": 161.74560416667373,
      "v": 57
    },
    {
      "midi": 60,
      "hit": false,
      "t": 158451.87550000043,
      "d": 161.74560416667373,
      "v": 57
    },
    {
      "midi": 64,
      "hit": false,
      "t": 158451.87550000043,
      "d": 161.74560416667373,
      "v": 57
    },
    {
      "midi": 60,
      "hit": false,
      "t": 159157.67450000043,
      "d": 352.89949999999953,
      "v": 57
    },
    {
      "midi": 64,
      "hit": false,
      "t": 159157.67450000043,
      "d": 360.25157291666255,
      "v": 57
    },
    {
      "midi": 57,
      "hit": false,
      "t": 159157.67450000043,
      "d": 367.6036458333256,
      "v": 57
    },
    {
      "midi": 38,
      "hit": false,
      "t": 159510.57400000043,
      "d": 911.65704166668,
      "v": 57
    },
    {
      "midi": 54,
      "hit": false,
      "t": 159863.47350000043,
      "d": 154.3935312500107,
      "v": 57
    },
    {
      "midi": 57,
      "hit": false,
      "t": 159863.47350000043,
      "d": 176.44974999999977,
      "v": 57
    },
    {
      "midi": 60,
      "hit": false,
      "t": 159863.47350000043,
      "d": 176.44974999999977,
      "v": 57
    },
    {
      "midi": 64,
      "hit": false,
      "t": 159863.47350000043,
      "d": 176.44974999999977,
      "v": 57
    },
    {
      "midi": 40,
      "hit": false,
      "t": 160451.6393333338,
      "d": 455.82852083334,
      "v": 57
    },
    {
      "midi": 60,
      "hit": false,
      "t": 160451.6393333338,
      "d": 470.53266666666605,
      "v": 57
    },
    {
      "midi": 54,
      "hit": false,
      "t": 160451.6393333338,
      "d": 492.5888854166551,
      "v": 57
    },
    {
      "midi": 57,
      "hit": false,
      "t": 160451.6393333338,
      "d": 492.5888854166551,
      "v": 57
    },
    {
      "midi": 64,
      "hit": false,
      "t": 160451.6393333338,
      "d": 499.9409583333181,
      "v": 57
    },
    {
      "midi": 41,
      "hit": false,
      "t": 160922.17200000046,
      "d": 1271.9086145833426,
      "v": 57
    },
    {
      "midi": 53,
      "hit": false,
      "t": 161275.07150000046,
      "d": 124.98523958332953,
      "v": 57
    },
    {
      "midi": 64,
      "hit": false,
      "t": 161275.07150000046,
      "d": 132.33731249999255,
      "v": 57
    },
    {
      "midi": 57,
      "hit": false,
      "t": 161275.07150000046,
      "d": 147.0414583333186,
      "v": 57
    },
    {
      "midi": 60,
      "hit": false,
      "t": 161275.07150000046,
      "d": 147.0414583333186,
      "v": 57
    },
    {
      "midi": 64,
      "hit": false,
      "t": 161980.87050000046,
      "d": 345.5474270833365,
      "v": 57
    },
    {
      "midi": 60,
      "hit": false,
      "t": 161980.87050000046,
      "d": 360.25157291666255,
      "v": 57
    },
    {
      "midi": 53,
      "hit": false,
      "t": 161980.87050000046,
      "d": 382.3077916666516,
      "v": 57
    },
    {
      "midi": 57,
      "hit": false,
      "t": 161980.87050000046,
      "d": 389.65986458331463,
      "v": 57
    },
    {
      "midi": 44,
      "hit": false,
      "t": 162333.77000000046,
      "d": 1338.0772708333097,
      "v": 57
    },
    {
      "midi": 53,
      "hit": false,
      "t": 162686.66950000043,
      "d": 117.63316666666651,
      "v": 57
    },
    {
      "midi": 56,
      "hit": false,
      "t": 162686.66950000043,
      "d": 117.63316666666651,
      "v": 57
    },
    {
      "midi": 59,
      "hit": false,
      "t": 162686.66950000043,
      "d": 139.68938541665557,
      "v": 57
    },
    {
      "midi": 62,
      "hit": false,
      "t": 162686.66950000043,
      "d": 147.0414583333186,
      "v": 57
    },
    {
      "midi": 53,
      "hit": false,
      "t": 163392.46850000042,
      "d": 382.3077916666807,
      "v": 57
    },
    {
      "midi": 56,
      "hit": false,
      "t": 163392.46850000042,
      "d": 397.01193750000675,
      "v": 57
    },
    {
      "midi": 59,
      "hit": false,
      "t": 163392.46850000042,
      "d": 404.36401041666977,
      "v": 57
    },
    {
      "midi": 62,
      "hit": false,
      "t": 163392.46850000042,
      "d": 404.36401041666977,
      "v": 57
    },
    {
      "midi": 45,
      "hit": false,
      "t": 163745.36800000042,
      "d": 1418.9500729166612,
      "v": 57
    },
    {
      "midi": 57,
      "hit": false,
      "t": 164098.26750000042,
      "d": 124.98523958332953,
      "v": 57
    },
    {
      "midi": 60,
      "hit": false,
      "t": 164098.26750000042,
      "d": 139.68938541665557,
      "v": 57
    },
    {
      "midi": 64,
      "hit": false,
      "t": 164098.26750000042,
      "d": 147.0414583333186,
      "v": 57
    },
    {
      "midi": 57,
      "hit": false,
      "t": 164804.06650000042,
      "d": 294.0829166666663,
      "v": 57
    },
    {
      "midi": 60,
      "hit": false,
      "t": 164804.06650000042,
      "d": 338.1953541666735,
      "v": 57
    },
    {
      "midi": 64,
      "hit": false,
      "t": 164804.06650000042,
      "d": 345.5474270833365,
      "v": 57
    },
    {
      "midi": 48,
      "hit": false,
      "t": 165156.96600000042,
      "d": 1374.837635416654,
      "v": 57
    },
    {
      "midi": 53,
      "hit": false,
      "t": 165509.86550000042,
      "d": 220.56218750000698,
      "v": 57
    },
    {
      "midi": 58,
      "hit": false,
      "t": 165509.86550000042,
      "d": 227.91426041667,
      "v": 57
    },
    {
      "midi": 62,
      "hit": false,
      "t": 165509.86550000042,
      "d": 227.91426041667,
      "v": 57
    },
    {
      "midi": 62,
      "hit": false,
      "t": 166215.66450000042,
      "d": 286.73084375000326,
      "v": 57
    },
    {
      "midi": 58,
      "hit": false,
      "t": 166215.66450000042,
      "d": 308.7870624999923,
      "v": 57
    },
    {
      "midi": 53,
      "hit": false,
      "t": 166215.66450000042,
      "d": 316.13913541665534,
      "v": 57
    },
    {
      "midi": 41,
      "hit": false,
      "t": 166568.56400000042,
      "d": 1191.0358124999912,
      "v": 57
    },
    {
      "midi": 64,
      "hit": false,
      "t": 166921.46350000042,
      "d": 249.97047916665906,
      "v": 57
    },
    {
      "midi": 57,
      "hit": false,
      "t": 166921.46350000042,
      "d": 257.3225520833221,
      "v": 57
    },
    {
      "midi": 60,
      "hit": false,
      "t": 166921.46350000042,
      "d": 257.3225520833221,
      "v": 57
    },
    {
      "midi": 53,
      "hit": false,
      "t": 166921.46350000042,
      "d": 264.6746249999851,
      "v": 57
    },
    {
      "midi": 64,
      "hit": false,
      "t": 167627.26250000042,
      "d": 345.5474270833365,
      "v": 57
    },
    {
      "midi": 53,
      "hit": false,
      "t": 167627.26250000042,
      "d": 374.9557187499886,
      "v": 57
    },
    {
      "midi": 60,
      "hit": false,
      "t": 167627.26250000042,
      "d": 374.9557187499886,
      "v": 57
    },
    {
      "midi": 57,
      "hit": false,
      "t": 167627.26250000042,
      "d": 389.65986458331463,
      "v": 57
    },
    {
      "midi": 44,
      "hit": false,
      "t": 167980.16200000042,
      "d": 1205.7399583333172,
      "v": 57
    },
    {
      "midi": 56,
      "hit": false,
      "t": 168333.0615000004,
      "d": 154.3935312500107,
      "v": 57
    },
    {
      "midi": 53,
      "hit": false,
      "t": 168333.0615000004,
      "d": 161.74560416667373,
      "v": 57
    },
    {
      "midi": 62,
      "hit": false,
      "t": 168333.0615000004,
      "d": 176.44974999999977,
      "v": 57
    },
    {
      "midi": 59,
      "hit": false,
      "t": 168333.0615000004,
      "d": 183.8018229166628,
      "v": 57
    },
    {
      "midi": 53,
      "hit": false,
      "t": 169038.8605000004,
      "d": 323.49120833334746,
      "v": 57
    },
    {
      "midi": 59,
      "hit": false,
      "t": 169038.8605000004,
      "d": 345.5474270833365,
      "v": 57
    },
    {
      "midi": 62,
      "hit": false,
      "t": 169038.8605000004,
      "d": 352.89949999999953,
      "v": 57
    },
    {
      "midi": 56,
      "hit": false,
      "t": 169038.8605000004,
      "d": 360.25157291666255,
      "v": 57
    },
    {
      "midi": 45,
      "hit": false,
      "t": 169391.7600000004,
      "d": 1389.541781250009,
      "v": 57
    },
    {
      "midi": 57,
      "hit": false,
      "t": 169744.6595000004,
      "d": 161.74560416667373,
      "v": 57
    },
    {
      "midi": 60,
      "hit": false,
      "t": 169744.6595000004,
      "d": 161.74560416667373,
      "v": 57
    },
    {
      "midi": 64,
      "hit": false,
      "t": 169744.6595000004,
      "d": 161.74560416667373,
      "v": 57
    },
    {
      "midi": 60,
      "hit": false,
      "t": 170450.4585000004,
      "d": 352.89949999999953,
      "v": 57
    },
    {
      "midi": 64,
      "hit": false,
      "t": 170450.4585000004,
      "d": 360.25157291666255,
      "v": 57
    },
    {
      "midi": 57,
      "hit": false,
      "t": 170450.4585000004,
      "d": 367.6036458333256,
      "v": 57
    },
    {
      "midi": 38,
      "hit": false,
      "t": 170803.3580000004,
      "d": 911.65704166668,
      "v": 57
    },
    {
      "midi": 54,
      "hit": false,
      "t": 171156.25750000039,
      "d": 154.3935312500107,
      "v": 57
    },
    {
      "midi": 57,
      "hit": false,
      "t": 171156.25750000039,
      "d": 176.44974999999977,
      "v": 57
    },
    {
      "midi": 60,
      "hit": false,
      "t": 171156.25750000039,
      "d": 176.44974999999977,
      "v": 57
    },
    {
      "midi": 64,
      "hit": false,
      "t": 171156.25750000039,
      "d": 176.44974999999977,
      "v": 57
    },
    {
      "midi": 40,
      "hit": false,
      "t": 171744.42333333375,
      "d": 455.82852083334,
      "v": 57
    },
    {
      "midi": 60,
      "hit": false,
      "t": 171744.42333333375,
      "d": 470.53266666666605,
      "v": 57
    },
    {
      "midi": 54,
      "hit": false,
      "t": 171744.42333333375,
      "d": 492.5888854166551,
      "v": 57
    },
    {
      "midi": 57,
      "hit": false,
      "t": 171744.42333333375,
      "d": 492.5888854166551,
      "v": 57
    },
    {
      "midi": 64,
      "hit": false,
      "t": 171744.42333333375,
      "d": 499.9409583333181,
      "v": 57
    },
    {
      "midi": 41,
      "hit": false,
      "t": 172214.9560000004,
      "d": 1271.9086145833426,
      "v": 57
    },
    {
      "midi": 53,
      "hit": false,
      "t": 172567.8555000004,
      "d": 124.98523958332953,
      "v": 57
    },
    {
      "midi": 64,
      "hit": false,
      "t": 172567.8555000004,
      "d": 132.33731249999255,
      "v": 57
    },
    {
      "midi": 57,
      "hit": false,
      "t": 172567.8555000004,
      "d": 147.0414583333186,
      "v": 57
    },
    {
      "midi": 60,
      "hit": false,
      "t": 172567.8555000004,
      "d": 147.0414583333186,
      "v": 57
    },
    {
      "midi": 64,
      "hit": false,
      "t": 173273.6545000004,
      "d": 345.5474270833365,
      "v": 57
    },
    {
      "midi": 60,
      "hit": false,
      "t": 173273.6545000004,
      "d": 360.25157291666255,
      "v": 57
    },
    {
      "midi": 53,
      "hit": false,
      "t": 173273.6545000004,
      "d": 382.3077916666516,
      "v": 57
    },
    {
      "midi": 57,
      "hit": false,
      "t": 173273.6545000004,
      "d": 389.65986458331463,
      "v": 57
    },
    {
      "midi": 44,
      "hit": false,
      "t": 173626.5540000004,
      "d": 1338.0772708333097,
      "v": 57
    },
    {
      "midi": 53,
      "hit": false,
      "t": 173979.45350000038,
      "d": 117.63316666666651,
      "v": 57
    },
    {
      "midi": 56,
      "hit": false,
      "t": 173979.45350000038,
      "d": 117.63316666666651,
      "v": 57
    },
    {
      "midi": 59,
      "hit": false,
      "t": 173979.45350000038,
      "d": 139.68938541665557,
      "v": 57
    },
    {
      "midi": 62,
      "hit": false,
      "t": 173979.45350000038,
      "d": 147.0414583333186,
      "v": 57
    },
    {
      "midi": 53,
      "hit": false,
      "t": 174685.25250000038,
      "d": 382.3077916666807,
      "v": 57
    },
    {
      "midi": 56,
      "hit": false,
      "t": 174685.25250000038,
      "d": 397.01193750000675,
      "v": 57
    },
    {
      "midi": 59,
      "hit": false,
      "t": 174685.25250000038,
      "d": 404.36401041666977,
      "v": 57
    },
    {
      "midi": 62,
      "hit": false,
      "t": 174685.25250000038,
      "d": 404.36401041666977,
      "v": 57
    },
    {
      "midi": 45,
      "hit": false,
      "t": 175038.15200000038,
      "d": 1418.9500729166612,
      "v": 57
    },
    {
      "midi": 57,
      "hit": false,
      "t": 175391.05150000038,
      "d": 124.98523958332953,
      "v": 57
    },
    {
      "midi": 60,
      "hit": false,
      "t": 175391.05150000038,
      "d": 139.68938541665557,
      "v": 57
    },
    {
      "midi": 64,
      "hit": false,
      "t": 175391.05150000038,
      "d": 147.0414583333186,
      "v": 57
    },
    {
      "midi": 57,
      "hit": false,
      "t": 176096.85050000038,
      "d": 294.0829166666663,
      "v": 57
    },
    {
      "midi": 60,
      "hit": false,
      "t": 176096.85050000038,
      "d": 338.1953541666735,
      "v": 57
    },
    {
      "midi": 64,
      "hit": false,
      "t": 176096.85050000038,
      "d": 345.5474270833365,
      "v": 57
    },
    {
      "midi": 48,
      "hit": false,
      "t": 176449.75000000038,
      "d": 1374.837635416654,
      "v": 57
    },
    {
      "midi": 53,
      "hit": false,
      "t": 176802.64950000038,
      "d": 220.56218750000698,
      "v": 57
    },
    {
      "midi": 58,
      "hit": false,
      "t": 176802.64950000038,
      "d": 227.91426041667,
      "v": 57
    },
    {
      "midi": 62,
      "hit": false,
      "t": 176802.64950000038,
      "d": 227.91426041667,
      "v": 57
    },
    {
      "midi": 62,
      "hit": false,
      "t": 177508.44850000038,
      "d": 286.73084375000326,
      "v": 57
    },
    {
      "midi": 58,
      "hit": false,
      "t": 177508.44850000038,
      "d": 308.7870624999923,
      "v": 57
    },
    {
      "midi": 53,
      "hit": false,
      "t": 177508.44850000038,
      "d": 316.13913541665534,
      "v": 57
    },
    {
      "midi": 41,
      "hit": false,
      "t": 177861.34800000038,
      "d": 1191.0358124999912,
      "v": 57
    },
    {
      "midi": 64,
      "hit": false,
      "t": 178214.24750000038,
      "d": 249.97047916665906,
      "v": 57
    },
    {
      "midi": 57,
      "hit": false,
      "t": 178214.24750000038,
      "d": 257.3225520833221,
      "v": 57
    },
    {
      "midi": 60,
      "hit": false,
      "t": 178214.24750000038,
      "d": 257.3225520833221,
      "v": 57
    },
    {
      "midi": 53,
      "hit": false,
      "t": 178214.24750000038,
      "d": 264.6746249999851,
      "v": 57
    },
    {
      "midi": 64,
      "hit": false,
      "t": 178920.04650000038,
      "d": 345.5474270833365,
      "v": 57
    },
    {
      "midi": 53,
      "hit": false,
      "t": 178920.04650000038,
      "d": 374.9557187499886,
      "v": 57
    },
    {
      "midi": 60,
      "hit": false,
      "t": 178920.04650000038,
      "d": 374.9557187499886,
      "v": 57
    },
    {
      "midi": 57,
      "hit": false,
      "t": 178920.04650000038,
      "d": 389.65986458331463,
      "v": 57
    },
    {
      "midi": 44,
      "hit": false,
      "t": 179272.94600000037,
      "d": 1205.7399583333172,
      "v": 57
    },
    {
      "midi": 56,
      "hit": false,
      "t": 179625.84550000035,
      "d": 154.3935312500107,
      "v": 57
    },
    {
      "midi": 53,
      "hit": false,
      "t": 179625.84550000035,
      "d": 161.74560416667373,
      "v": 57
    },
    {
      "midi": 62,
      "hit": false,
      "t": 179625.84550000035,
      "d": 176.44974999999977,
      "v": 57
    },
    {
      "midi": 59,
      "hit": false,
      "t": 179625.84550000035,
      "d": 183.8018229166628,
      "v": 57
    },
    {
      "midi": 53,
      "hit": false,
      "t": 180331.64450000034,
      "d": 323.49120833334746,
      "v": 57
    },
    {
      "midi": 59,
      "hit": false,
      "t": 180331.64450000034,
      "d": 345.5474270833365,
      "v": 57
    },
    {
      "midi": 62,
      "hit": false,
      "t": 180331.64450000034,
      "d": 352.89949999999953,
      "v": 57
    },
    {
      "midi": 56,
      "hit": false,
      "t": 180331.64450000034,
      "d": 360.25157291666255,
      "v": 57
    },
    {
      "midi": 45,
      "hit": false,
      "t": 180684.54400000034,
      "d": 1389.541781250009,
      "v": 57
    },
    {
      "midi": 57,
      "hit": false,
      "t": 181037.44350000034,
      "d": 161.74560416667373,
      "v": 57
    },
    {
      "midi": 60,
      "hit": false,
      "t": 181037.44350000034,
      "d": 161.74560416667373,
      "v": 57
    },
    {
      "midi": 64,
      "hit": false,
      "t": 181037.44350000034,
      "d": 161.74560416667373,
      "v": 57
    },
    {
      "midi": 60,
      "hit": false,
      "t": 181743.24250000034,
      "d": 352.89949999999953,
      "v": 57
    },
    {
      "midi": 64,
      "hit": false,
      "t": 181743.24250000034,
      "d": 360.25157291666255,
      "v": 57
    },
    {
      "midi": 57,
      "hit": false,
      "t": 181743.24250000034,
      "d": 367.6036458333256,
      "v": 57
    },
    {
      "midi": 38,
      "hit": false,
      "t": 182096.14200000034,
      "d": 911.65704166668,
      "v": 57
    },
    {
      "midi": 54,
      "hit": false,
      "t": 182449.04150000034,
      "d": 154.3935312500107,
      "v": 57
    },
    {
      "midi": 57,
      "hit": false,
      "t": 182449.04150000034,
      "d": 176.44974999999977,
      "v": 57
    },
    {
      "midi": 60,
      "hit": false,
      "t": 182449.04150000034,
      "d": 176.44974999999977,
      "v": 57
    },
    {
      "midi": 64,
      "hit": false,
      "t": 182449.04150000034,
      "d": 176.44974999999977,
      "v": 57
    },
    {
      "midi": 40,
      "hit": false,
      "t": 183037.2073333337,
      "d": 455.82852083334,
      "v": 57
    },
    {
      "midi": 60,
      "hit": false,
      "t": 183037.2073333337,
      "d": 470.53266666666605,
      "v": 57
    },
    {
      "midi": 54,
      "hit": false,
      "t": 183037.2073333337,
      "d": 492.5888854166551,
      "v": 57
    },
    {
      "midi": 57,
      "hit": false,
      "t": 183037.2073333337,
      "d": 492.5888854166551,
      "v": 57
    },
    {
      "midi": 64,
      "hit": false,
      "t": 183037.2073333337,
      "d": 499.9409583333181,
      "v": 57
    },
    {
      "midi": 41,
      "hit": false,
      "t": 183507.74000000037,
      "d": 1271.9086145833426,
      "v": 57
    },
    {
      "midi": 53,
      "hit": false,
      "t": 183860.63950000037,
      "d": 124.98523958332953,
      "v": 57
    },
    {
      "midi": 64,
      "hit": false,
      "t": 183860.63950000037,
      "d": 132.33731249999255,
      "v": 57
    },
    {
      "midi": 57,
      "hit": false,
      "t": 183860.63950000037,
      "d": 147.0414583333186,
      "v": 57
    },
    {
      "midi": 60,
      "hit": false,
      "t": 183860.63950000037,
      "d": 147.0414583333186,
      "v": 57
    },
    {
      "midi": 64,
      "hit": false,
      "t": 184566.43850000037,
      "d": 345.5474270833365,
      "v": 57
    },
    {
      "midi": 60,
      "hit": false,
      "t": 184566.43850000037,
      "d": 360.25157291666255,
      "v": 57
    },
    {
      "midi": 53,
      "hit": false,
      "t": 184566.43850000037,
      "d": 382.3077916666516,
      "v": 57
    },
    {
      "midi": 57,
      "hit": false,
      "t": 184566.43850000037,
      "d": 389.65986458331463,
      "v": 57
    },
    {
      "midi": 44,
      "hit": false,
      "t": 184919.33800000037,
      "d": 1338.0772708333097,
      "v": 57
    },
    {
      "midi": 53,
      "hit": false,
      "t": 185272.23750000034,
      "d": 117.63316666666651,
      "v": 57
    },
    {
      "midi": 56,
      "hit": false,
      "t": 185272.23750000034,
      "d": 117.63316666666651,
      "v": 57
    },
    {
      "midi": 59,
      "hit": false,
      "t": 185272.23750000034,
      "d": 139.68938541665557,
      "v": 57
    },
    {
      "midi": 62,
      "hit": false,
      "t": 185272.23750000034,
      "d": 147.0414583333186,
      "v": 57
    },
    {
      "midi": 53,
      "hit": false,
      "t": 185978.03650000034,
      "d": 382.3077916666807,
      "v": 57
    },
    {
      "midi": 56,
      "hit": false,
      "t": 185978.03650000034,
      "d": 397.01193750000675,
      "v": 57
    },
    {
      "midi": 59,
      "hit": false,
      "t": 185978.03650000034,
      "d": 404.36401041666977,
      "v": 57
    },
    {
      "midi": 62,
      "hit": false,
      "t": 185978.03650000034,
      "d": 404.36401041666977,
      "v": 57
    },
    {
      "midi": 45,
      "hit": false,
      "t": 186330.93600000034,
      "d": 1418.9500729166612,
      "v": 57
    },
    {
      "midi": 57,
      "hit": false,
      "t": 186683.83550000034,
      "d": 124.98523958332953,
      "v": 57
    },
    {
      "midi": 60,
      "hit": false,
      "t": 186683.83550000034,
      "d": 139.68938541665557,
      "v": 57
    },
    {
      "midi": 64,
      "hit": false,
      "t": 186683.83550000034,
      "d": 147.0414583333186,
      "v": 57
    },
    {
      "midi": 57,
      "hit": false,
      "t": 187389.63450000033,
      "d": 294.0829166666663,
      "v": 57
    },
    {
      "midi": 60,
      "hit": false,
      "t": 187389.63450000033,
      "d": 338.1953541666735,
      "v": 57
    },
    {
      "midi": 64,
      "hit": false,
      "t": 187389.63450000033,
      "d": 345.5474270833365,
      "v": 57
    },
    {
      "midi": 48,
      "hit": false,
      "t": 187742.53400000033,
      "d": 1374.837635416654,
      "v": 57
    },
    {
      "midi": 53,
      "hit": false,
      "t": 188095.43350000033,
      "d": 220.56218750000698,
      "v": 57
    },
    {
      "midi": 58,
      "hit": false,
      "t": 188095.43350000033,
      "d": 227.91426041667,
      "v": 57
    },
    {
      "midi": 62,
      "hit": false,
      "t": 188095.43350000033,
      "d": 227.91426041667,
      "v": 57
    },
    {
      "midi": 62,
      "hit": false,
      "t": 188801.23250000033,
      "d": 286.73084375000326,
      "v": 57
    },
    {
      "midi": 58,
      "hit": false,
      "t": 188801.23250000033,
      "d": 308.7870624999923,
      "v": 57
    },
    {
      "midi": 53,
      "hit": false,
      "t": 188801.23250000033,
      "d": 316.13913541665534,
      "v": 57
    },
    {
      "midi": 41,
      "hit": false,
      "t": 189154.13200000033,
      "d": 1191.0358124999912,
      "v": 57
    },
    {
      "midi": 64,
      "hit": false,
      "t": 189507.03150000033,
      "d": 249.97047916665906,
      "v": 57
    },
    {
      "midi": 57,
      "hit": false,
      "t": 189507.03150000033,
      "d": 257.3225520833221,
      "v": 57
    },
    {
      "midi": 60,
      "hit": false,
      "t": 189507.03150000033,
      "d": 257.3225520833221,
      "v": 57
    },
    {
      "midi": 53,
      "hit": false,
      "t": 189507.03150000033,
      "d": 264.6746249999851,
      "v": 57
    },
    {
      "midi": 64,
      "hit": false,
      "t": 190212.83050000033,
      "d": 345.5474270833365,
      "v": 57
    },
    {
      "midi": 53,
      "hit": false,
      "t": 190212.83050000033,
      "d": 374.9557187499886,
      "v": 57
    },
    {
      "midi": 60,
      "hit": false,
      "t": 190212.83050000033,
      "d": 374.9557187499886,
      "v": 57
    },
    {
      "midi": 57,
      "hit": false,
      "t": 190212.83050000033,
      "d": 389.65986458331463,
      "v": 57
    },
    {
      "midi": 44,
      "hit": false,
      "t": 190565.73000000033,
      "d": 1205.7399583333172,
      "v": 57
    },
    {
      "midi": 56,
      "hit": false,
      "t": 190918.6295000003,
      "d": 154.3935312500107,
      "v": 57
    },
    {
      "midi": 53,
      "hit": false,
      "t": 190918.6295000003,
      "d": 161.74560416667373,
      "v": 57
    },
    {
      "midi": 62,
      "hit": false,
      "t": 190918.6295000003,
      "d": 176.44974999999977,
      "v": 57
    },
    {
      "midi": 59,
      "hit": false,
      "t": 190918.6295000003,
      "d": 183.8018229166628,
      "v": 57
    },
    {
      "midi": 53,
      "hit": false,
      "t": 191624.4285000003,
      "d": 323.49120833334746,
      "v": 57
    },
    {
      "midi": 59,
      "hit": false,
      "t": 191624.4285000003,
      "d": 345.5474270833365,
      "v": 57
    },
    {
      "midi": 62,
      "hit": false,
      "t": 191624.4285000003,
      "d": 352.89949999999953,
      "v": 57
    },
    {
      "midi": 56,
      "hit": false,
      "t": 191624.4285000003,
      "d": 360.25157291666255,
      "v": 57
    },
    {
      "midi": 45,
      "hit": false,
      "t": 191977.3280000003,
      "d": 1389.541781250009,
      "v": 57
    },
    {
      "midi": 57,
      "hit": false,
      "t": 192330.2275000003,
      "d": 161.74560416667373,
      "v": 57
    },
    {
      "midi": 60,
      "hit": false,
      "t": 192330.2275000003,
      "d": 161.74560416667373,
      "v": 57
    },
    {
      "midi": 64,
      "hit": false,
      "t": 192330.2275000003,
      "d": 161.74560416667373,
      "v": 57
    },
    {
      "midi": 60,
      "hit": false,
      "t": 193036.0265000003,
      "d": 352.89949999999953,
      "v": 57
    },
    {
      "midi": 64,
      "hit": false,
      "t": 193036.0265000003,
      "d": 360.25157291666255,
      "v": 57
    },
    {
      "midi": 57,
      "hit": false,
      "t": 193036.0265000003,
      "d": 367.6036458333256,
      "v": 57
    },
    {
      "midi": 38,
      "hit": false,
      "t": 193388.9260000003,
      "d": 911.65704166668,
      "v": 57
    },
    {
      "midi": 54,
      "hit": false,
      "t": 193741.8255000003,
      "d": 154.3935312500107,
      "v": 57
    },
    {
      "midi": 57,
      "hit": false,
      "t": 193741.8255000003,
      "d": 176.44974999999977,
      "v": 57
    },
    {
      "midi": 60,
      "hit": false,
      "t": 193741.8255000003,
      "d": 176.44974999999977,
      "v": 57
    },
    {
      "midi": 64,
      "hit": false,
      "t": 193741.8255000003,
      "d": 176.44974999999977,
      "v": 57
    },
    {
      "midi": 40,
      "hit": false,
      "t": 194329.99133333366,
      "d": 455.82852083334,
      "v": 57
    },
    {
      "midi": 60,
      "hit": false,
      "t": 194329.99133333366,
      "d": 470.53266666666605,
      "v": 57
    },
    {
      "midi": 54,
      "hit": false,
      "t": 194329.99133333366,
      "d": 492.5888854166551,
      "v": 57
    },
    {
      "midi": 57,
      "hit": false,
      "t": 194329.99133333366,
      "d": 492.5888854166551,
      "v": 57
    },
    {
      "midi": 64,
      "hit": false,
      "t": 194329.99133333366,
      "d": 499.9409583333181,
      "v": 57
    },
    {
      "midi": 41,
      "hit": false,
      "t": 194800.52400000033,
      "d": 1271.9086145833426,
      "v": 57
    },
    {
      "midi": 53,
      "hit": false,
      "t": 195153.42350000032,
      "d": 124.98523958332953,
      "v": 57
    },
    {
      "midi": 64,
      "hit": false,
      "t": 195153.42350000032,
      "d": 132.33731249999255,
      "v": 57
    },
    {
      "midi": 57,
      "hit": false,
      "t": 195153.42350000032,
      "d": 147.0414583333186,
      "v": 57
    },
    {
      "midi": 60,
      "hit": false,
      "t": 195153.42350000032,
      "d": 147.0414583333186,
      "v": 57
    },
    {
      "midi": 64,
      "hit": false,
      "t": 195859.22250000032,
      "d": 345.5474270833365,
      "v": 57
    },
    {
      "midi": 60,
      "hit": false,
      "t": 195859.22250000032,
      "d": 360.25157291666255,
      "v": 57
    },
    {
      "midi": 53,
      "hit": false,
      "t": 195859.22250000032,
      "d": 382.3077916666516,
      "v": 57
    },
    {
      "midi": 57,
      "hit": false,
      "t": 195859.22250000032,
      "d": 389.65986458331463,
      "v": 57
    },
    {
      "midi": 44,
      "hit": false,
      "t": 196212.12200000032,
      "d": 1338.0772708333097,
      "v": 57
    },
    {
      "midi": 53,
      "hit": false,
      "t": 196565.0215000003,
      "d": 117.63316666666651,
      "v": 57
    },
    {
      "midi": 56,
      "hit": false,
      "t": 196565.0215000003,
      "d": 117.63316666666651,
      "v": 57
    },
    {
      "midi": 59,
      "hit": false,
      "t": 196565.0215000003,
      "d": 139.68938541665557,
      "v": 57
    },
    {
      "midi": 62,
      "hit": false,
      "t": 196565.0215000003,
      "d": 147.0414583333186,
      "v": 57
    },
    {
      "midi": 53,
      "hit": false,
      "t": 197270.8205000003,
      "d": 382.3077916666807,
      "v": 57
    },
    {
      "midi": 56,
      "hit": false,
      "t": 197270.8205000003,
      "d": 397.01193750000675,
      "v": 57
    },
    {
      "midi": 59,
      "hit": false,
      "t": 197270.8205000003,
      "d": 404.36401041666977,
      "v": 57
    },
    {
      "midi": 62,
      "hit": false,
      "t": 197270.8205000003,
      "d": 404.36401041666977,
      "v": 57
    },
    {
      "midi": 45,
      "hit": false,
      "t": 197623.7200000003,
      "d": 1418.9500729166612,
      "v": 57
    },
    {
      "midi": 57,
      "hit": false,
      "t": 197976.6195000003,
      "d": 124.98523958332953,
      "v": 57
    },
    {
      "midi": 60,
      "hit": false,
      "t": 197976.6195000003,
      "d": 139.68938541665557,
      "v": 57
    },
    {
      "midi": 64,
      "hit": false,
      "t": 197976.6195000003,
      "d": 147.0414583333186,
      "v": 57
    },
    {
      "midi": 57,
      "hit": false,
      "t": 198682.4185000003,
      "d": 294.0829166666663,
      "v": 57
    },
    {
      "midi": 60,
      "hit": false,
      "t": 198682.4185000003,
      "d": 338.1953541666735,
      "v": 57
    },
    {
      "midi": 64,
      "hit": false,
      "t": 198682.4185000003,
      "d": 345.5474270833365,
      "v": 57
    },
    {
      "midi": 48,
      "hit": false,
      "t": 199035.3180000003,
      "d": 1374.837635416654,
      "v": 57
    },
    {
      "midi": 53,
      "hit": false,
      "t": 199388.2175000003,
      "d": 220.56218750000698,
      "v": 57
    },
    {
      "midi": 58,
      "hit": false,
      "t": 199388.2175000003,
      "d": 227.91426041667,
      "v": 57
    },
    {
      "midi": 62,
      "hit": false,
      "t": 199388.2175000003,
      "d": 227.91426041667,
      "v": 57
    },
    {
      "midi": 62,
      "hit": false,
      "t": 200094.0165000003,
      "d": 286.73084375000326,
      "v": 57
    },
    {
      "midi": 58,
      "hit": false,
      "t": 200094.0165000003,
      "d": 308.7870624999923,
      "v": 57
    },
    {
      "midi": 53,
      "hit": false,
      "t": 200094.0165000003,
      "d": 316.13913541665534,
      "v": 57
    },
    {
      "midi": 41,
      "hit": false,
      "t": 200446.9160000003,
      "d": 1191.0358124999912,
      "v": 57
    },
    {
      "midi": 64,
      "hit": false,
      "t": 200799.8155000003,
      "d": 249.97047916665906,
      "v": 57
    },
    {
      "midi": 57,
      "hit": false,
      "t": 200799.8155000003,
      "d": 257.3225520833221,
      "v": 57
    },
    {
      "midi": 60,
      "hit": false,
      "t": 200799.8155000003,
      "d": 257.3225520833221,
      "v": 57
    },
    {
      "midi": 53,
      "hit": false,
      "t": 200799.8155000003,
      "d": 264.6746249999851,
      "v": 57
    },
    {
      "midi": 64,
      "hit": false,
      "t": 201505.6145000003,
      "d": 345.5474270833365,
      "v": 57
    },
    {
      "midi": 53,
      "hit": false,
      "t": 201505.6145000003,
      "d": 374.9557187499886,
      "v": 57
    },
    {
      "midi": 60,
      "hit": false,
      "t": 201505.6145000003,
      "d": 374.9557187499886,
      "v": 57
    },
    {
      "midi": 57,
      "hit": false,
      "t": 201505.6145000003,
      "d": 389.65986458331463,
      "v": 57
    },
    {
      "midi": 44,
      "hit": false,
      "t": 201858.5140000003,
      "d": 1205.7399583333172,
      "v": 57
    },
    {
      "midi": 56,
      "hit": false,
      "t": 202211.41350000026,
      "d": 154.3935312500107,
      "v": 57
    },
    {
      "midi": 53,
      "hit": false,
      "t": 202211.41350000026,
      "d": 161.74560416667373,
      "v": 57
    },
    {
      "midi": 62,
      "hit": false,
      "t": 202211.41350000026,
      "d": 176.44974999999977,
      "v": 57
    },
    {
      "midi": 59,
      "hit": false,
      "t": 202211.41350000026,
      "d": 183.8018229166628,
      "v": 57
    },
    {
      "midi": 53,
      "hit": false,
      "t": 202917.21250000026,
      "d": 323.49120833334746,
      "v": 57
    },
    {
      "midi": 59,
      "hit": false,
      "t": 202917.21250000026,
      "d": 345.5474270833365,
      "v": 57
    },
    {
      "midi": 62,
      "hit": false,
      "t": 202917.21250000026,
      "d": 352.89949999999953,
      "v": 57
    },
    {
      "midi": 56,
      "hit": false,
      "t": 202917.21250000026,
      "d": 360.25157291666255,
      "v": 57
    },
    {
      "midi": 45,
      "hit": false,
      "t": 203270.11200000026,
      "d": 1389.541781250009,
      "v": 57
    },
    {
      "midi": 57,
      "hit": false,
      "t": 203623.01150000026,
      "d": 161.74560416667373,
      "v": 57
    },
    {
      "midi": 60,
      "hit": false,
      "t": 203623.01150000026,
      "d": 161.74560416667373,
      "v": 57
    },
    {
      "midi": 64,
      "hit": false,
      "t": 203623.01150000026,
      "d": 161.74560416667373,
      "v": 57
    },
    {
      "midi": 60,
      "hit": false,
      "t": 204328.81050000025,
      "d": 352.89949999999953,
      "v": 57
    },
    {
      "midi": 64,
      "hit": false,
      "t": 204328.81050000025,
      "d": 360.25157291666255,
      "v": 57
    },
    {
      "midi": 57,
      "hit": false,
      "t": 204328.81050000025,
      "d": 367.6036458333256,
      "v": 57
    },
    {
      "midi": 38,
      "hit": false,
      "t": 204681.71000000025,
      "d": 911.65704166668,
      "v": 57
    },
    {
      "midi": 54,
      "hit": false,
      "t": 205034.60950000025,
      "d": 154.3935312500107,
      "v": 57
    },
    {
      "midi": 57,
      "hit": false,
      "t": 205034.60950000025,
      "d": 176.44974999999977,
      "v": 57
    },
    {
      "midi": 60,
      "hit": false,
      "t": 205034.60950000025,
      "d": 176.44974999999977,
      "v": 57
    },
    {
      "midi": 64,
      "hit": false,
      "t": 205034.60950000025,
      "d": 176.44974999999977,
      "v": 57
    },
    {
      "midi": 40,
      "hit": false,
      "t": 205622.77533333361,
      "d": 455.82852083334,
      "v": 57
    },
    {
      "midi": 60,
      "hit": false,
      "t": 205622.77533333361,
      "d": 470.53266666666605,
      "v": 57
    },
    {
      "midi": 54,
      "hit": false,
      "t": 205622.77533333361,
      "d": 492.5888854166551,
      "v": 57
    },
    {
      "midi": 57,
      "hit": false,
      "t": 205622.77533333361,
      "d": 492.5888854166551,
      "v": 57
    },
    {
      "midi": 64,
      "hit": false,
      "t": 205622.77533333361,
      "d": 499.9409583333181,
      "v": 57
    },
    {
      "midi": 41,
      "hit": false,
      "t": 206093.30800000028,
      "d": 1271.9086145833426,
      "v": 57
    },
    {
      "midi": 53,
      "hit": false,
      "t": 206446.20750000028,
      "d": 124.98523958332953,
      "v": 57
    },
    {
      "midi": 64,
      "hit": false,
      "t": 206446.20750000028,
      "d": 132.33731249999255,
      "v": 57
    },
    {
      "midi": 57,
      "hit": false,
      "t": 206446.20750000028,
      "d": 147.0414583333186,
      "v": 57
    },
    {
      "midi": 60,
      "hit": false,
      "t": 206446.20750000028,
      "d": 147.0414583333186,
      "v": 57
    },
    {
      "midi": 64,
      "hit": false,
      "t": 207152.00650000028,
      "d": 345.5474270833365,
      "v": 57
    },
    {
      "midi": 60,
      "hit": false,
      "t": 207152.00650000028,
      "d": 360.25157291666255,
      "v": 57
    },
    {
      "midi": 53,
      "hit": false,
      "t": 207152.00650000028,
      "d": 382.3077916666516,
      "v": 57
    },
    {
      "midi": 57,
      "hit": false,
      "t": 207152.00650000028,
      "d": 389.65986458331463,
      "v": 57
    },
    {
      "midi": 44,
      "hit": false,
      "t": 207504.90600000028,
      "d": 1338.0772708333097,
      "v": 57
    },
    {
      "midi": 53,
      "hit": false,
      "t": 207857.80550000025,
      "d": 117.63316666666651,
      "v": 57
    },
    {
      "midi": 56,
      "hit": false,
      "t": 207857.80550000025,
      "d": 117.63316666666651,
      "v": 57
    },
    {
      "midi": 59,
      "hit": false,
      "t": 207857.80550000025,
      "d": 139.68938541665557,
      "v": 57
    },
    {
      "midi": 62,
      "hit": false,
      "t": 207857.80550000025,
      "d": 147.0414583333186,
      "v": 57
    },
    {
      "midi": 53,
      "hit": false,
      "t": 208563.60450000025,
      "d": 382.3077916666807,
      "v": 57
    },
    {
      "midi": 56,
      "hit": false,
      "t": 208563.60450000025,
      "d": 397.01193750000675,
      "v": 57
    },
    {
      "midi": 59,
      "hit": false,
      "t": 208563.60450000025,
      "d": 404.36401041666977,
      "v": 57
    },
    {
      "midi": 62,
      "hit": false,
      "t": 208563.60450000025,
      "d": 404.36401041666977,
      "v": 57
    },
    {
      "midi": 45,
      "hit": false,
      "t": 208916.50400000025,
      "d": 1418.9500729166612,
      "v": 57
    },
    {
      "midi": 57,
      "hit": false,
      "t": 209269.40350000025,
      "d": 124.98523958332953,
      "v": 57
    },
    {
      "midi": 60,
      "hit": false,
      "t": 209269.40350000025,
      "d": 139.68938541665557,
      "v": 57
    },
    {
      "midi": 64,
      "hit": false,
      "t": 209269.40350000025,
      "d": 147.0414583333186,
      "v": 57
    },
    {
      "midi": 57,
      "hit": false,
      "t": 209975.20250000025,
      "d": 294.0829166666663,
      "v": 57
    },
    {
      "midi": 60,
      "hit": false,
      "t": 209975.20250000025,
      "d": 338.1953541666735,
      "v": 57
    },
    {
      "midi": 64,
      "hit": false,
      "t": 209975.20250000025,
      "d": 345.5474270833365,
      "v": 57
    },
    {
      "midi": 48,
      "hit": false,
      "t": 210328.10200000025,
      "d": 1374.837635416654,
      "v": 57
    },
    {
      "midi": 53,
      "hit": false,
      "t": 210681.00150000025,
      "d": 220.56218750000698,
      "v": 57
    },
    {
      "midi": 58,
      "hit": false,
      "t": 210681.00150000025,
      "d": 227.91426041667,
      "v": 57
    },
    {
      "midi": 62,
      "hit": false,
      "t": 210681.00150000025,
      "d": 227.91426041667,
      "v": 57
    },
    {
      "midi": 62,
      "hit": false,
      "t": 211386.80050000024,
      "d": 286.73084375000326,
      "v": 57
    },
    {
      "midi": 58,
      "hit": false,
      "t": 211386.80050000024,
      "d": 308.7870624999923,
      "v": 57
    },
    {
      "midi": 53,
      "hit": false,
      "t": 211386.80050000024,
      "d": 316.13913541665534,
      "v": 57
    },
    {
      "midi": 41,
      "hit": false,
      "t": 211739.70000000024,
      "d": 1352.7814166666649,
      "v": 57
    },
    {
      "midi": 53,
      "hit": false,
      "t": 212092.59950000024,
      "d": 110.28109375000349,
      "v": 57
    },
    {
      "midi": 57,
      "hit": false,
      "t": 212092.59950000024,
      "d": 124.98523958332953,
      "v": 57
    },
    {
      "midi": 64,
      "hit": false,
      "t": 212092.59950000024,
      "d": 124.98523958332953,
      "v": 57
    },
    {
      "midi": 60,
      "hit": false,
      "t": 212092.59950000024,
      "d": 139.68938541665557,
      "v": 57
    },
    {
      "midi": 64,
      "hit": false,
      "t": 212798.39850000024,
      "d": 345.5474270833365,
      "v": 57
    },
    {
      "midi": 53,
      "hit": false,
      "t": 212798.39850000024,
      "d": 374.9557187499886,
      "v": 57
    },
    {
      "midi": 60,
      "hit": false,
      "t": 212798.39850000024,
      "d": 389.65986458331463,
      "v": 57
    },
    {
      "midi": 57,
      "hit": false,
      "t": 212798.39850000024,
      "d": 397.01193749997765,
      "v": 57
    },
    {
      "midi": 44,
      "hit": false,
      "t": 213151.29800000024,
      "d": 1433.654218749958,
      "v": 57
    },
    {
      "midi": 53,
      "hit": false,
      "t": 213504.1975000002,
      "d": 154.3935312500107,
      "v": 57
    },
    {
      "midi": 59,
      "hit": false,
      "t": 213504.1975000002,
      "d": 169.09767708333675,
      "v": 57
    },
    {
      "midi": 62,
      "hit": false,
      "t": 213504.1975000002,
      "d": 169.09767708333675,
      "v": 57
    },
    {
      "midi": 56,
      "hit": false,
      "t": 213504.1975000002,
      "d": 176.44974999999977,
      "v": 57
    },
    {
      "midi": 53,
      "hit": false,
      "t": 214209.9965000002,
      "d": 352.89949999999953,
      "v": 57
    },
    {
      "midi": 62,
      "hit": false,
      "t": 214209.9965000002,
      "d": 374.9557187499886,
      "v": 57
    },
    {
      "midi": 59,
      "hit": false,
      "t": 214209.9965000002,
      "d": 382.3077916666516,
      "v": 57
    },
    {
      "midi": 56,
      "hit": false,
      "t": 214209.9965000002,
      "d": 389.65986458331463,
      "v": 57
    },
    {
      "midi": 45,
      "hit": false,
      "t": 214562.8960000002,
      "d": 1396.893854166614,
      "v": 57
    },
    {
      "midi": 57,
      "hit": false,
      "t": 214915.79550000018,
      "d": 139.68938541665557,
      "v": 57
    },
    {
      "midi": 60,
      "hit": false,
      "t": 214915.79550000018,
      "d": 161.74560416664463,
      "v": 57
    },
    {
      "midi": 64,
      "hit": false,
      "t": 214915.79550000018,
      "d": 161.74560416664463,
      "v": 57
    },
    {
      "midi": 60,
      "hit": false,
      "t": 215621.59450000015,
      "d": 360.25157291666255,
      "v": 57
    },
    {
      "midi": 57,
      "hit": false,
      "t": 215621.59450000015,
      "d": 404.36401041666977,
      "v": 57
    },
    {
      "midi": 64,
      "hit": false,
      "t": 215621.59450000015,
      "d": 426.4202291666588,
      "v": 57
    },
    {
      "midi": 38,
      "hit": false,
      "t": 215974.49400000015,
      "d": 1455.7104375000054,
      "v": 57
    },
    {
      "midi": 54,
      "hit": false,
      "t": 216327.39350000015,
      "d": 220.56218750000698,
      "v": 57
    },
    {
      "midi": 60,
      "hit": false,
      "t": 216327.39350000015,
      "d": 220.56218750000698,
      "v": 57
    },
    {
      "midi": 57,
      "hit": false,
      "t": 216327.39350000015,
      "d": 235.26633333333302,
      "v": 57
    },
    {
      "midi": 64,
      "hit": false,
      "t": 216327.39350000015,
      "d": 279.37877083334024,
      "v": 57
    },
    {
      "midi": 54,
      "hit": false,
      "t": 217033.19250000015,
      "d": 117.63316666666651,
      "v": 57
    },
    {
      "midi": 57,
      "hit": false,
      "t": 217033.19250000015,
      "d": 139.68938541665557,
      "v": 57
    },
    {
      "midi": 60,
      "hit": false,
      "t": 217033.19250000015,
      "d": 161.74560416664463,
      "v": 57
    },
    {
      "midi": 64,
      "hit": false,
      "t": 217033.19250000015,
      "d": 191.1538958333258,
      "v": 57
    },
    {
      "midi": 46,
      "hit": false,
      "t": 217386.09200000015,
      "d": 1426.3021458333242,
      "v": 57
    },
    {
      "midi": 62,
      "hit": false,
      "t": 217738.99150000015,
      "d": 227.91426041667,
      "v": 57
    },
    {
      "midi": 65,
      "hit": false,
      "t": 217738.99150000015,
      "d": 235.26633333333302,
      "v": 57
    },
    {
      "midi": 58,
      "hit": false,
      "t": 217738.99150000015,
      "d": 242.61840624999604,
      "v": 57
    },
    {
      "midi": 69,
      "hit": false,
      "t": 217738.99150000015,
      "d": 249.97047916665906,
      "v": 57
    },
    {
      "midi": 69,
      "hit": false,
      "t": 218444.79050000015,
      "d": 264.6746250000142,
      "v": 57
    },
    {
      "midi": 65,
      "hit": false,
      "t": 218444.79050000015,
      "d": 272.0266979166772,
      "v": 57
    },
    {
      "midi": 62,
      "hit": false,
      "t": 218444.79050000015,
      "d": 294.0829166666663,
      "v": 57
    },
    {
      "midi": 58,
      "hit": false,
      "t": 218444.79050000015,
      "d": 352.89949999999953,
      "v": 57
    },
    {
      "midi": 44,
      "hit": false,
      "t": 218797.69000000015,
      "d": 1404.2459270833351,
      "v": 57
    },
    {
      "midi": 56,
      "hit": false,
      "t": 219150.58950000015,
      "d": 213.21011458334397,
      "v": 57
    },
    {
      "midi": 67,
      "hit": false,
      "t": 219150.58950000015,
      "d": 220.56218750000698,
      "v": 57
    },
    {
      "midi": 60,
      "hit": false,
      "t": 219150.58950000015,
      "d": 227.91426041667,
      "v": 57
    },
    {
      "midi": 63,
      "hit": false,
      "t": 219150.58950000015,
      "d": 227.91426041667,
      "v": 57
    },
    {
      "midi": 67,
      "hit": false,
      "t": 219856.38850000015,
      "d": 242.61840624999604,
      "v": 57
    },
    {
      "midi": 60,
      "hit": false,
      "t": 219856.38850000015,
      "d": 272.0266979166772,
      "v": 57
    },
    {
      "midi": 56,
      "hit": false,
      "t": 219856.38850000015,
      "d": 279.37877083334024,
      "v": 57
    },
    {
      "midi": 63,
      "hit": false,
      "t": 219856.38850000015,
      "d": 279.37877083334024,
      "v": 57
    },
    {
      "midi": 43,
      "hit": false,
      "t": 220209.28800000015,
      "d": 1433.654218749958,
      "v": 57
    },
    {
      "midi": 62,
      "hit": false,
      "t": 220562.18750000015,
      "d": 161.74560416667373,
      "v": 57
    },
    {
      "midi": 65,
      "hit": false,
      "t": 220562.18750000015,
      "d": 161.74560416667373,
      "v": 57
    },
    {
      "midi": 58,
      "hit": false,
      "t": 220562.18750000015,
      "d": 176.44974999999977,
      "v": 57
    },
    {
      "midi": 55,
      "hit": false,
      "t": 220562.18750000015,
      "d": 183.8018229166628,
      "v": 57
    },
    {
      "midi": 65,
      "hit": false,
      "t": 221267.98650000014,
      "d": 227.91426041667,
      "v": 57
    },
    {
      "midi": 62,
      "hit": false,
      "t": 221267.98650000014,
      "d": 242.61840624999604,
      "v": 57
    },
    {
      "midi": 55,
      "hit": false,
      "t": 221267.98650000014,
      "d": 264.6746249999851,
      "v": 57
    },
    {
      "midi": 58,
      "hit": false,
      "t": 221267.98650000014,
      "d": 286.73084374997416,
      "v": 57
    },
    {
      "midi": 48,
      "hit": false,
      "t": 221620.88600000012,
      "d": 1205.7399583333463,
      "v": 57
    },
    {
      "midi": 36,
      "hit": false,
      "t": 221620.88600000012,
      "d": 1293.9648333333607,
      "v": 57
    },
    {
      "midi": 52,
      "hit": false,
      "t": 221973.78550000011,
      "d": 198.50596874998882,
      "v": 57
    },
    {
      "midi": 58,
      "hit": false,
      "t": 221973.78550000011,
      "d": 198.50596874998882,
      "v": 57
    },
    {
      "midi": 55,
      "hit": false,
      "t": 221973.78550000011,
      "d": 205.85804166665184,
      "v": 57
    },
    {
      "midi": 62,
      "hit": false,
      "t": 221973.78550000011,
      "d": 205.85804166665184,
      "v": 57
    },
    {
      "midi": 55,
      "hit": false,
      "t": 222679.5845000001,
      "d": 294.0829166666954,
      "v": 57
    },
    {
      "midi": 52,
      "hit": false,
      "t": 222679.5845000001,
      "d": 301.4349895833584,
      "v": 57
    },
    {
      "midi": 58,
      "hit": false,
      "t": 222679.5845000001,
      "d": 308.7870625000214,
      "v": 57
    },
    {
      "midi": 61,
      "hit": false,
      "t": 222679.5845000001,
      "d": 308.7870625000214,
      "v": 57
    },
    {
      "midi": 41,
      "hit": false,
      "t": 223032.48400000014,
      "d": 1367.485562499991,
      "v": 57
    },
    {
      "midi": 64,
      "hit": false,
      "t": 223385.38350000014,
      "d": 183.8018229166628,
      "v": 57
    },
    {
      "midi": 53,
      "hit": false,
      "t": 223385.38350000014,
      "d": 198.50596874998882,
      "v": 57
    },
    {
      "midi": 60,
      "hit": false,
      "t": 223385.38350000014,
      "d": 198.50596874998882,
      "v": 57
    },
    {
      "midi": 57,
      "hit": false,
      "t": 223385.38350000014,
      "d": 205.85804166665184,
      "v": 57
    },
    {
      "midi": 53,
      "hit": false,
      "t": 224091.18250000014,
      "d": 205.85804166668095,
      "v": 57
    },
    {
      "midi": 60,
      "hit": false,
      "t": 224091.18250000014,
      "d": 213.21011458334397,
      "v": 57
    },
    {
      "midi": 57,
      "hit": false,
      "t": 224091.18250000014,
      "d": 235.26633333333302,
      "v": 57
    },
    {
      "midi": 64,
      "hit": false,
      "t": 224091.18250000014,
      "d": 242.61840624999604,
      "v": 57
    },
    {
      "midi": 44,
      "hit": false,
      "t": 224444.08200000014,
      "d": 1411.597999999969,
      "v": 57
    },
    {
      "midi": 63,
      "hit": false,
      "t": 224796.98150000014,
      "d": 29.40829166668118,
      "v": 57
    },
    {
      "midi": 58,
      "hit": false,
      "t": 224796.98150000014,
      "d": 36.7603645833442,
      "v": 57
    },
    {
      "midi": 56,
      "hit": false,
      "t": 224796.98150000014,
      "d": 169.09767708333675,
      "v": 57
    },
    {
      "midi": 62,
      "hit": false,
      "t": 224796.98150000014,
      "d": 176.44974999999977,
      "v": 57
    },
    {
      "midi": 59,
      "hit": false,
      "t": 224796.98150000014,
      "d": 183.8018229166628,
      "v": 57
    },
    {
      "midi": 65,
      "hit": false,
      "t": 224796.98150000014,
      "d": 205.85804166665184,
      "v": 57
    },
    {
      "midi": 56,
      "hit": false,
      "t": 225502.78050000014,
      "d": 308.7870624999923,
      "v": 57
    },
    {
      "midi": 65,
      "hit": false,
      "t": 225502.78050000014,
      "d": 316.13913541665534,
      "v": 57
    },
    {
      "midi": 62,
      "hit": false,
      "t": 225502.78050000014,
      "d": 323.49120833331835,
      "v": 57
    },
    {
      "midi": 59,
      "hit": false,
      "t": 225502.78050000014,
      "d": 330.8432812499814,
      "v": 57
    },
    {
      "midi": 45,
      "hit": false,
      "t": 225855.6800000001,
      "d": 1404.2459270833351,
      "v": 57
    },
    {
      "midi": 64,
      "hit": false,
      "t": 226208.5795000001,
      "d": 161.74560416667373,
      "v": 57
    },
    {
      "midi": 57,
      "hit": false,
      "t": 226208.5795000001,
      "d": 169.09767708333675,
      "v": 57
    },
    {
      "midi": 67,
      "hit": false,
      "t": 226208.5795000001,
      "d": 169.09767708333675,
      "v": 57
    },
    {
      "midi": 60,
      "hit": false,
      "t": 226208.5795000001,
      "d": 183.8018229166628,
      "v": 57
    },
    {
      "midi": 67,
      "hit": false,
      "t": 226914.3785000001,
      "d": 345.5474270833365,
      "v": 57
    },
    {
      "midi": 64,
      "hit": false,
      "t": 226914.3785000001,
      "d": 352.89949999999953,
      "v": 57
    },
    {
      "midi": 60,
      "hit": false,
      "t": 226914.3785000001,
      "d": 374.9557187499886,
      "v": 57
    },
    {
      "midi": 57,
      "hit": false,
      "t": 226914.3785000001,
      "d": 426.4202291666588,
      "v": 57
    },
    {
      "midi": 38,
      "hit": false,
      "t": 227267.2780000001,
      "d": 1433.6542187500163,
      "v": 57
    },
    {
      "midi": 60,
      "hit": false,
      "t": 227620.1775000001,
      "d": 470.53266666666605,
      "v": 57
    },
    {
      "midi": 57,
      "hit": false,
      "t": 227620.1775000001,
      "d": 499.9409583333472,
      "v": 57
    },
    {
      "midi": 64,
      "hit": false,
      "t": 227620.1775000001,
      "d": 536.7013229166914,
      "v": 57
    },
    {
      "midi": 54,
      "hit": false,
      "t": 227620.1775000001,
      "d": 573.4616875000356,
      "v": 57
    },
    {
      "midi": 54,
      "hit": false,
      "t": 228325.97650000014,
      "d": 124.98523958332953,
      "v": 57
    },
    {
      "midi": 57,
      "hit": false,
      "t": 228325.97650000014,
      "d": 169.09767708333675,
      "v": 57
    },
    {
      "midi": 60,
      "hit": false,
      "t": 228325.97650000014,
      "d": 176.44974999999977,
      "v": 57
    },
    {
      "midi": 64,
      "hit": false,
      "t": 228325.97650000014,
      "d": 198.50596874998882,
      "v": 57
    },
    {
      "midi": 46,
      "hit": false,
      "t": 228678.87600000013,
      "d": 2852.6042916666484,
      "v": 57
    },
    {
      "midi": 58,
      "hit": false,
      "t": 229031.77550000013,
      "d": 279.37877083334024,
      "v": 57
    },
    {
      "midi": 62,
      "hit": false,
      "t": 229031.77550000013,
      "d": 294.0829166666663,
      "v": 57
    },
    {
      "midi": 65,
      "hit": false,
      "t": 229031.77550000013,
      "d": 301.4349895833293,
      "v": 57
    },
    {
      "midi": 69,
      "hit": false,
      "t": 229031.77550000013,
      "d": 316.13913541665534,
      "v": 57
    },
    {
      "midi": 58,
      "hit": false,
      "t": 229737.57450000013,
      "d": 264.6746250000142,
      "v": 57
    },
    {
      "midi": 62,
      "hit": false,
      "t": 229737.57450000013,
      "d": 279.37877083334024,
      "v": 57
    },
    {
      "midi": 65,
      "hit": false,
      "t": 229737.57450000013,
      "d": 286.73084375000326,
      "v": 57
    },
    {
      "midi": 69,
      "hit": false,
      "t": 229737.57450000013,
      "d": 286.73084375000326,
      "v": 57
    },
    {
      "midi": 58,
      "hit": false,
      "t": 230443.37350000013,
      "d": 272.0266979166772,
      "v": 57
    },
    {
      "midi": 62,
      "hit": false,
      "t": 230443.37350000013,
      "d": 286.73084375000326,
      "v": 57
    },
    {
      "midi": 65,
      "hit": false,
      "t": 230443.37350000013,
      "d": 286.73084375000326,
      "v": 57
    },
    {
      "midi": 69,
      "hit": false,
      "t": 230443.37350000013,
      "d": 301.4349895833293,
      "v": 57
    },
    {
      "midi": 69,
      "hit": false,
      "t": 231149.17250000013,
      "d": 301.4349895833293,
      "v": 57
    },
    {
      "midi": 65,
      "hit": false,
      "t": 231149.17250000013,
      "d": 323.49120833331835,
      "v": 57
    },
    {
      "midi": 58,
      "hit": false,
      "t": 231149.17250000013,
      "d": 338.1953541666444,
      "v": 57
    },
    {
      "midi": 62,
      "hit": false,
      "t": 231149.17250000013,
      "d": 345.5474270833074,
      "v": 57
    },
    {
      "midi": 47,
      "hit": false,
      "t": 231502.0720000001,
      "d": 1389.541781250009,
      "v": 57
    },
    {
      "midi": 65,
      "hit": false,
      "t": 231854.97150000013,
      "d": 360.25157291666255,
      "v": 57
    },
    {
      "midi": 62,
      "hit": false,
      "t": 231854.97150000013,
      "d": 374.9557187499886,
      "v": 57
    },
    {
      "midi": 68,
      "hit": false,
      "t": 231854.97150000013,
      "d": 374.9557187499886,
      "v": 57
    },
    {
      "midi": 59,
      "hit": false,
      "t": 231854.97150000013,
      "d": 411.7160833333328,
      "v": 57
    },
    {
      "midi": 68,
      "hit": false,
      "t": 232560.77050000013,
      "d": 249.97047916665906,
      "v": 57
    },
    {
      "midi": 59,
      "hit": false,
      "t": 232560.77050000013,
      "d": 264.6746249999851,
      "v": 57
    },
    {
      "midi": 62,
      "hit": false,
      "t": 232560.77050000013,
      "d": 264.6746249999851,
      "v": 57
    },
    {
      "midi": 65,
      "hit": false,
      "t": 232560.77050000013,
      "d": 264.6746249999851,
      "v": 57
    },
    {
      "midi": 52,
      "hit": false,
      "t": 232913.6700000001,
      "d": 1301.3169062499946,
      "v": 57
    },
    {
      "midi": 40,
      "hit": false,
      "t": 232913.6700000001,
      "d": 1360.133489583328,
      "v": 57
    },
    {
      "midi": 56,
      "hit": false,
      "t": 233266.5695000001,
      "d": 308.7870624999923,
      "v": 57
    },
    {
      "midi": 62,
      "hit": false,
      "t": 233266.5695000001,
      "d": 308.7870624999923,
      "v": 57
    },
    {
      "midi": 65,
      "hit": false,
      "t": 233266.5695000001,
      "d": 316.13913541665534,
      "v": 57
    },
    {
      "midi": 59,
      "hit": false,
      "t": 233266.5695000001,
      "d": 323.49120833331835,
      "v": 57
    },
    {
      "midi": 56,
      "hit": false,
      "t": 233972.3685000001,
      "d": 249.97047916665906,
      "v": 57
    },
    {
      "midi": 59,
      "hit": false,
      "t": 233972.3685000001,
      "d": 279.37877083334024,
      "v": 57
    },
    {
      "midi": 62,
      "hit": false,
      "t": 233972.3685000001,
      "d": 279.37877083334024,
      "v": 57
    },
    {
      "midi": 65,
      "hit": false,
      "t": 233972.3685000001,
      "d": 294.0829166666663,
      "v": 57
    },
    {
      "midi": 41,
      "hit": false,
      "t": 234325.2680000001,
      "d": 1191.0358124999912,
      "v": 57
    },
    {
      "midi": 64,
      "hit": false,
      "t": 234678.1675000001,
      "d": 249.97047916665906,
      "v": 57
    },
    {
      "midi": 57,
      "hit": false,
      "t": 234678.1675000001,
      "d": 257.3225520833221,
      "v": 57
    },
    {
      "midi": 60,
      "hit": false,
      "t": 234678.1675000001,
      "d": 257.3225520833221,
      "v": 57
    },
    {
      "midi": 53,
      "hit": false,
      "t": 234678.1675000001,
      "d": 264.6746249999851,
      "v": 57
    },
    {
      "midi": 64,
      "hit": false,
      "t": 235383.9665000001,
      "d": 345.5474270833365,
      "v": 57
    },
    {
      "midi": 53,
      "hit": false,
      "t": 235383.9665000001,
      "d": 374.9557187499886,
      "v": 57
    },
    {
      "midi": 60,
      "hit": false,
      "t": 235383.9665000001,
      "d": 374.9557187499886,
      "v": 57
    },
    {
      "midi": 57,
      "hit": false,
      "t": 235383.9665000001,
      "d": 389.65986458331463,
      "v": 57
    },
    {
      "midi": 44,
      "hit": false,
      "t": 235736.8660000001,
      "d": 1205.7399583333172,
      "v": 57
    },
    {
      "midi": 56,
      "hit": false,
      "t": 236089.76550000007,
      "d": 154.3935312500107,
      "v": 57
    },
    {
      "midi": 53,
      "hit": false,
      "t": 236089.76550000007,
      "d": 161.74560416667373,
      "v": 57
    },
    {
      "midi": 62,
      "hit": false,
      "t": 236089.76550000007,
      "d": 176.44974999999977,
      "v": 57
    },
    {
      "midi": 59,
      "hit": false,
      "t": 236089.76550000007,
      "d": 183.8018229166628,
      "v": 57
    },
    {
      "midi": 53,
      "hit": false,
      "t": 236795.56450000007,
      "d": 323.49120833334746,
      "v": 57
    },
    {
      "midi": 59,
      "hit": false,
      "t": 236795.56450000007,
      "d": 345.5474270833365,
      "v": 57
    },
    {
      "midi": 62,
      "hit": false,
      "t": 236795.56450000007,
      "d": 352.89949999999953,
      "v": 57
    },
    {
      "midi": 56,
      "hit": false,
      "t": 236795.56450000007,
      "d": 360.25157291666255,
      "v": 57
    },
    {
      "midi": 45,
      "hit": false,
      "t": 237148.46400000007,
      "d": 1389.541781250009,
      "v": 57
    },
    {
      "midi": 57,
      "hit": false,
      "t": 237501.36350000006,
      "d": 161.74560416667373,
      "v": 57
    },
    {
      "midi": 60,
      "hit": false,
      "t": 237501.36350000006,
      "d": 161.74560416667373,
      "v": 57
    },
    {
      "midi": 64,
      "hit": false,
      "t": 237501.36350000006,
      "d": 161.74560416667373,
      "v": 57
    },
    {
      "midi": 60,
      "hit": false,
      "t": 238207.16250000006,
      "d": 352.89949999999953,
      "v": 57
    },
    {
      "midi": 64,
      "hit": false,
      "t": 238207.16250000006,
      "d": 360.25157291666255,
      "v": 57
    },
    {
      "midi": 57,
      "hit": false,
      "t": 238207.16250000006,
      "d": 367.6036458333256,
      "v": 57
    },
    {
      "midi": 38,
      "hit": false,
      "t": 238560.06200000006,
      "d": 911.65704166668,
      "v": 57
    },
    {
      "midi": 54,
      "hit": false,
      "t": 238912.96150000006,
      "d": 154.3935312500107,
      "v": 57
    },
    {
      "midi": 57,
      "hit": false,
      "t": 238912.96150000006,
      "d": 176.44974999999977,
      "v": 57
    },
    {
      "midi": 60,
      "hit": false,
      "t": 238912.96150000006,
      "d": 176.44974999999977,
      "v": 57
    },
    {
      "midi": 64,
      "hit": false,
      "t": 238912.96150000006,
      "d": 176.44974999999977,
      "v": 57
    },
    {
      "midi": 40,
      "hit": false,
      "t": 239501.12733333342,
      "d": 455.82852083334,
      "v": 57
    },
    {
      "midi": 60,
      "hit": false,
      "t": 239501.12733333342,
      "d": 470.53266666666605,
      "v": 57
    },
    {
      "midi": 54,
      "hit": false,
      "t": 239501.12733333342,
      "d": 492.5888854166551,
      "v": 57
    },
    {
      "midi": 57,
      "hit": false,
      "t": 239501.12733333342,
      "d": 492.5888854166551,
      "v": 57
    },
    {
      "midi": 64,
      "hit": false,
      "t": 239501.12733333342,
      "d": 499.9409583333181,
      "v": 57
    },
    {
      "midi": 41,
      "hit": false,
      "t": 239971.6600000001,
      "d": 1271.9086145833426,
      "v": 57
    },
    {
      "midi": 53,
      "hit": false,
      "t": 240324.5595000001,
      "d": 124.98523958332953,
      "v": 57
    },
    {
      "midi": 64,
      "hit": false,
      "t": 240324.5595000001,
      "d": 132.33731249999255,
      "v": 57
    },
    {
      "midi": 57,
      "hit": false,
      "t": 240324.5595000001,
      "d": 147.0414583333186,
      "v": 57
    },
    {
      "midi": 60,
      "hit": false,
      "t": 240324.5595000001,
      "d": 147.0414583333186,
      "v": 57
    },
    {
      "midi": 64,
      "hit": false,
      "t": 241030.3585000001,
      "d": 345.5474270833365,
      "v": 57
    },
    {
      "midi": 60,
      "hit": false,
      "t": 241030.3585000001,
      "d": 360.25157291666255,
      "v": 57
    },
    {
      "midi": 53,
      "hit": false,
      "t": 241030.3585000001,
      "d": 382.3077916666516,
      "v": 57
    },
    {
      "midi": 57,
      "hit": false,
      "t": 241030.3585000001,
      "d": 389.65986458331463,
      "v": 57
    },
    {
      "midi": 44,
      "hit": false,
      "t": 241383.2580000001,
      "d": 1338.0772708333097,
      "v": 57
    },
    {
      "midi": 53,
      "hit": false,
      "t": 241736.15750000006,
      "d": 117.63316666666651,
      "v": 57
    },
    {
      "midi": 56,
      "hit": false,
      "t": 241736.15750000006,
      "d": 117.63316666666651,
      "v": 57
    },
    {
      "midi": 59,
      "hit": false,
      "t": 241736.15750000006,
      "d": 139.68938541665557,
      "v": 57
    },
    {
      "midi": 62,
      "hit": false,
      "t": 241736.15750000006,
      "d": 147.0414583333186,
      "v": 57
    },
    {
      "midi": 53,
      "hit": false,
      "t": 242441.95650000006,
      "d": 382.3077916666807,
      "v": 57
    },
    {
      "midi": 56,
      "hit": false,
      "t": 242441.95650000006,
      "d": 397.01193750000675,
      "v": 57
    },
    {
      "midi": 59,
      "hit": false,
      "t": 242441.95650000006,
      "d": 404.36401041666977,
      "v": 57
    },
    {
      "midi": 62,
      "hit": false,
      "t": 242441.95650000006,
      "d": 404.36401041666977,
      "v": 57
    },
    {
      "midi": 45,
      "hit": false,
      "t": 242794.85600000006,
      "d": 1418.9500729166612,
      "v": 57
    },
    {
      "midi": 57,
      "hit": false,
      "t": 243147.75550000006,
      "d": 124.98523958332953,
      "v": 57
    },
    {
      "midi": 60,
      "hit": false,
      "t": 243147.75550000006,
      "d": 139.68938541665557,
      "v": 57
    },
    {
      "midi": 64,
      "hit": false,
      "t": 243147.75550000006,
      "d": 147.0414583333186,
      "v": 57
    },
    {
      "midi": 57,
      "hit": false,
      "t": 243853.55450000006,
      "d": 294.0829166666663,
      "v": 57
    },
    {
      "midi": 60,
      "hit": false,
      "t": 243853.55450000006,
      "d": 338.1953541666735,
      "v": 57
    },
    {
      "midi": 64,
      "hit": false,
      "t": 243853.55450000006,
      "d": 345.5474270833365,
      "v": 57
    },
    {
      "midi": 48,
      "hit": false,
      "t": 244206.45400000006,
      "d": 1374.837635416654,
      "v": 57
    },
    {
      "midi": 53,
      "hit": false,
      "t": 244559.35350000006,
      "d": 220.56218750000698,
      "v": 57
    },
    {
      "midi": 58,
      "hit": false,
      "t": 244559.35350000006,
      "d": 227.91426041667,
      "v": 57
    },
    {
      "midi": 62,
      "hit": false,
      "t": 244559.35350000006,
      "d": 227.91426041667,
      "v": 57
    },
    {
      "midi": 62,
      "hit": false,
      "t": 245265.15250000005,
      "d": 286.73084375000326,
      "v": 57
    },
    {
      "midi": 58,
      "hit": false,
      "t": 245265.15250000005,
      "d": 308.7870624999923,
      "v": 57
    },
    {
      "midi": 53,
      "hit": false,
      "t": 245265.15250000005,
      "d": 316.13913541665534,
      "v": 57
    },
    {
      "midi": 41,
      "hit": false,
      "t": 245618.05200000005,
      "d": 1191.0358124999912,
      "v": 57
    },
    {
      "midi": 64,
      "hit": false,
      "t": 245970.95150000005,
      "d": 249.97047916665906,
      "v": 57
    },
    {
      "midi": 57,
      "hit": false,
      "t": 245970.95150000005,
      "d": 257.3225520833221,
      "v": 57
    },
    {
      "midi": 60,
      "hit": false,
      "t": 245970.95150000005,
      "d": 257.3225520833221,
      "v": 57
    },
    {
      "midi": 53,
      "hit": false,
      "t": 245970.95150000005,
      "d": 264.6746249999851,
      "v": 57
    },
    {
      "midi": 64,
      "hit": false,
      "t": 246676.75050000005,
      "d": 345.5474270833365,
      "v": 57
    },
    {
      "midi": 53,
      "hit": false,
      "t": 246676.75050000005,
      "d": 374.9557187499886,
      "v": 57
    },
    {
      "midi": 60,
      "hit": false,
      "t": 246676.75050000005,
      "d": 374.9557187499886,
      "v": 57
    },
    {
      "midi": 57,
      "hit": false,
      "t": 246676.75050000005,
      "d": 389.65986458331463,
      "v": 57
    },
    {
      "midi": 44,
      "hit": false,
      "t": 247029.65000000005,
      "d": 1205.7399583333172,
      "v": 57
    },
    {
      "midi": 56,
      "hit": false,
      "t": 247382.54950000002,
      "d": 154.3935312500107,
      "v": 57
    },
    {
      "midi": 53,
      "hit": false,
      "t": 247382.54950000002,
      "d": 161.74560416667373,
      "v": 57
    },
    {
      "midi": 62,
      "hit": false,
      "t": 247382.54950000002,
      "d": 176.44974999999977,
      "v": 57
    },
    {
      "midi": 59,
      "hit": false,
      "t": 247382.54950000002,
      "d": 183.8018229166628,
      "v": 57
    },
    {
      "midi": 53,
      "hit": false,
      "t": 248088.34850000002,
      "d": 323.49120833334746,
      "v": 57
    },
    {
      "midi": 59,
      "hit": false,
      "t": 248088.34850000002,
      "d": 345.5474270833365,
      "v": 57
    },
    {
      "midi": 62,
      "hit": false,
      "t": 248088.34850000002,
      "d": 352.89949999999953,
      "v": 57
    },
    {
      "midi": 56,
      "hit": false,
      "t": 248088.34850000002,
      "d": 360.25157291666255,
      "v": 57
    },
    {
      "midi": 45,
      "hit": false,
      "t": 248441.24800000002,
      "d": 1389.541781250009,
      "v": 57
    },
    {
      "midi": 57,
      "hit": false,
      "t": 248794.14750000002,
      "d": 161.74560416667373,
      "v": 57
    },
    {
      "midi": 60,
      "hit": false,
      "t": 248794.14750000002,
      "d": 161.74560416667373,
      "v": 57
    },
    {
      "midi": 64,
      "hit": false,
      "t": 248794.14750000002,
      "d": 161.74560416667373,
      "v": 57
    },
    {
      "midi": 60,
      "hit": false,
      "t": 249499.94650000002,
      "d": 352.89949999999953,
      "v": 57
    },
    {
      "midi": 64,
      "hit": false,
      "t": 249499.94650000002,
      "d": 360.25157291666255,
      "v": 57
    },
    {
      "midi": 57,
      "hit": false,
      "t": 249499.94650000002,
      "d": 367.6036458333256,
      "v": 57
    },
    {
      "midi": 38,
      "hit": false,
      "t": 249852.84600000002,
      "d": 911.65704166668,
      "v": 57
    },
    {
      "midi": 54,
      "hit": false,
      "t": 250205.74550000002,
      "d": 154.3935312500107,
      "v": 57
    },
    {
      "midi": 57,
      "hit": false,
      "t": 250205.74550000002,
      "d": 176.44974999999977,
      "v": 57
    },
    {
      "midi": 60,
      "hit": false,
      "t": 250205.74550000002,
      "d": 176.44974999999977,
      "v": 57
    },
    {
      "midi": 64,
      "hit": false,
      "t": 250205.74550000002,
      "d": 176.44974999999977,
      "v": 57
    },
    {
      "midi": 40,
      "hit": false,
      "t": 250793.91133333338,
      "d": 455.82852083334,
      "v": 57
    },
    {
      "midi": 60,
      "hit": false,
      "t": 250793.91133333338,
      "d": 470.53266666666605,
      "v": 57
    },
    {
      "midi": 54,
      "hit": false,
      "t": 250793.91133333338,
      "d": 492.5888854166551,
      "v": 57
    },
    {
      "midi": 57,
      "hit": false,
      "t": 250793.91133333338,
      "d": 492.5888854166551,
      "v": 57
    },
    {
      "midi": 64,
      "hit": false,
      "t": 250793.91133333338,
      "d": 499.9409583333181,
      "v": 57
    },
    {
      "midi": 41,
      "hit": false,
      "t": 251264.44400000005,
      "d": 1271.9086145833426,
      "v": 57
    },
    {
      "midi": 53,
      "hit": false,
      "t": 251617.34350000005,
      "d": 124.98523958332953,
      "v": 57
    },
    {
      "midi": 64,
      "hit": false,
      "t": 251617.34350000005,
      "d": 132.33731249999255,
      "v": 57
    },
    {
      "midi": 57,
      "hit": false,
      "t": 251617.34350000005,
      "d": 147.0414583333186,
      "v": 57
    },
    {
      "midi": 60,
      "hit": false,
      "t": 251617.34350000005,
      "d": 147.0414583333186,
      "v": 57
    },
    {
      "midi": 64,
      "hit": false,
      "t": 252323.14250000005,
      "d": 345.5474270833365,
      "v": 57
    },
    {
      "midi": 60,
      "hit": false,
      "t": 252323.14250000005,
      "d": 360.25157291666255,
      "v": 57
    },
    {
      "midi": 53,
      "hit": false,
      "t": 252323.14250000005,
      "d": 382.3077916666516,
      "v": 57
    },
    {
      "midi": 57,
      "hit": false,
      "t": 252323.14250000005,
      "d": 389.65986458331463,
      "v": 57
    },
    {
      "midi": 44,
      "hit": false,
      "t": 252676.04200000004,
      "d": 1338.0772708333097,
      "v": 57
    },
    {
      "midi": 53,
      "hit": false,
      "t": 253028.94150000002,
      "d": 117.63316666666651,
      "v": 57
    },
    {
      "midi": 56,
      "hit": false,
      "t": 253028.94150000002,
      "d": 117.63316666666651,
      "v": 57
    },
    {
      "midi": 59,
      "hit": false,
      "t": 253028.94150000002,
      "d": 139.68938541665557,
      "v": 57
    },
    {
      "midi": 62,
      "hit": false,
      "t": 253028.94150000002,
      "d": 147.0414583333186,
      "v": 57
    },
    {
      "midi": 53,
      "hit": false,
      "t": 253734.7405,
      "d": 382.3077916666807,
      "v": 57
    },
    {
      "midi": 56,
      "hit": false,
      "t": 253734.7405,
      "d": 397.01193750000675,
      "v": 57
    },
    {
      "midi": 59,
      "hit": false,
      "t": 253734.7405,
      "d": 404.36401041666977,
      "v": 57
    },
    {
      "midi": 62,
      "hit": false,
      "t": 253734.7405,
      "d": 404.36401041666977,
      "v": 57
    },
    {
      "midi": 45,
      "hit": false,
      "t": 254087.64,
      "d": 1418.9500729166612,
      "v": 57
    },
    {
      "midi": 57,
      "hit": false,
      "t": 254440.5395,
      "d": 124.98523958332953,
      "v": 57
    },
    {
      "midi": 60,
      "hit": false,
      "t": 254440.5395,
      "d": 139.68938541665557,
      "v": 57
    },
    {
      "midi": 64,
      "hit": false,
      "t": 254440.5395,
      "d": 147.0414583333186,
      "v": 57
    },
    {
      "midi": 57,
      "hit": false,
      "t": 255146.3385,
      "d": 294.0829166666663,
      "v": 57
    },
    {
      "midi": 60,
      "hit": false,
      "t": 255146.3385,
      "d": 338.1953541666735,
      "v": 57
    },
    {
      "midi": 64,
      "hit": false,
      "t": 255146.3385,
      "d": 345.5474270833365,
      "v": 57
    },
    {
      "midi": 48,
      "hit": false,
      "t": 255499.238,
      "d": 1374.837635416654,
      "v": 57
    },
    {
      "midi": 53,
      "hit": false,
      "t": 255852.1375,
      "d": 220.56218750000698,
      "v": 57
    },
    {
      "midi": 58,
      "hit": false,
      "t": 255852.1375,
      "d": 227.91426041667,
      "v": 57
    },
    {
      "midi": 62,
      "hit": false,
      "t": 255852.1375,
      "d": 227.91426041667,
      "v": 57
    },
    {
      "midi": 62,
      "hit": false,
      "t": 256557.9365,
      "d": 286.73084375000326,
      "v": 57
    },
    {
      "midi": 58,
      "hit": false,
      "t": 256557.9365,
      "d": 308.7870624999923,
      "v": 57
    },
    {
      "midi": 53,
      "hit": false,
      "t": 256557.9365,
      "d": 316.13913541665534,
      "v": 57
    },
    {
      "midi": 41,
      "hit": false,
      "t": 256910.836,
      "d": 1191.0358124999912,
      "v": 57
    },
    {
      "midi": 64,
      "hit": false,
      "t": 257263.7355,
      "d": 249.97047916665906,
      "v": 57
    },
    {
      "midi": 57,
      "hit": false,
      "t": 257263.7355,
      "d": 257.3225520833221,
      "v": 57
    },
    {
      "midi": 60,
      "hit": false,
      "t": 257263.7355,
      "d": 257.3225520833221,
      "v": 57
    },
    {
      "midi": 53,
      "hit": false,
      "t": 257263.7355,
      "d": 264.6746249999851,
      "v": 57
    },
    {
      "midi": 64,
      "hit": false,
      "t": 257969.5345,
      "d": 345.5474270833365,
      "v": 57
    },
    {
      "midi": 53,
      "hit": false,
      "t": 257969.5345,
      "d": 374.9557187499886,
      "v": 57
    },
    {
      "midi": 60,
      "hit": false,
      "t": 257969.5345,
      "d": 374.9557187499886,
      "v": 57
    },
    {
      "midi": 57,
      "hit": false,
      "t": 257969.5345,
      "d": 389.65986458331463,
      "v": 57
    },
    {
      "midi": 44,
      "hit": false,
      "t": 258322.434,
      "d": 1205.7399583333172,
      "v": 57
    },
    {
      "midi": 56,
      "hit": false,
      "t": 258675.33349999998,
      "d": 154.3935312500107,
      "v": 57
    },
    {
      "midi": 53,
      "hit": false,
      "t": 258675.33349999998,
      "d": 161.74560416667373,
      "v": 57
    },
    {
      "midi": 62,
      "hit": false,
      "t": 258675.33349999998,
      "d": 176.44974999999977,
      "v": 57
    },
    {
      "midi": 59,
      "hit": false,
      "t": 258675.33349999998,
      "d": 183.8018229166628,
      "v": 57
    },
    {
      "midi": 53,
      "hit": false,
      "t": 259381.13249999998,
      "d": 323.49120833334746,
      "v": 57
    },
    {
      "midi": 59,
      "hit": false,
      "t": 259381.13249999998,
      "d": 345.5474270833365,
      "v": 57
    },
    {
      "midi": 62,
      "hit": false,
      "t": 259381.13249999998,
      "d": 352.89949999999953,
      "v": 57
    },
    {
      "midi": 56,
      "hit": false,
      "t": 259381.13249999998,
      "d": 360.25157291666255,
      "v": 57
    },
    {
      "midi": 45,
      "hit": false,
      "t": 259734.03199999998,
      "d": 1389.541781250009,
      "v": 57
    },
    {
      "midi": 57,
      "hit": false,
      "t": 260086.93149999998,
      "d": 161.74560416667373,
      "v": 57
    },
    {
      "midi": 60,
      "hit": false,
      "t": 260086.93149999998,
      "d": 161.74560416667373,
      "v": 57
    },
    {
      "midi": 64,
      "hit": false,
      "t": 260086.93149999998,
      "d": 161.74560416667373,
      "v": 57
    },
    {
      "midi": 60,
      "hit": false,
      "t": 260792.73049999998,
      "d": 352.89949999999953,
      "v": 57
    },
    {
      "midi": 64,
      "hit": false,
      "t": 260792.73049999998,
      "d": 360.25157291666255,
      "v": 57
    },
    {
      "midi": 57,
      "hit": false,
      "t": 260792.73049999998,
      "d": 367.6036458333256,
      "v": 57
    },
    {
      "midi": 38,
      "hit": false,
      "t": 261145.62999999998,
      "d": 911.65704166668,
      "v": 57
    },
    {
      "midi": 54,
      "hit": false,
      "t": 261498.52949999998,
      "d": 154.3935312500107,
      "v": 57
    },
    {
      "midi": 57,
      "hit": false,
      "t": 261498.52949999998,
      "d": 176.44974999999977,
      "v": 57
    },
    {
      "midi": 60,
      "hit": false,
      "t": 261498.52949999998,
      "d": 176.44974999999977,
      "v": 57
    },
    {
      "midi": 64,
      "hit": false,
      "t": 261498.52949999998,
      "d": 176.44974999999977,
      "v": 57
    },
    {
      "midi": 40,
      "hit": false,
      "t": 262086.69533333334,
      "d": 455.82852083334,
      "v": 57
    },
    {
      "midi": 60,
      "hit": false,
      "t": 262086.69533333334,
      "d": 470.53266666666605,
      "v": 57
    },
    {
      "midi": 54,
      "hit": false,
      "t": 262086.69533333334,
      "d": 492.5888854166842,
      "v": 57
    },
    {
      "midi": 57,
      "hit": false,
      "t": 262086.69533333334,
      "d": 492.5888854166842,
      "v": 57
    },
    {
      "midi": 64,
      "hit": false,
      "t": 262086.69533333334,
      "d": 499.94095833337633,
      "v": 57
    },
    {
      "midi": 41,
      "hit": false,
      "t": 262557.228,
      "d": 1271.9086145834299,
      "v": 57
    },
    {
      "midi": 53,
      "hit": false,
      "t": 262910.12750000006,
      "d": 124.98523958335863,
      "v": 57
    },
    {
      "midi": 64,
      "hit": false,
      "t": 262910.12750000006,
      "d": 132.33731250005076,
      "v": 57
    },
    {
      "midi": 57,
      "hit": false,
      "t": 262910.12750000006,
      "d": 147.0414583333768,
      "v": 57
    },
    {
      "midi": 60,
      "hit": false,
      "t": 262910.12750000006,
      "d": 147.0414583333768,
      "v": 57
    },
    {
      "midi": 64,
      "hit": false,
      "t": 263615.9265000001,
      "d": 345.5474270833074,
      "v": 57
    },
    {
      "midi": 60,
      "hit": false,
      "t": 263615.9265000001,
      "d": 360.25157291669166,
      "v": 57
    },
    {
      "midi": 53,
      "hit": false,
      "t": 263615.9265000001,
      "d": 382.3077916667098,
      "v": 57
    },
    {
      "midi": 57,
      "hit": false,
      "t": 263615.9265000001,
      "d": 389.65986458340194,
      "v": 57
    },
    {
      "midi": 44,
      "hit": false,
      "t": 263968.8260000001,
      "d": 1338.0772708334262,
      "v": 57
    },
    {
      "midi": 53,
      "hit": false,
      "t": 264321.7255000002,
      "d": 117.63316666666651,
      "v": 57
    },
    {
      "midi": 56,
      "hit": false,
      "t": 264321.7255000002,
      "d": 117.63316666666651,
      "v": 57
    },
    {
      "midi": 59,
      "hit": false,
      "t": 264321.7255000002,
      "d": 139.68938541668467,
      "v": 57
    },
    {
      "midi": 62,
      "hit": false,
      "t": 264321.7255000002,
      "d": 147.0414583333768,
      "v": 57
    },
    {
      "midi": 53,
      "hit": false,
      "t": 265027.52450000023,
      "d": 382.3077916666516,
      "v": 57
    },
    {
      "midi": 56,
      "hit": false,
      "t": 265027.52450000023,
      "d": 397.01193749997765,
      "v": 57
    },
    {
      "midi": 59,
      "hit": false,
      "t": 265027.52450000023,
      "d": 404.36401041666977,
      "v": 57
    },
    {
      "midi": 62,
      "hit": false,
      "t": 265027.52450000023,
      "d": 404.36401041666977,
      "v": 57
    },
    {
      "midi": 45,
      "hit": false,
      "t": 265380.42400000023,
      "d": 1418.9500729168067,
      "v": 57
    },
    {
      "midi": 57,
      "hit": false,
      "t": 265733.32350000023,
      "d": 124.98523958335863,
      "v": 57
    },
    {
      "midi": 60,
      "hit": false,
      "t": 265733.32350000023,
      "d": 139.68938541668467,
      "v": 57
    },
    {
      "midi": 64,
      "hit": false,
      "t": 265733.32350000023,
      "d": 147.0414583333768,
      "v": 57
    },
    {
      "midi": 57,
      "hit": false,
      "t": 266439.1225000003,
      "d": 294.0829166666954,
      "v": 57
    },
    {
      "midi": 60,
      "hit": false,
      "t": 266439.1225000003,
      "d": 338.1953541666735,
      "v": 57
    },
    {
      "midi": 64,
      "hit": false,
      "t": 266439.1225000003,
      "d": 345.5474270833656,
      "v": 57
    },
    {
      "midi": 48,
      "hit": false,
      "t": 266792.02200000035,
      "d": 1374.8376354167704,
      "v": 57
    },
    {
      "midi": 53,
      "hit": false,
      "t": 267144.92150000035,
      "d": 220.56218750000698,
      "v": 57
    },
    {
      "midi": 58,
      "hit": false,
      "t": 267144.92150000035,
      "d": 227.9142604166991,
      "v": 57
    },
    {
      "midi": 62,
      "hit": false,
      "t": 267144.92150000035,
      "d": 227.9142604166991,
      "v": 57
    },
    {
      "midi": 62,
      "hit": false,
      "t": 267850.7205000004,
      "d": 286.73084375000326,
      "v": 57
    },
    {
      "midi": 58,
      "hit": false,
      "t": 267850.7205000004,
      "d": 308.7870625000214,
      "v": 57
    },
    {
      "midi": 53,
      "hit": false,
      "t": 267850.7205000004,
      "d": 316.13913541671354,
      "v": 57
    },
    {
      "midi": 41,
      "hit": false,
      "t": 268203.62000000046,
      "d": 1191.0358125000494,
      "v": 57
    },
    {
      "midi": 64,
      "hit": false,
      "t": 268556.51950000046,
      "d": 249.97047916665906,
      "v": 57
    },
    {
      "midi": 57,
      "hit": false,
      "t": 268556.51950000046,
      "d": 257.3225520833512,
      "v": 57
    },
    {
      "midi": 60,
      "hit": false,
      "t": 268556.51950000046,
      "d": 257.3225520833512,
      "v": 57
    },
    {
      "midi": 53,
      "hit": false,
      "t": 268556.51950000046,
      "d": 264.6746250000433,
      "v": 57
    },
    {
      "midi": 64,
      "hit": false,
      "t": 269262.3185000005,
      "d": 345.5474270833074,
      "v": 57
    },
    {
      "midi": 53,
      "hit": false,
      "t": 269262.3185000005,
      "d": 374.9557187500177,
      "v": 57
    },
    {
      "midi": 60,
      "hit": false,
      "t": 269262.3185000005,
      "d": 374.9557187500177,
      "v": 57
    },
    {
      "midi": 57,
      "hit": false,
      "t": 269262.3185000005,
      "d": 389.65986458334373,
      "v": 57
    },
    {
      "midi": 44,
      "hit": false,
      "t": 269615.2180000005,
      "d": 1205.7399583333754,
      "v": 57
    },
    {
      "midi": 56,
      "hit": false,
      "t": 269968.1175000005,
      "d": 154.3935312500107,
      "v": 57
    },
    {
      "midi": 53,
      "hit": false,
      "t": 269968.1175000005,
      "d": 161.74560416670283,
      "v": 57
    },
    {
      "midi": 62,
      "hit": false,
      "t": 269968.1175000005,
      "d": 176.44975000002887,
      "v": 57
    },
    {
      "midi": 59,
      "hit": false,
      "t": 269968.1175000005,
      "d": 183.801822916721,
      "v": 57
    },
    {
      "midi": 53,
      "hit": false,
      "t": 270673.9165000006,
      "d": 323.49120833334746,
      "v": 57
    },
    {
      "midi": 59,
      "hit": false,
      "t": 270673.9165000006,
      "d": 345.5474270833656,
      "v": 57
    },
    {
      "midi": 62,
      "hit": false,
      "t": 270673.9165000006,
      "d": 352.89950000005774,
      "v": 57
    },
    {
      "midi": 56,
      "hit": false,
      "t": 270673.9165000006,
      "d": 360.25157291674986,
      "v": 57
    },
    {
      "midi": 45,
      "hit": false,
      "t": 271026.81600000063,
      "d": 1389.54178124998,
      "v": 57
    },
    {
      "midi": 57,
      "hit": false,
      "t": 271379.71550000063,
      "d": 161.74560416664463,
      "v": 54
    },
    {
      "midi": 60,
      "hit": false,
      "t": 271379.71550000063,
      "d": 161.74560416664463,
      "v": 54
    },
    {
      "midi": 64,
      "hit": false,
      "t": 271379.71550000063,
      "d": 161.74560416664463,
      "v": 54
    },
    {
      "midi": 60,
      "hit": false,
      "t": 272085.51450000063,
      "d": 352.89949999999953,
      "v": 48
    },
    {
      "midi": 64,
      "hit": false,
      "t": 272085.51450000063,
      "d": 360.25157291669166,
      "v": 48
    },
    {
      "midi": 57,
      "hit": false,
      "t": 272085.51450000063,
      "d": 367.6036458333838,
      "v": 48
    },
    {
      "midi": 38,
      "hit": false,
      "t": 272438.41400000063,
      "d": 911.6570416667382,
      "v": 45
    },
    {
      "midi": 54,
      "hit": false,
      "t": 272791.3135000007,
      "d": 154.3935312500107,
      "v": 43
    },
    {
      "midi": 57,
      "hit": false,
      "t": 272791.3135000007,
      "d": 176.44975000002887,
      "v": 43
    },
    {
      "midi": 60,
      "hit": false,
      "t": 272791.3135000007,
      "d": 176.44975000002887,
      "v": 43
    },
    {
      "midi": 64,
      "hit": false,
      "t": 272791.3135000007,
      "d": 176.44975000002887,
      "v": 43
    },
    {
      "midi": 40,
      "hit": false,
      "t": 273379.479333334,
      "d": 455.82852083334,
      "v": 38
    },
    {
      "midi": 60,
      "hit": false,
      "t": 273379.479333334,
      "d": 470.53266666666605,
      "v": 38
    },
    {
      "midi": 54,
      "hit": false,
      "t": 273379.479333334,
      "d": 492.5888854166842,
      "v": 38
    },
    {
      "midi": 57,
      "hit": false,
      "t": 273379.479333334,
      "d": 492.5888854166842,
      "v": 38
    },
    {
      "midi": 64,
      "hit": false,
      "t": 273379.479333334,
      "d": 499.94095833337633,
      "v": 38
    },
    {
      "midi": 41,
      "hit": false,
      "t": 273850.0120000007,
      "d": 1271.9086145834299,
      "v": 34
    },
    {
      "midi": 53,
      "hit": false,
      "t": 274202.91150000074,
      "d": 124.98523958335863,
      "v": 31
    },
    {
      "midi": 64,
      "hit": false,
      "t": 274202.91150000074,
      "d": 132.33731250005076,
      "v": 31
    },
    {
      "midi": 57,
      "hit": false,
      "t": 274202.91150000074,
      "d": 147.0414583333768,
      "v": 31
    },
    {
      "midi": 60,
      "hit": false,
      "t": 274202.91150000074,
      "d": 147.0414583333768,
      "v": 31
    },
    {
      "midi": 64,
      "hit": false,
      "t": 274908.7105000008,
      "d": 345.5474270833074,
      "v": 25
    },
    {
      "midi": 60,
      "hit": false,
      "t": 274908.7105000008,
      "d": 360.25157291669166,
      "v": 25
    },
    {
      "midi": 53,
      "hit": false,
      "t": 274908.7105000008,
      "d": 382.3077916667098,
      "v": 25
    },
    {
      "midi": 57,
      "hit": false,
      "t": 274908.7105000008,
      "d": 389.65986458340194,
      "v": 25
    },
    {
      "midi": 44,
      "hit": false,
      "t": 275261.6100000008,
      "d": 1338.0772708334262,
      "v": 22
    },
    {
      "midi": 53,
      "hit": false,
      "t": 275614.50950000086,
      "d": 117.63316666666651,
      "v": 19
    },
    {
      "midi": 56,
      "hit": false,
      "t": 275614.50950000086,
      "d": 117.63316666666651,
      "v": 19
    },
    {
      "midi": 59,
      "hit": false,
      "t": 275614.50950000086,
      "d": 139.68938541668467,
      "v": 19
    },
    {
      "midi": 62,
      "hit": false,
      "t": 275614.50950000086,
      "d": 147.0414583333768,
      "v": 19
    },
    {
      "midi": 53,
      "hit": false,
      "t": 276320.3085000009,
      "d": 382.3077916666516,
      "v": 13
    },
    {
      "midi": 56,
      "hit": false,
      "t": 276320.3085000009,
      "d": 397.01193749997765,
      "v": 13
    },
    {
      "midi": 59,
      "hit": false,
      "t": 276320.3085000009,
      "d": 404.36401041666977,
      "v": 13
    },
    {
      "midi": 62,
      "hit": false,
      "t": 276320.3085000009,
      "d": 404.36401041666977,
      "v": 13
    },
    {
      "midi": 45,
      "hit": false,
      "t": 276673.2080000009,
      "d": 1418.9500729168067,
      "v": 11
    },
    {
      "midi": 57,
      "hit": false,
      "t": 277026.1075000009,
      "d": 124.98523958335863,
      "v": 7
    },
    {
      "midi": 60,
      "hit": false,
      "t": 277026.1075000009,
      "d": 139.68938541668467,
      "v": 7
    },
    {
      "midi": 64,
      "hit": false,
      "t": 277026.1075000009,
      "d": 147.0414583333768,
      "v": 7
    },
    {
      "midi": 57,
      "hit": false,
      "t": 277731.906500001,
      "d": 294.0829166666954,
      "v": 2
    },
    {
      "midi": 60,
      "hit": false,
      "t": 277731.906500001,
      "d": 338.1953541666735,
      "v": 2
    },
    {
      "midi": 64,
      "hit": false,
      "t": 277731.906500001,
      "d": 345.5474270833656,
      "v": 2
    },
    {
      "midi": 48,
      "hit": false,
      "t": 278084.80600000103,
      "d": 1374.8376354167704,
      "v": 1
    },
    {
      "midi": 53,
      "hit": false,
      "t": 278437.70550000103,
      "d": 220.56218750000698,
      "v": 1
    },
    {
      "midi": 58,
      "hit": false,
      "t": 278437.70550000103,
      "d": 227.9142604166991,
      "v": 1
    },
    {
      "midi": 62,
      "hit": false,
      "t": 278437.70550000103,
      "d": 227.9142604166991,
      "v": 1
    },
    {
      "midi": 62,
      "hit": false,
      "t": 279143.5045000011,
      "d": 286.73084375000326,
      "v": 1
    },
    {
      "midi": 58,
      "hit": false,
      "t": 279143.5045000011,
      "d": 308.7870625000214,
      "v": 1
    },
    {
      "midi": 53,
      "hit": false,
      "t": 279143.5045000011,
      "d": 316.13913541671354,
      "v": 1
    },
    {
      "midi": 41,
      "hit": false,
      "t": 279496.40400000114,
      "d": 1191.0358125000494,
      "v": 1
    },
    {
      "midi": 64,
      "hit": false,
      "t": 279849.30350000114,
      "d": 249.97047916665906,
      "v": 1
    },
    {
      "midi": 57,
      "hit": false,
      "t": 279849.30350000114,
      "d": 257.3225520833512,
      "v": 1
    },
    {
      "midi": 60,
      "hit": false,
      "t": 279849.30350000114,
      "d": 257.3225520833512,
      "v": 1
    },
    {
      "midi": 53,
      "hit": false,
      "t": 279849.30350000114,
      "d": 264.6746250000433,
      "v": 1
    }
  ]
}