{
  "jsonPath": "Animes/Pokémon MIDI Collection/jigglypuff-s-song.json",
  "path": "Animes\\Pokémon MIDI Collection\\Jigglypuff's Song.mid",
  "name": "Jigglypuff's Song",
  "difficulty": "Advanced",
  "bpm": 89.9999550000225,
  "notes": [
    {
      "midi": 66,
      "hit": false,
      "t": 0,
      "d": 4800,
      "v": 70
    },
    {
      "midi": 69,
      "hit": false,
      "t": 0,
      "d": 4800,
      "v": 70
    },
    {
      "midi": 62,
      "hit": false,
      "t": 0,
      "d": 4800,
      "v": 70
    },
    {
      "midi": 62,
      "hit": false,
      "t": 0,
      "d": 4800,
      "v": 60
    },
    {
      "midi": 66,
      "hit": false,
      "t": 1600.0000000000007,
      "d": 3199.999999999999,
      "v": 60
    },
    {
      "midi": 69,
      "hit": false,
      "t": 2200.000000000001,
      "d": 2599.999999999999,
      "v": 60
    },
    {
      "midi": 74,
      "hit": false,
      "t": 4800,
      "d": 1200,
      "v": 110
    },
    {
      "midi": 62,
      "hit": false,
      "t": 4800,
      "d": 2400,
      "v": 70
    },
    {
      "midi": 66,
      "hit": false,
      "t": 4800,
      "d": 2400,
      "v": 70
    },
    {
      "midi": 69,
      "hit": false,
      "t": 4800,
      "d": 2400,
      "v": 70
    },
    {
      "midi": 69,
      "hit": false,
      "t": 4800,
      "d": 2400,
      "v": 60
    },
    {
      "midi": 66,
      "hit": false,
      "t": 4800,
      "d": 2400,
      "v": 60
    },
    {
      "midi": 62,
      "hit": false,
      "t": 4800,
      "d": 2400,
      "v": 60
    },
    {
      "midi": 74,
      "hit": false,
      "t": 5133.333333333333,
      "d": 1200,
      "v": 100
    },
    {
      "midi": 81,
      "hit": false,
      "t": 6000,
      "d": 400,
      "v": 110
    },
    {
      "midi": 81,
      "hit": false,
      "t": 6333.333333333333,
      "d": 400,
      "v": 100
    },
    {
      "midi": 78,
      "hit": false,
      "t": 6400,
      "d": 800,
      "v": 110
    },
    {
      "midi": 78,
      "hit": false,
      "t": 6733.333333333333,
      "d": 800,
      "v": 100
    },
    {
      "midi": 76,
      "hit": false,
      "t": 7200,
      "d": 1200,
      "v": 110
    },
    {
      "midi": 71,
      "hit": false,
      "t": 7200,
      "d": 2400,
      "v": 70
    },
    {
      "midi": 67,
      "hit": false,
      "t": 7200,
      "d": 2400,
      "v": 70
    },
    {
      "midi": 62,
      "hit": false,
      "t": 7200,
      "d": 2400,
      "v": 70
    },
    {
      "midi": 71,
      "hit": false,
      "t": 7200,
      "d": 2400,
      "v": 60
    },
    {
      "midi": 67,
      "hit": false,
      "t": 7200,
      "d": 2400,
      "v": 60
    },
    {
      "midi": 62,
      "hit": false,
      "t": 7200,
      "d": 2400,
      "v": 60
    },
    {
      "midi": 76,
      "hit": false,
      "t": 7533.333333333333,
      "d": 1199.999999999999,
      "v": 100
    },
    {
      "midi": 78,
      "hit": false,
      "t": 8400,
      "d": 400,
      "v": 110
    },
    {
      "midi": 78,
      "hit": false,
      "t": 8733.333333333332,
      "d": 400,
      "v": 100
    },
    {
      "midi": 79,
      "hit": false,
      "t": 8800,
      "d": 800,
      "v": 110
    },
    {
      "midi": 79,
      "hit": false,
      "t": 9133.333333333332,
      "d": 800,
      "v": 100
    },
    {
      "midi": 78,
      "hit": false,
      "t": 9600,
      "d": 1200,
      "v": 110
    },
    {
      "midi": 66,
      "hit": false,
      "t": 9600,
      "d": 2400,
      "v": 70
    },
    {
      "midi": 62,
      "hit": false,
      "t": 9600,
      "d": 2400,
      "v": 70
    },
    {
      "midi": 69,
      "hit": false,
      "t": 9600,
      "d": 2400,
      "v": 70
    },
    {
      "midi": 66,
      "hit": false,
      "t": 9600,
      "d": 2400,
      "v": 60
    },
    {
      "midi": 62,
      "hit": false,
      "t": 9600,
      "d": 2400,
      "v": 60
    },
    {
      "midi": 69,
      "hit": false,
      "t": 9600,
      "d": 2400,
      "v": 60
    },
    {
      "midi": 78,
      "hit": false,
      "t": 9933.333333333332,
      "d": 1200,
      "v": 100
    },
    {
      "midi": 76,
      "hit": false,
      "t": 10800,
      "d": 400,
      "v": 110
    },
    {
      "midi": 76,
      "hit": false,
      "t": 11133.333333333332,
      "d": 400,
      "v": 100
    },
    {
      "midi": 78,
      "hit": false,
      "t": 11200,
      "d": 800,
      "v": 110
    },
    {
      "midi": 78,
      "hit": false,
      "t": 11533.333333333332,
      "d": 800,
      "v": 100
    },
    {
      "midi": 74,
      "hit": false,
      "t": 12000,
      "d": 1600,
      "v": 110
    },
    {
      "midi": 67,
      "hit": false,
      "t": 12000,
      "d": 2400,
      "v": 70
    },
    {
      "midi": 71,
      "hit": false,
      "t": 12000,
      "d": 2400,
      "v": 70
    },
    {
      "midi": 62,
      "hit": false,
      "t": 12000,
      "d": 2400,
      "v": 70
    },
    {
      "midi": 67,
      "hit": false,
      "t": 12000,
      "d": 2400,
      "v": 60
    },
    {
      "midi": 71,
      "hit": false,
      "t": 12000,
      "d": 2400,
      "v": 60
    },
    {
      "midi": 62,
      "hit": false,
      "t": 12000,
      "d": 2400,
      "v": 60
    },
    {
      "midi": 74,
      "hit": false,
      "t": 12333.333333333332,
      "d": 1600,
      "v": 100
    },
    {
      "midi": 74,
      "hit": false,
      "t": 14400,
      "d": 1200,
      "v": 110
    },
    {
      "midi": 69,
      "hit": false,
      "t": 14400,
      "d": 2400,
      "v": 70
    },
    {
      "midi": 66,
      "hit": false,
      "t": 14400,
      "d": 2400,
      "v": 70
    },
    {
      "midi": 62,
      "hit": false,
      "t": 14400,
      "d": 2400,
      "v": 70
    },
    {
      "midi": 69,
      "hit": false,
      "t": 14400,
      "d": 2400,
      "v": 60
    },
    {
      "midi": 66,
      "hit": false,
      "t": 14400,
      "d": 2400,
      "v": 60
    },
    {
      "midi": 62,
      "hit": false,
      "t": 14400,
      "d": 2400,
      "v": 60
    },
    {
      "midi": 74,
      "hit": false,
      "t": 14733.333333333332,
      "d": 1200,
      "v": 100
    },
    {
      "midi": 81,
      "hit": false,
      "t": 15600,
      "d": 400,
      "v": 110
    },
    {
      "midi": 81,
      "hit": false,
      "t": 15933.333333333332,
      "d": 400,
      "v": 100
    },
    {
      "midi": 78,
      "hit": false,
      "t": 16000,
      "d": 800,
      "v": 110
    },
    {
      "midi": 78,
      "hit": false,
      "t": 16333.333333333332,
      "d": 800,
      "v": 100
    },
    {
      "midi": 76,
      "hit": false,
      "t": 16800,
      "d": 1200,
      "v": 110
    },
    {
      "midi": 71,
      "hit": false,
      "t": 16800,
      "d": 2400,
      "v": 70
    },
    {
      "midi": 62,
      "hit": false,
      "t": 16800,
      "d": 2400,
      "v": 70
    },
    {
      "midi": 67,
      "hit": false,
      "t": 16800,
      "d": 2400,
      "v": 70
    },
    {
      "midi": 71,
      "hit": false,
      "t": 16800,
      "d": 2400,
      "v": 60
    },
    {
      "midi": 62,
      "hit": false,
      "t": 16800,
      "d": 2400,
      "v": 60
    },
    {
      "midi": 67,
      "hit": false,
      "t": 16800,
      "d": 2400,
      "v": 60
    },
    {
      "midi": 76,
      "hit": false,
      "t": 17133.333333333332,
      "d": 1200,
      "v": 100
    },
    {
      "midi": 78,
      "hit": false,
      "t": 18000,
      "d": 400,
      "v": 110
    },
    {
      "midi": 78,
      "hit": false,
      "t": 18333.333333333332,
      "d": 400,
      "v": 100
    },
    {
      "midi": 79,
      "hit": false,
      "t": 18400,
      "d": 800,
      "v": 110
    },
    {
      "midi": 79,
      "hit": false,
      "t": 18733.333333333332,
      "d": 800,
      "v": 100
    },
    {
      "midi": 78,
      "hit": false,
      "t": 19200,
      "d": 2400,
      "v": 110
    },
    {
      "midi": 62,
      "hit": false,
      "t": 19200,
      "d": 2400,
      "v": 70
    },
    {
      "midi": 66,
      "hit": false,
      "t": 19200,
      "d": 2400,
      "v": 70
    },
    {
      "midi": 69,
      "hit": false,
      "t": 19200,
      "d": 2400,
      "v": 70
    },
    {
      "midi": 62,
      "hit": false,
      "t": 19200,
      "d": 2400,
      "v": 60
    },
    {
      "midi": 66,
      "hit": false,
      "t": 19200,
      "d": 2400,
      "v": 60
    },
    {
      "midi": 69,
      "hit": false,
      "t": 19200,
      "d": 2400,
      "v": 60
    },
    {
      "midi": 78,
      "hit": false,
      "t": 19533.333333333332,
      "d": 2400,
      "v": 100
    },
    {
      "midi": 67,
      "hit": false,
      "t": 21600,
      "d": 2400,
      "v": 70
    },
    {
      "midi": 71,
      "hit": false,
      "t": 21600,
      "d": 2400,
      "v": 70
    },
    {
      "midi": 62,
      "hit": false,
      "t": 21600,
      "d": 2400,
      "v": 70
    },
    {
      "midi": 67,
      "hit": false,
      "t": 21600,
      "d": 2400,
      "v": 60
    },
    {
      "midi": 71,
      "hit": false,
      "t": 21600,
      "d": 2400,
      "v": 60
    },
    {
      "midi": 62,
      "hit": false,
      "t": 21600,
      "d": 2400,
      "v": 60
    },
    {
      "midi": 74,
      "hit": false,
      "t": 24000,
      "d": 1200,
      "v": 110
    },
    {
      "midi": 69,
      "hit": false,
      "t": 24000,
      "d": 2400,
      "v": 70
    },
    {
      "midi": 66,
      "hit": false,
      "t": 24000,
      "d": 2400,
      "v": 70
    },
    {
      "midi": 62,
      "hit": false,
      "t": 24000,
      "d": 2400,
      "v": 70
    },
    {
      "midi": 69,
      "hit": false,
      "t": 24000,
      "d": 2400,
      "v": 60
    },
    {
      "midi": 66,
      "hit": false,
      "t": 24000,
      "d": 2400,
      "v": 60
    },
    {
      "midi": 62,
      "hit": false,
      "t": 24000,
      "d": 2400,
      "v": 60
    },
    {
      "midi": 74,
      "hit": false,
      "t": 24333.333333333332,
      "d": 1200,
      "v": 100
    },
    {
      "midi": 81,
      "hit": false,
      "t": 25200,
      "d": 400,
      "v": 110
    },
    {
      "midi": 81,
      "hit": false,
      "t": 25533.333333333332,
      "d": 400,
      "v": 100
    },
    {
      "midi": 78,
      "hit": false,
      "t": 25600,
      "d": 400,
      "v": 110
    },
    {
      "midi": 78,
      "hit": false,
      "t": 25933.333333333332,
      "d": 400,
      "v": 100
    },
    {
      "midi": 74,
      "hit": false,
      "t": 26000,
      "d": 400,
      "v": 110
    },
    {
      "midi": 74,
      "hit": false,
      "t": 26333.333333333332,
      "d": 400,
      "v": 100
    },
    {
      "midi": 76,
      "hit": false,
      "t": 26400,
      "d": 1200,
      "v": 110
    },
    {
      "midi": 71,
      "hit": false,
      "t": 26400,
      "d": 2400,
      "v": 70
    },
    {
      "midi": 67,
      "hit": false,
      "t": 26400,
      "d": 2400,
      "v": 70
    },
    {
      "midi": 62,
      "hit": false,
      "t": 26400,
      "d": 2400,
      "v": 70
    },
    {
      "midi": 71,
      "hit": false,
      "t": 26400,
      "d": 2400,
      "v": 60
    },
    {
      "midi": 67,
      "hit": false,
      "t": 26400,
      "d": 2400,
      "v": 60
    },
    {
      "midi": 62,
      "hit": false,
      "t": 26400,
      "d": 2400,
      "v": 60
    },
    {
      "midi": 76,
      "hit": false,
      "t": 26733.333333333332,
      "d": 1200,
      "v": 100
    },
    {
      "midi": 78,
      "hit": false,
      "t": 27600,
      "d": 400,
      "v": 110
    },
    {
      "midi": 78,
      "hit": false,
      "t": 27933.333333333332,
      "d": 400,
      "v": 100
    },
    {
      "midi": 79,
      "hit": false,
      "t": 28000,
      "d": 800,
      "v": 110
    },
    {
      "midi": 79,
      "hit": false,
      "t": 28333.333333333332,
      "d": 800,
      "v": 100
    },
    {
      "midi": 78,
      "hit": false,
      "t": 28800,
      "d": 1200,
      "v": 110
    },
    {
      "midi": 69,
      "hit": false,
      "t": 28800,
      "d": 2400,
      "v": 70
    },
    {
      "midi": 66,
      "hit": false,
      "t": 28800,
      "d": 2400,
      "v": 70
    },
    {
      "midi": 62,
      "hit": false,
      "t": 28800,
      "d": 2400,
      "v": 70
    },
    {
      "midi": 69,
      "hit": false,
      "t": 28800,
      "d": 2400,
      "v": 60
    },
    {
      "midi": 66,
      "hit": false,
      "t": 28800,
      "d": 2400,
      "v": 60
    },
    {
      "midi": 62,
      "hit": false,
      "t": 28800,
      "d": 2400,
      "v": 60
    },
    {
      "midi": 78,
      "hit": false,
      "t": 29133.333333333332,
      "d": 1200,
      "v": 100
    },
    {
      "midi": 76,
      "hit": false,
      "t": 30000,
      "d": 400,
      "v": 110
    },
    {
      "midi": 76,
      "hit": false,
      "t": 30333.333333333332,
      "d": 400,
      "v": 100
    },
    {
      "midi": 78,
      "hit": false,
      "t": 30400,
      "d": 800,
      "v": 110
    },
    {
      "midi": 78,
      "hit": false,
      "t": 30733.333333333332,
      "d": 800,
      "v": 100
    },
    {
      "midi": 74,
      "hit": false,
      "t": 31200,
      "d": 1600,
      "v": 110
    },
    {
      "midi": 60,
      "hit": false,
      "t": 31200,
      "d": 2400,
      "v": 70
    },
    {
      "midi": 67,
      "hit": false,
      "t": 31200,
      "d": 2400,
      "v": 70
    },
    {
      "midi": 62,
      "hit": false,
      "t": 31200,
      "d": 2400,
      "v": 70
    },
    {
      "midi": 60,
      "hit": false,
      "t": 31200,
      "d": 2400,
      "v": 60
    },
    {
      "midi": 62,
      "hit": false,
      "t": 31200,
      "d": 2400,
      "v": 60
    },
    {
      "midi": 67,
      "hit": false,
      "t": 31200,
      "d": 2400,
      "v": 60
    },
    {
      "midi": 71,
      "hit": false,
      "t": 31200,
      "d": 2400,
      "v": 60
    },
    {
      "midi": 74,
      "hit": false,
      "t": 31533.333333333332,
      "d": 1599.9999999999964,
      "v": 100
    },
    {
      "midi": 74,
      "hit": false,
      "t": 33600,
      "d": 1200,
      "v": 110
    },
    {
      "midi": 66,
      "hit": false,
      "t": 33600,
      "d": 2400,
      "v": 70
    },
    {
      "midi": 62,
      "hit": false,
      "t": 33600,
      "d": 2400,
      "v": 70
    },
    {
      "midi": 58,
      "hit": false,
      "t": 33600,
      "d": 2400,
      "v": 70
    },
    {
      "midi": 66,
      "hit": false,
      "t": 33600,
      "d": 2400,
      "v": 60
    },
    {
      "midi": 58,
      "hit": false,
      "t": 33600,
      "d": 2400,
      "v": 60
    },
    {
      "midi": 62,
      "hit": false,
      "t": 33600,
      "d": 2400,
      "v": 60
    },
    {
      "midi": 70,
      "hit": false,
      "t": 33600,
      "d": 2400,
      "v": 60
    },
    {
      "midi": 74,
      "hit": false,
      "t": 33933.33333333333,
      "d": 1200,
      "v": 100
    },
    {
      "midi": 81,
      "hit": false,
      "t": 34800,
      "d": 400,
      "v": 110
    },
    {
      "midi": 81,
      "hit": false,
      "t": 35133.33333333333,
      "d": 400,
      "v": 100
    },
    {
      "midi": 78,
      "hit": false,
      "t": 35200,
      "d": 800,
      "v": 110
    },
    {
      "midi": 78,
      "hit": false,
      "t": 35533.33333333333,
      "d": 800,
      "v": 100
    },
    {
      "midi": 76,
      "hit": false,
      "t": 36000,
      "d": 1200,
      "v": 110
    },
    {
      "midi": 64,
      "hit": false,
      "t": 36000,
      "d": 2400,
      "v": 70
    },
    {
      "midi": 61,
      "hit": false,
      "t": 36000,
      "d": 2400,
      "v": 70
    },
    {
      "midi": 57,
      "hit": false,
      "t": 36000,
      "d": 2400,
      "v": 70
    },
    {
      "midi": 71,
      "hit": false,
      "t": 36000,
      "d": 2400,
      "v": 60
    },
    {
      "midi": 57,
      "hit": false,
      "t": 36000,
      "d": 2400,
      "v": 60
    },
    {
      "midi": 61,
      "hit": false,
      "t": 36000,
      "d": 2400,
      "v": 60
    },
    {
      "midi": 67,
      "hit": false,
      "t": 36000,
      "d": 2400,
      "v": 60
    },
    {
      "midi": 76,
      "hit": false,
      "t": 36333.33333333333,
      "d": 1200,
      "v": 100
    },
    {
      "midi": 78,
      "hit": false,
      "t": 37200,
      "d": 400,
      "v": 110
    },
    {
      "midi": 78,
      "hit": false,
      "t": 37533.33333333333,
      "d": 400,
      "v": 100
    },
    {
      "midi": 79,
      "hit": false,
      "t": 37600,
      "d": 800,
      "v": 110
    },
    {
      "midi": 79,
      "hit": false,
      "t": 37933.33333333333,
      "d": 800,
      "v": 100
    },
    {
      "midi": 78,
      "hit": false,
      "t": 38400,
      "d": 2400,
      "v": 110
    },
    {
      "midi": 59,
      "hit": false,
      "t": 38400,
      "d": 4800,
      "v": 70
    },
    {
      "midi": 63,
      "hit": false,
      "t": 38400,
      "d": 4800,
      "v": 70
    },
    {
      "midi": 66,
      "hit": false,
      "t": 38400,
      "d": 4800,
      "v": 70
    },
    {
      "midi": 59,
      "hit": false,
      "t": 38400,
      "d": 4800,
      "v": 60
    },
    {
      "midi": 70,
      "hit": false,
      "t": 38400,
      "d": 4800,
      "v": 60
    },
    {
      "midi": 66,
      "hit": false,
      "t": 38400,
      "d": 4800,
      "v": 60
    },
    {
      "midi": 63,
      "hit": false,
      "t": 38400,
      "d": 4800,
      "v": 60
    },
    {
      "midi": 78,
      "hit": false,
      "t": 38733.33333333333,
      "d": 2400,
      "v": 100
    },
    {
      "midi": 75,
      "hit": false,
      "t": 43200,
      "d": 1200,
      "v": 110
    },
    {
      "midi": 52,
      "hit": false,
      "t": 43200,
      "d": 2400,
      "v": 70
    },
    {
      "midi": 59,
      "hit": false,
      "t": 43200,
      "d": 2400,
      "v": 70
    },
    {
      "midi": 56,
      "hit": false,
      "t": 43200,
      "d": 2400,
      "v": 70
    },
    {
      "midi": 52,
      "hit": false,
      "t": 43200,
      "d": 2400,
      "v": 60
    },
    {
      "midi": 56,
      "hit": false,
      "t": 43200,
      "d": 2400,
      "v": 60
    },
    {
      "midi": 59,
      "hit": false,
      "t": 43200,
      "d": 2400,
      "v": 60
    },
    {
      "midi": 63,
      "hit": false,
      "t": 43200,
      "d": 2400,
      "v": 60
    },
    {
      "midi": 75,
      "hit": false,
      "t": 43533.33333333333,
      "d": 1200,
      "v": 100
    },
    {
      "midi": 82,
      "hit": false,
      "t": 44400,
      "d": 400,
      "v": 110
    },
    {
      "midi": 82,
      "hit": false,
      "t": 44733.33333333333,
      "d": 400,
      "v": 100
    },
    {
      "midi": 80,
      "hit": false,
      "t": 44800,
      "d": 800,
      "v": 110
    },
    {
      "midi": 80,
      "hit": false,
      "t": 45133.33333333333,
      "d": 800,
      "v": 100
    },
    {
      "midi": 77,
      "hit": false,
      "t": 45600,
      "d": 1600,
      "v": 110
    },
    {
      "midi": 54,
      "hit": false,
      "t": 45600,
      "d": 2400,
      "v": 70
    },
    {
      "midi": 61,
      "hit": false,
      "t": 45600,
      "d": 2400,
      "v": 70
    },
    {
      "midi": 58,
      "hit": false,
      "t": 45600,
      "d": 2400,
      "v": 70
    },
    {
      "midi": 54,
      "hit": false,
      "t": 45600,
      "d": 2400,
      "v": 60
    },
    {
      "midi": 58,
      "hit": false,
      "t": 45600,
      "d": 2400,
      "v": 60
    },
    {
      "midi": 61,
      "hit": false,
      "t": 45600,
      "d": 2400,
      "v": 60
    },
    {
      "midi": 65,
      "hit": false,
      "t": 45600,
      "d": 2400,
      "v": 60
    },
    {
      "midi": 77,
      "hit": false,
      "t": 45933.33333333333,
      "d": 1600,
      "v": 100
    },
    {
      "midi": 75,
      "hit": false,
      "t": 48000,
      "d": 1200,
      "v": 110
    },
    {
      "midi": 59,
      "hit": false,
      "t": 48000,
      "d": 2400,
      "v": 70
    },
    {
      "midi": 56,
      "hit": false,
      "t": 48000,
      "d": 2400,
      "v": 70
    },
    {
      "midi": 52,
      "hit": false,
      "t": 48000,
      "d": 2400,
      "v": 70
    },
    {
      "midi": 63,
      "hit": false,
      "t": 48000,
      "d": 2400,
      "v": 60
    },
    {
      "midi": 52,
      "hit": false,
      "t": 48000,
      "d": 2400,
      "v": 60
    },
    {
      "midi": 56,
      "hit": false,
      "t": 48000,
      "d": 2400,
      "v": 60
    },
    {
      "midi": 59,
      "hit": false,
      "t": 48000,
      "d": 2400,
      "v": 60
    },
    {
      "midi": 75,
      "hit": false,
      "t": 48333.33333333333,
      "d": 1200,
      "v": 100
    },
    {
      "midi": 82,
      "hit": false,
      "t": 49200,
      "d": 400,
      "v": 110
    },
    {
      "midi": 82,
      "hit": false,
      "t": 49533.33333333333,
      "d": 400,
      "v": 100
    },
    {
      "midi": 80,
      "hit": false,
      "t": 49600,
      "d": 800,
      "v": 110
    },
    {
      "midi": 80,
      "hit": false,
      "t": 49933.33333333333,
      "d": 800,
      "v": 100
    },
    {
      "midi": 77,
      "hit": false,
      "t": 50400,
      "d": 1600,
      "v": 110
    },
    {
      "midi": 61,
      "hit": false,
      "t": 50400,
      "d": 2400,
      "v": 70
    },
    {
      "midi": 58,
      "hit": false,
      "t": 50400,
      "d": 2400,
      "v": 70
    },
    {
      "midi": 54,
      "hit": false,
      "t": 50400,
      "d": 2400,
      "v": 70
    },
    {
      "midi": 65,
      "hit": false,
      "t": 50400,
      "d": 2400,
      "v": 60
    },
    {
      "midi": 54,
      "hit": false,
      "t": 50400,
      "d": 2400,
      "v": 60
    },
    {
      "midi": 58,
      "hit": false,
      "t": 50400,
      "d": 2400,
      "v": 60
    },
    {
      "midi": 61,
      "hit": false,
      "t": 50400,
      "d": 2400,
      "v": 60
    },
    {
      "midi": 77,
      "hit": false,
      "t": 50733.33333333333,
      "d": 1600,
      "v": 100
    },
    {
      "midi": 79,
      "hit": false,
      "t": 52800,
      "d": 1200,
      "v": 110
    },
    {
      "midi": 63,
      "hit": false,
      "t": 52800,
      "d": 2400,
      "v": 70
    },
    {
      "midi": 60,
      "hit": false,
      "t": 52800,
      "d": 2400,
      "v": 70
    },
    {
      "midi": 56,
      "hit": false,
      "t": 52800,
      "d": 2400,
      "v": 70
    },
    {
      "midi": 67,
      "hit": false,
      "t": 52800,
      "d": 2400,
      "v": 60
    },
    {
      "midi": 56,
      "hit": false,
      "t": 52800,
      "d": 2400,
      "v": 60
    },
    {
      "midi": 60,
      "hit": false,
      "t": 52800,
      "d": 2400,
      "v": 60
    },
    {
      "midi": 63,
      "hit": false,
      "t": 52800,
      "d": 2400,
      "v": 60
    },
    {
      "midi": 79,
      "hit": false,
      "t": 53133.33333333333,
      "d": 1200,
      "v": 100
    },
    {
      "midi": 87,
      "hit": false,
      "t": 54000,
      "d": 400,
      "v": 110
    },
    {
      "midi": 87,
      "hit": false,
      "t": 54333.33333333333,
      "d": 400,
      "v": 100
    },
    {
      "midi": 84,
      "hit": false,
      "t": 54400,
      "d": 800,
      "v": 110
    },
    {
      "midi": 84,
      "hit": false,
      "t": 54733.33333333333,
      "d": 800,
      "v": 100
    },
    {
      "midi": 77,
      "hit": false,
      "t": 55200,
      "d": 1200,
      "v": 110
    },
    {
      "midi": 54,
      "hit": false,
      "t": 55200,
      "d": 2400,
      "v": 70
    },
    {
      "midi": 61,
      "hit": false,
      "t": 55200,
      "d": 2400,
      "v": 70
    },
    {
      "midi": 58,
      "hit": false,
      "t": 55200,
      "d": 2400,
      "v": 70
    },
    {
      "midi": 54,
      "hit": false,
      "t": 55200,
      "d": 2400,
      "v": 60
    },
    {
      "midi": 58,
      "hit": false,
      "t": 55200,
      "d": 2400,
      "v": 60
    },
    {
      "midi": 61,
      "hit": false,
      "t": 55200,
      "d": 2400,
      "v": 60
    },
    {
      "midi": 65,
      "hit": false,
      "t": 55200,
      "d": 2400,
      "v": 60
    },
    {
      "midi": 77,
      "hit": false,
      "t": 55533.33333333333,
      "d": 1200,
      "v": 100
    },
    {
      "midi": 84,
      "hit": false,
      "t": 56400,
      "d": 400,
      "v": 110
    },
    {
      "midi": 84,
      "hit": false,
      "t": 56733.33333333333,
      "d": 400,
      "v": 100
    },
    {
      "midi": 82,
      "hit": false,
      "t": 56800,
      "d": 800,
      "v": 110
    },
    {
      "midi": 82,
      "hit": false,
      "t": 57133.33333333333,
      "d": 800,
      "v": 100
    },
    {
      "midi": 75,
      "hit": false,
      "t": 57600,
      "d": 2400,
      "v": 110
    },
    {
      "midi": 52,
      "hit": false,
      "t": 57600,
      "d": 4800,
      "v": 70
    },
    {
      "midi": 59,
      "hit": false,
      "t": 57600,
      "d": 4800,
      "v": 70
    },
    {
      "midi": 56,
      "hit": false,
      "t": 57600,
      "d": 4800,
      "v": 70
    },
    {
      "midi": 52,
      "hit": false,
      "t": 57600,
      "d": 4800,
      "v": 60
    },
    {
      "midi": 56,
      "hit": false,
      "t": 57600,
      "d": 4800,
      "v": 60
    },
    {
      "midi": 63,
      "hit": false,
      "t": 57600,
      "d": 4800,
      "v": 60
    },
    {
      "midi": 59,
      "hit": false,
      "t": 57600,
      "d": 4800,
      "v": 60
    },
    {
      "midi": 75,
      "hit": false,
      "t": 57933.33333333333,
      "d": 2400,
      "v": 100
    },
    {
      "midi": 73,
      "hit": false,
      "t": 62400,
      "d": 600,
      "v": 110
    },
    {
      "midi": 61,
      "hit": false,
      "t": 62400,
      "d": 1800,
      "v": 70
    },
    {
      "midi": 65,
      "hit": false,
      "t": 62400,
      "d": 1800,
      "v": 70
    },
    {
      "midi": 68,
      "hit": false,
      "t": 62400,
      "d": 1800,
      "v": 70
    },
    {
      "midi": 61,
      "hit": false,
      "t": 62400,
      "d": 1800,
      "v": 60
    },
    {
      "midi": 65,
      "hit": false,
      "t": 62400,
      "d": 1800,
      "v": 60
    },
    {
      "midi": 68,
      "hit": false,
      "t": 62400,
      "d": 1800,
      "v": 60
    },
    {
      "midi": 73,
      "hit": false,
      "t": 62733.33333333333,
      "d": 600,
      "v": 100
    },
    {
      "midi": 80,
      "hit": false,
      "t": 63000,
      "d": 600,
      "v": 110
    },
    {
      "midi": 80,
      "hit": false,
      "t": 63333.33333333333,
      "d": 600,
      "v": 100
    },
    {
      "midi": 77,
      "hit": false,
      "t": 63600,
      "d": 600,
      "v": 110
    },
    {
      "midi": 77,
      "hit": false,
      "t": 63933.33333333333,
      "d": 600,
      "v": 100
    },
    {
      "midi": 75,
      "hit": false,
      "t": 64200,
      "d": 600,
      "v": 110
    },
    {
      "midi": 70,
      "hit": false,
      "t": 64200,
      "d": 1800,
      "v": 70
    },
    {
      "midi": 66,
      "hit": false,
      "t": 64200,
      "d": 1800,
      "v": 70
    },
    {
      "midi": 61,
      "hit": false,
      "t": 64200,
      "d": 1800,
      "v": 70
    },
    {
      "midi": 70,
      "hit": false,
      "t": 64200,
      "d": 1800,
      "v": 60
    },
    {
      "midi": 66,
      "hit": false,
      "t": 64200,
      "d": 1800,
      "v": 60
    },
    {
      "midi": 61,
      "hit": false,
      "t": 64200,
      "d": 1800,
      "v": 60
    },
    {
      "midi": 75,
      "hit": false,
      "t": 64533.33333333333,
      "d": 600,
      "v": 100
    },
    {
      "midi": 77,
      "hit": false,
      "t": 64800,
      "d": 600,
      "v": 110
    },
    {
      "midi": 77,
      "hit": false,
      "t": 65133.33333333333,
      "d": 600,
      "v": 100
    },
    {
      "midi": 78,
      "hit": false,
      "t": 65400,
      "d": 600,
      "v": 110
    },
    {
      "midi": 78,
      "hit": false,
      "t": 65733.33333333333,
      "d": 600,
      "v": 100
    },
    {
      "midi": 80,
      "hit": false,
      "t": 66000,
      "d": 600,
      "v": 110
    },
    {
      "midi": 68,
      "hit": false,
      "t": 66000,
      "d": 600,
      "v": 70
    },
    {
      "midi": 65,
      "hit": false,
      "t": 66000,
      "d": 600,
      "v": 70
    },
    {
      "midi": 61,
      "hit": false,
      "t": 66000,
      "d": 600,
      "v": 70
    },
    {
      "midi": 68,
      "hit": false,
      "t": 66000,
      "d": 600,
      "v": 60
    },
    {
      "midi": 65,
      "hit": false,
      "t": 66000,
      "d": 600,
      "v": 60
    },
    {
      "midi": 61,
      "hit": false,
      "t": 66000,
      "d": 600,
      "v": 60
    },
    {
      "midi": 80,
      "hit": false,
      "t": 66333.33333333333,
      "d": 600,
      "v": 100
    },
    {
      "midi": 81,
      "hit": false,
      "t": 66600,
      "d": 600,
      "v": 110
    },
    {
      "midi": 69,
      "hit": false,
      "t": 66600,
      "d": 2400,
      "v": 70
    },
    {
      "midi": 61,
      "hit": false,
      "t": 66600,
      "d": 2400,
      "v": 70
    },
    {
      "midi": 64,
      "hit": false,
      "t": 66600,
      "d": 2400,
      "v": 70
    },
    {
      "midi": 69,
      "hit": false,
      "t": 66600,
      "d": 2400,
      "v": 60
    },
    {
      "midi": 61,
      "hit": false,
      "t": 66600,
      "d": 2400,
      "v": 60
    },
    {
      "midi": 64,
      "hit": false,
      "t": 66600,
      "d": 2400,
      "v": 60
    },
    {
      "midi": 81,
      "hit": false,
      "t": 66933.33333333333,
      "d": 600,
      "v": 100
    },
    {
      "midi": 80,
      "hit": false,
      "t": 67200,
      "d": 600,
      "v": 110
    },
    {
      "midi": 80,
      "hit": false,
      "t": 67533.33333333333,
      "d": 600,
      "v": 100
    },
    {
      "midi": 81,
      "hit": false,
      "t": 67800,
      "d": 600,
      "v": 110
    },
    {
      "midi": 81,
      "hit": false,
      "t": 68133.33333333333,
      "d": 600,
      "v": 100
    },
    {
      "midi": 78,
      "hit": false,
      "t": 68400,
      "d": 600,
      "v": 110
    },
    {
      "midi": 78,
      "hit": false,
      "t": 68733.33333333333,
      "d": 600,
      "v": 100
    },
    {
      "midi": 77,
      "hit": false,
      "t": 69000,
      "d": 600,
      "v": 110
    },
    {
      "midi": 61,
      "hit": false,
      "t": 69000,
      "d": 2200,
      "v": 70
    },
    {
      "midi": 65,
      "hit": false,
      "t": 69000,
      "d": 2200,
      "v": 70
    },
    {
      "midi": 68,
      "hit": false,
      "t": 69000,
      "d": 2200,
      "v": 70
    },
    {
      "midi": 61,
      "hit": false,
      "t": 69000,
      "d": 2200,
      "v": 60
    },
    {
      "midi": 65,
      "hit": false,
      "t": 69000,
      "d": 2200,
      "v": 60
    },
    {
      "midi": 68,
      "hit": false,
      "t": 69000,
      "d": 2200,
      "v": 60
    },
    {
      "midi": 77,
      "hit": false,
      "t": 69333.33333333333,
      "d": 600,
      "v": 100
    },
    {
      "midi": 77,
      "hit": false,
      "t": 69600,
      "d": 600,
      "v": 110
    },
    {
      "midi": 77,
      "hit": false,
      "t": 70000,
      "d": 600,
      "v": 100
    },
    {
      "midi": 78,
      "hit": false,
      "t": 70200,
      "d": 600,
      "v": 110
    },
    {
      "midi": 78,
      "hit": false,
      "t": 70533.33333333333,
      "d": 600,
      "v": 100
    },
    {
      "midi": 80,
      "hit": false,
      "t": 70800,
      "d": 600,
      "v": 110
    },
    {
      "midi": 80,
      "hit": false,
      "t": 71133.33333333333,
      "d": 600,
      "v": 100
    },
    {
      "midi": 78,
      "hit": false,
      "t": 71400,
      "d": 4200.000000000116,
      "v": 110
    },
    {
      "midi": 70,
      "hit": false,
      "t": 71400,
      "d": 5400.000000000364,
      "v": 70
    },
    {
      "midi": 66,
      "hit": false,
      "t": 71400,
      "d": 5400.000000000364,
      "v": 70
    },
    {
      "midi": 61,
      "hit": false,
      "t": 71400,
      "d": 5400.000000000364,
      "v": 70
    },
    {
      "midi": 70,
      "hit": false,
      "t": 71400,
      "d": 5400.000000000364,
      "v": 60
    },
    {
      "midi": 66,
      "hit": false,
      "t": 71400,
      "d": 5400.000000000364,
      "v": 60
    },
    {
      "midi": 61,
      "hit": false,
      "t": 71400,
      "d": 5400.000000000364,
      "v": 60
    },
    {
      "midi": 78,
      "hit": false,
      "t": 71733.33333333333,
      "d": 5000.000000000218,
      "v": 100
    },
    {
      "midi": 74,
      "hit": false,
      "t": 76800.00000000012,
      "d": 1200,
      "v": 110
    },
    {
      "midi": 62,
      "hit": false,
      "t": 76800.00000000036,
      "d": 2400,
      "v": 70
    },
    {
      "midi": 66,
      "hit": false,
      "t": 76800.00000000036,
      "d": 2400,
      "v": 70
    },
    {
      "midi": 69,
      "hit": false,
      "t": 76800.00000000036,
      "d": 2400,
      "v": 70
    },
    {
      "midi": 62,
      "hit": false,
      "t": 76800.00000000036,
      "d": 2400,
      "v": 60
    },
    {
      "midi": 66,
      "hit": false,
      "t": 76800.00000000036,
      "d": 2400,
      "v": 60
    },
    {
      "midi": 69,
      "hit": false,
      "t": 76800.00000000036,
      "d": 2400,
      "v": 60
    },
    {
      "midi": 74,
      "hit": false,
      "t": 77133.33333333355,
      "d": 1200,
      "v": 100
    },
    {
      "midi": 81,
      "hit": false,
      "t": 78000.00000000012,
      "d": 400,
      "v": 110
    },
    {
      "midi": 81,
      "hit": false,
      "t": 78333.33333333355,
      "d": 400,
      "v": 100
    },
    {
      "midi": 78,
      "hit": false,
      "t": 78400.00000000012,
      "d": 800,
      "v": 110
    },
    {
      "midi": 78,
      "hit": false,
      "t": 78733.33333333355,
      "d": 800,
      "v": 100
    },
    {
      "midi": 76,
      "hit": false,
      "t": 79200.00000000012,
      "d": 1200,
      "v": 110
    },
    {
      "midi": 71,
      "hit": false,
      "t": 79200.00000000036,
      "d": 2400,
      "v": 70
    },
    {
      "midi": 67,
      "hit": false,
      "t": 79200.00000000036,
      "d": 2400,
      "v": 70
    },
    {
      "midi": 62,
      "hit": false,
      "t": 79200.00000000036,
      "d": 2400,
      "v": 70
    },
    {
      "midi": 71,
      "hit": false,
      "t": 79200.00000000036,
      "d": 2400,
      "v": 60
    },
    {
      "midi": 67,
      "hit": false,
      "t": 79200.00000000036,
      "d": 2400,
      "v": 60
    },
    {
      "midi": 62,
      "hit": false,
      "t": 79200.00000000036,
      "d": 2400,
      "v": 60
    },
    {
      "midi": 76,
      "hit": false,
      "t": 79533.33333333355,
      "d": 1200,
      "v": 100
    },
    {
      "midi": 78,
      "hit": false,
      "t": 80400.00000000012,
      "d": 400,
      "v": 110
    },
    {
      "midi": 78,
      "hit": false,
      "t": 80733.33333333355,
      "d": 400,
      "v": 100
    },
    {
      "midi": 79,
      "hit": false,
      "t": 80800.00000000012,
      "d": 800,
      "v": 110
    },
    {
      "midi": 79,
      "hit": false,
      "t": 81133.33333333355,
      "d": 800,
      "v": 100
    },
    {
      "midi": 78,
      "hit": false,
      "t": 81600.00000000012,
      "d": 1200,
      "v": 110
    },
    {
      "midi": 66,
      "hit": false,
      "t": 81600.00000000036,
      "d": 2400,
      "v": 70
    },
    {
      "midi": 62,
      "hit": false,
      "t": 81600.00000000036,
      "d": 2400,
      "v": 70
    },
    {
      "midi": 69,
      "hit": false,
      "t": 81600.00000000036,
      "d": 2400,
      "v": 70
    },
    {
      "midi": 66,
      "hit": false,
      "t": 81600.00000000036,
      "d": 2400,
      "v": 60
    },
    {
      "midi": 62,
      "hit": false,
      "t": 81600.00000000036,
      "d": 2400,
      "v": 60
    },
    {
      "midi": 69,
      "hit": false,
      "t": 81600.00000000036,
      "d": 2400,
      "v": 60
    },
    {
      "midi": 78,
      "hit": false,
      "t": 81933.33333333355,
      "d": 1200,
      "v": 100
    },
    {
      "midi": 76,
      "hit": false,
      "t": 82800.00000000012,
      "d": 400,
      "v": 110
    },
    {
      "midi": 76,
      "hit": false,
      "t": 83133.33333333355,
      "d": 400,
      "v": 100
    },
    {
      "midi": 78,
      "hit": false,
      "t": 83200.00000000012,
      "d": 800,
      "v": 110
    },
    {
      "midi": 78,
      "hit": false,
      "t": 83533.33333333355,
      "d": 800,
      "v": 100
    },
    {
      "midi": 74,
      "hit": false,
      "t": 84000.00000000012,
      "d": 1600,
      "v": 110
    },
    {
      "midi": 67,
      "hit": false,
      "t": 84000.00000000036,
      "d": 2400,
      "v": 70
    },
    {
      "midi": 71,
      "hit": false,
      "t": 84000.00000000036,
      "d": 2400,
      "v": 70
    },
    {
      "midi": 62,
      "hit": false,
      "t": 84000.00000000036,
      "d": 2400,
      "v": 70
    },
    {
      "midi": 67,
      "hit": false,
      "t": 84000.00000000036,
      "d": 2400,
      "v": 60
    },
    {
      "midi": 71,
      "hit": false,
      "t": 84000.00000000036,
      "d": 2400,
      "v": 60
    },
    {
      "midi": 62,
      "hit": false,
      "t": 84000.00000000036,
      "d": 2400,
      "v": 60
    },
    {
      "midi": 74,
      "hit": false,
      "t": 84333.33333333355,
      "d": 1600,
      "v": 100
    },
    {
      "midi": 74,
      "hit": false,
      "t": 86400.00000000012,
      "d": 1200,
      "v": 110
    },
    {
      "midi": 69,
      "hit": false,
      "t": 86400.00000000036,
      "d": 2400,
      "v": 70
    },
    {
      "midi": 66,
      "hit": false,
      "t": 86400.00000000036,
      "d": 2400,
      "v": 70
    },
    {
      "midi": 62,
      "hit": false,
      "t": 86400.00000000036,
      "d": 2400,
      "v": 70
    },
    {
      "midi": 69,
      "hit": false,
      "t": 86400.00000000036,
      "d": 2400,
      "v": 60
    },
    {
      "midi": 66,
      "hit": false,
      "t": 86400.00000000036,
      "d": 2400,
      "v": 60
    },
    {
      "midi": 62,
      "hit": false,
      "t": 86400.00000000036,
      "d": 2400,
      "v": 60
    },
    {
      "midi": 74,
      "hit": false,
      "t": 86733.33333333355,
      "d": 1200,
      "v": 100
    },
    {
      "midi": 81,
      "hit": false,
      "t": 87600.00000000012,
      "d": 400,
      "v": 110
    },
    {
      "midi": 81,
      "hit": false,
      "t": 87933.33333333355,
      "d": 400,
      "v": 100
    },
    {
      "midi": 78,
      "hit": false,
      "t": 88000.00000000012,
      "d": 800,
      "v": 110
    },
    {
      "midi": 78,
      "hit": false,
      "t": 88333.33333333355,
      "d": 800,
      "v": 100
    },
    {
      "midi": 76,
      "hit": false,
      "t": 88800.00000000012,
      "d": 1200,
      "v": 110
    },
    {
      "midi": 71,
      "hit": false,
      "t": 88800.00000000036,
      "d": 2400,
      "v": 70
    },
    {
      "midi": 62,
      "hit": false,
      "t": 88800.00000000036,
      "d": 2400,
      "v": 70
    },
    {
      "midi": 67,
      "hit": false,
      "t": 88800.00000000036,
      "d": 2400,
      "v": 70
    },
    {
      "midi": 71,
      "hit": false,
      "t": 88800.00000000036,
      "d": 2400,
      "v": 60
    },
    {
      "midi": 62,
      "hit": false,
      "t": 88800.00000000036,
      "d": 2400,
      "v": 60
    },
    {
      "midi": 67,
      "hit": false,
      "t": 88800.00000000036,
      "d": 2400,
      "v": 60
    },
    {
      "midi": 76,
      "hit": false,
      "t": 89133.33333333355,
      "d": 1200,
      "v": 100
    },
    {
      "midi": 78,
      "hit": false,
      "t": 90000.00000000012,
      "d": 400,
      "v": 110
    },
    {
      "midi": 78,
      "hit": false,
      "t": 90333.33333333355,
      "d": 400,
      "v": 100
    },
    {
      "midi": 79,
      "hit": false,
      "t": 90400.00000000012,
      "d": 800,
      "v": 110
    },
    {
      "midi": 79,
      "hit": false,
      "t": 90733.33333333355,
      "d": 800,
      "v": 100
    },
    {
      "midi": 78,
      "hit": false,
      "t": 91200.00000000012,
      "d": 2400,
      "v": 110
    },
    {
      "midi": 62,
      "hit": false,
      "t": 91200.00000000036,
      "d": 2400,
      "v": 70
    },
    {
      "midi": 66,
      "hit": false,
      "t": 91200.00000000036,
      "d": 2400,
      "v": 70
    },
    {
      "midi": 69,
      "hit": false,
      "t": 91200.00000000036,
      "d": 2400,
      "v": 70
    },
    {
      "midi": 62,
      "hit": false,
      "t": 91200.00000000036,
      "d": 2400,
      "v": 60
    },
    {
      "midi": 66,
      "hit": false,
      "t": 91200.00000000036,
      "d": 2400,
      "v": 60
    },
    {
      "midi": 69,
      "hit": false,
      "t": 91200.00000000036,
      "d": 2400,
      "v": 60
    },
    {
      "midi": 78,
      "hit": false,
      "t": 91533.33333333355,
      "d": 2400,
      "v": 100
    },
    {
      "midi": 67,
      "hit": false,
      "t": 93600.00000000036,
      "d": 2400,
      "v": 70
    },
    {
      "midi": 71,
      "hit": false,
      "t": 93600.00000000036,
      "d": 2400,
      "v": 70
    },
    {
      "midi": 62,
      "hit": false,
      "t": 93600.00000000036,
      "d": 2400,
      "v": 70
    },
    {
      "midi": 67,
      "hit": false,
      "t": 93600.00000000036,
      "d": 2400,
      "v": 60
    },
    {
      "midi": 71,
      "hit": false,
      "t": 93600.00000000036,
      "d": 2400,
      "v": 60
    },
    {
      "midi": 62,
      "hit": false,
      "t": 93600.00000000036,
      "d": 2400,
      "v": 60
    },
    {
      "midi": 74,
      "hit": false,
      "t": 96000.00000000012,
      "d": 1200,
      "v": 110
    },
    {
      "midi": 62,
      "hit": false,
      "t": 96000.00000000036,
      "d": 2400,
      "v": 70
    },
    {
      "midi": 69,
      "hit": false,
      "t": 96000.00000000036,
      "d": 2400,
      "v": 70
    },
    {
      "midi": 66,
      "hit": false,
      "t": 96000.00000000036,
      "d": 2400,
      "v": 70
    },
    {
      "midi": 62,
      "hit": false,
      "t": 96000.00000000036,
      "d": 2400,
      "v": 60
    },
    {
      "midi": 69,
      "hit": false,
      "t": 96000.00000000036,
      "d": 2400,
      "v": 60
    },
    {
      "midi": 66,
      "hit": false,
      "t": 96000.00000000036,
      "d": 2400,
      "v": 60
    },
    {
      "midi": 74,
      "hit": false,
      "t": 96333.33333333355,
      "d": 1200,
      "v": 100
    },
    {
      "midi": 81,
      "hit": false,
      "t": 97200.00000000012,
      "d": 400,
      "v": 110
    },
    {
      "midi": 81,
      "hit": false,
      "t": 97533.33333333355,
      "d": 400,
      "v": 100
    },
    {
      "midi": 78,
      "hit": false,
      "t": 97600.00000000012,
      "d": 800,
      "v": 110
    },
    {
      "midi": 78,
      "hit": false,
      "t": 97933.33333333355,
      "d": 800,
      "v": 100
    },
    {
      "midi": 76,
      "hit": false,
      "t": 98400.00000000012,
      "d": 1200,
      "v": 110
    },
    {
      "midi": 71,
      "hit": false,
      "t": 98400.00000000036,
      "d": 2400,
      "v": 70
    },
    {
      "midi": 67,
      "hit": false,
      "t": 98400.00000000036,
      "d": 2400,
      "v": 70
    },
    {
      "midi": 62,
      "hit": false,
      "t": 98400.00000000036,
      "d": 2400,
      "v": 70
    },
    {
      "midi": 71,
      "hit": false,
      "t": 98400.00000000036,
      "d": 2400,
      "v": 60
    },
    {
      "midi": 67,
      "hit": false,
      "t": 98400.00000000036,
      "d": 2400,
      "v": 60
    },
    {
      "midi": 62,
      "hit": false,
      "t": 98400.00000000036,
      "d": 2400,
      "v": 60
    },
    {
      "midi": 76,
      "hit": false,
      "t": 98733.33333333355,
      "d": 1200,
      "v": 100
    },
    {
      "midi": 78,
      "hit": false,
      "t": 99600.00000000012,
      "d": 400,
      "v": 110
    },
    {
      "midi": 78,
      "hit": false,
      "t": 99933.33333333355,
      "d": 400,
      "v": 100
    },
    {
      "midi": 79,
      "hit": false,
      "t": 100000.00000000012,
      "d": 800,
      "v": 110
    },
    {
      "midi": 79,
      "hit": false,
      "t": 100333.33333333355,
      "d": 800,
      "v": 100
    },
    {
      "midi": 78,
      "hit": false,
      "t": 100800.00000000012,
      "d": 1200,
      "v": 110
    },
    {
      "midi": 69,
      "hit": false,
      "t": 100800.00000000036,
      "d": 2400,
      "v": 70
    },
    {
      "midi": 66,
      "hit": false,
      "t": 100800.00000000036,
      "d": 2400,
      "v": 70
    },
    {
      "midi": 62,
      "hit": false,
      "t": 100800.00000000036,
      "d": 2400,
      "v": 70
    },
    {
      "midi": 69,
      "hit": false,
      "t": 100800.00000000036,
      "d": 2400,
      "v": 60
    },
    {
      "midi": 66,
      "hit": false,
      "t": 100800.00000000036,
      "d": 2400,
      "v": 60
    },
    {
      "midi": 62,
      "hit": false,
      "t": 100800.00000000036,
      "d": 2400,
      "v": 60
    },
    {
      "midi": 78,
      "hit": false,
      "t": 101133.33333333355,
      "d": 1200,
      "v": 100
    },
    {
      "midi": 76,
      "hit": false,
      "t": 102000.00000000012,
      "d": 400,
      "v": 110
    },
    {
      "midi": 76,
      "hit": false,
      "t": 102333.33333333355,
      "d": 400,
      "v": 100
    },
    {
      "midi": 78,
      "hit": false,
      "t": 102400.00000000012,
      "d": 800,
      "v": 110
    },
    {
      "midi": 78,
      "hit": false,
      "t": 102733.33333333355,
      "d": 800,
      "v": 100
    },
    {
      "midi": 74,
      "hit": false,
      "t": 103200.00000000012,
      "d": 1600,
      "v": 110
    },
    {
      "midi": 67,
      "hit": false,
      "t": 103200.00000000036,
      "d": 2400,
      "v": 70
    },
    {
      "midi": 62,
      "hit": false,
      "t": 103200.00000000036,
      "d": 2400,
      "v": 70
    },
    {
      "midi": 60,
      "hit": false,
      "t": 103200.00000000036,
      "d": 2400,
      "v": 70
    },
    {
      "midi": 72,
      "hit": false,
      "t": 103200.00000000036,
      "d": 2400,
      "v": 60
    },
    {
      "midi": 60,
      "hit": false,
      "t": 103200.00000000036,
      "d": 2400,
      "v": 60
    },
    {
      "midi": 62,
      "hit": false,
      "t": 103200.00000000036,
      "d": 2400,
      "v": 60
    },
    {
      "midi": 67,
      "hit": false,
      "t": 103200.00000000036,
      "d": 2400,
      "v": 60
    },
    {
      "midi": 74,
      "hit": false,
      "t": 103533.33333333355,
      "d": 1600,
      "v": 100
    },
    {
      "midi": 74,
      "hit": false,
      "t": 105600.00000000012,
      "d": 1200,
      "v": 110
    },
    {
      "midi": 66,
      "hit": false,
      "t": 105600.00000000036,
      "d": 2400,
      "v": 70
    },
    {
      "midi": 62,
      "hit": false,
      "t": 105600.00000000036,
      "d": 2400,
      "v": 70
    },
    {
      "midi": 58,
      "hit": false,
      "t": 105600.00000000036,
      "d": 2400,
      "v": 70
    },
    {
      "midi": 66,
      "hit": false,
      "t": 105600.00000000036,
      "d": 2400,
      "v": 60
    },
    {
      "midi": 58,
      "hit": false,
      "t": 105600.00000000036,
      "d": 2400,
      "v": 60
    },
    {
      "midi": 62,
      "hit": false,
      "t": 105600.00000000036,
      "d": 2400,
      "v": 60
    },
    {
      "midi": 70,
      "hit": false,
      "t": 105600.00000000036,
      "d": 2400,
      "v": 60
    },
    {
      "midi": 74,
      "hit": false,
      "t": 105933.33333333355,
      "d": 1200,
      "v": 100
    },
    {
      "midi": 81,
      "hit": false,
      "t": 106800.00000000012,
      "d": 400,
      "v": 110
    },
    {
      "midi": 81,
      "hit": false,
      "t": 107133.33333333355,
      "d": 400,
      "v": 100
    },
    {
      "midi": 78,
      "hit": false,
      "t": 107200.00000000012,
      "d": 800,
      "v": 110
    },
    {
      "midi": 78,
      "hit": false,
      "t": 107533.33333333355,
      "d": 800,
      "v": 100
    },
    {
      "midi": 76,
      "hit": false,
      "t": 108000.00000000012,
      "d": 1200,
      "v": 110
    },
    {
      "midi": 57,
      "hit": false,
      "t": 108000.00000000036,
      "d": 2400,
      "v": 70
    },
    {
      "midi": 64,
      "hit": false,
      "t": 108000.00000000036,
      "d": 2400,
      "v": 70
    },
    {
      "midi": 61,
      "hit": false,
      "t": 108000.00000000036,
      "d": 2400,
      "v": 70
    },
    {
      "midi": 57,
      "hit": false,
      "t": 108000.00000000036,
      "d": 2400,
      "v": 60
    },
    {
      "midi": 61,
      "hit": false,
      "t": 108000.00000000036,
      "d": 2400,
      "v": 60
    },
    {
      "midi": 64,
      "hit": false,
      "t": 108000.00000000036,
      "d": 2400,
      "v": 60
    },
    {
      "midi": 71,
      "hit": false,
      "t": 108000.00000000036,
      "d": 2400,
      "v": 60
    },
    {
      "midi": 76,
      "hit": false,
      "t": 108333.33333333355,
      "d": 1200,
      "v": 100
    },
    {
      "midi": 78,
      "hit": false,
      "t": 109200.00000000012,
      "d": 400,
      "v": 110
    },
    {
      "midi": 78,
      "hit": false,
      "t": 109533.33333333355,
      "d": 400,
      "v": 100
    },
    {
      "midi": 79,
      "hit": false,
      "t": 109600.00000000012,
      "d": 800,
      "v": 110
    },
    {
      "midi": 79,
      "hit": false,
      "t": 109933.33333333355,
      "d": 800,
      "v": 100
    },
    {
      "midi": 78,
      "hit": false,
      "t": 110400.00000000012,
      "d": 4800.000000000116,
      "v": 110
    },
    {
      "midi": 59,
      "hit": false,
      "t": 110400.00000000036,
      "d": 7200.0000000002765,
      "v": 70
    },
    {
      "midi": 70,
      "hit": false,
      "t": 110400.00000000036,
      "d": 7200.0000000002765,
      "v": 70
    },
    {
      "midi": 66,
      "hit": false,
      "t": 110400.00000000036,
      "d": 7200.0000000002765,
      "v": 70
    },
    {
      "midi": 63,
      "hit": false,
      "t": 110400.00000000036,
      "d": 7200.0000000002765,
      "v": 70
    },
    {
      "midi": 59,
      "hit": false,
      "t": 110400.00000000036,
      "d": 7200.0000000002765,
      "v": 60
    },
    {
      "midi": 70,
      "hit": false,
      "t": 110400.00000000036,
      "d": 7200.0000000002765,
      "v": 60
    },
    {
      "midi": 66,
      "hit": false,
      "t": 110400.00000000036,
      "d": 7200.0000000002765,
      "v": 60
    },
    {
      "midi": 63,
      "hit": false,
      "t": 110400.00000000036,
      "d": 7200.0000000002765,
      "v": 60
    },
    {
      "midi": 78,
      "hit": false,
      "t": 110733.33333333355,
      "d": 6800.000000000291,
      "v": 100
    }
  ]
}