{
  "jsonPath": "Animes/Pokémon MIDI Collection/meowth-s-song-piano.json",
  "path": "Animes\\Pokémon MIDI Collection\\Meowth's Song (piano).mid",
  "name": "Meowth's Song (piano)",
  "difficulty": "Advanced",
  "bpm": 75,
  "notes": [
    {
      "midi": 45,
      "hit": false,
      "t": 3200.000000000001,
      "d": 1600,
      "v": 100
    },
    {
      "midi": 52,
      "hit": false,
      "t": 3600.000000000001,
      "d": 1200,
      "v": 100
    },
    {
      "midi": 57,
      "hit": false,
      "t": 4000.000000000001,
      "d": 800,
      "v": 100
    },
    {
      "midi": 69,
      "hit": false,
      "t": 4000.000000000001,
      "d": 2400,
      "v": 100
    },
    {
      "midi": 44,
      "hit": false,
      "t": 4800.000000000001,
      "d": 1600,
      "v": 100
    },
    {
      "midi": 52,
      "hit": false,
      "t": 5200.000000000001,
      "d": 1200,
      "v": 100
    },
    {
      "midi": 56,
      "hit": false,
      "t": 5600.000000000001,
      "d": 800,
      "v": 100
    },
    {
      "midi": 42,
      "hit": false,
      "t": 6400.000000000001,
      "d": 1600,
      "v": 100
    },
    {
      "midi": 49,
      "hit": false,
      "t": 6800.000000000001,
      "d": 1200,
      "v": 100
    },
    {
      "midi": 73,
      "hit": false,
      "t": 7200.000000000001,
      "d": 800,
      "v": 100
    },
    {
      "midi": 54,
      "hit": false,
      "t": 7200.000000000001,
      "d": 800,
      "v": 100
    },
    {
      "midi": 64,
      "hit": false,
      "t": 8000.000000000001,
      "d": 199.9999999999991,
      "v": 100
    },
    {
      "midi": 40,
      "hit": false,
      "t": 8000.000000000001,
      "d": 1599.999999999999,
      "v": 100
    },
    {
      "midi": 49,
      "hit": false,
      "t": 8400,
      "d": 1200,
      "v": 100
    },
    {
      "midi": 71,
      "hit": false,
      "t": 8800,
      "d": 800,
      "v": 100
    },
    {
      "midi": 52,
      "hit": false,
      "t": 8800,
      "d": 800,
      "v": 100
    },
    {
      "midi": 50,
      "hit": false,
      "t": 9600,
      "d": 1600,
      "v": 100
    },
    {
      "midi": 57,
      "hit": false,
      "t": 9800,
      "d": 1800,
      "v": 100
    },
    {
      "midi": 62,
      "hit": false,
      "t": 10000,
      "d": 1600,
      "v": 100
    },
    {
      "midi": 64,
      "hit": false,
      "t": 10200,
      "d": 1400,
      "v": 100
    },
    {
      "midi": 66,
      "hit": false,
      "t": 10400,
      "d": 1200,
      "v": 100
    },
    {
      "midi": 76,
      "hit": false,
      "t": 11400,
      "d": 1400,
      "v": 100
    },
    {
      "midi": 74,
      "hit": false,
      "t": 11600,
      "d": 1200,
      "v": 100
    },
    {
      "midi": 69,
      "hit": false,
      "t": 11800,
      "d": 200,
      "v": 100
    },
    {
      "midi": 66,
      "hit": false,
      "t": 12000,
      "d": 800,
      "v": 100
    },
    {
      "midi": 64,
      "hit": false,
      "t": 12200,
      "d": 600,
      "v": 100
    },
    {
      "midi": 62,
      "hit": false,
      "t": 12400,
      "d": 400,
      "v": 100
    },
    {
      "midi": 57,
      "hit": false,
      "t": 12600,
      "d": 200,
      "v": 100
    },
    {
      "midi": 52,
      "hit": false,
      "t": 13200,
      "d": 200,
      "v": 100
    },
    {
      "midi": 69,
      "hit": false,
      "t": 13200,
      "d": 200,
      "v": 100
    },
    {
      "midi": 64,
      "hit": false,
      "t": 13200,
      "d": 200,
      "v": 100
    },
    {
      "midi": 59,
      "hit": false,
      "t": 13200,
      "d": 200,
      "v": 100
    },
    {
      "midi": 52,
      "hit": false,
      "t": 13600,
      "d": 600,
      "v": 100
    },
    {
      "midi": 59,
      "hit": false,
      "t": 13600,
      "d": 600,
      "v": 100
    },
    {
      "midi": 69,
      "hit": false,
      "t": 13600,
      "d": 600,
      "v": 100
    },
    {
      "midi": 64,
      "hit": false,
      "t": 13600,
      "d": 600,
      "v": 100
    },
    {
      "midi": 52,
      "hit": false,
      "t": 14400,
      "d": 200,
      "v": 100
    },
    {
      "midi": 59,
      "hit": false,
      "t": 14400,
      "d": 200,
      "v": 100
    },
    {
      "midi": 69,
      "hit": false,
      "t": 14400,
      "d": 200,
      "v": 100
    },
    {
      "midi": 64,
      "hit": false,
      "t": 14400,
      "d": 200,
      "v": 100
    },
    {
      "midi": 69,
      "hit": false,
      "t": 14800,
      "d": 1200,
      "v": 100
    },
    {
      "midi": 59,
      "hit": false,
      "t": 14800,
      "d": 1200,
      "v": 100
    },
    {
      "midi": 64,
      "hit": false,
      "t": 14800,
      "d": 1200,
      "v": 100
    },
    {
      "midi": 52,
      "hit": false,
      "t": 14800,
      "d": 1200,
      "v": 100
    },
    {
      "midi": 45,
      "hit": false,
      "t": 16000,
      "d": 1600,
      "v": 100
    },
    {
      "midi": 64,
      "hit": false,
      "t": 16400,
      "d": 400,
      "v": 100
    },
    {
      "midi": 52,
      "hit": false,
      "t": 16400,
      "d": 1200,
      "v": 100
    },
    {
      "midi": 69,
      "hit": false,
      "t": 16800,
      "d": 400,
      "v": 100
    },
    {
      "midi": 57,
      "hit": false,
      "t": 16800,
      "d": 800,
      "v": 100
    },
    {
      "midi": 73,
      "hit": false,
      "t": 17200,
      "d": 400,
      "v": 100
    },
    {
      "midi": 76,
      "hit": false,
      "t": 17600,
      "d": 400,
      "v": 100
    },
    {
      "midi": 49,
      "hit": false,
      "t": 17600,
      "d": 1600,
      "v": 100
    },
    {
      "midi": 78,
      "hit": false,
      "t": 18000,
      "d": 200,
      "v": 100
    },
    {
      "midi": 56,
      "hit": false,
      "t": 18000,
      "d": 1200,
      "v": 100
    },
    {
      "midi": 76,
      "hit": false,
      "t": 18200,
      "d": 600,
      "v": 100
    },
    {
      "midi": 61,
      "hit": false,
      "t": 18400,
      "d": 800,
      "v": 100
    },
    {
      "midi": 73,
      "hit": false,
      "t": 18800,
      "d": 200,
      "v": 100
    },
    {
      "midi": 71,
      "hit": false,
      "t": 19000,
      "d": 200,
      "v": 100
    },
    {
      "midi": 69,
      "hit": false,
      "t": 19200,
      "d": 400,
      "v": 100
    },
    {
      "midi": 50,
      "hit": false,
      "t": 19200,
      "d": 3200,
      "v": 100
    },
    {
      "midi": 66,
      "hit": false,
      "t": 19600,
      "d": 400,
      "v": 100
    },
    {
      "midi": 57,
      "hit": false,
      "t": 19600,
      "d": 2400,
      "v": 100
    },
    {
      "midi": 69,
      "hit": false,
      "t": 20000,
      "d": 200,
      "v": 100
    },
    {
      "midi": 62,
      "hit": false,
      "t": 20000,
      "d": 1600,
      "v": 100
    },
    {
      "midi": 69,
      "hit": false,
      "t": 20200,
      "d": 200,
      "v": 100
    },
    {
      "midi": 71,
      "hit": false,
      "t": 20400,
      "d": 200,
      "v": 100
    },
    {
      "midi": 64,
      "hit": false,
      "t": 20400,
      "d": 800,
      "v": 100
    },
    {
      "midi": 71,
      "hit": false,
      "t": 20600,
      "d": 1800,
      "v": 100
    },
    {
      "midi": 66,
      "hit": false,
      "t": 20800,
      "d": 1600,
      "v": 100
    },
    {
      "midi": 64,
      "hit": false,
      "t": 21200,
      "d": 1200,
      "v": 100
    },
    {
      "midi": 62,
      "hit": false,
      "t": 21600,
      "d": 800,
      "v": 100
    },
    {
      "midi": 57,
      "hit": false,
      "t": 22000,
      "d": 400,
      "v": 100
    },
    {
      "midi": 49,
      "hit": false,
      "t": 22400,
      "d": 1600,
      "v": 100
    },
    {
      "midi": 73,
      "hit": false,
      "t": 22800,
      "d": 400,
      "v": 100
    },
    {
      "midi": 56,
      "hit": false,
      "t": 22800,
      "d": 1200,
      "v": 100
    },
    {
      "midi": 76,
      "hit": false,
      "t": 23200,
      "d": 400,
      "v": 100
    },
    {
      "midi": 61,
      "hit": false,
      "t": 23200,
      "d": 800,
      "v": 100
    },
    {
      "midi": 73,
      "hit": false,
      "t": 23600,
      "d": 400,
      "v": 100
    },
    {
      "midi": 78,
      "hit": false,
      "t": 24000,
      "d": 200,
      "v": 100
    },
    {
      "midi": 42,
      "hit": false,
      "t": 24000,
      "d": 1600,
      "v": 100
    },
    {
      "midi": 78,
      "hit": false,
      "t": 24200,
      "d": 200,
      "v": 100
    },
    {
      "midi": 76,
      "hit": false,
      "t": 24400,
      "d": 200,
      "v": 100
    },
    {
      "midi": 49,
      "hit": false,
      "t": 24400,
      "d": 1200,
      "v": 100
    },
    {
      "midi": 73,
      "hit": false,
      "t": 24600,
      "d": 600,
      "v": 100
    },
    {
      "midi": 54,
      "hit": false,
      "t": 24800,
      "d": 800,
      "v": 100
    },
    {
      "midi": 73,
      "hit": false,
      "t": 25200,
      "d": 200,
      "v": 100
    },
    {
      "midi": 71,
      "hit": false,
      "t": 25400,
      "d": 200,
      "v": 100
    },
    {
      "midi": 69,
      "hit": false,
      "t": 25600,
      "d": 400,
      "v": 100
    },
    {
      "midi": 47,
      "hit": false,
      "t": 25600,
      "d": 1600,
      "v": 100
    },
    {
      "midi": 66,
      "hit": false,
      "t": 26000,
      "d": 400,
      "v": 100
    },
    {
      "midi": 54,
      "hit": false,
      "t": 26000,
      "d": 1200,
      "v": 100
    },
    {
      "midi": 69,
      "hit": false,
      "t": 26400,
      "d": 200,
      "v": 100
    },
    {
      "midi": 59,
      "hit": false,
      "t": 26400,
      "d": 800,
      "v": 100
    },
    {
      "midi": 69,
      "hit": false,
      "t": 26600,
      "d": 200,
      "v": 100
    },
    {
      "midi": 71,
      "hit": false,
      "t": 26800,
      "d": 400,
      "v": 100
    },
    {
      "midi": 52,
      "hit": false,
      "t": 27200,
      "d": 1600,
      "v": 100
    },
    {
      "midi": 71,
      "hit": false,
      "t": 27200,
      "d": 3200,
      "v": 100
    },
    {
      "midi": 59,
      "hit": false,
      "t": 28200,
      "d": 600,
      "v": 100
    },
    {
      "midi": 64,
      "hit": false,
      "t": 28400,
      "d": 800,
      "v": 100
    },
    {
      "midi": 69,
      "hit": false,
      "t": 28600,
      "d": 800,
      "v": 100
    },
    {
      "midi": 68,
      "hit": false,
      "t": 28800,
      "d": 400,
      "v": 100
    },
    {
      "midi": 66,
      "hit": false,
      "t": 29000,
      "d": 400,
      "v": 100
    },
    {
      "midi": 64,
      "hit": false,
      "t": 29200,
      "d": 400,
      "v": 100
    },
    {
      "midi": 59,
      "hit": false,
      "t": 29400,
      "d": 400,
      "v": 100
    },
    {
      "midi": 56,
      "hit": false,
      "t": 29600,
      "d": 400,
      "v": 100
    },
    {
      "midi": 54,
      "hit": false,
      "t": 29800,
      "d": 400,
      "v": 100
    },
    {
      "midi": 52,
      "hit": false,
      "t": 30000,
      "d": 400,
      "v": 100
    },
    {
      "midi": 47,
      "hit": false,
      "t": 30200,
      "d": 200,
      "v": 100
    },
    {
      "midi": 45,
      "hit": false,
      "t": 30400,
      "d": 1600,
      "v": 100
    },
    {
      "midi": 69,
      "hit": false,
      "t": 30800,
      "d": 400,
      "v": 100
    },
    {
      "midi": 52,
      "hit": false,
      "t": 30800,
      "d": 1200,
      "v": 100
    },
    {
      "midi": 69,
      "hit": false,
      "t": 31200,
      "d": 400,
      "v": 100
    },
    {
      "midi": 57,
      "hit": false,
      "t": 31200,
      "d": 800,
      "v": 100
    },
    {
      "midi": 69,
      "hit": false,
      "t": 31600,
      "d": 400,
      "v": 100
    },
    {
      "midi": 71,
      "hit": false,
      "t": 32000,
      "d": 400,
      "v": 100
    },
    {
      "midi": 47,
      "hit": false,
      "t": 32000,
      "d": 1600,
      "v": 100
    },
    {
      "midi": 69,
      "hit": false,
      "t": 32400,
      "d": 800,
      "v": 100
    },
    {
      "midi": 54,
      "hit": false,
      "t": 32400,
      "d": 1200,
      "v": 100
    },
    {
      "midi": 59,
      "hit": false,
      "t": 32800,
      "d": 800,
      "v": 100
    },
    {
      "midi": 69,
      "hit": false,
      "t": 33200,
      "d": 400,
      "v": 100
    },
    {
      "midi": 73,
      "hit": false,
      "t": 33600,
      "d": 400,
      "v": 100
    },
    {
      "midi": 49,
      "hit": false,
      "t": 33600,
      "d": 1600,
      "v": 100
    },
    {
      "midi": 76,
      "hit": false,
      "t": 34000,
      "d": 400,
      "v": 100
    },
    {
      "midi": 56,
      "hit": false,
      "t": 34000,
      "d": 1200,
      "v": 100
    },
    {
      "midi": 73,
      "hit": false,
      "t": 34400,
      "d": 400,
      "v": 100
    },
    {
      "midi": 61,
      "hit": false,
      "t": 34400,
      "d": 800,
      "v": 100
    },
    {
      "midi": 69,
      "hit": false,
      "t": 34800,
      "d": 1200,
      "v": 100
    },
    {
      "midi": 50,
      "hit": false,
      "t": 35200,
      "d": 1600,
      "v": 100
    },
    {
      "midi": 57,
      "hit": false,
      "t": 35600,
      "d": 1200,
      "v": 100
    },
    {
      "midi": 62,
      "hit": false,
      "t": 36000,
      "d": 800,
      "v": 100
    },
    {
      "midi": 69,
      "hit": false,
      "t": 36400,
      "d": 200,
      "v": 100
    },
    {
      "midi": 69,
      "hit": false,
      "t": 36600,
      "d": 200,
      "v": 100
    },
    {
      "midi": 73,
      "hit": false,
      "t": 36800,
      "d": 200,
      "v": 100
    },
    {
      "midi": 45,
      "hit": false,
      "t": 36800,
      "d": 1600,
      "v": 100
    },
    {
      "midi": 69,
      "hit": false,
      "t": 37000,
      "d": 2600,
      "v": 100
    },
    {
      "midi": 52,
      "hit": false,
      "t": 37200,
      "d": 1200,
      "v": 100
    },
    {
      "midi": 57,
      "hit": false,
      "t": 37600,
      "d": 800,
      "v": 100
    },
    {
      "midi": 47,
      "hit": false,
      "t": 38400,
      "d": 1600,
      "v": 100
    },
    {
      "midi": 54,
      "hit": false,
      "t": 38800,
      "d": 1200,
      "v": 100
    },
    {
      "midi": 59,
      "hit": false,
      "t": 39200,
      "d": 800,
      "v": 100
    },
    {
      "midi": 69,
      "hit": false,
      "t": 39600,
      "d": 200,
      "v": 100
    },
    {
      "midi": 69,
      "hit": false,
      "t": 39800,
      "d": 200,
      "v": 100
    },
    {
      "midi": 73,
      "hit": false,
      "t": 40000,
      "d": 200,
      "v": 100
    },
    {
      "midi": 49,
      "hit": false,
      "t": 40000,
      "d": 1600,
      "v": 100
    },
    {
      "midi": 76,
      "hit": false,
      "t": 40200,
      "d": 3000,
      "v": 100
    },
    {
      "midi": 56,
      "hit": false,
      "t": 40400,
      "d": 1200,
      "v": 100
    },
    {
      "midi": 61,
      "hit": false,
      "t": 40800,
      "d": 800,
      "v": 100
    },
    {
      "midi": 50,
      "hit": false,
      "t": 41600,
      "d": 1600,
      "v": 100
    },
    {
      "midi": 57,
      "hit": false,
      "t": 42000,
      "d": 1200,
      "v": 100
    },
    {
      "midi": 62,
      "hit": false,
      "t": 42400,
      "d": 800,
      "v": 100
    },
    {
      "midi": 64,
      "hit": false,
      "t": 42800,
      "d": 400,
      "v": 100
    },
    {
      "midi": 45,
      "hit": false,
      "t": 43200,
      "d": 1600,
      "v": 100
    },
    {
      "midi": 69,
      "hit": false,
      "t": 43600,
      "d": 400,
      "v": 100
    },
    {
      "midi": 52,
      "hit": false,
      "t": 43600,
      "d": 1200,
      "v": 100
    },
    {
      "midi": 69,
      "hit": false,
      "t": 44000,
      "d": 400,
      "v": 100
    },
    {
      "midi": 57,
      "hit": false,
      "t": 44000,
      "d": 800,
      "v": 100
    },
    {
      "midi": 69,
      "hit": false,
      "t": 44400,
      "d": 400,
      "v": 100
    },
    {
      "midi": 71,
      "hit": false,
      "t": 44800,
      "d": 400,
      "v": 100
    },
    {
      "midi": 47,
      "hit": false,
      "t": 44800,
      "d": 1600,
      "v": 100
    },
    {
      "midi": 69,
      "hit": false,
      "t": 45200,
      "d": 800,
      "v": 100
    },
    {
      "midi": 54,
      "hit": false,
      "t": 45200,
      "d": 1200,
      "v": 100
    },
    {
      "midi": 59,
      "hit": false,
      "t": 45600,
      "d": 800,
      "v": 100
    },
    {
      "midi": 69,
      "hit": false,
      "t": 46000,
      "d": 200,
      "v": 100
    },
    {
      "midi": 69,
      "hit": false,
      "t": 46200,
      "d": 200,
      "v": 100
    },
    {
      "midi": 73,
      "hit": false,
      "t": 46400,
      "d": 400,
      "v": 100
    },
    {
      "midi": 49,
      "hit": false,
      "t": 46400,
      "d": 1200,
      "v": 100
    },
    {
      "midi": 76,
      "hit": false,
      "t": 46800,
      "d": 400,
      "v": 100
    },
    {
      "midi": 56,
      "hit": false,
      "t": 46800,
      "d": 800,
      "v": 100
    },
    {
      "midi": 73,
      "hit": false,
      "t": 47200,
      "d": 400,
      "v": 100
    },
    {
      "midi": 61,
      "hit": false,
      "t": 47200,
      "d": 400,
      "v": 100
    },
    {
      "midi": 78,
      "hit": false,
      "t": 47600,
      "d": 1600,
      "v": 100
    },
    {
      "midi": 62,
      "hit": false,
      "t": 47600,
      "d": 2000,
      "v": 100
    },
    {
      "midi": 50,
      "hit": false,
      "t": 47600,
      "d": 2000,
      "v": 100
    },
    {
      "midi": 57,
      "hit": false,
      "t": 47600,
      "d": 2000,
      "v": 100
    },
    {
      "midi": 81,
      "hit": false,
      "t": 49200,
      "d": 200,
      "v": 100
    },
    {
      "midi": 78,
      "hit": false,
      "t": 49400,
      "d": 200,
      "v": 100
    },
    {
      "midi": 76,
      "hit": false,
      "t": 49600,
      "d": 200,
      "v": 100
    },
    {
      "midi": 49,
      "hit": false,
      "t": 49600,
      "d": 1600,
      "v": 100
    },
    {
      "midi": 76,
      "hit": false,
      "t": 49800,
      "d": 1000,
      "v": 100
    },
    {
      "midi": 56,
      "hit": false,
      "t": 50000,
      "d": 1200,
      "v": 100
    },
    {
      "midi": 61,
      "hit": false,
      "t": 50400,
      "d": 800,
      "v": 100
    },
    {
      "midi": 76,
      "hit": false,
      "t": 50800,
      "d": 200,
      "v": 100
    },
    {
      "midi": 76,
      "hit": false,
      "t": 51000,
      "d": 200,
      "v": 100
    },
    {
      "midi": 78,
      "hit": false,
      "t": 51200,
      "d": 200,
      "v": 100
    },
    {
      "midi": 42,
      "hit": false,
      "t": 51200,
      "d": 1600,
      "v": 100
    },
    {
      "midi": 76,
      "hit": false,
      "t": 51400,
      "d": 200,
      "v": 100
    },
    {
      "midi": 78,
      "hit": false,
      "t": 51600,
      "d": 800,
      "v": 100
    },
    {
      "midi": 49,
      "hit": false,
      "t": 51600,
      "d": 1200,
      "v": 100
    },
    {
      "midi": 54,
      "hit": false,
      "t": 52000,
      "d": 800,
      "v": 100
    },
    {
      "midi": 73,
      "hit": false,
      "t": 52400,
      "d": 200,
      "v": 100
    },
    {
      "midi": 73,
      "hit": false,
      "t": 52600,
      "d": 200,
      "v": 100
    },
    {
      "midi": 73,
      "hit": false,
      "t": 52800,
      "d": 200,
      "v": 100
    },
    {
      "midi": 52,
      "hit": false,
      "t": 52800,
      "d": 1600,
      "v": 100
    },
    {
      "midi": 71,
      "hit": false,
      "t": 53000,
      "d": 200,
      "v": 100
    },
    {
      "midi": 69,
      "hit": false,
      "t": 53200,
      "d": 200,
      "v": 100
    },
    {
      "midi": 59,
      "hit": false,
      "t": 53200,
      "d": 1200,
      "v": 100
    },
    {
      "midi": 71,
      "hit": false,
      "t": 53400,
      "d": 5800,
      "v": 100
    },
    {
      "midi": 64,
      "hit": false,
      "t": 53600,
      "d": 800,
      "v": 100
    },
    {
      "midi": 69,
      "hit": false,
      "t": 54000,
      "d": 400,
      "v": 100
    },
    {
      "midi": 50,
      "hit": false,
      "t": 54400,
      "d": 1600,
      "v": 100
    },
    {
      "midi": 57,
      "hit": false,
      "t": 54800,
      "d": 1200,
      "v": 100
    },
    {
      "midi": 64,
      "hit": false,
      "t": 55200,
      "d": 800,
      "v": 100
    },
    {
      "midi": 69,
      "hit": false,
      "t": 55600,
      "d": 400,
      "v": 100
    },
    {
      "midi": 49,
      "hit": false,
      "t": 56000,
      "d": 1600,
      "v": 100
    },
    {
      "midi": 56,
      "hit": false,
      "t": 56400,
      "d": 1200,
      "v": 100
    },
    {
      "midi": 64,
      "hit": false,
      "t": 56800,
      "d": 800,
      "v": 100
    },
    {
      "midi": 68,
      "hit": false,
      "t": 57200,
      "d": 400,
      "v": 100
    },
    {
      "midi": 47,
      "hit": false,
      "t": 57600,
      "d": 800,
      "v": 100
    },
    {
      "midi": 56,
      "hit": false,
      "t": 58000,
      "d": 1200,
      "v": 100
    },
    {
      "midi": 49,
      "hit": false,
      "t": 58400,
      "d": 800,
      "v": 100
    },
    {
      "midi": 64,
      "hit": false,
      "t": 58400,
      "d": 800,
      "v": 100
    },
    {
      "midi": 68,
      "hit": false,
      "t": 58800,
      "d": 400,
      "v": 100
    },
    {
      "midi": 42,
      "hit": false,
      "t": 59200,
      "d": 800,
      "v": 100
    },
    {
      "midi": 49,
      "hit": false,
      "t": 59200,
      "d": 800,
      "v": 100
    },
    {
      "midi": 54,
      "hit": false,
      "t": 59200,
      "d": 800,
      "v": 100
    },
    {
      "midi": 73,
      "hit": false,
      "t": 60000,
      "d": 200,
      "v": 100
    },
    {
      "midi": 42,
      "hit": false,
      "t": 60000,
      "d": 800,
      "v": 100
    },
    {
      "midi": 54,
      "hit": false,
      "t": 60000,
      "d": 800,
      "v": 100
    },
    {
      "midi": 49,
      "hit": false,
      "t": 60000,
      "d": 800,
      "v": 100
    },
    {
      "midi": 69,
      "hit": false,
      "t": 60200,
      "d": 200,
      "v": 100
    },
    {
      "midi": 69,
      "hit": false,
      "t": 60400,
      "d": 200,
      "v": 100
    },
    {
      "midi": 69,
      "hit": false,
      "t": 60600,
      "d": 200,
      "v": 100
    },
    {
      "midi": 73,
      "hit": false,
      "t": 60800,
      "d": 200,
      "v": 100
    },
    {
      "midi": 54,
      "hit": false,
      "t": 60800,
      "d": 800,
      "v": 100
    },
    {
      "midi": 42,
      "hit": false,
      "t": 60800,
      "d": 800,
      "v": 100
    },
    {
      "midi": 49,
      "hit": false,
      "t": 60800,
      "d": 800,
      "v": 100
    },
    {
      "midi": 69,
      "hit": false,
      "t": 61000,
      "d": 1000,
      "v": 100
    },
    {
      "midi": 42,
      "hit": false,
      "t": 61600,
      "d": 800,
      "v": 100
    },
    {
      "midi": 49,
      "hit": false,
      "t": 61600,
      "d": 800,
      "v": 100
    },
    {
      "midi": 54,
      "hit": false,
      "t": 61600,
      "d": 800,
      "v": 100
    },
    {
      "midi": 69,
      "hit": false,
      "t": 62000,
      "d": 200,
      "v": 100
    },
    {
      "midi": 69,
      "hit": false,
      "t": 62200,
      "d": 200,
      "v": 100
    },
    {
      "midi": 71,
      "hit": false,
      "t": 62400,
      "d": 200,
      "v": 100
    },
    {
      "midi": 59,
      "hit": false,
      "t": 62400,
      "d": 800,
      "v": 100
    },
    {
      "midi": 47,
      "hit": false,
      "t": 62400,
      "d": 800,
      "v": 100
    },
    {
      "midi": 54,
      "hit": false,
      "t": 62400,
      "d": 800,
      "v": 100
    },
    {
      "midi": 69,
      "hit": false,
      "t": 62600,
      "d": 200,
      "v": 100
    },
    {
      "midi": 71,
      "hit": false,
      "t": 62800,
      "d": 2800,
      "v": 100
    },
    {
      "midi": 47,
      "hit": false,
      "t": 63200,
      "d": 800,
      "v": 100
    },
    {
      "midi": 54,
      "hit": false,
      "t": 63200,
      "d": 800,
      "v": 100
    },
    {
      "midi": 59,
      "hit": false,
      "t": 63200,
      "d": 800,
      "v": 100
    },
    {
      "midi": 47,
      "hit": false,
      "t": 64000,
      "d": 800,
      "v": 100
    },
    {
      "midi": 54,
      "hit": false,
      "t": 64000,
      "d": 800,
      "v": 100
    },
    {
      "midi": 59,
      "hit": false,
      "t": 64000,
      "d": 800,
      "v": 100
    },
    {
      "midi": 47,
      "hit": false,
      "t": 64800,
      "d": 800,
      "v": 100
    },
    {
      "midi": 59,
      "hit": false,
      "t": 64800,
      "d": 800,
      "v": 100
    },
    {
      "midi": 54,
      "hit": false,
      "t": 64800,
      "d": 800,
      "v": 100
    },
    {
      "midi": 42,
      "hit": false,
      "t": 65600,
      "d": 800,
      "v": 100
    },
    {
      "midi": 49,
      "hit": false,
      "t": 65600,
      "d": 800,
      "v": 100
    },
    {
      "midi": 54,
      "hit": false,
      "t": 65600,
      "d": 800,
      "v": 100
    },
    {
      "midi": 73,
      "hit": false,
      "t": 66400,
      "d": 400,
      "v": 100
    },
    {
      "midi": 42,
      "hit": false,
      "t": 66400,
      "d": 800,
      "v": 100
    },
    {
      "midi": 54,
      "hit": false,
      "t": 66400,
      "d": 800,
      "v": 100
    },
    {
      "midi": 49,
      "hit": false,
      "t": 66400,
      "d": 800,
      "v": 100
    },
    {
      "midi": 69,
      "hit": false,
      "t": 66800,
      "d": 400,
      "v": 100
    },
    {
      "midi": 69,
      "hit": false,
      "t": 67200,
      "d": 800,
      "v": 100
    },
    {
      "midi": 54,
      "hit": false,
      "t": 67200,
      "d": 800,
      "v": 100
    },
    {
      "midi": 49,
      "hit": false,
      "t": 67200,
      "d": 800,
      "v": 100
    },
    {
      "midi": 42,
      "hit": false,
      "t": 67200,
      "d": 800,
      "v": 100
    },
    {
      "midi": 73,
      "hit": false,
      "t": 68000,
      "d": 400,
      "v": 100
    },
    {
      "midi": 54,
      "hit": false,
      "t": 68000,
      "d": 800,
      "v": 100
    },
    {
      "midi": 42,
      "hit": false,
      "t": 68000,
      "d": 800,
      "v": 100
    },
    {
      "midi": 49,
      "hit": false,
      "t": 68000,
      "d": 800,
      "v": 100
    },
    {
      "midi": 69,
      "hit": false,
      "t": 68400,
      "d": 200,
      "v": 100
    },
    {
      "midi": 71,
      "hit": false,
      "t": 68600,
      "d": 3000,
      "v": 100
    },
    {
      "midi": 59,
      "hit": false,
      "t": 68800,
      "d": 800,
      "v": 100
    },
    {
      "midi": 54,
      "hit": false,
      "t": 68800,
      "d": 800,
      "v": 100
    },
    {
      "midi": 47,
      "hit": false,
      "t": 68800,
      "d": 800,
      "v": 100
    },
    {
      "midi": 47,
      "hit": false,
      "t": 69600,
      "d": 800,
      "v": 100
    },
    {
      "midi": 54,
      "hit": false,
      "t": 69600,
      "d": 800,
      "v": 100
    },
    {
      "midi": 59,
      "hit": false,
      "t": 69600,
      "d": 800,
      "v": 100
    },
    {
      "midi": 47,
      "hit": false,
      "t": 70400,
      "d": 800,
      "v": 100
    },
    {
      "midi": 54,
      "hit": false,
      "t": 70400,
      "d": 800,
      "v": 100
    },
    {
      "midi": 59,
      "hit": false,
      "t": 70400,
      "d": 800,
      "v": 100
    },
    {
      "midi": 47,
      "hit": false,
      "t": 71200,
      "d": 400,
      "v": 100
    },
    {
      "midi": 69,
      "hit": false,
      "t": 71600,
      "d": 200,
      "v": 100
    },
    {
      "midi": 49,
      "hit": false,
      "t": 71600,
      "d": 400,
      "v": 100
    },
    {
      "midi": 69,
      "hit": false,
      "t": 71800,
      "d": 200,
      "v": 100
    },
    {
      "midi": 78,
      "hit": false,
      "t": 72000,
      "d": 200,
      "v": 100
    },
    {
      "midi": 50,
      "hit": false,
      "t": 72000,
      "d": 1600,
      "v": 100
    },
    {
      "midi": 78,
      "hit": false,
      "t": 72200,
      "d": 1000,
      "v": 100
    },
    {
      "midi": 57,
      "hit": false,
      "t": 72400,
      "d": 1200,
      "v": 100
    },
    {
      "midi": 62,
      "hit": false,
      "t": 72800,
      "d": 800,
      "v": 100
    },
    {
      "midi": 76,
      "hit": false,
      "t": 73200,
      "d": 200,
      "v": 100
    },
    {
      "midi": 73,
      "hit": false,
      "t": 73400,
      "d": 200,
      "v": 100
    },
    {
      "midi": 69,
      "hit": false,
      "t": 73600,
      "d": 1200,
      "v": 100
    },
    {
      "midi": 49,
      "hit": false,
      "t": 73600,
      "d": 1600,
      "v": 100
    },
    {
      "midi": 57,
      "hit": false,
      "t": 74000,
      "d": 1200,
      "v": 100
    },
    {
      "midi": 61,
      "hit": false,
      "t": 74400,
      "d": 800,
      "v": 100
    },
    {
      "midi": 69,
      "hit": false,
      "t": 74800,
      "d": 200,
      "v": 100
    },
    {
      "midi": 69,
      "hit": false,
      "t": 75000,
      "d": 200,
      "v": 100
    },
    {
      "midi": 47,
      "hit": false,
      "t": 75200,
      "d": 1600,
      "v": 100
    },
    {
      "midi": 71,
      "hit": false,
      "t": 75200,
      "d": 2800,
      "v": 100
    },
    {
      "midi": 54,
      "hit": false,
      "t": 75600,
      "d": 1200,
      "v": 100
    },
    {
      "midi": 59,
      "hit": false,
      "t": 76000,
      "d": 800,
      "v": 100
    },
    {
      "midi": 45,
      "hit": false,
      "t": 76800,
      "d": 1600,
      "v": 100
    },
    {
      "midi": 52,
      "hit": false,
      "t": 77200,
      "d": 1200,
      "v": 100
    },
    {
      "midi": 57,
      "hit": false,
      "t": 77600,
      "d": 800,
      "v": 100
    },
    {
      "midi": 69,
      "hit": false,
      "t": 78000,
      "d": 400,
      "v": 100
    },
    {
      "midi": 73,
      "hit": false,
      "t": 78400,
      "d": 200,
      "v": 100
    },
    {
      "midi": 43,
      "hit": false,
      "t": 78400,
      "d": 1600,
      "v": 100
    },
    {
      "midi": 69,
      "hit": false,
      "t": 78600,
      "d": 200,
      "v": 100
    },
    {
      "midi": 50,
      "hit": false,
      "t": 78600,
      "d": 1800,
      "v": 100
    },
    {
      "midi": 55,
      "hit": false,
      "t": 78800,
      "d": 1600,
      "v": 100
    },
    {
      "midi": 57,
      "hit": false,
      "t": 79000,
      "d": 1400,
      "v": 100
    },
    {
      "midi": 59,
      "hit": false,
      "t": 79200,
      "d": 1200,
      "v": 100
    },
    {
      "midi": 62,
      "hit": false,
      "t": 79400,
      "d": 1000,
      "v": 100
    },
    {
      "midi": 67,
      "hit": false,
      "t": 79600,
      "d": 800,
      "v": 100
    },
    {
      "midi": 69,
      "hit": false,
      "t": 79800,
      "d": 200,
      "v": 100
    },
    {
      "midi": 71,
      "hit": false,
      "t": 80000,
      "d": 1600,
      "v": 100
    },
    {
      "midi": 69,
      "hit": false,
      "t": 80200,
      "d": 1400,
      "v": 100
    },
    {
      "midi": 67,
      "hit": false,
      "t": 80400,
      "d": 1200,
      "v": 100
    },
    {
      "midi": 62,
      "hit": false,
      "t": 80600,
      "d": 1000,
      "v": 100
    },
    {
      "midi": 59,
      "hit": false,
      "t": 80800,
      "d": 800,
      "v": 100
    },
    {
      "midi": 57,
      "hit": false,
      "t": 81000,
      "d": 600,
      "v": 100
    },
    {
      "midi": 55,
      "hit": false,
      "t": 81200,
      "d": 400,
      "v": 100
    },
    {
      "midi": 50,
      "hit": false,
      "t": 81400,
      "d": 200,
      "v": 100
    },
    {
      "midi": 52,
      "hit": false,
      "t": 82000,
      "d": 200,
      "v": 100
    },
    {
      "midi": 69,
      "hit": false,
      "t": 82000,
      "d": 200,
      "v": 100
    },
    {
      "midi": 64,
      "hit": false,
      "t": 82000,
      "d": 200,
      "v": 100
    },
    {
      "midi": 59,
      "hit": false,
      "t": 82000,
      "d": 200,
      "v": 100
    },
    {
      "midi": 52,
      "hit": false,
      "t": 82400,
      "d": 800,
      "v": 100
    },
    {
      "midi": 69,
      "hit": false,
      "t": 82400,
      "d": 800,
      "v": 100
    },
    {
      "midi": 64,
      "hit": false,
      "t": 82400,
      "d": 800,
      "v": 100
    },
    {
      "midi": 59,
      "hit": false,
      "t": 82400,
      "d": 800,
      "v": 100
    },
    {
      "midi": 52,
      "hit": false,
      "t": 83200,
      "d": 200,
      "v": 100
    },
    {
      "midi": 68,
      "hit": false,
      "t": 83200,
      "d": 200,
      "v": 100
    },
    {
      "midi": 64,
      "hit": false,
      "t": 83200,
      "d": 200,
      "v": 100
    },
    {
      "midi": 59,
      "hit": false,
      "t": 83200,
      "d": 200,
      "v": 100
    },
    {
      "midi": 52,
      "hit": false,
      "t": 83600,
      "d": 1200,
      "v": 100
    },
    {
      "midi": 68,
      "hit": false,
      "t": 83600,
      "d": 1200,
      "v": 100
    },
    {
      "midi": 64,
      "hit": false,
      "t": 83600,
      "d": 1200,
      "v": 100
    },
    {
      "midi": 59,
      "hit": false,
      "t": 83600,
      "d": 1200,
      "v": 100
    },
    {
      "midi": 76,
      "hit": false,
      "t": 84400,
      "d": 200,
      "v": 100
    },
    {
      "midi": 76,
      "hit": false,
      "t": 84600,
      "d": 200,
      "v": 100
    },
    {
      "midi": 78,
      "hit": false,
      "t": 84800,
      "d": 200,
      "v": 100
    },
    {
      "midi": 50,
      "hit": false,
      "t": 84800,
      "d": 1600,
      "v": 100
    },
    {
      "midi": 78,
      "hit": false,
      "t": 85000,
      "d": 1000,
      "v": 100
    },
    {
      "midi": 57,
      "hit": false,
      "t": 85200,
      "d": 1200,
      "v": 100
    },
    {
      "midi": 62,
      "hit": false,
      "t": 85600,
      "d": 800,
      "v": 100
    },
    {
      "midi": 76,
      "hit": false,
      "t": 86000,
      "d": 200,
      "v": 100
    },
    {
      "midi": 73,
      "hit": false,
      "t": 86200,
      "d": 200,
      "v": 100
    },
    {
      "midi": 69,
      "hit": false,
      "t": 86400,
      "d": 800,
      "v": 100
    },
    {
      "midi": 45,
      "hit": false,
      "t": 86400,
      "d": 1600,
      "v": 100
    },
    {
      "midi": 52,
      "hit": false,
      "t": 86800,
      "d": 1200,
      "v": 100
    },
    {
      "midi": 69,
      "hit": false,
      "t": 87200,
      "d": 200,
      "v": 100
    },
    {
      "midi": 57,
      "hit": false,
      "t": 87200,
      "d": 800,
      "v": 100
    },
    {
      "midi": 69,
      "hit": false,
      "t": 87400,
      "d": 200,
      "v": 100
    },
    {
      "midi": 66,
      "hit": false,
      "t": 87600,
      "d": 200,
      "v": 100
    },
    {
      "midi": 66,
      "hit": false,
      "t": 87800,
      "d": 200,
      "v": 100
    },
    {
      "midi": 50,
      "hit": false,
      "t": 88000,
      "d": 800,
      "v": 100
    },
    {
      "midi": 69,
      "hit": false,
      "t": 88000,
      "d": 800,
      "v": 100
    },
    {
      "midi": 57,
      "hit": false,
      "t": 88200,
      "d": 600,
      "v": 100
    },
    {
      "midi": 62,
      "hit": false,
      "t": 88400,
      "d": 400,
      "v": 100
    },
    {
      "midi": 71,
      "hit": false,
      "t": 88800,
      "d": 400,
      "v": 100
    },
    {
      "midi": 52,
      "hit": false,
      "t": 88800,
      "d": 800,
      "v": 100
    },
    {
      "midi": 59,
      "hit": false,
      "t": 89000,
      "d": 600,
      "v": 100
    },
    {
      "midi": 69,
      "hit": false,
      "t": 89200,
      "d": 400,
      "v": 100
    },
    {
      "midi": 64,
      "hit": false,
      "t": 89200,
      "d": 400,
      "v": 100
    },
    {
      "midi": 61,
      "hit": false,
      "t": 89600,
      "d": 800,
      "v": 100
    },
    {
      "midi": 66,
      "hit": false,
      "t": 89600,
      "d": 800,
      "v": 100
    },
    {
      "midi": 54,
      "hit": false,
      "t": 89600,
      "d": 800,
      "v": 100
    },
    {
      "midi": 73,
      "hit": false,
      "t": 89600,
      "d": 1200,
      "v": 100
    },
    {
      "midi": 64,
      "hit": false,
      "t": 90400,
      "d": 800,
      "v": 100
    },
    {
      "midi": 59,
      "hit": false,
      "t": 90400,
      "d": 800,
      "v": 100
    },
    {
      "midi": 52,
      "hit": false,
      "t": 90400,
      "d": 800,
      "v": 100
    },
    {
      "midi": 76,
      "hit": false,
      "t": 90800,
      "d": 200,
      "v": 100
    },
    {
      "midi": 76,
      "hit": false,
      "t": 91000,
      "d": 200,
      "v": 100
    },
    {
      "midi": 78,
      "hit": false,
      "t": 91200,
      "d": 200,
      "v": 100
    },
    {
      "midi": 50,
      "hit": false,
      "t": 91200,
      "d": 1600,
      "v": 100
    },
    {
      "midi": 78,
      "hit": false,
      "t": 91400,
      "d": 1000,
      "v": 100
    },
    {
      "midi": 57,
      "hit": false,
      "t": 91600,
      "d": 1200,
      "v": 100
    },
    {
      "midi": 62,
      "hit": false,
      "t": 92000,
      "d": 800,
      "v": 100
    },
    {
      "midi": 76,
      "hit": false,
      "t": 92400,
      "d": 200,
      "v": 100
    },
    {
      "midi": 73,
      "hit": false,
      "t": 92600,
      "d": 200,
      "v": 100
    },
    {
      "midi": 69,
      "hit": false,
      "t": 92800,
      "d": 800,
      "v": 100
    },
    {
      "midi": 45,
      "hit": false,
      "t": 92800,
      "d": 1600,
      "v": 100
    },
    {
      "midi": 52,
      "hit": false,
      "t": 93200,
      "d": 1200,
      "v": 100
    },
    {
      "midi": 69,
      "hit": false,
      "t": 93600,
      "d": 200,
      "v": 100
    },
    {
      "midi": 57,
      "hit": false,
      "t": 93600,
      "d": 800,
      "v": 100
    },
    {
      "midi": 69,
      "hit": false,
      "t": 93800,
      "d": 200,
      "v": 100
    },
    {
      "midi": 66,
      "hit": false,
      "t": 94000,
      "d": 200,
      "v": 100
    },
    {
      "midi": 66,
      "hit": false,
      "t": 94200,
      "d": 200,
      "v": 100
    },
    {
      "midi": 69,
      "hit": false,
      "t": 94400,
      "d": 800,
      "v": 100
    },
    {
      "midi": 43,
      "hit": false,
      "t": 94400,
      "d": 3200,
      "v": 100
    },
    {
      "midi": 50,
      "hit": false,
      "t": 94600,
      "d": 3000,
      "v": 100
    },
    {
      "midi": 55,
      "hit": false,
      "t": 94800,
      "d": 2800,
      "v": 100
    },
    {
      "midi": 57,
      "hit": false,
      "t": 95000,
      "d": 2600,
      "v": 100
    },
    {
      "midi": 71,
      "hit": false,
      "t": 95200,
      "d": 2000,
      "v": 100
    },
    {
      "midi": 59,
      "hit": false,
      "t": 95200,
      "d": 2400,
      "v": 100
    },
    {
      "midi": 73,
      "hit": false,
      "t": 97200,
      "d": 400,
      "v": 100
    },
    {
      "midi": 71,
      "hit": false,
      "t": 97600,
      "d": 400,
      "v": 100
    },
    {
      "midi": 45,
      "hit": false,
      "t": 97600,
      "d": 2400,
      "v": 100
    },
    {
      "midi": 69,
      "hit": false,
      "t": 98000,
      "d": 2800,
      "v": 100
    },
    {
      "midi": 52,
      "hit": false,
      "t": 98400,
      "d": 1600,
      "v": 100
    },
    {
      "midi": 57,
      "hit": false,
      "t": 99200,
      "d": 800,
      "v": 100
    },
    {
      "midi": 45,
      "hit": false,
      "t": 100000,
      "d": 200,
      "v": 100
    },
    {
      "midi": 52,
      "hit": false,
      "t": 100000,
      "d": 200,
      "v": 100
    },
    {
      "midi": 57,
      "hit": false,
      "t": 100000,
      "d": 200,
      "v": 100
    },
    {
      "midi": 50,
      "hit": false,
      "t": 100800,
      "d": 800,
      "v": 100
    },
    {
      "midi": 45,
      "hit": false,
      "t": 100800,
      "d": 800,
      "v": 100
    },
    {
      "midi": 38,
      "hit": false,
      "t": 100800,
      "d": 800,
      "v": 100
    },
    {
      "midi": 62,
      "hit": false,
      "t": 100800,
      "d": 2800,
      "v": 100
    },
    {
      "midi": 38,
      "hit": false,
      "t": 101600,
      "d": 800,
      "v": 100
    },
    {
      "midi": 45,
      "hit": false,
      "t": 101600,
      "d": 800,
      "v": 100
    },
    {
      "midi": 50,
      "hit": false,
      "t": 101600,
      "d": 800,
      "v": 100
    },
    {
      "midi": 50,
      "hit": false,
      "t": 102400,
      "d": 800,
      "v": 100
    },
    {
      "midi": 38,
      "hit": false,
      "t": 102400,
      "d": 800,
      "v": 100
    },
    {
      "midi": 45,
      "hit": false,
      "t": 102400,
      "d": 800,
      "v": 100
    },
    {
      "midi": 38,
      "hit": false,
      "t": 103200,
      "d": 800,
      "v": 100
    },
    {
      "midi": 45,
      "hit": false,
      "t": 103200,
      "d": 800,
      "v": 100
    },
    {
      "midi": 50,
      "hit": false,
      "t": 103200,
      "d": 800,
      "v": 100
    },
    {
      "midi": 69,
      "hit": false,
      "t": 103600,
      "d": 400,
      "v": 100
    },
    {
      "midi": 76,
      "hit": false,
      "t": 104000,
      "d": 400,
      "v": 100
    },
    {
      "midi": 50,
      "hit": false,
      "t": 104000,
      "d": 800,
      "v": 100
    },
    {
      "midi": 45,
      "hit": false,
      "t": 104000,
      "d": 800,
      "v": 100
    },
    {
      "midi": 38,
      "hit": false,
      "t": 104000,
      "d": 800,
      "v": 100
    },
    {
      "midi": 74,
      "hit": false,
      "t": 104400,
      "d": 400,
      "v": 100
    },
    {
      "midi": 69,
      "hit": false,
      "t": 104800,
      "d": 400,
      "v": 100
    },
    {
      "midi": 38,
      "hit": false,
      "t": 104800,
      "d": 800,
      "v": 100
    },
    {
      "midi": 45,
      "hit": false,
      "t": 104800,
      "d": 800,
      "v": 100
    },
    {
      "midi": 50,
      "hit": false,
      "t": 104800,
      "d": 800,
      "v": 100
    },
    {
      "midi": 66,
      "hit": false,
      "t": 105200,
      "d": 800,
      "v": 100
    },
    {
      "midi": 45,
      "hit": false,
      "t": 105600,
      "d": 800,
      "v": 100
    },
    {
      "midi": 50,
      "hit": false,
      "t": 105600,
      "d": 800,
      "v": 100
    },
    {
      "midi": 38,
      "hit": false,
      "t": 105600,
      "d": 800,
      "v": 100
    },
    {
      "midi": 64,
      "hit": false,
      "t": 106000,
      "d": 400,
      "v": 100
    },
    {
      "midi": 62,
      "hit": false,
      "t": 106400,
      "d": 400,
      "v": 100
    },
    {
      "midi": 50,
      "hit": false,
      "t": 106400,
      "d": 800,
      "v": 100
    },
    {
      "midi": 45,
      "hit": false,
      "t": 106400,
      "d": 800,
      "v": 100
    },
    {
      "midi": 38,
      "hit": false,
      "t": 106400,
      "d": 800,
      "v": 100
    },
    {
      "midi": 57,
      "hit": false,
      "t": 106800,
      "d": 400,
      "v": 100
    },
    {
      "midi": 36,
      "hit": false,
      "t": 107200,
      "d": 800,
      "v": 100
    },
    {
      "midi": 48,
      "hit": false,
      "t": 107200,
      "d": 800,
      "v": 100
    },
    {
      "midi": 43,
      "hit": false,
      "t": 107200,
      "d": 800,
      "v": 100
    },
    {
      "midi": 60,
      "hit": false,
      "t": 107200,
      "d": 2200,
      "v": 100
    },
    {
      "midi": 67,
      "hit": false,
      "t": 107200,
      "d": 2200,
      "v": 100
    },
    {
      "midi": 72,
      "hit": false,
      "t": 107200,
      "d": 2200,
      "v": 100
    },
    {
      "midi": 43,
      "hit": false,
      "t": 108000,
      "d": 800,
      "v": 100
    },
    {
      "midi": 36,
      "hit": false,
      "t": 108000,
      "d": 800,
      "v": 100
    },
    {
      "midi": 48,
      "hit": false,
      "t": 108000,
      "d": 800,
      "v": 100
    },
    {
      "midi": 48,
      "hit": false,
      "t": 108800,
      "d": 800,
      "v": 100
    },
    {
      "midi": 43,
      "hit": false,
      "t": 108800,
      "d": 800,
      "v": 100
    },
    {
      "midi": 36,
      "hit": false,
      "t": 108800,
      "d": 800,
      "v": 100
    },
    {
      "midi": 79,
      "hit": false,
      "t": 109400,
      "d": 200,
      "v": 100
    },
    {
      "midi": 84,
      "hit": false,
      "t": 109600,
      "d": 200,
      "v": 100
    },
    {
      "midi": 48,
      "hit": false,
      "t": 109600,
      "d": 800,
      "v": 100
    },
    {
      "midi": 43,
      "hit": false,
      "t": 109600,
      "d": 800,
      "v": 100
    },
    {
      "midi": 36,
      "hit": false,
      "t": 109600,
      "d": 800,
      "v": 100
    },
    {
      "midi": 79,
      "hit": false,
      "t": 109800,
      "d": 200,
      "v": 100
    },
    {
      "midi": 84,
      "hit": false,
      "t": 110000,
      "d": 200,
      "v": 100
    },
    {
      "midi": 86,
      "hit": false,
      "t": 110200,
      "d": 200,
      "v": 100
    },
    {
      "midi": 88,
      "hit": false,
      "t": 110400,
      "d": 200,
      "v": 100
    },
    {
      "midi": 36,
      "hit": false,
      "t": 110400,
      "d": 800,
      "v": 100
    },
    {
      "midi": 43,
      "hit": false,
      "t": 110400,
      "d": 800,
      "v": 100
    },
    {
      "midi": 48,
      "hit": false,
      "t": 110400,
      "d": 800,
      "v": 100
    },
    {
      "midi": 86,
      "hit": false,
      "t": 110600,
      "d": 200,
      "v": 100
    },
    {
      "midi": 84,
      "hit": false,
      "t": 110800,
      "d": 200,
      "v": 100
    },
    {
      "midi": 79,
      "hit": false,
      "t": 111000,
      "d": 200,
      "v": 100
    },
    {
      "midi": 76,
      "hit": false,
      "t": 111200,
      "d": 200,
      "v": 100
    },
    {
      "midi": 43,
      "hit": false,
      "t": 111200,
      "d": 800,
      "v": 100
    },
    {
      "midi": 48,
      "hit": false,
      "t": 111200,
      "d": 800,
      "v": 100
    },
    {
      "midi": 36,
      "hit": false,
      "t": 111200,
      "d": 800,
      "v": 100
    },
    {
      "midi": 74,
      "hit": false,
      "t": 111400,
      "d": 200,
      "v": 100
    },
    {
      "midi": 72,
      "hit": false,
      "t": 111600,
      "d": 200,
      "v": 100
    },
    {
      "midi": 67,
      "hit": false,
      "t": 111800,
      "d": 200,
      "v": 100
    },
    {
      "midi": 64,
      "hit": false,
      "t": 112000,
      "d": 200,
      "v": 100
    },
    {
      "midi": 36,
      "hit": false,
      "t": 112000,
      "d": 800,
      "v": 100
    },
    {
      "midi": 48,
      "hit": false,
      "t": 112000,
      "d": 800,
      "v": 100
    },
    {
      "midi": 43,
      "hit": false,
      "t": 112000,
      "d": 800,
      "v": 100
    },
    {
      "midi": 62,
      "hit": false,
      "t": 112200,
      "d": 200,
      "v": 100
    },
    {
      "midi": 60,
      "hit": false,
      "t": 112400,
      "d": 200,
      "v": 100
    },
    {
      "midi": 55,
      "hit": false,
      "t": 112600,
      "d": 400,
      "v": 100
    },
    {
      "midi": 48,
      "hit": false,
      "t": 112800,
      "d": 800,
      "v": 100
    },
    {
      "midi": 43,
      "hit": false,
      "t": 112800,
      "d": 800,
      "v": 100
    },
    {
      "midi": 36,
      "hit": false,
      "t": 112800,
      "d": 800,
      "v": 100
    },
    {
      "midi": 60,
      "hit": false,
      "t": 113000,
      "d": 200,
      "v": 100
    },
    {
      "midi": 62,
      "hit": false,
      "t": 113200,
      "d": 200,
      "v": 100
    },
    {
      "midi": 64,
      "hit": false,
      "t": 113400,
      "d": 200,
      "v": 100
    },
    {
      "midi": 34,
      "hit": false,
      "t": 113600,
      "d": 800,
      "v": 100
    },
    {
      "midi": 46,
      "hit": false,
      "t": 113600,
      "d": 800,
      "v": 100
    },
    {
      "midi": 41,
      "hit": false,
      "t": 113600,
      "d": 800,
      "v": 100
    },
    {
      "midi": 62,
      "hit": false,
      "t": 113600,
      "d": 1200,
      "v": 100
    },
    {
      "midi": 65,
      "hit": false,
      "t": 113600,
      "d": 1200,
      "v": 100
    },
    {
      "midi": 58,
      "hit": false,
      "t": 113600,
      "d": 1200,
      "v": 100
    },
    {
      "midi": 34,
      "hit": false,
      "t": 114400,
      "d": 800,
      "v": 100
    },
    {
      "midi": 46,
      "hit": false,
      "t": 114400,
      "d": 800,
      "v": 100
    },
    {
      "midi": 41,
      "hit": false,
      "t": 114400,
      "d": 800,
      "v": 100
    },
    {
      "midi": 70,
      "hit": false,
      "t": 114800,
      "d": 800,
      "v": 100
    },
    {
      "midi": 46,
      "hit": false,
      "t": 115200,
      "d": 800,
      "v": 100
    },
    {
      "midi": 41,
      "hit": false,
      "t": 115200,
      "d": 800,
      "v": 100
    },
    {
      "midi": 34,
      "hit": false,
      "t": 115200,
      "d": 800,
      "v": 100
    },
    {
      "midi": 65,
      "hit": false,
      "t": 115600,
      "d": 400,
      "v": 100
    },
    {
      "midi": 70,
      "hit": false,
      "t": 116000,
      "d": 400,
      "v": 100
    },
    {
      "midi": 41,
      "hit": false,
      "t": 116000,
      "d": 400,
      "v": 100
    },
    {
      "midi": 34,
      "hit": false,
      "t": 116000,
      "d": 400,
      "v": 100
    },
    {
      "midi": 46,
      "hit": false,
      "t": 116000,
      "d": 400,
      "v": 100
    },
    {
      "midi": 72,
      "hit": false,
      "t": 116400,
      "d": 400,
      "v": 100
    },
    {
      "midi": 53,
      "hit": false,
      "t": 116400,
      "d": 400,
      "v": 100
    },
    {
      "midi": 74,
      "hit": false,
      "t": 116800,
      "d": 400,
      "v": 100
    },
    {
      "midi": 46,
      "hit": false,
      "t": 116800,
      "d": 800,
      "v": 100
    },
    {
      "midi": 58,
      "hit": false,
      "t": 116800,
      "d": 800,
      "v": 100
    },
    {
      "midi": 53,
      "hit": false,
      "t": 116800,
      "d": 800,
      "v": 100
    },
    {
      "midi": 72,
      "hit": false,
      "t": 117200,
      "d": 400,
      "v": 100
    },
    {
      "midi": 70,
      "hit": false,
      "t": 117600,
      "d": 400,
      "v": 100
    },
    {
      "midi": 58,
      "hit": false,
      "t": 117600,
      "d": 800,
      "v": 100
    },
    {
      "midi": 53,
      "hit": false,
      "t": 117600,
      "d": 800,
      "v": 100
    },
    {
      "midi": 46,
      "hit": false,
      "t": 117600,
      "d": 800,
      "v": 100
    },
    {
      "midi": 65,
      "hit": false,
      "t": 118000,
      "d": 400,
      "v": 100
    },
    {
      "midi": 62,
      "hit": false,
      "t": 118400,
      "d": 400,
      "v": 100
    },
    {
      "midi": 58,
      "hit": false,
      "t": 118400,
      "d": 800,
      "v": 100
    },
    {
      "midi": 53,
      "hit": false,
      "t": 118400,
      "d": 800,
      "v": 100
    },
    {
      "midi": 46,
      "hit": false,
      "t": 118400,
      "d": 800,
      "v": 100
    },
    {
      "midi": 65,
      "hit": false,
      "t": 118800,
      "d": 400,
      "v": 100
    },
    {
      "midi": 68,
      "hit": false,
      "t": 119200,
      "d": 400,
      "v": 100
    },
    {
      "midi": 58,
      "hit": false,
      "t": 119200,
      "d": 800,
      "v": 100
    },
    {
      "midi": 53,
      "hit": false,
      "t": 119200,
      "d": 800,
      "v": 100
    },
    {
      "midi": 46,
      "hit": false,
      "t": 119200,
      "d": 800,
      "v": 100
    },
    {
      "midi": 70,
      "hit": false,
      "t": 119600,
      "d": 400,
      "v": 100
    },
    {
      "midi": 44,
      "hit": false,
      "t": 120000,
      "d": 800,
      "v": 100
    },
    {
      "midi": 56,
      "hit": false,
      "t": 120000,
      "d": 800,
      "v": 100
    },
    {
      "midi": 51,
      "hit": false,
      "t": 120000,
      "d": 800,
      "v": 100
    },
    {
      "midi": 60,
      "hit": false,
      "t": 120000,
      "d": 2800,
      "v": 100
    },
    {
      "midi": 63,
      "hit": false,
      "t": 120000,
      "d": 2800,
      "v": 100
    },
    {
      "midi": 68,
      "hit": false,
      "t": 120000,
      "d": 2800,
      "v": 100
    },
    {
      "midi": 44,
      "hit": false,
      "t": 120800,
      "d": 800,
      "v": 100
    },
    {
      "midi": 51,
      "hit": false,
      "t": 120800,
      "d": 800,
      "v": 100
    },
    {
      "midi": 56,
      "hit": false,
      "t": 120800,
      "d": 800,
      "v": 100
    },
    {
      "midi": 44,
      "hit": false,
      "t": 121600,
      "d": 800,
      "v": 100
    },
    {
      "midi": 51,
      "hit": false,
      "t": 121600,
      "d": 800,
      "v": 100
    },
    {
      "midi": 56,
      "hit": false,
      "t": 121600,
      "d": 800,
      "v": 100
    },
    {
      "midi": 51,
      "hit": false,
      "t": 122400,
      "d": 800.0000000000146,
      "v": 100
    },
    {
      "midi": 44,
      "hit": false,
      "t": 122400,
      "d": 800.0000000000146,
      "v": 100
    },
    {
      "midi": 56,
      "hit": false,
      "t": 122400,
      "d": 800.0000000000146,
      "v": 100
    },
    {
      "midi": 80,
      "hit": false,
      "t": 123000,
      "d": 3400.0000000000146,
      "v": 100
    },
    {
      "midi": 84,
      "hit": false,
      "t": 123066.66666666667,
      "d": 3333.333333333343,
      "v": 100
    },
    {
      "midi": 87,
      "hit": false,
      "t": 123133.33333333334,
      "d": 3266.6666666666715,
      "v": 100
    },
    {
      "midi": 44,
      "hit": false,
      "t": 123200.00000000001,
      "d": 800,
      "v": 100
    },
    {
      "midi": 56,
      "hit": false,
      "t": 123200.00000000001,
      "d": 800,
      "v": 100
    },
    {
      "midi": 51,
      "hit": false,
      "t": 123200.00000000001,
      "d": 800,
      "v": 100
    },
    {
      "midi": 44,
      "hit": false,
      "t": 124000.00000000001,
      "d": 800,
      "v": 100
    },
    {
      "midi": 56,
      "hit": false,
      "t": 124000.00000000001,
      "d": 800,
      "v": 100
    },
    {
      "midi": 51,
      "hit": false,
      "t": 124000.00000000001,
      "d": 800,
      "v": 100
    },
    {
      "midi": 56,
      "hit": false,
      "t": 124800.00000000001,
      "d": 800,
      "v": 100
    },
    {
      "midi": 51,
      "hit": false,
      "t": 124800.00000000001,
      "d": 800,
      "v": 100
    },
    {
      "midi": 44,
      "hit": false,
      "t": 124800.00000000001,
      "d": 800,
      "v": 100
    },
    {
      "midi": 56,
      "hit": false,
      "t": 125600.00000000001,
      "d": 800,
      "v": 100
    },
    {
      "midi": 51,
      "hit": false,
      "t": 125600.00000000001,
      "d": 800,
      "v": 100
    },
    {
      "midi": 44,
      "hit": false,
      "t": 125600.00000000001,
      "d": 800,
      "v": 100
    },
    {
      "midi": 45,
      "hit": false,
      "t": 126400.00000000001,
      "d": 800,
      "v": 100
    },
    {
      "midi": 52,
      "hit": false,
      "t": 126400.00000000001,
      "d": 800,
      "v": 100
    },
    {
      "midi": 57,
      "hit": false,
      "t": 126400.00000000001,
      "d": 800,
      "v": 100
    },
    {
      "midi": 45,
      "hit": false,
      "t": 127200.00000000001,
      "d": 800,
      "v": 100
    },
    {
      "midi": 52,
      "hit": false,
      "t": 127200.00000000001,
      "d": 800,
      "v": 100
    },
    {
      "midi": 57,
      "hit": false,
      "t": 127200.00000000001,
      "d": 800,
      "v": 100
    },
    {
      "midi": 81,
      "hit": false,
      "t": 127200.00000000001,
      "d": 1600,
      "v": 100
    },
    {
      "midi": 44,
      "hit": false,
      "t": 128000.00000000001,
      "d": 800,
      "v": 100
    },
    {
      "midi": 52,
      "hit": false,
      "t": 128000.00000000001,
      "d": 800,
      "v": 100
    },
    {
      "midi": 56,
      "hit": false,
      "t": 128000.00000000001,
      "d": 800,
      "v": 100
    },
    {
      "midi": 56,
      "hit": false,
      "t": 128800.00000000001,
      "d": 800,
      "v": 100
    },
    {
      "midi": 44,
      "hit": false,
      "t": 128800.00000000001,
      "d": 800,
      "v": 100
    },
    {
      "midi": 52,
      "hit": false,
      "t": 128800.00000000001,
      "d": 800,
      "v": 100
    },
    {
      "midi": 76,
      "hit": false,
      "t": 128800.00000000001,
      "d": 1600,
      "v": 100
    },
    {
      "midi": 42,
      "hit": false,
      "t": 129600.00000000001,
      "d": 800,
      "v": 100
    },
    {
      "midi": 54,
      "hit": false,
      "t": 129600.00000000001,
      "d": 800,
      "v": 100
    },
    {
      "midi": 49,
      "hit": false,
      "t": 129600.00000000001,
      "d": 800,
      "v": 100
    },
    {
      "midi": 85,
      "hit": false,
      "t": 130400.00000000001,
      "d": 799.9999999999854,
      "v": 100
    },
    {
      "midi": 49,
      "hit": false,
      "t": 130400.00000000001,
      "d": 799.9999999999854,
      "v": 100
    },
    {
      "midi": 54,
      "hit": false,
      "t": 130400.00000000001,
      "d": 799.9999999999854,
      "v": 100
    },
    {
      "midi": 42,
      "hit": false,
      "t": 130400.00000000001,
      "d": 799.9999999999854,
      "v": 100
    },
    {
      "midi": 76,
      "hit": false,
      "t": 131200,
      "d": 800,
      "v": 100
    },
    {
      "midi": 49,
      "hit": false,
      "t": 131200,
      "d": 800,
      "v": 100
    },
    {
      "midi": 52,
      "hit": false,
      "t": 131200,
      "d": 800,
      "v": 100
    },
    {
      "midi": 40,
      "hit": false,
      "t": 131200,
      "d": 800,
      "v": 100
    },
    {
      "midi": 83,
      "hit": false,
      "t": 132000,
      "d": 800,
      "v": 100
    },
    {
      "midi": 49,
      "hit": false,
      "t": 132000,
      "d": 800,
      "v": 100
    },
    {
      "midi": 52,
      "hit": false,
      "t": 132000,
      "d": 800,
      "v": 100
    },
    {
      "midi": 40,
      "hit": false,
      "t": 132000,
      "d": 800,
      "v": 100
    },
    {
      "midi": 38,
      "hit": false,
      "t": 132800,
      "d": 800,
      "v": 100
    },
    {
      "midi": 45,
      "hit": false,
      "t": 133200,
      "d": 400,
      "v": 100
    },
    {
      "midi": 50,
      "hit": false,
      "t": 133600,
      "d": 400,
      "v": 100
    },
    {
      "midi": 81,
      "hit": false,
      "t": 133600,
      "d": 800,
      "v": 100
    },
    {
      "midi": 52,
      "hit": false,
      "t": 134000,
      "d": 400,
      "v": 100
    },
    {
      "midi": 54,
      "hit": false,
      "t": 134400,
      "d": 400,
      "v": 100
    },
    {
      "midi": 80,
      "hit": false,
      "t": 134400,
      "d": 800,
      "v": 100
    },
    {
      "midi": 57,
      "hit": false,
      "t": 134800,
      "d": 400,
      "v": 100
    },
    {
      "midi": 62,
      "hit": false,
      "t": 135200,
      "d": 400,
      "v": 100
    },
    {
      "midi": 81,
      "hit": false,
      "t": 135200,
      "d": 800,
      "v": 100
    },
    {
      "midi": 66,
      "hit": false,
      "t": 135600,
      "d": 400,
      "v": 100
    },
    {
      "midi": 40,
      "hit": false,
      "t": 136000,
      "d": 1655.541266666667,
      "v": 100
    },
    {
      "midi": 76,
      "hit": false,
      "t": 136000,
      "d": 1655.541266666667,
      "v": 100
    },
    {
      "midi": 47,
      "hit": false,
      "t": 136000,
      "d": 2641.634083333367,
      "v": 100
    },
    {
      "midi": 52,
      "hit": false,
      "t": 136000,
      "d": 2641.634083333367,
      "v": 100
    },
    {
      "midi": 59,
      "hit": false,
      "t": 137003.45308333333,
      "d": 210.3006166666746,
      "v": 100
    },
    {
      "midi": 64,
      "hit": false,
      "t": 137213.7537,
      "d": 217.20861666667042,
      "v": 100
    },
    {
      "midi": 69,
      "hit": false,
      "t": 137430.96231666667,
      "d": 224.57894999999553,
      "v": 100
    },
    {
      "midi": 68,
      "hit": false,
      "t": 137655.54126666667,
      "d": 232.707233333349,
      "v": 100
    },
    {
      "midi": 88,
      "hit": false,
      "t": 137655.54126666667,
      "d": 2145.0080166666885,
      "v": 100
    },
    {
      "midi": 66,
      "hit": false,
      "t": 137888.24850000002,
      "d": 241.4486666666926,
      "v": 100
    },
    {
      "midi": 64,
      "hit": false,
      "t": 138129.6971666667,
      "d": 250.87525000001187,
      "v": 100
    },
    {
      "midi": 59,
      "hit": false,
      "t": 138380.57241666672,
      "d": 261.0616666666465,
      "v": 100
    },
    {
      "midi": 56,
      "hit": false,
      "t": 138641.63408333337,
      "d": 272.11401666665915,
      "v": 100
    },
    {
      "midi": 54,
      "hit": false,
      "t": 138913.74810000003,
      "d": 283.784799999994,
      "v": 100
    },
    {
      "midi": 52,
      "hit": false,
      "t": 139197.53290000002,
      "d": 296.8938833333377,
      "v": 100
    },
    {
      "midi": 47,
      "hit": false,
      "t": 139494.42678333336,
      "d": 306.1224999999977,
      "v": 100
    },
    {
      "midi": 33,
      "hit": false,
      "t": 139800.54928333336,
      "d": 4897.959999999992,
      "v": 100
    },
    {
      "midi": 57,
      "hit": false,
      "t": 139800.54928333336,
      "d": 4897.959999999992,
      "v": 100
    },
    {
      "midi": 64,
      "hit": false,
      "t": 139902.5901166667,
      "d": 4795.919166666659,
      "v": 100
    },
    {
      "midi": 69,
      "hit": false,
      "t": 140004.63095000002,
      "d": 4693.878333333327,
      "v": 100
    }
  ]
}