{
  "jsonPath": "Animes/Pokémon MIDI Collection/o-yasumi-boku-no-pikachu.json",
  "path": "Animes\\Pokémon MIDI Collection\\O Yasumi Boku No Pikachu.mid",
  "name": "O Yasumi Boku No Pikachu",
  "difficulty": "Advanced",
  "bpm": 120,
  "notes": [
    {
      "midi": 74,
      "hit": false,
      "t": 0,
      "d": 250,
      "v": 64
    },
    {
      "midi": 69,
      "hit": false,
      "t": 0,
      "d": 250,
      "v": 64
    },
    {
      "midi": 78,
      "hit": false,
      "t": 0,
      "d": 250,
      "v": 64
    },
    {
      "midi": 74,
      "hit": false,
      "t": 750,
      "d": 250,
      "v": 64
    },
    {
      "midi": 71,
      "hit": false,
      "t": 750,
      "d": 250,
      "v": 64
    },
    {
      "midi": 79,
      "hit": false,
      "t": 750,
      "d": 250,
      "v": 64
    },
    {
      "midi": 74,
      "hit": false,
      "t": 2000,
      "d": 250,
      "v": 64
    },
    {
      "midi": 70,
      "hit": false,
      "t": 2000,
      "d": 250,
      "v": 64
    },
    {
      "midi": 76,
      "hit": false,
      "t": 2000,
      "d": 250,
      "v": 64
    },
    {
      "midi": 74,
      "hit": false,
      "t": 2250,
      "d": 250,
      "v": 64
    },
    {
      "midi": 76,
      "hit": false,
      "t": 2500,
      "d": 250,
      "v": 64
    },
    {
      "midi": 74,
      "hit": false,
      "t": 2750,
      "d": 250,
      "v": 64
    },
    {
      "midi": 69,
      "hit": false,
      "t": 2750,
      "d": 250,
      "v": 64
    },
    {
      "midi": 78,
      "hit": false,
      "t": 2750,
      "d": 250,
      "v": 64
    },
    {
      "midi": 71,
      "hit": false,
      "t": 4000,
      "d": 250,
      "v": 64
    },
    {
      "midi": 69,
      "hit": false,
      "t": 4000,
      "d": 250,
      "v": 64
    },
    {
      "midi": 74,
      "hit": false,
      "t": 4000,
      "d": 250,
      "v": 64
    },
    {
      "midi": 76,
      "hit": false,
      "t": 4750,
      "d": 250,
      "v": 64
    },
    {
      "midi": 67,
      "hit": false,
      "t": 4750,
      "d": 250,
      "v": 64
    },
    {
      "midi": 69,
      "hit": false,
      "t": 6000,
      "d": 250,
      "v": 64
    },
    {
      "midi": 67,
      "hit": false,
      "t": 6000,
      "d": 250,
      "v": 64
    },
    {
      "midi": 73,
      "hit": false,
      "t": 6000,
      "d": 250,
      "v": 64
    },
    {
      "midi": 71,
      "hit": false,
      "t": 6250,
      "d": 250,
      "v": 64
    },
    {
      "midi": 73,
      "hit": false,
      "t": 6500,
      "d": 250,
      "v": 64
    },
    {
      "midi": 71,
      "hit": false,
      "t": 6750,
      "d": 250,
      "v": 64
    },
    {
      "midi": 66,
      "hit": false,
      "t": 6750,
      "d": 250,
      "v": 64
    },
    {
      "midi": 74,
      "hit": false,
      "t": 6750,
      "d": 250,
      "v": 64
    },
    {
      "midi": 74,
      "hit": false,
      "t": 8000,
      "d": 250,
      "v": 64
    },
    {
      "midi": 69,
      "hit": false,
      "t": 8000,
      "d": 250,
      "v": 64
    },
    {
      "midi": 78,
      "hit": false,
      "t": 8000,
      "d": 250,
      "v": 64
    },
    {
      "midi": 74,
      "hit": false,
      "t": 8750,
      "d": 250,
      "v": 64
    },
    {
      "midi": 71,
      "hit": false,
      "t": 8750,
      "d": 250,
      "v": 64
    },
    {
      "midi": 79,
      "hit": false,
      "t": 8750,
      "d": 250,
      "v": 64
    },
    {
      "midi": 74,
      "hit": false,
      "t": 10000,
      "d": 250,
      "v": 64
    },
    {
      "midi": 70,
      "hit": false,
      "t": 10000,
      "d": 250,
      "v": 64
    },
    {
      "midi": 76,
      "hit": false,
      "t": 10000,
      "d": 250,
      "v": 64
    },
    {
      "midi": 74,
      "hit": false,
      "t": 10250,
      "d": 250,
      "v": 64
    },
    {
      "midi": 76,
      "hit": false,
      "t": 10500,
      "d": 250,
      "v": 64
    },
    {
      "midi": 74,
      "hit": false,
      "t": 10750,
      "d": 250,
      "v": 64
    },
    {
      "midi": 69,
      "hit": false,
      "t": 10750,
      "d": 250,
      "v": 64
    },
    {
      "midi": 78,
      "hit": false,
      "t": 10750,
      "d": 250,
      "v": 64
    },
    {
      "midi": 71,
      "hit": false,
      "t": 12000,
      "d": 250,
      "v": 64
    },
    {
      "midi": 74,
      "hit": false,
      "t": 12000,
      "d": 250,
      "v": 64
    },
    {
      "midi": 69,
      "hit": false,
      "t": 12000,
      "d": 250,
      "v": 64
    },
    {
      "midi": 76,
      "hit": false,
      "t": 12750,
      "d": 250,
      "v": 64
    },
    {
      "midi": 67,
      "hit": false,
      "t": 12750,
      "d": 250,
      "v": 64
    },
    {
      "midi": 69,
      "hit": false,
      "t": 14000,
      "d": 250,
      "v": 64
    },
    {
      "midi": 57,
      "hit": false,
      "t": 14750,
      "d": 250,
      "v": 64
    },
    {
      "midi": 64,
      "hit": false,
      "t": 15000,
      "d": 250,
      "v": 64
    },
    {
      "midi": 67,
      "hit": false,
      "t": 15250,
      "d": 250,
      "v": 64
    },
    {
      "midi": 71,
      "hit": false,
      "t": 15500,
      "d": 250,
      "v": 64
    },
    {
      "midi": 76,
      "hit": false,
      "t": 15750,
      "d": 250,
      "v": 64
    },
    {
      "midi": 81,
      "hit": false,
      "t": 16000,
      "d": 250,
      "v": 64
    },
    {
      "midi": 79,
      "hit": false,
      "t": 17000,
      "d": 250,
      "v": 64
    },
    {
      "midi": 74,
      "hit": false,
      "t": 17500,
      "d": 250,
      "v": 64
    },
    {
      "midi": 76,
      "hit": false,
      "t": 17750,
      "d": 250,
      "v": 64
    },
    {
      "midi": 74,
      "hit": false,
      "t": 18000,
      "d": 250,
      "v": 64
    },
    {
      "midi": 78,
      "hit": false,
      "t": 18000,
      "d": 250,
      "v": 64
    },
    {
      "midi": 78,
      "hit": false,
      "t": 18250,
      "d": 250,
      "v": 64
    },
    {
      "midi": 74,
      "hit": false,
      "t": 19500,
      "d": 250,
      "v": 64
    },
    {
      "midi": 76,
      "hit": false,
      "t": 19750,
      "d": 250,
      "v": 64
    },
    {
      "midi": 76,
      "hit": false,
      "t": 20000,
      "d": 250,
      "v": 64
    },
    {
      "midi": 78,
      "hit": false,
      "t": 20000,
      "d": 250,
      "v": 64
    },
    {
      "midi": 78,
      "hit": false,
      "t": 20250,
      "d": 250,
      "v": 64
    },
    {
      "midi": 76,
      "hit": false,
      "t": 20500,
      "d": 250,
      "v": 64
    },
    {
      "midi": 74,
      "hit": false,
      "t": 20750,
      "d": 250,
      "v": 64
    },
    {
      "midi": 69,
      "hit": false,
      "t": 21000,
      "d": 250,
      "v": 64
    },
    {
      "midi": 67,
      "hit": false,
      "t": 21000,
      "d": 250,
      "v": 64
    },
    {
      "midi": 71,
      "hit": false,
      "t": 21000,
      "d": 250,
      "v": 64
    },
    {
      "midi": 71,
      "hit": false,
      "t": 21500,
      "d": 250,
      "v": 64
    },
    {
      "midi": 74,
      "hit": false,
      "t": 21750,
      "d": 250,
      "v": 64
    },
    {
      "midi": 74,
      "hit": false,
      "t": 22000,
      "d": 250,
      "v": 64
    },
    {
      "midi": 71,
      "hit": false,
      "t": 22000,
      "d": 250,
      "v": 64
    },
    {
      "midi": 69,
      "hit": false,
      "t": 22250,
      "d": 250,
      "v": 64
    },
    {
      "midi": 74,
      "hit": false,
      "t": 22750,
      "d": 250,
      "v": 64
    },
    {
      "midi": 61,
      "hit": false,
      "t": 22750,
      "d": 250,
      "v": 64
    },
    {
      "midi": 69,
      "hit": false,
      "t": 22750,
      "d": 250,
      "v": 64
    },
    {
      "midi": 74,
      "hit": false,
      "t": 24000,
      "d": 250,
      "v": 64
    },
    {
      "midi": 59,
      "hit": false,
      "t": 24000,
      "d": 250,
      "v": 64
    },
    {
      "midi": 67,
      "hit": false,
      "t": 24000,
      "d": 250,
      "v": 64
    },
    {
      "midi": 74,
      "hit": false,
      "t": 24750,
      "d": 250,
      "v": 64
    },
    {
      "midi": 64,
      "hit": false,
      "t": 24750,
      "d": 250,
      "v": 64
    },
    {
      "midi": 58,
      "hit": false,
      "t": 24750,
      "d": 250,
      "v": 64
    },
    {
      "midi": 74,
      "hit": false,
      "t": 25500,
      "d": 250,
      "v": 64
    },
    {
      "midi": 76,
      "hit": false,
      "t": 25750,
      "d": 250,
      "v": 64
    },
    {
      "midi": 74,
      "hit": false,
      "t": 26000,
      "d": 250,
      "v": 64
    },
    {
      "midi": 78,
      "hit": false,
      "t": 26000,
      "d": 250,
      "v": 64
    },
    {
      "midi": 74,
      "hit": false,
      "t": 27500,
      "d": 250,
      "v": 64
    },
    {
      "midi": 76,
      "hit": false,
      "t": 27750,
      "d": 250,
      "v": 64
    },
    {
      "midi": 76,
      "hit": false,
      "t": 28000,
      "d": 250,
      "v": 64
    },
    {
      "midi": 67,
      "hit": false,
      "t": 28000,
      "d": 250,
      "v": 64
    },
    {
      "midi": 78,
      "hit": false,
      "t": 28000,
      "d": 250,
      "v": 64
    },
    {
      "midi": 76,
      "hit": false,
      "t": 28750,
      "d": 250,
      "v": 64
    },
    {
      "midi": 69,
      "hit": false,
      "t": 29000,
      "d": 250,
      "v": 64
    },
    {
      "midi": 67,
      "hit": false,
      "t": 29000,
      "d": 250,
      "v": 64
    },
    {
      "midi": 74,
      "hit": false,
      "t": 29000,
      "d": 250,
      "v": 64
    },
    {
      "midi": 71,
      "hit": false,
      "t": 29500,
      "d": 250,
      "v": 64
    },
    {
      "midi": 74,
      "hit": false,
      "t": 29750,
      "d": 250,
      "v": 64
    },
    {
      "midi": 74,
      "hit": false,
      "t": 30000,
      "d": 250,
      "v": 64
    },
    {
      "midi": 71,
      "hit": false,
      "t": 30000,
      "d": 250,
      "v": 64
    },
    {
      "midi": 69,
      "hit": false,
      "t": 30250,
      "d": 250,
      "v": 64
    },
    {
      "midi": 85,
      "hit": false,
      "t": 30750,
      "d": 250,
      "v": 64
    },
    {
      "midi": 74,
      "hit": false,
      "t": 30750,
      "d": 250,
      "v": 64
    },
    {
      "midi": 74,
      "hit": false,
      "t": 32000,
      "d": 250,
      "v": 64
    },
    {
      "midi": 59,
      "hit": false,
      "t": 32000,
      "d": 250,
      "v": 64
    },
    {
      "midi": 67,
      "hit": false,
      "t": 32000,
      "d": 250,
      "v": 64
    },
    {
      "midi": 74,
      "hit": false,
      "t": 32750,
      "d": 250,
      "v": 64
    },
    {
      "midi": 64,
      "hit": false,
      "t": 32750,
      "d": 250,
      "v": 64
    },
    {
      "midi": 58,
      "hit": false,
      "t": 32750,
      "d": 250,
      "v": 64
    },
    {
      "midi": 69,
      "hit": false,
      "t": 33250,
      "d": 250,
      "v": 64
    },
    {
      "midi": 81,
      "hit": false,
      "t": 33750,
      "d": 250,
      "v": 64
    },
    {
      "midi": 74,
      "hit": false,
      "t": 34000,
      "d": 250,
      "v": 64
    },
    {
      "midi": 78,
      "hit": false,
      "t": 34000,
      "d": 250,
      "v": 64
    },
    {
      "midi": 74,
      "hit": false,
      "t": 35500,
      "d": 250,
      "v": 64
    },
    {
      "midi": 76,
      "hit": false,
      "t": 35750,
      "d": 250,
      "v": 64
    },
    {
      "midi": 76,
      "hit": false,
      "t": 36000,
      "d": 250,
      "v": 64
    },
    {
      "midi": 67,
      "hit": false,
      "t": 36000,
      "d": 250,
      "v": 64
    },
    {
      "midi": 78,
      "hit": false,
      "t": 36000,
      "d": 250,
      "v": 64
    },
    {
      "midi": 76,
      "hit": false,
      "t": 36500,
      "d": 250,
      "v": 64
    },
    {
      "midi": 74,
      "hit": false,
      "t": 36750,
      "d": 250,
      "v": 64
    },
    {
      "midi": 69,
      "hit": false,
      "t": 37000,
      "d": 250,
      "v": 64
    },
    {
      "midi": 67,
      "hit": false,
      "t": 37000,
      "d": 250,
      "v": 64
    },
    {
      "midi": 71,
      "hit": false,
      "t": 37000,
      "d": 250,
      "v": 64
    },
    {
      "midi": 71,
      "hit": false,
      "t": 37500,
      "d": 250,
      "v": 64
    },
    {
      "midi": 74,
      "hit": false,
      "t": 37750,
      "d": 250,
      "v": 64
    },
    {
      "midi": 74,
      "hit": false,
      "t": 38000,
      "d": 250,
      "v": 64
    },
    {
      "midi": 71,
      "hit": false,
      "t": 38000,
      "d": 250,
      "v": 64
    },
    {
      "midi": 69,
      "hit": false,
      "t": 38250,
      "d": 250,
      "v": 64
    },
    {
      "midi": 85,
      "hit": false,
      "t": 38750,
      "d": 250,
      "v": 64
    },
    {
      "midi": 74,
      "hit": false,
      "t": 38750,
      "d": 250,
      "v": 64
    },
    {
      "midi": 74,
      "hit": false,
      "t": 40000,
      "d": 250,
      "v": 64
    },
    {
      "midi": 59,
      "hit": false,
      "t": 40000,
      "d": 250,
      "v": 64
    },
    {
      "midi": 67,
      "hit": false,
      "t": 40000,
      "d": 250,
      "v": 64
    },
    {
      "midi": 74,
      "hit": false,
      "t": 40750,
      "d": 250,
      "v": 64
    },
    {
      "midi": 58,
      "hit": false,
      "t": 40750,
      "d": 250,
      "v": 64
    },
    {
      "midi": 64,
      "hit": false,
      "t": 40750,
      "d": 250,
      "v": 64
    },
    {
      "midi": 74,
      "hit": false,
      "t": 41500,
      "d": 250,
      "v": 64
    },
    {
      "midi": 76,
      "hit": false,
      "t": 41750,
      "d": 250,
      "v": 64
    },
    {
      "midi": 78,
      "hit": false,
      "t": 42000,
      "d": 250,
      "v": 64
    },
    {
      "midi": 81,
      "hit": false,
      "t": 42250,
      "d": 250,
      "v": 64
    },
    {
      "midi": 81,
      "hit": false,
      "t": 42750,
      "d": 250,
      "v": 64
    },
    {
      "midi": 81,
      "hit": false,
      "t": 43000,
      "d": 250,
      "v": 64
    },
    {
      "midi": 78,
      "hit": false,
      "t": 43250,
      "d": 250,
      "v": 64
    },
    {
      "midi": 73,
      "hit": false,
      "t": 43500,
      "d": 250,
      "v": 64
    },
    {
      "midi": 81,
      "hit": false,
      "t": 43500,
      "d": 250,
      "v": 64
    },
    {
      "midi": 83,
      "hit": false,
      "t": 43750,
      "d": 250,
      "v": 64
    },
    {
      "midi": 71,
      "hit": false,
      "t": 44000,
      "d": 250,
      "v": 64
    },
    {
      "midi": 74,
      "hit": false,
      "t": 44000,
      "d": 250,
      "v": 64
    },
    {
      "midi": 78,
      "hit": false,
      "t": 44000,
      "d": 250,
      "v": 64
    },
    {
      "midi": 71,
      "hit": false,
      "t": 44750,
      "d": 250,
      "v": 64
    },
    {
      "midi": 74,
      "hit": false,
      "t": 45500,
      "d": 250,
      "v": 64
    },
    {
      "midi": 76,
      "hit": false,
      "t": 45750,
      "d": 250,
      "v": 64
    },
    {
      "midi": 76,
      "hit": false,
      "t": 46000,
      "d": 250,
      "v": 64
    },
    {
      "midi": 67,
      "hit": false,
      "t": 46000,
      "d": 250,
      "v": 64
    },
    {
      "midi": 78,
      "hit": false,
      "t": 46000,
      "d": 250,
      "v": 64
    },
    {
      "midi": 76,
      "hit": false,
      "t": 46500,
      "d": 250,
      "v": 64
    },
    {
      "midi": 74,
      "hit": false,
      "t": 46750,
      "d": 250,
      "v": 64
    },
    {
      "midi": 69,
      "hit": false,
      "t": 47000,
      "d": 250,
      "v": 64
    },
    {
      "midi": 67,
      "hit": false,
      "t": 47000,
      "d": 250,
      "v": 64
    },
    {
      "midi": 74,
      "hit": false,
      "t": 47000,
      "d": 250,
      "v": 64
    },
    {
      "midi": 71,
      "hit": false,
      "t": 47500,
      "d": 250,
      "v": 64
    },
    {
      "midi": 74,
      "hit": false,
      "t": 47750,
      "d": 250,
      "v": 64
    },
    {
      "midi": 74,
      "hit": false,
      "t": 48000,
      "d": 250,
      "v": 64
    },
    {
      "midi": 71,
      "hit": false,
      "t": 48000,
      "d": 250,
      "v": 64
    },
    {
      "midi": 69,
      "hit": false,
      "t": 48250,
      "d": 250,
      "v": 64
    },
    {
      "midi": 74,
      "hit": false,
      "t": 49500,
      "d": 250,
      "v": 64
    },
    {
      "midi": 76,
      "hit": false,
      "t": 49750,
      "d": 250,
      "v": 64
    },
    {
      "midi": 78,
      "hit": false,
      "t": 50000,
      "d": 250,
      "v": 64
    },
    {
      "midi": 81,
      "hit": false,
      "t": 50250,
      "d": 250,
      "v": 64
    },
    {
      "midi": 81,
      "hit": false,
      "t": 50500,
      "d": 250,
      "v": 64
    },
    {
      "midi": 81,
      "hit": false,
      "t": 50750,
      "d": 250,
      "v": 64
    },
    {
      "midi": 81,
      "hit": false,
      "t": 51000,
      "d": 250,
      "v": 64
    },
    {
      "midi": 78,
      "hit": false,
      "t": 51250,
      "d": 250,
      "v": 64
    },
    {
      "midi": 73,
      "hit": false,
      "t": 51500,
      "d": 250,
      "v": 64
    },
    {
      "midi": 81,
      "hit": false,
      "t": 51500,
      "d": 250,
      "v": 64
    },
    {
      "midi": 83,
      "hit": false,
      "t": 51750,
      "d": 250,
      "v": 64
    },
    {
      "midi": 71,
      "hit": false,
      "t": 52000,
      "d": 250,
      "v": 64
    },
    {
      "midi": 78,
      "hit": false,
      "t": 52000,
      "d": 250,
      "v": 64
    },
    {
      "midi": 76,
      "hit": false,
      "t": 52250,
      "d": 250,
      "v": 64
    },
    {
      "midi": 74,
      "hit": false,
      "t": 52500,
      "d": 250,
      "v": 64
    },
    {
      "midi": 71,
      "hit": false,
      "t": 52750,
      "d": 250,
      "v": 64
    },
    {
      "midi": 74,
      "hit": false,
      "t": 53500,
      "d": 250,
      "v": 64
    },
    {
      "midi": 76,
      "hit": false,
      "t": 53750,
      "d": 250,
      "v": 64
    },
    {
      "midi": 79,
      "hit": false,
      "t": 54000,
      "d": 250,
      "v": 64
    },
    {
      "midi": 74,
      "hit": false,
      "t": 54000,
      "d": 250,
      "v": 64
    },
    {
      "midi": 78,
      "hit": false,
      "t": 54000,
      "d": 250,
      "v": 64
    },
    {
      "midi": 79,
      "hit": false,
      "t": 54750,
      "d": 250,
      "v": 64
    },
    {
      "midi": 74,
      "hit": false,
      "t": 55500,
      "d": 250,
      "v": 64
    },
    {
      "midi": 76,
      "hit": false,
      "t": 55750,
      "d": 250,
      "v": 64
    },
    {
      "midi": 79,
      "hit": false,
      "t": 56000,
      "d": 250,
      "v": 64
    },
    {
      "midi": 70,
      "hit": false,
      "t": 56000,
      "d": 250,
      "v": 64
    },
    {
      "midi": 77,
      "hit": false,
      "t": 56000,
      "d": 250,
      "v": 64
    },
    {
      "midi": 76,
      "hit": false,
      "t": 56500,
      "d": 250,
      "v": 64
    },
    {
      "midi": 79,
      "hit": false,
      "t": 56750,
      "d": 250,
      "v": 64
    },
    {
      "midi": 74,
      "hit": false,
      "t": 56750,
      "d": 250,
      "v": 64
    },
    {
      "midi": 74,
      "hit": false,
      "t": 57250,
      "d": 250,
      "v": 64
    },
    {
      "midi": 76,
      "hit": false,
      "t": 57500,
      "d": 250,
      "v": 64
    },
    {
      "midi": 76,
      "hit": false,
      "t": 57750,
      "d": 250,
      "v": 64
    },
    {
      "midi": 74,
      "hit": false,
      "t": 58000,
      "d": 250,
      "v": 64
    },
    {
      "midi": 66,
      "hit": false,
      "t": 58000,
      "d": 250,
      "v": 64
    },
    {
      "midi": 74,
      "hit": false,
      "t": 58750,
      "d": 250,
      "v": 64
    },
    {
      "midi": 61,
      "hit": false,
      "t": 58750,
      "d": 250,
      "v": 64
    },
    {
      "midi": 69,
      "hit": false,
      "t": 58750,
      "d": 250,
      "v": 64
    },
    {
      "midi": 74,
      "hit": false,
      "t": 60000,
      "d": 250,
      "v": 64
    },
    {
      "midi": 59,
      "hit": false,
      "t": 60000,
      "d": 250,
      "v": 64
    },
    {
      "midi": 67,
      "hit": false,
      "t": 60000,
      "d": 250,
      "v": 64
    },
    {
      "midi": 74,
      "hit": false,
      "t": 60750,
      "d": 250,
      "v": 64
    },
    {
      "midi": 58,
      "hit": false,
      "t": 60750,
      "d": 250,
      "v": 64
    },
    {
      "midi": 64,
      "hit": false,
      "t": 60750,
      "d": 250,
      "v": 64
    },
    {
      "midi": 69,
      "hit": false,
      "t": 61250,
      "d": 250,
      "v": 64
    },
    {
      "midi": 69,
      "hit": false,
      "t": 61500,
      "d": 250,
      "v": 64
    },
    {
      "midi": 81,
      "hit": false,
      "t": 61750,
      "d": 250,
      "v": 64
    },
    {
      "midi": 74,
      "hit": false,
      "t": 62000,
      "d": 250,
      "v": 64
    },
    {
      "midi": 69,
      "hit": false,
      "t": 62000,
      "d": 250,
      "v": 64
    },
    {
      "midi": 78,
      "hit": false,
      "t": 62000,
      "d": 250,
      "v": 64
    },
    {
      "midi": 69,
      "hit": false,
      "t": 63500,
      "d": 250,
      "v": 64
    },
    {
      "midi": 74,
      "hit": false,
      "t": 63750,
      "d": 250,
      "v": 64
    },
    {
      "midi": 76,
      "hit": false,
      "t": 64000,
      "d": 250,
      "v": 64
    },
    {
      "midi": 67,
      "hit": false,
      "t": 64000,
      "d": 250,
      "v": 64
    },
    {
      "midi": 71,
      "hit": false,
      "t": 64000,
      "d": 250,
      "v": 64
    },
    {
      "midi": 74,
      "hit": false,
      "t": 64000,
      "d": 250,
      "v": 64
    },
    {
      "midi": 69,
      "hit": false,
      "t": 65000,
      "d": 250,
      "v": 64
    },
    {
      "midi": 67,
      "hit": false,
      "t": 65000,
      "d": 250,
      "v": 64
    },
    {
      "midi": 71,
      "hit": false,
      "t": 65000,
      "d": 250,
      "v": 64
    },
    {
      "midi": 69,
      "hit": false,
      "t": 65250,
      "d": 250,
      "v": 64
    },
    {
      "midi": 69,
      "hit": false,
      "t": 65500,
      "d": 250,
      "v": 64
    },
    {
      "midi": 81,
      "hit": false,
      "t": 65750,
      "d": 250,
      "v": 64
    },
    {
      "midi": 74,
      "hit": false,
      "t": 66000,
      "d": 250,
      "v": 64
    },
    {
      "midi": 69,
      "hit": false,
      "t": 66000,
      "d": 250,
      "v": 64
    },
    {
      "midi": 78,
      "hit": false,
      "t": 66000,
      "d": 250,
      "v": 64
    },
    {
      "midi": 69,
      "hit": false,
      "t": 67500,
      "d": 250,
      "v": 64
    },
    {
      "midi": 74,
      "hit": false,
      "t": 67750,
      "d": 250,
      "v": 64
    },
    {
      "midi": 76,
      "hit": false,
      "t": 68000,
      "d": 250,
      "v": 64
    },
    {
      "midi": 67,
      "hit": false,
      "t": 68000,
      "d": 250,
      "v": 64
    },
    {
      "midi": 71,
      "hit": false,
      "t": 68000,
      "d": 250,
      "v": 64
    },
    {
      "midi": 74,
      "hit": false,
      "t": 68000,
      "d": 250,
      "v": 64
    },
    {
      "midi": 69,
      "hit": false,
      "t": 69000,
      "d": 250,
      "v": 64
    },
    {
      "midi": 67,
      "hit": false,
      "t": 69000,
      "d": 250,
      "v": 64
    },
    {
      "midi": 71,
      "hit": false,
      "t": 69000,
      "d": 250,
      "v": 64
    },
    {
      "midi": 69,
      "hit": false,
      "t": 69250,
      "d": 250,
      "v": 64
    },
    {
      "midi": 69,
      "hit": false,
      "t": 69500,
      "d": 250,
      "v": 64
    },
    {
      "midi": 81,
      "hit": false,
      "t": 69750,
      "d": 250,
      "v": 64
    },
    {
      "midi": 74,
      "hit": false,
      "t": 70000,
      "d": 250,
      "v": 64
    },
    {
      "midi": 78,
      "hit": false,
      "t": 70000,
      "d": 250,
      "v": 64
    },
    {
      "midi": 69,
      "hit": false,
      "t": 70000,
      "d": 250,
      "v": 64
    },
    {
      "midi": 69,
      "hit": false,
      "t": 71500,
      "d": 250,
      "v": 64
    },
    {
      "midi": 74,
      "hit": false,
      "t": 71500,
      "d": 250,
      "v": 64
    },
    {
      "midi": 74,
      "hit": false,
      "t": 71750,
      "d": 250,
      "v": 64
    },
    {
      "midi": 76,
      "hit": false,
      "t": 71750,
      "d": 250,
      "v": 64
    },
    {
      "midi": 76,
      "hit": false,
      "t": 72000,
      "d": 250,
      "v": 64
    },
    {
      "midi": 67,
      "hit": false,
      "t": 72000,
      "d": 250,
      "v": 64
    },
    {
      "midi": 78,
      "hit": false,
      "t": 72000,
      "d": 250,
      "v": 64
    },
    {
      "midi": 78,
      "hit": false,
      "t": 72250,
      "d": 250,
      "v": 64
    },
    {
      "midi": 76,
      "hit": false,
      "t": 72500,
      "d": 250,
      "v": 64
    },
    {
      "midi": 74,
      "hit": false,
      "t": 72750,
      "d": 250,
      "v": 64
    },
    {
      "midi": 69,
      "hit": false,
      "t": 73000,
      "d": 250,
      "v": 64
    },
    {
      "midi": 74,
      "hit": false,
      "t": 73000,
      "d": 250,
      "v": 64
    },
    {
      "midi": 71,
      "hit": false,
      "t": 73250,
      "d": 250,
      "v": 64
    },
    {
      "midi": 71,
      "hit": false,
      "t": 73500,
      "d": 250,
      "v": 64
    },
    {
      "midi": 74,
      "hit": false,
      "t": 73750,
      "d": 250,
      "v": 64
    },
    {
      "midi": 74,
      "hit": false,
      "t": 74000,
      "d": 250,
      "v": 64
    },
    {
      "midi": 78,
      "hit": false,
      "t": 74000,
      "d": 250,
      "v": 64
    },
    {
      "midi": 74,
      "hit": false,
      "t": 74750,
      "d": 250,
      "v": 64
    },
    {
      "midi": 79,
      "hit": false,
      "t": 74750,
      "d": 250,
      "v": 64
    },
    {
      "midi": 74,
      "hit": false,
      "t": 76000,
      "d": 250,
      "v": 64
    },
    {
      "midi": 70,
      "hit": false,
      "t": 76000,
      "d": 250,
      "v": 64
    },
    {
      "midi": 76,
      "hit": false,
      "t": 76000,
      "d": 250,
      "v": 64
    },
    {
      "midi": 74,
      "hit": false,
      "t": 76250,
      "d": 250,
      "v": 64
    },
    {
      "midi": 76,
      "hit": false,
      "t": 76500,
      "d": 250,
      "v": 64
    },
    {
      "midi": 74,
      "hit": false,
      "t": 76750,
      "d": 250,
      "v": 64
    },
    {
      "midi": 69,
      "hit": false,
      "t": 76750,
      "d": 250,
      "v": 64
    },
    {
      "midi": 78,
      "hit": false,
      "t": 76750,
      "d": 250,
      "v": 64
    },
    {
      "midi": 71,
      "hit": false,
      "t": 78000,
      "d": 250,
      "v": 64
    },
    {
      "midi": 69,
      "hit": false,
      "t": 78000,
      "d": 250,
      "v": 64
    },
    {
      "midi": 74,
      "hit": false,
      "t": 78000,
      "d": 250,
      "v": 64
    },
    {
      "midi": 76,
      "hit": false,
      "t": 78750,
      "d": 250,
      "v": 64
    },
    {
      "midi": 67,
      "hit": false,
      "t": 78750,
      "d": 250,
      "v": 64
    },
    {
      "midi": 69,
      "hit": false,
      "t": 80000,
      "d": 250,
      "v": 64
    },
    {
      "midi": 67,
      "hit": false,
      "t": 80000,
      "d": 250,
      "v": 64
    },
    {
      "midi": 73,
      "hit": false,
      "t": 80000,
      "d": 250,
      "v": 64
    },
    {
      "midi": 71,
      "hit": false,
      "t": 80250,
      "d": 250,
      "v": 64
    },
    {
      "midi": 73,
      "hit": false,
      "t": 80500,
      "d": 250,
      "v": 64
    },
    {
      "midi": 71,
      "hit": false,
      "t": 80750,
      "d": 250,
      "v": 64
    },
    {
      "midi": 66,
      "hit": false,
      "t": 80750,
      "d": 250,
      "v": 64
    },
    {
      "midi": 74,
      "hit": false,
      "t": 80750,
      "d": 250,
      "v": 64
    },
    {
      "midi": 74,
      "hit": false,
      "t": 82000,
      "d": 250,
      "v": 64
    },
    {
      "midi": 69,
      "hit": false,
      "t": 82000,
      "d": 250,
      "v": 64
    },
    {
      "midi": 78,
      "hit": false,
      "t": 82000,
      "d": 250,
      "v": 64
    },
    {
      "midi": 74,
      "hit": false,
      "t": 82750,
      "d": 250,
      "v": 64
    },
    {
      "midi": 71,
      "hit": false,
      "t": 82750,
      "d": 250,
      "v": 64
    },
    {
      "midi": 79,
      "hit": false,
      "t": 82750,
      "d": 250,
      "v": 64
    },
    {
      "midi": 74,
      "hit": false,
      "t": 84000,
      "d": 250,
      "v": 64
    },
    {
      "midi": 70,
      "hit": false,
      "t": 84000,
      "d": 250,
      "v": 64
    },
    {
      "midi": 76,
      "hit": false,
      "t": 84000,
      "d": 250,
      "v": 64
    },
    {
      "midi": 74,
      "hit": false,
      "t": 84250,
      "d": 250,
      "v": 64
    },
    {
      "midi": 76,
      "hit": false,
      "t": 84500,
      "d": 250,
      "v": 64
    },
    {
      "midi": 74,
      "hit": false,
      "t": 84750,
      "d": 250,
      "v": 64
    },
    {
      "midi": 69,
      "hit": false,
      "t": 84750,
      "d": 250,
      "v": 64
    },
    {
      "midi": 78,
      "hit": false,
      "t": 84750,
      "d": 250,
      "v": 64
    },
    {
      "midi": 71,
      "hit": false,
      "t": 86000,
      "d": 250,
      "v": 64
    },
    {
      "midi": 74,
      "hit": false,
      "t": 86000,
      "d": 250,
      "v": 64
    },
    {
      "midi": 69,
      "hit": false,
      "t": 86000,
      "d": 250,
      "v": 64
    },
    {
      "midi": 76,
      "hit": false,
      "t": 86750,
      "d": 250,
      "v": 64
    },
    {
      "midi": 67,
      "hit": false,
      "t": 86750,
      "d": 250,
      "v": 64
    },
    {
      "midi": 69,
      "hit": false,
      "t": 88000,
      "d": 250,
      "v": 64
    },
    {
      "midi": 57,
      "hit": false,
      "t": 88750,
      "d": 250,
      "v": 64
    },
    {
      "midi": 64,
      "hit": false,
      "t": 89000,
      "d": 250,
      "v": 64
    },
    {
      "midi": 67,
      "hit": false,
      "t": 89250,
      "d": 250,
      "v": 64
    },
    {
      "midi": 71,
      "hit": false,
      "t": 89500,
      "d": 250,
      "v": 64
    },
    {
      "midi": 76,
      "hit": false,
      "t": 89750,
      "d": 250,
      "v": 64
    },
    {
      "midi": 81,
      "hit": false,
      "t": 90000,
      "d": 250,
      "v": 64
    },
    {
      "midi": 79,
      "hit": false,
      "t": 91000,
      "d": 250,
      "v": 64
    },
    {
      "midi": 74,
      "hit": false,
      "t": 91500,
      "d": 250,
      "v": 64
    },
    {
      "midi": 76,
      "hit": false,
      "t": 91750,
      "d": 250,
      "v": 64
    },
    {
      "midi": 74,
      "hit": false,
      "t": 92000,
      "d": 250,
      "v": 64
    },
    {
      "midi": 78,
      "hit": false,
      "t": 92000,
      "d": 250,
      "v": 64
    },
    {
      "midi": 78,
      "hit": false,
      "t": 92250,
      "d": 250,
      "v": 64
    },
    {
      "midi": 74,
      "hit": false,
      "t": 93500,
      "d": 250,
      "v": 64
    },
    {
      "midi": 76,
      "hit": false,
      "t": 93750,
      "d": 250,
      "v": 64
    },
    {
      "midi": 76,
      "hit": false,
      "t": 94000,
      "d": 250,
      "v": 64
    },
    {
      "midi": 78,
      "hit": false,
      "t": 94000,
      "d": 250,
      "v": 64
    },
    {
      "midi": 78,
      "hit": false,
      "t": 94250,
      "d": 250,
      "v": 64
    },
    {
      "midi": 76,
      "hit": false,
      "t": 94500,
      "d": 250,
      "v": 64
    },
    {
      "midi": 74,
      "hit": false,
      "t": 94750,
      "d": 250,
      "v": 64
    },
    {
      "midi": 69,
      "hit": false,
      "t": 95000,
      "d": 250,
      "v": 64
    },
    {
      "midi": 67,
      "hit": false,
      "t": 95000,
      "d": 250,
      "v": 64
    },
    {
      "midi": 71,
      "hit": false,
      "t": 95000,
      "d": 250,
      "v": 64
    },
    {
      "midi": 71,
      "hit": false,
      "t": 95500,
      "d": 250,
      "v": 64
    },
    {
      "midi": 74,
      "hit": false,
      "t": 95750,
      "d": 250,
      "v": 64
    },
    {
      "midi": 74,
      "hit": false,
      "t": 96000,
      "d": 250,
      "v": 64
    },
    {
      "midi": 71,
      "hit": false,
      "t": 96000,
      "d": 250,
      "v": 64
    },
    {
      "midi": 69,
      "hit": false,
      "t": 96250,
      "d": 250,
      "v": 64
    },
    {
      "midi": 74,
      "hit": false,
      "t": 96750,
      "d": 250,
      "v": 64
    },
    {
      "midi": 61,
      "hit": false,
      "t": 96750,
      "d": 250,
      "v": 64
    },
    {
      "midi": 69,
      "hit": false,
      "t": 96750,
      "d": 250,
      "v": 64
    },
    {
      "midi": 74,
      "hit": false,
      "t": 98000,
      "d": 250,
      "v": 64
    },
    {
      "midi": 59,
      "hit": false,
      "t": 98000,
      "d": 250,
      "v": 64
    },
    {
      "midi": 67,
      "hit": false,
      "t": 98000,
      "d": 250,
      "v": 64
    },
    {
      "midi": 74,
      "hit": false,
      "t": 98750,
      "d": 250,
      "v": 64
    },
    {
      "midi": 64,
      "hit": false,
      "t": 98750,
      "d": 250,
      "v": 64
    },
    {
      "midi": 58,
      "hit": false,
      "t": 98750,
      "d": 250,
      "v": 64
    },
    {
      "midi": 74,
      "hit": false,
      "t": 99500,
      "d": 250,
      "v": 64
    },
    {
      "midi": 76,
      "hit": false,
      "t": 99750,
      "d": 250,
      "v": 64
    },
    {
      "midi": 74,
      "hit": false,
      "t": 100000,
      "d": 250,
      "v": 64
    },
    {
      "midi": 78,
      "hit": false,
      "t": 100000,
      "d": 250,
      "v": 64
    },
    {
      "midi": 74,
      "hit": false,
      "t": 101500,
      "d": 250,
      "v": 64
    },
    {
      "midi": 76,
      "hit": false,
      "t": 101750,
      "d": 250,
      "v": 64
    },
    {
      "midi": 76,
      "hit": false,
      "t": 102000,
      "d": 250,
      "v": 64
    },
    {
      "midi": 67,
      "hit": false,
      "t": 102000,
      "d": 250,
      "v": 64
    },
    {
      "midi": 78,
      "hit": false,
      "t": 102000,
      "d": 250,
      "v": 64
    },
    {
      "midi": 76,
      "hit": false,
      "t": 102750,
      "d": 250,
      "v": 64
    },
    {
      "midi": 69,
      "hit": false,
      "t": 103000,
      "d": 250,
      "v": 64
    },
    {
      "midi": 67,
      "hit": false,
      "t": 103000,
      "d": 250,
      "v": 64
    },
    {
      "midi": 74,
      "hit": false,
      "t": 103000,
      "d": 250,
      "v": 64
    },
    {
      "midi": 71,
      "hit": false,
      "t": 103500,
      "d": 250,
      "v": 64
    },
    {
      "midi": 74,
      "hit": false,
      "t": 103750,
      "d": 250,
      "v": 64
    },
    {
      "midi": 74,
      "hit": false,
      "t": 104000,
      "d": 250,
      "v": 64
    },
    {
      "midi": 71,
      "hit": false,
      "t": 104000,
      "d": 250,
      "v": 64
    },
    {
      "midi": 69,
      "hit": false,
      "t": 104250,
      "d": 250,
      "v": 64
    },
    {
      "midi": 85,
      "hit": false,
      "t": 104750,
      "d": 250,
      "v": 64
    },
    {
      "midi": 74,
      "hit": false,
      "t": 104750,
      "d": 250,
      "v": 64
    },
    {
      "midi": 74,
      "hit": false,
      "t": 106000,
      "d": 250,
      "v": 64
    },
    {
      "midi": 59,
      "hit": false,
      "t": 106000,
      "d": 250,
      "v": 64
    },
    {
      "midi": 67,
      "hit": false,
      "t": 106000,
      "d": 250,
      "v": 64
    },
    {
      "midi": 74,
      "hit": false,
      "t": 106750,
      "d": 250,
      "v": 64
    },
    {
      "midi": 64,
      "hit": false,
      "t": 106750,
      "d": 250,
      "v": 64
    },
    {
      "midi": 58,
      "hit": false,
      "t": 106750,
      "d": 250,
      "v": 64
    },
    {
      "midi": 69,
      "hit": false,
      "t": 107250,
      "d": 250,
      "v": 64
    },
    {
      "midi": 81,
      "hit": false,
      "t": 107750,
      "d": 250,
      "v": 64
    },
    {
      "midi": 74,
      "hit": false,
      "t": 108000,
      "d": 250,
      "v": 64
    },
    {
      "midi": 78,
      "hit": false,
      "t": 108000,
      "d": 250,
      "v": 64
    },
    {
      "midi": 74,
      "hit": false,
      "t": 109500,
      "d": 250,
      "v": 64
    },
    {
      "midi": 76,
      "hit": false,
      "t": 109750,
      "d": 250,
      "v": 64
    },
    {
      "midi": 76,
      "hit": false,
      "t": 110000,
      "d": 250,
      "v": 64
    },
    {
      "midi": 67,
      "hit": false,
      "t": 110000,
      "d": 250,
      "v": 64
    },
    {
      "midi": 78,
      "hit": false,
      "t": 110000,
      "d": 250,
      "v": 64
    },
    {
      "midi": 76,
      "hit": false,
      "t": 110500,
      "d": 250,
      "v": 64
    },
    {
      "midi": 74,
      "hit": false,
      "t": 110750,
      "d": 250,
      "v": 64
    },
    {
      "midi": 69,
      "hit": false,
      "t": 111000,
      "d": 250,
      "v": 64
    },
    {
      "midi": 67,
      "hit": false,
      "t": 111000,
      "d": 250,
      "v": 64
    },
    {
      "midi": 71,
      "hit": false,
      "t": 111000,
      "d": 250,
      "v": 64
    },
    {
      "midi": 71,
      "hit": false,
      "t": 111500,
      "d": 250,
      "v": 64
    },
    {
      "midi": 74,
      "hit": false,
      "t": 111750,
      "d": 250,
      "v": 64
    },
    {
      "midi": 74,
      "hit": false,
      "t": 112000,
      "d": 250,
      "v": 64
    },
    {
      "midi": 71,
      "hit": false,
      "t": 112000,
      "d": 250,
      "v": 64
    },
    {
      "midi": 69,
      "hit": false,
      "t": 112250,
      "d": 250,
      "v": 64
    },
    {
      "midi": 85,
      "hit": false,
      "t": 112750,
      "d": 250,
      "v": 64
    },
    {
      "midi": 74,
      "hit": false,
      "t": 112750,
      "d": 250,
      "v": 64
    },
    {
      "midi": 74,
      "hit": false,
      "t": 114000,
      "d": 250,
      "v": 64
    },
    {
      "midi": 59,
      "hit": false,
      "t": 114000,
      "d": 250,
      "v": 64
    },
    {
      "midi": 67,
      "hit": false,
      "t": 114000,
      "d": 250,
      "v": 64
    },
    {
      "midi": 74,
      "hit": false,
      "t": 114750,
      "d": 250,
      "v": 64
    },
    {
      "midi": 58,
      "hit": false,
      "t": 114750,
      "d": 250,
      "v": 64
    },
    {
      "midi": 64,
      "hit": false,
      "t": 114750,
      "d": 250,
      "v": 64
    },
    {
      "midi": 74,
      "hit": false,
      "t": 115500,
      "d": 250,
      "v": 64
    },
    {
      "midi": 76,
      "hit": false,
      "t": 115750,
      "d": 250,
      "v": 64
    },
    {
      "midi": 78,
      "hit": false,
      "t": 116000,
      "d": 250,
      "v": 64
    },
    {
      "midi": 81,
      "hit": false,
      "t": 116250,
      "d": 250,
      "v": 64
    },
    {
      "midi": 81,
      "hit": false,
      "t": 116750,
      "d": 250,
      "v": 64
    },
    {
      "midi": 81,
      "hit": false,
      "t": 117000,
      "d": 250,
      "v": 64
    },
    {
      "midi": 78,
      "hit": false,
      "t": 117250,
      "d": 250,
      "v": 64
    },
    {
      "midi": 73,
      "hit": false,
      "t": 117500,
      "d": 250,
      "v": 64
    },
    {
      "midi": 81,
      "hit": false,
      "t": 117500,
      "d": 250,
      "v": 64
    },
    {
      "midi": 83,
      "hit": false,
      "t": 117750,
      "d": 250,
      "v": 64
    },
    {
      "midi": 71,
      "hit": false,
      "t": 118000,
      "d": 250,
      "v": 64
    },
    {
      "midi": 74,
      "hit": false,
      "t": 118000,
      "d": 250,
      "v": 64
    },
    {
      "midi": 78,
      "hit": false,
      "t": 118000,
      "d": 250,
      "v": 64
    },
    {
      "midi": 71,
      "hit": false,
      "t": 118750,
      "d": 250,
      "v": 64
    },
    {
      "midi": 74,
      "hit": false,
      "t": 119500,
      "d": 250,
      "v": 64
    },
    {
      "midi": 76,
      "hit": false,
      "t": 119750,
      "d": 250,
      "v": 64
    },
    {
      "midi": 76,
      "hit": false,
      "t": 120000,
      "d": 250,
      "v": 64
    },
    {
      "midi": 67,
      "hit": false,
      "t": 120000,
      "d": 250,
      "v": 64
    },
    {
      "midi": 78,
      "hit": false,
      "t": 120000,
      "d": 250,
      "v": 64
    },
    {
      "midi": 76,
      "hit": false,
      "t": 120500,
      "d": 250,
      "v": 64
    },
    {
      "midi": 74,
      "hit": false,
      "t": 120750,
      "d": 250,
      "v": 64
    },
    {
      "midi": 69,
      "hit": false,
      "t": 121000,
      "d": 250,
      "v": 64
    },
    {
      "midi": 67,
      "hit": false,
      "t": 121000,
      "d": 250,
      "v": 64
    },
    {
      "midi": 74,
      "hit": false,
      "t": 121000,
      "d": 250,
      "v": 64
    },
    {
      "midi": 71,
      "hit": false,
      "t": 121500,
      "d": 250,
      "v": 64
    },
    {
      "midi": 74,
      "hit": false,
      "t": 121750,
      "d": 250,
      "v": 64
    },
    {
      "midi": 74,
      "hit": false,
      "t": 122000,
      "d": 250,
      "v": 64
    },
    {
      "midi": 71,
      "hit": false,
      "t": 122000,
      "d": 250,
      "v": 64
    },
    {
      "midi": 69,
      "hit": false,
      "t": 122250,
      "d": 250,
      "v": 64
    },
    {
      "midi": 74,
      "hit": false,
      "t": 123500,
      "d": 250,
      "v": 64
    },
    {
      "midi": 76,
      "hit": false,
      "t": 123750,
      "d": 250,
      "v": 64
    },
    {
      "midi": 78,
      "hit": false,
      "t": 124000,
      "d": 250,
      "v": 64
    },
    {
      "midi": 81,
      "hit": false,
      "t": 124250,
      "d": 250,
      "v": 64
    },
    {
      "midi": 81,
      "hit": false,
      "t": 124500,
      "d": 250,
      "v": 64
    },
    {
      "midi": 81,
      "hit": false,
      "t": 124750,
      "d": 250,
      "v": 64
    },
    {
      "midi": 81,
      "hit": false,
      "t": 125000,
      "d": 250,
      "v": 64
    },
    {
      "midi": 78,
      "hit": false,
      "t": 125250,
      "d": 250,
      "v": 64
    },
    {
      "midi": 73,
      "hit": false,
      "t": 125500,
      "d": 250,
      "v": 64
    },
    {
      "midi": 81,
      "hit": false,
      "t": 125500,
      "d": 250,
      "v": 64
    },
    {
      "midi": 83,
      "hit": false,
      "t": 125750,
      "d": 250,
      "v": 64
    },
    {
      "midi": 71,
      "hit": false,
      "t": 126000,
      "d": 250,
      "v": 64
    },
    {
      "midi": 78,
      "hit": false,
      "t": 126000,
      "d": 250,
      "v": 64
    },
    {
      "midi": 76,
      "hit": false,
      "t": 126250,
      "d": 250,
      "v": 64
    },
    {
      "midi": 74,
      "hit": false,
      "t": 126500,
      "d": 250,
      "v": 64
    },
    {
      "midi": 71,
      "hit": false,
      "t": 126750,
      "d": 250,
      "v": 64
    },
    {
      "midi": 74,
      "hit": false,
      "t": 127500,
      "d": 250,
      "v": 64
    },
    {
      "midi": 76,
      "hit": false,
      "t": 127750,
      "d": 250,
      "v": 64
    },
    {
      "midi": 79,
      "hit": false,
      "t": 128000,
      "d": 250,
      "v": 64
    },
    {
      "midi": 74,
      "hit": false,
      "t": 128000,
      "d": 250,
      "v": 64
    },
    {
      "midi": 78,
      "hit": false,
      "t": 128000,
      "d": 250,
      "v": 64
    },
    {
      "midi": 79,
      "hit": false,
      "t": 128750,
      "d": 250,
      "v": 64
    },
    {
      "midi": 74,
      "hit": false,
      "t": 129500,
      "d": 250,
      "v": 64
    },
    {
      "midi": 76,
      "hit": false,
      "t": 129750,
      "d": 250,
      "v": 64
    },
    {
      "midi": 79,
      "hit": false,
      "t": 130000,
      "d": 250,
      "v": 64
    },
    {
      "midi": 70,
      "hit": false,
      "t": 130000,
      "d": 250,
      "v": 64
    },
    {
      "midi": 77,
      "hit": false,
      "t": 130000,
      "d": 250,
      "v": 64
    },
    {
      "midi": 76,
      "hit": false,
      "t": 130500,
      "d": 250,
      "v": 64
    },
    {
      "midi": 79,
      "hit": false,
      "t": 130750,
      "d": 250,
      "v": 64
    },
    {
      "midi": 74,
      "hit": false,
      "t": 130750,
      "d": 250,
      "v": 64
    },
    {
      "midi": 74,
      "hit": false,
      "t": 131250,
      "d": 250,
      "v": 64
    },
    {
      "midi": 76,
      "hit": false,
      "t": 131500,
      "d": 250,
      "v": 64
    },
    {
      "midi": 76,
      "hit": false,
      "t": 131750,
      "d": 250,
      "v": 64
    },
    {
      "midi": 74,
      "hit": false,
      "t": 132000,
      "d": 250,
      "v": 64
    },
    {
      "midi": 66,
      "hit": false,
      "t": 132000,
      "d": 250,
      "v": 64
    },
    {
      "midi": 74,
      "hit": false,
      "t": 132750,
      "d": 250,
      "v": 64
    },
    {
      "midi": 61,
      "hit": false,
      "t": 132750,
      "d": 250,
      "v": 64
    },
    {
      "midi": 69,
      "hit": false,
      "t": 132750,
      "d": 250,
      "v": 64
    },
    {
      "midi": 74,
      "hit": false,
      "t": 134000,
      "d": 250,
      "v": 64
    },
    {
      "midi": 59,
      "hit": false,
      "t": 134000,
      "d": 250,
      "v": 64
    },
    {
      "midi": 67,
      "hit": false,
      "t": 134000,
      "d": 250,
      "v": 64
    },
    {
      "midi": 74,
      "hit": false,
      "t": 134750,
      "d": 250,
      "v": 64
    },
    {
      "midi": 58,
      "hit": false,
      "t": 134750,
      "d": 250,
      "v": 64
    },
    {
      "midi": 64,
      "hit": false,
      "t": 134750,
      "d": 250,
      "v": 64
    },
    {
      "midi": 69,
      "hit": false,
      "t": 135250,
      "d": 250,
      "v": 64
    },
    {
      "midi": 69,
      "hit": false,
      "t": 135500,
      "d": 250,
      "v": 64
    },
    {
      "midi": 81,
      "hit": false,
      "t": 135750,
      "d": 250,
      "v": 64
    },
    {
      "midi": 74,
      "hit": false,
      "t": 136000,
      "d": 250,
      "v": 64
    },
    {
      "midi": 69,
      "hit": false,
      "t": 136000,
      "d": 250,
      "v": 64
    },
    {
      "midi": 78,
      "hit": false,
      "t": 136000,
      "d": 250,
      "v": 64
    },
    {
      "midi": 69,
      "hit": false,
      "t": 137500,
      "d": 250,
      "v": 64
    },
    {
      "midi": 74,
      "hit": false,
      "t": 137750,
      "d": 250,
      "v": 64
    },
    {
      "midi": 76,
      "hit": false,
      "t": 138000,
      "d": 250,
      "v": 64
    },
    {
      "midi": 67,
      "hit": false,
      "t": 138000,
      "d": 250,
      "v": 64
    },
    {
      "midi": 71,
      "hit": false,
      "t": 138000,
      "d": 250,
      "v": 64
    },
    {
      "midi": 74,
      "hit": false,
      "t": 138000,
      "d": 250,
      "v": 64
    },
    {
      "midi": 69,
      "hit": false,
      "t": 139000,
      "d": 250,
      "v": 64
    },
    {
      "midi": 67,
      "hit": false,
      "t": 139000,
      "d": 250,
      "v": 64
    },
    {
      "midi": 71,
      "hit": false,
      "t": 139000,
      "d": 250,
      "v": 64
    },
    {
      "midi": 69,
      "hit": false,
      "t": 139250,
      "d": 250,
      "v": 64
    },
    {
      "midi": 69,
      "hit": false,
      "t": 139500,
      "d": 250,
      "v": 64
    },
    {
      "midi": 81,
      "hit": false,
      "t": 139750,
      "d": 250,
      "v": 64
    },
    {
      "midi": 74,
      "hit": false,
      "t": 140000,
      "d": 250,
      "v": 64
    },
    {
      "midi": 69,
      "hit": false,
      "t": 140000,
      "d": 250,
      "v": 64
    },
    {
      "midi": 78,
      "hit": false,
      "t": 140000,
      "d": 250,
      "v": 64
    },
    {
      "midi": 69,
      "hit": false,
      "t": 141500,
      "d": 250,
      "v": 64
    },
    {
      "midi": 74,
      "hit": false,
      "t": 141750,
      "d": 250,
      "v": 64
    },
    {
      "midi": 76,
      "hit": false,
      "t": 142000,
      "d": 250,
      "v": 64
    },
    {
      "midi": 67,
      "hit": false,
      "t": 142000,
      "d": 250,
      "v": 64
    },
    {
      "midi": 71,
      "hit": false,
      "t": 142000,
      "d": 250,
      "v": 64
    },
    {
      "midi": 74,
      "hit": false,
      "t": 142000,
      "d": 250,
      "v": 64
    },
    {
      "midi": 69,
      "hit": false,
      "t": 143000,
      "d": 250,
      "v": 64
    },
    {
      "midi": 67,
      "hit": false,
      "t": 143000,
      "d": 250,
      "v": 64
    },
    {
      "midi": 71,
      "hit": false,
      "t": 143000,
      "d": 250,
      "v": 64
    },
    {
      "midi": 69,
      "hit": false,
      "t": 143250,
      "d": 250,
      "v": 64
    },
    {
      "midi": 69,
      "hit": false,
      "t": 143500,
      "d": 250,
      "v": 64
    },
    {
      "midi": 81,
      "hit": false,
      "t": 143750,
      "d": 250,
      "v": 64
    },
    {
      "midi": 74,
      "hit": false,
      "t": 144000,
      "d": 250,
      "v": 64
    },
    {
      "midi": 78,
      "hit": false,
      "t": 144000,
      "d": 250,
      "v": 64
    },
    {
      "midi": 69,
      "hit": false,
      "t": 144000,
      "d": 250,
      "v": 64
    },
    {
      "midi": 69,
      "hit": false,
      "t": 145500,
      "d": 250,
      "v": 64
    },
    {
      "midi": 74,
      "hit": false,
      "t": 145500,
      "d": 250,
      "v": 64
    },
    {
      "midi": 74,
      "hit": false,
      "t": 145750,
      "d": 250,
      "v": 64
    },
    {
      "midi": 76,
      "hit": false,
      "t": 145750,
      "d": 250,
      "v": 64
    },
    {
      "midi": 76,
      "hit": false,
      "t": 146000,
      "d": 250,
      "v": 64
    },
    {
      "midi": 67,
      "hit": false,
      "t": 146000,
      "d": 250,
      "v": 64
    },
    {
      "midi": 78,
      "hit": false,
      "t": 146000,
      "d": 250,
      "v": 64
    },
    {
      "midi": 78,
      "hit": false,
      "t": 146250,
      "d": 250,
      "v": 64
    },
    {
      "midi": 76,
      "hit": false,
      "t": 146500,
      "d": 250,
      "v": 64
    },
    {
      "midi": 74,
      "hit": false,
      "t": 146750,
      "d": 250,
      "v": 64
    },
    {
      "midi": 69,
      "hit": false,
      "t": 147000,
      "d": 250,
      "v": 64
    },
    {
      "midi": 74,
      "hit": false,
      "t": 147000,
      "d": 250,
      "v": 64
    },
    {
      "midi": 71,
      "hit": false,
      "t": 147250,
      "d": 250,
      "v": 64
    },
    {
      "midi": 71,
      "hit": false,
      "t": 147500,
      "d": 250,
      "v": 64
    },
    {
      "midi": 74,
      "hit": false,
      "t": 147750,
      "d": 250,
      "v": 64
    },
    {
      "midi": 74,
      "hit": false,
      "t": 148000,
      "d": 250,
      "v": 64
    },
    {
      "midi": 86,
      "hit": false,
      "t": 148500,
      "d": 250,
      "v": 64
    },
    {
      "midi": 85,
      "hit": false,
      "t": 149000,
      "d": 250,
      "v": 64
    },
    {
      "midi": 81,
      "hit": false,
      "t": 149500,
      "d": 250,
      "v": 64
    },
    {
      "midi": 79,
      "hit": false,
      "t": 150000,
      "d": 250,
      "v": 64
    },
    {
      "midi": 83,
      "hit": false,
      "t": 150000,
      "d": 250,
      "v": 64
    },
    {
      "midi": 74,
      "hit": false,
      "t": 150000,
      "d": 250,
      "v": 64
    },
    {
      "midi": 83,
      "hit": false,
      "t": 150500,
      "d": 250,
      "v": 64
    },
    {
      "midi": 81,
      "hit": false,
      "t": 151000,
      "d": 250,
      "v": 64
    },
    {
      "midi": 78,
      "hit": false,
      "t": 151500,
      "d": 250,
      "v": 64
    },
    {
      "midi": 76,
      "hit": false,
      "t": 152000,
      "d": 250,
      "v": 64
    },
    {
      "midi": 79,
      "hit": false,
      "t": 152000,
      "d": 250,
      "v": 64
    },
    {
      "midi": 71,
      "hit": false,
      "t": 152000,
      "d": 250,
      "v": 64
    },
    {
      "midi": 79,
      "hit": false,
      "t": 152500,
      "d": 250,
      "v": 64
    },
    {
      "midi": 78,
      "hit": false,
      "t": 153000,
      "d": 250,
      "v": 64
    },
    {
      "midi": 74,
      "hit": false,
      "t": 153500,
      "d": 250,
      "v": 64
    },
    {
      "midi": 70,
      "hit": false,
      "t": 154000,
      "d": 250,
      "v": 64
    },
    {
      "midi": 80,
      "hit": false,
      "t": 154000,
      "d": 250,
      "v": 64
    },
    {
      "midi": 75,
      "hit": false,
      "t": 154000,
      "d": 250,
      "v": 64
    },
    {
      "midi": 72,
      "hit": false,
      "t": 154000,
      "d": 250,
      "v": 64
    },
    {
      "midi": 75,
      "hit": false,
      "t": 155500,
      "d": 250,
      "v": 64
    },
    {
      "midi": 70,
      "hit": false,
      "t": 156000,
      "d": 250,
      "v": 64
    },
    {
      "midi": 82,
      "hit": false,
      "t": 156000,
      "d": 250,
      "v": 64
    },
    {
      "midi": 77,
      "hit": false,
      "t": 156000,
      "d": 250,
      "v": 64
    },
    {
      "midi": 74,
      "hit": false,
      "t": 156000,
      "d": 250,
      "v": 64
    },
    {
      "midi": 82,
      "hit": false,
      "t": 157000,
      "d": 250,
      "v": 64
    },
    {
      "midi": 70,
      "hit": false,
      "t": 157250,
      "d": 250,
      "v": 64
    },
    {
      "midi": 70,
      "hit": false,
      "t": 157500,
      "d": 250,
      "v": 64
    },
    {
      "midi": 82,
      "hit": false,
      "t": 157750,
      "d": 250,
      "v": 64
    },
    {
      "midi": 75,
      "hit": false,
      "t": 158000,
      "d": 250,
      "v": 64
    },
    {
      "midi": 79,
      "hit": false,
      "t": 158000,
      "d": 250,
      "v": 64
    },
    {
      "midi": 70,
      "hit": false,
      "t": 158000,
      "d": 250,
      "v": 64
    },
    {
      "midi": 70,
      "hit": false,
      "t": 159500,
      "d": 250,
      "v": 64
    },
    {
      "midi": 75,
      "hit": false,
      "t": 159750,
      "d": 250,
      "v": 64
    },
    {
      "midi": 77,
      "hit": false,
      "t": 160000,
      "d": 250,
      "v": 64
    },
    {
      "midi": 68,
      "hit": false,
      "t": 160000,
      "d": 250,
      "v": 64
    },
    {
      "midi": 75,
      "hit": false,
      "t": 160000,
      "d": 250,
      "v": 64
    },
    {
      "midi": 72,
      "hit": false,
      "t": 160000,
      "d": 250,
      "v": 64
    },
    {
      "midi": 70,
      "hit": false,
      "t": 161000,
      "d": 250,
      "v": 64
    },
    {
      "midi": 72,
      "hit": false,
      "t": 161000,
      "d": 250,
      "v": 64
    },
    {
      "midi": 68,
      "hit": false,
      "t": 161000,
      "d": 250,
      "v": 64
    },
    {
      "midi": 70,
      "hit": false,
      "t": 161250,
      "d": 250,
      "v": 64
    },
    {
      "midi": 70,
      "hit": false,
      "t": 161500,
      "d": 250,
      "v": 64
    },
    {
      "midi": 82,
      "hit": false,
      "t": 161750,
      "d": 250,
      "v": 64
    },
    {
      "midi": 75,
      "hit": false,
      "t": 162000,
      "d": 250,
      "v": 64
    },
    {
      "midi": 70,
      "hit": false,
      "t": 162000,
      "d": 250,
      "v": 64
    },
    {
      "midi": 79,
      "hit": false,
      "t": 162000,
      "d": 250,
      "v": 64
    },
    {
      "midi": 70,
      "hit": false,
      "t": 163500,
      "d": 250,
      "v": 64
    },
    {
      "midi": 75,
      "hit": false,
      "t": 163500,
      "d": 250,
      "v": 64
    },
    {
      "midi": 75,
      "hit": false,
      "t": 163750,
      "d": 250,
      "v": 64
    },
    {
      "midi": 77,
      "hit": false,
      "t": 163750,
      "d": 250,
      "v": 64
    },
    {
      "midi": 77,
      "hit": false,
      "t": 164000,
      "d": 250,
      "v": 64
    },
    {
      "midi": 79,
      "hit": false,
      "t": 164000,
      "d": 250,
      "v": 64
    },
    {
      "midi": 79,
      "hit": false,
      "t": 164250,
      "d": 250,
      "v": 64
    },
    {
      "midi": 77,
      "hit": false,
      "t": 164500,
      "d": 250,
      "v": 64
    },
    {
      "midi": 75,
      "hit": false,
      "t": 164750,
      "d": 250,
      "v": 64
    },
    {
      "midi": 70,
      "hit": false,
      "t": 165000,
      "d": 250,
      "v": 64
    },
    {
      "midi": 75,
      "hit": false,
      "t": 165000,
      "d": 250,
      "v": 64
    },
    {
      "midi": 72,
      "hit": false,
      "t": 165250,
      "d": 250,
      "v": 64
    },
    {
      "midi": 72,
      "hit": false,
      "t": 165500,
      "d": 250,
      "v": 64
    },
    {
      "midi": 75,
      "hit": false,
      "t": 165750,
      "d": 250,
      "v": 64
    },
    {
      "midi": 75,
      "hit": false,
      "t": 166000,
      "d": 250,
      "v": 64
    },
    {
      "midi": 67,
      "hit": false,
      "t": 166000,
      "d": 250,
      "v": 64
    },
    {
      "midi": 70,
      "hit": false,
      "t": 167500,
      "d": 250,
      "v": 64
    },
    {
      "midi": 75,
      "hit": false,
      "t": 167750,
      "d": 250,
      "v": 64
    },
    {
      "midi": 77,
      "hit": false,
      "t": 168000,
      "d": 250,
      "v": 64
    },
    {
      "midi": 68,
      "hit": false,
      "t": 168000,
      "d": 250,
      "v": 64
    },
    {
      "midi": 72,
      "hit": false,
      "t": 168000,
      "d": 250,
      "v": 64
    },
    {
      "midi": 75,
      "hit": false,
      "t": 168000,
      "d": 250,
      "v": 64
    },
    {
      "midi": 70,
      "hit": false,
      "t": 169000,
      "d": 250,
      "v": 64
    },
    {
      "midi": 70,
      "hit": false,
      "t": 169250,
      "d": 250,
      "v": 64
    },
    {
      "midi": 70,
      "hit": false,
      "t": 169500,
      "d": 250,
      "v": 64
    },
    {
      "midi": 82,
      "hit": false,
      "t": 169750,
      "d": 250,
      "v": 64
    },
    {
      "midi": 75,
      "hit": false,
      "t": 170000,
      "d": 250,
      "v": 64
    },
    {
      "midi": 79,
      "hit": false,
      "t": 170000,
      "d": 250,
      "v": 64
    },
    {
      "midi": 70,
      "hit": false,
      "t": 170000,
      "d": 250,
      "v": 64
    },
    {
      "midi": 70,
      "hit": false,
      "t": 171500,
      "d": 250,
      "v": 64
    },
    {
      "midi": 75,
      "hit": false,
      "t": 171750,
      "d": 250,
      "v": 64
    },
    {
      "midi": 77,
      "hit": false,
      "t": 172000,
      "d": 250,
      "v": 64
    },
    {
      "midi": 68,
      "hit": false,
      "t": 172000,
      "d": 250,
      "v": 64
    },
    {
      "midi": 72,
      "hit": false,
      "t": 172000,
      "d": 250,
      "v": 64
    },
    {
      "midi": 75,
      "hit": false,
      "t": 172000,
      "d": 250,
      "v": 64
    },
    {
      "midi": 70,
      "hit": false,
      "t": 173000,
      "d": 250,
      "v": 64
    },
    {
      "midi": 68,
      "hit": false,
      "t": 173000,
      "d": 250,
      "v": 64
    },
    {
      "midi": 72,
      "hit": false,
      "t": 173000,
      "d": 250,
      "v": 64
    },
    {
      "midi": 70,
      "hit": false,
      "t": 173250,
      "d": 250,
      "v": 64
    },
    {
      "midi": 70,
      "hit": false,
      "t": 173500,
      "d": 250,
      "v": 64
    },
    {
      "midi": 82,
      "hit": false,
      "t": 173750,
      "d": 250,
      "v": 64
    },
    {
      "midi": 75,
      "hit": false,
      "t": 174000,
      "d": 250,
      "v": 64
    },
    {
      "midi": 70,
      "hit": false,
      "t": 174000,
      "d": 250,
      "v": 64
    },
    {
      "midi": 79,
      "hit": false,
      "t": 174000,
      "d": 250,
      "v": 64
    },
    {
      "midi": 70,
      "hit": false,
      "t": 175500,
      "d": 250,
      "v": 64
    },
    {
      "midi": 75,
      "hit": false,
      "t": 175750,
      "d": 250,
      "v": 64
    },
    {
      "midi": 77,
      "hit": false,
      "t": 176000,
      "d": 250,
      "v": 64
    },
    {
      "midi": 68,
      "hit": false,
      "t": 176000,
      "d": 250,
      "v": 64
    },
    {
      "midi": 72,
      "hit": false,
      "t": 176000,
      "d": 250,
      "v": 64
    },
    {
      "midi": 75,
      "hit": false,
      "t": 176000,
      "d": 250,
      "v": 64
    },
    {
      "midi": 70,
      "hit": false,
      "t": 177000,
      "d": 250,
      "v": 64
    },
    {
      "midi": 68,
      "hit": false,
      "t": 177000,
      "d": 250,
      "v": 64
    },
    {
      "midi": 72,
      "hit": false,
      "t": 177000,
      "d": 250,
      "v": 64
    },
    {
      "midi": 70,
      "hit": false,
      "t": 177250,
      "d": 250,
      "v": 64
    },
    {
      "midi": 70,
      "hit": false,
      "t": 177500,
      "d": 250,
      "v": 64
    },
    {
      "midi": 82,
      "hit": false,
      "t": 177750,
      "d": 250,
      "v": 64
    },
    {
      "midi": 75,
      "hit": false,
      "t": 178000,
      "d": 250,
      "v": 64
    },
    {
      "midi": 70,
      "hit": false,
      "t": 178000,
      "d": 250,
      "v": 64
    },
    {
      "midi": 79,
      "hit": false,
      "t": 178000,
      "d": 250,
      "v": 64
    },
    {
      "midi": 70,
      "hit": false,
      "t": 179500,
      "d": 250,
      "v": 64
    },
    {
      "midi": 75,
      "hit": false,
      "t": 179750,
      "d": 250,
      "v": 64
    },
    {
      "midi": 77,
      "hit": false,
      "t": 180000,
      "d": 250,
      "v": 64
    },
    {
      "midi": 68,
      "hit": false,
      "t": 180000,
      "d": 250,
      "v": 64
    },
    {
      "midi": 72,
      "hit": false,
      "t": 180000,
      "d": 250,
      "v": 64
    },
    {
      "midi": 75,
      "hit": false,
      "t": 180000,
      "d": 250,
      "v": 64
    },
    {
      "midi": 70,
      "hit": false,
      "t": 181000,
      "d": 250,
      "v": 64
    },
    {
      "midi": 68,
      "hit": false,
      "t": 181000,
      "d": 250,
      "v": 64
    },
    {
      "midi": 72,
      "hit": false,
      "t": 181000,
      "d": 250,
      "v": 64
    },
    {
      "midi": 75,
      "hit": false,
      "t": 182000,
      "d": 250,
      "v": 64
    },
    {
      "midi": 67,
      "hit": false,
      "t": 182000,
      "d": 250,
      "v": 64
    },
    {
      "midi": 70,
      "hit": false,
      "t": 182000,
      "d": 250,
      "v": 64
    },
    {
      "midi": 70,
      "hit": false,
      "t": 183500,
      "d": 250,
      "v": 64
    },
    {
      "midi": 75,
      "hit": false,
      "t": 183750,
      "d": 250,
      "v": 64
    },
    {
      "midi": 77,
      "hit": false,
      "t": 184000,
      "d": 250,
      "v": 64
    },
    {
      "midi": 68,
      "hit": false,
      "t": 184000,
      "d": 250,
      "v": 64
    },
    {
      "midi": 72,
      "hit": false,
      "t": 184000,
      "d": 250,
      "v": 64
    },
    {
      "midi": 75,
      "hit": false,
      "t": 184000,
      "d": 250,
      "v": 64
    },
    {
      "midi": 70,
      "hit": false,
      "t": 185000,
      "d": 250,
      "v": 64
    },
    {
      "midi": 68,
      "hit": false,
      "t": 185000,
      "d": 250,
      "v": 64
    },
    {
      "midi": 72,
      "hit": false,
      "t": 185000,
      "d": 250,
      "v": 64
    },
    {
      "midi": 75,
      "hit": false,
      "t": 186000,
      "d": 1500,
      "v": 64
    },
    {
      "midi": 67,
      "hit": false,
      "t": 186000,
      "d": 1500,
      "v": 64
    },
    {
      "midi": 70,
      "hit": false,
      "t": 186000,
      "d": 1500,
      "v": 64
    }
  ]
}