{
  "jsonPath": "Pop/Brill Building Pop/Brenda Lee/end-of-the-world-digital-re-recording.json",
  "path": "Pop\\Brill Building Pop\\Brenda Lee\\End Of The World (Digital Re-Recording).mid",
  "name": "End Of The World (Digital Re-Recording)",
  "difficulty": "Advanced",
  "bpm": 60.99997255001235,
  "notes": [
    {
      "midi": 57,
      "hit": false,
      "t": 1503.90625,
      "d": 742.1875,
      "v": 89
    },
    {
      "midi": 61,
      "hit": false,
      "t": 1507.8125,
      "d": 750,
      "v": 80
    },
    {
      "midi": 69,
      "hit": false,
      "t": 1511.71875,
      "d": 117.1875,
      "v": 105
    },
    {
      "midi": 73,
      "hit": false,
      "t": 1628.90625,
      "d": 125,
      "v": 92
    },
    {
      "midi": 76,
      "hit": false,
      "t": 1757.8125,
      "d": 144.53125,
      "v": 95
    },
    {
      "midi": 81,
      "hit": false,
      "t": 1886.71875,
      "d": 132.8125,
      "v": 107
    },
    {
      "midi": 76,
      "hit": false,
      "t": 2011.71875,
      "d": 105.46875,
      "v": 88
    },
    {
      "midi": 73,
      "hit": false,
      "t": 2136.71875,
      "d": 117.1875,
      "v": 95
    },
    {
      "midi": 59,
      "hit": false,
      "t": 2257.8125,
      "d": 746.09375,
      "v": 68
    },
    {
      "midi": 68,
      "hit": false,
      "t": 2261.71875,
      "d": 105.46875,
      "v": 102
    },
    {
      "midi": 56,
      "hit": false,
      "t": 2261.71875,
      "d": 734.375,
      "v": 70
    },
    {
      "midi": 71,
      "hit": false,
      "t": 2382.8125,
      "d": 121.09375,
      "v": 85
    },
    {
      "midi": 76,
      "hit": false,
      "t": 2511.71875,
      "d": 109.375,
      "v": 90
    },
    {
      "midi": 80,
      "hit": false,
      "t": 2628.90625,
      "d": 140.625,
      "v": 113
    },
    {
      "midi": 76,
      "hit": false,
      "t": 2761.71875,
      "d": 117.1875,
      "v": 85
    },
    {
      "midi": 71,
      "hit": false,
      "t": 2878.90625,
      "d": 125,
      "v": 99
    },
    {
      "midi": 66,
      "hit": false,
      "t": 3007.8125,
      "d": 101.5625,
      "v": 91
    },
    {
      "midi": 57,
      "hit": false,
      "t": 3011.71875,
      "d": 734.375,
      "v": 87
    },
    {
      "midi": 54,
      "hit": false,
      "t": 3015.625,
      "d": 730.46875,
      "v": 59
    },
    {
      "midi": 69,
      "hit": false,
      "t": 3128.90625,
      "d": 125,
      "v": 97
    },
    {
      "midi": 73,
      "hit": false,
      "t": 3253.90625,
      "d": 125,
      "v": 93
    },
    {
      "midi": 78,
      "hit": false,
      "t": 3375,
      "d": 140.625,
      "v": 105
    },
    {
      "midi": 73,
      "hit": false,
      "t": 3503.90625,
      "d": 121.09375,
      "v": 99
    },
    {
      "midi": 69,
      "hit": false,
      "t": 3628.90625,
      "d": 113.28125,
      "v": 105
    },
    {
      "midi": 68,
      "hit": false,
      "t": 3753.90625,
      "d": 117.1875,
      "v": 100
    },
    {
      "midi": 56,
      "hit": false,
      "t": 3765.625,
      "d": 683.59375,
      "v": 90
    },
    {
      "midi": 59,
      "hit": false,
      "t": 3769.53125,
      "d": 695.3125,
      "v": 83
    },
    {
      "midi": 71,
      "hit": false,
      "t": 3878.90625,
      "d": 117.1875,
      "v": 92
    },
    {
      "midi": 76,
      "hit": false,
      "t": 4003.90625,
      "d": 109.375,
      "v": 93
    },
    {
      "midi": 80,
      "hit": false,
      "t": 4125,
      "d": 140.625,
      "v": 105
    },
    {
      "midi": 76,
      "hit": false,
      "t": 4257.8125,
      "d": 117.1875,
      "v": 100
    },
    {
      "midi": 71,
      "hit": false,
      "t": 4371.09375,
      "d": 121.09375,
      "v": 97
    },
    {
      "midi": 69,
      "hit": false,
      "t": 4492.1875,
      "d": 136.71875,
      "v": 109
    },
    {
      "midi": 57,
      "hit": false,
      "t": 4500,
      "d": 1382.8125,
      "v": 92
    },
    {
      "midi": 61,
      "hit": false,
      "t": 4503.90625,
      "d": 1382.8125,
      "v": 78
    },
    {
      "midi": 73,
      "hit": false,
      "t": 4632.8125,
      "d": 121.09375,
      "v": 83
    },
    {
      "midi": 76,
      "hit": false,
      "t": 4750,
      "d": 125,
      "v": 93
    },
    {
      "midi": 81,
      "hit": false,
      "t": 4875,
      "d": 132.8125,
      "v": 115
    },
    {
      "midi": 76,
      "hit": false,
      "t": 5003.90625,
      "d": 109.375,
      "v": 92
    },
    {
      "midi": 73,
      "hit": false,
      "t": 5121.09375,
      "d": 132.8125,
      "v": 92
    },
    {
      "midi": 69,
      "hit": false,
      "t": 5250,
      "d": 128.90625,
      "v": 105
    },
    {
      "midi": 73,
      "hit": false,
      "t": 5375,
      "d": 125,
      "v": 91
    },
    {
      "midi": 76,
      "hit": false,
      "t": 5503.90625,
      "d": 125,
      "v": 88
    },
    {
      "midi": 81,
      "hit": false,
      "t": 5625,
      "d": 136.71875,
      "v": 107
    },
    {
      "midi": 76,
      "hit": false,
      "t": 5757.8125,
      "d": 109.375,
      "v": 92
    },
    {
      "midi": 73,
      "hit": false,
      "t": 5871.09375,
      "d": 125,
      "v": 90
    },
    {
      "midi": 68,
      "hit": false,
      "t": 6003.90625,
      "d": 113.28125,
      "v": 99
    },
    {
      "midi": 56,
      "hit": false,
      "t": 6011.71875,
      "d": 1359.375,
      "v": 66
    },
    {
      "midi": 59,
      "hit": false,
      "t": 6015.625,
      "d": 1355.46875,
      "v": 76
    },
    {
      "midi": 71,
      "hit": false,
      "t": 6121.09375,
      "d": 117.1875,
      "v": 84
    },
    {
      "midi": 76,
      "hit": false,
      "t": 6246.09375,
      "d": 113.28125,
      "v": 83
    },
    {
      "midi": 80,
      "hit": false,
      "t": 6367.1875,
      "d": 132.8125,
      "v": 111
    },
    {
      "midi": 76,
      "hit": false,
      "t": 6492.1875,
      "d": 121.09375,
      "v": 88
    },
    {
      "midi": 71,
      "hit": false,
      "t": 6617.1875,
      "d": 113.28125,
      "v": 87
    },
    {
      "midi": 68,
      "hit": false,
      "t": 6742.1875,
      "d": 109.375,
      "v": 96
    },
    {
      "midi": 71,
      "hit": false,
      "t": 6871.09375,
      "d": 117.1875,
      "v": 79
    },
    {
      "midi": 76,
      "hit": false,
      "t": 6992.1875,
      "d": 109.375,
      "v": 91
    },
    {
      "midi": 80,
      "hit": false,
      "t": 7113.28125,
      "d": 140.625,
      "v": 109
    },
    {
      "midi": 76,
      "hit": false,
      "t": 7246.09375,
      "d": 128.90625,
      "v": 96
    },
    {
      "midi": 71,
      "hit": false,
      "t": 7371.09375,
      "d": 105.46875,
      "v": 90
    },
    {
      "midi": 66,
      "hit": false,
      "t": 7488.28125,
      "d": 113.28125,
      "v": 99
    },
    {
      "midi": 54,
      "hit": false,
      "t": 7507.8125,
      "d": 1390.625,
      "v": 71
    },
    {
      "midi": 57,
      "hit": false,
      "t": 7511.71875,
      "d": 1390.625,
      "v": 87
    },
    {
      "midi": 69,
      "hit": false,
      "t": 7617.1875,
      "d": 128.90625,
      "v": 84
    },
    {
      "midi": 73,
      "hit": false,
      "t": 7738.28125,
      "d": 125,
      "v": 91
    },
    {
      "midi": 78,
      "hit": false,
      "t": 7863.28125,
      "d": 132.8125,
      "v": 107
    },
    {
      "midi": 73,
      "hit": false,
      "t": 7992.1875,
      "d": 105.46875,
      "v": 100
    },
    {
      "midi": 69,
      "hit": false,
      "t": 8113.28125,
      "d": 132.8125,
      "v": 97
    },
    {
      "midi": 66,
      "hit": false,
      "t": 8250,
      "d": 109.375,
      "v": 102
    },
    {
      "midi": 69,
      "hit": false,
      "t": 8375,
      "d": 117.1875,
      "v": 93
    },
    {
      "midi": 73,
      "hit": false,
      "t": 8496.09375,
      "d": 121.09375,
      "v": 92
    },
    {
      "midi": 78,
      "hit": false,
      "t": 8621.09375,
      "d": 140.625,
      "v": 92
    },
    {
      "midi": 73,
      "hit": false,
      "t": 8750,
      "d": 113.28125,
      "v": 102
    },
    {
      "midi": 69,
      "hit": false,
      "t": 8875,
      "d": 113.28125,
      "v": 100
    },
    {
      "midi": 68,
      "hit": false,
      "t": 9000,
      "d": 117.1875,
      "v": 102
    },
    {
      "midi": 52,
      "hit": false,
      "t": 9007.8125,
      "d": 1359.375,
      "v": 72
    },
    {
      "midi": 56,
      "hit": false,
      "t": 9011.71875,
      "d": 1355.46875,
      "v": 85
    },
    {
      "midi": 73,
      "hit": false,
      "t": 9128.90625,
      "d": 121.09375,
      "v": 92
    },
    {
      "midi": 76,
      "hit": false,
      "t": 9253.90625,
      "d": 105.46875,
      "v": 91
    },
    {
      "midi": 80,
      "hit": false,
      "t": 9371.09375,
      "d": 132.8125,
      "v": 113
    },
    {
      "midi": 76,
      "hit": false,
      "t": 9496.09375,
      "d": 117.1875,
      "v": 93
    },
    {
      "midi": 73,
      "hit": false,
      "t": 9617.1875,
      "d": 121.09375,
      "v": 95
    },
    {
      "midi": 68,
      "hit": false,
      "t": 9746.09375,
      "d": 121.09375,
      "v": 102
    },
    {
      "midi": 73,
      "hit": false,
      "t": 9878.90625,
      "d": 125,
      "v": 91
    },
    {
      "midi": 76,
      "hit": false,
      "t": 10000,
      "d": 101.5625,
      "v": 90
    },
    {
      "midi": 80,
      "hit": false,
      "t": 10125,
      "d": 132.8125,
      "v": 107
    },
    {
      "midi": 76,
      "hit": false,
      "t": 10246.09375,
      "d": 132.8125,
      "v": 90
    },
    {
      "midi": 73,
      "hit": false,
      "t": 10375,
      "d": 125,
      "v": 96
    },
    {
      "midi": 69,
      "hit": false,
      "t": 10503.90625,
      "d": 136.71875,
      "v": 109
    },
    {
      "midi": 54,
      "hit": false,
      "t": 10519.53125,
      "d": 703.125,
      "v": 75
    },
    {
      "midi": 57,
      "hit": false,
      "t": 10523.4375,
      "d": 714.84375,
      "v": 89
    },
    {
      "midi": 74,
      "hit": false,
      "t": 10632.8125,
      "d": 121.09375,
      "v": 100
    },
    {
      "midi": 78,
      "hit": false,
      "t": 10753.90625,
      "d": 121.09375,
      "v": 97
    },
    {
      "midi": 81,
      "hit": false,
      "t": 10878.90625,
      "d": 121.09375,
      "v": 123
    },
    {
      "midi": 78,
      "hit": false,
      "t": 11003.90625,
      "d": 136.71875,
      "v": 86
    },
    {
      "midi": 74,
      "hit": false,
      "t": 11132.8125,
      "d": 117.1875,
      "v": 102
    },
    {
      "midi": 71,
      "hit": false,
      "t": 11257.8125,
      "d": 109.375,
      "v": 100
    },
    {
      "midi": 59,
      "hit": false,
      "t": 11281.25,
      "d": 710.9375,
      "v": 83
    },
    {
      "midi": 54,
      "hit": false,
      "t": 11285.15625,
      "d": 710.9375,
      "v": 86
    },
    {
      "midi": 74,
      "hit": false,
      "t": 11378.90625,
      "d": 113.28125,
      "v": 99
    },
    {
      "midi": 78,
      "hit": false,
      "t": 11500,
      "d": 125,
      "v": 92
    },
    {
      "midi": 83,
      "hit": false,
      "t": 11628.90625,
      "d": 132.8125,
      "v": 109
    },
    {
      "midi": 78,
      "hit": false,
      "t": 11753.90625,
      "d": 113.28125,
      "v": 102
    },
    {
      "midi": 74,
      "hit": false,
      "t": 11875,
      "d": 128.90625,
      "v": 103
    },
    {
      "midi": 68,
      "hit": false,
      "t": 12003.90625,
      "d": 117.1875,
      "v": 102
    },
    {
      "midi": 56,
      "hit": false,
      "t": 12007.8125,
      "d": 714.84375,
      "v": 81
    },
    {
      "midi": 52,
      "hit": false,
      "t": 12011.71875,
      "d": 707.03125,
      "v": 72
    },
    {
      "midi": 73,
      "hit": false,
      "t": 12128.90625,
      "d": 125,
      "v": 92
    },
    {
      "midi": 76,
      "hit": false,
      "t": 12253.90625,
      "d": 121.09375,
      "v": 92
    },
    {
      "midi": 80,
      "hit": false,
      "t": 12386.71875,
      "d": 125,
      "v": 115
    },
    {
      "midi": 76,
      "hit": false,
      "t": 12503.90625,
      "d": 117.1875,
      "v": 87
    },
    {
      "midi": 73,
      "hit": false,
      "t": 12628.90625,
      "d": 113.28125,
      "v": 97
    },
    {
      "midi": 70,
      "hit": false,
      "t": 12753.90625,
      "d": 121.09375,
      "v": 90
    },
    {
      "midi": 54,
      "hit": false,
      "t": 12761.71875,
      "d": 648.4375,
      "v": 77
    },
    {
      "midi": 58,
      "hit": false,
      "t": 12761.71875,
      "d": 667.96875,
      "v": 75
    },
    {
      "midi": 73,
      "hit": false,
      "t": 12878.90625,
      "d": 117.1875,
      "v": 88
    },
    {
      "midi": 76,
      "hit": false,
      "t": 13000,
      "d": 109.375,
      "v": 90
    },
    {
      "midi": 80,
      "hit": false,
      "t": 13121.09375,
      "d": 136.71875,
      "v": 109
    },
    {
      "midi": 76,
      "hit": false,
      "t": 13246.09375,
      "d": 125,
      "v": 86
    },
    {
      "midi": 73,
      "hit": false,
      "t": 13371.09375,
      "d": 117.1875,
      "v": 90
    },
    {
      "midi": 71,
      "hit": false,
      "t": 13496.09375,
      "d": 97.65625,
      "v": 96
    },
    {
      "midi": 54,
      "hit": false,
      "t": 13496.09375,
      "d": 1460.9375,
      "v": 81
    },
    {
      "midi": 59,
      "hit": false,
      "t": 13500,
      "d": 1460.9375,
      "v": 73
    },
    {
      "midi": 74,
      "hit": false,
      "t": 13617.1875,
      "d": 128.90625,
      "v": 96
    },
    {
      "midi": 78,
      "hit": false,
      "t": 13742.1875,
      "d": 140.625,
      "v": 91
    },
    {
      "midi": 83,
      "hit": false,
      "t": 13878.90625,
      "d": 140.625,
      "v": 103
    },
    {
      "midi": 78,
      "hit": false,
      "t": 14003.90625,
      "d": 125,
      "v": 92
    },
    {
      "midi": 74,
      "hit": false,
      "t": 14128.90625,
      "d": 121.09375,
      "v": 105
    },
    {
      "midi": 71,
      "hit": false,
      "t": 14386.71875,
      "d": 242.1875,
      "v": 95
    },
    {
      "midi": 78,
      "hit": false,
      "t": 14636.71875,
      "d": 312.5,
      "v": 102
    },
    {
      "midi": 69,
      "hit": false,
      "t": 15003.90625,
      "d": 128.90625,
      "v": 109
    },
    {
      "midi": 53,
      "hit": false,
      "t": 15007.8125,
      "d": 714.84375,
      "v": 92
    },
    {
      "midi": 57,
      "hit": false,
      "t": 15011.71875,
      "d": 714.84375,
      "v": 90
    },
    {
      "midi": 74,
      "hit": false,
      "t": 15125,
      "d": 128.90625,
      "v": 102
    },
    {
      "midi": 77,
      "hit": false,
      "t": 15250,
      "d": 136.71875,
      "v": 99
    },
    {
      "midi": 81,
      "hit": false,
      "t": 15378.90625,
      "d": 136.71875,
      "v": 103
    },
    {
      "midi": 77,
      "hit": false,
      "t": 15503.90625,
      "d": 105.46875,
      "v": 90
    },
    {
      "midi": 74,
      "hit": false,
      "t": 15628.90625,
      "d": 117.1875,
      "v": 99
    },
    {
      "midi": 68,
      "hit": false,
      "t": 15750,
      "d": 128.90625,
      "v": 92
    },
    {
      "midi": 56,
      "hit": false,
      "t": 15753.90625,
      "d": 679.6875,
      "v": 73
    },
    {
      "midi": 52,
      "hit": false,
      "t": 15761.71875,
      "d": 671.875,
      "v": 72
    },
    {
      "midi": 71,
      "hit": false,
      "t": 15875,
      "d": 121.09375,
      "v": 90
    },
    {
      "midi": 76,
      "hit": false,
      "t": 16003.90625,
      "d": 121.09375,
      "v": 90
    },
    {
      "midi": 80,
      "hit": false,
      "t": 16132.8125,
      "d": 140.625,
      "v": 107
    },
    {
      "midi": 76,
      "hit": false,
      "t": 16261.71875,
      "d": 113.28125,
      "v": 93
    },
    {
      "midi": 71,
      "hit": false,
      "t": 16378.90625,
      "d": 117.1875,
      "v": 96
    },
    {
      "midi": 69,
      "hit": false,
      "t": 16500,
      "d": 121.09375,
      "v": 103
    },
    {
      "midi": 57,
      "hit": false,
      "t": 16515.625,
      "d": 1417.96875,
      "v": 87
    },
    {
      "midi": 52,
      "hit": false,
      "t": 16519.53125,
      "d": 1394.53125,
      "v": 76
    },
    {
      "midi": 73,
      "hit": false,
      "t": 16625,
      "d": 125,
      "v": 90
    },
    {
      "midi": 76,
      "hit": false,
      "t": 16753.90625,
      "d": 117.1875,
      "v": 97
    },
    {
      "midi": 81,
      "hit": false,
      "t": 16875,
      "d": 136.71875,
      "v": 113
    },
    {
      "midi": 76,
      "hit": false,
      "t": 17007.8125,
      "d": 109.375,
      "v": 92
    },
    {
      "midi": 73,
      "hit": false,
      "t": 17125,
      "d": 132.8125,
      "v": 91
    },
    {
      "midi": 69,
      "hit": false,
      "t": 17253.90625,
      "d": 125,
      "v": 107
    },
    {
      "midi": 73,
      "hit": false,
      "t": 17375,
      "d": 128.90625,
      "v": 92
    },
    {
      "midi": 76,
      "hit": false,
      "t": 17500,
      "d": 117.1875,
      "v": 95
    },
    {
      "midi": 81,
      "hit": false,
      "t": 17621.09375,
      "d": 136.71875,
      "v": 113
    },
    {
      "midi": 76,
      "hit": false,
      "t": 17750,
      "d": 117.1875,
      "v": 95
    },
    {
      "midi": 73,
      "hit": false,
      "t": 17871.09375,
      "d": 117.1875,
      "v": 93
    },
    {
      "midi": 68,
      "hit": false,
      "t": 18000,
      "d": 121.09375,
      "v": 84
    },
    {
      "midi": 56,
      "hit": false,
      "t": 18015.625,
      "d": 1378.90625,
      "v": 72
    },
    {
      "midi": 52,
      "hit": false,
      "t": 18019.53125,
      "d": 1375,
      "v": 61
    },
    {
      "midi": 71,
      "hit": false,
      "t": 18125,
      "d": 121.09375,
      "v": 88
    },
    {
      "midi": 76,
      "hit": false,
      "t": 18250,
      "d": 113.28125,
      "v": 87
    },
    {
      "midi": 80,
      "hit": false,
      "t": 18371.09375,
      "d": 136.71875,
      "v": 113
    },
    {
      "midi": 76,
      "hit": false,
      "t": 18500,
      "d": 121.09375,
      "v": 88
    },
    {
      "midi": 71,
      "hit": false,
      "t": 18628.90625,
      "d": 113.28125,
      "v": 93
    },
    {
      "midi": 68,
      "hit": false,
      "t": 18753.90625,
      "d": 132.8125,
      "v": 96
    },
    {
      "midi": 71,
      "hit": false,
      "t": 18882.8125,
      "d": 117.1875,
      "v": 92
    },
    {
      "midi": 76,
      "hit": false,
      "t": 19007.8125,
      "d": 113.28125,
      "v": 87
    },
    {
      "midi": 80,
      "hit": false,
      "t": 19132.8125,
      "d": 128.90625,
      "v": 113
    },
    {
      "midi": 76,
      "hit": false,
      "t": 19253.90625,
      "d": 117.1875,
      "v": 93
    },
    {
      "midi": 71,
      "hit": false,
      "t": 19382.8125,
      "d": 105.46875,
      "v": 76
    },
    {
      "midi": 66,
      "hit": false,
      "t": 19496.09375,
      "d": 117.1875,
      "v": 90
    },
    {
      "midi": 54,
      "hit": false,
      "t": 19500,
      "d": 1359.375,
      "v": 57
    },
    {
      "midi": 57,
      "hit": false,
      "t": 19503.90625,
      "d": 1351.5625,
      "v": 81
    },
    {
      "midi": 69,
      "hit": false,
      "t": 19628.90625,
      "d": 125,
      "v": 93
    },
    {
      "midi": 73,
      "hit": false,
      "t": 19750,
      "d": 132.8125,
      "v": 93
    },
    {
      "midi": 78,
      "hit": false,
      "t": 19875,
      "d": 128.90625,
      "v": 107
    },
    {
      "midi": 73,
      "hit": false,
      "t": 19996.09375,
      "d": 113.28125,
      "v": 97
    },
    {
      "midi": 69,
      "hit": false,
      "t": 20121.09375,
      "d": 117.1875,
      "v": 95
    },
    {
      "midi": 66,
      "hit": false,
      "t": 20250,
      "d": 113.28125,
      "v": 97
    },
    {
      "midi": 69,
      "hit": false,
      "t": 20375,
      "d": 117.1875,
      "v": 99
    },
    {
      "midi": 73,
      "hit": false,
      "t": 20488.28125,
      "d": 132.8125,
      "v": 92
    },
    {
      "midi": 78,
      "hit": false,
      "t": 20617.1875,
      "d": 140.625,
      "v": 100
    },
    {
      "midi": 73,
      "hit": false,
      "t": 20746.09375,
      "d": 117.1875,
      "v": 96
    },
    {
      "midi": 69,
      "hit": false,
      "t": 20871.09375,
      "d": 113.28125,
      "v": 93
    },
    {
      "midi": 68,
      "hit": false,
      "t": 20996.09375,
      "d": 128.90625,
      "v": 99
    },
    {
      "midi": 52,
      "hit": false,
      "t": 21007.8125,
      "d": 1367.1875,
      "v": 77
    },
    {
      "midi": 56,
      "hit": false,
      "t": 21011.71875,
      "d": 1347.65625,
      "v": 78
    },
    {
      "midi": 73,
      "hit": false,
      "t": 21125,
      "d": 132.8125,
      "v": 92
    },
    {
      "midi": 76,
      "hit": false,
      "t": 21250,
      "d": 113.28125,
      "v": 91
    },
    {
      "midi": 80,
      "hit": false,
      "t": 21371.09375,
      "d": 136.71875,
      "v": 111
    },
    {
      "midi": 76,
      "hit": false,
      "t": 21500,
      "d": 128.90625,
      "v": 84
    },
    {
      "midi": 73,
      "hit": false,
      "t": 21628.90625,
      "d": 121.09375,
      "v": 88
    },
    {
      "midi": 68,
      "hit": false,
      "t": 21753.90625,
      "d": 113.28125,
      "v": 100
    },
    {
      "midi": 73,
      "hit": false,
      "t": 21875,
      "d": 136.71875,
      "v": 83
    },
    {
      "midi": 76,
      "hit": false,
      "t": 22003.90625,
      "d": 117.1875,
      "v": 96
    },
    {
      "midi": 80,
      "hit": false,
      "t": 22132.8125,
      "d": 125,
      "v": 103
    },
    {
      "midi": 76,
      "hit": false,
      "t": 22246.09375,
      "d": 136.71875,
      "v": 90
    },
    {
      "midi": 73,
      "hit": false,
      "t": 22371.09375,
      "d": 121.09375,
      "v": 91
    },
    {
      "midi": 69,
      "hit": false,
      "t": 22503.90625,
      "d": 136.71875,
      "v": 109
    },
    {
      "midi": 54,
      "hit": false,
      "t": 22503.90625,
      "d": 652.34375,
      "v": 70
    },
    {
      "midi": 57,
      "hit": false,
      "t": 22507.8125,
      "d": 675.78125,
      "v": 85
    },
    {
      "midi": 74,
      "hit": false,
      "t": 22625,
      "d": 117.1875,
      "v": 105
    },
    {
      "midi": 78,
      "hit": false,
      "t": 22742.1875,
      "d": 121.09375,
      "v": 90
    },
    {
      "midi": 81,
      "hit": false,
      "t": 22875,
      "d": 109.375,
      "v": 113
    },
    {
      "midi": 78,
      "hit": false,
      "t": 22992.1875,
      "d": 128.90625,
      "v": 88
    },
    {
      "midi": 74,
      "hit": false,
      "t": 23125,
      "d": 128.90625,
      "v": 97
    },
    {
      "midi": 54,
      "hit": false,
      "t": 23238.28125,
      "d": 714.84375,
      "v": 78
    },
    {
      "midi": 59,
      "hit": false,
      "t": 23242.1875,
      "d": 722.65625,
      "v": 80
    },
    {
      "midi": 71,
      "hit": false,
      "t": 23261.71875,
      "d": 105.46875,
      "v": 96
    },
    {
      "midi": 74,
      "hit": false,
      "t": 23386.71875,
      "d": 125,
      "v": 100
    },
    {
      "midi": 78,
      "hit": false,
      "t": 23500,
      "d": 136.71875,
      "v": 95
    },
    {
      "midi": 83,
      "hit": false,
      "t": 23632.8125,
      "d": 121.09375,
      "v": 105
    },
    {
      "midi": 78,
      "hit": false,
      "t": 23750,
      "d": 113.28125,
      "v": 92
    },
    {
      "midi": 74,
      "hit": false,
      "t": 23878.90625,
      "d": 113.28125,
      "v": 96
    },
    {
      "midi": 68,
      "hit": false,
      "t": 24000,
      "d": 121.09375,
      "v": 96
    },
    {
      "midi": 56,
      "hit": false,
      "t": 24015.625,
      "d": 695.3125,
      "v": 73
    },
    {
      "midi": 52,
      "hit": false,
      "t": 24019.53125,
      "d": 679.6875,
      "v": 74
    },
    {
      "midi": 73,
      "hit": false,
      "t": 24128.90625,
      "d": 125,
      "v": 96
    },
    {
      "midi": 76,
      "hit": false,
      "t": 24250,
      "d": 109.375,
      "v": 88
    },
    {
      "midi": 80,
      "hit": false,
      "t": 24378.90625,
      "d": 121.09375,
      "v": 74
    },
    {
      "midi": 76,
      "hit": false,
      "t": 24496.09375,
      "d": 132.8125,
      "v": 87
    },
    {
      "midi": 73,
      "hit": false,
      "t": 24625,
      "d": 113.28125,
      "v": 96
    },
    {
      "midi": 70,
      "hit": false,
      "t": 24750,
      "d": 121.09375,
      "v": 85
    },
    {
      "midi": 54,
      "hit": false,
      "t": 24753.90625,
      "d": 718.75,
      "v": 76
    },
    {
      "midi": 58,
      "hit": false,
      "t": 24757.8125,
      "d": 714.84375,
      "v": 68
    },
    {
      "midi": 73,
      "hit": false,
      "t": 24871.09375,
      "d": 132.8125,
      "v": 92
    },
    {
      "midi": 76,
      "hit": false,
      "t": 25000,
      "d": 113.28125,
      "v": 92
    },
    {
      "midi": 80,
      "hit": false,
      "t": 25132.8125,
      "d": 128.90625,
      "v": 105
    },
    {
      "midi": 76,
      "hit": false,
      "t": 25250,
      "d": 132.8125,
      "v": 83
    },
    {
      "midi": 73,
      "hit": false,
      "t": 25378.90625,
      "d": 117.1875,
      "v": 92
    },
    {
      "midi": 71,
      "hit": false,
      "t": 25500,
      "d": 113.28125,
      "v": 96
    },
    {
      "midi": 54,
      "hit": false,
      "t": 25511.71875,
      "d": 660.15625,
      "v": 64
    },
    {
      "midi": 59,
      "hit": false,
      "t": 25515.625,
      "d": 656.25,
      "v": 60
    },
    {
      "midi": 74,
      "hit": false,
      "t": 25621.09375,
      "d": 128.90625,
      "v": 96
    },
    {
      "midi": 78,
      "hit": false,
      "t": 25746.09375,
      "d": 125,
      "v": 92
    },
    {
      "midi": 83,
      "hit": false,
      "t": 25875,
      "d": 132.8125,
      "v": 99
    },
    {
      "midi": 78,
      "hit": false,
      "t": 25996.09375,
      "d": 113.28125,
      "v": 93
    },
    {
      "midi": 74,
      "hit": false,
      "t": 26121.09375,
      "d": 132.8125,
      "v": 96
    },
    {
      "midi": 68,
      "hit": false,
      "t": 26246.09375,
      "d": 132.8125,
      "v": 93
    },
    {
      "midi": 59,
      "hit": false,
      "t": 26250,
      "d": 683.59375,
      "v": 70
    },
    {
      "midi": 56,
      "hit": false,
      "t": 26253.90625,
      "d": 675.78125,
      "v": 71
    },
    {
      "midi": 71,
      "hit": false,
      "t": 26375,
      "d": 125,
      "v": 84
    },
    {
      "midi": 76,
      "hit": false,
      "t": 26503.90625,
      "d": 113.28125,
      "v": 87
    },
    {
      "midi": 80,
      "hit": false,
      "t": 26628.90625,
      "d": 136.71875,
      "v": 109
    },
    {
      "midi": 76,
      "hit": false,
      "t": 26753.90625,
      "d": 121.09375,
      "v": 86
    },
    {
      "midi": 71,
      "hit": false,
      "t": 26871.09375,
      "d": 128.90625,
      "v": 92
    },
    {
      "midi": 69,
      "hit": false,
      "t": 26996.09375,
      "d": 140.625,
      "v": 100
    },
    {
      "midi": 52,
      "hit": false,
      "t": 27007.8125,
      "d": 1066.40625,
      "v": 66
    },
    {
      "midi": 57,
      "hit": false,
      "t": 27007.8125,
      "d": 1070.3125,
      "v": 82
    },
    {
      "midi": 73,
      "hit": false,
      "t": 27128.90625,
      "d": 128.90625,
      "v": 90
    },
    {
      "midi": 76,
      "hit": false,
      "t": 27253.90625,
      "d": 125,
      "v": 95
    },
    {
      "midi": 81,
      "hit": false,
      "t": 27378.90625,
      "d": 136.71875,
      "v": 113
    },
    {
      "midi": 76,
      "hit": false,
      "t": 27507.8125,
      "d": 121.09375,
      "v": 91
    },
    {
      "midi": 73,
      "hit": false,
      "t": 27636.71875,
      "d": 132.8125,
      "v": 91
    },
    {
      "midi": 69,
      "hit": false,
      "t": 27757.8125,
      "d": 218.75,
      "v": 111
    },
    {
      "midi": 57,
      "hit": false,
      "t": 28128.90625,
      "d": 39.0625,
      "v": 97
    },
    {
      "midi": 61,
      "hit": false,
      "t": 28132.8125,
      "d": 39.0625,
      "v": 99
    },
    {
      "midi": 45,
      "hit": false,
      "t": 28136.71875,
      "d": 27.34375,
      "v": 105
    },
    {
      "midi": 57,
      "hit": false,
      "t": 28144.53125,
      "d": 117.1875,
      "v": 82
    },
    {
      "midi": 59,
      "hit": false,
      "t": 28250,
      "d": 46.875,
      "v": 83
    },
    {
      "midi": 47,
      "hit": false,
      "t": 28253.90625,
      "d": 31.25,
      "v": 75
    },
    {
      "midi": 62,
      "hit": false,
      "t": 28261.71875,
      "d": 27.34375,
      "v": 97
    },
    {
      "midi": 59,
      "hit": false,
      "t": 28265.625,
      "d": 105.46875,
      "v": 77
    },
    {
      "midi": 61,
      "hit": false,
      "t": 28375,
      "d": 105.46875,
      "v": 75
    },
    {
      "midi": 61,
      "hit": false,
      "t": 28378.90625,
      "d": 31.25,
      "v": 88
    },
    {
      "midi": 49,
      "hit": false,
      "t": 28382.8125,
      "d": 23.4375,
      "v": 95
    },
    {
      "midi": 64,
      "hit": false,
      "t": 28386.71875,
      "d": 31.25,
      "v": 93
    },
    {
      "midi": 69,
      "hit": false,
      "t": 28500,
      "d": 371.09375,
      "v": 86
    },
    {
      "midi": 62,
      "hit": false,
      "t": 28500,
      "d": 851.5625,
      "v": 92
    },
    {
      "midi": 66,
      "hit": false,
      "t": 28500,
      "d": 863.28125,
      "v": 90
    },
    {
      "midi": 54,
      "hit": false,
      "t": 28500,
      "d": 1429.6875,
      "v": 66
    },
    {
      "midi": 62,
      "hit": false,
      "t": 28500,
      "d": 1441.40625,
      "v": 82
    },
    {
      "midi": 78,
      "hit": false,
      "t": 28867.1875,
      "d": 136.71875,
      "v": 75
    },
    {
      "midi": 69,
      "hit": false,
      "t": 28996.09375,
      "d": 261.71875,
      "v": 56
    },
    {
      "midi": 74,
      "hit": false,
      "t": 29117.1875,
      "d": 132.8125,
      "v": 83
    },
    {
      "midi": 78,
      "hit": false,
      "t": 29246.09375,
      "d": 132.8125,
      "v": 99
    },
    {
      "midi": 69,
      "hit": false,
      "t": 29371.09375,
      "d": 148.4375,
      "v": 90
    },
    {
      "midi": 74,
      "hit": false,
      "t": 29500,
      "d": 136.71875,
      "v": 107
    },
    {
      "midi": 78,
      "hit": false,
      "t": 29628.90625,
      "d": 128.90625,
      "v": 103
    },
    {
      "midi": 69,
      "hit": false,
      "t": 29753.90625,
      "d": 132.8125,
      "v": 105
    },
    {
      "midi": 78,
      "hit": false,
      "t": 29871.09375,
      "d": 125,
      "v": 92
    },
    {
      "midi": 61,
      "hit": false,
      "t": 29988.28125,
      "d": 527.34375,
      "v": 57
    },
    {
      "midi": 69,
      "hit": false,
      "t": 29992.1875,
      "d": 515.625,
      "v": 77
    },
    {
      "midi": 64,
      "hit": false,
      "t": 29996.09375,
      "d": 511.71875,
      "v": 46
    },
    {
      "midi": 57,
      "hit": false,
      "t": 30007.8125,
      "d": 1406.25,
      "v": 85
    },
    {
      "midi": 61,
      "hit": false,
      "t": 30007.8125,
      "d": 1414.0625,
      "v": 75
    },
    {
      "midi": 73,
      "hit": false,
      "t": 30500,
      "d": 132.8125,
      "v": 77
    },
    {
      "midi": 76,
      "hit": false,
      "t": 30625,
      "d": 132.8125,
      "v": 78
    },
    {
      "midi": 81,
      "hit": false,
      "t": 30753.90625,
      "d": 132.8125,
      "v": 111
    },
    {
      "midi": 73,
      "hit": false,
      "t": 30882.8125,
      "d": 132.8125,
      "v": 103
    },
    {
      "midi": 76,
      "hit": false,
      "t": 31003.90625,
      "d": 136.71875,
      "v": 99
    },
    {
      "midi": 69,
      "hit": false,
      "t": 31128.90625,
      "d": 128.90625,
      "v": 89
    },
    {
      "midi": 73,
      "hit": false,
      "t": 31246.09375,
      "d": 136.71875,
      "v": 89
    },
    {
      "midi": 64,
      "hit": false,
      "t": 31367.1875,
      "d": 128.90625,
      "v": 73
    },
    {
      "midi": 74,
      "hit": false,
      "t": 31500,
      "d": 296.875,
      "v": 90
    },
    {
      "midi": 64,
      "hit": false,
      "t": 31500,
      "d": 613.28125,
      "v": 78
    },
    {
      "midi": 68,
      "hit": false,
      "t": 31500,
      "d": 621.09375,
      "v": 82
    },
    {
      "midi": 52,
      "hit": false,
      "t": 31507.8125,
      "d": 1453.125,
      "v": 66
    },
    {
      "midi": 59,
      "hit": false,
      "t": 31511.71875,
      "d": 1449.21875,
      "v": 78
    },
    {
      "midi": 74,
      "hit": false,
      "t": 31886.71875,
      "d": 238.28125,
      "v": 86
    },
    {
      "midi": 80,
      "hit": false,
      "t": 32246.09375,
      "d": 140.625,
      "v": 64
    },
    {
      "midi": 74,
      "hit": false,
      "t": 32371.09375,
      "d": 136.71875,
      "v": 101
    },
    {
      "midi": 76,
      "hit": false,
      "t": 32488.28125,
      "d": 152.34375,
      "v": 85
    },
    {
      "midi": 68,
      "hit": false,
      "t": 32632.8125,
      "d": 230.46875,
      "v": 60
    },
    {
      "midi": 74,
      "hit": false,
      "t": 32867.1875,
      "d": 121.09375,
      "v": 78
    },
    {
      "midi": 69,
      "hit": false,
      "t": 33000,
      "d": 375,
      "v": 92
    },
    {
      "midi": 73,
      "hit": false,
      "t": 33000,
      "d": 742.1875,
      "v": 93
    },
    {
      "midi": 61,
      "hit": false,
      "t": 33003.90625,
      "d": 1460.9375,
      "v": 71
    },
    {
      "midi": 57,
      "hit": false,
      "t": 33003.90625,
      "d": 1472.65625,
      "v": 87
    },
    {
      "midi": 76,
      "hit": false,
      "t": 33386.71875,
      "d": 343.75,
      "v": 86
    },
    {
      "midi": 81,
      "hit": false,
      "t": 33734.375,
      "d": 144.53125,
      "v": 78
    },
    {
      "midi": 73,
      "hit": false,
      "t": 33867.1875,
      "d": 132.8125,
      "v": 86
    },
    {
      "midi": 76,
      "hit": false,
      "t": 33988.28125,
      "d": 136.71875,
      "v": 101
    },
    {
      "midi": 69,
      "hit": false,
      "t": 34125,
      "d": 132.8125,
      "v": 111
    },
    {
      "midi": 73,
      "hit": false,
      "t": 34246.09375,
      "d": 125,
      "v": 95
    },
    {
      "midi": 76,
      "hit": false,
      "t": 34367.1875,
      "d": 121.09375,
      "v": 85
    },
    {
      "midi": 73,
      "hit": false,
      "t": 34500,
      "d": 1125,
      "v": 66
    },
    {
      "midi": 76,
      "hit": false,
      "t": 34500,
      "d": 1125,
      "v": 93
    },
    {
      "midi": 80,
      "hit": false,
      "t": 34500,
      "d": 1132.8125,
      "v": 89
    },
    {
      "midi": 56,
      "hit": false,
      "t": 34531.25,
      "d": 1359.375,
      "v": 76
    },
    {
      "midi": 52,
      "hit": false,
      "t": 34535.15625,
      "d": 1332.03125,
      "v": 69
    },
    {
      "midi": 49,
      "hit": false,
      "t": 35371.09375,
      "d": 472.65625,
      "v": 90
    },
    {
      "midi": 56,
      "hit": false,
      "t": 35500,
      "d": 371.09375,
      "v": 81
    },
    {
      "midi": 80,
      "hit": false,
      "t": 35636.71875,
      "d": 351.5625,
      "v": 89
    },
    {
      "midi": 73,
      "hit": false,
      "t": 35640.625,
      "d": 343.75,
      "v": 105
    },
    {
      "midi": 76,
      "hit": false,
      "t": 35640.625,
      "d": 347.65625,
      "v": 97
    },
    {
      "midi": 61,
      "hit": false,
      "t": 35882.8125,
      "d": 105.46875,
      "v": 71
    },
    {
      "midi": 73,
      "hit": false,
      "t": 36007.8125,
      "d": 714.84375,
      "v": 85
    },
    {
      "midi": 76,
      "hit": false,
      "t": 36011.71875,
      "d": 722.65625,
      "v": 86
    },
    {
      "midi": 70,
      "hit": false,
      "t": 36015.625,
      "d": 699.21875,
      "v": 68
    },
    {
      "midi": 80,
      "hit": false,
      "t": 36015.625,
      "d": 726.5625,
      "v": 66
    },
    {
      "midi": 54,
      "hit": false,
      "t": 36019.53125,
      "d": 1292.96875,
      "v": 74
    },
    {
      "midi": 58,
      "hit": false,
      "t": 36019.53125,
      "d": 1304.6875,
      "v": 71
    },
    {
      "midi": 54,
      "hit": false,
      "t": 36503.90625,
      "d": 121.09375,
      "v": 77
    },
    {
      "midi": 61,
      "hit": false,
      "t": 36625,
      "d": 113.28125,
      "v": 86
    },
    {
      "midi": 73,
      "hit": false,
      "t": 36734.375,
      "d": 429.6875,
      "v": 57
    },
    {
      "midi": 66,
      "hit": false,
      "t": 36742.1875,
      "d": 460.9375,
      "v": 63
    },
    {
      "midi": 70,
      "hit": false,
      "t": 36746.09375,
      "d": 417.96875,
      "v": 69
    },
    {
      "midi": 73,
      "hit": false,
      "t": 37250,
      "d": 218.75,
      "v": 95
    },
    {
      "midi": 76,
      "hit": false,
      "t": 37253.90625,
      "d": 203.125,
      "v": 92
    },
    {
      "midi": 70,
      "hit": false,
      "t": 37257.8125,
      "d": 101.5625,
      "v": 82
    },
    {
      "midi": 70,
      "hit": false,
      "t": 37378.90625,
      "d": 93.75,
      "v": 43
    },
    {
      "midi": 74,
      "hit": false,
      "t": 37500,
      "d": 347.65625,
      "v": 95
    },
    {
      "midi": 78,
      "hit": false,
      "t": 37500,
      "d": 351.5625,
      "v": 90
    },
    {
      "midi": 54,
      "hit": false,
      "t": 37503.90625,
      "d": 1382.8125,
      "v": 82
    },
    {
      "midi": 59,
      "hit": false,
      "t": 37503.90625,
      "d": 1402.34375,
      "v": 69
    },
    {
      "midi": 50,
      "hit": false,
      "t": 37628.90625,
      "d": 117.1875,
      "v": 86
    },
    {
      "midi": 59,
      "hit": false,
      "t": 37742.1875,
      "d": 132.8125,
      "v": 90
    },
    {
      "midi": 74,
      "hit": false,
      "t": 37863.28125,
      "d": 316.40625,
      "v": 85
    },
    {
      "midi": 78,
      "hit": false,
      "t": 37867.1875,
      "d": 359.375,
      "v": 86
    },
    {
      "midi": 62,
      "hit": false,
      "t": 37871.09375,
      "d": 125,
      "v": 89
    },
    {
      "midi": 59,
      "hit": false,
      "t": 37996.09375,
      "d": 109.375,
      "v": 75
    },
    {
      "midi": 62,
      "hit": false,
      "t": 38109.375,
      "d": 125,
      "v": 76
    },
    {
      "midi": 74,
      "hit": false,
      "t": 38234.375,
      "d": 351.5625,
      "v": 92
    },
    {
      "midi": 71,
      "hit": false,
      "t": 38238.28125,
      "d": 363.28125,
      "v": 76
    },
    {
      "midi": 47,
      "hit": false,
      "t": 38367.1875,
      "d": 125,
      "v": 73
    },
    {
      "midi": 78,
      "hit": false,
      "t": 38472.65625,
      "d": 19.53125,
      "v": 48
    },
    {
      "midi": 54,
      "hit": false,
      "t": 38488.28125,
      "d": 132.8125,
      "v": 82
    },
    {
      "midi": 74,
      "hit": false,
      "t": 38613.28125,
      "d": 351.5625,
      "v": 103
    },
    {
      "midi": 59,
      "hit": false,
      "t": 38617.1875,
      "d": 140.625,
      "v": 86
    },
    {
      "midi": 78,
      "hit": false,
      "t": 38617.1875,
      "d": 351.5625,
      "v": 93
    },
    {
      "midi": 62,
      "hit": false,
      "t": 38742.1875,
      "d": 117.1875,
      "v": 85
    },
    {
      "midi": 59,
      "hit": false,
      "t": 38863.28125,
      "d": 105.46875,
      "v": 80
    },
    {
      "midi": 81,
      "hit": false,
      "t": 39000,
      "d": 148.4375,
      "v": 117
    },
    {
      "midi": 69,
      "hit": false,
      "t": 39000,
      "d": 691.40625,
      "v": 115
    },
    {
      "midi": 53,
      "hit": false,
      "t": 39011.71875,
      "d": 707.03125,
      "v": 81
    },
    {
      "midi": 57,
      "hit": false,
      "t": 39015.625,
      "d": 707.03125,
      "v": 86
    },
    {
      "midi": 74,
      "hit": false,
      "t": 39117.1875,
      "d": 253.90625,
      "v": 103
    },
    {
      "midi": 77,
      "hit": false,
      "t": 39238.28125,
      "d": 140.625,
      "v": 86
    },
    {
      "midi": 81,
      "hit": false,
      "t": 39371.09375,
      "d": 148.4375,
      "v": 117
    },
    {
      "midi": 77,
      "hit": false,
      "t": 39496.09375,
      "d": 140.625,
      "v": 80
    },
    {
      "midi": 74,
      "hit": false,
      "t": 39621.09375,
      "d": 97.65625,
      "v": 83
    },
    {
      "midi": 68,
      "hit": false,
      "t": 39746.09375,
      "d": 746.09375,
      "v": 109
    },
    {
      "midi": 80,
      "hit": false,
      "t": 39750,
      "d": 113.28125,
      "v": 113
    },
    {
      "midi": 56,
      "hit": false,
      "t": 39761.71875,
      "d": 664.0625,
      "v": 76
    },
    {
      "midi": 52,
      "hit": false,
      "t": 39765.625,
      "d": 660.15625,
      "v": 68
    },
    {
      "midi": 71,
      "hit": false,
      "t": 39871.09375,
      "d": 265.625,
      "v": 57
    },
    {
      "midi": 76,
      "hit": false,
      "t": 39992.1875,
      "d": 136.71875,
      "v": 89
    },
    {
      "midi": 80,
      "hit": false,
      "t": 40125,
      "d": 132.8125,
      "v": 111
    },
    {
      "midi": 76,
      "hit": false,
      "t": 40246.09375,
      "d": 136.71875,
      "v": 80
    },
    {
      "midi": 71,
      "hit": false,
      "t": 40375,
      "d": 113.28125,
      "v": 57
    },
    {
      "midi": 69,
      "hit": false,
      "t": 40500,
      "d": 128.90625,
      "v": 119
    },
    {
      "midi": 57,
      "hit": false,
      "t": 40511.71875,
      "d": 1476.5625,
      "v": 87
    },
    {
      "midi": 52,
      "hit": false,
      "t": 40515.625,
      "d": 1449.21875,
      "v": 74
    },
    {
      "midi": 73,
      "hit": false,
      "t": 40625,
      "d": 117.1875,
      "v": 89
    },
    {
      "midi": 76,
      "hit": false,
      "t": 40746.09375,
      "d": 136.71875,
      "v": 89
    },
    {
      "midi": 81,
      "hit": false,
      "t": 40882.8125,
      "d": 132.8125,
      "v": 111
    },
    {
      "midi": 76,
      "hit": false,
      "t": 41011.71875,
      "d": 121.09375,
      "v": 85
    },
    {
      "midi": 73,
      "hit": false,
      "t": 41136.71875,
      "d": 121.09375,
      "v": 85
    },
    {
      "midi": 69,
      "hit": false,
      "t": 41257.8125,
      "d": 128.90625,
      "v": 113
    },
    {
      "midi": 73,
      "hit": false,
      "t": 41382.8125,
      "d": 117.1875,
      "v": 87
    },
    {
      "midi": 76,
      "hit": false,
      "t": 41500,
      "d": 117.1875,
      "v": 90
    },
    {
      "midi": 81,
      "hit": false,
      "t": 41628.90625,
      "d": 136.71875,
      "v": 113
    },
    {
      "midi": 76,
      "hit": false,
      "t": 41757.8125,
      "d": 113.28125,
      "v": 83
    },
    {
      "midi": 73,
      "hit": false,
      "t": 41871.09375,
      "d": 113.28125,
      "v": 92
    },
    {
      "midi": 68,
      "hit": false,
      "t": 41996.09375,
      "d": 125,
      "v": 105
    },
    {
      "midi": 59,
      "hit": false,
      "t": 42023.4375,
      "d": 1410.15625,
      "v": 74
    },
    {
      "midi": 56,
      "hit": false,
      "t": 42027.34375,
      "d": 1398.4375,
      "v": 73
    },
    {
      "midi": 71,
      "hit": false,
      "t": 42121.09375,
      "d": 117.1875,
      "v": 97
    },
    {
      "midi": 76,
      "hit": false,
      "t": 42246.09375,
      "d": 113.28125,
      "v": 99
    },
    {
      "midi": 80,
      "hit": false,
      "t": 42375,
      "d": 121.09375,
      "v": 109
    },
    {
      "midi": 76,
      "hit": false,
      "t": 42500,
      "d": 121.09375,
      "v": 95
    },
    {
      "midi": 71,
      "hit": false,
      "t": 42617.1875,
      "d": 128.90625,
      "v": 87
    },
    {
      "midi": 68,
      "hit": false,
      "t": 42750,
      "d": 121.09375,
      "v": 111
    },
    {
      "midi": 71,
      "hit": false,
      "t": 42875,
      "d": 121.09375,
      "v": 95
    },
    {
      "midi": 76,
      "hit": false,
      "t": 43003.90625,
      "d": 128.90625,
      "v": 101
    },
    {
      "midi": 80,
      "hit": false,
      "t": 43132.8125,
      "d": 125,
      "v": 107
    },
    {
      "midi": 76,
      "hit": false,
      "t": 43253.90625,
      "d": 121.09375,
      "v": 89
    },
    {
      "midi": 71,
      "hit": false,
      "t": 43367.1875,
      "d": 121.09375,
      "v": 87
    },
    {
      "midi": 66,
      "hit": false,
      "t": 43492.1875,
      "d": 121.09375,
      "v": 105
    },
    {
      "midi": 61,
      "hit": false,
      "t": 43496.09375,
      "d": 1382.8125,
      "v": 72
    },
    {
      "midi": 57,
      "hit": false,
      "t": 43500,
      "d": 1394.53125,
      "v": 82
    },
    {
      "midi": 69,
      "hit": false,
      "t": 43617.1875,
      "d": 125,
      "v": 103
    },
    {
      "midi": 73,
      "hit": false,
      "t": 43738.28125,
      "d": 128.90625,
      "v": 86
    },
    {
      "midi": 78,
      "hit": false,
      "t": 43871.09375,
      "d": 121.09375,
      "v": 105
    },
    {
      "midi": 73,
      "hit": false,
      "t": 43996.09375,
      "d": 121.09375,
      "v": 99
    },
    {
      "midi": 69,
      "hit": false,
      "t": 44121.09375,
      "d": 121.09375,
      "v": 87
    },
    {
      "midi": 66,
      "hit": false,
      "t": 44246.09375,
      "d": 125,
      "v": 109
    },
    {
      "midi": 69,
      "hit": false,
      "t": 44375,
      "d": 132.8125,
      "v": 86
    },
    {
      "midi": 73,
      "hit": false,
      "t": 44503.90625,
      "d": 117.1875,
      "v": 86
    },
    {
      "midi": 78,
      "hit": false,
      "t": 44625,
      "d": 128.90625,
      "v": 111
    },
    {
      "midi": 73,
      "hit": false,
      "t": 44750,
      "d": 117.1875,
      "v": 95
    },
    {
      "midi": 69,
      "hit": false,
      "t": 44875,
      "d": 109.375,
      "v": 97
    },
    {
      "midi": 68,
      "hit": false,
      "t": 45000,
      "d": 132.8125,
      "v": 109
    },
    {
      "midi": 61,
      "hit": false,
      "t": 45000,
      "d": 1386.71875,
      "v": 75
    },
    {
      "midi": 56,
      "hit": false,
      "t": 45003.90625,
      "d": 1382.8125,
      "v": 80
    },
    {
      "midi": 73,
      "hit": false,
      "t": 45121.09375,
      "d": 128.90625,
      "v": 68
    },
    {
      "midi": 76,
      "hit": false,
      "t": 45242.1875,
      "d": 113.28125,
      "v": 86
    },
    {
      "midi": 80,
      "hit": false,
      "t": 45367.1875,
      "d": 128.90625,
      "v": 105
    },
    {
      "midi": 76,
      "hit": false,
      "t": 45492.1875,
      "d": 117.1875,
      "v": 66
    },
    {
      "midi": 73,
      "hit": false,
      "t": 45617.1875,
      "d": 117.1875,
      "v": 54
    },
    {
      "midi": 68,
      "hit": false,
      "t": 45742.1875,
      "d": 144.53125,
      "v": 107
    },
    {
      "midi": 73,
      "hit": false,
      "t": 45871.09375,
      "d": 136.71875,
      "v": 95
    },
    {
      "midi": 76,
      "hit": false,
      "t": 45996.09375,
      "d": 113.28125,
      "v": 86
    },
    {
      "midi": 80,
      "hit": false,
      "t": 46121.09375,
      "d": 136.71875,
      "v": 109
    },
    {
      "midi": 76,
      "hit": false,
      "t": 46246.09375,
      "d": 144.53125,
      "v": 87
    },
    {
      "midi": 73,
      "hit": false,
      "t": 46371.09375,
      "d": 113.28125,
      "v": 85
    },
    {
      "midi": 69,
      "hit": false,
      "t": 46492.1875,
      "d": 148.4375,
      "v": 109
    },
    {
      "midi": 57,
      "hit": false,
      "t": 46507.8125,
      "d": 707.03125,
      "v": 82
    },
    {
      "midi": 54,
      "hit": false,
      "t": 46511.71875,
      "d": 691.40625,
      "v": 66
    },
    {
      "midi": 74,
      "hit": false,
      "t": 46621.09375,
      "d": 128.90625,
      "v": 90
    },
    {
      "midi": 78,
      "hit": false,
      "t": 46742.1875,
      "d": 128.90625,
      "v": 87
    },
    {
      "midi": 81,
      "hit": false,
      "t": 46875,
      "d": 121.09375,
      "v": 113
    },
    {
      "midi": 78,
      "hit": false,
      "t": 46988.28125,
      "d": 148.4375,
      "v": 82
    },
    {
      "midi": 74,
      "hit": false,
      "t": 47121.09375,
      "d": 121.09375,
      "v": 87
    },
    {
      "midi": 71,
      "hit": false,
      "t": 47250,
      "d": 117.1875,
      "v": 101
    },
    {
      "midi": 54,
      "hit": false,
      "t": 47253.90625,
      "d": 683.59375,
      "v": 70
    },
    {
      "midi": 59,
      "hit": false,
      "t": 47257.8125,
      "d": 648.4375,
      "v": 71
    },
    {
      "midi": 74,
      "hit": false,
      "t": 47375,
      "d": 125,
      "v": 93
    },
    {
      "midi": 78,
      "hit": false,
      "t": 47496.09375,
      "d": 136.71875,
      "v": 86
    },
    {
      "midi": 83,
      "hit": false,
      "t": 47628.90625,
      "d": 132.8125,
      "v": 103
    },
    {
      "midi": 78,
      "hit": false,
      "t": 47753.90625,
      "d": 125,
      "v": 90
    },
    {
      "midi": 74,
      "hit": false,
      "t": 47878.90625,
      "d": 121.09375,
      "v": 101
    },
    {
      "midi": 56,
      "hit": false,
      "t": 47992.1875,
      "d": 726.5625,
      "v": 76
    },
    {
      "midi": 59,
      "hit": false,
      "t": 47996.09375,
      "d": 722.65625,
      "v": 73
    },
    {
      "midi": 68,
      "hit": false,
      "t": 48003.90625,
      "d": 132.8125,
      "v": 109
    },
    {
      "midi": 73,
      "hit": false,
      "t": 48132.8125,
      "d": 125,
      "v": 89
    },
    {
      "midi": 76,
      "hit": false,
      "t": 48246.09375,
      "d": 113.28125,
      "v": 78
    },
    {
      "midi": 80,
      "hit": false,
      "t": 48371.09375,
      "d": 125,
      "v": 105
    },
    {
      "midi": 76,
      "hit": false,
      "t": 48492.1875,
      "d": 128.90625,
      "v": 71
    },
    {
      "midi": 73,
      "hit": false,
      "t": 48613.28125,
      "d": 117.1875,
      "v": 93
    },
    {
      "midi": 70,
      "hit": false,
      "t": 48742.1875,
      "d": 140.625,
      "v": 92
    },
    {
      "midi": 58,
      "hit": false,
      "t": 48746.09375,
      "d": 710.9375,
      "v": 70
    },
    {
      "midi": 54,
      "hit": false,
      "t": 48750,
      "d": 691.40625,
      "v": 71
    },
    {
      "midi": 73,
      "hit": false,
      "t": 48867.1875,
      "d": 128.90625,
      "v": 71
    },
    {
      "midi": 76,
      "hit": false,
      "t": 48992.1875,
      "d": 117.1875,
      "v": 78
    },
    {
      "midi": 80,
      "hit": false,
      "t": 49121.09375,
      "d": 136.71875,
      "v": 101
    },
    {
      "midi": 76,
      "hit": false,
      "t": 49246.09375,
      "d": 136.71875,
      "v": 74
    },
    {
      "midi": 73,
      "hit": false,
      "t": 49371.09375,
      "d": 117.1875,
      "v": 82
    },
    {
      "midi": 71,
      "hit": false,
      "t": 49496.09375,
      "d": 113.28125,
      "v": 105
    },
    {
      "midi": 54,
      "hit": false,
      "t": 49503.90625,
      "d": 703.125,
      "v": 66
    },
    {
      "midi": 59,
      "hit": false,
      "t": 49503.90625,
      "d": 703.125,
      "v": 71
    },
    {
      "midi": 74,
      "hit": false,
      "t": 49628.90625,
      "d": 132.8125,
      "v": 74
    },
    {
      "midi": 78,
      "hit": false,
      "t": 49746.09375,
      "d": 136.71875,
      "v": 82
    },
    {
      "midi": 83,
      "hit": false,
      "t": 49871.09375,
      "d": 144.53125,
      "v": 103
    },
    {
      "midi": 78,
      "hit": false,
      "t": 49996.09375,
      "d": 121.09375,
      "v": 90
    },
    {
      "midi": 74,
      "hit": false,
      "t": 50113.28125,
      "d": 125,
      "v": 90
    },
    {
      "midi": 68,
      "hit": false,
      "t": 50242.1875,
      "d": 128.90625,
      "v": 103
    },
    {
      "midi": 52,
      "hit": false,
      "t": 50250,
      "d": 710.9375,
      "v": 62
    },
    {
      "midi": 56,
      "hit": false,
      "t": 50253.90625,
      "d": 695.3125,
      "v": 71
    },
    {
      "midi": 71,
      "hit": false,
      "t": 50367.1875,
      "d": 125,
      "v": 77
    },
    {
      "midi": 76,
      "hit": false,
      "t": 50488.28125,
      "d": 113.28125,
      "v": 83
    },
    {
      "midi": 80,
      "hit": false,
      "t": 50609.375,
      "d": 148.4375,
      "v": 105
    },
    {
      "midi": 76,
      "hit": false,
      "t": 50750,
      "d": 121.09375,
      "v": 74
    },
    {
      "midi": 71,
      "hit": false,
      "t": 50867.1875,
      "d": 121.09375,
      "v": 75
    },
    {
      "midi": 69,
      "hit": false,
      "t": 50992.1875,
      "d": 148.4375,
      "v": 113
    },
    {
      "midi": 52,
      "hit": false,
      "t": 51007.8125,
      "d": 765.625,
      "v": 76
    },
    {
      "midi": 57,
      "hit": false,
      "t": 51011.71875,
      "d": 761.71875,
      "v": 80
    },
    {
      "midi": 73,
      "hit": false,
      "t": 51125,
      "d": 121.09375,
      "v": 82
    },
    {
      "midi": 76,
      "hit": false,
      "t": 51242.1875,
      "d": 136.71875,
      "v": 89
    },
    {
      "midi": 81,
      "hit": false,
      "t": 51375,
      "d": 140.625,
      "v": 115
    },
    {
      "midi": 76,
      "hit": false,
      "t": 51496.09375,
      "d": 121.09375,
      "v": 87
    },
    {
      "midi": 73,
      "hit": false,
      "t": 51617.1875,
      "d": 128.90625,
      "v": 90
    },
    {
      "midi": 69,
      "hit": false,
      "t": 51746.09375,
      "d": 128.90625,
      "v": 115
    },
    {
      "midi": 72,
      "hit": false,
      "t": 51867.1875,
      "d": 136.71875,
      "v": 105
    },
    {
      "midi": 77,
      "hit": false,
      "t": 51992.1875,
      "d": 132.8125,
      "v": 97
    },
    {
      "midi": 81,
      "hit": false,
      "t": 52128.90625,
      "d": 125,
      "v": 115
    },
    {
      "midi": 77,
      "hit": false,
      "t": 52250,
      "d": 121.09375,
      "v": 92
    },
    {
      "midi": 72,
      "hit": false,
      "t": 52363.28125,
      "d": 125,
      "v": 85
    },
    {
      "midi": 50,
      "hit": false,
      "t": 52500,
      "d": 1429.6875,
      "v": 76
    },
    {
      "midi": 34,
      "hit": false,
      "t": 52500,
      "d": 1449.21875,
      "v": 72
    },
    {
      "midi": 58,
      "hit": false,
      "t": 52500,
      "d": 1449.21875,
      "v": 80
    },
    {
      "midi": 70,
      "hit": false,
      "t": 52511.71875,
      "d": 125,
      "v": 97
    },
    {
      "midi": 74,
      "hit": false,
      "t": 52628.90625,
      "d": 117.1875,
      "v": 97
    },
    {
      "midi": 77,
      "hit": false,
      "t": 52742.1875,
      "d": 132.8125,
      "v": 83
    },
    {
      "midi": 82,
      "hit": false,
      "t": 52871.09375,
      "d": 128.90625,
      "v": 101
    },
    {
      "midi": 77,
      "hit": false,
      "t": 52996.09375,
      "d": 128.90625,
      "v": 113
    },
    {
      "midi": 74,
      "hit": false,
      "t": 53121.09375,
      "d": 121.09375,
      "v": 85
    },
    {
      "midi": 70,
      "hit": false,
      "t": 53242.1875,
      "d": 140.625,
      "v": 83
    },
    {
      "midi": 74,
      "hit": false,
      "t": 53367.1875,
      "d": 125,
      "v": 76
    },
    {
      "midi": 77,
      "hit": false,
      "t": 53484.375,
      "d": 144.53125,
      "v": 80
    },
    {
      "midi": 82,
      "hit": false,
      "t": 53621.09375,
      "d": 140.625,
      "v": 101
    },
    {
      "midi": 77,
      "hit": false,
      "t": 53746.09375,
      "d": 132.8125,
      "v": 105
    },
    {
      "midi": 74,
      "hit": false,
      "t": 53871.09375,
      "d": 128.90625,
      "v": 103
    },
    {
      "midi": 69,
      "hit": false,
      "t": 54003.90625,
      "d": 125,
      "v": 111
    },
    {
      "midi": 57,
      "hit": false,
      "t": 54023.4375,
      "d": 1378.90625,
      "v": 85
    },
    {
      "midi": 41,
      "hit": false,
      "t": 54027.34375,
      "d": 1386.71875,
      "v": 71
    },
    {
      "midi": 48,
      "hit": false,
      "t": 54027.34375,
      "d": 1386.71875,
      "v": 76
    },
    {
      "midi": 72,
      "hit": false,
      "t": 54125,
      "d": 128.90625,
      "v": 89
    },
    {
      "midi": 77,
      "hit": false,
      "t": 54250,
      "d": 128.90625,
      "v": 89
    },
    {
      "midi": 81,
      "hit": false,
      "t": 54378.90625,
      "d": 125,
      "v": 109
    },
    {
      "midi": 77,
      "hit": false,
      "t": 54500,
      "d": 121.09375,
      "v": 78
    },
    {
      "midi": 72,
      "hit": false,
      "t": 54625,
      "d": 117.1875,
      "v": 92
    },
    {
      "midi": 69,
      "hit": false,
      "t": 54746.09375,
      "d": 125,
      "v": 95
    },
    {
      "midi": 72,
      "hit": false,
      "t": 54871.09375,
      "d": 121.09375,
      "v": 92
    },
    {
      "midi": 77,
      "hit": false,
      "t": 54996.09375,
      "d": 140.625,
      "v": 90
    },
    {
      "midi": 81,
      "hit": false,
      "t": 55125,
      "d": 152.34375,
      "v": 107
    },
    {
      "midi": 77,
      "hit": false,
      "t": 55269.53125,
      "d": 109.375,
      "v": 81
    },
    {
      "midi": 72,
      "hit": false,
      "t": 55386.71875,
      "d": 117.1875,
      "v": 92
    },
    {
      "midi": 67,
      "hit": false,
      "t": 55503.90625,
      "d": 132.8125,
      "v": 101
    },
    {
      "midi": 43,
      "hit": false,
      "t": 55515.625,
      "d": 1394.53125,
      "v": 74
    },
    {
      "midi": 50,
      "hit": false,
      "t": 55519.53125,
      "d": 1367.1875,
      "v": 83
    },
    {
      "midi": 58,
      "hit": false,
      "t": 55523.4375,
      "d": 1382.8125,
      "v": 73
    },
    {
      "midi": 70,
      "hit": false,
      "t": 55628.90625,
      "d": 121.09375,
      "v": 56
    },
    {
      "midi": 74,
      "hit": false,
      "t": 55746.09375,
      "d": 128.90625,
      "v": 87
    },
    {
      "midi": 79,
      "hit": false,
      "t": 55871.09375,
      "d": 136.71875,
      "v": 107
    },
    {
      "midi": 74,
      "hit": false,
      "t": 55996.09375,
      "d": 117.1875,
      "v": 77
    },
    {
      "midi": 70,
      "hit": false,
      "t": 56121.09375,
      "d": 121.09375,
      "v": 63
    },
    {
      "midi": 67,
      "hit": false,
      "t": 56238.28125,
      "d": 148.4375,
      "v": 105
    },
    {
      "midi": 70,
      "hit": false,
      "t": 56371.09375,
      "d": 148.4375,
      "v": 71
    },
    {
      "midi": 74,
      "hit": false,
      "t": 56492.1875,
      "d": 132.8125,
      "v": 83
    },
    {
      "midi": 79,
      "hit": false,
      "t": 56621.09375,
      "d": 140.625,
      "v": 105
    },
    {
      "midi": 74,
      "hit": false,
      "t": 56746.09375,
      "d": 113.28125,
      "v": 86
    },
    {
      "midi": 70,
      "hit": false,
      "t": 56867.1875,
      "d": 117.1875,
      "v": 55
    },
    {
      "midi": 69,
      "hit": false,
      "t": 56988.28125,
      "d": 136.71875,
      "v": 107
    },
    {
      "midi": 57,
      "hit": false,
      "t": 57000,
      "d": 1492.1875,
      "v": 85
    },
    {
      "midi": 38,
      "hit": false,
      "t": 57003.90625,
      "d": 1480.46875,
      "v": 80
    },
    {
      "midi": 48,
      "hit": false,
      "t": 57007.8125,
      "d": 1484.375,
      "v": 82
    },
    {
      "midi": 74,
      "hit": false,
      "t": 57117.1875,
      "d": 128.90625,
      "v": 89
    },
    {
      "midi": 77,
      "hit": false,
      "t": 57253.90625,
      "d": 128.90625,
      "v": 85
    },
    {
      "midi": 81,
      "hit": false,
      "t": 57378.90625,
      "d": 140.625,
      "v": 107
    },
    {
      "midi": 77,
      "hit": false,
      "t": 57511.71875,
      "d": 121.09375,
      "v": 89
    },
    {
      "midi": 74,
      "hit": false,
      "t": 57628.90625,
      "d": 117.1875,
      "v": 89
    },
    {
      "midi": 69,
      "hit": false,
      "t": 57746.09375,
      "d": 128.90625,
      "v": 86
    },
    {
      "midi": 74,
      "hit": false,
      "t": 57863.28125,
      "d": 140.625,
      "v": 82
    },
    {
      "midi": 77,
      "hit": false,
      "t": 58000,
      "d": 140.625,
      "v": 89
    },
    {
      "midi": 81,
      "hit": false,
      "t": 58132.8125,
      "d": 132.8125,
      "v": 107
    },
    {
      "midi": 77,
      "hit": false,
      "t": 58253.90625,
      "d": 125,
      "v": 82
    },
    {
      "midi": 74,
      "hit": false,
      "t": 58378.90625,
      "d": 113.28125,
      "v": 83
    },
    {
      "midi": 67,
      "hit": false,
      "t": 58500,
      "d": 136.71875,
      "v": 73
    },
    {
      "midi": 55,
      "hit": false,
      "t": 58515.625,
      "d": 1378.90625,
      "v": 81
    },
    {
      "midi": 51,
      "hit": false,
      "t": 58523.4375,
      "d": 1367.1875,
      "v": 67
    },
    {
      "midi": 70,
      "hit": false,
      "t": 58621.09375,
      "d": 121.09375,
      "v": 71
    },
    {
      "midi": 75,
      "hit": false,
      "t": 58734.375,
      "d": 132.8125,
      "v": 97
    },
    {
      "midi": 79,
      "hit": false,
      "t": 58863.28125,
      "d": 117.1875,
      "v": 105
    },
    {
      "midi": 75,
      "hit": false,
      "t": 58980.46875,
      "d": 136.71875,
      "v": 74
    },
    {
      "midi": 70,
      "hit": false,
      "t": 59109.375,
      "d": 125,
      "v": 81
    },
    {
      "midi": 67,
      "hit": false,
      "t": 59242.1875,
      "d": 144.53125,
      "v": 109
    },
    {
      "midi": 72,
      "hit": false,
      "t": 59378.90625,
      "d": 125,
      "v": 85
    },
    {
      "midi": 75,
      "hit": false,
      "t": 59500,
      "d": 125,
      "v": 85
    },
    {
      "midi": 79,
      "hit": false,
      "t": 59628.90625,
      "d": 132.8125,
      "v": 101
    },
    {
      "midi": 75,
      "hit": false,
      "t": 59757.8125,
      "d": 125,
      "v": 83
    },
    {
      "midi": 72,
      "hit": false,
      "t": 59882.8125,
      "d": 113.28125,
      "v": 89
    },
    {
      "midi": 69,
      "hit": false,
      "t": 60003.90625,
      "d": 140.625,
      "v": 107
    },
    {
      "midi": 57,
      "hit": false,
      "t": 60003.90625,
      "d": 628.90625,
      "v": 74
    },
    {
      "midi": 53,
      "hit": false,
      "t": 60007.8125,
      "d": 617.1875,
      "v": 81
    },
    {
      "midi": 74,
      "hit": false,
      "t": 60132.8125,
      "d": 121.09375,
      "v": 80
    },
    {
      "midi": 77,
      "hit": false,
      "t": 60253.90625,
      "d": 121.09375,
      "v": 90
    },
    {
      "midi": 81,
      "hit": false,
      "t": 60375,
      "d": 140.625,
      "v": 109
    },
    {
      "midi": 77,
      "hit": false,
      "t": 60503.90625,
      "d": 113.28125,
      "v": 85
    },
    {
      "midi": 74,
      "hit": false,
      "t": 60625,
      "d": 125,
      "v": 83
    },
    {
      "midi": 55,
      "hit": false,
      "t": 60742.1875,
      "d": 750,
      "v": 76
    },
    {
      "midi": 50,
      "hit": false,
      "t": 60750,
      "d": 769.53125,
      "v": 66
    },
    {
      "midi": 71,
      "hit": false,
      "t": 60753.90625,
      "d": 121.09375,
      "v": 83
    },
    {
      "midi": 74,
      "hit": false,
      "t": 60871.09375,
      "d": 132.8125,
      "v": 85
    },
    {
      "midi": 77,
      "hit": false,
      "t": 61000,
      "d": 132.8125,
      "v": 85
    },
    {
      "midi": 81,
      "hit": false,
      "t": 61125,
      "d": 121.09375,
      "v": 95
    },
    {
      "midi": 74,
      "hit": false,
      "t": 61250,
      "d": 121.09375,
      "v": 63
    },
    {
      "midi": 77,
      "hit": false,
      "t": 61371.09375,
      "d": 101.5625,
      "v": 64
    },
    {
      "midi": 70,
      "hit": false,
      "t": 61500,
      "d": 667.96875,
      "v": 41
    },
    {
      "midi": 75,
      "hit": false,
      "t": 61500,
      "d": 679.6875,
      "v": 58
    },
    {
      "midi": 60,
      "hit": false,
      "t": 61500,
      "d": 687.5,
      "v": 54
    },
    {
      "midi": 48,
      "hit": false,
      "t": 61500,
      "d": 796.875,
      "v": 85
    },
    {
      "midi": 55,
      "hit": false,
      "t": 61500,
      "d": 820.3125,
      "v": 92
    },
    {
      "midi": 79,
      "hit": false,
      "t": 61523.4375,
      "d": 671.875,
      "v": 77
    },
    {
      "midi": 72,
      "hit": false,
      "t": 62320.3125,
      "d": 1960.9375,
      "v": 36
    },
    {
      "midi": 65,
      "hit": false,
      "t": 62328.125,
      "d": 1968.75,
      "v": 31
    },
    {
      "midi": 75,
      "hit": false,
      "t": 62351.5625,
      "d": 1945.3125,
      "v": 73
    },
    {
      "midi": 48,
      "hit": false,
      "t": 62367.1875,
      "d": 1292.96875,
      "v": 64
    },
    {
      "midi": 53,
      "hit": false,
      "t": 62371.09375,
      "d": 1292.96875,
      "v": 85
    },
    {
      "midi": 81,
      "hit": false,
      "t": 62375,
      "d": 1925.78125,
      "v": 82
    },
    {
      "midi": 70,
      "hit": false,
      "t": 64507.8125,
      "d": 125,
      "v": 82
    },
    {
      "midi": 58,
      "hit": false,
      "t": 64523.4375,
      "d": 710.9375,
      "v": 92
    },
    {
      "midi": 50,
      "hit": false,
      "t": 64523.4375,
      "d": 718.75,
      "v": 86
    },
    {
      "midi": 74,
      "hit": false,
      "t": 64628.90625,
      "d": 113.28125,
      "v": 93
    },
    {
      "midi": 77,
      "hit": false,
      "t": 64742.1875,
      "d": 140.625,
      "v": 89
    },
    {
      "midi": 82,
      "hit": false,
      "t": 64878.90625,
      "d": 148.4375,
      "v": 89
    },
    {
      "midi": 77,
      "hit": false,
      "t": 65011.71875,
      "d": 128.90625,
      "v": 107
    },
    {
      "midi": 74,
      "hit": false,
      "t": 65128.90625,
      "d": 117.1875,
      "v": 90
    },
    {
      "midi": 69,
      "hit": false,
      "t": 65257.8125,
      "d": 132.8125,
      "v": 101
    },
    {
      "midi": 53,
      "hit": false,
      "t": 65257.8125,
      "d": 718.75,
      "v": 89
    },
    {
      "midi": 57,
      "hit": false,
      "t": 65261.71875,
      "d": 730.46875,
      "v": 80
    },
    {
      "midi": 74,
      "hit": false,
      "t": 65378.90625,
      "d": 132.8125,
      "v": 95
    },
    {
      "midi": 77,
      "hit": false,
      "t": 65507.8125,
      "d": 132.8125,
      "v": 89
    },
    {
      "midi": 81,
      "hit": false,
      "t": 65636.71875,
      "d": 132.8125,
      "v": 92
    },
    {
      "midi": 77,
      "hit": false,
      "t": 65761.71875,
      "d": 105.46875,
      "v": 82
    },
    {
      "midi": 74,
      "hit": false,
      "t": 65875,
      "d": 113.28125,
      "v": 87
    },
    {
      "midi": 67,
      "hit": false,
      "t": 65996.09375,
      "d": 125,
      "v": 103
    },
    {
      "midi": 55,
      "hit": false,
      "t": 66003.90625,
      "d": 753.90625,
      "v": 90
    },
    {
      "midi": 51,
      "hit": false,
      "t": 66011.71875,
      "d": 738.28125,
      "v": 84
    },
    {
      "midi": 70,
      "hit": false,
      "t": 66125,
      "d": 125,
      "v": 81
    },
    {
      "midi": 75,
      "hit": false,
      "t": 66246.09375,
      "d": 121.09375,
      "v": 86
    },
    {
      "midi": 79,
      "hit": false,
      "t": 66378.90625,
      "d": 121.09375,
      "v": 99
    },
    {
      "midi": 75,
      "hit": false,
      "t": 66500,
      "d": 125,
      "v": 85
    },
    {
      "midi": 70,
      "hit": false,
      "t": 66621.09375,
      "d": 117.1875,
      "v": 72
    },
    {
      "midi": 69,
      "hit": false,
      "t": 66750,
      "d": 128.90625,
      "v": 109
    },
    {
      "midi": 53,
      "hit": false,
      "t": 66757.8125,
      "d": 753.90625,
      "v": 90
    },
    {
      "midi": 57,
      "hit": false,
      "t": 66757.8125,
      "d": 761.71875,
      "v": 96
    },
    {
      "midi": 72,
      "hit": false,
      "t": 66871.09375,
      "d": 128.90625,
      "v": 92
    },
    {
      "midi": 77,
      "hit": false,
      "t": 67003.90625,
      "d": 97.65625,
      "v": 86
    },
    {
      "midi": 81,
      "hit": false,
      "t": 67132.8125,
      "d": 125,
      "v": 92
    },
    {
      "midi": 48,
      "hit": false,
      "t": 67152.34375,
      "d": 355.46875,
      "v": 88
    },
    {
      "midi": 72,
      "hit": false,
      "t": 67312.5,
      "d": 128.90625,
      "v": 92
    },
    {
      "midi": 75,
      "hit": false,
      "t": 67320.3125,
      "d": 89.84375,
      "v": 94
    },
    {
      "midi": 70,
      "hit": false,
      "t": 67507.8125,
      "d": 3015.625,
      "v": 76
    },
    {
      "midi": 74,
      "hit": false,
      "t": 67523.4375,
      "d": 93.75,
      "v": 82
    },
    {
      "midi": 53,
      "hit": false,
      "t": 67531.25,
      "d": 2960.9375,
      "v": 81
    },
    {
      "midi": 46,
      "hit": false,
      "t": 67546.875,
      "d": 2945.3125,
      "v": 74
    }
  ]
}