{
  "jsonPath": "Soundtracks/Video Game Music/Gang Garrison 2/gang-garrison-2-ingamemusic.json",
  "path": "Soundtracks\\Video Game Music\\Gang Garrison 2\\Gang_Garrison_2_InGameMusic.mid",
  "name": "Gang_Garrison_2_InGameMusic",
  "difficulty": "Advanced",
  "bpm": 120,
  "notes": [
    {
      "midi": 28,
      "hit": false,
      "t": 0,
      "d": 255.20833333333334,
      "v": 127
    },
    {
      "midi": 28,
      "hit": false,
      "t": 255.20833333333334,
      "d": 250.00000000000003,
      "v": 127
    },
    {
      "midi": 28,
      "hit": false,
      "t": 505.20833333333337,
      "d": 244.79166666666663,
      "v": 127
    },
    {
      "midi": 31,
      "hit": false,
      "t": 755.2083333333334,
      "d": 250,
      "v": 127
    },
    {
      "midi": 31,
      "hit": false,
      "t": 1005.2083333333334,
      "d": 250.0000000000001,
      "v": 127
    },
    {
      "midi": 31,
      "hit": false,
      "t": 1255.2083333333335,
      "d": 244.79166666666674,
      "v": 127
    },
    {
      "midi": 28,
      "hit": false,
      "t": 1500.0000000000002,
      "d": 749.9999999999998,
      "v": 127
    },
    {
      "midi": 35,
      "hit": false,
      "t": 2250,
      "d": 250,
      "v": 127
    },
    {
      "midi": 35,
      "hit": false,
      "t": 2500,
      "d": 250,
      "v": 127
    },
    {
      "midi": 35,
      "hit": false,
      "t": 2750,
      "d": 244.79166666666652,
      "v": 127
    },
    {
      "midi": 33,
      "hit": false,
      "t": 2994.7916666666665,
      "d": 500,
      "v": 127
    },
    {
      "midi": 34,
      "hit": false,
      "t": 3500,
      "d": 250,
      "v": 127
    },
    {
      "midi": 34,
      "hit": false,
      "t": 3750,
      "d": 244.79166666666652,
      "v": 127
    },
    {
      "midi": 28,
      "hit": false,
      "t": 3994.7916666666665,
      "d": 255.20833333333348,
      "v": 127
    },
    {
      "midi": 28,
      "hit": false,
      "t": 4250,
      "d": 250,
      "v": 127
    },
    {
      "midi": 28,
      "hit": false,
      "t": 4500,
      "d": 244.79166666666697,
      "v": 127
    },
    {
      "midi": 31,
      "hit": false,
      "t": 4750,
      "d": 250,
      "v": 127
    },
    {
      "midi": 31,
      "hit": false,
      "t": 5000,
      "d": 250,
      "v": 127
    },
    {
      "midi": 31,
      "hit": false,
      "t": 5250,
      "d": 244.79166666666697,
      "v": 127
    },
    {
      "midi": 28,
      "hit": false,
      "t": 5494.791666666667,
      "d": 750,
      "v": 127
    },
    {
      "midi": 35,
      "hit": false,
      "t": 6250,
      "d": 250,
      "v": 127
    },
    {
      "midi": 35,
      "hit": false,
      "t": 6500,
      "d": 250,
      "v": 127
    },
    {
      "midi": 35,
      "hit": false,
      "t": 6750,
      "d": 244.79166666666697,
      "v": 127
    },
    {
      "midi": 34,
      "hit": false,
      "t": 6994.791666666667,
      "d": 255.20833333333303,
      "v": 127
    },
    {
      "midi": 34,
      "hit": false,
      "t": 7250,
      "d": 244.79166666666697,
      "v": 127
    },
    {
      "midi": 33,
      "hit": false,
      "t": 7494.791666666667,
      "d": 255.20833333333303,
      "v": 127
    },
    {
      "midi": 33,
      "hit": false,
      "t": 7750,
      "d": 244.79166666666697,
      "v": 127
    },
    {
      "midi": 28,
      "hit": false,
      "t": 7994.791666666667,
      "d": 255.20833333333303,
      "v": 127
    },
    {
      "midi": 28,
      "hit": false,
      "t": 8250,
      "d": 250,
      "v": 127
    },
    {
      "midi": 28,
      "hit": false,
      "t": 8500,
      "d": 244.79166666666606,
      "v": 127
    },
    {
      "midi": 31,
      "hit": false,
      "t": 8750,
      "d": 250,
      "v": 127
    },
    {
      "midi": 31,
      "hit": false,
      "t": 9000,
      "d": 250,
      "v": 127
    },
    {
      "midi": 31,
      "hit": false,
      "t": 9250,
      "d": 244.79166666666606,
      "v": 127
    },
    {
      "midi": 28,
      "hit": false,
      "t": 9494.791666666666,
      "d": 750,
      "v": 127
    },
    {
      "midi": 35,
      "hit": false,
      "t": 10250,
      "d": 250,
      "v": 127
    },
    {
      "midi": 35,
      "hit": false,
      "t": 10500,
      "d": 250,
      "v": 127
    },
    {
      "midi": 35,
      "hit": false,
      "t": 10750,
      "d": 244.79166666666606,
      "v": 127
    },
    {
      "midi": 33,
      "hit": false,
      "t": 10994.791666666666,
      "d": 500,
      "v": 127
    },
    {
      "midi": 34,
      "hit": false,
      "t": 11494.791666666666,
      "d": 255.20833333333394,
      "v": 127
    },
    {
      "midi": 34,
      "hit": false,
      "t": 11750,
      "d": 244.79166666666606,
      "v": 127
    },
    {
      "midi": 28,
      "hit": false,
      "t": 11994.791666666666,
      "d": 255.20833333333394,
      "v": 127
    },
    {
      "midi": 28,
      "hit": false,
      "t": 12250,
      "d": 250,
      "v": 127
    },
    {
      "midi": 28,
      "hit": false,
      "t": 12500,
      "d": 244.79166666666606,
      "v": 127
    },
    {
      "midi": 31,
      "hit": false,
      "t": 12750,
      "d": 250,
      "v": 127
    },
    {
      "midi": 31,
      "hit": false,
      "t": 13000,
      "d": 250,
      "v": 127
    },
    {
      "midi": 31,
      "hit": false,
      "t": 13250,
      "d": 244.79166666666606,
      "v": 127
    },
    {
      "midi": 28,
      "hit": false,
      "t": 13494.791666666666,
      "d": 755.2083333333339,
      "v": 127
    },
    {
      "midi": 28,
      "hit": false,
      "t": 14250,
      "d": 244.79166666666606,
      "v": 127
    },
    {
      "midi": 29,
      "hit": false,
      "t": 14500,
      "d": 494.79166666666606,
      "v": 127
    },
    {
      "midi": 30,
      "hit": false,
      "t": 14994.791666666666,
      "d": 255.20833333333394,
      "v": 127
    },
    {
      "midi": 30,
      "hit": false,
      "t": 15250,
      "d": 244.79166666666606,
      "v": 127
    },
    {
      "midi": 31,
      "hit": false,
      "t": 15494.791666666666,
      "d": 255.20833333333394,
      "v": 127
    },
    {
      "midi": 31,
      "hit": false,
      "t": 15750,
      "d": 244.79166666666606,
      "v": 127
    },
    {
      "midi": 28,
      "hit": false,
      "t": 15994.791666666666,
      "d": 255.20833333333394,
      "v": 127
    },
    {
      "midi": 64,
      "hit": false,
      "t": 16000,
      "d": 625,
      "v": 127
    },
    {
      "midi": 28,
      "hit": false,
      "t": 16250,
      "d": 250,
      "v": 127
    },
    {
      "midi": 28,
      "hit": false,
      "t": 16500,
      "d": 244.79166666666788,
      "v": 127
    },
    {
      "midi": 31,
      "hit": false,
      "t": 16744.791666666668,
      "d": 255.20833333333212,
      "v": 127
    },
    {
      "midi": 64,
      "hit": false,
      "t": 16750,
      "d": 500,
      "v": 127
    },
    {
      "midi": 31,
      "hit": false,
      "t": 17000,
      "d": 250,
      "v": 127
    },
    {
      "midi": 31,
      "hit": false,
      "t": 17250,
      "d": 244.79166666666788,
      "v": 127
    },
    {
      "midi": 28,
      "hit": false,
      "t": 17494.791666666668,
      "d": 750,
      "v": 127
    },
    {
      "midi": 69,
      "hit": false,
      "t": 17750,
      "d": 250,
      "v": 127
    },
    {
      "midi": 69,
      "hit": false,
      "t": 18000,
      "d": 250,
      "v": 127
    },
    {
      "midi": 35,
      "hit": false,
      "t": 18244.791666666668,
      "d": 255.20833333333212,
      "v": 127
    },
    {
      "midi": 67,
      "hit": false,
      "t": 18250,
      "d": 500,
      "v": 127
    },
    {
      "midi": 35,
      "hit": false,
      "t": 18500,
      "d": 250,
      "v": 127
    },
    {
      "midi": 35,
      "hit": false,
      "t": 18750,
      "d": 244.79166666666788,
      "v": 127
    },
    {
      "midi": 62,
      "hit": false,
      "t": 18750,
      "d": 500,
      "v": 127
    },
    {
      "midi": 33,
      "hit": false,
      "t": 18994.791666666668,
      "d": 505.2083333333321,
      "v": 127
    },
    {
      "midi": 64,
      "hit": false,
      "t": 19250,
      "d": 1500,
      "v": 127
    },
    {
      "midi": 34,
      "hit": false,
      "t": 19500,
      "d": 250,
      "v": 127
    },
    {
      "midi": 34,
      "hit": false,
      "t": 19750,
      "d": 244.79166666666788,
      "v": 127
    },
    {
      "midi": 28,
      "hit": false,
      "t": 19994.791666666668,
      "d": 255.20833333333212,
      "v": 127
    },
    {
      "midi": 28,
      "hit": false,
      "t": 20250,
      "d": 250,
      "v": 127
    },
    {
      "midi": 69,
      "hit": false,
      "t": 20250,
      "d": 500,
      "v": 127
    },
    {
      "midi": 28,
      "hit": false,
      "t": 20500,
      "d": 244.79166666666788,
      "v": 127
    },
    {
      "midi": 31,
      "hit": false,
      "t": 20750,
      "d": 250,
      "v": 127
    },
    {
      "midi": 64,
      "hit": false,
      "t": 20750,
      "d": 875,
      "v": 127
    },
    {
      "midi": 31,
      "hit": false,
      "t": 21000,
      "d": 250,
      "v": 127
    },
    {
      "midi": 67,
      "hit": false,
      "t": 21000,
      "d": 625,
      "v": 127
    },
    {
      "midi": 31,
      "hit": false,
      "t": 21250,
      "d": 244.79166666666788,
      "v": 127
    },
    {
      "midi": 28,
      "hit": false,
      "t": 21494.791666666668,
      "d": 750,
      "v": 127
    },
    {
      "midi": 72,
      "hit": false,
      "t": 21500,
      "d": 250,
      "v": 127
    },
    {
      "midi": 71,
      "hit": false,
      "t": 21750,
      "d": 1000,
      "v": 127
    },
    {
      "midi": 35,
      "hit": false,
      "t": 22250,
      "d": 250,
      "v": 127
    },
    {
      "midi": 35,
      "hit": false,
      "t": 22500,
      "d": 250,
      "v": 127
    },
    {
      "midi": 35,
      "hit": false,
      "t": 22750,
      "d": 244.79166666666788,
      "v": 127
    },
    {
      "midi": 71,
      "hit": false,
      "t": 22750,
      "d": 250,
      "v": 127
    },
    {
      "midi": 34,
      "hit": false,
      "t": 22994.791666666668,
      "d": 500,
      "v": 127
    },
    {
      "midi": 71,
      "hit": false,
      "t": 23000,
      "d": 250,
      "v": 127
    },
    {
      "midi": 69,
      "hit": false,
      "t": 23250,
      "d": 250,
      "v": 127
    },
    {
      "midi": 33,
      "hit": false,
      "t": 23494.791666666668,
      "d": 255.20833333333212,
      "v": 127
    },
    {
      "midi": 67,
      "hit": false,
      "t": 23500,
      "d": 250,
      "v": 127
    },
    {
      "midi": 33,
      "hit": false,
      "t": 23750,
      "d": 244.79166666666788,
      "v": 127
    },
    {
      "midi": 69,
      "hit": false,
      "t": 23750,
      "d": 250,
      "v": 127
    },
    {
      "midi": 28,
      "hit": false,
      "t": 23994.791666666668,
      "d": 255.20833333333212,
      "v": 127
    },
    {
      "midi": 64,
      "hit": false,
      "t": 24000,
      "d": 500,
      "v": 127
    },
    {
      "midi": 28,
      "hit": false,
      "t": 24250,
      "d": 250,
      "v": 127
    },
    {
      "midi": 28,
      "hit": false,
      "t": 24500,
      "d": 244.79166666666788,
      "v": 127
    },
    {
      "midi": 31,
      "hit": false,
      "t": 24750,
      "d": 250,
      "v": 127
    },
    {
      "midi": 64,
      "hit": false,
      "t": 24750,
      "d": 625,
      "v": 127
    },
    {
      "midi": 31,
      "hit": false,
      "t": 25000,
      "d": 250,
      "v": 127
    },
    {
      "midi": 31,
      "hit": false,
      "t": 25250,
      "d": 239.58333333333212,
      "v": 127
    },
    {
      "midi": 67,
      "hit": false,
      "t": 25250,
      "d": 250,
      "v": 127
    },
    {
      "midi": 28,
      "hit": false,
      "t": 25489.583333333332,
      "d": 755.2083333333321,
      "v": 127
    },
    {
      "midi": 69,
      "hit": false,
      "t": 25500,
      "d": 250,
      "v": 127
    },
    {
      "midi": 76,
      "hit": false,
      "t": 25500,
      "d": 500,
      "v": 127
    },
    {
      "midi": 71,
      "hit": false,
      "t": 25750,
      "d": 250,
      "v": 127
    },
    {
      "midi": 69,
      "hit": false,
      "t": 26000,
      "d": 250,
      "v": 127
    },
    {
      "midi": 74,
      "hit": false,
      "t": 26000,
      "d": 500,
      "v": 127
    },
    {
      "midi": 35,
      "hit": false,
      "t": 26244.791666666664,
      "d": 255.20833333333212,
      "v": 127
    },
    {
      "midi": 67,
      "hit": false,
      "t": 26250,
      "d": 250,
      "v": 127
    },
    {
      "midi": 35,
      "hit": false,
      "t": 26499.999999999996,
      "d": 250,
      "v": 127
    },
    {
      "midi": 69,
      "hit": false,
      "t": 26500,
      "d": 250,
      "v": 127
    },
    {
      "midi": 74,
      "hit": false,
      "t": 26500,
      "d": 500,
      "v": 127
    },
    {
      "midi": 35,
      "hit": false,
      "t": 26749.999999999996,
      "d": 244.79166666666788,
      "v": 127
    },
    {
      "midi": 67,
      "hit": false,
      "t": 26750,
      "d": 250,
      "v": 127
    },
    {
      "midi": 33,
      "hit": false,
      "t": 26999.999999999996,
      "d": 494.7916666666679,
      "v": 127
    },
    {
      "midi": 64,
      "hit": false,
      "t": 27000,
      "d": 250,
      "v": 127
    },
    {
      "midi": 71,
      "hit": false,
      "t": 27000,
      "d": 500,
      "v": 127
    },
    {
      "midi": 62,
      "hit": false,
      "t": 27250,
      "d": 250,
      "v": 127
    },
    {
      "midi": 34,
      "hit": false,
      "t": 27494.791666666664,
      "d": 255.20833333333212,
      "v": 127
    },
    {
      "midi": 59,
      "hit": false,
      "t": 27500,
      "d": 250,
      "v": 127
    },
    {
      "midi": 34,
      "hit": false,
      "t": 27749.999999999996,
      "d": 244.79166666666788,
      "v": 127
    },
    {
      "midi": 62,
      "hit": false,
      "t": 27750,
      "d": 250,
      "v": 127
    },
    {
      "midi": 28,
      "hit": false,
      "t": 27994.791666666664,
      "d": 255.20833333333212,
      "v": 127
    },
    {
      "midi": 64,
      "hit": false,
      "t": 28000,
      "d": 500,
      "v": 127
    },
    {
      "midi": 28,
      "hit": false,
      "t": 28249.999999999996,
      "d": 250,
      "v": 127
    },
    {
      "midi": 67,
      "hit": false,
      "t": 28250,
      "d": 625,
      "v": 127
    },
    {
      "midi": 28,
      "hit": false,
      "t": 28499.999999999996,
      "d": 244.79166666666788,
      "v": 127
    },
    {
      "midi": 31,
      "hit": false,
      "t": 28744.791666666664,
      "d": 255.20833333333212,
      "v": 127
    },
    {
      "midi": 64,
      "hit": false,
      "t": 28750,
      "d": 500,
      "v": 127
    },
    {
      "midi": 31,
      "hit": false,
      "t": 28999.999999999996,
      "d": 250,
      "v": 127
    },
    {
      "midi": 31,
      "hit": false,
      "t": 29249.999999999996,
      "d": 244.79166666666788,
      "v": 127
    },
    {
      "midi": 67,
      "hit": false,
      "t": 29250,
      "d": 500,
      "v": 127
    },
    {
      "midi": 28,
      "hit": false,
      "t": 29499.999999999996,
      "d": 750,
      "v": 127
    },
    {
      "midi": 62,
      "hit": false,
      "t": 29750,
      "d": 250,
      "v": 127
    },
    {
      "midi": 64,
      "hit": false,
      "t": 30000,
      "d": 500,
      "v": 127
    },
    {
      "midi": 28,
      "hit": false,
      "t": 30249.999999999996,
      "d": 244.79166666666788,
      "v": 127
    },
    {
      "midi": 29,
      "hit": false,
      "t": 30494.791666666664,
      "d": 500,
      "v": 127
    },
    {
      "midi": 65,
      "hit": false,
      "t": 30500,
      "d": 500,
      "v": 127
    },
    {
      "midi": 30,
      "hit": false,
      "t": 30994.791666666664,
      "d": 500,
      "v": 127
    },
    {
      "midi": 66,
      "hit": false,
      "t": 31000,
      "d": 250,
      "v": 127
    },
    {
      "midi": 71,
      "hit": false,
      "t": 31250,
      "d": 250,
      "v": 127
    },
    {
      "midi": 31,
      "hit": false,
      "t": 31494.791666666664,
      "d": 255.20833333333212,
      "v": 127
    },
    {
      "midi": 69,
      "hit": false,
      "t": 31500,
      "d": 250,
      "v": 127
    },
    {
      "midi": 31,
      "hit": false,
      "t": 31749.999999999996,
      "d": 244.79166666666788,
      "v": 127
    },
    {
      "midi": 67,
      "hit": false,
      "t": 31750,
      "d": 250,
      "v": 127
    },
    {
      "midi": 28,
      "hit": false,
      "t": 31994.791666666664,
      "d": 255.20833333333212,
      "v": 127
    },
    {
      "midi": 64,
      "hit": false,
      "t": 32000,
      "d": 500,
      "v": 127
    },
    {
      "midi": 28,
      "hit": false,
      "t": 32249.999999999996,
      "d": 250,
      "v": 127
    },
    {
      "midi": 28,
      "hit": false,
      "t": 32499.999999999996,
      "d": 244.79166666666788,
      "v": 127
    },
    {
      "midi": 67,
      "hit": false,
      "t": 32500,
      "d": 250,
      "v": 127
    },
    {
      "midi": 31,
      "hit": false,
      "t": 32744.791666666664,
      "d": 255.20833333333576,
      "v": 127
    },
    {
      "midi": 64,
      "hit": false,
      "t": 32750,
      "d": 250,
      "v": 127
    },
    {
      "midi": 31,
      "hit": false,
      "t": 33000,
      "d": 250,
      "v": 127
    },
    {
      "midi": 67,
      "hit": false,
      "t": 33000,
      "d": 500,
      "v": 127
    },
    {
      "midi": 31,
      "hit": false,
      "t": 33250,
      "d": 244.79166666666424,
      "v": 127
    },
    {
      "midi": 28,
      "hit": false,
      "t": 33494.791666666664,
      "d": 750,
      "v": 127
    },
    {
      "midi": 71,
      "hit": false,
      "t": 33500,
      "d": 250,
      "v": 127
    },
    {
      "midi": 69,
      "hit": false,
      "t": 33750,
      "d": 500,
      "v": 127
    },
    {
      "midi": 35,
      "hit": false,
      "t": 34244.791666666664,
      "d": 255.20833333333576,
      "v": 127
    },
    {
      "midi": 67,
      "hit": false,
      "t": 34250,
      "d": 500,
      "v": 127
    },
    {
      "midi": 35,
      "hit": false,
      "t": 34500,
      "d": 250,
      "v": 127
    },
    {
      "midi": 35,
      "hit": false,
      "t": 34750,
      "d": 244.79166666666424,
      "v": 127
    },
    {
      "midi": 71,
      "hit": false,
      "t": 34750,
      "d": 250,
      "v": 127
    },
    {
      "midi": 33,
      "hit": false,
      "t": 34994.791666666664,
      "d": 500,
      "v": 127
    },
    {
      "midi": 69,
      "hit": false,
      "t": 35000,
      "d": 250,
      "v": 127
    },
    {
      "midi": 67,
      "hit": false,
      "t": 35250,
      "d": 250,
      "v": 127
    },
    {
      "midi": 34,
      "hit": false,
      "t": 35494.791666666664,
      "d": 255.20833333333576,
      "v": 127
    },
    {
      "midi": 64,
      "hit": false,
      "t": 35500,
      "d": 250,
      "v": 127
    },
    {
      "midi": 34,
      "hit": false,
      "t": 35750,
      "d": 244.79166666666424,
      "v": 127
    },
    {
      "midi": 62,
      "hit": false,
      "t": 35750,
      "d": 250,
      "v": 127
    },
    {
      "midi": 28,
      "hit": false,
      "t": 35994.791666666664,
      "d": 255.20833333333576,
      "v": 127
    },
    {
      "midi": 64,
      "hit": false,
      "t": 36000,
      "d": 750,
      "v": 127
    },
    {
      "midi": 28,
      "hit": false,
      "t": 36250,
      "d": 250,
      "v": 127
    },
    {
      "midi": 28,
      "hit": false,
      "t": 36500,
      "d": 244.79166666666424,
      "v": 127
    },
    {
      "midi": 67,
      "hit": false,
      "t": 36500,
      "d": 500,
      "v": 127
    },
    {
      "midi": 31,
      "hit": false,
      "t": 36744.791666666664,
      "d": 255.20833333333576,
      "v": 127
    },
    {
      "midi": 64,
      "hit": false,
      "t": 36750,
      "d": 250,
      "v": 127
    },
    {
      "midi": 31,
      "hit": false,
      "t": 37000,
      "d": 250,
      "v": 127
    },
    {
      "midi": 67,
      "hit": false,
      "t": 37000,
      "d": 250,
      "v": 127
    },
    {
      "midi": 31,
      "hit": false,
      "t": 37250,
      "d": 244.79166666666424,
      "v": 127
    },
    {
      "midi": 74,
      "hit": false,
      "t": 37250,
      "d": 250,
      "v": 127
    },
    {
      "midi": 28,
      "hit": false,
      "t": 37494.791666666664,
      "d": 750,
      "v": 127
    },
    {
      "midi": 72,
      "hit": false,
      "t": 37500,
      "d": 250,
      "v": 127
    },
    {
      "midi": 71,
      "hit": false,
      "t": 37750,
      "d": 2125,
      "v": 127
    },
    {
      "midi": 35,
      "hit": false,
      "t": 38250,
      "d": 250,
      "v": 127
    },
    {
      "midi": 35,
      "hit": false,
      "t": 38500,
      "d": 250,
      "v": 127
    },
    {
      "midi": 35,
      "hit": false,
      "t": 38750,
      "d": 244.79166666666424,
      "v": 127
    },
    {
      "midi": 81,
      "hit": false,
      "t": 38750,
      "d": 250,
      "v": 127
    },
    {
      "midi": 34,
      "hit": false,
      "t": 38994.791666666664,
      "d": 255.20833333333576,
      "v": 127
    },
    {
      "midi": 83,
      "hit": false,
      "t": 39000,
      "d": 250,
      "v": 127
    },
    {
      "midi": 34,
      "hit": false,
      "t": 39250,
      "d": 244.79166666666424,
      "v": 127
    },
    {
      "midi": 81,
      "hit": false,
      "t": 39250,
      "d": 250,
      "v": 127
    },
    {
      "midi": 33,
      "hit": false,
      "t": 39494.791666666664,
      "d": 255.20833333333576,
      "v": 127
    },
    {
      "midi": 79,
      "hit": false,
      "t": 39500,
      "d": 250,
      "v": 127
    },
    {
      "midi": 33,
      "hit": false,
      "t": 39750,
      "d": 244.79166666666424,
      "v": 127
    },
    {
      "midi": 76,
      "hit": false,
      "t": 39750,
      "d": 500,
      "v": 127
    },
    {
      "midi": 28,
      "hit": false,
      "t": 39994.791666666664,
      "d": 255.20833333333576,
      "v": 127
    },
    {
      "midi": 64,
      "hit": false,
      "t": 40000,
      "d": 500,
      "v": 127
    },
    {
      "midi": 28,
      "hit": false,
      "t": 40250,
      "d": 250,
      "v": 127
    },
    {
      "midi": 28,
      "hit": false,
      "t": 40500,
      "d": 244.79166666666424,
      "v": 127
    },
    {
      "midi": 67,
      "hit": false,
      "t": 40500,
      "d": 250,
      "v": 127
    },
    {
      "midi": 31,
      "hit": false,
      "t": 40744.791666666664,
      "d": 255.20833333333576,
      "v": 127
    },
    {
      "midi": 64,
      "hit": false,
      "t": 40750,
      "d": 250,
      "v": 127
    },
    {
      "midi": 31,
      "hit": false,
      "t": 41000,
      "d": 250,
      "v": 127
    },
    {
      "midi": 67,
      "hit": false,
      "t": 41000,
      "d": 500,
      "v": 127
    },
    {
      "midi": 31,
      "hit": false,
      "t": 41250,
      "d": 244.79166666666424,
      "v": 127
    },
    {
      "midi": 28,
      "hit": false,
      "t": 41494.791666666664,
      "d": 750,
      "v": 127
    },
    {
      "midi": 64,
      "hit": false,
      "t": 41750,
      "d": 250,
      "v": 127
    },
    {
      "midi": 67,
      "hit": false,
      "t": 42000,
      "d": 250,
      "v": 127
    },
    {
      "midi": 35,
      "hit": false,
      "t": 42244.791666666664,
      "d": 255.20833333333576,
      "v": 127
    },
    {
      "midi": 64,
      "hit": false,
      "t": 42250,
      "d": 500,
      "v": 127
    },
    {
      "midi": 35,
      "hit": false,
      "t": 42500,
      "d": 494.79166666666424,
      "v": 127
    },
    {
      "midi": 62,
      "hit": false,
      "t": 42750,
      "d": 500,
      "v": 127
    },
    {
      "midi": 33,
      "hit": false,
      "t": 42994.791666666664,
      "d": 500,
      "v": 127
    },
    {
      "midi": 83,
      "hit": false,
      "t": 43250,
      "d": 250,
      "v": 127
    },
    {
      "midi": 76,
      "hit": false,
      "t": 43250,
      "d": 250,
      "v": 127
    },
    {
      "midi": 34,
      "hit": false,
      "t": 43494.791666666664,
      "d": 255.20833333333576,
      "v": 127
    },
    {
      "midi": 79,
      "hit": false,
      "t": 43500,
      "d": 500,
      "v": 127
    },
    {
      "midi": 34,
      "hit": false,
      "t": 43750,
      "d": 244.79166666666424,
      "v": 127
    },
    {
      "midi": 28,
      "hit": false,
      "t": 43994.791666666664,
      "d": 255.20833333333576,
      "v": 127
    },
    {
      "midi": 64,
      "hit": false,
      "t": 44000,
      "d": 250,
      "v": 127
    },
    {
      "midi": 28,
      "hit": false,
      "t": 44250,
      "d": 250,
      "v": 127
    },
    {
      "midi": 71,
      "hit": false,
      "t": 44250,
      "d": 250,
      "v": 127
    },
    {
      "midi": 28,
      "hit": false,
      "t": 44500,
      "d": 244.79166666666424,
      "v": 127
    },
    {
      "midi": 69,
      "hit": false,
      "t": 44500,
      "d": 250,
      "v": 127
    },
    {
      "midi": 31,
      "hit": false,
      "t": 44744.791666666664,
      "d": 255.20833333333576,
      "v": 127
    },
    {
      "midi": 67,
      "hit": false,
      "t": 44750,
      "d": 250,
      "v": 127
    },
    {
      "midi": 31,
      "hit": false,
      "t": 45000,
      "d": 250,
      "v": 127
    },
    {
      "midi": 69,
      "hit": false,
      "t": 45000,
      "d": 250,
      "v": 127
    },
    {
      "midi": 31,
      "hit": false,
      "t": 45250,
      "d": 244.79166666666424,
      "v": 127
    },
    {
      "midi": 67,
      "hit": false,
      "t": 45250,
      "d": 250,
      "v": 127
    },
    {
      "midi": 28,
      "hit": false,
      "t": 45494.791666666664,
      "d": 755.2083333333358,
      "v": 127
    },
    {
      "midi": 64,
      "hit": false,
      "t": 45500,
      "d": 250,
      "v": 127
    },
    {
      "midi": 62,
      "hit": false,
      "t": 45750,
      "d": 250,
      "v": 127
    },
    {
      "midi": 64,
      "hit": false,
      "t": 46000,
      "d": 250,
      "v": 127
    },
    {
      "midi": 28,
      "hit": false,
      "t": 46250,
      "d": 244.79166666666424,
      "v": 127
    },
    {
      "midi": 59,
      "hit": false,
      "t": 46250,
      "d": 250,
      "v": 127
    },
    {
      "midi": 29,
      "hit": false,
      "t": 46494.791666666664,
      "d": 255.20833333333576,
      "v": 127
    },
    {
      "midi": 79,
      "hit": false,
      "t": 46500,
      "d": 250,
      "v": 127
    },
    {
      "midi": 65,
      "hit": false,
      "t": 46500,
      "d": 375,
      "v": 127
    },
    {
      "midi": 29,
      "hit": false,
      "t": 46750,
      "d": 244.79166666666424,
      "v": 127
    },
    {
      "midi": 59,
      "hit": false,
      "t": 46750,
      "d": 250,
      "v": 127
    },
    {
      "midi": 30,
      "hit": false,
      "t": 47000,
      "d": 250,
      "v": 127
    },
    {
      "midi": 66,
      "hit": false,
      "t": 47000,
      "d": 250,
      "v": 127
    },
    {
      "midi": 76,
      "hit": false,
      "t": 47000,
      "d": 375,
      "v": 127
    },
    {
      "midi": 30,
      "hit": false,
      "t": 47250,
      "d": 244.79166666666424,
      "v": 127
    },
    {
      "midi": 59,
      "hit": false,
      "t": 47250,
      "d": 250,
      "v": 127
    },
    {
      "midi": 31,
      "hit": false,
      "t": 47500,
      "d": 250,
      "v": 127
    },
    {
      "midi": 74,
      "hit": false,
      "t": 47500,
      "d": 375,
      "v": 127
    },
    {
      "midi": 67,
      "hit": false,
      "t": 47500,
      "d": 375,
      "v": 127
    },
    {
      "midi": 31,
      "hit": false,
      "t": 47750,
      "d": 244.79166666666424,
      "v": 127
    },
    {
      "midi": 59,
      "hit": false,
      "t": 47750,
      "d": 250,
      "v": 127
    },
    {
      "midi": 28,
      "hit": false,
      "t": 47994.791666666664,
      "d": 255.20833333333576,
      "v": 127
    },
    {
      "midi": 64,
      "hit": false,
      "t": 48000,
      "d": 500,
      "v": 127
    },
    {
      "midi": 28,
      "hit": false,
      "t": 48250,
      "d": 250,
      "v": 127
    },
    {
      "midi": 28,
      "hit": false,
      "t": 48500,
      "d": 244.79166666666424,
      "v": 127
    },
    {
      "midi": 65,
      "hit": false,
      "t": 48500,
      "d": 250,
      "v": 127
    },
    {
      "midi": 31,
      "hit": false,
      "t": 48744.791666666664,
      "d": 255.20833333333576,
      "v": 127
    },
    {
      "midi": 64,
      "hit": false,
      "t": 48750,
      "d": 500,
      "v": 127
    },
    {
      "midi": 31,
      "hit": false,
      "t": 49000,
      "d": 250,
      "v": 127
    },
    {
      "midi": 31,
      "hit": false,
      "t": 49250,
      "d": 244.79166666666424,
      "v": 127
    },
    {
      "midi": 28,
      "hit": false,
      "t": 49494.791666666664,
      "d": 750,
      "v": 127
    },
    {
      "midi": 69,
      "hit": false,
      "t": 49750,
      "d": 250,
      "v": 127
    },
    {
      "midi": 69,
      "hit": false,
      "t": 50000,
      "d": 250,
      "v": 127
    },
    {
      "midi": 36,
      "hit": false,
      "t": 50250,
      "d": 244.79166666666424,
      "v": 127
    },
    {
      "midi": 74,
      "hit": false,
      "t": 50250,
      "d": 250,
      "v": 127
    },
    {
      "midi": 35,
      "hit": false,
      "t": 50494.791666666664,
      "d": 250,
      "v": 127
    },
    {
      "midi": 72,
      "hit": false,
      "t": 50500,
      "d": 250,
      "v": 127
    },
    {
      "midi": 33,
      "hit": false,
      "t": 50744.791666666664,
      "d": 250,
      "v": 127
    },
    {
      "midi": 71,
      "hit": false,
      "t": 50750,
      "d": 250,
      "v": 127
    },
    {
      "midi": 36,
      "hit": false,
      "t": 50994.791666666664,
      "d": 500,
      "v": 127
    },
    {
      "midi": 67,
      "hit": false,
      "t": 51000,
      "d": 250,
      "v": 127
    },
    {
      "midi": 69,
      "hit": false,
      "t": 51250,
      "d": 250,
      "v": 127
    },
    {
      "midi": 35,
      "hit": false,
      "t": 51494.791666666664,
      "d": 250,
      "v": 127
    },
    {
      "midi": 69,
      "hit": false,
      "t": 51500,
      "d": 500,
      "v": 127
    },
    {
      "midi": 33,
      "hit": false,
      "t": 51744.791666666664,
      "d": 250,
      "v": 127
    },
    {
      "midi": 31,
      "hit": false,
      "t": 51994.791666666664,
      "d": 255.20833333333576,
      "v": 127
    },
    {
      "midi": 64,
      "hit": false,
      "t": 52000,
      "d": 625,
      "v": 127
    },
    {
      "midi": 31,
      "hit": false,
      "t": 52250,
      "d": 250,
      "v": 127
    },
    {
      "midi": 31,
      "hit": false,
      "t": 52500,
      "d": 244.79166666666424,
      "v": 127
    },
    {
      "midi": 72,
      "hit": false,
      "t": 52500,
      "d": 250,
      "v": 127
    },
    {
      "midi": 33,
      "hit": false,
      "t": 52750,
      "d": 250,
      "v": 127
    },
    {
      "midi": 71,
      "hit": false,
      "t": 52750,
      "d": 250,
      "v": 127
    },
    {
      "midi": 33,
      "hit": false,
      "t": 53000,
      "d": 250,
      "v": 127
    },
    {
      "midi": 69,
      "hit": false,
      "t": 53000,
      "d": 250,
      "v": 127
    },
    {
      "midi": 33,
      "hit": false,
      "t": 53250,
      "d": 244.79166666666424,
      "v": 127
    },
    {
      "midi": 67,
      "hit": false,
      "t": 53250,
      "d": 250,
      "v": 127
    },
    {
      "midi": 28,
      "hit": false,
      "t": 53494.791666666664,
      "d": 505.20833333333576,
      "v": 127
    },
    {
      "midi": 71,
      "hit": false,
      "t": 53500,
      "d": 250,
      "v": 127
    },
    {
      "midi": 67,
      "hit": false,
      "t": 53750,
      "d": 250,
      "v": 127
    },
    {
      "midi": 28,
      "hit": false,
      "t": 54000,
      "d": 744.7916666666642,
      "v": 127
    },
    {
      "midi": 64,
      "hit": false,
      "t": 54000,
      "d": 1000,
      "v": 127
    },
    {
      "midi": 81,
      "hit": false,
      "t": 54500,
      "d": 250,
      "v": 127
    },
    {
      "midi": 33,
      "hit": false,
      "t": 54750,
      "d": 244.79166666666424,
      "v": 127
    },
    {
      "midi": 79,
      "hit": false,
      "t": 54750,
      "d": 375,
      "v": 127
    },
    {
      "midi": 36,
      "hit": false,
      "t": 55000,
      "d": 244.79166666666424,
      "v": 127
    },
    {
      "midi": 76,
      "hit": false,
      "t": 55000,
      "d": 375,
      "v": 127
    },
    {
      "midi": 67,
      "hit": false,
      "t": 55000,
      "d": 500,
      "v": 127
    },
    {
      "midi": 35,
      "hit": false,
      "t": 55244.791666666664,
      "d": 250,
      "v": 127
    },
    {
      "midi": 33,
      "hit": false,
      "t": 55494.791666666664,
      "d": 250,
      "v": 127
    },
    {
      "midi": 79,
      "hit": false,
      "t": 55500,
      "d": 625,
      "v": 127
    },
    {
      "midi": 69,
      "hit": false,
      "t": 55500,
      "d": 750,
      "v": 127
    },
    {
      "midi": 31,
      "hit": false,
      "t": 55750,
      "d": 244.79166666666424,
      "v": 127
    },
    {
      "midi": 28,
      "hit": false,
      "t": 55994.791666666664,
      "d": 255.20833333333576,
      "v": 127
    },
    {
      "midi": 64,
      "hit": false,
      "t": 56000,
      "d": 250,
      "v": 127
    },
    {
      "midi": 28,
      "hit": false,
      "t": 56250,
      "d": 250,
      "v": 127
    },
    {
      "midi": 64,
      "hit": false,
      "t": 56250,
      "d": 500,
      "v": 127
    },
    {
      "midi": 28,
      "hit": false,
      "t": 56500,
      "d": 244.79166666666424,
      "v": 127
    },
    {
      "midi": 31,
      "hit": false,
      "t": 56744.791666666664,
      "d": 255.20833333333576,
      "v": 127
    },
    {
      "midi": 67,
      "hit": false,
      "t": 56750,
      "d": 250,
      "v": 127
    },
    {
      "midi": 31,
      "hit": false,
      "t": 57000,
      "d": 250,
      "v": 127
    },
    {
      "midi": 67,
      "hit": false,
      "t": 57000,
      "d": 500,
      "v": 127
    },
    {
      "midi": 31,
      "hit": false,
      "t": 57250,
      "d": 244.79166666666424,
      "v": 127
    },
    {
      "midi": 28,
      "hit": false,
      "t": 57494.791666666664,
      "d": 750,
      "v": 127
    },
    {
      "midi": 71,
      "hit": false,
      "t": 57750,
      "d": 250,
      "v": 127
    },
    {
      "midi": 72,
      "hit": false,
      "t": 58000,
      "d": 250,
      "v": 127
    },
    {
      "midi": 36,
      "hit": false,
      "t": 58244.791666666664,
      "d": 255.20833333333576,
      "v": 127
    },
    {
      "midi": 71,
      "hit": false,
      "t": 58250,
      "d": 250,
      "v": 127
    },
    {
      "midi": 35,
      "hit": false,
      "t": 58500,
      "d": 244.79166666666424,
      "v": 127
    },
    {
      "midi": 76,
      "hit": false,
      "t": 58500,
      "d": 125,
      "v": 127
    },
    {
      "midi": 33,
      "hit": false,
      "t": 58744.791666666664,
      "d": 250,
      "v": 127
    },
    {
      "midi": 72,
      "hit": false,
      "t": 58750,
      "d": 250,
      "v": 127
    },
    {
      "midi": 36,
      "hit": false,
      "t": 58994.791666666664,
      "d": 500,
      "v": 127
    },
    {
      "midi": 71,
      "hit": false,
      "t": 59000,
      "d": 250,
      "v": 127
    },
    {
      "midi": 72,
      "hit": false,
      "t": 59250,
      "d": 125,
      "v": 127
    },
    {
      "midi": 71,
      "hit": false,
      "t": 59375,
      "d": 125,
      "v": 127
    },
    {
      "midi": 35,
      "hit": false,
      "t": 59500,
      "d": 244.79166666666424,
      "v": 127
    },
    {
      "midi": 69,
      "hit": false,
      "t": 59500,
      "d": 375,
      "v": 127
    },
    {
      "midi": 33,
      "hit": false,
      "t": 59744.791666666664,
      "d": 250,
      "v": 127
    },
    {
      "midi": 31,
      "hit": false,
      "t": 59994.791666666664,
      "d": 255.20833333333576,
      "v": 127
    },
    {
      "midi": 69,
      "hit": false,
      "t": 60000,
      "d": 125,
      "v": 127
    },
    {
      "midi": 79,
      "hit": false,
      "t": 60000,
      "d": 750,
      "v": 127
    },
    {
      "midi": 31,
      "hit": false,
      "t": 60250,
      "d": 250,
      "v": 127
    },
    {
      "midi": 69,
      "hit": false,
      "t": 60250,
      "d": 500,
      "v": 127
    },
    {
      "midi": 31,
      "hit": false,
      "t": 60500,
      "d": 244.79166666666424,
      "v": 127
    },
    {
      "midi": 33,
      "hit": false,
      "t": 60744.791666666664,
      "d": 255.20833333333576,
      "v": 127
    },
    {
      "midi": 71,
      "hit": false,
      "t": 60750,
      "d": 250,
      "v": 127
    },
    {
      "midi": 76,
      "hit": false,
      "t": 60750,
      "d": 750,
      "v": 127
    },
    {
      "midi": 33,
      "hit": false,
      "t": 61000,
      "d": 250,
      "v": 127
    },
    {
      "midi": 71,
      "hit": false,
      "t": 61000,
      "d": 250,
      "v": 127
    },
    {
      "midi": 33,
      "hit": false,
      "t": 61250,
      "d": 244.79166666666424,
      "v": 127
    },
    {
      "midi": 67,
      "hit": false,
      "t": 61250,
      "d": 250,
      "v": 127
    },
    {
      "midi": 28,
      "hit": false,
      "t": 61494.791666666664,
      "d": 755.2083333333358,
      "v": 127
    },
    {
      "midi": 79,
      "hit": false,
      "t": 61500,
      "d": 250,
      "v": 127
    },
    {
      "midi": 69,
      "hit": false,
      "t": 61500,
      "d": 250,
      "v": 127
    },
    {
      "midi": 64,
      "hit": false,
      "t": 61750,
      "d": 500,
      "v": 127
    },
    {
      "midi": 83,
      "hit": false,
      "t": 61750,
      "d": 1750,
      "v": 127
    },
    {
      "midi": 28,
      "hit": false,
      "t": 62250,
      "d": 244.79166666666424,
      "v": 127
    },
    {
      "midi": 62,
      "hit": false,
      "t": 62250,
      "d": 125,
      "v": 127
    },
    {
      "midi": 64,
      "hit": false,
      "t": 62375,
      "d": 125,
      "v": 127
    },
    {
      "midi": 29,
      "hit": false,
      "t": 62494.791666666664,
      "d": 505.20833333333576,
      "v": 127
    },
    {
      "midi": 65,
      "hit": false,
      "t": 62500,
      "d": 250,
      "v": 127
    },
    {
      "midi": 64,
      "hit": false,
      "t": 62750,
      "d": 125,
      "v": 127
    },
    {
      "midi": 65,
      "hit": false,
      "t": 62875,
      "d": 125,
      "v": 127
    },
    {
      "midi": 30,
      "hit": false,
      "t": 62994.791666666664,
      "d": 505.20833333333576,
      "v": 127
    },
    {
      "midi": 66,
      "hit": false,
      "t": 63000,
      "d": 250,
      "v": 127
    },
    {
      "midi": 65,
      "hit": false,
      "t": 63250,
      "d": 125,
      "v": 127
    },
    {
      "midi": 66,
      "hit": false,
      "t": 63375,
      "d": 125,
      "v": 127
    },
    {
      "midi": 31,
      "hit": false,
      "t": 63500,
      "d": 250,
      "v": 127
    },
    {
      "midi": 67,
      "hit": false,
      "t": 63500,
      "d": 500,
      "v": 127
    },
    {
      "midi": 31,
      "hit": false,
      "t": 63750,
      "d": 244.79166666666424,
      "v": 127
    },
    {
      "midi": 28,
      "hit": false,
      "t": 63994.791666666664,
      "d": 255.20833333333576,
      "v": 127
    },
    {
      "midi": 64,
      "hit": false,
      "t": 64000,
      "d": 1500,
      "v": 127
    },
    {
      "midi": 28,
      "hit": false,
      "t": 64250,
      "d": 250,
      "v": 127
    },
    {
      "midi": 28,
      "hit": false,
      "t": 64500,
      "d": 244.79166666666424,
      "v": 127
    },
    {
      "midi": 31,
      "hit": false,
      "t": 64750,
      "d": 250,
      "v": 127
    },
    {
      "midi": 31,
      "hit": false,
      "t": 65000,
      "d": 250,
      "v": 127
    },
    {
      "midi": 31,
      "hit": false,
      "t": 65250,
      "d": 244.79166666666424,
      "v": 127
    },
    {
      "midi": 28,
      "hit": false,
      "t": 65494.791666666664,
      "d": 749.9999999999927,
      "v": 127
    },
    {
      "midi": 35,
      "hit": false,
      "t": 66249.99999999999,
      "d": 250,
      "v": 127
    },
    {
      "midi": 35,
      "hit": false,
      "t": 66499.99999999999,
      "d": 250,
      "v": 127
    },
    {
      "midi": 35,
      "hit": false,
      "t": 66749.99999999999,
      "d": 244.79166666667152,
      "v": 127
    },
    {
      "midi": 33,
      "hit": false,
      "t": 66994.79166666666,
      "d": 500,
      "v": 127
    },
    {
      "midi": 34,
      "hit": false,
      "t": 67494.79166666666,
      "d": 255.20833333332848,
      "v": 127
    },
    {
      "midi": 34,
      "hit": false,
      "t": 67749.99999999999,
      "d": 244.79166666667152,
      "v": 127
    },
    {
      "midi": 28,
      "hit": false,
      "t": 67994.79166666666,
      "d": 255.20833333332848,
      "v": 127
    },
    {
      "midi": 28,
      "hit": false,
      "t": 68249.99999999999,
      "d": 250,
      "v": 127
    },
    {
      "midi": 28,
      "hit": false,
      "t": 68499.99999999999,
      "d": 244.79166666667152,
      "v": 127
    },
    {
      "midi": 31,
      "hit": false,
      "t": 68749.99999999999,
      "d": 250,
      "v": 127
    },
    {
      "midi": 31,
      "hit": false,
      "t": 68999.99999999999,
      "d": 250,
      "v": 127
    },
    {
      "midi": 31,
      "hit": false,
      "t": 69249.99999999999,
      "d": 244.79166666667152,
      "v": 127
    },
    {
      "midi": 28,
      "hit": false,
      "t": 69494.79166666666,
      "d": 750,
      "v": 127
    },
    {
      "midi": 35,
      "hit": false,
      "t": 70249.99999999999,
      "d": 250,
      "v": 127
    },
    {
      "midi": 35,
      "hit": false,
      "t": 70499.99999999999,
      "d": 250,
      "v": 127
    },
    {
      "midi": 35,
      "hit": false,
      "t": 70749.99999999999,
      "d": 244.79166666667152,
      "v": 127
    },
    {
      "midi": 34,
      "hit": false,
      "t": 70994.79166666666,
      "d": 255.20833333332848,
      "v": 127
    },
    {
      "midi": 34,
      "hit": false,
      "t": 71249.99999999999,
      "d": 244.79166666667152,
      "v": 127
    },
    {
      "midi": 33,
      "hit": false,
      "t": 71494.79166666666,
      "d": 255.20833333332848,
      "v": 127
    },
    {
      "midi": 33,
      "hit": false,
      "t": 71749.99999999999,
      "d": 244.79166666667152,
      "v": 127
    },
    {
      "midi": 28,
      "hit": false,
      "t": 71994.79166666666,
      "d": 255.20833333332848,
      "v": 127
    },
    {
      "midi": 28,
      "hit": false,
      "t": 72249.99999999999,
      "d": 250,
      "v": 127
    },
    {
      "midi": 28,
      "hit": false,
      "t": 72499.99999999999,
      "d": 244.79166666667152,
      "v": 127
    },
    {
      "midi": 31,
      "hit": false,
      "t": 72749.99999999999,
      "d": 250,
      "v": 127
    },
    {
      "midi": 31,
      "hit": false,
      "t": 72999.99999999999,
      "d": 250,
      "v": 127
    },
    {
      "midi": 31,
      "hit": false,
      "t": 73249.99999999999,
      "d": 244.79166666667152,
      "v": 127
    },
    {
      "midi": 28,
      "hit": false,
      "t": 73494.79166666666,
      "d": 750,
      "v": 127
    },
    {
      "midi": 35,
      "hit": false,
      "t": 74249.99999999999,
      "d": 250,
      "v": 127
    },
    {
      "midi": 35,
      "hit": false,
      "t": 74499.99999999999,
      "d": 250,
      "v": 127
    },
    {
      "midi": 35,
      "hit": false,
      "t": 74749.99999999999,
      "d": 244.79166666667152,
      "v": 127
    },
    {
      "midi": 33,
      "hit": false,
      "t": 74994.79166666666,
      "d": 500,
      "v": 127
    },
    {
      "midi": 34,
      "hit": false,
      "t": 75494.79166666666,
      "d": 255.20833333332848,
      "v": 127
    },
    {
      "midi": 34,
      "hit": false,
      "t": 75749.99999999999,
      "d": 244.79166666667152,
      "v": 127
    },
    {
      "midi": 28,
      "hit": false,
      "t": 75994.79166666666,
      "d": 255.20833333332848,
      "v": 127
    },
    {
      "midi": 28,
      "hit": false,
      "t": 76249.99999999999,
      "d": 250,
      "v": 127
    },
    {
      "midi": 28,
      "hit": false,
      "t": 76499.99999999999,
      "d": 244.79166666667152,
      "v": 127
    },
    {
      "midi": 31,
      "hit": false,
      "t": 76749.99999999999,
      "d": 250,
      "v": 127
    },
    {
      "midi": 31,
      "hit": false,
      "t": 76999.99999999999,
      "d": 250,
      "v": 127
    },
    {
      "midi": 31,
      "hit": false,
      "t": 77249.99999999999,
      "d": 244.79166666667152,
      "v": 127
    },
    {
      "midi": 28,
      "hit": false,
      "t": 77494.79166666666,
      "d": 755.2083333333285,
      "v": 127
    },
    {
      "midi": 28,
      "hit": false,
      "t": 78249.99999999999,
      "d": 244.79166666667152,
      "v": 127
    },
    {
      "midi": 29,
      "hit": false,
      "t": 78499.99999999999,
      "d": 494.7916666666715,
      "v": 127
    },
    {
      "midi": 30,
      "hit": false,
      "t": 78994.79166666666,
      "d": 255.20833333332848,
      "v": 127
    },
    {
      "midi": 30,
      "hit": false,
      "t": 79249.99999999999,
      "d": 244.79166666667152,
      "v": 127
    },
    {
      "midi": 31,
      "hit": false,
      "t": 79494.79166666666,
      "d": 255.20833333332848,
      "v": 127
    },
    {
      "midi": 31,
      "hit": false,
      "t": 79749.99999999999,
      "d": 229.16666666667152,
      "v": 127
    }
  ]
}