{
  "jsonPath": "Rock/Swiss Rock/Sportsguitar/happy-already.json",
  "path": "Rock\\Swiss Rock\\Sportsguitar\\Happy Already.mid",
  "name": "Happy Already",
  "difficulty": "Advanced",
  "bpm": 89.9999550000225,
  "notes": [
    {
      "midi": 57,
      "hit": false,
      "t": 8000.004,
      "d": 1727.7786416666668,
      "v": 55
    },
    {
      "midi": 61,
      "hit": false,
      "t": 8000.004,
      "d": 1833.3342500000008,
      "v": 78
    },
    {
      "midi": 64,
      "hit": false,
      "t": 8000.004,
      "d": 1833.3342500000008,
      "v": 54
    },
    {
      "midi": 45,
      "hit": false,
      "t": 8000.004,
      "d": 2666.6680000000006,
      "v": 72
    },
    {
      "midi": 57,
      "hit": false,
      "t": 8000.004000000001,
      "d": 333.33350000000064,
      "v": 93
    },
    {
      "midi": 61,
      "hit": false,
      "t": 8000.004000000001,
      "d": 333.33350000000064,
      "v": 93
    },
    {
      "midi": 64,
      "hit": false,
      "t": 8000.004000000001,
      "d": 333.33350000000064,
      "v": 93
    },
    {
      "midi": 57,
      "hit": false,
      "t": 8333.337500000001,
      "d": 333.33350000000064,
      "v": 93
    },
    {
      "midi": 69,
      "hit": false,
      "t": 8666.671000000002,
      "d": 333.33350000000064,
      "v": 93
    },
    {
      "midi": 71,
      "hit": false,
      "t": 9000.004500000003,
      "d": 666.6669999999995,
      "v": 93
    },
    {
      "midi": 52,
      "hit": false,
      "t": 9666.6715,
      "d": 955.5560333333342,
      "v": 63
    },
    {
      "midi": 69,
      "hit": false,
      "t": 9666.671500000002,
      "d": 666.6669999999995,
      "v": 93
    },
    {
      "midi": 57,
      "hit": false,
      "t": 9850.004925000001,
      "d": 750.0003749999996,
      "v": 53
    },
    {
      "midi": 61,
      "hit": false,
      "t": 10000.005000000001,
      "d": 561.1113916666673,
      "v": 59
    },
    {
      "midi": 64,
      "hit": false,
      "t": 10166.671750000001,
      "d": 361.11129166666615,
      "v": 58
    },
    {
      "midi": 64,
      "hit": false,
      "t": 10333.338500000002,
      "d": 666.6670000000013,
      "v": 93
    },
    {
      "midi": 64,
      "hit": false,
      "t": 10666.672,
      "d": 1366.6673500000015,
      "v": 63
    },
    {
      "midi": 43,
      "hit": false,
      "t": 10666.672,
      "d": 2666.6680000000033,
      "v": 46
    },
    {
      "midi": 52,
      "hit": false,
      "t": 10666.672,
      "d": 2666.6680000000033,
      "v": 55
    },
    {
      "midi": 57,
      "hit": false,
      "t": 10666.672,
      "d": 2666.6680000000033,
      "v": 43
    },
    {
      "midi": 61,
      "hit": false,
      "t": 10666.672,
      "d": 2666.6680000000033,
      "v": 53
    },
    {
      "midi": 57,
      "hit": false,
      "t": 10666.672000000002,
      "d": 333.33350000000064,
      "v": 93
    },
    {
      "midi": 61,
      "hit": false,
      "t": 10666.672000000002,
      "d": 333.33350000000064,
      "v": 93
    },
    {
      "midi": 57,
      "hit": false,
      "t": 11000.005500000003,
      "d": 333.33350000000064,
      "v": 93
    },
    {
      "midi": 69,
      "hit": false,
      "t": 11333.339000000004,
      "d": 333.33350000000064,
      "v": 93
    },
    {
      "midi": 71,
      "hit": false,
      "t": 11666.672500000004,
      "d": 666.6669999999995,
      "v": 93
    },
    {
      "midi": 73,
      "hit": false,
      "t": 12000.006000000001,
      "d": 727.7781416666676,
      "v": 76
    },
    {
      "midi": 69,
      "hit": false,
      "t": 12333.339500000004,
      "d": 666.6669999999995,
      "v": 93
    },
    {
      "midi": 64,
      "hit": false,
      "t": 12666.673000000003,
      "d": 633.3336500000005,
      "v": 63
    },
    {
      "midi": 62,
      "hit": false,
      "t": 13000.006500000003,
      "d": 666.6670000000013,
      "v": 93
    },
    {
      "midi": 69,
      "hit": false,
      "t": 13333.340000000004,
      "d": 38.88890833333244,
      "v": 66
    },
    {
      "midi": 66,
      "hit": false,
      "t": 13333.340000000004,
      "d": 1850.0009250000003,
      "v": 64
    },
    {
      "midi": 54,
      "hit": false,
      "t": 13333.340000000004,
      "d": 2666.6680000000015,
      "v": 53
    },
    {
      "midi": 62,
      "hit": false,
      "t": 13333.340000000004,
      "d": 2666.6680000000015,
      "v": 52
    },
    {
      "midi": 57,
      "hit": false,
      "t": 13333.340000000004,
      "d": 333.33350000000064,
      "v": 93
    },
    {
      "midi": 57,
      "hit": false,
      "t": 13666.673500000004,
      "d": 333.33350000000064,
      "v": 93
    },
    {
      "midi": 69,
      "hit": false,
      "t": 14000.007000000005,
      "d": 333.33350000000064,
      "v": 93
    },
    {
      "midi": 71,
      "hit": false,
      "t": 14333.340500000006,
      "d": 666.6669999999995,
      "v": 93
    },
    {
      "midi": 57,
      "hit": false,
      "t": 15000.007500000003,
      "d": 1000.0005000000019,
      "v": 66
    },
    {
      "midi": 69,
      "hit": false,
      "t": 15000.007500000005,
      "d": 666.6669999999995,
      "v": 93
    },
    {
      "midi": 66,
      "hit": false,
      "t": 15333.341000000004,
      "d": 666.6670000000013,
      "v": 58
    },
    {
      "midi": 69,
      "hit": false,
      "t": 15666.674500000005,
      "d": 327.7779416666672,
      "v": 82
    },
    {
      "midi": 66,
      "hit": false,
      "t": 15666.674500000005,
      "d": 666.6670000000013,
      "v": 93
    },
    {
      "midi": 62,
      "hit": false,
      "t": 16000.008000000005,
      "d": 977.7782666666681,
      "v": 47
    },
    {
      "midi": 66,
      "hit": false,
      "t": 16000.008000000005,
      "d": 1327.778441666669,
      "v": 56
    },
    {
      "midi": 52,
      "hit": false,
      "t": 16000.008000000005,
      "d": 1333.3340000000026,
      "v": 57
    },
    {
      "midi": 69,
      "hit": false,
      "t": 16000.008000000005,
      "d": 1333.3340000000026,
      "v": 37
    },
    {
      "midi": 57,
      "hit": false,
      "t": 16000.008000000005,
      "d": 333.33350000000064,
      "v": 93
    },
    {
      "midi": 62,
      "hit": false,
      "t": 16000.008000000005,
      "d": 333.33350000000064,
      "v": 93
    },
    {
      "midi": 62,
      "hit": false,
      "t": 16333.341500000006,
      "d": 333.33350000000064,
      "v": 93
    },
    {
      "midi": 57,
      "hit": false,
      "t": 16666.675000000007,
      "d": 588.8891833333328,
      "v": 32
    },
    {
      "midi": 57,
      "hit": false,
      "t": 16666.675000000007,
      "d": 333.33350000000064,
      "v": 93
    },
    {
      "midi": 62,
      "hit": false,
      "t": 17000.008500000007,
      "d": 327.7779416666672,
      "v": 49
    },
    {
      "midi": 54,
      "hit": false,
      "t": 17000.008500000007,
      "d": 333.33350000000064,
      "v": 93
    },
    {
      "midi": 59,
      "hit": false,
      "t": 17333.342000000008,
      "d": 505.5558083333344,
      "v": 52
    },
    {
      "midi": 64,
      "hit": false,
      "t": 17333.342000000008,
      "d": 677.7781166666682,
      "v": 59
    },
    {
      "midi": 40,
      "hit": false,
      "t": 17333.342000000008,
      "d": 1333.3340000000026,
      "v": 72
    },
    {
      "midi": 56,
      "hit": false,
      "t": 17333.342000000008,
      "d": 1333.333999999999,
      "v": 93
    },
    {
      "midi": 59,
      "hit": false,
      "t": 17333.342000000008,
      "d": 1333.333999999999,
      "v": 93
    },
    {
      "midi": 64,
      "hit": false,
      "t": 17333.342000000008,
      "d": 1333.333999999999,
      "v": 93
    },
    {
      "midi": 56,
      "hit": false,
      "t": 17666.67550000001,
      "d": 1000.0005000000019,
      "v": 57
    },
    {
      "midi": 59,
      "hit": false,
      "t": 18000.00900000001,
      "d": 661.1114416666678,
      "v": 55
    },
    {
      "midi": 68,
      "hit": false,
      "t": 18333.34250000001,
      "d": 300.00014999999985,
      "v": 62
    },
    {
      "midi": 57,
      "hit": false,
      "t": 18666.676000000007,
      "d": 333.33350000000064,
      "v": 93
    },
    {
      "midi": 61,
      "hit": false,
      "t": 18666.676000000007,
      "d": 333.33350000000064,
      "v": 93
    },
    {
      "midi": 81,
      "hit": false,
      "t": 18666.67600000001,
      "d": 2477.7790166666673,
      "v": 61
    },
    {
      "midi": 45,
      "hit": false,
      "t": 18666.67600000001,
      "d": 5333.336000000003,
      "v": 60
    },
    {
      "midi": 64,
      "hit": false,
      "t": 19000.009500000007,
      "d": 666.6670000000013,
      "v": 93
    },
    {
      "midi": 59,
      "hit": false,
      "t": 19666.67650000001,
      "d": 1000.0005000000019,
      "v": 93
    },
    {
      "midi": 64,
      "hit": false,
      "t": 19666.67650000001,
      "d": 1000.0005000000019,
      "v": 93
    },
    {
      "midi": 61,
      "hit": false,
      "t": 20666.67700000001,
      "d": 333.33350000000064,
      "v": 93
    },
    {
      "midi": 64,
      "hit": false,
      "t": 21000.01050000001,
      "d": 666.6670000000013,
      "v": 93
    },
    {
      "midi": 52,
      "hit": false,
      "t": 21166.67725000001,
      "d": 2833.334750000002,
      "v": 54
    },
    {
      "midi": 61,
      "hit": false,
      "t": 21666.677500000013,
      "d": 2000.0010000000002,
      "v": 93
    },
    {
      "midi": 57,
      "hit": false,
      "t": 22833.34475000001,
      "d": 616.6669750000001,
      "v": 50
    },
    {
      "midi": 61,
      "hit": false,
      "t": 23000.01150000001,
      "d": 1000.0005000000019,
      "v": 57
    },
    {
      "midi": 64,
      "hit": false,
      "t": 23333.345000000012,
      "d": 666.6670000000013,
      "v": 59
    },
    {
      "midi": 57,
      "hit": false,
      "t": 23666.678500000013,
      "d": 333.33350000000064,
      "v": 46
    },
    {
      "midi": 57,
      "hit": false,
      "t": 23666.678500000013,
      "d": 333.33350000000064,
      "v": 93
    },
    {
      "midi": 54,
      "hit": false,
      "t": 24000.012000000013,
      "d": 2127.7788416666663,
      "v": 45
    },
    {
      "midi": 57,
      "hit": false,
      "t": 24000.012000000013,
      "d": 2505.5568083333346,
      "v": 51
    },
    {
      "midi": 59,
      "hit": false,
      "t": 24000.012000000013,
      "d": 3833.33525,
      "v": 59
    },
    {
      "midi": 62,
      "hit": false,
      "t": 24000.012000000013,
      "d": 3844.446366666667,
      "v": 64
    },
    {
      "midi": 66,
      "hit": false,
      "t": 24000.012000000013,
      "d": 3872.2241583333343,
      "v": 60
    },
    {
      "midi": 45,
      "hit": false,
      "t": 24000.012000000013,
      "d": 5333.336000000003,
      "v": 59
    },
    {
      "midi": 59,
      "hit": false,
      "t": 24000.012000000013,
      "d": 666.6670000000013,
      "v": 93
    },
    {
      "midi": 59,
      "hit": false,
      "t": 24666.679000000015,
      "d": 333.33350000000064,
      "v": 93
    },
    {
      "midi": 59,
      "hit": false,
      "t": 25000.012500000015,
      "d": 1000.0004999999983,
      "v": 93
    },
    {
      "midi": 57,
      "hit": false,
      "t": 26000.013000000014,
      "d": 333.33350000000064,
      "v": 93
    },
    {
      "midi": 54,
      "hit": false,
      "t": 26333.346500000014,
      "d": 1094.4449916666672,
      "v": 68
    },
    {
      "midi": 59,
      "hit": false,
      "t": 26333.346500000014,
      "d": 2333.334500000001,
      "v": 93
    },
    {
      "midi": 57,
      "hit": false,
      "t": 26666.680000000015,
      "d": 1100.000549999997,
      "v": 58
    },
    {
      "midi": 54,
      "hit": false,
      "t": 27666.680500000013,
      "d": 550.0002750000021,
      "v": 63
    },
    {
      "midi": 57,
      "hit": false,
      "t": 27833.347250000013,
      "d": 1500.0007500000029,
      "v": 59
    },
    {
      "midi": 59,
      "hit": false,
      "t": 28000.014000000014,
      "d": 1333.3340000000026,
      "v": 74
    },
    {
      "midi": 54,
      "hit": false,
      "t": 28333.347500000014,
      "d": 1000.0005000000019,
      "v": 60
    },
    {
      "midi": 62,
      "hit": false,
      "t": 28666.681000000015,
      "d": 388.8890833333353,
      "v": 61
    },
    {
      "midi": 66,
      "hit": false,
      "t": 29000.014500000016,
      "d": 333.33350000000064,
      "v": 68
    },
    {
      "midi": 61,
      "hit": false,
      "t": 29000.014500000016,
      "d": 333.33350000000064,
      "v": 93
    },
    {
      "midi": 62,
      "hit": false,
      "t": 29333.348000000016,
      "d": 550.0002750000021,
      "v": 45
    },
    {
      "midi": 66,
      "hit": false,
      "t": 29333.348000000016,
      "d": 694.4447916666686,
      "v": 55
    },
    {
      "midi": 69,
      "hit": false,
      "t": 29333.348000000016,
      "d": 955.5560333333342,
      "v": 58
    },
    {
      "midi": 50,
      "hit": false,
      "t": 29333.348000000016,
      "d": 2622.2235333333265,
      "v": 63
    },
    {
      "midi": 54,
      "hit": false,
      "t": 29333.348000000016,
      "d": 666.6670000000013,
      "v": 93
    },
    {
      "midi": 57,
      "hit": false,
      "t": 29333.348000000016,
      "d": 666.6670000000013,
      "v": 93
    },
    {
      "midi": 62,
      "hit": false,
      "t": 29333.348000000016,
      "d": 666.6670000000013,
      "v": 93
    },
    {
      "midi": 57,
      "hit": false,
      "t": 29666.681500000017,
      "d": 1083.3338750000003,
      "v": 57
    },
    {
      "midi": 62,
      "hit": false,
      "t": 30000.015000000018,
      "d": 333.33350000000064,
      "v": 93
    },
    {
      "midi": 62,
      "hit": false,
      "t": 30027.792791666685,
      "d": 1222.2228333333296,
      "v": 55
    },
    {
      "midi": 66,
      "hit": false,
      "t": 30333.34850000002,
      "d": 688.8892333333315,
      "v": 41
    },
    {
      "midi": 62,
      "hit": false,
      "t": 30333.34850000002,
      "d": 1666.6674999999996,
      "v": 93
    },
    {
      "midi": 69,
      "hit": false,
      "t": 30666.68200000002,
      "d": 461.11134166666307,
      "v": 56
    },
    {
      "midi": 57,
      "hit": false,
      "t": 31000.015500000016,
      "d": 611.111416666663,
      "v": 52
    },
    {
      "midi": 62,
      "hit": false,
      "t": 31333.349000000013,
      "d": 377.7779666666647,
      "v": 10
    },
    {
      "midi": 69,
      "hit": false,
      "t": 31333.349000000013,
      "d": 377.7779666666647,
      "v": 45
    },
    {
      "midi": 64,
      "hit": false,
      "t": 32000.01600000001,
      "d": 38.88890833333426,
      "v": 30
    },
    {
      "midi": 59,
      "hit": false,
      "t": 32000.01600000001,
      "d": 1850.0009250000003,
      "v": 64
    },
    {
      "midi": 62,
      "hit": false,
      "t": 32000.01600000001,
      "d": 2238.8900083333356,
      "v": 66
    },
    {
      "midi": 40,
      "hit": false,
      "t": 32000.01600000001,
      "d": 2666.668000000005,
      "v": 53
    },
    {
      "midi": 56,
      "hit": false,
      "t": 32000.01600000001,
      "d": 2666.668000000005,
      "v": 52
    },
    {
      "midi": 56,
      "hit": false,
      "t": 32000.016000000018,
      "d": 333.33350000000064,
      "v": 93
    },
    {
      "midi": 62,
      "hit": false,
      "t": 32000.016000000018,
      "d": 333.33350000000064,
      "v": 93
    },
    {
      "midi": 61,
      "hit": false,
      "t": 32333.34950000002,
      "d": 666.6670000000013,
      "v": 93
    },
    {
      "midi": 59,
      "hit": false,
      "t": 33000.01650000002,
      "d": 666.6670000000013,
      "v": 93
    },
    {
      "midi": 52,
      "hit": false,
      "t": 33666.683500000014,
      "d": 1000.0005000000019,
      "v": 66
    },
    {
      "midi": 59,
      "hit": false,
      "t": 33666.68350000002,
      "d": 333.33350000000064,
      "v": 93
    },
    {
      "midi": 59,
      "hit": false,
      "t": 34000.017000000014,
      "d": 666.6670000000013,
      "v": 58
    },
    {
      "midi": 57,
      "hit": false,
      "t": 34000.01700000002,
      "d": 333.33350000000064,
      "v": 93
    },
    {
      "midi": 62,
      "hit": false,
      "t": 34333.350500000015,
      "d": 327.7779416666672,
      "v": 82
    },
    {
      "midi": 57,
      "hit": false,
      "t": 34333.35050000002,
      "d": 1333.3340000000026,
      "v": 93
    },
    {
      "midi": 61,
      "hit": false,
      "t": 34333.35050000002,
      "d": 1333.3340000000026,
      "v": 93
    },
    {
      "midi": 57,
      "hit": false,
      "t": 34666.684000000016,
      "d": 1727.7786416666713,
      "v": 55
    },
    {
      "midi": 61,
      "hit": false,
      "t": 34666.684000000016,
      "d": 1833.3342500000072,
      "v": 78
    },
    {
      "midi": 64,
      "hit": false,
      "t": 34666.684000000016,
      "d": 1833.3342500000072,
      "v": 54
    },
    {
      "midi": 45,
      "hit": false,
      "t": 34666.684000000016,
      "d": 2666.6680000000124,
      "v": 72
    },
    {
      "midi": 59,
      "hit": false,
      "t": 35666.684500000025,
      "d": 1666.6675000000032,
      "v": 93
    },
    {
      "midi": 52,
      "hit": false,
      "t": 36333.35150000002,
      "d": 955.5560333333415,
      "v": 63
    },
    {
      "midi": 57,
      "hit": false,
      "t": 36516.68492500002,
      "d": 750.0003750000033,
      "v": 53
    },
    {
      "midi": 61,
      "hit": false,
      "t": 36666.68500000003,
      "d": 561.1113916666654,
      "v": 59
    },
    {
      "midi": 64,
      "hit": false,
      "t": 36833.35175000002,
      "d": 361.11129166666797,
      "v": 58
    },
    {
      "midi": 57,
      "hit": false,
      "t": 37333.35200000003,
      "d": 505.5558083333308,
      "v": 52
    },
    {
      "midi": 61,
      "hit": false,
      "t": 37333.35200000003,
      "d": 677.7781166666609,
      "v": 59
    },
    {
      "midi": 45,
      "hit": false,
      "t": 37333.35200000003,
      "d": 1333.3339999999953,
      "v": 72
    },
    {
      "midi": 52,
      "hit": false,
      "t": 37666.68550000003,
      "d": 1000.0004999999946,
      "v": 57
    },
    {
      "midi": 57,
      "hit": false,
      "t": 38000.01900000002,
      "d": 661.1114416666678,
      "v": 55
    },
    {
      "midi": 64,
      "hit": false,
      "t": 38333.35250000002,
      "d": 300.00014999999985,
      "v": 62
    },
    {
      "midi": 64,
      "hit": false,
      "t": 38333.35250000003,
      "d": 1000.0005000000019,
      "v": 93
    },
    {
      "midi": 45,
      "hit": false,
      "t": 38666.68600000002,
      "d": 666.6670000000013,
      "v": 53
    },
    {
      "midi": 56,
      "hit": false,
      "t": 38666.68600000002,
      "d": 666.6670000000013,
      "v": 42
    },
    {
      "midi": 59,
      "hit": false,
      "t": 38666.68600000002,
      "d": 666.6670000000013,
      "v": 47
    },
    {
      "midi": 68,
      "hit": false,
      "t": 38666.68600000002,
      "d": 666.6670000000013,
      "v": 59
    },
    {
      "midi": 56,
      "hit": false,
      "t": 38666.68600000003,
      "d": 666.6670000000013,
      "v": 93
    },
    {
      "midi": 59,
      "hit": false,
      "t": 38666.68600000003,
      "d": 666.6670000000013,
      "v": 93
    },
    {
      "midi": 64,
      "hit": false,
      "t": 39000.019500000024,
      "d": 333.33350000000064,
      "v": 42
    },
    {
      "midi": 45,
      "hit": false,
      "t": 39333.353000000025,
      "d": 666.6670000000013,
      "v": 48
    },
    {
      "midi": 57,
      "hit": false,
      "t": 39333.353000000025,
      "d": 666.6670000000013,
      "v": 39
    },
    {
      "midi": 62,
      "hit": false,
      "t": 39333.353000000025,
      "d": 666.6670000000013,
      "v": 46
    },
    {
      "midi": 66,
      "hit": false,
      "t": 39333.353000000025,
      "d": 666.6670000000013,
      "v": 59
    },
    {
      "midi": 69,
      "hit": false,
      "t": 39333.353000000025,
      "d": 666.6670000000013,
      "v": 57
    },
    {
      "midi": 57,
      "hit": false,
      "t": 39333.35300000003,
      "d": 333.33350000000064,
      "v": 93
    },
    {
      "midi": 62,
      "hit": false,
      "t": 39333.35300000003,
      "d": 333.33350000000064,
      "v": 93
    },
    {
      "midi": 57,
      "hit": false,
      "t": 39666.68650000003,
      "d": 333.33350000000064,
      "v": 93
    },
    {
      "midi": 52,
      "hit": false,
      "t": 40000.020000000026,
      "d": 2127.7788416666663,
      "v": 45
    },
    {
      "midi": 57,
      "hit": false,
      "t": 40000.020000000026,
      "d": 2505.5568083333274,
      "v": 51
    },
    {
      "midi": 61,
      "hit": false,
      "t": 40000.020000000026,
      "d": 3833.3352499999964,
      "v": 59
    },
    {
      "midi": 64,
      "hit": false,
      "t": 40000.020000000026,
      "d": 3844.4463666666634,
      "v": 64
    },
    {
      "midi": 45,
      "hit": false,
      "t": 40000.020000000026,
      "d": 5333.335999999996,
      "v": 59
    },
    {
      "midi": 57,
      "hit": false,
      "t": 40000.02000000003,
      "d": 333.33350000000064,
      "v": 93
    },
    {
      "midi": 61,
      "hit": false,
      "t": 40000.02000000003,
      "d": 333.33350000000064,
      "v": 93
    },
    {
      "midi": 64,
      "hit": false,
      "t": 40333.353500000034,
      "d": 666.6670000000013,
      "v": 93
    },
    {
      "midi": 59,
      "hit": false,
      "t": 41000.020500000035,
      "d": 1000.0005000000019,
      "v": 93
    },
    {
      "midi": 64,
      "hit": false,
      "t": 41000.020500000035,
      "d": 1000.0005000000019,
      "v": 93
    },
    {
      "midi": 61,
      "hit": false,
      "t": 42000.02100000004,
      "d": 333.33350000000064,
      "v": 93
    },
    {
      "midi": 52,
      "hit": false,
      "t": 42333.35450000002,
      "d": 1094.4449916666636,
      "v": 68
    },
    {
      "midi": 64,
      "hit": false,
      "t": 42333.35450000004,
      "d": 666.6670000000013,
      "v": 93
    },
    {
      "midi": 57,
      "hit": false,
      "t": 42666.68800000002,
      "d": 1100.0005500000043,
      "v": 58
    },
    {
      "midi": 61,
      "hit": false,
      "t": 43000.02150000004,
      "d": 2000.0009999999966,
      "v": 93
    },
    {
      "midi": 52,
      "hit": false,
      "t": 43666.68850000002,
      "d": 550.0002749999985,
      "v": 63
    },
    {
      "midi": 57,
      "hit": false,
      "t": 43833.35525000002,
      "d": 1500.0007499999992,
      "v": 59
    },
    {
      "midi": 61,
      "hit": false,
      "t": 44000.02200000002,
      "d": 1333.3340000000026,
      "v": 74
    },
    {
      "midi": 52,
      "hit": false,
      "t": 44333.35550000002,
      "d": 1000.0005000000019,
      "v": 60
    },
    {
      "midi": 64,
      "hit": false,
      "t": 44666.68900000002,
      "d": 388.8890833333353,
      "v": 61
    },
    {
      "midi": 57,
      "hit": false,
      "t": 45000.022500000036,
      "d": 333.33350000000064,
      "v": 93
    },
    {
      "midi": 57,
      "hit": false,
      "t": 45333.35600000002,
      "d": 2244.445566666669,
      "v": 54
    },
    {
      "midi": 59,
      "hit": false,
      "t": 45333.35600000002,
      "d": 2316.667825000004,
      "v": 56
    },
    {
      "midi": 62,
      "hit": false,
      "t": 45333.35600000002,
      "d": 2338.890058333338,
      "v": 61
    },
    {
      "midi": 66,
      "hit": false,
      "t": 45333.35600000002,
      "d": 2344.4456166666714,
      "v": 58
    },
    {
      "midi": 45,
      "hit": false,
      "t": 45333.35600000002,
      "d": 5333.335999999996,
      "v": 40
    },
    {
      "midi": 59,
      "hit": false,
      "t": 45333.356000000036,
      "d": 666.6670000000013,
      "v": 93
    },
    {
      "midi": 59,
      "hit": false,
      "t": 46000.02300000004,
      "d": 333.33350000000064,
      "v": 93
    },
    {
      "midi": 59,
      "hit": false,
      "t": 46333.35650000004,
      "d": 1000.0005000000019,
      "v": 93
    },
    {
      "midi": 57,
      "hit": false,
      "t": 47333.35700000004,
      "d": 333.33350000000064,
      "v": 93
    },
    {
      "midi": 54,
      "hit": false,
      "t": 47500.02375000002,
      "d": 2977.7792666666646,
      "v": 70
    },
    {
      "midi": 57,
      "hit": false,
      "t": 47666.690500000026,
      "d": 644.4447666666601,
      "v": 47
    },
    {
      "midi": 59,
      "hit": false,
      "t": 47666.69050000004,
      "d": 3000.0014999999985,
      "v": 93
    },
    {
      "midi": 59,
      "hit": false,
      "t": 47833.35725000002,
      "d": 2811.1125166666607,
      "v": 48
    },
    {
      "midi": 62,
      "hit": false,
      "t": 48000.02400000002,
      "d": 2633.334649999997,
      "v": 57
    },
    {
      "midi": 57,
      "hit": false,
      "t": 49000.02450000002,
      "d": 505.5558083333308,
      "v": 39
    },
    {
      "midi": 66,
      "hit": false,
      "t": 49333.35800000002,
      "d": 1300.0006499999945,
      "v": 82
    },
    {
      "midi": 57,
      "hit": false,
      "t": 49666.691500000015,
      "d": 355.5557333333345,
      "v": 48
    },
    {
      "midi": 71,
      "hit": false,
      "t": 50000.025000000016,
      "d": 644.4447666666674,
      "v": 68
    },
    {
      "midi": 62,
      "hit": false,
      "t": 50666.69200000002,
      "d": 2244.445566666669,
      "v": 54
    },
    {
      "midi": 66,
      "hit": false,
      "t": 50666.69200000002,
      "d": 2316.667825000004,
      "v": 56
    },
    {
      "midi": 69,
      "hit": false,
      "t": 50666.69200000002,
      "d": 2338.890058333338,
      "v": 61
    },
    {
      "midi": 50,
      "hit": false,
      "t": 50666.69200000002,
      "d": 5333.335999999996,
      "v": 40
    },
    {
      "midi": 54,
      "hit": false,
      "t": 50666.69200000004,
      "d": 666.6670000000013,
      "v": 93
    },
    {
      "midi": 57,
      "hit": false,
      "t": 50666.69200000004,
      "d": 666.6670000000013,
      "v": 93
    },
    {
      "midi": 62,
      "hit": false,
      "t": 50666.69200000004,
      "d": 666.6670000000013,
      "v": 93
    },
    {
      "midi": 62,
      "hit": false,
      "t": 51333.35900000004,
      "d": 333.33350000000064,
      "v": 93
    },
    {
      "midi": 62,
      "hit": false,
      "t": 51666.69250000004,
      "d": 666.6670000000013,
      "v": 93
    },
    {
      "midi": 62,
      "hit": false,
      "t": 52333.35950000004,
      "d": 666.6670000000013,
      "v": 93
    },
    {
      "midi": 57,
      "hit": false,
      "t": 52833.35975000002,
      "d": 2977.7792666666646,
      "v": 70
    },
    {
      "midi": 62,
      "hit": false,
      "t": 53000.02650000002,
      "d": 644.4447666666601,
      "v": 47
    },
    {
      "midi": 54,
      "hit": false,
      "t": 53000.02650000004,
      "d": 1666.6675000000032,
      "v": 93
    },
    {
      "midi": 62,
      "hit": false,
      "t": 53000.02650000004,
      "d": 1666.6675000000032,
      "v": 93
    },
    {
      "midi": 66,
      "hit": false,
      "t": 53166.69325000002,
      "d": 2811.1125166666607,
      "v": 48
    },
    {
      "midi": 69,
      "hit": false,
      "t": 53333.360000000015,
      "d": 2633.334649999997,
      "v": 57
    },
    {
      "midi": 62,
      "hit": false,
      "t": 54333.36050000002,
      "d": 505.5558083333308,
      "v": 39
    },
    {
      "midi": 61,
      "hit": false,
      "t": 54666.69400000005,
      "d": 333.33350000000064,
      "v": 93
    },
    {
      "midi": 62,
      "hit": false,
      "t": 55000.02750000001,
      "d": 355.5557333333345,
      "v": 48
    },
    {
      "midi": 59,
      "hit": false,
      "t": 55000.02750000005,
      "d": 333.33350000000064,
      "v": 93
    },
    {
      "midi": 78,
      "hit": false,
      "t": 55333.36100000001,
      "d": 644.4447666666674,
      "v": 68
    },
    {
      "midi": 57,
      "hit": false,
      "t": 55333.36100000005,
      "d": 333.33350000000064,
      "v": 93
    },
    {
      "midi": 59,
      "hit": false,
      "t": 55666.69450000005,
      "d": 666.6670000000013,
      "v": 93
    },
    {
      "midi": 56,
      "hit": false,
      "t": 56000.02800000001,
      "d": 2244.445566666669,
      "v": 54
    },
    {
      "midi": 59,
      "hit": false,
      "t": 56000.02800000001,
      "d": 2316.667825000004,
      "v": 56
    },
    {
      "midi": 62,
      "hit": false,
      "t": 56000.02800000001,
      "d": 2338.890058333338,
      "v": 61
    },
    {
      "midi": 64,
      "hit": false,
      "t": 56000.02800000001,
      "d": 2344.4456166666714,
      "v": 58
    },
    {
      "midi": 40,
      "hit": false,
      "t": 56000.02800000001,
      "d": 5333.335999999996,
      "v": 40
    },
    {
      "midi": 56,
      "hit": false,
      "t": 56000.02800000005,
      "d": 333.33350000000064,
      "v": 93
    },
    {
      "midi": 59,
      "hit": false,
      "t": 56333.36150000005,
      "d": 333.33350000000064,
      "v": 93
    },
    {
      "midi": 62,
      "hit": false,
      "t": 56666.69500000005,
      "d": 333.33350000000064,
      "v": 93
    },
    {
      "midi": 71,
      "hit": false,
      "t": 57000.02850000005,
      "d": 1666.6675000000032,
      "v": 93
    },
    {
      "midi": 52,
      "hit": false,
      "t": 58166.69575000001,
      "d": 2977.7792666666646,
      "v": 70
    },
    {
      "midi": 56,
      "hit": false,
      "t": 58333.36250000002,
      "d": 644.4447666666601,
      "v": 47
    },
    {
      "midi": 59,
      "hit": false,
      "t": 58500.029250000014,
      "d": 2811.1125166666607,
      "v": 48
    },
    {
      "midi": 62,
      "hit": false,
      "t": 58666.69600000001,
      "d": 2633.334649999997,
      "v": 57
    },
    {
      "midi": 59,
      "hit": false,
      "t": 59000.029500000055,
      "d": 333.33350000000064,
      "v": 93
    },
    {
      "midi": 62,
      "hit": false,
      "t": 59333.363000000056,
      "d": 333.33350000000064,
      "v": 93
    },
    {
      "midi": 56,
      "hit": false,
      "t": 59666.69650000001,
      "d": 505.5558083333308,
      "v": 39
    },
    {
      "midi": 71,
      "hit": false,
      "t": 59666.69650000006,
      "d": 333.33350000000064,
      "v": 93
    },
    {
      "midi": 64,
      "hit": false,
      "t": 60000.03000000001,
      "d": 1300.0006499999945,
      "v": 82
    },
    {
      "midi": 56,
      "hit": false,
      "t": 60000.03000000006,
      "d": 333.33350000000064,
      "v": 93
    },
    {
      "midi": 56,
      "hit": false,
      "t": 60333.36350000001,
      "d": 355.5557333333345,
      "v": 48
    },
    {
      "midi": 64,
      "hit": false,
      "t": 60333.36350000006,
      "d": 333.33350000000064,
      "v": 93
    },
    {
      "midi": 71,
      "hit": false,
      "t": 60666.69700000001,
      "d": 644.4447666666674,
      "v": 68
    },
    {
      "midi": 62,
      "hit": false,
      "t": 60666.69700000006,
      "d": 333.33350000000064,
      "v": 93
    },
    {
      "midi": 57,
      "hit": false,
      "t": 61000.03050000006,
      "d": 333.33350000000064,
      "v": 93
    },
    {
      "midi": 81,
      "hit": false,
      "t": 61333.36400000001,
      "d": 2477.7790166666673,
      "v": 61
    },
    {
      "midi": 45,
      "hit": false,
      "t": 61333.36400000001,
      "d": 5333.336000000003,
      "v": 60
    },
    {
      "midi": 57,
      "hit": false,
      "t": 61333.36400000006,
      "d": 333.33350000000064,
      "v": 93
    },
    {
      "midi": 61,
      "hit": false,
      "t": 61333.36400000006,
      "d": 333.33350000000064,
      "v": 93
    },
    {
      "midi": 64,
      "hit": false,
      "t": 61666.69750000006,
      "d": 666.6670000000013,
      "v": 93
    },
    {
      "midi": 59,
      "hit": false,
      "t": 62333.36450000006,
      "d": 1000.0005000000019,
      "v": 93
    },
    {
      "midi": 64,
      "hit": false,
      "t": 62333.36450000006,
      "d": 1000.0005000000019,
      "v": 93
    },
    {
      "midi": 61,
      "hit": false,
      "t": 63333.36500000006,
      "d": 333.33350000000064,
      "v": 93
    },
    {
      "midi": 64,
      "hit": false,
      "t": 63666.698500000064,
      "d": 666.6670000000013,
      "v": 93
    },
    {
      "midi": 52,
      "hit": false,
      "t": 63833.36525000001,
      "d": 2833.334750000002,
      "v": 54
    },
    {
      "midi": 61,
      "hit": false,
      "t": 64333.365500000065,
      "d": 1000.0005000000019,
      "v": 93
    },
    {
      "midi": 64,
      "hit": false,
      "t": 65333.36600000007,
      "d": 666.6670000000013,
      "v": 93
    },
    {
      "midi": 73,
      "hit": false,
      "t": 65333.36600000007,
      "d": 666.6670000000013,
      "v": 93
    },
    {
      "midi": 57,
      "hit": false,
      "t": 65500.03275000001,
      "d": 616.6669750000001,
      "v": 50
    },
    {
      "midi": 61,
      "hit": false,
      "t": 65666.69950000002,
      "d": 1000.0004999999946,
      "v": 57
    },
    {
      "midi": 64,
      "hit": false,
      "t": 66000.03300000001,
      "d": 666.6670000000013,
      "v": 59
    },
    {
      "midi": 61,
      "hit": false,
      "t": 66000.03300000007,
      "d": 333.33349999999336,
      "v": 93
    },
    {
      "midi": 69,
      "hit": false,
      "t": 66000.03300000007,
      "d": 333.33349999999336,
      "v": 93
    },
    {
      "midi": 57,
      "hit": false,
      "t": 66333.36650000002,
      "d": 333.33349999999336,
      "v": 46
    },
    {
      "midi": 57,
      "hit": false,
      "t": 66333.36650000006,
      "d": 333.33349999999336,
      "v": 93
    },
    {
      "midi": 83,
      "hit": false,
      "t": 66666.70000000001,
      "d": 2477.7790166666673,
      "v": 61
    },
    {
      "midi": 45,
      "hit": false,
      "t": 66666.70000000001,
      "d": 5333.335999999996,
      "v": 60
    },
    {
      "midi": 59,
      "hit": false,
      "t": 66666.70000000006,
      "d": 666.6670000000013,
      "v": 93
    },
    {
      "midi": 59,
      "hit": false,
      "t": 67333.36700000006,
      "d": 333.33349999999336,
      "v": 93
    },
    {
      "midi": 59,
      "hit": false,
      "t": 67666.70050000005,
      "d": 1000.0004999999946,
      "v": 93
    },
    {
      "midi": 57,
      "hit": false,
      "t": 68666.70100000004,
      "d": 333.33349999999336,
      "v": 93
    },
    {
      "midi": 59,
      "hit": false,
      "t": 69000.03450000004,
      "d": 2333.334499999997,
      "v": 93
    },
    {
      "midi": 57,
      "hit": false,
      "t": 69166.70125000001,
      "d": 2833.3347499999945,
      "v": 54
    },
    {
      "midi": 59,
      "hit": false,
      "t": 70833.36875000001,
      "d": 616.6669750000001,
      "v": 50
    },
    {
      "midi": 62,
      "hit": false,
      "t": 71000.03550000001,
      "d": 1000.0004999999946,
      "v": 57
    },
    {
      "midi": 66,
      "hit": false,
      "t": 71333.369,
      "d": 666.6670000000013,
      "v": 59
    },
    {
      "midi": 59,
      "hit": false,
      "t": 71666.70250000001,
      "d": 333.33349999999336,
      "v": 46
    },
    {
      "midi": 61,
      "hit": false,
      "t": 71666.70250000003,
      "d": 333.33349999999336,
      "v": 93
    },
    {
      "midi": 62,
      "hit": false,
      "t": 72000.03600000001,
      "d": 550.0002749999985,
      "v": 45
    },
    {
      "midi": 66,
      "hit": false,
      "t": 72000.03600000001,
      "d": 694.4447916666686,
      "v": 55
    },
    {
      "midi": 69,
      "hit": false,
      "t": 72000.03600000001,
      "d": 955.5560333333415,
      "v": 58
    },
    {
      "midi": 50,
      "hit": false,
      "t": 72000.03600000001,
      "d": 2622.2235333333665,
      "v": 63
    },
    {
      "midi": 54,
      "hit": false,
      "t": 72000.03600000002,
      "d": 666.6670000000013,
      "v": 93
    },
    {
      "midi": 57,
      "hit": false,
      "t": 72000.03600000002,
      "d": 666.6670000000013,
      "v": 93
    },
    {
      "midi": 62,
      "hit": false,
      "t": 72000.03600000002,
      "d": 666.6670000000013,
      "v": 93
    },
    {
      "midi": 57,
      "hit": false,
      "t": 72333.3695,
      "d": 1083.3338750000112,
      "v": 57
    },
    {
      "midi": 62,
      "hit": false,
      "t": 72666.70300000002,
      "d": 333.33349999999336,
      "v": 93
    },
    {
      "midi": 62,
      "hit": false,
      "t": 72694.48079166668,
      "d": 1222.2228333333478,
      "v": 55
    },
    {
      "midi": 66,
      "hit": false,
      "t": 73000.03650000002,
      "d": 688.8892333333351,
      "v": 41
    },
    {
      "midi": 62,
      "hit": false,
      "t": 73000.03650000002,
      "d": 1000.0004999999946,
      "v": 93
    },
    {
      "midi": 69,
      "hit": false,
      "t": 73333.37000000001,
      "d": 461.1113416666776,
      "v": 56
    },
    {
      "midi": 57,
      "hit": false,
      "t": 73666.70350000002,
      "d": 611.1114166666812,
      "v": 52
    },
    {
      "midi": 62,
      "hit": false,
      "t": 74000.03700000001,
      "d": 333.33349999999336,
      "v": 93
    },
    {
      "midi": 62,
      "hit": false,
      "t": 74000.03700000003,
      "d": 377.77796666667564,
      "v": 10
    },
    {
      "midi": 69,
      "hit": false,
      "t": 74000.03700000003,
      "d": 377.77796666667564,
      "v": 45
    },
    {
      "midi": 62,
      "hit": false,
      "t": 74333.3705,
      "d": 1666.667499999996,
      "v": 93
    },
    {
      "midi": 56,
      "hit": false,
      "t": 74666.704,
      "d": 1333.3340000000026,
      "v": 93
    },
    {
      "midi": 64,
      "hit": false,
      "t": 74666.70400000004,
      "d": 38.88890833333426,
      "v": 30
    },
    {
      "midi": 59,
      "hit": false,
      "t": 74666.70400000004,
      "d": 1850.0009250000003,
      "v": 64
    },
    {
      "midi": 62,
      "hit": false,
      "t": 74666.70400000004,
      "d": 2238.890008333343,
      "v": 66
    },
    {
      "midi": 40,
      "hit": false,
      "t": 74666.70400000004,
      "d": 2666.668000000005,
      "v": 53
    },
    {
      "midi": 56,
      "hit": false,
      "t": 74666.70400000004,
      "d": 2666.668000000005,
      "v": 52
    },
    {
      "midi": 57,
      "hit": false,
      "t": 76000.038,
      "d": 333.33349999999336,
      "v": 93
    },
    {
      "midi": 61,
      "hit": false,
      "t": 76333.3715,
      "d": 666.6670000000013,
      "v": 93
    },
    {
      "midi": 52,
      "hit": false,
      "t": 76333.37150000004,
      "d": 1000.0005000000092,
      "v": 66
    },
    {
      "midi": 59,
      "hit": false,
      "t": 76666.70500000005,
      "d": 666.6670000000013,
      "v": 58
    },
    {
      "midi": 57,
      "hit": false,
      "t": 77000.0385,
      "d": 1333.3340000000026,
      "v": 93
    },
    {
      "midi": 61,
      "hit": false,
      "t": 77000.0385,
      "d": 1333.3340000000026,
      "v": 93
    },
    {
      "midi": 62,
      "hit": false,
      "t": 77000.03850000005,
      "d": 327.7779416666599,
      "v": 82
    },
    {
      "midi": 64,
      "hit": false,
      "t": 77333.37200000005,
      "d": 1127.7783416666643,
      "v": 51
    },
    {
      "midi": 57,
      "hit": false,
      "t": 77333.37200000005,
      "d": 1144.4450166666647,
      "v": 51
    },
    {
      "midi": 45,
      "hit": false,
      "t": 77333.37200000005,
      "d": 2666.6679999999906,
      "v": 52
    },
    {
      "midi": 59,
      "hit": false,
      "t": 78333.3725,
      "d": 1666.667499999996,
      "v": 93
    },
    {
      "midi": 52,
      "hit": false,
      "t": 78333.37250000004,
      "d": 1666.667499999996,
      "v": 46
    },
    {
      "midi": 57,
      "hit": false,
      "t": 78666.70600000005,
      "d": 1333.333999999988,
      "v": 43
    },
    {
      "midi": 64,
      "hit": false,
      "t": 78666.70600000005,
      "d": 1333.333999999988,
      "v": 51
    },
    {
      "midi": 45,
      "hit": false,
      "t": 80000.04000000004,
      "d": 1333.3340000000026,
      "v": 55
    },
    {
      "midi": 52,
      "hit": false,
      "t": 80000.04000000004,
      "d": 1333.3340000000026,
      "v": 47
    },
    {
      "midi": 57,
      "hit": false,
      "t": 80000.04000000004,
      "d": 1333.3340000000026,
      "v": 60
    },
    {
      "midi": 61,
      "hit": false,
      "t": 80000.04000000004,
      "d": 1333.3340000000026,
      "v": 53
    },
    {
      "midi": 64,
      "hit": false,
      "t": 80000.04000000004,
      "d": 1333.3340000000026,
      "v": 52
    },
    {
      "midi": 64,
      "hit": false,
      "t": 81000.04049999999,
      "d": 1000.0004999999946,
      "v": 93
    },
    {
      "midi": 56,
      "hit": false,
      "t": 81333.37399999998,
      "d": 666.6670000000013,
      "v": 93
    },
    {
      "midi": 59,
      "hit": false,
      "t": 81333.37399999998,
      "d": 666.6670000000013,
      "v": 93
    },
    {
      "midi": 45,
      "hit": false,
      "t": 81333.37400000004,
      "d": 666.6670000000013,
      "v": 48
    },
    {
      "midi": 56,
      "hit": false,
      "t": 81333.37400000004,
      "d": 666.6670000000013,
      "v": 39
    },
    {
      "midi": 59,
      "hit": false,
      "t": 81333.37400000004,
      "d": 666.6670000000013,
      "v": 46
    },
    {
      "midi": 64,
      "hit": false,
      "t": 81333.37400000004,
      "d": 666.6670000000013,
      "v": 59
    },
    {
      "midi": 68,
      "hit": false,
      "t": 81333.37400000004,
      "d": 666.6670000000013,
      "v": 57
    },
    {
      "midi": 57,
      "hit": false,
      "t": 82000.04099999998,
      "d": 333.33349999999336,
      "v": 93
    },
    {
      "midi": 62,
      "hit": false,
      "t": 82000.04099999998,
      "d": 333.33349999999336,
      "v": 93
    },
    {
      "midi": 45,
      "hit": false,
      "t": 82000.04100000004,
      "d": 666.6670000000013,
      "v": 48
    },
    {
      "midi": 57,
      "hit": false,
      "t": 82000.04100000004,
      "d": 666.6670000000013,
      "v": 39
    },
    {
      "midi": 62,
      "hit": false,
      "t": 82000.04100000004,
      "d": 666.6670000000013,
      "v": 46
    },
    {
      "midi": 66,
      "hit": false,
      "t": 82000.04100000004,
      "d": 666.6670000000013,
      "v": 59
    },
    {
      "midi": 69,
      "hit": false,
      "t": 82000.04100000004,
      "d": 666.6670000000013,
      "v": 57
    },
    {
      "midi": 57,
      "hit": false,
      "t": 82333.37449999998,
      "d": 333.33349999999336,
      "v": 93
    },
    {
      "midi": 57,
      "hit": false,
      "t": 82666.70799999997,
      "d": 333.33349999999336,
      "v": 93
    },
    {
      "midi": 61,
      "hit": false,
      "t": 82666.70799999997,
      "d": 333.33349999999336,
      "v": 93
    },
    {
      "midi": 57,
      "hit": false,
      "t": 82666.70800000004,
      "d": 2244.4455666666763,
      "v": 54
    },
    {
      "midi": 61,
      "hit": false,
      "t": 82666.70800000004,
      "d": 2316.6678250000114,
      "v": 56
    },
    {
      "midi": 64,
      "hit": false,
      "t": 82666.70800000004,
      "d": 2338.890058333345,
      "v": 61
    },
    {
      "midi": 45,
      "hit": false,
      "t": 82666.70800000004,
      "d": 5333.33600000001,
      "v": 40
    },
    {
      "midi": 64,
      "hit": false,
      "t": 83000.04149999996,
      "d": 666.6670000000013,
      "v": 93
    },
    {
      "midi": 59,
      "hit": false,
      "t": 83666.70849999996,
      "d": 1000.0004999999946,
      "v": 93
    },
    {
      "midi": 64,
      "hit": false,
      "t": 83666.70849999996,
      "d": 1000.0004999999946,
      "v": 93
    },
    {
      "midi": 64,
      "hit": false,
      "t": 84666.70899999996,
      "d": 333.33349999999336,
      "v": 93
    },
    {
      "midi": 52,
      "hit": false,
      "t": 84833.37575000005,
      "d": 2977.7792666666646,
      "v": 70
    },
    {
      "midi": 64,
      "hit": false,
      "t": 85000.04249999995,
      "d": 666.6670000000013,
      "v": 93
    },
    {
      "midi": 57,
      "hit": false,
      "t": 85000.04250000005,
      "d": 644.4447666666674,
      "v": 47
    },
    {
      "midi": 61,
      "hit": false,
      "t": 85166.70925000006,
      "d": 2811.1125166666607,
      "v": 48
    },
    {
      "midi": 64,
      "hit": false,
      "t": 85333.37600000006,
      "d": 2633.33464999999,
      "v": 57
    },
    {
      "midi": 61,
      "hit": false,
      "t": 85666.70949999995,
      "d": 1666.667499999996,
      "v": 93
    },
    {
      "midi": 57,
      "hit": false,
      "t": 86333.37650000006,
      "d": 505.5558083333308,
      "v": 39
    },
    {
      "midi": 57,
      "hit": false,
      "t": 87000.04350000006,
      "d": 355.5557333333272,
      "v": 48
    },
    {
      "midi": 61,
      "hit": false,
      "t": 87333.37699999995,
      "d": 333.33349999999336,
      "v": 93
    },
    {
      "midi": 73,
      "hit": false,
      "t": 87333.37700000005,
      "d": 644.4447666666674,
      "v": 68
    },
    {
      "midi": 62,
      "hit": false,
      "t": 87666.71049999994,
      "d": 333.33349999999336,
      "v": 93
    },
    {
      "midi": 61,
      "hit": false,
      "t": 88000.04399999994,
      "d": 666.6670000000013,
      "v": 93
    },
    {
      "midi": 54,
      "hit": false,
      "t": 88000.04400000005,
      "d": 2127.7788416666735,
      "v": 45
    },
    {
      "midi": 57,
      "hit": false,
      "t": 88000.04400000005,
      "d": 2505.556808333349,
      "v": 51
    },
    {
      "midi": 59,
      "hit": false,
      "t": 88000.04400000005,
      "d": 3833.335250000033,
      "v": 59
    },
    {
      "midi": 62,
      "hit": false,
      "t": 88000.04400000005,
      "d": 3844.4463666666998,
      "v": 64
    },
    {
      "midi": 66,
      "hit": false,
      "t": 88000.04400000005,
      "d": 3872.224158333367,
      "v": 60
    },
    {
      "midi": 45,
      "hit": false,
      "t": 88000.04400000005,
      "d": 5333.336000000039,
      "v": 59
    },
    {
      "midi": 59,
      "hit": false,
      "t": 88666.71099999994,
      "d": 333.33349999999336,
      "v": 93
    },
    {
      "midi": 59,
      "hit": false,
      "t": 89000.04449999993,
      "d": 1000.0004999999946,
      "v": 93
    },
    {
      "midi": 57,
      "hit": false,
      "t": 90000.04499999993,
      "d": 333.33349999999336,
      "v": 93
    },
    {
      "midi": 59,
      "hit": false,
      "t": 90333.37849999992,
      "d": 2333.334499999997,
      "v": 93
    },
    {
      "midi": 54,
      "hit": false,
      "t": 90333.37850000006,
      "d": 1094.444991666678,
      "v": 68
    },
    {
      "midi": 66,
      "hit": false,
      "t": 90666.71200000001,
      "d": 666.6670000000013,
      "v": 91
    },
    {
      "midi": 74,
      "hit": false,
      "t": 90666.71200000001,
      "d": 666.6670000000013,
      "v": 91
    },
    {
      "midi": 57,
      "hit": false,
      "t": 90666.71200000007,
      "d": 1100.0005500000116,
      "v": 58
    },
    {
      "midi": 64,
      "hit": false,
      "t": 91333.37900000002,
      "d": 333.33349999999336,
      "v": 91
    },
    {
      "midi": 73,
      "hit": false,
      "t": 91333.37900000002,
      "d": 333.33349999999336,
      "v": 91
    },
    {
      "midi": 61,
      "hit": false,
      "t": 91666.71250000001,
      "d": 1666.667499999996,
      "v": 91
    },
    {
      "midi": 69,
      "hit": false,
      "t": 91666.71250000001,
      "d": 1666.667499999996,
      "v": 91
    },
    {
      "midi": 54,
      "hit": false,
      "t": 91666.71250000008,
      "d": 550.0002750000131,
      "v": 63
    },
    {
      "midi": 57,
      "hit": false,
      "t": 91833.37925000009,
      "d": 1500.0007500000065,
      "v": 59
    },
    {
      "midi": 59,
      "hit": false,
      "t": 92000.04600000009,
      "d": 1333.3340000000026,
      "v": 74
    },
    {
      "midi": 54,
      "hit": false,
      "t": 92333.3795000001,
      "d": 1000.0004999999946,
      "v": 60
    },
    {
      "midi": 62,
      "hit": false,
      "t": 92666.71300000009,
      "d": 388.889083333328,
      "v": 61
    },
    {
      "midi": 61,
      "hit": false,
      "t": 93000.04649999991,
      "d": 333.33349999999336,
      "v": 93
    },
    {
      "midi": 66,
      "hit": false,
      "t": 93000.04650000008,
      "d": 333.3335000000079,
      "v": 68
    },
    {
      "midi": 54,
      "hit": false,
      "t": 93333.3799999999,
      "d": 666.6670000000013,
      "v": 93
    },
    {
      "midi": 57,
      "hit": false,
      "t": 93333.3799999999,
      "d": 666.6670000000013,
      "v": 93
    },
    {
      "midi": 62,
      "hit": false,
      "t": 93333.3799999999,
      "d": 666.6670000000013,
      "v": 93
    },
    {
      "midi": 57,
      "hit": false,
      "t": 93333.38000000009,
      "d": 2127.7788416666735,
      "v": 45
    },
    {
      "midi": 62,
      "hit": false,
      "t": 93333.38000000009,
      "d": 2505.556808333349,
      "v": 51
    },
    {
      "midi": 66,
      "hit": false,
      "t": 93333.38000000009,
      "d": 3833.335250000033,
      "v": 59
    },
    {
      "midi": 69,
      "hit": false,
      "t": 93333.38000000009,
      "d": 3844.4463666666998,
      "v": 64
    },
    {
      "midi": 50,
      "hit": false,
      "t": 93333.38000000009,
      "d": 5333.336000000039,
      "v": 59
    },
    {
      "midi": 62,
      "hit": false,
      "t": 94000.0469999999,
      "d": 333.33349999999336,
      "v": 93
    },
    {
      "midi": 62,
      "hit": false,
      "t": 94333.3804999999,
      "d": 1000.0004999999946,
      "v": 93
    },
    {
      "midi": 62,
      "hit": false,
      "t": 95333.38099999989,
      "d": 333.33349999999336,
      "v": 93
    },
    {
      "midi": 54,
      "hit": false,
      "t": 95666.71449999989,
      "d": 1333.3340000000026,
      "v": 93
    },
    {
      "midi": 62,
      "hit": false,
      "t": 95666.71449999989,
      "d": 1333.3340000000026,
      "v": 93
    },
    {
      "midi": 57,
      "hit": false,
      "t": 95666.7145000001,
      "d": 1094.444991666678,
      "v": 68
    },
    {
      "midi": 62,
      "hit": false,
      "t": 96000.04800000011,
      "d": 1100.0005500000116,
      "v": 58
    },
    {
      "midi": 61,
      "hit": false,
      "t": 97000.04849999989,
      "d": 333.33349999999336,
      "v": 93
    },
    {
      "midi": 57,
      "hit": false,
      "t": 97000.04850000012,
      "d": 550.0002750000131,
      "v": 63
    },
    {
      "midi": 62,
      "hit": false,
      "t": 97166.71525000012,
      "d": 1500.0007500000065,
      "v": 59
    },
    {
      "midi": 59,
      "hit": false,
      "t": 97333.38199999988,
      "d": 333.33349999999336,
      "v": 93
    },
    {
      "midi": 66,
      "hit": false,
      "t": 97333.38200000013,
      "d": 1333.3340000000026,
      "v": 74
    },
    {
      "midi": 57,
      "hit": false,
      "t": 97666.71549999987,
      "d": 666.6670000000013,
      "v": 93
    },
    {
      "midi": 57,
      "hit": false,
      "t": 97666.71550000014,
      "d": 1000.0004999999946,
      "v": 60
    },
    {
      "midi": 69,
      "hit": false,
      "t": 98000.04900000013,
      "d": 388.889083333328,
      "v": 61
    },
    {
      "midi": 59,
      "hit": false,
      "t": 98333.38249999988,
      "d": 666.6669999999867,
      "v": 93
    },
    {
      "midi": 56,
      "hit": false,
      "t": 98666.71599999987,
      "d": 333.33349999999336,
      "v": 93
    },
    {
      "midi": 52,
      "hit": false,
      "t": 98666.71600000013,
      "d": 2127.7788416666735,
      "v": 45
    },
    {
      "midi": 56,
      "hit": false,
      "t": 98666.71600000013,
      "d": 2505.556808333349,
      "v": 51
    },
    {
      "midi": 59,
      "hit": false,
      "t": 98666.71600000013,
      "d": 3833.335250000033,
      "v": 59
    },
    {
      "midi": 62,
      "hit": false,
      "t": 98666.71600000013,
      "d": 3844.4463666666998,
      "v": 64
    },
    {
      "midi": 64,
      "hit": false,
      "t": 98666.71600000013,
      "d": 3872.224158333367,
      "v": 60
    },
    {
      "midi": 40,
      "hit": false,
      "t": 98666.71600000013,
      "d": 5333.336000000039,
      "v": 59
    },
    {
      "midi": 59,
      "hit": false,
      "t": 99000.04949999986,
      "d": 333.33349999999336,
      "v": 93
    },
    {
      "midi": 62,
      "hit": false,
      "t": 99333.38299999986,
      "d": 333.33349999999336,
      "v": 93
    },
    {
      "midi": 71,
      "hit": false,
      "t": 99666.71649999985,
      "d": 1666.667499999996,
      "v": 93
    },
    {
      "midi": 52,
      "hit": false,
      "t": 101000.05050000014,
      "d": 1094.444991666678,
      "v": 68
    },
    {
      "midi": 59,
      "hit": false,
      "t": 101333.38399999985,
      "d": 666.6670000000013,
      "v": 93
    },
    {
      "midi": 68,
      "hit": false,
      "t": 101333.38399999985,
      "d": 666.6670000000013,
      "v": 93
    },
    {
      "midi": 56,
      "hit": false,
      "t": 101333.38400000015,
      "d": 1100.0005500000116,
      "v": 58
    },
    {
      "midi": 69,
      "hit": false,
      "t": 102000.05099999985,
      "d": 333.33349999999336,
      "v": 93
    },
    {
      "midi": 64,
      "hit": false,
      "t": 102333.38449999984,
      "d": 1000.0004999999946,
      "v": 93
    },
    {
      "midi": 71,
      "hit": false,
      "t": 102333.38449999984,
      "d": 1000.0004999999946,
      "v": 93
    },
    {
      "midi": 52,
      "hit": false,
      "t": 102333.38450000016,
      "d": 550.0002750000131,
      "v": 63
    },
    {
      "midi": 56,
      "hit": false,
      "t": 102500.05125000016,
      "d": 1500.0007500000065,
      "v": 59
    },
    {
      "midi": 59,
      "hit": false,
      "t": 102666.71800000017,
      "d": 1333.3340000000026,
      "v": 74
    },
    {
      "midi": 52,
      "hit": false,
      "t": 103000.05150000018,
      "d": 1000.0004999999946,
      "v": 60
    },
    {
      "midi": 59,
      "hit": false,
      "t": 103333.38499999983,
      "d": 666.6670000000013,
      "v": 93
    },
    {
      "midi": 68,
      "hit": false,
      "t": 103333.38499999983,
      "d": 666.6670000000013,
      "v": 93
    },
    {
      "midi": 62,
      "hit": false,
      "t": 103333.38500000017,
      "d": 388.889083333328,
      "v": 61
    },
    {
      "midi": 64,
      "hit": false,
      "t": 103666.71850000016,
      "d": 333.3335000000079,
      "v": 68
    },
    {
      "midi": 61,
      "hit": false,
      "t": 104000.05199999984,
      "d": 333.33349999999336,
      "v": 93
    },
    {
      "midi": 64,
      "hit": false,
      "t": 104000.05199999984,
      "d": 333.33349999999336,
      "v": 93
    },
    {
      "midi": 69,
      "hit": false,
      "t": 104000.05199999984,
      "d": 333.33349999999336,
      "v": 93
    },
    {
      "midi": 64,
      "hit": false,
      "t": 104000.05200000017,
      "d": 38.88890833333426,
      "v": 66
    },
    {
      "midi": 61,
      "hit": false,
      "t": 104000.05200000017,
      "d": 1850.0009250000003,
      "v": 64
    },
    {
      "midi": 45,
      "hit": false,
      "t": 104000.05200000017,
      "d": 2666.6679999999906,
      "v": 53
    },
    {
      "midi": 57,
      "hit": false,
      "t": 104000.05200000017,
      "d": 2666.6679999999906,
      "v": 52
    },
    {
      "midi": 61,
      "hit": false,
      "t": 104333.38549999983,
      "d": 666.6670000000013,
      "v": 93
    },
    {
      "midi": 64,
      "hit": false,
      "t": 104333.38549999983,
      "d": 666.6670000000013,
      "v": 93
    },
    {
      "midi": 69,
      "hit": false,
      "t": 104333.38549999983,
      "d": 666.6670000000013,
      "v": 93
    },
    {
      "midi": 61,
      "hit": false,
      "t": 105000.05249999983,
      "d": 1000.0004999999946,
      "v": 93
    },
    {
      "midi": 64,
      "hit": false,
      "t": 105000.05249999983,
      "d": 1000.0004999999946,
      "v": 93
    },
    {
      "midi": 69,
      "hit": false,
      "t": 105000.05249999983,
      "d": 1000.0004999999946,
      "v": 93
    },
    {
      "midi": 52,
      "hit": false,
      "t": 105666.71950000017,
      "d": 1000.0004999999946,
      "v": 66
    },
    {
      "midi": 66,
      "hit": false,
      "t": 106000.05299999983,
      "d": 333.33349999999336,
      "v": 93
    },
    {
      "midi": 61,
      "hit": false,
      "t": 106000.05300000017,
      "d": 666.6669999999867,
      "v": 58
    },
    {
      "midi": 62,
      "hit": false,
      "t": 106333.38649999982,
      "d": 666.6670000000013,
      "v": 93
    },
    {
      "midi": 66,
      "hit": false,
      "t": 106333.38649999982,
      "d": 666.6670000000013,
      "v": 93
    },
    {
      "midi": 71,
      "hit": false,
      "t": 106333.38649999982,
      "d": 666.6670000000013,
      "v": 93
    },
    {
      "midi": 64,
      "hit": false,
      "t": 106333.38650000017,
      "d": 327.7779416666599,
      "v": 82
    },
    {
      "midi": 69,
      "hit": false,
      "t": 106666.72000000016,
      "d": 1366.6673500000034,
      "v": 63
    },
    {
      "midi": 50,
      "hit": false,
      "t": 106666.72000000016,
      "d": 2666.668000000005,
      "v": 46
    },
    {
      "midi": 57,
      "hit": false,
      "t": 106666.72000000016,
      "d": 2666.668000000005,
      "v": 55
    },
    {
      "midi": 62,
      "hit": false,
      "t": 106666.72000000016,
      "d": 2666.668000000005,
      "v": 43
    },
    {
      "midi": 66,
      "hit": false,
      "t": 106666.72000000016,
      "d": 2666.668000000005,
      "v": 53
    },
    {
      "midi": 69,
      "hit": false,
      "t": 107000.05349999982,
      "d": 333.33349999999336,
      "v": 93
    },
    {
      "midi": 69,
      "hit": false,
      "t": 107333.38699999981,
      "d": 333.33349999999336,
      "v": 93
    },
    {
      "midi": 62,
      "hit": false,
      "t": 107666.7204999998,
      "d": 1000.0004999999946,
      "v": 93
    },
    {
      "midi": 66,
      "hit": false,
      "t": 107666.7204999998,
      "d": 1000.0004999999946,
      "v": 93
    },
    {
      "midi": 69,
      "hit": false,
      "t": 107666.7204999998,
      "d": 1000.0004999999946,
      "v": 93
    },
    {
      "midi": 78,
      "hit": false,
      "t": 108000.05400000016,
      "d": 727.7781416666694,
      "v": 76
    },
    {
      "midi": 64,
      "hit": false,
      "t": 108666.7209999998,
      "d": 333.33349999999336,
      "v": 93
    },
    {
      "midi": 69,
      "hit": false,
      "t": 108666.72100000017,
      "d": 633.3336500000005,
      "v": 63
    },
    {
      "midi": 57,
      "hit": false,
      "t": 109000.0544999998,
      "d": 3000.0014999999985,
      "v": 93
    },
    {
      "midi": 61,
      "hit": false,
      "t": 109000.0544999998,
      "d": 3000.0014999999985,
      "v": 93
    },
    {
      "midi": 64,
      "hit": false,
      "t": 109000.0544999998,
      "d": 3000.0014999999985,
      "v": 93
    },
    {
      "midi": 57,
      "hit": false,
      "t": 109333.38800000017,
      "d": 2244.4455666666763,
      "v": 54
    },
    {
      "midi": 61,
      "hit": false,
      "t": 109333.38800000017,
      "d": 2316.6678250000114,
      "v": 56
    },
    {
      "midi": 64,
      "hit": false,
      "t": 109333.38800000017,
      "d": 2338.890058333345,
      "v": 61
    },
    {
      "midi": 45,
      "hit": false,
      "t": 109333.38800000017,
      "d": 5333.33600000001,
      "v": 40
    },
    {
      "midi": 52,
      "hit": false,
      "t": 111500.05575000017,
      "d": 2977.7792666666646,
      "v": 70
    },
    {
      "midi": 57,
      "hit": false,
      "t": 111666.72250000018,
      "d": 644.4447666666674,
      "v": 47
    },
    {
      "midi": 61,
      "hit": false,
      "t": 111833.38925000018,
      "d": 2811.1125166666607,
      "v": 48
    },
    {
      "midi": 57,
      "hit": false,
      "t": 112000.0559999998,
      "d": 333.33349999999336,
      "v": 93
    },
    {
      "midi": 59,
      "hit": false,
      "t": 112000.0559999998,
      "d": 333.33349999999336,
      "v": 93
    },
    {
      "midi": 64,
      "hit": false,
      "t": 112000.05600000019,
      "d": 2633.33464999999,
      "v": 57
    },
    {
      "midi": 61,
      "hit": false,
      "t": 112333.38949999979,
      "d": 333.33349999999336,
      "v": 93
    },
    {
      "midi": 64,
      "hit": false,
      "t": 112666.72299999978,
      "d": 333.33349999999336,
      "v": 93
    },
    {
      "midi": 71,
      "hit": false,
      "t": 113000.05649999977,
      "d": 1000.0004999999946,
      "v": 93
    },
    {
      "midi": 57,
      "hit": false,
      "t": 113000.05650000018,
      "d": 505.5558083333308,
      "v": 39
    },
    {
      "midi": 57,
      "hit": false,
      "t": 113666.72350000018,
      "d": 355.5557333333272,
      "v": 48
    },
    {
      "midi": 66,
      "hit": false,
      "t": 114000.05699999977,
      "d": 333.33349999999336,
      "v": 93
    },
    {
      "midi": 73,
      "hit": false,
      "t": 114000.05700000018,
      "d": 644.4447666666674,
      "v": 68
    },
    {
      "midi": 68,
      "hit": false,
      "t": 114333.39049999976,
      "d": 333.33349999999336,
      "v": 93
    },
    {
      "midi": 69,
      "hit": false,
      "t": 114666.72399999975,
      "d": 666.6670000000013,
      "v": 93
    },
    {
      "midi": 61,
      "hit": false,
      "t": 114666.724,
      "d": 1333.3340000000026,
      "v": 91
    },
    {
      "midi": 64,
      "hit": false,
      "t": 114666.724,
      "d": 1333.3340000000026,
      "v": 91
    },
    {
      "midi": 57,
      "hit": false,
      "t": 114666.72400000018,
      "d": 505.5558083333308,
      "v": 52
    },
    {
      "midi": 61,
      "hit": false,
      "t": 114666.72400000018,
      "d": 677.7781166666682,
      "v": 59
    },
    {
      "midi": 45,
      "hit": false,
      "t": 114666.72400000018,
      "d": 1333.3340000000026,
      "v": 72
    },
    {
      "midi": 52,
      "hit": false,
      "t": 115000.05750000017,
      "d": 1000.0005000000092,
      "v": 57
    },
    {
      "midi": 69,
      "hit": false,
      "t": 115333.39099999976,
      "d": 333.33349999999336,
      "v": 93
    },
    {
      "midi": 57,
      "hit": false,
      "t": 115333.39100000018,
      "d": 661.1114416666678,
      "v": 55
    },
    {
      "midi": 71,
      "hit": false,
      "t": 115666.72449999975,
      "d": 1000.0004999999946,
      "v": 93
    },
    {
      "midi": 64,
      "hit": false,
      "t": 115666.72450000017,
      "d": 300.0001500000071,
      "v": 62
    },
    {
      "midi": 61,
      "hit": false,
      "t": 116000.058,
      "d": 1333.3340000000026,
      "v": 91
    },
    {
      "midi": 64,
      "hit": false,
      "t": 116000.058,
      "d": 1333.3340000000026,
      "v": 91
    },
    {
      "midi": 57,
      "hit": false,
      "t": 116000.05800000018,
      "d": 505.5558083333308,
      "v": 52
    },
    {
      "midi": 61,
      "hit": false,
      "t": 116000.05800000018,
      "d": 677.7781166666682,
      "v": 59
    },
    {
      "midi": 43,
      "hit": false,
      "t": 116000.05800000018,
      "d": 1333.3340000000026,
      "v": 72
    },
    {
      "midi": 52,
      "hit": false,
      "t": 116333.39150000017,
      "d": 1000.0005000000092,
      "v": 57
    },
    {
      "midi": 71,
      "hit": false,
      "t": 116666.72499999974,
      "d": 333.33349999999336,
      "v": 93
    },
    {
      "midi": 57,
      "hit": false,
      "t": 116666.72500000018,
      "d": 661.1114416666678,
      "v": 55
    },
    {
      "midi": 71,
      "hit": false,
      "t": 117000.05849999974,
      "d": 1000.0004999999946,
      "v": 93
    },
    {
      "midi": 64,
      "hit": false,
      "t": 117000.05850000017,
      "d": 300.0001500000071,
      "v": 62
    },
    {
      "midi": 57,
      "hit": false,
      "t": 117333.392,
      "d": 2666.668000000005,
      "v": 91
    },
    {
      "midi": 62,
      "hit": false,
      "t": 117333.392,
      "d": 2666.668000000005,
      "v": 91
    },
    {
      "midi": 69,
      "hit": false,
      "t": 117333.39200000018,
      "d": 1366.6673500000034,
      "v": 63
    },
    {
      "midi": 54,
      "hit": false,
      "t": 117333.39200000018,
      "d": 2666.668000000005,
      "v": 46
    },
    {
      "midi": 57,
      "hit": false,
      "t": 117333.39200000018,
      "d": 2666.668000000005,
      "v": 55
    },
    {
      "midi": 62,
      "hit": false,
      "t": 117333.39200000018,
      "d": 2666.668000000005,
      "v": 43
    },
    {
      "midi": 66,
      "hit": false,
      "t": 117333.39200000018,
      "d": 2666.668000000005,
      "v": 53
    },
    {
      "midi": 69,
      "hit": false,
      "t": 118000.05899999973,
      "d": 333.33349999999336,
      "v": 93
    },
    {
      "midi": 66,
      "hit": false,
      "t": 118333.39249999973,
      "d": 555.555833333332,
      "v": 93
    },
    {
      "midi": 78,
      "hit": false,
      "t": 118666.72600000018,
      "d": 727.7781416666694,
      "v": 76
    },
    {
      "midi": 64,
      "hit": false,
      "t": 118833.39274999972,
      "d": 166.66675000000396,
      "v": 93
    },
    {
      "midi": 62,
      "hit": false,
      "t": 119000.05949999973,
      "d": 666.6670000000013,
      "v": 93
    },
    {
      "midi": 69,
      "hit": false,
      "t": 119333.39300000019,
      "d": 633.3336500000005,
      "v": 63
    },
    {
      "midi": 66,
      "hit": false,
      "t": 119666.72649999973,
      "d": 333.33349999999336,
      "v": 93
    },
    {
      "midi": 57,
      "hit": false,
      "t": 120000.05999999972,
      "d": 333.33349999999336,
      "v": 93
    },
    {
      "midi": 61,
      "hit": false,
      "t": 120000.05999999972,
      "d": 333.33349999999336,
      "v": 93
    },
    {
      "midi": 64,
      "hit": false,
      "t": 120000.05999999972,
      "d": 333.33349999999336,
      "v": 93
    },
    {
      "midi": 57,
      "hit": false,
      "t": 120000.06000000019,
      "d": 550.0002749999985,
      "v": 45
    },
    {
      "midi": 61,
      "hit": false,
      "t": 120000.06000000019,
      "d": 694.4447916666686,
      "v": 55
    },
    {
      "midi": 64,
      "hit": false,
      "t": 120000.06000000019,
      "d": 955.5560333333415,
      "v": 58
    },
    {
      "midi": 52,
      "hit": false,
      "t": 120000.06000000019,
      "d": 1416.6673750000045,
      "v": 63
    },
    {
      "midi": 57,
      "hit": false,
      "t": 120333.39349999971,
      "d": 333.33349999999336,
      "v": 93
    },
    {
      "midi": 66,
      "hit": false,
      "t": 120666.72699999971,
      "d": 333.33349999999336,
      "v": 93
    },
    {
      "midi": 57,
      "hit": false,
      "t": 120694.50479166686,
      "d": 1222.2228333333478,
      "v": 55
    },
    {
      "midi": 64,
      "hit": false,
      "t": 121000.0604999997,
      "d": 333.33349999999336,
      "v": 93
    },
    {
      "midi": 61,
      "hit": false,
      "t": 121000.0605000002,
      "d": 688.8892333333351,
      "v": 41
    },
    {
      "midi": 64,
      "hit": false,
      "t": 121333.3939999997,
      "d": 333.33349999999336,
      "v": 93
    },
    {
      "midi": 64,
      "hit": false,
      "t": 121333.39400000019,
      "d": 461.1113416666776,
      "v": 56
    },
    {
      "midi": 61,
      "hit": false,
      "t": 121666.72749999969,
      "d": 333.33349999999336,
      "v": 93
    },
    {
      "midi": 52,
      "hit": false,
      "t": 121666.7275000002,
      "d": 611.1114166666812,
      "v": 52
    },
    {
      "midi": 66,
      "hit": false,
      "t": 122000.06099999968,
      "d": 333.33349999999336,
      "v": 93
    },
    {
      "midi": 57,
      "hit": false,
      "t": 122000.0610000002,
      "d": 377.77796666667564,
      "v": 10
    },
    {
      "midi": 64,
      "hit": false,
      "t": 122000.0610000002,
      "d": 377.77796666667564,
      "v": 45
    },
    {
      "midi": 64,
      "hit": false,
      "t": 122333.39449999967,
      "d": 1666.667499999996,
      "v": 93
    },
    {
      "midi": 54,
      "hit": false,
      "t": 122666.72799999967,
      "d": 1333.3340000000026,
      "v": 93
    },
    {
      "midi": 57,
      "hit": false,
      "t": 122666.72799999967,
      "d": 1333.3340000000026,
      "v": 93
    },
    {
      "midi": 62,
      "hit": false,
      "t": 122666.72799999967,
      "d": 1333.3340000000026,
      "v": 93
    },
    {
      "midi": 62,
      "hit": false,
      "t": 122666.72800000022,
      "d": 505.5558083333308,
      "v": 52
    },
    {
      "midi": 66,
      "hit": false,
      "t": 122666.72800000022,
      "d": 677.7781166666682,
      "v": 59
    },
    {
      "midi": 52,
      "hit": false,
      "t": 122666.72800000022,
      "d": 1333.3340000000026,
      "v": 72
    },
    {
      "midi": 57,
      "hit": false,
      "t": 123000.06150000021,
      "d": 1000.0005000000092,
      "v": 57
    },
    {
      "midi": 62,
      "hit": false,
      "t": 123333.39500000022,
      "d": 661.1114416666678,
      "v": 55
    },
    {
      "midi": 69,
      "hit": false,
      "t": 123666.72850000022,
      "d": 300.0001500000071,
      "v": 62
    },
    {
      "midi": 56,
      "hit": false,
      "t": 124000.06199999967,
      "d": 1000.0004999999946,
      "v": 93
    },
    {
      "midi": 59,
      "hit": false,
      "t": 124000.06199999967,
      "d": 1000.0004999999946,
      "v": 93
    },
    {
      "midi": 64,
      "hit": false,
      "t": 124000.06199999967,
      "d": 1000.0004999999946,
      "v": 93
    },
    {
      "midi": 59,
      "hit": false,
      "t": 124000.06200000022,
      "d": 505.5558083333308,
      "v": 52
    },
    {
      "midi": 64,
      "hit": false,
      "t": 124000.06200000022,
      "d": 677.7781166666682,
      "v": 59
    },
    {
      "midi": 40,
      "hit": false,
      "t": 124000.06200000022,
      "d": 1333.3340000000026,
      "v": 72
    },
    {
      "midi": 56,
      "hit": false,
      "t": 124333.39550000022,
      "d": 1000.0005000000092,
      "v": 57
    },
    {
      "midi": 59,
      "hit": false,
      "t": 124666.72900000022,
      "d": 661.1114416666678,
      "v": 55
    },
    {
      "midi": 69,
      "hit": false,
      "t": 125000.06249999967,
      "d": 333.33349999999336,
      "v": 93
    },
    {
      "midi": 68,
      "hit": false,
      "t": 125000.06250000022,
      "d": 300.0001500000071,
      "v": 62
    },
    {
      "midi": 61,
      "hit": false,
      "t": 125333.39599999966,
      "d": 666.6670000000013,
      "v": 93
    },
    {
      "midi": 64,
      "hit": false,
      "t": 125333.39599999966,
      "d": 666.6670000000013,
      "v": 93
    },
    {
      "midi": 69,
      "hit": false,
      "t": 125333.39599999966,
      "d": 666.6670000000013,
      "v": 93
    },
    {
      "midi": 52,
      "hit": false,
      "t": 125333.39600000023,
      "d": 1988.889883333337,
      "v": 39
    },
    {
      "midi": 57,
      "hit": false,
      "t": 125333.39600000023,
      "d": 2183.334425000008,
      "v": 58
    },
    {
      "midi": 61,
      "hit": false,
      "t": 125333.39600000023,
      "d": 2272.2233583333436,
      "v": 60
    },
    {
      "midi": 45,
      "hit": false,
      "t": 125333.39600000023,
      "d": 2666.6680000000197,
      "v": 48
    },
    {
      "midi": 64,
      "hit": false,
      "t": 125333.39600000023,
      "d": 2666.6680000000197,
      "v": 59
    },
    {
      "midi": 69,
      "hit": false,
      "t": 126000.06299999966,
      "d": 333.33349999999336,
      "v": 93
    },
    {
      "midi": 61,
      "hit": false,
      "t": 126333.39649999965,
      "d": 1000.0004999999946,
      "v": 93
    },
    {
      "midi": 64,
      "hit": false,
      "t": 126333.39649999965,
      "d": 1000.0004999999946,
      "v": 93
    },
    {
      "midi": 71,
      "hit": false,
      "t": 126333.39649999965,
      "d": 1000.0004999999946,
      "v": 93
    },
    {
      "midi": 69,
      "hit": false,
      "t": 127333.39699999965,
      "d": 333.33349999999336,
      "v": 93
    },
    {
      "midi": 52,
      "hit": false,
      "t": 127500.06375000023,
      "d": 500.0002500000119,
      "v": 57
    },
    {
      "midi": 61,
      "hit": false,
      "t": 127666.73049999964,
      "d": 2333.334499999997,
      "v": 93
    },
    {
      "midi": 64,
      "hit": false,
      "t": 127666.73049999964,
      "d": 2333.334499999997,
      "v": 93
    },
    {
      "midi": 69,
      "hit": false,
      "t": 127666.73049999964,
      "d": 2333.334499999997,
      "v": 93
    },
    {
      "midi": 57,
      "hit": false,
      "t": 127666.73050000024,
      "d": 333.3335000000079,
      "v": 45
    },
    {
      "midi": 61,
      "hit": false,
      "t": 127833.39725000024,
      "d": 166.66675000000396,
      "v": 68
    },
    {
      "midi": 52,
      "hit": false,
      "t": 128000.06400000025,
      "d": 1988.889883333337,
      "v": 39
    },
    {
      "midi": 57,
      "hit": false,
      "t": 128000.06400000025,
      "d": 2183.334425000008,
      "v": 58
    },
    {
      "midi": 61,
      "hit": false,
      "t": 128000.06400000025,
      "d": 2272.2233583333436,
      "v": 60
    },
    {
      "midi": 43,
      "hit": false,
      "t": 128000.06400000025,
      "d": 2666.6680000000197,
      "v": 48
    },
    {
      "midi": 64,
      "hit": false,
      "t": 128000.06400000025,
      "d": 2666.6680000000197,
      "v": 59
    },
    {
      "midi": 61,
      "hit": false,
      "t": 130000.06499999964,
      "d": 333.33349999999336,
      "v": 93
    },
    {
      "midi": 52,
      "hit": false,
      "t": 130166.73175000025,
      "d": 500.0002500000119,
      "v": 57
    },
    {
      "midi": 69,
      "hit": false,
      "t": 130333.39849999963,
      "d": 333.33349999999336,
      "v": 93
    },
    {
      "midi": 57,
      "hit": false,
      "t": 130333.39850000026,
      "d": 333.3335000000079,
      "v": 45
    },
    {
      "midi": 61,
      "hit": false,
      "t": 130500.06525000026,
      "d": 166.66675000000396,
      "v": 68
    },
    {
      "midi": 62,
      "hit": false,
      "t": 130666.73199999963,
      "d": 333.33349999999336,
      "v": 93
    },
    {
      "midi": 66,
      "hit": false,
      "t": 130666.73199999963,
      "d": 333.33349999999336,
      "v": 93
    },
    {
      "midi": 71,
      "hit": false,
      "t": 130666.73199999963,
      "d": 333.33349999999336,
      "v": 93
    },
    {
      "midi": 62,
      "hit": false,
      "t": 130666.73200000027,
      "d": 550.000274999984,
      "v": 45
    },
    {
      "midi": 66,
      "hit": false,
      "t": 130666.73200000027,
      "d": 694.444791666625,
      "v": 55
    },
    {
      "midi": 69,
      "hit": false,
      "t": 130666.73200000027,
      "d": 955.5560333332833,
      "v": 58
    },
    {
      "midi": 54,
      "hit": false,
      "t": 130666.73200000027,
      "d": 2622.2235333332646,
      "v": 63
    },
    {
      "midi": 69,
      "hit": false,
      "t": 131000.06549999962,
      "d": 666.6669999999867,
      "v": 93
    },
    {
      "midi": 57,
      "hit": false,
      "t": 131000.06550000026,
      "d": 1083.333874999953,
      "v": 57
    },
    {
      "midi": 62,
      "hit": false,
      "t": 131361.1767916669,
      "d": 1222.2228333333042,
      "v": 55
    },
    {
      "midi": 62,
      "hit": false,
      "t": 131666.7324999996,
      "d": 1000.0004999999946,
      "v": 93
    },
    {
      "midi": 66,
      "hit": false,
      "t": 131666.7324999996,
      "d": 1000.0004999999946,
      "v": 93
    },
    {
      "midi": 69,
      "hit": false,
      "t": 131666.7324999996,
      "d": 1000.0004999999946,
      "v": 93
    },
    {
      "midi": 66,
      "hit": false,
      "t": 131666.73250000022,
      "d": 688.8892333333206,
      "v": 41
    },
    {
      "midi": 69,
      "hit": false,
      "t": 132000.06600000022,
      "d": 461.11134166663396,
      "v": 56
    },
    {
      "midi": 57,
      "hit": false,
      "t": 132333.3995000002,
      "d": 611.1114166666521,
      "v": 52
    },
    {
      "midi": 69,
      "hit": false,
      "t": 132666.7329999996,
      "d": 333.3335000000079,
      "v": 93
    },
    {
      "midi": 62,
      "hit": false,
      "t": 132666.73300000018,
      "d": 377.77796666667564,
      "v": 10
    },
    {
      "midi": 69,
      "hit": false,
      "t": 132666.73300000018,
      "d": 377.77796666667564,
      "v": 45
    },
    {
      "midi": 66,
      "hit": false,
      "t": 133000.0664999996,
      "d": 166.66675000000396,
      "v": 93
    },
    {
      "midi": 64,
      "hit": false,
      "t": 133166.7332499996,
      "d": 166.66675000000396,
      "v": 93
    },
    {
      "midi": 54,
      "hit": false,
      "t": 133333.39999999962,
      "d": 1333.3340000000026,
      "v": 93
    },
    {
      "midi": 62,
      "hit": false,
      "t": 133333.39999999962,
      "d": 1333.3340000000026,
      "v": 93
    },
    {
      "midi": 69,
      "hit": false,
      "t": 133333.4000000002,
      "d": 1127.7783416666498,
      "v": 51
    },
    {
      "midi": 62,
      "hit": false,
      "t": 133333.4000000002,
      "d": 1144.4450166666356,
      "v": 51
    },
    {
      "midi": 50,
      "hit": false,
      "t": 133333.4000000002,
      "d": 2666.667999999976,
      "v": 52
    },
    {
      "midi": 57,
      "hit": false,
      "t": 134333.4005000002,
      "d": 1666.6674999999814,
      "v": 46
    },
    {
      "midi": 57,
      "hit": false,
      "t": 134666.73399999962,
      "d": 666.6669999999867,
      "v": 93
    },
    {
      "midi": 66,
      "hit": false,
      "t": 134666.73399999962,
      "d": 666.6669999999867,
      "v": 93
    },
    {
      "midi": 62,
      "hit": false,
      "t": 134666.73400000017,
      "d": 1333.3340000000026,
      "v": 43
    },
    {
      "midi": 69,
      "hit": false,
      "t": 134666.73400000017,
      "d": 1333.3340000000026,
      "v": 51
    },
    {
      "midi": 59,
      "hit": false,
      "t": 135333.4009999996,
      "d": 333.3335000000079,
      "v": 93
    },
    {
      "midi": 68,
      "hit": false,
      "t": 135333.4009999996,
      "d": 333.3335000000079,
      "v": 93
    },
    {
      "midi": 64,
      "hit": false,
      "t": 135666.7344999996,
      "d": 333.3335000000079,
      "v": 93
    },
    {
      "midi": 66,
      "hit": false,
      "t": 136000.06799999962,
      "d": 666.6669999999867,
      "v": 93
    },
    {
      "midi": 57,
      "hit": false,
      "t": 136000.06800000003,
      "d": 1333.3340000000026,
      "v": 91
    },
    {
      "midi": 62,
      "hit": false,
      "t": 136000.06800000003,
      "d": 1333.3340000000026,
      "v": 91
    },
    {
      "midi": 62,
      "hit": false,
      "t": 136000.06800000017,
      "d": 505.5558083333308,
      "v": 52
    },
    {
      "midi": 66,
      "hit": false,
      "t": 136000.06800000017,
      "d": 677.7781166666537,
      "v": 59
    },
    {
      "midi": 50,
      "hit": false,
      "t": 136000.06800000017,
      "d": 1333.3339999999735,
      "v": 72
    },
    {
      "midi": 57,
      "hit": false,
      "t": 136333.40150000018,
      "d": 1000.0004999999655,
      "v": 57
    },
    {
      "midi": 68,
      "hit": false,
      "t": 136666.7349999996,
      "d": 333.3335000000079,
      "v": 93
    },
    {
      "midi": 62,
      "hit": false,
      "t": 136666.73500000016,
      "d": 661.1114416666678,
      "v": 55
    },
    {
      "midi": 69,
      "hit": false,
      "t": 137000.06849999962,
      "d": 666.6669999999867,
      "v": 93
    },
    {
      "midi": 69,
      "hit": false,
      "t": 137000.06850000017,
      "d": 300.0001500000071,
      "v": 62
    },
    {
      "midi": 59,
      "hit": false,
      "t": 137333.40200000003,
      "d": 1333.3340000000026,
      "v": 91
    },
    {
      "midi": 64,
      "hit": false,
      "t": 137333.40200000003,
      "d": 1333.3340000000026,
      "v": 91
    },
    {
      "midi": 59,
      "hit": false,
      "t": 137333.40200000015,
      "d": 977.7782666666608,
      "v": 47
    },
    {
      "midi": 64,
      "hit": false,
      "t": 137333.40200000015,
      "d": 1327.7784416666545,
      "v": 56
    },
    {
      "midi": 40,
      "hit": false,
      "t": 137333.40200000015,
      "d": 1333.3339999999735,
      "v": 57
    },
    {
      "midi": 68,
      "hit": false,
      "t": 137333.40200000015,
      "d": 1333.3339999999735,
      "v": 37
    },
    {
      "midi": 68,
      "hit": false,
      "t": 137666.7354999996,
      "d": 333.3335000000079,
      "v": 93
    },
    {
      "midi": 66,
      "hit": false,
      "t": 138000.0689999996,
      "d": 333.3335000000079,
      "v": 93
    },
    {
      "midi": 56,
      "hit": false,
      "t": 138000.06900000013,
      "d": 588.8891833333473,
      "v": 32
    },
    {
      "midi": 64,
      "hit": false,
      "t": 138333.40249999962,
      "d": 2333.334499999997,
      "v": 93
    },
    {
      "midi": 59,
      "hit": false,
      "t": 138333.40250000014,
      "d": 327.7779416666599,
      "v": 49
    },
    {
      "midi": 56,
      "hit": false,
      "t": 138666.73600000003,
      "d": 666.6669999999867,
      "v": 91
    },
    {
      "midi": 59,
      "hit": false,
      "t": 138666.73600000003,
      "d": 666.6669999999867,
      "v": 91
    },
    {
      "midi": 49,
      "hit": false,
      "t": 138666.73600000012,
      "d": 1333.3340000000026,
      "v": 55
    },
    {
      "midi": 59,
      "hit": false,
      "t": 138666.73600000012,
      "d": 1333.3340000000026,
      "v": 47
    },
    {
      "midi": 61,
      "hit": false,
      "t": 138666.73600000012,
      "d": 1333.3340000000026,
      "v": 60
    },
    {
      "midi": 64,
      "hit": false,
      "t": 138666.73600000012,
      "d": 1333.3340000000026,
      "v": 53
    },
    {
      "midi": 68,
      "hit": false,
      "t": 138666.73600000012,
      "d": 1333.3340000000026,
      "v": 52
    },
    {
      "midi": 56,
      "hit": false,
      "t": 139333.40300000002,
      "d": 333.3335000000079,
      "v": 91
    },
    {
      "midi": 59,
      "hit": false,
      "t": 139666.73650000003,
      "d": 333.3335000000079,
      "v": 91
    },
    {
      "midi": 57,
      "hit": false,
      "t": 140000.07000000004,
      "d": 1333.3340000000026,
      "v": 91
    },
    {
      "midi": 57,
      "hit": false,
      "t": 140000.07000000012,
      "d": 505.5558083333308,
      "v": 52
    },
    {
      "midi": 61,
      "hit": false,
      "t": 140000.07000000012,
      "d": 677.7781166666537,
      "v": 59
    },
    {
      "midi": 42,
      "hit": false,
      "t": 140000.07000000012,
      "d": 1333.3339999999735,
      "v": 72
    },
    {
      "midi": 54,
      "hit": false,
      "t": 140333.40350000013,
      "d": 1000.0004999999655,
      "v": 57
    },
    {
      "midi": 59,
      "hit": false,
      "t": 140666.73699999962,
      "d": 333.3335000000079,
      "v": 93
    },
    {
      "midi": 57,
      "hit": false,
      "t": 140666.7370000001,
      "d": 661.1114416666678,
      "v": 55
    },
    {
      "midi": 61,
      "hit": false,
      "t": 141000.07049999962,
      "d": 333.3335000000079,
      "v": 93
    },
    {
      "midi": 64,
      "hit": false,
      "t": 141000.07050000012,
      "d": 300.0001500000071,
      "v": 62
    },
    {
      "midi": 62,
      "hit": false,
      "t": 141333.40399999963,
      "d": 666.6669999999867,
      "v": 93
    },
    {
      "midi": 54,
      "hit": false,
      "t": 141333.40400000004,
      "d": 1333.3340000000026,
      "v": 91
    },
    {
      "midi": 57,
      "hit": false,
      "t": 141333.40400000004,
      "d": 1333.3340000000026,
      "v": 91
    },
    {
      "midi": 47,
      "hit": false,
      "t": 141333.4040000001,
      "d": 1333.3340000000026,
      "v": 55
    },
    {
      "midi": 57,
      "hit": false,
      "t": 141333.4040000001,
      "d": 1333.3340000000026,
      "v": 47
    },
    {
      "midi": 59,
      "hit": false,
      "t": 141333.4040000001,
      "d": 1333.3340000000026,
      "v": 60
    },
    {
      "midi": 62,
      "hit": false,
      "t": 141333.4040000001,
      "d": 1333.3340000000026,
      "v": 53
    },
    {
      "midi": 66,
      "hit": false,
      "t": 141333.4040000001,
      "d": 1333.3340000000026,
      "v": 52
    },
    {
      "midi": 62,
      "hit": false,
      "t": 142000.07099999962,
      "d": 333.3335000000079,
      "v": 93
    },
    {
      "midi": 62,
      "hit": false,
      "t": 142333.40449999963,
      "d": 666.6669999999867,
      "v": 93
    },
    {
      "midi": 56,
      "hit": false,
      "t": 142666.73800000004,
      "d": 1333.3340000000026,
      "v": 91
    },
    {
      "midi": 59,
      "hit": false,
      "t": 142666.73800000004,
      "d": 1333.3340000000026,
      "v": 91
    },
    {
      "midi": 40,
      "hit": false,
      "t": 142666.7380000001,
      "d": 1333.3340000000026,
      "v": 55
    },
    {
      "midi": 56,
      "hit": false,
      "t": 142666.7380000001,
      "d": 1333.3340000000026,
      "v": 47
    },
    {
      "midi": 59,
      "hit": false,
      "t": 142666.7380000001,
      "d": 1333.3340000000026,
      "v": 60
    },
    {
      "midi": 62,
      "hit": false,
      "t": 142666.7380000001,
      "d": 1333.3340000000026,
      "v": 53
    },
    {
      "midi": 64,
      "hit": false,
      "t": 142666.7380000001,
      "d": 1333.3340000000026,
      "v": 52
    },
    {
      "midi": 61,
      "hit": false,
      "t": 143000.0714999996,
      "d": 333.3335000000079,
      "v": 93
    },
    {
      "midi": 59,
      "hit": false,
      "t": 143333.40499999962,
      "d": 333.3335000000079,
      "v": 93
    },
    {
      "midi": 61,
      "hit": false,
      "t": 143666.73849999963,
      "d": 166.66675000000396,
      "v": 93
    },
    {
      "midi": 59,
      "hit": false,
      "t": 143833.40524999963,
      "d": 166.66675000000396,
      "v": 93
    },
    {
      "midi": 57,
      "hit": false,
      "t": 144000.07199999964,
      "d": 333.3335000000079,
      "v": 93
    },
    {
      "midi": 52,
      "hit": false,
      "t": 144000.0720000001,
      "d": 1988.8898833333224,
      "v": 39
    },
    {
      "midi": 57,
      "hit": false,
      "t": 144000.0720000001,
      "d": 2183.334424999979,
      "v": 58
    },
    {
      "midi": 61,
      "hit": false,
      "t": 144000.0720000001,
      "d": 2272.2233583333145,
      "v": 60
    },
    {
      "midi": 45,
      "hit": false,
      "t": 144000.0720000001,
      "d": 2666.667999999976,
      "v": 48
    },
    {
      "midi": 64,
      "hit": false,
      "t": 144000.0720000001,
      "d": 2666.667999999976,
      "v": 59
    },
    {
      "midi": 64,
      "hit": false,
      "t": 144333.40549999964,
      "d": 333.3335000000079,
      "v": 93
    },
    {
      "midi": 69,
      "hit": false,
      "t": 144666.73899999965,
      "d": 333.3335000000079,
      "v": 93
    },
    {
      "midi": 71,
      "hit": false,
      "t": 145000.07249999966,
      "d": 666.6669999999867,
      "v": 93
    },
    {
      "midi": 69,
      "hit": false,
      "t": 145666.73949999965,
      "d": 666.6669999999867,
      "v": 93
    },
    {
      "midi": 52,
      "hit": false,
      "t": 146166.7397500001,
      "d": 500.00024999998277,
      "v": 57
    },
    {
      "midi": 57,
      "hit": false,
      "t": 146333.40649999963,
      "d": 666.6669999999867,
      "v": 93
    },
    {
      "midi": 61,
      "hit": false,
      "t": 146333.40649999963,
      "d": 666.6669999999867,
      "v": 93
    },
    {
      "midi": 64,
      "hit": false,
      "t": 146333.40649999963,
      "d": 666.6669999999867,
      "v": 93
    },
    {
      "midi": 57,
      "hit": false,
      "t": 146333.40650000007,
      "d": 333.3335000000079,
      "v": 45
    },
    {
      "midi": 61,
      "hit": false,
      "t": 146500.07325000007,
      "d": 166.66675000000396,
      "v": 68
    },
    {
      "midi": 64,
      "hit": false,
      "t": 146666.74000000008,
      "d": 1127.7783416666498,
      "v": 51
    },
    {
      "midi": 57,
      "hit": false,
      "t": 146666.74000000008,
      "d": 1144.4450166666356,
      "v": 51
    },
    {
      "midi": 43,
      "hit": false,
      "t": 146666.74000000008,
      "d": 2666.667999999976,
      "v": 52
    },
    {
      "midi": 57,
      "hit": false,
      "t": 147000.07349999962,
      "d": 333.3335000000079,
      "v": 93
    },
    {
      "midi": 69,
      "hit": false,
      "t": 147333.40699999963,
      "d": 333.3335000000079,
      "v": 93
    },
    {
      "midi": 71,
      "hit": false,
      "t": 147666.74049999964,
      "d": 666.6669999999867,
      "v": 93
    },
    {
      "midi": 52,
      "hit": false,
      "t": 147666.74050000007,
      "d": 1666.6674999999814,
      "v": 46
    },
    {
      "midi": 57,
      "hit": false,
      "t": 148000.07400000005,
      "d": 1333.3340000000026,
      "v": 43
    },
    {
      "midi": 64,
      "hit": false,
      "t": 148000.07400000005,
      "d": 1333.3340000000026,
      "v": 51
    },
    {
      "midi": 69,
      "hit": false,
      "t": 148333.40749999962,
      "d": 666.6669999999867,
      "v": 93
    },
    {
      "midi": 57,
      "hit": false,
      "t": 149000.0744999996,
      "d": 666.6669999999867,
      "v": 93
    },
    {
      "midi": 62,
      "hit": false,
      "t": 149000.0744999996,
      "d": 666.6669999999867,
      "v": 93
    },
    {
      "midi": 62,
      "hit": false,
      "t": 149333.40800000005,
      "d": 1727.778641666664,
      "v": 55
    },
    {
      "midi": 66,
      "hit": false,
      "t": 149333.40800000005,
      "d": 1833.3342499999853,
      "v": 78
    },
    {
      "midi": 69,
      "hit": false,
      "t": 149333.40800000005,
      "d": 1833.3342499999853,
      "v": 54
    },
    {
      "midi": 54,
      "hit": false,
      "t": 149333.40800000005,
      "d": 2666.667999999947,
      "v": 72
    },
    {
      "midi": 57,
      "hit": false,
      "t": 149666.7414999996,
      "d": 333.3335000000079,
      "v": 93
    },
    {
      "midi": 69,
      "hit": false,
      "t": 150000.0749999996,
      "d": 333.3335000000079,
      "v": 93
    },
    {
      "midi": 71,
      "hit": false,
      "t": 150333.4084999996,
      "d": 666.6669999999867,
      "v": 93
    },
    {
      "midi": 69,
      "hit": false,
      "t": 151000.0754999996,
      "d": 666.6669999999867,
      "v": 93
    },
    {
      "midi": 57,
      "hit": false,
      "t": 151000.07550000006,
      "d": 955.5560333332687,
      "v": 63
    },
    {
      "midi": 62,
      "hit": false,
      "t": 151183.40892500003,
      "d": 750.0003749999742,
      "v": 53
    },
    {
      "midi": 66,
      "hit": false,
      "t": 151333.409,
      "d": 561.1113916666654,
      "v": 59
    },
    {
      "midi": 69,
      "hit": false,
      "t": 151500.07575000002,
      "d": 361.1112916666607,
      "v": 58
    },
    {
      "midi": 57,
      "hit": false,
      "t": 151666.7424999996,
      "d": 666.6669999999867,
      "v": 93
    },
    {
      "midi": 62,
      "hit": false,
      "t": 151666.7424999996,
      "d": 666.6669999999867,
      "v": 93
    },
    {
      "midi": 66,
      "hit": false,
      "t": 151666.7424999996,
      "d": 666.6669999999867,
      "v": 93
    },
    {
      "midi": 62,
      "hit": false,
      "t": 152000.076,
      "d": 505.5558083333308,
      "v": 52
    },
    {
      "midi": 66,
      "hit": false,
      "t": 152000.076,
      "d": 677.7781166666537,
      "v": 59
    },
    {
      "midi": 52,
      "hit": false,
      "t": 152000.076,
      "d": 1333.3339999999735,
      "v": 72
    },
    {
      "midi": 62,
      "hit": false,
      "t": 152333.40949999957,
      "d": 333.3335000000079,
      "v": 93
    },
    {
      "midi": 57,
      "hit": false,
      "t": 152333.4095,
      "d": 1000.0004999999655,
      "v": 57
    },
    {
      "midi": 57,
      "hit": false,
      "t": 152666.74299999958,
      "d": 333.3335000000079,
      "v": 93
    },
    {
      "midi": 62,
      "hit": false,
      "t": 152666.743,
      "d": 661.1114416666678,
      "v": 55
    },
    {
      "midi": 54,
      "hit": false,
      "t": 153000.0764999996,
      "d": 333.3335000000079,
      "v": 93
    },
    {
      "midi": 69,
      "hit": false,
      "t": 153000.0765,
      "d": 300.0001500000071,
      "v": 62
    },
    {
      "midi": 56,
      "hit": false,
      "t": 153333.4099999996,
      "d": 666.6669999999867,
      "v": 93
    },
    {
      "midi": 59,
      "hit": false,
      "t": 153333.4099999996,
      "d": 666.6669999999867,
      "v": 93
    },
    {
      "midi": 64,
      "hit": false,
      "t": 153333.4099999996,
      "d": 666.6669999999867,
      "v": 93
    },
    {
      "midi": 59,
      "hit": false,
      "t": 153333.40999999997,
      "d": 977.7782666666608,
      "v": 47
    },
    {
      "midi": 64,
      "hit": false,
      "t": 153333.40999999997,
      "d": 1327.7784416666545,
      "v": 56
    },
    {
      "midi": 40,
      "hit": false,
      "t": 153333.40999999997,
      "d": 1333.3339999999735,
      "v": 57
    },
    {
      "midi": 68,
      "hit": false,
      "t": 153333.40999999997,
      "d": 1333.3339999999735,
      "v": 37
    },
    {
      "midi": 66,
      "hit": false,
      "t": 154000.07699999958,
      "d": 333.3335000000079,
      "v": 93
    },
    {
      "midi": 56,
      "hit": false,
      "t": 154000.07699999996,
      "d": 588.8891833333473,
      "v": 32
    },
    {
      "midi": 68,
      "hit": false,
      "t": 154333.4104999996,
      "d": 333.3335000000079,
      "v": 93
    },
    {
      "midi": 59,
      "hit": false,
      "t": 154333.41049999997,
      "d": 327.7779416666599,
      "v": 49
    },
    {
      "midi": 61,
      "hit": false,
      "t": 154666.7439999996,
      "d": 1333.3340000000026,
      "v": 93
    },
    {
      "midi": 66,
      "hit": false,
      "t": 154666.7439999996,
      "d": 1333.3340000000026,
      "v": 93
    },
    {
      "midi": 69,
      "hit": false,
      "t": 154666.7439999996,
      "d": 1333.3340000000026,
      "v": 93
    },
    {
      "midi": 61,
      "hit": false,
      "t": 154666.74399999995,
      "d": 550.0002749999985,
      "v": 45
    },
    {
      "midi": 66,
      "hit": false,
      "t": 154666.74399999995,
      "d": 694.4447916666395,
      "v": 55
    },
    {
      "midi": 69,
      "hit": false,
      "t": 154666.74399999995,
      "d": 955.5560333332978,
      "v": 58
    },
    {
      "midi": 42,
      "hit": false,
      "t": 154666.74399999995,
      "d": 2622.223533333279,
      "v": 63
    },
    {
      "midi": 57,
      "hit": false,
      "t": 155000.07749999996,
      "d": 1083.333874999953,
      "v": 57
    },
    {
      "midi": 61,
      "hit": false,
      "t": 155361.1887916666,
      "d": 1222.2228333333042,
      "v": 55
    },
    {
      "midi": 66,
      "hit": false,
      "t": 155666.7444999999,
      "d": 688.8892333333206,
      "v": 41
    },
    {
      "midi": 61,
      "hit": false,
      "t": 156000.0779999996,
      "d": 666.6669999999867,
      "v": 93
    },
    {
      "midi": 66,
      "hit": false,
      "t": 156000.0779999996,
      "d": 666.6669999999867,
      "v": 93
    },
    {
      "midi": 69,
      "hit": false,
      "t": 156000.0779999996,
      "d": 666.6669999999867,
      "v": 93
    },
    {
      "midi": 69,
      "hit": false,
      "t": 156000.07799999992,
      "d": 461.11134166663396,
      "v": 56
    },
    {
      "midi": 57,
      "hit": false,
      "t": 156333.4114999999,
      "d": 611.1114166666521,
      "v": 52
    },
    {
      "midi": 68,
      "hit": false,
      "t": 156666.7449999996,
      "d": 333.3335000000079,
      "v": 93
    },
    {
      "midi": 61,
      "hit": false,
      "t": 156666.74499999988,
      "d": 377.77796666667564,
      "v": 10
    },
    {
      "midi": 69,
      "hit": false,
      "t": 156666.74499999988,
      "d": 377.77796666667564,
      "v": 45
    },
    {
      "midi": 59,
      "hit": false,
      "t": 157000.0784999996,
      "d": 500.0002500000119,
      "v": 93
    },
    {
      "midi": 64,
      "hit": false,
      "t": 157000.0784999996,
      "d": 500.0002500000119,
      "v": 93
    },
    {
      "midi": 68,
      "hit": false,
      "t": 157000.0784999996,
      "d": 500.0002500000119,
      "v": 93
    },
    {
      "midi": 59,
      "hit": false,
      "t": 157333.4119999999,
      "d": 550.0002749999985,
      "v": 45
    },
    {
      "midi": 61,
      "hit": false,
      "t": 157333.4119999999,
      "d": 694.4447916666395,
      "v": 55
    },
    {
      "midi": 64,
      "hit": false,
      "t": 157333.4119999999,
      "d": 955.5560333332978,
      "v": 58
    },
    {
      "midi": 68,
      "hit": false,
      "t": 157333.4119999999,
      "d": 983.3338249999506,
      "v": 56
    },
    {
      "midi": 49,
      "hit": false,
      "t": 157333.4119999999,
      "d": 2622.223533333221,
      "v": 63
    },
    {
      "midi": 66,
      "hit": false,
      "t": 157500.0787499996,
      "d": 166.66675000000396,
      "v": 93
    },
    {
      "midi": 64,
      "hit": false,
      "t": 157666.7454999996,
      "d": 666.6669999999867,
      "v": 93
    },
    {
      "midi": 56,
      "hit": false,
      "t": 157666.7454999999,
      "d": 1083.3338749999239,
      "v": 57
    },
    {
      "midi": 59,
      "hit": false,
      "t": 158027.85679166653,
      "d": 1222.222833333275,
      "v": 55
    },
    {
      "midi": 56,
      "hit": false,
      "t": 158333.4124999996,
      "d": 333.3335000000079,
      "v": 93
    },
    {
      "midi": 61,
      "hit": false,
      "t": 158333.41249999983,
      "d": 688.8892333333206,
      "v": 41
    },
    {
      "midi": 59,
      "hit": false,
      "t": 158666.7459999996,
      "d": 333.3335000000079,
      "v": 93
    },
    {
      "midi": 64,
      "hit": false,
      "t": 158666.74599999984,
      "d": 461.11134166663396,
      "v": 56
    },
    {
      "midi": 64,
      "hit": false,
      "t": 159000.0794999996,
      "d": 333.3335000000079,
      "v": 93
    },
    {
      "midi": 56,
      "hit": false,
      "t": 159000.07949999982,
      "d": 611.1114166666521,
      "v": 52
    },
    {
      "midi": 68,
      "hit": false,
      "t": 159333.41299999962,
      "d": 333.3335000000079,
      "v": 93
    },
    {
      "midi": 59,
      "hit": false,
      "t": 159333.4129999998,
      "d": 377.77796666667564,
      "v": 10
    },
    {
      "midi": 64,
      "hit": false,
      "t": 159333.4129999998,
      "d": 377.77796666667564,
      "v": 45
    },
    {
      "midi": 61,
      "hit": false,
      "t": 159666.74649999963,
      "d": 333.3335000000079,
      "v": 93
    },
    {
      "midi": 68,
      "hit": false,
      "t": 159666.7464999998,
      "d": 205.55565833332366,
      "v": 87
    },
    {
      "midi": 57,
      "hit": false,
      "t": 160000.07999999964,
      "d": 1333.3340000000026,
      "v": 93
    },
    {
      "midi": 62,
      "hit": false,
      "t": 160000.07999999964,
      "d": 1333.3340000000026,
      "v": 93
    },
    {
      "midi": 66,
      "hit": false,
      "t": 160000.07999999964,
      "d": 1333.3340000000026,
      "v": 93
    },
    {
      "midi": 62,
      "hit": false,
      "t": 160000.07999999978,
      "d": 505.5558083333308,
      "v": 52
    },
    {
      "midi": 66,
      "hit": false,
      "t": 160000.07999999978,
      "d": 677.7781166666537,
      "v": 59
    },
    {
      "midi": 50,
      "hit": false,
      "t": 160000.07999999978,
      "d": 1333.3339999999735,
      "v": 72
    },
    {
      "midi": 57,
      "hit": false,
      "t": 160333.4134999998,
      "d": 1000.0004999999655,
      "v": 57
    },
    {
      "midi": 62,
      "hit": false,
      "t": 160666.74699999977,
      "d": 661.1114416666678,
      "v": 55
    },
    {
      "midi": 69,
      "hit": false,
      "t": 161000.08049999978,
      "d": 300.0001500000071,
      "v": 62
    },
    {
      "midi": 56,
      "hit": false,
      "t": 161333.41399999964,
      "d": 333.3335000000079,
      "v": 93
    },
    {
      "midi": 62,
      "hit": false,
      "t": 161333.41399999964,
      "d": 333.3335000000079,
      "v": 93
    },
    {
      "midi": 66,
      "hit": false,
      "t": 161333.41399999964,
      "d": 333.3335000000079,
      "v": 93
    },
    {
      "midi": 56,
      "hit": false,
      "t": 161333.41399999976,
      "d": 505.5558083333308,
      "v": 52
    },
    {
      "midi": 59,
      "hit": false,
      "t": 161333.41399999976,
      "d": 677.7781166666537,
      "v": 59
    },
    {
      "midi": 40,
      "hit": false,
      "t": 161333.41399999976,
      "d": 1333.3339999999735,
      "v": 72
    },
    {
      "midi": 64,
      "hit": false,
      "t": 161666.74749999965,
      "d": 333.3335000000079,
      "v": 93
    },
    {
      "midi": 52,
      "hit": false,
      "t": 161666.74749999976,
      "d": 1000.0004999999655,
      "v": 57
    },
    {
      "midi": 64,
      "hit": false,
      "t": 162000.08099999966,
      "d": 333.3335000000079,
      "v": 93
    },
    {
      "midi": 56,
      "hit": false,
      "t": 162000.08099999974,
      "d": 661.1114416666678,
      "v": 55
    },
    {
      "midi": 57,
      "hit": false,
      "t": 162333.41449999966,
      "d": 666.6669999999867,
      "v": 93
    },
    {
      "midi": 61,
      "hit": false,
      "t": 162333.41449999966,
      "d": 666.6669999999867,
      "v": 93
    },
    {
      "midi": 64,
      "hit": false,
      "t": 162333.41449999966,
      "d": 666.6669999999867,
      "v": 93
    },
    {
      "midi": 62,
      "hit": false,
      "t": 162333.41449999975,
      "d": 300.0001500000071,
      "v": 62
    },
    {
      "midi": 64,
      "hit": false,
      "t": 162666.74799999973,
      "d": 1366.6673500000034,
      "v": 63
    },
    {
      "midi": 45,
      "hit": false,
      "t": 162666.74799999973,
      "d": 2666.667999999976,
      "v": 46
    },
    {
      "midi": 52,
      "hit": false,
      "t": 162666.74799999973,
      "d": 2666.667999999976,
      "v": 55
    },
    {
      "midi": 57,
      "hit": false,
      "t": 162666.74799999973,
      "d": 2666.667999999976,
      "v": 43
    },
    {
      "midi": 61,
      "hit": false,
      "t": 162666.74799999973,
      "d": 2666.667999999976,
      "v": 53
    },
    {
      "midi": 62,
      "hit": false,
      "t": 163000.08149999965,
      "d": 333.3335000000079,
      "v": 93
    },
    {
      "midi": 61,
      "hit": false,
      "t": 163333.41499999966,
      "d": 666.6669999999867,
      "v": 93
    },
    {
      "midi": 61,
      "hit": false,
      "t": 164000.08199999965,
      "d": 333.3335000000079,
      "v": 93
    },
    {
      "midi": 73,
      "hit": false,
      "t": 164000.08199999973,
      "d": 727.7781416666403,
      "v": 76
    },
    {
      "midi": 64,
      "hit": false,
      "t": 164333.41549999965,
      "d": 333.3335000000079,
      "v": 93
    },
    {
      "midi": 66,
      "hit": false,
      "t": 164666.74899999966,
      "d": 333.3335000000079,
      "v": 93
    },
    {
      "midi": 64,
      "hit": false,
      "t": 164666.74899999972,
      "d": 633.3336499999859,
      "v": 63
    },
    {
      "midi": 68,
      "hit": false,
      "t": 165000.08249999967,
      "d": 333.3335000000079,
      "v": 93
    },
    {
      "midi": 61,
      "hit": false,
      "t": 165333.41599999968,
      "d": 333.3335000000079,
      "v": 93
    },
    {
      "midi": 66,
      "hit": false,
      "t": 165333.41599999968,
      "d": 333.3335000000079,
      "v": 93
    },
    {
      "midi": 69,
      "hit": false,
      "t": 165333.41599999968,
      "d": 333.3335000000079,
      "v": 93
    },
    {
      "midi": 57,
      "hit": false,
      "t": 165333.4159999997,
      "d": 1988.8898833333224,
      "v": 39
    },
    {
      "midi": 61,
      "hit": false,
      "t": 165333.4159999997,
      "d": 2183.334424999979,
      "v": 58
    },
    {
      "midi": 64,
      "hit": false,
      "t": 165333.4159999997,
      "d": 2272.2233583333145,
      "v": 60
    },
    {
      "midi": 42,
      "hit": false,
      "t": 165333.4159999997,
      "d": 2666.667999999976,
      "v": 48
    },
    {
      "midi": 66,
      "hit": false,
      "t": 165333.4159999997,
      "d": 2666.667999999976,
      "v": 59
    },
    {
      "midi": 61,
      "hit": false,
      "t": 165666.74949999969,
      "d": 666.6669999999867,
      "v": 93
    },
    {
      "midi": 66,
      "hit": false,
      "t": 165666.74949999969,
      "d": 666.6669999999867,
      "v": 93
    },
    {
      "midi": 69,
      "hit": false,
      "t": 165666.74949999969,
      "d": 666.6669999999867,
      "v": 93
    },
    {
      "midi": 71,
      "hit": false,
      "t": 166333.41649999967,
      "d": 1000.0004999999946,
      "v": 93
    },
    {
      "midi": 68,
      "hit": false,
      "t": 167333.41699999967,
      "d": 333.3335000000079,
      "v": 93
    },
    {
      "midi": 57,
      "hit": false,
      "t": 167500.0837499997,
      "d": 500.00024999998277,
      "v": 57
    },
    {
      "midi": 61,
      "hit": false,
      "t": 167666.75049999967,
      "d": 333.3335000000079,
      "v": 45
    },
    {
      "midi": 68,
      "hit": false,
      "t": 167666.75049999967,
      "d": 666.6670000000158,
      "v": 93
    },
    {
      "midi": 64,
      "hit": false,
      "t": 167833.41724999968,
      "d": 166.66675000000396,
      "v": 68
    },
    {
      "midi": 59,
      "hit": false,
      "t": 168000.08399999968,
      "d": 1727.778641666664,
      "v": 55
    },
    {
      "midi": 61,
      "hit": false,
      "t": 168000.08399999968,
      "d": 1833.3342499999853,
      "v": 78
    },
    {
      "midi": 64,
      "hit": false,
      "t": 168000.08399999968,
      "d": 1833.3342499999853,
      "v": 54
    },
    {
      "midi": 68,
      "hit": false,
      "t": 168000.08399999968,
      "d": 1850.0009249999712,
      "v": 59
    },
    {
      "midi": 49,
      "hit": false,
      "t": 168000.08399999968,
      "d": 2666.667999999947,
      "v": 72
    },
    {
      "midi": 59,
      "hit": false,
      "t": 168000.08399999968,
      "d": 333.3335000000079,
      "v": 93
    },
    {
      "midi": 64,
      "hit": false,
      "t": 168000.08399999968,
      "d": 333.3335000000079,
      "v": 93
    },
    {
      "midi": 66,
      "hit": false,
      "t": 168333.4174999997,
      "d": 333.3335000000079,
      "v": 93
    },
    {
      "midi": 64,
      "hit": false,
      "t": 168666.7509999997,
      "d": 666.6669999999867,
      "v": 93
    },
    {
      "midi": 56,
      "hit": false,
      "t": 169666.7514999997,
      "d": 955.5560333332687,
      "v": 63
    },
    {
      "midi": 64,
      "hit": false,
      "t": 169666.7514999997,
      "d": 333.3335000000079,
      "v": 93
    },
    {
      "midi": 59,
      "hit": false,
      "t": 169850.08492499965,
      "d": 750.0003749999742,
      "v": 53
    },
    {
      "midi": 61,
      "hit": false,
      "t": 170000.08499999964,
      "d": 561.1113916666654,
      "v": 59
    },
    {
      "midi": 64,
      "hit": false,
      "t": 170000.0849999997,
      "d": 333.3335000000079,
      "v": 93
    },
    {
      "midi": 64,
      "hit": false,
      "t": 170166.75174999965,
      "d": 361.1112916666607,
      "v": 58
    },
    {
      "midi": 68,
      "hit": false,
      "t": 170333.41849999965,
      "d": 227.77789166665752,
      "v": 68
    },
    {
      "midi": 64,
      "hit": false,
      "t": 170333.4184999997,
      "d": 333.3335000000079,
      "v": 93
    },
    {
      "midi": 66,
      "hit": false,
      "t": 170666.75199999963,
      "d": 1127.7783416666498,
      "v": 51
    },
    {
      "midi": 59,
      "hit": false,
      "t": 170666.75199999963,
      "d": 1144.4450166666356,
      "v": 51
    },
    {
      "midi": 51,
      "hit": false,
      "t": 170666.75199999963,
      "d": 2666.667999999976,
      "v": 52
    },
    {
      "midi": 59,
      "hit": false,
      "t": 170666.75199999972,
      "d": 1000.0004999999946,
      "v": 93
    },
    {
      "midi": 63,
      "hit": false,
      "t": 170666.75199999972,
      "d": 1000.0004999999946,
      "v": 93
    },
    {
      "midi": 66,
      "hit": false,
      "t": 170666.75199999972,
      "d": 1000.0004999999946,
      "v": 93
    },
    {
      "midi": 54,
      "hit": false,
      "t": 171666.75249999962,
      "d": 1666.6674999999814,
      "v": 46
    },
    {
      "midi": 66,
      "hit": false,
      "t": 171666.7524999997,
      "d": 333.3335000000079,
      "v": 93
    },
    {
      "midi": 59,
      "hit": false,
      "t": 172000.0859999996,
      "d": 1333.3340000000026,
      "v": 43
    },
    {
      "midi": 66,
      "hit": false,
      "t": 172000.0859999996,
      "d": 1333.3340000000026,
      "v": 51
    },
    {
      "midi": 59,
      "hit": false,
      "t": 172000.08599999972,
      "d": 666.6669999999867,
      "v": 93
    },
    {
      "midi": 63,
      "hit": false,
      "t": 172000.08599999972,
      "d": 666.6669999999867,
      "v": 93
    },
    {
      "midi": 68,
      "hit": false,
      "t": 172000.08599999972,
      "d": 666.6669999999867,
      "v": 93
    },
    {
      "midi": 69,
      "hit": false,
      "t": 172666.7529999997,
      "d": 333.3335000000079,
      "v": 93
    },
    {
      "midi": 71,
      "hit": false,
      "t": 173000.0864999997,
      "d": 5000.002500000002,
      "v": 93
    },
    {
      "midi": 66,
      "hit": false,
      "t": 173333.4199999996,
      "d": 1127.7783416666498,
      "v": 51
    },
    {
      "midi": 62,
      "hit": false,
      "t": 173333.4199999996,
      "d": 1138.8894583333167,
      "v": 60
    },
    {
      "midi": 57,
      "hit": false,
      "t": 173333.4199999996,
      "d": 1144.4450166666356,
      "v": 51
    },
    {
      "midi": 52,
      "hit": false,
      "t": 173333.4199999996,
      "d": 2666.667999999976,
      "v": 52
    },
    {
      "midi": 62,
      "hit": false,
      "t": 173333.41999999972,
      "d": 2666.668000000005,
      "v": 93
    },
    {
      "midi": 66,
      "hit": false,
      "t": 173333.41999999972,
      "d": 2666.668000000005,
      "v": 93
    },
    {
      "midi": 69,
      "hit": false,
      "t": 173333.41999999972,
      "d": 2666.668000000005,
      "v": 93
    },
    {
      "midi": 54,
      "hit": false,
      "t": 174333.4204999996,
      "d": 1666.6674999999814,
      "v": 46
    },
    {
      "midi": 57,
      "hit": false,
      "t": 174666.75399999958,
      "d": 1333.3340000000026,
      "v": 43
    },
    {
      "midi": 62,
      "hit": false,
      "t": 174666.75399999958,
      "d": 1333.3340000000026,
      "v": 55
    },
    {
      "midi": 66,
      "hit": false,
      "t": 174666.75399999958,
      "d": 1333.3340000000026,
      "v": 51
    },
    {
      "midi": 56,
      "hit": false,
      "t": 176000.08799999958,
      "d": 1727.778641666664,
      "v": 55
    },
    {
      "midi": 59,
      "hit": false,
      "t": 176000.08799999958,
      "d": 1833.3342499999853,
      "v": 78
    },
    {
      "midi": 62,
      "hit": false,
      "t": 176000.08799999958,
      "d": 1833.3342499999853,
      "v": 54
    },
    {
      "midi": 64,
      "hit": false,
      "t": 176000.08799999958,
      "d": 1850.0009249999712,
      "v": 59
    },
    {
      "midi": 40,
      "hit": false,
      "t": 176000.08799999958,
      "d": 2666.667999999947,
      "v": 72
    },
    {
      "midi": 62,
      "hit": false,
      "t": 176000.08799999973,
      "d": 2000.0009999999893,
      "v": 93
    },
    {
      "midi": 64,
      "hit": false,
      "t": 176000.08799999973,
      "d": 2000.0009999999893,
      "v": 93
    },
    {
      "midi": 68,
      "hit": false,
      "t": 176000.08799999973,
      "d": 2000.0009999999893,
      "v": 93
    },
    {
      "midi": 52,
      "hit": false,
      "t": 177666.7554999996,
      "d": 955.5560333332687,
      "v": 63
    },
    {
      "midi": 56,
      "hit": false,
      "t": 177850.08892499955,
      "d": 750.0003749999742,
      "v": 53
    },
    {
      "midi": 59,
      "hit": false,
      "t": 178000.08899999954,
      "d": 561.1113916666654,
      "v": 59
    },
    {
      "midi": 62,
      "hit": false,
      "t": 178166.75574999955,
      "d": 361.1112916666607,
      "v": 58
    },
    {
      "midi": 64,
      "hit": false,
      "t": 178333.42249999955,
      "d": 227.77789166665752,
      "v": 68
    },
    {
      "midi": 68,
      "hit": false,
      "t": 178333.42249999972,
      "d": 333.3335000000079,
      "v": 93
    },
    {
      "midi": 64,
      "hit": false,
      "t": 178666.75599999953,
      "d": 38.888908333319705,
      "v": 66
    },
    {
      "midi": 61,
      "hit": false,
      "t": 178666.75599999953,
      "d": 1850.0009249999712,
      "v": 64
    },
    {
      "midi": 45,
      "hit": false,
      "t": 178666.75599999953,
      "d": 2666.667999999947,
      "v": 53
    },
    {
      "midi": 57,
      "hit": false,
      "t": 178666.75599999953,
      "d": 2666.667999999947,
      "v": 52
    },
    {
      "midi": 61,
      "hit": false,
      "t": 178666.75599999973,
      "d": 333.3335000000079,
      "v": 93
    },
    {
      "midi": 64,
      "hit": false,
      "t": 178666.75599999973,
      "d": 333.3335000000079,
      "v": 93
    },
    {
      "midi": 69,
      "hit": false,
      "t": 178666.75599999973,
      "d": 333.3335000000079,
      "v": 93
    },
    {
      "midi": 61,
      "hit": false,
      "t": 179000.08949999974,
      "d": 666.6669999999867,
      "v": 93
    },
    {
      "midi": 64,
      "hit": false,
      "t": 179000.08949999974,
      "d": 666.6669999999867,
      "v": 93
    },
    {
      "midi": 69,
      "hit": false,
      "t": 179000.08949999974,
      "d": 666.6669999999867,
      "v": 93
    },
    {
      "midi": 61,
      "hit": false,
      "t": 179666.75649999973,
      "d": 1000.0004999999946,
      "v": 93
    },
    {
      "midi": 64,
      "hit": false,
      "t": 179666.75649999973,
      "d": 1000.0004999999946,
      "v": 93
    },
    {
      "midi": 69,
      "hit": false,
      "t": 179666.75649999973,
      "d": 1000.0004999999946,
      "v": 93
    },
    {
      "midi": 52,
      "hit": false,
      "t": 180333.4234999995,
      "d": 1000.0004999999655,
      "v": 66
    },
    {
      "midi": 61,
      "hit": false,
      "t": 180666.7569999995,
      "d": 666.6669999999867,
      "v": 58
    },
    {
      "midi": 66,
      "hit": false,
      "t": 180666.75699999972,
      "d": 333.3335000000079,
      "v": 93
    },
    {
      "midi": 64,
      "hit": false,
      "t": 181000.0904999995,
      "d": 327.7779416666599,
      "v": 82
    },
    {
      "midi": 62,
      "hit": false,
      "t": 181000.09049999973,
      "d": 666.6669999999867,
      "v": 93
    },
    {
      "midi": 66,
      "hit": false,
      "t": 181000.09049999973,
      "d": 666.6669999999867,
      "v": 93
    },
    {
      "midi": 71,
      "hit": false,
      "t": 181000.09049999973,
      "d": 666.6669999999867,
      "v": 93
    },
    {
      "midi": 62,
      "hit": false,
      "t": 181333.42399999948,
      "d": 1727.778641666664,
      "v": 55
    },
    {
      "midi": 66,
      "hit": false,
      "t": 181333.42399999948,
      "d": 1833.3342499999853,
      "v": 78
    },
    {
      "midi": 69,
      "hit": false,
      "t": 181333.42399999948,
      "d": 1833.3342499999853,
      "v": 54
    },
    {
      "midi": 50,
      "hit": false,
      "t": 181333.42399999948,
      "d": 2666.667999999947,
      "v": 72
    },
    {
      "midi": 69,
      "hit": false,
      "t": 181666.75749999972,
      "d": 333.3335000000079,
      "v": 93
    },
    {
      "midi": 69,
      "hit": false,
      "t": 182000.09099999972,
      "d": 333.3335000000079,
      "v": 93
    },
    {
      "midi": 62,
      "hit": false,
      "t": 182333.42449999973,
      "d": 1000.0004999999946,
      "v": 93
    },
    {
      "midi": 66,
      "hit": false,
      "t": 182333.42449999973,
      "d": 1000.0004999999946,
      "v": 93
    },
    {
      "midi": 69,
      "hit": false,
      "t": 182333.42449999973,
      "d": 1000.0004999999946,
      "v": 93
    },
    {
      "midi": 57,
      "hit": false,
      "t": 183000.0914999995,
      "d": 955.5560333332687,
      "v": 63
    },
    {
      "midi": 62,
      "hit": false,
      "t": 183183.42492499945,
      "d": 750.0003749999742,
      "v": 53
    },
    {
      "midi": 66,
      "hit": false,
      "t": 183333.42499999944,
      "d": 561.1113916666654,
      "v": 59
    },
    {
      "midi": 64,
      "hit": false,
      "t": 183333.42499999973,
      "d": 333.3335000000079,
      "v": 93
    },
    {
      "midi": 69,
      "hit": false,
      "t": 183500.09174999944,
      "d": 361.1112916666607,
      "v": 58
    },
    {
      "midi": 57,
      "hit": false,
      "t": 183666.75849999973,
      "d": 3000.001500000013,
      "v": 93
    },
    {
      "midi": 61,
      "hit": false,
      "t": 183666.75849999973,
      "d": 3000.001500000013,
      "v": 93
    },
    {
      "midi": 64,
      "hit": false,
      "t": 183666.75849999973,
      "d": 3000.001500000013,
      "v": 93
    },
    {
      "midi": 81,
      "hit": false,
      "t": 184000.09199999942,
      "d": 2477.7790166666673,
      "v": 61
    },
    {
      "midi": 45,
      "hit": false,
      "t": 184000.09199999942,
      "d": 5333.33600000001,
      "v": 60
    },
    {
      "midi": 52,
      "hit": false,
      "t": 186500.09324999942,
      "d": 2833.334750000009,
      "v": 54
    },
    {
      "midi": 57,
      "hit": false,
      "t": 186666.75999999975,
      "d": 333.3335000000079,
      "v": 93
    },
    {
      "midi": 59,
      "hit": false,
      "t": 186666.75999999975,
      "d": 333.3335000000079,
      "v": 93
    },
    {
      "midi": 61,
      "hit": false,
      "t": 187000.09349999976,
      "d": 333.3335000000079,
      "v": 93
    },
    {
      "midi": 64,
      "hit": false,
      "t": 187333.42699999976,
      "d": 333.3335000000079,
      "v": 93
    },
    {
      "midi": 71,
      "hit": false,
      "t": 187666.76049999977,
      "d": 1000.0004999999946,
      "v": 93
    },
    {
      "midi": 57,
      "hit": false,
      "t": 188166.76074999943,
      "d": 616.6669750000001,
      "v": 50
    },
    {
      "midi": 61,
      "hit": false,
      "t": 188333.42749999944,
      "d": 1000.0004999999946,
      "v": 57
    },
    {
      "midi": 64,
      "hit": false,
      "t": 188666.76099999945,
      "d": 666.6669999999867,
      "v": 59
    },
    {
      "midi": 66,
      "hit": false,
      "t": 188666.76099999977,
      "d": 333.3335000000079,
      "v": 93
    },
    {
      "midi": 57,
      "hit": false,
      "t": 189000.09449999942,
      "d": 333.3335000000079,
      "v": 46
    },
    {
      "midi": 68,
      "hit": false,
      "t": 189000.09449999977,
      "d": 333.3335000000079,
      "v": 93
    },
    {
      "midi": 57,
      "hit": false,
      "t": 189333.42799999943,
      "d": 505.5558083333308,
      "v": 52
    },
    {
      "midi": 61,
      "hit": false,
      "t": 189333.42799999943,
      "d": 677.7781166666537,
      "v": 59
    },
    {
      "midi": 45,
      "hit": false,
      "t": 189333.42799999943,
      "d": 1333.3339999999735,
      "v": 72
    },
    {
      "midi": 69,
      "hit": false,
      "t": 189333.42799999978,
      "d": 666.6669999999867,
      "v": 93
    },
    {
      "midi": 61,
      "hit": false,
      "t": 189333.42800000004,
      "d": 1333.3340000000026,
      "v": 91
    },
    {
      "midi": 64,
      "hit": false,
      "t": 189333.42800000004,
      "d": 1333.3340000000026,
      "v": 91
    },
    {
      "midi": 52,
      "hit": false,
      "t": 189666.76149999944,
      "d": 1000.0004999999655,
      "v": 57
    },
    {
      "midi": 57,
      "hit": false,
      "t": 190000.09499999942,
      "d": 661.1114416666678,
      "v": 55
    },
    {
      "midi": 69,
      "hit": false,
      "t": 190000.09499999977,
      "d": 333.3335000000079,
      "v": 93
    },
    {
      "midi": 64,
      "hit": false,
      "t": 190333.42849999943,
      "d": 300.0001500000071,
      "v": 62
    },
    {
      "midi": 71,
      "hit": false,
      "t": 190333.42849999978,
      "d": 1000.0004999999946,
      "v": 93
    },
    {
      "midi": 43,
      "hit": false,
      "t": 190666.7619999994,
      "d": 1333.3340000000026,
      "v": 55
    },
    {
      "midi": 52,
      "hit": false,
      "t": 190666.7619999994,
      "d": 1333.3340000000026,
      "v": 47
    },
    {
      "midi": 57,
      "hit": false,
      "t": 190666.7619999994,
      "d": 1333.3340000000026,
      "v": 60
    },
    {
      "midi": 61,
      "hit": false,
      "t": 190666.7619999994,
      "d": 1333.3340000000026,
      "v": 53
    },
    {
      "midi": 64,
      "hit": false,
      "t": 190666.7619999994,
      "d": 1333.3340000000026,
      "v": 52
    },
    {
      "midi": 61,
      "hit": false,
      "t": 190666.76200000005,
      "d": 1333.3340000000026,
      "v": 91
    },
    {
      "midi": 64,
      "hit": false,
      "t": 190666.76200000005,
      "d": 1333.3340000000026,
      "v": 91
    },
    {
      "midi": 71,
      "hit": false,
      "t": 191333.42899999977,
      "d": 333.3335000000079,
      "v": 93
    },
    {
      "midi": 71,
      "hit": false,
      "t": 191666.76249999978,
      "d": 1000.0004999999946,
      "v": 93
    },
    {
      "midi": 69,
      "hit": false,
      "t": 192000.0959999994,
      "d": 1366.6673500000034,
      "v": 63
    },
    {
      "midi": 54,
      "hit": false,
      "t": 192000.0959999994,
      "d": 2666.667999999976,
      "v": 46
    },
    {
      "midi": 57,
      "hit": false,
      "t": 192000.0959999994,
      "d": 2666.667999999976,
      "v": 55
    },
    {
      "midi": 62,
      "hit": false,
      "t": 192000.0959999994,
      "d": 2666.667999999976,
      "v": 43
    },
    {
      "midi": 66,
      "hit": false,
      "t": 192000.0959999994,
      "d": 2666.667999999976,
      "v": 53
    },
    {
      "midi": 57,
      "hit": false,
      "t": 192000.09600000005,
      "d": 2666.668000000005,
      "v": 91
    },
    {
      "midi": 62,
      "hit": false,
      "t": 192000.09600000005,
      "d": 2666.668000000005,
      "v": 91
    },
    {
      "midi": 69,
      "hit": false,
      "t": 192666.76299999977,
      "d": 333.3335000000079,
      "v": 93
    },
    {
      "midi": 66,
      "hit": false,
      "t": 193000.09649999978,
      "d": 555.5558333333465,
      "v": 93
    },
    {
      "midi": 78,
      "hit": false,
      "t": 193333.4299999994,
      "d": 727.7781416666403,
      "v": 76
    },
    {
      "midi": 64,
      "hit": false,
      "t": 193500.0967499998,
      "d": 166.66675000000396,
      "v": 93
    },
    {
      "midi": 62,
      "hit": false,
      "t": 193666.7634999998,
      "d": 666.6669999999867,
      "v": 93
    },
    {
      "midi": 69,
      "hit": false,
      "t": 194000.0969999994,
      "d": 633.3336499999859,
      "v": 63
    },
    {
      "midi": 66,
      "hit": false,
      "t": 194333.43049999978,
      "d": 333.3335000000079,
      "v": 93
    },
    {
      "midi": 57,
      "hit": false,
      "t": 194666.76399999938,
      "d": 550.0002749999985,
      "v": 45
    },
    {
      "midi": 61,
      "hit": false,
      "t": 194666.76399999938,
      "d": 694.4447916666395,
      "v": 55
    },
    {
      "midi": 64,
      "hit": false,
      "t": 194666.76399999938,
      "d": 955.5560333332978,
      "v": 58
    },
    {
      "midi": 52,
      "hit": false,
      "t": 194666.76399999938,
      "d": 1416.6673749999609,
      "v": 63
    },
    {
      "midi": 57,
      "hit": false,
      "t": 194666.7639999998,
      "d": 333.3335000000079,
      "v": 93
    },
    {
      "midi": 61,
      "hit": false,
      "t": 194666.7639999998,
      "d": 333.3335000000079,
      "v": 93
    },
    {
      "midi": 64,
      "hit": false,
      "t": 194666.7639999998,
      "d": 333.3335000000079,
      "v": 93
    },
    {
      "midi": 57,
      "hit": false,
      "t": 195000.0974999998,
      "d": 333.3335000000079,
      "v": 93
    },
    {
      "midi": 66,
      "hit": false,
      "t": 195333.4309999998,
      "d": 333.3335000000079,
      "v": 93
    },
    {
      "midi": 57,
      "hit": false,
      "t": 195361.20879166602,
      "d": 1222.2228333333042,
      "v": 55
    },
    {
      "midi": 61,
      "hit": false,
      "t": 195666.76449999935,
      "d": 688.8892333333206,
      "v": 41
    },
    {
      "midi": 64,
      "hit": false,
      "t": 195666.76449999982,
      "d": 333.3335000000079,
      "v": 93
    },
    {
      "midi": 64,
      "hit": false,
      "t": 196000.09799999936,
      "d": 461.11134166663396,
      "v": 56
    },
    {
      "midi": 64,
      "hit": false,
      "t": 196000.09799999982,
      "d": 333.3335000000079,
      "v": 93
    },
    {
      "midi": 52,
      "hit": false,
      "t": 196333.43149999934,
      "d": 611.1114166666521,
      "v": 52
    },
    {
      "midi": 61,
      "hit": false,
      "t": 196333.43149999983,
      "d": 333.3335000000079,
      "v": 93
    },
    {
      "midi": 57,
      "hit": false,
      "t": 196666.76499999932,
      "d": 377.77796666667564,
      "v": 10
    },
    {
      "midi": 64,
      "hit": false,
      "t": 196666.76499999932,
      "d": 377.77796666667564,
      "v": 45
    },
    {
      "midi": 66,
      "hit": false,
      "t": 196666.76499999984,
      "d": 333.3335000000079,
      "v": 93
    },
    {
      "midi": 64,
      "hit": false,
      "t": 197000.09849999985,
      "d": 1666.6675000000105,
      "v": 93
    },
    {
      "midi": 52,
      "hit": false,
      "t": 197333.43199999933,
      "d": 1333.3340000000026,
      "v": 55
    },
    {
      "midi": 57,
      "hit": false,
      "t": 197333.43199999933,
      "d": 1333.3340000000026,
      "v": 47
    },
    {
      "midi": 62,
      "hit": false,
      "t": 197333.43199999933,
      "d": 1333.3340000000026,
      "v": 60
    },
    {
      "midi": 66,
      "hit": false,
      "t": 197333.43199999933,
      "d": 1333.3340000000026,
      "v": 53
    },
    {
      "midi": 69,
      "hit": false,
      "t": 197333.43199999933,
      "d": 1333.3340000000026,
      "v": 52
    },
    {
      "midi": 54,
      "hit": false,
      "t": 197333.43199999986,
      "d": 1333.3340000000026,
      "v": 93
    },
    {
      "midi": 57,
      "hit": false,
      "t": 197333.43199999986,
      "d": 1333.3340000000026,
      "v": 93
    },
    {
      "midi": 62,
      "hit": false,
      "t": 197333.43199999986,
      "d": 1333.3340000000026,
      "v": 93
    },
    {
      "midi": 40,
      "hit": false,
      "t": 198666.76599999933,
      "d": 1333.3340000000026,
      "v": 55
    },
    {
      "midi": 56,
      "hit": false,
      "t": 198666.76599999933,
      "d": 1333.3340000000026,
      "v": 47
    },
    {
      "midi": 59,
      "hit": false,
      "t": 198666.76599999933,
      "d": 1333.3340000000026,
      "v": 60
    },
    {
      "midi": 64,
      "hit": false,
      "t": 198666.76599999933,
      "d": 1333.3340000000026,
      "v": 53
    },
    {
      "midi": 68,
      "hit": false,
      "t": 198666.76599999933,
      "d": 1333.3340000000026,
      "v": 52
    },
    {
      "midi": 56,
      "hit": false,
      "t": 198666.76599999986,
      "d": 1000.0004999999946,
      "v": 93
    },
    {
      "midi": 59,
      "hit": false,
      "t": 198666.76599999986,
      "d": 1000.0004999999946,
      "v": 93
    },
    {
      "midi": 64,
      "hit": false,
      "t": 198666.76599999986,
      "d": 1000.0004999999946,
      "v": 93
    },
    {
      "midi": 69,
      "hit": false,
      "t": 199666.76649999985,
      "d": 333.3335000000079,
      "v": 93
    },
    {
      "midi": 64,
      "hit": false,
      "t": 200000.09999999934,
      "d": 38.888908333319705,
      "v": 66
    },
    {
      "midi": 61,
      "hit": false,
      "t": 200000.09999999934,
      "d": 1850.0009249999712,
      "v": 64
    },
    {
      "midi": 45,
      "hit": false,
      "t": 200000.09999999934,
      "d": 2666.667999999947,
      "v": 53
    },
    {
      "midi": 57,
      "hit": false,
      "t": 200000.09999999934,
      "d": 2666.667999999947,
      "v": 52
    },
    {
      "midi": 61,
      "hit": false,
      "t": 200000.09999999986,
      "d": 666.6669999999867,
      "v": 93
    },
    {
      "midi": 64,
      "hit": false,
      "t": 200000.09999999986,
      "d": 666.6669999999867,
      "v": 93
    },
    {
      "midi": 69,
      "hit": false,
      "t": 200000.09999999986,
      "d": 666.6669999999867,
      "v": 93
    },
    {
      "midi": 69,
      "hit": false,
      "t": 200666.76699999985,
      "d": 333.3335000000079,
      "v": 93
    },
    {
      "midi": 61,
      "hit": false,
      "t": 201000.10049999985,
      "d": 1000.0004999999946,
      "v": 93
    },
    {
      "midi": 64,
      "hit": false,
      "t": 201000.10049999985,
      "d": 1000.0004999999946,
      "v": 93
    },
    {
      "midi": 71,
      "hit": false,
      "t": 201000.10049999985,
      "d": 1000.0004999999946,
      "v": 93
    },
    {
      "midi": 52,
      "hit": false,
      "t": 201666.76749999932,
      "d": 1000.0004999999655,
      "v": 66
    },
    {
      "midi": 61,
      "hit": false,
      "t": 202000.1009999993,
      "d": 666.6669999999867,
      "v": 58
    },
    {
      "midi": 69,
      "hit": false,
      "t": 202000.10099999985,
      "d": 333.3335000000079,
      "v": 93
    },
    {
      "midi": 64,
      "hit": false,
      "t": 202333.4344999993,
      "d": 327.7779416666599,
      "v": 82
    },
    {
      "midi": 61,
      "hit": false,
      "t": 202333.43449999986,
      "d": 2333.334499999997,
      "v": 93
    },
    {
      "midi": 64,
      "hit": false,
      "t": 202333.43449999986,
      "d": 2333.334499999997,
      "v": 93
    },
    {
      "midi": 69,
      "hit": false,
      "t": 202333.43449999986,
      "d": 2333.334499999997,
      "v": 93
    },
    {
      "midi": 64,
      "hit": false,
      "t": 202666.76799999928,
      "d": 1366.6673500000034,
      "v": 63
    },
    {
      "midi": 43,
      "hit": false,
      "t": 202666.76799999928,
      "d": 2666.667999999976,
      "v": 46
    },
    {
      "midi": 52,
      "hit": false,
      "t": 202666.76799999928,
      "d": 2666.667999999976,
      "v": 55
    },
    {
      "midi": 57,
      "hit": false,
      "t": 202666.76799999928,
      "d": 2666.667999999976,
      "v": 43
    },
    {
      "midi": 61,
      "hit": false,
      "t": 202666.76799999928,
      "d": 2666.667999999976,
      "v": 53
    },
    {
      "midi": 73,
      "hit": false,
      "t": 204000.1019999993,
      "d": 727.7781416666403,
      "v": 76
    },
    {
      "midi": 64,
      "hit": false,
      "t": 204666.76899999927,
      "d": 633.3336499999859,
      "v": 63
    },
    {
      "midi": 61,
      "hit": false,
      "t": 204666.76899999985,
      "d": 333.3335000000079,
      "v": 93
    },
    {
      "midi": 69,
      "hit": false,
      "t": 205000.10249999986,
      "d": 333.3335000000079,
      "v": 93
    },
    {
      "midi": 69,
      "hit": false,
      "t": 205333.43599999926,
      "d": 1366.6673500000034,
      "v": 63
    },
    {
      "midi": 54,
      "hit": false,
      "t": 205333.43599999926,
      "d": 2666.667999999976,
      "v": 46
    },
    {
      "midi": 57,
      "hit": false,
      "t": 205333.43599999926,
      "d": 2666.667999999976,
      "v": 55
    },
    {
      "midi": 62,
      "hit": false,
      "t": 205333.43599999926,
      "d": 2666.667999999976,
      "v": 43
    },
    {
      "midi": 66,
      "hit": false,
      "t": 205333.43599999926,
      "d": 2666.667999999976,
      "v": 53
    },
    {
      "midi": 62,
      "hit": false,
      "t": 205333.43599999987,
      "d": 333.3335000000079,
      "v": 93
    },
    {
      "midi": 66,
      "hit": false,
      "t": 205333.43599999987,
      "d": 333.3335000000079,
      "v": 93
    },
    {
      "midi": 71,
      "hit": false,
      "t": 205333.43599999987,
      "d": 333.3335000000079,
      "v": 93
    },
    {
      "midi": 69,
      "hit": false,
      "t": 205666.76949999988,
      "d": 666.6669999999867,
      "v": 93
    },
    {
      "midi": 62,
      "hit": false,
      "t": 206333.43649999987,
      "d": 1000.0004999999946,
      "v": 93
    },
    {
      "midi": 66,
      "hit": false,
      "t": 206333.43649999987,
      "d": 1000.0004999999946,
      "v": 93
    },
    {
      "midi": 69,
      "hit": false,
      "t": 206333.43649999987,
      "d": 1000.0004999999946,
      "v": 93
    },
    {
      "midi": 78,
      "hit": false,
      "t": 206666.76999999926,
      "d": 727.7781416666403,
      "v": 76
    },
    {
      "midi": 69,
      "hit": false,
      "t": 207333.43699999925,
      "d": 633.3336499999859,
      "v": 63
    },
    {
      "midi": 69,
      "hit": false,
      "t": 207333.43699999986,
      "d": 333.3335000000079,
      "v": 93
    },
    {
      "midi": 66,
      "hit": false,
      "t": 207666.77049999987,
      "d": 166.66675000000396,
      "v": 93
    },
    {
      "midi": 64,
      "hit": false,
      "t": 207833.43724999987,
      "d": 166.66675000000396,
      "v": 93
    },
    {
      "midi": 69,
      "hit": false,
      "t": 208000.10399999924,
      "d": 1127.7783416666498,
      "v": 51
    },
    {
      "midi": 62,
      "hit": false,
      "t": 208000.10399999924,
      "d": 1144.4450166666356,
      "v": 51
    },
    {
      "midi": 50,
      "hit": false,
      "t": 208000.10399999924,
      "d": 2666.667999999976,
      "v": 52
    },
    {
      "midi": 54,
      "hit": false,
      "t": 208000.10399999988,
      "d": 1333.3340000000026,
      "v": 93
    },
    {
      "midi": 62,
      "hit": false,
      "t": 208000.10399999988,
      "d": 1333.3340000000026,
      "v": 93
    },
    {
      "midi": 57,
      "hit": false,
      "t": 209000.10449999923,
      "d": 1666.6674999999814,
      "v": 46
    },
    {
      "midi": 62,
      "hit": false,
      "t": 209333.4379999992,
      "d": 1333.3340000000026,
      "v": 43
    },
    {
      "midi": 69,
      "hit": false,
      "t": 209333.4379999992,
      "d": 1333.3340000000026,
      "v": 51
    },
    {
      "midi": 57,
      "hit": false,
      "t": 209333.43799999988,
      "d": 666.6669999999867,
      "v": 93
    },
    {
      "midi": 66,
      "hit": false,
      "t": 209333.43799999988,
      "d": 666.6669999999867,
      "v": 93
    },
    {
      "midi": 59,
      "hit": false,
      "t": 210000.10499999986,
      "d": 333.3335000000079,
      "v": 93
    },
    {
      "midi": 68,
      "hit": false,
      "t": 210000.10499999986,
      "d": 333.3335000000079,
      "v": 93
    },
    {
      "midi": 64,
      "hit": false,
      "t": 210333.43849999987,
      "d": 333.3335000000079,
      "v": 93
    },
    {
      "midi": 50,
      "hit": false,
      "t": 210666.7719999992,
      "d": 1333.3340000000026,
      "v": 55
    },
    {
      "midi": 57,
      "hit": false,
      "t": 210666.7719999992,
      "d": 1333.3340000000026,
      "v": 47
    },
    {
      "midi": 62,
      "hit": false,
      "t": 210666.7719999992,
      "d": 1333.3340000000026,
      "v": 60
    },
    {
      "midi": 66,
      "hit": false,
      "t": 210666.7719999992,
      "d": 1333.3340000000026,
      "v": 53
    },
    {
      "midi": 69,
      "hit": false,
      "t": 210666.7719999992,
      "d": 1333.3340000000026,
      "v": 52
    },
    {
      "midi": 66,
      "hit": false,
      "t": 210666.77199999988,
      "d": 666.6669999999867,
      "v": 93
    },
    {
      "midi": 57,
      "hit": false,
      "t": 210666.77200000006,
      "d": 1333.3340000000026,
      "v": 91
    },
    {
      "midi": 62,
      "hit": false,
      "t": 210666.77200000006,
      "d": 1333.3340000000026,
      "v": 91
    },
    {
      "midi": 68,
      "hit": false,
      "t": 211333.43899999987,
      "d": 333.3335000000079,
      "v": 93
    },
    {
      "midi": 69,
      "hit": false,
      "t": 211666.77249999988,
      "d": 666.6669999999867,
      "v": 93
    },
    {
      "midi": 59,
      "hit": false,
      "t": 212000.1059999992,
      "d": 505.5558083333308,
      "v": 52
    },
    {
      "midi": 64,
      "hit": false,
      "t": 212000.1059999992,
      "d": 677.7781166666537,
      "v": 59
    },
    {
      "midi": 40,
      "hit": false,
      "t": 212000.1059999992,
      "d": 1333.3339999999735,
      "v": 72
    },
    {
      "midi": 59,
      "hit": false,
      "t": 212000.10600000006,
      "d": 1333.3340000000026,
      "v": 91
    },
    {
      "midi": 64,
      "hit": false,
      "t": 212000.10600000006,
      "d": 1333.3340000000026,
      "v": 91
    },
    {
      "midi": 56,
      "hit": false,
      "t": 212333.43949999922,
      "d": 1000.0004999999655,
      "v": 57
    },
    {
      "midi": 68,
      "hit": false,
      "t": 212333.43949999986,
      "d": 333.3335000000079,
      "v": 93
    },
    {
      "midi": 59,
      "hit": false,
      "t": 212666.7729999992,
      "d": 661.1114416666678,
      "v": 55
    },
    {
      "midi": 66,
      "hit": false,
      "t": 212666.77299999987,
      "d": 333.3335000000079,
      "v": 93
    },
    {
      "midi": 68,
      "hit": false,
      "t": 213000.1064999992,
      "d": 300.0001500000071,
      "v": 62
    },
    {
      "midi": 64,
      "hit": false,
      "t": 213000.10649999988,
      "d": 2333.334499999997,
      "v": 93
    },
    {
      "midi": 59,
      "hit": false,
      "t": 213333.4399999992,
      "d": 505.5558083333308,
      "v": 52
    },
    {
      "midi": 61,
      "hit": false,
      "t": 213333.4399999992,
      "d": 677.7781166666537,
      "v": 59
    },
    {
      "midi": 49,
      "hit": false,
      "t": 213333.4399999992,
      "d": 1333.3339999999735,
      "v": 72
    },
    {
      "midi": 56,
      "hit": false,
      "t": 213333.44000000006,
      "d": 666.6669999999867,
      "v": 91
    },
    {
      "midi": 59,
      "hit": false,
      "t": 213333.44000000006,
      "d": 666.6669999999867,
      "v": 91
    },
    {
      "midi": 56,
      "hit": false,
      "t": 213666.7734999992,
      "d": 1000.0004999999655,
      "v": 57
    },
    {
      "midi": 59,
      "hit": false,
      "t": 214000.10699999917,
      "d": 661.1114416666678,
      "v": 55
    },
    {
      "midi": 56,
      "hit": false,
      "t": 214000.10700000005,
      "d": 333.3335000000079,
      "v": 91
    },
    {
      "midi": 64,
      "hit": false,
      "t": 214333.44049999918,
      "d": 300.0001500000071,
      "v": 62
    },
    {
      "midi": 59,
      "hit": false,
      "t": 214333.44050000006,
      "d": 333.3335000000079,
      "v": 91
    },
    {
      "midi": 42,
      "hit": false,
      "t": 214666.77399999916,
      "d": 1333.3340000000026,
      "v": 55
    },
    {
      "midi": 57,
      "hit": false,
      "t": 214666.77399999916,
      "d": 1333.3340000000026,
      "v": 47
    },
    {
      "midi": 61,
      "hit": false,
      "t": 214666.77399999916,
      "d": 1333.3340000000026,
      "v": 60
    },
    {
      "midi": 64,
      "hit": false,
      "t": 214666.77399999916,
      "d": 1333.3340000000026,
      "v": 53
    },
    {
      "midi": 66,
      "hit": false,
      "t": 214666.77399999916,
      "d": 1333.3340000000026,
      "v": 52
    },
    {
      "midi": 57,
      "hit": false,
      "t": 214666.77400000006,
      "d": 1333.3340000000026,
      "v": 91
    },
    {
      "midi": 59,
      "hit": false,
      "t": 215333.44099999988,
      "d": 333.3335000000079,
      "v": 93
    },
    {
      "midi": 61,
      "hit": false,
      "t": 215666.77449999988,
      "d": 333.3335000000079,
      "v": 93
    },
    {
      "midi": 57,
      "hit": false,
      "t": 216000.10799999916,
      "d": 977.7782666666608,
      "v": 47
    },
    {
      "midi": 59,
      "hit": false,
      "t": 216000.10799999916,
      "d": 1327.7784416666545,
      "v": 56
    },
    {
      "midi": 47,
      "hit": false,
      "t": 216000.10799999916,
      "d": 1333.3339999999735,
      "v": 57
    },
    {
      "midi": 62,
      "hit": false,
      "t": 216000.10799999916,
      "d": 1333.3339999999735,
      "v": 37
    },
    {
      "midi": 66,
      "hit": false,
      "t": 216000.10799999916,
      "d": 1333.3339999999735,
      "v": 55
    },
    {
      "midi": 62,
      "hit": false,
      "t": 216000.1079999999,
      "d": 666.6669999999867,
      "v": 93
    },
    {
      "midi": 54,
      "hit": false,
      "t": 216000.10800000007,
      "d": 1333.3340000000026,
      "v": 91
    },
    {
      "midi": 57,
      "hit": false,
      "t": 216000.10800000007,
      "d": 1333.3340000000026,
      "v": 91
    },
    {
      "midi": 54,
      "hit": false,
      "t": 216666.77499999915,
      "d": 588.8891833333473,
      "v": 32
    },
    {
      "midi": 62,
      "hit": false,
      "t": 216666.77499999988,
      "d": 333.3335000000079,
      "v": 93
    },
    {
      "midi": 57,
      "hit": false,
      "t": 217000.10849999916,
      "d": 327.7779416666599,
      "v": 49
    },
    {
      "midi": 62,
      "hit": false,
      "t": 217000.1084999999,
      "d": 666.6669999999867,
      "v": 93
    },
    {
      "midi": 56,
      "hit": false,
      "t": 217333.44199999914,
      "d": 977.7782666666608,
      "v": 47
    },
    {
      "midi": 59,
      "hit": false,
      "t": 217333.44199999914,
      "d": 1327.7784416666545,
      "v": 56
    },
    {
      "midi": 40,
      "hit": false,
      "t": 217333.44199999914,
      "d": 1333.3339999999735,
      "v": 57
    },
    {
      "midi": 62,
      "hit": false,
      "t": 217333.44199999914,
      "d": 1333.3339999999735,
      "v": 37
    },
    {
      "midi": 64,
      "hit": false,
      "t": 217333.44199999914,
      "d": 1333.3339999999735,
      "v": 55
    },
    {
      "midi": 56,
      "hit": false,
      "t": 217333.44200000007,
      "d": 1333.3340000000026,
      "v": 91
    },
    {
      "midi": 59,
      "hit": false,
      "t": 217333.44200000007,
      "d": 1333.3340000000026,
      "v": 91
    },
    {
      "midi": 61,
      "hit": false,
      "t": 217666.77549999987,
      "d": 333.3335000000079,
      "v": 93
    },
    {
      "midi": 52,
      "hit": false,
      "t": 218000.10899999912,
      "d": 588.8891833333473,
      "v": 32
    },
    {
      "midi": 59,
      "hit": false,
      "t": 218000.10899999988,
      "d": 333.3335000000079,
      "v": 93
    },
    {
      "midi": 56,
      "hit": false,
      "t": 218333.44249999913,
      "d": 327.7779416666599,
      "v": 49
    },
    {
      "midi": 61,
      "hit": false,
      "t": 218333.4424999999,
      "d": 166.66675000000396,
      "v": 93
    },
    {
      "midi": 59,
      "hit": false,
      "t": 218500.1092499999,
      "d": 166.66675000000396,
      "v": 93
    },
    {
      "midi": 64,
      "hit": false,
      "t": 218666.7759999991,
      "d": 1366.6673500000034,
      "v": 63
    },
    {
      "midi": 45,
      "hit": false,
      "t": 218666.7759999991,
      "d": 2666.667999999976,
      "v": 46
    },
    {
      "midi": 52,
      "hit": false,
      "t": 218666.7759999991,
      "d": 2666.667999999976,
      "v": 55
    },
    {
      "midi": 57,
      "hit": false,
      "t": 218666.7759999991,
      "d": 2666.667999999976,
      "v": 43
    },
    {
      "midi": 61,
      "hit": false,
      "t": 218666.7759999991,
      "d": 2666.667999999976,
      "v": 53
    },
    {
      "midi": 57,
      "hit": false,
      "t": 218666.7759999999,
      "d": 333.3335000000079,
      "v": 93
    },
    {
      "midi": 64,
      "hit": false,
      "t": 219000.1094999999,
      "d": 333.3335000000079,
      "v": 93
    },
    {
      "midi": 69,
      "hit": false,
      "t": 219333.4429999999,
      "d": 333.3335000000079,
      "v": 93
    },
    {
      "midi": 71,
      "hit": false,
      "t": 219666.77649999992,
      "d": 666.6669999999867,
      "v": 93
    },
    {
      "midi": 73,
      "hit": false,
      "t": 220000.1099999991,
      "d": 727.7781416666403,
      "v": 76
    },
    {
      "midi": 69,
      "hit": false,
      "t": 220333.4434999999,
      "d": 666.6669999999867,
      "v": 93
    },
    {
      "midi": 64,
      "hit": false,
      "t": 220666.7769999991,
      "d": 633.3336499999859,
      "v": 63
    },
    {
      "midi": 57,
      "hit": false,
      "t": 221000.1104999999,
      "d": 666.6669999999867,
      "v": 93
    },
    {
      "midi": 61,
      "hit": false,
      "t": 221000.1104999999,
      "d": 666.6669999999867,
      "v": 93
    },
    {
      "midi": 64,
      "hit": false,
      "t": 221000.1104999999,
      "d": 666.6669999999867,
      "v": 93
    },
    {
      "midi": 64,
      "hit": false,
      "t": 221333.4439999991,
      "d": 1366.6673500000034,
      "v": 63
    },
    {
      "midi": 43,
      "hit": false,
      "t": 221333.4439999991,
      "d": 2666.667999999976,
      "v": 46
    },
    {
      "midi": 52,
      "hit": false,
      "t": 221333.4439999991,
      "d": 2666.667999999976,
      "v": 55
    },
    {
      "midi": 57,
      "hit": false,
      "t": 221333.4439999991,
      "d": 2666.667999999976,
      "v": 43
    },
    {
      "midi": 61,
      "hit": false,
      "t": 221333.4439999991,
      "d": 2666.667999999976,
      "v": 53
    },
    {
      "midi": 57,
      "hit": false,
      "t": 221666.77749999988,
      "d": 333.3335000000079,
      "v": 93
    },
    {
      "midi": 69,
      "hit": false,
      "t": 222000.1109999999,
      "d": 333.3335000000079,
      "v": 93
    },
    {
      "midi": 71,
      "hit": false,
      "t": 222333.4444999999,
      "d": 666.6669999999867,
      "v": 93
    },
    {
      "midi": 73,
      "hit": false,
      "t": 222666.7779999991,
      "d": 727.7781416666403,
      "v": 76
    },
    {
      "midi": 69,
      "hit": false,
      "t": 223000.11149999988,
      "d": 666.6669999999867,
      "v": 93
    },
    {
      "midi": 64,
      "hit": false,
      "t": 223333.44499999908,
      "d": 633.3336499999859,
      "v": 63
    },
    {
      "midi": 64,
      "hit": false,
      "t": 223666.77849999987,
      "d": 333.3335000000079,
      "v": 93
    },
    {
      "midi": 50,
      "hit": false,
      "t": 224000.11199999906,
      "d": 977.7782666666608,
      "v": 47
    },
    {
      "midi": 61,
      "hit": false,
      "t": 224000.11199999906,
      "d": 1327.7784416666545,
      "v": 56
    },
    {
      "midi": 38,
      "hit": false,
      "t": 224000.11199999906,
      "d": 1333.3339999999735,
      "v": 57
    },
    {
      "midi": 64,
      "hit": false,
      "t": 224000.11199999906,
      "d": 1333.3339999999735,
      "v": 37
    },
    {
      "midi": 66,
      "hit": false,
      "t": 224000.11199999988,
      "d": 666.6669999999867,
      "v": 93
    },
    {
      "midi": 57,
      "hit": false,
      "t": 224000.11200000008,
      "d": 1333.3340000000026,
      "v": 91
    },
    {
      "midi": 62,
      "hit": false,
      "t": 224000.11200000008,
      "d": 1333.3340000000026,
      "v": 91
    },
    {
      "midi": 52,
      "hit": false,
      "t": 224666.77899999905,
      "d": 588.8891833333473,
      "v": 32
    },
    {
      "midi": 68,
      "hit": false,
      "t": 224666.77899999986,
      "d": 333.3335000000079,
      "v": 93
    },
    {
      "midi": 57,
      "hit": false,
      "t": 225000.11249999906,
      "d": 327.7779416666599,
      "v": 49
    },
    {
      "midi": 69,
      "hit": false,
      "t": 225000.11249999987,
      "d": 666.6669999999867,
      "v": 93
    },
    {
      "midi": 59,
      "hit": false,
      "t": 225333.44599999904,
      "d": 977.7782666666608,
      "v": 47
    },
    {
      "midi": 64,
      "hit": false,
      "t": 225333.44599999904,
      "d": 1327.7784416666545,
      "v": 56
    },
    {
      "midi": 40,
      "hit": false,
      "t": 225333.44599999904,
      "d": 1333.3339999999735,
      "v": 57
    },
    {
      "midi": 68,
      "hit": false,
      "t": 225333.44599999904,
      "d": 1333.3339999999735,
      "v": 37
    },
    {
      "midi": 59,
      "hit": false,
      "t": 225333.44600000008,
      "d": 1333.3340000000026,
      "v": 91
    },
    {
      "midi": 64,
      "hit": false,
      "t": 225333.44600000008,
      "d": 1333.3340000000026,
      "v": 91
    },
    {
      "midi": 68,
      "hit": false,
      "t": 225666.77949999986,
      "d": 333.3335000000079,
      "v": 93
    },
    {
      "midi": 56,
      "hit": false,
      "t": 226000.11299999902,
      "d": 588.8891833333473,
      "v": 32
    },
    {
      "midi": 66,
      "hit": false,
      "t": 226000.11299999987,
      "d": 333.3335000000079,
      "v": 93
    },
    {
      "midi": 59,
      "hit": false,
      "t": 226333.44649999903,
      "d": 327.7779416666599,
      "v": 49
    },
    {
      "midi": 64,
      "hit": false,
      "t": 226333.44649999987,
      "d": 2333.334499999997,
      "v": 93
    },
    {
      "midi": 59,
      "hit": false,
      "t": 226666.779999999,
      "d": 505.5558083333308,
      "v": 52
    },
    {
      "midi": 61,
      "hit": false,
      "t": 226666.779999999,
      "d": 677.7781166666537,
      "v": 59
    },
    {
      "midi": 49,
      "hit": false,
      "t": 226666.779999999,
      "d": 1333.3339999999735,
      "v": 72
    },
    {
      "midi": 56,
      "hit": false,
      "t": 226666.7800000001,
      "d": 666.6669999999867,
      "v": 91
    },
    {
      "midi": 59,
      "hit": false,
      "t": 226666.7800000001,
      "d": 666.6669999999867,
      "v": 91
    },
    {
      "midi": 56,
      "hit": false,
      "t": 227000.11349999902,
      "d": 1000.0004999999655,
      "v": 57
    },
    {
      "midi": 59,
      "hit": false,
      "t": 227333.446999999,
      "d": 661.1114416666678,
      "v": 55
    },
    {
      "midi": 56,
      "hit": false,
      "t": 227333.44700000007,
      "d": 333.3335000000079,
      "v": 91
    },
    {
      "midi": 64,
      "hit": false,
      "t": 227666.780499999,
      "d": 300.0001500000071,
      "v": 62
    },
    {
      "midi": 59,
      "hit": false,
      "t": 227666.78050000008,
      "d": 333.3335000000079,
      "v": 91
    },
    {
      "midi": 42,
      "hit": false,
      "t": 228000.11399999898,
      "d": 1333.3340000000026,
      "v": 55
    },
    {
      "midi": 57,
      "hit": false,
      "t": 228000.11399999898,
      "d": 1333.3340000000026,
      "v": 47
    },
    {
      "midi": 61,
      "hit": false,
      "t": 228000.11399999898,
      "d": 1333.3340000000026,
      "v": 60
    },
    {
      "midi": 64,
      "hit": false,
      "t": 228000.11399999898,
      "d": 1333.3340000000026,
      "v": 53
    },
    {
      "midi": 66,
      "hit": false,
      "t": 228000.11399999898,
      "d": 1333.3340000000026,
      "v": 52
    },
    {
      "midi": 57,
      "hit": false,
      "t": 228000.1140000001,
      "d": 1333.3340000000026,
      "v": 91
    },
    {
      "midi": 59,
      "hit": false,
      "t": 228666.78099999987,
      "d": 333.3335000000079,
      "v": 93
    },
    {
      "midi": 61,
      "hit": false,
      "t": 229000.11449999988,
      "d": 333.3335000000079,
      "v": 93
    },
    {
      "midi": 57,
      "hit": false,
      "t": 229333.44799999899,
      "d": 977.7782666666608,
      "v": 47
    },
    {
      "midi": 59,
      "hit": false,
      "t": 229333.44799999899,
      "d": 1327.7784416666545,
      "v": 56
    },
    {
      "midi": 47,
      "hit": false,
      "t": 229333.44799999899,
      "d": 1333.3339999999735,
      "v": 57
    },
    {
      "midi": 62,
      "hit": false,
      "t": 229333.44799999899,
      "d": 1333.3339999999735,
      "v": 37
    },
    {
      "midi": 66,
      "hit": false,
      "t": 229333.44799999899,
      "d": 1333.3339999999735,
      "v": 55
    },
    {
      "midi": 62,
      "hit": false,
      "t": 229333.4479999999,
      "d": 666.6669999999867,
      "v": 93
    },
    {
      "midi": 54,
      "hit": false,
      "t": 229333.4480000001,
      "d": 1333.3340000000026,
      "v": 91
    },
    {
      "midi": 57,
      "hit": false,
      "t": 229333.4480000001,
      "d": 1333.3340000000026,
      "v": 91
    },
    {
      "midi": 54,
      "hit": false,
      "t": 230000.11499999897,
      "d": 588.8891833333473,
      "v": 32
    },
    {
      "midi": 62,
      "hit": false,
      "t": 230000.11499999987,
      "d": 333.3335000000079,
      "v": 93
    },
    {
      "midi": 57,
      "hit": false,
      "t": 230333.44849999898,
      "d": 327.7779416666599,
      "v": 49
    },
    {
      "midi": 62,
      "hit": false,
      "t": 230333.44849999988,
      "d": 666.6669999999867,
      "v": 93
    },
    {
      "midi": 56,
      "hit": false,
      "t": 230666.78199999896,
      "d": 977.7782666666608,
      "v": 47
    },
    {
      "midi": 59,
      "hit": false,
      "t": 230666.78199999896,
      "d": 1327.7784416666545,
      "v": 56
    },
    {
      "midi": 40,
      "hit": false,
      "t": 230666.78199999896,
      "d": 1333.3339999999735,
      "v": 57
    },
    {
      "midi": 62,
      "hit": false,
      "t": 230666.78199999896,
      "d": 1333.3339999999735,
      "v": 37
    },
    {
      "midi": 64,
      "hit": false,
      "t": 230666.78199999896,
      "d": 1333.3339999999735,
      "v": 55
    },
    {
      "midi": 56,
      "hit": false,
      "t": 230666.7820000001,
      "d": 1333.3340000000026,
      "v": 91
    },
    {
      "midi": 59,
      "hit": false,
      "t": 230666.7820000001,
      "d": 1333.3340000000026,
      "v": 91
    },
    {
      "midi": 61,
      "hit": false,
      "t": 231000.11549999987,
      "d": 333.3335000000079,
      "v": 93
    },
    {
      "midi": 52,
      "hit": false,
      "t": 231333.44899999895,
      "d": 588.8891833333473,
      "v": 32
    },
    {
      "midi": 59,
      "hit": false,
      "t": 231333.44899999988,
      "d": 333.3335000000079,
      "v": 93
    },
    {
      "midi": 56,
      "hit": false,
      "t": 231666.78249999895,
      "d": 327.7779416666599,
      "v": 49
    },
    {
      "midi": 61,
      "hit": false,
      "t": 231666.78249999988,
      "d": 166.66675000000396,
      "v": 93
    },
    {
      "midi": 59,
      "hit": false,
      "t": 231833.4492499999,
      "d": 166.66675000000396,
      "v": 93
    },
    {
      "midi": 57,
      "hit": false,
      "t": 232000.11599999893,
      "d": 1727.778641666664,
      "v": 55
    },
    {
      "midi": 61,
      "hit": false,
      "t": 232000.11599999893,
      "d": 1833.3342499999853,
      "v": 78
    },
    {
      "midi": 64,
      "hit": false,
      "t": 232000.11599999893,
      "d": 1833.3342499999853,
      "v": 54
    },
    {
      "midi": 45,
      "hit": false,
      "t": 232000.11599999893,
      "d": 2666.667999999947,
      "v": 72
    },
    {
      "midi": 57,
      "hit": false,
      "t": 232000.1159999999,
      "d": 333.3335000000079,
      "v": 93
    },
    {
      "midi": 64,
      "hit": false,
      "t": 232333.4494999999,
      "d": 333.3335000000079,
      "v": 93
    },
    {
      "midi": 69,
      "hit": false,
      "t": 232666.7829999999,
      "d": 333.3335000000079,
      "v": 93
    },
    {
      "midi": 71,
      "hit": false,
      "t": 233000.11649999992,
      "d": 666.6669999999867,
      "v": 93
    },
    {
      "midi": 52,
      "hit": false,
      "t": 233666.78349999894,
      "d": 955.5560333332687,
      "v": 63
    },
    {
      "midi": 69,
      "hit": false,
      "t": 233666.7834999999,
      "d": 666.6669999999867,
      "v": 93
    },
    {
      "midi": 57,
      "hit": false,
      "t": 233850.1169249989,
      "d": 750.0003749999742,
      "v": 53
    },
    {
      "midi": 61,
      "hit": false,
      "t": 234000.1169999989,
      "d": 561.1113916666654,
      "v": 59
    },
    {
      "midi": 64,
      "hit": false,
      "t": 234166.7837499989,
      "d": 361.1112916666607,
      "v": 58
    },
    {
      "midi": 57,
      "hit": false,
      "t": 234333.4504999999,
      "d": 666.6669999999867,
      "v": 93
    },
    {
      "midi": 61,
      "hit": false,
      "t": 234333.4504999999,
      "d": 666.6669999999867,
      "v": 93
    },
    {
      "midi": 64,
      "hit": false,
      "t": 234333.4504999999,
      "d": 666.6669999999867,
      "v": 93
    },
    {
      "midi": 64,
      "hit": false,
      "t": 234666.78399999888,
      "d": 1366.6673500000034,
      "v": 63
    },
    {
      "midi": 43,
      "hit": false,
      "t": 234666.78399999888,
      "d": 2666.667999999976,
      "v": 46
    },
    {
      "midi": 52,
      "hit": false,
      "t": 234666.78399999888,
      "d": 2666.667999999976,
      "v": 55
    },
    {
      "midi": 57,
      "hit": false,
      "t": 234666.78399999888,
      "d": 2666.667999999976,
      "v": 43
    },
    {
      "midi": 61,
      "hit": false,
      "t": 234666.78399999888,
      "d": 2666.667999999976,
      "v": 53
    },
    {
      "midi": 57,
      "hit": false,
      "t": 235000.11749999988,
      "d": 333.3335000000079,
      "v": 93
    },
    {
      "midi": 69,
      "hit": false,
      "t": 235333.45099999988,
      "d": 333.3335000000079,
      "v": 93
    },
    {
      "midi": 71,
      "hit": false,
      "t": 235666.7844999999,
      "d": 666.6669999999867,
      "v": 93
    },
    {
      "midi": 73,
      "hit": false,
      "t": 236000.11799999888,
      "d": 727.7781416666403,
      "v": 76
    },
    {
      "midi": 69,
      "hit": false,
      "t": 236333.45149999988,
      "d": 666.6669999999867,
      "v": 93
    },
    {
      "midi": 64,
      "hit": false,
      "t": 236666.78499999887,
      "d": 633.3336499999859,
      "v": 63
    },
    {
      "midi": 57,
      "hit": false,
      "t": 237000.11849999987,
      "d": 1333.3340000000026,
      "v": 93
    },
    {
      "midi": 62,
      "hit": false,
      "t": 237000.11849999987,
      "d": 1333.3340000000026,
      "v": 93
    },
    {
      "midi": 62,
      "hit": false,
      "t": 237333.45199999886,
      "d": 505.5558083333308,
      "v": 52
    },
    {
      "midi": 66,
      "hit": false,
      "t": 237333.45199999886,
      "d": 677.7781166666537,
      "v": 59
    },
    {
      "midi": 54,
      "hit": false,
      "t": 237333.45199999886,
      "d": 1333.3339999999735,
      "v": 72
    },
    {
      "midi": 57,
      "hit": false,
      "t": 237666.78549999886,
      "d": 1000.0004999999655,
      "v": 57
    },
    {
      "midi": 62,
      "hit": false,
      "t": 238000.11899999884,
      "d": 661.1114416666678,
      "v": 55
    },
    {
      "midi": 69,
      "hit": false,
      "t": 238333.45249999885,
      "d": 300.0001500000071,
      "v": 62
    },
    {
      "midi": 57,
      "hit": false,
      "t": 238333.45249999987,
      "d": 333.3335000000079,
      "v": 93
    },
    {
      "midi": 52,
      "hit": false,
      "t": 238666.78599999883,
      "d": 666.6670000000158,
      "v": 53
    },
    {
      "midi": 57,
      "hit": false,
      "t": 238666.78599999883,
      "d": 666.6670000000158,
      "v": 42
    },
    {
      "midi": 62,
      "hit": false,
      "t": 238666.78599999883,
      "d": 666.6670000000158,
      "v": 47
    },
    {
      "midi": 69,
      "hit": false,
      "t": 238666.78599999883,
      "d": 666.6670000000158,
      "v": 59
    },
    {
      "midi": 57,
      "hit": false,
      "t": 238666.78599999988,
      "d": 333.3335000000079,
      "v": 93
    },
    {
      "midi": 62,
      "hit": false,
      "t": 238666.78599999988,
      "d": 333.3335000000079,
      "v": 93
    },
    {
      "midi": 69,
      "hit": false,
      "t": 238666.78599999988,
      "d": 333.3335000000079,
      "v": 93
    },
    {
      "midi": 66,
      "hit": false,
      "t": 239000.11949999884,
      "d": 333.3335000000079,
      "v": 42
    },
    {
      "midi": 68,
      "hit": false,
      "t": 239000.11949999988,
      "d": 333.3335000000079,
      "v": 93
    },
    {
      "midi": 40,
      "hit": false,
      "t": 239333.45299999884,
      "d": 666.6669999999867,
      "v": 48
    },
    {
      "midi": 52,
      "hit": false,
      "t": 239333.45299999884,
      "d": 666.6669999999867,
      "v": 39
    },
    {
      "midi": 56,
      "hit": false,
      "t": 239333.45299999884,
      "d": 666.6669999999867,
      "v": 46
    },
    {
      "midi": 59,
      "hit": false,
      "t": 239333.45299999884,
      "d": 666.6669999999867,
      "v": 59
    },
    {
      "midi": 62,
      "hit": false,
      "t": 239333.45299999884,
      "d": 666.6669999999867,
      "v": 57
    },
    {
      "midi": 56,
      "hit": false,
      "t": 239333.4529999999,
      "d": 333.3335000000079,
      "v": 93
    },
    {
      "midi": 62,
      "hit": false,
      "t": 239333.4529999999,
      "d": 333.3335000000079,
      "v": 93
    },
    {
      "midi": 66,
      "hit": false,
      "t": 239333.4529999999,
      "d": 333.3335000000079,
      "v": 93
    },
    {
      "midi": 68,
      "hit": false,
      "t": 239666.7864999999,
      "d": 333.3335000000079,
      "v": 93
    },
    {
      "midi": 57,
      "hit": false,
      "t": 240000.11999999883,
      "d": 550.0002749999985,
      "v": 45
    },
    {
      "midi": 61,
      "hit": false,
      "t": 240000.11999999883,
      "d": 694.4447916666395,
      "v": 55
    },
    {
      "midi": 64,
      "hit": false,
      "t": 240000.11999999883,
      "d": 955.5560333332978,
      "v": 58
    },
    {
      "midi": 45,
      "hit": false,
      "t": 240000.11999999883,
      "d": 2622.223533333279,
      "v": 63
    },
    {
      "midi": 57,
      "hit": false,
      "t": 240000.1199999999,
      "d": 2222.223333333328,
      "v": 93
    },
    {
      "midi": 61,
      "hit": false,
      "t": 240022.34223333324,
      "d": 2222.223333333328,
      "v": 93
    },
    {
      "midi": 64,
      "hit": false,
      "t": 240044.56446666658,
      "d": 2222.223333333328,
      "v": 93
    },
    {
      "midi": 69,
      "hit": false,
      "t": 240066.7866999999,
      "d": 2222.223333333328,
      "v": 93
    },
    {
      "midi": 52,
      "hit": false,
      "t": 240333.45349999884,
      "d": 1083.333874999953,
      "v": 57
    },
    {
      "midi": 57,
      "hit": false,
      "t": 240694.56479166547,
      "d": 1222.2228333333042,
      "v": 55
    },
    {
      "midi": 61,
      "hit": false,
      "t": 241000.1204999988,
      "d": 688.8892333333206,
      "v": 41
    },
    {
      "midi": 64,
      "hit": false,
      "t": 241333.4539999988,
      "d": 461.11134166663396,
      "v": 56
    }
  ]
}