{
  "jsonPath": "Rock/Soft Rock/Sting/ellas-danzan-solas-cueca-solo.json",
  "path": "Rock\\Soft Rock\\Sting\\Ellas Danzan Solas (Cueca Solo).mid",
  "name": "Ellas Danzan Solas (Cueca Solo)",
  "difficulty": "Advanced",
  "bpm": 72.000288001152,
  "notes": [
    {
      "midi": 45,
      "hit": false,
      "t": 202915.855,
      "d": 989.5793750000012,
      "v": 48
    },
    {
      "midi": 33,
      "hit": false,
      "t": 203315.15895833334,
      "d": 243.05458333334536,
      "v": 66
    },
    {
      "midi": 35,
      "hit": false,
      "t": 203558.2135416667,
      "d": 243.05458333331626,
      "v": 62
    },
    {
      "midi": 37,
      "hit": false,
      "t": 203766.54604166668,
      "d": 2152.769166666665,
      "v": 46
    },
    {
      "midi": 33,
      "hit": false,
      "t": 206622.43739583335,
      "d": 2960.057604166679,
      "v": 68
    },
    {
      "midi": 45,
      "hit": false,
      "t": 206665.84000000003,
      "d": 2977.418645833328,
      "v": 52
    },
    {
      "midi": 33,
      "hit": false,
      "t": 210016.52104166668,
      "d": 5642.338541666686,
      "v": 90
    },
    {
      "midi": 45,
      "hit": false,
      "t": 213323.7994791667,
      "d": 2699.641979166685,
      "v": 52
    },
    {
      "midi": 33,
      "hit": false,
      "t": 216700.52208333337,
      "d": 4574.634479166649,
      "v": 92
    },
    {
      "midi": 45,
      "hit": false,
      "t": 219938.3563541667,
      "d": 2430.545833333337,
      "v": 46
    },
    {
      "midi": 49,
      "hit": false,
      "t": 310007.44052083336,
      "d": 86.8052083333605,
      "v": 63
    },
    {
      "midi": 69,
      "hit": false,
      "t": 310102.9262500001,
      "d": 69.44416666671168,
      "v": 59
    },
    {
      "midi": 64,
      "hit": false,
      "t": 310111.60677083343,
      "d": 52.08312500000466,
      "v": 69
    },
    {
      "midi": 59,
      "hit": false,
      "t": 310111.60677083343,
      "d": 60.76364583335817,
      "v": 66
    },
    {
      "midi": 49,
      "hit": false,
      "t": 310363.3418750001,
      "d": 69.44416666665347,
      "v": 40
    },
    {
      "midi": 59,
      "hit": false,
      "t": 310450.1470833334,
      "d": 182.2909375000163,
      "v": 57
    },
    {
      "midi": 64,
      "hit": false,
      "t": 310450.1470833334,
      "d": 190.9714583333698,
      "v": 60
    },
    {
      "midi": 69,
      "hit": false,
      "t": 310458.82760416676,
      "d": 164.92989583330927,
      "v": 42
    },
    {
      "midi": 49,
      "hit": false,
      "t": 310667.1601041668,
      "d": 69.44416666665347,
      "v": 43
    },
    {
      "midi": 64,
      "hit": false,
      "t": 310753.9653125001,
      "d": 60.76364583335817,
      "v": 50
    },
    {
      "midi": 59,
      "hit": false,
      "t": 310753.9653125001,
      "d": 69.44416666671168,
      "v": 49
    },
    {
      "midi": 69,
      "hit": false,
      "t": 310762.64583333343,
      "d": 43.402604166651145,
      "v": 34
    },
    {
      "midi": 49,
      "hit": false,
      "t": 310997.01989583345,
      "d": 43.402604166651145,
      "v": 42
    },
    {
      "midi": 64,
      "hit": false,
      "t": 311066.4640625001,
      "d": 52.08312500000466,
      "v": 63
    },
    {
      "midi": 69,
      "hit": false,
      "t": 311066.4640625001,
      "d": 60.76364583335817,
      "v": 55
    },
    {
      "midi": 59,
      "hit": false,
      "t": 311075.14458333346,
      "d": 52.08312500000466,
      "v": 59
    },
    {
      "midi": 59,
      "hit": false,
      "t": 311292.1576041668,
      "d": 95.48572916671401,
      "v": 73
    },
    {
      "midi": 64,
      "hit": false,
      "t": 311300.8381250001,
      "d": 95.48572916671401,
      "v": 83
    },
    {
      "midi": 69,
      "hit": false,
      "t": 311300.8381250001,
      "d": 95.48572916671401,
      "v": 73
    },
    {
      "midi": 69,
      "hit": false,
      "t": 311491.8095833335,
      "d": 104.16625000000931,
      "v": 66
    },
    {
      "midi": 64,
      "hit": false,
      "t": 311491.8095833335,
      "d": 112.84677083336283,
      "v": 75
    },
    {
      "midi": 59,
      "hit": false,
      "t": 311500.49010416685,
      "d": 95.4857291666558,
      "v": 67
    },
    {
      "midi": 50,
      "hit": false,
      "t": 311691.4615625002,
      "d": 69.44416666665347,
      "v": 50
    },
    {
      "midi": 64,
      "hit": false,
      "t": 311795.6278125002,
      "d": 52.083125000062864,
      "v": 60
    },
    {
      "midi": 69,
      "hit": false,
      "t": 311804.3083333336,
      "d": 43.40260416670935,
      "v": 44
    },
    {
      "midi": 59,
      "hit": false,
      "t": 311812.98885416694,
      "d": 34.72208333335584,
      "v": 45
    },
    {
      "midi": 50,
      "hit": false,
      "t": 312038.6823958336,
      "d": 60.76364583335817,
      "v": 48
    },
    {
      "midi": 69,
      "hit": false,
      "t": 312108.1265625003,
      "d": 173.6104166666628,
      "v": 66
    },
    {
      "midi": 64,
      "hit": false,
      "t": 312108.1265625003,
      "d": 182.2909375000163,
      "v": 73
    },
    {
      "midi": 59,
      "hit": false,
      "t": 312116.80708333367,
      "d": 164.92989583330927,
      "v": 71
    },
    {
      "midi": 50,
      "hit": false,
      "t": 312325.1395833337,
      "d": 43.402604166651145,
      "v": 27
    },
    {
      "midi": 69,
      "hit": false,
      "t": 312420.62531250034,
      "d": 69.44416666671168,
      "v": 49
    },
    {
      "midi": 64,
      "hit": false,
      "t": 312420.62531250034,
      "d": 78.12468750006519,
      "v": 63
    },
    {
      "midi": 59,
      "hit": false,
      "t": 312429.3058333337,
      "d": 69.44416666671168,
      "v": 54
    },
    {
      "midi": 50,
      "hit": false,
      "t": 312637.6383333337,
      "d": 43.402604166651145,
      "v": 56
    },
    {
      "midi": 64,
      "hit": false,
      "t": 312715.7630208337,
      "d": 69.44416666671168,
      "v": 69
    },
    {
      "midi": 69,
      "hit": false,
      "t": 312724.4435416671,
      "d": 69.44416666671168,
      "v": 60
    },
    {
      "midi": 59,
      "hit": false,
      "t": 312733.1240625004,
      "d": 52.08312500000466,
      "v": 61
    },
    {
      "midi": 64,
      "hit": false,
      "t": 312941.45656250045,
      "d": 121.52729166671634,
      "v": 85
    },
    {
      "midi": 69,
      "hit": false,
      "t": 312941.45656250045,
      "d": 121.52729166671634,
      "v": 63
    },
    {
      "midi": 59,
      "hit": false,
      "t": 312950.1370833338,
      "d": 86.8052083333605,
      "v": 79
    },
    {
      "midi": 64,
      "hit": false,
      "t": 313141.10854166717,
      "d": 112.84677083336283,
      "v": 67
    },
    {
      "midi": 59,
      "hit": false,
      "t": 313149.7890625005,
      "d": 86.8052083333605,
      "v": 54
    },
    {
      "midi": 69,
      "hit": false,
      "t": 313158.4695833339,
      "d": 78.12468750000698,
      "v": 59
    },
    {
      "midi": 47,
      "hit": false,
      "t": 313358.12156250054,
      "d": 112.84677083336283,
      "v": 63
    },
    {
      "midi": 64,
      "hit": false,
      "t": 313453.6072916672,
      "d": 78.12468750000698,
      "v": 59
    },
    {
      "midi": 69,
      "hit": false,
      "t": 313462.28781250055,
      "d": 69.44416666665347,
      "v": 55
    },
    {
      "midi": 59,
      "hit": false,
      "t": 313470.9683333339,
      "d": 43.402604166651145,
      "v": 52
    },
    {
      "midi": 47,
      "hit": false,
      "t": 313705.34239583387,
      "d": 78.12468750006519,
      "v": 36
    },
    {
      "midi": 64,
      "hit": false,
      "t": 313766.1060416672,
      "d": 199.65197916672332,
      "v": 77
    },
    {
      "midi": 59,
      "hit": false,
      "t": 313774.7865625006,
      "d": 173.6104166666628,
      "v": 67
    },
    {
      "midi": 69,
      "hit": false,
      "t": 313774.7865625006,
      "d": 182.2909375000163,
      "v": 69
    },
    {
      "midi": 47,
      "hit": false,
      "t": 313991.79958333395,
      "d": 86.8052083333605,
      "v": 48
    },
    {
      "midi": 64,
      "hit": false,
      "t": 314095.96583333396,
      "d": 52.08312500000466,
      "v": 66
    },
    {
      "midi": 59,
      "hit": false,
      "t": 314095.96583333396,
      "d": 60.76364583335817,
      "v": 64
    },
    {
      "midi": 69,
      "hit": false,
      "t": 314104.6463541673,
      "d": 52.08312500000466,
      "v": 55
    },
    {
      "midi": 47,
      "hit": false,
      "t": 314304.298333334,
      "d": 60.76364583335817,
      "v": 54
    },
    {
      "midi": 64,
      "hit": false,
      "t": 314391.10354166734,
      "d": 156.24937500001397,
      "v": 77
    },
    {
      "midi": 59,
      "hit": false,
      "t": 314391.10354166734,
      "d": 164.92989583336748,
      "v": 67
    },
    {
      "midi": 69,
      "hit": false,
      "t": 314399.7840625007,
      "d": 156.24937500001397,
      "v": 64
    },
    {
      "midi": 64,
      "hit": false,
      "t": 314616.79708333407,
      "d": 121.52729166665813,
      "v": 83
    },
    {
      "midi": 69,
      "hit": false,
      "t": 314616.79708333407,
      "d": 130.20781250001164,
      "v": 75
    },
    {
      "midi": 59,
      "hit": false,
      "t": 314625.4776041674,
      "d": 130.20781250001164,
      "v": 75
    },
    {
      "midi": 64,
      "hit": false,
      "t": 314825.1295833341,
      "d": 121.52729166665813,
      "v": 69
    },
    {
      "midi": 69,
      "hit": false,
      "t": 314825.1295833341,
      "d": 138.88833333330695,
      "v": 57
    },
    {
      "midi": 59,
      "hit": false,
      "t": 314833.81010416744,
      "d": 130.20781249995343,
      "v": 61
    },
    {
      "midi": 42,
      "hit": false,
      "t": 314998.74000000075,
      "d": 104.16625000000931,
      "v": 37
    },
    {
      "midi": 61,
      "hit": false,
      "t": 315128.94781250076,
      "d": 78.12468750006519,
      "v": 66
    },
    {
      "midi": 64,
      "hit": false,
      "t": 315128.94781250076,
      "d": 78.12468750006519,
      "v": 59
    },
    {
      "midi": 69,
      "hit": false,
      "t": 315137.6283333341,
      "d": 69.44416666671168,
      "v": 44
    },
    {
      "midi": 59,
      "hit": false,
      "t": 315146.30885416747,
      "d": 52.08312500000466,
      "v": 28
    },
    {
      "midi": 42,
      "hit": false,
      "t": 315354.6413541675,
      "d": 69.44416666665347,
      "v": 50
    },
    {
      "midi": 59,
      "hit": false,
      "t": 315441.4465625008,
      "d": 199.65197916672332,
      "v": 56
    },
    {
      "midi": 69,
      "hit": false,
      "t": 315450.12708333414,
      "d": 147.56885416666046,
      "v": 52
    },
    {
      "midi": 61,
      "hit": false,
      "t": 315450.12708333414,
      "d": 173.6104166666628,
      "v": 66
    },
    {
      "midi": 64,
      "hit": false,
      "t": 315458.8076041675,
      "d": 173.6104166666628,
      "v": 59
    },
    {
      "midi": 42,
      "hit": false,
      "t": 315701.86218750087,
      "d": 34.72208333335584,
      "v": 45
    },
    {
      "midi": 61,
      "hit": false,
      "t": 315745.2647916676,
      "d": 69.44416666671168,
      "v": 73
    },
    {
      "midi": 64,
      "hit": false,
      "t": 315745.2647916676,
      "d": 86.8052083333605,
      "v": 64
    },
    {
      "midi": 59,
      "hit": false,
      "t": 315753.94531250093,
      "d": 95.4857291666558,
      "v": 66
    },
    {
      "midi": 69,
      "hit": false,
      "t": 315762.6258333343,
      "d": 69.44416666665347,
      "v": 51
    },
    {
      "midi": 42,
      "hit": false,
      "t": 315996.99989583425,
      "d": 60.76364583335817,
      "v": 54
    },
    {
      "midi": 64,
      "hit": false,
      "t": 316057.7635416676,
      "d": 69.44416666676989,
      "v": 61
    },
    {
      "midi": 59,
      "hit": false,
      "t": 316066.44406250096,
      "d": 52.083125000062864,
      "v": 56
    },
    {
      "midi": 69,
      "hit": false,
      "t": 316066.44406250096,
      "d": 60.763645833416376,
      "v": 52
    },
    {
      "midi": 61,
      "hit": false,
      "t": 316075.1245833343,
      "d": 34.72208333335584,
      "v": 66
    },
    {
      "midi": 64,
      "hit": false,
      "t": 316283.4570833344,
      "d": 104.16625000006752,
      "v": 84
    },
    {
      "midi": 69,
      "hit": false,
      "t": 316283.4570833344,
      "d": 112.84677083342103,
      "v": 71
    },
    {
      "midi": 61,
      "hit": false,
      "t": 316292.13760416774,
      "d": 86.8052083333605,
      "v": 98
    },
    {
      "midi": 59,
      "hit": false,
      "t": 316300.8181250011,
      "d": 86.8052083333605,
      "v": 80
    },
    {
      "midi": 69,
      "hit": false,
      "t": 316465.74802083446,
      "d": 164.92989583336748,
      "v": 74
    },
    {
      "midi": 64,
      "hit": false,
      "t": 316474.4285416678,
      "d": 182.2909375000163,
      "v": 80
    },
    {
      "midi": 61,
      "hit": false,
      "t": 316483.1090625012,
      "d": 164.92989583330927,
      "v": 90
    },
    {
      "midi": 59,
      "hit": false,
      "t": 316483.1090625012,
      "d": 182.2909375000163,
      "v": 80
    },
    {
      "midi": 49,
      "hit": false,
      "t": 316674.08052083454,
      "d": 86.8052083333605,
      "v": 70
    },
    {
      "midi": 69,
      "hit": false,
      "t": 316769.56625000125,
      "d": 69.44416666671168,
      "v": 66
    },
    {
      "midi": 64,
      "hit": false,
      "t": 316778.2467708346,
      "d": 52.08312500000466,
      "v": 76
    },
    {
      "midi": 59,
      "hit": false,
      "t": 316778.2467708346,
      "d": 60.76364583335817,
      "v": 73
    },
    {
      "midi": 49,
      "hit": false,
      "t": 317029.9818750013,
      "d": 69.44416666665347,
      "v": 47
    },
    {
      "midi": 59,
      "hit": false,
      "t": 317116.7870833346,
      "d": 182.2909375000163,
      "v": 90
    },
    {
      "midi": 64,
      "hit": false,
      "t": 317116.7870833346,
      "d": 190.9714583333698,
      "v": 93
    },
    {
      "midi": 69,
      "hit": false,
      "t": 317125.46760416793,
      "d": 164.92989583330927,
      "v": 75
    },
    {
      "midi": 49,
      "hit": false,
      "t": 317333.80010416795,
      "d": 69.44416666665347,
      "v": 76
    },
    {
      "midi": 64,
      "hit": false,
      "t": 317420.60531250125,
      "d": 60.76364583335817,
      "v": 83
    },
    {
      "midi": 59,
      "hit": false,
      "t": 317420.60531250125,
      "d": 69.44416666671168,
      "v": 82
    },
    {
      "midi": 69,
      "hit": false,
      "t": 317429.2858333346,
      "d": 43.402604166651145,
      "v": 67
    },
    {
      "midi": 49,
      "hit": false,
      "t": 317663.65989583463,
      "d": 43.402604166651145,
      "v": 75
    },
    {
      "midi": 64,
      "hit": false,
      "t": 317733.1040625013,
      "d": 52.08312500000466,
      "v": 96
    },
    {
      "midi": 69,
      "hit": false,
      "t": 317733.1040625013,
      "d": 60.76364583335817,
      "v": 88
    },
    {
      "midi": 59,
      "hit": false,
      "t": 317741.78458333464,
      "d": 52.08312500000466,
      "v": 92
    },
    {
      "midi": 59,
      "hit": false,
      "t": 317958.79760416795,
      "d": 95.48572916671401,
      "v": 106
    },
    {
      "midi": 64,
      "hit": false,
      "t": 317967.4781250013,
      "d": 95.48572916671401,
      "v": 116
    },
    {
      "midi": 69,
      "hit": false,
      "t": 317967.4781250013,
      "d": 95.48572916671401,
      "v": 106
    },
    {
      "midi": 69,
      "hit": false,
      "t": 318158.4495833347,
      "d": 104.16625000000931,
      "v": 99
    },
    {
      "midi": 64,
      "hit": false,
      "t": 318158.4495833347,
      "d": 112.84677083336283,
      "v": 108
    },
    {
      "midi": 59,
      "hit": false,
      "t": 318167.130104168,
      "d": 95.4857291666558,
      "v": 100
    },
    {
      "midi": 50,
      "hit": false,
      "t": 318358.1015625014,
      "d": 69.44416666665347,
      "v": 83
    },
    {
      "midi": 64,
      "hit": false,
      "t": 318462.2678125014,
      "d": 52.083125000062864,
      "v": 93
    },
    {
      "midi": 69,
      "hit": false,
      "t": 318470.94833333476,
      "d": 43.40260416670935,
      "v": 77
    },
    {
      "midi": 59,
      "hit": false,
      "t": 318479.6288541681,
      "d": 34.72208333335584,
      "v": 78
    },
    {
      "midi": 50,
      "hit": false,
      "t": 318705.3223958348,
      "d": 60.76364583335817,
      "v": 81
    },
    {
      "midi": 69,
      "hit": false,
      "t": 318774.7665625015,
      "d": 173.6104166666628,
      "v": 99
    },
    {
      "midi": 64,
      "hit": false,
      "t": 318774.7665625015,
      "d": 182.2909375000163,
      "v": 106
    },
    {
      "midi": 59,
      "hit": false,
      "t": 318783.44708333485,
      "d": 164.92989583330927,
      "v": 104
    },
    {
      "midi": 50,
      "hit": false,
      "t": 318991.77958333486,
      "d": 43.402604166651145,
      "v": 60
    },
    {
      "midi": 69,
      "hit": false,
      "t": 319087.2653125015,
      "d": 69.44416666671168,
      "v": 82
    },
    {
      "midi": 64,
      "hit": false,
      "t": 319087.2653125015,
      "d": 78.12468750006519,
      "v": 96
    },
    {
      "midi": 59,
      "hit": false,
      "t": 319095.9458333349,
      "d": 69.44416666671168,
      "v": 87
    },
    {
      "midi": 50,
      "hit": false,
      "t": 319304.2783333349,
      "d": 43.402604166651145,
      "v": 89
    },
    {
      "midi": 64,
      "hit": false,
      "t": 319382.4030208349,
      "d": 69.44416666671168,
      "v": 102
    },
    {
      "midi": 69,
      "hit": false,
      "t": 319391.08354166825,
      "d": 69.44416666671168,
      "v": 93
    },
    {
      "midi": 59,
      "hit": false,
      "t": 319399.7640625016,
      "d": 52.08312500000466,
      "v": 94
    },
    {
      "midi": 64,
      "hit": false,
      "t": 319608.0965625016,
      "d": 121.52729166671634,
      "v": 118
    },
    {
      "midi": 69,
      "hit": false,
      "t": 319608.0965625016,
      "d": 121.52729166671634,
      "v": 96
    },
    {
      "midi": 59,
      "hit": false,
      "t": 319616.777083335,
      "d": 86.8052083333605,
      "v": 112
    },
    {
      "midi": 64,
      "hit": false,
      "t": 319807.74854166835,
      "d": 112.84677083336283,
      "v": 100
    },
    {
      "midi": 59,
      "hit": false,
      "t": 319816.4290625017,
      "d": 86.8052083333605,
      "v": 87
    },
    {
      "midi": 69,
      "hit": false,
      "t": 319825.10958333506,
      "d": 78.12468750000698,
      "v": 92
    },
    {
      "midi": 47,
      "hit": false,
      "t": 320024.7615625017,
      "d": 112.84677083336283,
      "v": 96
    },
    {
      "midi": 64,
      "hit": false,
      "t": 320120.2472916684,
      "d": 78.12468750000698,
      "v": 92
    },
    {
      "midi": 69,
      "hit": false,
      "t": 320128.92781250173,
      "d": 69.44416666665347,
      "v": 88
    },
    {
      "midi": 59,
      "hit": false,
      "t": 320137.6083333351,
      "d": 43.402604166651145,
      "v": 85
    },
    {
      "midi": 47,
      "hit": false,
      "t": 320371.98239583505,
      "d": 78.12468750006519,
      "v": 69
    },
    {
      "midi": 64,
      "hit": false,
      "t": 320432.7460416684,
      "d": 199.65197916672332,
      "v": 110
    },
    {
      "midi": 59,
      "hit": false,
      "t": 320441.42656250176,
      "d": 173.6104166666628,
      "v": 100
    },
    {
      "midi": 69,
      "hit": false,
      "t": 320441.42656250176,
      "d": 182.2909375000163,
      "v": 102
    },
    {
      "midi": 47,
      "hit": false,
      "t": 320658.43958333513,
      "d": 86.8052083333605,
      "v": 81
    },
    {
      "midi": 64,
      "hit": false,
      "t": 320762.60583333514,
      "d": 52.08312500000466,
      "v": 99
    },
    {
      "midi": 59,
      "hit": false,
      "t": 320762.60583333514,
      "d": 60.76364583335817,
      "v": 97
    },
    {
      "midi": 69,
      "hit": false,
      "t": 320771.2863541685,
      "d": 52.08312500000466,
      "v": 88
    },
    {
      "midi": 47,
      "hit": false,
      "t": 320970.93833333516,
      "d": 60.76364583335817,
      "v": 87
    },
    {
      "midi": 64,
      "hit": false,
      "t": 321057.7435416685,
      "d": 156.24937500001397,
      "v": 110
    },
    {
      "midi": 59,
      "hit": false,
      "t": 321057.7435416685,
      "d": 164.92989583336748,
      "v": 100
    },
    {
      "midi": 69,
      "hit": false,
      "t": 321066.4240625019,
      "d": 156.24937500001397,
      "v": 97
    },
    {
      "midi": 64,
      "hit": false,
      "t": 321283.43708333524,
      "d": 121.52729166665813,
      "v": 116
    },
    {
      "midi": 69,
      "hit": false,
      "t": 321283.43708333524,
      "d": 130.20781250001164,
      "v": 108
    },
    {
      "midi": 59,
      "hit": false,
      "t": 321292.1176041686,
      "d": 130.20781250001164,
      "v": 108
    },
    {
      "midi": 64,
      "hit": false,
      "t": 321491.76958333526,
      "d": 121.52729166665813,
      "v": 102
    },
    {
      "midi": 69,
      "hit": false,
      "t": 321491.76958333526,
      "d": 138.88833333330695,
      "v": 90
    },
    {
      "midi": 59,
      "hit": false,
      "t": 321500.4501041686,
      "d": 130.20781249995343,
      "v": 94
    },
    {
      "midi": 42,
      "hit": false,
      "t": 321665.3800000019,
      "d": 104.16625000000931,
      "v": 70
    },
    {
      "midi": 61,
      "hit": false,
      "t": 321795.58781250194,
      "d": 78.12468750006519,
      "v": 92
    },
    {
      "midi": 64,
      "hit": false,
      "t": 321795.58781250194,
      "d": 78.12468750006519,
      "v": 85
    },
    {
      "midi": 69,
      "hit": false,
      "t": 321804.2683333353,
      "d": 69.44416666671168,
      "v": 70
    },
    {
      "midi": 59,
      "hit": false,
      "t": 321812.94885416864,
      "d": 52.08312500000466,
      "v": 54
    },
    {
      "midi": 42,
      "hit": false,
      "t": 322021.28135416866,
      "d": 69.44416666665347,
      "v": 76
    },
    {
      "midi": 59,
      "hit": false,
      "t": 322108.08656250197,
      "d": 199.65197916672332,
      "v": 82
    },
    {
      "midi": 69,
      "hit": false,
      "t": 322116.7670833353,
      "d": 147.56885416666046,
      "v": 78
    },
    {
      "midi": 61,
      "hit": false,
      "t": 322116.7670833353,
      "d": 173.6104166666628,
      "v": 92
    },
    {
      "midi": 64,
      "hit": false,
      "t": 322125.4476041687,
      "d": 173.6104166666628,
      "v": 85
    },
    {
      "midi": 42,
      "hit": false,
      "t": 322368.50218750205,
      "d": 34.72208333335584,
      "v": 71
    },
    {
      "midi": 61,
      "hit": false,
      "t": 322411.90479166876,
      "d": 69.44416666671168,
      "v": 99
    },
    {
      "midi": 64,
      "hit": false,
      "t": 322411.90479166876,
      "d": 86.8052083333605,
      "v": 90
    },
    {
      "midi": 59,
      "hit": false,
      "t": 322420.5853125021,
      "d": 95.4857291666558,
      "v": 92
    },
    {
      "midi": 69,
      "hit": false,
      "t": 322429.26583333546,
      "d": 69.44416666665347,
      "v": 77
    },
    {
      "midi": 42,
      "hit": false,
      "t": 322663.6398958354,
      "d": 60.76364583335817,
      "v": 80
    },
    {
      "midi": 64,
      "hit": false,
      "t": 322724.4035416688,
      "d": 69.44416666676989,
      "v": 87
    },
    {
      "midi": 59,
      "hit": false,
      "t": 322733.08406250214,
      "d": 52.083125000062864,
      "v": 82
    },
    {
      "midi": 69,
      "hit": false,
      "t": 322733.08406250214,
      "d": 60.763645833416376,
      "v": 78
    },
    {
      "midi": 61,
      "hit": false,
      "t": 322741.7645833355,
      "d": 34.72208333335584,
      "v": 92
    },
    {
      "midi": 64,
      "hit": false,
      "t": 322950.09708333557,
      "d": 104.16625000006752,
      "v": 103
    },
    {
      "midi": 69,
      "hit": false,
      "t": 322950.09708333557,
      "d": 112.84677083342103,
      "v": 90
    },
    {
      "midi": 61,
      "hit": false,
      "t": 322958.7776041689,
      "d": 86.8052083333605,
      "v": 117
    },
    {
      "midi": 59,
      "hit": false,
      "t": 322967.4581250023,
      "d": 86.8052083333605,
      "v": 99
    },
    {
      "midi": 69,
      "hit": false,
      "t": 323132.38802083564,
      "d": 164.92989583336748,
      "v": 93
    },
    {
      "midi": 64,
      "hit": false,
      "t": 323141.068541669,
      "d": 182.2909375000163,
      "v": 99
    },
    {
      "midi": 61,
      "hit": false,
      "t": 323149.74906250235,
      "d": 164.92989583330927,
      "v": 109
    },
    {
      "midi": 59,
      "hit": false,
      "t": 323149.74906250235,
      "d": 182.2909375000163,
      "v": 99
    },
    {
      "midi": 49,
      "hit": false,
      "t": 323340.7205208357,
      "d": 86.8052083333605,
      "v": 89
    },
    {
      "midi": 69,
      "hit": false,
      "t": 323436.20625000243,
      "d": 69.44416666671168,
      "v": 85
    },
    {
      "midi": 64,
      "hit": false,
      "t": 323444.8867708358,
      "d": 52.08312500000466,
      "v": 95
    },
    {
      "midi": 59,
      "hit": false,
      "t": 323444.8867708358,
      "d": 60.76364583335817,
      "v": 92
    },
    {
      "midi": 49,
      "hit": false,
      "t": 323696.62187500246,
      "d": 69.44416666665347,
      "v": 66
    },
    {
      "midi": 59,
      "hit": false,
      "t": 323783.42708333576,
      "d": 182.2909375000163,
      "v": 83
    },
    {
      "midi": 64,
      "hit": false,
      "t": 323783.42708333576,
      "d": 190.9714583333698,
      "v": 86
    },
    {
      "midi": 69,
      "hit": false,
      "t": 323792.1076041691,
      "d": 164.92989583330927,
      "v": 68
    },
    {
      "midi": 49,
      "hit": false,
      "t": 324000.44010416913,
      "d": 69.44416666665347,
      "v": 69
    },
    {
      "midi": 64,
      "hit": false,
      "t": 324087.24531250243,
      "d": 60.76364583335817,
      "v": 76
    },
    {
      "midi": 59,
      "hit": false,
      "t": 324087.24531250243,
      "d": 69.44416666671168,
      "v": 75
    },
    {
      "midi": 69,
      "hit": false,
      "t": 324095.9258333358,
      "d": 43.402604166651145,
      "v": 60
    },
    {
      "midi": 49,
      "hit": false,
      "t": 324330.2998958358,
      "d": 43.402604166651145,
      "v": 68
    },
    {
      "midi": 64,
      "hit": false,
      "t": 324399.74406250246,
      "d": 52.08312500000466,
      "v": 89
    },
    {
      "midi": 69,
      "hit": false,
      "t": 324399.74406250246,
      "d": 60.76364583335817,
      "v": 81
    },
    {
      "midi": 59,
      "hit": false,
      "t": 324408.4245833358,
      "d": 52.08312500000466,
      "v": 85
    },
    {
      "midi": 59,
      "hit": false,
      "t": 324625.4376041691,
      "d": 95.48572916671401,
      "v": 99
    },
    {
      "midi": 64,
      "hit": false,
      "t": 324634.1181250025,
      "d": 95.48572916671401,
      "v": 109
    },
    {
      "midi": 69,
      "hit": false,
      "t": 324634.1181250025,
      "d": 95.48572916671401,
      "v": 99
    },
    {
      "midi": 69,
      "hit": false,
      "t": 324825.08958333585,
      "d": 104.16625000000931,
      "v": 92
    },
    {
      "midi": 64,
      "hit": false,
      "t": 324825.08958333585,
      "d": 112.84677083336283,
      "v": 101
    },
    {
      "midi": 59,
      "hit": false,
      "t": 324833.7701041692,
      "d": 95.4857291666558,
      "v": 93
    },
    {
      "midi": 50,
      "hit": false,
      "t": 325024.7415625026,
      "d": 69.44416666665347,
      "v": 76
    },
    {
      "midi": 64,
      "hit": false,
      "t": 325128.9078125026,
      "d": 52.083125000062864,
      "v": 86
    },
    {
      "midi": 69,
      "hit": false,
      "t": 325137.58833333594,
      "d": 43.40260416670935,
      "v": 70
    },
    {
      "midi": 59,
      "hit": false,
      "t": 325146.2688541693,
      "d": 34.72208333335584,
      "v": 71
    },
    {
      "midi": 50,
      "hit": false,
      "t": 325371.96239583596,
      "d": 60.76364583335817,
      "v": 74
    },
    {
      "midi": 69,
      "hit": false,
      "t": 325441.40656250267,
      "d": 173.6104166666628,
      "v": 92
    },
    {
      "midi": 64,
      "hit": false,
      "t": 325441.40656250267,
      "d": 182.2909375000163,
      "v": 99
    },
    {
      "midi": 59,
      "hit": false,
      "t": 325450.087083336,
      "d": 164.92989583330927,
      "v": 97
    },
    {
      "midi": 50,
      "hit": false,
      "t": 325658.41958333604,
      "d": 43.402604166651145,
      "v": 53
    },
    {
      "midi": 69,
      "hit": false,
      "t": 325753.9053125027,
      "d": 69.44416666671168,
      "v": 75
    },
    {
      "midi": 64,
      "hit": false,
      "t": 325753.9053125027,
      "d": 78.12468750006519,
      "v": 89
    },
    {
      "midi": 59,
      "hit": false,
      "t": 325762.58583333605,
      "d": 69.44416666671168,
      "v": 80
    },
    {
      "midi": 50,
      "hit": false,
      "t": 325970.91833333607,
      "d": 43.402604166651145,
      "v": 82
    },
    {
      "midi": 64,
      "hit": false,
      "t": 326049.0430208361,
      "d": 69.44416666671168,
      "v": 95
    },
    {
      "midi": 69,
      "hit": false,
      "t": 326057.72354166943,
      "d": 69.44416666671168,
      "v": 86
    },
    {
      "midi": 59,
      "hit": false,
      "t": 326066.4040625028,
      "d": 52.08312500000466,
      "v": 87
    },
    {
      "midi": 64,
      "hit": false,
      "t": 326274.7365625028,
      "d": 121.52729166671634,
      "v": 111
    },
    {
      "midi": 69,
      "hit": false,
      "t": 326274.7365625028,
      "d": 121.52729166671634,
      "v": 89
    },
    {
      "midi": 59,
      "hit": false,
      "t": 326283.41708333616,
      "d": 86.8052083333605,
      "v": 105
    },
    {
      "midi": 64,
      "hit": false,
      "t": 326474.3885416695,
      "d": 112.84677083336283,
      "v": 93
    },
    {
      "midi": 59,
      "hit": false,
      "t": 326483.0690625029,
      "d": 86.8052083333605,
      "v": 80
    },
    {
      "midi": 69,
      "hit": false,
      "t": 326491.74958333623,
      "d": 78.12468750000698,
      "v": 85
    },
    {
      "midi": 47,
      "hit": false,
      "t": 326691.4015625029,
      "d": 112.84677083336283,
      "v": 89
    },
    {
      "midi": 64,
      "hit": false,
      "t": 326786.88729166955,
      "d": 78.12468750000698,
      "v": 85
    },
    {
      "midi": 69,
      "hit": false,
      "t": 326795.5678125029,
      "d": 69.44416666665347,
      "v": 81
    },
    {
      "midi": 59,
      "hit": false,
      "t": 326804.24833333626,
      "d": 43.402604166651145,
      "v": 78
    },
    {
      "midi": 47,
      "hit": false,
      "t": 327038.6223958362,
      "d": 78.12468750006519,
      "v": 62
    },
    {
      "midi": 64,
      "hit": false,
      "t": 327099.3860416696,
      "d": 199.65197916672332,
      "v": 103
    },
    {
      "midi": 59,
      "hit": false,
      "t": 327108.06656250294,
      "d": 173.6104166666628,
      "v": 93
    },
    {
      "midi": 69,
      "hit": false,
      "t": 327108.06656250294,
      "d": 182.2909375000163,
      "v": 95
    },
    {
      "midi": 47,
      "hit": false,
      "t": 327325.0795833363,
      "d": 86.8052083333605,
      "v": 74
    },
    {
      "midi": 64,
      "hit": false,
      "t": 327429.2458333363,
      "d": 52.08312500000466,
      "v": 92
    },
    {
      "midi": 59,
      "hit": false,
      "t": 327429.2458333363,
      "d": 60.76364583335817,
      "v": 90
    },
    {
      "midi": 69,
      "hit": false,
      "t": 327437.9263541697,
      "d": 52.08312500000466,
      "v": 81
    },
    {
      "midi": 47,
      "hit": false,
      "t": 327637.57833333634,
      "d": 60.76364583335817,
      "v": 80
    },
    {
      "midi": 64,
      "hit": false,
      "t": 327724.3835416697,
      "d": 156.24937500001397,
      "v": 103
    },
    {
      "midi": 59,
      "hit": false,
      "t": 327724.3835416697,
      "d": 164.92989583336748,
      "v": 93
    },
    {
      "midi": 69,
      "hit": false,
      "t": 327733.06406250305,
      "d": 156.24937500001397,
      "v": 90
    },
    {
      "midi": 64,
      "hit": false,
      "t": 327950.0770833364,
      "d": 121.52729166665813,
      "v": 109
    },
    {
      "midi": 69,
      "hit": false,
      "t": 327950.0770833364,
      "d": 130.20781250001164,
      "v": 101
    },
    {
      "midi": 59,
      "hit": false,
      "t": 327958.7576041698,
      "d": 130.20781250001164,
      "v": 101
    },
    {
      "midi": 64,
      "hit": false,
      "t": 328158.40958333644,
      "d": 121.52729166665813,
      "v": 95
    },
    {
      "midi": 69,
      "hit": false,
      "t": 328158.40958333644,
      "d": 138.88833333330695,
      "v": 83
    },
    {
      "midi": 59,
      "hit": false,
      "t": 328167.0901041698,
      "d": 130.20781249995343,
      "v": 87
    },
    {
      "midi": 42,
      "hit": false,
      "t": 328332.0200000031,
      "d": 104.16625000000931,
      "v": 63
    },
    {
      "midi": 61,
      "hit": false,
      "t": 328462.2278125031,
      "d": 78.12468750006519,
      "v": 92
    },
    {
      "midi": 64,
      "hit": false,
      "t": 328462.2278125031,
      "d": 78.12468750006519,
      "v": 85
    },
    {
      "midi": 69,
      "hit": false,
      "t": 328470.90833333647,
      "d": 69.44416666671168,
      "v": 70
    },
    {
      "midi": 59,
      "hit": false,
      "t": 328479.5888541698,
      "d": 52.08312500000466,
      "v": 54
    },
    {
      "midi": 42,
      "hit": false,
      "t": 328687.92135416984,
      "d": 69.44416666665347,
      "v": 76
    },
    {
      "midi": 59,
      "hit": false,
      "t": 328774.72656250314,
      "d": 199.65197916672332,
      "v": 82
    },
    {
      "midi": 69,
      "hit": false,
      "t": 328783.4070833365,
      "d": 147.56885416666046,
      "v": 78
    },
    {
      "midi": 61,
      "hit": false,
      "t": 328783.4070833365,
      "d": 173.6104166666628,
      "v": 92
    },
    {
      "midi": 64,
      "hit": false,
      "t": 328792.08760416985,
      "d": 173.6104166666628,
      "v": 85
    },
    {
      "midi": 42,
      "hit": false,
      "t": 329035.1421875032,
      "d": 34.72208333335584,
      "v": 71
    },
    {
      "midi": 61,
      "hit": false,
      "t": 329078.54479166993,
      "d": 69.44416666671168,
      "v": 99
    },
    {
      "midi": 64,
      "hit": false,
      "t": 329078.54479166993,
      "d": 86.8052083333605,
      "v": 90
    },
    {
      "midi": 59,
      "hit": false,
      "t": 329087.2253125033,
      "d": 95.4857291666558,
      "v": 92
    },
    {
      "midi": 69,
      "hit": false,
      "t": 329095.90583333664,
      "d": 69.44416666665347,
      "v": 77
    },
    {
      "midi": 42,
      "hit": false,
      "t": 329330.2798958366,
      "d": 60.76364583335817,
      "v": 80
    },
    {
      "midi": 64,
      "hit": false,
      "t": 329391.04354166996,
      "d": 69.44416666676989,
      "v": 87
    },
    {
      "midi": 59,
      "hit": false,
      "t": 329399.7240625033,
      "d": 52.083125000062864,
      "v": 82
    },
    {
      "midi": 69,
      "hit": false,
      "t": 329399.7240625033,
      "d": 60.763645833416376,
      "v": 78
    },
    {
      "midi": 61,
      "hit": false,
      "t": 329408.40458333667,
      "d": 34.72208333335584,
      "v": 92
    },
    {
      "midi": 64,
      "hit": false,
      "t": 329616.73708333675,
      "d": 104.16625000006752,
      "v": 103
    },
    {
      "midi": 69,
      "hit": false,
      "t": 329616.73708333675,
      "d": 112.84677083342103,
      "v": 90
    },
    {
      "midi": 61,
      "hit": false,
      "t": 329625.4176041701,
      "d": 86.8052083333605,
      "v": 117
    },
    {
      "midi": 59,
      "hit": false,
      "t": 329634.09812500345,
      "d": 86.8052083333605,
      "v": 99
    },
    {
      "midi": 69,
      "hit": false,
      "t": 329799.0280208368,
      "d": 164.92989583336748,
      "v": 93
    },
    {
      "midi": 64,
      "hit": false,
      "t": 329807.7085416702,
      "d": 182.2909375000163,
      "v": 99
    },
    {
      "midi": 61,
      "hit": false,
      "t": 329816.3890625035,
      "d": 164.92989583330927,
      "v": 109
    },
    {
      "midi": 59,
      "hit": false,
      "t": 329816.3890625035,
      "d": 182.2909375000163,
      "v": 99
    },
    {
      "midi": 49,
      "hit": false,
      "t": 330007.3605208369,
      "d": 86.8052083333605,
      "v": 89
    },
    {
      "midi": 69,
      "hit": false,
      "t": 330102.8462500036,
      "d": 69.44416666671168,
      "v": 85
    },
    {
      "midi": 64,
      "hit": false,
      "t": 330111.52677083696,
      "d": 52.08312500000466,
      "v": 95
    },
    {
      "midi": 59,
      "hit": false,
      "t": 330111.52677083696,
      "d": 60.76364583335817,
      "v": 92
    },
    {
      "midi": 49,
      "hit": false,
      "t": 330363.26187500363,
      "d": 69.44416666665347,
      "v": 66
    },
    {
      "midi": 59,
      "hit": false,
      "t": 330450.06708333694,
      "d": 182.2909375000163,
      "v": 83
    },
    {
      "midi": 64,
      "hit": false,
      "t": 330450.06708333694,
      "d": 190.9714583333698,
      "v": 86
    },
    {
      "midi": 69,
      "hit": false,
      "t": 330458.7476041703,
      "d": 164.92989583330927,
      "v": 68
    },
    {
      "midi": 49,
      "hit": false,
      "t": 330667.0801041703,
      "d": 69.44416666665347,
      "v": 69
    },
    {
      "midi": 64,
      "hit": false,
      "t": 330753.8853125036,
      "d": 60.76364583335817,
      "v": 76
    },
    {
      "midi": 59,
      "hit": false,
      "t": 330753.8853125036,
      "d": 69.44416666671168,
      "v": 75
    },
    {
      "midi": 69,
      "hit": false,
      "t": 330762.56583333696,
      "d": 43.402604166651145,
      "v": 60
    },
    {
      "midi": 49,
      "hit": false,
      "t": 330996.939895837,
      "d": 43.402604166651145,
      "v": 68
    },
    {
      "midi": 64,
      "hit": false,
      "t": 331066.38406250364,
      "d": 52.08312500000466,
      "v": 89
    },
    {
      "midi": 69,
      "hit": false,
      "t": 331066.38406250364,
      "d": 60.76364583335817,
      "v": 81
    },
    {
      "midi": 59,
      "hit": false,
      "t": 331075.064583337,
      "d": 52.08312500000466,
      "v": 85
    },
    {
      "midi": 59,
      "hit": false,
      "t": 331292.0776041703,
      "d": 95.48572916671401,
      "v": 99
    },
    {
      "midi": 64,
      "hit": false,
      "t": 331300.75812500366,
      "d": 95.48572916671401,
      "v": 109
    },
    {
      "midi": 69,
      "hit": false,
      "t": 331300.75812500366,
      "d": 95.48572916671401,
      "v": 99
    },
    {
      "midi": 69,
      "hit": false,
      "t": 331491.72958333703,
      "d": 104.16625000000931,
      "v": 92
    },
    {
      "midi": 64,
      "hit": false,
      "t": 331491.72958333703,
      "d": 112.84677083336283,
      "v": 101
    },
    {
      "midi": 59,
      "hit": false,
      "t": 331500.4101041704,
      "d": 95.4857291666558,
      "v": 93
    },
    {
      "midi": 50,
      "hit": false,
      "t": 331691.38156250375,
      "d": 69.44416666665347,
      "v": 76
    },
    {
      "midi": 64,
      "hit": false,
      "t": 331795.54781250376,
      "d": 52.083125000062864,
      "v": 86
    },
    {
      "midi": 69,
      "hit": false,
      "t": 331804.2283333371,
      "d": 43.40260416670935,
      "v": 70
    },
    {
      "midi": 59,
      "hit": false,
      "t": 331812.90885417047,
      "d": 34.72208333335584,
      "v": 71
    },
    {
      "midi": 50,
      "hit": false,
      "t": 332038.60239583714,
      "d": 60.76364583335817,
      "v": 74
    },
    {
      "midi": 69,
      "hit": false,
      "t": 332108.04656250385,
      "d": 173.6104166666628,
      "v": 92
    },
    {
      "midi": 64,
      "hit": false,
      "t": 332108.04656250385,
      "d": 182.2909375000163,
      "v": 99
    },
    {
      "midi": 59,
      "hit": false,
      "t": 332116.7270833372,
      "d": 164.92989583330927,
      "v": 97
    },
    {
      "midi": 50,
      "hit": false,
      "t": 332325.0595833372,
      "d": 43.402604166651145,
      "v": 53
    },
    {
      "midi": 69,
      "hit": false,
      "t": 332420.5453125039,
      "d": 69.44416666671168,
      "v": 75
    },
    {
      "midi": 64,
      "hit": false,
      "t": 332420.5453125039,
      "d": 78.12468750006519,
      "v": 89
    },
    {
      "midi": 59,
      "hit": false,
      "t": 332429.22583333723,
      "d": 69.44416666671168,
      "v": 80
    },
    {
      "midi": 50,
      "hit": false,
      "t": 332637.55833333725,
      "d": 43.402604166651145,
      "v": 82
    },
    {
      "midi": 64,
      "hit": false,
      "t": 332715.68302083726,
      "d": 69.44416666671168,
      "v": 95
    },
    {
      "midi": 69,
      "hit": false,
      "t": 332724.3635416706,
      "d": 69.44416666671168,
      "v": 86
    },
    {
      "midi": 59,
      "hit": false,
      "t": 332733.04406250396,
      "d": 52.08312500000466,
      "v": 87
    },
    {
      "midi": 64,
      "hit": false,
      "t": 332941.376562504,
      "d": 121.52729166671634,
      "v": 111
    },
    {
      "midi": 69,
      "hit": false,
      "t": 332941.376562504,
      "d": 121.52729166671634,
      "v": 89
    },
    {
      "midi": 59,
      "hit": false,
      "t": 332950.05708333733,
      "d": 86.8052083333605,
      "v": 105
    },
    {
      "midi": 64,
      "hit": false,
      "t": 333141.0285416707,
      "d": 112.84677083336283,
      "v": 93
    },
    {
      "midi": 59,
      "hit": false,
      "t": 333149.70906250406,
      "d": 86.8052083333605,
      "v": 80
    },
    {
      "midi": 69,
      "hit": false,
      "t": 333158.3895833374,
      "d": 78.12468750000698,
      "v": 85
    },
    {
      "midi": 47,
      "hit": false,
      "t": 333358.0415625041,
      "d": 112.84677083336283,
      "v": 89
    },
    {
      "midi": 64,
      "hit": false,
      "t": 333453.52729167073,
      "d": 78.12468750000698,
      "v": 85
    },
    {
      "midi": 69,
      "hit": false,
      "t": 333462.2078125041,
      "d": 69.44416666665347,
      "v": 81
    },
    {
      "midi": 59,
      "hit": false,
      "t": 333470.88833333744,
      "d": 43.402604166651145,
      "v": 78
    },
    {
      "midi": 47,
      "hit": false,
      "t": 333705.2623958374,
      "d": 78.12468750006519,
      "v": 62
    },
    {
      "midi": 64,
      "hit": false,
      "t": 333766.02604167076,
      "d": 199.65197916672332,
      "v": 103
    },
    {
      "midi": 59,
      "hit": false,
      "t": 333774.7065625041,
      "d": 173.6104166666628,
      "v": 93
    },
    {
      "midi": 69,
      "hit": false,
      "t": 333774.7065625041,
      "d": 182.2909375000163,
      "v": 95
    },
    {
      "midi": 47,
      "hit": false,
      "t": 333991.7195833375,
      "d": 86.8052083333605,
      "v": 74
    },
    {
      "midi": 64,
      "hit": false,
      "t": 334095.8858333375,
      "d": 52.08312500000466,
      "v": 92
    },
    {
      "midi": 59,
      "hit": false,
      "t": 334095.8858333375,
      "d": 60.76364583335817,
      "v": 90
    },
    {
      "midi": 69,
      "hit": false,
      "t": 334104.56635417085,
      "d": 52.08312500000466,
      "v": 81
    },
    {
      "midi": 47,
      "hit": false,
      "t": 334304.2183333375,
      "d": 60.76364583335817,
      "v": 80
    },
    {
      "midi": 64,
      "hit": false,
      "t": 334391.0235416709,
      "d": 156.24937500001397,
      "v": 103
    },
    {
      "midi": 59,
      "hit": false,
      "t": 334391.0235416709,
      "d": 164.92989583336748,
      "v": 93
    },
    {
      "midi": 69,
      "hit": false,
      "t": 334399.7040625042,
      "d": 156.24937500001397,
      "v": 90
    },
    {
      "midi": 64,
      "hit": false,
      "t": 334616.7170833376,
      "d": 121.52729166665813,
      "v": 109
    },
    {
      "midi": 69,
      "hit": false,
      "t": 334616.7170833376,
      "d": 130.20781250001164,
      "v": 101
    },
    {
      "midi": 59,
      "hit": false,
      "t": 334625.39760417095,
      "d": 130.20781250001164,
      "v": 101
    },
    {
      "midi": 64,
      "hit": false,
      "t": 334825.0495833376,
      "d": 121.52729166665813,
      "v": 95
    },
    {
      "midi": 69,
      "hit": false,
      "t": 334825.0495833376,
      "d": 138.88833333330695,
      "v": 83
    },
    {
      "midi": 59,
      "hit": false,
      "t": 334833.730104171,
      "d": 130.20781249995343,
      "v": 87
    },
    {
      "midi": 42,
      "hit": false,
      "t": 334998.6600000043,
      "d": 104.16625000000931,
      "v": 63
    },
    {
      "midi": 61,
      "hit": false,
      "t": 335128.8678125043,
      "d": 78.12468750006519,
      "v": 92
    },
    {
      "midi": 64,
      "hit": false,
      "t": 335128.8678125043,
      "d": 78.12468750006519,
      "v": 85
    },
    {
      "midi": 69,
      "hit": false,
      "t": 335137.54833333765,
      "d": 69.44416666671168,
      "v": 70
    },
    {
      "midi": 59,
      "hit": false,
      "t": 335146.228854171,
      "d": 52.08312500000466,
      "v": 54
    },
    {
      "midi": 42,
      "hit": false,
      "t": 335354.561354171,
      "d": 69.44416666665347,
      "v": 76
    },
    {
      "midi": 59,
      "hit": false,
      "t": 335441.3665625043,
      "d": 199.65197916672332,
      "v": 82
    },
    {
      "midi": 69,
      "hit": false,
      "t": 335450.0470833377,
      "d": 147.56885416666046,
      "v": 78
    },
    {
      "midi": 61,
      "hit": false,
      "t": 335450.0470833377,
      "d": 173.6104166666628,
      "v": 92
    },
    {
      "midi": 64,
      "hit": false,
      "t": 335458.727604171,
      "d": 173.6104166666628,
      "v": 85
    },
    {
      "midi": 42,
      "hit": false,
      "t": 335701.7821875044,
      "d": 34.72208333335584,
      "v": 71
    },
    {
      "midi": 61,
      "hit": false,
      "t": 335745.1847916711,
      "d": 69.44416666671168,
      "v": 99
    },
    {
      "midi": 64,
      "hit": false,
      "t": 335745.1847916711,
      "d": 86.8052083333605,
      "v": 90
    },
    {
      "midi": 59,
      "hit": false,
      "t": 335753.86531250447,
      "d": 95.4857291666558,
      "v": 92
    },
    {
      "midi": 69,
      "hit": false,
      "t": 335762.5458333378,
      "d": 69.44416666665347,
      "v": 77
    },
    {
      "midi": 42,
      "hit": false,
      "t": 335996.9198958378,
      "d": 60.76364583335817,
      "v": 80
    },
    {
      "midi": 64,
      "hit": false,
      "t": 336057.68354167114,
      "d": 69.44416666676989,
      "v": 87
    },
    {
      "midi": 59,
      "hit": false,
      "t": 336066.3640625045,
      "d": 52.083125000062864,
      "v": 82
    },
    {
      "midi": 69,
      "hit": false,
      "t": 336066.3640625045,
      "d": 60.763645833416376,
      "v": 78
    },
    {
      "midi": 61,
      "hit": false,
      "t": 336075.04458333785,
      "d": 34.72208333335584,
      "v": 92
    },
    {
      "midi": 64,
      "hit": false,
      "t": 336283.3770833379,
      "d": 104.16625000006752,
      "v": 103
    },
    {
      "midi": 69,
      "hit": false,
      "t": 336283.3770833379,
      "d": 112.84677083342103,
      "v": 90
    },
    {
      "midi": 61,
      "hit": false,
      "t": 336292.0576041713,
      "d": 86.8052083333605,
      "v": 117
    },
    {
      "midi": 59,
      "hit": false,
      "t": 336300.73812500463,
      "d": 86.8052083333605,
      "v": 99
    },
    {
      "midi": 69,
      "hit": false,
      "t": 336465.668020838,
      "d": 164.92989583336748,
      "v": 93
    },
    {
      "midi": 64,
      "hit": false,
      "t": 336474.34854167135,
      "d": 182.2909375000163,
      "v": 99
    },
    {
      "midi": 61,
      "hit": false,
      "t": 336483.0290625047,
      "d": 164.92989583330927,
      "v": 109
    },
    {
      "midi": 59,
      "hit": false,
      "t": 336483.0290625047,
      "d": 182.2909375000163,
      "v": 99
    },
    {
      "midi": 49,
      "hit": false,
      "t": 336665.3200000047,
      "d": 190.9714583333698,
      "v": 83
    },
    {
      "midi": 59,
      "hit": false,
      "t": 336665.3200000047,
      "d": 225.69354166672565,
      "v": 83
    },
    {
      "midi": 64,
      "hit": false,
      "t": 336665.3200000047,
      "d": 225.69354166672565,
      "v": 73
    },
    {
      "midi": 81,
      "hit": false,
      "t": 336674.0005208381,
      "d": 225.69354166672565,
      "v": 83
    },
    {
      "midi": 69,
      "hit": false,
      "t": 336674.0005208381,
      "d": 234.37406250007916,
      "v": 86
    },
    {
      "midi": 76,
      "hit": false,
      "t": 336674.0005208381,
      "d": 243.05458333343267,
      "v": 92
    },
    {
      "midi": 76,
      "hit": false,
      "t": 337012.54083333816,
      "d": 52.083125000062864,
      "v": 89
    },
    {
      "midi": 59,
      "hit": false,
      "t": 337012.54083333816,
      "d": 60.763645833416376,
      "v": 83
    },
    {
      "midi": 49,
      "hit": false,
      "t": 337021.2213541715,
      "d": 60.763645833416376,
      "v": 83
    },
    {
      "midi": 69,
      "hit": false,
      "t": 337021.2213541715,
      "d": 60.763645833416376,
      "v": 86
    },
    {
      "midi": 64,
      "hit": false,
      "t": 337029.90187500487,
      "d": 43.40260416670935,
      "v": 66
    },
    {
      "midi": 81,
      "hit": false,
      "t": 337029.90187500487,
      "d": 43.40260416670935,
      "v": 76
    },
    {
      "midi": 62,
      "hit": false,
      "t": 337038.5823958382,
      "d": 17.361041666648816,
      "v": 56
    },
    {
      "midi": 76,
      "hit": false,
      "t": 337272.95645833825,
      "d": 243.05458333337447,
      "v": 86
    },
    {
      "midi": 81,
      "hit": false,
      "t": 337281.6369791716,
      "d": 217.01302083331393,
      "v": 81
    },
    {
      "midi": 69,
      "hit": false,
      "t": 337281.6369791716,
      "d": 225.69354166666744,
      "v": 78
    },
    {
      "midi": 59,
      "hit": false,
      "t": 337298.99802083825,
      "d": 182.2909375000163,
      "v": 73
    },
    {
      "midi": 49,
      "hit": false,
      "t": 337307.6785416716,
      "d": 156.24937500001397,
      "v": 58
    },
    {
      "midi": 64,
      "hit": false,
      "t": 337307.6785416716,
      "d": 173.6104166666628,
      "v": 56
    },
    {
      "midi": 76,
      "hit": false,
      "t": 337594.1357291716,
      "d": 243.05458333343267,
      "v": 92
    },
    {
      "midi": 81,
      "hit": false,
      "t": 337602.816250005,
      "d": 208.33250000007683,
      "v": 90
    },
    {
      "midi": 69,
      "hit": false,
      "t": 337602.816250005,
      "d": 217.01302083343035,
      "v": 82
    },
    {
      "midi": 49,
      "hit": false,
      "t": 337611.49677083833,
      "d": 190.9714583333698,
      "v": 85
    },
    {
      "midi": 59,
      "hit": false,
      "t": 337611.49677083833,
      "d": 208.33250000007683,
      "v": 78
    },
    {
      "midi": 64,
      "hit": false,
      "t": 337620.1772916717,
      "d": 190.9714583333698,
      "v": 63
    },
    {
      "midi": 69,
      "hit": false,
      "t": 337897.9539583384,
      "d": 60.763645833416376,
      "v": 92
    },
    {
      "midi": 49,
      "hit": false,
      "t": 337897.9539583384,
      "d": 104.16625000006752,
      "v": 82
    },
    {
      "midi": 59,
      "hit": false,
      "t": 337906.6344791718,
      "d": 112.84677083342103,
      "v": 78
    },
    {
      "midi": 76,
      "hit": false,
      "t": 337915.3150000051,
      "d": 34.72208333335584,
      "v": 97
    },
    {
      "midi": 81,
      "hit": false,
      "t": 337915.3150000051,
      "d": 60.76364583335817,
      "v": 89
    },
    {
      "midi": 64,
      "hit": false,
      "t": 337923.9955208385,
      "d": 86.8052083333605,
      "v": 55
    },
    {
      "midi": 81,
      "hit": false,
      "t": 338106.28645833855,
      "d": 60.763645833416376,
      "v": 80
    },
    {
      "midi": 59,
      "hit": false,
      "t": 338106.28645833855,
      "d": 95.48572916677222,
      "v": 64
    },
    {
      "midi": 69,
      "hit": false,
      "t": 338114.9669791719,
      "d": 52.083125000062864,
      "v": 89
    },
    {
      "midi": 76,
      "hit": false,
      "t": 338123.64750000526,
      "d": 34.72208333335584,
      "v": 101
    },
    {
      "midi": 64,
      "hit": false,
      "t": 338123.64750000526,
      "d": 69.44416666671168,
      "v": 49
    },
    {
      "midi": 59,
      "hit": false,
      "t": 338305.93843750533,
      "d": 243.05458333337447,
      "v": 71
    },
    {
      "midi": 50,
      "hit": false,
      "t": 338314.6189583387,
      "d": 217.01302083337214,
      "v": 95
    },
    {
      "midi": 64,
      "hit": false,
      "t": 338323.29947917204,
      "d": 208.33250000001863,
      "v": 80
    },
    {
      "midi": 81,
      "hit": false,
      "t": 338323.29947917204,
      "d": 234.37406250002095,
      "v": 103
    },
    {
      "midi": 69,
      "hit": false,
      "t": 338331.9800000054,
      "d": 234.37406250002095,
      "v": 109
    },
    {
      "midi": 76,
      "hit": false,
      "t": 338331.9800000054,
      "d": 234.37406250002095,
      "v": 117
    },
    {
      "midi": 50,
      "hit": false,
      "t": 338618.4371875054,
      "d": 130.20781250006985,
      "v": 85
    },
    {
      "midi": 59,
      "hit": false,
      "t": 338627.1177083388,
      "d": 112.84677083336283,
      "v": 99
    },
    {
      "midi": 64,
      "hit": false,
      "t": 338635.7982291721,
      "d": 112.84677083336283,
      "v": 77
    },
    {
      "midi": 81,
      "hit": false,
      "t": 338635.7982291721,
      "d": 112.84677083336283,
      "v": 87
    },
    {
      "midi": 76,
      "hit": false,
      "t": 338644.4787500055,
      "d": 104.16625000000931,
      "v": 107
    },
    {
      "midi": 69,
      "hit": false,
      "t": 338644.4787500055,
      "d": 112.84677083336283,
      "v": 97
    },
    {
      "midi": 50,
      "hit": false,
      "t": 338930.9359375055,
      "d": 243.05458333343267,
      "v": 83
    },
    {
      "midi": 76,
      "hit": false,
      "t": 338939.61645833886,
      "d": 243.05458333343267,
      "v": 105
    },
    {
      "midi": 64,
      "hit": false,
      "t": 338948.2969791722,
      "d": 217.01302083337214,
      "v": 71
    },
    {
      "midi": 81,
      "hit": false,
      "t": 338948.2969791722,
      "d": 217.01302083337214,
      "v": 95
    },
    {
      "midi": 69,
      "hit": false,
      "t": 338956.97750000557,
      "d": 217.01302083337214,
      "v": 99
    },
    {
      "midi": 59,
      "hit": false,
      "t": 338956.97750000557,
      "d": 225.69354166672565,
      "v": 66
    },
    {
      "midi": 50,
      "hit": false,
      "t": 339260.7957291723,
      "d": 217.01302083337214,
      "v": 90
    },
    {
      "midi": 59,
      "hit": false,
      "t": 339260.7957291723,
      "d": 225.69354166672565,
      "v": 89
    },
    {
      "midi": 64,
      "hit": false,
      "t": 339269.47625000565,
      "d": 225.69354166672565,
      "v": 71
    },
    {
      "midi": 81,
      "hit": false,
      "t": 339278.156770839,
      "d": 208.33250000001863,
      "v": 97
    },
    {
      "midi": 69,
      "hit": false,
      "t": 339278.156770839,
      "d": 217.01302083337214,
      "v": 103
    },
    {
      "midi": 76,
      "hit": false,
      "t": 339286.83729167236,
      "d": 217.01302083337214,
      "v": 107
    },
    {
      "midi": 69,
      "hit": false,
      "t": 339573.2944791724,
      "d": 95.48572916671401,
      "v": 87
    },
    {
      "midi": 81,
      "hit": false,
      "t": 339581.97500000574,
      "d": 86.8052083333605,
      "v": 86
    },
    {
      "midi": 64,
      "hit": false,
      "t": 339581.97500000574,
      "d": 130.20781250001164,
      "v": 73
    },
    {
      "midi": 76,
      "hit": false,
      "t": 339590.6555208391,
      "d": 52.08312500000466,
      "v": 95
    },
    {
      "midi": 59,
      "hit": false,
      "t": 339590.6555208391,
      "d": 104.16625000000931,
      "v": 86
    },
    {
      "midi": 50,
      "hit": false,
      "t": 339599.33604167245,
      "d": 86.80520833330229,
      "v": 76
    },
    {
      "midi": 50,
      "hit": false,
      "t": 339764.26593750576,
      "d": 69.44416666671168,
      "v": 71
    },
    {
      "midi": 59,
      "hit": false,
      "t": 339772.9464583391,
      "d": 86.8052083333605,
      "v": 82
    },
    {
      "midi": 64,
      "hit": false,
      "t": 339772.9464583391,
      "d": 112.84677083336283,
      "v": 64
    },
    {
      "midi": 69,
      "hit": false,
      "t": 339781.62697917246,
      "d": 112.84677083336283,
      "v": 92
    },
    {
      "midi": 76,
      "hit": false,
      "t": 339790.3075000058,
      "d": 78.12468750000698,
      "v": 95
    },
    {
      "midi": 81,
      "hit": false,
      "t": 339790.3075000058,
      "d": 78.12468750000698,
      "v": 80
    },
    {
      "midi": 64,
      "hit": false,
      "t": 339989.9594791725,
      "d": 217.01302083343035,
      "v": 66
    },
    {
      "midi": 59,
      "hit": false,
      "t": 339998.64000000583,
      "d": 182.2909375000745,
      "v": 85
    },
    {
      "midi": 76,
      "hit": false,
      "t": 339998.64000000583,
      "d": 182.2909375000745,
      "v": 97
    },
    {
      "midi": 69,
      "hit": false,
      "t": 340007.3205208392,
      "d": 164.92989583336748,
      "v": 93
    },
    {
      "midi": 81,
      "hit": false,
      "t": 340007.3205208392,
      "d": 164.92989583336748,
      "v": 89
    },
    {
      "midi": 54,
      "hit": false,
      "t": 340016.00104167254,
      "d": 156.24937500001397,
      "v": 86
    },
    {
      "midi": 59,
      "hit": false,
      "t": 340276.41666667257,
      "d": 86.8052083334187,
      "v": 71
    },
    {
      "midi": 54,
      "hit": false,
      "t": 340285.0971875059,
      "d": 86.8052083334187,
      "v": 85
    },
    {
      "midi": 76,
      "hit": false,
      "t": 340293.7777083393,
      "d": 60.76364583335817,
      "v": 95
    },
    {
      "midi": 64,
      "hit": false,
      "t": 340293.7777083393,
      "d": 78.12468750006519,
      "v": 72
    },
    {
      "midi": 81,
      "hit": false,
      "t": 340302.4582291726,
      "d": 60.76364583335817,
      "v": 86
    },
    {
      "midi": 69,
      "hit": false,
      "t": 340311.138750006,
      "d": 43.402604166651145,
      "v": 93
    },
    {
      "midi": 59,
      "hit": false,
      "t": 340571.554375006,
      "d": 234.37406250007916,
      "v": 77
    },
    {
      "midi": 64,
      "hit": false,
      "t": 340571.554375006,
      "d": 243.05458333343267,
      "v": 77
    },
    {
      "midi": 54,
      "hit": false,
      "t": 340580.23489583936,
      "d": 225.69354166672565,
      "v": 85
    },
    {
      "midi": 69,
      "hit": false,
      "t": 340588.9154166727,
      "d": 225.69354166672565,
      "v": 99
    },
    {
      "midi": 76,
      "hit": false,
      "t": 340588.9154166727,
      "d": 225.69354166672565,
      "v": 107
    },
    {
      "midi": 81,
      "hit": false,
      "t": 340597.59593750606,
      "d": 217.01302083337214,
      "v": 97
    },
    {
      "midi": 59,
      "hit": false,
      "t": 340910.0946875061,
      "d": 95.48572916677222,
      "v": 74
    },
    {
      "midi": 64,
      "hit": false,
      "t": 340918.77520833944,
      "d": 86.8052083334187,
      "v": 72
    },
    {
      "midi": 54,
      "hit": false,
      "t": 340918.77520833944,
      "d": 95.48572916677222,
      "v": 86
    },
    {
      "midi": 76,
      "hit": false,
      "t": 340927.4557291728,
      "d": 60.76364583335817,
      "v": 103
    },
    {
      "midi": 69,
      "hit": false,
      "t": 340936.13625000615,
      "d": 60.76364583335817,
      "v": 101
    },
    {
      "midi": 81,
      "hit": false,
      "t": 340936.13625000615,
      "d": 69.44416666671168,
      "v": 92
    },
    {
      "midi": 69,
      "hit": false,
      "t": 341231.27395833953,
      "d": 60.763645833416376,
      "v": 101
    },
    {
      "midi": 81,
      "hit": false,
      "t": 341231.27395833953,
      "d": 69.44416666676989,
      "v": 90
    },
    {
      "midi": 76,
      "hit": false,
      "t": 341239.9544791729,
      "d": 43.40260416670935,
      "v": 105
    },
    {
      "midi": 64,
      "hit": false,
      "t": 341239.9544791729,
      "d": 86.8052083334187,
      "v": 77
    },
    {
      "midi": 59,
      "hit": false,
      "t": 341248.63500000624,
      "d": 52.083125000062864,
      "v": 89
    },
    {
      "midi": 54,
      "hit": false,
      "t": 341257.3155208396,
      "d": 43.40260416670935,
      "v": 89
    },
    {
      "midi": 54,
      "hit": false,
      "t": 341430.9259375063,
      "d": 78.12468750006519,
      "v": 92
    },
    {
      "midi": 59,
      "hit": false,
      "t": 341439.60645833967,
      "d": 60.76364583335817,
      "v": 90
    },
    {
      "midi": 64,
      "hit": false,
      "t": 341439.60645833967,
      "d": 130.20781250006985,
      "v": 78
    },
    {
      "midi": 81,
      "hit": false,
      "t": 341448.286979173,
      "d": 69.44416666671168,
      "v": 87
    },
    {
      "midi": 76,
      "hit": false,
      "t": 341456.9675000064,
      "d": 43.402604166651145,
      "v": 101
    },
    {
      "midi": 69,
      "hit": false,
      "t": 341456.9675000064,
      "d": 60.76364583335817,
      "v": 92
    },
    {
      "midi": 64,
      "hit": false,
      "t": 341639.2584375064,
      "d": 260.4156250000815,
      "v": 56
    },
    {
      "midi": 59,
      "hit": false,
      "t": 341647.93895833974,
      "d": 234.37406250002095,
      "v": 76
    },
    {
      "midi": 69,
      "hit": false,
      "t": 341656.6194791731,
      "d": 225.69354166666744,
      "v": 101
    },
    {
      "midi": 76,
      "hit": false,
      "t": 341656.6194791731,
      "d": 234.37406250002095,
      "v": 109
    },
    {
      "midi": 81,
      "hit": false,
      "t": 341665.30000000645,
      "d": 217.01302083331393,
      "v": 99
    },
    {
      "midi": 59,
      "hit": false,
      "t": 341960.4377083398,
      "d": 78.12468750006519,
      "v": 83
    },
    {
      "midi": 54,
      "hit": false,
      "t": 341969.1182291732,
      "d": 78.12468750006519,
      "v": 93
    },
    {
      "midi": 64,
      "hit": false,
      "t": 341969.1182291732,
      "d": 95.48572916671401,
      "v": 75
    },
    {
      "midi": 69,
      "hit": false,
      "t": 341977.79875000654,
      "d": 69.44416666671168,
      "v": 95
    },
    {
      "midi": 76,
      "hit": false,
      "t": 341986.4792708399,
      "d": 43.402604166651145,
      "v": 105
    },
    {
      "midi": 81,
      "hit": false,
      "t": 341986.4792708399,
      "d": 60.76364583335817,
      "v": 92
    },
    {
      "midi": 69,
      "hit": false,
      "t": 342255.5754166732,
      "d": 234.37406250007916,
      "v": 101
    },
    {
      "midi": 76,
      "hit": false,
      "t": 342255.5754166732,
      "d": 234.37406250007916,
      "v": 107
    },
    {
      "midi": 64,
      "hit": false,
      "t": 342264.25593750656,
      "d": 217.01302083337214,
      "v": 80
    },
    {
      "midi": 54,
      "hit": false,
      "t": 342272.9364583399,
      "d": 208.33250000001863,
      "v": 89
    },
    {
      "midi": 81,
      "hit": false,
      "t": 342272.9364583399,
      "d": 208.33250000001863,
      "v": 93
    },
    {
      "midi": 59,
      "hit": false,
      "t": 342281.61697917327,
      "d": 190.9714583333116,
      "v": 80
    },
    {
      "midi": 54,
      "hit": false,
      "t": 342585.43520833994,
      "d": 217.01302083343035,
      "v": 105
    },
    {
      "midi": 64,
      "hit": false,
      "t": 342585.43520833994,
      "d": 217.01302083343035,
      "v": 85
    },
    {
      "midi": 59,
      "hit": false,
      "t": 342594.1157291733,
      "d": 199.65197916672332,
      "v": 103
    },
    {
      "midi": 81,
      "hit": false,
      "t": 342602.79625000665,
      "d": 208.33250000007683,
      "v": 97
    },
    {
      "midi": 69,
      "hit": false,
      "t": 342602.79625000665,
      "d": 217.01302083343035,
      "v": 101
    },
    {
      "midi": 76,
      "hit": false,
      "t": 342611.47677084,
      "d": 217.01302083343035,
      "v": 111
    },
    {
      "midi": 59,
      "hit": false,
      "t": 342915.2950000068,
      "d": 86.80520833347691,
      "v": 97
    },
    {
      "midi": 64,
      "hit": false,
      "t": 342923.97552084015,
      "d": 60.763645833416376,
      "v": 76
    },
    {
      "midi": 54,
      "hit": false,
      "t": 342923.97552084015,
      "d": 78.1246875001234,
      "v": 93
    },
    {
      "midi": 76,
      "hit": false,
      "t": 342932.6560416735,
      "d": 43.40260416670935,
      "v": 103
    },
    {
      "midi": 69,
      "hit": false,
      "t": 342932.6560416735,
      "d": 60.763645833416376,
      "v": 89
    },
    {
      "midi": 81,
      "hit": false,
      "t": 342941.33656250685,
      "d": 52.083125000062864,
      "v": 90
    },
    {
      "midi": 59,
      "hit": false,
      "t": 343123.6275000069,
      "d": 69.44416666676989,
      "v": 71
    },
    {
      "midi": 64,
      "hit": false,
      "t": 343132.3080208403,
      "d": 52.083125000062864,
      "v": 68
    },
    {
      "midi": 54,
      "hit": false,
      "t": 343132.3080208403,
      "d": 69.44416666676989,
      "v": 82
    },
    {
      "midi": 69,
      "hit": false,
      "t": 343140.98854167364,
      "d": 52.083125000062864,
      "v": 90
    },
    {
      "midi": 76,
      "hit": false,
      "t": 343149.669062507,
      "d": 26.04156250000233,
      "v": 97
    },
    {
      "midi": 81,
      "hit": false,
      "t": 343149.669062507,
      "d": 26.04156250000233,
      "v": 77
    },
    {
      "midi": 59,
      "hit": false,
      "t": 343331.96000000706,
      "d": 260.4156250000815,
      "v": 80
    },
    {
      "midi": 69,
      "hit": false,
      "t": 343340.6405208404,
      "d": 243.05458333337447,
      "v": 101
    },
    {
      "midi": 81,
      "hit": false,
      "t": 343349.3210416738,
      "d": 234.37406250002095,
      "v": 93
    },
    {
      "midi": 76,
      "hit": false,
      "t": 343358.0015625071,
      "d": 217.01302083331393,
      "v": 107
    },
    {
      "midi": 64,
      "hit": false,
      "t": 343358.0015625071,
      "d": 225.69354166666744,
      "v": 66
    },
    {
      "midi": 49,
      "hit": false,
      "t": 343427.4457291738,
      "d": 130.20781250001164,
      "v": 30
    },
    {
      "midi": 49,
      "hit": false,
      "t": 343661.8197916738,
      "d": 95.48572916677222,
      "v": 83
    },
    {
      "midi": 81,
      "hit": false,
      "t": 343670.50031250715,
      "d": 52.083125000062864,
      "v": 92
    },
    {
      "midi": 59,
      "hit": false,
      "t": 343670.50031250715,
      "d": 69.44416666671168,
      "v": 74
    },
    {
      "midi": 76,
      "hit": false,
      "t": 343679.1808333405,
      "d": 34.72208333335584,
      "v": 105
    },
    {
      "midi": 69,
      "hit": false,
      "t": 343679.1808333405,
      "d": 43.40260416670935,
      "v": 95
    },
    {
      "midi": 64,
      "hit": false,
      "t": 343687.86135417386,
      "d": 60.76364583335817,
      "v": 65
    },
    {
      "midi": 62,
      "hit": false,
      "t": 343696.5418750072,
      "d": 26.04156250000233,
      "v": 68
    },
    {
      "midi": 59,
      "hit": false,
      "t": 343939.5964583406,
      "d": 269.0961458333768,
      "v": 59
    },
    {
      "midi": 76,
      "hit": false,
      "t": 343956.95750000724,
      "d": 234.37406250007916,
      "v": 109
    },
    {
      "midi": 64,
      "hit": false,
      "t": 343956.95750000724,
      "d": 251.73510416672798,
      "v": 58
    },
    {
      "midi": 81,
      "hit": false,
      "t": 343965.6380208406,
      "d": 217.01302083337214,
      "v": 99
    },
    {
      "midi": 69,
      "hit": false,
      "t": 343974.31854167394,
      "d": 217.01302083337214,
      "v": 105
    },
    {
      "midi": 59,
      "hit": false,
      "t": 344252.0952083406,
      "d": 225.69354166684207,
      "v": 60
    },
    {
      "midi": 64,
      "hit": false,
      "t": 344260.77572917397,
      "d": 208.33250000013504,
      "v": 40
    },
    {
      "midi": 49,
      "hit": false,
      "t": 344269.4562500073,
      "d": 173.610416666721,
      "v": 83
    },
    {
      "midi": 81,
      "hit": false,
      "t": 344278.1367708407,
      "d": 164.92989583336748,
      "v": 97
    },
    {
      "midi": 69,
      "hit": false,
      "t": 344278.1367708407,
      "d": 182.2909375000745,
      "v": 99
    },
    {
      "midi": 76,
      "hit": false,
      "t": 344286.81729167403,
      "d": 164.92989583336748,
      "v": 103
    },
    {
      "midi": 59,
      "hit": false,
      "t": 344564.5939583408,
      "d": 130.20781250012806,
      "v": 89
    },
    {
      "midi": 64,
      "hit": false,
      "t": 344573.2744791742,
      "d": 112.84677083342103,
      "v": 71
    },
    {
      "midi": 81,
      "hit": false,
      "t": 344581.9550000075,
      "d": 86.8052083333605,
      "v": 92
    },
    {
      "midi": 49,
      "hit": false,
      "t": 344581.9550000075,
      "d": 95.48572916671401,
      "v": 97
    },
    {
      "midi": 76,
      "hit": false,
      "t": 344590.6355208409,
      "d": 52.08312500000466,
      "v": 105
    },
    {
      "midi": 69,
      "hit": false,
      "t": 344590.6355208409,
      "d": 60.76364583335817,
      "v": 101
    },
    {
      "midi": 59,
      "hit": false,
      "t": 344781.6069791743,
      "d": 86.8052083334187,
      "v": 83
    },
    {
      "midi": 49,
      "hit": false,
      "t": 344781.6069791743,
      "d": 95.48572916677222,
      "v": 83
    },
    {
      "midi": 58,
      "hit": false,
      "t": 344790.28750000766,
      "d": 60.763645833416376,
      "v": 73
    },
    {
      "midi": 62,
      "hit": false,
      "t": 344798.968020841,
      "d": 52.083125000062864,
      "v": 68
    },
    {
      "midi": 64,
      "hit": false,
      "t": 344798.968020841,
      "d": 86.8052083334187,
      "v": 68
    },
    {
      "midi": 69,
      "hit": false,
      "t": 344807.64854167437,
      "d": 60.76364583335817,
      "v": 103
    },
    {
      "midi": 81,
      "hit": false,
      "t": 344807.64854167437,
      "d": 60.76364583335817,
      "v": 92
    },
    {
      "midi": 76,
      "hit": false,
      "t": 344816.3290625077,
      "d": 34.72208333335584,
      "v": 107
    },
    {
      "midi": 59,
      "hit": false,
      "t": 344981.2589583411,
      "d": 243.05458333337447,
      "v": 90
    },
    {
      "midi": 50,
      "hit": false,
      "t": 344989.93947917444,
      "d": 225.69354166666744,
      "v": 95
    },
    {
      "midi": 64,
      "hit": false,
      "t": 344989.93947917444,
      "d": 225.69354166666744,
      "v": 83
    },
    {
      "midi": 69,
      "hit": false,
      "t": 344998.6200000078,
      "d": 199.65197916666511,
      "v": 105
    },
    {
      "midi": 81,
      "hit": false,
      "t": 344998.6200000078,
      "d": 199.65197916666511,
      "v": 99
    },
    {
      "midi": 76,
      "hit": false,
      "t": 345007.30052084115,
      "d": 208.33249999996042,
      "v": 109
    },
    {
      "midi": 59,
      "hit": false,
      "t": 345285.0771875078,
      "d": 104.16625000012573,
      "v": 92
    },
    {
      "midi": 64,
      "hit": false,
      "t": 345293.7577083412,
      "d": 95.48572916677222,
      "v": 82
    },
    {
      "midi": 69,
      "hit": false,
      "t": 345302.4382291745,
      "d": 52.083125000062864,
      "v": 99
    },
    {
      "midi": 50,
      "hit": false,
      "t": 345302.4382291745,
      "d": 69.44416666676989,
      "v": 92
    },
    {
      "midi": 76,
      "hit": false,
      "t": 345311.1187500079,
      "d": 34.72208333335584,
      "v": 101
    },
    {
      "midi": 81,
      "hit": false,
      "t": 345311.1187500079,
      "d": 52.083125000062864,
      "v": 90
    },
    {
      "midi": 59,
      "hit": false,
      "t": 345580.21489584126,
      "d": 277.7766666667885,
      "v": 32
    },
    {
      "midi": 50,
      "hit": false,
      "t": 345588.8954166746,
      "d": 251.73510416672798,
      "v": 75
    },
    {
      "midi": 76,
      "hit": false,
      "t": 345588.8954166746,
      "d": 269.096145833435,
      "v": 101
    },
    {
      "midi": 64,
      "hit": false,
      "t": 345597.57593750797,
      "d": 251.73510416672798,
      "v": 50
    },
    {
      "midi": 69,
      "hit": false,
      "t": 345597.57593750797,
      "d": 260.4156250000815,
      "v": 92
    },
    {
      "midi": 81,
      "hit": false,
      "t": 345606.2564583413,
      "d": 243.05458333337447,
      "v": 92
    },
    {
      "midi": 69,
      "hit": false,
      "t": 345918.7552083414,
      "d": 243.05458333343267,
      "v": 97
    },
    {
      "midi": 81,
      "hit": false,
      "t": 345927.43572917476,
      "d": 225.69354166672565,
      "v": 99
    },
    {
      "midi": 64,
      "hit": false,
      "t": 345936.1162500081,
      "d": 225.69354166672565,
      "v": 78
    },
    {
      "midi": 76,
      "hit": false,
      "t": 345936.1162500081,
      "d": 243.05458333337447,
      "v": 101
    },
    {
      "midi": 50,
      "hit": false,
      "t": 345944.79677084147,
      "d": 208.33250000001863,
      "v": 92
    },
    {
      "midi": 59,
      "hit": false,
      "t": 345944.79677084147,
      "d": 217.01302083337214,
      "v": 87
    },
    {
      "midi": 64,
      "hit": false,
      "t": 346231.2539583415,
      "d": 104.16625000006752,
      "v": 83
    },
    {
      "midi": 59,
      "hit": false,
      "t": 346239.93447917484,
      "d": 104.16625000006752,
      "v": 89
    },
    {
      "midi": 76,
      "hit": false,
      "t": 346248.6150000082,
      "d": 43.40260416670935,
      "v": 101
    },
    {
      "midi": 69,
      "hit": false,
      "t": 346248.6150000082,
      "d": 52.083125000062864,
      "v": 90
    },
    {
      "midi": 81,
      "hit": false,
      "t": 346257.29552084155,
      "d": 43.40260416670935,
      "v": 93
    },
    {
      "midi": 50,
      "hit": false,
      "t": 346257.29552084155,
      "d": 60.76364583335817,
      "v": 81
    },
    {
      "midi": 50,
      "hit": false,
      "t": 346439.58645834157,
      "d": 86.8052083334187,
      "v": 77
    },
    {
      "midi": 59,
      "hit": false,
      "t": 346439.58645834157,
      "d": 121.52729166677454,
      "v": 74
    },
    {
      "midi": 76,
      "hit": false,
      "t": 346448.2669791749,
      "d": 60.76364583335817,
      "v": 105
    },
    {
      "midi": 64,
      "hit": false,
      "t": 346448.2669791749,
      "d": 138.88833333342336,
      "v": 71
    },
    {
      "midi": 69,
      "hit": false,
      "t": 346456.9475000083,
      "d": 60.76364583335817,
      "v": 101
    },
    {
      "midi": 81,
      "hit": false,
      "t": 346465.6280208416,
      "d": 43.402604166651145,
      "v": 92
    },
    {
      "midi": 64,
      "hit": false,
      "t": 346656.599479175,
      "d": 190.9714583333698,
      "v": 52
    },
    {
      "midi": 81,
      "hit": false,
      "t": 346656.599479175,
      "d": 199.65197916672332,
      "v": 90
    },
    {
      "midi": 69,
      "hit": false,
      "t": 346665.28000000835,
      "d": 199.65197916672332,
      "v": 99
    },
    {
      "midi": 76,
      "hit": false,
      "t": 346665.28000000835,
      "d": 208.33250000007683,
      "v": 103
    },
    {
      "midi": 59,
      "hit": false,
      "t": 346673.9605208417,
      "d": 208.33250000007683,
      "v": 72
    },
    {
      "midi": 64,
      "hit": false,
      "t": 346969.09822917514,
      "d": 104.16625000012573,
      "v": 89
    },
    {
      "midi": 59,
      "hit": false,
      "t": 346977.7787500085,
      "d": 69.44416666671168,
      "v": 87
    },
    {
      "midi": 54,
      "hit": false,
      "t": 346977.7787500085,
      "d": 78.12468750006519,
      "v": 101
    },
    {
      "midi": 76,
      "hit": false,
      "t": 346986.45927084185,
      "d": 60.76364583335817,
      "v": 103
    },
    {
      "midi": 69,
      "hit": false,
      "t": 346995.1397916752,
      "d": 52.08312500000466,
      "v": 105
    },
    {
      "midi": 81,
      "hit": false,
      "t": 346995.1397916752,
      "d": 69.44416666671168,
      "v": 95
    },
    {
      "midi": 76,
      "hit": false,
      "t": 347255.5554166753,
      "d": 260.4156250001397,
      "v": 105
    },
    {
      "midi": 69,
      "hit": false,
      "t": 347264.23593750864,
      "d": 243.05458333343267,
      "v": 99
    },
    {
      "midi": 54,
      "hit": false,
      "t": 347272.916458342,
      "d": 225.69354166672565,
      "v": 93
    },
    {
      "midi": 81,
      "hit": false,
      "t": 347272.916458342,
      "d": 225.69354166672565,
      "v": 95
    },
    {
      "midi": 59,
      "hit": false,
      "t": 347281.59697917535,
      "d": 208.33250000001863,
      "v": 74
    },
    {
      "midi": 64,
      "hit": false,
      "t": 347281.59697917535,
      "d": 234.37406250007916,
      "v": 89
    },
    {
      "midi": 54,
      "hit": false,
      "t": 347602.7762500088,
      "d": 104.16625000006752,
      "v": 101
    },
    {
      "midi": 64,
      "hit": false,
      "t": 347602.7762500088,
      "d": 112.84677083342103,
      "v": 87
    },
    {
      "midi": 69,
      "hit": false,
      "t": 347611.45677084214,
      "d": 69.44416666671168,
      "v": 93
    },
    {
      "midi": 59,
      "hit": false,
      "t": 347611.45677084214,
      "d": 95.48572916671401,
      "v": 99
    },
    {
      "midi": 76,
      "hit": false,
      "t": 347620.1372916755,
      "d": 34.72208333335584,
      "v": 107
    },
    {
      "midi": 81,
      "hit": false,
      "t": 347620.1372916755,
      "d": 78.12468750000698,
      "v": 99
    },
    {
      "midi": 64,
      "hit": false,
      "t": 347889.23343750887,
      "d": 112.84677083342103,
      "v": 67
    },
    {
      "midi": 76,
      "hit": false,
      "t": 347897.9139583422,
      "d": 52.083125000062864,
      "v": 101
    },
    {
      "midi": 81,
      "hit": false,
      "t": 347897.9139583422,
      "d": 60.763645833416376,
      "v": 87
    },
    {
      "midi": 59,
      "hit": false,
      "t": 347906.5944791756,
      "d": 69.44416666671168,
      "v": 63
    },
    {
      "midi": 69,
      "hit": false,
      "t": 347915.2750000089,
      "d": 43.40260416670935,
      "v": 97
    },
    {
      "midi": 54,
      "hit": false,
      "t": 347915.2750000089,
      "d": 69.44416666671168,
      "v": 85
    },
    {
      "midi": 54,
      "hit": false,
      "t": 348097.56593750895,
      "d": 138.88833333342336,
      "v": 81
    },
    {
      "midi": 69,
      "hit": false,
      "t": 348097.56593750895,
      "d": 199.65197916672332,
      "v": 87
    },
    {
      "midi": 76,
      "hit": false,
      "t": 348106.2464583423,
      "d": 173.610416666721,
      "v": 99
    },
    {
      "midi": 64,
      "hit": false,
      "t": 348114.92697917565,
      "d": 130.20781250006985,
      "v": 69
    },
    {
      "midi": 81,
      "hit": false,
      "t": 348114.92697917565,
      "d": 147.56885416671867,
      "v": 89
    },
    {
      "midi": 59,
      "hit": false,
      "t": 348123.607500009,
      "d": 104.16625000000931,
      "v": 76
    },
    {
      "midi": 64,
      "hit": false,
      "t": 348418.7452083423,
      "d": 182.2909375001327,
      "v": 87
    },
    {
      "midi": 69,
      "hit": false,
      "t": 348427.4257291757,
      "d": 199.65197916678153,
      "v": 105
    },
    {
      "midi": 81,
      "hit": false,
      "t": 348436.10625000903,
      "d": 173.6104166667792,
      "v": 99
    },
    {
      "midi": 76,
      "hit": false,
      "t": 348436.10625000903,
      "d": 199.65197916678153,
      "v": 111
    },
    {
      "midi": 54,
      "hit": false,
      "t": 348444.7867708424,
      "d": 147.56885416671867,
      "v": 97
    },
    {
      "midi": 59,
      "hit": false,
      "t": 348453.46729167574,
      "d": 130.20781250001164,
      "v": 87
    },
    {
      "midi": 59,
      "hit": false,
      "t": 348731.2439583425,
      "d": 164.92989583336748,
      "v": 99
    },
    {
      "midi": 64,
      "hit": false,
      "t": 348731.2439583425,
      "d": 182.2909375000745,
      "v": 90
    },
    {
      "midi": 54,
      "hit": false,
      "t": 348739.9244791758,
      "d": 164.92989583336748,
      "v": 93
    },
    {
      "midi": 69,
      "hit": false,
      "t": 348748.6050000092,
      "d": 164.92989583336748,
      "v": 113
    },
    {
      "midi": 81,
      "hit": false,
      "t": 348748.6050000092,
      "d": 173.610416666721,
      "v": 109
    },
    {
      "midi": 76,
      "hit": false,
      "t": 348757.28552084253,
      "d": 173.610416666721,
      "v": 117
    },
    {
      "midi": 59,
      "hit": false,
      "t": 349061.10375000926,
      "d": 86.8052083334187,
      "v": 77
    },
    {
      "midi": 81,
      "hit": false,
      "t": 349069.7842708426,
      "d": 60.763645833416376,
      "v": 99
    },
    {
      "midi": 54,
      "hit": false,
      "t": 349069.7842708426,
      "d": 86.8052083334187,
      "v": 87
    },
    {
      "midi": 69,
      "hit": false,
      "t": 349078.464791676,
      "d": 43.40260416670935,
      "v": 107
    },
    {
      "midi": 64,
      "hit": false,
      "t": 349078.464791676,
      "d": 69.44416666671168,
      "v": 78
    },
    {
      "midi": 76,
      "hit": false,
      "t": 349087.1453125093,
      "d": 26.04156250000233,
      "v": 113
    },
    {
      "midi": 59,
      "hit": false,
      "t": 349338.88041667605,
      "d": 182.2909375000745,
      "v": 75
    },
    {
      "midi": 54,
      "hit": false,
      "t": 349347.5609375094,
      "d": 173.610416666721,
      "v": 93
    },
    {
      "midi": 64,
      "hit": false,
      "t": 349356.24145834276,
      "d": 164.92989583336748,
      "v": 82
    },
    {
      "midi": 69,
      "hit": false,
      "t": 349356.24145834276,
      "d": 199.65197916672332,
      "v": 111
    },
    {
      "midi": 81,
      "hit": false,
      "t": 349364.9219791761,
      "d": 156.24937500001397,
      "v": 95
    },
    {
      "midi": 76,
      "hit": false,
      "t": 349373.60250000947,
      "d": 199.65197916666511,
      "v": 113
    },
    {
      "midi": 59,
      "hit": false,
      "t": 349677.42072917614,
      "d": 43.40260416670935,
      "v": 103
    },
    {
      "midi": 64,
      "hit": false,
      "t": 349677.42072917614,
      "d": 43.40260416670935,
      "v": 97
    },
    {
      "midi": 54,
      "hit": false,
      "t": 349686.1012500095,
      "d": 43.40260416670935,
      "v": 109
    },
    {
      "midi": 69,
      "hit": false,
      "t": 349694.78177084285,
      "d": 34.72208333335584,
      "v": 113
    },
    {
      "midi": 81,
      "hit": false,
      "t": 349694.78177084285,
      "d": 34.72208333335584,
      "v": 111
    },
    {
      "midi": 76,
      "hit": false,
      "t": 349703.4622916762,
      "d": 17.361041666648816,
      "v": 123
    },
    {
      "midi": 49,
      "hit": false,
      "t": 349998.6000000095,
      "d": 182.2909375000163,
      "v": 107
    },
    {
      "midi": 57,
      "hit": false,
      "t": 349998.6000000095,
      "d": 225.69354166666744,
      "v": 103
    },
    {
      "midi": 83,
      "hit": false,
      "t": 349998.6000000095,
      "d": 234.37406250002095,
      "v": 103
    },
    {
      "midi": 76,
      "hit": false,
      "t": 349998.6000000095,
      "d": 243.05458333337447,
      "v": 107
    },
    {
      "midi": 71,
      "hit": false,
      "t": 350007.2805208429,
      "d": 225.69354166666744,
      "v": 111
    },
    {
      "midi": 57,
      "hit": false,
      "t": 350302.41822917626,
      "d": 95.4857291666558,
      "v": 95
    },
    {
      "midi": 49,
      "hit": false,
      "t": 350311.0987500096,
      "d": 86.80520833330229,
      "v": 90
    },
    {
      "midi": 76,
      "hit": false,
      "t": 350328.45979167626,
      "d": 52.08312500000466,
      "v": 97
    },
    {
      "midi": 71,
      "hit": false,
      "t": 350328.45979167626,
      "d": 69.44416666665347,
      "v": 90
    },
    {
      "midi": 81,
      "hit": false,
      "t": 350337.1403125096,
      "d": 43.402604166651145,
      "v": 90
    },
    {
      "midi": 49,
      "hit": false,
      "t": 350649.6390625096,
      "d": 173.610416666721,
      "v": 89
    },
    {
      "midi": 83,
      "hit": false,
      "t": 350649.6390625096,
      "d": 217.01302083337214,
      "v": 85
    },
    {
      "midi": 57,
      "hit": false,
      "t": 350658.31958334293,
      "d": 208.33250000001863,
      "v": 93
    },
    {
      "midi": 71,
      "hit": false,
      "t": 350667.0001041763,
      "d": 217.01302083331393,
      "v": 101
    },
    {
      "midi": 76,
      "hit": false,
      "t": 350667.0001041763,
      "d": 217.01302083331393,
      "v": 105
    },
    {
      "midi": 49,
      "hit": false,
      "t": 350970.81833334296,
      "d": 95.48572916671401,
      "v": 89
    },
    {
      "midi": 71,
      "hit": false,
      "t": 350979.4988541763,
      "d": 43.40260416670935,
      "v": 78
    },
    {
      "midi": 57,
      "hit": false,
      "t": 350979.4988541763,
      "d": 69.44416666671168,
      "v": 83
    },
    {
      "midi": 76,
      "hit": false,
      "t": 350988.17937500967,
      "d": 26.04156250000233,
      "v": 78
    },
    {
      "midi": 81,
      "hit": false,
      "t": 350988.17937500967,
      "d": 34.72208333335584,
      "v": 85
    },
    {
      "midi": 49,
      "hit": false,
      "t": 351283.317083343,
      "d": 121.52729166677454,
      "v": 97
    },
    {
      "midi": 76,
      "hit": false,
      "t": 351291.99760417634,
      "d": 52.083125000062864,
      "v": 105
    },
    {
      "midi": 57,
      "hit": false,
      "t": 351291.99760417634,
      "d": 86.8052083334187,
      "v": 95
    },
    {
      "midi": 81,
      "hit": false,
      "t": 351300.6781250097,
      "d": 60.76364583335817,
      "v": 97
    },
    {
      "midi": 71,
      "hit": false,
      "t": 351309.35864584305,
      "d": 60.76364583335817,
      "v": 92
    },
    {
      "midi": 49,
      "hit": false,
      "t": 351491.6495833431,
      "d": 121.52729166677454,
      "v": 97
    },
    {
      "midi": 57,
      "hit": false,
      "t": 351500.3301041765,
      "d": 95.48572916677222,
      "v": 80
    },
    {
      "midi": 71,
      "hit": false,
      "t": 351509.01062500983,
      "d": 69.44416666671168,
      "v": 81
    },
    {
      "midi": 81,
      "hit": false,
      "t": 351517.6911458432,
      "d": 69.44416666671168,
      "v": 69
    },
    {
      "midi": 83,
      "hit": false,
      "t": 351526.37166667654,
      "d": 26.04156250000233,
      "v": 68
    },
    {
      "midi": 76,
      "hit": false,
      "t": 351526.37166667654,
      "d": 34.72208333335584,
      "v": 89
    },
    {
      "midi": 57,
      "hit": false,
      "t": 351682.62104167655,
      "d": 156.24937500007218,
      "v": 80
    },
    {
      "midi": 83,
      "hit": false,
      "t": 351682.62104167655,
      "d": 199.65197916678153,
      "v": 89
    },
    {
      "midi": 50,
      "hit": false,
      "t": 351691.3015625099,
      "d": 147.56885416671867,
      "v": 83
    },
    {
      "midi": 59,
      "hit": false,
      "t": 351699.98208334326,
      "d": 147.56885416671867,
      "v": 76
    },
    {
      "midi": 71,
      "hit": false,
      "t": 351699.98208334326,
      "d": 182.2909375000745,
      "v": 99
    },
    {
      "midi": 76,
      "hit": false,
      "t": 351708.6626041766,
      "d": 190.9714583333698,
      "v": 105
    },
    {
      "midi": 59,
      "hit": false,
      "t": 351986.43927084334,
      "d": 69.44416666676989,
      "v": 75
    },
    {
      "midi": 50,
      "hit": false,
      "t": 351995.1197916767,
      "d": 60.763645833416376,
      "v": 81
    },
    {
      "midi": 57,
      "hit": false,
      "t": 351995.1197916767,
      "d": 60.763645833416376,
      "v": 78
    },
    {
      "midi": 71,
      "hit": false,
      "t": 352003.80031251005,
      "d": 69.44416666671168,
      "v": 83
    },
    {
      "midi": 76,
      "hit": false,
      "t": 352012.4808333434,
      "d": 34.72208333335584,
      "v": 87
    },
    {
      "midi": 81,
      "hit": false,
      "t": 352021.16135417676,
      "d": 34.72208333335584,
      "v": 85
    },
    {
      "midi": 81,
      "hit": false,
      "t": 352290.2575000101,
      "d": 243.05458333343267,
      "v": 99
    },
    {
      "midi": 57,
      "hit": false,
      "t": 352298.93802084343,
      "d": 199.65197916672332,
      "v": 97
    },
    {
      "midi": 71,
      "hit": false,
      "t": 352298.93802084343,
      "d": 234.37406250007916,
      "v": 99
    },
    {
      "midi": 59,
      "hit": false,
      "t": 352307.6185416768,
      "d": 190.9714583333698,
      "v": 87
    },
    {
      "midi": 50,
      "hit": false,
      "t": 352316.29906251014,
      "d": 173.6104166666628,
      "v": 92
    },
    {
      "midi": 76,
      "hit": false,
      "t": 352316.29906251014,
      "d": 225.69354166672565,
      "v": 97
    },
    {
      "midi": 50,
      "hit": false,
      "t": 352637.4783333435,
      "d": 173.610416666721,
      "v": 92
    },
    {
      "midi": 59,
      "hit": false,
      "t": 352646.1588541769,
      "d": 190.9714583333698,
      "v": 83
    },
    {
      "midi": 57,
      "hit": false,
      "t": 352646.1588541769,
      "d": 199.65197916672332,
      "v": 97
    },
    {
      "midi": 83,
      "hit": false,
      "t": 352654.8393750102,
      "d": 199.65197916672332,
      "v": 107
    },
    {
      "midi": 71,
      "hit": false,
      "t": 352663.5198958436,
      "d": 199.65197916672332,
      "v": 97
    },
    {
      "midi": 76,
      "hit": false,
      "t": 352663.5198958436,
      "d": 217.01302083337214,
      "v": 99
    },
    {
      "midi": 57,
      "hit": false,
      "t": 352949.9770833436,
      "d": 130.20781250006985,
      "v": 90
    },
    {
      "midi": 59,
      "hit": false,
      "t": 352958.65760417696,
      "d": 112.84677083336283,
      "v": 90
    },
    {
      "midi": 50,
      "hit": false,
      "t": 352958.65760417696,
      "d": 130.20781250006985,
      "v": 93
    },
    {
      "midi": 81,
      "hit": false,
      "t": 352967.3381250103,
      "d": 69.44416666665347,
      "v": 95
    },
    {
      "midi": 76,
      "hit": false,
      "t": 352976.01864584367,
      "d": 43.402604166651145,
      "v": 97
    },
    {
      "midi": 71,
      "hit": false,
      "t": 352976.01864584367,
      "d": 60.76364583329996,
      "v": 85
    },
    {
      "midi": 57,
      "hit": false,
      "t": 353140.94854167703,
      "d": 78.1246875001234,
      "v": 78
    },
    {
      "midi": 59,
      "hit": false,
      "t": 353149.6290625104,
      "d": 60.763645833416376,
      "v": 66
    },
    {
      "midi": 50,
      "hit": false,
      "t": 353158.30958334374,
      "d": 69.44416666676989,
      "v": 66
    },
    {
      "midi": 81,
      "hit": false,
      "t": 353166.9901041771,
      "d": 52.083125000062864,
      "v": 87
    },
    {
      "midi": 71,
      "hit": false,
      "t": 353166.9901041771,
      "d": 60.763645833416376,
      "v": 81
    },
    {
      "midi": 76,
      "hit": false,
      "t": 353175.67062501045,
      "d": 43.40260416670935,
      "v": 89
    },
    {
      "midi": 71,
      "hit": false,
      "t": 353357.9615625105,
      "d": 208.33250000007683,
      "v": 101
    },
    {
      "midi": 83,
      "hit": false,
      "t": 353366.6420833439,
      "d": 173.6104166666628,
      "v": 99
    },
    {
      "midi": 57,
      "hit": false,
      "t": 353366.6420833439,
      "d": 190.9714583333698,
      "v": 85
    },
    {
      "midi": 47,
      "hit": false,
      "t": 353375.3226041772,
      "d": 173.6104166666628,
      "v": 107
    },
    {
      "midi": 54,
      "hit": false,
      "t": 353384.0031250106,
      "d": 138.88833333330695,
      "v": 95
    },
    {
      "midi": 76,
      "hit": false,
      "t": 353384.0031250106,
      "d": 190.9714583333698,
      "v": 109
    },
    {
      "midi": 47,
      "hit": false,
      "t": 353679.14083334396,
      "d": 86.8052083334187,
      "v": 86
    },
    {
      "midi": 54,
      "hit": false,
      "t": 353679.14083334396,
      "d": 86.8052083334187,
      "v": 101
    },
    {
      "midi": 57,
      "hit": false,
      "t": 353687.8213541773,
      "d": 78.12468750006519,
      "v": 82
    },
    {
      "midi": 76,
      "hit": false,
      "t": 353696.50187501067,
      "d": 52.08312500000466,
      "v": 99
    },
    {
      "midi": 71,
      "hit": false,
      "t": 353696.50187501067,
      "d": 60.76364583335817,
      "v": 87
    },
    {
      "midi": 81,
      "hit": false,
      "t": 353705.182395844,
      "d": 60.76364583335817,
      "v": 101
    },
    {
      "midi": 47,
      "hit": false,
      "t": 353982.9590625107,
      "d": 199.65197916672332,
      "v": 86
    },
    {
      "midi": 54,
      "hit": false,
      "t": 353982.9590625107,
      "d": 243.05458333337447,
      "v": 101
    },
    {
      "midi": 57,
      "hit": false,
      "t": 353991.63958334405,
      "d": 234.37406250002095,
      "v": 60
    },
    {
      "midi": 83,
      "hit": false,
      "t": 354000.3201041774,
      "d": 243.05458333331626,
      "v": 107
    },
    {
      "midi": 71,
      "hit": false,
      "t": 354009.00062501075,
      "d": 234.37406249996275,
      "v": 103
    },
    {
      "midi": 76,
      "hit": false,
      "t": 354009.00062501075,
      "d": 234.37406249996275,
      "v": 109
    },
    {
      "midi": 54,
      "hit": false,
      "t": 354330.1798958441,
      "d": 104.16625000006752,
      "v": 99
    },
    {
      "midi": 81,
      "hit": false,
      "t": 354338.86041667743,
      "d": 78.12468750006519,
      "v": 93
    },
    {
      "midi": 47,
      "hit": false,
      "t": 354347.5409375108,
      "d": 104.16625000000931,
      "v": 93
    },
    {
      "midi": 57,
      "hit": false,
      "t": 354347.5409375108,
      "d": 104.16625000000931,
      "v": 74
    },
    {
      "midi": 76,
      "hit": false,
      "t": 354356.22145834414,
      "d": 43.40260416670935,
      "v": 95
    },
    {
      "midi": 71,
      "hit": false,
      "t": 354364.9019791775,
      "d": 52.08312500000466,
      "v": 90
    },
    {
      "midi": 54,
      "hit": false,
      "t": 354599.27604167745,
      "d": 78.12468750006519,
      "v": 92
    },
    {
      "midi": 57,
      "hit": false,
      "t": 354599.27604167745,
      "d": 104.16625000006752,
      "v": 82
    },
    {
      "midi": 81,
      "hit": false,
      "t": 354607.9565625108,
      "d": 60.76364583335817,
      "v": 105
    },
    {
      "midi": 76,
      "hit": false,
      "t": 354616.63708334416,
      "d": 34.72208333335584,
      "v": 107
    },
    {
      "midi": 47,
      "hit": false,
      "t": 354616.63708334416,
      "d": 78.12468750000698,
      "v": 86
    },
    {
      "midi": 71,
      "hit": false,
      "t": 354625.3176041775,
      "d": 43.402604166651145,
      "v": 90
    },
    {
      "midi": 57,
      "hit": false,
      "t": 354824.9695833442,
      "d": 60.763645833416376,
      "v": 78
    },
    {
      "midi": 54,
      "hit": false,
      "t": 354833.65010417753,
      "d": 60.763645833416376,
      "v": 103
    },
    {
      "midi": 47,
      "hit": false,
      "t": 354842.3306250109,
      "d": 43.40260416670935,
      "v": 83
    },
    {
      "midi": 81,
      "hit": false,
      "t": 354842.3306250109,
      "d": 60.763645833416376,
      "v": 81
    },
    {
      "midi": 76,
      "hit": false,
      "t": 354851.01114584424,
      "d": 43.40260416670935,
      "v": 85
    },
    {
      "midi": 71,
      "hit": false,
      "t": 354851.01114584424,
      "d": 52.083125000062864,
      "v": 74
    },
    {
      "midi": 83,
      "hit": false,
      "t": 355033.3020833443,
      "d": 217.01302083337214,
      "v": 105
    },
    {
      "midi": 71,
      "hit": false,
      "t": 355033.3020833443,
      "d": 225.69354166672565,
      "v": 97
    },
    {
      "midi": 42,
      "hit": false,
      "t": 355041.98260417767,
      "d": 190.9714583333698,
      "v": 99
    },
    {
      "midi": 76,
      "hit": false,
      "t": 355050.663125011,
      "d": 217.01302083337214,
      "v": 113
    },
    {
      "midi": 54,
      "hit": false,
      "t": 355232.95406251104,
      "d": 60.76364583335817,
      "v": 61
    },
    {
      "midi": 81,
      "hit": false,
      "t": 355354.48135417775,
      "d": 43.40260416670935,
      "v": 89
    },
    {
      "midi": 76,
      "hit": false,
      "t": 355363.1618750111,
      "d": 26.04156250000233,
      "v": 95
    },
    {
      "midi": 71,
      "hit": false,
      "t": 355363.1618750111,
      "d": 52.08312500000466,
      "v": 83
    },
    {
      "midi": 54,
      "hit": false,
      "t": 355571.4943750111,
      "d": 34.72208333335584,
      "v": 51
    },
    {
      "midi": 71,
      "hit": false,
      "t": 355632.2580208445,
      "d": 225.69354166672565,
      "v": 87
    },
    {
      "midi": 83,
      "hit": false,
      "t": 355640.93854167784,
      "d": 182.2909375000163,
      "v": 93
    },
    {
      "midi": 81,
      "hit": false,
      "t": 355649.6190625112,
      "d": 112.84677083330462,
      "v": 103
    },
    {
      "midi": 76,
      "hit": false,
      "t": 355649.6190625112,
      "d": 234.37406250002095,
      "v": 105
    },
    {
      "midi": 54,
      "hit": false,
      "t": 355875.31260417786,
      "d": 43.40260416670935,
      "v": 99
    },
    {
      "midi": 81,
      "hit": false,
      "t": 355962.1178125112,
      "d": 52.083125000062864,
      "v": 97
    },
    {
      "midi": 71,
      "hit": false,
      "t": 355970.7983333446,
      "d": 52.083125000062864,
      "v": 92
    },
    {
      "midi": 76,
      "hit": false,
      "t": 355979.4788541779,
      "d": 26.04156250000233,
      "v": 103
    },
    {
      "midi": 54,
      "hit": false,
      "t": 356066.2840625113,
      "d": 86.8052083333605,
      "v": 126
    },
    {
      "midi": 42,
      "hit": false,
      "t": 356291.97760417796,
      "d": 138.88833333342336,
      "v": 107
    },
    {
      "midi": 71,
      "hit": false,
      "t": 356300.6581250113,
      "d": 173.6104166667792,
      "v": 97
    },
    {
      "midi": 83,
      "hit": false,
      "t": 356309.33864584466,
      "d": 156.24937500007218,
      "v": 93
    },
    {
      "midi": 76,
      "hit": false,
      "t": 356309.33864584466,
      "d": 164.9298958334257,
      "v": 111
    },
    {
      "midi": 81,
      "hit": false,
      "t": 356318.019166678,
      "d": 86.8052083333605,
      "v": 111
    },
    {
      "midi": 76,
      "hit": false,
      "t": 356500.3101041781,
      "d": 52.08312500000466,
      "v": 71
    },
    {
      "midi": 81,
      "hit": false,
      "t": 356500.3101041781,
      "d": 60.76364583335817,
      "v": 97
    },
    {
      "midi": 71,
      "hit": false,
      "t": 356508.99062501144,
      "d": 43.402604166651145,
      "v": 51
    },
    {
      "midi": 54,
      "hit": false,
      "t": 356526.3516666781,
      "d": 26.04156250000233,
      "v": 115
    },
    {
      "midi": 49,
      "hit": false,
      "t": 356673.92052084475,
      "d": 86.8052083333605,
      "v": 89
    },
    {
      "midi": 69,
      "hit": false,
      "t": 356769.40625001147,
      "d": 69.44416666671168,
      "v": 85
    },
    {
      "midi": 64,
      "hit": false,
      "t": 356778.0867708448,
      "d": 52.08312500000466,
      "v": 95
    },
    {
      "midi": 59,
      "hit": false,
      "t": 356778.0867708448,
      "d": 60.76364583335817,
      "v": 92
    },
    {
      "midi": 49,
      "hit": false,
      "t": 357029.8218750115,
      "d": 69.44416666665347,
      "v": 66
    },
    {
      "midi": 59,
      "hit": false,
      "t": 357116.6270833448,
      "d": 182.2909375000163,
      "v": 83
    },
    {
      "midi": 64,
      "hit": false,
      "t": 357116.6270833448,
      "d": 190.9714583333698,
      "v": 86
    },
    {
      "midi": 69,
      "hit": false,
      "t": 357125.30760417815,
      "d": 164.92989583330927,
      "v": 68
    },
    {
      "midi": 49,
      "hit": false,
      "t": 357333.64010417816,
      "d": 69.44416666665347,
      "v": 69
    },
    {
      "midi": 64,
      "hit": false,
      "t": 357420.44531251147,
      "d": 60.76364583335817,
      "v": 76
    },
    {
      "midi": 59,
      "hit": false,
      "t": 357420.44531251147,
      "d": 69.44416666671168,
      "v": 75
    },
    {
      "midi": 69,
      "hit": false,
      "t": 357429.1258333448,
      "d": 43.402604166651145,
      "v": 60
    },
    {
      "midi": 49,
      "hit": false,
      "t": 357663.49989584484,
      "d": 43.402604166651145,
      "v": 68
    },
    {
      "midi": 64,
      "hit": false,
      "t": 357732.9440625115,
      "d": 52.08312500000466,
      "v": 89
    },
    {
      "midi": 69,
      "hit": false,
      "t": 357732.9440625115,
      "d": 60.76364583335817,
      "v": 81
    },
    {
      "midi": 59,
      "hit": false,
      "t": 357741.62458334485,
      "d": 52.08312500000466,
      "v": 85
    },
    {
      "midi": 59,
      "hit": false,
      "t": 357958.63760417816,
      "d": 95.48572916671401,
      "v": 99
    },
    {
      "midi": 64,
      "hit": false,
      "t": 357967.3181250115,
      "d": 95.48572916671401,
      "v": 109
    },
    {
      "midi": 69,
      "hit": false,
      "t": 357967.3181250115,
      "d": 95.48572916671401,
      "v": 99
    },
    {
      "midi": 69,
      "hit": false,
      "t": 358158.2895833449,
      "d": 104.16625000000931,
      "v": 92
    },
    {
      "midi": 64,
      "hit": false,
      "t": 358158.2895833449,
      "d": 112.84677083336283,
      "v": 101
    },
    {
      "midi": 59,
      "hit": false,
      "t": 358166.97010417824,
      "d": 95.4857291666558,
      "v": 93
    },
    {
      "midi": 50,
      "hit": false,
      "t": 358357.9415625116,
      "d": 69.44416666665347,
      "v": 76
    },
    {
      "midi": 64,
      "hit": false,
      "t": 358462.1078125116,
      "d": 52.083125000062864,
      "v": 86
    },
    {
      "midi": 69,
      "hit": false,
      "t": 358470.788333345,
      "d": 43.40260416670935,
      "v": 70
    },
    {
      "midi": 59,
      "hit": false,
      "t": 358479.4688541783,
      "d": 34.72208333335584,
      "v": 71
    },
    {
      "midi": 50,
      "hit": false,
      "t": 358705.162395845,
      "d": 60.76364583335817,
      "v": 92
    },
    {
      "midi": 69,
      "hit": false,
      "t": 358774.6065625117,
      "d": 173.6104166666628,
      "v": 92
    },
    {
      "midi": 64,
      "hit": false,
      "t": 358774.6065625117,
      "d": 182.2909375000163,
      "v": 92
    },
    {
      "midi": 59,
      "hit": false,
      "t": 358783.28708334506,
      "d": 164.92989583330927,
      "v": 92
    },
    {
      "midi": 50,
      "hit": false,
      "t": 358991.6195833451,
      "d": 43.402604166651145,
      "v": 89
    },
    {
      "midi": 69,
      "hit": false,
      "t": 359087.10531251173,
      "d": 69.44416666671168,
      "v": 88
    },
    {
      "midi": 64,
      "hit": false,
      "t": 359087.10531251173,
      "d": 78.12468750006519,
      "v": 88
    },
    {
      "midi": 59,
      "hit": false,
      "t": 359095.7858333451,
      "d": 69.44416666671168,
      "v": 88
    },
    {
      "midi": 50,
      "hit": false,
      "t": 359304.1183333451,
      "d": 43.402604166651145,
      "v": 85
    },
    {
      "midi": 64,
      "hit": false,
      "t": 359382.2430208451,
      "d": 69.44416666671168,
      "v": 84
    },
    {
      "midi": 69,
      "hit": false,
      "t": 359390.92354167846,
      "d": 69.44416666671168,
      "v": 84
    },
    {
      "midi": 59,
      "hit": false,
      "t": 359399.6040625118,
      "d": 52.08312500000466,
      "v": 84
    },
    {
      "midi": 64,
      "hit": false,
      "t": 359607.93656251184,
      "d": 121.52729166671634,
      "v": 82
    },
    {
      "midi": 69,
      "hit": false,
      "t": 359607.93656251184,
      "d": 121.52729166671634,
      "v": 82
    },
    {
      "midi": 59,
      "hit": false,
      "t": 359616.6170833452,
      "d": 86.8052083333605,
      "v": 82
    },
    {
      "midi": 64,
      "hit": false,
      "t": 359807.58854167856,
      "d": 112.84677083336283,
      "v": 79
    },
    {
      "midi": 59,
      "hit": false,
      "t": 359816.2690625119,
      "d": 86.8052083333605,
      "v": 79
    },
    {
      "midi": 69,
      "hit": false,
      "t": 359824.94958334527,
      "d": 78.12468750000698,
      "v": 79
    },
    {
      "midi": 47,
      "hit": false,
      "t": 360024.60156251193,
      "d": 112.84677083336283,
      "v": 77
    },
    {
      "midi": 64,
      "hit": false,
      "t": 360120.0872916786,
      "d": 78.12468750000698,
      "v": 76
    },
    {
      "midi": 69,
      "hit": false,
      "t": 360128.76781251194,
      "d": 69.44416666665347,
      "v": 76
    },
    {
      "midi": 59,
      "hit": false,
      "t": 360137.4483333453,
      "d": 43.402604166651145,
      "v": 76
    },
    {
      "midi": 47,
      "hit": false,
      "t": 360371.82239584526,
      "d": 78.12468750006519,
      "v": 73
    },
    {
      "midi": 64,
      "hit": false,
      "t": 360432.5860416786,
      "d": 199.65197916672332,
      "v": 72
    },
    {
      "midi": 59,
      "hit": false,
      "t": 360441.26656251197,
      "d": 173.6104166666628,
      "v": 72
    },
    {
      "midi": 69,
      "hit": false,
      "t": 360441.26656251197,
      "d": 182.2909375000163,
      "v": 72
    },
    {
      "midi": 47,
      "hit": false,
      "t": 360658.27958334534,
      "d": 86.8052083333605,
      "v": 70
    },
    {
      "midi": 64,
      "hit": false,
      "t": 360762.44583334535,
      "d": 52.08312500000466,
      "v": 68
    },
    {
      "midi": 59,
      "hit": false,
      "t": 360762.44583334535,
      "d": 60.76364583335817,
      "v": 68
    },
    {
      "midi": 69,
      "hit": false,
      "t": 360771.1263541787,
      "d": 52.08312500000466,
      "v": 68
    },
    {
      "midi": 47,
      "hit": false,
      "t": 360970.77833334537,
      "d": 60.76364583335817,
      "v": 66
    },
    {
      "midi": 64,
      "hit": false,
      "t": 361057.58354167873,
      "d": 156.24937500001397,
      "v": 65
    },
    {
      "midi": 59,
      "hit": false,
      "t": 361057.58354167873,
      "d": 164.92989583336748,
      "v": 65
    },
    {
      "midi": 69,
      "hit": false,
      "t": 361066.2640625121,
      "d": 156.24937500001397,
      "v": 65
    },
    {
      "midi": 64,
      "hit": false,
      "t": 361283.27708334546,
      "d": 121.52729166665813,
      "v": 62
    },
    {
      "midi": 69,
      "hit": false,
      "t": 361283.27708334546,
      "d": 130.20781250001164,
      "v": 62
    },
    {
      "midi": 59,
      "hit": false,
      "t": 361291.9576041788,
      "d": 130.20781250001164,
      "v": 62
    },
    {
      "midi": 64,
      "hit": false,
      "t": 361491.6095833455,
      "d": 121.52729166665813,
      "v": 60
    },
    {
      "midi": 69,
      "hit": false,
      "t": 361491.6095833455,
      "d": 138.88833333330695,
      "v": 60
    },
    {
      "midi": 59,
      "hit": false,
      "t": 361500.2901041788,
      "d": 130.20781249995343,
      "v": 60
    },
    {
      "midi": 42,
      "hit": false,
      "t": 361665.22000001214,
      "d": 104.16625000000931,
      "v": 58
    },
    {
      "midi": 61,
      "hit": false,
      "t": 361795.42781251215,
      "d": 78.12468750006519,
      "v": 56
    },
    {
      "midi": 64,
      "hit": false,
      "t": 361795.42781251215,
      "d": 78.12468750006519,
      "v": 56
    },
    {
      "midi": 69,
      "hit": false,
      "t": 361804.1083333455,
      "d": 69.44416666671168,
      "v": 56
    },
    {
      "midi": 59,
      "hit": false,
      "t": 361812.78885417886,
      "d": 52.08312500000466,
      "v": 56
    },
    {
      "midi": 42,
      "hit": false,
      "t": 362021.1213541789,
      "d": 69.44416666665347,
      "v": 54
    },
    {
      "midi": 59,
      "hit": false,
      "t": 362107.9265625122,
      "d": 199.65197916672332,
      "v": 53
    },
    {
      "midi": 69,
      "hit": false,
      "t": 362116.60708334553,
      "d": 147.56885416666046,
      "v": 52
    },
    {
      "midi": 61,
      "hit": false,
      "t": 362116.60708334553,
      "d": 173.6104166666628,
      "v": 52
    },
    {
      "midi": 64,
      "hit": false,
      "t": 362125.2876041789,
      "d": 173.6104166666628,
      "v": 52
    },
    {
      "midi": 42,
      "hit": false,
      "t": 362368.34218751226,
      "d": 34.72208333335584,
      "v": 50
    },
    {
      "midi": 61,
      "hit": false,
      "t": 362411.74479167897,
      "d": 69.44416666671168,
      "v": 49
    },
    {
      "midi": 64,
      "hit": false,
      "t": 362411.74479167897,
      "d": 86.8052083333605,
      "v": 49
    },
    {
      "midi": 59,
      "hit": false,
      "t": 362420.4253125123,
      "d": 95.4857291666558,
      "v": 49
    },
    {
      "midi": 69,
      "hit": false,
      "t": 362429.1058333457,
      "d": 69.44416666665347,
      "v": 49
    },
    {
      "midi": 42,
      "hit": false,
      "t": 362663.47989584564,
      "d": 60.76364583335817,
      "v": 46
    },
    {
      "midi": 64,
      "hit": false,
      "t": 362724.243541679,
      "d": 69.44416666676989,
      "v": 45
    },
    {
      "midi": 59,
      "hit": false,
      "t": 362732.92406251235,
      "d": 52.083125000062864,
      "v": 45
    },
    {
      "midi": 69,
      "hit": false,
      "t": 362732.92406251235,
      "d": 60.763645833416376,
      "v": 45
    },
    {
      "midi": 61,
      "hit": false,
      "t": 362741.6045833457,
      "d": 34.72208333335584,
      "v": 45
    },
    {
      "midi": 64,
      "hit": false,
      "t": 362949.9370833458,
      "d": 104.16625000006752,
      "v": 43
    },
    {
      "midi": 69,
      "hit": false,
      "t": 362949.9370833458,
      "d": 112.84677083342103,
      "v": 43
    },
    {
      "midi": 61,
      "hit": false,
      "t": 362958.61760417913,
      "d": 86.8052083333605,
      "v": 43
    },
    {
      "midi": 59,
      "hit": false,
      "t": 362967.2981250125,
      "d": 86.8052083333605,
      "v": 42
    },
    {
      "midi": 69,
      "hit": false,
      "t": 363132.22802084585,
      "d": 164.92989583336748,
      "v": 40
    },
    {
      "midi": 64,
      "hit": false,
      "t": 363140.9085416792,
      "d": 182.2909375000163,
      "v": 40
    },
    {
      "midi": 61,
      "hit": false,
      "t": 363149.58906251256,
      "d": 164.92989583330927,
      "v": 40
    },
    {
      "midi": 59,
      "hit": false,
      "t": 363149.58906251256,
      "d": 182.2909375000163,
      "v": 40
    },
    {
      "midi": 49,
      "hit": false,
      "t": 363340.56052084593,
      "d": 86.8052083333605,
      "v": 38
    },
    {
      "midi": 69,
      "hit": false,
      "t": 363436.04625001265,
      "d": 69.44416666671168,
      "v": 37
    },
    {
      "midi": 64,
      "hit": false,
      "t": 363444.726770846,
      "d": 52.08312500000466,
      "v": 37
    },
    {
      "midi": 59,
      "hit": false,
      "t": 363444.726770846,
      "d": 60.76364583335817,
      "v": 37
    },
    {
      "midi": 49,
      "hit": false,
      "t": 363696.46187501267,
      "d": 69.44416666665347,
      "v": 34
    },
    {
      "midi": 59,
      "hit": false,
      "t": 363783.26708334597,
      "d": 182.2909375000163,
      "v": 33
    },
    {
      "midi": 64,
      "hit": false,
      "t": 363783.26708334597,
      "d": 190.9714583333698,
      "v": 33
    },
    {
      "midi": 69,
      "hit": false,
      "t": 363791.9476041793,
      "d": 164.92989583330927,
      "v": 33
    },
    {
      "midi": 49,
      "hit": false,
      "t": 364000.28010417934,
      "d": 69.44416666665347,
      "v": 30
    },
    {
      "midi": 64,
      "hit": false,
      "t": 364087.08531251265,
      "d": 60.76364583335817,
      "v": 29
    },
    {
      "midi": 59,
      "hit": false,
      "t": 364087.08531251265,
      "d": 69.44416666671168,
      "v": 29
    },
    {
      "midi": 69,
      "hit": false,
      "t": 364095.765833346,
      "d": 43.402604166651145,
      "v": 29
    },
    {
      "midi": 49,
      "hit": false,
      "t": 364330.139895846,
      "d": 43.402604166651145,
      "v": 26
    },
    {
      "midi": 64,
      "hit": false,
      "t": 364399.5840625127,
      "d": 52.08312500000466,
      "v": 26
    },
    {
      "midi": 69,
      "hit": false,
      "t": 364399.5840625127,
      "d": 60.76364583335817,
      "v": 26
    },
    {
      "midi": 59,
      "hit": false,
      "t": 364408.264583346,
      "d": 52.08312500000466,
      "v": 26
    },
    {
      "midi": 59,
      "hit": false,
      "t": 364625.27760417934,
      "d": 95.48572916671401,
      "v": 23
    },
    {
      "midi": 64,
      "hit": false,
      "t": 364633.9581250127,
      "d": 95.48572916671401,
      "v": 23
    },
    {
      "midi": 69,
      "hit": false,
      "t": 364633.9581250127,
      "d": 95.48572916671401,
      "v": 23
    },
    {
      "midi": 69,
      "hit": false,
      "t": 364824.92958334606,
      "d": 104.16625000000931,
      "v": 21
    },
    {
      "midi": 64,
      "hit": false,
      "t": 364824.92958334606,
      "d": 112.84677083336283,
      "v": 21
    },
    {
      "midi": 59,
      "hit": false,
      "t": 364833.6101041794,
      "d": 95.4857291666558,
      "v": 21
    },
    {
      "midi": 50,
      "hit": false,
      "t": 365024.5815625128,
      "d": 69.44416666665347,
      "v": 18
    },
    {
      "midi": 64,
      "hit": false,
      "t": 365128.7478125128,
      "d": 52.083125000062864,
      "v": 17
    },
    {
      "midi": 69,
      "hit": false,
      "t": 365137.42833334615,
      "d": 43.40260416670935,
      "v": 17
    },
    {
      "midi": 59,
      "hit": false,
      "t": 365146.1088541795,
      "d": 34.72208333335584,
      "v": 17
    },
    {
      "midi": 50,
      "hit": false,
      "t": 365371.80239584617,
      "d": 60.76364583335817,
      "v": 14
    },
    {
      "midi": 69,
      "hit": false,
      "t": 365441.2465625129,
      "d": 173.6104166666628,
      "v": 13
    },
    {
      "midi": 64,
      "hit": false,
      "t": 365441.2465625129,
      "d": 182.2909375000163,
      "v": 13
    },
    {
      "midi": 59,
      "hit": false,
      "t": 365449.92708334624,
      "d": 164.92989583330927,
      "v": 13
    },
    {
      "midi": 50,
      "hit": false,
      "t": 365658.25958334625,
      "d": 43.402604166651145,
      "v": 11
    },
    {
      "midi": 69,
      "hit": false,
      "t": 365753.7453125129,
      "d": 69.44416666671168,
      "v": 10
    },
    {
      "midi": 64,
      "hit": false,
      "t": 365753.7453125129,
      "d": 78.12468750006519,
      "v": 10
    },
    {
      "midi": 59,
      "hit": false,
      "t": 365762.42583334626,
      "d": 69.44416666671168,
      "v": 10
    },
    {
      "midi": 50,
      "hit": false,
      "t": 365970.7583333463,
      "d": 43.402604166651145,
      "v": 7
    },
    {
      "midi": 64,
      "hit": false,
      "t": 366048.8830208463,
      "d": 69.44416666671168,
      "v": 6
    },
    {
      "midi": 69,
      "hit": false,
      "t": 366057.56354167964,
      "d": 69.44416666671168,
      "v": 6
    },
    {
      "midi": 59,
      "hit": false,
      "t": 366066.244062513,
      "d": 52.08312500000466,
      "v": 6
    },
    {
      "midi": 64,
      "hit": false,
      "t": 366274.576562513,
      "d": 121.52729166671634,
      "v": 4
    },
    {
      "midi": 69,
      "hit": false,
      "t": 366274.576562513,
      "d": 121.52729166671634,
      "v": 4
    },
    {
      "midi": 59,
      "hit": false,
      "t": 366283.25708334637,
      "d": 86.8052083333605,
      "v": 4
    },
    {
      "midi": 64,
      "hit": false,
      "t": 366474.22854167974,
      "d": 112.84677083336283,
      "v": 1
    },
    {
      "midi": 59,
      "hit": false,
      "t": 366482.9090625131,
      "d": 86.8052083333605,
      "v": 1
    },
    {
      "midi": 69,
      "hit": false,
      "t": 366491.58958334645,
      "d": 78.12468750000698,
      "v": 1
    }
  ]
}