{
  "jsonPath": "Rock/Soft Rock/Sting/every-breath-you-take.json",
  "path": "Rock\\Soft Rock\\Sting\\Every Breath You Take.mid",
  "name": "Every Breath You Take",
  "difficulty": "Advanced",
  "bpm": 115.00002875000719,
  "notes": [
    {
      "midi": 60,
      "hit": false,
      "t": 0,
      "d": 260.8695,
      "v": 65
    },
    {
      "midi": 44,
      "hit": false,
      "t": 0,
      "d": 260.8695,
      "v": 69
    },
    {
      "midi": 63,
      "hit": false,
      "t": 260.8695,
      "d": 260.8695,
      "v": 77
    },
    {
      "midi": 44,
      "hit": false,
      "t": 260.8695,
      "d": 260.8695,
      "v": 55
    },
    {
      "midi": 68,
      "hit": false,
      "t": 521.739,
      "d": 260.8695,
      "v": 77
    },
    {
      "midi": 44,
      "hit": false,
      "t": 521.739,
      "d": 260.8695,
      "v": 49
    },
    {
      "midi": 63,
      "hit": false,
      "t": 782.6085,
      "d": 260.8695,
      "v": 77
    },
    {
      "midi": 44,
      "hit": false,
      "t": 782.6085,
      "d": 260.8695,
      "v": 52
    },
    {
      "midi": 63,
      "hit": false,
      "t": 1043.478,
      "d": 260.8695,
      "v": 63
    },
    {
      "midi": 72,
      "hit": false,
      "t": 1043.478,
      "d": 260.8695,
      "v": 76
    },
    {
      "midi": 44,
      "hit": false,
      "t": 1043.478,
      "d": 260.8695,
      "v": 69
    },
    {
      "midi": 70,
      "hit": false,
      "t": 1304.3475,
      "d": 260.8695,
      "v": 84
    },
    {
      "midi": 44,
      "hit": false,
      "t": 1304.3475,
      "d": 260.8695,
      "v": 65
    },
    {
      "midi": 68,
      "hit": false,
      "t": 1565.217,
      "d": 260.8695,
      "v": 72
    },
    {
      "midi": 44,
      "hit": false,
      "t": 1565.217,
      "d": 260.8695,
      "v": 57
    },
    {
      "midi": 70,
      "hit": false,
      "t": 1826.0865000000001,
      "d": 260.8695,
      "v": 34
    },
    {
      "midi": 44,
      "hit": false,
      "t": 1826.0865000000001,
      "d": 260.8695,
      "v": 69
    },
    {
      "midi": 60,
      "hit": false,
      "t": 2086.956,
      "d": 260.8694999999998,
      "v": 72
    },
    {
      "midi": 44,
      "hit": false,
      "t": 2086.956,
      "d": 260.8694999999998,
      "v": 65
    },
    {
      "midi": 63,
      "hit": false,
      "t": 2347.8255,
      "d": 260.8694999999998,
      "v": 72
    },
    {
      "midi": 44,
      "hit": false,
      "t": 2347.8255,
      "d": 260.8694999999998,
      "v": 42
    },
    {
      "midi": 68,
      "hit": false,
      "t": 2608.6949999999997,
      "d": 260.8694999999998,
      "v": 81
    },
    {
      "midi": 44,
      "hit": false,
      "t": 2608.6949999999997,
      "d": 260.8694999999998,
      "v": 48
    },
    {
      "midi": 63,
      "hit": false,
      "t": 2869.5644999999995,
      "d": 260.8694999999998,
      "v": 66
    },
    {
      "midi": 44,
      "hit": false,
      "t": 2869.5644999999995,
      "d": 260.8694999999998,
      "v": 61
    },
    {
      "midi": 63,
      "hit": false,
      "t": 3130.4339999999993,
      "d": 260.8694999999998,
      "v": 92
    },
    {
      "midi": 72,
      "hit": false,
      "t": 3130.4339999999993,
      "d": 260.8694999999998,
      "v": 92
    },
    {
      "midi": 44,
      "hit": false,
      "t": 3130.4339999999993,
      "d": 260.8694999999998,
      "v": 96
    },
    {
      "midi": 70,
      "hit": false,
      "t": 3391.303499999999,
      "d": 260.8694999999998,
      "v": 81
    },
    {
      "midi": 44,
      "hit": false,
      "t": 3391.303499999999,
      "d": 260.8694999999998,
      "v": 92
    },
    {
      "midi": 68,
      "hit": false,
      "t": 3652.172999999999,
      "d": 260.8694999999998,
      "v": 84
    },
    {
      "midi": 44,
      "hit": false,
      "t": 3652.172999999999,
      "d": 260.8694999999998,
      "v": 81
    },
    {
      "midi": 70,
      "hit": false,
      "t": 3913.0424999999987,
      "d": 260.8694999999998,
      "v": 59
    },
    {
      "midi": 44,
      "hit": false,
      "t": 3913.0424999999987,
      "d": 260.8694999999998,
      "v": 72
    },
    {
      "midi": 56,
      "hit": false,
      "t": 4173.911999999998,
      "d": 260.8694999999998,
      "v": 77
    },
    {
      "midi": 41,
      "hit": false,
      "t": 4173.911999999998,
      "d": 260.8694999999998,
      "v": 69
    },
    {
      "midi": 60,
      "hit": false,
      "t": 4434.781499999998,
      "d": 260.8694999999998,
      "v": 80
    },
    {
      "midi": 41,
      "hit": false,
      "t": 4434.781499999998,
      "d": 260.8694999999998,
      "v": 82
    },
    {
      "midi": 67,
      "hit": false,
      "t": 4695.650999999998,
      "d": 260.8694999999998,
      "v": 92
    },
    {
      "midi": 41,
      "hit": false,
      "t": 4695.650999999998,
      "d": 260.8694999999998,
      "v": 74
    },
    {
      "midi": 60,
      "hit": false,
      "t": 4956.520499999998,
      "d": 260.8694999999998,
      "v": 80
    },
    {
      "midi": 41,
      "hit": false,
      "t": 4956.520499999998,
      "d": 260.8694999999998,
      "v": 67
    },
    {
      "midi": 60,
      "hit": false,
      "t": 5217.389999999998,
      "d": 260.8694999999998,
      "v": 89
    },
    {
      "midi": 68,
      "hit": false,
      "t": 5217.389999999998,
      "d": 260.8694999999998,
      "v": 88
    },
    {
      "midi": 41,
      "hit": false,
      "t": 5217.389999999998,
      "d": 260.8694999999998,
      "v": 60
    },
    {
      "midi": 67,
      "hit": false,
      "t": 5478.259499999997,
      "d": 260.8694999999998,
      "v": 84
    },
    {
      "midi": 41,
      "hit": false,
      "t": 5478.259499999997,
      "d": 260.8694999999998,
      "v": 66
    },
    {
      "midi": 65,
      "hit": false,
      "t": 5739.128999999997,
      "d": 260.8694999999998,
      "v": 82
    },
    {
      "midi": 41,
      "hit": false,
      "t": 5739.128999999997,
      "d": 260.8694999999998,
      "v": 61
    },
    {
      "midi": 67,
      "hit": false,
      "t": 5999.998499999997,
      "d": 260.8694999999998,
      "v": 92
    },
    {
      "midi": 41,
      "hit": false,
      "t": 5999.998499999997,
      "d": 260.8694999999998,
      "v": 60
    },
    {
      "midi": 56,
      "hit": false,
      "t": 6260.867999999997,
      "d": 260.8694999999998,
      "v": 100
    },
    {
      "midi": 41,
      "hit": false,
      "t": 6260.867999999997,
      "d": 260.8694999999998,
      "v": 65
    },
    {
      "midi": 60,
      "hit": false,
      "t": 6521.7374999999965,
      "d": 260.8694999999998,
      "v": 92
    },
    {
      "midi": 41,
      "hit": false,
      "t": 6521.7374999999965,
      "d": 260.8694999999998,
      "v": 60
    },
    {
      "midi": 67,
      "hit": false,
      "t": 6782.606999999996,
      "d": 260.8694999999998,
      "v": 78
    },
    {
      "midi": 41,
      "hit": false,
      "t": 6782.606999999996,
      "d": 260.8694999999998,
      "v": 59
    },
    {
      "midi": 60,
      "hit": false,
      "t": 7043.476499999996,
      "d": 260.8694999999998,
      "v": 78
    },
    {
      "midi": 41,
      "hit": false,
      "t": 7043.476499999996,
      "d": 260.8694999999998,
      "v": 71
    },
    {
      "midi": 60,
      "hit": false,
      "t": 7304.345999999996,
      "d": 260.8694999999998,
      "v": 82
    },
    {
      "midi": 68,
      "hit": false,
      "t": 7304.345999999996,
      "d": 260.8694999999998,
      "v": 81
    },
    {
      "midi": 41,
      "hit": false,
      "t": 7304.345999999996,
      "d": 260.8694999999998,
      "v": 61
    },
    {
      "midi": 67,
      "hit": false,
      "t": 7565.215499999996,
      "d": 260.8694999999998,
      "v": 92
    },
    {
      "midi": 41,
      "hit": false,
      "t": 7565.215499999996,
      "d": 260.8694999999998,
      "v": 63
    },
    {
      "midi": 65,
      "hit": false,
      "t": 7826.0849999999955,
      "d": 260.8694999999998,
      "v": 80
    },
    {
      "midi": 41,
      "hit": false,
      "t": 7826.0849999999955,
      "d": 260.8694999999998,
      "v": 69
    },
    {
      "midi": 67,
      "hit": false,
      "t": 8086.954499999995,
      "d": 260.8694999999998,
      "v": 92
    },
    {
      "midi": 41,
      "hit": false,
      "t": 8086.954499999995,
      "d": 260.8694999999998,
      "v": 74
    },
    {
      "midi": 65,
      "hit": false,
      "t": 8347.823999999995,
      "d": 260.8695000000007,
      "v": 76
    },
    {
      "midi": 49,
      "hit": false,
      "t": 8347.823999999995,
      "d": 260.8695000000007,
      "v": 72
    },
    {
      "midi": 68,
      "hit": false,
      "t": 8608.693499999996,
      "d": 260.8695000000007,
      "v": 88
    },
    {
      "midi": 49,
      "hit": false,
      "t": 8608.693499999996,
      "d": 260.8695000000007,
      "v": 74
    },
    {
      "midi": 75,
      "hit": false,
      "t": 8869.562999999996,
      "d": 260.8695000000007,
      "v": 81
    },
    {
      "midi": 49,
      "hit": false,
      "t": 8869.562999999996,
      "d": 260.8695000000007,
      "v": 77
    },
    {
      "midi": 68,
      "hit": false,
      "t": 9130.432499999997,
      "d": 260.8695000000007,
      "v": 74
    },
    {
      "midi": 49,
      "hit": false,
      "t": 9130.432499999997,
      "d": 260.8695000000007,
      "v": 53
    },
    {
      "midi": 73,
      "hit": false,
      "t": 9391.301999999998,
      "d": 260.8695000000007,
      "v": 81
    },
    {
      "midi": 49,
      "hit": false,
      "t": 9391.301999999998,
      "d": 260.8695000000007,
      "v": 59
    },
    {
      "midi": 68,
      "hit": false,
      "t": 9652.171499999999,
      "d": 260.8695000000007,
      "v": 72
    },
    {
      "midi": 49,
      "hit": false,
      "t": 9652.171499999999,
      "d": 260.8695000000007,
      "v": 74
    },
    {
      "midi": 65,
      "hit": false,
      "t": 9913.041,
      "d": 260.8695000000007,
      "v": 80
    },
    {
      "midi": 72,
      "hit": false,
      "t": 9913.041,
      "d": 260.8695000000007,
      "v": 97
    },
    {
      "midi": 49,
      "hit": false,
      "t": 9913.041,
      "d": 260.8695000000007,
      "v": 61
    },
    {
      "midi": 70,
      "hit": false,
      "t": 10173.9105,
      "d": 260.8695000000007,
      "v": 84
    },
    {
      "midi": 49,
      "hit": false,
      "t": 10173.9105,
      "d": 260.8695000000007,
      "v": 72
    },
    {
      "midi": 67,
      "hit": false,
      "t": 10434.78,
      "d": 260.8695000000007,
      "v": 95
    },
    {
      "midi": 51,
      "hit": false,
      "t": 10434.78,
      "d": 260.8695000000007,
      "v": 77
    },
    {
      "midi": 70,
      "hit": false,
      "t": 10695.649500000001,
      "d": 260.8695000000007,
      "v": 84
    },
    {
      "midi": 51,
      "hit": false,
      "t": 10695.649500000001,
      "d": 260.8695000000007,
      "v": 77
    },
    {
      "midi": 77,
      "hit": false,
      "t": 10956.519000000002,
      "d": 260.8695000000007,
      "v": 95
    },
    {
      "midi": 51,
      "hit": false,
      "t": 10956.519000000002,
      "d": 260.8695000000007,
      "v": 65
    },
    {
      "midi": 70,
      "hit": false,
      "t": 11217.388500000003,
      "d": 260.8695000000007,
      "v": 74
    },
    {
      "midi": 51,
      "hit": false,
      "t": 11217.388500000003,
      "d": 260.8695000000007,
      "v": 77
    },
    {
      "midi": 75,
      "hit": false,
      "t": 11478.258000000003,
      "d": 260.8695000000007,
      "v": 81
    },
    {
      "midi": 51,
      "hit": false,
      "t": 11478.258000000003,
      "d": 260.8695000000007,
      "v": 74
    },
    {
      "midi": 70,
      "hit": false,
      "t": 11739.127500000004,
      "d": 260.8695000000007,
      "v": 88
    },
    {
      "midi": 51,
      "hit": false,
      "t": 11739.127500000004,
      "d": 260.8695000000007,
      "v": 96
    },
    {
      "midi": 67,
      "hit": false,
      "t": 11999.997000000005,
      "d": 260.8695000000007,
      "v": 84
    },
    {
      "midi": 73,
      "hit": false,
      "t": 11999.997000000005,
      "d": 260.8695000000007,
      "v": 77
    },
    {
      "midi": 51,
      "hit": false,
      "t": 11999.997000000005,
      "d": 260.8695000000007,
      "v": 81
    },
    {
      "midi": 75,
      "hit": false,
      "t": 12260.866500000006,
      "d": 260.8695000000007,
      "v": 74
    },
    {
      "midi": 51,
      "hit": false,
      "t": 12260.866500000006,
      "d": 260.8695000000007,
      "v": 96
    },
    {
      "midi": 60,
      "hit": false,
      "t": 12521.736000000006,
      "d": 260.8695000000007,
      "v": 101
    },
    {
      "midi": 44,
      "hit": false,
      "t": 12521.736000000006,
      "d": 260.8695000000007,
      "v": 72
    },
    {
      "midi": 63,
      "hit": false,
      "t": 12782.605500000007,
      "d": 260.8695000000007,
      "v": 81
    },
    {
      "midi": 44,
      "hit": false,
      "t": 12782.605500000007,
      "d": 260.8695000000007,
      "v": 77
    },
    {
      "midi": 68,
      "hit": false,
      "t": 13043.475000000008,
      "d": 260.8695000000007,
      "v": 84
    },
    {
      "midi": 44,
      "hit": false,
      "t": 13043.475000000008,
      "d": 260.8695000000007,
      "v": 65
    },
    {
      "midi": 63,
      "hit": false,
      "t": 13304.344500000008,
      "d": 260.8695000000007,
      "v": 66
    },
    {
      "midi": 44,
      "hit": false,
      "t": 13304.344500000008,
      "d": 260.8695000000007,
      "v": 61
    },
    {
      "midi": 63,
      "hit": false,
      "t": 13565.214000000009,
      "d": 260.8695000000007,
      "v": 84
    },
    {
      "midi": 72,
      "hit": false,
      "t": 13565.214000000009,
      "d": 260.8695000000007,
      "v": 92
    },
    {
      "midi": 44,
      "hit": false,
      "t": 13565.214000000009,
      "d": 260.8695000000007,
      "v": 81
    },
    {
      "midi": 70,
      "hit": false,
      "t": 13826.08350000001,
      "d": 260.8695000000007,
      "v": 74
    },
    {
      "midi": 44,
      "hit": false,
      "t": 13826.08350000001,
      "d": 260.8695000000007,
      "v": 69
    },
    {
      "midi": 68,
      "hit": false,
      "t": 14086.95300000001,
      "d": 260.8695000000007,
      "v": 77
    },
    {
      "midi": 44,
      "hit": false,
      "t": 14086.95300000001,
      "d": 260.8695000000007,
      "v": 66
    },
    {
      "midi": 70,
      "hit": false,
      "t": 14347.822500000011,
      "d": 260.8695000000007,
      "v": 84
    },
    {
      "midi": 44,
      "hit": false,
      "t": 14347.822500000011,
      "d": 260.8695000000007,
      "v": 92
    },
    {
      "midi": 63,
      "hit": false,
      "t": 14608.692000000012,
      "d": 521.7389999999996,
      "v": 77
    },
    {
      "midi": 44,
      "hit": false,
      "t": 14608.692000000012,
      "d": 260.8695000000007,
      "v": 92
    },
    {
      "midi": 44,
      "hit": false,
      "t": 14869.561500000013,
      "d": 260.8695000000007,
      "v": 48
    },
    {
      "midi": 72,
      "hit": false,
      "t": 15130.431000000011,
      "d": 260.8695000000007,
      "v": 95
    },
    {
      "midi": 44,
      "hit": false,
      "t": 15130.431000000013,
      "d": 260.8695000000007,
      "v": 57
    },
    {
      "midi": 73,
      "hit": false,
      "t": 15391.300500000012,
      "d": 260.8695000000007,
      "v": 65
    },
    {
      "midi": 44,
      "hit": false,
      "t": 15391.300500000014,
      "d": 260.8695000000007,
      "v": 72
    },
    {
      "midi": 72,
      "hit": false,
      "t": 15652.170000000013,
      "d": 521.7389999999996,
      "v": 101
    },
    {
      "midi": 44,
      "hit": false,
      "t": 15652.170000000015,
      "d": 260.8695000000007,
      "v": 69
    },
    {
      "midi": 44,
      "hit": false,
      "t": 15913.039500000015,
      "d": 260.8695000000007,
      "v": 69
    },
    {
      "midi": 63,
      "hit": false,
      "t": 16173.909000000012,
      "d": 260.8694999999989,
      "v": 66
    },
    {
      "midi": 70,
      "hit": false,
      "t": 16173.909000000012,
      "d": 260.8694999999989,
      "v": 88
    },
    {
      "midi": 44,
      "hit": false,
      "t": 16173.909000000016,
      "d": 260.8694999999989,
      "v": 59
    },
    {
      "midi": 68,
      "hit": false,
      "t": 16434.77850000001,
      "d": 260.8695000000007,
      "v": 88
    },
    {
      "midi": 44,
      "hit": false,
      "t": 16434.778500000015,
      "d": 260.8695000000007,
      "v": 61
    },
    {
      "midi": 68,
      "hit": false,
      "t": 16695.648000000012,
      "d": 260.8695000000007,
      "v": 92
    },
    {
      "midi": 44,
      "hit": false,
      "t": 16695.648000000016,
      "d": 260.8695000000007,
      "v": 88
    },
    {
      "midi": 60,
      "hit": false,
      "t": 16956.517500000013,
      "d": 260.8695000000007,
      "v": 62
    },
    {
      "midi": 44,
      "hit": false,
      "t": 16956.517500000016,
      "d": 260.8695000000007,
      "v": 72
    },
    {
      "midi": 63,
      "hit": false,
      "t": 17217.387000000013,
      "d": 260.8695000000007,
      "v": 69
    },
    {
      "midi": 44,
      "hit": false,
      "t": 17217.387000000017,
      "d": 260.8695000000007,
      "v": 77
    },
    {
      "midi": 60,
      "hit": false,
      "t": 17478.256500000014,
      "d": 260.8695000000007,
      "v": 68
    },
    {
      "midi": 44,
      "hit": false,
      "t": 17478.256500000018,
      "d": 260.8695000000007,
      "v": 77
    },
    {
      "midi": 63,
      "hit": false,
      "t": 17739.126000000015,
      "d": 260.8695000000007,
      "v": 88
    },
    {
      "midi": 72,
      "hit": false,
      "t": 17739.126000000015,
      "d": 260.8695000000007,
      "v": 87
    },
    {
      "midi": 44,
      "hit": false,
      "t": 17739.12600000002,
      "d": 260.8695000000007,
      "v": 61
    },
    {
      "midi": 70,
      "hit": false,
      "t": 17999.995500000015,
      "d": 260.8695000000007,
      "v": 84
    },
    {
      "midi": 44,
      "hit": false,
      "t": 17999.99550000002,
      "d": 260.8695000000007,
      "v": 74
    },
    {
      "midi": 68,
      "hit": false,
      "t": 18260.865000000016,
      "d": 260.8695000000007,
      "v": 81
    },
    {
      "midi": 44,
      "hit": false,
      "t": 18260.86500000002,
      "d": 260.8695000000007,
      "v": 77
    },
    {
      "midi": 70,
      "hit": false,
      "t": 18521.734500000017,
      "d": 260.8695000000007,
      "v": 81
    },
    {
      "midi": 44,
      "hit": false,
      "t": 18521.73450000002,
      "d": 260.8695000000007,
      "v": 77
    },
    {
      "midi": 63,
      "hit": false,
      "t": 18782.604000000018,
      "d": 521.7390000000014,
      "v": 77
    },
    {
      "midi": 44,
      "hit": false,
      "t": 18782.60400000002,
      "d": 260.8695000000007,
      "v": 81
    },
    {
      "midi": 44,
      "hit": false,
      "t": 19043.473500000022,
      "d": 260.8695000000007,
      "v": 61
    },
    {
      "midi": 72,
      "hit": false,
      "t": 19304.34300000002,
      "d": 260.8695000000007,
      "v": 97
    },
    {
      "midi": 44,
      "hit": false,
      "t": 19304.343000000023,
      "d": 260.8695000000007,
      "v": 61
    },
    {
      "midi": 73,
      "hit": false,
      "t": 19565.21250000002,
      "d": 260.8695000000007,
      "v": 77
    },
    {
      "midi": 44,
      "hit": false,
      "t": 19565.212500000023,
      "d": 260.8695000000007,
      "v": 84
    },
    {
      "midi": 72,
      "hit": false,
      "t": 19826.08200000002,
      "d": 521.7390000000014,
      "v": 101
    },
    {
      "midi": 44,
      "hit": false,
      "t": 19826.082000000024,
      "d": 260.8695000000007,
      "v": 88
    },
    {
      "midi": 44,
      "hit": false,
      "t": 20086.951500000025,
      "d": 260.8695000000007,
      "v": 77
    },
    {
      "midi": 60,
      "hit": false,
      "t": 20347.82100000002,
      "d": 260.8695000000007,
      "v": 60
    },
    {
      "midi": 70,
      "hit": false,
      "t": 20347.82100000002,
      "d": 260.8695000000007,
      "v": 88
    },
    {
      "midi": 44,
      "hit": false,
      "t": 20347.821000000025,
      "d": 260.8695000000007,
      "v": 65
    },
    {
      "midi": 68,
      "hit": false,
      "t": 20608.690500000022,
      "d": 260.8695000000007,
      "v": 77
    },
    {
      "midi": 44,
      "hit": false,
      "t": 20608.690500000026,
      "d": 260.8695000000007,
      "v": 84
    },
    {
      "midi": 68,
      "hit": false,
      "t": 20869.560000000023,
      "d": 260.8695000000007,
      "v": 84
    },
    {
      "midi": 41,
      "hit": false,
      "t": 20869.560000000027,
      "d": 260.8695000000007,
      "v": 80
    },
    {
      "midi": 60,
      "hit": false,
      "t": 21130.429500000024,
      "d": 260.8695000000007,
      "v": 76
    },
    {
      "midi": 41,
      "hit": false,
      "t": 21130.429500000027,
      "d": 260.8695000000007,
      "v": 71
    },
    {
      "midi": 67,
      "hit": false,
      "t": 21391.299000000025,
      "d": 260.8695000000007,
      "v": 95
    },
    {
      "midi": 41,
      "hit": false,
      "t": 21391.299000000028,
      "d": 260.8695000000007,
      "v": 63
    },
    {
      "midi": 60,
      "hit": false,
      "t": 21652.168500000025,
      "d": 260.8695000000007,
      "v": 71
    },
    {
      "midi": 41,
      "hit": false,
      "t": 21652.16850000003,
      "d": 260.8695000000007,
      "v": 63
    },
    {
      "midi": 60,
      "hit": false,
      "t": 21913.038000000026,
      "d": 260.8695000000007,
      "v": 82
    },
    {
      "midi": 68,
      "hit": false,
      "t": 21913.038000000026,
      "d": 260.8695000000007,
      "v": 81
    },
    {
      "midi": 41,
      "hit": false,
      "t": 21913.03800000003,
      "d": 260.8695000000007,
      "v": 69
    },
    {
      "midi": 67,
      "hit": false,
      "t": 22173.907500000027,
      "d": 260.8695000000007,
      "v": 92
    },
    {
      "midi": 41,
      "hit": false,
      "t": 22173.90750000003,
      "d": 260.8695000000007,
      "v": 60
    },
    {
      "midi": 65,
      "hit": false,
      "t": 22434.777000000027,
      "d": 260.8695000000007,
      "v": 92
    },
    {
      "midi": 41,
      "hit": false,
      "t": 22434.77700000003,
      "d": 260.8695000000007,
      "v": 68
    },
    {
      "midi": 67,
      "hit": false,
      "t": 22695.646500000028,
      "d": 260.8695000000007,
      "v": 97
    },
    {
      "midi": 41,
      "hit": false,
      "t": 22695.64650000003,
      "d": 260.8695000000007,
      "v": 71
    },
    {
      "midi": 60,
      "hit": false,
      "t": 22956.51600000003,
      "d": 260.8695000000007,
      "v": 80
    },
    {
      "midi": 41,
      "hit": false,
      "t": 22956.516000000032,
      "d": 260.8695000000007,
      "v": 78
    },
    {
      "midi": 68,
      "hit": false,
      "t": 23217.38550000003,
      "d": 260.8695000000007,
      "v": 84
    },
    {
      "midi": 41,
      "hit": false,
      "t": 23217.385500000033,
      "d": 260.8695000000007,
      "v": 69
    },
    {
      "midi": 68,
      "hit": false,
      "t": 23478.25500000003,
      "d": 260.8695000000007,
      "v": 81
    },
    {
      "midi": 41,
      "hit": false,
      "t": 23478.255000000034,
      "d": 260.8695000000007,
      "v": 68
    },
    {
      "midi": 63,
      "hit": false,
      "t": 23739.12450000003,
      "d": 521.7390000000014,
      "v": 81
    },
    {
      "midi": 72,
      "hit": false,
      "t": 23739.12450000003,
      "d": 521.7390000000014,
      "v": 72
    },
    {
      "midi": 41,
      "hit": false,
      "t": 23739.124500000034,
      "d": 260.8695000000007,
      "v": 80
    },
    {
      "midi": 41,
      "hit": false,
      "t": 23999.994000000035,
      "d": 260.8695000000007,
      "v": 69
    },
    {
      "midi": 65,
      "hit": false,
      "t": 24260.863500000032,
      "d": 521.7390000000014,
      "v": 76
    },
    {
      "midi": 73,
      "hit": false,
      "t": 24260.863500000032,
      "d": 521.7390000000014,
      "v": 81
    },
    {
      "midi": 41,
      "hit": false,
      "t": 24260.863500000036,
      "d": 260.8695000000007,
      "v": 87
    },
    {
      "midi": 41,
      "hit": false,
      "t": 24521.733000000037,
      "d": 260.8695000000007,
      "v": 87
    },
    {
      "midi": 65,
      "hit": false,
      "t": 24782.602500000034,
      "d": 260.8695000000007,
      "v": 80
    },
    {
      "midi": 68,
      "hit": false,
      "t": 24782.602500000034,
      "d": 260.8695000000007,
      "v": 88
    },
    {
      "midi": 49,
      "hit": false,
      "t": 24782.602500000037,
      "d": 260.8695000000007,
      "v": 96
    },
    {
      "midi": 49,
      "hit": false,
      "t": 25043.472000000038,
      "d": 260.8695000000007,
      "v": 100
    },
    {
      "midi": 68,
      "hit": false,
      "t": 25304.341500000035,
      "d": 260.8695000000007,
      "v": 84
    },
    {
      "midi": 49,
      "hit": false,
      "t": 25304.34150000004,
      "d": 260.8695000000007,
      "v": 84
    },
    {
      "midi": 68,
      "hit": false,
      "t": 25565.211000000036,
      "d": 260.8695000000007,
      "v": 92
    },
    {
      "midi": 49,
      "hit": false,
      "t": 25565.21100000004,
      "d": 260.8695000000007,
      "v": 65
    },
    {
      "midi": 65,
      "hit": false,
      "t": 25826.080500000036,
      "d": 521.7390000000014,
      "v": 80
    },
    {
      "midi": 73,
      "hit": false,
      "t": 25826.080500000036,
      "d": 521.7390000000014,
      "v": 84
    },
    {
      "midi": 49,
      "hit": false,
      "t": 25826.08050000004,
      "d": 260.8695000000007,
      "v": 84
    },
    {
      "midi": 49,
      "hit": false,
      "t": 26086.95000000004,
      "d": 260.8695000000007,
      "v": 92
    },
    {
      "midi": 72,
      "hit": false,
      "t": 26347.819500000038,
      "d": 521.7390000000014,
      "v": 97
    },
    {
      "midi": 49,
      "hit": false,
      "t": 26347.81950000004,
      "d": 260.8695000000007,
      "v": 92
    },
    {
      "midi": 49,
      "hit": false,
      "t": 26608.689000000042,
      "d": 260.8695000000007,
      "v": 92
    },
    {
      "midi": 67,
      "hit": false,
      "t": 26869.55850000004,
      "d": 260.8695000000007,
      "v": 97
    },
    {
      "midi": 70,
      "hit": false,
      "t": 26869.55850000004,
      "d": 260.8695000000007,
      "v": 84
    },
    {
      "midi": 51,
      "hit": false,
      "t": 26869.558500000043,
      "d": 260.8695000000007,
      "v": 104
    },
    {
      "midi": 51,
      "hit": false,
      "t": 27130.428000000044,
      "d": 260.8695000000007,
      "v": 104
    },
    {
      "midi": 63,
      "hit": false,
      "t": 27391.29750000004,
      "d": 260.8695000000007,
      "v": 51
    },
    {
      "midi": 70,
      "hit": false,
      "t": 27391.29750000004,
      "d": 260.8695000000007,
      "v": 72
    },
    {
      "midi": 51,
      "hit": false,
      "t": 27391.297500000044,
      "d": 260.8695000000007,
      "v": 104
    },
    {
      "midi": 68,
      "hit": false,
      "t": 27652.16700000004,
      "d": 260.8695000000007,
      "v": 100
    },
    {
      "midi": 51,
      "hit": false,
      "t": 27652.167000000045,
      "d": 260.8695000000007,
      "v": 92
    },
    {
      "midi": 72,
      "hit": false,
      "t": 27913.036500000042,
      "d": 260.8695000000007,
      "v": 97
    },
    {
      "midi": 51,
      "hit": false,
      "t": 27913.036500000046,
      "d": 260.8695000000007,
      "v": 92
    },
    {
      "midi": 68,
      "hit": false,
      "t": 28173.906000000043,
      "d": 521.7390000000014,
      "v": 80
    },
    {
      "midi": 51,
      "hit": false,
      "t": 28173.906000000046,
      "d": 260.8695000000007,
      "v": 96
    },
    {
      "midi": 51,
      "hit": false,
      "t": 28434.775500000047,
      "d": 260.8695000000007,
      "v": 88
    },
    {
      "midi": 61,
      "hit": false,
      "t": 28695.645000000044,
      "d": 521.7390000000014,
      "v": 97
    },
    {
      "midi": 68,
      "hit": false,
      "t": 28695.645000000044,
      "d": 521.7390000000014,
      "v": 92
    },
    {
      "midi": 51,
      "hit": false,
      "t": 28695.645000000048,
      "d": 260.8695000000007,
      "v": 104
    },
    {
      "midi": 51,
      "hit": false,
      "t": 28956.51450000005,
      "d": 260.8695000000007,
      "v": 84
    },
    {
      "midi": 41,
      "hit": false,
      "t": 29217.38400000005,
      "d": 260.8695000000007,
      "v": 82
    },
    {
      "midi": 60,
      "hit": false,
      "t": 29478.253500000046,
      "d": 260.8695000000007,
      "v": 67
    },
    {
      "midi": 41,
      "hit": false,
      "t": 29478.25350000005,
      "d": 260.8695000000007,
      "v": 89
    },
    {
      "midi": 67,
      "hit": false,
      "t": 29739.123000000047,
      "d": 260.8695000000007,
      "v": 104
    },
    {
      "midi": 41,
      "hit": false,
      "t": 29739.12300000005,
      "d": 260.8695000000007,
      "v": 80
    },
    {
      "midi": 60,
      "hit": false,
      "t": 29999.992500000048,
      "d": 260.8695000000007,
      "v": 57
    },
    {
      "midi": 41,
      "hit": false,
      "t": 29999.99250000005,
      "d": 260.8695000000007,
      "v": 74
    },
    {
      "midi": 60,
      "hit": false,
      "t": 30260.86200000005,
      "d": 260.8695000000007,
      "v": 95
    },
    {
      "midi": 68,
      "hit": false,
      "t": 30260.86200000005,
      "d": 260.8695000000007,
      "v": 81
    },
    {
      "midi": 41,
      "hit": false,
      "t": 30260.862000000052,
      "d": 260.8695000000007,
      "v": 89
    },
    {
      "midi": 67,
      "hit": false,
      "t": 30521.73150000005,
      "d": 260.8695000000007,
      "v": 95
    },
    {
      "midi": 41,
      "hit": false,
      "t": 30521.731500000053,
      "d": 260.8695000000007,
      "v": 84
    },
    {
      "midi": 65,
      "hit": false,
      "t": 30782.60100000005,
      "d": 260.8695000000007,
      "v": 82
    },
    {
      "midi": 41,
      "hit": false,
      "t": 30782.601000000053,
      "d": 260.8695000000007,
      "v": 84
    },
    {
      "midi": 67,
      "hit": false,
      "t": 31043.47050000005,
      "d": 260.8695000000007,
      "v": 97
    },
    {
      "midi": 41,
      "hit": false,
      "t": 31043.470500000054,
      "d": 260.8695000000007,
      "v": 92
    },
    {
      "midi": 65,
      "hit": false,
      "t": 31304.34000000005,
      "d": 521.7390000000014,
      "v": 89
    },
    {
      "midi": 41,
      "hit": false,
      "t": 31304.340000000055,
      "d": 260.8695000000007,
      "v": 84
    },
    {
      "midi": 41,
      "hit": false,
      "t": 31565.209500000055,
      "d": 260.8695000000007,
      "v": 81
    },
    {
      "midi": 72,
      "hit": false,
      "t": 31826.079000000052,
      "d": 260.8695000000007,
      "v": 97
    },
    {
      "midi": 41,
      "hit": false,
      "t": 31826.079000000056,
      "d": 260.8695000000007,
      "v": 49
    },
    {
      "midi": 73,
      "hit": false,
      "t": 32086.948500000053,
      "d": 260.8695000000007,
      "v": 77
    },
    {
      "midi": 41,
      "hit": false,
      "t": 32086.948500000057,
      "d": 260.8695000000007,
      "v": 88
    },
    {
      "midi": 63,
      "hit": false,
      "t": 32347.818000000054,
      "d": 521.7389999999978,
      "v": 72
    },
    {
      "midi": 72,
      "hit": false,
      "t": 32347.818000000054,
      "d": 521.7389999999978,
      "v": 101
    },
    {
      "midi": 39,
      "hit": false,
      "t": 32347.818000000058,
      "d": 260.8695000000007,
      "v": 88
    },
    {
      "midi": 39,
      "hit": false,
      "t": 32608.68750000006,
      "d": 260.8695000000007,
      "v": 100
    },
    {
      "midi": 61,
      "hit": false,
      "t": 32869.55700000005,
      "d": 260.8695000000007,
      "v": 55
    },
    {
      "midi": 70,
      "hit": false,
      "t": 32869.55700000005,
      "d": 260.8695000000007,
      "v": 84
    },
    {
      "midi": 39,
      "hit": false,
      "t": 32869.55700000006,
      "d": 260.8695000000007,
      "v": 92
    },
    {
      "midi": 68,
      "hit": false,
      "t": 33130.42650000005,
      "d": 260.8695000000007,
      "v": 84
    },
    {
      "midi": 39,
      "hit": false,
      "t": 33130.42650000006,
      "d": 260.8695000000007,
      "v": 84
    },
    {
      "midi": 72,
      "hit": false,
      "t": 33391.29600000005,
      "d": 260.8695000000007,
      "v": 101
    },
    {
      "midi": 44,
      "hit": false,
      "t": 33391.29600000006,
      "d": 260.8695000000007,
      "v": 84
    },
    {
      "midi": 63,
      "hit": false,
      "t": 33652.165500000054,
      "d": 260.8695000000007,
      "v": 61
    },
    {
      "midi": 44,
      "hit": false,
      "t": 33652.16550000006,
      "d": 260.8695000000007,
      "v": 66
    },
    {
      "midi": 68,
      "hit": false,
      "t": 33913.035000000054,
      "d": 260.8695000000007,
      "v": 84
    },
    {
      "midi": 44,
      "hit": false,
      "t": 33913.03500000006,
      "d": 260.8695000000007,
      "v": 59
    },
    {
      "midi": 63,
      "hit": false,
      "t": 34173.904500000055,
      "d": 260.8695000000007,
      "v": 43
    },
    {
      "midi": 44,
      "hit": false,
      "t": 34173.90450000006,
      "d": 260.8695000000007,
      "v": 84
    },
    {
      "midi": 63,
      "hit": false,
      "t": 34434.774000000056,
      "d": 260.8695000000007,
      "v": 84
    },
    {
      "midi": 72,
      "hit": false,
      "t": 34434.774000000056,
      "d": 260.8695000000007,
      "v": 80
    },
    {
      "midi": 44,
      "hit": false,
      "t": 34434.77400000006,
      "d": 260.8695000000007,
      "v": 77
    },
    {
      "midi": 70,
      "hit": false,
      "t": 34695.64350000006,
      "d": 260.8695000000007,
      "v": 74
    },
    {
      "midi": 44,
      "hit": false,
      "t": 34695.643500000064,
      "d": 260.8695000000007,
      "v": 81
    },
    {
      "midi": 68,
      "hit": false,
      "t": 34956.51300000006,
      "d": 260.8695000000007,
      "v": 77
    },
    {
      "midi": 44,
      "hit": false,
      "t": 34956.513000000064,
      "d": 260.8695000000007,
      "v": 96
    },
    {
      "midi": 70,
      "hit": false,
      "t": 35217.38250000006,
      "d": 260.8695000000007,
      "v": 61
    },
    {
      "midi": 44,
      "hit": false,
      "t": 35217.382500000065,
      "d": 260.8695000000007,
      "v": 104
    },
    {
      "midi": 63,
      "hit": false,
      "t": 35478.25200000006,
      "d": 521.7390000000014,
      "v": 84
    },
    {
      "midi": 44,
      "hit": false,
      "t": 35478.252000000066,
      "d": 260.8695000000007,
      "v": 104
    },
    {
      "midi": 44,
      "hit": false,
      "t": 35739.12150000007,
      "d": 260.8695000000007,
      "v": 81
    },
    {
      "midi": 72,
      "hit": false,
      "t": 35999.99100000006,
      "d": 260.8695000000007,
      "v": 97
    },
    {
      "midi": 44,
      "hit": false,
      "t": 35999.99100000007,
      "d": 260.8695000000007,
      "v": 77
    },
    {
      "midi": 73,
      "hit": false,
      "t": 36260.86050000006,
      "d": 260.8695000000007,
      "v": 81
    },
    {
      "midi": 44,
      "hit": false,
      "t": 36260.86050000007,
      "d": 260.8695000000007,
      "v": 84
    },
    {
      "midi": 72,
      "hit": false,
      "t": 36521.73000000006,
      "d": 521.7390000000014,
      "v": 97
    },
    {
      "midi": 44,
      "hit": false,
      "t": 36521.73000000007,
      "d": 260.8695000000007,
      "v": 88
    },
    {
      "midi": 44,
      "hit": false,
      "t": 36782.59950000007,
      "d": 260.8695000000007,
      "v": 61
    },
    {
      "midi": 60,
      "hit": false,
      "t": 37043.46900000006,
      "d": 260.8695000000007,
      "v": 87
    },
    {
      "midi": 70,
      "hit": false,
      "t": 37043.46900000006,
      "d": 260.8695000000007,
      "v": 84
    },
    {
      "midi": 44,
      "hit": false,
      "t": 37043.46900000007,
      "d": 260.8695000000007,
      "v": 88
    },
    {
      "midi": 68,
      "hit": false,
      "t": 37304.33850000006,
      "d": 260.8695000000007,
      "v": 66
    },
    {
      "midi": 44,
      "hit": false,
      "t": 37304.33850000007,
      "d": 260.8695000000007,
      "v": 96
    },
    {
      "midi": 68,
      "hit": false,
      "t": 37565.208000000064,
      "d": 260.8695000000007,
      "v": 84
    },
    {
      "midi": 41,
      "hit": false,
      "t": 37565.20800000007,
      "d": 260.8695000000007,
      "v": 72
    },
    {
      "midi": 60,
      "hit": false,
      "t": 37826.077500000065,
      "d": 260.8695000000007,
      "v": 95
    },
    {
      "midi": 41,
      "hit": false,
      "t": 37826.07750000007,
      "d": 260.8695000000007,
      "v": 72
    },
    {
      "midi": 63,
      "hit": false,
      "t": 38086.947000000066,
      "d": 260.8695000000007,
      "v": 74
    },
    {
      "midi": 41,
      "hit": false,
      "t": 38086.94700000007,
      "d": 260.8695000000007,
      "v": 65
    },
    {
      "midi": 60,
      "hit": false,
      "t": 38347.816500000066,
      "d": 260.8695000000007,
      "v": 76
    },
    {
      "midi": 41,
      "hit": false,
      "t": 38347.81650000007,
      "d": 260.8695000000007,
      "v": 72
    },
    {
      "midi": 60,
      "hit": false,
      "t": 38608.68600000007,
      "d": 260.8695000000007,
      "v": 82
    },
    {
      "midi": 68,
      "hit": false,
      "t": 38608.68600000007,
      "d": 260.8695000000007,
      "v": 77
    },
    {
      "midi": 41,
      "hit": false,
      "t": 38608.686000000074,
      "d": 260.8695000000007,
      "v": 71
    },
    {
      "midi": 67,
      "hit": false,
      "t": 38869.55550000007,
      "d": 260.8695000000007,
      "v": 95
    },
    {
      "midi": 41,
      "hit": false,
      "t": 38869.555500000075,
      "d": 260.8695000000007,
      "v": 63
    },
    {
      "midi": 65,
      "hit": false,
      "t": 39130.42500000007,
      "d": 260.8695000000007,
      "v": 92
    },
    {
      "midi": 41,
      "hit": false,
      "t": 39130.425000000076,
      "d": 260.8695000000007,
      "v": 69
    },
    {
      "midi": 67,
      "hit": false,
      "t": 39391.29450000007,
      "d": 260.8695000000007,
      "v": 92
    },
    {
      "midi": 41,
      "hit": false,
      "t": 39391.29450000008,
      "d": 260.8695000000007,
      "v": 74
    },
    {
      "midi": 60,
      "hit": false,
      "t": 39652.16400000007,
      "d": 260.8695000000007,
      "v": 78
    },
    {
      "midi": 41,
      "hit": false,
      "t": 39652.16400000008,
      "d": 260.8695000000007,
      "v": 76
    },
    {
      "midi": 68,
      "hit": false,
      "t": 39913.03350000007,
      "d": 260.8695000000007,
      "v": 81
    },
    {
      "midi": 41,
      "hit": false,
      "t": 39913.03350000008,
      "d": 260.8695000000007,
      "v": 64
    },
    {
      "midi": 68,
      "hit": false,
      "t": 40173.90300000007,
      "d": 260.8695000000007,
      "v": 81
    },
    {
      "midi": 41,
      "hit": false,
      "t": 40173.90300000008,
      "d": 260.8695000000007,
      "v": 71
    },
    {
      "midi": 63,
      "hit": false,
      "t": 40434.77250000007,
      "d": 521.7390000000014,
      "v": 72
    },
    {
      "midi": 72,
      "hit": false,
      "t": 40434.77250000007,
      "d": 521.7390000000014,
      "v": 89
    },
    {
      "midi": 41,
      "hit": false,
      "t": 40434.77250000008,
      "d": 260.8695000000007,
      "v": 80
    },
    {
      "midi": 41,
      "hit": false,
      "t": 40695.64200000008,
      "d": 260.8695000000007,
      "v": 82
    },
    {
      "midi": 65,
      "hit": false,
      "t": 40956.51150000007,
      "d": 521.7390000000014,
      "v": 89
    },
    {
      "midi": 73,
      "hit": false,
      "t": 40956.51150000007,
      "d": 521.7390000000014,
      "v": 77
    },
    {
      "midi": 41,
      "hit": false,
      "t": 40956.51150000008,
      "d": 260.8695000000007,
      "v": 87
    },
    {
      "midi": 41,
      "hit": false,
      "t": 41217.38100000008,
      "d": 260.8695000000007,
      "v": 95
    },
    {
      "midi": 65,
      "hit": false,
      "t": 41478.250500000075,
      "d": 260.8695000000007,
      "v": 92
    },
    {
      "midi": 68,
      "hit": false,
      "t": 41478.250500000075,
      "d": 260.8695000000007,
      "v": 88
    },
    {
      "midi": 49,
      "hit": false,
      "t": 41478.25050000008,
      "d": 260.8695000000007,
      "v": 84
    },
    {
      "midi": 49,
      "hit": false,
      "t": 41739.12000000008,
      "d": 260.8695000000007,
      "v": 96
    },
    {
      "midi": 68,
      "hit": false,
      "t": 41999.989500000076,
      "d": 260.8695000000007,
      "v": 84
    },
    {
      "midi": 49,
      "hit": false,
      "t": 41999.98950000008,
      "d": 260.8695000000007,
      "v": 100
    },
    {
      "midi": 68,
      "hit": false,
      "t": 42260.85900000008,
      "d": 260.8695000000007,
      "v": 88
    },
    {
      "midi": 49,
      "hit": false,
      "t": 42260.859000000084,
      "d": 260.8695000000007,
      "v": 92
    },
    {
      "midi": 65,
      "hit": false,
      "t": 42521.72850000008,
      "d": 521.7390000000014,
      "v": 87
    },
    {
      "midi": 73,
      "hit": false,
      "t": 42521.72850000008,
      "d": 521.7390000000014,
      "v": 84
    },
    {
      "midi": 49,
      "hit": false,
      "t": 42521.728500000085,
      "d": 260.8695000000007,
      "v": 88
    },
    {
      "midi": 49,
      "hit": false,
      "t": 42782.598000000085,
      "d": 260.8695000000007,
      "v": 88
    },
    {
      "midi": 72,
      "hit": false,
      "t": 43043.46750000008,
      "d": 521.7390000000014,
      "v": 95
    },
    {
      "midi": 49,
      "hit": false,
      "t": 43043.467500000086,
      "d": 260.8695000000007,
      "v": 84
    },
    {
      "midi": 49,
      "hit": false,
      "t": 43304.33700000009,
      "d": 260.8695000000007,
      "v": 88
    },
    {
      "midi": 67,
      "hit": false,
      "t": 43565.20650000008,
      "d": 260.8695000000007,
      "v": 97
    },
    {
      "midi": 70,
      "hit": false,
      "t": 43565.20650000008,
      "d": 260.8695000000007,
      "v": 84
    },
    {
      "midi": 51,
      "hit": false,
      "t": 43565.20650000009,
      "d": 260.8695000000007,
      "v": 92
    },
    {
      "midi": 51,
      "hit": false,
      "t": 43826.07600000009,
      "d": 260.8695000000007,
      "v": 100
    },
    {
      "midi": 63,
      "hit": false,
      "t": 44086.94550000008,
      "d": 260.8695000000007,
      "v": 52
    },
    {
      "midi": 70,
      "hit": false,
      "t": 44086.94550000008,
      "d": 260.8695000000007,
      "v": 84
    },
    {
      "midi": 51,
      "hit": false,
      "t": 44086.94550000009,
      "d": 260.8695000000007,
      "v": 55
    },
    {
      "midi": 68,
      "hit": false,
      "t": 44347.81500000008,
      "d": 260.8695000000007,
      "v": 84
    },
    {
      "midi": 51,
      "hit": false,
      "t": 44347.81500000009,
      "d": 260.8695000000007,
      "v": 84
    },
    {
      "midi": 72,
      "hit": false,
      "t": 44608.68450000008,
      "d": 260.8695000000007,
      "v": 97
    },
    {
      "midi": 51,
      "hit": false,
      "t": 44608.68450000009,
      "d": 260.8695000000007,
      "v": 77
    },
    {
      "midi": 68,
      "hit": false,
      "t": 44869.554000000084,
      "d": 521.7390000000014,
      "v": 77
    },
    {
      "midi": 51,
      "hit": false,
      "t": 44869.55400000009,
      "d": 260.8695000000007,
      "v": 81
    },
    {
      "midi": 51,
      "hit": false,
      "t": 45130.42350000009,
      "d": 260.8695000000007,
      "v": 88
    },
    {
      "midi": 61,
      "hit": false,
      "t": 45391.293000000085,
      "d": 521.7390000000014,
      "v": 81
    },
    {
      "midi": 68,
      "hit": false,
      "t": 45391.293000000085,
      "d": 521.7390000000014,
      "v": 55
    },
    {
      "midi": 51,
      "hit": false,
      "t": 45391.29300000009,
      "d": 260.8695000000007,
      "v": 92
    },
    {
      "midi": 51,
      "hit": false,
      "t": 45652.16250000009,
      "d": 260.8695000000007,
      "v": 81
    },
    {
      "midi": 60,
      "hit": false,
      "t": 45913.03200000009,
      "d": 260.8695000000007,
      "v": 87
    },
    {
      "midi": 44,
      "hit": false,
      "t": 45913.032000000094,
      "d": 260.8695000000007,
      "v": 72
    },
    {
      "midi": 63,
      "hit": false,
      "t": 46173.90150000009,
      "d": 260.8695000000007,
      "v": 66
    },
    {
      "midi": 44,
      "hit": false,
      "t": 46173.901500000095,
      "d": 260.8695000000007,
      "v": 77
    },
    {
      "midi": 68,
      "hit": false,
      "t": 46434.77100000009,
      "d": 260.8695000000007,
      "v": 72
    },
    {
      "midi": 44,
      "hit": false,
      "t": 46434.771000000095,
      "d": 260.8695000000007,
      "v": 74
    },
    {
      "midi": 63,
      "hit": false,
      "t": 46695.64050000009,
      "d": 260.8695000000007,
      "v": 55
    },
    {
      "midi": 44,
      "hit": false,
      "t": 46695.640500000096,
      "d": 260.8695000000007,
      "v": 72
    },
    {
      "midi": 63,
      "hit": false,
      "t": 46956.51000000009,
      "d": 260.8695000000007,
      "v": 84
    },
    {
      "midi": 72,
      "hit": false,
      "t": 46956.51000000009,
      "d": 260.8695000000007,
      "v": 84
    },
    {
      "midi": 44,
      "hit": false,
      "t": 46956.5100000001,
      "d": 260.8695000000007,
      "v": 61
    },
    {
      "midi": 70,
      "hit": false,
      "t": 47217.37950000009,
      "d": 260.8695000000007,
      "v": 81
    },
    {
      "midi": 44,
      "hit": false,
      "t": 47217.3795000001,
      "d": 260.8695000000007,
      "v": 74
    },
    {
      "midi": 68,
      "hit": false,
      "t": 47478.24900000009,
      "d": 260.8695000000007,
      "v": 32
    },
    {
      "midi": 44,
      "hit": false,
      "t": 47478.2490000001,
      "d": 260.8695000000007,
      "v": 72
    },
    {
      "midi": 70,
      "hit": false,
      "t": 47739.11850000009,
      "d": 260.8695000000007,
      "v": 77
    },
    {
      "midi": 44,
      "hit": false,
      "t": 47739.1185000001,
      "d": 260.8695000000007,
      "v": 69
    },
    {
      "midi": 44,
      "hit": false,
      "t": 47999.9880000001,
      "d": 260.8695000000007,
      "v": 74
    },
    {
      "midi": 44,
      "hit": false,
      "t": 48260.8575000001,
      "d": 260.8695000000007,
      "v": 72
    },
    {
      "midi": 63,
      "hit": false,
      "t": 48521.72700000009,
      "d": 521.7390000000014,
      "v": 97
    },
    {
      "midi": 68,
      "hit": false,
      "t": 48521.72700000009,
      "d": 521.7390000000014,
      "v": 97
    },
    {
      "midi": 44,
      "hit": false,
      "t": 48521.7270000001,
      "d": 260.8695000000007,
      "v": 59
    },
    {
      "midi": 44,
      "hit": false,
      "t": 48782.5965000001,
      "d": 260.8695000000007,
      "v": 69
    },
    {
      "midi": 68,
      "hit": false,
      "t": 49043.466000000095,
      "d": 521.7390000000014,
      "v": 97
    },
    {
      "midi": 72,
      "hit": false,
      "t": 49043.466000000095,
      "d": 521.7390000000014,
      "v": 97
    },
    {
      "midi": 44,
      "hit": false,
      "t": 49043.4660000001,
      "d": 260.8695000000007,
      "v": 69
    },
    {
      "midi": 44,
      "hit": false,
      "t": 49304.3355000001,
      "d": 260.8695000000007,
      "v": 72
    },
    {
      "midi": 68,
      "hit": false,
      "t": 49565.205000000096,
      "d": 260.8695000000007,
      "v": 97
    },
    {
      "midi": 75,
      "hit": false,
      "t": 49565.205000000096,
      "d": 260.8695000000007,
      "v": 97
    },
    {
      "midi": 44,
      "hit": false,
      "t": 49565.2050000001,
      "d": 260.8695000000007,
      "v": 84
    },
    {
      "midi": 72,
      "hit": false,
      "t": 49826.0745000001,
      "d": 260.8695000000007,
      "v": 97
    },
    {
      "midi": 48,
      "hit": false,
      "t": 49826.074500000104,
      "d": 260.8695000000007,
      "v": 97
    },
    {
      "midi": 68,
      "hit": false,
      "t": 50086.9440000001,
      "d": 2086.9559999999983,
      "v": 66
    },
    {
      "midi": 73,
      "hit": false,
      "t": 50086.9440000001,
      "d": 2086.9559999999983,
      "v": 63
    },
    {
      "midi": 77,
      "hit": false,
      "t": 50086.9440000001,
      "d": 2086.9559999999983,
      "v": 97
    },
    {
      "midi": 49,
      "hit": false,
      "t": 50086.944000000105,
      "d": 260.8695000000007,
      "v": 63
    },
    {
      "midi": 49,
      "hit": false,
      "t": 50347.813500000106,
      "d": 260.8695000000007,
      "v": 74
    },
    {
      "midi": 49,
      "hit": false,
      "t": 50608.68300000011,
      "d": 260.8695000000007,
      "v": 77
    },
    {
      "midi": 49,
      "hit": false,
      "t": 50869.55250000011,
      "d": 260.8695000000007,
      "v": 84
    },
    {
      "midi": 49,
      "hit": false,
      "t": 51130.42200000011,
      "d": 260.8695000000007,
      "v": 77
    },
    {
      "midi": 49,
      "hit": false,
      "t": 51391.29150000011,
      "d": 260.8695000000007,
      "v": 69
    },
    {
      "midi": 49,
      "hit": false,
      "t": 51652.16100000011,
      "d": 260.8695000000007,
      "v": 74
    },
    {
      "midi": 49,
      "hit": false,
      "t": 51913.03050000011,
      "d": 260.8695000000007,
      "v": 81
    },
    {
      "midi": 49,
      "hit": false,
      "t": 52173.90000000011,
      "d": 260.8695000000007,
      "v": 88
    },
    {
      "midi": 47,
      "hit": false,
      "t": 52434.76950000011,
      "d": 260.8695000000007,
      "v": 82
    },
    {
      "midi": 68,
      "hit": false,
      "t": 52695.6390000001,
      "d": 260.8695000000007,
      "v": 69
    },
    {
      "midi": 73,
      "hit": false,
      "t": 52695.6390000001,
      "d": 260.8695000000007,
      "v": 77
    },
    {
      "midi": 77,
      "hit": false,
      "t": 52695.6390000001,
      "d": 260.8695000000007,
      "v": 78
    },
    {
      "midi": 47,
      "hit": false,
      "t": 52695.63900000011,
      "d": 260.8695000000007,
      "v": 65
    },
    {
      "midi": 68,
      "hit": false,
      "t": 52956.5085000001,
      "d": 260.8695000000007,
      "v": 74
    },
    {
      "midi": 73,
      "hit": false,
      "t": 52956.5085000001,
      "d": 260.8695000000007,
      "v": 84
    },
    {
      "midi": 77,
      "hit": false,
      "t": 52956.5085000001,
      "d": 260.8695000000007,
      "v": 95
    },
    {
      "midi": 47,
      "hit": false,
      "t": 52956.50850000011,
      "d": 260.8695000000007,
      "v": 72
    },
    {
      "midi": 65,
      "hit": false,
      "t": 53217.3780000001,
      "d": 782.6085000000021,
      "v": 57
    },
    {
      "midi": 68,
      "hit": false,
      "t": 53217.3780000001,
      "d": 782.6085000000021,
      "v": 84
    },
    {
      "midi": 75,
      "hit": false,
      "t": 53217.3780000001,
      "d": 782.6085000000021,
      "v": 72
    },
    {
      "midi": 46,
      "hit": false,
      "t": 53217.37800000011,
      "d": 260.8695000000007,
      "v": 84
    },
    {
      "midi": 46,
      "hit": false,
      "t": 53478.247500000114,
      "d": 260.8695000000007,
      "v": 88
    },
    {
      "midi": 46,
      "hit": false,
      "t": 53739.117000000115,
      "d": 260.8695000000007,
      "v": 88
    },
    {
      "midi": 61,
      "hit": false,
      "t": 53999.9865000001,
      "d": 260.8695000000007,
      "v": 77
    },
    {
      "midi": 65,
      "hit": false,
      "t": 53999.9865000001,
      "d": 260.8695000000007,
      "v": 97
    },
    {
      "midi": 68,
      "hit": false,
      "t": 53999.9865000001,
      "d": 260.8695000000007,
      "v": 88
    },
    {
      "midi": 46,
      "hit": false,
      "t": 53999.986500000115,
      "d": 260.8695000000007,
      "v": 96
    },
    {
      "midi": 63,
      "hit": false,
      "t": 54260.8560000001,
      "d": 1043.4780000000028,
      "v": 88
    },
    {
      "midi": 68,
      "hit": false,
      "t": 54260.8560000001,
      "d": 1043.4780000000028,
      "v": 74
    },
    {
      "midi": 72,
      "hit": false,
      "t": 54260.8560000001,
      "d": 1043.4780000000028,
      "v": 89
    },
    {
      "midi": 44,
      "hit": false,
      "t": 54260.856000000116,
      "d": 260.8695000000007,
      "v": 66
    },
    {
      "midi": 44,
      "hit": false,
      "t": 54521.72550000012,
      "d": 260.8695000000007,
      "v": 100
    },
    {
      "midi": 44,
      "hit": false,
      "t": 54782.59500000012,
      "d": 260.8695000000007,
      "v": 96
    },
    {
      "midi": 44,
      "hit": false,
      "t": 55043.46450000012,
      "d": 260.8695000000007,
      "v": 92
    },
    {
      "midi": 63,
      "hit": false,
      "t": 55304.334000000104,
      "d": 260.8695000000007,
      "v": 84
    },
    {
      "midi": 72,
      "hit": false,
      "t": 55304.334000000104,
      "d": 260.8695000000007,
      "v": 87
    },
    {
      "midi": 44,
      "hit": false,
      "t": 55304.33400000012,
      "d": 260.8695000000007,
      "v": 92
    },
    {
      "midi": 70,
      "hit": false,
      "t": 55565.203500000105,
      "d": 260.8695000000007,
      "v": 92
    },
    {
      "midi": 44,
      "hit": false,
      "t": 55565.20350000012,
      "d": 260.8695000000007,
      "v": 74
    },
    {
      "midi": 68,
      "hit": false,
      "t": 55826.073000000106,
      "d": 260.8695000000007,
      "v": 92
    },
    {
      "midi": 44,
      "hit": false,
      "t": 55826.07300000012,
      "d": 260.8695000000007,
      "v": 66
    },
    {
      "midi": 70,
      "hit": false,
      "t": 56086.94250000011,
      "d": 260.8695000000007,
      "v": 55
    },
    {
      "midi": 44,
      "hit": false,
      "t": 56086.94250000012,
      "d": 260.8695000000007,
      "v": 69
    },
    {
      "midi": 72,
      "hit": false,
      "t": 56347.81200000011,
      "d": 521.7390000000014,
      "v": 88
    },
    {
      "midi": 44,
      "hit": false,
      "t": 56347.81200000012,
      "d": 260.8695000000007,
      "v": 88
    },
    {
      "midi": 44,
      "hit": false,
      "t": 56608.68150000012,
      "d": 260.8695000000007,
      "v": 81
    },
    {
      "midi": 80,
      "hit": false,
      "t": 56869.55100000011,
      "d": 260.8695000000007,
      "v": 72
    },
    {
      "midi": 44,
      "hit": false,
      "t": 56869.55100000012,
      "d": 260.8695000000007,
      "v": 72
    },
    {
      "midi": 77,
      "hit": false,
      "t": 57130.42050000011,
      "d": 260.8695000000007,
      "v": 104
    },
    {
      "midi": 44,
      "hit": false,
      "t": 57130.420500000124,
      "d": 260.8695000000007,
      "v": 81
    },
    {
      "midi": 72,
      "hit": false,
      "t": 57391.29000000011,
      "d": 521.7390000000014,
      "v": 84
    },
    {
      "midi": 80,
      "hit": false,
      "t": 57391.29000000011,
      "d": 521.7390000000014,
      "v": 88
    },
    {
      "midi": 44,
      "hit": false,
      "t": 57391.290000000125,
      "d": 260.8695000000007,
      "v": 77
    },
    {
      "midi": 44,
      "hit": false,
      "t": 57652.159500000125,
      "d": 260.8695000000007,
      "v": 77
    },
    {
      "midi": 80,
      "hit": false,
      "t": 57913.02900000011,
      "d": 260.8695000000007,
      "v": 92
    },
    {
      "midi": 44,
      "hit": false,
      "t": 57913.029000000126,
      "d": 260.8695000000007,
      "v": 81
    },
    {
      "midi": 77,
      "hit": false,
      "t": 58173.89850000011,
      "d": 260.8695000000007,
      "v": 101
    },
    {
      "midi": 44,
      "hit": false,
      "t": 58173.89850000013,
      "d": 260.8695000000007,
      "v": 84
    },
    {
      "midi": 74,
      "hit": false,
      "t": 58434.76800000011,
      "d": 260.8695000000007,
      "v": 104
    },
    {
      "midi": 46,
      "hit": false,
      "t": 58434.76800000013,
      "d": 260.8695000000007,
      "v": 63
    },
    {
      "midi": 80,
      "hit": false,
      "t": 58695.63750000011,
      "d": 260.8695000000007,
      "v": 66
    },
    {
      "midi": 46,
      "hit": false,
      "t": 58695.63750000013,
      "d": 260.8695000000007,
      "v": 92
    },
    {
      "midi": 77,
      "hit": false,
      "t": 58956.507000000114,
      "d": 521.7390000000014,
      "v": 95
    },
    {
      "midi": 46,
      "hit": false,
      "t": 58956.50700000013,
      "d": 260.8695000000007,
      "v": 88
    },
    {
      "midi": 46,
      "hit": false,
      "t": 59217.37650000013,
      "d": 260.8695000000007,
      "v": 69
    },
    {
      "midi": 74,
      "hit": false,
      "t": 59478.246000000116,
      "d": 260.8695000000007,
      "v": 97
    },
    {
      "midi": 46,
      "hit": false,
      "t": 59478.24600000013,
      "d": 260.8695000000007,
      "v": 81
    },
    {
      "midi": 72,
      "hit": false,
      "t": 59739.115500000116,
      "d": 260.8695000000007,
      "v": 72
    },
    {
      "midi": 46,
      "hit": false,
      "t": 59739.11550000013,
      "d": 260.8695000000007,
      "v": 81
    },
    {
      "midi": 70,
      "hit": false,
      "t": 59999.98500000012,
      "d": 260.8695000000007,
      "v": 72
    },
    {
      "midi": 46,
      "hit": false,
      "t": 59999.98500000013,
      "d": 260.8695000000007,
      "v": 69
    },
    {
      "midi": 72,
      "hit": false,
      "t": 60260.85450000012,
      "d": 260.8695000000007,
      "v": 55
    },
    {
      "midi": 46,
      "hit": false,
      "t": 60260.85450000013,
      "d": 260.8695000000007,
      "v": 65
    },
    {
      "midi": 46,
      "hit": false,
      "t": 60521.72400000013,
      "d": 260.8695000000007,
      "v": 66
    },
    {
      "midi": 77,
      "hit": false,
      "t": 60782.59350000012,
      "d": 260.8695000000007,
      "v": 89
    },
    {
      "midi": 46,
      "hit": false,
      "t": 60782.593500000134,
      "d": 260.8695000000007,
      "v": 61
    },
    {
      "midi": 74,
      "hit": false,
      "t": 61043.46300000012,
      "d": 260.8695000000007,
      "v": 50
    },
    {
      "midi": 82,
      "hit": false,
      "t": 61043.46300000012,
      "d": 260.8695000000007,
      "v": 53
    },
    {
      "midi": 46,
      "hit": false,
      "t": 61043.463000000134,
      "d": 260.8695000000007,
      "v": 57
    },
    {
      "midi": 74,
      "hit": false,
      "t": 61304.33250000012,
      "d": 260.8695000000007,
      "v": 108
    },
    {
      "midi": 82,
      "hit": false,
      "t": 61304.33250000012,
      "d": 260.8695000000007,
      "v": 66
    },
    {
      "midi": 46,
      "hit": false,
      "t": 61304.332500000135,
      "d": 260.8695000000007,
      "v": 53
    },
    {
      "midi": 68,
      "hit": false,
      "t": 61565.20200000012,
      "d": 260.8695000000007,
      "v": 74
    },
    {
      "midi": 74,
      "hit": false,
      "t": 61565.20200000012,
      "d": 260.8695000000007,
      "v": 82
    },
    {
      "midi": 79,
      "hit": false,
      "t": 61565.20200000012,
      "d": 260.8695000000007,
      "v": 84
    },
    {
      "midi": 46,
      "hit": false,
      "t": 61565.202000000136,
      "d": 260.8695000000007,
      "v": 63
    },
    {
      "midi": 77,
      "hit": false,
      "t": 61826.07150000012,
      "d": 521.7390000000014,
      "v": 104
    },
    {
      "midi": 46,
      "hit": false,
      "t": 61826.07150000014,
      "d": 260.8695000000007,
      "v": 57
    },
    {
      "midi": 46,
      "hit": false,
      "t": 62086.94100000014,
      "d": 260.8695000000007,
      "v": 49
    },
    {
      "midi": 75,
      "hit": false,
      "t": 62347.81050000012,
      "d": 260.8695000000007,
      "v": 77
    },
    {
      "midi": 46,
      "hit": false,
      "t": 62347.81050000014,
      "d": 260.8695000000007,
      "v": 66
    },
    {
      "midi": 67,
      "hit": false,
      "t": 62608.680000000124,
      "d": 1043.4780000000028,
      "v": 84
    },
    {
      "midi": 70,
      "hit": false,
      "t": 62608.680000000124,
      "d": 1043.4780000000028,
      "v": 63
    },
    {
      "midi": 75,
      "hit": false,
      "t": 62608.680000000124,
      "d": 1043.4780000000028,
      "v": 69
    },
    {
      "midi": 51,
      "hit": false,
      "t": 62608.68000000014,
      "d": 260.8695000000007,
      "v": 66
    },
    {
      "midi": 51,
      "hit": false,
      "t": 62869.54950000014,
      "d": 260.8695000000007,
      "v": 74
    },
    {
      "midi": 51,
      "hit": false,
      "t": 63130.41900000014,
      "d": 260.8695000000007,
      "v": 59
    },
    {
      "midi": 51,
      "hit": false,
      "t": 63391.28850000014,
      "d": 260.8695000000007,
      "v": 74
    },
    {
      "midi": 67,
      "hit": false,
      "t": 63652.15800000013,
      "d": 260.8695000000007,
      "v": 97
    },
    {
      "midi": 70,
      "hit": false,
      "t": 63652.15800000013,
      "d": 260.8695000000007,
      "v": 84
    },
    {
      "midi": 39,
      "hit": false,
      "t": 63652.15800000014,
      "d": 260.8695000000007,
      "v": 88
    },
    {
      "midi": 65,
      "hit": false,
      "t": 63913.02750000013,
      "d": 260.8695000000007,
      "v": 82
    },
    {
      "midi": 39,
      "hit": false,
      "t": 63913.02750000014,
      "d": 260.8695000000007,
      "v": 84
    },
    {
      "midi": 63,
      "hit": false,
      "t": 64173.89700000013,
      "d": 260.8695000000007,
      "v": 46
    },
    {
      "midi": 39,
      "hit": false,
      "t": 64173.89700000014,
      "d": 260.8695000000007,
      "v": 77
    },
    {
      "midi": 65,
      "hit": false,
      "t": 64434.76650000013,
      "d": 260.8695000000007,
      "v": 60
    },
    {
      "midi": 39,
      "hit": false,
      "t": 64434.76650000014,
      "d": 260.8695000000007,
      "v": 81
    },
    {
      "midi": 67,
      "hit": false,
      "t": 64695.63600000013,
      "d": 521.7390000000014,
      "v": 78
    },
    {
      "midi": 39,
      "hit": false,
      "t": 64695.636000000144,
      "d": 260.8695000000007,
      "v": 69
    },
    {
      "midi": 39,
      "hit": false,
      "t": 64956.505500000145,
      "d": 260.8695000000007,
      "v": 74
    },
    {
      "midi": 72,
      "hit": false,
      "t": 65217.37500000013,
      "d": 260.8695000000007,
      "v": 92
    },
    {
      "midi": 39,
      "hit": false,
      "t": 65217.375000000146,
      "d": 260.8695000000007,
      "v": 72
    },
    {
      "midi": 73,
      "hit": false,
      "t": 65478.24450000013,
      "d": 260.8695000000007,
      "v": 63
    },
    {
      "midi": 39,
      "hit": false,
      "t": 65478.244500000146,
      "d": 260.8695000000007,
      "v": 72
    },
    {
      "midi": 72,
      "hit": false,
      "t": 65739.11400000013,
      "d": 521.7390000000014,
      "v": 101
    },
    {
      "midi": 39,
      "hit": false,
      "t": 65739.11400000015,
      "d": 260.8695000000007,
      "v": 55
    },
    {
      "midi": 39,
      "hit": false,
      "t": 65999.98350000015,
      "d": 260.8695000000007,
      "v": 69
    },
    {
      "midi": 61,
      "hit": false,
      "t": 66260.85300000013,
      "d": 260.8695000000007,
      "v": 69
    },
    {
      "midi": 70,
      "hit": false,
      "t": 66260.85300000013,
      "d": 260.8695000000007,
      "v": 84
    },
    {
      "midi": 39,
      "hit": false,
      "t": 66260.85300000015,
      "d": 260.8695000000007,
      "v": 69
    },
    {
      "midi": 68,
      "hit": false,
      "t": 66521.72250000013,
      "d": 260.8695000000007,
      "v": 88
    },
    {
      "midi": 39,
      "hit": false,
      "t": 66521.72250000015,
      "d": 260.8695000000007,
      "v": 72
    },
    {
      "midi": 68,
      "hit": false,
      "t": 66782.59200000014,
      "d": 260.8695000000007,
      "v": 108
    },
    {
      "midi": 44,
      "hit": false,
      "t": 66782.59200000015,
      "d": 260.8695000000007,
      "v": 74
    },
    {
      "midi": 60,
      "hit": false,
      "t": 67043.46150000014,
      "d": 260.8695000000007,
      "v": 88
    },
    {
      "midi": 44,
      "hit": false,
      "t": 67043.46150000015,
      "d": 260.8695000000007,
      "v": 65
    },
    {
      "midi": 63,
      "hit": false,
      "t": 67304.33100000014,
      "d": 260.8695000000007,
      "v": 54
    },
    {
      "midi": 44,
      "hit": false,
      "t": 67304.33100000015,
      "d": 260.8695000000007,
      "v": 51
    },
    {
      "midi": 60,
      "hit": false,
      "t": 67565.20050000014,
      "d": 260.8695000000007,
      "v": 53
    },
    {
      "midi": 44,
      "hit": false,
      "t": 67565.20050000015,
      "d": 260.8695000000007,
      "v": 77
    },
    {
      "midi": 63,
      "hit": false,
      "t": 67826.07000000014,
      "d": 260.8695000000007,
      "v": 65
    },
    {
      "midi": 72,
      "hit": false,
      "t": 67826.07000000014,
      "d": 260.8695000000007,
      "v": 97
    },
    {
      "midi": 44,
      "hit": false,
      "t": 67826.07000000015,
      "d": 260.8695000000007,
      "v": 81
    },
    {
      "midi": 70,
      "hit": false,
      "t": 68086.93950000014,
      "d": 260.8695000000007,
      "v": 74
    },
    {
      "midi": 44,
      "hit": false,
      "t": 68086.93950000015,
      "d": 260.8695000000007,
      "v": 63
    },
    {
      "midi": 68,
      "hit": false,
      "t": 68347.80900000014,
      "d": 260.8695000000007,
      "v": 84
    },
    {
      "midi": 44,
      "hit": false,
      "t": 68347.80900000015,
      "d": 260.8695000000007,
      "v": 57
    },
    {
      "midi": 70,
      "hit": false,
      "t": 68608.67850000014,
      "d": 260.8695000000007,
      "v": 81
    },
    {
      "midi": 44,
      "hit": false,
      "t": 68608.67850000015,
      "d": 260.8695000000007,
      "v": 63
    },
    {
      "midi": 63,
      "hit": false,
      "t": 68869.54800000014,
      "d": 521.7390000000014,
      "v": 74
    },
    {
      "midi": 44,
      "hit": false,
      "t": 68869.54800000016,
      "d": 260.8695000000007,
      "v": 69
    },
    {
      "midi": 44,
      "hit": false,
      "t": 69130.41750000016,
      "d": 260.8695000000007,
      "v": 61
    },
    {
      "midi": 72,
      "hit": false,
      "t": 69391.28700000014,
      "d": 260.8695000000007,
      "v": 101
    },
    {
      "midi": 44,
      "hit": false,
      "t": 69391.28700000016,
      "d": 260.8695000000007,
      "v": 65
    },
    {
      "midi": 73,
      "hit": false,
      "t": 69652.15650000014,
      "d": 260.8695000000007,
      "v": 84
    },
    {
      "midi": 44,
      "hit": false,
      "t": 69652.15650000016,
      "d": 260.8695000000007,
      "v": 63
    },
    {
      "midi": 72,
      "hit": false,
      "t": 69913.02600000014,
      "d": 521.7390000000014,
      "v": 101
    },
    {
      "midi": 44,
      "hit": false,
      "t": 69913.02600000016,
      "d": 260.8695000000007,
      "v": 77
    },
    {
      "midi": 44,
      "hit": false,
      "t": 70173.89550000016,
      "d": 260.8695000000007,
      "v": 81
    },
    {
      "midi": 60,
      "hit": false,
      "t": 70434.76500000014,
      "d": 260.8695000000007,
      "v": 87
    },
    {
      "midi": 70,
      "hit": false,
      "t": 70434.76500000014,
      "d": 260.8695000000007,
      "v": 72
    },
    {
      "midi": 44,
      "hit": false,
      "t": 70434.76500000016,
      "d": 260.8695000000007,
      "v": 92
    },
    {
      "midi": 68,
      "hit": false,
      "t": 70695.63450000015,
      "d": 260.8695000000007,
      "v": 59
    },
    {
      "midi": 44,
      "hit": false,
      "t": 70695.63450000016,
      "d": 260.8695000000007,
      "v": 84
    },
    {
      "midi": 68,
      "hit": false,
      "t": 70956.50400000015,
      "d": 260.8695000000007,
      "v": 77
    },
    {
      "midi": 41,
      "hit": false,
      "t": 70956.50400000016,
      "d": 260.8695000000007,
      "v": 69
    },
    {
      "midi": 60,
      "hit": false,
      "t": 71217.37350000015,
      "d": 260.8695000000007,
      "v": 53
    },
    {
      "midi": 41,
      "hit": false,
      "t": 71217.37350000016,
      "d": 260.8695000000007,
      "v": 82
    },
    {
      "midi": 67,
      "hit": false,
      "t": 71478.24300000015,
      "d": 260.8695000000007,
      "v": 92
    },
    {
      "midi": 41,
      "hit": false,
      "t": 71478.24300000016,
      "d": 260.8695000000007,
      "v": 76
    },
    {
      "midi": 60,
      "hit": false,
      "t": 71739.11250000015,
      "d": 260.8695000000007,
      "v": 62
    },
    {
      "midi": 41,
      "hit": false,
      "t": 71739.11250000016,
      "d": 260.8695000000007,
      "v": 82
    },
    {
      "midi": 60,
      "hit": false,
      "t": 71999.98200000015,
      "d": 260.8695000000007,
      "v": 84
    },
    {
      "midi": 68,
      "hit": false,
      "t": 71999.98200000015,
      "d": 260.8695000000007,
      "v": 81
    },
    {
      "midi": 41,
      "hit": false,
      "t": 71999.98200000016,
      "d": 260.8695000000007,
      "v": 67
    },
    {
      "midi": 67,
      "hit": false,
      "t": 72260.85150000015,
      "d": 260.8695000000007,
      "v": 97
    },
    {
      "midi": 41,
      "hit": false,
      "t": 72260.85150000016,
      "d": 260.8695000000007,
      "v": 68
    },
    {
      "midi": 65,
      "hit": false,
      "t": 72521.72100000015,
      "d": 260.8695000000007,
      "v": 89
    },
    {
      "midi": 41,
      "hit": false,
      "t": 72521.72100000017,
      "d": 260.8695000000007,
      "v": 82
    },
    {
      "midi": 67,
      "hit": false,
      "t": 72782.59050000015,
      "d": 260.8695000000007,
      "v": 97
    },
    {
      "midi": 41,
      "hit": false,
      "t": 72782.59050000017,
      "d": 260.8695000000007,
      "v": 76
    },
    {
      "midi": 60,
      "hit": false,
      "t": 73043.46000000015,
      "d": 260.8695000000007,
      "v": 76
    },
    {
      "midi": 41,
      "hit": false,
      "t": 73043.46000000017,
      "d": 260.8695000000007,
      "v": 65
    },
    {
      "midi": 68,
      "hit": false,
      "t": 73304.32950000015,
      "d": 260.8695000000007,
      "v": 69
    },
    {
      "midi": 41,
      "hit": false,
      "t": 73304.32950000017,
      "d": 260.8695000000007,
      "v": 89
    },
    {
      "midi": 68,
      "hit": false,
      "t": 73565.19900000015,
      "d": 260.8695000000007,
      "v": 81
    },
    {
      "midi": 41,
      "hit": false,
      "t": 73565.19900000017,
      "d": 260.8695000000007,
      "v": 95
    },
    {
      "midi": 63,
      "hit": false,
      "t": 73826.06850000015,
      "d": 521.7390000000014,
      "v": 69
    },
    {
      "midi": 72,
      "hit": false,
      "t": 73826.06850000015,
      "d": 521.7390000000014,
      "v": 89
    },
    {
      "midi": 41,
      "hit": false,
      "t": 73826.06850000017,
      "d": 260.8695000000007,
      "v": 74
    },
    {
      "midi": 41,
      "hit": false,
      "t": 74086.93800000017,
      "d": 260.8695000000007,
      "v": 76
    },
    {
      "midi": 65,
      "hit": false,
      "t": 74347.80750000016,
      "d": 521.7390000000014,
      "v": 80
    },
    {
      "midi": 73,
      "hit": false,
      "t": 74347.80750000016,
      "d": 521.7390000000014,
      "v": 81
    },
    {
      "midi": 41,
      "hit": false,
      "t": 74347.80750000017,
      "d": 260.8695000000007,
      "v": 87
    },
    {
      "midi": 41,
      "hit": false,
      "t": 74608.67700000017,
      "d": 260.8695000000007,
      "v": 95
    },
    {
      "midi": 65,
      "hit": false,
      "t": 74869.54650000016,
      "d": 260.8695000000007,
      "v": 95
    },
    {
      "midi": 68,
      "hit": false,
      "t": 74869.54650000016,
      "d": 260.8695000000007,
      "v": 92
    },
    {
      "midi": 49,
      "hit": false,
      "t": 74869.54650000017,
      "d": 260.8695000000007,
      "v": 88
    },
    {
      "midi": 49,
      "hit": false,
      "t": 75130.41600000017,
      "d": 260.8695000000007,
      "v": 84
    },
    {
      "midi": 68,
      "hit": false,
      "t": 75391.28550000016,
      "d": 260.8695000000007,
      "v": 69
    },
    {
      "midi": 49,
      "hit": false,
      "t": 75391.28550000017,
      "d": 260.8695000000007,
      "v": 66
    },
    {
      "midi": 68,
      "hit": false,
      "t": 75652.15500000016,
      "d": 260.8695000000007,
      "v": 74
    },
    {
      "midi": 49,
      "hit": false,
      "t": 75652.15500000017,
      "d": 260.8695000000007,
      "v": 77
    },
    {
      "midi": 65,
      "hit": false,
      "t": 75913.02450000016,
      "d": 521.7390000000014,
      "v": 87
    },
    {
      "midi": 73,
      "hit": false,
      "t": 75913.02450000016,
      "d": 521.7390000000014,
      "v": 84
    },
    {
      "midi": 49,
      "hit": false,
      "t": 75913.02450000017,
      "d": 260.8695000000007,
      "v": 81
    },
    {
      "midi": 49,
      "hit": false,
      "t": 76173.89400000017,
      "d": 260.8695000000007,
      "v": 84
    },
    {
      "midi": 72,
      "hit": false,
      "t": 76434.76350000016,
      "d": 521.7390000000014,
      "v": 97
    },
    {
      "midi": 49,
      "hit": false,
      "t": 76434.76350000018,
      "d": 260.8695000000007,
      "v": 88
    },
    {
      "midi": 49,
      "hit": false,
      "t": 76695.63300000018,
      "d": 260.8695000000007,
      "v": 92
    },
    {
      "midi": 67,
      "hit": false,
      "t": 76956.50250000016,
      "d": 260.8695000000007,
      "v": 84
    },
    {
      "midi": 70,
      "hit": false,
      "t": 76956.50250000016,
      "d": 260.8695000000007,
      "v": 77
    },
    {
      "midi": 51,
      "hit": false,
      "t": 76956.50250000018,
      "d": 260.8695000000007,
      "v": 74
    },
    {
      "midi": 51,
      "hit": false,
      "t": 77217.37200000018,
      "d": 260.8695000000007,
      "v": 92
    },
    {
      "midi": 63,
      "hit": false,
      "t": 77478.24150000016,
      "d": 260.8695000000007,
      "v": 57
    },
    {
      "midi": 70,
      "hit": false,
      "t": 77478.24150000016,
      "d": 260.8695000000007,
      "v": 66
    },
    {
      "midi": 51,
      "hit": false,
      "t": 77478.24150000018,
      "d": 260.8695000000007,
      "v": 69
    },
    {
      "midi": 68,
      "hit": false,
      "t": 77739.11100000016,
      "d": 260.8695000000007,
      "v": 88
    },
    {
      "midi": 51,
      "hit": false,
      "t": 77739.11100000018,
      "d": 260.8695000000007,
      "v": 92
    },
    {
      "midi": 72,
      "hit": false,
      "t": 77999.98050000017,
      "d": 260.8695000000007,
      "v": 89
    },
    {
      "midi": 51,
      "hit": false,
      "t": 77999.98050000018,
      "d": 260.8695000000007,
      "v": 81
    },
    {
      "midi": 68,
      "hit": false,
      "t": 78260.85000000017,
      "d": 521.7390000000014,
      "v": 88
    },
    {
      "midi": 51,
      "hit": false,
      "t": 78260.85000000018,
      "d": 260.8695000000007,
      "v": 84
    },
    {
      "midi": 51,
      "hit": false,
      "t": 78521.71950000018,
      "d": 260.8695000000007,
      "v": 72
    },
    {
      "midi": 61,
      "hit": false,
      "t": 78782.58900000017,
      "d": 521.7390000000014,
      "v": 81
    },
    {
      "midi": 68,
      "hit": false,
      "t": 78782.58900000017,
      "d": 521.7390000000014,
      "v": 84
    },
    {
      "midi": 51,
      "hit": false,
      "t": 78782.58900000018,
      "d": 260.8695000000007,
      "v": 72
    },
    {
      "midi": 51,
      "hit": false,
      "t": 79043.45850000018,
      "d": 260.8695000000007,
      "v": 81
    },
    {
      "midi": 41,
      "hit": false,
      "t": 79304.32800000018,
      "d": 260.8695000000007,
      "v": 95
    },
    {
      "midi": 60,
      "hit": false,
      "t": 79565.19750000017,
      "d": 260.8695000000007,
      "v": 89
    },
    {
      "midi": 41,
      "hit": false,
      "t": 79565.19750000018,
      "d": 260.8695000000007,
      "v": 82
    },
    {
      "midi": 67,
      "hit": false,
      "t": 79826.06700000017,
      "d": 260.8695000000007,
      "v": 88
    },
    {
      "midi": 41,
      "hit": false,
      "t": 79826.06700000018,
      "d": 260.8695000000007,
      "v": 82
    },
    {
      "midi": 60,
      "hit": false,
      "t": 80086.93650000017,
      "d": 260.8695000000007,
      "v": 113
    },
    {
      "midi": 41,
      "hit": false,
      "t": 80086.93650000019,
      "d": 260.8695000000007,
      "v": 71
    },
    {
      "midi": 60,
      "hit": false,
      "t": 80347.80600000017,
      "d": 260.8695000000007,
      "v": 92
    },
    {
      "midi": 68,
      "hit": false,
      "t": 80347.80600000017,
      "d": 260.8695000000007,
      "v": 89
    },
    {
      "midi": 41,
      "hit": false,
      "t": 80347.80600000019,
      "d": 260.8695000000007,
      "v": 92
    },
    {
      "midi": 67,
      "hit": false,
      "t": 80608.67550000017,
      "d": 260.8695000000007,
      "v": 89
    },
    {
      "midi": 41,
      "hit": false,
      "t": 80608.67550000019,
      "d": 260.8695000000007,
      "v": 87
    },
    {
      "midi": 65,
      "hit": false,
      "t": 80869.54500000017,
      "d": 260.8695000000007,
      "v": 92
    },
    {
      "midi": 41,
      "hit": false,
      "t": 80869.54500000019,
      "d": 260.8695000000007,
      "v": 78
    },
    {
      "midi": 67,
      "hit": false,
      "t": 81130.41450000017,
      "d": 260.8695000000007,
      "v": 95
    },
    {
      "midi": 41,
      "hit": false,
      "t": 81130.41450000019,
      "d": 260.8695000000007,
      "v": 78
    },
    {
      "midi": 41,
      "hit": false,
      "t": 81391.28400000019,
      "d": 260.8695000000007,
      "v": 84
    },
    {
      "midi": 60,
      "hit": false,
      "t": 81652.15350000017,
      "d": 260.8695000000007,
      "v": 95
    },
    {
      "midi": 41,
      "hit": false,
      "t": 81652.15350000019,
      "d": 260.8695000000007,
      "v": 87
    },
    {
      "midi": 67,
      "hit": false,
      "t": 81913.02300000018,
      "d": 260.8695000000007,
      "v": 97
    },
    {
      "midi": 41,
      "hit": false,
      "t": 81913.02300000019,
      "d": 260.8695000000007,
      "v": 78
    },
    {
      "midi": 60,
      "hit": false,
      "t": 82173.89250000018,
      "d": 260.8695000000007,
      "v": 95
    },
    {
      "midi": 41,
      "hit": false,
      "t": 82173.89250000019,
      "d": 260.8695000000007,
      "v": 80
    },
    {
      "midi": 60,
      "hit": false,
      "t": 82434.76200000018,
      "d": 260.8695000000007,
      "v": 53
    },
    {
      "midi": 68,
      "hit": false,
      "t": 82434.76200000018,
      "d": 260.8695000000007,
      "v": 29
    },
    {
      "midi": 41,
      "hit": false,
      "t": 82434.76200000019,
      "d": 260.8695000000007,
      "v": 78
    },
    {
      "midi": 67,
      "hit": false,
      "t": 82695.63150000018,
      "d": 260.8695000000007,
      "v": 101
    },
    {
      "midi": 41,
      "hit": false,
      "t": 82695.63150000019,
      "d": 260.8695000000007,
      "v": 78
    },
    {
      "midi": 65,
      "hit": false,
      "t": 82956.50100000018,
      "d": 260.8695000000007,
      "v": 95
    },
    {
      "midi": 41,
      "hit": false,
      "t": 82956.5010000002,
      "d": 260.8695000000007,
      "v": 87
    },
    {
      "midi": 67,
      "hit": false,
      "t": 83217.37050000018,
      "d": 260.8695000000007,
      "v": 80
    },
    {
      "midi": 41,
      "hit": false,
      "t": 83217.3705000002,
      "d": 260.8695000000007,
      "v": 84
    },
    {
      "midi": 40,
      "hit": false,
      "t": 83478.2400000002,
      "d": 260.8695000000007,
      "v": 80
    },
    {
      "midi": 71,
      "hit": false,
      "t": 83739.10950000018,
      "d": 260.8695000000007,
      "v": 84
    },
    {
      "midi": 80,
      "hit": false,
      "t": 83739.10950000018,
      "d": 260.8695000000007,
      "v": 77
    },
    {
      "midi": 40,
      "hit": false,
      "t": 83739.1095000002,
      "d": 260.8695000000007,
      "v": 92
    },
    {
      "midi": 71,
      "hit": false,
      "t": 83999.97900000018,
      "d": 260.8695000000007,
      "v": 92
    },
    {
      "midi": 80,
      "hit": false,
      "t": 83999.97900000018,
      "d": 260.8695000000007,
      "v": 88
    },
    {
      "midi": 52,
      "hit": false,
      "t": 83999.9790000002,
      "d": 260.8695000000007,
      "v": 97
    },
    {
      "midi": 71,
      "hit": false,
      "t": 84260.84850000018,
      "d": 521.7390000000014,
      "v": 84
    },
    {
      "midi": 80,
      "hit": false,
      "t": 84260.84850000018,
      "d": 521.7390000000014,
      "v": 92
    },
    {
      "midi": 40,
      "hit": false,
      "t": 84260.8485000002,
      "d": 260.8695000000007,
      "v": 84
    },
    {
      "midi": 40,
      "hit": false,
      "t": 84521.7180000002,
      "d": 260.8695000000007,
      "v": 92
    },
    {
      "midi": 71,
      "hit": false,
      "t": 84782.58750000018,
      "d": 260.8695000000007,
      "v": 63
    },
    {
      "midi": 78,
      "hit": false,
      "t": 84782.58750000018,
      "d": 260.8695000000007,
      "v": 66
    },
    {
      "midi": 40,
      "hit": false,
      "t": 84782.5875000002,
      "d": 260.8695000000007,
      "v": 69
    },
    {
      "midi": 71,
      "hit": false,
      "t": 85043.45700000018,
      "d": 260.8695000000007,
      "v": 82
    },
    {
      "midi": 78,
      "hit": false,
      "t": 85043.45700000018,
      "d": 260.8695000000007,
      "v": 74
    },
    {
      "midi": 52,
      "hit": false,
      "t": 85043.4570000002,
      "d": 260.8695000000007,
      "v": 104
    },
    {
      "midi": 71,
      "hit": false,
      "t": 85304.32650000018,
      "d": 260.8695000000007,
      "v": 78
    },
    {
      "midi": 78,
      "hit": false,
      "t": 85304.32650000018,
      "d": 260.8695000000007,
      "v": 84
    },
    {
      "midi": 40,
      "hit": false,
      "t": 85304.3265000002,
      "d": 260.8695000000007,
      "v": 78
    },
    {
      "midi": 40,
      "hit": false,
      "t": 85565.1960000002,
      "d": 260.8695000000007,
      "v": 80
    },
    {
      "midi": 71,
      "hit": false,
      "t": 85826.06550000019,
      "d": 521.7390000000014,
      "v": 80
    },
    {
      "midi": 78,
      "hit": false,
      "t": 85826.06550000019,
      "d": 521.7390000000014,
      "v": 65
    },
    {
      "midi": 40,
      "hit": false,
      "t": 85826.0655000002,
      "d": 260.8695000000007,
      "v": 74
    },
    {
      "midi": 52,
      "hit": false,
      "t": 86086.9350000002,
      "d": 260.8695000000007,
      "v": 89
    },
    {
      "midi": 71,
      "hit": false,
      "t": 86347.80450000019,
      "d": 521.7390000000014,
      "v": 80
    },
    {
      "midi": 80,
      "hit": false,
      "t": 86347.80450000019,
      "d": 521.7390000000014,
      "v": 81
    },
    {
      "midi": 40,
      "hit": false,
      "t": 86347.8045000002,
      "d": 260.8695000000007,
      "v": 65
    },
    {
      "midi": 40,
      "hit": false,
      "t": 86608.6740000002,
      "d": 260.8695000000007,
      "v": 72
    },
    {
      "midi": 78,
      "hit": false,
      "t": 86869.54350000019,
      "d": 260.8695000000007,
      "v": 74
    },
    {
      "midi": 40,
      "hit": false,
      "t": 86869.5435000002,
      "d": 260.8695000000007,
      "v": 68
    },
    {
      "midi": 71,
      "hit": false,
      "t": 87130.41300000019,
      "d": 260.8695000000007,
      "v": 82
    },
    {
      "midi": 78,
      "hit": false,
      "t": 87130.41300000019,
      "d": 260.8695000000007,
      "v": 57
    },
    {
      "midi": 52,
      "hit": false,
      "t": 87130.4130000002,
      "d": 260.8695000000007,
      "v": 97
    },
    {
      "midi": 70,
      "hit": false,
      "t": 87391.28250000019,
      "d": 260.8695000000007,
      "v": 69
    },
    {
      "midi": 78,
      "hit": false,
      "t": 87391.28250000019,
      "d": 260.8695000000007,
      "v": 81
    },
    {
      "midi": 40,
      "hit": false,
      "t": 87391.2825000002,
      "d": 260.8695000000007,
      "v": 69
    },
    {
      "midi": 42,
      "hit": false,
      "t": 87652.1520000002,
      "d": 260.8695000000007,
      "v": 57
    },
    {
      "midi": 70,
      "hit": false,
      "t": 87913.02150000019,
      "d": 260.8695000000007,
      "v": 92
    },
    {
      "midi": 78,
      "hit": false,
      "t": 87913.02150000019,
      "d": 260.8695000000007,
      "v": 84
    },
    {
      "midi": 42,
      "hit": false,
      "t": 87913.0215000002,
      "d": 260.8695000000007,
      "v": 104
    },
    {
      "midi": 70,
      "hit": false,
      "t": 88173.89100000019,
      "d": 260.8695000000007,
      "v": 77
    },
    {
      "midi": 78,
      "hit": false,
      "t": 88173.89100000019,
      "d": 260.8695000000007,
      "v": 81
    },
    {
      "midi": 54,
      "hit": false,
      "t": 88173.8910000002,
      "d": 260.8695000000007,
      "v": 84
    },
    {
      "midi": 70,
      "hit": false,
      "t": 88434.7605000002,
      "d": 260.8695000000007,
      "v": 88
    },
    {
      "midi": 78,
      "hit": false,
      "t": 88434.7605000002,
      "d": 260.8695000000007,
      "v": 81
    },
    {
      "midi": 42,
      "hit": false,
      "t": 88434.76050000021,
      "d": 260.8695000000007,
      "v": 74
    },
    {
      "midi": 70,
      "hit": false,
      "t": 88695.6300000002,
      "d": 260.8695000000007,
      "v": 88
    },
    {
      "midi": 78,
      "hit": false,
      "t": 88695.6300000002,
      "d": 260.8695000000007,
      "v": 84
    },
    {
      "midi": 42,
      "hit": false,
      "t": 88695.63000000021,
      "d": 260.8695000000007,
      "v": 88
    },
    {
      "midi": 75,
      "hit": false,
      "t": 88956.4995000002,
      "d": 260.8695000000007,
      "v": 53
    },
    {
      "midi": 42,
      "hit": false,
      "t": 88956.49950000021,
      "d": 260.8695000000007,
      "v": 74
    },
    {
      "midi": 73,
      "hit": false,
      "t": 89217.3690000002,
      "d": 260.8695000000007,
      "v": 53
    },
    {
      "midi": 54,
      "hit": false,
      "t": 89217.36900000021,
      "d": 260.8695000000007,
      "v": 81
    },
    {
      "midi": 70,
      "hit": false,
      "t": 89478.2385000002,
      "d": 260.8695000000007,
      "v": 81
    },
    {
      "midi": 78,
      "hit": false,
      "t": 89478.2385000002,
      "d": 260.8695000000007,
      "v": 74
    },
    {
      "midi": 42,
      "hit": false,
      "t": 89478.23850000021,
      "d": 260.8695000000007,
      "v": 53
    },
    {
      "midi": 42,
      "hit": false,
      "t": 89739.10800000021,
      "d": 260.8695000000007,
      "v": 92
    },
    {
      "midi": 75,
      "hit": false,
      "t": 89999.9775000002,
      "d": 521.7390000000014,
      "v": 39
    },
    {
      "midi": 42,
      "hit": false,
      "t": 89999.97750000021,
      "d": 260.8695000000007,
      "v": 81
    },
    {
      "midi": 54,
      "hit": false,
      "t": 90260.84700000021,
      "d": 260.8695000000007,
      "v": 77
    },
    {
      "midi": 70,
      "hit": false,
      "t": 90521.7165000002,
      "d": 521.7390000000014,
      "v": 84
    },
    {
      "midi": 78,
      "hit": false,
      "t": 90521.7165000002,
      "d": 521.7390000000014,
      "v": 88
    },
    {
      "midi": 42,
      "hit": false,
      "t": 90521.71650000021,
      "d": 260.8695000000007,
      "v": 77
    },
    {
      "midi": 42,
      "hit": false,
      "t": 90782.58600000021,
      "d": 260.8695000000007,
      "v": 88
    },
    {
      "midi": 70,
      "hit": false,
      "t": 91043.4555000002,
      "d": 521.7390000000014,
      "v": 96
    },
    {
      "midi": 78,
      "hit": false,
      "t": 91043.4555000002,
      "d": 521.7390000000014,
      "v": 92
    },
    {
      "midi": 42,
      "hit": false,
      "t": 91043.45550000021,
      "d": 260.8695000000007,
      "v": 84
    },
    {
      "midi": 54,
      "hit": false,
      "t": 91304.32500000022,
      "d": 260.8695000000007,
      "v": 74
    },
    {
      "midi": 73,
      "hit": false,
      "t": 91565.1945000002,
      "d": 260.8695000000007,
      "v": 92
    },
    {
      "midi": 78,
      "hit": false,
      "t": 91565.1945000002,
      "d": 260.8695000000007,
      "v": 81
    },
    {
      "midi": 42,
      "hit": false,
      "t": 91565.19450000022,
      "d": 260.8695000000007,
      "v": 77
    },
    {
      "midi": 40,
      "hit": false,
      "t": 91826.06400000022,
      "d": 260.8695000000007,
      "v": 89
    },
    {
      "midi": 68,
      "hit": false,
      "t": 92086.9335000002,
      "d": 260.8695000000007,
      "v": 55
    },
    {
      "midi": 71,
      "hit": false,
      "t": 92086.9335000002,
      "d": 260.8695000000007,
      "v": 101
    },
    {
      "midi": 76,
      "hit": false,
      "t": 92086.9335000002,
      "d": 260.8695000000007,
      "v": 101
    },
    {
      "midi": 40,
      "hit": false,
      "t": 92086.93350000022,
      "d": 260.8695000000007,
      "v": 80
    },
    {
      "midi": 68,
      "hit": false,
      "t": 92347.8030000002,
      "d": 260.8695000000007,
      "v": 69
    },
    {
      "midi": 71,
      "hit": false,
      "t": 92347.8030000002,
      "d": 260.8695000000007,
      "v": 104
    },
    {
      "midi": 78,
      "hit": false,
      "t": 92347.8030000002,
      "d": 260.8695000000007,
      "v": 74
    },
    {
      "midi": 52,
      "hit": false,
      "t": 92347.80300000022,
      "d": 260.8695000000007,
      "v": 97
    },
    {
      "midi": 68,
      "hit": false,
      "t": 92608.6725000002,
      "d": 260.8695000000007,
      "v": 72
    },
    {
      "midi": 71,
      "hit": false,
      "t": 92608.6725000002,
      "d": 260.8695000000007,
      "v": 101
    },
    {
      "midi": 78,
      "hit": false,
      "t": 92608.6725000002,
      "d": 260.8695000000007,
      "v": 81
    },
    {
      "midi": 40,
      "hit": false,
      "t": 92608.67250000022,
      "d": 260.8695000000007,
      "v": 63
    },
    {
      "midi": 68,
      "hit": false,
      "t": 92869.5420000002,
      "d": 521.7390000000014,
      "v": 77
    },
    {
      "midi": 71,
      "hit": false,
      "t": 92869.5420000002,
      "d": 521.7390000000014,
      "v": 104
    },
    {
      "midi": 78,
      "hit": false,
      "t": 92869.5420000002,
      "d": 521.7390000000014,
      "v": 81
    },
    {
      "midi": 40,
      "hit": false,
      "t": 92869.54200000022,
      "d": 260.8695000000007,
      "v": 72
    },
    {
      "midi": 40,
      "hit": false,
      "t": 93130.41150000022,
      "d": 260.8695000000007,
      "v": 84
    },
    {
      "midi": 68,
      "hit": false,
      "t": 93391.2810000002,
      "d": 260.8695000000007,
      "v": 63
    },
    {
      "midi": 71,
      "hit": false,
      "t": 93391.2810000002,
      "d": 260.8695000000007,
      "v": 101
    },
    {
      "midi": 78,
      "hit": false,
      "t": 93391.2810000002,
      "d": 260.8695000000007,
      "v": 74
    },
    {
      "midi": 52,
      "hit": false,
      "t": 93391.28100000022,
      "d": 260.8695000000007,
      "v": 101
    },
    {
      "midi": 68,
      "hit": false,
      "t": 93652.1505000002,
      "d": 260.8695000000007,
      "v": 77
    },
    {
      "midi": 71,
      "hit": false,
      "t": 93652.1505000002,
      "d": 260.8695000000007,
      "v": 89
    },
    {
      "midi": 78,
      "hit": false,
      "t": 93652.1505000002,
      "d": 260.8695000000007,
      "v": 81
    },
    {
      "midi": 40,
      "hit": false,
      "t": 93652.15050000022,
      "d": 260.8695000000007,
      "v": 65
    },
    {
      "midi": 68,
      "hit": false,
      "t": 93913.02000000021,
      "d": 260.8695000000007,
      "v": 84
    },
    {
      "midi": 71,
      "hit": false,
      "t": 93913.02000000021,
      "d": 260.8695000000007,
      "v": 95
    },
    {
      "midi": 78,
      "hit": false,
      "t": 93913.02000000021,
      "d": 260.8695000000007,
      "v": 74
    },
    {
      "midi": 40,
      "hit": false,
      "t": 93913.02000000022,
      "d": 260.8695000000007,
      "v": 71
    },
    {
      "midi": 68,
      "hit": false,
      "t": 94173.88950000021,
      "d": 521.7390000000014,
      "v": 84
    },
    {
      "midi": 71,
      "hit": false,
      "t": 94173.88950000021,
      "d": 521.7390000000014,
      "v": 101
    },
    {
      "midi": 78,
      "hit": false,
      "t": 94173.88950000021,
      "d": 521.7390000000014,
      "v": 84
    },
    {
      "midi": 40,
      "hit": false,
      "t": 94173.88950000022,
      "d": 260.8695000000007,
      "v": 95
    },
    {
      "midi": 52,
      "hit": false,
      "t": 94434.75900000022,
      "d": 260.8695000000007,
      "v": 104
    },
    {
      "midi": 71,
      "hit": false,
      "t": 94695.62850000021,
      "d": 782.6085000000021,
      "v": 87
    },
    {
      "midi": 76,
      "hit": false,
      "t": 94695.62850000021,
      "d": 782.6085000000021,
      "v": 104
    },
    {
      "midi": 80,
      "hit": false,
      "t": 94695.62850000021,
      "d": 782.6085000000021,
      "v": 77
    },
    {
      "midi": 40,
      "hit": false,
      "t": 94695.62850000022,
      "d": 260.8695000000007,
      "v": 78
    },
    {
      "midi": 40,
      "hit": false,
      "t": 94956.49800000023,
      "d": 260.8695000000007,
      "v": 87
    },
    {
      "midi": 40,
      "hit": false,
      "t": 95217.36750000023,
      "d": 260.8695000000007,
      "v": 92
    },
    {
      "midi": 64,
      "hit": false,
      "t": 95478.23700000021,
      "d": 260.8695000000007,
      "v": 82
    },
    {
      "midi": 68,
      "hit": false,
      "t": 95478.23700000021,
      "d": 260.8695000000007,
      "v": 74
    },
    {
      "midi": 75,
      "hit": false,
      "t": 95478.23700000021,
      "d": 260.8695000000007,
      "v": 61
    },
    {
      "midi": 52,
      "hit": false,
      "t": 95478.23700000023,
      "d": 260.8695000000007,
      "v": 92
    },
    {
      "midi": 73,
      "hit": false,
      "t": 95739.10650000021,
      "d": 260.8695000000007,
      "v": 84
    },
    {
      "midi": 40,
      "hit": false,
      "t": 95739.10650000023,
      "d": 260.8695000000007,
      "v": 78
    },
    {
      "midi": 70,
      "hit": false,
      "t": 95999.97600000021,
      "d": 260.8695000000007,
      "v": 84
    },
    {
      "midi": 42,
      "hit": false,
      "t": 95999.97600000023,
      "d": 260.8695000000007,
      "v": 77
    },
    {
      "midi": 73,
      "hit": false,
      "t": 96260.84550000021,
      "d": 260.8695000000007,
      "v": 84
    },
    {
      "midi": 42,
      "hit": false,
      "t": 96260.84550000023,
      "d": 260.8695000000007,
      "v": 88
    },
    {
      "midi": 78,
      "hit": false,
      "t": 96521.71500000021,
      "d": 260.8695000000007,
      "v": 81
    },
    {
      "midi": 54,
      "hit": false,
      "t": 96521.71500000023,
      "d": 260.8695000000007,
      "v": 77
    },
    {
      "midi": 73,
      "hit": false,
      "t": 96782.58450000022,
      "d": 260.8695000000007,
      "v": 63
    },
    {
      "midi": 42,
      "hit": false,
      "t": 96782.58450000023,
      "d": 260.8695000000007,
      "v": 69
    },
    {
      "midi": 70,
      "hit": false,
      "t": 97043.45400000022,
      "d": 521.7390000000014,
      "v": 96
    },
    {
      "midi": 78,
      "hit": false,
      "t": 97043.45400000022,
      "d": 521.7390000000014,
      "v": 88
    },
    {
      "midi": 42,
      "hit": false,
      "t": 97043.45400000023,
      "d": 260.8695000000007,
      "v": 88
    },
    {
      "midi": 42,
      "hit": false,
      "t": 97304.32350000023,
      "d": 260.8695000000007,
      "v": 88
    },
    {
      "midi": 75,
      "hit": false,
      "t": 97565.19300000022,
      "d": 260.8695000000007,
      "v": 84
    },
    {
      "midi": 54,
      "hit": false,
      "t": 97565.19300000023,
      "d": 260.8695000000007,
      "v": 72
    },
    {
      "midi": 73,
      "hit": false,
      "t": 97826.06250000022,
      "d": 260.8695000000007,
      "v": 72
    },
    {
      "midi": 42,
      "hit": false,
      "t": 97826.06250000023,
      "d": 260.8695000000007,
      "v": 88
    },
    {
      "midi": 70,
      "hit": false,
      "t": 98086.93200000022,
      "d": 521.7390000000014,
      "v": 100
    },
    {
      "midi": 78,
      "hit": false,
      "t": 98086.93200000022,
      "d": 521.7390000000014,
      "v": 88
    },
    {
      "midi": 42,
      "hit": false,
      "t": 98086.93200000023,
      "d": 260.8695000000007,
      "v": 96
    },
    {
      "midi": 42,
      "hit": false,
      "t": 98347.80150000023,
      "d": 260.8695000000007,
      "v": 81
    },
    {
      "midi": 75,
      "hit": false,
      "t": 98608.67100000022,
      "d": 260.8695000000007,
      "v": 84
    },
    {
      "midi": 54,
      "hit": false,
      "t": 98608.67100000023,
      "d": 260.8695000000007,
      "v": 74
    },
    {
      "midi": 70,
      "hit": false,
      "t": 98869.54050000022,
      "d": 782.6085000000021,
      "v": 96
    },
    {
      "midi": 78,
      "hit": false,
      "t": 98869.54050000022,
      "d": 782.6085000000021,
      "v": 81
    },
    {
      "midi": 42,
      "hit": false,
      "t": 98869.54050000024,
      "d": 260.8695000000007,
      "v": 81
    },
    {
      "midi": 42,
      "hit": false,
      "t": 99130.41000000024,
      "d": 260.8695000000007,
      "v": 92
    },
    {
      "midi": 42,
      "hit": false,
      "t": 99391.27950000024,
      "d": 260.8695000000007,
      "v": 84
    },
    {
      "midi": 71,
      "hit": false,
      "t": 99652.14900000022,
      "d": 260.8695000000007,
      "v": 95
    },
    {
      "midi": 78,
      "hit": false,
      "t": 99652.14900000022,
      "d": 260.8695000000007,
      "v": 61
    },
    {
      "midi": 54,
      "hit": false,
      "t": 99652.14900000024,
      "d": 260.8695000000007,
      "v": 81
    },
    {
      "midi": 73,
      "hit": false,
      "t": 99913.01850000022,
      "d": 260.8695000000007,
      "v": 84
    },
    {
      "midi": 78,
      "hit": false,
      "t": 99913.01850000022,
      "d": 260.8695000000007,
      "v": 65
    },
    {
      "midi": 42,
      "hit": false,
      "t": 99913.01850000024,
      "d": 260.8695000000007,
      "v": 92
    },
    {
      "midi": 40,
      "hit": false,
      "t": 100173.88800000024,
      "d": 260.8695000000007,
      "v": 87
    },
    {
      "midi": 75,
      "hit": false,
      "t": 100434.75750000023,
      "d": 260.8695000000007,
      "v": 84
    },
    {
      "midi": 40,
      "hit": false,
      "t": 100434.75750000024,
      "d": 260.8695000000007,
      "v": 89
    },
    {
      "midi": 68,
      "hit": false,
      "t": 100695.62700000023,
      "d": 521.7390000000014,
      "v": 74
    },
    {
      "midi": 71,
      "hit": false,
      "t": 100695.62700000023,
      "d": 521.7390000000014,
      "v": 101
    },
    {
      "midi": 78,
      "hit": false,
      "t": 100695.62700000023,
      "d": 521.7390000000014,
      "v": 72
    },
    {
      "midi": 52,
      "hit": false,
      "t": 100695.62700000024,
      "d": 260.8695000000007,
      "v": 101
    },
    {
      "midi": 40,
      "hit": false,
      "t": 100956.49650000024,
      "d": 260.8695000000007,
      "v": 72
    },
    {
      "midi": 68,
      "hit": false,
      "t": 101217.36600000023,
      "d": 521.7390000000014,
      "v": 77
    },
    {
      "midi": 71,
      "hit": false,
      "t": 101217.36600000023,
      "d": 521.7390000000014,
      "v": 108
    },
    {
      "midi": 78,
      "hit": false,
      "t": 101217.36600000023,
      "d": 521.7390000000014,
      "v": 81
    },
    {
      "midi": 40,
      "hit": false,
      "t": 101217.36600000024,
      "d": 260.8695000000007,
      "v": 87
    },
    {
      "midi": 40,
      "hit": false,
      "t": 101478.23550000024,
      "d": 260.8695000000007,
      "v": 97
    },
    {
      "midi": 75,
      "hit": false,
      "t": 101739.10500000023,
      "d": 260.8695000000007,
      "v": 81
    },
    {
      "midi": 52,
      "hit": false,
      "t": 101739.10500000024,
      "d": 260.8695000000007,
      "v": 108
    },
    {
      "midi": 68,
      "hit": false,
      "t": 101999.97450000023,
      "d": 260.8695000000007,
      "v": 77
    },
    {
      "midi": 71,
      "hit": false,
      "t": 101999.97450000023,
      "d": 260.8695000000007,
      "v": 97
    },
    {
      "midi": 78,
      "hit": false,
      "t": 101999.97450000023,
      "d": 260.8695000000007,
      "v": 81
    },
    {
      "midi": 40,
      "hit": false,
      "t": 101999.97450000024,
      "d": 260.8695000000007,
      "v": 78
    },
    {
      "midi": 40,
      "hit": false,
      "t": 102260.84400000024,
      "d": 260.8695000000007,
      "v": 84
    },
    {
      "midi": 75,
      "hit": false,
      "t": 102521.71350000023,
      "d": 521.7390000000014,
      "v": 88
    },
    {
      "midi": 40,
      "hit": false,
      "t": 102521.71350000025,
      "d": 260.8695000000007,
      "v": 97
    },
    {
      "midi": 52,
      "hit": false,
      "t": 102782.58300000025,
      "d": 260.8695000000007,
      "v": 113
    },
    {
      "midi": 68,
      "hit": false,
      "t": 103043.45250000023,
      "d": 521.7390000000014,
      "v": 81
    },
    {
      "midi": 71,
      "hit": false,
      "t": 103043.45250000023,
      "d": 521.7390000000014,
      "v": 108
    },
    {
      "midi": 78,
      "hit": false,
      "t": 103043.45250000023,
      "d": 521.7390000000014,
      "v": 84
    },
    {
      "midi": 40,
      "hit": false,
      "t": 103043.45250000025,
      "d": 260.8695000000007,
      "v": 76
    },
    {
      "midi": 40,
      "hit": false,
      "t": 103304.32200000025,
      "d": 260.8695000000007,
      "v": 97
    },
    {
      "midi": 75,
      "hit": false,
      "t": 103565.19150000023,
      "d": 521.7390000000014,
      "v": 92
    },
    {
      "midi": 40,
      "hit": false,
      "t": 103565.19150000025,
      "d": 260.8695000000007,
      "v": 95
    },
    {
      "midi": 52,
      "hit": false,
      "t": 103826.06100000025,
      "d": 260.8695000000007,
      "v": 108
    },
    {
      "midi": 78,
      "hit": false,
      "t": 104086.93050000024,
      "d": 260.8695000000007,
      "v": 92
    },
    {
      "midi": 40,
      "hit": false,
      "t": 104086.93050000025,
      "d": 260.8695000000007,
      "v": 78
    },
    {
      "midi": 72,
      "hit": false,
      "t": 104347.80000000024,
      "d": 2086.9560000000056,
      "v": 95
    },
    {
      "midi": 75,
      "hit": false,
      "t": 104347.80000000024,
      "d": 2086.9560000000056,
      "v": 72
    },
    {
      "midi": 80,
      "hit": false,
      "t": 104347.80000000024,
      "d": 2086.9560000000056,
      "v": 96
    },
    {
      "midi": 44,
      "hit": false,
      "t": 104347.80000000025,
      "d": 260.8695000000007,
      "v": 88
    },
    {
      "midi": 44,
      "hit": false,
      "t": 104608.66950000025,
      "d": 260.8695000000007,
      "v": 84
    },
    {
      "midi": 44,
      "hit": false,
      "t": 104869.53900000025,
      "d": 260.8695000000007,
      "v": 84
    },
    {
      "midi": 44,
      "hit": false,
      "t": 105130.40850000025,
      "d": 260.8695000000007,
      "v": 49
    },
    {
      "midi": 44,
      "hit": false,
      "t": 105391.27800000025,
      "d": 260.8695000000007,
      "v": 81
    },
    {
      "midi": 44,
      "hit": false,
      "t": 105652.14750000025,
      "d": 260.8695000000007,
      "v": 77
    },
    {
      "midi": 44,
      "hit": false,
      "t": 105913.01700000025,
      "d": 260.8695000000007,
      "v": 53
    },
    {
      "midi": 44,
      "hit": false,
      "t": 106173.88650000026,
      "d": 260.8695000000007,
      "v": 69
    },
    {
      "midi": 60,
      "hit": false,
      "t": 106434.75600000024,
      "d": 260.8695000000007,
      "v": 74
    },
    {
      "midi": 44,
      "hit": false,
      "t": 106434.75600000026,
      "d": 260.8695000000007,
      "v": 59
    },
    {
      "midi": 63,
      "hit": false,
      "t": 106695.62550000024,
      "d": 260.8695000000007,
      "v": 72
    },
    {
      "midi": 44,
      "hit": false,
      "t": 106695.62550000026,
      "d": 260.8695000000007,
      "v": 65
    },
    {
      "midi": 68,
      "hit": false,
      "t": 106956.49500000024,
      "d": 260.8695000000007,
      "v": 77
    },
    {
      "midi": 44,
      "hit": false,
      "t": 106956.49500000026,
      "d": 260.8695000000007,
      "v": 92
    },
    {
      "midi": 63,
      "hit": false,
      "t": 107217.36450000024,
      "d": 260.8695000000007,
      "v": 77
    },
    {
      "midi": 44,
      "hit": false,
      "t": 107217.36450000026,
      "d": 260.8695000000007,
      "v": 59
    },
    {
      "midi": 60,
      "hit": false,
      "t": 107478.23400000024,
      "d": 260.8695000000007,
      "v": 76
    },
    {
      "midi": 72,
      "hit": false,
      "t": 107478.23400000024,
      "d": 260.8695000000007,
      "v": 95
    },
    {
      "midi": 44,
      "hit": false,
      "t": 107478.23400000026,
      "d": 260.8695000000007,
      "v": 59
    },
    {
      "midi": 70,
      "hit": false,
      "t": 107739.10350000024,
      "d": 260.8695000000007,
      "v": 84
    },
    {
      "midi": 44,
      "hit": false,
      "t": 107739.10350000026,
      "d": 260.8695000000007,
      "v": 77
    },
    {
      "midi": 68,
      "hit": false,
      "t": 107999.97300000025,
      "d": 260.8695000000007,
      "v": 66
    },
    {
      "midi": 44,
      "hit": false,
      "t": 107999.97300000026,
      "d": 260.8695000000007,
      "v": 100
    },
    {
      "midi": 70,
      "hit": false,
      "t": 108260.84250000025,
      "d": 260.8695000000007,
      "v": 88
    },
    {
      "midi": 44,
      "hit": false,
      "t": 108260.84250000026,
      "d": 260.8695000000007,
      "v": 92
    },
    {
      "midi": 56,
      "hit": false,
      "t": 108521.71200000025,
      "d": 260.8695000000007,
      "v": 84
    },
    {
      "midi": 41,
      "hit": false,
      "t": 108521.71200000026,
      "d": 260.8695000000007,
      "v": 74
    },
    {
      "midi": 60,
      "hit": false,
      "t": 108782.58150000025,
      "d": 260.8695000000007,
      "v": 84
    },
    {
      "midi": 41,
      "hit": false,
      "t": 108782.58150000026,
      "d": 260.8695000000007,
      "v": 78
    },
    {
      "midi": 67,
      "hit": false,
      "t": 109043.45100000025,
      "d": 260.8695000000007,
      "v": 89
    },
    {
      "midi": 41,
      "hit": false,
      "t": 109043.45100000026,
      "d": 260.8695000000007,
      "v": 74
    },
    {
      "midi": 60,
      "hit": false,
      "t": 109304.32050000025,
      "d": 260.8695000000007,
      "v": 78
    },
    {
      "midi": 41,
      "hit": false,
      "t": 109304.32050000026,
      "d": 260.8695000000007,
      "v": 76
    },
    {
      "midi": 60,
      "hit": false,
      "t": 109565.19000000025,
      "d": 260.8695000000007,
      "v": 84
    },
    {
      "midi": 68,
      "hit": false,
      "t": 109565.19000000025,
      "d": 260.8695000000007,
      "v": 88
    },
    {
      "midi": 41,
      "hit": false,
      "t": 109565.19000000026,
      "d": 260.8695000000007,
      "v": 74
    },
    {
      "midi": 67,
      "hit": false,
      "t": 109826.05950000025,
      "d": 260.8695000000007,
      "v": 95
    },
    {
      "midi": 41,
      "hit": false,
      "t": 109826.05950000026,
      "d": 260.8695000000007,
      "v": 80
    },
    {
      "midi": 65,
      "hit": false,
      "t": 110086.92900000025,
      "d": 260.8695000000007,
      "v": 97
    },
    {
      "midi": 41,
      "hit": false,
      "t": 110086.92900000027,
      "d": 260.8695000000007,
      "v": 80
    },
    {
      "midi": 67,
      "hit": false,
      "t": 110347.79850000025,
      "d": 260.8695000000007,
      "v": 97
    },
    {
      "midi": 41,
      "hit": false,
      "t": 110347.79850000027,
      "d": 260.8695000000007,
      "v": 84
    },
    {
      "midi": 56,
      "hit": false,
      "t": 110608.66800000025,
      "d": 260.8695000000007,
      "v": 81
    },
    {
      "midi": 41,
      "hit": false,
      "t": 110608.66800000027,
      "d": 260.8695000000007,
      "v": 72
    },
    {
      "midi": 60,
      "hit": false,
      "t": 110869.53750000025,
      "d": 260.8695000000007,
      "v": 72
    },
    {
      "midi": 41,
      "hit": false,
      "t": 110869.53750000027,
      "d": 260.8695000000007,
      "v": 80
    },
    {
      "midi": 67,
      "hit": false,
      "t": 111130.40700000025,
      "d": 260.8695000000007,
      "v": 95
    },
    {
      "midi": 41,
      "hit": false,
      "t": 111130.40700000027,
      "d": 260.8695000000007,
      "v": 76
    },
    {
      "midi": 60,
      "hit": false,
      "t": 111391.27650000025,
      "d": 260.8695000000007,
      "v": 72
    },
    {
      "midi": 41,
      "hit": false,
      "t": 111391.27650000027,
      "d": 260.8695000000007,
      "v": 80
    },
    {
      "midi": 60,
      "hit": false,
      "t": 111652.14600000026,
      "d": 260.8695000000007,
      "v": 89
    },
    {
      "midi": 68,
      "hit": false,
      "t": 111652.14600000026,
      "d": 260.8695000000007,
      "v": 69
    },
    {
      "midi": 41,
      "hit": false,
      "t": 111652.14600000027,
      "d": 260.8695000000007,
      "v": 69
    },
    {
      "midi": 67,
      "hit": false,
      "t": 111913.01550000026,
      "d": 260.8695000000007,
      "v": 87
    },
    {
      "midi": 41,
      "hit": false,
      "t": 111913.01550000027,
      "d": 260.8695000000007,
      "v": 82
    },
    {
      "midi": 65,
      "hit": false,
      "t": 112173.88500000026,
      "d": 260.8695000000007,
      "v": 95
    },
    {
      "midi": 41,
      "hit": false,
      "t": 112173.88500000027,
      "d": 260.8695000000007,
      "v": 69
    },
    {
      "midi": 67,
      "hit": false,
      "t": 112434.75450000026,
      "d": 260.8695000000007,
      "v": 101
    },
    {
      "midi": 41,
      "hit": false,
      "t": 112434.75450000027,
      "d": 260.8695000000007,
      "v": 87
    },
    {
      "midi": 65,
      "hit": false,
      "t": 112695.62400000026,
      "d": 260.8695000000007,
      "v": 82
    },
    {
      "midi": 49,
      "hit": false,
      "t": 112695.62400000027,
      "d": 260.8695000000007,
      "v": 74
    },
    {
      "midi": 68,
      "hit": false,
      "t": 112956.49350000026,
      "d": 260.8695000000007,
      "v": 66
    },
    {
      "midi": 49,
      "hit": false,
      "t": 112956.49350000027,
      "d": 260.8695000000007,
      "v": 81
    },
    {
      "midi": 75,
      "hit": false,
      "t": 113217.36300000026,
      "d": 260.8695000000007,
      "v": 81
    },
    {
      "midi": 49,
      "hit": false,
      "t": 113217.36300000027,
      "d": 260.8695000000007,
      "v": 72
    },
    {
      "midi": 68,
      "hit": false,
      "t": 113478.23250000026,
      "d": 260.8695000000007,
      "v": 92
    },
    {
      "midi": 49,
      "hit": false,
      "t": 113478.23250000027,
      "d": 260.8695000000007,
      "v": 65
    },
    {
      "midi": 73,
      "hit": false,
      "t": 113739.10200000026,
      "d": 260.8695000000007,
      "v": 74
    },
    {
      "midi": 49,
      "hit": false,
      "t": 113739.10200000028,
      "d": 260.8695000000007,
      "v": 61
    },
    {
      "midi": 68,
      "hit": false,
      "t": 113999.97150000026,
      "d": 260.8695000000007,
      "v": 74
    },
    {
      "midi": 49,
      "hit": false,
      "t": 113999.97150000028,
      "d": 260.8695000000007,
      "v": 88
    },
    {
      "midi": 65,
      "hit": false,
      "t": 114260.84100000026,
      "d": 260.8695000000007,
      "v": 76
    },
    {
      "midi": 72,
      "hit": false,
      "t": 114260.84100000026,
      "d": 260.8695000000007,
      "v": 108
    },
    {
      "midi": 49,
      "hit": false,
      "t": 114260.84100000028,
      "d": 260.8695000000007,
      "v": 88
    },
    {
      "midi": 70,
      "hit": false,
      "t": 114521.71050000026,
      "d": 260.8695000000007,
      "v": 72
    },
    {
      "midi": 49,
      "hit": false,
      "t": 114521.71050000028,
      "d": 260.8695000000007,
      "v": 84
    },
    {
      "midi": 67,
      "hit": false,
      "t": 114782.58000000026,
      "d": 260.8695000000007,
      "v": 104
    },
    {
      "midi": 51,
      "hit": false,
      "t": 114782.58000000028,
      "d": 260.8695000000007,
      "v": 88
    },
    {
      "midi": 70,
      "hit": false,
      "t": 115043.44950000026,
      "d": 260.8695000000007,
      "v": 81
    },
    {
      "midi": 51,
      "hit": false,
      "t": 115043.44950000028,
      "d": 260.8695000000007,
      "v": 77
    },
    {
      "midi": 77,
      "hit": false,
      "t": 115304.31900000027,
      "d": 260.8695000000007,
      "v": 95
    },
    {
      "midi": 51,
      "hit": false,
      "t": 115304.31900000028,
      "d": 260.8695000000007,
      "v": 74
    },
    {
      "midi": 70,
      "hit": false,
      "t": 115565.18850000027,
      "d": 260.8695000000007,
      "v": 77
    },
    {
      "midi": 51,
      "hit": false,
      "t": 115565.18850000028,
      "d": 260.8695000000007,
      "v": 81
    },
    {
      "midi": 75,
      "hit": false,
      "t": 115826.05800000027,
      "d": 260.8695000000007,
      "v": 77
    },
    {
      "midi": 51,
      "hit": false,
      "t": 115826.05800000028,
      "d": 260.8695000000007,
      "v": 81
    },
    {
      "midi": 70,
      "hit": false,
      "t": 116086.92750000027,
      "d": 260.8695000000007,
      "v": 74
    },
    {
      "midi": 51,
      "hit": false,
      "t": 116086.92750000028,
      "d": 260.8695000000007,
      "v": 81
    },
    {
      "midi": 67,
      "hit": false,
      "t": 116347.79700000027,
      "d": 260.8695000000007,
      "v": 95
    },
    {
      "midi": 73,
      "hit": false,
      "t": 116347.79700000027,
      "d": 260.8695000000007,
      "v": 77
    },
    {
      "midi": 51,
      "hit": false,
      "t": 116347.79700000028,
      "d": 260.8695000000007,
      "v": 88
    },
    {
      "midi": 75,
      "hit": false,
      "t": 116608.66650000027,
      "d": 260.8695000000007,
      "v": 81
    },
    {
      "midi": 51,
      "hit": false,
      "t": 116608.66650000028,
      "d": 260.8695000000007,
      "v": 84
    },
    {
      "midi": 56,
      "hit": false,
      "t": 116869.53600000027,
      "d": 260.8695000000007,
      "v": 77
    },
    {
      "midi": 41,
      "hit": false,
      "t": 116869.53600000028,
      "d": 260.8695000000007,
      "v": 87
    },
    {
      "midi": 60,
      "hit": false,
      "t": 117130.40550000027,
      "d": 260.8695000000007,
      "v": 76
    },
    {
      "midi": 41,
      "hit": false,
      "t": 117130.40550000028,
      "d": 260.8695000000007,
      "v": 95
    },
    {
      "midi": 67,
      "hit": false,
      "t": 117391.27500000027,
      "d": 260.8695000000007,
      "v": 95
    },
    {
      "midi": 41,
      "hit": false,
      "t": 117391.27500000029,
      "d": 260.8695000000007,
      "v": 68
    },
    {
      "midi": 60,
      "hit": false,
      "t": 117652.14450000027,
      "d": 260.8695000000007,
      "v": 74
    },
    {
      "midi": 41,
      "hit": false,
      "t": 117652.14450000029,
      "d": 260.8695000000007,
      "v": 87
    },
    {
      "midi": 60,
      "hit": false,
      "t": 117913.01400000027,
      "d": 260.8695000000007,
      "v": 84
    },
    {
      "midi": 68,
      "hit": false,
      "t": 117913.01400000027,
      "d": 260.8695000000007,
      "v": 84
    },
    {
      "midi": 41,
      "hit": false,
      "t": 117913.01400000029,
      "d": 260.8695000000007,
      "v": 72
    },
    {
      "midi": 67,
      "hit": false,
      "t": 118173.88350000027,
      "d": 260.8695000000007,
      "v": 92
    },
    {
      "midi": 41,
      "hit": false,
      "t": 118173.88350000029,
      "d": 260.8695000000007,
      "v": 66
    },
    {
      "midi": 65,
      "hit": false,
      "t": 118434.75300000027,
      "d": 260.8695000000007,
      "v": 89
    },
    {
      "midi": 41,
      "hit": false,
      "t": 118434.75300000029,
      "d": 260.8695000000007,
      "v": 71
    },
    {
      "midi": 67,
      "hit": false,
      "t": 118695.62250000027,
      "d": 260.8695000000007,
      "v": 95
    },
    {
      "midi": 41,
      "hit": false,
      "t": 118695.62250000029,
      "d": 260.8695000000007,
      "v": 66
    },
    {
      "midi": 56,
      "hit": false,
      "t": 118956.49200000027,
      "d": 260.8695000000007,
      "v": 61
    },
    {
      "midi": 41,
      "hit": false,
      "t": 118956.49200000029,
      "d": 260.8695000000007,
      "v": 69
    },
    {
      "midi": 60,
      "hit": false,
      "t": 119217.36150000028,
      "d": 260.8695000000007,
      "v": 80
    },
    {
      "midi": 41,
      "hit": false,
      "t": 119217.36150000029,
      "d": 260.8695000000007,
      "v": 60
    },
    {
      "midi": 67,
      "hit": false,
      "t": 119478.23100000028,
      "d": 260.8695000000007,
      "v": 101
    },
    {
      "midi": 41,
      "hit": false,
      "t": 119478.23100000029,
      "d": 260.8695000000007,
      "v": 71
    },
    {
      "midi": 60,
      "hit": false,
      "t": 119739.10050000028,
      "d": 260.8695000000007,
      "v": 82
    },
    {
      "midi": 41,
      "hit": false,
      "t": 119739.10050000029,
      "d": 260.8695000000007,
      "v": 72
    },
    {
      "midi": 60,
      "hit": false,
      "t": 119999.97000000028,
      "d": 260.8695000000007,
      "v": 84
    },
    {
      "midi": 68,
      "hit": false,
      "t": 119999.97000000028,
      "d": 260.8695000000007,
      "v": 84
    },
    {
      "midi": 41,
      "hit": false,
      "t": 119999.97000000029,
      "d": 260.8695000000007,
      "v": 76
    },
    {
      "midi": 67,
      "hit": false,
      "t": 120260.83950000028,
      "d": 260.8695000000007,
      "v": 97
    },
    {
      "midi": 41,
      "hit": false,
      "t": 120260.8395000003,
      "d": 260.8695000000007,
      "v": 71
    },
    {
      "midi": 65,
      "hit": false,
      "t": 120521.70900000028,
      "d": 260.8695000000007,
      "v": 87
    },
    {
      "midi": 41,
      "hit": false,
      "t": 120521.7090000003,
      "d": 260.8695000000007,
      "v": 72
    },
    {
      "midi": 67,
      "hit": false,
      "t": 120782.57850000028,
      "d": 260.8695000000007,
      "v": 101
    },
    {
      "midi": 41,
      "hit": false,
      "t": 120782.5785000003,
      "d": 260.8695000000007,
      "v": 72
    },
    {
      "midi": 60,
      "hit": false,
      "t": 121043.44800000028,
      "d": 260.8695000000007,
      "v": 65
    },
    {
      "midi": 44,
      "hit": false,
      "t": 121043.4480000003,
      "d": 260.8695000000007,
      "v": 69
    },
    {
      "midi": 63,
      "hit": false,
      "t": 121304.31750000028,
      "d": 260.8695000000007,
      "v": 77
    },
    {
      "midi": 44,
      "hit": false,
      "t": 121304.3175000003,
      "d": 260.8695000000007,
      "v": 55
    },
    {
      "midi": 68,
      "hit": false,
      "t": 121565.18700000028,
      "d": 260.8695000000007,
      "v": 77
    },
    {
      "midi": 44,
      "hit": false,
      "t": 121565.1870000003,
      "d": 260.8695000000007,
      "v": 49
    },
    {
      "midi": 63,
      "hit": false,
      "t": 121826.05650000028,
      "d": 260.8695000000007,
      "v": 77
    },
    {
      "midi": 44,
      "hit": false,
      "t": 121826.0565000003,
      "d": 260.8695000000007,
      "v": 52
    },
    {
      "midi": 63,
      "hit": false,
      "t": 122086.92600000028,
      "d": 260.8695000000007,
      "v": 63
    },
    {
      "midi": 72,
      "hit": false,
      "t": 122086.92600000028,
      "d": 260.8695000000007,
      "v": 76
    },
    {
      "midi": 44,
      "hit": false,
      "t": 122086.9260000003,
      "d": 260.8695000000007,
      "v": 69
    },
    {
      "midi": 70,
      "hit": false,
      "t": 122347.79550000028,
      "d": 260.8695000000007,
      "v": 84
    },
    {
      "midi": 44,
      "hit": false,
      "t": 122347.7955000003,
      "d": 260.8695000000007,
      "v": 65
    },
    {
      "midi": 68,
      "hit": false,
      "t": 122608.66500000028,
      "d": 260.8695000000007,
      "v": 72
    },
    {
      "midi": 44,
      "hit": false,
      "t": 122608.6650000003,
      "d": 260.8695000000007,
      "v": 57
    },
    {
      "midi": 70,
      "hit": false,
      "t": 122869.53450000029,
      "d": 260.8695000000007,
      "v": 34
    },
    {
      "midi": 44,
      "hit": false,
      "t": 122869.5345000003,
      "d": 260.8695000000007,
      "v": 69
    },
    {
      "midi": 60,
      "hit": false,
      "t": 123130.40400000029,
      "d": 260.8695000000007,
      "v": 72
    },
    {
      "midi": 44,
      "hit": false,
      "t": 123130.4040000003,
      "d": 260.8695000000007,
      "v": 65
    },
    {
      "midi": 63,
      "hit": false,
      "t": 123391.27350000029,
      "d": 260.8695000000007,
      "v": 72
    },
    {
      "midi": 44,
      "hit": false,
      "t": 123391.2735000003,
      "d": 260.8695000000007,
      "v": 42
    },
    {
      "midi": 68,
      "hit": false,
      "t": 123652.14300000029,
      "d": 260.8695000000007,
      "v": 81
    },
    {
      "midi": 44,
      "hit": false,
      "t": 123652.1430000003,
      "d": 260.8695000000007,
      "v": 48
    },
    {
      "midi": 63,
      "hit": false,
      "t": 123913.01250000029,
      "d": 260.8695000000007,
      "v": 66
    },
    {
      "midi": 44,
      "hit": false,
      "t": 123913.0125000003,
      "d": 260.8695000000007,
      "v": 61
    },
    {
      "midi": 63,
      "hit": false,
      "t": 124173.88200000029,
      "d": 260.8695000000007,
      "v": 92
    },
    {
      "midi": 72,
      "hit": false,
      "t": 124173.88200000029,
      "d": 260.8695000000007,
      "v": 92
    },
    {
      "midi": 44,
      "hit": false,
      "t": 124173.8820000003,
      "d": 260.8695000000007,
      "v": 96
    },
    {
      "midi": 70,
      "hit": false,
      "t": 124434.75150000029,
      "d": 260.8695000000007,
      "v": 81
    },
    {
      "midi": 44,
      "hit": false,
      "t": 124434.7515000003,
      "d": 260.8695000000007,
      "v": 92
    },
    {
      "midi": 68,
      "hit": false,
      "t": 124695.62100000029,
      "d": 260.8695000000007,
      "v": 84
    },
    {
      "midi": 44,
      "hit": false,
      "t": 124695.6210000003,
      "d": 260.8695000000007,
      "v": 81
    },
    {
      "midi": 70,
      "hit": false,
      "t": 124956.49050000029,
      "d": 260.8695000000007,
      "v": 59
    },
    {
      "midi": 44,
      "hit": false,
      "t": 124956.4905000003,
      "d": 260.8695000000007,
      "v": 72
    },
    {
      "midi": 56,
      "hit": false,
      "t": 125217.36000000029,
      "d": 260.8695000000007,
      "v": 77
    },
    {
      "midi": 41,
      "hit": false,
      "t": 125217.3600000003,
      "d": 260.8695000000007,
      "v": 69
    },
    {
      "midi": 60,
      "hit": false,
      "t": 125478.22950000029,
      "d": 260.8695000000007,
      "v": 80
    },
    {
      "midi": 41,
      "hit": false,
      "t": 125478.2295000003,
      "d": 260.8695000000007,
      "v": 82
    },
    {
      "midi": 67,
      "hit": false,
      "t": 125739.0990000003,
      "d": 260.8695000000007,
      "v": 92
    },
    {
      "midi": 41,
      "hit": false,
      "t": 125739.09900000031,
      "d": 260.8695000000007,
      "v": 74
    },
    {
      "midi": 60,
      "hit": false,
      "t": 125999.9685000003,
      "d": 260.8695000000007,
      "v": 80
    },
    {
      "midi": 41,
      "hit": false,
      "t": 125999.96850000031,
      "d": 260.8695000000007,
      "v": 67
    },
    {
      "midi": 60,
      "hit": false,
      "t": 126260.8380000003,
      "d": 260.8695000000007,
      "v": 89
    },
    {
      "midi": 68,
      "hit": false,
      "t": 126260.8380000003,
      "d": 260.8695000000007,
      "v": 88
    },
    {
      "midi": 41,
      "hit": false,
      "t": 126260.83800000031,
      "d": 260.8695000000007,
      "v": 60
    },
    {
      "midi": 67,
      "hit": false,
      "t": 126521.7075000003,
      "d": 260.8695000000007,
      "v": 84
    },
    {
      "midi": 41,
      "hit": false,
      "t": 126521.70750000031,
      "d": 260.8695000000007,
      "v": 66
    },
    {
      "midi": 65,
      "hit": false,
      "t": 126782.5770000003,
      "d": 260.8695000000007,
      "v": 82
    },
    {
      "midi": 41,
      "hit": false,
      "t": 126782.57700000031,
      "d": 260.8695000000007,
      "v": 61
    },
    {
      "midi": 67,
      "hit": false,
      "t": 127043.4465000003,
      "d": 260.8695000000007,
      "v": 92
    },
    {
      "midi": 41,
      "hit": false,
      "t": 127043.44650000031,
      "d": 260.8695000000007,
      "v": 60
    },
    {
      "midi": 56,
      "hit": false,
      "t": 127304.3160000003,
      "d": 260.8695000000007,
      "v": 100
    },
    {
      "midi": 41,
      "hit": false,
      "t": 127304.31600000031,
      "d": 260.8695000000007,
      "v": 65
    },
    {
      "midi": 60,
      "hit": false,
      "t": 127565.1855000003,
      "d": 260.8695000000007,
      "v": 92
    },
    {
      "midi": 41,
      "hit": false,
      "t": 127565.18550000031,
      "d": 260.8695000000007,
      "v": 60
    },
    {
      "midi": 67,
      "hit": false,
      "t": 127826.0550000003,
      "d": 260.8695000000007,
      "v": 78
    },
    {
      "midi": 41,
      "hit": false,
      "t": 127826.05500000031,
      "d": 260.8695000000007,
      "v": 59
    },
    {
      "midi": 60,
      "hit": false,
      "t": 128086.9245000003,
      "d": 260.8695000000007,
      "v": 78
    },
    {
      "midi": 41,
      "hit": false,
      "t": 128086.92450000031,
      "d": 260.8695000000007,
      "v": 71
    },
    {
      "midi": 60,
      "hit": false,
      "t": 128347.7940000003,
      "d": 260.8695000000007,
      "v": 82
    },
    {
      "midi": 68,
      "hit": false,
      "t": 128347.7940000003,
      "d": 260.8695000000007,
      "v": 81
    },
    {
      "midi": 41,
      "hit": false,
      "t": 128347.79400000031,
      "d": 260.8695000000007,
      "v": 61
    },
    {
      "midi": 67,
      "hit": false,
      "t": 128608.6635000003,
      "d": 260.8695000000007,
      "v": 92
    },
    {
      "midi": 41,
      "hit": false,
      "t": 128608.66350000032,
      "d": 260.8695000000007,
      "v": 63
    },
    {
      "midi": 65,
      "hit": false,
      "t": 128869.5330000003,
      "d": 260.8695000000007,
      "v": 80
    },
    {
      "midi": 41,
      "hit": false,
      "t": 128869.53300000032,
      "d": 260.8695000000007,
      "v": 69
    },
    {
      "midi": 67,
      "hit": false,
      "t": 129130.4025000003,
      "d": 260.8695000000007,
      "v": 92
    },
    {
      "midi": 41,
      "hit": false,
      "t": 129130.40250000032,
      "d": 260.8695000000007,
      "v": 74
    },
    {
      "midi": 65,
      "hit": false,
      "t": 129391.2720000003,
      "d": 260.8695000000007,
      "v": 76
    },
    {
      "midi": 49,
      "hit": false,
      "t": 129391.27200000032,
      "d": 260.8695000000007,
      "v": 72
    },
    {
      "midi": 68,
      "hit": false,
      "t": 129652.1415000003,
      "d": 260.8695000000007,
      "v": 88
    },
    {
      "midi": 49,
      "hit": false,
      "t": 129652.14150000032,
      "d": 260.8695000000007,
      "v": 74
    },
    {
      "midi": 75,
      "hit": false,
      "t": 129913.0110000003,
      "d": 260.8695000000007,
      "v": 81
    },
    {
      "midi": 49,
      "hit": false,
      "t": 129913.01100000032,
      "d": 260.8695000000007,
      "v": 77
    },
    {
      "midi": 68,
      "hit": false,
      "t": 130173.8805000003,
      "d": 260.8695000000007,
      "v": 74
    },
    {
      "midi": 49,
      "hit": false,
      "t": 130173.88050000032,
      "d": 260.8695000000007,
      "v": 53
    },
    {
      "midi": 73,
      "hit": false,
      "t": 130434.7500000003,
      "d": 260.8695000000007,
      "v": 81
    },
    {
      "midi": 49,
      "hit": false,
      "t": 130434.75000000032,
      "d": 260.8695000000007,
      "v": 59
    },
    {
      "midi": 68,
      "hit": false,
      "t": 130695.6195000003,
      "d": 260.8695000000007,
      "v": 72
    },
    {
      "midi": 49,
      "hit": false,
      "t": 130695.61950000032,
      "d": 260.8695000000007,
      "v": 74
    },
    {
      "midi": 65,
      "hit": false,
      "t": 130956.4890000003,
      "d": 260.86949999998615,
      "v": 80
    },
    {
      "midi": 72,
      "hit": false,
      "t": 130956.4890000003,
      "d": 260.86949999998615,
      "v": 97
    },
    {
      "midi": 49,
      "hit": false,
      "t": 130956.48900000032,
      "d": 260.8695000000007,
      "v": 61
    },
    {
      "midi": 70,
      "hit": false,
      "t": 131217.3585000003,
      "d": 260.8695000000007,
      "v": 84
    },
    {
      "midi": 49,
      "hit": false,
      "t": 131217.35850000032,
      "d": 260.8695000000007,
      "v": 72
    },
    {
      "midi": 67,
      "hit": false,
      "t": 131478.2280000003,
      "d": 260.8695000000007,
      "v": 95
    },
    {
      "midi": 51,
      "hit": false,
      "t": 131478.22800000032,
      "d": 260.8695000000007,
      "v": 77
    },
    {
      "midi": 70,
      "hit": false,
      "t": 131739.0975000003,
      "d": 260.8695000000007,
      "v": 84
    },
    {
      "midi": 51,
      "hit": false,
      "t": 131739.09750000032,
      "d": 260.8695000000007,
      "v": 77
    },
    {
      "midi": 77,
      "hit": false,
      "t": 131999.9670000003,
      "d": 260.8695000000007,
      "v": 95
    },
    {
      "midi": 51,
      "hit": false,
      "t": 131999.96700000032,
      "d": 260.8695000000007,
      "v": 65
    },
    {
      "midi": 70,
      "hit": false,
      "t": 132260.8365000003,
      "d": 260.8695000000007,
      "v": 74
    },
    {
      "midi": 51,
      "hit": false,
      "t": 132260.83650000033,
      "d": 260.8695000000007,
      "v": 77
    },
    {
      "midi": 75,
      "hit": false,
      "t": 132521.7060000003,
      "d": 260.8695000000007,
      "v": 81
    },
    {
      "midi": 51,
      "hit": false,
      "t": 132521.70600000033,
      "d": 260.8695000000007,
      "v": 74
    },
    {
      "midi": 70,
      "hit": false,
      "t": 132782.5755000003,
      "d": 260.8695000000007,
      "v": 88
    },
    {
      "midi": 51,
      "hit": false,
      "t": 132782.57550000033,
      "d": 260.8695000000007,
      "v": 96
    },
    {
      "midi": 67,
      "hit": false,
      "t": 133043.4450000003,
      "d": 260.8695000000007,
      "v": 84
    },
    {
      "midi": 73,
      "hit": false,
      "t": 133043.4450000003,
      "d": 260.8695000000007,
      "v": 77
    },
    {
      "midi": 51,
      "hit": false,
      "t": 133043.44500000033,
      "d": 260.8695000000007,
      "v": 81
    },
    {
      "midi": 75,
      "hit": false,
      "t": 133304.3145000003,
      "d": 260.8695000000007,
      "v": 74
    },
    {
      "midi": 51,
      "hit": false,
      "t": 133304.31450000033,
      "d": 260.8695000000007,
      "v": 96
    },
    {
      "midi": 60,
      "hit": false,
      "t": 133565.1840000003,
      "d": 260.8695000000007,
      "v": 101
    },
    {
      "midi": 44,
      "hit": false,
      "t": 133565.18400000033,
      "d": 260.8695000000007,
      "v": 72
    },
    {
      "midi": 63,
      "hit": false,
      "t": 133826.0535000003,
      "d": 260.8695000000007,
      "v": 81
    },
    {
      "midi": 44,
      "hit": false,
      "t": 133826.05350000033,
      "d": 260.8695000000007,
      "v": 77
    },
    {
      "midi": 68,
      "hit": false,
      "t": 134086.9230000003,
      "d": 260.8695000000007,
      "v": 84
    },
    {
      "midi": 44,
      "hit": false,
      "t": 134086.92300000033,
      "d": 260.8695000000007,
      "v": 65
    },
    {
      "midi": 63,
      "hit": false,
      "t": 134347.7925000003,
      "d": 260.8695000000007,
      "v": 66
    },
    {
      "midi": 44,
      "hit": false,
      "t": 134347.79250000033,
      "d": 260.8695000000007,
      "v": 61
    },
    {
      "midi": 63,
      "hit": false,
      "t": 134608.6620000003,
      "d": 260.8695000000007,
      "v": 84
    },
    {
      "midi": 72,
      "hit": false,
      "t": 134608.6620000003,
      "d": 260.8695000000007,
      "v": 92
    },
    {
      "midi": 44,
      "hit": false,
      "t": 134608.66200000033,
      "d": 260.8695000000007,
      "v": 81
    },
    {
      "midi": 70,
      "hit": false,
      "t": 134869.5315000003,
      "d": 260.8695000000007,
      "v": 74
    },
    {
      "midi": 44,
      "hit": false,
      "t": 134869.53150000033,
      "d": 260.8695000000007,
      "v": 69
    },
    {
      "midi": 68,
      "hit": false,
      "t": 135130.4010000003,
      "d": 260.8695000000007,
      "v": 77
    },
    {
      "midi": 44,
      "hit": false,
      "t": 135130.40100000033,
      "d": 260.8695000000007,
      "v": 66
    },
    {
      "midi": 70,
      "hit": false,
      "t": 135391.2705000003,
      "d": 260.8695000000007,
      "v": 84
    },
    {
      "midi": 44,
      "hit": false,
      "t": 135391.27050000033,
      "d": 260.8695000000007,
      "v": 92
    },
    {
      "midi": 63,
      "hit": false,
      "t": 135652.1400000003,
      "d": 521.7390000000014,
      "v": 77
    },
    {
      "midi": 44,
      "hit": false,
      "t": 135652.14000000033,
      "d": 260.8695000000007,
      "v": 92
    },
    {
      "midi": 44,
      "hit": false,
      "t": 135913.00950000033,
      "d": 260.8695000000007,
      "v": 48
    },
    {
      "midi": 72,
      "hit": false,
      "t": 136173.8790000003,
      "d": 260.8695000000007,
      "v": 95
    },
    {
      "midi": 44,
      "hit": false,
      "t": 136173.87900000034,
      "d": 260.8695000000007,
      "v": 57
    },
    {
      "midi": 73,
      "hit": false,
      "t": 136434.7485000003,
      "d": 260.8695000000007,
      "v": 65
    },
    {
      "midi": 44,
      "hit": false,
      "t": 136434.74850000034,
      "d": 260.8695000000007,
      "v": 72
    },
    {
      "midi": 72,
      "hit": false,
      "t": 136695.6180000003,
      "d": 521.7390000000014,
      "v": 101
    },
    {
      "midi": 44,
      "hit": false,
      "t": 136695.61800000034,
      "d": 260.8695000000007,
      "v": 69
    },
    {
      "midi": 44,
      "hit": false,
      "t": 136956.48750000034,
      "d": 260.8695000000007,
      "v": 69
    },
    {
      "midi": 63,
      "hit": false,
      "t": 137217.3570000003,
      "d": 260.8695000000007,
      "v": 66
    },
    {
      "midi": 70,
      "hit": false,
      "t": 137217.3570000003,
      "d": 260.8695000000007,
      "v": 88
    },
    {
      "midi": 44,
      "hit": false,
      "t": 137217.35700000034,
      "d": 260.8695000000007,
      "v": 59
    },
    {
      "midi": 68,
      "hit": false,
      "t": 137478.2265000003,
      "d": 260.8695000000007,
      "v": 88
    },
    {
      "midi": 44,
      "hit": false,
      "t": 137478.22650000034,
      "d": 260.8695000000007,
      "v": 61
    },
    {
      "midi": 68,
      "hit": false,
      "t": 137739.0960000003,
      "d": 260.8695000000007,
      "v": 92
    },
    {
      "midi": 44,
      "hit": false,
      "t": 137739.09600000034,
      "d": 260.8695000000007,
      "v": 88
    },
    {
      "midi": 60,
      "hit": false,
      "t": 137999.9655000003,
      "d": 260.8695000000007,
      "v": 62
    },
    {
      "midi": 44,
      "hit": false,
      "t": 137999.96550000034,
      "d": 260.8695000000007,
      "v": 72
    },
    {
      "midi": 63,
      "hit": false,
      "t": 138260.8350000003,
      "d": 260.8695000000007,
      "v": 69
    },
    {
      "midi": 44,
      "hit": false,
      "t": 138260.83500000034,
      "d": 260.8695000000007,
      "v": 77
    },
    {
      "midi": 60,
      "hit": false,
      "t": 138521.7045000003,
      "d": 260.8695000000007,
      "v": 68
    },
    {
      "midi": 44,
      "hit": false,
      "t": 138521.70450000034,
      "d": 260.8695000000007,
      "v": 77
    },
    {
      "midi": 63,
      "hit": false,
      "t": 138782.5740000003,
      "d": 260.8695000000007,
      "v": 88
    },
    {
      "midi": 72,
      "hit": false,
      "t": 138782.5740000003,
      "d": 260.8695000000007,
      "v": 87
    },
    {
      "midi": 44,
      "hit": false,
      "t": 138782.57400000034,
      "d": 260.8695000000007,
      "v": 61
    },
    {
      "midi": 70,
      "hit": false,
      "t": 139043.4435000003,
      "d": 260.8695000000007,
      "v": 84
    },
    {
      "midi": 44,
      "hit": false,
      "t": 139043.44350000034,
      "d": 260.8695000000007,
      "v": 74
    },
    {
      "midi": 68,
      "hit": false,
      "t": 139304.31300000031,
      "d": 260.8695000000007,
      "v": 81
    },
    {
      "midi": 44,
      "hit": false,
      "t": 139304.31300000034,
      "d": 260.8695000000007,
      "v": 77
    },
    {
      "midi": 70,
      "hit": false,
      "t": 139565.18250000032,
      "d": 260.8695000000007,
      "v": 81
    },
    {
      "midi": 44,
      "hit": false,
      "t": 139565.18250000034,
      "d": 260.8695000000007,
      "v": 77
    },
    {
      "midi": 63,
      "hit": false,
      "t": 139826.05200000032,
      "d": 521.7390000000014,
      "v": 77
    },
    {
      "midi": 44,
      "hit": false,
      "t": 139826.05200000035,
      "d": 260.8695000000007,
      "v": 81
    },
    {
      "midi": 44,
      "hit": false,
      "t": 140086.92150000035,
      "d": 260.8695000000007,
      "v": 61
    },
    {
      "midi": 72,
      "hit": false,
      "t": 140347.79100000032,
      "d": 260.8695000000007,
      "v": 97
    },
    {
      "midi": 44,
      "hit": false,
      "t": 140347.79100000035,
      "d": 260.8695000000007,
      "v": 61
    },
    {
      "midi": 73,
      "hit": false,
      "t": 140608.66050000032,
      "d": 260.8695000000007,
      "v": 77
    },
    {
      "midi": 44,
      "hit": false,
      "t": 140608.66050000035,
      "d": 260.8695000000007,
      "v": 84
    },
    {
      "midi": 72,
      "hit": false,
      "t": 140869.53000000032,
      "d": 521.7390000000014,
      "v": 101
    },
    {
      "midi": 44,
      "hit": false,
      "t": 140869.53000000035,
      "d": 260.8695000000007,
      "v": 88
    },
    {
      "midi": 44,
      "hit": false,
      "t": 141130.39950000035,
      "d": 260.8695000000007,
      "v": 77
    },
    {
      "midi": 60,
      "hit": false,
      "t": 141391.26900000032,
      "d": 260.8695000000007,
      "v": 60
    },
    {
      "midi": 70,
      "hit": false,
      "t": 141391.26900000032,
      "d": 260.8695000000007,
      "v": 88
    },
    {
      "midi": 44,
      "hit": false,
      "t": 141391.26900000035,
      "d": 260.8695000000007,
      "v": 65
    },
    {
      "midi": 68,
      "hit": false,
      "t": 141652.13850000032,
      "d": 260.8695000000007,
      "v": 77
    },
    {
      "midi": 44,
      "hit": false,
      "t": 141652.13850000035,
      "d": 260.8695000000007,
      "v": 84
    },
    {
      "midi": 68,
      "hit": false,
      "t": 141913.00800000032,
      "d": 260.8695000000007,
      "v": 84
    },
    {
      "midi": 41,
      "hit": false,
      "t": 141913.00800000035,
      "d": 260.8695000000007,
      "v": 80
    },
    {
      "midi": 60,
      "hit": false,
      "t": 142173.87750000032,
      "d": 260.8695000000007,
      "v": 76
    },
    {
      "midi": 41,
      "hit": false,
      "t": 142173.87750000035,
      "d": 260.8695000000007,
      "v": 71
    },
    {
      "midi": 67,
      "hit": false,
      "t": 142434.74700000032,
      "d": 260.8695000000007,
      "v": 95
    },
    {
      "midi": 41,
      "hit": false,
      "t": 142434.74700000035,
      "d": 260.8695000000007,
      "v": 63
    },
    {
      "midi": 60,
      "hit": false,
      "t": 142695.61650000032,
      "d": 260.8695000000007,
      "v": 71
    },
    {
      "midi": 41,
      "hit": false,
      "t": 142695.61650000035,
      "d": 260.8695000000007,
      "v": 63
    },
    {
      "midi": 60,
      "hit": false,
      "t": 142956.48600000032,
      "d": 260.8695000000007,
      "v": 82
    },
    {
      "midi": 68,
      "hit": false,
      "t": 142956.48600000032,
      "d": 260.8695000000007,
      "v": 81
    },
    {
      "midi": 41,
      "hit": false,
      "t": 142956.48600000035,
      "d": 260.8695000000007,
      "v": 69
    },
    {
      "midi": 67,
      "hit": false,
      "t": 143217.35550000033,
      "d": 260.8695000000007,
      "v": 92
    },
    {
      "midi": 41,
      "hit": false,
      "t": 143217.35550000035,
      "d": 260.8695000000007,
      "v": 60
    },
    {
      "midi": 65,
      "hit": false,
      "t": 143478.22500000033,
      "d": 260.8695000000007,
      "v": 92
    },
    {
      "midi": 41,
      "hit": false,
      "t": 143478.22500000036,
      "d": 260.8695000000007,
      "v": 68
    },
    {
      "midi": 67,
      "hit": false,
      "t": 143739.09450000033,
      "d": 260.8695000000007,
      "v": 97
    },
    {
      "midi": 41,
      "hit": false,
      "t": 143739.09450000036,
      "d": 260.8695000000007,
      "v": 71
    },
    {
      "midi": 60,
      "hit": false,
      "t": 143999.96400000033,
      "d": 260.8695000000007,
      "v": 80
    },
    {
      "midi": 41,
      "hit": false,
      "t": 143999.96400000036,
      "d": 260.8695000000007,
      "v": 78
    },
    {
      "midi": 68,
      "hit": false,
      "t": 144260.83350000033,
      "d": 260.8695000000007,
      "v": 84
    },
    {
      "midi": 41,
      "hit": false,
      "t": 144260.83350000036,
      "d": 260.8695000000007,
      "v": 69
    },
    {
      "midi": 68,
      "hit": false,
      "t": 144521.70300000033,
      "d": 260.8695000000007,
      "v": 81
    },
    {
      "midi": 41,
      "hit": false,
      "t": 144521.70300000036,
      "d": 260.8695000000007,
      "v": 68
    },
    {
      "midi": 63,
      "hit": false,
      "t": 144782.57250000033,
      "d": 521.7390000000014,
      "v": 81
    },
    {
      "midi": 72,
      "hit": false,
      "t": 144782.57250000033,
      "d": 521.7390000000014,
      "v": 72
    },
    {
      "midi": 41,
      "hit": false,
      "t": 144782.57250000036,
      "d": 260.8695000000007,
      "v": 80
    },
    {
      "midi": 41,
      "hit": false,
      "t": 145043.44200000036,
      "d": 260.8695000000007,
      "v": 69
    },
    {
      "midi": 65,
      "hit": false,
      "t": 145304.31150000033,
      "d": 521.7390000000014,
      "v": 76
    },
    {
      "midi": 73,
      "hit": false,
      "t": 145304.31150000033,
      "d": 521.7390000000014,
      "v": 81
    },
    {
      "midi": 41,
      "hit": false,
      "t": 145304.31150000036,
      "d": 260.8695000000007,
      "v": 87
    },
    {
      "midi": 41,
      "hit": false,
      "t": 145565.18100000036,
      "d": 260.8695000000007,
      "v": 87
    },
    {
      "midi": 65,
      "hit": false,
      "t": 145826.05050000033,
      "d": 260.8695000000007,
      "v": 80
    },
    {
      "midi": 68,
      "hit": false,
      "t": 145826.05050000033,
      "d": 260.8695000000007,
      "v": 88
    },
    {
      "midi": 49,
      "hit": false,
      "t": 145826.05050000036,
      "d": 260.8695000000007,
      "v": 96
    },
    {
      "midi": 49,
      "hit": false,
      "t": 146086.92000000036,
      "d": 260.8695000000007,
      "v": 100
    },
    {
      "midi": 68,
      "hit": false,
      "t": 146347.78950000033,
      "d": 260.8695000000007,
      "v": 84
    },
    {
      "midi": 49,
      "hit": false,
      "t": 146347.78950000036,
      "d": 260.8695000000007,
      "v": 84
    },
    {
      "midi": 68,
      "hit": false,
      "t": 146608.65900000033,
      "d": 260.8695000000007,
      "v": 92
    },
    {
      "midi": 49,
      "hit": false,
      "t": 146608.65900000036,
      "d": 260.8695000000007,
      "v": 65
    },
    {
      "midi": 65,
      "hit": false,
      "t": 146869.52850000034,
      "d": 521.7390000000014,
      "v": 80
    },
    {
      "midi": 73,
      "hit": false,
      "t": 146869.52850000034,
      "d": 521.7390000000014,
      "v": 84
    },
    {
      "midi": 49,
      "hit": false,
      "t": 146869.52850000036,
      "d": 260.8695000000007,
      "v": 84
    },
    {
      "midi": 49,
      "hit": false,
      "t": 147130.39800000036,
      "d": 260.8695000000007,
      "v": 92
    },
    {
      "midi": 72,
      "hit": false,
      "t": 147391.26750000034,
      "d": 521.7390000000014,
      "v": 97
    },
    {
      "midi": 49,
      "hit": false,
      "t": 147391.26750000037,
      "d": 260.8695000000007,
      "v": 92
    },
    {
      "midi": 49,
      "hit": false,
      "t": 147652.13700000037,
      "d": 260.8695000000007,
      "v": 92
    },
    {
      "midi": 67,
      "hit": false,
      "t": 147913.00650000034,
      "d": 260.8695000000007,
      "v": 97
    },
    {
      "midi": 70,
      "hit": false,
      "t": 147913.00650000034,
      "d": 260.8695000000007,
      "v": 84
    },
    {
      "midi": 51,
      "hit": false,
      "t": 147913.00650000037,
      "d": 260.8695000000007,
      "v": 104
    },
    {
      "midi": 51,
      "hit": false,
      "t": 148173.87600000037,
      "d": 260.8695000000007,
      "v": 104
    },
    {
      "midi": 63,
      "hit": false,
      "t": 148434.74550000034,
      "d": 260.8695000000007,
      "v": 51
    },
    {
      "midi": 70,
      "hit": false,
      "t": 148434.74550000034,
      "d": 260.8695000000007,
      "v": 72
    },
    {
      "midi": 51,
      "hit": false,
      "t": 148434.74550000037,
      "d": 260.8695000000007,
      "v": 104
    },
    {
      "midi": 68,
      "hit": false,
      "t": 148695.61500000034,
      "d": 260.8695000000007,
      "v": 100
    },
    {
      "midi": 51,
      "hit": false,
      "t": 148695.61500000037,
      "d": 260.8695000000007,
      "v": 92
    },
    {
      "midi": 72,
      "hit": false,
      "t": 148956.48450000034,
      "d": 260.8695000000007,
      "v": 97
    },
    {
      "midi": 51,
      "hit": false,
      "t": 148956.48450000037,
      "d": 260.8695000000007,
      "v": 92
    },
    {
      "midi": 68,
      "hit": false,
      "t": 149217.35400000034,
      "d": 521.7390000000014,
      "v": 80
    },
    {
      "midi": 51,
      "hit": false,
      "t": 149217.35400000037,
      "d": 260.8695000000007,
      "v": 96
    },
    {
      "midi": 51,
      "hit": false,
      "t": 149478.22350000037,
      "d": 260.8695000000007,
      "v": 88
    },
    {
      "midi": 61,
      "hit": false,
      "t": 149739.09300000034,
      "d": 521.7390000000014,
      "v": 97
    },
    {
      "midi": 68,
      "hit": false,
      "t": 149739.09300000034,
      "d": 521.7390000000014,
      "v": 92
    },
    {
      "midi": 51,
      "hit": false,
      "t": 149739.09300000037,
      "d": 260.8695000000007,
      "v": 104
    },
    {
      "midi": 51,
      "hit": false,
      "t": 149999.96250000037,
      "d": 260.8695000000007,
      "v": 84
    },
    {
      "midi": 41,
      "hit": false,
      "t": 150260.83200000037,
      "d": 260.8695000000007,
      "v": 82
    },
    {
      "midi": 60,
      "hit": false,
      "t": 150521.70150000034,
      "d": 260.8695000000007,
      "v": 67
    },
    {
      "midi": 41,
      "hit": false,
      "t": 150521.70150000037,
      "d": 260.8695000000007,
      "v": 89
    },
    {
      "midi": 67,
      "hit": false,
      "t": 150782.57100000035,
      "d": 260.8695000000007,
      "v": 104
    },
    {
      "midi": 41,
      "hit": false,
      "t": 150782.57100000037,
      "d": 260.8695000000007,
      "v": 80
    },
    {
      "midi": 60,
      "hit": false,
      "t": 151043.44050000035,
      "d": 260.8695000000007,
      "v": 57
    },
    {
      "midi": 41,
      "hit": false,
      "t": 151043.44050000038,
      "d": 260.8695000000007,
      "v": 74
    },
    {
      "midi": 60,
      "hit": false,
      "t": 151304.31000000035,
      "d": 260.8695000000007,
      "v": 95
    },
    {
      "midi": 68,
      "hit": false,
      "t": 151304.31000000035,
      "d": 260.8695000000007,
      "v": 81
    },
    {
      "midi": 41,
      "hit": false,
      "t": 151304.31000000038,
      "d": 260.8695000000007,
      "v": 89
    },
    {
      "midi": 67,
      "hit": false,
      "t": 151565.17950000035,
      "d": 260.8695000000007,
      "v": 95
    },
    {
      "midi": 41,
      "hit": false,
      "t": 151565.17950000038,
      "d": 260.8695000000007,
      "v": 84
    },
    {
      "midi": 65,
      "hit": false,
      "t": 151826.04900000035,
      "d": 260.8695000000007,
      "v": 82
    },
    {
      "midi": 41,
      "hit": false,
      "t": 151826.04900000038,
      "d": 260.8695000000007,
      "v": 84
    },
    {
      "midi": 67,
      "hit": false,
      "t": 152086.91850000035,
      "d": 260.8695000000007,
      "v": 97
    },
    {
      "midi": 41,
      "hit": false,
      "t": 152086.91850000038,
      "d": 260.8695000000007,
      "v": 92
    },
    {
      "midi": 65,
      "hit": false,
      "t": 152347.78800000035,
      "d": 521.7390000000014,
      "v": 89
    },
    {
      "midi": 41,
      "hit": false,
      "t": 152347.78800000038,
      "d": 260.8695000000007,
      "v": 84
    },
    {
      "midi": 41,
      "hit": false,
      "t": 152608.65750000038,
      "d": 260.8695000000007,
      "v": 81
    },
    {
      "midi": 72,
      "hit": false,
      "t": 152869.52700000035,
      "d": 260.8695000000007,
      "v": 97
    },
    {
      "midi": 41,
      "hit": false,
      "t": 152869.52700000038,
      "d": 260.8695000000007,
      "v": 49
    },
    {
      "midi": 73,
      "hit": false,
      "t": 153130.39650000035,
      "d": 260.8695000000007,
      "v": 77
    },
    {
      "midi": 41,
      "hit": false,
      "t": 153130.39650000038,
      "d": 260.8695000000007,
      "v": 88
    },
    {
      "midi": 63,
      "hit": false,
      "t": 153391.26600000035,
      "d": 521.7390000000014,
      "v": 72
    },
    {
      "midi": 72,
      "hit": false,
      "t": 153391.26600000035,
      "d": 521.7390000000014,
      "v": 101
    },
    {
      "midi": 39,
      "hit": false,
      "t": 153391.26600000038,
      "d": 260.8695000000007,
      "v": 88
    },
    {
      "midi": 39,
      "hit": false,
      "t": 153652.13550000038,
      "d": 260.8695000000007,
      "v": 100
    },
    {
      "midi": 61,
      "hit": false,
      "t": 153913.00500000035,
      "d": 260.8695000000007,
      "v": 55
    },
    {
      "midi": 70,
      "hit": false,
      "t": 153913.00500000035,
      "d": 260.8695000000007,
      "v": 84
    },
    {
      "midi": 39,
      "hit": false,
      "t": 153913.00500000038,
      "d": 260.8695000000007,
      "v": 92
    },
    {
      "midi": 68,
      "hit": false,
      "t": 154173.87450000035,
      "d": 260.8695000000007,
      "v": 84
    },
    {
      "midi": 39,
      "hit": false,
      "t": 154173.87450000038,
      "d": 260.8695000000007,
      "v": 84
    },
    {
      "midi": 72,
      "hit": false,
      "t": 154434.74400000036,
      "d": 260.8695000000007,
      "v": 101
    },
    {
      "midi": 44,
      "hit": false,
      "t": 154434.74400000038,
      "d": 260.8695000000007,
      "v": 84
    },
    {
      "midi": 63,
      "hit": false,
      "t": 154695.61350000036,
      "d": 260.8695000000007,
      "v": 61
    },
    {
      "midi": 44,
      "hit": false,
      "t": 154695.61350000039,
      "d": 260.8695000000007,
      "v": 66
    },
    {
      "midi": 68,
      "hit": false,
      "t": 154956.48300000036,
      "d": 260.8695000000007,
      "v": 84
    },
    {
      "midi": 44,
      "hit": false,
      "t": 154956.4830000004,
      "d": 260.8695000000007,
      "v": 59
    },
    {
      "midi": 63,
      "hit": false,
      "t": 155217.35250000036,
      "d": 260.8695000000007,
      "v": 43
    },
    {
      "midi": 44,
      "hit": false,
      "t": 155217.3525000004,
      "d": 260.8695000000007,
      "v": 84
    },
    {
      "midi": 63,
      "hit": false,
      "t": 155478.22200000036,
      "d": 260.8695000000007,
      "v": 84
    },
    {
      "midi": 72,
      "hit": false,
      "t": 155478.22200000036,
      "d": 260.8695000000007,
      "v": 80
    },
    {
      "midi": 44,
      "hit": false,
      "t": 155478.2220000004,
      "d": 260.8695000000007,
      "v": 77
    },
    {
      "midi": 70,
      "hit": false,
      "t": 155739.09150000036,
      "d": 260.8695000000007,
      "v": 74
    },
    {
      "midi": 44,
      "hit": false,
      "t": 155739.0915000004,
      "d": 260.8695000000007,
      "v": 81
    },
    {
      "midi": 68,
      "hit": false,
      "t": 155999.96100000036,
      "d": 260.8695000000007,
      "v": 77
    },
    {
      "midi": 44,
      "hit": false,
      "t": 155999.9610000004,
      "d": 260.8695000000007,
      "v": 96
    },
    {
      "midi": 70,
      "hit": false,
      "t": 156260.83050000036,
      "d": 260.8695000000007,
      "v": 61
    },
    {
      "midi": 44,
      "hit": false,
      "t": 156260.8305000004,
      "d": 260.8695000000007,
      "v": 104
    },
    {
      "midi": 63,
      "hit": false,
      "t": 156521.70000000036,
      "d": 521.7390000000014,
      "v": 84
    },
    {
      "midi": 44,
      "hit": false,
      "t": 156521.7000000004,
      "d": 260.8695000000007,
      "v": 104
    },
    {
      "midi": 44,
      "hit": false,
      "t": 156782.5695000004,
      "d": 260.8695000000007,
      "v": 81
    },
    {
      "midi": 72,
      "hit": false,
      "t": 157043.43900000036,
      "d": 260.8695000000007,
      "v": 97
    },
    {
      "midi": 44,
      "hit": false,
      "t": 157043.4390000004,
      "d": 260.8695000000007,
      "v": 77
    },
    {
      "midi": 73,
      "hit": false,
      "t": 157304.30850000036,
      "d": 260.8695000000007,
      "v": 81
    },
    {
      "midi": 44,
      "hit": false,
      "t": 157304.3085000004,
      "d": 260.8695000000007,
      "v": 84
    },
    {
      "midi": 72,
      "hit": false,
      "t": 157565.17800000036,
      "d": 521.7390000000014,
      "v": 97
    },
    {
      "midi": 44,
      "hit": false,
      "t": 157565.1780000004,
      "d": 260.8695000000007,
      "v": 88
    },
    {
      "midi": 44,
      "hit": false,
      "t": 157826.0475000004,
      "d": 260.8695000000007,
      "v": 61
    },
    {
      "midi": 60,
      "hit": false,
      "t": 158086.91700000037,
      "d": 260.8695000000007,
      "v": 87
    },
    {
      "midi": 70,
      "hit": false,
      "t": 158086.91700000037,
      "d": 260.8695000000007,
      "v": 84
    },
    {
      "midi": 44,
      "hit": false,
      "t": 158086.9170000004,
      "d": 260.8695000000007,
      "v": 88
    },
    {
      "midi": 68,
      "hit": false,
      "t": 158347.78650000037,
      "d": 260.8695000000007,
      "v": 66
    },
    {
      "midi": 44,
      "hit": false,
      "t": 158347.7865000004,
      "d": 260.8695000000007,
      "v": 96
    },
    {
      "midi": 68,
      "hit": false,
      "t": 158608.65600000037,
      "d": 260.8695000000007,
      "v": 84
    },
    {
      "midi": 41,
      "hit": false,
      "t": 158608.6560000004,
      "d": 260.8695000000007,
      "v": 72
    },
    {
      "midi": 60,
      "hit": false,
      "t": 158869.52550000037,
      "d": 260.8695000000007,
      "v": 95
    },
    {
      "midi": 41,
      "hit": false,
      "t": 158869.5255000004,
      "d": 260.8695000000007,
      "v": 72
    },
    {
      "midi": 63,
      "hit": false,
      "t": 159130.39500000037,
      "d": 260.8695000000007,
      "v": 74
    },
    {
      "midi": 41,
      "hit": false,
      "t": 159130.3950000004,
      "d": 260.8695000000007,
      "v": 65
    },
    {
      "midi": 60,
      "hit": false,
      "t": 159391.26450000037,
      "d": 260.8695000000007,
      "v": 76
    },
    {
      "midi": 41,
      "hit": false,
      "t": 159391.2645000004,
      "d": 260.8695000000007,
      "v": 72
    },
    {
      "midi": 60,
      "hit": false,
      "t": 159652.13400000037,
      "d": 260.8695000000007,
      "v": 82
    },
    {
      "midi": 68,
      "hit": false,
      "t": 159652.13400000037,
      "d": 260.8695000000007,
      "v": 77
    },
    {
      "midi": 41,
      "hit": false,
      "t": 159652.1340000004,
      "d": 260.8695000000007,
      "v": 71
    },
    {
      "midi": 67,
      "hit": false,
      "t": 159913.00350000037,
      "d": 260.8695000000007,
      "v": 95
    },
    {
      "midi": 41,
      "hit": false,
      "t": 159913.0035000004,
      "d": 260.8695000000007,
      "v": 63
    },
    {
      "midi": 65,
      "hit": false,
      "t": 160173.87300000037,
      "d": 260.8695000000007,
      "v": 92
    },
    {
      "midi": 41,
      "hit": false,
      "t": 160173.8730000004,
      "d": 260.8695000000007,
      "v": 69
    },
    {
      "midi": 67,
      "hit": false,
      "t": 160434.74250000037,
      "d": 260.8695000000007,
      "v": 92
    },
    {
      "midi": 41,
      "hit": false,
      "t": 160434.7425000004,
      "d": 260.8695000000007,
      "v": 74
    },
    {
      "midi": 60,
      "hit": false,
      "t": 160695.61200000037,
      "d": 260.8695000000007,
      "v": 78
    },
    {
      "midi": 41,
      "hit": false,
      "t": 160695.6120000004,
      "d": 260.8695000000007,
      "v": 76
    },
    {
      "midi": 68,
      "hit": false,
      "t": 160956.48150000037,
      "d": 260.8695000000007,
      "v": 81
    },
    {
      "midi": 41,
      "hit": false,
      "t": 160956.4815000004,
      "d": 260.8695000000007,
      "v": 64
    },
    {
      "midi": 68,
      "hit": false,
      "t": 161217.35100000037,
      "d": 260.8695000000007,
      "v": 81
    },
    {
      "midi": 41,
      "hit": false,
      "t": 161217.3510000004,
      "d": 260.8695000000007,
      "v": 71
    },
    {
      "midi": 63,
      "hit": false,
      "t": 161478.22050000037,
      "d": 521.7390000000014,
      "v": 72
    },
    {
      "midi": 72,
      "hit": false,
      "t": 161478.22050000037,
      "d": 521.7390000000014,
      "v": 89
    },
    {
      "midi": 41,
      "hit": false,
      "t": 161478.2205000004,
      "d": 260.8695000000007,
      "v": 80
    },
    {
      "midi": 41,
      "hit": false,
      "t": 161739.0900000004,
      "d": 260.8695000000007,
      "v": 82
    },
    {
      "midi": 65,
      "hit": false,
      "t": 161999.95950000038,
      "d": 521.7390000000014,
      "v": 89
    },
    {
      "midi": 73,
      "hit": false,
      "t": 161999.95950000038,
      "d": 521.7390000000014,
      "v": 77
    },
    {
      "midi": 41,
      "hit": false,
      "t": 161999.9595000004,
      "d": 260.8695000000007,
      "v": 87
    },
    {
      "midi": 41,
      "hit": false,
      "t": 162260.8290000004,
      "d": 260.8695000000007,
      "v": 95
    },
    {
      "midi": 65,
      "hit": false,
      "t": 162521.69850000038,
      "d": 260.8695000000007,
      "v": 92
    },
    {
      "midi": 68,
      "hit": false,
      "t": 162521.69850000038,
      "d": 260.8695000000007,
      "v": 88
    },
    {
      "midi": 49,
      "hit": false,
      "t": 162521.6985000004,
      "d": 260.8695000000007,
      "v": 84
    },
    {
      "midi": 49,
      "hit": false,
      "t": 162782.5680000004,
      "d": 260.8695000000007,
      "v": 96
    },
    {
      "midi": 68,
      "hit": false,
      "t": 163043.43750000038,
      "d": 260.8695000000007,
      "v": 84
    },
    {
      "midi": 49,
      "hit": false,
      "t": 163043.4375000004,
      "d": 260.8695000000007,
      "v": 100
    },
    {
      "midi": 68,
      "hit": false,
      "t": 163304.30700000038,
      "d": 260.8695000000007,
      "v": 88
    },
    {
      "midi": 49,
      "hit": false,
      "t": 163304.3070000004,
      "d": 260.8695000000007,
      "v": 92
    },
    {
      "midi": 65,
      "hit": false,
      "t": 163565.17650000038,
      "d": 521.7390000000014,
      "v": 87
    },
    {
      "midi": 73,
      "hit": false,
      "t": 163565.17650000038,
      "d": 521.7390000000014,
      "v": 84
    },
    {
      "midi": 49,
      "hit": false,
      "t": 163565.1765000004,
      "d": 260.8695000000007,
      "v": 88
    },
    {
      "midi": 49,
      "hit": false,
      "t": 163826.0460000004,
      "d": 260.8695000000007,
      "v": 88
    },
    {
      "midi": 72,
      "hit": false,
      "t": 164086.91550000038,
      "d": 521.7390000000014,
      "v": 95
    },
    {
      "midi": 49,
      "hit": false,
      "t": 164086.9155000004,
      "d": 260.8695000000007,
      "v": 84
    },
    {
      "midi": 49,
      "hit": false,
      "t": 164347.7850000004,
      "d": 260.8695000000007,
      "v": 88
    },
    {
      "midi": 67,
      "hit": false,
      "t": 164608.65450000038,
      "d": 260.8695000000007,
      "v": 97
    },
    {
      "midi": 70,
      "hit": false,
      "t": 164608.65450000038,
      "d": 260.8695000000007,
      "v": 84
    },
    {
      "midi": 51,
      "hit": false,
      "t": 164608.6545000004,
      "d": 260.8695000000007,
      "v": 92
    },
    {
      "midi": 51,
      "hit": false,
      "t": 164869.5240000004,
      "d": 260.8695000000007,
      "v": 100
    },
    {
      "midi": 63,
      "hit": false,
      "t": 165130.39350000038,
      "d": 260.8695000000007,
      "v": 52
    },
    {
      "midi": 70,
      "hit": false,
      "t": 165130.39350000038,
      "d": 260.8695000000007,
      "v": 84
    },
    {
      "midi": 51,
      "hit": false,
      "t": 165130.3935000004,
      "d": 260.8695000000007,
      "v": 55
    },
    {
      "midi": 68,
      "hit": false,
      "t": 165391.26300000038,
      "d": 260.8695000000007,
      "v": 84
    },
    {
      "midi": 51,
      "hit": false,
      "t": 165391.2630000004,
      "d": 260.8695000000007,
      "v": 84
    },
    {
      "midi": 72,
      "hit": false,
      "t": 165652.13250000039,
      "d": 260.8695000000007,
      "v": 97
    },
    {
      "midi": 51,
      "hit": false,
      "t": 165652.1325000004,
      "d": 260.8695000000007,
      "v": 77
    },
    {
      "midi": 68,
      "hit": false,
      "t": 165913.0020000004,
      "d": 521.7390000000014,
      "v": 77
    },
    {
      "midi": 51,
      "hit": false,
      "t": 165913.00200000042,
      "d": 260.8695000000007,
      "v": 81
    },
    {
      "midi": 51,
      "hit": false,
      "t": 166173.87150000042,
      "d": 260.8695000000007,
      "v": 88
    },
    {
      "midi": 61,
      "hit": false,
      "t": 166434.7410000004,
      "d": 521.7390000000014,
      "v": 81
    },
    {
      "midi": 68,
      "hit": false,
      "t": 166434.7410000004,
      "d": 521.7390000000014,
      "v": 55
    },
    {
      "midi": 51,
      "hit": false,
      "t": 166434.74100000042,
      "d": 260.8695000000007,
      "v": 92
    },
    {
      "midi": 51,
      "hit": false,
      "t": 166695.61050000042,
      "d": 260.8695000000007,
      "v": 81
    },
    {
      "midi": 60,
      "hit": false,
      "t": 166956.4800000004,
      "d": 260.8695000000007,
      "v": 87
    },
    {
      "midi": 44,
      "hit": false,
      "t": 166956.48000000042,
      "d": 260.8695000000007,
      "v": 72
    },
    {
      "midi": 63,
      "hit": false,
      "t": 167217.3495000004,
      "d": 260.8695000000007,
      "v": 66
    },
    {
      "midi": 44,
      "hit": false,
      "t": 167217.34950000042,
      "d": 260.8695000000007,
      "v": 77
    },
    {
      "midi": 68,
      "hit": false,
      "t": 167478.2190000004,
      "d": 260.8695000000007,
      "v": 72
    },
    {
      "midi": 44,
      "hit": false,
      "t": 167478.21900000042,
      "d": 260.8695000000007,
      "v": 74
    },
    {
      "midi": 63,
      "hit": false,
      "t": 167739.0885000004,
      "d": 260.8695000000007,
      "v": 55
    },
    {
      "midi": 44,
      "hit": false,
      "t": 167739.08850000042,
      "d": 260.8695000000007,
      "v": 72
    },
    {
      "midi": 63,
      "hit": false,
      "t": 167999.9580000004,
      "d": 260.8695000000007,
      "v": 84
    },
    {
      "midi": 72,
      "hit": false,
      "t": 167999.9580000004,
      "d": 260.8695000000007,
      "v": 84
    },
    {
      "midi": 44,
      "hit": false,
      "t": 167999.95800000042,
      "d": 260.8695000000007,
      "v": 61
    },
    {
      "midi": 70,
      "hit": false,
      "t": 168260.8275000004,
      "d": 260.8695000000007,
      "v": 81
    },
    {
      "midi": 44,
      "hit": false,
      "t": 168260.82750000042,
      "d": 260.8695000000007,
      "v": 74
    },
    {
      "midi": 68,
      "hit": false,
      "t": 168521.6970000004,
      "d": 260.8695000000007,
      "v": 32
    },
    {
      "midi": 44,
      "hit": false,
      "t": 168521.69700000042,
      "d": 260.8695000000007,
      "v": 72
    },
    {
      "midi": 70,
      "hit": false,
      "t": 168782.5665000004,
      "d": 260.8695000000007,
      "v": 77
    },
    {
      "midi": 44,
      "hit": false,
      "t": 168782.56650000042,
      "d": 260.8695000000007,
      "v": 69
    },
    {
      "midi": 44,
      "hit": false,
      "t": 169043.43600000042,
      "d": 260.8695000000007,
      "v": 74
    },
    {
      "midi": 44,
      "hit": false,
      "t": 169304.30550000042,
      "d": 260.8695000000007,
      "v": 72
    },
    {
      "midi": 63,
      "hit": false,
      "t": 169565.1750000004,
      "d": 521.7390000000014,
      "v": 97
    },
    {
      "midi": 68,
      "hit": false,
      "t": 169565.1750000004,
      "d": 521.7390000000014,
      "v": 97
    },
    {
      "midi": 44,
      "hit": false,
      "t": 169565.17500000042,
      "d": 260.8695000000007,
      "v": 59
    },
    {
      "midi": 44,
      "hit": false,
      "t": 169826.04450000043,
      "d": 260.8695000000007,
      "v": 69
    },
    {
      "midi": 68,
      "hit": false,
      "t": 170086.9140000004,
      "d": 521.7390000000014,
      "v": 97
    },
    {
      "midi": 72,
      "hit": false,
      "t": 170086.9140000004,
      "d": 521.7390000000014,
      "v": 97
    },
    {
      "midi": 44,
      "hit": false,
      "t": 170086.91400000043,
      "d": 260.8695000000007,
      "v": 69
    },
    {
      "midi": 44,
      "hit": false,
      "t": 170347.78350000043,
      "d": 260.8695000000007,
      "v": 72
    },
    {
      "midi": 68,
      "hit": false,
      "t": 170608.6530000004,
      "d": 260.8695000000007,
      "v": 97
    },
    {
      "midi": 75,
      "hit": false,
      "t": 170608.6530000004,
      "d": 260.8695000000007,
      "v": 97
    },
    {
      "midi": 44,
      "hit": false,
      "t": 170608.65300000043,
      "d": 260.8695000000007,
      "v": 84
    },
    {
      "midi": 72,
      "hit": false,
      "t": 170869.5225000004,
      "d": 260.8695000000007,
      "v": 97
    },
    {
      "midi": 48,
      "hit": false,
      "t": 170869.52250000043,
      "d": 260.8695000000007,
      "v": 97
    },
    {
      "midi": 68,
      "hit": false,
      "t": 171130.3920000004,
      "d": 2086.9560000000056,
      "v": 66
    },
    {
      "midi": 73,
      "hit": false,
      "t": 171130.3920000004,
      "d": 2086.9560000000056,
      "v": 63
    },
    {
      "midi": 77,
      "hit": false,
      "t": 171130.3920000004,
      "d": 2086.9560000000056,
      "v": 97
    },
    {
      "midi": 49,
      "hit": false,
      "t": 171130.39200000043,
      "d": 260.8695000000007,
      "v": 63
    },
    {
      "midi": 49,
      "hit": false,
      "t": 171391.26150000043,
      "d": 260.8695000000007,
      "v": 74
    },
    {
      "midi": 49,
      "hit": false,
      "t": 171652.13100000043,
      "d": 260.8695000000007,
      "v": 77
    },
    {
      "midi": 49,
      "hit": false,
      "t": 171913.00050000043,
      "d": 260.8695000000007,
      "v": 84
    },
    {
      "midi": 49,
      "hit": false,
      "t": 172173.87000000043,
      "d": 260.8695000000007,
      "v": 77
    },
    {
      "midi": 49,
      "hit": false,
      "t": 172434.73950000043,
      "d": 260.8695000000007,
      "v": 69
    },
    {
      "midi": 49,
      "hit": false,
      "t": 172695.60900000043,
      "d": 260.8695000000007,
      "v": 74
    },
    {
      "midi": 49,
      "hit": false,
      "t": 172956.47850000043,
      "d": 260.8695000000007,
      "v": 81
    },
    {
      "midi": 49,
      "hit": false,
      "t": 173217.34800000043,
      "d": 260.8695000000007,
      "v": 88
    },
    {
      "midi": 47,
      "hit": false,
      "t": 173478.21750000044,
      "d": 260.8695000000007,
      "v": 82
    },
    {
      "midi": 68,
      "hit": false,
      "t": 173739.0870000004,
      "d": 260.8695000000007,
      "v": 69
    },
    {
      "midi": 73,
      "hit": false,
      "t": 173739.0870000004,
      "d": 260.8695000000007,
      "v": 77
    },
    {
      "midi": 77,
      "hit": false,
      "t": 173739.0870000004,
      "d": 260.8695000000007,
      "v": 78
    },
    {
      "midi": 47,
      "hit": false,
      "t": 173739.08700000044,
      "d": 260.8695000000007,
      "v": 65
    },
    {
      "midi": 68,
      "hit": false,
      "t": 173999.9565000004,
      "d": 260.8695000000007,
      "v": 74
    },
    {
      "midi": 73,
      "hit": false,
      "t": 173999.9565000004,
      "d": 260.8695000000007,
      "v": 84
    },
    {
      "midi": 77,
      "hit": false,
      "t": 173999.9565000004,
      "d": 260.8695000000007,
      "v": 95
    },
    {
      "midi": 47,
      "hit": false,
      "t": 173999.95650000044,
      "d": 260.8695000000007,
      "v": 72
    },
    {
      "midi": 65,
      "hit": false,
      "t": 174260.8260000004,
      "d": 782.6085000000021,
      "v": 57
    },
    {
      "midi": 68,
      "hit": false,
      "t": 174260.8260000004,
      "d": 782.6085000000021,
      "v": 84
    },
    {
      "midi": 75,
      "hit": false,
      "t": 174260.8260000004,
      "d": 782.6085000000021,
      "v": 72
    },
    {
      "midi": 46,
      "hit": false,
      "t": 174260.82600000044,
      "d": 260.8695000000007,
      "v": 84
    },
    {
      "midi": 46,
      "hit": false,
      "t": 174521.69550000044,
      "d": 260.8695000000007,
      "v": 88
    },
    {
      "midi": 46,
      "hit": false,
      "t": 174782.56500000044,
      "d": 260.8695000000007,
      "v": 88
    },
    {
      "midi": 61,
      "hit": false,
      "t": 175043.4345000004,
      "d": 260.8695000000007,
      "v": 77
    },
    {
      "midi": 65,
      "hit": false,
      "t": 175043.4345000004,
      "d": 260.8695000000007,
      "v": 97
    },
    {
      "midi": 68,
      "hit": false,
      "t": 175043.4345000004,
      "d": 260.8695000000007,
      "v": 88
    },
    {
      "midi": 46,
      "hit": false,
      "t": 175043.43450000044,
      "d": 260.8695000000007,
      "v": 96
    },
    {
      "midi": 63,
      "hit": false,
      "t": 175304.3040000004,
      "d": 1043.4780000000028,
      "v": 88
    },
    {
      "midi": 68,
      "hit": false,
      "t": 175304.3040000004,
      "d": 1043.4780000000028,
      "v": 74
    },
    {
      "midi": 72,
      "hit": false,
      "t": 175304.3040000004,
      "d": 1043.4780000000028,
      "v": 89
    },
    {
      "midi": 44,
      "hit": false,
      "t": 175304.30400000044,
      "d": 260.8695000000007,
      "v": 66
    },
    {
      "midi": 44,
      "hit": false,
      "t": 175565.17350000044,
      "d": 260.8695000000007,
      "v": 100
    },
    {
      "midi": 44,
      "hit": false,
      "t": 175826.04300000044,
      "d": 260.8695000000007,
      "v": 96
    },
    {
      "midi": 44,
      "hit": false,
      "t": 176086.91250000044,
      "d": 260.8695000000007,
      "v": 92
    },
    {
      "midi": 63,
      "hit": false,
      "t": 176347.7820000004,
      "d": 260.8695000000007,
      "v": 84
    },
    {
      "midi": 72,
      "hit": false,
      "t": 176347.7820000004,
      "d": 260.8695000000007,
      "v": 87
    },
    {
      "midi": 44,
      "hit": false,
      "t": 176347.78200000044,
      "d": 260.8695000000007,
      "v": 92
    },
    {
      "midi": 70,
      "hit": false,
      "t": 176608.65150000041,
      "d": 260.8695000000007,
      "v": 92
    },
    {
      "midi": 44,
      "hit": false,
      "t": 176608.65150000044,
      "d": 260.8695000000007,
      "v": 74
    },
    {
      "midi": 68,
      "hit": false,
      "t": 176869.52100000042,
      "d": 260.8695000000007,
      "v": 92
    },
    {
      "midi": 44,
      "hit": false,
      "t": 176869.52100000044,
      "d": 260.8695000000007,
      "v": 66
    },
    {
      "midi": 70,
      "hit": false,
      "t": 177130.39050000042,
      "d": 260.8695000000007,
      "v": 55
    },
    {
      "midi": 44,
      "hit": false,
      "t": 177130.39050000045,
      "d": 260.8695000000007,
      "v": 69
    },
    {
      "midi": 72,
      "hit": false,
      "t": 177391.26000000042,
      "d": 521.7390000000014,
      "v": 88
    },
    {
      "midi": 44,
      "hit": false,
      "t": 177391.26000000045,
      "d": 260.8695000000007,
      "v": 88
    },
    {
      "midi": 44,
      "hit": false,
      "t": 177652.12950000045,
      "d": 260.8695000000007,
      "v": 81
    },
    {
      "midi": 80,
      "hit": false,
      "t": 177912.99900000042,
      "d": 260.8695000000007,
      "v": 72
    },
    {
      "midi": 44,
      "hit": false,
      "t": 177912.99900000045,
      "d": 260.8695000000007,
      "v": 72
    },
    {
      "midi": 77,
      "hit": false,
      "t": 178173.86850000042,
      "d": 260.8695000000007,
      "v": 104
    },
    {
      "midi": 44,
      "hit": false,
      "t": 178173.86850000045,
      "d": 260.8695000000007,
      "v": 81
    },
    {
      "midi": 72,
      "hit": false,
      "t": 178434.73800000042,
      "d": 521.7390000000014,
      "v": 84
    },
    {
      "midi": 80,
      "hit": false,
      "t": 178434.73800000042,
      "d": 521.7390000000014,
      "v": 88
    },
    {
      "midi": 44,
      "hit": false,
      "t": 178434.73800000045,
      "d": 260.8695000000007,
      "v": 77
    },
    {
      "midi": 44,
      "hit": false,
      "t": 178695.60750000045,
      "d": 260.8695000000007,
      "v": 77
    },
    {
      "midi": 80,
      "hit": false,
      "t": 178956.47700000042,
      "d": 260.8695000000007,
      "v": 92
    },
    {
      "midi": 44,
      "hit": false,
      "t": 178956.47700000045,
      "d": 260.8695000000007,
      "v": 81
    },
    {
      "midi": 77,
      "hit": false,
      "t": 179217.34650000042,
      "d": 260.8695000000007,
      "v": 101
    },
    {
      "midi": 44,
      "hit": false,
      "t": 179217.34650000045,
      "d": 260.8695000000007,
      "v": 84
    },
    {
      "midi": 74,
      "hit": false,
      "t": 179478.21600000042,
      "d": 260.8695000000007,
      "v": 104
    },
    {
      "midi": 46,
      "hit": false,
      "t": 179478.21600000045,
      "d": 260.8695000000007,
      "v": 63
    },
    {
      "midi": 80,
      "hit": false,
      "t": 179739.08550000042,
      "d": 260.8695000000007,
      "v": 66
    },
    {
      "midi": 46,
      "hit": false,
      "t": 179739.08550000045,
      "d": 260.8695000000007,
      "v": 92
    },
    {
      "midi": 77,
      "hit": false,
      "t": 179999.95500000042,
      "d": 521.7390000000014,
      "v": 95
    },
    {
      "midi": 46,
      "hit": false,
      "t": 179999.95500000045,
      "d": 260.8695000000007,
      "v": 88
    },
    {
      "midi": 46,
      "hit": false,
      "t": 180260.82450000045,
      "d": 260.8695000000007,
      "v": 69
    },
    {
      "midi": 74,
      "hit": false,
      "t": 180521.69400000043,
      "d": 260.8695000000007,
      "v": 97
    },
    {
      "midi": 46,
      "hit": false,
      "t": 180521.69400000045,
      "d": 260.8695000000007,
      "v": 81
    },
    {
      "midi": 72,
      "hit": false,
      "t": 180782.56350000043,
      "d": 260.8695000000007,
      "v": 72
    },
    {
      "midi": 46,
      "hit": false,
      "t": 180782.56350000045,
      "d": 260.8695000000007,
      "v": 81
    },
    {
      "midi": 70,
      "hit": false,
      "t": 181043.43300000043,
      "d": 260.8695000000007,
      "v": 72
    },
    {
      "midi": 46,
      "hit": false,
      "t": 181043.43300000046,
      "d": 260.8695000000007,
      "v": 69
    },
    {
      "midi": 72,
      "hit": false,
      "t": 181304.30250000043,
      "d": 260.8695000000007,
      "v": 55
    },
    {
      "midi": 46,
      "hit": false,
      "t": 181304.30250000046,
      "d": 260.8695000000007,
      "v": 65
    },
    {
      "midi": 46,
      "hit": false,
      "t": 181565.17200000046,
      "d": 260.8695000000007,
      "v": 66
    },
    {
      "midi": 77,
      "hit": false,
      "t": 181826.04150000043,
      "d": 260.8695000000007,
      "v": 89
    },
    {
      "midi": 46,
      "hit": false,
      "t": 181826.04150000046,
      "d": 260.8695000000007,
      "v": 61
    },
    {
      "midi": 74,
      "hit": false,
      "t": 182086.91100000043,
      "d": 260.8695000000007,
      "v": 50
    },
    {
      "midi": 82,
      "hit": false,
      "t": 182086.91100000043,
      "d": 260.8695000000007,
      "v": 53
    },
    {
      "midi": 46,
      "hit": false,
      "t": 182086.91100000046,
      "d": 260.8695000000007,
      "v": 57
    },
    {
      "midi": 74,
      "hit": false,
      "t": 182347.78050000043,
      "d": 260.8695000000007,
      "v": 108
    },
    {
      "midi": 82,
      "hit": false,
      "t": 182347.78050000043,
      "d": 260.8695000000007,
      "v": 66
    },
    {
      "midi": 46,
      "hit": false,
      "t": 182347.78050000046,
      "d": 260.8695000000007,
      "v": 53
    },
    {
      "midi": 68,
      "hit": false,
      "t": 182608.65000000043,
      "d": 260.8695000000007,
      "v": 74
    },
    {
      "midi": 74,
      "hit": false,
      "t": 182608.65000000043,
      "d": 260.8695000000007,
      "v": 82
    },
    {
      "midi": 79,
      "hit": false,
      "t": 182608.65000000043,
      "d": 260.8695000000007,
      "v": 84
    },
    {
      "midi": 46,
      "hit": false,
      "t": 182608.65000000046,
      "d": 260.8695000000007,
      "v": 63
    },
    {
      "midi": 77,
      "hit": false,
      "t": 182869.51950000043,
      "d": 521.7390000000014,
      "v": 104
    },
    {
      "midi": 46,
      "hit": false,
      "t": 182869.51950000046,
      "d": 260.8695000000007,
      "v": 57
    },
    {
      "midi": 46,
      "hit": false,
      "t": 183130.38900000046,
      "d": 260.8695000000007,
      "v": 49
    },
    {
      "midi": 75,
      "hit": false,
      "t": 183391.25850000043,
      "d": 260.8695000000007,
      "v": 77
    },
    {
      "midi": 46,
      "hit": false,
      "t": 183391.25850000046,
      "d": 260.8695000000007,
      "v": 66
    },
    {
      "midi": 67,
      "hit": false,
      "t": 183652.12800000043,
      "d": 1043.4780000000028,
      "v": 84
    },
    {
      "midi": 70,
      "hit": false,
      "t": 183652.12800000043,
      "d": 1043.4780000000028,
      "v": 63
    },
    {
      "midi": 75,
      "hit": false,
      "t": 183652.12800000043,
      "d": 1043.4780000000028,
      "v": 69
    },
    {
      "midi": 51,
      "hit": false,
      "t": 183652.12800000046,
      "d": 260.8695000000007,
      "v": 66
    },
    {
      "midi": 51,
      "hit": false,
      "t": 183912.99750000046,
      "d": 260.8695000000007,
      "v": 74
    },
    {
      "midi": 51,
      "hit": false,
      "t": 184173.86700000046,
      "d": 260.8695000000007,
      "v": 59
    },
    {
      "midi": 51,
      "hit": false,
      "t": 184434.73650000046,
      "d": 260.8695000000007,
      "v": 74
    },
    {
      "midi": 67,
      "hit": false,
      "t": 184695.60600000044,
      "d": 260.8695000000007,
      "v": 97
    },
    {
      "midi": 70,
      "hit": false,
      "t": 184695.60600000044,
      "d": 260.8695000000007,
      "v": 84
    },
    {
      "midi": 39,
      "hit": false,
      "t": 184695.60600000047,
      "d": 260.8695000000007,
      "v": 88
    },
    {
      "midi": 65,
      "hit": false,
      "t": 184956.47550000044,
      "d": 260.8695000000007,
      "v": 82
    },
    {
      "midi": 39,
      "hit": false,
      "t": 184956.47550000047,
      "d": 260.8695000000007,
      "v": 84
    },
    {
      "midi": 63,
      "hit": false,
      "t": 185217.34500000044,
      "d": 260.8695000000007,
      "v": 46
    },
    {
      "midi": 39,
      "hit": false,
      "t": 185217.34500000047,
      "d": 260.8695000000007,
      "v": 77
    },
    {
      "midi": 65,
      "hit": false,
      "t": 185478.21450000044,
      "d": 260.8695000000007,
      "v": 60
    },
    {
      "midi": 39,
      "hit": false,
      "t": 185478.21450000047,
      "d": 260.8695000000007,
      "v": 81
    },
    {
      "midi": 67,
      "hit": false,
      "t": 185739.08400000044,
      "d": 521.7390000000014,
      "v": 78
    },
    {
      "midi": 39,
      "hit": false,
      "t": 185739.08400000047,
      "d": 260.8695000000007,
      "v": 69
    },
    {
      "midi": 39,
      "hit": false,
      "t": 185999.95350000047,
      "d": 260.8695000000007,
      "v": 74
    },
    {
      "midi": 72,
      "hit": false,
      "t": 186260.82300000044,
      "d": 260.8695000000007,
      "v": 92
    },
    {
      "midi": 39,
      "hit": false,
      "t": 186260.82300000047,
      "d": 260.8695000000007,
      "v": 72
    },
    {
      "midi": 73,
      "hit": false,
      "t": 186521.69250000044,
      "d": 260.8695000000007,
      "v": 63
    },
    {
      "midi": 39,
      "hit": false,
      "t": 186521.69250000047,
      "d": 260.8695000000007,
      "v": 72
    },
    {
      "midi": 72,
      "hit": false,
      "t": 186782.56200000044,
      "d": 521.7390000000014,
      "v": 101
    },
    {
      "midi": 39,
      "hit": false,
      "t": 186782.56200000047,
      "d": 260.8695000000007,
      "v": 55
    },
    {
      "midi": 39,
      "hit": false,
      "t": 187043.43150000047,
      "d": 260.8695000000007,
      "v": 69
    },
    {
      "midi": 61,
      "hit": false,
      "t": 187304.30100000044,
      "d": 260.8695000000007,
      "v": 69
    },
    {
      "midi": 70,
      "hit": false,
      "t": 187304.30100000044,
      "d": 260.8695000000007,
      "v": 84
    },
    {
      "midi": 39,
      "hit": false,
      "t": 187304.30100000047,
      "d": 260.8695000000007,
      "v": 69
    },
    {
      "midi": 68,
      "hit": false,
      "t": 187565.17050000044,
      "d": 260.8695000000007,
      "v": 88
    },
    {
      "midi": 39,
      "hit": false,
      "t": 187565.17050000047,
      "d": 260.8695000000007,
      "v": 72
    },
    {
      "midi": 68,
      "hit": false,
      "t": 187826.04000000044,
      "d": 260.8695000000007,
      "v": 108
    },
    {
      "midi": 44,
      "hit": false,
      "t": 187826.04000000047,
      "d": 260.8695000000007,
      "v": 74
    },
    {
      "midi": 60,
      "hit": false,
      "t": 188086.90950000045,
      "d": 260.8695000000007,
      "v": 88
    },
    {
      "midi": 44,
      "hit": false,
      "t": 188086.90950000047,
      "d": 260.8695000000007,
      "v": 65
    },
    {
      "midi": 63,
      "hit": false,
      "t": 188347.77900000045,
      "d": 260.8695000000007,
      "v": 54
    },
    {
      "midi": 44,
      "hit": false,
      "t": 188347.77900000048,
      "d": 260.8695000000007,
      "v": 51
    },
    {
      "midi": 60,
      "hit": false,
      "t": 188608.64850000045,
      "d": 260.8695000000007,
      "v": 53
    },
    {
      "midi": 44,
      "hit": false,
      "t": 188608.64850000048,
      "d": 260.8695000000007,
      "v": 77
    },
    {
      "midi": 63,
      "hit": false,
      "t": 188869.51800000045,
      "d": 260.8695000000007,
      "v": 65
    },
    {
      "midi": 72,
      "hit": false,
      "t": 188869.51800000045,
      "d": 260.8695000000007,
      "v": 97
    },
    {
      "midi": 44,
      "hit": false,
      "t": 188869.51800000048,
      "d": 260.8695000000007,
      "v": 81
    },
    {
      "midi": 70,
      "hit": false,
      "t": 189130.38750000045,
      "d": 260.8695000000007,
      "v": 74
    },
    {
      "midi": 44,
      "hit": false,
      "t": 189130.38750000048,
      "d": 260.8695000000007,
      "v": 63
    },
    {
      "midi": 68,
      "hit": false,
      "t": 189391.25700000045,
      "d": 260.8695000000007,
      "v": 84
    },
    {
      "midi": 44,
      "hit": false,
      "t": 189391.25700000048,
      "d": 260.8695000000007,
      "v": 57
    },
    {
      "midi": 70,
      "hit": false,
      "t": 189652.12650000045,
      "d": 260.8695000000007,
      "v": 81
    },
    {
      "midi": 44,
      "hit": false,
      "t": 189652.12650000048,
      "d": 260.8695000000007,
      "v": 63
    },
    {
      "midi": 63,
      "hit": false,
      "t": 189912.99600000045,
      "d": 521.7390000000014,
      "v": 74
    },
    {
      "midi": 44,
      "hit": false,
      "t": 189912.99600000048,
      "d": 260.8695000000007,
      "v": 69
    },
    {
      "midi": 44,
      "hit": false,
      "t": 190173.86550000048,
      "d": 260.8695000000007,
      "v": 61
    },
    {
      "midi": 72,
      "hit": false,
      "t": 190434.73500000045,
      "d": 260.8695000000007,
      "v": 101
    },
    {
      "midi": 44,
      "hit": false,
      "t": 190434.73500000048,
      "d": 260.8695000000007,
      "v": 65
    },
    {
      "midi": 73,
      "hit": false,
      "t": 190695.60450000045,
      "d": 260.8695000000007,
      "v": 84
    },
    {
      "midi": 44,
      "hit": false,
      "t": 190695.60450000048,
      "d": 260.8695000000007,
      "v": 63
    },
    {
      "midi": 72,
      "hit": false,
      "t": 190956.47400000045,
      "d": 521.7390000000014,
      "v": 101
    },
    {
      "midi": 44,
      "hit": false,
      "t": 190956.47400000048,
      "d": 260.8695000000007,
      "v": 77
    },
    {
      "midi": 44,
      "hit": false,
      "t": 191217.34350000048,
      "d": 260.8695000000007,
      "v": 81
    },
    {
      "midi": 60,
      "hit": false,
      "t": 191478.21300000045,
      "d": 260.8695000000007,
      "v": 87
    },
    {
      "midi": 70,
      "hit": false,
      "t": 191478.21300000045,
      "d": 260.8695000000007,
      "v": 72
    },
    {
      "midi": 44,
      "hit": false,
      "t": 191478.21300000048,
      "d": 260.8695000000007,
      "v": 92
    },
    {
      "midi": 68,
      "hit": false,
      "t": 191739.08250000046,
      "d": 260.8695000000007,
      "v": 59
    },
    {
      "midi": 44,
      "hit": false,
      "t": 191739.08250000048,
      "d": 260.8695000000007,
      "v": 84
    },
    {
      "midi": 68,
      "hit": false,
      "t": 191999.95200000046,
      "d": 260.8695000000007,
      "v": 77
    },
    {
      "midi": 41,
      "hit": false,
      "t": 191999.95200000048,
      "d": 260.8695000000007,
      "v": 69
    },
    {
      "midi": 60,
      "hit": false,
      "t": 192260.82150000046,
      "d": 260.8695000000007,
      "v": 53
    },
    {
      "midi": 41,
      "hit": false,
      "t": 192260.8215000005,
      "d": 260.8695000000007,
      "v": 82
    },
    {
      "midi": 67,
      "hit": false,
      "t": 192521.69100000046,
      "d": 260.8695000000007,
      "v": 92
    },
    {
      "midi": 41,
      "hit": false,
      "t": 192521.6910000005,
      "d": 260.8695000000007,
      "v": 76
    },
    {
      "midi": 60,
      "hit": false,
      "t": 192782.56050000046,
      "d": 260.8695000000007,
      "v": 62
    },
    {
      "midi": 41,
      "hit": false,
      "t": 192782.5605000005,
      "d": 260.8695000000007,
      "v": 82
    },
    {
      "midi": 60,
      "hit": false,
      "t": 193043.43000000046,
      "d": 260.8695000000007,
      "v": 84
    },
    {
      "midi": 68,
      "hit": false,
      "t": 193043.43000000046,
      "d": 260.8695000000007,
      "v": 81
    },
    {
      "midi": 41,
      "hit": false,
      "t": 193043.4300000005,
      "d": 260.8695000000007,
      "v": 67
    },
    {
      "midi": 67,
      "hit": false,
      "t": 193304.29950000046,
      "d": 260.8695000000007,
      "v": 97
    },
    {
      "midi": 41,
      "hit": false,
      "t": 193304.2995000005,
      "d": 260.8695000000007,
      "v": 68
    },
    {
      "midi": 65,
      "hit": false,
      "t": 193565.16900000046,
      "d": 260.8695000000007,
      "v": 89
    },
    {
      "midi": 41,
      "hit": false,
      "t": 193565.1690000005,
      "d": 260.8695000000007,
      "v": 82
    },
    {
      "midi": 67,
      "hit": false,
      "t": 193826.03850000046,
      "d": 260.8695000000007,
      "v": 97
    },
    {
      "midi": 41,
      "hit": false,
      "t": 193826.0385000005,
      "d": 260.8695000000007,
      "v": 76
    },
    {
      "midi": 60,
      "hit": false,
      "t": 194086.90800000046,
      "d": 260.8695000000007,
      "v": 76
    },
    {
      "midi": 41,
      "hit": false,
      "t": 194086.9080000005,
      "d": 260.8695000000007,
      "v": 65
    },
    {
      "midi": 68,
      "hit": false,
      "t": 194347.77750000046,
      "d": 260.8695000000007,
      "v": 69
    },
    {
      "midi": 41,
      "hit": false,
      "t": 194347.7775000005,
      "d": 260.8695000000007,
      "v": 89
    },
    {
      "midi": 68,
      "hit": false,
      "t": 194608.64700000046,
      "d": 260.8695000000007,
      "v": 81
    },
    {
      "midi": 41,
      "hit": false,
      "t": 194608.6470000005,
      "d": 260.8695000000007,
      "v": 95
    },
    {
      "midi": 63,
      "hit": false,
      "t": 194869.51650000046,
      "d": 521.7390000000014,
      "v": 69
    },
    {
      "midi": 72,
      "hit": false,
      "t": 194869.51650000046,
      "d": 521.7390000000014,
      "v": 89
    },
    {
      "midi": 41,
      "hit": false,
      "t": 194869.5165000005,
      "d": 260.8695000000007,
      "v": 74
    },
    {
      "midi": 41,
      "hit": false,
      "t": 195130.3860000005,
      "d": 260.8695000000007,
      "v": 76
    },
    {
      "midi": 65,
      "hit": false,
      "t": 195391.25550000046,
      "d": 521.7390000000014,
      "v": 80
    },
    {
      "midi": 73,
      "hit": false,
      "t": 195391.25550000046,
      "d": 521.7390000000014,
      "v": 81
    },
    {
      "midi": 41,
      "hit": false,
      "t": 195391.2555000005,
      "d": 260.8695000000007,
      "v": 87
    },
    {
      "midi": 41,
      "hit": false,
      "t": 195652.1250000005,
      "d": 260.8695000000007,
      "v": 95
    },
    {
      "midi": 65,
      "hit": false,
      "t": 195912.99450000047,
      "d": 260.8695000000007,
      "v": 95
    },
    {
      "midi": 68,
      "hit": false,
      "t": 195912.99450000047,
      "d": 260.8695000000007,
      "v": 92
    },
    {
      "midi": 49,
      "hit": false,
      "t": 195912.9945000005,
      "d": 260.8695000000007,
      "v": 88
    },
    {
      "midi": 49,
      "hit": false,
      "t": 196173.8640000005,
      "d": 260.8695000000007,
      "v": 84
    },
    {
      "midi": 68,
      "hit": false,
      "t": 196434.73350000047,
      "d": 260.8695000000007,
      "v": 69
    },
    {
      "midi": 49,
      "hit": false,
      "t": 196434.7335000005,
      "d": 260.8695000000007,
      "v": 66
    },
    {
      "midi": 68,
      "hit": false,
      "t": 196695.60300000047,
      "d": 260.8695000000007,
      "v": 74
    },
    {
      "midi": 49,
      "hit": false,
      "t": 196695.6030000005,
      "d": 260.8695000000007,
      "v": 77
    },
    {
      "midi": 65,
      "hit": false,
      "t": 196956.47250000047,
      "d": 521.7390000000014,
      "v": 87
    },
    {
      "midi": 73,
      "hit": false,
      "t": 196956.47250000047,
      "d": 521.7390000000014,
      "v": 84
    },
    {
      "midi": 49,
      "hit": false,
      "t": 196956.4725000005,
      "d": 260.8695000000007,
      "v": 81
    },
    {
      "midi": 49,
      "hit": false,
      "t": 197217.3420000005,
      "d": 260.8695000000007,
      "v": 84
    },
    {
      "midi": 72,
      "hit": false,
      "t": 197478.21150000047,
      "d": 521.7390000000014,
      "v": 97
    },
    {
      "midi": 49,
      "hit": false,
      "t": 197478.2115000005,
      "d": 260.8695000000007,
      "v": 88
    },
    {
      "midi": 49,
      "hit": false,
      "t": 197739.0810000005,
      "d": 260.8695000000007,
      "v": 92
    },
    {
      "midi": 67,
      "hit": false,
      "t": 197999.95050000047,
      "d": 260.8695000000007,
      "v": 84
    },
    {
      "midi": 70,
      "hit": false,
      "t": 197999.95050000047,
      "d": 260.8695000000007,
      "v": 77
    },
    {
      "midi": 51,
      "hit": false,
      "t": 197999.9505000005,
      "d": 260.8695000000007,
      "v": 74
    },
    {
      "midi": 51,
      "hit": false,
      "t": 198260.8200000005,
      "d": 260.8695000000007,
      "v": 92
    },
    {
      "midi": 63,
      "hit": false,
      "t": 198521.68950000047,
      "d": 260.8695000000007,
      "v": 57
    },
    {
      "midi": 70,
      "hit": false,
      "t": 198521.68950000047,
      "d": 260.8695000000007,
      "v": 66
    },
    {
      "midi": 51,
      "hit": false,
      "t": 198521.6895000005,
      "d": 260.8695000000007,
      "v": 69
    },
    {
      "midi": 68,
      "hit": false,
      "t": 198782.55900000047,
      "d": 260.8695000000007,
      "v": 88
    },
    {
      "midi": 51,
      "hit": false,
      "t": 198782.5590000005,
      "d": 260.8695000000007,
      "v": 92
    },
    {
      "midi": 72,
      "hit": false,
      "t": 199043.42850000047,
      "d": 260.8695000000007,
      "v": 89
    },
    {
      "midi": 51,
      "hit": false,
      "t": 199043.4285000005,
      "d": 260.8695000000007,
      "v": 81
    },
    {
      "midi": 68,
      "hit": false,
      "t": 199304.29800000048,
      "d": 521.7390000000014,
      "v": 88
    },
    {
      "midi": 51,
      "hit": false,
      "t": 199304.2980000005,
      "d": 260.8695000000007,
      "v": 84
    },
    {
      "midi": 51,
      "hit": false,
      "t": 199565.1675000005,
      "d": 260.8695000000007,
      "v": 72
    },
    {
      "midi": 61,
      "hit": false,
      "t": 199826.03700000048,
      "d": 521.7390000000014,
      "v": 81
    },
    {
      "midi": 68,
      "hit": false,
      "t": 199826.03700000048,
      "d": 521.7390000000014,
      "v": 84
    },
    {
      "midi": 51,
      "hit": false,
      "t": 199826.0370000005,
      "d": 260.8695000000007,
      "v": 72
    },
    {
      "midi": 51,
      "hit": false,
      "t": 200086.9065000005,
      "d": 260.8695000000007,
      "v": 81
    },
    {
      "midi": 41,
      "hit": false,
      "t": 200347.7760000005,
      "d": 260.8695000000007,
      "v": 95
    },
    {
      "midi": 60,
      "hit": false,
      "t": 200608.64550000048,
      "d": 260.8695000000007,
      "v": 89
    },
    {
      "midi": 41,
      "hit": false,
      "t": 200608.6455000005,
      "d": 260.8695000000007,
      "v": 82
    },
    {
      "midi": 67,
      "hit": false,
      "t": 200869.51500000048,
      "d": 260.8695000000007,
      "v": 88
    },
    {
      "midi": 41,
      "hit": false,
      "t": 200869.5150000005,
      "d": 260.8695000000007,
      "v": 82
    },
    {
      "midi": 60,
      "hit": false,
      "t": 201130.38450000048,
      "d": 260.8695000000007,
      "v": 113
    },
    {
      "midi": 41,
      "hit": false,
      "t": 201130.3845000005,
      "d": 260.8695000000007,
      "v": 71
    },
    {
      "midi": 60,
      "hit": false,
      "t": 201391.25400000048,
      "d": 260.8695000000007,
      "v": 92
    },
    {
      "midi": 68,
      "hit": false,
      "t": 201391.25400000048,
      "d": 260.8695000000007,
      "v": 89
    },
    {
      "midi": 41,
      "hit": false,
      "t": 201391.2540000005,
      "d": 260.8695000000007,
      "v": 92
    },
    {
      "midi": 67,
      "hit": false,
      "t": 201652.12350000048,
      "d": 260.8695000000007,
      "v": 89
    },
    {
      "midi": 41,
      "hit": false,
      "t": 201652.1235000005,
      "d": 260.8695000000007,
      "v": 87
    },
    {
      "midi": 65,
      "hit": false,
      "t": 201912.99300000048,
      "d": 260.8695000000007,
      "v": 92
    },
    {
      "midi": 41,
      "hit": false,
      "t": 201912.9930000005,
      "d": 260.8695000000007,
      "v": 78
    },
    {
      "midi": 67,
      "hit": false,
      "t": 202173.86250000048,
      "d": 260.8695000000007,
      "v": 95
    },
    {
      "midi": 41,
      "hit": false,
      "t": 202173.8625000005,
      "d": 260.8695000000007,
      "v": 78
    },
    {
      "midi": 41,
      "hit": false,
      "t": 202434.7320000005,
      "d": 260.8695000000007,
      "v": 84
    },
    {
      "midi": 60,
      "hit": false,
      "t": 202695.60150000048,
      "d": 260.8695000000007,
      "v": 95
    },
    {
      "midi": 41,
      "hit": false,
      "t": 202695.6015000005,
      "d": 260.8695000000007,
      "v": 87
    },
    {
      "midi": 67,
      "hit": false,
      "t": 202956.47100000049,
      "d": 260.8695000000007,
      "v": 97
    },
    {
      "midi": 41,
      "hit": false,
      "t": 202956.4710000005,
      "d": 260.8695000000007,
      "v": 78
    },
    {
      "midi": 60,
      "hit": false,
      "t": 203217.3405000005,
      "d": 260.8695000000007,
      "v": 95
    },
    {
      "midi": 41,
      "hit": false,
      "t": 203217.34050000052,
      "d": 260.8695000000007,
      "v": 80
    },
    {
      "midi": 60,
      "hit": false,
      "t": 203478.2100000005,
      "d": 260.8695000000007,
      "v": 53
    },
    {
      "midi": 68,
      "hit": false,
      "t": 203478.2100000005,
      "d": 260.8695000000007,
      "v": 29
    },
    {
      "midi": 41,
      "hit": false,
      "t": 203478.21000000052,
      "d": 260.8695000000007,
      "v": 78
    },
    {
      "midi": 67,
      "hit": false,
      "t": 203739.0795000005,
      "d": 260.8695000000007,
      "v": 101
    },
    {
      "midi": 41,
      "hit": false,
      "t": 203739.07950000052,
      "d": 260.8695000000007,
      "v": 78
    },
    {
      "midi": 65,
      "hit": false,
      "t": 203999.9490000005,
      "d": 260.8695000000007,
      "v": 95
    },
    {
      "midi": 41,
      "hit": false,
      "t": 203999.94900000052,
      "d": 260.8695000000007,
      "v": 87
    },
    {
      "midi": 67,
      "hit": false,
      "t": 204260.8185000005,
      "d": 260.8695000000007,
      "v": 80
    },
    {
      "midi": 41,
      "hit": false,
      "t": 204260.81850000052,
      "d": 260.8695000000007,
      "v": 84
    },
    {
      "midi": 40,
      "hit": false,
      "t": 204521.68800000052,
      "d": 260.8695000000007,
      "v": 80
    },
    {
      "midi": 71,
      "hit": false,
      "t": 204782.5575000005,
      "d": 260.8695000000007,
      "v": 84
    },
    {
      "midi": 80,
      "hit": false,
      "t": 204782.5575000005,
      "d": 260.8695000000007,
      "v": 77
    },
    {
      "midi": 40,
      "hit": false,
      "t": 204782.55750000052,
      "d": 260.8695000000007,
      "v": 92
    },
    {
      "midi": 71,
      "hit": false,
      "t": 205043.4270000005,
      "d": 260.8695000000007,
      "v": 92
    },
    {
      "midi": 80,
      "hit": false,
      "t": 205043.4270000005,
      "d": 260.8695000000007,
      "v": 88
    },
    {
      "midi": 52,
      "hit": false,
      "t": 205043.42700000052,
      "d": 260.8695000000007,
      "v": 97
    },
    {
      "midi": 71,
      "hit": false,
      "t": 205304.2965000005,
      "d": 521.7390000000014,
      "v": 84
    },
    {
      "midi": 80,
      "hit": false,
      "t": 205304.2965000005,
      "d": 521.7390000000014,
      "v": 92
    },
    {
      "midi": 40,
      "hit": false,
      "t": 205304.29650000052,
      "d": 260.8695000000007,
      "v": 84
    },
    {
      "midi": 40,
      "hit": false,
      "t": 205565.16600000052,
      "d": 260.8695000000007,
      "v": 92
    },
    {
      "midi": 71,
      "hit": false,
      "t": 205826.0355000005,
      "d": 260.8695000000007,
      "v": 63
    },
    {
      "midi": 78,
      "hit": false,
      "t": 205826.0355000005,
      "d": 260.8695000000007,
      "v": 66
    },
    {
      "midi": 40,
      "hit": false,
      "t": 205826.03550000052,
      "d": 260.8695000000007,
      "v": 69
    },
    {
      "midi": 71,
      "hit": false,
      "t": 206086.9050000005,
      "d": 260.8695000000007,
      "v": 82
    },
    {
      "midi": 78,
      "hit": false,
      "t": 206086.9050000005,
      "d": 260.8695000000007,
      "v": 74
    },
    {
      "midi": 52,
      "hit": false,
      "t": 206086.90500000052,
      "d": 260.8695000000007,
      "v": 104
    },
    {
      "midi": 71,
      "hit": false,
      "t": 206347.7745000005,
      "d": 260.8695000000007,
      "v": 78
    },
    {
      "midi": 78,
      "hit": false,
      "t": 206347.7745000005,
      "d": 260.8695000000007,
      "v": 84
    },
    {
      "midi": 40,
      "hit": false,
      "t": 206347.77450000052,
      "d": 260.8695000000007,
      "v": 78
    },
    {
      "midi": 40,
      "hit": false,
      "t": 206608.64400000052,
      "d": 260.8695000000007,
      "v": 80
    },
    {
      "midi": 71,
      "hit": false,
      "t": 206869.5135000005,
      "d": 521.7390000000014,
      "v": 80
    },
    {
      "midi": 78,
      "hit": false,
      "t": 206869.5135000005,
      "d": 521.7390000000014,
      "v": 65
    },
    {
      "midi": 40,
      "hit": false,
      "t": 206869.51350000052,
      "d": 260.8695000000007,
      "v": 74
    },
    {
      "midi": 52,
      "hit": false,
      "t": 207130.38300000053,
      "d": 260.8695000000007,
      "v": 89
    },
    {
      "midi": 71,
      "hit": false,
      "t": 207391.2525000005,
      "d": 521.7390000000014,
      "v": 80
    },
    {
      "midi": 80,
      "hit": false,
      "t": 207391.2525000005,
      "d": 521.7390000000014,
      "v": 81
    },
    {
      "midi": 40,
      "hit": false,
      "t": 207391.25250000053,
      "d": 260.8695000000007,
      "v": 65
    },
    {
      "midi": 40,
      "hit": false,
      "t": 207652.12200000053,
      "d": 260.8695000000007,
      "v": 72
    },
    {
      "midi": 78,
      "hit": false,
      "t": 207912.9915000005,
      "d": 260.8695000000007,
      "v": 74
    },
    {
      "midi": 40,
      "hit": false,
      "t": 207912.99150000053,
      "d": 260.8695000000007,
      "v": 68
    },
    {
      "midi": 71,
      "hit": false,
      "t": 208173.8610000005,
      "d": 260.8695000000007,
      "v": 82
    },
    {
      "midi": 78,
      "hit": false,
      "t": 208173.8610000005,
      "d": 260.8695000000007,
      "v": 57
    },
    {
      "midi": 52,
      "hit": false,
      "t": 208173.86100000053,
      "d": 260.8695000000007,
      "v": 97
    },
    {
      "midi": 70,
      "hit": false,
      "t": 208434.7305000005,
      "d": 260.8695000000007,
      "v": 69
    },
    {
      "midi": 78,
      "hit": false,
      "t": 208434.7305000005,
      "d": 260.8695000000007,
      "v": 81
    },
    {
      "midi": 40,
      "hit": false,
      "t": 208434.73050000053,
      "d": 260.8695000000007,
      "v": 69
    },
    {
      "midi": 42,
      "hit": false,
      "t": 208695.60000000053,
      "d": 260.8695000000007,
      "v": 57
    },
    {
      "midi": 70,
      "hit": false,
      "t": 208956.4695000005,
      "d": 260.8695000000007,
      "v": 92
    },
    {
      "midi": 78,
      "hit": false,
      "t": 208956.4695000005,
      "d": 260.8695000000007,
      "v": 84
    },
    {
      "midi": 42,
      "hit": false,
      "t": 208956.46950000053,
      "d": 260.8695000000007,
      "v": 104
    },
    {
      "midi": 70,
      "hit": false,
      "t": 209217.3390000005,
      "d": 260.8695000000007,
      "v": 77
    },
    {
      "midi": 78,
      "hit": false,
      "t": 209217.3390000005,
      "d": 260.8695000000007,
      "v": 81
    },
    {
      "midi": 54,
      "hit": false,
      "t": 209217.33900000053,
      "d": 260.8695000000007,
      "v": 84
    },
    {
      "midi": 70,
      "hit": false,
      "t": 209478.2085000005,
      "d": 260.8695000000007,
      "v": 88
    },
    {
      "midi": 78,
      "hit": false,
      "t": 209478.2085000005,
      "d": 260.8695000000007,
      "v": 81
    },
    {
      "midi": 42,
      "hit": false,
      "t": 209478.20850000053,
      "d": 260.8695000000007,
      "v": 74
    },
    {
      "midi": 70,
      "hit": false,
      "t": 209739.0780000005,
      "d": 260.8695000000007,
      "v": 88
    },
    {
      "midi": 78,
      "hit": false,
      "t": 209739.0780000005,
      "d": 260.8695000000007,
      "v": 84
    },
    {
      "midi": 42,
      "hit": false,
      "t": 209739.07800000053,
      "d": 260.8695000000007,
      "v": 88
    },
    {
      "midi": 75,
      "hit": false,
      "t": 209999.9475000005,
      "d": 260.8695000000007,
      "v": 53
    },
    {
      "midi": 42,
      "hit": false,
      "t": 209999.94750000053,
      "d": 260.8695000000007,
      "v": 74
    },
    {
      "midi": 73,
      "hit": false,
      "t": 210260.8170000005,
      "d": 260.8695000000007,
      "v": 53
    },
    {
      "midi": 54,
      "hit": false,
      "t": 210260.81700000053,
      "d": 260.8695000000007,
      "v": 81
    },
    {
      "midi": 70,
      "hit": false,
      "t": 210521.6865000005,
      "d": 260.8695000000007,
      "v": 81
    },
    {
      "midi": 78,
      "hit": false,
      "t": 210521.6865000005,
      "d": 260.8695000000007,
      "v": 74
    },
    {
      "midi": 42,
      "hit": false,
      "t": 210521.68650000053,
      "d": 260.8695000000007,
      "v": 53
    },
    {
      "midi": 42,
      "hit": false,
      "t": 210782.55600000054,
      "d": 260.8695000000007,
      "v": 92
    },
    {
      "midi": 75,
      "hit": false,
      "t": 211043.4255000005,
      "d": 521.7390000000014,
      "v": 39
    },
    {
      "midi": 42,
      "hit": false,
      "t": 211043.42550000054,
      "d": 260.8695000000007,
      "v": 81
    },
    {
      "midi": 54,
      "hit": false,
      "t": 211304.29500000054,
      "d": 260.8695000000007,
      "v": 77
    },
    {
      "midi": 70,
      "hit": false,
      "t": 211565.1645000005,
      "d": 521.7390000000014,
      "v": 84
    },
    {
      "midi": 78,
      "hit": false,
      "t": 211565.1645000005,
      "d": 521.7390000000014,
      "v": 88
    },
    {
      "midi": 42,
      "hit": false,
      "t": 211565.16450000054,
      "d": 260.8695000000007,
      "v": 77
    },
    {
      "midi": 42,
      "hit": false,
      "t": 211826.03400000054,
      "d": 260.8695000000007,
      "v": 88
    },
    {
      "midi": 70,
      "hit": false,
      "t": 212086.9035000005,
      "d": 521.7390000000014,
      "v": 96
    },
    {
      "midi": 78,
      "hit": false,
      "t": 212086.9035000005,
      "d": 521.7390000000014,
      "v": 92
    },
    {
      "midi": 42,
      "hit": false,
      "t": 212086.90350000054,
      "d": 260.8695000000007,
      "v": 84
    },
    {
      "midi": 54,
      "hit": false,
      "t": 212347.77300000054,
      "d": 260.8695000000007,
      "v": 74
    },
    {
      "midi": 73,
      "hit": false,
      "t": 212608.6425000005,
      "d": 260.8695000000007,
      "v": 92
    },
    {
      "midi": 78,
      "hit": false,
      "t": 212608.6425000005,
      "d": 260.8695000000007,
      "v": 81
    },
    {
      "midi": 42,
      "hit": false,
      "t": 212608.64250000054,
      "d": 260.8695000000007,
      "v": 77
    },
    {
      "midi": 40,
      "hit": false,
      "t": 212869.51200000054,
      "d": 260.8695000000007,
      "v": 89
    },
    {
      "midi": 68,
      "hit": false,
      "t": 213130.3815000005,
      "d": 260.8695000000007,
      "v": 55
    },
    {
      "midi": 71,
      "hit": false,
      "t": 213130.3815000005,
      "d": 260.8695000000007,
      "v": 101
    },
    {
      "midi": 76,
      "hit": false,
      "t": 213130.3815000005,
      "d": 260.8695000000007,
      "v": 101
    },
    {
      "midi": 40,
      "hit": false,
      "t": 213130.38150000054,
      "d": 260.8695000000007,
      "v": 80
    },
    {
      "midi": 68,
      "hit": false,
      "t": 213391.2510000005,
      "d": 260.8695000000007,
      "v": 69
    },
    {
      "midi": 71,
      "hit": false,
      "t": 213391.2510000005,
      "d": 260.8695000000007,
      "v": 104
    },
    {
      "midi": 78,
      "hit": false,
      "t": 213391.2510000005,
      "d": 260.8695000000007,
      "v": 74
    },
    {
      "midi": 52,
      "hit": false,
      "t": 213391.25100000054,
      "d": 260.8695000000007,
      "v": 97
    },
    {
      "midi": 68,
      "hit": false,
      "t": 213652.1205000005,
      "d": 260.8695000000007,
      "v": 72
    },
    {
      "midi": 71,
      "hit": false,
      "t": 213652.1205000005,
      "d": 260.8695000000007,
      "v": 101
    },
    {
      "midi": 78,
      "hit": false,
      "t": 213652.1205000005,
      "d": 260.8695000000007,
      "v": 81
    },
    {
      "midi": 40,
      "hit": false,
      "t": 213652.12050000054,
      "d": 260.8695000000007,
      "v": 63
    },
    {
      "midi": 68,
      "hit": false,
      "t": 213912.99000000051,
      "d": 521.7390000000014,
      "v": 77
    },
    {
      "midi": 71,
      "hit": false,
      "t": 213912.99000000051,
      "d": 521.7390000000014,
      "v": 104
    },
    {
      "midi": 78,
      "hit": false,
      "t": 213912.99000000051,
      "d": 521.7390000000014,
      "v": 81
    },
    {
      "midi": 40,
      "hit": false,
      "t": 213912.99000000054,
      "d": 260.8695000000007,
      "v": 72
    },
    {
      "midi": 40,
      "hit": false,
      "t": 214173.85950000054,
      "d": 260.8695000000007,
      "v": 84
    },
    {
      "midi": 68,
      "hit": false,
      "t": 214434.72900000052,
      "d": 260.8695000000007,
      "v": 63
    },
    {
      "midi": 71,
      "hit": false,
      "t": 214434.72900000052,
      "d": 260.8695000000007,
      "v": 101
    },
    {
      "midi": 78,
      "hit": false,
      "t": 214434.72900000052,
      "d": 260.8695000000007,
      "v": 74
    },
    {
      "midi": 52,
      "hit": false,
      "t": 214434.72900000055,
      "d": 260.8695000000007,
      "v": 101
    },
    {
      "midi": 68,
      "hit": false,
      "t": 214695.59850000052,
      "d": 260.8695000000007,
      "v": 77
    },
    {
      "midi": 71,
      "hit": false,
      "t": 214695.59850000052,
      "d": 260.8695000000007,
      "v": 89
    },
    {
      "midi": 78,
      "hit": false,
      "t": 214695.59850000052,
      "d": 260.8695000000007,
      "v": 81
    },
    {
      "midi": 40,
      "hit": false,
      "t": 214695.59850000055,
      "d": 260.8695000000007,
      "v": 65
    },
    {
      "midi": 68,
      "hit": false,
      "t": 214956.46800000052,
      "d": 260.8695000000007,
      "v": 84
    },
    {
      "midi": 71,
      "hit": false,
      "t": 214956.46800000052,
      "d": 260.8695000000007,
      "v": 95
    },
    {
      "midi": 78,
      "hit": false,
      "t": 214956.46800000052,
      "d": 260.8695000000007,
      "v": 74
    },
    {
      "midi": 40,
      "hit": false,
      "t": 214956.46800000055,
      "d": 260.8695000000007,
      "v": 71
    },
    {
      "midi": 68,
      "hit": false,
      "t": 215217.33750000052,
      "d": 521.7390000000014,
      "v": 84
    },
    {
      "midi": 71,
      "hit": false,
      "t": 215217.33750000052,
      "d": 521.7390000000014,
      "v": 101
    },
    {
      "midi": 78,
      "hit": false,
      "t": 215217.33750000052,
      "d": 521.7390000000014,
      "v": 84
    },
    {
      "midi": 40,
      "hit": false,
      "t": 215217.33750000055,
      "d": 260.8695000000007,
      "v": 95
    },
    {
      "midi": 52,
      "hit": false,
      "t": 215478.20700000055,
      "d": 260.8695000000007,
      "v": 104
    },
    {
      "midi": 71,
      "hit": false,
      "t": 215739.07650000052,
      "d": 782.6085000000021,
      "v": 87
    },
    {
      "midi": 76,
      "hit": false,
      "t": 215739.07650000052,
      "d": 782.6085000000021,
      "v": 104
    },
    {
      "midi": 80,
      "hit": false,
      "t": 215739.07650000052,
      "d": 782.6085000000021,
      "v": 77
    },
    {
      "midi": 40,
      "hit": false,
      "t": 215739.07650000055,
      "d": 260.8695000000007,
      "v": 78
    },
    {
      "midi": 40,
      "hit": false,
      "t": 215999.94600000055,
      "d": 260.8695000000007,
      "v": 87
    },
    {
      "midi": 40,
      "hit": false,
      "t": 216260.81550000055,
      "d": 260.8695000000007,
      "v": 92
    },
    {
      "midi": 64,
      "hit": false,
      "t": 216521.68500000052,
      "d": 260.8695000000007,
      "v": 82
    },
    {
      "midi": 68,
      "hit": false,
      "t": 216521.68500000052,
      "d": 260.8695000000007,
      "v": 74
    },
    {
      "midi": 75,
      "hit": false,
      "t": 216521.68500000052,
      "d": 260.8695000000007,
      "v": 61
    },
    {
      "midi": 52,
      "hit": false,
      "t": 216521.68500000055,
      "d": 260.8695000000007,
      "v": 92
    },
    {
      "midi": 73,
      "hit": false,
      "t": 216782.55450000052,
      "d": 260.8695000000007,
      "v": 84
    },
    {
      "midi": 40,
      "hit": false,
      "t": 216782.55450000055,
      "d": 260.8695000000007,
      "v": 78
    },
    {
      "midi": 70,
      "hit": false,
      "t": 217043.42400000052,
      "d": 260.8695000000007,
      "v": 84
    },
    {
      "midi": 42,
      "hit": false,
      "t": 217043.42400000055,
      "d": 260.8695000000007,
      "v": 77
    },
    {
      "midi": 73,
      "hit": false,
      "t": 217304.29350000052,
      "d": 260.8695000000007,
      "v": 84
    },
    {
      "midi": 42,
      "hit": false,
      "t": 217304.29350000055,
      "d": 260.8695000000007,
      "v": 88
    },
    {
      "midi": 78,
      "hit": false,
      "t": 217565.16300000052,
      "d": 260.8695000000007,
      "v": 81
    },
    {
      "midi": 54,
      "hit": false,
      "t": 217565.16300000055,
      "d": 260.8695000000007,
      "v": 77
    },
    {
      "midi": 73,
      "hit": false,
      "t": 217826.03250000053,
      "d": 260.8695000000007,
      "v": 63
    },
    {
      "midi": 42,
      "hit": false,
      "t": 217826.03250000055,
      "d": 260.8695000000007,
      "v": 69
    },
    {
      "midi": 70,
      "hit": false,
      "t": 218086.90200000053,
      "d": 521.7390000000014,
      "v": 96
    },
    {
      "midi": 78,
      "hit": false,
      "t": 218086.90200000053,
      "d": 521.7390000000014,
      "v": 88
    },
    {
      "midi": 42,
      "hit": false,
      "t": 218086.90200000055,
      "d": 260.8695000000007,
      "v": 88
    },
    {
      "midi": 42,
      "hit": false,
      "t": 218347.77150000056,
      "d": 260.8695000000007,
      "v": 88
    },
    {
      "midi": 75,
      "hit": false,
      "t": 218608.64100000053,
      "d": 260.8695000000007,
      "v": 84
    },
    {
      "midi": 54,
      "hit": false,
      "t": 218608.64100000056,
      "d": 260.8695000000007,
      "v": 72
    },
    {
      "midi": 73,
      "hit": false,
      "t": 218869.51050000053,
      "d": 260.8695000000007,
      "v": 72
    },
    {
      "midi": 42,
      "hit": false,
      "t": 218869.51050000056,
      "d": 260.8695000000007,
      "v": 88
    },
    {
      "midi": 70,
      "hit": false,
      "t": 219130.38000000053,
      "d": 521.7390000000014,
      "v": 100
    },
    {
      "midi": 78,
      "hit": false,
      "t": 219130.38000000053,
      "d": 521.7390000000014,
      "v": 88
    },
    {
      "midi": 42,
      "hit": false,
      "t": 219130.38000000056,
      "d": 260.8695000000007,
      "v": 96
    },
    {
      "midi": 42,
      "hit": false,
      "t": 219391.24950000056,
      "d": 260.8695000000007,
      "v": 81
    },
    {
      "midi": 75,
      "hit": false,
      "t": 219652.11900000053,
      "d": 260.8695000000007,
      "v": 84
    },
    {
      "midi": 54,
      "hit": false,
      "t": 219652.11900000056,
      "d": 260.8695000000007,
      "v": 74
    },
    {
      "midi": 70,
      "hit": false,
      "t": 219912.98850000053,
      "d": 782.6085000000021,
      "v": 96
    },
    {
      "midi": 78,
      "hit": false,
      "t": 219912.98850000053,
      "d": 782.6085000000021,
      "v": 81
    },
    {
      "midi": 42,
      "hit": false,
      "t": 219912.98850000056,
      "d": 260.8695000000007,
      "v": 81
    },
    {
      "midi": 42,
      "hit": false,
      "t": 220173.85800000056,
      "d": 260.8695000000007,
      "v": 92
    },
    {
      "midi": 42,
      "hit": false,
      "t": 220434.72750000056,
      "d": 260.8695000000007,
      "v": 84
    },
    {
      "midi": 71,
      "hit": false,
      "t": 220695.59700000053,
      "d": 260.8695000000007,
      "v": 95
    },
    {
      "midi": 78,
      "hit": false,
      "t": 220695.59700000053,
      "d": 260.8695000000007,
      "v": 61
    },
    {
      "midi": 54,
      "hit": false,
      "t": 220695.59700000056,
      "d": 260.8695000000007,
      "v": 81
    },
    {
      "midi": 73,
      "hit": false,
      "t": 220956.46650000053,
      "d": 260.8695000000007,
      "v": 84
    },
    {
      "midi": 78,
      "hit": false,
      "t": 220956.46650000053,
      "d": 260.8695000000007,
      "v": 65
    },
    {
      "midi": 42,
      "hit": false,
      "t": 220956.46650000056,
      "d": 260.8695000000007,
      "v": 92
    },
    {
      "midi": 40,
      "hit": false,
      "t": 221217.33600000056,
      "d": 260.8695000000007,
      "v": 87
    },
    {
      "midi": 75,
      "hit": false,
      "t": 221478.20550000053,
      "d": 260.8695000000007,
      "v": 84
    },
    {
      "midi": 40,
      "hit": false,
      "t": 221478.20550000056,
      "d": 260.8695000000007,
      "v": 89
    },
    {
      "midi": 68,
      "hit": false,
      "t": 221739.07500000054,
      "d": 521.7390000000014,
      "v": 74
    },
    {
      "midi": 71,
      "hit": false,
      "t": 221739.07500000054,
      "d": 521.7390000000014,
      "v": 101
    },
    {
      "midi": 78,
      "hit": false,
      "t": 221739.07500000054,
      "d": 521.7390000000014,
      "v": 72
    },
    {
      "midi": 52,
      "hit": false,
      "t": 221739.07500000056,
      "d": 260.8695000000007,
      "v": 101
    },
    {
      "midi": 40,
      "hit": false,
      "t": 221999.94450000057,
      "d": 260.8695000000007,
      "v": 72
    },
    {
      "midi": 68,
      "hit": false,
      "t": 222260.81400000054,
      "d": 521.7390000000014,
      "v": 77
    },
    {
      "midi": 71,
      "hit": false,
      "t": 222260.81400000054,
      "d": 521.7390000000014,
      "v": 108
    },
    {
      "midi": 78,
      "hit": false,
      "t": 222260.81400000054,
      "d": 521.7390000000014,
      "v": 81
    },
    {
      "midi": 40,
      "hit": false,
      "t": 222260.81400000057,
      "d": 260.8695000000007,
      "v": 87
    },
    {
      "midi": 40,
      "hit": false,
      "t": 222521.68350000057,
      "d": 260.8695000000007,
      "v": 97
    },
    {
      "midi": 75,
      "hit": false,
      "t": 222782.55300000054,
      "d": 260.8695000000007,
      "v": 81
    },
    {
      "midi": 52,
      "hit": false,
      "t": 222782.55300000057,
      "d": 260.8695000000007,
      "v": 108
    },
    {
      "midi": 68,
      "hit": false,
      "t": 223043.42250000054,
      "d": 260.8695000000007,
      "v": 77
    },
    {
      "midi": 71,
      "hit": false,
      "t": 223043.42250000054,
      "d": 260.8695000000007,
      "v": 97
    },
    {
      "midi": 78,
      "hit": false,
      "t": 223043.42250000054,
      "d": 260.8695000000007,
      "v": 81
    },
    {
      "midi": 40,
      "hit": false,
      "t": 223043.42250000057,
      "d": 260.8695000000007,
      "v": 78
    },
    {
      "midi": 40,
      "hit": false,
      "t": 223304.29200000057,
      "d": 260.8695000000007,
      "v": 84
    },
    {
      "midi": 75,
      "hit": false,
      "t": 223565.16150000054,
      "d": 521.7390000000014,
      "v": 88
    },
    {
      "midi": 40,
      "hit": false,
      "t": 223565.16150000057,
      "d": 260.8695000000007,
      "v": 97
    },
    {
      "midi": 52,
      "hit": false,
      "t": 223826.03100000057,
      "d": 260.8695000000007,
      "v": 113
    },
    {
      "midi": 68,
      "hit": false,
      "t": 224086.90050000054,
      "d": 521.7390000000014,
      "v": 81
    },
    {
      "midi": 71,
      "hit": false,
      "t": 224086.90050000054,
      "d": 521.7390000000014,
      "v": 108
    },
    {
      "midi": 78,
      "hit": false,
      "t": 224086.90050000054,
      "d": 521.7390000000014,
      "v": 84
    },
    {
      "midi": 40,
      "hit": false,
      "t": 224086.90050000057,
      "d": 260.8695000000007,
      "v": 76
    },
    {
      "midi": 40,
      "hit": false,
      "t": 224347.77000000057,
      "d": 260.8695000000007,
      "v": 97
    },
    {
      "midi": 75,
      "hit": false,
      "t": 224608.63950000054,
      "d": 521.7390000000014,
      "v": 92
    },
    {
      "midi": 40,
      "hit": false,
      "t": 224608.63950000057,
      "d": 260.8695000000007,
      "v": 95
    },
    {
      "midi": 52,
      "hit": false,
      "t": 224869.50900000057,
      "d": 260.8695000000007,
      "v": 108
    },
    {
      "midi": 78,
      "hit": false,
      "t": 225130.37850000054,
      "d": 260.8695000000007,
      "v": 92
    },
    {
      "midi": 40,
      "hit": false,
      "t": 225130.37850000057,
      "d": 260.8695000000007,
      "v": 78
    },
    {
      "midi": 72,
      "hit": false,
      "t": 225391.24800000055,
      "d": 2086.9560000000056,
      "v": 95
    },
    {
      "midi": 75,
      "hit": false,
      "t": 225391.24800000055,
      "d": 2086.9560000000056,
      "v": 72
    },
    {
      "midi": 80,
      "hit": false,
      "t": 225391.24800000055,
      "d": 2086.9560000000056,
      "v": 96
    },
    {
      "midi": 44,
      "hit": false,
      "t": 225391.24800000057,
      "d": 260.8695000000007,
      "v": 88
    },
    {
      "midi": 44,
      "hit": false,
      "t": 225652.11750000058,
      "d": 260.8695000000007,
      "v": 84
    },
    {
      "midi": 44,
      "hit": false,
      "t": 225912.98700000058,
      "d": 260.8695000000007,
      "v": 84
    },
    {
      "midi": 44,
      "hit": false,
      "t": 226173.85650000058,
      "d": 260.8695000000007,
      "v": 49
    },
    {
      "midi": 44,
      "hit": false,
      "t": 226434.72600000058,
      "d": 260.8695000000007,
      "v": 81
    },
    {
      "midi": 44,
      "hit": false,
      "t": 226695.59550000058,
      "d": 260.8695000000007,
      "v": 77
    },
    {
      "midi": 44,
      "hit": false,
      "t": 226956.46500000058,
      "d": 260.8695000000007,
      "v": 53
    },
    {
      "midi": 44,
      "hit": false,
      "t": 227217.33450000058,
      "d": 260.8695000000007,
      "v": 69
    },
    {
      "midi": 60,
      "hit": false,
      "t": 227478.20400000055,
      "d": 260.8695000000007,
      "v": 74
    },
    {
      "midi": 44,
      "hit": false,
      "t": 227478.20400000058,
      "d": 260.8695000000007,
      "v": 59
    },
    {
      "midi": 63,
      "hit": false,
      "t": 227739.07350000055,
      "d": 260.8695000000007,
      "v": 72
    },
    {
      "midi": 44,
      "hit": false,
      "t": 227739.07350000058,
      "d": 260.8695000000007,
      "v": 65
    },
    {
      "midi": 68,
      "hit": false,
      "t": 227999.94300000055,
      "d": 260.8695000000007,
      "v": 77
    },
    {
      "midi": 44,
      "hit": false,
      "t": 227999.94300000058,
      "d": 260.8695000000007,
      "v": 92
    },
    {
      "midi": 63,
      "hit": false,
      "t": 228260.81250000055,
      "d": 260.8695000000007,
      "v": 77
    },
    {
      "midi": 44,
      "hit": false,
      "t": 228260.81250000058,
      "d": 260.8695000000007,
      "v": 59
    },
    {
      "midi": 60,
      "hit": false,
      "t": 228521.68200000055,
      "d": 260.8695000000007,
      "v": 76
    },
    {
      "midi": 72,
      "hit": false,
      "t": 228521.68200000055,
      "d": 260.8695000000007,
      "v": 95
    },
    {
      "midi": 44,
      "hit": false,
      "t": 228521.68200000058,
      "d": 260.8695000000007,
      "v": 59
    },
    {
      "midi": 70,
      "hit": false,
      "t": 228782.55150000055,
      "d": 260.8695000000007,
      "v": 84
    },
    {
      "midi": 44,
      "hit": false,
      "t": 228782.55150000058,
      "d": 260.8695000000007,
      "v": 77
    },
    {
      "midi": 68,
      "hit": false,
      "t": 229043.42100000056,
      "d": 260.8695000000007,
      "v": 66
    },
    {
      "midi": 44,
      "hit": false,
      "t": 229043.42100000058,
      "d": 260.8695000000007,
      "v": 100
    },
    {
      "midi": 70,
      "hit": false,
      "t": 229304.29050000056,
      "d": 260.8695000000007,
      "v": 88
    },
    {
      "midi": 44,
      "hit": false,
      "t": 229304.29050000058,
      "d": 260.8695000000007,
      "v": 92
    },
    {
      "midi": 56,
      "hit": false,
      "t": 229565.16000000056,
      "d": 260.8695000000007,
      "v": 84
    },
    {
      "midi": 41,
      "hit": false,
      "t": 229565.1600000006,
      "d": 260.8695000000007,
      "v": 74
    },
    {
      "midi": 60,
      "hit": false,
      "t": 229826.02950000056,
      "d": 260.8695000000007,
      "v": 84
    },
    {
      "midi": 41,
      "hit": false,
      "t": 229826.0295000006,
      "d": 260.8695000000007,
      "v": 78
    },
    {
      "midi": 67,
      "hit": false,
      "t": 230086.89900000056,
      "d": 260.8695000000007,
      "v": 89
    },
    {
      "midi": 41,
      "hit": false,
      "t": 230086.8990000006,
      "d": 260.8695000000007,
      "v": 74
    },
    {
      "midi": 60,
      "hit": false,
      "t": 230347.76850000056,
      "d": 260.8695000000007,
      "v": 78
    },
    {
      "midi": 41,
      "hit": false,
      "t": 230347.7685000006,
      "d": 260.8695000000007,
      "v": 76
    },
    {
      "midi": 60,
      "hit": false,
      "t": 230608.63800000056,
      "d": 260.8695000000007,
      "v": 84
    },
    {
      "midi": 68,
      "hit": false,
      "t": 230608.63800000056,
      "d": 260.8695000000007,
      "v": 88
    },
    {
      "midi": 41,
      "hit": false,
      "t": 230608.6380000006,
      "d": 260.8695000000007,
      "v": 74
    },
    {
      "midi": 67,
      "hit": false,
      "t": 230869.50750000056,
      "d": 260.8695000000007,
      "v": 95
    },
    {
      "midi": 41,
      "hit": false,
      "t": 230869.5075000006,
      "d": 260.8695000000007,
      "v": 80
    },
    {
      "midi": 65,
      "hit": false,
      "t": 231130.37700000056,
      "d": 260.8695000000007,
      "v": 97
    },
    {
      "midi": 41,
      "hit": false,
      "t": 231130.3770000006,
      "d": 260.8695000000007,
      "v": 80
    },
    {
      "midi": 67,
      "hit": false,
      "t": 231391.24650000056,
      "d": 260.8695000000007,
      "v": 97
    },
    {
      "midi": 41,
      "hit": false,
      "t": 231391.2465000006,
      "d": 260.8695000000007,
      "v": 84
    },
    {
      "midi": 56,
      "hit": false,
      "t": 231652.11600000056,
      "d": 260.8695000000007,
      "v": 81
    },
    {
      "midi": 41,
      "hit": false,
      "t": 231652.1160000006,
      "d": 260.8695000000007,
      "v": 72
    },
    {
      "midi": 60,
      "hit": false,
      "t": 231912.98550000056,
      "d": 260.8695000000007,
      "v": 72
    },
    {
      "midi": 41,
      "hit": false,
      "t": 231912.9855000006,
      "d": 260.8695000000007,
      "v": 80
    },
    {
      "midi": 67,
      "hit": false,
      "t": 232173.85500000056,
      "d": 260.8695000000007,
      "v": 95
    },
    {
      "midi": 41,
      "hit": false,
      "t": 232173.8550000006,
      "d": 260.8695000000007,
      "v": 76
    },
    {
      "midi": 60,
      "hit": false,
      "t": 232434.72450000056,
      "d": 260.8695000000007,
      "v": 72
    },
    {
      "midi": 41,
      "hit": false,
      "t": 232434.7245000006,
      "d": 260.8695000000007,
      "v": 80
    },
    {
      "midi": 60,
      "hit": false,
      "t": 232695.59400000056,
      "d": 260.8695000000007,
      "v": 89
    },
    {
      "midi": 68,
      "hit": false,
      "t": 232695.59400000056,
      "d": 260.8695000000007,
      "v": 69
    },
    {
      "midi": 41,
      "hit": false,
      "t": 232695.5940000006,
      "d": 260.8695000000007,
      "v": 69
    },
    {
      "midi": 67,
      "hit": false,
      "t": 232956.46350000057,
      "d": 260.8695000000007,
      "v": 87
    },
    {
      "midi": 41,
      "hit": false,
      "t": 232956.4635000006,
      "d": 260.8695000000007,
      "v": 82
    },
    {
      "midi": 65,
      "hit": false,
      "t": 233217.33300000057,
      "d": 260.8695000000007,
      "v": 95
    },
    {
      "midi": 41,
      "hit": false,
      "t": 233217.3330000006,
      "d": 260.8695000000007,
      "v": 69
    },
    {
      "midi": 67,
      "hit": false,
      "t": 233478.20250000057,
      "d": 260.8695000000007,
      "v": 101
    },
    {
      "midi": 41,
      "hit": false,
      "t": 233478.2025000006,
      "d": 260.8695000000007,
      "v": 87
    },
    {
      "midi": 65,
      "hit": false,
      "t": 233739.07200000057,
      "d": 260.8695000000007,
      "v": 82
    },
    {
      "midi": 49,
      "hit": false,
      "t": 233739.0720000006,
      "d": 260.8695000000007,
      "v": 74
    },
    {
      "midi": 68,
      "hit": false,
      "t": 233999.94150000057,
      "d": 260.8695000000007,
      "v": 66
    },
    {
      "midi": 49,
      "hit": false,
      "t": 233999.9415000006,
      "d": 260.8695000000007,
      "v": 81
    },
    {
      "midi": 75,
      "hit": false,
      "t": 234260.81100000057,
      "d": 260.8695000000007,
      "v": 81
    },
    {
      "midi": 49,
      "hit": false,
      "t": 234260.8110000006,
      "d": 260.8695000000007,
      "v": 72
    },
    {
      "midi": 68,
      "hit": false,
      "t": 234521.68050000057,
      "d": 260.8695000000007,
      "v": 92
    },
    {
      "midi": 49,
      "hit": false,
      "t": 234521.6805000006,
      "d": 260.8695000000007,
      "v": 65
    },
    {
      "midi": 73,
      "hit": false,
      "t": 234782.55000000057,
      "d": 260.8695000000007,
      "v": 74
    },
    {
      "midi": 49,
      "hit": false,
      "t": 234782.5500000006,
      "d": 260.8695000000007,
      "v": 61
    },
    {
      "midi": 68,
      "hit": false,
      "t": 235043.41950000057,
      "d": 260.8695000000007,
      "v": 74
    },
    {
      "midi": 49,
      "hit": false,
      "t": 235043.4195000006,
      "d": 260.8695000000007,
      "v": 88
    },
    {
      "midi": 65,
      "hit": false,
      "t": 235304.28900000057,
      "d": 260.8695000000007,
      "v": 76
    },
    {
      "midi": 72,
      "hit": false,
      "t": 235304.28900000057,
      "d": 260.8695000000007,
      "v": 108
    },
    {
      "midi": 49,
      "hit": false,
      "t": 235304.2890000006,
      "d": 260.8695000000007,
      "v": 88
    },
    {
      "midi": 70,
      "hit": false,
      "t": 235565.15850000057,
      "d": 260.8695000000007,
      "v": 72
    },
    {
      "midi": 49,
      "hit": false,
      "t": 235565.1585000006,
      "d": 260.8695000000007,
      "v": 84
    },
    {
      "midi": 67,
      "hit": false,
      "t": 235826.02800000057,
      "d": 260.8695000000007,
      "v": 104
    },
    {
      "midi": 51,
      "hit": false,
      "t": 235826.0280000006,
      "d": 260.8695000000007,
      "v": 88
    },
    {
      "midi": 70,
      "hit": false,
      "t": 236086.89750000057,
      "d": 260.8695000000007,
      "v": 81
    },
    {
      "midi": 51,
      "hit": false,
      "t": 236086.8975000006,
      "d": 260.8695000000007,
      "v": 77
    },
    {
      "midi": 77,
      "hit": false,
      "t": 236347.76700000057,
      "d": 260.8695000000007,
      "v": 95
    },
    {
      "midi": 51,
      "hit": false,
      "t": 236347.7670000006,
      "d": 260.8695000000007,
      "v": 74
    },
    {
      "midi": 70,
      "hit": false,
      "t": 236608.63650000058,
      "d": 260.8695000000007,
      "v": 77
    },
    {
      "midi": 51,
      "hit": false,
      "t": 236608.6365000006,
      "d": 260.8695000000007,
      "v": 81
    },
    {
      "midi": 75,
      "hit": false,
      "t": 236869.50600000058,
      "d": 260.8695000000007,
      "v": 77
    },
    {
      "midi": 51,
      "hit": false,
      "t": 236869.5060000006,
      "d": 260.8695000000007,
      "v": 81
    },
    {
      "midi": 70,
      "hit": false,
      "t": 237130.37550000058,
      "d": 260.8695000000007,
      "v": 74
    },
    {
      "midi": 51,
      "hit": false,
      "t": 237130.3755000006,
      "d": 260.8695000000007,
      "v": 81
    },
    {
      "midi": 67,
      "hit": false,
      "t": 237391.24500000058,
      "d": 260.8695000000007,
      "v": 95
    },
    {
      "midi": 73,
      "hit": false,
      "t": 237391.24500000058,
      "d": 260.8695000000007,
      "v": 77
    },
    {
      "midi": 51,
      "hit": false,
      "t": 237391.2450000006,
      "d": 260.8695000000007,
      "v": 88
    },
    {
      "midi": 75,
      "hit": false,
      "t": 237652.11450000058,
      "d": 260.8695000000007,
      "v": 81
    },
    {
      "midi": 51,
      "hit": false,
      "t": 237652.1145000006,
      "d": 260.8695000000007,
      "v": 84
    },
    {
      "midi": 56,
      "hit": false,
      "t": 237912.98400000058,
      "d": 260.8695000000007,
      "v": 53
    },
    {
      "midi": 41,
      "hit": false,
      "t": 237912.9840000006,
      "d": 260.8695000000007,
      "v": 76
    },
    {
      "midi": 60,
      "hit": false,
      "t": 238173.85350000058,
      "d": 260.8695000000007,
      "v": 84
    },
    {
      "midi": 41,
      "hit": false,
      "t": 238173.8535000006,
      "d": 260.8695000000007,
      "v": 69
    },
    {
      "midi": 67,
      "hit": false,
      "t": 238434.72300000058,
      "d": 260.8695000000007,
      "v": 101
    },
    {
      "midi": 41,
      "hit": false,
      "t": 238434.7230000006,
      "d": 260.8695000000007,
      "v": 74
    },
    {
      "midi": 60,
      "hit": false,
      "t": 238695.59250000058,
      "d": 260.8695000000007,
      "v": 80
    },
    {
      "midi": 41,
      "hit": false,
      "t": 238695.5925000006,
      "d": 260.8695000000007,
      "v": 76
    },
    {
      "midi": 60,
      "hit": false,
      "t": 238956.46200000058,
      "d": 260.8695000000007,
      "v": 87
    },
    {
      "midi": 68,
      "hit": false,
      "t": 238956.46200000058,
      "d": 260.8695000000007,
      "v": 88
    },
    {
      "midi": 41,
      "hit": false,
      "t": 238956.4620000006,
      "d": 260.8695000000007,
      "v": 74
    },
    {
      "midi": 67,
      "hit": false,
      "t": 239217.33150000058,
      "d": 260.8695000000007,
      "v": 92
    },
    {
      "midi": 41,
      "hit": false,
      "t": 239217.3315000006,
      "d": 260.8695000000007,
      "v": 72
    },
    {
      "midi": 65,
      "hit": false,
      "t": 239478.20100000058,
      "d": 260.8695000000007,
      "v": 87
    },
    {
      "midi": 41,
      "hit": false,
      "t": 239478.2010000006,
      "d": 260.8695000000007,
      "v": 74
    },
    {
      "midi": 67,
      "hit": false,
      "t": 239739.07050000058,
      "d": 260.8695000000007,
      "v": 95
    },
    {
      "midi": 41,
      "hit": false,
      "t": 239739.0705000006,
      "d": 260.8695000000007,
      "v": 80
    },
    {
      "midi": 44,
      "hit": false,
      "t": 239999.9400000006,
      "d": 260.8695000000007,
      "v": 57
    },
    {
      "midi": 44,
      "hit": false,
      "t": 240260.8095000006,
      "d": 260.8695000000007,
      "v": 84
    },
    {
      "midi": 63,
      "hit": false,
      "t": 240521.6790000006,
      "d": 521.7390000000014,
      "v": 92
    },
    {
      "midi": 68,
      "hit": false,
      "t": 240521.6790000006,
      "d": 521.7390000000014,
      "v": 84
    },
    {
      "midi": 44,
      "hit": false,
      "t": 240521.67900000061,
      "d": 260.8695000000007,
      "v": 88
    },
    {
      "midi": 44,
      "hit": false,
      "t": 240782.54850000062,
      "d": 260.8695000000007,
      "v": 46
    },
    {
      "midi": 68,
      "hit": false,
      "t": 241043.4180000006,
      "d": 521.7390000000014,
      "v": 52
    },
    {
      "midi": 72,
      "hit": false,
      "t": 241043.4180000006,
      "d": 521.7390000000014,
      "v": 101
    },
    {
      "midi": 44,
      "hit": false,
      "t": 241043.41800000062,
      "d": 260.8695000000007,
      "v": 92
    },
    {
      "midi": 44,
      "hit": false,
      "t": 241304.28750000062,
      "d": 260.8695000000007,
      "v": 30
    },
    {
      "midi": 68,
      "hit": false,
      "t": 241565.1570000006,
      "d": 260.8695000000007,
      "v": 77
    },
    {
      "midi": 75,
      "hit": false,
      "t": 241565.1570000006,
      "d": 260.8695000000007,
      "v": 77
    },
    {
      "midi": 44,
      "hit": false,
      "t": 241565.15700000062,
      "d": 260.8695000000007,
      "v": 84
    },
    {
      "midi": 72,
      "hit": false,
      "t": 241826.0265000006,
      "d": 260.8695000000007,
      "v": 84
    },
    {
      "midi": 48,
      "hit": false,
      "t": 241826.02650000062,
      "d": 260.8695000000007,
      "v": 92
    },
    {
      "midi": 68,
      "hit": false,
      "t": 242086.8960000006,
      "d": 2086.9560000000056,
      "v": 66
    },
    {
      "midi": 73,
      "hit": false,
      "t": 242086.8960000006,
      "d": 2086.9560000000056,
      "v": 63
    },
    {
      "midi": 77,
      "hit": false,
      "t": 242086.8960000006,
      "d": 2086.9560000000056,
      "v": 97
    },
    {
      "midi": 49,
      "hit": false,
      "t": 242086.89600000062,
      "d": 260.8695000000007,
      "v": 63
    },
    {
      "midi": 49,
      "hit": false,
      "t": 242347.76550000062,
      "d": 260.8695000000007,
      "v": 74
    },
    {
      "midi": 49,
      "hit": false,
      "t": 242608.63500000062,
      "d": 260.8695000000007,
      "v": 77
    },
    {
      "midi": 49,
      "hit": false,
      "t": 242869.50450000062,
      "d": 260.8695000000007,
      "v": 84
    },
    {
      "midi": 49,
      "hit": false,
      "t": 243130.37400000062,
      "d": 260.8695000000007,
      "v": 77
    },
    {
      "midi": 49,
      "hit": false,
      "t": 243391.24350000062,
      "d": 260.8695000000007,
      "v": 69
    },
    {
      "midi": 49,
      "hit": false,
      "t": 243652.11300000062,
      "d": 260.8695000000007,
      "v": 74
    },
    {
      "midi": 49,
      "hit": false,
      "t": 243912.98250000062,
      "d": 260.8695000000007,
      "v": 81
    },
    {
      "midi": 49,
      "hit": false,
      "t": 244173.85200000062,
      "d": 260.8695000000007,
      "v": 88
    },
    {
      "midi": 47,
      "hit": false,
      "t": 244434.72150000063,
      "d": 260.8695000000007,
      "v": 82
    },
    {
      "midi": 68,
      "hit": false,
      "t": 244695.5910000006,
      "d": 260.8695000000007,
      "v": 69
    },
    {
      "midi": 73,
      "hit": false,
      "t": 244695.5910000006,
      "d": 260.8695000000007,
      "v": 77
    },
    {
      "midi": 77,
      "hit": false,
      "t": 244695.5910000006,
      "d": 260.8695000000007,
      "v": 78
    },
    {
      "midi": 47,
      "hit": false,
      "t": 244695.59100000063,
      "d": 260.8695000000007,
      "v": 65
    },
    {
      "midi": 68,
      "hit": false,
      "t": 244956.4605000006,
      "d": 260.8695000000007,
      "v": 74
    },
    {
      "midi": 73,
      "hit": false,
      "t": 244956.4605000006,
      "d": 260.8695000000007,
      "v": 84
    },
    {
      "midi": 77,
      "hit": false,
      "t": 244956.4605000006,
      "d": 260.8695000000007,
      "v": 95
    },
    {
      "midi": 47,
      "hit": false,
      "t": 244956.46050000063,
      "d": 260.8695000000007,
      "v": 72
    },
    {
      "midi": 65,
      "hit": false,
      "t": 245217.3300000006,
      "d": 782.6085000000021,
      "v": 57
    },
    {
      "midi": 68,
      "hit": false,
      "t": 245217.3300000006,
      "d": 782.6085000000021,
      "v": 84
    },
    {
      "midi": 75,
      "hit": false,
      "t": 245217.3300000006,
      "d": 782.6085000000021,
      "v": 72
    },
    {
      "midi": 46,
      "hit": false,
      "t": 245217.33000000063,
      "d": 260.8695000000007,
      "v": 84
    },
    {
      "midi": 46,
      "hit": false,
      "t": 245478.19950000063,
      "d": 260.8695000000007,
      "v": 88
    },
    {
      "midi": 46,
      "hit": false,
      "t": 245739.06900000063,
      "d": 260.8695000000007,
      "v": 88
    },
    {
      "midi": 61,
      "hit": false,
      "t": 245999.9385000006,
      "d": 260.8695000000007,
      "v": 77
    },
    {
      "midi": 65,
      "hit": false,
      "t": 245999.9385000006,
      "d": 260.8695000000007,
      "v": 97
    },
    {
      "midi": 68,
      "hit": false,
      "t": 245999.9385000006,
      "d": 260.8695000000007,
      "v": 88
    },
    {
      "midi": 46,
      "hit": false,
      "t": 245999.93850000063,
      "d": 260.8695000000007,
      "v": 96
    },
    {
      "midi": 63,
      "hit": false,
      "t": 246260.8080000006,
      "d": 1043.4780000000028,
      "v": 88
    },
    {
      "midi": 68,
      "hit": false,
      "t": 246260.8080000006,
      "d": 1043.4780000000028,
      "v": 74
    },
    {
      "midi": 72,
      "hit": false,
      "t": 246260.8080000006,
      "d": 1043.4780000000028,
      "v": 89
    },
    {
      "midi": 44,
      "hit": false,
      "t": 246260.80800000063,
      "d": 260.8695000000007,
      "v": 66
    },
    {
      "midi": 44,
      "hit": false,
      "t": 246521.67750000063,
      "d": 260.8695000000007,
      "v": 100
    },
    {
      "midi": 44,
      "hit": false,
      "t": 246782.54700000063,
      "d": 260.8695000000007,
      "v": 96
    },
    {
      "midi": 44,
      "hit": false,
      "t": 247043.41650000063,
      "d": 260.8695000000007,
      "v": 92
    },
    {
      "midi": 63,
      "hit": false,
      "t": 247304.2860000006,
      "d": 260.8695000000007,
      "v": 84
    },
    {
      "midi": 72,
      "hit": false,
      "t": 247304.2860000006,
      "d": 260.8695000000007,
      "v": 87
    },
    {
      "midi": 44,
      "hit": false,
      "t": 247304.28600000063,
      "d": 260.8695000000007,
      "v": 92
    },
    {
      "midi": 70,
      "hit": false,
      "t": 247565.1555000006,
      "d": 260.8695000000007,
      "v": 92
    },
    {
      "midi": 44,
      "hit": false,
      "t": 247565.15550000063,
      "d": 260.8695000000007,
      "v": 74
    },
    {
      "midi": 68,
      "hit": false,
      "t": 247826.0250000006,
      "d": 260.8695000000007,
      "v": 92
    },
    {
      "midi": 44,
      "hit": false,
      "t": 247826.02500000063,
      "d": 260.8695000000007,
      "v": 66
    },
    {
      "midi": 70,
      "hit": false,
      "t": 248086.8945000006,
      "d": 260.8695000000007,
      "v": 55
    },
    {
      "midi": 44,
      "hit": false,
      "t": 248086.89450000064,
      "d": 260.8695000000007,
      "v": 69
    },
    {
      "midi": 72,
      "hit": false,
      "t": 248347.7640000006,
      "d": 521.7390000000014,
      "v": 88
    },
    {
      "midi": 44,
      "hit": false,
      "t": 248347.76400000064,
      "d": 260.8695000000007,
      "v": 88
    },
    {
      "midi": 44,
      "hit": false,
      "t": 248608.63350000064,
      "d": 260.8695000000007,
      "v": 81
    },
    {
      "midi": 80,
      "hit": false,
      "t": 248869.5030000006,
      "d": 260.8695000000007,
      "v": 72
    },
    {
      "midi": 44,
      "hit": false,
      "t": 248869.50300000064,
      "d": 260.8695000000007,
      "v": 72
    },
    {
      "midi": 77,
      "hit": false,
      "t": 249130.3725000006,
      "d": 260.8695000000007,
      "v": 104
    },
    {
      "midi": 44,
      "hit": false,
      "t": 249130.37250000064,
      "d": 260.8695000000007,
      "v": 81
    },
    {
      "midi": 72,
      "hit": false,
      "t": 249391.2420000006,
      "d": 521.7390000000014,
      "v": 84
    },
    {
      "midi": 80,
      "hit": false,
      "t": 249391.2420000006,
      "d": 521.7390000000014,
      "v": 88
    },
    {
      "midi": 44,
      "hit": false,
      "t": 249391.24200000064,
      "d": 260.8695000000007,
      "v": 77
    },
    {
      "midi": 44,
      "hit": false,
      "t": 249652.11150000064,
      "d": 260.8695000000007,
      "v": 77
    },
    {
      "midi": 80,
      "hit": false,
      "t": 249912.9810000006,
      "d": 260.8695000000007,
      "v": 92
    },
    {
      "midi": 44,
      "hit": false,
      "t": 249912.98100000064,
      "d": 260.8695000000007,
      "v": 81
    },
    {
      "midi": 77,
      "hit": false,
      "t": 250173.8505000006,
      "d": 260.8695000000007,
      "v": 101
    },
    {
      "midi": 44,
      "hit": false,
      "t": 250173.85050000064,
      "d": 260.8695000000007,
      "v": 84
    },
    {
      "midi": 74,
      "hit": false,
      "t": 250434.7200000006,
      "d": 260.8695000000007,
      "v": 104
    },
    {
      "midi": 46,
      "hit": false,
      "t": 250434.72000000064,
      "d": 260.8695000000007,
      "v": 63
    },
    {
      "midi": 80,
      "hit": false,
      "t": 250695.5895000006,
      "d": 260.8695000000007,
      "v": 66
    },
    {
      "midi": 46,
      "hit": false,
      "t": 250695.58950000064,
      "d": 260.8695000000007,
      "v": 92
    },
    {
      "midi": 77,
      "hit": false,
      "t": 250956.4590000006,
      "d": 521.7390000000014,
      "v": 95
    },
    {
      "midi": 46,
      "hit": false,
      "t": 250956.45900000064,
      "d": 260.8695000000007,
      "v": 88
    },
    {
      "midi": 46,
      "hit": false,
      "t": 251217.32850000064,
      "d": 260.8695000000007,
      "v": 69
    },
    {
      "midi": 74,
      "hit": false,
      "t": 251478.19800000062,
      "d": 260.8695000000007,
      "v": 97
    },
    {
      "midi": 46,
      "hit": false,
      "t": 251478.19800000064,
      "d": 260.8695000000007,
      "v": 81
    },
    {
      "midi": 72,
      "hit": false,
      "t": 251739.06750000062,
      "d": 260.8695000000007,
      "v": 72
    },
    {
      "midi": 46,
      "hit": false,
      "t": 251739.06750000064,
      "d": 260.8695000000007,
      "v": 81
    },
    {
      "midi": 70,
      "hit": false,
      "t": 251999.93700000062,
      "d": 260.8695000000007,
      "v": 72
    },
    {
      "midi": 46,
      "hit": false,
      "t": 251999.93700000065,
      "d": 260.8695000000007,
      "v": 69
    },
    {
      "midi": 72,
      "hit": false,
      "t": 252260.80650000062,
      "d": 260.8695000000007,
      "v": 55
    },
    {
      "midi": 46,
      "hit": false,
      "t": 252260.80650000065,
      "d": 260.8695000000007,
      "v": 65
    },
    {
      "midi": 46,
      "hit": false,
      "t": 252521.67600000065,
      "d": 260.8695000000007,
      "v": 66
    },
    {
      "midi": 77,
      "hit": false,
      "t": 252782.54550000062,
      "d": 260.8695000000007,
      "v": 89
    },
    {
      "midi": 46,
      "hit": false,
      "t": 252782.54550000065,
      "d": 260.8695000000007,
      "v": 61
    },
    {
      "midi": 74,
      "hit": false,
      "t": 253043.41500000062,
      "d": 260.8695000000007,
      "v": 50
    },
    {
      "midi": 82,
      "hit": false,
      "t": 253043.41500000062,
      "d": 260.8695000000007,
      "v": 53
    },
    {
      "midi": 46,
      "hit": false,
      "t": 253043.41500000065,
      "d": 260.8695000000007,
      "v": 57
    },
    {
      "midi": 74,
      "hit": false,
      "t": 253304.28450000062,
      "d": 260.8695000000007,
      "v": 108
    },
    {
      "midi": 82,
      "hit": false,
      "t": 253304.28450000062,
      "d": 260.8695000000007,
      "v": 66
    },
    {
      "midi": 46,
      "hit": false,
      "t": 253304.28450000065,
      "d": 260.8695000000007,
      "v": 53
    },
    {
      "midi": 68,
      "hit": false,
      "t": 253565.15400000062,
      "d": 260.8695000000007,
      "v": 74
    },
    {
      "midi": 74,
      "hit": false,
      "t": 253565.15400000062,
      "d": 260.8695000000007,
      "v": 82
    },
    {
      "midi": 79,
      "hit": false,
      "t": 253565.15400000062,
      "d": 260.8695000000007,
      "v": 84
    },
    {
      "midi": 46,
      "hit": false,
      "t": 253565.15400000065,
      "d": 260.8695000000007,
      "v": 63
    },
    {
      "midi": 77,
      "hit": false,
      "t": 253826.02350000062,
      "d": 521.7390000000014,
      "v": 104
    },
    {
      "midi": 46,
      "hit": false,
      "t": 253826.02350000065,
      "d": 260.8695000000007,
      "v": 57
    },
    {
      "midi": 46,
      "hit": false,
      "t": 254086.89300000065,
      "d": 260.8695000000007,
      "v": 49
    },
    {
      "midi": 75,
      "hit": false,
      "t": 254347.76250000062,
      "d": 260.8695000000007,
      "v": 77
    },
    {
      "midi": 46,
      "hit": false,
      "t": 254347.76250000065,
      "d": 260.8695000000007,
      "v": 66
    },
    {
      "midi": 67,
      "hit": false,
      "t": 254608.63200000062,
      "d": 1043.4780000000028,
      "v": 84
    },
    {
      "midi": 70,
      "hit": false,
      "t": 254608.63200000062,
      "d": 1043.4780000000028,
      "v": 63
    },
    {
      "midi": 75,
      "hit": false,
      "t": 254608.63200000062,
      "d": 1043.4780000000028,
      "v": 69
    },
    {
      "midi": 51,
      "hit": false,
      "t": 254608.63200000065,
      "d": 260.8695000000007,
      "v": 66
    },
    {
      "midi": 51,
      "hit": false,
      "t": 254869.50150000065,
      "d": 260.8695000000007,
      "v": 74
    },
    {
      "midi": 51,
      "hit": false,
      "t": 255130.37100000065,
      "d": 260.8695000000007,
      "v": 59
    },
    {
      "midi": 51,
      "hit": false,
      "t": 255391.24050000065,
      "d": 260.8695000000007,
      "v": 74
    },
    {
      "midi": 67,
      "hit": false,
      "t": 255652.11000000063,
      "d": 260.8695000000007,
      "v": 97
    },
    {
      "midi": 70,
      "hit": false,
      "t": 255652.11000000063,
      "d": 260.8695000000007,
      "v": 84
    },
    {
      "midi": 39,
      "hit": false,
      "t": 255652.11000000066,
      "d": 260.8695000000007,
      "v": 88
    },
    {
      "midi": 65,
      "hit": false,
      "t": 255912.97950000063,
      "d": 260.8695000000007,
      "v": 82
    },
    {
      "midi": 39,
      "hit": false,
      "t": 255912.97950000066,
      "d": 260.8695000000007,
      "v": 84
    },
    {
      "midi": 63,
      "hit": false,
      "t": 256173.84900000063,
      "d": 260.8695000000007,
      "v": 46
    },
    {
      "midi": 39,
      "hit": false,
      "t": 256173.84900000066,
      "d": 260.8695000000007,
      "v": 77
    },
    {
      "midi": 65,
      "hit": false,
      "t": 256434.71850000063,
      "d": 260.8695000000007,
      "v": 60
    },
    {
      "midi": 39,
      "hit": false,
      "t": 256434.71850000066,
      "d": 260.8695000000007,
      "v": 81
    },
    {
      "midi": 67,
      "hit": false,
      "t": 256695.58800000063,
      "d": 521.7390000000014,
      "v": 78
    },
    {
      "midi": 39,
      "hit": false,
      "t": 256695.58800000066,
      "d": 260.8695000000007,
      "v": 69
    },
    {
      "midi": 39,
      "hit": false,
      "t": 256956.45750000066,
      "d": 260.8695000000007,
      "v": 74
    },
    {
      "midi": 72,
      "hit": false,
      "t": 257217.32700000063,
      "d": 260.8695000000007,
      "v": 92
    },
    {
      "midi": 39,
      "hit": false,
      "t": 257217.32700000066,
      "d": 260.8695000000007,
      "v": 72
    },
    {
      "midi": 73,
      "hit": false,
      "t": 257478.19650000063,
      "d": 260.8695000000007,
      "v": 63
    },
    {
      "midi": 39,
      "hit": false,
      "t": 257478.19650000066,
      "d": 260.8695000000007,
      "v": 72
    },
    {
      "midi": 72,
      "hit": false,
      "t": 257739.06600000063,
      "d": 521.7390000000014,
      "v": 101
    },
    {
      "midi": 39,
      "hit": false,
      "t": 257739.06600000066,
      "d": 260.8695000000007,
      "v": 55
    },
    {
      "midi": 39,
      "hit": false,
      "t": 257999.93550000066,
      "d": 260.8695000000007,
      "v": 69
    },
    {
      "midi": 61,
      "hit": false,
      "t": 258260.80500000063,
      "d": 260.8695000000007,
      "v": 69
    },
    {
      "midi": 70,
      "hit": false,
      "t": 258260.80500000063,
      "d": 260.8695000000007,
      "v": 84
    },
    {
      "midi": 39,
      "hit": false,
      "t": 258260.80500000066,
      "d": 260.8695000000007,
      "v": 69
    },
    {
      "midi": 68,
      "hit": false,
      "t": 258521.67450000063,
      "d": 260.8695000000007,
      "v": 88
    },
    {
      "midi": 39,
      "hit": false,
      "t": 258521.67450000066,
      "d": 260.8695000000007,
      "v": 72
    },
    {
      "midi": 68,
      "hit": false,
      "t": 258782.54400000063,
      "d": 260.8695000000007,
      "v": 108
    },
    {
      "midi": 44,
      "hit": false,
      "t": 258782.54400000066,
      "d": 260.8695000000007,
      "v": 74
    },
    {
      "midi": 60,
      "hit": false,
      "t": 259043.41350000064,
      "d": 260.8695000000007,
      "v": 88
    },
    {
      "midi": 44,
      "hit": false,
      "t": 259043.41350000066,
      "d": 260.8695000000007,
      "v": 65
    },
    {
      "midi": 63,
      "hit": false,
      "t": 259304.28300000064,
      "d": 260.8695000000007,
      "v": 54
    },
    {
      "midi": 44,
      "hit": false,
      "t": 259304.28300000067,
      "d": 260.8695000000007,
      "v": 51
    },
    {
      "midi": 60,
      "hit": false,
      "t": 259565.15250000064,
      "d": 260.8695000000007,
      "v": 53
    },
    {
      "midi": 44,
      "hit": false,
      "t": 259565.15250000067,
      "d": 260.8695000000007,
      "v": 77
    },
    {
      "midi": 63,
      "hit": false,
      "t": 259826.02200000064,
      "d": 260.8695000000007,
      "v": 65
    },
    {
      "midi": 72,
      "hit": false,
      "t": 259826.02200000064,
      "d": 260.8695000000007,
      "v": 97
    },
    {
      "midi": 44,
      "hit": false,
      "t": 259826.02200000067,
      "d": 260.8695000000007,
      "v": 81
    },
    {
      "midi": 70,
      "hit": false,
      "t": 260086.89150000064,
      "d": 260.8695000000007,
      "v": 74
    },
    {
      "midi": 44,
      "hit": false,
      "t": 260086.89150000067,
      "d": 260.8695000000007,
      "v": 63
    },
    {
      "midi": 68,
      "hit": false,
      "t": 260347.76100000064,
      "d": 260.8695000000007,
      "v": 84
    },
    {
      "midi": 44,
      "hit": false,
      "t": 260347.76100000067,
      "d": 260.8695000000007,
      "v": 57
    },
    {
      "midi": 70,
      "hit": false,
      "t": 260608.63050000064,
      "d": 260.8695000000007,
      "v": 81
    },
    {
      "midi": 44,
      "hit": false,
      "t": 260608.63050000067,
      "d": 260.8695000000007,
      "v": 63
    },
    {
      "midi": 63,
      "hit": false,
      "t": 260869.50000000064,
      "d": 521.7390000000014,
      "v": 74
    },
    {
      "midi": 44,
      "hit": false,
      "t": 260869.50000000067,
      "d": 260.8695000000007,
      "v": 69
    },
    {
      "midi": 44,
      "hit": false,
      "t": 261130.36950000067,
      "d": 260.8695000000007,
      "v": 61
    },
    {
      "midi": 72,
      "hit": false,
      "t": 261391.23900000064,
      "d": 260.8695000000007,
      "v": 101
    },
    {
      "midi": 44,
      "hit": false,
      "t": 261391.23900000067,
      "d": 260.8695000000007,
      "v": 65
    },
    {
      "midi": 73,
      "hit": false,
      "t": 261652.10850000064,
      "d": 260.8695000000007,
      "v": 84
    },
    {
      "midi": 44,
      "hit": false,
      "t": 261652.10850000067,
      "d": 260.8695000000007,
      "v": 63
    },
    {
      "midi": 72,
      "hit": false,
      "t": 261912.97800000064,
      "d": 521.7390000000014,
      "v": 101
    },
    {
      "midi": 44,
      "hit": false,
      "t": 261912.97800000067,
      "d": 260.8695000000007,
      "v": 77
    },
    {
      "midi": 44,
      "hit": false,
      "t": 262173.8475000007,
      "d": 260.8694999999716,
      "v": 81
    },
    {
      "midi": 60,
      "hit": false,
      "t": 262434.71700000064,
      "d": 260.8694999999716,
      "v": 87
    },
    {
      "midi": 70,
      "hit": false,
      "t": 262434.71700000064,
      "d": 260.8694999999716,
      "v": 72
    },
    {
      "midi": 44,
      "hit": false,
      "t": 262434.71700000064,
      "d": 260.8694999999716,
      "v": 92
    },
    {
      "midi": 68,
      "hit": false,
      "t": 262695.5865000006,
      "d": 260.8694999999716,
      "v": 59
    },
    {
      "midi": 44,
      "hit": false,
      "t": 262695.5865000006,
      "d": 260.8694999999716,
      "v": 84
    },
    {
      "midi": 68,
      "hit": false,
      "t": 262956.4560000006,
      "d": 260.8694999999716,
      "v": 77
    },
    {
      "midi": 41,
      "hit": false,
      "t": 262956.4560000006,
      "d": 260.8694999999716,
      "v": 69
    },
    {
      "midi": 60,
      "hit": false,
      "t": 263217.32550000056,
      "d": 260.8694999999716,
      "v": 53
    },
    {
      "midi": 41,
      "hit": false,
      "t": 263217.32550000056,
      "d": 260.8694999999716,
      "v": 82
    },
    {
      "midi": 67,
      "hit": false,
      "t": 263478.19500000053,
      "d": 260.8694999999716,
      "v": 92
    },
    {
      "midi": 41,
      "hit": false,
      "t": 263478.19500000053,
      "d": 260.8694999999716,
      "v": 76
    },
    {
      "midi": 60,
      "hit": false,
      "t": 263739.0645000005,
      "d": 260.8694999999716,
      "v": 62
    },
    {
      "midi": 41,
      "hit": false,
      "t": 263739.0645000005,
      "d": 260.8694999999716,
      "v": 82
    },
    {
      "midi": 60,
      "hit": false,
      "t": 263999.9340000005,
      "d": 260.8694999999716,
      "v": 84
    },
    {
      "midi": 68,
      "hit": false,
      "t": 263999.9340000005,
      "d": 260.8694999999716,
      "v": 81
    },
    {
      "midi": 41,
      "hit": false,
      "t": 263999.9340000005,
      "d": 260.8694999999716,
      "v": 67
    },
    {
      "midi": 67,
      "hit": false,
      "t": 264260.80350000045,
      "d": 260.8694999999716,
      "v": 97
    },
    {
      "midi": 41,
      "hit": false,
      "t": 264260.80350000045,
      "d": 260.8694999999716,
      "v": 68
    },
    {
      "midi": 65,
      "hit": false,
      "t": 264521.6730000004,
      "d": 260.8694999999716,
      "v": 89
    },
    {
      "midi": 41,
      "hit": false,
      "t": 264521.6730000004,
      "d": 260.8694999999716,
      "v": 82
    },
    {
      "midi": 67,
      "hit": false,
      "t": 264782.5425000004,
      "d": 260.8694999999716,
      "v": 97
    },
    {
      "midi": 41,
      "hit": false,
      "t": 264782.5425000004,
      "d": 260.8694999999716,
      "v": 76
    },
    {
      "midi": 60,
      "hit": false,
      "t": 265043.41200000036,
      "d": 260.8694999999716,
      "v": 76
    },
    {
      "midi": 41,
      "hit": false,
      "t": 265043.41200000036,
      "d": 260.8694999999716,
      "v": 65
    },
    {
      "midi": 68,
      "hit": false,
      "t": 265304.28150000033,
      "d": 260.8694999999716,
      "v": 69
    },
    {
      "midi": 41,
      "hit": false,
      "t": 265304.28150000033,
      "d": 260.8694999999716,
      "v": 89
    },
    {
      "midi": 68,
      "hit": false,
      "t": 265565.1510000003,
      "d": 260.8694999999716,
      "v": 81
    },
    {
      "midi": 41,
      "hit": false,
      "t": 265565.1510000003,
      "d": 260.8694999999716,
      "v": 95
    },
    {
      "midi": 63,
      "hit": false,
      "t": 265826.0205000003,
      "d": 521.7390000000014,
      "v": 69
    },
    {
      "midi": 72,
      "hit": false,
      "t": 265826.0205000003,
      "d": 521.7390000000014,
      "v": 89
    },
    {
      "midi": 41,
      "hit": false,
      "t": 265826.0205000003,
      "d": 260.8694999999716,
      "v": 74
    },
    {
      "midi": 41,
      "hit": false,
      "t": 266086.89000000025,
      "d": 260.8694999999716,
      "v": 76
    },
    {
      "midi": 41,
      "hit": false,
      "t": 266347.7595000002,
      "d": 260.8694999999716,
      "v": 87
    },
    {
      "midi": 65,
      "hit": false,
      "t": 266347.7595000003,
      "d": 521.7390000000014,
      "v": 80
    },
    {
      "midi": 73,
      "hit": false,
      "t": 266347.7595000003,
      "d": 521.7390000000014,
      "v": 81
    },
    {
      "midi": 41,
      "hit": false,
      "t": 266608.6290000002,
      "d": 260.8694999999716,
      "v": 95
    },
    {
      "midi": 49,
      "hit": false,
      "t": 266869.49850000016,
      "d": 260.8694999999716,
      "v": 88
    },
    {
      "midi": 65,
      "hit": false,
      "t": 266869.4985000003,
      "d": 260.8694999999716,
      "v": 95
    },
    {
      "midi": 68,
      "hit": false,
      "t": 266869.4985000003,
      "d": 260.8694999999716,
      "v": 92
    },
    {
      "midi": 49,
      "hit": false,
      "t": 267130.36800000013,
      "d": 260.8694999999716,
      "v": 84
    },
    {
      "midi": 49,
      "hit": false,
      "t": 267391.2375000001,
      "d": 260.8694999999716,
      "v": 66
    },
    {
      "midi": 68,
      "hit": false,
      "t": 267391.2375000002,
      "d": 260.8694999999716,
      "v": 69
    },
    {
      "midi": 49,
      "hit": false,
      "t": 267652.1070000001,
      "d": 260.8694999999716,
      "v": 77
    },
    {
      "midi": 68,
      "hit": false,
      "t": 267652.1070000002,
      "d": 260.8694999999716,
      "v": 74
    },
    {
      "midi": 49,
      "hit": false,
      "t": 267912.97650000005,
      "d": 260.8694999999716,
      "v": 81
    },
    {
      "midi": 65,
      "hit": false,
      "t": 267912.97650000016,
      "d": 521.7390000000014,
      "v": 87
    },
    {
      "midi": 73,
      "hit": false,
      "t": 267912.97650000016,
      "d": 521.7390000000014,
      "v": 84
    },
    {
      "midi": 49,
      "hit": false,
      "t": 268173.846,
      "d": 260.8694999999716,
      "v": 84
    },
    {
      "midi": 49,
      "hit": false,
      "t": 268434.7155,
      "d": 260.8694999999716,
      "v": 88
    },
    {
      "midi": 72,
      "hit": false,
      "t": 268434.71550000017,
      "d": 521.7390000000014,
      "v": 97
    },
    {
      "midi": 49,
      "hit": false,
      "t": 268695.58499999996,
      "d": 260.8694999999716,
      "v": 92
    },
    {
      "midi": 51,
      "hit": false,
      "t": 268956.45449999993,
      "d": 260.8694999999716,
      "v": 74
    },
    {
      "midi": 67,
      "hit": false,
      "t": 268956.45450000017,
      "d": 260.8694999999716,
      "v": 84
    },
    {
      "midi": 70,
      "hit": false,
      "t": 268956.45450000017,
      "d": 260.8694999999716,
      "v": 77
    },
    {
      "midi": 51,
      "hit": false,
      "t": 269217.3239999999,
      "d": 260.8694999999716,
      "v": 92
    },
    {
      "midi": 51,
      "hit": false,
      "t": 269478.1934999999,
      "d": 260.8694999999716,
      "v": 69
    },
    {
      "midi": 63,
      "hit": false,
      "t": 269478.1935000001,
      "d": 260.8694999999716,
      "v": 57
    },
    {
      "midi": 70,
      "hit": false,
      "t": 269478.1935000001,
      "d": 260.8694999999716,
      "v": 66
    },
    {
      "midi": 51,
      "hit": false,
      "t": 269739.06299999985,
      "d": 260.8694999999716,
      "v": 92
    },
    {
      "midi": 68,
      "hit": false,
      "t": 269739.0630000001,
      "d": 260.8694999999716,
      "v": 88
    },
    {
      "midi": 51,
      "hit": false,
      "t": 269999.9324999998,
      "d": 260.8694999999716,
      "v": 81
    },
    {
      "midi": 72,
      "hit": false,
      "t": 269999.93250000005,
      "d": 260.8694999999716,
      "v": 89
    },
    {
      "midi": 51,
      "hit": false,
      "t": 270260.8019999998,
      "d": 260.8694999999716,
      "v": 84
    },
    {
      "midi": 68,
      "hit": false,
      "t": 270260.802,
      "d": 521.7390000000014,
      "v": 88
    },
    {
      "midi": 51,
      "hit": false,
      "t": 270521.67149999976,
      "d": 260.8694999999716,
      "v": 72
    },
    {
      "midi": 51,
      "hit": false,
      "t": 270782.54099999974,
      "d": 260.8694999999716,
      "v": 72
    },
    {
      "midi": 61,
      "hit": false,
      "t": 270782.541,
      "d": 521.7390000000014,
      "v": 81
    },
    {
      "midi": 68,
      "hit": false,
      "t": 270782.541,
      "d": 521.7390000000014,
      "v": 84
    },
    {
      "midi": 51,
      "hit": false,
      "t": 271043.4104999997,
      "d": 260.8694999999716,
      "v": 81
    },
    {
      "midi": 41,
      "hit": false,
      "t": 271304.2799999997,
      "d": 260.8694999999716,
      "v": 95
    },
    {
      "midi": 41,
      "hit": false,
      "t": 271565.14949999965,
      "d": 260.8694999999716,
      "v": 82
    },
    {
      "midi": 60,
      "hit": false,
      "t": 271565.1495,
      "d": 260.8694999999716,
      "v": 89
    },
    {
      "midi": 41,
      "hit": false,
      "t": 271826.0189999996,
      "d": 260.8694999999716,
      "v": 82
    },
    {
      "midi": 67,
      "hit": false,
      "t": 271826.019,
      "d": 260.8694999999716,
      "v": 88
    },
    {
      "midi": 41,
      "hit": false,
      "t": 272086.8884999996,
      "d": 260.8694999999716,
      "v": 71
    },
    {
      "midi": 60,
      "hit": false,
      "t": 272086.88849999994,
      "d": 260.8694999999716,
      "v": 113
    },
    {
      "midi": 41,
      "hit": false,
      "t": 272347.75799999957,
      "d": 260.8694999999716,
      "v": 92
    },
    {
      "midi": 60,
      "hit": false,
      "t": 272347.7579999999,
      "d": 260.8694999999716,
      "v": 92
    },
    {
      "midi": 68,
      "hit": false,
      "t": 272347.7579999999,
      "d": 260.8694999999716,
      "v": 89
    },
    {
      "midi": 41,
      "hit": false,
      "t": 272608.62749999954,
      "d": 260.8694999999716,
      "v": 87
    },
    {
      "midi": 67,
      "hit": false,
      "t": 272608.6274999999,
      "d": 260.8694999999716,
      "v": 89
    },
    {
      "midi": 41,
      "hit": false,
      "t": 272869.4969999995,
      "d": 260.8694999999716,
      "v": 78
    },
    {
      "midi": 65,
      "hit": false,
      "t": 272869.49699999986,
      "d": 260.8694999999716,
      "v": 92
    },
    {
      "midi": 41,
      "hit": false,
      "t": 273130.3664999995,
      "d": 260.8694999999716,
      "v": 78
    },
    {
      "midi": 67,
      "hit": false,
      "t": 273130.3664999998,
      "d": 260.8694999999716,
      "v": 95
    },
    {
      "midi": 41,
      "hit": false,
      "t": 273391.23599999945,
      "d": 260.8694999999716,
      "v": 64
    },
    {
      "midi": 60,
      "hit": false,
      "t": 273391.2359999998,
      "d": 260.8694999999716,
      "v": 61
    },
    {
      "midi": 41,
      "hit": false,
      "t": 273652.1054999994,
      "d": 260.8694999999716,
      "v": 87
    },
    {
      "midi": 68,
      "hit": false,
      "t": 273652.1054999998,
      "d": 260.8694999999716,
      "v": 69
    },
    {
      "midi": 41,
      "hit": false,
      "t": 273912.9749999994,
      "d": 260.8694999999716,
      "v": 69
    },
    {
      "midi": 68,
      "hit": false,
      "t": 273912.97499999974,
      "d": 260.8694999999716,
      "v": 74
    },
    {
      "midi": 41,
      "hit": false,
      "t": 274173.84449999937,
      "d": 260.8694999999716,
      "v": 68
    },
    {
      "midi": 63,
      "hit": false,
      "t": 274173.8444999997,
      "d": 521.7390000000014,
      "v": 81
    },
    {
      "midi": 72,
      "hit": false,
      "t": 274173.8444999997,
      "d": 521.7390000000014,
      "v": 87
    },
    {
      "midi": 41,
      "hit": false,
      "t": 274434.71399999934,
      "d": 260.8694999999716,
      "v": 66
    },
    {
      "midi": 41,
      "hit": false,
      "t": 274695.5834999993,
      "d": 260.8694999999716,
      "v": 84
    },
    {
      "midi": 65,
      "hit": false,
      "t": 274695.5834999997,
      "d": 521.7390000000014,
      "v": 74
    },
    {
      "midi": 73,
      "hit": false,
      "t": 274695.5834999997,
      "d": 521.7390000000014,
      "v": 77
    },
    {
      "midi": 41,
      "hit": false,
      "t": 274956.4529999993,
      "d": 260.8694999999716,
      "v": 89
    },
    {
      "midi": 49,
      "hit": false,
      "t": 275217.32249999925,
      "d": 260.8694999999716,
      "v": 74
    },
    {
      "midi": 65,
      "hit": false,
      "t": 275217.3224999997,
      "d": 260.8694999999716,
      "v": 104
    },
    {
      "midi": 68,
      "hit": false,
      "t": 275217.3224999997,
      "d": 260.8694999999716,
      "v": 92
    },
    {
      "midi": 49,
      "hit": false,
      "t": 275478.1919999992,
      "d": 260.8694999999716,
      "v": 77
    },
    {
      "midi": 49,
      "hit": false,
      "t": 275739.0614999992,
      "d": 260.8694999999716,
      "v": 77
    },
    {
      "midi": 68,
      "hit": false,
      "t": 275739.06149999966,
      "d": 260.8694999999716,
      "v": 84
    },
    {
      "midi": 49,
      "hit": false,
      "t": 275999.93099999917,
      "d": 260.8694999999716,
      "v": 88
    },
    {
      "midi": 68,
      "hit": false,
      "t": 275999.93099999963,
      "d": 260.8694999999716,
      "v": 84
    },
    {
      "midi": 49,
      "hit": false,
      "t": 276260.80049999914,
      "d": 260.8694999999716,
      "v": 96
    },
    {
      "midi": 65,
      "hit": false,
      "t": 276260.8004999996,
      "d": 521.7390000000014,
      "v": 87
    },
    {
      "midi": 73,
      "hit": false,
      "t": 276260.8004999996,
      "d": 521.7390000000014,
      "v": 84
    },
    {
      "midi": 49,
      "hit": false,
      "t": 276521.6699999991,
      "d": 260.8694999999716,
      "v": 92
    },
    {
      "midi": 49,
      "hit": false,
      "t": 276782.5394999991,
      "d": 260.8694999999716,
      "v": 96
    },
    {
      "midi": 72,
      "hit": false,
      "t": 276782.5394999996,
      "d": 521.7390000000014,
      "v": 95
    },
    {
      "midi": 49,
      "hit": false,
      "t": 277043.40899999905,
      "d": 260.8694999999716,
      "v": 92
    },
    {
      "midi": 51,
      "hit": false,
      "t": 277304.278499999,
      "d": 260.8694999999716,
      "v": 96
    },
    {
      "midi": 67,
      "hit": false,
      "t": 277304.2784999996,
      "d": 260.8694999999716,
      "v": 89
    },
    {
      "midi": 70,
      "hit": false,
      "t": 277304.2784999996,
      "d": 260.8694999999716,
      "v": 96
    },
    {
      "midi": 51,
      "hit": false,
      "t": 277565.147999999,
      "d": 260.8694999999716,
      "v": 100
    },
    {
      "midi": 51,
      "hit": false,
      "t": 277826.01749999897,
      "d": 260.8694999999716,
      "v": 84
    },
    {
      "midi": 63,
      "hit": false,
      "t": 277826.01749999955,
      "d": 260.8694999999716,
      "v": 40
    },
    {
      "midi": 70,
      "hit": false,
      "t": 277826.01749999955,
      "d": 260.8694999999716,
      "v": 84
    },
    {
      "midi": 51,
      "hit": false,
      "t": 278086.88699999894,
      "d": 260.8694999999716,
      "v": 84
    },
    {
      "midi": 68,
      "hit": false,
      "t": 278086.8869999995,
      "d": 260.8694999999716,
      "v": 81
    },
    {
      "midi": 51,
      "hit": false,
      "t": 278347.7564999989,
      "d": 260.8694999999716,
      "v": 88
    },
    {
      "midi": 72,
      "hit": false,
      "t": 278347.7564999995,
      "d": 260.8694999999716,
      "v": 97
    },
    {
      "midi": 51,
      "hit": false,
      "t": 278608.6259999989,
      "d": 260.8694999999716,
      "v": 96
    },
    {
      "midi": 68,
      "hit": false,
      "t": 278608.62599999947,
      "d": 521.7390000000014,
      "v": 74
    },
    {
      "midi": 51,
      "hit": false,
      "t": 278869.49549999885,
      "d": 260.8694999999716,
      "v": 88
    },
    {
      "midi": 51,
      "hit": false,
      "t": 279130.3649999988,
      "d": 260.8694999999716,
      "v": 84
    },
    {
      "midi": 61,
      "hit": false,
      "t": 279130.36499999947,
      "d": 521.7390000000014,
      "v": 84
    },
    {
      "midi": 68,
      "hit": false,
      "t": 279130.36499999947,
      "d": 521.7390000000014,
      "v": 92
    },
    {
      "midi": 51,
      "hit": false,
      "t": 279391.2344999988,
      "d": 260.8694999999716,
      "v": 81
    },
    {
      "midi": 41,
      "hit": false,
      "t": 279652.10399999877,
      "d": 260.8694999999716,
      "v": 95
    },
    {
      "midi": 41,
      "hit": false,
      "t": 279912.97349999874,
      "d": 260.8694999999716,
      "v": 101
    },
    {
      "midi": 60,
      "hit": false,
      "t": 279912.97349999944,
      "d": 260.8694999999716,
      "v": 89
    },
    {
      "midi": 41,
      "hit": false,
      "t": 280173.8429999987,
      "d": 260.8694999999716,
      "v": 80
    },
    {
      "midi": 67,
      "hit": false,
      "t": 280173.8429999994,
      "d": 260.8694999999716,
      "v": 97
    },
    {
      "midi": 41,
      "hit": false,
      "t": 280434.7124999987,
      "d": 260.8694999999716,
      "v": 67
    },
    {
      "midi": 60,
      "hit": false,
      "t": 280434.7124999994,
      "d": 260.8694999999716,
      "v": 74
    },
    {
      "midi": 41,
      "hit": false,
      "t": 280695.58199999866,
      "d": 260.8694999999716,
      "v": 82
    },
    {
      "midi": 60,
      "hit": false,
      "t": 280695.58199999935,
      "d": 260.8694999999716,
      "v": 104
    },
    {
      "midi": 68,
      "hit": false,
      "t": 280695.58199999935,
      "d": 260.8694999999716,
      "v": 88
    },
    {
      "midi": 41,
      "hit": false,
      "t": 280956.4514999986,
      "d": 260.8694999999716,
      "v": 76
    },
    {
      "midi": 67,
      "hit": false,
      "t": 280956.4514999993,
      "d": 260.8694999999716,
      "v": 101
    },
    {
      "midi": 41,
      "hit": false,
      "t": 281217.3209999986,
      "d": 260.8694999999716,
      "v": 84
    },
    {
      "midi": 65,
      "hit": false,
      "t": 281217.3209999993,
      "d": 260.8694999999716,
      "v": 95
    },
    {
      "midi": 41,
      "hit": false,
      "t": 281478.19049999857,
      "d": 260.8694999999716,
      "v": 84
    },
    {
      "midi": 67,
      "hit": false,
      "t": 281478.19049999927,
      "d": 260.8694999999716,
      "v": 84
    },
    {
      "midi": 41,
      "hit": false,
      "t": 281739.05999999854,
      "d": 260.8694999999716,
      "v": 89
    },
    {
      "midi": 56,
      "hit": false,
      "t": 281739.05999999924,
      "d": 260.8694999999716,
      "v": 36
    },
    {
      "midi": 41,
      "hit": false,
      "t": 281999.9294999985,
      "d": 260.8694999999716,
      "v": 80
    },
    {
      "midi": 60,
      "hit": false,
      "t": 281999.9294999992,
      "d": 260.8694999999716,
      "v": 2
    },
    {
      "midi": 41,
      "hit": false,
      "t": 282260.7989999985,
      "d": 260.8694999999716,
      "v": 80
    },
    {
      "midi": 67,
      "hit": false,
      "t": 282260.7989999992,
      "d": 260.8694999999716,
      "v": 108
    },
    {
      "midi": 41,
      "hit": false,
      "t": 282521.66849999846,
      "d": 260.8694999999716,
      "v": 72
    },
    {
      "midi": 60,
      "hit": false,
      "t": 282521.66849999916,
      "d": 260.8694999999716,
      "v": 92
    },
    {
      "midi": 41,
      "hit": false,
      "t": 282782.5379999984,
      "d": 260.8694999999716,
      "v": 80
    },
    {
      "midi": 60,
      "hit": false,
      "t": 282782.5379999991,
      "d": 260.8694999999716,
      "v": 82
    },
    {
      "midi": 68,
      "hit": false,
      "t": 282782.5379999991,
      "d": 260.8694999999716,
      "v": 32
    },
    {
      "midi": 41,
      "hit": false,
      "t": 283043.4074999984,
      "d": 260.8694999999716,
      "v": 76
    },
    {
      "midi": 67,
      "hit": false,
      "t": 283043.4074999991,
      "d": 260.8694999999716,
      "v": 104
    },
    {
      "midi": 41,
      "hit": false,
      "t": 283304.2769999984,
      "d": 260.8694999999716,
      "v": 78
    },
    {
      "midi": 65,
      "hit": false,
      "t": 283304.27699999907,
      "d": 260.8694999999716,
      "v": 89
    },
    {
      "midi": 41,
      "hit": false,
      "t": 283565.14649999834,
      "d": 260.8694999999716,
      "v": 71
    },
    {
      "midi": 67,
      "hit": false,
      "t": 283565.14649999904,
      "d": 260.8694999999716,
      "v": 92
    },
    {
      "midi": 41,
      "hit": false,
      "t": 283826.0159999983,
      "d": 260.8694999999716,
      "v": 80
    },
    {
      "midi": 56,
      "hit": false,
      "t": 283826.015999999,
      "d": 260.8694999999716,
      "v": 72
    },
    {
      "midi": 41,
      "hit": false,
      "t": 284086.8854999983,
      "d": 260.8694999999716,
      "v": 71
    },
    {
      "midi": 60,
      "hit": false,
      "t": 284086.885499999,
      "d": 260.8694999999716,
      "v": 76
    },
    {
      "midi": 41,
      "hit": false,
      "t": 284347.75499999826,
      "d": 260.8694999999716,
      "v": 74
    },
    {
      "midi": 67,
      "hit": false,
      "t": 284347.75499999896,
      "d": 260.8694999999716,
      "v": 95
    },
    {
      "midi": 41,
      "hit": false,
      "t": 284608.62449999823,
      "d": 260.8694999999716,
      "v": 72
    },
    {
      "midi": 60,
      "hit": false,
      "t": 284608.6244999989,
      "d": 260.8694999999716,
      "v": 87
    },
    {
      "midi": 41,
      "hit": false,
      "t": 284869.4939999982,
      "d": 260.8694999999716,
      "v": 69
    },
    {
      "midi": 60,
      "hit": false,
      "t": 284869.4939999989,
      "d": 260.8694999999716,
      "v": 95
    },
    {
      "midi": 68,
      "hit": false,
      "t": 284869.4939999989,
      "d": 260.8694999999716,
      "v": 92
    },
    {
      "midi": 41,
      "hit": false,
      "t": 285130.3634999982,
      "d": 260.8694999999716,
      "v": 80
    },
    {
      "midi": 67,
      "hit": false,
      "t": 285130.3634999989,
      "d": 260.8694999999716,
      "v": 95
    },
    {
      "midi": 41,
      "hit": false,
      "t": 285391.23299999814,
      "d": 260.8694999999716,
      "v": 69
    },
    {
      "midi": 65,
      "hit": false,
      "t": 285391.23299999884,
      "d": 260.8694999999716,
      "v": 89
    },
    {
      "midi": 41,
      "hit": false,
      "t": 285652.1024999981,
      "d": 260.8694999999716,
      "v": 95
    },
    {
      "midi": 67,
      "hit": false,
      "t": 285652.1024999988,
      "d": 260.8694999999716,
      "v": 95
    },
    {
      "midi": 53,
      "hit": false,
      "t": 285912.9719999981,
      "d": 260.8694999999716,
      "v": 89
    },
    {
      "midi": 65,
      "hit": false,
      "t": 285912.9719999988,
      "d": 521.7390000000014,
      "v": 95
    },
    {
      "midi": 53,
      "hit": false,
      "t": 286173.84149999806,
      "d": 260.8694999999716,
      "v": 84
    },
    {
      "midi": 53,
      "hit": false,
      "t": 286434.71099999803,
      "d": 260.8694999999716,
      "v": 87
    },
    {
      "midi": 72,
      "hit": false,
      "t": 286434.7109999988,
      "d": 260.8694999999716,
      "v": 95
    },
    {
      "midi": 53,
      "hit": false,
      "t": 286695.580499998,
      "d": 260.8694999999716,
      "v": 80
    },
    {
      "midi": 73,
      "hit": false,
      "t": 286695.58049999876,
      "d": 260.8694999999716,
      "v": 59
    },
    {
      "midi": 51,
      "hit": false,
      "t": 286956.449999998,
      "d": 260.8694999999716,
      "v": 72
    },
    {
      "midi": 63,
      "hit": false,
      "t": 286956.44999999873,
      "d": 521.7390000000014,
      "v": 74
    },
    {
      "midi": 72,
      "hit": false,
      "t": 286956.44999999873,
      "d": 521.7390000000014,
      "v": 95
    },
    {
      "midi": 51,
      "hit": false,
      "t": 287217.31949999795,
      "d": 260.8694999999716,
      "v": 77
    },
    {
      "midi": 51,
      "hit": false,
      "t": 287478.1889999979,
      "d": 260.8694999999716,
      "v": 88
    },
    {
      "midi": 61,
      "hit": false,
      "t": 287478.18899999873,
      "d": 521.7390000000014,
      "v": 55
    },
    {
      "midi": 70,
      "hit": false,
      "t": 287478.18899999873,
      "d": 521.7390000000014,
      "v": 84
    },
    {
      "midi": 51,
      "hit": false,
      "t": 287739.0584999979,
      "d": 260.8694999999716,
      "v": 69
    },
    {
      "midi": 44,
      "hit": false,
      "t": 287999.92799999786,
      "d": 260.8694999999716,
      "v": 72
    },
    {
      "midi": 60,
      "hit": false,
      "t": 287999.92799999873,
      "d": 260.8694999999716,
      "v": 87
    },
    {
      "midi": 44,
      "hit": false,
      "t": 288260.79749999783,
      "d": 260.8694999999716,
      "v": 74
    },
    {
      "midi": 63,
      "hit": false,
      "t": 288260.7974999987,
      "d": 260.8694999999716,
      "v": 74
    },
    {
      "midi": 44,
      "hit": false,
      "t": 288521.6669999978,
      "d": 260.8694999999716,
      "v": 69
    },
    {
      "midi": 68,
      "hit": false,
      "t": 288521.6669999987,
      "d": 260.8694999999716,
      "v": 88
    },
    {
      "midi": 44,
      "hit": false,
      "t": 288782.5364999978,
      "d": 260.8694999999716,
      "v": 74
    },
    {
      "midi": 63,
      "hit": false,
      "t": 288782.53649999865,
      "d": 260.8694999999716,
      "v": 77
    },
    {
      "midi": 44,
      "hit": false,
      "t": 289043.40599999775,
      "d": 260.8694999999716,
      "v": 81
    },
    {
      "midi": 63,
      "hit": false,
      "t": 289043.4059999986,
      "d": 260.8694999999716,
      "v": 72
    },
    {
      "midi": 72,
      "hit": false,
      "t": 289043.4059999986,
      "d": 260.8694999999716,
      "v": 80
    },
    {
      "midi": 44,
      "hit": false,
      "t": 289304.2754999977,
      "d": 260.8694999999716,
      "v": 72
    },
    {
      "midi": 70,
      "hit": false,
      "t": 289304.2754999986,
      "d": 260.8694999999716,
      "v": 84
    },
    {
      "midi": 44,
      "hit": false,
      "t": 289565.1449999977,
      "d": 260.8694999999716,
      "v": 66
    },
    {
      "midi": 68,
      "hit": false,
      "t": 289565.14499999856,
      "d": 260.8694999999716,
      "v": 45
    },
    {
      "midi": 44,
      "hit": false,
      "t": 289826.01449999766,
      "d": 260.8694999999716,
      "v": 84
    },
    {
      "midi": 70,
      "hit": false,
      "t": 289826.01449999854,
      "d": 260.8694999999716,
      "v": 84
    },
    {
      "midi": 44,
      "hit": false,
      "t": 290086.88399999763,
      "d": 260.8694999999716,
      "v": 81
    },
    {
      "midi": 60,
      "hit": false,
      "t": 290086.8839999985,
      "d": 260.8694999999716,
      "v": 68
    },
    {
      "midi": 44,
      "hit": false,
      "t": 290347.7534999976,
      "d": 260.8694999999716,
      "v": 69
    },
    {
      "midi": 63,
      "hit": false,
      "t": 290347.7534999985,
      "d": 260.8694999999716,
      "v": 55
    },
    {
      "midi": 44,
      "hit": false,
      "t": 290608.6229999976,
      "d": 260.8694999999716,
      "v": 72
    },
    {
      "midi": 68,
      "hit": false,
      "t": 290608.62299999845,
      "d": 260.8694999999716,
      "v": 74
    },
    {
      "midi": 44,
      "hit": false,
      "t": 290869.49249999755,
      "d": 260.8694999999716,
      "v": 77
    },
    {
      "midi": 63,
      "hit": false,
      "t": 290869.4924999984,
      "d": 260.8694999999716,
      "v": 55
    },
    {
      "midi": 44,
      "hit": false,
      "t": 291130.3619999975,
      "d": 260.8694999999716,
      "v": 63
    },
    {
      "midi": 63,
      "hit": false,
      "t": 291130.3619999984,
      "d": 260.8694999999716,
      "v": 84
    },
    {
      "midi": 72,
      "hit": false,
      "t": 291130.3619999984,
      "d": 260.8694999999716,
      "v": 95
    },
    {
      "midi": 44,
      "hit": false,
      "t": 291391.2314999975,
      "d": 260.8694999999716,
      "v": 84
    },
    {
      "midi": 70,
      "hit": false,
      "t": 291391.23149999836,
      "d": 260.8694999999716,
      "v": 81
    },
    {
      "midi": 44,
      "hit": false,
      "t": 291652.10099999746,
      "d": 260.8694999999716,
      "v": 92
    },
    {
      "midi": 68,
      "hit": false,
      "t": 291652.10099999834,
      "d": 260.8694999999716,
      "v": 74
    },
    {
      "midi": 44,
      "hit": false,
      "t": 291912.97049999743,
      "d": 260.8694999999716,
      "v": 96
    },
    {
      "midi": 70,
      "hit": false,
      "t": 291912.9704999983,
      "d": 260.8694999999716,
      "v": 44
    },
    {
      "midi": 41,
      "hit": false,
      "t": 292173.8399999974,
      "d": 260.8694999999716,
      "v": 80
    },
    {
      "midi": 56,
      "hit": false,
      "t": 292173.8399999983,
      "d": 260.8694999999716,
      "v": 72
    },
    {
      "midi": 41,
      "hit": false,
      "t": 292434.7094999974,
      "d": 260.8694999999716,
      "v": 71
    },
    {
      "midi": 60,
      "hit": false,
      "t": 292434.70949999825,
      "d": 260.8694999999716,
      "v": 76
    },
    {
      "midi": 41,
      "hit": false,
      "t": 292695.57899999735,
      "d": 260.8694999999716,
      "v": 74
    },
    {
      "midi": 67,
      "hit": false,
      "t": 292695.5789999982,
      "d": 260.8694999999716,
      "v": 95
    },
    {
      "midi": 41,
      "hit": false,
      "t": 292956.4484999973,
      "d": 260.8694999999716,
      "v": 72
    },
    {
      "midi": 60,
      "hit": false,
      "t": 292956.4484999982,
      "d": 260.8694999999716,
      "v": 87
    },
    {
      "midi": 41,
      "hit": false,
      "t": 293217.3179999973,
      "d": 260.8694999999716,
      "v": 69
    },
    {
      "midi": 60,
      "hit": false,
      "t": 293217.31799999817,
      "d": 260.8694999999716,
      "v": 95
    },
    {
      "midi": 68,
      "hit": false,
      "t": 293217.31799999817,
      "d": 260.8694999999716,
      "v": 92
    },
    {
      "midi": 41,
      "hit": false,
      "t": 293478.18749999726,
      "d": 260.8694999999716,
      "v": 80
    },
    {
      "midi": 67,
      "hit": false,
      "t": 293478.18749999814,
      "d": 260.8694999999716,
      "v": 95
    },
    {
      "midi": 41,
      "hit": false,
      "t": 293739.05699999724,
      "d": 260.8694999999716,
      "v": 69
    },
    {
      "midi": 65,
      "hit": false,
      "t": 293739.0569999981,
      "d": 260.8694999999716,
      "v": 89
    },
    {
      "midi": 41,
      "hit": false,
      "t": 293999.9264999972,
      "d": 260.8694999999716,
      "v": 95
    },
    {
      "midi": 67,
      "hit": false,
      "t": 293999.9264999981,
      "d": 260.8694999999716,
      "v": 95
    },
    {
      "midi": 53,
      "hit": false,
      "t": 294260.7959999972,
      "d": 260.8694999999716,
      "v": 89
    },
    {
      "midi": 65,
      "hit": false,
      "t": 294260.79599999805,
      "d": 521.7390000000014,
      "v": 95
    },
    {
      "midi": 53,
      "hit": false,
      "t": 294521.66549999715,
      "d": 260.8694999999716,
      "v": 84
    },
    {
      "midi": 53,
      "hit": false,
      "t": 294782.5349999971,
      "d": 260.8694999999716,
      "v": 87
    },
    {
      "midi": 72,
      "hit": false,
      "t": 294782.53499999805,
      "d": 260.8694999999716,
      "v": 95
    },
    {
      "midi": 53,
      "hit": false,
      "t": 295043.4044999971,
      "d": 260.8694999999716,
      "v": 80
    },
    {
      "midi": 73,
      "hit": false,
      "t": 295043.404499998,
      "d": 260.8694999999716,
      "v": 59
    },
    {
      "midi": 51,
      "hit": false,
      "t": 295304.27399999707,
      "d": 260.8694999999716,
      "v": 72
    },
    {
      "midi": 63,
      "hit": false,
      "t": 295304.273999998,
      "d": 521.7390000000014,
      "v": 74
    },
    {
      "midi": 72,
      "hit": false,
      "t": 295304.273999998,
      "d": 521.7390000000014,
      "v": 95
    },
    {
      "midi": 51,
      "hit": false,
      "t": 295565.14349999704,
      "d": 260.8694999999716,
      "v": 77
    },
    {
      "midi": 51,
      "hit": false,
      "t": 295826.012999997,
      "d": 260.8694999999716,
      "v": 88
    },
    {
      "midi": 61,
      "hit": false,
      "t": 295826.012999998,
      "d": 521.7390000000014,
      "v": 55
    },
    {
      "midi": 70,
      "hit": false,
      "t": 295826.012999998,
      "d": 521.7390000000014,
      "v": 84
    },
    {
      "midi": 51,
      "hit": false,
      "t": 296086.882499997,
      "d": 260.8694999999716,
      "v": 69
    },
    {
      "midi": 44,
      "hit": false,
      "t": 296347.75199999695,
      "d": 260.8694999999716,
      "v": 72
    },
    {
      "midi": 60,
      "hit": false,
      "t": 296347.751999998,
      "d": 260.8694999999716,
      "v": 87
    },
    {
      "midi": 44,
      "hit": false,
      "t": 296608.6214999969,
      "d": 260.8694999999716,
      "v": 74
    },
    {
      "midi": 63,
      "hit": false,
      "t": 296608.621499998,
      "d": 260.8694999999716,
      "v": 74
    },
    {
      "midi": 44,
      "hit": false,
      "t": 296869.4909999969,
      "d": 260.8694999999716,
      "v": 69
    },
    {
      "midi": 68,
      "hit": false,
      "t": 296869.49099999794,
      "d": 260.8694999999716,
      "v": 88
    },
    {
      "midi": 44,
      "hit": false,
      "t": 297130.36049999687,
      "d": 260.8694999999716,
      "v": 74
    },
    {
      "midi": 63,
      "hit": false,
      "t": 297130.3604999979,
      "d": 260.8694999999716,
      "v": 77
    },
    {
      "midi": 44,
      "hit": false,
      "t": 297391.22999999684,
      "d": 260.8694999999716,
      "v": 81
    },
    {
      "midi": 63,
      "hit": false,
      "t": 297391.2299999979,
      "d": 260.8694999999716,
      "v": 72
    },
    {
      "midi": 72,
      "hit": false,
      "t": 297391.2299999979,
      "d": 260.8694999999716,
      "v": 80
    },
    {
      "midi": 44,
      "hit": false,
      "t": 297652.0994999968,
      "d": 260.8694999999716,
      "v": 72
    },
    {
      "midi": 70,
      "hit": false,
      "t": 297652.09949999786,
      "d": 260.8694999999716,
      "v": 84
    },
    {
      "midi": 44,
      "hit": false,
      "t": 297912.9689999968,
      "d": 260.8694999999716,
      "v": 66
    },
    {
      "midi": 68,
      "hit": false,
      "t": 297912.9689999978,
      "d": 260.8694999999716,
      "v": 45
    },
    {
      "midi": 44,
      "hit": false,
      "t": 298173.83849999675,
      "d": 260.8694999999716,
      "v": 84
    },
    {
      "midi": 70,
      "hit": false,
      "t": 298173.8384999978,
      "d": 260.8694999999716,
      "v": 84
    },
    {
      "midi": 44,
      "hit": false,
      "t": 298434.7079999967,
      "d": 260.8694999999716,
      "v": 81
    },
    {
      "midi": 60,
      "hit": false,
      "t": 298434.7079999978,
      "d": 260.8694999999716,
      "v": 68
    },
    {
      "midi": 44,
      "hit": false,
      "t": 298695.5774999967,
      "d": 260.8694999999716,
      "v": 69
    },
    {
      "midi": 63,
      "hit": false,
      "t": 298695.57749999774,
      "d": 260.8694999999716,
      "v": 55
    },
    {
      "midi": 44,
      "hit": false,
      "t": 298956.44699999667,
      "d": 260.8694999999716,
      "v": 72
    },
    {
      "midi": 68,
      "hit": false,
      "t": 298956.4469999977,
      "d": 260.8694999999716,
      "v": 74
    },
    {
      "midi": 44,
      "hit": false,
      "t": 299217.31649999664,
      "d": 260.8694999999716,
      "v": 77
    },
    {
      "midi": 63,
      "hit": false,
      "t": 299217.3164999977,
      "d": 260.8694999999716,
      "v": 55
    },
    {
      "midi": 44,
      "hit": false,
      "t": 299478.1859999966,
      "d": 260.8694999999716,
      "v": 63
    },
    {
      "midi": 63,
      "hit": false,
      "t": 299478.18599999766,
      "d": 260.8694999999716,
      "v": 84
    },
    {
      "midi": 72,
      "hit": false,
      "t": 299478.18599999766,
      "d": 260.8694999999716,
      "v": 95
    },
    {
      "midi": 44,
      "hit": false,
      "t": 299739.0554999966,
      "d": 260.8694999999716,
      "v": 84
    },
    {
      "midi": 70,
      "hit": false,
      "t": 299739.05549999763,
      "d": 260.8694999999716,
      "v": 81
    },
    {
      "midi": 44,
      "hit": false,
      "t": 299999.92499999655,
      "d": 260.8694999999716,
      "v": 92
    },
    {
      "midi": 68,
      "hit": false,
      "t": 299999.9249999976,
      "d": 260.8694999999716,
      "v": 74
    },
    {
      "midi": 44,
      "hit": false,
      "t": 300260.7944999965,
      "d": 260.8694999999716,
      "v": 96
    },
    {
      "midi": 70,
      "hit": false,
      "t": 300260.7944999976,
      "d": 260.8694999999716,
      "v": 44
    },
    {
      "midi": 41,
      "hit": false,
      "t": 300521.6639999965,
      "d": 260.8694999999716,
      "v": 80
    },
    {
      "midi": 56,
      "hit": false,
      "t": 300521.66399999755,
      "d": 260.8694999999716,
      "v": 72
    },
    {
      "midi": 41,
      "hit": false,
      "t": 300782.53349999647,
      "d": 260.8694999999716,
      "v": 71
    },
    {
      "midi": 60,
      "hit": false,
      "t": 300782.5334999975,
      "d": 260.8694999999716,
      "v": 76
    },
    {
      "midi": 41,
      "hit": false,
      "t": 301043.40299999644,
      "d": 260.8694999999716,
      "v": 74
    },
    {
      "midi": 67,
      "hit": false,
      "t": 301043.4029999975,
      "d": 260.8694999999716,
      "v": 95
    },
    {
      "midi": 41,
      "hit": false,
      "t": 301304.2724999964,
      "d": 260.8694999999716,
      "v": 72
    },
    {
      "midi": 60,
      "hit": false,
      "t": 301304.27249999746,
      "d": 260.8694999999716,
      "v": 87
    },
    {
      "midi": 41,
      "hit": false,
      "t": 301565.1419999964,
      "d": 260.8694999999716,
      "v": 69
    },
    {
      "midi": 60,
      "hit": false,
      "t": 301565.14199999743,
      "d": 260.8694999999716,
      "v": 95
    },
    {
      "midi": 68,
      "hit": false,
      "t": 301565.14199999743,
      "d": 260.8694999999716,
      "v": 92
    },
    {
      "midi": 41,
      "hit": false,
      "t": 301826.01149999636,
      "d": 260.8694999999716,
      "v": 80
    },
    {
      "midi": 67,
      "hit": false,
      "t": 301826.0114999974,
      "d": 260.8694999999716,
      "v": 95
    },
    {
      "midi": 41,
      "hit": false,
      "t": 302086.8809999963,
      "d": 260.8694999999716,
      "v": 69
    },
    {
      "midi": 65,
      "hit": false,
      "t": 302086.8809999974,
      "d": 260.8694999999716,
      "v": 89
    },
    {
      "midi": 41,
      "hit": false,
      "t": 302347.7504999963,
      "d": 260.8694999999716,
      "v": 95
    },
    {
      "midi": 67,
      "hit": false,
      "t": 302347.75049999735,
      "d": 260.8694999999716,
      "v": 95
    },
    {
      "midi": 53,
      "hit": false,
      "t": 302608.61999999627,
      "d": 260.8694999999716,
      "v": 89
    },
    {
      "midi": 65,
      "hit": false,
      "t": 302608.6199999973,
      "d": 521.7390000000014,
      "v": 95
    },
    {
      "midi": 53,
      "hit": false,
      "t": 302869.48949999624,
      "d": 260.8694999999716,
      "v": 84
    },
    {
      "midi": 53,
      "hit": false,
      "t": 303130.3589999962,
      "d": 260.8694999999716,
      "v": 87
    },
    {
      "midi": 72,
      "hit": false,
      "t": 303130.3589999973,
      "d": 260.8694999999716,
      "v": 95
    },
    {
      "midi": 53,
      "hit": false,
      "t": 303391.2284999962,
      "d": 260.8694999999716,
      "v": 80
    },
    {
      "midi": 73,
      "hit": false,
      "t": 303391.2284999973,
      "d": 260.8694999999716,
      "v": 59
    },
    {
      "midi": 51,
      "hit": false,
      "t": 303652.09799999616,
      "d": 260.8694999999716,
      "v": 72
    },
    {
      "midi": 63,
      "hit": false,
      "t": 303652.09799999726,
      "d": 521.7390000000014,
      "v": 74
    },
    {
      "midi": 72,
      "hit": false,
      "t": 303652.09799999726,
      "d": 521.7390000000014,
      "v": 95
    },
    {
      "midi": 51,
      "hit": false,
      "t": 303912.9674999961,
      "d": 260.8694999999716,
      "v": 77
    },
    {
      "midi": 51,
      "hit": false,
      "t": 304173.8369999961,
      "d": 260.8694999999716,
      "v": 88
    },
    {
      "midi": 61,
      "hit": false,
      "t": 304173.83699999726,
      "d": 521.7390000000014,
      "v": 55
    },
    {
      "midi": 70,
      "hit": false,
      "t": 304173.83699999726,
      "d": 521.7390000000014,
      "v": 84
    },
    {
      "midi": 51,
      "hit": false,
      "t": 304434.7064999961,
      "d": 260.8694999999716,
      "v": 69
    },
    {
      "midi": 44,
      "hit": false,
      "t": 304695.57599999604,
      "d": 260.8694999999716,
      "v": 72
    },
    {
      "midi": 60,
      "hit": false,
      "t": 304695.57599999727,
      "d": 260.8694999999716,
      "v": 87
    },
    {
      "midi": 44,
      "hit": false,
      "t": 304956.445499996,
      "d": 260.8694999999716,
      "v": 74
    },
    {
      "midi": 63,
      "hit": false,
      "t": 304956.44549999724,
      "d": 260.8694999999716,
      "v": 74
    },
    {
      "midi": 44,
      "hit": false,
      "t": 305217.314999996,
      "d": 260.8694999999716,
      "v": 69
    },
    {
      "midi": 68,
      "hit": false,
      "t": 305217.3149999972,
      "d": 260.8694999999716,
      "v": 88
    },
    {
      "midi": 44,
      "hit": false,
      "t": 305478.18449999596,
      "d": 260.8694999999716,
      "v": 74
    },
    {
      "midi": 63,
      "hit": false,
      "t": 305478.1844999972,
      "d": 260.8694999999716,
      "v": 77
    },
    {
      "midi": 44,
      "hit": false,
      "t": 305739.05399999593,
      "d": 260.8694999999716,
      "v": 81
    },
    {
      "midi": 63,
      "hit": false,
      "t": 305739.05399999715,
      "d": 260.8694999999716,
      "v": 72
    },
    {
      "midi": 72,
      "hit": false,
      "t": 305739.05399999715,
      "d": 260.8694999999716,
      "v": 80
    },
    {
      "midi": 44,
      "hit": false,
      "t": 305999.9234999959,
      "d": 260.8694999999716,
      "v": 72
    },
    {
      "midi": 70,
      "hit": false,
      "t": 305999.9234999971,
      "d": 260.8694999999716,
      "v": 84
    },
    {
      "midi": 44,
      "hit": false,
      "t": 306260.7929999959,
      "d": 260.8694999999716,
      "v": 66
    },
    {
      "midi": 68,
      "hit": false,
      "t": 306260.7929999971,
      "d": 260.8694999999716,
      "v": 45
    },
    {
      "midi": 44,
      "hit": false,
      "t": 306521.66249999584,
      "d": 260.8694999999716,
      "v": 84
    },
    {
      "midi": 70,
      "hit": false,
      "t": 306521.66249999707,
      "d": 260.8694999999716,
      "v": 84
    },
    {
      "midi": 44,
      "hit": false,
      "t": 306782.5319999958,
      "d": 2086.9560000000056,
      "v": 81
    },
    {
      "midi": 63,
      "hit": false,
      "t": 306782.53199999704,
      "d": 2086.9560000000056,
      "v": 84
    },
    {
      "midi": 72,
      "hit": false,
      "t": 306782.53199999704,
      "d": 2086.9560000000056,
      "v": 95
    }
  ]
}