{
  "jsonPath": "Rock/Soft Rock/Sting/fields-of-gold.json",
  "path": "Rock\\Soft Rock\\Sting\\Fields of Gold.mid",
  "name": "Fields of Gold",
  "difficulty": "Advanced",
  "bpm": 92.00012880018032,
  "notes": [
    {
      "midi": 62,
      "hit": false,
      "t": 0,
      "d": 4565.211,
      "v": 100
    },
    {
      "midi": 66,
      "hit": false,
      "t": 0,
      "d": 4565.211,
      "v": 100
    },
    {
      "midi": 71,
      "hit": false,
      "t": 0,
      "d": 4565.211,
      "v": 100
    },
    {
      "midi": 47,
      "hit": false,
      "t": 0,
      "d": 978.2595,
      "v": 100
    },
    {
      "midi": 47,
      "hit": false,
      "t": 978.2595,
      "d": 978.2595,
      "v": 100
    },
    {
      "midi": 47,
      "hit": false,
      "t": 1956.519,
      "d": 652.173,
      "v": 100
    },
    {
      "midi": 47,
      "hit": false,
      "t": 2608.692,
      "d": 978.2595000000001,
      "v": 100
    },
    {
      "midi": 47,
      "hit": false,
      "t": 3586.9515,
      "d": 978.2595000000001,
      "v": 100
    },
    {
      "midi": 74,
      "hit": false,
      "t": 4565.211,
      "d": 326.08650000000034,
      "v": 100
    },
    {
      "midi": 47,
      "hit": false,
      "t": 4565.211,
      "d": 652.1729999999998,
      "v": 100
    },
    {
      "midi": 73,
      "hit": false,
      "t": 4891.297500000001,
      "d": 326.08650000000034,
      "v": 100
    },
    {
      "midi": 62,
      "hit": false,
      "t": 5217.384,
      "d": 1956.5190000000002,
      "v": 100
    },
    {
      "midi": 47,
      "hit": false,
      "t": 5217.384,
      "d": 978.2595000000001,
      "v": 100
    },
    {
      "midi": 71,
      "hit": false,
      "t": 5217.384000000001,
      "d": 326.08650000000034,
      "v": 100
    },
    {
      "midi": 69,
      "hit": false,
      "t": 5543.470500000001,
      "d": 652.1729999999998,
      "v": 100
    },
    {
      "midi": 47,
      "hit": false,
      "t": 6195.6435,
      "d": 978.2595000000001,
      "v": 100
    },
    {
      "midi": 69,
      "hit": false,
      "t": 6195.643500000001,
      "d": 978.2595000000001,
      "v": 100
    },
    {
      "midi": 45,
      "hit": false,
      "t": 7173.903,
      "d": 652.1729999999998,
      "v": 100
    },
    {
      "midi": 74,
      "hit": false,
      "t": 7173.903000000001,
      "d": 326.08650000000034,
      "v": 100
    },
    {
      "midi": 73,
      "hit": false,
      "t": 7499.9895000000015,
      "d": 326.08650000000034,
      "v": 100
    },
    {
      "midi": 62,
      "hit": false,
      "t": 7826.076,
      "d": 1956.5189999999993,
      "v": 100
    },
    {
      "midi": 43,
      "hit": false,
      "t": 7826.076,
      "d": 978.2594999999992,
      "v": 100
    },
    {
      "midi": 71,
      "hit": false,
      "t": 7826.076000000002,
      "d": 326.08650000000034,
      "v": 100
    },
    {
      "midi": 69,
      "hit": false,
      "t": 8152.162500000002,
      "d": 652.1730000000007,
      "v": 100
    },
    {
      "midi": 43,
      "hit": false,
      "t": 8804.3355,
      "d": 1630.4325000000008,
      "v": 100
    },
    {
      "midi": 71,
      "hit": false,
      "t": 8804.335500000003,
      "d": 978.2595000000001,
      "v": 100
    },
    {
      "midi": 62,
      "hit": false,
      "t": 9782.595000000003,
      "d": 652.1730000000007,
      "v": 100
    },
    {
      "midi": 62,
      "hit": false,
      "t": 10434.768,
      "d": 1956.5190000000002,
      "v": 100
    },
    {
      "midi": 43,
      "hit": false,
      "t": 10434.768,
      "d": 978.2595000000001,
      "v": 100
    },
    {
      "midi": 71,
      "hit": false,
      "t": 10434.768000000004,
      "d": 652.1730000000007,
      "v": 100
    },
    {
      "midi": 69,
      "hit": false,
      "t": 11086.941000000004,
      "d": 326.08649999999943,
      "v": 100
    },
    {
      "midi": 43,
      "hit": false,
      "t": 11413.0275,
      "d": 978.2595000000001,
      "v": 100
    },
    {
      "midi": 69,
      "hit": false,
      "t": 11413.027500000004,
      "d": 978.2595000000001,
      "v": 100
    },
    {
      "midi": 43,
      "hit": false,
      "t": 12391.287,
      "d": 652.1730000000007,
      "v": 100
    },
    {
      "midi": 62,
      "hit": false,
      "t": 12391.287000000004,
      "d": 652.1730000000007,
      "v": 100
    },
    {
      "midi": 62,
      "hit": false,
      "t": 13043.460000000001,
      "d": 1956.5190000000002,
      "v": 100
    },
    {
      "midi": 50,
      "hit": false,
      "t": 13043.460000000001,
      "d": 978.2595000000001,
      "v": 100
    },
    {
      "midi": 66,
      "hit": false,
      "t": 13043.460000000005,
      "d": 326.08649999999943,
      "v": 100
    },
    {
      "midi": 69,
      "hit": false,
      "t": 13369.546500000004,
      "d": 1630.4325000000008,
      "v": 100
    },
    {
      "midi": 50,
      "hit": false,
      "t": 14021.719500000001,
      "d": 978.2595000000001,
      "v": 100
    },
    {
      "midi": 45,
      "hit": false,
      "t": 14999.979000000001,
      "d": 652.1730000000007,
      "v": 100
    },
    {
      "midi": 74,
      "hit": false,
      "t": 14999.979000000005,
      "d": 326.08649999999943,
      "v": 100
    },
    {
      "midi": 73,
      "hit": false,
      "t": 15326.065500000004,
      "d": 326.08649999999943,
      "v": 100
    },
    {
      "midi": 62,
      "hit": false,
      "t": 15652.152000000002,
      "d": 1956.5190000000002,
      "v": 100
    },
    {
      "midi": 47,
      "hit": false,
      "t": 15652.152000000002,
      "d": 978.2595000000001,
      "v": 100
    },
    {
      "midi": 71,
      "hit": false,
      "t": 15652.152000000004,
      "d": 326.08649999999943,
      "v": 100
    },
    {
      "midi": 69,
      "hit": false,
      "t": 15978.238500000003,
      "d": 652.1729999999989,
      "v": 100
    },
    {
      "midi": 69,
      "hit": false,
      "t": 16630.411500000002,
      "d": 978.2595000000001,
      "v": 100
    },
    {
      "midi": 47,
      "hit": false,
      "t": 16630.411500000002,
      "d": 978.2595000000001,
      "v": 100
    },
    {
      "midi": 74,
      "hit": false,
      "t": 17608.671000000002,
      "d": 326.08650000000125,
      "v": 100
    },
    {
      "midi": 45,
      "hit": false,
      "t": 17608.671000000002,
      "d": 652.1729999999989,
      "v": 100
    },
    {
      "midi": 73,
      "hit": false,
      "t": 17934.757500000003,
      "d": 326.08650000000125,
      "v": 100
    },
    {
      "midi": 62,
      "hit": false,
      "t": 18260.844,
      "d": 1956.5190000000002,
      "v": 100
    },
    {
      "midi": 43,
      "hit": false,
      "t": 18260.844,
      "d": 978.2595000000001,
      "v": 100
    },
    {
      "midi": 71,
      "hit": false,
      "t": 18260.844000000005,
      "d": 326.08650000000125,
      "v": 100
    },
    {
      "midi": 69,
      "hit": false,
      "t": 18586.930500000006,
      "d": 652.1729999999989,
      "v": 100
    },
    {
      "midi": 50,
      "hit": false,
      "t": 19239.1035,
      "d": 1630.432499999999,
      "v": 100
    },
    {
      "midi": 69,
      "hit": false,
      "t": 19239.103500000005,
      "d": 978.2595000000001,
      "v": 100
    },
    {
      "midi": 64,
      "hit": false,
      "t": 20217.363000000005,
      "d": 326.08650000000125,
      "v": 100
    },
    {
      "midi": 66,
      "hit": false,
      "t": 20543.449500000006,
      "d": 326.08650000000125,
      "v": 100
    },
    {
      "midi": 62,
      "hit": false,
      "t": 20869.536,
      "d": 978.2595000000001,
      "v": 100
    },
    {
      "midi": 47,
      "hit": false,
      "t": 20869.536,
      "d": 978.2595000000001,
      "v": 100
    },
    {
      "midi": 67,
      "hit": false,
      "t": 20869.536000000007,
      "d": 326.08650000000125,
      "v": 100
    },
    {
      "midi": 66,
      "hit": false,
      "t": 21195.62250000001,
      "d": 652.1729999999989,
      "v": 100
    },
    {
      "midi": 45,
      "hit": false,
      "t": 21847.7955,
      "d": 1630.432499999999,
      "v": 100
    },
    {
      "midi": 61,
      "hit": false,
      "t": 21847.795500000007,
      "d": 652.1729999999989,
      "v": 100
    },
    {
      "midi": 66,
      "hit": false,
      "t": 21847.795500000007,
      "d": 652.1729999999989,
      "v": 100
    },
    {
      "midi": 64,
      "hit": false,
      "t": 22499.968500000006,
      "d": 326.08650000000125,
      "v": 100
    },
    {
      "midi": 62,
      "hit": false,
      "t": 22826.055000000008,
      "d": 3260.8650000000016,
      "v": 100
    },
    {
      "midi": 47,
      "hit": false,
      "t": 23478.228,
      "d": 978.2595000000001,
      "v": 100
    },
    {
      "midi": 47,
      "hit": false,
      "t": 24456.4875,
      "d": 978.2595000000001,
      "v": 100
    },
    {
      "midi": 42,
      "hit": false,
      "t": 25434.747,
      "d": 652.1729999999989,
      "v": 100
    },
    {
      "midi": 47,
      "hit": false,
      "t": 26086.92,
      "d": 978.2595000000001,
      "v": 100
    },
    {
      "midi": 73,
      "hit": false,
      "t": 26739.093000000008,
      "d": 326.08650000000125,
      "v": 100
    },
    {
      "midi": 45,
      "hit": false,
      "t": 27065.1795,
      "d": 326.08650000000125,
      "v": 100
    },
    {
      "midi": 71,
      "hit": false,
      "t": 27065.17950000001,
      "d": 326.08650000000125,
      "v": 100
    },
    {
      "midi": 43,
      "hit": false,
      "t": 27391.266,
      "d": 1304.3460000000014,
      "v": 100
    },
    {
      "midi": 69,
      "hit": false,
      "t": 27391.26600000001,
      "d": 652.1729999999989,
      "v": 100
    },
    {
      "midi": 67,
      "hit": false,
      "t": 28043.43900000001,
      "d": 652.1729999999989,
      "v": 100
    },
    {
      "midi": 50,
      "hit": false,
      "t": 28695.612,
      "d": 978.2595000000001,
      "v": 100
    },
    {
      "midi": 66,
      "hit": false,
      "t": 28695.61200000001,
      "d": 1956.5190000000002,
      "v": 100
    },
    {
      "midi": 69,
      "hit": false,
      "t": 28695.61200000001,
      "d": 1956.5190000000002,
      "v": 100
    },
    {
      "midi": 50,
      "hit": false,
      "t": 29673.8715,
      "d": 1630.432499999999,
      "v": 100
    },
    {
      "midi": 67,
      "hit": false,
      "t": 30652.13100000001,
      "d": 326.08650000000125,
      "v": 100
    },
    {
      "midi": 74,
      "hit": false,
      "t": 30978.21750000001,
      "d": 326.08650000000125,
      "v": 100
    },
    {
      "midi": 50,
      "hit": false,
      "t": 31304.304,
      "d": 978.2595000000001,
      "v": 100
    },
    {
      "midi": 62,
      "hit": false,
      "t": 31304.30400000001,
      "d": 1956.5190000000002,
      "v": 100
    },
    {
      "midi": 66,
      "hit": false,
      "t": 31304.30400000001,
      "d": 1956.5190000000002,
      "v": 100
    },
    {
      "midi": 45,
      "hit": false,
      "t": 32282.5635,
      "d": 326.08650000000125,
      "v": 100
    },
    {
      "midi": 50,
      "hit": false,
      "t": 32608.65,
      "d": 652.1730000000025,
      "v": 100
    },
    {
      "midi": 45,
      "hit": false,
      "t": 33260.823000000004,
      "d": 652.1730000000025,
      "v": 100
    },
    {
      "midi": 74,
      "hit": false,
      "t": 33260.82300000001,
      "d": 326.0864999999976,
      "v": 100
    },
    {
      "midi": 73,
      "hit": false,
      "t": 33586.90950000001,
      "d": 326.0864999999976,
      "v": 100
    },
    {
      "midi": 62,
      "hit": false,
      "t": 33912.996,
      "d": 1956.5190000000002,
      "v": 100
    },
    {
      "midi": 71,
      "hit": false,
      "t": 33912.99600000001,
      "d": 326.0864999999976,
      "v": 100
    },
    {
      "midi": 47,
      "hit": false,
      "t": 33912.99600000001,
      "d": 978.2595000000001,
      "v": 100
    },
    {
      "midi": 69,
      "hit": false,
      "t": 34239.082500000004,
      "d": 652.1730000000025,
      "v": 100
    },
    {
      "midi": 69,
      "hit": false,
      "t": 34891.25550000001,
      "d": 978.2595000000001,
      "v": 100
    },
    {
      "midi": 47,
      "hit": false,
      "t": 34891.25550000001,
      "d": 978.2595000000001,
      "v": 100
    },
    {
      "midi": 74,
      "hit": false,
      "t": 35869.51500000001,
      "d": 326.0864999999976,
      "v": 100
    },
    {
      "midi": 45,
      "hit": false,
      "t": 35869.51500000001,
      "d": 652.1730000000025,
      "v": 100
    },
    {
      "midi": 73,
      "hit": false,
      "t": 36195.601500000004,
      "d": 326.0864999999976,
      "v": 100
    },
    {
      "midi": 71,
      "hit": false,
      "t": 36521.688,
      "d": 326.0864999999976,
      "v": 100
    },
    {
      "midi": 62,
      "hit": false,
      "t": 36521.688,
      "d": 1956.5190000000002,
      "v": 100
    },
    {
      "midi": 43,
      "hit": false,
      "t": 36521.68800000001,
      "d": 978.2595000000001,
      "v": 100
    },
    {
      "midi": 69,
      "hit": false,
      "t": 36847.7745,
      "d": 652.1730000000025,
      "v": 100
    },
    {
      "midi": 71,
      "hit": false,
      "t": 37499.9475,
      "d": 978.2595000000001,
      "v": 100
    },
    {
      "midi": 43,
      "hit": false,
      "t": 37499.94750000001,
      "d": 1630.4325000000026,
      "v": 100
    },
    {
      "midi": 62,
      "hit": false,
      "t": 38478.207,
      "d": 652.1730000000025,
      "v": 100
    },
    {
      "midi": 71,
      "hit": false,
      "t": 39130.380000000005,
      "d": 652.1730000000025,
      "v": 100
    },
    {
      "midi": 62,
      "hit": false,
      "t": 39130.380000000005,
      "d": 1956.5190000000002,
      "v": 100
    },
    {
      "midi": 43,
      "hit": false,
      "t": 39130.38000000001,
      "d": 978.2595000000001,
      "v": 100
    },
    {
      "midi": 69,
      "hit": false,
      "t": 39782.55300000001,
      "d": 326.0864999999976,
      "v": 100
    },
    {
      "midi": 69,
      "hit": false,
      "t": 40108.639500000005,
      "d": 978.2595000000001,
      "v": 100
    },
    {
      "midi": 43,
      "hit": false,
      "t": 40108.63950000001,
      "d": 978.2595000000001,
      "v": 100
    },
    {
      "midi": 62,
      "hit": false,
      "t": 41086.899000000005,
      "d": 652.1730000000025,
      "v": 100
    },
    {
      "midi": 43,
      "hit": false,
      "t": 41086.89900000001,
      "d": 652.1730000000025,
      "v": 100
    },
    {
      "midi": 66,
      "hit": false,
      "t": 41739.07200000001,
      "d": 326.0864999999976,
      "v": 100
    },
    {
      "midi": 62,
      "hit": false,
      "t": 41739.07200000001,
      "d": 1956.5190000000002,
      "v": 100
    },
    {
      "midi": 50,
      "hit": false,
      "t": 41739.072000000015,
      "d": 978.2595000000001,
      "v": 100
    },
    {
      "midi": 69,
      "hit": false,
      "t": 42065.158500000005,
      "d": 1630.4325000000026,
      "v": 100
    },
    {
      "midi": 50,
      "hit": false,
      "t": 42717.331500000015,
      "d": 978.2595000000001,
      "v": 100
    },
    {
      "midi": 74,
      "hit": false,
      "t": 43695.59100000001,
      "d": 326.0864999999976,
      "v": 100
    },
    {
      "midi": 45,
      "hit": false,
      "t": 43695.591000000015,
      "d": 652.1730000000025,
      "v": 100
    },
    {
      "midi": 73,
      "hit": false,
      "t": 44021.677500000005,
      "d": 326.0864999999976,
      "v": 100
    },
    {
      "midi": 71,
      "hit": false,
      "t": 44347.764,
      "d": 326.0864999999976,
      "v": 100
    },
    {
      "midi": 62,
      "hit": false,
      "t": 44347.76400000001,
      "d": 1956.5190000000002,
      "v": 100
    },
    {
      "midi": 47,
      "hit": false,
      "t": 44347.76400000002,
      "d": 978.2595000000001,
      "v": 100
    },
    {
      "midi": 69,
      "hit": false,
      "t": 44673.8505,
      "d": 652.1730000000025,
      "v": 100
    },
    {
      "midi": 69,
      "hit": false,
      "t": 45326.0235,
      "d": 978.2595000000001,
      "v": 100
    },
    {
      "midi": 47,
      "hit": false,
      "t": 45326.02350000002,
      "d": 978.2595000000001,
      "v": 100
    },
    {
      "midi": 74,
      "hit": false,
      "t": 46304.283,
      "d": 326.0864999999976,
      "v": 100
    },
    {
      "midi": 45,
      "hit": false,
      "t": 46304.28300000002,
      "d": 652.1730000000025,
      "v": 100
    },
    {
      "midi": 73,
      "hit": false,
      "t": 46630.3695,
      "d": 326.0864999999976,
      "v": 100
    },
    {
      "midi": 71,
      "hit": false,
      "t": 46956.456,
      "d": 326.0864999999976,
      "v": 100
    },
    {
      "midi": 62,
      "hit": false,
      "t": 46956.45600000001,
      "d": 1956.5190000000002,
      "v": 100
    },
    {
      "midi": 43,
      "hit": false,
      "t": 46956.45600000002,
      "d": 978.2595000000001,
      "v": 100
    },
    {
      "midi": 69,
      "hit": false,
      "t": 47282.542499999996,
      "d": 652.1730000000025,
      "v": 100
    },
    {
      "midi": 69,
      "hit": false,
      "t": 47934.7155,
      "d": 978.2595000000001,
      "v": 100
    },
    {
      "midi": 50,
      "hit": false,
      "t": 47934.71550000002,
      "d": 1630.4325000000026,
      "v": 100
    },
    {
      "midi": 66,
      "hit": false,
      "t": 48912.975,
      "d": 652.1730000000025,
      "v": 100
    },
    {
      "midi": 62,
      "hit": false,
      "t": 49565.148,
      "d": 652.1730000000025,
      "v": 100
    },
    {
      "midi": 67,
      "hit": false,
      "t": 49565.148,
      "d": 652.1730000000025,
      "v": 100
    },
    {
      "midi": 47,
      "hit": false,
      "t": 49565.14800000002,
      "d": 978.2595000000001,
      "v": 100
    },
    {
      "midi": 66,
      "hit": false,
      "t": 50217.321,
      "d": 326.0864999999976,
      "v": 100
    },
    {
      "midi": 61,
      "hit": false,
      "t": 50543.4075,
      "d": 652.1730000000025,
      "v": 100
    },
    {
      "midi": 66,
      "hit": false,
      "t": 50543.4075,
      "d": 652.1730000000025,
      "v": 100
    },
    {
      "midi": 45,
      "hit": false,
      "t": 50543.40750000002,
      "d": 1630.4325000000026,
      "v": 100
    },
    {
      "midi": 64,
      "hit": false,
      "t": 51195.580500000004,
      "d": 326.0864999999976,
      "v": 100
    },
    {
      "midi": 62,
      "hit": false,
      "t": 51521.667,
      "d": 3260.864999999998,
      "v": 100
    },
    {
      "midi": 38,
      "hit": false,
      "t": 52173.840000000026,
      "d": 978.2595000000001,
      "v": 100
    },
    {
      "midi": 38,
      "hit": false,
      "t": 53152.099500000026,
      "d": 978.2595000000001,
      "v": 100
    },
    {
      "midi": 50,
      "hit": false,
      "t": 54130.359000000026,
      "d": 652.1730000000025,
      "v": 100
    },
    {
      "midi": 43,
      "hit": false,
      "t": 54782.53200000003,
      "d": 1304.3459999999977,
      "v": 100
    },
    {
      "midi": 69,
      "hit": false,
      "t": 55760.7915,
      "d": 326.0864999999976,
      "v": 100
    },
    {
      "midi": 69,
      "hit": false,
      "t": 56086.878,
      "d": 326.0864999999976,
      "v": 100
    },
    {
      "midi": 62,
      "hit": false,
      "t": 56086.87800000001,
      "d": 1304.3459999999977,
      "v": 100
    },
    {
      "midi": 43,
      "hit": false,
      "t": 56086.878000000026,
      "d": 1304.3459999999977,
      "v": 100
    },
    {
      "midi": 69,
      "hit": false,
      "t": 56412.964499999995,
      "d": 326.0864999999976,
      "v": 100
    },
    {
      "midi": 69,
      "hit": false,
      "t": 56739.05099999999,
      "d": 652.1730000000025,
      "v": 100
    },
    {
      "midi": 71,
      "hit": false,
      "t": 57391.223999999995,
      "d": 326.0864999999976,
      "v": 100
    },
    {
      "midi": 64,
      "hit": false,
      "t": 57391.22400000001,
      "d": 1304.3459999999977,
      "v": 100
    },
    {
      "midi": 45,
      "hit": false,
      "t": 57391.224000000024,
      "d": 1304.3459999999977,
      "v": 100
    },
    {
      "midi": 69,
      "hit": false,
      "t": 57717.31049999999,
      "d": 326.0864999999976,
      "v": 100
    },
    {
      "midi": 69,
      "hit": false,
      "t": 58043.39699999999,
      "d": 652.1730000000025,
      "v": 100
    },
    {
      "midi": 66,
      "hit": false,
      "t": 58695.56999999999,
      "d": 652.1730000000025,
      "v": 100
    },
    {
      "midi": 69,
      "hit": false,
      "t": 58695.56999999999,
      "d": 652.1730000000025,
      "v": 100
    },
    {
      "midi": 50,
      "hit": false,
      "t": 58695.57000000002,
      "d": 1304.3459999999977,
      "v": 100
    },
    {
      "midi": 66,
      "hit": false,
      "t": 59347.742999999995,
      "d": 652.1730000000025,
      "v": 100
    },
    {
      "midi": 43,
      "hit": false,
      "t": 59999.91600000002,
      "d": 1304.3459999999977,
      "v": 100
    },
    {
      "midi": 69,
      "hit": false,
      "t": 60978.1755,
      "d": 326.0864999999976,
      "v": 100
    },
    {
      "midi": 69,
      "hit": false,
      "t": 61304.261999999995,
      "d": 326.0864999999976,
      "v": 100
    },
    {
      "midi": 62,
      "hit": false,
      "t": 61304.26200000001,
      "d": 1304.3459999999977,
      "v": 100
    },
    {
      "midi": 43,
      "hit": false,
      "t": 61304.26200000002,
      "d": 1304.3459999999977,
      "v": 100
    },
    {
      "midi": 69,
      "hit": false,
      "t": 61630.34849999999,
      "d": 326.0864999999976,
      "v": 100
    },
    {
      "midi": 69,
      "hit": false,
      "t": 61956.43499999999,
      "d": 652.1730000000025,
      "v": 100
    },
    {
      "midi": 71,
      "hit": false,
      "t": 62608.60799999999,
      "d": 326.0864999999976,
      "v": 100
    },
    {
      "midi": 64,
      "hit": false,
      "t": 62608.60800000001,
      "d": 1304.3459999999977,
      "v": 100
    },
    {
      "midi": 45,
      "hit": false,
      "t": 62608.608000000015,
      "d": 1304.3459999999977,
      "v": 100
    },
    {
      "midi": 69,
      "hit": false,
      "t": 62934.69449999999,
      "d": 326.0864999999976,
      "v": 100
    },
    {
      "midi": 69,
      "hit": false,
      "t": 63260.78099999999,
      "d": 652.1730000000025,
      "v": 100
    },
    {
      "midi": 66,
      "hit": false,
      "t": 63912.95399999999,
      "d": 652.1730000000025,
      "v": 100
    },
    {
      "midi": 69,
      "hit": false,
      "t": 63912.95399999999,
      "d": 652.1730000000025,
      "v": 100
    },
    {
      "midi": 50,
      "hit": false,
      "t": 63912.95400000001,
      "d": 1304.3459999999977,
      "v": 100
    },
    {
      "midi": 64,
      "hit": false,
      "t": 64565.12699999999,
      "d": 326.0864999999976,
      "v": 100
    },
    {
      "midi": 66,
      "hit": false,
      "t": 64891.21349999999,
      "d": 326.0864999999976,
      "v": 100
    },
    {
      "midi": 43,
      "hit": false,
      "t": 65217.30000000001,
      "d": 1304.3459999999977,
      "v": 100
    },
    {
      "midi": 69,
      "hit": false,
      "t": 66195.55949999999,
      "d": 326.0865000000049,
      "v": 100
    },
    {
      "midi": 69,
      "hit": false,
      "t": 66521.646,
      "d": 326.0865000000049,
      "v": 100
    },
    {
      "midi": 62,
      "hit": false,
      "t": 66521.64600000001,
      "d": 1304.346000000005,
      "v": 100
    },
    {
      "midi": 43,
      "hit": false,
      "t": 66521.64600000001,
      "d": 1304.346000000005,
      "v": 100
    },
    {
      "midi": 69,
      "hit": false,
      "t": 66847.7325,
      "d": 326.0865000000049,
      "v": 100
    },
    {
      "midi": 69,
      "hit": false,
      "t": 67173.819,
      "d": 326.0865000000049,
      "v": 100
    },
    {
      "midi": 69,
      "hit": false,
      "t": 67499.90550000001,
      "d": 326.0865000000049,
      "v": 100
    },
    {
      "midi": 71,
      "hit": false,
      "t": 67825.99200000001,
      "d": 652.1729999999952,
      "v": 100
    },
    {
      "midi": 64,
      "hit": false,
      "t": 67825.99200000001,
      "d": 1304.346000000005,
      "v": 100
    },
    {
      "midi": 45,
      "hit": false,
      "t": 67825.99200000001,
      "d": 1304.346000000005,
      "v": 100
    },
    {
      "midi": 69,
      "hit": false,
      "t": 68478.16500000001,
      "d": 652.1729999999952,
      "v": 100
    },
    {
      "midi": 66,
      "hit": false,
      "t": 69130.338,
      "d": 652.1729999999952,
      "v": 100
    },
    {
      "midi": 69,
      "hit": false,
      "t": 69130.338,
      "d": 652.1729999999952,
      "v": 100
    },
    {
      "midi": 50,
      "hit": false,
      "t": 69130.33800000002,
      "d": 1304.346000000005,
      "v": 100
    },
    {
      "midi": 66,
      "hit": false,
      "t": 69782.511,
      "d": 652.1729999999952,
      "v": 100
    },
    {
      "midi": 62,
      "hit": false,
      "t": 70434.684,
      "d": 652.1729999999952,
      "v": 100
    },
    {
      "midi": 67,
      "hit": false,
      "t": 70434.684,
      "d": 652.1729999999952,
      "v": 100
    },
    {
      "midi": 47,
      "hit": false,
      "t": 70434.68400000002,
      "d": 978.2595000000001,
      "v": 100
    },
    {
      "midi": 66,
      "hit": false,
      "t": 71086.85699999999,
      "d": 326.0865000000049,
      "v": 100
    },
    {
      "midi": 61,
      "hit": false,
      "t": 71412.9435,
      "d": 652.1729999999952,
      "v": 100
    },
    {
      "midi": 66,
      "hit": false,
      "t": 71412.9435,
      "d": 652.1729999999952,
      "v": 100
    },
    {
      "midi": 45,
      "hit": false,
      "t": 71412.94350000002,
      "d": 1630.4324999999953,
      "v": 100
    },
    {
      "midi": 64,
      "hit": false,
      "t": 72065.11649999999,
      "d": 326.0865000000049,
      "v": 100
    },
    {
      "midi": 62,
      "hit": false,
      "t": 72391.203,
      "d": 2608.6919999999955,
      "v": 100
    },
    {
      "midi": 50,
      "hit": false,
      "t": 73043.37600000002,
      "d": 978.2595000000001,
      "v": 100
    },
    {
      "midi": 50,
      "hit": false,
      "t": 74021.63550000002,
      "d": 1630.4324999999953,
      "v": 100
    },
    {
      "midi": 64,
      "hit": false,
      "t": 74999.89499999999,
      "d": 326.0865000000049,
      "v": 100
    },
    {
      "midi": 66,
      "hit": false,
      "t": 75325.9815,
      "d": 326.0865000000049,
      "v": 100
    },
    {
      "midi": 62,
      "hit": false,
      "t": 75652.068,
      "d": 652.1729999999952,
      "v": 100
    },
    {
      "midi": 67,
      "hit": false,
      "t": 75652.068,
      "d": 652.1729999999952,
      "v": 100
    },
    {
      "midi": 47,
      "hit": false,
      "t": 75652.06800000001,
      "d": 978.2595000000001,
      "v": 100
    },
    {
      "midi": 66,
      "hit": false,
      "t": 76304.241,
      "d": 326.0865000000049,
      "v": 100
    },
    {
      "midi": 61,
      "hit": false,
      "t": 76630.3275,
      "d": 652.1729999999952,
      "v": 100
    },
    {
      "midi": 66,
      "hit": false,
      "t": 76630.3275,
      "d": 652.1729999999952,
      "v": 100
    },
    {
      "midi": 45,
      "hit": false,
      "t": 76630.32750000001,
      "d": 1630.4324999999953,
      "v": 100
    },
    {
      "midi": 64,
      "hit": false,
      "t": 77282.5005,
      "d": 326.0865000000049,
      "v": 100
    },
    {
      "midi": 62,
      "hit": false,
      "t": 77608.587,
      "d": 2608.6919999999955,
      "v": 100
    },
    {
      "midi": 50,
      "hit": false,
      "t": 78260.76000000001,
      "d": 978.2595000000001,
      "v": 100
    },
    {
      "midi": 50,
      "hit": false,
      "t": 79239.01950000001,
      "d": 1630.4324999999953,
      "v": 100
    },
    {
      "midi": 64,
      "hit": false,
      "t": 80217.279,
      "d": 326.0865000000049,
      "v": 100
    },
    {
      "midi": 66,
      "hit": false,
      "t": 80543.3655,
      "d": 326.0865000000049,
      "v": 100
    },
    {
      "midi": 62,
      "hit": false,
      "t": 80869.452,
      "d": 652.1729999999952,
      "v": 100
    },
    {
      "midi": 67,
      "hit": false,
      "t": 80869.452,
      "d": 652.1729999999952,
      "v": 100
    },
    {
      "midi": 47,
      "hit": false,
      "t": 80869.452,
      "d": 978.2595000000001,
      "v": 100
    },
    {
      "midi": 66,
      "hit": false,
      "t": 81521.625,
      "d": 326.0865000000049,
      "v": 100
    },
    {
      "midi": 61,
      "hit": false,
      "t": 81847.7115,
      "d": 978.2595000000001,
      "v": 100
    },
    {
      "midi": 66,
      "hit": false,
      "t": 81847.7115,
      "d": 978.2595000000001,
      "v": 100
    },
    {
      "midi": 45,
      "hit": false,
      "t": 81847.7115,
      "d": 1630.4324999999953,
      "v": 100
    },
    {
      "midi": 64,
      "hit": false,
      "t": 82825.971,
      "d": 652.1729999999952,
      "v": 100
    },
    {
      "midi": 62,
      "hit": false,
      "t": 83478.144,
      "d": 2608.6919999999955,
      "v": 100
    },
    {
      "midi": 38,
      "hit": false,
      "t": 83478.144,
      "d": 2608.6919999999955,
      "v": 100
    }
  ]
}