{
  "jsonPath": "Rock/Soft Rock/Sting/this-cowboy-song.json",
  "path": "Rock\\Soft Rock\\Sting\\This Cowboy Song.mid",
  "name": "This Cowboy Song",
  "difficulty": "Advanced",
  "bpm": 98.00014373354415,
  "notes": [
    {
      "midi": 69,
      "hit": false,
      "t": 22643.461687500003,
      "d": 414.540208333332,
      "v": 104
    },
    {
      "midi": 59,
      "hit": false,
      "t": 22653.028000000002,
      "d": 376.27495833333523,
      "v": 93
    },
    {
      "midi": 62,
      "hit": false,
      "t": 22656.216770833336,
      "d": 382.65250000000015,
      "v": 93
    },
    {
      "midi": 67,
      "hit": false,
      "t": 23096.267145833335,
      "d": 86.09681249999994,
      "v": 91
    },
    {
      "midi": 59,
      "hit": false,
      "t": 23105.833458333334,
      "d": 47.83156249999956,
      "v": 91
    },
    {
      "midi": 62,
      "hit": false,
      "t": 23109.02222916667,
      "d": 47.83156249999956,
      "v": 86
    },
    {
      "midi": 62,
      "hit": false,
      "t": 25111.5703125,
      "d": 124.36206250000032,
      "v": 91
    },
    {
      "midi": 59,
      "hit": false,
      "t": 25111.5703125,
      "d": 366.7086458333324,
      "v": 83
    },
    {
      "midi": 69,
      "hit": false,
      "t": 25114.759083333334,
      "d": 385.8412708333308,
      "v": 107
    },
    {
      "midi": 59,
      "hit": false,
      "t": 25554.809458333333,
      "d": 51.02033333333384,
      "v": 89
    },
    {
      "midi": 62,
      "hit": false,
      "t": 25557.998229166667,
      "d": 51.02033333333384,
      "v": 95
    },
    {
      "midi": 65,
      "hit": false,
      "t": 25561.187,
      "d": 54.209104166664474,
      "v": 99
    },
    {
      "midi": 62,
      "hit": false,
      "t": 27570.112624999998,
      "d": 379.46372916666587,
      "v": 95
    },
    {
      "midi": 69,
      "hit": false,
      "t": 27573.301395833332,
      "d": 376.2749583333316,
      "v": 110
    },
    {
      "midi": 60,
      "hit": false,
      "t": 27579.678937499997,
      "d": 338.00970833333486,
      "v": 88
    },
    {
      "midi": 60,
      "hit": false,
      "t": 28006.974229166663,
      "d": 47.83156249999956,
      "v": 86
    },
    {
      "midi": 67,
      "hit": false,
      "t": 28006.974229166663,
      "d": 76.53050000000076,
      "v": 95
    },
    {
      "midi": 62,
      "hit": false,
      "t": 28016.54054166666,
      "d": 41.45402083333465,
      "v": 86
    },
    {
      "midi": 62,
      "hit": false,
      "t": 30028.654937499996,
      "d": 369.8974166666667,
      "v": 93
    },
    {
      "midi": 69,
      "hit": false,
      "t": 30031.84370833333,
      "d": 376.2749583333316,
      "v": 107
    },
    {
      "midi": 60,
      "hit": false,
      "t": 30038.221249999995,
      "d": 338.00970833333486,
      "v": 86
    },
    {
      "midi": 60,
      "hit": false,
      "t": 30465.51654166666,
      "d": 47.83156249999956,
      "v": 74
    },
    {
      "midi": 62,
      "hit": false,
      "t": 30465.51654166666,
      "d": 51.02033333333384,
      "v": 80
    },
    {
      "midi": 65,
      "hit": false,
      "t": 30468.705312499995,
      "d": 57.39787499999875,
      "v": 86
    },
    {
      "midi": 69,
      "hit": false,
      "t": 32477.630937499995,
      "d": 360.33110416666386,
      "v": 104
    },
    {
      "midi": 59,
      "hit": false,
      "t": 32487.197249999994,
      "d": 338.00970833333486,
      "v": 82
    },
    {
      "midi": 62,
      "hit": false,
      "t": 32490.386020833328,
      "d": 347.5760208333304,
      "v": 86
    },
    {
      "midi": 67,
      "hit": false,
      "t": 32904.92622916666,
      "d": 70.15295833332493,
      "v": 86
    },
    {
      "midi": 59,
      "hit": false,
      "t": 32914.49254166666,
      "d": 47.831562499995925,
      "v": 91
    },
    {
      "midi": 62,
      "hit": false,
      "t": 32917.68131249999,
      "d": 47.831562499995925,
      "v": 80
    },
    {
      "midi": 59,
      "hit": false,
      "t": 34917.04062499999,
      "d": 369.8974166666667,
      "v": 95
    },
    {
      "midi": 62,
      "hit": false,
      "t": 34920.22939583332,
      "d": 376.27495833333523,
      "v": 95
    },
    {
      "midi": 69,
      "hit": false,
      "t": 34926.606937499986,
      "d": 379.46372916666587,
      "v": 110
    },
    {
      "midi": 59,
      "hit": false,
      "t": 35363.468541666654,
      "d": 57.39787499999511,
      "v": 91
    },
    {
      "midi": 62,
      "hit": false,
      "t": 35366.657312499985,
      "d": 57.39787499999511,
      "v": 89
    },
    {
      "midi": 65,
      "hit": false,
      "t": 35366.657312499985,
      "d": 63.77541666666366,
      "v": 84
    },
    {
      "midi": 62,
      "hit": false,
      "t": 37359.63908333331,
      "d": 366.7086458333288,
      "v": 97
    },
    {
      "midi": 69,
      "hit": false,
      "t": 37362.827854166644,
      "d": 376.27495833332796,
      "v": 107
    },
    {
      "midi": 60,
      "hit": false,
      "t": 37369.20539583331,
      "d": 347.5760208333304,
      "v": 91
    },
    {
      "midi": 60,
      "hit": false,
      "t": 37793.31191666664,
      "d": 57.39787499999511,
      "v": 84
    },
    {
      "midi": 62,
      "hit": false,
      "t": 37796.50068749997,
      "d": 57.39787499999511,
      "v": 80
    },
    {
      "midi": 67,
      "hit": false,
      "t": 37799.6894583333,
      "d": 73.34172916666284,
      "v": 88
    },
    {
      "midi": 69,
      "hit": false,
      "t": 39808.615083333294,
      "d": 404.9738958333255,
      "v": 110
    },
    {
      "midi": 60,
      "hit": false,
      "t": 39818.18139583329,
      "d": 366.7086458333288,
      "v": 91
    },
    {
      "midi": 62,
      "hit": false,
      "t": 39821.370166666624,
      "d": 373.0861874999973,
      "v": 95
    },
    {
      "midi": 62,
      "hit": false,
      "t": 40261.42054166662,
      "d": 60.58664583332575,
      "v": 91
    },
    {
      "midi": 60,
      "hit": false,
      "t": 40270.98685416662,
      "d": 47.831562499995925,
      "v": 89
    },
    {
      "midi": 65,
      "hit": false,
      "t": 40274.17562499995,
      "d": 57.39787499999511,
      "v": 88
    },
    {
      "midi": 69,
      "hit": false,
      "t": 42235.269687499946,
      "d": 414.5402083333247,
      "v": 104
    },
    {
      "midi": 59,
      "hit": false,
      "t": 42244.835999999945,
      "d": 376.27495833332796,
      "v": 93
    },
    {
      "midi": 62,
      "hit": false,
      "t": 42248.024770833275,
      "d": 382.6524999999965,
      "v": 93
    },
    {
      "midi": 67,
      "hit": false,
      "t": 42688.07514583327,
      "d": 86.09681249999267,
      "v": 91
    },
    {
      "midi": 59,
      "hit": false,
      "t": 42697.641458333266,
      "d": 47.831562499995925,
      "v": 91
    },
    {
      "midi": 62,
      "hit": false,
      "t": 42700.8302291666,
      "d": 47.831562499995925,
      "v": 86
    },
    {
      "midi": 59,
      "hit": false,
      "t": 44703.378312499925,
      "d": 366.7086458333288,
      "v": 83
    },
    {
      "midi": 62,
      "hit": false,
      "t": 44703.378312499925,
      "d": 382.6524999999965,
      "v": 91
    },
    {
      "midi": 69,
      "hit": false,
      "t": 44706.567083333255,
      "d": 385.8412708333344,
      "v": 107
    },
    {
      "midi": 59,
      "hit": false,
      "t": 45146.617458333254,
      "d": 51.02033333332656,
      "v": 89
    },
    {
      "midi": 62,
      "hit": false,
      "t": 45149.806229166585,
      "d": 51.02033333332656,
      "v": 95
    },
    {
      "midi": 65,
      "hit": false,
      "t": 45152.994999999915,
      "d": 54.209104166664474,
      "v": 99
    },
    {
      "midi": 62,
      "hit": false,
      "t": 47161.92062499991,
      "d": 379.46372916666587,
      "v": 95
    },
    {
      "midi": 69,
      "hit": false,
      "t": 47165.10939583324,
      "d": 376.27495833333523,
      "v": 110
    },
    {
      "midi": 60,
      "hit": false,
      "t": 47171.48693749991,
      "d": 338.0097083333312,
      "v": 88
    },
    {
      "midi": 60,
      "hit": false,
      "t": 47598.78222916658,
      "d": 47.831562499995925,
      "v": 86
    },
    {
      "midi": 67,
      "hit": false,
      "t": 47598.78222916658,
      "d": 76.53049999999348,
      "v": 95
    },
    {
      "midi": 62,
      "hit": false,
      "t": 47608.34854166658,
      "d": 41.45402083332738,
      "v": 86
    },
    {
      "midi": 62,
      "hit": false,
      "t": 49620.462937499906,
      "d": 369.8974166666667,
      "v": 93
    },
    {
      "midi": 69,
      "hit": false,
      "t": 49623.65170833324,
      "d": 376.27495833333523,
      "v": 107
    },
    {
      "midi": 60,
      "hit": false,
      "t": 49630.029249999905,
      "d": 338.0097083333312,
      "v": 86
    },
    {
      "midi": 60,
      "hit": false,
      "t": 50057.324541666574,
      "d": 47.831562499995925,
      "v": 74
    },
    {
      "midi": 62,
      "hit": false,
      "t": 50057.324541666574,
      "d": 51.02033333332656,
      "v": 80
    },
    {
      "midi": 65,
      "hit": false,
      "t": 50060.513312499905,
      "d": 57.39787499999511,
      "v": 86
    },
    {
      "midi": 69,
      "hit": false,
      "t": 52069.4389374999,
      "d": 360.3311041666602,
      "v": 104
    },
    {
      "midi": 59,
      "hit": false,
      "t": 52079.0052499999,
      "d": 338.0097083333312,
      "v": 82
    },
    {
      "midi": 62,
      "hit": false,
      "t": 52082.19402083323,
      "d": 347.5760208333304,
      "v": 86
    },
    {
      "midi": 67,
      "hit": false,
      "t": 52496.73422916656,
      "d": 70.15295833332493,
      "v": 86
    },
    {
      "midi": 59,
      "hit": false,
      "t": 52506.30054166656,
      "d": 47.831562499995925,
      "v": 91
    },
    {
      "midi": 62,
      "hit": false,
      "t": 52509.48931249989,
      "d": 47.831562499995925,
      "v": 80
    },
    {
      "midi": 59,
      "hit": false,
      "t": 54508.84862499989,
      "d": 369.8974166666667,
      "v": 95
    },
    {
      "midi": 62,
      "hit": false,
      "t": 54512.03739583322,
      "d": 376.27495833333523,
      "v": 95
    },
    {
      "midi": 69,
      "hit": false,
      "t": 54518.41493749989,
      "d": 379.46372916666587,
      "v": 110
    },
    {
      "midi": 59,
      "hit": false,
      "t": 54955.27654166656,
      "d": 57.39787499999511,
      "v": 91
    },
    {
      "midi": 62,
      "hit": false,
      "t": 54958.46531249989,
      "d": 57.39787499999511,
      "v": 89
    },
    {
      "midi": 65,
      "hit": false,
      "t": 54958.46531249989,
      "d": 63.77541666666366,
      "v": 84
    },
    {
      "midi": 62,
      "hit": false,
      "t": 56951.447083333216,
      "d": 366.7086458333288,
      "v": 97
    },
    {
      "midi": 69,
      "hit": false,
      "t": 56954.63585416655,
      "d": 376.27495833332796,
      "v": 107
    },
    {
      "midi": 60,
      "hit": false,
      "t": 56961.013395833215,
      "d": 347.5760208333304,
      "v": 91
    },
    {
      "midi": 60,
      "hit": false,
      "t": 57385.11991666654,
      "d": 57.39787499999511,
      "v": 84
    },
    {
      "midi": 62,
      "hit": false,
      "t": 57388.30868749987,
      "d": 57.39787499999511,
      "v": 80
    },
    {
      "midi": 67,
      "hit": false,
      "t": 57391.4974583332,
      "d": 73.34172916666284,
      "v": 88
    },
    {
      "midi": 69,
      "hit": false,
      "t": 59400.4230833332,
      "d": 404.9738958333255,
      "v": 110
    },
    {
      "midi": 60,
      "hit": false,
      "t": 59409.989395833196,
      "d": 366.7086458333288,
      "v": 91
    },
    {
      "midi": 62,
      "hit": false,
      "t": 59413.17816666653,
      "d": 373.0861874999973,
      "v": 95
    },
    {
      "midi": 62,
      "hit": false,
      "t": 59853.228541666525,
      "d": 60.58664583332575,
      "v": 91
    },
    {
      "midi": 60,
      "hit": false,
      "t": 59862.794854166525,
      "d": 47.831562499995925,
      "v": 89
    },
    {
      "midi": 65,
      "hit": false,
      "t": 59865.983624999855,
      "d": 57.39787499999511,
      "v": 88
    },
    {
      "midi": 65,
      "hit": false,
      "t": 61823.88891666652,
      "d": 462.3717708333206,
      "v": 100
    },
    {
      "midi": 60,
      "hit": false,
      "t": 61836.64399999985,
      "d": 299.7444583333272,
      "v": 91
    },
    {
      "midi": 62,
      "hit": false,
      "t": 61839.83277083318,
      "d": 471.9380833333271,
      "v": 86
    },
    {
      "midi": 60,
      "hit": false,
      "t": 62193.78633333318,
      "d": 111.60697916665958,
      "v": 54
    },
    {
      "midi": 58,
      "hit": false,
      "t": 62257.56174999984,
      "d": 108.41820833332895,
      "v": 67
    },
    {
      "midi": 57,
      "hit": false,
      "t": 62346.84733333317,
      "d": 121.17329166666605,
      "v": 69
    },
    {
      "midi": 60,
      "hit": false,
      "t": 64301.5638541665,
      "d": 424.1065208333239,
      "v": 82
    },
    {
      "midi": 62,
      "hit": false,
      "t": 64304.752624999834,
      "d": 440.0503749999916,
      "v": 74
    },
    {
      "midi": 65,
      "hit": false,
      "t": 64307.941395833164,
      "d": 427.2952916666618,
      "v": 82
    },
    {
      "midi": 58,
      "hit": false,
      "t": 64687.40512499983,
      "d": 86.09681249999267,
      "v": 51
    },
    {
      "midi": 57,
      "hit": false,
      "t": 64763.93562499982,
      "d": 95.66312499999913,
      "v": 66
    },
    {
      "midi": 58,
      "hit": false,
      "t": 66740.97354166649,
      "d": 424.10652083333116,
      "v": 79
    },
    {
      "midi": 62,
      "hit": false,
      "t": 66753.72862499983,
      "d": 440.0503749999916,
      "v": 91
    },
    {
      "midi": 60,
      "hit": false,
      "t": 69202.70462499982,
      "d": 420.9177500000078,
      "v": 87
    },
    {
      "midi": 62,
      "hit": false,
      "t": 69205.89339583316,
      "d": 427.2952916666691,
      "v": 89
    },
    {
      "midi": 65,
      "hit": false,
      "t": 93651.0106041665,
      "d": 462.37177083334245,
      "v": 107
    },
    {
      "midi": 62,
      "hit": false,
      "t": 93660.5769166665,
      "d": 449.61668750000536,
      "v": 114
    },
    {
      "midi": 69,
      "hit": false,
      "t": 93663.76568749984,
      "d": 417.7289791666699,
      "v": 111
    },
    {
      "midi": 62,
      "hit": false,
      "t": 94161.21393749984,
      "d": 66.96418750000885,
      "v": 103
    },
    {
      "midi": 60,
      "hit": false,
      "t": 94161.21393749984,
      "d": 76.53050000000803,
      "v": 101
    },
    {
      "midi": 65,
      "hit": false,
      "t": 94164.40270833317,
      "d": 92.47435416666849,
      "v": 107
    },
    {
      "midi": 65,
      "hit": false,
      "t": 98580.85031249984,
      "d": 408.16266666665615,
      "v": 93
    },
    {
      "midi": 69,
      "hit": false,
      "t": 98587.2278541665,
      "d": 395.4075833333336,
      "v": 101
    },
    {
      "midi": 60,
      "hit": false,
      "t": 98593.60539583316,
      "d": 376.27495833333523,
      "v": 96
    },
    {
      "midi": 62,
      "hit": false,
      "t": 98593.60539583316,
      "d": 385.8412708333344,
      "v": 91
    },
    {
      "midi": 62,
      "hit": false,
      "t": 99046.41085416649,
      "d": 76.53049999999348,
      "v": 91
    },
    {
      "midi": 65,
      "hit": false,
      "t": 99049.59962499983,
      "d": 102.04066666665312,
      "v": 104
    },
    {
      "midi": 60,
      "hit": false,
      "t": 99055.97716666649,
      "d": 76.53049999999348,
      "v": 101
    },
    {
      "midi": 65,
      "hit": false,
      "t": 103478.80231249981,
      "d": 408.16266666665615,
      "v": 93
    },
    {
      "midi": 69,
      "hit": false,
      "t": 103485.17985416648,
      "d": 395.4075833333336,
      "v": 101
    },
    {
      "midi": 60,
      "hit": false,
      "t": 103491.55739583314,
      "d": 376.27495833333523,
      "v": 96
    },
    {
      "midi": 62,
      "hit": false,
      "t": 103491.55739583314,
      "d": 385.8412708333344,
      "v": 91
    },
    {
      "midi": 62,
      "hit": false,
      "t": 103944.36285416647,
      "d": 76.53049999999348,
      "v": 91
    },
    {
      "midi": 65,
      "hit": false,
      "t": 103947.5516249998,
      "d": 102.04066666665312,
      "v": 104
    },
    {
      "midi": 60,
      "hit": false,
      "t": 103953.92916666646,
      "d": 76.53049999999348,
      "v": 101
    },
    {
      "midi": 65,
      "hit": false,
      "t": 108376.75431249979,
      "d": 408.16266666665615,
      "v": 93
    },
    {
      "midi": 69,
      "hit": false,
      "t": 108383.13185416645,
      "d": 395.4075833333336,
      "v": 101
    },
    {
      "midi": 60,
      "hit": false,
      "t": 108389.50939583311,
      "d": 376.27495833333523,
      "v": 96
    },
    {
      "midi": 62,
      "hit": false,
      "t": 108389.50939583311,
      "d": 385.8412708333344,
      "v": 91
    },
    {
      "midi": 62,
      "hit": false,
      "t": 108842.31485416644,
      "d": 76.53049999999348,
      "v": 91
    },
    {
      "midi": 65,
      "hit": false,
      "t": 108845.50362499978,
      "d": 102.04066666665312,
      "v": 104
    },
    {
      "midi": 60,
      "hit": false,
      "t": 108851.88116666644,
      "d": 76.53049999999348,
      "v": 101
    },
    {
      "midi": 69,
      "hit": false,
      "t": 110806.59768749977,
      "d": 414.540208333332,
      "v": 104
    },
    {
      "midi": 59,
      "hit": false,
      "t": 110816.16399999977,
      "d": 376.27495833333523,
      "v": 93
    },
    {
      "midi": 62,
      "hit": false,
      "t": 110819.35277083311,
      "d": 382.6524999999965,
      "v": 93
    },
    {
      "midi": 67,
      "hit": false,
      "t": 111259.4031458331,
      "d": 86.09681250000722,
      "v": 91
    },
    {
      "midi": 59,
      "hit": false,
      "t": 111268.9694583331,
      "d": 47.83156250001048,
      "v": 91
    },
    {
      "midi": 62,
      "hit": false,
      "t": 111272.15822916644,
      "d": 47.83156250001048,
      "v": 86
    },
    {
      "midi": 62,
      "hit": false,
      "t": 113274.70631249978,
      "d": 124.36206250000396,
      "v": 91
    },
    {
      "midi": 59,
      "hit": false,
      "t": 113274.70631249978,
      "d": 366.70864583333605,
      "v": 83
    },
    {
      "midi": 69,
      "hit": false,
      "t": 113277.89508333312,
      "d": 385.8412708333344,
      "v": 107
    },
    {
      "midi": 59,
      "hit": false,
      "t": 113717.94545833312,
      "d": 51.02033333334839,
      "v": 89
    },
    {
      "midi": 62,
      "hit": false,
      "t": 113721.13422916646,
      "d": 51.02033333334839,
      "v": 95
    },
    {
      "midi": 65,
      "hit": false,
      "t": 113724.3229999998,
      "d": 54.20910416667175,
      "v": 99
    },
    {
      "midi": 62,
      "hit": false,
      "t": 115733.2486249998,
      "d": 379.46372916667315,
      "v": 95
    },
    {
      "midi": 69,
      "hit": false,
      "t": 115736.43739583314,
      "d": 376.27495833333523,
      "v": 110
    },
    {
      "midi": 60,
      "hit": false,
      "t": 115742.8149374998,
      "d": 338.0097083333385,
      "v": 88
    },
    {
      "midi": 60,
      "hit": false,
      "t": 116170.11022916647,
      "d": 47.831562499995925,
      "v": 86
    },
    {
      "midi": 67,
      "hit": false,
      "t": 116170.11022916647,
      "d": 76.53049999999348,
      "v": 95
    },
    {
      "midi": 62,
      "hit": false,
      "t": 116179.67654166647,
      "d": 41.45402083333465,
      "v": 86
    },
    {
      "midi": 62,
      "hit": false,
      "t": 118191.7909374998,
      "d": 369.89741666667396,
      "v": 93
    },
    {
      "midi": 69,
      "hit": false,
      "t": 118194.97970833314,
      "d": 376.27495833333523,
      "v": 107
    },
    {
      "midi": 60,
      "hit": false,
      "t": 118201.3572499998,
      "d": 338.0097083333385,
      "v": 86
    },
    {
      "midi": 60,
      "hit": false,
      "t": 118628.65254166647,
      "d": 47.83156250001048,
      "v": 74
    },
    {
      "midi": 62,
      "hit": false,
      "t": 118628.65254166647,
      "d": 51.02033333334839,
      "v": 80
    },
    {
      "midi": 65,
      "hit": false,
      "t": 118631.8413124998,
      "d": 57.39787500000966,
      "v": 86
    },
    {
      "midi": 69,
      "hit": false,
      "t": 120640.76693749981,
      "d": 360.3311041666748,
      "v": 104
    },
    {
      "midi": 59,
      "hit": false,
      "t": 120650.3332499998,
      "d": 338.0097083333385,
      "v": 82
    },
    {
      "midi": 62,
      "hit": false,
      "t": 120653.52202083314,
      "d": 347.5760208333377,
      "v": 86
    },
    {
      "midi": 67,
      "hit": false,
      "t": 121068.06222916648,
      "d": 70.15295833334676,
      "v": 86
    },
    {
      "midi": 59,
      "hit": false,
      "t": 121077.62854166648,
      "d": 47.83156250001048,
      "v": 91
    },
    {
      "midi": 62,
      "hit": false,
      "t": 121080.81731249981,
      "d": 47.83156250001048,
      "v": 80
    },
    {
      "midi": 59,
      "hit": false,
      "t": 123080.17662499982,
      "d": 369.8974166666594,
      "v": 95
    },
    {
      "midi": 62,
      "hit": false,
      "t": 123083.36539583316,
      "d": 376.2749583333207,
      "v": 95
    },
    {
      "midi": 69,
      "hit": false,
      "t": 123089.74293749982,
      "d": 379.4637291666586,
      "v": 110
    },
    {
      "midi": 59,
      "hit": false,
      "t": 123526.60454166647,
      "d": 57.39787500000966,
      "v": 91
    },
    {
      "midi": 62,
      "hit": false,
      "t": 123529.79331249981,
      "d": 57.39787500000966,
      "v": 89
    },
    {
      "midi": 65,
      "hit": false,
      "t": 123529.79331249981,
      "d": 63.775416666670935,
      "v": 84
    },
    {
      "midi": 62,
      "hit": false,
      "t": 125522.77508333315,
      "d": 366.70864583333605,
      "v": 97
    },
    {
      "midi": 69,
      "hit": false,
      "t": 125525.96385416649,
      "d": 376.27495833333523,
      "v": 107
    },
    {
      "midi": 60,
      "hit": false,
      "t": 125532.34139583315,
      "d": 347.5760208333377,
      "v": 91
    },
    {
      "midi": 60,
      "hit": false,
      "t": 125956.4479166665,
      "d": 57.39787500000966,
      "v": 84
    },
    {
      "midi": 62,
      "hit": false,
      "t": 125959.63668749983,
      "d": 57.39787500000966,
      "v": 80
    },
    {
      "midi": 67,
      "hit": false,
      "t": 125962.82545833317,
      "d": 73.34172916667012,
      "v": 88
    },
    {
      "midi": 69,
      "hit": false,
      "t": 127971.75108333318,
      "d": 404.9738958333328,
      "v": 110
    },
    {
      "midi": 60,
      "hit": false,
      "t": 127981.31739583318,
      "d": 366.70864583333605,
      "v": 91
    },
    {
      "midi": 62,
      "hit": false,
      "t": 127984.50616666651,
      "d": 373.0861874999973,
      "v": 95
    },
    {
      "midi": 62,
      "hit": false,
      "t": 128424.5565416665,
      "d": 60.586645833347575,
      "v": 91
    },
    {
      "midi": 60,
      "hit": false,
      "t": 128434.1228541665,
      "d": 47.83156250001048,
      "v": 89
    },
    {
      "midi": 65,
      "hit": false,
      "t": 128437.31162499984,
      "d": 57.39787500000966,
      "v": 88
    },
    {
      "midi": 69,
      "hit": false,
      "t": 130398.40568749985,
      "d": 414.540208333332,
      "v": 104
    },
    {
      "midi": 59,
      "hit": false,
      "t": 130407.97199999985,
      "d": 376.27495833333523,
      "v": 93
    },
    {
      "midi": 62,
      "hit": false,
      "t": 130411.16077083319,
      "d": 382.6524999999965,
      "v": 93
    },
    {
      "midi": 67,
      "hit": false,
      "t": 130851.21114583318,
      "d": 86.09681250000722,
      "v": 91
    },
    {
      "midi": 59,
      "hit": false,
      "t": 130860.77745833318,
      "d": 47.83156250001048,
      "v": 91
    },
    {
      "midi": 62,
      "hit": false,
      "t": 130863.96622916652,
      "d": 47.83156250001048,
      "v": 86
    },
    {
      "midi": 62,
      "hit": false,
      "t": 132866.51431249984,
      "d": 124.36206250000396,
      "v": 91
    },
    {
      "midi": 59,
      "hit": false,
      "t": 132866.51431249984,
      "d": 366.70864583333605,
      "v": 83
    },
    {
      "midi": 69,
      "hit": false,
      "t": 132869.70308333318,
      "d": 385.8412708333344,
      "v": 107
    },
    {
      "midi": 59,
      "hit": false,
      "t": 133309.75345833317,
      "d": 51.02033333334839,
      "v": 89
    },
    {
      "midi": 62,
      "hit": false,
      "t": 133312.9422291665,
      "d": 51.02033333334839,
      "v": 95
    },
    {
      "midi": 65,
      "hit": false,
      "t": 133316.13099999985,
      "d": 54.2091041666863,
      "v": 99
    },
    {
      "midi": 62,
      "hit": false,
      "t": 135325.05662499988,
      "d": 379.4637291666586,
      "v": 95
    },
    {
      "midi": 69,
      "hit": false,
      "t": 135328.24539583322,
      "d": 376.2749583333207,
      "v": 110
    },
    {
      "midi": 60,
      "hit": false,
      "t": 135334.6229374999,
      "d": 338.00970833332394,
      "v": 88
    },
    {
      "midi": 60,
      "hit": false,
      "t": 135761.91822916653,
      "d": 47.83156250001048,
      "v": 86
    },
    {
      "midi": 67,
      "hit": false,
      "t": 135761.91822916653,
      "d": 76.53050000002258,
      "v": 95
    },
    {
      "midi": 62,
      "hit": false,
      "t": 135771.48454166655,
      "d": 41.45402083333465,
      "v": 86
    },
    {
      "midi": 62,
      "hit": false,
      "t": 137783.5989374999,
      "d": 369.89741666667396,
      "v": 93
    },
    {
      "midi": 69,
      "hit": false,
      "t": 137786.78770833323,
      "d": 376.2749583333498,
      "v": 107
    },
    {
      "midi": 60,
      "hit": false,
      "t": 137793.1652499999,
      "d": 338.00970833332394,
      "v": 86
    },
    {
      "midi": 60,
      "hit": false,
      "t": 138220.46054166657,
      "d": 47.83156250001048,
      "v": 74
    },
    {
      "midi": 62,
      "hit": false,
      "t": 138220.46054166657,
      "d": 51.02033333334839,
      "v": 80
    },
    {
      "midi": 65,
      "hit": false,
      "t": 138223.6493124999,
      "d": 57.397875000024214,
      "v": 86
    },
    {
      "midi": 69,
      "hit": false,
      "t": 140232.57493749994,
      "d": 360.3311041666602,
      "v": 104
    },
    {
      "midi": 59,
      "hit": false,
      "t": 140242.14124999996,
      "d": 338.00970833332394,
      "v": 82
    },
    {
      "midi": 62,
      "hit": false,
      "t": 140245.3300208333,
      "d": 347.5760208333086,
      "v": 86
    },
    {
      "midi": 67,
      "hit": false,
      "t": 140659.8702291666,
      "d": 70.15295833337586,
      "v": 86
    },
    {
      "midi": 59,
      "hit": false,
      "t": 140669.43654166663,
      "d": 47.83156250001048,
      "v": 91
    },
    {
      "midi": 62,
      "hit": false,
      "t": 140672.62531249996,
      "d": 47.83156250001048,
      "v": 80
    },
    {
      "midi": 59,
      "hit": false,
      "t": 142671.98462499998,
      "d": 369.89741666667396,
      "v": 95
    },
    {
      "midi": 62,
      "hit": false,
      "t": 142675.17339583332,
      "d": 376.2749583333498,
      "v": 95
    },
    {
      "midi": 69,
      "hit": false,
      "t": 142681.5509375,
      "d": 379.4637291666877,
      "v": 110
    },
    {
      "midi": 59,
      "hit": false,
      "t": 143118.41254166668,
      "d": 57.39787499999511,
      "v": 91
    },
    {
      "midi": 62,
      "hit": false,
      "t": 143121.60131250002,
      "d": 57.39787499999511,
      "v": 89
    },
    {
      "midi": 65,
      "hit": false,
      "t": 143121.60131250002,
      "d": 63.775416666670935,
      "v": 84
    },
    {
      "midi": 62,
      "hit": false,
      "t": 145114.58308333336,
      "d": 366.70864583336515,
      "v": 97
    },
    {
      "midi": 69,
      "hit": false,
      "t": 145117.7718541667,
      "d": 376.2749583333498,
      "v": 107
    },
    {
      "midi": 60,
      "hit": false,
      "t": 145124.14939583337,
      "d": 347.5760208333377,
      "v": 91
    },
    {
      "midi": 60,
      "hit": false,
      "t": 145548.2559166667,
      "d": 57.39787499999511,
      "v": 84
    },
    {
      "midi": 62,
      "hit": false,
      "t": 145551.44468750004,
      "d": 57.39787499999511,
      "v": 80
    },
    {
      "midi": 67,
      "hit": false,
      "t": 145554.63345833338,
      "d": 73.34172916665557,
      "v": 88
    },
    {
      "midi": 69,
      "hit": false,
      "t": 147563.55908333336,
      "d": 404.9738958333619,
      "v": 110
    },
    {
      "midi": 60,
      "hit": false,
      "t": 147573.12539583337,
      "d": 366.70864583333605,
      "v": 91
    },
    {
      "midi": 62,
      "hit": false,
      "t": 147576.3141666667,
      "d": 373.0861875000119,
      "v": 95
    },
    {
      "midi": 62,
      "hit": false,
      "t": 148016.36454166673,
      "d": 60.58664583336213,
      "v": 91
    },
    {
      "midi": 60,
      "hit": false,
      "t": 148025.93085416674,
      "d": 47.83156250001048,
      "v": 89
    },
    {
      "midi": 65,
      "hit": false,
      "t": 148029.11962500008,
      "d": 57.397875000024214,
      "v": 88
    },
    {
      "midi": 65,
      "hit": false,
      "t": 149987.02491666676,
      "d": 462.3717708333279,
      "v": 100
    },
    {
      "midi": 60,
      "hit": false,
      "t": 149999.7800000001,
      "d": 299.7444583333272,
      "v": 91
    },
    {
      "midi": 62,
      "hit": false,
      "t": 150002.96877083342,
      "d": 471.93808333334164,
      "v": 86
    },
    {
      "midi": 60,
      "hit": false,
      "t": 150356.9223333334,
      "d": 111.60697916668141,
      "v": 54
    },
    {
      "midi": 58,
      "hit": false,
      "t": 150420.69775000008,
      "d": 108.4182083333435,
      "v": 67
    },
    {
      "midi": 57,
      "hit": false,
      "t": 150509.98333333342,
      "d": 121.17329166666605,
      "v": 69
    },
    {
      "midi": 60,
      "hit": false,
      "t": 152464.69985416677,
      "d": 424.10652083333116,
      "v": 82
    },
    {
      "midi": 62,
      "hit": false,
      "t": 152467.8886250001,
      "d": 440.0503750000207,
      "v": 74
    },
    {
      "midi": 65,
      "hit": false,
      "t": 152471.07739583345,
      "d": 427.2952916666691,
      "v": 82
    },
    {
      "midi": 58,
      "hit": false,
      "t": 152850.5411250001,
      "d": 86.09681250003632,
      "v": 51
    },
    {
      "midi": 57,
      "hit": false,
      "t": 152927.07162500013,
      "d": 95.66312500002095,
      "v": 66
    },
    {
      "midi": 58,
      "hit": false,
      "t": 154904.1095416668,
      "d": 424.10652083333116,
      "v": 79
    },
    {
      "midi": 62,
      "hit": false,
      "t": 154916.86462500013,
      "d": 440.0503750000207,
      "v": 91
    },
    {
      "midi": 60,
      "hit": false,
      "t": 157365.84062500016,
      "d": 420.91774999999325,
      "v": 87
    },
    {
      "midi": 62,
      "hit": false,
      "t": 157369.0293958335,
      "d": 427.2952916666691,
      "v": 89
    },
    {
      "midi": 62,
      "hit": false,
      "t": 208781.58154166682,
      "d": 392.21881250001024,
      "v": 83
    },
    {
      "midi": 65,
      "hit": false,
      "t": 208781.58154166682,
      "d": 404.9738958333328,
      "v": 92
    },
    {
      "midi": 69,
      "hit": false,
      "t": 208784.77031250016,
      "d": 369.89741666667396,
      "v": 94
    },
    {
      "midi": 59,
      "hit": false,
      "t": 209234.38700000016,
      "d": 76.53050000002258,
      "v": 79
    },
    {
      "midi": 65,
      "hit": false,
      "t": 209237.5757708335,
      "d": 82.90804166669841,
      "v": 83
    },
    {
      "midi": 62,
      "hit": false,
      "t": 209243.95331250018,
      "d": 57.39787499999511,
      "v": 79
    },
    {
      "midi": 65,
      "hit": false,
      "t": 211201.85860416686,
      "d": 462.371770833357,
      "v": 92
    },
    {
      "midi": 62,
      "hit": false,
      "t": 211211.42491666687,
      "d": 449.61668750000536,
      "v": 99
    },
    {
      "midi": 69,
      "hit": false,
      "t": 211214.6136875002,
      "d": 417.72897916665534,
      "v": 96
    },
    {
      "midi": 62,
      "hit": false,
      "t": 211712.06193750023,
      "d": 66.96418750000885,
      "v": 88
    },
    {
      "midi": 60,
      "hit": false,
      "t": 211712.06193750023,
      "d": 76.53050000002258,
      "v": 86
    },
    {
      "midi": 65,
      "hit": false,
      "t": 211715.25070833357,
      "d": 92.47435416668304,
      "v": 92
    },
    {
      "midi": 65,
      "hit": false,
      "t": 213685.91108333357,
      "d": 408.1626666666998,
      "v": 89
    },
    {
      "midi": 69,
      "hit": false,
      "t": 213689.0998541669,
      "d": 373.0861875000119,
      "v": 97
    },
    {
      "midi": 62,
      "hit": false,
      "t": 213698.66616666692,
      "d": 392.21881250001024,
      "v": 87
    },
    {
      "midi": 59,
      "hit": false,
      "t": 214157.84916666694,
      "d": 79.7192708333314,
      "v": 83
    },
    {
      "midi": 62,
      "hit": false,
      "t": 214164.22670833362,
      "d": 60.58664583333302,
      "v": 81
    },
    {
      "midi": 65,
      "hit": false,
      "t": 214164.22670833362,
      "d": 82.9080416666693,
      "v": 81
    },
    {
      "midi": 65,
      "hit": false,
      "t": 216131.6983125003,
      "d": 408.1626666666998,
      "v": 85
    },
    {
      "midi": 69,
      "hit": false,
      "t": 216138.07585416696,
      "d": 395.40758333334816,
      "v": 93
    },
    {
      "midi": 60,
      "hit": false,
      "t": 216144.45339583364,
      "d": 376.2749583333207,
      "v": 88
    },
    {
      "midi": 62,
      "hit": false,
      "t": 216144.45339583364,
      "d": 385.8412708333344,
      "v": 83
    },
    {
      "midi": 62,
      "hit": false,
      "t": 216597.25885416698,
      "d": 76.53050000002258,
      "v": 83
    },
    {
      "midi": 65,
      "hit": false,
      "t": 216600.44762500032,
      "d": 102.04066666669678,
      "v": 96
    },
    {
      "midi": 60,
      "hit": false,
      "t": 216606.825166667,
      "d": 76.53050000002258,
      "v": 93
    },
    {
      "midi": 62,
      "hit": false,
      "t": 218583.86308333368,
      "d": 395.40758333334816,
      "v": 100
    },
    {
      "midi": 65,
      "hit": false,
      "t": 218587.05185416702,
      "d": 395.40758333334816,
      "v": 100
    },
    {
      "midi": 69,
      "hit": false,
      "t": 218590.24062500036,
      "d": 350.7647916666756,
      "v": 103
    },
    {
      "midi": 59,
      "hit": false,
      "t": 219036.66854166702,
      "d": 79.7192708333314,
      "v": 90
    },
    {
      "midi": 62,
      "hit": false,
      "t": 219039.85731250036,
      "d": 63.775416666670935,
      "v": 90
    },
    {
      "midi": 65,
      "hit": false,
      "t": 219043.0460833337,
      "d": 82.9080416666693,
      "v": 94
    },
    {
      "midi": 75,
      "hit": false,
      "t": 219773.27460416665,
      "d": 60.58664583336213,
      "v": 127
    },
    {
      "midi": 74,
      "hit": false,
      "t": 219782.84091666667,
      "d": 31.88770833335002,
      "v": 101
    },
    {
      "midi": 76,
      "hit": false,
      "t": 219786.0296875,
      "d": 312.49954166667885,
      "v": 127
    },
    {
      "midi": 79,
      "hit": false,
      "t": 219789.21845833334,
      "d": 140.30591666666442,
      "v": 127
    },
    {
      "midi": 77,
      "hit": false,
      "t": 219814.72862500002,
      "d": 22.321395833336283,
      "v": 82
    },
    {
      "midi": 74,
      "hit": false,
      "t": 220108.0955416667,
      "d": 283.80060416666674,
      "v": 127
    },
    {
      "midi": 79,
      "hit": false,
      "t": 220111.28431250004,
      "d": 267.8567500000063,
      "v": 127
    },
    {
      "midi": 73,
      "hit": false,
      "t": 220430.16139583336,
      "d": 92.47435416665394,
      "v": 73
    },
    {
      "midi": 72,
      "hit": false,
      "t": 220560.901,
      "d": 114.79574999999022,
      "v": 114
    },
    {
      "midi": 79,
      "hit": false,
      "t": 220564.08977083335,
      "d": 114.79574999999022,
      "v": 127
    },
    {
      "midi": 70,
      "hit": false,
      "t": 220742.6609375,
      "d": 111.60697916665231,
      "v": 101
    },
    {
      "midi": 67,
      "hit": false,
      "t": 220892.53316666666,
      "d": 95.66312499999185,
      "v": 97
    },
    {
      "midi": 65,
      "hit": false,
      "t": 221029.65031250037,
      "d": 408.1626666666998,
      "v": 86
    },
    {
      "midi": 69,
      "hit": false,
      "t": 221036.02785416704,
      "d": 395.40758333334816,
      "v": 94
    },
    {
      "midi": 60,
      "hit": false,
      "t": 221042.40539583372,
      "d": 376.2749583333207,
      "v": 89
    },
    {
      "midi": 62,
      "hit": false,
      "t": 221042.40539583372,
      "d": 385.8412708333344,
      "v": 84
    },
    {
      "midi": 72,
      "hit": false,
      "t": 221051.97170833332,
      "d": 264.6679791666975,
      "v": 120
    },
    {
      "midi": 79,
      "hit": false,
      "t": 221055.16047916666,
      "d": 232.78027083334746,
      "v": 124
    },
    {
      "midi": 70,
      "hit": false,
      "t": 221354.90493750002,
      "d": 178.57116666666116,
      "v": 122
    },
    {
      "midi": 62,
      "hit": false,
      "t": 221495.21085416706,
      "d": 76.53050000002258,
      "v": 84
    },
    {
      "midi": 65,
      "hit": false,
      "t": 221498.3996250004,
      "d": 102.04066666669678,
      "v": 97
    },
    {
      "midi": 60,
      "hit": false,
      "t": 221504.77716666707,
      "d": 76.53050000002258,
      "v": 94
    },
    {
      "midi": 73,
      "hit": false,
      "t": 221638.70554166668,
      "d": 66.96418750000885,
      "v": 99
    },
    {
      "midi": 74,
      "hit": false,
      "t": 221788.57777083336,
      "d": 153.06100000001607,
      "v": 127
    },
    {
      "midi": 79,
      "hit": false,
      "t": 221794.95531250004,
      "d": 156.24977083335398,
      "v": 127
    },
    {
      "midi": 73,
      "hit": false,
      "t": 221970.3377083334,
      "d": 66.96418750000885,
      "v": 82
    },
    {
      "midi": 74,
      "hit": false,
      "t": 222104.2660833334,
      "d": 140.30591666666442,
      "v": 124
    },
    {
      "midi": 79,
      "hit": false,
      "t": 222104.2660833334,
      "d": 149.87222916667815,
      "v": 127
    },
    {
      "midi": 72,
      "hit": false,
      "t": 222266.8933958334,
      "d": 242.3465833333321,
      "v": 107
    },
    {
      "midi": 70,
      "hit": false,
      "t": 222537.93891666675,
      "d": 102.04066666666768,
      "v": 127
    },
    {
      "midi": 67,
      "hit": false,
      "t": 222726.07639583343,
      "d": 86.09681250000722,
      "v": 120
    },
    {
      "midi": 67,
      "hit": false,
      "t": 223032.19839583343,
      "d": 92.47435416665394,
      "v": 127
    },
    {
      "midi": 70,
      "hit": false,
      "t": 223312.81022916676,
      "d": 86.09681250000722,
      "v": 127
    },
    {
      "midi": 77,
      "hit": false,
      "t": 223322.37654166677,
      "d": 95.66312499999185,
      "v": 116
    },
    {
      "midi": 65,
      "hit": false,
      "t": 223491.38139583377,
      "d": 398.59635416668607,
      "v": 82
    },
    {
      "midi": 69,
      "hit": false,
      "t": 223494.5701666671,
      "d": 363.51987499999814,
      "v": 87
    },
    {
      "midi": 62,
      "hit": false,
      "t": 223500.94770833378,
      "d": 385.8412708333344,
      "v": 82
    },
    {
      "midi": 70,
      "hit": false,
      "t": 223615.74345833343,
      "d": 121.17329166666605,
      "v": 122
    },
    {
      "midi": 77,
      "hit": false,
      "t": 223618.93222916676,
      "d": 121.17329166666605,
      "v": 113
    },
    {
      "midi": 67,
      "hit": false,
      "t": 223775.1820000001,
      "d": 105.22943750000559,
      "v": 120
    },
    {
      "midi": 59,
      "hit": false,
      "t": 223934.62054166713,
      "d": 79.7192708333314,
      "v": 76
    },
    {
      "midi": 62,
      "hit": false,
      "t": 223944.18685416714,
      "d": 57.39787499999511,
      "v": 67
    },
    {
      "midi": 65,
      "hit": false,
      "t": 223947.37562500048,
      "d": 76.53049999999348,
      "v": 80
    },
    {
      "midi": 70,
      "hit": false,
      "t": 224103.62539583343,
      "d": 149.87222916667815,
      "v": 127
    },
    {
      "midi": 67,
      "hit": false,
      "t": 224272.6302500001,
      "d": 57.39787499999511,
      "v": 76
    },
    {
      "midi": 67,
      "hit": false,
      "t": 224377.8596875001,
      "d": 130.73960416667978,
      "v": 105
    },
    {
      "midi": 72,
      "hit": false,
      "t": 224381.04845833345,
      "d": 130.73960416667978,
      "v": 127
    },
    {
      "midi": 70,
      "hit": false,
      "t": 224556.4308541668,
      "d": 133.9283750000177,
      "v": 127
    },
    {
      "midi": 65,
      "hit": false,
      "t": 224565.9971666668,
      "d": 105.22943750000559,
      "v": 109
    },
    {
      "midi": 61,
      "hit": false,
      "t": 224833.85391666682,
      "d": 82.9080416666693,
      "v": 102
    },
    {
      "midi": 60,
      "hit": false,
      "t": 224846.60900000014,
      "d": 28.698937500012107,
      "v": 127
    },
    {
      "midi": 60,
      "hit": false,
      "t": 224878.4967083335,
      "d": 31.887708333320916,
      "v": 101
    },
    {
      "midi": 58,
      "hit": false,
      "t": 224999.67000000016,
      "d": 121.17329166666605,
      "v": 93
    },
    {
      "midi": 55,
      "hit": false,
      "t": 225159.10854166682,
      "d": 102.04066666666768,
      "v": 82
    },
    {
      "midi": 58,
      "hit": false,
      "t": 225299.4144583335,
      "d": 114.79574999999022,
      "v": 127
    },
    {
      "midi": 60,
      "hit": false,
      "t": 225471.60808333347,
      "d": 111.60697916665231,
      "v": 124
    },
    {
      "midi": 61,
      "hit": false,
      "t": 225780.91885416678,
      "d": 47.83156250001048,
      "v": 108
    },
    {
      "midi": 62,
      "hit": false,
      "t": 225784.10762500012,
      "d": 140.30591666666442,
      "v": 127
    },
    {
      "midi": 65,
      "hit": false,
      "t": 225787.29639583346,
      "d": 156.24977083332487,
      "v": 127
    },
    {
      "midi": 65,
      "hit": false,
      "t": 225927.60231250047,
      "d": 408.1626666666998,
      "v": 78
    },
    {
      "midi": 69,
      "hit": false,
      "t": 225933.97985416715,
      "d": 395.40758333334816,
      "v": 86
    },
    {
      "midi": 60,
      "hit": false,
      "t": 225940.35739583382,
      "d": 376.2749583333207,
      "v": 81
    },
    {
      "midi": 62,
      "hit": false,
      "t": 225940.35739583382,
      "d": 385.8412708333344,
      "v": 76
    },
    {
      "midi": 60,
      "hit": false,
      "t": 226083.85208333345,
      "d": 95.66312499999185,
      "v": 127
    },
    {
      "midi": 58,
      "hit": false,
      "t": 226217.78045833344,
      "d": 111.60697916665231,
      "v": 101
    },
    {
      "midi": 55,
      "hit": false,
      "t": 226358.0863750001,
      "d": 86.09681250000722,
      "v": 93
    },
    {
      "midi": 62,
      "hit": false,
      "t": 226393.16285416717,
      "d": 76.53050000002258,
      "v": 76
    },
    {
      "midi": 65,
      "hit": false,
      "t": 226396.3516250005,
      "d": 102.04066666669678,
      "v": 89
    },
    {
      "midi": 60,
      "hit": false,
      "t": 226402.72916666718,
      "d": 76.53050000002258,
      "v": 86
    },
    {
      "midi": 59,
      "hit": false,
      "t": 226492.01475000012,
      "d": 66.96418750000885,
      "v": 114
    },
    {
      "midi": 65,
      "hit": false,
      "t": 226504.76983333344,
      "d": 159.4385416666919,
      "v": 127
    },
    {
      "midi": 60,
      "hit": false,
      "t": 226511.14737500012,
      "d": 264.6679791666684,
      "v": 120
    },
    {
      "midi": 58,
      "hit": false,
      "t": 226804.5142916668,
      "d": 111.60697916665231,
      "v": 127
    },
    {
      "midi": 55,
      "hit": false,
      "t": 226948.00897916677,
      "d": 92.47435416665394,
      "v": 94
    },
    {
      "midi": 59,
      "hit": false,
      "t": 227107.44752083343,
      "d": 76.53050000002258,
      "v": 124
    },
    {
      "midi": 65,
      "hit": false,
      "t": 227126.58014583343,
      "d": 172.19362500001444,
      "v": 127
    },
    {
      "midi": 60,
      "hit": false,
      "t": 227136.14645833345,
      "d": 220.0251874999958,
      "v": 88
    },
    {
      "midi": 55,
      "hit": false,
      "t": 227337.03902083344,
      "d": 66.96418750000885,
      "v": 91
    },
    {
      "midi": 58,
      "hit": false,
      "t": 227442.26845833345,
      "d": 149.87222916667815,
      "v": 127
    },
    {
      "midi": 55,
      "hit": false,
      "t": 227611.27331250013,
      "d": 95.66312499999185,
      "v": 122
    },
    {
      "midi": 61,
      "hit": false,
      "t": 228044.94614583344,
      "d": 60.58664583333302,
      "v": 127
    },
    {
      "midi": 62,
      "hit": false,
      "t": 228048.13491666678,
      "d": 162.6273124999716,
      "v": 127
    },
    {
      "midi": 67,
      "hit": false,
      "t": 228051.32368750012,
      "d": 146.68345833331114,
      "v": 127
    },
    {
      "midi": 62,
      "hit": false,
      "t": 228379.76708333386,
      "d": 395.40758333334816,
      "v": 82
    },
    {
      "midi": 65,
      "hit": false,
      "t": 228382.9558541672,
      "d": 395.40758333334816,
      "v": 82
    },
    {
      "midi": 69,
      "hit": false,
      "t": 228386.14462500054,
      "d": 350.7647916666756,
      "v": 85
    },
    {
      "midi": 61,
      "hit": false,
      "t": 228516.88422916675,
      "d": 143.49468750000233,
      "v": 127
    },
    {
      "midi": 60,
      "hit": false,
      "t": 228529.63931250008,
      "d": 66.96418750000885,
      "v": 122
    },
    {
      "midi": 67,
      "hit": false,
      "t": 228532.8280833334,
      "d": 156.24977083335398,
      "v": 124
    },
    {
      "midi": 60,
      "hit": false,
      "t": 228832.57254166677,
      "d": 76.53050000002258,
      "v": 118
    },
    {
      "midi": 59,
      "hit": false,
      "t": 228832.5725416672,
      "d": 79.7192708333314,
      "v": 72
    },
    {
      "midi": 61,
      "hit": false,
      "t": 228835.7613125001,
      "d": 102.04066666669678,
      "v": 122
    },
    {
      "midi": 62,
      "hit": false,
      "t": 228835.76131250054,
      "d": 63.775416666670935,
      "v": 72
    },
    {
      "midi": 67,
      "hit": false,
      "t": 228838.95008333345,
      "d": 117.98452083335724,
      "v": 127
    },
    {
      "midi": 65,
      "hit": false,
      "t": 228838.95008333388,
      "d": 82.9080416666693,
      "v": 76
    },
    {
      "midi": 58,
      "hit": false,
      "t": 229125.93945833348,
      "d": 102.04066666666768,
      "v": 127
    },
    {
      "midi": 53,
      "hit": false,
      "t": 229269.43414583348,
      "d": 121.17329166666605,
      "v": 109
    },
    {
      "midi": 60,
      "hit": false,
      "t": 229604.25508333347,
      "d": 140.30591666666442,
      "v": 127
    },
    {
      "midi": 64,
      "hit": false,
      "t": 229607.4438541668,
      "d": 140.30591666666442,
      "v": 127
    },
    {
      "midi": 60,
      "hit": false,
      "t": 229888.05568750013,
      "d": 149.87222916667815,
      "v": 127
    },
    {
      "midi": 64,
      "hit": false,
      "t": 229897.62200000015,
      "d": 149.87222916667815,
      "v": 127
    },
    {
      "midi": 57,
      "hit": false,
      "t": 230066.62685416683,
      "d": 57.39787499999511,
      "v": 91
    },
    {
      "midi": 58,
      "hit": false,
      "t": 230190.98891666683,
      "d": 133.9283750000177,
      "v": 127
    },
    {
      "midi": 62,
      "hit": false,
      "t": 230194.17768750017,
      "d": 149.87222916667815,
      "v": 118
    },
    {
      "midi": 59,
      "hit": false,
      "t": 230363.18254166684,
      "d": 82.9080416666693,
      "v": 127
    },
    {
      "midi": 31,
      "hit": false,
      "t": 230484.3558333335,
      "d": 149.87222916664905,
      "v": 127
    },
    {
      "midi": 43,
      "hit": false,
      "t": 230500.29968750017,
      "d": 149.87222916664905,
      "v": 127
    },
    {
      "midi": 65,
      "hit": false,
      "t": 230825.55431250055,
      "d": 408.1626666666998,
      "v": 78
    },
    {
      "midi": 69,
      "hit": false,
      "t": 230831.93185416723,
      "d": 395.40758333334816,
      "v": 86
    },
    {
      "midi": 60,
      "hit": false,
      "t": 230838.3093958339,
      "d": 376.2749583333207,
      "v": 81
    },
    {
      "midi": 62,
      "hit": false,
      "t": 230838.3093958339,
      "d": 385.8412708333344,
      "v": 76
    },
    {
      "midi": 60,
      "hit": false,
      "t": 230994.55916666682,
      "d": 188.1374791666749,
      "v": 127
    },
    {
      "midi": 64,
      "hit": false,
      "t": 230997.74793750016,
      "d": 146.68345833334024,
      "v": 116
    },
    {
      "midi": 62,
      "hit": false,
      "t": 231291.11485416724,
      "d": 76.53050000002258,
      "v": 76
    },
    {
      "midi": 65,
      "hit": false,
      "t": 231294.30362500058,
      "d": 102.04066666669678,
      "v": 89
    },
    {
      "midi": 60,
      "hit": false,
      "t": 231300.68116666726,
      "d": 76.53050000002258,
      "v": 86
    },
    {
      "midi": 58,
      "hit": false,
      "t": 231307.0587083335,
      "d": 57.39787499999511,
      "v": 104
    },
    {
      "midi": 59,
      "hit": false,
      "t": 231307.0587083335,
      "d": 140.30591666666442,
      "v": 127
    },
    {
      "midi": 62,
      "hit": false,
      "t": 231313.43625000017,
      "d": 146.68345833331114,
      "v": 127
    },
    {
      "midi": 59,
      "hit": false,
      "t": 231581.29300000015,
      "d": 114.79575000001932,
      "v": 124
    },
    {
      "midi": 62,
      "hit": false,
      "t": 231584.4817708335,
      "d": 102.04066666666768,
      "v": 118
    },
    {
      "midi": 53,
      "hit": false,
      "t": 231705.65506250018,
      "d": 149.87222916667815,
      "v": 118
    },
    {
      "midi": 48,
      "hit": false,
      "t": 231903.35885416687,
      "d": 111.60697916665231,
      "v": 101
    },
    {
      "midi": 60,
      "hit": false,
      "t": 232037.28722916686,
      "d": 140.30591666666442,
      "v": 124
    },
    {
      "midi": 64,
      "hit": false,
      "t": 232037.28722916686,
      "d": 143.49468750000233,
      "v": 127
    },
    {
      "midi": 55,
      "hit": false,
      "t": 232206.29208333354,
      "d": 76.53049999999348,
      "v": 85
    },
    {
      "midi": 59,
      "hit": false,
      "t": 232321.08783333353,
      "d": 188.1374791666749,
      "v": 127
    },
    {
      "midi": 62,
      "hit": false,
      "t": 232327.4653750002,
      "d": 184.94870833333698,
      "v": 127
    },
    {
      "midi": 56,
      "hit": false,
      "t": 232958.8420000002,
      "d": 66.96418750000885,
      "v": 127
    },
    {
      "midi": 57,
      "hit": false,
      "t": 232962.03077083355,
      "d": 175.38239583332324,
      "v": 127
    },
    {
      "midi": 65,
      "hit": false,
      "t": 232971.59708333356,
      "d": 169.00485416664742,
      "v": 127
    },
    {
      "midi": 65,
      "hit": false,
      "t": 233287.28539583395,
      "d": 398.59635416668607,
      "v": 82
    },
    {
      "midi": 69,
      "hit": false,
      "t": 233290.4741666673,
      "d": 363.51987499999814,
      "v": 87
    },
    {
      "midi": 62,
      "hit": false,
      "t": 233296.85170833397,
      "d": 385.8412708333344,
      "v": 82
    },
    {
      "midi": 57,
      "hit": false,
      "t": 233440.34639583353,
      "d": 66.96418750003795,
      "v": 127
    },
    {
      "midi": 65,
      "hit": false,
      "t": 233440.34639583353,
      "d": 162.6273125000298,
      "v": 127
    },
    {
      "midi": 58,
      "hit": false,
      "t": 233449.91270833355,
      "d": 191.3262500000128,
      "v": 127
    },
    {
      "midi": 63,
      "hit": false,
      "t": 233459.47902083356,
      "d": 22.321395833336283,
      "v": 78
    },
    {
      "midi": 59,
      "hit": false,
      "t": 233730.5245416673,
      "d": 79.7192708333314,
      "v": 76
    },
    {
      "midi": 62,
      "hit": false,
      "t": 233740.09085416733,
      "d": 57.39787499999511,
      "v": 67
    },
    {
      "midi": 65,
      "hit": false,
      "t": 233743.27962500066,
      "d": 76.53049999999348,
      "v": 80
    },
    {
      "midi": 65,
      "hit": false,
      "t": 234192.89631250023,
      "d": 191.3262500000128,
      "v": 127
    },
    {
      "midi": 57,
      "hit": false,
      "t": 234202.46262500025,
      "d": 159.4385416666628,
      "v": 127
    },
    {
      "midi": 56,
      "hit": false,
      "t": 234403.35518750024,
      "d": 57.39787499999511,
      "v": 89
    },
    {
      "midi": 58,
      "hit": false,
      "t": 234505.3958541669,
      "d": 146.68345833336934,
      "v": 127
    },
    {
      "midi": 65,
      "hit": false,
      "t": 234508.58462500025,
      "d": 162.6273125000298,
      "v": 127
    },
    {
      "midi": 63,
      "hit": false,
      "t": 234518.15093750026,
      "d": 28.698937500012107,
      "v": 92
    },
    {
      "midi": 55,
      "hit": false,
      "t": 234719.0435000003,
      "d": 54.2091041666572,
      "v": 89
    },
    {
      "midi": 58,
      "hit": false,
      "t": 234795.57400000028,
      "d": 178.57116666669026,
      "v": 127
    },
    {
      "midi": 65,
      "hit": false,
      "t": 234805.1403125003,
      "d": 149.87222916667815,
      "v": 127
    },
    {
      "midi": 63,
      "hit": false,
      "t": 234814.7066250003,
      "d": 19.13262499999837,
      "v": 102
    },
    {
      "midi": 55,
      "hit": false,
      "t": 234993.27779166697,
      "d": 66.96418750000885,
      "v": 101
    },
    {
      "midi": 53,
      "hit": false,
      "t": 235117.63985416698,
      "d": 111.60697916665231,
      "v": 114
    },
    {
      "midi": 58,
      "hit": false,
      "t": 235270.70085416696,
      "d": 102.04066666666768,
      "v": 116
    },
    {
      "midi": 62,
      "hit": false,
      "t": 235401.44045833364,
      "d": 130.73960416667978,
      "v": 127
    },
    {
      "midi": 58,
      "hit": false,
      "t": 235580.01162500033,
      "d": 86.09681250000722,
      "v": 113
    },
    {
      "midi": 62,
      "hit": false,
      "t": 235704.37368750034,
      "d": 159.4385416666628,
      "v": 127
    },
    {
      "midi": 65,
      "hit": false,
      "t": 235723.50631250066,
      "d": 408.1626666666998,
      "v": 78
    },
    {
      "midi": 69,
      "hit": false,
      "t": 235729.88385416733,
      "d": 395.40758333334816,
      "v": 86
    },
    {
      "midi": 60,
      "hit": false,
      "t": 235736.261395834,
      "d": 376.2749583333207,
      "v": 81
    },
    {
      "midi": 62,
      "hit": false,
      "t": 235736.261395834,
      "d": 385.8412708333344,
      "v": 76
    },
    {
      "midi": 65,
      "hit": false,
      "t": 235882.944854167,
      "d": 76.53049999999348,
      "v": 120
    },
    {
      "midi": 70,
      "hit": false,
      "t": 236016.873229167,
      "d": 140.30591666666442,
      "v": 127
    },
    {
      "midi": 62,
      "hit": false,
      "t": 236189.06685416735,
      "d": 76.53050000002258,
      "v": 76
    },
    {
      "midi": 65,
      "hit": false,
      "t": 236192.2556250007,
      "d": 102.04066666669678,
      "v": 89
    },
    {
      "midi": 62,
      "hit": false,
      "t": 236195.44439583365,
      "d": 76.53049999999348,
      "v": 120
    },
    {
      "midi": 60,
      "hit": false,
      "t": 236198.63316666737,
      "d": 76.53050000002258,
      "v": 86
    },
    {
      "midi": 65,
      "hit": false,
      "t": 236319.80645833365,
      "d": 102.04066666666768,
      "v": 127
    },
    {
      "midi": 70,
      "hit": false,
      "t": 236498.3776250003,
      "d": 95.66312499999185,
      "v": 127
    },
    {
      "midi": 74,
      "hit": false,
      "t": 236622.73968750032,
      "d": 92.47435416665394,
      "v": 127
    },
    {
      "midi": 77,
      "hit": false,
      "t": 236922.48414583365,
      "d": 66.96418750000885,
      "v": 127
    },
    {
      "midi": 74,
      "hit": false,
      "t": 237222.228604167,
      "d": 76.53049999999348,
      "v": 127
    },
    {
      "midi": 86,
      "hit": false,
      "t": 237550.67200000034,
      "d": 76.53049999999348,
      "v": 93
    },
    {
      "midi": 77,
      "hit": false,
      "t": 237550.67200000034,
      "d": 86.09681250000722,
      "v": 107
    },
    {
      "midi": 79,
      "hit": false,
      "t": 237550.67200000034,
      "d": 86.09681250000722,
      "v": 112
    },
    {
      "midi": 89,
      "hit": false,
      "t": 237550.67200000034,
      "d": 86.09681250000722,
      "v": 109
    },
    {
      "midi": 91,
      "hit": false,
      "t": 237550.67200000034,
      "d": 124.36206250000396,
      "v": 105
    },
    {
      "midi": 62,
      "hit": false,
      "t": 238175.67108333405,
      "d": 395.40758333334816,
      "v": 82
    },
    {
      "midi": 65,
      "hit": false,
      "t": 238178.8598541674,
      "d": 395.40758333334816,
      "v": 82
    },
    {
      "midi": 69,
      "hit": false,
      "t": 238182.04862500072,
      "d": 350.7647916666756,
      "v": 85
    },
    {
      "midi": 59,
      "hit": false,
      "t": 238628.4765416674,
      "d": 79.7192708333314,
      "v": 72
    },
    {
      "midi": 62,
      "hit": false,
      "t": 238631.66531250073,
      "d": 63.775416666670935,
      "v": 72
    },
    {
      "midi": 65,
      "hit": false,
      "t": 238634.85408333407,
      "d": 82.9080416666693,
      "v": 76
    },
    {
      "midi": 73,
      "hit": false,
      "t": 239377.83768750035,
      "d": 73.34172916668467,
      "v": 127
    },
    {
      "midi": 72,
      "hit": false,
      "t": 239387.40400000036,
      "d": 60.58664583333302,
      "v": 117
    },
    {
      "midi": 77,
      "hit": false,
      "t": 239390.5927708337,
      "d": 124.36206250000396,
      "v": 122
    },
    {
      "midi": 79,
      "hit": false,
      "t": 239393.78154166703,
      "d": 124.36206250000396,
      "v": 119
    },
    {
      "midi": 74,
      "hit": false,
      "t": 239572.3527083337,
      "d": 76.53049999999348,
      "v": 90
    },
    {
      "midi": 77,
      "hit": false,
      "t": 239658.4495208337,
      "d": 66.96418750000885,
      "v": 88
    },
    {
      "midi": 74,
      "hit": false,
      "t": 239722.22493750037,
      "d": 105.22943750000559,
      "v": 88
    },
    {
      "midi": 77,
      "hit": false,
      "t": 239830.64314583372,
      "d": 66.96418750000885,
      "v": 90
    },
    {
      "midi": 74,
      "hit": false,
      "t": 239907.17364583374,
      "d": 92.47435416665394,
      "v": 88
    },
    {
      "midi": 77,
      "hit": false,
      "t": 240009.2143125004,
      "d": 60.58664583333302,
      "v": 90
    },
    {
      "midi": 74,
      "hit": false,
      "t": 240066.6121875004,
      "d": 95.66312499999185,
      "v": 91
    },
    {
      "midi": 77,
      "hit": false,
      "t": 240165.46408333373,
      "d": 63.775416666670935,
      "v": 100
    },
    {
      "midi": 74,
      "hit": false,
      "t": 240238.80581250042,
      "d": 95.66312499999185,
      "v": 88
    },
    {
      "midi": 77,
      "hit": false,
      "t": 240315.3363125004,
      "d": 66.96418750000885,
      "v": 95
    },
    {
      "midi": 77,
      "hit": false,
      "t": 240446.0759166671,
      "d": 89.28558333334513,
      "v": 99
    },
    {
      "midi": 74,
      "hit": false,
      "t": 240532.1727291671,
      "d": 66.96418750000885,
      "v": 92
    },
    {
      "midi": 65,
      "hit": false,
      "t": 240621.45831250073,
      "d": 408.1626666666998,
      "v": 78
    },
    {
      "midi": 69,
      "hit": false,
      "t": 240627.8358541674,
      "d": 395.40758333334816,
      "v": 86
    },
    {
      "midi": 60,
      "hit": false,
      "t": 240634.2133958341,
      "d": 376.2749583333207,
      "v": 81
    },
    {
      "midi": 62,
      "hit": false,
      "t": 240634.2133958341,
      "d": 385.8412708333344,
      "v": 76
    },
    {
      "midi": 77,
      "hit": false,
      "t": 240646.96847916712,
      "d": 207.27010416667326,
      "v": 124
    },
    {
      "midi": 72,
      "hit": false,
      "t": 240656.53479166713,
      "d": 216.8364166666579,
      "v": 113
    },
    {
      "midi": 70,
      "hit": false,
      "t": 240930.76908333378,
      "d": 226.40272916667163,
      "v": 121
    },
    {
      "midi": 62,
      "hit": false,
      "t": 241087.01885416743,
      "d": 76.53050000002258,
      "v": 76
    },
    {
      "midi": 65,
      "hit": false,
      "t": 241090.20762500077,
      "d": 102.04066666669678,
      "v": 89
    },
    {
      "midi": 60,
      "hit": false,
      "t": 241096.58516666744,
      "d": 76.53050000002258,
      "v": 86
    },
    {
      "midi": 73,
      "hit": false,
      "t": 241233.70231250045,
      "d": 159.4385416666919,
      "v": 110
    },
    {
      "midi": 72,
      "hit": false,
      "t": 241240.07985416712,
      "d": 133.9283750000177,
      "v": 109
    },
    {
      "midi": 77,
      "hit": false,
      "t": 241243.26862500046,
      "d": 153.06100000001607,
      "v": 121
    },
    {
      "midi": 70,
      "hit": false,
      "t": 241425.0285625005,
      "d": 73.34172916665557,
      "v": 104
    },
    {
      "midi": 67,
      "hit": false,
      "t": 241536.63554166714,
      "d": 130.73960416667978,
      "v": 115
    },
    {
      "midi": 70,
      "hit": false,
      "t": 241836.3800000005,
      "d": 133.9283749999886,
      "v": 127
    },
    {
      "midi": 72,
      "hit": false,
      "t": 242034.08379166716,
      "d": 114.79574999999022,
      "v": 122
    },
    {
      "midi": 73,
      "hit": false,
      "t": 242337.01702083382,
      "d": 47.83156250001048,
      "v": 104
    },
    {
      "midi": 74,
      "hit": false,
      "t": 242340.20579166716,
      "d": 251.91289583334583,
      "v": 121
    },
    {
      "midi": 77,
      "hit": false,
      "t": 242346.58333333384,
      "d": 235.96904166665627,
      "v": 113
    },
    {
      "midi": 72,
      "hit": false,
      "t": 242659.08287500052,
      "d": 235.96904166665627,
      "v": 119
    },
    {
      "midi": 70,
      "hit": false,
      "t": 242949.26102083383,
      "d": 66.96418750000885,
      "v": 90
    },
    {
      "midi": 72,
      "hit": false,
      "t": 243054.49045833384,
      "d": 264.6679791666684,
      "v": 126
    },
    {
      "midi": 77,
      "hit": false,
      "t": 243057.67922916717,
      "d": 232.78027083331835,
      "v": 121
    },
    {
      "midi": 65,
      "hit": false,
      "t": 243083.1893958341,
      "d": 398.59635416668607,
      "v": 82
    },
    {
      "midi": 69,
      "hit": false,
      "t": 243086.37816666745,
      "d": 363.51987499999814,
      "v": 87
    },
    {
      "midi": 62,
      "hit": false,
      "t": 243092.75570833412,
      "d": 385.8412708333344,
      "v": 82
    },
    {
      "midi": 70,
      "hit": false,
      "t": 243366.99000000051,
      "d": 149.87222916667815,
      "v": 114
    },
    {
      "midi": 72,
      "hit": false,
      "t": 243526.4285416672,
      "d": 108.4182083333435,
      "v": 99
    },
    {
      "midi": 59,
      "hit": false,
      "t": 243526.42854166747,
      "d": 79.7192708333314,
      "v": 76
    },
    {
      "midi": 62,
      "hit": false,
      "t": 243535.99485416748,
      "d": 57.39787499999511,
      "v": 67
    },
    {
      "midi": 65,
      "hit": false,
      "t": 243539.18362500082,
      "d": 76.53049999999348,
      "v": 80
    },
    {
      "midi": 70,
      "hit": false,
      "t": 243631.6579791672,
      "d": 28.698937500012107,
      "v": 68
    },
    {
      "midi": 67,
      "hit": false,
      "t": 243669.92322916724,
      "d": 140.30591666666442,
      "v": 127
    },
    {
      "midi": 70,
      "hit": false,
      "t": 243851.68316666724,
      "d": 63.775416666670935,
      "v": 101
    },
    {
      "midi": 67,
      "hit": false,
      "t": 243972.8564583339,
      "d": 114.79574999999022,
      "v": 107
    },
    {
      "midi": 65,
      "hit": false,
      "t": 244291.73354166723,
      "d": 140.30591666666442,
      "v": 122
    },
    {
      "midi": 70,
      "hit": false,
      "t": 244489.4373333339,
      "d": 57.39787499999511,
      "v": 97
    },
    {
      "midi": 67,
      "hit": false,
      "t": 244594.6667708339,
      "d": 255.10166666665464,
      "v": 107
    },
    {
      "midi": 62,
      "hit": false,
      "t": 244913.54385416722,
      "d": 162.6273125000007,
      "v": 99
    },
    {
      "midi": 67,
      "hit": false,
      "t": 245104.87010416723,
      "d": 73.34172916665557,
      "v": 100
    },
    {
      "midi": 65,
      "hit": false,
      "t": 245206.9107708339,
      "d": 207.27010416667326,
      "v": 104
    },
    {
      "midi": 60,
      "hit": false,
      "t": 245490.71137500057,
      "d": 130.73960416667978,
      "v": 100
    },
    {
      "midi": 65,
      "hit": false,
      "t": 245519.4103125008,
      "d": 408.1626666667289,
      "v": 78
    },
    {
      "midi": 69,
      "hit": false,
      "t": 245525.7878541675,
      "d": 395.40758333337726,
      "v": 86
    },
    {
      "midi": 60,
      "hit": false,
      "t": 245532.16539583416,
      "d": 376.2749583333498,
      "v": 81
    },
    {
      "midi": 62,
      "hit": false,
      "t": 245532.16539583416,
      "d": 385.8412708333635,
      "v": 76
    },
    {
      "midi": 65,
      "hit": false,
      "t": 245688.41516666726,
      "d": 76.53049999999348,
      "v": 102
    },
    {
      "midi": 62,
      "hit": false,
      "t": 245800.0221458339,
      "d": 207.27010416667326,
      "v": 109
    },
    {
      "midi": 62,
      "hit": false,
      "t": 245984.97085416754,
      "d": 76.53050000002258,
      "v": 76
    },
    {
      "midi": 65,
      "hit": false,
      "t": 245988.15962500087,
      "d": 102.04066666669678,
      "v": 89
    },
    {
      "midi": 60,
      "hit": false,
      "t": 245994.53716666755,
      "d": 76.53050000002258,
      "v": 86
    },
    {
      "midi": 58,
      "hit": false,
      "t": 246131.65431250058,
      "d": 140.30591666666442,
      "v": 127
    },
    {
      "midi": 62,
      "hit": false,
      "t": 246310.22547916725,
      "d": 95.66312499999185,
      "v": 105
    },
    {
      "midi": 60,
      "hit": false,
      "t": 246425.02122916724,
      "d": 169.00485416667652,
      "v": 127
    },
    {
      "midi": 61,
      "hit": false,
      "t": 246737.52077083391,
      "d": 38.265250000025844,
      "v": 107
    },
    {
      "midi": 86,
      "hit": false,
      "t": 246737.52077083391,
      "d": 73.34172916668467,
      "v": 113
    },
    {
      "midi": 62,
      "hit": false,
      "t": 246740.70954166725,
      "d": 66.96418750000885,
      "v": 121
    },
    {
      "midi": 85,
      "hit": false,
      "t": 246747.08708333393,
      "d": 60.58664583333302,
      "v": 96
    },
    {
      "midi": 93,
      "hit": false,
      "t": 246750.27585416727,
      "d": 60.58664583333302,
      "v": 115
    },
    {
      "midi": 63,
      "hit": false,
      "t": 247349.76477083392,
      "d": 63.77541666670004,
      "v": 110
    },
    {
      "midi": 64,
      "hit": false,
      "t": 247359.33108333393,
      "d": 73.34172916668467,
      "v": 121
    },
    {
      "midi": 55,
      "hit": false,
      "t": 247362.5198541676,
      "d": 57.39787499999511,
      "v": 68
    },
    {
      "midi": 62,
      "hit": false,
      "t": 247365.70862500093,
      "d": 60.58664583333302,
      "v": 64
    },
    {
      "midi": 86,
      "hit": false,
      "t": 247368.89739583395,
      "d": 57.39787499999511,
      "v": 113
    },
    {
      "midi": 95,
      "hit": false,
      "t": 247368.89739583395,
      "d": 98.85189583332976,
      "v": 115
    },
    {
      "midi": 88,
      "hit": false,
      "t": 247378.46370833396,
      "d": 86.09681249997811,
      "v": 95
    },
    {
      "midi": 62,
      "hit": false,
      "t": 247499.6370000006,
      "d": 66.96418750000885,
      "v": 101
    },
    {
      "midi": 86,
      "hit": false,
      "t": 247521.95839583394,
      "d": 47.83156250001048,
      "v": 55
    },
    {
      "midi": 55,
      "hit": false,
      "t": 247824.89162500092,
      "d": 66.96418750000885,
      "v": 66
    },
    {
      "midi": 62,
      "hit": false,
      "t": 247828.08039583426,
      "d": 82.9080416666693,
      "v": 64
    },
    {
      "midi": 55,
      "hit": false,
      "t": 248277.69708333426,
      "d": 66.96418750000885,
      "v": 63
    },
    {
      "midi": 62,
      "hit": false,
      "t": 248287.26339583428,
      "d": 66.96418750000885,
      "v": 59
    },
    {
      "midi": 55,
      "hit": false,
      "t": 248756.01270833428,
      "d": 76.53049999999348,
      "v": 64
    },
    {
      "midi": 62,
      "hit": false,
      "t": 248768.7677916676,
      "d": 86.09681250000722,
      "v": 58
    },
    {
      "midi": 50,
      "hit": false,
      "t": 249068.51225000093,
      "d": 76.53049999999348,
      "v": 50
    },
    {
      "midi": 55,
      "hit": false,
      "t": 249202.44062500092,
      "d": 82.9080416666693,
      "v": 58
    },
    {
      "midi": 62,
      "hit": false,
      "t": 249202.44062500092,
      "d": 86.09681250000722,
      "v": 56
    },
    {
      "midi": 55,
      "hit": false,
      "t": 249690.32256250095,
      "d": 86.09681250000722,
      "v": 64
    },
    {
      "midi": 62,
      "hit": false,
      "t": 249693.5113333343,
      "d": 86.09681250000722,
      "v": 64
    },
    {
      "midi": 55,
      "hit": false,
      "t": 250133.5617083343,
      "d": 86.09681250000722,
      "v": 64
    },
    {
      "midi": 62,
      "hit": false,
      "t": 250136.75047916765,
      "d": 73.34172916665557,
      "v": 60
    },
    {
      "midi": 55,
      "hit": false,
      "t": 250592.7447083343,
      "d": 105.22943750000559,
      "v": 60
    },
    {
      "midi": 62,
      "hit": false,
      "t": 250605.49979166762,
      "d": 82.9080416666693,
      "v": 64
    },
    {
      "midi": 83,
      "hit": false,
      "t": 250704.3516875006,
      "d": 63.775416666670935,
      "v": 121
    },
    {
      "midi": 86,
      "hit": false,
      "t": 251023.22877083393,
      "d": 76.53049999999348,
      "v": 127
    },
    {
      "midi": 55,
      "hit": false,
      "t": 251026.41754166764,
      "d": 95.66312500002095,
      "v": 60
    },
    {
      "midi": 62,
      "hit": false,
      "t": 251032.79508333432,
      "d": 79.7192708333314,
      "v": 56
    }
  ]
}