{
  "jsonPath": "Pop/Post-Teen Pop/Bratz/beautiful.json",
  "path": "Pop\\Post-Teen Pop\\Bratz\\Beautiful.mid",
  "name": "Beautiful",
  "difficulty": "Advanced",
  "bpm": 75.99996960001216,
  "notes": [
    {
      "midi": 58,
      "hit": false,
      "t": 6315.7919999999995,
      "d": 348.68434999999954,
      "v": 73
    },
    {
      "midi": 63,
      "hit": false,
      "t": 6315.7919999999995,
      "d": 434.2106999999987,
      "v": 87
    },
    {
      "midi": 67,
      "hit": false,
      "t": 6315.7919999999995,
      "d": 467.1054499999991,
      "v": 74
    },
    {
      "midi": 51,
      "hit": false,
      "t": 6315.7919999999995,
      "d": 3000.001199999997,
      "v": 81
    },
    {
      "midi": 58,
      "hit": false,
      "t": 6710.528999999999,
      "d": 256.57904999999937,
      "v": 60
    },
    {
      "midi": 63,
      "hit": false,
      "t": 7105.265999999998,
      "d": 368.4212000000007,
      "v": 76
    },
    {
      "midi": 67,
      "hit": false,
      "t": 7105.265999999998,
      "d": 401.31595000000107,
      "v": 72
    },
    {
      "midi": 58,
      "hit": false,
      "t": 7500.002999999999,
      "d": 243.42114999999922,
      "v": 54
    },
    {
      "midi": 63,
      "hit": false,
      "t": 7894.739999999997,
      "d": 394.7370000000001,
      "v": 78
    },
    {
      "midi": 67,
      "hit": false,
      "t": 7894.739999999997,
      "d": 453.94754999999986,
      "v": 77
    },
    {
      "midi": 58,
      "hit": false,
      "t": 8289.476999999997,
      "d": 230.26324999999997,
      "v": 53
    },
    {
      "midi": 63,
      "hit": false,
      "t": 8684.213999999996,
      "d": 296.0527499999989,
      "v": 85
    },
    {
      "midi": 68,
      "hit": false,
      "t": 8684.213999999996,
      "d": 328.9474999999984,
      "v": 67
    },
    {
      "midi": 58,
      "hit": false,
      "t": 9078.950999999995,
      "d": 282.8948500000006,
      "v": 50
    },
    {
      "midi": 67,
      "hit": false,
      "t": 9302.635299999996,
      "d": 65.78949999999895,
      "v": 60
    },
    {
      "midi": 58,
      "hit": false,
      "t": 9473.687999999996,
      "d": 328.9475000000002,
      "v": 71
    },
    {
      "midi": 61,
      "hit": false,
      "t": 9473.687999999996,
      "d": 467.1054500000009,
      "v": 78
    },
    {
      "midi": 67,
      "hit": false,
      "t": 9473.687999999996,
      "d": 513.1581000000006,
      "v": 78
    },
    {
      "midi": 49,
      "hit": false,
      "t": 9473.687999999996,
      "d": 2993.4222499999996,
      "v": 76
    },
    {
      "midi": 58,
      "hit": false,
      "t": 9868.424999999997,
      "d": 164.4737499999992,
      "v": 60
    },
    {
      "midi": 61,
      "hit": false,
      "t": 10263.161999999997,
      "d": 388.15805,
      "v": 72
    },
    {
      "midi": 67,
      "hit": false,
      "t": 10263.161999999997,
      "d": 414.4738499999985,
      "v": 65
    },
    {
      "midi": 58,
      "hit": false,
      "t": 10657.898999999996,
      "d": 190.7895499999995,
      "v": 56
    },
    {
      "midi": 61,
      "hit": false,
      "t": 11052.635999999997,
      "d": 375.00014999999985,
      "v": 69
    },
    {
      "midi": 67,
      "hit": false,
      "t": 11052.635999999997,
      "d": 447.3685999999998,
      "v": 63
    },
    {
      "midi": 58,
      "hit": false,
      "t": 11447.372999999996,
      "d": 236.84219999999914,
      "v": 55
    },
    {
      "midi": 61,
      "hit": false,
      "t": 11842.109999999995,
      "d": 342.1054000000004,
      "v": 76
    },
    {
      "midi": 68,
      "hit": false,
      "t": 11842.109999999995,
      "d": 381.57910000000084,
      "v": 83
    },
    {
      "midi": 58,
      "hit": false,
      "t": 12236.846999999996,
      "d": 138.1579500000007,
      "v": 52
    },
    {
      "midi": 67,
      "hit": false,
      "t": 12460.531299999997,
      "d": 118.42109999999957,
      "v": 77
    },
    {
      "midi": 63,
      "hit": false,
      "t": 12631.583999999997,
      "d": 368.4212000000007,
      "v": 83
    },
    {
      "midi": 60,
      "hit": false,
      "t": 12631.583999999997,
      "d": 375.00014999999985,
      "v": 76
    },
    {
      "midi": 67,
      "hit": false,
      "t": 12631.583999999997,
      "d": 493.4212499999994,
      "v": 67
    },
    {
      "midi": 48,
      "hit": false,
      "t": 12631.583999999997,
      "d": 3019.73805,
      "v": 69
    },
    {
      "midi": 58,
      "hit": false,
      "t": 13026.320999999996,
      "d": 197.3685000000005,
      "v": 54
    },
    {
      "midi": 63,
      "hit": false,
      "t": 13421.057999999997,
      "d": 210.52640000000065,
      "v": 69
    },
    {
      "midi": 60,
      "hit": false,
      "t": 13421.057999999997,
      "d": 282.8948500000006,
      "v": 70
    },
    {
      "midi": 67,
      "hit": false,
      "t": 13421.057999999997,
      "d": 513.1581000000006,
      "v": 65
    },
    {
      "midi": 58,
      "hit": false,
      "t": 13815.794999999998,
      "d": 157.89480000000003,
      "v": 40
    },
    {
      "midi": 60,
      "hit": false,
      "t": 14210.531999999997,
      "d": 388.15805,
      "v": 46
    },
    {
      "midi": 63,
      "hit": false,
      "t": 14210.531999999997,
      "d": 453.94754999999896,
      "v": 66
    },
    {
      "midi": 67,
      "hit": false,
      "t": 14210.531999999997,
      "d": 585.5265499999987,
      "v": 62
    },
    {
      "midi": 58,
      "hit": false,
      "t": 14605.268999999997,
      "d": 177.63164999999935,
      "v": 45
    },
    {
      "midi": 60,
      "hit": false,
      "t": 15000.005999999998,
      "d": 486.84230000000025,
      "v": 55
    },
    {
      "midi": 65,
      "hit": false,
      "t": 15000.005999999998,
      "d": 572.3686500000003,
      "v": 78
    },
    {
      "midi": 58,
      "hit": false,
      "t": 15394.742999999999,
      "d": 157.89480000000003,
      "v": 48
    },
    {
      "midi": 63,
      "hit": false,
      "t": 15618.427299999998,
      "d": 98.68425000000025,
      "v": 78
    },
    {
      "midi": 63,
      "hit": false,
      "t": 15789.479999999998,
      "d": 394.737000000001,
      "v": 85
    },
    {
      "midi": 59,
      "hit": false,
      "t": 15789.479999999998,
      "d": 486.84230000000025,
      "v": 72
    },
    {
      "midi": 47,
      "hit": false,
      "t": 15789.479999999998,
      "d": 2927.632750000006,
      "v": 74
    },
    {
      "midi": 66,
      "hit": false,
      "t": 16184.216999999999,
      "d": 59.210549999999785,
      "v": 45
    },
    {
      "midi": 54,
      "hit": false,
      "t": 16184.216999999999,
      "d": 157.89480000000003,
      "v": 54
    },
    {
      "midi": 61,
      "hit": false,
      "t": 16578.953999999998,
      "d": 171.0527000000002,
      "v": 65
    },
    {
      "midi": 59,
      "hit": false,
      "t": 16578.953999999998,
      "d": 368.4212000000007,
      "v": 63
    },
    {
      "midi": 66,
      "hit": false,
      "t": 16578.953999999998,
      "d": 1125.0004500000068,
      "v": 60
    },
    {
      "midi": 54,
      "hit": false,
      "t": 16973.691,
      "d": 177.631650000003,
      "v": 54
    },
    {
      "midi": 59,
      "hit": false,
      "t": 17368.428000000004,
      "d": 335.5264500000012,
      "v": 63
    },
    {
      "midi": 63,
      "hit": false,
      "t": 17368.428000000004,
      "d": 493.4212499999994,
      "v": 60
    },
    {
      "midi": 54,
      "hit": false,
      "t": 17763.165000000005,
      "d": 190.7895499999977,
      "v": 48
    },
    {
      "midi": 59,
      "hit": false,
      "t": 18157.902000000002,
      "d": 322.36854999999923,
      "v": 74
    },
    {
      "midi": 65,
      "hit": false,
      "t": 18157.902000000002,
      "d": 486.84230000000025,
      "v": 65
    },
    {
      "midi": 56,
      "hit": false,
      "t": 18552.639000000003,
      "d": 164.47375000000102,
      "v": 59
    },
    {
      "midi": 63,
      "hit": false,
      "t": 18776.323300000004,
      "d": 125.00004999999874,
      "v": 72
    },
    {
      "midi": 63,
      "hit": false,
      "t": 18947.376000000004,
      "d": 460.52649999999267,
      "v": 89
    },
    {
      "midi": 58,
      "hit": false,
      "t": 18947.376000000004,
      "d": 500.0001999999913,
      "v": 76
    },
    {
      "midi": 51,
      "hit": false,
      "t": 18947.376000000004,
      "d": 1203.9478499999932,
      "v": 72
    },
    {
      "midi": 55,
      "hit": false,
      "t": 19171.0603,
      "d": 131.5789999999979,
      "v": 9
    },
    {
      "midi": 55,
      "hit": false,
      "t": 19342.112999999998,
      "d": 171.05269999999655,
      "v": 54
    },
    {
      "midi": 63,
      "hit": false,
      "t": 19736.849999999995,
      "d": 427.63175000000047,
      "v": 63
    },
    {
      "midi": 58,
      "hit": false,
      "t": 19736.849999999995,
      "d": 460.52649999999994,
      "v": 63
    },
    {
      "midi": 55,
      "hit": false,
      "t": 20131.586999999996,
      "d": 78.94739999999729,
      "v": 58
    },
    {
      "midi": 63,
      "hit": false,
      "t": 20526.323999999993,
      "d": 355.2632999999987,
      "v": 71
    },
    {
      "midi": 67,
      "hit": false,
      "t": 20526.323999999993,
      "d": 401.3159499999965,
      "v": 57
    },
    {
      "midi": 58,
      "hit": false,
      "t": 20921.06099999999,
      "d": 223.6843000000008,
      "v": 45
    },
    {
      "midi": 63,
      "hit": false,
      "t": 21315.79799999999,
      "d": 276.3159000000014,
      "v": 75
    },
    {
      "midi": 51,
      "hit": false,
      "t": 21315.79799999999,
      "d": 585.5265500000023,
      "v": 71
    },
    {
      "midi": 68,
      "hit": false,
      "t": 21315.79799999999,
      "d": 585.5265500000023,
      "v": 75
    },
    {
      "midi": 58,
      "hit": false,
      "t": 21710.534999999993,
      "d": 263.1580000000031,
      "v": 47
    },
    {
      "midi": 58,
      "hit": false,
      "t": 22105.271999999997,
      "d": 263.15799999999945,
      "v": 56
    },
    {
      "midi": 61,
      "hit": false,
      "t": 22105.271999999997,
      "d": 427.6317499999968,
      "v": 70
    },
    {
      "midi": 67,
      "hit": false,
      "t": 22105.271999999997,
      "d": 585.526549999995,
      "v": 72
    },
    {
      "midi": 49,
      "hit": false,
      "t": 22105.271999999997,
      "d": 3039.474899999994,
      "v": 80
    },
    {
      "midi": 58,
      "hit": false,
      "t": 22500.008999999995,
      "d": 243.4211499999983,
      "v": 45
    },
    {
      "midi": 61,
      "hit": false,
      "t": 22894.745999999992,
      "d": 361.8422500000015,
      "v": 72
    },
    {
      "midi": 67,
      "hit": false,
      "t": 22894.745999999992,
      "d": 421.0528000000013,
      "v": 72
    },
    {
      "midi": 58,
      "hit": false,
      "t": 23289.482999999993,
      "d": 256.5790500000003,
      "v": 43
    },
    {
      "midi": 61,
      "hit": false,
      "t": 23684.219999999994,
      "d": 407.8948999999993,
      "v": 63
    },
    {
      "midi": 67,
      "hit": false,
      "t": 23684.219999999994,
      "d": 421.05279999999766,
      "v": 65
    },
    {
      "midi": 58,
      "hit": false,
      "t": 24078.956999999995,
      "d": 236.8421999999955,
      "v": 58
    },
    {
      "midi": 61,
      "hit": false,
      "t": 24473.69399999999,
      "d": 361.8422500000015,
      "v": 64
    },
    {
      "midi": 68,
      "hit": false,
      "t": 24473.69399999999,
      "d": 414.47385000000213,
      "v": 83
    },
    {
      "midi": 58,
      "hit": false,
      "t": 24868.43099999999,
      "d": 256.5790500000003,
      "v": 60
    },
    {
      "midi": 63,
      "hit": false,
      "t": 25263.16799999999,
      "d": 453.94754999999714,
      "v": 75
    },
    {
      "midi": 67,
      "hit": false,
      "t": 25263.16799999999,
      "d": 559.2107499999984,
      "v": 72
    },
    {
      "midi": 48,
      "hit": false,
      "t": 25263.16799999999,
      "d": 3013.1591000000008,
      "v": 78
    },
    {
      "midi": 58,
      "hit": false,
      "t": 25657.904999999988,
      "d": 177.63164999999935,
      "v": 47
    },
    {
      "midi": 60,
      "hit": false,
      "t": 26052.64199999999,
      "d": 394.737000000001,
      "v": 63
    },
    {
      "midi": 63,
      "hit": false,
      "t": 26052.64199999999,
      "d": 453.9475500000008,
      "v": 60
    },
    {
      "midi": 67,
      "hit": false,
      "t": 26052.64199999999,
      "d": 539.4739000000009,
      "v": 55
    },
    {
      "midi": 58,
      "hit": false,
      "t": 26447.37899999999,
      "d": 197.3685000000005,
      "v": 37
    },
    {
      "midi": 60,
      "hit": false,
      "t": 26842.11599999999,
      "d": 421.0528000000013,
      "v": 63
    },
    {
      "midi": 63,
      "hit": false,
      "t": 26842.11599999999,
      "d": 421.0528000000013,
      "v": 67
    },
    {
      "midi": 67,
      "hit": false,
      "t": 26842.11599999999,
      "d": 598.6844500000007,
      "v": 55
    },
    {
      "midi": 58,
      "hit": false,
      "t": 27236.852999999992,
      "d": 210.52639999999883,
      "v": 45
    },
    {
      "midi": 60,
      "hit": false,
      "t": 27631.58999999999,
      "d": 315.78960000000006,
      "v": 65
    },
    {
      "midi": 65,
      "hit": false,
      "t": 27631.58999999999,
      "d": 572.3686500000003,
      "v": 72
    },
    {
      "midi": 58,
      "hit": false,
      "t": 28026.32699999999,
      "d": 151.31584999999905,
      "v": 38
    },
    {
      "midi": 59,
      "hit": false,
      "t": 28421.06399999999,
      "d": 361.8422499999979,
      "v": 62
    },
    {
      "midi": 63,
      "hit": false,
      "t": 28421.06399999999,
      "d": 500.0001999999986,
      "v": 76
    },
    {
      "midi": 47,
      "hit": false,
      "t": 28421.06399999999,
      "d": 3125.0012499999975,
      "v": 64
    },
    {
      "midi": 54,
      "hit": false,
      "t": 28815.80099999999,
      "d": 250.0001000000011,
      "v": 54
    },
    {
      "midi": 63,
      "hit": false,
      "t": 29210.53799999999,
      "d": 302.63170000000173,
      "v": 67
    },
    {
      "midi": 65,
      "hit": false,
      "t": 29605.27499999999,
      "d": 65.78949999999895,
      "v": 28
    },
    {
      "midi": 66,
      "hit": false,
      "t": 30000.011999999988,
      "d": 105.26320000000123,
      "v": 65
    },
    {
      "midi": 65,
      "hit": false,
      "t": 30394.74899999999,
      "d": 355.26330000000235,
      "v": 65
    },
    {
      "midi": 54,
      "hit": false,
      "t": 30618.43329999999,
      "d": 802.6319000000003,
      "v": 3
    },
    {
      "midi": 63,
      "hit": false,
      "t": 30789.48599999999,
      "d": 769.7371499999972,
      "v": 69
    },
    {
      "midi": 59,
      "hit": false,
      "t": 31184.22299999999,
      "d": 368.42119999999704,
      "v": 54
    },
    {
      "midi": 58,
      "hit": false,
      "t": 31578.95999999999,
      "d": 322.36854999999923,
      "v": 61
    },
    {
      "midi": 63,
      "hit": false,
      "t": 31578.95999999999,
      "d": 447.3686000000016,
      "v": 85
    },
    {
      "midi": 67,
      "hit": false,
      "t": 31578.95999999999,
      "d": 611.8423500000026,
      "v": 77
    },
    {
      "midi": 51,
      "hit": false,
      "t": 31578.95999999999,
      "d": 2921.053799999998,
      "v": 72
    },
    {
      "midi": 58,
      "hit": false,
      "t": 31973.69699999999,
      "d": 289.4738000000034,
      "v": 54
    },
    {
      "midi": 63,
      "hit": false,
      "t": 32368.433999999994,
      "d": 388.1580499999982,
      "v": 78
    },
    {
      "midi": 67,
      "hit": false,
      "t": 32368.433999999994,
      "d": 467.10544999999547,
      "v": 76
    },
    {
      "midi": 58,
      "hit": false,
      "t": 32763.17099999999,
      "d": 223.68429999999717,
      "v": 45
    },
    {
      "midi": 63,
      "hit": false,
      "t": 33157.90799999999,
      "d": 394.737000000001,
      "v": 72
    },
    {
      "midi": 67,
      "hit": false,
      "t": 33157.90799999999,
      "d": 394.737000000001,
      "v": 63
    },
    {
      "midi": 58,
      "hit": false,
      "t": 33552.64499999999,
      "d": 210.52640000000247,
      "v": 55
    },
    {
      "midi": 68,
      "hit": false,
      "t": 33947.38199999999,
      "d": 375.00014999999985,
      "v": 85
    },
    {
      "midi": 63,
      "hit": false,
      "t": 33947.38199999999,
      "d": 421.05279999999766,
      "v": 89
    },
    {
      "midi": 58,
      "hit": false,
      "t": 34342.11899999999,
      "d": 210.5263999999952,
      "v": 59
    },
    {
      "midi": 58,
      "hit": false,
      "t": 34736.855999999985,
      "d": 269.7369499999986,
      "v": 57
    },
    {
      "midi": 61,
      "hit": false,
      "t": 34736.855999999985,
      "d": 427.63175000000047,
      "v": 73
    },
    {
      "midi": 67,
      "hit": false,
      "t": 34736.855999999985,
      "d": 447.3686000000016,
      "v": 70
    },
    {
      "midi": 49,
      "hit": false,
      "t": 34736.855999999985,
      "d": 2947.3696000000054,
      "v": 66
    },
    {
      "midi": 58,
      "hit": false,
      "t": 35131.592999999986,
      "d": 98.68424999999843,
      "v": 50
    },
    {
      "midi": 61,
      "hit": false,
      "t": 35526.32999999999,
      "d": 348.6843500000032,
      "v": 55
    },
    {
      "midi": 67,
      "hit": false,
      "t": 35526.32999999999,
      "d": 361.8422500000015,
      "v": 55
    },
    {
      "midi": 58,
      "hit": false,
      "t": 35921.06699999999,
      "d": 184.21059999999852,
      "v": 52
    },
    {
      "midi": 61,
      "hit": false,
      "t": 36315.80399999999,
      "d": 348.6843500000032,
      "v": 66
    },
    {
      "midi": 67,
      "hit": false,
      "t": 36315.80399999999,
      "d": 348.6843500000032,
      "v": 61
    },
    {
      "midi": 58,
      "hit": false,
      "t": 36710.54099999999,
      "d": 217.105349999998,
      "v": 48
    },
    {
      "midi": 61,
      "hit": false,
      "t": 37105.27799999999,
      "d": 348.6843500000032,
      "v": 73
    },
    {
      "midi": 68,
      "hit": false,
      "t": 37105.27799999999,
      "d": 394.737000000001,
      "v": 81
    },
    {
      "midi": 58,
      "hit": false,
      "t": 37500.01499999999,
      "d": 197.36849999999686,
      "v": 57
    },
    {
      "midi": 63,
      "hit": false,
      "t": 37894.751999999986,
      "d": 361.84224999999424,
      "v": 65
    },
    {
      "midi": 60,
      "hit": false,
      "t": 37894.751999999986,
      "d": 407.89489999999205,
      "v": 70
    },
    {
      "midi": 67,
      "hit": false,
      "t": 37894.751999999986,
      "d": 500.00019999999495,
      "v": 63
    },
    {
      "midi": 48,
      "hit": false,
      "t": 37894.751999999986,
      "d": 2914.474849999984,
      "v": 63
    },
    {
      "midi": 58,
      "hit": false,
      "t": 38289.48899999998,
      "d": 203.94744999999966,
      "v": 45
    },
    {
      "midi": 60,
      "hit": false,
      "t": 38684.22599999998,
      "d": 348.6843500000032,
      "v": 65
    },
    {
      "midi": 67,
      "hit": false,
      "t": 38684.22599999998,
      "d": 427.63175000000047,
      "v": 57
    },
    {
      "midi": 58,
      "hit": false,
      "t": 39078.96299999998,
      "d": 164.47374999999738,
      "v": 43
    },
    {
      "midi": 60,
      "hit": false,
      "t": 39473.69999999998,
      "d": 361.8422500000015,
      "v": 61
    },
    {
      "midi": 67,
      "hit": false,
      "t": 39473.69999999998,
      "d": 493.4212499999994,
      "v": 63
    },
    {
      "midi": 58,
      "hit": false,
      "t": 39868.43699999998,
      "d": 144.73689999999624,
      "v": 45
    },
    {
      "midi": 60,
      "hit": false,
      "t": 40263.17399999998,
      "d": 440.7896499999988,
      "v": 75
    },
    {
      "midi": 65,
      "hit": false,
      "t": 40263.17399999998,
      "d": 519.7370499999961,
      "v": 78
    },
    {
      "midi": 58,
      "hit": false,
      "t": 40657.91099999998,
      "d": 72.36844999999448,
      "v": 58
    },
    {
      "midi": 59,
      "hit": false,
      "t": 41052.64799999997,
      "d": 348.6843500000032,
      "v": 74
    },
    {
      "midi": 63,
      "hit": false,
      "t": 41052.64799999997,
      "d": 559.2107499999984,
      "v": 73
    },
    {
      "midi": 47,
      "hit": false,
      "t": 41052.64799999997,
      "d": 2907.8959000000104,
      "v": 57
    },
    {
      "midi": 54,
      "hit": false,
      "t": 41447.38499999997,
      "d": 184.21059999999852,
      "v": 47
    },
    {
      "midi": 59,
      "hit": false,
      "t": 41842.121999999974,
      "d": 309.2106500000009,
      "v": 53
    },
    {
      "midi": 63,
      "hit": false,
      "t": 41842.121999999974,
      "d": 407.8948999999993,
      "v": 56
    },
    {
      "midi": 54,
      "hit": false,
      "t": 42236.858999999975,
      "d": 157.89480000000185,
      "v": 42
    },
    {
      "midi": 59,
      "hit": false,
      "t": 42631.595999999976,
      "d": 328.94750000000204,
      "v": 65
    },
    {
      "midi": 63,
      "hit": false,
      "t": 42631.595999999976,
      "d": 381.57910000000265,
      "v": 65
    },
    {
      "midi": 54,
      "hit": false,
      "t": 43026.33299999998,
      "d": 151.31584999999905,
      "v": 50
    },
    {
      "midi": 65,
      "hit": false,
      "t": 43421.06999999998,
      "d": 401.3159500000038,
      "v": 75
    },
    {
      "midi": 59,
      "hit": false,
      "t": 43421.06999999998,
      "d": 434.21070000000327,
      "v": 87
    },
    {
      "midi": 54,
      "hit": false,
      "t": 43815.80699999998,
      "d": 105.26320000000123,
      "v": 59
    },
    {
      "midi": 58,
      "hit": false,
      "t": 44210.54399999998,
      "d": 269.7369499999986,
      "v": 58
    },
    {
      "midi": 63,
      "hit": false,
      "t": 44210.54399999998,
      "d": 500.0002000000022,
      "v": 83
    },
    {
      "midi": 67,
      "hit": false,
      "t": 44210.54399999998,
      "d": 578.9476000000068,
      "v": 70
    },
    {
      "midi": 51,
      "hit": false,
      "t": 44210.54399999998,
      "d": 2921.053800000016,
      "v": 75
    },
    {
      "midi": 58,
      "hit": false,
      "t": 44605.28099999998,
      "d": 144.73690000000352,
      "v": 47
    },
    {
      "midi": 67,
      "hit": false,
      "t": 45000.01799999999,
      "d": 342.1054000000004,
      "v": 67
    },
    {
      "midi": 63,
      "hit": false,
      "t": 45000.01799999999,
      "d": 355.2632999999987,
      "v": 69
    },
    {
      "midi": 58,
      "hit": false,
      "t": 45394.75499999999,
      "d": 184.21059999999852,
      "v": 48
    },
    {
      "midi": 63,
      "hit": false,
      "t": 45789.49199999999,
      "d": 322.36854999999923,
      "v": 75
    },
    {
      "midi": 67,
      "hit": false,
      "t": 45789.49199999999,
      "d": 407.8948999999993,
      "v": 72
    },
    {
      "midi": 58,
      "hit": false,
      "t": 46184.22899999999,
      "d": 236.84219999999914,
      "v": 43
    },
    {
      "midi": 63,
      "hit": false,
      "t": 46578.96599999999,
      "d": 381.57910000000265,
      "v": 85
    },
    {
      "midi": 68,
      "hit": false,
      "t": 46578.96599999999,
      "d": 453.9475500000044,
      "v": 80
    },
    {
      "midi": 58,
      "hit": false,
      "t": 46973.702999999994,
      "d": 210.52640000000247,
      "v": 52
    },
    {
      "midi": 61,
      "hit": false,
      "t": 47368.439999999995,
      "d": 427.63175000000047,
      "v": 70
    },
    {
      "midi": 67,
      "hit": false,
      "t": 47368.439999999995,
      "d": 453.94754999999714,
      "v": 72
    },
    {
      "midi": 58,
      "hit": false,
      "t": 47368.439999999995,
      "d": 546.05285,
      "v": 57
    },
    {
      "midi": 49,
      "hit": false,
      "t": 47368.439999999995,
      "d": 2940.7906499999954,
      "v": 65
    },
    {
      "midi": 61,
      "hit": false,
      "t": 48157.914,
      "d": 368.42119999999704,
      "v": 65
    },
    {
      "midi": 67,
      "hit": false,
      "t": 48157.914,
      "d": 440.7896499999915,
      "v": 59
    },
    {
      "midi": 58,
      "hit": false,
      "t": 48552.65099999999,
      "d": 223.6843000000008,
      "v": 54
    },
    {
      "midi": 61,
      "hit": false,
      "t": 48947.38799999999,
      "d": 421.05279999999766,
      "v": 64
    },
    {
      "midi": 67,
      "hit": false,
      "t": 48947.38799999999,
      "d": 434.210699999996,
      "v": 65
    },
    {
      "midi": 58,
      "hit": false,
      "t": 49342.12499999999,
      "d": 197.36849999999686,
      "v": 53
    },
    {
      "midi": 61,
      "hit": false,
      "t": 49736.86199999999,
      "d": 348.6843500000032,
      "v": 73
    },
    {
      "midi": 68,
      "hit": false,
      "t": 49736.86199999999,
      "d": 421.05280000000494,
      "v": 72
    },
    {
      "midi": 60,
      "hit": false,
      "t": 50526.33599999999,
      "d": 342.1053999999931,
      "v": 76
    },
    {
      "midi": 63,
      "hit": false,
      "t": 50526.33599999999,
      "d": 342.1053999999931,
      "v": 80
    },
    {
      "midi": 67,
      "hit": false,
      "t": 50526.33599999999,
      "d": 546.0528499999928,
      "v": 66
    },
    {
      "midi": 48,
      "hit": false,
      "t": 50526.33599999999,
      "d": 2796.0537500000064,
      "v": 72
    },
    {
      "midi": 58,
      "hit": false,
      "t": 50921.07299999998,
      "d": 203.94744999999966,
      "v": 29
    },
    {
      "midi": 63,
      "hit": false,
      "t": 51315.80999999998,
      "d": 381.57910000000265,
      "v": 70
    },
    {
      "midi": 60,
      "hit": false,
      "t": 51315.80999999998,
      "d": 447.3686000000016,
      "v": 64
    },
    {
      "midi": 67,
      "hit": false,
      "t": 51315.80999999998,
      "d": 467.10545000000275,
      "v": 53
    },
    {
      "midi": 58,
      "hit": false,
      "t": 51710.546999999984,
      "d": 164.47375000000466,
      "v": 45
    },
    {
      "midi": 63,
      "hit": false,
      "t": 52105.28399999999,
      "d": 421.05279999999766,
      "v": 61
    },
    {
      "midi": 60,
      "hit": false,
      "t": 52105.28399999999,
      "d": 546.05285,
      "v": 61
    },
    {
      "midi": 67,
      "hit": false,
      "t": 52105.28399999999,
      "d": 631.5792000000001,
      "v": 52
    },
    {
      "midi": 58,
      "hit": false,
      "t": 52500.02099999999,
      "d": 289.47379999999976,
      "v": 47
    },
    {
      "midi": 65,
      "hit": false,
      "t": 52894.757999999994,
      "d": 368.42119999999704,
      "v": 72
    },
    {
      "midi": 66,
      "hit": false,
      "t": 53730.284649999994,
      "d": 723.6844999999958,
      "v": 70
    },
    {
      "midi": 63,
      "hit": false,
      "t": 53730.284649999994,
      "d": 1131.579399999995,
      "v": 76
    },
    {
      "midi": 59,
      "hit": false,
      "t": 53736.8636,
      "d": 473.6843999999983,
      "v": 76
    },
    {
      "midi": 47,
      "hit": false,
      "t": 53736.8636,
      "d": 3131.580200000004,
      "v": 63
    },
    {
      "midi": 54,
      "hit": false,
      "t": 54111.86375,
      "d": 296.0527499999953,
      "v": 65
    },
    {
      "midi": 59,
      "hit": false,
      "t": 54506.60074999999,
      "d": 335.52644999999757,
      "v": 75
    },
    {
      "midi": 66,
      "hit": false,
      "t": 54506.60074999999,
      "d": 671.0529000000024,
      "v": 49
    },
    {
      "midi": 61,
      "hit": false,
      "t": 54894.75879999999,
      "d": 276.3159000000014,
      "v": 72
    },
    {
      "midi": 66,
      "hit": false,
      "t": 55276.33789999999,
      "d": 1552.6322000000073,
      "v": 73
    },
    {
      "midi": 61,
      "hit": false,
      "t": 55289.49579999999,
      "d": 131.57899999999063,
      "v": 80
    },
    {
      "midi": 63,
      "hit": false,
      "t": 55394.758999999984,
      "d": 1440.7900500000178,
      "v": 67
    },
    {
      "midi": 59,
      "hit": false,
      "t": 55532.916949999984,
      "d": 302.63170000000537,
      "v": 12
    },
    {
      "midi": 54,
      "hit": false,
      "t": 55677.65384999999,
      "d": 223.6843000000008,
      "v": 43
    },
    {
      "midi": 54,
      "hit": false,
      "t": 56078.96979999999,
      "d": 296.05275000000256,
      "v": 49
    },
    {
      "midi": 59,
      "hit": false,
      "t": 56085.548749999994,
      "d": 736.8424000000014,
      "v": 74
    },
    {
      "midi": 54,
      "hit": false,
      "t": 56480.285749999995,
      "d": 335.52644999999757,
      "v": 52
    },
    {
      "midi": 56,
      "hit": false,
      "t": 56842.128000000004,
      "d": 427.6317499999932,
      "v": 89
    },
    {
      "midi": 58,
      "hit": false,
      "t": 56842.128000000004,
      "d": 473.684399999991,
      "v": 90
    },
    {
      "midi": 60,
      "hit": false,
      "t": 56842.128000000004,
      "d": 486.84229999998934,
      "v": 97
    },
    {
      "midi": 63,
      "hit": false,
      "t": 56842.128000000004,
      "d": 500.0001999999877,
      "v": 75
    },
    {
      "midi": 44,
      "hit": false,
      "t": 56842.128000000004,
      "d": 2105.2639999999956,
      "v": 96
    },
    {
      "midi": 32,
      "hit": false,
      "t": 56842.128000000004,
      "d": 2953.948550000001,
      "v": 85
    },
    {
      "midi": 51,
      "hit": false,
      "t": 57236.865,
      "d": 164.47374999999738,
      "v": 61
    },
    {
      "midi": 56,
      "hit": false,
      "t": 57631.602,
      "d": 355.2632999999987,
      "v": 78
    },
    {
      "midi": 58,
      "hit": false,
      "t": 57631.602,
      "d": 453.9475500000044,
      "v": 76
    },
    {
      "midi": 63,
      "hit": false,
      "t": 57631.602,
      "d": 500.0002000000022,
      "v": 54
    },
    {
      "midi": 60,
      "hit": false,
      "t": 57631.602,
      "d": 546.05285,
      "v": 81
    },
    {
      "midi": 51,
      "hit": false,
      "t": 58026.339,
      "d": 217.105349999998,
      "v": 47
    },
    {
      "midi": 56,
      "hit": false,
      "t": 58421.076,
      "d": 388.1580499999982,
      "v": 76
    },
    {
      "midi": 58,
      "hit": false,
      "t": 58421.076,
      "d": 427.63175000000047,
      "v": 81
    },
    {
      "midi": 60,
      "hit": false,
      "t": 58421.076,
      "d": 480.2633500000011,
      "v": 79
    },
    {
      "midi": 63,
      "hit": false,
      "t": 58421.076,
      "d": 493.4212499999994,
      "v": 63
    },
    {
      "midi": 51,
      "hit": false,
      "t": 58815.813,
      "d": 164.47374999999738,
      "v": 76
    },
    {
      "midi": 44,
      "hit": false,
      "t": 59210.55,
      "d": 263.1580000000031,
      "v": 73
    },
    {
      "midi": 58,
      "hit": false,
      "t": 59210.55,
      "d": 375.0001500000071,
      "v": 70
    },
    {
      "midi": 56,
      "hit": false,
      "t": 59210.55,
      "d": 388.15805000000546,
      "v": 83
    },
    {
      "midi": 63,
      "hit": false,
      "t": 59210.55,
      "d": 710.5266000000047,
      "v": 72
    },
    {
      "midi": 43,
      "hit": false,
      "t": 59605.28700000001,
      "d": 243.42114999999467,
      "v": 72
    },
    {
      "midi": 55,
      "hit": false,
      "t": 59605.28700000001,
      "d": 322.36854999999923,
      "v": 76
    },
    {
      "midi": 53,
      "hit": false,
      "t": 60000.02400000001,
      "d": 355.2632999999987,
      "v": 81
    },
    {
      "midi": 60,
      "hit": false,
      "t": 60000.02400000001,
      "d": 473.6843999999983,
      "v": 90
    },
    {
      "midi": 63,
      "hit": false,
      "t": 60000.02400000001,
      "d": 493.4212499999994,
      "v": 67
    },
    {
      "midi": 56,
      "hit": false,
      "t": 60000.02400000001,
      "d": 506.57914999999775,
      "v": 93
    },
    {
      "midi": 29,
      "hit": false,
      "t": 60000.02400000001,
      "d": 2750.0011000000086,
      "v": 95
    },
    {
      "midi": 41,
      "hit": false,
      "t": 60000.02400000001,
      "d": 2842.106400000004,
      "v": 64
    },
    {
      "midi": 53,
      "hit": false,
      "t": 60394.76100000001,
      "d": 342.1054000000004,
      "v": 53
    },
    {
      "midi": 53,
      "hit": false,
      "t": 60789.498000000014,
      "d": 381.57910000000265,
      "v": 40
    },
    {
      "midi": 56,
      "hit": false,
      "t": 60789.498000000014,
      "d": 559.2107499999984,
      "v": 67
    },
    {
      "midi": 60,
      "hit": false,
      "t": 60789.498000000014,
      "d": 559.2107499999984,
      "v": 75
    },
    {
      "midi": 63,
      "hit": false,
      "t": 60789.498000000014,
      "d": 565.7897000000012,
      "v": 67
    },
    {
      "midi": 53,
      "hit": false,
      "t": 61184.235000000015,
      "d": 243.42115000000194,
      "v": 40
    },
    {
      "midi": 60,
      "hit": false,
      "t": 61578.972000000016,
      "d": 434.21070000000327,
      "v": 74
    },
    {
      "midi": 63,
      "hit": false,
      "t": 61578.972000000016,
      "d": 460.52649999999994,
      "v": 64
    },
    {
      "midi": 56,
      "hit": false,
      "t": 61578.972000000016,
      "d": 467.10545000000275,
      "v": 58
    },
    {
      "midi": 53,
      "hit": false,
      "t": 61973.70900000002,
      "d": 269.7369499999986,
      "v": 71
    },
    {
      "midi": 60,
      "hit": false,
      "t": 62368.44600000002,
      "d": 421.05279999999766,
      "v": 91
    },
    {
      "midi": 56,
      "hit": false,
      "t": 62368.44600000002,
      "d": 467.10544999999547,
      "v": 78
    },
    {
      "midi": 63,
      "hit": false,
      "t": 62368.44600000002,
      "d": 473.6843999999983,
      "v": 80
    },
    {
      "midi": 53,
      "hit": false,
      "t": 62763.18300000002,
      "d": 171.0527000000002,
      "v": 77
    },
    {
      "midi": 58,
      "hit": false,
      "t": 63157.92000000002,
      "d": 460.52649999999994,
      "v": 101
    },
    {
      "midi": 63,
      "hit": false,
      "t": 63157.92000000002,
      "d": 467.10545000000275,
      "v": 90
    },
    {
      "midi": 67,
      "hit": false,
      "t": 63157.92000000002,
      "d": 473.68440000000555,
      "v": 93
    },
    {
      "midi": 51,
      "hit": false,
      "t": 63157.92000000002,
      "d": 1223.6847000000053,
      "v": 96
    },
    {
      "midi": 39,
      "hit": false,
      "t": 63157.92000000002,
      "d": 1243.4215500000064,
      "v": 87
    },
    {
      "midi": 55,
      "hit": false,
      "t": 63552.65700000002,
      "d": 236.84220000000641,
      "v": 62
    },
    {
      "midi": 63,
      "hit": false,
      "t": 63947.39400000003,
      "d": 407.8948999999993,
      "v": 89
    },
    {
      "midi": 58,
      "hit": false,
      "t": 63947.39400000003,
      "d": 473.6843999999983,
      "v": 96
    },
    {
      "midi": 67,
      "hit": false,
      "t": 63947.39400000003,
      "d": 493.4212499999994,
      "v": 93
    },
    {
      "midi": 55,
      "hit": false,
      "t": 64342.13100000003,
      "d": 177.63164999999572,
      "v": 75
    },
    {
      "midi": 67,
      "hit": false,
      "t": 64736.868000000024,
      "d": 657.8949999999895,
      "v": 84
    },
    {
      "midi": 61,
      "hit": false,
      "t": 64736.868000000024,
      "d": 664.4739499999923,
      "v": 93
    },
    {
      "midi": 58,
      "hit": false,
      "t": 64736.868000000024,
      "d": 684.2107999999935,
      "v": 96
    },
    {
      "midi": 49,
      "hit": false,
      "t": 64736.868000000024,
      "d": 1269.7373499999885,
      "v": 72
    },
    {
      "midi": 37,
      "hit": false,
      "t": 64736.868000000024,
      "d": 1315.7899999999863,
      "v": 78
    },
    {
      "midi": 55,
      "hit": false,
      "t": 65131.60500000002,
      "d": 236.84219999999914,
      "v": 56
    },
    {
      "midi": 61,
      "hit": false,
      "t": 65526.34200000002,
      "d": 447.36859999998705,
      "v": 83
    },
    {
      "midi": 58,
      "hit": false,
      "t": 65526.34200000002,
      "d": 453.9475499999826,
      "v": 78
    },
    {
      "midi": 67,
      "hit": false,
      "t": 65526.34200000002,
      "d": 467.1054499999882,
      "v": 76
    },
    {
      "midi": 55,
      "hit": false,
      "t": 65921.07900000001,
      "d": 703.9476499999873,
      "v": 72
    },
    {
      "midi": 60,
      "hit": false,
      "t": 66315.816,
      "d": 552.6317999999883,
      "v": 85
    },
    {
      "midi": 58,
      "hit": false,
      "t": 66315.816,
      "d": 565.7896999999939,
      "v": 69
    },
    {
      "midi": 63,
      "hit": false,
      "t": 66315.816,
      "d": 625.0002499999973,
      "v": 71
    },
    {
      "midi": 48,
      "hit": false,
      "t": 66315.816,
      "d": 2638.158949999968,
      "v": 82
    },
    {
      "midi": 55,
      "hit": false,
      "t": 66710.553,
      "d": 302.6316999999981,
      "v": 49
    },
    {
      "midi": 60,
      "hit": false,
      "t": 67105.29,
      "d": 361.8422500000015,
      "v": 72
    },
    {
      "midi": 58,
      "hit": false,
      "t": 67105.29,
      "d": 421.05280000000494,
      "v": 64
    },
    {
      "midi": 63,
      "hit": false,
      "t": 67105.29,
      "d": 493.4212499999994,
      "v": 58
    },
    {
      "midi": 55,
      "hit": false,
      "t": 67500.027,
      "d": 236.8421999999846,
      "v": 63
    },
    {
      "midi": 58,
      "hit": false,
      "t": 67894.76399999998,
      "d": 361.8422500000015,
      "v": 83
    },
    {
      "midi": 63,
      "hit": false,
      "t": 67894.76399999998,
      "d": 526.3160000000062,
      "v": 81
    },
    {
      "midi": 55,
      "hit": false,
      "t": 68289.50099999999,
      "d": 250.0000999999902,
      "v": 39
    },
    {
      "midi": 58,
      "hit": false,
      "t": 68513.18529999998,
      "d": 98.68424999999115,
      "v": 65
    },
    {
      "midi": 65,
      "hit": false,
      "t": 68684.23799999997,
      "d": 355.263300000006,
      "v": 90
    },
    {
      "midi": 58,
      "hit": false,
      "t": 68684.23799999997,
      "d": 598.6844500000152,
      "v": 80
    },
    {
      "midi": 63,
      "hit": false,
      "t": 69078.97499999998,
      "d": 223.68430000000808,
      "v": 69
    },
    {
      "midi": 56,
      "hit": false,
      "t": 69473.71199999998,
      "d": 315.78959999998915,
      "v": 83
    },
    {
      "midi": 63,
      "hit": false,
      "t": 69473.71199999998,
      "d": 315.78959999998915,
      "v": 78
    },
    {
      "midi": 60,
      "hit": false,
      "t": 69473.71199999998,
      "d": 322.3685499999847,
      "v": 87
    },
    {
      "midi": 58,
      "hit": false,
      "t": 69473.71199999998,
      "d": 348.68434999998135,
      "v": 85
    },
    {
      "midi": 44,
      "hit": false,
      "t": 69473.71199999998,
      "d": 2072.3692499999743,
      "v": 89
    },
    {
      "midi": 32,
      "hit": false,
      "t": 69473.71199999998,
      "d": 3013.1590999999753,
      "v": 67
    },
    {
      "midi": 51,
      "hit": false,
      "t": 69868.44899999996,
      "d": 217.105349999998,
      "v": 57
    },
    {
      "midi": 56,
      "hit": false,
      "t": 70263.18599999996,
      "d": 348.6843499999959,
      "v": 78
    },
    {
      "midi": 58,
      "hit": false,
      "t": 70263.18599999996,
      "d": 381.57910000000265,
      "v": 83
    },
    {
      "midi": 63,
      "hit": false,
      "t": 70263.18599999996,
      "d": 460.5265000000072,
      "v": 70
    },
    {
      "midi": 51,
      "hit": false,
      "t": 70657.92299999997,
      "d": 243.42114999999467,
      "v": 57
    },
    {
      "midi": 58,
      "hit": false,
      "t": 71052.65999999996,
      "d": 381.57910000000265,
      "v": 80
    },
    {
      "midi": 56,
      "hit": false,
      "t": 71052.65999999996,
      "d": 394.73700000000827,
      "v": 72
    },
    {
      "midi": 60,
      "hit": false,
      "t": 71052.65999999996,
      "d": 440.7896500000061,
      "v": 84
    },
    {
      "midi": 63,
      "hit": false,
      "t": 71052.65999999996,
      "d": 572.368650000004,
      "v": 55
    },
    {
      "midi": 51,
      "hit": false,
      "t": 71447.39699999997,
      "d": 243.42114999999467,
      "v": 66
    },
    {
      "midi": 44,
      "hit": false,
      "t": 71842.13399999996,
      "d": 263.1579999999958,
      "v": 70
    },
    {
      "midi": 56,
      "hit": false,
      "t": 71842.13399999996,
      "d": 414.47384999999485,
      "v": 87
    },
    {
      "midi": 60,
      "hit": false,
      "t": 71842.13399999996,
      "d": 598.6844500000007,
      "v": 84
    },
    {
      "midi": 63,
      "hit": false,
      "t": 71842.13399999996,
      "d": 657.8950000000041,
      "v": 60
    },
    {
      "midi": 43,
      "hit": false,
      "t": 72236.87099999996,
      "d": 203.94745000000694,
      "v": 74
    },
    {
      "midi": 55,
      "hit": false,
      "t": 72236.87099999996,
      "d": 289.47380000000703,
      "v": 78
    },
    {
      "midi": 53,
      "hit": false,
      "t": 72631.60799999996,
      "d": 348.6843499999959,
      "v": 77
    },
    {
      "midi": 56,
      "hit": false,
      "t": 72631.60799999996,
      "d": 526.3159999999916,
      "v": 89
    },
    {
      "midi": 63,
      "hit": false,
      "t": 72631.60799999996,
      "d": 552.6317999999883,
      "v": 71
    },
    {
      "midi": 60,
      "hit": false,
      "t": 72631.60799999996,
      "d": 565.7896999999939,
      "v": 91
    },
    {
      "midi": 29,
      "hit": false,
      "t": 72631.60799999996,
      "d": 2684.211599999995,
      "v": 91
    },
    {
      "midi": 41,
      "hit": false,
      "t": 72631.60799999996,
      "d": 2756.5800499999896,
      "v": 61
    },
    {
      "midi": 53,
      "hit": false,
      "t": 73026.34499999996,
      "d": 256.5790500000003,
      "v": 57
    },
    {
      "midi": 53,
      "hit": false,
      "t": 73421.08199999995,
      "d": 289.47380000000703,
      "v": 65
    },
    {
      "midi": 56,
      "hit": false,
      "t": 73421.08199999995,
      "d": 368.4212000000116,
      "v": 81
    },
    {
      "midi": 60,
      "hit": false,
      "t": 73421.08199999995,
      "d": 381.5791000000172,
      "v": 87
    },
    {
      "midi": 63,
      "hit": false,
      "t": 73421.08199999995,
      "d": 394.7370000000228,
      "v": 73
    },
    {
      "midi": 53,
      "hit": false,
      "t": 73815.81899999997,
      "d": 717.105549999993,
      "v": 55
    },
    {
      "midi": 56,
      "hit": false,
      "t": 74210.55599999997,
      "d": 447.36859999998705,
      "v": 66
    },
    {
      "midi": 63,
      "hit": false,
      "t": 74210.55599999997,
      "d": 467.1054499999882,
      "v": 64
    },
    {
      "midi": 60,
      "hit": false,
      "t": 74210.55599999997,
      "d": 473.6843999999837,
      "v": 81
    },
    {
      "midi": 53,
      "hit": false,
      "t": 74605.29299999996,
      "d": 289.4737999999925,
      "v": 59
    },
    {
      "midi": 60,
      "hit": false,
      "t": 75000.02999999996,
      "d": 401.31594999998924,
      "v": 93
    },
    {
      "midi": 56,
      "hit": false,
      "t": 75000.02999999996,
      "d": 440.7896499999915,
      "v": 75
    },
    {
      "midi": 63,
      "hit": false,
      "t": 75000.02999999996,
      "d": 447.36859999998705,
      "v": 90
    },
    {
      "midi": 53,
      "hit": false,
      "t": 75394.76699999995,
      "d": 157.89479999999458,
      "v": 69
    },
    {
      "midi": 55,
      "hit": false,
      "t": 75789.50399999994,
      "d": 230.2632500000036,
      "v": 78
    },
    {
      "midi": 63,
      "hit": false,
      "t": 75789.50399999994,
      "d": 631.5792000000074,
      "v": 69
    },
    {
      "midi": 67,
      "hit": false,
      "t": 75789.50399999994,
      "d": 638.1581500000029,
      "v": 84
    },
    {
      "midi": 58,
      "hit": false,
      "t": 75789.50399999994,
      "d": 671.0529000000097,
      "v": 93
    },
    {
      "midi": 51,
      "hit": false,
      "t": 75789.50399999994,
      "d": 1315.7899999999936,
      "v": 93
    },
    {
      "midi": 39,
      "hit": false,
      "t": 75789.50399999994,
      "d": 1447.3689999999915,
      "v": 80
    },
    {
      "midi": 55,
      "hit": false,
      "t": 76184.24099999995,
      "d": 282.89484999999695,
      "v": 71
    },
    {
      "midi": 63,
      "hit": false,
      "t": 76578.97799999994,
      "d": 473.6843999999983,
      "v": 83
    },
    {
      "midi": 67,
      "hit": false,
      "t": 76578.97799999994,
      "d": 598.6844499999861,
      "v": 91
    },
    {
      "midi": 58,
      "hit": false,
      "t": 76578.97799999994,
      "d": 690.7897499999963,
      "v": 93
    },
    {
      "midi": 55,
      "hit": false,
      "t": 76973.71499999994,
      "d": 296.05275000000256,
      "v": 70
    },
    {
      "midi": 67,
      "hit": false,
      "t": 77368.45199999995,
      "d": 519.7370499999961,
      "v": 91
    },
    {
      "midi": 61,
      "hit": false,
      "t": 77368.45199999995,
      "d": 526.3159999999916,
      "v": 96
    },
    {
      "midi": 58,
      "hit": false,
      "t": 77368.45199999995,
      "d": 559.2107499999984,
      "v": 93
    },
    {
      "midi": 49,
      "hit": false,
      "t": 77368.45199999995,
      "d": 1335.5268499999802,
      "v": 96
    },
    {
      "midi": 55,
      "hit": false,
      "t": 77763.18899999994,
      "d": 236.84219999999914,
      "v": 64
    },
    {
      "midi": 61,
      "hit": false,
      "t": 78157.92599999993,
      "d": 467.1054499999882,
      "v": 73
    },
    {
      "midi": 58,
      "hit": false,
      "t": 78157.92599999993,
      "d": 473.6843999999837,
      "v": 72
    },
    {
      "midi": 67,
      "hit": false,
      "t": 78157.92599999993,
      "d": 486.84229999998934,
      "v": 78
    },
    {
      "midi": 55,
      "hit": false,
      "t": 78552.66299999993,
      "d": 236.84219999999914,
      "v": 81
    },
    {
      "midi": 55,
      "hit": false,
      "t": 78947.39999999992,
      "d": 269.7369500000059,
      "v": 55
    },
    {
      "midi": 58,
      "hit": false,
      "t": 78947.39999999992,
      "d": 407.8949000000139,
      "v": 76
    },
    {
      "midi": 60,
      "hit": false,
      "t": 78947.39999999992,
      "d": 414.4738500000094,
      "v": 88
    },
    {
      "midi": 63,
      "hit": false,
      "t": 78947.39999999992,
      "d": 500.0002000000095,
      "v": 67
    },
    {
      "midi": 48,
      "hit": false,
      "t": 78947.39999999992,
      "d": 2598.6852500000095,
      "v": 59
    },
    {
      "midi": 36,
      "hit": false,
      "t": 78947.39999999992,
      "d": 2789.474800000011,
      "v": 70
    },
    {
      "midi": 55,
      "hit": false,
      "t": 79342.13699999993,
      "d": 644.737100000013,
      "v": 41
    },
    {
      "midi": 63,
      "hit": false,
      "t": 79736.87399999994,
      "d": 348.68435000001045,
      "v": 58
    },
    {
      "midi": 67,
      "hit": false,
      "t": 79736.87399999994,
      "d": 355.263300000006,
      "v": 74
    },
    {
      "midi": 55,
      "hit": false,
      "t": 80131.61099999995,
      "d": 138.15794999999343,
      "v": 54
    },
    {
      "midi": 60,
      "hit": false,
      "t": 80526.34799999994,
      "d": 421.0527999999904,
      "v": 81
    },
    {
      "midi": 67,
      "hit": false,
      "t": 80526.34799999994,
      "d": 453.94754999999714,
      "v": 61
    },
    {
      "midi": 63,
      "hit": false,
      "t": 80526.34799999994,
      "d": 565.7896999999939,
      "v": 72
    },
    {
      "midi": 55,
      "hit": false,
      "t": 80921.08499999993,
      "d": 269.73694999999134,
      "v": 58
    },
    {
      "midi": 60,
      "hit": false,
      "t": 81144.76929999993,
      "d": 72.36844999999448,
      "v": 52
    },
    {
      "midi": 65,
      "hit": false,
      "t": 81315.82199999993,
      "d": 381.57910000000265,
      "v": 72
    },
    {
      "midi": 60,
      "hit": false,
      "t": 81315.82199999993,
      "d": 486.8423000000039,
      "v": 77
    },
    {
      "midi": 55,
      "hit": false,
      "t": 81315.82199999993,
      "d": 539.4739000000118,
      "v": 65
    },
    {
      "midi": 63,
      "hit": false,
      "t": 81710.55899999994,
      "d": 111.84214999999676,
      "v": 55
    },
    {
      "midi": 53,
      "hit": false,
      "t": 82105.29599999994,
      "d": 605.2634000000107,
      "v": 67
    },
    {
      "midi": 60,
      "hit": false,
      "t": 82105.29599999994,
      "d": 605.2634000000107,
      "v": 87
    },
    {
      "midi": 63,
      "hit": false,
      "t": 82105.29599999994,
      "d": 611.8423500000063,
      "v": 76
    },
    {
      "midi": 56,
      "hit": false,
      "t": 82105.29599999994,
      "d": 631.5792000000074,
      "v": 73
    },
    {
      "midi": 41,
      "hit": false,
      "t": 82105.29599999994,
      "d": 3157.8959999999934,
      "v": 65
    },
    {
      "midi": 29,
      "hit": false,
      "t": 82105.29599999994,
      "d": 3177.6328499999945,
      "v": 72
    },
    {
      "midi": 60,
      "hit": false,
      "t": 82894.76999999995,
      "d": 493.4212499999994,
      "v": 72
    },
    {
      "midi": 56,
      "hit": false,
      "t": 82894.76999999995,
      "d": 519.7370499999961,
      "v": 55
    },
    {
      "midi": 63,
      "hit": false,
      "t": 82894.76999999995,
      "d": 572.3686499999894,
      "v": 60
    },
    {
      "midi": 53,
      "hit": false,
      "t": 83289.50699999994,
      "d": 289.4737999999925,
      "v": 63
    },
    {
      "midi": 53,
      "hit": false,
      "t": 83684.24399999993,
      "d": 210.52640000000247,
      "v": 51
    },
    {
      "midi": 58,
      "hit": false,
      "t": 83684.24399999993,
      "d": 526.3160000000207,
      "v": 78
    },
    {
      "midi": 63,
      "hit": false,
      "t": 83684.24399999993,
      "d": 572.3686500000185,
      "v": 69
    },
    {
      "midi": 53,
      "hit": false,
      "t": 84078.98099999994,
      "d": 118.42110000000685,
      "v": 46
    },
    {
      "midi": 58,
      "hit": false,
      "t": 84473.71799999995,
      "d": 72.36844999999448,
      "v": 50
    },
    {
      "midi": 60,
      "hit": false,
      "t": 84473.71799999995,
      "d": 782.8950499999919,
      "v": 67
    },
    {
      "midi": 53,
      "hit": false,
      "t": 84473.71799999995,
      "d": 815.7897999999841,
      "v": 57
    },
    {
      "midi": 63,
      "hit": false,
      "t": 85263.19199999994,
      "d": 6.57894999999553,
      "v": 90
    },
    {
      "midi": 58,
      "hit": false,
      "t": 85263.19199999994,
      "d": 361.84224999998696,
      "v": 87
    },
    {
      "midi": 67,
      "hit": false,
      "t": 85263.19199999994,
      "d": 500.00019999999495,
      "v": 81
    },
    {
      "midi": 51,
      "hit": false,
      "t": 85263.19199999994,
      "d": 3039.474899999972,
      "v": 104
    },
    {
      "midi": 58,
      "hit": false,
      "t": 85657.92899999993,
      "d": 190.78955000000133,
      "v": 64
    },
    {
      "midi": 63,
      "hit": false,
      "t": 86052.66599999994,
      "d": 368.42119999999704,
      "v": 72
    },
    {
      "midi": 67,
      "hit": false,
      "t": 86052.66599999994,
      "d": 388.1580499999982,
      "v": 69
    },
    {
      "midi": 58,
      "hit": false,
      "t": 86447.40299999993,
      "d": 263.1579999999958,
      "v": 66
    },
    {
      "midi": 63,
      "hit": false,
      "t": 86842.13999999993,
      "d": 421.0527999999904,
      "v": 81
    },
    {
      "midi": 67,
      "hit": false,
      "t": 86842.13999999993,
      "d": 434.210699999996,
      "v": 82
    },
    {
      "midi": 58,
      "hit": false,
      "t": 87236.87699999992,
      "d": 230.2632500000036,
      "v": 73
    },
    {
      "midi": 68,
      "hit": false,
      "t": 87631.61399999993,
      "d": 532.8949499999871,
      "v": 107
    },
    {
      "midi": 63,
      "hit": false,
      "t": 87631.61399999993,
      "d": 598.6844499999861,
      "v": 80
    },
    {
      "midi": 58,
      "hit": false,
      "t": 88026.35099999992,
      "d": 309.2106499999936,
      "v": 63
    },
    {
      "midi": 67,
      "hit": false,
      "t": 88282.93004999991,
      "d": 52.63160000000789,
      "v": 65
    },
    {
      "midi": 58,
      "hit": false,
      "t": 88421.08799999992,
      "d": 342.1054000000004,
      "v": 73
    },
    {
      "midi": 67,
      "hit": false,
      "t": 88421.08799999992,
      "d": 578.9475999999995,
      "v": 81
    },
    {
      "midi": 61,
      "hit": false,
      "t": 88421.08799999992,
      "d": 598.6844500000007,
      "v": 99
    },
    {
      "midi": 49,
      "hit": false,
      "t": 88421.08799999992,
      "d": 3032.8959500000055,
      "v": 75
    },
    {
      "midi": 58,
      "hit": false,
      "t": 88815.82499999991,
      "d": 322.3685500000138,
      "v": 69
    },
    {
      "midi": 61,
      "hit": false,
      "t": 89210.56199999992,
      "d": 506.57915000000503,
      "v": 78
    },
    {
      "midi": 67,
      "hit": false,
      "t": 89210.56199999992,
      "d": 506.57915000000503,
      "v": 67
    },
    {
      "midi": 58,
      "hit": false,
      "t": 89605.29899999993,
      "d": 223.68429999999353,
      "v": 59
    },
    {
      "midi": 67,
      "hit": false,
      "t": 90000.03599999992,
      "d": 414.47384999999485,
      "v": 72
    },
    {
      "midi": 61,
      "hit": false,
      "t": 90000.03599999992,
      "d": 427.63175000000047,
      "v": 81
    },
    {
      "midi": 58,
      "hit": false,
      "t": 90394.77299999991,
      "d": 157.89480000000913,
      "v": 60
    },
    {
      "midi": 68,
      "hit": false,
      "t": 90789.50999999992,
      "d": 388.1580499999982,
      "v": 104
    },
    {
      "midi": 61,
      "hit": false,
      "t": 90789.50999999992,
      "d": 440.7896499999915,
      "v": 76
    },
    {
      "midi": 58,
      "hit": false,
      "t": 91184.24699999992,
      "d": 322.36854999999923,
      "v": 63
    },
    {
      "midi": 67,
      "hit": false,
      "t": 91440.82604999992,
      "d": 85.5263500000001,
      "v": 72
    },
    {
      "midi": 63,
      "hit": false,
      "t": 91578.98399999991,
      "d": 460.52649999999267,
      "v": 78
    },
    {
      "midi": 67,
      "hit": false,
      "t": 91578.98399999991,
      "d": 519.7370499999961,
      "v": 76
    },
    {
      "midi": 48,
      "hit": false,
      "t": 91578.98399999991,
      "d": 2888.159050000002,
      "v": 78
    },
    {
      "midi": 58,
      "hit": false,
      "t": 91973.7209999999,
      "d": 210.52640000000247,
      "v": 60
    },
    {
      "midi": 60,
      "hit": false,
      "t": 92368.45799999991,
      "d": 546.0528499999928,
      "v": 76
    },
    {
      "midi": 67,
      "hit": false,
      "t": 92368.45799999991,
      "d": 565.7896999999939,
      "v": 71
    },
    {
      "midi": 63,
      "hit": false,
      "t": 92368.45799999991,
      "d": 578.9475999999995,
      "v": 71
    },
    {
      "midi": 58,
      "hit": false,
      "t": 92763.1949999999,
      "d": 171.0527000000002,
      "v": 54
    },
    {
      "midi": 60,
      "hit": false,
      "t": 93157.93199999991,
      "d": 427.63175000000047,
      "v": 65
    },
    {
      "midi": 63,
      "hit": false,
      "t": 93157.93199999991,
      "d": 493.4212499999994,
      "v": 63
    },
    {
      "midi": 67,
      "hit": false,
      "t": 93157.93199999991,
      "d": 605.2633999999962,
      "v": 63
    },
    {
      "midi": 58,
      "hit": false,
      "t": 93552.6689999999,
      "d": 210.52640000000247,
      "v": 56
    },
    {
      "midi": 60,
      "hit": false,
      "t": 93947.40599999992,
      "d": 493.4212499999994,
      "v": 87
    },
    {
      "midi": 65,
      "hit": false,
      "t": 93947.40599999992,
      "d": 552.6318000000028,
      "v": 84
    },
    {
      "midi": 58,
      "hit": false,
      "t": 94342.14299999991,
      "d": 157.89480000000913,
      "v": 60
    },
    {
      "midi": 63,
      "hit": false,
      "t": 94598.72204999992,
      "d": 92.10529999999562,
      "v": 61
    },
    {
      "midi": 63,
      "hit": false,
      "t": 94736.87999999992,
      "d": 434.21070000001055,
      "v": 78
    },
    {
      "midi": 59,
      "hit": false,
      "t": 94736.87999999992,
      "d": 460.5265000000072,
      "v": 78
    },
    {
      "midi": 47,
      "hit": false,
      "t": 94736.87999999992,
      "d": 2848.685349999985,
      "v": 81
    },
    {
      "midi": 54,
      "hit": false,
      "t": 95131.61699999993,
      "d": 282.89484999999695,
      "v": 67
    },
    {
      "midi": 59,
      "hit": false,
      "t": 95526.35399999992,
      "d": 256.5790500000003,
      "v": 84
    },
    {
      "midi": 63,
      "hit": false,
      "t": 95526.35399999992,
      "d": 276.3159000000014,
      "v": 75
    },
    {
      "midi": 61,
      "hit": false,
      "t": 95921.09099999993,
      "d": 32.89475000000675,
      "v": 50
    },
    {
      "midi": 66,
      "hit": false,
      "t": 95921.09099999993,
      "d": 144.73690000000352,
      "v": 52
    },
    {
      "midi": 61,
      "hit": false,
      "t": 96315.82799999994,
      "d": 92.10529999999562,
      "v": 73
    },
    {
      "midi": 63,
      "hit": false,
      "t": 96315.82799999994,
      "d": 552.6317999999883,
      "v": 60
    },
    {
      "midi": 66,
      "hit": false,
      "t": 96315.82799999994,
      "d": 1256.5794499999756,
      "v": 87
    },
    {
      "midi": 54,
      "hit": false,
      "t": 96710.56499999993,
      "d": 243.42114999999467,
      "v": 59
    },
    {
      "midi": 59,
      "hit": false,
      "t": 97105.30199999992,
      "d": 421.0527999999904,
      "v": 90
    },
    {
      "midi": 54,
      "hit": false,
      "t": 97500.03899999992,
      "d": 78.94739999999001,
      "v": 65
    },
    {
      "midi": 55,
      "hit": false,
      "t": 97894.7759999999,
      "d": 322.36854999999923,
      "v": 65
    },
    {
      "midi": 63,
      "hit": false,
      "t": 97894.7759999999,
      "d": 473.6843999999983,
      "v": 72
    },
    {
      "midi": 58,
      "hit": false,
      "t": 97894.7759999999,
      "d": 513.1581000000006,
      "v": 78
    },
    {
      "midi": 51,
      "hit": false,
      "t": 97894.7759999999,
      "d": 3032.89595000002,
      "v": 90
    },
    {
      "midi": 55,
      "hit": false,
      "t": 98289.51299999989,
      "d": 263.15800000001036,
      "v": 49
    },
    {
      "midi": 63,
      "hit": false,
      "t": 98684.2499999999,
      "d": 480.26335000000836,
      "v": 60
    },
    {
      "midi": 58,
      "hit": false,
      "t": 98684.2499999999,
      "d": 526.3160000000062,
      "v": 73
    },
    {
      "midi": 67,
      "hit": false,
      "t": 98684.2499999999,
      "d": 552.6318000000028,
      "v": 70
    },
    {
      "midi": 55,
      "hit": false,
      "t": 99078.9869999999,
      "d": 263.1579999999958,
      "v": 56
    },
    {
      "midi": 63,
      "hit": false,
      "t": 99473.7239999999,
      "d": 361.8422500000015,
      "v": 60
    },
    {
      "midi": 58,
      "hit": false,
      "t": 99473.7239999999,
      "d": 434.21070000001055,
      "v": 73
    },
    {
      "midi": 67,
      "hit": false,
      "t": 99473.7239999999,
      "d": 526.3160000000062,
      "v": 72
    },
    {
      "midi": 55,
      "hit": false,
      "t": 99868.46099999991,
      "d": 78.94740000000456,
      "v": 57
    },
    {
      "midi": 63,
      "hit": false,
      "t": 100263.1979999999,
      "d": 539.4739000000118,
      "v": 60
    },
    {
      "midi": 68,
      "hit": false,
      "t": 100263.1979999999,
      "d": 546.0528500000073,
      "v": 104
    },
    {
      "midi": 58,
      "hit": false,
      "t": 100657.93499999991,
      "d": 302.63170000001264,
      "v": 78
    },
    {
      "midi": 58,
      "hit": false,
      "t": 101052.67199999992,
      "d": 335.52645000000484,
      "v": 64
    },
    {
      "midi": 61,
      "hit": false,
      "t": 101052.67199999992,
      "d": 486.8423000000039,
      "v": 83
    },
    {
      "midi": 67,
      "hit": false,
      "t": 101052.67199999992,
      "d": 565.7897000000085,
      "v": 71
    },
    {
      "midi": 49,
      "hit": false,
      "t": 101052.67199999992,
      "d": 3019.738049999971,
      "v": 80
    },
    {
      "midi": 58,
      "hit": false,
      "t": 101447.40899999993,
      "d": 236.84219999999914,
      "v": 54
    },
    {
      "midi": 67,
      "hit": false,
      "t": 101842.14599999992,
      "d": 447.3686000000016,
      "v": 72
    },
    {
      "midi": 61,
      "hit": false,
      "t": 101842.14599999992,
      "d": 453.94754999999714,
      "v": 81
    },
    {
      "midi": 58,
      "hit": false,
      "t": 102236.88299999993,
      "d": 302.63169999998354,
      "v": 63
    },
    {
      "midi": 61,
      "hit": false,
      "t": 102631.61999999991,
      "d": 473.6843999999983,
      "v": 85
    },
    {
      "midi": 67,
      "hit": false,
      "t": 102631.61999999991,
      "d": 592.1055000000051,
      "v": 63
    },
    {
      "midi": 58,
      "hit": false,
      "t": 103026.3569999999,
      "d": 289.47380000000703,
      "v": 75
    },
    {
      "midi": 61,
      "hit": false,
      "t": 103421.09399999991,
      "d": 421.0527999999904,
      "v": 81
    },
    {
      "midi": 68,
      "hit": false,
      "t": 103421.09399999991,
      "d": 421.0527999999904,
      "v": 104
    },
    {
      "midi": 58,
      "hit": false,
      "t": 103815.8309999999,
      "d": 203.9474499999924,
      "v": 67
    },
    {
      "midi": 60,
      "hit": false,
      "t": 104210.56799999988,
      "d": 480.2633499999938,
      "v": 78
    },
    {
      "midi": 63,
      "hit": false,
      "t": 104210.56799999988,
      "d": 493.4212499999994,
      "v": 73
    },
    {
      "midi": 67,
      "hit": false,
      "t": 104210.56799999988,
      "d": 559.2107499999984,
      "v": 69
    },
    {
      "midi": 48,
      "hit": false,
      "t": 104210.56799999988,
      "d": 2967.1064500000066,
      "v": 67
    },
    {
      "midi": 58,
      "hit": false,
      "t": 104605.30499999988,
      "d": 197.3685000000114,
      "v": 63
    },
    {
      "midi": 60,
      "hit": false,
      "t": 105000.04199999988,
      "d": 532.8949500000017,
      "v": 79
    },
    {
      "midi": 63,
      "hit": false,
      "t": 105000.04199999988,
      "d": 565.7897000000085,
      "v": 67
    },
    {
      "midi": 67,
      "hit": false,
      "t": 105000.04199999988,
      "d": 618.4213000000163,
      "v": 67
    },
    {
      "midi": 58,
      "hit": false,
      "t": 105394.7789999999,
      "d": 184.2106000000058,
      "v": 59
    },
    {
      "midi": 60,
      "hit": false,
      "t": 105789.5159999999,
      "d": 467.1054499999882,
      "v": 72
    },
    {
      "midi": 67,
      "hit": false,
      "t": 105789.5159999999,
      "d": 519.7370499999815,
      "v": 63
    },
    {
      "midi": 63,
      "hit": false,
      "t": 105789.5159999999,
      "d": 565.7896999999793,
      "v": 70
    },
    {
      "midi": 58,
      "hit": false,
      "t": 106184.2529999999,
      "d": 210.52639999998792,
      "v": 55
    },
    {
      "midi": 60,
      "hit": false,
      "t": 106578.98999999989,
      "d": 473.6843999999983,
      "v": 88
    },
    {
      "midi": 65,
      "hit": false,
      "t": 106578.98999999989,
      "d": 493.4212499999994,
      "v": 81
    },
    {
      "midi": 58,
      "hit": false,
      "t": 106973.72699999988,
      "d": 131.57900000001246,
      "v": 58
    },
    {
      "midi": 54,
      "hit": false,
      "t": 107368.46399999989,
      "d": 256.57905000001483,
      "v": 67
    },
    {
      "midi": 59,
      "hit": false,
      "t": 107368.46399999989,
      "d": 532.8949500000017,
      "v": 88
    },
    {
      "midi": 63,
      "hit": false,
      "t": 107368.46399999989,
      "d": 592.1055000000051,
      "v": 76
    },
    {
      "midi": 47,
      "hit": false,
      "t": 107368.46399999989,
      "d": 2927.6327499999898,
      "v": 65
    },
    {
      "midi": 54,
      "hit": false,
      "t": 107763.2009999999,
      "d": 243.42114999999467,
      "v": 44
    },
    {
      "midi": 63,
      "hit": false,
      "t": 108157.9379999999,
      "d": 421.0527999999904,
      "v": 76
    },
    {
      "midi": 59,
      "hit": false,
      "t": 108157.9379999999,
      "d": 513.158099999986,
      "v": 91
    },
    {
      "midi": 54,
      "hit": false,
      "t": 108552.67499999989,
      "d": 144.73689999998896,
      "v": 61
    },
    {
      "midi": 61,
      "hit": false,
      "t": 108947.41199999988,
      "d": 328.94749999999476,
      "v": 78
    },
    {
      "midi": 66,
      "hit": false,
      "t": 108947.41199999988,
      "d": 381.5790999999881,
      "v": 75
    },
    {
      "midi": 54,
      "hit": false,
      "t": 109342.14899999987,
      "d": 230.2632500000036,
      "v": 60
    },
    {
      "midi": 59,
      "hit": false,
      "t": 109736.88599999988,
      "d": 440.7896499999915,
      "v": 97
    },
    {
      "midi": 65,
      "hit": false,
      "t": 109736.88599999988,
      "d": 440.7896499999915,
      "v": 78
    },
    {
      "midi": 54,
      "hit": false,
      "t": 110131.62299999988,
      "d": 85.5263500000001,
      "v": 63
    },
    {
      "midi": 63,
      "hit": false,
      "t": 110526.35999999988,
      "d": 434.21070000001055,
      "v": 71
    },
    {
      "midi": 58,
      "hit": false,
      "t": 110526.35999999988,
      "d": 480.26335000000836,
      "v": 80
    },
    {
      "midi": 67,
      "hit": false,
      "t": 110526.35999999988,
      "d": 513.1581000000151,
      "v": 85
    },
    {
      "midi": 51,
      "hit": false,
      "t": 110526.35999999988,
      "d": 3032.895949999991,
      "v": 110
    },
    {
      "midi": 55,
      "hit": false,
      "t": 110921.09699999989,
      "d": 243.42115000000922,
      "v": 53
    },
    {
      "midi": 63,
      "hit": false,
      "t": 111315.8339999999,
      "d": 447.36859999998705,
      "v": 65
    },
    {
      "midi": 58,
      "hit": false,
      "t": 111315.8339999999,
      "d": 480.2633499999938,
      "v": 87
    },
    {
      "midi": 67,
      "hit": false,
      "t": 111315.8339999999,
      "d": 513.1581000000006,
      "v": 77
    },
    {
      "midi": 55,
      "hit": false,
      "t": 111710.5709999999,
      "d": 296.05275000000256,
      "v": 36
    },
    {
      "midi": 67,
      "hit": false,
      "t": 112105.3079999999,
      "d": 394.7369999999937,
      "v": 57
    },
    {
      "midi": 63,
      "hit": false,
      "t": 112105.3079999999,
      "d": 401.31594999998924,
      "v": 61
    },
    {
      "midi": 58,
      "hit": false,
      "t": 112105.3079999999,
      "d": 434.210699999996,
      "v": 70
    },
    {
      "midi": 55,
      "hit": false,
      "t": 112500.0449999999,
      "d": 263.1579999999958,
      "v": 69
    },
    {
      "midi": 68,
      "hit": false,
      "t": 112894.78199999989,
      "d": 447.36859999998705,
      "v": 104
    },
    {
      "midi": 58,
      "hit": false,
      "t": 113289.51899999988,
      "d": 269.73694999999134,
      "v": 69
    },
    {
      "midi": 67,
      "hit": false,
      "t": 113684.25599999988,
      "d": 578.9475999999995,
      "v": 76
    },
    {
      "midi": 61,
      "hit": false,
      "t": 113684.25599999988,
      "d": 585.526549999995,
      "v": 90
    },
    {
      "midi": 58,
      "hit": false,
      "t": 113684.25599999988,
      "d": 644.7370999999985,
      "v": 85
    },
    {
      "midi": 49,
      "hit": false,
      "t": 113684.25599999988,
      "d": 3006.580149999965,
      "v": 87
    },
    {
      "midi": 61,
      "hit": false,
      "t": 114473.72999999988,
      "d": 486.84229999998934,
      "v": 83
    },
    {
      "midi": 67,
      "hit": false,
      "t": 114473.72999999988,
      "d": 506.5791499999905,
      "v": 70
    },
    {
      "midi": 58,
      "hit": false,
      "t": 114868.46699999987,
      "d": 250.0000999999902,
      "v": 60
    },
    {
      "midi": 67,
      "hit": false,
      "t": 115263.20399999987,
      "d": 421.0527999999904,
      "v": 67
    },
    {
      "midi": 61,
      "hit": false,
      "t": 115263.20399999987,
      "d": 447.36859999998705,
      "v": 70
    },
    {
      "midi": 58,
      "hit": false,
      "t": 115657.94099999986,
      "d": 210.52639999998792,
      "v": 67
    },
    {
      "midi": 61,
      "hit": false,
      "t": 116052.67799999985,
      "d": 414.47384999999485,
      "v": 80
    },
    {
      "midi": 68,
      "hit": false,
      "t": 116052.67799999985,
      "d": 414.47384999999485,
      "v": 107
    },
    {
      "midi": 58,
      "hit": false,
      "t": 116447.41499999985,
      "d": 217.105349999998,
      "v": 60
    },
    {
      "midi": 63,
      "hit": false,
      "t": 116842.15199999984,
      "d": 539.4739000000118,
      "v": 78
    },
    {
      "midi": 67,
      "hit": false,
      "t": 116842.15199999984,
      "d": 546.0528500000073,
      "v": 75
    },
    {
      "midi": 60,
      "hit": false,
      "t": 116842.15199999984,
      "d": 552.6318000000028,
      "v": 87
    },
    {
      "midi": 48,
      "hit": false,
      "t": 116842.15199999984,
      "d": 2901.3169499999785,
      "v": 81
    },
    {
      "midi": 58,
      "hit": false,
      "t": 117236.88899999985,
      "d": 197.36849999999686,
      "v": 50
    },
    {
      "midi": 63,
      "hit": false,
      "t": 117631.62599999984,
      "d": 500.00019999999495,
      "v": 75
    },
    {
      "midi": 60,
      "hit": false,
      "t": 117631.62599999984,
      "d": 506.5791499999905,
      "v": 76
    },
    {
      "midi": 67,
      "hit": false,
      "t": 117631.62599999984,
      "d": 578.947599999985,
      "v": 67
    },
    {
      "midi": 58,
      "hit": false,
      "t": 118026.36299999984,
      "d": 164.4737499999901,
      "v": 57
    },
    {
      "midi": 63,
      "hit": false,
      "t": 118421.09999999983,
      "d": 440.7896499999915,
      "v": 64
    },
    {
      "midi": 60,
      "hit": false,
      "t": 118421.09999999983,
      "d": 460.52649999999267,
      "v": 59
    },
    {
      "midi": 67,
      "hit": false,
      "t": 118421.09999999983,
      "d": 572.3686499999894,
      "v": 69
    },
    {
      "midi": 58,
      "hit": false,
      "t": 118815.83699999982,
      "d": 236.84219999999914,
      "v": 57
    },
    {
      "midi": 60,
      "hit": false,
      "t": 119210.57399999982,
      "d": 427.63175000000047,
      "v": 90
    },
    {
      "midi": 65,
      "hit": false,
      "t": 119210.57399999982,
      "d": 434.210699999996,
      "v": 84
    },
    {
      "midi": 58,
      "hit": false,
      "t": 119605.31099999981,
      "d": 105.26320000000123,
      "v": 54
    },
    {
      "midi": 48,
      "hit": false,
      "t": 120000.04799999982,
      "d": 217.10535000001255,
      "v": 71
    },
    {
      "midi": 59,
      "hit": false,
      "t": 120000.04799999982,
      "d": 697.3687000000209,
      "v": 93
    },
    {
      "midi": 63,
      "hit": false,
      "t": 120000.04799999982,
      "d": 736.8424000000232,
      "v": 78
    },
    {
      "midi": 47,
      "hit": false,
      "t": 120000.04799999982,
      "d": 2861.8432500000345,
      "v": 63
    },
    {
      "midi": 54,
      "hit": false,
      "t": 120394.78499999983,
      "d": 381.5791000000172,
      "v": 63
    },
    {
      "midi": 59,
      "hit": false,
      "t": 120789.52199999985,
      "d": 315.7896000000037,
      "v": 88
    },
    {
      "midi": 63,
      "hit": false,
      "t": 120789.52199999985,
      "d": 546.0528500000073,
      "v": 69
    },
    {
      "midi": 54,
      "hit": false,
      "t": 121184.25899999986,
      "d": 184.2106000000058,
      "v": 71
    },
    {
      "midi": 63,
      "hit": false,
      "t": 121578.99599999987,
      "d": 348.6843499999959,
      "v": 73
    },
    {
      "midi": 59,
      "hit": false,
      "t": 121578.99599999987,
      "d": 368.42119999999704,
      "v": 81
    },
    {
      "midi": 54,
      "hit": false,
      "t": 121973.73299999986,
      "d": 151.31584999999905,
      "v": 54
    },
    {
      "midi": 66,
      "hit": false,
      "t": 122368.46999999986,
      "d": 381.57910000000265,
      "v": 96
    },
    {
      "midi": 61,
      "hit": false,
      "t": 122368.46999999986,
      "d": 388.1580499999982,
      "v": 81
    },
    {
      "midi": 59,
      "hit": false,
      "t": 122763.20699999985,
      "d": 65.78949999999895,
      "v": 78
    },
    {
      "midi": 54,
      "hit": false,
      "t": 122763.20699999985,
      "d": 118.42110000000685,
      "v": 76
    },
    {
      "midi": 58,
      "hit": false,
      "t": 123157.94399999986,
      "d": 480.26335000000836,
      "v": 90
    },
    {
      "midi": 56,
      "hit": false,
      "t": 123157.94399999986,
      "d": 500.0002000000095,
      "v": 96
    },
    {
      "midi": 60,
      "hit": false,
      "t": 123157.94399999986,
      "d": 578.9476000000141,
      "v": 90
    },
    {
      "midi": 63,
      "hit": false,
      "t": 123157.94399999986,
      "d": 585.5265500000096,
      "v": 75
    },
    {
      "midi": 44,
      "hit": false,
      "t": 123157.94399999986,
      "d": 2848.685349999985,
      "v": 114
    },
    {
      "midi": 51,
      "hit": false,
      "t": 123552.68099999987,
      "d": 197.36849999999686,
      "v": 54
    },
    {
      "midi": 58,
      "hit": false,
      "t": 123947.41799999986,
      "d": 26.31579999999667,
      "v": 56
    },
    {
      "midi": 56,
      "hit": false,
      "t": 123947.41799999986,
      "d": 421.0527999999904,
      "v": 78
    },
    {
      "midi": 60,
      "hit": false,
      "t": 123947.41799999986,
      "d": 427.6317499999859,
      "v": 84
    },
    {
      "midi": 63,
      "hit": false,
      "t": 123947.41799999986,
      "d": 513.158099999986,
      "v": 60
    },
    {
      "midi": 51,
      "hit": false,
      "t": 124342.15499999985,
      "d": 177.63164999999572,
      "v": 64
    },
    {
      "midi": 60,
      "hit": false,
      "t": 124736.89199999985,
      "d": 414.47384999999485,
      "v": 93
    },
    {
      "midi": 56,
      "hit": false,
      "t": 124736.89199999985,
      "d": 421.0527999999904,
      "v": 89
    },
    {
      "midi": 63,
      "hit": false,
      "t": 124736.89199999985,
      "d": 598.6844499999861,
      "v": 76
    },
    {
      "midi": 51,
      "hit": false,
      "t": 125131.62899999984,
      "d": 236.84219999999914,
      "v": 60
    },
    {
      "midi": 56,
      "hit": false,
      "t": 125526.36599999983,
      "d": 414.4738500000094,
      "v": 90
    },
    {
      "midi": 60,
      "hit": false,
      "t": 125526.36599999983,
      "d": 486.8423000000039,
      "v": 90
    },
    {
      "midi": 63,
      "hit": false,
      "t": 125526.36599999983,
      "d": 552.6318000000028,
      "v": 69
    },
    {
      "midi": 43,
      "hit": false,
      "t": 125921.10299999984,
      "d": 322.3685499999847,
      "v": 72
    },
    {
      "midi": 55,
      "hit": false,
      "t": 125921.10299999984,
      "d": 328.9474999999802,
      "v": 72
    },
    {
      "midi": 63,
      "hit": false,
      "t": 126315.83999999982,
      "d": 631.5791999999929,
      "v": 78
    },
    {
      "midi": 60,
      "hit": false,
      "t": 126315.83999999982,
      "d": 657.8949999999895,
      "v": 88
    },
    {
      "midi": 56,
      "hit": false,
      "t": 126315.83999999982,
      "d": 677.6318499999907,
      "v": 81
    },
    {
      "midi": 53,
      "hit": false,
      "t": 126315.83999999982,
      "d": 684.2107999999862,
      "v": 74
    },
    {
      "midi": 41,
      "hit": false,
      "t": 126315.83999999982,
      "d": 2743.4221499999985,
      "v": 88
    },
    {
      "midi": 63,
      "hit": false,
      "t": 127105.31399999981,
      "d": 414.47384999999485,
      "v": 70
    },
    {
      "midi": 60,
      "hit": false,
      "t": 127105.31399999981,
      "d": 427.63175000000047,
      "v": 81
    },
    {
      "midi": 56,
      "hit": false,
      "t": 127105.31399999981,
      "d": 440.7896500000061,
      "v": 75
    },
    {
      "midi": 53,
      "hit": false,
      "t": 127500.0509999998,
      "d": 276.315900000016,
      "v": 63
    },
    {
      "midi": 60,
      "hit": false,
      "t": 127894.78799999983,
      "d": 394.7369999999937,
      "v": 85
    },
    {
      "midi": 56,
      "hit": false,
      "t": 127894.78799999983,
      "d": 407.8948999999993,
      "v": 75
    },
    {
      "midi": 63,
      "hit": false,
      "t": 127894.78799999983,
      "d": 414.47384999999485,
      "v": 72
    },
    {
      "midi": 53,
      "hit": false,
      "t": 128289.52499999982,
      "d": 322.36854999999923,
      "v": 59
    },
    {
      "midi": 60,
      "hit": false,
      "t": 128684.26199999981,
      "d": 434.21070000001055,
      "v": 88
    },
    {
      "midi": 56,
      "hit": false,
      "t": 128684.26199999981,
      "d": 467.1054500000173,
      "v": 80
    },
    {
      "midi": 63,
      "hit": false,
      "t": 128684.26199999981,
      "d": 493.42125000001397,
      "v": 76
    },
    {
      "midi": 53,
      "hit": false,
      "t": 129078.99899999982,
      "d": 269.7369500000059,
      "v": 75
    },
    {
      "midi": 67,
      "hit": false,
      "t": 129473.73599999983,
      "d": 644.7370999999985,
      "v": 90
    },
    {
      "midi": 63,
      "hit": false,
      "t": 129473.73599999983,
      "d": 671.0528999999951,
      "v": 85
    },
    {
      "midi": 58,
      "hit": false,
      "t": 129473.73599999983,
      "d": 677.6318499999907,
      "v": 93
    },
    {
      "midi": 51,
      "hit": false,
      "t": 129473.73599999983,
      "d": 1440.7900499999669,
      "v": 114
    },
    {
      "midi": 55,
      "hit": false,
      "t": 129868.47299999982,
      "d": 276.3159000000014,
      "v": 65
    },
    {
      "midi": 58,
      "hit": false,
      "t": 130263.20999999982,
      "d": 447.36859999998705,
      "v": 90
    },
    {
      "midi": 63,
      "hit": false,
      "t": 130263.20999999982,
      "d": 453.9475499999826,
      "v": 83
    },
    {
      "midi": 67,
      "hit": false,
      "t": 130263.20999999982,
      "d": 526.3159999999771,
      "v": 90
    },
    {
      "midi": 55,
      "hit": false,
      "t": 130657.94699999981,
      "d": 230.26324999998906,
      "v": 65
    },
    {
      "midi": 61,
      "hit": false,
      "t": 131052.68399999979,
      "d": 546.0528500000219,
      "v": 101
    },
    {
      "midi": 58,
      "hit": false,
      "t": 131052.68399999979,
      "d": 585.5265500000241,
      "v": 104
    },
    {
      "midi": 67,
      "hit": false,
      "t": 131052.68399999979,
      "d": 592.1055000000197,
      "v": 91
    },
    {
      "midi": 49,
      "hit": false,
      "t": 131052.68399999979,
      "d": 1526.316399999996,
      "v": 104
    },
    {
      "midi": 55,
      "hit": false,
      "t": 131447.4209999998,
      "d": 203.94745000000694,
      "v": 58
    },
    {
      "midi": 58,
      "hit": false,
      "t": 131842.1579999998,
      "d": 473.6843999999983,
      "v": 89
    },
    {
      "midi": 61,
      "hit": false,
      "t": 131842.1579999998,
      "d": 493.42124999998487,
      "v": 89
    },
    {
      "midi": 67,
      "hit": false,
      "t": 131842.1579999998,
      "d": 703.9476499999873,
      "v": 85
    },
    {
      "midi": 55,
      "hit": false,
      "t": 132236.8949999998,
      "d": 138.15794999999343,
      "v": 67
    },
    {
      "midi": 63,
      "hit": false,
      "t": 132631.63199999978,
      "d": 282.8948500000115,
      "v": 75
    },
    {
      "midi": 60,
      "hit": false,
      "t": 132631.63199999978,
      "d": 407.8948999999848,
      "v": 91
    },
    {
      "midi": 67,
      "hit": false,
      "t": 132631.63199999978,
      "d": 539.4738999999827,
      "v": 65
    },
    {
      "midi": 48,
      "hit": false,
      "t": 132631.63199999978,
      "d": 2802.6326999999583,
      "v": 95
    },
    {
      "midi": 58,
      "hit": false,
      "t": 133026.36899999977,
      "d": 203.94744999997783,
      "v": 54
    },
    {
      "midi": 63,
      "hit": false,
      "t": 133421.10599999974,
      "d": 677.6318499999761,
      "v": 71
    },
    {
      "midi": 67,
      "hit": false,
      "t": 133421.10599999974,
      "d": 690.7897499999672,
      "v": 84
    },
    {
      "midi": 60,
      "hit": false,
      "t": 133421.10599999974,
      "d": 710.5265999999538,
      "v": 88
    },
    {
      "midi": 58,
      "hit": false,
      "t": 133815.84299999973,
      "d": 223.68429999999353,
      "v": 63
    },
    {
      "midi": 60,
      "hit": false,
      "t": 134210.5799999997,
      "d": 368.4212000000116,
      "v": 81
    },
    {
      "midi": 63,
      "hit": false,
      "t": 134210.5799999997,
      "d": 473.6844000000274,
      "v": 78
    },
    {
      "midi": 67,
      "hit": false,
      "t": 134210.5799999997,
      "d": 500.0002000000386,
      "v": 72
    },
    {
      "midi": 58,
      "hit": false,
      "t": 134605.31699999972,
      "d": 177.63165000002482,
      "v": 61
    },
    {
      "midi": 60,
      "hit": false,
      "t": 135000.05399999974,
      "d": 361.84224999998696,
      "v": 93
    },
    {
      "midi": 65,
      "hit": false,
      "t": 135000.05399999974,
      "d": 361.84224999998696,
      "v": 87
    },
    {
      "midi": 60,
      "hit": false,
      "t": 135394.79099999974,
      "d": 59.21054999998887,
      "v": 72
    },
    {
      "midi": 63,
      "hit": false,
      "t": 135394.79099999974,
      "d": 78.94739999997546,
      "v": 76
    },
    {
      "midi": 58,
      "hit": false,
      "t": 135789.5279999997,
      "d": 578.9475999999559,
      "v": 89
    },
    {
      "midi": 56,
      "hit": false,
      "t": 135789.5279999997,
      "d": 638.1581499999447,
      "v": 87
    },
    {
      "midi": 60,
      "hit": false,
      "t": 135789.5279999997,
      "d": 703.9476499999582,
      "v": 93
    },
    {
      "midi": 63,
      "hit": false,
      "t": 135789.5279999997,
      "d": 710.5265999999538,
      "v": 76
    },
    {
      "midi": 44,
      "hit": false,
      "t": 135789.5279999997,
      "d": 2282.895649999904,
      "v": 107
    },
    {
      "midi": 51,
      "hit": false,
      "t": 136184.26499999966,
      "d": 282.8948499999824,
      "v": 60
    },
    {
      "midi": 60,
      "hit": false,
      "t": 136579.00199999966,
      "d": 414.4738499999803,
      "v": 74
    },
    {
      "midi": 58,
      "hit": false,
      "t": 136579.00199999966,
      "d": 506.5791499999759,
      "v": 73
    },
    {
      "midi": 56,
      "hit": false,
      "t": 136579.00199999966,
      "d": 519.737049999967,
      "v": 69
    },
    {
      "midi": 63,
      "hit": false,
      "t": 136579.00199999966,
      "d": 585.5265499999805,
      "v": 65
    },
    {
      "midi": 51,
      "hit": false,
      "t": 136973.73899999965,
      "d": 236.8421999999846,
      "v": 60
    },
    {
      "midi": 58,
      "hit": false,
      "t": 137368.47599999965,
      "d": 493.42124999998487,
      "v": 81
    },
    {
      "midi": 56,
      "hit": false,
      "t": 137368.47599999965,
      "d": 500.0001999999804,
      "v": 75
    },
    {
      "midi": 60,
      "hit": false,
      "t": 137368.47599999965,
      "d": 546.0528499999782,
      "v": 85
    },
    {
      "midi": 63,
      "hit": false,
      "t": 137368.47599999965,
      "d": 592.105499999976,
      "v": 64
    },
    {
      "midi": 51,
      "hit": false,
      "t": 137763.21299999964,
      "d": 296.05274999997346,
      "v": 67
    },
    {
      "midi": 56,
      "hit": false,
      "t": 138157.9499999996,
      "d": 388.1580499999982,
      "v": 90
    },
    {
      "midi": 44,
      "hit": false,
      "t": 138157.9499999996,
      "d": 394.7369999999937,
      "v": 83
    },
    {
      "midi": 60,
      "hit": false,
      "t": 138157.9499999996,
      "d": 427.63175000000047,
      "v": 88
    },
    {
      "midi": 63,
      "hit": false,
      "t": 138157.9499999996,
      "d": 605.2633999999962,
      "v": 63
    },
    {
      "midi": 43,
      "hit": false,
      "t": 138552.6869999996,
      "d": 309.2106499999936,
      "v": 95
    },
    {
      "midi": 55,
      "hit": false,
      "t": 138552.6869999996,
      "d": 322.3685499999847,
      "v": 81
    },
    {
      "midi": 56,
      "hit": false,
      "t": 138947.4239999996,
      "d": 644.7370999999985,
      "v": 89
    },
    {
      "midi": 60,
      "hit": false,
      "t": 138947.4239999996,
      "d": 651.316049999994,
      "v": 90
    },
    {
      "midi": 63,
      "hit": false,
      "t": 138947.4239999996,
      "d": 651.316049999994,
      "v": 72
    },
    {
      "midi": 53,
      "hit": false,
      "t": 138947.4239999996,
      "d": 697.3686999999918,
      "v": 81
    },
    {
      "midi": 41,
      "hit": false,
      "t": 138947.4239999996,
      "d": 2684.2115999999514,
      "v": 90
    },
    {
      "midi": 56,
      "hit": false,
      "t": 139736.89799999958,
      "d": 407.8948999999848,
      "v": 85
    },
    {
      "midi": 63,
      "hit": false,
      "t": 139736.89799999958,
      "d": 434.210699999996,
      "v": 66
    },
    {
      "midi": 60,
      "hit": false,
      "t": 139736.89799999958,
      "d": 453.9475499999826,
      "v": 81
    },
    {
      "midi": 53,
      "hit": false,
      "t": 140131.63499999957,
      "d": 684.2108000000007,
      "v": 51
    },
    {
      "midi": 60,
      "hit": false,
      "t": 140526.37199999957,
      "d": 473.6843999999983,
      "v": 88
    },
    {
      "midi": 56,
      "hit": false,
      "t": 140526.37199999957,
      "d": 500.0002000000095,
      "v": 81
    },
    {
      "midi": 63,
      "hit": false,
      "t": 140526.37199999957,
      "d": 519.7370499999961,
      "v": 70
    },
    {
      "midi": 53,
      "hit": false,
      "t": 140921.10899999956,
      "d": 342.1054000000004,
      "v": 71
    },
    {
      "midi": 60,
      "hit": false,
      "t": 141315.84599999955,
      "d": 414.4738499999803,
      "v": 91
    },
    {
      "midi": 63,
      "hit": false,
      "t": 141315.84599999955,
      "d": 427.63174999997136,
      "v": 69
    },
    {
      "midi": 56,
      "hit": false,
      "t": 141315.84599999955,
      "d": 434.2106999999669,
      "v": 89
    },
    {
      "midi": 41,
      "hit": false,
      "t": 141710.58299999955,
      "d": 131.5789999999688,
      "v": 75
    },
    {
      "midi": 53,
      "hit": false,
      "t": 141710.58299999955,
      "d": 236.84219999995548,
      "v": 81
    },
    {
      "midi": 58,
      "hit": false,
      "t": 142105.3199999995,
      "d": 519.7370500000252,
      "v": 93
    },
    {
      "midi": 63,
      "hit": false,
      "t": 142105.3199999995,
      "d": 559.2107500000275,
      "v": 83
    },
    {
      "midi": 67,
      "hit": false,
      "t": 142105.3199999995,
      "d": 598.6844500000298,
      "v": 75
    },
    {
      "midi": 51,
      "hit": false,
      "t": 142105.3199999995,
      "d": 1453.9479500000016,
      "v": 114
    },
    {
      "midi": 55,
      "hit": false,
      "t": 142500.05699999954,
      "d": 296.05275000000256,
      "v": 63
    },
    {
      "midi": 63,
      "hit": false,
      "t": 142894.79399999953,
      "d": 460.5265000000072,
      "v": 85
    },
    {
      "midi": 67,
      "hit": false,
      "t": 142894.79399999953,
      "d": 598.6844500000007,
      "v": 93
    },
    {
      "midi": 58,
      "hit": false,
      "t": 142894.79399999953,
      "d": 618.4212999999872,
      "v": 96
    },
    {
      "midi": 55,
      "hit": false,
      "t": 143289.53099999952,
      "d": 276.31589999998687,
      "v": 76
    },
    {
      "midi": 61,
      "hit": false,
      "t": 143684.26799999952,
      "d": 565.7896999999939,
      "v": 99
    },
    {
      "midi": 67,
      "hit": false,
      "t": 143684.26799999952,
      "d": 598.6844500000007,
      "v": 91
    },
    {
      "midi": 58,
      "hit": false,
      "t": 143684.26799999952,
      "d": 631.5792000000074,
      "v": 90
    },
    {
      "midi": 49,
      "hit": false,
      "t": 143684.26799999952,
      "d": 1473.6847999999882,
      "v": 99
    },
    {
      "midi": 55,
      "hit": false,
      "t": 144079.0049999995,
      "d": 197.3685000000114,
      "v": 69
    },
    {
      "midi": 58,
      "hit": false,
      "t": 144473.74199999953,
      "d": 480.2633499999938,
      "v": 87
    },
    {
      "midi": 61,
      "hit": false,
      "t": 144473.74199999953,
      "d": 486.84229999998934,
      "v": 96
    },
    {
      "midi": 67,
      "hit": false,
      "t": 144473.74199999953,
      "d": 592.105499999976,
      "v": 93
    },
    {
      "midi": 55,
      "hit": false,
      "t": 144868.47899999953,
      "d": 282.8948499999824,
      "v": 63
    },
    {
      "midi": 60,
      "hit": false,
      "t": 145263.2159999995,
      "d": 361.84225000001607,
      "v": 84
    },
    {
      "midi": 63,
      "hit": false,
      "t": 145263.2159999995,
      "d": 447.36860000001616,
      "v": 71
    },
    {
      "midi": 67,
      "hit": false,
      "t": 145263.2159999995,
      "d": 532.8949500000163,
      "v": 72
    },
    {
      "midi": 48,
      "hit": false,
      "t": 145263.2159999995,
      "d": 2855.26430000001,
      "v": 82
    },
    {
      "midi": 58,
      "hit": false,
      "t": 145657.9529999995,
      "d": 250.00010000000475,
      "v": 54
    },
    {
      "midi": 60,
      "hit": false,
      "t": 146052.6899999995,
      "d": 381.57910000000265,
      "v": 88
    },
    {
      "midi": 63,
      "hit": false,
      "t": 146052.6899999995,
      "d": 460.5265000000072,
      "v": 73
    },
    {
      "midi": 67,
      "hit": false,
      "t": 146052.6899999995,
      "d": 644.7370999999985,
      "v": 71
    },
    {
      "midi": 58,
      "hit": false,
      "t": 146447.4269999995,
      "d": 203.94745000000694,
      "v": 61
    },
    {
      "midi": 60,
      "hit": false,
      "t": 146842.1639999995,
      "d": 500.0001999999804,
      "v": 90
    },
    {
      "midi": 63,
      "hit": false,
      "t": 146842.1639999995,
      "d": 565.7896999999939,
      "v": 85
    },
    {
      "midi": 67,
      "hit": false,
      "t": 146842.1639999995,
      "d": 631.5792000000074,
      "v": 72
    },
    {
      "midi": 58,
      "hit": false,
      "t": 147236.9009999995,
      "d": 203.94745000000694,
      "v": 60
    },
    {
      "midi": 65,
      "hit": false,
      "t": 147631.6379999995,
      "d": 407.8948999999848,
      "v": 88
    },
    {
      "midi": 60,
      "hit": false,
      "t": 147631.6379999995,
      "d": 480.2633499999938,
      "v": 99
    },
    {
      "midi": 63,
      "hit": false,
      "t": 148026.3749999995,
      "d": 78.94740000000456,
      "v": 75
    },
    {
      "midi": 53,
      "hit": false,
      "t": 148421.1119999995,
      "d": 2125.000849999982,
      "v": 81
    },
    {
      "midi": 56,
      "hit": false,
      "t": 148421.1119999995,
      "d": 2223.6850999999733,
      "v": 87
    },
    {
      "midi": 60,
      "hit": false,
      "t": 148421.1119999995,
      "d": 2322.3693499999645,
      "v": 95
    },
    {
      "midi": 63,
      "hit": false,
      "t": 148421.1119999995,
      "d": 2355.264099999942,
      "v": 78
    },
    {
      "midi": 41,
      "hit": false,
      "t": 148421.1119999995,
      "d": 3171.0538999999117,
      "v": 93
    },
    {
      "midi": 53,
      "hit": false,
      "t": 150651.37604999947,
      "d": 105.26319999998668,
      "v": 54
    },
    {
      "midi": 58,
      "hit": false,
      "t": 150789.53399999943,
      "d": 184.21059999999125,
      "v": 114
    },
    {
      "midi": 53,
      "hit": false,
      "t": 150789.53399999943,
      "d": 769.7371500000008,
      "v": 66
    },
    {
      "midi": 60,
      "hit": false,
      "t": 151046.11304999943,
      "d": 98.68424999999115,
      "v": 84
    },
    {
      "midi": 63,
      "hit": false,
      "t": 151184.27099999943,
      "d": 361.84225000001607,
      "v": 89
    },
    {
      "midi": 58,
      "hit": false,
      "t": 151184.27099999943,
      "d": 368.4212000000116,
      "v": 90
    },
    {
      "midi": 58,
      "hit": false,
      "t": 151579.00799999942,
      "d": 361.84224999998696,
      "v": 110
    },
    {
      "midi": 67,
      "hit": false,
      "t": 151579.00799999942,
      "d": 447.36859999998705,
      "v": 102
    },
    {
      "midi": 63,
      "hit": false,
      "t": 151579.00799999942,
      "d": 467.10544999997364,
      "v": 110
    },
    {
      "midi": 51,
      "hit": false,
      "t": 151579.00799999942,
      "d": 3032.8959499999473,
      "v": 114
    },
    {
      "midi": 39,
      "hit": false,
      "t": 151579.00799999942,
      "d": 3118.4222999999474,
      "v": 104
    },
    {
      "midi": 58,
      "hit": false,
      "t": 151973.7449999994,
      "d": 263.1579999999667,
      "v": 76
    },
    {
      "midi": 63,
      "hit": false,
      "t": 152368.48199999938,
      "d": 559.2107499999984,
      "v": 107
    },
    {
      "midi": 67,
      "hit": false,
      "t": 152368.48199999938,
      "d": 710.526600000012,
      "v": 93
    },
    {
      "midi": 58,
      "hit": false,
      "t": 152763.21899999937,
      "d": 328.9475000000093,
      "v": 96
    },
    {
      "midi": 63,
      "hit": false,
      "t": 153157.9559999994,
      "d": 611.8423499999917,
      "v": 104
    },
    {
      "midi": 67,
      "hit": false,
      "t": 153157.9559999994,
      "d": 651.316049999994,
      "v": 99
    },
    {
      "midi": 58,
      "hit": false,
      "t": 153552.6929999994,
      "d": 276.31589999998687,
      "v": 72
    },
    {
      "midi": 68,
      "hit": false,
      "t": 153947.42999999938,
      "d": 585.5265499999805,
      "v": 114
    },
    {
      "midi": 63,
      "hit": false,
      "t": 153947.42999999938,
      "d": 723.6844999999739,
      "v": 107
    },
    {
      "midi": 58,
      "hit": false,
      "t": 154342.16699999938,
      "d": 328.9474999999802,
      "v": 78
    },
    {
      "midi": 67,
      "hit": false,
      "t": 154598.74604999938,
      "d": 98.68424999999115,
      "v": 81
    },
    {
      "midi": 58,
      "hit": false,
      "t": 154736.90399999937,
      "d": 328.9475000000093,
      "v": 93
    },
    {
      "midi": 61,
      "hit": false,
      "t": 154736.90399999937,
      "d": 453.9475500000117,
      "v": 107
    },
    {
      "midi": 67,
      "hit": false,
      "t": 154736.90399999937,
      "d": 585.5265500000096,
      "v": 85
    },
    {
      "midi": 49,
      "hit": false,
      "t": 154736.90399999937,
      "d": 3019.7380499999563,
      "v": 114
    },
    {
      "midi": 58,
      "hit": false,
      "t": 155131.6409999994,
      "d": 289.4737999999779,
      "v": 67
    },
    {
      "midi": 61,
      "hit": false,
      "t": 155526.37799999936,
      "d": 559.2107499999984,
      "v": 104
    },
    {
      "midi": 67,
      "hit": false,
      "t": 155526.37799999936,
      "d": 618.4212999999872,
      "v": 95
    },
    {
      "midi": 58,
      "hit": false,
      "t": 155921.11499999935,
      "d": 282.8948499999824,
      "v": 71
    },
    {
      "midi": 61,
      "hit": false,
      "t": 156315.85199999934,
      "d": 434.210699999996,
      "v": 104
    },
    {
      "midi": 67,
      "hit": false,
      "t": 156315.85199999934,
      "d": 486.84229999998934,
      "v": 90
    },
    {
      "midi": 58,
      "hit": false,
      "t": 156710.58899999934,
      "d": 190.78954999998678,
      "v": 65
    },
    {
      "midi": 68,
      "hit": false,
      "t": 157105.32599999933,
      "d": 453.9475499999826,
      "v": 114
    },
    {
      "midi": 61,
      "hit": false,
      "t": 157105.32599999933,
      "d": 572.3686499999894,
      "v": 104
    },
    {
      "midi": 58,
      "hit": false,
      "t": 157500.06299999933,
      "d": 184.21059999999125,
      "v": 61
    },
    {
      "midi": 67,
      "hit": false,
      "t": 157756.64204999933,
      "d": 78.94740000000456,
      "v": 72
    },
    {
      "midi": 60,
      "hit": false,
      "t": 157894.79999999932,
      "d": 407.8948999999848,
      "v": 93
    },
    {
      "midi": 63,
      "hit": false,
      "t": 157894.79999999932,
      "d": 434.210699999996,
      "v": 83
    },
    {
      "midi": 67,
      "hit": false,
      "t": 157894.79999999932,
      "d": 486.84229999998934,
      "v": 81
    },
    {
      "midi": 48,
      "hit": false,
      "t": 157894.79999999932,
      "d": 3019.7380499999563,
      "v": 90
    },
    {
      "midi": 58,
      "hit": false,
      "t": 158289.5369999993,
      "d": 184.21059999999125,
      "v": 73
    },
    {
      "midi": 63,
      "hit": false,
      "t": 158684.2739999993,
      "d": 315.78959999998915,
      "v": 87
    },
    {
      "midi": 60,
      "hit": false,
      "t": 158684.2739999993,
      "d": 322.3685499999847,
      "v": 100
    },
    {
      "midi": 67,
      "hit": false,
      "t": 158684.2739999993,
      "d": 421.05280000000494,
      "v": 72
    },
    {
      "midi": 58,
      "hit": false,
      "t": 159079.0109999993,
      "d": 144.73690000001807,
      "v": 54
    },
    {
      "midi": 60,
      "hit": false,
      "t": 159473.74799999932,
      "d": 421.05280000000494,
      "v": 93
    },
    {
      "midi": 63,
      "hit": false,
      "t": 159473.74799999932,
      "d": 440.7896499999915,
      "v": 83
    },
    {
      "midi": 67,
      "hit": false,
      "t": 159473.74799999932,
      "d": 611.8423499999917,
      "v": 74
    },
    {
      "midi": 58,
      "hit": false,
      "t": 159868.48499999932,
      "d": 157.89480000000913,
      "v": 61
    },
    {
      "midi": 65,
      "hit": false,
      "t": 160263.2219999993,
      "d": 539.4738999999827,
      "v": 99
    },
    {
      "midi": 60,
      "hit": false,
      "t": 160263.2219999993,
      "d": 552.6317999999737,
      "v": 105
    },
    {
      "midi": 58,
      "hit": false,
      "t": 160657.9589999993,
      "d": 131.5789999999979,
      "v": 58
    },
    {
      "midi": 63,
      "hit": false,
      "t": 160914.53804999928,
      "d": 59.21054999998887,
      "v": 63
    },
    {
      "midi": 63,
      "hit": false,
      "t": 161052.69599999927,
      "d": 361.84224999998696,
      "v": 87
    },
    {
      "midi": 47,
      "hit": false,
      "t": 161052.69599999927,
      "d": 1467.1058499999926,
      "v": 95
    },
    {
      "midi": 54,
      "hit": false,
      "t": 161447.43299999926,
      "d": 184.21059999999125,
      "v": 81
    },
    {
      "midi": 61,
      "hit": false,
      "t": 161842.16999999926,
      "d": 361.84224999998696,
      "v": 96
    },
    {
      "midi": 59,
      "hit": false,
      "t": 161842.16999999926,
      "d": 388.1580499999982,
      "v": 85
    },
    {
      "midi": 66,
      "hit": false,
      "t": 161842.16999999926,
      "d": 526.3159999999916,
      "v": 107
    },
    {
      "midi": 54,
      "hit": false,
      "t": 162236.90699999925,
      "d": 210.52640000000247,
      "v": 75
    },
    {
      "midi": 54,
      "hit": false,
      "t": 162631.64399999927,
      "d": 131.5789999999979,
      "v": 83
    },
    {
      "midi": 63,
      "hit": false,
      "t": 162631.64399999927,
      "d": 427.63175000000047,
      "v": 80
    },
    {
      "midi": 59,
      "hit": false,
      "t": 162631.64399999927,
      "d": 473.6843999999983,
      "v": 90
    },
    {
      "midi": 66,
      "hit": false,
      "t": 162631.64399999927,
      "d": 539.4739000000118,
      "v": 67
    },
    {
      "midi": 47,
      "hit": false,
      "t": 162631.64399999927,
      "d": 1013.1583000000101,
      "v": 91
    },
    {
      "midi": 54,
      "hit": false,
      "t": 163026.38099999927,
      "d": 223.68430000002263,
      "v": 83
    },
    {
      "midi": 54,
      "hit": false,
      "t": 163421.1179999993,
      "d": 269.73694999999134,
      "v": 114
    },
    {
      "midi": 59,
      "hit": false,
      "t": 163421.1179999993,
      "d": 381.57910000000265,
      "v": 105
    },
    {
      "midi": 63,
      "hit": false,
      "t": 163421.1179999993,
      "d": 440.7896499999915,
      "v": 90
    },
    {
      "midi": 54,
      "hit": false,
      "t": 163815.85499999928,
      "d": 52.63159999999334,
      "v": 73
    },
    {
      "midi": 55,
      "hit": false,
      "t": 164210.59199999928,
      "d": 309.2106499999936,
      "v": 91
    },
    {
      "midi": 63,
      "hit": false,
      "t": 164210.59199999928,
      "d": 546.0528500000073,
      "v": 89
    },
    {
      "midi": 67,
      "hit": false,
      "t": 164210.59199999928,
      "d": 578.9476000000141,
      "v": 93
    },
    {
      "midi": 58,
      "hit": false,
      "t": 164210.59199999928,
      "d": 611.8423500000208,
      "v": 110
    },
    {
      "midi": 51,
      "hit": false,
      "t": 164210.59199999928,
      "d": 3019.7380500000145,
      "v": 114
    },
    {
      "midi": 39,
      "hit": false,
      "t": 164210.59199999928,
      "d": 3125.001250000001,
      "v": 110
    },
    {
      "midi": 55,
      "hit": false,
      "t": 164605.32899999927,
      "d": 282.8948500000406,
      "v": 61
    },
    {
      "midi": 58,
      "hit": false,
      "t": 165000.06599999932,
      "d": 440.7896499999915,
      "v": 101
    },
    {
      "midi": 67,
      "hit": false,
      "t": 165000.06599999932,
      "d": 447.36859999998705,
      "v": 91
    },
    {
      "midi": 63,
      "hit": false,
      "t": 165000.06599999932,
      "d": 453.9475499999826,
      "v": 87
    },
    {
      "midi": 55,
      "hit": false,
      "t": 165394.80299999932,
      "d": 236.8421999999846,
      "v": 74
    },
    {
      "midi": 58,
      "hit": false,
      "t": 165789.5399999993,
      "d": 171.0527000000002,
      "v": 93
    },
    {
      "midi": 63,
      "hit": false,
      "t": 165789.5399999993,
      "d": 223.68429999999353,
      "v": 90
    },
    {
      "midi": 67,
      "hit": false,
      "t": 165789.5399999993,
      "d": 230.26324999998906,
      "v": 97
    },
    {
      "midi": 58,
      "hit": false,
      "t": 166184.2769999993,
      "d": 296.05275000000256,
      "v": 89
    },
    {
      "midi": 68,
      "hit": false,
      "t": 166579.0139999993,
      "d": 546.0528500000073,
      "v": 114
    },
    {
      "midi": 63,
      "hit": false,
      "t": 166579.0139999993,
      "d": 651.316049999994,
      "v": 99
    },
    {
      "midi": 58,
      "hit": false,
      "t": 166973.7509999993,
      "d": 309.2106499999936,
      "v": 81
    },
    {
      "midi": 67,
      "hit": false,
      "t": 167230.3300499993,
      "d": 105.26319999998668,
      "v": 84
    },
    {
      "midi": 58,
      "hit": false,
      "t": 167368.48799999928,
      "d": 342.10539999997127,
      "v": 99
    },
    {
      "midi": 61,
      "hit": false,
      "t": 167368.48799999928,
      "d": 519.737049999967,
      "v": 114
    },
    {
      "midi": 67,
      "hit": false,
      "t": 167368.48799999928,
      "d": 638.1581499999738,
      "v": 100
    },
    {
      "midi": 49,
      "hit": false,
      "t": 167368.48799999928,
      "d": 2986.8432999999204,
      "v": 114
    },
    {
      "midi": 58,
      "hit": false,
      "t": 167763.22499999925,
      "d": 296.05275000000256,
      "v": 63
    },
    {
      "midi": 61,
      "hit": false,
      "t": 168157.96199999924,
      "d": 394.7369999999937,
      "v": 101
    },
    {
      "midi": 67,
      "hit": false,
      "t": 168157.96199999924,
      "d": 401.31594999998924,
      "v": 91
    },
    {
      "midi": 58,
      "hit": false,
      "t": 168552.69899999924,
      "d": 263.1579999999958,
      "v": 81
    },
    {
      "midi": 67,
      "hit": false,
      "t": 168947.43599999923,
      "d": 440.7896499999915,
      "v": 95
    },
    {
      "midi": 61,
      "hit": false,
      "t": 168947.43599999923,
      "d": 473.6843999999983,
      "v": 110
    },
    {
      "midi": 58,
      "hit": false,
      "t": 169342.17299999922,
      "d": 223.68429999999353,
      "v": 87
    },
    {
      "midi": 68,
      "hit": false,
      "t": 169736.90999999922,
      "d": 407.8948999999848,
      "v": 114
    },
    {
      "midi": 61,
      "hit": false,
      "t": 169736.90999999922,
      "d": 677.6318500000052,
      "v": 107
    },
    {
      "midi": 58,
      "hit": false,
      "t": 170131.6469999992,
      "d": 217.105349999998,
      "v": 80
    },
    {
      "midi": 67,
      "hit": false,
      "t": 170388.2260499992,
      "d": 85.5263500000001,
      "v": 82
    },
    {
      "midi": 60,
      "hit": false,
      "t": 170526.3839999992,
      "d": 460.5265000000072,
      "v": 95
    },
    {
      "midi": 63,
      "hit": false,
      "t": 170526.3839999992,
      "d": 480.2633499999938,
      "v": 85
    },
    {
      "midi": 67,
      "hit": false,
      "t": 170526.3839999992,
      "d": 500.0001999999804,
      "v": 85
    },
    {
      "midi": 48,
      "hit": false,
      "t": 170526.3839999992,
      "d": 2828.9484999999404,
      "v": 97
    },
    {
      "midi": 58,
      "hit": false,
      "t": 170921.1209999992,
      "d": 144.73689999998896,
      "v": 66
    },
    {
      "midi": 60,
      "hit": false,
      "t": 171315.8579999992,
      "d": 355.26329999999143,
      "v": 99
    },
    {
      "midi": 63,
      "hit": false,
      "t": 171315.8579999992,
      "d": 519.7370499999961,
      "v": 85
    },
    {
      "midi": 67,
      "hit": false,
      "t": 171315.8579999992,
      "d": 585.5265500000096,
      "v": 87
    },
    {
      "midi": 58,
      "hit": false,
      "t": 171710.5949999992,
      "d": 164.47375000000466,
      "v": 71
    },
    {
      "midi": 60,
      "hit": false,
      "t": 172105.3319999992,
      "d": 585.5265499999805,
      "v": 100
    },
    {
      "midi": 67,
      "hit": false,
      "t": 172105.3319999992,
      "d": 605.2633999999671,
      "v": 76
    },
    {
      "midi": 63,
      "hit": false,
      "t": 172105.3319999992,
      "d": 618.4212999999581,
      "v": 87
    },
    {
      "midi": 58,
      "hit": false,
      "t": 172500.0689999992,
      "d": 210.52639999997336,
      "v": 57
    },
    {
      "midi": 65,
      "hit": false,
      "t": 172894.80599999917,
      "d": 421.05280000000494,
      "v": 95
    },
    {
      "midi": 60,
      "hit": false,
      "t": 172894.80599999917,
      "d": 440.7896499999915,
      "v": 108
    },
    {
      "midi": 58,
      "hit": false,
      "t": 173289.54299999916,
      "d": 144.73689999998896,
      "v": 73
    },
    {
      "midi": 48,
      "hit": false,
      "t": 173546.12204999916,
      "d": 72.36845000000903,
      "v": 59
    },
    {
      "midi": 54,
      "hit": false,
      "t": 173684.27999999918,
      "d": 243.42115000000922,
      "v": 90
    },
    {
      "midi": 61,
      "hit": false,
      "t": 173684.27999999918,
      "d": 546.0528500000073,
      "v": 93
    },
    {
      "midi": 59,
      "hit": false,
      "t": 173684.27999999918,
      "d": 559.2107499999984,
      "v": 95
    },
    {
      "midi": 63,
      "hit": false,
      "t": 173684.27999999918,
      "d": 644.7370999999985,
      "v": 75
    },
    {
      "midi": 47,
      "hit": false,
      "t": 173684.27999999918,
      "d": 1315.789999999979,
      "v": 100
    },
    {
      "midi": 54,
      "hit": false,
      "t": 174079.01699999918,
      "d": 256.5790500000003,
      "v": 71
    },
    {
      "midi": 61,
      "hit": false,
      "t": 174473.75399999917,
      "d": 598.6844500000007,
      "v": 85
    },
    {
      "midi": 59,
      "hit": false,
      "t": 174473.75399999917,
      "d": 611.8423499999917,
      "v": 85
    },
    {
      "midi": 66,
      "hit": false,
      "t": 174473.75399999917,
      "d": 664.473949999985,
      "v": 101
    },
    {
      "midi": 54,
      "hit": false,
      "t": 174868.49099999917,
      "d": 282.8948499999824,
      "v": 89
    },
    {
      "midi": 47,
      "hit": false,
      "t": 175125.07004999917,
      "d": 131.5789999999688,
      "v": 72
    },
    {
      "midi": 54,
      "hit": false,
      "t": 175263.22799999913,
      "d": 243.42115000000922,
      "v": 90
    },
    {
      "midi": 47,
      "hit": false,
      "t": 175263.22799999913,
      "d": 388.1580499999982,
      "v": 54
    },
    {
      "midi": 59,
      "hit": false,
      "t": 175263.22799999913,
      "d": 625.0002499999828,
      "v": 93
    },
    {
      "midi": 66,
      "hit": false,
      "t": 175263.22799999913,
      "d": 1460.5269000000262,
      "v": 78
    },
    {
      "midi": 63,
      "hit": false,
      "t": 175263.22799999913,
      "d": 1486.8427000000374,
      "v": 83
    },
    {
      "midi": 54,
      "hit": false,
      "t": 175657.96499999912,
      "d": 282.8948500000115,
      "v": 87
    },
    {
      "midi": 47,
      "hit": false,
      "t": 175914.54404999912,
      "d": 381.57910000003176,
      "v": 66
    },
    {
      "midi": 59,
      "hit": false,
      "t": 176052.70199999915,
      "d": 703.9476500000164,
      "v": 93
    },
    {
      "midi": 54,
      "hit": false,
      "t": 176052.70199999915,
      "d": 717.1055500000075,
      "v": 110
    },
    {
      "midi": 47,
      "hit": false,
      "t": 176447.43899999917,
      "d": 302.6316999999981,
      "v": 88
    },
    {
      "midi": 58,
      "hit": false,
      "t": 176842.17599999916,
      "d": 480.2633499999938,
      "v": 90
    },
    {
      "midi": 56,
      "hit": false,
      "t": 176842.17599999916,
      "d": 500.0001999999804,
      "v": 96
    },
    {
      "midi": 60,
      "hit": false,
      "t": 176842.17599999916,
      "d": 578.947599999985,
      "v": 90
    },
    {
      "midi": 63,
      "hit": false,
      "t": 176842.17599999916,
      "d": 585.5265499999805,
      "v": 75
    },
    {
      "midi": 44,
      "hit": false,
      "t": 176842.17599999916,
      "d": 2848.685349999985,
      "v": 114
    },
    {
      "midi": 51,
      "hit": false,
      "t": 177236.91299999916,
      "d": 197.3684999999823,
      "v": 54
    },
    {
      "midi": 58,
      "hit": false,
      "t": 177631.64999999915,
      "d": 26.315800000011222,
      "v": 56
    },
    {
      "midi": 56,
      "hit": false,
      "t": 177631.64999999915,
      "d": 421.05280000003404,
      "v": 78
    },
    {
      "midi": 60,
      "hit": false,
      "t": 177631.64999999915,
      "d": 427.63175000002957,
      "v": 84
    },
    {
      "midi": 63,
      "hit": false,
      "t": 177631.64999999915,
      "d": 513.1581000000297,
      "v": 60
    },
    {
      "midi": 51,
      "hit": false,
      "t": 178026.38699999917,
      "d": 177.63164999999572,
      "v": 64
    },
    {
      "midi": 60,
      "hit": false,
      "t": 178421.12399999917,
      "d": 414.4738499999803,
      "v": 93
    },
    {
      "midi": 56,
      "hit": false,
      "t": 178421.12399999917,
      "d": 421.05279999997583,
      "v": 89
    },
    {
      "midi": 63,
      "hit": false,
      "t": 178421.12399999917,
      "d": 598.6844499999715,
      "v": 76
    },
    {
      "midi": 51,
      "hit": false,
      "t": 178815.86099999916,
      "d": 236.8421999999846,
      "v": 60
    },
    {
      "midi": 56,
      "hit": false,
      "t": 179210.59799999915,
      "d": 414.4738499999803,
      "v": 90
    },
    {
      "midi": 60,
      "hit": false,
      "t": 179210.59799999915,
      "d": 486.84229999998934,
      "v": 90
    },
    {
      "midi": 63,
      "hit": false,
      "t": 179210.59799999915,
      "d": 552.6318000000028,
      "v": 69
    },
    {
      "midi": 43,
      "hit": false,
      "t": 179605.33499999915,
      "d": 322.3685500000138,
      "v": 72
    },
    {
      "midi": 55,
      "hit": false,
      "t": 179605.33499999915,
      "d": 328.9475000000093,
      "v": 72
    },
    {
      "midi": 63,
      "hit": false,
      "t": 180000.07199999917,
      "d": 631.5791999999783,
      "v": 78
    },
    {
      "midi": 60,
      "hit": false,
      "t": 180000.07199999917,
      "d": 657.8949999999895,
      "v": 88
    },
    {
      "midi": 56,
      "hit": false,
      "t": 180000.07199999917,
      "d": 677.6318499999761,
      "v": 81
    },
    {
      "midi": 53,
      "hit": false,
      "t": 180000.07199999917,
      "d": 684.2107999999716,
      "v": 74
    },
    {
      "midi": 41,
      "hit": false,
      "t": 180000.07199999917,
      "d": 2743.422149999911,
      "v": 88
    },
    {
      "midi": 63,
      "hit": false,
      "t": 180789.54599999913,
      "d": 414.4738499999803,
      "v": 70
    },
    {
      "midi": 60,
      "hit": false,
      "t": 180789.54599999913,
      "d": 427.63174999997136,
      "v": 81
    },
    {
      "midi": 56,
      "hit": false,
      "t": 180789.54599999913,
      "d": 440.7896499999624,
      "v": 75
    },
    {
      "midi": 53,
      "hit": false,
      "t": 181184.28299999912,
      "d": 276.31589999995776,
      "v": 63
    },
    {
      "midi": 60,
      "hit": false,
      "t": 181579.0199999991,
      "d": 394.7369999999937,
      "v": 85
    },
    {
      "midi": 56,
      "hit": false,
      "t": 181579.0199999991,
      "d": 407.8948999999848,
      "v": 75
    },
    {
      "midi": 63,
      "hit": false,
      "t": 181579.0199999991,
      "d": 414.4738499999803,
      "v": 72
    },
    {
      "midi": 53,
      "hit": false,
      "t": 181973.75699999908,
      "d": 322.3685499999847,
      "v": 59
    },
    {
      "midi": 60,
      "hit": false,
      "t": 182368.49399999907,
      "d": 434.210699999996,
      "v": 88
    },
    {
      "midi": 56,
      "hit": false,
      "t": 182368.49399999907,
      "d": 467.10545000000275,
      "v": 80
    },
    {
      "midi": 63,
      "hit": false,
      "t": 182368.49399999907,
      "d": 493.42125000001397,
      "v": 76
    },
    {
      "midi": 53,
      "hit": false,
      "t": 182763.23099999907,
      "d": 269.73695000002044,
      "v": 75
    },
    {
      "midi": 67,
      "hit": false,
      "t": 183157.9679999991,
      "d": 644.7371000000276,
      "v": 90
    },
    {
      "midi": 63,
      "hit": false,
      "t": 183157.9679999991,
      "d": 671.0529000000388,
      "v": 85
    },
    {
      "midi": 58,
      "hit": false,
      "t": 183157.9679999991,
      "d": 677.6318500000343,
      "v": 93
    },
    {
      "midi": 51,
      "hit": false,
      "t": 183157.9679999991,
      "d": 1440.7900500000396,
      "v": 114
    },
    {
      "midi": 55,
      "hit": false,
      "t": 183552.7049999991,
      "d": 276.315900000016,
      "v": 65
    },
    {
      "midi": 58,
      "hit": false,
      "t": 183947.44199999914,
      "d": 447.36859999998705,
      "v": 90
    },
    {
      "midi": 63,
      "hit": false,
      "t": 183947.44199999914,
      "d": 453.9475499999826,
      "v": 83
    },
    {
      "midi": 67,
      "hit": false,
      "t": 183947.44199999914,
      "d": 526.3159999999916,
      "v": 90
    },
    {
      "midi": 55,
      "hit": false,
      "t": 184342.17899999913,
      "d": 230.26324999998906,
      "v": 65
    },
    {
      "midi": 61,
      "hit": false,
      "t": 184736.91599999912,
      "d": 546.0528500000073,
      "v": 101
    },
    {
      "midi": 58,
      "hit": false,
      "t": 184736.91599999912,
      "d": 585.5265500000096,
      "v": 104
    },
    {
      "midi": 67,
      "hit": false,
      "t": 184736.91599999912,
      "d": 592.1055000000051,
      "v": 91
    },
    {
      "midi": 49,
      "hit": false,
      "t": 184736.91599999912,
      "d": 1526.3163999999815,
      "v": 104
    },
    {
      "midi": 55,
      "hit": false,
      "t": 185131.65299999912,
      "d": 203.94745000000694,
      "v": 58
    },
    {
      "midi": 58,
      "hit": false,
      "t": 185526.3899999991,
      "d": 473.6843999999983,
      "v": 89
    },
    {
      "midi": 61,
      "hit": false,
      "t": 185526.3899999991,
      "d": 493.42124999998487,
      "v": 89
    },
    {
      "midi": 67,
      "hit": false,
      "t": 185526.3899999991,
      "d": 703.9476499999873,
      "v": 85
    },
    {
      "midi": 55,
      "hit": false,
      "t": 185921.1269999991,
      "d": 138.15794999999343,
      "v": 67
    },
    {
      "midi": 63,
      "hit": false,
      "t": 186315.8639999991,
      "d": 282.8948500000115,
      "v": 75
    },
    {
      "midi": 60,
      "hit": false,
      "t": 186315.8639999991,
      "d": 407.8948999999848,
      "v": 91
    },
    {
      "midi": 67,
      "hit": false,
      "t": 186315.8639999991,
      "d": 539.4738999999827,
      "v": 65
    },
    {
      "midi": 48,
      "hit": false,
      "t": 186315.8639999991,
      "d": 2802.6326999999583,
      "v": 95
    },
    {
      "midi": 58,
      "hit": false,
      "t": 186710.6009999991,
      "d": 203.94744999997783,
      "v": 54
    },
    {
      "midi": 63,
      "hit": false,
      "t": 187105.33799999906,
      "d": 677.6318499999761,
      "v": 71
    },
    {
      "midi": 67,
      "hit": false,
      "t": 187105.33799999906,
      "d": 690.7897499999672,
      "v": 84
    },
    {
      "midi": 60,
      "hit": false,
      "t": 187105.33799999906,
      "d": 710.5265999999538,
      "v": 88
    },
    {
      "midi": 58,
      "hit": false,
      "t": 187500.07499999905,
      "d": 223.68429999999353,
      "v": 63
    },
    {
      "midi": 60,
      "hit": false,
      "t": 187894.81199999902,
      "d": 368.4212000000116,
      "v": 81
    },
    {
      "midi": 63,
      "hit": false,
      "t": 187894.81199999902,
      "d": 473.6844000000274,
      "v": 78
    },
    {
      "midi": 67,
      "hit": false,
      "t": 187894.81199999902,
      "d": 500.0002000000386,
      "v": 72
    },
    {
      "midi": 58,
      "hit": false,
      "t": 188289.54899999904,
      "d": 177.63165000002482,
      "v": 61
    },
    {
      "midi": 60,
      "hit": false,
      "t": 188684.28599999906,
      "d": 361.84224999998696,
      "v": 93
    },
    {
      "midi": 65,
      "hit": false,
      "t": 188684.28599999906,
      "d": 361.84224999998696,
      "v": 87
    },
    {
      "midi": 60,
      "hit": false,
      "t": 189079.02299999906,
      "d": 59.21054999998887,
      "v": 72
    },
    {
      "midi": 63,
      "hit": false,
      "t": 189079.02299999906,
      "d": 78.94739999997546,
      "v": 76
    },
    {
      "midi": 58,
      "hit": false,
      "t": 189473.75999999902,
      "d": 578.9475999999559,
      "v": 89
    },
    {
      "midi": 56,
      "hit": false,
      "t": 189473.75999999902,
      "d": 638.1581499999447,
      "v": 87
    },
    {
      "midi": 60,
      "hit": false,
      "t": 189473.75999999902,
      "d": 703.9476499999582,
      "v": 93
    },
    {
      "midi": 63,
      "hit": false,
      "t": 189473.75999999902,
      "d": 710.5265999999538,
      "v": 76
    },
    {
      "midi": 44,
      "hit": false,
      "t": 189473.75999999902,
      "d": 2282.895649999904,
      "v": 107
    },
    {
      "midi": 51,
      "hit": false,
      "t": 189868.49699999898,
      "d": 282.8948499999824,
      "v": 60
    },
    {
      "midi": 60,
      "hit": false,
      "t": 190263.23399999898,
      "d": 414.4738499999803,
      "v": 74
    },
    {
      "midi": 58,
      "hit": false,
      "t": 190263.23399999898,
      "d": 506.5791499999759,
      "v": 73
    },
    {
      "midi": 56,
      "hit": false,
      "t": 190263.23399999898,
      "d": 519.737049999967,
      "v": 69
    },
    {
      "midi": 63,
      "hit": false,
      "t": 190263.23399999898,
      "d": 585.5265499999805,
      "v": 65
    },
    {
      "midi": 51,
      "hit": false,
      "t": 190657.97099999897,
      "d": 236.8421999999846,
      "v": 60
    },
    {
      "midi": 58,
      "hit": false,
      "t": 191052.70799999897,
      "d": 493.42124999998487,
      "v": 81
    },
    {
      "midi": 56,
      "hit": false,
      "t": 191052.70799999897,
      "d": 500.0001999999804,
      "v": 75
    },
    {
      "midi": 60,
      "hit": false,
      "t": 191052.70799999897,
      "d": 546.0528499999782,
      "v": 85
    },
    {
      "midi": 63,
      "hit": false,
      "t": 191052.70799999897,
      "d": 592.105499999976,
      "v": 64
    },
    {
      "midi": 51,
      "hit": false,
      "t": 191447.44499999896,
      "d": 296.05274999997346,
      "v": 67
    },
    {
      "midi": 56,
      "hit": false,
      "t": 191842.18199999892,
      "d": 388.1580499999982,
      "v": 90
    },
    {
      "midi": 44,
      "hit": false,
      "t": 191842.18199999892,
      "d": 394.7369999999937,
      "v": 83
    },
    {
      "midi": 60,
      "hit": false,
      "t": 191842.18199999892,
      "d": 427.63175000000047,
      "v": 88
    },
    {
      "midi": 63,
      "hit": false,
      "t": 191842.18199999892,
      "d": 605.2633999999962,
      "v": 63
    },
    {
      "midi": 43,
      "hit": false,
      "t": 192236.91899999892,
      "d": 309.2106499999936,
      "v": 95
    },
    {
      "midi": 55,
      "hit": false,
      "t": 192236.91899999892,
      "d": 322.3685499999847,
      "v": 81
    },
    {
      "midi": 56,
      "hit": false,
      "t": 192631.6559999989,
      "d": 644.7370999999985,
      "v": 89
    },
    {
      "midi": 60,
      "hit": false,
      "t": 192631.6559999989,
      "d": 651.316049999994,
      "v": 90
    },
    {
      "midi": 63,
      "hit": false,
      "t": 192631.6559999989,
      "d": 651.316049999994,
      "v": 72
    },
    {
      "midi": 53,
      "hit": false,
      "t": 192631.6559999989,
      "d": 697.3686999999918,
      "v": 81
    },
    {
      "midi": 41,
      "hit": false,
      "t": 192631.6559999989,
      "d": 2684.2115999999514,
      "v": 90
    },
    {
      "midi": 56,
      "hit": false,
      "t": 193421.1299999989,
      "d": 407.8948999999848,
      "v": 85
    },
    {
      "midi": 63,
      "hit": false,
      "t": 193421.1299999989,
      "d": 434.210699999996,
      "v": 66
    },
    {
      "midi": 60,
      "hit": false,
      "t": 193421.1299999989,
      "d": 453.9475499999826,
      "v": 81
    },
    {
      "midi": 53,
      "hit": false,
      "t": 193815.8669999989,
      "d": 684.2108000000007,
      "v": 51
    },
    {
      "midi": 60,
      "hit": false,
      "t": 194210.6039999989,
      "d": 473.6843999999983,
      "v": 88
    },
    {
      "midi": 56,
      "hit": false,
      "t": 194210.6039999989,
      "d": 500.0002000000095,
      "v": 81
    },
    {
      "midi": 63,
      "hit": false,
      "t": 194210.6039999989,
      "d": 519.7370499999961,
      "v": 70
    },
    {
      "midi": 53,
      "hit": false,
      "t": 194605.34099999888,
      "d": 342.1054000000004,
      "v": 71
    },
    {
      "midi": 60,
      "hit": false,
      "t": 195000.07799999887,
      "d": 414.4738499999803,
      "v": 91
    },
    {
      "midi": 63,
      "hit": false,
      "t": 195000.07799999887,
      "d": 427.63174999997136,
      "v": 69
    },
    {
      "midi": 56,
      "hit": false,
      "t": 195000.07799999887,
      "d": 434.2106999999669,
      "v": 89
    },
    {
      "midi": 41,
      "hit": false,
      "t": 195394.81499999887,
      "d": 131.5789999999688,
      "v": 75
    },
    {
      "midi": 53,
      "hit": false,
      "t": 195394.81499999887,
      "d": 236.84219999995548,
      "v": 81
    },
    {
      "midi": 58,
      "hit": false,
      "t": 195789.55199999883,
      "d": 519.7370500000252,
      "v": 93
    },
    {
      "midi": 63,
      "hit": false,
      "t": 195789.55199999883,
      "d": 559.2107500000275,
      "v": 83
    },
    {
      "midi": 67,
      "hit": false,
      "t": 195789.55199999883,
      "d": 598.6844500000298,
      "v": 75
    },
    {
      "midi": 51,
      "hit": false,
      "t": 195789.55199999883,
      "d": 1453.9479500000016,
      "v": 114
    },
    {
      "midi": 55,
      "hit": false,
      "t": 196184.28899999885,
      "d": 296.05275000000256,
      "v": 63
    },
    {
      "midi": 63,
      "hit": false,
      "t": 196579.02599999885,
      "d": 460.5265000000072,
      "v": 85
    },
    {
      "midi": 67,
      "hit": false,
      "t": 196579.02599999885,
      "d": 598.6844500000007,
      "v": 93
    },
    {
      "midi": 58,
      "hit": false,
      "t": 196579.02599999885,
      "d": 618.4212999999872,
      "v": 96
    },
    {
      "midi": 55,
      "hit": false,
      "t": 196973.76299999884,
      "d": 276.31589999998687,
      "v": 76
    },
    {
      "midi": 61,
      "hit": false,
      "t": 197368.49999999884,
      "d": 565.7896999999939,
      "v": 99
    },
    {
      "midi": 67,
      "hit": false,
      "t": 197368.49999999884,
      "d": 598.6844500000007,
      "v": 91
    },
    {
      "midi": 58,
      "hit": false,
      "t": 197368.49999999884,
      "d": 631.5792000000074,
      "v": 90
    },
    {
      "midi": 49,
      "hit": false,
      "t": 197368.49999999884,
      "d": 1473.6847999999882,
      "v": 99
    },
    {
      "midi": 55,
      "hit": false,
      "t": 197763.23699999883,
      "d": 197.3685000000114,
      "v": 69
    },
    {
      "midi": 58,
      "hit": false,
      "t": 198157.97399999885,
      "d": 480.2633499999938,
      "v": 87
    },
    {
      "midi": 61,
      "hit": false,
      "t": 198157.97399999885,
      "d": 486.84229999998934,
      "v": 96
    },
    {
      "midi": 67,
      "hit": false,
      "t": 198157.97399999885,
      "d": 592.105499999976,
      "v": 93
    },
    {
      "midi": 55,
      "hit": false,
      "t": 198552.71099999885,
      "d": 282.8948499999824,
      "v": 63
    },
    {
      "midi": 60,
      "hit": false,
      "t": 198947.4479999988,
      "d": 361.84225000001607,
      "v": 84
    },
    {
      "midi": 63,
      "hit": false,
      "t": 198947.4479999988,
      "d": 447.36860000001616,
      "v": 71
    },
    {
      "midi": 67,
      "hit": false,
      "t": 198947.4479999988,
      "d": 532.8949500000163,
      "v": 72
    },
    {
      "midi": 48,
      "hit": false,
      "t": 198947.4479999988,
      "d": 2855.26430000001,
      "v": 82
    },
    {
      "midi": 58,
      "hit": false,
      "t": 199342.18499999883,
      "d": 250.00010000000475,
      "v": 54
    },
    {
      "midi": 60,
      "hit": false,
      "t": 199736.92199999883,
      "d": 381.57910000000265,
      "v": 88
    },
    {
      "midi": 63,
      "hit": false,
      "t": 199736.92199999883,
      "d": 460.5265000000072,
      "v": 73
    },
    {
      "midi": 67,
      "hit": false,
      "t": 199736.92199999883,
      "d": 644.7370999999985,
      "v": 71
    },
    {
      "midi": 58,
      "hit": false,
      "t": 200131.65899999882,
      "d": 203.94745000000694,
      "v": 61
    },
    {
      "midi": 60,
      "hit": false,
      "t": 200526.39599999881,
      "d": 500.0001999999804,
      "v": 90
    },
    {
      "midi": 63,
      "hit": false,
      "t": 200526.39599999881,
      "d": 565.7896999999939,
      "v": 85
    },
    {
      "midi": 67,
      "hit": false,
      "t": 200526.39599999881,
      "d": 631.5792000000074,
      "v": 72
    },
    {
      "midi": 58,
      "hit": false,
      "t": 200921.1329999988,
      "d": 203.94745000000694,
      "v": 60
    },
    {
      "midi": 65,
      "hit": false,
      "t": 201315.86999999883,
      "d": 407.8948999999848,
      "v": 88
    },
    {
      "midi": 60,
      "hit": false,
      "t": 201315.86999999883,
      "d": 480.2633499999938,
      "v": 99
    },
    {
      "midi": 63,
      "hit": false,
      "t": 201710.60699999882,
      "d": 78.94740000000456,
      "v": 75
    },
    {
      "midi": 63,
      "hit": false,
      "t": 202092.18609999883,
      "d": 2072.369250000018,
      "v": 83
    },
    {
      "midi": 53,
      "hit": false,
      "t": 202098.76504999882,
      "d": 736.8424000000232,
      "v": 87
    },
    {
      "midi": 56,
      "hit": false,
      "t": 202098.76504999882,
      "d": 1157.8952000000281,
      "v": 87
    },
    {
      "midi": 60,
      "hit": false,
      "t": 202098.76504999882,
      "d": 2078.9482000000135,
      "v": 93
    },
    {
      "midi": 41,
      "hit": false,
      "t": 202105.34399999882,
      "d": 3203.948650000035,
      "v": 100
    },
    {
      "midi": 53,
      "hit": false,
      "t": 202901.39694999886,
      "d": 269.73694999999134,
      "v": 58
    },
    {
      "midi": 55,
      "hit": false,
      "t": 203322.44974999886,
      "d": 388.1580499999982,
      "v": 66
    },
    {
      "midi": 56,
      "hit": false,
      "t": 203730.34464999885,
      "d": 263.1579999999958,
      "v": 72
    },
    {
      "midi": 60,
      "hit": false,
      "t": 204506.66074999885,
      "d": 388.1580499999982,
      "v": 65
    },
    {
      "midi": 63,
      "hit": false,
      "t": 205263.23999999886,
      "d": 26.315800000011222,
      "v": 87
    },
    {
      "midi": 58,
      "hit": false,
      "t": 205263.23999999886,
      "d": 32.89475000000675,
      "v": 73
    },
    {
      "midi": 67,
      "hit": false,
      "t": 205263.23999999886,
      "d": 467.10545000000275,
      "v": 74
    },
    {
      "midi": 51,
      "hit": false,
      "t": 205263.23999999886,
      "d": 3000.001200000028,
      "v": 81
    },
    {
      "midi": 58,
      "hit": false,
      "t": 205657.97699999885,
      "d": 256.5790500000003,
      "v": 60
    },
    {
      "midi": 63,
      "hit": false,
      "t": 206052.71399999884,
      "d": 368.4212000000116,
      "v": 76
    },
    {
      "midi": 67,
      "hit": false,
      "t": 206052.71399999884,
      "d": 401.31595000001835,
      "v": 72
    },
    {
      "midi": 58,
      "hit": false,
      "t": 206447.45099999887,
      "d": 243.42115000000922,
      "v": 54
    },
    {
      "midi": 63,
      "hit": false,
      "t": 206842.1879999989,
      "d": 394.7369999999937,
      "v": 78
    },
    {
      "midi": 67,
      "hit": false,
      "t": 206842.1879999989,
      "d": 453.9475499999826,
      "v": 77
    },
    {
      "midi": 58,
      "hit": false,
      "t": 207236.92499999888,
      "d": 230.26324999998906,
      "v": 53
    },
    {
      "midi": 63,
      "hit": false,
      "t": 207631.66199999888,
      "d": 296.05275000000256,
      "v": 85
    },
    {
      "midi": 68,
      "hit": false,
      "t": 207631.66199999888,
      "d": 328.9475000000093,
      "v": 67
    },
    {
      "midi": 58,
      "hit": false,
      "t": 208026.3989999989,
      "d": 282.8948499999824,
      "v": 50
    },
    {
      "midi": 67,
      "hit": false,
      "t": 208250.0832999989,
      "d": 65.7894999999844,
      "v": 60
    },
    {
      "midi": 58,
      "hit": false,
      "t": 208421.13599999886,
      "d": 328.9475000000093,
      "v": 71
    },
    {
      "midi": 61,
      "hit": false,
      "t": 208421.13599999886,
      "d": 467.10545000003185,
      "v": 78
    },
    {
      "midi": 67,
      "hit": false,
      "t": 208421.13599999886,
      "d": 513.1581000000297,
      "v": 78
    },
    {
      "midi": 49,
      "hit": false,
      "t": 208421.13599999886,
      "d": 2993.422249999974,
      "v": 76
    },
    {
      "midi": 58,
      "hit": false,
      "t": 208815.8729999989,
      "d": 164.47375000000466,
      "v": 60
    },
    {
      "midi": 61,
      "hit": false,
      "t": 209210.60999999888,
      "d": 388.1580499999982,
      "v": 72
    },
    {
      "midi": 67,
      "hit": false,
      "t": 209210.60999999888,
      "d": 414.4738499999803,
      "v": 65
    },
    {
      "midi": 58,
      "hit": false,
      "t": 209605.34699999887,
      "d": 190.78954999998678,
      "v": 56
    },
    {
      "midi": 61,
      "hit": false,
      "t": 210000.08399999887,
      "d": 375.0001500000071,
      "v": 69
    },
    {
      "midi": 67,
      "hit": false,
      "t": 210000.08399999887,
      "d": 447.36859999998705,
      "v": 63
    },
    {
      "midi": 58,
      "hit": false,
      "t": 210394.82099999886,
      "d": 236.8421999999846,
      "v": 55
    },
    {
      "midi": 61,
      "hit": false,
      "t": 210789.55799999885,
      "d": 342.1054000000004,
      "v": 76
    },
    {
      "midi": 68,
      "hit": false,
      "t": 210789.55799999885,
      "d": 381.57910000000265,
      "v": 83
    },
    {
      "midi": 58,
      "hit": false,
      "t": 211184.29499999885,
      "d": 138.15794999999343,
      "v": 52
    },
    {
      "midi": 67,
      "hit": false,
      "t": 211407.97929999884,
      "d": 118.42110000000685,
      "v": 77
    },
    {
      "midi": 63,
      "hit": false,
      "t": 211579.03199999884,
      "d": 368.4212000000116,
      "v": 83
    },
    {
      "midi": 60,
      "hit": false,
      "t": 211579.03199999884,
      "d": 375.0001500000071,
      "v": 76
    },
    {
      "midi": 67,
      "hit": false,
      "t": 211579.03199999884,
      "d": 493.42124999998487,
      "v": 67
    },
    {
      "midi": 48,
      "hit": false,
      "t": 211579.03199999884,
      "d": 3019.7380500000145,
      "v": 69
    },
    {
      "midi": 58,
      "hit": false,
      "t": 211973.76899999884,
      "d": 197.3684999999823,
      "v": 54
    },
    {
      "midi": 63,
      "hit": false,
      "t": 212368.50599999883,
      "d": 210.52640000000247,
      "v": 69
    },
    {
      "midi": 60,
      "hit": false,
      "t": 212368.50599999883,
      "d": 282.8948500000115,
      "v": 70
    },
    {
      "midi": 67,
      "hit": false,
      "t": 212368.50599999883,
      "d": 513.1581000000297,
      "v": 65
    },
    {
      "midi": 58,
      "hit": false,
      "t": 212763.24299999885,
      "d": 157.89480000000913,
      "v": 40
    },
    {
      "midi": 60,
      "hit": false,
      "t": 213157.97999999888,
      "d": 388.1580499999982,
      "v": 46
    },
    {
      "midi": 63,
      "hit": false,
      "t": 213157.97999999888,
      "d": 453.9475499999826,
      "v": 66
    },
    {
      "midi": 67,
      "hit": false,
      "t": 213157.97999999888,
      "d": 585.5265499999805,
      "v": 62
    },
    {
      "midi": 58,
      "hit": false,
      "t": 213552.71699999887,
      "d": 177.63164999999572,
      "v": 45
    },
    {
      "midi": 60,
      "hit": false,
      "t": 213947.45399999886,
      "d": 486.84229999998934,
      "v": 55
    },
    {
      "midi": 65,
      "hit": false,
      "t": 213947.45399999886,
      "d": 572.3686499999894,
      "v": 78
    },
    {
      "midi": 58,
      "hit": false,
      "t": 214342.19099999886,
      "d": 157.89480000000913,
      "v": 48
    },
    {
      "midi": 63,
      "hit": false,
      "t": 214565.87529999885,
      "d": 98.68425000002026,
      "v": 78
    },
    {
      "midi": 63,
      "hit": false,
      "t": 214736.92799999888,
      "d": 394.7369999999937,
      "v": 85
    },
    {
      "midi": 59,
      "hit": false,
      "t": 214736.92799999888,
      "d": 486.84229999998934,
      "v": 72
    },
    {
      "midi": 47,
      "hit": false,
      "t": 214736.92799999888,
      "d": 2927.632750000048,
      "v": 74
    },
    {
      "midi": 66,
      "hit": false,
      "t": 215131.66499999887,
      "d": 59.21054999998887,
      "v": 45
    },
    {
      "midi": 54,
      "hit": false,
      "t": 215131.66499999887,
      "d": 157.89480000000913,
      "v": 54
    },
    {
      "midi": 61,
      "hit": false,
      "t": 215526.4019999989,
      "d": 171.0527000000002,
      "v": 65
    },
    {
      "midi": 59,
      "hit": false,
      "t": 215526.4019999989,
      "d": 368.4212000000116,
      "v": 63
    },
    {
      "midi": 66,
      "hit": false,
      "t": 215526.4019999989,
      "d": 1125.0004500000214,
      "v": 60
    },
    {
      "midi": 54,
      "hit": false,
      "t": 215921.13899999892,
      "d": 177.63164999999572,
      "v": 54
    },
    {
      "midi": 59,
      "hit": false,
      "t": 216315.8759999989,
      "d": 335.52645000000484,
      "v": 63
    },
    {
      "midi": 63,
      "hit": false,
      "t": 216315.8759999989,
      "d": 493.42124999998487,
      "v": 60
    },
    {
      "midi": 54,
      "hit": false,
      "t": 216710.6129999989,
      "d": 190.78954999998678,
      "v": 48
    },
    {
      "midi": 59,
      "hit": false,
      "t": 217105.3499999989,
      "d": 322.3685500000138,
      "v": 74
    },
    {
      "midi": 65,
      "hit": false,
      "t": 217105.3499999989,
      "d": 486.84230000001844,
      "v": 65
    },
    {
      "midi": 56,
      "hit": false,
      "t": 217500.08699999892,
      "d": 164.47375000000466,
      "v": 59
    },
    {
      "midi": 63,
      "hit": false,
      "t": 217723.77129999892,
      "d": 125.00005000000237,
      "v": 72
    },
    {
      "midi": 63,
      "hit": false,
      "t": 217894.82399999892,
      "d": 460.5265000000363,
      "v": 89
    },
    {
      "midi": 58,
      "hit": false,
      "t": 217894.82399999892,
      "d": 500.0002000000386,
      "v": 76
    },
    {
      "midi": 51,
      "hit": false,
      "t": 217894.82399999892,
      "d": 1203.947850000026,
      "v": 72
    },
    {
      "midi": 55,
      "hit": false,
      "t": 218118.50829999894,
      "d": 131.5789999999979,
      "v": 9
    },
    {
      "midi": 55,
      "hit": false,
      "t": 218289.56099999894,
      "d": 171.0527000000293,
      "v": 54
    },
    {
      "midi": 63,
      "hit": false,
      "t": 218684.29799999896,
      "d": 427.63174999997136,
      "v": 63
    },
    {
      "midi": 58,
      "hit": false,
      "t": 218684.29799999896,
      "d": 460.5264999999781,
      "v": 63
    },
    {
      "midi": 55,
      "hit": false,
      "t": 219079.03499999896,
      "d": 78.94739999997546,
      "v": 58
    },
    {
      "midi": 63,
      "hit": false,
      "t": 219473.77199999892,
      "d": 355.26329999999143,
      "v": 71
    },
    {
      "midi": 67,
      "hit": false,
      "t": 219473.77199999892,
      "d": 401.31594999998924,
      "v": 57
    },
    {
      "midi": 58,
      "hit": false,
      "t": 219868.5089999989,
      "d": 223.68429999999353,
      "v": 45
    },
    {
      "midi": 63,
      "hit": false,
      "t": 220263.2459999989,
      "d": 276.31589999998687,
      "v": 75
    },
    {
      "midi": 51,
      "hit": false,
      "t": 220263.2459999989,
      "d": 585.5265499999805,
      "v": 71
    },
    {
      "midi": 68,
      "hit": false,
      "t": 220263.2459999989,
      "d": 585.5265499999805,
      "v": 75
    },
    {
      "midi": 58,
      "hit": false,
      "t": 220657.9829999989,
      "d": 263.1579999999958,
      "v": 47
    },
    {
      "midi": 58,
      "hit": false,
      "t": 221052.7199999989,
      "d": 263.1579999999958,
      "v": 56
    },
    {
      "midi": 61,
      "hit": false,
      "t": 221052.7199999989,
      "d": 427.63175000000047,
      "v": 70
    },
    {
      "midi": 67,
      "hit": false,
      "t": 221052.7199999989,
      "d": 585.5265500000096,
      "v": 72
    },
    {
      "midi": 49,
      "hit": false,
      "t": 221052.7199999989,
      "d": 3039.474899999972,
      "v": 80
    },
    {
      "midi": 58,
      "hit": false,
      "t": 221447.4569999989,
      "d": 243.42115000000922,
      "v": 45
    },
    {
      "midi": 61,
      "hit": false,
      "t": 221842.1939999989,
      "d": 361.84224999998696,
      "v": 72
    },
    {
      "midi": 67,
      "hit": false,
      "t": 221842.1939999989,
      "d": 421.05280000000494,
      "v": 72
    },
    {
      "midi": 58,
      "hit": false,
      "t": 222236.9309999989,
      "d": 256.5790500000003,
      "v": 43
    },
    {
      "midi": 61,
      "hit": false,
      "t": 222631.6679999989,
      "d": 407.8948999999848,
      "v": 63
    },
    {
      "midi": 67,
      "hit": false,
      "t": 222631.6679999989,
      "d": 421.05279999997583,
      "v": 65
    },
    {
      "midi": 58,
      "hit": false,
      "t": 223026.4049999989,
      "d": 236.8421999999846,
      "v": 58
    },
    {
      "midi": 61,
      "hit": false,
      "t": 223421.1419999989,
      "d": 361.84224999998696,
      "v": 64
    },
    {
      "midi": 68,
      "hit": false,
      "t": 223421.1419999989,
      "d": 414.4738499999803,
      "v": 83
    },
    {
      "midi": 58,
      "hit": false,
      "t": 223815.87899999888,
      "d": 256.5790500000003,
      "v": 60
    },
    {
      "midi": 63,
      "hit": false,
      "t": 224210.61599999887,
      "d": 453.9475500000117,
      "v": 75
    },
    {
      "midi": 67,
      "hit": false,
      "t": 224210.61599999887,
      "d": 559.2107499999984,
      "v": 72
    },
    {
      "midi": 48,
      "hit": false,
      "t": 224210.61599999887,
      "d": 3013.15909999999,
      "v": 78
    },
    {
      "midi": 58,
      "hit": false,
      "t": 224605.3529999989,
      "d": 177.6316499999666,
      "v": 47
    },
    {
      "midi": 60,
      "hit": false,
      "t": 225000.08999999886,
      "d": 394.7369999999937,
      "v": 63
    },
    {
      "midi": 63,
      "hit": false,
      "t": 225000.08999999886,
      "d": 453.9475499999826,
      "v": 60
    },
    {
      "midi": 67,
      "hit": false,
      "t": 225000.08999999886,
      "d": 539.4738999999827,
      "v": 55
    },
    {
      "midi": 58,
      "hit": false,
      "t": 225394.82699999886,
      "d": 197.3684999999823,
      "v": 37
    },
    {
      "midi": 60,
      "hit": false,
      "t": 225789.56399999885,
      "d": 421.05280000000494,
      "v": 63
    },
    {
      "midi": 63,
      "hit": false,
      "t": 225789.56399999885,
      "d": 421.05280000000494,
      "v": 67
    },
    {
      "midi": 67,
      "hit": false,
      "t": 225789.56399999885,
      "d": 598.6844500000007,
      "v": 55
    },
    {
      "midi": 58,
      "hit": false,
      "t": 226184.30099999884,
      "d": 210.52640000000247,
      "v": 45
    },
    {
      "midi": 60,
      "hit": false,
      "t": 226579.03799999884,
      "d": 315.78959999998915,
      "v": 65
    },
    {
      "midi": 65,
      "hit": false,
      "t": 226579.03799999884,
      "d": 572.3686500000185,
      "v": 72
    },
    {
      "midi": 58,
      "hit": false,
      "t": 226973.77499999883,
      "d": 151.3158500000136,
      "v": 38
    },
    {
      "midi": 66,
      "hit": false,
      "t": 227381.66989999887,
      "d": 2815.7905999999202,
      "v": 70
    },
    {
      "midi": 54,
      "hit": false,
      "t": 227388.24884999887,
      "d": 1519.7374499999569,
      "v": 83
    },
    {
      "midi": 63,
      "hit": false,
      "t": 227394.82779999886,
      "d": 2440.790449999942,
      "v": 83
    },
    {
      "midi": 61,
      "hit": false,
      "t": 227401.40674999886,
      "d": 1914.4744499999215,
      "v": 73
    },
    {
      "midi": 47,
      "hit": false,
      "t": 227401.40674999886,
      "d": 5743.423349999939,
      "v": 77
    },
    {
      "midi": 59,
      "hit": false,
      "t": 227407.98569999886,
      "d": 1703.9480499999481,
      "v": 76
    },
    {
      "midi": 54,
      "hit": false,
      "t": 229006.67054999882,
      "d": 289.4737999999779,
      "v": 42
    },
    {
      "midi": 59,
      "hit": false,
      "t": 229394.8285999988,
      "d": 328.9475000000093,
      "v": 50
    },
    {
      "midi": 61,
      "hit": false,
      "t": 229835.6182499988,
      "d": 467.10544999997364,
      "v": 57
    },
    {
      "midi": 63,
      "hit": false,
      "t": 230250.0920999988,
      "d": 315.78959999998915,
      "v": 58
    },
    {
      "midi": 66,
      "hit": false,
      "t": 230710.61859999876,
      "d": 2315.790400000027,
      "v": 52
    },
    {
      "midi": 61,
      "hit": false,
      "t": 230743.51334999877,
      "d": 2315.790400000027,
      "v": 60
    },
    {
      "midi": 59,
      "hit": false,
      "t": 231460.61889999878,
      "d": 1493.4216500000039,
      "v": 1
    },
    {
      "midi": 55,
      "hit": false,
      "t": 233611.9355499988,
      "d": 473.6843999999983,
      "v": 61
    },
    {
      "midi": 58,
      "hit": false,
      "t": 233690.8829499988,
      "d": 611.8423499999917,
      "v": 78
    },
    {
      "midi": 51,
      "hit": false,
      "t": 233730.3566499988,
      "d": 3131.580200000026,
      "v": 67
    },
    {
      "midi": 63,
      "hit": false,
      "t": 233736.9355999988,
      "d": 546.0528500000073,
      "v": 90
    },
    {
      "midi": 39,
      "hit": false,
      "t": 233743.5145499988,
      "d": 3078.9486000000325,
      "v": 75
    },
    {
      "midi": 67,
      "hit": false,
      "t": 233782.9882499988,
      "d": 1375.000549999997,
      "v": 71
    },
    {
      "midi": 55,
      "hit": false,
      "t": 234157.9883999988,
      "d": 565.7896999999939,
      "v": 45
    },
    {
      "midi": 58,
      "hit": false,
      "t": 234592.1990999988,
      "d": 592.1055000000051,
      "v": 71
    },
    {
      "midi": 63,
      "hit": false,
      "t": 234618.51489999882,
      "d": 394.7369999999937,
      "v": 61
    },
    {
      "midi": 55,
      "hit": false,
      "t": 235006.6729499988,
      "d": 335.52645000000484,
      "v": 45
    },
    {
      "midi": 67,
      "hit": false,
      "t": 235434.30469999881,
      "d": 434.2107000000251,
      "v": 58
    },
    {
      "midi": 58,
      "hit": false,
      "t": 235434.30469999881,
      "d": 486.84230000001844,
      "v": 58
    },
    {
      "midi": 55,
      "hit": false,
      "t": 235842.19959999883,
      "d": 157.89480000000913,
      "v": 48
    },
    {
      "midi": 68,
      "hit": false,
      "t": 236269.83134999883,
      "d": 552.6318000000028,
      "v": 60
    },
    {
      "midi": 58,
      "hit": false,
      "t": 236276.41029999882,
      "d": 552.6318000000028,
      "v": 56
    },
    {
      "midi": 55,
      "hit": false,
      "t": 236750.09469999882,
      "d": 171.0527000000002,
      "v": 47
    },
    {
      "midi": 58,
      "hit": false,
      "t": 237236.9369999988,
      "d": 5934.212899999984,
      "v": 65
    },
    {
      "midi": 39,
      "hit": false,
      "t": 237236.9369999988,
      "d": 5960.528699999966,
      "v": 75
    },
    {
      "midi": 67,
      "hit": false,
      "t": 237243.5159499988,
      "d": 5927.6339499999885,
      "v": 63
    },
    {
      "midi": 55,
      "hit": false,
      "t": 237243.5159499988,
      "d": 5934.212899999984,
      "v": 58
    },
    {
      "midi": 51,
      "hit": false,
      "t": 237243.5159499988,
      "d": 5947.370799999975,
      "v": 64
    },
    {
      "midi": 63,
      "hit": false,
      "t": 237250.0948999988,
      "d": 5921.054999999993,
      "v": 70
    }
  ]
}