{
  "jsonPath": "Animes/Lost Universe MIDI Collection/infinity.json",
  "path": "Animes\\Lost Universe MIDI Collection\\Infinity.mid",
  "name": "Infinity",
  "difficulty": "Advanced",
  "bpm": 145.00003625000906,
  "notes": [
    {
      "midi": 39,
      "hit": false,
      "t": 1655.1719999999991,
      "d": 93.10342500000002,
      "v": 50
    },
    {
      "midi": 35,
      "hit": false,
      "t": 1655.1719999999991,
      "d": 93.10342500000002,
      "v": 76
    },
    {
      "midi": 75,
      "hit": false,
      "t": 1655.1719999999991,
      "d": 93.10342500000002,
      "v": 120
    },
    {
      "midi": 37,
      "hit": false,
      "t": 1655.1719999999991,
      "d": 372.41370000000006,
      "v": 120
    },
    {
      "midi": 39,
      "hit": false,
      "t": 1862.0684999999992,
      "d": 93.10342500000002,
      "v": 50
    },
    {
      "midi": 35,
      "hit": false,
      "t": 1862.0684999999992,
      "d": 93.10342500000002,
      "v": 76
    },
    {
      "midi": 76,
      "hit": false,
      "t": 1862.0684999999992,
      "d": 93.10342500000002,
      "v": 120
    },
    {
      "midi": 39,
      "hit": false,
      "t": 1965.516749999999,
      "d": 93.10342500000002,
      "v": 50
    },
    {
      "midi": 35,
      "hit": false,
      "t": 1965.516749999999,
      "d": 93.10342500000002,
      "v": 76
    },
    {
      "midi": 71,
      "hit": false,
      "t": 1965.516749999999,
      "d": 93.10342500000002,
      "v": 120
    },
    {
      "midi": 37,
      "hit": false,
      "t": 2068.9649999999992,
      "d": 186.20685000000003,
      "v": 120
    },
    {
      "midi": 46,
      "hit": false,
      "t": 2068.9649999999992,
      "d": 372.41370000000006,
      "v": 96
    },
    {
      "midi": 39,
      "hit": false,
      "t": 2172.413249999999,
      "d": 93.10342500000024,
      "v": 50
    },
    {
      "midi": 35,
      "hit": false,
      "t": 2172.413249999999,
      "d": 93.10342500000024,
      "v": 76
    },
    {
      "midi": 73,
      "hit": false,
      "t": 2172.413249999999,
      "d": 93.10342500000024,
      "v": 120
    },
    {
      "midi": 39,
      "hit": false,
      "t": 2275.8614999999995,
      "d": 93.10342499999979,
      "v": 50
    },
    {
      "midi": 35,
      "hit": false,
      "t": 2275.8614999999995,
      "d": 93.10342499999979,
      "v": 76
    },
    {
      "midi": 32,
      "hit": false,
      "t": 2275.8614999999995,
      "d": 93.10342499999979,
      "v": 120
    },
    {
      "midi": 68,
      "hit": false,
      "t": 2275.8614999999995,
      "d": 93.10342499999979,
      "v": 120
    },
    {
      "midi": 35,
      "hit": false,
      "t": 2482.7579999999994,
      "d": 82.75860000000011,
      "v": 76
    },
    {
      "midi": 39,
      "hit": false,
      "t": 2482.7579999999994,
      "d": 93.10342500000024,
      "v": 50
    },
    {
      "midi": 71,
      "hit": false,
      "t": 2482.7579999999994,
      "d": 93.10342500000024,
      "v": 120
    },
    {
      "midi": 39,
      "hit": false,
      "t": 2586.2062499999997,
      "d": 93.10342499999979,
      "v": 50
    },
    {
      "midi": 35,
      "hit": false,
      "t": 2586.2062499999997,
      "d": 93.10342499999979,
      "v": 76
    },
    {
      "midi": 66,
      "hit": false,
      "t": 2586.2062499999997,
      "d": 93.10342499999979,
      "v": 120
    },
    {
      "midi": 37,
      "hit": false,
      "t": 2689.6544999999996,
      "d": 186.20685000000003,
      "v": 120
    },
    {
      "midi": 39,
      "hit": false,
      "t": 2793.1027499999996,
      "d": 93.10342500000024,
      "v": 50
    },
    {
      "midi": 35,
      "hit": false,
      "t": 2793.1027499999996,
      "d": 93.10342500000024,
      "v": 76
    },
    {
      "midi": 68,
      "hit": false,
      "t": 2793.1027499999996,
      "d": 93.10342500000024,
      "v": 120
    },
    {
      "midi": 39,
      "hit": false,
      "t": 2896.551,
      "d": 93.10342499999979,
      "v": 50
    },
    {
      "midi": 35,
      "hit": false,
      "t": 2896.551,
      "d": 93.10342499999979,
      "v": 76
    },
    {
      "midi": 64,
      "hit": false,
      "t": 2896.551,
      "d": 93.10342499999979,
      "v": 120
    },
    {
      "midi": 46,
      "hit": false,
      "t": 2896.551,
      "d": 372.41369999999915,
      "v": 96
    },
    {
      "midi": 39,
      "hit": false,
      "t": 3103.4474999999993,
      "d": 93.10342499999979,
      "v": 50
    },
    {
      "midi": 35,
      "hit": false,
      "t": 3103.4474999999993,
      "d": 93.10342499999979,
      "v": 76
    },
    {
      "midi": 66,
      "hit": false,
      "t": 3103.4474999999993,
      "d": 93.10342499999979,
      "v": 120
    },
    {
      "midi": 32,
      "hit": false,
      "t": 3103.4474999999993,
      "d": 186.20684999999958,
      "v": 120
    },
    {
      "midi": 39,
      "hit": false,
      "t": 3310.3439999999987,
      "d": 93.10342499999979,
      "v": 50
    },
    {
      "midi": 35,
      "hit": false,
      "t": 3310.3439999999987,
      "d": 93.10342499999979,
      "v": 76
    },
    {
      "midi": 75,
      "hit": false,
      "t": 3310.3439999999987,
      "d": 93.10342499999979,
      "v": 120
    },
    {
      "midi": 37,
      "hit": false,
      "t": 3310.3439999999987,
      "d": 372.4136999999996,
      "v": 120
    },
    {
      "midi": 39,
      "hit": false,
      "t": 3517.2404999999985,
      "d": 93.10342499999979,
      "v": 50
    },
    {
      "midi": 35,
      "hit": false,
      "t": 3517.2404999999985,
      "d": 93.10342499999979,
      "v": 76
    },
    {
      "midi": 76,
      "hit": false,
      "t": 3517.2404999999985,
      "d": 93.10342499999979,
      "v": 120
    },
    {
      "midi": 39,
      "hit": false,
      "t": 3620.6887499999984,
      "d": 93.10342499999979,
      "v": 50
    },
    {
      "midi": 35,
      "hit": false,
      "t": 3620.6887499999984,
      "d": 93.10342499999979,
      "v": 76
    },
    {
      "midi": 71,
      "hit": false,
      "t": 3620.6887499999984,
      "d": 93.10342499999979,
      "v": 120
    },
    {
      "midi": 37,
      "hit": false,
      "t": 3724.1369999999984,
      "d": 186.20685000000003,
      "v": 120
    },
    {
      "midi": 46,
      "hit": false,
      "t": 3724.1369999999984,
      "d": 372.4137000000005,
      "v": 96
    },
    {
      "midi": 39,
      "hit": false,
      "t": 3827.5852499999983,
      "d": 93.10342500000024,
      "v": 50
    },
    {
      "midi": 35,
      "hit": false,
      "t": 3827.5852499999983,
      "d": 93.10342500000024,
      "v": 76
    },
    {
      "midi": 73,
      "hit": false,
      "t": 3827.5852499999983,
      "d": 93.10342500000024,
      "v": 120
    },
    {
      "midi": 39,
      "hit": false,
      "t": 3931.0334999999986,
      "d": 93.10342499999979,
      "v": 50
    },
    {
      "midi": 35,
      "hit": false,
      "t": 3931.0334999999986,
      "d": 93.10342499999979,
      "v": 76
    },
    {
      "midi": 32,
      "hit": false,
      "t": 3931.0334999999986,
      "d": 93.10342499999979,
      "v": 120
    },
    {
      "midi": 68,
      "hit": false,
      "t": 3931.0334999999986,
      "d": 93.10342499999979,
      "v": 120
    },
    {
      "midi": 35,
      "hit": false,
      "t": 4137.9299999999985,
      "d": 82.75860000000011,
      "v": 76
    },
    {
      "midi": 39,
      "hit": false,
      "t": 4137.9299999999985,
      "d": 93.10342500000024,
      "v": 50
    },
    {
      "midi": 40,
      "hit": false,
      "t": 4137.9299999999985,
      "d": 93.10342500000024,
      "v": 120
    },
    {
      "midi": 71,
      "hit": false,
      "t": 4137.9299999999985,
      "d": 93.10342500000024,
      "v": 120
    },
    {
      "midi": 46,
      "hit": false,
      "t": 4137.9299999999985,
      "d": 372.413700000001,
      "v": 96
    },
    {
      "midi": 39,
      "hit": false,
      "t": 4241.378249999999,
      "d": 93.10342500000024,
      "v": 50
    },
    {
      "midi": 35,
      "hit": false,
      "t": 4241.378249999999,
      "d": 93.10342500000024,
      "v": 76
    },
    {
      "midi": 40,
      "hit": false,
      "t": 4241.378249999999,
      "d": 93.10342500000024,
      "v": 120
    },
    {
      "midi": 66,
      "hit": false,
      "t": 4241.378249999999,
      "d": 93.10342500000024,
      "v": 120
    },
    {
      "midi": 40,
      "hit": false,
      "t": 4344.826499999999,
      "d": 93.10342500000024,
      "v": 120
    },
    {
      "midi": 37,
      "hit": false,
      "t": 4344.826499999999,
      "d": 186.2068500000005,
      "v": 120
    },
    {
      "midi": 39,
      "hit": false,
      "t": 4448.27475,
      "d": 93.10342500000024,
      "v": 50
    },
    {
      "midi": 35,
      "hit": false,
      "t": 4448.27475,
      "d": 93.10342500000024,
      "v": 76
    },
    {
      "midi": 40,
      "hit": false,
      "t": 4448.27475,
      "d": 93.10342500000024,
      "v": 120
    },
    {
      "midi": 68,
      "hit": false,
      "t": 4448.27475,
      "d": 93.10342500000024,
      "v": 120
    },
    {
      "midi": 39,
      "hit": false,
      "t": 4551.723,
      "d": 93.10342500000024,
      "v": 50
    },
    {
      "midi": 35,
      "hit": false,
      "t": 4551.723,
      "d": 93.10342500000024,
      "v": 76
    },
    {
      "midi": 40,
      "hit": false,
      "t": 4551.723,
      "d": 93.10342500000024,
      "v": 120
    },
    {
      "midi": 64,
      "hit": false,
      "t": 4551.723,
      "d": 93.10342500000024,
      "v": 120
    },
    {
      "midi": 46,
      "hit": false,
      "t": 4551.723,
      "d": 372.413700000001,
      "v": 96
    },
    {
      "midi": 40,
      "hit": false,
      "t": 4655.17125,
      "d": 93.10342500000024,
      "v": 120
    },
    {
      "midi": 39,
      "hit": false,
      "t": 4758.619500000001,
      "d": 93.10342500000024,
      "v": 50
    },
    {
      "midi": 35,
      "hit": false,
      "t": 4758.619500000001,
      "d": 93.10342500000024,
      "v": 76
    },
    {
      "midi": 40,
      "hit": false,
      "t": 4758.619500000001,
      "d": 93.10342500000024,
      "v": 120
    },
    {
      "midi": 66,
      "hit": false,
      "t": 4758.619500000001,
      "d": 93.10342500000024,
      "v": 120
    },
    {
      "midi": 32,
      "hit": false,
      "t": 4758.619500000001,
      "d": 186.2068500000005,
      "v": 120
    },
    {
      "midi": 40,
      "hit": false,
      "t": 4862.067750000001,
      "d": 93.10342500000024,
      "v": 120
    },
    {
      "midi": 68,
      "hit": false,
      "t": 4965.516000000001,
      "d": 186.20684999999958,
      "v": 120
    },
    {
      "midi": 80,
      "hit": false,
      "t": 4965.516000000001,
      "d": 186.20684999999958,
      "v": 120
    },
    {
      "midi": 56,
      "hit": false,
      "t": 4965.516000000001,
      "d": 2979.3095999999996,
      "v": 120
    },
    {
      "midi": 52,
      "hit": false,
      "t": 4965.516000000001,
      "d": 2979.3095999999996,
      "v": 120
    },
    {
      "midi": 35,
      "hit": false,
      "t": 5172.412500000001,
      "d": 165.51720000000023,
      "v": 76
    },
    {
      "midi": 71,
      "hit": false,
      "t": 5379.309000000001,
      "d": 186.2068500000005,
      "v": 120
    },
    {
      "midi": 83,
      "hit": false,
      "t": 5379.309000000001,
      "d": 186.2068500000005,
      "v": 120
    },
    {
      "midi": 38,
      "hit": false,
      "t": 5379.309000000001,
      "d": 372.413700000001,
      "v": 96
    },
    {
      "midi": 35,
      "hit": false,
      "t": 5793.102000000002,
      "d": 165.51720000000023,
      "v": 96
    },
    {
      "midi": 73,
      "hit": false,
      "t": 5793.102000000002,
      "d": 372.41370000000006,
      "v": 120
    },
    {
      "midi": 85,
      "hit": false,
      "t": 5793.102000000002,
      "d": 372.41370000000006,
      "v": 120
    },
    {
      "midi": 35,
      "hit": false,
      "t": 5999.9985000000015,
      "d": 165.51720000000023,
      "v": 76
    },
    {
      "midi": 38,
      "hit": false,
      "t": 6206.895000000001,
      "d": 372.41370000000006,
      "v": 96
    },
    {
      "midi": 57,
      "hit": false,
      "t": 6206.895000000001,
      "d": 1489.6548000000003,
      "v": 120
    },
    {
      "midi": 35,
      "hit": false,
      "t": 6620.688000000001,
      "d": 165.51720000000023,
      "v": 96
    },
    {
      "midi": 68,
      "hit": false,
      "t": 6620.688000000001,
      "d": 186.2068500000005,
      "v": 120
    },
    {
      "midi": 80,
      "hit": false,
      "t": 6620.688000000001,
      "d": 186.2068500000005,
      "v": 120
    },
    {
      "midi": 35,
      "hit": false,
      "t": 6827.584500000002,
      "d": 165.51720000000023,
      "v": 76
    },
    {
      "midi": 71,
      "hit": false,
      "t": 6931.032750000002,
      "d": 186.20684999999958,
      "v": 120
    },
    {
      "midi": 83,
      "hit": false,
      "t": 6931.032750000002,
      "d": 186.20684999999958,
      "v": 120
    },
    {
      "midi": 38,
      "hit": false,
      "t": 7034.481000000002,
      "d": 372.41370000000006,
      "v": 96
    },
    {
      "midi": 73,
      "hit": false,
      "t": 7241.377500000001,
      "d": 186.2068500000005,
      "v": 120
    },
    {
      "midi": 85,
      "hit": false,
      "t": 7241.377500000001,
      "d": 186.2068500000005,
      "v": 120
    },
    {
      "midi": 35,
      "hit": false,
      "t": 7448.274000000002,
      "d": 165.51720000000023,
      "v": 96
    },
    {
      "midi": 76,
      "hit": false,
      "t": 7655.170500000002,
      "d": 93.10342499999933,
      "v": 120
    },
    {
      "midi": 35,
      "hit": false,
      "t": 7655.170500000002,
      "d": 165.51719999999932,
      "v": 76
    },
    {
      "midi": 76,
      "hit": false,
      "t": 7862.067000000001,
      "d": 93.10342500000024,
      "v": 120
    },
    {
      "midi": 38,
      "hit": false,
      "t": 7862.067000000001,
      "d": 372.413700000001,
      "v": 96
    },
    {
      "midi": 76,
      "hit": false,
      "t": 7965.515250000001,
      "d": 93.10342500000024,
      "v": 120
    },
    {
      "midi": 35,
      "hit": false,
      "t": 8275.860000000002,
      "d": 165.51720000000023,
      "v": 96
    },
    {
      "midi": 68,
      "hit": false,
      "t": 8275.860000000002,
      "d": 372.413700000001,
      "v": 120
    },
    {
      "midi": 80,
      "hit": false,
      "t": 8275.860000000002,
      "d": 372.413700000001,
      "v": 120
    },
    {
      "midi": 57,
      "hit": false,
      "t": 8275.860000000002,
      "d": 1489.6548000000057,
      "v": 120
    },
    {
      "midi": 52,
      "hit": false,
      "t": 8275.860000000002,
      "d": 1489.6548000000057,
      "v": 120
    },
    {
      "midi": 35,
      "hit": false,
      "t": 8482.756500000003,
      "d": 165.51720000000023,
      "v": 76
    },
    {
      "midi": 38,
      "hit": false,
      "t": 8689.653000000004,
      "d": 372.413700000001,
      "v": 96
    },
    {
      "midi": 71,
      "hit": false,
      "t": 8689.653000000004,
      "d": 372.413700000001,
      "v": 120
    },
    {
      "midi": 83,
      "hit": false,
      "t": 8689.653000000004,
      "d": 372.413700000001,
      "v": 120
    },
    {
      "midi": 35,
      "hit": false,
      "t": 9103.446000000005,
      "d": 165.51720000000023,
      "v": 96
    },
    {
      "midi": 73,
      "hit": false,
      "t": 9103.446000000005,
      "d": 372.413700000001,
      "v": 120
    },
    {
      "midi": 85,
      "hit": false,
      "t": 9103.446000000005,
      "d": 372.413700000001,
      "v": 120
    },
    {
      "midi": 35,
      "hit": false,
      "t": 9310.342500000006,
      "d": 165.51720000000023,
      "v": 76
    },
    {
      "midi": 38,
      "hit": false,
      "t": 9517.239000000007,
      "d": 372.413700000001,
      "v": 96
    },
    {
      "midi": 80,
      "hit": false,
      "t": 9517.239000000007,
      "d": 372.413700000001,
      "v": 120
    },
    {
      "midi": 92,
      "hit": false,
      "t": 9517.239000000007,
      "d": 372.413700000001,
      "v": 120
    },
    {
      "midi": 35,
      "hit": false,
      "t": 9931.032000000008,
      "d": 165.51720000000023,
      "v": 96
    },
    {
      "midi": 78,
      "hit": false,
      "t": 9931.032000000008,
      "d": 186.2068500000005,
      "v": 120
    },
    {
      "midi": 90,
      "hit": false,
      "t": 9931.032000000008,
      "d": 186.2068500000005,
      "v": 120
    },
    {
      "midi": 54,
      "hit": false,
      "t": 9931.032000000008,
      "d": 744.8274000000001,
      "v": 120
    },
    {
      "midi": 49,
      "hit": false,
      "t": 9931.032000000008,
      "d": 744.8274000000001,
      "v": 120
    },
    {
      "midi": 35,
      "hit": false,
      "t": 10137.928500000009,
      "d": 165.51720000000023,
      "v": 76
    },
    {
      "midi": 78,
      "hit": false,
      "t": 10241.376750000009,
      "d": 186.2068500000005,
      "v": 120
    },
    {
      "midi": 90,
      "hit": false,
      "t": 10241.376750000009,
      "d": 186.2068500000005,
      "v": 120
    },
    {
      "midi": 38,
      "hit": false,
      "t": 10344.82500000001,
      "d": 372.41369999999915,
      "v": 96
    },
    {
      "midi": 76,
      "hit": false,
      "t": 10551.721500000009,
      "d": 186.2068500000005,
      "v": 120
    },
    {
      "midi": 88,
      "hit": false,
      "t": 10551.721500000009,
      "d": 186.2068500000005,
      "v": 120
    },
    {
      "midi": 35,
      "hit": false,
      "t": 10551.721500000009,
      "d": 372.413700000001,
      "v": 76
    },
    {
      "midi": 40,
      "hit": false,
      "t": 10758.61800000001,
      "d": 93.10342499999933,
      "v": 96
    },
    {
      "midi": 78,
      "hit": false,
      "t": 10758.61800000001,
      "d": 372.413700000001,
      "v": 120
    },
    {
      "midi": 90,
      "hit": false,
      "t": 10758.61800000001,
      "d": 372.413700000001,
      "v": 120
    },
    {
      "midi": 56,
      "hit": false,
      "t": 10758.61800000001,
      "d": 744.827400000002,
      "v": 120
    },
    {
      "midi": 51,
      "hit": false,
      "t": 10758.61800000001,
      "d": 744.827400000002,
      "v": 120
    },
    {
      "midi": 40,
      "hit": false,
      "t": 10862.066250000009,
      "d": 93.10342500000115,
      "v": 96
    },
    {
      "midi": 40,
      "hit": false,
      "t": 10965.51450000001,
      "d": 186.2068500000005,
      "v": 96
    },
    {
      "midi": 40,
      "hit": false,
      "t": 11172.411000000011,
      "d": 186.2068500000005,
      "v": 96
    },
    {
      "midi": 40,
      "hit": false,
      "t": 11379.307500000012,
      "d": 186.2068500000005,
      "v": 96
    },
    {
      "midi": 68,
      "hit": false,
      "t": 11586.204000000012,
      "d": 186.2068500000005,
      "v": 120
    },
    {
      "midi": 80,
      "hit": false,
      "t": 11586.204000000012,
      "d": 186.2068500000005,
      "v": 120
    },
    {
      "midi": 56,
      "hit": false,
      "t": 11586.204000000012,
      "d": 2979.3096000000096,
      "v": 120
    },
    {
      "midi": 52,
      "hit": false,
      "t": 11586.204000000012,
      "d": 2979.3096000000096,
      "v": 120
    },
    {
      "midi": 35,
      "hit": false,
      "t": 11793.100500000013,
      "d": 165.51720000000023,
      "v": 76
    },
    {
      "midi": 71,
      "hit": false,
      "t": 11999.997000000014,
      "d": 186.2068500000005,
      "v": 120
    },
    {
      "midi": 83,
      "hit": false,
      "t": 11999.997000000014,
      "d": 186.2068500000005,
      "v": 120
    },
    {
      "midi": 38,
      "hit": false,
      "t": 11999.997000000014,
      "d": 372.413700000001,
      "v": 96
    },
    {
      "midi": 35,
      "hit": false,
      "t": 12413.790000000015,
      "d": 165.51720000000023,
      "v": 96
    },
    {
      "midi": 73,
      "hit": false,
      "t": 12413.790000000015,
      "d": 372.413700000001,
      "v": 120
    },
    {
      "midi": 85,
      "hit": false,
      "t": 12413.790000000015,
      "d": 372.413700000001,
      "v": 120
    },
    {
      "midi": 35,
      "hit": false,
      "t": 12620.686500000016,
      "d": 165.51720000000023,
      "v": 76
    },
    {
      "midi": 38,
      "hit": false,
      "t": 12827.583000000017,
      "d": 372.413700000001,
      "v": 96
    },
    {
      "midi": 57,
      "hit": false,
      "t": 12827.583000000017,
      "d": 1489.654800000004,
      "v": 120
    },
    {
      "midi": 35,
      "hit": false,
      "t": 13241.376000000018,
      "d": 165.51720000000023,
      "v": 96
    },
    {
      "midi": 68,
      "hit": false,
      "t": 13241.376000000018,
      "d": 186.2068500000005,
      "v": 120
    },
    {
      "midi": 80,
      "hit": false,
      "t": 13241.376000000018,
      "d": 186.2068500000005,
      "v": 120
    },
    {
      "midi": 35,
      "hit": false,
      "t": 13448.27250000002,
      "d": 165.51720000000023,
      "v": 76
    },
    {
      "midi": 71,
      "hit": false,
      "t": 13551.720750000019,
      "d": 186.2068500000005,
      "v": 120
    },
    {
      "midi": 83,
      "hit": false,
      "t": 13551.720750000019,
      "d": 186.2068500000005,
      "v": 120
    },
    {
      "midi": 38,
      "hit": false,
      "t": 13655.16900000002,
      "d": 372.41369999999915,
      "v": 96
    },
    {
      "midi": 73,
      "hit": false,
      "t": 13862.065500000019,
      "d": 186.2068500000005,
      "v": 120
    },
    {
      "midi": 85,
      "hit": false,
      "t": 13862.065500000019,
      "d": 186.2068500000005,
      "v": 120
    },
    {
      "midi": 35,
      "hit": false,
      "t": 14068.96200000002,
      "d": 165.51720000000023,
      "v": 96
    },
    {
      "midi": 76,
      "hit": false,
      "t": 14275.85850000002,
      "d": 93.10342500000115,
      "v": 120
    },
    {
      "midi": 35,
      "hit": false,
      "t": 14275.85850000002,
      "d": 165.51720000000205,
      "v": 76
    },
    {
      "midi": 76,
      "hit": false,
      "t": 14482.755000000023,
      "d": 93.10342499999933,
      "v": 120
    },
    {
      "midi": 38,
      "hit": false,
      "t": 14482.755000000023,
      "d": 372.413700000001,
      "v": 96
    },
    {
      "midi": 76,
      "hit": false,
      "t": 14586.203250000022,
      "d": 93.10342500000115,
      "v": 120
    },
    {
      "midi": 35,
      "hit": false,
      "t": 14896.548000000024,
      "d": 165.51720000000023,
      "v": 96
    },
    {
      "midi": 68,
      "hit": false,
      "t": 14896.548000000024,
      "d": 372.413700000001,
      "v": 120
    },
    {
      "midi": 80,
      "hit": false,
      "t": 14896.548000000024,
      "d": 372.413700000001,
      "v": 120
    },
    {
      "midi": 57,
      "hit": false,
      "t": 14896.548000000024,
      "d": 1489.654800000004,
      "v": 120
    },
    {
      "midi": 52,
      "hit": false,
      "t": 14896.548000000024,
      "d": 1489.654800000004,
      "v": 120
    },
    {
      "midi": 35,
      "hit": false,
      "t": 15103.444500000025,
      "d": 165.51720000000023,
      "v": 76
    },
    {
      "midi": 38,
      "hit": false,
      "t": 15310.341000000026,
      "d": 372.413700000001,
      "v": 96
    },
    {
      "midi": 71,
      "hit": false,
      "t": 15310.341000000026,
      "d": 372.413700000001,
      "v": 120
    },
    {
      "midi": 83,
      "hit": false,
      "t": 15310.341000000026,
      "d": 372.413700000001,
      "v": 120
    },
    {
      "midi": 35,
      "hit": false,
      "t": 15724.134000000027,
      "d": 165.51720000000023,
      "v": 96
    },
    {
      "midi": 73,
      "hit": false,
      "t": 15724.134000000027,
      "d": 372.413700000001,
      "v": 120
    },
    {
      "midi": 85,
      "hit": false,
      "t": 15724.134000000027,
      "d": 372.413700000001,
      "v": 120
    },
    {
      "midi": 35,
      "hit": false,
      "t": 15931.030500000028,
      "d": 165.51720000000023,
      "v": 76
    },
    {
      "midi": 38,
      "hit": false,
      "t": 16137.927000000029,
      "d": 372.413700000001,
      "v": 96
    },
    {
      "midi": 80,
      "hit": false,
      "t": 16137.927000000029,
      "d": 372.413700000001,
      "v": 120
    },
    {
      "midi": 92,
      "hit": false,
      "t": 16137.927000000029,
      "d": 372.413700000001,
      "v": 120
    },
    {
      "midi": 35,
      "hit": false,
      "t": 16344.82350000003,
      "d": 372.41369999999915,
      "v": 76
    },
    {
      "midi": 78,
      "hit": false,
      "t": 16551.72000000003,
      "d": 186.20684999999867,
      "v": 120
    },
    {
      "midi": 90,
      "hit": false,
      "t": 16551.72000000003,
      "d": 186.20684999999867,
      "v": 120
    },
    {
      "midi": 54,
      "hit": false,
      "t": 16551.72000000003,
      "d": 744.8274000000056,
      "v": 120
    },
    {
      "midi": 49,
      "hit": false,
      "t": 16551.72000000003,
      "d": 744.8274000000056,
      "v": 120
    },
    {
      "midi": 47,
      "hit": false,
      "t": 16758.61650000003,
      "d": 93.10342500000115,
      "v": 96
    },
    {
      "midi": 47,
      "hit": false,
      "t": 16862.06475000003,
      "d": 93.10342500000115,
      "v": 96
    },
    {
      "midi": 78,
      "hit": false,
      "t": 16862.06475000003,
      "d": 186.2068500000023,
      "v": 120
    },
    {
      "midi": 90,
      "hit": false,
      "t": 16862.06475000003,
      "d": 186.2068500000023,
      "v": 120
    },
    {
      "midi": 45,
      "hit": false,
      "t": 17172.409500000034,
      "d": 93.10342500000115,
      "v": 96
    },
    {
      "midi": 76,
      "hit": false,
      "t": 17172.409500000034,
      "d": 186.2068500000023,
      "v": 120
    },
    {
      "midi": 88,
      "hit": false,
      "t": 17172.409500000034,
      "d": 186.2068500000023,
      "v": 120
    },
    {
      "midi": 45,
      "hit": false,
      "t": 17275.857750000036,
      "d": 93.10342500000115,
      "v": 96
    },
    {
      "midi": 38,
      "hit": false,
      "t": 17379.306000000037,
      "d": 93.10342500000115,
      "v": 96
    },
    {
      "midi": 80,
      "hit": false,
      "t": 17379.306000000037,
      "d": 93.10342500000115,
      "v": 76
    },
    {
      "midi": 78,
      "hit": false,
      "t": 17379.306000000037,
      "d": 372.4137000000046,
      "v": 120
    },
    {
      "midi": 90,
      "hit": false,
      "t": 17379.306000000037,
      "d": 372.4137000000046,
      "v": 120
    },
    {
      "midi": 56,
      "hit": false,
      "t": 17379.306000000037,
      "d": 744.8274000000092,
      "v": 120
    },
    {
      "midi": 51,
      "hit": false,
      "t": 17379.306000000037,
      "d": 744.8274000000092,
      "v": 120
    },
    {
      "midi": 38,
      "hit": false,
      "t": 17482.754250000038,
      "d": 93.10342500000115,
      "v": 96
    },
    {
      "midi": 68,
      "hit": false,
      "t": 17482.754250000038,
      "d": 93.10342500000115,
      "v": 76
    },
    {
      "midi": 38,
      "hit": false,
      "t": 17586.20250000004,
      "d": 93.10342500000115,
      "v": 96
    },
    {
      "midi": 80,
      "hit": false,
      "t": 17586.20250000004,
      "d": 93.10342500000115,
      "v": 76
    },
    {
      "midi": 68,
      "hit": false,
      "t": 17689.65075000004,
      "d": 93.10342500000115,
      "v": 76
    },
    {
      "midi": 38,
      "hit": false,
      "t": 17793.099000000042,
      "d": 93.10342500000115,
      "v": 96
    },
    {
      "midi": 80,
      "hit": false,
      "t": 17793.099000000042,
      "d": 93.10342500000115,
      "v": 76
    },
    {
      "midi": 38,
      "hit": false,
      "t": 17896.547250000043,
      "d": 93.10342500000115,
      "v": 96
    },
    {
      "midi": 68,
      "hit": false,
      "t": 17896.547250000043,
      "d": 93.10342500000115,
      "v": 76
    },
    {
      "midi": 38,
      "hit": false,
      "t": 17999.995500000045,
      "d": 93.10342500000115,
      "v": 96
    },
    {
      "midi": 80,
      "hit": false,
      "t": 17999.995500000045,
      "d": 93.10342500000115,
      "v": 76
    },
    {
      "midi": 38,
      "hit": false,
      "t": 18103.443750000046,
      "d": 93.10342500000115,
      "v": 96
    },
    {
      "midi": 68,
      "hit": false,
      "t": 18103.443750000046,
      "d": 93.10342500000115,
      "v": 76
    },
    {
      "midi": 68,
      "hit": false,
      "t": 18206.892000000047,
      "d": 93.10342500000115,
      "v": 62
    },
    {
      "midi": 36,
      "hit": false,
      "t": 18206.892000000047,
      "d": 372.4137000000046,
      "v": 127
    },
    {
      "midi": 64,
      "hit": false,
      "t": 18206.892000000047,
      "d": 372.4137000000046,
      "v": 62
    },
    {
      "midi": 37,
      "hit": false,
      "t": 18206.892000000047,
      "d": 3310.344000000041,
      "v": 120
    },
    {
      "midi": 68,
      "hit": false,
      "t": 18310.34025000005,
      "d": 93.10342500000115,
      "v": 76
    },
    {
      "midi": 68,
      "hit": false,
      "t": 18413.78850000005,
      "d": 93.10342500000115,
      "v": 76
    },
    {
      "midi": 68,
      "hit": false,
      "t": 18517.23675000005,
      "d": 93.10342500000115,
      "v": 76
    },
    {
      "midi": 80,
      "hit": false,
      "t": 18620.685000000052,
      "d": 93.10342500000115,
      "v": 76
    },
    {
      "midi": 66,
      "hit": false,
      "t": 18620.685000000052,
      "d": 372.4137000000046,
      "v": 120
    },
    {
      "midi": 68,
      "hit": false,
      "t": 18724.133250000054,
      "d": 93.10342500000115,
      "v": 76
    },
    {
      "midi": 68,
      "hit": false,
      "t": 18827.581500000055,
      "d": 93.10342500000115,
      "v": 76
    },
    {
      "midi": 68,
      "hit": false,
      "t": 18931.029750000056,
      "d": 93.10342500000115,
      "v": 76
    },
    {
      "midi": 68,
      "hit": false,
      "t": 19034.478000000057,
      "d": 93.10342500000115,
      "v": 76
    },
    {
      "midi": 61,
      "hit": false,
      "t": 19034.478000000057,
      "d": 372.4137000000046,
      "v": 120
    },
    {
      "midi": 68,
      "hit": false,
      "t": 19137.92625000006,
      "d": 93.10342500000115,
      "v": 76
    },
    {
      "midi": 80,
      "hit": false,
      "t": 19241.37450000006,
      "d": 93.10342500000115,
      "v": 76
    },
    {
      "midi": 68,
      "hit": false,
      "t": 19344.82275000006,
      "d": 93.10342500000115,
      "v": 76
    },
    {
      "midi": 80,
      "hit": false,
      "t": 19448.271000000062,
      "d": 93.10342500000115,
      "v": 76
    },
    {
      "midi": 63,
      "hit": false,
      "t": 19448.271000000062,
      "d": 372.4137000000046,
      "v": 120
    },
    {
      "midi": 68,
      "hit": false,
      "t": 19551.719250000064,
      "d": 93.10342500000115,
      "v": 76
    },
    {
      "midi": 68,
      "hit": false,
      "t": 19655.167500000065,
      "d": 93.10342500000115,
      "v": 76
    },
    {
      "midi": 68,
      "hit": false,
      "t": 19758.615750000066,
      "d": 93.10342500000115,
      "v": 76
    },
    {
      "midi": 68,
      "hit": false,
      "t": 19862.064000000068,
      "d": 93.10342500000115,
      "v": 76
    },
    {
      "midi": 64,
      "hit": false,
      "t": 19862.064000000068,
      "d": 186.2068500000023,
      "v": 120
    },
    {
      "midi": 36,
      "hit": false,
      "t": 19862.064000000068,
      "d": 372.4137000000046,
      "v": 127
    },
    {
      "midi": 68,
      "hit": false,
      "t": 19965.51225000007,
      "d": 93.10342500000115,
      "v": 76
    },
    {
      "midi": 80,
      "hit": false,
      "t": 20068.96050000007,
      "d": 93.10342500000115,
      "v": 76
    },
    {
      "midi": 68,
      "hit": false,
      "t": 20172.40875000007,
      "d": 93.10342500000115,
      "v": 76
    },
    {
      "midi": 64,
      "hit": false,
      "t": 20172.40875000007,
      "d": 279.31027500000346,
      "v": 120
    },
    {
      "midi": 68,
      "hit": false,
      "t": 20275.857000000073,
      "d": 93.10342500000115,
      "v": 76
    },
    {
      "midi": 68,
      "hit": false,
      "t": 20379.305250000074,
      "d": 93.10342500000115,
      "v": 76
    },
    {
      "midi": 68,
      "hit": false,
      "t": 20482.753500000075,
      "d": 93.10342500000115,
      "v": 76
    },
    {
      "midi": 66,
      "hit": false,
      "t": 20482.753500000075,
      "d": 186.2068500000023,
      "v": 120
    },
    {
      "midi": 68,
      "hit": false,
      "t": 20586.201750000077,
      "d": 93.10342500000115,
      "v": 76
    },
    {
      "midi": 68,
      "hit": false,
      "t": 20689.650000000078,
      "d": 93.10342500000115,
      "v": 76
    },
    {
      "midi": 61,
      "hit": false,
      "t": 20689.650000000078,
      "d": 620.6895000000077,
      "v": 120
    },
    {
      "midi": 68,
      "hit": false,
      "t": 20793.09825000008,
      "d": 93.10342500000115,
      "v": 76
    },
    {
      "midi": 80,
      "hit": false,
      "t": 20896.54650000008,
      "d": 93.10342500000115,
      "v": 76
    },
    {
      "midi": 68,
      "hit": false,
      "t": 20999.99475000008,
      "d": 93.10342500000115,
      "v": 76
    },
    {
      "midi": 80,
      "hit": false,
      "t": 21103.443000000083,
      "d": 93.10342500000115,
      "v": 76
    },
    {
      "midi": 68,
      "hit": false,
      "t": 21206.891250000084,
      "d": 93.10342500000115,
      "v": 76
    },
    {
      "midi": 36,
      "hit": false,
      "t": 21310.339500000086,
      "d": 93.10342500000115,
      "v": 127
    },
    {
      "midi": 68,
      "hit": false,
      "t": 21310.339500000086,
      "d": 93.10342500000115,
      "v": 76
    },
    {
      "midi": 68,
      "hit": false,
      "t": 21413.787750000087,
      "d": 93.10342500000115,
      "v": 76
    },
    {
      "midi": 36,
      "hit": false,
      "t": 21517.236000000088,
      "d": 93.10342500000115,
      "v": 127
    },
    {
      "midi": 68,
      "hit": false,
      "t": 21517.236000000088,
      "d": 93.10342500000115,
      "v": 62
    },
    {
      "midi": 64,
      "hit": false,
      "t": 21517.236000000088,
      "d": 372.4137000000046,
      "v": 62
    },
    {
      "midi": 59,
      "hit": false,
      "t": 21517.236000000088,
      "d": 3310.344000000041,
      "v": 79
    },
    {
      "midi": 35,
      "hit": false,
      "t": 21517.236000000088,
      "d": 3310.344000000041,
      "v": 120
    },
    {
      "midi": 68,
      "hit": false,
      "t": 21620.68425000009,
      "d": 93.10342500000115,
      "v": 76
    },
    {
      "midi": 68,
      "hit": false,
      "t": 21724.13250000009,
      "d": 93.10342500000115,
      "v": 76
    },
    {
      "midi": 68,
      "hit": false,
      "t": 21827.580750000092,
      "d": 93.10342500000115,
      "v": 76
    },
    {
      "midi": 80,
      "hit": false,
      "t": 21931.029000000093,
      "d": 93.10342500000115,
      "v": 76
    },
    {
      "midi": 66,
      "hit": false,
      "t": 21931.029000000093,
      "d": 372.4137000000046,
      "v": 120
    },
    {
      "midi": 68,
      "hit": false,
      "t": 22034.477250000095,
      "d": 93.10342500000115,
      "v": 76
    },
    {
      "midi": 68,
      "hit": false,
      "t": 22137.925500000096,
      "d": 93.10342500000115,
      "v": 76
    },
    {
      "midi": 68,
      "hit": false,
      "t": 22241.373750000097,
      "d": 93.10342500000115,
      "v": 76
    },
    {
      "midi": 68,
      "hit": false,
      "t": 22344.8220000001,
      "d": 93.10342500000115,
      "v": 76
    },
    {
      "midi": 61,
      "hit": false,
      "t": 22344.8220000001,
      "d": 372.4137000000046,
      "v": 120
    },
    {
      "midi": 68,
      "hit": false,
      "t": 22448.2702500001,
      "d": 93.10342500000115,
      "v": 76
    },
    {
      "midi": 80,
      "hit": false,
      "t": 22551.7185000001,
      "d": 93.10342500000115,
      "v": 76
    },
    {
      "midi": 68,
      "hit": false,
      "t": 22655.166750000102,
      "d": 93.10342500000115,
      "v": 76
    },
    {
      "midi": 80,
      "hit": false,
      "t": 22758.615000000103,
      "d": 93.10342500000115,
      "v": 76
    },
    {
      "midi": 63,
      "hit": false,
      "t": 22758.615000000103,
      "d": 372.4137000000046,
      "v": 120
    },
    {
      "midi": 68,
      "hit": false,
      "t": 22862.063250000105,
      "d": 93.10342500000115,
      "v": 76
    },
    {
      "midi": 68,
      "hit": false,
      "t": 22965.511500000106,
      "d": 93.10342500000115,
      "v": 76
    },
    {
      "midi": 68,
      "hit": false,
      "t": 23068.959750000107,
      "d": 93.10342500000115,
      "v": 76
    },
    {
      "midi": 36,
      "hit": false,
      "t": 23172.40800000011,
      "d": 93.10342500000115,
      "v": 127
    },
    {
      "midi": 68,
      "hit": false,
      "t": 23172.40800000011,
      "d": 93.10342500000115,
      "v": 76
    },
    {
      "midi": 64,
      "hit": false,
      "t": 23172.40800000011,
      "d": 186.2068500000023,
      "v": 120
    },
    {
      "midi": 68,
      "hit": false,
      "t": 23275.85625000011,
      "d": 93.10342500000115,
      "v": 76
    },
    {
      "midi": 80,
      "hit": false,
      "t": 23379.30450000011,
      "d": 93.10342500000115,
      "v": 76
    },
    {
      "midi": 68,
      "hit": false,
      "t": 23482.752750000112,
      "d": 93.10342500000115,
      "v": 76
    },
    {
      "midi": 64,
      "hit": false,
      "t": 23482.752750000112,
      "d": 279.31027500000346,
      "v": 120
    },
    {
      "midi": 68,
      "hit": false,
      "t": 23586.201000000114,
      "d": 93.10342500000115,
      "v": 76
    },
    {
      "midi": 68,
      "hit": false,
      "t": 23689.649250000115,
      "d": 93.10342500000115,
      "v": 76
    },
    {
      "midi": 68,
      "hit": false,
      "t": 23793.097500000116,
      "d": 93.10342500000115,
      "v": 76
    },
    {
      "midi": 66,
      "hit": false,
      "t": 23793.097500000116,
      "d": 186.2068500000023,
      "v": 120
    },
    {
      "midi": 68,
      "hit": false,
      "t": 23896.545750000118,
      "d": 93.10342500000115,
      "v": 76
    },
    {
      "midi": 68,
      "hit": false,
      "t": 23999.99400000012,
      "d": 93.10342500000115,
      "v": 76
    },
    {
      "midi": 68,
      "hit": false,
      "t": 24103.44225000012,
      "d": 93.10342500000115,
      "v": 76
    },
    {
      "midi": 80,
      "hit": false,
      "t": 24206.89050000012,
      "d": 93.10342500000115,
      "v": 76
    },
    {
      "midi": 68,
      "hit": false,
      "t": 24310.338750000123,
      "d": 93.10342500000115,
      "v": 76
    },
    {
      "midi": 80,
      "hit": false,
      "t": 24413.787000000124,
      "d": 93.10342500000115,
      "v": 76
    },
    {
      "midi": 68,
      "hit": false,
      "t": 24517.235250000125,
      "d": 93.10342500000115,
      "v": 76
    },
    {
      "midi": 36,
      "hit": false,
      "t": 24620.683500000127,
      "d": 93.10342500000115,
      "v": 127
    },
    {
      "midi": 68,
      "hit": false,
      "t": 24620.683500000127,
      "d": 93.10342500000115,
      "v": 76
    },
    {
      "midi": 68,
      "hit": false,
      "t": 24724.131750000128,
      "d": 93.10342500000115,
      "v": 76
    },
    {
      "midi": 36,
      "hit": false,
      "t": 24827.58000000013,
      "d": 93.10342500000115,
      "v": 127
    },
    {
      "midi": 68,
      "hit": false,
      "t": 24827.58000000013,
      "d": 93.10342500000115,
      "v": 76
    },
    {
      "midi": 66,
      "hit": false,
      "t": 24827.58000000013,
      "d": 372.4137000000046,
      "v": 62
    },
    {
      "midi": 70,
      "hit": false,
      "t": 24827.58000000013,
      "d": 3310.344000000041,
      "v": 62
    },
    {
      "midi": 34,
      "hit": false,
      "t": 24827.58000000013,
      "d": 3310.344000000041,
      "v": 120
    },
    {
      "midi": 68,
      "hit": false,
      "t": 24931.02825000013,
      "d": 93.10342500000115,
      "v": 76
    },
    {
      "midi": 68,
      "hit": false,
      "t": 25034.47650000013,
      "d": 93.10342500000115,
      "v": 76
    },
    {
      "midi": 68,
      "hit": false,
      "t": 25137.924750000133,
      "d": 93.10342500000115,
      "v": 76
    },
    {
      "midi": 80,
      "hit": false,
      "t": 25241.373000000134,
      "d": 93.10342500000115,
      "v": 76
    },
    {
      "midi": 68,
      "hit": false,
      "t": 25344.821250000135,
      "d": 93.10342500000115,
      "v": 76
    },
    {
      "midi": 68,
      "hit": false,
      "t": 25448.269500000137,
      "d": 93.10342500000115,
      "v": 76
    },
    {
      "midi": 68,
      "hit": false,
      "t": 25551.717750000138,
      "d": 62.06895000000077,
      "v": 76
    },
    {
      "midi": 68,
      "hit": false,
      "t": 25655.16600000014,
      "d": 93.10342500000115,
      "v": 76
    },
    {
      "midi": 61,
      "hit": false,
      "t": 25655.16600000014,
      "d": 372.4137000000046,
      "v": 120
    },
    {
      "midi": 68,
      "hit": false,
      "t": 25758.61425000014,
      "d": 93.10342500000115,
      "v": 76
    },
    {
      "midi": 80,
      "hit": false,
      "t": 25862.062500000142,
      "d": 93.10342500000115,
      "v": 76
    },
    {
      "midi": 68,
      "hit": false,
      "t": 25965.510750000143,
      "d": 93.10342500000115,
      "v": 76
    },
    {
      "midi": 80,
      "hit": false,
      "t": 26068.959000000144,
      "d": 93.10342500000115,
      "v": 76
    },
    {
      "midi": 64,
      "hit": false,
      "t": 26068.959000000144,
      "d": 372.4137000000046,
      "v": 120
    },
    {
      "midi": 68,
      "hit": false,
      "t": 26172.407250000146,
      "d": 93.10342500000115,
      "v": 76
    },
    {
      "midi": 68,
      "hit": false,
      "t": 26275.855500000147,
      "d": 93.10342500000115,
      "v": 76
    },
    {
      "midi": 68,
      "hit": false,
      "t": 26379.30375000015,
      "d": 93.10342500000115,
      "v": 76
    },
    {
      "midi": 36,
      "hit": false,
      "t": 26482.75200000015,
      "d": 93.10342500000115,
      "v": 127
    },
    {
      "midi": 68,
      "hit": false,
      "t": 26482.75200000015,
      "d": 93.10342500000115,
      "v": 76
    },
    {
      "midi": 66,
      "hit": false,
      "t": 26482.75200000015,
      "d": 186.2068500000023,
      "v": 120
    },
    {
      "midi": 68,
      "hit": false,
      "t": 26586.20025000015,
      "d": 93.10342500000115,
      "v": 76
    },
    {
      "midi": 80,
      "hit": false,
      "t": 26689.648500000152,
      "d": 93.10342500000115,
      "v": 76
    },
    {
      "midi": 68,
      "hit": false,
      "t": 26793.096750000153,
      "d": 93.10342500000115,
      "v": 76
    },
    {
      "midi": 66,
      "hit": false,
      "t": 26793.096750000153,
      "d": 279.31027500000346,
      "v": 120
    },
    {
      "midi": 68,
      "hit": false,
      "t": 26896.545000000155,
      "d": 93.10342500000115,
      "v": 76
    },
    {
      "midi": 68,
      "hit": false,
      "t": 26999.993250000156,
      "d": 93.10342500000115,
      "v": 76
    },
    {
      "midi": 68,
      "hit": false,
      "t": 27103.441500000157,
      "d": 93.10342500000115,
      "v": 76
    },
    {
      "midi": 68,
      "hit": false,
      "t": 27206.88975000016,
      "d": 82.75860000000102,
      "v": 76
    },
    {
      "midi": 68,
      "hit": false,
      "t": 27310.33800000016,
      "d": 93.10342500000115,
      "v": 76
    },
    {
      "midi": 61,
      "hit": false,
      "t": 27310.33800000016,
      "d": 413.7930000000051,
      "v": 120
    },
    {
      "midi": 68,
      "hit": false,
      "t": 27413.78625000016,
      "d": 93.10342500000115,
      "v": 76
    },
    {
      "midi": 80,
      "hit": false,
      "t": 27517.234500000162,
      "d": 93.10342500000115,
      "v": 76
    },
    {
      "midi": 68,
      "hit": false,
      "t": 27620.682750000164,
      "d": 93.10342500000115,
      "v": 76
    },
    {
      "midi": 80,
      "hit": false,
      "t": 27724.131000000165,
      "d": 93.10342500000115,
      "v": 76
    },
    {
      "midi": 68,
      "hit": false,
      "t": 27827.579250000166,
      "d": 93.10342500000115,
      "v": 76
    },
    {
      "midi": 36,
      "hit": false,
      "t": 27931.027500000167,
      "d": 93.10342500000115,
      "v": 127
    },
    {
      "midi": 68,
      "hit": false,
      "t": 27931.027500000167,
      "d": 93.10342500000115,
      "v": 76
    },
    {
      "midi": 64,
      "hit": false,
      "t": 27931.027500000167,
      "d": 186.2068500000023,
      "v": 120
    },
    {
      "midi": 68,
      "hit": false,
      "t": 28034.47575000017,
      "d": 93.10342500000115,
      "v": 76
    },
    {
      "midi": 36,
      "hit": false,
      "t": 28137.92400000017,
      "d": 93.10342500000115,
      "v": 127
    },
    {
      "midi": 68,
      "hit": false,
      "t": 28137.92400000017,
      "d": 93.10342500000115,
      "v": 76
    },
    {
      "midi": 66,
      "hit": false,
      "t": 28137.92400000017,
      "d": 372.4137000000046,
      "v": 120
    },
    {
      "midi": 33,
      "hit": false,
      "t": 28137.92400000017,
      "d": 1489.6548000000184,
      "v": 120
    },
    {
      "midi": 69,
      "hit": false,
      "t": 28137.92400000017,
      "d": 1655.1720000000205,
      "v": 62
    },
    {
      "midi": 61,
      "hit": false,
      "t": 28137.92400000017,
      "d": 1655.1720000000205,
      "v": 65
    },
    {
      "midi": 68,
      "hit": false,
      "t": 28241.37225000017,
      "d": 93.10342500000115,
      "v": 76
    },
    {
      "midi": 68,
      "hit": false,
      "t": 28344.820500000173,
      "d": 93.10342500000115,
      "v": 76
    },
    {
      "midi": 68,
      "hit": false,
      "t": 28448.268750000174,
      "d": 93.10342500000115,
      "v": 76
    },
    {
      "midi": 80,
      "hit": false,
      "t": 28551.717000000175,
      "d": 93.10342500000115,
      "v": 76
    },
    {
      "midi": 64,
      "hit": false,
      "t": 28551.717000000175,
      "d": 372.4137000000046,
      "v": 120
    },
    {
      "midi": 68,
      "hit": false,
      "t": 28655.165250000176,
      "d": 93.10342500000115,
      "v": 76
    },
    {
      "midi": 68,
      "hit": false,
      "t": 28758.613500000178,
      "d": 93.10342500000115,
      "v": 76
    },
    {
      "midi": 68,
      "hit": false,
      "t": 28862.06175000018,
      "d": 93.10342500000115,
      "v": 76
    },
    {
      "midi": 68,
      "hit": false,
      "t": 28965.51000000018,
      "d": 93.10342500000115,
      "v": 76
    },
    {
      "midi": 66,
      "hit": false,
      "t": 28965.51000000018,
      "d": 372.4137000000046,
      "v": 120
    },
    {
      "midi": 68,
      "hit": false,
      "t": 29068.95825000018,
      "d": 93.10342500000115,
      "v": 76
    },
    {
      "midi": 80,
      "hit": false,
      "t": 29172.406500000183,
      "d": 93.10342500000115,
      "v": 76
    },
    {
      "midi": 68,
      "hit": false,
      "t": 29275.854750000184,
      "d": 93.10342500000115,
      "v": 76
    },
    {
      "midi": 80,
      "hit": false,
      "t": 29379.303000000185,
      "d": 93.10342500000115,
      "v": 76
    },
    {
      "midi": 64,
      "hit": false,
      "t": 29379.303000000185,
      "d": 372.4137000000046,
      "v": 120
    },
    {
      "midi": 68,
      "hit": false,
      "t": 29482.751250000187,
      "d": 93.10342500000115,
      "v": 76
    },
    {
      "midi": 68,
      "hit": false,
      "t": 29586.199500000188,
      "d": 93.10342500000115,
      "v": 76
    },
    {
      "midi": 68,
      "hit": false,
      "t": 29689.64775000019,
      "d": 93.10342500000115,
      "v": 76
    },
    {
      "midi": 36,
      "hit": false,
      "t": 29793.09600000019,
      "d": 93.10342500000115,
      "v": 127
    },
    {
      "midi": 68,
      "hit": false,
      "t": 29793.09600000019,
      "d": 93.10342500000115,
      "v": 65
    },
    {
      "midi": 63,
      "hit": false,
      "t": 29793.09600000019,
      "d": 372.4137000000046,
      "v": 68
    },
    {
      "midi": 32,
      "hit": false,
      "t": 29793.09600000019,
      "d": 1489.6548000000184,
      "v": 120
    },
    {
      "midi": 68,
      "hit": false,
      "t": 29896.544250000192,
      "d": 93.10342500000115,
      "v": 76
    },
    {
      "midi": 80,
      "hit": false,
      "t": 29999.992500000193,
      "d": 93.10342500000115,
      "v": 76
    },
    {
      "midi": 68,
      "hit": false,
      "t": 30103.440750000194,
      "d": 93.10342500000115,
      "v": 76
    },
    {
      "midi": 68,
      "hit": false,
      "t": 30206.889000000196,
      "d": 93.10342500000115,
      "v": 76
    },
    {
      "midi": 61,
      "hit": false,
      "t": 30206.889000000196,
      "d": 186.2068500000023,
      "v": 120
    },
    {
      "midi": 68,
      "hit": false,
      "t": 30310.337250000197,
      "d": 93.10342500000115,
      "v": 76
    },
    {
      "midi": 68,
      "hit": false,
      "t": 30413.7855000002,
      "d": 93.10342500000115,
      "v": 76
    },
    {
      "midi": 63,
      "hit": false,
      "t": 30413.7855000002,
      "d": 827.5860000000102,
      "v": 120
    },
    {
      "midi": 68,
      "hit": false,
      "t": 30517.2337500002,
      "d": 93.10342500000115,
      "v": 76
    },
    {
      "midi": 68,
      "hit": false,
      "t": 30620.6820000002,
      "d": 93.10342500000115,
      "v": 76
    },
    {
      "midi": 60,
      "hit": false,
      "t": 30620.6820000002,
      "d": 827.5860000000102,
      "v": 62
    },
    {
      "midi": 68,
      "hit": false,
      "t": 30724.130250000202,
      "d": 93.10342500000115,
      "v": 76
    },
    {
      "midi": 80,
      "hit": false,
      "t": 30827.578500000203,
      "d": 93.10342500000115,
      "v": 76
    },
    {
      "midi": 68,
      "hit": false,
      "t": 30931.026750000205,
      "d": 93.10342500000115,
      "v": 76
    },
    {
      "midi": 80,
      "hit": false,
      "t": 31034.475000000206,
      "d": 93.10342500000115,
      "v": 76
    },
    {
      "midi": 68,
      "hit": false,
      "t": 31137.923250000207,
      "d": 93.10342500000115,
      "v": 76
    },
    {
      "midi": 36,
      "hit": false,
      "t": 31241.37150000021,
      "d": 93.10342500000115,
      "v": 120
    },
    {
      "midi": 68,
      "hit": false,
      "t": 31241.37150000021,
      "d": 93.10342500000115,
      "v": 76
    },
    {
      "midi": 68,
      "hit": false,
      "t": 31344.81975000021,
      "d": 93.10342500000115,
      "v": 76
    },
    {
      "midi": 52,
      "hit": false,
      "t": 31448.26800000021,
      "d": 93.10342500000115,
      "v": 120
    },
    {
      "midi": 49,
      "hit": false,
      "t": 31448.26800000021,
      "d": 93.10342500000115,
      "v": 120
    },
    {
      "midi": 68,
      "hit": false,
      "t": 31448.26800000021,
      "d": 93.10342500000115,
      "v": 74
    },
    {
      "midi": 37,
      "hit": false,
      "t": 31448.26800000021,
      "d": 186.2068500000023,
      "v": 120
    },
    {
      "midi": 36,
      "hit": false,
      "t": 31448.26800000021,
      "d": 372.4137000000046,
      "v": 96
    },
    {
      "midi": 64,
      "hit": false,
      "t": 31448.26800000021,
      "d": 372.4137000000046,
      "v": 62
    },
    {
      "midi": 68,
      "hit": false,
      "t": 31551.716250000212,
      "d": 93.10342500000115,
      "v": 76
    },
    {
      "midi": 52,
      "hit": false,
      "t": 31655.164500000214,
      "d": 93.10342500000115,
      "v": 120
    },
    {
      "midi": 49,
      "hit": false,
      "t": 31655.164500000214,
      "d": 93.10342500000115,
      "v": 120
    },
    {
      "midi": 68,
      "hit": false,
      "t": 31655.164500000214,
      "d": 93.10342500000115,
      "v": 76
    },
    {
      "midi": 37,
      "hit": false,
      "t": 31655.164500000214,
      "d": 186.2068500000023,
      "v": 120
    },
    {
      "midi": 68,
      "hit": false,
      "t": 31758.612750000215,
      "d": 93.10342500000115,
      "v": 76
    },
    {
      "midi": 80,
      "hit": false,
      "t": 31862.061000000216,
      "d": 93.10342500000115,
      "v": 76
    },
    {
      "midi": 37,
      "hit": false,
      "t": 31862.061000000216,
      "d": 186.2068500000023,
      "v": 120
    },
    {
      "midi": 38,
      "hit": false,
      "t": 31862.061000000216,
      "d": 372.4137000000046,
      "v": 96
    },
    {
      "midi": 56,
      "hit": false,
      "t": 31862.061000000216,
      "d": 372.4137000000046,
      "v": 120
    },
    {
      "midi": 52,
      "hit": false,
      "t": 31862.061000000216,
      "d": 372.4137000000046,
      "v": 120
    },
    {
      "midi": 66,
      "hit": false,
      "t": 31862.061000000216,
      "d": 372.4137000000046,
      "v": 120
    },
    {
      "midi": 68,
      "hit": false,
      "t": 31965.509250000217,
      "d": 93.10342500000115,
      "v": 76
    },
    {
      "midi": 68,
      "hit": false,
      "t": 32068.95750000022,
      "d": 93.10342500000115,
      "v": 76
    },
    {
      "midi": 37,
      "hit": false,
      "t": 32068.95750000022,
      "d": 186.2068500000023,
      "v": 120
    },
    {
      "midi": 68,
      "hit": false,
      "t": 32172.40575000022,
      "d": 93.10342500000115,
      "v": 76
    },
    {
      "midi": 52,
      "hit": false,
      "t": 32275.85400000022,
      "d": 93.10342500000115,
      "v": 120
    },
    {
      "midi": 49,
      "hit": false,
      "t": 32275.85400000022,
      "d": 93.10342500000115,
      "v": 120
    },
    {
      "midi": 68,
      "hit": false,
      "t": 32275.85400000022,
      "d": 93.10342500000115,
      "v": 76
    },
    {
      "midi": 37,
      "hit": false,
      "t": 32275.85400000022,
      "d": 186.2068500000023,
      "v": 120
    },
    {
      "midi": 36,
      "hit": false,
      "t": 32275.85400000022,
      "d": 372.4137000000046,
      "v": 96
    },
    {
      "midi": 61,
      "hit": false,
      "t": 32275.85400000022,
      "d": 372.4137000000046,
      "v": 120
    },
    {
      "midi": 68,
      "hit": false,
      "t": 32379.302250000223,
      "d": 93.10342500000115,
      "v": 76
    },
    {
      "midi": 80,
      "hit": false,
      "t": 32482.750500000224,
      "d": 93.10342500000115,
      "v": 76
    },
    {
      "midi": 37,
      "hit": false,
      "t": 32482.750500000224,
      "d": 186.2068500000023,
      "v": 120
    },
    {
      "midi": 56,
      "hit": false,
      "t": 32482.750500000224,
      "d": 558.6205500000033,
      "v": 120
    },
    {
      "midi": 52,
      "hit": false,
      "t": 32482.750500000224,
      "d": 558.6205500000033,
      "v": 120
    },
    {
      "midi": 68,
      "hit": false,
      "t": 32586.198750000225,
      "d": 93.10342500000115,
      "v": 76
    },
    {
      "midi": 80,
      "hit": false,
      "t": 32689.647000000226,
      "d": 93.10342499999751,
      "v": 76
    },
    {
      "midi": 37,
      "hit": false,
      "t": 32689.647000000226,
      "d": 186.20684999999867,
      "v": 120
    },
    {
      "midi": 38,
      "hit": false,
      "t": 32689.647000000226,
      "d": 372.413700000001,
      "v": 96
    },
    {
      "midi": 63,
      "hit": false,
      "t": 32689.647000000226,
      "d": 372.413700000001,
      "v": 120
    },
    {
      "midi": 68,
      "hit": false,
      "t": 32793.095250000224,
      "d": 93.10342500000115,
      "v": 76
    },
    {
      "midi": 68,
      "hit": false,
      "t": 32896.543500000225,
      "d": 93.10342500000115,
      "v": 76
    },
    {
      "midi": 37,
      "hit": false,
      "t": 32896.543500000225,
      "d": 186.2068500000023,
      "v": 120
    },
    {
      "midi": 68,
      "hit": false,
      "t": 32999.99175000023,
      "d": 93.10342500000115,
      "v": 76
    },
    {
      "midi": 52,
      "hit": false,
      "t": 33103.44000000023,
      "d": 93.10342500000115,
      "v": 120
    },
    {
      "midi": 49,
      "hit": false,
      "t": 33103.44000000023,
      "d": 93.10342500000115,
      "v": 120
    },
    {
      "midi": 68,
      "hit": false,
      "t": 33103.44000000023,
      "d": 93.10342500000115,
      "v": 76
    },
    {
      "midi": 37,
      "hit": false,
      "t": 33103.44000000023,
      "d": 186.2068500000023,
      "v": 120
    },
    {
      "midi": 64,
      "hit": false,
      "t": 33103.44000000023,
      "d": 186.2068500000023,
      "v": 120
    },
    {
      "midi": 36,
      "hit": false,
      "t": 33103.44000000023,
      "d": 372.4137000000046,
      "v": 96
    },
    {
      "midi": 68,
      "hit": false,
      "t": 33206.88825000023,
      "d": 93.10342500000115,
      "v": 76
    },
    {
      "midi": 52,
      "hit": false,
      "t": 33310.33650000023,
      "d": 93.10342500000115,
      "v": 120
    },
    {
      "midi": 49,
      "hit": false,
      "t": 33310.33650000023,
      "d": 93.10342500000115,
      "v": 120
    },
    {
      "midi": 80,
      "hit": false,
      "t": 33310.33650000023,
      "d": 93.10342500000115,
      "v": 76
    },
    {
      "midi": 37,
      "hit": false,
      "t": 33310.33650000023,
      "d": 186.2068500000023,
      "v": 120
    },
    {
      "midi": 68,
      "hit": false,
      "t": 33413.78475000023,
      "d": 93.10342500000115,
      "v": 76
    },
    {
      "midi": 64,
      "hit": false,
      "t": 33413.78475000023,
      "d": 279.31027500000346,
      "v": 120
    },
    {
      "midi": 68,
      "hit": false,
      "t": 33517.23300000023,
      "d": 93.10342500000115,
      "v": 76
    },
    {
      "midi": 37,
      "hit": false,
      "t": 33517.23300000023,
      "d": 186.2068500000023,
      "v": 120
    },
    {
      "midi": 38,
      "hit": false,
      "t": 33517.23300000023,
      "d": 372.4137000000046,
      "v": 96
    },
    {
      "midi": 56,
      "hit": false,
      "t": 33517.23300000023,
      "d": 372.4137000000046,
      "v": 120
    },
    {
      "midi": 52,
      "hit": false,
      "t": 33517.23300000023,
      "d": 372.4137000000046,
      "v": 120
    },
    {
      "midi": 68,
      "hit": false,
      "t": 33620.681250000234,
      "d": 93.10342500000115,
      "v": 76
    },
    {
      "midi": 68,
      "hit": false,
      "t": 33724.129500000236,
      "d": 93.10342500000115,
      "v": 76
    },
    {
      "midi": 37,
      "hit": false,
      "t": 33724.129500000236,
      "d": 186.2068500000023,
      "v": 120
    },
    {
      "midi": 66,
      "hit": false,
      "t": 33724.129500000236,
      "d": 186.2068500000023,
      "v": 120
    },
    {
      "midi": 68,
      "hit": false,
      "t": 33827.57775000024,
      "d": 93.10342500000115,
      "v": 76
    },
    {
      "midi": 52,
      "hit": false,
      "t": 33931.02600000024,
      "d": 93.10342500000115,
      "v": 120
    },
    {
      "midi": 49,
      "hit": false,
      "t": 33931.02600000024,
      "d": 93.10342500000115,
      "v": 120
    },
    {
      "midi": 68,
      "hit": false,
      "t": 33931.02600000024,
      "d": 93.10342500000115,
      "v": 76
    },
    {
      "midi": 37,
      "hit": false,
      "t": 33931.02600000024,
      "d": 186.2068500000023,
      "v": 120
    },
    {
      "midi": 36,
      "hit": false,
      "t": 33931.02600000024,
      "d": 372.4137000000046,
      "v": 96
    },
    {
      "midi": 61,
      "hit": false,
      "t": 33931.02600000024,
      "d": 620.6895000000077,
      "v": 120
    },
    {
      "midi": 68,
      "hit": false,
      "t": 34034.47425000024,
      "d": 93.10342500000115,
      "v": 76
    },
    {
      "midi": 80,
      "hit": false,
      "t": 34137.92250000024,
      "d": 93.10342500000115,
      "v": 76
    },
    {
      "midi": 37,
      "hit": false,
      "t": 34137.92250000024,
      "d": 186.2068500000023,
      "v": 120
    },
    {
      "midi": 56,
      "hit": false,
      "t": 34137.92250000024,
      "d": 558.6205500000069,
      "v": 120
    },
    {
      "midi": 52,
      "hit": false,
      "t": 34137.92250000024,
      "d": 558.6205500000069,
      "v": 120
    },
    {
      "midi": 68,
      "hit": false,
      "t": 34241.37075000024,
      "d": 93.10342500000115,
      "v": 76
    },
    {
      "midi": 80,
      "hit": false,
      "t": 34344.81900000024,
      "d": 93.10342500000115,
      "v": 76
    },
    {
      "midi": 37,
      "hit": false,
      "t": 34344.81900000024,
      "d": 186.2068500000023,
      "v": 120
    },
    {
      "midi": 38,
      "hit": false,
      "t": 34344.81900000024,
      "d": 372.4137000000046,
      "v": 96
    },
    {
      "midi": 68,
      "hit": false,
      "t": 34448.267250000245,
      "d": 93.10342500000115,
      "v": 76
    },
    {
      "midi": 68,
      "hit": false,
      "t": 34551.715500000246,
      "d": 93.10342500000115,
      "v": 76
    },
    {
      "midi": 37,
      "hit": false,
      "t": 34551.715500000246,
      "d": 186.2068500000023,
      "v": 120
    },
    {
      "midi": 68,
      "hit": false,
      "t": 34655.16375000025,
      "d": 93.10342500000115,
      "v": 76
    },
    {
      "midi": 52,
      "hit": false,
      "t": 34758.61200000025,
      "d": 93.10342500000115,
      "v": 120
    },
    {
      "midi": 49,
      "hit": false,
      "t": 34758.61200000025,
      "d": 93.10342500000115,
      "v": 120
    },
    {
      "midi": 68,
      "hit": false,
      "t": 34758.61200000025,
      "d": 93.10342500000115,
      "v": 62
    },
    {
      "midi": 35,
      "hit": false,
      "t": 34758.61200000025,
      "d": 186.2068500000023,
      "v": 120
    },
    {
      "midi": 36,
      "hit": false,
      "t": 34758.61200000025,
      "d": 372.4137000000046,
      "v": 96
    },
    {
      "midi": 64,
      "hit": false,
      "t": 34758.61200000025,
      "d": 372.4137000000046,
      "v": 62
    },
    {
      "midi": 59,
      "hit": false,
      "t": 34758.61200000025,
      "d": 3310.344000000041,
      "v": 79
    },
    {
      "midi": 68,
      "hit": false,
      "t": 34862.06025000025,
      "d": 93.10342500000115,
      "v": 76
    },
    {
      "midi": 52,
      "hit": false,
      "t": 34965.50850000025,
      "d": 93.10342500000115,
      "v": 120
    },
    {
      "midi": 49,
      "hit": false,
      "t": 34965.50850000025,
      "d": 93.10342500000115,
      "v": 120
    },
    {
      "midi": 68,
      "hit": false,
      "t": 34965.50850000025,
      "d": 93.10342500000115,
      "v": 76
    },
    {
      "midi": 35,
      "hit": false,
      "t": 34965.50850000025,
      "d": 186.2068500000023,
      "v": 120
    },
    {
      "midi": 68,
      "hit": false,
      "t": 35068.95675000025,
      "d": 93.10342500000115,
      "v": 76
    },
    {
      "midi": 80,
      "hit": false,
      "t": 35172.40500000025,
      "d": 93.10342500000115,
      "v": 76
    },
    {
      "midi": 35,
      "hit": false,
      "t": 35172.40500000025,
      "d": 186.2068500000023,
      "v": 120
    },
    {
      "midi": 38,
      "hit": false,
      "t": 35172.40500000025,
      "d": 372.4137000000046,
      "v": 96
    },
    {
      "midi": 56,
      "hit": false,
      "t": 35172.40500000025,
      "d": 372.4137000000046,
      "v": 120
    },
    {
      "midi": 52,
      "hit": false,
      "t": 35172.40500000025,
      "d": 372.4137000000046,
      "v": 120
    },
    {
      "midi": 66,
      "hit": false,
      "t": 35172.40500000025,
      "d": 372.4137000000046,
      "v": 120
    },
    {
      "midi": 68,
      "hit": false,
      "t": 35275.853250000255,
      "d": 93.10342500000115,
      "v": 76
    },
    {
      "midi": 68,
      "hit": false,
      "t": 35379.301500000256,
      "d": 93.10342500000115,
      "v": 76
    },
    {
      "midi": 35,
      "hit": false,
      "t": 35379.301500000256,
      "d": 186.2068500000023,
      "v": 120
    },
    {
      "midi": 68,
      "hit": false,
      "t": 35482.74975000026,
      "d": 93.10342500000115,
      "v": 76
    },
    {
      "midi": 52,
      "hit": false,
      "t": 35586.19800000026,
      "d": 93.10342500000115,
      "v": 120
    },
    {
      "midi": 49,
      "hit": false,
      "t": 35586.19800000026,
      "d": 93.10342500000115,
      "v": 120
    },
    {
      "midi": 68,
      "hit": false,
      "t": 35586.19800000026,
      "d": 93.10342500000115,
      "v": 76
    },
    {
      "midi": 35,
      "hit": false,
      "t": 35586.19800000026,
      "d": 186.2068500000023,
      "v": 120
    },
    {
      "midi": 36,
      "hit": false,
      "t": 35586.19800000026,
      "d": 372.4137000000046,
      "v": 96
    },
    {
      "midi": 61,
      "hit": false,
      "t": 35586.19800000026,
      "d": 372.4137000000046,
      "v": 120
    },
    {
      "midi": 68,
      "hit": false,
      "t": 35689.64625000026,
      "d": 93.10342500000115,
      "v": 76
    },
    {
      "midi": 80,
      "hit": false,
      "t": 35793.09450000026,
      "d": 93.10342500000115,
      "v": 76
    },
    {
      "midi": 35,
      "hit": false,
      "t": 35793.09450000026,
      "d": 186.2068500000023,
      "v": 120
    },
    {
      "midi": 56,
      "hit": false,
      "t": 35793.09450000026,
      "d": 558.6205500000069,
      "v": 120
    },
    {
      "midi": 52,
      "hit": false,
      "t": 35793.09450000026,
      "d": 558.6205500000069,
      "v": 120
    },
    {
      "midi": 68,
      "hit": false,
      "t": 35896.54275000026,
      "d": 93.10342500000115,
      "v": 76
    },
    {
      "midi": 80,
      "hit": false,
      "t": 35999.991000000264,
      "d": 93.10342500000115,
      "v": 76
    },
    {
      "midi": 35,
      "hit": false,
      "t": 35999.991000000264,
      "d": 186.2068500000023,
      "v": 120
    },
    {
      "midi": 38,
      "hit": false,
      "t": 35999.991000000264,
      "d": 372.4137000000046,
      "v": 96
    },
    {
      "midi": 63,
      "hit": false,
      "t": 35999.991000000264,
      "d": 372.4137000000046,
      "v": 120
    },
    {
      "midi": 68,
      "hit": false,
      "t": 36103.439250000265,
      "d": 93.10342500000115,
      "v": 76
    },
    {
      "midi": 68,
      "hit": false,
      "t": 36206.887500000266,
      "d": 93.10342500000115,
      "v": 76
    },
    {
      "midi": 35,
      "hit": false,
      "t": 36206.887500000266,
      "d": 186.2068500000023,
      "v": 120
    },
    {
      "midi": 68,
      "hit": false,
      "t": 36310.33575000027,
      "d": 93.10342500000115,
      "v": 76
    },
    {
      "midi": 52,
      "hit": false,
      "t": 36413.78400000027,
      "d": 93.10342500000115,
      "v": 120
    },
    {
      "midi": 49,
      "hit": false,
      "t": 36413.78400000027,
      "d": 93.10342500000115,
      "v": 120
    },
    {
      "midi": 68,
      "hit": false,
      "t": 36413.78400000027,
      "d": 93.10342500000115,
      "v": 76
    },
    {
      "midi": 35,
      "hit": false,
      "t": 36413.78400000027,
      "d": 186.2068500000023,
      "v": 120
    },
    {
      "midi": 64,
      "hit": false,
      "t": 36413.78400000027,
      "d": 186.2068500000023,
      "v": 120
    },
    {
      "midi": 36,
      "hit": false,
      "t": 36413.78400000027,
      "d": 372.4137000000046,
      "v": 96
    },
    {
      "midi": 68,
      "hit": false,
      "t": 36517.23225000027,
      "d": 93.10342500000115,
      "v": 76
    },
    {
      "midi": 52,
      "hit": false,
      "t": 36620.68050000027,
      "d": 93.10342500000115,
      "v": 120
    },
    {
      "midi": 49,
      "hit": false,
      "t": 36620.68050000027,
      "d": 93.10342500000115,
      "v": 120
    },
    {
      "midi": 80,
      "hit": false,
      "t": 36620.68050000027,
      "d": 93.10342500000115,
      "v": 76
    },
    {
      "midi": 35,
      "hit": false,
      "t": 36620.68050000027,
      "d": 186.2068500000023,
      "v": 120
    },
    {
      "midi": 68,
      "hit": false,
      "t": 36724.12875000027,
      "d": 93.10342500000115,
      "v": 76
    },
    {
      "midi": 64,
      "hit": false,
      "t": 36724.12875000027,
      "d": 279.31027500000346,
      "v": 120
    },
    {
      "midi": 68,
      "hit": false,
      "t": 36827.577000000274,
      "d": 93.10342500000115,
      "v": 76
    },
    {
      "midi": 35,
      "hit": false,
      "t": 36827.577000000274,
      "d": 186.2068500000023,
      "v": 120
    },
    {
      "midi": 38,
      "hit": false,
      "t": 36827.577000000274,
      "d": 372.4137000000046,
      "v": 96
    },
    {
      "midi": 56,
      "hit": false,
      "t": 36827.577000000274,
      "d": 372.4137000000046,
      "v": 120
    },
    {
      "midi": 52,
      "hit": false,
      "t": 36827.577000000274,
      "d": 372.4137000000046,
      "v": 120
    },
    {
      "midi": 68,
      "hit": false,
      "t": 36931.025250000275,
      "d": 93.10342500000115,
      "v": 76
    },
    {
      "midi": 68,
      "hit": false,
      "t": 37034.47350000028,
      "d": 93.10342500000115,
      "v": 76
    },
    {
      "midi": 35,
      "hit": false,
      "t": 37034.47350000028,
      "d": 186.2068500000023,
      "v": 120
    },
    {
      "midi": 66,
      "hit": false,
      "t": 37034.47350000028,
      "d": 186.2068500000023,
      "v": 120
    },
    {
      "midi": 68,
      "hit": false,
      "t": 37137.92175000028,
      "d": 93.10342500000115,
      "v": 76
    },
    {
      "midi": 52,
      "hit": false,
      "t": 37241.37000000028,
      "d": 93.10342500000115,
      "v": 120
    },
    {
      "midi": 49,
      "hit": false,
      "t": 37241.37000000028,
      "d": 93.10342500000115,
      "v": 120
    },
    {
      "midi": 68,
      "hit": false,
      "t": 37241.37000000028,
      "d": 93.10342500000115,
      "v": 76
    },
    {
      "midi": 35,
      "hit": false,
      "t": 37241.37000000028,
      "d": 186.2068500000023,
      "v": 120
    },
    {
      "midi": 36,
      "hit": false,
      "t": 37241.37000000028,
      "d": 372.4137000000046,
      "v": 96
    },
    {
      "midi": 68,
      "hit": false,
      "t": 37344.81825000028,
      "d": 93.10342500000115,
      "v": 76
    },
    {
      "midi": 80,
      "hit": false,
      "t": 37448.26650000028,
      "d": 93.10342500000115,
      "v": 76
    },
    {
      "midi": 35,
      "hit": false,
      "t": 37448.26650000028,
      "d": 186.2068500000023,
      "v": 120
    },
    {
      "midi": 56,
      "hit": false,
      "t": 37448.26650000028,
      "d": 558.6205500000069,
      "v": 120
    },
    {
      "midi": 52,
      "hit": false,
      "t": 37448.26650000028,
      "d": 558.6205500000069,
      "v": 120
    },
    {
      "midi": 68,
      "hit": false,
      "t": 37551.71475000028,
      "d": 93.10342500000115,
      "v": 76
    },
    {
      "midi": 80,
      "hit": false,
      "t": 37655.163000000284,
      "d": 93.10342500000115,
      "v": 76
    },
    {
      "midi": 35,
      "hit": false,
      "t": 37655.163000000284,
      "d": 186.2068500000023,
      "v": 120
    },
    {
      "midi": 38,
      "hit": false,
      "t": 37655.163000000284,
      "d": 372.4137000000046,
      "v": 96
    },
    {
      "midi": 68,
      "hit": false,
      "t": 37758.611250000286,
      "d": 93.10342500000115,
      "v": 76
    },
    {
      "midi": 68,
      "hit": false,
      "t": 37862.05950000029,
      "d": 93.10342500000115,
      "v": 76
    },
    {
      "midi": 35,
      "hit": false,
      "t": 37862.05950000029,
      "d": 186.2068500000023,
      "v": 120
    },
    {
      "midi": 68,
      "hit": false,
      "t": 37965.50775000029,
      "d": 93.10342500000115,
      "v": 76
    },
    {
      "midi": 53,
      "hit": false,
      "t": 38068.95600000029,
      "d": 93.10342500000115,
      "v": 120
    },
    {
      "midi": 49,
      "hit": false,
      "t": 38068.95600000029,
      "d": 93.10342500000115,
      "v": 120
    },
    {
      "midi": 68,
      "hit": false,
      "t": 38068.95600000029,
      "d": 93.10342500000115,
      "v": 76
    },
    {
      "midi": 34,
      "hit": false,
      "t": 38068.95600000029,
      "d": 186.2068500000023,
      "v": 120
    },
    {
      "midi": 36,
      "hit": false,
      "t": 38068.95600000029,
      "d": 372.4137000000046,
      "v": 96
    },
    {
      "midi": 66,
      "hit": false,
      "t": 38068.95600000029,
      "d": 372.4137000000046,
      "v": 62
    },
    {
      "midi": 70,
      "hit": false,
      "t": 38068.95600000029,
      "d": 3310.344000000041,
      "v": 75
    },
    {
      "midi": 68,
      "hit": false,
      "t": 38172.40425000029,
      "d": 93.10342500000115,
      "v": 76
    },
    {
      "midi": 53,
      "hit": false,
      "t": 38275.85250000029,
      "d": 93.10342500000115,
      "v": 120
    },
    {
      "midi": 49,
      "hit": false,
      "t": 38275.85250000029,
      "d": 93.10342500000115,
      "v": 120
    },
    {
      "midi": 68,
      "hit": false,
      "t": 38275.85250000029,
      "d": 93.10342500000115,
      "v": 76
    },
    {
      "midi": 34,
      "hit": false,
      "t": 38275.85250000029,
      "d": 186.2068500000023,
      "v": 120
    },
    {
      "midi": 68,
      "hit": false,
      "t": 38379.30075000029,
      "d": 93.10342500000115,
      "v": 76
    },
    {
      "midi": 80,
      "hit": false,
      "t": 38482.749000000294,
      "d": 93.10342500000115,
      "v": 76
    },
    {
      "midi": 34,
      "hit": false,
      "t": 38482.749000000294,
      "d": 186.2068500000023,
      "v": 120
    },
    {
      "midi": 38,
      "hit": false,
      "t": 38482.749000000294,
      "d": 372.4137000000046,
      "v": 96
    },
    {
      "midi": 58,
      "hit": false,
      "t": 38482.749000000294,
      "d": 372.4137000000046,
      "v": 120
    },
    {
      "midi": 53,
      "hit": false,
      "t": 38482.749000000294,
      "d": 372.4137000000046,
      "v": 120
    },
    {
      "midi": 68,
      "hit": false,
      "t": 38586.197250000296,
      "d": 93.10342500000115,
      "v": 76
    },
    {
      "midi": 68,
      "hit": false,
      "t": 38689.6455000003,
      "d": 93.10342500000115,
      "v": 76
    },
    {
      "midi": 34,
      "hit": false,
      "t": 38689.6455000003,
      "d": 186.2068500000023,
      "v": 120
    },
    {
      "midi": 68,
      "hit": false,
      "t": 38793.0937500003,
      "d": 62.06895000000077,
      "v": 76
    },
    {
      "midi": 53,
      "hit": false,
      "t": 38896.5420000003,
      "d": 93.10342500000115,
      "v": 120
    },
    {
      "midi": 49,
      "hit": false,
      "t": 38896.5420000003,
      "d": 93.10342500000115,
      "v": 120
    },
    {
      "midi": 68,
      "hit": false,
      "t": 38896.5420000003,
      "d": 93.10342500000115,
      "v": 76
    },
    {
      "midi": 34,
      "hit": false,
      "t": 38896.5420000003,
      "d": 186.2068500000023,
      "v": 120
    },
    {
      "midi": 36,
      "hit": false,
      "t": 38896.5420000003,
      "d": 372.4137000000046,
      "v": 96
    },
    {
      "midi": 61,
      "hit": false,
      "t": 38896.5420000003,
      "d": 372.4137000000046,
      "v": 120
    },
    {
      "midi": 68,
      "hit": false,
      "t": 38999.9902500003,
      "d": 93.10342500000115,
      "v": 76
    },
    {
      "midi": 80,
      "hit": false,
      "t": 39103.4385000003,
      "d": 93.10342500000115,
      "v": 76
    },
    {
      "midi": 34,
      "hit": false,
      "t": 39103.4385000003,
      "d": 186.2068500000023,
      "v": 120
    },
    {
      "midi": 58,
      "hit": false,
      "t": 39103.4385000003,
      "d": 558.6205500000069,
      "v": 120
    },
    {
      "midi": 53,
      "hit": false,
      "t": 39103.4385000003,
      "d": 558.6205500000069,
      "v": 120
    },
    {
      "midi": 68,
      "hit": false,
      "t": 39206.8867500003,
      "d": 93.10342500000115,
      "v": 76
    },
    {
      "midi": 80,
      "hit": false,
      "t": 39310.335000000305,
      "d": 93.10342500000115,
      "v": 76
    },
    {
      "midi": 34,
      "hit": false,
      "t": 39310.335000000305,
      "d": 186.2068500000023,
      "v": 120
    },
    {
      "midi": 38,
      "hit": false,
      "t": 39310.335000000305,
      "d": 372.4137000000046,
      "v": 96
    },
    {
      "midi": 64,
      "hit": false,
      "t": 39310.335000000305,
      "d": 372.4137000000046,
      "v": 120
    },
    {
      "midi": 68,
      "hit": false,
      "t": 39413.783250000306,
      "d": 93.10342500000115,
      "v": 76
    },
    {
      "midi": 68,
      "hit": false,
      "t": 39517.23150000031,
      "d": 93.10342500000115,
      "v": 76
    },
    {
      "midi": 34,
      "hit": false,
      "t": 39517.23150000031,
      "d": 186.2068500000023,
      "v": 120
    },
    {
      "midi": 68,
      "hit": false,
      "t": 39620.67975000031,
      "d": 93.10342500000115,
      "v": 76
    },
    {
      "midi": 53,
      "hit": false,
      "t": 39724.12800000031,
      "d": 93.10342500000115,
      "v": 120
    },
    {
      "midi": 49,
      "hit": false,
      "t": 39724.12800000031,
      "d": 93.10342500000115,
      "v": 120
    },
    {
      "midi": 68,
      "hit": false,
      "t": 39724.12800000031,
      "d": 93.10342500000115,
      "v": 76
    },
    {
      "midi": 34,
      "hit": false,
      "t": 39724.12800000031,
      "d": 186.2068500000023,
      "v": 120
    },
    {
      "midi": 66,
      "hit": false,
      "t": 39724.12800000031,
      "d": 186.2068500000023,
      "v": 120
    },
    {
      "midi": 36,
      "hit": false,
      "t": 39724.12800000031,
      "d": 372.4137000000046,
      "v": 96
    },
    {
      "midi": 68,
      "hit": false,
      "t": 39827.57625000031,
      "d": 93.10342500000115,
      "v": 76
    },
    {
      "midi": 53,
      "hit": false,
      "t": 39931.02450000031,
      "d": 93.10342500000115,
      "v": 120
    },
    {
      "midi": 49,
      "hit": false,
      "t": 39931.02450000031,
      "d": 93.10342500000115,
      "v": 120
    },
    {
      "midi": 80,
      "hit": false,
      "t": 39931.02450000031,
      "d": 93.10342500000115,
      "v": 76
    },
    {
      "midi": 34,
      "hit": false,
      "t": 39931.02450000031,
      "d": 186.2068500000023,
      "v": 120
    },
    {
      "midi": 68,
      "hit": false,
      "t": 40034.472750000314,
      "d": 93.10342500000115,
      "v": 76
    },
    {
      "midi": 66,
      "hit": false,
      "t": 40034.472750000314,
      "d": 279.31027500000346,
      "v": 120
    },
    {
      "midi": 68,
      "hit": false,
      "t": 40137.921000000315,
      "d": 93.10342500000115,
      "v": 76
    },
    {
      "midi": 34,
      "hit": false,
      "t": 40137.921000000315,
      "d": 186.2068500000023,
      "v": 120
    },
    {
      "midi": 38,
      "hit": false,
      "t": 40137.921000000315,
      "d": 372.4137000000046,
      "v": 96
    },
    {
      "midi": 58,
      "hit": false,
      "t": 40137.921000000315,
      "d": 372.4137000000046,
      "v": 120
    },
    {
      "midi": 53,
      "hit": false,
      "t": 40137.921000000315,
      "d": 372.4137000000046,
      "v": 120
    },
    {
      "midi": 68,
      "hit": false,
      "t": 40241.369250000316,
      "d": 93.10342500000115,
      "v": 76
    },
    {
      "midi": 68,
      "hit": false,
      "t": 40344.81750000032,
      "d": 93.10342500000115,
      "v": 76
    },
    {
      "midi": 34,
      "hit": false,
      "t": 40344.81750000032,
      "d": 186.2068500000023,
      "v": 120
    },
    {
      "midi": 68,
      "hit": false,
      "t": 40448.26575000032,
      "d": 82.75860000000102,
      "v": 76
    },
    {
      "midi": 53,
      "hit": false,
      "t": 40551.71400000032,
      "d": 93.10342500000115,
      "v": 120
    },
    {
      "midi": 49,
      "hit": false,
      "t": 40551.71400000032,
      "d": 93.10342500000115,
      "v": 120
    },
    {
      "midi": 68,
      "hit": false,
      "t": 40551.71400000032,
      "d": 93.10342500000115,
      "v": 76
    },
    {
      "midi": 34,
      "hit": false,
      "t": 40551.71400000032,
      "d": 186.2068500000023,
      "v": 120
    },
    {
      "midi": 36,
      "hit": false,
      "t": 40551.71400000032,
      "d": 372.4137000000046,
      "v": 96
    },
    {
      "midi": 61,
      "hit": false,
      "t": 40551.71400000032,
      "d": 413.7930000000051,
      "v": 120
    },
    {
      "midi": 68,
      "hit": false,
      "t": 40655.16225000032,
      "d": 93.10342500000115,
      "v": 76
    },
    {
      "midi": 80,
      "hit": false,
      "t": 40758.61050000032,
      "d": 93.10342500000115,
      "v": 76
    },
    {
      "midi": 34,
      "hit": false,
      "t": 40758.61050000032,
      "d": 186.2068500000023,
      "v": 120
    },
    {
      "midi": 58,
      "hit": false,
      "t": 40758.61050000032,
      "d": 558.6205500000069,
      "v": 120
    },
    {
      "midi": 53,
      "hit": false,
      "t": 40758.61050000032,
      "d": 558.6205500000069,
      "v": 120
    },
    {
      "midi": 68,
      "hit": false,
      "t": 40862.058750000324,
      "d": 93.10342500000115,
      "v": 76
    },
    {
      "midi": 80,
      "hit": false,
      "t": 40965.507000000325,
      "d": 93.10342500000115,
      "v": 76
    },
    {
      "midi": 34,
      "hit": false,
      "t": 40965.507000000325,
      "d": 186.2068500000023,
      "v": 120
    },
    {
      "midi": 38,
      "hit": false,
      "t": 40965.507000000325,
      "d": 372.4137000000046,
      "v": 96
    },
    {
      "midi": 68,
      "hit": false,
      "t": 41068.95525000033,
      "d": 93.10342500000115,
      "v": 76
    },
    {
      "midi": 68,
      "hit": false,
      "t": 41172.40350000033,
      "d": 93.10342500000115,
      "v": 76
    },
    {
      "midi": 34,
      "hit": false,
      "t": 41172.40350000033,
      "d": 186.2068500000023,
      "v": 120
    },
    {
      "midi": 64,
      "hit": false,
      "t": 41172.40350000033,
      "d": 186.2068500000023,
      "v": 120
    },
    {
      "midi": 68,
      "hit": false,
      "t": 41275.85175000033,
      "d": 93.10342500000115,
      "v": 76
    },
    {
      "midi": 52,
      "hit": false,
      "t": 41379.30000000033,
      "d": 93.10342500000115,
      "v": 120
    },
    {
      "midi": 49,
      "hit": false,
      "t": 41379.30000000033,
      "d": 93.10342500000115,
      "v": 120
    },
    {
      "midi": 68,
      "hit": false,
      "t": 41379.30000000033,
      "d": 93.10342500000115,
      "v": 76
    },
    {
      "midi": 34,
      "hit": false,
      "t": 41379.30000000033,
      "d": 186.2068500000023,
      "v": 120
    },
    {
      "midi": 36,
      "hit": false,
      "t": 41379.30000000033,
      "d": 372.4137000000046,
      "v": 96
    },
    {
      "midi": 66,
      "hit": false,
      "t": 41379.30000000033,
      "d": 372.4137000000046,
      "v": 120
    },
    {
      "midi": 69,
      "hit": false,
      "t": 41379.30000000033,
      "d": 1655.1720000000205,
      "v": 71
    },
    {
      "midi": 61,
      "hit": false,
      "t": 41379.30000000033,
      "d": 1655.1720000000205,
      "v": 65
    },
    {
      "midi": 68,
      "hit": false,
      "t": 41482.74825000033,
      "d": 93.10342500000115,
      "v": 76
    },
    {
      "midi": 52,
      "hit": false,
      "t": 41586.19650000033,
      "d": 93.10342500000115,
      "v": 120
    },
    {
      "midi": 49,
      "hit": false,
      "t": 41586.19650000033,
      "d": 93.10342500000115,
      "v": 120
    },
    {
      "midi": 68,
      "hit": false,
      "t": 41586.19650000033,
      "d": 93.10342500000115,
      "v": 76
    },
    {
      "midi": 34,
      "hit": false,
      "t": 41586.19650000033,
      "d": 186.2068500000023,
      "v": 120
    },
    {
      "midi": 68,
      "hit": false,
      "t": 41689.644750000334,
      "d": 93.10342500000115,
      "v": 76
    },
    {
      "midi": 80,
      "hit": false,
      "t": 41793.093000000335,
      "d": 93.10342500000115,
      "v": 76
    },
    {
      "midi": 34,
      "hit": false,
      "t": 41793.093000000335,
      "d": 186.2068500000023,
      "v": 120
    },
    {
      "midi": 38,
      "hit": false,
      "t": 41793.093000000335,
      "d": 372.4137000000046,
      "v": 96
    },
    {
      "midi": 56,
      "hit": false,
      "t": 41793.093000000335,
      "d": 372.4137000000046,
      "v": 120
    },
    {
      "midi": 52,
      "hit": false,
      "t": 41793.093000000335,
      "d": 372.4137000000046,
      "v": 120
    },
    {
      "midi": 64,
      "hit": false,
      "t": 41793.093000000335,
      "d": 372.4137000000046,
      "v": 120
    },
    {
      "midi": 68,
      "hit": false,
      "t": 41896.54125000034,
      "d": 93.10342500000115,
      "v": 76
    },
    {
      "midi": 68,
      "hit": false,
      "t": 41999.98950000034,
      "d": 93.10342500000115,
      "v": 76
    },
    {
      "midi": 34,
      "hit": false,
      "t": 41999.98950000034,
      "d": 186.2068500000023,
      "v": 120
    },
    {
      "midi": 68,
      "hit": false,
      "t": 42103.43775000034,
      "d": 93.10342500000115,
      "v": 76
    },
    {
      "midi": 52,
      "hit": false,
      "t": 42206.88600000034,
      "d": 93.10342500000115,
      "v": 120
    },
    {
      "midi": 49,
      "hit": false,
      "t": 42206.88600000034,
      "d": 93.10342500000115,
      "v": 120
    },
    {
      "midi": 68,
      "hit": false,
      "t": 42206.88600000034,
      "d": 93.10342500000115,
      "v": 76
    },
    {
      "midi": 34,
      "hit": false,
      "t": 42206.88600000034,
      "d": 186.2068500000023,
      "v": 120
    },
    {
      "midi": 36,
      "hit": false,
      "t": 42206.88600000034,
      "d": 372.4137000000046,
      "v": 96
    },
    {
      "midi": 66,
      "hit": false,
      "t": 42206.88600000034,
      "d": 372.4137000000046,
      "v": 120
    },
    {
      "midi": 68,
      "hit": false,
      "t": 42310.33425000034,
      "d": 93.10342500000115,
      "v": 76
    },
    {
      "midi": 80,
      "hit": false,
      "t": 42413.78250000034,
      "d": 93.10342500000115,
      "v": 76
    },
    {
      "midi": 34,
      "hit": false,
      "t": 42413.78250000034,
      "d": 186.2068500000023,
      "v": 120
    },
    {
      "midi": 56,
      "hit": false,
      "t": 42413.78250000034,
      "d": 558.6205500000069,
      "v": 120
    },
    {
      "midi": 52,
      "hit": false,
      "t": 42413.78250000034,
      "d": 558.6205500000069,
      "v": 120
    },
    {
      "midi": 68,
      "hit": false,
      "t": 42517.230750000344,
      "d": 93.10342500000115,
      "v": 76
    },
    {
      "midi": 80,
      "hit": false,
      "t": 42620.679000000346,
      "d": 93.10342500000115,
      "v": 76
    },
    {
      "midi": 34,
      "hit": false,
      "t": 42620.679000000346,
      "d": 186.2068500000023,
      "v": 120
    },
    {
      "midi": 38,
      "hit": false,
      "t": 42620.679000000346,
      "d": 372.4137000000046,
      "v": 96
    },
    {
      "midi": 64,
      "hit": false,
      "t": 42620.679000000346,
      "d": 372.4137000000046,
      "v": 120
    },
    {
      "midi": 68,
      "hit": false,
      "t": 42724.12725000035,
      "d": 93.10342500000115,
      "v": 76
    },
    {
      "midi": 68,
      "hit": false,
      "t": 42827.57550000035,
      "d": 93.10342500000115,
      "v": 76
    },
    {
      "midi": 34,
      "hit": false,
      "t": 42827.57550000035,
      "d": 186.2068500000023,
      "v": 120
    },
    {
      "midi": 68,
      "hit": false,
      "t": 42931.02375000035,
      "d": 93.10342500000115,
      "v": 76
    },
    {
      "midi": 52,
      "hit": false,
      "t": 43034.47200000035,
      "d": 93.10342500000115,
      "v": 120
    },
    {
      "midi": 49,
      "hit": false,
      "t": 43034.47200000035,
      "d": 93.10342500000115,
      "v": 120
    },
    {
      "midi": 68,
      "hit": false,
      "t": 43034.47200000035,
      "d": 93.10342500000115,
      "v": 76
    },
    {
      "midi": 32,
      "hit": false,
      "t": 43034.47200000035,
      "d": 186.2068500000023,
      "v": 120
    },
    {
      "midi": 35,
      "hit": false,
      "t": 43034.47200000035,
      "d": 372.4137000000046,
      "v": 96
    },
    {
      "midi": 60,
      "hit": false,
      "t": 43034.47200000035,
      "d": 1655.1720000000205,
      "v": 71
    },
    {
      "midi": 63,
      "hit": false,
      "t": 43034.47200000035,
      "d": 1655.1720000000205,
      "v": 64
    },
    {
      "midi": 68,
      "hit": false,
      "t": 43137.92025000035,
      "d": 93.10342500000115,
      "v": 76
    },
    {
      "midi": 52,
      "hit": false,
      "t": 43241.36850000035,
      "d": 93.10342500000115,
      "v": 120
    },
    {
      "midi": 49,
      "hit": false,
      "t": 43241.36850000035,
      "d": 93.10342500000115,
      "v": 120
    },
    {
      "midi": 80,
      "hit": false,
      "t": 43241.36850000035,
      "d": 93.10342500000115,
      "v": 76
    },
    {
      "midi": 32,
      "hit": false,
      "t": 43241.36850000035,
      "d": 186.2068500000023,
      "v": 120
    },
    {
      "midi": 68,
      "hit": false,
      "t": 43344.816750000355,
      "d": 93.10342500000115,
      "v": 76
    },
    {
      "midi": 69,
      "hit": false,
      "t": 43344.816750000355,
      "d": 310.34475000000384,
      "v": 120
    },
    {
      "midi": 68,
      "hit": false,
      "t": 43448.265000000356,
      "d": 93.10342500000115,
      "v": 76
    },
    {
      "midi": 32,
      "hit": false,
      "t": 43448.265000000356,
      "d": 186.2068500000023,
      "v": 120
    },
    {
      "midi": 38,
      "hit": false,
      "t": 43448.265000000356,
      "d": 372.4137000000046,
      "v": 96
    },
    {
      "midi": 56,
      "hit": false,
      "t": 43448.265000000356,
      "d": 1117.2411000000138,
      "v": 120
    },
    {
      "midi": 52,
      "hit": false,
      "t": 43448.265000000356,
      "d": 1117.2411000000138,
      "v": 120
    },
    {
      "midi": 68,
      "hit": false,
      "t": 43551.71325000036,
      "d": 93.10342500000115,
      "v": 76
    },
    {
      "midi": 68,
      "hit": false,
      "t": 43655.16150000036,
      "d": 93.10342500000115,
      "v": 76
    },
    {
      "midi": 32,
      "hit": false,
      "t": 43655.16150000036,
      "d": 186.2068500000023,
      "v": 120
    },
    {
      "midi": 71,
      "hit": false,
      "t": 43655.16150000036,
      "d": 206.89650000000256,
      "v": 120
    },
    {
      "midi": 68,
      "hit": false,
      "t": 43758.60975000036,
      "d": 93.10342500000115,
      "v": 76
    },
    {
      "midi": 38,
      "hit": false,
      "t": 43862.05800000036,
      "d": 93.10342500000115,
      "v": 96
    },
    {
      "midi": 68,
      "hit": false,
      "t": 43862.05800000036,
      "d": 93.10342500000115,
      "v": 76
    },
    {
      "midi": 32,
      "hit": false,
      "t": 43862.05800000036,
      "d": 186.2068500000023,
      "v": 120
    },
    {
      "midi": 68,
      "hit": false,
      "t": 43965.50625000036,
      "d": 93.10342500000115,
      "v": 76
    },
    {
      "midi": 38,
      "hit": false,
      "t": 44068.95450000036,
      "d": 93.10342500000115,
      "v": 96
    },
    {
      "midi": 80,
      "hit": false,
      "t": 44068.95450000036,
      "d": 93.10342500000115,
      "v": 76
    },
    {
      "midi": 32,
      "hit": false,
      "t": 44068.95450000036,
      "d": 186.2068500000023,
      "v": 120
    },
    {
      "midi": 38,
      "hit": false,
      "t": 44172.402750000365,
      "d": 93.10342500000115,
      "v": 96
    },
    {
      "midi": 68,
      "hit": false,
      "t": 44172.402750000365,
      "d": 93.10342500000115,
      "v": 76
    },
    {
      "midi": 38,
      "hit": false,
      "t": 44275.851000000366,
      "d": 93.10342500000115,
      "v": 120
    },
    {
      "midi": 80,
      "hit": false,
      "t": 44275.851000000366,
      "d": 93.10342500000115,
      "v": 76
    },
    {
      "midi": 32,
      "hit": false,
      "t": 44275.851000000366,
      "d": 186.2068500000023,
      "v": 120
    },
    {
      "midi": 38,
      "hit": false,
      "t": 44379.29925000037,
      "d": 93.10342500000115,
      "v": 120
    },
    {
      "midi": 68,
      "hit": false,
      "t": 44379.29925000037,
      "d": 93.10342500000115,
      "v": 76
    },
    {
      "midi": 38,
      "hit": false,
      "t": 44482.74750000037,
      "d": 93.10342500000115,
      "v": 120
    },
    {
      "midi": 68,
      "hit": false,
      "t": 44482.74750000037,
      "d": 93.10342500000115,
      "v": 76
    },
    {
      "midi": 32,
      "hit": false,
      "t": 44482.74750000037,
      "d": 186.2068500000023,
      "v": 120
    },
    {
      "midi": 38,
      "hit": false,
      "t": 44586.19575000037,
      "d": 93.10342500000115,
      "v": 120
    },
    {
      "midi": 68,
      "hit": false,
      "t": 44586.19575000037,
      "d": 93.10342500000115,
      "v": 76
    },
    {
      "midi": 34,
      "hit": false,
      "t": 44689.64400000037,
      "d": 93.10342500000115,
      "v": 120
    },
    {
      "midi": 64,
      "hit": false,
      "t": 44689.64400000037,
      "d": 310.34475000000384,
      "v": 120
    },
    {
      "midi": 36,
      "hit": false,
      "t": 44689.64400000037,
      "d": 372.4137000000046,
      "v": 96
    },
    {
      "midi": 53,
      "hit": false,
      "t": 44689.64400000037,
      "d": 1489.6548000000184,
      "v": 120
    },
    {
      "midi": 49,
      "hit": false,
      "t": 44689.64400000037,
      "d": 1489.6548000000184,
      "v": 120
    },
    {
      "midi": 65,
      "hit": false,
      "t": 44689.64400000037,
      "d": 1655.1720000000205,
      "v": 72
    },
    {
      "midi": 58,
      "hit": false,
      "t": 44689.64400000037,
      "d": 1655.1720000000205,
      "v": 80
    },
    {
      "midi": 34,
      "hit": false,
      "t": 44793.09225000037,
      "d": 93.10342500000115,
      "v": 120
    },
    {
      "midi": 34,
      "hit": false,
      "t": 44896.540500000374,
      "d": 186.2068500000023,
      "v": 120
    },
    {
      "midi": 34,
      "hit": false,
      "t": 45103.43700000038,
      "d": 186.2068500000023,
      "v": 120
    },
    {
      "midi": 38,
      "hit": false,
      "t": 45103.43700000038,
      "d": 372.4137000000046,
      "v": 96
    },
    {
      "midi": 61,
      "hit": false,
      "t": 45103.43700000038,
      "d": 413.7930000000051,
      "v": 120
    },
    {
      "midi": 34,
      "hit": false,
      "t": 45310.33350000038,
      "d": 93.10342500000115,
      "v": 120
    },
    {
      "midi": 34,
      "hit": false,
      "t": 45413.78175000038,
      "d": 93.10342500000115,
      "v": 120
    },
    {
      "midi": 34,
      "hit": false,
      "t": 45517.23000000038,
      "d": 93.10342500000115,
      "v": 120
    },
    {
      "midi": 36,
      "hit": false,
      "t": 45517.23000000038,
      "d": 372.4137000000046,
      "v": 96
    },
    {
      "midi": 34,
      "hit": false,
      "t": 45620.67825000038,
      "d": 93.10342500000115,
      "v": 120
    },
    {
      "midi": 34,
      "hit": false,
      "t": 45724.126500000384,
      "d": 186.2068500000023,
      "v": 120
    },
    {
      "midi": 61,
      "hit": false,
      "t": 45724.126500000384,
      "d": 186.2068500000023,
      "v": 120
    },
    {
      "midi": 34,
      "hit": false,
      "t": 45931.02300000039,
      "d": 186.2068500000023,
      "v": 120
    },
    {
      "midi": 64,
      "hit": false,
      "t": 45931.02300000039,
      "d": 186.2068500000023,
      "v": 120
    },
    {
      "midi": 38,
      "hit": false,
      "t": 45931.02300000039,
      "d": 372.4137000000046,
      "v": 96
    },
    {
      "midi": 34,
      "hit": false,
      "t": 46137.91950000039,
      "d": 93.10342500000115,
      "v": 120
    },
    {
      "midi": 34,
      "hit": false,
      "t": 46241.36775000039,
      "d": 93.10342500000115,
      "v": 120
    },
    {
      "midi": 33,
      "hit": false,
      "t": 46344.81600000039,
      "d": 92.78347499999654,
      "v": 120
    },
    {
      "midi": 36,
      "hit": false,
      "t": 46344.81600000039,
      "d": 371.13389999999345,
      "v": 96
    },
    {
      "midi": 66,
      "hit": false,
      "t": 46344.81600000039,
      "d": 412.3709999999919,
      "v": 74
    },
    {
      "midi": 54,
      "hit": false,
      "t": 46344.81600000039,
      "d": 1484.5355999999738,
      "v": 120
    },
    {
      "midi": 49,
      "hit": false,
      "t": 46344.81600000039,
      "d": 1484.5355999999738,
      "v": 120
    },
    {
      "midi": 57,
      "hit": false,
      "t": 46344.81600000039,
      "d": 1649.4839999999676,
      "v": 75
    },
    {
      "midi": 33,
      "hit": false,
      "t": 46447.90875000039,
      "d": 92.78347499999654,
      "v": 120
    },
    {
      "midi": 33,
      "hit": false,
      "t": 46551.001500000384,
      "d": 185.56695000000036,
      "v": 120
    },
    {
      "midi": 33,
      "hit": false,
      "t": 46757.187000000384,
      "d": 185.56695000000036,
      "v": 120
    },
    {
      "midi": 61,
      "hit": false,
      "t": 46757.187000000384,
      "d": 185.56695000000036,
      "v": 120
    },
    {
      "midi": 38,
      "hit": false,
      "t": 46757.187000000384,
      "d": 371.13389999999345,
      "v": 96
    },
    {
      "midi": 33,
      "hit": false,
      "t": 46963.37250000038,
      "d": 92.78347499999654,
      "v": 120
    },
    {
      "midi": 61,
      "hit": false,
      "t": 46963.37250000038,
      "d": 371.13389999998617,
      "v": 120
    },
    {
      "midi": 33,
      "hit": false,
      "t": 47066.46525000038,
      "d": 92.78347499999654,
      "v": 120
    },
    {
      "midi": 33,
      "hit": false,
      "t": 47169.558000000376,
      "d": 92.78347499999654,
      "v": 120
    },
    {
      "midi": 36,
      "hit": false,
      "t": 47169.558000000376,
      "d": 371.13389999999345,
      "v": 96
    },
    {
      "midi": 33,
      "hit": false,
      "t": 47272.65075000037,
      "d": 92.78347499999654,
      "v": 120
    },
    {
      "midi": 33,
      "hit": false,
      "t": 47375.74350000037,
      "d": 185.56695000000036,
      "v": 120
    },
    {
      "midi": 61,
      "hit": false,
      "t": 47375.74350000037,
      "d": 185.56695000000036,
      "v": 120
    },
    {
      "midi": 33,
      "hit": false,
      "t": 47581.92900000037,
      "d": 185.56695000000036,
      "v": 120
    },
    {
      "midi": 66,
      "hit": false,
      "t": 47581.92900000037,
      "d": 185.56695000000036,
      "v": 120
    },
    {
      "midi": 38,
      "hit": false,
      "t": 47581.92900000037,
      "d": 371.13389999999345,
      "v": 96
    },
    {
      "midi": 33,
      "hit": false,
      "t": 47788.11450000037,
      "d": 92.78347499999654,
      "v": 120
    },
    {
      "midi": 64,
      "hit": false,
      "t": 47788.11450000037,
      "d": 185.56694999999308,
      "v": 120
    },
    {
      "midi": 33,
      "hit": false,
      "t": 47891.20725000036,
      "d": 92.78347499999654,
      "v": 120
    },
    {
      "midi": 35,
      "hit": false,
      "t": 47994.30000000036,
      "d": 92.78347499999654,
      "v": 120
    },
    {
      "midi": 63,
      "hit": false,
      "t": 47994.30000000036,
      "d": 185.56694999999308,
      "v": 79
    },
    {
      "midi": 36,
      "hit": false,
      "t": 47994.30000000036,
      "d": 371.13389999999345,
      "v": 96
    },
    {
      "midi": 51,
      "hit": false,
      "t": 47994.30000000036,
      "d": 1484.5355999999738,
      "v": 120
    },
    {
      "midi": 47,
      "hit": false,
      "t": 47994.30000000036,
      "d": 1484.5355999999738,
      "v": 120
    },
    {
      "midi": 66,
      "hit": false,
      "t": 47994.30000000036,
      "d": 1649.4839999999676,
      "v": 72
    },
    {
      "midi": 35,
      "hit": false,
      "t": 48097.392750000356,
      "d": 92.78347499999654,
      "v": 120
    },
    {
      "midi": 35,
      "hit": false,
      "t": 48200.48550000035,
      "d": 185.56695000000036,
      "v": 120
    },
    {
      "midi": 63,
      "hit": false,
      "t": 48200.48550000035,
      "d": 185.56695000000036,
      "v": 120
    },
    {
      "midi": 35,
      "hit": false,
      "t": 48406.67100000035,
      "d": 185.56695000000036,
      "v": 120
    },
    {
      "midi": 63,
      "hit": false,
      "t": 48406.67100000035,
      "d": 185.56695000000036,
      "v": 120
    },
    {
      "midi": 38,
      "hit": false,
      "t": 48406.67100000035,
      "d": 371.13389999999345,
      "v": 96
    },
    {
      "midi": 35,
      "hit": false,
      "t": 48612.85650000035,
      "d": 92.78347499999654,
      "v": 120
    },
    {
      "midi": 64,
      "hit": false,
      "t": 48612.85650000035,
      "d": 185.56694999999308,
      "v": 120
    },
    {
      "midi": 35,
      "hit": false,
      "t": 48715.94925000035,
      "d": 92.78347499999654,
      "v": 120
    },
    {
      "midi": 35,
      "hit": false,
      "t": 48819.04200000034,
      "d": 92.78347499999654,
      "v": 120
    },
    {
      "midi": 63,
      "hit": false,
      "t": 48819.04200000034,
      "d": 185.56694999999308,
      "v": 120
    },
    {
      "midi": 36,
      "hit": false,
      "t": 48819.04200000034,
      "d": 371.13389999999345,
      "v": 96
    },
    {
      "midi": 35,
      "hit": false,
      "t": 48922.13475000034,
      "d": 92.78347499999654,
      "v": 120
    },
    {
      "midi": 35,
      "hit": false,
      "t": 49025.227500000336,
      "d": 185.56695000000036,
      "v": 120
    },
    {
      "midi": 61,
      "hit": false,
      "t": 49025.227500000336,
      "d": 185.56695000000036,
      "v": 120
    },
    {
      "midi": 35,
      "hit": false,
      "t": 49231.413000000335,
      "d": 185.56695000000036,
      "v": 120
    },
    {
      "midi": 59,
      "hit": false,
      "t": 49231.413000000335,
      "d": 206.1854999999996,
      "v": 120
    },
    {
      "midi": 38,
      "hit": false,
      "t": 49231.413000000335,
      "d": 371.13389999999345,
      "v": 96
    },
    {
      "midi": 35,
      "hit": false,
      "t": 49437.598500000335,
      "d": 92.78347499999654,
      "v": 120
    },
    {
      "midi": 61,
      "hit": false,
      "t": 49437.598500000335,
      "d": 103.09274999999616,
      "v": 120
    },
    {
      "midi": 35,
      "hit": false,
      "t": 49540.69125000033,
      "d": 92.78347499999654,
      "v": 120
    },
    {
      "midi": 56,
      "hit": false,
      "t": 49540.69125000033,
      "d": 927.8347499999727,
      "v": 120
    },
    {
      "midi": 52,
      "hit": false,
      "t": 49643.78400000033,
      "d": 92.78347499999654,
      "v": 112
    },
    {
      "midi": 51,
      "hit": false,
      "t": 49643.78400000033,
      "d": 92.78347499999654,
      "v": 112
    },
    {
      "midi": 40,
      "hit": false,
      "t": 49643.78400000033,
      "d": 92.78347499999654,
      "v": 120
    },
    {
      "midi": 36,
      "hit": false,
      "t": 49643.78400000033,
      "d": 371.13389999998617,
      "v": 96
    },
    {
      "midi": 68,
      "hit": false,
      "t": 49643.78400000033,
      "d": 824.7419999999765,
      "v": 73
    },
    {
      "midi": 59,
      "hit": false,
      "t": 49643.78400000033,
      "d": 824.7419999999765,
      "v": 77
    },
    {
      "midi": 64,
      "hit": false,
      "t": 49643.78400000033,
      "d": 824.7419999999765,
      "v": 82
    },
    {
      "midi": 40,
      "hit": false,
      "t": 49746.87675000032,
      "d": 92.78347499999654,
      "v": 120
    },
    {
      "midi": 52,
      "hit": false,
      "t": 49849.96950000032,
      "d": 92.78347499999654,
      "v": 112
    },
    {
      "midi": 51,
      "hit": false,
      "t": 49849.96950000032,
      "d": 92.78347499999654,
      "v": 112
    },
    {
      "midi": 40,
      "hit": false,
      "t": 49849.96950000032,
      "d": 185.56694999999308,
      "v": 120
    },
    {
      "midi": 40,
      "hit": false,
      "t": 50056.15500000031,
      "d": 185.56695000000036,
      "v": 120
    },
    {
      "midi": 38,
      "hit": false,
      "t": 50056.15500000031,
      "d": 371.13389999999345,
      "v": 96
    },
    {
      "midi": 52,
      "hit": false,
      "t": 50056.15500000031,
      "d": 371.13389999999345,
      "v": 112
    },
    {
      "midi": 51,
      "hit": false,
      "t": 50056.15500000031,
      "d": 371.13389999999345,
      "v": 112
    },
    {
      "midi": 40,
      "hit": false,
      "t": 50262.34050000031,
      "d": 92.78347499999654,
      "v": 120
    },
    {
      "midi": 40,
      "hit": false,
      "t": 50365.43325000031,
      "d": 92.78347499999654,
      "v": 120
    },
    {
      "midi": 51,
      "hit": false,
      "t": 50468.5260000003,
      "d": 92.78347499999654,
      "v": 120
    },
    {
      "midi": 47,
      "hit": false,
      "t": 50468.5260000003,
      "d": 92.78347499999654,
      "v": 120
    },
    {
      "midi": 39,
      "hit": false,
      "t": 50468.5260000003,
      "d": 92.78347499999654,
      "v": 120
    },
    {
      "midi": 36,
      "hit": false,
      "t": 50468.5260000003,
      "d": 371.13389999998617,
      "v": 96
    },
    {
      "midi": 66,
      "hit": false,
      "t": 50468.5260000003,
      "d": 824.7419999999765,
      "v": 70
    },
    {
      "midi": 63,
      "hit": false,
      "t": 50468.5260000003,
      "d": 824.7419999999765,
      "v": 72
    },
    {
      "midi": 39,
      "hit": false,
      "t": 50571.6187500003,
      "d": 92.78347499999654,
      "v": 120
    },
    {
      "midi": 51,
      "hit": false,
      "t": 50674.711500000296,
      "d": 92.78347499999654,
      "v": 120
    },
    {
      "midi": 47,
      "hit": false,
      "t": 50674.711500000296,
      "d": 92.78347499999654,
      "v": 120
    },
    {
      "midi": 39,
      "hit": false,
      "t": 50674.711500000296,
      "d": 185.56694999999308,
      "v": 120
    },
    {
      "midi": 56,
      "hit": false,
      "t": 50674.711500000296,
      "d": 206.18549999999232,
      "v": 120
    },
    {
      "midi": 39,
      "hit": false,
      "t": 50880.89700000029,
      "d": 185.56695000000036,
      "v": 120
    },
    {
      "midi": 58,
      "hit": false,
      "t": 50880.89700000029,
      "d": 192.4398000000001,
      "v": 120
    },
    {
      "midi": 38,
      "hit": false,
      "t": 50880.89700000029,
      "d": 371.13389999999345,
      "v": 96
    },
    {
      "midi": 51,
      "hit": false,
      "t": 50880.89700000029,
      "d": 371.13389999999345,
      "v": 120
    },
    {
      "midi": 47,
      "hit": false,
      "t": 50880.89700000029,
      "d": 371.13389999999345,
      "v": 120
    },
    {
      "midi": 39,
      "hit": false,
      "t": 51087.08250000029,
      "d": 92.78347499999654,
      "v": 120
    },
    {
      "midi": 59,
      "hit": false,
      "t": 51087.08250000029,
      "d": 206.18549999999232,
      "v": 120
    },
    {
      "midi": 39,
      "hit": false,
      "t": 51190.175250000284,
      "d": 92.78347499999654,
      "v": 120
    },
    {
      "midi": 33,
      "hit": false,
      "t": 51293.26800000028,
      "d": 92.78347499999654,
      "v": 120
    },
    {
      "midi": 36,
      "hit": false,
      "t": 51293.26800000028,
      "d": 371.13389999999345,
      "v": 96
    },
    {
      "midi": 47,
      "hit": false,
      "t": 51293.26800000028,
      "d": 1484.5355999999738,
      "v": 120
    },
    {
      "midi": 44,
      "hit": false,
      "t": 51293.26800000028,
      "d": 1484.5355999999738,
      "v": 120
    },
    {
      "midi": 64,
      "hit": false,
      "t": 51293.26800000028,
      "d": 3298.9679999999353,
      "v": 76
    },
    {
      "midi": 57,
      "hit": false,
      "t": 51293.26800000028,
      "d": 3298.9679999999353,
      "v": 75
    },
    {
      "midi": 33,
      "hit": false,
      "t": 51396.360750000276,
      "d": 92.78347499999654,
      "v": 120
    },
    {
      "midi": 33,
      "hit": false,
      "t": 51499.45350000027,
      "d": 185.56695000000036,
      "v": 120
    },
    {
      "midi": 33,
      "hit": false,
      "t": 51705.63900000027,
      "d": 185.56695000000036,
      "v": 120
    },
    {
      "midi": 38,
      "hit": false,
      "t": 51705.63900000027,
      "d": 371.13389999999345,
      "v": 96
    },
    {
      "midi": 33,
      "hit": false,
      "t": 51911.82450000027,
      "d": 92.78347499999654,
      "v": 120
    },
    {
      "midi": 33,
      "hit": false,
      "t": 52014.91725000027,
      "d": 92.78347499999654,
      "v": 120
    },
    {
      "midi": 33,
      "hit": false,
      "t": 52118.010000000264,
      "d": 92.78347499999654,
      "v": 120
    },
    {
      "midi": 36,
      "hit": false,
      "t": 52118.010000000264,
      "d": 371.13389999999345,
      "v": 96
    },
    {
      "midi": 33,
      "hit": false,
      "t": 52221.10275000026,
      "d": 92.78347499999654,
      "v": 120
    },
    {
      "midi": 33,
      "hit": false,
      "t": 52324.195500000256,
      "d": 185.56695000000036,
      "v": 120
    },
    {
      "midi": 59,
      "hit": false,
      "t": 52324.195500000256,
      "d": 185.56695000000036,
      "v": 120
    },
    {
      "midi": 33,
      "hit": false,
      "t": 52530.381000000256,
      "d": 185.56695000000036,
      "v": 120
    },
    {
      "midi": 61,
      "hit": false,
      "t": 52530.381000000256,
      "d": 185.56695000000036,
      "v": 120
    },
    {
      "midi": 38,
      "hit": false,
      "t": 52530.381000000256,
      "d": 371.13389999999345,
      "v": 96
    },
    {
      "midi": 33,
      "hit": false,
      "t": 52736.566500000255,
      "d": 92.78347499999654,
      "v": 120
    },
    {
      "midi": 59,
      "hit": false,
      "t": 52736.566500000255,
      "d": 103.09274999999616,
      "v": 120
    },
    {
      "midi": 33,
      "hit": false,
      "t": 52839.65925000025,
      "d": 92.78347499999654,
      "v": 120
    },
    {
      "midi": 59,
      "hit": false,
      "t": 52839.65925000025,
      "d": 927.83474999998,
      "v": 120
    },
    {
      "midi": 30,
      "hit": false,
      "t": 52942.75200000025,
      "d": 92.78347499999654,
      "v": 120
    },
    {
      "midi": 36,
      "hit": false,
      "t": 52942.75200000025,
      "d": 371.13389999999345,
      "v": 96
    },
    {
      "midi": 45,
      "hit": false,
      "t": 52942.75200000025,
      "d": 1484.5355999999738,
      "v": 120
    },
    {
      "midi": 42,
      "hit": false,
      "t": 52942.75200000025,
      "d": 1484.5355999999738,
      "v": 120
    },
    {
      "midi": 30,
      "hit": false,
      "t": 53045.844750000244,
      "d": 92.78347499999654,
      "v": 120
    },
    {
      "midi": 30,
      "hit": false,
      "t": 53148.93750000024,
      "d": 185.56695000000036,
      "v": 120
    },
    {
      "midi": 30,
      "hit": false,
      "t": 53355.12300000024,
      "d": 185.56695000000036,
      "v": 120
    },
    {
      "midi": 38,
      "hit": false,
      "t": 53355.12300000024,
      "d": 371.13389999999345,
      "v": 96
    },
    {
      "midi": 30,
      "hit": false,
      "t": 53561.30850000024,
      "d": 92.78347499999654,
      "v": 120
    },
    {
      "midi": 30,
      "hit": false,
      "t": 53664.401250000235,
      "d": 92.78347499999654,
      "v": 120
    },
    {
      "midi": 30,
      "hit": false,
      "t": 53767.49400000023,
      "d": 92.78347499999654,
      "v": 120
    },
    {
      "midi": 36,
      "hit": false,
      "t": 53767.49400000023,
      "d": 371.13389999999345,
      "v": 96
    },
    {
      "midi": 30,
      "hit": false,
      "t": 53870.58675000023,
      "d": 92.78347499999654,
      "v": 120
    },
    {
      "midi": 30,
      "hit": false,
      "t": 53973.679500000224,
      "d": 185.56695000000036,
      "v": 120
    },
    {
      "midi": 59,
      "hit": false,
      "t": 53973.679500000224,
      "d": 185.56695000000036,
      "v": 120
    },
    {
      "midi": 30,
      "hit": false,
      "t": 54179.86500000022,
      "d": 185.56695000000036,
      "v": 120
    },
    {
      "midi": 61,
      "hit": false,
      "t": 54179.86500000022,
      "d": 185.56695000000036,
      "v": 120
    },
    {
      "midi": 38,
      "hit": false,
      "t": 54179.86500000022,
      "d": 371.13389999999345,
      "v": 96
    },
    {
      "midi": 30,
      "hit": false,
      "t": 54386.05050000022,
      "d": 92.78347499999654,
      "v": 120
    },
    {
      "midi": 63,
      "hit": false,
      "t": 54386.05050000022,
      "d": 185.56694999999308,
      "v": 120
    },
    {
      "midi": 30,
      "hit": false,
      "t": 54489.14325000022,
      "d": 92.78347499999654,
      "v": 120
    },
    {
      "midi": 35,
      "hit": false,
      "t": 54592.236000000215,
      "d": 185.56695000000036,
      "v": 120
    },
    {
      "midi": 36,
      "hit": false,
      "t": 54592.236000000215,
      "d": 371.13389999999345,
      "v": 96
    },
    {
      "midi": 63,
      "hit": false,
      "t": 54592.236000000215,
      "d": 927.8347499999873,
      "v": 81
    },
    {
      "midi": 52,
      "hit": false,
      "t": 54592.236000000215,
      "d": 1484.5355999999665,
      "v": 120
    },
    {
      "midi": 49,
      "hit": false,
      "t": 54592.236000000215,
      "d": 1484.5355999999665,
      "v": 120
    },
    {
      "midi": 66,
      "hit": false,
      "t": 54592.236000000215,
      "d": 1649.4839999999604,
      "v": 72
    },
    {
      "midi": 59,
      "hit": false,
      "t": 54592.236000000215,
      "d": 1649.4839999999604,
      "v": 74
    },
    {
      "midi": 35,
      "hit": false,
      "t": 54798.421500000215,
      "d": 92.78347499999654,
      "v": 120
    },
    {
      "midi": 35,
      "hit": false,
      "t": 54901.51425000021,
      "d": 185.56694999999308,
      "v": 120
    },
    {
      "midi": 38,
      "hit": false,
      "t": 55004.60700000021,
      "d": 371.13389999999345,
      "v": 96
    },
    {
      "midi": 35,
      "hit": false,
      "t": 55107.6997500002,
      "d": 92.78347499999654,
      "v": 120
    },
    {
      "midi": 35,
      "hit": false,
      "t": 55210.7925000002,
      "d": 185.56695000000036,
      "v": 120
    },
    {
      "midi": 35,
      "hit": false,
      "t": 55416.9780000002,
      "d": 185.56695000000036,
      "v": 120
    },
    {
      "midi": 36,
      "hit": false,
      "t": 55416.9780000002,
      "d": 371.13389999999345,
      "v": 96
    },
    {
      "midi": 35,
      "hit": false,
      "t": 55623.1635000002,
      "d": 92.78347499999654,
      "v": 120
    },
    {
      "midi": 63,
      "hit": false,
      "t": 55623.1635000002,
      "d": 185.56694999999308,
      "v": 120
    },
    {
      "midi": 35,
      "hit": false,
      "t": 55726.256250000195,
      "d": 185.56694999999308,
      "v": 120
    },
    {
      "midi": 64,
      "hit": false,
      "t": 55829.34900000019,
      "d": 206.18549999999232,
      "v": 120
    },
    {
      "midi": 38,
      "hit": false,
      "t": 55829.34900000019,
      "d": 371.13389999998617,
      "v": 96
    },
    {
      "midi": 35,
      "hit": false,
      "t": 55932.44175000019,
      "d": 92.78347499999654,
      "v": 120
    },
    {
      "midi": 63,
      "hit": false,
      "t": 56035.53450000018,
      "d": 103.09274999999616,
      "v": 120
    },
    {
      "midi": 35,
      "hit": false,
      "t": 56035.53450000018,
      "d": 185.56694999999308,
      "v": 120
    },
    {
      "midi": 47,
      "hit": false,
      "t": 56241.720000000176,
      "d": 92.78347499999654,
      "v": 96
    },
    {
      "midi": 32,
      "hit": false,
      "t": 56241.720000000176,
      "d": 185.56694999999308,
      "v": 120
    },
    {
      "midi": 68,
      "hit": false,
      "t": 56241.720000000176,
      "d": 1237.1129999999612,
      "v": 91
    },
    {
      "midi": 53,
      "hit": false,
      "t": 56241.720000000176,
      "d": 1484.535599999952,
      "v": 120
    },
    {
      "midi": 49,
      "hit": false,
      "t": 56241.720000000176,
      "d": 1484.535599999952,
      "v": 120
    },
    {
      "midi": 45,
      "hit": false,
      "t": 56447.90550000017,
      "d": 92.78347499999654,
      "v": 96
    },
    {
      "midi": 32,
      "hit": false,
      "t": 56447.90550000017,
      "d": 92.78347499999654,
      "v": 120
    },
    {
      "midi": 43,
      "hit": false,
      "t": 56550.998250000164,
      "d": 92.78347499999654,
      "v": 96
    },
    {
      "midi": 32,
      "hit": false,
      "t": 56550.998250000164,
      "d": 185.56694999999308,
      "v": 120
    },
    {
      "midi": 47,
      "hit": false,
      "t": 56654.09100000016,
      "d": 92.78347499999654,
      "v": 96
    },
    {
      "midi": 32,
      "hit": false,
      "t": 56757.18375000016,
      "d": 92.78347499999654,
      "v": 120
    },
    {
      "midi": 45,
      "hit": false,
      "t": 56860.27650000015,
      "d": 92.78347499999654,
      "v": 96
    },
    {
      "midi": 32,
      "hit": false,
      "t": 56860.27650000015,
      "d": 185.56694999999308,
      "v": 120
    },
    {
      "midi": 43,
      "hit": false,
      "t": 56963.36925000015,
      "d": 92.78347499999654,
      "v": 96
    },
    {
      "midi": 38,
      "hit": false,
      "t": 57066.462000000145,
      "d": 92.78347499999654,
      "v": 96
    },
    {
      "midi": 32,
      "hit": false,
      "t": 57066.462000000145,
      "d": 185.56694999999308,
      "v": 120
    },
    {
      "midi": 38,
      "hit": false,
      "t": 57169.55475000014,
      "d": 92.78347499999654,
      "v": 96
    },
    {
      "midi": 38,
      "hit": false,
      "t": 57272.64750000014,
      "d": 92.78347499999654,
      "v": 96
    },
    {
      "midi": 32,
      "hit": false,
      "t": 57272.64750000014,
      "d": 92.78347499999654,
      "v": 120
    },
    {
      "midi": 32,
      "hit": false,
      "t": 57375.74025000013,
      "d": 185.56695000000036,
      "v": 120
    },
    {
      "midi": 38,
      "hit": false,
      "t": 57478.83300000014,
      "d": 92.78347499999654,
      "v": 96
    },
    {
      "midi": 32,
      "hit": false,
      "t": 57581.92575000013,
      "d": 92.78347499999654,
      "v": 120
    },
    {
      "midi": 38,
      "hit": false,
      "t": 57685.01850000013,
      "d": 92.78347499999654,
      "v": 96
    },
    {
      "midi": 61,
      "hit": false,
      "t": 57685.01850000013,
      "d": 92.78347499999654,
      "v": 120
    },
    {
      "midi": 32,
      "hit": false,
      "t": 57685.01850000013,
      "d": 185.56694999999308,
      "v": 120
    },
    {
      "midi": 63,
      "hit": false,
      "t": 57788.111250000125,
      "d": 92.78347499999654,
      "v": 120
    },
    {
      "midi": 49,
      "hit": false,
      "t": 57891.20400000012,
      "d": 92.78347499999654,
      "v": 120
    },
    {
      "midi": 46,
      "hit": false,
      "t": 57891.20400000012,
      "d": 92.78347499999654,
      "v": 120
    },
    {
      "midi": 30,
      "hit": false,
      "t": 57891.20400000012,
      "d": 185.56694999999308,
      "v": 120
    },
    {
      "midi": 65,
      "hit": false,
      "t": 57891.20400000012,
      "d": 185.56694999999308,
      "v": 120
    },
    {
      "midi": 36,
      "hit": false,
      "t": 57891.20400000012,
      "d": 371.13389999998617,
      "v": 96
    },
    {
      "midi": 49,
      "hit": false,
      "t": 58097.389500000114,
      "d": 92.78347499999654,
      "v": 120
    },
    {
      "midi": 46,
      "hit": false,
      "t": 58097.389500000114,
      "d": 92.78347499999654,
      "v": 120
    },
    {
      "midi": 30,
      "hit": false,
      "t": 58097.389500000114,
      "d": 185.56694999999308,
      "v": 120
    },
    {
      "midi": 61,
      "hit": false,
      "t": 58097.389500000114,
      "d": 185.56694999999308,
      "v": 120
    },
    {
      "midi": 30,
      "hit": false,
      "t": 58303.575000000106,
      "d": 185.56695000000036,
      "v": 120
    },
    {
      "midi": 63,
      "hit": false,
      "t": 58303.575000000106,
      "d": 185.56695000000036,
      "v": 120
    },
    {
      "midi": 38,
      "hit": false,
      "t": 58303.575000000106,
      "d": 371.1339000000007,
      "v": 96
    },
    {
      "midi": 49,
      "hit": false,
      "t": 58303.575000000106,
      "d": 371.1339000000007,
      "v": 120
    },
    {
      "midi": 46,
      "hit": false,
      "t": 58303.575000000106,
      "d": 371.1339000000007,
      "v": 120
    },
    {
      "midi": 30,
      "hit": false,
      "t": 58509.760500000106,
      "d": 185.56695000000036,
      "v": 120
    },
    {
      "midi": 61,
      "hit": false,
      "t": 58509.760500000106,
      "d": 185.56695000000036,
      "v": 120
    },
    {
      "midi": 51,
      "hit": false,
      "t": 58715.946000000105,
      "d": 92.78347499999654,
      "v": 120
    },
    {
      "midi": 48,
      "hit": false,
      "t": 58715.946000000105,
      "d": 92.78347499999654,
      "v": 120
    },
    {
      "midi": 65,
      "hit": false,
      "t": 58715.946000000105,
      "d": 92.78347499999654,
      "v": 120
    },
    {
      "midi": 32,
      "hit": false,
      "t": 58715.946000000105,
      "d": 185.56694999999308,
      "v": 120
    },
    {
      "midi": 36,
      "hit": false,
      "t": 58715.946000000105,
      "d": 371.13389999998617,
      "v": 96
    },
    {
      "midi": 63,
      "hit": false,
      "t": 58819.0387500001,
      "d": 92.78347499999654,
      "v": 120
    },
    {
      "midi": 51,
      "hit": false,
      "t": 58922.1315000001,
      "d": 92.78347499999654,
      "v": 120
    },
    {
      "midi": 48,
      "hit": false,
      "t": 58922.1315000001,
      "d": 92.78347499999654,
      "v": 120
    },
    {
      "midi": 32,
      "hit": false,
      "t": 58922.1315000001,
      "d": 185.56694999999308,
      "v": 120
    },
    {
      "midi": 61,
      "hit": false,
      "t": 59025.224250000094,
      "d": 278.3504249999969,
      "v": 120
    },
    {
      "midi": 32,
      "hit": false,
      "t": 59128.31700000009,
      "d": 185.56695000000036,
      "v": 120
    },
    {
      "midi": 38,
      "hit": false,
      "t": 59128.31700000009,
      "d": 371.13389999999345,
      "v": 96
    },
    {
      "midi": 51,
      "hit": false,
      "t": 59128.31700000009,
      "d": 371.13389999999345,
      "v": 120
    },
    {
      "midi": 48,
      "hit": false,
      "t": 59128.31700000009,
      "d": 371.13389999999345,
      "v": 120
    },
    {
      "midi": 63,
      "hit": false,
      "t": 59334.50250000009,
      "d": 92.78347499999654,
      "v": 120
    },
    {
      "midi": 32,
      "hit": false,
      "t": 59334.50250000009,
      "d": 185.56694999999308,
      "v": 120
    },
    {
      "midi": 48,
      "hit": false,
      "t": 59540.68800000008,
      "d": 92.78347499999654,
      "v": 120
    },
    {
      "midi": 44,
      "hit": false,
      "t": 59540.68800000008,
      "d": 92.78347499999654,
      "v": 120
    },
    {
      "midi": 29,
      "hit": false,
      "t": 59540.68800000008,
      "d": 185.56694999999308,
      "v": 120
    },
    {
      "midi": 63,
      "hit": false,
      "t": 59540.68800000008,
      "d": 278.3504249999896,
      "v": 120
    },
    {
      "midi": 36,
      "hit": false,
      "t": 59540.68800000008,
      "d": 371.13389999998617,
      "v": 96
    },
    {
      "midi": 48,
      "hit": false,
      "t": 59746.873500000074,
      "d": 92.78347499999654,
      "v": 120
    },
    {
      "midi": 44,
      "hit": false,
      "t": 59746.873500000074,
      "d": 92.78347499999654,
      "v": 120
    },
    {
      "midi": 29,
      "hit": false,
      "t": 59746.873500000074,
      "d": 185.56694999999308,
      "v": 120
    },
    {
      "midi": 63,
      "hit": false,
      "t": 59849.96625000007,
      "d": 278.3504249999969,
      "v": 120
    },
    {
      "midi": 29,
      "hit": false,
      "t": 59953.05900000007,
      "d": 185.56695000000036,
      "v": 120
    },
    {
      "midi": 38,
      "hit": false,
      "t": 59953.05900000007,
      "d": 371.13389999999345,
      "v": 96
    },
    {
      "midi": 44,
      "hit": false,
      "t": 59953.05900000007,
      "d": 371.13389999999345,
      "v": 120
    },
    {
      "midi": 48,
      "hit": false,
      "t": 60159.244500000066,
      "d": 92.78347499999654,
      "v": 120
    },
    {
      "midi": 29,
      "hit": false,
      "t": 60159.244500000066,
      "d": 185.56694999999308,
      "v": 120
    },
    {
      "midi": 65,
      "hit": false,
      "t": 60159.244500000066,
      "d": 185.56694999999308,
      "v": 120
    },
    {
      "midi": 47,
      "hit": false,
      "t": 60262.33725000006,
      "d": 92.78347499999654,
      "v": 120
    },
    {
      "midi": 49,
      "hit": false,
      "t": 60365.43000000006,
      "d": 92.78347499999654,
      "v": 120
    },
    {
      "midi": 44,
      "hit": false,
      "t": 60365.43000000006,
      "d": 92.78347499999654,
      "v": 120
    },
    {
      "midi": 45,
      "hit": false,
      "t": 60365.43000000006,
      "d": 92.78347499999654,
      "v": 120
    },
    {
      "midi": 32,
      "hit": false,
      "t": 60365.43000000006,
      "d": 185.56694999999308,
      "v": 120
    },
    {
      "midi": 36,
      "hit": false,
      "t": 60365.43000000006,
      "d": 371.13389999998617,
      "v": 96
    },
    {
      "midi": 65,
      "hit": false,
      "t": 60365.43000000006,
      "d": 556.7008499999793,
      "v": 120
    },
    {
      "midi": 43,
      "hit": false,
      "t": 60468.522750000055,
      "d": 92.78347499999654,
      "v": 120
    },
    {
      "midi": 49,
      "hit": false,
      "t": 60571.61550000005,
      "d": 92.78347499999654,
      "v": 120
    },
    {
      "midi": 44,
      "hit": false,
      "t": 60571.61550000005,
      "d": 92.78347499999654,
      "v": 120
    },
    {
      "midi": 41,
      "hit": false,
      "t": 60571.61550000005,
      "d": 92.78347499999654,
      "v": 120
    },
    {
      "midi": 32,
      "hit": false,
      "t": 60571.61550000005,
      "d": 185.56694999999308,
      "v": 120
    },
    {
      "midi": 40,
      "hit": false,
      "t": 60777.80100000004,
      "d": 92.78347499999654,
      "v": 120
    },
    {
      "midi": 32,
      "hit": false,
      "t": 60777.80100000004,
      "d": 185.56694999999308,
      "v": 120
    },
    {
      "midi": 38,
      "hit": false,
      "t": 60777.80100000004,
      "d": 371.13389999999345,
      "v": 96
    },
    {
      "midi": 49,
      "hit": false,
      "t": 60777.80100000004,
      "d": 371.13389999999345,
      "v": 120
    },
    {
      "midi": 44,
      "hit": false,
      "t": 60777.80100000004,
      "d": 371.13389999999345,
      "v": 120
    },
    {
      "midi": 32,
      "hit": false,
      "t": 60983.986500000035,
      "d": 185.56695000000036,
      "v": 120
    },
    {
      "midi": 61,
      "hit": false,
      "t": 60983.986500000035,
      "d": 185.56695000000036,
      "v": 120
    },
    {
      "midi": 49,
      "hit": false,
      "t": 61190.172000000035,
      "d": 92.78347499999654,
      "v": 120
    },
    {
      "midi": 46,
      "hit": false,
      "t": 61190.172000000035,
      "d": 92.78347499999654,
      "v": 120
    },
    {
      "midi": 30,
      "hit": false,
      "t": 61190.172000000035,
      "d": 185.56694999999308,
      "v": 120
    },
    {
      "midi": 68,
      "hit": false,
      "t": 61190.172000000035,
      "d": 278.3504249999896,
      "v": 120
    },
    {
      "midi": 36,
      "hit": false,
      "t": 61190.172000000035,
      "d": 371.13389999998617,
      "v": 96
    },
    {
      "midi": 49,
      "hit": false,
      "t": 61396.35750000003,
      "d": 92.78347499999654,
      "v": 120
    },
    {
      "midi": 46,
      "hit": false,
      "t": 61396.35750000003,
      "d": 92.78347499999654,
      "v": 120
    },
    {
      "midi": 30,
      "hit": false,
      "t": 61396.35750000003,
      "d": 185.56694999999308,
      "v": 120
    },
    {
      "midi": 68,
      "hit": false,
      "t": 61499.45025000002,
      "d": 278.3504249999969,
      "v": 120
    },
    {
      "midi": 30,
      "hit": false,
      "t": 61602.54300000002,
      "d": 185.56695000000036,
      "v": 120
    },
    {
      "midi": 38,
      "hit": false,
      "t": 61602.54300000002,
      "d": 371.1339000000007,
      "v": 96
    },
    {
      "midi": 49,
      "hit": false,
      "t": 61602.54300000002,
      "d": 371.1339000000007,
      "v": 120
    },
    {
      "midi": 46,
      "hit": false,
      "t": 61602.54300000002,
      "d": 371.1339000000007,
      "v": 120
    },
    {
      "midi": 30,
      "hit": false,
      "t": 61808.72850000002,
      "d": 185.56695000000036,
      "v": 120
    },
    {
      "midi": 70,
      "hit": false,
      "t": 61808.72850000002,
      "d": 185.56695000000036,
      "v": 120
    },
    {
      "midi": 51,
      "hit": false,
      "t": 62014.91400000002,
      "d": 92.78347499999654,
      "v": 120
    },
    {
      "midi": 48,
      "hit": false,
      "t": 62014.91400000002,
      "d": 92.78347499999654,
      "v": 120
    },
    {
      "midi": 32,
      "hit": false,
      "t": 62014.91400000002,
      "d": 185.56694999999308,
      "v": 120
    },
    {
      "midi": 68,
      "hit": false,
      "t": 62014.91400000002,
      "d": 185.56694999999308,
      "v": 120
    },
    {
      "midi": 36,
      "hit": false,
      "t": 62014.91400000002,
      "d": 371.13389999998617,
      "v": 96
    },
    {
      "midi": 51,
      "hit": false,
      "t": 62221.09950000001,
      "d": 92.78347499999654,
      "v": 120
    },
    {
      "midi": 48,
      "hit": false,
      "t": 62221.09950000001,
      "d": 92.78347499999654,
      "v": 120
    },
    {
      "midi": 32,
      "hit": false,
      "t": 62221.09950000001,
      "d": 185.56694999999308,
      "v": 120
    },
    {
      "midi": 63,
      "hit": false,
      "t": 62221.09950000001,
      "d": 185.56694999999308,
      "v": 120
    },
    {
      "midi": 32,
      "hit": false,
      "t": 62427.285,
      "d": 185.56695000000036,
      "v": 120
    },
    {
      "midi": 68,
      "hit": false,
      "t": 62427.285,
      "d": 185.56695000000036,
      "v": 120
    },
    {
      "midi": 38,
      "hit": false,
      "t": 62427.285,
      "d": 371.13389999999345,
      "v": 96
    },
    {
      "midi": 51,
      "hit": false,
      "t": 62427.285,
      "d": 371.13389999999345,
      "v": 120
    },
    {
      "midi": 48,
      "hit": false,
      "t": 62427.285,
      "d": 371.13389999999345,
      "v": 120
    },
    {
      "midi": 66,
      "hit": false,
      "t": 62633.4705,
      "d": 92.78347499999654,
      "v": 120
    },
    {
      "midi": 32,
      "hit": false,
      "t": 62633.4705,
      "d": 185.56694999999308,
      "v": 120
    },
    {
      "midi": 65,
      "hit": false,
      "t": 62736.56325,
      "d": 1340.2057499999573,
      "v": 120
    },
    {
      "midi": 48,
      "hit": false,
      "t": 62839.655999999995,
      "d": 92.78347499999654,
      "v": 120
    },
    {
      "midi": 44,
      "hit": false,
      "t": 62839.655999999995,
      "d": 92.78347499999654,
      "v": 120
    },
    {
      "midi": 29,
      "hit": false,
      "t": 62839.655999999995,
      "d": 185.56694999999308,
      "v": 120
    },
    {
      "midi": 36,
      "hit": false,
      "t": 62839.655999999995,
      "d": 371.13389999998617,
      "v": 96
    },
    {
      "midi": 48,
      "hit": false,
      "t": 63045.84149999999,
      "d": 92.78347499999654,
      "v": 120
    },
    {
      "midi": 44,
      "hit": false,
      "t": 63045.84149999999,
      "d": 92.78347499999654,
      "v": 120
    },
    {
      "midi": 29,
      "hit": false,
      "t": 63045.84149999999,
      "d": 185.56694999999308,
      "v": 120
    },
    {
      "midi": 29,
      "hit": false,
      "t": 63252.02699999998,
      "d": 185.56695000000036,
      "v": 120
    },
    {
      "midi": 38,
      "hit": false,
      "t": 63252.02699999998,
      "d": 371.13389999999345,
      "v": 96
    },
    {
      "midi": 44,
      "hit": false,
      "t": 63252.02699999998,
      "d": 371.13389999999345,
      "v": 120
    },
    {
      "midi": 48,
      "hit": false,
      "t": 63458.21249999998,
      "d": 92.78347499999654,
      "v": 120
    },
    {
      "midi": 29,
      "hit": false,
      "t": 63458.21249999998,
      "d": 185.56694999999308,
      "v": 120
    },
    {
      "midi": 47,
      "hit": false,
      "t": 63561.305249999976,
      "d": 92.78347499999654,
      "v": 120
    },
    {
      "midi": 49,
      "hit": false,
      "t": 63664.39799999997,
      "d": 92.78347499999654,
      "v": 120
    },
    {
      "midi": 46,
      "hit": false,
      "t": 63664.39799999997,
      "d": 92.78347499999654,
      "v": 120
    },
    {
      "midi": 45,
      "hit": false,
      "t": 63664.39799999997,
      "d": 92.78347499999654,
      "v": 120
    },
    {
      "midi": 32,
      "hit": false,
      "t": 63664.39799999997,
      "d": 185.56694999999308,
      "v": 120
    },
    {
      "midi": 36,
      "hit": false,
      "t": 63664.39799999997,
      "d": 371.13389999998617,
      "v": 96
    },
    {
      "midi": 43,
      "hit": false,
      "t": 63767.49074999997,
      "d": 92.78347499999654,
      "v": 120
    },
    {
      "midi": 49,
      "hit": false,
      "t": 63870.583499999964,
      "d": 92.78347499999654,
      "v": 120
    },
    {
      "midi": 46,
      "hit": false,
      "t": 63870.583499999964,
      "d": 92.78347499999654,
      "v": 120
    },
    {
      "midi": 41,
      "hit": false,
      "t": 63870.583499999964,
      "d": 185.56694999999308,
      "v": 120
    },
    {
      "midi": 32,
      "hit": false,
      "t": 63870.583499999964,
      "d": 185.56694999999308,
      "v": 120
    },
    {
      "midi": 32,
      "hit": false,
      "t": 64076.76899999996,
      "d": 185.56695000000036,
      "v": 120
    },
    {
      "midi": 38,
      "hit": false,
      "t": 64076.76899999996,
      "d": 371.13389999999345,
      "v": 96
    },
    {
      "midi": 49,
      "hit": false,
      "t": 64076.76899999996,
      "d": 371.13389999999345,
      "v": 120
    },
    {
      "midi": 46,
      "hit": false,
      "t": 64076.76899999996,
      "d": 371.13389999999345,
      "v": 120
    },
    {
      "midi": 40,
      "hit": false,
      "t": 64076.76899999996,
      "d": 371.13389999999345,
      "v": 120
    },
    {
      "midi": 61,
      "hit": false,
      "t": 64282.954499999956,
      "d": 92.78347499999654,
      "v": 120
    },
    {
      "midi": 32,
      "hit": false,
      "t": 64282.954499999956,
      "d": 185.56694999999308,
      "v": 120
    },
    {
      "midi": 63,
      "hit": false,
      "t": 64386.04724999995,
      "d": 92.78347499999654,
      "v": 120
    },
    {
      "midi": 49,
      "hit": false,
      "t": 64489.13999999995,
      "d": 92.78347499999654,
      "v": 120
    },
    {
      "midi": 46,
      "hit": false,
      "t": 64489.13999999995,
      "d": 92.78347499999654,
      "v": 120
    },
    {
      "midi": 30,
      "hit": false,
      "t": 64489.13999999995,
      "d": 185.56694999999308,
      "v": 120
    },
    {
      "midi": 65,
      "hit": false,
      "t": 64489.13999999995,
      "d": 185.56694999999308,
      "v": 120
    },
    {
      "midi": 36,
      "hit": false,
      "t": 64489.13999999995,
      "d": 371.13389999998617,
      "v": 96
    },
    {
      "midi": 49,
      "hit": false,
      "t": 64695.32549999994,
      "d": 92.78347499999654,
      "v": 120
    },
    {
      "midi": 46,
      "hit": false,
      "t": 64695.32549999994,
      "d": 92.78347499999654,
      "v": 120
    },
    {
      "midi": 30,
      "hit": false,
      "t": 64695.32549999994,
      "d": 185.56694999999308,
      "v": 120
    },
    {
      "midi": 61,
      "hit": false,
      "t": 64695.32549999994,
      "d": 185.56694999999308,
      "v": 120
    },
    {
      "midi": 30,
      "hit": false,
      "t": 64901.51099999993,
      "d": 185.56695000000036,
      "v": 120
    },
    {
      "midi": 63,
      "hit": false,
      "t": 64901.51099999993,
      "d": 185.56695000000036,
      "v": 120
    },
    {
      "midi": 38,
      "hit": false,
      "t": 64901.51099999993,
      "d": 371.1339000000007,
      "v": 96
    },
    {
      "midi": 49,
      "hit": false,
      "t": 64901.51099999993,
      "d": 371.1339000000007,
      "v": 120
    },
    {
      "midi": 46,
      "hit": false,
      "t": 64901.51099999993,
      "d": 371.1339000000007,
      "v": 120
    },
    {
      "midi": 30,
      "hit": false,
      "t": 65107.69649999993,
      "d": 185.56695000000036,
      "v": 120
    },
    {
      "midi": 61,
      "hit": false,
      "t": 65107.69649999993,
      "d": 185.56695000000036,
      "v": 120
    },
    {
      "midi": 51,
      "hit": false,
      "t": 65313.88199999993,
      "d": 92.78347499999654,
      "v": 120
    },
    {
      "midi": 48,
      "hit": false,
      "t": 65313.88199999993,
      "d": 92.78347499999654,
      "v": 120
    },
    {
      "midi": 65,
      "hit": false,
      "t": 65313.88199999993,
      "d": 92.78347499999654,
      "v": 120
    },
    {
      "midi": 32,
      "hit": false,
      "t": 65313.88199999993,
      "d": 185.56694999999308,
      "v": 120
    },
    {
      "midi": 36,
      "hit": false,
      "t": 65313.88199999993,
      "d": 371.13389999999345,
      "v": 96
    },
    {
      "midi": 63,
      "hit": false,
      "t": 65416.97474999993,
      "d": 92.78347499999654,
      "v": 120
    },
    {
      "midi": 51,
      "hit": false,
      "t": 65520.067499999925,
      "d": 92.78347499999654,
      "v": 120
    },
    {
      "midi": 48,
      "hit": false,
      "t": 65520.067499999925,
      "d": 92.78347499999654,
      "v": 120
    },
    {
      "midi": 32,
      "hit": false,
      "t": 65520.067499999925,
      "d": 185.56695000000036,
      "v": 120
    },
    {
      "midi": 61,
      "hit": false,
      "t": 65623.16024999993,
      "d": 278.3504249999969,
      "v": 120
    },
    {
      "midi": 32,
      "hit": false,
      "t": 65726.25299999992,
      "d": 185.56695000000764,
      "v": 120
    },
    {
      "midi": 38,
      "hit": false,
      "t": 65726.25299999992,
      "d": 371.1339000000153,
      "v": 96
    },
    {
      "midi": 51,
      "hit": false,
      "t": 65726.25299999992,
      "d": 371.1339000000153,
      "v": 120
    },
    {
      "midi": 48,
      "hit": false,
      "t": 65726.25299999992,
      "d": 371.1339000000153,
      "v": 120
    },
    {
      "midi": 63,
      "hit": false,
      "t": 65932.43849999993,
      "d": 92.78347500000382,
      "v": 120
    },
    {
      "midi": 32,
      "hit": false,
      "t": 65932.43849999993,
      "d": 185.56695000000764,
      "v": 120
    },
    {
      "midi": 48,
      "hit": false,
      "t": 66138.62399999994,
      "d": 92.78347500000382,
      "v": 120
    },
    {
      "midi": 44,
      "hit": false,
      "t": 66138.62399999994,
      "d": 92.78347500000382,
      "v": 120
    },
    {
      "midi": 29,
      "hit": false,
      "t": 66138.62399999994,
      "d": 185.56695000000764,
      "v": 120
    },
    {
      "midi": 63,
      "hit": false,
      "t": 66138.62399999994,
      "d": 278.35042500001146,
      "v": 120
    },
    {
      "midi": 36,
      "hit": false,
      "t": 66138.62399999994,
      "d": 371.1339000000153,
      "v": 96
    },
    {
      "midi": 48,
      "hit": false,
      "t": 66344.80949999994,
      "d": 92.78347500000382,
      "v": 120
    },
    {
      "midi": 44,
      "hit": false,
      "t": 66344.80949999994,
      "d": 92.78347500000382,
      "v": 120
    },
    {
      "midi": 29,
      "hit": false,
      "t": 66344.80949999994,
      "d": 185.56695000000764,
      "v": 120
    },
    {
      "midi": 63,
      "hit": false,
      "t": 66447.90224999996,
      "d": 278.3504249999969,
      "v": 120
    },
    {
      "midi": 29,
      "hit": false,
      "t": 66550.99499999995,
      "d": 185.56695000000764,
      "v": 120
    },
    {
      "midi": 38,
      "hit": false,
      "t": 66550.99499999995,
      "d": 371.1339000000153,
      "v": 96
    },
    {
      "midi": 44,
      "hit": false,
      "t": 66550.99499999995,
      "d": 371.1339000000153,
      "v": 120
    },
    {
      "midi": 48,
      "hit": false,
      "t": 66757.18049999996,
      "d": 92.78347500000382,
      "v": 120
    },
    {
      "midi": 29,
      "hit": false,
      "t": 66757.18049999996,
      "d": 185.56695000000764,
      "v": 120
    },
    {
      "midi": 65,
      "hit": false,
      "t": 66757.18049999996,
      "d": 185.56695000000764,
      "v": 120
    },
    {
      "midi": 47,
      "hit": false,
      "t": 66860.27324999997,
      "d": 92.78347500000382,
      "v": 120
    },
    {
      "midi": 49,
      "hit": false,
      "t": 66963.36599999998,
      "d": 92.78347500000382,
      "v": 120
    },
    {
      "midi": 46,
      "hit": false,
      "t": 66963.36599999998,
      "d": 92.78347500000382,
      "v": 120
    },
    {
      "midi": 45,
      "hit": false,
      "t": 66963.36599999998,
      "d": 92.78347500000382,
      "v": 120
    },
    {
      "midi": 32,
      "hit": false,
      "t": 66963.36599999998,
      "d": 185.56695000000764,
      "v": 120
    },
    {
      "midi": 36,
      "hit": false,
      "t": 66963.36599999998,
      "d": 371.1339000000298,
      "v": 96
    },
    {
      "midi": 61,
      "hit": false,
      "t": 66963.36599999998,
      "d": 556.7008500000375,
      "v": 120
    },
    {
      "midi": 43,
      "hit": false,
      "t": 67066.45874999999,
      "d": 92.78347500000382,
      "v": 120
    },
    {
      "midi": 49,
      "hit": false,
      "t": 67169.5515,
      "d": 92.78347500000382,
      "v": 120
    },
    {
      "midi": 46,
      "hit": false,
      "t": 67169.5515,
      "d": 92.78347500000382,
      "v": 120
    },
    {
      "midi": 41,
      "hit": false,
      "t": 67169.5515,
      "d": 92.78347500000382,
      "v": 120
    },
    {
      "midi": 32,
      "hit": false,
      "t": 67169.5515,
      "d": 185.56695000000764,
      "v": 120
    },
    {
      "midi": 40,
      "hit": false,
      "t": 67375.73700000001,
      "d": 92.78347500000382,
      "v": 120
    },
    {
      "midi": 32,
      "hit": false,
      "t": 67375.73700000001,
      "d": 185.56695000000764,
      "v": 120
    },
    {
      "midi": 38,
      "hit": false,
      "t": 67375.73700000001,
      "d": 371.1339000000153,
      "v": 96
    },
    {
      "midi": 49,
      "hit": false,
      "t": 67375.73700000001,
      "d": 371.1339000000153,
      "v": 120
    },
    {
      "midi": 46,
      "hit": false,
      "t": 67375.73700000001,
      "d": 371.1339000000153,
      "v": 120
    },
    {
      "midi": 61,
      "hit": false,
      "t": 67581.92250000002,
      "d": 92.78347500000382,
      "v": 120
    },
    {
      "midi": 32,
      "hit": false,
      "t": 67581.92250000002,
      "d": 185.56695000000764,
      "v": 120
    },
    {
      "midi": 61,
      "hit": false,
      "t": 67685.01525000003,
      "d": 92.78347500000382,
      "v": 120
    },
    {
      "midi": 49,
      "hit": false,
      "t": 67788.10800000004,
      "d": 92.78347500000382,
      "v": 120
    },
    {
      "midi": 46,
      "hit": false,
      "t": 67788.10800000004,
      "d": 92.78347500000382,
      "v": 120
    },
    {
      "midi": 30,
      "hit": false,
      "t": 67788.10800000004,
      "d": 185.56695000000764,
      "v": 120
    },
    {
      "midi": 36,
      "hit": false,
      "t": 67788.10800000004,
      "d": 371.1339000000153,
      "v": 96
    },
    {
      "midi": 65,
      "hit": false,
      "t": 67788.10800000004,
      "d": 371.1339000000153,
      "v": 120
    },
    {
      "midi": 49,
      "hit": false,
      "t": 67994.29350000004,
      "d": 92.78347500000382,
      "v": 120
    },
    {
      "midi": 46,
      "hit": false,
      "t": 67994.29350000004,
      "d": 92.78347500000382,
      "v": 120
    },
    {
      "midi": 30,
      "hit": false,
      "t": 67994.29350000004,
      "d": 185.56695000000764,
      "v": 120
    },
    {
      "midi": 30,
      "hit": false,
      "t": 68200.47900000005,
      "d": 185.56694999999308,
      "v": 120
    },
    {
      "midi": 38,
      "hit": false,
      "t": 68200.47900000005,
      "d": 371.13389999998617,
      "v": 96
    },
    {
      "midi": 49,
      "hit": false,
      "t": 68200.47900000005,
      "d": 371.13389999998617,
      "v": 120
    },
    {
      "midi": 46,
      "hit": false,
      "t": 68200.47900000005,
      "d": 371.13389999998617,
      "v": 120
    },
    {
      "midi": 68,
      "hit": false,
      "t": 68200.47900000005,
      "d": 371.13389999998617,
      "v": 120
    },
    {
      "midi": 30,
      "hit": false,
      "t": 68406.66450000004,
      "d": 185.56694999999308,
      "v": 120
    },
    {
      "midi": 51,
      "hit": false,
      "t": 68612.85000000003,
      "d": 92.78347500000382,
      "v": 120
    },
    {
      "midi": 48,
      "hit": false,
      "t": 68612.85000000003,
      "d": 92.78347500000382,
      "v": 120
    },
    {
      "midi": 32,
      "hit": false,
      "t": 68612.85000000003,
      "d": 185.56695000000764,
      "v": 120
    },
    {
      "midi": 36,
      "hit": false,
      "t": 68612.85000000003,
      "d": 371.1339000000153,
      "v": 96
    },
    {
      "midi": 68,
      "hit": false,
      "t": 68612.85000000003,
      "d": 371.1339000000153,
      "v": 120
    },
    {
      "midi": 70,
      "hit": false,
      "t": 68612.85000000003,
      "d": 371.1339000000153,
      "v": 120
    },
    {
      "midi": 51,
      "hit": false,
      "t": 68819.03550000004,
      "d": 92.78347500000382,
      "v": 120
    },
    {
      "midi": 48,
      "hit": false,
      "t": 68819.03550000004,
      "d": 92.78347500000382,
      "v": 120
    },
    {
      "midi": 32,
      "hit": false,
      "t": 68819.03550000004,
      "d": 185.56695000000764,
      "v": 120
    },
    {
      "midi": 32,
      "hit": false,
      "t": 69025.22100000005,
      "d": 185.56694999999308,
      "v": 120
    },
    {
      "midi": 38,
      "hit": false,
      "t": 69025.22100000005,
      "d": 371.13389999998617,
      "v": 96
    },
    {
      "midi": 51,
      "hit": false,
      "t": 69025.22100000005,
      "d": 371.13389999998617,
      "v": 120
    },
    {
      "midi": 48,
      "hit": false,
      "t": 69025.22100000005,
      "d": 371.13389999998617,
      "v": 120
    },
    {
      "midi": 72,
      "hit": false,
      "t": 69025.22100000005,
      "d": 371.13389999998617,
      "v": 120
    },
    {
      "midi": 32,
      "hit": false,
      "t": 69231.40650000004,
      "d": 185.56694999999308,
      "v": 120
    },
    {
      "midi": 47,
      "hit": false,
      "t": 69437.59200000003,
      "d": 92.78347500000382,
      "v": 96
    },
    {
      "midi": 48,
      "hit": false,
      "t": 69437.59200000003,
      "d": 92.78347500000382,
      "v": 120
    },
    {
      "midi": 44,
      "hit": false,
      "t": 69437.59200000003,
      "d": 92.78347500000382,
      "v": 120
    },
    {
      "midi": 34,
      "hit": false,
      "t": 69437.59200000003,
      "d": 185.56695000000764,
      "v": 120
    },
    {
      "midi": 72,
      "hit": false,
      "t": 69437.59200000003,
      "d": 556.700850000052,
      "v": 120
    },
    {
      "midi": 47,
      "hit": false,
      "t": 69540.68475000004,
      "d": 92.78347500000382,
      "v": 96
    },
    {
      "midi": 45,
      "hit": false,
      "t": 69643.77750000005,
      "d": 92.78347500000382,
      "v": 96
    },
    {
      "midi": 48,
      "hit": false,
      "t": 69643.77750000005,
      "d": 92.78347500000382,
      "v": 120
    },
    {
      "midi": 44,
      "hit": false,
      "t": 69643.77750000005,
      "d": 92.78347500000382,
      "v": 120
    },
    {
      "midi": 34,
      "hit": false,
      "t": 69643.77750000005,
      "d": 185.56695000000764,
      "v": 120
    },
    {
      "midi": 45,
      "hit": false,
      "t": 69746.87025000007,
      "d": 92.78347500000382,
      "v": 96
    },
    {
      "midi": 43,
      "hit": false,
      "t": 69849.96300000008,
      "d": 92.78347500000382,
      "v": 96
    },
    {
      "midi": 29,
      "hit": false,
      "t": 69849.96300000008,
      "d": 185.56695000000764,
      "v": 120
    },
    {
      "midi": 48,
      "hit": false,
      "t": 69849.96300000008,
      "d": 371.1339000000298,
      "v": 120
    },
    {
      "midi": 44,
      "hit": false,
      "t": 69849.96300000008,
      "d": 371.1339000000298,
      "v": 120
    },
    {
      "midi": 43,
      "hit": false,
      "t": 69953.05575000009,
      "d": 92.78347500000382,
      "v": 96
    },
    {
      "midi": 41,
      "hit": false,
      "t": 70056.1485000001,
      "d": 92.78347500000382,
      "v": 96
    },
    {
      "midi": 34,
      "hit": false,
      "t": 70056.1485000001,
      "d": 185.56695000000764,
      "v": 120
    },
    {
      "midi": 70,
      "hit": false,
      "t": 70056.1485000001,
      "d": 185.56695000000764,
      "v": 120
    },
    {
      "midi": 41,
      "hit": false,
      "t": 70159.24125000011,
      "d": 92.78347500000382,
      "v": 96
    },
    {
      "midi": 38,
      "hit": false,
      "t": 70262.33400000012,
      "d": 92.78347500000382,
      "v": 96
    },
    {
      "midi": 49,
      "hit": false,
      "t": 70262.33400000012,
      "d": 92.78347500000382,
      "v": 120
    },
    {
      "midi": 44,
      "hit": false,
      "t": 70262.33400000012,
      "d": 92.78347500000382,
      "v": 120
    },
    {
      "midi": 34,
      "hit": false,
      "t": 70262.33400000012,
      "d": 185.56695000000764,
      "v": 120
    },
    {
      "midi": 70,
      "hit": false,
      "t": 70262.33400000012,
      "d": 556.7008500000375,
      "v": 120
    },
    {
      "midi": 38,
      "hit": false,
      "t": 70365.42675000013,
      "d": 92.78347500000382,
      "v": 96
    },
    {
      "midi": 38,
      "hit": false,
      "t": 70468.51950000014,
      "d": 92.78347500000382,
      "v": 96
    },
    {
      "midi": 49,
      "hit": false,
      "t": 70468.51950000014,
      "d": 92.78347500000382,
      "v": 120
    },
    {
      "midi": 44,
      "hit": false,
      "t": 70468.51950000014,
      "d": 92.78347500000382,
      "v": 120
    },
    {
      "midi": 34,
      "hit": false,
      "t": 70468.51950000014,
      "d": 92.78347500000382,
      "v": 120
    },
    {
      "midi": 29,
      "hit": false,
      "t": 70571.61225000015,
      "d": 185.56694999999308,
      "v": 120
    },
    {
      "midi": 38,
      "hit": false,
      "t": 70674.70500000015,
      "d": 92.78347500000382,
      "v": 96
    },
    {
      "midi": 49,
      "hit": false,
      "t": 70674.70500000015,
      "d": 371.1339000000298,
      "v": 120
    },
    {
      "midi": 44,
      "hit": false,
      "t": 70674.70500000015,
      "d": 371.1339000000298,
      "v": 120
    },
    {
      "midi": 34,
      "hit": false,
      "t": 70777.79775000016,
      "d": 92.78347500000382,
      "v": 120
    },
    {
      "midi": 38,
      "hit": false,
      "t": 70880.89050000017,
      "d": 92.78347500000382,
      "v": 96
    },
    {
      "midi": 29,
      "hit": false,
      "t": 70880.89050000017,
      "d": 92.78347500000382,
      "v": 120
    },
    {
      "midi": 61,
      "hit": false,
      "t": 70880.89050000017,
      "d": 92.78347500000382,
      "v": 120
    },
    {
      "midi": 34,
      "hit": false,
      "t": 70983.98325000018,
      "d": 92.78347500000382,
      "v": 120
    },
    {
      "midi": 63,
      "hit": false,
      "t": 70983.98325000018,
      "d": 92.78347500000382,
      "v": 120
    },
    {
      "midi": 49,
      "hit": false,
      "t": 71087.07600000019,
      "d": 92.78347500000382,
      "v": 120
    },
    {
      "midi": 46,
      "hit": false,
      "t": 71087.07600000019,
      "d": 92.78347500000382,
      "v": 120
    },
    {
      "midi": 30,
      "hit": false,
      "t": 71087.07600000019,
      "d": 185.56695000000764,
      "v": 120
    },
    {
      "midi": 65,
      "hit": false,
      "t": 71087.07600000019,
      "d": 185.56695000000764,
      "v": 120
    },
    {
      "midi": 36,
      "hit": false,
      "t": 71087.07600000019,
      "d": 371.1339000000153,
      "v": 96
    },
    {
      "midi": 49,
      "hit": false,
      "t": 71293.2615000002,
      "d": 92.78347500000382,
      "v": 120
    },
    {
      "midi": 46,
      "hit": false,
      "t": 71293.2615000002,
      "d": 92.78347500000382,
      "v": 120
    },
    {
      "midi": 30,
      "hit": false,
      "t": 71293.2615000002,
      "d": 185.56695000000764,
      "v": 120
    },
    {
      "midi": 61,
      "hit": false,
      "t": 71293.2615000002,
      "d": 185.56695000000764,
      "v": 120
    },
    {
      "midi": 30,
      "hit": false,
      "t": 71499.4470000002,
      "d": 185.56694999999308,
      "v": 120
    },
    {
      "midi": 63,
      "hit": false,
      "t": 71499.4470000002,
      "d": 185.56694999999308,
      "v": 120
    },
    {
      "midi": 38,
      "hit": false,
      "t": 71499.4470000002,
      "d": 371.13389999998617,
      "v": 96
    },
    {
      "midi": 49,
      "hit": false,
      "t": 71499.4470000002,
      "d": 371.13389999998617,
      "v": 120
    },
    {
      "midi": 46,
      "hit": false,
      "t": 71499.4470000002,
      "d": 371.13389999998617,
      "v": 120
    },
    {
      "midi": 30,
      "hit": false,
      "t": 71705.6325000002,
      "d": 185.56694999999308,
      "v": 120
    },
    {
      "midi": 61,
      "hit": false,
      "t": 71705.6325000002,
      "d": 185.56694999999308,
      "v": 120
    },
    {
      "midi": 51,
      "hit": false,
      "t": 71911.81800000019,
      "d": 92.78347500000382,
      "v": 120
    },
    {
      "midi": 48,
      "hit": false,
      "t": 71911.81800000019,
      "d": 92.78347500000382,
      "v": 120
    },
    {
      "midi": 65,
      "hit": false,
      "t": 71911.81800000019,
      "d": 92.78347500000382,
      "v": 120
    },
    {
      "midi": 32,
      "hit": false,
      "t": 71911.81800000019,
      "d": 185.56695000000764,
      "v": 120
    },
    {
      "midi": 36,
      "hit": false,
      "t": 71911.81800000019,
      "d": 371.1339000000298,
      "v": 96
    },
    {
      "midi": 63,
      "hit": false,
      "t": 72014.9107500002,
      "d": 92.78347500000382,
      "v": 120
    },
    {
      "midi": 51,
      "hit": false,
      "t": 72118.00350000021,
      "d": 92.78347500000382,
      "v": 120
    },
    {
      "midi": 48,
      "hit": false,
      "t": 72118.00350000021,
      "d": 92.78347500000382,
      "v": 120
    },
    {
      "midi": 32,
      "hit": false,
      "t": 72118.00350000021,
      "d": 185.56695000000764,
      "v": 120
    },
    {
      "midi": 61,
      "hit": false,
      "t": 72221.09625000022,
      "d": 278.3504249999969,
      "v": 120
    },
    {
      "midi": 32,
      "hit": false,
      "t": 72324.18900000022,
      "d": 185.56695000000764,
      "v": 120
    },
    {
      "midi": 38,
      "hit": false,
      "t": 72324.18900000022,
      "d": 371.1339000000153,
      "v": 96
    },
    {
      "midi": 51,
      "hit": false,
      "t": 72324.18900000022,
      "d": 371.1339000000153,
      "v": 120
    },
    {
      "midi": 48,
      "hit": false,
      "t": 72324.18900000022,
      "d": 371.1339000000153,
      "v": 120
    },
    {
      "midi": 63,
      "hit": false,
      "t": 72530.37450000022,
      "d": 92.78347500000382,
      "v": 120
    },
    {
      "midi": 32,
      "hit": false,
      "t": 72530.37450000022,
      "d": 185.56695000000764,
      "v": 120
    },
    {
      "midi": 48,
      "hit": false,
      "t": 72736.56000000023,
      "d": 92.78347500000382,
      "v": 120
    },
    {
      "midi": 44,
      "hit": false,
      "t": 72736.56000000023,
      "d": 92.78347500000382,
      "v": 120
    },
    {
      "midi": 29,
      "hit": false,
      "t": 72736.56000000023,
      "d": 185.56695000000764,
      "v": 120
    },
    {
      "midi": 63,
      "hit": false,
      "t": 72736.56000000023,
      "d": 278.35042500001146,
      "v": 120
    },
    {
      "midi": 36,
      "hit": false,
      "t": 72736.56000000023,
      "d": 371.1339000000153,
      "v": 96
    },
    {
      "midi": 48,
      "hit": false,
      "t": 72942.74550000024,
      "d": 92.78347500000382,
      "v": 120
    },
    {
      "midi": 44,
      "hit": false,
      "t": 72942.74550000024,
      "d": 92.78347500000382,
      "v": 120
    },
    {
      "midi": 29,
      "hit": false,
      "t": 72942.74550000024,
      "d": 185.56695000000764,
      "v": 120
    },
    {
      "midi": 63,
      "hit": false,
      "t": 73045.83825000025,
      "d": 278.3504249999969,
      "v": 120
    },
    {
      "midi": 29,
      "hit": false,
      "t": 73148.93100000024,
      "d": 185.56695000000764,
      "v": 120
    },
    {
      "midi": 38,
      "hit": false,
      "t": 73148.93100000024,
      "d": 371.1339000000153,
      "v": 96
    },
    {
      "midi": 44,
      "hit": false,
      "t": 73148.93100000024,
      "d": 371.1339000000153,
      "v": 120
    },
    {
      "midi": 48,
      "hit": false,
      "t": 73355.11650000025,
      "d": 92.78347500000382,
      "v": 120
    },
    {
      "midi": 29,
      "hit": false,
      "t": 73355.11650000025,
      "d": 185.56695000000764,
      "v": 120
    },
    {
      "midi": 65,
      "hit": false,
      "t": 73355.11650000025,
      "d": 185.56695000000764,
      "v": 120
    },
    {
      "midi": 47,
      "hit": false,
      "t": 73458.20925000026,
      "d": 92.78347500000382,
      "v": 120
    },
    {
      "midi": 49,
      "hit": false,
      "t": 73561.30200000027,
      "d": 92.78347500000382,
      "v": 120
    },
    {
      "midi": 44,
      "hit": false,
      "t": 73561.30200000027,
      "d": 92.78347500000382,
      "v": 120
    },
    {
      "midi": 45,
      "hit": false,
      "t": 73561.30200000027,
      "d": 92.78347500000382,
      "v": 120
    },
    {
      "midi": 32,
      "hit": false,
      "t": 73561.30200000027,
      "d": 185.56695000000764,
      "v": 120
    },
    {
      "midi": 36,
      "hit": false,
      "t": 73561.30200000027,
      "d": 371.1339000000298,
      "v": 96
    },
    {
      "midi": 65,
      "hit": false,
      "t": 73561.30200000027,
      "d": 556.7008500000375,
      "v": 120
    },
    {
      "midi": 43,
      "hit": false,
      "t": 73664.39475000028,
      "d": 92.78347500000382,
      "v": 120
    },
    {
      "midi": 49,
      "hit": false,
      "t": 73767.4875000003,
      "d": 92.78347500000382,
      "v": 120
    },
    {
      "midi": 44,
      "hit": false,
      "t": 73767.4875000003,
      "d": 92.78347500000382,
      "v": 120
    },
    {
      "midi": 41,
      "hit": false,
      "t": 73767.4875000003,
      "d": 92.78347500000382,
      "v": 120
    },
    {
      "midi": 32,
      "hit": false,
      "t": 73767.4875000003,
      "d": 185.56695000000764,
      "v": 120
    },
    {
      "midi": 40,
      "hit": false,
      "t": 73973.6730000003,
      "d": 92.78347500000382,
      "v": 120
    },
    {
      "midi": 32,
      "hit": false,
      "t": 73973.6730000003,
      "d": 185.56695000000764,
      "v": 120
    },
    {
      "midi": 38,
      "hit": false,
      "t": 73973.6730000003,
      "d": 371.1339000000007,
      "v": 96
    },
    {
      "midi": 49,
      "hit": false,
      "t": 73973.6730000003,
      "d": 371.1339000000007,
      "v": 120
    },
    {
      "midi": 44,
      "hit": false,
      "t": 73973.6730000003,
      "d": 371.1339000000007,
      "v": 120
    },
    {
      "midi": 32,
      "hit": false,
      "t": 74179.85850000031,
      "d": 185.56694999999308,
      "v": 120
    },
    {
      "midi": 61,
      "hit": false,
      "t": 74179.85850000031,
      "d": 185.56694999999308,
      "v": 120
    },
    {
      "midi": 49,
      "hit": false,
      "t": 74386.0440000003,
      "d": 92.78347500000382,
      "v": 120
    },
    {
      "midi": 46,
      "hit": false,
      "t": 74386.0440000003,
      "d": 92.78347500000382,
      "v": 120
    },
    {
      "midi": 30,
      "hit": false,
      "t": 74386.0440000003,
      "d": 185.56695000000764,
      "v": 120
    },
    {
      "midi": 68,
      "hit": false,
      "t": 74386.0440000003,
      "d": 278.35042500001146,
      "v": 120
    },
    {
      "midi": 36,
      "hit": false,
      "t": 74386.0440000003,
      "d": 371.1339000000153,
      "v": 96
    },
    {
      "midi": 49,
      "hit": false,
      "t": 74592.2295000003,
      "d": 92.78347500000382,
      "v": 120
    },
    {
      "midi": 46,
      "hit": false,
      "t": 74592.2295000003,
      "d": 92.78347500000382,
      "v": 120
    },
    {
      "midi": 30,
      "hit": false,
      "t": 74592.2295000003,
      "d": 185.56695000000764,
      "v": 120
    },
    {
      "midi": 68,
      "hit": false,
      "t": 74695.32225000032,
      "d": 278.3504249999969,
      "v": 120
    },
    {
      "midi": 30,
      "hit": false,
      "t": 74798.41500000031,
      "d": 185.56695000000764,
      "v": 120
    },
    {
      "midi": 38,
      "hit": false,
      "t": 74798.41500000031,
      "d": 371.1339000000007,
      "v": 96
    },
    {
      "midi": 49,
      "hit": false,
      "t": 74798.41500000031,
      "d": 371.1339000000007,
      "v": 120
    },
    {
      "midi": 46,
      "hit": false,
      "t": 74798.41500000031,
      "d": 371.1339000000007,
      "v": 120
    },
    {
      "midi": 30,
      "hit": false,
      "t": 75004.60050000032,
      "d": 185.56694999999308,
      "v": 120
    },
    {
      "midi": 70,
      "hit": false,
      "t": 75004.60050000032,
      "d": 185.56694999999308,
      "v": 120
    },
    {
      "midi": 51,
      "hit": false,
      "t": 75210.78600000031,
      "d": 92.78347500000382,
      "v": 120
    },
    {
      "midi": 48,
      "hit": false,
      "t": 75210.78600000031,
      "d": 92.78347500000382,
      "v": 120
    },
    {
      "midi": 32,
      "hit": false,
      "t": 75210.78600000031,
      "d": 185.56695000000764,
      "v": 120
    },
    {
      "midi": 68,
      "hit": false,
      "t": 75210.78600000031,
      "d": 185.56695000000764,
      "v": 120
    },
    {
      "midi": 36,
      "hit": false,
      "t": 75210.78600000031,
      "d": 371.1339000000153,
      "v": 96
    },
    {
      "midi": 51,
      "hit": false,
      "t": 75416.97150000032,
      "d": 92.78347500000382,
      "v": 120
    },
    {
      "midi": 48,
      "hit": false,
      "t": 75416.97150000032,
      "d": 92.78347500000382,
      "v": 120
    },
    {
      "midi": 32,
      "hit": false,
      "t": 75416.97150000032,
      "d": 185.56695000000764,
      "v": 120
    },
    {
      "midi": 63,
      "hit": false,
      "t": 75416.97150000032,
      "d": 185.56695000000764,
      "v": 120
    },
    {
      "midi": 32,
      "hit": false,
      "t": 75623.15700000033,
      "d": 185.56694999999308,
      "v": 120
    },
    {
      "midi": 68,
      "hit": false,
      "t": 75623.15700000033,
      "d": 185.56694999999308,
      "v": 120
    },
    {
      "midi": 38,
      "hit": false,
      "t": 75623.15700000033,
      "d": 371.1339000000007,
      "v": 96
    },
    {
      "midi": 51,
      "hit": false,
      "t": 75623.15700000033,
      "d": 371.1339000000007,
      "v": 120
    },
    {
      "midi": 48,
      "hit": false,
      "t": 75623.15700000033,
      "d": 371.1339000000007,
      "v": 120
    },
    {
      "midi": 66,
      "hit": false,
      "t": 75829.34250000032,
      "d": 92.78347500000382,
      "v": 120
    },
    {
      "midi": 32,
      "hit": false,
      "t": 75829.34250000032,
      "d": 185.56695000000764,
      "v": 120
    },
    {
      "midi": 65,
      "hit": false,
      "t": 75932.43525000033,
      "d": 1340.205750000052,
      "v": 120
    },
    {
      "midi": 48,
      "hit": false,
      "t": 76035.52800000033,
      "d": 92.78347500000382,
      "v": 120
    },
    {
      "midi": 44,
      "hit": false,
      "t": 76035.52800000033,
      "d": 92.78347500000382,
      "v": 120
    },
    {
      "midi": 29,
      "hit": false,
      "t": 76035.52800000033,
      "d": 185.56695000000764,
      "v": 120
    },
    {
      "midi": 36,
      "hit": false,
      "t": 76035.52800000033,
      "d": 371.1339000000153,
      "v": 96
    },
    {
      "midi": 48,
      "hit": false,
      "t": 76241.71350000033,
      "d": 92.78347500000382,
      "v": 120
    },
    {
      "midi": 44,
      "hit": false,
      "t": 76241.71350000033,
      "d": 92.78347500000382,
      "v": 120
    },
    {
      "midi": 29,
      "hit": false,
      "t": 76241.71350000033,
      "d": 185.56695000000764,
      "v": 120
    },
    {
      "midi": 29,
      "hit": false,
      "t": 76447.89900000034,
      "d": 185.56694999999308,
      "v": 120
    },
    {
      "midi": 38,
      "hit": false,
      "t": 76447.89900000034,
      "d": 371.1339000000007,
      "v": 96
    },
    {
      "midi": 44,
      "hit": false,
      "t": 76447.89900000034,
      "d": 371.1339000000007,
      "v": 120
    },
    {
      "midi": 48,
      "hit": false,
      "t": 76654.08450000033,
      "d": 92.78347500000382,
      "v": 120
    },
    {
      "midi": 29,
      "hit": false,
      "t": 76654.08450000033,
      "d": 185.56695000000764,
      "v": 120
    },
    {
      "midi": 47,
      "hit": false,
      "t": 76757.17725000034,
      "d": 92.78347500000382,
      "v": 120
    },
    {
      "midi": 49,
      "hit": false,
      "t": 76860.27000000035,
      "d": 92.78347500000382,
      "v": 120
    },
    {
      "midi": 44,
      "hit": false,
      "t": 76860.27000000035,
      "d": 92.78347500000382,
      "v": 120
    },
    {
      "midi": 45,
      "hit": false,
      "t": 76860.27000000035,
      "d": 92.78347500000382,
      "v": 120
    },
    {
      "midi": 32,
      "hit": false,
      "t": 76860.27000000035,
      "d": 185.56695000000764,
      "v": 120
    },
    {
      "midi": 36,
      "hit": false,
      "t": 76860.27000000035,
      "d": 371.1339000000298,
      "v": 96
    },
    {
      "midi": 43,
      "hit": false,
      "t": 76963.36275000036,
      "d": 92.78347500000382,
      "v": 120
    },
    {
      "midi": 49,
      "hit": false,
      "t": 77066.45550000037,
      "d": 92.78347500000382,
      "v": 120
    },
    {
      "midi": 44,
      "hit": false,
      "t": 77066.45550000037,
      "d": 92.78347500000382,
      "v": 120
    },
    {
      "midi": 41,
      "hit": false,
      "t": 77066.45550000037,
      "d": 185.56695000000764,
      "v": 120
    },
    {
      "midi": 32,
      "hit": false,
      "t": 77066.45550000037,
      "d": 185.56695000000764,
      "v": 120
    },
    {
      "midi": 32,
      "hit": false,
      "t": 77272.64100000038,
      "d": 185.56694999999308,
      "v": 120
    },
    {
      "midi": 38,
      "hit": false,
      "t": 77272.64100000038,
      "d": 371.1339000000007,
      "v": 96
    },
    {
      "midi": 49,
      "hit": false,
      "t": 77272.64100000038,
      "d": 371.1339000000007,
      "v": 120
    },
    {
      "midi": 44,
      "hit": false,
      "t": 77272.64100000038,
      "d": 371.1339000000007,
      "v": 120
    },
    {
      "midi": 40,
      "hit": false,
      "t": 77272.64100000038,
      "d": 371.1339000000007,
      "v": 120
    },
    {
      "midi": 61,
      "hit": false,
      "t": 77478.82650000037,
      "d": 92.78347500000382,
      "v": 120
    },
    {
      "midi": 32,
      "hit": false,
      "t": 77478.82650000037,
      "d": 185.56695000000764,
      "v": 120
    },
    {
      "midi": 63,
      "hit": false,
      "t": 77581.91925000038,
      "d": 92.78347500000382,
      "v": 120
    },
    {
      "midi": 49,
      "hit": false,
      "t": 77685.0120000004,
      "d": 92.78347500000382,
      "v": 120
    },
    {
      "midi": 46,
      "hit": false,
      "t": 77685.0120000004,
      "d": 92.78347500000382,
      "v": 120
    },
    {
      "midi": 30,
      "hit": false,
      "t": 77685.0120000004,
      "d": 185.56695000000764,
      "v": 120
    },
    {
      "midi": 65,
      "hit": false,
      "t": 77685.0120000004,
      "d": 185.56695000000764,
      "v": 120
    },
    {
      "midi": 36,
      "hit": false,
      "t": 77685.0120000004,
      "d": 371.1339000000153,
      "v": 96
    },
    {
      "midi": 49,
      "hit": false,
      "t": 77891.1975000004,
      "d": 92.78347500000382,
      "v": 120
    },
    {
      "midi": 46,
      "hit": false,
      "t": 77891.1975000004,
      "d": 92.78347500000382,
      "v": 120
    },
    {
      "midi": 30,
      "hit": false,
      "t": 77891.1975000004,
      "d": 185.56695000000764,
      "v": 120
    },
    {
      "midi": 61,
      "hit": false,
      "t": 77891.1975000004,
      "d": 185.56695000000764,
      "v": 120
    },
    {
      "midi": 30,
      "hit": false,
      "t": 78097.38300000041,
      "d": 185.56694999999308,
      "v": 120
    },
    {
      "midi": 63,
      "hit": false,
      "t": 78097.38300000041,
      "d": 185.56694999999308,
      "v": 120
    },
    {
      "midi": 38,
      "hit": false,
      "t": 78097.38300000041,
      "d": 371.13389999998617,
      "v": 96
    },
    {
      "midi": 49,
      "hit": false,
      "t": 78097.38300000041,
      "d": 371.13389999998617,
      "v": 120
    },
    {
      "midi": 46,
      "hit": false,
      "t": 78097.38300000041,
      "d": 371.13389999998617,
      "v": 120
    },
    {
      "midi": 30,
      "hit": false,
      "t": 78303.5685000004,
      "d": 185.56694999999308,
      "v": 120
    },
    {
      "midi": 61,
      "hit": false,
      "t": 78303.5685000004,
      "d": 185.56694999999308,
      "v": 120
    },
    {
      "midi": 51,
      "hit": false,
      "t": 78509.7540000004,
      "d": 92.78347500000382,
      "v": 120
    },
    {
      "midi": 48,
      "hit": false,
      "t": 78509.7540000004,
      "d": 92.78347500000382,
      "v": 120
    },
    {
      "midi": 65,
      "hit": false,
      "t": 78509.7540000004,
      "d": 92.78347500000382,
      "v": 120
    },
    {
      "midi": 32,
      "hit": false,
      "t": 78509.7540000004,
      "d": 185.56695000000764,
      "v": 120
    },
    {
      "midi": 36,
      "hit": false,
      "t": 78509.7540000004,
      "d": 371.1339000000298,
      "v": 96
    },
    {
      "midi": 63,
      "hit": false,
      "t": 78612.8467500004,
      "d": 92.78347500000382,
      "v": 120
    },
    {
      "midi": 51,
      "hit": false,
      "t": 78715.93950000042,
      "d": 92.78347500000382,
      "v": 120
    },
    {
      "midi": 48,
      "hit": false,
      "t": 78715.93950000042,
      "d": 92.78347500000382,
      "v": 120
    },
    {
      "midi": 32,
      "hit": false,
      "t": 78715.93950000042,
      "d": 185.56695000000764,
      "v": 120
    },
    {
      "midi": 61,
      "hit": false,
      "t": 78819.03225000043,
      "d": 278.3504249999969,
      "v": 120
    },
    {
      "midi": 32,
      "hit": false,
      "t": 78922.12500000042,
      "d": 185.56695000000764,
      "v": 120
    },
    {
      "midi": 38,
      "hit": false,
      "t": 78922.12500000042,
      "d": 371.1339000000153,
      "v": 96
    },
    {
      "midi": 51,
      "hit": false,
      "t": 78922.12500000042,
      "d": 371.1339000000153,
      "v": 120
    },
    {
      "midi": 48,
      "hit": false,
      "t": 78922.12500000042,
      "d": 371.1339000000153,
      "v": 120
    },
    {
      "midi": 63,
      "hit": false,
      "t": 79128.31050000043,
      "d": 92.78347500000382,
      "v": 120
    },
    {
      "midi": 32,
      "hit": false,
      "t": 79128.31050000043,
      "d": 185.56695000000764,
      "v": 120
    },
    {
      "midi": 48,
      "hit": false,
      "t": 79334.49600000044,
      "d": 92.78347500000382,
      "v": 120
    },
    {
      "midi": 44,
      "hit": false,
      "t": 79334.49600000044,
      "d": 92.78347500000382,
      "v": 120
    },
    {
      "midi": 29,
      "hit": false,
      "t": 79334.49600000044,
      "d": 185.56695000000764,
      "v": 120
    },
    {
      "midi": 63,
      "hit": false,
      "t": 79334.49600000044,
      "d": 278.35042500001146,
      "v": 120
    },
    {
      "midi": 36,
      "hit": false,
      "t": 79334.49600000044,
      "d": 371.1339000000153,
      "v": 96
    },
    {
      "midi": 48,
      "hit": false,
      "t": 79540.68150000044,
      "d": 92.78347500000382,
      "v": 120
    },
    {
      "midi": 44,
      "hit": false,
      "t": 79540.68150000044,
      "d": 92.78347500000382,
      "v": 120
    },
    {
      "midi": 29,
      "hit": false,
      "t": 79540.68150000044,
      "d": 185.56695000000764,
      "v": 120
    },
    {
      "midi": 63,
      "hit": false,
      "t": 79643.77425000045,
      "d": 278.3504249999969,
      "v": 120
    },
    {
      "midi": 29,
      "hit": false,
      "t": 79746.86700000045,
      "d": 185.56695000000764,
      "v": 120
    },
    {
      "midi": 38,
      "hit": false,
      "t": 79746.86700000045,
      "d": 371.1339000000153,
      "v": 96
    },
    {
      "midi": 44,
      "hit": false,
      "t": 79746.86700000045,
      "d": 371.1339000000153,
      "v": 120
    },
    {
      "midi": 48,
      "hit": false,
      "t": 79953.05250000046,
      "d": 92.78347500000382,
      "v": 120
    },
    {
      "midi": 29,
      "hit": false,
      "t": 79953.05250000046,
      "d": 185.56695000000764,
      "v": 120
    },
    {
      "midi": 65,
      "hit": false,
      "t": 79953.05250000046,
      "d": 185.56695000000764,
      "v": 120
    },
    {
      "midi": 47,
      "hit": false,
      "t": 80056.14525000047,
      "d": 92.78347500000382,
      "v": 120
    },
    {
      "midi": 49,
      "hit": false,
      "t": 80159.23800000048,
      "d": 92.78347500000382,
      "v": 120
    },
    {
      "midi": 44,
      "hit": false,
      "t": 80159.23800000048,
      "d": 92.78347500000382,
      "v": 120
    },
    {
      "midi": 45,
      "hit": false,
      "t": 80159.23800000048,
      "d": 92.78347500000382,
      "v": 120
    },
    {
      "midi": 32,
      "hit": false,
      "t": 80159.23800000048,
      "d": 185.56695000000764,
      "v": 120
    },
    {
      "midi": 36,
      "hit": false,
      "t": 80159.23800000048,
      "d": 371.1339000000298,
      "v": 96
    },
    {
      "midi": 61,
      "hit": false,
      "t": 80159.23800000048,
      "d": 556.7008500000375,
      "v": 120
    },
    {
      "midi": 43,
      "hit": false,
      "t": 80262.33075000049,
      "d": 92.78347500000382,
      "v": 120
    },
    {
      "midi": 49,
      "hit": false,
      "t": 80365.4235000005,
      "d": 92.78347500000382,
      "v": 120
    },
    {
      "midi": 44,
      "hit": false,
      "t": 80365.4235000005,
      "d": 92.78347500000382,
      "v": 120
    },
    {
      "midi": 41,
      "hit": false,
      "t": 80365.4235000005,
      "d": 92.78347500000382,
      "v": 120
    },
    {
      "midi": 32,
      "hit": false,
      "t": 80365.4235000005,
      "d": 185.56695000000764,
      "v": 120
    },
    {
      "midi": 40,
      "hit": false,
      "t": 80571.6090000005,
      "d": 92.78347500000382,
      "v": 120
    },
    {
      "midi": 32,
      "hit": false,
      "t": 80571.6090000005,
      "d": 185.56695000000764,
      "v": 120
    },
    {
      "midi": 38,
      "hit": false,
      "t": 80571.6090000005,
      "d": 371.1339000000153,
      "v": 96
    },
    {
      "midi": 49,
      "hit": false,
      "t": 80571.6090000005,
      "d": 371.1339000000153,
      "v": 120
    },
    {
      "midi": 44,
      "hit": false,
      "t": 80571.6090000005,
      "d": 371.1339000000153,
      "v": 120
    },
    {
      "midi": 61,
      "hit": false,
      "t": 80777.79450000051,
      "d": 92.78347500000382,
      "v": 120
    },
    {
      "midi": 32,
      "hit": false,
      "t": 80777.79450000051,
      "d": 185.56695000000764,
      "v": 120
    },
    {
      "midi": 61,
      "hit": false,
      "t": 80880.88725000052,
      "d": 92.78347500000382,
      "v": 120
    },
    {
      "midi": 49,
      "hit": false,
      "t": 80983.98000000053,
      "d": 92.78347500000382,
      "v": 120
    },
    {
      "midi": 46,
      "hit": false,
      "t": 80983.98000000053,
      "d": 92.78347500000382,
      "v": 120
    },
    {
      "midi": 30,
      "hit": false,
      "t": 80983.98000000053,
      "d": 185.56695000000764,
      "v": 120
    },
    {
      "midi": 36,
      "hit": false,
      "t": 80983.98000000053,
      "d": 371.1339000000153,
      "v": 96
    },
    {
      "midi": 65,
      "hit": false,
      "t": 80983.98000000053,
      "d": 371.1339000000153,
      "v": 120
    },
    {
      "midi": 49,
      "hit": false,
      "t": 81190.16550000054,
      "d": 92.78347500000382,
      "v": 120
    },
    {
      "midi": 46,
      "hit": false,
      "t": 81190.16550000054,
      "d": 92.78347500000382,
      "v": 120
    },
    {
      "midi": 30,
      "hit": false,
      "t": 81190.16550000054,
      "d": 185.56695000000764,
      "v": 120
    },
    {
      "midi": 30,
      "hit": false,
      "t": 81396.35100000055,
      "d": 185.56694999999308,
      "v": 120
    },
    {
      "midi": 38,
      "hit": false,
      "t": 81396.35100000055,
      "d": 371.13389999998617,
      "v": 96
    },
    {
      "midi": 49,
      "hit": false,
      "t": 81396.35100000055,
      "d": 371.13389999998617,
      "v": 120
    },
    {
      "midi": 46,
      "hit": false,
      "t": 81396.35100000055,
      "d": 371.13389999998617,
      "v": 120
    },
    {
      "midi": 68,
      "hit": false,
      "t": 81396.35100000055,
      "d": 371.13389999998617,
      "v": 120
    },
    {
      "midi": 30,
      "hit": false,
      "t": 81602.53650000054,
      "d": 185.56694999999308,
      "v": 120
    },
    {
      "midi": 51,
      "hit": false,
      "t": 81808.72200000053,
      "d": 92.78347500000382,
      "v": 120
    },
    {
      "midi": 48,
      "hit": false,
      "t": 81808.72200000053,
      "d": 92.78347500000382,
      "v": 120
    },
    {
      "midi": 30,
      "hit": false,
      "t": 81808.72200000053,
      "d": 185.56695000000764,
      "v": 120
    },
    {
      "midi": 36,
      "hit": false,
      "t": 81808.72200000053,
      "d": 371.1339000000153,
      "v": 96
    },
    {
      "midi": 68,
      "hit": false,
      "t": 81808.72200000053,
      "d": 371.1339000000153,
      "v": 120
    },
    {
      "midi": 70,
      "hit": false,
      "t": 81808.72200000053,
      "d": 371.1339000000153,
      "v": 120
    },
    {
      "midi": 51,
      "hit": false,
      "t": 82014.90750000054,
      "d": 92.78347500000382,
      "v": 120
    },
    {
      "midi": 48,
      "hit": false,
      "t": 82014.90750000054,
      "d": 92.78347500000382,
      "v": 120
    },
    {
      "midi": 30,
      "hit": false,
      "t": 82014.90750000054,
      "d": 185.56695000000764,
      "v": 120
    },
    {
      "midi": 30,
      "hit": false,
      "t": 82221.09300000055,
      "d": 185.56694999999308,
      "v": 120
    },
    {
      "midi": 38,
      "hit": false,
      "t": 82221.09300000055,
      "d": 371.13389999998617,
      "v": 96
    },
    {
      "midi": 51,
      "hit": false,
      "t": 82221.09300000055,
      "d": 371.13389999998617,
      "v": 120
    },
    {
      "midi": 48,
      "hit": false,
      "t": 82221.09300000055,
      "d": 371.13389999998617,
      "v": 120
    },
    {
      "midi": 72,
      "hit": false,
      "t": 82221.09300000055,
      "d": 371.13389999998617,
      "v": 120
    },
    {
      "midi": 30,
      "hit": false,
      "t": 82427.27850000054,
      "d": 185.56694999999308,
      "v": 120
    },
    {
      "midi": 48,
      "hit": false,
      "t": 82633.46400000053,
      "d": 92.78347500000382,
      "v": 120
    },
    {
      "midi": 44,
      "hit": false,
      "t": 82633.46400000053,
      "d": 92.78347500000382,
      "v": 120
    },
    {
      "midi": 30,
      "hit": false,
      "t": 82633.46400000053,
      "d": 185.56695000000764,
      "v": 120
    },
    {
      "midi": 36,
      "hit": false,
      "t": 82633.46400000053,
      "d": 371.1339000000153,
      "v": 96
    },
    {
      "midi": 72,
      "hit": false,
      "t": 82633.46400000053,
      "d": 556.7008500000084,
      "v": 120
    },
    {
      "midi": 48,
      "hit": false,
      "t": 82839.64950000054,
      "d": 92.78347500000382,
      "v": 120
    },
    {
      "midi": 44,
      "hit": false,
      "t": 82839.64950000054,
      "d": 92.78347500000382,
      "v": 120
    },
    {
      "midi": 30,
      "hit": false,
      "t": 82839.64950000054,
      "d": 185.56695000000764,
      "v": 120
    },
    {
      "midi": 30,
      "hit": false,
      "t": 83045.83500000054,
      "d": 185.56694999999308,
      "v": 120
    },
    {
      "midi": 38,
      "hit": false,
      "t": 83045.83500000054,
      "d": 371.13389999998617,
      "v": 96
    },
    {
      "midi": 48,
      "hit": false,
      "t": 83045.83500000054,
      "d": 371.13389999998617,
      "v": 120
    },
    {
      "midi": 44,
      "hit": false,
      "t": 83045.83500000054,
      "d": 371.13389999998617,
      "v": 120
    },
    {
      "midi": 30,
      "hit": false,
      "t": 83252.02050000054,
      "d": 185.56694999999308,
      "v": 120
    },
    {
      "midi": 70,
      "hit": false,
      "t": 83252.02050000054,
      "d": 185.56694999999308,
      "v": 120
    },
    {
      "midi": 49,
      "hit": false,
      "t": 83458.20600000053,
      "d": 92.78347500000382,
      "v": 120
    },
    {
      "midi": 44,
      "hit": false,
      "t": 83458.20600000053,
      "d": 92.78347500000382,
      "v": 120
    },
    {
      "midi": 30,
      "hit": false,
      "t": 83458.20600000053,
      "d": 185.56695000000764,
      "v": 120
    },
    {
      "midi": 36,
      "hit": false,
      "t": 83458.20600000053,
      "d": 371.1339000000153,
      "v": 96
    },
    {
      "midi": 70,
      "hit": false,
      "t": 83458.20600000053,
      "d": 2226.803400000106,
      "v": 120
    },
    {
      "midi": 49,
      "hit": false,
      "t": 83664.39150000054,
      "d": 92.78347500000382,
      "v": 120
    },
    {
      "midi": 44,
      "hit": false,
      "t": 83664.39150000054,
      "d": 92.78347500000382,
      "v": 120
    },
    {
      "midi": 30,
      "hit": false,
      "t": 83664.39150000054,
      "d": 185.56695000000764,
      "v": 120
    },
    {
      "midi": 30,
      "hit": false,
      "t": 83870.57700000054,
      "d": 185.56694999999308,
      "v": 120
    },
    {
      "midi": 38,
      "hit": false,
      "t": 83870.57700000054,
      "d": 371.13389999998617,
      "v": 96
    },
    {
      "midi": 49,
      "hit": false,
      "t": 83870.57700000054,
      "d": 371.13389999998617,
      "v": 120
    },
    {
      "midi": 44,
      "hit": false,
      "t": 83870.57700000054,
      "d": 371.13389999998617,
      "v": 120
    },
    {
      "midi": 30,
      "hit": false,
      "t": 84076.76250000054,
      "d": 185.56694999999308,
      "v": 120
    },
    {
      "midi": 47,
      "hit": false,
      "t": 84282.94800000053,
      "d": 92.78347500000382,
      "v": 96
    },
    {
      "midi": 37,
      "hit": false,
      "t": 84282.94800000053,
      "d": 185.56695000000764,
      "v": 120
    },
    {
      "midi": 45,
      "hit": false,
      "t": 84386.04075000054,
      "d": 92.78347500000382,
      "v": 96
    },
    {
      "midi": 43,
      "hit": false,
      "t": 84489.13350000055,
      "d": 92.78347500000382,
      "v": 96
    },
    {
      "midi": 37,
      "hit": false,
      "t": 84489.13350000055,
      "d": 185.56695000000764,
      "v": 120
    },
    {
      "midi": 47,
      "hit": false,
      "t": 84695.31900000056,
      "d": 92.78347500000382,
      "v": 96
    },
    {
      "midi": 37,
      "hit": false,
      "t": 84695.31900000056,
      "d": 185.56695000000764,
      "v": 120
    },
    {
      "midi": 45,
      "hit": false,
      "t": 84798.41175000057,
      "d": 92.78347500000382,
      "v": 96
    },
    {
      "midi": 43,
      "hit": false,
      "t": 84901.50450000058,
      "d": 92.78347500000382,
      "v": 96
    },
    {
      "midi": 35,
      "hit": false,
      "t": 84901.50450000058,
      "d": 92.78347500000382,
      "v": 120
    },
    {
      "midi": 37,
      "hit": false,
      "t": 85004.59725000059,
      "d": 185.56694999999308,
      "v": 120
    },
    {
      "midi": 40,
      "hit": false,
      "t": 85107.69000000058,
      "d": 92.78347500000382,
      "v": 76
    },
    {
      "midi": 40,
      "hit": false,
      "t": 85210.7827500006,
      "d": 92.78347500000382,
      "v": 76
    },
    {
      "midi": 37,
      "hit": false,
      "t": 85210.7827500006,
      "d": 92.78347500000382,
      "v": 120
    },
    {
      "midi": 40,
      "hit": false,
      "t": 85313.8755000006,
      "d": 92.78347500000382,
      "v": 76
    },
    {
      "midi": 35,
      "hit": false,
      "t": 85313.8755000006,
      "d": 185.56695000000764,
      "v": 120
    },
    {
      "midi": 40,
      "hit": false,
      "t": 85416.96825000062,
      "d": 92.78347500000382,
      "v": 76
    },
    {
      "midi": 40,
      "hit": false,
      "t": 85520.06100000063,
      "d": 92.78347500000382,
      "v": 76
    },
    {
      "midi": 37,
      "hit": false,
      "t": 85520.06100000063,
      "d": 185.56695000000764,
      "v": 120
    },
    {
      "midi": 40,
      "hit": false,
      "t": 85623.15375000064,
      "d": 92.78347500000382,
      "v": 76
    },
    {
      "midi": 40,
      "hit": false,
      "t": 85726.24650000065,
      "d": 92.78347500000382,
      "v": 76
    },
    {
      "midi": 32,
      "hit": false,
      "t": 85726.24650000065,
      "d": 185.56695000000764,
      "v": 120
    },
    {
      "midi": 40,
      "hit": false,
      "t": 85829.33925000066,
      "d": 92.78347500000382,
      "v": 76
    },
    {
      "midi": 68,
      "hit": false,
      "t": 85932.43200000067,
      "d": 185.56694999999308,
      "v": 120
    },
    {
      "midi": 80,
      "hit": false,
      "t": 85932.43200000067,
      "d": 185.56694999999308,
      "v": 120
    },
    {
      "midi": 56,
      "hit": false,
      "t": 85932.43200000067,
      "d": 2969.071199999904,
      "v": 120
    },
    {
      "midi": 52,
      "hit": false,
      "t": 85932.43200000067,
      "d": 2969.071199999904,
      "v": 120
    },
    {
      "midi": 35,
      "hit": false,
      "t": 86138.61750000066,
      "d": 164.94839999999385,
      "v": 76
    },
    {
      "midi": 71,
      "hit": false,
      "t": 86344.80300000065,
      "d": 185.56694999999308,
      "v": 120
    },
    {
      "midi": 83,
      "hit": false,
      "t": 86344.80300000065,
      "d": 185.56694999999308,
      "v": 120
    },
    {
      "midi": 38,
      "hit": false,
      "t": 86344.80300000065,
      "d": 371.13389999998617,
      "v": 96
    },
    {
      "midi": 35,
      "hit": false,
      "t": 86757.17400000064,
      "d": 164.94839999999385,
      "v": 96
    },
    {
      "midi": 73,
      "hit": false,
      "t": 86757.17400000064,
      "d": 371.13389999998617,
      "v": 120
    },
    {
      "midi": 85,
      "hit": false,
      "t": 86757.17400000064,
      "d": 371.13389999998617,
      "v": 120
    },
    {
      "midi": 35,
      "hit": false,
      "t": 86963.35950000063,
      "d": 164.94839999999385,
      "v": 76
    },
    {
      "midi": 38,
      "hit": false,
      "t": 87169.54500000062,
      "d": 371.13389999998617,
      "v": 96
    },
    {
      "midi": 35,
      "hit": false,
      "t": 87581.91600000061,
      "d": 164.94839999999385,
      "v": 96
    },
    {
      "midi": 68,
      "hit": false,
      "t": 87581.91600000061,
      "d": 185.56694999999308,
      "v": 120
    },
    {
      "midi": 80,
      "hit": false,
      "t": 87581.91600000061,
      "d": 185.56694999999308,
      "v": 120
    },
    {
      "midi": 35,
      "hit": false,
      "t": 87788.1015000006,
      "d": 164.94839999999385,
      "v": 76
    },
    {
      "midi": 71,
      "hit": false,
      "t": 87891.1942500006,
      "d": 185.56694999999308,
      "v": 120
    },
    {
      "midi": 83,
      "hit": false,
      "t": 87891.1942500006,
      "d": 185.56694999999308,
      "v": 120
    },
    {
      "midi": 38,
      "hit": false,
      "t": 87994.2870000006,
      "d": 371.13389999998617,
      "v": 96
    },
    {
      "midi": 73,
      "hit": false,
      "t": 88200.47250000059,
      "d": 185.56694999999308,
      "v": 120
    },
    {
      "midi": 85,
      "hit": false,
      "t": 88200.47250000059,
      "d": 185.56694999999308,
      "v": 120
    },
    {
      "midi": 35,
      "hit": false,
      "t": 88406.65800000058,
      "d": 164.94839999999385,
      "v": 96
    },
    {
      "midi": 76,
      "hit": false,
      "t": 88612.84350000057,
      "d": 92.78347500000382,
      "v": 120
    },
    {
      "midi": 35,
      "hit": false,
      "t": 88612.84350000057,
      "d": 164.9484000000084,
      "v": 76
    },
    {
      "midi": 76,
      "hit": false,
      "t": 88819.02900000058,
      "d": 92.78347500000382,
      "v": 120
    },
    {
      "midi": 38,
      "hit": false,
      "t": 88819.02900000058,
      "d": 371.1339000000153,
      "v": 96
    },
    {
      "midi": 76,
      "hit": false,
      "t": 88922.12175000059,
      "d": 92.78347500000382,
      "v": 120
    },
    {
      "midi": 35,
      "hit": false,
      "t": 89231.40000000059,
      "d": 164.94839999999385,
      "v": 96
    },
    {
      "midi": 68,
      "hit": false,
      "t": 89231.40000000059,
      "d": 371.13389999998617,
      "v": 120
    },
    {
      "midi": 80,
      "hit": false,
      "t": 89231.40000000059,
      "d": 371.13389999998617,
      "v": 120
    },
    {
      "midi": 57,
      "hit": false,
      "t": 89231.40000000059,
      "d": 1484.5355999999447,
      "v": 120
    },
    {
      "midi": 52,
      "hit": false,
      "t": 89231.40000000059,
      "d": 1484.5355999999447,
      "v": 120
    },
    {
      "midi": 35,
      "hit": false,
      "t": 89437.58550000058,
      "d": 164.94839999999385,
      "v": 76
    },
    {
      "midi": 38,
      "hit": false,
      "t": 89643.77100000058,
      "d": 371.13389999998617,
      "v": 96
    },
    {
      "midi": 71,
      "hit": false,
      "t": 89643.77100000058,
      "d": 371.13389999998617,
      "v": 120
    },
    {
      "midi": 83,
      "hit": false,
      "t": 89643.77100000058,
      "d": 371.13389999998617,
      "v": 120
    },
    {
      "midi": 35,
      "hit": false,
      "t": 90056.14200000056,
      "d": 164.94839999999385,
      "v": 96
    },
    {
      "midi": 73,
      "hit": false,
      "t": 90056.14200000056,
      "d": 371.13389999998617,
      "v": 120
    },
    {
      "midi": 85,
      "hit": false,
      "t": 90056.14200000056,
      "d": 371.13389999998617,
      "v": 120
    },
    {
      "midi": 35,
      "hit": false,
      "t": 90262.32750000055,
      "d": 164.94839999999385,
      "v": 76
    },
    {
      "midi": 38,
      "hit": false,
      "t": 90468.51300000054,
      "d": 371.13389999998617,
      "v": 96
    },
    {
      "midi": 80,
      "hit": false,
      "t": 90468.51300000054,
      "d": 371.13389999998617,
      "v": 120
    },
    {
      "midi": 92,
      "hit": false,
      "t": 90468.51300000054,
      "d": 371.13389999998617,
      "v": 120
    },
    {
      "midi": 35,
      "hit": false,
      "t": 90674.69850000054,
      "d": 371.1339000000007,
      "v": 76
    },
    {
      "midi": 47,
      "hit": false,
      "t": 90880.88400000053,
      "d": 92.78347500000382,
      "v": 120
    },
    {
      "midi": 78,
      "hit": false,
      "t": 90880.88400000053,
      "d": 185.56695000000764,
      "v": 120
    },
    {
      "midi": 90,
      "hit": false,
      "t": 90880.88400000053,
      "d": 185.56695000000764,
      "v": 120
    },
    {
      "midi": 54,
      "hit": false,
      "t": 90880.88400000053,
      "d": 742.2678000000742,
      "v": 120
    },
    {
      "midi": 49,
      "hit": false,
      "t": 90880.88400000053,
      "d": 742.2678000000742,
      "v": 120
    },
    {
      "midi": 47,
      "hit": false,
      "t": 90983.97675000054,
      "d": 92.78347500000382,
      "v": 120
    },
    {
      "midi": 45,
      "hit": false,
      "t": 91087.06950000055,
      "d": 92.78347500000382,
      "v": 120
    },
    {
      "midi": 45,
      "hit": false,
      "t": 91190.16225000056,
      "d": 92.78347500000382,
      "v": 120
    },
    {
      "midi": 78,
      "hit": false,
      "t": 91190.16225000056,
      "d": 185.56695000000764,
      "v": 120
    },
    {
      "midi": 90,
      "hit": false,
      "t": 91190.16225000056,
      "d": 185.56695000000764,
      "v": 120
    },
    {
      "midi": 43,
      "hit": false,
      "t": 91293.25500000057,
      "d": 92.78347500000382,
      "v": 120
    },
    {
      "midi": 43,
      "hit": false,
      "t": 91396.34775000058,
      "d": 92.78347500000382,
      "v": 120
    },
    {
      "midi": 41,
      "hit": false,
      "t": 91499.4405000006,
      "d": 92.78347500000382,
      "v": 120
    },
    {
      "midi": 76,
      "hit": false,
      "t": 91499.4405000006,
      "d": 185.56695000000764,
      "v": 120
    },
    {
      "midi": 88,
      "hit": false,
      "t": 91499.4405000006,
      "d": 185.56695000000764,
      "v": 120
    },
    {
      "midi": 41,
      "hit": false,
      "t": 91602.5332500006,
      "d": 92.78347500000382,
      "v": 120
    },
    {
      "midi": 40,
      "hit": false,
      "t": 91705.62600000062,
      "d": 92.78347500000382,
      "v": 96
    },
    {
      "midi": 48,
      "hit": false,
      "t": 91705.62600000062,
      "d": 92.78347500000382,
      "v": 120
    },
    {
      "midi": 78,
      "hit": false,
      "t": 91705.62600000062,
      "d": 371.1339000000298,
      "v": 120
    },
    {
      "midi": 56,
      "hit": false,
      "t": 91705.62600000062,
      "d": 742.2678000000742,
      "v": 120
    },
    {
      "midi": 51,
      "hit": false,
      "t": 91705.62600000062,
      "d": 742.2678000000742,
      "v": 120
    },
    {
      "midi": 40,
      "hit": false,
      "t": 91808.71875000063,
      "d": 92.78347500000382,
      "v": 96
    },
    {
      "midi": 48,
      "hit": false,
      "t": 91808.71875000063,
      "d": 92.78347500000382,
      "v": 120
    },
    {
      "midi": 40,
      "hit": false,
      "t": 91911.81150000064,
      "d": 92.78347500000382,
      "v": 96
    },
    {
      "midi": 47,
      "hit": false,
      "t": 91911.81150000064,
      "d": 92.78347500000382,
      "v": 120
    },
    {
      "midi": 40,
      "hit": false,
      "t": 92014.90425000065,
      "d": 92.78347500000382,
      "v": 96
    },
    {
      "midi": 47,
      "hit": false,
      "t": 92014.90425000065,
      "d": 92.78347500000382,
      "v": 120
    },
    {
      "midi": 40,
      "hit": false,
      "t": 92117.99700000066,
      "d": 92.78347500000382,
      "v": 120
    },
    {
      "midi": 45,
      "hit": false,
      "t": 92117.99700000066,
      "d": 92.78347500000382,
      "v": 120
    },
    {
      "midi": 40,
      "hit": false,
      "t": 92221.08975000067,
      "d": 92.78347500000382,
      "v": 120
    },
    {
      "midi": 45,
      "hit": false,
      "t": 92221.08975000067,
      "d": 92.78347500000382,
      "v": 120
    },
    {
      "midi": 40,
      "hit": false,
      "t": 92324.18250000068,
      "d": 92.78347500000382,
      "v": 120
    },
    {
      "midi": 43,
      "hit": false,
      "t": 92324.18250000068,
      "d": 92.78347500000382,
      "v": 120
    },
    {
      "midi": 40,
      "hit": false,
      "t": 92427.27525000069,
      "d": 92.78347500000382,
      "v": 120
    },
    {
      "midi": 43,
      "hit": false,
      "t": 92427.27525000069,
      "d": 92.78347500000382,
      "v": 120
    },
    {
      "midi": 49,
      "hit": false,
      "t": 92530.3680000007,
      "d": 1484.535600000003,
      "v": 120
    },
    {
      "midi": 37,
      "hit": false,
      "t": 92530.3680000007,
      "d": 3298.968000000008,
      "v": 120
    }
  ]
}