{
  "jsonPath": "Rock/Neon Pop Punk/Breathe/does-she-love-that-man.json",
  "path": "Rock\\Neon Pop Punk\\Breathe\\Does She Love That Man.mid",
  "name": "Does She Love That Man",
  "difficulty": "Intermediate",
  "bpm": 118.0001337334849,
  "notes": [
    {
      "midi": 64,
      "hit": false,
      "t": 26440.648,
      "d": 1488.3457708333335,
      "v": 85
    },
    {
      "midi": 62,
      "hit": false,
      "t": 27960.773395833334,
      "d": 527.0121145833327,
      "v": 87
    },
    {
      "midi": 65,
      "hit": false,
      "t": 28479.840604166668,
      "d": 1522.7736979166657,
      "v": 75
    },
    {
      "midi": 64,
      "hit": false,
      "t": 30002.614302083333,
      "d": 474.04607291666616,
      "v": 74
    },
    {
      "midi": 62,
      "hit": false,
      "t": 30511.08830208333,
      "d": 230.40228125000067,
      "v": 85
    },
    {
      "midi": 64,
      "hit": false,
      "t": 30752.083791666664,
      "d": 2425.8447083333303,
      "v": 82
    },
    {
      "midi": 64,
      "hit": false,
      "t": 34581.52860416666,
      "d": 1483.049166666664,
      "v": 85
    },
    {
      "midi": 62,
      "hit": false,
      "t": 36093.709093749996,
      "d": 529.6604166666657,
      "v": 87
    },
    {
      "midi": 65,
      "hit": false,
      "t": 36612.77630208333,
      "d": 1528.0703020833316,
      "v": 75
    },
    {
      "midi": 64,
      "hit": false,
      "t": 38135.549999999996,
      "d": 474.04607291666616,
      "v": 74
    },
    {
      "midi": 62,
      "hit": false,
      "t": 38646.67230208333,
      "d": 227.75397916666407,
      "v": 85
    },
    {
      "midi": 64,
      "hit": false,
      "t": 38890.31609374999,
      "d": 2423.1964062499974,
      "v": 82
    },
    {
      "midi": 62,
      "hit": false,
      "t": 42717.11260416666,
      "d": 2431.1413124999963,
      "v": 75
    },
    {
      "midi": 67,
      "hit": false,
      "t": 46271.13399999999,
      "d": 487.287583333331,
      "v": 67
    },
    {
      "midi": 60,
      "hit": false,
      "t": 46784.90460416666,
      "d": 2023.3027916666688,
      "v": 74
    },
    {
      "midi": 65,
      "hit": false,
      "t": 48808.20739583333,
      "d": 1822.0318333333344,
      "v": 84
    },
    {
      "midi": 64,
      "hit": false,
      "t": 50855.34490624999,
      "d": 2028.5993958333347,
      "v": 85
    },
    {
      "midi": 64,
      "hit": false,
      "t": 58985.63230208333,
      "d": 1483.049166666664,
      "v": 85
    },
    {
      "midi": 62,
      "hit": false,
      "t": 60503.10939583333,
      "d": 529.6604166666657,
      "v": 87
    },
    {
      "midi": 65,
      "hit": false,
      "t": 61022.17660416666,
      "d": 1525.4219999999987,
      "v": 75
    },
    {
      "midi": 64,
      "hit": false,
      "t": 62542.301999999996,
      "d": 476.6943749999991,
      "v": 74
    },
    {
      "midi": 62,
      "hit": false,
      "t": 63050.776,
      "d": 233.05058333333,
      "v": 85
    },
    {
      "midi": 64,
      "hit": false,
      "t": 63297.06809374999,
      "d": 2423.1964062499974,
      "v": 82
    },
    {
      "midi": 64,
      "hit": false,
      "t": 67126.51290624999,
      "d": 1480.4008645833383,
      "v": 85
    },
    {
      "midi": 62,
      "hit": false,
      "t": 68638.69339583332,
      "d": 529.6604166666657,
      "v": 87
    },
    {
      "midi": 65,
      "hit": false,
      "t": 69157.76060416666,
      "d": 1525.422000000006,
      "v": 75
    },
    {
      "midi": 64,
      "hit": false,
      "t": 70680.53430208332,
      "d": 471.3977708333405,
      "v": 74
    },
    {
      "midi": 62,
      "hit": false,
      "t": 71189.00830208333,
      "d": 230.4022812500043,
      "v": 85
    },
    {
      "midi": 64,
      "hit": false,
      "t": 71432.65209375,
      "d": 2423.1964062500047,
      "v": 82
    },
    {
      "midi": 62,
      "hit": false,
      "t": 75262.09690625001,
      "d": 2431.1413124999963,
      "v": 75
    },
    {
      "midi": 67,
      "hit": false,
      "t": 78810.82169791668,
      "d": 489.93588541666395,
      "v": 67
    },
    {
      "midi": 60,
      "hit": false,
      "t": 79327.24060416667,
      "d": 2023.3027916666615,
      "v": 74
    },
    {
      "midi": 65,
      "hit": false,
      "t": 81350.54339583333,
      "d": 1822.031833333327,
      "v": 84
    },
    {
      "midi": 64,
      "hit": false,
      "t": 83395.03260416666,
      "d": 2028.5993958333274,
      "v": 85
    },
    {
      "midi": 60,
      "hit": false,
      "t": 91771.61209374998,
      "d": 288.66492708332953,
      "v": 78
    },
    {
      "midi": 65,
      "hit": false,
      "t": 92025.84909374997,
      "d": 275.423416666672,
      "v": 73
    },
    {
      "midi": 67,
      "hit": false,
      "t": 92282.73439583331,
      "d": 262.1819062499999,
      "v": 76
    },
    {
      "midi": 70,
      "hit": false,
      "t": 92534.32309374998,
      "d": 246.2920937500021,
      "v": 93
    },
    {
      "midi": 69,
      "hit": false,
      "t": 92791.20839583331,
      "d": 781.2491145833337,
      "v": 87
    },
    {
      "midi": 60,
      "hit": false,
      "t": 95849.99730208331,
      "d": 270.12681250000605,
      "v": 71
    },
    {
      "midi": 65,
      "hit": false,
      "t": 96101.58599999998,
      "d": 291.31322916666977,
      "v": 72
    },
    {
      "midi": 67,
      "hit": false,
      "t": 96355.82299999999,
      "d": 291.31322916666977,
      "v": 68
    },
    {
      "midi": 70,
      "hit": false,
      "t": 96612.70830208332,
      "d": 254.23700000000827,
      "v": 80
    },
    {
      "midi": 69,
      "hit": false,
      "t": 96864.29699999999,
      "d": 1652.5405000000028,
      "v": 68
    },
    {
      "midi": 55,
      "hit": false,
      "t": 99907.19609375,
      "d": 264.8302083333401,
      "v": 74
    },
    {
      "midi": 60,
      "hit": false,
      "t": 100164.08139583333,
      "d": 291.31322916666977,
      "v": 72
    },
    {
      "midi": 62,
      "hit": false,
      "t": 100423.615,
      "d": 264.8302083333256,
      "v": 65
    },
    {
      "midi": 65,
      "hit": false,
      "t": 100677.852,
      "d": 301.90643750000163,
      "v": 70
    },
    {
      "midi": 64,
      "hit": false,
      "t": 100924.14409375,
      "d": 1874.997875000001,
      "v": 57
    },
    {
      "midi": 55,
      "hit": false,
      "t": 103977.63639583334,
      "d": 256.88530208333395,
      "v": 73
    },
    {
      "midi": 60,
      "hit": false,
      "t": 104234.52169791667,
      "d": 270.1268124999915,
      "v": 79
    },
    {
      "midi": 62,
      "hit": false,
      "t": 104488.75869791667,
      "d": 270.12681250000605,
      "v": 43
    },
    {
      "midi": 65,
      "hit": false,
      "t": 104745.644,
      "d": 243.6437916666764,
      "v": 71
    },
    {
      "midi": 64,
      "hit": false,
      "t": 104994.58439583334,
      "d": 1583.6846458333312,
      "v": 56
    },
    {
      "midi": 60,
      "hit": false,
      "t": 108045.42839583334,
      "d": 283.3683229166636,
      "v": 78
    },
    {
      "midi": 65,
      "hit": false,
      "t": 108299.66539583333,
      "d": 272.7751145833463,
      "v": 73
    },
    {
      "midi": 67,
      "hit": false,
      "t": 108553.90239583334,
      "d": 262.18190625001444,
      "v": 76
    },
    {
      "midi": 70,
      "hit": false,
      "t": 108808.13939583335,
      "d": 243.6437916666764,
      "v": 93
    },
    {
      "midi": 69,
      "hit": false,
      "t": 109065.0246979167,
      "d": 778.6008124999935,
      "v": 87
    },
    {
      "midi": 60,
      "hit": false,
      "t": 112121.16530208336,
      "d": 272.77511458333174,
      "v": 71
    },
    {
      "midi": 65,
      "hit": false,
      "t": 112372.75400000003,
      "d": 288.66492708332953,
      "v": 72
    },
    {
      "midi": 67,
      "hit": false,
      "t": 112626.99100000002,
      "d": 291.31322916666977,
      "v": 68
    },
    {
      "midi": 70,
      "hit": false,
      "t": 112881.22800000003,
      "d": 259.53360416665964,
      "v": 80
    },
    {
      "midi": 69,
      "hit": false,
      "t": 113135.46500000003,
      "d": 1652.5405000000028,
      "v": 68
    },
    {
      "midi": 55,
      "hit": false,
      "t": 116178.36409375003,
      "d": 262.1819062499999,
      "v": 74
    },
    {
      "midi": 60,
      "hit": false,
      "t": 116435.24939583337,
      "d": 288.66492708332953,
      "v": 72
    },
    {
      "midi": 62,
      "hit": false,
      "t": 116694.78300000002,
      "d": 259.5336041666742,
      "v": 65
    },
    {
      "midi": 65,
      "hit": false,
      "t": 116951.66830208336,
      "d": 299.25813541667594,
      "v": 70
    },
    {
      "midi": 64,
      "hit": false,
      "t": 117197.96039583336,
      "d": 1874.997875000001,
      "v": 57
    },
    {
      "midi": 58,
      "hit": false,
      "t": 120005.1606041667,
      "d": 1859.1080625000031,
      "v": 70
    },
    {
      "midi": 62,
      "hit": false,
      "t": 120010.45720833336,
      "d": 1845.866552083331,
      "v": 70
    },
    {
      "midi": 53,
      "hit": false,
      "t": 120010.45720833336,
      "d": 1853.8114583333372,
      "v": 70
    },
    {
      "midi": 43,
      "hit": false,
      "t": 120010.45720833336,
      "d": 1861.7563645833434,
      "v": 70
    },
    {
      "midi": 60,
      "hit": false,
      "t": 122028.46339583337,
      "d": 1912.074104166677,
      "v": 71
    },
    {
      "midi": 57,
      "hit": false,
      "t": 122028.46339583337,
      "d": 1914.7224062500172,
      "v": 71
    },
    {
      "midi": 41,
      "hit": false,
      "t": 122028.46339583337,
      "d": 1920.0190104166832,
      "v": 71
    },
    {
      "midi": 53,
      "hit": false,
      "t": 122047.00151041671,
      "d": 1906.777500000011,
      "v": 71
    },
    {
      "midi": 52,
      "hit": false,
      "t": 124046.46958333338,
      "d": 3903.597270833343,
      "v": 72
    },
    {
      "midi": 48,
      "hit": false,
      "t": 124046.46958333338,
      "d": 3911.542177083349,
      "v": 72
    },
    {
      "midi": 60,
      "hit": false,
      "t": 124054.41448958339,
      "d": 3882.4108541666646,
      "v": 72
    },
    {
      "midi": 55,
      "hit": false,
      "t": 124054.41448958339,
      "d": 3895.6523645833367,
      "v": 72
    },
    {
      "midi": 58,
      "hit": false,
      "t": 128140.74460416673,
      "d": 1859.1080625000031,
      "v": 70
    },
    {
      "midi": 62,
      "hit": false,
      "t": 128148.68951041673,
      "d": 1845.866552083331,
      "v": 70
    },
    {
      "midi": 53,
      "hit": false,
      "t": 128148.68951041673,
      "d": 1851.163156249997,
      "v": 70
    },
    {
      "midi": 43,
      "hit": false,
      "t": 128148.68951041673,
      "d": 1859.1080625000031,
      "v": 70
    },
    {
      "midi": 60,
      "hit": false,
      "t": 130164.0473958334,
      "d": 1906.777500000011,
      "v": 71
    },
    {
      "midi": 57,
      "hit": false,
      "t": 130164.0473958334,
      "d": 1914.7224062500027,
      "v": 71
    },
    {
      "midi": 41,
      "hit": false,
      "t": 130164.0473958334,
      "d": 1920.0190104166832,
      "v": 71
    },
    {
      "midi": 53,
      "hit": false,
      "t": 130179.9372083334,
      "d": 1912.074104166677,
      "v": 71
    },
    {
      "midi": 52,
      "hit": false,
      "t": 132182.0535833334,
      "d": 3900.948968749988,
      "v": 72
    },
    {
      "midi": 48,
      "hit": false,
      "t": 132182.0535833334,
      "d": 3911.54217708332,
      "v": 72
    },
    {
      "midi": 60,
      "hit": false,
      "t": 132184.70188541675,
      "d": 3890.3557604166563,
      "v": 72
    },
    {
      "midi": 55,
      "hit": false,
      "t": 132184.70188541675,
      "d": 3898.300666666648,
      "v": 72
    },
    {
      "midi": 58,
      "hit": false,
      "t": 136276.32860416675,
      "d": 1859.1080625000177,
      "v": 70
    },
    {
      "midi": 62,
      "hit": false,
      "t": 136284.27351041674,
      "d": 1845.8665520833456,
      "v": 70
    },
    {
      "midi": 53,
      "hit": false,
      "t": 136284.27351041674,
      "d": 1851.163156250026,
      "v": 70
    },
    {
      "midi": 43,
      "hit": false,
      "t": 136284.27351041674,
      "d": 1859.1080625000177,
      "v": 70
    },
    {
      "midi": 60,
      "hit": false,
      "t": 138296.98309375008,
      "d": 1914.7224062499881,
      "v": 71
    },
    {
      "midi": 57,
      "hit": false,
      "t": 138296.98309375008,
      "d": 1917.3707083333284,
      "v": 71
    },
    {
      "midi": 41,
      "hit": false,
      "t": 138296.98309375008,
      "d": 1925.31561458332,
      "v": 71
    },
    {
      "midi": 53,
      "hit": false,
      "t": 138315.5212083334,
      "d": 1912.074104166677,
      "v": 71
    },
    {
      "midi": 52,
      "hit": false,
      "t": 140317.63758333342,
      "d": 3900.948968749988,
      "v": 72
    },
    {
      "midi": 48,
      "hit": false,
      "t": 140317.63758333342,
      "d": 3911.54217708332,
      "v": 72
    },
    {
      "midi": 60,
      "hit": false,
      "t": 140325.5824895834,
      "d": 3885.059156250005,
      "v": 72
    },
    {
      "midi": 55,
      "hit": false,
      "t": 140325.5824895834,
      "d": 3893.0040624999965,
      "v": 72
    },
    {
      "midi": 64,
      "hit": false,
      "t": 148477.0563020834,
      "d": 1483.049166666664,
      "v": 85
    },
    {
      "midi": 62,
      "hit": false,
      "t": 149994.5333958334,
      "d": 529.6604166666802,
      "v": 87
    },
    {
      "midi": 65,
      "hit": false,
      "t": 150510.9523020834,
      "d": 1525.4219999999914,
      "v": 75
    },
    {
      "midi": 64,
      "hit": false,
      "t": 152036.3743020834,
      "d": 471.3977708333405,
      "v": 74
    },
    {
      "midi": 62,
      "hit": false,
      "t": 152544.8483020834,
      "d": 227.75397916667862,
      "v": 85
    },
    {
      "midi": 64,
      "hit": false,
      "t": 152788.4920937501,
      "d": 2420.5481041666644,
      "v": 82
    },
    {
      "midi": 64,
      "hit": false,
      "t": 156615.28860416677,
      "d": 1483.049166666664,
      "v": 85
    },
    {
      "midi": 62,
      "hit": false,
      "t": 158130.11739583343,
      "d": 521.7155104166595,
      "v": 87
    },
    {
      "midi": 65,
      "hit": false,
      "t": 158649.18460416674,
      "d": 1522.7736979166802,
      "v": 75
    },
    {
      "midi": 64,
      "hit": false,
      "t": 160171.95830208343,
      "d": 474.0460729166807,
      "v": 74
    },
    {
      "midi": 62,
      "hit": false,
      "t": 160680.43230208344,
      "d": 230.40228124998976,
      "v": 85
    },
    {
      "midi": 64,
      "hit": false,
      "t": 160924.0760937501,
      "d": 2420.5481041666644,
      "v": 82
    },
    {
      "midi": 62,
      "hit": false,
      "t": 164750.87260416677,
      "d": 2433.7896145833365,
      "v": 75
    },
    {
      "midi": 67,
      "hit": false,
      "t": 168304.89400000012,
      "d": 487.2875833333237,
      "v": 67
    },
    {
      "midi": 60,
      "hit": false,
      "t": 168816.01630208344,
      "d": 2025.9510937499872,
      "v": 74
    },
    {
      "midi": 65,
      "hit": false,
      "t": 170841.96739583343,
      "d": 1822.0318333333416,
      "v": 84
    },
    {
      "midi": 64,
      "hit": false,
      "t": 172886.45660416677,
      "d": 2028.5993958333274,
      "v": 85
    },
    {
      "midi": 60,
      "hit": false,
      "t": 177197.89239583342,
      "d": 286.0166249999893,
      "v": 78
    },
    {
      "midi": 65,
      "hit": false,
      "t": 177452.1293958334,
      "d": 275.42341666665743,
      "v": 73
    },
    {
      "midi": 67,
      "hit": false,
      "t": 177706.3663958334,
      "d": 262.18190624998533,
      "v": 76
    },
    {
      "midi": 70,
      "hit": false,
      "t": 177960.6033958334,
      "d": 240.9954895833216,
      "v": 93
    },
    {
      "midi": 69,
      "hit": false,
      "t": 178214.8403958334,
      "d": 781.2491145833337,
      "v": 87
    },
    {
      "midi": 60,
      "hit": false,
      "t": 181273.6293020834,
      "d": 270.12681250000605,
      "v": 71
    },
    {
      "midi": 65,
      "hit": false,
      "t": 181527.8663020834,
      "d": 286.0166250000184,
      "v": 72
    },
    {
      "midi": 67,
      "hit": false,
      "t": 181779.45500000007,
      "d": 288.66492708332953,
      "v": 68
    },
    {
      "midi": 70,
      "hit": false,
      "t": 182036.3403020834,
      "d": 254.2369999999937,
      "v": 80
    },
    {
      "midi": 69,
      "hit": false,
      "t": 182287.92900000006,
      "d": 1649.8921979166626,
      "v": 68
    },
    {
      "midi": 55,
      "hit": false,
      "t": 185330.82809375005,
      "d": 264.8302083333256,
      "v": 74
    },
    {
      "midi": 60,
      "hit": false,
      "t": 185587.7133958334,
      "d": 291.31322916664067,
      "v": 72
    },
    {
      "midi": 62,
      "hit": false,
      "t": 185849.89530208337,
      "d": 259.5336041666451,
      "v": 65
    },
    {
      "midi": 65,
      "hit": false,
      "t": 186101.48400000003,
      "d": 299.2581354166323,
      "v": 70
    },
    {
      "midi": 64,
      "hit": false,
      "t": 186350.42439583334,
      "d": 1874.9978749999718,
      "v": 57
    },
    {
      "midi": 55,
      "hit": false,
      "t": 189401.26839583332,
      "d": 254.2369999999937,
      "v": 73
    },
    {
      "midi": 60,
      "hit": false,
      "t": 189655.50539583332,
      "d": 275.42341666665743,
      "v": 79
    },
    {
      "midi": 62,
      "hit": false,
      "t": 189909.7423958333,
      "d": 272.7751145833463,
      "v": 43
    },
    {
      "midi": 65,
      "hit": false,
      "t": 190166.62769791664,
      "d": 246.2920937500021,
      "v": 71
    },
    {
      "midi": 64,
      "hit": false,
      "t": 190418.21639583333,
      "d": 1581.036343749991,
      "v": 56
    },
    {
      "midi": 60,
      "hit": false,
      "t": 193469.0603958333,
      "d": 283.36832291664905,
      "v": 78
    },
    {
      "midi": 65,
      "hit": false,
      "t": 193723.2973958333,
      "d": 272.7751145833463,
      "v": 73
    },
    {
      "midi": 67,
      "hit": false,
      "t": 193980.18269791664,
      "d": 259.5336041666742,
      "v": 76
    },
    {
      "midi": 70,
      "hit": false,
      "t": 194229.12309374998,
      "d": 246.2920937500021,
      "v": 93
    },
    {
      "midi": 69,
      "hit": false,
      "t": 194486.0083958333,
      "d": 781.2491145833337,
      "v": 87
    },
    {
      "midi": 60,
      "hit": false,
      "t": 197542.14899999998,
      "d": 275.42341666665743,
      "v": 71
    },
    {
      "midi": 65,
      "hit": false,
      "t": 197799.0343020833,
      "d": 286.0166249999893,
      "v": 72
    },
    {
      "midi": 67,
      "hit": false,
      "t": 198050.62299999996,
      "d": 288.66492708332953,
      "v": 68
    },
    {
      "midi": 70,
      "hit": false,
      "t": 198307.5083020833,
      "d": 256.88530208333395,
      "v": 80
    },
    {
      "midi": 69,
      "hit": false,
      "t": 198559.09699999995,
      "d": 1649.8921979166917,
      "v": 68
    },
    {
      "midi": 55,
      "hit": false,
      "t": 201604.6443958333,
      "d": 259.5336041666742,
      "v": 74
    },
    {
      "midi": 60,
      "hit": false,
      "t": 201858.8813958333,
      "d": 293.96153125001,
      "v": 72
    },
    {
      "midi": 62,
      "hit": false,
      "t": 202118.41499999998,
      "d": 262.18190624998533,
      "v": 65
    },
    {
      "midi": 65,
      "hit": false,
      "t": 202372.65199999997,
      "d": 301.9064374999725,
      "v": 70
    },
    {
      "midi": 64,
      "hit": false,
      "t": 202621.5923958333,
      "d": 1869.7012708333205,
      "v": 57
    },
    {
      "midi": 58,
      "hit": false,
      "t": 205428.7926041666,
      "d": 1859.1080625000177,
      "v": 70
    },
    {
      "midi": 62,
      "hit": false,
      "t": 205434.0892083333,
      "d": 1848.5148541666567,
      "v": 70
    },
    {
      "midi": 53,
      "hit": false,
      "t": 205434.0892083333,
      "d": 1853.8114583333372,
      "v": 70
    },
    {
      "midi": 43,
      "hit": false,
      "t": 205434.0892083333,
      "d": 1859.1080625000177,
      "v": 70
    },
    {
      "midi": 60,
      "hit": false,
      "t": 207452.0953958333,
      "d": 1912.074104166677,
      "v": 71
    },
    {
      "midi": 57,
      "hit": false,
      "t": 207452.0953958333,
      "d": 1914.7224062500172,
      "v": 71
    },
    {
      "midi": 41,
      "hit": false,
      "t": 207452.0953958333,
      "d": 1920.0190104166977,
      "v": 71
    },
    {
      "midi": 53,
      "hit": false,
      "t": 207465.33690624998,
      "d": 1914.7224062500172,
      "v": 71
    },
    {
      "midi": 52,
      "hit": false,
      "t": 209470.10158333334,
      "d": 3900.948968749988,
      "v": 72
    },
    {
      "midi": 48,
      "hit": false,
      "t": 209470.10158333334,
      "d": 3911.54217708332,
      "v": 72
    },
    {
      "midi": 60,
      "hit": false,
      "t": 209478.04648958333,
      "d": 3885.059156250005,
      "v": 72
    },
    {
      "midi": 55,
      "hit": false,
      "t": 209478.04648958333,
      "d": 3893.0040624999965,
      "v": 72
    },
    {
      "midi": 58,
      "hit": false,
      "t": 213564.37660416667,
      "d": 1859.1080624999886,
      "v": 70
    },
    {
      "midi": 62,
      "hit": false,
      "t": 213572.32151041666,
      "d": 1843.2182500000054,
      "v": 70
    },
    {
      "midi": 53,
      "hit": false,
      "t": 213572.32151041666,
      "d": 1851.163156249997,
      "v": 70
    },
    {
      "midi": 43,
      "hit": false,
      "t": 213572.32151041666,
      "d": 1861.7563645833288,
      "v": 70
    },
    {
      "midi": 60,
      "hit": false,
      "t": 215585.03109374997,
      "d": 1914.7224062500172,
      "v": 71
    },
    {
      "midi": 57,
      "hit": false,
      "t": 215585.03109374997,
      "d": 1917.3707083333575,
      "v": 71
    },
    {
      "midi": 41,
      "hit": false,
      "t": 215585.03109374997,
      "d": 1922.667312500038,
      "v": 71
    },
    {
      "midi": 53,
      "hit": false,
      "t": 215600.92090625,
      "d": 1909.4258020833659,
      "v": 71
    },
    {
      "midi": 52,
      "hit": false,
      "t": 217605.68558333334,
      "d": 3903.5972708333575,
      "v": 72
    },
    {
      "midi": 48,
      "hit": false,
      "t": 217605.68558333334,
      "d": 3914.1904791666893,
      "v": 72
    },
    {
      "midi": 60,
      "hit": false,
      "t": 217610.98218750002,
      "d": 3885.059156250005,
      "v": 72
    },
    {
      "midi": 55,
      "hit": false,
      "t": 217610.98218750002,
      "d": 3898.300666666677,
      "v": 72
    },
    {
      "midi": 58,
      "hit": false,
      "t": 221699.9606041667,
      "d": 1859.1080624999886,
      "v": 70
    },
    {
      "midi": 62,
      "hit": false,
      "t": 221707.9055104167,
      "d": 1843.2182500000054,
      "v": 70
    },
    {
      "midi": 53,
      "hit": false,
      "t": 221707.9055104167,
      "d": 1851.163156249997,
      "v": 70
    },
    {
      "midi": 43,
      "hit": false,
      "t": 221707.9055104167,
      "d": 1859.1080624999886,
      "v": 70
    },
    {
      "midi": 60,
      "hit": false,
      "t": 223725.9116979167,
      "d": 1909.4258020833367,
      "v": 71
    },
    {
      "midi": 57,
      "hit": false,
      "t": 223725.9116979167,
      "d": 1912.074104166677,
      "v": 71
    },
    {
      "midi": 41,
      "hit": false,
      "t": 223725.9116979167,
      "d": 1917.3707083333575,
      "v": 71
    },
    {
      "midi": 53,
      "hit": false,
      "t": 223736.50490625002,
      "d": 1912.074104166706,
      "v": 71
    },
    {
      "midi": 52,
      "hit": false,
      "t": 225738.62128125006,
      "d": 3906.2455729166686,
      "v": 72
    },
    {
      "midi": 48,
      "hit": false,
      "t": 225738.62128125006,
      "d": 3914.19047916666,
      "v": 72
    },
    {
      "midi": 60,
      "hit": false,
      "t": 225743.91788541674,
      "d": 3890.3557604166563,
      "v": 72
    },
    {
      "midi": 55,
      "hit": false,
      "t": 225743.91788541674,
      "d": 3900.948968749988,
      "v": 72
    },
    {
      "midi": 58,
      "hit": false,
      "t": 229838.19290625004,
      "d": 1856.4597604166775,
      "v": 70
    },
    {
      "midi": 62,
      "hit": false,
      "t": 229843.48951041672,
      "d": 1843.2182500000054,
      "v": 70
    },
    {
      "midi": 53,
      "hit": false,
      "t": 229843.48951041672,
      "d": 1851.163156249997,
      "v": 70
    },
    {
      "midi": 43,
      "hit": false,
      "t": 229843.48951041672,
      "d": 1859.1080624999886,
      "v": 70
    },
    {
      "midi": 60,
      "hit": false,
      "t": 231861.49569791672,
      "d": 1909.4258020833367,
      "v": 71
    },
    {
      "midi": 57,
      "hit": false,
      "t": 231861.49569791672,
      "d": 1912.074104166677,
      "v": 71
    },
    {
      "midi": 41,
      "hit": false,
      "t": 231861.49569791672,
      "d": 1917.3707083333575,
      "v": 71
    },
    {
      "midi": 53,
      "hit": false,
      "t": 231872.08890625005,
      "d": 1912.074104166706,
      "v": 71
    },
    {
      "midi": 52,
      "hit": false,
      "t": 233876.85358333343,
      "d": 3900.9489687500172,
      "v": 72
    },
    {
      "midi": 48,
      "hit": false,
      "t": 233876.85358333343,
      "d": 3914.1904791666893,
      "v": 72
    },
    {
      "midi": 60,
      "hit": false,
      "t": 233882.1501875001,
      "d": 3887.707458333345,
      "v": 72
    },
    {
      "midi": 55,
      "hit": false,
      "t": 233882.1501875001,
      "d": 3895.6523645833367,
      "v": 72
    }
  ]
}