{
  "jsonPath": "Unknown/Unknown/Tina Turner With Rod Stewart/it-takes-two.json",
  "path": "Unknown\\Unknown\\Tina Turner With Rod Stewart\\It Takes Two.mid",
  "name": "It Takes Two",
  "difficulty": "Advanced",
  "bpm": 140.00014000014,
  "notes": [
    {
      "midi": 62,
      "hit": false,
      "t": 16285.698,
      "d": 160.7141249999986,
      "v": 117
    },
    {
      "midi": 65,
      "hit": false,
      "t": 16285.698,
      "d": 214.28549999999814,
      "v": 109
    },
    {
      "midi": 58,
      "hit": false,
      "t": 16499.9835,
      "d": 107.14274999999907,
      "v": 87
    },
    {
      "midi": 58,
      "hit": false,
      "t": 16714.268999999997,
      "d": 107.14274999999907,
      "v": 109
    },
    {
      "midi": 63,
      "hit": false,
      "t": 16714.268999999997,
      "d": 160.7141249999986,
      "v": 117
    },
    {
      "midi": 67,
      "hit": false,
      "t": 16714.268999999997,
      "d": 160.7141249999986,
      "v": 117
    },
    {
      "midi": 58,
      "hit": false,
      "t": 16928.554499999995,
      "d": 107.14274999999907,
      "v": 87
    },
    {
      "midi": 58,
      "hit": false,
      "t": 17142.839999999993,
      "d": 107.14274999999907,
      "v": 98
    },
    {
      "midi": 62,
      "hit": false,
      "t": 17142.839999999993,
      "d": 107.14274999999907,
      "v": 109
    },
    {
      "midi": 65,
      "hit": false,
      "t": 17142.839999999993,
      "d": 107.14274999999907,
      "v": 109
    },
    {
      "midi": 58,
      "hit": false,
      "t": 17357.12549999999,
      "d": 107.14274999999907,
      "v": 116
    },
    {
      "midi": 62,
      "hit": false,
      "t": 17357.12549999999,
      "d": 160.7141249999986,
      "v": 117
    },
    {
      "midi": 65,
      "hit": false,
      "t": 17357.12549999999,
      "d": 214.28549999999814,
      "v": 117
    },
    {
      "midi": 58,
      "hit": false,
      "t": 17571.41099999999,
      "d": 107.14274999999907,
      "v": 104
    },
    {
      "midi": 58,
      "hit": false,
      "t": 17785.696499999987,
      "d": 107.14274999999907,
      "v": 65
    },
    {
      "midi": 63,
      "hit": false,
      "t": 17785.696499999987,
      "d": 107.14274999999907,
      "v": 85
    },
    {
      "midi": 58,
      "hit": false,
      "t": 17999.981999999985,
      "d": 133.92843749999884,
      "v": 117
    },
    {
      "midi": 63,
      "hit": false,
      "t": 17999.981999999985,
      "d": 214.28549999999814,
      "v": 117
    },
    {
      "midi": 67,
      "hit": false,
      "t": 17999.981999999985,
      "d": 214.28549999999814,
      "v": 117
    },
    {
      "midi": 58,
      "hit": false,
      "t": 18214.267499999984,
      "d": 107.14274999999907,
      "v": 104
    },
    {
      "midi": 67,
      "hit": false,
      "t": 18214.267499999984,
      "d": 107.14274999999907,
      "v": 67
    },
    {
      "midi": 58,
      "hit": false,
      "t": 18428.55299999998,
      "d": 107.14274999999907,
      "v": 85
    },
    {
      "midi": 63,
      "hit": false,
      "t": 18428.55299999998,
      "d": 107.14274999999907,
      "v": 77
    },
    {
      "midi": 67,
      "hit": false,
      "t": 18428.55299999998,
      "d": 107.14274999999907,
      "v": 94
    },
    {
      "midi": 58,
      "hit": false,
      "t": 18642.83849999998,
      "d": 107.14274999999907,
      "v": 109
    },
    {
      "midi": 62,
      "hit": false,
      "t": 18642.83849999998,
      "d": 214.28549999999814,
      "v": 116
    },
    {
      "midi": 65,
      "hit": false,
      "t": 18642.83849999998,
      "d": 214.28549999999814,
      "v": 117
    },
    {
      "midi": 58,
      "hit": false,
      "t": 18857.123999999978,
      "d": 107.14274999999907,
      "v": 89
    },
    {
      "midi": 56,
      "hit": false,
      "t": 19071.409499999976,
      "d": 107.14274999999907,
      "v": 117
    },
    {
      "midi": 60,
      "hit": false,
      "t": 19071.409499999976,
      "d": 160.7141249999986,
      "v": 109
    },
    {
      "midi": 65,
      "hit": false,
      "t": 19071.409499999976,
      "d": 267.8568749999977,
      "v": 116
    },
    {
      "midi": 56,
      "hit": false,
      "t": 19285.694999999974,
      "d": 107.14274999999907,
      "v": 104
    },
    {
      "midi": 56,
      "hit": false,
      "t": 19499.980499999972,
      "d": 107.14274999999907,
      "v": 116
    },
    {
      "midi": 60,
      "hit": false,
      "t": 19499.980499999972,
      "d": 160.7141249999986,
      "v": 109
    },
    {
      "midi": 65,
      "hit": false,
      "t": 19499.980499999972,
      "d": 321.4282499999972,
      "v": 116
    },
    {
      "midi": 61,
      "hit": false,
      "t": 19687.48031249997,
      "d": 53.571374999999534,
      "v": 104
    },
    {
      "midi": 58,
      "hit": false,
      "t": 19714.26599999997,
      "d": 107.14274999999907,
      "v": 94
    },
    {
      "midi": 62,
      "hit": false,
      "t": 19714.26599999997,
      "d": 160.7141249999986,
      "v": 117
    },
    {
      "midi": 58,
      "hit": false,
      "t": 19928.55149999997,
      "d": 107.14274999999907,
      "v": 89
    },
    {
      "midi": 65,
      "hit": false,
      "t": 19928.55149999997,
      "d": 107.14274999999907,
      "v": 51
    },
    {
      "midi": 58,
      "hit": false,
      "t": 20142.836999999967,
      "d": 107.14274999999907,
      "v": 109
    },
    {
      "midi": 63,
      "hit": false,
      "t": 20142.836999999967,
      "d": 160.7141249999986,
      "v": 104
    },
    {
      "midi": 67,
      "hit": false,
      "t": 20142.836999999967,
      "d": 160.7141249999986,
      "v": 116
    },
    {
      "midi": 58,
      "hit": false,
      "t": 20357.122499999965,
      "d": 107.14274999999907,
      "v": 104
    },
    {
      "midi": 62,
      "hit": false,
      "t": 20571.407999999963,
      "d": 107.14274999999907,
      "v": 92
    },
    {
      "midi": 58,
      "hit": false,
      "t": 20785.69349999996,
      "d": 107.14274999999907,
      "v": 116
    },
    {
      "midi": 62,
      "hit": false,
      "t": 20785.69349999996,
      "d": 160.7141249999986,
      "v": 117
    },
    {
      "midi": 65,
      "hit": false,
      "t": 20785.69349999996,
      "d": 160.7141249999986,
      "v": 117
    },
    {
      "midi": 58,
      "hit": false,
      "t": 20999.97899999996,
      "d": 107.14274999999907,
      "v": 109
    },
    {
      "midi": 65,
      "hit": false,
      "t": 20999.97899999996,
      "d": 107.14274999999907,
      "v": 70
    },
    {
      "midi": 63,
      "hit": false,
      "t": 21214.264499999957,
      "d": 107.14274999999907,
      "v": 98
    },
    {
      "midi": 58,
      "hit": false,
      "t": 21428.549999999956,
      "d": 107.14274999999907,
      "v": 117
    },
    {
      "midi": 67,
      "hit": false,
      "t": 21428.549999999956,
      "d": 160.7141249999986,
      "v": 117
    },
    {
      "midi": 63,
      "hit": false,
      "t": 21428.549999999956,
      "d": 214.28549999999814,
      "v": 117
    },
    {
      "midi": 58,
      "hit": false,
      "t": 21642.835499999954,
      "d": 107.14274999999907,
      "v": 104
    },
    {
      "midi": 58,
      "hit": false,
      "t": 21857.120999999952,
      "d": 107.14274999999907,
      "v": 104
    },
    {
      "midi": 63,
      "hit": false,
      "t": 21857.120999999952,
      "d": 107.14274999999907,
      "v": 116
    },
    {
      "midi": 67,
      "hit": false,
      "t": 21857.120999999952,
      "d": 107.14274999999907,
      "v": 109
    },
    {
      "midi": 58,
      "hit": false,
      "t": 22071.40649999995,
      "d": 107.14274999999907,
      "v": 98
    },
    {
      "midi": 62,
      "hit": false,
      "t": 22071.40649999995,
      "d": 160.7141249999986,
      "v": 117
    },
    {
      "midi": 65,
      "hit": false,
      "t": 22071.40649999995,
      "d": 267.8568749999977,
      "v": 117
    },
    {
      "midi": 58,
      "hit": false,
      "t": 22285.691999999948,
      "d": 107.14274999999907,
      "v": 98
    },
    {
      "midi": 56,
      "hit": false,
      "t": 22499.977499999946,
      "d": 107.14274999999907,
      "v": 109
    },
    {
      "midi": 60,
      "hit": false,
      "t": 22499.977499999946,
      "d": 160.7141249999986,
      "v": 116
    },
    {
      "midi": 65,
      "hit": false,
      "t": 22499.977499999946,
      "d": 160.7141249999986,
      "v": 117
    },
    {
      "midi": 56,
      "hit": false,
      "t": 22714.262999999944,
      "d": 107.14274999999907,
      "v": 87
    },
    {
      "midi": 56,
      "hit": false,
      "t": 22928.548499999943,
      "d": 160.7141249999986,
      "v": 116
    },
    {
      "midi": 60,
      "hit": false,
      "t": 22928.548499999943,
      "d": 160.7141249999986,
      "v": 116
    },
    {
      "midi": 65,
      "hit": false,
      "t": 22928.548499999943,
      "d": 160.7141249999986,
      "v": 116
    },
    {
      "midi": 62,
      "hit": false,
      "t": 23142.83399999994,
      "d": 160.7141249999986,
      "v": 117
    },
    {
      "midi": 65,
      "hit": false,
      "t": 23142.83399999994,
      "d": 214.28549999999814,
      "v": 109
    },
    {
      "midi": 58,
      "hit": false,
      "t": 23357.11949999994,
      "d": 107.14274999999907,
      "v": 87
    },
    {
      "midi": 58,
      "hit": false,
      "t": 23571.404999999937,
      "d": 107.14274999999907,
      "v": 109
    },
    {
      "midi": 63,
      "hit": false,
      "t": 23571.404999999937,
      "d": 160.7141249999986,
      "v": 117
    },
    {
      "midi": 67,
      "hit": false,
      "t": 23571.404999999937,
      "d": 160.7141249999986,
      "v": 117
    },
    {
      "midi": 58,
      "hit": false,
      "t": 23785.690499999935,
      "d": 107.14274999999907,
      "v": 87
    },
    {
      "midi": 58,
      "hit": false,
      "t": 23999.975999999933,
      "d": 107.14274999999907,
      "v": 98
    },
    {
      "midi": 62,
      "hit": false,
      "t": 23999.975999999933,
      "d": 107.14274999999907,
      "v": 109
    },
    {
      "midi": 65,
      "hit": false,
      "t": 23999.975999999933,
      "d": 107.14274999999907,
      "v": 109
    },
    {
      "midi": 58,
      "hit": false,
      "t": 24214.26149999993,
      "d": 107.14274999999907,
      "v": 116
    },
    {
      "midi": 62,
      "hit": false,
      "t": 24214.26149999993,
      "d": 160.7141249999986,
      "v": 117
    },
    {
      "midi": 65,
      "hit": false,
      "t": 24214.26149999993,
      "d": 214.28549999999814,
      "v": 117
    },
    {
      "midi": 58,
      "hit": false,
      "t": 24428.54699999993,
      "d": 107.14274999999907,
      "v": 104
    },
    {
      "midi": 58,
      "hit": false,
      "t": 24642.832499999928,
      "d": 107.14274999999907,
      "v": 65
    },
    {
      "midi": 63,
      "hit": false,
      "t": 24642.832499999928,
      "d": 107.14274999999907,
      "v": 85
    },
    {
      "midi": 58,
      "hit": false,
      "t": 24857.117999999926,
      "d": 133.92843749999884,
      "v": 117
    },
    {
      "midi": 63,
      "hit": false,
      "t": 24857.117999999926,
      "d": 214.28549999999814,
      "v": 117
    },
    {
      "midi": 67,
      "hit": false,
      "t": 24857.117999999926,
      "d": 214.28549999999814,
      "v": 117
    },
    {
      "midi": 58,
      "hit": false,
      "t": 25071.403499999924,
      "d": 107.14274999999907,
      "v": 104
    },
    {
      "midi": 67,
      "hit": false,
      "t": 25071.403499999924,
      "d": 107.14274999999907,
      "v": 67
    },
    {
      "midi": 58,
      "hit": false,
      "t": 25285.688999999922,
      "d": 107.14274999999907,
      "v": 85
    },
    {
      "midi": 63,
      "hit": false,
      "t": 25285.688999999922,
      "d": 107.14274999999907,
      "v": 77
    },
    {
      "midi": 67,
      "hit": false,
      "t": 25285.688999999922,
      "d": 107.14274999999907,
      "v": 94
    },
    {
      "midi": 58,
      "hit": false,
      "t": 25499.97449999992,
      "d": 107.14274999999907,
      "v": 109
    },
    {
      "midi": 62,
      "hit": false,
      "t": 25499.97449999992,
      "d": 214.28549999999814,
      "v": 116
    },
    {
      "midi": 65,
      "hit": false,
      "t": 25499.97449999992,
      "d": 214.28549999999814,
      "v": 117
    },
    {
      "midi": 58,
      "hit": false,
      "t": 25714.25999999992,
      "d": 107.14274999999907,
      "v": 89
    },
    {
      "midi": 56,
      "hit": false,
      "t": 25928.545499999917,
      "d": 107.14274999999907,
      "v": 117
    },
    {
      "midi": 60,
      "hit": false,
      "t": 25928.545499999917,
      "d": 160.7141249999986,
      "v": 109
    },
    {
      "midi": 65,
      "hit": false,
      "t": 25928.545499999917,
      "d": 267.8568749999977,
      "v": 116
    },
    {
      "midi": 56,
      "hit": false,
      "t": 26142.830999999915,
      "d": 107.14274999999907,
      "v": 104
    },
    {
      "midi": 56,
      "hit": false,
      "t": 26357.116499999913,
      "d": 107.14274999999907,
      "v": 116
    },
    {
      "midi": 60,
      "hit": false,
      "t": 26357.116499999913,
      "d": 160.7141249999986,
      "v": 109
    },
    {
      "midi": 65,
      "hit": false,
      "t": 26357.116499999913,
      "d": 321.4282499999972,
      "v": 116
    },
    {
      "midi": 61,
      "hit": false,
      "t": 26544.61631249991,
      "d": 53.571374999999534,
      "v": 104
    },
    {
      "midi": 58,
      "hit": false,
      "t": 26571.40199999991,
      "d": 107.14274999999907,
      "v": 94
    },
    {
      "midi": 62,
      "hit": false,
      "t": 26571.40199999991,
      "d": 160.7141249999986,
      "v": 117
    },
    {
      "midi": 58,
      "hit": false,
      "t": 26785.68749999991,
      "d": 107.14274999999907,
      "v": 89
    },
    {
      "midi": 65,
      "hit": false,
      "t": 26785.68749999991,
      "d": 107.14274999999907,
      "v": 51
    },
    {
      "midi": 58,
      "hit": false,
      "t": 26999.972999999907,
      "d": 107.14274999999907,
      "v": 109
    },
    {
      "midi": 63,
      "hit": false,
      "t": 26999.972999999907,
      "d": 160.7141249999986,
      "v": 104
    },
    {
      "midi": 67,
      "hit": false,
      "t": 26999.972999999907,
      "d": 160.7141249999986,
      "v": 116
    },
    {
      "midi": 58,
      "hit": false,
      "t": 27214.258499999905,
      "d": 107.14274999999907,
      "v": 104
    },
    {
      "midi": 62,
      "hit": false,
      "t": 27428.543999999903,
      "d": 107.14274999999907,
      "v": 92
    },
    {
      "midi": 58,
      "hit": false,
      "t": 27642.8294999999,
      "d": 107.14274999999907,
      "v": 116
    },
    {
      "midi": 62,
      "hit": false,
      "t": 27642.8294999999,
      "d": 160.7141249999986,
      "v": 117
    },
    {
      "midi": 65,
      "hit": false,
      "t": 27642.8294999999,
      "d": 160.7141249999986,
      "v": 117
    },
    {
      "midi": 58,
      "hit": false,
      "t": 27857.1149999999,
      "d": 107.14274999999907,
      "v": 109
    },
    {
      "midi": 65,
      "hit": false,
      "t": 27857.1149999999,
      "d": 107.14274999999907,
      "v": 70
    },
    {
      "midi": 63,
      "hit": false,
      "t": 28071.400499999898,
      "d": 107.14274999999907,
      "v": 98
    },
    {
      "midi": 58,
      "hit": false,
      "t": 28285.685999999896,
      "d": 107.14274999999907,
      "v": 117
    },
    {
      "midi": 67,
      "hit": false,
      "t": 28285.685999999896,
      "d": 160.7141249999986,
      "v": 117
    },
    {
      "midi": 63,
      "hit": false,
      "t": 28285.685999999896,
      "d": 214.28549999999814,
      "v": 117
    },
    {
      "midi": 58,
      "hit": false,
      "t": 28499.971499999894,
      "d": 107.14274999999907,
      "v": 104
    },
    {
      "midi": 58,
      "hit": false,
      "t": 28714.256999999892,
      "d": 107.14274999999907,
      "v": 104
    },
    {
      "midi": 63,
      "hit": false,
      "t": 28714.256999999892,
      "d": 107.14274999999907,
      "v": 116
    },
    {
      "midi": 67,
      "hit": false,
      "t": 28714.256999999892,
      "d": 107.14274999999907,
      "v": 109
    },
    {
      "midi": 58,
      "hit": false,
      "t": 28928.54249999989,
      "d": 107.14274999999907,
      "v": 98
    },
    {
      "midi": 62,
      "hit": false,
      "t": 28928.54249999989,
      "d": 160.7141249999986,
      "v": 117
    },
    {
      "midi": 65,
      "hit": false,
      "t": 28928.54249999989,
      "d": 267.8568749999977,
      "v": 117
    },
    {
      "midi": 58,
      "hit": false,
      "t": 29142.82799999989,
      "d": 107.14274999999907,
      "v": 98
    },
    {
      "midi": 56,
      "hit": false,
      "t": 29357.113499999887,
      "d": 107.14274999999907,
      "v": 109
    },
    {
      "midi": 60,
      "hit": false,
      "t": 29357.113499999887,
      "d": 160.7141249999986,
      "v": 116
    },
    {
      "midi": 65,
      "hit": false,
      "t": 29357.113499999887,
      "d": 160.7141249999986,
      "v": 117
    },
    {
      "midi": 56,
      "hit": false,
      "t": 29571.398999999885,
      "d": 107.14274999999907,
      "v": 87
    },
    {
      "midi": 56,
      "hit": false,
      "t": 29785.684499999883,
      "d": 160.7141249999986,
      "v": 116
    },
    {
      "midi": 60,
      "hit": false,
      "t": 29785.684499999883,
      "d": 160.7141249999986,
      "v": 116
    },
    {
      "midi": 65,
      "hit": false,
      "t": 29785.684499999883,
      "d": 160.7141249999986,
      "v": 116
    },
    {
      "midi": 62,
      "hit": false,
      "t": 29999.96999999988,
      "d": 160.7141249999986,
      "v": 117
    },
    {
      "midi": 65,
      "hit": false,
      "t": 29999.96999999988,
      "d": 214.28549999999814,
      "v": 109
    },
    {
      "midi": 58,
      "hit": false,
      "t": 30214.25549999988,
      "d": 107.14274999999907,
      "v": 87
    },
    {
      "midi": 58,
      "hit": false,
      "t": 30428.540999999877,
      "d": 107.14274999999907,
      "v": 109
    },
    {
      "midi": 63,
      "hit": false,
      "t": 30428.540999999877,
      "d": 160.7141249999986,
      "v": 117
    },
    {
      "midi": 67,
      "hit": false,
      "t": 30428.540999999877,
      "d": 160.7141249999986,
      "v": 117
    },
    {
      "midi": 58,
      "hit": false,
      "t": 30642.826499999876,
      "d": 107.14274999999907,
      "v": 87
    },
    {
      "midi": 58,
      "hit": false,
      "t": 30857.111999999874,
      "d": 107.14274999999907,
      "v": 98
    },
    {
      "midi": 62,
      "hit": false,
      "t": 30857.111999999874,
      "d": 107.14274999999907,
      "v": 109
    },
    {
      "midi": 65,
      "hit": false,
      "t": 30857.111999999874,
      "d": 107.14274999999907,
      "v": 109
    },
    {
      "midi": 58,
      "hit": false,
      "t": 31071.39749999987,
      "d": 107.14274999999907,
      "v": 116
    },
    {
      "midi": 62,
      "hit": false,
      "t": 31071.39749999987,
      "d": 160.7141249999986,
      "v": 117
    },
    {
      "midi": 65,
      "hit": false,
      "t": 31071.39749999987,
      "d": 214.28549999999814,
      "v": 117
    },
    {
      "midi": 58,
      "hit": false,
      "t": 31285.68299999987,
      "d": 107.14274999999907,
      "v": 104
    },
    {
      "midi": 58,
      "hit": false,
      "t": 31499.968499999868,
      "d": 107.14274999999907,
      "v": 65
    },
    {
      "midi": 63,
      "hit": false,
      "t": 31499.968499999868,
      "d": 107.14274999999907,
      "v": 85
    },
    {
      "midi": 58,
      "hit": false,
      "t": 31714.253999999866,
      "d": 133.92843749999884,
      "v": 117
    },
    {
      "midi": 63,
      "hit": false,
      "t": 31714.253999999866,
      "d": 214.28549999999814,
      "v": 117
    },
    {
      "midi": 67,
      "hit": false,
      "t": 31714.253999999866,
      "d": 214.28549999999814,
      "v": 117
    },
    {
      "midi": 58,
      "hit": false,
      "t": 31928.539499999864,
      "d": 107.14274999999907,
      "v": 104
    },
    {
      "midi": 67,
      "hit": false,
      "t": 31928.539499999864,
      "d": 107.14274999999907,
      "v": 67
    },
    {
      "midi": 58,
      "hit": false,
      "t": 32142.824999999862,
      "d": 107.14274999999907,
      "v": 85
    },
    {
      "midi": 63,
      "hit": false,
      "t": 32142.824999999862,
      "d": 107.14274999999907,
      "v": 77
    },
    {
      "midi": 67,
      "hit": false,
      "t": 32142.824999999862,
      "d": 107.14274999999907,
      "v": 94
    },
    {
      "midi": 58,
      "hit": false,
      "t": 32357.11049999986,
      "d": 107.14274999999907,
      "v": 109
    },
    {
      "midi": 62,
      "hit": false,
      "t": 32357.11049999986,
      "d": 214.28549999999814,
      "v": 116
    },
    {
      "midi": 65,
      "hit": false,
      "t": 32357.11049999986,
      "d": 214.28549999999814,
      "v": 117
    },
    {
      "midi": 58,
      "hit": false,
      "t": 32571.39599999986,
      "d": 107.14274999999907,
      "v": 89
    },
    {
      "midi": 56,
      "hit": false,
      "t": 32785.68149999986,
      "d": 107.14274999999907,
      "v": 117
    },
    {
      "midi": 60,
      "hit": false,
      "t": 32785.68149999986,
      "d": 160.7141249999986,
      "v": 109
    },
    {
      "midi": 65,
      "hit": false,
      "t": 32785.68149999986,
      "d": 267.8568749999977,
      "v": 116
    },
    {
      "midi": 56,
      "hit": false,
      "t": 32999.96699999986,
      "d": 107.14274999999907,
      "v": 104
    },
    {
      "midi": 56,
      "hit": false,
      "t": 33214.25249999986,
      "d": 107.14274999999907,
      "v": 116
    },
    {
      "midi": 60,
      "hit": false,
      "t": 33214.25249999986,
      "d": 160.7141249999986,
      "v": 109
    },
    {
      "midi": 65,
      "hit": false,
      "t": 33214.25249999986,
      "d": 321.4282499999972,
      "v": 116
    },
    {
      "midi": 61,
      "hit": false,
      "t": 33401.752312499855,
      "d": 53.571374999999534,
      "v": 104
    },
    {
      "midi": 58,
      "hit": false,
      "t": 33428.537999999855,
      "d": 107.14274999999907,
      "v": 94
    },
    {
      "midi": 62,
      "hit": false,
      "t": 33428.537999999855,
      "d": 160.7141249999986,
      "v": 117
    },
    {
      "midi": 58,
      "hit": false,
      "t": 33642.82349999985,
      "d": 107.14274999999907,
      "v": 89
    },
    {
      "midi": 65,
      "hit": false,
      "t": 33642.82349999985,
      "d": 107.14274999999907,
      "v": 51
    },
    {
      "midi": 58,
      "hit": false,
      "t": 33857.10899999985,
      "d": 107.14274999999907,
      "v": 109
    },
    {
      "midi": 63,
      "hit": false,
      "t": 33857.10899999985,
      "d": 160.7141249999986,
      "v": 104
    },
    {
      "midi": 67,
      "hit": false,
      "t": 33857.10899999985,
      "d": 160.7141249999986,
      "v": 116
    },
    {
      "midi": 58,
      "hit": false,
      "t": 34071.39449999985,
      "d": 107.14274999999907,
      "v": 104
    },
    {
      "midi": 62,
      "hit": false,
      "t": 34285.67999999985,
      "d": 107.14274999999907,
      "v": 92
    },
    {
      "midi": 58,
      "hit": false,
      "t": 34499.965499999846,
      "d": 107.14274999999907,
      "v": 116
    },
    {
      "midi": 62,
      "hit": false,
      "t": 34499.965499999846,
      "d": 160.7141249999986,
      "v": 117
    },
    {
      "midi": 65,
      "hit": false,
      "t": 34499.965499999846,
      "d": 160.7141249999986,
      "v": 117
    },
    {
      "midi": 58,
      "hit": false,
      "t": 34714.250999999844,
      "d": 107.14274999999907,
      "v": 109
    },
    {
      "midi": 65,
      "hit": false,
      "t": 34714.250999999844,
      "d": 107.14274999999907,
      "v": 70
    },
    {
      "midi": 63,
      "hit": false,
      "t": 34928.53649999984,
      "d": 107.14274999999907,
      "v": 98
    },
    {
      "midi": 58,
      "hit": false,
      "t": 35142.82199999984,
      "d": 107.14274999999907,
      "v": 117
    },
    {
      "midi": 67,
      "hit": false,
      "t": 35142.82199999984,
      "d": 160.7141249999986,
      "v": 117
    },
    {
      "midi": 63,
      "hit": false,
      "t": 35142.82199999984,
      "d": 214.28549999999814,
      "v": 117
    },
    {
      "midi": 58,
      "hit": false,
      "t": 35357.10749999984,
      "d": 107.14274999999907,
      "v": 104
    },
    {
      "midi": 58,
      "hit": false,
      "t": 35571.392999999836,
      "d": 107.14274999999907,
      "v": 104
    },
    {
      "midi": 63,
      "hit": false,
      "t": 35571.392999999836,
      "d": 107.14274999999907,
      "v": 116
    },
    {
      "midi": 67,
      "hit": false,
      "t": 35571.392999999836,
      "d": 107.14274999999907,
      "v": 109
    },
    {
      "midi": 58,
      "hit": false,
      "t": 35785.678499999834,
      "d": 107.14274999999907,
      "v": 98
    },
    {
      "midi": 62,
      "hit": false,
      "t": 35785.678499999834,
      "d": 160.7141249999986,
      "v": 117
    },
    {
      "midi": 65,
      "hit": false,
      "t": 35785.678499999834,
      "d": 267.8568749999977,
      "v": 117
    },
    {
      "midi": 58,
      "hit": false,
      "t": 35999.96399999983,
      "d": 107.14274999999907,
      "v": 98
    },
    {
      "midi": 56,
      "hit": false,
      "t": 36214.24949999983,
      "d": 107.14274999999907,
      "v": 109
    },
    {
      "midi": 60,
      "hit": false,
      "t": 36214.24949999983,
      "d": 160.7141249999986,
      "v": 116
    },
    {
      "midi": 65,
      "hit": false,
      "t": 36214.24949999983,
      "d": 160.7141249999986,
      "v": 117
    },
    {
      "midi": 56,
      "hit": false,
      "t": 36428.53499999983,
      "d": 107.14274999999907,
      "v": 87
    },
    {
      "midi": 56,
      "hit": false,
      "t": 36642.82049999983,
      "d": 160.7141249999986,
      "v": 116
    },
    {
      "midi": 60,
      "hit": false,
      "t": 36642.82049999983,
      "d": 160.7141249999986,
      "v": 116
    },
    {
      "midi": 65,
      "hit": false,
      "t": 36642.82049999983,
      "d": 160.7141249999986,
      "v": 116
    },
    {
      "midi": 62,
      "hit": false,
      "t": 36857.105999999825,
      "d": 160.7141249999986,
      "v": 117
    },
    {
      "midi": 65,
      "hit": false,
      "t": 36857.105999999825,
      "d": 214.28549999999814,
      "v": 109
    },
    {
      "midi": 58,
      "hit": false,
      "t": 37071.39149999982,
      "d": 107.14274999999907,
      "v": 87
    },
    {
      "midi": 58,
      "hit": false,
      "t": 37285.67699999982,
      "d": 107.14274999999907,
      "v": 109
    },
    {
      "midi": 63,
      "hit": false,
      "t": 37285.67699999982,
      "d": 160.7141249999986,
      "v": 117
    },
    {
      "midi": 67,
      "hit": false,
      "t": 37285.67699999982,
      "d": 160.7141249999986,
      "v": 117
    },
    {
      "midi": 58,
      "hit": false,
      "t": 37499.96249999982,
      "d": 107.14274999999907,
      "v": 87
    },
    {
      "midi": 58,
      "hit": false,
      "t": 37714.24799999982,
      "d": 107.14274999999907,
      "v": 98
    },
    {
      "midi": 62,
      "hit": false,
      "t": 37714.24799999982,
      "d": 107.14274999999907,
      "v": 109
    },
    {
      "midi": 65,
      "hit": false,
      "t": 37714.24799999982,
      "d": 107.14274999999907,
      "v": 109
    },
    {
      "midi": 58,
      "hit": false,
      "t": 37928.533499999816,
      "d": 107.14274999999907,
      "v": 116
    },
    {
      "midi": 62,
      "hit": false,
      "t": 37928.533499999816,
      "d": 160.7141249999986,
      "v": 117
    },
    {
      "midi": 65,
      "hit": false,
      "t": 37928.533499999816,
      "d": 214.28549999999814,
      "v": 117
    },
    {
      "midi": 58,
      "hit": false,
      "t": 38142.818999999814,
      "d": 107.14274999999907,
      "v": 104
    },
    {
      "midi": 58,
      "hit": false,
      "t": 38357.10449999981,
      "d": 107.14274999999907,
      "v": 65
    },
    {
      "midi": 63,
      "hit": false,
      "t": 38357.10449999981,
      "d": 107.14274999999907,
      "v": 85
    },
    {
      "midi": 58,
      "hit": false,
      "t": 38571.38999999981,
      "d": 133.92843749999884,
      "v": 117
    },
    {
      "midi": 63,
      "hit": false,
      "t": 38571.38999999981,
      "d": 214.28549999999814,
      "v": 117
    },
    {
      "midi": 67,
      "hit": false,
      "t": 38571.38999999981,
      "d": 214.28549999999814,
      "v": 117
    },
    {
      "midi": 58,
      "hit": false,
      "t": 38785.67549999981,
      "d": 107.14274999999907,
      "v": 104
    },
    {
      "midi": 67,
      "hit": false,
      "t": 38785.67549999981,
      "d": 107.14274999999907,
      "v": 67
    },
    {
      "midi": 58,
      "hit": false,
      "t": 38999.96099999981,
      "d": 107.14274999999907,
      "v": 85
    },
    {
      "midi": 63,
      "hit": false,
      "t": 38999.96099999981,
      "d": 107.14274999999907,
      "v": 77
    },
    {
      "midi": 67,
      "hit": false,
      "t": 38999.96099999981,
      "d": 107.14274999999907,
      "v": 94
    },
    {
      "midi": 58,
      "hit": false,
      "t": 39214.246499999805,
      "d": 107.14274999999907,
      "v": 109
    },
    {
      "midi": 62,
      "hit": false,
      "t": 39214.246499999805,
      "d": 214.28549999999814,
      "v": 116
    },
    {
      "midi": 65,
      "hit": false,
      "t": 39214.246499999805,
      "d": 214.28549999999814,
      "v": 117
    },
    {
      "midi": 58,
      "hit": false,
      "t": 39428.5319999998,
      "d": 107.14274999999907,
      "v": 89
    },
    {
      "midi": 56,
      "hit": false,
      "t": 39642.8174999998,
      "d": 107.14274999999907,
      "v": 117
    },
    {
      "midi": 60,
      "hit": false,
      "t": 39642.8174999998,
      "d": 160.7141249999986,
      "v": 109
    },
    {
      "midi": 65,
      "hit": false,
      "t": 39642.8174999998,
      "d": 267.8568749999977,
      "v": 116
    },
    {
      "midi": 56,
      "hit": false,
      "t": 39857.1029999998,
      "d": 107.14274999999907,
      "v": 104
    },
    {
      "midi": 56,
      "hit": false,
      "t": 40071.3884999998,
      "d": 107.14274999999907,
      "v": 116
    },
    {
      "midi": 60,
      "hit": false,
      "t": 40071.3884999998,
      "d": 160.7141249999986,
      "v": 109
    },
    {
      "midi": 65,
      "hit": false,
      "t": 40071.3884999998,
      "d": 321.4282499999972,
      "v": 116
    },
    {
      "midi": 61,
      "hit": false,
      "t": 40258.888312499796,
      "d": 53.571374999999534,
      "v": 104
    },
    {
      "midi": 58,
      "hit": false,
      "t": 40285.673999999795,
      "d": 107.14274999999907,
      "v": 94
    },
    {
      "midi": 62,
      "hit": false,
      "t": 40285.673999999795,
      "d": 160.7141249999986,
      "v": 117
    },
    {
      "midi": 58,
      "hit": false,
      "t": 40499.95949999979,
      "d": 107.14274999999907,
      "v": 89
    },
    {
      "midi": 65,
      "hit": false,
      "t": 40499.95949999979,
      "d": 107.14274999999907,
      "v": 51
    },
    {
      "midi": 58,
      "hit": false,
      "t": 40714.24499999979,
      "d": 107.14274999999907,
      "v": 109
    },
    {
      "midi": 63,
      "hit": false,
      "t": 40714.24499999979,
      "d": 160.7141249999986,
      "v": 104
    },
    {
      "midi": 67,
      "hit": false,
      "t": 40714.24499999979,
      "d": 160.7141249999986,
      "v": 116
    },
    {
      "midi": 58,
      "hit": false,
      "t": 40928.53049999979,
      "d": 107.14274999999907,
      "v": 104
    },
    {
      "midi": 62,
      "hit": false,
      "t": 41142.81599999979,
      "d": 107.14274999999907,
      "v": 92
    },
    {
      "midi": 58,
      "hit": false,
      "t": 41357.101499999786,
      "d": 107.14274999999907,
      "v": 116
    },
    {
      "midi": 62,
      "hit": false,
      "t": 41357.101499999786,
      "d": 160.7141249999986,
      "v": 117
    },
    {
      "midi": 65,
      "hit": false,
      "t": 41357.101499999786,
      "d": 160.7141249999986,
      "v": 117
    },
    {
      "midi": 58,
      "hit": false,
      "t": 41571.386999999784,
      "d": 107.14274999999907,
      "v": 109
    },
    {
      "midi": 65,
      "hit": false,
      "t": 41571.386999999784,
      "d": 107.14274999999907,
      "v": 70
    },
    {
      "midi": 63,
      "hit": false,
      "t": 41785.67249999978,
      "d": 107.14274999999907,
      "v": 98
    },
    {
      "midi": 58,
      "hit": false,
      "t": 41999.95799999978,
      "d": 107.14274999999907,
      "v": 117
    },
    {
      "midi": 67,
      "hit": false,
      "t": 41999.95799999978,
      "d": 160.7141249999986,
      "v": 117
    },
    {
      "midi": 63,
      "hit": false,
      "t": 41999.95799999978,
      "d": 214.28549999999814,
      "v": 117
    },
    {
      "midi": 58,
      "hit": false,
      "t": 42214.24349999978,
      "d": 107.14274999999907,
      "v": 104
    },
    {
      "midi": 58,
      "hit": false,
      "t": 42428.52899999978,
      "d": 107.14274999999907,
      "v": 104
    },
    {
      "midi": 63,
      "hit": false,
      "t": 42428.52899999978,
      "d": 107.14274999999907,
      "v": 116
    },
    {
      "midi": 67,
      "hit": false,
      "t": 42428.52899999978,
      "d": 107.14274999999907,
      "v": 109
    },
    {
      "midi": 58,
      "hit": false,
      "t": 42642.814499999775,
      "d": 107.14274999999907,
      "v": 98
    },
    {
      "midi": 62,
      "hit": false,
      "t": 42642.814499999775,
      "d": 160.7141249999986,
      "v": 117
    },
    {
      "midi": 65,
      "hit": false,
      "t": 42642.814499999775,
      "d": 267.8568749999977,
      "v": 117
    },
    {
      "midi": 58,
      "hit": false,
      "t": 42857.09999999977,
      "d": 107.14274999999907,
      "v": 98
    },
    {
      "midi": 56,
      "hit": false,
      "t": 43071.38549999977,
      "d": 107.14274999999907,
      "v": 109
    },
    {
      "midi": 60,
      "hit": false,
      "t": 43071.38549999977,
      "d": 160.7141249999986,
      "v": 116
    },
    {
      "midi": 65,
      "hit": false,
      "t": 43071.38549999977,
      "d": 160.7141249999986,
      "v": 117
    },
    {
      "midi": 56,
      "hit": false,
      "t": 43285.67099999977,
      "d": 107.14274999999907,
      "v": 87
    },
    {
      "midi": 56,
      "hit": false,
      "t": 43499.95649999977,
      "d": 160.7141249999986,
      "v": 116
    },
    {
      "midi": 60,
      "hit": false,
      "t": 43499.95649999977,
      "d": 160.7141249999986,
      "v": 116
    },
    {
      "midi": 65,
      "hit": false,
      "t": 43499.95649999977,
      "d": 160.7141249999986,
      "v": 116
    },
    {
      "midi": 58,
      "hit": false,
      "t": 43714.241999999766,
      "d": 214.28549999999814,
      "v": 116
    },
    {
      "midi": 63,
      "hit": false,
      "t": 43714.241999999766,
      "d": 214.28549999999814,
      "v": 117
    },
    {
      "midi": 67,
      "hit": false,
      "t": 43714.241999999766,
      "d": 214.28549999999814,
      "v": 117
    },
    {
      "midi": 51,
      "hit": false,
      "t": 43928.527499999764,
      "d": 241.0711874999979,
      "v": 89
    },
    {
      "midi": 63,
      "hit": false,
      "t": 44142.81299999976,
      "d": 214.28549999999814,
      "v": 109
    },
    {
      "midi": 67,
      "hit": false,
      "t": 44142.81299999976,
      "d": 214.28549999999814,
      "v": 117
    },
    {
      "midi": 60,
      "hit": false,
      "t": 44142.81299999976,
      "d": 241.0711874999979,
      "v": 117
    },
    {
      "midi": 51,
      "hit": false,
      "t": 44357.09849999976,
      "d": 214.28549999999814,
      "v": 84
    },
    {
      "midi": 58,
      "hit": false,
      "t": 44571.38399999976,
      "d": 214.28549999999814,
      "v": 116
    },
    {
      "midi": 63,
      "hit": false,
      "t": 44571.38399999976,
      "d": 214.28549999999814,
      "v": 109
    },
    {
      "midi": 67,
      "hit": false,
      "t": 44571.38399999976,
      "d": 214.28549999999814,
      "v": 104
    },
    {
      "midi": 51,
      "hit": false,
      "t": 44785.669499999756,
      "d": 214.28549999999814,
      "v": 84
    },
    {
      "midi": 60,
      "hit": false,
      "t": 44999.954999999754,
      "d": 214.28549999999814,
      "v": 116
    },
    {
      "midi": 63,
      "hit": false,
      "t": 44999.954999999754,
      "d": 214.28549999999814,
      "v": 117
    },
    {
      "midi": 67,
      "hit": false,
      "t": 44999.954999999754,
      "d": 214.28549999999814,
      "v": 116
    },
    {
      "midi": 51,
      "hit": false,
      "t": 45214.24049999975,
      "d": 214.28549999999814,
      "v": 97
    },
    {
      "midi": 58,
      "hit": false,
      "t": 45642.81149999975,
      "d": 214.28549999999814,
      "v": 104
    },
    {
      "midi": 63,
      "hit": false,
      "t": 45642.81149999975,
      "d": 214.28549999999814,
      "v": 117
    },
    {
      "midi": 67,
      "hit": false,
      "t": 45642.81149999975,
      "d": 214.28549999999814,
      "v": 117
    },
    {
      "midi": 51,
      "hit": false,
      "t": 46071.382499999745,
      "d": 214.28549999999814,
      "v": 96
    },
    {
      "midi": 36,
      "hit": false,
      "t": 46285.66799999974,
      "d": 1.1160703124987776,
      "v": 31
    },
    {
      "midi": 91,
      "hit": false,
      "t": 46285.66799999974,
      "d": 107.14274999999907,
      "v": 31
    },
    {
      "midi": 58,
      "hit": false,
      "t": 46285.66799999974,
      "d": 642.8565000000017,
      "v": 117
    },
    {
      "midi": 63,
      "hit": false,
      "t": 46285.66799999974,
      "d": 642.8565000000017,
      "v": 117
    },
    {
      "midi": 67,
      "hit": false,
      "t": 46285.66799999974,
      "d": 642.8565000000017,
      "v": 117
    },
    {
      "midi": 60,
      "hit": false,
      "t": 47142.80999999974,
      "d": 214.28549999999814,
      "v": 117
    },
    {
      "midi": 69,
      "hit": false,
      "t": 47142.80999999974,
      "d": 214.28549999999814,
      "v": 116
    },
    {
      "midi": 65,
      "hit": false,
      "t": 47142.80999999974,
      "d": 321.4282499999972,
      "v": 109
    },
    {
      "midi": 53,
      "hit": false,
      "t": 47357.09549999974,
      "d": 214.28549999999814,
      "v": 69
    },
    {
      "midi": 62,
      "hit": false,
      "t": 47571.38099999974,
      "d": 214.28549999999814,
      "v": 116
    },
    {
      "midi": 65,
      "hit": false,
      "t": 47571.38099999974,
      "d": 214.28549999999814,
      "v": 117
    },
    {
      "midi": 69,
      "hit": false,
      "t": 47571.38099999974,
      "d": 214.28549999999814,
      "v": 116
    },
    {
      "midi": 53,
      "hit": false,
      "t": 47785.66649999974,
      "d": 214.28549999999814,
      "v": 72
    },
    {
      "midi": 60,
      "hit": false,
      "t": 47999.951999999736,
      "d": 214.28549999999814,
      "v": 117
    },
    {
      "midi": 69,
      "hit": false,
      "t": 47999.951999999736,
      "d": 214.28549999999814,
      "v": 109
    },
    {
      "midi": 65,
      "hit": false,
      "t": 47999.951999999736,
      "d": 321.4282499999972,
      "v": 109
    },
    {
      "midi": 53,
      "hit": false,
      "t": 48214.237499999734,
      "d": 241.0711874999979,
      "v": 72
    },
    {
      "midi": 62,
      "hit": false,
      "t": 48428.52299999973,
      "d": 214.28549999999814,
      "v": 117
    },
    {
      "midi": 65,
      "hit": false,
      "t": 48428.52299999973,
      "d": 214.28549999999814,
      "v": 104
    },
    {
      "midi": 69,
      "hit": false,
      "t": 48428.52299999973,
      "d": 214.28549999999814,
      "v": 109
    },
    {
      "midi": 53,
      "hit": false,
      "t": 48642.80849999973,
      "d": 214.28549999999814,
      "v": 70
    },
    {
      "midi": 60,
      "hit": false,
      "t": 48857.09399999973,
      "d": 1714.2839999999997,
      "v": 117
    },
    {
      "midi": 65,
      "hit": false,
      "t": 48857.09399999973,
      "d": 1714.2839999999997,
      "v": 98
    },
    {
      "midi": 69,
      "hit": false,
      "t": 48857.09399999973,
      "d": 1741.0696874999994,
      "v": 117
    },
    {
      "midi": 62,
      "hit": false,
      "t": 50571.37799999973,
      "d": 160.7141249999986,
      "v": 117
    },
    {
      "midi": 65,
      "hit": false,
      "t": 50571.37799999973,
      "d": 214.28549999999814,
      "v": 109
    },
    {
      "midi": 58,
      "hit": false,
      "t": 50785.663499999726,
      "d": 107.14274999999907,
      "v": 87
    },
    {
      "midi": 58,
      "hit": false,
      "t": 50999.948999999724,
      "d": 107.14274999999907,
      "v": 109
    },
    {
      "midi": 63,
      "hit": false,
      "t": 50999.948999999724,
      "d": 160.7141249999986,
      "v": 117
    },
    {
      "midi": 67,
      "hit": false,
      "t": 50999.948999999724,
      "d": 160.7141249999986,
      "v": 117
    },
    {
      "midi": 58,
      "hit": false,
      "t": 51214.23449999972,
      "d": 107.14274999999907,
      "v": 87
    },
    {
      "midi": 58,
      "hit": false,
      "t": 51428.51999999972,
      "d": 107.14274999999907,
      "v": 98
    },
    {
      "midi": 62,
      "hit": false,
      "t": 51428.51999999972,
      "d": 107.14274999999907,
      "v": 109
    },
    {
      "midi": 65,
      "hit": false,
      "t": 51428.51999999972,
      "d": 107.14274999999907,
      "v": 109
    },
    {
      "midi": 58,
      "hit": false,
      "t": 51642.80549999972,
      "d": 107.14274999999907,
      "v": 116
    },
    {
      "midi": 62,
      "hit": false,
      "t": 51642.80549999972,
      "d": 160.7141249999986,
      "v": 117
    },
    {
      "midi": 65,
      "hit": false,
      "t": 51642.80549999972,
      "d": 214.28549999999814,
      "v": 117
    },
    {
      "midi": 58,
      "hit": false,
      "t": 51857.09099999972,
      "d": 107.14274999999907,
      "v": 104
    },
    {
      "midi": 58,
      "hit": false,
      "t": 52071.376499999715,
      "d": 107.14274999999907,
      "v": 65
    },
    {
      "midi": 63,
      "hit": false,
      "t": 52071.376499999715,
      "d": 107.14274999999907,
      "v": 85
    },
    {
      "midi": 58,
      "hit": false,
      "t": 52285.66199999971,
      "d": 133.92843749999884,
      "v": 117
    },
    {
      "midi": 63,
      "hit": false,
      "t": 52285.66199999971,
      "d": 214.28549999999814,
      "v": 117
    },
    {
      "midi": 67,
      "hit": false,
      "t": 52285.66199999971,
      "d": 214.28549999999814,
      "v": 117
    },
    {
      "midi": 58,
      "hit": false,
      "t": 52499.94749999971,
      "d": 107.14274999999907,
      "v": 104
    },
    {
      "midi": 67,
      "hit": false,
      "t": 52499.94749999971,
      "d": 107.14274999999907,
      "v": 67
    },
    {
      "midi": 58,
      "hit": false,
      "t": 52714.23299999971,
      "d": 107.14274999999907,
      "v": 85
    },
    {
      "midi": 63,
      "hit": false,
      "t": 52714.23299999971,
      "d": 107.14274999999907,
      "v": 77
    },
    {
      "midi": 67,
      "hit": false,
      "t": 52714.23299999971,
      "d": 107.14274999999907,
      "v": 94
    },
    {
      "midi": 58,
      "hit": false,
      "t": 52928.51849999971,
      "d": 107.14274999999907,
      "v": 109
    },
    {
      "midi": 62,
      "hit": false,
      "t": 52928.51849999971,
      "d": 214.28549999999814,
      "v": 116
    },
    {
      "midi": 65,
      "hit": false,
      "t": 52928.51849999971,
      "d": 214.28549999999814,
      "v": 117
    },
    {
      "midi": 58,
      "hit": false,
      "t": 53142.803999999705,
      "d": 107.14274999999907,
      "v": 89
    },
    {
      "midi": 56,
      "hit": false,
      "t": 53357.0894999997,
      "d": 107.14274999999907,
      "v": 117
    },
    {
      "midi": 60,
      "hit": false,
      "t": 53357.0894999997,
      "d": 160.7141249999986,
      "v": 109
    },
    {
      "midi": 65,
      "hit": false,
      "t": 53357.0894999997,
      "d": 267.8568749999977,
      "v": 116
    },
    {
      "midi": 56,
      "hit": false,
      "t": 53571.3749999997,
      "d": 107.14274999999907,
      "v": 104
    },
    {
      "midi": 56,
      "hit": false,
      "t": 53785.6604999997,
      "d": 107.14274999999907,
      "v": 116
    },
    {
      "midi": 60,
      "hit": false,
      "t": 53785.6604999997,
      "d": 160.7141249999986,
      "v": 109
    },
    {
      "midi": 65,
      "hit": false,
      "t": 53785.6604999997,
      "d": 321.4282499999972,
      "v": 116
    },
    {
      "midi": 61,
      "hit": false,
      "t": 53973.1603124997,
      "d": 53.571374999999534,
      "v": 104
    },
    {
      "midi": 58,
      "hit": false,
      "t": 53999.9459999997,
      "d": 107.14274999999907,
      "v": 94
    },
    {
      "midi": 62,
      "hit": false,
      "t": 53999.9459999997,
      "d": 160.7141249999986,
      "v": 117
    },
    {
      "midi": 58,
      "hit": false,
      "t": 54214.231499999696,
      "d": 107.14274999999907,
      "v": 89
    },
    {
      "midi": 65,
      "hit": false,
      "t": 54214.231499999696,
      "d": 107.14274999999907,
      "v": 51
    },
    {
      "midi": 58,
      "hit": false,
      "t": 54428.516999999694,
      "d": 107.14274999999907,
      "v": 109
    },
    {
      "midi": 63,
      "hit": false,
      "t": 54428.516999999694,
      "d": 160.7141249999986,
      "v": 104
    },
    {
      "midi": 67,
      "hit": false,
      "t": 54428.516999999694,
      "d": 160.7141249999986,
      "v": 116
    },
    {
      "midi": 58,
      "hit": false,
      "t": 54642.80249999969,
      "d": 107.14274999999907,
      "v": 104
    },
    {
      "midi": 62,
      "hit": false,
      "t": 54857.08799999969,
      "d": 107.14274999999907,
      "v": 92
    },
    {
      "midi": 58,
      "hit": false,
      "t": 55071.37349999969,
      "d": 107.14274999999907,
      "v": 116
    },
    {
      "midi": 62,
      "hit": false,
      "t": 55071.37349999969,
      "d": 160.7141249999986,
      "v": 117
    },
    {
      "midi": 65,
      "hit": false,
      "t": 55071.37349999969,
      "d": 160.7141249999986,
      "v": 117
    },
    {
      "midi": 58,
      "hit": false,
      "t": 55285.65899999969,
      "d": 107.14274999999907,
      "v": 109
    },
    {
      "midi": 65,
      "hit": false,
      "t": 55285.65899999969,
      "d": 107.14274999999907,
      "v": 70
    },
    {
      "midi": 63,
      "hit": false,
      "t": 55499.944499999685,
      "d": 107.14274999999907,
      "v": 98
    },
    {
      "midi": 58,
      "hit": false,
      "t": 55714.22999999968,
      "d": 107.14274999999907,
      "v": 117
    },
    {
      "midi": 67,
      "hit": false,
      "t": 55714.22999999968,
      "d": 160.7141249999986,
      "v": 117
    },
    {
      "midi": 63,
      "hit": false,
      "t": 55714.22999999968,
      "d": 214.28549999999814,
      "v": 117
    },
    {
      "midi": 58,
      "hit": false,
      "t": 55928.51549999968,
      "d": 107.14274999999907,
      "v": 104
    },
    {
      "midi": 58,
      "hit": false,
      "t": 56142.80099999968,
      "d": 107.14274999999907,
      "v": 104
    },
    {
      "midi": 63,
      "hit": false,
      "t": 56142.80099999968,
      "d": 107.14274999999907,
      "v": 116
    },
    {
      "midi": 67,
      "hit": false,
      "t": 56142.80099999968,
      "d": 107.14274999999907,
      "v": 109
    },
    {
      "midi": 58,
      "hit": false,
      "t": 56357.08649999968,
      "d": 107.14274999999907,
      "v": 98
    },
    {
      "midi": 62,
      "hit": false,
      "t": 56357.08649999968,
      "d": 160.7141249999986,
      "v": 117
    },
    {
      "midi": 65,
      "hit": false,
      "t": 56357.08649999968,
      "d": 267.8568749999977,
      "v": 117
    },
    {
      "midi": 58,
      "hit": false,
      "t": 56571.371999999676,
      "d": 107.14274999999907,
      "v": 98
    },
    {
      "midi": 56,
      "hit": false,
      "t": 56785.657499999674,
      "d": 107.14274999999907,
      "v": 109
    },
    {
      "midi": 60,
      "hit": false,
      "t": 56785.657499999674,
      "d": 160.7141249999986,
      "v": 116
    },
    {
      "midi": 65,
      "hit": false,
      "t": 56785.657499999674,
      "d": 160.7141249999986,
      "v": 117
    },
    {
      "midi": 56,
      "hit": false,
      "t": 56999.94299999967,
      "d": 107.14274999999907,
      "v": 87
    },
    {
      "midi": 56,
      "hit": false,
      "t": 57214.22849999967,
      "d": 160.7141249999986,
      "v": 116
    },
    {
      "midi": 60,
      "hit": false,
      "t": 57214.22849999967,
      "d": 160.7141249999986,
      "v": 116
    },
    {
      "midi": 65,
      "hit": false,
      "t": 57214.22849999967,
      "d": 160.7141249999986,
      "v": 116
    },
    {
      "midi": 62,
      "hit": false,
      "t": 57428.51399999967,
      "d": 160.7141249999986,
      "v": 117
    },
    {
      "midi": 65,
      "hit": false,
      "t": 57428.51399999967,
      "d": 214.28549999999814,
      "v": 109
    },
    {
      "midi": 58,
      "hit": false,
      "t": 57642.799499999666,
      "d": 107.14274999999907,
      "v": 87
    },
    {
      "midi": 58,
      "hit": false,
      "t": 57857.084999999664,
      "d": 107.14274999999907,
      "v": 109
    },
    {
      "midi": 63,
      "hit": false,
      "t": 57857.084999999664,
      "d": 160.7141249999986,
      "v": 117
    },
    {
      "midi": 67,
      "hit": false,
      "t": 57857.084999999664,
      "d": 160.7141249999986,
      "v": 117
    },
    {
      "midi": 58,
      "hit": false,
      "t": 58071.37049999966,
      "d": 107.14274999999907,
      "v": 87
    },
    {
      "midi": 58,
      "hit": false,
      "t": 58285.65599999966,
      "d": 107.14274999999907,
      "v": 98
    },
    {
      "midi": 62,
      "hit": false,
      "t": 58285.65599999966,
      "d": 107.14274999999907,
      "v": 109
    },
    {
      "midi": 65,
      "hit": false,
      "t": 58285.65599999966,
      "d": 107.14274999999907,
      "v": 109
    },
    {
      "midi": 58,
      "hit": false,
      "t": 58499.94149999966,
      "d": 107.14274999999907,
      "v": 116
    },
    {
      "midi": 62,
      "hit": false,
      "t": 58499.94149999966,
      "d": 160.7141249999986,
      "v": 117
    },
    {
      "midi": 65,
      "hit": false,
      "t": 58499.94149999966,
      "d": 214.28549999999814,
      "v": 117
    },
    {
      "midi": 58,
      "hit": false,
      "t": 58714.22699999966,
      "d": 107.14274999999907,
      "v": 104
    },
    {
      "midi": 58,
      "hit": false,
      "t": 58928.512499999655,
      "d": 107.14274999999907,
      "v": 65
    },
    {
      "midi": 63,
      "hit": false,
      "t": 58928.512499999655,
      "d": 107.14274999999907,
      "v": 85
    },
    {
      "midi": 58,
      "hit": false,
      "t": 59142.79799999965,
      "d": 133.92843749999884,
      "v": 117
    },
    {
      "midi": 63,
      "hit": false,
      "t": 59142.79799999965,
      "d": 214.28549999999814,
      "v": 117
    },
    {
      "midi": 67,
      "hit": false,
      "t": 59142.79799999965,
      "d": 214.28549999999814,
      "v": 117
    },
    {
      "midi": 58,
      "hit": false,
      "t": 59357.08349999965,
      "d": 107.14274999999907,
      "v": 104
    },
    {
      "midi": 67,
      "hit": false,
      "t": 59357.08349999965,
      "d": 107.14274999999907,
      "v": 67
    },
    {
      "midi": 58,
      "hit": false,
      "t": 59571.36899999965,
      "d": 107.14274999999907,
      "v": 85
    },
    {
      "midi": 63,
      "hit": false,
      "t": 59571.36899999965,
      "d": 107.14274999999907,
      "v": 77
    },
    {
      "midi": 67,
      "hit": false,
      "t": 59571.36899999965,
      "d": 107.14274999999907,
      "v": 94
    },
    {
      "midi": 58,
      "hit": false,
      "t": 59785.65449999965,
      "d": 107.14274999999907,
      "v": 109
    },
    {
      "midi": 62,
      "hit": false,
      "t": 59785.65449999965,
      "d": 214.28549999999814,
      "v": 116
    },
    {
      "midi": 65,
      "hit": false,
      "t": 59785.65449999965,
      "d": 214.28549999999814,
      "v": 117
    },
    {
      "midi": 58,
      "hit": false,
      "t": 59999.939999999646,
      "d": 107.14274999999907,
      "v": 89
    },
    {
      "midi": 56,
      "hit": false,
      "t": 60214.225499999644,
      "d": 107.14274999999907,
      "v": 117
    },
    {
      "midi": 60,
      "hit": false,
      "t": 60214.225499999644,
      "d": 160.7141249999986,
      "v": 109
    },
    {
      "midi": 65,
      "hit": false,
      "t": 60214.225499999644,
      "d": 267.8568749999977,
      "v": 116
    },
    {
      "midi": 56,
      "hit": false,
      "t": 60428.51099999964,
      "d": 107.14274999999907,
      "v": 104
    },
    {
      "midi": 56,
      "hit": false,
      "t": 60642.79649999964,
      "d": 107.14274999999907,
      "v": 116
    },
    {
      "midi": 60,
      "hit": false,
      "t": 60642.79649999964,
      "d": 160.7141249999986,
      "v": 109
    },
    {
      "midi": 65,
      "hit": false,
      "t": 60642.79649999964,
      "d": 321.4282499999972,
      "v": 116
    },
    {
      "midi": 61,
      "hit": false,
      "t": 60830.29631249964,
      "d": 53.571374999999534,
      "v": 104
    },
    {
      "midi": 58,
      "hit": false,
      "t": 60857.08199999964,
      "d": 107.14274999999907,
      "v": 94
    },
    {
      "midi": 62,
      "hit": false,
      "t": 60857.08199999964,
      "d": 160.7141249999986,
      "v": 117
    },
    {
      "midi": 58,
      "hit": false,
      "t": 61071.36749999964,
      "d": 107.14274999999907,
      "v": 89
    },
    {
      "midi": 65,
      "hit": false,
      "t": 61071.36749999964,
      "d": 107.14274999999907,
      "v": 51
    },
    {
      "midi": 58,
      "hit": false,
      "t": 61285.652999999635,
      "d": 107.14274999999907,
      "v": 109
    },
    {
      "midi": 63,
      "hit": false,
      "t": 61285.652999999635,
      "d": 160.7141249999986,
      "v": 104
    },
    {
      "midi": 67,
      "hit": false,
      "t": 61285.652999999635,
      "d": 160.7141249999986,
      "v": 116
    },
    {
      "midi": 58,
      "hit": false,
      "t": 61499.93849999963,
      "d": 107.14274999999907,
      "v": 104
    },
    {
      "midi": 62,
      "hit": false,
      "t": 61714.22399999963,
      "d": 107.14274999999907,
      "v": 92
    },
    {
      "midi": 58,
      "hit": false,
      "t": 61928.50949999963,
      "d": 107.14274999999907,
      "v": 116
    },
    {
      "midi": 62,
      "hit": false,
      "t": 61928.50949999963,
      "d": 160.7141249999986,
      "v": 117
    },
    {
      "midi": 65,
      "hit": false,
      "t": 61928.50949999963,
      "d": 160.7141249999986,
      "v": 117
    },
    {
      "midi": 58,
      "hit": false,
      "t": 62142.79499999963,
      "d": 107.14274999999907,
      "v": 109
    },
    {
      "midi": 65,
      "hit": false,
      "t": 62142.79499999963,
      "d": 107.14274999999907,
      "v": 70
    },
    {
      "midi": 63,
      "hit": false,
      "t": 62357.080499999625,
      "d": 107.14274999999907,
      "v": 98
    },
    {
      "midi": 58,
      "hit": false,
      "t": 62571.36599999962,
      "d": 107.14274999999907,
      "v": 117
    },
    {
      "midi": 67,
      "hit": false,
      "t": 62571.36599999962,
      "d": 160.7141249999986,
      "v": 117
    },
    {
      "midi": 63,
      "hit": false,
      "t": 62571.36599999962,
      "d": 214.28549999999814,
      "v": 117
    },
    {
      "midi": 58,
      "hit": false,
      "t": 62785.65149999962,
      "d": 107.14274999999907,
      "v": 104
    },
    {
      "midi": 58,
      "hit": false,
      "t": 62999.93699999962,
      "d": 107.14274999999907,
      "v": 104
    },
    {
      "midi": 63,
      "hit": false,
      "t": 62999.93699999962,
      "d": 107.14274999999907,
      "v": 116
    },
    {
      "midi": 67,
      "hit": false,
      "t": 62999.93699999962,
      "d": 107.14274999999907,
      "v": 109
    },
    {
      "midi": 58,
      "hit": false,
      "t": 63214.22249999962,
      "d": 107.14274999999907,
      "v": 98
    },
    {
      "midi": 62,
      "hit": false,
      "t": 63214.22249999962,
      "d": 160.7141249999986,
      "v": 117
    },
    {
      "midi": 65,
      "hit": false,
      "t": 63214.22249999962,
      "d": 267.8568749999977,
      "v": 117
    },
    {
      "midi": 58,
      "hit": false,
      "t": 63428.507999999616,
      "d": 107.14274999999907,
      "v": 98
    },
    {
      "midi": 56,
      "hit": false,
      "t": 63642.793499999614,
      "d": 107.14274999999907,
      "v": 109
    },
    {
      "midi": 60,
      "hit": false,
      "t": 63642.793499999614,
      "d": 160.7141249999986,
      "v": 116
    },
    {
      "midi": 65,
      "hit": false,
      "t": 63642.793499999614,
      "d": 160.7141249999986,
      "v": 117
    },
    {
      "midi": 56,
      "hit": false,
      "t": 63857.07899999961,
      "d": 107.14274999999907,
      "v": 87
    },
    {
      "midi": 56,
      "hit": false,
      "t": 64071.36449999961,
      "d": 160.7141249999986,
      "v": 116
    },
    {
      "midi": 60,
      "hit": false,
      "t": 64071.36449999961,
      "d": 160.7141249999986,
      "v": 116
    },
    {
      "midi": 65,
      "hit": false,
      "t": 64071.36449999961,
      "d": 160.7141249999986,
      "v": 116
    },
    {
      "midi": 62,
      "hit": false,
      "t": 64285.64999999961,
      "d": 160.7141249999986,
      "v": 117
    },
    {
      "midi": 65,
      "hit": false,
      "t": 64285.64999999961,
      "d": 214.28549999999814,
      "v": 109
    },
    {
      "midi": 58,
      "hit": false,
      "t": 64499.93549999961,
      "d": 107.14274999999907,
      "v": 87
    },
    {
      "midi": 58,
      "hit": false,
      "t": 64714.220999999605,
      "d": 107.14274999999907,
      "v": 109
    },
    {
      "midi": 63,
      "hit": false,
      "t": 64714.220999999605,
      "d": 160.7141249999986,
      "v": 117
    },
    {
      "midi": 67,
      "hit": false,
      "t": 64714.220999999605,
      "d": 160.7141249999986,
      "v": 117
    },
    {
      "midi": 58,
      "hit": false,
      "t": 64928.5064999996,
      "d": 107.14274999999907,
      "v": 87
    },
    {
      "midi": 58,
      "hit": false,
      "t": 65142.7919999996,
      "d": 107.14274999999907,
      "v": 98
    },
    {
      "midi": 62,
      "hit": false,
      "t": 65142.7919999996,
      "d": 107.14274999999907,
      "v": 109
    },
    {
      "midi": 65,
      "hit": false,
      "t": 65142.7919999996,
      "d": 107.14274999999907,
      "v": 109
    },
    {
      "midi": 58,
      "hit": false,
      "t": 65357.0774999996,
      "d": 107.14274999999907,
      "v": 116
    },
    {
      "midi": 62,
      "hit": false,
      "t": 65357.0774999996,
      "d": 160.7141249999986,
      "v": 117
    },
    {
      "midi": 65,
      "hit": false,
      "t": 65357.0774999996,
      "d": 214.2855000000054,
      "v": 117
    },
    {
      "midi": 58,
      "hit": false,
      "t": 65571.3629999996,
      "d": 107.14274999999907,
      "v": 104
    },
    {
      "midi": 58,
      "hit": false,
      "t": 65785.6484999996,
      "d": 107.14274999999907,
      "v": 65
    },
    {
      "midi": 63,
      "hit": false,
      "t": 65785.6484999996,
      "d": 107.14274999999907,
      "v": 85
    },
    {
      "midi": 58,
      "hit": false,
      "t": 65999.9339999996,
      "d": 133.92843749999884,
      "v": 117
    },
    {
      "midi": 63,
      "hit": false,
      "t": 65999.9339999996,
      "d": 214.28549999999814,
      "v": 117
    },
    {
      "midi": 67,
      "hit": false,
      "t": 65999.9339999996,
      "d": 214.28549999999814,
      "v": 117
    },
    {
      "midi": 58,
      "hit": false,
      "t": 66214.2194999996,
      "d": 107.14274999999907,
      "v": 104
    },
    {
      "midi": 67,
      "hit": false,
      "t": 66214.2194999996,
      "d": 107.14274999999907,
      "v": 67
    },
    {
      "midi": 58,
      "hit": false,
      "t": 66428.5049999996,
      "d": 107.14274999999907,
      "v": 85
    },
    {
      "midi": 63,
      "hit": false,
      "t": 66428.5049999996,
      "d": 107.14274999999907,
      "v": 77
    },
    {
      "midi": 67,
      "hit": false,
      "t": 66428.5049999996,
      "d": 107.14274999999907,
      "v": 94
    },
    {
      "midi": 58,
      "hit": false,
      "t": 66642.7904999996,
      "d": 107.14274999999907,
      "v": 109
    },
    {
      "midi": 62,
      "hit": false,
      "t": 66642.7904999996,
      "d": 214.28549999999814,
      "v": 116
    },
    {
      "midi": 65,
      "hit": false,
      "t": 66642.7904999996,
      "d": 214.28549999999814,
      "v": 117
    },
    {
      "midi": 58,
      "hit": false,
      "t": 66857.0759999996,
      "d": 107.14274999999907,
      "v": 89
    },
    {
      "midi": 56,
      "hit": false,
      "t": 67071.36149999959,
      "d": 107.14274999999907,
      "v": 117
    },
    {
      "midi": 60,
      "hit": false,
      "t": 67071.36149999959,
      "d": 160.7141249999986,
      "v": 109
    },
    {
      "midi": 65,
      "hit": false,
      "t": 67071.36149999959,
      "d": 267.8568749999977,
      "v": 116
    },
    {
      "midi": 56,
      "hit": false,
      "t": 67285.64699999959,
      "d": 107.14274999999907,
      "v": 104
    },
    {
      "midi": 56,
      "hit": false,
      "t": 67499.93249999959,
      "d": 107.14274999999907,
      "v": 116
    },
    {
      "midi": 60,
      "hit": false,
      "t": 67499.93249999959,
      "d": 160.7141249999986,
      "v": 109
    },
    {
      "midi": 65,
      "hit": false,
      "t": 67499.93249999959,
      "d": 321.4282499999972,
      "v": 116
    },
    {
      "midi": 61,
      "hit": false,
      "t": 67687.43231249959,
      "d": 53.571374999999534,
      "v": 104
    },
    {
      "midi": 58,
      "hit": false,
      "t": 67714.21799999959,
      "d": 107.14274999999907,
      "v": 94
    },
    {
      "midi": 62,
      "hit": false,
      "t": 67714.21799999959,
      "d": 160.7141249999986,
      "v": 117
    },
    {
      "midi": 58,
      "hit": false,
      "t": 67928.50349999958,
      "d": 107.14274999999907,
      "v": 89
    },
    {
      "midi": 65,
      "hit": false,
      "t": 67928.50349999958,
      "d": 107.14274999999907,
      "v": 51
    },
    {
      "midi": 58,
      "hit": false,
      "t": 68142.78899999958,
      "d": 107.14274999999907,
      "v": 109
    },
    {
      "midi": 63,
      "hit": false,
      "t": 68142.78899999958,
      "d": 160.7141249999986,
      "v": 104
    },
    {
      "midi": 67,
      "hit": false,
      "t": 68142.78899999958,
      "d": 160.7141249999986,
      "v": 116
    },
    {
      "midi": 58,
      "hit": false,
      "t": 68357.07449999958,
      "d": 107.14274999999907,
      "v": 104
    },
    {
      "midi": 62,
      "hit": false,
      "t": 68571.35999999958,
      "d": 107.14274999999907,
      "v": 92
    },
    {
      "midi": 58,
      "hit": false,
      "t": 68785.64549999958,
      "d": 107.14274999999907,
      "v": 116
    },
    {
      "midi": 62,
      "hit": false,
      "t": 68785.64549999958,
      "d": 160.7141249999986,
      "v": 117
    },
    {
      "midi": 65,
      "hit": false,
      "t": 68785.64549999958,
      "d": 160.7141249999986,
      "v": 117
    },
    {
      "midi": 58,
      "hit": false,
      "t": 68999.93099999957,
      "d": 107.14274999999907,
      "v": 109
    },
    {
      "midi": 65,
      "hit": false,
      "t": 68999.93099999957,
      "d": 107.14274999999907,
      "v": 70
    },
    {
      "midi": 63,
      "hit": false,
      "t": 69214.21649999957,
      "d": 107.14274999999907,
      "v": 98
    },
    {
      "midi": 58,
      "hit": false,
      "t": 69428.50199999957,
      "d": 107.14274999999907,
      "v": 117
    },
    {
      "midi": 67,
      "hit": false,
      "t": 69428.50199999957,
      "d": 160.7141249999986,
      "v": 117
    },
    {
      "midi": 63,
      "hit": false,
      "t": 69428.50199999957,
      "d": 214.28549999999814,
      "v": 117
    },
    {
      "midi": 58,
      "hit": false,
      "t": 69642.78749999957,
      "d": 107.14274999999907,
      "v": 104
    },
    {
      "midi": 58,
      "hit": false,
      "t": 69857.07299999957,
      "d": 107.14274999999907,
      "v": 104
    },
    {
      "midi": 63,
      "hit": false,
      "t": 69857.07299999957,
      "d": 107.14274999999907,
      "v": 116
    },
    {
      "midi": 67,
      "hit": false,
      "t": 69857.07299999957,
      "d": 107.14274999999907,
      "v": 109
    },
    {
      "midi": 58,
      "hit": false,
      "t": 70071.35849999957,
      "d": 107.14274999999907,
      "v": 98
    },
    {
      "midi": 62,
      "hit": false,
      "t": 70071.35849999957,
      "d": 160.7141249999986,
      "v": 117
    },
    {
      "midi": 65,
      "hit": false,
      "t": 70071.35849999957,
      "d": 267.8568749999977,
      "v": 117
    },
    {
      "midi": 58,
      "hit": false,
      "t": 70285.64399999956,
      "d": 107.14274999999907,
      "v": 98
    },
    {
      "midi": 56,
      "hit": false,
      "t": 70499.92949999956,
      "d": 107.14274999999907,
      "v": 109
    },
    {
      "midi": 60,
      "hit": false,
      "t": 70499.92949999956,
      "d": 160.7141249999986,
      "v": 116
    },
    {
      "midi": 65,
      "hit": false,
      "t": 70499.92949999956,
      "d": 160.7141249999986,
      "v": 117
    },
    {
      "midi": 56,
      "hit": false,
      "t": 70714.21499999956,
      "d": 107.14274999999907,
      "v": 87
    },
    {
      "midi": 56,
      "hit": false,
      "t": 70928.50049999956,
      "d": 160.7141249999986,
      "v": 116
    },
    {
      "midi": 60,
      "hit": false,
      "t": 70928.50049999956,
      "d": 160.7141249999986,
      "v": 116
    },
    {
      "midi": 65,
      "hit": false,
      "t": 70928.50049999956,
      "d": 160.7141249999986,
      "v": 116
    },
    {
      "midi": 62,
      "hit": false,
      "t": 71142.78599999956,
      "d": 160.7141249999986,
      "v": 117
    },
    {
      "midi": 65,
      "hit": false,
      "t": 71142.78599999956,
      "d": 214.28549999999814,
      "v": 109
    },
    {
      "midi": 58,
      "hit": false,
      "t": 71357.07149999955,
      "d": 107.14274999999907,
      "v": 87
    },
    {
      "midi": 58,
      "hit": false,
      "t": 71571.35699999955,
      "d": 107.14274999999907,
      "v": 109
    },
    {
      "midi": 63,
      "hit": false,
      "t": 71571.35699999955,
      "d": 160.7141249999986,
      "v": 117
    },
    {
      "midi": 67,
      "hit": false,
      "t": 71571.35699999955,
      "d": 160.7141249999986,
      "v": 117
    },
    {
      "midi": 58,
      "hit": false,
      "t": 71785.64249999955,
      "d": 107.14274999999907,
      "v": 87
    },
    {
      "midi": 58,
      "hit": false,
      "t": 71999.92799999955,
      "d": 107.14274999999907,
      "v": 98
    },
    {
      "midi": 62,
      "hit": false,
      "t": 71999.92799999955,
      "d": 107.14274999999907,
      "v": 109
    },
    {
      "midi": 65,
      "hit": false,
      "t": 71999.92799999955,
      "d": 107.14274999999907,
      "v": 109
    },
    {
      "midi": 58,
      "hit": false,
      "t": 72214.21349999955,
      "d": 107.14274999999907,
      "v": 116
    },
    {
      "midi": 62,
      "hit": false,
      "t": 72214.21349999955,
      "d": 160.7141249999986,
      "v": 117
    },
    {
      "midi": 65,
      "hit": false,
      "t": 72214.21349999955,
      "d": 214.28549999999814,
      "v": 117
    },
    {
      "midi": 58,
      "hit": false,
      "t": 72428.49899999955,
      "d": 107.14274999999907,
      "v": 104
    },
    {
      "midi": 58,
      "hit": false,
      "t": 72642.78449999954,
      "d": 107.14274999999907,
      "v": 65
    },
    {
      "midi": 63,
      "hit": false,
      "t": 72642.78449999954,
      "d": 107.14274999999907,
      "v": 85
    },
    {
      "midi": 58,
      "hit": false,
      "t": 72857.06999999954,
      "d": 133.92843749999884,
      "v": 117
    },
    {
      "midi": 63,
      "hit": false,
      "t": 72857.06999999954,
      "d": 214.28549999999814,
      "v": 117
    },
    {
      "midi": 67,
      "hit": false,
      "t": 72857.06999999954,
      "d": 214.28549999999814,
      "v": 117
    },
    {
      "midi": 58,
      "hit": false,
      "t": 73071.35549999954,
      "d": 107.14274999999907,
      "v": 104
    },
    {
      "midi": 67,
      "hit": false,
      "t": 73071.35549999954,
      "d": 107.14274999999907,
      "v": 67
    },
    {
      "midi": 58,
      "hit": false,
      "t": 73285.64099999954,
      "d": 107.14274999999907,
      "v": 85
    },
    {
      "midi": 63,
      "hit": false,
      "t": 73285.64099999954,
      "d": 107.14274999999907,
      "v": 77
    },
    {
      "midi": 67,
      "hit": false,
      "t": 73285.64099999954,
      "d": 107.14274999999907,
      "v": 94
    },
    {
      "midi": 58,
      "hit": false,
      "t": 73499.92649999954,
      "d": 107.14274999999907,
      "v": 109
    },
    {
      "midi": 62,
      "hit": false,
      "t": 73499.92649999954,
      "d": 214.28549999999814,
      "v": 116
    },
    {
      "midi": 65,
      "hit": false,
      "t": 73499.92649999954,
      "d": 214.28549999999814,
      "v": 117
    },
    {
      "midi": 58,
      "hit": false,
      "t": 73714.21199999953,
      "d": 107.14274999999907,
      "v": 89
    },
    {
      "midi": 56,
      "hit": false,
      "t": 73928.49749999953,
      "d": 107.14274999999907,
      "v": 117
    },
    {
      "midi": 60,
      "hit": false,
      "t": 73928.49749999953,
      "d": 160.7141249999986,
      "v": 109
    },
    {
      "midi": 65,
      "hit": false,
      "t": 73928.49749999953,
      "d": 267.8568749999977,
      "v": 116
    },
    {
      "midi": 56,
      "hit": false,
      "t": 74142.78299999953,
      "d": 107.14274999999907,
      "v": 104
    },
    {
      "midi": 56,
      "hit": false,
      "t": 74357.06849999953,
      "d": 107.14274999999907,
      "v": 116
    },
    {
      "midi": 60,
      "hit": false,
      "t": 74357.06849999953,
      "d": 160.7141249999986,
      "v": 109
    },
    {
      "midi": 65,
      "hit": false,
      "t": 74357.06849999953,
      "d": 321.4282499999972,
      "v": 116
    },
    {
      "midi": 61,
      "hit": false,
      "t": 74544.56831249953,
      "d": 53.571374999999534,
      "v": 104
    },
    {
      "midi": 58,
      "hit": false,
      "t": 74571.35399999953,
      "d": 107.14274999999907,
      "v": 94
    },
    {
      "midi": 62,
      "hit": false,
      "t": 74571.35399999953,
      "d": 160.7141249999986,
      "v": 117
    },
    {
      "midi": 58,
      "hit": false,
      "t": 74785.63949999952,
      "d": 107.14274999999907,
      "v": 89
    },
    {
      "midi": 65,
      "hit": false,
      "t": 74785.63949999952,
      "d": 107.14274999999907,
      "v": 51
    },
    {
      "midi": 58,
      "hit": false,
      "t": 74999.92499999952,
      "d": 107.14274999999907,
      "v": 109
    },
    {
      "midi": 63,
      "hit": false,
      "t": 74999.92499999952,
      "d": 160.7141249999986,
      "v": 104
    },
    {
      "midi": 67,
      "hit": false,
      "t": 74999.92499999952,
      "d": 160.7141249999986,
      "v": 116
    },
    {
      "midi": 58,
      "hit": false,
      "t": 75214.21049999952,
      "d": 107.14274999999907,
      "v": 104
    },
    {
      "midi": 62,
      "hit": false,
      "t": 75428.49599999952,
      "d": 107.14274999999907,
      "v": 92
    },
    {
      "midi": 58,
      "hit": false,
      "t": 75642.78149999952,
      "d": 107.14274999999907,
      "v": 116
    },
    {
      "midi": 62,
      "hit": false,
      "t": 75642.78149999952,
      "d": 160.7141249999986,
      "v": 117
    },
    {
      "midi": 65,
      "hit": false,
      "t": 75642.78149999952,
      "d": 160.7141249999986,
      "v": 117
    },
    {
      "midi": 58,
      "hit": false,
      "t": 75857.06699999952,
      "d": 107.14274999999907,
      "v": 109
    },
    {
      "midi": 65,
      "hit": false,
      "t": 75857.06699999952,
      "d": 107.14274999999907,
      "v": 70
    },
    {
      "midi": 63,
      "hit": false,
      "t": 76071.35249999951,
      "d": 107.14274999999907,
      "v": 98
    },
    {
      "midi": 58,
      "hit": false,
      "t": 76285.63799999951,
      "d": 107.14274999999907,
      "v": 117
    },
    {
      "midi": 67,
      "hit": false,
      "t": 76285.63799999951,
      "d": 160.7141249999986,
      "v": 117
    },
    {
      "midi": 63,
      "hit": false,
      "t": 76285.63799999951,
      "d": 214.28549999999814,
      "v": 117
    },
    {
      "midi": 58,
      "hit": false,
      "t": 76499.92349999951,
      "d": 107.14274999999907,
      "v": 104
    },
    {
      "midi": 58,
      "hit": false,
      "t": 76714.20899999951,
      "d": 107.14274999999907,
      "v": 104
    },
    {
      "midi": 63,
      "hit": false,
      "t": 76714.20899999951,
      "d": 107.14274999999907,
      "v": 116
    },
    {
      "midi": 67,
      "hit": false,
      "t": 76714.20899999951,
      "d": 107.14274999999907,
      "v": 109
    },
    {
      "midi": 58,
      "hit": false,
      "t": 76928.4944999995,
      "d": 107.14274999999907,
      "v": 98
    },
    {
      "midi": 62,
      "hit": false,
      "t": 76928.4944999995,
      "d": 160.7141249999986,
      "v": 117
    },
    {
      "midi": 65,
      "hit": false,
      "t": 76928.4944999995,
      "d": 267.8568749999977,
      "v": 117
    },
    {
      "midi": 58,
      "hit": false,
      "t": 77142.7799999995,
      "d": 107.14274999999907,
      "v": 98
    },
    {
      "midi": 56,
      "hit": false,
      "t": 77357.0654999995,
      "d": 107.14274999999907,
      "v": 109
    },
    {
      "midi": 60,
      "hit": false,
      "t": 77357.0654999995,
      "d": 160.7141249999986,
      "v": 116
    },
    {
      "midi": 65,
      "hit": false,
      "t": 77357.0654999995,
      "d": 160.7141249999986,
      "v": 117
    },
    {
      "midi": 56,
      "hit": false,
      "t": 77571.3509999995,
      "d": 107.14274999999907,
      "v": 87
    },
    {
      "midi": 56,
      "hit": false,
      "t": 77785.6364999995,
      "d": 160.7141249999986,
      "v": 116
    },
    {
      "midi": 60,
      "hit": false,
      "t": 77785.6364999995,
      "d": 160.7141249999986,
      "v": 116
    },
    {
      "midi": 65,
      "hit": false,
      "t": 77785.6364999995,
      "d": 160.7141249999986,
      "v": 116
    },
    {
      "midi": 62,
      "hit": false,
      "t": 77999.9219999995,
      "d": 160.7141249999986,
      "v": 117
    },
    {
      "midi": 65,
      "hit": false,
      "t": 77999.9219999995,
      "d": 214.28549999999814,
      "v": 109
    },
    {
      "midi": 58,
      "hit": false,
      "t": 78214.2074999995,
      "d": 107.14274999999907,
      "v": 87
    },
    {
      "midi": 58,
      "hit": false,
      "t": 78428.4929999995,
      "d": 107.14274999999907,
      "v": 109
    },
    {
      "midi": 63,
      "hit": false,
      "t": 78428.4929999995,
      "d": 160.7141249999986,
      "v": 117
    },
    {
      "midi": 67,
      "hit": false,
      "t": 78428.4929999995,
      "d": 160.7141249999986,
      "v": 117
    },
    {
      "midi": 58,
      "hit": false,
      "t": 78642.77849999949,
      "d": 107.14274999999907,
      "v": 87
    },
    {
      "midi": 58,
      "hit": false,
      "t": 78857.06399999949,
      "d": 107.14274999999907,
      "v": 98
    },
    {
      "midi": 62,
      "hit": false,
      "t": 78857.06399999949,
      "d": 107.14274999999907,
      "v": 109
    },
    {
      "midi": 65,
      "hit": false,
      "t": 78857.06399999949,
      "d": 107.14274999999907,
      "v": 109
    },
    {
      "midi": 58,
      "hit": false,
      "t": 79071.34949999949,
      "d": 107.14274999999907,
      "v": 116
    },
    {
      "midi": 62,
      "hit": false,
      "t": 79071.34949999949,
      "d": 160.7141249999986,
      "v": 117
    },
    {
      "midi": 65,
      "hit": false,
      "t": 79071.34949999949,
      "d": 214.28549999999814,
      "v": 117
    },
    {
      "midi": 58,
      "hit": false,
      "t": 79285.63499999949,
      "d": 107.14274999999907,
      "v": 104
    },
    {
      "midi": 58,
      "hit": false,
      "t": 79499.92049999948,
      "d": 107.14274999999907,
      "v": 65
    },
    {
      "midi": 63,
      "hit": false,
      "t": 79499.92049999948,
      "d": 107.14274999999907,
      "v": 85
    },
    {
      "midi": 58,
      "hit": false,
      "t": 79714.20599999948,
      "d": 133.92843749999884,
      "v": 117
    },
    {
      "midi": 63,
      "hit": false,
      "t": 79714.20599999948,
      "d": 214.28549999999814,
      "v": 117
    },
    {
      "midi": 67,
      "hit": false,
      "t": 79714.20599999948,
      "d": 214.28549999999814,
      "v": 117
    },
    {
      "midi": 58,
      "hit": false,
      "t": 79928.49149999948,
      "d": 107.14274999999907,
      "v": 104
    },
    {
      "midi": 67,
      "hit": false,
      "t": 79928.49149999948,
      "d": 107.14274999999907,
      "v": 67
    },
    {
      "midi": 58,
      "hit": false,
      "t": 80142.77699999948,
      "d": 107.14274999999907,
      "v": 85
    },
    {
      "midi": 63,
      "hit": false,
      "t": 80142.77699999948,
      "d": 107.14274999999907,
      "v": 77
    },
    {
      "midi": 67,
      "hit": false,
      "t": 80142.77699999948,
      "d": 107.14274999999907,
      "v": 94
    },
    {
      "midi": 58,
      "hit": false,
      "t": 80357.06249999948,
      "d": 107.14274999999907,
      "v": 109
    },
    {
      "midi": 62,
      "hit": false,
      "t": 80357.06249999948,
      "d": 214.28549999999814,
      "v": 116
    },
    {
      "midi": 65,
      "hit": false,
      "t": 80357.06249999948,
      "d": 214.28549999999814,
      "v": 117
    },
    {
      "midi": 58,
      "hit": false,
      "t": 80571.34799999947,
      "d": 107.14274999999907,
      "v": 89
    },
    {
      "midi": 56,
      "hit": false,
      "t": 80785.63349999947,
      "d": 107.14274999999907,
      "v": 117
    },
    {
      "midi": 60,
      "hit": false,
      "t": 80785.63349999947,
      "d": 160.7141249999986,
      "v": 109
    },
    {
      "midi": 65,
      "hit": false,
      "t": 80785.63349999947,
      "d": 267.8568749999977,
      "v": 116
    },
    {
      "midi": 56,
      "hit": false,
      "t": 80999.91899999947,
      "d": 107.14274999999907,
      "v": 104
    },
    {
      "midi": 56,
      "hit": false,
      "t": 81214.20449999947,
      "d": 107.14274999999907,
      "v": 116
    },
    {
      "midi": 60,
      "hit": false,
      "t": 81214.20449999947,
      "d": 160.7141249999986,
      "v": 109
    },
    {
      "midi": 65,
      "hit": false,
      "t": 81214.20449999947,
      "d": 321.4282499999972,
      "v": 116
    },
    {
      "midi": 61,
      "hit": false,
      "t": 81401.70431249947,
      "d": 53.571374999999534,
      "v": 104
    },
    {
      "midi": 58,
      "hit": false,
      "t": 81428.48999999947,
      "d": 107.14274999999907,
      "v": 94
    },
    {
      "midi": 62,
      "hit": false,
      "t": 81428.48999999947,
      "d": 160.7141249999986,
      "v": 117
    },
    {
      "midi": 58,
      "hit": false,
      "t": 81642.77549999946,
      "d": 107.14274999999907,
      "v": 89
    },
    {
      "midi": 65,
      "hit": false,
      "t": 81642.77549999946,
      "d": 107.14274999999907,
      "v": 51
    },
    {
      "midi": 58,
      "hit": false,
      "t": 81857.06099999946,
      "d": 107.14274999999907,
      "v": 109
    },
    {
      "midi": 63,
      "hit": false,
      "t": 81857.06099999946,
      "d": 160.7141249999986,
      "v": 104
    },
    {
      "midi": 67,
      "hit": false,
      "t": 81857.06099999946,
      "d": 160.7141249999986,
      "v": 116
    },
    {
      "midi": 58,
      "hit": false,
      "t": 82071.34649999946,
      "d": 107.14274999999907,
      "v": 104
    },
    {
      "midi": 62,
      "hit": false,
      "t": 82285.63199999946,
      "d": 107.14274999999907,
      "v": 92
    },
    {
      "midi": 58,
      "hit": false,
      "t": 82499.91749999946,
      "d": 107.14274999999907,
      "v": 116
    },
    {
      "midi": 62,
      "hit": false,
      "t": 82499.91749999946,
      "d": 160.7141249999986,
      "v": 117
    },
    {
      "midi": 65,
      "hit": false,
      "t": 82499.91749999946,
      "d": 160.7141249999986,
      "v": 117
    },
    {
      "midi": 58,
      "hit": false,
      "t": 82714.20299999946,
      "d": 107.14274999999907,
      "v": 109
    },
    {
      "midi": 65,
      "hit": false,
      "t": 82714.20299999946,
      "d": 107.14274999999907,
      "v": 70
    },
    {
      "midi": 63,
      "hit": false,
      "t": 82928.48849999945,
      "d": 107.14274999999907,
      "v": 98
    },
    {
      "midi": 58,
      "hit": false,
      "t": 83142.77399999945,
      "d": 107.14274999999907,
      "v": 117
    },
    {
      "midi": 67,
      "hit": false,
      "t": 83142.77399999945,
      "d": 160.7141249999986,
      "v": 117
    },
    {
      "midi": 63,
      "hit": false,
      "t": 83142.77399999945,
      "d": 214.28549999999814,
      "v": 117
    },
    {
      "midi": 58,
      "hit": false,
      "t": 83357.05949999945,
      "d": 107.14274999999907,
      "v": 104
    },
    {
      "midi": 58,
      "hit": false,
      "t": 83571.34499999945,
      "d": 107.14274999999907,
      "v": 104
    },
    {
      "midi": 63,
      "hit": false,
      "t": 83571.34499999945,
      "d": 107.14274999999907,
      "v": 116
    },
    {
      "midi": 67,
      "hit": false,
      "t": 83571.34499999945,
      "d": 107.14274999999907,
      "v": 109
    },
    {
      "midi": 58,
      "hit": false,
      "t": 83785.63049999945,
      "d": 107.14274999999907,
      "v": 98
    },
    {
      "midi": 62,
      "hit": false,
      "t": 83785.63049999945,
      "d": 160.7141249999986,
      "v": 117
    },
    {
      "midi": 65,
      "hit": false,
      "t": 83785.63049999945,
      "d": 267.8568749999977,
      "v": 117
    },
    {
      "midi": 58,
      "hit": false,
      "t": 83999.91599999944,
      "d": 107.14274999999907,
      "v": 98
    },
    {
      "midi": 56,
      "hit": false,
      "t": 84214.20149999944,
      "d": 107.14274999999907,
      "v": 109
    },
    {
      "midi": 60,
      "hit": false,
      "t": 84214.20149999944,
      "d": 160.7141249999986,
      "v": 116
    },
    {
      "midi": 65,
      "hit": false,
      "t": 84214.20149999944,
      "d": 160.7141249999986,
      "v": 117
    },
    {
      "midi": 56,
      "hit": false,
      "t": 84428.48699999944,
      "d": 107.14274999999907,
      "v": 87
    },
    {
      "midi": 56,
      "hit": false,
      "t": 84642.77249999944,
      "d": 160.7141249999986,
      "v": 116
    },
    {
      "midi": 60,
      "hit": false,
      "t": 84642.77249999944,
      "d": 160.7141249999986,
      "v": 116
    },
    {
      "midi": 65,
      "hit": false,
      "t": 84642.77249999944,
      "d": 160.7141249999986,
      "v": 116
    },
    {
      "midi": 58,
      "hit": false,
      "t": 84857.05799999944,
      "d": 214.28549999999814,
      "v": 116
    },
    {
      "midi": 63,
      "hit": false,
      "t": 84857.05799999944,
      "d": 214.28549999999814,
      "v": 117
    },
    {
      "midi": 67,
      "hit": false,
      "t": 84857.05799999944,
      "d": 214.28549999999814,
      "v": 117
    },
    {
      "midi": 51,
      "hit": false,
      "t": 85071.34349999944,
      "d": 241.0711874999979,
      "v": 89
    },
    {
      "midi": 63,
      "hit": false,
      "t": 85285.62899999943,
      "d": 214.28549999999814,
      "v": 109
    },
    {
      "midi": 67,
      "hit": false,
      "t": 85285.62899999943,
      "d": 214.28549999999814,
      "v": 117
    },
    {
      "midi": 60,
      "hit": false,
      "t": 85285.62899999943,
      "d": 241.0711874999979,
      "v": 117
    },
    {
      "midi": 51,
      "hit": false,
      "t": 85499.91449999943,
      "d": 214.28549999999814,
      "v": 84
    },
    {
      "midi": 58,
      "hit": false,
      "t": 85714.19999999943,
      "d": 214.28549999999814,
      "v": 116
    },
    {
      "midi": 63,
      "hit": false,
      "t": 85714.19999999943,
      "d": 214.28549999999814,
      "v": 109
    },
    {
      "midi": 67,
      "hit": false,
      "t": 85714.19999999943,
      "d": 214.28549999999814,
      "v": 104
    },
    {
      "midi": 51,
      "hit": false,
      "t": 85928.48549999943,
      "d": 214.28549999999814,
      "v": 84
    },
    {
      "midi": 60,
      "hit": false,
      "t": 86142.77099999943,
      "d": 214.28549999999814,
      "v": 116
    },
    {
      "midi": 63,
      "hit": false,
      "t": 86142.77099999943,
      "d": 214.28549999999814,
      "v": 117
    },
    {
      "midi": 67,
      "hit": false,
      "t": 86142.77099999943,
      "d": 214.28549999999814,
      "v": 116
    },
    {
      "midi": 51,
      "hit": false,
      "t": 86357.05649999942,
      "d": 214.28549999999814,
      "v": 97
    },
    {
      "midi": 58,
      "hit": false,
      "t": 86785.62749999942,
      "d": 214.28549999999814,
      "v": 104
    },
    {
      "midi": 63,
      "hit": false,
      "t": 86785.62749999942,
      "d": 214.28549999999814,
      "v": 117
    },
    {
      "midi": 67,
      "hit": false,
      "t": 86785.62749999942,
      "d": 214.28549999999814,
      "v": 117
    },
    {
      "midi": 51,
      "hit": false,
      "t": 87214.19849999942,
      "d": 214.28549999999814,
      "v": 96
    },
    {
      "midi": 36,
      "hit": false,
      "t": 87428.48399999941,
      "d": 1.1160703125060536,
      "v": 31
    },
    {
      "midi": 91,
      "hit": false,
      "t": 87428.48399999941,
      "d": 107.14274999999907,
      "v": 31
    },
    {
      "midi": 58,
      "hit": false,
      "t": 87428.48399999941,
      "d": 642.8564999999944,
      "v": 117
    },
    {
      "midi": 63,
      "hit": false,
      "t": 87428.48399999941,
      "d": 642.8564999999944,
      "v": 117
    },
    {
      "midi": 67,
      "hit": false,
      "t": 87428.48399999941,
      "d": 642.8564999999944,
      "v": 117
    },
    {
      "midi": 60,
      "hit": false,
      "t": 88285.6259999994,
      "d": 214.28549999999814,
      "v": 117
    },
    {
      "midi": 69,
      "hit": false,
      "t": 88285.6259999994,
      "d": 214.28549999999814,
      "v": 116
    },
    {
      "midi": 65,
      "hit": false,
      "t": 88285.6259999994,
      "d": 321.4282499999972,
      "v": 109
    },
    {
      "midi": 53,
      "hit": false,
      "t": 88499.9114999994,
      "d": 214.28549999999814,
      "v": 69
    },
    {
      "midi": 62,
      "hit": false,
      "t": 88714.1969999994,
      "d": 214.28549999999814,
      "v": 116
    },
    {
      "midi": 65,
      "hit": false,
      "t": 88714.1969999994,
      "d": 214.28549999999814,
      "v": 117
    },
    {
      "midi": 69,
      "hit": false,
      "t": 88714.1969999994,
      "d": 214.28549999999814,
      "v": 116
    },
    {
      "midi": 53,
      "hit": false,
      "t": 88928.4824999994,
      "d": 214.28549999999814,
      "v": 72
    },
    {
      "midi": 60,
      "hit": false,
      "t": 89142.7679999994,
      "d": 214.28549999999814,
      "v": 117
    },
    {
      "midi": 69,
      "hit": false,
      "t": 89142.7679999994,
      "d": 214.28549999999814,
      "v": 109
    },
    {
      "midi": 65,
      "hit": false,
      "t": 89142.7679999994,
      "d": 321.4282499999972,
      "v": 109
    },
    {
      "midi": 53,
      "hit": false,
      "t": 89357.0534999994,
      "d": 241.0711874999979,
      "v": 72
    },
    {
      "midi": 62,
      "hit": false,
      "t": 89571.3389999994,
      "d": 214.28549999999814,
      "v": 117
    },
    {
      "midi": 65,
      "hit": false,
      "t": 89571.3389999994,
      "d": 214.28549999999814,
      "v": 104
    },
    {
      "midi": 69,
      "hit": false,
      "t": 89571.3389999994,
      "d": 214.28549999999814,
      "v": 109
    },
    {
      "midi": 53,
      "hit": false,
      "t": 89785.6244999994,
      "d": 214.28549999999814,
      "v": 70
    },
    {
      "midi": 60,
      "hit": false,
      "t": 89999.90999999939,
      "d": 1714.2839999999997,
      "v": 117
    },
    {
      "midi": 65,
      "hit": false,
      "t": 89999.90999999939,
      "d": 1714.2839999999997,
      "v": 98
    },
    {
      "midi": 69,
      "hit": false,
      "t": 89999.90999999939,
      "d": 1741.0696874999994,
      "v": 117
    },
    {
      "midi": 62,
      "hit": false,
      "t": 91714.19399999939,
      "d": 160.7141249999986,
      "v": 117
    },
    {
      "midi": 65,
      "hit": false,
      "t": 91714.19399999939,
      "d": 214.28549999999814,
      "v": 109
    },
    {
      "midi": 58,
      "hit": false,
      "t": 91928.47949999939,
      "d": 107.14274999999907,
      "v": 87
    },
    {
      "midi": 58,
      "hit": false,
      "t": 92142.76499999939,
      "d": 107.14274999999907,
      "v": 109
    },
    {
      "midi": 63,
      "hit": false,
      "t": 92142.76499999939,
      "d": 160.7141249999986,
      "v": 117
    },
    {
      "midi": 67,
      "hit": false,
      "t": 92142.76499999939,
      "d": 160.7141249999986,
      "v": 117
    },
    {
      "midi": 58,
      "hit": false,
      "t": 92357.05049999939,
      "d": 107.14274999999907,
      "v": 87
    },
    {
      "midi": 58,
      "hit": false,
      "t": 92571.33599999938,
      "d": 107.14274999999907,
      "v": 98
    },
    {
      "midi": 62,
      "hit": false,
      "t": 92571.33599999938,
      "d": 107.14274999999907,
      "v": 109
    },
    {
      "midi": 65,
      "hit": false,
      "t": 92571.33599999938,
      "d": 107.14274999999907,
      "v": 109
    },
    {
      "midi": 58,
      "hit": false,
      "t": 92785.62149999938,
      "d": 107.14274999999907,
      "v": 116
    },
    {
      "midi": 62,
      "hit": false,
      "t": 92785.62149999938,
      "d": 160.7141249999986,
      "v": 117
    },
    {
      "midi": 65,
      "hit": false,
      "t": 92785.62149999938,
      "d": 214.28549999999814,
      "v": 117
    },
    {
      "midi": 58,
      "hit": false,
      "t": 92999.90699999938,
      "d": 107.14274999999907,
      "v": 104
    },
    {
      "midi": 58,
      "hit": false,
      "t": 93214.19249999938,
      "d": 107.14274999999907,
      "v": 65
    },
    {
      "midi": 63,
      "hit": false,
      "t": 93214.19249999938,
      "d": 107.14274999999907,
      "v": 85
    },
    {
      "midi": 58,
      "hit": false,
      "t": 93428.47799999938,
      "d": 133.92843749999884,
      "v": 117
    },
    {
      "midi": 63,
      "hit": false,
      "t": 93428.47799999938,
      "d": 214.28549999999814,
      "v": 117
    },
    {
      "midi": 67,
      "hit": false,
      "t": 93428.47799999938,
      "d": 214.28549999999814,
      "v": 117
    },
    {
      "midi": 58,
      "hit": false,
      "t": 93642.76349999938,
      "d": 107.14274999999907,
      "v": 104
    },
    {
      "midi": 67,
      "hit": false,
      "t": 93642.76349999938,
      "d": 107.14274999999907,
      "v": 67
    },
    {
      "midi": 58,
      "hit": false,
      "t": 93857.04899999937,
      "d": 107.14274999999907,
      "v": 85
    },
    {
      "midi": 63,
      "hit": false,
      "t": 93857.04899999937,
      "d": 107.14274999999907,
      "v": 77
    },
    {
      "midi": 67,
      "hit": false,
      "t": 93857.04899999937,
      "d": 107.14274999999907,
      "v": 94
    },
    {
      "midi": 58,
      "hit": false,
      "t": 94071.33449999937,
      "d": 107.14274999999907,
      "v": 109
    },
    {
      "midi": 62,
      "hit": false,
      "t": 94071.33449999937,
      "d": 214.28549999999814,
      "v": 116
    },
    {
      "midi": 65,
      "hit": false,
      "t": 94071.33449999937,
      "d": 214.28549999999814,
      "v": 117
    },
    {
      "midi": 58,
      "hit": false,
      "t": 94285.61999999937,
      "d": 107.14274999999907,
      "v": 89
    },
    {
      "midi": 56,
      "hit": false,
      "t": 94499.90549999937,
      "d": 107.14274999999907,
      "v": 117
    },
    {
      "midi": 60,
      "hit": false,
      "t": 94499.90549999937,
      "d": 160.7141249999986,
      "v": 109
    },
    {
      "midi": 65,
      "hit": false,
      "t": 94499.90549999937,
      "d": 267.8568749999977,
      "v": 116
    },
    {
      "midi": 56,
      "hit": false,
      "t": 94714.19099999937,
      "d": 107.14274999999907,
      "v": 104
    },
    {
      "midi": 56,
      "hit": false,
      "t": 94928.47649999936,
      "d": 107.14274999999907,
      "v": 116
    },
    {
      "midi": 60,
      "hit": false,
      "t": 94928.47649999936,
      "d": 160.7141249999986,
      "v": 109
    },
    {
      "midi": 65,
      "hit": false,
      "t": 94928.47649999936,
      "d": 321.4282499999972,
      "v": 116
    },
    {
      "midi": 61,
      "hit": false,
      "t": 95115.97631249936,
      "d": 53.571374999999534,
      "v": 104
    },
    {
      "midi": 58,
      "hit": false,
      "t": 95142.76199999936,
      "d": 107.14274999999907,
      "v": 94
    },
    {
      "midi": 62,
      "hit": false,
      "t": 95142.76199999936,
      "d": 160.7141249999986,
      "v": 117
    },
    {
      "midi": 58,
      "hit": false,
      "t": 95357.04749999936,
      "d": 107.14274999999907,
      "v": 89
    },
    {
      "midi": 65,
      "hit": false,
      "t": 95357.04749999936,
      "d": 107.14274999999907,
      "v": 51
    },
    {
      "midi": 58,
      "hit": false,
      "t": 95571.33299999936,
      "d": 107.14274999999907,
      "v": 109
    },
    {
      "midi": 63,
      "hit": false,
      "t": 95571.33299999936,
      "d": 160.7141249999986,
      "v": 104
    },
    {
      "midi": 67,
      "hit": false,
      "t": 95571.33299999936,
      "d": 160.7141249999986,
      "v": 116
    },
    {
      "midi": 58,
      "hit": false,
      "t": 95785.61849999936,
      "d": 107.14274999999907,
      "v": 104
    },
    {
      "midi": 62,
      "hit": false,
      "t": 95999.90399999935,
      "d": 107.14274999999907,
      "v": 92
    },
    {
      "midi": 58,
      "hit": false,
      "t": 96214.18949999935,
      "d": 107.14274999999907,
      "v": 116
    },
    {
      "midi": 62,
      "hit": false,
      "t": 96214.18949999935,
      "d": 160.7141249999986,
      "v": 117
    },
    {
      "midi": 65,
      "hit": false,
      "t": 96214.18949999935,
      "d": 160.7141249999986,
      "v": 117
    },
    {
      "midi": 58,
      "hit": false,
      "t": 96428.47499999935,
      "d": 107.14274999999907,
      "v": 109
    },
    {
      "midi": 65,
      "hit": false,
      "t": 96428.47499999935,
      "d": 107.14274999999907,
      "v": 70
    },
    {
      "midi": 63,
      "hit": false,
      "t": 96642.76049999935,
      "d": 107.14274999999907,
      "v": 98
    },
    {
      "midi": 58,
      "hit": false,
      "t": 96857.04599999935,
      "d": 107.14274999999907,
      "v": 117
    },
    {
      "midi": 67,
      "hit": false,
      "t": 96857.04599999935,
      "d": 160.7141249999986,
      "v": 117
    },
    {
      "midi": 63,
      "hit": false,
      "t": 96857.04599999935,
      "d": 214.28549999999814,
      "v": 117
    },
    {
      "midi": 58,
      "hit": false,
      "t": 97071.33149999935,
      "d": 107.14274999999907,
      "v": 104
    },
    {
      "midi": 58,
      "hit": false,
      "t": 97285.61699999934,
      "d": 107.14274999999907,
      "v": 104
    },
    {
      "midi": 63,
      "hit": false,
      "t": 97285.61699999934,
      "d": 107.14274999999907,
      "v": 116
    },
    {
      "midi": 67,
      "hit": false,
      "t": 97285.61699999934,
      "d": 107.14274999999907,
      "v": 109
    },
    {
      "midi": 58,
      "hit": false,
      "t": 97499.90249999934,
      "d": 107.14274999999907,
      "v": 98
    },
    {
      "midi": 62,
      "hit": false,
      "t": 97499.90249999934,
      "d": 160.7141249999986,
      "v": 117
    },
    {
      "midi": 65,
      "hit": false,
      "t": 97499.90249999934,
      "d": 267.8568749999977,
      "v": 117
    },
    {
      "midi": 58,
      "hit": false,
      "t": 97714.18799999934,
      "d": 107.14274999999907,
      "v": 98
    },
    {
      "midi": 56,
      "hit": false,
      "t": 97928.47349999934,
      "d": 107.14274999999907,
      "v": 109
    },
    {
      "midi": 60,
      "hit": false,
      "t": 97928.47349999934,
      "d": 160.7141249999986,
      "v": 116
    },
    {
      "midi": 65,
      "hit": false,
      "t": 97928.47349999934,
      "d": 160.7141249999986,
      "v": 117
    },
    {
      "midi": 56,
      "hit": false,
      "t": 98142.75899999934,
      "d": 107.14274999999907,
      "v": 87
    },
    {
      "midi": 56,
      "hit": false,
      "t": 98357.04449999933,
      "d": 160.7141249999986,
      "v": 116
    },
    {
      "midi": 60,
      "hit": false,
      "t": 98357.04449999933,
      "d": 160.7141249999986,
      "v": 116
    },
    {
      "midi": 65,
      "hit": false,
      "t": 98357.04449999933,
      "d": 160.7141249999986,
      "v": 116
    },
    {
      "midi": 58,
      "hit": false,
      "t": 98571.32999999933,
      "d": 214.28549999999814,
      "v": 116
    },
    {
      "midi": 63,
      "hit": false,
      "t": 98571.32999999933,
      "d": 214.28549999999814,
      "v": 117
    },
    {
      "midi": 67,
      "hit": false,
      "t": 98571.32999999933,
      "d": 214.28549999999814,
      "v": 117
    },
    {
      "midi": 51,
      "hit": false,
      "t": 98785.61549999933,
      "d": 241.0711874999979,
      "v": 89
    },
    {
      "midi": 63,
      "hit": false,
      "t": 98999.90099999933,
      "d": 214.28549999999814,
      "v": 109
    },
    {
      "midi": 67,
      "hit": false,
      "t": 98999.90099999933,
      "d": 214.28549999999814,
      "v": 117
    },
    {
      "midi": 60,
      "hit": false,
      "t": 98999.90099999933,
      "d": 241.0711874999979,
      "v": 117
    },
    {
      "midi": 51,
      "hit": false,
      "t": 99214.18649999933,
      "d": 214.28549999999814,
      "v": 84
    },
    {
      "midi": 58,
      "hit": false,
      "t": 99428.47199999932,
      "d": 214.28549999999814,
      "v": 116
    },
    {
      "midi": 63,
      "hit": false,
      "t": 99428.47199999932,
      "d": 214.28549999999814,
      "v": 109
    },
    {
      "midi": 67,
      "hit": false,
      "t": 99428.47199999932,
      "d": 214.28549999999814,
      "v": 104
    },
    {
      "midi": 51,
      "hit": false,
      "t": 99642.75749999932,
      "d": 214.28549999999814,
      "v": 84
    },
    {
      "midi": 60,
      "hit": false,
      "t": 99857.04299999932,
      "d": 214.28549999999814,
      "v": 116
    },
    {
      "midi": 63,
      "hit": false,
      "t": 99857.04299999932,
      "d": 214.28549999999814,
      "v": 117
    },
    {
      "midi": 67,
      "hit": false,
      "t": 99857.04299999932,
      "d": 214.28549999999814,
      "v": 116
    },
    {
      "midi": 51,
      "hit": false,
      "t": 100071.32849999932,
      "d": 214.28549999999814,
      "v": 97
    },
    {
      "midi": 58,
      "hit": false,
      "t": 100499.89949999932,
      "d": 214.28549999999814,
      "v": 104
    },
    {
      "midi": 63,
      "hit": false,
      "t": 100499.89949999932,
      "d": 214.28549999999814,
      "v": 117
    },
    {
      "midi": 67,
      "hit": false,
      "t": 100499.89949999932,
      "d": 214.28549999999814,
      "v": 117
    },
    {
      "midi": 51,
      "hit": false,
      "t": 100928.47049999931,
      "d": 214.28549999999814,
      "v": 96
    },
    {
      "midi": 36,
      "hit": false,
      "t": 101142.75599999931,
      "d": 1.1160703125060536,
      "v": 31
    },
    {
      "midi": 91,
      "hit": false,
      "t": 101142.75599999931,
      "d": 107.14274999999907,
      "v": 31
    },
    {
      "midi": 58,
      "hit": false,
      "t": 101142.75599999931,
      "d": 642.8564999999944,
      "v": 117
    },
    {
      "midi": 63,
      "hit": false,
      "t": 101142.75599999931,
      "d": 642.8564999999944,
      "v": 117
    },
    {
      "midi": 67,
      "hit": false,
      "t": 101142.75599999931,
      "d": 642.8564999999944,
      "v": 117
    },
    {
      "midi": 60,
      "hit": false,
      "t": 101999.8979999993,
      "d": 214.28549999999814,
      "v": 117
    },
    {
      "midi": 69,
      "hit": false,
      "t": 101999.8979999993,
      "d": 214.28549999999814,
      "v": 116
    },
    {
      "midi": 65,
      "hit": false,
      "t": 101999.8979999993,
      "d": 321.4282499999972,
      "v": 109
    },
    {
      "midi": 53,
      "hit": false,
      "t": 102214.1834999993,
      "d": 214.28549999999814,
      "v": 69
    },
    {
      "midi": 62,
      "hit": false,
      "t": 102428.4689999993,
      "d": 214.28549999999814,
      "v": 116
    },
    {
      "midi": 65,
      "hit": false,
      "t": 102428.4689999993,
      "d": 214.28549999999814,
      "v": 117
    },
    {
      "midi": 69,
      "hit": false,
      "t": 102428.4689999993,
      "d": 214.28549999999814,
      "v": 116
    },
    {
      "midi": 53,
      "hit": false,
      "t": 102642.7544999993,
      "d": 214.28549999999814,
      "v": 72
    },
    {
      "midi": 60,
      "hit": false,
      "t": 102857.0399999993,
      "d": 214.28549999999814,
      "v": 117
    },
    {
      "midi": 69,
      "hit": false,
      "t": 102857.0399999993,
      "d": 214.28549999999814,
      "v": 109
    },
    {
      "midi": 65,
      "hit": false,
      "t": 102857.0399999993,
      "d": 321.4282499999972,
      "v": 109
    },
    {
      "midi": 53,
      "hit": false,
      "t": 103071.3254999993,
      "d": 241.0711874999979,
      "v": 72
    },
    {
      "midi": 62,
      "hit": false,
      "t": 103285.61099999929,
      "d": 214.28549999999814,
      "v": 117
    },
    {
      "midi": 65,
      "hit": false,
      "t": 103285.61099999929,
      "d": 214.28549999999814,
      "v": 104
    },
    {
      "midi": 69,
      "hit": false,
      "t": 103285.61099999929,
      "d": 214.28549999999814,
      "v": 109
    },
    {
      "midi": 53,
      "hit": false,
      "t": 103499.89649999929,
      "d": 214.28549999999814,
      "v": 70
    },
    {
      "midi": 60,
      "hit": false,
      "t": 103714.18199999929,
      "d": 1714.2839999999997,
      "v": 117
    },
    {
      "midi": 65,
      "hit": false,
      "t": 103714.18199999929,
      "d": 1714.2839999999997,
      "v": 98
    },
    {
      "midi": 69,
      "hit": false,
      "t": 103714.18199999929,
      "d": 1741.0696874999994,
      "v": 117
    },
    {
      "midi": 62,
      "hit": false,
      "t": 105428.46599999929,
      "d": 160.7141249999986,
      "v": 117
    },
    {
      "midi": 65,
      "hit": false,
      "t": 105428.46599999929,
      "d": 214.28549999999814,
      "v": 109
    },
    {
      "midi": 58,
      "hit": false,
      "t": 105642.75149999929,
      "d": 107.14274999999907,
      "v": 87
    },
    {
      "midi": 58,
      "hit": false,
      "t": 105857.03699999928,
      "d": 107.14274999999907,
      "v": 109
    },
    {
      "midi": 63,
      "hit": false,
      "t": 105857.03699999928,
      "d": 160.7141249999986,
      "v": 117
    },
    {
      "midi": 67,
      "hit": false,
      "t": 105857.03699999928,
      "d": 160.7141249999986,
      "v": 117
    },
    {
      "midi": 58,
      "hit": false,
      "t": 106071.32249999928,
      "d": 107.14274999999907,
      "v": 87
    },
    {
      "midi": 58,
      "hit": false,
      "t": 106285.60799999928,
      "d": 107.14274999999907,
      "v": 98
    },
    {
      "midi": 62,
      "hit": false,
      "t": 106285.60799999928,
      "d": 107.14274999999907,
      "v": 109
    },
    {
      "midi": 65,
      "hit": false,
      "t": 106285.60799999928,
      "d": 107.14274999999907,
      "v": 109
    },
    {
      "midi": 58,
      "hit": false,
      "t": 106499.89349999928,
      "d": 107.14274999999907,
      "v": 116
    },
    {
      "midi": 62,
      "hit": false,
      "t": 106499.89349999928,
      "d": 160.7141249999986,
      "v": 117
    },
    {
      "midi": 65,
      "hit": false,
      "t": 106499.89349999928,
      "d": 214.28549999999814,
      "v": 117
    },
    {
      "midi": 58,
      "hit": false,
      "t": 106714.17899999928,
      "d": 107.14274999999907,
      "v": 104
    },
    {
      "midi": 58,
      "hit": false,
      "t": 106928.46449999927,
      "d": 107.14274999999907,
      "v": 65
    },
    {
      "midi": 63,
      "hit": false,
      "t": 106928.46449999927,
      "d": 107.14274999999907,
      "v": 85
    },
    {
      "midi": 58,
      "hit": false,
      "t": 107142.74999999927,
      "d": 133.92843749999884,
      "v": 117
    },
    {
      "midi": 63,
      "hit": false,
      "t": 107142.74999999927,
      "d": 214.28549999999814,
      "v": 117
    },
    {
      "midi": 67,
      "hit": false,
      "t": 107142.74999999927,
      "d": 214.28549999999814,
      "v": 117
    },
    {
      "midi": 58,
      "hit": false,
      "t": 107357.03549999927,
      "d": 107.14274999999907,
      "v": 104
    },
    {
      "midi": 67,
      "hit": false,
      "t": 107357.03549999927,
      "d": 107.14274999999907,
      "v": 67
    },
    {
      "midi": 58,
      "hit": false,
      "t": 107571.32099999927,
      "d": 107.14274999999907,
      "v": 85
    },
    {
      "midi": 63,
      "hit": false,
      "t": 107571.32099999927,
      "d": 107.14274999999907,
      "v": 77
    },
    {
      "midi": 67,
      "hit": false,
      "t": 107571.32099999927,
      "d": 107.14274999999907,
      "v": 94
    },
    {
      "midi": 58,
      "hit": false,
      "t": 107785.60649999927,
      "d": 107.14274999999907,
      "v": 109
    },
    {
      "midi": 62,
      "hit": false,
      "t": 107785.60649999927,
      "d": 214.28549999999814,
      "v": 116
    },
    {
      "midi": 65,
      "hit": false,
      "t": 107785.60649999927,
      "d": 214.28549999999814,
      "v": 117
    },
    {
      "midi": 58,
      "hit": false,
      "t": 107999.89199999926,
      "d": 107.14274999999907,
      "v": 89
    },
    {
      "midi": 56,
      "hit": false,
      "t": 108214.17749999926,
      "d": 107.14274999999907,
      "v": 117
    },
    {
      "midi": 60,
      "hit": false,
      "t": 108214.17749999926,
      "d": 160.7141249999986,
      "v": 109
    },
    {
      "midi": 65,
      "hit": false,
      "t": 108214.17749999926,
      "d": 267.8568749999977,
      "v": 116
    },
    {
      "midi": 56,
      "hit": false,
      "t": 108428.46299999926,
      "d": 107.14274999999907,
      "v": 104
    },
    {
      "midi": 56,
      "hit": false,
      "t": 108642.74849999926,
      "d": 107.14274999999907,
      "v": 116
    },
    {
      "midi": 60,
      "hit": false,
      "t": 108642.74849999926,
      "d": 160.7141249999986,
      "v": 109
    },
    {
      "midi": 65,
      "hit": false,
      "t": 108642.74849999926,
      "d": 321.4282499999972,
      "v": 116
    },
    {
      "midi": 61,
      "hit": false,
      "t": 108830.24831249926,
      "d": 53.571374999999534,
      "v": 104
    },
    {
      "midi": 58,
      "hit": false,
      "t": 108857.03399999926,
      "d": 107.14274999999907,
      "v": 94
    },
    {
      "midi": 62,
      "hit": false,
      "t": 108857.03399999926,
      "d": 160.7141249999986,
      "v": 117
    },
    {
      "midi": 58,
      "hit": false,
      "t": 109071.31949999926,
      "d": 107.14274999999907,
      "v": 89
    },
    {
      "midi": 65,
      "hit": false,
      "t": 109071.31949999926,
      "d": 107.14274999999907,
      "v": 51
    },
    {
      "midi": 58,
      "hit": false,
      "t": 109285.60499999925,
      "d": 107.14274999999907,
      "v": 109
    },
    {
      "midi": 63,
      "hit": false,
      "t": 109285.60499999925,
      "d": 160.7141249999986,
      "v": 104
    },
    {
      "midi": 67,
      "hit": false,
      "t": 109285.60499999925,
      "d": 160.7141249999986,
      "v": 116
    },
    {
      "midi": 58,
      "hit": false,
      "t": 109499.89049999925,
      "d": 107.14274999999907,
      "v": 104
    },
    {
      "midi": 62,
      "hit": false,
      "t": 109714.17599999925,
      "d": 107.14274999999907,
      "v": 92
    },
    {
      "midi": 58,
      "hit": false,
      "t": 109928.46149999925,
      "d": 107.14274999999907,
      "v": 116
    },
    {
      "midi": 62,
      "hit": false,
      "t": 109928.46149999925,
      "d": 160.7141249999986,
      "v": 117
    },
    {
      "midi": 65,
      "hit": false,
      "t": 109928.46149999925,
      "d": 160.7141249999986,
      "v": 117
    },
    {
      "midi": 58,
      "hit": false,
      "t": 110142.74699999925,
      "d": 107.14274999999907,
      "v": 109
    },
    {
      "midi": 65,
      "hit": false,
      "t": 110142.74699999925,
      "d": 107.14274999999907,
      "v": 70
    },
    {
      "midi": 63,
      "hit": false,
      "t": 110357.03249999924,
      "d": 107.14274999999907,
      "v": 98
    },
    {
      "midi": 58,
      "hit": false,
      "t": 110571.31799999924,
      "d": 107.14274999999907,
      "v": 117
    },
    {
      "midi": 67,
      "hit": false,
      "t": 110571.31799999924,
      "d": 160.7141249999986,
      "v": 117
    },
    {
      "midi": 63,
      "hit": false,
      "t": 110571.31799999924,
      "d": 214.28549999999814,
      "v": 117
    },
    {
      "midi": 58,
      "hit": false,
      "t": 110785.60349999924,
      "d": 107.14274999999907,
      "v": 104
    },
    {
      "midi": 58,
      "hit": false,
      "t": 110999.88899999924,
      "d": 107.14274999999907,
      "v": 104
    },
    {
      "midi": 63,
      "hit": false,
      "t": 110999.88899999924,
      "d": 107.14274999999907,
      "v": 116
    },
    {
      "midi": 67,
      "hit": false,
      "t": 110999.88899999924,
      "d": 107.14274999999907,
      "v": 109
    },
    {
      "midi": 58,
      "hit": false,
      "t": 111214.17449999924,
      "d": 107.14274999999907,
      "v": 98
    },
    {
      "midi": 62,
      "hit": false,
      "t": 111214.17449999924,
      "d": 160.7141249999986,
      "v": 117
    },
    {
      "midi": 65,
      "hit": false,
      "t": 111214.17449999924,
      "d": 267.8568749999977,
      "v": 117
    },
    {
      "midi": 58,
      "hit": false,
      "t": 111428.45999999924,
      "d": 107.14274999999907,
      "v": 98
    },
    {
      "midi": 56,
      "hit": false,
      "t": 111642.74549999923,
      "d": 107.14274999999907,
      "v": 109
    },
    {
      "midi": 60,
      "hit": false,
      "t": 111642.74549999923,
      "d": 160.7141249999986,
      "v": 116
    },
    {
      "midi": 65,
      "hit": false,
      "t": 111642.74549999923,
      "d": 160.7141249999986,
      "v": 117
    },
    {
      "midi": 56,
      "hit": false,
      "t": 111857.03099999923,
      "d": 107.14274999999907,
      "v": 87
    },
    {
      "midi": 56,
      "hit": false,
      "t": 112071.31649999923,
      "d": 160.7141249999986,
      "v": 116
    },
    {
      "midi": 60,
      "hit": false,
      "t": 112071.31649999923,
      "d": 160.7141249999986,
      "v": 116
    },
    {
      "midi": 65,
      "hit": false,
      "t": 112071.31649999923,
      "d": 160.7141249999986,
      "v": 116
    },
    {
      "midi": 62,
      "hit": false,
      "t": 112285.60199999923,
      "d": 160.7141249999986,
      "v": 117
    },
    {
      "midi": 65,
      "hit": false,
      "t": 112285.60199999923,
      "d": 214.28549999999814,
      "v": 109
    },
    {
      "midi": 58,
      "hit": false,
      "t": 112499.88749999923,
      "d": 107.14274999999907,
      "v": 87
    },
    {
      "midi": 58,
      "hit": false,
      "t": 112714.17299999922,
      "d": 107.14274999999907,
      "v": 109
    },
    {
      "midi": 63,
      "hit": false,
      "t": 112714.17299999922,
      "d": 160.7141249999986,
      "v": 117
    },
    {
      "midi": 67,
      "hit": false,
      "t": 112714.17299999922,
      "d": 160.7141249999986,
      "v": 117
    },
    {
      "midi": 58,
      "hit": false,
      "t": 112928.45849999922,
      "d": 107.14274999999907,
      "v": 87
    },
    {
      "midi": 58,
      "hit": false,
      "t": 113142.74399999922,
      "d": 107.14274999999907,
      "v": 98
    },
    {
      "midi": 62,
      "hit": false,
      "t": 113142.74399999922,
      "d": 107.14274999999907,
      "v": 109
    },
    {
      "midi": 65,
      "hit": false,
      "t": 113142.74399999922,
      "d": 107.14274999999907,
      "v": 109
    },
    {
      "midi": 58,
      "hit": false,
      "t": 113357.02949999922,
      "d": 107.14274999999907,
      "v": 116
    },
    {
      "midi": 62,
      "hit": false,
      "t": 113357.02949999922,
      "d": 160.7141249999986,
      "v": 117
    },
    {
      "midi": 65,
      "hit": false,
      "t": 113357.02949999922,
      "d": 214.28549999999814,
      "v": 117
    },
    {
      "midi": 58,
      "hit": false,
      "t": 113571.31499999922,
      "d": 107.14274999999907,
      "v": 104
    },
    {
      "midi": 58,
      "hit": false,
      "t": 113785.60049999921,
      "d": 107.14274999999907,
      "v": 65
    },
    {
      "midi": 63,
      "hit": false,
      "t": 113785.60049999921,
      "d": 107.14274999999907,
      "v": 85
    },
    {
      "midi": 58,
      "hit": false,
      "t": 113999.88599999921,
      "d": 133.92843749999884,
      "v": 117
    },
    {
      "midi": 63,
      "hit": false,
      "t": 113999.88599999921,
      "d": 214.28549999999814,
      "v": 117
    },
    {
      "midi": 67,
      "hit": false,
      "t": 113999.88599999921,
      "d": 214.28549999999814,
      "v": 117
    },
    {
      "midi": 58,
      "hit": false,
      "t": 114214.17149999921,
      "d": 107.14274999999907,
      "v": 104
    },
    {
      "midi": 67,
      "hit": false,
      "t": 114214.17149999921,
      "d": 107.14274999999907,
      "v": 67
    },
    {
      "midi": 58,
      "hit": false,
      "t": 114428.45699999921,
      "d": 107.14274999999907,
      "v": 85
    },
    {
      "midi": 63,
      "hit": false,
      "t": 114428.45699999921,
      "d": 107.14274999999907,
      "v": 77
    },
    {
      "midi": 67,
      "hit": false,
      "t": 114428.45699999921,
      "d": 107.14274999999907,
      "v": 94
    },
    {
      "midi": 58,
      "hit": false,
      "t": 114642.7424999992,
      "d": 107.14274999999907,
      "v": 109
    },
    {
      "midi": 62,
      "hit": false,
      "t": 114642.7424999992,
      "d": 214.28549999999814,
      "v": 116
    },
    {
      "midi": 65,
      "hit": false,
      "t": 114642.7424999992,
      "d": 214.28549999999814,
      "v": 117
    },
    {
      "midi": 58,
      "hit": false,
      "t": 114857.0279999992,
      "d": 107.14274999999907,
      "v": 89
    },
    {
      "midi": 56,
      "hit": false,
      "t": 115071.3134999992,
      "d": 107.14274999999907,
      "v": 117
    },
    {
      "midi": 60,
      "hit": false,
      "t": 115071.3134999992,
      "d": 160.7141249999986,
      "v": 109
    },
    {
      "midi": 65,
      "hit": false,
      "t": 115071.3134999992,
      "d": 267.8568749999977,
      "v": 116
    },
    {
      "midi": 56,
      "hit": false,
      "t": 115285.5989999992,
      "d": 107.14274999999907,
      "v": 104
    },
    {
      "midi": 56,
      "hit": false,
      "t": 115499.8844999992,
      "d": 107.14274999999907,
      "v": 116
    },
    {
      "midi": 60,
      "hit": false,
      "t": 115499.8844999992,
      "d": 160.7141249999986,
      "v": 109
    },
    {
      "midi": 65,
      "hit": false,
      "t": 115499.8844999992,
      "d": 321.4282499999972,
      "v": 116
    },
    {
      "midi": 61,
      "hit": false,
      "t": 115687.3843124992,
      "d": 53.571374999999534,
      "v": 104
    },
    {
      "midi": 58,
      "hit": false,
      "t": 115714.1699999992,
      "d": 107.14274999999907,
      "v": 94
    },
    {
      "midi": 62,
      "hit": false,
      "t": 115714.1699999992,
      "d": 160.7141249999986,
      "v": 117
    },
    {
      "midi": 58,
      "hit": false,
      "t": 115928.4554999992,
      "d": 107.14274999999907,
      "v": 89
    },
    {
      "midi": 65,
      "hit": false,
      "t": 115928.4554999992,
      "d": 107.14274999999907,
      "v": 51
    },
    {
      "midi": 58,
      "hit": false,
      "t": 116142.7409999992,
      "d": 107.14274999999907,
      "v": 109
    },
    {
      "midi": 63,
      "hit": false,
      "t": 116142.7409999992,
      "d": 160.7141249999986,
      "v": 104
    },
    {
      "midi": 67,
      "hit": false,
      "t": 116142.7409999992,
      "d": 160.7141249999986,
      "v": 116
    },
    {
      "midi": 58,
      "hit": false,
      "t": 116357.02649999919,
      "d": 107.14274999999907,
      "v": 104
    },
    {
      "midi": 62,
      "hit": false,
      "t": 116571.31199999919,
      "d": 107.14274999999907,
      "v": 92
    },
    {
      "midi": 58,
      "hit": false,
      "t": 116785.59749999919,
      "d": 107.14274999999907,
      "v": 116
    },
    {
      "midi": 62,
      "hit": false,
      "t": 116785.59749999919,
      "d": 160.7141249999986,
      "v": 117
    },
    {
      "midi": 65,
      "hit": false,
      "t": 116785.59749999919,
      "d": 160.7141249999986,
      "v": 117
    },
    {
      "midi": 58,
      "hit": false,
      "t": 116999.88299999919,
      "d": 107.14274999999907,
      "v": 109
    },
    {
      "midi": 65,
      "hit": false,
      "t": 116999.88299999919,
      "d": 107.14274999999907,
      "v": 70
    },
    {
      "midi": 63,
      "hit": false,
      "t": 117214.16849999918,
      "d": 107.14274999999907,
      "v": 98
    },
    {
      "midi": 58,
      "hit": false,
      "t": 117428.45399999918,
      "d": 107.14274999999907,
      "v": 117
    },
    {
      "midi": 67,
      "hit": false,
      "t": 117428.45399999918,
      "d": 160.7141249999986,
      "v": 117
    },
    {
      "midi": 63,
      "hit": false,
      "t": 117428.45399999918,
      "d": 214.28549999999814,
      "v": 117
    },
    {
      "midi": 58,
      "hit": false,
      "t": 117642.73949999918,
      "d": 107.14274999999907,
      "v": 104
    },
    {
      "midi": 58,
      "hit": false,
      "t": 117857.02499999918,
      "d": 107.14274999999907,
      "v": 104
    },
    {
      "midi": 63,
      "hit": false,
      "t": 117857.02499999918,
      "d": 107.14274999999907,
      "v": 116
    },
    {
      "midi": 67,
      "hit": false,
      "t": 117857.02499999918,
      "d": 107.14274999999907,
      "v": 109
    },
    {
      "midi": 58,
      "hit": false,
      "t": 118071.31049999918,
      "d": 107.14274999999907,
      "v": 98
    },
    {
      "midi": 62,
      "hit": false,
      "t": 118071.31049999918,
      "d": 160.7141249999986,
      "v": 117
    },
    {
      "midi": 65,
      "hit": false,
      "t": 118071.31049999918,
      "d": 267.8568749999977,
      "v": 117
    },
    {
      "midi": 58,
      "hit": false,
      "t": 118285.59599999918,
      "d": 107.14274999999907,
      "v": 98
    },
    {
      "midi": 56,
      "hit": false,
      "t": 118499.88149999917,
      "d": 107.14274999999907,
      "v": 109
    },
    {
      "midi": 60,
      "hit": false,
      "t": 118499.88149999917,
      "d": 160.7141249999986,
      "v": 116
    },
    {
      "midi": 65,
      "hit": false,
      "t": 118499.88149999917,
      "d": 160.7141249999986,
      "v": 117
    },
    {
      "midi": 56,
      "hit": false,
      "t": 118714.16699999917,
      "d": 107.14274999999907,
      "v": 87
    },
    {
      "midi": 56,
      "hit": false,
      "t": 118928.45249999917,
      "d": 160.7141249999986,
      "v": 116
    },
    {
      "midi": 60,
      "hit": false,
      "t": 118928.45249999917,
      "d": 160.7141249999986,
      "v": 116
    },
    {
      "midi": 65,
      "hit": false,
      "t": 118928.45249999917,
      "d": 160.7141249999986,
      "v": 116
    },
    {
      "midi": 62,
      "hit": false,
      "t": 119142.73799999917,
      "d": 160.7141249999986,
      "v": 117
    },
    {
      "midi": 65,
      "hit": false,
      "t": 119142.73799999917,
      "d": 214.28549999999814,
      "v": 109
    },
    {
      "midi": 58,
      "hit": false,
      "t": 119357.02349999917,
      "d": 107.14274999999907,
      "v": 87
    },
    {
      "midi": 58,
      "hit": false,
      "t": 119571.30899999916,
      "d": 107.14274999999907,
      "v": 109
    },
    {
      "midi": 63,
      "hit": false,
      "t": 119571.30899999916,
      "d": 160.7141249999986,
      "v": 117
    },
    {
      "midi": 67,
      "hit": false,
      "t": 119571.30899999916,
      "d": 160.7141249999986,
      "v": 117
    },
    {
      "midi": 58,
      "hit": false,
      "t": 119785.59449999916,
      "d": 107.14274999999907,
      "v": 87
    },
    {
      "midi": 58,
      "hit": false,
      "t": 119999.87999999916,
      "d": 107.14274999999907,
      "v": 98
    },
    {
      "midi": 62,
      "hit": false,
      "t": 119999.87999999916,
      "d": 107.14274999999907,
      "v": 109
    },
    {
      "midi": 65,
      "hit": false,
      "t": 119999.87999999916,
      "d": 107.14274999999907,
      "v": 109
    },
    {
      "midi": 58,
      "hit": false,
      "t": 120214.16549999916,
      "d": 107.14274999999907,
      "v": 116
    },
    {
      "midi": 62,
      "hit": false,
      "t": 120214.16549999916,
      "d": 160.7141249999986,
      "v": 117
    },
    {
      "midi": 65,
      "hit": false,
      "t": 120214.16549999916,
      "d": 214.28549999999814,
      "v": 117
    },
    {
      "midi": 58,
      "hit": false,
      "t": 120428.45099999916,
      "d": 107.14274999999907,
      "v": 104
    },
    {
      "midi": 58,
      "hit": false,
      "t": 120642.73649999916,
      "d": 107.14274999999907,
      "v": 65
    },
    {
      "midi": 63,
      "hit": false,
      "t": 120642.73649999916,
      "d": 107.14274999999907,
      "v": 85
    },
    {
      "midi": 58,
      "hit": false,
      "t": 120857.02199999915,
      "d": 133.92843749999884,
      "v": 117
    },
    {
      "midi": 63,
      "hit": false,
      "t": 120857.02199999915,
      "d": 214.28549999999814,
      "v": 117
    },
    {
      "midi": 67,
      "hit": false,
      "t": 120857.02199999915,
      "d": 214.28549999999814,
      "v": 117
    },
    {
      "midi": 58,
      "hit": false,
      "t": 121071.30749999915,
      "d": 107.14274999999907,
      "v": 104
    },
    {
      "midi": 67,
      "hit": false,
      "t": 121071.30749999915,
      "d": 107.14274999999907,
      "v": 67
    },
    {
      "midi": 58,
      "hit": false,
      "t": 121285.59299999915,
      "d": 107.14274999999907,
      "v": 85
    },
    {
      "midi": 63,
      "hit": false,
      "t": 121285.59299999915,
      "d": 107.14274999999907,
      "v": 77
    },
    {
      "midi": 67,
      "hit": false,
      "t": 121285.59299999915,
      "d": 107.14274999999907,
      "v": 94
    },
    {
      "midi": 58,
      "hit": false,
      "t": 121499.87849999915,
      "d": 107.14274999999907,
      "v": 109
    },
    {
      "midi": 62,
      "hit": false,
      "t": 121499.87849999915,
      "d": 214.28549999999814,
      "v": 116
    },
    {
      "midi": 65,
      "hit": false,
      "t": 121499.87849999915,
      "d": 214.28549999999814,
      "v": 117
    },
    {
      "midi": 58,
      "hit": false,
      "t": 121714.16399999915,
      "d": 107.14274999999907,
      "v": 89
    },
    {
      "midi": 56,
      "hit": false,
      "t": 121928.44949999914,
      "d": 107.14274999999907,
      "v": 117
    },
    {
      "midi": 60,
      "hit": false,
      "t": 121928.44949999914,
      "d": 160.7141249999986,
      "v": 109
    },
    {
      "midi": 65,
      "hit": false,
      "t": 121928.44949999914,
      "d": 267.8568749999977,
      "v": 116
    },
    {
      "midi": 56,
      "hit": false,
      "t": 122142.73499999914,
      "d": 107.14274999999907,
      "v": 104
    },
    {
      "midi": 56,
      "hit": false,
      "t": 122357.02049999914,
      "d": 107.14274999999907,
      "v": 116
    },
    {
      "midi": 60,
      "hit": false,
      "t": 122357.02049999914,
      "d": 160.7141249999986,
      "v": 109
    },
    {
      "midi": 65,
      "hit": false,
      "t": 122357.02049999914,
      "d": 321.4282499999972,
      "v": 116
    },
    {
      "midi": 61,
      "hit": false,
      "t": 122544.52031249914,
      "d": 53.571374999999534,
      "v": 104
    },
    {
      "midi": 58,
      "hit": false,
      "t": 122571.30599999914,
      "d": 107.14274999999907,
      "v": 94
    },
    {
      "midi": 62,
      "hit": false,
      "t": 122571.30599999914,
      "d": 160.7141249999986,
      "v": 117
    },
    {
      "midi": 58,
      "hit": false,
      "t": 122785.59149999914,
      "d": 107.14274999999907,
      "v": 89
    },
    {
      "midi": 65,
      "hit": false,
      "t": 122785.59149999914,
      "d": 107.14274999999907,
      "v": 51
    },
    {
      "midi": 58,
      "hit": false,
      "t": 122999.87699999913,
      "d": 107.14274999999907,
      "v": 109
    },
    {
      "midi": 63,
      "hit": false,
      "t": 122999.87699999913,
      "d": 160.7141249999986,
      "v": 104
    },
    {
      "midi": 67,
      "hit": false,
      "t": 122999.87699999913,
      "d": 160.7141249999986,
      "v": 116
    },
    {
      "midi": 58,
      "hit": false,
      "t": 123214.16249999913,
      "d": 107.14274999999907,
      "v": 104
    },
    {
      "midi": 62,
      "hit": false,
      "t": 123428.44799999913,
      "d": 107.14274999999907,
      "v": 92
    },
    {
      "midi": 58,
      "hit": false,
      "t": 123642.73349999913,
      "d": 107.14274999999907,
      "v": 116
    },
    {
      "midi": 62,
      "hit": false,
      "t": 123642.73349999913,
      "d": 160.7141249999986,
      "v": 117
    },
    {
      "midi": 65,
      "hit": false,
      "t": 123642.73349999913,
      "d": 160.7141249999986,
      "v": 117
    },
    {
      "midi": 58,
      "hit": false,
      "t": 123857.01899999913,
      "d": 107.14274999999907,
      "v": 109
    },
    {
      "midi": 65,
      "hit": false,
      "t": 123857.01899999913,
      "d": 107.14274999999907,
      "v": 70
    },
    {
      "midi": 63,
      "hit": false,
      "t": 124071.30449999913,
      "d": 107.14274999999907,
      "v": 98
    },
    {
      "midi": 58,
      "hit": false,
      "t": 124285.58999999912,
      "d": 107.14274999999907,
      "v": 117
    },
    {
      "midi": 67,
      "hit": false,
      "t": 124285.58999999912,
      "d": 160.7141249999986,
      "v": 117
    },
    {
      "midi": 63,
      "hit": false,
      "t": 124285.58999999912,
      "d": 214.28549999999814,
      "v": 117
    },
    {
      "midi": 58,
      "hit": false,
      "t": 124499.87549999912,
      "d": 107.14274999999907,
      "v": 104
    },
    {
      "midi": 58,
      "hit": false,
      "t": 124714.16099999912,
      "d": 107.14274999999907,
      "v": 104
    },
    {
      "midi": 63,
      "hit": false,
      "t": 124714.16099999912,
      "d": 107.14274999999907,
      "v": 116
    },
    {
      "midi": 67,
      "hit": false,
      "t": 124714.16099999912,
      "d": 107.14274999999907,
      "v": 109
    },
    {
      "midi": 58,
      "hit": false,
      "t": 124928.44649999912,
      "d": 107.14274999999907,
      "v": 98
    },
    {
      "midi": 62,
      "hit": false,
      "t": 124928.44649999912,
      "d": 160.7141249999986,
      "v": 117
    },
    {
      "midi": 65,
      "hit": false,
      "t": 124928.44649999912,
      "d": 267.8568749999977,
      "v": 117
    },
    {
      "midi": 58,
      "hit": false,
      "t": 125142.73199999912,
      "d": 107.14274999999907,
      "v": 98
    },
    {
      "midi": 56,
      "hit": false,
      "t": 125357.01749999911,
      "d": 107.14274999999907,
      "v": 109
    },
    {
      "midi": 60,
      "hit": false,
      "t": 125357.01749999911,
      "d": 160.7141249999986,
      "v": 116
    },
    {
      "midi": 65,
      "hit": false,
      "t": 125357.01749999911,
      "d": 160.7141249999986,
      "v": 117
    },
    {
      "midi": 56,
      "hit": false,
      "t": 125571.30299999911,
      "d": 107.14274999999907,
      "v": 87
    },
    {
      "midi": 56,
      "hit": false,
      "t": 125785.58849999911,
      "d": 160.7141249999986,
      "v": 116
    },
    {
      "midi": 60,
      "hit": false,
      "t": 125785.58849999911,
      "d": 160.7141249999986,
      "v": 116
    },
    {
      "midi": 65,
      "hit": false,
      "t": 125785.58849999911,
      "d": 160.7141249999986,
      "v": 116
    },
    {
      "midi": 58,
      "hit": false,
      "t": 125999.87399999911,
      "d": 214.28549999999814,
      "v": 116
    },
    {
      "midi": 63,
      "hit": false,
      "t": 125999.87399999911,
      "d": 214.28549999999814,
      "v": 117
    },
    {
      "midi": 67,
      "hit": false,
      "t": 125999.87399999911,
      "d": 214.28549999999814,
      "v": 117
    },
    {
      "midi": 51,
      "hit": false,
      "t": 126214.1594999991,
      "d": 241.0711874999979,
      "v": 89
    },
    {
      "midi": 63,
      "hit": false,
      "t": 126428.4449999991,
      "d": 214.28549999999814,
      "v": 109
    },
    {
      "midi": 67,
      "hit": false,
      "t": 126428.4449999991,
      "d": 214.28549999999814,
      "v": 117
    },
    {
      "midi": 60,
      "hit": false,
      "t": 126428.4449999991,
      "d": 241.0711874999979,
      "v": 117
    },
    {
      "midi": 51,
      "hit": false,
      "t": 126642.7304999991,
      "d": 214.28549999999814,
      "v": 84
    },
    {
      "midi": 58,
      "hit": false,
      "t": 126857.0159999991,
      "d": 214.28549999999814,
      "v": 116
    },
    {
      "midi": 63,
      "hit": false,
      "t": 126857.0159999991,
      "d": 214.28549999999814,
      "v": 109
    },
    {
      "midi": 67,
      "hit": false,
      "t": 126857.0159999991,
      "d": 214.28549999999814,
      "v": 104
    },
    {
      "midi": 51,
      "hit": false,
      "t": 127071.3014999991,
      "d": 214.28549999999814,
      "v": 84
    },
    {
      "midi": 60,
      "hit": false,
      "t": 127285.5869999991,
      "d": 214.28549999999814,
      "v": 116
    },
    {
      "midi": 63,
      "hit": false,
      "t": 127285.5869999991,
      "d": 214.28549999999814,
      "v": 117
    },
    {
      "midi": 67,
      "hit": false,
      "t": 127285.5869999991,
      "d": 214.28549999999814,
      "v": 116
    },
    {
      "midi": 51,
      "hit": false,
      "t": 127499.8724999991,
      "d": 214.28549999999814,
      "v": 97
    },
    {
      "midi": 58,
      "hit": false,
      "t": 127928.44349999909,
      "d": 214.28549999999814,
      "v": 104
    },
    {
      "midi": 63,
      "hit": false,
      "t": 127928.44349999909,
      "d": 214.28549999999814,
      "v": 117
    },
    {
      "midi": 67,
      "hit": false,
      "t": 127928.44349999909,
      "d": 214.28549999999814,
      "v": 117
    },
    {
      "midi": 51,
      "hit": false,
      "t": 128357.01449999909,
      "d": 214.28549999999814,
      "v": 96
    },
    {
      "midi": 36,
      "hit": false,
      "t": 128571.29999999909,
      "d": 1.1160703125060536,
      "v": 31
    },
    {
      "midi": 91,
      "hit": false,
      "t": 128571.29999999909,
      "d": 107.14274999999907,
      "v": 31
    },
    {
      "midi": 58,
      "hit": false,
      "t": 128571.29999999909,
      "d": 642.8564999999944,
      "v": 117
    },
    {
      "midi": 63,
      "hit": false,
      "t": 128571.29999999909,
      "d": 642.8564999999944,
      "v": 117
    },
    {
      "midi": 67,
      "hit": false,
      "t": 128571.29999999909,
      "d": 642.8564999999944,
      "v": 117
    },
    {
      "midi": 60,
      "hit": false,
      "t": 129428.44199999908,
      "d": 214.28549999999814,
      "v": 117
    },
    {
      "midi": 69,
      "hit": false,
      "t": 129428.44199999908,
      "d": 214.28549999999814,
      "v": 116
    },
    {
      "midi": 65,
      "hit": false,
      "t": 129428.44199999908,
      "d": 321.4282499999972,
      "v": 109
    },
    {
      "midi": 53,
      "hit": false,
      "t": 129642.72749999908,
      "d": 214.28549999999814,
      "v": 69
    },
    {
      "midi": 62,
      "hit": false,
      "t": 129857.01299999907,
      "d": 214.28549999999814,
      "v": 116
    },
    {
      "midi": 65,
      "hit": false,
      "t": 129857.01299999907,
      "d": 214.28549999999814,
      "v": 117
    },
    {
      "midi": 69,
      "hit": false,
      "t": 129857.01299999907,
      "d": 214.28549999999814,
      "v": 116
    },
    {
      "midi": 53,
      "hit": false,
      "t": 130071.29849999907,
      "d": 214.28549999999814,
      "v": 72
    },
    {
      "midi": 60,
      "hit": false,
      "t": 130285.58399999907,
      "d": 214.28549999999814,
      "v": 117
    },
    {
      "midi": 69,
      "hit": false,
      "t": 130285.58399999907,
      "d": 214.28549999999814,
      "v": 109
    },
    {
      "midi": 65,
      "hit": false,
      "t": 130285.58399999907,
      "d": 321.4282499999972,
      "v": 109
    },
    {
      "midi": 53,
      "hit": false,
      "t": 130499.86949999907,
      "d": 241.0711874999979,
      "v": 72
    },
    {
      "midi": 62,
      "hit": false,
      "t": 130714.15499999907,
      "d": 214.28549999999814,
      "v": 117
    },
    {
      "midi": 65,
      "hit": false,
      "t": 130714.15499999907,
      "d": 214.28549999999814,
      "v": 104
    },
    {
      "midi": 69,
      "hit": false,
      "t": 130714.15499999907,
      "d": 214.28549999999814,
      "v": 109
    },
    {
      "midi": 53,
      "hit": false,
      "t": 130928.44049999907,
      "d": 214.28549999999814,
      "v": 70
    },
    {
      "midi": 60,
      "hit": false,
      "t": 131142.72599999906,
      "d": 1714.2840000000142,
      "v": 117
    },
    {
      "midi": 65,
      "hit": false,
      "t": 131142.72599999906,
      "d": 1714.2840000000142,
      "v": 98
    },
    {
      "midi": 69,
      "hit": false,
      "t": 131142.72599999906,
      "d": 1741.069687500014,
      "v": 117
    },
    {
      "midi": 62,
      "hit": false,
      "t": 132857.00999999908,
      "d": 160.7141249999986,
      "v": 117
    },
    {
      "midi": 65,
      "hit": false,
      "t": 132857.00999999908,
      "d": 214.28549999999814,
      "v": 109
    },
    {
      "midi": 58,
      "hit": false,
      "t": 133071.29549999908,
      "d": 107.14274999999907,
      "v": 87
    },
    {
      "midi": 58,
      "hit": false,
      "t": 133285.58099999907,
      "d": 107.14274999999907,
      "v": 109
    },
    {
      "midi": 63,
      "hit": false,
      "t": 133285.58099999907,
      "d": 160.7141249999986,
      "v": 117
    },
    {
      "midi": 67,
      "hit": false,
      "t": 133285.58099999907,
      "d": 160.7141249999986,
      "v": 117
    },
    {
      "midi": 58,
      "hit": false,
      "t": 133499.86649999907,
      "d": 107.14274999999907,
      "v": 87
    },
    {
      "midi": 58,
      "hit": false,
      "t": 133714.15199999907,
      "d": 107.14274999999907,
      "v": 98
    },
    {
      "midi": 62,
      "hit": false,
      "t": 133714.15199999907,
      "d": 107.14274999999907,
      "v": 109
    },
    {
      "midi": 65,
      "hit": false,
      "t": 133714.15199999907,
      "d": 107.14274999999907,
      "v": 109
    },
    {
      "midi": 58,
      "hit": false,
      "t": 133928.43749999907,
      "d": 107.14274999999907,
      "v": 116
    },
    {
      "midi": 62,
      "hit": false,
      "t": 133928.43749999907,
      "d": 160.7141249999986,
      "v": 117
    },
    {
      "midi": 65,
      "hit": false,
      "t": 133928.43749999907,
      "d": 214.28549999999814,
      "v": 117
    },
    {
      "midi": 58,
      "hit": false,
      "t": 134142.72299999907,
      "d": 107.14274999999907,
      "v": 104
    },
    {
      "midi": 58,
      "hit": false,
      "t": 134357.00849999906,
      "d": 107.14274999999907,
      "v": 65
    },
    {
      "midi": 63,
      "hit": false,
      "t": 134357.00849999906,
      "d": 107.14274999999907,
      "v": 85
    },
    {
      "midi": 58,
      "hit": false,
      "t": 134571.29399999906,
      "d": 133.92843749999884,
      "v": 117
    },
    {
      "midi": 63,
      "hit": false,
      "t": 134571.29399999906,
      "d": 214.28549999999814,
      "v": 117
    },
    {
      "midi": 67,
      "hit": false,
      "t": 134571.29399999906,
      "d": 214.28549999999814,
      "v": 117
    },
    {
      "midi": 58,
      "hit": false,
      "t": 134785.57949999906,
      "d": 107.14274999999907,
      "v": 104
    },
    {
      "midi": 67,
      "hit": false,
      "t": 134785.57949999906,
      "d": 107.14274999999907,
      "v": 67
    },
    {
      "midi": 58,
      "hit": false,
      "t": 134999.86499999906,
      "d": 107.14274999999907,
      "v": 85
    },
    {
      "midi": 63,
      "hit": false,
      "t": 134999.86499999906,
      "d": 107.14274999999907,
      "v": 77
    },
    {
      "midi": 67,
      "hit": false,
      "t": 134999.86499999906,
      "d": 107.14274999999907,
      "v": 94
    },
    {
      "midi": 58,
      "hit": false,
      "t": 135214.15049999906,
      "d": 107.14274999999907,
      "v": 109
    },
    {
      "midi": 62,
      "hit": false,
      "t": 135214.15049999906,
      "d": 214.28549999999814,
      "v": 116
    },
    {
      "midi": 65,
      "hit": false,
      "t": 135214.15049999906,
      "d": 214.28549999999814,
      "v": 117
    },
    {
      "midi": 58,
      "hit": false,
      "t": 135428.43599999906,
      "d": 107.14274999999907,
      "v": 89
    },
    {
      "midi": 56,
      "hit": false,
      "t": 135642.72149999905,
      "d": 107.14274999999907,
      "v": 117
    },
    {
      "midi": 60,
      "hit": false,
      "t": 135642.72149999905,
      "d": 160.7141249999986,
      "v": 109
    },
    {
      "midi": 65,
      "hit": false,
      "t": 135642.72149999905,
      "d": 267.8568749999977,
      "v": 116
    },
    {
      "midi": 56,
      "hit": false,
      "t": 135857.00699999905,
      "d": 107.14274999999907,
      "v": 104
    },
    {
      "midi": 56,
      "hit": false,
      "t": 136071.29249999905,
      "d": 107.14274999999907,
      "v": 116
    },
    {
      "midi": 60,
      "hit": false,
      "t": 136071.29249999905,
      "d": 160.7141249999986,
      "v": 109
    },
    {
      "midi": 65,
      "hit": false,
      "t": 136071.29249999905,
      "d": 321.4282499999972,
      "v": 116
    },
    {
      "midi": 61,
      "hit": false,
      "t": 136258.79231249905,
      "d": 53.571374999999534,
      "v": 104
    },
    {
      "midi": 58,
      "hit": false,
      "t": 136285.57799999905,
      "d": 107.14274999999907,
      "v": 94
    },
    {
      "midi": 62,
      "hit": false,
      "t": 136285.57799999905,
      "d": 160.7141249999986,
      "v": 117
    },
    {
      "midi": 58,
      "hit": false,
      "t": 136499.86349999905,
      "d": 107.14274999999907,
      "v": 89
    },
    {
      "midi": 65,
      "hit": false,
      "t": 136499.86349999905,
      "d": 107.14274999999907,
      "v": 51
    },
    {
      "midi": 58,
      "hit": false,
      "t": 136714.14899999904,
      "d": 107.14274999999907,
      "v": 109
    },
    {
      "midi": 63,
      "hit": false,
      "t": 136714.14899999904,
      "d": 160.7141249999986,
      "v": 104
    },
    {
      "midi": 67,
      "hit": false,
      "t": 136714.14899999904,
      "d": 160.7141249999986,
      "v": 116
    },
    {
      "midi": 58,
      "hit": false,
      "t": 136928.43449999904,
      "d": 107.14274999999907,
      "v": 104
    },
    {
      "midi": 62,
      "hit": false,
      "t": 137142.71999999904,
      "d": 107.14274999999907,
      "v": 92
    },
    {
      "midi": 58,
      "hit": false,
      "t": 137357.00549999904,
      "d": 107.14274999999907,
      "v": 116
    },
    {
      "midi": 62,
      "hit": false,
      "t": 137357.00549999904,
      "d": 160.7141249999986,
      "v": 117
    },
    {
      "midi": 65,
      "hit": false,
      "t": 137357.00549999904,
      "d": 160.7141249999986,
      "v": 117
    },
    {
      "midi": 58,
      "hit": false,
      "t": 137571.29099999904,
      "d": 107.14274999999907,
      "v": 109
    },
    {
      "midi": 65,
      "hit": false,
      "t": 137571.29099999904,
      "d": 107.14274999999907,
      "v": 70
    },
    {
      "midi": 63,
      "hit": false,
      "t": 137785.57649999904,
      "d": 107.14274999999907,
      "v": 98
    },
    {
      "midi": 58,
      "hit": false,
      "t": 137999.86199999903,
      "d": 107.14274999999907,
      "v": 117
    },
    {
      "midi": 67,
      "hit": false,
      "t": 137999.86199999903,
      "d": 160.7141249999986,
      "v": 117
    },
    {
      "midi": 63,
      "hit": false,
      "t": 137999.86199999903,
      "d": 214.28549999999814,
      "v": 117
    },
    {
      "midi": 58,
      "hit": false,
      "t": 138214.14749999903,
      "d": 107.14274999999907,
      "v": 104
    },
    {
      "midi": 58,
      "hit": false,
      "t": 138428.43299999903,
      "d": 107.14274999999907,
      "v": 104
    },
    {
      "midi": 63,
      "hit": false,
      "t": 138428.43299999903,
      "d": 107.14274999999907,
      "v": 116
    },
    {
      "midi": 67,
      "hit": false,
      "t": 138428.43299999903,
      "d": 107.14274999999907,
      "v": 109
    },
    {
      "midi": 58,
      "hit": false,
      "t": 138642.71849999903,
      "d": 107.14274999999907,
      "v": 98
    },
    {
      "midi": 62,
      "hit": false,
      "t": 138642.71849999903,
      "d": 160.7141249999986,
      "v": 117
    },
    {
      "midi": 65,
      "hit": false,
      "t": 138642.71849999903,
      "d": 267.8568749999977,
      "v": 117
    },
    {
      "midi": 58,
      "hit": false,
      "t": 138857.00399999903,
      "d": 107.14274999999907,
      "v": 98
    },
    {
      "midi": 56,
      "hit": false,
      "t": 139071.28949999902,
      "d": 107.14274999999907,
      "v": 109
    },
    {
      "midi": 60,
      "hit": false,
      "t": 139071.28949999902,
      "d": 160.7141249999986,
      "v": 116
    },
    {
      "midi": 65,
      "hit": false,
      "t": 139071.28949999902,
      "d": 160.7141249999986,
      "v": 117
    },
    {
      "midi": 56,
      "hit": false,
      "t": 139285.57499999902,
      "d": 107.14274999999907,
      "v": 87
    },
    {
      "midi": 56,
      "hit": false,
      "t": 139499.86049999902,
      "d": 160.7141249999986,
      "v": 116
    },
    {
      "midi": 60,
      "hit": false,
      "t": 139499.86049999902,
      "d": 160.7141249999986,
      "v": 116
    },
    {
      "midi": 65,
      "hit": false,
      "t": 139499.86049999902,
      "d": 160.7141249999986,
      "v": 116
    },
    {
      "midi": 62,
      "hit": false,
      "t": 139714.14599999902,
      "d": 160.7141249999986,
      "v": 117
    },
    {
      "midi": 65,
      "hit": false,
      "t": 139714.14599999902,
      "d": 214.28549999999814,
      "v": 109
    },
    {
      "midi": 58,
      "hit": false,
      "t": 139928.43149999902,
      "d": 107.14274999999907,
      "v": 87
    },
    {
      "midi": 58,
      "hit": false,
      "t": 140142.71699999901,
      "d": 107.14274999999907,
      "v": 109
    },
    {
      "midi": 63,
      "hit": false,
      "t": 140142.71699999901,
      "d": 160.7141249999986,
      "v": 117
    },
    {
      "midi": 67,
      "hit": false,
      "t": 140142.71699999901,
      "d": 160.7141249999986,
      "v": 117
    },
    {
      "midi": 58,
      "hit": false,
      "t": 140357.002499999,
      "d": 107.14274999999907,
      "v": 87
    },
    {
      "midi": 58,
      "hit": false,
      "t": 140571.287999999,
      "d": 107.14274999999907,
      "v": 98
    },
    {
      "midi": 62,
      "hit": false,
      "t": 140571.287999999,
      "d": 107.14274999999907,
      "v": 109
    },
    {
      "midi": 65,
      "hit": false,
      "t": 140571.287999999,
      "d": 107.14274999999907,
      "v": 109
    },
    {
      "midi": 58,
      "hit": false,
      "t": 140785.573499999,
      "d": 107.14274999999907,
      "v": 116
    },
    {
      "midi": 62,
      "hit": false,
      "t": 140785.573499999,
      "d": 160.7141249999986,
      "v": 117
    },
    {
      "midi": 65,
      "hit": false,
      "t": 140785.573499999,
      "d": 214.28549999999814,
      "v": 117
    },
    {
      "midi": 58,
      "hit": false,
      "t": 140999.858999999,
      "d": 107.14274999999907,
      "v": 104
    },
    {
      "midi": 58,
      "hit": false,
      "t": 141214.144499999,
      "d": 107.14274999999907,
      "v": 65
    },
    {
      "midi": 63,
      "hit": false,
      "t": 141214.144499999,
      "d": 107.14274999999907,
      "v": 85
    },
    {
      "midi": 58,
      "hit": false,
      "t": 141428.429999999,
      "d": 133.92843749999884,
      "v": 117
    },
    {
      "midi": 63,
      "hit": false,
      "t": 141428.429999999,
      "d": 214.28549999999814,
      "v": 117
    },
    {
      "midi": 67,
      "hit": false,
      "t": 141428.429999999,
      "d": 214.28549999999814,
      "v": 117
    },
    {
      "midi": 58,
      "hit": false,
      "t": 141642.715499999,
      "d": 107.14274999999907,
      "v": 104
    },
    {
      "midi": 67,
      "hit": false,
      "t": 141642.715499999,
      "d": 107.14274999999907,
      "v": 67
    },
    {
      "midi": 58,
      "hit": false,
      "t": 141857.000999999,
      "d": 107.14274999999907,
      "v": 85
    },
    {
      "midi": 63,
      "hit": false,
      "t": 141857.000999999,
      "d": 107.14274999999907,
      "v": 77
    },
    {
      "midi": 67,
      "hit": false,
      "t": 141857.000999999,
      "d": 107.14274999999907,
      "v": 94
    },
    {
      "midi": 58,
      "hit": false,
      "t": 142071.286499999,
      "d": 107.14274999999907,
      "v": 109
    },
    {
      "midi": 62,
      "hit": false,
      "t": 142071.286499999,
      "d": 214.28549999999814,
      "v": 116
    },
    {
      "midi": 65,
      "hit": false,
      "t": 142071.286499999,
      "d": 214.28549999999814,
      "v": 117
    },
    {
      "midi": 58,
      "hit": false,
      "t": 142285.571999999,
      "d": 107.14274999999907,
      "v": 89
    },
    {
      "midi": 56,
      "hit": false,
      "t": 142499.857499999,
      "d": 107.14274999999907,
      "v": 117
    },
    {
      "midi": 60,
      "hit": false,
      "t": 142499.857499999,
      "d": 160.7141249999986,
      "v": 109
    },
    {
      "midi": 65,
      "hit": false,
      "t": 142499.857499999,
      "d": 267.8568749999977,
      "v": 116
    },
    {
      "midi": 56,
      "hit": false,
      "t": 142714.142999999,
      "d": 107.14274999999907,
      "v": 104
    },
    {
      "midi": 56,
      "hit": false,
      "t": 142928.428499999,
      "d": 107.14274999999907,
      "v": 116
    },
    {
      "midi": 60,
      "hit": false,
      "t": 142928.428499999,
      "d": 160.7141249999986,
      "v": 109
    },
    {
      "midi": 65,
      "hit": false,
      "t": 142928.428499999,
      "d": 321.4282499999972,
      "v": 116
    },
    {
      "midi": 61,
      "hit": false,
      "t": 143115.928312499,
      "d": 53.571374999999534,
      "v": 104
    },
    {
      "midi": 58,
      "hit": false,
      "t": 143142.713999999,
      "d": 107.14274999999907,
      "v": 94
    },
    {
      "midi": 62,
      "hit": false,
      "t": 143142.713999999,
      "d": 160.7141249999986,
      "v": 117
    },
    {
      "midi": 58,
      "hit": false,
      "t": 143356.999499999,
      "d": 107.14274999999907,
      "v": 89
    },
    {
      "midi": 65,
      "hit": false,
      "t": 143356.999499999,
      "d": 107.14274999999907,
      "v": 51
    },
    {
      "midi": 58,
      "hit": false,
      "t": 143571.28499999898,
      "d": 107.14274999999907,
      "v": 109
    },
    {
      "midi": 63,
      "hit": false,
      "t": 143571.28499999898,
      "d": 160.7141249999986,
      "v": 104
    },
    {
      "midi": 67,
      "hit": false,
      "t": 143571.28499999898,
      "d": 160.7141249999986,
      "v": 116
    },
    {
      "midi": 58,
      "hit": false,
      "t": 143785.57049999898,
      "d": 107.14274999999907,
      "v": 104
    },
    {
      "midi": 62,
      "hit": false,
      "t": 143999.85599999898,
      "d": 107.14274999999907,
      "v": 92
    },
    {
      "midi": 58,
      "hit": false,
      "t": 144214.14149999898,
      "d": 107.14274999999907,
      "v": 116
    },
    {
      "midi": 62,
      "hit": false,
      "t": 144214.14149999898,
      "d": 160.7141249999986,
      "v": 117
    },
    {
      "midi": 65,
      "hit": false,
      "t": 144214.14149999898,
      "d": 160.7141249999986,
      "v": 117
    },
    {
      "midi": 58,
      "hit": false,
      "t": 144428.42699999898,
      "d": 107.14274999999907,
      "v": 109
    },
    {
      "midi": 65,
      "hit": false,
      "t": 144428.42699999898,
      "d": 107.14274999999907,
      "v": 70
    },
    {
      "midi": 63,
      "hit": false,
      "t": 144642.71249999898,
      "d": 107.14274999999907,
      "v": 98
    },
    {
      "midi": 58,
      "hit": false,
      "t": 144856.99799999897,
      "d": 107.14274999999907,
      "v": 117
    },
    {
      "midi": 67,
      "hit": false,
      "t": 144856.99799999897,
      "d": 160.7141249999986,
      "v": 117
    },
    {
      "midi": 63,
      "hit": false,
      "t": 144856.99799999897,
      "d": 214.28549999999814,
      "v": 117
    },
    {
      "midi": 58,
      "hit": false,
      "t": 145071.28349999897,
      "d": 107.14274999999907,
      "v": 104
    },
    {
      "midi": 58,
      "hit": false,
      "t": 145285.56899999897,
      "d": 107.14274999999907,
      "v": 104
    },
    {
      "midi": 63,
      "hit": false,
      "t": 145285.56899999897,
      "d": 107.14274999999907,
      "v": 116
    },
    {
      "midi": 67,
      "hit": false,
      "t": 145285.56899999897,
      "d": 107.14274999999907,
      "v": 109
    },
    {
      "midi": 58,
      "hit": false,
      "t": 145499.85449999897,
      "d": 107.14274999999907,
      "v": 98
    },
    {
      "midi": 62,
      "hit": false,
      "t": 145499.85449999897,
      "d": 160.7141249999986,
      "v": 117
    },
    {
      "midi": 65,
      "hit": false,
      "t": 145499.85449999897,
      "d": 267.8568749999977,
      "v": 117
    },
    {
      "midi": 58,
      "hit": false,
      "t": 145714.13999999897,
      "d": 107.14274999999907,
      "v": 98
    },
    {
      "midi": 56,
      "hit": false,
      "t": 145928.42549999896,
      "d": 107.14274999999907,
      "v": 109
    },
    {
      "midi": 60,
      "hit": false,
      "t": 145928.42549999896,
      "d": 160.7141249999986,
      "v": 116
    },
    {
      "midi": 65,
      "hit": false,
      "t": 145928.42549999896,
      "d": 160.7141249999986,
      "v": 117
    },
    {
      "midi": 56,
      "hit": false,
      "t": 146142.71099999896,
      "d": 107.14274999999907,
      "v": 87
    },
    {
      "midi": 56,
      "hit": false,
      "t": 146356.99649999896,
      "d": 160.7141249999986,
      "v": 116
    },
    {
      "midi": 60,
      "hit": false,
      "t": 146356.99649999896,
      "d": 160.7141249999986,
      "v": 116
    },
    {
      "midi": 65,
      "hit": false,
      "t": 146356.99649999896,
      "d": 160.7141249999986,
      "v": 116
    },
    {
      "midi": 62,
      "hit": false,
      "t": 146571.28199999896,
      "d": 160.7141249999986,
      "v": 117
    },
    {
      "midi": 65,
      "hit": false,
      "t": 146571.28199999896,
      "d": 214.28549999999814,
      "v": 109
    },
    {
      "midi": 58,
      "hit": false,
      "t": 146785.56749999896,
      "d": 107.14274999999907,
      "v": 87
    },
    {
      "midi": 58,
      "hit": false,
      "t": 146999.85299999896,
      "d": 107.14274999999907,
      "v": 109
    },
    {
      "midi": 63,
      "hit": false,
      "t": 146999.85299999896,
      "d": 160.7141249999986,
      "v": 117
    },
    {
      "midi": 67,
      "hit": false,
      "t": 146999.85299999896,
      "d": 160.7141249999986,
      "v": 117
    },
    {
      "midi": 58,
      "hit": false,
      "t": 147214.13849999895,
      "d": 107.14274999999907,
      "v": 87
    },
    {
      "midi": 58,
      "hit": false,
      "t": 147428.42399999895,
      "d": 107.14274999999907,
      "v": 98
    },
    {
      "midi": 62,
      "hit": false,
      "t": 147428.42399999895,
      "d": 107.14274999999907,
      "v": 109
    },
    {
      "midi": 65,
      "hit": false,
      "t": 147428.42399999895,
      "d": 107.14274999999907,
      "v": 109
    },
    {
      "midi": 58,
      "hit": false,
      "t": 147642.70949999895,
      "d": 107.14274999999907,
      "v": 116
    },
    {
      "midi": 62,
      "hit": false,
      "t": 147642.70949999895,
      "d": 160.7141249999986,
      "v": 117
    },
    {
      "midi": 65,
      "hit": false,
      "t": 147642.70949999895,
      "d": 214.28549999999814,
      "v": 117
    },
    {
      "midi": 58,
      "hit": false,
      "t": 147856.99499999895,
      "d": 107.14274999999907,
      "v": 104
    },
    {
      "midi": 58,
      "hit": false,
      "t": 148071.28049999895,
      "d": 107.14274999999907,
      "v": 65
    },
    {
      "midi": 63,
      "hit": false,
      "t": 148071.28049999895,
      "d": 107.14274999999907,
      "v": 85
    },
    {
      "midi": 58,
      "hit": false,
      "t": 148285.56599999894,
      "d": 133.92843749999884,
      "v": 117
    },
    {
      "midi": 63,
      "hit": false,
      "t": 148285.56599999894,
      "d": 214.28549999999814,
      "v": 117
    },
    {
      "midi": 67,
      "hit": false,
      "t": 148285.56599999894,
      "d": 214.28549999999814,
      "v": 117
    },
    {
      "midi": 58,
      "hit": false,
      "t": 148499.85149999894,
      "d": 107.14274999999907,
      "v": 104
    },
    {
      "midi": 67,
      "hit": false,
      "t": 148499.85149999894,
      "d": 107.14274999999907,
      "v": 67
    },
    {
      "midi": 58,
      "hit": false,
      "t": 148714.13699999894,
      "d": 107.14274999999907,
      "v": 85
    },
    {
      "midi": 63,
      "hit": false,
      "t": 148714.13699999894,
      "d": 107.14274999999907,
      "v": 77
    },
    {
      "midi": 67,
      "hit": false,
      "t": 148714.13699999894,
      "d": 107.14274999999907,
      "v": 94
    },
    {
      "midi": 58,
      "hit": false,
      "t": 148928.42249999894,
      "d": 107.14274999999907,
      "v": 109
    },
    {
      "midi": 62,
      "hit": false,
      "t": 148928.42249999894,
      "d": 214.28549999999814,
      "v": 116
    },
    {
      "midi": 65,
      "hit": false,
      "t": 148928.42249999894,
      "d": 214.28549999999814,
      "v": 117
    },
    {
      "midi": 58,
      "hit": false,
      "t": 149142.70799999894,
      "d": 107.14274999999907,
      "v": 89
    },
    {
      "midi": 56,
      "hit": false,
      "t": 149356.99349999893,
      "d": 107.14274999999907,
      "v": 117
    },
    {
      "midi": 60,
      "hit": false,
      "t": 149356.99349999893,
      "d": 160.7141249999986,
      "v": 109
    },
    {
      "midi": 65,
      "hit": false,
      "t": 149356.99349999893,
      "d": 267.8568749999977,
      "v": 116
    },
    {
      "midi": 56,
      "hit": false,
      "t": 149571.27899999893,
      "d": 107.14274999999907,
      "v": 104
    },
    {
      "midi": 56,
      "hit": false,
      "t": 149785.56449999893,
      "d": 107.14274999999907,
      "v": 116
    },
    {
      "midi": 60,
      "hit": false,
      "t": 149785.56449999893,
      "d": 160.7141249999986,
      "v": 109
    },
    {
      "midi": 65,
      "hit": false,
      "t": 149785.56449999893,
      "d": 321.4282499999972,
      "v": 116
    },
    {
      "midi": 61,
      "hit": false,
      "t": 149973.06431249893,
      "d": 53.571374999999534,
      "v": 104
    },
    {
      "midi": 58,
      "hit": false,
      "t": 149999.84999999893,
      "d": 107.14274999999907,
      "v": 94
    },
    {
      "midi": 62,
      "hit": false,
      "t": 149999.84999999893,
      "d": 160.7141249999986,
      "v": 117
    },
    {
      "midi": 58,
      "hit": false,
      "t": 150214.13549999893,
      "d": 107.14274999999907,
      "v": 89
    },
    {
      "midi": 65,
      "hit": false,
      "t": 150214.13549999893,
      "d": 107.14274999999907,
      "v": 51
    },
    {
      "midi": 58,
      "hit": false,
      "t": 150428.42099999893,
      "d": 107.14274999999907,
      "v": 109
    },
    {
      "midi": 63,
      "hit": false,
      "t": 150428.42099999893,
      "d": 160.7141249999986,
      "v": 104
    },
    {
      "midi": 67,
      "hit": false,
      "t": 150428.42099999893,
      "d": 160.7141249999986,
      "v": 116
    },
    {
      "midi": 58,
      "hit": false,
      "t": 150642.70649999892,
      "d": 107.14274999999907,
      "v": 104
    },
    {
      "midi": 62,
      "hit": false,
      "t": 150856.99199999892,
      "d": 107.14274999999907,
      "v": 92
    },
    {
      "midi": 58,
      "hit": false,
      "t": 151071.27749999892,
      "d": 107.14274999999907,
      "v": 116
    },
    {
      "midi": 62,
      "hit": false,
      "t": 151071.27749999892,
      "d": 160.7141249999986,
      "v": 117
    },
    {
      "midi": 65,
      "hit": false,
      "t": 151071.27749999892,
      "d": 160.7141249999986,
      "v": 117
    },
    {
      "midi": 58,
      "hit": false,
      "t": 151285.56299999892,
      "d": 107.14274999999907,
      "v": 109
    },
    {
      "midi": 65,
      "hit": false,
      "t": 151285.56299999892,
      "d": 107.14274999999907,
      "v": 70
    },
    {
      "midi": 63,
      "hit": false,
      "t": 151499.84849999892,
      "d": 107.14274999999907,
      "v": 98
    },
    {
      "midi": 58,
      "hit": false,
      "t": 151714.1339999989,
      "d": 107.14274999999907,
      "v": 117
    },
    {
      "midi": 67,
      "hit": false,
      "t": 151714.1339999989,
      "d": 160.7141249999986,
      "v": 117
    },
    {
      "midi": 63,
      "hit": false,
      "t": 151714.1339999989,
      "d": 214.28549999999814,
      "v": 117
    },
    {
      "midi": 58,
      "hit": false,
      "t": 151928.4194999989,
      "d": 107.14274999999907,
      "v": 104
    },
    {
      "midi": 58,
      "hit": false,
      "t": 152142.7049999989,
      "d": 107.14274999999907,
      "v": 104
    },
    {
      "midi": 63,
      "hit": false,
      "t": 152142.7049999989,
      "d": 107.14274999999907,
      "v": 116
    },
    {
      "midi": 67,
      "hit": false,
      "t": 152142.7049999989,
      "d": 107.14274999999907,
      "v": 109
    },
    {
      "midi": 58,
      "hit": false,
      "t": 152356.9904999989,
      "d": 107.14274999999907,
      "v": 98
    },
    {
      "midi": 62,
      "hit": false,
      "t": 152356.9904999989,
      "d": 160.7141249999986,
      "v": 117
    },
    {
      "midi": 65,
      "hit": false,
      "t": 152356.9904999989,
      "d": 267.8568749999977,
      "v": 117
    },
    {
      "midi": 58,
      "hit": false,
      "t": 152571.2759999989,
      "d": 107.14274999999907,
      "v": 98
    },
    {
      "midi": 56,
      "hit": false,
      "t": 152785.5614999989,
      "d": 107.14274999999907,
      "v": 109
    },
    {
      "midi": 60,
      "hit": false,
      "t": 152785.5614999989,
      "d": 160.7141249999986,
      "v": 116
    },
    {
      "midi": 65,
      "hit": false,
      "t": 152785.5614999989,
      "d": 160.7141249999986,
      "v": 117
    },
    {
      "midi": 56,
      "hit": false,
      "t": 152999.8469999989,
      "d": 107.14274999999907,
      "v": 87
    },
    {
      "midi": 56,
      "hit": false,
      "t": 153214.1324999989,
      "d": 160.7141249999986,
      "v": 116
    },
    {
      "midi": 60,
      "hit": false,
      "t": 153214.1324999989,
      "d": 160.7141249999986,
      "v": 116
    },
    {
      "midi": 65,
      "hit": false,
      "t": 153214.1324999989,
      "d": 160.7141249999986,
      "v": 116
    },
    {
      "midi": 62,
      "hit": false,
      "t": 153428.4179999989,
      "d": 160.7141249999986,
      "v": 117
    },
    {
      "midi": 65,
      "hit": false,
      "t": 153428.4179999989,
      "d": 214.28549999999814,
      "v": 109
    },
    {
      "midi": 58,
      "hit": false,
      "t": 153642.7034999989,
      "d": 107.14274999999907,
      "v": 87
    },
    {
      "midi": 58,
      "hit": false,
      "t": 153856.9889999989,
      "d": 107.14274999999907,
      "v": 109
    },
    {
      "midi": 63,
      "hit": false,
      "t": 153856.9889999989,
      "d": 160.7141249999986,
      "v": 117
    },
    {
      "midi": 67,
      "hit": false,
      "t": 153856.9889999989,
      "d": 160.7141249999986,
      "v": 117
    },
    {
      "midi": 58,
      "hit": false,
      "t": 154071.2744999989,
      "d": 107.14274999999907,
      "v": 87
    },
    {
      "midi": 58,
      "hit": false,
      "t": 154285.5599999989,
      "d": 107.14274999999907,
      "v": 98
    },
    {
      "midi": 62,
      "hit": false,
      "t": 154285.5599999989,
      "d": 107.14274999999907,
      "v": 109
    },
    {
      "midi": 65,
      "hit": false,
      "t": 154285.5599999989,
      "d": 107.14274999999907,
      "v": 109
    },
    {
      "midi": 58,
      "hit": false,
      "t": 154499.8454999989,
      "d": 107.14274999999907,
      "v": 116
    },
    {
      "midi": 62,
      "hit": false,
      "t": 154499.8454999989,
      "d": 160.7141249999986,
      "v": 117
    },
    {
      "midi": 65,
      "hit": false,
      "t": 154499.8454999989,
      "d": 214.28549999999814,
      "v": 117
    },
    {
      "midi": 58,
      "hit": false,
      "t": 154714.1309999989,
      "d": 107.14274999999907,
      "v": 104
    },
    {
      "midi": 58,
      "hit": false,
      "t": 154928.4164999989,
      "d": 107.14274999999907,
      "v": 65
    },
    {
      "midi": 63,
      "hit": false,
      "t": 154928.4164999989,
      "d": 107.14274999999907,
      "v": 85
    },
    {
      "midi": 58,
      "hit": false,
      "t": 155142.70199999888,
      "d": 133.92843749999884,
      "v": 117
    },
    {
      "midi": 63,
      "hit": false,
      "t": 155142.70199999888,
      "d": 214.28549999999814,
      "v": 117
    },
    {
      "midi": 67,
      "hit": false,
      "t": 155142.70199999888,
      "d": 214.28549999999814,
      "v": 117
    },
    {
      "midi": 58,
      "hit": false,
      "t": 155356.98749999888,
      "d": 107.14274999999907,
      "v": 104
    },
    {
      "midi": 67,
      "hit": false,
      "t": 155356.98749999888,
      "d": 107.14274999999907,
      "v": 67
    },
    {
      "midi": 58,
      "hit": false,
      "t": 155571.27299999888,
      "d": 107.14274999999907,
      "v": 85
    },
    {
      "midi": 63,
      "hit": false,
      "t": 155571.27299999888,
      "d": 107.14274999999907,
      "v": 77
    },
    {
      "midi": 67,
      "hit": false,
      "t": 155571.27299999888,
      "d": 107.14274999999907,
      "v": 94
    },
    {
      "midi": 58,
      "hit": false,
      "t": 155785.55849999888,
      "d": 107.14274999999907,
      "v": 109
    },
    {
      "midi": 62,
      "hit": false,
      "t": 155785.55849999888,
      "d": 214.28549999999814,
      "v": 116
    },
    {
      "midi": 65,
      "hit": false,
      "t": 155785.55849999888,
      "d": 214.28549999999814,
      "v": 117
    },
    {
      "midi": 58,
      "hit": false,
      "t": 155999.84399999888,
      "d": 107.14274999999907,
      "v": 89
    },
    {
      "midi": 56,
      "hit": false,
      "t": 156214.12949999887,
      "d": 107.14274999999907,
      "v": 117
    },
    {
      "midi": 60,
      "hit": false,
      "t": 156214.12949999887,
      "d": 160.7141249999986,
      "v": 109
    },
    {
      "midi": 65,
      "hit": false,
      "t": 156214.12949999887,
      "d": 267.8568749999977,
      "v": 116
    },
    {
      "midi": 56,
      "hit": false,
      "t": 156428.41499999887,
      "d": 107.14274999999907,
      "v": 104
    },
    {
      "midi": 56,
      "hit": false,
      "t": 156642.70049999887,
      "d": 107.14274999999907,
      "v": 116
    },
    {
      "midi": 60,
      "hit": false,
      "t": 156642.70049999887,
      "d": 160.7141249999986,
      "v": 109
    },
    {
      "midi": 65,
      "hit": false,
      "t": 156642.70049999887,
      "d": 321.4282499999972,
      "v": 116
    },
    {
      "midi": 61,
      "hit": false,
      "t": 156830.20031249887,
      "d": 53.571374999999534,
      "v": 104
    },
    {
      "midi": 58,
      "hit": false,
      "t": 156856.98599999887,
      "d": 107.14274999999907,
      "v": 94
    },
    {
      "midi": 62,
      "hit": false,
      "t": 156856.98599999887,
      "d": 160.7141249999986,
      "v": 117
    },
    {
      "midi": 58,
      "hit": false,
      "t": 157071.27149999887,
      "d": 107.14274999999907,
      "v": 89
    },
    {
      "midi": 65,
      "hit": false,
      "t": 157071.27149999887,
      "d": 107.14274999999907,
      "v": 51
    },
    {
      "midi": 58,
      "hit": false,
      "t": 157285.55699999887,
      "d": 107.14274999999907,
      "v": 109
    },
    {
      "midi": 63,
      "hit": false,
      "t": 157285.55699999887,
      "d": 160.7141249999986,
      "v": 104
    },
    {
      "midi": 67,
      "hit": false,
      "t": 157285.55699999887,
      "d": 160.7141249999986,
      "v": 116
    },
    {
      "midi": 58,
      "hit": false,
      "t": 157499.84249999886,
      "d": 107.14274999999907,
      "v": 104
    },
    {
      "midi": 62,
      "hit": false,
      "t": 157714.12799999886,
      "d": 107.14274999999907,
      "v": 92
    },
    {
      "midi": 58,
      "hit": false,
      "t": 157928.41349999886,
      "d": 107.14274999999907,
      "v": 116
    },
    {
      "midi": 62,
      "hit": false,
      "t": 157928.41349999886,
      "d": 160.7141249999986,
      "v": 117
    },
    {
      "midi": 65,
      "hit": false,
      "t": 157928.41349999886,
      "d": 160.7141249999986,
      "v": 117
    },
    {
      "midi": 58,
      "hit": false,
      "t": 158142.69899999886,
      "d": 107.14274999999907,
      "v": 109
    },
    {
      "midi": 65,
      "hit": false,
      "t": 158142.69899999886,
      "d": 107.14274999999907,
      "v": 70
    },
    {
      "midi": 63,
      "hit": false,
      "t": 158356.98449999886,
      "d": 107.14274999999907,
      "v": 98
    },
    {
      "midi": 58,
      "hit": false,
      "t": 158571.26999999885,
      "d": 107.14274999999907,
      "v": 117
    },
    {
      "midi": 67,
      "hit": false,
      "t": 158571.26999999885,
      "d": 160.7141249999986,
      "v": 117
    },
    {
      "midi": 63,
      "hit": false,
      "t": 158571.26999999885,
      "d": 214.28549999999814,
      "v": 117
    },
    {
      "midi": 58,
      "hit": false,
      "t": 158785.55549999885,
      "d": 107.14274999999907,
      "v": 104
    },
    {
      "midi": 58,
      "hit": false,
      "t": 158999.84099999885,
      "d": 107.14274999999907,
      "v": 104
    },
    {
      "midi": 63,
      "hit": false,
      "t": 158999.84099999885,
      "d": 107.14274999999907,
      "v": 116
    },
    {
      "midi": 67,
      "hit": false,
      "t": 158999.84099999885,
      "d": 107.14274999999907,
      "v": 109
    },
    {
      "midi": 58,
      "hit": false,
      "t": 159214.12649999885,
      "d": 107.14274999999907,
      "v": 98
    },
    {
      "midi": 62,
      "hit": false,
      "t": 159214.12649999885,
      "d": 160.7141249999986,
      "v": 117
    },
    {
      "midi": 65,
      "hit": false,
      "t": 159214.12649999885,
      "d": 267.8568749999977,
      "v": 117
    },
    {
      "midi": 58,
      "hit": false,
      "t": 159428.41199999885,
      "d": 107.14274999999907,
      "v": 98
    },
    {
      "midi": 56,
      "hit": false,
      "t": 159642.69749999885,
      "d": 107.14274999999907,
      "v": 109
    },
    {
      "midi": 60,
      "hit": false,
      "t": 159642.69749999885,
      "d": 160.7141249999986,
      "v": 116
    },
    {
      "midi": 65,
      "hit": false,
      "t": 159642.69749999885,
      "d": 160.7141249999986,
      "v": 117
    },
    {
      "midi": 56,
      "hit": false,
      "t": 159856.98299999884,
      "d": 107.14274999999907,
      "v": 87
    },
    {
      "midi": 56,
      "hit": false,
      "t": 160071.26849999884,
      "d": 160.7141249999986,
      "v": 116
    },
    {
      "midi": 60,
      "hit": false,
      "t": 160071.26849999884,
      "d": 160.7141249999986,
      "v": 116
    },
    {
      "midi": 65,
      "hit": false,
      "t": 160071.26849999884,
      "d": 160.7141249999986,
      "v": 116
    },
    {
      "midi": 62,
      "hit": false,
      "t": 160285.55399999884,
      "d": 160.7141249999986,
      "v": 117
    },
    {
      "midi": 65,
      "hit": false,
      "t": 160285.55399999884,
      "d": 214.28549999999814,
      "v": 109
    },
    {
      "midi": 58,
      "hit": false,
      "t": 160499.83949999884,
      "d": 107.14274999999907,
      "v": 87
    },
    {
      "midi": 58,
      "hit": false,
      "t": 160714.12499999884,
      "d": 107.14274999999907,
      "v": 109
    },
    {
      "midi": 63,
      "hit": false,
      "t": 160714.12499999884,
      "d": 160.7141249999986,
      "v": 117
    },
    {
      "midi": 67,
      "hit": false,
      "t": 160714.12499999884,
      "d": 160.7141249999986,
      "v": 117
    },
    {
      "midi": 58,
      "hit": false,
      "t": 160928.41049999883,
      "d": 107.14274999999907,
      "v": 87
    },
    {
      "midi": 58,
      "hit": false,
      "t": 161142.69599999883,
      "d": 107.14274999999907,
      "v": 98
    },
    {
      "midi": 62,
      "hit": false,
      "t": 161142.69599999883,
      "d": 107.14274999999907,
      "v": 109
    },
    {
      "midi": 65,
      "hit": false,
      "t": 161142.69599999883,
      "d": 107.14274999999907,
      "v": 109
    },
    {
      "midi": 58,
      "hit": false,
      "t": 161356.98149999883,
      "d": 107.14274999999907,
      "v": 116
    },
    {
      "midi": 62,
      "hit": false,
      "t": 161356.98149999883,
      "d": 160.7141249999986,
      "v": 117
    },
    {
      "midi": 65,
      "hit": false,
      "t": 161356.98149999883,
      "d": 214.28549999999814,
      "v": 117
    },
    {
      "midi": 58,
      "hit": false,
      "t": 161571.26699999883,
      "d": 107.14274999999907,
      "v": 104
    },
    {
      "midi": 58,
      "hit": false,
      "t": 161785.55249999883,
      "d": 107.14274999999907,
      "v": 65
    },
    {
      "midi": 63,
      "hit": false,
      "t": 161785.55249999883,
      "d": 107.14274999999907,
      "v": 85
    },
    {
      "midi": 58,
      "hit": false,
      "t": 161999.83799999882,
      "d": 133.92843749999884,
      "v": 117
    },
    {
      "midi": 63,
      "hit": false,
      "t": 161999.83799999882,
      "d": 214.28549999999814,
      "v": 117
    },
    {
      "midi": 67,
      "hit": false,
      "t": 161999.83799999882,
      "d": 214.28549999999814,
      "v": 117
    },
    {
      "midi": 58,
      "hit": false,
      "t": 162214.12349999882,
      "d": 107.14274999999907,
      "v": 104
    },
    {
      "midi": 67,
      "hit": false,
      "t": 162214.12349999882,
      "d": 107.14274999999907,
      "v": 67
    },
    {
      "midi": 58,
      "hit": false,
      "t": 162428.40899999882,
      "d": 107.14274999999907,
      "v": 85
    },
    {
      "midi": 63,
      "hit": false,
      "t": 162428.40899999882,
      "d": 107.14274999999907,
      "v": 77
    },
    {
      "midi": 67,
      "hit": false,
      "t": 162428.40899999882,
      "d": 107.14274999999907,
      "v": 94
    },
    {
      "midi": 58,
      "hit": false,
      "t": 162642.69449999882,
      "d": 107.14274999999907,
      "v": 109
    },
    {
      "midi": 62,
      "hit": false,
      "t": 162642.69449999882,
      "d": 214.28549999999814,
      "v": 116
    },
    {
      "midi": 65,
      "hit": false,
      "t": 162642.69449999882,
      "d": 214.28549999999814,
      "v": 117
    },
    {
      "midi": 58,
      "hit": false,
      "t": 162856.97999999882,
      "d": 107.14274999999907,
      "v": 89
    },
    {
      "midi": 56,
      "hit": false,
      "t": 163071.26549999882,
      "d": 107.14274999999907,
      "v": 117
    },
    {
      "midi": 60,
      "hit": false,
      "t": 163071.26549999882,
      "d": 160.7141249999986,
      "v": 109
    },
    {
      "midi": 65,
      "hit": false,
      "t": 163071.26549999882,
      "d": 267.8568749999977,
      "v": 116
    },
    {
      "midi": 56,
      "hit": false,
      "t": 163285.5509999988,
      "d": 107.14274999999907,
      "v": 104
    },
    {
      "midi": 56,
      "hit": false,
      "t": 163499.8364999988,
      "d": 107.14274999999907,
      "v": 116
    },
    {
      "midi": 60,
      "hit": false,
      "t": 163499.8364999988,
      "d": 160.7141249999986,
      "v": 109
    },
    {
      "midi": 65,
      "hit": false,
      "t": 163499.8364999988,
      "d": 321.4282499999972,
      "v": 116
    },
    {
      "midi": 61,
      "hit": false,
      "t": 163687.3363124988,
      "d": 53.571374999999534,
      "v": 104
    },
    {
      "midi": 58,
      "hit": false,
      "t": 163714.1219999988,
      "d": 107.14274999999907,
      "v": 94
    },
    {
      "midi": 62,
      "hit": false,
      "t": 163714.1219999988,
      "d": 160.7141249999986,
      "v": 117
    },
    {
      "midi": 58,
      "hit": false,
      "t": 163928.4074999988,
      "d": 107.14274999999907,
      "v": 89
    },
    {
      "midi": 65,
      "hit": false,
      "t": 163928.4074999988,
      "d": 107.14274999999907,
      "v": 51
    },
    {
      "midi": 58,
      "hit": false,
      "t": 164142.6929999988,
      "d": 107.14274999999907,
      "v": 109
    },
    {
      "midi": 63,
      "hit": false,
      "t": 164142.6929999988,
      "d": 160.7141249999986,
      "v": 104
    },
    {
      "midi": 67,
      "hit": false,
      "t": 164142.6929999988,
      "d": 160.7141249999986,
      "v": 116
    },
    {
      "midi": 58,
      "hit": false,
      "t": 164356.9784999988,
      "d": 107.14274999999907,
      "v": 104
    },
    {
      "midi": 62,
      "hit": false,
      "t": 164571.2639999988,
      "d": 107.14274999999907,
      "v": 92
    },
    {
      "midi": 58,
      "hit": false,
      "t": 164785.5494999988,
      "d": 107.14274999999907,
      "v": 116
    },
    {
      "midi": 62,
      "hit": false,
      "t": 164785.5494999988,
      "d": 160.7141249999986,
      "v": 117
    },
    {
      "midi": 65,
      "hit": false,
      "t": 164785.5494999988,
      "d": 160.7141249999986,
      "v": 117
    },
    {
      "midi": 58,
      "hit": false,
      "t": 164999.8349999988,
      "d": 107.14274999999907,
      "v": 109
    },
    {
      "midi": 65,
      "hit": false,
      "t": 164999.8349999988,
      "d": 107.14274999999907,
      "v": 70
    },
    {
      "midi": 63,
      "hit": false,
      "t": 165214.1204999988,
      "d": 107.14274999999907,
      "v": 98
    },
    {
      "midi": 58,
      "hit": false,
      "t": 165428.4059999988,
      "d": 107.14274999999907,
      "v": 117
    },
    {
      "midi": 67,
      "hit": false,
      "t": 165428.4059999988,
      "d": 160.7141249999986,
      "v": 117
    },
    {
      "midi": 63,
      "hit": false,
      "t": 165428.4059999988,
      "d": 214.28549999999814,
      "v": 117
    },
    {
      "midi": 58,
      "hit": false,
      "t": 165642.6914999988,
      "d": 107.14274999999907,
      "v": 104
    },
    {
      "midi": 58,
      "hit": false,
      "t": 165856.9769999988,
      "d": 107.14274999999907,
      "v": 104
    },
    {
      "midi": 63,
      "hit": false,
      "t": 165856.9769999988,
      "d": 107.14274999999907,
      "v": 116
    },
    {
      "midi": 67,
      "hit": false,
      "t": 165856.9769999988,
      "d": 107.14274999999907,
      "v": 109
    },
    {
      "midi": 58,
      "hit": false,
      "t": 166071.2624999988,
      "d": 107.14274999999907,
      "v": 98
    },
    {
      "midi": 62,
      "hit": false,
      "t": 166071.2624999988,
      "d": 160.7141249999986,
      "v": 117
    },
    {
      "midi": 65,
      "hit": false,
      "t": 166071.2624999988,
      "d": 267.8568749999977,
      "v": 117
    },
    {
      "midi": 58,
      "hit": false,
      "t": 166285.5479999988,
      "d": 107.14274999999907,
      "v": 98
    },
    {
      "midi": 56,
      "hit": false,
      "t": 166499.8334999988,
      "d": 107.14274999999907,
      "v": 109
    },
    {
      "midi": 60,
      "hit": false,
      "t": 166499.8334999988,
      "d": 160.7141249999986,
      "v": 116
    },
    {
      "midi": 65,
      "hit": false,
      "t": 166499.8334999988,
      "d": 160.7141249999986,
      "v": 117
    },
    {
      "midi": 56,
      "hit": false,
      "t": 166714.11899999878,
      "d": 107.14274999999907,
      "v": 87
    },
    {
      "midi": 56,
      "hit": false,
      "t": 166928.40449999878,
      "d": 160.7141249999986,
      "v": 116
    },
    {
      "midi": 60,
      "hit": false,
      "t": 166928.40449999878,
      "d": 160.7141249999986,
      "v": 116
    },
    {
      "midi": 65,
      "hit": false,
      "t": 166928.40449999878,
      "d": 160.7141249999986,
      "v": 116
    },
    {
      "midi": 58,
      "hit": false,
      "t": 167142.68999999878,
      "d": 214.28549999999814,
      "v": 116
    },
    {
      "midi": 63,
      "hit": false,
      "t": 167142.68999999878,
      "d": 214.28549999999814,
      "v": 117
    },
    {
      "midi": 67,
      "hit": false,
      "t": 167142.68999999878,
      "d": 214.28549999999814,
      "v": 117
    },
    {
      "midi": 51,
      "hit": false,
      "t": 167356.97549999878,
      "d": 241.0711874999979,
      "v": 89
    },
    {
      "midi": 63,
      "hit": false,
      "t": 167571.26099999878,
      "d": 214.28549999999814,
      "v": 109
    },
    {
      "midi": 67,
      "hit": false,
      "t": 167571.26099999878,
      "d": 214.28549999999814,
      "v": 117
    },
    {
      "midi": 60,
      "hit": false,
      "t": 167571.26099999878,
      "d": 241.0711874999979,
      "v": 117
    },
    {
      "midi": 51,
      "hit": false,
      "t": 167785.54649999877,
      "d": 214.28549999999814,
      "v": 84
    },
    {
      "midi": 58,
      "hit": false,
      "t": 167999.83199999877,
      "d": 214.28549999999814,
      "v": 116
    },
    {
      "midi": 63,
      "hit": false,
      "t": 167999.83199999877,
      "d": 214.28549999999814,
      "v": 109
    },
    {
      "midi": 67,
      "hit": false,
      "t": 167999.83199999877,
      "d": 214.28549999999814,
      "v": 104
    },
    {
      "midi": 51,
      "hit": false,
      "t": 168214.11749999877,
      "d": 214.28549999999814,
      "v": 84
    },
    {
      "midi": 60,
      "hit": false,
      "t": 168428.40299999877,
      "d": 214.28549999999814,
      "v": 116
    },
    {
      "midi": 63,
      "hit": false,
      "t": 168428.40299999877,
      "d": 214.28549999999814,
      "v": 117
    },
    {
      "midi": 67,
      "hit": false,
      "t": 168428.40299999877,
      "d": 214.28549999999814,
      "v": 116
    },
    {
      "midi": 51,
      "hit": false,
      "t": 168642.68849999877,
      "d": 214.28549999999814,
      "v": 97
    },
    {
      "midi": 58,
      "hit": false,
      "t": 169071.25949999876,
      "d": 214.28549999999814,
      "v": 104
    },
    {
      "midi": 63,
      "hit": false,
      "t": 169071.25949999876,
      "d": 214.28549999999814,
      "v": 117
    },
    {
      "midi": 67,
      "hit": false,
      "t": 169071.25949999876,
      "d": 214.28549999999814,
      "v": 117
    },
    {
      "midi": 51,
      "hit": false,
      "t": 169499.83049999876,
      "d": 214.28549999999814,
      "v": 96
    },
    {
      "midi": 36,
      "hit": false,
      "t": 169714.11599999876,
      "d": 1.1160703125060536,
      "v": 31
    },
    {
      "midi": 91,
      "hit": false,
      "t": 169714.11599999876,
      "d": 107.14274999999907,
      "v": 31
    },
    {
      "midi": 58,
      "hit": false,
      "t": 169714.11599999876,
      "d": 642.8564999999944,
      "v": 117
    },
    {
      "midi": 63,
      "hit": false,
      "t": 169714.11599999876,
      "d": 642.8564999999944,
      "v": 117
    },
    {
      "midi": 67,
      "hit": false,
      "t": 169714.11599999876,
      "d": 642.8564999999944,
      "v": 117
    },
    {
      "midi": 60,
      "hit": false,
      "t": 170571.25799999875,
      "d": 214.28549999999814,
      "v": 117
    },
    {
      "midi": 69,
      "hit": false,
      "t": 170571.25799999875,
      "d": 214.28549999999814,
      "v": 116
    },
    {
      "midi": 65,
      "hit": false,
      "t": 170571.25799999875,
      "d": 321.4282499999972,
      "v": 109
    },
    {
      "midi": 53,
      "hit": false,
      "t": 170785.54349999875,
      "d": 214.28549999999814,
      "v": 69
    },
    {
      "midi": 62,
      "hit": false,
      "t": 170999.82899999875,
      "d": 214.28549999999814,
      "v": 116
    },
    {
      "midi": 65,
      "hit": false,
      "t": 170999.82899999875,
      "d": 214.28549999999814,
      "v": 117
    },
    {
      "midi": 69,
      "hit": false,
      "t": 170999.82899999875,
      "d": 214.28549999999814,
      "v": 116
    },
    {
      "midi": 53,
      "hit": false,
      "t": 171214.11449999874,
      "d": 214.28549999999814,
      "v": 72
    },
    {
      "midi": 60,
      "hit": false,
      "t": 171428.39999999874,
      "d": 214.28549999999814,
      "v": 117
    },
    {
      "midi": 69,
      "hit": false,
      "t": 171428.39999999874,
      "d": 214.28549999999814,
      "v": 109
    },
    {
      "midi": 65,
      "hit": false,
      "t": 171428.39999999874,
      "d": 321.4282499999972,
      "v": 109
    },
    {
      "midi": 53,
      "hit": false,
      "t": 171642.68549999874,
      "d": 241.0711874999979,
      "v": 72
    },
    {
      "midi": 62,
      "hit": false,
      "t": 171856.97099999874,
      "d": 214.28549999999814,
      "v": 117
    },
    {
      "midi": 65,
      "hit": false,
      "t": 171856.97099999874,
      "d": 214.28549999999814,
      "v": 104
    },
    {
      "midi": 69,
      "hit": false,
      "t": 171856.97099999874,
      "d": 214.28549999999814,
      "v": 109
    },
    {
      "midi": 53,
      "hit": false,
      "t": 172071.25649999874,
      "d": 214.28549999999814,
      "v": 70
    },
    {
      "midi": 60,
      "hit": false,
      "t": 172285.54199999874,
      "d": 1714.2840000000142,
      "v": 117
    },
    {
      "midi": 65,
      "hit": false,
      "t": 172285.54199999874,
      "d": 1714.2840000000142,
      "v": 98
    },
    {
      "midi": 69,
      "hit": false,
      "t": 172285.54199999874,
      "d": 1741.069687500014,
      "v": 117
    },
    {
      "midi": 62,
      "hit": false,
      "t": 173999.82599999875,
      "d": 160.7141249999986,
      "v": 117
    },
    {
      "midi": 65,
      "hit": false,
      "t": 173999.82599999875,
      "d": 214.28549999999814,
      "v": 109
    },
    {
      "midi": 58,
      "hit": false,
      "t": 174214.11149999875,
      "d": 107.14274999999907,
      "v": 87
    },
    {
      "midi": 58,
      "hit": false,
      "t": 174428.39699999875,
      "d": 107.14274999999907,
      "v": 109
    },
    {
      "midi": 63,
      "hit": false,
      "t": 174428.39699999875,
      "d": 160.7141249999986,
      "v": 117
    },
    {
      "midi": 67,
      "hit": false,
      "t": 174428.39699999875,
      "d": 160.7141249999986,
      "v": 117
    },
    {
      "midi": 58,
      "hit": false,
      "t": 174642.68249999874,
      "d": 107.14274999999907,
      "v": 87
    },
    {
      "midi": 58,
      "hit": false,
      "t": 174856.96799999874,
      "d": 107.14274999999907,
      "v": 98
    },
    {
      "midi": 62,
      "hit": false,
      "t": 174856.96799999874,
      "d": 107.14274999999907,
      "v": 109
    },
    {
      "midi": 65,
      "hit": false,
      "t": 174856.96799999874,
      "d": 107.14274999999907,
      "v": 109
    },
    {
      "midi": 58,
      "hit": false,
      "t": 175071.25349999874,
      "d": 107.14274999999907,
      "v": 116
    },
    {
      "midi": 62,
      "hit": false,
      "t": 175071.25349999874,
      "d": 160.7141249999986,
      "v": 117
    },
    {
      "midi": 65,
      "hit": false,
      "t": 175071.25349999874,
      "d": 214.28549999999814,
      "v": 117
    },
    {
      "midi": 58,
      "hit": false,
      "t": 175285.53899999874,
      "d": 107.14274999999907,
      "v": 104
    },
    {
      "midi": 58,
      "hit": false,
      "t": 175499.82449999874,
      "d": 107.14274999999907,
      "v": 65
    },
    {
      "midi": 63,
      "hit": false,
      "t": 175499.82449999874,
      "d": 107.14274999999907,
      "v": 85
    },
    {
      "midi": 58,
      "hit": false,
      "t": 175714.10999999873,
      "d": 133.92843749999884,
      "v": 117
    },
    {
      "midi": 63,
      "hit": false,
      "t": 175714.10999999873,
      "d": 214.28549999999814,
      "v": 117
    },
    {
      "midi": 67,
      "hit": false,
      "t": 175714.10999999873,
      "d": 214.28549999999814,
      "v": 117
    },
    {
      "midi": 58,
      "hit": false,
      "t": 175928.39549999873,
      "d": 107.14274999999907,
      "v": 104
    },
    {
      "midi": 67,
      "hit": false,
      "t": 175928.39549999873,
      "d": 107.14274999999907,
      "v": 67
    },
    {
      "midi": 58,
      "hit": false,
      "t": 176142.68099999873,
      "d": 107.14274999999907,
      "v": 85
    },
    {
      "midi": 63,
      "hit": false,
      "t": 176142.68099999873,
      "d": 107.14274999999907,
      "v": 77
    },
    {
      "midi": 67,
      "hit": false,
      "t": 176142.68099999873,
      "d": 107.14274999999907,
      "v": 94
    },
    {
      "midi": 58,
      "hit": false,
      "t": 176356.96649999873,
      "d": 107.14274999999907,
      "v": 109
    },
    {
      "midi": 62,
      "hit": false,
      "t": 176356.96649999873,
      "d": 214.28549999999814,
      "v": 116
    },
    {
      "midi": 65,
      "hit": false,
      "t": 176356.96649999873,
      "d": 214.28549999999814,
      "v": 117
    },
    {
      "midi": 58,
      "hit": false,
      "t": 176571.25199999873,
      "d": 107.14274999999907,
      "v": 89
    },
    {
      "midi": 56,
      "hit": false,
      "t": 176785.53749999873,
      "d": 107.14274999999907,
      "v": 117
    },
    {
      "midi": 60,
      "hit": false,
      "t": 176785.53749999873,
      "d": 160.7141249999986,
      "v": 109
    },
    {
      "midi": 65,
      "hit": false,
      "t": 176785.53749999873,
      "d": 267.8568749999977,
      "v": 116
    },
    {
      "midi": 56,
      "hit": false,
      "t": 176999.82299999872,
      "d": 107.14274999999907,
      "v": 104
    },
    {
      "midi": 56,
      "hit": false,
      "t": 177214.10849999872,
      "d": 107.14274999999907,
      "v": 116
    },
    {
      "midi": 60,
      "hit": false,
      "t": 177214.10849999872,
      "d": 160.7141249999986,
      "v": 109
    },
    {
      "midi": 65,
      "hit": false,
      "t": 177214.10849999872,
      "d": 321.4282499999972,
      "v": 116
    },
    {
      "midi": 61,
      "hit": false,
      "t": 177401.60831249872,
      "d": 53.571374999999534,
      "v": 104
    },
    {
      "midi": 58,
      "hit": false,
      "t": 177428.39399999872,
      "d": 107.14274999999907,
      "v": 94
    },
    {
      "midi": 62,
      "hit": false,
      "t": 177428.39399999872,
      "d": 160.7141249999986,
      "v": 117
    },
    {
      "midi": 58,
      "hit": false,
      "t": 177642.67949999872,
      "d": 107.14274999999907,
      "v": 89
    },
    {
      "midi": 65,
      "hit": false,
      "t": 177642.67949999872,
      "d": 107.14274999999907,
      "v": 51
    },
    {
      "midi": 58,
      "hit": false,
      "t": 177856.96499999872,
      "d": 107.14274999999907,
      "v": 109
    },
    {
      "midi": 63,
      "hit": false,
      "t": 177856.96499999872,
      "d": 160.7141249999986,
      "v": 104
    },
    {
      "midi": 67,
      "hit": false,
      "t": 177856.96499999872,
      "d": 160.7141249999986,
      "v": 116
    },
    {
      "midi": 58,
      "hit": false,
      "t": 178071.2504999987,
      "d": 107.14274999999907,
      "v": 104
    },
    {
      "midi": 62,
      "hit": false,
      "t": 178285.5359999987,
      "d": 107.14274999999907,
      "v": 92
    },
    {
      "midi": 58,
      "hit": false,
      "t": 178499.8214999987,
      "d": 107.14274999999907,
      "v": 116
    },
    {
      "midi": 62,
      "hit": false,
      "t": 178499.8214999987,
      "d": 160.7141249999986,
      "v": 117
    },
    {
      "midi": 65,
      "hit": false,
      "t": 178499.8214999987,
      "d": 160.7141249999986,
      "v": 117
    },
    {
      "midi": 58,
      "hit": false,
      "t": 178714.1069999987,
      "d": 107.14274999999907,
      "v": 109
    },
    {
      "midi": 65,
      "hit": false,
      "t": 178714.1069999987,
      "d": 107.14274999999907,
      "v": 70
    },
    {
      "midi": 63,
      "hit": false,
      "t": 178928.3924999987,
      "d": 107.14274999999907,
      "v": 98
    },
    {
      "midi": 58,
      "hit": false,
      "t": 179142.6779999987,
      "d": 107.14274999999907,
      "v": 117
    },
    {
      "midi": 67,
      "hit": false,
      "t": 179142.6779999987,
      "d": 160.7141249999986,
      "v": 117
    },
    {
      "midi": 63,
      "hit": false,
      "t": 179142.6779999987,
      "d": 214.28549999999814,
      "v": 117
    },
    {
      "midi": 58,
      "hit": false,
      "t": 179356.9634999987,
      "d": 107.14274999999907,
      "v": 104
    },
    {
      "midi": 58,
      "hit": false,
      "t": 179571.2489999987,
      "d": 107.14274999999907,
      "v": 104
    },
    {
      "midi": 63,
      "hit": false,
      "t": 179571.2489999987,
      "d": 107.14274999999907,
      "v": 116
    },
    {
      "midi": 67,
      "hit": false,
      "t": 179571.2489999987,
      "d": 107.14274999999907,
      "v": 109
    },
    {
      "midi": 58,
      "hit": false,
      "t": 179785.5344999987,
      "d": 107.14274999999907,
      "v": 98
    },
    {
      "midi": 62,
      "hit": false,
      "t": 179785.5344999987,
      "d": 160.7141249999986,
      "v": 117
    },
    {
      "midi": 65,
      "hit": false,
      "t": 179785.5344999987,
      "d": 267.8568749999977,
      "v": 117
    },
    {
      "midi": 58,
      "hit": false,
      "t": 179999.8199999987,
      "d": 107.14274999999907,
      "v": 98
    },
    {
      "midi": 56,
      "hit": false,
      "t": 180214.1054999987,
      "d": 107.14274999999907,
      "v": 109
    },
    {
      "midi": 60,
      "hit": false,
      "t": 180214.1054999987,
      "d": 160.7141249999986,
      "v": 116
    },
    {
      "midi": 65,
      "hit": false,
      "t": 180214.1054999987,
      "d": 160.7141249999986,
      "v": 117
    },
    {
      "midi": 56,
      "hit": false,
      "t": 180428.3909999987,
      "d": 107.14274999999907,
      "v": 87
    },
    {
      "midi": 56,
      "hit": false,
      "t": 180642.6764999987,
      "d": 160.7141249999986,
      "v": 116
    },
    {
      "midi": 60,
      "hit": false,
      "t": 180642.6764999987,
      "d": 160.7141249999986,
      "v": 116
    },
    {
      "midi": 65,
      "hit": false,
      "t": 180642.6764999987,
      "d": 160.7141249999986,
      "v": 116
    },
    {
      "midi": 58,
      "hit": false,
      "t": 180856.9619999987,
      "d": 214.28549999999814,
      "v": 116
    },
    {
      "midi": 63,
      "hit": false,
      "t": 180856.9619999987,
      "d": 214.28549999999814,
      "v": 117
    },
    {
      "midi": 67,
      "hit": false,
      "t": 180856.9619999987,
      "d": 214.28549999999814,
      "v": 117
    },
    {
      "midi": 51,
      "hit": false,
      "t": 181071.2474999987,
      "d": 241.0711874999979,
      "v": 89
    },
    {
      "midi": 63,
      "hit": false,
      "t": 181285.5329999987,
      "d": 214.28549999999814,
      "v": 109
    },
    {
      "midi": 67,
      "hit": false,
      "t": 181285.5329999987,
      "d": 214.28549999999814,
      "v": 117
    },
    {
      "midi": 60,
      "hit": false,
      "t": 181285.5329999987,
      "d": 241.0711874999979,
      "v": 117
    },
    {
      "midi": 51,
      "hit": false,
      "t": 181499.81849999868,
      "d": 214.28549999999814,
      "v": 84
    },
    {
      "midi": 58,
      "hit": false,
      "t": 181714.10399999868,
      "d": 214.28549999999814,
      "v": 116
    },
    {
      "midi": 63,
      "hit": false,
      "t": 181714.10399999868,
      "d": 214.28549999999814,
      "v": 109
    },
    {
      "midi": 67,
      "hit": false,
      "t": 181714.10399999868,
      "d": 214.28549999999814,
      "v": 104
    },
    {
      "midi": 51,
      "hit": false,
      "t": 181928.38949999868,
      "d": 214.28549999999814,
      "v": 84
    },
    {
      "midi": 60,
      "hit": false,
      "t": 182142.67499999868,
      "d": 214.28549999999814,
      "v": 116
    },
    {
      "midi": 63,
      "hit": false,
      "t": 182142.67499999868,
      "d": 214.28549999999814,
      "v": 117
    },
    {
      "midi": 67,
      "hit": false,
      "t": 182142.67499999868,
      "d": 214.28549999999814,
      "v": 116
    },
    {
      "midi": 51,
      "hit": false,
      "t": 182356.96049999868,
      "d": 214.28549999999814,
      "v": 97
    },
    {
      "midi": 58,
      "hit": false,
      "t": 182785.53149999867,
      "d": 214.28549999999814,
      "v": 104
    },
    {
      "midi": 63,
      "hit": false,
      "t": 182785.53149999867,
      "d": 214.28549999999814,
      "v": 117
    },
    {
      "midi": 67,
      "hit": false,
      "t": 182785.53149999867,
      "d": 214.28549999999814,
      "v": 117
    },
    {
      "midi": 51,
      "hit": false,
      "t": 183214.10249999867,
      "d": 214.28549999999814,
      "v": 96
    },
    {
      "midi": 36,
      "hit": false,
      "t": 183428.38799999867,
      "d": 1.1160703125060536,
      "v": 31
    },
    {
      "midi": 91,
      "hit": false,
      "t": 183428.38799999867,
      "d": 107.14274999999907,
      "v": 31
    },
    {
      "midi": 58,
      "hit": false,
      "t": 183428.38799999867,
      "d": 642.8564999999944,
      "v": 117
    },
    {
      "midi": 63,
      "hit": false,
      "t": 183428.38799999867,
      "d": 642.8564999999944,
      "v": 117
    },
    {
      "midi": 67,
      "hit": false,
      "t": 183428.38799999867,
      "d": 642.8564999999944,
      "v": 117
    },
    {
      "midi": 60,
      "hit": false,
      "t": 184285.52999999866,
      "d": 214.28549999999814,
      "v": 117
    },
    {
      "midi": 69,
      "hit": false,
      "t": 184285.52999999866,
      "d": 214.28549999999814,
      "v": 116
    },
    {
      "midi": 65,
      "hit": false,
      "t": 184285.52999999866,
      "d": 321.4282499999972,
      "v": 109
    },
    {
      "midi": 53,
      "hit": false,
      "t": 184499.81549999866,
      "d": 214.28549999999814,
      "v": 69
    },
    {
      "midi": 62,
      "hit": false,
      "t": 184714.10099999866,
      "d": 214.28549999999814,
      "v": 116
    },
    {
      "midi": 65,
      "hit": false,
      "t": 184714.10099999866,
      "d": 214.28549999999814,
      "v": 117
    },
    {
      "midi": 69,
      "hit": false,
      "t": 184714.10099999866,
      "d": 214.28549999999814,
      "v": 116
    },
    {
      "midi": 53,
      "hit": false,
      "t": 184928.38649999865,
      "d": 214.28549999999814,
      "v": 72
    },
    {
      "midi": 60,
      "hit": false,
      "t": 185142.67199999865,
      "d": 214.28549999999814,
      "v": 117
    },
    {
      "midi": 69,
      "hit": false,
      "t": 185142.67199999865,
      "d": 214.28549999999814,
      "v": 109
    },
    {
      "midi": 65,
      "hit": false,
      "t": 185142.67199999865,
      "d": 321.4282499999972,
      "v": 109
    },
    {
      "midi": 53,
      "hit": false,
      "t": 185356.95749999865,
      "d": 241.0711874999979,
      "v": 72
    },
    {
      "midi": 62,
      "hit": false,
      "t": 185571.24299999865,
      "d": 214.28549999999814,
      "v": 117
    },
    {
      "midi": 65,
      "hit": false,
      "t": 185571.24299999865,
      "d": 214.28549999999814,
      "v": 104
    },
    {
      "midi": 69,
      "hit": false,
      "t": 185571.24299999865,
      "d": 214.28549999999814,
      "v": 109
    },
    {
      "midi": 53,
      "hit": false,
      "t": 185785.52849999865,
      "d": 214.28549999999814,
      "v": 70
    },
    {
      "midi": 60,
      "hit": false,
      "t": 185999.81399999865,
      "d": 1714.2840000000142,
      "v": 117
    },
    {
      "midi": 65,
      "hit": false,
      "t": 185999.81399999865,
      "d": 1714.2840000000142,
      "v": 98
    },
    {
      "midi": 69,
      "hit": false,
      "t": 185999.81399999865,
      "d": 1741.069687500014,
      "v": 117
    },
    {
      "midi": 62,
      "hit": false,
      "t": 187714.09799999866,
      "d": 160.7141249999986,
      "v": 117
    },
    {
      "midi": 65,
      "hit": false,
      "t": 187714.09799999866,
      "d": 214.28549999999814,
      "v": 109
    },
    {
      "midi": 58,
      "hit": false,
      "t": 187928.38349999866,
      "d": 107.14274999999907,
      "v": 87
    },
    {
      "midi": 58,
      "hit": false,
      "t": 188142.66899999866,
      "d": 107.14274999999907,
      "v": 109
    },
    {
      "midi": 63,
      "hit": false,
      "t": 188142.66899999866,
      "d": 160.7141249999986,
      "v": 117
    },
    {
      "midi": 67,
      "hit": false,
      "t": 188142.66899999866,
      "d": 160.7141249999986,
      "v": 117
    },
    {
      "midi": 58,
      "hit": false,
      "t": 188356.95449999865,
      "d": 107.14274999999907,
      "v": 87
    },
    {
      "midi": 58,
      "hit": false,
      "t": 188571.23999999865,
      "d": 107.14274999999907,
      "v": 98
    },
    {
      "midi": 62,
      "hit": false,
      "t": 188571.23999999865,
      "d": 107.14274999999907,
      "v": 109
    },
    {
      "midi": 65,
      "hit": false,
      "t": 188571.23999999865,
      "d": 107.14274999999907,
      "v": 109
    },
    {
      "midi": 58,
      "hit": false,
      "t": 188785.52549999865,
      "d": 107.14274999999907,
      "v": 116
    },
    {
      "midi": 62,
      "hit": false,
      "t": 188785.52549999865,
      "d": 160.7141249999986,
      "v": 117
    },
    {
      "midi": 65,
      "hit": false,
      "t": 188785.52549999865,
      "d": 214.28549999999814,
      "v": 117
    },
    {
      "midi": 58,
      "hit": false,
      "t": 188999.81099999865,
      "d": 107.14274999999907,
      "v": 104
    },
    {
      "midi": 58,
      "hit": false,
      "t": 189214.09649999865,
      "d": 107.14274999999907,
      "v": 65
    },
    {
      "midi": 63,
      "hit": false,
      "t": 189214.09649999865,
      "d": 107.14274999999907,
      "v": 85
    },
    {
      "midi": 58,
      "hit": false,
      "t": 189428.38199999864,
      "d": 133.92843749999884,
      "v": 117
    },
    {
      "midi": 63,
      "hit": false,
      "t": 189428.38199999864,
      "d": 214.28549999999814,
      "v": 117
    },
    {
      "midi": 67,
      "hit": false,
      "t": 189428.38199999864,
      "d": 214.28549999999814,
      "v": 117
    },
    {
      "midi": 58,
      "hit": false,
      "t": 189642.66749999864,
      "d": 107.14274999999907,
      "v": 104
    },
    {
      "midi": 67,
      "hit": false,
      "t": 189642.66749999864,
      "d": 107.14274999999907,
      "v": 67
    },
    {
      "midi": 58,
      "hit": false,
      "t": 189856.95299999864,
      "d": 107.14274999999907,
      "v": 85
    },
    {
      "midi": 63,
      "hit": false,
      "t": 189856.95299999864,
      "d": 107.14274999999907,
      "v": 77
    },
    {
      "midi": 67,
      "hit": false,
      "t": 189856.95299999864,
      "d": 107.14274999999907,
      "v": 94
    },
    {
      "midi": 58,
      "hit": false,
      "t": 190071.23849999864,
      "d": 107.14274999999907,
      "v": 109
    },
    {
      "midi": 62,
      "hit": false,
      "t": 190071.23849999864,
      "d": 214.28549999999814,
      "v": 116
    },
    {
      "midi": 65,
      "hit": false,
      "t": 190071.23849999864,
      "d": 214.28549999999814,
      "v": 117
    },
    {
      "midi": 58,
      "hit": false,
      "t": 190285.52399999864,
      "d": 107.14274999999907,
      "v": 89
    },
    {
      "midi": 56,
      "hit": false,
      "t": 190499.80949999864,
      "d": 107.14274999999907,
      "v": 117
    },
    {
      "midi": 60,
      "hit": false,
      "t": 190499.80949999864,
      "d": 160.7141249999986,
      "v": 109
    },
    {
      "midi": 65,
      "hit": false,
      "t": 190499.80949999864,
      "d": 267.8568749999977,
      "v": 116
    },
    {
      "midi": 56,
      "hit": false,
      "t": 190714.09499999863,
      "d": 107.14274999999907,
      "v": 104
    },
    {
      "midi": 56,
      "hit": false,
      "t": 190928.38049999863,
      "d": 107.14274999999907,
      "v": 116
    },
    {
      "midi": 60,
      "hit": false,
      "t": 190928.38049999863,
      "d": 160.7141249999986,
      "v": 109
    },
    {
      "midi": 65,
      "hit": false,
      "t": 190928.38049999863,
      "d": 321.4282499999972,
      "v": 116
    },
    {
      "midi": 61,
      "hit": false,
      "t": 191115.88031249863,
      "d": 53.571374999999534,
      "v": 104
    },
    {
      "midi": 58,
      "hit": false,
      "t": 191142.66599999863,
      "d": 107.14274999999907,
      "v": 94
    },
    {
      "midi": 62,
      "hit": false,
      "t": 191142.66599999863,
      "d": 160.7141249999986,
      "v": 117
    },
    {
      "midi": 58,
      "hit": false,
      "t": 191356.95149999863,
      "d": 107.14274999999907,
      "v": 89
    },
    {
      "midi": 65,
      "hit": false,
      "t": 191356.95149999863,
      "d": 107.14274999999907,
      "v": 51
    },
    {
      "midi": 58,
      "hit": false,
      "t": 191571.23699999863,
      "d": 107.14274999999907,
      "v": 109
    },
    {
      "midi": 63,
      "hit": false,
      "t": 191571.23699999863,
      "d": 160.7141249999986,
      "v": 104
    },
    {
      "midi": 67,
      "hit": false,
      "t": 191571.23699999863,
      "d": 160.7141249999986,
      "v": 116
    },
    {
      "midi": 58,
      "hit": false,
      "t": 191785.52249999862,
      "d": 107.14274999999907,
      "v": 104
    },
    {
      "midi": 62,
      "hit": false,
      "t": 191999.80799999862,
      "d": 107.14274999999907,
      "v": 92
    },
    {
      "midi": 58,
      "hit": false,
      "t": 192214.09349999862,
      "d": 107.14274999999907,
      "v": 116
    },
    {
      "midi": 62,
      "hit": false,
      "t": 192214.09349999862,
      "d": 160.7141249999986,
      "v": 117
    },
    {
      "midi": 65,
      "hit": false,
      "t": 192214.09349999862,
      "d": 160.7141249999986,
      "v": 117
    },
    {
      "midi": 58,
      "hit": false,
      "t": 192428.37899999862,
      "d": 107.14274999999907,
      "v": 109
    },
    {
      "midi": 65,
      "hit": false,
      "t": 192428.37899999862,
      "d": 107.14274999999907,
      "v": 70
    },
    {
      "midi": 63,
      "hit": false,
      "t": 192642.66449999862,
      "d": 107.14274999999907,
      "v": 98
    },
    {
      "midi": 58,
      "hit": false,
      "t": 192856.94999999861,
      "d": 107.14274999999907,
      "v": 117
    },
    {
      "midi": 67,
      "hit": false,
      "t": 192856.94999999861,
      "d": 160.7141249999986,
      "v": 117
    },
    {
      "midi": 63,
      "hit": false,
      "t": 192856.94999999861,
      "d": 214.28549999999814,
      "v": 117
    },
    {
      "midi": 58,
      "hit": false,
      "t": 193071.2354999986,
      "d": 107.14274999999907,
      "v": 104
    },
    {
      "midi": 58,
      "hit": false,
      "t": 193285.5209999986,
      "d": 107.14274999999907,
      "v": 104
    },
    {
      "midi": 63,
      "hit": false,
      "t": 193285.5209999986,
      "d": 107.14274999999907,
      "v": 116
    },
    {
      "midi": 67,
      "hit": false,
      "t": 193285.5209999986,
      "d": 107.14274999999907,
      "v": 109
    },
    {
      "midi": 58,
      "hit": false,
      "t": 193499.8064999986,
      "d": 107.14274999999907,
      "v": 98
    },
    {
      "midi": 62,
      "hit": false,
      "t": 193499.8064999986,
      "d": 160.7141249999986,
      "v": 117
    },
    {
      "midi": 65,
      "hit": false,
      "t": 193499.8064999986,
      "d": 267.8568749999977,
      "v": 117
    },
    {
      "midi": 58,
      "hit": false,
      "t": 193714.0919999986,
      "d": 107.14274999999907,
      "v": 98
    },
    {
      "midi": 56,
      "hit": false,
      "t": 193928.3774999986,
      "d": 107.14274999999907,
      "v": 109
    },
    {
      "midi": 60,
      "hit": false,
      "t": 193928.3774999986,
      "d": 160.7141249999986,
      "v": 116
    },
    {
      "midi": 65,
      "hit": false,
      "t": 193928.3774999986,
      "d": 160.7141249999986,
      "v": 117
    },
    {
      "midi": 56,
      "hit": false,
      "t": 194142.6629999986,
      "d": 107.14274999999907,
      "v": 87
    },
    {
      "midi": 56,
      "hit": false,
      "t": 194356.9484999986,
      "d": 160.7141249999986,
      "v": 116
    },
    {
      "midi": 60,
      "hit": false,
      "t": 194356.9484999986,
      "d": 160.7141249999986,
      "v": 116
    },
    {
      "midi": 65,
      "hit": false,
      "t": 194356.9484999986,
      "d": 160.7141249999986,
      "v": 116
    },
    {
      "midi": 58,
      "hit": false,
      "t": 207214.0784999986,
      "d": 107.14274999999907,
      "v": 117
    },
    {
      "midi": 62,
      "hit": false,
      "t": 207428.3639999986,
      "d": 107.14274999999907,
      "v": 117
    },
    {
      "midi": 65,
      "hit": false,
      "t": 207428.3639999986,
      "d": 107.14274999999907,
      "v": 117
    },
    {
      "midi": 70,
      "hit": false,
      "t": 207428.3639999986,
      "d": 107.14274999999907,
      "v": 117
    },
    {
      "midi": 62,
      "hit": false,
      "t": 207642.6494999986,
      "d": 107.14274999999907,
      "v": 116
    },
    {
      "midi": 65,
      "hit": false,
      "t": 207642.6494999986,
      "d": 107.14274999999907,
      "v": 116
    },
    {
      "midi": 70,
      "hit": false,
      "t": 207642.6494999986,
      "d": 107.14274999999907,
      "v": 117
    },
    {
      "midi": 58,
      "hit": false,
      "t": 207856.9349999986,
      "d": 107.14274999999907,
      "v": 104
    },
    {
      "midi": 62,
      "hit": false,
      "t": 207964.0777499986,
      "d": 107.14274999999907,
      "v": 117
    },
    {
      "midi": 65,
      "hit": false,
      "t": 207964.0777499986,
      "d": 107.14274999999907,
      "v": 117
    },
    {
      "midi": 70,
      "hit": false,
      "t": 207964.0777499986,
      "d": 107.14274999999907,
      "v": 117
    },
    {
      "midi": 58,
      "hit": false,
      "t": 208071.2204999986,
      "d": 107.14274999999907,
      "v": 117
    },
    {
      "midi": 58,
      "hit": false,
      "t": 208285.5059999986,
      "d": 214.28549999999814,
      "v": 116
    },
    {
      "midi": 63,
      "hit": false,
      "t": 208285.5059999986,
      "d": 214.28549999999814,
      "v": 117
    },
    {
      "midi": 67,
      "hit": false,
      "t": 208285.5059999986,
      "d": 214.28549999999814,
      "v": 117
    },
    {
      "midi": 51,
      "hit": false,
      "t": 208499.7914999986,
      "d": 241.0711874999979,
      "v": 89
    },
    {
      "midi": 63,
      "hit": false,
      "t": 208714.0769999986,
      "d": 214.28549999999814,
      "v": 109
    },
    {
      "midi": 67,
      "hit": false,
      "t": 208714.0769999986,
      "d": 214.28549999999814,
      "v": 117
    },
    {
      "midi": 60,
      "hit": false,
      "t": 208714.0769999986,
      "d": 241.0711874999979,
      "v": 117
    },
    {
      "midi": 51,
      "hit": false,
      "t": 208928.3624999986,
      "d": 214.28549999999814,
      "v": 84
    },
    {
      "midi": 58,
      "hit": false,
      "t": 209142.6479999986,
      "d": 214.28549999999814,
      "v": 116
    },
    {
      "midi": 63,
      "hit": false,
      "t": 209142.6479999986,
      "d": 214.28549999999814,
      "v": 109
    },
    {
      "midi": 67,
      "hit": false,
      "t": 209142.6479999986,
      "d": 214.28549999999814,
      "v": 104
    },
    {
      "midi": 51,
      "hit": false,
      "t": 209356.9334999986,
      "d": 214.28549999999814,
      "v": 84
    },
    {
      "midi": 60,
      "hit": false,
      "t": 209571.2189999986,
      "d": 214.28549999999814,
      "v": 116
    },
    {
      "midi": 63,
      "hit": false,
      "t": 209571.2189999986,
      "d": 214.28549999999814,
      "v": 117
    },
    {
      "midi": 67,
      "hit": false,
      "t": 209571.2189999986,
      "d": 214.28549999999814,
      "v": 116
    },
    {
      "midi": 51,
      "hit": false,
      "t": 209785.50449999858,
      "d": 214.28549999999814,
      "v": 97
    },
    {
      "midi": 58,
      "hit": false,
      "t": 210214.07549999858,
      "d": 214.28549999999814,
      "v": 104
    },
    {
      "midi": 63,
      "hit": false,
      "t": 210214.07549999858,
      "d": 214.28549999999814,
      "v": 117
    },
    {
      "midi": 67,
      "hit": false,
      "t": 210214.07549999858,
      "d": 214.28549999999814,
      "v": 117
    },
    {
      "midi": 51,
      "hit": false,
      "t": 210642.64649999858,
      "d": 214.28549999999814,
      "v": 96
    },
    {
      "midi": 36,
      "hit": false,
      "t": 210856.93199999857,
      "d": 1.1160703125060536,
      "v": 31
    },
    {
      "midi": 91,
      "hit": false,
      "t": 210856.93199999857,
      "d": 107.14274999999907,
      "v": 31
    },
    {
      "midi": 58,
      "hit": false,
      "t": 210856.93199999857,
      "d": 642.8564999999944,
      "v": 117
    },
    {
      "midi": 63,
      "hit": false,
      "t": 210856.93199999857,
      "d": 642.8564999999944,
      "v": 117
    },
    {
      "midi": 67,
      "hit": false,
      "t": 210856.93199999857,
      "d": 642.8564999999944,
      "v": 117
    },
    {
      "midi": 60,
      "hit": false,
      "t": 211714.07399999857,
      "d": 214.28549999999814,
      "v": 117
    },
    {
      "midi": 69,
      "hit": false,
      "t": 211714.07399999857,
      "d": 214.28549999999814,
      "v": 116
    },
    {
      "midi": 65,
      "hit": false,
      "t": 211714.07399999857,
      "d": 321.4282499999972,
      "v": 109
    },
    {
      "midi": 53,
      "hit": false,
      "t": 211928.35949999857,
      "d": 214.28549999999814,
      "v": 69
    },
    {
      "midi": 62,
      "hit": false,
      "t": 212142.64499999856,
      "d": 214.28549999999814,
      "v": 116
    },
    {
      "midi": 65,
      "hit": false,
      "t": 212142.64499999856,
      "d": 214.28549999999814,
      "v": 117
    },
    {
      "midi": 69,
      "hit": false,
      "t": 212142.64499999856,
      "d": 214.28549999999814,
      "v": 116
    },
    {
      "midi": 53,
      "hit": false,
      "t": 212356.93049999856,
      "d": 214.28549999999814,
      "v": 72
    },
    {
      "midi": 60,
      "hit": false,
      "t": 212571.21599999856,
      "d": 214.28549999999814,
      "v": 117
    },
    {
      "midi": 69,
      "hit": false,
      "t": 212571.21599999856,
      "d": 214.28549999999814,
      "v": 109
    },
    {
      "midi": 65,
      "hit": false,
      "t": 212571.21599999856,
      "d": 321.4282499999972,
      "v": 109
    },
    {
      "midi": 53,
      "hit": false,
      "t": 212785.50149999856,
      "d": 241.0711874999979,
      "v": 72
    },
    {
      "midi": 62,
      "hit": false,
      "t": 212999.78699999856,
      "d": 214.28549999999814,
      "v": 117
    },
    {
      "midi": 65,
      "hit": false,
      "t": 212999.78699999856,
      "d": 214.28549999999814,
      "v": 104
    },
    {
      "midi": 69,
      "hit": false,
      "t": 212999.78699999856,
      "d": 214.28549999999814,
      "v": 109
    },
    {
      "midi": 53,
      "hit": false,
      "t": 213214.07249999855,
      "d": 214.28549999999814,
      "v": 70
    },
    {
      "midi": 60,
      "hit": false,
      "t": 213428.35799999855,
      "d": 1714.2840000000142,
      "v": 117
    },
    {
      "midi": 65,
      "hit": false,
      "t": 213428.35799999855,
      "d": 1714.2840000000142,
      "v": 98
    },
    {
      "midi": 69,
      "hit": false,
      "t": 213428.35799999855,
      "d": 1741.069687500014,
      "v": 117
    },
    {
      "midi": 62,
      "hit": false,
      "t": 215142.64199999857,
      "d": 160.7141249999986,
      "v": 117
    },
    {
      "midi": 65,
      "hit": false,
      "t": 215142.64199999857,
      "d": 214.28549999999814,
      "v": 109
    },
    {
      "midi": 58,
      "hit": false,
      "t": 215356.92749999856,
      "d": 107.14274999999907,
      "v": 87
    },
    {
      "midi": 58,
      "hit": false,
      "t": 215571.21299999856,
      "d": 107.14274999999907,
      "v": 109
    },
    {
      "midi": 63,
      "hit": false,
      "t": 215571.21299999856,
      "d": 160.7141249999986,
      "v": 117
    },
    {
      "midi": 67,
      "hit": false,
      "t": 215571.21299999856,
      "d": 160.7141249999986,
      "v": 117
    },
    {
      "midi": 58,
      "hit": false,
      "t": 215785.49849999856,
      "d": 107.14274999999907,
      "v": 87
    },
    {
      "midi": 58,
      "hit": false,
      "t": 215999.78399999856,
      "d": 107.14274999999907,
      "v": 98
    },
    {
      "midi": 62,
      "hit": false,
      "t": 215999.78399999856,
      "d": 107.14274999999907,
      "v": 109
    },
    {
      "midi": 65,
      "hit": false,
      "t": 215999.78399999856,
      "d": 107.14274999999907,
      "v": 109
    },
    {
      "midi": 58,
      "hit": false,
      "t": 216214.06949999856,
      "d": 107.14274999999907,
      "v": 116
    },
    {
      "midi": 62,
      "hit": false,
      "t": 216214.06949999856,
      "d": 160.7141249999986,
      "v": 117
    },
    {
      "midi": 65,
      "hit": false,
      "t": 216214.06949999856,
      "d": 214.28549999999814,
      "v": 117
    },
    {
      "midi": 58,
      "hit": false,
      "t": 216428.35499999856,
      "d": 107.14274999999907,
      "v": 104
    },
    {
      "midi": 58,
      "hit": false,
      "t": 216642.64049999855,
      "d": 107.14274999999907,
      "v": 65
    },
    {
      "midi": 63,
      "hit": false,
      "t": 216642.64049999855,
      "d": 107.14274999999907,
      "v": 85
    },
    {
      "midi": 58,
      "hit": false,
      "t": 216856.92599999855,
      "d": 133.92843749999884,
      "v": 117
    },
    {
      "midi": 63,
      "hit": false,
      "t": 216856.92599999855,
      "d": 214.28549999999814,
      "v": 117
    },
    {
      "midi": 67,
      "hit": false,
      "t": 216856.92599999855,
      "d": 214.28549999999814,
      "v": 117
    },
    {
      "midi": 58,
      "hit": false,
      "t": 217071.21149999855,
      "d": 107.14274999999907,
      "v": 104
    },
    {
      "midi": 67,
      "hit": false,
      "t": 217071.21149999855,
      "d": 107.14274999999907,
      "v": 67
    },
    {
      "midi": 58,
      "hit": false,
      "t": 217285.49699999855,
      "d": 107.14274999999907,
      "v": 85
    },
    {
      "midi": 63,
      "hit": false,
      "t": 217285.49699999855,
      "d": 107.14274999999907,
      "v": 77
    },
    {
      "midi": 67,
      "hit": false,
      "t": 217285.49699999855,
      "d": 107.14274999999907,
      "v": 94
    },
    {
      "midi": 58,
      "hit": false,
      "t": 217499.78249999855,
      "d": 107.14274999999907,
      "v": 109
    },
    {
      "midi": 62,
      "hit": false,
      "t": 217499.78249999855,
      "d": 214.28549999999814,
      "v": 116
    },
    {
      "midi": 65,
      "hit": false,
      "t": 217499.78249999855,
      "d": 214.28549999999814,
      "v": 117
    },
    {
      "midi": 58,
      "hit": false,
      "t": 217714.06799999854,
      "d": 107.14274999999907,
      "v": 89
    },
    {
      "midi": 56,
      "hit": false,
      "t": 217928.35349999854,
      "d": 107.14274999999907,
      "v": 117
    },
    {
      "midi": 60,
      "hit": false,
      "t": 217928.35349999854,
      "d": 160.7141249999986,
      "v": 109
    },
    {
      "midi": 65,
      "hit": false,
      "t": 217928.35349999854,
      "d": 267.8568749999977,
      "v": 116
    },
    {
      "midi": 56,
      "hit": false,
      "t": 218142.63899999854,
      "d": 107.14274999999907,
      "v": 104
    },
    {
      "midi": 56,
      "hit": false,
      "t": 218356.92449999854,
      "d": 107.14274999999907,
      "v": 116
    },
    {
      "midi": 60,
      "hit": false,
      "t": 218356.92449999854,
      "d": 160.7141249999986,
      "v": 109
    },
    {
      "midi": 65,
      "hit": false,
      "t": 218356.92449999854,
      "d": 321.4282499999972,
      "v": 116
    },
    {
      "midi": 61,
      "hit": false,
      "t": 218544.42431249854,
      "d": 53.571374999999534,
      "v": 104
    },
    {
      "midi": 58,
      "hit": false,
      "t": 218571.20999999854,
      "d": 107.14274999999907,
      "v": 94
    },
    {
      "midi": 62,
      "hit": false,
      "t": 218571.20999999854,
      "d": 160.7141249999986,
      "v": 117
    },
    {
      "midi": 58,
      "hit": false,
      "t": 218785.49549999853,
      "d": 107.14274999999907,
      "v": 89
    },
    {
      "midi": 65,
      "hit": false,
      "t": 218785.49549999853,
      "d": 107.14274999999907,
      "v": 51
    },
    {
      "midi": 58,
      "hit": false,
      "t": 218999.78099999853,
      "d": 107.14274999999907,
      "v": 109
    },
    {
      "midi": 63,
      "hit": false,
      "t": 218999.78099999853,
      "d": 160.7141249999986,
      "v": 104
    },
    {
      "midi": 67,
      "hit": false,
      "t": 218999.78099999853,
      "d": 160.7141249999986,
      "v": 116
    },
    {
      "midi": 58,
      "hit": false,
      "t": 219214.06649999853,
      "d": 107.14274999999907,
      "v": 104
    },
    {
      "midi": 62,
      "hit": false,
      "t": 219428.35199999853,
      "d": 107.14274999999907,
      "v": 92
    },
    {
      "midi": 58,
      "hit": false,
      "t": 219642.63749999853,
      "d": 107.14274999999907,
      "v": 116
    },
    {
      "midi": 62,
      "hit": false,
      "t": 219642.63749999853,
      "d": 160.7141249999986,
      "v": 117
    },
    {
      "midi": 65,
      "hit": false,
      "t": 219642.63749999853,
      "d": 160.7141249999986,
      "v": 117
    },
    {
      "midi": 58,
      "hit": false,
      "t": 219856.92299999853,
      "d": 107.14274999999907,
      "v": 109
    },
    {
      "midi": 65,
      "hit": false,
      "t": 219856.92299999853,
      "d": 107.14274999999907,
      "v": 70
    },
    {
      "midi": 63,
      "hit": false,
      "t": 220071.20849999852,
      "d": 107.14274999999907,
      "v": 98
    },
    {
      "midi": 58,
      "hit": false,
      "t": 220285.49399999852,
      "d": 107.14274999999907,
      "v": 117
    },
    {
      "midi": 67,
      "hit": false,
      "t": 220285.49399999852,
      "d": 160.7141249999986,
      "v": 117
    },
    {
      "midi": 63,
      "hit": false,
      "t": 220285.49399999852,
      "d": 214.28549999999814,
      "v": 117
    },
    {
      "midi": 58,
      "hit": false,
      "t": 220499.77949999852,
      "d": 107.14274999999907,
      "v": 104
    },
    {
      "midi": 58,
      "hit": false,
      "t": 220714.06499999852,
      "d": 107.14274999999907,
      "v": 104
    },
    {
      "midi": 63,
      "hit": false,
      "t": 220714.06499999852,
      "d": 107.14274999999907,
      "v": 116
    },
    {
      "midi": 67,
      "hit": false,
      "t": 220714.06499999852,
      "d": 107.14274999999907,
      "v": 109
    },
    {
      "midi": 58,
      "hit": false,
      "t": 220928.35049999852,
      "d": 107.14274999999907,
      "v": 98
    },
    {
      "midi": 62,
      "hit": false,
      "t": 220928.35049999852,
      "d": 160.7141249999986,
      "v": 117
    },
    {
      "midi": 65,
      "hit": false,
      "t": 220928.35049999852,
      "d": 267.8568749999977,
      "v": 117
    },
    {
      "midi": 58,
      "hit": false,
      "t": 221142.6359999985,
      "d": 107.14274999999907,
      "v": 98
    },
    {
      "midi": 56,
      "hit": false,
      "t": 221356.9214999985,
      "d": 107.14274999999907,
      "v": 109
    },
    {
      "midi": 60,
      "hit": false,
      "t": 221356.9214999985,
      "d": 160.7141249999986,
      "v": 116
    },
    {
      "midi": 65,
      "hit": false,
      "t": 221356.9214999985,
      "d": 160.7141249999986,
      "v": 117
    },
    {
      "midi": 56,
      "hit": false,
      "t": 221571.2069999985,
      "d": 107.14274999999907,
      "v": 87
    },
    {
      "midi": 56,
      "hit": false,
      "t": 221785.4924999985,
      "d": 160.7141249999986,
      "v": 116
    },
    {
      "midi": 60,
      "hit": false,
      "t": 221785.4924999985,
      "d": 160.7141249999986,
      "v": 116
    },
    {
      "midi": 65,
      "hit": false,
      "t": 221785.4924999985,
      "d": 160.7141249999986,
      "v": 116
    },
    {
      "midi": 62,
      "hit": false,
      "t": 221999.7779999985,
      "d": 160.7141249999986,
      "v": 117
    },
    {
      "midi": 65,
      "hit": false,
      "t": 221999.7779999985,
      "d": 214.28549999999814,
      "v": 109
    },
    {
      "midi": 58,
      "hit": false,
      "t": 222214.0634999985,
      "d": 107.14274999999907,
      "v": 87
    },
    {
      "midi": 58,
      "hit": false,
      "t": 222428.3489999985,
      "d": 107.14274999999907,
      "v": 109
    },
    {
      "midi": 63,
      "hit": false,
      "t": 222428.3489999985,
      "d": 160.7141249999986,
      "v": 117
    },
    {
      "midi": 67,
      "hit": false,
      "t": 222428.3489999985,
      "d": 160.7141249999986,
      "v": 117
    },
    {
      "midi": 58,
      "hit": false,
      "t": 222642.6344999985,
      "d": 107.14274999999907,
      "v": 87
    },
    {
      "midi": 58,
      "hit": false,
      "t": 222856.9199999985,
      "d": 107.14274999999907,
      "v": 98
    },
    {
      "midi": 62,
      "hit": false,
      "t": 222856.9199999985,
      "d": 107.14274999999907,
      "v": 109
    },
    {
      "midi": 65,
      "hit": false,
      "t": 222856.9199999985,
      "d": 107.14274999999907,
      "v": 109
    },
    {
      "midi": 58,
      "hit": false,
      "t": 223071.2054999985,
      "d": 107.14274999999907,
      "v": 116
    },
    {
      "midi": 62,
      "hit": false,
      "t": 223071.2054999985,
      "d": 160.7141249999986,
      "v": 117
    },
    {
      "midi": 65,
      "hit": false,
      "t": 223071.2054999985,
      "d": 214.28549999999814,
      "v": 117
    },
    {
      "midi": 58,
      "hit": false,
      "t": 223285.4909999985,
      "d": 107.14274999999907,
      "v": 104
    },
    {
      "midi": 58,
      "hit": false,
      "t": 223499.7764999985,
      "d": 107.14274999999907,
      "v": 65
    },
    {
      "midi": 63,
      "hit": false,
      "t": 223499.7764999985,
      "d": 107.14274999999907,
      "v": 85
    },
    {
      "midi": 58,
      "hit": false,
      "t": 223714.0619999985,
      "d": 133.92843749999884,
      "v": 117
    },
    {
      "midi": 63,
      "hit": false,
      "t": 223714.0619999985,
      "d": 214.28549999999814,
      "v": 117
    },
    {
      "midi": 67,
      "hit": false,
      "t": 223714.0619999985,
      "d": 214.28549999999814,
      "v": 117
    },
    {
      "midi": 58,
      "hit": false,
      "t": 223928.3474999985,
      "d": 107.14274999999907,
      "v": 104
    },
    {
      "midi": 67,
      "hit": false,
      "t": 223928.3474999985,
      "d": 107.14274999999907,
      "v": 67
    },
    {
      "midi": 58,
      "hit": false,
      "t": 224142.6329999985,
      "d": 107.14274999999907,
      "v": 85
    },
    {
      "midi": 63,
      "hit": false,
      "t": 224142.6329999985,
      "d": 107.14274999999907,
      "v": 77
    },
    {
      "midi": 67,
      "hit": false,
      "t": 224142.6329999985,
      "d": 107.14274999999907,
      "v": 94
    },
    {
      "midi": 58,
      "hit": false,
      "t": 224356.9184999985,
      "d": 107.14274999999907,
      "v": 109
    },
    {
      "midi": 62,
      "hit": false,
      "t": 224356.9184999985,
      "d": 214.28549999999814,
      "v": 116
    },
    {
      "midi": 65,
      "hit": false,
      "t": 224356.9184999985,
      "d": 214.28549999999814,
      "v": 117
    },
    {
      "midi": 58,
      "hit": false,
      "t": 224571.20399999848,
      "d": 107.14274999999907,
      "v": 89
    },
    {
      "midi": 56,
      "hit": false,
      "t": 224785.48949999848,
      "d": 107.14274999999907,
      "v": 117
    },
    {
      "midi": 60,
      "hit": false,
      "t": 224785.48949999848,
      "d": 160.7141249999986,
      "v": 109
    },
    {
      "midi": 65,
      "hit": false,
      "t": 224785.48949999848,
      "d": 267.8568749999977,
      "v": 116
    },
    {
      "midi": 56,
      "hit": false,
      "t": 224999.77499999848,
      "d": 107.14274999999907,
      "v": 104
    },
    {
      "midi": 56,
      "hit": false,
      "t": 225214.06049999848,
      "d": 107.14274999999907,
      "v": 116
    },
    {
      "midi": 60,
      "hit": false,
      "t": 225214.06049999848,
      "d": 160.7141249999986,
      "v": 109
    },
    {
      "midi": 65,
      "hit": false,
      "t": 225214.06049999848,
      "d": 321.4282499999972,
      "v": 116
    },
    {
      "midi": 61,
      "hit": false,
      "t": 225401.56031249848,
      "d": 53.571374999999534,
      "v": 104
    },
    {
      "midi": 58,
      "hit": false,
      "t": 225428.34599999848,
      "d": 107.14274999999907,
      "v": 94
    },
    {
      "midi": 62,
      "hit": false,
      "t": 225428.34599999848,
      "d": 160.7141249999986,
      "v": 117
    },
    {
      "midi": 58,
      "hit": false,
      "t": 225642.63149999848,
      "d": 107.14274999999907,
      "v": 89
    },
    {
      "midi": 65,
      "hit": false,
      "t": 225642.63149999848,
      "d": 107.14274999999907,
      "v": 51
    },
    {
      "midi": 58,
      "hit": false,
      "t": 225856.91699999847,
      "d": 107.14274999999907,
      "v": 109
    },
    {
      "midi": 63,
      "hit": false,
      "t": 225856.91699999847,
      "d": 160.7141249999986,
      "v": 104
    },
    {
      "midi": 67,
      "hit": false,
      "t": 225856.91699999847,
      "d": 160.7141249999986,
      "v": 116
    },
    {
      "midi": 58,
      "hit": false,
      "t": 226071.20249999847,
      "d": 107.14274999999907,
      "v": 104
    },
    {
      "midi": 62,
      "hit": false,
      "t": 226285.48799999847,
      "d": 107.14274999999907,
      "v": 92
    },
    {
      "midi": 58,
      "hit": false,
      "t": 226499.77349999847,
      "d": 107.14274999999907,
      "v": 116
    },
    {
      "midi": 62,
      "hit": false,
      "t": 226499.77349999847,
      "d": 160.7141249999986,
      "v": 117
    },
    {
      "midi": 65,
      "hit": false,
      "t": 226499.77349999847,
      "d": 160.7141249999986,
      "v": 117
    },
    {
      "midi": 58,
      "hit": false,
      "t": 226714.05899999847,
      "d": 107.14274999999907,
      "v": 109
    },
    {
      "midi": 65,
      "hit": false,
      "t": 226714.05899999847,
      "d": 107.14274999999907,
      "v": 70
    },
    {
      "midi": 63,
      "hit": false,
      "t": 226928.34449999846,
      "d": 107.14274999999907,
      "v": 98
    },
    {
      "midi": 58,
      "hit": false,
      "t": 227142.62999999846,
      "d": 107.14274999999907,
      "v": 117
    },
    {
      "midi": 67,
      "hit": false,
      "t": 227142.62999999846,
      "d": 160.7141249999986,
      "v": 117
    },
    {
      "midi": 63,
      "hit": false,
      "t": 227142.62999999846,
      "d": 214.28549999999814,
      "v": 117
    },
    {
      "midi": 58,
      "hit": false,
      "t": 227356.91549999846,
      "d": 107.14274999999907,
      "v": 104
    },
    {
      "midi": 58,
      "hit": false,
      "t": 227571.20099999846,
      "d": 107.14274999999907,
      "v": 104
    },
    {
      "midi": 63,
      "hit": false,
      "t": 227571.20099999846,
      "d": 107.14274999999907,
      "v": 116
    },
    {
      "midi": 67,
      "hit": false,
      "t": 227571.20099999846,
      "d": 107.14274999999907,
      "v": 109
    },
    {
      "midi": 58,
      "hit": false,
      "t": 227785.48649999846,
      "d": 107.14274999999907,
      "v": 98
    },
    {
      "midi": 62,
      "hit": false,
      "t": 227785.48649999846,
      "d": 160.7141249999986,
      "v": 117
    },
    {
      "midi": 65,
      "hit": false,
      "t": 227785.48649999846,
      "d": 267.8568749999977,
      "v": 117
    },
    {
      "midi": 58,
      "hit": false,
      "t": 227999.77199999845,
      "d": 107.14274999999907,
      "v": 98
    },
    {
      "midi": 56,
      "hit": false,
      "t": 228214.05749999845,
      "d": 107.14274999999907,
      "v": 109
    },
    {
      "midi": 60,
      "hit": false,
      "t": 228214.05749999845,
      "d": 160.7141249999986,
      "v": 116
    },
    {
      "midi": 65,
      "hit": false,
      "t": 228214.05749999845,
      "d": 160.7141249999986,
      "v": 117
    },
    {
      "midi": 56,
      "hit": false,
      "t": 228428.34299999845,
      "d": 107.14274999999907,
      "v": 87
    },
    {
      "midi": 56,
      "hit": false,
      "t": 228642.62849999845,
      "d": 160.7141249999986,
      "v": 116
    },
    {
      "midi": 60,
      "hit": false,
      "t": 228642.62849999845,
      "d": 160.7141249999986,
      "v": 116
    },
    {
      "midi": 65,
      "hit": false,
      "t": 228642.62849999845,
      "d": 160.7141249999986,
      "v": 116
    },
    {
      "midi": 62,
      "hit": false,
      "t": 228856.91399999845,
      "d": 160.7141249999986,
      "v": 117
    },
    {
      "midi": 65,
      "hit": false,
      "t": 228856.91399999845,
      "d": 214.28549999999814,
      "v": 109
    },
    {
      "midi": 58,
      "hit": false,
      "t": 229071.19949999845,
      "d": 107.14274999999907,
      "v": 87
    },
    {
      "midi": 58,
      "hit": false,
      "t": 229285.48499999844,
      "d": 107.14274999999907,
      "v": 109
    },
    {
      "midi": 63,
      "hit": false,
      "t": 229285.48499999844,
      "d": 160.7141249999986,
      "v": 117
    },
    {
      "midi": 67,
      "hit": false,
      "t": 229285.48499999844,
      "d": 160.7141249999986,
      "v": 117
    },
    {
      "midi": 58,
      "hit": false,
      "t": 229499.77049999844,
      "d": 107.14274999999907,
      "v": 87
    },
    {
      "midi": 58,
      "hit": false,
      "t": 229714.05599999844,
      "d": 107.14274999999907,
      "v": 98
    },
    {
      "midi": 62,
      "hit": false,
      "t": 229714.05599999844,
      "d": 107.14274999999907,
      "v": 109
    },
    {
      "midi": 65,
      "hit": false,
      "t": 229714.05599999844,
      "d": 107.14274999999907,
      "v": 109
    },
    {
      "midi": 58,
      "hit": false,
      "t": 229928.34149999844,
      "d": 107.14274999999907,
      "v": 116
    },
    {
      "midi": 62,
      "hit": false,
      "t": 229928.34149999844,
      "d": 160.7141249999986,
      "v": 117
    },
    {
      "midi": 65,
      "hit": false,
      "t": 229928.34149999844,
      "d": 214.28549999999814,
      "v": 117
    },
    {
      "midi": 58,
      "hit": false,
      "t": 230142.62699999844,
      "d": 107.14274999999907,
      "v": 104
    },
    {
      "midi": 58,
      "hit": false,
      "t": 230356.91249999843,
      "d": 107.14274999999907,
      "v": 65
    },
    {
      "midi": 63,
      "hit": false,
      "t": 230356.91249999843,
      "d": 107.14274999999907,
      "v": 85
    },
    {
      "midi": 58,
      "hit": false,
      "t": 230571.19799999843,
      "d": 133.92843749999884,
      "v": 117
    },
    {
      "midi": 63,
      "hit": false,
      "t": 230571.19799999843,
      "d": 214.28549999999814,
      "v": 117
    },
    {
      "midi": 67,
      "hit": false,
      "t": 230571.19799999843,
      "d": 214.28549999999814,
      "v": 117
    },
    {
      "midi": 58,
      "hit": false,
      "t": 230785.48349999843,
      "d": 107.14274999999907,
      "v": 104
    },
    {
      "midi": 67,
      "hit": false,
      "t": 230785.48349999843,
      "d": 107.14274999999907,
      "v": 67
    },
    {
      "midi": 58,
      "hit": false,
      "t": 230999.76899999843,
      "d": 107.14274999999907,
      "v": 85
    },
    {
      "midi": 63,
      "hit": false,
      "t": 230999.76899999843,
      "d": 107.14274999999907,
      "v": 77
    },
    {
      "midi": 67,
      "hit": false,
      "t": 230999.76899999843,
      "d": 107.14274999999907,
      "v": 94
    },
    {
      "midi": 58,
      "hit": false,
      "t": 231214.05449999843,
      "d": 107.14274999999907,
      "v": 109
    },
    {
      "midi": 62,
      "hit": false,
      "t": 231214.05449999843,
      "d": 214.28549999999814,
      "v": 116
    },
    {
      "midi": 65,
      "hit": false,
      "t": 231214.05449999843,
      "d": 214.28549999999814,
      "v": 117
    },
    {
      "midi": 58,
      "hit": false,
      "t": 231428.33999999842,
      "d": 107.14274999999907,
      "v": 89
    },
    {
      "midi": 56,
      "hit": false,
      "t": 231642.62549999842,
      "d": 107.14274999999907,
      "v": 117
    },
    {
      "midi": 60,
      "hit": false,
      "t": 231642.62549999842,
      "d": 160.7141249999986,
      "v": 109
    },
    {
      "midi": 65,
      "hit": false,
      "t": 231642.62549999842,
      "d": 267.8568749999977,
      "v": 116
    },
    {
      "midi": 56,
      "hit": false,
      "t": 231856.91099999842,
      "d": 107.14274999999907,
      "v": 104
    },
    {
      "midi": 56,
      "hit": false,
      "t": 232071.19649999842,
      "d": 107.14274999999907,
      "v": 116
    },
    {
      "midi": 60,
      "hit": false,
      "t": 232071.19649999842,
      "d": 160.7141249999986,
      "v": 109
    },
    {
      "midi": 65,
      "hit": false,
      "t": 232071.19649999842,
      "d": 321.4282499999972,
      "v": 116
    },
    {
      "midi": 61,
      "hit": false,
      "t": 232258.69631249842,
      "d": 53.571374999999534,
      "v": 104
    },
    {
      "midi": 58,
      "hit": false,
      "t": 232285.48199999842,
      "d": 107.14274999999907,
      "v": 94
    },
    {
      "midi": 62,
      "hit": false,
      "t": 232285.48199999842,
      "d": 160.7141249999986,
      "v": 117
    },
    {
      "midi": 58,
      "hit": false,
      "t": 232499.76749999842,
      "d": 107.14274999999907,
      "v": 89
    },
    {
      "midi": 65,
      "hit": false,
      "t": 232499.76749999842,
      "d": 107.14274999999907,
      "v": 51
    },
    {
      "midi": 58,
      "hit": false,
      "t": 232714.0529999984,
      "d": 107.14274999999907,
      "v": 109
    },
    {
      "midi": 63,
      "hit": false,
      "t": 232714.0529999984,
      "d": 160.7141249999986,
      "v": 104
    },
    {
      "midi": 67,
      "hit": false,
      "t": 232714.0529999984,
      "d": 160.7141249999986,
      "v": 116
    },
    {
      "midi": 58,
      "hit": false,
      "t": 232928.3384999984,
      "d": 107.14274999999907,
      "v": 104
    },
    {
      "midi": 62,
      "hit": false,
      "t": 233142.6239999984,
      "d": 107.14274999999907,
      "v": 92
    },
    {
      "midi": 58,
      "hit": false,
      "t": 233356.9094999984,
      "d": 107.14274999999907,
      "v": 116
    },
    {
      "midi": 62,
      "hit": false,
      "t": 233356.9094999984,
      "d": 160.7141249999986,
      "v": 117
    },
    {
      "midi": 65,
      "hit": false,
      "t": 233356.9094999984,
      "d": 160.7141249999986,
      "v": 117
    },
    {
      "midi": 58,
      "hit": false,
      "t": 233571.1949999984,
      "d": 107.14274999999907,
      "v": 109
    },
    {
      "midi": 65,
      "hit": false,
      "t": 233571.1949999984,
      "d": 107.14274999999907,
      "v": 70
    },
    {
      "midi": 63,
      "hit": false,
      "t": 233785.4804999984,
      "d": 107.14274999999907,
      "v": 98
    },
    {
      "midi": 58,
      "hit": false,
      "t": 233999.7659999984,
      "d": 107.14274999999907,
      "v": 117
    },
    {
      "midi": 67,
      "hit": false,
      "t": 233999.7659999984,
      "d": 160.7141249999986,
      "v": 117
    },
    {
      "midi": 63,
      "hit": false,
      "t": 233999.7659999984,
      "d": 214.28549999999814,
      "v": 117
    },
    {
      "midi": 58,
      "hit": false,
      "t": 234214.0514999984,
      "d": 107.14274999999907,
      "v": 104
    },
    {
      "midi": 58,
      "hit": false,
      "t": 234428.3369999984,
      "d": 107.14274999999907,
      "v": 104
    },
    {
      "midi": 63,
      "hit": false,
      "t": 234428.3369999984,
      "d": 107.14274999999907,
      "v": 116
    },
    {
      "midi": 67,
      "hit": false,
      "t": 234428.3369999984,
      "d": 107.14274999999907,
      "v": 109
    },
    {
      "midi": 58,
      "hit": false,
      "t": 234642.6224999984,
      "d": 107.14274999999907,
      "v": 98
    },
    {
      "midi": 62,
      "hit": false,
      "t": 234642.6224999984,
      "d": 160.7141249999986,
      "v": 117
    },
    {
      "midi": 65,
      "hit": false,
      "t": 234642.6224999984,
      "d": 267.8568749999977,
      "v": 117
    },
    {
      "midi": 58,
      "hit": false,
      "t": 234856.9079999984,
      "d": 107.14274999999907,
      "v": 98
    },
    {
      "midi": 56,
      "hit": false,
      "t": 235071.1934999984,
      "d": 107.14274999999907,
      "v": 109
    },
    {
      "midi": 60,
      "hit": false,
      "t": 235071.1934999984,
      "d": 160.7141249999986,
      "v": 116
    },
    {
      "midi": 65,
      "hit": false,
      "t": 235071.1934999984,
      "d": 160.7141249999986,
      "v": 117
    },
    {
      "midi": 56,
      "hit": false,
      "t": 235285.4789999984,
      "d": 107.14274999999907,
      "v": 87
    },
    {
      "midi": 56,
      "hit": false,
      "t": 235499.7644999984,
      "d": 160.7141249999986,
      "v": 116
    },
    {
      "midi": 60,
      "hit": false,
      "t": 235499.7644999984,
      "d": 160.7141249999986,
      "v": 116
    },
    {
      "midi": 65,
      "hit": false,
      "t": 235499.7644999984,
      "d": 160.7141249999986,
      "v": 116
    },
    {
      "midi": 62,
      "hit": false,
      "t": 235714.0499999984,
      "d": 107.14274999999907,
      "v": 103
    },
    {
      "midi": 65,
      "hit": false,
      "t": 235714.0499999984,
      "d": 107.14274999999907,
      "v": 103
    },
    {
      "midi": 70,
      "hit": false,
      "t": 235714.0499999984,
      "d": 107.14274999999907,
      "v": 103
    },
    {
      "midi": 62,
      "hit": false,
      "t": 236142.62099999838,
      "d": 16714.269,
      "v": 108
    },
    {
      "midi": 65,
      "hit": false,
      "t": 236142.62099999838,
      "d": 16714.269,
      "v": 108
    },
    {
      "midi": 70,
      "hit": false,
      "t": 236142.62099999838,
      "d": 16714.269,
      "v": 108
    }
  ]
}