{
  "jsonPath": "Soul/Funk/Mary Wells/once-upon-a-time.json",
  "path": "Soul\\Funk\\Mary Wells\\Once Upon A Time.mid",
  "name": "Once Upon A Time",
  "difficulty": "Advanced",
  "bpm": 110.00011000011,
  "notes": [
    {
      "midi": 63,
      "hit": false,
      "t": 2790.9063,
      "d": 86.36355000000003,
      "v": 127
    },
    {
      "midi": 58,
      "hit": false,
      "t": 2963.6334,
      "d": 86.36355000000003,
      "v": 126
    },
    {
      "midi": 63,
      "hit": false,
      "t": 3131.81505,
      "d": 90.90899999999965,
      "v": 127
    },
    {
      "midi": 67,
      "hit": false,
      "t": 3318.1785,
      "d": 99.9998999999998,
      "v": 127
    },
    {
      "midi": 63,
      "hit": false,
      "t": 3499.9964999999997,
      "d": 109.09079999999994,
      "v": 125
    },
    {
      "midi": 67,
      "hit": false,
      "t": 3672.7236,
      "d": 72.72719999999981,
      "v": 127
    },
    {
      "midi": 70,
      "hit": false,
      "t": 3863.6324999999997,
      "d": 104.54534999999987,
      "v": 127
    },
    {
      "midi": 67,
      "hit": false,
      "t": 4022.7232499999996,
      "d": 86.36354999999958,
      "v": 127
    },
    {
      "midi": 70,
      "hit": false,
      "t": 4190.904899999999,
      "d": 68.18174999999974,
      "v": 127
    },
    {
      "midi": 68,
      "hit": false,
      "t": 4381.813799999999,
      "d": 1954.5434999999989,
      "v": 127
    },
    {
      "midi": 72,
      "hit": false,
      "t": 4390.904699999999,
      "d": 295.4542499999998,
      "v": 127
    },
    {
      "midi": 63,
      "hit": false,
      "t": 4395.450149999999,
      "d": 218.1815999999999,
      "v": 127
    },
    {
      "midi": 63,
      "hit": false,
      "t": 4686.358949999999,
      "d": 99.9998999999998,
      "v": 106
    },
    {
      "midi": 63,
      "hit": false,
      "t": 4859.086049999999,
      "d": 236.36339999999927,
      "v": 71
    },
    {
      "midi": 75,
      "hit": false,
      "t": 4927.267799999999,
      "d": 77.27264999999989,
      "v": 82
    },
    {
      "midi": 75,
      "hit": false,
      "t": 5113.6312499999985,
      "d": 59.09084999999959,
      "v": 103
    },
    {
      "midi": 63,
      "hit": false,
      "t": 5181.812999999998,
      "d": 68.18174999999974,
      "v": 96
    },
    {
      "midi": 75,
      "hit": false,
      "t": 5249.994749999998,
      "d": 63.63630000000012,
      "v": 103
    },
    {
      "midi": 72,
      "hit": false,
      "t": 5277.2674499999985,
      "d": 49.999949999999444,
      "v": 108
    },
    {
      "midi": 63,
      "hit": false,
      "t": 5327.267399999998,
      "d": 95.45445000000018,
      "v": 108
    },
    {
      "midi": 75,
      "hit": false,
      "t": 5413.630949999998,
      "d": 49.999950000000354,
      "v": 101
    },
    {
      "midi": 72,
      "hit": false,
      "t": 5413.630949999998,
      "d": 81.81810000000041,
      "v": 122
    },
    {
      "midi": 63,
      "hit": false,
      "t": 5495.449049999998,
      "d": 81.8180999999995,
      "v": 109
    },
    {
      "midi": 75,
      "hit": false,
      "t": 5572.721699999998,
      "d": 63.63629999999921,
      "v": 87
    },
    {
      "midi": 72,
      "hit": false,
      "t": 5577.267149999998,
      "d": 68.18174999999974,
      "v": 106
    },
    {
      "midi": 63,
      "hit": false,
      "t": 5659.085249999997,
      "d": 77.27264999999989,
      "v": 103
    },
    {
      "midi": 72,
      "hit": false,
      "t": 5745.448799999997,
      "d": 54.54539999999997,
      "v": 110
    },
    {
      "midi": 63,
      "hit": false,
      "t": 5813.630549999997,
      "d": 81.81810000000041,
      "v": 107
    },
    {
      "midi": 72,
      "hit": false,
      "t": 5904.539549999998,
      "d": 63.63630000000012,
      "v": 119
    },
    {
      "midi": 63,
      "hit": false,
      "t": 5968.175849999998,
      "d": 86.36355000000003,
      "v": 101
    },
    {
      "midi": 72,
      "hit": false,
      "t": 6059.0848499999975,
      "d": 59.0908500000005,
      "v": 106
    },
    {
      "midi": 75,
      "hit": false,
      "t": 6068.175749999998,
      "d": 40.90905000000021,
      "v": 83
    },
    {
      "midi": 63,
      "hit": false,
      "t": 6122.721149999998,
      "d": 86.36355000000003,
      "v": 101
    },
    {
      "midi": 75,
      "hit": false,
      "t": 6218.175599999998,
      "d": 49.999950000000354,
      "v": 89
    },
    {
      "midi": 72,
      "hit": false,
      "t": 6218.175599999998,
      "d": 104.54535000000033,
      "v": 124
    },
    {
      "midi": 63,
      "hit": false,
      "t": 6290.902799999998,
      "d": 86.36355000000003,
      "v": 104
    },
    {
      "midi": 63,
      "hit": false,
      "t": 6463.629899999998,
      "d": 104.54534999999942,
      "v": 105
    },
    {
      "midi": 68,
      "hit": false,
      "t": 6549.993449999998,
      "d": 59.09084999999959,
      "v": 114
    },
    {
      "midi": 72,
      "hit": false,
      "t": 6549.993449999998,
      "d": 99.9998999999998,
      "v": 127
    },
    {
      "midi": 75,
      "hit": false,
      "t": 6563.629799999998,
      "d": 72.72720000000027,
      "v": 120
    },
    {
      "midi": 68,
      "hit": false,
      "t": 6936.3566999999975,
      "d": 209.09069999999974,
      "v": 126
    },
    {
      "midi": 72,
      "hit": false,
      "t": 7131.8110499999975,
      "d": 163.63619999999992,
      "v": 127
    },
    {
      "midi": 75,
      "hit": false,
      "t": 7131.8110499999975,
      "d": 231.81794999999966,
      "v": 127
    },
    {
      "midi": 68,
      "hit": false,
      "t": 7309.083599999997,
      "d": 149.99985000000015,
      "v": 127
    },
    {
      "midi": 73,
      "hit": false,
      "t": 7472.719799999997,
      "d": 118.18170000000009,
      "v": 127
    },
    {
      "midi": 77,
      "hit": false,
      "t": 7472.719799999997,
      "d": 227.27250000000004,
      "v": 126
    },
    {
      "midi": 71,
      "hit": false,
      "t": 7654.537799999997,
      "d": 95.45445000000018,
      "v": 124
    },
    {
      "midi": 75,
      "hit": false,
      "t": 7677.265049999997,
      "d": 45.454499999999825,
      "v": 110
    },
    {
      "midi": 72,
      "hit": false,
      "t": 7690.901399999997,
      "d": 109.09080000000085,
      "v": 113
    },
    {
      "midi": 80,
      "hit": false,
      "t": 7822.719449999998,
      "d": 86.36355000000003,
      "v": 110
    },
    {
      "midi": 77,
      "hit": false,
      "t": 7840.901249999998,
      "d": 113.63624999999956,
      "v": 119
    },
    {
      "midi": 75,
      "hit": false,
      "t": 7904.537549999998,
      "d": 86.36354999999912,
      "v": 121
    },
    {
      "midi": 72,
      "hit": false,
      "t": 7949.992049999998,
      "d": 90.90899999999965,
      "v": 127
    },
    {
      "midi": 68,
      "hit": false,
      "t": 7990.901099999997,
      "d": 136.36350000000039,
      "v": 124
    },
    {
      "midi": 72,
      "hit": false,
      "t": 8181.809999999998,
      "d": 131.81804999999986,
      "v": 127
    },
    {
      "midi": 66,
      "hit": false,
      "t": 8190.900899999998,
      "d": 140.90895,
      "v": 127
    },
    {
      "midi": 63,
      "hit": false,
      "t": 8359.082549999997,
      "d": 186.36344999999892,
      "v": 119
    },
    {
      "midi": 66,
      "hit": false,
      "t": 8540.900549999997,
      "d": 81.81810000000041,
      "v": 126
    },
    {
      "midi": 72,
      "hit": false,
      "t": 8540.900549999997,
      "d": 109.09079999999994,
      "v": 127
    },
    {
      "midi": 70,
      "hit": false,
      "t": 8731.809449999997,
      "d": 518.1812999999966,
      "v": 122
    },
    {
      "midi": 63,
      "hit": false,
      "t": 8740.900349999996,
      "d": 472.72679999999855,
      "v": 121
    },
    {
      "midi": 67,
      "hit": false,
      "t": 8745.445799999996,
      "d": 472.72679999999855,
      "v": 127
    },
    {
      "midi": 63,
      "hit": false,
      "t": 9336.354299999994,
      "d": 77.27264999999898,
      "v": 120
    },
    {
      "midi": 70,
      "hit": false,
      "t": 9336.354299999994,
      "d": 95.45444999999927,
      "v": 120
    },
    {
      "midi": 75,
      "hit": false,
      "t": 9336.354299999994,
      "d": 104.5453499999985,
      "v": 112
    },
    {
      "midi": 67,
      "hit": false,
      "t": 9340.899749999993,
      "d": 109.09079999999813,
      "v": 127
    },
    {
      "midi": 65,
      "hit": false,
      "t": 9504.535949999992,
      "d": 90.90899999999965,
      "v": 120
    },
    {
      "midi": 68,
      "hit": false,
      "t": 9509.081399999992,
      "d": 77.2726500000008,
      "v": 124
    },
    {
      "midi": 75,
      "hit": false,
      "t": 9509.081399999992,
      "d": 95.45444999999927,
      "v": 108
    },
    {
      "midi": 70,
      "hit": false,
      "t": 9677.26304999999,
      "d": 90.90899999999965,
      "v": 120
    },
    {
      "midi": 75,
      "hit": false,
      "t": 9677.26304999999,
      "d": 104.54535000000033,
      "v": 87
    },
    {
      "midi": 67,
      "hit": false,
      "t": 9677.26304999999,
      "d": 113.63624999999956,
      "v": 127
    },
    {
      "midi": 75,
      "hit": false,
      "t": 9868.171949999989,
      "d": 449.99955000000045,
      "v": 127
    },
    {
      "midi": 72,
      "hit": false,
      "t": 9868.171949999989,
      "d": 481.8177000000014,
      "v": 127
    },
    {
      "midi": 68,
      "hit": false,
      "t": 9872.717399999989,
      "d": 459.0904500000015,
      "v": 127
    },
    {
      "midi": 72,
      "hit": false,
      "t": 10413.62594999999,
      "d": 131.81804999999986,
      "v": 127
    },
    {
      "midi": 68,
      "hit": false,
      "t": 10418.17139999999,
      "d": 90.90899999999965,
      "v": 127
    },
    {
      "midi": 75,
      "hit": false,
      "t": 10418.17139999999,
      "d": 113.63624999999956,
      "v": 127
    },
    {
      "midi": 70,
      "hit": false,
      "t": 10577.26214999999,
      "d": 90.90899999999965,
      "v": 117
    },
    {
      "midi": 75,
      "hit": false,
      "t": 10586.353049999989,
      "d": 90.90899999999965,
      "v": 86
    },
    {
      "midi": 67,
      "hit": false,
      "t": 10590.898499999988,
      "d": 109.09079999999994,
      "v": 127
    },
    {
      "midi": 65,
      "hit": false,
      "t": 10749.989249999988,
      "d": 99.99989999999889,
      "v": 127
    },
    {
      "midi": 68,
      "hit": false,
      "t": 10759.080149999987,
      "d": 90.90899999999965,
      "v": 127
    },
    {
      "midi": 75,
      "hit": false,
      "t": 10768.171049999986,
      "d": 68.18174999999974,
      "v": 117
    },
    {
      "midi": 72,
      "hit": false,
      "t": 10772.716499999986,
      "d": 104.54535000000033,
      "v": 127
    },
    {
      "midi": 63,
      "hit": false,
      "t": 10972.716299999985,
      "d": 104.54535000000033,
      "v": 127
    },
    {
      "midi": 67,
      "hit": false,
      "t": 10972.716299999985,
      "d": 109.09079999999994,
      "v": 127
    },
    {
      "midi": 70,
      "hit": false,
      "t": 10972.716299999985,
      "d": 109.09079999999994,
      "v": 127
    },
    {
      "midi": 75,
      "hit": false,
      "t": 10972.716299999985,
      "d": 109.09079999999994,
      "v": 127
    },
    {
      "midi": 63,
      "hit": false,
      "t": 11454.533999999985,
      "d": 540.9085500000001,
      "v": 118
    },
    {
      "midi": 75,
      "hit": false,
      "t": 11454.534,
      "d": 540.9085500000001,
      "v": 112
    },
    {
      "midi": 51,
      "hit": false,
      "t": 11454.534,
      "d": 540.9085500000001,
      "v": 126
    },
    {
      "midi": 67,
      "hit": false,
      "t": 11999.987999999985,
      "d": 540.9085500000001,
      "v": 126
    },
    {
      "midi": 61,
      "hit": false,
      "t": 11999.987999999985,
      "d": 1086.3625499999998,
      "v": 112
    },
    {
      "midi": 79,
      "hit": false,
      "t": 11999.988,
      "d": 540.9085500000001,
      "v": 102
    },
    {
      "midi": 55,
      "hit": false,
      "t": 11999.988,
      "d": 540.9085500000001,
      "v": 113
    },
    {
      "midi": 70,
      "hit": false,
      "t": 12545.441999999985,
      "d": 540.9085500000001,
      "v": 117
    },
    {
      "midi": 82,
      "hit": false,
      "t": 12545.442,
      "d": 540.9085500000001,
      "v": 123
    },
    {
      "midi": 58,
      "hit": false,
      "t": 12545.442,
      "d": 540.9085500000001,
      "v": 127
    },
    {
      "midi": 68,
      "hit": false,
      "t": 13090.895999999984,
      "d": 2722.724549999999,
      "v": 115
    },
    {
      "midi": 72,
      "hit": false,
      "t": 13090.895999999984,
      "d": 2722.724549999999,
      "v": 116
    },
    {
      "midi": 75,
      "hit": false,
      "t": 13090.895999999984,
      "d": 2722.724549999999,
      "v": 117
    },
    {
      "midi": 87,
      "hit": false,
      "t": 13090.895999999999,
      "d": 2722.724550000001,
      "v": 115
    },
    {
      "midi": 63,
      "hit": false,
      "t": 13090.895999999999,
      "d": 2722.724550000001,
      "v": 118
    },
    {
      "midi": 80,
      "hit": false,
      "t": 13090.896,
      "d": 4363.631999999998,
      "v": 61
    },
    {
      "midi": 72,
      "hit": false,
      "t": 13272.714,
      "d": 1645.4529000000002,
      "v": 62
    },
    {
      "midi": 63,
      "hit": false,
      "t": 13636.35,
      "d": 1272.7260000000006,
      "v": 51
    },
    {
      "midi": 67,
      "hit": false,
      "t": 14181.803999999984,
      "d": 813.6355500000009,
      "v": 111
    },
    {
      "midi": 60,
      "hit": false,
      "t": 14909.076000000001,
      "d": 2545.4519999999975,
      "v": 70
    },
    {
      "midi": 65,
      "hit": false,
      "t": 14999.984999999984,
      "d": 268.18154999999933,
      "v": 123
    },
    {
      "midi": 63,
      "hit": false,
      "t": 15090.894,
      "d": 1536.3620999999985,
      "v": 66
    },
    {
      "midi": 63,
      "hit": false,
      "t": 15272.711999999983,
      "d": 1086.3625499999998,
      "v": 115
    },
    {
      "midi": 72,
      "hit": false,
      "t": 15272.712,
      "d": 1699.9982999999993,
      "v": 51
    },
    {
      "midi": 72,
      "hit": false,
      "t": 15818.165999999983,
      "d": 540.9085500000001,
      "v": 116
    },
    {
      "midi": 84,
      "hit": false,
      "t": 15818.166,
      "d": 540.9085500000001,
      "v": 115
    },
    {
      "midi": 60,
      "hit": false,
      "t": 15818.166,
      "d": 540.9085500000001,
      "v": 120
    },
    {
      "midi": 68,
      "hit": false,
      "t": 16363.619999999983,
      "d": 359.090549999999,
      "v": 116
    },
    {
      "midi": 60,
      "hit": false,
      "t": 16363.619999999983,
      "d": 1086.3625500000035,
      "v": 113
    },
    {
      "midi": 80,
      "hit": false,
      "t": 16363.619999999999,
      "d": 359.0905500000008,
      "v": 114
    },
    {
      "midi": 56,
      "hit": false,
      "t": 16363.619999999999,
      "d": 359.0905500000008,
      "v": 124
    },
    {
      "midi": 63,
      "hit": false,
      "t": 16727.255999999983,
      "d": 359.0905500000008,
      "v": 118
    },
    {
      "midi": 75,
      "hit": false,
      "t": 16727.256,
      "d": 359.0905500000008,
      "v": 119
    },
    {
      "midi": 51,
      "hit": false,
      "t": 16727.256,
      "d": 359.0905500000008,
      "v": 127
    },
    {
      "midi": 63,
      "hit": false,
      "t": 16909.074,
      "d": 536.3630999999987,
      "v": 68
    },
    {
      "midi": 72,
      "hit": false,
      "t": 17090.891999999985,
      "d": 359.0905500000008,
      "v": 125
    },
    {
      "midi": 72,
      "hit": false,
      "t": 17090.892,
      "d": 18.181799999998475,
      "v": 64
    },
    {
      "midi": 84,
      "hit": false,
      "t": 17090.892000000003,
      "d": 359.0905500000008,
      "v": 127
    },
    {
      "midi": 60,
      "hit": false,
      "t": 17090.892000000003,
      "d": 359.0905500000008,
      "v": 115
    },
    {
      "midi": 72,
      "hit": false,
      "t": 17272.71,
      "d": 149.99985000000015,
      "v": 60
    },
    {
      "midi": 67,
      "hit": false,
      "t": 17454.527999999988,
      "d": 2177.270550000001,
      "v": 114
    },
    {
      "midi": 70,
      "hit": false,
      "t": 17454.527999999988,
      "d": 2177.270550000001,
      "v": 115
    },
    {
      "midi": 63,
      "hit": false,
      "t": 17454.527999999988,
      "d": 2722.7245500000026,
      "v": 115
    },
    {
      "midi": 55,
      "hit": false,
      "t": 17454.528,
      "d": 3090.905999999999,
      "v": 70
    },
    {
      "midi": 58,
      "hit": false,
      "t": 17454.528,
      "d": 3090.905999999999,
      "v": 70
    },
    {
      "midi": 63,
      "hit": false,
      "t": 17454.528,
      "d": 3090.905999999999,
      "v": 70
    },
    {
      "midi": 39,
      "hit": false,
      "t": 17454.528,
      "d": 4277.26845,
      "v": 68
    },
    {
      "midi": 82,
      "hit": false,
      "t": 17454.528000000006,
      "d": 2722.724549999999,
      "v": 115
    },
    {
      "midi": 58,
      "hit": false,
      "t": 17454.528000000006,
      "d": 2722.724549999999,
      "v": 114
    },
    {
      "midi": 75,
      "hit": false,
      "t": 18545.435999999987,
      "d": 813.6355499999991,
      "v": 120
    },
    {
      "midi": 79,
      "hit": false,
      "t": 18545.435999999987,
      "d": 813.6355499999991,
      "v": 120
    },
    {
      "midi": 75,
      "hit": false,
      "t": 19363.616999999987,
      "d": 268.18155000000115,
      "v": 117
    },
    {
      "midi": 67,
      "hit": false,
      "t": 19636.34399999999,
      "d": 540.9085500000001,
      "v": 114
    },
    {
      "midi": 70,
      "hit": false,
      "t": 19636.34399999999,
      "d": 540.9085500000001,
      "v": 108
    },
    {
      "midi": 67,
      "hit": false,
      "t": 20181.79799999999,
      "d": 540.9085500000001,
      "v": 118
    },
    {
      "midi": 79,
      "hit": false,
      "t": 20181.798000000006,
      "d": 540.9085500000001,
      "v": 119
    },
    {
      "midi": 55,
      "hit": false,
      "t": 20181.798000000006,
      "d": 540.9085500000001,
      "v": 115
    },
    {
      "midi": 63,
      "hit": false,
      "t": 20727.251999999993,
      "d": 359.0905500000008,
      "v": 113
    },
    {
      "midi": 75,
      "hit": false,
      "t": 20727.252000000008,
      "d": 359.0905500000008,
      "v": 127
    },
    {
      "midi": 51,
      "hit": false,
      "t": 20727.252000000008,
      "d": 359.0905500000008,
      "v": 120
    },
    {
      "midi": 58,
      "hit": false,
      "t": 21090.887999999995,
      "d": 359.0905500000008,
      "v": 112
    },
    {
      "midi": 55,
      "hit": false,
      "t": 21090.888,
      "d": 727.2719999999972,
      "v": 57
    },
    {
      "midi": 70,
      "hit": false,
      "t": 21090.88800000001,
      "d": 359.0905500000008,
      "v": 120
    },
    {
      "midi": 46,
      "hit": false,
      "t": 21090.88800000001,
      "d": 359.0905500000008,
      "v": 115
    },
    {
      "midi": 63,
      "hit": false,
      "t": 21272.706,
      "d": 545.4539999999979,
      "v": 52
    },
    {
      "midi": 68,
      "hit": false,
      "t": 21454.523999999998,
      "d": 359.0905500000008,
      "v": 124
    },
    {
      "midi": 80,
      "hit": false,
      "t": 21454.524000000012,
      "d": 359.0905500000008,
      "v": 115
    },
    {
      "midi": 56,
      "hit": false,
      "t": 21454.524000000012,
      "d": 359.0905500000008,
      "v": 125
    },
    {
      "midi": 67,
      "hit": false,
      "t": 21636.341999999997,
      "d": 181.8179999999993,
      "v": 58
    },
    {
      "midi": 70,
      "hit": false,
      "t": 21818.159999999996,
      "d": 4363.6319999999905,
      "v": 61
    },
    {
      "midi": 56,
      "hit": false,
      "t": 21818.16,
      "d": 2722.7245500000063,
      "v": 114
    },
    {
      "midi": 62,
      "hit": false,
      "t": 21818.16,
      "d": 2722.7245500000063,
      "v": 110
    },
    {
      "midi": 65,
      "hit": false,
      "t": 21818.16,
      "d": 2722.7245500000063,
      "v": 127
    },
    {
      "midi": 77,
      "hit": false,
      "t": 21818.160000000014,
      "d": 2722.724549999999,
      "v": 115
    },
    {
      "midi": 53,
      "hit": false,
      "t": 21818.160000000014,
      "d": 2722.724549999999,
      "v": 113
    },
    {
      "midi": 65,
      "hit": false,
      "t": 21999.977999999996,
      "d": 3836.359799999991,
      "v": 62
    },
    {
      "midi": 62,
      "hit": false,
      "t": 22181.795999999995,
      "d": 1463.6348999999973,
      "v": 49
    },
    {
      "midi": 56,
      "hit": false,
      "t": 22363.613999999994,
      "d": 1272.7259999999987,
      "v": 51
    },
    {
      "midi": 74,
      "hit": false,
      "t": 22909.068,
      "d": 359.0905500000008,
      "v": 109
    },
    {
      "midi": 77,
      "hit": false,
      "t": 22909.068,
      "d": 359.0905500000008,
      "v": 121
    },
    {
      "midi": 73,
      "hit": false,
      "t": 23272.704,
      "d": 359.0905500000008,
      "v": 108
    },
    {
      "midi": 76,
      "hit": false,
      "t": 23272.704,
      "d": 359.0905500000008,
      "v": 112
    },
    {
      "midi": 53,
      "hit": false,
      "t": 23636.339999999993,
      "d": 2545.451999999994,
      "v": 70
    },
    {
      "midi": 72,
      "hit": false,
      "t": 23636.340000000004,
      "d": 359.0905500000008,
      "v": 108
    },
    {
      "midi": 75,
      "hit": false,
      "t": 23636.340000000004,
      "d": 359.0905500000008,
      "v": 119
    },
    {
      "midi": 56,
      "hit": false,
      "t": 23818.157999999992,
      "d": 1536.3620999999985,
      "v": 66
    },
    {
      "midi": 62,
      "hit": false,
      "t": 23999.97599999999,
      "d": 1699.9982999999957,
      "v": 51
    },
    {
      "midi": 70,
      "hit": false,
      "t": 23999.976000000006,
      "d": 540.9085500000001,
      "v": 117
    },
    {
      "midi": 74,
      "hit": false,
      "t": 23999.976000000006,
      "d": 540.9085500000001,
      "v": 115
    },
    {
      "midi": 62,
      "hit": false,
      "t": 24545.430000000008,
      "d": 540.9085500000001,
      "v": 115
    },
    {
      "midi": 65,
      "hit": false,
      "t": 24545.430000000008,
      "d": 540.9085500000001,
      "v": 114
    },
    {
      "midi": 77,
      "hit": false,
      "t": 24545.430000000015,
      "d": 540.9085500000001,
      "v": 115
    },
    {
      "midi": 53,
      "hit": false,
      "t": 24545.430000000015,
      "d": 540.9085500000001,
      "v": 119
    },
    {
      "midi": 56,
      "hit": false,
      "t": 25090.88400000001,
      "d": 540.9085500000001,
      "v": 114
    },
    {
      "midi": 60,
      "hit": false,
      "t": 25090.88400000001,
      "d": 540.9085500000001,
      "v": 108
    },
    {
      "midi": 63,
      "hit": false,
      "t": 25090.88400000001,
      "d": 540.9085500000001,
      "v": 101
    },
    {
      "midi": 75,
      "hit": false,
      "t": 25090.884000000016,
      "d": 540.9085500000001,
      "v": 115
    },
    {
      "midi": 51,
      "hit": false,
      "t": 25090.884000000016,
      "d": 540.9085500000001,
      "v": 114
    },
    {
      "midi": 56,
      "hit": false,
      "t": 25636.33799999999,
      "d": 536.3630999999987,
      "v": 68
    },
    {
      "midi": 62,
      "hit": false,
      "t": 25636.33800000001,
      "d": 540.9085500000001,
      "v": 116
    },
    {
      "midi": 65,
      "hit": false,
      "t": 25636.33800000001,
      "d": 540.9085500000001,
      "v": 106
    },
    {
      "midi": 77,
      "hit": false,
      "t": 25636.338000000018,
      "d": 540.9085500000001,
      "v": 117
    },
    {
      "midi": 53,
      "hit": false,
      "t": 25636.338000000018,
      "d": 540.9085500000001,
      "v": 100
    },
    {
      "midi": 62,
      "hit": false,
      "t": 25818.155999999988,
      "d": 340.9087499999987,
      "v": 64
    },
    {
      "midi": 65,
      "hit": false,
      "t": 25999.973999999987,
      "d": 149.99985000000015,
      "v": 60
    },
    {
      "midi": 58,
      "hit": false,
      "t": 26181.791999999987,
      "d": 745.4537999999993,
      "v": 59
    },
    {
      "midi": 63,
      "hit": false,
      "t": 26181.791999999987,
      "d": 745.4537999999993,
      "v": 59
    },
    {
      "midi": 67,
      "hit": false,
      "t": 26181.791999999987,
      "d": 745.4537999999993,
      "v": 59
    },
    {
      "midi": 55,
      "hit": false,
      "t": 26181.792000000012,
      "d": 2722.72455000001,
      "v": 127
    },
    {
      "midi": 67,
      "hit": false,
      "t": 26181.792000000012,
      "d": 2722.72455000001,
      "v": 121
    },
    {
      "midi": 79,
      "hit": false,
      "t": 26181.79200000002,
      "d": 2722.724549999999,
      "v": 121
    },
    {
      "midi": 55,
      "hit": false,
      "t": 26181.79200000002,
      "d": 2722.724549999999,
      "v": 114
    },
    {
      "midi": 63,
      "hit": false,
      "t": 26727.246000000014,
      "d": 540.9085500000001,
      "v": 114
    },
    {
      "midi": 55,
      "hit": false,
      "t": 26909.063999999988,
      "d": 363.6359999999986,
      "v": 49
    },
    {
      "midi": 63,
      "hit": false,
      "t": 27090.881999999987,
      "d": 181.8179999999993,
      "v": 62
    },
    {
      "midi": 62,
      "hit": false,
      "t": 27272.699999999986,
      "d": 745.4537999999993,
      "v": 59
    },
    {
      "midi": 65,
      "hit": false,
      "t": 27272.699999999986,
      "d": 745.4537999999993,
      "v": 59
    },
    {
      "midi": 67,
      "hit": false,
      "t": 27272.699999999986,
      "d": 745.4537999999993,
      "v": 59
    },
    {
      "midi": 70,
      "hit": false,
      "t": 27272.699999999986,
      "d": 745.4537999999993,
      "v": 59
    },
    {
      "midi": 62,
      "hit": false,
      "t": 27272.700000000015,
      "d": 359.0905500000008,
      "v": 110
    },
    {
      "midi": 58,
      "hit": false,
      "t": 27636.336000000018,
      "d": 359.0905500000008,
      "v": 114
    },
    {
      "midi": 55,
      "hit": false,
      "t": 27999.971999999987,
      "d": 363.6359999999986,
      "v": 49
    },
    {
      "midi": 62,
      "hit": false,
      "t": 27999.97200000002,
      "d": 359.0905500000008,
      "v": 127
    },
    {
      "midi": 62,
      "hit": false,
      "t": 28181.789999999986,
      "d": 181.8179999999993,
      "v": 62
    },
    {
      "midi": 58,
      "hit": false,
      "t": 28363.607999999986,
      "d": 745.4537999999993,
      "v": 59
    },
    {
      "midi": 60,
      "hit": false,
      "t": 28363.607999999986,
      "d": 745.4537999999993,
      "v": 59
    },
    {
      "midi": 63,
      "hit": false,
      "t": 28363.607999999986,
      "d": 745.4537999999993,
      "v": 59
    },
    {
      "midi": 67,
      "hit": false,
      "t": 28363.607999999986,
      "d": 745.4537999999993,
      "v": 59
    },
    {
      "midi": 60,
      "hit": false,
      "t": 28363.608000000022,
      "d": 540.9085500000001,
      "v": 109
    },
    {
      "midi": 75,
      "hit": false,
      "t": 28909.06200000002,
      "d": 540.9085500000001,
      "v": 108
    },
    {
      "midi": 51,
      "hit": false,
      "t": 28909.06200000002,
      "d": 540.9085500000001,
      "v": 104
    },
    {
      "midi": 63,
      "hit": false,
      "t": 28909.062000000024,
      "d": 540.9085500000001,
      "v": 116
    },
    {
      "midi": 55,
      "hit": false,
      "t": 29090.879999999986,
      "d": 363.6359999999986,
      "v": 49
    },
    {
      "midi": 60,
      "hit": false,
      "t": 29272.697999999986,
      "d": 181.8179999999993,
      "v": 62
    },
    {
      "midi": 58,
      "hit": false,
      "t": 29454.515999999985,
      "d": 745.4537999999993,
      "v": 59
    },
    {
      "midi": 61,
      "hit": false,
      "t": 29454.515999999985,
      "d": 745.4537999999993,
      "v": 59
    },
    {
      "midi": 63,
      "hit": false,
      "t": 29454.515999999985,
      "d": 745.4537999999993,
      "v": 59
    },
    {
      "midi": 67,
      "hit": false,
      "t": 29454.515999999985,
      "d": 745.4537999999993,
      "v": 59
    },
    {
      "midi": 79,
      "hit": false,
      "t": 29454.51600000002,
      "d": 540.9085500000001,
      "v": 115
    },
    {
      "midi": 55,
      "hit": false,
      "t": 29454.51600000002,
      "d": 540.9085500000001,
      "v": 103
    },
    {
      "midi": 67,
      "hit": false,
      "t": 29454.516000000025,
      "d": 540.9085500000001,
      "v": 105
    },
    {
      "midi": 61,
      "hit": false,
      "t": 29454.516000000025,
      "d": 1086.3625500000016,
      "v": 120
    },
    {
      "midi": 82,
      "hit": false,
      "t": 29999.970000000023,
      "d": 540.9085500000001,
      "v": 112
    },
    {
      "midi": 58,
      "hit": false,
      "t": 29999.970000000023,
      "d": 540.9085500000001,
      "v": 110
    },
    {
      "midi": 70,
      "hit": false,
      "t": 29999.970000000027,
      "d": 540.9085500000001,
      "v": 112
    },
    {
      "midi": 55,
      "hit": false,
      "t": 30181.787999999986,
      "d": 363.6359999999986,
      "v": 49
    },
    {
      "midi": 61,
      "hit": false,
      "t": 30363.605999999985,
      "d": 181.8179999999993,
      "v": 62
    },
    {
      "midi": 44,
      "hit": false,
      "t": 30545.423999999985,
      "d": 3440.9056500000006,
      "v": 57
    },
    {
      "midi": 60,
      "hit": false,
      "t": 30545.423999999985,
      "d": 3468.178350000002,
      "v": 49
    },
    {
      "midi": 87,
      "hit": false,
      "t": 30545.424000000025,
      "d": 2722.7245500000026,
      "v": 115
    },
    {
      "midi": 63,
      "hit": false,
      "t": 30545.424000000025,
      "d": 2722.7245500000026,
      "v": 109
    },
    {
      "midi": 68,
      "hit": false,
      "t": 30545.424000000028,
      "d": 2722.724549999999,
      "v": 115
    },
    {
      "midi": 72,
      "hit": false,
      "t": 30545.424000000028,
      "d": 2722.724549999999,
      "v": 126
    },
    {
      "midi": 75,
      "hit": false,
      "t": 30545.424000000028,
      "d": 2722.724549999999,
      "v": 109
    },
    {
      "midi": 68,
      "hit": false,
      "t": 30727.241999999984,
      "d": 3318.178500000009,
      "v": 57
    },
    {
      "midi": 72,
      "hit": false,
      "t": 30909.059999999983,
      "d": 3104.5423500000034,
      "v": 60
    },
    {
      "midi": 75,
      "hit": false,
      "t": 31090.877999999982,
      "d": 2931.815250000007,
      "v": 70
    },
    {
      "midi": 67,
      "hit": false,
      "t": 31636.332000000028,
      "d": 813.6355499999991,
      "v": 108
    },
    {
      "midi": 65,
      "hit": false,
      "t": 32454.513000000028,
      "d": 268.18155000000115,
      "v": 117
    },
    {
      "midi": 63,
      "hit": false,
      "t": 32727.24000000003,
      "d": 1086.3625499999944,
      "v": 110
    },
    {
      "midi": 84,
      "hit": false,
      "t": 33272.694000000025,
      "d": 540.9085500000001,
      "v": 109
    },
    {
      "midi": 60,
      "hit": false,
      "t": 33272.694000000025,
      "d": 540.9085500000001,
      "v": 115
    },
    {
      "midi": 72,
      "hit": false,
      "t": 33272.694000000025,
      "d": 540.9085500000001,
      "v": 126
    },
    {
      "midi": 80,
      "hit": false,
      "t": 33818.14800000002,
      "d": 359.0905500000008,
      "v": 127
    },
    {
      "midi": 56,
      "hit": false,
      "t": 33818.14800000002,
      "d": 359.0905500000008,
      "v": 123
    },
    {
      "midi": 68,
      "hit": false,
      "t": 33818.14800000002,
      "d": 359.0905500000008,
      "v": 117
    },
    {
      "midi": 60,
      "hit": false,
      "t": 33818.14800000002,
      "d": 1086.362549999998,
      "v": 117
    },
    {
      "midi": 44,
      "hit": false,
      "t": 34181.78399999999,
      "d": 409.0904999999984,
      "v": 49
    },
    {
      "midi": 75,
      "hit": false,
      "t": 34181.78400000002,
      "d": 359.0905500000008,
      "v": 111
    },
    {
      "midi": 51,
      "hit": false,
      "t": 34181.78400000002,
      "d": 359.0905500000008,
      "v": 113
    },
    {
      "midi": 63,
      "hit": false,
      "t": 34181.78400000002,
      "d": 359.0905500000008,
      "v": 100
    },
    {
      "midi": 72,
      "hit": false,
      "t": 34363.60199999999,
      "d": 154.54529999999795,
      "v": 60
    },
    {
      "midi": 68,
      "hit": false,
      "t": 34363.60199999999,
      "d": 177.2725500000015,
      "v": 54
    },
    {
      "midi": 60,
      "hit": false,
      "t": 34363.60199999999,
      "d": 213.63614999999845,
      "v": 56
    },
    {
      "midi": 84,
      "hit": false,
      "t": 34545.42000000002,
      "d": 359.0905500000008,
      "v": 127
    },
    {
      "midi": 60,
      "hit": false,
      "t": 34545.42000000002,
      "d": 359.0905500000008,
      "v": 106
    },
    {
      "midi": 72,
      "hit": false,
      "t": 34545.42000000002,
      "d": 359.0905500000008,
      "v": 123
    },
    {
      "midi": 39,
      "hit": false,
      "t": 34909.05599999999,
      "d": 3440.9056500000006,
      "v": 57
    },
    {
      "midi": 55,
      "hit": false,
      "t": 34909.05599999999,
      "d": 3468.178350000002,
      "v": 49
    },
    {
      "midi": 82,
      "hit": false,
      "t": 34909.05600000002,
      "d": 2722.724549999999,
      "v": 114
    },
    {
      "midi": 58,
      "hit": false,
      "t": 34909.05600000002,
      "d": 2722.724549999999,
      "v": 126
    },
    {
      "midi": 67,
      "hit": false,
      "t": 34909.05600000002,
      "d": 2177.270550000001,
      "v": 120
    },
    {
      "midi": 70,
      "hit": false,
      "t": 34909.05600000002,
      "d": 2177.270550000001,
      "v": 117
    },
    {
      "midi": 63,
      "hit": false,
      "t": 34909.05600000002,
      "d": 2722.724549999999,
      "v": 115
    },
    {
      "midi": 63,
      "hit": false,
      "t": 35090.87399999999,
      "d": 3318.178500000009,
      "v": 57
    },
    {
      "midi": 67,
      "hit": false,
      "t": 35272.69199999999,
      "d": 3104.5423500000034,
      "v": 60
    },
    {
      "midi": 70,
      "hit": false,
      "t": 35454.50999999999,
      "d": 2931.815250000007,
      "v": 70
    },
    {
      "midi": 75,
      "hit": false,
      "t": 35999.96400000002,
      "d": 813.6355499999991,
      "v": 127
    },
    {
      "midi": 79,
      "hit": false,
      "t": 35999.96400000002,
      "d": 813.6355499999991,
      "v": 114
    },
    {
      "midi": 75,
      "hit": false,
      "t": 36818.14500000002,
      "d": 268.18155000000115,
      "v": 116
    },
    {
      "midi": 67,
      "hit": false,
      "t": 37090.87200000002,
      "d": 540.9085500000001,
      "v": 107
    },
    {
      "midi": 70,
      "hit": false,
      "t": 37090.87200000002,
      "d": 540.9085500000001,
      "v": 111
    },
    {
      "midi": 79,
      "hit": false,
      "t": 37636.326000000015,
      "d": 540.9085500000001,
      "v": 115
    },
    {
      "midi": 55,
      "hit": false,
      "t": 37636.326000000015,
      "d": 540.9085500000001,
      "v": 117
    },
    {
      "midi": 67,
      "hit": false,
      "t": 37636.326000000015,
      "d": 540.9085500000001,
      "v": 127
    },
    {
      "midi": 75,
      "hit": false,
      "t": 38181.78000000001,
      "d": 359.0905500000008,
      "v": 127
    },
    {
      "midi": 51,
      "hit": false,
      "t": 38181.78000000001,
      "d": 359.0905500000008,
      "v": 113
    },
    {
      "midi": 63,
      "hit": false,
      "t": 38181.78000000001,
      "d": 359.0905500000008,
      "v": 122
    },
    {
      "midi": 39,
      "hit": false,
      "t": 38545.416,
      "d": 409.0904999999984,
      "v": 49
    },
    {
      "midi": 70,
      "hit": false,
      "t": 38545.41600000001,
      "d": 359.0905500000008,
      "v": 115
    },
    {
      "midi": 46,
      "hit": false,
      "t": 38545.41600000001,
      "d": 359.0905500000008,
      "v": 117
    },
    {
      "midi": 58,
      "hit": false,
      "t": 38545.41600000001,
      "d": 359.0905500000008,
      "v": 113
    },
    {
      "midi": 67,
      "hit": false,
      "t": 38727.234,
      "d": 154.54529999999795,
      "v": 60
    },
    {
      "midi": 63,
      "hit": false,
      "t": 38727.234,
      "d": 177.2725500000015,
      "v": 54
    },
    {
      "midi": 55,
      "hit": false,
      "t": 38727.234,
      "d": 213.63614999999845,
      "v": 56
    },
    {
      "midi": 80,
      "hit": false,
      "t": 38909.05200000001,
      "d": 359.0905500000008,
      "v": 114
    },
    {
      "midi": 56,
      "hit": false,
      "t": 38909.05200000001,
      "d": 359.0905500000008,
      "v": 120
    },
    {
      "midi": 68,
      "hit": false,
      "t": 38909.05200000001,
      "d": 359.0905500000008,
      "v": 116
    },
    {
      "midi": 46,
      "hit": false,
      "t": 39272.687999999995,
      "d": 3440.9056500000006,
      "v": 57
    },
    {
      "midi": 56,
      "hit": false,
      "t": 39272.687999999995,
      "d": 3468.178350000002,
      "v": 49
    },
    {
      "midi": 77,
      "hit": false,
      "t": 39272.68800000001,
      "d": 2722.724549999999,
      "v": 127
    },
    {
      "midi": 53,
      "hit": false,
      "t": 39272.68800000001,
      "d": 2722.724549999999,
      "v": 105
    },
    {
      "midi": 56,
      "hit": false,
      "t": 39272.68800000001,
      "d": 2722.724549999999,
      "v": 104
    },
    {
      "midi": 62,
      "hit": false,
      "t": 39272.68800000001,
      "d": 2722.724549999999,
      "v": 111
    },
    {
      "midi": 65,
      "hit": false,
      "t": 39272.68800000001,
      "d": 2722.724549999999,
      "v": 117
    },
    {
      "midi": 62,
      "hit": false,
      "t": 39454.505999999994,
      "d": 3318.178500000009,
      "v": 57
    },
    {
      "midi": 65,
      "hit": false,
      "t": 39636.32399999999,
      "d": 3104.5423500000034,
      "v": 60
    },
    {
      "midi": 70,
      "hit": false,
      "t": 39818.14199999999,
      "d": 2931.815250000007,
      "v": 70
    },
    {
      "midi": 74,
      "hit": false,
      "t": 40363.59600000001,
      "d": 359.0905500000008,
      "v": 115
    },
    {
      "midi": 77,
      "hit": false,
      "t": 40363.59600000001,
      "d": 359.0905500000008,
      "v": 125
    },
    {
      "midi": 73,
      "hit": false,
      "t": 40727.23200000001,
      "d": 359.0905500000008,
      "v": 107
    },
    {
      "midi": 76,
      "hit": false,
      "t": 40727.23200000001,
      "d": 359.0905500000008,
      "v": 115
    },
    {
      "midi": 72,
      "hit": false,
      "t": 41090.86800000001,
      "d": 359.0905500000008,
      "v": 127
    },
    {
      "midi": 75,
      "hit": false,
      "t": 41090.86800000001,
      "d": 359.0905500000008,
      "v": 106
    },
    {
      "midi": 70,
      "hit": false,
      "t": 41454.50400000001,
      "d": 540.9085500000001,
      "v": 108
    },
    {
      "midi": 74,
      "hit": false,
      "t": 41454.50400000001,
      "d": 540.9085500000001,
      "v": 123
    },
    {
      "midi": 77,
      "hit": false,
      "t": 41999.958000000006,
      "d": 540.9085500000001,
      "v": 110
    },
    {
      "midi": 53,
      "hit": false,
      "t": 41999.958000000006,
      "d": 540.9085500000001,
      "v": 115
    },
    {
      "midi": 62,
      "hit": false,
      "t": 41999.958000000006,
      "d": 540.9085500000001,
      "v": 116
    },
    {
      "midi": 65,
      "hit": false,
      "t": 41999.958000000006,
      "d": 540.9085500000001,
      "v": 127
    },
    {
      "midi": 75,
      "hit": false,
      "t": 42545.412000000004,
      "d": 540.9085500000001,
      "v": 102
    },
    {
      "midi": 51,
      "hit": false,
      "t": 42545.412000000004,
      "d": 540.9085500000001,
      "v": 115
    },
    {
      "midi": 60,
      "hit": false,
      "t": 42545.412000000004,
      "d": 540.9085500000001,
      "v": 112
    },
    {
      "midi": 63,
      "hit": false,
      "t": 42545.412000000004,
      "d": 540.9085500000001,
      "v": 115
    },
    {
      "midi": 56,
      "hit": false,
      "t": 42545.412000000004,
      "d": 1086.362549999998,
      "v": 107
    },
    {
      "midi": 46,
      "hit": false,
      "t": 42909.048,
      "d": 409.0904999999984,
      "v": 49
    },
    {
      "midi": 74,
      "hit": false,
      "t": 43090.866,
      "d": 540.9085500000001,
      "v": 123
    },
    {
      "midi": 50,
      "hit": false,
      "t": 43090.866,
      "d": 540.9085500000001,
      "v": 101
    },
    {
      "midi": 58,
      "hit": false,
      "t": 43090.866,
      "d": 540.9085500000001,
      "v": 115
    },
    {
      "midi": 62,
      "hit": false,
      "t": 43090.866,
      "d": 540.9085500000001,
      "v": 107
    },
    {
      "midi": 65,
      "hit": false,
      "t": 43090.866,
      "d": 154.54529999999795,
      "v": 60
    },
    {
      "midi": 62,
      "hit": false,
      "t": 43090.866,
      "d": 177.2725500000015,
      "v": 54
    },
    {
      "midi": 56,
      "hit": false,
      "t": 43090.866,
      "d": 213.63614999999845,
      "v": 56
    },
    {
      "midi": 75,
      "hit": false,
      "t": 43636.32,
      "d": 2722.724549999999,
      "v": 115
    },
    {
      "midi": 51,
      "hit": false,
      "t": 43636.32,
      "d": 2722.724549999999,
      "v": 127
    },
    {
      "midi": 63,
      "hit": false,
      "t": 43636.32,
      "d": 2722.724549999999,
      "v": 109
    },
    {
      "midi": 58,
      "hit": false,
      "t": 43636.32,
      "d": 745.4537999999957,
      "v": 59
    },
    {
      "midi": 63,
      "hit": false,
      "t": 43636.32,
      "d": 745.4537999999957,
      "v": 59
    },
    {
      "midi": 55,
      "hit": false,
      "t": 44181.774,
      "d": 540.9085500000001,
      "v": 115
    },
    {
      "midi": 58,
      "hit": false,
      "t": 44181.774,
      "d": 540.9085500000001,
      "v": 115
    },
    {
      "midi": 55,
      "hit": false,
      "t": 44363.592,
      "d": 18.181799999998475,
      "v": 49
    },
    {
      "midi": 63,
      "hit": false,
      "t": 44545.409999999996,
      "d": 181.8179999999993,
      "v": 62
    },
    {
      "midi": 61,
      "hit": false,
      "t": 44727.227999999996,
      "d": 745.4537999999957,
      "v": 59
    },
    {
      "midi": 65,
      "hit": false,
      "t": 44727.227999999996,
      "d": 745.4537999999957,
      "v": 59
    },
    {
      "midi": 68,
      "hit": false,
      "t": 44727.227999999996,
      "d": 745.4537999999957,
      "v": 59
    },
    {
      "midi": 56,
      "hit": false,
      "t": 45272.682,
      "d": 540.9085500000001,
      "v": 127
    },
    {
      "midi": 59,
      "hit": false,
      "t": 45272.682,
      "d": 540.9085500000001,
      "v": 123
    },
    {
      "midi": 59,
      "hit": false,
      "t": 45454.49999999999,
      "d": 18.181799999998475,
      "v": 49
    },
    {
      "midi": 65,
      "hit": false,
      "t": 45636.31799999999,
      "d": 181.8179999999993,
      "v": 62
    },
    {
      "midi": 58,
      "hit": false,
      "t": 45818.13599999999,
      "d": 745.4537999999957,
      "v": 59
    },
    {
      "midi": 63,
      "hit": false,
      "t": 45818.13599999999,
      "d": 745.4537999999957,
      "v": 59
    },
    {
      "midi": 67,
      "hit": false,
      "t": 45818.13599999999,
      "d": 745.4537999999957,
      "v": 59
    },
    {
      "midi": 55,
      "hit": false,
      "t": 45818.136,
      "d": 540.9085500000001,
      "v": 125
    },
    {
      "midi": 58,
      "hit": false,
      "t": 45818.136,
      "d": 540.9085500000001,
      "v": 111
    },
    {
      "midi": 82,
      "hit": false,
      "t": 46363.59,
      "d": 540.9085500000001,
      "v": 125
    },
    {
      "midi": 58,
      "hit": false,
      "t": 46363.59,
      "d": 540.9085500000001,
      "v": 114
    },
    {
      "midi": 70,
      "hit": false,
      "t": 46363.59,
      "d": 540.9085500000001,
      "v": 118
    },
    {
      "midi": 55,
      "hit": false,
      "t": 46545.40799999999,
      "d": 363.6359999999986,
      "v": 49
    },
    {
      "midi": 63,
      "hit": false,
      "t": 46727.22599999999,
      "d": 181.8179999999993,
      "v": 62
    },
    {
      "midi": 63,
      "hit": false,
      "t": 46909.04399999999,
      "d": 745.4537999999957,
      "v": 59
    },
    {
      "midi": 65,
      "hit": false,
      "t": 46909.04399999999,
      "d": 745.4537999999957,
      "v": 59
    },
    {
      "midi": 68,
      "hit": false,
      "t": 46909.04399999999,
      "d": 745.4537999999957,
      "v": 59
    },
    {
      "midi": 77,
      "hit": false,
      "t": 46909.043999999994,
      "d": 359.0905500000008,
      "v": 104
    },
    {
      "midi": 53,
      "hit": false,
      "t": 46909.043999999994,
      "d": 359.0905500000008,
      "v": 110
    },
    {
      "midi": 65,
      "hit": false,
      "t": 46909.043999999994,
      "d": 359.0905500000008,
      "v": 114
    },
    {
      "midi": 63,
      "hit": false,
      "t": 46909.043999999994,
      "d": 1086.362549999998,
      "v": 121
    },
    {
      "midi": 79,
      "hit": false,
      "t": 47272.67999999999,
      "d": 359.0905500000008,
      "v": 117
    },
    {
      "midi": 55,
      "hit": false,
      "t": 47272.67999999999,
      "d": 359.0905500000008,
      "v": 114
    },
    {
      "midi": 67,
      "hit": false,
      "t": 47272.67999999999,
      "d": 359.0905500000008,
      "v": 117
    },
    {
      "midi": 60,
      "hit": false,
      "t": 47636.315999999984,
      "d": 18.181799999998475,
      "v": 49
    },
    {
      "midi": 80,
      "hit": false,
      "t": 47636.31599999999,
      "d": 359.0905500000008,
      "v": 100
    },
    {
      "midi": 56,
      "hit": false,
      "t": 47636.31599999999,
      "d": 359.0905500000008,
      "v": 118
    },
    {
      "midi": 68,
      "hit": false,
      "t": 47636.31599999999,
      "d": 359.0905500000008,
      "v": 119
    },
    {
      "midi": 65,
      "hit": false,
      "t": 47818.133999999984,
      "d": 181.8179999999993,
      "v": 62
    },
    {
      "midi": 58,
      "hit": false,
      "t": 47999.95199999998,
      "d": 745.4537999999957,
      "v": 59
    },
    {
      "midi": 63,
      "hit": false,
      "t": 47999.95199999998,
      "d": 745.4537999999957,
      "v": 59
    },
    {
      "midi": 67,
      "hit": false,
      "t": 47999.95199999998,
      "d": 745.4537999999957,
      "v": 59
    },
    {
      "midi": 82,
      "hit": false,
      "t": 47999.95199999999,
      "d": 813.6355499999991,
      "v": 115
    },
    {
      "midi": 58,
      "hit": false,
      "t": 47999.95199999999,
      "d": 813.6355499999991,
      "v": 101
    },
    {
      "midi": 70,
      "hit": false,
      "t": 47999.95199999999,
      "d": 813.6355499999991,
      "v": 116
    },
    {
      "midi": 63,
      "hit": false,
      "t": 48545.40599999999,
      "d": 540.9085500000001,
      "v": 115
    },
    {
      "midi": 67,
      "hit": false,
      "t": 48545.40599999999,
      "d": 540.9085500000001,
      "v": 117
    },
    {
      "midi": 55,
      "hit": false,
      "t": 48727.22399999998,
      "d": 363.6359999999986,
      "v": 49
    },
    {
      "midi": 82,
      "hit": false,
      "t": 48818.13299999999,
      "d": 268.18155000000115,
      "v": 107
    },
    {
      "midi": 58,
      "hit": false,
      "t": 48818.13299999999,
      "d": 268.18155000000115,
      "v": 127
    },
    {
      "midi": 70,
      "hit": false,
      "t": 48818.13299999999,
      "d": 268.18155000000115,
      "v": 118
    },
    {
      "midi": 63,
      "hit": false,
      "t": 48909.04199999998,
      "d": 181.8179999999993,
      "v": 62
    },
    {
      "midi": 58,
      "hit": false,
      "t": 49090.85999999998,
      "d": 745.4537999999957,
      "v": 59
    },
    {
      "midi": 60,
      "hit": false,
      "t": 49090.85999999998,
      "d": 745.4537999999957,
      "v": 59
    },
    {
      "midi": 63,
      "hit": false,
      "t": 49090.85999999998,
      "d": 745.4537999999957,
      "v": 59
    },
    {
      "midi": 67,
      "hit": false,
      "t": 49090.85999999998,
      "d": 745.4537999999957,
      "v": 59
    },
    {
      "midi": 82,
      "hit": false,
      "t": 49090.859999999986,
      "d": 1631.8165500000032,
      "v": 116
    },
    {
      "midi": 58,
      "hit": false,
      "t": 49090.859999999986,
      "d": 1631.8165500000032,
      "v": 113
    },
    {
      "midi": 70,
      "hit": false,
      "t": 49090.859999999986,
      "d": 1631.816549999996,
      "v": 119
    },
    {
      "midi": 63,
      "hit": false,
      "t": 49636.313999999984,
      "d": 540.9085500000001,
      "v": 115
    },
    {
      "midi": 67,
      "hit": false,
      "t": 49636.313999999984,
      "d": 540.9085500000001,
      "v": 114
    },
    {
      "midi": 55,
      "hit": false,
      "t": 49818.131999999976,
      "d": 363.6359999999986,
      "v": 49
    },
    {
      "midi": 60,
      "hit": false,
      "t": 49999.949999999975,
      "d": 181.8179999999993,
      "v": 62
    },
    {
      "midi": 58,
      "hit": false,
      "t": 50181.767999999975,
      "d": 745.4537999999957,
      "v": 59
    },
    {
      "midi": 62,
      "hit": false,
      "t": 50181.767999999975,
      "d": 745.4537999999957,
      "v": 59
    },
    {
      "midi": 65,
      "hit": false,
      "t": 50181.767999999975,
      "d": 745.4537999999957,
      "v": 59
    },
    {
      "midi": 67,
      "hit": false,
      "t": 50181.767999999975,
      "d": 745.4537999999957,
      "v": 59
    },
    {
      "midi": 63,
      "hit": false,
      "t": 50727.22199999998,
      "d": 540.9085500000001,
      "v": 127
    },
    {
      "midi": 67,
      "hit": false,
      "t": 50727.22199999998,
      "d": 540.9085500000001,
      "v": 118
    },
    {
      "midi": 70,
      "hit": false,
      "t": 50727.22199999998,
      "d": 540.9085500000001,
      "v": 114
    },
    {
      "midi": 82,
      "hit": false,
      "t": 50727.22199999999,
      "d": 540.9085500000001,
      "v": 114
    },
    {
      "midi": 58,
      "hit": false,
      "t": 50727.22199999999,
      "d": 540.9085500000001,
      "v": 107
    },
    {
      "midi": 55,
      "hit": false,
      "t": 50909.03999999997,
      "d": 363.6359999999986,
      "v": 49
    },
    {
      "midi": 62,
      "hit": false,
      "t": 51090.85799999997,
      "d": 181.8179999999993,
      "v": 62
    },
    {
      "midi": 63,
      "hit": false,
      "t": 51272.67599999997,
      "d": 745.4537999999957,
      "v": 59
    },
    {
      "midi": 65,
      "hit": false,
      "t": 51272.67599999997,
      "d": 745.4537999999957,
      "v": 59
    },
    {
      "midi": 68,
      "hit": false,
      "t": 51272.67599999997,
      "d": 745.4537999999957,
      "v": 59
    },
    {
      "midi": 65,
      "hit": false,
      "t": 51272.67599999998,
      "d": 359.0905500000008,
      "v": 114
    },
    {
      "midi": 63,
      "hit": false,
      "t": 51272.67599999998,
      "d": 1086.362549999998,
      "v": 115
    },
    {
      "midi": 77,
      "hit": false,
      "t": 51272.675999999985,
      "d": 359.0905500000008,
      "v": 122
    },
    {
      "midi": 53,
      "hit": false,
      "t": 51272.675999999985,
      "d": 359.0905500000008,
      "v": 127
    },
    {
      "midi": 67,
      "hit": false,
      "t": 51636.311999999976,
      "d": 359.0905500000008,
      "v": 119
    },
    {
      "midi": 79,
      "hit": false,
      "t": 51636.31199999998,
      "d": 359.0905500000008,
      "v": 127
    },
    {
      "midi": 55,
      "hit": false,
      "t": 51636.31199999998,
      "d": 359.0905500000008,
      "v": 116
    },
    {
      "midi": 60,
      "hit": false,
      "t": 51999.94799999997,
      "d": 18.181799999998475,
      "v": 49
    },
    {
      "midi": 68,
      "hit": false,
      "t": 51999.947999999975,
      "d": 359.0905500000008,
      "v": 120
    },
    {
      "midi": 80,
      "hit": false,
      "t": 51999.94799999998,
      "d": 359.0905500000008,
      "v": 119
    },
    {
      "midi": 56,
      "hit": false,
      "t": 51999.94799999998,
      "d": 359.0905500000008,
      "v": 117
    },
    {
      "midi": 65,
      "hit": false,
      "t": 52181.76599999997,
      "d": 181.8179999999993,
      "v": 62
    },
    {
      "midi": 58,
      "hit": false,
      "t": 52363.583999999966,
      "d": 745.4537999999957,
      "v": 59
    },
    {
      "midi": 63,
      "hit": false,
      "t": 52363.583999999966,
      "d": 745.4537999999957,
      "v": 59
    },
    {
      "midi": 70,
      "hit": false,
      "t": 52363.58399999997,
      "d": 2722.724549999999,
      "v": 118
    },
    {
      "midi": 82,
      "hit": false,
      "t": 52363.58399999998,
      "d": 2722.724549999999,
      "v": 116
    },
    {
      "midi": 58,
      "hit": false,
      "t": 52363.58399999998,
      "d": 2722.724549999999,
      "v": 103
    },
    {
      "midi": 63,
      "hit": false,
      "t": 52909.03799999997,
      "d": 540.9085500000001,
      "v": 126
    },
    {
      "midi": 67,
      "hit": false,
      "t": 52909.03799999997,
      "d": 540.9085500000001,
      "v": 127
    },
    {
      "midi": 55,
      "hit": false,
      "t": 53090.85599999996,
      "d": 18.181799999998475,
      "v": 49
    },
    {
      "midi": 63,
      "hit": false,
      "t": 53272.67399999996,
      "d": 181.8179999999993,
      "v": 62
    },
    {
      "midi": 58,
      "hit": false,
      "t": 53454.49199999996,
      "d": 745.4537999999957,
      "v": 59
    },
    {
      "midi": 60,
      "hit": false,
      "t": 53454.49199999996,
      "d": 745.4537999999957,
      "v": 59
    },
    {
      "midi": 63,
      "hit": false,
      "t": 53454.49199999996,
      "d": 745.4537999999957,
      "v": 59
    },
    {
      "midi": 67,
      "hit": false,
      "t": 53454.49199999996,
      "d": 745.4537999999957,
      "v": 59
    },
    {
      "midi": 63,
      "hit": false,
      "t": 53999.945999999974,
      "d": 540.9085500000001,
      "v": 115
    },
    {
      "midi": 67,
      "hit": false,
      "t": 53999.945999999974,
      "d": 540.9085500000001,
      "v": 115
    },
    {
      "midi": 55,
      "hit": false,
      "t": 54181.76399999996,
      "d": 363.6359999999986,
      "v": 49
    },
    {
      "midi": 60,
      "hit": false,
      "t": 54363.58199999996,
      "d": 181.8179999999993,
      "v": 62
    },
    {
      "midi": 58,
      "hit": false,
      "t": 54545.39999999996,
      "d": 745.4537999999957,
      "v": 59
    },
    {
      "midi": 61,
      "hit": false,
      "t": 54545.39999999996,
      "d": 745.4537999999957,
      "v": 59
    },
    {
      "midi": 63,
      "hit": false,
      "t": 54545.39999999996,
      "d": 745.4537999999957,
      "v": 59
    },
    {
      "midi": 67,
      "hit": false,
      "t": 54545.39999999996,
      "d": 745.4537999999957,
      "v": 59
    },
    {
      "midi": 61,
      "hit": false,
      "t": 55090.85399999997,
      "d": 540.9085500000001,
      "v": 116
    },
    {
      "midi": 67,
      "hit": false,
      "t": 55090.85399999997,
      "d": 540.9085500000001,
      "v": 112
    },
    {
      "midi": 82,
      "hit": false,
      "t": 55090.85399999998,
      "d": 540.9085500000001,
      "v": 101
    },
    {
      "midi": 58,
      "hit": false,
      "t": 55090.85399999998,
      "d": 540.9085500000001,
      "v": 114
    },
    {
      "midi": 55,
      "hit": false,
      "t": 55272.671999999955,
      "d": 363.6359999999986,
      "v": 49
    },
    {
      "midi": 61,
      "hit": false,
      "t": 55454.489999999954,
      "d": 181.8179999999993,
      "v": 62
    },
    {
      "midi": 62,
      "hit": false,
      "t": 55636.30799999995,
      "d": 745.4537999999957,
      "v": 59
    },
    {
      "midi": 66,
      "hit": false,
      "t": 55636.30799999995,
      "d": 745.4537999999957,
      "v": 59
    },
    {
      "midi": 69,
      "hit": false,
      "t": 55636.30799999995,
      "d": 745.4537999999957,
      "v": 59
    },
    {
      "midi": 69,
      "hit": false,
      "t": 55636.30799999997,
      "d": 359.0905500000008,
      "v": 110
    },
    {
      "midi": 60,
      "hit": false,
      "t": 55636.30799999997,
      "d": 1086.362549999998,
      "v": 115
    },
    {
      "midi": 66,
      "hit": false,
      "t": 55636.30799999997,
      "d": 1086.362549999998,
      "v": 111
    },
    {
      "midi": 81,
      "hit": false,
      "t": 55636.307999999975,
      "d": 359.0905500000008,
      "v": 122
    },
    {
      "midi": 57,
      "hit": false,
      "t": 55636.307999999975,
      "d": 359.0905500000008,
      "v": 120
    },
    {
      "midi": 70,
      "hit": false,
      "t": 55999.94399999997,
      "d": 359.0905500000008,
      "v": 104
    },
    {
      "midi": 82,
      "hit": false,
      "t": 55999.943999999974,
      "d": 359.0905500000008,
      "v": 115
    },
    {
      "midi": 58,
      "hit": false,
      "t": 55999.943999999974,
      "d": 359.0905500000008,
      "v": 101
    },
    {
      "midi": 60,
      "hit": false,
      "t": 56363.57999999995,
      "d": 18.181799999998475,
      "v": 49
    },
    {
      "midi": 72,
      "hit": false,
      "t": 56363.579999999965,
      "d": 359.0905500000008,
      "v": 114
    },
    {
      "midi": 84,
      "hit": false,
      "t": 56363.57999999997,
      "d": 359.0905500000008,
      "v": 107
    },
    {
      "midi": 60,
      "hit": false,
      "t": 56363.57999999997,
      "d": 359.0905500000008,
      "v": 113
    },
    {
      "midi": 66,
      "hit": false,
      "t": 56545.39799999995,
      "d": 181.8179999999993,
      "v": 62
    },
    {
      "midi": 55,
      "hit": false,
      "t": 56727.21599999995,
      "d": 745.4537999999957,
      "v": 59
    },
    {
      "midi": 62,
      "hit": false,
      "t": 56727.21599999995,
      "d": 745.4537999999957,
      "v": 59
    },
    {
      "midi": 74,
      "hit": false,
      "t": 56727.215999999964,
      "d": 813.6355499999991,
      "v": 113
    },
    {
      "midi": 86,
      "hit": false,
      "t": 56727.21599999997,
      "d": 813.6355499999991,
      "v": 117
    },
    {
      "midi": 62,
      "hit": false,
      "t": 56727.21599999997,
      "d": 813.6355499999991,
      "v": 115
    },
    {
      "midi": 62,
      "hit": false,
      "t": 57272.66999999996,
      "d": 540.9085500000001,
      "v": 109
    },
    {
      "midi": 67,
      "hit": false,
      "t": 57272.66999999996,
      "d": 540.9085500000001,
      "v": 115
    },
    {
      "midi": 70,
      "hit": false,
      "t": 57272.66999999996,
      "d": 540.9085500000001,
      "v": 113
    },
    {
      "midi": 58,
      "hit": false,
      "t": 57454.48799999995,
      "d": 18.181799999998475,
      "v": 49
    },
    {
      "midi": 74,
      "hit": false,
      "t": 57545.39699999996,
      "d": 268.18155000000115,
      "v": 116
    },
    {
      "midi": 86,
      "hit": false,
      "t": 57545.39699999997,
      "d": 268.18155000000115,
      "v": 111
    },
    {
      "midi": 62,
      "hit": false,
      "t": 57545.39699999997,
      "d": 268.18155000000115,
      "v": 111
    },
    {
      "midi": 67,
      "hit": false,
      "t": 57636.305999999946,
      "d": 181.8179999999993,
      "v": 62
    },
    {
      "midi": 62,
      "hit": false,
      "t": 57818.123999999945,
      "d": 745.4537999999957,
      "v": 59
    },
    {
      "midi": 66,
      "hit": false,
      "t": 57818.123999999945,
      "d": 745.4537999999957,
      "v": 59
    },
    {
      "midi": 69,
      "hit": false,
      "t": 57818.123999999945,
      "d": 745.4537999999957,
      "v": 59
    },
    {
      "midi": 74,
      "hit": false,
      "t": 57818.12399999996,
      "d": 1631.816549999996,
      "v": 124
    },
    {
      "midi": 86,
      "hit": false,
      "t": 57818.12399999997,
      "d": 1631.8165500000032,
      "v": 125
    },
    {
      "midi": 62,
      "hit": false,
      "t": 57818.12399999997,
      "d": 1631.8165500000032,
      "v": 115
    },
    {
      "midi": 62,
      "hit": false,
      "t": 58363.57799999996,
      "d": 540.9085500000001,
      "v": 118
    },
    {
      "midi": 66,
      "hit": false,
      "t": 58363.57799999996,
      "d": 540.9085500000001,
      "v": 115
    },
    {
      "midi": 72,
      "hit": false,
      "t": 58363.57799999996,
      "d": 540.9085500000001,
      "v": 125
    },
    {
      "midi": 60,
      "hit": false,
      "t": 58545.39599999994,
      "d": 18.181799999998475,
      "v": 49
    },
    {
      "midi": 66,
      "hit": false,
      "t": 58727.21399999994,
      "d": 181.8179999999993,
      "v": 62
    },
    {
      "midi": 55,
      "hit": false,
      "t": 58909.03199999994,
      "d": 745.4537999999957,
      "v": 59
    },
    {
      "midi": 62,
      "hit": false,
      "t": 58909.03199999994,
      "d": 745.4537999999957,
      "v": 59
    },
    {
      "midi": 62,
      "hit": false,
      "t": 59454.48599999995,
      "d": 540.9085500000001,
      "v": 115
    },
    {
      "midi": 67,
      "hit": false,
      "t": 59454.48599999995,
      "d": 540.9085500000001,
      "v": 103
    },
    {
      "midi": 70,
      "hit": false,
      "t": 59454.48599999995,
      "d": 540.9085500000001,
      "v": 104
    },
    {
      "midi": 74,
      "hit": false,
      "t": 59454.48599999995,
      "d": 540.9085500000001,
      "v": 126
    },
    {
      "midi": 86,
      "hit": false,
      "t": 59454.48599999997,
      "d": 540.9085500000001,
      "v": 111
    },
    {
      "midi": 62,
      "hit": false,
      "t": 59454.48599999997,
      "d": 540.9085500000001,
      "v": 126
    },
    {
      "midi": 58,
      "hit": false,
      "t": 59636.30399999994,
      "d": 18.181799999998475,
      "v": 49
    },
    {
      "midi": 67,
      "hit": false,
      "t": 59818.12199999994,
      "d": 181.8179999999993,
      "v": 62
    },
    {
      "midi": 62,
      "hit": false,
      "t": 59999.93999999994,
      "d": 745.4537999999957,
      "v": 59
    },
    {
      "midi": 66,
      "hit": false,
      "t": 59999.93999999994,
      "d": 745.4537999999957,
      "v": 59
    },
    {
      "midi": 69,
      "hit": false,
      "t": 59999.93999999994,
      "d": 745.4537999999957,
      "v": 59
    },
    {
      "midi": 69,
      "hit": false,
      "t": 59999.93999999995,
      "d": 359.0905500000008,
      "v": 113
    },
    {
      "midi": 60,
      "hit": false,
      "t": 59999.93999999995,
      "d": 1086.362549999998,
      "v": 104
    },
    {
      "midi": 66,
      "hit": false,
      "t": 59999.93999999995,
      "d": 1086.362549999998,
      "v": 115
    },
    {
      "midi": 81,
      "hit": false,
      "t": 59999.939999999966,
      "d": 359.0905500000008,
      "v": 119
    },
    {
      "midi": 57,
      "hit": false,
      "t": 59999.939999999966,
      "d": 359.0905500000008,
      "v": 120
    },
    {
      "midi": 71,
      "hit": false,
      "t": 60363.57599999995,
      "d": 359.0905500000008,
      "v": 101
    },
    {
      "midi": 83,
      "hit": false,
      "t": 60363.575999999965,
      "d": 359.0905500000008,
      "v": 115
    },
    {
      "midi": 59,
      "hit": false,
      "t": 60363.575999999965,
      "d": 359.0905500000008,
      "v": 101
    },
    {
      "midi": 60,
      "hit": false,
      "t": 60727.211999999934,
      "d": 18.181799999998475,
      "v": 49
    },
    {
      "midi": 72,
      "hit": false,
      "t": 60727.21199999995,
      "d": 359.0905500000008,
      "v": 127
    },
    {
      "midi": 84,
      "hit": false,
      "t": 60727.21199999996,
      "d": 359.0905500000008,
      "v": 117
    },
    {
      "midi": 60,
      "hit": false,
      "t": 60727.21199999996,
      "d": 359.0905500000008,
      "v": 115
    },
    {
      "midi": 66,
      "hit": false,
      "t": 60909.02999999993,
      "d": 181.8179999999993,
      "v": 62
    },
    {
      "midi": 71,
      "hit": false,
      "t": 61090.84799999995,
      "d": 540.9085500000001,
      "v": 119
    },
    {
      "midi": 74,
      "hit": false,
      "t": 61090.84799999995,
      "d": 2722.7245499999917,
      "v": 109
    },
    {
      "midi": 86,
      "hit": false,
      "t": 61090.84799999996,
      "d": 2722.724549999999,
      "v": 113
    },
    {
      "midi": 62,
      "hit": false,
      "t": 61090.84799999996,
      "d": 2722.724549999999,
      "v": 127
    },
    {
      "midi": 43,
      "hit": false,
      "t": 61272.66599999993,
      "d": 1799.9982000000018,
      "v": 24
    },
    {
      "midi": 62,
      "hit": false,
      "t": 61454.48399999993,
      "d": 1513.6348500000022,
      "v": 64
    },
    {
      "midi": 59,
      "hit": false,
      "t": 61454.48399999993,
      "d": 1659.0892500000045,
      "v": 74
    },
    {
      "midi": 67,
      "hit": false,
      "t": 61636.30199999993,
      "d": 1331.816850000003,
      "v": 70
    },
    {
      "midi": 71,
      "hit": false,
      "t": 61636.30199999993,
      "d": 1436.3622000000032,
      "v": 68
    },
    {
      "midi": 62,
      "hit": false,
      "t": 61636.301999999945,
      "d": 540.9085500000001,
      "v": 127
    },
    {
      "midi": 67,
      "hit": false,
      "t": 62181.75599999994,
      "d": 540.9085500000001,
      "v": 119
    },
    {
      "midi": 66,
      "hit": false,
      "t": 62727.20999999994,
      "d": 540.9085500000001,
      "v": 106
    },
    {
      "midi": 62,
      "hit": false,
      "t": 63272.66399999994,
      "d": 540.9085500000001,
      "v": 101
    },
    {
      "midi": 65,
      "hit": false,
      "t": 63272.66399999994,
      "d": 540.9085500000001,
      "v": 103
    },
    {
      "midi": 70,
      "hit": false,
      "t": 63272.66399999994,
      "d": 540.9085500000001,
      "v": 114
    },
    {
      "midi": 62,
      "hit": false,
      "t": 63272.66399999994,
      "d": 545.4539999999979,
      "v": 59
    },
    {
      "midi": 65,
      "hit": false,
      "t": 63272.66399999994,
      "d": 545.4539999999979,
      "v": 59
    },
    {
      "midi": 68,
      "hit": false,
      "t": 63272.66399999994,
      "d": 545.4539999999979,
      "v": 59
    },
    {
      "midi": 70,
      "hit": false,
      "t": 63272.66399999994,
      "d": 545.4539999999979,
      "v": 59
    },
    {
      "midi": 63,
      "hit": false,
      "t": 63818.11799999994,
      "d": 540.9085500000001,
      "v": 115
    },
    {
      "midi": 58,
      "hit": false,
      "t": 63818.11799999994,
      "d": 545.4539999999979,
      "v": 59
    },
    {
      "midi": 61,
      "hit": false,
      "t": 63818.11799999994,
      "d": 545.4539999999979,
      "v": 59
    },
    {
      "midi": 63,
      "hit": false,
      "t": 63818.11799999994,
      "d": 545.4539999999979,
      "v": 59
    },
    {
      "midi": 67,
      "hit": false,
      "t": 63818.11799999994,
      "d": 545.4539999999979,
      "v": 59
    },
    {
      "midi": 75,
      "hit": false,
      "t": 63818.11799999996,
      "d": 540.9085500000001,
      "v": 115
    },
    {
      "midi": 51,
      "hit": false,
      "t": 63818.11799999996,
      "d": 540.9085500000001,
      "v": 115
    },
    {
      "midi": 67,
      "hit": false,
      "t": 64363.571999999935,
      "d": 540.9085500000001,
      "v": 119
    },
    {
      "midi": 61,
      "hit": false,
      "t": 64363.571999999935,
      "d": 1086.362549999998,
      "v": 115
    },
    {
      "midi": 58,
      "hit": false,
      "t": 64363.571999999935,
      "d": 745.4537999999957,
      "v": 59
    },
    {
      "midi": 61,
      "hit": false,
      "t": 64363.571999999935,
      "d": 745.4537999999957,
      "v": 59
    },
    {
      "midi": 63,
      "hit": false,
      "t": 64363.571999999935,
      "d": 745.4537999999957,
      "v": 59
    },
    {
      "midi": 67,
      "hit": false,
      "t": 64363.571999999935,
      "d": 745.4537999999957,
      "v": 59
    },
    {
      "midi": 79,
      "hit": false,
      "t": 64363.57199999996,
      "d": 540.9085500000001,
      "v": 103
    },
    {
      "midi": 55,
      "hit": false,
      "t": 64363.57199999996,
      "d": 540.9085500000001,
      "v": 115
    },
    {
      "midi": 67,
      "hit": false,
      "t": 64909.02599999993,
      "d": 540.9085500000001,
      "v": 118
    },
    {
      "midi": 70,
      "hit": false,
      "t": 64909.02599999993,
      "d": 540.9085500000001,
      "v": 115
    },
    {
      "midi": 82,
      "hit": false,
      "t": 64909.025999999954,
      "d": 540.9085500000001,
      "v": 111
    },
    {
      "midi": 58,
      "hit": false,
      "t": 64909.025999999954,
      "d": 540.9085500000001,
      "v": 105
    },
    {
      "midi": 55,
      "hit": false,
      "t": 65090.84399999993,
      "d": 363.6359999999986,
      "v": 49
    },
    {
      "midi": 61,
      "hit": false,
      "t": 65272.66199999993,
      "d": 181.8179999999993,
      "v": 62
    },
    {
      "midi": 68,
      "hit": false,
      "t": 65454.47999999993,
      "d": 2722.7245500000063,
      "v": 114
    },
    {
      "midi": 72,
      "hit": false,
      "t": 65454.47999999993,
      "d": 2722.7245500000063,
      "v": 117
    },
    {
      "midi": 75,
      "hit": false,
      "t": 65454.47999999993,
      "d": 2722.7245500000063,
      "v": 118
    },
    {
      "midi": 80,
      "hit": false,
      "t": 65454.47999999993,
      "d": 4363.631999999976,
      "v": 61
    },
    {
      "midi": 87,
      "hit": false,
      "t": 65454.47999999995,
      "d": 2722.724549999999,
      "v": 115
    },
    {
      "midi": 63,
      "hit": false,
      "t": 65454.47999999995,
      "d": 2722.724549999999,
      "v": 103
    },
    {
      "midi": 72,
      "hit": false,
      "t": 65636.29799999994,
      "d": 1645.4528999999893,
      "v": 62
    },
    {
      "midi": 63,
      "hit": false,
      "t": 65999.93399999994,
      "d": 1272.725999999995,
      "v": 51
    },
    {
      "midi": 67,
      "hit": false,
      "t": 66545.38799999993,
      "d": 813.6355500000063,
      "v": 120
    },
    {
      "midi": 60,
      "hit": false,
      "t": 67272.65999999993,
      "d": 2545.4519999999757,
      "v": 70
    },
    {
      "midi": 65,
      "hit": false,
      "t": 67363.56899999994,
      "d": 268.1815499999939,
      "v": 127
    },
    {
      "midi": 63,
      "hit": false,
      "t": 67454.47799999993,
      "d": 1536.3620999999985,
      "v": 66
    },
    {
      "midi": 72,
      "hit": false,
      "t": 67636.29599999993,
      "d": 1699.998299999992,
      "v": 51
    },
    {
      "midi": 63,
      "hit": false,
      "t": 67636.29599999994,
      "d": 1086.3625499999907,
      "v": 114
    },
    {
      "midi": 72,
      "hit": false,
      "t": 68181.74999999994,
      "d": 540.9085499999928,
      "v": 113
    },
    {
      "midi": 84,
      "hit": false,
      "t": 68181.74999999996,
      "d": 540.9085499999928,
      "v": 120
    },
    {
      "midi": 60,
      "hit": false,
      "t": 68181.74999999996,
      "d": 540.9085499999928,
      "v": 115
    },
    {
      "midi": 68,
      "hit": false,
      "t": 68727.20399999994,
      "d": 359.0905499999935,
      "v": 115
    },
    {
      "midi": 60,
      "hit": false,
      "t": 68727.20399999994,
      "d": 1086.3625499999907,
      "v": 104
    },
    {
      "midi": 80,
      "hit": false,
      "t": 68727.20399999995,
      "d": 359.0905499999935,
      "v": 122
    },
    {
      "midi": 56,
      "hit": false,
      "t": 68727.20399999995,
      "d": 359.0905499999935,
      "v": 115
    },
    {
      "midi": 63,
      "hit": false,
      "t": 69090.83999999994,
      "d": 359.0905499999935,
      "v": 114
    },
    {
      "midi": 75,
      "hit": false,
      "t": 69090.83999999995,
      "d": 359.0905499999935,
      "v": 114
    },
    {
      "midi": 51,
      "hit": false,
      "t": 69090.83999999995,
      "d": 359.0905499999935,
      "v": 115
    },
    {
      "midi": 63,
      "hit": false,
      "t": 69272.65799999992,
      "d": 536.3630999999878,
      "v": 68
    },
    {
      "midi": 72,
      "hit": false,
      "t": 69454.47599999992,
      "d": 18.18180000000575,
      "v": 64
    },
    {
      "midi": 72,
      "hit": false,
      "t": 69454.47599999994,
      "d": 359.0905499999935,
      "v": 112
    },
    {
      "midi": 84,
      "hit": false,
      "t": 69454.47599999995,
      "d": 359.0905499999935,
      "v": 111
    },
    {
      "midi": 60,
      "hit": false,
      "t": 69454.47599999995,
      "d": 359.0905499999935,
      "v": 108
    },
    {
      "midi": 72,
      "hit": false,
      "t": 69636.29399999992,
      "d": 149.99984999999288,
      "v": 60
    },
    {
      "midi": 75,
      "hit": false,
      "t": 69818.1119999999,
      "d": 4363.631999999969,
      "v": 61
    },
    {
      "midi": 67,
      "hit": false,
      "t": 69818.11199999994,
      "d": 2177.270550000001,
      "v": 116
    },
    {
      "midi": 70,
      "hit": false,
      "t": 69818.11199999994,
      "d": 2177.270550000001,
      "v": 106
    },
    {
      "midi": 63,
      "hit": false,
      "t": 69818.11199999994,
      "d": 2722.724549999999,
      "v": 124
    },
    {
      "midi": 82,
      "hit": false,
      "t": 69818.11199999995,
      "d": 2722.724549999999,
      "v": 108
    },
    {
      "midi": 58,
      "hit": false,
      "t": 69818.11199999995,
      "d": 2722.724549999999,
      "v": 112
    },
    {
      "midi": 67,
      "hit": false,
      "t": 69999.9299999999,
      "d": 1645.4528999999893,
      "v": 62
    },
    {
      "midi": 58,
      "hit": false,
      "t": 70363.5659999999,
      "d": 1272.725999999995,
      "v": 51
    },
    {
      "midi": 75,
      "hit": false,
      "t": 70909.01999999993,
      "d": 813.6355500000063,
      "v": 110
    },
    {
      "midi": 79,
      "hit": false,
      "t": 70909.01999999993,
      "d": 813.6355500000063,
      "v": 113
    },
    {
      "midi": 55,
      "hit": false,
      "t": 71636.2919999999,
      "d": 2545.4519999999757,
      "v": 70
    },
    {
      "midi": 75,
      "hit": false,
      "t": 71727.20099999994,
      "d": 268.1815499999939,
      "v": 115
    },
    {
      "midi": 58,
      "hit": false,
      "t": 71818.1099999999,
      "d": 1536.3620999999985,
      "v": 66
    },
    {
      "midi": 67,
      "hit": false,
      "t": 71999.9279999999,
      "d": 1699.998299999992,
      "v": 51
    },
    {
      "midi": 67,
      "hit": false,
      "t": 71999.92799999994,
      "d": 540.9085499999928,
      "v": 124
    },
    {
      "midi": 70,
      "hit": false,
      "t": 71999.92799999994,
      "d": 540.9085499999928,
      "v": 110
    },
    {
      "midi": 67,
      "hit": false,
      "t": 72545.38199999994,
      "d": 540.9085499999928,
      "v": 115
    },
    {
      "midi": 79,
      "hit": false,
      "t": 72545.38199999995,
      "d": 540.9085499999928,
      "v": 101
    },
    {
      "midi": 55,
      "hit": false,
      "t": 72545.38199999995,
      "d": 540.9085499999928,
      "v": 116
    },
    {
      "midi": 63,
      "hit": false,
      "t": 73090.83599999994,
      "d": 359.0905499999935,
      "v": 113
    },
    {
      "midi": 75,
      "hit": false,
      "t": 73090.83599999995,
      "d": 359.0905499999935,
      "v": 115
    },
    {
      "midi": 51,
      "hit": false,
      "t": 73090.83599999995,
      "d": 359.0905499999935,
      "v": 123
    },
    {
      "midi": 58,
      "hit": false,
      "t": 73454.47199999994,
      "d": 359.0905499999935,
      "v": 124
    },
    {
      "midi": 70,
      "hit": false,
      "t": 73454.47199999995,
      "d": 359.0905499999935,
      "v": 114
    },
    {
      "midi": 46,
      "hit": false,
      "t": 73454.47199999995,
      "d": 359.0905499999935,
      "v": 109
    },
    {
      "midi": 58,
      "hit": false,
      "t": 73636.28999999989,
      "d": 536.3630999999878,
      "v": 68
    },
    {
      "midi": 67,
      "hit": false,
      "t": 73818.10799999989,
      "d": 18.18180000000575,
      "v": 64
    },
    {
      "midi": 68,
      "hit": false,
      "t": 73818.10799999993,
      "d": 359.0905499999935,
      "v": 116
    },
    {
      "midi": 80,
      "hit": false,
      "t": 73818.10799999995,
      "d": 359.0905499999935,
      "v": 115
    },
    {
      "midi": 56,
      "hit": false,
      "t": 73818.10799999995,
      "d": 359.0905499999935,
      "v": 117
    },
    {
      "midi": 67,
      "hit": false,
      "t": 73999.92599999989,
      "d": 149.99984999999288,
      "v": 60
    },
    {
      "midi": 62,
      "hit": false,
      "t": 74181.74399999988,
      "d": 3090.9060000000027,
      "v": 70
    },
    {
      "midi": 65,
      "hit": false,
      "t": 74181.74399999988,
      "d": 3090.9060000000027,
      "v": 70
    },
    {
      "midi": 68,
      "hit": false,
      "t": 74181.74399999988,
      "d": 3090.9060000000027,
      "v": 70
    },
    {
      "midi": 70,
      "hit": false,
      "t": 74181.74399999988,
      "d": 3090.9060000000027,
      "v": 70
    },
    {
      "midi": 46,
      "hit": false,
      "t": 74181.74399999988,
      "d": 4277.268450000003,
      "v": 68
    },
    {
      "midi": 56,
      "hit": false,
      "t": 74181.74399999993,
      "d": 2722.7245499999844,
      "v": 127
    },
    {
      "midi": 62,
      "hit": false,
      "t": 74181.74399999993,
      "d": 2722.7245499999844,
      "v": 119
    },
    {
      "midi": 65,
      "hit": false,
      "t": 74181.74399999993,
      "d": 2722.7245499999844,
      "v": 118
    },
    {
      "midi": 77,
      "hit": false,
      "t": 74181.74399999995,
      "d": 2722.724549999999,
      "v": 115
    },
    {
      "midi": 53,
      "hit": false,
      "t": 74181.74399999995,
      "d": 2722.724549999999,
      "v": 115
    },
    {
      "midi": 74,
      "hit": false,
      "t": 75272.65199999993,
      "d": 359.0905499999935,
      "v": 115
    },
    {
      "midi": 77,
      "hit": false,
      "t": 75272.65199999993,
      "d": 359.0905499999935,
      "v": 117
    },
    {
      "midi": 73,
      "hit": false,
      "t": 75636.28799999993,
      "d": 359.0905499999935,
      "v": 119
    },
    {
      "midi": 76,
      "hit": false,
      "t": 75636.28799999993,
      "d": 359.0905499999935,
      "v": 115
    },
    {
      "midi": 72,
      "hit": false,
      "t": 75999.92399999993,
      "d": 359.0905499999935,
      "v": 114
    },
    {
      "midi": 75,
      "hit": false,
      "t": 75999.92399999993,
      "d": 359.0905499999935,
      "v": 115
    },
    {
      "midi": 70,
      "hit": false,
      "t": 76363.55999999992,
      "d": 540.9085499999928,
      "v": 123
    },
    {
      "midi": 74,
      "hit": false,
      "t": 76363.55999999992,
      "d": 540.9085499999928,
      "v": 114
    },
    {
      "midi": 62,
      "hit": false,
      "t": 76909.01399999992,
      "d": 540.9085499999928,
      "v": 117
    },
    {
      "midi": 65,
      "hit": false,
      "t": 76909.01399999992,
      "d": 540.9085499999928,
      "v": 114
    },
    {
      "midi": 77,
      "hit": false,
      "t": 76909.01399999995,
      "d": 540.9085499999928,
      "v": 109
    },
    {
      "midi": 53,
      "hit": false,
      "t": 76909.01399999995,
      "d": 540.9085499999928,
      "v": 115
    },
    {
      "midi": 62,
      "hit": false,
      "t": 77454.46799999992,
      "d": 359.0905499999935,
      "v": 114
    },
    {
      "midi": 65,
      "hit": false,
      "t": 77454.46799999992,
      "d": 359.0905499999935,
      "v": 119
    },
    {
      "midi": 77,
      "hit": false,
      "t": 77454.46799999995,
      "d": 359.0905499999935,
      "v": 110
    },
    {
      "midi": 53,
      "hit": false,
      "t": 77454.46799999995,
      "d": 359.0905499999935,
      "v": 115
    },
    {
      "midi": 56,
      "hit": false,
      "t": 77818.10399999988,
      "d": 727.2719999999972,
      "v": 57
    },
    {
      "midi": 60,
      "hit": false,
      "t": 77818.10399999992,
      "d": 359.0905499999935,
      "v": 123
    },
    {
      "midi": 63,
      "hit": false,
      "t": 77818.10399999992,
      "d": 359.0905499999935,
      "v": 123
    },
    {
      "midi": 75,
      "hit": false,
      "t": 77818.10399999995,
      "d": 359.0905499999935,
      "v": 127
    },
    {
      "midi": 51,
      "hit": false,
      "t": 77818.10399999995,
      "d": 359.0905499999935,
      "v": 115
    },
    {
      "midi": 62,
      "hit": false,
      "t": 77999.92199999987,
      "d": 545.4539999999979,
      "v": 52
    },
    {
      "midi": 58,
      "hit": false,
      "t": 78181.73999999992,
      "d": 359.0905499999935,
      "v": 109
    },
    {
      "midi": 62,
      "hit": false,
      "t": 78181.73999999992,
      "d": 359.0905499999935,
      "v": 105
    },
    {
      "midi": 74,
      "hit": false,
      "t": 78181.73999999995,
      "d": 359.0905499999935,
      "v": 115
    },
    {
      "midi": 50,
      "hit": false,
      "t": 78181.73999999995,
      "d": 359.0905499999935,
      "v": 118
    },
    {
      "midi": 65,
      "hit": false,
      "t": 78363.55799999987,
      "d": 181.8179999999993,
      "v": 58
    },
    {
      "midi": 58,
      "hit": false,
      "t": 78545.37599999987,
      "d": 745.453800000003,
      "v": 59
    },
    {
      "midi": 63,
      "hit": false,
      "t": 78545.37599999987,
      "d": 745.453800000003,
      "v": 59
    },
    {
      "midi": 63,
      "hit": false,
      "t": 78545.37599999992,
      "d": 2722.7245499999844,
      "v": 114
    },
    {
      "midi": 75,
      "hit": false,
      "t": 78545.37599999995,
      "d": 2177.270550000001,
      "v": 127
    },
    {
      "midi": 51,
      "hit": false,
      "t": 78545.37599999995,
      "d": 2177.270550000001,
      "v": 105
    },
    {
      "midi": 55,
      "hit": false,
      "t": 79090.82999999991,
      "d": 540.9085499999928,
      "v": 104
    },
    {
      "midi": 58,
      "hit": false,
      "t": 79090.82999999991,
      "d": 540.9085499999928,
      "v": 114
    },
    {
      "midi": 55,
      "hit": false,
      "t": 79272.64799999987,
      "d": 18.18180000000575,
      "v": 49
    },
    {
      "midi": 63,
      "hit": false,
      "t": 79454.46599999987,
      "d": 181.8179999999993,
      "v": 62
    },
    {
      "midi": 61,
      "hit": false,
      "t": 79636.28399999987,
      "d": 745.453800000003,
      "v": 59
    },
    {
      "midi": 65,
      "hit": false,
      "t": 79636.28399999987,
      "d": 745.453800000003,
      "v": 59
    },
    {
      "midi": 68,
      "hit": false,
      "t": 79636.28399999987,
      "d": 745.453800000003,
      "v": 59
    },
    {
      "midi": 61,
      "hit": false,
      "t": 79636.28399999991,
      "d": 540.9085499999928,
      "v": 115
    },
    {
      "midi": 53,
      "hit": false,
      "t": 79636.28399999991,
      "d": 1086.3625499999907,
      "v": 114
    },
    {
      "midi": 59,
      "hit": false,
      "t": 80181.73799999991,
      "d": 540.9085499999928,
      "v": 127
    },
    {
      "midi": 59,
      "hit": false,
      "t": 80363.55599999987,
      "d": 18.18180000000575,
      "v": 49
    },
    {
      "midi": 65,
      "hit": false,
      "t": 80545.37399999987,
      "d": 181.8179999999993,
      "v": 62
    },
    {
      "midi": 55,
      "hit": false,
      "t": 80727.19199999986,
      "d": 545.4539999999979,
      "v": 59
    },
    {
      "midi": 58,
      "hit": false,
      "t": 80727.19199999986,
      "d": 545.4539999999979,
      "v": 59
    },
    {
      "midi": 63,
      "hit": false,
      "t": 80727.19199999986,
      "d": 545.4539999999979,
      "v": 59
    },
    {
      "midi": 55,
      "hit": false,
      "t": 80727.19199999991,
      "d": 540.9085499999928,
      "v": 114
    },
    {
      "midi": 58,
      "hit": false,
      "t": 80727.19199999991,
      "d": 540.9085499999928,
      "v": 115
    },
    {
      "midi": 58,
      "hit": false,
      "t": 81272.64599999986,
      "d": 545.4539999999979,
      "v": 59
    },
    {
      "midi": 61,
      "hit": false,
      "t": 81272.64599999986,
      "d": 545.4539999999979,
      "v": 59
    },
    {
      "midi": 63,
      "hit": false,
      "t": 81272.64599999986,
      "d": 545.4539999999979,
      "v": 59
    },
    {
      "midi": 67,
      "hit": false,
      "t": 81272.64599999986,
      "d": 545.4539999999979,
      "v": 59
    },
    {
      "midi": 63,
      "hit": false,
      "t": 81272.6459999999,
      "d": 540.9085499999928,
      "v": 117
    },
    {
      "midi": 75,
      "hit": false,
      "t": 81272.64599999995,
      "d": 540.9085499999928,
      "v": 106
    },
    {
      "midi": 51,
      "hit": false,
      "t": 81272.64599999995,
      "d": 540.9085499999928,
      "v": 118
    },
    {
      "midi": 58,
      "hit": false,
      "t": 81818.09999999986,
      "d": 745.453800000003,
      "v": 59
    },
    {
      "midi": 61,
      "hit": false,
      "t": 81818.09999999986,
      "d": 745.453800000003,
      "v": 59
    },
    {
      "midi": 63,
      "hit": false,
      "t": 81818.09999999986,
      "d": 745.453800000003,
      "v": 59
    },
    {
      "midi": 67,
      "hit": false,
      "t": 81818.09999999986,
      "d": 745.453800000003,
      "v": 59
    },
    {
      "midi": 67,
      "hit": false,
      "t": 81818.0999999999,
      "d": 540.9085499999928,
      "v": 115
    },
    {
      "midi": 61,
      "hit": false,
      "t": 81818.0999999999,
      "d": 1086.3625499999907,
      "v": 110
    },
    {
      "midi": 79,
      "hit": false,
      "t": 81818.09999999995,
      "d": 540.9085499999928,
      "v": 104
    },
    {
      "midi": 55,
      "hit": false,
      "t": 81818.09999999995,
      "d": 540.9085499999928,
      "v": 115
    },
    {
      "midi": 70,
      "hit": false,
      "t": 82363.5539999999,
      "d": 540.9085499999928,
      "v": 126
    },
    {
      "midi": 82,
      "hit": false,
      "t": 82363.55399999995,
      "d": 540.9085499999928,
      "v": 126
    },
    {
      "midi": 58,
      "hit": false,
      "t": 82363.55399999995,
      "d": 540.9085499999928,
      "v": 107
    },
    {
      "midi": 55,
      "hit": false,
      "t": 82545.37199999986,
      "d": 363.6359999999986,
      "v": 49
    },
    {
      "midi": 61,
      "hit": false,
      "t": 82727.18999999986,
      "d": 181.8179999999993,
      "v": 62
    },
    {
      "midi": 44,
      "hit": false,
      "t": 82909.00799999986,
      "d": 3440.9056500000006,
      "v": 57
    },
    {
      "midi": 60,
      "hit": false,
      "t": 82909.00799999986,
      "d": 3468.178350000002,
      "v": 49
    },
    {
      "midi": 68,
      "hit": false,
      "t": 82909.0079999999,
      "d": 2722.724549999999,
      "v": 123
    },
    {
      "midi": 72,
      "hit": false,
      "t": 82909.0079999999,
      "d": 2722.724549999999,
      "v": 114
    },
    {
      "midi": 75,
      "hit": false,
      "t": 82909.0079999999,
      "d": 2722.724549999999,
      "v": 111
    },
    {
      "midi": 87,
      "hit": false,
      "t": 82909.00799999994,
      "d": 2722.724549999999,
      "v": 107
    },
    {
      "midi": 63,
      "hit": false,
      "t": 82909.00799999994,
      "d": 2722.724549999999,
      "v": 116
    },
    {
      "midi": 68,
      "hit": false,
      "t": 83090.82599999986,
      "d": 3318.1784999999945,
      "v": 57
    },
    {
      "midi": 72,
      "hit": false,
      "t": 83272.64399999985,
      "d": 3104.5423500000034,
      "v": 60
    },
    {
      "midi": 75,
      "hit": false,
      "t": 83454.46199999985,
      "d": 2931.8152499999997,
      "v": 70
    },
    {
      "midi": 67,
      "hit": false,
      "t": 83999.9159999999,
      "d": 813.6355500000063,
      "v": 116
    },
    {
      "midi": 65,
      "hit": false,
      "t": 84818.0969999999,
      "d": 268.1815499999939,
      "v": 115
    },
    {
      "midi": 63,
      "hit": false,
      "t": 85090.8239999999,
      "d": 1086.3625499999907,
      "v": 115
    },
    {
      "midi": 72,
      "hit": false,
      "t": 85636.2779999999,
      "d": 540.9085499999928,
      "v": 104
    },
    {
      "midi": 84,
      "hit": false,
      "t": 85636.27799999995,
      "d": 540.9085499999928,
      "v": 116
    },
    {
      "midi": 60,
      "hit": false,
      "t": 85636.27799999995,
      "d": 540.9085499999928,
      "v": 116
    },
    {
      "midi": 68,
      "hit": false,
      "t": 86181.7319999999,
      "d": 359.0905499999935,
      "v": 111
    },
    {
      "midi": 60,
      "hit": false,
      "t": 86181.7319999999,
      "d": 1086.3625499999907,
      "v": 127
    },
    {
      "midi": 80,
      "hit": false,
      "t": 86181.73199999995,
      "d": 359.0905499999935,
      "v": 118
    },
    {
      "midi": 56,
      "hit": false,
      "t": 86181.73199999995,
      "d": 359.0905499999935,
      "v": 115
    },
    {
      "midi": 44,
      "hit": false,
      "t": 86545.36799999986,
      "d": 409.09049999999115,
      "v": 49
    },
    {
      "midi": 63,
      "hit": false,
      "t": 86545.3679999999,
      "d": 359.0905499999935,
      "v": 107
    },
    {
      "midi": 75,
      "hit": false,
      "t": 86545.36799999994,
      "d": 359.0905499999935,
      "v": 115
    },
    {
      "midi": 51,
      "hit": false,
      "t": 86545.36799999994,
      "d": 359.0905499999935,
      "v": 127
    },
    {
      "midi": 72,
      "hit": false,
      "t": 86727.18599999986,
      "d": 154.54529999999795,
      "v": 60
    },
    {
      "midi": 68,
      "hit": false,
      "t": 86727.18599999986,
      "d": 177.27254999999423,
      "v": 54
    },
    {
      "midi": 60,
      "hit": false,
      "t": 86727.18599999986,
      "d": 213.63614999999118,
      "v": 56
    },
    {
      "midi": 72,
      "hit": false,
      "t": 86909.0039999999,
      "d": 359.0905499999935,
      "v": 122
    },
    {
      "midi": 84,
      "hit": false,
      "t": 86909.00399999994,
      "d": 359.0905499999935,
      "v": 118
    },
    {
      "midi": 60,
      "hit": false,
      "t": 86909.00399999994,
      "d": 359.0905499999935,
      "v": 115
    },
    {
      "midi": 39,
      "hit": false,
      "t": 87272.63999999985,
      "d": 3440.9056500000006,
      "v": 57
    },
    {
      "midi": 55,
      "hit": false,
      "t": 87272.63999999985,
      "d": 3468.178350000002,
      "v": 49
    },
    {
      "midi": 67,
      "hit": false,
      "t": 87272.6399999999,
      "d": 2177.270550000001,
      "v": 127
    },
    {
      "midi": 70,
      "hit": false,
      "t": 87272.6399999999,
      "d": 2177.270550000001,
      "v": 121
    },
    {
      "midi": 63,
      "hit": false,
      "t": 87272.6399999999,
      "d": 2722.724549999999,
      "v": 115
    },
    {
      "midi": 82,
      "hit": false,
      "t": 87272.63999999994,
      "d": 2722.724549999999,
      "v": 113
    },
    {
      "midi": 58,
      "hit": false,
      "t": 87272.63999999994,
      "d": 2722.724549999999,
      "v": 100
    },
    {
      "midi": 63,
      "hit": false,
      "t": 87454.45799999985,
      "d": 3318.1784999999945,
      "v": 57
    },
    {
      "midi": 67,
      "hit": false,
      "t": 87636.27599999985,
      "d": 3104.5423500000034,
      "v": 60
    },
    {
      "midi": 70,
      "hit": false,
      "t": 87818.09399999985,
      "d": 2931.8152499999997,
      "v": 70
    },
    {
      "midi": 75,
      "hit": false,
      "t": 88363.5479999999,
      "d": 813.6355500000063,
      "v": 109
    },
    {
      "midi": 79,
      "hit": false,
      "t": 88363.5479999999,
      "d": 813.6355500000063,
      "v": 104
    },
    {
      "midi": 75,
      "hit": false,
      "t": 89181.7289999999,
      "d": 268.1815499999939,
      "v": 127
    },
    {
      "midi": 67,
      "hit": false,
      "t": 89454.4559999999,
      "d": 540.9085499999928,
      "v": 115
    },
    {
      "midi": 70,
      "hit": false,
      "t": 89454.4559999999,
      "d": 540.9085499999928,
      "v": 120
    },
    {
      "midi": 67,
      "hit": false,
      "t": 89999.9099999999,
      "d": 540.9085499999928,
      "v": 115
    },
    {
      "midi": 79,
      "hit": false,
      "t": 89999.90999999995,
      "d": 540.9085499999928,
      "v": 127
    },
    {
      "midi": 55,
      "hit": false,
      "t": 89999.90999999995,
      "d": 540.9085499999928,
      "v": 118
    },
    {
      "midi": 63,
      "hit": false,
      "t": 90545.3639999999,
      "d": 359.0905499999935,
      "v": 126
    },
    {
      "midi": 75,
      "hit": false,
      "t": 90545.36399999994,
      "d": 359.0905499999935,
      "v": 127
    },
    {
      "midi": 51,
      "hit": false,
      "t": 90545.36399999994,
      "d": 359.0905499999935,
      "v": 121
    },
    {
      "midi": 39,
      "hit": false,
      "t": 90908.99999999985,
      "d": 409.09049999999115,
      "v": 49
    },
    {
      "midi": 58,
      "hit": false,
      "t": 90908.9999999999,
      "d": 359.0905499999935,
      "v": 126
    },
    {
      "midi": 70,
      "hit": false,
      "t": 90908.99999999994,
      "d": 359.0905499999935,
      "v": 115
    },
    {
      "midi": 46,
      "hit": false,
      "t": 90908.99999999994,
      "d": 359.0905499999935,
      "v": 125
    },
    {
      "midi": 67,
      "hit": false,
      "t": 91090.81799999985,
      "d": 154.54529999999795,
      "v": 60
    },
    {
      "midi": 63,
      "hit": false,
      "t": 91090.81799999985,
      "d": 177.27254999999423,
      "v": 54
    },
    {
      "midi": 55,
      "hit": false,
      "t": 91090.81799999985,
      "d": 213.63614999999118,
      "v": 56
    },
    {
      "midi": 68,
      "hit": false,
      "t": 91272.6359999999,
      "d": 359.0905499999935,
      "v": 112
    },
    {
      "midi": 80,
      "hit": false,
      "t": 91272.63599999994,
      "d": 359.0905499999935,
      "v": 116
    },
    {
      "midi": 56,
      "hit": false,
      "t": 91272.63599999994,
      "d": 359.0905499999935,
      "v": 107
    },
    {
      "midi": 70,
      "hit": false,
      "t": 91636.27199999985,
      "d": 4363.631999999969,
      "v": 61
    },
    {
      "midi": 56,
      "hit": false,
      "t": 91636.2719999999,
      "d": 2722.7245499999844,
      "v": 122
    },
    {
      "midi": 62,
      "hit": false,
      "t": 91636.2719999999,
      "d": 2722.7245499999844,
      "v": 114
    },
    {
      "midi": 65,
      "hit": false,
      "t": 91636.2719999999,
      "d": 2722.7245499999844,
      "v": 117
    },
    {
      "midi": 77,
      "hit": false,
      "t": 91636.27199999994,
      "d": 2722.724549999999,
      "v": 127
    },
    {
      "midi": 53,
      "hit": false,
      "t": 91636.27199999994,
      "d": 2722.724549999999,
      "v": 125
    },
    {
      "midi": 65,
      "hit": false,
      "t": 91818.08999999985,
      "d": 3836.359799999991,
      "v": 62
    },
    {
      "midi": 62,
      "hit": false,
      "t": 91999.90799999985,
      "d": 1463.63489999999,
      "v": 49
    },
    {
      "midi": 56,
      "hit": false,
      "t": 92181.72599999985,
      "d": 1272.725999999995,
      "v": 51
    },
    {
      "midi": 74,
      "hit": false,
      "t": 92727.17999999989,
      "d": 359.0905499999935,
      "v": 111
    },
    {
      "midi": 77,
      "hit": false,
      "t": 92727.17999999989,
      "d": 359.0905499999935,
      "v": 113
    },
    {
      "midi": 73,
      "hit": false,
      "t": 93090.81599999989,
      "d": 359.0905499999935,
      "v": 123
    },
    {
      "midi": 76,
      "hit": false,
      "t": 93090.81599999989,
      "d": 359.0905499999935,
      "v": 102
    },
    {
      "midi": 53,
      "hit": false,
      "t": 93454.45199999984,
      "d": 2545.4519999999757,
      "v": 70
    },
    {
      "midi": 72,
      "hit": false,
      "t": 93454.45199999989,
      "d": 359.0905499999935,
      "v": 117
    },
    {
      "midi": 75,
      "hit": false,
      "t": 93454.45199999989,
      "d": 359.0905499999935,
      "v": 124
    },
    {
      "midi": 56,
      "hit": false,
      "t": 93636.26999999984,
      "d": 1536.3620999999985,
      "v": 66
    },
    {
      "midi": 62,
      "hit": false,
      "t": 93818.08799999984,
      "d": 1699.998299999992,
      "v": 51
    },
    {
      "midi": 70,
      "hit": false,
      "t": 93818.08799999989,
      "d": 540.9085499999928,
      "v": 115
    },
    {
      "midi": 74,
      "hit": false,
      "t": 93818.08799999989,
      "d": 540.9085499999928,
      "v": 124
    },
    {
      "midi": 62,
      "hit": false,
      "t": 94363.54199999988,
      "d": 540.9085499999928,
      "v": 105
    },
    {
      "midi": 65,
      "hit": false,
      "t": 94363.54199999988,
      "d": 540.9085499999928,
      "v": 114
    },
    {
      "midi": 77,
      "hit": false,
      "t": 94363.54199999994,
      "d": 540.9085499999928,
      "v": 123
    },
    {
      "midi": 53,
      "hit": false,
      "t": 94363.54199999994,
      "d": 540.9085499999928,
      "v": 116
    },
    {
      "midi": 56,
      "hit": false,
      "t": 94908.99599999988,
      "d": 540.9085499999928,
      "v": 115
    },
    {
      "midi": 60,
      "hit": false,
      "t": 94908.99599999988,
      "d": 540.9085499999928,
      "v": 111
    },
    {
      "midi": 63,
      "hit": false,
      "t": 94908.99599999988,
      "d": 540.9085499999928,
      "v": 116
    },
    {
      "midi": 75,
      "hit": false,
      "t": 94908.99599999994,
      "d": 540.9085499999928,
      "v": 109
    },
    {
      "midi": 51,
      "hit": false,
      "t": 94908.99599999994,
      "d": 540.9085499999928,
      "v": 114
    },
    {
      "midi": 56,
      "hit": false,
      "t": 95454.44999999984,
      "d": 536.3630999999878,
      "v": 68
    },
    {
      "midi": 62,
      "hit": false,
      "t": 95454.44999999988,
      "d": 540.9085499999928,
      "v": 127
    },
    {
      "midi": 65,
      "hit": false,
      "t": 95454.44999999988,
      "d": 540.9085499999928,
      "v": 109
    },
    {
      "midi": 77,
      "hit": false,
      "t": 95454.44999999994,
      "d": 540.9085499999928,
      "v": 101
    },
    {
      "midi": 53,
      "hit": false,
      "t": 95454.44999999994,
      "d": 540.9085499999928,
      "v": 113
    },
    {
      "midi": 62,
      "hit": false,
      "t": 95636.26799999984,
      "d": 340.9087499999878,
      "v": 64
    },
    {
      "midi": 65,
      "hit": false,
      "t": 95818.08599999984,
      "d": 149.99984999999288,
      "v": 60
    },
    {
      "midi": 58,
      "hit": false,
      "t": 95999.90399999982,
      "d": 745.453800000003,
      "v": 59
    },
    {
      "midi": 63,
      "hit": false,
      "t": 95999.90399999982,
      "d": 745.453800000003,
      "v": 59
    },
    {
      "midi": 55,
      "hit": false,
      "t": 95999.90399999988,
      "d": 2722.7245499999844,
      "v": 118
    },
    {
      "midi": 67,
      "hit": false,
      "t": 95999.90399999988,
      "d": 2722.7245499999844,
      "v": 102
    },
    {
      "midi": 79,
      "hit": false,
      "t": 95999.90399999994,
      "d": 2722.724549999999,
      "v": 117
    },
    {
      "midi": 55,
      "hit": false,
      "t": 95999.90399999994,
      "d": 2722.724549999999,
      "v": 111
    },
    {
      "midi": 63,
      "hit": false,
      "t": 96545.35799999988,
      "d": 540.9085499999928,
      "v": 115
    },
    {
      "midi": 55,
      "hit": false,
      "t": 96727.17599999982,
      "d": 18.18180000000575,
      "v": 49
    },
    {
      "midi": 63,
      "hit": false,
      "t": 96908.99399999982,
      "d": 181.8179999999993,
      "v": 62
    },
    {
      "midi": 58,
      "hit": false,
      "t": 97090.81199999982,
      "d": 745.453800000003,
      "v": 59
    },
    {
      "midi": 62,
      "hit": false,
      "t": 97090.81199999982,
      "d": 745.453800000003,
      "v": 59
    },
    {
      "midi": 65,
      "hit": false,
      "t": 97090.81199999982,
      "d": 745.453800000003,
      "v": 59
    },
    {
      "midi": 67,
      "hit": false,
      "t": 97090.81199999982,
      "d": 745.453800000003,
      "v": 59
    },
    {
      "midi": 62,
      "hit": false,
      "t": 97090.81199999987,
      "d": 359.0905499999935,
      "v": 121
    },
    {
      "midi": 58,
      "hit": false,
      "t": 97454.44799999987,
      "d": 359.0905499999935,
      "v": 117
    },
    {
      "midi": 55,
      "hit": false,
      "t": 97818.08399999981,
      "d": 363.6359999999986,
      "v": 49
    },
    {
      "midi": 62,
      "hit": false,
      "t": 97818.08399999987,
      "d": 359.0905499999935,
      "v": 114
    },
    {
      "midi": 62,
      "hit": false,
      "t": 97999.90199999981,
      "d": 181.8179999999993,
      "v": 62
    },
    {
      "midi": 58,
      "hit": false,
      "t": 98181.71999999981,
      "d": 745.453800000003,
      "v": 59
    },
    {
      "midi": 60,
      "hit": false,
      "t": 98181.71999999981,
      "d": 745.453800000003,
      "v": 59
    },
    {
      "midi": 63,
      "hit": false,
      "t": 98181.71999999981,
      "d": 745.453800000003,
      "v": 59
    },
    {
      "midi": 67,
      "hit": false,
      "t": 98181.71999999981,
      "d": 745.453800000003,
      "v": 59
    },
    {
      "midi": 60,
      "hit": false,
      "t": 98181.71999999987,
      "d": 540.9085499999928,
      "v": 114
    },
    {
      "midi": 63,
      "hit": false,
      "t": 98727.17399999987,
      "d": 540.9085499999928,
      "v": 117
    },
    {
      "midi": 75,
      "hit": false,
      "t": 98727.17399999994,
      "d": 540.9085499999928,
      "v": 111
    },
    {
      "midi": 51,
      "hit": false,
      "t": 98727.17399999994,
      "d": 540.9085499999928,
      "v": 127
    },
    {
      "midi": 55,
      "hit": false,
      "t": 98908.99199999981,
      "d": 363.6359999999986,
      "v": 49
    },
    {
      "midi": 60,
      "hit": false,
      "t": 99090.80999999981,
      "d": 181.8179999999993,
      "v": 62
    },
    {
      "midi": 58,
      "hit": false,
      "t": 99272.62799999981,
      "d": 745.453800000003,
      "v": 59
    },
    {
      "midi": 61,
      "hit": false,
      "t": 99272.62799999981,
      "d": 745.453800000003,
      "v": 59
    },
    {
      "midi": 63,
      "hit": false,
      "t": 99272.62799999981,
      "d": 745.453800000003,
      "v": 59
    },
    {
      "midi": 67,
      "hit": false,
      "t": 99272.62799999981,
      "d": 745.453800000003,
      "v": 59
    },
    {
      "midi": 67,
      "hit": false,
      "t": 99272.62799999987,
      "d": 540.9085499999928,
      "v": 106
    },
    {
      "midi": 61,
      "hit": false,
      "t": 99272.62799999987,
      "d": 1086.3625499999907,
      "v": 118
    },
    {
      "midi": 79,
      "hit": false,
      "t": 99272.62799999994,
      "d": 540.9085499999928,
      "v": 102
    },
    {
      "midi": 55,
      "hit": false,
      "t": 99272.62799999994,
      "d": 540.9085499999928,
      "v": 115
    },
    {
      "midi": 70,
      "hit": false,
      "t": 99818.08199999986,
      "d": 540.9085499999928,
      "v": 104
    },
    {
      "midi": 82,
      "hit": false,
      "t": 99818.08199999994,
      "d": 540.9085499999928,
      "v": 113
    },
    {
      "midi": 58,
      "hit": false,
      "t": 99818.08199999994,
      "d": 540.9085499999928,
      "v": 117
    },
    {
      "midi": 55,
      "hit": false,
      "t": 99999.8999999998,
      "d": 363.6359999999986,
      "v": 49
    },
    {
      "midi": 61,
      "hit": false,
      "t": 100181.7179999998,
      "d": 181.8179999999993,
      "v": 62
    },
    {
      "midi": 44,
      "hit": false,
      "t": 100363.5359999998,
      "d": 3440.9056500000006,
      "v": 57
    },
    {
      "midi": 60,
      "hit": false,
      "t": 100363.5359999998,
      "d": 3468.178350000002,
      "v": 49
    },
    {
      "midi": 68,
      "hit": false,
      "t": 100363.53599999986,
      "d": 2722.724549999999,
      "v": 127
    },
    {
      "midi": 72,
      "hit": false,
      "t": 100363.53599999986,
      "d": 2722.724549999999,
      "v": 114
    },
    {
      "midi": 75,
      "hit": false,
      "t": 100363.53599999986,
      "d": 2722.724549999999,
      "v": 123
    },
    {
      "midi": 87,
      "hit": false,
      "t": 100363.53599999993,
      "d": 2722.724549999999,
      "v": 120
    },
    {
      "midi": 63,
      "hit": false,
      "t": 100363.53599999993,
      "d": 2722.724549999999,
      "v": 111
    },
    {
      "midi": 68,
      "hit": false,
      "t": 100545.3539999998,
      "d": 3318.1784999999945,
      "v": 57
    },
    {
      "midi": 72,
      "hit": false,
      "t": 100727.1719999998,
      "d": 3104.5423500000034,
      "v": 60
    },
    {
      "midi": 75,
      "hit": false,
      "t": 100908.9899999998,
      "d": 2931.8152499999997,
      "v": 70
    },
    {
      "midi": 67,
      "hit": false,
      "t": 101454.44399999986,
      "d": 813.6355500000063,
      "v": 101
    },
    {
      "midi": 65,
      "hit": false,
      "t": 102272.62499999987,
      "d": 268.1815499999939,
      "v": 113
    },
    {
      "midi": 63,
      "hit": false,
      "t": 102545.35199999987,
      "d": 1086.3625499999907,
      "v": 111
    },
    {
      "midi": 72,
      "hit": false,
      "t": 103090.80599999987,
      "d": 540.9085499999928,
      "v": 116
    },
    {
      "midi": 84,
      "hit": false,
      "t": 103090.80599999994,
      "d": 540.9085499999928,
      "v": 116
    },
    {
      "midi": 60,
      "hit": false,
      "t": 103090.80599999994,
      "d": 540.9085499999928,
      "v": 118
    },
    {
      "midi": 68,
      "hit": false,
      "t": 103636.25999999986,
      "d": 359.0905499999935,
      "v": 106
    },
    {
      "midi": 60,
      "hit": false,
      "t": 103636.25999999986,
      "d": 1086.3625499999907,
      "v": 118
    },
    {
      "midi": 80,
      "hit": false,
      "t": 103636.25999999994,
      "d": 359.0905499999935,
      "v": 102
    },
    {
      "midi": 56,
      "hit": false,
      "t": 103636.25999999994,
      "d": 359.0905499999935,
      "v": 120
    },
    {
      "midi": 44,
      "hit": false,
      "t": 103999.8959999998,
      "d": 409.09049999999115,
      "v": 49
    },
    {
      "midi": 63,
      "hit": false,
      "t": 103999.89599999986,
      "d": 359.0905499999935,
      "v": 115
    },
    {
      "midi": 75,
      "hit": false,
      "t": 103999.89599999994,
      "d": 359.0905499999935,
      "v": 112
    },
    {
      "midi": 51,
      "hit": false,
      "t": 103999.89599999994,
      "d": 359.0905499999935,
      "v": 115
    },
    {
      "midi": 72,
      "hit": false,
      "t": 104181.7139999998,
      "d": 154.54529999999795,
      "v": 60
    },
    {
      "midi": 68,
      "hit": false,
      "t": 104181.7139999998,
      "d": 177.27254999999423,
      "v": 54
    },
    {
      "midi": 60,
      "hit": false,
      "t": 104181.7139999998,
      "d": 213.63614999999118,
      "v": 56
    },
    {
      "midi": 72,
      "hit": false,
      "t": 104363.53199999986,
      "d": 359.0905499999935,
      "v": 109
    },
    {
      "midi": 84,
      "hit": false,
      "t": 104363.53199999993,
      "d": 359.0905499999935,
      "v": 106
    },
    {
      "midi": 60,
      "hit": false,
      "t": 104363.53199999993,
      "d": 359.0905499999935,
      "v": 115
    },
    {
      "midi": 39,
      "hit": false,
      "t": 104727.1679999998,
      "d": 3440.9056500000006,
      "v": 57
    },
    {
      "midi": 55,
      "hit": false,
      "t": 104727.1679999998,
      "d": 3468.178350000002,
      "v": 49
    },
    {
      "midi": 67,
      "hit": false,
      "t": 104727.16799999986,
      "d": 2177.270550000001,
      "v": 107
    },
    {
      "midi": 70,
      "hit": false,
      "t": 104727.16799999986,
      "d": 2177.270550000001,
      "v": 115
    },
    {
      "midi": 63,
      "hit": false,
      "t": 104727.16799999986,
      "d": 2722.724549999999,
      "v": 120
    },
    {
      "midi": 82,
      "hit": false,
      "t": 104727.16799999993,
      "d": 2722.724549999999,
      "v": 121
    },
    {
      "midi": 58,
      "hit": false,
      "t": 104727.16799999993,
      "d": 2722.724549999999,
      "v": 107
    },
    {
      "midi": 63,
      "hit": false,
      "t": 104908.9859999998,
      "d": 3318.1784999999945,
      "v": 57
    },
    {
      "midi": 67,
      "hit": false,
      "t": 105090.8039999998,
      "d": 3104.5423500000034,
      "v": 60
    },
    {
      "midi": 70,
      "hit": false,
      "t": 105272.6219999998,
      "d": 2931.8152499999997,
      "v": 70
    },
    {
      "midi": 75,
      "hit": false,
      "t": 105818.07599999986,
      "d": 813.6355500000063,
      "v": 126
    },
    {
      "midi": 79,
      "hit": false,
      "t": 105818.07599999986,
      "d": 813.6355500000063,
      "v": 114
    },
    {
      "midi": 75,
      "hit": false,
      "t": 106636.25699999987,
      "d": 268.1815499999939,
      "v": 116
    },
    {
      "midi": 67,
      "hit": false,
      "t": 106908.98399999987,
      "d": 540.9085499999928,
      "v": 114
    },
    {
      "midi": 70,
      "hit": false,
      "t": 106908.98399999987,
      "d": 540.9085499999928,
      "v": 114
    },
    {
      "midi": 67,
      "hit": false,
      "t": 107454.43799999986,
      "d": 540.9085499999928,
      "v": 123
    },
    {
      "midi": 79,
      "hit": false,
      "t": 107454.43799999994,
      "d": 540.9085499999928,
      "v": 117
    },
    {
      "midi": 55,
      "hit": false,
      "t": 107454.43799999994,
      "d": 540.9085499999928,
      "v": 101
    },
    {
      "midi": 63,
      "hit": false,
      "t": 107999.89199999986,
      "d": 359.0905499999935,
      "v": 123
    },
    {
      "midi": 75,
      "hit": false,
      "t": 107999.89199999993,
      "d": 359.0905499999935,
      "v": 122
    },
    {
      "midi": 51,
      "hit": false,
      "t": 107999.89199999993,
      "d": 359.0905499999935,
      "v": 103
    },
    {
      "midi": 39,
      "hit": false,
      "t": 108363.5279999998,
      "d": 409.09049999999115,
      "v": 49
    },
    {
      "midi": 58,
      "hit": false,
      "t": 108363.52799999986,
      "d": 359.0905499999935,
      "v": 120
    },
    {
      "midi": 70,
      "hit": false,
      "t": 108363.52799999993,
      "d": 359.0905499999935,
      "v": 116
    },
    {
      "midi": 46,
      "hit": false,
      "t": 108363.52799999993,
      "d": 359.0905499999935,
      "v": 127
    },
    {
      "midi": 67,
      "hit": false,
      "t": 108545.3459999998,
      "d": 154.54529999999795,
      "v": 60
    },
    {
      "midi": 63,
      "hit": false,
      "t": 108545.3459999998,
      "d": 177.27254999999423,
      "v": 54
    },
    {
      "midi": 55,
      "hit": false,
      "t": 108545.3459999998,
      "d": 213.63614999999118,
      "v": 56
    },
    {
      "midi": 68,
      "hit": false,
      "t": 108727.16399999986,
      "d": 359.0905499999935,
      "v": 112
    },
    {
      "midi": 80,
      "hit": false,
      "t": 108727.16399999993,
      "d": 359.0905499999935,
      "v": 115
    },
    {
      "midi": 56,
      "hit": false,
      "t": 108727.16399999993,
      "d": 359.0905499999935,
      "v": 115
    },
    {
      "midi": 70,
      "hit": false,
      "t": 109090.7999999998,
      "d": 4363.631999999969,
      "v": 61
    },
    {
      "midi": 56,
      "hit": false,
      "t": 109090.79999999986,
      "d": 2722.7245499999844,
      "v": 105
    },
    {
      "midi": 62,
      "hit": false,
      "t": 109090.79999999986,
      "d": 2722.7245499999844,
      "v": 111
    },
    {
      "midi": 65,
      "hit": false,
      "t": 109090.79999999986,
      "d": 2722.7245499999844,
      "v": 115
    },
    {
      "midi": 77,
      "hit": false,
      "t": 109090.79999999993,
      "d": 2722.724549999999,
      "v": 115
    },
    {
      "midi": 53,
      "hit": false,
      "t": 109090.79999999993,
      "d": 2722.724549999999,
      "v": 119
    },
    {
      "midi": 65,
      "hit": false,
      "t": 109272.6179999998,
      "d": 3836.359799999991,
      "v": 62
    },
    {
      "midi": 62,
      "hit": false,
      "t": 109454.4359999998,
      "d": 1463.63489999999,
      "v": 49
    },
    {
      "midi": 56,
      "hit": false,
      "t": 109636.2539999998,
      "d": 1272.725999999995,
      "v": 51
    },
    {
      "midi": 74,
      "hit": false,
      "t": 110181.70799999985,
      "d": 359.0905499999935,
      "v": 126
    },
    {
      "midi": 77,
      "hit": false,
      "t": 110181.70799999985,
      "d": 359.0905499999935,
      "v": 115
    },
    {
      "midi": 73,
      "hit": false,
      "t": 110545.34399999985,
      "d": 359.0905499999935,
      "v": 126
    },
    {
      "midi": 76,
      "hit": false,
      "t": 110545.34399999985,
      "d": 359.0905499999935,
      "v": 120
    },
    {
      "midi": 53,
      "hit": false,
      "t": 110908.97999999979,
      "d": 2545.4519999999757,
      "v": 70
    },
    {
      "midi": 72,
      "hit": false,
      "t": 110908.97999999985,
      "d": 359.0905499999935,
      "v": 111
    },
    {
      "midi": 75,
      "hit": false,
      "t": 110908.97999999985,
      "d": 359.0905499999935,
      "v": 127
    },
    {
      "midi": 56,
      "hit": false,
      "t": 111090.79799999979,
      "d": 1536.3620999999985,
      "v": 66
    },
    {
      "midi": 62,
      "hit": false,
      "t": 111272.61599999979,
      "d": 1699.998299999992,
      "v": 51
    },
    {
      "midi": 70,
      "hit": false,
      "t": 111272.61599999985,
      "d": 540.9085499999928,
      "v": 116
    },
    {
      "midi": 74,
      "hit": false,
      "t": 111272.61599999985,
      "d": 540.9085499999928,
      "v": 111
    },
    {
      "midi": 62,
      "hit": false,
      "t": 111818.06999999985,
      "d": 540.9085499999928,
      "v": 109
    },
    {
      "midi": 65,
      "hit": false,
      "t": 111818.06999999985,
      "d": 540.9085499999928,
      "v": 114
    },
    {
      "midi": 77,
      "hit": false,
      "t": 111818.06999999993,
      "d": 540.9085499999928,
      "v": 113
    },
    {
      "midi": 53,
      "hit": false,
      "t": 111818.06999999993,
      "d": 540.9085499999928,
      "v": 121
    },
    {
      "midi": 60,
      "hit": false,
      "t": 112363.52399999984,
      "d": 540.9085499999928,
      "v": 113
    },
    {
      "midi": 63,
      "hit": false,
      "t": 112363.52399999984,
      "d": 540.9085499999928,
      "v": 101
    },
    {
      "midi": 56,
      "hit": false,
      "t": 112363.52399999984,
      "d": 1086.3625499999907,
      "v": 115
    },
    {
      "midi": 75,
      "hit": false,
      "t": 112363.52399999993,
      "d": 540.9085499999928,
      "v": 103
    },
    {
      "midi": 51,
      "hit": false,
      "t": 112363.52399999993,
      "d": 540.9085499999928,
      "v": 112
    },
    {
      "midi": 56,
      "hit": false,
      "t": 112908.97799999978,
      "d": 536.3630999999878,
      "v": 68
    },
    {
      "midi": 58,
      "hit": false,
      "t": 112908.97799999984,
      "d": 540.9085499999928,
      "v": 118
    },
    {
      "midi": 62,
      "hit": false,
      "t": 112908.97799999984,
      "d": 540.9085499999928,
      "v": 122
    },
    {
      "midi": 74,
      "hit": false,
      "t": 112908.97799999993,
      "d": 540.9085499999928,
      "v": 124
    },
    {
      "midi": 50,
      "hit": false,
      "t": 112908.97799999993,
      "d": 540.9085499999928,
      "v": 115
    },
    {
      "midi": 62,
      "hit": false,
      "t": 113090.79599999978,
      "d": 340.9087499999878,
      "v": 64
    },
    {
      "midi": 65,
      "hit": false,
      "t": 113272.61399999978,
      "d": 149.99984999999288,
      "v": 60
    },
    {
      "midi": 58,
      "hit": false,
      "t": 113454.43199999977,
      "d": 745.453800000003,
      "v": 59
    },
    {
      "midi": 63,
      "hit": false,
      "t": 113454.43199999977,
      "d": 745.453800000003,
      "v": 59
    },
    {
      "midi": 63,
      "hit": false,
      "t": 113454.43199999984,
      "d": 2722.7245499999844,
      "v": 109
    },
    {
      "midi": 75,
      "hit": false,
      "t": 113454.43199999993,
      "d": 2722.724549999999,
      "v": 113
    },
    {
      "midi": 51,
      "hit": false,
      "t": 113454.43199999993,
      "d": 2722.724549999999,
      "v": 115
    },
    {
      "midi": 55,
      "hit": false,
      "t": 113999.88599999984,
      "d": 540.9085499999928,
      "v": 121
    },
    {
      "midi": 58,
      "hit": false,
      "t": 113999.88599999984,
      "d": 540.9085499999928,
      "v": 124
    },
    {
      "midi": 55,
      "hit": false,
      "t": 114181.70399999977,
      "d": 18.18180000000575,
      "v": 49
    },
    {
      "midi": 63,
      "hit": false,
      "t": 114363.52199999976,
      "d": 181.8179999999993,
      "v": 62
    },
    {
      "midi": 61,
      "hit": false,
      "t": 114545.33999999976,
      "d": 745.453800000003,
      "v": 59
    },
    {
      "midi": 65,
      "hit": false,
      "t": 114545.33999999976,
      "d": 745.453800000003,
      "v": 59
    },
    {
      "midi": 68,
      "hit": false,
      "t": 114545.33999999976,
      "d": 745.453800000003,
      "v": 59
    },
    {
      "midi": 56,
      "hit": false,
      "t": 115090.79399999983,
      "d": 540.9085499999928,
      "v": 114
    },
    {
      "midi": 59,
      "hit": false,
      "t": 115090.79399999983,
      "d": 540.9085499999928,
      "v": 115
    },
    {
      "midi": 59,
      "hit": false,
      "t": 115272.61199999976,
      "d": 18.18180000000575,
      "v": 49
    },
    {
      "midi": 65,
      "hit": false,
      "t": 115454.42999999976,
      "d": 181.8179999999993,
      "v": 62
    },
    {
      "midi": 58,
      "hit": false,
      "t": 115636.24799999976,
      "d": 745.453800000003,
      "v": 59
    },
    {
      "midi": 63,
      "hit": false,
      "t": 115636.24799999976,
      "d": 745.453800000003,
      "v": 59
    },
    {
      "midi": 55,
      "hit": false,
      "t": 115636.24799999983,
      "d": 540.9085499999928,
      "v": 110
    },
    {
      "midi": 58,
      "hit": false,
      "t": 115636.24799999983,
      "d": 540.9085499999928,
      "v": 114
    },
    {
      "midi": 70,
      "hit": false,
      "t": 116181.70199999983,
      "d": 540.9085499999928,
      "v": 110
    },
    {
      "midi": 82,
      "hit": false,
      "t": 116181.70199999993,
      "d": 540.9085499999928,
      "v": 116
    },
    {
      "midi": 58,
      "hit": false,
      "t": 116181.70199999993,
      "d": 540.9085499999928,
      "v": 111
    },
    {
      "midi": 55,
      "hit": false,
      "t": 116363.51999999976,
      "d": 18.18180000000575,
      "v": 49
    },
    {
      "midi": 63,
      "hit": false,
      "t": 116545.33799999976,
      "d": 181.8179999999993,
      "v": 62
    },
    {
      "midi": 63,
      "hit": false,
      "t": 116727.15599999976,
      "d": 745.453800000003,
      "v": 59
    },
    {
      "midi": 65,
      "hit": false,
      "t": 116727.15599999976,
      "d": 745.453800000003,
      "v": 59
    },
    {
      "midi": 68,
      "hit": false,
      "t": 116727.15599999976,
      "d": 745.453800000003,
      "v": 59
    },
    {
      "midi": 65,
      "hit": false,
      "t": 116727.15599999983,
      "d": 359.0905499999935,
      "v": 115
    },
    {
      "midi": 63,
      "hit": false,
      "t": 116727.15599999983,
      "d": 1086.3625499999907,
      "v": 115
    },
    {
      "midi": 77,
      "hit": false,
      "t": 116727.15599999993,
      "d": 359.0905499999935,
      "v": 112
    },
    {
      "midi": 53,
      "hit": false,
      "t": 116727.15599999993,
      "d": 359.0905499999935,
      "v": 115
    },
    {
      "midi": 67,
      "hit": false,
      "t": 117090.79199999983,
      "d": 359.0905499999935,
      "v": 115
    },
    {
      "midi": 79,
      "hit": false,
      "t": 117090.79199999993,
      "d": 359.0905499999935,
      "v": 112
    },
    {
      "midi": 55,
      "hit": false,
      "t": 117090.79199999993,
      "d": 359.0905499999935,
      "v": 112
    },
    {
      "midi": 60,
      "hit": false,
      "t": 117454.42799999975,
      "d": 18.18180000000575,
      "v": 49
    },
    {
      "midi": 68,
      "hit": false,
      "t": 117454.42799999983,
      "d": 359.0905499999935,
      "v": 122
    },
    {
      "midi": 80,
      "hit": false,
      "t": 117454.42799999993,
      "d": 359.0905499999935,
      "v": 114
    },
    {
      "midi": 56,
      "hit": false,
      "t": 117454.42799999993,
      "d": 359.0905499999935,
      "v": 101
    },
    {
      "midi": 65,
      "hit": false,
      "t": 117636.24599999975,
      "d": 181.8179999999993,
      "v": 62
    },
    {
      "midi": 58,
      "hit": false,
      "t": 117818.06399999975,
      "d": 745.453800000003,
      "v": 59
    },
    {
      "midi": 63,
      "hit": false,
      "t": 117818.06399999975,
      "d": 745.453800000003,
      "v": 59
    },
    {
      "midi": 67,
      "hit": false,
      "t": 117818.06399999975,
      "d": 745.453800000003,
      "v": 59
    },
    {
      "midi": 70,
      "hit": false,
      "t": 117818.06399999982,
      "d": 813.6355499999918,
      "v": 127
    },
    {
      "midi": 82,
      "hit": false,
      "t": 117818.06399999993,
      "d": 813.6355500000063,
      "v": 115
    },
    {
      "midi": 58,
      "hit": false,
      "t": 117818.06399999993,
      "d": 813.6355500000063,
      "v": 111
    },
    {
      "midi": 63,
      "hit": false,
      "t": 118363.51799999982,
      "d": 540.9085499999928,
      "v": 116
    },
    {
      "midi": 67,
      "hit": false,
      "t": 118363.51799999982,
      "d": 540.9085499999928,
      "v": 111
    },
    {
      "midi": 55,
      "hit": false,
      "t": 118545.33599999975,
      "d": 363.6359999999986,
      "v": 49
    },
    {
      "midi": 70,
      "hit": false,
      "t": 118636.24499999982,
      "d": 268.1815499999939,
      "v": 108
    },
    {
      "midi": 82,
      "hit": false,
      "t": 118636.24499999994,
      "d": 268.1815499999939,
      "v": 115
    },
    {
      "midi": 58,
      "hit": false,
      "t": 118636.24499999994,
      "d": 268.1815499999939,
      "v": 115
    },
    {
      "midi": 63,
      "hit": false,
      "t": 118727.15399999975,
      "d": 181.8179999999993,
      "v": 62
    },
    {
      "midi": 58,
      "hit": false,
      "t": 118908.97199999975,
      "d": 745.453800000003,
      "v": 59
    },
    {
      "midi": 60,
      "hit": false,
      "t": 118908.97199999975,
      "d": 745.453800000003,
      "v": 59
    },
    {
      "midi": 63,
      "hit": false,
      "t": 118908.97199999975,
      "d": 745.453800000003,
      "v": 59
    },
    {
      "midi": 67,
      "hit": false,
      "t": 118908.97199999975,
      "d": 745.453800000003,
      "v": 59
    },
    {
      "midi": 70,
      "hit": false,
      "t": 118908.97199999982,
      "d": 1631.8165499999886,
      "v": 122
    },
    {
      "midi": 82,
      "hit": false,
      "t": 118908.97199999994,
      "d": 1631.8165500000032,
      "v": 123
    },
    {
      "midi": 58,
      "hit": false,
      "t": 118908.97199999994,
      "d": 1631.8165500000032,
      "v": 116
    },
    {
      "midi": 63,
      "hit": false,
      "t": 119454.42599999982,
      "d": 540.9085499999928,
      "v": 114
    },
    {
      "midi": 67,
      "hit": false,
      "t": 119454.42599999982,
      "d": 540.9085499999928,
      "v": 101
    },
    {
      "midi": 55,
      "hit": false,
      "t": 119636.24399999974,
      "d": 363.6359999999986,
      "v": 49
    },
    {
      "midi": 60,
      "hit": false,
      "t": 119818.06199999974,
      "d": 181.8179999999993,
      "v": 62
    },
    {
      "midi": 58,
      "hit": false,
      "t": 119999.87999999974,
      "d": 745.453800000003,
      "v": 59
    },
    {
      "midi": 62,
      "hit": false,
      "t": 119999.87999999974,
      "d": 745.453800000003,
      "v": 59
    },
    {
      "midi": 65,
      "hit": false,
      "t": 119999.87999999974,
      "d": 745.453800000003,
      "v": 59
    },
    {
      "midi": 67,
      "hit": false,
      "t": 119999.87999999974,
      "d": 745.453800000003,
      "v": 59
    },
    {
      "midi": 63,
      "hit": false,
      "t": 120545.33399999981,
      "d": 540.9085499999928,
      "v": 127
    },
    {
      "midi": 67,
      "hit": false,
      "t": 120545.33399999981,
      "d": 540.9085499999928,
      "v": 105
    },
    {
      "midi": 70,
      "hit": false,
      "t": 120545.33399999981,
      "d": 540.9085499999928,
      "v": 118
    },
    {
      "midi": 82,
      "hit": false,
      "t": 120545.33399999994,
      "d": 540.9085499999928,
      "v": 101
    },
    {
      "midi": 58,
      "hit": false,
      "t": 120545.33399999994,
      "d": 540.9085499999928,
      "v": 113
    },
    {
      "midi": 55,
      "hit": false,
      "t": 120727.15199999974,
      "d": 363.6359999999986,
      "v": 49
    },
    {
      "midi": 62,
      "hit": false,
      "t": 120908.96999999974,
      "d": 181.8179999999993,
      "v": 62
    },
    {
      "midi": 63,
      "hit": false,
      "t": 121090.78799999974,
      "d": 745.453800000003,
      "v": 59
    },
    {
      "midi": 65,
      "hit": false,
      "t": 121090.78799999974,
      "d": 745.453800000003,
      "v": 59
    },
    {
      "midi": 68,
      "hit": false,
      "t": 121090.78799999974,
      "d": 745.453800000003,
      "v": 59
    },
    {
      "midi": 65,
      "hit": false,
      "t": 121090.78799999981,
      "d": 359.0905499999935,
      "v": 111
    },
    {
      "midi": 63,
      "hit": false,
      "t": 121090.78799999981,
      "d": 1086.3625499999907,
      "v": 124
    },
    {
      "midi": 77,
      "hit": false,
      "t": 121090.78799999994,
      "d": 359.0905499999935,
      "v": 119
    },
    {
      "midi": 53,
      "hit": false,
      "t": 121090.78799999994,
      "d": 359.0905499999935,
      "v": 108
    },
    {
      "midi": 67,
      "hit": false,
      "t": 121454.42399999981,
      "d": 359.0905499999935,
      "v": 103
    },
    {
      "midi": 79,
      "hit": false,
      "t": 121454.42399999994,
      "d": 359.0905499999935,
      "v": 123
    },
    {
      "midi": 55,
      "hit": false,
      "t": 121454.42399999994,
      "d": 359.0905499999935,
      "v": 124
    },
    {
      "midi": 60,
      "hit": false,
      "t": 121818.05999999974,
      "d": 18.18180000000575,
      "v": 49
    },
    {
      "midi": 68,
      "hit": false,
      "t": 121818.05999999981,
      "d": 359.0905499999935,
      "v": 115
    },
    {
      "midi": 80,
      "hit": false,
      "t": 121818.05999999994,
      "d": 359.0905499999935,
      "v": 115
    },
    {
      "midi": 56,
      "hit": false,
      "t": 121818.05999999994,
      "d": 359.0905499999935,
      "v": 115
    },
    {
      "midi": 65,
      "hit": false,
      "t": 121999.87799999974,
      "d": 181.8179999999993,
      "v": 62
    },
    {
      "midi": 58,
      "hit": false,
      "t": 122181.69599999973,
      "d": 745.453800000003,
      "v": 59
    },
    {
      "midi": 63,
      "hit": false,
      "t": 122181.69599999973,
      "d": 745.453800000003,
      "v": 59
    },
    {
      "midi": 67,
      "hit": false,
      "t": 122181.69599999973,
      "d": 745.453800000003,
      "v": 59
    },
    {
      "midi": 70,
      "hit": false,
      "t": 122181.6959999998,
      "d": 2722.7245499999844,
      "v": 126
    },
    {
      "midi": 82,
      "hit": false,
      "t": 122181.69599999994,
      "d": 2722.724549999999,
      "v": 110
    },
    {
      "midi": 58,
      "hit": false,
      "t": 122181.69599999994,
      "d": 2722.724549999999,
      "v": 113
    },
    {
      "midi": 63,
      "hit": false,
      "t": 122727.1499999998,
      "d": 540.9085499999928,
      "v": 127
    },
    {
      "midi": 67,
      "hit": false,
      "t": 122727.1499999998,
      "d": 540.9085499999928,
      "v": 127
    },
    {
      "midi": 55,
      "hit": false,
      "t": 122908.96799999973,
      "d": 363.6359999999986,
      "v": 49
    },
    {
      "midi": 63,
      "hit": false,
      "t": 123090.78599999973,
      "d": 181.8179999999993,
      "v": 62
    },
    {
      "midi": 58,
      "hit": false,
      "t": 123272.60399999973,
      "d": 745.453800000003,
      "v": 59
    },
    {
      "midi": 60,
      "hit": false,
      "t": 123272.60399999973,
      "d": 745.453800000003,
      "v": 59
    },
    {
      "midi": 63,
      "hit": false,
      "t": 123272.60399999973,
      "d": 745.453800000003,
      "v": 59
    },
    {
      "midi": 67,
      "hit": false,
      "t": 123272.60399999973,
      "d": 745.453800000003,
      "v": 59
    },
    {
      "midi": 63,
      "hit": false,
      "t": 123818.0579999998,
      "d": 540.9085499999928,
      "v": 121
    },
    {
      "midi": 67,
      "hit": false,
      "t": 123818.0579999998,
      "d": 540.9085499999928,
      "v": 109
    },
    {
      "midi": 55,
      "hit": false,
      "t": 123999.87599999973,
      "d": 363.6359999999986,
      "v": 49
    },
    {
      "midi": 60,
      "hit": false,
      "t": 124181.69399999973,
      "d": 181.8179999999993,
      "v": 62
    },
    {
      "midi": 58,
      "hit": false,
      "t": 124363.51199999973,
      "d": 745.453800000003,
      "v": 59
    },
    {
      "midi": 61,
      "hit": false,
      "t": 124363.51199999973,
      "d": 745.453800000003,
      "v": 59
    },
    {
      "midi": 63,
      "hit": false,
      "t": 124363.51199999973,
      "d": 745.453800000003,
      "v": 59
    },
    {
      "midi": 67,
      "hit": false,
      "t": 124363.51199999973,
      "d": 745.453800000003,
      "v": 59
    },
    {
      "midi": 61,
      "hit": false,
      "t": 124908.9659999998,
      "d": 540.9085499999928,
      "v": 114
    },
    {
      "midi": 67,
      "hit": false,
      "t": 124908.9659999998,
      "d": 540.9085499999928,
      "v": 108
    },
    {
      "midi": 82,
      "hit": false,
      "t": 124908.96599999994,
      "d": 540.9085499999928,
      "v": 115
    },
    {
      "midi": 58,
      "hit": false,
      "t": 124908.96599999994,
      "d": 540.9085499999928,
      "v": 115
    },
    {
      "midi": 55,
      "hit": false,
      "t": 125090.78399999972,
      "d": 363.6359999999986,
      "v": 49
    },
    {
      "midi": 61,
      "hit": false,
      "t": 125272.60199999972,
      "d": 181.8179999999993,
      "v": 62
    },
    {
      "midi": 62,
      "hit": false,
      "t": 125454.41999999972,
      "d": 745.453800000003,
      "v": 59
    },
    {
      "midi": 66,
      "hit": false,
      "t": 125454.41999999972,
      "d": 745.453800000003,
      "v": 59
    },
    {
      "midi": 69,
      "hit": false,
      "t": 125454.41999999972,
      "d": 745.453800000003,
      "v": 59
    },
    {
      "midi": 69,
      "hit": false,
      "t": 125454.4199999998,
      "d": 359.0905499999935,
      "v": 114
    },
    {
      "midi": 60,
      "hit": false,
      "t": 125454.4199999998,
      "d": 1086.3625499999907,
      "v": 115
    },
    {
      "midi": 66,
      "hit": false,
      "t": 125454.4199999998,
      "d": 1086.3625499999907,
      "v": 118
    },
    {
      "midi": 81,
      "hit": false,
      "t": 125454.41999999994,
      "d": 359.0905499999935,
      "v": 117
    },
    {
      "midi": 57,
      "hit": false,
      "t": 125454.41999999994,
      "d": 359.0905499999935,
      "v": 114
    },
    {
      "midi": 70,
      "hit": false,
      "t": 125818.0559999998,
      "d": 359.0905499999935,
      "v": 126
    },
    {
      "midi": 82,
      "hit": false,
      "t": 125818.05599999994,
      "d": 359.0905499999935,
      "v": 127
    },
    {
      "midi": 58,
      "hit": false,
      "t": 125818.05599999994,
      "d": 359.0905499999935,
      "v": 118
    },
    {
      "midi": 60,
      "hit": false,
      "t": 126181.69199999972,
      "d": 18.18180000000575,
      "v": 49
    },
    {
      "midi": 72,
      "hit": false,
      "t": 126181.69199999979,
      "d": 359.0905499999935,
      "v": 111
    },
    {
      "midi": 84,
      "hit": false,
      "t": 126181.69199999994,
      "d": 359.0905499999935,
      "v": 115
    },
    {
      "midi": 60,
      "hit": false,
      "t": 126181.69199999994,
      "d": 359.0905499999935,
      "v": 102
    },
    {
      "midi": 66,
      "hit": false,
      "t": 126363.50999999972,
      "d": 181.8179999999993,
      "v": 62
    },
    {
      "midi": 55,
      "hit": false,
      "t": 126545.32799999972,
      "d": 745.453800000003,
      "v": 59
    },
    {
      "midi": 62,
      "hit": false,
      "t": 126545.32799999972,
      "d": 745.453800000003,
      "v": 59
    },
    {
      "midi": 74,
      "hit": false,
      "t": 126545.32799999979,
      "d": 813.6355499999918,
      "v": 116
    },
    {
      "midi": 86,
      "hit": false,
      "t": 126545.32799999994,
      "d": 813.6355500000063,
      "v": 117
    },
    {
      "midi": 62,
      "hit": false,
      "t": 126545.32799999994,
      "d": 813.6355500000063,
      "v": 120
    },
    {
      "midi": 62,
      "hit": false,
      "t": 127090.78199999979,
      "d": 540.9085499999928,
      "v": 103
    },
    {
      "midi": 67,
      "hit": false,
      "t": 127090.78199999979,
      "d": 540.9085499999928,
      "v": 114
    },
    {
      "midi": 70,
      "hit": false,
      "t": 127090.78199999979,
      "d": 540.9085499999928,
      "v": 103
    },
    {
      "midi": 58,
      "hit": false,
      "t": 127272.59999999971,
      "d": 18.18180000000575,
      "v": 49
    },
    {
      "midi": 74,
      "hit": false,
      "t": 127363.50899999979,
      "d": 268.1815499999939,
      "v": 114
    },
    {
      "midi": 86,
      "hit": false,
      "t": 127363.50899999995,
      "d": 268.1815499999939,
      "v": 102
    },
    {
      "midi": 62,
      "hit": false,
      "t": 127363.50899999995,
      "d": 268.1815499999939,
      "v": 109
    },
    {
      "midi": 67,
      "hit": false,
      "t": 127454.41799999971,
      "d": 181.8179999999993,
      "v": 62
    },
    {
      "midi": 62,
      "hit": false,
      "t": 127636.23599999971,
      "d": 745.453800000003,
      "v": 59
    },
    {
      "midi": 66,
      "hit": false,
      "t": 127636.23599999971,
      "d": 745.453800000003,
      "v": 59
    },
    {
      "midi": 69,
      "hit": false,
      "t": 127636.23599999971,
      "d": 745.453800000003,
      "v": 59
    },
    {
      "midi": 74,
      "hit": false,
      "t": 127636.23599999979,
      "d": 1631.8165499999886,
      "v": 116
    },
    {
      "midi": 86,
      "hit": false,
      "t": 127636.23599999995,
      "d": 1631.8165500000032,
      "v": 119
    },
    {
      "midi": 62,
      "hit": false,
      "t": 127636.23599999995,
      "d": 1631.8165500000032,
      "v": 118
    },
    {
      "midi": 62,
      "hit": false,
      "t": 128181.68999999978,
      "d": 540.9085499999928,
      "v": 115
    },
    {
      "midi": 66,
      "hit": false,
      "t": 128181.68999999978,
      "d": 540.9085499999928,
      "v": 120
    },
    {
      "midi": 72,
      "hit": false,
      "t": 128181.68999999978,
      "d": 540.9085499999928,
      "v": 121
    },
    {
      "midi": 60,
      "hit": false,
      "t": 128363.50799999971,
      "d": 18.18180000000575,
      "v": 49
    },
    {
      "midi": 66,
      "hit": false,
      "t": 128545.32599999971,
      "d": 181.8179999999993,
      "v": 62
    },
    {
      "midi": 55,
      "hit": false,
      "t": 128727.14399999971,
      "d": 745.453800000003,
      "v": 59
    },
    {
      "midi": 62,
      "hit": false,
      "t": 128727.14399999971,
      "d": 745.453800000003,
      "v": 59
    },
    {
      "midi": 62,
      "hit": false,
      "t": 129272.59799999978,
      "d": 540.9085499999928,
      "v": 115
    },
    {
      "midi": 67,
      "hit": false,
      "t": 129272.59799999978,
      "d": 540.9085499999928,
      "v": 119
    },
    {
      "midi": 70,
      "hit": false,
      "t": 129272.59799999978,
      "d": 540.9085499999928,
      "v": 120
    },
    {
      "midi": 74,
      "hit": false,
      "t": 129272.59799999978,
      "d": 540.9085499999928,
      "v": 119
    },
    {
      "midi": 86,
      "hit": false,
      "t": 129272.59799999995,
      "d": 540.9085499999928,
      "v": 106
    },
    {
      "midi": 62,
      "hit": false,
      "t": 129272.59799999995,
      "d": 540.9085499999928,
      "v": 112
    },
    {
      "midi": 58,
      "hit": false,
      "t": 129454.4159999997,
      "d": 18.18180000000575,
      "v": 49
    },
    {
      "midi": 67,
      "hit": false,
      "t": 129636.2339999997,
      "d": 181.8179999999993,
      "v": 62
    },
    {
      "midi": 57,
      "hit": false,
      "t": 129818.0519999997,
      "d": 745.453800000003,
      "v": 59
    },
    {
      "midi": 62,
      "hit": false,
      "t": 129818.0519999997,
      "d": 745.453800000003,
      "v": 59
    },
    {
      "midi": 66,
      "hit": false,
      "t": 129818.0519999997,
      "d": 745.453800000003,
      "v": 59
    },
    {
      "midi": 69,
      "hit": false,
      "t": 129818.05199999978,
      "d": 359.0905499999935,
      "v": 121
    },
    {
      "midi": 60,
      "hit": false,
      "t": 129818.05199999978,
      "d": 1086.3625499999907,
      "v": 110
    },
    {
      "midi": 66,
      "hit": false,
      "t": 129818.05199999978,
      "d": 1086.3625499999907,
      "v": 115
    },
    {
      "midi": 81,
      "hit": false,
      "t": 129818.05199999995,
      "d": 359.0905499999935,
      "v": 106
    },
    {
      "midi": 57,
      "hit": false,
      "t": 129818.05199999995,
      "d": 359.0905499999935,
      "v": 114
    },
    {
      "midi": 71,
      "hit": false,
      "t": 130181.68799999978,
      "d": 359.0905499999935,
      "v": 114
    },
    {
      "midi": 83,
      "hit": false,
      "t": 130181.68799999995,
      "d": 359.0905499999935,
      "v": 109
    },
    {
      "midi": 59,
      "hit": false,
      "t": 130181.68799999995,
      "d": 359.0905499999935,
      "v": 113
    },
    {
      "midi": 60,
      "hit": false,
      "t": 130545.3239999997,
      "d": 18.18180000000575,
      "v": 49
    },
    {
      "midi": 72,
      "hit": false,
      "t": 130545.32399999977,
      "d": 359.0905499999935,
      "v": 111
    },
    {
      "midi": 84,
      "hit": false,
      "t": 130545.32399999995,
      "d": 359.0905499999935,
      "v": 124
    },
    {
      "midi": 60,
      "hit": false,
      "t": 130545.32399999995,
      "d": 359.0905499999935,
      "v": 127
    },
    {
      "midi": 66,
      "hit": false,
      "t": 130727.1419999997,
      "d": 181.8179999999993,
      "v": 62
    },
    {
      "midi": 62,
      "hit": false,
      "t": 130908.9599999997,
      "d": 1659.08924999999,
      "v": 54
    },
    {
      "midi": 67,
      "hit": false,
      "t": 130908.9599999997,
      "d": 1763.6345999999903,
      "v": 55
    },
    {
      "midi": 43,
      "hit": false,
      "t": 130908.9599999997,
      "d": 2181.8159999999916,
      "v": 56
    },
    {
      "midi": 71,
      "hit": false,
      "t": 130908.9599999997,
      "d": 2181.8159999999916,
      "v": 53
    },
    {
      "midi": 71,
      "hit": false,
      "t": 130908.95999999977,
      "d": 540.9085500000074,
      "v": 109
    },
    {
      "midi": 74,
      "hit": false,
      "t": 130908.95999999977,
      "d": 2722.724549999999,
      "v": 115
    },
    {
      "midi": 86,
      "hit": false,
      "t": 130908.95999999995,
      "d": 2722.724549999999,
      "v": 109
    },
    {
      "midi": 62,
      "hit": false,
      "t": 130908.95999999995,
      "d": 2722.724549999999,
      "v": 114
    },
    {
      "midi": 62,
      "hit": false,
      "t": 131454.4139999998,
      "d": 540.9085499999928,
      "v": 106
    },
    {
      "midi": 67,
      "hit": false,
      "t": 131999.86799999978,
      "d": 540.9085499999928,
      "v": 112
    },
    {
      "midi": 59,
      "hit": false,
      "t": 132545.3219999997,
      "d": 545.4539999999979,
      "v": 78
    },
    {
      "midi": 66,
      "hit": false,
      "t": 132545.32199999978,
      "d": 540.9085499999928,
      "v": 123
    },
    {
      "midi": 62,
      "hit": false,
      "t": 132727.1399999997,
      "d": 363.6359999999986,
      "v": 63
    },
    {
      "midi": 67,
      "hit": false,
      "t": 132908.9579999997,
      "d": 149.99984999999288,
      "v": 58
    },
    {
      "midi": 62,
      "hit": false,
      "t": 133090.7759999997,
      "d": 545.4539999999979,
      "v": 59
    },
    {
      "midi": 65,
      "hit": false,
      "t": 133090.7759999997,
      "d": 545.4539999999979,
      "v": 59
    },
    {
      "midi": 68,
      "hit": false,
      "t": 133090.7759999997,
      "d": 545.4539999999979,
      "v": 59
    },
    {
      "midi": 70,
      "hit": false,
      "t": 133090.7759999997,
      "d": 545.4539999999979,
      "v": 59
    },
    {
      "midi": 62,
      "hit": false,
      "t": 133090.77599999978,
      "d": 540.9085499999928,
      "v": 113
    },
    {
      "midi": 65,
      "hit": false,
      "t": 133090.77599999978,
      "d": 540.9085499999928,
      "v": 125
    },
    {
      "midi": 70,
      "hit": false,
      "t": 133090.77599999978,
      "d": 540.9085499999928,
      "v": 117
    },
    {
      "midi": 58,
      "hit": false,
      "t": 133636.2299999997,
      "d": 545.4539999999979,
      "v": 59
    },
    {
      "midi": 61,
      "hit": false,
      "t": 133636.2299999997,
      "d": 545.4539999999979,
      "v": 59
    },
    {
      "midi": 63,
      "hit": false,
      "t": 133636.2299999997,
      "d": 545.4539999999979,
      "v": 59
    },
    {
      "midi": 67,
      "hit": false,
      "t": 133636.2299999997,
      "d": 545.4539999999979,
      "v": 59
    },
    {
      "midi": 63,
      "hit": false,
      "t": 133636.22999999978,
      "d": 540.9085499999928,
      "v": 109
    },
    {
      "midi": 75,
      "hit": false,
      "t": 133636.22999999995,
      "d": 540.9085499999928,
      "v": 115
    },
    {
      "midi": 51,
      "hit": false,
      "t": 133636.22999999995,
      "d": 540.9085499999928,
      "v": 104
    },
    {
      "midi": 61,
      "hit": false,
      "t": 134181.6839999997,
      "d": 745.4537999999884,
      "v": 59
    },
    {
      "midi": 63,
      "hit": false,
      "t": 134181.6839999997,
      "d": 745.4537999999884,
      "v": 59
    },
    {
      "midi": 67,
      "hit": false,
      "t": 134181.6839999997,
      "d": 745.4537999999884,
      "v": 59
    },
    {
      "midi": 70,
      "hit": false,
      "t": 134181.6839999997,
      "d": 745.4537999999884,
      "v": 59
    },
    {
      "midi": 67,
      "hit": false,
      "t": 134181.68399999978,
      "d": 540.9085499999928,
      "v": 110
    },
    {
      "midi": 61,
      "hit": false,
      "t": 134181.68399999978,
      "d": 1086.3625499999907,
      "v": 112
    },
    {
      "midi": 79,
      "hit": false,
      "t": 134181.68399999995,
      "d": 540.9085499999928,
      "v": 115
    },
    {
      "midi": 55,
      "hit": false,
      "t": 134181.68399999995,
      "d": 540.9085499999928,
      "v": 115
    },
    {
      "midi": 67,
      "hit": false,
      "t": 134727.13799999977,
      "d": 540.9085499999928,
      "v": 113
    },
    {
      "midi": 70,
      "hit": false,
      "t": 134727.13799999977,
      "d": 540.9085499999928,
      "v": 124
    },
    {
      "midi": 82,
      "hit": false,
      "t": 134727.13799999995,
      "d": 540.9085499999928,
      "v": 119
    },
    {
      "midi": 58,
      "hit": false,
      "t": 134727.13799999995,
      "d": 540.9085499999928,
      "v": 114
    },
    {
      "midi": 55,
      "hit": false,
      "t": 134908.95599999969,
      "d": 363.6359999999986,
      "v": 49
    },
    {
      "midi": 61,
      "hit": false,
      "t": 135090.77399999968,
      "d": 181.8179999999993,
      "v": 62
    },
    {
      "midi": 44,
      "hit": false,
      "t": 135272.59199999968,
      "d": 3440.9056500000006,
      "v": 57
    },
    {
      "midi": 60,
      "hit": false,
      "t": 135272.59199999968,
      "d": 3468.178350000002,
      "v": 49
    },
    {
      "midi": 68,
      "hit": false,
      "t": 135272.59199999977,
      "d": 2722.7245500000136,
      "v": 112
    },
    {
      "midi": 72,
      "hit": false,
      "t": 135272.59199999977,
      "d": 2722.7245500000136,
      "v": 111
    },
    {
      "midi": 75,
      "hit": false,
      "t": 135272.59199999977,
      "d": 2722.7245500000136,
      "v": 109
    },
    {
      "midi": 87,
      "hit": false,
      "t": 135272.59199999995,
      "d": 2722.7245500000136,
      "v": 100
    },
    {
      "midi": 63,
      "hit": false,
      "t": 135272.59199999995,
      "d": 2722.7245500000136,
      "v": 106
    },
    {
      "midi": 68,
      "hit": false,
      "t": 135454.40999999968,
      "d": 3318.178500000009,
      "v": 57
    },
    {
      "midi": 72,
      "hit": false,
      "t": 135636.22799999968,
      "d": 3104.5423500000034,
      "v": 60
    },
    {
      "midi": 75,
      "hit": false,
      "t": 135818.04599999968,
      "d": 2931.815250000014,
      "v": 70
    },
    {
      "midi": 67,
      "hit": false,
      "t": 136363.49999999977,
      "d": 813.6355500000063,
      "v": 115
    },
    {
      "midi": 65,
      "hit": false,
      "t": 137181.68099999978,
      "d": 268.18155000000843,
      "v": 127
    },
    {
      "midi": 63,
      "hit": false,
      "t": 137454.4079999998,
      "d": 1086.3625499999907,
      "v": 124
    },
    {
      "midi": 72,
      "hit": false,
      "t": 137999.8619999998,
      "d": 540.9085499999928,
      "v": 116
    },
    {
      "midi": 84,
      "hit": false,
      "t": 137999.86199999996,
      "d": 540.9085499999928,
      "v": 122
    },
    {
      "midi": 60,
      "hit": false,
      "t": 137999.86199999996,
      "d": 540.9085499999928,
      "v": 108
    },
    {
      "midi": 68,
      "hit": false,
      "t": 138545.3159999998,
      "d": 359.0905499999935,
      "v": 114
    },
    {
      "midi": 60,
      "hit": false,
      "t": 138545.3159999998,
      "d": 1086.3625499999907,
      "v": 115
    },
    {
      "midi": 80,
      "hit": false,
      "t": 138545.31599999996,
      "d": 359.0905499999935,
      "v": 115
    },
    {
      "midi": 56,
      "hit": false,
      "t": 138545.31599999996,
      "d": 359.0905499999935,
      "v": 112
    },
    {
      "midi": 44,
      "hit": false,
      "t": 138908.9519999997,
      "d": 409.09049999999115,
      "v": 49
    },
    {
      "midi": 63,
      "hit": false,
      "t": 138908.9519999998,
      "d": 359.0905499999935,
      "v": 110
    },
    {
      "midi": 75,
      "hit": false,
      "t": 138908.95199999996,
      "d": 359.0905499999935,
      "v": 114
    },
    {
      "midi": 51,
      "hit": false,
      "t": 138908.95199999996,
      "d": 359.0905499999935,
      "v": 115
    },
    {
      "midi": 72,
      "hit": false,
      "t": 139090.7699999997,
      "d": 154.54529999999795,
      "v": 60
    },
    {
      "midi": 68,
      "hit": false,
      "t": 139090.7699999997,
      "d": 177.27254999999423,
      "v": 54
    },
    {
      "midi": 60,
      "hit": false,
      "t": 139090.7699999997,
      "d": 213.63615000000573,
      "v": 56
    },
    {
      "midi": 72,
      "hit": false,
      "t": 139272.58799999979,
      "d": 359.0905499999935,
      "v": 114
    },
    {
      "midi": 84,
      "hit": false,
      "t": 139272.58799999996,
      "d": 359.0905499999935,
      "v": 111
    },
    {
      "midi": 60,
      "hit": false,
      "t": 139272.58799999996,
      "d": 359.0905499999935,
      "v": 115
    },
    {
      "midi": 75,
      "hit": false,
      "t": 139636.2239999997,
      "d": 4363.631999999983,
      "v": 61
    },
    {
      "midi": 67,
      "hit": false,
      "t": 139636.22399999978,
      "d": 2177.2705500000156,
      "v": 116
    },
    {
      "midi": 70,
      "hit": false,
      "t": 139636.22399999978,
      "d": 2177.2705500000156,
      "v": 111
    },
    {
      "midi": 63,
      "hit": false,
      "t": 139636.22399999978,
      "d": 2722.7245500000136,
      "v": 105
    },
    {
      "midi": 82,
      "hit": false,
      "t": 139636.22399999996,
      "d": 2722.7245500000136,
      "v": 115
    },
    {
      "midi": 58,
      "hit": false,
      "t": 139636.22399999996,
      "d": 2722.7245500000136,
      "v": 115
    },
    {
      "midi": 67,
      "hit": false,
      "t": 139818.0419999997,
      "d": 1645.4529000000039,
      "v": 62
    },
    {
      "midi": 58,
      "hit": false,
      "t": 140181.6779999997,
      "d": 1272.725999999995,
      "v": 51
    },
    {
      "midi": 75,
      "hit": false,
      "t": 140727.13199999978,
      "d": 813.6355500000063,
      "v": 118
    },
    {
      "midi": 79,
      "hit": false,
      "t": 140727.13199999978,
      "d": 813.6355500000063,
      "v": 125
    },
    {
      "midi": 55,
      "hit": false,
      "t": 141454.4039999997,
      "d": 2545.45199999999,
      "v": 70
    },
    {
      "midi": 75,
      "hit": false,
      "t": 141545.3129999998,
      "d": 268.18155000000843,
      "v": 102
    },
    {
      "midi": 58,
      "hit": false,
      "t": 141636.2219999997,
      "d": 1536.3620999999985,
      "v": 66
    },
    {
      "midi": 67,
      "hit": false,
      "t": 141818.0399999997,
      "d": 1699.9983000000066,
      "v": 51
    },
    {
      "midi": 67,
      "hit": false,
      "t": 141818.0399999998,
      "d": 540.9085499999928,
      "v": 121
    },
    {
      "midi": 70,
      "hit": false,
      "t": 141818.0399999998,
      "d": 540.9085499999928,
      "v": 116
    },
    {
      "midi": 67,
      "hit": false,
      "t": 142363.4939999998,
      "d": 540.9085499999928,
      "v": 124
    },
    {
      "midi": 79,
      "hit": false,
      "t": 142363.49399999998,
      "d": 540.9085499999928,
      "v": 103
    },
    {
      "midi": 55,
      "hit": false,
      "t": 142363.49399999998,
      "d": 540.9085499999928,
      "v": 125
    },
    {
      "midi": 63,
      "hit": false,
      "t": 142908.9479999998,
      "d": 359.0905499999935,
      "v": 110
    },
    {
      "midi": 75,
      "hit": false,
      "t": 142908.94799999997,
      "d": 359.0905499999935,
      "v": 104
    },
    {
      "midi": 51,
      "hit": false,
      "t": 142908.94799999997,
      "d": 359.0905499999935,
      "v": 118
    },
    {
      "midi": 58,
      "hit": false,
      "t": 143272.5839999998,
      "d": 359.0905499999935,
      "v": 115
    },
    {
      "midi": 70,
      "hit": false,
      "t": 143272.58399999997,
      "d": 359.0905499999935,
      "v": 113
    },
    {
      "midi": 46,
      "hit": false,
      "t": 143272.58399999997,
      "d": 359.0905499999935,
      "v": 116
    },
    {
      "midi": 58,
      "hit": false,
      "t": 143454.40199999968,
      "d": 536.3630999999878,
      "v": 68
    },
    {
      "midi": 67,
      "hit": false,
      "t": 143636.21999999968,
      "d": 18.1817999999912,
      "v": 64
    },
    {
      "midi": 68,
      "hit": false,
      "t": 143636.2199999998,
      "d": 359.0905499999935,
      "v": 116
    },
    {
      "midi": 80,
      "hit": false,
      "t": 143636.21999999997,
      "d": 359.0905499999935,
      "v": 110
    },
    {
      "midi": 56,
      "hit": false,
      "t": 143636.21999999997,
      "d": 359.0905499999935,
      "v": 109
    },
    {
      "midi": 67,
      "hit": false,
      "t": 143818.03799999968,
      "d": 149.99984999999288,
      "v": 60
    },
    {
      "midi": 56,
      "hit": false,
      "t": 143999.8559999998,
      "d": 2722.7245499999844,
      "v": 115
    },
    {
      "midi": 62,
      "hit": false,
      "t": 143999.8559999998,
      "d": 2722.7245499999844,
      "v": 108
    },
    {
      "midi": 65,
      "hit": false,
      "t": 143999.8559999998,
      "d": 2722.7245499999844,
      "v": 115
    },
    {
      "midi": 77,
      "hit": false,
      "t": 143999.85599999997,
      "d": 2722.7245500000136,
      "v": 115
    },
    {
      "midi": 53,
      "hit": false,
      "t": 143999.85599999997,
      "d": 2722.7245500000136,
      "v": 108
    },
    {
      "midi": 46,
      "hit": false,
      "t": 144181.67399999968,
      "d": 1799.9982000000018,
      "v": 24
    },
    {
      "midi": 58,
      "hit": false,
      "t": 144363.49199999968,
      "d": 1513.6348500000022,
      "v": 64
    },
    {
      "midi": 56,
      "hit": false,
      "t": 144363.49199999968,
      "d": 1659.08924999999,
      "v": 74
    },
    {
      "midi": 62,
      "hit": false,
      "t": 144545.30999999968,
      "d": 1331.816850000003,
      "v": 70
    },
    {
      "midi": 65,
      "hit": false,
      "t": 144545.30999999968,
      "d": 1436.3622000000032,
      "v": 68
    },
    {
      "midi": 74,
      "hit": false,
      "t": 145090.7639999998,
      "d": 359.0905499999935,
      "v": 125
    },
    {
      "midi": 77,
      "hit": false,
      "t": 145090.7639999998,
      "d": 359.0905499999935,
      "v": 116
    },
    {
      "midi": 73,
      "hit": false,
      "t": 145454.3999999998,
      "d": 359.0905499999935,
      "v": 108
    },
    {
      "midi": 76,
      "hit": false,
      "t": 145454.3999999998,
      "d": 359.0905499999935,
      "v": 127
    },
    {
      "midi": 72,
      "hit": false,
      "t": 145818.0359999998,
      "d": 359.0905499999935,
      "v": 121
    },
    {
      "midi": 75,
      "hit": false,
      "t": 145818.0359999998,
      "d": 359.0905499999935,
      "v": 115
    },
    {
      "midi": 70,
      "hit": false,
      "t": 146181.6719999998,
      "d": 540.9085499999928,
      "v": 121
    },
    {
      "midi": 74,
      "hit": false,
      "t": 146181.6719999998,
      "d": 540.9085499999928,
      "v": 110
    },
    {
      "midi": 46,
      "hit": false,
      "t": 146363.48999999967,
      "d": 1799.9982000000018,
      "v": 24
    },
    {
      "midi": 58,
      "hit": false,
      "t": 146545.30799999967,
      "d": 1513.6348500000022,
      "v": 64
    },
    {
      "midi": 56,
      "hit": false,
      "t": 146545.30799999967,
      "d": 1659.08924999999,
      "v": 74
    },
    {
      "midi": 62,
      "hit": false,
      "t": 146727.12599999967,
      "d": 1331.816850000003,
      "v": 70
    },
    {
      "midi": 65,
      "hit": false,
      "t": 146727.12599999967,
      "d": 1436.3622000000032,
      "v": 68
    },
    {
      "midi": 62,
      "hit": false,
      "t": 146727.1259999998,
      "d": 540.9085499999928,
      "v": 107
    },
    {
      "midi": 65,
      "hit": false,
      "t": 146727.1259999998,
      "d": 540.9085499999928,
      "v": 116
    },
    {
      "midi": 77,
      "hit": false,
      "t": 146727.126,
      "d": 540.9085499999928,
      "v": 114
    },
    {
      "midi": 53,
      "hit": false,
      "t": 146727.126,
      "d": 540.9085499999928,
      "v": 117
    },
    {
      "midi": 62,
      "hit": false,
      "t": 147272.57999999978,
      "d": 359.0905499999935,
      "v": 112
    },
    {
      "midi": 65,
      "hit": false,
      "t": 147272.57999999978,
      "d": 359.0905499999935,
      "v": 106
    },
    {
      "midi": 77,
      "hit": false,
      "t": 147272.58,
      "d": 359.0905499999935,
      "v": 110
    },
    {
      "midi": 53,
      "hit": false,
      "t": 147272.58,
      "d": 359.0905499999935,
      "v": 101
    },
    {
      "midi": 60,
      "hit": false,
      "t": 147636.21599999978,
      "d": 359.0905499999935,
      "v": 121
    },
    {
      "midi": 63,
      "hit": false,
      "t": 147636.21599999978,
      "d": 359.0905499999935,
      "v": 102
    },
    {
      "midi": 75,
      "hit": false,
      "t": 147636.216,
      "d": 359.0905499999935,
      "v": 123
    },
    {
      "midi": 51,
      "hit": false,
      "t": 147636.216,
      "d": 359.0905499999935,
      "v": 121
    },
    {
      "midi": 58,
      "hit": false,
      "t": 147999.85199999978,
      "d": 359.0905499999935,
      "v": 115
    },
    {
      "midi": 62,
      "hit": false,
      "t": 147999.85199999978,
      "d": 359.0905499999935,
      "v": 127
    },
    {
      "midi": 74,
      "hit": false,
      "t": 147999.85199999998,
      "d": 359.0905499999935,
      "v": 118
    },
    {
      "midi": 50,
      "hit": false,
      "t": 147999.85199999998,
      "d": 359.0905499999935,
      "v": 117
    },
    {
      "midi": 55,
      "hit": false,
      "t": 148363.48799999966,
      "d": 2299.997700000007,
      "v": 51
    },
    {
      "midi": 58,
      "hit": false,
      "t": 148363.48799999966,
      "d": 2522.724749999994,
      "v": 52
    },
    {
      "midi": 63,
      "hit": false,
      "t": 148363.48799999966,
      "d": 2527.270199999999,
      "v": 57
    },
    {
      "midi": 67,
      "hit": false,
      "t": 148363.48799999966,
      "d": 2527.270199999999,
      "v": 60
    },
    {
      "midi": 63,
      "hit": false,
      "t": 148363.48799999978,
      "d": 1631.8165499999886,
      "v": 115
    },
    {
      "midi": 75,
      "hit": false,
      "t": 148363.48799999998,
      "d": 3813.6325500000094,
      "v": 109
    },
    {
      "midi": 51,
      "hit": false,
      "t": 148363.48799999998,
      "d": 3813.6325500000094,
      "v": 116
    },
    {
      "midi": 55,
      "hit": false,
      "t": 148908.94199999978,
      "d": 540.9085499999928,
      "v": 114
    },
    {
      "midi": 58,
      "hit": false,
      "t": 148908.94199999978,
      "d": 540.9085499999928,
      "v": 110
    },
    {
      "midi": 53,
      "hit": false,
      "t": 149454.39599999978,
      "d": 1086.3625499999907,
      "v": 112
    },
    {
      "midi": 60,
      "hit": false,
      "t": 149454.39599999978,
      "d": 1086.3625499999907,
      "v": 115
    },
    {
      "midi": 72,
      "hit": false,
      "t": 149999.84999999977,
      "d": 540.9085499999928,
      "v": 121
    },
    {
      "midi": 74,
      "hit": false,
      "t": 150545.30399999977,
      "d": 1631.8165499999886,
      "v": 115
    },
    {
      "midi": 79,
      "hit": false,
      "t": 150545.30399999977,
      "d": 1631.8165499999886,
      "v": 107
    },
    {
      "midi": 82,
      "hit": false,
      "t": 150545.30399999977,
      "d": 1631.8165499999886,
      "v": 115
    },
    {
      "midi": 55,
      "hit": false,
      "t": 151090.75799999965,
      "d": 140.90895000001183,
      "v": 91
    },
    {
      "midi": 58,
      "hit": false,
      "t": 151272.57599999965,
      "d": 199.9997999999905,
      "v": 66
    },
    {
      "midi": 63,
      "hit": false,
      "t": 151454.39399999965,
      "d": 131.81805000000168,
      "v": 68
    },
    {
      "midi": 55,
      "hit": false,
      "t": 151636.21199999965,
      "d": 545.4539999999979,
      "v": 68
    },
    {
      "midi": 58,
      "hit": false,
      "t": 151636.21199999965,
      "d": 545.4539999999979,
      "v": 80
    },
    {
      "midi": 63,
      "hit": false,
      "t": 151636.21199999965,
      "d": 545.4539999999979,
      "v": 68
    },
    {
      "midi": 67,
      "hit": false,
      "t": 151636.21199999965,
      "d": 545.4539999999979,
      "v": 76
    }
  ]
}