{
  "jsonPath": "World/Panpipe/Panpipes/perfect-moment.json",
  "path": "World\\Panpipe\\Panpipes\\Perfect Moment.mid",
  "name": "Perfect Moment",
  "difficulty": "Advanced",
  "bpm": 72.00002880001152,
  "notes": [
    {
      "midi": 96,
      "hit": false,
      "t": 6898.330078125,
      "d": 20136.39375000003,
      "v": 71
    },
    {
      "midi": 80,
      "hit": false,
      "t": 7975.142578125,
      "d": 246.76953125,
      "v": 43
    },
    {
      "midi": 82,
      "hit": false,
      "t": 8177.044921875,
      "d": 659.5476562499989,
      "v": 83
    },
    {
      "midi": 78,
      "hit": false,
      "t": 8190.505078125,
      "d": 632.6273437499995,
      "v": 87
    },
    {
      "midi": 77,
      "hit": false,
      "t": 8823.132421875,
      "d": 646.0874999999978,
      "v": 88
    },
    {
      "midi": 85,
      "hit": false,
      "t": 8836.592578124999,
      "d": 619.1671874999993,
      "v": 77
    },
    {
      "midi": 75,
      "hit": false,
      "t": 9469.219921874997,
      "d": 834.5296875000004,
      "v": 84
    },
    {
      "midi": 78,
      "hit": false,
      "t": 9469.219921874997,
      "d": 874.91015625,
      "v": 85
    },
    {
      "midi": 73,
      "hit": false,
      "t": 10330.669921874998,
      "d": 861.4499999999989,
      "v": 89
    },
    {
      "midi": 82,
      "hit": false,
      "t": 10357.590234374997,
      "d": 834.5296875000004,
      "v": 82
    },
    {
      "midi": 75,
      "hit": false,
      "t": 11205.580078124996,
      "d": 847.9898437499924,
      "v": 79
    },
    {
      "midi": 72,
      "hit": false,
      "t": 11205.580078124996,
      "d": 861.4499999999916,
      "v": 86
    },
    {
      "midi": 78,
      "hit": false,
      "t": 12067.030078124988,
      "d": 1660.08593749998,
      "v": 76
    },
    {
      "midi": 70,
      "hit": false,
      "t": 12067.030078124988,
      "d": 1682.51953124998,
      "v": 82
    },
    {
      "midi": 46,
      "hit": false,
      "t": 12067.030078124999,
      "d": 1709.4398437500004,
      "v": 91
    },
    {
      "midi": 58,
      "hit": false,
      "t": 12067.030078124999,
      "d": 1709.4398437500004,
      "v": 92
    },
    {
      "midi": 54,
      "hit": false,
      "t": 12067.030078124999,
      "d": 1722.8999999999996,
      "v": 92
    },
    {
      "midi": 51,
      "hit": false,
      "t": 12067.030078124999,
      "d": 1736.360156249999,
      "v": 75
    },
    {
      "midi": 39,
      "hit": false,
      "t": 12067.030078124999,
      "d": 1749.8203124999982,
      "v": 96
    },
    {
      "midi": 65,
      "hit": false,
      "t": 13789.930078124968,
      "d": 861.4500000000007,
      "v": 87
    },
    {
      "midi": 77,
      "hit": false,
      "t": 13789.930078124968,
      "d": 861.4500000000007,
      "v": 78
    },
    {
      "midi": 48,
      "hit": false,
      "t": 13789.930078124999,
      "d": 861.4499999999989,
      "v": 93
    },
    {
      "midi": 53,
      "hit": false,
      "t": 13789.930078124999,
      "d": 874.9101562499982,
      "v": 80
    },
    {
      "midi": 60,
      "hit": false,
      "t": 13789.930078124999,
      "d": 874.9101562499982,
      "v": 87
    },
    {
      "midi": 41,
      "hit": false,
      "t": 13789.930078124999,
      "d": 879.3968749999985,
      "v": 103
    },
    {
      "midi": 61,
      "hit": false,
      "t": 14651.380078124968,
      "d": 1736.360156249999,
      "v": 80
    },
    {
      "midi": 58,
      "hit": false,
      "t": 14651.380078124997,
      "d": 1722.8999999999996,
      "v": 93
    },
    {
      "midi": 42,
      "hit": false,
      "t": 14651.380078124997,
      "d": 1736.360156249999,
      "v": 104
    },
    {
      "midi": 54,
      "hit": false,
      "t": 14651.380078124997,
      "d": 1736.360156249999,
      "v": 91
    },
    {
      "midi": 49,
      "hit": false,
      "t": 14651.380078124997,
      "d": 1749.8203124999982,
      "v": 94
    },
    {
      "midi": 73,
      "hit": false,
      "t": 14664.840234374968,
      "d": 1682.51953125,
      "v": 83
    },
    {
      "midi": 63,
      "hit": false,
      "t": 16374.280078124968,
      "d": 3798.0074218749687,
      "v": 87
    },
    {
      "midi": 75,
      "hit": false,
      "t": 16374.280078124968,
      "d": 3984.2062499999665,
      "v": 85
    },
    {
      "midi": 56,
      "hit": false,
      "t": 16374.280078124997,
      "d": 4060.4804687499563,
      "v": 88
    },
    {
      "midi": 51,
      "hit": false,
      "t": 16374.280078124997,
      "d": 4064.967187499955,
      "v": 93
    },
    {
      "midi": 44,
      "hit": false,
      "t": 16374.280078124997,
      "d": 4266.869531249951,
      "v": 104
    },
    {
      "midi": 87,
      "hit": false,
      "t": 20674.8,
      "d": 5332.4652343749985,
      "v": 52
    },
    {
      "midi": 89,
      "hit": false,
      "t": 25421.7484375,
      "d": 132.35820312500073,
      "v": 104
    },
    {
      "midi": 87,
      "hit": false,
      "t": 26280.955078125,
      "d": 125.62812499999927,
      "v": 100
    },
    {
      "midi": 77,
      "hit": false,
      "t": 26698.219921875,
      "d": 197.41562500000146,
      "v": 85
    },
    {
      "midi": 75,
      "hit": false,
      "t": 26927.042578125,
      "d": 143.57500000000073,
      "v": 84
    },
    {
      "midi": 73,
      "hit": false,
      "t": 27137.918359375002,
      "d": 275.93320312500146,
      "v": 87
    },
    {
      "midi": 87,
      "hit": false,
      "t": 27566.399999999998,
      "d": 5332.465234375002,
      "v": 54
    },
    {
      "midi": 96,
      "hit": false,
      "t": 27566.40000000003,
      "d": 13567.83749999995,
      "v": 75
    },
    {
      "midi": 85,
      "hit": false,
      "t": 27573.130078125,
      "d": 722.3617187499985,
      "v": 99
    },
    {
      "midi": 75,
      "hit": false,
      "t": 27575.373437500002,
      "d": 354.45078125000146,
      "v": 85
    },
    {
      "midi": 75,
      "hit": false,
      "t": 28008.341796875004,
      "d": 964.6445312500073,
      "v": 80
    },
    {
      "midi": 92,
      "hit": false,
      "t": 28434.580078124996,
      "d": 332.01718750000146,
      "v": 102
    },
    {
      "midi": 89,
      "hit": false,
      "t": 28865.305078125,
      "d": 648.3308593750007,
      "v": 99
    },
    {
      "midi": 92,
      "hit": false,
      "t": 29726.755078125,
      "d": 399.31796875000146,
      "v": 98
    },
    {
      "midi": 77,
      "hit": false,
      "t": 30164.210156250014,
      "d": 145.818359375,
      "v": 89
    },
    {
      "midi": 75,
      "hit": false,
      "t": 30381.816015625012,
      "d": 112.16796875,
      "v": 88
    },
    {
      "midi": 73,
      "hit": false,
      "t": 30590.448437500014,
      "d": 226.57929687499927,
      "v": 85
    },
    {
      "midi": 84,
      "hit": false,
      "t": 31018.930078125002,
      "d": 204.14570312499927,
      "v": 98
    },
    {
      "midi": 75,
      "hit": false,
      "t": 31018.930078125013,
      "d": 309.58359375000146,
      "v": 86
    },
    {
      "midi": 75,
      "hit": false,
      "t": 31449.655078125015,
      "d": 962.4011718749971,
      "v": 89
    },
    {
      "midi": 92,
      "hit": false,
      "t": 31880.380078125003,
      "d": 183.95546874999854,
      "v": 96
    },
    {
      "midi": 84,
      "hit": false,
      "t": 32311.105078125,
      "d": 181.71210937499927,
      "v": 95
    },
    {
      "midi": 75,
      "hit": false,
      "t": 32741.83007812502,
      "d": 296.1234375000022,
      "v": 85
    },
    {
      "midi": 92,
      "hit": false,
      "t": 33172.555078125,
      "d": 192.9289062500029,
      "v": 102
    },
    {
      "midi": 73,
      "hit": false,
      "t": 33172.55507812502,
      "d": 747.0386718750087,
      "v": 81
    },
    {
      "midi": 84,
      "hit": false,
      "t": 34034.005078125,
      "d": 181.7121093750029,
      "v": 95
    },
    {
      "midi": 73,
      "hit": false,
      "t": 34034.005078125025,
      "d": 787.4191406249956,
      "v": 87
    },
    {
      "midi": 87,
      "hit": false,
      "t": 34458,
      "d": 5332.4652343749985,
      "v": 45
    },
    {
      "midi": 85,
      "hit": false,
      "t": 34464.73007812501,
      "d": 722.3617187499985,
      "v": 104
    },
    {
      "midi": 73,
      "hit": false,
      "t": 34881.99492187502,
      "d": 1837.311328124997,
      "v": 85
    },
    {
      "midi": 61,
      "hit": false,
      "t": 35326.180078125,
      "d": 118.89804687500146,
      "v": 36
    },
    {
      "midi": 92,
      "hit": false,
      "t": 35326.180078125006,
      "d": 332.01718750000146,
      "v": 102
    },
    {
      "midi": 63,
      "hit": false,
      "t": 35541.542578125,
      "d": 118.89804687500146,
      "v": 42
    },
    {
      "midi": 89,
      "hit": false,
      "t": 35756.905078125004,
      "d": 648.3308593749971,
      "v": 97
    },
    {
      "midi": 68,
      "hit": false,
      "t": 35756.905078125004,
      "d": 118.89804687500146,
      "v": 48
    },
    {
      "midi": 61,
      "hit": false,
      "t": 35965.537500000006,
      "d": 118.89804687500146,
      "v": 54
    },
    {
      "midi": 63,
      "hit": false,
      "t": 36180.90000000001,
      "d": 118.89804687500146,
      "v": 60
    },
    {
      "midi": 65,
      "hit": false,
      "t": 36389.53242187501,
      "d": 118.89804687500146,
      "v": 66
    },
    {
      "midi": 68,
      "hit": false,
      "t": 36616.11171875001,
      "d": 118.89804687500146,
      "v": 73
    },
    {
      "midi": 92,
      "hit": false,
      "t": 36618.355078125,
      "d": 399.31796875000146,
      "v": 96
    },
    {
      "midi": 61,
      "hit": false,
      "t": 36829.23085937501,
      "d": 118.89804687500146,
      "v": 79
    },
    {
      "midi": 63,
      "hit": false,
      "t": 37049.080078125015,
      "d": 118.89804687500146,
      "v": 85
    },
    {
      "midi": 65,
      "hit": false,
      "t": 37250.982421875015,
      "d": 118.89804687500146,
      "v": 91
    },
    {
      "midi": 68,
      "hit": false,
      "t": 37479.80507812502,
      "d": 118.89804687500146,
      "v": 90
    },
    {
      "midi": 61,
      "hit": false,
      "t": 37697.41093750002,
      "d": 118.89804687500146,
      "v": 85
    },
    {
      "midi": 84,
      "hit": false,
      "t": 37910.530078125004,
      "d": 204.1457031250029,
      "v": 96
    },
    {
      "midi": 60,
      "hit": false,
      "t": 37910.53007812502,
      "d": 118.89804687500146,
      "v": 80
    },
    {
      "midi": 63,
      "hit": false,
      "t": 38125.89257812502,
      "d": 118.89804687500146,
      "v": 74
    },
    {
      "midi": 68,
      "hit": false,
      "t": 38341.255078125025,
      "d": 118.89804687500146,
      "v": 69
    },
    {
      "midi": 60,
      "hit": false,
      "t": 38556.61757812503,
      "d": 118.89804687500146,
      "v": 63
    },
    {
      "midi": 92,
      "hit": false,
      "t": 38771.98007812501,
      "d": 183.95546874999854,
      "v": 97
    },
    {
      "midi": 61,
      "hit": false,
      "t": 38771.98007812503,
      "d": 118.89804687500146,
      "v": 58
    },
    {
      "midi": 63,
      "hit": false,
      "t": 38987.34257812503,
      "d": 118.89804687500146,
      "v": 53
    },
    {
      "midi": 84,
      "hit": false,
      "t": 39202.70507812501,
      "d": 181.7121093750029,
      "v": 104
    },
    {
      "midi": 68,
      "hit": false,
      "t": 39202.70507812504,
      "d": 118.89804687500146,
      "v": 47
    },
    {
      "midi": 60,
      "hit": false,
      "t": 39418.06757812504,
      "d": 118.89804687500146,
      "v": 42
    },
    {
      "midi": 60,
      "hit": false,
      "t": 39626.70000000004,
      "d": 118.89804687500146,
      "v": 37
    },
    {
      "midi": 63,
      "hit": false,
      "t": 39835.33242187504,
      "d": 118.89804687500146,
      "v": 32
    },
    {
      "midi": 68,
      "hit": false,
      "t": 40050.694921875045,
      "d": 118.89804687500146,
      "v": 26
    },
    {
      "midi": 92,
      "hit": false,
      "t": 40064.15507812501,
      "d": 192.9289062500029,
      "v": 97
    },
    {
      "midi": 77,
      "hit": false,
      "t": 40481.41992187502,
      "d": 197.41562500000146,
      "v": 84
    },
    {
      "midi": 75,
      "hit": false,
      "t": 40710.24257812502,
      "d": 143.5749999999971,
      "v": 88
    },
    {
      "midi": 73,
      "hit": false,
      "t": 40921.11835937502,
      "d": 275.93320312500146,
      "v": 87
    },
    {
      "midi": 84,
      "hit": false,
      "t": 40925.605078125016,
      "d": 181.7121093750029,
      "v": 100
    },
    {
      "midi": 96,
      "hit": false,
      "t": 41349.599999999984,
      "d": 13567.837500000045,
      "v": 78
    },
    {
      "midi": 87,
      "hit": false,
      "t": 41349.6,
      "d": 5332.4652343749985,
      "v": 51
    },
    {
      "midi": 85,
      "hit": false,
      "t": 41356.33007812502,
      "d": 722.3617187499985,
      "v": 101
    },
    {
      "midi": 75,
      "hit": false,
      "t": 41358.57343750002,
      "d": 354.45078125000146,
      "v": 85
    },
    {
      "midi": 75,
      "hit": false,
      "t": 41791.54179687502,
      "d": 964.6445312499927,
      "v": 82
    },
    {
      "midi": 92,
      "hit": false,
      "t": 42217.78007812502,
      "d": 332.01718750000146,
      "v": 97
    },
    {
      "midi": 89,
      "hit": false,
      "t": 42648.50507812502,
      "d": 648.3308593749971,
      "v": 103
    },
    {
      "midi": 92,
      "hit": false,
      "t": 43509.955078125015,
      "d": 399.31796875000146,
      "v": 101
    },
    {
      "midi": 77,
      "hit": false,
      "t": 43947.410156250015,
      "d": 145.818359375,
      "v": 85
    },
    {
      "midi": 75,
      "hit": false,
      "t": 44165.01601562501,
      "d": 112.16796875,
      "v": 82
    },
    {
      "midi": 73,
      "hit": false,
      "t": 44373.648437500015,
      "d": 226.5792968750029,
      "v": 85
    },
    {
      "midi": 84,
      "hit": false,
      "t": 44802.13007812502,
      "d": 204.1457031250029,
      "v": 96
    },
    {
      "midi": 75,
      "hit": false,
      "t": 44802.13007812502,
      "d": 309.58359375000146,
      "v": 85
    },
    {
      "midi": 75,
      "hit": false,
      "t": 45232.85507812502,
      "d": 962.4011718750116,
      "v": 80
    },
    {
      "midi": 92,
      "hit": false,
      "t": 45663.58007812502,
      "d": 183.95546874999854,
      "v": 100
    },
    {
      "midi": 84,
      "hit": false,
      "t": 46094.30507812502,
      "d": 181.7121093750029,
      "v": 95
    },
    {
      "midi": 75,
      "hit": false,
      "t": 46525.03007812503,
      "d": 296.12343749999854,
      "v": 83
    },
    {
      "midi": 92,
      "hit": false,
      "t": 46955.755078125025,
      "d": 192.9289062500029,
      "v": 104
    },
    {
      "midi": 73,
      "hit": false,
      "t": 46955.75507812503,
      "d": 747.0386718749942,
      "v": 83
    },
    {
      "midi": 84,
      "hit": false,
      "t": 47817.20507812503,
      "d": 181.7121093750029,
      "v": 99
    },
    {
      "midi": 73,
      "hit": false,
      "t": 47817.20507812503,
      "d": 787.4191406250029,
      "v": 80
    },
    {
      "midi": 87,
      "hit": false,
      "t": 48241.2,
      "d": 5332.4652343749985,
      "v": 54
    },
    {
      "midi": 85,
      "hit": false,
      "t": 48247.930078125035,
      "d": 722.3617187499985,
      "v": 101
    },
    {
      "midi": 73,
      "hit": false,
      "t": 48665.19492187503,
      "d": 1837.3113281250044,
      "v": 85
    },
    {
      "midi": 92,
      "hit": false,
      "t": 49109.38007812503,
      "d": 332.01718750000146,
      "v": 101
    },
    {
      "midi": 61,
      "hit": false,
      "t": 49109.38007812505,
      "d": 118.89804687500146,
      "v": 19
    },
    {
      "midi": 63,
      "hit": false,
      "t": 49324.74257812505,
      "d": 118.89804687500146,
      "v": 27
    },
    {
      "midi": 89,
      "hit": false,
      "t": 49540.10507812503,
      "d": 648.3308593749971,
      "v": 102
    },
    {
      "midi": 68,
      "hit": false,
      "t": 49540.10507812505,
      "d": 118.89804687500146,
      "v": 36
    },
    {
      "midi": 61,
      "hit": false,
      "t": 49748.737500000054,
      "d": 118.89804687500146,
      "v": 44
    },
    {
      "midi": 63,
      "hit": false,
      "t": 49964.10000000006,
      "d": 118.89804687500146,
      "v": 52
    },
    {
      "midi": 65,
      "hit": false,
      "t": 50172.73242187506,
      "d": 118.89804687500146,
      "v": 60
    },
    {
      "midi": 68,
      "hit": false,
      "t": 50399.31171875006,
      "d": 118.89804687500146,
      "v": 69
    },
    {
      "midi": 92,
      "hit": false,
      "t": 50401.55507812503,
      "d": 399.31796875000146,
      "v": 99
    },
    {
      "midi": 61,
      "hit": false,
      "t": 50612.43085937506,
      "d": 118.89804687500146,
      "v": 77
    },
    {
      "midi": 63,
      "hit": false,
      "t": 50832.28007812506,
      "d": 118.89804687500146,
      "v": 85
    },
    {
      "midi": 65,
      "hit": false,
      "t": 51034.18242187506,
      "d": 118.89804687500146,
      "v": 93
    },
    {
      "midi": 68,
      "hit": false,
      "t": 51263.00507812507,
      "d": 118.89804687500146,
      "v": 94
    },
    {
      "midi": 61,
      "hit": false,
      "t": 51480.61093750007,
      "d": 118.89804687500146,
      "v": 88
    },
    {
      "midi": 84,
      "hit": false,
      "t": 51693.73007812503,
      "d": 204.1457031250029,
      "v": 98
    },
    {
      "midi": 60,
      "hit": false,
      "t": 51693.73007812507,
      "d": 118.89804687500146,
      "v": 82
    },
    {
      "midi": 63,
      "hit": false,
      "t": 51909.09257812507,
      "d": 118.89804687500146,
      "v": 76
    },
    {
      "midi": 68,
      "hit": false,
      "t": 52124.45507812507,
      "d": 118.89804687500146,
      "v": 71
    },
    {
      "midi": 60,
      "hit": false,
      "t": 52339.817578125076,
      "d": 118.89804687500146,
      "v": 65
    },
    {
      "midi": 92,
      "hit": false,
      "t": 52555.180078125035,
      "d": 183.95546874999854,
      "v": 99
    },
    {
      "midi": 61,
      "hit": false,
      "t": 52555.18007812508,
      "d": 118.89804687500146,
      "v": 59
    },
    {
      "midi": 63,
      "hit": false,
      "t": 52770.54257812508,
      "d": 118.89804687500146,
      "v": 53
    },
    {
      "midi": 84,
      "hit": false,
      "t": 52985.90507812503,
      "d": 181.7121093750029,
      "v": 95
    },
    {
      "midi": 68,
      "hit": false,
      "t": 52985.905078125084,
      "d": 118.89804687500146,
      "v": 47
    },
    {
      "midi": 60,
      "hit": false,
      "t": 53201.26757812509,
      "d": 118.89804687500146,
      "v": 42
    },
    {
      "midi": 60,
      "hit": false,
      "t": 53409.90000000009,
      "d": 118.89804687500146,
      "v": 36
    },
    {
      "midi": 56,
      "hit": false,
      "t": 53416.630078124945,
      "d": 874.91015625,
      "v": 76
    },
    {
      "midi": 61,
      "hit": false,
      "t": 53416.630078124945,
      "d": 888.3703125000029,
      "v": 75
    },
    {
      "midi": 63,
      "hit": false,
      "t": 53618.53242187509,
      "d": 118.89804687500146,
      "v": 30
    },
    {
      "midi": 68,
      "hit": false,
      "t": 53833.89492187509,
      "d": 118.89804687500146,
      "v": 24
    },
    {
      "midi": 58,
      "hit": false,
      "t": 54278.08007812494,
      "d": 821.0695312500029,
      "v": 82
    },
    {
      "midi": 63,
      "hit": false,
      "t": 54278.08007812494,
      "d": 874.9101562500073,
      "v": 77
    },
    {
      "midi": 61,
      "hit": false,
      "t": 54278.080078125,
      "d": 228.82265624999854,
      "v": 95
    },
    {
      "midi": 66,
      "hit": false,
      "t": 54278.080078125,
      "d": 242.28281250000146,
      "v": 97
    },
    {
      "midi": 77,
      "hit": false,
      "t": 54278.08007812504,
      "d": 150.30507812499854,
      "v": 84
    },
    {
      "midi": 66,
      "hit": false,
      "t": 54551.769921875,
      "d": 228.82265625000582,
      "v": 98
    },
    {
      "midi": 63,
      "hit": false,
      "t": 54565.230078125,
      "d": 242.28281250000146,
      "v": 104
    },
    {
      "midi": 78,
      "hit": false,
      "t": 54565.23007812504,
      "d": 215.3625000000029,
      "v": 87
    },
    {
      "midi": 68,
      "hit": false,
      "t": 54838.919921875,
      "d": 228.82265625000582,
      "v": 102
    },
    {
      "midi": 80,
      "hit": false,
      "t": 54847.89335937504,
      "d": 195.17226562499854,
      "v": 89
    },
    {
      "midi": 65,
      "hit": false,
      "t": 54852.380078125,
      "d": 228.82265625000582,
      "v": 96
    },
    {
      "midi": 58,
      "hit": false,
      "t": 55078.959375,
      "d": 3113.7828125000015,
      "v": 51
    },
    {
      "midi": 65,
      "hit": false,
      "t": 55123.826562500006,
      "d": 1776.7406250000058,
      "v": 100
    },
    {
      "midi": 42,
      "hit": false,
      "t": 55126.06992187494,
      "d": 3445.800000000003,
      "v": 86
    },
    {
      "midi": 61,
      "hit": false,
      "t": 55126.06992187501,
      "d": 1772.25390625,
      "v": 104
    },
    {
      "midi": 68,
      "hit": false,
      "t": 55126.06992187501,
      "d": 1803.6609375000044,
      "v": 96
    },
    {
      "midi": 58,
      "hit": false,
      "t": 55132.799999999945,
      "d": 3434.583203125003,
      "v": 81
    },
    {
      "midi": 61,
      "hit": false,
      "t": 55132.799999999996,
      "d": 3095.8359375000073,
      "v": 51
    },
    {
      "midi": 49,
      "hit": false,
      "t": 55137.286718749994,
      "d": 3181.0835937500087,
      "v": 79
    },
    {
      "midi": 65,
      "hit": false,
      "t": 55139.530078124946,
      "d": 3418.8796875000044,
      "v": 81
    },
    {
      "midi": 61,
      "hit": false,
      "t": 55139.530078124946,
      "d": 3445.800000000003,
      "v": 77
    },
    {
      "midi": 70,
      "hit": false,
      "t": 55139.530078125,
      "d": 3006.1015625,
      "v": 74
    },
    {
      "midi": 65,
      "hit": false,
      "t": 55139.530078125,
      "d": 2934.3140625000015,
      "v": 51
    },
    {
      "midi": 61,
      "hit": false,
      "t": 55139.530078125,
      "d": 3351.578906249997,
      "v": 97
    },
    {
      "midi": 80,
      "hit": false,
      "t": 55139.53007812504,
      "d": 1743.090234375013,
      "v": 82
    },
    {
      "midi": 61,
      "hit": false,
      "t": 55141.7734375,
      "d": 3181.0835937500015,
      "v": 77
    },
    {
      "midi": 65,
      "hit": false,
      "t": 55150.746875,
      "d": 3001.6148437500015,
      "v": 75
    },
    {
      "midi": 58,
      "hit": false,
      "t": 55159.720312499994,
      "d": 3145.189843750006,
      "v": 76
    },
    {
      "midi": 70,
      "hit": false,
      "t": 55186.640625,
      "d": 3091.3492187500015,
      "v": 51
    },
    {
      "midi": 63,
      "hit": false,
      "t": 56413.758203125,
      "d": 1915.8289062500044,
      "v": 99
    },
    {
      "midi": 68,
      "hit": false,
      "t": 56420.48828125,
      "d": 1895.638671875,
      "v": 101
    },
    {
      "midi": 77,
      "hit": false,
      "t": 57279.69492187505,
      "d": 390.3445312499971,
      "v": 85
    },
    {
      "midi": 65,
      "hit": false,
      "t": 57293.15507812501,
      "d": 390.3445312499971,
      "v": 102
    },
    {
      "midi": 61,
      "hit": false,
      "t": 57297.64179687501,
      "d": 376.88437500000146,
      "v": 97
    },
    {
      "midi": 61,
      "hit": false,
      "t": 57721.63671875001,
      "d": 376.88437500000146,
      "v": 101
    },
    {
      "midi": 63,
      "hit": false,
      "t": 57723.88007812501,
      "d": 376.88437500000146,
      "v": 97
    },
    {
      "midi": 66,
      "hit": false,
      "t": 57723.88007812501,
      "d": 417.2648437500029,
      "v": 96
    },
    {
      "midi": 78,
      "hit": false,
      "t": 57723.88007812505,
      "d": 309.58359375000146,
      "v": 80
    },
    {
      "midi": 68,
      "hit": false,
      "t": 58154.605078125016,
      "d": 376.88437500000146,
      "v": 98
    },
    {
      "midi": 61,
      "hit": false,
      "t": 58154.605078125016,
      "d": 430.7250000000058,
      "v": 98
    },
    {
      "midi": 80,
      "hit": false,
      "t": 58154.605078125045,
      "d": 309.58359375000146,
      "v": 88
    },
    {
      "midi": 65,
      "hit": false,
      "t": 58578.60000000002,
      "d": 1702.709765624997,
      "v": 95
    },
    {
      "midi": 46,
      "hit": false,
      "t": 58585.33007812495,
      "d": 3405.4195312500015,
      "v": 87
    },
    {
      "midi": 65,
      "hit": false,
      "t": 58585.33007812495,
      "d": 3418.8796875000044,
      "v": 84
    },
    {
      "midi": 58,
      "hit": false,
      "t": 58585.33007812495,
      "d": 3432.3398437500073,
      "v": 77
    },
    {
      "midi": 61,
      "hit": false,
      "t": 58585.33007812495,
      "d": 3445.80000000001,
      "v": 82
    },
    {
      "midi": 70,
      "hit": false,
      "t": 58585.33007812495,
      "d": 3634.2421875000073,
      "v": 77
    },
    {
      "midi": 61,
      "hit": false,
      "t": 58585.33007812499,
      "d": 3212.4906249999985,
      "v": 97
    },
    {
      "midi": 49,
      "hit": false,
      "t": 58585.330078125,
      "d": 3176.596875000003,
      "v": 76
    },
    {
      "midi": 58,
      "hit": false,
      "t": 58585.330078125,
      "d": 3176.596875000003,
      "v": 77
    },
    {
      "midi": 65,
      "hit": false,
      "t": 58585.330078125,
      "d": 3176.596875000003,
      "v": 77
    },
    {
      "midi": 61,
      "hit": false,
      "t": 58585.330078125,
      "d": 3203.5171875000015,
      "v": 79
    },
    {
      "midi": 68,
      "hit": false,
      "t": 58585.330078125,
      "d": 3216.9773437500044,
      "v": 71
    },
    {
      "midi": 68,
      "hit": false,
      "t": 58585.33007812502,
      "d": 1675.7894531249985,
      "v": 99
    },
    {
      "midi": 61,
      "hit": false,
      "t": 58585.33007812502,
      "d": 1687.0062499999985,
      "v": 97
    },
    {
      "midi": 78,
      "hit": false,
      "t": 58585.330078125044,
      "d": 1734.1167968749796,
      "v": 89
    },
    {
      "midi": 58,
      "hit": false,
      "t": 58587.573437500025,
      "d": 1642.1390624999985,
      "v": 98
    },
    {
      "midi": 61,
      "hit": false,
      "t": 59870.775,
      "d": 1864.2316406249956,
      "v": 102
    },
    {
      "midi": 65,
      "hit": false,
      "t": 59879.7484375,
      "d": 1861.98828125,
      "v": 99
    },
    {
      "midi": 65,
      "hit": false,
      "t": 60954.31757812502,
      "d": 204.1457031250029,
      "v": 99
    },
    {
      "midi": 61,
      "hit": false,
      "t": 60956.56093750002,
      "d": 210.8757812499971,
      "v": 100
    },
    {
      "midi": 77,
      "hit": false,
      "t": 60956.56093750002,
      "d": 123.384765625,
      "v": 81
    },
    {
      "midi": 65,
      "hit": false,
      "t": 61167.43671875002,
      "d": 174.98203125000146,
      "v": 100
    },
    {
      "midi": 77,
      "hit": false,
      "t": 61169.68007812502,
      "d": 199.6589843749971,
      "v": 84
    },
    {
      "midi": 61,
      "hit": false,
      "t": 61171.923437500016,
      "d": 174.98203125000146,
      "v": 101
    },
    {
      "midi": 66,
      "hit": false,
      "t": 61385.042578125016,
      "d": 201.90234375,
      "v": 101
    },
    {
      "midi": 63,
      "hit": false,
      "t": 61387.28593750002,
      "d": 188.4421874999971,
      "v": 104
    },
    {
      "midi": 78,
      "hit": false,
      "t": 61387.28593750002,
      "d": 145.818359375,
      "v": 84
    },
    {
      "midi": 68,
      "hit": false,
      "t": 61600.40507812502,
      "d": 323.04375000000437,
      "v": 95
    },
    {
      "midi": 80,
      "hit": false,
      "t": 61600.40507812502,
      "d": 269.203125,
      "v": 88
    },
    {
      "midi": 65,
      "hit": false,
      "t": 61602.64843750002,
      "d": 336.50390625,
      "v": 100
    },
    {
      "midi": 61,
      "hit": false,
      "t": 62017.66992187502,
      "d": 1662.329296875003,
      "v": 96
    },
    {
      "midi": 53,
      "hit": false,
      "t": 62024.39999999996,
      "d": 1749.8203124999927,
      "v": 81
    },
    {
      "midi": 39,
      "hit": false,
      "t": 62024.39999999996,
      "d": 3432.3398437499927,
      "v": 87
    },
    {
      "midi": 58,
      "hit": false,
      "t": 62024.39999999996,
      "d": 3432.3398437499927,
      "v": 78
    },
    {
      "midi": 65,
      "hit": false,
      "t": 62024.4,
      "d": 417.2648437500029,
      "v": 74
    },
    {
      "midi": 58,
      "hit": false,
      "t": 62024.4,
      "d": 3367.2824218749956,
      "v": 79
    },
    {
      "midi": 51,
      "hit": false,
      "t": 62024.4,
      "d": 3387.4726562499927,
      "v": 79
    },
    {
      "midi": 70,
      "hit": false,
      "t": 62028.88671875,
      "d": 3221.4640624999956,
      "v": 73
    },
    {
      "midi": 65,
      "hit": false,
      "t": 62031.13007812499,
      "d": 1722.9000000000015,
      "v": 102
    },
    {
      "midi": 63,
      "hit": false,
      "t": 62031.130078125,
      "d": 1695.9796874999956,
      "v": 77
    },
    {
      "midi": 80,
      "hit": false,
      "t": 62031.13007812502,
      "d": 1635.4089843749898,
      "v": 85
    },
    {
      "midi": 70,
      "hit": false,
      "t": 62031.130078125025,
      "d": 1662.329296875003,
      "v": 104
    },
    {
      "midi": 65,
      "hit": false,
      "t": 62033.37343750003,
      "d": 1608.4886718749985,
      "v": 102
    },
    {
      "midi": 65,
      "hit": false,
      "t": 62461.85507812496,
      "d": 448.671875,
      "v": 79
    },
    {
      "midi": 65,
      "hit": false,
      "t": 62461.855078125,
      "d": 446.4285156249971,
      "v": 71
    },
    {
      "midi": 65,
      "hit": false,
      "t": 62479.801953124996,
      "d": 446.4285156249971,
      "v": 104
    },
    {
      "midi": 61,
      "hit": false,
      "t": 62883.60664062496,
      "d": 448.6718749999927,
      "v": 77
    },
    {
      "midi": 61,
      "hit": false,
      "t": 62892.580078125,
      "d": 439.69843749999563,
      "v": 74
    },
    {
      "midi": 61,
      "hit": false,
      "t": 62917.257031249996,
      "d": 406.04804687498836,
      "v": 104
    },
    {
      "midi": 68,
      "hit": false,
      "t": 63305.35820312499,
      "d": 1913.5855468749942,
      "v": 99
    },
    {
      "midi": 63,
      "hit": false,
      "t": 63314.33164062499,
      "d": 1725.143359374997,
      "v": 104
    },
    {
      "midi": 65,
      "hit": false,
      "t": 63323.305078124955,
      "d": 450.91523437499563,
      "v": 77
    },
    {
      "midi": 65,
      "hit": false,
      "t": 63323.305078125,
      "d": 444.18515625000146,
      "v": 78
    },
    {
      "midi": 51,
      "hit": false,
      "t": 63740.56992187495,
      "d": 1736.3601562500044,
      "v": 79
    },
    {
      "midi": 63,
      "hit": false,
      "t": 63754.03007812495,
      "d": 1628.6789062499956,
      "v": 79
    },
    {
      "midi": 66,
      "hit": false,
      "t": 63754.03007812499,
      "d": 1218.1441406250015,
      "v": 104
    },
    {
      "midi": 63,
      "hit": false,
      "t": 63754.030078125,
      "d": 1402.099609375,
      "v": 77
    },
    {
      "midi": 73,
      "hit": false,
      "t": 64615.480078125016,
      "d": 235.552734375,
      "v": 80
    },
    {
      "midi": 61,
      "hit": false,
      "t": 64615.48007812503,
      "d": 251.25624999999854,
      "v": 102
    },
    {
      "midi": 56,
      "hit": false,
      "t": 64615.48007812503,
      "d": 269.203125,
      "v": 99
    },
    {
      "midi": 63,
      "hit": false,
      "t": 64889.16992187503,
      "d": 280.4199218750073,
      "v": 104
    },
    {
      "midi": 75,
      "hit": false,
      "t": 64902.63007812502,
      "d": 244.5261718749971,
      "v": 83
    },
    {
      "midi": 58,
      "hit": false,
      "t": 64902.63007812503,
      "d": 242.28281250000146,
      "v": 100
    },
    {
      "midi": 73,
      "hit": false,
      "t": 65176.319921875016,
      "d": 228.82265624999854,
      "v": 84
    },
    {
      "midi": 56,
      "hit": false,
      "t": 65176.31992187504,
      "d": 179.46875,
      "v": 95
    },
    {
      "midi": 61,
      "hit": false,
      "t": 65176.31992187504,
      "d": 181.7121093750029,
      "v": 96
    },
    {
      "midi": 80,
      "hit": false,
      "t": 65463.46992187502,
      "d": 805.3660156249971,
      "v": 89
    },
    {
      "midi": 61,
      "hit": false,
      "t": 65463.46992187504,
      "d": 2075.1074218750073,
      "v": 103
    },
    {
      "midi": 61,
      "hit": false,
      "t": 65470.19999999995,
      "d": 3432.33984375,
      "v": 81
    },
    {
      "midi": 52,
      "hit": false,
      "t": 65472.443359374956,
      "d": 1265.254687499997,
      "v": 79
    },
    {
      "midi": 57,
      "hit": false,
      "t": 65472.443359374985,
      "d": 1177.763671875,
      "v": 104
    },
    {
      "midi": 42,
      "hit": false,
      "t": 65476.930078124955,
      "d": 1278.7148437499927,
      "v": 93
    },
    {
      "midi": 56,
      "hit": false,
      "t": 65476.930078124955,
      "d": 1278.7148437499927,
      "v": 82
    },
    {
      "midi": 64,
      "hit": false,
      "t": 65476.930078124955,
      "d": 1307.8785156250015,
      "v": 78
    },
    {
      "midi": 68,
      "hit": false,
      "t": 65476.930078124955,
      "d": 1321.3386718750044,
      "v": 84
    },
    {
      "midi": 68,
      "hit": false,
      "t": 65476.930078124984,
      "d": 1094.7593750000015,
      "v": 101
    },
    {
      "midi": 49,
      "hit": false,
      "t": 65476.93007812499,
      "d": 1197.953906249997,
      "v": 72
    },
    {
      "midi": 64,
      "hit": false,
      "t": 65476.93007812499,
      "d": 713.3882812499942,
      "v": 100
    },
    {
      "midi": 64,
      "hit": false,
      "t": 65476.93007812504,
      "d": 776.2023437500102,
      "v": 99
    },
    {
      "midi": 57,
      "hit": false,
      "t": 65479.173437500045,
      "d": 1395.3695312499985,
      "v": 100
    },
    {
      "midi": 68,
      "hit": false,
      "t": 65485.90351562499,
      "d": 1211.4140625,
      "v": 73
    },
    {
      "midi": 56,
      "hit": false,
      "t": 65485.90351562499,
      "d": 1213.657421875003,
      "v": 73
    },
    {
      "midi": 61,
      "hit": false,
      "t": 65490.39023437499,
      "d": 1099.2460937499927,
      "v": 95
    },
    {
      "midi": 64,
      "hit": false,
      "t": 65490.39023437499,
      "d": 1157.5734374999956,
      "v": 75
    },
    {
      "midi": 64,
      "hit": false,
      "t": 66338.38007812499,
      "d": 457.64531250001164,
      "v": 101
    },
    {
      "midi": 78,
      "hit": false,
      "t": 66338.380078125,
      "d": 1110.4628906249854,
      "v": 82
    },
    {
      "midi": 64,
      "hit": false,
      "t": 66338.38007812505,
      "d": 390.3445312499971,
      "v": 100
    },
    {
      "midi": 57,
      "hit": false,
      "t": 66755.64492187495,
      "d": 2140.1648437500116,
      "v": 83
    },
    {
      "midi": 63,
      "hit": false,
      "t": 66755.64492187505,
      "d": 787.4191406250029,
      "v": 97
    },
    {
      "midi": 61,
      "hit": false,
      "t": 66762.37499999999,
      "d": 1846.2847656250087,
      "v": 96
    },
    {
      "midi": 57,
      "hit": false,
      "t": 66764.61835937499,
      "d": 1857.5015625000087,
      "v": 102
    },
    {
      "midi": 42,
      "hit": false,
      "t": 66769.10507812495,
      "d": 2126.7046875000087,
      "v": 91
    },
    {
      "midi": 51,
      "hit": false,
      "t": 66769.10507812495,
      "d": 2126.7046875000087,
      "v": 75
    },
    {
      "midi": 63,
      "hit": false,
      "t": 66769.10507812495,
      "d": 2126.7046875000087,
      "v": 79
    },
    {
      "midi": 66,
      "hit": false,
      "t": 66769.10507812495,
      "d": 2140.164843749997,
      "v": 82
    },
    {
      "midi": 66,
      "hit": false,
      "t": 66769.105078125,
      "d": 1814.877734374997,
      "v": 101
    },
    {
      "midi": 63,
      "hit": false,
      "t": 66769.105078125,
      "d": 1803.6609375000116,
      "v": 102
    },
    {
      "midi": 49,
      "hit": false,
      "t": 66771.3484375,
      "d": 1794.6875,
      "v": 77
    },
    {
      "midi": 66,
      "hit": false,
      "t": 66771.3484375,
      "d": 1841.798046875003,
      "v": 78
    },
    {
      "midi": 63,
      "hit": false,
      "t": 66771.3484375,
      "d": 1904.612109374997,
      "v": 76
    },
    {
      "midi": 57,
      "hit": false,
      "t": 66773.591796875,
      "d": 1868.7183593749942,
      "v": 76
    },
    {
      "midi": 61,
      "hit": false,
      "t": 67630.555078125,
      "d": 163.76523437499418,
      "v": 99
    },
    {
      "midi": 59,
      "hit": false,
      "t": 67845.917578125,
      "d": 125.62812500000291,
      "v": 71
    },
    {
      "midi": 77,
      "hit": false,
      "t": 68047.819921875,
      "d": 197.41562499999418,
      "v": 83
    },
    {
      "midi": 61,
      "hit": false,
      "t": 68061.280078125,
      "d": 747.0386718749942,
      "v": 90
    },
    {
      "midi": 75,
      "hit": false,
      "t": 68276.64257812499,
      "d": 143.5749999999971,
      "v": 85
    },
    {
      "midi": 73,
      "hit": false,
      "t": 68487.51835937498,
      "d": 275.9332031249942,
      "v": 87
    },
    {
      "midi": 65,
      "hit": false,
      "t": 68916,
      "d": 686.4679687500175,
      "v": 102
    },
    {
      "midi": 87,
      "hit": false,
      "t": 68916,
      "d": 5332.465234375006,
      "v": 54
    },
    {
      "midi": 61,
      "hit": false,
      "t": 68918.243359375,
      "d": 664.0343750000029,
      "v": 97
    },
    {
      "midi": 61,
      "hit": false,
      "t": 68920.48671874995,
      "d": 1832.8246093750786,
      "v": 84
    },
    {
      "midi": 53,
      "hit": false,
      "t": 68922.73007812495,
      "d": 1983.1296875000844,
      "v": 78
    },
    {
      "midi": 49,
      "hit": false,
      "t": 68922.73007812495,
      "d": 2021.2667968750757,
      "v": 80
    },
    {
      "midi": 37,
      "hit": false,
      "t": 68922.73007812495,
      "d": 2086.3242187500728,
      "v": 86
    },
    {
      "midi": 56,
      "hit": false,
      "t": 68922.73007812501,
      "d": 675.2511718750029,
      "v": 100
    },
    {
      "midi": 85,
      "hit": false,
      "t": 68922.73007812504,
      "d": 722.3617187500058,
      "v": 98
    },
    {
      "midi": 61,
      "hit": false,
      "t": 68922.73007812508,
      "d": 136.8449218750029,
      "v": 26
    },
    {
      "midi": 56,
      "hit": false,
      "t": 68924.97343749995,
      "d": 1967.4261718750786,
      "v": 76
    },
    {
      "midi": 75,
      "hit": false,
      "t": 68924.97343749998,
      "d": 354.4507812499942,
      "v": 80
    },
    {
      "midi": 65,
      "hit": false,
      "t": 69138.09257812508,
      "d": 109.92460937499709,
      "v": 31
    },
    {
      "midi": 68,
      "hit": false,
      "t": 69351.21171875008,
      "d": 96.46445312499418,
      "v": 35
    },
    {
      "midi": 75,
      "hit": false,
      "t": 69357.94179687498,
      "d": 964.6445312499709,
      "v": 86
    },
    {
      "midi": 61,
      "hit": false,
      "t": 69568.81757812508,
      "d": 159.2785156250029,
      "v": 40
    },
    {
      "midi": 80,
      "hit": false,
      "t": 69777.44999999998,
      "d": 432.96835937500873,
      "v": 82
    },
    {
      "midi": 73,
      "hit": false,
      "t": 69779.69335937499,
      "d": 410.53476562500873,
      "v": 88
    },
    {
      "midi": 77,
      "hit": false,
      "t": 69784.18007812499,
      "d": 403.8046875,
      "v": 82
    },
    {
      "midi": 92,
      "hit": false,
      "t": 69784.18007812505,
      "d": 332.0171874999942,
      "v": 99
    },
    {
      "midi": 63,
      "hit": false,
      "t": 69784.18007812508,
      "d": 89.734375,
      "v": 44
    },
    {
      "midi": 65,
      "hit": false,
      "t": 69999.54257812508,
      "d": 94.22109375000582,
      "v": 48
    },
    {
      "midi": 61,
      "hit": false,
      "t": 70192.47148437501,
      "d": 1942.7492187499884,
      "v": 97
    },
    {
      "midi": 68,
      "hit": false,
      "t": 70201.444921875,
      "d": 787.4191406250029,
      "v": 82
    },
    {
      "midi": 61,
      "hit": false,
      "t": 70201.444921875,
      "d": 1722.8999999999942,
      "v": 89
    },
    {
      "midi": 56,
      "hit": false,
      "t": 70201.444921875,
      "d": 1754.3070312499913,
      "v": 80
    },
    {
      "midi": 65,
      "hit": false,
      "t": 70201.44492187501,
      "d": 1924.8023437499942,
      "v": 95
    },
    {
      "midi": 56,
      "hit": false,
      "t": 70201.44492187501,
      "d": 1927.045703124997,
      "v": 102
    },
    {
      "midi": 65,
      "hit": false,
      "t": 70208.17499999999,
      "d": 1718.413281250003,
      "v": 83
    },
    {
      "midi": 73,
      "hit": false,
      "t": 70214.905078125,
      "d": 780.6890624999942,
      "v": 88
    },
    {
      "midi": 89,
      "hit": false,
      "t": 70214.90507812504,
      "d": 648.3308593749971,
      "v": 104
    },
    {
      "midi": 68,
      "hit": false,
      "t": 70214.90507812508,
      "d": 116.65468750000582,
      "v": 53
    },
    {
      "midi": 61,
      "hit": false,
      "t": 70430.26757812509,
      "d": 100.951171875,
      "v": 57
    },
    {
      "midi": 61,
      "hit": false,
      "t": 70645.63007812508,
      "d": 136.8449218750029,
      "v": 62
    },
    {
      "midi": 65,
      "hit": false,
      "t": 70860.99257812508,
      "d": 109.92460937499709,
      "v": 66
    },
    {
      "midi": 68,
      "hit": false,
      "t": 71074.11171875008,
      "d": 96.46445312499418,
      "v": 71
    },
    {
      "midi": 80,
      "hit": false,
      "t": 71076.355078125,
      "d": 982.5914062499942,
      "v": 81
    },
    {
      "midi": 77,
      "hit": false,
      "t": 71076.355078125,
      "d": 1009.51171875,
      "v": 88
    },
    {
      "midi": 68,
      "hit": false,
      "t": 71076.355078125,
      "d": 1022.9718750000029,
      "v": 89
    },
    {
      "midi": 92,
      "hit": false,
      "t": 71076.35507812504,
      "d": 399.3179687499942,
      "v": 95
    },
    {
      "midi": 61,
      "hit": false,
      "t": 71291.71757812507,
      "d": 159.2785156250029,
      "v": 75
    },
    {
      "midi": 63,
      "hit": false,
      "t": 71507.08007812507,
      "d": 89.734375,
      "v": 79
    },
    {
      "midi": 77,
      "hit": false,
      "t": 71513.81015624995,
      "d": 145.81835937498545,
      "v": 85
    },
    {
      "midi": 65,
      "hit": false,
      "t": 71722.44257812508,
      "d": 94.22109375000582,
      "v": 75
    },
    {
      "midi": 75,
      "hit": false,
      "t": 71731.41601562494,
      "d": 112.16796875,
      "v": 86
    },
    {
      "midi": 68,
      "hit": false,
      "t": 71937.80507812508,
      "d": 116.65468750000582,
      "v": 71
    },
    {
      "midi": 73,
      "hit": false,
      "t": 71940.04843749994,
      "d": 226.5792968750029,
      "v": 88
    },
    {
      "midi": 61,
      "hit": false,
      "t": 72153.16757812508,
      "d": 100.951171875,
      "v": 66
    },
    {
      "midi": 60,
      "hit": false,
      "t": 72348.33984375,
      "d": 1128.4097656250087,
      "v": 104
    },
    {
      "midi": 68,
      "hit": false,
      "t": 72364.043359375,
      "d": 1067.839062500003,
      "v": 99
    },
    {
      "midi": 63,
      "hit": false,
      "t": 72364.043359375,
      "d": 1081.2992187500058,
      "v": 102
    },
    {
      "midi": 75,
      "hit": false,
      "t": 72368.53007812494,
      "d": 309.5835937499942,
      "v": 83
    },
    {
      "midi": 84,
      "hit": false,
      "t": 72368.53007812503,
      "d": 204.1457031250029,
      "v": 96
    },
    {
      "midi": 60,
      "hit": false,
      "t": 72368.53007812507,
      "d": 107.68124999999418,
      "v": 62
    },
    {
      "midi": 63,
      "hit": false,
      "t": 72583.89257812506,
      "d": 100.951171875,
      "v": 57
    },
    {
      "midi": 75,
      "hit": false,
      "t": 72799.25507812493,
      "d": 962.4011718750262,
      "v": 83
    },
    {
      "midi": 68,
      "hit": false,
      "t": 72799.25507812505,
      "d": 130.11484374999418,
      "v": 53
    },
    {
      "midi": 60,
      "hit": false,
      "t": 73014.61757812503,
      "d": 125.62812500000291,
      "v": 48
    },
    {
      "midi": 77,
      "hit": false,
      "t": 73229.980078125,
      "d": 347.720703125,
      "v": 88
    },
    {
      "midi": 72,
      "hit": false,
      "t": 73229.980078125,
      "d": 390.3445312499971,
      "v": 83
    },
    {
      "midi": 80,
      "hit": false,
      "t": 73229.980078125,
      "d": 390.3445312499971,
      "v": 85
    },
    {
      "midi": 92,
      "hit": false,
      "t": 73229.98007812502,
      "d": 183.95546875000582,
      "v": 97
    },
    {
      "midi": 61,
      "hit": false,
      "t": 73229.98007812504,
      "d": 148.0617187500029,
      "v": 43
    },
    {
      "midi": 63,
      "hit": false,
      "t": 73445.34257812504,
      "d": 118.89804687499418,
      "v": 39
    },
    {
      "midi": 60,
      "hit": false,
      "t": 73653.975,
      "d": 1924.8023437499942,
      "v": 99
    },
    {
      "midi": 68,
      "hit": false,
      "t": 73656.21835937501,
      "d": 1895.638671875,
      "v": 95
    },
    {
      "midi": 56,
      "hit": false,
      "t": 73658.46171874998,
      "d": 1429.0199218749913,
      "v": 84
    },
    {
      "midi": 60,
      "hit": false,
      "t": 73658.46171874998,
      "d": 1431.2632812499942,
      "v": 82
    },
    {
      "midi": 68,
      "hit": false,
      "t": 73660.70507812499,
      "d": 661.791015625,
      "v": 81
    },
    {
      "midi": 72,
      "hit": false,
      "t": 73660.70507812499,
      "d": 695.44140625,
      "v": 89
    },
    {
      "midi": 63,
      "hit": false,
      "t": 73660.70507812499,
      "d": 1408.8296874999942,
      "v": 83
    },
    {
      "midi": 63,
      "hit": false,
      "t": 73660.70507812501,
      "d": 1909.0988281249884,
      "v": 98
    },
    {
      "midi": 84,
      "hit": false,
      "t": 73660.70507812503,
      "d": 181.7121093750029,
      "v": 96
    },
    {
      "midi": 68,
      "hit": false,
      "t": 73660.70507812503,
      "d": 116.65468750000582,
      "v": 34
    },
    {
      "midi": 60,
      "hit": false,
      "t": 73869.33750000004,
      "d": 121.14140624999709,
      "v": 30
    },
    {
      "midi": 75,
      "hit": false,
      "t": 74091.43007812496,
      "d": 296.1234375000058,
      "v": 84
    },
    {
      "midi": 60,
      "hit": false,
      "t": 74091.43007812503,
      "d": 121.14140624999709,
      "v": 28
    },
    {
      "midi": 63,
      "hit": false,
      "t": 74306.79257812504,
      "d": 121.14140624999709,
      "v": 28
    },
    {
      "midi": 73,
      "hit": false,
      "t": 74522.15507812497,
      "d": 747.0386718750087,
      "v": 83
    },
    {
      "midi": 80,
      "hit": false,
      "t": 74522.15507812498,
      "d": 726.8484374999971,
      "v": 89
    },
    {
      "midi": 68,
      "hit": false,
      "t": 74522.15507812498,
      "d": 767.2289062499913,
      "v": 88
    },
    {
      "midi": 77,
      "hit": false,
      "t": 74522.15507812498,
      "d": 789.6624999999913,
      "v": 82
    },
    {
      "midi": 92,
      "hit": false,
      "t": 74522.15507812503,
      "d": 192.9289062500029,
      "v": 102
    },
    {
      "midi": 68,
      "hit": false,
      "t": 74522.15507812503,
      "d": 87.49101562499709,
      "v": 27
    },
    {
      "midi": 60,
      "hit": false,
      "t": 74737.51757812503,
      "d": 139.08828125000582,
      "v": 26
    },
    {
      "midi": 61,
      "hit": false,
      "t": 74952.88007812503,
      "d": 125.62812500000291,
      "v": 25
    },
    {
      "midi": 63,
      "hit": false,
      "t": 75168.24257812503,
      "d": 112.16796875,
      "v": 27
    },
    {
      "midi": 56,
      "hit": false,
      "t": 75381.36171874998,
      "d": 403.8046875,
      "v": 84
    },
    {
      "midi": 60,
      "hit": false,
      "t": 75381.36171874998,
      "d": 430.7250000000058,
      "v": 89
    },
    {
      "midi": 68,
      "hit": false,
      "t": 75383.60507812498,
      "d": 444.1851562499942,
      "v": 88
    },
    {
      "midi": 72,
      "hit": false,
      "t": 75383.60507812498,
      "d": 444.1851562499942,
      "v": 87
    },
    {
      "midi": 63,
      "hit": false,
      "t": 75383.60507812498,
      "d": 390.3445312499971,
      "v": 82
    },
    {
      "midi": 73,
      "hit": false,
      "t": 75383.60507812498,
      "d": 787.4191406250175,
      "v": 86
    },
    {
      "midi": 84,
      "hit": false,
      "t": 75383.60507812502,
      "d": 181.7121093750029,
      "v": 102
    },
    {
      "midi": 68,
      "hit": false,
      "t": 75383.60507812504,
      "d": 91.97773437500291,
      "v": 30
    },
    {
      "midi": 60,
      "hit": false,
      "t": 75598.96757812504,
      "d": 83.00429687500582,
      "v": 33
    },
    {
      "midi": 56,
      "hit": false,
      "t": 75807.59999999998,
      "d": 3264.0878906251455,
      "v": 80
    },
    {
      "midi": 61,
      "hit": false,
      "t": 75807.59999999998,
      "d": 3264.0878906251455,
      "v": 88
    },
    {
      "midi": 53,
      "hit": false,
      "t": 75807.59999999998,
      "d": 3284.2781250001426,
      "v": 82
    },
    {
      "midi": 56,
      "hit": false,
      "t": 75807.6,
      "d": 684.224609375,
      "v": 101
    },
    {
      "midi": 87,
      "hit": false,
      "t": 75807.6,
      "d": 5332.465234375006,
      "v": 47
    },
    {
      "midi": 65,
      "hit": false,
      "t": 75809.84335937501,
      "d": 684.224609375,
      "v": 98
    },
    {
      "midi": 85,
      "hit": false,
      "t": 75814.33007812503,
      "d": 722.3617187500058,
      "v": 102
    },
    {
      "midi": 61,
      "hit": false,
      "t": 75814.33007812504,
      "d": 136.8449218750029,
      "v": 36
    },
    {
      "midi": 61,
      "hit": false,
      "t": 75818.816796875,
      "d": 648.3308593749971,
      "v": 98
    },
    {
      "midi": 65,
      "hit": false,
      "t": 76029.69257812505,
      "d": 109.92460937499709,
      "v": 40
    },
    {
      "midi": 73,
      "hit": false,
      "t": 76231.59492187499,
      "d": 1837.3113281250553,
      "v": 80
    },
    {
      "midi": 68,
      "hit": false,
      "t": 76242.81171875005,
      "d": 96.46445312499418,
      "v": 43
    },
    {
      "midi": 61,
      "hit": false,
      "t": 76460.41757812504,
      "d": 159.2785156250029,
      "v": 46
    },
    {
      "midi": 80,
      "hit": false,
      "t": 76669.04999999997,
      "d": 432.96835937500873,
      "v": 82
    },
    {
      "midi": 73,
      "hit": false,
      "t": 76671.29335937498,
      "d": 410.53476562500873,
      "v": 83
    },
    {
      "midi": 77,
      "hit": false,
      "t": 76675.78007812498,
      "d": 403.8046875,
      "v": 89
    },
    {
      "midi": 92,
      "hit": false,
      "t": 76675.78007812504,
      "d": 332.0171874999942,
      "v": 101
    },
    {
      "midi": 63,
      "hit": false,
      "t": 76675.78007812504,
      "d": 89.734375,
      "v": 49
    },
    {
      "midi": 65,
      "hit": false,
      "t": 76891.14257812504,
      "d": 94.22109375000582,
      "v": 52
    },
    {
      "midi": 61,
      "hit": false,
      "t": 77090.80156250001,
      "d": 1924.8023437500087,
      "v": 104
    },
    {
      "midi": 65,
      "hit": false,
      "t": 77090.80156250001,
      "d": 1927.0457031250116,
      "v": 100
    },
    {
      "midi": 68,
      "hit": false,
      "t": 77093.04492187499,
      "d": 787.4191406250029,
      "v": 82
    },
    {
      "midi": 56,
      "hit": false,
      "t": 77095.28828125002,
      "d": 1920.315625000003,
      "v": 100
    },
    {
      "midi": 73,
      "hit": false,
      "t": 77106.50507812499,
      "d": 780.6890624999942,
      "v": 88
    },
    {
      "midi": 89,
      "hit": false,
      "t": 77106.50507812503,
      "d": 648.3308593749971,
      "v": 100
    },
    {
      "midi": 68,
      "hit": false,
      "t": 77106.50507812505,
      "d": 116.65468750000582,
      "v": 55
    },
    {
      "midi": 61,
      "hit": false,
      "t": 77321.86757812505,
      "d": 100.951171875,
      "v": 58
    },
    {
      "midi": 61,
      "hit": false,
      "t": 77537.23007812504,
      "d": 136.8449218750029,
      "v": 62
    },
    {
      "midi": 65,
      "hit": false,
      "t": 77752.59257812504,
      "d": 109.92460937499709,
      "v": 65
    },
    {
      "midi": 68,
      "hit": false,
      "t": 77965.71171875004,
      "d": 96.46445312499418,
      "v": 68
    },
    {
      "midi": 80,
      "hit": false,
      "t": 77967.95507812499,
      "d": 982.5914062499942,
      "v": 87
    },
    {
      "midi": 77,
      "hit": false,
      "t": 77967.95507812499,
      "d": 1009.51171875,
      "v": 88
    },
    {
      "midi": 68,
      "hit": false,
      "t": 77967.95507812499,
      "d": 1022.9718750000029,
      "v": 85
    },
    {
      "midi": 92,
      "hit": false,
      "t": 77967.95507812503,
      "d": 399.3179687499942,
      "v": 104
    },
    {
      "midi": 61,
      "hit": false,
      "t": 78183.31757812503,
      "d": 159.2785156250029,
      "v": 70
    },
    {
      "midi": 63,
      "hit": false,
      "t": 78398.68007812503,
      "d": 89.734375,
      "v": 71
    },
    {
      "midi": 65,
      "hit": false,
      "t": 78614.04257812504,
      "d": 94.22109375000582,
      "v": 73
    },
    {
      "midi": 68,
      "hit": false,
      "t": 78829.40507812504,
      "d": 116.65468750000582,
      "v": 74
    },
    {
      "midi": 61,
      "hit": false,
      "t": 79044.76757812504,
      "d": 100.951171875,
      "v": 70
    },
    {
      "midi": 63,
      "hit": false,
      "t": 79242.18320312502,
      "d": 1200.197265625,
      "v": 100
    },
    {
      "midi": 60,
      "hit": false,
      "t": 79248.91328125002,
      "d": 1148.6000000000058,
      "v": 100
    },
    {
      "midi": 68,
      "hit": false,
      "t": 79253.40000000002,
      "d": 1157.573437500003,
      "v": 100
    },
    {
      "midi": 84,
      "hit": false,
      "t": 79260.13007812502,
      "d": 204.1457031250029,
      "v": 101
    },
    {
      "midi": 60,
      "hit": false,
      "t": 79260.13007812503,
      "d": 107.68124999999418,
      "v": 67
    },
    {
      "midi": 63,
      "hit": false,
      "t": 79475.49257812502,
      "d": 100.951171875,
      "v": 63
    },
    {
      "midi": 68,
      "hit": false,
      "t": 79690.85507812501,
      "d": 130.11484374999418,
      "v": 60
    },
    {
      "midi": 60,
      "hit": false,
      "t": 79906.217578125,
      "d": 125.62812500000291,
      "v": 56
    },
    {
      "midi": 77,
      "hit": false,
      "t": 80121.58007812499,
      "d": 347.720703125,
      "v": 83
    },
    {
      "midi": 72,
      "hit": false,
      "t": 80121.58007812499,
      "d": 390.3445312499971,
      "v": 89
    },
    {
      "midi": 80,
      "hit": false,
      "t": 80121.58007812499,
      "d": 390.3445312499971,
      "v": 86
    },
    {
      "midi": 61,
      "hit": false,
      "t": 80121.580078125,
      "d": 148.0617187500029,
      "v": 53
    },
    {
      "midi": 92,
      "hit": false,
      "t": 80121.58007812501,
      "d": 183.95546875000582,
      "v": 95
    },
    {
      "midi": 44,
      "hit": false,
      "t": 80126.06679687505,
      "d": 2573.1332031249913,
      "v": 121
    },
    {
      "midi": 63,
      "hit": false,
      "t": 80336.942578125,
      "d": 118.89804687499418,
      "v": 49
    },
    {
      "midi": 60,
      "hit": false,
      "t": 80547.81835937503,
      "d": 1922.5589843750058,
      "v": 96
    },
    {
      "midi": 68,
      "hit": false,
      "t": 80552.30507812498,
      "d": 661.791015625,
      "v": 87
    },
    {
      "midi": 72,
      "hit": false,
      "t": 80552.30507812498,
      "d": 695.44140625,
      "v": 80
    },
    {
      "midi": 68,
      "hit": false,
      "t": 80552.30507812499,
      "d": 116.65468750000582,
      "v": 46
    },
    {
      "midi": 84,
      "hit": false,
      "t": 80552.30507812502,
      "d": 181.7121093750029,
      "v": 104
    },
    {
      "midi": 68,
      "hit": false,
      "t": 80552.30507812503,
      "d": 1888.9085937500058,
      "v": 98
    },
    {
      "midi": 63,
      "hit": false,
      "t": 80552.30507812503,
      "d": 1909.098828125003,
      "v": 104
    },
    {
      "midi": 60,
      "hit": false,
      "t": 80760.9375,
      "d": 121.14140624999709,
      "v": 43
    },
    {
      "midi": 60,
      "hit": false,
      "t": 80983.030078125,
      "d": 121.14140624999709,
      "v": 39
    },
    {
      "midi": 63,
      "hit": false,
      "t": 81198.392578125,
      "d": 121.14140624999709,
      "v": 36
    },
    {
      "midi": 80,
      "hit": false,
      "t": 81413.75507812497,
      "d": 726.8484374999971,
      "v": 88
    },
    {
      "midi": 68,
      "hit": false,
      "t": 81413.75507812497,
      "d": 767.2289062499913,
      "v": 81
    },
    {
      "midi": 77,
      "hit": false,
      "t": 81413.75507812497,
      "d": 789.6624999999913,
      "v": 87
    },
    {
      "midi": 68,
      "hit": false,
      "t": 81413.75507812499,
      "d": 87.49101562499709,
      "v": 32
    },
    {
      "midi": 92,
      "hit": false,
      "t": 81413.75507812502,
      "d": 192.9289062500029,
      "v": 104
    },
    {
      "midi": 60,
      "hit": false,
      "t": 81629.11757812499,
      "d": 139.08828125000582,
      "v": 29
    },
    {
      "midi": 63,
      "hit": false,
      "t": 81844.480078125,
      "d": 181.7121093750029,
      "v": 73
    },
    {
      "midi": 61,
      "hit": false,
      "t": 81844.480078125,
      "d": 125.62812500000291,
      "v": 25
    },
    {
      "midi": 65,
      "hit": false,
      "t": 82059.842578125,
      "d": 174.98203124999418,
      "v": 71
    },
    {
      "midi": 63,
      "hit": false,
      "t": 82059.842578125,
      "d": 112.16796875,
      "v": 22
    },
    {
      "midi": 63,
      "hit": false,
      "t": 82275.20507812499,
      "d": 242.28281250000873,
      "v": 47
    },
    {
      "midi": 68,
      "hit": false,
      "t": 82275.20507812499,
      "d": 432.96835937500873,
      "v": 75
    },
    {
      "midi": 68,
      "hit": false,
      "t": 82275.205078125,
      "d": 91.97773437500291,
      "v": 18
    },
    {
      "midi": 65,
      "hit": false,
      "t": 82474.8640625,
      "d": 195.17226562499127,
      "v": 72
    },
    {
      "midi": 60,
      "hit": false,
      "t": 82490.567578125,
      "d": 83.00429687500582,
      "v": 15
    },
    {
      "midi": 37,
      "hit": false,
      "t": 82690.22656250004,
      "d": 3203.517187499994,
      "v": 89
    },
    {
      "midi": 87,
      "hit": false,
      "t": 82699.20000000001,
      "d": 5332.465234375006,
      "v": 50
    },
    {
      "midi": 61,
      "hit": false,
      "t": 82701.44335937503,
      "d": 841.259765625,
      "v": 104
    },
    {
      "midi": 56,
      "hit": false,
      "t": 82703.68671874999,
      "d": 3243.897656250003,
      "v": 78
    },
    {
      "midi": 61,
      "hit": false,
      "t": 82705.93007812499,
      "d": 91.97773437500291,
      "v": 101
    },
    {
      "midi": 61,
      "hit": false,
      "t": 82705.930078125,
      "d": 100.951171875,
      "v": 11
    },
    {
      "midi": 49,
      "hit": false,
      "t": 82708.1734375,
      "d": 3257.3578124999913,
      "v": 70
    },
    {
      "midi": 68,
      "hit": false,
      "t": 82710.41679687503,
      "d": 773.958984375,
      "v": 101
    },
    {
      "midi": 63,
      "hit": false,
      "t": 82712.66015625,
      "d": 3288.7648437499884,
      "v": 79
    },
    {
      "midi": 68,
      "hit": false,
      "t": 82719.390234375,
      "d": 3268.5746093749913,
      "v": 71
    },
    {
      "midi": 65,
      "hit": false,
      "t": 82719.39023437502,
      "d": 796.392578125,
      "v": 95
    },
    {
      "midi": 61,
      "hit": false,
      "t": 82921.292578125,
      "d": 116.65468750000582,
      "v": 102
    },
    {
      "midi": 61,
      "hit": false,
      "t": 83352.017578125,
      "d": 67.30078125,
      "v": 102
    },
    {
      "midi": 77,
      "hit": false,
      "t": 83560.65000000005,
      "d": 390.34453125001164,
      "v": 86
    },
    {
      "midi": 65,
      "hit": false,
      "t": 83982.40156250003,
      "d": 1808.147656250003,
      "v": 100
    },
    {
      "midi": 75,
      "hit": false,
      "t": 83982.40156250006,
      "d": 246.76953125,
      "v": 82
    },
    {
      "midi": 61,
      "hit": false,
      "t": 83984.64492187503,
      "d": 1810.3910156250058,
      "v": 98
    },
    {
      "midi": 61,
      "hit": false,
      "t": 83998.105078125,
      "d": 83.00429687500582,
      "v": 96
    },
    {
      "midi": 68,
      "hit": false,
      "t": 83998.10507812504,
      "d": 1761.037109375,
      "v": 103
    },
    {
      "midi": 73,
      "hit": false,
      "t": 84200.00742187507,
      "d": 271.4464843750029,
      "v": 87
    },
    {
      "midi": 75,
      "hit": false,
      "t": 84433.31679687506,
      "d": 367.91093750001164,
      "v": 83
    },
    {
      "midi": 61,
      "hit": false,
      "t": 84644.192578125,
      "d": 565.3265625000058,
      "v": 104
    },
    {
      "midi": 75,
      "hit": false,
      "t": 84868.52851562508,
      "d": 928.7507812500116,
      "v": 86
    },
    {
      "midi": 61,
      "hit": false,
      "t": 85290.28007812501,
      "d": 518.2160156250029,
      "v": 102
    },
    {
      "midi": 61,
      "hit": false,
      "t": 85936.36757812502,
      "d": 56.083984375,
      "v": 101
    },
    {
      "midi": 60,
      "hit": false,
      "t": 86133.78320312504,
      "d": 978.1046875000029,
      "v": 97
    },
    {
      "midi": 68,
      "hit": false,
      "t": 86147.24335937505,
      "d": 948.9410156249942,
      "v": 96
    },
    {
      "midi": 60,
      "hit": false,
      "t": 86151.73007812502,
      "d": 116.65468750000582,
      "v": 104
    },
    {
      "midi": 65,
      "hit": false,
      "t": 86156.21679687504,
      "d": 984.8347656249971,
      "v": 96
    },
    {
      "midi": 75,
      "hit": false,
      "t": 87013.18007812508,
      "d": 282.6632812500029,
      "v": 83
    },
    {
      "midi": 60,
      "hit": false,
      "t": 87425.95820312505,
      "d": 1888.9085937500058,
      "v": 97
    },
    {
      "midi": 73,
      "hit": false,
      "t": 87430.44492187508,
      "d": 334.2605468749971,
      "v": 81
    },
    {
      "midi": 68,
      "hit": false,
      "t": 87437.17500000005,
      "d": 1841.798046875003,
      "v": 95
    },
    {
      "midi": 65,
      "hit": false,
      "t": 87439.41835937505,
      "d": 1850.771484375,
      "v": 98
    },
    {
      "midi": 60,
      "hit": false,
      "t": 87645.80742187503,
      "d": 98.70781249999709,
      "v": 102
    },
    {
      "midi": 60,
      "hit": false,
      "t": 87861.16992187503,
      "d": 143.5749999999971,
      "v": 99
    },
    {
      "midi": 75,
      "hit": false,
      "t": 87861.16992187507,
      "d": 870.4234374999796,
      "v": 83
    },
    {
      "midi": 61,
      "hit": false,
      "t": 88089.99257812502,
      "d": 109.92460937499709,
      "v": 97
    },
    {
      "midi": 61,
      "hit": false,
      "t": 88731.59335937502,
      "d": 91.97773437500291,
      "v": 101
    },
    {
      "midi": 61,
      "hit": false,
      "t": 88937.98242187503,
      "d": 150.30507812500582,
      "v": 104
    },
    {
      "midi": 60,
      "hit": false,
      "t": 89166.80507812503,
      "d": 152.54843749999418,
      "v": 96
    },
    {
      "midi": 61,
      "hit": false,
      "t": 89382.16757812502,
      "d": 103.19453125000291,
      "v": 101
    },
    {
      "midi": 68,
      "hit": false,
      "t": 89579.58320312505,
      "d": 809.8527343750029,
      "v": 99
    },
    {
      "midi": 87,
      "hit": false,
      "t": 89590.80000000002,
      "d": 5332.465234375006,
      "v": 46
    },
    {
      "midi": 61,
      "hit": false,
      "t": 89590.80000000005,
      "d": 843.5031250000029,
      "v": 102
    },
    {
      "midi": 61,
      "hit": false,
      "t": 89597.53007812503,
      "d": 91.97773437500291,
      "v": 101
    },
    {
      "midi": 65,
      "hit": false,
      "t": 89599.77343750004,
      "d": 816.5828125000116,
      "v": 98
    },
    {
      "midi": 61,
      "hit": false,
      "t": 89812.89257812503,
      "d": 116.65468750000582,
      "v": 100
    },
    {
      "midi": 61,
      "hit": false,
      "t": 90243.61757812503,
      "d": 67.30078125,
      "v": 99
    },
    {
      "midi": 75,
      "hit": false,
      "t": 90245.86093750007,
      "d": 121.14140624999709,
      "v": 87
    },
    {
      "midi": 77,
      "hit": false,
      "t": 90458.98007812507,
      "d": 399.3179687499942,
      "v": 89
    },
    {
      "midi": 68,
      "hit": false,
      "t": 90874.00156250005,
      "d": 1781.227343749997,
      "v": 98
    },
    {
      "midi": 61,
      "hit": false,
      "t": 90874.00156250005,
      "d": 1812.6343749999942,
      "v": 95
    },
    {
      "midi": 65,
      "hit": false,
      "t": 90887.46171875006,
      "d": 1790.2007812499942,
      "v": 98
    },
    {
      "midi": 61,
      "hit": false,
      "t": 90889.70507812503,
      "d": 83.00429687500582,
      "v": 101
    },
    {
      "midi": 75,
      "hit": false,
      "t": 90889.70507812506,
      "d": 206.38906250000582,
      "v": 82
    },
    {
      "midi": 73,
      "hit": false,
      "t": 91105.06757812506,
      "d": 219.84921875000873,
      "v": 85
    },
    {
      "midi": 75,
      "hit": false,
      "t": 91320.43007812506,
      "d": 354.45078125000873,
      "v": 81
    },
    {
      "midi": 61,
      "hit": false,
      "t": 91535.79257812504,
      "d": 565.3265625000058,
      "v": 96
    },
    {
      "midi": 75,
      "hit": false,
      "t": 91751.15507812507,
      "d": 1213.657421875003,
      "v": 82
    },
    {
      "midi": 61,
      "hit": false,
      "t": 92181.88007812505,
      "d": 518.2160156250029,
      "v": 101
    },
    {
      "midi": 61,
      "hit": false,
      "t": 92827.96757812506,
      "d": 56.083984375,
      "v": 95
    },
    {
      "midi": 60,
      "hit": false,
      "t": 93025.38320312505,
      "d": 978.1046875000029,
      "v": 96
    },
    {
      "midi": 65,
      "hit": false,
      "t": 93025.38320312505,
      "d": 1020.728515625,
      "v": 96
    },
    {
      "midi": 60,
      "hit": false,
      "t": 93043.33007812506,
      "d": 116.65468750000582,
      "v": 96
    },
    {
      "midi": 68,
      "hit": false,
      "t": 93047.81679687505,
      "d": 933.2375000000029,
      "v": 97
    },
    {
      "midi": 77,
      "hit": false,
      "t": 93474.05507812508,
      "d": 123.384765625,
      "v": 84
    },
    {
      "midi": 78,
      "hit": false,
      "t": 93675.95742187508,
      "d": 159.2785156250029,
      "v": 89
    },
    {
      "midi": 80,
      "hit": false,
      "t": 93891.31992187508,
      "d": 1027.458593749965,
      "v": 89
    },
    {
      "midi": 68,
      "hit": false,
      "t": 94335.50507812505,
      "d": 1832.8246093750058,
      "v": 97
    },
    {
      "midi": 60,
      "hit": false,
      "t": 94335.50507812505,
      "d": 1864.231640625003,
      "v": 96
    },
    {
      "midi": 80,
      "hit": false,
      "t": 94346.72187500003,
      "d": 839.0164062499971,
      "v": 82
    },
    {
      "midi": 65,
      "hit": false,
      "t": 94348.96523437505,
      "d": 1817.12109375,
      "v": 102
    },
    {
      "midi": 60,
      "hit": false,
      "t": 94537.40742187506,
      "d": 98.70781249999709,
      "v": 103
    },
    {
      "midi": 60,
      "hit": false,
      "t": 94752.76992187506,
      "d": 143.5749999999971,
      "v": 102
    },
    {
      "midi": 82,
      "hit": false,
      "t": 94979.34921875004,
      "d": 114.41132812500291,
      "v": 83
    },
    {
      "midi": 61,
      "hit": false,
      "t": 94981.59257812506,
      "d": 109.92460937499709,
      "v": 98
    },
    {
      "midi": 75,
      "hit": false,
      "t": 95176.76484375003,
      "d": 408.29140624999127,
      "v": 70
    },
    {
      "midi": 77,
      "hit": false,
      "t": 95196.95507812504,
      "d": 854.719921875032,
      "v": 81
    },
    {
      "midi": 77,
      "hit": false,
      "t": 95605.24648437502,
      "d": 419.5082031250058,
      "v": 72
    },
    {
      "midi": 61,
      "hit": false,
      "t": 95623.19335937506,
      "d": 91.97773437500291,
      "v": 101
    },
    {
      "midi": 61,
      "hit": false,
      "t": 95829.58242187506,
      "d": 150.30507812500582,
      "v": 103
    },
    {
      "midi": 73,
      "hit": false,
      "t": 96009.05117187502,
      "d": 336.50390625,
      "v": 80
    },
    {
      "midi": 60,
      "hit": false,
      "t": 96058.40507812507,
      "d": 152.54843749999418,
      "v": 102
    },
    {
      "midi": 61,
      "hit": false,
      "t": 96273.76757812506,
      "d": 103.19453125000291,
      "v": 95
    },
    {
      "midi": 87,
      "hit": false,
      "t": 96482.40000000002,
      "d": 5332.465234375006,
      "v": 46
    },
    {
      "midi": 63,
      "hit": false,
      "t": 96484.64335937503,
      "d": 1204.6839843750058,
      "v": 76
    },
    {
      "midi": 65,
      "hit": false,
      "t": 96484.64335937506,
      "d": 830.04296875,
      "v": 98
    },
    {
      "midi": 63,
      "hit": false,
      "t": 96489.130078125,
      "d": 1206.9273437499942,
      "v": 99
    },
    {
      "midi": 56,
      "hit": false,
      "t": 96489.13007812503,
      "d": 1211.4140625,
      "v": 80
    },
    {
      "midi": 53,
      "hit": false,
      "t": 96489.13007812503,
      "d": 1236.091015625003,
      "v": 80
    },
    {
      "midi": 51,
      "hit": false,
      "t": 96489.13007812503,
      "d": 1251.7945312500087,
      "v": 90
    },
    {
      "midi": 61,
      "hit": false,
      "t": 96489.13007812506,
      "d": 91.97773437500291,
      "v": 95
    },
    {
      "midi": 68,
      "hit": false,
      "t": 96502.59023437505,
      "d": 756.0121093750058,
      "v": 97
    },
    {
      "midi": 61,
      "hit": false,
      "t": 96502.59023437505,
      "d": 807.609375,
      "v": 100
    },
    {
      "midi": 80,
      "hit": false,
      "t": 96531.75390625003,
      "d": 1271.9847656250204,
      "v": 71
    },
    {
      "midi": 61,
      "hit": false,
      "t": 96704.49257812506,
      "d": 116.65468750000582,
      "v": 96
    },
    {
      "midi": 61,
      "hit": false,
      "t": 97135.21757812507,
      "d": 67.30078125,
      "v": 96
    },
    {
      "midi": 73,
      "hit": false,
      "t": 97135.21757812507,
      "d": 141.33164062499418,
      "v": 88
    },
    {
      "midi": 77,
      "hit": false,
      "t": 97350.58007812506,
      "d": 314.07031249998545,
      "v": 85
    },
    {
      "midi": 77,
      "hit": false,
      "t": 97765.60156250004,
      "d": 2102.027734375006,
      "v": 73
    },
    {
      "midi": 68,
      "hit": false,
      "t": 97765.60156250006,
      "d": 1781.2273437500116,
      "v": 100
    },
    {
      "midi": 65,
      "hit": false,
      "t": 97770.08828125006,
      "d": 1799.1742187500058,
      "v": 101
    },
    {
      "midi": 61,
      "hit": false,
      "t": 97770.08828125006,
      "d": 1803.6609375000116,
      "v": 102
    },
    {
      "midi": 75,
      "hit": false,
      "t": 97776.81835937504,
      "d": 201.90234375,
      "v": 85
    },
    {
      "midi": 61,
      "hit": false,
      "t": 97781.30507812499,
      "d": 2068.377343750006,
      "v": 102
    },
    {
      "midi": 56,
      "hit": false,
      "t": 97781.30507812505,
      "d": 2066.133984375003,
      "v": 79
    },
    {
      "midi": 49,
      "hit": false,
      "t": 97781.30507812505,
      "d": 2126.704687499994,
      "v": 89
    },
    {
      "midi": 61,
      "hit": false,
      "t": 97781.30507812506,
      "d": 83.00429687500582,
      "v": 101
    },
    {
      "midi": 61,
      "hit": false,
      "t": 97785.79179687506,
      "d": 2043.7003906249884,
      "v": 81
    },
    {
      "midi": 65,
      "hit": false,
      "t": 97785.79179687506,
      "d": 2045.9437499999913,
      "v": 84
    },
    {
      "midi": 73,
      "hit": false,
      "t": 97983.20742187505,
      "d": 154.7917968749971,
      "v": 84
    },
    {
      "midi": 75,
      "hit": false,
      "t": 98203.05664062504,
      "d": 347.720703125,
      "v": 81
    },
    {
      "midi": 61,
      "hit": false,
      "t": 98427.39257812507,
      "d": 565.3265625000058,
      "v": 95
    },
    {
      "midi": 77,
      "hit": false,
      "t": 98642.75507812505,
      "d": 361.18085937501746,
      "v": 85
    },
    {
      "midi": 77,
      "hit": false,
      "t": 99073.48007812505,
      "d": 343.2339843749942,
      "v": 82
    },
    {
      "midi": 61,
      "hit": false,
      "t": 99073.48007812508,
      "d": 518.2160156250029,
      "v": 96
    },
    {
      "midi": 75,
      "hit": false,
      "t": 99492.98828125004,
      "d": 282.6632812500029,
      "v": 81
    },
    {
      "midi": 73,
      "hit": false,
      "t": 99715.08085937504,
      "d": 157.03515625,
      "v": 82
    },
    {
      "midi": 61,
      "hit": false,
      "t": 99719.56757812509,
      "d": 56.083984375,
      "v": 102
    },
    {
      "midi": 75,
      "hit": false,
      "t": 99928.20000000004,
      "d": 1397.6128906249796,
      "v": 65
    },
    {
      "midi": 60,
      "hit": false,
      "t": 99928.20000000007,
      "d": 960.1578124999942,
      "v": 101
    },
    {
      "midi": 65,
      "hit": false,
      "t": 99928.20000000007,
      "d": 1002.7816406249913,
      "v": 103
    },
    {
      "midi": 60,
      "hit": false,
      "t": 99934.93007812499,
      "d": 1094.7593749999942,
      "v": 96
    },
    {
      "midi": 49,
      "hit": false,
      "t": 99934.93007812503,
      "d": 1117.1929687499942,
      "v": 91
    },
    {
      "midi": 60,
      "hit": false,
      "t": 99934.93007812503,
      "d": 1224.8742187499884,
      "v": 80
    },
    {
      "midi": 65,
      "hit": false,
      "t": 99934.93007812503,
      "d": 1224.8742187499884,
      "v": 80
    },
    {
      "midi": 56,
      "hit": false,
      "t": 99934.93007812503,
      "d": 1238.3343749999913,
      "v": 81
    },
    {
      "midi": 75,
      "hit": false,
      "t": 99934.93007812503,
      "d": 388.1011718749942,
      "v": 87
    },
    {
      "midi": 68,
      "hit": false,
      "t": 99934.93007812506,
      "d": 942.2109375,
      "v": 97
    },
    {
      "midi": 60,
      "hit": false,
      "t": 99934.9300781251,
      "d": 116.65468750000582,
      "v": 103
    },
    {
      "midi": 77,
      "hit": false,
      "t": 100365.65507812503,
      "d": 468.86210937501164,
      "v": 80
    },
    {
      "midi": 68,
      "hit": false,
      "t": 101209.15820312506,
      "d": 1859.744921874997,
      "v": 104
    },
    {
      "midi": 60,
      "hit": false,
      "t": 101227.10507812498,
      "d": 1980.8863281249942,
      "v": 97
    },
    {
      "midi": 49,
      "hit": false,
      "t": 101227.10507812502,
      "d": 1924.8023437499942,
      "v": 86
    },
    {
      "midi": 68,
      "hit": false,
      "t": 101227.10507812502,
      "d": 2070.620703124994,
      "v": 73
    },
    {
      "midi": 56,
      "hit": false,
      "t": 101227.10507812502,
      "d": 2086.32421875,
      "v": 78
    },
    {
      "midi": 60,
      "hit": false,
      "t": 101227.10507812502,
      "d": 2086.32421875,
      "v": 80
    },
    {
      "midi": 63,
      "hit": false,
      "t": 101227.10507812502,
      "d": 2099.784375000003,
      "v": 84
    },
    {
      "midi": 77,
      "hit": false,
      "t": 101227.10507812504,
      "d": 513.7292968749971,
      "v": 81
    },
    {
      "midi": 65,
      "hit": false,
      "t": 101227.10507812505,
      "d": 1844.0414062500058,
      "v": 99
    },
    {
      "midi": 60,
      "hit": false,
      "t": 101227.10507812505,
      "d": 1861.98828125,
      "v": 95
    },
    {
      "midi": 60,
      "hit": false,
      "t": 101429.0074218751,
      "d": 98.70781249999709,
      "v": 98
    },
    {
      "midi": 60,
      "hit": false,
      "t": 101644.3699218751,
      "d": 143.5749999999971,
      "v": 95
    },
    {
      "midi": 61,
      "hit": false,
      "t": 101873.19257812509,
      "d": 109.92460937499709,
      "v": 103
    },
    {
      "midi": 75,
      "hit": false,
      "t": 101886.65273437503,
      "d": 340.9906250000058,
      "v": 82
    },
    {
      "midi": 77,
      "hit": false,
      "t": 102303.91757812504,
      "d": 161.52187499999127,
      "v": 87
    },
    {
      "midi": 75,
      "hit": false,
      "t": 102411.59882812503,
      "d": 148.06171874998836,
      "v": 88
    },
    {
      "midi": 61,
      "hit": false,
      "t": 102514.7933593751,
      "d": 91.97773437500291,
      "v": 102
    },
    {
      "midi": 72,
      "hit": false,
      "t": 102519.28007812503,
      "d": 574.3000000000029,
      "v": 81
    },
    {
      "midi": 61,
      "hit": false,
      "t": 102721.1824218751,
      "d": 150.30507812500582,
      "v": 100
    },
    {
      "midi": 60,
      "hit": false,
      "t": 102950.0050781251,
      "d": 152.54843749999418,
      "v": 96
    },
    {
      "midi": 61,
      "hit": false,
      "t": 103165.3675781251,
      "d": 103.19453125000291,
      "v": 100
    },
    {
      "midi": 61,
      "hit": false,
      "t": 103362.78320312506,
      "d": 861.4499999999971,
      "v": 102
    },
    {
      "midi": 56,
      "hit": false,
      "t": 103374.00000000003,
      "d": 1231.604296874997,
      "v": 81
    },
    {
      "midi": 87,
      "hit": false,
      "t": 103374.00000000003,
      "d": 5332.465234375006,
      "v": 51
    },
    {
      "midi": 65,
      "hit": false,
      "t": 103374.00000000006,
      "d": 832.2863281250029,
      "v": 101
    },
    {
      "midi": 63,
      "hit": false,
      "t": 103380.73007812498,
      "d": 1206.9273437499942,
      "v": 101
    },
    {
      "midi": 37,
      "hit": false,
      "t": 103380.73007812502,
      "d": 742.5519531250029,
      "v": 90
    },
    {
      "midi": 80,
      "hit": false,
      "t": 103380.73007812502,
      "d": 1101.489453125003,
      "v": 67
    },
    {
      "midi": 65,
      "hit": false,
      "t": 103380.73007812502,
      "d": 1171.0335937500058,
      "v": 78
    },
    {
      "midi": 61,
      "hit": false,
      "t": 103380.73007812502,
      "d": 1184.4937500000087,
      "v": 81
    },
    {
      "midi": 68,
      "hit": false,
      "t": 103380.73007812502,
      "d": 1238.3343750000058,
      "v": 81
    },
    {
      "midi": 61,
      "hit": false,
      "t": 103380.7300781251,
      "d": 91.97773437500291,
      "v": 96
    },
    {
      "midi": 68,
      "hit": false,
      "t": 103382.97343750006,
      "d": 776.2023437500029,
      "v": 102
    },
    {
      "midi": 61,
      "hit": false,
      "t": 103596.0925781251,
      "d": 116.65468750000582,
      "v": 104
    },
    {
      "midi": 61,
      "hit": false,
      "t": 104026.8175781251,
      "d": 67.30078125,
      "v": 101
    },
    {
      "midi": 77,
      "hit": false,
      "t": 104242.18007812502,
      "d": 376.8843749999942,
      "v": 84
    },
    {
      "midi": 68,
      "hit": false,
      "t": 104654.95820312503,
      "d": 2045.9437500000058,
      "v": 81
    },
    {
      "midi": 61,
      "hit": false,
      "t": 104657.20156250005,
      "d": 1812.6343750000087,
      "v": 103
    },
    {
      "midi": 37,
      "hit": false,
      "t": 104659.44492187504,
      "d": 1936.0191406250087,
      "v": 88
    },
    {
      "midi": 56,
      "hit": false,
      "t": 104659.44492187504,
      "d": 2032.483593750003,
      "v": 76
    },
    {
      "midi": 61,
      "hit": false,
      "t": 104659.44492187504,
      "d": 2066.133984375003,
      "v": 78
    },
    {
      "midi": 77,
      "hit": false,
      "t": 104659.44492187504,
      "d": 2137.9214843750087,
      "v": 70
    },
    {
      "midi": 68,
      "hit": false,
      "t": 104661.68828125006,
      "d": 1772.25390625,
      "v": 104
    },
    {
      "midi": 65,
      "hit": false,
      "t": 104670.66171875005,
      "d": 1790.2007812500087,
      "v": 102
    },
    {
      "midi": 61,
      "hit": false,
      "t": 104672.90507812497,
      "d": 2068.377343750006,
      "v": 102
    },
    {
      "midi": 75,
      "hit": false,
      "t": 104672.90507812501,
      "d": 183.95546875000582,
      "v": 82
    },
    {
      "midi": 65,
      "hit": false,
      "t": 104672.90507812504,
      "d": 2063.890625,
      "v": 75
    },
    {
      "midi": 61,
      "hit": false,
      "t": 104672.9050781251,
      "d": 83.00429687500582,
      "v": 102
    },
    {
      "midi": 73,
      "hit": false,
      "t": 104888.26757812501,
      "d": 154.7917968749971,
      "v": 88
    },
    {
      "midi": 75,
      "hit": false,
      "t": 105103.63007812502,
      "d": 204.1457031250029,
      "v": 86
    },
    {
      "midi": 77,
      "hit": false,
      "t": 105318.99257812502,
      "d": 206.38906250000582,
      "v": 82
    },
    {
      "midi": 61,
      "hit": false,
      "t": 105318.99257812511,
      "d": 565.3265625000058,
      "v": 103
    },
    {
      "midi": 61,
      "hit": false,
      "t": 105965.08007812512,
      "d": 518.2160156250029,
      "v": 95
    },
    {
      "midi": 77,
      "hit": false,
      "t": 105996.48710937503,
      "d": 363.4242187500204,
      "v": 85
    },
    {
      "midi": 78,
      "hit": false,
      "t": 106411.50859375004,
      "d": 244.5261718749971,
      "v": 82
    },
    {
      "midi": 61,
      "hit": false,
      "t": 106611.16757812513,
      "d": 56.083984375,
      "v": 100
    },
    {
      "midi": 58,
      "hit": false,
      "t": 106819.80000000006,
      "d": 1146.3566406249884,
      "v": 96
    },
    {
      "midi": 63,
      "hit": false,
      "t": 106819.80000000012,
      "d": 343.2339843749942,
      "v": 97
    },
    {
      "midi": 56,
      "hit": false,
      "t": 106822.04335937505,
      "d": 1164.3035156250116,
      "v": 82
    },
    {
      "midi": 63,
      "hit": false,
      "t": 106826.53007812497,
      "d": 1049.8921874999942,
      "v": 99
    },
    {
      "midi": 80,
      "hit": false,
      "t": 106826.53007812504,
      "d": 704.4148437500116,
      "v": 86
    },
    {
      "midi": 75,
      "hit": false,
      "t": 106826.53007812506,
      "d": 1135.139843750003,
      "v": 68
    },
    {
      "midi": 70,
      "hit": false,
      "t": 106826.53007812506,
      "d": 1197.9539062500116,
      "v": 81
    },
    {
      "midi": 63,
      "hit": false,
      "t": 106826.53007812506,
      "d": 1224.8742187500175,
      "v": 80
    },
    {
      "midi": 58,
      "hit": false,
      "t": 106826.53007812506,
      "d": 1238.3343750000204,
      "v": 79
    },
    {
      "midi": 42,
      "hit": false,
      "t": 106828.77343750006,
      "d": 780.6890624999942,
      "v": 89
    },
    {
      "midi": 68,
      "hit": false,
      "t": 106839.99023437506,
      "d": 1007.2683593749971,
      "v": 98
    },
    {
      "midi": 63,
      "hit": false,
      "t": 106839.99023437506,
      "d": 1027.4585937499942,
      "v": 102
    },
    {
      "midi": 63,
      "hit": false,
      "t": 107674.51992187511,
      "d": 157.03515625,
      "v": 97
    },
    {
      "midi": 80,
      "hit": false,
      "t": 107690.22343750004,
      "d": 376.8843749999796,
      "v": 87
    },
    {
      "midi": 61,
      "hit": false,
      "t": 108105.24492187506,
      "d": 1875.4484374999884,
      "v": 98
    },
    {
      "midi": 58,
      "hit": false,
      "t": 108105.24492187507,
      "d": 2113.2445312499913,
      "v": 79
    },
    {
      "midi": 61,
      "hit": false,
      "t": 108105.24492187511,
      "d": 296.1234375000058,
      "v": 103
    },
    {
      "midi": 66,
      "hit": false,
      "t": 108114.21835937505,
      "d": 1830.5812499999884,
      "v": 100
    },
    {
      "midi": 70,
      "hit": false,
      "t": 108114.21835937507,
      "d": 1505.294140625003,
      "v": 82
    },
    {
      "midi": 61,
      "hit": false,
      "t": 108118.70507812496,
      "d": 1411.073046874997,
      "v": 100
    },
    {
      "midi": 78,
      "hit": false,
      "t": 108118.70507812501,
      "d": 1090.272656250032,
      "v": 84
    },
    {
      "midi": 73,
      "hit": false,
      "t": 108118.70507812507,
      "d": 1507.5374999999913,
      "v": 74
    },
    {
      "midi": 42,
      "hit": false,
      "t": 108118.70507812507,
      "d": 1664.5726562499913,
      "v": 85
    },
    {
      "midi": 61,
      "hit": false,
      "t": 108118.70507812507,
      "d": 2032.4835937499884,
      "v": 77
    },
    {
      "midi": 54,
      "hit": false,
      "t": 108118.70507812507,
      "d": 2059.403906249994,
      "v": 79
    },
    {
      "midi": 58,
      "hit": false,
      "t": 108123.19179687505,
      "d": 1767.7671874999942,
      "v": 97
    },
    {
      "midi": 65,
      "hit": false,
      "t": 109195.51757812503,
      "d": 204.1457031250029,
      "v": 99
    },
    {
      "midi": 75,
      "hit": false,
      "t": 109195.51757812504,
      "d": 150.30507812500582,
      "v": 86
    },
    {
      "midi": 61,
      "hit": false,
      "t": 109197.76093750003,
      "d": 210.8757812499971,
      "v": 95
    },
    {
      "midi": 65,
      "hit": false,
      "t": 109408.63671875003,
      "d": 174.98203125000873,
      "v": 96
    },
    {
      "midi": 78,
      "hit": false,
      "t": 109410.88007812505,
      "d": 150.30507812500582,
      "v": 80
    },
    {
      "midi": 61,
      "hit": false,
      "t": 109413.12343750003,
      "d": 174.98203125000873,
      "v": 99
    },
    {
      "midi": 66,
      "hit": false,
      "t": 109626.24257812505,
      "d": 201.90234375,
      "v": 97
    },
    {
      "midi": 63,
      "hit": false,
      "t": 109628.48593750005,
      "d": 188.4421874999971,
      "v": 95
    },
    {
      "midi": 78,
      "hit": false,
      "t": 109630.72929687506,
      "d": 215.3625000000029,
      "v": 83
    },
    {
      "midi": 70,
      "hit": false,
      "t": 109686.81328125007,
      "d": 94.22109374999127,
      "v": 92
    },
    {
      "midi": 72,
      "hit": false,
      "t": 109760.84414062506,
      "d": 107.68125000000873,
      "v": 95
    },
    {
      "midi": 63,
      "hit": false,
      "t": 109841.60507812495,
      "d": 340.9906250000058,
      "v": 98
    },
    {
      "midi": 68,
      "hit": false,
      "t": 109841.60507812505,
      "d": 323.0437499999971,
      "v": 100
    },
    {
      "midi": 73,
      "hit": false,
      "t": 109841.60507812507,
      "d": 87.49101562499709,
      "v": 96
    },
    {
      "midi": 65,
      "hit": false,
      "t": 109843.84843750006,
      "d": 336.50390625,
      "v": 97
    },
    {
      "midi": 80,
      "hit": false,
      "t": 109873.01210937506,
      "d": 195.17226562500582,
      "v": 82
    },
    {
      "midi": 74,
      "hit": false,
      "t": 109899.93242187507,
      "d": 100.95117187498545,
      "v": 96
    },
    {
      "midi": 75,
      "hit": false,
      "t": 109982.93671875006,
      "d": 87.49101562499709,
      "v": 97
    },
    {
      "midi": 77,
      "hit": false,
      "t": 110059.21093750006,
      "d": 74.03085937500873,
      "v": 99
    },
    {
      "midi": 79,
      "hit": false,
      "t": 110117.53828125006,
      "d": 94.22109375000582,
      "v": 100
    },
    {
      "midi": 80,
      "hit": false,
      "t": 110198.29921875006,
      "d": 100.95117187501455,
      "v": 100
    },
    {
      "midi": 61,
      "hit": false,
      "t": 110258.86992187506,
      "d": 1662.3292968750175,
      "v": 99
    },
    {
      "midi": 70,
      "hit": false,
      "t": 110265.60000000006,
      "d": 3403.1761718751222,
      "v": 67
    },
    {
      "midi": 39,
      "hit": false,
      "t": 110265.60000000006,
      "d": 3439.0699218751106,
      "v": 88
    },
    {
      "midi": 66,
      "hit": false,
      "t": 110265.60000000006,
      "d": 3470.4769531251077,
      "v": 77
    },
    {
      "midi": 58,
      "hit": false,
      "t": 110267.84335937504,
      "d": 3248.3843750000087,
      "v": 99
    },
    {
      "midi": 58,
      "hit": false,
      "t": 110267.84335937507,
      "d": 3308.9550781251164,
      "v": 84
    },
    {
      "midi": 66,
      "hit": false,
      "t": 110272.33007812496,
      "d": 3246.141015625006,
      "v": 97
    },
    {
      "midi": 63,
      "hit": false,
      "t": 110272.33007812504,
      "d": 3255.114453125003,
      "v": 100
    },
    {
      "midi": 70,
      "hit": false,
      "t": 110272.33007812506,
      "d": 1662.3292968750175,
      "v": 96
    },
    {
      "midi": 82,
      "hit": false,
      "t": 110272.33007812506,
      "d": 1743.0902343749913,
      "v": 80
    },
    {
      "midi": 82,
      "hit": false,
      "t": 110272.33007812507,
      "d": 3403.1761718751077,
      "v": 74
    },
    {
      "midi": 65,
      "hit": false,
      "t": 110274.57343750006,
      "d": 1608.4886718750058,
      "v": 100
    },
    {
      "midi": 66,
      "hit": false,
      "t": 110276.81679687505,
      "d": 3257.3578124999913,
      "v": 99
    },
    {
      "midi": 63,
      "hit": false,
      "t": 110276.81679687508,
      "d": 3434.58320312509,
      "v": 75
    },
    {
      "midi": 75,
      "hit": false,
      "t": 112627.85742187501,
      "d": 242.28281250000873,
      "v": 88
    },
    {
      "midi": 61,
      "hit": false,
      "t": 112641.31757812508,
      "d": 174.98203124999418,
      "v": 97
    },
    {
      "midi": 65,
      "hit": false,
      "t": 112641.31757812508,
      "d": 195.17226562499127,
      "v": 103
    },
    {
      "midi": 78,
      "hit": false,
      "t": 112856.68007812502,
      "d": 161.52187500000582,
      "v": 85
    },
    {
      "midi": 65,
      "hit": false,
      "t": 112856.68007812506,
      "d": 161.52187500000582,
      "v": 95
    },
    {
      "midi": 61,
      "hit": false,
      "t": 112856.68007812506,
      "d": 174.98203125000873,
      "v": 101
    },
    {
      "midi": 78,
      "hit": false,
      "t": 113072.04257812502,
      "d": 161.52187500000582,
      "v": 81
    },
    {
      "midi": 63,
      "hit": false,
      "t": 113072.04257812507,
      "d": 188.4421874999971,
      "v": 101
    },
    {
      "midi": 66,
      "hit": false,
      "t": 113072.04257812507,
      "d": 201.90234375,
      "v": 99
    },
    {
      "midi": 80,
      "hit": false,
      "t": 113287.40507812503,
      "d": 309.5835937499942,
      "v": 82
    },
    {
      "midi": 65,
      "hit": false,
      "t": 113287.40507812507,
      "d": 323.0437499999971,
      "v": 104
    },
    {
      "midi": 68,
      "hit": false,
      "t": 113287.40507812507,
      "d": 338.7472656250029,
      "v": 102
    },
    {
      "midi": 61,
      "hit": false,
      "t": 113700.18320312504,
      "d": 3259.6011718750087,
      "v": 103
    },
    {
      "midi": 65,
      "hit": false,
      "t": 113713.64335937504,
      "d": 3216.977343749997,
      "v": 104
    },
    {
      "midi": 68,
      "hit": false,
      "t": 113713.64335937504,
      "d": 3221.464062500003,
      "v": 99
    },
    {
      "midi": 42,
      "hit": false,
      "t": 113715.88671875017,
      "d": 3277.54804687509,
      "v": 89
    },
    {
      "midi": 85,
      "hit": false,
      "t": 113715.88671875017,
      "d": 3322.41523437509,
      "v": 69
    },
    {
      "midi": 65,
      "hit": false,
      "t": 113718.13007812496,
      "d": 3228.194140624997,
      "v": 100
    },
    {
      "midi": 78,
      "hit": false,
      "t": 113718.13007812502,
      "d": 1734.1167968750087,
      "v": 82
    },
    {
      "midi": 61,
      "hit": false,
      "t": 113718.13007812508,
      "d": 1669.059374999997,
      "v": 99
    },
    {
      "midi": 65,
      "hit": false,
      "t": 113718.13007812508,
      "d": 1682.51953125,
      "v": 103
    },
    {
      "midi": 68,
      "hit": false,
      "t": 113718.13007812508,
      "d": 1740.846875000003,
      "v": 100
    },
    {
      "midi": 80,
      "hit": false,
      "t": 113718.13007812518,
      "d": 3322.41523437509,
      "v": 73
    },
    {
      "midi": 61,
      "hit": false,
      "t": 113724.86015625017,
      "d": 3313.441796875093,
      "v": 76
    },
    {
      "midi": 58,
      "hit": false,
      "t": 113731.59023437517,
      "d": 3326.901953125096,
      "v": 77
    },
    {
      "midi": 65,
      "hit": false,
      "t": 113740.56367187518,
      "d": 3145.1898437500786,
      "v": 83
    },
    {
      "midi": 65,
      "hit": false,
      "t": 116087.11757812508,
      "d": 204.1457031250029,
      "v": 96
    },
    {
      "midi": 77,
      "hit": false,
      "t": 116089.36093750004,
      "d": 123.384765625,
      "v": 87
    },
    {
      "midi": 61,
      "hit": false,
      "t": 116089.36093750008,
      "d": 210.8757812499971,
      "v": 95
    },
    {
      "midi": 65,
      "hit": false,
      "t": 116300.23671875008,
      "d": 174.98203125000873,
      "v": 102
    },
    {
      "midi": 77,
      "hit": false,
      "t": 116302.48007812504,
      "d": 199.6589843749971,
      "v": 86
    },
    {
      "midi": 61,
      "hit": false,
      "t": 116304.72343750008,
      "d": 174.98203125000873,
      "v": 98
    },
    {
      "midi": 66,
      "hit": false,
      "t": 116517.8425781251,
      "d": 201.90234375,
      "v": 102
    },
    {
      "midi": 78,
      "hit": false,
      "t": 116520.08593750003,
      "d": 145.818359375,
      "v": 82
    },
    {
      "midi": 63,
      "hit": false,
      "t": 116520.0859375001,
      "d": 188.4421874999971,
      "v": 99
    },
    {
      "midi": 80,
      "hit": false,
      "t": 116733.20507812503,
      "d": 269.203125,
      "v": 87
    },
    {
      "midi": 68,
      "hit": false,
      "t": 116733.2050781251,
      "d": 323.0437499999971,
      "v": 104
    },
    {
      "midi": 65,
      "hit": false,
      "t": 116735.4484375001,
      "d": 336.50390625,
      "v": 99
    },
    {
      "midi": 65,
      "hit": false,
      "t": 117145.98320312504,
      "d": 3228.1941406250116,
      "v": 95
    },
    {
      "midi": 61,
      "hit": false,
      "t": 117150.4699218751,
      "d": 1662.3292968750175,
      "v": 95
    },
    {
      "midi": 65,
      "hit": false,
      "t": 117157.20000000027,
      "d": 3344.848828125032,
      "v": 82
    },
    {
      "midi": 58,
      "hit": false,
      "t": 117157.20000000027,
      "d": 3371.769140625038,
      "v": 78
    },
    {
      "midi": 82,
      "hit": false,
      "t": 117157.20000000027,
      "d": 3400.932812500032,
      "v": 74
    },
    {
      "midi": 77,
      "hit": false,
      "t": 117157.20000000027,
      "d": 3412.149609375032,
      "v": 72
    },
    {
      "midi": 46,
      "hit": false,
      "t": 117157.20000000027,
      "d": 3418.879687500026,
      "v": 93
    },
    {
      "midi": 61,
      "hit": false,
      "t": 117159.44335937504,
      "d": 3181.0835937500087,
      "v": 103
    },
    {
      "midi": 61,
      "hit": false,
      "t": 117159.44335937528,
      "d": 3306.711718750026,
      "v": 79
    },
    {
      "midi": 53,
      "hit": false,
      "t": 117161.68671875028,
      "d": 3306.711718750026,
      "v": 76
    },
    {
      "midi": 65,
      "hit": false,
      "t": 117163.93007812496,
      "d": 666.2777343750058,
      "v": 103
    },
    {
      "midi": 56,
      "hit": false,
      "t": 117163.93007812499,
      "d": 2508.075781249994,
      "v": 51
    },
    {
      "midi": 65,
      "hit": false,
      "t": 117163.93007812499,
      "d": 2512.5625,
      "v": 59
    },
    {
      "midi": 61,
      "hit": false,
      "t": 117163.93007812499,
      "d": 2519.292578124994,
      "v": 59
    },
    {
      "midi": 70,
      "hit": false,
      "t": 117163.93007812499,
      "d": 2534.99609375,
      "v": 55
    },
    {
      "midi": 80,
      "hit": false,
      "t": 117163.93007812503,
      "d": 1635.4089843750116,
      "v": 85
    },
    {
      "midi": 70,
      "hit": false,
      "t": 117163.93007812505,
      "d": 3174.353515625,
      "v": 98
    },
    {
      "midi": 70,
      "hit": false,
      "t": 117163.93007812511,
      "d": 1662.3292968750175,
      "v": 103
    },
    {
      "midi": 65,
      "hit": false,
      "t": 117166.17343750011,
      "d": 1608.4886718750058,
      "v": 98
    },
    {
      "midi": 77,
      "hit": false,
      "t": 118011.91992187493,
      "d": 240.03945312499127,
      "v": 89
    },
    {
      "midi": 65,
      "hit": false,
      "t": 118014.16328124993,
      "d": 208.63242187499418,
      "v": 84
    },
    {
      "midi": 65,
      "hit": false,
      "t": 118025.38007812497,
      "d": 204.1457031250029,
      "v": 100
    },
    {
      "midi": 75,
      "hit": false,
      "t": 118442.64492187492,
      "d": 1265.254687499997,
      "v": 80
    },
    {
      "midi": 63,
      "hit": false,
      "t": 118456.10507812492,
      "d": 1251.7945312499942,
      "v": 81
    },
    {
      "midi": 63,
      "hit": false,
      "t": 118456.10507812498,
      "d": 711.1449218750058,
      "v": 100
    },
    {
      "midi": 63,
      "hit": false,
      "t": 119317.55507812499,
      "d": 314.0703125,
      "v": 100
    },
    {
      "midi": 73,
      "hit": false,
      "t": 119748.28007812491,
      "d": 293.88007812498836,
      "v": 88
    },
    {
      "midi": 61,
      "hit": false,
      "t": 119748.28007812491,
      "d": 305.09687499998836,
      "v": 89
    },
    {
      "midi": 61,
      "hit": false,
      "t": 119748.280078125,
      "d": 634.8707031249942,
      "v": 97
    },
    {
      "midi": 73,
      "hit": false,
      "t": 119748.28007812503,
      "d": 235.552734375,
      "v": 83
    },
    {
      "midi": 61,
      "hit": false,
      "t": 119748.28007812513,
      "d": 251.25625000000582,
      "v": 103
    },
    {
      "midi": 56,
      "hit": false,
      "t": 119748.28007812513,
      "d": 269.203125,
      "v": 104
    },
    {
      "midi": 63,
      "hit": false,
      "t": 120021.96992187513,
      "d": 280.419921875,
      "v": 97
    },
    {
      "midi": 60,
      "hit": false,
      "t": 120035.4300781249,
      "d": 255.7429687499971,
      "v": 88
    },
    {
      "midi": 72,
      "hit": false,
      "t": 120035.4300781249,
      "d": 262.47304687499127,
      "v": 83
    },
    {
      "midi": 75,
      "hit": false,
      "t": 120035.43007812502,
      "d": 244.5261718749971,
      "v": 85
    },
    {
      "midi": 58,
      "hit": false,
      "t": 120035.43007812514,
      "d": 242.28281249999418,
      "v": 104
    },
    {
      "midi": 73,
      "hit": false,
      "t": 120309.11992187501,
      "d": 228.82265625000582,
      "v": 80
    },
    {
      "midi": 56,
      "hit": false,
      "t": 120309.11992187513,
      "d": 179.46875,
      "v": 104
    },
    {
      "midi": 61,
      "hit": false,
      "t": 120309.11992187513,
      "d": 181.7121093750029,
      "v": 103
    },
    {
      "midi": 61,
      "hit": false,
      "t": 120322.5800781249,
      "d": 242.28281249999418,
      "v": 89
    },
    {
      "midi": 73,
      "hit": false,
      "t": 120322.5800781249,
      "d": 255.7429687499971,
      "v": 85
    },
    {
      "midi": 80,
      "hit": false,
      "t": 120596.26992187502,
      "d": 805.3660156249825,
      "v": 87
    },
    {
      "midi": 61,
      "hit": false,
      "t": 120596.26992187514,
      "d": 2075.107421875,
      "v": 101
    },
    {
      "midi": 61,
      "hit": false,
      "t": 120603.00000000006,
      "d": 1155.330078125029,
      "v": 99
    },
    {
      "midi": 64,
      "hit": false,
      "t": 120605.24335937506,
      "d": 1148.6000000000204,
      "v": 102
    },
    {
      "midi": 80,
      "hit": false,
      "t": 120609.73007812489,
      "d": 778.4457031250058,
      "v": 85
    },
    {
      "midi": 64,
      "hit": false,
      "t": 120609.730078125,
      "d": 1215.9007812500058,
      "v": 104
    },
    {
      "midi": 57,
      "hit": false,
      "t": 120609.73007812507,
      "d": 1137.3832031250058,
      "v": 100
    },
    {
      "midi": 68,
      "hit": false,
      "t": 120609.73007812507,
      "d": 1141.8699218750116,
      "v": 102
    },
    {
      "midi": 64,
      "hit": false,
      "t": 120609.73007812514,
      "d": 776.2023437500029,
      "v": 103
    },
    {
      "midi": 56,
      "hit": false,
      "t": 120609.7300781253,
      "d": 735.8218749999942,
      "v": 80
    },
    {
      "midi": 64,
      "hit": false,
      "t": 120609.7300781253,
      "d": 738.0652343749971,
      "v": 76
    },
    {
      "midi": 68,
      "hit": false,
      "t": 120609.7300781253,
      "d": 740.30859375,
      "v": 81
    },
    {
      "midi": 80,
      "hit": false,
      "t": 120609.7300781253,
      "d": 805.3660156249971,
      "v": 71
    },
    {
      "midi": 45,
      "hit": false,
      "t": 120609.7300781253,
      "d": 1740.846875000003,
      "v": 91
    },
    {
      "midi": 57,
      "hit": false,
      "t": 120611.97343750014,
      "d": 1395.3695312499913,
      "v": 101
    },
    {
      "midi": 64,
      "hit": false,
      "t": 121468.9367187503,
      "d": 417.2648437500029,
      "v": 80
    },
    {
      "midi": 80,
      "hit": false,
      "t": 121471.1800781249,
      "d": 423.9949218749971,
      "v": 81
    },
    {
      "midi": 78,
      "hit": false,
      "t": 121471.18007812499,
      "d": 1110.462890624971,
      "v": 81
    },
    {
      "midi": 64,
      "hit": false,
      "t": 121471.18007812514,
      "d": 390.3445312499971,
      "v": 103
    },
    {
      "midi": 56,
      "hit": false,
      "t": 121471.1800781253,
      "d": 399.3179687499942,
      "v": 75
    },
    {
      "midi": 68,
      "hit": false,
      "t": 121471.1800781253,
      "d": 410.5347656249942,
      "v": 81
    },
    {
      "midi": 80,
      "hit": false,
      "t": 121471.1800781253,
      "d": 412.7781249999971,
      "v": 70
    },
    {
      "midi": 57,
      "hit": false,
      "t": 121883.95820312509,
      "d": 1949.4792968750116,
      "v": 101
    },
    {
      "midi": 78,
      "hit": false,
      "t": 121888.4449218749,
      "d": 2090.8109374999913,
      "v": 80
    },
    {
      "midi": 63,
      "hit": false,
      "t": 121888.44492187514,
      "d": 787.4191406250029,
      "v": 96
    },
    {
      "midi": 63,
      "hit": false,
      "t": 121888.4449218753,
      "d": 2050.4304687500553,
      "v": 79
    },
    {
      "midi": 66,
      "hit": false,
      "t": 121895.17500000009,
      "d": 1958.4527343750233,
      "v": 104
    },
    {
      "midi": 63,
      "hit": false,
      "t": 121897.4183593751,
      "d": 1938.2625000000116,
      "v": 100
    },
    {
      "midi": 63,
      "hit": false,
      "t": 121901.905078125,
      "d": 2050.430468749997,
      "v": 99
    },
    {
      "midi": 61,
      "hit": false,
      "t": 121901.9050781251,
      "d": 1936.0191406250087,
      "v": 101
    },
    {
      "midi": 57,
      "hit": false,
      "t": 121901.9050781253,
      "d": 1971.9128906250553,
      "v": 78
    },
    {
      "midi": 66,
      "hit": false,
      "t": 121901.9050781253,
      "d": 1978.6429687500495,
      "v": 77
    },
    {
      "midi": 78,
      "hit": false,
      "t": 121901.9050781253,
      "d": 2070.6207031250524,
      "v": 66
    },
    {
      "midi": 45,
      "hit": false,
      "t": 122763.3550781253,
      "d": 1177.7636718750582,
      "v": 93
    },
    {
      "midi": 77,
      "hit": false,
      "t": 123180.61992187497,
      "d": 197.41562499999418,
      "v": 88
    },
    {
      "midi": 75,
      "hit": false,
      "t": 123409.44257812496,
      "d": 143.5749999999971,
      "v": 89
    },
    {
      "midi": 73,
      "hit": false,
      "t": 123620.31835937496,
      "d": 275.9332031249942,
      "v": 89
    },
    {
      "midi": 87,
      "hit": false,
      "t": 124048.80000000003,
      "d": 5332.465234375006,
      "v": 53
    },
    {
      "midi": 61,
      "hit": false,
      "t": 124048.80000000012,
      "d": 666.2777343749913,
      "v": 97
    },
    {
      "midi": 56,
      "hit": false,
      "t": 124051.04335937512,
      "d": 681.9812499999971,
      "v": 102
    },
    {
      "midi": 61,
      "hit": false,
      "t": 124055.530078125,
      "d": 136.8449218750029,
      "v": 29
    },
    {
      "midi": 85,
      "hit": false,
      "t": 124055.53007812501,
      "d": 722.3617187500058,
      "v": 102
    },
    {
      "midi": 75,
      "hit": false,
      "t": 124057.77343749996,
      "d": 354.4507812499942,
      "v": 87
    },
    {
      "midi": 65,
      "hit": false,
      "t": 124068.99023437512,
      "d": 650.57421875,
      "v": 102
    },
    {
      "midi": 65,
      "hit": false,
      "t": 124270.892578125,
      "d": 109.92460937499709,
      "v": 33
    },
    {
      "midi": 68,
      "hit": false,
      "t": 124484.01171875,
      "d": 96.46445312499418,
      "v": 36
    },
    {
      "midi": 75,
      "hit": false,
      "t": 124490.74179687495,
      "d": 964.64453125,
      "v": 88
    },
    {
      "midi": 61,
      "hit": false,
      "t": 124701.61757812499,
      "d": 159.2785156250029,
      "v": 40
    },
    {
      "midi": 80,
      "hit": false,
      "t": 124910.24999999997,
      "d": 432.96835937500873,
      "v": 81
    },
    {
      "midi": 73,
      "hit": false,
      "t": 124912.49335937497,
      "d": 410.53476562500873,
      "v": 86
    },
    {
      "midi": 77,
      "hit": false,
      "t": 124916.98007812498,
      "d": 403.8046875,
      "v": 87
    },
    {
      "midi": 63,
      "hit": false,
      "t": 124916.980078125,
      "d": 89.734375,
      "v": 43
    },
    {
      "midi": 92,
      "hit": false,
      "t": 124916.98007812502,
      "d": 332.0171874999942,
      "v": 102
    },
    {
      "midi": 65,
      "hit": false,
      "t": 125132.342578125,
      "d": 94.22109375000582,
      "v": 47
    },
    {
      "midi": 56,
      "hit": false,
      "t": 125332.00156250013,
      "d": 1929.2890625,
      "v": 101
    },
    {
      "midi": 68,
      "hit": false,
      "t": 125334.24492187498,
      "d": 787.4191406250029,
      "v": 82
    },
    {
      "midi": 65,
      "hit": false,
      "t": 125336.48828125013,
      "d": 1918.072265625,
      "v": 97
    },
    {
      "midi": 61,
      "hit": false,
      "t": 125345.46171875013,
      "d": 1906.85546875,
      "v": 101
    },
    {
      "midi": 73,
      "hit": false,
      "t": 125347.70507812499,
      "d": 780.6890624999942,
      "v": 84
    },
    {
      "midi": 68,
      "hit": false,
      "t": 125347.705078125,
      "d": 116.65468750000582,
      "v": 51
    },
    {
      "midi": 89,
      "hit": false,
      "t": 125347.70507812501,
      "d": 648.3308593749971,
      "v": 99
    },
    {
      "midi": 61,
      "hit": false,
      "t": 125563.067578125,
      "d": 100.951171875,
      "v": 54
    },
    {
      "midi": 61,
      "hit": false,
      "t": 125778.43007812499,
      "d": 136.8449218750029,
      "v": 58
    },
    {
      "midi": 65,
      "hit": false,
      "t": 125993.792578125,
      "d": 109.92460937499709,
      "v": 61
    },
    {
      "midi": 68,
      "hit": false,
      "t": 126206.91171875,
      "d": 96.46445312499418,
      "v": 65
    },
    {
      "midi": 80,
      "hit": false,
      "t": 126209.15507812498,
      "d": 982.5914062499942,
      "v": 82
    },
    {
      "midi": 77,
      "hit": false,
      "t": 126209.15507812498,
      "d": 1009.51171875,
      "v": 80
    },
    {
      "midi": 68,
      "hit": false,
      "t": 126209.15507812498,
      "d": 1022.9718750000029,
      "v": 82
    },
    {
      "midi": 92,
      "hit": false,
      "t": 126209.15507812501,
      "d": 399.3179687499942,
      "v": 103
    },
    {
      "midi": 61,
      "hit": false,
      "t": 126424.51757812499,
      "d": 159.2785156250029,
      "v": 68
    },
    {
      "midi": 63,
      "hit": false,
      "t": 126639.88007812499,
      "d": 89.734375,
      "v": 72
    },
    {
      "midi": 77,
      "hit": false,
      "t": 126646.61015624997,
      "d": 145.818359375,
      "v": 84
    },
    {
      "midi": 65,
      "hit": false,
      "t": 126855.24257812499,
      "d": 94.22109375000582,
      "v": 75
    },
    {
      "midi": 75,
      "hit": false,
      "t": 126864.21601562497,
      "d": 112.16796875,
      "v": 88
    },
    {
      "midi": 68,
      "hit": false,
      "t": 127070.605078125,
      "d": 116.65468750000582,
      "v": 79
    },
    {
      "midi": 73,
      "hit": false,
      "t": 127072.84843749997,
      "d": 226.5792968750029,
      "v": 82
    },
    {
      "midi": 61,
      "hit": false,
      "t": 127285.967578125,
      "d": 100.951171875,
      "v": 82
    },
    {
      "midi": 68,
      "hit": false,
      "t": 127483.38320312512,
      "d": 1088.0292968749854,
      "v": 97
    },
    {
      "midi": 60,
      "hit": false,
      "t": 127490.11328125012,
      "d": 1108.2195312499825,
      "v": 99
    },
    {
      "midi": 63,
      "hit": false,
      "t": 127496.84335937511,
      "d": 1081.2992187499913,
      "v": 95
    },
    {
      "midi": 75,
      "hit": false,
      "t": 127501.33007812497,
      "d": 309.5835937499942,
      "v": 82
    },
    {
      "midi": 60,
      "hit": false,
      "t": 127501.33007812499,
      "d": 107.68124999999418,
      "v": 80
    },
    {
      "midi": 84,
      "hit": false,
      "t": 127501.330078125,
      "d": 204.1457031250029,
      "v": 102
    },
    {
      "midi": 63,
      "hit": false,
      "t": 127716.69257812497,
      "d": 100.951171875,
      "v": 78
    },
    {
      "midi": 68,
      "hit": false,
      "t": 127932.05507812496,
      "d": 130.11484374999418,
      "v": 76
    },
    {
      "midi": 75,
      "hit": false,
      "t": 127932.05507812496,
      "d": 962.4011718749825,
      "v": 88
    },
    {
      "midi": 60,
      "hit": false,
      "t": 128147.41757812495,
      "d": 125.62812500000291,
      "v": 74
    },
    {
      "midi": 61,
      "hit": false,
      "t": 128362.78007812495,
      "d": 148.0617187500029,
      "v": 73
    },
    {
      "midi": 77,
      "hit": false,
      "t": 128362.78007812498,
      "d": 347.720703125,
      "v": 87
    },
    {
      "midi": 72,
      "hit": false,
      "t": 128362.78007812498,
      "d": 390.3445312499971,
      "v": 87
    },
    {
      "midi": 80,
      "hit": false,
      "t": 128362.78007812498,
      "d": 390.3445312499971,
      "v": 82
    },
    {
      "midi": 92,
      "hit": false,
      "t": 128362.780078125,
      "d": 183.95546875000582,
      "v": 100
    },
    {
      "midi": 63,
      "hit": false,
      "t": 128578.14257812496,
      "d": 118.89804687499418,
      "v": 71
    },
    {
      "midi": 68,
      "hit": false,
      "t": 128775.5582031251,
      "d": 1915.828906249997,
      "v": 101
    },
    {
      "midi": 68,
      "hit": false,
      "t": 128793.50507812494,
      "d": 116.65468750000582,
      "v": 69
    },
    {
      "midi": 68,
      "hit": false,
      "t": 128793.50507812497,
      "d": 661.791015625,
      "v": 84
    },
    {
      "midi": 72,
      "hit": false,
      "t": 128793.50507812497,
      "d": 695.44140625,
      "v": 80
    },
    {
      "midi": 84,
      "hit": false,
      "t": 128793.505078125,
      "d": 181.7121093750029,
      "v": 103
    },
    {
      "midi": 63,
      "hit": false,
      "t": 128793.50507812509,
      "d": 1909.098828125003,
      "v": 96
    },
    {
      "midi": 60,
      "hit": false,
      "t": 128793.50507812509,
      "d": 1915.828906249997,
      "v": 103
    },
    {
      "midi": 60,
      "hit": false,
      "t": 129002.13749999995,
      "d": 121.14140624999709,
      "v": 67
    },
    {
      "midi": 75,
      "hit": false,
      "t": 129224.23007812492,
      "d": 296.1234375000058,
      "v": 81
    },
    {
      "midi": 60,
      "hit": false,
      "t": 129224.23007812495,
      "d": 121.14140624999709,
      "v": 66
    },
    {
      "midi": 63,
      "hit": false,
      "t": 129439.59257812495,
      "d": 121.14140624999709,
      "v": 64
    },
    {
      "midi": 73,
      "hit": false,
      "t": 129654.95507812493,
      "d": 747.0386718750087,
      "v": 81
    },
    {
      "midi": 68,
      "hit": false,
      "t": 129654.95507812494,
      "d": 87.49101562499709,
      "v": 62
    },
    {
      "midi": 80,
      "hit": false,
      "t": 129654.95507812497,
      "d": 726.8484374999971,
      "v": 82
    },
    {
      "midi": 68,
      "hit": false,
      "t": 129654.95507812497,
      "d": 767.2289062499913,
      "v": 87
    },
    {
      "midi": 77,
      "hit": false,
      "t": 129654.95507812497,
      "d": 789.6624999999913,
      "v": 82
    },
    {
      "midi": 92,
      "hit": false,
      "t": 129654.955078125,
      "d": 192.9289062500029,
      "v": 98
    },
    {
      "midi": 60,
      "hit": false,
      "t": 129870.31757812494,
      "d": 139.08828125000582,
      "v": 60
    },
    {
      "midi": 61,
      "hit": false,
      "t": 130085.68007812495,
      "d": 125.62812500000291,
      "v": 59
    },
    {
      "midi": 63,
      "hit": false,
      "t": 130301.04257812495,
      "d": 112.16796875,
      "v": 57
    },
    {
      "midi": 73,
      "hit": false,
      "t": 130516.40507812494,
      "d": 787.4191406250029,
      "v": 89
    },
    {
      "midi": 68,
      "hit": false,
      "t": 130516.40507812495,
      "d": 91.97773437500291,
      "v": 55
    },
    {
      "midi": 68,
      "hit": false,
      "t": 130516.40507812497,
      "d": 444.1851562499942,
      "v": 88
    },
    {
      "midi": 72,
      "hit": false,
      "t": 130516.40507812497,
      "d": 444.1851562499942,
      "v": 89
    },
    {
      "midi": 84,
      "hit": false,
      "t": 130516.405078125,
      "d": 181.7121093750029,
      "v": 99
    },
    {
      "midi": 60,
      "hit": false,
      "t": 130731.76757812496,
      "d": 83.00429687500582,
      "v": 53
    },
    {
      "midi": 87,
      "hit": false,
      "t": 130940.40000000004,
      "d": 5332.465234374991,
      "v": 54
    },
    {
      "midi": 65,
      "hit": false,
      "t": 130940.40000000008,
      "d": 686.4679687499884,
      "v": 104
    },
    {
      "midi": 61,
      "hit": false,
      "t": 130947.13007812496,
      "d": 136.84492187498836,
      "v": 52
    },
    {
      "midi": 85,
      "hit": false,
      "t": 130947.130078125,
      "d": 722.3617187499913,
      "v": 103
    },
    {
      "midi": 61,
      "hit": false,
      "t": 130947.13007812508,
      "d": 657.3042968749942,
      "v": 104
    },
    {
      "midi": 37,
      "hit": false,
      "t": 130947.13007812537,
      "d": 3304.468359374965,
      "v": 111
    },
    {
      "midi": 56,
      "hit": false,
      "t": 130960.59023437508,
      "d": 648.3308593749971,
      "v": 97
    },
    {
      "midi": 65,
      "hit": false,
      "t": 131162.49257812495,
      "d": 109.92460937501164,
      "v": 50
    },
    {
      "midi": 73,
      "hit": false,
      "t": 131364.39492187495,
      "d": 1837.3113281250698,
      "v": 86
    },
    {
      "midi": 68,
      "hit": false,
      "t": 131375.61171874998,
      "d": 96.46445312499418,
      "v": 48
    },
    {
      "midi": 61,
      "hit": false,
      "t": 131593.21757812498,
      "d": 159.27851562498836,
      "v": 46
    },
    {
      "midi": 80,
      "hit": false,
      "t": 131801.84999999998,
      "d": 432.9683593749942,
      "v": 84
    },
    {
      "midi": 73,
      "hit": false,
      "t": 131804.09335937497,
      "d": 410.5347656249942,
      "v": 81
    },
    {
      "midi": 77,
      "hit": false,
      "t": 131808.58007812497,
      "d": 403.8046875,
      "v": 86
    },
    {
      "midi": 63,
      "hit": false,
      "t": 131808.58007812497,
      "d": 89.734375,
      "v": 45
    },
    {
      "midi": 92,
      "hit": false,
      "t": 131808.580078125,
      "d": 332.0171874999942,
      "v": 103
    },
    {
      "midi": 56,
      "hit": false,
      "t": 131822.04023437537,
      "d": 735.8218749999942,
      "v": 75
    },
    {
      "midi": 65,
      "hit": false,
      "t": 132023.94257812496,
      "d": 94.22109375000582,
      "v": 43
    },
    {
      "midi": 68,
      "hit": false,
      "t": 132225.84492187496,
      "d": 787.4191406250175,
      "v": 85
    },
    {
      "midi": 61,
      "hit": false,
      "t": 132225.84492187508,
      "d": 1922.5589843750058,
      "v": 100
    },
    {
      "midi": 56,
      "hit": false,
      "t": 132225.84492187508,
      "d": 1927.0457031250116,
      "v": 103
    },
    {
      "midi": 65,
      "hit": false,
      "t": 132234.8183593751,
      "d": 1911.3421875000058,
      "v": 103
    },
    {
      "midi": 68,
      "hit": false,
      "t": 132239.30507812495,
      "d": 116.65468750000582,
      "v": 41
    },
    {
      "midi": 73,
      "hit": false,
      "t": 132239.30507812498,
      "d": 780.6890624999942,
      "v": 85
    },
    {
      "midi": 89,
      "hit": false,
      "t": 132239.305078125,
      "d": 648.3308593750116,
      "v": 99
    },
    {
      "midi": 65,
      "hit": false,
      "t": 132239.30507812536,
      "d": 401.56132812501164,
      "v": 97
    },
    {
      "midi": 61,
      "hit": false,
      "t": 132454.66757812497,
      "d": 100.951171875,
      "v": 39
    },
    {
      "midi": 61,
      "hit": false,
      "t": 132670.03007812495,
      "d": 136.84492187498836,
      "v": 38
    },
    {
      "midi": 63,
      "hit": false,
      "t": 132670.03007812536,
      "d": 390.34453124998254,
      "v": 95
    },
    {
      "midi": 56,
      "hit": false,
      "t": 132672.27343750035,
      "d": 729.091796875,
      "v": 76
    },
    {
      "midi": 65,
      "hit": false,
      "t": 132885.39257812494,
      "d": 109.92460937501164,
      "v": 36
    },
    {
      "midi": 63,
      "hit": false,
      "t": 133094.02500000034,
      "d": 444.1851562499942,
      "v": 102
    },
    {
      "midi": 68,
      "hit": false,
      "t": 133098.51171874997,
      "d": 96.46445312499418,
      "v": 34
    },
    {
      "midi": 68,
      "hit": false,
      "t": 133100.7550781249,
      "d": 201.90234375,
      "v": 89
    },
    {
      "midi": 80,
      "hit": false,
      "t": 133100.75507812496,
      "d": 982.5914062499942,
      "v": 82
    },
    {
      "midi": 77,
      "hit": false,
      "t": 133100.75507812496,
      "d": 1009.51171875,
      "v": 81
    },
    {
      "midi": 68,
      "hit": false,
      "t": 133100.75507812496,
      "d": 1022.9718749999884,
      "v": 81
    },
    {
      "midi": 92,
      "hit": false,
      "t": 133100.75507812502,
      "d": 399.3179687499942,
      "v": 97
    },
    {
      "midi": 68,
      "hit": false,
      "t": 133309.3874999999,
      "d": 201.90234375,
      "v": 92
    },
    {
      "midi": 61,
      "hit": false,
      "t": 133316.11757812498,
      "d": 159.27851562498836,
      "v": 32
    },
    {
      "midi": 56,
      "hit": false,
      "t": 133502.31640625035,
      "d": 816.5828124999825,
      "v": 76
    },
    {
      "midi": 68,
      "hit": false,
      "t": 133524.74999999988,
      "d": 201.90234375,
      "v": 89
    },
    {
      "midi": 63,
      "hit": false,
      "t": 133531.48007812497,
      "d": 89.734375,
      "v": 31
    },
    {
      "midi": 68,
      "hit": false,
      "t": 133549.42695312534,
      "d": 789.6625000000058,
      "v": 101
    },
    {
      "midi": 68,
      "hit": false,
      "t": 133733.38242187488,
      "d": 201.90234375,
      "v": 94
    },
    {
      "midi": 65,
      "hit": false,
      "t": 133746.84257812495,
      "d": 94.22109375000582,
      "v": 29
    },
    {
      "midi": 68,
      "hit": false,
      "t": 133948.74492187487,
      "d": 201.90234375,
      "v": 95
    },
    {
      "midi": 68,
      "hit": false,
      "t": 133962.20507812494,
      "d": 116.65468750000582,
      "v": 27
    },
    {
      "midi": 75,
      "hit": false,
      "t": 134177.56757812487,
      "d": 222.09257812498254,
      "v": 107
    },
    {
      "midi": 61,
      "hit": false,
      "t": 134177.56757812496,
      "d": 100.951171875,
      "v": 26
    },
    {
      "midi": 68,
      "hit": false,
      "t": 134386.20000000033,
      "d": 834.5296874999767,
      "v": 82
    },
    {
      "midi": 37,
      "hit": false,
      "t": 134386.20000000033,
      "d": 3405.419531249936,
      "v": 106
    },
    {
      "midi": 61,
      "hit": false,
      "t": 134388.4433593751,
      "d": 1180.0070312500175,
      "v": 99
    },
    {
      "midi": 73,
      "hit": false,
      "t": 134392.93007812486,
      "d": 430.7250000000058,
      "v": 103
    },
    {
      "midi": 56,
      "hit": false,
      "t": 134392.93007812495,
      "d": 1074.5691406250116,
      "v": 83
    },
    {
      "midi": 53,
      "hit": false,
      "t": 134392.93007812495,
      "d": 1081.2992187500058,
      "v": 86
    },
    {
      "midi": 61,
      "hit": false,
      "t": 134392.93007812495,
      "d": 1092.5160156250058,
      "v": 82
    },
    {
      "midi": 85,
      "hit": false,
      "t": 134392.930078125,
      "d": 204.14570312498836,
      "v": 97
    },
    {
      "midi": 56,
      "hit": false,
      "t": 134392.930078125,
      "d": 1637.65234375,
      "v": 101
    },
    {
      "midi": 56,
      "hit": false,
      "t": 134392.93007812533,
      "d": 742.5519531249884,
      "v": 96
    },
    {
      "midi": 53,
      "hit": false,
      "t": 134392.93007812533,
      "d": 834.5296874999767,
      "v": 81
    },
    {
      "midi": 61,
      "hit": false,
      "t": 134392.93007812533,
      "d": 2577.6199218749534,
      "v": 78
    },
    {
      "midi": 56,
      "hit": false,
      "t": 134397.4167968751,
      "d": 1137.3832031250058,
      "v": 96
    },
    {
      "midi": 53,
      "hit": false,
      "t": 134401.9035156251,
      "d": 1114.9496093750058,
      "v": 97
    },
    {
      "midi": 61,
      "hit": false,
      "t": 134823.65507812487,
      "d": 372.39765624998836,
      "v": 93
    },
    {
      "midi": 68,
      "hit": false,
      "t": 135238.6765625003,
      "d": 744.7953125000058,
      "v": 81
    },
    {
      "midi": 63,
      "hit": false,
      "t": 135240.91992187485,
      "d": 251.25625000000582,
      "v": 94
    },
    {
      "midi": 56,
      "hit": false,
      "t": 135254.3800781253,
      "d": 704.4148437500116,
      "v": 97
    },
    {
      "midi": 53,
      "hit": false,
      "t": 135254.3800781253,
      "d": 744.7953125000058,
      "v": 79
    },
    {
      "midi": 61,
      "hit": false,
      "t": 135469.74257812486,
      "d": 224.3359375,
      "v": 99
    },
    {
      "midi": 56,
      "hit": false,
      "t": 135667.15820312512,
      "d": 1915.8289062500116,
      "v": 100
    },
    {
      "midi": 56,
      "hit": false,
      "t": 135678.37499999994,
      "d": 190.685546875,
      "v": 86
    },
    {
      "midi": 77,
      "hit": false,
      "t": 135685.10507812485,
      "d": 112.16796875,
      "v": 61
    },
    {
      "midi": 65,
      "hit": false,
      "t": 135685.10507812485,
      "d": 121.14140625001164,
      "v": 95
    },
    {
      "midi": 61,
      "hit": false,
      "t": 135685.10507812494,
      "d": 154.79179687501164,
      "v": 86
    },
    {
      "midi": 65,
      "hit": false,
      "t": 135685.10507812494,
      "d": 154.79179687501164,
      "v": 86
    },
    {
      "midi": 61,
      "hit": false,
      "t": 135689.59179687512,
      "d": 1906.85546875,
      "v": 102
    },
    {
      "midi": 53,
      "hit": false,
      "t": 135698.56523437513,
      "d": 1882.1785156250116,
      "v": 101
    },
    {
      "midi": 78,
      "hit": false,
      "t": 135900.46757812487,
      "d": 80.76093749998836,
      "v": 67
    },
    {
      "midi": 66,
      "hit": false,
      "t": 135900.46757812487,
      "d": 94.22109374997672,
      "v": 97
    },
    {
      "midi": 61,
      "hit": false,
      "t": 135900.46757812495,
      "d": 1038.6753906249942,
      "v": 81
    },
    {
      "midi": 56,
      "hit": false,
      "t": 135900.46757812495,
      "d": 1045.4054687499884,
      "v": 88
    },
    {
      "midi": 65,
      "hit": false,
      "t": 135902.71093749994,
      "d": 1018.4851562500116,
      "v": 87
    },
    {
      "midi": 65,
      "hit": false,
      "t": 136111.3433593753,
      "d": 1485.1039062499767,
      "v": 83
    },
    {
      "midi": 80,
      "hit": false,
      "t": 136115.83007812485,
      "d": 76.27421875001164,
      "v": 72
    },
    {
      "midi": 68,
      "hit": false,
      "t": 136115.83007812485,
      "d": 94.22109375000582,
      "v": 92
    },
    {
      "midi": 53,
      "hit": false,
      "t": 136115.830078125,
      "d": 192.92890624998836,
      "v": 99
    },
    {
      "midi": 53,
      "hit": false,
      "t": 136115.83007812532,
      "d": 215.36249999998836,
      "v": 98
    },
    {
      "midi": 82,
      "hit": false,
      "t": 136317.73242187485,
      "d": 121.14140625001164,
      "v": 77
    },
    {
      "midi": 70,
      "hit": false,
      "t": 136317.73242187485,
      "d": 148.06171875001746,
      "v": 96
    },
    {
      "midi": 54,
      "hit": false,
      "t": 136331.192578125,
      "d": 161.52187500000582,
      "v": 99
    },
    {
      "midi": 54,
      "hit": false,
      "t": 136331.1925781253,
      "d": 89.734375,
      "v": 98
    },
    {
      "midi": 72,
      "hit": false,
      "t": 136544.31171874987,
      "d": 107.68124999999418,
      "v": 92
    },
    {
      "midi": 84,
      "hit": false,
      "t": 136544.31171874987,
      "d": 121.14140624998254,
      "v": 83
    },
    {
      "midi": 56,
      "hit": false,
      "t": 136546.555078125,
      "d": 161.52187500000582,
      "v": 102
    },
    {
      "midi": 56,
      "hit": false,
      "t": 136546.5550781253,
      "d": 91.97773437498836,
      "v": 100
    },
    {
      "midi": 85,
      "hit": false,
      "t": 136748.45742187486,
      "d": 83.00429687500582,
      "v": 88
    },
    {
      "midi": 73,
      "hit": false,
      "t": 136748.45742187486,
      "d": 121.14140625001164,
      "v": 93
    },
    {
      "midi": 58,
      "hit": false,
      "t": 136757.43085937528,
      "d": 105.43789062500582,
      "v": 103
    },
    {
      "midi": 58,
      "hit": false,
      "t": 136761.91757812502,
      "d": 136.84492187498836,
      "v": 101
    },
    {
      "midi": 63,
      "hit": false,
      "t": 136950.35976562486,
      "d": 134.6015624999709,
      "v": 94
    },
    {
      "midi": 87,
      "hit": false,
      "t": 136963.81992187485,
      "d": 91.97773437498836,
      "v": 93
    },
    {
      "midi": 75,
      "hit": false,
      "t": 136963.81992187485,
      "d": 121.14140624998254,
      "v": 96
    },
    {
      "midi": 56,
      "hit": false,
      "t": 136977.280078125,
      "d": 143.57500000001164,
      "v": 100
    },
    {
      "midi": 60,
      "hit": false,
      "t": 136977.28007812527,
      "d": 121.14140625001164,
      "v": 105
    },
    {
      "midi": 56,
      "hit": false,
      "t": 136977.28007812527,
      "d": 148.06171875001746,
      "v": 80
    },
    {
      "midi": 53,
      "hit": false,
      "t": 136977.28007812527,
      "d": 338.74726562501746,
      "v": 78
    },
    {
      "midi": 61,
      "hit": false,
      "t": 136984.01015624995,
      "d": 121.14140624998254,
      "v": 84
    },
    {
      "midi": 56,
      "hit": false,
      "t": 136984.01015624995,
      "d": 127.87148437497672,
      "v": 86
    },
    {
      "midi": 65,
      "hit": false,
      "t": 136986.25351562494,
      "d": 112.16796875,
      "v": 84
    },
    {
      "midi": 65,
      "hit": false,
      "t": 137165.72226562482,
      "d": 148.06171874998836,
      "v": 96
    },
    {
      "midi": 89,
      "hit": false,
      "t": 137179.1824218748,
      "d": 100.951171875,
      "v": 99
    },
    {
      "midi": 77,
      "hit": false,
      "t": 137179.1824218748,
      "d": 148.06171874998836,
      "v": 94
    },
    {
      "midi": 58,
      "hit": false,
      "t": 137192.64257812503,
      "d": 134.6015625,
      "v": 98
    },
    {
      "midi": 61,
      "hit": false,
      "t": 137192.6425781253,
      "d": 107.68124999999418,
      "v": 107
    },
    {
      "midi": 58,
      "hit": false,
      "t": 137192.6425781253,
      "d": 141.33164062499418,
      "v": 75
    },
    {
      "midi": 56,
      "hit": false,
      "t": 137194.88593749993,
      "d": 150.30507812500582,
      "v": 82
    },
    {
      "midi": 65,
      "hit": false,
      "t": 137197.12929687492,
      "d": 116.65468750000582,
      "v": 85
    },
    {
      "midi": 61,
      "hit": false,
      "t": 137197.12929687492,
      "d": 125.62812500001746,
      "v": 81
    },
    {
      "midi": 66,
      "hit": false,
      "t": 137381.0847656248,
      "d": 134.6015625,
      "v": 99
    },
    {
      "midi": 90,
      "hit": false,
      "t": 137394.5449218748,
      "d": 87.49101562501164,
      "v": 104
    },
    {
      "midi": 78,
      "hit": false,
      "t": 137394.5449218748,
      "d": 121.14140625001164,
      "v": 97
    },
    {
      "midi": 56,
      "hit": false,
      "t": 137408.00507812502,
      "d": 139.08828125000582,
      "v": 99
    },
    {
      "midi": 56,
      "hit": false,
      "t": 137408.00507812528,
      "d": 123.384765625,
      "v": 77
    },
    {
      "midi": 63,
      "hit": false,
      "t": 137408.00507812528,
      "d": 134.6015625,
      "v": 110
    },
    {
      "midi": 65,
      "hit": false,
      "t": 137410.24843749995,
      "d": 134.6015625,
      "v": 80
    },
    {
      "midi": 61,
      "hit": false,
      "t": 137410.24843749995,
      "d": 136.84492187498836,
      "v": 87
    },
    {
      "midi": 56,
      "hit": false,
      "t": 137410.24843749995,
      "d": 141.33164062499418,
      "v": 88
    },
    {
      "midi": 68,
      "hit": false,
      "t": 137600.9339843748,
      "d": 121.14140624998254,
      "v": 91
    },
    {
      "midi": 92,
      "hit": false,
      "t": 137614.3941406248,
      "d": 107.68124999999418,
      "v": 110
    },
    {
      "midi": 80,
      "hit": false,
      "t": 137614.3941406248,
      "d": 134.6015625,
      "v": 92
    },
    {
      "midi": 61,
      "hit": false,
      "t": 137623.36757812495,
      "d": 132.35820312498254,
      "v": 84
    },
    {
      "midi": 58,
      "hit": false,
      "t": 137623.36757812503,
      "d": 141.33164062499418,
      "v": 98
    },
    {
      "midi": 65,
      "hit": false,
      "t": 137623.3675781253,
      "d": 114.41132812498836,
      "v": 112
    },
    {
      "midi": 58,
      "hit": false,
      "t": 137623.3675781253,
      "d": 132.35820312498254,
      "v": 82
    },
    {
      "midi": 56,
      "hit": false,
      "t": 137625.61093749994,
      "d": 130.11484374999418,
      "v": 89
    },
    {
      "midi": 65,
      "hit": false,
      "t": 137625.61093749994,
      "d": 132.35820312498254,
      "v": 87
    },
    {
      "midi": 75,
      "hit": false,
      "t": 137832.00000000003,
      "d": 1695.9796875000175,
      "v": 96
    },
    {
      "midi": 71,
      "hit": false,
      "t": 137832.00000000003,
      "d": 1709.4398437500058,
      "v": 95
    },
    {
      "midi": 59,
      "hit": false,
      "t": 137832.00000000012,
      "d": 1608.4886718750058,
      "v": 103
    },
    {
      "midi": 83,
      "hit": false,
      "t": 137838.7300781248,
      "d": 1736.3601562499825,
      "v": 99
    },
    {
      "midi": 95,
      "hit": false,
      "t": 137838.7300781248,
      "d": 1749.820312499971,
      "v": 81
    },
    {
      "midi": 59,
      "hit": false,
      "t": 137838.7300781249,
      "d": 1615.21875,
      "v": 81
    },
    {
      "midi": 54,
      "hit": false,
      "t": 137838.7300781249,
      "d": 1621.9488281249942,
      "v": 88
    },
    {
      "midi": 63,
      "hit": false,
      "t": 137838.7300781249,
      "d": 1624.1921874999825,
      "v": 88
    },
    {
      "midi": 59,
      "hit": false,
      "t": 137838.73007812502,
      "d": 1610.7320312499942,
      "v": 98
    },
    {
      "midi": 47,
      "hit": false,
      "t": 137838.73007812526,
      "d": 1660.0859375,
      "v": 84
    },
    {
      "midi": 63,
      "hit": false,
      "t": 137838.73007812526,
      "d": 1693.736328125,
      "v": 83
    },
    {
      "midi": 54,
      "hit": false,
      "t": 137838.73007812526,
      "d": 1709.4398437500058,
      "v": 82
    },
    {
      "midi": 75,
      "hit": false,
      "t": 137838.73007812526,
      "d": 1736.3601562500116,
      "v": 99
    },
    {
      "midi": 59,
      "hit": false,
      "t": 137838.73007812526,
      "d": 1763.2804687500175,
      "v": 80
    },
    {
      "midi": 75,
      "hit": false,
      "t": 137840.97343749978,
      "d": 1720.6566406250058,
      "v": 98
    },
    {
      "midi": 66,
      "hit": false,
      "t": 137840.97343750004,
      "d": 1709.4398437499767,
      "v": 96
    },
    {
      "midi": 63,
      "hit": false,
      "t": 137843.21679687512,
      "d": 1581.568359375,
      "v": 100
    },
    {
      "midi": 66,
      "hit": false,
      "t": 137843.21679687512,
      "d": 1586.0550781250058,
      "v": 100
    },
    {
      "midi": 78,
      "hit": false,
      "t": 138269.455078125,
      "d": 204.14570312498836,
      "v": 84
    },
    {
      "midi": 71,
      "hit": false,
      "t": 138679.9898437501,
      "d": 628.140625,
      "v": 101
    },
    {
      "midi": 78,
      "hit": false,
      "t": 138700.18007812498,
      "d": 240.03945312500582,
      "v": 84
    },
    {
      "midi": 78,
      "hit": false,
      "t": 139130.90507812498,
      "d": 89.734375,
      "v": 82
    },
    {
      "midi": 78,
      "hit": false,
      "t": 139346.26757812497,
      "d": 524.9460937499825,
      "v": 88
    },
    {
      "midi": 61,
      "hit": false,
      "t": 139548.16992187488,
      "d": 1601.7585937499825,
      "v": 82
    },
    {
      "midi": 58,
      "hit": false,
      "t": 139548.16992187503,
      "d": 1637.65234375,
      "v": 103
    },
    {
      "midi": 73,
      "hit": false,
      "t": 139548.16992187503,
      "d": 1687.0062500000058,
      "v": 100
    },
    {
      "midi": 70,
      "hit": false,
      "t": 139548.16992187503,
      "d": 1695.9796875000175,
      "v": 98
    },
    {
      "midi": 61,
      "hit": false,
      "t": 139548.16992187526,
      "d": 1671.302734375,
      "v": 77
    },
    {
      "midi": 73,
      "hit": false,
      "t": 139548.16992187526,
      "d": 1691.4929687500116,
      "v": 104
    },
    {
      "midi": 66,
      "hit": false,
      "t": 139554.90000000002,
      "d": 1669.0593750000116,
      "v": 98
    },
    {
      "midi": 58,
      "hit": false,
      "t": 139557.14335937527,
      "d": 1655.5992187499942,
      "v": 75
    },
    {
      "midi": 94,
      "hit": false,
      "t": 139561.63007812478,
      "d": 1664.5726562499767,
      "v": 77
    },
    {
      "midi": 73,
      "hit": false,
      "t": 139561.63007812478,
      "d": 1709.4398437499767,
      "v": 92
    },
    {
      "midi": 82,
      "hit": false,
      "t": 139561.63007812478,
      "d": 1709.4398437499767,
      "v": 97
    },
    {
      "midi": 58,
      "hit": false,
      "t": 139561.63007812487,
      "d": 1619.7054687500058,
      "v": 85
    },
    {
      "midi": 54,
      "hit": false,
      "t": 139561.63007812487,
      "d": 1646.6257812500116,
      "v": 82
    },
    {
      "midi": 54,
      "hit": false,
      "t": 139561.63007812528,
      "d": 1682.51953125,
      "v": 82
    },
    {
      "midi": 42,
      "hit": false,
      "t": 139561.63007812528,
      "d": 1695.9796874999884,
      "v": 91
    },
    {
      "midi": 66,
      "hit": false,
      "t": 139563.87343750012,
      "d": 1572.5949218749884,
      "v": 102
    },
    {
      "midi": 70,
      "hit": false,
      "t": 139566.1167968751,
      "d": 352.2074218750058,
      "v": 98
    },
    {
      "midi": 61,
      "hit": false,
      "t": 139566.1167968751,
      "d": 1579.3250000000116,
      "v": 95
    },
    {
      "midi": 58,
      "hit": false,
      "t": 139566.1167968751,
      "d": 1592.78515625,
      "v": 104
    },
    {
      "midi": 70,
      "hit": false,
      "t": 139985.62500000012,
      "d": 372.39765624998836,
      "v": 96
    },
    {
      "midi": 77,
      "hit": false,
      "t": 139992.35507812494,
      "d": 363.4242187500058,
      "v": 81
    },
    {
      "midi": 70,
      "hit": false,
      "t": 140411.86328125012,
      "d": 397.0746093750058,
      "v": 95
    },
    {
      "midi": 75,
      "hit": false,
      "t": 140423.08007812494,
      "d": 365.6675781249942,
      "v": 81
    },
    {
      "midi": 73,
      "hit": false,
      "t": 140849.31835937494,
      "d": 388.1011718749942,
      "v": 86
    },
    {
      "midi": 70,
      "hit": false,
      "t": 140853.80507812512,
      "d": 376.8843749999942,
      "v": 104
    },
    {
      "midi": 68,
      "hit": false,
      "t": 141271.06992187505,
      "d": 2303.930078124744,
      "v": 97
    },
    {
      "midi": 61,
      "hit": false,
      "t": 141280.04335937512,
      "d": 3145.189843750006,
      "v": 101
    },
    {
      "midi": 65,
      "hit": false,
      "t": 141280.04335937512,
      "d": 3147.433203124994,
      "v": 103
    },
    {
      "midi": 80,
      "hit": false,
      "t": 141284.53007812475,
      "d": 1657.8425781247497,
      "v": 97
    },
    {
      "midi": 92,
      "hit": false,
      "t": 141284.53007812475,
      "d": 1720.656640624773,
      "v": 82
    },
    {
      "midi": 53,
      "hit": false,
      "t": 141284.5300781249,
      "d": 1574.8382812500058,
      "v": 85
    },
    {
      "midi": 56,
      "hit": false,
      "t": 141284.5300781249,
      "d": 1574.8382812500058,
      "v": 88
    },
    {
      "midi": 61,
      "hit": false,
      "t": 141284.5300781249,
      "d": 1601.7585937500116,
      "v": 80
    },
    {
      "midi": 73,
      "hit": false,
      "t": 141284.53007812492,
      "d": 269.203125,
      "v": 85
    },
    {
      "midi": 56,
      "hit": false,
      "t": 141284.53007812504,
      "d": 2884.9601562499884,
      "v": 100
    },
    {
      "midi": 73,
      "hit": false,
      "t": 141284.53007812504,
      "d": 2290.4699218747555,
      "v": 103
    },
    {
      "midi": 73,
      "hit": false,
      "t": 141284.53007812527,
      "d": 1590.5417968750116,
      "v": 103
    },
    {
      "midi": 37,
      "hit": false,
      "t": 141284.53007812527,
      "d": 3275.304687500029,
      "v": 90
    },
    {
      "midi": 61,
      "hit": false,
      "t": 141284.53007812527,
      "d": 3365.039062500029,
      "v": 78
    },
    {
      "midi": 65,
      "hit": false,
      "t": 141284.53007812527,
      "d": 3365.039062500029,
      "v": 78
    },
    {
      "midi": 56,
      "hit": false,
      "t": 141284.53007812527,
      "d": 3391.959375000035,
      "v": 76
    },
    {
      "midi": 65,
      "hit": false,
      "t": 141286.77343750003,
      "d": 2288.226562499767,
      "v": 97
    },
    {
      "midi": 68,
      "hit": false,
      "t": 141297.99023437512,
      "d": 3116.0261718750116,
      "v": 102
    },
    {
      "midi": 73,
      "hit": false,
      "t": 141715.25507812493,
      "d": 722.3617187500058,
      "v": 82
    },
    {
      "midi": 77,
      "hit": false,
      "t": 142565.48828124994,
      "d": 628.140625,
      "v": 82
    },
    {
      "midi": 61,
      "hit": false,
      "t": 142993.9699218749,
      "d": 1669.0593750000116,
      "v": 85
    },
    {
      "midi": 65,
      "hit": false,
      "t": 142996.2132812495,
      "d": 168.251953125,
      "v": 116
    },
    {
      "midi": 80,
      "hit": false,
      "t": 143002.9433593753,
      "d": 228.82265625000582,
      "v": 118
    },
    {
      "midi": 56,
      "hit": false,
      "t": 143007.4300781249,
      "d": 1514.267578125,
      "v": 88
    },
    {
      "midi": 53,
      "hit": false,
      "t": 143007.4300781249,
      "d": 1590.5417968750116,
      "v": 89
    },
    {
      "midi": 68,
      "hit": false,
      "t": 143007.43007812515,
      "d": 251.25624999997672,
      "v": 100
    },
    {
      "midi": 65,
      "hit": false,
      "t": 143007.43007812515,
      "d": 280.4199218749709,
      "v": 98
    },
    {
      "midi": 61,
      "hit": false,
      "t": 143009.67343750014,
      "d": 323.04374999998254,
      "v": 95
    },
    {
      "midi": 75,
      "hit": false,
      "t": 143209.33242187495,
      "d": 240.03945312497672,
      "v": 85
    },
    {
      "midi": 78,
      "hit": false,
      "t": 143209.3324218753,
      "d": 141.33164062499418,
      "v": 115
    },
    {
      "midi": 63,
      "hit": false,
      "t": 143218.30585937452,
      "d": 130.11484374999418,
      "v": 117
    },
    {
      "midi": 78,
      "hit": false,
      "t": 143426.9382812503,
      "d": 127.87148437500582,
      "v": 112
    },
    {
      "midi": 73,
      "hit": false,
      "t": 143435.91171874994,
      "d": 296.1234374999767,
      "v": 83
    },
    {
      "midi": 63,
      "hit": false,
      "t": 143438.15507812452,
      "d": 107.68124999999418,
      "v": 113
    },
    {
      "midi": 66,
      "hit": false,
      "t": 143438.15507812513,
      "d": 262.4730468750058,
      "v": 103
    },
    {
      "midi": 63,
      "hit": false,
      "t": 143438.15507812513,
      "d": 309.5835937499942,
      "v": 102
    },
    {
      "midi": 61,
      "hit": false,
      "t": 143447.12851562514,
      "d": 298.3667968749942,
      "v": 102
    },
    {
      "midi": 77,
      "hit": false,
      "t": 143640.0574218753,
      "d": 152.54843749999418,
      "v": 108
    },
    {
      "midi": 61,
      "hit": false,
      "t": 143642.3007812495,
      "d": 121.14140625001164,
      "v": 111
    },
    {
      "midi": 61,
      "hit": false,
      "t": 143868.88007812452,
      "d": 112.16796875,
      "v": 108
    },
    {
      "midi": 65,
      "hit": false,
      "t": 143868.88007812513,
      "d": 323.04375000001164,
      "v": 96
    },
    {
      "midi": 61,
      "hit": false,
      "t": 143868.88007812513,
      "d": 363.4242187500058,
      "v": 97
    },
    {
      "midi": 77,
      "hit": false,
      "t": 143868.8800781253,
      "d": 148.06171874998836,
      "v": 105
    },
    {
      "midi": 56,
      "hit": false,
      "t": 143877.85351562515,
      "d": 343.2339843749942,
      "v": 101
    },
    {
      "midi": 58,
      "hit": false,
      "t": 144084.2425781245,
      "d": 112.16796875,
      "v": 116
    },
    {
      "midi": 75,
      "hit": false,
      "t": 144086.48593750029,
      "d": 85.24765624999418,
      "v": 104
    },
    {
      "midi": 56,
      "hit": false,
      "t": 144299.6050781245,
      "d": 112.16796875,
      "v": 114
    },
    {
      "midi": 61,
      "hit": false,
      "t": 144299.60507812514,
      "d": 309.5835937500233,
      "v": 102
    },
    {
      "midi": 63,
      "hit": false,
      "t": 144299.60507812514,
      "d": 349.96406250001746,
      "v": 95
    },
    {
      "midi": 73,
      "hit": false,
      "t": 144299.60507812529,
      "d": 121.14140625001164,
      "v": 112
    },
    {
      "midi": 56,
      "hit": false,
      "t": 144308.57851562515,
      "d": 296.1234375000058,
      "v": 102
    },
    {
      "midi": 68,
      "hit": false,
      "t": 144514.9675781253,
      "d": 114.41132812498836,
      "v": 112
    },
    {
      "midi": 53,
      "hit": false,
      "t": 144517.2109374995,
      "d": 112.16796875,
      "v": 109
    },
    {
      "midi": 63,
      "hit": false,
      "t": 144712.38320312512,
      "d": 1599.5152343749942,
      "v": 102
    },
    {
      "midi": 75,
      "hit": false,
      "t": 144723.59999999957,
      "d": 1695.9796875000175,
      "v": 99
    },
    {
      "midi": 71,
      "hit": false,
      "t": 144723.59999999957,
      "d": 1709.439843750035,
      "v": 99
    },
    {
      "midi": 71,
      "hit": false,
      "t": 144723.6000000003,
      "d": 1709.4398437500058,
      "v": 83
    },
    {
      "midi": 47,
      "hit": false,
      "t": 144723.6000000003,
      "d": 1756.5503906249942,
      "v": 88
    },
    {
      "midi": 95,
      "hit": false,
      "t": 144730.3300781245,
      "d": 1749.8203125,
      "v": 77
    },
    {
      "midi": 59,
      "hit": false,
      "t": 144730.3300781249,
      "d": 1615.21875,
      "v": 88
    },
    {
      "midi": 54,
      "hit": false,
      "t": 144730.3300781249,
      "d": 1621.9488281249942,
      "v": 88
    },
    {
      "midi": 63,
      "hit": false,
      "t": 144730.3300781249,
      "d": 1624.1921874999825,
      "v": 83
    },
    {
      "midi": 59,
      "hit": false,
      "t": 144730.33007812503,
      "d": 1610.7320312499942,
      "v": 100
    },
    {
      "midi": 71,
      "hit": false,
      "t": 144730.33007812512,
      "d": 1563.6214843750058,
      "v": 104
    },
    {
      "midi": 59,
      "hit": false,
      "t": 144730.3300781253,
      "d": 1722.9000000000233,
      "v": 81
    },
    {
      "midi": 54,
      "hit": false,
      "t": 144730.3300781253,
      "d": 1736.3601562500116,
      "v": 78
    },
    {
      "midi": 71,
      "hit": false,
      "t": 144732.5734374995,
      "d": 1704.953125,
      "v": 92
    },
    {
      "midi": 66,
      "hit": false,
      "t": 144732.57343749958,
      "d": 1695.9796875000175,
      "v": 99
    },
    {
      "midi": 66,
      "hit": false,
      "t": 144739.30351562513,
      "d": 1559.134765625,
      "v": 99
    },
    {
      "midi": 78,
      "hit": false,
      "t": 145591.78007812492,
      "d": 345.47734375001164,
      "v": 84
    },
    {
      "midi": 78,
      "hit": false,
      "t": 146022.50507812493,
      "d": 91.97773437498836,
      "v": 81
    },
    {
      "midi": 78,
      "hit": false,
      "t": 146237.86757812492,
      "d": 603.4636718750407,
      "v": 80
    },
    {
      "midi": 73,
      "hit": false,
      "t": 146439.7699218746,
      "d": 1687.0062500000058,
      "v": 101
    },
    {
      "midi": 70,
      "hit": false,
      "t": 146439.7699218746,
      "d": 1695.9796875000175,
      "v": 98
    },
    {
      "midi": 61,
      "hit": false,
      "t": 146439.7699218749,
      "d": 1601.7585937499825,
      "v": 89
    },
    {
      "midi": 58,
      "hit": false,
      "t": 146439.76992187503,
      "d": 1637.65234375,
      "v": 98
    },
    {
      "midi": 70,
      "hit": false,
      "t": 146446.4999999995,
      "d": 926.5074218750233,
      "v": 96
    },
    {
      "midi": 66,
      "hit": false,
      "t": 146446.4999999996,
      "d": 1669.0593750000116,
      "v": 95
    },
    {
      "midi": 66,
      "hit": false,
      "t": 146446.50000000012,
      "d": 1489.5906249999825,
      "v": 100
    },
    {
      "midi": 70,
      "hit": false,
      "t": 146448.7433593751,
      "d": 1498.5640624999942,
      "v": 100
    },
    {
      "midi": 94,
      "hit": false,
      "t": 146453.2300781245,
      "d": 1664.572656250035,
      "v": 84
    },
    {
      "midi": 58,
      "hit": false,
      "t": 146453.23007812488,
      "d": 1619.7054687500058,
      "v": 89
    },
    {
      "midi": 54,
      "hit": false,
      "t": 146453.23007812488,
      "d": 1646.6257812500116,
      "v": 88
    },
    {
      "midi": 58,
      "hit": false,
      "t": 146453.2300781253,
      "d": 1695.9796874999884,
      "v": 82
    },
    {
      "midi": 61,
      "hit": false,
      "t": 146453.2300781253,
      "d": 1695.9796874999884,
      "v": 81
    },
    {
      "midi": 42,
      "hit": false,
      "t": 146453.2300781253,
      "d": 1709.4398437499767,
      "v": 92
    },
    {
      "midi": 70,
      "hit": false,
      "t": 146455.4734375003,
      "d": 1695.9796874999884,
      "v": 80
    },
    {
      "midi": 61,
      "hit": false,
      "t": 146466.6902343751,
      "d": 1473.8871093750058,
      "v": 104
    },
    {
      "midi": 77,
      "hit": false,
      "t": 146883.95507812497,
      "d": 397.0746093750058,
      "v": 83
    },
    {
      "midi": 75,
      "hit": false,
      "t": 147314.68007812498,
      "d": 374.6410156250058,
      "v": 84
    },
    {
      "midi": 71,
      "hit": false,
      "t": 147352.81718749952,
      "d": 388.1011718750233,
      "v": 90
    },
    {
      "midi": 73,
      "hit": false,
      "t": 147729.70156249954,
      "d": 428.48164062498836,
      "v": 94
    },
    {
      "midi": 73,
      "hit": false,
      "t": 147745.40507812498,
      "d": 374.6410156250058,
      "v": 85
    },
    {
      "midi": 68,
      "hit": false,
      "t": 148140.23632812453,
      "d": 1635.4089843747788,
      "v": 99
    },
    {
      "midi": 68,
      "hit": false,
      "t": 148162.66992187462,
      "d": 2303.930078124744,
      "v": 102
    },
    {
      "midi": 61,
      "hit": false,
      "t": 148162.6699218753,
      "d": 3317.9285156249825,
      "v": 77
    },
    {
      "midi": 56,
      "hit": false,
      "t": 148162.6699218753,
      "d": 3382.985937499994,
      "v": 79
    },
    {
      "midi": 37,
      "hit": false,
      "t": 148164.91328125028,
      "d": 2967.9644531250233,
      "v": 93
    },
    {
      "midi": 65,
      "hit": false,
      "t": 148169.4000000001,
      "d": 830.04296875,
      "v": 103
    },
    {
      "midi": 61,
      "hit": false,
      "t": 148171.6433593751,
      "d": 1642.139062500035,
      "v": 95
    },
    {
      "midi": 56,
      "hit": false,
      "t": 148171.6433593751,
      "d": 3288.7648437500175,
      "v": 95
    },
    {
      "midi": 92,
      "hit": false,
      "t": 148176.13007812452,
      "d": 1720.656640624773,
      "v": 82
    },
    {
      "midi": 73,
      "hit": false,
      "t": 148176.1300781246,
      "d": 2290.4699218747555,
      "v": 104
    },
    {
      "midi": 53,
      "hit": false,
      "t": 148176.1300781249,
      "d": 1574.8382812500058,
      "v": 84
    },
    {
      "midi": 56,
      "hit": false,
      "t": 148176.1300781249,
      "d": 1574.8382812500058,
      "v": 84
    },
    {
      "midi": 61,
      "hit": false,
      "t": 148176.1300781249,
      "d": 1601.7585937500116,
      "v": 84
    },
    {
      "midi": 56,
      "hit": false,
      "t": 148176.13007812505,
      "d": 1606.2453124999884,
      "v": 96
    },
    {
      "midi": 68,
      "hit": false,
      "t": 148176.1300781251,
      "d": 3295.4949218750116,
      "v": 104
    },
    {
      "midi": 68,
      "hit": false,
      "t": 148176.13007812528,
      "d": 1556.8914062500116,
      "v": 76
    },
    {
      "midi": 65,
      "hit": false,
      "t": 148178.3734374996,
      "d": 2288.226562499767,
      "v": 98
    },
    {
      "midi": 73,
      "hit": false,
      "t": 148602.368359375,
      "d": 186.19882812499418,
      "v": 89
    },
    {
      "midi": 70,
      "hit": false,
      "t": 148822.21757812498,
      "d": 163.76523437499418,
      "v": 88
    },
    {
      "midi": 73,
      "hit": false,
      "t": 149037.58007812497,
      "d": 210.87578125001164,
      "v": 82
    },
    {
      "midi": 65,
      "hit": false,
      "t": 149042.06679687512,
      "d": 2326.363671875006,
      "v": 96
    },
    {
      "midi": 73,
      "hit": false,
      "t": 149468.30507812498,
      "d": 177.22539062501164,
      "v": 85
    },
    {
      "midi": 77,
      "hit": false,
      "t": 149468.30507812527,
      "d": 188.44218750001164,
      "v": 99
    },
    {
      "midi": 78,
      "hit": false,
      "t": 149683.66757812529,
      "d": 231.06601562502328,
      "v": 98
    },
    {
      "midi": 61,
      "hit": false,
      "t": 149885.5699218749,
      "d": 1669.0593750000116,
      "v": 81
    },
    {
      "midi": 61,
      "hit": false,
      "t": 149894.54335937512,
      "d": 1601.7585937499825,
      "v": 96
    },
    {
      "midi": 56,
      "hit": false,
      "t": 149899.0300781249,
      "d": 1514.267578125,
      "v": 89
    },
    {
      "midi": 53,
      "hit": false,
      "t": 149899.0300781249,
      "d": 1590.5417968750116,
      "v": 87
    },
    {
      "midi": 73,
      "hit": false,
      "t": 149899.03007812498,
      "d": 249.01289062498836,
      "v": 82
    },
    {
      "midi": 53,
      "hit": false,
      "t": 149899.03007812504,
      "d": 181.71210937498836,
      "v": 95
    },
    {
      "midi": 80,
      "hit": false,
      "t": 149899.0300781253,
      "d": 161.52187500000582,
      "v": 97
    },
    {
      "midi": 77,
      "hit": false,
      "t": 150114.39257812532,
      "d": 134.6015625,
      "v": 100
    },
    {
      "midi": 58,
      "hit": false,
      "t": 150123.36601562516,
      "d": 114.41132812498836,
      "v": 100
    },
    {
      "midi": 70,
      "hit": false,
      "t": 150123.36601562516,
      "d": 136.84492187498836,
      "v": 101
    },
    {
      "midi": 61,
      "hit": false,
      "t": 150327.51171875015,
      "d": 130.11484374999418,
      "v": 101
    },
    {
      "midi": 73,
      "hit": false,
      "t": 150329.7550781253,
      "d": 148.06171874998836,
      "v": 104
    },
    {
      "midi": 73,
      "hit": false,
      "t": 150334.24179687514,
      "d": 136.84492187498836,
      "v": 95
    },
    {
      "midi": 63,
      "hit": false,
      "t": 150545.11757812512,
      "d": 459.8886718749709,
      "v": 99
    },
    {
      "midi": 75,
      "hit": false,
      "t": 150545.1175781253,
      "d": 646.0874999999942,
      "v": 101
    },
    {
      "midi": 75,
      "hit": false,
      "t": 150554.09101562513,
      "d": 403.8046874999709,
      "v": 101
    },
    {
      "midi": 65,
      "hit": false,
      "t": 150556.33437500012,
      "d": 316.31367187498836,
      "v": 96
    },
    {
      "midi": 68,
      "hit": false,
      "t": 150556.33437500012,
      "d": 379.12773437498254,
      "v": 104
    },
    {
      "midi": 52,
      "hit": false,
      "t": 150648.31210937502,
      "d": 114.41132812501746,
      "v": 100
    },
    {
      "midi": 53,
      "hit": false,
      "t": 150753.75000000003,
      "d": 208.63242187502328,
      "v": 102
    },
    {
      "midi": 77,
      "hit": false,
      "t": 150760.48007812497,
      "d": 157.0351562499709,
      "v": 88
    },
    {
      "midi": 80,
      "hit": false,
      "t": 150978.08593749994,
      "d": 423.99492187501164,
      "v": 80
    },
    {
      "midi": 73,
      "hit": false,
      "t": 150980.3292968751,
      "d": 293.88007812498836,
      "v": 101
    },
    {
      "midi": 65,
      "hit": false,
      "t": 150980.3292968751,
      "d": 329.7738281249767,
      "v": 103
    },
    {
      "midi": 61,
      "hit": false,
      "t": 150982.5726562501,
      "d": 269.203125,
      "v": 101
    },
    {
      "midi": 68,
      "hit": false,
      "t": 150987.0593750001,
      "d": 289.39335937498254,
      "v": 103
    },
    {
      "midi": 53,
      "hit": false,
      "t": 151191.20507812506,
      "d": 168.251953125,
      "v": 98
    },
    {
      "midi": 73,
      "hit": false,
      "t": 151191.2050781253,
      "d": 215.36249999998836,
      "v": 99
    },
    {
      "midi": 68,
      "hit": false,
      "t": 151603.9832031251,
      "d": 1653.3558593750058,
      "v": 96
    },
    {
      "midi": 80,
      "hit": false,
      "t": 151615.20000000027,
      "d": 861.4499999999534,
      "v": 103
    },
    {
      "midi": 68,
      "hit": false,
      "t": 151619.68671874993,
      "d": 1592.78515625,
      "v": 82
    },
    {
      "midi": 92,
      "hit": false,
      "t": 151621.93007812428,
      "d": 1716.169921875,
      "v": 98
    },
    {
      "midi": 61,
      "hit": false,
      "t": 151621.93007812492,
      "d": 1574.8382812500058,
      "v": 89
    },
    {
      "midi": 65,
      "hit": false,
      "t": 151621.93007812492,
      "d": 1606.2453125000175,
      "v": 89
    },
    {
      "midi": 80,
      "hit": false,
      "t": 151621.93007812495,
      "d": 780.6890624999942,
      "v": 80
    },
    {
      "midi": 61,
      "hit": false,
      "t": 151621.93007812506,
      "d": 2577.6199218750116,
      "v": 97
    },
    {
      "midi": 73,
      "hit": false,
      "t": 151621.9300781251,
      "d": 1655.5992187499942,
      "v": 95
    },
    {
      "midi": 53,
      "hit": false,
      "t": 151621.93007812527,
      "d": 713.3882812499942,
      "v": 79
    },
    {
      "midi": 61,
      "hit": false,
      "t": 151621.93007812527,
      "d": 726.8484374999825,
      "v": 82
    },
    {
      "midi": 46,
      "hit": false,
      "t": 151621.93007812527,
      "d": 807.6093749999709,
      "v": 85
    },
    {
      "midi": 58,
      "hit": false,
      "t": 151621.93007812527,
      "d": 821.0695312499593,
      "v": 76
    },
    {
      "midi": 65,
      "hit": false,
      "t": 151626.4167968751,
      "d": 1630.9222656250058,
      "v": 103
    },
    {
      "midi": 61,
      "hit": false,
      "t": 151626.4167968751,
      "d": 1644.3824218749942,
      "v": 103
    },
    {
      "midi": 61,
      "hit": false,
      "t": 152045.925,
      "d": 174.98203124999418,
      "v": 78
    },
    {
      "midi": 73,
      "hit": false,
      "t": 152048.16835937498,
      "d": 168.251953125,
      "v": 72
    },
    {
      "midi": 66,
      "hit": false,
      "t": 152052.65507812498,
      "d": 161.52187500000582,
      "v": 79
    },
    {
      "midi": 73,
      "hit": false,
      "t": 152263.530859375,
      "d": 148.06171875001746,
      "v": 35
    },
    {
      "midi": 66,
      "hit": false,
      "t": 152268.017578125,
      "d": 116.65468750000582,
      "v": 60
    },
    {
      "midi": 61,
      "hit": false,
      "t": 152268.017578125,
      "d": 166.00859375001164,
      "v": 60
    },
    {
      "midi": 85,
      "hit": false,
      "t": 152476.64999999927,
      "d": 861.4500000000116,
      "v": 93
    },
    {
      "midi": 78,
      "hit": false,
      "t": 152483.38007812493,
      "d": 352.2074218750058,
      "v": 84
    },
    {
      "midi": 73,
      "hit": false,
      "t": 152483.38007812502,
      "d": 35.89374999998836,
      "v": 60
    },
    {
      "midi": 73,
      "hit": false,
      "t": 152483.38007812522,
      "d": 524.9460937500116,
      "v": 96
    },
    {
      "midi": 46,
      "hit": false,
      "t": 152483.38007812522,
      "d": 794.1492187500407,
      "v": 84
    },
    {
      "midi": 58,
      "hit": false,
      "t": 152483.38007812522,
      "d": 807.6093750000291,
      "v": 76
    },
    {
      "midi": 61,
      "hit": false,
      "t": 152483.38007812522,
      "d": 807.6093750000291,
      "v": 76
    },
    {
      "midi": 61,
      "hit": false,
      "t": 152485.6234375,
      "d": 35.89374999998836,
      "v": 61
    },
    {
      "midi": 66,
      "hit": false,
      "t": 152485.6234375,
      "d": 35.89374999998836,
      "v": 61
    },
    {
      "midi": 53,
      "hit": false,
      "t": 152492.35351562523,
      "d": 740.3085937500291,
      "v": 76
    },
    {
      "midi": 77,
      "hit": false,
      "t": 152914.10507812494,
      "d": 231.06601562499418,
      "v": 82
    },
    {
      "midi": 75,
      "hit": false,
      "t": 153057.68007812524,
      "d": 134.6015625,
      "v": 95
    },
    {
      "midi": 78,
      "hit": false,
      "t": 153129.46757812492,
      "d": 596.7335937500175,
      "v": 84
    },
    {
      "midi": 77,
      "hit": false,
      "t": 153201.25507812525,
      "d": 148.06171875001746,
      "v": 101
    },
    {
      "midi": 70,
      "hit": false,
      "t": 153326.8832031251,
      "d": 1554.6480468749942,
      "v": 95
    },
    {
      "midi": 61,
      "hit": false,
      "t": 153326.8832031251,
      "d": 1563.6214843750058,
      "v": 96
    },
    {
      "midi": 66,
      "hit": false,
      "t": 153338.1000000001,
      "d": 1523.2410156249825,
      "v": 97
    },
    {
      "midi": 73,
      "hit": false,
      "t": 153340.34335937508,
      "d": 1509.7808593749942,
      "v": 96
    },
    {
      "midi": 90,
      "hit": false,
      "t": 153344.83007812427,
      "d": 865.9367187500175,
      "v": 82
    },
    {
      "midi": 70,
      "hit": false,
      "t": 153344.83007812494,
      "d": 1534.4578125000116,
      "v": 82
    },
    {
      "midi": 61,
      "hit": false,
      "t": 153344.83007812494,
      "d": 1572.5949218750175,
      "v": 80
    },
    {
      "midi": 66,
      "hit": false,
      "t": 153344.83007812494,
      "d": 1597.2718750000058,
      "v": 85
    },
    {
      "midi": 58,
      "hit": false,
      "t": 153344.83007812526,
      "d": 767.2289062500058,
      "v": 77
    },
    {
      "midi": 61,
      "hit": false,
      "t": 153344.83007812526,
      "d": 780.6890624999942,
      "v": 81
    },
    {
      "midi": 39,
      "hit": false,
      "t": 153344.83007812526,
      "d": 807.609375,
      "v": 85
    },
    {
      "midi": 78,
      "hit": false,
      "t": 153344.83007812526,
      "d": 847.9898437499942,
      "v": 101
    },
    {
      "midi": 54,
      "hit": false,
      "t": 153356.04687500026,
      "d": 767.2289062500058,
      "v": 79
    },
    {
      "midi": 61,
      "hit": false,
      "t": 153560.192578125,
      "d": 87.49101562501164,
      "v": 13
    },
    {
      "midi": 73,
      "hit": false,
      "t": 153560.192578125,
      "d": 94.22109375000582,
      "v": 13
    },
    {
      "midi": 66,
      "hit": false,
      "t": 153560.192578125,
      "d": 105.43789062500582,
      "v": 13
    },
    {
      "midi": 66,
      "hit": false,
      "t": 153775.555078125,
      "d": 87.49101562501164,
      "v": 39
    },
    {
      "midi": 73,
      "hit": false,
      "t": 153775.555078125,
      "d": 87.49101562501164,
      "v": 39
    },
    {
      "midi": 61,
      "hit": false,
      "t": 153775.555078125,
      "d": 105.43789062500582,
      "v": 39
    },
    {
      "midi": 75,
      "hit": false,
      "t": 153990.917578125,
      "d": 98.70781250001164,
      "v": 85
    },
    {
      "midi": 61,
      "hit": false,
      "t": 153990.91757812502,
      "d": 94.22109375000582,
      "v": 65
    },
    {
      "midi": 73,
      "hit": false,
      "t": 153990.91757812502,
      "d": 94.22109375000582,
      "v": 65
    },
    {
      "midi": 66,
      "hit": false,
      "t": 153990.91757812502,
      "d": 98.70781250001164,
      "v": 65
    },
    {
      "midi": 87,
      "hit": false,
      "t": 154206.28007812428,
      "d": 834.5296875000058,
      "v": 82
    },
    {
      "midi": 78,
      "hit": false,
      "t": 154206.280078125,
      "d": 96.46445312499418,
      "v": 82
    },
    {
      "midi": 73,
      "hit": false,
      "t": 154206.28007812504,
      "d": 74.03085937499418,
      "v": 78
    },
    {
      "midi": 66,
      "hit": false,
      "t": 154206.28007812504,
      "d": 80.76093749998836,
      "v": 72
    },
    {
      "midi": 61,
      "hit": false,
      "t": 154206.28007812504,
      "d": 94.22109374997672,
      "v": 79
    },
    {
      "midi": 63,
      "hit": false,
      "t": 154206.28007812507,
      "d": 711.1449218750058,
      "v": 99
    },
    {
      "midi": 75,
      "hit": false,
      "t": 154206.28007812524,
      "d": 726.8484375000116,
      "v": 95
    },
    {
      "midi": 39,
      "hit": false,
      "t": 154206.28007812524,
      "d": 794.1492187500116,
      "v": 84
    },
    {
      "midi": 61,
      "hit": false,
      "t": 154206.28007812524,
      "d": 821.0695312500175,
      "v": 79
    },
    {
      "midi": 58,
      "hit": false,
      "t": 154206.28007812524,
      "d": 834.5296875000058,
      "v": 76
    },
    {
      "midi": 54,
      "hit": false,
      "t": 154215.25351562526,
      "d": 780.6890624999942,
      "v": 76
    },
    {
      "midi": 80,
      "hit": false,
      "t": 154421.642578125,
      "d": 325.2871093749709,
      "v": 86
    },
    {
      "midi": 80,
      "hit": false,
      "t": 155060.99999999997,
      "d": 430.7249999999476,
      "v": 85
    },
    {
      "midi": 80,
      "hit": false,
      "t": 155061.00000000026,
      "d": 901.8304687500058,
      "v": 97
    },
    {
      "midi": 56,
      "hit": false,
      "t": 155061.00000000026,
      "d": 1695.9796875000175,
      "v": 79
    },
    {
      "midi": 60,
      "hit": false,
      "t": 155061.00000000026,
      "d": 1695.9796875000175,
      "v": 77
    },
    {
      "midi": 53,
      "hit": false,
      "t": 155061.00000000026,
      "d": 1709.4398437500058,
      "v": 76
    },
    {
      "midi": 65,
      "hit": false,
      "t": 155067.73007812494,
      "d": 1563.6214843750058,
      "v": 87
    },
    {
      "midi": 60,
      "hit": false,
      "t": 155067.73007812494,
      "d": 1579.3250000000116,
      "v": 83
    },
    {
      "midi": 68,
      "hit": false,
      "t": 155067.73007812494,
      "d": 1586.0550781250058,
      "v": 87
    },
    {
      "midi": 60,
      "hit": false,
      "t": 155067.73007812502,
      "d": 572.056640625,
      "v": 76
    },
    {
      "midi": 63,
      "hit": false,
      "t": 155067.73007812502,
      "d": 572.056640625,
      "v": 74
    },
    {
      "midi": 68,
      "hit": false,
      "t": 155067.73007812502,
      "d": 574.2999999999884,
      "v": 70
    },
    {
      "midi": 60,
      "hit": false,
      "t": 155067.73007812508,
      "d": 1709.4398437500058,
      "v": 100
    },
    {
      "midi": 65,
      "hit": false,
      "t": 155067.7300781251,
      "d": 1612.9753906250116,
      "v": 102
    },
    {
      "midi": 60,
      "hit": false,
      "t": 155067.7300781251,
      "d": 1639.8957031250175,
      "v": 102
    },
    {
      "midi": 68,
      "hit": false,
      "t": 155067.7300781251,
      "d": 1653.3558593750058,
      "v": 99
    },
    {
      "midi": 41,
      "hit": false,
      "t": 155067.73007812526,
      "d": 1709.4398437500058,
      "v": 88
    },
    {
      "midi": 72,
      "hit": false,
      "t": 155072.21679687512,
      "d": 1635.4089843750116,
      "v": 99
    },
    {
      "midi": 78,
      "hit": false,
      "t": 155498.4550781249,
      "d": 217.60585937500582,
      "v": 83
    },
    {
      "midi": 63,
      "hit": false,
      "t": 155713.81757812502,
      "d": 107.68124999999418,
      "v": 77
    },
    {
      "midi": 68,
      "hit": false,
      "t": 155713.81757812502,
      "d": 141.33164062499418,
      "v": 71
    },
    {
      "midi": 60,
      "hit": false,
      "t": 155713.81757812502,
      "d": 154.79179687498254,
      "v": 75
    },
    {
      "midi": 63,
      "hit": false,
      "t": 155920.206640625,
      "d": 13.460156249988358,
      "v": 74
    },
    {
      "midi": 78,
      "hit": false,
      "t": 155926.93671874993,
      "d": 215.36249999998836,
      "v": 84
    },
    {
      "midi": 60,
      "hit": false,
      "t": 155926.93671875,
      "d": 8.973437499982538,
      "v": 74
    },
    {
      "midi": 68,
      "hit": false,
      "t": 155929.18007812498,
      "d": 13.460156249988358,
      "v": 76
    },
    {
      "midi": 77,
      "hit": false,
      "t": 155929.18007812527,
      "d": 794.1492187500116,
      "v": 96
    },
    {
      "midi": 60,
      "hit": false,
      "t": 156144.54257812497,
      "d": 8.973437500011642,
      "v": 36
    },
    {
      "midi": 63,
      "hit": false,
      "t": 156144.54257812497,
      "d": 13.460156250017462,
      "v": 36
    },
    {
      "midi": 68,
      "hit": false,
      "t": 156144.54257812497,
      "d": 13.460156250017462,
      "v": 36
    },
    {
      "midi": 77,
      "hit": false,
      "t": 156350.93164062488,
      "d": 213.1191406249709,
      "v": 89
    },
    {
      "midi": 60,
      "hit": false,
      "t": 156359.90507812498,
      "d": 13.460156249988358,
      "v": 81
    },
    {
      "midi": 63,
      "hit": false,
      "t": 156359.90507812498,
      "d": 20.190234374982538,
      "v": 81
    },
    {
      "midi": 68,
      "hit": false,
      "t": 156359.90507812498,
      "d": 20.190234374982538,
      "v": 81
    },
    {
      "midi": 73,
      "hit": false,
      "t": 156575.26757812485,
      "d": 913.0472656250058,
      "v": 88
    },
    {
      "midi": 77,
      "hit": false,
      "t": 156777.1699218743,
      "d": 457.64531249998254,
      "v": 78
    },
    {
      "midi": 68,
      "hit": false,
      "t": 156777.16992187494,
      "d": 1617.4621093749884,
      "v": 80
    },
    {
      "midi": 53,
      "hit": false,
      "t": 156777.16992187526,
      "d": 1662.3292968749302,
      "v": 80
    },
    {
      "midi": 65,
      "hit": false,
      "t": 156788.3867187501,
      "d": 661.791015625,
      "v": 98
    },
    {
      "midi": 80,
      "hit": false,
      "t": 156790.6300781243,
      "d": 453.1585937500058,
      "v": 99
    },
    {
      "midi": 61,
      "hit": false,
      "t": 156790.63007812493,
      "d": 1601.7585937500116,
      "v": 80
    },
    {
      "midi": 65,
      "hit": false,
      "t": 156790.63007812493,
      "d": 1662.3292968749884,
      "v": 82
    },
    {
      "midi": 65,
      "hit": false,
      "t": 156790.63007812496,
      "d": 100.951171875,
      "v": 74
    },
    {
      "midi": 61,
      "hit": false,
      "t": 156790.63007812496,
      "d": 107.68124999999418,
      "v": 74
    },
    {
      "midi": 58,
      "hit": false,
      "t": 156790.63007812496,
      "d": 127.87148437500582,
      "v": 79
    },
    {
      "midi": 61,
      "hit": false,
      "t": 156790.63007812508,
      "d": 1615.21875,
      "v": 97
    },
    {
      "midi": 70,
      "hit": false,
      "t": 156790.6300781251,
      "d": 1505.2941406249884,
      "v": 102
    },
    {
      "midi": 85,
      "hit": false,
      "t": 156790.63007812525,
      "d": 430.7249999999767,
      "v": 100
    },
    {
      "midi": 61,
      "hit": false,
      "t": 156790.63007812525,
      "d": 1655.599218749936,
      "v": 83
    },
    {
      "midi": 56,
      "hit": false,
      "t": 156790.63007812525,
      "d": 1660.0859374999418,
      "v": 78
    },
    {
      "midi": 46,
      "hit": false,
      "t": 156790.63007812525,
      "d": 1682.5195312499418,
      "v": 85
    },
    {
      "midi": 73,
      "hit": false,
      "t": 156792.8734375001,
      "d": 1520.9976562499942,
      "v": 99
    },
    {
      "midi": 65,
      "hit": false,
      "t": 156795.11679687508,
      "d": 1503.05078125,
      "v": 103
    },
    {
      "midi": 61,
      "hit": false,
      "t": 156795.11679687508,
      "d": 1509.7808593749942,
      "v": 96
    },
    {
      "midi": 58,
      "hit": false,
      "t": 157005.99257812498,
      "d": 74.03085937499418,
      "v": 75
    },
    {
      "midi": 61,
      "hit": false,
      "t": 157005.99257812498,
      "d": 74.03085937499418,
      "v": 74
    },
    {
      "midi": 65,
      "hit": false,
      "t": 157005.99257812498,
      "d": 74.03085937499418,
      "v": 77
    },
    {
      "midi": 75,
      "hit": false,
      "t": 157203.4082031243,
      "d": 462.13203124998836,
      "v": 81
    },
    {
      "midi": 84,
      "hit": false,
      "t": 157207.89492187524,
      "d": 453.1585937499767,
      "v": 97
    },
    {
      "midi": 79,
      "hit": false,
      "t": 157221.3550781243,
      "d": 444.1851562499942,
      "v": 90
    },
    {
      "midi": 65,
      "hit": false,
      "t": 157221.35507812497,
      "d": 60.57070312500582,
      "v": 34
    },
    {
      "midi": 58,
      "hit": false,
      "t": 157221.35507812497,
      "d": 80.76093750001746,
      "v": 34
    },
    {
      "midi": 61,
      "hit": false,
      "t": 157221.35507812497,
      "d": 80.76093750001746,
      "v": 34
    },
    {
      "midi": 58,
      "hit": false,
      "t": 157436.71757812498,
      "d": 275.9332031249942,
      "v": 78
    },
    {
      "midi": 61,
      "hit": false,
      "t": 157436.71757812498,
      "d": 275.9332031249942,
      "v": 79
    },
    {
      "midi": 65,
      "hit": false,
      "t": 157436.71757812498,
      "d": 275.9332031249942,
      "v": 79
    },
    {
      "midi": 68,
      "hit": false,
      "t": 157436.7175781251,
      "d": 639.357421875,
      "v": 96
    },
    {
      "midi": 73,
      "hit": false,
      "t": 157636.3765624993,
      "d": 446.42851562498254,
      "v": 77
    },
    {
      "midi": 82,
      "hit": false,
      "t": 157638.61992187522,
      "d": 457.64531249998254,
      "v": 101
    },
    {
      "midi": 77,
      "hit": false,
      "t": 157652.0800781243,
      "d": 444.1851562499651,
      "v": 92
    },
    {
      "midi": 58,
      "hit": false,
      "t": 157867.442578125,
      "d": 20.19023437501164,
      "v": 40
    },
    {
      "midi": 61,
      "hit": false,
      "t": 157867.442578125,
      "d": 20.19023437501164,
      "v": 40
    },
    {
      "midi": 65,
      "hit": false,
      "t": 157867.442578125,
      "d": 20.19023437501164,
      "v": 40
    },
    {
      "midi": 70,
      "hit": false,
      "t": 158069.3449218743,
      "d": 417.26484374998836,
      "v": 84
    },
    {
      "midi": 73,
      "hit": false,
      "t": 158082.80507812428,
      "d": 403.8046875,
      "v": 93
    },
    {
      "midi": 73,
      "hit": false,
      "t": 158082.80507812483,
      "d": 123.384765625,
      "v": 87
    },
    {
      "midi": 65,
      "hit": false,
      "t": 158082.805078125,
      "d": 228.82265625000582,
      "v": 57
    },
    {
      "midi": 58,
      "hit": false,
      "t": 158082.805078125,
      "d": 235.552734375,
      "v": 57
    },
    {
      "midi": 61,
      "hit": false,
      "t": 158082.805078125,
      "d": 240.03945312500582,
      "v": 57
    },
    {
      "midi": 73,
      "hit": false,
      "t": 158082.8050781251,
      "d": 1974.15625,
      "v": 96
    },
    {
      "midi": 77,
      "hit": false,
      "t": 158082.8050781252,
      "d": 284.9066406249767,
      "v": 99
    },
    {
      "midi": 75,
      "hit": false,
      "t": 158286.95078124982,
      "d": 112.16796875,
      "v": 82
    },
    {
      "midi": 73,
      "hit": false,
      "t": 158495.58320312508,
      "d": 809.8527343749884,
      "v": 95
    },
    {
      "midi": 39,
      "hit": false,
      "t": 158506.8000000002,
      "d": 767.2289062500058,
      "v": 90
    },
    {
      "midi": 80,
      "hit": false,
      "t": 158506.8000000002,
      "d": 4832.196093749633,
      "v": 96
    },
    {
      "midi": 56,
      "hit": false,
      "t": 158511.2867187502,
      "d": 1624.1921875000116,
      "v": 78
    },
    {
      "midi": 68,
      "hit": false,
      "t": 158513.53007812428,
      "d": 3432.33984375,
      "v": 76
    },
    {
      "midi": 76,
      "hit": false,
      "t": 158513.5300781248,
      "d": 388.10117187493597,
      "v": 88
    },
    {
      "midi": 61,
      "hit": false,
      "t": 158513.53007812492,
      "d": 444.1851562499942,
      "v": 80
    },
    {
      "midi": 68,
      "hit": false,
      "t": 158513.53007812492,
      "d": 444.1851562499942,
      "v": 84
    },
    {
      "midi": 63,
      "hit": false,
      "t": 158513.53007812492,
      "d": 462.13203124998836,
      "v": 86
    },
    {
      "midi": 61,
      "hit": false,
      "t": 158513.53007812507,
      "d": 731.3351562499884,
      "v": 100
    },
    {
      "midi": 68,
      "hit": false,
      "t": 158513.5300781252,
      "d": 847.9898437500233,
      "v": 79
    },
    {
      "midi": 61,
      "hit": false,
      "t": 158513.5300781252,
      "d": 1612.9753906250116,
      "v": 77
    },
    {
      "midi": 68,
      "hit": false,
      "t": 158518.01679687508,
      "d": 729.091796875,
      "v": 98
    },
    {
      "midi": 80,
      "hit": false,
      "t": 158526.99023437427,
      "d": 1276.4714843750116,
      "v": 98
    },
    {
      "midi": 75,
      "hit": false,
      "t": 158946.49843749974,
      "d": 271.44648437498836,
      "v": 88
    },
    {
      "midi": 66,
      "hit": false,
      "t": 159368.25000000006,
      "d": 773.9589843749709,
      "v": 103
    },
    {
      "midi": 73,
      "hit": false,
      "t": 159374.98007812473,
      "d": 358.9375,
      "v": 87
    },
    {
      "midi": 61,
      "hit": false,
      "t": 159374.9800781249,
      "d": 444.1851562499942,
      "v": 88
    },
    {
      "midi": 68,
      "hit": false,
      "t": 159374.9800781249,
      "d": 444.1851562499942,
      "v": 86
    },
    {
      "midi": 63,
      "hit": false,
      "t": 159374.9800781249,
      "d": 462.13203124998836,
      "v": 84
    },
    {
      "midi": 73,
      "hit": false,
      "t": 159374.98007812505,
      "d": 753.7687499999884,
      "v": 97
    },
    {
      "midi": 61,
      "hit": false,
      "t": 159374.98007812505,
      "d": 722.3617187500058,
      "v": 99
    },
    {
      "midi": 39,
      "hit": false,
      "t": 159374.9800781252,
      "d": 807.609375,
      "v": 90
    },
    {
      "midi": 66,
      "hit": false,
      "t": 159374.9800781252,
      "d": 870.4234374999942,
      "v": 76
    },
    {
      "midi": 68,
      "hit": false,
      "t": 159377.22343750004,
      "d": 758.2554687499942,
      "v": 104
    },
    {
      "midi": 73,
      "hit": false,
      "t": 159805.70507812474,
      "d": 226.57929687495925,
      "v": 81
    },
    {
      "midi": 78,
      "hit": false,
      "t": 159821.40859374928,
      "d": 222.09257812501164,
      "v": 95
    },
    {
      "midi": 70,
      "hit": false,
      "t": 160021.0675781247,
      "d": 136.84492187498836,
      "v": 80
    },
    {
      "midi": 80,
      "hit": false,
      "t": 160034.52773437428,
      "d": 201.90234375,
      "v": 94
    },
    {
      "midi": 70,
      "hit": false,
      "t": 160229.70000000004,
      "d": 814.3394531249942,
      "v": 98
    },
    {
      "midi": 65,
      "hit": false,
      "t": 160231.94335937503,
      "d": 798.6359375000175,
      "v": 96
    },
    {
      "midi": 65,
      "hit": false,
      "t": 160234.1867187502,
      "d": 881.6402343749651,
      "v": 76
    },
    {
      "midi": 73,
      "hit": false,
      "t": 160236.4300781247,
      "d": 296.1234375000058,
      "v": 80
    },
    {
      "midi": 61,
      "hit": false,
      "t": 160236.4300781249,
      "d": 457.64531250001164,
      "v": 89
    },
    {
      "midi": 68,
      "hit": false,
      "t": 160236.4300781249,
      "d": 493.5390625,
      "v": 85
    },
    {
      "midi": 65,
      "hit": false,
      "t": 160236.4300781249,
      "d": 527.189453125,
      "v": 88
    },
    {
      "midi": 61,
      "hit": false,
      "t": 160236.43007812506,
      "d": 747.0386718749942,
      "v": 95
    },
    {
      "midi": 41,
      "hit": false,
      "t": 160236.43007812518,
      "d": 807.609375,
      "v": 87
    },
    {
      "midi": 61,
      "hit": false,
      "t": 160236.43007812518,
      "d": 847.9898437499942,
      "v": 82
    },
    {
      "midi": 56,
      "hit": false,
      "t": 160236.43007812518,
      "d": 1606.2453124999884,
      "v": 83
    },
    {
      "midi": 73,
      "hit": false,
      "t": 160240.91679687504,
      "d": 749.2820312500116,
      "v": 97
    },
    {
      "midi": 77,
      "hit": false,
      "t": 160247.64687499928,
      "d": 861.4500000000116,
      "v": 98
    },
    {
      "midi": 41,
      "hit": false,
      "t": 161095.63671875017,
      "d": 794.1492187499825,
      "v": 91
    },
    {
      "midi": 73,
      "hit": false,
      "t": 161097.8800781243,
      "d": 729.091796875,
      "v": 94
    },
    {
      "midi": 61,
      "hit": false,
      "t": 161097.8800781249,
      "d": 457.64531250001164,
      "v": 89
    },
    {
      "midi": 68,
      "hit": false,
      "t": 161097.8800781249,
      "d": 493.5390625,
      "v": 80
    },
    {
      "midi": 65,
      "hit": false,
      "t": 161097.8800781249,
      "d": 527.189453125,
      "v": 89
    },
    {
      "midi": 61,
      "hit": false,
      "t": 161097.88007812505,
      "d": 690.9546874999942,
      "v": 99
    },
    {
      "midi": 61,
      "hit": false,
      "t": 161097.88007812516,
      "d": 785.17578125,
      "v": 83
    },
    {
      "midi": 70,
      "hit": false,
      "t": 161102.36679687502,
      "d": 715.6316406250116,
      "v": 101
    },
    {
      "midi": 73,
      "hit": false,
      "t": 161111.34023437503,
      "d": 708.9015624999884,
      "v": 95
    },
    {
      "midi": 61,
      "hit": false,
      "t": 161111.34023437503,
      "d": 711.1449218749767,
      "v": 104
    },
    {
      "midi": 73,
      "hit": false,
      "t": 161757.42773437468,
      "d": 121.14140625001164,
      "v": 87
    },
    {
      "midi": 66,
      "hit": false,
      "t": 161948.11328125,
      "d": 3335.875390625035,
      "v": 96
    },
    {
      "midi": 80,
      "hit": false,
      "t": 161952.59999999928,
      "d": 847.9898437499942,
      "v": 97
    },
    {
      "midi": 54,
      "hit": false,
      "t": 161952.60000000015,
      "d": 2808.6859374996857,
      "v": 83
    },
    {
      "midi": 42,
      "hit": false,
      "t": 161952.60000000015,
      "d": 2967.964453124674,
      "v": 85
    },
    {
      "midi": 80,
      "hit": false,
      "t": 161959.33007812468,
      "d": 222.09257812498254,
      "v": 85
    },
    {
      "midi": 61,
      "hit": false,
      "t": 161959.3300781249,
      "d": 2927.583984374971,
      "v": 81
    },
    {
      "midi": 57,
      "hit": false,
      "t": 161959.3300781249,
      "d": 2938.800781249971,
      "v": 89
    },
    {
      "midi": 54,
      "hit": false,
      "t": 161959.3300781249,
      "d": 2950.017578124971,
      "v": 86
    },
    {
      "midi": 61,
      "hit": false,
      "t": 161959.330078125,
      "d": 3315.6851562500233,
      "v": 102
    },
    {
      "midi": 66,
      "hit": false,
      "t": 161959.330078125,
      "d": 3163.13671875,
      "v": 75
    },
    {
      "midi": 61,
      "hit": false,
      "t": 161959.330078125,
      "d": 3169.866796874994,
      "v": 72
    },
    {
      "midi": 54,
      "hit": false,
      "t": 161959.330078125,
      "d": 3172.1101562499825,
      "v": 73
    },
    {
      "midi": 57,
      "hit": false,
      "t": 161959.330078125,
      "d": 3176.5968749999884,
      "v": 78
    },
    {
      "midi": 54,
      "hit": false,
      "t": 161968.303515625,
      "d": 3295.4949218750116,
      "v": 99
    },
    {
      "midi": 61,
      "hit": false,
      "t": 161975.03359375003,
      "d": 2539.4828125001513,
      "v": 103
    },
    {
      "midi": 78,
      "hit": false,
      "t": 162174.69257812467,
      "d": 188.44218749998254,
      "v": 83
    },
    {
      "midi": 80,
      "hit": false,
      "t": 162390.05507812466,
      "d": 206.38906249997672,
      "v": 87
    },
    {
      "midi": 78,
      "hit": false,
      "t": 162807.31992187427,
      "d": 1657.8425781250116,
      "v": 90
    },
    {
      "midi": 78,
      "hit": false,
      "t": 162820.78007812463,
      "d": 1399.8562499999243,
      "v": 85
    },
    {
      "midi": 66,
      "hit": false,
      "t": 163251.5050781249,
      "d": 197.41562499999418,
      "v": 80
    },
    {
      "midi": 75,
      "hit": false,
      "t": 163251.5050781249,
      "d": 208.63242187499418,
      "v": 83
    },
    {
      "midi": 75,
      "hit": false,
      "t": 163684.4734374999,
      "d": 1424.533203125,
      "v": 80
    },
    {
      "midi": 66,
      "hit": false,
      "t": 163684.4734374999,
      "d": 1431.2632812499942,
      "v": 82
    },
    {
      "midi": 75,
      "hit": false,
      "t": 164536.94999999928,
      "d": 473.34882812501746,
      "v": 93
    },
    {
      "midi": 75,
      "hit": false,
      "t": 164536.94999999984,
      "d": 493.5390625,
      "v": 86
    },
    {
      "midi": 75,
      "hit": false,
      "t": 164543.68007812457,
      "d": 423.99492187501164,
      "v": 82
    },
    {
      "midi": 73,
      "hit": false,
      "t": 164960.9449218743,
      "d": 323.04375000001164,
      "v": 94
    },
    {
      "midi": 73,
      "hit": false,
      "t": 164974.40507812458,
      "d": 352.2074218750058,
      "v": 88
    },
    {
      "midi": 73,
      "hit": false,
      "t": 164992.35195312483,
      "d": 338.74726562501746,
      "v": 90
    },
    {
      "midi": 68,
      "hit": false,
      "t": 165398.40000000002,
      "d": 1254.0378906250116,
      "v": 102
    },
    {
      "midi": 80,
      "hit": false,
      "t": 165405.13007812432,
      "d": 1287.6882812499825,
      "v": 94
    },
    {
      "midi": 92,
      "hit": false,
      "t": 165405.13007812432,
      "d": 1298.9050781249825,
      "v": 85
    },
    {
      "midi": 78,
      "hit": false,
      "t": 165405.13007812458,
      "d": 2739.1417968748137,
      "v": 80
    },
    {
      "midi": 45,
      "hit": false,
      "t": 165405.13007812484,
      "d": 1171.0335937500058,
      "v": 86
    },
    {
      "midi": 61,
      "hit": false,
      "t": 165405.13007812484,
      "d": 1245.064453125,
      "v": 75
    },
    {
      "midi": 56,
      "hit": false,
      "t": 165405.13007812484,
      "d": 1247.3078124999884,
      "v": 80
    },
    {
      "midi": 73,
      "hit": false,
      "t": 165405.13007812484,
      "d": 1247.3078124999884,
      "v": 84
    },
    {
      "midi": 68,
      "hit": false,
      "t": 165405.13007812484,
      "d": 1256.28125,
      "v": 83
    },
    {
      "midi": 64,
      "hit": false,
      "t": 165405.1300781249,
      "d": 1123.9230468749884,
      "v": 81
    },
    {
      "midi": 57,
      "hit": false,
      "t": 165405.1300781249,
      "d": 1139.6265624999942,
      "v": 85
    },
    {
      "midi": 61,
      "hit": false,
      "t": 165405.1300781249,
      "d": 1141.8699218749825,
      "v": 80
    },
    {
      "midi": 68,
      "hit": false,
      "t": 165405.1300781249,
      "d": 1144.113281249971,
      "v": 83
    },
    {
      "midi": 64,
      "hit": false,
      "t": 165405.1300781251,
      "d": 1206.9273437499942,
      "v": 103
    },
    {
      "midi": 61,
      "hit": false,
      "t": 165405.1300781251,
      "d": 1218.1441406249942,
      "v": 98
    },
    {
      "midi": 68,
      "hit": false,
      "t": 165405.1300781251,
      "d": 1242.8210937499825,
      "v": 100
    },
    {
      "midi": 64,
      "hit": false,
      "t": 165405.13007812516,
      "d": 1195.7105468749942,
      "v": 102
    },
    {
      "midi": 64,
      "hit": false,
      "t": 165409.61679687502,
      "d": 1128.4097656250233,
      "v": 103
    },
    {
      "midi": 73,
      "hit": false,
      "t": 165418.59023437503,
      "d": 1182.2503906250058,
      "v": 98
    },
    {
      "midi": 63,
      "hit": false,
      "t": 166679.35820312504,
      "d": 1879.9351562499942,
      "v": 96
    },
    {
      "midi": 78,
      "hit": false,
      "t": 166683.84492187432,
      "d": 2153.625,
      "v": 90
    },
    {
      "midi": 59,
      "hit": false,
      "t": 166683.84492187484,
      "d": 2030.240234374971,
      "v": 79
    },
    {
      "midi": 66,
      "hit": false,
      "t": 166683.84492187484,
      "d": 2036.970312499965,
      "v": 81
    },
    {
      "midi": 71,
      "hit": false,
      "t": 166686.08828124983,
      "d": 1296.661718749965,
      "v": 76
    },
    {
      "midi": 66,
      "hit": false,
      "t": 166688.33164062505,
      "d": 1821.6078124999767,
      "v": 99
    },
    {
      "midi": 90,
      "hit": false,
      "t": 166690.5749999993,
      "d": 2086.32421875,
      "v": 85
    },
    {
      "midi": 54,
      "hit": false,
      "t": 166697.30507812483,
      "d": 1996.589843749971,
      "v": 75
    },
    {
      "midi": 45,
      "hit": false,
      "t": 166697.30507812483,
      "d": 2019.023437499971,
      "v": 92
    },
    {
      "midi": 54,
      "hit": false,
      "t": 166697.30507812486,
      "d": 1778.9839843749942,
      "v": 89
    },
    {
      "midi": 63,
      "hit": false,
      "t": 166697.30507812486,
      "d": 1792.4441406249825,
      "v": 86
    },
    {
      "midi": 59,
      "hit": false,
      "t": 166697.30507812486,
      "d": 1801.4175781249942,
      "v": 81
    },
    {
      "midi": 66,
      "hit": false,
      "t": 166697.30507812486,
      "d": 1801.4175781249942,
      "v": 85
    },
    {
      "midi": 66,
      "hit": false,
      "t": 166697.3050781251,
      "d": 1592.78515625,
      "v": 96
    },
    {
      "midi": 63,
      "hit": false,
      "t": 166697.3050781251,
      "d": 1595.0285156249884,
      "v": 103
    },
    {
      "midi": 59,
      "hit": false,
      "t": 166697.3050781251,
      "d": 1599.5152343749942,
      "v": 102
    },
    {
      "midi": 66,
      "hit": false,
      "t": 166697.30507812515,
      "d": 2005.5632812500116,
      "v": 96
    },
    {
      "midi": 71,
      "hit": false,
      "t": 166701.79179687504,
      "d": 1886.6652343749884,
      "v": 96
    },
    {
      "midi": 75,
      "hit": false,
      "t": 167332.17578124983,
      "d": 148.06171874998836,
      "v": 89
    },
    {
      "midi": 73,
      "hit": false,
      "t": 167552.02499999982,
      "d": 130.11484374999418,
      "v": 87
    },
    {
      "midi": 75,
      "hit": false,
      "t": 167762.9007812498,
      "d": 168.251953125,
      "v": 93
    },
    {
      "midi": 71,
      "hit": false,
      "t": 167989.4800781248,
      "d": 163.76523437499418,
      "v": 88
    },
    {
      "midi": 69,
      "hit": false,
      "t": 168420.2050781248,
      "d": 150.30507812500582,
      "v": 92
    },
    {
      "midi": 73,
      "hit": false,
      "t": 168844.20000000004,
      "d": 1218.1441406249942,
      "v": 101
    },
    {
      "midi": 64,
      "hit": false,
      "t": 168846.44335937503,
      "d": 1144.11328125,
      "v": 100
    },
    {
      "midi": 80,
      "hit": false,
      "t": 168850.9300781243,
      "d": 1260.7679687499767,
      "v": 99
    },
    {
      "midi": 80,
      "hit": false,
      "t": 168850.9300781244,
      "d": 796.392578125,
      "v": 87
    },
    {
      "midi": 45,
      "hit": false,
      "t": 168850.9300781248,
      "d": 1171.0335937500058,
      "v": 88
    },
    {
      "midi": 61,
      "hit": false,
      "t": 168850.9300781248,
      "d": 1245.064453125,
      "v": 83
    },
    {
      "midi": 56,
      "hit": false,
      "t": 168850.9300781248,
      "d": 1247.3078124999884,
      "v": 79
    },
    {
      "midi": 73,
      "hit": false,
      "t": 168850.9300781248,
      "d": 1247.3078124999884,
      "v": 81
    },
    {
      "midi": 68,
      "hit": false,
      "t": 168850.9300781248,
      "d": 1256.28125,
      "v": 80
    },
    {
      "midi": 64,
      "hit": false,
      "t": 168850.93007812486,
      "d": 1123.9230468749884,
      "v": 81
    },
    {
      "midi": 57,
      "hit": false,
      "t": 168850.93007812486,
      "d": 1139.6265624999942,
      "v": 86
    },
    {
      "midi": 61,
      "hit": false,
      "t": 168850.93007812486,
      "d": 1141.8699218749825,
      "v": 87
    },
    {
      "midi": 68,
      "hit": false,
      "t": 168850.93007812486,
      "d": 1144.113281249971,
      "v": 88
    },
    {
      "midi": 68,
      "hit": false,
      "t": 168850.93007812503,
      "d": 1245.064453125,
      "v": 97
    },
    {
      "midi": 64,
      "hit": false,
      "t": 168850.9300781251,
      "d": 1206.9273437499942,
      "v": 95
    },
    {
      "midi": 61,
      "hit": false,
      "t": 168850.9300781251,
      "d": 1218.1441406249942,
      "v": 100
    },
    {
      "midi": 68,
      "hit": false,
      "t": 168850.9300781251,
      "d": 1242.8210937499825,
      "v": 100
    },
    {
      "midi": 64,
      "hit": false,
      "t": 168850.93007812515,
      "d": 1254.0378906250116,
      "v": 95
    },
    {
      "midi": 92,
      "hit": false,
      "t": 168853.1734374993,
      "d": 1292.1749999999884,
      "v": 79
    },
    {
      "midi": 78,
      "hit": false,
      "t": 169712.3800781244,
      "d": 2043.7003906250466,
      "v": 88
    },
    {
      "midi": 78,
      "hit": false,
      "t": 170129.64492187428,
      "d": 2108.7578125,
      "v": 99
    },
    {
      "midi": 59,
      "hit": false,
      "t": 170129.6449218748,
      "d": 2030.2402343749418,
      "v": 77
    },
    {
      "midi": 66,
      "hit": false,
      "t": 170129.6449218748,
      "d": 2036.970312499936,
      "v": 83
    },
    {
      "midi": 71,
      "hit": false,
      "t": 170131.8882812498,
      "d": 1296.661718749965,
      "v": 79
    },
    {
      "midi": 63,
      "hit": false,
      "t": 170134.13164062504,
      "d": 1859.7449218749825,
      "v": 102
    },
    {
      "midi": 90,
      "hit": false,
      "t": 170138.6183593743,
      "d": 2061.6472656249825,
      "v": 84
    },
    {
      "midi": 66,
      "hit": false,
      "t": 170140.86171875003,
      "d": 1814.8777343749825,
      "v": 97
    },
    {
      "midi": 54,
      "hit": false,
      "t": 170143.1050781248,
      "d": 1996.5898437499418,
      "v": 83
    },
    {
      "midi": 45,
      "hit": false,
      "t": 170143.1050781248,
      "d": 2019.0234374999418,
      "v": 86
    },
    {
      "midi": 54,
      "hit": false,
      "t": 170143.10507812482,
      "d": 1778.9839843749942,
      "v": 80
    },
    {
      "midi": 63,
      "hit": false,
      "t": 170143.10507812482,
      "d": 1792.4441406249825,
      "v": 80
    },
    {
      "midi": 59,
      "hit": false,
      "t": 170143.10507812482,
      "d": 1801.4175781249942,
      "v": 82
    },
    {
      "midi": 66,
      "hit": false,
      "t": 170143.10507812482,
      "d": 1801.4175781249942,
      "v": 88
    },
    {
      "midi": 71,
      "hit": false,
      "t": 170143.10507812502,
      "d": 1895.638671875,
      "v": 102
    },
    {
      "midi": 66,
      "hit": false,
      "t": 170143.10507812508,
      "d": 1592.78515625,
      "v": 97
    },
    {
      "midi": 63,
      "hit": false,
      "t": 170143.10507812508,
      "d": 1595.0285156249884,
      "v": 102
    },
    {
      "midi": 59,
      "hit": false,
      "t": 170143.10507812508,
      "d": 1599.5152343749942,
      "v": 96
    },
    {
      "midi": 66,
      "hit": false,
      "t": 170143.10507812517,
      "d": 1875.4484374999884,
      "v": 100
    },
    {
      "midi": 75,
      "hit": false,
      "t": 170777.97578124978,
      "d": 148.06171874998836,
      "v": 92
    },
    {
      "midi": 66,
      "hit": false,
      "t": 170802.65273437428,
      "d": 134.6015625,
      "v": 109
    },
    {
      "midi": 73,
      "hit": false,
      "t": 170997.82499999978,
      "d": 130.11484374999418,
      "v": 91
    },
    {
      "midi": 64,
      "hit": false,
      "t": 171004.55507812428,
      "d": 150.30507812500582,
      "v": 105
    },
    {
      "midi": 75,
      "hit": false,
      "t": 171208.70078124976,
      "d": 168.251953125,
      "v": 90
    },
    {
      "midi": 66,
      "hit": false,
      "t": 171219.9175781243,
      "d": 134.6015625,
      "v": 102
    },
    {
      "midi": 63,
      "hit": false,
      "t": 171424.06328124928,
      "d": 103.19453124998836,
      "v": 105
    },
    {
      "midi": 71,
      "hit": false,
      "t": 171435.28007812475,
      "d": 163.76523437499418,
      "v": 85
    },
    {
      "midi": 63,
      "hit": false,
      "t": 171650.64257812427,
      "d": 130.11484374999418,
      "v": 100
    },
    {
      "midi": 73,
      "hit": false,
      "t": 171650.64257812474,
      "d": 163.76523437499418,
      "v": 88
    },
    {
      "midi": 59,
      "hit": false,
      "t": 171866.00507812426,
      "d": 190.685546875,
      "v": 91
    },
    {
      "midi": 75,
      "hit": false,
      "t": 171866.00507812473,
      "d": 150.30507812500582,
      "v": 87
    },
    {
      "midi": 78,
      "hit": false,
      "t": 172067.90742187473,
      "d": 150.30507812500582,
      "v": 88
    },
    {
      "midi": 80,
      "hit": false,
      "t": 172289.99999999927,
      "d": 3394.202734374994,
      "v": 99
    },
    {
      "midi": 73,
      "hit": false,
      "t": 172289.99999999927,
      "d": 3412.1496093749884,
      "v": 94
    },
    {
      "midi": 92,
      "hit": false,
      "t": 172289.99999999927,
      "d": 3432.33984375,
      "v": 76
    },
    {
      "midi": 71,
      "hit": false,
      "t": 172290.00000000003,
      "d": 3221.4640625000175,
      "v": 97
    },
    {
      "midi": 64,
      "hit": false,
      "t": 172292.24335937502,
      "d": 3205.7605468750116,
      "v": 102
    },
    {
      "midi": 68,
      "hit": false,
      "t": 172294.48671874974,
      "d": 3275.304687499971,
      "v": 77
    },
    {
      "midi": 80,
      "hit": false,
      "t": 172296.73007812447,
      "d": 3317.9285156249534,
      "v": 86
    },
    {
      "midi": 68,
      "hit": false,
      "t": 172296.73007812482,
      "d": 3190.057031250006,
      "v": 88
    },
    {
      "midi": 57,
      "hit": false,
      "t": 172296.73007812482,
      "d": 3243.8976562500175,
      "v": 83
    },
    {
      "midi": 64,
      "hit": false,
      "t": 172296.73007812482,
      "d": 3270.8179687500233,
      "v": 86
    },
    {
      "midi": 61,
      "hit": false,
      "t": 172296.73007812482,
      "d": 3284.2781250000116,
      "v": 80
    },
    {
      "midi": 57,
      "hit": false,
      "t": 172296.73007812508,
      "d": 3297.73828125,
      "v": 101
    },
    {
      "midi": 61,
      "hit": false,
      "t": 172296.73007812508,
      "d": 3304.468359374994,
      "v": 100
    },
    {
      "midi": 68,
      "hit": false,
      "t": 172296.73007812508,
      "d": 3306.7117187499825,
      "v": 99
    },
    {
      "midi": 61,
      "hit": false,
      "t": 172296.73007812517,
      "d": 6454.144921875268,
      "v": 96
    },
    {
      "midi": 64,
      "hit": false,
      "t": 172298.97343750007,
      "d": 3291.008203125006,
      "v": 102
    },
    {
      "midi": 45,
      "hit": false,
      "t": 172301.21679687474,
      "d": 1635.4089843749825,
      "v": 91
    },
    {
      "midi": 68,
      "hit": false,
      "t": 172301.21679687503,
      "d": 3201.273828125006,
      "v": 103
    },
    {
      "midi": 61,
      "hit": false,
      "t": 172305.70351562428,
      "d": 3459.260156250006,
      "v": 95
    },
    {
      "midi": 61,
      "hit": false,
      "t": 172310.19023437504,
      "d": 3187.8136718749884,
      "v": 98
    },
    {
      "midi": 61,
      "hit": false,
      "t": 172334.86718749974,
      "d": 3252.871093749971,
      "v": 75
    },
    {
      "midi": 64,
      "hit": false,
      "t": 172337.11054687473,
      "d": 3234.9242187499767,
      "v": 81
    },
    {
      "midi": 52,
      "hit": false,
      "t": 172727.45507812503,
      "d": 127.87148437500582,
      "v": 102
    },
    {
      "midi": 64,
      "hit": false,
      "t": 172731.94179687498,
      "d": 154.79179687501164,
      "v": 48
    },
    {
      "midi": 56,
      "hit": false,
      "t": 172942.81757812505,
      "d": 188.44218750001164,
      "v": 95
    },
    {
      "midi": 59,
      "hit": false,
      "t": 173158.18007812506,
      "d": 186.19882812499418,
      "v": 104
    },
    {
      "midi": 61,
      "hit": false,
      "t": 173160.4234375,
      "d": 179.46875,
      "v": 47
    },
    {
      "midi": 52,
      "hit": false,
      "t": 173588.90507812498,
      "d": 222.09257812498254,
      "v": 52
    },
    {
      "midi": 52,
      "hit": false,
      "t": 173588.90507812507,
      "d": 154.79179687501164,
      "v": 96
    },
    {
      "midi": 59,
      "hit": false,
      "t": 173804.2675781251,
      "d": 168.251953125,
      "v": 95
    },
    {
      "midi": 57,
      "hit": false,
      "t": 173808.75429687498,
      "d": 174.98203124999418,
      "v": 47
    },
    {
      "midi": 80,
      "hit": false,
      "t": 174019.63007812473,
      "d": 1630.9222656249767,
      "v": 92
    },
    {
      "midi": 45,
      "hit": false,
      "t": 174033.09023437471,
      "d": 1512.0242187500116,
      "v": 89
    },
    {
      "midi": 52,
      "hit": false,
      "t": 174234.9925781251,
      "d": 107.68124999999418,
      "v": 99
    },
    {
      "midi": 59,
      "hit": false,
      "t": 174450.35507812508,
      "d": 201.90234375,
      "v": 95
    },
    {
      "midi": 59,
      "hit": false,
      "t": 174506.43906249997,
      "d": 150.30507812500582,
      "v": 51
    },
    {
      "midi": 57,
      "hit": false,
      "t": 174881.0800781251,
      "d": 197.41562499999418,
      "v": 104
    },
    {
      "midi": 57,
      "hit": false,
      "t": 174932.67734374997,
      "d": 127.87148437500582,
      "v": 53
    },
    {
      "midi": 66,
      "hit": false,
      "t": 175098.68593749998,
      "d": 118.89804687499418,
      "v": 47
    },
    {
      "midi": 69,
      "hit": false,
      "t": 175098.68593749998,
      "d": 127.87148437500582,
      "v": 46
    },
    {
      "midi": 66,
      "hit": false,
      "t": 175311.80507812498,
      "d": 179.46875,
      "v": 49
    },
    {
      "midi": 59,
      "hit": false,
      "t": 175311.8050781251,
      "d": 186.19882812499418,
      "v": 104
    },
    {
      "midi": 69,
      "hit": false,
      "t": 175316.29179687498,
      "d": 157.03515625,
      "v": 48
    },
    {
      "midi": 71,
      "hit": false,
      "t": 175527.16757812497,
      "d": 166.00859375001164,
      "v": 50
    },
    {
      "midi": 68,
      "hit": false,
      "t": 175527.16757812497,
      "d": 213.119140625,
      "v": 46
    },
    {
      "midi": 57,
      "hit": false,
      "t": 175729.06992187505,
      "d": 3317.9285156250116,
      "v": 97
    },
    {
      "midi": 61,
      "hit": false,
      "t": 175729.06992187505,
      "d": 3331.388671875,
      "v": 100
    },
    {
      "midi": 64,
      "hit": false,
      "t": 175729.06992187505,
      "d": 3344.8488281249884,
      "v": 102
    },
    {
      "midi": 83,
      "hit": false,
      "t": 175735.79999999944,
      "d": 3394.2027343750233,
      "v": 87
    },
    {
      "midi": 52,
      "hit": false,
      "t": 175735.7999999997,
      "d": 3365.039062499971,
      "v": 82
    },
    {
      "midi": 61,
      "hit": false,
      "t": 175735.7999999997,
      "d": 3378.4992187499593,
      "v": 76
    },
    {
      "midi": 71,
      "hit": false,
      "t": 175738.04335937506,
      "d": 3131.7296874999884,
      "v": 95
    },
    {
      "midi": 83,
      "hit": false,
      "t": 175742.53007812428,
      "d": 2577.6199218749534,
      "v": 97
    },
    {
      "midi": 95,
      "hit": false,
      "t": 175742.53007812428,
      "d": 2577.6199218749534,
      "v": 80
    },
    {
      "midi": 68,
      "hit": false,
      "t": 175751.50351562505,
      "d": 3295.4949218750116,
      "v": 95
    },
    {
      "midi": 71,
      "hit": false,
      "t": 176173.2550781247,
      "d": 100.951171875,
      "v": 98
    },
    {
      "midi": 52,
      "hit": false,
      "t": 176173.25507812508,
      "d": 152.54843749999418,
      "v": 100
    },
    {
      "midi": 71,
      "hit": false,
      "t": 176388.6175781247,
      "d": 125.62812499998836,
      "v": 97
    },
    {
      "midi": 57,
      "hit": false,
      "t": 176388.61757812506,
      "d": 145.818359375,
      "v": 99
    },
    {
      "midi": 69,
      "hit": false,
      "t": 176603.98007812467,
      "d": 143.57500000001164,
      "v": 97
    },
    {
      "midi": 59,
      "hit": false,
      "t": 176603.98007812505,
      "d": 219.84921874999418,
      "v": 97
    },
    {
      "midi": 55,
      "hit": false,
      "t": 177034.70507812506,
      "d": 1808.1476562499884,
      "v": 95
    },
    {
      "midi": 69,
      "hit": false,
      "t": 177458.6999999997,
      "d": 121.14140625001164,
      "v": 96
    },
    {
      "midi": 64,
      "hit": false,
      "t": 177667.33242187471,
      "d": 107.68124999999418,
      "v": 104
    },
    {
      "midi": 83,
      "hit": false,
      "t": 177882.6949218747,
      "d": 130.11484374999418,
      "v": 100
    },
    {
      "midi": 79,
      "hit": false,
      "t": 178098.0574218747,
      "d": 114.41132812498836,
      "v": 101
    },
    {
      "midi": 81,
      "hit": false,
      "t": 178317.9066406247,
      "d": 484.56562499998836,
      "v": 103
    },
    {
      "midi": 71,
      "hit": false,
      "t": 178609.54335937422,
      "d": 80.76093750001746,
      "v": 82
    },
    {
      "midi": 73,
      "hit": false,
      "t": 178685.81757812423,
      "d": 76.27421875001164,
      "v": 88
    },
    {
      "midi": 75,
      "hit": false,
      "t": 178753.11835937423,
      "d": 89.734375,
      "v": 93
    },
    {
      "midi": 76,
      "hit": false,
      "t": 178829.39257812424,
      "d": 76.27421874998254,
      "v": 99
    },
    {
      "midi": 77,
      "hit": false,
      "t": 178892.20664062424,
      "d": 85.24765624996508,
      "v": 105
    },
    {
      "midi": 78,
      "hit": false,
      "t": 178963.9941406242,
      "d": 89.734375,
      "v": 110
    },
    {
      "midi": 79,
      "hit": false,
      "t": 179044.7550781242,
      "d": 80.76093750001746,
      "v": 117
    },
    {
      "midi": 80,
      "hit": false,
      "t": 179116.5425781242,
      "d": 98.70781250001164,
      "v": 123
    },
    {
      "midi": 38,
      "hit": false,
      "t": 179181.59999999966,
      "d": 453.1585937498894,
      "v": 105
    },
    {
      "midi": 62,
      "hit": false,
      "t": 179183.84335937505,
      "d": 942.2109375000291,
      "v": 101
    },
    {
      "midi": 81,
      "hit": false,
      "t": 179186.08671874923,
      "d": 273.6898437500058,
      "v": 117
    },
    {
      "midi": 93,
      "hit": false,
      "t": 179186.08671874966,
      "d": 376.88437499987776,
      "v": 109
    },
    {
      "midi": 62,
      "hit": false,
      "t": 179188.33007812465,
      "d": 235.5527343749127,
      "v": 77
    },
    {
      "midi": 93,
      "hit": false,
      "t": 179190.57343749923,
      "d": 253.49960937499418,
      "v": 115
    },
    {
      "midi": 50,
      "hit": false,
      "t": 179190.57343749964,
      "d": 217.6058593749476,
      "v": 75
    },
    {
      "midi": 57,
      "hit": false,
      "t": 179190.57343749964,
      "d": 219.84921874993597,
      "v": 75
    },
    {
      "midi": 54,
      "hit": false,
      "t": 179190.57343749964,
      "d": 222.09257812492433,
      "v": 84
    },
    {
      "midi": 69,
      "hit": false,
      "t": 179192.81679687463,
      "d": 376.88437499990687,
      "v": 109
    },
    {
      "midi": 81,
      "hit": false,
      "t": 179192.81679687463,
      "d": 376.88437499990687,
      "v": 109
    },
    {
      "midi": 66,
      "hit": false,
      "t": 179192.81679687506,
      "d": 886.1269531250291,
      "v": 99
    },
    {
      "midi": 69,
      "hit": false,
      "t": 179201.79023437508,
      "d": 861.4500000000116,
      "v": 97
    },
    {
      "midi": 78,
      "hit": false,
      "t": 180049.78007812443,
      "d": 334.26054687501164,
      "v": 88
    },
    {
      "midi": 78,
      "hit": false,
      "t": 180476.01835937443,
      "d": 168.251953125,
      "v": 86
    },
    {
      "midi": 69,
      "hit": false,
      "t": 180480.50507812508,
      "d": 1850.771484375,
      "v": 101
    },
    {
      "midi": 62,
      "hit": false,
      "t": 180480.50507812508,
      "d": 1895.638671875,
      "v": 101
    },
    {
      "midi": 66,
      "hit": false,
      "t": 180484.99179687508,
      "d": 1868.7183593749942,
      "v": 103
    },
    {
      "midi": 78,
      "hit": false,
      "t": 180693.62421874944,
      "d": 181.71210937498836,
      "v": 82
    },
    {
      "midi": 81,
      "hit": false,
      "t": 180911.2300781244,
      "d": 605.70703125,
      "v": 80
    },
    {
      "midi": 78,
      "hit": false,
      "t": 181557.3175781244,
      "d": 825.5562500000233,
      "v": 80
    },
    {
      "midi": 64,
      "hit": false,
      "t": 181772.68007812498,
      "d": 782.9324218750116,
      "v": 73
    },
    {
      "midi": 69,
      "hit": false,
      "t": 181774.92343749997,
      "d": 818.8261718750291,
      "v": 78
    },
    {
      "midi": 61,
      "hit": false,
      "t": 182616.18320312508,
      "d": 1079.0558593750175,
      "v": 100
    },
    {
      "midi": 66,
      "hit": false,
      "t": 182627.40000000008,
      "d": 1070.0824218750058,
      "v": 96
    },
    {
      "midi": 69,
      "hit": false,
      "t": 182647.5902343751,
      "d": 1038.6753906249942,
      "v": 101
    },
    {
      "midi": 74,
      "hit": false,
      "t": 183280.21757812443,
      "d": 118.89804687499418,
      "v": 87
    },
    {
      "midi": 78,
      "hit": false,
      "t": 183495.58007812442,
      "d": 349.96406249998836,
      "v": 87
    },
    {
      "midi": 78,
      "hit": false,
      "t": 183919.5749999994,
      "d": 154.79179687501164,
      "v": 89
    },
    {
      "midi": 66,
      "hit": false,
      "t": 183919.5750000001,
      "d": 1787.9574218749767,
      "v": 104
    },
    {
      "midi": 61,
      "hit": false,
      "t": 183921.8183593751,
      "d": 1796.9308593749884,
      "v": 95
    },
    {
      "midi": 69,
      "hit": false,
      "t": 183921.8183593751,
      "d": 1812.6343749999942,
      "v": 96
    },
    {
      "midi": 78,
      "hit": false,
      "t": 184141.6675781244,
      "d": 130.11484374999418,
      "v": 81
    },
    {
      "midi": 83,
      "hit": false,
      "t": 184343.5699218744,
      "d": 448.671875,
      "v": 86
    },
    {
      "midi": 81,
      "hit": false,
      "t": 184783.2683593744,
      "d": 174.98203124999418,
      "v": 82
    },
    {
      "midi": 83,
      "hit": false,
      "t": 184922.3566406244,
      "d": 188.44218749998254,
      "v": 88
    },
    {
      "midi": 81,
      "hit": false,
      "t": 185074.9050781244,
      "d": 150.30507812500582,
      "v": 80
    },
    {
      "midi": 78,
      "hit": false,
      "t": 185205.0199218744,
      "d": 578.7867187499651,
      "v": 85
    },
    {
      "midi": 69,
      "hit": false,
      "t": 185218.480078125,
      "d": 782.9324218749825,
      "v": 71
    },
    {
      "midi": 74,
      "hit": false,
      "t": 185218.480078125,
      "d": 785.1757812499709,
      "v": 76
    },
    {
      "midi": 69,
      "hit": false,
      "t": 186061.98320312507,
      "d": 953.427734375,
      "v": 95
    },
    {
      "midi": 62,
      "hit": false,
      "t": 186073.20000000007,
      "d": 841.259765625,
      "v": 104
    },
    {
      "midi": 66,
      "hit": false,
      "t": 186079.93007812506,
      "d": 805.3660156250116,
      "v": 104
    },
    {
      "midi": 74,
      "hit": false,
      "t": 186726.0175781244,
      "d": 186.19882812499418,
      "v": 80
    },
    {
      "midi": 78,
      "hit": false,
      "t": 186941.38007812438,
      "d": 356.69414062501164,
      "v": 85
    },
    {
      "midi": 66,
      "hit": false,
      "t": 187365.37500000006,
      "d": 1695.9796875000175,
      "v": 101
    },
    {
      "midi": 78,
      "hit": false,
      "t": 187372.10507812438,
      "d": 154.79179687501164,
      "v": 88
    },
    {
      "midi": 69,
      "hit": false,
      "t": 187372.10507812505,
      "d": 1821.607812500035,
      "v": 95
    },
    {
      "midi": 62,
      "hit": false,
      "t": 187376.59179687506,
      "d": 1467.1570312500116,
      "v": 96
    },
    {
      "midi": 78,
      "hit": false,
      "t": 187587.4675781244,
      "d": 161.52187500000582,
      "v": 85
    },
    {
      "midi": 81,
      "hit": false,
      "t": 187793.8566406244,
      "d": 598.9769531250058,
      "v": 80
    },
    {
      "midi": 78,
      "hit": false,
      "t": 188442.18749999942,
      "d": 354.4507812499942,
      "v": 84
    },
    {
      "midi": 74,
      "hit": false,
      "t": 188664.28007812423,
      "d": 847.9898437499942,
      "v": 89
    },
    {
      "midi": 74,
      "hit": false,
      "t": 188664.28007812455,
      "d": 336.50390625,
      "v": 88
    },
    {
      "midi": 62,
      "hit": false,
      "t": 188872.91250000006,
      "d": 199.65898437501164,
      "v": 101
    },
    {
      "midi": 81,
      "hit": false,
      "t": 188879.64257812442,
      "d": 172.73867187500582,
      "v": 85
    },
    {
      "midi": 66,
      "hit": false,
      "t": 189077.05820312508,
      "d": 273.6898437500058,
      "v": 99
    },
    {
      "midi": 86,
      "hit": false,
      "t": 189095.0050781244,
      "d": 255.74296874995343,
      "v": 80
    },
    {
      "midi": 74,
      "hit": false,
      "t": 189095.00507812455,
      "d": 309.5835937499942,
      "v": 87
    },
    {
      "midi": 69,
      "hit": false,
      "t": 189292.4207031251,
      "d": 1034.1886718749884,
      "v": 95
    },
    {
      "midi": 85,
      "hit": false,
      "t": 189310.36757812437,
      "d": 224.3359375,
      "v": 86
    },
    {
      "midi": 55,
      "hit": false,
      "t": 189514.51328125008,
      "d": 785.17578125,
      "v": 95
    },
    {
      "midi": 74,
      "hit": false,
      "t": 189518.9999999992,
      "d": 946.6976562500058,
      "v": 86
    },
    {
      "midi": 78,
      "hit": false,
      "t": 189518.99999999953,
      "d": 834.5296874999767,
      "v": 80
    },
    {
      "midi": 62,
      "hit": false,
      "t": 189518.99999999953,
      "d": 861.4499999999534,
      "v": 75
    },
    {
      "midi": 66,
      "hit": false,
      "t": 189518.99999999953,
      "d": 861.4499999999534,
      "v": 81
    },
    {
      "midi": 62,
      "hit": false,
      "t": 189519.0000000001,
      "d": 789.6625000000058,
      "v": 96
    },
    {
      "midi": 81,
      "hit": false,
      "t": 189525.73007812435,
      "d": 623.6539062500233,
      "v": 88
    },
    {
      "midi": 43,
      "hit": false,
      "t": 189525.73007812453,
      "d": 753.7687499999884,
      "v": 89
    },
    {
      "midi": 69,
      "hit": false,
      "t": 189525.73007812453,
      "d": 834.5296874999767,
      "v": 78
    },
    {
      "midi": 81,
      "hit": false,
      "t": 189525.73007812453,
      "d": 872.6667968749534,
      "v": 88
    },
    {
      "midi": 59,
      "hit": false,
      "t": 189525.73007812543,
      "d": 697.6847656249884,
      "v": 97
    },
    {
      "midi": 55,
      "hit": false,
      "t": 190369.2332031251,
      "d": 760.4988281250116,
      "v": 101
    },
    {
      "midi": 43,
      "hit": false,
      "t": 190373.7199218745,
      "d": 2445.2617187498836,
      "v": 89
    },
    {
      "midi": 64,
      "hit": false,
      "t": 190375.96328124948,
      "d": 847.9898437499651,
      "v": 77
    },
    {
      "midi": 67,
      "hit": false,
      "t": 190380.4500000001,
      "d": 760.4988281250116,
      "v": 100
    },
    {
      "midi": 79,
      "hit": false,
      "t": 190387.18007812448,
      "d": 769.4722656249942,
      "v": 88
    },
    {
      "midi": 69,
      "hit": false,
      "t": 190387.18007812448,
      "d": 821.0695312499884,
      "v": 81
    },
    {
      "midi": 62,
      "hit": false,
      "t": 190387.18007812448,
      "d": 834.5296874999767,
      "v": 79
    },
    {
      "midi": 76,
      "hit": false,
      "t": 190387.18007812448,
      "d": 834.5296874999767,
      "v": 75
    },
    {
      "midi": 59,
      "hit": false,
      "t": 190387.1800781254,
      "d": 708.9015624999884,
      "v": 98
    },
    {
      "midi": 81,
      "hit": false,
      "t": 190389.42343749935,
      "d": 206.38906250000582,
      "v": 83
    },
    {
      "midi": 62,
      "hit": false,
      "t": 190400.6402343751,
      "d": 706.658203125,
      "v": 103
    },
    {
      "midi": 76,
      "hit": false,
      "t": 190402.88359374923,
      "d": 724.6050781249942,
      "v": 86
    },
    {
      "midi": 81,
      "hit": false,
      "t": 190804.44492187435,
      "d": 222.09257812492433,
      "v": 80
    },
    {
      "midi": 83,
      "hit": false,
      "t": 191019.80742187428,
      "d": 186.19882812499418,
      "v": 88
    },
    {
      "midi": 74,
      "hit": false,
      "t": 191228.43984374922,
      "d": 773.958984375,
      "v": 84
    },
    {
      "midi": 74,
      "hit": false,
      "t": 191232.92656249946,
      "d": 847.9898437499651,
      "v": 82
    },
    {
      "midi": 62,
      "hit": false,
      "t": 191232.9265625001,
      "d": 818.826171875,
      "v": 100
    },
    {
      "midi": 78,
      "hit": false,
      "t": 191235.16992187427,
      "d": 498.0257812500058,
      "v": 88
    },
    {
      "midi": 66,
      "hit": false,
      "t": 191235.16992187445,
      "d": 847.9898437499651,
      "v": 77
    },
    {
      "midi": 62,
      "hit": false,
      "t": 191235.16992187445,
      "d": 861.4499999999534,
      "v": 75
    },
    {
      "midi": 71,
      "hit": false,
      "t": 191237.41328124944,
      "d": 834.5296874999767,
      "v": 80
    },
    {
      "midi": 55,
      "hit": false,
      "t": 191237.4132812501,
      "d": 796.392578125,
      "v": 102
    },
    {
      "midi": 78,
      "hit": false,
      "t": 191241.89999999944,
      "d": 305.09687499998836,
      "v": 94
    },
    {
      "midi": 59,
      "hit": false,
      "t": 191248.6300781254,
      "d": 780.6890624999942,
      "v": 96
    },
    {
      "midi": 66,
      "hit": false,
      "t": 191253.1167968751,
      "d": 769.4722656249942,
      "v": 98
    },
    {
      "midi": 79,
      "hit": false,
      "t": 191524.56328124943,
      "d": 305.09687499998836,
      "v": 93
    },
    {
      "midi": 74,
      "hit": false,
      "t": 191822.93007812425,
      "d": 228.8226562499476,
      "v": 80
    },
    {
      "midi": 76,
      "hit": false,
      "t": 191822.93007812442,
      "d": 309.5835937499651,
      "v": 86
    },
    {
      "midi": 66,
      "hit": false,
      "t": 191894.71757812507,
      "d": 204.14570312498836,
      "v": 100
    },
    {
      "midi": 62,
      "hit": false,
      "t": 191896.96093750006,
      "d": 210.87578125001164,
      "v": 99
    },
    {
      "midi": 74,
      "hit": false,
      "t": 192094.3765624992,
      "d": 776.2023437499884,
      "v": 81
    },
    {
      "midi": 74,
      "hit": false,
      "t": 192098.8632812494,
      "d": 847.9898437499942,
      "v": 83
    },
    {
      "midi": 62,
      "hit": false,
      "t": 192105.5933593751,
      "d": 708.9015625000175,
      "v": 100
    },
    {
      "midi": 78,
      "hit": false,
      "t": 192107.8367187494,
      "d": 847.9898437499942,
      "v": 89
    },
    {
      "midi": 66,
      "hit": false,
      "t": 192107.83671875007,
      "d": 174.98203124999418,
      "v": 104
    },
    {
      "midi": 78,
      "hit": false,
      "t": 192110.08007812419,
      "d": 195.17226562500582,
      "v": 85
    },
    {
      "midi": 71,
      "hit": false,
      "t": 192110.0800781244,
      "d": 847.9898437499942,
      "v": 78
    },
    {
      "midi": 62,
      "hit": false,
      "t": 192110.0800781244,
      "d": 861.4499999999825,
      "v": 82
    },
    {
      "midi": 66,
      "hit": false,
      "t": 192110.0800781244,
      "d": 861.4499999999825,
      "v": 76
    },
    {
      "midi": 57,
      "hit": false,
      "t": 192110.08007812538,
      "d": 740.30859375,
      "v": 96
    },
    {
      "midi": 62,
      "hit": false,
      "t": 192112.32343750008,
      "d": 174.98203124999418,
      "v": 98
    },
    {
      "midi": 64,
      "hit": false,
      "t": 192114.56679687512,
      "d": 634.8707031249942,
      "v": 103
    },
    {
      "midi": 55,
      "hit": false,
      "t": 192114.56679687512,
      "d": 646.0874999999942,
      "v": 96
    },
    {
      "midi": 67,
      "hit": false,
      "t": 192325.44257812508,
      "d": 201.90234375,
      "v": 99
    },
    {
      "midi": 64,
      "hit": false,
      "t": 192327.68593750006,
      "d": 188.44218750001164,
      "v": 101
    },
    {
      "midi": 79,
      "hit": false,
      "t": 192397.23007812418,
      "d": 186.19882812499418,
      "v": 89
    },
    {
      "midi": 69,
      "hit": false,
      "t": 192540.80507812506,
      "d": 323.04374999998254,
      "v": 99
    },
    {
      "midi": 66,
      "hit": false,
      "t": 192543.04843750005,
      "d": 336.50390625,
      "v": 97
    },
    {
      "midi": 81,
      "hit": false,
      "t": 192684.38007812417,
      "d": 170.49531249998836,
      "v": 89
    },
    {
      "midi": 64,
      "hit": false,
      "t": 192953.58320312513,
      "d": 1191.2238281249884,
      "v": 103
    },
    {
      "midi": 62,
      "hit": false,
      "t": 192958.06992187505,
      "d": 1662.3292968749884,
      "v": 95
    },
    {
      "midi": 83,
      "hit": false,
      "t": 192964.79999999917,
      "d": 1848.5281249999534,
      "v": 86
    },
    {
      "midi": 83,
      "hit": false,
      "t": 192964.7999999992,
      "d": 3445.7999999999884,
      "v": 88
    },
    {
      "midi": 83,
      "hit": false,
      "t": 192964.79999999938,
      "d": 3230.4374999996217,
      "v": 93
    },
    {
      "midi": 64,
      "hit": false,
      "t": 192964.79999999938,
      "d": 3374.012499999604,
      "v": 83
    },
    {
      "midi": 71,
      "hit": false,
      "t": 192964.80000000013,
      "d": 1177.763671875,
      "v": 103
    },
    {
      "midi": 88,
      "hit": false,
      "t": 192964.80000000013,
      "d": 5332.465234375006,
      "v": 53
    },
    {
      "midi": 52,
      "hit": false,
      "t": 192967.04335937437,
      "d": 3407.662890624604,
      "v": 76
    },
    {
      "midi": 59,
      "hit": false,
      "t": 192967.04335937512,
      "d": 1182.2503906250058,
      "v": 97
    },
    {
      "midi": 59,
      "hit": false,
      "t": 192971.53007812437,
      "d": 3367.28242187461,
      "v": 83
    },
    {
      "midi": 67,
      "hit": false,
      "t": 192971.53007812437,
      "d": 3367.28242187461,
      "v": 82
    },
    {
      "midi": 71,
      "hit": false,
      "t": 192971.53007812504,
      "d": 1662.3292968749884,
      "v": 96
    },
    {
      "midi": 67,
      "hit": false,
      "t": 192971.5300781254,
      "d": 2983.66796875,
      "v": 102
    },
    {
      "midi": 66,
      "hit": false,
      "t": 192973.77343750003,
      "d": 1608.4886718750058,
      "v": 100
    },
    {
      "midi": 40,
      "hit": false,
      "t": 192976.01679687438,
      "d": 3080.132421874616,
      "v": 88
    },
    {
      "midi": 67,
      "hit": false,
      "t": 192976.01679687513,
      "d": 1175.5203124999825,
      "v": 100
    },
    {
      "midi": 59,
      "hit": false,
      "t": 192980.50351562482,
      "d": 3057.698828124965,
      "v": 84
    },
    {
      "midi": 62,
      "hit": false,
      "t": 192980.50351562482,
      "d": 3064.4289062499593,
      "v": 80
    },
    {
      "midi": 55,
      "hit": false,
      "t": 192980.50351562482,
      "d": 3073.402343749971,
      "v": 80
    },
    {
      "midi": 64,
      "hit": false,
      "t": 192980.50351562482,
      "d": 3073.402343749971,
      "v": 80
    },
    {
      "midi": 71,
      "hit": false,
      "t": 194259.2183593751,
      "d": 1969.6695312500233,
      "v": 99
    },
    {
      "midi": 59,
      "hit": false,
      "t": 194259.2183593751,
      "d": 1998.8332031250175,
      "v": 100
    },
    {
      "midi": 64,
      "hit": false,
      "t": 194268.19179687512,
      "d": 1967.4261718750058,
      "v": 102
    },
    {
      "midi": 67,
      "hit": false,
      "t": 194277.16523437513,
      "d": 1967.4261718750058,
      "v": 96
    },
    {
      "midi": 52,
      "hit": false,
      "t": 194483.55429687482,
      "d": 107.68124999999418,
      "v": 89
    },
    {
      "midi": 52,
      "hit": false,
      "t": 194694.4300781248,
      "d": 361.18085937498836,
      "v": 82
    },
    {
      "midi": 52,
      "hit": false,
      "t": 195125.15507812478,
      "d": 984.8347656250116,
      "v": 84
    },
    {
      "midi": 62,
      "hit": false,
      "t": 195340.51757812503,
      "d": 174.98203124999418,
      "v": 102
    },
    {
      "midi": 66,
      "hit": false,
      "t": 195340.51757812503,
      "d": 195.17226562500582,
      "v": 97
    },
    {
      "midi": 76,
      "hit": false,
      "t": 195394.35820312414,
      "d": 174.98203124999418,
      "v": 83
    },
    {
      "midi": 78,
      "hit": false,
      "t": 195555.88007812414,
      "d": 215.36249999998836,
      "v": 83
    },
    {
      "midi": 66,
      "hit": false,
      "t": 195555.88007812505,
      "d": 161.52187500000582,
      "v": 96
    },
    {
      "midi": 62,
      "hit": false,
      "t": 195555.88007812505,
      "d": 174.98203124999418,
      "v": 95
    },
    {
      "midi": 64,
      "hit": false,
      "t": 195771.24257812503,
      "d": 188.44218750001164,
      "v": 102
    },
    {
      "midi": 67,
      "hit": false,
      "t": 195771.24257812503,
      "d": 201.90234375,
      "v": 104
    },
    {
      "midi": 79,
      "hit": false,
      "t": 195843.03007812414,
      "d": 204.14570312498836,
      "v": 83
    },
    {
      "midi": 66,
      "hit": false,
      "t": 195986.60507812502,
      "d": 323.04375000001164,
      "v": 103
    },
    {
      "midi": 69,
      "hit": false,
      "t": 195986.60507812502,
      "d": 338.74726562501746,
      "v": 98
    },
    {
      "midi": 81,
      "hit": false,
      "t": 196130.18007812413,
      "d": 228.82265625000582,
      "v": 84
    },
    {
      "midi": 43,
      "hit": false,
      "t": 196410.59999999896,
      "d": 1197.9539062497497,
      "v": 92
    },
    {
      "midi": 81,
      "hit": false,
      "t": 196410.59999999896,
      "d": 3230.437499999767,
      "v": 88
    },
    {
      "midi": 62,
      "hit": false,
      "t": 196410.59999999896,
      "d": 3340.3621093747206,
      "v": 75
    },
    {
      "midi": 57,
      "hit": false,
      "t": 196410.59999999896,
      "d": 3347.092187499715,
      "v": 82
    },
    {
      "midi": 54,
      "hit": false,
      "t": 196410.59999999896,
      "d": 3356.0656249997264,
      "v": 75
    },
    {
      "midi": 81,
      "hit": false,
      "t": 196410.5999999992,
      "d": 3409.90625,
      "v": 84
    },
    {
      "midi": 62,
      "hit": false,
      "t": 196410.60000000012,
      "d": 1175.5203124999825,
      "v": 98
    },
    {
      "midi": 66,
      "hit": false,
      "t": 196412.8433593751,
      "d": 1155.330078125,
      "v": 104
    },
    {
      "midi": 69,
      "hit": false,
      "t": 196412.8433593751,
      "d": 1162.0601562499942,
      "v": 99
    },
    {
      "midi": 81,
      "hit": false,
      "t": 196417.33007812413,
      "d": 753.7687500000175,
      "v": 88
    },
    {
      "midi": 62,
      "hit": false,
      "t": 196417.3300781248,
      "d": 1148.5999999999767,
      "v": 89
    },
    {
      "midi": 57,
      "hit": false,
      "t": 196417.3300781248,
      "d": 1150.843359374965,
      "v": 85
    },
    {
      "midi": 59,
      "hit": false,
      "t": 196417.3300781248,
      "d": 1155.330078124971,
      "v": 81
    },
    {
      "midi": 62,
      "hit": false,
      "t": 196417.33007812503,
      "d": 1669.0593750000116,
      "v": 96
    },
    {
      "midi": 66,
      "hit": false,
      "t": 196417.33007812503,
      "d": 1682.51953125,
      "v": 103
    },
    {
      "midi": 69,
      "hit": false,
      "t": 196417.33007812503,
      "d": 1740.8468749999884,
      "v": 98
    },
    {
      "midi": 66,
      "hit": false,
      "t": 196417.33007812538,
      "d": 3149.6765625000116,
      "v": 103
    },
    {
      "midi": 66,
      "hit": false,
      "t": 196419.57343749978,
      "d": 1117.1929687499942,
      "v": 88
    },
    {
      "midi": 78,
      "hit": false,
      "t": 197265.31992187415,
      "d": 150.30507812500582,
      "v": 88
    },
    {
      "midi": 76,
      "hit": false,
      "t": 197386.46132812416,
      "d": 148.06171874998836,
      "v": 82
    },
    {
      "midi": 78,
      "hit": false,
      "t": 197494.14257812416,
      "d": 269.203125,
      "v": 86
    },
    {
      "midi": 62,
      "hit": false,
      "t": 197691.5582031251,
      "d": 2001.0765624999767,
      "v": 103
    },
    {
      "midi": 76,
      "hit": false,
      "t": 197702.77499999915,
      "d": 592.2468750000116,
      "v": 80
    },
    {
      "midi": 69,
      "hit": false,
      "t": 197705.0183593751,
      "d": 1971.9128906249825,
      "v": 101
    },
    {
      "midi": 43,
      "hit": false,
      "t": 197709.5050781237,
      "d": 2001.0765625000058,
      "v": 85
    },
    {
      "midi": 62,
      "hit": false,
      "t": 197709.50507812476,
      "d": 1810.3910156249767,
      "v": 80
    },
    {
      "midi": 57,
      "hit": false,
      "t": 197709.50507812476,
      "d": 1812.634374999965,
      "v": 82
    },
    {
      "midi": 59,
      "hit": false,
      "t": 197709.50507812476,
      "d": 1817.121093749971,
      "v": 83
    },
    {
      "midi": 66,
      "hit": false,
      "t": 197709.5050781251,
      "d": 1953.9660156249884,
      "v": 101
    },
    {
      "midi": 66,
      "hit": false,
      "t": 197711.74843749974,
      "d": 1794.6875,
      "v": 84
    },
    {
      "midi": 74,
      "hit": false,
      "t": 198714.53007812414,
      "d": 213.119140625,
      "v": 86
    },
    {
      "midi": 66,
      "hit": false,
      "t": 198786.31757812502,
      "d": 204.14570312498836,
      "v": 99
    },
    {
      "midi": 62,
      "hit": false,
      "t": 198788.5609375,
      "d": 210.87578125001164,
      "v": 102
    },
    {
      "midi": 66,
      "hit": false,
      "t": 198999.43671875002,
      "d": 174.98203124999418,
      "v": 95
    },
    {
      "midi": 78,
      "hit": false,
      "t": 199001.68007812413,
      "d": 231.06601562499418,
      "v": 89
    },
    {
      "midi": 62,
      "hit": false,
      "t": 199003.92343750002,
      "d": 174.98203124999418,
      "v": 100
    },
    {
      "midi": 67,
      "hit": false,
      "t": 199217.04257812502,
      "d": 201.90234375,
      "v": 98
    },
    {
      "midi": 64,
      "hit": false,
      "t": 199219.2859375,
      "d": 188.44218750001164,
      "v": 100
    },
    {
      "midi": 79,
      "hit": false,
      "t": 199286.58671874914,
      "d": 210.87578125001164,
      "v": 88
    },
    {
      "midi": 69,
      "hit": false,
      "t": 199432.405078125,
      "d": 323.04374999998254,
      "v": 104
    },
    {
      "midi": 66,
      "hit": false,
      "t": 199434.6484375,
      "d": 336.50390625,
      "v": 102
    },
    {
      "midi": 81,
      "hit": false,
      "t": 199562.51992187416,
      "d": 190.685546875,
      "v": 80
    },
    {
      "midi": 62,
      "hit": false,
      "t": 199849.669921875,
      "d": 1662.3292968749884,
      "v": 100
    },
    {
      "midi": 57,
      "hit": false,
      "t": 199856.39999999866,
      "d": 1283.2015624998894,
      "v": 82
    },
    {
      "midi": 62,
      "hit": false,
      "t": 199856.39999999866,
      "d": 1292.174999999901,
      "v": 81
    },
    {
      "midi": 74,
      "hit": false,
      "t": 199856.39999999866,
      "d": 1292.174999999901,
      "v": 83
    },
    {
      "midi": 83,
      "hit": false,
      "t": 199856.39999999866,
      "d": 3230.4374999998836,
      "v": 93
    },
    {
      "midi": 47,
      "hit": false,
      "t": 199856.39999999866,
      "d": 3418.879687499866,
      "v": 87
    },
    {
      "midi": 83,
      "hit": false,
      "t": 199856.39999999918,
      "d": 3445.7999999999884,
      "v": 87
    },
    {
      "midi": 57,
      "hit": false,
      "t": 199856.39999999973,
      "d": 1224.8742187499884,
      "v": 87
    },
    {
      "midi": 88,
      "hit": false,
      "t": 199856.40000000014,
      "d": 5332.465234375006,
      "v": 46
    },
    {
      "midi": 66,
      "hit": false,
      "t": 199858.6433593751,
      "d": 814.3394531249942,
      "v": 97
    },
    {
      "midi": 88,
      "hit": false,
      "t": 199860.88671874916,
      "d": 892.8570312500233,
      "v": 86
    },
    {
      "midi": 69,
      "hit": false,
      "t": 199863.13007812365,
      "d": 1265.2546874998952,
      "v": 84
    },
    {
      "midi": 66,
      "hit": false,
      "t": 199863.13007812473,
      "d": 1218.1441406249942,
      "v": 81
    },
    {
      "midi": 62,
      "hit": false,
      "t": 199863.13007812473,
      "d": 1263.0113281249942,
      "v": 87
    },
    {
      "midi": 71,
      "hit": false,
      "t": 199863.130078125,
      "d": 1662.3292968749884,
      "v": 100
    },
    {
      "midi": 66,
      "hit": false,
      "t": 199863.1300781254,
      "d": 1227.1175781250058,
      "v": 100
    },
    {
      "midi": 66,
      "hit": false,
      "t": 199865.37343749998,
      "d": 1608.4886718750058,
      "v": 103
    },
    {
      "midi": 59,
      "hit": false,
      "t": 199867.6167968751,
      "d": 780.6890624999942,
      "v": 95
    },
    {
      "midi": 64,
      "hit": false,
      "t": 199867.6167968751,
      "d": 782.9324218749825,
      "v": 104
    },
    {
      "midi": 59,
      "hit": false,
      "t": 200724.5800781251,
      "d": 132.35820312498254,
      "v": 95
    },
    {
      "midi": 86,
      "hit": false,
      "t": 200726.82343749917,
      "d": 677.4945312500058,
      "v": 84
    },
    {
      "midi": 64,
      "hit": false,
      "t": 200738.04023437508,
      "d": 127.87148437500582,
      "v": 100
    },
    {
      "midi": 66,
      "hit": false,
      "t": 200738.04023437508,
      "d": 127.87148437500582,
      "v": 101
    },
    {
      "midi": 64,
      "hit": false,
      "t": 201155.30507812355,
      "d": 1260.7679687500058,
      "v": 78
    },
    {
      "midi": 57,
      "hit": false,
      "t": 201155.30507812355,
      "d": 1924.8023437499942,
      "v": 81
    },
    {
      "midi": 69,
      "hit": false,
      "t": 201155.30507812355,
      "d": 2072.8640624999825,
      "v": 76
    },
    {
      "midi": 64,
      "hit": false,
      "t": 201155.30507812471,
      "d": 738.0652343750116,
      "v": 83
    },
    {
      "midi": 62,
      "hit": false,
      "t": 201155.30507812471,
      "d": 749.2820312500116,
      "v": 89
    },
    {
      "midi": 57,
      "hit": false,
      "t": 201155.30507812471,
      "d": 753.7687500000175,
      "v": 86
    },
    {
      "midi": 59,
      "hit": false,
      "t": 201155.3050781251,
      "d": 706.658203125,
      "v": 102
    },
    {
      "midi": 64,
      "hit": false,
      "t": 201155.3050781251,
      "d": 715.6316406250116,
      "v": 100
    },
    {
      "midi": 64,
      "hit": false,
      "t": 201155.3050781254,
      "d": 1191.2238281249884,
      "v": 103
    },
    {
      "midi": 66,
      "hit": false,
      "t": 201168.76523437508,
      "d": 713.3882812500233,
      "v": 95
    },
    {
      "midi": 76,
      "hit": false,
      "t": 201177.73867187355,
      "d": 1197.9539062500116,
      "v": 80
    },
    {
      "midi": 86,
      "hit": false,
      "t": 201801.39257812419,
      "d": 415.0214843749418,
      "v": 80
    },
    {
      "midi": 62,
      "hit": false,
      "t": 202016.75507812473,
      "d": 365.6675781249942,
      "v": 87
    },
    {
      "midi": 57,
      "hit": false,
      "t": 202016.75507812473,
      "d": 374.6410156250058,
      "v": 80
    },
    {
      "midi": 64,
      "hit": false,
      "t": 202016.75507812473,
      "d": 385.8578125000058,
      "v": 83
    },
    {
      "midi": 59,
      "hit": false,
      "t": 202016.7550781251,
      "d": 289.39335937498254,
      "v": 98
    },
    {
      "midi": 64,
      "hit": false,
      "t": 202018.9984375001,
      "d": 329.7738281249767,
      "v": 96
    },
    {
      "midi": 66,
      "hit": false,
      "t": 202021.24179687508,
      "d": 291.63671875,
      "v": 95
    },
    {
      "midi": 85,
      "hit": false,
      "t": 202232.11757812413,
      "d": 388.1011718749942,
      "v": 80
    },
    {
      "midi": 59,
      "hit": false,
      "t": 202429.53320312506,
      "d": 646.0874999999942,
      "v": 97
    },
    {
      "midi": 62,
      "hit": false,
      "t": 202434.01992187355,
      "d": 722.3617187499767,
      "v": 77
    },
    {
      "midi": 74,
      "hit": false,
      "t": 202434.01992187355,
      "d": 749.2820312499825,
      "v": 83
    },
    {
      "midi": 62,
      "hit": false,
      "t": 202440.75000000006,
      "d": 565.3265625000058,
      "v": 103
    },
    {
      "midi": 59,
      "hit": false,
      "t": 202447.48007812473,
      "d": 686.4679687499884,
      "v": 85
    },
    {
      "midi": 62,
      "hit": false,
      "t": 202447.48007812473,
      "d": 713.3882812499942,
      "v": 83
    },
    {
      "midi": 57,
      "hit": false,
      "t": 202447.48007812473,
      "d": 733.5785156250058,
      "v": 80
    },
    {
      "midi": 66,
      "hit": false,
      "t": 202447.48007812505,
      "d": 616.923828125,
      "v": 99
    },
    {
      "midi": 62,
      "hit": false,
      "t": 202447.4800781254,
      "d": 724.6050781249942,
      "v": 96
    },
    {
      "midi": 83,
      "hit": false,
      "t": 202662.84257812414,
      "d": 376.8843749999942,
      "v": 84
    },
    {
      "midi": 83,
      "hit": false,
      "t": 203093.56757812414,
      "d": 484.56562499998836,
      "v": 85
    },
    {
      "midi": 74,
      "hit": false,
      "t": 203290.98320312504,
      "d": 1195.7105468749942,
      "v": 98
    },
    {
      "midi": 69,
      "hit": false,
      "t": 203290.98320312504,
      "d": 1238.3343749999767,
      "v": 102
    },
    {
      "midi": 62,
      "hit": false,
      "t": 203302.19999999853,
      "d": 1292.1749999998137,
      "v": 77
    },
    {
      "midi": 65,
      "hit": false,
      "t": 203304.44335937503,
      "d": 1202.4406249999884,
      "v": 96
    },
    {
      "midi": 53,
      "hit": false,
      "t": 203308.93007812352,
      "d": 1265.254687499837,
      "v": 77
    },
    {
      "midi": 57,
      "hit": false,
      "t": 203308.93007812352,
      "d": 1292.1749999998137,
      "v": 76
    },
    {
      "midi": 81,
      "hit": false,
      "t": 203308.93007812352,
      "d": 1332.555468749837,
      "v": 88
    },
    {
      "midi": 62,
      "hit": false,
      "t": 203308.93007812474,
      "d": 702.1714843749942,
      "v": 82
    },
    {
      "midi": 65,
      "hit": false,
      "t": 203308.93007812474,
      "d": 720.1183593749884,
      "v": 82
    },
    {
      "midi": 57,
      "hit": false,
      "t": 203308.93007812474,
      "d": 740.30859375,
      "v": 86
    },
    {
      "midi": 62,
      "hit": false,
      "t": 203308.93007812503,
      "d": 1180.0070312499884,
      "v": 99
    },
    {
      "midi": 62,
      "hit": false,
      "t": 203308.93007812538,
      "d": 756.0121093750058,
      "v": 104
    },
    {
      "midi": 46,
      "hit": false,
      "t": 203313.41679687353,
      "d": 1101.4894531248428,
      "v": 88
    },
    {
      "midi": 81,
      "hit": false,
      "t": 203338.09374999916,
      "d": 1296.6617187499942,
      "v": 88
    },
    {
      "midi": 81,
      "hit": false,
      "t": 203524.29257812412,
      "d": 542.8929687500058,
      "v": 89
    },
    {
      "midi": 79,
      "hit": false,
      "t": 204170.38007812412,
      "d": 1588.2984375000233,
      "v": 84
    },
    {
      "midi": 62,
      "hit": false,
      "t": 204170.38007812476,
      "d": 231.06601562499418,
      "v": 88
    },
    {
      "midi": 65,
      "hit": false,
      "t": 204170.38007812476,
      "d": 235.552734375,
      "v": 81
    },
    {
      "midi": 57,
      "hit": false,
      "t": 204170.38007812476,
      "d": 269.203125,
      "v": 82
    },
    {
      "midi": 69,
      "hit": false,
      "t": 204170.380078125,
      "d": 219.84921874999418,
      "v": 102
    },
    {
      "midi": 62,
      "hit": false,
      "t": 204170.380078125,
      "d": 266.95976562501164,
      "v": 97
    },
    {
      "midi": 62,
      "hit": false,
      "t": 204170.3800781254,
      "d": 199.65898437501164,
      "v": 99
    },
    {
      "midi": 57,
      "hit": false,
      "t": 204172.62343749998,
      "d": 255.74296875001164,
      "v": 98
    },
    {
      "midi": 70,
      "hit": false,
      "t": 204583.15820312503,
      "d": 1819.3644531249884,
      "v": 97
    },
    {
      "midi": 46,
      "hit": false,
      "t": 204587.64492187335,
      "d": 2023.5101562500058,
      "v": 87
    },
    {
      "midi": 67,
      "hit": false,
      "t": 204596.61835937502,
      "d": 1931.5324218749884,
      "v": 104
    },
    {
      "midi": 74,
      "hit": false,
      "t": 204596.61835937502,
      "d": 1992.1031249999942,
      "v": 100
    },
    {
      "midi": 79,
      "hit": false,
      "t": 204598.86171874916,
      "d": 2032.4835937499884,
      "v": 82
    },
    {
      "midi": 55,
      "hit": false,
      "t": 204601.10507812334,
      "d": 2005.5632812500116,
      "v": 83
    },
    {
      "midi": 58,
      "hit": false,
      "t": 204601.10507812334,
      "d": 2016.7800781250116,
      "v": 80
    },
    {
      "midi": 62,
      "hit": false,
      "t": 204601.10507812334,
      "d": 2057.160546875006,
      "v": 84
    },
    {
      "midi": 58,
      "hit": false,
      "t": 204601.10507812476,
      "d": 1738.603515625,
      "v": 84
    },
    {
      "midi": 64,
      "hit": false,
      "t": 204601.10507812476,
      "d": 1783.470703125,
      "v": 85
    },
    {
      "midi": 62,
      "hit": false,
      "t": 204601.10507812476,
      "d": 1817.12109375,
      "v": 86
    },
    {
      "midi": 58,
      "hit": false,
      "t": 204601.105078125,
      "d": 2059.403906249994,
      "v": 100
    },
    {
      "midi": 67,
      "hit": false,
      "t": 204601.105078125,
      "d": 2153.625,
      "v": 97
    },
    {
      "midi": 62,
      "hit": false,
      "t": 204601.1050781254,
      "d": 1906.85546875,
      "v": 95
    },
    {
      "midi": 64,
      "hit": false,
      "t": 204605.591796875,
      "d": 2126.704687499994,
      "v": 103
    },
    {
      "midi": 64,
      "hit": false,
      "t": 204605.59179687503,
      "d": 1794.6875,
      "v": 104
    },
    {
      "midi": 52,
      "hit": false,
      "t": 204610.07851562335,
      "d": 2003.3199218749942,
      "v": 77
    },
    {
      "midi": 79,
      "hit": false,
      "t": 204619.05195312336,
      "d": 2084.0808593749825,
      "v": 86
    },
    {
      "midi": 78,
      "hit": false,
      "t": 205879.81992187415,
      "d": 197.41562499999418,
      "v": 81
    },
    {
      "midi": 76,
      "hit": false,
      "t": 206108.64257812416,
      "d": 143.57500000001164,
      "v": 84
    },
    {
      "midi": 74,
      "hit": false,
      "t": 206319.51835937417,
      "d": 275.9332031249942,
      "v": 84
    },
    {
      "midi": 66,
      "hit": false,
      "t": 206747.99999999834,
      "d": 3405.419531249994,
      "v": 86
    },
    {
      "midi": 66,
      "hit": false,
      "t": 206748,
      "d": 686.4679687499593,
      "v": 98
    },
    {
      "midi": 88,
      "hit": false,
      "t": 206748.00000000015,
      "d": 5332.465234375006,
      "v": 48
    },
    {
      "midi": 62,
      "hit": false,
      "t": 206750.243359375,
      "d": 664.0343749999884,
      "v": 98
    },
    {
      "midi": 57,
      "hit": false,
      "t": 206750.243359375,
      "d": 681.9812499999825,
      "v": 95
    },
    {
      "midi": 57,
      "hit": false,
      "t": 206754.73007812334,
      "d": 3230.4375,
      "v": 81
    },
    {
      "midi": 62,
      "hit": false,
      "t": 206754.73007812334,
      "d": 3230.4375,
      "v": 80
    },
    {
      "midi": 54,
      "hit": false,
      "t": 206754.73007812334,
      "d": 3243.8976562499884,
      "v": 84
    },
    {
      "midi": 38,
      "hit": false,
      "t": 206754.73007812334,
      "d": 3275.3046875,
      "v": 87
    },
    {
      "midi": 86,
      "hit": false,
      "t": 206754.730078125,
      "d": 722.3617187500058,
      "v": 100
    },
    {
      "midi": 62,
      "hit": false,
      "t": 206754.73007812505,
      "d": 136.84492187498836,
      "v": 29
    },
    {
      "midi": 62,
      "hit": false,
      "t": 206754.7300781252,
      "d": 91.97773437498836,
      "v": 96
    },
    {
      "midi": 76,
      "hit": false,
      "t": 206756.97343749917,
      "d": 354.4507812499942,
      "v": 82
    },
    {
      "midi": 66,
      "hit": false,
      "t": 206970.09257812504,
      "d": 109.92460937501164,
      "v": 32
    },
    {
      "midi": 62,
      "hit": false,
      "t": 206970.0925781252,
      "d": 116.65468750000582,
      "v": 104
    },
    {
      "midi": 69,
      "hit": false,
      "t": 207183.21171875007,
      "d": 96.46445312499418,
      "v": 35
    },
    {
      "midi": 76,
      "hit": false,
      "t": 207189.94179687416,
      "d": 964.6445312500291,
      "v": 89
    },
    {
      "midi": 62,
      "hit": false,
      "t": 207400.81757812508,
      "d": 159.27851562498836,
      "v": 38
    },
    {
      "midi": 62,
      "hit": false,
      "t": 207400.8175781252,
      "d": 67.30078125,
      "v": 95
    },
    {
      "midi": 81,
      "hit": false,
      "t": 207609.44999999975,
      "d": 432.9683593749942,
      "v": 86
    },
    {
      "midi": 74,
      "hit": false,
      "t": 207611.69335937474,
      "d": 410.5347656249942,
      "v": 83
    },
    {
      "midi": 78,
      "hit": false,
      "t": 207616.18007812474,
      "d": 403.8046875,
      "v": 85
    },
    {
      "midi": 93,
      "hit": false,
      "t": 207616.180078125,
      "d": 332.0171874999942,
      "v": 95
    },
    {
      "midi": 64,
      "hit": false,
      "t": 207616.18007812506,
      "d": 89.734375,
      "v": 40
    },
    {
      "midi": 66,
      "hit": false,
      "t": 207831.54257812505,
      "d": 94.22109375000582,
      "v": 43
    },
    {
      "midi": 69,
      "hit": false,
      "t": 208033.44492187473,
      "d": 787.4191406250175,
      "v": 82
    },
    {
      "midi": 57,
      "hit": false,
      "t": 208033.44492187497,
      "d": 1927.0457031249825,
      "v": 100
    },
    {
      "midi": 62,
      "hit": false,
      "t": 208035.68828124995,
      "d": 1915.8289062500116,
      "v": 101
    },
    {
      "midi": 66,
      "hit": false,
      "t": 208035.68828124995,
      "d": 1918.072265625,
      "v": 98
    },
    {
      "midi": 74,
      "hit": false,
      "t": 208046.90507812475,
      "d": 780.6890624999942,
      "v": 88
    },
    {
      "midi": 90,
      "hit": false,
      "t": 208046.905078125,
      "d": 648.3308593750116,
      "v": 99
    },
    {
      "midi": 69,
      "hit": false,
      "t": 208046.90507812504,
      "d": 116.65468750000582,
      "v": 46
    },
    {
      "midi": 62,
      "hit": false,
      "t": 208046.9050781252,
      "d": 83.00429687500582,
      "v": 98
    },
    {
      "midi": 62,
      "hit": false,
      "t": 208262.26757812506,
      "d": 100.951171875,
      "v": 48
    },
    {
      "midi": 62,
      "hit": false,
      "t": 208477.63007812505,
      "d": 136.84492187498836,
      "v": 51
    },
    {
      "midi": 66,
      "hit": false,
      "t": 208692.99257812503,
      "d": 109.92460937501164,
      "v": 54
    },
    {
      "midi": 62,
      "hit": false,
      "t": 208692.99257812518,
      "d": 565.3265625000058,
      "v": 103
    },
    {
      "midi": 69,
      "hit": false,
      "t": 208906.11171875006,
      "d": 96.46445312499418,
      "v": 57
    },
    {
      "midi": 81,
      "hit": false,
      "t": 208908.35507812473,
      "d": 982.5914062499942,
      "v": 85
    },
    {
      "midi": 78,
      "hit": false,
      "t": 208908.35507812473,
      "d": 1009.51171875,
      "v": 86
    },
    {
      "midi": 69,
      "hit": false,
      "t": 208908.35507812473,
      "d": 1022.9718749999884,
      "v": 84
    },
    {
      "midi": 93,
      "hit": false,
      "t": 208908.35507812502,
      "d": 399.3179687499942,
      "v": 102
    },
    {
      "midi": 62,
      "hit": false,
      "t": 209123.71757812507,
      "d": 159.27851562498836,
      "v": 59
    },
    {
      "midi": 64,
      "hit": false,
      "t": 209339.08007812506,
      "d": 89.734375,
      "v": 62
    },
    {
      "midi": 62,
      "hit": false,
      "t": 209339.08007812517,
      "d": 518.2160156249884,
      "v": 97
    },
    {
      "midi": 78,
      "hit": false,
      "t": 209345.81015624915,
      "d": 145.818359375,
      "v": 81
    },
    {
      "midi": 66,
      "hit": false,
      "t": 209554.44257812505,
      "d": 94.22109375000582,
      "v": 65
    },
    {
      "midi": 76,
      "hit": false,
      "t": 209563.41601562416,
      "d": 112.16796875,
      "v": 84
    },
    {
      "midi": 69,
      "hit": false,
      "t": 209769.80507812503,
      "d": 116.65468750000582,
      "v": 67
    },
    {
      "midi": 74,
      "hit": false,
      "t": 209772.04843749915,
      "d": 226.57929687498836,
      "v": 83
    },
    {
      "midi": 62,
      "hit": false,
      "t": 209985.16757812505,
      "d": 100.951171875,
      "v": 70
    },
    {
      "midi": 62,
      "hit": false,
      "t": 209985.16757812517,
      "d": 56.083984375,
      "v": 96
    },
    {
      "midi": 61,
      "hit": false,
      "t": 210187.06992187494,
      "d": 1110.462890625,
      "v": 95
    },
    {
      "midi": 61,
      "hit": false,
      "t": 210193.79999999833,
      "d": 1197.9539062499825,
      "v": 81
    },
    {
      "midi": 73,
      "hit": false,
      "t": 210193.79999999833,
      "d": 3405.419531249994,
      "v": 85
    },
    {
      "midi": 64,
      "hit": false,
      "t": 210196.04335937495,
      "d": 1081.2992187499767,
      "v": 101
    },
    {
      "midi": 54,
      "hit": false,
      "t": 210200.53007812332,
      "d": 1171.0335937500058,
      "v": 75
    },
    {
      "midi": 45,
      "hit": false,
      "t": 210200.53007812332,
      "d": 1188.98046875,
      "v": 88
    },
    {
      "midi": 57,
      "hit": false,
      "t": 210200.53007812332,
      "d": 1195.7105468749942,
      "v": 83
    },
    {
      "midi": 76,
      "hit": false,
      "t": 210200.53007812414,
      "d": 309.5835937499942,
      "v": 85
    },
    {
      "midi": 85,
      "hit": false,
      "t": 210200.530078125,
      "d": 204.14570312498836,
      "v": 96
    },
    {
      "midi": 61,
      "hit": false,
      "t": 210200.53007812504,
      "d": 107.68124999999418,
      "v": 69
    },
    {
      "midi": 61,
      "hit": false,
      "t": 210200.53007812516,
      "d": 116.65468750000582,
      "v": 103
    },
    {
      "midi": 69,
      "hit": false,
      "t": 210213.99023437494,
      "d": 1034.1886718749884,
      "v": 98
    },
    {
      "midi": 64,
      "hit": false,
      "t": 210415.89257812503,
      "d": 100.951171875,
      "v": 67
    },
    {
      "midi": 76,
      "hit": false,
      "t": 210631.25507812414,
      "d": 962.4011718750116,
      "v": 82
    },
    {
      "midi": 69,
      "hit": false,
      "t": 210631.25507812502,
      "d": 130.11484374999418,
      "v": 65
    },
    {
      "midi": 61,
      "hit": false,
      "t": 210846.617578125,
      "d": 125.62812499998836,
      "v": 62
    },
    {
      "midi": 78,
      "hit": false,
      "t": 211061.98007812473,
      "d": 347.720703125,
      "v": 85
    },
    {
      "midi": 73,
      "hit": false,
      "t": 211061.98007812473,
      "d": 390.34453125001164,
      "v": 82
    },
    {
      "midi": 81,
      "hit": false,
      "t": 211061.98007812473,
      "d": 390.34453125001164,
      "v": 86
    },
    {
      "midi": 93,
      "hit": false,
      "t": 211061.980078125,
      "d": 183.95546875000582,
      "v": 95
    },
    {
      "midi": 62,
      "hit": false,
      "t": 211061.980078125,
      "d": 148.06171874998836,
      "v": 60
    },
    {
      "midi": 64,
      "hit": false,
      "t": 211277.34257812498,
      "d": 118.89804687499418,
      "v": 57
    },
    {
      "midi": 69,
      "hit": false,
      "t": 211485.97499999995,
      "d": 1897.8820312499884,
      "v": 97
    },
    {
      "midi": 64,
      "hit": false,
      "t": 211488.21835937494,
      "d": 1915.8289062500116,
      "v": 100
    },
    {
      "midi": 52,
      "hit": false,
      "t": 211492.7050781233,
      "d": 1924.8023437499942,
      "v": 79
    },
    {
      "midi": 61,
      "hit": false,
      "t": 211492.7050781233,
      "d": 1958.4527343749942,
      "v": 76
    },
    {
      "midi": 57,
      "hit": false,
      "t": 211492.7050781233,
      "d": 1996.58984375,
      "v": 81
    },
    {
      "midi": 69,
      "hit": false,
      "t": 211492.70507812474,
      "d": 661.791015625,
      "v": 86
    },
    {
      "midi": 73,
      "hit": false,
      "t": 211492.70507812474,
      "d": 695.44140625,
      "v": 81
    },
    {
      "midi": 61,
      "hit": false,
      "t": 211492.70507812494,
      "d": 1915.8289062500116,
      "v": 102
    },
    {
      "midi": 69,
      "hit": false,
      "t": 211492.70507812497,
      "d": 116.65468750000582,
      "v": 55
    },
    {
      "midi": 85,
      "hit": false,
      "t": 211492.705078125,
      "d": 181.71210937498836,
      "v": 96
    },
    {
      "midi": 45,
      "hit": false,
      "t": 211494.9484374983,
      "d": 1965.1828125000175,
      "v": 88
    },
    {
      "midi": 61,
      "hit": false,
      "t": 211694.60742187517,
      "d": 98.70781250001164,
      "v": 95
    },
    {
      "midi": 61,
      "hit": false,
      "t": 211701.33749999997,
      "d": 121.14140625001164,
      "v": 52
    },
    {
      "midi": 61,
      "hit": false,
      "t": 211909.9699218752,
      "d": 143.57500000001164,
      "v": 100
    },
    {
      "midi": 76,
      "hit": false,
      "t": 211923.4300781242,
      "d": 296.1234375000058,
      "v": 84
    },
    {
      "midi": 61,
      "hit": false,
      "t": 211923.43007812498,
      "d": 121.14140625001164,
      "v": 50
    },
    {
      "midi": 64,
      "hit": false,
      "t": 212138.792578125,
      "d": 121.14140625001164,
      "v": 47
    },
    {
      "midi": 62,
      "hit": false,
      "t": 212138.7925781252,
      "d": 109.92460937501164,
      "v": 99
    },
    {
      "midi": 74,
      "hit": false,
      "t": 212354.1550781242,
      "d": 747.0386718750524,
      "v": 86
    },
    {
      "midi": 81,
      "hit": false,
      "t": 212354.15507812475,
      "d": 726.8484375000116,
      "v": 81
    },
    {
      "midi": 69,
      "hit": false,
      "t": 212354.15507812475,
      "d": 767.2289062500058,
      "v": 88
    },
    {
      "midi": 78,
      "hit": false,
      "t": 212354.15507812475,
      "d": 789.6625000000058,
      "v": 87
    },
    {
      "midi": 93,
      "hit": false,
      "t": 212354.15507812498,
      "d": 192.92890624998836,
      "v": 95
    },
    {
      "midi": 69,
      "hit": false,
      "t": 212354.155078125,
      "d": 87.49101562501164,
      "v": 45
    },
    {
      "midi": 61,
      "hit": false,
      "t": 212569.51757812503,
      "d": 139.08828125000582,
      "v": 42
    },
    {
      "midi": 62,
      "hit": false,
      "t": 212780.39335937522,
      "d": 91.97773437498836,
      "v": 101
    },
    {
      "midi": 62,
      "hit": false,
      "t": 212784.88007812502,
      "d": 125.62812499998836,
      "v": 40
    },
    {
      "midi": 62,
      "hit": false,
      "t": 212986.7824218752,
      "d": 150.30507812500582,
      "v": 95
    },
    {
      "midi": 64,
      "hit": false,
      "t": 213000.242578125,
      "d": 112.16796875,
      "v": 37
    },
    {
      "midi": 74,
      "hit": false,
      "t": 213215.60507812424,
      "d": 787.4191406250466,
      "v": 89
    },
    {
      "midi": 69,
      "hit": false,
      "t": 213215.60507812476,
      "d": 444.1851562499942,
      "v": 84
    },
    {
      "midi": 73,
      "hit": false,
      "t": 213215.60507812476,
      "d": 444.1851562499942,
      "v": 81
    },
    {
      "midi": 85,
      "hit": false,
      "t": 213215.60507812497,
      "d": 181.71210937498836,
      "v": 98
    },
    {
      "midi": 69,
      "hit": false,
      "t": 213215.605078125,
      "d": 91.97773437498836,
      "v": 35
    },
    {
      "midi": 61,
      "hit": false,
      "t": 213215.6050781252,
      "d": 152.54843749999418,
      "v": 104
    },
    {
      "midi": 61,
      "hit": false,
      "t": 213430.96757812498,
      "d": 83.00429687500582,
      "v": 32
    },
    {
      "midi": 62,
      "hit": false,
      "t": 213430.9675781252,
      "d": 103.19453124998836,
      "v": 100
    },
    {
      "midi": 57,
      "hit": false,
      "t": 213628.38320312495,
      "d": 702.1714843750233,
      "v": 96
    },
    {
      "midi": 93,
      "hit": false,
      "t": 213639.59999999916,
      "d": 3640.972265624994,
      "v": 86
    },
    {
      "midi": 88,
      "hit": false,
      "t": 213639.60000000015,
      "d": 5332.465234375006,
      "v": 47
    },
    {
      "midi": 66,
      "hit": false,
      "t": 213641.84335937494,
      "d": 684.2246093750291,
      "v": 99
    },
    {
      "midi": 54,
      "hit": false,
      "t": 213646.3300781233,
      "d": 3371.769140624994,
      "v": 82
    },
    {
      "midi": 62,
      "hit": false,
      "t": 213646.3300781233,
      "d": 3391.959375000006,
      "v": 83
    },
    {
      "midi": 38,
      "hit": false,
      "t": 213646.3300781233,
      "d": 3425.609765625006,
      "v": 87
    },
    {
      "midi": 86,
      "hit": false,
      "t": 213646.33007812494,
      "d": 722.3617187500058,
      "v": 102
    },
    {
      "midi": 62,
      "hit": false,
      "t": 213646.33007812497,
      "d": 136.84492187498836,
      "v": 30
    },
    {
      "midi": 62,
      "hit": false,
      "t": 213646.33007812517,
      "d": 91.97773437498836,
      "v": 97
    },
    {
      "midi": 57,
      "hit": false,
      "t": 213650.81679687332,
      "d": 3365.0390625,
      "v": 78
    },
    {
      "midi": 62,
      "hit": false,
      "t": 213650.81679687495,
      "d": 648.3308593750116,
      "v": 97
    },
    {
      "midi": 66,
      "hit": false,
      "t": 213861.69257812496,
      "d": 109.92460937501164,
      "v": 29
    },
    {
      "midi": 62,
      "hit": false,
      "t": 213861.69257812516,
      "d": 116.65468750000582,
      "v": 103
    },
    {
      "midi": 74,
      "hit": false,
      "t": 214063.5949218743,
      "d": 1837.3113281250116,
      "v": 85
    },
    {
      "midi": 69,
      "hit": false,
      "t": 214074.81171875,
      "d": 96.46445312499418,
      "v": 32
    },
    {
      "midi": 62,
      "hit": false,
      "t": 214292.417578125,
      "d": 159.27851562498836,
      "v": 35
    },
    {
      "midi": 62,
      "hit": false,
      "t": 214292.41757812517,
      "d": 67.30078125,
      "v": 99
    },
    {
      "midi": 81,
      "hit": false,
      "t": 214501.04999999976,
      "d": 432.9683593749942,
      "v": 83
    },
    {
      "midi": 74,
      "hit": false,
      "t": 214503.29335937474,
      "d": 410.5347656249942,
      "v": 81
    },
    {
      "midi": 78,
      "hit": false,
      "t": 214507.78007812475,
      "d": 403.8046875,
      "v": 82
    },
    {
      "midi": 93,
      "hit": false,
      "t": 214507.78007812495,
      "d": 332.0171874999942,
      "v": 101
    },
    {
      "midi": 64,
      "hit": false,
      "t": 214507.78007812498,
      "d": 89.734375,
      "v": 38
    },
    {
      "midi": 66,
      "hit": false,
      "t": 214723.14257812497,
      "d": 94.22109375000582,
      "v": 42
    },
    {
      "midi": 57,
      "hit": false,
      "t": 214916.07148437496,
      "d": 1947.235937499965,
      "v": 102
    },
    {
      "midi": 66,
      "hit": false,
      "t": 214922.80156249995,
      "d": 1927.0457031249825,
      "v": 99
    },
    {
      "midi": 69,
      "hit": false,
      "t": 214925.04492187474,
      "d": 787.4191406250175,
      "v": 86
    },
    {
      "midi": 62,
      "hit": false,
      "t": 214936.26171874994,
      "d": 1906.85546875,
      "v": 103
    },
    {
      "midi": 74,
      "hit": false,
      "t": 214938.50507812476,
      "d": 780.6890624999942,
      "v": 87
    },
    {
      "midi": 90,
      "hit": false,
      "t": 214938.50507812496,
      "d": 648.3308593750116,
      "v": 104
    },
    {
      "midi": 69,
      "hit": false,
      "t": 214938.50507812496,
      "d": 116.65468750000582,
      "v": 45
    },
    {
      "midi": 62,
      "hit": false,
      "t": 214938.50507812516,
      "d": 83.00429687500582,
      "v": 101
    },
    {
      "midi": 62,
      "hit": false,
      "t": 215153.86757812498,
      "d": 100.951171875,
      "v": 48
    },
    {
      "midi": 62,
      "hit": false,
      "t": 215369.23007812497,
      "d": 136.84492187498836,
      "v": 51
    },
    {
      "midi": 66,
      "hit": false,
      "t": 215584.59257812495,
      "d": 109.92460937501164,
      "v": 54
    },
    {
      "midi": 62,
      "hit": false,
      "t": 215584.59257812516,
      "d": 565.3265625000058,
      "v": 101
    },
    {
      "midi": 69,
      "hit": false,
      "t": 215797.71171874998,
      "d": 96.46445312499418,
      "v": 57
    },
    {
      "midi": 81,
      "hit": false,
      "t": 215799.95507812474,
      "d": 982.5914062499942,
      "v": 87
    },
    {
      "midi": 78,
      "hit": false,
      "t": 215799.95507812474,
      "d": 1009.51171875,
      "v": 85
    },
    {
      "midi": 69,
      "hit": false,
      "t": 215799.95507812474,
      "d": 1022.9718749999884,
      "v": 85
    },
    {
      "midi": 93,
      "hit": false,
      "t": 215799.95507812497,
      "d": 399.3179687499942,
      "v": 100
    },
    {
      "midi": 62,
      "hit": false,
      "t": 216015.317578125,
      "d": 159.27851562498836,
      "v": 60
    },
    {
      "midi": 64,
      "hit": false,
      "t": 216230.68007812498,
      "d": 89.734375,
      "v": 63
    },
    {
      "midi": 62,
      "hit": false,
      "t": 216230.68007812515,
      "d": 518.2160156249884,
      "v": 98
    },
    {
      "midi": 66,
      "hit": false,
      "t": 216446.04257812497,
      "d": 94.22109375000582,
      "v": 66
    },
    {
      "midi": 69,
      "hit": false,
      "t": 216661.40507812495,
      "d": 116.65468750000582,
      "v": 69
    },
    {
      "midi": 62,
      "hit": false,
      "t": 216876.76757812497,
      "d": 100.951171875,
      "v": 72
    },
    {
      "midi": 62,
      "hit": false,
      "t": 216876.76757812515,
      "d": 56.083984375,
      "v": 103
    },
    {
      "midi": 61,
      "hit": false,
      "t": 217074.18320312494,
      "d": 1175.5203124999825,
      "v": 103
    },
    {
      "midi": 66,
      "hit": false,
      "t": 217080.91328124993,
      "d": 1188.98046875,
      "v": 103
    },
    {
      "midi": 54,
      "hit": false,
      "t": 217085.3999999983,
      "d": 1669.0593749999825,
      "v": 77
    },
    {
      "midi": 57,
      "hit": false,
      "t": 217085.39999999994,
      "d": 1157.5734374999884,
      "v": 101
    },
    {
      "midi": 38,
      "hit": false,
      "t": 217092.1300781233,
      "d": 1615.21875,
      "v": 84
    },
    {
      "midi": 61,
      "hit": false,
      "t": 217092.1300781233,
      "d": 1655.5992187499942,
      "v": 77
    },
    {
      "midi": 50,
      "hit": false,
      "t": 217092.13007812473,
      "d": 1265.2546875000116,
      "v": 86
    },
    {
      "midi": 62,
      "hit": false,
      "t": 217092.13007812473,
      "d": 1265.2546875000116,
      "v": 80
    },
    {
      "midi": 57,
      "hit": false,
      "t": 217092.13007812473,
      "d": 2685.301171875035,
      "v": 87
    },
    {
      "midi": 85,
      "hit": false,
      "t": 217092.13007812496,
      "d": 204.14570312498836,
      "v": 101
    },
    {
      "midi": 61,
      "hit": false,
      "t": 217092.13007812496,
      "d": 107.68124999999418,
      "v": 65
    },
    {
      "midi": 61,
      "hit": false,
      "t": 217092.13007812513,
      "d": 116.65468750000582,
      "v": 98
    },
    {
      "midi": 54,
      "hit": false,
      "t": 217092.1300781254,
      "d": 1718.4132812499884,
      "v": 95
    },
    {
      "midi": 76,
      "hit": false,
      "t": 217307.4925781233,
      "d": 118.89804687499418,
      "v": 94
    },
    {
      "midi": 88,
      "hit": false,
      "t": 217307.49257812416,
      "d": 118.89804687499418,
      "v": 91
    },
    {
      "midi": 64,
      "hit": false,
      "t": 217307.49257812495,
      "d": 100.951171875,
      "v": 59
    },
    {
      "midi": 74,
      "hit": false,
      "t": 217509.3949218733,
      "d": 143.57500000001164,
      "v": 85
    },
    {
      "midi": 86,
      "hit": false,
      "t": 217509.39492187416,
      "d": 143.57500000001164,
      "v": 97
    },
    {
      "midi": 69,
      "hit": false,
      "t": 217522.85507812494,
      "d": 130.11484374999418,
      "v": 53
    },
    {
      "midi": 71,
      "hit": false,
      "t": 217738.2175781233,
      "d": 316.31367187498836,
      "v": 93
    },
    {
      "midi": 83,
      "hit": false,
      "t": 217738.21757812417,
      "d": 316.31367187498836,
      "v": 100
    },
    {
      "midi": 61,
      "hit": false,
      "t": 217738.21757812492,
      "d": 125.62812499998836,
      "v": 47
    },
    {
      "midi": 62,
      "hit": false,
      "t": 217953.5800781249,
      "d": 148.06171874998836,
      "v": 41
    },
    {
      "midi": 93,
      "hit": false,
      "t": 217953.58007812494,
      "d": 183.95546875000582,
      "v": 97
    },
    {
      "midi": 66,
      "hit": false,
      "t": 218155.48242187328,
      "d": 296.1234375000058,
      "v": 87
    },
    {
      "midi": 78,
      "hit": false,
      "t": 218155.48242187416,
      "d": 296.1234375000058,
      "v": 95
    },
    {
      "midi": 64,
      "hit": false,
      "t": 218168.9425781249,
      "d": 118.89804687499418,
      "v": 35
    },
    {
      "midi": 61,
      "hit": false,
      "t": 218361.87148437492,
      "d": 1911.3421874999767,
      "v": 96
    },
    {
      "midi": 66,
      "hit": false,
      "t": 218361.87148437492,
      "d": 1911.3421874999767,
      "v": 95
    },
    {
      "midi": 61,
      "hit": false,
      "t": 218384.30507812474,
      "d": 1265.2546875000116,
      "v": 89
    },
    {
      "midi": 49,
      "hit": false,
      "t": 218384.30507812474,
      "d": 1642.1390625000058,
      "v": 81
    },
    {
      "midi": 69,
      "hit": false,
      "t": 218384.3050781249,
      "d": 116.65468750000582,
      "v": 29
    },
    {
      "midi": 85,
      "hit": false,
      "t": 218384.30507812495,
      "d": 181.71210937498836,
      "v": 101
    },
    {
      "midi": 69,
      "hit": false,
      "t": 218386.5484374999,
      "d": 1953.9660156249884,
      "v": 100
    },
    {
      "midi": 69,
      "hit": false,
      "t": 218586.2074218733,
      "d": 1063.3523437499534,
      "v": 93
    },
    {
      "midi": 81,
      "hit": false,
      "t": 218586.20742187416,
      "d": 1063.3523437500116,
      "v": 92
    },
    {
      "midi": 61,
      "hit": false,
      "t": 218586.20742187515,
      "d": 98.70781250001164,
      "v": 101
    },
    {
      "midi": 61,
      "hit": false,
      "t": 218592.93749999988,
      "d": 121.14140625001164,
      "v": 24
    },
    {
      "midi": 64,
      "hit": false,
      "t": 218801.56992187328,
      "d": 881.6402343749651,
      "v": 78
    },
    {
      "midi": 61,
      "hit": false,
      "t": 218801.56992187517,
      "d": 143.57500000001164,
      "v": 100
    },
    {
      "midi": 52,
      "hit": false,
      "t": 218815.03007812327,
      "d": 798.6359374999884,
      "v": 75
    },
    {
      "midi": 45,
      "hit": false,
      "t": 218815.03007812327,
      "d": 816.5828124999825,
      "v": 89
    },
    {
      "midi": 57,
      "hit": false,
      "t": 218815.03007812327,
      "d": 834.5296874999767,
      "v": 80
    },
    {
      "midi": 61,
      "hit": false,
      "t": 218815.0300781249,
      "d": 121.14140625001164,
      "v": 21
    },
    {
      "midi": 57,
      "hit": false,
      "t": 218815.0300781254,
      "d": 1630.9222656250058,
      "v": 98
    },
    {
      "midi": 64,
      "hit": false,
      "t": 219030.3925781249,
      "d": 121.14140625001164,
      "v": 19
    },
    {
      "midi": 62,
      "hit": false,
      "t": 219030.39257812517,
      "d": 109.92460937501164,
      "v": 97
    },
    {
      "midi": 93,
      "hit": false,
      "t": 219245.75507812493,
      "d": 192.92890624998836,
      "v": 98
    },
    {
      "midi": 69,
      "hit": false,
      "t": 219245.75507812493,
      "d": 87.49101562501164,
      "v": 17
    },
    {
      "midi": 61,
      "hit": false,
      "t": 219461.11757812495,
      "d": 139.08828125000582,
      "v": 14
    },
    {
      "midi": 78,
      "hit": false,
      "t": 219663.01992187428,
      "d": 197.41562499999418,
      "v": 83
    },
    {
      "midi": 62,
      "hit": false,
      "t": 219671.9933593752,
      "d": 91.97773437498836,
      "v": 98
    },
    {
      "midi": 71,
      "hit": false,
      "t": 219676.48007812325,
      "d": 807.609375,
      "v": 89
    },
    {
      "midi": 57,
      "hit": false,
      "t": 219676.48007812325,
      "d": 821.0695312500175,
      "v": 81
    },
    {
      "midi": 55,
      "hit": false,
      "t": 219676.48007812325,
      "d": 861.4500000000116,
      "v": 82
    },
    {
      "midi": 83,
      "hit": false,
      "t": 219676.48007812418,
      "d": 807.609375,
      "v": 78
    },
    {
      "midi": 62,
      "hit": false,
      "t": 219676.48007812494,
      "d": 125.62812499998836,
      "v": 12
    },
    {
      "midi": 45,
      "hit": false,
      "t": 219678.72343749824,
      "d": 695.44140625,
      "v": 93
    },
    {
      "midi": 64,
      "hit": false,
      "t": 219685.45351562323,
      "d": 807.6093750000291,
      "v": 80
    },
    {
      "midi": 62,
      "hit": false,
      "t": 219878.38242187517,
      "d": 150.30507812500582,
      "v": 100
    },
    {
      "midi": 76,
      "hit": false,
      "t": 219891.84257812428,
      "d": 143.57500000001164,
      "v": 80
    },
    {
      "midi": 64,
      "hit": false,
      "t": 219891.84257812492,
      "d": 112.16796875,
      "v": 9
    },
    {
      "midi": 74,
      "hit": false,
      "t": 220102.7183593743,
      "d": 275.9332031249942,
      "v": 82
    },
    {
      "midi": 85,
      "hit": false,
      "t": 220107.2050781249,
      "d": 181.71210937498836,
      "v": 102
    },
    {
      "midi": 69,
      "hit": false,
      "t": 220107.2050781249,
      "d": 91.97773437498836,
      "v": 7
    },
    {
      "midi": 61,
      "hit": false,
      "t": 220107.20507812517,
      "d": 152.54843749999418,
      "v": 102
    },
    {
      "midi": 61,
      "hit": false,
      "t": 220322.5675781249,
      "d": 83.00429687500582,
      "v": 5
    },
    {
      "midi": 62,
      "hit": false,
      "t": 220322.56757812516,
      "d": 103.19453124998836,
      "v": 98
    },
    {
      "midi": 57,
      "hit": false,
      "t": 220519.9832031249,
      "d": 702.1714843749942,
      "v": 97
    },
    {
      "midi": 67,
      "hit": false,
      "t": 220519.9832031249,
      "d": 704.4148437499825,
      "v": 95
    },
    {
      "midi": 71,
      "hit": false,
      "t": 220531.19999999827,
      "d": 874.91015625,
      "v": 75
    },
    {
      "midi": 76,
      "hit": false,
      "t": 220531.19999999827,
      "d": 888.3703124999884,
      "v": 92
    },
    {
      "midi": 88,
      "hit": false,
      "t": 220531.19999999917,
      "d": 888.3703124999884,
      "v": 77
    },
    {
      "midi": 88,
      "hit": false,
      "t": 220531.20000000016,
      "d": 5332.465234375006,
      "v": 47
    },
    {
      "midi": 38,
      "hit": false,
      "t": 220535.68671874827,
      "d": 3396.4460937499825,
      "v": 90
    },
    {
      "midi": 55,
      "hit": false,
      "t": 220537.93007812326,
      "d": 845.7464843750058,
      "v": 75
    },
    {
      "midi": 86,
      "hit": false,
      "t": 220537.9300781249,
      "d": 722.3617187500058,
      "v": 102
    },
    {
      "midi": 62,
      "hit": false,
      "t": 220537.9300781249,
      "d": 136.84492187498836,
      "v": 9
    },
    {
      "midi": 62,
      "hit": false,
      "t": 220537.93007812515,
      "d": 91.97773437498836,
      "v": 101
    },
    {
      "midi": 54,
      "hit": false,
      "t": 220537.93007812538,
      "d": 3178.840234375006,
      "v": 95
    },
    {
      "midi": 76,
      "hit": false,
      "t": 220540.1734374993,
      "d": 354.4507812499942,
      "v": 84
    },
    {
      "midi": 62,
      "hit": false,
      "t": 220542.4167968749,
      "d": 646.0874999999942,
      "v": 97
    },
    {
      "midi": 66,
      "hit": false,
      "t": 220753.29257812488,
      "d": 109.92460937501164,
      "v": 14
    },
    {
      "midi": 62,
      "hit": false,
      "t": 220753.29257812514,
      "d": 116.65468750000582,
      "v": 104
    },
    {
      "midi": 69,
      "hit": false,
      "t": 220966.4117187499,
      "d": 96.46445312499418,
      "v": 18
    },
    {
      "midi": 76,
      "hit": false,
      "t": 220973.1417968743,
      "d": 964.64453125,
      "v": 84
    },
    {
      "midi": 62,
      "hit": false,
      "t": 221184.0175781249,
      "d": 159.27851562498836,
      "v": 23
    },
    {
      "midi": 62,
      "hit": false,
      "t": 221184.01757812515,
      "d": 67.30078125,
      "v": 101
    },
    {
      "midi": 69,
      "hit": false,
      "t": 221385.91992187325,
      "d": 910.8039062500175,
      "v": 76
    },
    {
      "midi": 81,
      "hit": false,
      "t": 221392.64999999976,
      "d": 432.9683593749942,
      "v": 85
    },
    {
      "midi": 74,
      "hit": false,
      "t": 221394.89335937327,
      "d": 861.4500000000116,
      "v": 89
    },
    {
      "midi": 86,
      "hit": false,
      "t": 221394.89335937417,
      "d": 861.4499999999825,
      "v": 80
    },
    {
      "midi": 74,
      "hit": false,
      "t": 221394.89335937475,
      "d": 410.5347656249942,
      "v": 86
    },
    {
      "midi": 54,
      "hit": false,
      "t": 221399.38007812327,
      "d": 2431.8015624999825,
      "v": 77
    },
    {
      "midi": 78,
      "hit": false,
      "t": 221399.38007812476,
      "d": 403.8046875,
      "v": 85
    },
    {
      "midi": 93,
      "hit": false,
      "t": 221399.3800781249,
      "d": 332.0171874999942,
      "v": 98
    },
    {
      "midi": 64,
      "hit": false,
      "t": 221399.3800781249,
      "d": 89.734375,
      "v": 28
    },
    {
      "midi": 66,
      "hit": false,
      "t": 221614.7425781249,
      "d": 94.22109375000582,
      "v": 32
    },
    {
      "midi": 69,
      "hit": false,
      "t": 221816.64492187474,
      "d": 787.4191406250175,
      "v": 88
    },
    {
      "midi": 57,
      "hit": false,
      "t": 221816.6449218749,
      "d": 1927.0457031249825,
      "v": 95
    },
    {
      "midi": 62,
      "hit": false,
      "t": 221818.88828124988,
      "d": 1915.8289062500116,
      "v": 95
    },
    {
      "midi": 74,
      "hit": false,
      "t": 221830.10507812476,
      "d": 780.6890624999942,
      "v": 87
    },
    {
      "midi": 66,
      "hit": false,
      "t": 221830.10507812488,
      "d": 1906.85546875,
      "v": 100
    },
    {
      "midi": 69,
      "hit": false,
      "t": 221830.10507812488,
      "d": 116.65468750000582,
      "v": 37
    },
    {
      "midi": 90,
      "hit": false,
      "t": 221830.1050781249,
      "d": 648.3308593750116,
      "v": 97
    },
    {
      "midi": 62,
      "hit": false,
      "t": 221830.10507812514,
      "d": 83.00429687500582,
      "v": 97
    },
    {
      "midi": 62,
      "hit": false,
      "t": 222045.4675781249,
      "d": 100.951171875,
      "v": 41
    },
    {
      "midi": 66,
      "hit": false,
      "t": 222247.36992187327,
      "d": 924.2640624999767,
      "v": 76
    },
    {
      "midi": 71,
      "hit": false,
      "t": 222256.34335937328,
      "d": 868.1800781249767,
      "v": 92
    },
    {
      "midi": 83,
      "hit": false,
      "t": 222256.34335937415,
      "d": 868.1800781249767,
      "v": 85
    },
    {
      "midi": 62,
      "hit": false,
      "t": 222260.83007812488,
      "d": 136.84492187498836,
      "v": 46
    },
    {
      "midi": 66,
      "hit": false,
      "t": 222476.19257812487,
      "d": 109.92460937501164,
      "v": 51
    },
    {
      "midi": 62,
      "hit": false,
      "t": 222476.19257812513,
      "d": 565.3265625000058,
      "v": 96
    },
    {
      "midi": 69,
      "hit": false,
      "t": 222689.3117187499,
      "d": 96.46445312499418,
      "v": 53
    },
    {
      "midi": 81,
      "hit": false,
      "t": 222691.55507812474,
      "d": 982.5914062499942,
      "v": 81
    },
    {
      "midi": 78,
      "hit": false,
      "t": 222691.55507812474,
      "d": 1009.51171875,
      "v": 82
    },
    {
      "midi": 69,
      "hit": false,
      "t": 222691.55507812474,
      "d": 1022.9718749999884,
      "v": 82
    },
    {
      "midi": 93,
      "hit": false,
      "t": 222691.55507812492,
      "d": 399.3179687499942,
      "v": 98
    },
    {
      "midi": 62,
      "hit": false,
      "t": 222906.9175781249,
      "d": 159.27851562498836,
      "v": 56
    },
    {
      "midi": 64,
      "hit": false,
      "t": 223122.28007812327,
      "d": 715.6316406249825,
      "v": 78
    },
    {
      "midi": 69,
      "hit": false,
      "t": 223122.28007812327,
      "d": 821.0695312499884,
      "v": 87
    },
    {
      "midi": 81,
      "hit": false,
      "t": 223122.28007812414,
      "d": 821.0695312499884,
      "v": 76
    },
    {
      "midi": 78,
      "hit": false,
      "t": 223122.28007812428,
      "d": 195.17226562500582,
      "v": 86
    },
    {
      "midi": 64,
      "hit": false,
      "t": 223122.2800781249,
      "d": 89.734375,
      "v": 58
    },
    {
      "midi": 62,
      "hit": false,
      "t": 223122.28007812513,
      "d": 518.2160156249884,
      "v": 100
    },
    {
      "midi": 66,
      "hit": false,
      "t": 223337.64257812488,
      "d": 94.22109375000582,
      "v": 61
    },
    {
      "midi": 78,
      "hit": false,
      "t": 223409.43007812428,
      "d": 240.03945312500582,
      "v": 81
    },
    {
      "midi": 69,
      "hit": false,
      "t": 223553.00507812487,
      "d": 116.65468750000582,
      "v": 63
    },
    {
      "midi": 81,
      "hit": false,
      "t": 223696.58007812427,
      "d": 484.56562499995925,
      "v": 83
    },
    {
      "midi": 62,
      "hit": false,
      "t": 223768.3675781249,
      "d": 100.951171875,
      "v": 66
    },
    {
      "midi": 62,
      "hit": false,
      "t": 223768.36757812512,
      "d": 56.083984375,
      "v": 100
    },
    {
      "midi": 61,
      "hit": false,
      "t": 223963.53984374987,
      "d": 1128.409765624965,
      "v": 101
    },
    {
      "midi": 69,
      "hit": false,
      "t": 223976.99999999985,
      "d": 1070.0824218749767,
      "v": 99
    },
    {
      "midi": 64,
      "hit": false,
      "t": 223979.24335937484,
      "d": 1081.2992187499767,
      "v": 102
    },
    {
      "midi": 76,
      "hit": false,
      "t": 223981.48671874826,
      "d": 944.4542968749884,
      "v": 85
    },
    {
      "midi": 88,
      "hit": false,
      "t": 223981.48671874913,
      "d": 944.4542968749884,
      "v": 77
    },
    {
      "midi": 66,
      "hit": false,
      "t": 223983.73007812325,
      "d": 834.5296875000058,
      "v": 84
    },
    {
      "midi": 54,
      "hit": false,
      "t": 223983.73007812325,
      "d": 3299.9816406249884,
      "v": 79
    },
    {
      "midi": 57,
      "hit": false,
      "t": 223983.73007812325,
      "d": 3299.9816406249884,
      "v": 77
    },
    {
      "midi": 45,
      "hit": false,
      "t": 223983.73007812325,
      "d": 3322.4152343749884,
      "v": 97
    },
    {
      "midi": 61,
      "hit": false,
      "t": 223983.73007812488,
      "d": 107.68124999999418,
      "v": 66
    },
    {
      "midi": 85,
      "hit": false,
      "t": 223983.7300781249,
      "d": 204.14570312498836,
      "v": 104
    },
    {
      "midi": 61,
      "hit": false,
      "t": 223983.7300781251,
      "d": 116.65468750000582,
      "v": 97
    },
    {
      "midi": 54,
      "hit": false,
      "t": 223983.7300781254,
      "d": 3118.26953125,
      "v": 97
    },
    {
      "midi": 64,
      "hit": false,
      "t": 224199.09257812487,
      "d": 100.951171875,
      "v": 64
    },
    {
      "midi": 77,
      "hit": false,
      "t": 224409.96835937424,
      "d": 563.0832031249884,
      "v": 82
    },
    {
      "midi": 69,
      "hit": false,
      "t": 224414.45507812485,
      "d": 130.11484374999418,
      "v": 62
    },
    {
      "midi": 61,
      "hit": false,
      "t": 224629.81757812484,
      "d": 125.62812499998836,
      "v": 59
    },
    {
      "midi": 74,
      "hit": false,
      "t": 224845.18007812326,
      "d": 870.4234374999942,
      "v": 86
    },
    {
      "midi": 66,
      "hit": false,
      "t": 224845.18007812326,
      "d": 874.91015625,
      "v": 77
    },
    {
      "midi": 86,
      "hit": false,
      "t": 224845.18007812413,
      "d": 870.4234374999942,
      "v": 77
    },
    {
      "midi": 78,
      "hit": false,
      "t": 224845.18007812474,
      "d": 347.720703125,
      "v": 83
    },
    {
      "midi": 73,
      "hit": false,
      "t": 224845.18007812474,
      "d": 390.34453125001164,
      "v": 82
    },
    {
      "midi": 81,
      "hit": false,
      "t": 224845.18007812474,
      "d": 390.34453125001164,
      "v": 83
    },
    {
      "midi": 62,
      "hit": false,
      "t": 224845.18007812483,
      "d": 148.06171874998836,
      "v": 57
    },
    {
      "midi": 93,
      "hit": false,
      "t": 224845.1800781249,
      "d": 183.95546875000582,
      "v": 98
    },
    {
      "midi": 76,
      "hit": false,
      "t": 225060.54257812424,
      "d": 327.53046874998836,
      "v": 84
    },
    {
      "midi": 64,
      "hit": false,
      "t": 225060.54257812482,
      "d": 118.89804687499418,
      "v": 55
    },
    {
      "midi": 64,
      "hit": false,
      "t": 225257.95820312484,
      "d": 1936.0191406249942,
      "v": 102
    },
    {
      "midi": 61,
      "hit": false,
      "t": 225257.95820312484,
      "d": 1942.7492187499884,
      "v": 104
    },
    {
      "midi": 69,
      "hit": false,
      "t": 225269.17499999984,
      "d": 1897.8820312499884,
      "v": 98
    },
    {
      "midi": 69,
      "hit": false,
      "t": 225275.90507812475,
      "d": 661.791015625,
      "v": 89
    },
    {
      "midi": 73,
      "hit": false,
      "t": 225275.90507812475,
      "d": 695.44140625,
      "v": 82
    },
    {
      "midi": 69,
      "hit": false,
      "t": 225275.9050781248,
      "d": 116.65468750000582,
      "v": 53
    },
    {
      "midi": 85,
      "hit": false,
      "t": 225275.9050781249,
      "d": 181.71210937498836,
      "v": 102
    },
    {
      "midi": 61,
      "hit": false,
      "t": 225477.80742187513,
      "d": 98.70781250001164,
      "v": 104
    },
    {
      "midi": 61,
      "hit": false,
      "t": 225484.5374999998,
      "d": 121.14140625001164,
      "v": 51
    },
    {
      "midi": 76,
      "hit": false,
      "t": 225531.64804687424,
      "d": 145.818359375,
      "v": 84
    },
    {
      "midi": 71,
      "hit": false,
      "t": 225693.16992187325,
      "d": 877.1535156249884,
      "v": 91
    },
    {
      "midi": 83,
      "hit": false,
      "t": 225693.16992187413,
      "d": 877.1535156249884,
      "v": 76
    },
    {
      "midi": 61,
      "hit": false,
      "t": 225693.16992187515,
      "d": 143.57500000001164,
      "v": 103
    },
    {
      "midi": 64,
      "hit": false,
      "t": 225704.38671874825,
      "d": 861.4500000000116,
      "v": 79
    },
    {
      "midi": 61,
      "hit": false,
      "t": 225706.6300781248,
      "d": 121.14140625001164,
      "v": 49
    },
    {
      "midi": 71,
      "hit": false,
      "t": 225921.99257812425,
      "d": 621.4105468750058,
      "v": 87
    },
    {
      "midi": 64,
      "hit": false,
      "t": 225921.99257812483,
      "d": 121.14140625001164,
      "v": 47
    },
    {
      "midi": 62,
      "hit": false,
      "t": 225921.99257812515,
      "d": 109.92460937501164,
      "v": 101
    },
    {
      "midi": 81,
      "hit": false,
      "t": 226137.35507812476,
      "d": 726.8484375000116,
      "v": 87
    },
    {
      "midi": 69,
      "hit": false,
      "t": 226137.35507812476,
      "d": 767.2289062500058,
      "v": 86
    },
    {
      "midi": 78,
      "hit": false,
      "t": 226137.35507812476,
      "d": 789.6625000000058,
      "v": 83
    },
    {
      "midi": 69,
      "hit": false,
      "t": 226137.35507812485,
      "d": 87.49101562501164,
      "v": 45
    },
    {
      "midi": 93,
      "hit": false,
      "t": 226137.35507812488,
      "d": 192.92890624998836,
      "v": 101
    },
    {
      "midi": 61,
      "hit": false,
      "t": 226352.71757812487,
      "d": 139.08828125000582,
      "v": 43
    },
    {
      "midi": 62,
      "hit": false,
      "t": 226563.59335937517,
      "d": 91.97773437498836,
      "v": 99
    },
    {
      "midi": 69,
      "hit": false,
      "t": 226568.08007812325,
      "d": 796.3925781249709,
      "v": 92
    },
    {
      "midi": 64,
      "hit": false,
      "t": 226568.08007812325,
      "d": 874.9101562499418,
      "v": 77
    },
    {
      "midi": 81,
      "hit": false,
      "t": 226568.08007812413,
      "d": 796.392578125,
      "v": 80
    },
    {
      "midi": 62,
      "hit": false,
      "t": 226568.08007812485,
      "d": 125.62812499998836,
      "v": 40
    },
    {
      "midi": 62,
      "hit": false,
      "t": 226769.98242187515,
      "d": 150.30507812500582,
      "v": 96
    },
    {
      "midi": 64,
      "hit": false,
      "t": 226783.44257812484,
      "d": 112.16796875,
      "v": 38
    },
    {
      "midi": 69,
      "hit": false,
      "t": 226998.80507812422,
      "d": 168.251953125,
      "v": 88
    },
    {
      "midi": 69,
      "hit": false,
      "t": 226998.80507812477,
      "d": 444.1851562499942,
      "v": 85
    },
    {
      "midi": 73,
      "hit": false,
      "t": 226998.80507812477,
      "d": 444.1851562499942,
      "v": 85
    },
    {
      "midi": 69,
      "hit": false,
      "t": 226998.80507812483,
      "d": 91.97773437498836,
      "v": 36
    },
    {
      "midi": 85,
      "hit": false,
      "t": 226998.80507812486,
      "d": 181.71210937498836,
      "v": 103
    },
    {
      "midi": 61,
      "hit": false,
      "t": 226998.80507812515,
      "d": 152.54843749999418,
      "v": 95
    },
    {
      "midi": 76,
      "hit": false,
      "t": 227214.1675781242,
      "d": 659.5476562500407,
      "v": 89
    },
    {
      "midi": 61,
      "hit": false,
      "t": 227214.16757812482,
      "d": 83.00429687500582,
      "v": 34
    },
    {
      "midi": 62,
      "hit": false,
      "t": 227214.16757812514,
      "d": 103.19453124998836,
      "v": 101
    },
    {
      "midi": 43,
      "hit": false,
      "t": 227422.7999999982,
      "d": 3441.3132812499534,
      "v": 87
    },
    {
      "midi": 83,
      "hit": false,
      "t": 227422.7999999982,
      "d": 3566.941406249942,
      "v": 71
    },
    {
      "midi": 91,
      "hit": false,
      "t": 227422.79999999912,
      "d": 6676.237499999523,
      "v": 84
    },
    {
      "midi": 62,
      "hit": false,
      "t": 227422.79999999984,
      "d": 1175.5203125000116,
      "v": 100
    },
    {
      "midi": 88,
      "hit": false,
      "t": 227422.80000000016,
      "d": 5332.465234375006,
      "v": 49
    },
    {
      "midi": 59,
      "hit": false,
      "t": 227429.5300781232,
      "d": 3452.5300781249534,
      "v": 81
    },
    {
      "midi": 62,
      "hit": false,
      "t": 227429.5300781232,
      "d": 6799.62226562493,
      "v": 78
    },
    {
      "midi": 55,
      "hit": false,
      "t": 227429.5300781232,
      "d": 6810.83906249993,
      "v": 81
    },
    {
      "midi": 86,
      "hit": false,
      "t": 227429.5300781241,
      "d": 6718.861328124505,
      "v": 88
    },
    {
      "midi": 62,
      "hit": false,
      "t": 227429.5300781248,
      "d": 136.84492187498836,
      "v": 32
    },
    {
      "midi": 86,
      "hit": false,
      "t": 227429.53007812484,
      "d": 722.3617187500058,
      "v": 99
    },
    {
      "midi": 62,
      "hit": false,
      "t": 227429.53007812513,
      "d": 91.97773437498836,
      "v": 98
    },
    {
      "midi": 59,
      "hit": false,
      "t": 227429.5300781254,
      "d": 3208.00390625,
      "v": 97
    },
    {
      "midi": 59,
      "hit": false,
      "t": 227434.01679687484,
      "d": 1148.6000000000058,
      "v": 98
    },
    {
      "midi": 67,
      "hit": false,
      "t": 227434.01679687484,
      "d": 1148.6000000000058,
      "v": 104
    },
    {
      "midi": 66,
      "hit": false,
      "t": 227644.8925781248,
      "d": 109.92460937501164,
      "v": 34
    },
    {
      "midi": 62,
      "hit": false,
      "t": 227644.89257812512,
      "d": 116.65468750000582,
      "v": 99
    },
    {
      "midi": 69,
      "hit": false,
      "t": 227858.01171874983,
      "d": 96.46445312499418,
      "v": 37
    },
    {
      "midi": 71,
      "hit": false,
      "t": 227860.25507812496,
      "d": 141.33164062499418,
      "v": 79
    },
    {
      "midi": 64,
      "hit": false,
      "t": 227860.25507812496,
      "d": 161.52187500000582,
      "v": 71
    },
    {
      "midi": 62,
      "hit": false,
      "t": 227860.25507812496,
      "d": 174.98203124999418,
      "v": 77
    },
    {
      "midi": 74,
      "hit": false,
      "t": 227869.22851562424,
      "d": 4630.293749999633,
      "v": 88
    },
    {
      "midi": 57,
      "hit": false,
      "t": 227871.47187499996,
      "d": 161.52187500000582,
      "v": 78
    },
    {
      "midi": 62,
      "hit": false,
      "t": 228075.61757812483,
      "d": 159.27851562498836,
      "v": 39
    },
    {
      "midi": 64,
      "hit": false,
      "t": 228075.61757812495,
      "d": 174.98203124999418,
      "v": 51
    },
    {
      "midi": 71,
      "hit": false,
      "t": 228075.61757812495,
      "d": 174.98203124999418,
      "v": 51
    },
    {
      "midi": 62,
      "hit": false,
      "t": 228075.61757812495,
      "d": 188.44218749998254,
      "v": 51
    },
    {
      "midi": 62,
      "hit": false,
      "t": 228075.61757812512,
      "d": 67.30078125,
      "v": 98
    },
    {
      "midi": 57,
      "hit": false,
      "t": 228086.83437499995,
      "d": 148.06171874998836,
      "v": 51
    },
    {
      "midi": 81,
      "hit": false,
      "t": 228284.24999999977,
      "d": 432.9683593749942,
      "v": 83
    },
    {
      "midi": 74,
      "hit": false,
      "t": 228286.49335937476,
      "d": 410.5347656249942,
      "v": 81
    },
    {
      "midi": 78,
      "hit": false,
      "t": 228290.98007812476,
      "d": 403.8046875,
      "v": 85
    },
    {
      "midi": 64,
      "hit": false,
      "t": 228290.98007812482,
      "d": 89.734375,
      "v": 41
    },
    {
      "midi": 93,
      "hit": false,
      "t": 228290.98007812485,
      "d": 332.0171874999942,
      "v": 98
    },
    {
      "midi": 64,
      "hit": false,
      "t": 228290.98007812494,
      "d": 172.73867187500582,
      "v": 72
    },
    {
      "midi": 62,
      "hit": false,
      "t": 228290.98007812494,
      "d": 181.71210937501746,
      "v": 70
    },
    {
      "midi": 71,
      "hit": false,
      "t": 228290.98007812494,
      "d": 217.60585937500582,
      "v": 76
    },
    {
      "midi": 57,
      "hit": false,
      "t": 228299.95351562495,
      "d": 150.30507812500582,
      "v": 77
    },
    {
      "midi": 66,
      "hit": false,
      "t": 228506.3425781248,
      "d": 94.22109375000582,
      "v": 43
    },
    {
      "midi": 67,
      "hit": false,
      "t": 228703.75820312486,
      "d": 1967.4261718750058,
      "v": 95
    },
    {
      "midi": 59,
      "hit": false,
      "t": 228703.75820312486,
      "d": 1992.1031249999942,
      "v": 103
    },
    {
      "midi": 69,
      "hit": false,
      "t": 228708.24492187475,
      "d": 787.4191406250175,
      "v": 81
    },
    {
      "midi": 74,
      "hit": false,
      "t": 228721.70507812477,
      "d": 780.6890624999942,
      "v": 82
    },
    {
      "midi": 69,
      "hit": false,
      "t": 228721.7050781248,
      "d": 116.65468750000582,
      "v": 46
    },
    {
      "midi": 90,
      "hit": false,
      "t": 228721.70507812485,
      "d": 648.3308593750116,
      "v": 96
    },
    {
      "midi": 62,
      "hit": false,
      "t": 228721.70507812494,
      "d": 161.52187500000582,
      "v": 72
    },
    {
      "midi": 64,
      "hit": false,
      "t": 228721.70507812494,
      "d": 161.52187500000582,
      "v": 78
    },
    {
      "midi": 71,
      "hit": false,
      "t": 228721.70507812494,
      "d": 215.36250000001746,
      "v": 77
    },
    {
      "midi": 62,
      "hit": false,
      "t": 228721.70507812512,
      "d": 83.00429687500582,
      "v": 96
    },
    {
      "midi": 62,
      "hit": false,
      "t": 228726.19179687486,
      "d": 1944.9925781250058,
      "v": 103
    },
    {
      "midi": 57,
      "hit": false,
      "t": 228730.67851562495,
      "d": 148.06171874998836,
      "v": 72
    },
    {
      "midi": 62,
      "hit": false,
      "t": 228937.0675781248,
      "d": 100.951171875,
      "v": 48
    },
    {
      "midi": 71,
      "hit": false,
      "t": 228937.06757812496,
      "d": 174.98203125002328,
      "v": 51
    },
    {
      "midi": 64,
      "hit": false,
      "t": 228937.06757812496,
      "d": 188.44218750004075,
      "v": 51
    },
    {
      "midi": 57,
      "hit": false,
      "t": 228946.04101562497,
      "d": 174.98203125002328,
      "v": 47
    },
    {
      "midi": 62,
      "hit": false,
      "t": 229152.4300781248,
      "d": 136.84492187498836,
      "v": 50
    },
    {
      "midi": 62,
      "hit": false,
      "t": 229152.430078125,
      "d": 174.98203124999418,
      "v": 70
    },
    {
      "midi": 64,
      "hit": false,
      "t": 229152.430078125,
      "d": 201.90234375,
      "v": 79
    },
    {
      "midi": 71,
      "hit": false,
      "t": 229152.430078125,
      "d": 201.90234375,
      "v": 78
    },
    {
      "midi": 57,
      "hit": false,
      "t": 229156.916796875,
      "d": 201.90234375,
      "v": 72
    },
    {
      "midi": 62,
      "hit": false,
      "t": 229365.54921875,
      "d": 26.92031250000582,
      "v": 76
    },
    {
      "midi": 66,
      "hit": false,
      "t": 229367.7925781248,
      "d": 109.92460937501164,
      "v": 53
    },
    {
      "midi": 64,
      "hit": false,
      "t": 229367.792578125,
      "d": 40.38046875002328,
      "v": 79
    },
    {
      "midi": 71,
      "hit": false,
      "t": 229367.792578125,
      "d": 40.38046875002328,
      "v": 76
    },
    {
      "midi": 62,
      "hit": false,
      "t": 229367.7925781251,
      "d": 565.3265625000058,
      "v": 102
    },
    {
      "midi": 57,
      "hit": false,
      "t": 229376.766015625,
      "d": 53.84062500001164,
      "v": 78
    },
    {
      "midi": 62,
      "hit": false,
      "t": 229569.69492187502,
      "d": 228.82265625000582,
      "v": 76
    },
    {
      "midi": 69,
      "hit": false,
      "t": 229580.91171874982,
      "d": 96.46445312499418,
      "v": 55
    },
    {
      "midi": 81,
      "hit": false,
      "t": 229583.15507812475,
      "d": 982.5914062499942,
      "v": 82
    },
    {
      "midi": 78,
      "hit": false,
      "t": 229583.15507812475,
      "d": 1009.51171875,
      "v": 82
    },
    {
      "midi": 69,
      "hit": false,
      "t": 229583.15507812475,
      "d": 1022.9718749999884,
      "v": 86
    },
    {
      "midi": 93,
      "hit": false,
      "t": 229583.15507812487,
      "d": 399.3179687499942,
      "v": 104
    },
    {
      "midi": 64,
      "hit": false,
      "t": 229583.155078125,
      "d": 174.98203125002328,
      "v": 73
    },
    {
      "midi": 71,
      "hit": false,
      "t": 229583.155078125,
      "d": 188.44218750001164,
      "v": 79
    },
    {
      "midi": 57,
      "hit": false,
      "t": 229592.12851562502,
      "d": 161.52187500000582,
      "v": 76
    },
    {
      "midi": 62,
      "hit": false,
      "t": 229798.51757812483,
      "d": 159.27851562498836,
      "v": 57
    },
    {
      "midi": 64,
      "hit": false,
      "t": 229798.51757812503,
      "d": 53.84062500001164,
      "v": 74
    },
    {
      "midi": 71,
      "hit": false,
      "t": 229798.51757812503,
      "d": 53.84062500001164,
      "v": 72
    },
    {
      "midi": 62,
      "hit": false,
      "t": 229798.51757812503,
      "d": 67.30078125,
      "v": 78
    },
    {
      "midi": 57,
      "hit": false,
      "t": 229809.73437500003,
      "d": 53.84062500001164,
      "v": 73
    },
    {
      "midi": 64,
      "hit": false,
      "t": 230013.8800781248,
      "d": 89.734375,
      "v": 60
    },
    {
      "midi": 62,
      "hit": false,
      "t": 230013.8800781251,
      "d": 518.2160156249884,
      "v": 104
    },
    {
      "midi": 66,
      "hit": false,
      "t": 230229.2425781248,
      "d": 94.22109375000582,
      "v": 62
    },
    {
      "midi": 62,
      "hit": false,
      "t": 230229.24257812503,
      "d": 320.8003906249942,
      "v": 74
    },
    {
      "midi": 69,
      "hit": false,
      "t": 230229.24257812503,
      "d": 410.5347656249942,
      "v": 73
    },
    {
      "midi": 57,
      "hit": false,
      "t": 230238.21601562505,
      "d": 215.36249999998836,
      "v": 72
    },
    {
      "midi": 69,
      "hit": false,
      "t": 230444.6050781248,
      "d": 116.65468750000582,
      "v": 64
    },
    {
      "midi": 62,
      "hit": false,
      "t": 230659.9675781248,
      "d": 100.951171875,
      "v": 62
    },
    {
      "midi": 62,
      "hit": false,
      "t": 230659.9675781251,
      "d": 56.083984375,
      "v": 100
    },
    {
      "midi": 82,
      "hit": false,
      "t": 230792.3257812482,
      "d": 3418.8796874999534,
      "v": 75
    },
    {
      "midi": 58,
      "hit": false,
      "t": 230861.86992187318,
      "d": 3432.339843749971,
      "v": 82
    },
    {
      "midi": 43,
      "hit": false,
      "t": 230866.35664062315,
      "d": 3400.9328124999884,
      "v": 91
    },
    {
      "midi": 67,
      "hit": false,
      "t": 230868.59999999986,
      "d": 1168.7902343750175,
      "v": 97
    },
    {
      "midi": 64,
      "hit": false,
      "t": 230868.6000000001,
      "d": 343.2339843749942,
      "v": 99
    },
    {
      "midi": 61,
      "hit": false,
      "t": 230875.3300781248,
      "d": 107.68124999999418,
      "v": 59
    },
    {
      "midi": 86,
      "hit": false,
      "t": 230875.33007812485,
      "d": 204.14570312498836,
      "v": 96
    },
    {
      "midi": 58,
      "hit": false,
      "t": 230875.33007812538,
      "d": 3219.220703125,
      "v": 95
    },
    {
      "midi": 81,
      "hit": false,
      "t": 230877.57343749973,
      "d": 749.2820312500116,
      "v": 87
    },
    {
      "midi": 77,
      "hit": false,
      "t": 230877.57343749973,
      "d": 756.0121093750058,
      "v": 82
    },
    {
      "midi": 62,
      "hit": false,
      "t": 230879.81679687486,
      "d": 1162.0601562500233,
      "v": 95
    },
    {
      "midi": 58,
      "hit": false,
      "t": 230888.79023437487,
      "d": 1159.8167968750058,
      "v": 100
    },
    {
      "midi": 64,
      "hit": false,
      "t": 231090.69257812478,
      "d": 100.951171875,
      "v": 55
    },
    {
      "midi": 69,
      "hit": false,
      "t": 231306.05507812477,
      "d": 130.11484374999418,
      "v": 51
    },
    {
      "midi": 61,
      "hit": false,
      "t": 231521.41757812476,
      "d": 125.62812499998836,
      "v": 48
    },
    {
      "midi": 64,
      "hit": false,
      "t": 231723.31992187508,
      "d": 157.03515625,
      "v": 100
    },
    {
      "midi": 67,
      "hit": false,
      "t": 231725.56328125004,
      "d": 374.6410156250058,
      "v": 84
    },
    {
      "midi": 62,
      "hit": false,
      "t": 231736.78007812475,
      "d": 148.06171874998836,
      "v": 44
    },
    {
      "midi": 93,
      "hit": false,
      "t": 231736.78007812484,
      "d": 183.95546875000582,
      "v": 103
    },
    {
      "midi": 64,
      "hit": false,
      "t": 231736.78007812504,
      "d": 278.17656250001164,
      "v": 81
    },
    {
      "midi": 77,
      "hit": false,
      "t": 231739.02343749974,
      "d": 170.49531249998836,
      "v": 89
    },
    {
      "midi": 81,
      "hit": false,
      "t": 231750.24023437474,
      "d": 336.50390625,
      "v": 82
    },
    {
      "midi": 64,
      "hit": false,
      "t": 231952.14257812474,
      "d": 118.89804687499418,
      "v": 41
    },
    {
      "midi": 62,
      "hit": false,
      "t": 232154.0449218751,
      "d": 296.1234375000058,
      "v": 100
    },
    {
      "midi": 62,
      "hit": false,
      "t": 232160.77499999988,
      "d": 1929.289062499971,
      "v": 95
    },
    {
      "midi": 69,
      "hit": false,
      "t": 232167.50507812473,
      "d": 116.65468750000582,
      "v": 37
    },
    {
      "midi": 91,
      "hit": false,
      "t": 232167.50507812484,
      "d": 181.71210937498836,
      "v": 97
    },
    {
      "midi": 58,
      "hit": false,
      "t": 232167.50507812487,
      "d": 1924.802343749965,
      "v": 100
    },
    {
      "midi": 67,
      "hit": false,
      "t": 232167.50507812505,
      "d": 1897.8820312499884,
      "v": 88
    },
    {
      "midi": 62,
      "hit": false,
      "t": 232167.50507812505,
      "d": 1911.3421874999767,
      "v": 84
    },
    {
      "midi": 79,
      "hit": false,
      "t": 232171.99179687473,
      "d": 1740.8468749999884,
      "v": 80
    },
    {
      "midi": 76,
      "hit": false,
      "t": 232171.99179687473,
      "d": 1774.4972656249884,
      "v": 86
    },
    {
      "midi": 67,
      "hit": false,
      "t": 232180.96523437486,
      "d": 1886.6652343749884,
      "v": 96
    },
    {
      "midi": 61,
      "hit": false,
      "t": 232376.13749999972,
      "d": 121.14140625001164,
      "v": 34
    },
    {
      "midi": 61,
      "hit": false,
      "t": 232598.23007812473,
      "d": 121.14140625001164,
      "v": 30
    },
    {
      "midi": 64,
      "hit": false,
      "t": 232813.59257812475,
      "d": 121.14140625001164,
      "v": 26
    },
    {
      "midi": 74,
      "hit": false,
      "t": 233019.98164062473,
      "d": 832.2863281249884,
      "v": 89
    },
    {
      "midi": 69,
      "hit": false,
      "t": 233028.95507812477,
      "d": 87.49101562501164,
      "v": 23
    },
    {
      "midi": 61,
      "hit": false,
      "t": 233244.31757812478,
      "d": 139.08828125000582,
      "v": 19
    },
    {
      "midi": 62,
      "hit": false,
      "t": 233459.68007812477,
      "d": 125.62812499998836,
      "v": 15
    },
    {
      "midi": 74,
      "hit": false,
      "t": 233459.6800781251,
      "d": 53.84062500001164,
      "v": 70
    },
    {
      "midi": 64,
      "hit": false,
      "t": 233675.04257812476,
      "d": 112.16796875,
      "v": 12
    },
    {
      "midi": 76,
      "hit": false,
      "t": 233890.40507812388,
      "d": 226.57929687498836,
      "v": 80
    },
    {
      "midi": 69,
      "hit": false,
      "t": 233890.40507812475,
      "d": 91.97773437498836,
      "v": 8
    },
    {
      "midi": 74,
      "hit": false,
      "t": 233928.54218749973,
      "d": 343.2339843749942,
      "v": 80
    },
    {
      "midi": 61,
      "hit": false,
      "t": 234105.76757812474,
      "d": 83.00429687500582,
      "v": 5
    },
    {
      "midi": 57,
      "hit": false,
      "t": 234274.01953125003,
      "d": 3160.8933593749825,
      "v": 71
    },
    {
      "midi": 74,
      "hit": false,
      "t": 234314.39999999816,
      "d": 5850.681249999325,
      "v": 79
    },
    {
      "midi": 50,
      "hit": false,
      "t": 234314.40000000002,
      "d": 3169.866796874994,
      "v": 72
    },
    {
      "midi": 38,
      "hit": false,
      "t": 234318.88671874817,
      "d": 3405.419531249703,
      "v": 75
    },
    {
      "midi": 66,
      "hit": false,
      "t": 234318.88671874817,
      "d": 5882.088281249307,
      "v": 83
    },
    {
      "midi": 50,
      "hit": false,
      "t": 234321.13007812315,
      "d": 6059.313671874319,
      "v": 75
    },
    {
      "midi": 76,
      "hit": false,
      "t": 234321.13007812385,
      "d": 226.57929687498836,
      "v": 81
    },
    {
      "midi": 57,
      "hit": false,
      "t": 234321.13007812484,
      "d": 5772.163671874325,
      "v": 104
    },
    {
      "midi": 62,
      "hit": false,
      "t": 234321.13007812484,
      "d": 5772.163671874325,
      "v": 99
    },
    {
      "midi": 74,
      "hit": false,
      "t": 234321.13007812502,
      "d": 3113.782812499994,
      "v": 73
    },
    {
      "midi": 69,
      "hit": false,
      "t": 234321.13007812502,
      "d": 3129.486328125,
      "v": 75
    },
    {
      "midi": 62,
      "hit": false,
      "t": 234321.13007812502,
      "d": 3136.216406249994,
      "v": 72
    },
    {
      "midi": 66,
      "hit": false,
      "t": 234321.13007812502,
      "d": 3140.703125,
      "v": 73
    },
    {
      "midi": 57,
      "hit": false,
      "t": 234321.13007812537,
      "d": 5700.376171874697,
      "v": 101
    },
    {
      "midi": 54,
      "hit": false,
      "t": 234323.37343749814,
      "d": 6092.964062499319,
      "v": 79
    },
    {
      "midi": 57,
      "hit": false,
      "t": 234323.37343749814,
      "d": 6200.645312499313,
      "v": 84
    },
    {
      "midi": 66,
      "hit": false,
      "t": 234334.59023437483,
      "d": 5651.022265624371,
      "v": 96
    },
    {
      "midi": 74,
      "hit": false,
      "t": 234536.49257812384,
      "d": 4751.435156249732,
      "v": 87
    }
  ]
}