{
  "jsonPath": "World/Panpipe/Panpipes/suspicious-minds.json",
  "path": "World\\Panpipe\\Panpipes\\Suspicious Minds.mid",
  "name": "Suspicious Minds",
  "difficulty": "Advanced",
  "bpm": 113.00009605008164,
  "notes": [
    {
      "midi": 43,
      "hit": false,
      "t": 2051.28,
      "d": 165.59812499999998,
      "v": 100
    },
    {
      "midi": 43,
      "hit": false,
      "t": 2307.69,
      "d": 288.46124999999984,
      "v": 97
    },
    {
      "midi": 62,
      "hit": false,
      "t": 2574.78375,
      "d": 544.8712500000001,
      "v": 95
    },
    {
      "midi": 59,
      "hit": false,
      "t": 2574.78375,
      "d": 555.5550000000003,
      "v": 91
    },
    {
      "midi": 67,
      "hit": false,
      "t": 2574.78375,
      "d": 576.9225000000001,
      "v": 92
    },
    {
      "midi": 43,
      "hit": false,
      "t": 3071.578125,
      "d": 149.57250000000022,
      "v": 89
    },
    {
      "midi": 43,
      "hit": false,
      "t": 3338.671875,
      "d": 277.77750000000015,
      "v": 91
    },
    {
      "midi": 64,
      "hit": false,
      "t": 3579.05625,
      "d": 512.8200000000002,
      "v": 100
    },
    {
      "midi": 60,
      "hit": false,
      "t": 3584.398125,
      "d": 496.79437499999995,
      "v": 96
    },
    {
      "midi": 67,
      "hit": false,
      "t": 3589.7400000000002,
      "d": 448.71749999999975,
      "v": 98
    },
    {
      "midi": 43,
      "hit": false,
      "t": 4091.8762500000003,
      "d": 165.59812500000044,
      "v": 88
    },
    {
      "midi": 43,
      "hit": false,
      "t": 4348.286250000001,
      "d": 277.77750000000015,
      "v": 86
    },
    {
      "midi": 59,
      "hit": false,
      "t": 4610.038125000001,
      "d": 496.7943750000004,
      "v": 91
    },
    {
      "midi": 62,
      "hit": false,
      "t": 4610.038125000001,
      "d": 523.5037500000008,
      "v": 92
    },
    {
      "midi": 67,
      "hit": false,
      "t": 4610.038125000001,
      "d": 560.8968750000004,
      "v": 92
    },
    {
      "midi": 43,
      "hit": false,
      "t": 5122.858125000002,
      "d": 170.9399999999996,
      "v": 88
    },
    {
      "midi": 43,
      "hit": false,
      "t": 5379.268125000001,
      "d": 245.7262499999997,
      "v": 91
    },
    {
      "midi": 60,
      "hit": false,
      "t": 5630.336250000001,
      "d": 486.11062500000025,
      "v": 85
    },
    {
      "midi": 67,
      "hit": false,
      "t": 5635.678125000001,
      "d": 480.7687500000002,
      "v": 93
    },
    {
      "midi": 64,
      "hit": false,
      "t": 5641.020000000001,
      "d": 475.4268750000001,
      "v": 89
    },
    {
      "midi": 43,
      "hit": false,
      "t": 6148.498125000002,
      "d": 165.59812500000044,
      "v": 92
    },
    {
      "midi": 43,
      "hit": false,
      "t": 6399.566250000003,
      "d": 240.38437499999964,
      "v": 92
    },
    {
      "midi": 59,
      "hit": false,
      "t": 6661.3181250000025,
      "d": 480.7687500000002,
      "v": 91
    },
    {
      "midi": 62,
      "hit": false,
      "t": 6661.3181250000025,
      "d": 528.8456249999999,
      "v": 97
    },
    {
      "midi": 67,
      "hit": false,
      "t": 6661.3181250000025,
      "d": 544.8712500000001,
      "v": 102
    },
    {
      "midi": 43,
      "hit": false,
      "t": 7179.480000000002,
      "d": 170.9400000000005,
      "v": 88
    },
    {
      "midi": 43,
      "hit": false,
      "t": 7441.231875000003,
      "d": 240.38437499999964,
      "v": 87
    },
    {
      "midi": 60,
      "hit": false,
      "t": 7686.958125000003,
      "d": 491.4525000000003,
      "v": 92
    },
    {
      "midi": 64,
      "hit": false,
      "t": 7686.958125000003,
      "d": 496.7943750000004,
      "v": 102
    },
    {
      "midi": 67,
      "hit": false,
      "t": 7686.958125000003,
      "d": 507.47812499999964,
      "v": 102
    },
    {
      "midi": 43,
      "hit": false,
      "t": 8215.803750000003,
      "d": 154.9143750000003,
      "v": 88
    },
    {
      "midi": 43,
      "hit": false,
      "t": 8472.213750000003,
      "d": 251.06812499999978,
      "v": 89
    },
    {
      "midi": 59,
      "hit": false,
      "t": 8712.598125000002,
      "d": 507.47812499999964,
      "v": 92
    },
    {
      "midi": 62,
      "hit": false,
      "t": 8717.940000000002,
      "d": 550.2131250000002,
      "v": 93
    },
    {
      "midi": 67,
      "hit": false,
      "t": 8717.940000000002,
      "d": 555.5550000000003,
      "v": 92
    },
    {
      "midi": 43,
      "hit": false,
      "t": 9225.418125000002,
      "d": 144.23062500000015,
      "v": 92
    },
    {
      "midi": 43,
      "hit": false,
      "t": 9476.486250000002,
      "d": 261.7518749999999,
      "v": 86
    },
    {
      "midi": 67,
      "hit": false,
      "t": 9722.212500000001,
      "d": 550.2131250000002,
      "v": 92
    },
    {
      "midi": 60,
      "hit": false,
      "t": 9727.554375000002,
      "d": 539.5293750000001,
      "v": 90
    },
    {
      "midi": 64,
      "hit": false,
      "t": 9727.554375000002,
      "d": 544.8712500000001,
      "v": 93
    },
    {
      "midi": 48,
      "hit": false,
      "t": 10245.716250000001,
      "d": 165.59812500000044,
      "v": 87
    },
    {
      "midi": 48,
      "hit": false,
      "t": 10507.468125000001,
      "d": 256.40999999999985,
      "v": 90
    },
    {
      "midi": 64,
      "hit": false,
      "t": 10763.878125000001,
      "d": 448.71750000000065,
      "v": 107
    },
    {
      "midi": 60,
      "hit": false,
      "t": 10763.878125000001,
      "d": 496.7943750000013,
      "v": 95
    },
    {
      "midi": 67,
      "hit": false,
      "t": 10763.878125000001,
      "d": 496.7943750000013,
      "v": 103
    },
    {
      "midi": 48,
      "hit": false,
      "t": 11287.381875000003,
      "d": 165.59812500000044,
      "v": 87
    },
    {
      "midi": 48,
      "hit": false,
      "t": 11538.450000000003,
      "d": 229.7006249999995,
      "v": 87
    },
    {
      "midi": 69,
      "hit": false,
      "t": 11789.518125000002,
      "d": 491.4524999999994,
      "v": 98
    },
    {
      "midi": 64,
      "hit": false,
      "t": 11789.518125000002,
      "d": 512.8199999999997,
      "v": 98
    },
    {
      "midi": 60,
      "hit": false,
      "t": 11789.518125000002,
      "d": 566.2387500000004,
      "v": 92
    },
    {
      "midi": 48,
      "hit": false,
      "t": 12318.363750000002,
      "d": 165.59812500000044,
      "v": 88
    },
    {
      "midi": 48,
      "hit": false,
      "t": 12569.431875000002,
      "d": 283.1193750000002,
      "v": 90
    },
    {
      "midi": 67,
      "hit": false,
      "t": 12815.158125000002,
      "d": 475.426875000001,
      "v": 97
    },
    {
      "midi": 64,
      "hit": false,
      "t": 12815.158125000002,
      "d": 480.7687500000011,
      "v": 100
    },
    {
      "midi": 60,
      "hit": false,
      "t": 12815.158125000002,
      "d": 502.1362500000014,
      "v": 92
    },
    {
      "midi": 48,
      "hit": false,
      "t": 13322.636250000003,
      "d": 181.62375000000065,
      "v": 91
    },
    {
      "midi": 48,
      "hit": false,
      "t": 13595.071875000003,
      "d": 293.80312500000036,
      "v": 92
    },
    {
      "midi": 60,
      "hit": false,
      "t": 13846.140000000003,
      "d": 379.2731249999997,
      "v": 91
    },
    {
      "midi": 69,
      "hit": false,
      "t": 13846.140000000003,
      "d": 475.4268749999992,
      "v": 92
    },
    {
      "midi": 64,
      "hit": false,
      "t": 13846.140000000003,
      "d": 502.13624999999956,
      "v": 95
    },
    {
      "midi": 50,
      "hit": false,
      "t": 14353.618125000003,
      "d": 144.23062500000015,
      "v": 87
    },
    {
      "midi": 50,
      "hit": false,
      "t": 14599.344375000002,
      "d": 288.4612500000003,
      "v": 90
    },
    {
      "midi": 62,
      "hit": false,
      "t": 14861.096250000002,
      "d": 544.8712500000001,
      "v": 89
    },
    {
      "midi": 66,
      "hit": false,
      "t": 14866.438125000002,
      "d": 523.5037499999999,
      "v": 109
    },
    {
      "midi": 69,
      "hit": false,
      "t": 14866.438125000002,
      "d": 534.1875,
      "v": 100
    },
    {
      "midi": 50,
      "hit": false,
      "t": 15389.941875000002,
      "d": 138.88875000000007,
      "v": 85
    },
    {
      "midi": 50,
      "hit": false,
      "t": 15630.326250000002,
      "d": 304.4868750000005,
      "v": 85
    },
    {
      "midi": 66,
      "hit": false,
      "t": 15892.078125000002,
      "d": 363.2475000000013,
      "v": 116
    },
    {
      "midi": 69,
      "hit": false,
      "t": 15892.078125000002,
      "d": 454.0593750000007,
      "v": 106
    },
    {
      "midi": 62,
      "hit": false,
      "t": 15892.078125000002,
      "d": 475.426875000001,
      "v": 95
    },
    {
      "midi": 48,
      "hit": false,
      "t": 16410.24,
      "d": 160.25624999999854,
      "v": 85
    },
    {
      "midi": 48,
      "hit": false,
      "t": 16661.308125,
      "d": 213.67499999999927,
      "v": 86
    },
    {
      "midi": 67,
      "hit": false,
      "t": 16917.718125,
      "d": 550.2131249999984,
      "v": 98
    },
    {
      "midi": 64,
      "hit": false,
      "t": 16917.718125,
      "d": 566.2387499999968,
      "v": 95
    },
    {
      "midi": 60,
      "hit": false,
      "t": 16917.718125,
      "d": 571.580624999995,
      "v": 89
    },
    {
      "midi": 48,
      "hit": false,
      "t": 17441.221875,
      "d": 154.91437499999665,
      "v": 87
    },
    {
      "midi": 48,
      "hit": false,
      "t": 17697.631874999995,
      "d": 229.7006250000013,
      "v": 87
    },
    {
      "midi": 67,
      "hit": false,
      "t": 17954.041874999995,
      "d": 486.11062500000116,
      "v": 97
    },
    {
      "midi": 60,
      "hit": false,
      "t": 17954.041874999995,
      "d": 496.7943750000013,
      "v": 92
    },
    {
      "midi": 64,
      "hit": false,
      "t": 17954.041874999995,
      "d": 512.8199999999997,
      "v": 102
    },
    {
      "midi": 43,
      "hit": false,
      "t": 18472.203749999993,
      "d": 149.5724999999984,
      "v": 81
    },
    {
      "midi": 43,
      "hit": false,
      "t": 18728.613749999993,
      "d": 261.7518749999981,
      "v": 88
    },
    {
      "midi": 59,
      "hit": false,
      "t": 18974.339999999993,
      "d": 438.0337499999987,
      "v": 96
    },
    {
      "midi": 67,
      "hit": false,
      "t": 18974.339999999993,
      "d": 475.4268749999974,
      "v": 97
    },
    {
      "midi": 62,
      "hit": false,
      "t": 18974.339999999993,
      "d": 544.8712499999965,
      "v": 96
    },
    {
      "midi": 43,
      "hit": false,
      "t": 19492.50187499999,
      "d": 154.9143750000003,
      "v": 82
    },
    {
      "midi": 43,
      "hit": false,
      "t": 19748.91187499999,
      "d": 224.35874999999942,
      "v": 86
    },
    {
      "midi": 60,
      "hit": false,
      "t": 19999.97999999999,
      "d": 512.8199999999997,
      "v": 92
    },
    {
      "midi": 67,
      "hit": false,
      "t": 20005.321874999987,
      "d": 486.11062500000116,
      "v": 100
    },
    {
      "midi": 64,
      "hit": false,
      "t": 20005.321874999987,
      "d": 518.1618750000016,
      "v": 99
    },
    {
      "midi": 43,
      "hit": false,
      "t": 20523.48374999999,
      "d": 149.5724999999984,
      "v": 80
    },
    {
      "midi": 43,
      "hit": false,
      "t": 20763.868124999986,
      "d": 245.7262499999997,
      "v": 87
    },
    {
      "midi": 59,
      "hit": false,
      "t": 21020.278124999986,
      "d": 507.47812500000146,
      "v": 97
    },
    {
      "midi": 67,
      "hit": false,
      "t": 21020.278124999986,
      "d": 523.5037499999999,
      "v": 95
    },
    {
      "midi": 62,
      "hit": false,
      "t": 21020.278124999986,
      "d": 555.5550000000003,
      "v": 97
    },
    {
      "midi": 43,
      "hit": false,
      "t": 21533.098124999986,
      "d": 149.57250000000204,
      "v": 88
    },
    {
      "midi": 43,
      "hit": false,
      "t": 21784.166249999987,
      "d": 224.35874999999942,
      "v": 82
    },
    {
      "midi": 67,
      "hit": false,
      "t": 22045.918124999986,
      "d": 459.401249999999,
      "v": 104
    },
    {
      "midi": 60,
      "hit": false,
      "t": 22045.918124999986,
      "d": 475.4268749999974,
      "v": 99
    },
    {
      "midi": 64,
      "hit": false,
      "t": 22045.918124999986,
      "d": 480.76874999999563,
      "v": 106
    },
    {
      "midi": 43,
      "hit": false,
      "t": 22553.39624999998,
      "d": 144.23062500000015,
      "v": 85
    },
    {
      "midi": 43,
      "hit": false,
      "t": 22809.80624999998,
      "d": 213.67499999999927,
      "v": 85
    },
    {
      "midi": 59,
      "hit": false,
      "t": 23071.558124999978,
      "d": 448.71749999999884,
      "v": 91
    },
    {
      "midi": 62,
      "hit": false,
      "t": 23071.558124999978,
      "d": 480.76874999999563,
      "v": 99
    },
    {
      "midi": 67,
      "hit": false,
      "t": 23076.899999999976,
      "d": 459.401249999999,
      "v": 102
    },
    {
      "midi": 43,
      "hit": false,
      "t": 23584.378124999974,
      "d": 149.5724999999984,
      "v": 89
    },
    {
      "midi": 43,
      "hit": false,
      "t": 23851.471874999974,
      "d": 202.99124999999913,
      "v": 88
    },
    {
      "midi": 60,
      "hit": false,
      "t": 24091.85624999997,
      "d": 502.1362499999959,
      "v": 90
    },
    {
      "midi": 67,
      "hit": false,
      "t": 24097.19812499997,
      "d": 475.426875000001,
      "v": 95
    },
    {
      "midi": 64,
      "hit": false,
      "t": 24097.19812499997,
      "d": 491.4524999999994,
      "v": 97
    },
    {
      "midi": 43,
      "hit": false,
      "t": 24599.334374999966,
      "d": 154.9143750000003,
      "v": 89
    },
    {
      "midi": 43,
      "hit": false,
      "t": 24855.744374999966,
      "d": 288.4612500000003,
      "v": 87
    },
    {
      "midi": 67,
      "hit": false,
      "t": 25117.496249999967,
      "d": 502.13624999999956,
      "v": 97
    },
    {
      "midi": 59,
      "hit": false,
      "t": 25117.496249999967,
      "d": 507.4781249999978,
      "v": 92
    },
    {
      "midi": 62,
      "hit": false,
      "t": 25117.496249999967,
      "d": 539.5293749999946,
      "v": 95
    },
    {
      "midi": 43,
      "hit": false,
      "t": 25640.999999999964,
      "d": 144.23062500000015,
      "v": 90
    },
    {
      "midi": 43,
      "hit": false,
      "t": 25886.726249999963,
      "d": 277.77750000000015,
      "v": 88
    },
    {
      "midi": 67,
      "hit": false,
      "t": 26143.136249999963,
      "d": 512.8199999999997,
      "v": 93
    },
    {
      "midi": 64,
      "hit": false,
      "t": 26143.136249999963,
      "d": 518.161874999998,
      "v": 95
    },
    {
      "midi": 60,
      "hit": false,
      "t": 26143.136249999963,
      "d": 528.8456249999981,
      "v": 92
    },
    {
      "midi": 48,
      "hit": false,
      "t": 26655.956249999963,
      "d": 160.25624999999854,
      "v": 86
    },
    {
      "midi": 48,
      "hit": false,
      "t": 26912.366249999963,
      "d": 267.09375,
      "v": 87
    },
    {
      "midi": 64,
      "hit": false,
      "t": 27168.776249999963,
      "d": 496.7943750000013,
      "v": 106
    },
    {
      "midi": 67,
      "hit": false,
      "t": 27168.776249999963,
      "d": 512.8199999999997,
      "v": 103
    },
    {
      "midi": 60,
      "hit": false,
      "t": 27168.776249999963,
      "d": 518.161874999998,
      "v": 97
    },
    {
      "midi": 48,
      "hit": false,
      "t": 27676.254374999964,
      "d": 154.91437499999665,
      "v": 90
    },
    {
      "midi": 48,
      "hit": false,
      "t": 27932.66437499996,
      "d": 240.38437500000146,
      "v": 92
    },
    {
      "midi": 64,
      "hit": false,
      "t": 28194.416249999962,
      "d": 475.426875000001,
      "v": 99
    },
    {
      "midi": 69,
      "hit": false,
      "t": 28194.416249999962,
      "d": 507.47812500000146,
      "v": 98
    },
    {
      "midi": 60,
      "hit": false,
      "t": 28194.416249999962,
      "d": 576.9225000000006,
      "v": 92
    },
    {
      "midi": 48,
      "hit": false,
      "t": 28712.578124999964,
      "d": 165.59812500000044,
      "v": 88
    },
    {
      "midi": 48,
      "hit": false,
      "t": 28974.329999999965,
      "d": 219.01687500000116,
      "v": 89
    },
    {
      "midi": 64,
      "hit": false,
      "t": 29230.739999999965,
      "d": 480.7687499999993,
      "v": 100
    },
    {
      "midi": 67,
      "hit": false,
      "t": 29230.739999999965,
      "d": 491.4524999999994,
      "v": 99
    },
    {
      "midi": 60,
      "hit": false,
      "t": 29230.739999999965,
      "d": 512.8199999999997,
      "v": 96
    },
    {
      "midi": 48,
      "hit": false,
      "t": 29732.876249999965,
      "d": 165.59812500000044,
      "v": 86
    },
    {
      "midi": 48,
      "hit": false,
      "t": 30005.311874999967,
      "d": 245.7262499999997,
      "v": 92
    },
    {
      "midi": 69,
      "hit": false,
      "t": 30261.721874999967,
      "d": 454.0593749999971,
      "v": 85
    },
    {
      "midi": 60,
      "hit": false,
      "t": 30267.063749999965,
      "d": 347.2218749999993,
      "v": 87
    },
    {
      "midi": 64,
      "hit": false,
      "t": 30267.063749999965,
      "d": 448.71749999999884,
      "v": 99
    },
    {
      "midi": 50,
      "hit": false,
      "t": 30753.174374999962,
      "d": 138.88874999999825,
      "v": 85
    },
    {
      "midi": 50,
      "hit": false,
      "t": 31020.268124999962,
      "d": 293.8031250000022,
      "v": 92
    },
    {
      "midi": 66,
      "hit": false,
      "t": 31282.019999999964,
      "d": 459.401249999999,
      "v": 89
    },
    {
      "midi": 69,
      "hit": false,
      "t": 31282.019999999964,
      "d": 475.4268749999974,
      "v": 92
    },
    {
      "midi": 62,
      "hit": false,
      "t": 31282.019999999964,
      "d": 496.7943749999977,
      "v": 81
    },
    {
      "midi": 50,
      "hit": false,
      "t": 31789.498124999962,
      "d": 133.546875,
      "v": 80
    },
    {
      "midi": 50,
      "hit": false,
      "t": 32040.566249999963,
      "d": 384.6150000000016,
      "v": 80
    },
    {
      "midi": 66,
      "hit": false,
      "t": 32296.976249999963,
      "d": 438.0337500000023,
      "v": 94
    },
    {
      "midi": 69,
      "hit": false,
      "t": 32296.976249999963,
      "d": 454.0593750000007,
      "v": 96
    },
    {
      "midi": 62,
      "hit": false,
      "t": 32296.976249999963,
      "d": 459.401249999999,
      "v": 84
    },
    {
      "midi": 48,
      "hit": false,
      "t": 32820.47999999996,
      "d": 170.94000000000233,
      "v": 85
    },
    {
      "midi": 48,
      "hit": false,
      "t": 33082.23187499996,
      "d": 261.75187500000175,
      "v": 86
    },
    {
      "midi": 64,
      "hit": false,
      "t": 33327.95812499996,
      "d": 496.79437500000495,
      "v": 100
    },
    {
      "midi": 67,
      "hit": false,
      "t": 33327.95812499996,
      "d": 502.1362500000032,
      "v": 100
    },
    {
      "midi": 60,
      "hit": false,
      "t": 33327.95812499996,
      "d": 518.161874999998,
      "v": 96
    },
    {
      "midi": 48,
      "hit": false,
      "t": 33840.77812499996,
      "d": 138.88874999999825,
      "v": 85
    },
    {
      "midi": 48,
      "hit": false,
      "t": 34107.87187499996,
      "d": 272.43562500000553,
      "v": 92
    },
    {
      "midi": 60,
      "hit": false,
      "t": 34364.281874999964,
      "d": 325.8543750000026,
      "v": 96
    },
    {
      "midi": 67,
      "hit": false,
      "t": 34364.281874999964,
      "d": 336.5381249999991,
      "v": 103
    },
    {
      "midi": 64,
      "hit": false,
      "t": 34364.281874999964,
      "d": 347.22187499999563,
      "v": 106
    },
    {
      "midi": 50,
      "hit": false,
      "t": 34877.10187499996,
      "d": 133.546875,
      "v": 87
    },
    {
      "midi": 50,
      "hit": false,
      "t": 35122.828124999956,
      "d": 304.4868750000023,
      "v": 92
    },
    {
      "midi": 66,
      "hit": false,
      "t": 35389.921874999956,
      "d": 411.3243750000038,
      "v": 101
    },
    {
      "midi": 69,
      "hit": false,
      "t": 35389.921874999956,
      "d": 432.6918750000041,
      "v": 99
    },
    {
      "midi": 62,
      "hit": false,
      "t": 35389.921874999956,
      "d": 475.42687500000466,
      "v": 90
    },
    {
      "midi": 48,
      "hit": false,
      "t": 35886.71624999996,
      "d": 160.25624999999854,
      "v": 91
    },
    {
      "midi": 48,
      "hit": false,
      "t": 36143.12624999996,
      "d": 363.2474999999977,
      "v": 87
    },
    {
      "midi": 60,
      "hit": false,
      "t": 36410.21999999996,
      "d": 443.3756250000006,
      "v": 109
    },
    {
      "midi": 67,
      "hit": false,
      "t": 36410.21999999996,
      "d": 448.71749999999884,
      "v": 104
    },
    {
      "midi": 64,
      "hit": false,
      "t": 36410.21999999996,
      "d": 459.40124999999534,
      "v": 110
    },
    {
      "midi": 47,
      "hit": false,
      "t": 36917.69812499995,
      "d": 170.94000000000233,
      "v": 96
    },
    {
      "midi": 47,
      "hit": false,
      "t": 37184.79187499995,
      "d": 240.38437500000146,
      "v": 93
    },
    {
      "midi": 59,
      "hit": false,
      "t": 37435.85999999995,
      "d": 267.09375,
      "v": 92
    },
    {
      "midi": 66,
      "hit": false,
      "t": 37435.85999999995,
      "d": 320.5124999999971,
      "v": 93
    },
    {
      "midi": 62,
      "hit": false,
      "t": 37435.85999999995,
      "d": 352.5637499999939,
      "v": 98
    },
    {
      "midi": 50,
      "hit": false,
      "t": 37937.996249999946,
      "d": 389.95687499998894,
      "v": 96
    },
    {
      "midi": 62,
      "hit": false,
      "t": 37948.67999999994,
      "d": 357.90562499999214,
      "v": 91
    },
    {
      "midi": 66,
      "hit": false,
      "t": 37954.02187499994,
      "d": 347.22187499999563,
      "v": 109
    },
    {
      "midi": 69,
      "hit": false,
      "t": 37959.36374999994,
      "d": 341.8799999999974,
      "v": 82
    },
    {
      "midi": 62,
      "hit": false,
      "t": 38456.158124999936,
      "d": 363.2474999999977,
      "v": 103
    },
    {
      "midi": 66,
      "hit": false,
      "t": 38456.158124999936,
      "d": 373.9312499999942,
      "v": 119
    },
    {
      "midi": 69,
      "hit": false,
      "t": 38456.158124999936,
      "d": 389.9568749999962,
      "v": 116
    },
    {
      "midi": 50,
      "hit": false,
      "t": 38456.158124999936,
      "d": 432.6918749999968,
      "v": 96
    },
    {
      "midi": 48,
      "hit": false,
      "t": 38974.319999999934,
      "d": 170.94000000000233,
      "v": 99
    },
    {
      "midi": 48,
      "hit": false,
      "t": 39225.38812499994,
      "d": 368.5893749999959,
      "v": 92
    },
    {
      "midi": 67,
      "hit": false,
      "t": 39476.45624999994,
      "d": 518.161874999998,
      "v": 97
    },
    {
      "midi": 60,
      "hit": false,
      "t": 39481.798124999936,
      "d": 544.8712499999965,
      "v": 93
    },
    {
      "midi": 64,
      "hit": false,
      "t": 39481.798124999936,
      "d": 550.2131249999948,
      "v": 97
    },
    {
      "midi": 48,
      "hit": false,
      "t": 39994.618124999935,
      "d": 133.54687499999272,
      "v": 80
    },
    {
      "midi": 48,
      "hit": false,
      "t": 40251.02812499993,
      "d": 400.6406249999927,
      "v": 82
    },
    {
      "midi": 60,
      "hit": false,
      "t": 40502.09624999993,
      "d": 357.90562499999214,
      "v": 92
    },
    {
      "midi": 67,
      "hit": false,
      "t": 40502.09624999993,
      "d": 448.71749999999156,
      "v": 98
    },
    {
      "midi": 64,
      "hit": false,
      "t": 40507.43812499993,
      "d": 389.9568749999962,
      "v": 93
    },
    {
      "midi": 43,
      "hit": false,
      "t": 41014.91624999992,
      "d": 176.28187500000058,
      "v": 82
    },
    {
      "midi": 43,
      "hit": false,
      "t": 41265.98437499992,
      "d": 277.7775000000038,
      "v": 82
    },
    {
      "midi": 62,
      "hit": false,
      "t": 41527.73624999992,
      "d": 544.8712500000038,
      "v": 98
    },
    {
      "midi": 59,
      "hit": false,
      "t": 41527.73624999992,
      "d": 550.213125000002,
      "v": 95
    },
    {
      "midi": 67,
      "hit": false,
      "t": 41527.73624999992,
      "d": 571.5806250000023,
      "v": 99
    },
    {
      "midi": 43,
      "hit": false,
      "t": 42045.89812499993,
      "d": 133.546875,
      "v": 88
    },
    {
      "midi": 43,
      "hit": false,
      "t": 42296.966249999925,
      "d": 368.5893749999959,
      "v": 88
    },
    {
      "midi": 67,
      "hit": false,
      "t": 42548.03437499992,
      "d": 352.56375000000116,
      "v": 96
    },
    {
      "midi": 59,
      "hit": false,
      "t": 42553.37624999992,
      "d": 459.4012500000026,
      "v": 93
    },
    {
      "midi": 62,
      "hit": false,
      "t": 42553.37624999992,
      "d": 486.11062500000116,
      "v": 96
    },
    {
      "midi": 47,
      "hit": false,
      "t": 43066.19624999992,
      "d": 197.64937500000087,
      "v": 92
    },
    {
      "midi": 47,
      "hit": false,
      "t": 43327.94812499992,
      "d": 315.17062499999884,
      "v": 95
    },
    {
      "midi": 59,
      "hit": false,
      "t": 43595.04187499992,
      "d": 496.7943749999977,
      "v": 87
    },
    {
      "midi": 66,
      "hit": false,
      "t": 43595.04187499992,
      "d": 496.7943749999977,
      "v": 89
    },
    {
      "midi": 62,
      "hit": false,
      "t": 43595.04187499992,
      "d": 502.1362499999959,
      "v": 92
    },
    {
      "midi": 47,
      "hit": false,
      "t": 44097.17812499992,
      "d": 138.88874999999825,
      "v": 86
    },
    {
      "midi": 47,
      "hit": false,
      "t": 44364.27187499992,
      "d": 309.8287500000006,
      "v": 92
    },
    {
      "midi": 59,
      "hit": false,
      "t": 44609.99812499992,
      "d": 464.7431250000009,
      "v": 92
    },
    {
      "midi": 66,
      "hit": false,
      "t": 44609.99812499992,
      "d": 507.47812500000146,
      "v": 91
    },
    {
      "midi": 62,
      "hit": false,
      "t": 44609.99812499992,
      "d": 550.213125000002,
      "v": 95
    },
    {
      "midi": 48,
      "hit": false,
      "t": 45122.81812499992,
      "d": 149.57250000000204,
      "v": 85
    },
    {
      "midi": 48,
      "hit": false,
      "t": 45373.88624999992,
      "d": 288.4612500000003,
      "v": 85
    },
    {
      "midi": 60,
      "hit": false,
      "t": 45630.29624999993,
      "d": 427.34999999999854,
      "v": 92
    },
    {
      "midi": 64,
      "hit": false,
      "t": 45630.29624999993,
      "d": 475.4268749999974,
      "v": 95
    },
    {
      "midi": 67,
      "hit": false,
      "t": 45630.29624999993,
      "d": 475.4268749999974,
      "v": 95
    },
    {
      "midi": 50,
      "hit": false,
      "t": 46143.11624999993,
      "d": 149.57250000000204,
      "v": 91
    },
    {
      "midi": 50,
      "hit": false,
      "t": 46394.18437499993,
      "d": 309.8287500000006,
      "v": 93
    },
    {
      "midi": 69,
      "hit": false,
      "t": 46650.594374999935,
      "d": 443.3756250000006,
      "v": 104
    },
    {
      "midi": 62,
      "hit": false,
      "t": 46650.594374999935,
      "d": 459.4012500000026,
      "v": 92
    },
    {
      "midi": 66,
      "hit": false,
      "t": 46650.594374999935,
      "d": 459.4012500000026,
      "v": 101
    },
    {
      "midi": 52,
      "hit": false,
      "t": 47168.75624999994,
      "d": 149.57250000000204,
      "v": 92
    },
    {
      "midi": 52,
      "hit": false,
      "t": 47435.84999999994,
      "d": 272.43562499999825,
      "v": 97
    },
    {
      "midi": 67,
      "hit": false,
      "t": 47681.57624999994,
      "d": 491.4524999999994,
      "v": 96
    },
    {
      "midi": 64,
      "hit": false,
      "t": 47681.57624999994,
      "d": 512.8199999999997,
      "v": 96
    },
    {
      "midi": 59,
      "hit": false,
      "t": 47681.57624999994,
      "d": 518.161874999998,
      "v": 92
    },
    {
      "midi": 52,
      "hit": false,
      "t": 48189.05437499994,
      "d": 128.20499999999447,
      "v": 81
    },
    {
      "midi": 52,
      "hit": false,
      "t": 48440.12249999994,
      "d": 304.4868750000023,
      "v": 91
    },
    {
      "midi": 67,
      "hit": false,
      "t": 48707.21624999994,
      "d": 389.9568750000035,
      "v": 107
    },
    {
      "midi": 64,
      "hit": false,
      "t": 48707.21624999994,
      "d": 454.05937500000437,
      "v": 104
    },
    {
      "midi": 59,
      "hit": false,
      "t": 48707.21624999994,
      "d": 459.4012500000026,
      "v": 102
    },
    {
      "midi": 47,
      "hit": false,
      "t": 49225.378124999945,
      "d": 160.25624999999854,
      "v": 92
    },
    {
      "midi": 47,
      "hit": false,
      "t": 49481.78812499994,
      "d": 256.4100000000035,
      "v": 92
    },
    {
      "midi": 62,
      "hit": false,
      "t": 49738.198124999944,
      "d": 470.0849999999991,
      "v": 100
    },
    {
      "midi": 66,
      "hit": false,
      "t": 49738.198124999944,
      "d": 502.1362499999959,
      "v": 101
    },
    {
      "midi": 59,
      "hit": false,
      "t": 49738.198124999944,
      "d": 518.161874999998,
      "v": 96
    },
    {
      "midi": 47,
      "hit": false,
      "t": 50267.04374999994,
      "d": 149.57250000000204,
      "v": 87
    },
    {
      "midi": 47,
      "hit": false,
      "t": 50512.76999999994,
      "d": 251.06812499999796,
      "v": 95
    },
    {
      "midi": 59,
      "hit": false,
      "t": 50763.83812499994,
      "d": 379.2731249999997,
      "v": 97
    },
    {
      "midi": 66,
      "hit": false,
      "t": 50763.83812499994,
      "d": 416.66625000000204,
      "v": 94
    },
    {
      "midi": 62,
      "hit": false,
      "t": 50763.83812499994,
      "d": 502.1362500000032,
      "v": 99
    },
    {
      "midi": 48,
      "hit": false,
      "t": 51281.99999999994,
      "d": 133.546875,
      "v": 89
    },
    {
      "midi": 48,
      "hit": false,
      "t": 51517.042499999945,
      "d": 283.11937499999476,
      "v": 85
    },
    {
      "midi": 67,
      "hit": false,
      "t": 51784.136249999945,
      "d": 502.1362499999959,
      "v": 93
    },
    {
      "midi": 60,
      "hit": false,
      "t": 51784.136249999945,
      "d": 534.1874999999927,
      "v": 91
    },
    {
      "midi": 64,
      "hit": false,
      "t": 51789.47812499994,
      "d": 512.8199999999997,
      "v": 97
    },
    {
      "midi": 48,
      "hit": false,
      "t": 52307.63999999994,
      "d": 138.88874999999825,
      "v": 88
    },
    {
      "midi": 48,
      "hit": false,
      "t": 52553.36624999994,
      "d": 229.70062499999767,
      "v": 95
    },
    {
      "midi": 60,
      "hit": false,
      "t": 52799.09249999994,
      "d": 160.25624999999854,
      "v": 97
    },
    {
      "midi": 64,
      "hit": false,
      "t": 52799.09249999994,
      "d": 181.62374999999884,
      "v": 99
    },
    {
      "midi": 67,
      "hit": false,
      "t": 52799.09249999994,
      "d": 192.30749999999534,
      "v": 102
    },
    {
      "midi": 67,
      "hit": false,
      "t": 53317.25437499994,
      "d": 747.8625000000029,
      "v": 104
    },
    {
      "midi": 69,
      "hit": false,
      "t": 53317.25437499994,
      "d": 844.0162500000006,
      "v": 99
    },
    {
      "midi": 62,
      "hit": false,
      "t": 53317.25437499994,
      "d": 870.7256249999991,
      "v": 92
    },
    {
      "midi": 50,
      "hit": false,
      "t": 53317.25437499994,
      "d": 897.4349999999977,
      "v": 96
    },
    {
      "midi": 62,
      "hit": false,
      "t": 54342.89437499994,
      "d": 742.5206249999974,
      "v": 96
    },
    {
      "midi": 66,
      "hit": false,
      "t": 54342.89437499994,
      "d": 758.5462499999921,
      "v": 109
    },
    {
      "midi": 50,
      "hit": false,
      "t": 54342.89437499994,
      "d": 779.9137499999924,
      "v": 99
    },
    {
      "midi": 69,
      "hit": false,
      "t": 54348.236249999936,
      "d": 747.8624999999956,
      "v": 106
    },
    {
      "midi": 43,
      "hit": false,
      "t": 55373.87624999993,
      "d": 176.28187500000058,
      "v": 92
    },
    {
      "midi": 43,
      "hit": false,
      "t": 55630.28624999993,
      "d": 277.7774999999965,
      "v": 82
    },
    {
      "midi": 67,
      "hit": false,
      "t": 55892.038124999934,
      "d": 512.8199999999924,
      "v": 95
    },
    {
      "midi": 59,
      "hit": false,
      "t": 55897.37999999993,
      "d": 496.7943749999977,
      "v": 93
    },
    {
      "midi": 62,
      "hit": false,
      "t": 55897.37999999993,
      "d": 507.4781249999942,
      "v": 92
    },
    {
      "midi": 43,
      "hit": false,
      "t": 56415.54187499992,
      "d": 144.2306249999965,
      "v": 85
    },
    {
      "midi": 43,
      "hit": false,
      "t": 56650.58437499992,
      "d": 251.06812499999796,
      "v": 78
    },
    {
      "midi": 64,
      "hit": false,
      "t": 56917.67812499992,
      "d": 464.7431250000009,
      "v": 92
    },
    {
      "midi": 60,
      "hit": false,
      "t": 56917.67812499992,
      "d": 491.4524999999994,
      "v": 86
    },
    {
      "midi": 67,
      "hit": false,
      "t": 56917.67812499992,
      "d": 491.4524999999994,
      "v": 92
    },
    {
      "midi": 43,
      "hit": false,
      "t": 57425.15624999992,
      "d": 165.5981249999968,
      "v": 86
    },
    {
      "midi": 43,
      "hit": false,
      "t": 57681.566249999916,
      "d": 256.4100000000035,
      "v": 85
    },
    {
      "midi": 59,
      "hit": false,
      "t": 57937.97624999992,
      "d": 464.7431250000009,
      "v": 95
    },
    {
      "midi": 67,
      "hit": false,
      "t": 57937.97624999992,
      "d": 528.8456250000017,
      "v": 96
    },
    {
      "midi": 62,
      "hit": false,
      "t": 57937.97624999992,
      "d": 534.1875,
      "v": 98
    },
    {
      "midi": 43,
      "hit": false,
      "t": 58461.47999999992,
      "d": 144.2306249999965,
      "v": 87
    },
    {
      "midi": 43,
      "hit": false,
      "t": 58717.88999999992,
      "d": 245.7262499999997,
      "v": 85
    },
    {
      "midi": 67,
      "hit": false,
      "t": 58968.95812499992,
      "d": 534.1875,
      "v": 92
    },
    {
      "midi": 60,
      "hit": false,
      "t": 58968.95812499992,
      "d": 544.8712499999965,
      "v": 86
    },
    {
      "midi": 64,
      "hit": false,
      "t": 58979.641874999914,
      "d": 491.4524999999994,
      "v": 98
    },
    {
      "midi": 48,
      "hit": false,
      "t": 59487.119999999915,
      "d": 149.57250000000204,
      "v": 87
    },
    {
      "midi": 48,
      "hit": false,
      "t": 59732.846249999915,
      "d": 293.80312499999854,
      "v": 85
    },
    {
      "midi": 67,
      "hit": false,
      "t": 59989.25624999992,
      "d": 486.1106249999939,
      "v": 92
    },
    {
      "midi": 64,
      "hit": false,
      "t": 59994.59812499992,
      "d": 470.0849999999991,
      "v": 95
    },
    {
      "midi": 60,
      "hit": false,
      "t": 59994.59812499992,
      "d": 523.5037499999962,
      "v": 86
    },
    {
      "midi": 48,
      "hit": false,
      "t": 60512.759999999915,
      "d": 160.25624999999854,
      "v": 82
    },
    {
      "midi": 48,
      "hit": false,
      "t": 60758.486249999914,
      "d": 245.7262499999997,
      "v": 78
    },
    {
      "midi": 69,
      "hit": false,
      "t": 61014.89624999991,
      "d": 486.11062500000116,
      "v": 96
    },
    {
      "midi": 64,
      "hit": false,
      "t": 61014.89624999991,
      "d": 491.4524999999994,
      "v": 97
    },
    {
      "midi": 60,
      "hit": false,
      "t": 61014.89624999991,
      "d": 502.1362499999959,
      "v": 89
    },
    {
      "midi": 48,
      "hit": false,
      "t": 61533.05812499991,
      "d": 170.94000000000233,
      "v": 82
    },
    {
      "midi": 48,
      "hit": false,
      "t": 61794.80999999991,
      "d": 267.09375,
      "v": 75
    },
    {
      "midi": 67,
      "hit": false,
      "t": 62040.53624999991,
      "d": 480.7687500000029,
      "v": 98
    },
    {
      "midi": 64,
      "hit": false,
      "t": 62040.53624999991,
      "d": 486.11062500000116,
      "v": 93
    },
    {
      "midi": 60,
      "hit": false,
      "t": 62040.53624999991,
      "d": 528.8456250000017,
      "v": 92
    },
    {
      "midi": 48,
      "hit": false,
      "t": 62564.03999999991,
      "d": 165.5981249999968,
      "v": 80
    },
    {
      "midi": 48,
      "hit": false,
      "t": 62815.10812499991,
      "d": 277.7775000000038,
      "v": 85
    },
    {
      "midi": 69,
      "hit": false,
      "t": 63071.518124999915,
      "d": 432.6918750000041,
      "v": 93
    },
    {
      "midi": 60,
      "hit": false,
      "t": 63076.85999999991,
      "d": 405.98250000000553,
      "v": 92
    },
    {
      "midi": 64,
      "hit": false,
      "t": 63076.85999999991,
      "d": 502.1362500000032,
      "v": 98
    },
    {
      "midi": 50,
      "hit": false,
      "t": 63578.99624999992,
      "d": 138.88874999999825,
      "v": 87
    },
    {
      "midi": 50,
      "hit": false,
      "t": 63835.40624999991,
      "d": 288.461249999993,
      "v": 76
    },
    {
      "midi": 62,
      "hit": false,
      "t": 64086.47437499991,
      "d": 560.8968749999913,
      "v": 90
    },
    {
      "midi": 66,
      "hit": false,
      "t": 64091.81624999991,
      "d": 544.8712499999965,
      "v": 107
    },
    {
      "midi": 69,
      "hit": false,
      "t": 64091.81624999991,
      "d": 550.2131249999948,
      "v": 103
    },
    {
      "midi": 50,
      "hit": false,
      "t": 64609.97812499991,
      "d": 128.20499999999447,
      "v": 69
    },
    {
      "midi": 50,
      "hit": false,
      "t": 64855.7043749999,
      "d": 357.9056249999994,
      "v": 70
    },
    {
      "midi": 66,
      "hit": false,
      "t": 65117.4562499999,
      "d": 480.7687500000029,
      "v": 97
    },
    {
      "midi": 62,
      "hit": false,
      "t": 65117.4562499999,
      "d": 507.47812500000873,
      "v": 90
    },
    {
      "midi": 69,
      "hit": false,
      "t": 65117.4562499999,
      "d": 534.1875,
      "v": 100
    },
    {
      "midi": 48,
      "hit": false,
      "t": 65646.3018749999,
      "d": 160.25624999999127,
      "v": 82
    },
    {
      "midi": 48,
      "hit": false,
      "t": 65902.71187499989,
      "d": 240.38437499999418,
      "v": 80
    },
    {
      "midi": 60,
      "hit": false,
      "t": 66148.43812499988,
      "d": 539.5293749999983,
      "v": 88
    },
    {
      "midi": 64,
      "hit": false,
      "t": 66153.77999999988,
      "d": 528.8456250000017,
      "v": 93
    },
    {
      "midi": 67,
      "hit": false,
      "t": 66153.77999999988,
      "d": 539.5293749999983,
      "v": 95
    },
    {
      "midi": 48,
      "hit": false,
      "t": 66677.28374999989,
      "d": 144.2306249999965,
      "v": 83
    },
    {
      "midi": 48,
      "hit": false,
      "t": 66917.66812499988,
      "d": 293.8031250000058,
      "v": 85
    },
    {
      "midi": 60,
      "hit": false,
      "t": 67179.41999999988,
      "d": 432.6918750000041,
      "v": 96
    },
    {
      "midi": 67,
      "hit": false,
      "t": 67179.41999999988,
      "d": 432.6918750000041,
      "v": 106
    },
    {
      "midi": 64,
      "hit": false,
      "t": 67184.76187499988,
      "d": 459.4012500000099,
      "v": 104
    },
    {
      "midi": 43,
      "hit": false,
      "t": 67686.89812499989,
      "d": 154.91437499999302,
      "v": 90
    },
    {
      "midi": 43,
      "hit": false,
      "t": 67943.30812499988,
      "d": 251.06812500000524,
      "v": 90
    },
    {
      "midi": 59,
      "hit": false,
      "t": 68199.71812499988,
      "d": 384.61500000000524,
      "v": 92
    },
    {
      "midi": 67,
      "hit": false,
      "t": 68199.71812499988,
      "d": 464.74312500000815,
      "v": 98
    },
    {
      "midi": 62,
      "hit": false,
      "t": 68199.71812499988,
      "d": 491.45250000001397,
      "v": 92
    },
    {
      "midi": 43,
      "hit": false,
      "t": 68712.53812499989,
      "d": 170.94000000000233,
      "v": 83
    },
    {
      "midi": 43,
      "hit": false,
      "t": 68974.28999999989,
      "d": 213.6750000000029,
      "v": 89
    },
    {
      "midi": 64,
      "hit": false,
      "t": 69220.0162499999,
      "d": 464.7431249999936,
      "v": 103
    },
    {
      "midi": 60,
      "hit": false,
      "t": 69220.0162499999,
      "d": 496.7943749999977,
      "v": 93
    },
    {
      "midi": 67,
      "hit": false,
      "t": 69220.0162499999,
      "d": 496.7943749999977,
      "v": 102
    },
    {
      "midi": 43,
      "hit": false,
      "t": 69727.4943749999,
      "d": 176.28187500000058,
      "v": 85
    },
    {
      "midi": 43,
      "hit": false,
      "t": 70005.27187499989,
      "d": 224.35874999999942,
      "v": 89
    },
    {
      "midi": 59,
      "hit": false,
      "t": 70256.3399999999,
      "d": 459.40124999999534,
      "v": 93
    },
    {
      "midi": 62,
      "hit": false,
      "t": 70256.3399999999,
      "d": 523.5037499999889,
      "v": 95
    },
    {
      "midi": 67,
      "hit": false,
      "t": 70256.3399999999,
      "d": 523.5037499999889,
      "v": 99
    },
    {
      "midi": 43,
      "hit": false,
      "t": 70763.81812499989,
      "d": 149.57249999999476,
      "v": 86
    },
    {
      "midi": 43,
      "hit": false,
      "t": 71020.22812499988,
      "d": 213.6750000000029,
      "v": 92
    },
    {
      "midi": 64,
      "hit": false,
      "t": 71276.63812499988,
      "d": 448.71749999999884,
      "v": 96
    },
    {
      "midi": 67,
      "hit": false,
      "t": 71276.63812499988,
      "d": 459.40124999999534,
      "v": 96
    },
    {
      "midi": 60,
      "hit": false,
      "t": 71276.63812499988,
      "d": 470.08499999999185,
      "v": 92
    },
    {
      "midi": 43,
      "hit": false,
      "t": 71789.45812499987,
      "d": 181.62374999999884,
      "v": 89
    },
    {
      "midi": 43,
      "hit": false,
      "t": 72056.55187499987,
      "d": 224.35874999999942,
      "v": 84
    },
    {
      "midi": 59,
      "hit": false,
      "t": 72296.93624999987,
      "d": 438.0337500000023,
      "v": 92
    },
    {
      "midi": 62,
      "hit": false,
      "t": 72302.27812499987,
      "d": 502.1362500000105,
      "v": 96
    },
    {
      "midi": 67,
      "hit": false,
      "t": 72302.27812499987,
      "d": 507.47812500000873,
      "v": 97
    },
    {
      "midi": 43,
      "hit": false,
      "t": 72809.75624999987,
      "d": 138.88874999999825,
      "v": 82
    },
    {
      "midi": 43,
      "hit": false,
      "t": 73050.14062499987,
      "d": 245.72625000000698,
      "v": 86
    },
    {
      "midi": 60,
      "hit": false,
      "t": 73322.57624999988,
      "d": 496.7943749999977,
      "v": 96
    },
    {
      "midi": 64,
      "hit": false,
      "t": 73322.57624999988,
      "d": 496.7943749999977,
      "v": 99
    },
    {
      "midi": 67,
      "hit": false,
      "t": 73322.57624999988,
      "d": 496.7943749999977,
      "v": 98
    },
    {
      "midi": 43,
      "hit": false,
      "t": 73840.73812499987,
      "d": 149.57249999999476,
      "v": 87
    },
    {
      "midi": 43,
      "hit": false,
      "t": 74107.83187499987,
      "d": 288.46125000000757,
      "v": 87
    },
    {
      "midi": 59,
      "hit": false,
      "t": 74358.89999999988,
      "d": 496.7943749999977,
      "v": 98
    },
    {
      "midi": 67,
      "hit": false,
      "t": 74358.89999999988,
      "d": 528.8456250000017,
      "v": 109
    },
    {
      "midi": 62,
      "hit": false,
      "t": 74358.89999999988,
      "d": 550.2131249999948,
      "v": 104
    },
    {
      "midi": 43,
      "hit": false,
      "t": 74861.03624999987,
      "d": 165.59812500000407,
      "v": 88
    },
    {
      "midi": 43,
      "hit": false,
      "t": 75122.78812499988,
      "d": 272.43562499999825,
      "v": 87
    },
    {
      "midi": 60,
      "hit": false,
      "t": 75373.85624999988,
      "d": 502.1362499999959,
      "v": 97
    },
    {
      "midi": 67,
      "hit": false,
      "t": 75373.85624999988,
      "d": 502.1362499999959,
      "v": 104
    },
    {
      "midi": 64,
      "hit": false,
      "t": 75379.19812499988,
      "d": 512.8199999999924,
      "v": 107
    },
    {
      "midi": 48,
      "hit": false,
      "t": 75886.67624999987,
      "d": 160.25624999999127,
      "v": 92
    },
    {
      "midi": 48,
      "hit": false,
      "t": 76137.74437499986,
      "d": 240.38437499999418,
      "v": 87
    },
    {
      "midi": 64,
      "hit": false,
      "t": 76399.49624999985,
      "d": 491.4524999999994,
      "v": 104
    },
    {
      "midi": 67,
      "hit": false,
      "t": 76399.49624999985,
      "d": 491.4524999999994,
      "v": 103
    },
    {
      "midi": 60,
      "hit": false,
      "t": 76399.49624999985,
      "d": 502.1362499999959,
      "v": 97
    },
    {
      "midi": 48,
      "hit": false,
      "t": 76906.97437499985,
      "d": 160.25625000000582,
      "v": 85
    },
    {
      "midi": 48,
      "hit": false,
      "t": 77168.72624999985,
      "d": 213.6750000000029,
      "v": 81
    },
    {
      "midi": 69,
      "hit": false,
      "t": 77419.79437499985,
      "d": 512.8199999999924,
      "v": 100
    },
    {
      "midi": 60,
      "hit": false,
      "t": 77419.79437499985,
      "d": 560.8968749999913,
      "v": 89
    },
    {
      "midi": 64,
      "hit": false,
      "t": 77425.13624999985,
      "d": 512.8199999999924,
      "v": 95
    },
    {
      "midi": 48,
      "hit": false,
      "t": 77943.29812499984,
      "d": 149.5725000000093,
      "v": 85
    },
    {
      "midi": 48,
      "hit": false,
      "t": 78215.73374999985,
      "d": 229.70062499999767,
      "v": 81
    },
    {
      "midi": 64,
      "hit": false,
      "t": 78472.14374999986,
      "d": 459.40124999999534,
      "v": 104
    },
    {
      "midi": 67,
      "hit": false,
      "t": 78472.14374999986,
      "d": 459.40124999999534,
      "v": 103
    },
    {
      "midi": 60,
      "hit": false,
      "t": 78472.14374999986,
      "d": 486.11062500000116,
      "v": 96
    },
    {
      "midi": 48,
      "hit": false,
      "t": 78963.59624999986,
      "d": 149.57249999999476,
      "v": 82
    },
    {
      "midi": 48,
      "hit": false,
      "t": 79225.34812499986,
      "d": 261.75187500000175,
      "v": 82
    },
    {
      "midi": 60,
      "hit": false,
      "t": 79481.75812499986,
      "d": 384.61500000000524,
      "v": 92
    },
    {
      "midi": 69,
      "hit": false,
      "t": 79481.75812499986,
      "d": 491.4524999999994,
      "v": 97
    },
    {
      "midi": 64,
      "hit": false,
      "t": 79487.09999999986,
      "d": 518.1618750000052,
      "v": 97
    },
    {
      "midi": 50,
      "hit": false,
      "t": 80005.26187499987,
      "d": 144.2306249999965,
      "v": 81
    },
    {
      "midi": 50,
      "hit": false,
      "t": 80261.67187499987,
      "d": 293.8031250000058,
      "v": 83
    },
    {
      "midi": 62,
      "hit": false,
      "t": 80523.42374999987,
      "d": 486.11062500000116,
      "v": 92
    },
    {
      "midi": 66,
      "hit": false,
      "t": 80523.42374999987,
      "d": 486.11062500000116,
      "v": 101
    },
    {
      "midi": 69,
      "hit": false,
      "t": 80523.42374999987,
      "d": 486.11062500000116,
      "v": 103
    },
    {
      "midi": 50,
      "hit": false,
      "t": 81020.21812499987,
      "d": 144.2306249999965,
      "v": 80
    },
    {
      "midi": 50,
      "hit": false,
      "t": 81276.62812499987,
      "d": 277.77750000001106,
      "v": 82
    },
    {
      "midi": 66,
      "hit": false,
      "t": 81527.69624999988,
      "d": 416.6662500000093,
      "v": 103
    },
    {
      "midi": 69,
      "hit": false,
      "t": 81527.69624999988,
      "d": 459.4012500000099,
      "v": 102
    },
    {
      "midi": 62,
      "hit": false,
      "t": 81527.69624999988,
      "d": 475.42687500000466,
      "v": 92
    },
    {
      "midi": 48,
      "hit": false,
      "t": 82040.51624999988,
      "d": 154.91437499999302,
      "v": 82
    },
    {
      "midi": 48,
      "hit": false,
      "t": 82296.92624999987,
      "d": 229.70062499999767,
      "v": 83
    },
    {
      "midi": 64,
      "hit": false,
      "t": 82553.33624999988,
      "d": 528.8456250000017,
      "v": 95
    },
    {
      "midi": 60,
      "hit": false,
      "t": 82553.33624999988,
      "d": 539.5293749999983,
      "v": 92
    },
    {
      "midi": 67,
      "hit": false,
      "t": 82553.33624999988,
      "d": 539.5293749999983,
      "v": 95
    },
    {
      "midi": 48,
      "hit": false,
      "t": 83071.49812499988,
      "d": 149.57249999999476,
      "v": 82
    },
    {
      "midi": 48,
      "hit": false,
      "t": 83322.56624999987,
      "d": 261.75187500000175,
      "v": 85
    },
    {
      "midi": 60,
      "hit": false,
      "t": 83578.97624999988,
      "d": 357.9056249999994,
      "v": 98
    },
    {
      "midi": 64,
      "hit": false,
      "t": 83578.97624999988,
      "d": 384.61500000000524,
      "v": 104
    },
    {
      "midi": 67,
      "hit": false,
      "t": 83578.97624999988,
      "d": 405.98249999999825,
      "v": 100
    },
    {
      "midi": 50,
      "hit": false,
      "t": 84091.79624999987,
      "d": 138.88874999999825,
      "v": 82
    },
    {
      "midi": 50,
      "hit": false,
      "t": 84353.54812499987,
      "d": 272.43562499999825,
      "v": 87
    },
    {
      "midi": 66,
      "hit": false,
      "t": 84609.95812499987,
      "d": 422.008124999993,
      "v": 107
    },
    {
      "midi": 69,
      "hit": false,
      "t": 84609.95812499987,
      "d": 443.37562499998603,
      "v": 103
    },
    {
      "midi": 62,
      "hit": false,
      "t": 84609.95812499987,
      "d": 470.08499999999185,
      "v": 96
    },
    {
      "midi": 48,
      "hit": false,
      "t": 85117.43624999987,
      "d": 149.57249999999476,
      "v": 82
    },
    {
      "midi": 48,
      "hit": false,
      "t": 85373.84624999986,
      "d": 341.88000000000466,
      "v": 85
    },
    {
      "midi": 67,
      "hit": false,
      "t": 85635.59812499986,
      "d": 443.3756250000006,
      "v": 103
    },
    {
      "midi": 60,
      "hit": false,
      "t": 85635.59812499986,
      "d": 464.7431249999936,
      "v": 103
    },
    {
      "midi": 64,
      "hit": false,
      "t": 85635.59812499986,
      "d": 486.1106249999866,
      "v": 106
    },
    {
      "midi": 47,
      "hit": false,
      "t": 86148.41812499985,
      "d": 170.94000000000233,
      "v": 89
    },
    {
      "midi": 47,
      "hit": false,
      "t": 86415.51187499985,
      "d": 240.38437499999418,
      "v": 91
    },
    {
      "midi": 59,
      "hit": false,
      "t": 86661.23812499984,
      "d": 325.85437499999534,
      "v": 97
    },
    {
      "midi": 62,
      "hit": false,
      "t": 86666.57999999984,
      "d": 363.2474999999977,
      "v": 103
    },
    {
      "midi": 66,
      "hit": false,
      "t": 86666.57999999984,
      "d": 363.2474999999977,
      "v": 96
    },
    {
      "midi": 50,
      "hit": false,
      "t": 87168.71624999984,
      "d": 405.9824999999837,
      "v": 97
    },
    {
      "midi": 62,
      "hit": false,
      "t": 87200.76749999984,
      "d": 288.461249999993,
      "v": 76
    },
    {
      "midi": 69,
      "hit": false,
      "t": 87200.76749999984,
      "d": 299.1449999999895,
      "v": 93
    },
    {
      "midi": 66,
      "hit": false,
      "t": 87200.76749999984,
      "d": 309.82874999998603,
      "v": 96
    },
    {
      "midi": 50,
      "hit": false,
      "t": 87686.87812499983,
      "d": 368.5893749999959,
      "v": 91
    },
    {
      "midi": 66,
      "hit": false,
      "t": 87692.21999999983,
      "d": 320.5124999999971,
      "v": 109
    },
    {
      "midi": 69,
      "hit": false,
      "t": 87697.56187499982,
      "d": 309.8287500000006,
      "v": 112
    },
    {
      "midi": 62,
      "hit": false,
      "t": 87697.56187499982,
      "d": 325.85437499999534,
      "v": 103
    },
    {
      "midi": 48,
      "hit": false,
      "t": 88199.69812499982,
      "d": 138.88874999999825,
      "v": 103
    },
    {
      "midi": 48,
      "hit": false,
      "t": 88450.76624999983,
      "d": 304.4868750000023,
      "v": 91
    },
    {
      "midi": 67,
      "hit": false,
      "t": 88707.17624999983,
      "d": 523.5037500000035,
      "v": 98
    },
    {
      "midi": 60,
      "hit": false,
      "t": 88707.17624999983,
      "d": 539.5293749999983,
      "v": 92
    },
    {
      "midi": 64,
      "hit": false,
      "t": 88707.17624999983,
      "d": 544.8712499999965,
      "v": 97
    },
    {
      "midi": 48,
      "hit": false,
      "t": 89225.33812499983,
      "d": 128.2049999999872,
      "v": 82
    },
    {
      "midi": 48,
      "hit": false,
      "t": 89492.43187499982,
      "d": 277.77750000001106,
      "v": 103
    },
    {
      "midi": 67,
      "hit": false,
      "t": 89743.49999999983,
      "d": 432.6918750000041,
      "v": 98
    },
    {
      "midi": 60,
      "hit": false,
      "t": 89743.49999999983,
      "d": 443.3756250000006,
      "v": 96
    },
    {
      "midi": 64,
      "hit": false,
      "t": 89743.49999999983,
      "d": 464.7431249999936,
      "v": 99
    },
    {
      "midi": 43,
      "hit": false,
      "t": 90250.97812499982,
      "d": 165.59812500000407,
      "v": 91
    },
    {
      "midi": 43,
      "hit": false,
      "t": 90507.38812499982,
      "d": 267.09375,
      "v": 88
    },
    {
      "midi": 62,
      "hit": false,
      "t": 90758.45624999983,
      "d": 464.7431249999936,
      "v": 92
    },
    {
      "midi": 59,
      "hit": false,
      "t": 90758.45624999983,
      "d": 470.08499999999185,
      "v": 90
    },
    {
      "midi": 67,
      "hit": false,
      "t": 90758.45624999983,
      "d": 470.08499999999185,
      "v": 92
    },
    {
      "midi": 43,
      "hit": false,
      "t": 91260.59249999982,
      "d": 138.88874999999825,
      "v": 87
    },
    {
      "midi": 43,
      "hit": false,
      "t": 91517.00249999983,
      "d": 235.04249999999593,
      "v": 90
    },
    {
      "midi": 67,
      "hit": false,
      "t": 91773.41249999982,
      "d": 411.3243749999965,
      "v": 92
    },
    {
      "midi": 62,
      "hit": false,
      "t": 91778.75437499981,
      "d": 464.7431249999936,
      "v": 92
    },
    {
      "midi": 59,
      "hit": false,
      "t": 91778.75437499981,
      "d": 475.4268749999901,
      "v": 92
    },
    {
      "midi": 47,
      "hit": false,
      "t": 92296.9162499998,
      "d": 192.30749999999534,
      "v": 92
    },
    {
      "midi": 47,
      "hit": false,
      "t": 92558.66812499981,
      "d": 240.38437499999418,
      "v": 95
    },
    {
      "midi": 62,
      "hit": false,
      "t": 92809.7362499998,
      "d": 470.08499999999185,
      "v": 92
    },
    {
      "midi": 66,
      "hit": false,
      "t": 92815.0781249998,
      "d": 486.1106249999866,
      "v": 90
    },
    {
      "midi": 59,
      "hit": false,
      "t": 92815.0781249998,
      "d": 491.45249999998487,
      "v": 87
    },
    {
      "midi": 47,
      "hit": false,
      "t": 93327.89812499977,
      "d": 149.57249999999476,
      "v": 85
    },
    {
      "midi": 47,
      "hit": false,
      "t": 93578.96624999976,
      "d": 235.04249999999593,
      "v": 91
    },
    {
      "midi": 59,
      "hit": false,
      "t": 93830.03437499976,
      "d": 411.3243749999965,
      "v": 90
    },
    {
      "midi": 66,
      "hit": false,
      "t": 93830.03437499976,
      "d": 475.4268749999901,
      "v": 87
    },
    {
      "midi": 62,
      "hit": false,
      "t": 93830.03437499976,
      "d": 507.4781249999942,
      "v": 92
    },
    {
      "midi": 48,
      "hit": false,
      "t": 94353.53812499974,
      "d": 165.59812500000407,
      "v": 83
    },
    {
      "midi": 48,
      "hit": false,
      "t": 94609.94812499975,
      "d": 251.06812500000524,
      "v": 85
    },
    {
      "midi": 60,
      "hit": false,
      "t": 94861.01624999975,
      "d": 405.98249999999825,
      "v": 92
    },
    {
      "midi": 64,
      "hit": false,
      "t": 94861.01624999975,
      "d": 448.71749999999884,
      "v": 98
    },
    {
      "midi": 67,
      "hit": false,
      "t": 94861.01624999975,
      "d": 448.71749999999884,
      "v": 97
    },
    {
      "midi": 50,
      "hit": false,
      "t": 95373.83624999975,
      "d": 138.88874999999825,
      "v": 85
    },
    {
      "midi": 50,
      "hit": false,
      "t": 95630.24624999975,
      "d": 213.6750000000029,
      "v": 89
    },
    {
      "midi": 66,
      "hit": false,
      "t": 95881.31437499975,
      "d": 384.61500000000524,
      "v": 107
    },
    {
      "midi": 62,
      "hit": false,
      "t": 95881.31437499975,
      "d": 454.0593749999971,
      "v": 89
    },
    {
      "midi": 69,
      "hit": false,
      "t": 95886.65624999975,
      "d": 395.29875000000175,
      "v": 103
    },
    {
      "midi": 52,
      "hit": false,
      "t": 96394.13437499975,
      "d": 149.57249999999476,
      "v": 87
    },
    {
      "midi": 52,
      "hit": false,
      "t": 96655.88624999975,
      "d": 256.4100000000035,
      "v": 92
    },
    {
      "midi": 64,
      "hit": false,
      "t": 96906.95437499975,
      "d": 507.4781249999942,
      "v": 99
    },
    {
      "midi": 67,
      "hit": false,
      "t": 96906.95437499975,
      "d": 512.8199999999924,
      "v": 85
    },
    {
      "midi": 59,
      "hit": false,
      "t": 96906.95437499975,
      "d": 528.8456249999872,
      "v": 90
    },
    {
      "midi": 52,
      "hit": false,
      "t": 97425.11624999974,
      "d": 144.2306249999965,
      "v": 88
    },
    {
      "midi": 52,
      "hit": false,
      "t": 97676.18437499974,
      "d": 293.8031250000058,
      "v": 84
    },
    {
      "midi": 64,
      "hit": false,
      "t": 97932.59437499974,
      "d": 379.273125000007,
      "v": 98
    },
    {
      "midi": 67,
      "hit": false,
      "t": 97932.59437499974,
      "d": 379.273125000007,
      "v": 99
    },
    {
      "midi": 59,
      "hit": false,
      "t": 97932.59437499974,
      "d": 422.00812500000757,
      "v": 92
    },
    {
      "midi": 47,
      "hit": false,
      "t": 98450.75624999974,
      "d": 154.91437499999302,
      "v": 92
    },
    {
      "midi": 47,
      "hit": false,
      "t": 98712.50812499973,
      "d": 256.4100000000035,
      "v": 93
    },
    {
      "midi": 62,
      "hit": false,
      "t": 98968.91812499973,
      "d": 459.40124999999534,
      "v": 96
    },
    {
      "midi": 66,
      "hit": false,
      "t": 98968.91812499973,
      "d": 475.4268749999901,
      "v": 91
    },
    {
      "midi": 59,
      "hit": false,
      "t": 98968.91812499973,
      "d": 507.4781249999942,
      "v": 90
    },
    {
      "midi": 47,
      "hit": false,
      "t": 99492.42187499972,
      "d": 160.25625000000582,
      "v": 89
    },
    {
      "midi": 47,
      "hit": false,
      "t": 99738.14812499973,
      "d": 224.35874999999942,
      "v": 95
    },
    {
      "midi": 59,
      "hit": false,
      "t": 99989.21624999974,
      "d": 379.273125000007,
      "v": 91
    },
    {
      "midi": 66,
      "hit": false,
      "t": 99989.21624999974,
      "d": 395.29875000000175,
      "v": 87
    },
    {
      "midi": 62,
      "hit": false,
      "t": 99989.21624999974,
      "d": 528.8456250000017,
      "v": 93
    },
    {
      "midi": 48,
      "hit": false,
      "t": 100507.37812499974,
      "d": 133.546875,
      "v": 87
    },
    {
      "midi": 48,
      "hit": false,
      "t": 100753.10437499975,
      "d": 251.06812500000524,
      "v": 85
    },
    {
      "midi": 60,
      "hit": false,
      "t": 101004.17249999975,
      "d": 534.1875,
      "v": 95
    },
    {
      "midi": 64,
      "hit": false,
      "t": 101009.51437499975,
      "d": 523.5037500000035,
      "v": 97
    },
    {
      "midi": 67,
      "hit": false,
      "t": 101009.51437499975,
      "d": 528.8456250000017,
      "v": 96
    },
    {
      "midi": 48,
      "hit": false,
      "t": 101527.67624999976,
      "d": 149.57249999999476,
      "v": 85
    },
    {
      "midi": 48,
      "hit": false,
      "t": 101784.08624999975,
      "d": 261.75187500000175,
      "v": 91
    },
    {
      "midi": 60,
      "hit": false,
      "t": 102040.49624999975,
      "d": 352.56375000000116,
      "v": 92
    },
    {
      "midi": 64,
      "hit": false,
      "t": 102040.49624999975,
      "d": 379.273125000007,
      "v": 93
    },
    {
      "midi": 67,
      "hit": false,
      "t": 102040.49624999975,
      "d": 379.273125000007,
      "v": 99
    },
    {
      "midi": 47,
      "hit": false,
      "t": 102547.97437499976,
      "d": 892.0931249999994,
      "v": 92
    },
    {
      "midi": 64,
      "hit": false,
      "t": 102553.31624999976,
      "d": 838.6743750000023,
      "v": 97
    },
    {
      "midi": 66,
      "hit": false,
      "t": 102553.31624999976,
      "d": 844.0162500000006,
      "v": 89
    },
    {
      "midi": 59,
      "hit": false,
      "t": 102553.31624999976,
      "d": 870.7256250000064,
      "v": 87
    },
    {
      "midi": 59,
      "hit": false,
      "t": 103573.61437499976,
      "d": 940.1699999999983,
      "v": 92
    },
    {
      "midi": 47,
      "hit": false,
      "t": 103573.61437499976,
      "d": 961.5374999999913,
      "v": 99
    },
    {
      "midi": 67,
      "hit": false,
      "t": 103573.61437499976,
      "d": 961.5374999999913,
      "v": 102
    },
    {
      "midi": 63,
      "hit": false,
      "t": 103578.95624999976,
      "d": 934.828125,
      "v": 93
    },
    {
      "midi": 67,
      "hit": false,
      "t": 104609.93812499975,
      "d": 1303.417499999996,
      "v": 79
    },
    {
      "midi": 64,
      "hit": false,
      "t": 104615.27999999975,
      "d": 1308.7593749999942,
      "v": 93
    },
    {
      "midi": 59,
      "hit": false,
      "t": 104615.27999999975,
      "d": 1324.784999999989,
      "v": 85
    },
    {
      "midi": 52,
      "hit": false,
      "t": 104620.62187499975,
      "d": 1351.4943749999948,
      "v": 92
    },
    {
      "midi": 59,
      "hit": false,
      "t": 106127.03062499974,
      "d": 1335.4687499999854,
      "v": 80
    },
    {
      "midi": 62,
      "hit": false,
      "t": 106132.37249999974,
      "d": 1340.8106249999837,
      "v": 92
    },
    {
      "midi": 47,
      "hit": false,
      "t": 106132.37249999974,
      "d": 1394.2293749999808,
      "v": 91
    },
    {
      "midi": 66,
      "hit": false,
      "t": 106148.39812499973,
      "d": 1303.417499999996,
      "v": 103
    },
    {
      "midi": 60,
      "hit": false,
      "t": 107686.85812499972,
      "d": 1207.2637499999983,
      "v": 85
    },
    {
      "midi": 67,
      "hit": false,
      "t": 107686.85812499972,
      "d": 1223.289374999993,
      "v": 87
    },
    {
      "midi": 64,
      "hit": false,
      "t": 107686.85812499972,
      "d": 1233.9731249999895,
      "v": 95
    },
    {
      "midi": 48,
      "hit": false,
      "t": 107686.85812499972,
      "d": 1303.417499999996,
      "v": 85
    },
    {
      "midi": 66,
      "hit": false,
      "t": 109219.97624999972,
      "d": 1191.2381250000035,
      "v": 91
    },
    {
      "midi": 69,
      "hit": false,
      "t": 109219.97624999972,
      "d": 1196.5800000000017,
      "v": 91
    },
    {
      "midi": 62,
      "hit": false,
      "t": 109225.31812499971,
      "d": 1185.8962500000052,
      "v": 80
    },
    {
      "midi": 50,
      "hit": false,
      "t": 109225.31812499971,
      "d": 1282.050000000003,
      "v": 86
    },
    {
      "midi": 67,
      "hit": false,
      "t": 110763.77812499972,
      "d": 1228.6312500000058,
      "v": 81
    },
    {
      "midi": 64,
      "hit": false,
      "t": 110763.77812499972,
      "d": 1271.3662500000064,
      "v": 92
    },
    {
      "midi": 59,
      "hit": false,
      "t": 110763.77812499972,
      "d": 1319.4431250000052,
      "v": 82
    },
    {
      "midi": 52,
      "hit": false,
      "t": 110763.77812499972,
      "d": 1372.8618750000023,
      "v": 80
    },
    {
      "midi": 59,
      "hit": false,
      "t": 112296.89624999973,
      "d": 1255.340624999997,
      "v": 83
    },
    {
      "midi": 66,
      "hit": false,
      "t": 112296.89624999973,
      "d": 1287.3918750000012,
      "v": 90
    },
    {
      "midi": 62,
      "hit": false,
      "t": 112296.89624999973,
      "d": 1308.7593749999942,
      "v": 95
    },
    {
      "midi": 47,
      "hit": false,
      "t": 112296.89624999973,
      "d": 1362.1781249999913,
      "v": 87
    },
    {
      "midi": 60,
      "hit": false,
      "t": 113835.35624999972,
      "d": 1233.9731249999895,
      "v": 82
    },
    {
      "midi": 48,
      "hit": false,
      "t": 113835.35624999972,
      "d": 1383.5456249999843,
      "v": 80
    },
    {
      "midi": 64,
      "hit": false,
      "t": 113840.69812499972,
      "d": 1217.9474999999948,
      "v": 90
    },
    {
      "midi": 67,
      "hit": false,
      "t": 113840.69812499972,
      "d": 1292.7337499999849,
      "v": 85
    },
    {
      "midi": 66,
      "hit": false,
      "t": 115373.8162499997,
      "d": 1362.1781249999913,
      "v": 93
    },
    {
      "midi": 69,
      "hit": false,
      "t": 115379.1581249997,
      "d": 1335.46875,
      "v": 93
    },
    {
      "midi": 62,
      "hit": false,
      "t": 115379.1581249997,
      "d": 1356.836249999993,
      "v": 82
    },
    {
      "midi": 50,
      "hit": false,
      "t": 115379.1581249997,
      "d": 1452.9899999999907,
      "v": 92
    },
    {
      "midi": 43,
      "hit": false,
      "t": 116912.27624999969,
      "d": 1533.1181250000081,
      "v": 85
    },
    {
      "midi": 59,
      "hit": false,
      "t": 116917.61812499969,
      "d": 1367.520000000004,
      "v": 86
    },
    {
      "midi": 62,
      "hit": false,
      "t": 116917.61812499969,
      "d": 1479.699375000011,
      "v": 95
    },
    {
      "midi": 67,
      "hit": false,
      "t": 116917.61812499969,
      "d": 1501.066875000004,
      "v": 88
    },
    {
      "midi": 60,
      "hit": false,
      "t": 118466.76187499969,
      "d": 1196.5800000000017,
      "v": 88
    },
    {
      "midi": 64,
      "hit": false,
      "t": 118466.76187499969,
      "d": 1287.3918750000012,
      "v": 92
    },
    {
      "midi": 67,
      "hit": false,
      "t": 118466.76187499969,
      "d": 1287.3918750000012,
      "v": 89
    },
    {
      "midi": 48,
      "hit": false,
      "t": 118466.76187499969,
      "d": 1330.1268750000017,
      "v": 92
    },
    {
      "midi": 43,
      "hit": false,
      "t": 119989.19624999969,
      "d": 1292.7337499999994,
      "v": 85
    },
    {
      "midi": 59,
      "hit": false,
      "t": 119989.19624999969,
      "d": 1340.8106249999983,
      "v": 85
    },
    {
      "midi": 67,
      "hit": false,
      "t": 119989.19624999969,
      "d": 1362.1781249999913,
      "v": 88
    },
    {
      "midi": 62,
      "hit": false,
      "t": 119994.53812499969,
      "d": 1335.46875,
      "v": 92
    },
    {
      "midi": 50,
      "hit": false,
      "t": 121538.33999999968,
      "d": 283.11937499999476,
      "v": 92
    },
    {
      "midi": 62,
      "hit": false,
      "t": 121538.33999999968,
      "d": 288.461249999993,
      "v": 106
    },
    {
      "midi": 50,
      "hit": false,
      "t": 122051.15999999967,
      "d": 464.7431249999936,
      "v": 92
    },
    {
      "midi": 62,
      "hit": false,
      "t": 122051.15999999967,
      "d": 480.76874999998836,
      "v": 103
    },
    {
      "midi": 50,
      "hit": false,
      "t": 122563.97999999966,
      "d": 416.66624999999476,
      "v": 87
    },
    {
      "midi": 62,
      "hit": false,
      "t": 122563.97999999966,
      "d": 427.34999999999127,
      "v": 100
    },
    {
      "midi": 62,
      "hit": false,
      "t": 123076.79999999965,
      "d": 373.9312499999942,
      "v": 106
    },
    {
      "midi": 50,
      "hit": false,
      "t": 123076.79999999965,
      "d": 416.66624999999476,
      "v": 102
    },
    {
      "midi": 43,
      "hit": false,
      "t": 123578.93624999965,
      "d": 165.59812500000407,
      "v": 95
    },
    {
      "midi": 43,
      "hit": false,
      "t": 123835.34624999965,
      "d": 283.11937499999476,
      "v": 92
    },
    {
      "midi": 59,
      "hit": false,
      "t": 124091.75624999966,
      "d": 448.7174999999843,
      "v": 95
    },
    {
      "midi": 67,
      "hit": false,
      "t": 124091.75624999966,
      "d": 502.1362499999814,
      "v": 93
    },
    {
      "midi": 62,
      "hit": false,
      "t": 124097.09812499965,
      "d": 571.5806249999878,
      "v": 100
    },
    {
      "midi": 43,
      "hit": false,
      "t": 124599.23437499964,
      "d": 154.91437500000757,
      "v": 80
    },
    {
      "midi": 43,
      "hit": false,
      "t": 124866.32812499965,
      "d": 293.8031250000058,
      "v": 83
    },
    {
      "midi": 67,
      "hit": false,
      "t": 125117.39624999966,
      "d": 464.7431249999936,
      "v": 97
    },
    {
      "midi": 60,
      "hit": false,
      "t": 125117.39624999966,
      "d": 475.4268749999901,
      "v": 92
    },
    {
      "midi": 64,
      "hit": false,
      "t": 125122.73812499965,
      "d": 454.0593749999971,
      "v": 95
    },
    {
      "midi": 43,
      "hit": false,
      "t": 125630.21624999965,
      "d": 149.57249999999476,
      "v": 87
    },
    {
      "midi": 43,
      "hit": false,
      "t": 125886.62624999964,
      "d": 267.09375,
      "v": 85
    },
    {
      "midi": 59,
      "hit": false,
      "t": 126137.69437499964,
      "d": 512.8199999999924,
      "v": 97
    },
    {
      "midi": 67,
      "hit": false,
      "t": 126137.69437499964,
      "d": 571.5806249999878,
      "v": 93
    },
    {
      "midi": 62,
      "hit": false,
      "t": 126137.69437499964,
      "d": 592.9481249999808,
      "v": 98
    },
    {
      "midi": 43,
      "hit": false,
      "t": 126655.85624999963,
      "d": 144.2306249999965,
      "v": 92
    },
    {
      "midi": 43,
      "hit": false,
      "t": 126912.26624999964,
      "d": 325.8543750000099,
      "v": 85
    },
    {
      "midi": 64,
      "hit": false,
      "t": 127168.67624999964,
      "d": 486.11062500000116,
      "v": 97
    },
    {
      "midi": 67,
      "hit": false,
      "t": 127168.67624999964,
      "d": 496.7943749999977,
      "v": 91
    },
    {
      "midi": 60,
      "hit": false,
      "t": 127168.67624999964,
      "d": 518.1618749999907,
      "v": 92
    },
    {
      "midi": 48,
      "hit": false,
      "t": 127681.49624999963,
      "d": 170.94000000000233,
      "v": 86
    },
    {
      "midi": 48,
      "hit": false,
      "t": 127937.90624999964,
      "d": 245.72625000000698,
      "v": 84
    },
    {
      "midi": 64,
      "hit": false,
      "t": 128188.97437499964,
      "d": 496.7943749999977,
      "v": 106
    },
    {
      "midi": 67,
      "hit": false,
      "t": 128188.97437499964,
      "d": 539.5293749999837,
      "v": 103
    },
    {
      "midi": 60,
      "hit": false,
      "t": 128188.97437499964,
      "d": 544.871249999982,
      "v": 99
    },
    {
      "midi": 48,
      "hit": false,
      "t": 128707.13624999963,
      "d": 181.62374999998428,
      "v": 85
    },
    {
      "midi": 48,
      "hit": false,
      "t": 128963.54624999962,
      "d": 283.1193750000093,
      "v": 85
    },
    {
      "midi": 69,
      "hit": false,
      "t": 129219.95624999962,
      "d": 480.7687500000029,
      "v": 95
    },
    {
      "midi": 64,
      "hit": false,
      "t": 129219.95624999962,
      "d": 523.5037500000035,
      "v": 99
    },
    {
      "midi": 60,
      "hit": false,
      "t": 129219.95624999962,
      "d": 539.5293749999983,
      "v": 93
    },
    {
      "midi": 48,
      "hit": false,
      "t": 129738.11812499963,
      "d": 170.93999999998778,
      "v": 85
    },
    {
      "midi": 48,
      "hit": false,
      "t": 129989.18624999962,
      "d": 283.1193750000093,
      "v": 84
    },
    {
      "midi": 64,
      "hit": false,
      "t": 130245.59624999962,
      "d": 459.4012500000099,
      "v": 100
    },
    {
      "midi": 67,
      "hit": false,
      "t": 130245.59624999962,
      "d": 475.42687500000466,
      "v": 99
    },
    {
      "midi": 60,
      "hit": false,
      "t": 130245.59624999962,
      "d": 496.7943749999977,
      "v": 95
    },
    {
      "midi": 48,
      "hit": false,
      "t": 130753.07437499962,
      "d": 176.28187500000058,
      "v": 89
    },
    {
      "midi": 48,
      "hit": false,
      "t": 131009.48437499962,
      "d": 309.82875000001513,
      "v": 87
    },
    {
      "midi": 60,
      "hit": false,
      "t": 131265.89437499963,
      "d": 464.74312500000815,
      "v": 93
    },
    {
      "midi": 69,
      "hit": false,
      "t": 131265.89437499963,
      "d": 491.45250000001397,
      "v": 91
    },
    {
      "midi": 64,
      "hit": false,
      "t": 131271.23624999964,
      "d": 523.5037500000035,
      "v": 96
    },
    {
      "midi": 50,
      "hit": false,
      "t": 131784.05624999964,
      "d": 154.91437499999302,
      "v": 87
    },
    {
      "midi": 50,
      "hit": false,
      "t": 132045.80812499963,
      "d": 267.09375,
      "v": 90
    },
    {
      "midi": 69,
      "hit": false,
      "t": 132296.87624999962,
      "d": 470.08500000002095,
      "v": 100
    },
    {
      "midi": 62,
      "hit": false,
      "t": 132296.87624999962,
      "d": 486.11062500003027,
      "v": 91
    },
    {
      "midi": 66,
      "hit": false,
      "t": 132296.87624999962,
      "d": 486.11062500003027,
      "v": 103
    },
    {
      "midi": 50,
      "hit": false,
      "t": 132809.69624999966,
      "d": 149.5725000000093,
      "v": 82
    },
    {
      "midi": 50,
      "hit": false,
      "t": 133066.10624999966,
      "d": 267.09375,
      "v": 80
    },
    {
      "midi": 66,
      "hit": false,
      "t": 133322.51624999967,
      "d": 395.2987499999872,
      "v": 99
    },
    {
      "midi": 69,
      "hit": false,
      "t": 133322.51624999967,
      "d": 427.3499999999767,
      "v": 100
    },
    {
      "midi": 62,
      "hit": false,
      "t": 133322.51624999967,
      "d": 486.11062499997206,
      "v": 89
    },
    {
      "midi": 48,
      "hit": false,
      "t": 133835.33624999964,
      "d": 144.2306249999965,
      "v": 81
    },
    {
      "midi": 48,
      "hit": false,
      "t": 134097.08812499963,
      "d": 245.72625000000698,
      "v": 86
    },
    {
      "midi": 64,
      "hit": false,
      "t": 134348.15624999965,
      "d": 528.8456250000163,
      "v": 97
    },
    {
      "midi": 60,
      "hit": false,
      "t": 134348.15624999965,
      "d": 550.2131250000093,
      "v": 91
    },
    {
      "midi": 67,
      "hit": false,
      "t": 134348.15624999965,
      "d": 550.2131250000093,
      "v": 96
    },
    {
      "midi": 48,
      "hit": false,
      "t": 134871.65999999965,
      "d": 160.25625000000582,
      "v": 82
    },
    {
      "midi": 48,
      "hit": false,
      "t": 135117.38624999966,
      "d": 624.9993749999849,
      "v": 88
    },
    {
      "midi": 60,
      "hit": false,
      "t": 135373.79624999966,
      "d": 336.53812499999185,
      "v": 96
    },
    {
      "midi": 64,
      "hit": false,
      "t": 135373.79624999966,
      "d": 400.6406249999709,
      "v": 103
    },
    {
      "midi": 67,
      "hit": false,
      "t": 135373.79624999966,
      "d": 400.6406249999709,
      "v": 102
    },
    {
      "midi": 43,
      "hit": false,
      "t": 135902.64187499962,
      "d": 160.25625000000582,
      "v": 78
    },
    {
      "midi": 43,
      "hit": false,
      "t": 136153.70999999964,
      "d": 224.35875000001397,
      "v": 93
    },
    {
      "midi": 67,
      "hit": false,
      "t": 136394.09437499967,
      "d": 528.8456250000454,
      "v": 91
    },
    {
      "midi": 59,
      "hit": false,
      "t": 136399.43624999968,
      "d": 405.9825000000128,
      "v": 92
    },
    {
      "midi": 62,
      "hit": false,
      "t": 136399.43624999968,
      "d": 566.2387500000186,
      "v": 93
    },
    {
      "midi": 43,
      "hit": false,
      "t": 136917.5981249997,
      "d": 149.5725000000093,
      "v": 87
    },
    {
      "midi": 43,
      "hit": false,
      "t": 137157.98249999972,
      "d": 256.4100000000035,
      "v": 91
    },
    {
      "midi": 67,
      "hit": false,
      "t": 137425.07624999972,
      "d": 459.40125000002445,
      "v": 96
    },
    {
      "midi": 60,
      "hit": false,
      "t": 137425.07624999972,
      "d": 470.08500000002095,
      "v": 92
    },
    {
      "midi": 64,
      "hit": false,
      "t": 137430.41812499973,
      "d": 491.45250000001397,
      "v": 97
    },
    {
      "midi": 43,
      "hit": false,
      "t": 137937.89624999976,
      "d": 165.59812499998952,
      "v": 89
    },
    {
      "midi": 43,
      "hit": false,
      "t": 138199.64812499975,
      "d": 272.4356250000128,
      "v": 90
    },
    {
      "midi": 59,
      "hit": false,
      "t": 138456.05812499975,
      "d": 379.273125000007,
      "v": 97
    },
    {
      "midi": 67,
      "hit": false,
      "t": 138456.05812499975,
      "d": 464.74312500000815,
      "v": 96
    },
    {
      "midi": 62,
      "hit": false,
      "t": 138461.39999999976,
      "d": 496.7943749999977,
      "v": 95
    },
    {
      "midi": 43,
      "hit": false,
      "t": 138979.56187499975,
      "d": 160.25625000000582,
      "v": 89
    },
    {
      "midi": 43,
      "hit": false,
      "t": 139235.97187499976,
      "d": 240.38437499999418,
      "v": 88
    },
    {
      "midi": 67,
      "hit": false,
      "t": 139492.38187499976,
      "d": 400.640625,
      "v": 107
    },
    {
      "midi": 60,
      "hit": false,
      "t": 139492.38187499976,
      "d": 405.9825000000128,
      "v": 100
    },
    {
      "midi": 64,
      "hit": false,
      "t": 139492.38187499976,
      "d": 422.0081250000221,
      "v": 107
    },
    {
      "midi": 43,
      "hit": false,
      "t": 139989.1762499998,
      "d": 144.2306249999965,
      "v": 92
    },
    {
      "midi": 43,
      "hit": false,
      "t": 140240.24437499978,
      "d": 202.99124999999185,
      "v": 87
    },
    {
      "midi": 59,
      "hit": false,
      "t": 140501.99624999976,
      "d": 448.71749999999884,
      "v": 90
    },
    {
      "midi": 67,
      "hit": false,
      "t": 140501.99624999976,
      "d": 502.1362500000105,
      "v": 95
    },
    {
      "midi": 62,
      "hit": false,
      "t": 140507.33812499978,
      "d": 560.8968750000058,
      "v": 92
    },
    {
      "midi": 43,
      "hit": false,
      "t": 141020.15812499978,
      "d": 149.5725000000093,
      "v": 86
    },
    {
      "midi": 43,
      "hit": false,
      "t": 141271.2262499998,
      "d": 251.0681249999907,
      "v": 86
    },
    {
      "midi": 67,
      "hit": false,
      "t": 141527.6362499998,
      "d": 454.05937500001164,
      "v": 103
    },
    {
      "midi": 64,
      "hit": false,
      "t": 141527.6362499998,
      "d": 470.08500000002095,
      "v": 103
    },
    {
      "midi": 60,
      "hit": false,
      "t": 141527.6362499998,
      "d": 496.7943750000268,
      "v": 99
    },
    {
      "midi": 43,
      "hit": false,
      "t": 142051.13999999984,
      "d": 144.2306249999965,
      "v": 85
    },
    {
      "midi": 43,
      "hit": false,
      "t": 142296.86624999985,
      "d": 261.7518750000163,
      "v": 85
    },
    {
      "midi": 59,
      "hit": false,
      "t": 142553.27624999985,
      "d": 454.05937500001164,
      "v": 92
    },
    {
      "midi": 62,
      "hit": false,
      "t": 142553.27624999985,
      "d": 518.1618750000198,
      "v": 93
    },
    {
      "midi": 67,
      "hit": false,
      "t": 142558.61812499986,
      "d": 496.7943749999977,
      "v": 93
    },
    {
      "midi": 43,
      "hit": false,
      "t": 143071.43812499987,
      "d": 170.94000000000233,
      "v": 82
    },
    {
      "midi": 43,
      "hit": false,
      "t": 143338.53187499987,
      "d": 240.38437499999418,
      "v": 92
    },
    {
      "midi": 64,
      "hit": false,
      "t": 143578.91624999986,
      "d": 475.42687500000466,
      "v": 98
    },
    {
      "midi": 67,
      "hit": false,
      "t": 143578.91624999986,
      "d": 491.45250000001397,
      "v": 99
    },
    {
      "midi": 60,
      "hit": false,
      "t": 143578.91624999986,
      "d": 507.4781250000233,
      "v": 92
    },
    {
      "midi": 48,
      "hit": false,
      "t": 144497.71874999988,
      "d": 101.49562500001048,
      "v": 82
    },
    {
      "midi": 67,
      "hit": false,
      "t": 144604.5562499999,
      "d": 528.8456250000163,
      "v": 110
    },
    {
      "midi": 64,
      "hit": false,
      "t": 144609.89812499992,
      "d": 534.1875,
      "v": 114
    },
    {
      "midi": 60,
      "hit": false,
      "t": 144609.89812499992,
      "d": 544.8712499999965,
      "v": 107
    },
    {
      "midi": 48,
      "hit": false,
      "t": 145117.3762499999,
      "d": 154.91437499999302,
      "v": 78
    },
    {
      "midi": 48,
      "hit": false,
      "t": 145373.78624999992,
      "d": 240.38437499999418,
      "v": 88
    },
    {
      "midi": 69,
      "hit": false,
      "t": 145630.19624999992,
      "d": 491.45250000001397,
      "v": 95
    },
    {
      "midi": 60,
      "hit": false,
      "t": 145630.19624999992,
      "d": 555.5550000000221,
      "v": 92
    },
    {
      "midi": 64,
      "hit": false,
      "t": 145635.53812499993,
      "d": 502.1362500000105,
      "v": 96
    },
    {
      "midi": 48,
      "hit": false,
      "t": 146143.01624999996,
      "d": 133.546875,
      "v": 85
    },
    {
      "midi": 48,
      "hit": false,
      "t": 146404.76812499994,
      "d": 197.64937500000815,
      "v": 89
    },
    {
      "midi": 67,
      "hit": false,
      "t": 146655.83624999996,
      "d": 427.3500000000058,
      "v": 97
    },
    {
      "midi": 64,
      "hit": false,
      "t": 146655.83624999996,
      "d": 464.74312500000815,
      "v": 95
    },
    {
      "midi": 60,
      "hit": false,
      "t": 146655.83624999996,
      "d": 480.76875000001746,
      "v": 91
    },
    {
      "midi": 48,
      "hit": false,
      "t": 147168.65624999997,
      "d": 149.5725000000093,
      "v": 86
    },
    {
      "midi": 48,
      "hit": false,
      "t": 147419.724375,
      "d": 219.01687500000116,
      "v": 86
    },
    {
      "midi": 60,
      "hit": false,
      "t": 147676.134375,
      "d": 395.2987499999872,
      "v": 93
    },
    {
      "midi": 69,
      "hit": false,
      "t": 147676.134375,
      "d": 448.71749999999884,
      "v": 100
    },
    {
      "midi": 64,
      "hit": false,
      "t": 147676.134375,
      "d": 464.74312500000815,
      "v": 102
    },
    {
      "midi": 50,
      "hit": false,
      "t": 148194.29625,
      "d": 133.546875,
      "v": 92
    },
    {
      "midi": 50,
      "hit": false,
      "t": 148445.364375,
      "d": 272.4356250000128,
      "v": 89
    },
    {
      "midi": 62,
      "hit": false,
      "t": 148701.774375,
      "d": 507.4781250000233,
      "v": 92
    },
    {
      "midi": 66,
      "hit": false,
      "t": 148701.774375,
      "d": 507.4781250000233,
      "v": 109
    },
    {
      "midi": 69,
      "hit": false,
      "t": 148707.11625000002,
      "d": 496.7943749999977,
      "v": 103
    },
    {
      "midi": 50,
      "hit": false,
      "t": 149219.93625000003,
      "d": 128.2049999999872,
      "v": 85
    },
    {
      "midi": 50,
      "hit": false,
      "t": 149471.00437500002,
      "d": 293.8031249999767,
      "v": 82
    },
    {
      "midi": 66,
      "hit": false,
      "t": 149732.75625,
      "d": 384.6149999999907,
      "v": 109
    },
    {
      "midi": 69,
      "hit": false,
      "t": 149732.75625,
      "d": 432.6918749999895,
      "v": 100
    },
    {
      "midi": 62,
      "hit": false,
      "t": 149732.75625,
      "d": 459.40124999999534,
      "v": 92
    },
    {
      "midi": 48,
      "hit": false,
      "t": 150240.234375,
      "d": 138.8887500000128,
      "v": 85
    },
    {
      "midi": 48,
      "hit": false,
      "t": 150496.644375,
      "d": 219.01687500000116,
      "v": 86
    },
    {
      "midi": 60,
      "hit": false,
      "t": 150758.39625,
      "d": 523.5037500000035,
      "v": 92
    },
    {
      "midi": 64,
      "hit": false,
      "t": 150758.39625,
      "d": 539.5293750000128,
      "v": 95
    },
    {
      "midi": 67,
      "hit": false,
      "t": 150758.39625,
      "d": 560.8968750000058,
      "v": 97
    },
    {
      "midi": 48,
      "hit": false,
      "t": 151260.5325,
      "d": 176.28187499998603,
      "v": 85
    },
    {
      "midi": 48,
      "hit": false,
      "t": 151522.284375,
      "d": 320.51249999998254,
      "v": 83
    },
    {
      "midi": 60,
      "hit": false,
      "t": 151784.03624999998,
      "d": 416.6662500000093,
      "v": 84
    },
    {
      "midi": 64,
      "hit": false,
      "t": 151784.03624999998,
      "d": 443.37562500001513,
      "v": 89
    },
    {
      "midi": 67,
      "hit": false,
      "t": 151784.03624999998,
      "d": 443.37562500001513,
      "v": 92
    },
    {
      "midi": 43,
      "hit": false,
      "t": 152296.85624999998,
      "d": 149.5725000000093,
      "v": 84
    },
    {
      "midi": 43,
      "hit": false,
      "t": 152558.608125,
      "d": 235.04250000001048,
      "v": 85
    },
    {
      "midi": 59,
      "hit": false,
      "t": 152815.018125,
      "d": 422.008124999993,
      "v": 97
    },
    {
      "midi": 67,
      "hit": false,
      "t": 152815.018125,
      "d": 491.45249999998487,
      "v": 93
    },
    {
      "midi": 62,
      "hit": false,
      "t": 152815.018125,
      "d": 523.5037499999744,
      "v": 92
    },
    {
      "midi": 43,
      "hit": false,
      "t": 153327.83812499998,
      "d": 138.8887499999837,
      "v": 85
    },
    {
      "midi": 43,
      "hit": false,
      "t": 153584.24812499995,
      "d": 149.5725000000093,
      "v": 85
    },
    {
      "midi": 64,
      "hit": false,
      "t": 153840.65812499996,
      "d": 411.3243749999965,
      "v": 95
    },
    {
      "midi": 67,
      "hit": false,
      "t": 153840.65812499996,
      "d": 438.0337500000023,
      "v": 95
    },
    {
      "midi": 60,
      "hit": false,
      "t": 153840.65812499996,
      "d": 448.71749999999884,
      "v": 92
    },
    {
      "midi": 43,
      "hit": false,
      "t": 154348.13624999995,
      "d": 160.25625000000582,
      "v": 86
    },
    {
      "midi": 43,
      "hit": false,
      "t": 154620.57187499997,
      "d": 160.25625000000582,
      "v": 85
    },
    {
      "midi": 67,
      "hit": false,
      "t": 154860.95624999996,
      "d": 555.5550000000221,
      "v": 87
    },
    {
      "midi": 59,
      "hit": false,
      "t": 154866.29812499997,
      "d": 427.3500000000058,
      "v": 92
    },
    {
      "midi": 62,
      "hit": false,
      "t": 154871.63999999998,
      "d": 528.8456249999872,
      "v": 92
    },
    {
      "midi": 43,
      "hit": false,
      "t": 155373.77624999997,
      "d": 144.2306250000256,
      "v": 80
    },
    {
      "midi": 43,
      "hit": false,
      "t": 155646.21187499998,
      "d": 176.28187499998603,
      "v": 85
    },
    {
      "midi": 60,
      "hit": false,
      "t": 155897.27999999997,
      "d": 470.08500000002095,
      "v": 89
    },
    {
      "midi": 64,
      "hit": false,
      "t": 155902.62187499998,
      "d": 454.05937500001164,
      "v": 97
    },
    {
      "midi": 67,
      "hit": false,
      "t": 155902.62187499998,
      "d": 475.42687500000466,
      "v": 91
    },
    {
      "midi": 43,
      "hit": false,
      "t": 156404.758125,
      "d": 154.91437499999302,
      "v": 85
    },
    {
      "midi": 43,
      "hit": false,
      "t": 156671.851875,
      "d": 186.96562500001164,
      "v": 85
    },
    {
      "midi": 67,
      "hit": false,
      "t": 156912.23625000002,
      "d": 544.8712500000256,
      "v": 92
    },
    {
      "midi": 59,
      "hit": false,
      "t": 156917.57812500003,
      "d": 416.6662500000093,
      "v": 92
    },
    {
      "midi": 62,
      "hit": false,
      "t": 156917.57812500003,
      "d": 518.1618750000198,
      "v": 96
    },
    {
      "midi": 43,
      "hit": false,
      "t": 157425.05625000005,
      "d": 149.5724999999802,
      "v": 82
    },
    {
      "midi": 43,
      "hit": false,
      "t": 157681.46625000003,
      "d": 213.67499999998836,
      "v": 78
    },
    {
      "midi": 64,
      "hit": false,
      "t": 157937.87625,
      "d": 416.6662500000093,
      "v": 92
    },
    {
      "midi": 60,
      "hit": false,
      "t": 157937.87625,
      "d": 454.05937500001164,
      "v": 93
    },
    {
      "midi": 67,
      "hit": false,
      "t": 157937.87625,
      "d": 480.76875000001746,
      "v": 95
    },
    {
      "midi": 43,
      "hit": false,
      "t": 158450.69625,
      "d": 149.5725000000093,
      "v": 85
    },
    {
      "midi": 43,
      "hit": false,
      "t": 158723.13187500002,
      "d": 170.94000000000233,
      "v": 77
    },
    {
      "midi": 67,
      "hit": false,
      "t": 158963.51625000002,
      "d": 555.5550000000221,
      "v": 92
    },
    {
      "midi": 59,
      "hit": false,
      "t": 158968.85812500003,
      "d": 411.3243749999965,
      "v": 91
    },
    {
      "midi": 62,
      "hit": false,
      "t": 158968.85812500003,
      "d": 544.8712499999965,
      "v": 93
    },
    {
      "midi": 43,
      "hit": false,
      "t": 159492.36187500003,
      "d": 144.2306249999965,
      "v": 85
    },
    {
      "midi": 43,
      "hit": false,
      "t": 159754.11375000002,
      "d": 208.33312500000466,
      "v": 84
    },
    {
      "midi": 67,
      "hit": false,
      "t": 159999.84000000003,
      "d": 523.5037500000326,
      "v": 98
    },
    {
      "midi": 60,
      "hit": false,
      "t": 159999.84000000003,
      "d": 528.8456250000454,
      "v": 89
    },
    {
      "midi": 64,
      "hit": false,
      "t": 160010.52375000002,
      "d": 496.7943750000268,
      "v": 102
    },
    {
      "midi": 48,
      "hit": false,
      "t": 160501.97625000004,
      "d": 160.25625000003492,
      "v": 86
    },
    {
      "midi": 48,
      "hit": false,
      "t": 160774.41187500008,
      "d": 245.72625000000698,
      "v": 91
    },
    {
      "midi": 64,
      "hit": false,
      "t": 161025.4800000001,
      "d": 448.71749999999884,
      "v": 100
    },
    {
      "midi": 67,
      "hit": false,
      "t": 161025.4800000001,
      "d": 486.11062500000116,
      "v": 103
    },
    {
      "midi": 60,
      "hit": false,
      "t": 161025.4800000001,
      "d": 507.4781249999942,
      "v": 91
    },
    {
      "midi": 48,
      "hit": false,
      "t": 161522.2743750001,
      "d": 165.59812499998952,
      "v": 85
    },
    {
      "midi": 48,
      "hit": false,
      "t": 161784.02625000008,
      "d": 240.38437499999418,
      "v": 82
    },
    {
      "midi": 69,
      "hit": false,
      "t": 162045.77812500007,
      "d": 518.1618749999907,
      "v": 103
    },
    {
      "midi": 64,
      "hit": false,
      "t": 162045.77812500007,
      "d": 534.1875,
      "v": 106
    },
    {
      "midi": 60,
      "hit": false,
      "t": 162045.77812500007,
      "d": 560.8968750000058,
      "v": 96
    },
    {
      "midi": 48,
      "hit": false,
      "t": 162563.94000000006,
      "d": 176.28187500001513,
      "v": 87
    },
    {
      "midi": 48,
      "hit": false,
      "t": 162831.0337500001,
      "d": 229.70062499999767,
      "v": 89
    },
    {
      "midi": 67,
      "hit": false,
      "t": 163087.4437500001,
      "d": 459.40124999999534,
      "v": 95
    },
    {
      "midi": 64,
      "hit": false,
      "t": 163087.4437500001,
      "d": 475.42687500000466,
      "v": 93
    },
    {
      "midi": 60,
      "hit": false,
      "t": 163087.4437500001,
      "d": 512.820000000007,
      "v": 84
    },
    {
      "midi": 48,
      "hit": false,
      "t": 163584.2381250001,
      "d": 149.5725000000093,
      "v": 91
    },
    {
      "midi": 48,
      "hit": false,
      "t": 163845.9900000001,
      "d": 256.4100000000035,
      "v": 89
    },
    {
      "midi": 60,
      "hit": false,
      "t": 164097.0581250001,
      "d": 427.3500000000058,
      "v": 95
    },
    {
      "midi": 69,
      "hit": false,
      "t": 164097.0581250001,
      "d": 475.42687500000466,
      "v": 95
    },
    {
      "midi": 64,
      "hit": false,
      "t": 164102.4000000001,
      "d": 459.40124999999534,
      "v": 99
    },
    {
      "midi": 50,
      "hit": false,
      "t": 164604.5362500001,
      "d": 160.25625000000582,
      "v": 87
    },
    {
      "midi": 50,
      "hit": false,
      "t": 164860.9462500001,
      "d": 251.0681249999907,
      "v": 86
    },
    {
      "midi": 62,
      "hit": false,
      "t": 165117.3562500001,
      "d": 502.1362500000396,
      "v": 86
    },
    {
      "midi": 66,
      "hit": false,
      "t": 165122.6981250001,
      "d": 475.42687500000466,
      "v": 86
    },
    {
      "midi": 69,
      "hit": false,
      "t": 165122.6981250001,
      "d": 491.45250000001397,
      "v": 92
    },
    {
      "midi": 50,
      "hit": false,
      "t": 165630.17625000014,
      "d": 138.8887500000128,
      "v": 91
    },
    {
      "midi": 50,
      "hit": false,
      "t": 165881.24437500015,
      "d": 256.4100000000035,
      "v": 85
    },
    {
      "midi": 66,
      "hit": false,
      "t": 166132.31250000015,
      "d": 427.3500000000058,
      "v": 99
    },
    {
      "midi": 62,
      "hit": false,
      "t": 166132.31250000015,
      "d": 496.7943749999977,
      "v": 92
    },
    {
      "midi": 69,
      "hit": false,
      "t": 166137.65437500016,
      "d": 464.74312499997905,
      "v": 100
    },
    {
      "midi": 48,
      "hit": false,
      "t": 166645.13250000015,
      "d": 149.5725000000093,
      "v": 85
    },
    {
      "midi": 48,
      "hit": false,
      "t": 166912.22625000015,
      "d": 235.04250000001048,
      "v": 85
    },
    {
      "midi": 60,
      "hit": false,
      "t": 167168.63625000016,
      "d": 523.5037500000035,
      "v": 87
    },
    {
      "midi": 64,
      "hit": false,
      "t": 167168.63625000016,
      "d": 528.8456250000163,
      "v": 91
    },
    {
      "midi": 67,
      "hit": false,
      "t": 167168.63625000016,
      "d": 544.8712500000256,
      "v": 91
    },
    {
      "midi": 48,
      "hit": false,
      "t": 167676.11437500015,
      "d": 149.57250000003842,
      "v": 82
    },
    {
      "midi": 48,
      "hit": false,
      "t": 167937.8662500002,
      "d": 272.4356250000128,
      "v": 91
    },
    {
      "midi": 60,
      "hit": false,
      "t": 168194.2762500002,
      "d": 395.2987500000163,
      "v": 92
    },
    {
      "midi": 64,
      "hit": false,
      "t": 168194.2762500002,
      "d": 448.71750000002794,
      "v": 96
    },
    {
      "midi": 67,
      "hit": false,
      "t": 168194.2762500002,
      "d": 448.71750000002794,
      "v": 96
    },
    {
      "midi": 43,
      "hit": false,
      "t": 168701.75437500022,
      "d": 149.5725000000093,
      "v": 88
    },
    {
      "midi": 43,
      "hit": false,
      "t": 168963.5062500002,
      "d": 293.8031250000058,
      "v": 84
    },
    {
      "midi": 62,
      "hit": false,
      "t": 169219.9162500002,
      "d": 464.74312499997905,
      "v": 97
    },
    {
      "midi": 59,
      "hit": false,
      "t": 169219.9162500002,
      "d": 512.8199999999779,
      "v": 93
    },
    {
      "midi": 67,
      "hit": false,
      "t": 169219.9162500002,
      "d": 528.8456249999872,
      "v": 93
    },
    {
      "midi": 48,
      "hit": false,
      "t": 169722.0525000002,
      "d": 202.99124999999185,
      "v": 85
    },
    {
      "midi": 48,
      "hit": false,
      "t": 169989.14625000017,
      "d": 224.35875000001397,
      "v": 76
    },
    {
      "midi": 67,
      "hit": false,
      "t": 170245.55625000017,
      "d": 480.76875000001746,
      "v": 89
    },
    {
      "midi": 60,
      "hit": false,
      "t": 170245.55625000017,
      "d": 507.4781250000233,
      "v": 92
    },
    {
      "midi": 64,
      "hit": false,
      "t": 170250.89812500018,
      "d": 470.08499999999185,
      "v": 100
    },
    {
      "midi": 43,
      "hit": false,
      "t": 170763.7181250002,
      "d": 133.546875,
      "v": 83
    },
    {
      "midi": 43,
      "hit": false,
      "t": 171030.8118750002,
      "d": 229.70062499999767,
      "v": 86
    },
    {
      "midi": 59,
      "hit": false,
      "t": 171271.19625000018,
      "d": 502.1362499999814,
      "v": 95
    },
    {
      "midi": 62,
      "hit": false,
      "t": 171271.19625000018,
      "d": 528.8456249999872,
      "v": 95
    },
    {
      "midi": 67,
      "hit": false,
      "t": 171271.19625000018,
      "d": 555.554999999993,
      "v": 93
    },
    {
      "midi": 43,
      "hit": false,
      "t": 171789.35812500017,
      "d": 149.5725000000093,
      "v": 85
    },
    {
      "midi": 43,
      "hit": false,
      "t": 172056.45187500017,
      "d": 181.62374999999884,
      "v": 77
    },
    {
      "midi": 64,
      "hit": false,
      "t": 172296.83625000017,
      "d": 422.008124999993,
      "v": 98
    },
    {
      "midi": 67,
      "hit": false,
      "t": 172296.83625000017,
      "d": 432.6918749999895,
      "v": 98
    },
    {
      "midi": 60,
      "hit": false,
      "t": 172296.83625000017,
      "d": 448.71749999999884,
      "v": 92
    },
    {
      "midi": 43,
      "hit": false,
      "t": 172809.65625000017,
      "d": 144.2306249999965,
      "v": 85
    },
    {
      "midi": 43,
      "hit": false,
      "t": 173066.06625000018,
      "d": 208.33312500000466,
      "v": 87
    },
    {
      "midi": 59,
      "hit": false,
      "t": 173327.8181250002,
      "d": 448.71749999999884,
      "v": 95
    },
    {
      "midi": 67,
      "hit": false,
      "t": 173327.8181250002,
      "d": 464.74312500000815,
      "v": 98
    },
    {
      "midi": 62,
      "hit": false,
      "t": 173327.8181250002,
      "d": 507.4781249999942,
      "v": 96
    },
    {
      "midi": 43,
      "hit": false,
      "t": 173840.6381250002,
      "d": 144.2306249999965,
      "v": 86
    },
    {
      "midi": 43,
      "hit": false,
      "t": 174107.7318750002,
      "d": 181.62374999999884,
      "v": 85
    },
    {
      "midi": 60,
      "hit": false,
      "t": 174358.8000000002,
      "d": 400.6406249999709,
      "v": 92
    },
    {
      "midi": 64,
      "hit": false,
      "t": 174358.8000000002,
      "d": 400.6406249999709,
      "v": 97
    },
    {
      "midi": 67,
      "hit": false,
      "t": 174358.8000000002,
      "d": 411.3243749999674,
      "v": 96
    },
    {
      "midi": 43,
      "hit": false,
      "t": 174855.59437500016,
      "d": 133.546875,
      "v": 82
    },
    {
      "midi": 43,
      "hit": false,
      "t": 175122.68812500016,
      "d": 170.94000000000233,
      "v": 91
    },
    {
      "midi": 59,
      "hit": false,
      "t": 175368.41437500017,
      "d": 373.9312500000233,
      "v": 91
    },
    {
      "midi": 67,
      "hit": false,
      "t": 175373.75625000018,
      "d": 438.0337500000023,
      "v": 92
    },
    {
      "midi": 62,
      "hit": false,
      "t": 175373.75625000018,
      "d": 512.820000000007,
      "v": 91
    },
    {
      "midi": 43,
      "hit": false,
      "t": 175891.9181250002,
      "d": 138.8887499999837,
      "v": 91
    },
    {
      "midi": 43,
      "hit": false,
      "t": 176164.35375000018,
      "d": 186.96562499998254,
      "v": 88
    },
    {
      "midi": 64,
      "hit": false,
      "t": 176410.08000000016,
      "d": 448.71749999999884,
      "v": 104
    },
    {
      "midi": 67,
      "hit": false,
      "t": 176410.08000000016,
      "d": 464.74312500000815,
      "v": 103
    },
    {
      "midi": 60,
      "hit": false,
      "t": 176410.08000000016,
      "d": 475.42687500000466,
      "v": 100
    },
    {
      "midi": 48,
      "hit": false,
      "t": 176928.24187500015,
      "d": 117.52124999999069,
      "v": 76
    },
    {
      "midi": 48,
      "hit": false,
      "t": 177184.65187500016,
      "d": 251.0681249999907,
      "v": 88
    },
    {
      "midi": 64,
      "hit": false,
      "t": 177430.37812500013,
      "d": 325.85437500002445,
      "v": 98
    },
    {
      "midi": 67,
      "hit": false,
      "t": 177430.37812500013,
      "d": 384.6150000000198,
      "v": 99
    },
    {
      "midi": 60,
      "hit": false,
      "t": 177430.37812500013,
      "d": 432.6918750000186,
      "v": 98
    },
    {
      "midi": 48,
      "hit": false,
      "t": 177937.85625000016,
      "d": 160.25625000000582,
      "v": 75
    },
    {
      "midi": 48,
      "hit": false,
      "t": 178215.63375000015,
      "d": 144.2306250000256,
      "v": 90
    },
    {
      "midi": 69,
      "hit": false,
      "t": 178456.01812500018,
      "d": 454.05937499998254,
      "v": 97
    },
    {
      "midi": 60,
      "hit": false,
      "t": 178456.01812500018,
      "d": 464.74312499997905,
      "v": 97
    },
    {
      "midi": 64,
      "hit": false,
      "t": 178461.3600000002,
      "d": 464.74312499997905,
      "v": 102
    },
    {
      "midi": 48,
      "hit": false,
      "t": 178974.18000000017,
      "d": 144.2306249999965,
      "v": 91
    },
    {
      "midi": 48,
      "hit": false,
      "t": 179230.59000000017,
      "d": 256.4100000000035,
      "v": 85
    },
    {
      "midi": 67,
      "hit": false,
      "t": 179476.31625000018,
      "d": 464.74312499997905,
      "v": 95
    },
    {
      "midi": 60,
      "hit": false,
      "t": 179476.31625000018,
      "d": 523.5037499999744,
      "v": 92
    },
    {
      "midi": 64,
      "hit": false,
      "t": 179476.31625000018,
      "d": 550.2131249999802,
      "v": 96
    },
    {
      "midi": 48,
      "hit": false,
      "t": 180010.50375000015,
      "d": 144.2306249999965,
      "v": 91
    },
    {
      "midi": 48,
      "hit": false,
      "t": 180250.88812500014,
      "d": 235.04249999998137,
      "v": 87
    },
    {
      "midi": 69,
      "hit": false,
      "t": 180501.95625000013,
      "d": 320.51250000001164,
      "v": 92
    },
    {
      "midi": 60,
      "hit": false,
      "t": 180507.29812500015,
      "d": 277.7774999999965,
      "v": 98
    },
    {
      "midi": 64,
      "hit": false,
      "t": 180507.29812500015,
      "d": 416.6662500000093,
      "v": 104
    },
    {
      "midi": 50,
      "hit": false,
      "t": 181025.46000000017,
      "d": 149.5725000000093,
      "v": 86
    },
    {
      "midi": 50,
      "hit": false,
      "t": 181271.18625000017,
      "d": 277.7775000000256,
      "v": 93
    },
    {
      "midi": 66,
      "hit": false,
      "t": 181527.59625000018,
      "d": 491.45250000001397,
      "v": 107
    },
    {
      "midi": 62,
      "hit": false,
      "t": 181527.59625000018,
      "d": 496.7943750000268,
      "v": 92
    },
    {
      "midi": 69,
      "hit": false,
      "t": 181532.9381250002,
      "d": 480.76874999998836,
      "v": 97
    },
    {
      "midi": 50,
      "hit": false,
      "t": 182040.4162500002,
      "d": 128.2049999999872,
      "v": 82
    },
    {
      "midi": 50,
      "hit": false,
      "t": 182296.8262500002,
      "d": 293.8031250000058,
      "v": 89
    },
    {
      "midi": 66,
      "hit": false,
      "t": 182553.2362500002,
      "d": 336.53812499999185,
      "v": 105
    },
    {
      "midi": 69,
      "hit": false,
      "t": 182553.2362500002,
      "d": 389.9568750000035,
      "v": 100
    },
    {
      "midi": 62,
      "hit": false,
      "t": 182553.2362500002,
      "d": 448.71749999999884,
      "v": 92
    },
    {
      "midi": 48,
      "hit": false,
      "t": 183066.0562500002,
      "d": 154.91437499999302,
      "v": 91
    },
    {
      "midi": 48,
      "hit": false,
      "t": 183322.46625000017,
      "d": 277.7775000000256,
      "v": 85
    },
    {
      "midi": 60,
      "hit": false,
      "t": 183578.87625000018,
      "d": 518.1618750000198,
      "v": 97
    },
    {
      "midi": 64,
      "hit": false,
      "t": 183578.87625000018,
      "d": 518.1618750000198,
      "v": 99
    },
    {
      "midi": 67,
      "hit": false,
      "t": 183584.2181250002,
      "d": 507.4781249999942,
      "v": 99
    },
    {
      "midi": 48,
      "hit": false,
      "t": 184097.0381250002,
      "d": 160.25625000000582,
      "v": 86
    },
    {
      "midi": 48,
      "hit": false,
      "t": 184353.44812500023,
      "d": 251.0681249999907,
      "v": 91
    },
    {
      "midi": 67,
      "hit": false,
      "t": 184609.85812500023,
      "d": 357.90562500001397,
      "v": 107
    },
    {
      "midi": 60,
      "hit": false,
      "t": 184609.85812500023,
      "d": 389.9568750000035,
      "v": 106
    },
    {
      "midi": 64,
      "hit": false,
      "t": 184609.85812500023,
      "d": 422.008124999993,
      "v": 110
    },
    {
      "midi": 43,
      "hit": false,
      "t": 185117.33625000023,
      "d": 160.25624999997672,
      "v": 91
    },
    {
      "midi": 43,
      "hit": false,
      "t": 185368.40437500022,
      "d": 325.85437499996624,
      "v": 92
    },
    {
      "midi": 59,
      "hit": false,
      "t": 185630.15625000017,
      "d": 480.76874999998836,
      "v": 85
    },
    {
      "midi": 67,
      "hit": false,
      "t": 185630.15625000017,
      "d": 512.8199999999779,
      "v": 92
    },
    {
      "midi": 62,
      "hit": false,
      "t": 185630.15625000017,
      "d": 576.922499999986,
      "v": 88
    },
    {
      "midi": 43,
      "hit": false,
      "t": 186142.97625000015,
      "d": 144.2306249999965,
      "v": 88
    },
    {
      "midi": 43,
      "hit": false,
      "t": 186394.04437500014,
      "d": 261.7518749999872,
      "v": 86
    },
    {
      "midi": 60,
      "hit": false,
      "t": 186655.79625000013,
      "d": 523.5037500000326,
      "v": 96
    },
    {
      "midi": 64,
      "hit": false,
      "t": 186655.79625000013,
      "d": 523.5037500000326,
      "v": 99
    },
    {
      "midi": 67,
      "hit": false,
      "t": 186661.13812500014,
      "d": 486.11062500000116,
      "v": 98
    },
    {
      "midi": 43,
      "hit": false,
      "t": 187173.95812500015,
      "d": 144.2306249999965,
      "v": 85
    },
    {
      "midi": 43,
      "hit": false,
      "t": 187430.36812500015,
      "d": 283.1193750000093,
      "v": 92
    },
    {
      "midi": 59,
      "hit": false,
      "t": 187697.46187500015,
      "d": 416.6662500000093,
      "v": 96
    },
    {
      "midi": 62,
      "hit": false,
      "t": 187697.46187500015,
      "d": 544.8712499999965,
      "v": 97
    },
    {
      "midi": 67,
      "hit": false,
      "t": 187702.80375000017,
      "d": 405.9824999999837,
      "v": 95
    },
    {
      "midi": 43,
      "hit": false,
      "t": 188194.25625000015,
      "d": 144.2306249999965,
      "v": 87
    },
    {
      "midi": 43,
      "hit": false,
      "t": 188456.00812500017,
      "d": 235.04249999998137,
      "v": 86
    },
    {
      "midi": 67,
      "hit": false,
      "t": 188712.41812500014,
      "d": 405.9824999999837,
      "v": 88
    },
    {
      "midi": 60,
      "hit": false,
      "t": 188712.41812500014,
      "d": 427.3499999999767,
      "v": 90
    },
    {
      "midi": 64,
      "hit": false,
      "t": 188717.76000000015,
      "d": 400.6406249999709,
      "v": 92
    }
  ]
}