{
  "jsonPath": "World/Panpipe/Panpipes/when-a-man-loves-a-woman.json",
  "path": "World\\Panpipe\\Panpipes\\When A Man Loves A Woman.mid",
  "name": "When A Man Loves A Woman",
  "difficulty": "Advanced",
  "bpm": 82.50030937616016,
  "notes": [
    {
      "midi": 53,
      "hit": false,
      "t": 21818.1,
      "d": 1818.1749999999993,
      "v": 85
    },
    {
      "midi": 56,
      "hit": false,
      "t": 21818.1,
      "d": 1818.1749999999993,
      "v": 85
    },
    {
      "midi": 61,
      "hit": false,
      "t": 21818.1,
      "d": 1818.1749999999993,
      "v": 85
    },
    {
      "midi": 65,
      "hit": false,
      "t": 21818.1,
      "d": 1818.1749999999993,
      "v": 85
    },
    {
      "midi": 53,
      "hit": false,
      "t": 23999.909999999996,
      "d": 1818.1749999999993,
      "v": 85
    },
    {
      "midi": 56,
      "hit": false,
      "t": 23999.909999999996,
      "d": 1818.1749999999993,
      "v": 85
    },
    {
      "midi": 60,
      "hit": false,
      "t": 23999.909999999996,
      "d": 1818.1749999999993,
      "v": 85
    },
    {
      "midi": 65,
      "hit": false,
      "t": 23999.909999999996,
      "d": 1818.1749999999993,
      "v": 85
    },
    {
      "midi": 53,
      "hit": false,
      "t": 26181.719999999994,
      "d": 1818.175000000003,
      "v": 85
    },
    {
      "midi": 58,
      "hit": false,
      "t": 26181.719999999994,
      "d": 1818.175000000003,
      "v": 85
    },
    {
      "midi": 61,
      "hit": false,
      "t": 26181.719999999994,
      "d": 1818.175000000003,
      "v": 85
    },
    {
      "midi": 65,
      "hit": false,
      "t": 26181.719999999994,
      "d": 1818.175000000003,
      "v": 85
    },
    {
      "midi": 53,
      "hit": false,
      "t": 28363.529999999995,
      "d": 1454.5400000000009,
      "v": 85
    },
    {
      "midi": 56,
      "hit": false,
      "t": 28363.529999999995,
      "d": 1454.5400000000009,
      "v": 85
    },
    {
      "midi": 61,
      "hit": false,
      "t": 28363.529999999995,
      "d": 1454.5400000000009,
      "v": 85
    },
    {
      "midi": 65,
      "hit": false,
      "t": 28363.529999999995,
      "d": 1454.5400000000009,
      "v": 85
    },
    {
      "midi": 56,
      "hit": false,
      "t": 30181.704999999994,
      "d": 363.63500000000204,
      "v": 85
    },
    {
      "midi": 49,
      "hit": false,
      "t": 30545.339999999997,
      "d": 1818.1749999999993,
      "v": 85
    },
    {
      "midi": 54,
      "hit": false,
      "t": 30545.339999999997,
      "d": 1818.1749999999993,
      "v": 85
    },
    {
      "midi": 58,
      "hit": false,
      "t": 30545.339999999997,
      "d": 1818.1749999999993,
      "v": 85
    },
    {
      "midi": 61,
      "hit": false,
      "t": 30545.339999999997,
      "d": 1818.1749999999993,
      "v": 85
    },
    {
      "midi": 54,
      "hit": false,
      "t": 32727.149999999994,
      "d": 1818.175000000003,
      "v": 85
    },
    {
      "midi": 58,
      "hit": false,
      "t": 32727.149999999994,
      "d": 1818.175000000003,
      "v": 85
    },
    {
      "midi": 61,
      "hit": false,
      "t": 32727.149999999994,
      "d": 1818.175000000003,
      "v": 85
    },
    {
      "midi": 66,
      "hit": false,
      "t": 32727.149999999994,
      "d": 1818.175000000003,
      "v": 85
    },
    {
      "midi": 53,
      "hit": false,
      "t": 34908.96,
      "d": 1818.175000000003,
      "v": 85
    },
    {
      "midi": 56,
      "hit": false,
      "t": 34908.96,
      "d": 1818.175000000003,
      "v": 85
    },
    {
      "midi": 61,
      "hit": false,
      "t": 34908.96,
      "d": 1818.175000000003,
      "v": 85
    },
    {
      "midi": 65,
      "hit": false,
      "t": 34908.96,
      "d": 1818.175000000003,
      "v": 85
    },
    {
      "midi": 51,
      "hit": false,
      "t": 37090.770000000004,
      "d": 1818.175000000003,
      "v": 85
    },
    {
      "midi": 54,
      "hit": false,
      "t": 37090.770000000004,
      "d": 1818.175000000003,
      "v": 85
    },
    {
      "midi": 58,
      "hit": false,
      "t": 37090.770000000004,
      "d": 1818.175000000003,
      "v": 85
    },
    {
      "midi": 63,
      "hit": false,
      "t": 37090.770000000004,
      "d": 1818.175000000003,
      "v": 85
    },
    {
      "midi": 53,
      "hit": false,
      "t": 39272.58000000001,
      "d": 1818.175000000003,
      "v": 85
    },
    {
      "midi": 56,
      "hit": false,
      "t": 39272.58000000001,
      "d": 1818.175000000003,
      "v": 85
    },
    {
      "midi": 61,
      "hit": false,
      "t": 39272.58000000001,
      "d": 1818.175000000003,
      "v": 85
    },
    {
      "midi": 65,
      "hit": false,
      "t": 39272.58000000001,
      "d": 1818.175000000003,
      "v": 85
    },
    {
      "midi": 53,
      "hit": false,
      "t": 41454.390000000014,
      "d": 1818.175000000003,
      "v": 85
    },
    {
      "midi": 56,
      "hit": false,
      "t": 41454.390000000014,
      "d": 1818.175000000003,
      "v": 85
    },
    {
      "midi": 60,
      "hit": false,
      "t": 41454.390000000014,
      "d": 1818.175000000003,
      "v": 85
    },
    {
      "midi": 65,
      "hit": false,
      "t": 41454.390000000014,
      "d": 1818.175000000003,
      "v": 85
    },
    {
      "midi": 53,
      "hit": false,
      "t": 43636.20000000002,
      "d": 1818.1749999999956,
      "v": 85
    },
    {
      "midi": 58,
      "hit": false,
      "t": 43636.20000000002,
      "d": 1818.1749999999956,
      "v": 85
    },
    {
      "midi": 61,
      "hit": false,
      "t": 43636.20000000002,
      "d": 1818.1749999999956,
      "v": 85
    },
    {
      "midi": 65,
      "hit": false,
      "t": 43636.20000000002,
      "d": 1818.1749999999956,
      "v": 85
    },
    {
      "midi": 53,
      "hit": false,
      "t": 45818.01000000002,
      "d": 1454.5399999999936,
      "v": 85
    },
    {
      "midi": 56,
      "hit": false,
      "t": 45818.01000000002,
      "d": 1454.5399999999936,
      "v": 85
    },
    {
      "midi": 61,
      "hit": false,
      "t": 45818.01000000002,
      "d": 1454.5399999999936,
      "v": 85
    },
    {
      "midi": 65,
      "hit": false,
      "t": 45818.01000000002,
      "d": 1454.5399999999936,
      "v": 85
    },
    {
      "midi": 56,
      "hit": false,
      "t": 47636.18500000001,
      "d": 363.63500000000204,
      "v": 85
    },
    {
      "midi": 49,
      "hit": false,
      "t": 47999.820000000014,
      "d": 1818.175000000003,
      "v": 85
    },
    {
      "midi": 54,
      "hit": false,
      "t": 47999.820000000014,
      "d": 1818.175000000003,
      "v": 85
    },
    {
      "midi": 58,
      "hit": false,
      "t": 47999.820000000014,
      "d": 1818.175000000003,
      "v": 85
    },
    {
      "midi": 61,
      "hit": false,
      "t": 47999.820000000014,
      "d": 1818.175000000003,
      "v": 85
    },
    {
      "midi": 56,
      "hit": false,
      "t": 50181.63000000002,
      "d": 1090.9049999999988,
      "v": 97
    },
    {
      "midi": 54,
      "hit": false,
      "t": 50181.63000000002,
      "d": 1818.175000000003,
      "v": 85
    },
    {
      "midi": 61,
      "hit": false,
      "t": 50181.63000000002,
      "d": 1818.175000000003,
      "v": 85
    },
    {
      "midi": 66,
      "hit": false,
      "t": 50181.63000000002,
      "d": 1818.175000000003,
      "v": 85
    },
    {
      "midi": 58,
      "hit": false,
      "t": 51272.53500000002,
      "d": 727.2700000000041,
      "v": 97
    },
    {
      "midi": 56,
      "hit": false,
      "t": 52363.440000000024,
      "d": 1090.9049999999988,
      "v": 97
    },
    {
      "midi": 53,
      "hit": false,
      "t": 52363.440000000024,
      "d": 1818.1749999999956,
      "v": 85
    },
    {
      "midi": 61,
      "hit": false,
      "t": 52363.440000000024,
      "d": 1818.1749999999956,
      "v": 85
    },
    {
      "midi": 65,
      "hit": false,
      "t": 52363.440000000024,
      "d": 1818.1749999999956,
      "v": 85
    },
    {
      "midi": 56,
      "hit": false,
      "t": 53454.34500000002,
      "d": 727.2699999999968,
      "v": 97
    },
    {
      "midi": 56,
      "hit": false,
      "t": 54181.61500000002,
      "d": 545.4524999999994,
      "v": 97
    },
    {
      "midi": 51,
      "hit": false,
      "t": 54545.25000000002,
      "d": 999.9962500000038,
      "v": 85
    },
    {
      "midi": 54,
      "hit": false,
      "t": 54545.25000000002,
      "d": 999.9962500000038,
      "v": 85
    },
    {
      "midi": 58,
      "hit": false,
      "t": 54545.25000000002,
      "d": 999.9962500000038,
      "v": 85
    },
    {
      "midi": 63,
      "hit": false,
      "t": 54545.25000000002,
      "d": 999.9962500000038,
      "v": 85
    },
    {
      "midi": 44,
      "hit": false,
      "t": 54908.885000000024,
      "d": 636.3612500000017,
      "v": 85
    },
    {
      "midi": 49,
      "hit": false,
      "t": 55636.15500000003,
      "d": 636.3612500000017,
      "v": 97
    },
    {
      "midi": 54,
      "hit": false,
      "t": 55636.15500000003,
      "d": 636.3612500000017,
      "v": 97
    },
    {
      "midi": 58,
      "hit": false,
      "t": 55636.15500000003,
      "d": 636.3612500000017,
      "v": 97
    },
    {
      "midi": 61,
      "hit": false,
      "t": 55636.15500000003,
      "d": 636.3612500000017,
      "v": 97
    },
    {
      "midi": 49,
      "hit": false,
      "t": 56363.42500000003,
      "d": 363.63500000000204,
      "v": 97
    },
    {
      "midi": 54,
      "hit": false,
      "t": 56363.42500000003,
      "d": 363.63500000000204,
      "v": 97
    },
    {
      "midi": 58,
      "hit": false,
      "t": 56363.42500000003,
      "d": 363.63500000000204,
      "v": 97
    },
    {
      "midi": 61,
      "hit": false,
      "t": 56363.42500000003,
      "d": 363.63500000000204,
      "v": 97
    },
    {
      "midi": 53,
      "hit": false,
      "t": 56727.060000000034,
      "d": 1818.175000000003,
      "v": 85
    },
    {
      "midi": 56,
      "hit": false,
      "t": 56727.060000000034,
      "d": 1818.175000000003,
      "v": 85
    },
    {
      "midi": 61,
      "hit": false,
      "t": 56727.060000000034,
      "d": 1818.175000000003,
      "v": 85
    },
    {
      "midi": 65,
      "hit": false,
      "t": 56727.060000000034,
      "d": 1818.175000000003,
      "v": 85
    },
    {
      "midi": 53,
      "hit": false,
      "t": 58908.87000000004,
      "d": 1818.175000000003,
      "v": 85
    },
    {
      "midi": 56,
      "hit": false,
      "t": 58908.87000000004,
      "d": 1818.175000000003,
      "v": 85
    },
    {
      "midi": 60,
      "hit": false,
      "t": 58908.87000000004,
      "d": 1818.175000000003,
      "v": 85
    },
    {
      "midi": 65,
      "hit": false,
      "t": 58908.87000000004,
      "d": 1818.175000000003,
      "v": 85
    },
    {
      "midi": 53,
      "hit": false,
      "t": 61090.680000000044,
      "d": 1818.1749999999956,
      "v": 85
    },
    {
      "midi": 58,
      "hit": false,
      "t": 61090.680000000044,
      "d": 1818.1749999999956,
      "v": 85
    },
    {
      "midi": 61,
      "hit": false,
      "t": 61090.680000000044,
      "d": 1818.1749999999956,
      "v": 85
    },
    {
      "midi": 65,
      "hit": false,
      "t": 61090.680000000044,
      "d": 1818.1749999999956,
      "v": 85
    },
    {
      "midi": 53,
      "hit": false,
      "t": 63272.49000000004,
      "d": 1454.5400000000009,
      "v": 85
    },
    {
      "midi": 56,
      "hit": false,
      "t": 63272.49000000004,
      "d": 1454.5400000000009,
      "v": 85
    },
    {
      "midi": 61,
      "hit": false,
      "t": 63272.49000000004,
      "d": 1454.5400000000009,
      "v": 85
    },
    {
      "midi": 65,
      "hit": false,
      "t": 63272.49000000004,
      "d": 1454.5400000000009,
      "v": 85
    },
    {
      "midi": 56,
      "hit": false,
      "t": 65090.665000000045,
      "d": 363.63500000000204,
      "v": 85
    },
    {
      "midi": 58,
      "hit": false,
      "t": 65454.30000000005,
      "d": 1272.7225000000035,
      "v": 85
    },
    {
      "midi": 61,
      "hit": false,
      "t": 65454.30000000005,
      "d": 1621.206041666679,
      "v": 85
    },
    {
      "midi": 49,
      "hit": false,
      "t": 65454.30000000005,
      "d": 1818.1750000000175,
      "v": 85
    },
    {
      "midi": 54,
      "hit": false,
      "t": 65454.30000000005,
      "d": 1818.1750000000175,
      "v": 85
    },
    {
      "midi": 58,
      "hit": false,
      "t": 66908.84000000005,
      "d": 330.3017916666722,
      "v": 94
    },
    {
      "midi": 61,
      "hit": false,
      "t": 67272.47500000006,
      "d": 303.0291666666599,
      "v": 96
    },
    {
      "midi": 56,
      "hit": false,
      "t": 67636.11000000006,
      "d": 1090.9049999999988,
      "v": 97
    },
    {
      "midi": 54,
      "hit": false,
      "t": 67636.11000000006,
      "d": 1818.175000000003,
      "v": 85
    },
    {
      "midi": 61,
      "hit": false,
      "t": 67636.11000000006,
      "d": 1818.175000000003,
      "v": 85
    },
    {
      "midi": 66,
      "hit": false,
      "t": 67636.11000000006,
      "d": 1818.175000000003,
      "v": 85
    },
    {
      "midi": 58,
      "hit": false,
      "t": 68727.01500000006,
      "d": 727.2700000000041,
      "v": 97
    },
    {
      "midi": 56,
      "hit": false,
      "t": 69817.92000000006,
      "d": 1090.9049999999988,
      "v": 97
    },
    {
      "midi": 53,
      "hit": false,
      "t": 69817.92000000006,
      "d": 1818.175000000003,
      "v": 85
    },
    {
      "midi": 61,
      "hit": false,
      "t": 69817.92000000006,
      "d": 1818.175000000003,
      "v": 85
    },
    {
      "midi": 65,
      "hit": false,
      "t": 69817.92000000006,
      "d": 1818.175000000003,
      "v": 85
    },
    {
      "midi": 56,
      "hit": false,
      "t": 70908.82500000006,
      "d": 727.2700000000041,
      "v": 97
    },
    {
      "midi": 56,
      "hit": false,
      "t": 71636.09500000006,
      "d": 545.4524999999994,
      "v": 97
    },
    {
      "midi": 51,
      "hit": false,
      "t": 71999.73000000005,
      "d": 1818.175000000003,
      "v": 85
    },
    {
      "midi": 54,
      "hit": false,
      "t": 71999.73000000005,
      "d": 1818.175000000003,
      "v": 85
    },
    {
      "midi": 58,
      "hit": false,
      "t": 71999.73000000005,
      "d": 1818.175000000003,
      "v": 85
    },
    {
      "midi": 63,
      "hit": false,
      "t": 71999.73000000005,
      "d": 1818.175000000003,
      "v": 85
    },
    {
      "midi": 44,
      "hit": false,
      "t": 72363.36500000006,
      "d": 1454.5399999999936,
      "v": 85
    },
    {
      "midi": 53,
      "hit": false,
      "t": 74181.54000000005,
      "d": 1818.175000000003,
      "v": 85
    },
    {
      "midi": 56,
      "hit": false,
      "t": 74181.54000000005,
      "d": 1818.175000000003,
      "v": 85
    },
    {
      "midi": 61,
      "hit": false,
      "t": 74181.54000000005,
      "d": 1818.175000000003,
      "v": 85
    },
    {
      "midi": 65,
      "hit": false,
      "t": 74181.54000000005,
      "d": 1818.175000000003,
      "v": 85
    },
    {
      "midi": 53,
      "hit": false,
      "t": 76363.35000000005,
      "d": 1818.175000000003,
      "v": 85
    },
    {
      "midi": 56,
      "hit": false,
      "t": 76363.35000000005,
      "d": 1818.175000000003,
      "v": 85
    },
    {
      "midi": 60,
      "hit": false,
      "t": 76363.35000000005,
      "d": 1818.175000000003,
      "v": 85
    },
    {
      "midi": 65,
      "hit": false,
      "t": 76363.35000000005,
      "d": 1818.175000000003,
      "v": 85
    },
    {
      "midi": 53,
      "hit": false,
      "t": 78545.16000000005,
      "d": 1818.1749999999884,
      "v": 85
    },
    {
      "midi": 58,
      "hit": false,
      "t": 78545.16000000005,
      "d": 1818.1749999999884,
      "v": 85
    },
    {
      "midi": 61,
      "hit": false,
      "t": 78545.16000000005,
      "d": 1818.1749999999884,
      "v": 85
    },
    {
      "midi": 65,
      "hit": false,
      "t": 78545.16000000005,
      "d": 1818.1749999999884,
      "v": 85
    },
    {
      "midi": 53,
      "hit": false,
      "t": 80726.97000000003,
      "d": 1454.5399999999936,
      "v": 85
    },
    {
      "midi": 56,
      "hit": false,
      "t": 80726.97000000003,
      "d": 1454.5399999999936,
      "v": 85
    },
    {
      "midi": 61,
      "hit": false,
      "t": 80726.97000000003,
      "d": 1454.5399999999936,
      "v": 85
    },
    {
      "midi": 65,
      "hit": false,
      "t": 80726.97000000003,
      "d": 1454.5399999999936,
      "v": 85
    },
    {
      "midi": 56,
      "hit": false,
      "t": 82545.14500000002,
      "d": 363.63499999999476,
      "v": 85
    },
    {
      "midi": 49,
      "hit": false,
      "t": 82908.78000000001,
      "d": 1818.175000000003,
      "v": 85
    },
    {
      "midi": 54,
      "hit": false,
      "t": 82908.78000000001,
      "d": 1818.175000000003,
      "v": 85
    },
    {
      "midi": 58,
      "hit": false,
      "t": 82908.78000000001,
      "d": 1818.175000000003,
      "v": 85
    },
    {
      "midi": 61,
      "hit": false,
      "t": 82908.78000000001,
      "d": 1818.175000000003,
      "v": 85
    },
    {
      "midi": 56,
      "hit": false,
      "t": 85090.59000000001,
      "d": 1090.9049999999988,
      "v": 97
    },
    {
      "midi": 54,
      "hit": false,
      "t": 85090.59000000001,
      "d": 1818.175000000003,
      "v": 85
    },
    {
      "midi": 61,
      "hit": false,
      "t": 85090.59000000001,
      "d": 1818.175000000003,
      "v": 85
    },
    {
      "midi": 66,
      "hit": false,
      "t": 85090.59000000001,
      "d": 1818.175000000003,
      "v": 85
    },
    {
      "midi": 58,
      "hit": false,
      "t": 86181.49500000001,
      "d": 727.2700000000041,
      "v": 97
    },
    {
      "midi": 56,
      "hit": false,
      "t": 87272.40000000001,
      "d": 1090.9049999999988,
      "v": 97
    },
    {
      "midi": 53,
      "hit": false,
      "t": 87272.40000000001,
      "d": 2090.9012499999953,
      "v": 85
    },
    {
      "midi": 61,
      "hit": false,
      "t": 87272.40000000001,
      "d": 2090.9012499999953,
      "v": 85
    },
    {
      "midi": 65,
      "hit": false,
      "t": 87272.40000000001,
      "d": 2090.9012499999953,
      "v": 85
    },
    {
      "midi": 56,
      "hit": false,
      "t": 88363.30500000001,
      "d": 999.9962499999965,
      "v": 97
    },
    {
      "midi": 53,
      "hit": false,
      "t": 89454.21,
      "d": 636.3612500000017,
      "v": 75
    },
    {
      "midi": 56,
      "hit": false,
      "t": 89454.21,
      "d": 636.3612500000017,
      "v": 75
    },
    {
      "midi": 59,
      "hit": false,
      "t": 89454.21,
      "d": 636.3612500000017,
      "v": 75
    },
    {
      "midi": 63,
      "hit": false,
      "t": 89454.21,
      "d": 636.3612500000017,
      "v": 75
    },
    {
      "midi": 53,
      "hit": false,
      "t": 90181.48000000001,
      "d": 636.3612500000017,
      "v": 75
    },
    {
      "midi": 56,
      "hit": false,
      "t": 90181.48000000001,
      "d": 636.3612500000017,
      "v": 75
    },
    {
      "midi": 59,
      "hit": false,
      "t": 90181.48000000001,
      "d": 636.3612500000017,
      "v": 75
    },
    {
      "midi": 63,
      "hit": false,
      "t": 90181.48000000001,
      "d": 636.3612500000017,
      "v": 75
    },
    {
      "midi": 53,
      "hit": false,
      "t": 90908.75000000001,
      "d": 636.3612500000017,
      "v": 75
    },
    {
      "midi": 56,
      "hit": false,
      "t": 90908.75000000001,
      "d": 636.3612500000017,
      "v": 75
    },
    {
      "midi": 59,
      "hit": false,
      "t": 90908.75000000001,
      "d": 636.3612500000017,
      "v": 75
    },
    {
      "midi": 63,
      "hit": false,
      "t": 90908.75000000001,
      "d": 636.3612500000017,
      "v": 75
    },
    {
      "midi": 58,
      "hit": false,
      "t": 91636.02000000002,
      "d": 2181.8099999999977,
      "v": 91
    },
    {
      "midi": 61,
      "hit": false,
      "t": 91636.02000000002,
      "d": 2181.8099999999977,
      "v": 74
    },
    {
      "midi": 66,
      "hit": false,
      "t": 91636.02000000002,
      "d": 2181.8099999999977,
      "v": 69
    },
    {
      "midi": 70,
      "hit": false,
      "t": 91636.02000000002,
      "d": 2181.8099999999977,
      "v": 87
    },
    {
      "midi": 56,
      "hit": false,
      "t": 95999.64000000001,
      "d": 1363.6312500000058,
      "v": 82
    },
    {
      "midi": 61,
      "hit": false,
      "t": 95999.64000000001,
      "d": 1363.6312500000058,
      "v": 79
    },
    {
      "midi": 65,
      "hit": false,
      "t": 95999.64000000001,
      "d": 1363.6312500000058,
      "v": 87
    },
    {
      "midi": 68,
      "hit": false,
      "t": 95999.64000000001,
      "d": 1363.6312500000058,
      "v": 89
    },
    {
      "midi": 61,
      "hit": false,
      "t": 98181.45000000003,
      "d": 272.726250000007,
      "v": 47
    },
    {
      "midi": 65,
      "hit": false,
      "t": 98181.45000000003,
      "d": 272.726250000007,
      "v": 65
    },
    {
      "midi": 68,
      "hit": false,
      "t": 98181.45000000003,
      "d": 272.726250000007,
      "v": 57
    },
    {
      "midi": 71,
      "hit": false,
      "t": 98181.45000000003,
      "d": 272.726250000007,
      "v": 63
    },
    {
      "midi": 61,
      "hit": false,
      "t": 98908.72000000003,
      "d": 272.726250000007,
      "v": 64
    },
    {
      "midi": 65,
      "hit": false,
      "t": 98908.72000000003,
      "d": 272.726250000007,
      "v": 64
    },
    {
      "midi": 68,
      "hit": false,
      "t": 98908.72000000003,
      "d": 272.726250000007,
      "v": 69
    },
    {
      "midi": 71,
      "hit": false,
      "t": 98908.72000000003,
      "d": 272.726250000007,
      "v": 72
    },
    {
      "midi": 61,
      "hit": false,
      "t": 99635.99000000003,
      "d": 272.726250000007,
      "v": 67
    },
    {
      "midi": 65,
      "hit": false,
      "t": 99635.99000000003,
      "d": 272.726250000007,
      "v": 76
    },
    {
      "midi": 68,
      "hit": false,
      "t": 99635.99000000003,
      "d": 272.726250000007,
      "v": 76
    },
    {
      "midi": 71,
      "hit": false,
      "t": 99635.99000000003,
      "d": 272.726250000007,
      "v": 77
    },
    {
      "midi": 61,
      "hit": false,
      "t": 99999.62500000004,
      "d": 272.726250000007,
      "v": 70
    },
    {
      "midi": 65,
      "hit": false,
      "t": 99999.62500000004,
      "d": 272.726250000007,
      "v": 79
    },
    {
      "midi": 68,
      "hit": false,
      "t": 99999.62500000004,
      "d": 272.726250000007,
      "v": 76
    },
    {
      "midi": 71,
      "hit": false,
      "t": 99999.62500000004,
      "d": 272.726250000007,
      "v": 79
    },
    {
      "midi": 58,
      "hit": false,
      "t": 100363.26000000005,
      "d": 2181.8099999999977,
      "v": 91
    },
    {
      "midi": 61,
      "hit": false,
      "t": 100363.26000000005,
      "d": 2181.8099999999977,
      "v": 74
    },
    {
      "midi": 66,
      "hit": false,
      "t": 100363.26000000005,
      "d": 2181.8099999999977,
      "v": 69
    },
    {
      "midi": 70,
      "hit": false,
      "t": 100363.26000000005,
      "d": 2181.8099999999977,
      "v": 87
    },
    {
      "midi": 56,
      "hit": false,
      "t": 104726.88000000005,
      "d": 1363.6312500000058,
      "v": 82
    },
    {
      "midi": 61,
      "hit": false,
      "t": 104726.88000000005,
      "d": 1363.6312500000058,
      "v": 79
    },
    {
      "midi": 65,
      "hit": false,
      "t": 104726.88000000005,
      "d": 1363.6312500000058,
      "v": 87
    },
    {
      "midi": 68,
      "hit": false,
      "t": 104726.88000000005,
      "d": 1363.6312500000058,
      "v": 89
    },
    {
      "midi": 61,
      "hit": false,
      "t": 106908.69000000006,
      "d": 272.726250000007,
      "v": 47
    },
    {
      "midi": 65,
      "hit": false,
      "t": 106908.69000000006,
      "d": 272.726250000007,
      "v": 65
    },
    {
      "midi": 68,
      "hit": false,
      "t": 106908.69000000006,
      "d": 272.726250000007,
      "v": 57
    },
    {
      "midi": 71,
      "hit": false,
      "t": 106908.69000000006,
      "d": 272.726250000007,
      "v": 63
    },
    {
      "midi": 61,
      "hit": false,
      "t": 107635.96000000006,
      "d": 272.726250000007,
      "v": 64
    },
    {
      "midi": 65,
      "hit": false,
      "t": 107635.96000000006,
      "d": 272.726250000007,
      "v": 64
    },
    {
      "midi": 68,
      "hit": false,
      "t": 107635.96000000006,
      "d": 272.726250000007,
      "v": 69
    },
    {
      "midi": 71,
      "hit": false,
      "t": 107635.96000000006,
      "d": 272.726250000007,
      "v": 72
    },
    {
      "midi": 61,
      "hit": false,
      "t": 108363.23000000007,
      "d": 272.726250000007,
      "v": 67
    },
    {
      "midi": 65,
      "hit": false,
      "t": 108363.23000000007,
      "d": 272.726250000007,
      "v": 76
    },
    {
      "midi": 68,
      "hit": false,
      "t": 108363.23000000007,
      "d": 272.726250000007,
      "v": 76
    },
    {
      "midi": 71,
      "hit": false,
      "t": 108363.23000000007,
      "d": 272.726250000007,
      "v": 77
    },
    {
      "midi": 61,
      "hit": false,
      "t": 108726.86500000008,
      "d": 272.726250000007,
      "v": 70
    },
    {
      "midi": 65,
      "hit": false,
      "t": 108726.86500000008,
      "d": 272.726250000007,
      "v": 79
    },
    {
      "midi": 68,
      "hit": false,
      "t": 108726.86500000008,
      "d": 272.726250000007,
      "v": 76
    },
    {
      "midi": 71,
      "hit": false,
      "t": 108726.86500000008,
      "d": 272.726250000007,
      "v": 79
    },
    {
      "midi": 58,
      "hit": false,
      "t": 109090.50000000009,
      "d": 2181.8099999999977,
      "v": 96
    },
    {
      "midi": 61,
      "hit": false,
      "t": 109090.50000000009,
      "d": 2181.8099999999977,
      "v": 79
    },
    {
      "midi": 66,
      "hit": false,
      "t": 109090.50000000009,
      "d": 2181.8099999999977,
      "v": 74
    },
    {
      "midi": 70,
      "hit": false,
      "t": 109090.50000000009,
      "d": 2181.8099999999977,
      "v": 92
    },
    {
      "midi": 56,
      "hit": false,
      "t": 113454.12000000008,
      "d": 1090.9049999999988,
      "v": 97
    },
    {
      "midi": 61,
      "hit": false,
      "t": 113454.12000000008,
      "d": 1090.9049999999988,
      "v": 97
    },
    {
      "midi": 65,
      "hit": false,
      "t": 113454.12000000008,
      "d": 1090.9049999999988,
      "v": 97
    },
    {
      "midi": 61,
      "hit": false,
      "t": 116363.20000000008,
      "d": 363.63499999999476,
      "v": 97
    },
    {
      "midi": 73,
      "hit": false,
      "t": 116363.20000000008,
      "d": 363.63499999999476,
      "v": 97
    },
    {
      "midi": 61,
      "hit": false,
      "t": 116726.83500000008,
      "d": 363.63499999999476,
      "v": 97
    },
    {
      "midi": 73,
      "hit": false,
      "t": 116726.83500000008,
      "d": 363.63499999999476,
      "v": 97
    },
    {
      "midi": 63,
      "hit": false,
      "t": 117090.47000000007,
      "d": 363.63499999999476,
      "v": 94
    },
    {
      "midi": 75,
      "hit": false,
      "t": 117090.47000000007,
      "d": 363.63499999999476,
      "v": 97
    },
    {
      "midi": 65,
      "hit": false,
      "t": 117454.10500000007,
      "d": 363.63499999999476,
      "v": 97
    },
    {
      "midi": 77,
      "hit": false,
      "t": 117454.10500000007,
      "d": 363.63499999999476,
      "v": 97
    },
    {
      "midi": 63,
      "hit": false,
      "t": 117817.74000000006,
      "d": 363.63499999999476,
      "v": 97
    },
    {
      "midi": 75,
      "hit": false,
      "t": 117817.74000000006,
      "d": 363.63499999999476,
      "v": 97
    },
    {
      "midi": 61,
      "hit": false,
      "t": 118181.37500000006,
      "d": 454.5437499999971,
      "v": 97
    },
    {
      "midi": 73,
      "hit": false,
      "t": 118181.37500000006,
      "d": 454.5437499999971,
      "v": 97
    },
    {
      "midi": 62,
      "hit": false,
      "t": 126544.98000000005,
      "d": 1818.175000000003,
      "v": 90
    },
    {
      "midi": 66,
      "hit": false,
      "t": 126544.98000000005,
      "d": 1818.175000000003,
      "v": 85
    },
    {
      "midi": 69,
      "hit": false,
      "t": 126544.98000000005,
      "d": 1818.175000000003,
      "v": 92
    },
    {
      "midi": 74,
      "hit": false,
      "t": 126544.98000000005,
      "d": 1818.175000000003,
      "v": 94
    },
    {
      "midi": 61,
      "hit": false,
      "t": 128726.79000000005,
      "d": 1636.3574999999983,
      "v": 97
    },
    {
      "midi": 66,
      "hit": false,
      "t": 128726.79000000005,
      "d": 1636.3574999999983,
      "v": 79
    },
    {
      "midi": 69,
      "hit": false,
      "t": 128726.79000000005,
      "d": 1636.3574999999983,
      "v": 90
    },
    {
      "midi": 73,
      "hit": false,
      "t": 128726.79000000005,
      "d": 1636.3574999999983,
      "v": 85
    },
    {
      "midi": 59,
      "hit": false,
      "t": 130908.60000000005,
      "d": 1636.3574999999983,
      "v": 76
    },
    {
      "midi": 62,
      "hit": false,
      "t": 130908.60000000005,
      "d": 1636.3574999999983,
      "v": 97
    },
    {
      "midi": 66,
      "hit": false,
      "t": 130908.60000000005,
      "d": 1636.3574999999983,
      "v": 97
    },
    {
      "midi": 71,
      "hit": false,
      "t": 130908.60000000005,
      "d": 1636.3574999999983,
      "v": 90
    },
    {
      "midi": 66,
      "hit": false,
      "t": 132726.77500000005,
      "d": 363.6350000000093,
      "v": 97
    },
    {
      "midi": 57,
      "hit": false,
      "t": 133090.41000000006,
      "d": 1818.1749999999884,
      "v": 78
    },
    {
      "midi": 62,
      "hit": false,
      "t": 133090.41000000006,
      "d": 1818.1749999999884,
      "v": 97
    },
    {
      "midi": 66,
      "hit": false,
      "t": 133090.41000000006,
      "d": 1818.1749999999884,
      "v": 97
    },
    {
      "midi": 69,
      "hit": false,
      "t": 133090.41000000006,
      "d": 1818.1749999999884,
      "v": 96
    },
    {
      "midi": 59,
      "hit": false,
      "t": 135272.22000000006,
      "d": 1636.3575000000128,
      "v": 97
    },
    {
      "midi": 62,
      "hit": false,
      "t": 135272.22000000006,
      "d": 1636.3575000000128,
      "v": 97
    },
    {
      "midi": 67,
      "hit": false,
      "t": 135272.22000000006,
      "d": 1636.3575000000128,
      "v": 97
    },
    {
      "midi": 71,
      "hit": false,
      "t": 135272.22000000006,
      "d": 1636.3575000000128,
      "v": 97
    },
    {
      "midi": 59,
      "hit": false,
      "t": 137454.0300000001,
      "d": 1818.1749999999884,
      "v": 97
    },
    {
      "midi": 62,
      "hit": false,
      "t": 137454.0300000001,
      "d": 1818.1749999999884,
      "v": 97
    },
    {
      "midi": 67,
      "hit": false,
      "t": 137454.0300000001,
      "d": 1818.1749999999884,
      "v": 97
    },
    {
      "midi": 71,
      "hit": false,
      "t": 137454.0300000001,
      "d": 1818.1749999999884,
      "v": 97
    },
    {
      "midi": 62,
      "hit": false,
      "t": 139272.20500000007,
      "d": 363.6350000000093,
      "v": 97
    },
    {
      "midi": 66,
      "hit": false,
      "t": 139272.20500000007,
      "d": 363.6350000000093,
      "v": 97
    },
    {
      "midi": 69,
      "hit": false,
      "t": 139272.20500000007,
      "d": 363.6350000000093,
      "v": 97
    },
    {
      "midi": 74,
      "hit": false,
      "t": 139272.20500000007,
      "d": 363.6350000000093,
      "v": 97
    },
    {
      "midi": 57,
      "hit": false,
      "t": 139635.84000000008,
      "d": 1090.9049999999988,
      "v": 97
    },
    {
      "midi": 62,
      "hit": false,
      "t": 139635.84000000008,
      "d": 1090.9049999999988,
      "v": 97
    },
    {
      "midi": 66,
      "hit": false,
      "t": 139635.84000000008,
      "d": 1090.9049999999988,
      "v": 97
    },
    {
      "midi": 69,
      "hit": false,
      "t": 139635.84000000008,
      "d": 1090.9049999999988,
      "v": 97
    },
    {
      "midi": 59,
      "hit": false,
      "t": 140363.11000000007,
      "d": 363.6350000000093,
      "v": 86
    },
    {
      "midi": 71,
      "hit": false,
      "t": 140363.11000000007,
      "d": 363.6350000000093,
      "v": 95
    },
    {
      "midi": 62,
      "hit": false,
      "t": 140726.74500000008,
      "d": 363.6350000000093,
      "v": 99
    },
    {
      "midi": 74,
      "hit": false,
      "t": 140726.74500000008,
      "d": 363.6350000000093,
      "v": 99
    },
    {
      "midi": 64,
      "hit": false,
      "t": 141090.3800000001,
      "d": 363.6350000000093,
      "v": 99
    },
    {
      "midi": 76,
      "hit": false,
      "t": 141090.3800000001,
      "d": 363.6350000000093,
      "v": 103
    },
    {
      "midi": 65,
      "hit": false,
      "t": 141454.0150000001,
      "d": 363.6350000000093,
      "v": 101
    },
    {
      "midi": 77,
      "hit": false,
      "t": 141454.0150000001,
      "d": 363.6350000000093,
      "v": 105
    },
    {
      "midi": 66,
      "hit": false,
      "t": 141817.6500000001,
      "d": 363.6350000000093,
      "v": 101
    },
    {
      "midi": 78,
      "hit": false,
      "t": 141817.6500000001,
      "d": 363.6350000000093,
      "v": 105
    },
    {
      "midi": 61,
      "hit": false,
      "t": 141817.6500000001,
      "d": 1999.9925000000221,
      "v": 97
    },
    {
      "midi": 64,
      "hit": false,
      "t": 141817.6500000001,
      "d": 1999.9925000000221,
      "v": 97
    },
    {
      "midi": 69,
      "hit": false,
      "t": 141817.6500000001,
      "d": 1999.9925000000221,
      "v": 97
    },
    {
      "midi": 73,
      "hit": false,
      "t": 141817.6500000001,
      "d": 1999.9925000000221,
      "v": 97
    },
    {
      "midi": 62,
      "hit": false,
      "t": 143999.46000000014,
      "d": 1818.1749999999884,
      "v": 97
    },
    {
      "midi": 66,
      "hit": false,
      "t": 143999.46000000014,
      "d": 1818.1749999999884,
      "v": 97
    },
    {
      "midi": 69,
      "hit": false,
      "t": 143999.46000000014,
      "d": 1818.1749999999884,
      "v": 97
    },
    {
      "midi": 74,
      "hit": false,
      "t": 143999.46000000014,
      "d": 1818.1749999999884,
      "v": 97
    },
    {
      "midi": 61,
      "hit": false,
      "t": 146181.27000000014,
      "d": 1636.3575000000128,
      "v": 97
    },
    {
      "midi": 66,
      "hit": false,
      "t": 146181.27000000014,
      "d": 1636.3575000000128,
      "v": 97
    },
    {
      "midi": 69,
      "hit": false,
      "t": 146181.27000000014,
      "d": 1636.3575000000128,
      "v": 97
    },
    {
      "midi": 73,
      "hit": false,
      "t": 146181.27000000014,
      "d": 1636.3575000000128,
      "v": 97
    },
    {
      "midi": 59,
      "hit": false,
      "t": 148363.08000000016,
      "d": 1636.3575000000128,
      "v": 97
    },
    {
      "midi": 62,
      "hit": false,
      "t": 148363.08000000016,
      "d": 1636.3575000000128,
      "v": 97
    },
    {
      "midi": 66,
      "hit": false,
      "t": 148363.08000000016,
      "d": 1636.3575000000128,
      "v": 97
    },
    {
      "midi": 71,
      "hit": false,
      "t": 148363.08000000016,
      "d": 1636.3575000000128,
      "v": 97
    },
    {
      "midi": 66,
      "hit": false,
      "t": 150181.25500000018,
      "d": 363.6350000000093,
      "v": 97
    },
    {
      "midi": 57,
      "hit": false,
      "t": 150544.8900000002,
      "d": 1818.1749999999884,
      "v": 97
    },
    {
      "midi": 62,
      "hit": false,
      "t": 150544.8900000002,
      "d": 1818.1749999999884,
      "v": 97
    },
    {
      "midi": 66,
      "hit": false,
      "t": 150544.8900000002,
      "d": 1818.1749999999884,
      "v": 97
    },
    {
      "midi": 69,
      "hit": false,
      "t": 150544.8900000002,
      "d": 1818.1749999999884,
      "v": 97
    },
    {
      "midi": 59,
      "hit": false,
      "t": 152726.7000000002,
      "d": 1636.3575000000128,
      "v": 97
    },
    {
      "midi": 62,
      "hit": false,
      "t": 152726.7000000002,
      "d": 1636.3575000000128,
      "v": 97
    },
    {
      "midi": 67,
      "hit": false,
      "t": 152726.7000000002,
      "d": 1636.3575000000128,
      "v": 97
    },
    {
      "midi": 71,
      "hit": false,
      "t": 152726.7000000002,
      "d": 1636.3575000000128,
      "v": 97
    },
    {
      "midi": 59,
      "hit": false,
      "t": 154908.5100000002,
      "d": 1818.1749999999884,
      "v": 97
    },
    {
      "midi": 62,
      "hit": false,
      "t": 154908.5100000002,
      "d": 1818.1749999999884,
      "v": 97
    },
    {
      "midi": 67,
      "hit": false,
      "t": 154908.5100000002,
      "d": 1818.1749999999884,
      "v": 97
    },
    {
      "midi": 71,
      "hit": false,
      "t": 154908.5100000002,
      "d": 1818.1749999999884,
      "v": 97
    },
    {
      "midi": 62,
      "hit": false,
      "t": 156726.6850000002,
      "d": 363.6350000000093,
      "v": 97
    },
    {
      "midi": 66,
      "hit": false,
      "t": 156726.6850000002,
      "d": 363.6350000000093,
      "v": 97
    },
    {
      "midi": 69,
      "hit": false,
      "t": 156726.6850000002,
      "d": 363.6350000000093,
      "v": 97
    },
    {
      "midi": 74,
      "hit": false,
      "t": 156726.6850000002,
      "d": 363.6350000000093,
      "v": 97
    },
    {
      "midi": 57,
      "hit": false,
      "t": 157090.3200000002,
      "d": 1090.9049999999988,
      "v": 97
    },
    {
      "midi": 62,
      "hit": false,
      "t": 157090.3200000002,
      "d": 1090.9049999999988,
      "v": 97
    },
    {
      "midi": 66,
      "hit": false,
      "t": 157090.3200000002,
      "d": 1090.9049999999988,
      "v": 97
    },
    {
      "midi": 69,
      "hit": false,
      "t": 157090.3200000002,
      "d": 1090.9049999999988,
      "v": 97
    },
    {
      "midi": 61,
      "hit": false,
      "t": 159272.1300000002,
      "d": 1999.992499999993,
      "v": 97
    },
    {
      "midi": 64,
      "hit": false,
      "t": 159272.1300000002,
      "d": 1999.992499999993,
      "v": 97
    },
    {
      "midi": 69,
      "hit": false,
      "t": 159272.1300000002,
      "d": 1999.992499999993,
      "v": 97
    },
    {
      "midi": 73,
      "hit": false,
      "t": 159272.1300000002,
      "d": 1999.992499999993,
      "v": 97
    },
    {
      "midi": 69,
      "hit": false,
      "t": 183272.0400000002,
      "d": 1090.9049999999988,
      "v": 90
    },
    {
      "midi": 74,
      "hit": false,
      "t": 183272.0400000002,
      "d": 1454.5400000000081,
      "v": 90
    },
    {
      "midi": 78,
      "hit": false,
      "t": 183272.0400000002,
      "d": 1818.1750000000175,
      "v": 90
    },
    {
      "midi": 66,
      "hit": false,
      "t": 183272.0400000002,
      "d": 1999.9925000000221,
      "v": 90
    },
    {
      "midi": 69,
      "hit": false,
      "t": 184362.9450000002,
      "d": 909.0875000000233,
      "v": 90
    },
    {
      "midi": 74,
      "hit": false,
      "t": 184726.58000000022,
      "d": 545.452500000014,
      "v": 90
    },
    {
      "midi": 78,
      "hit": false,
      "t": 185090.21500000023,
      "d": 260.60508333332837,
      "v": 90
    },
    {
      "midi": 76,
      "hit": false,
      "t": 185453.85000000024,
      "d": 1454.5400000000081,
      "v": 90
    },
    {
      "midi": 73,
      "hit": false,
      "t": 185453.85000000024,
      "d": 1760.5994583333377,
      "v": 90
    },
    {
      "midi": 64,
      "hit": false,
      "t": 185453.85000000024,
      "d": 1768.17518749999,
      "v": 90
    },
    {
      "midi": 69,
      "hit": false,
      "t": 185453.85000000024,
      "d": 1772.7206249999872,
      "v": 90
    },
    {
      "midi": 76,
      "hit": false,
      "t": 186908.39000000025,
      "d": 371.2107291666325,
      "v": 90
    },
    {
      "midi": 73,
      "hit": false,
      "t": 187272.02500000023,
      "d": 292.4231458333088,
      "v": 90
    },
    {
      "midi": 62,
      "hit": false,
      "t": 187635.6600000002,
      "d": 909.0874999999942,
      "v": 90
    },
    {
      "midi": 67,
      "hit": false,
      "t": 187635.6600000002,
      "d": 909.0874999999942,
      "v": 90
    },
    {
      "midi": 71,
      "hit": false,
      "t": 187635.6600000002,
      "d": 909.0874999999942,
      "v": 90
    },
    {
      "midi": 74,
      "hit": false,
      "t": 187635.6600000002,
      "d": 909.0874999999942,
      "v": 90
    },
    {
      "midi": 55,
      "hit": false,
      "t": 189817.4700000002,
      "d": 1454.5400000000081,
      "v": 76
    },
    {
      "midi": 59,
      "hit": false,
      "t": 189817.4700000002,
      "d": 1454.5400000000081,
      "v": 89
    },
    {
      "midi": 62,
      "hit": false,
      "t": 189817.4700000002,
      "d": 1454.5400000000081,
      "v": 93
    },
    {
      "midi": 67,
      "hit": false,
      "t": 189817.4700000002,
      "d": 1454.5400000000081,
      "v": 85
    },
    {
      "midi": 50,
      "hit": false,
      "t": 191272.0100000002,
      "d": 246.96877083333675,
      "v": 97
    },
    {
      "midi": 62,
      "hit": false,
      "t": 191272.0100000002,
      "d": 289.3928541666828,
      "v": 97
    },
    {
      "midi": 52,
      "hit": false,
      "t": 191635.64500000022,
      "d": 277.2716875000042,
      "v": 90
    },
    {
      "midi": 64,
      "hit": false,
      "t": 191635.64500000022,
      "d": 289.3928541666828,
      "v": 109
    },
    {
      "midi": 54,
      "hit": false,
      "t": 191999.28000000023,
      "d": 1636.3575000000128,
      "v": 99
    },
    {
      "midi": 57,
      "hit": false,
      "t": 191999.28000000023,
      "d": 1636.3575000000128,
      "v": 89
    },
    {
      "midi": 62,
      "hit": false,
      "t": 191999.28000000023,
      "d": 1636.3575000000128,
      "v": 89
    },
    {
      "midi": 66,
      "hit": false,
      "t": 191999.28000000023,
      "d": 1636.3575000000128,
      "v": 86
    },
    {
      "midi": 62,
      "hit": false,
      "t": 193817.45500000025,
      "d": 298.4837291666772,
      "v": 87
    },
    {
      "midi": 54,
      "hit": false,
      "t": 193817.45500000025,
      "d": 303.0291666666744,
      "v": 99
    },
    {
      "midi": 57,
      "hit": false,
      "t": 193817.45500000025,
      "d": 313.63518750001094,
      "v": 93
    },
    {
      "midi": 66,
      "hit": false,
      "t": 193817.45500000025,
      "d": 318.18062500000815,
      "v": 92
    },
    {
      "midi": 64,
      "hit": false,
      "t": 194181.09000000026,
      "d": 1374.2372708333423,
      "v": 93
    },
    {
      "midi": 52,
      "hit": false,
      "t": 194181.09000000026,
      "d": 1410.600770833349,
      "v": 93
    },
    {
      "midi": 61,
      "hit": false,
      "t": 194181.09000000026,
      "d": 1410.600770833349,
      "v": 92
    },
    {
      "midi": 57,
      "hit": false,
      "t": 194181.09000000026,
      "d": 1449.994562500011,
      "v": 95
    },
    {
      "midi": 64,
      "hit": false,
      "t": 195635.63000000027,
      "d": 416.6651041666628,
      "v": 99
    },
    {
      "midi": 61,
      "hit": false,
      "t": 195999.26500000028,
      "d": 274.24139583332,
      "v": 102
    },
    {
      "midi": 50,
      "hit": false,
      "t": 196362.90000000026,
      "d": 727.2699999999895,
      "v": 85
    },
    {
      "midi": 55,
      "hit": false,
      "t": 196362.90000000026,
      "d": 727.2699999999895,
      "v": 86
    },
    {
      "midi": 59,
      "hit": false,
      "t": 196362.90000000026,
      "d": 727.2699999999895,
      "v": 90
    },
    {
      "midi": 62,
      "hit": false,
      "t": 196362.90000000026,
      "d": 727.2699999999895,
      "v": 89
    },
    {
      "midi": 50,
      "hit": false,
      "t": 197090.17000000025,
      "d": 363.6350000000093,
      "v": 90
    },
    {
      "midi": 55,
      "hit": false,
      "t": 197090.17000000025,
      "d": 363.6350000000093,
      "v": 82
    },
    {
      "midi": 59,
      "hit": false,
      "t": 197090.17000000025,
      "d": 363.6350000000093,
      "v": 89
    },
    {
      "midi": 62,
      "hit": false,
      "t": 197090.17000000025,
      "d": 363.6350000000093,
      "v": 92
    },
    {
      "midi": 47,
      "hit": false,
      "t": 197453.80500000025,
      "d": 222.72643750000861,
      "v": 61
    },
    {
      "midi": 71,
      "hit": false,
      "t": 197453.80500000025,
      "d": 236.36275000000023,
      "v": 63
    },
    {
      "midi": 59,
      "hit": false,
      "t": 197453.80500000025,
      "d": 239.39304166665534,
      "v": 52
    },
    {
      "midi": 62,
      "hit": false,
      "t": 197453.80500000025,
      "d": 239.39304166665534,
      "v": 60
    },
    {
      "midi": 74,
      "hit": false,
      "t": 197453.80500000025,
      "d": 253.02935416664695,
      "v": 74
    },
    {
      "midi": 67,
      "hit": false,
      "t": 197453.80500000025,
      "d": 262.12022916664137,
      "v": 63
    },
    {
      "midi": 62,
      "hit": false,
      "t": 197817.44000000024,
      "d": 234.84760416665813,
      "v": 75
    },
    {
      "midi": 71,
      "hit": false,
      "t": 197817.44000000024,
      "d": 236.36275000000023,
      "v": 80
    },
    {
      "midi": 67,
      "hit": false,
      "t": 197817.44000000024,
      "d": 245.45362499999464,
      "v": 73
    },
    {
      "midi": 47,
      "hit": false,
      "t": 197817.44000000024,
      "d": 246.96877083333675,
      "v": 78
    },
    {
      "midi": 74,
      "hit": false,
      "t": 197817.44000000024,
      "d": 249.99906249999185,
      "v": 86
    },
    {
      "midi": 59,
      "hit": false,
      "t": 197817.44000000024,
      "d": 260.60508333332837,
      "v": 69
    },
    {
      "midi": 47,
      "hit": false,
      "t": 198181.07500000024,
      "d": 189.39322916665697,
      "v": 87
    },
    {
      "midi": 62,
      "hit": false,
      "t": 198181.07500000024,
      "d": 199.99924999999348,
      "v": 89
    },
    {
      "midi": 71,
      "hit": false,
      "t": 198181.07500000024,
      "d": 199.99924999999348,
      "v": 93
    },
    {
      "midi": 74,
      "hit": false,
      "t": 198181.07500000024,
      "d": 207.5749791666458,
      "v": 95
    },
    {
      "midi": 59,
      "hit": false,
      "t": 198181.07500000024,
      "d": 209.0901249999879,
      "v": 79
    },
    {
      "midi": 67,
      "hit": false,
      "t": 198181.07500000024,
      "d": 209.0901249999879,
      "v": 87
    },
    {
      "midi": 45,
      "hit": false,
      "t": 198544.71000000022,
      "d": 254.54449999998906,
      "v": 61
    },
    {
      "midi": 57,
      "hit": false,
      "t": 198544.71000000022,
      "d": 266.6656666666677,
      "v": 61
    },
    {
      "midi": 62,
      "hit": false,
      "t": 198544.71000000022,
      "d": 283.3322708333435,
      "v": 63
    },
    {
      "midi": 74,
      "hit": false,
      "t": 198544.71000000022,
      "d": 283.3322708333435,
      "v": 74
    },
    {
      "midi": 71,
      "hit": false,
      "t": 198544.71000000022,
      "d": 290.9079999999958,
      "v": 68
    },
    {
      "midi": 67,
      "hit": false,
      "t": 198544.71000000022,
      "d": 304.5443124999874,
      "v": 68
    },
    {
      "midi": 45,
      "hit": false,
      "t": 198908.3450000002,
      "d": 266.6656666666677,
      "v": 68
    },
    {
      "midi": 62,
      "hit": false,
      "t": 198908.3450000002,
      "d": 266.6656666666677,
      "v": 75
    },
    {
      "midi": 71,
      "hit": false,
      "t": 198908.3450000002,
      "d": 269.6959583333228,
      "v": 79
    },
    {
      "midi": 74,
      "hit": false,
      "t": 198908.3450000002,
      "d": 272.7262499999779,
      "v": 79
    },
    {
      "midi": 67,
      "hit": false,
      "t": 198908.3450000002,
      "d": 281.8171249999723,
      "v": 75
    },
    {
      "midi": 57,
      "hit": false,
      "t": 198908.3450000002,
      "d": 292.4231458333088,
      "v": 71
    },
    {
      "midi": 45,
      "hit": false,
      "t": 199271.98000000019,
      "d": 290.9079999999958,
      "v": 76
    },
    {
      "midi": 74,
      "hit": false,
      "t": 199271.98000000019,
      "d": 290.9079999999958,
      "v": 87
    },
    {
      "midi": 62,
      "hit": false,
      "t": 199271.98000000019,
      "d": 295.453437499993,
      "v": 78
    },
    {
      "midi": 71,
      "hit": false,
      "t": 199271.98000000019,
      "d": 299.9988749999902,
      "v": 81
    },
    {
      "midi": 57,
      "hit": false,
      "t": 199271.98000000019,
      "d": 310.60489583332674,
      "v": 81
    },
    {
      "midi": 67,
      "hit": false,
      "t": 199271.98000000019,
      "d": 315.15033333332394,
      "v": 75
    },
    {
      "midi": 45,
      "hit": false,
      "t": 199635.61500000017,
      "d": 262.12022916667047,
      "v": 79
    },
    {
      "midi": 62,
      "hit": false,
      "t": 199635.61500000017,
      "d": 272.726250000007,
      "v": 83
    },
    {
      "midi": 74,
      "hit": false,
      "t": 199635.61500000017,
      "d": 280.3019791666593,
      "v": 93
    },
    {
      "midi": 57,
      "hit": false,
      "t": 199635.61500000017,
      "d": 281.8171250000014,
      "v": 68
    },
    {
      "midi": 71,
      "hit": false,
      "t": 199635.61500000017,
      "d": 289.3928541666537,
      "v": 90
    },
    {
      "midi": 67,
      "hit": false,
      "t": 199635.61500000017,
      "d": 303.0291666666453,
      "v": 69
    },
    {
      "midi": 45,
      "hit": false,
      "t": 199999.25000000015,
      "d": 253.02935416667606,
      "v": 67
    },
    {
      "midi": 74,
      "hit": false,
      "t": 199999.25000000015,
      "d": 295.4534375000221,
      "v": 89
    },
    {
      "midi": 71,
      "hit": false,
      "t": 199999.25000000015,
      "d": 306.05945833335863,
      "v": 87
    },
    {
      "midi": 67,
      "hit": false,
      "t": 199999.25000000015,
      "d": 319.69577083335025,
      "v": 68
    },
    {
      "midi": 57,
      "hit": false,
      "t": 199999.25000000015,
      "d": 363.6350000000093,
      "v": 68
    },
    {
      "midi": 62,
      "hit": false,
      "t": 199999.25000000015,
      "d": 363.6350000000093,
      "v": 80
    },
    {
      "midi": 45,
      "hit": false,
      "t": 200362.88500000015,
      "d": 196.96895833333838,
      "v": 71
    },
    {
      "midi": 71,
      "hit": false,
      "t": 200362.88500000015,
      "d": 219.6961458333244,
      "v": 87
    },
    {
      "midi": 74,
      "hit": false,
      "t": 200362.88500000015,
      "d": 222.7264374999795,
      "v": 97
    },
    {
      "midi": 57,
      "hit": false,
      "t": 200362.88500000015,
      "d": 227.27187499997672,
      "v": 85
    },
    {
      "midi": 62,
      "hit": false,
      "t": 200362.88500000015,
      "d": 227.27187499997672,
      "v": 85
    },
    {
      "midi": 67,
      "hit": false,
      "t": 200362.88500000015,
      "d": 231.81731249997392,
      "v": 89
    },
    {
      "midi": 50,
      "hit": false,
      "t": 200726.52000000014,
      "d": 1387.873583333334,
      "v": 93
    },
    {
      "midi": 38,
      "hit": false,
      "t": 200726.52000000014,
      "d": 1442.4188333333295,
      "v": 78
    },
    {
      "midi": 54,
      "hit": false,
      "t": 200726.52000000014,
      "d": 1456.0551458333503,
      "v": 108
    },
    {
      "midi": 62,
      "hit": false,
      "t": 200726.52000000014,
      "d": 1486.3580625000177,
      "v": 90
    },
    {
      "midi": 57,
      "hit": false,
      "t": 200726.52000000014,
      "d": 1518.1761250000272,
      "v": 99
    },
    {
      "midi": 66,
      "hit": false,
      "t": 200726.52000000014,
      "d": 1525.7518541666795,
      "v": 92
    },
    {
      "midi": 50,
      "hit": false,
      "t": 202181.06000000014,
      "d": 565.1493958333449,
      "v": 107
    },
    {
      "midi": 54,
      "hit": false,
      "t": 202362.87750000015,
      "d": 478.7860833333398,
      "v": 108
    },
    {
      "midi": 57,
      "hit": false,
      "t": 202544.69500000015,
      "d": 289.3928541666828,
      "v": 82
    },
    {
      "midi": 62,
      "hit": false,
      "t": 202726.51250000016,
      "d": 143.9388541666558,
      "v": 85
    },
    {
      "midi": 57,
      "hit": false,
      "t": 202908.33000000013,
      "d": 1090.9049999999988,
      "v": 93
    },
    {
      "midi": 69,
      "hit": false,
      "t": 202908.33000000013,
      "d": 1299.9951249999867,
      "v": 89
    },
    {
      "midi": 61,
      "hit": false,
      "t": 202908.33000000013,
      "d": 1312.1162916666653,
      "v": 88
    },
    {
      "midi": 64,
      "hit": false,
      "t": 202908.33000000013,
      "d": 1319.6920208333177,
      "v": 93
    },
    {
      "midi": 57,
      "hit": false,
      "t": 203999.23500000013,
      "d": 375.7561666666588,
      "v": 101
    },
    {
      "midi": 61,
      "hit": false,
      "t": 204362.8700000001,
      "d": 380.30160416668514,
      "v": 84
    },
    {
      "midi": 64,
      "hit": false,
      "t": 204726.50500000012,
      "d": 254.54450000001816,
      "v": 90
    },
    {
      "midi": 55,
      "hit": false,
      "t": 205090.14000000013,
      "d": 999.9962499999965,
      "v": 80
    },
    {
      "midi": 67,
      "hit": false,
      "t": 205090.14000000013,
      "d": 1083.3292708333174,
      "v": 87
    },
    {
      "midi": 62,
      "hit": false,
      "t": 205090.14000000013,
      "d": 1107.5716041666456,
      "v": 89
    },
    {
      "midi": 59,
      "hit": false,
      "t": 205090.14000000013,
      "d": 1116.66247916664,
      "v": 89
    },
    {
      "midi": 55,
      "hit": false,
      "t": 206181.0450000001,
      "d": 421.2105416666891,
      "v": 105
    },
    {
      "midi": 59,
      "hit": false,
      "t": 206544.6800000001,
      "d": 387.87733333333745,
      "v": 80
    },
    {
      "midi": 62,
      "hit": false,
      "t": 206908.31500000012,
      "d": 216.6658541666693,
      "v": 90
    },
    {
      "midi": 62,
      "hit": false,
      "t": 207271.95000000013,
      "d": 304.5443124999874,
      "v": 70
    },
    {
      "midi": 55,
      "hit": false,
      "t": 207271.95000000013,
      "d": 310.60489583332674,
      "v": 59
    },
    {
      "midi": 67,
      "hit": false,
      "t": 207271.95000000013,
      "d": 310.60489583332674,
      "v": 70
    },
    {
      "midi": 59,
      "hit": false,
      "t": 207271.95000000013,
      "d": 319.69577083332115,
      "v": 70
    },
    {
      "midi": 55,
      "hit": false,
      "t": 207635.5850000001,
      "d": 265.1505208333256,
      "v": 55
    },
    {
      "midi": 67,
      "hit": false,
      "t": 207635.5850000001,
      "d": 275.7565416666621,
      "v": 64
    },
    {
      "midi": 62,
      "hit": false,
      "t": 207635.5850000001,
      "d": 284.8474166666565,
      "v": 68
    },
    {
      "midi": 59,
      "hit": false,
      "t": 207635.5850000001,
      "d": 292.4231458333088,
      "v": 63
    },
    {
      "midi": 55,
      "hit": false,
      "t": 207999.2200000001,
      "d": 281.8171250000014,
      "v": 71
    },
    {
      "midi": 67,
      "hit": false,
      "t": 207999.2200000001,
      "d": 283.3322708333435,
      "v": 83
    },
    {
      "midi": 62,
      "hit": false,
      "t": 207999.2200000001,
      "d": 299.9988750000193,
      "v": 70
    },
    {
      "midi": 59,
      "hit": false,
      "t": 207999.2200000001,
      "d": 304.54431250001653,
      "v": 72
    },
    {
      "midi": 67,
      "hit": false,
      "t": 208362.8550000001,
      "d": 268.1808125000098,
      "v": 85
    },
    {
      "midi": 55,
      "hit": false,
      "t": 208362.8550000001,
      "d": 277.2716875000042,
      "v": 75
    },
    {
      "midi": 59,
      "hit": false,
      "t": 208362.8550000001,
      "d": 295.453437499993,
      "v": 79
    },
    {
      "midi": 62,
      "hit": false,
      "t": 208362.8550000001,
      "d": 295.453437499993,
      "v": 75
    },
    {
      "midi": 55,
      "hit": false,
      "t": 208726.49000000008,
      "d": 310.60489583332674,
      "v": 75
    },
    {
      "midi": 67,
      "hit": false,
      "t": 208726.49000000008,
      "d": 313.63518749998184,
      "v": 86
    },
    {
      "midi": 62,
      "hit": false,
      "t": 208726.49000000008,
      "d": 319.69577083332115,
      "v": 81
    },
    {
      "midi": 59,
      "hit": false,
      "t": 208726.49000000008,
      "d": 336.362374999997,
      "v": 79
    },
    {
      "midi": 55,
      "hit": false,
      "t": 209090.1250000001,
      "d": 259.08993749998626,
      "v": 86
    },
    {
      "midi": 62,
      "hit": false,
      "t": 209090.1250000001,
      "d": 268.1808124999807,
      "v": 95
    },
    {
      "midi": 67,
      "hit": false,
      "t": 209090.1250000001,
      "d": 275.756541666633,
      "v": 86
    },
    {
      "midi": 59,
      "hit": false,
      "t": 209090.1250000001,
      "d": 283.3322708332853,
      "v": 85
    },
    {
      "midi": 50,
      "hit": false,
      "t": 209453.76000000004,
      "d": 1387.873583333334,
      "v": 93
    },
    {
      "midi": 38,
      "hit": false,
      "t": 209453.76000000004,
      "d": 1442.4188333333295,
      "v": 78
    },
    {
      "midi": 54,
      "hit": false,
      "t": 209453.76000000004,
      "d": 1456.0551458333503,
      "v": 108
    },
    {
      "midi": 62,
      "hit": false,
      "t": 209453.76000000004,
      "d": 1486.3580625000177,
      "v": 90
    },
    {
      "midi": 57,
      "hit": false,
      "t": 209453.76000000004,
      "d": 1518.1761250000272,
      "v": 99
    },
    {
      "midi": 66,
      "hit": false,
      "t": 209453.76000000004,
      "d": 1525.7518541666795,
      "v": 92
    },
    {
      "midi": 50,
      "hit": false,
      "t": 210908.30000000005,
      "d": 565.1493958333449,
      "v": 107
    },
    {
      "midi": 54,
      "hit": false,
      "t": 211090.11750000005,
      "d": 478.7860833333398,
      "v": 108
    },
    {
      "midi": 57,
      "hit": false,
      "t": 211271.93500000006,
      "d": 289.3928541666828,
      "v": 82
    },
    {
      "midi": 62,
      "hit": false,
      "t": 211453.75250000006,
      "d": 143.9388541666558,
      "v": 85
    },
    {
      "midi": 69,
      "hit": false,
      "t": 211635.57000000004,
      "d": 1299.9951249999867,
      "v": 89
    },
    {
      "midi": 61,
      "hit": false,
      "t": 211635.57000000004,
      "d": 1312.1162916666653,
      "v": 88
    },
    {
      "midi": 64,
      "hit": false,
      "t": 211635.57000000004,
      "d": 1319.6920208333177,
      "v": 93
    },
    {
      "midi": 57,
      "hit": false,
      "t": 212726.47500000003,
      "d": 201.51439583333558,
      "v": 101
    },
    {
      "midi": 61,
      "hit": false,
      "t": 213090.11000000002,
      "d": 380.30160416668514,
      "v": 84
    },
    {
      "midi": 64,
      "hit": false,
      "t": 213453.74500000002,
      "d": 254.54450000001816,
      "v": 90
    },
    {
      "midi": 55,
      "hit": false,
      "t": 213817.38000000003,
      "d": 999.9962499999965,
      "v": 80
    },
    {
      "midi": 67,
      "hit": false,
      "t": 213817.38000000003,
      "d": 1083.3292708333174,
      "v": 87
    },
    {
      "midi": 62,
      "hit": false,
      "t": 213817.38000000003,
      "d": 1107.5716041666456,
      "v": 89
    },
    {
      "midi": 59,
      "hit": false,
      "t": 213817.38000000003,
      "d": 1116.66247916664,
      "v": 89
    },
    {
      "midi": 62,
      "hit": false,
      "t": 215999.19,
      "d": 304.54431250001653,
      "v": 70
    },
    {
      "midi": 55,
      "hit": false,
      "t": 215999.19,
      "d": 310.60489583335584,
      "v": 59
    },
    {
      "midi": 67,
      "hit": false,
      "t": 215999.19,
      "d": 310.60489583335584,
      "v": 70
    },
    {
      "midi": 59,
      "hit": false,
      "t": 215999.19,
      "d": 319.69577083335025,
      "v": 70
    },
    {
      "midi": 55,
      "hit": false,
      "t": 216362.825,
      "d": 265.1505208333256,
      "v": 55
    },
    {
      "midi": 67,
      "hit": false,
      "t": 216362.825,
      "d": 275.7565416666621,
      "v": 64
    },
    {
      "midi": 62,
      "hit": false,
      "t": 216362.825,
      "d": 284.8474166666565,
      "v": 68
    },
    {
      "midi": 59,
      "hit": false,
      "t": 216362.825,
      "d": 292.4231458333088,
      "v": 63
    },
    {
      "midi": 55,
      "hit": false,
      "t": 216726.46,
      "d": 281.8171250000014,
      "v": 71
    },
    {
      "midi": 67,
      "hit": false,
      "t": 216726.46,
      "d": 283.3322708333435,
      "v": 83
    },
    {
      "midi": 62,
      "hit": false,
      "t": 216726.46,
      "d": 299.9988750000193,
      "v": 70
    },
    {
      "midi": 59,
      "hit": false,
      "t": 216726.46,
      "d": 304.54431250001653,
      "v": 72
    },
    {
      "midi": 67,
      "hit": false,
      "t": 217090.095,
      "d": 268.1808125000098,
      "v": 85
    },
    {
      "midi": 55,
      "hit": false,
      "t": 217090.095,
      "d": 277.2716875000042,
      "v": 75
    },
    {
      "midi": 59,
      "hit": false,
      "t": 217090.095,
      "d": 295.453437499993,
      "v": 79
    },
    {
      "midi": 62,
      "hit": false,
      "t": 217090.095,
      "d": 295.453437499993,
      "v": 75
    },
    {
      "midi": 55,
      "hit": false,
      "t": 217453.72999999998,
      "d": 310.60489583332674,
      "v": 75
    },
    {
      "midi": 67,
      "hit": false,
      "t": 217453.72999999998,
      "d": 313.63518749998184,
      "v": 86
    },
    {
      "midi": 62,
      "hit": false,
      "t": 217453.72999999998,
      "d": 319.69577083332115,
      "v": 81
    },
    {
      "midi": 59,
      "hit": false,
      "t": 217453.72999999998,
      "d": 336.362374999997,
      "v": 79
    },
    {
      "midi": 55,
      "hit": false,
      "t": 217817.365,
      "d": 259.08993750001537,
      "v": 86
    },
    {
      "midi": 62,
      "hit": false,
      "t": 217817.365,
      "d": 268.1808125000098,
      "v": 95
    },
    {
      "midi": 67,
      "hit": false,
      "t": 217817.365,
      "d": 275.7565416666621,
      "v": 86
    },
    {
      "midi": 59,
      "hit": false,
      "t": 217817.365,
      "d": 283.3322708333144,
      "v": 85
    },
    {
      "midi": 50,
      "hit": false,
      "t": 218180.99999999997,
      "d": 1387.873583333363,
      "v": 93
    },
    {
      "midi": 38,
      "hit": false,
      "t": 218180.99999999997,
      "d": 1442.4188333333586,
      "v": 78
    },
    {
      "midi": 54,
      "hit": false,
      "t": 218180.99999999997,
      "d": 1456.0551458333794,
      "v": 108
    },
    {
      "midi": 62,
      "hit": false,
      "t": 218180.99999999997,
      "d": 1486.3580625000468,
      "v": 90
    },
    {
      "midi": 57,
      "hit": false,
      "t": 218180.99999999997,
      "d": 1518.1761250000563,
      "v": 99
    },
    {
      "midi": 66,
      "hit": false,
      "t": 218180.99999999997,
      "d": 1525.7518541667087,
      "v": 92
    },
    {
      "midi": 50,
      "hit": false,
      "t": 219635.54,
      "d": 565.1493958333449,
      "v": 107
    },
    {
      "midi": 54,
      "hit": false,
      "t": 219817.3575,
      "d": 478.7860833333398,
      "v": 108
    },
    {
      "midi": 57,
      "hit": false,
      "t": 219999.17500000002,
      "d": 289.3928541666828,
      "v": 82
    },
    {
      "midi": 62,
      "hit": false,
      "t": 220180.99250000002,
      "d": 143.9388541666558,
      "v": 85
    },
    {
      "midi": 57,
      "hit": false,
      "t": 220362.81,
      "d": 1292.4193958333635,
      "v": 93
    },
    {
      "midi": 69,
      "hit": false,
      "t": 220362.81,
      "d": 1299.9951250000158,
      "v": 89
    },
    {
      "midi": 61,
      "hit": false,
      "t": 220362.81,
      "d": 1312.1162916666653,
      "v": 88
    },
    {
      "midi": 55,
      "hit": false,
      "t": 222544.62000000002,
      "d": 999.9962500000256,
      "v": 80
    },
    {
      "midi": 67,
      "hit": false,
      "t": 222544.62000000002,
      "d": 1083.3292708333465,
      "v": 87
    },
    {
      "midi": 62,
      "hit": false,
      "t": 222544.62000000002,
      "d": 1107.5716041666747,
      "v": 89
    },
    {
      "midi": 59,
      "hit": false,
      "t": 222544.62000000002,
      "d": 1116.662479166669,
      "v": 89
    },
    {
      "midi": 62,
      "hit": false,
      "t": 224726.43000000005,
      "d": 304.54431250001653,
      "v": 70
    },
    {
      "midi": 55,
      "hit": false,
      "t": 224726.43000000005,
      "d": 310.60489583335584,
      "v": 59
    },
    {
      "midi": 67,
      "hit": false,
      "t": 224726.43000000005,
      "d": 310.60489583335584,
      "v": 70
    },
    {
      "midi": 59,
      "hit": false,
      "t": 224726.43000000005,
      "d": 319.69577083335025,
      "v": 70
    },
    {
      "midi": 55,
      "hit": false,
      "t": 225090.06500000006,
      "d": 265.1505208333256,
      "v": 55
    },
    {
      "midi": 67,
      "hit": false,
      "t": 225090.06500000006,
      "d": 275.7565416666621,
      "v": 64
    },
    {
      "midi": 62,
      "hit": false,
      "t": 225090.06500000006,
      "d": 284.8474166666565,
      "v": 68
    },
    {
      "midi": 59,
      "hit": false,
      "t": 225090.06500000006,
      "d": 292.4231458333088,
      "v": 63
    },
    {
      "midi": 55,
      "hit": false,
      "t": 225453.70000000004,
      "d": 281.8171250000014,
      "v": 71
    },
    {
      "midi": 67,
      "hit": false,
      "t": 225453.70000000004,
      "d": 283.3322708333435,
      "v": 83
    },
    {
      "midi": 62,
      "hit": false,
      "t": 225453.70000000004,
      "d": 299.9988750000193,
      "v": 70
    },
    {
      "midi": 59,
      "hit": false,
      "t": 225453.70000000004,
      "d": 304.54431250001653,
      "v": 72
    },
    {
      "midi": 67,
      "hit": false,
      "t": 225817.33500000005,
      "d": 268.1808125000098,
      "v": 85
    },
    {
      "midi": 55,
      "hit": false,
      "t": 225817.33500000005,
      "d": 277.2716875000042,
      "v": 75
    },
    {
      "midi": 59,
      "hit": false,
      "t": 225817.33500000005,
      "d": 295.453437499993,
      "v": 79
    },
    {
      "midi": 62,
      "hit": false,
      "t": 225817.33500000005,
      "d": 295.453437499993,
      "v": 75
    },
    {
      "midi": 55,
      "hit": false,
      "t": 226180.97000000003,
      "d": 310.60489583332674,
      "v": 75
    },
    {
      "midi": 67,
      "hit": false,
      "t": 226180.97000000003,
      "d": 313.63518749998184,
      "v": 86
    },
    {
      "midi": 62,
      "hit": false,
      "t": 226180.97000000003,
      "d": 319.69577083332115,
      "v": 81
    },
    {
      "midi": 59,
      "hit": false,
      "t": 226180.97000000003,
      "d": 336.362374999997,
      "v": 79
    },
    {
      "midi": 55,
      "hit": false,
      "t": 226544.60500000004,
      "d": 259.08993750001537,
      "v": 86
    },
    {
      "midi": 62,
      "hit": false,
      "t": 226544.60500000004,
      "d": 268.1808125000098,
      "v": 95
    },
    {
      "midi": 67,
      "hit": false,
      "t": 226544.60500000004,
      "d": 275.7565416666621,
      "v": 86
    },
    {
      "midi": 59,
      "hit": false,
      "t": 226544.60500000004,
      "d": 283.3322708333144,
      "v": 85
    },
    {
      "midi": 50,
      "hit": false,
      "t": 226908.24000000002,
      "d": 1387.873583333363,
      "v": 93
    },
    {
      "midi": 38,
      "hit": false,
      "t": 226908.24000000002,
      "d": 1442.4188333333586,
      "v": 78
    },
    {
      "midi": 54,
      "hit": false,
      "t": 226908.24000000002,
      "d": 1456.0551458333794,
      "v": 108
    },
    {
      "midi": 62,
      "hit": false,
      "t": 226908.24000000002,
      "d": 1486.3580625000468,
      "v": 90
    },
    {
      "midi": 57,
      "hit": false,
      "t": 226908.24000000002,
      "d": 1518.1761250000272,
      "v": 99
    },
    {
      "midi": 66,
      "hit": false,
      "t": 226908.24000000002,
      "d": 1525.7518541666795,
      "v": 92
    },
    {
      "midi": 50,
      "hit": false,
      "t": 228362.78000000006,
      "d": 565.1493958333158,
      "v": 107
    },
    {
      "midi": 54,
      "hit": false,
      "t": 228544.59750000003,
      "d": 478.7860833333398,
      "v": 108
    },
    {
      "midi": 57,
      "hit": false,
      "t": 228726.41500000004,
      "d": 289.3928541666828,
      "v": 82
    },
    {
      "midi": 62,
      "hit": false,
      "t": 228908.23250000004,
      "d": 143.9388541666558,
      "v": 85
    },
    {
      "midi": 69,
      "hit": false,
      "t": 229090.05000000002,
      "d": 1299.9951250000158,
      "v": 89
    },
    {
      "midi": 61,
      "hit": false,
      "t": 229090.05000000002,
      "d": 1312.1162916666945,
      "v": 88
    },
    {
      "midi": 64,
      "hit": false,
      "t": 229090.05000000002,
      "d": 1319.6920208333468,
      "v": 93
    },
    {
      "midi": 57,
      "hit": false,
      "t": 230180.95500000005,
      "d": 201.51439583333558,
      "v": 101
    },
    {
      "midi": 61,
      "hit": false,
      "t": 230544.59000000003,
      "d": 380.30160416668514,
      "v": 84
    },
    {
      "midi": 64,
      "hit": false,
      "t": 230908.22500000003,
      "d": 254.54449999998906,
      "v": 90
    },
    {
      "midi": 55,
      "hit": false,
      "t": 231271.86000000002,
      "d": 999.9962500000256,
      "v": 80
    },
    {
      "midi": 67,
      "hit": false,
      "t": 231271.86000000002,
      "d": 1083.3292708333465,
      "v": 87
    },
    {
      "midi": 62,
      "hit": false,
      "t": 231271.86000000002,
      "d": 1107.5716041666747,
      "v": 89
    },
    {
      "midi": 59,
      "hit": false,
      "t": 231271.86000000002,
      "d": 1116.662479166669,
      "v": 89
    },
    {
      "midi": 55,
      "hit": false,
      "t": 232362.765,
      "d": 421.2105416666891,
      "v": 105
    },
    {
      "midi": 59,
      "hit": false,
      "t": 232726.40000000002,
      "d": 387.87733333333745,
      "v": 80
    },
    {
      "midi": 62,
      "hit": false,
      "t": 233090.03500000003,
      "d": 216.6658541666693,
      "v": 90
    },
    {
      "midi": 62,
      "hit": false,
      "t": 233453.67000000004,
      "d": 304.5443124999874,
      "v": 70
    },
    {
      "midi": 55,
      "hit": false,
      "t": 233453.67000000004,
      "d": 310.60489583332674,
      "v": 59
    },
    {
      "midi": 67,
      "hit": false,
      "t": 233453.67000000004,
      "d": 310.60489583332674,
      "v": 70
    },
    {
      "midi": 59,
      "hit": false,
      "t": 233453.67000000004,
      "d": 319.69577083332115,
      "v": 70
    },
    {
      "midi": 55,
      "hit": false,
      "t": 233817.30500000002,
      "d": 265.1505208333256,
      "v": 55
    },
    {
      "midi": 67,
      "hit": false,
      "t": 233817.30500000002,
      "d": 275.7565416666621,
      "v": 64
    },
    {
      "midi": 62,
      "hit": false,
      "t": 233817.30500000002,
      "d": 284.8474166666565,
      "v": 68
    },
    {
      "midi": 59,
      "hit": false,
      "t": 233817.30500000002,
      "d": 292.4231458333088,
      "v": 63
    },
    {
      "midi": 55,
      "hit": false,
      "t": 234180.94,
      "d": 281.8171250000014,
      "v": 71
    },
    {
      "midi": 67,
      "hit": false,
      "t": 234180.94,
      "d": 283.3322708333435,
      "v": 83
    },
    {
      "midi": 62,
      "hit": false,
      "t": 234180.94,
      "d": 299.9988750000193,
      "v": 70
    },
    {
      "midi": 59,
      "hit": false,
      "t": 234180.94,
      "d": 304.54431250001653,
      "v": 72
    },
    {
      "midi": 67,
      "hit": false,
      "t": 234544.575,
      "d": 268.1808125000098,
      "v": 85
    },
    {
      "midi": 55,
      "hit": false,
      "t": 234544.575,
      "d": 277.2716875000042,
      "v": 75
    },
    {
      "midi": 59,
      "hit": false,
      "t": 234544.575,
      "d": 295.453437499993,
      "v": 79
    },
    {
      "midi": 62,
      "hit": false,
      "t": 234544.575,
      "d": 295.453437499993,
      "v": 75
    },
    {
      "midi": 55,
      "hit": false,
      "t": 234908.21,
      "d": 310.60489583332674,
      "v": 75
    },
    {
      "midi": 67,
      "hit": false,
      "t": 234908.21,
      "d": 313.63518749998184,
      "v": 86
    },
    {
      "midi": 62,
      "hit": false,
      "t": 234908.21,
      "d": 319.69577083332115,
      "v": 81
    },
    {
      "midi": 59,
      "hit": false,
      "t": 234908.21,
      "d": 336.362374999997,
      "v": 79
    },
    {
      "midi": 55,
      "hit": false,
      "t": 235271.845,
      "d": 259.08993749998626,
      "v": 86
    },
    {
      "midi": 62,
      "hit": false,
      "t": 235271.845,
      "d": 268.1808124999807,
      "v": 95
    },
    {
      "midi": 67,
      "hit": false,
      "t": 235271.845,
      "d": 275.756541666633,
      "v": 86
    },
    {
      "midi": 59,
      "hit": false,
      "t": 235271.845,
      "d": 283.3322708332853,
      "v": 85
    }
  ]
}