{
  "jsonPath": "World/Panpipe/Panpipes/words.json",
  "path": "World\\Panpipe\\Panpipes\\Words.mid",
  "name": "Words",
  "difficulty": "Advanced",
  "bpm": 82.00003553334874,
  "notes": [
    {
      "midi": 67,
      "hit": false,
      "t": 3944.67390625,
      "d": 2940.5750937499997,
      "v": 103
    },
    {
      "midi": 79,
      "hit": false,
      "t": 3944.67390625,
      "d": 2940.5750937499997,
      "v": 103
    },
    {
      "midi": 67,
      "hit": false,
      "t": 6895.49490625,
      "d": 225.40993749999961,
      "v": 92
    },
    {
      "midi": 79,
      "hit": false,
      "t": 6895.49490625,
      "d": 225.40993749999961,
      "v": 92
    },
    {
      "midi": 67,
      "hit": false,
      "t": 7131.15075,
      "d": 235.6558437499998,
      "v": 82
    },
    {
      "midi": 79,
      "hit": false,
      "t": 7131.15075,
      "d": 235.6558437499998,
      "v": 82
    },
    {
      "midi": 67,
      "hit": false,
      "t": 7377.0525,
      "d": 481.5575937499998,
      "v": 77
    },
    {
      "midi": 79,
      "hit": false,
      "t": 7387.29840625,
      "d": 481.5575937499998,
      "v": 77
    },
    {
      "midi": 67,
      "hit": false,
      "t": 7879.10190625,
      "d": 2407.787968750001,
      "v": 109
    },
    {
      "midi": 79,
      "hit": false,
      "t": 7879.10190625,
      "d": 2407.787968750001,
      "v": 109
    },
    {
      "midi": 67,
      "hit": false,
      "t": 10338.11940625,
      "d": 440.57396875000086,
      "v": 83
    },
    {
      "midi": 79,
      "hit": false,
      "t": 10338.11940625,
      "d": 440.57396875000086,
      "v": 83
    },
    {
      "midi": 67,
      "hit": false,
      "t": 10829.92290625,
      "d": 973.3610937499998,
      "v": 95
    },
    {
      "midi": 79,
      "hit": false,
      "t": 10829.92290625,
      "d": 973.3610937499998,
      "v": 95
    },
    {
      "midi": 55,
      "hit": false,
      "t": 11813.52990625,
      "d": 1956.9680937499998,
      "v": 92
    },
    {
      "midi": 59,
      "hit": false,
      "t": 12305.33340625,
      "d": 973.3610937499998,
      "v": 81
    },
    {
      "midi": 62,
      "hit": false,
      "t": 12797.13690625,
      "d": 1946.7221874999996,
      "v": 83
    },
    {
      "midi": 59,
      "hit": false,
      "t": 13288.94040625,
      "d": 1465.1645937499998,
      "v": 79
    },
    {
      "midi": 55,
      "hit": false,
      "t": 13780.74390625,
      "d": 471.3116874999996,
      "v": 78
    },
    {
      "midi": 55,
      "hit": false,
      "t": 14262.3015,
      "d": 727.4593437500007,
      "v": 63
    },
    {
      "midi": 60,
      "hit": false,
      "t": 14754.105,
      "d": 481.5575937500016,
      "v": 102
    },
    {
      "midi": 62,
      "hit": false,
      "t": 14754.105,
      "d": 481.5575937500016,
      "v": 102
    },
    {
      "midi": 55,
      "hit": false,
      "t": 15000.00675,
      "d": 727.4593437500007,
      "v": 70
    },
    {
      "midi": 60,
      "hit": false,
      "t": 15245.908500000001,
      "d": 481.5575937499998,
      "v": 91
    },
    {
      "midi": 62,
      "hit": false,
      "t": 15245.908500000001,
      "d": 1465.1645937499998,
      "v": 92
    },
    {
      "midi": 55,
      "hit": false,
      "t": 15758.203812500002,
      "d": 1946.7221874999977,
      "v": 96
    },
    {
      "midi": 59,
      "hit": false,
      "t": 16229.515500000001,
      "d": 973.361093749998,
      "v": 80
    },
    {
      "midi": 62,
      "hit": false,
      "t": 16741.8108125,
      "d": 1905.7385624999952,
      "v": 83
    },
    {
      "midi": 59,
      "hit": false,
      "t": 17223.36840625,
      "d": 973.361093749998,
      "v": 74
    },
    {
      "midi": 55,
      "hit": false,
      "t": 17715.171906249998,
      "d": 973.361093749998,
      "v": 76
    },
    {
      "midi": 59,
      "hit": false,
      "t": 18206.975406249996,
      "d": 461.0657812499994,
      "v": 73
    },
    {
      "midi": 60,
      "hit": false,
      "t": 18688.532999999996,
      "d": 471.3116874999978,
      "v": 91
    },
    {
      "midi": 62,
      "hit": false,
      "t": 18688.532999999996,
      "d": 471.3116874999978,
      "v": 93
    },
    {
      "midi": 55,
      "hit": false,
      "t": 18924.188843749995,
      "d": 727.4593437499971,
      "v": 72
    },
    {
      "midi": 60,
      "hit": false,
      "t": 19170.090593749992,
      "d": 471.3116875000014,
      "v": 95
    },
    {
      "midi": 62,
      "hit": false,
      "t": 19170.090593749992,
      "d": 471.3116875000014,
      "v": 99
    },
    {
      "midi": 55,
      "hit": false,
      "t": 19672.139999999992,
      "d": 983.607,
      "v": 83
    },
    {
      "midi": 59,
      "hit": false,
      "t": 19672.139999999992,
      "d": 983.607,
      "v": 83
    },
    {
      "midi": 62,
      "hit": false,
      "t": 19672.139999999992,
      "d": 983.607,
      "v": 84
    },
    {
      "midi": 55,
      "hit": false,
      "t": 20665.99290624999,
      "d": 973.3610937500016,
      "v": 70
    },
    {
      "midi": 59,
      "hit": false,
      "t": 20665.99290624999,
      "d": 973.3610937500016,
      "v": 74
    },
    {
      "midi": 62,
      "hit": false,
      "t": 20665.99290624999,
      "d": 973.3610937500016,
      "v": 77
    },
    {
      "midi": 55,
      "hit": false,
      "t": 21649.59990624999,
      "d": 973.3610937500016,
      "v": 73
    },
    {
      "midi": 59,
      "hit": false,
      "t": 21649.59990624999,
      "d": 973.3610937500016,
      "v": 73
    },
    {
      "midi": 62,
      "hit": false,
      "t": 21649.59990624999,
      "d": 973.3610937500016,
      "v": 74
    },
    {
      "midi": 55,
      "hit": false,
      "t": 22633.20690624999,
      "d": 973.3610937500016,
      "v": 75
    },
    {
      "midi": 59,
      "hit": false,
      "t": 22633.20690624999,
      "d": 973.3610937500016,
      "v": 73
    },
    {
      "midi": 62,
      "hit": false,
      "t": 22633.20690624999,
      "d": 973.3610937500016,
      "v": 75
    },
    {
      "midi": 55,
      "hit": false,
      "t": 23616.81390624999,
      "d": 1465.1645937499998,
      "v": 85
    },
    {
      "midi": 59,
      "hit": false,
      "t": 23616.81390624999,
      "d": 1465.1645937499998,
      "v": 83
    },
    {
      "midi": 62,
      "hit": false,
      "t": 23616.81390624999,
      "d": 1465.1645937499998,
      "v": 86
    },
    {
      "midi": 55,
      "hit": false,
      "t": 25092.22440624999,
      "d": 481.5575937499998,
      "v": 61
    },
    {
      "midi": 59,
      "hit": false,
      "t": 25092.22440624999,
      "d": 481.5575937499998,
      "v": 70
    },
    {
      "midi": 62,
      "hit": false,
      "t": 25092.22440624999,
      "d": 481.5575937499998,
      "v": 69
    },
    {
      "midi": 55,
      "hit": false,
      "t": 25584.027906249987,
      "d": 973.3610937500016,
      "v": 78
    },
    {
      "midi": 59,
      "hit": false,
      "t": 25584.027906249987,
      "d": 973.3610937500016,
      "v": 80
    },
    {
      "midi": 62,
      "hit": false,
      "t": 25584.027906249987,
      "d": 973.3610937500016,
      "v": 79
    },
    {
      "midi": 55,
      "hit": false,
      "t": 26567.634906249987,
      "d": 952.8692812500012,
      "v": 86
    },
    {
      "midi": 59,
      "hit": false,
      "t": 26567.634906249987,
      "d": 952.8692812500012,
      "v": 86
    },
    {
      "midi": 62,
      "hit": false,
      "t": 26567.634906249987,
      "d": 952.8692812500012,
      "v": 84
    },
    {
      "midi": 61,
      "hit": false,
      "t": 27530.750093749986,
      "d": 1485.6564062500001,
      "v": 79
    },
    {
      "midi": 57,
      "hit": false,
      "t": 27551.241906249987,
      "d": 1465.1645937499998,
      "v": 76
    },
    {
      "midi": 64,
      "hit": false,
      "t": 27551.241906249987,
      "d": 1465.1645937499998,
      "v": 81
    },
    {
      "midi": 57,
      "hit": false,
      "t": 29026.652406249985,
      "d": 481.5575937499998,
      "v": 76
    },
    {
      "midi": 61,
      "hit": false,
      "t": 29026.652406249985,
      "d": 481.5575937499998,
      "v": 74
    },
    {
      "midi": 64,
      "hit": false,
      "t": 29026.652406249985,
      "d": 481.5575937499998,
      "v": 79
    },
    {
      "midi": 61,
      "hit": false,
      "t": 29518.455906249983,
      "d": 1444.6727812499994,
      "v": 86
    },
    {
      "midi": 57,
      "hit": false,
      "t": 29518.455906249983,
      "d": 1465.1645937499961,
      "v": 85
    },
    {
      "midi": 64,
      "hit": false,
      "t": 29518.455906249983,
      "d": 1465.1645937499961,
      "v": 89
    },
    {
      "midi": 61,
      "hit": false,
      "t": 30973.37459374998,
      "d": 450.8198749999974,
      "v": 64
    },
    {
      "midi": 57,
      "hit": false,
      "t": 30993.866406249977,
      "d": 430.32806250000067,
      "v": 57
    },
    {
      "midi": 64,
      "hit": false,
      "t": 30993.866406249977,
      "d": 430.32806250000067,
      "v": 58
    },
    {
      "midi": 57,
      "hit": false,
      "t": 31475.423999999977,
      "d": 1946.7221875000032,
      "v": 87
    },
    {
      "midi": 61,
      "hit": false,
      "t": 31475.423999999977,
      "d": 1946.7221875000032,
      "v": 87
    },
    {
      "midi": 64,
      "hit": false,
      "t": 31475.423999999977,
      "d": 1946.7221875000032,
      "v": 94
    },
    {
      "midi": 57,
      "hit": false,
      "t": 33432.39209374998,
      "d": 973.361093749998,
      "v": 84
    },
    {
      "midi": 61,
      "hit": false,
      "t": 33432.39209374998,
      "d": 973.361093749998,
      "v": 79
    },
    {
      "midi": 64,
      "hit": false,
      "t": 33432.39209374998,
      "d": 973.361093749998,
      "v": 89
    },
    {
      "midi": 57,
      "hit": false,
      "t": 34415.999093749975,
      "d": 901.6397500000021,
      "v": 78
    },
    {
      "midi": 61,
      "hit": false,
      "t": 34415.999093749975,
      "d": 901.6397500000021,
      "v": 80
    },
    {
      "midi": 64,
      "hit": false,
      "t": 34415.999093749975,
      "d": 901.6397500000021,
      "v": 86
    },
    {
      "midi": 50,
      "hit": false,
      "t": 35409.85199999998,
      "d": 1475.4104999999981,
      "v": 98
    },
    {
      "midi": 54,
      "hit": false,
      "t": 35409.85199999998,
      "d": 1475.4104999999981,
      "v": 103
    },
    {
      "midi": 57,
      "hit": false,
      "t": 35409.85199999998,
      "d": 1475.4104999999981,
      "v": 100
    },
    {
      "midi": 50,
      "hit": false,
      "t": 36895.50840624997,
      "d": 481.55759375000343,
      "v": 95
    },
    {
      "midi": 54,
      "hit": false,
      "t": 36895.50840624997,
      "d": 481.55759375000343,
      "v": 101
    },
    {
      "midi": 57,
      "hit": false,
      "t": 36895.50840624997,
      "d": 481.55759375000343,
      "v": 102
    },
    {
      "midi": 50,
      "hit": false,
      "t": 37387.311906249975,
      "d": 952.8692812500012,
      "v": 94
    },
    {
      "midi": 54,
      "hit": false,
      "t": 37387.311906249975,
      "d": 952.8692812500012,
      "v": 93
    },
    {
      "midi": 57,
      "hit": false,
      "t": 37387.311906249975,
      "d": 952.8692812500012,
      "v": 94
    },
    {
      "midi": 50,
      "hit": false,
      "t": 38350.427093749975,
      "d": 973.361093749998,
      "v": 80
    },
    {
      "midi": 54,
      "hit": false,
      "t": 38350.427093749975,
      "d": 973.361093749998,
      "v": 90
    },
    {
      "midi": 57,
      "hit": false,
      "t": 38350.427093749975,
      "d": 973.361093749998,
      "v": 91
    },
    {
      "midi": 50,
      "hit": false,
      "t": 39334.03409374997,
      "d": 1485.6564062499965,
      "v": 89
    },
    {
      "midi": 54,
      "hit": false,
      "t": 39334.03409374997,
      "d": 1485.6564062499965,
      "v": 93
    },
    {
      "midi": 57,
      "hit": false,
      "t": 39334.03409374997,
      "d": 1485.6564062499965,
      "v": 93
    },
    {
      "midi": 50,
      "hit": false,
      "t": 40829.936406249966,
      "d": 481.55759375000343,
      "v": 78
    },
    {
      "midi": 54,
      "hit": false,
      "t": 40829.936406249966,
      "d": 481.55759375000343,
      "v": 83
    },
    {
      "midi": 57,
      "hit": false,
      "t": 40829.936406249966,
      "d": 481.55759375000343,
      "v": 88
    },
    {
      "midi": 50,
      "hit": false,
      "t": 41321.73990624997,
      "d": 963.1151874999996,
      "v": 88
    },
    {
      "midi": 54,
      "hit": false,
      "t": 41321.73990624997,
      "d": 963.1151874999996,
      "v": 95
    },
    {
      "midi": 57,
      "hit": false,
      "t": 41321.73990624997,
      "d": 963.1151874999996,
      "v": 99
    },
    {
      "midi": 50,
      "hit": false,
      "t": 42295.100999999966,
      "d": 840.1643124999973,
      "v": 95
    },
    {
      "midi": 54,
      "hit": false,
      "t": 42295.100999999966,
      "d": 840.1643124999973,
      "v": 99
    },
    {
      "midi": 57,
      "hit": false,
      "t": 42295.100999999966,
      "d": 840.1643124999973,
      "v": 100
    },
    {
      "midi": 55,
      "hit": false,
      "t": 43278.70799999996,
      "d": 1454.9186875000014,
      "v": 102
    },
    {
      "midi": 60,
      "hit": false,
      "t": 43278.70799999996,
      "d": 1823.771312500001,
      "v": 103
    },
    {
      "midi": 64,
      "hit": false,
      "t": 43278.70799999996,
      "d": 1823.771312500001,
      "v": 100
    },
    {
      "midi": 55,
      "hit": false,
      "t": 44743.87259374996,
      "d": 358.60671875000116,
      "v": 73
    },
    {
      "midi": 59,
      "hit": false,
      "t": 44743.87259374996,
      "d": 358.60671875000116,
      "v": 76
    },
    {
      "midi": 62,
      "hit": false,
      "t": 44743.87259374996,
      "d": 358.60671875000116,
      "v": 73
    },
    {
      "midi": 59,
      "hit": false,
      "t": 45235.676093749964,
      "d": 1956.9680937500016,
      "v": 106
    },
    {
      "midi": 62,
      "hit": false,
      "t": 45235.676093749964,
      "d": 1956.9680937500016,
      "v": 100
    },
    {
      "midi": 55,
      "hit": false,
      "t": 45235.676093749964,
      "d": 2202.869843749999,
      "v": 100
    },
    {
      "midi": 59,
      "hit": false,
      "t": 47202.890093749964,
      "d": 481.55759374999616,
      "v": 110
    },
    {
      "midi": 62,
      "hit": false,
      "t": 47202.890093749964,
      "d": 481.55759374999616,
      "v": 116
    },
    {
      "midi": 55,
      "hit": false,
      "t": 47448.79184374996,
      "d": 737.7052499999991,
      "v": 73
    },
    {
      "midi": 59,
      "hit": false,
      "t": 47694.69359374996,
      "d": 491.8035000000018,
      "v": 74
    },
    {
      "midi": 62,
      "hit": false,
      "t": 47694.69359374996,
      "d": 491.8035000000018,
      "v": 73
    },
    {
      "midi": 55,
      "hit": false,
      "t": 48196.74299999996,
      "d": 491.8035000000018,
      "v": 98
    },
    {
      "midi": 59,
      "hit": false,
      "t": 48196.74299999996,
      "d": 491.8035000000018,
      "v": 98
    },
    {
      "midi": 62,
      "hit": false,
      "t": 48196.74299999996,
      "d": 491.8035000000018,
      "v": 98
    },
    {
      "midi": 55,
      "hit": false,
      "t": 48698.79240624996,
      "d": 471.3116874999978,
      "v": 85
    },
    {
      "midi": 59,
      "hit": false,
      "t": 48698.79240624996,
      "d": 471.3116874999978,
      "v": 87
    },
    {
      "midi": 62,
      "hit": false,
      "t": 48698.79240624996,
      "d": 471.3116874999978,
      "v": 87
    },
    {
      "midi": 55,
      "hit": false,
      "t": 49180.349999999955,
      "d": 491.8035000000018,
      "v": 106
    },
    {
      "midi": 59,
      "hit": false,
      "t": 49180.349999999955,
      "d": 491.8035000000018,
      "v": 110
    },
    {
      "midi": 62,
      "hit": false,
      "t": 49180.349999999955,
      "d": 491.8035000000018,
      "v": 108
    },
    {
      "midi": 43,
      "hit": false,
      "t": 49180.349999999955,
      "d": 973.361093749998,
      "v": 110
    },
    {
      "midi": 31,
      "hit": false,
      "t": 49180.349999999955,
      "d": 983.6069999999963,
      "v": 98
    },
    {
      "midi": 55,
      "hit": false,
      "t": 49682.399406249955,
      "d": 481.55759374999616,
      "v": 98
    },
    {
      "midi": 59,
      "hit": false,
      "t": 49682.399406249955,
      "d": 481.55759374999616,
      "v": 100
    },
    {
      "midi": 62,
      "hit": false,
      "t": 49682.399406249955,
      "d": 481.55759374999616,
      "v": 96
    },
    {
      "midi": 43,
      "hit": false,
      "t": 50163.95699999995,
      "d": 932.3774687499972,
      "v": 125
    },
    {
      "midi": 55,
      "hit": false,
      "t": 50174.20290624995,
      "d": 481.55759375000343,
      "v": 122
    },
    {
      "midi": 59,
      "hit": false,
      "t": 50174.20290624995,
      "d": 481.55759375000343,
      "v": 125
    },
    {
      "midi": 62,
      "hit": false,
      "t": 50174.20290624995,
      "d": 481.55759375000343,
      "v": 120
    },
    {
      "midi": 31,
      "hit": false,
      "t": 50174.20290624995,
      "d": 922.1315624999988,
      "v": 116
    },
    {
      "midi": 55,
      "hit": false,
      "t": 50666.00640624995,
      "d": 430.32806249999703,
      "v": 112
    },
    {
      "midi": 59,
      "hit": false,
      "t": 50666.00640624995,
      "d": 430.32806249999703,
      "v": 118
    },
    {
      "midi": 62,
      "hit": false,
      "t": 50666.00640624995,
      "d": 430.32806249999703,
      "v": 116
    },
    {
      "midi": 58,
      "hit": false,
      "t": 51147.56399999995,
      "d": 983.6070000000036,
      "v": 109
    },
    {
      "midi": 62,
      "hit": false,
      "t": 51147.56399999995,
      "d": 983.6070000000036,
      "v": 112
    },
    {
      "midi": 65,
      "hit": false,
      "t": 51147.56399999995,
      "d": 983.6070000000036,
      "v": 120
    },
    {
      "midi": 34,
      "hit": false,
      "t": 51147.56399999995,
      "d": 3893.444374999999,
      "v": 75
    },
    {
      "midi": 46,
      "hit": false,
      "t": 51147.56399999995,
      "d": 3893.444374999999,
      "v": 86
    },
    {
      "midi": 62,
      "hit": false,
      "t": 52141.41690624995,
      "d": 973.361093749998,
      "v": 102
    },
    {
      "midi": 65,
      "hit": false,
      "t": 52141.41690624995,
      "d": 973.361093749998,
      "v": 105
    },
    {
      "midi": 58,
      "hit": false,
      "t": 52141.41690624995,
      "d": 1465.1645937499998,
      "v": 99
    },
    {
      "midi": 62,
      "hit": false,
      "t": 53125.023906249946,
      "d": 973.3610937500052,
      "v": 102
    },
    {
      "midi": 65,
      "hit": false,
      "t": 53125.023906249946,
      "d": 973.3610937500052,
      "v": 116
    },
    {
      "midi": 58,
      "hit": false,
      "t": 53616.82740624995,
      "d": 963.1151874999996,
      "v": 78
    },
    {
      "midi": 62,
      "hit": false,
      "t": 54108.63090624995,
      "d": 932.3774687499972,
      "v": 106
    },
    {
      "midi": 65,
      "hit": false,
      "t": 54108.63090624995,
      "d": 932.3774687499972,
      "v": 110
    },
    {
      "midi": 58,
      "hit": false,
      "t": 54590.188499999946,
      "d": 450.81987500000105,
      "v": 81
    },
    {
      "midi": 34,
      "hit": false,
      "t": 55071.74609374995,
      "d": 3944.6739062499983,
      "v": 76
    },
    {
      "midi": 46,
      "hit": false,
      "t": 55071.74609374995,
      "d": 3944.6739062499983,
      "v": 92
    },
    {
      "midi": 58,
      "hit": false,
      "t": 55092.237906249946,
      "d": 963.1151874999996,
      "v": 105
    },
    {
      "midi": 62,
      "hit": false,
      "t": 55092.237906249946,
      "d": 963.1151874999996,
      "v": 103
    },
    {
      "midi": 65,
      "hit": false,
      "t": 55092.237906249946,
      "d": 963.1151874999996,
      "v": 110
    },
    {
      "midi": 62,
      "hit": false,
      "t": 56065.598999999944,
      "d": 983.6070000000036,
      "v": 103
    },
    {
      "midi": 65,
      "hit": false,
      "t": 56065.598999999944,
      "d": 983.6070000000036,
      "v": 105
    },
    {
      "midi": 58,
      "hit": false,
      "t": 56065.598999999944,
      "d": 1475.4105000000054,
      "v": 93
    },
    {
      "midi": 62,
      "hit": false,
      "t": 57059.451906249946,
      "d": 973.3610937500052,
      "v": 99
    },
    {
      "midi": 65,
      "hit": false,
      "t": 57059.451906249946,
      "d": 973.3610937500052,
      "v": 103
    },
    {
      "midi": 58,
      "hit": false,
      "t": 57551.25540624995,
      "d": 481.55759375000343,
      "v": 75
    },
    {
      "midi": 58,
      "hit": false,
      "t": 58043.05890624995,
      "d": 973.361093749998,
      "v": 107
    },
    {
      "midi": 62,
      "hit": false,
      "t": 58043.05890624995,
      "d": 973.361093749998,
      "v": 106
    },
    {
      "midi": 65,
      "hit": false,
      "t": 58043.05890624995,
      "d": 973.361093749998,
      "v": 110
    },
    {
      "midi": 53,
      "hit": false,
      "t": 59026.665906249946,
      "d": 973.361093749998,
      "v": 110
    },
    {
      "midi": 57,
      "hit": false,
      "t": 59026.665906249946,
      "d": 973.361093749998,
      "v": 111
    },
    {
      "midi": 60,
      "hit": false,
      "t": 59026.665906249946,
      "d": 973.361093749998,
      "v": 114
    },
    {
      "midi": 29,
      "hit": false,
      "t": 59026.665906249946,
      "d": 3903.69028124999,
      "v": 103
    },
    {
      "midi": 41,
      "hit": false,
      "t": 59026.665906249946,
      "d": 3903.69028124999,
      "v": 110
    },
    {
      "midi": 53,
      "hit": false,
      "t": 60010.27290624994,
      "d": 973.361093749998,
      "v": 79
    },
    {
      "midi": 57,
      "hit": false,
      "t": 60010.27290624994,
      "d": 973.361093749998,
      "v": 85
    },
    {
      "midi": 60,
      "hit": false,
      "t": 60010.27290624994,
      "d": 973.361093749998,
      "v": 91
    },
    {
      "midi": 53,
      "hit": false,
      "t": 60993.87990624994,
      "d": 481.55759375000343,
      "v": 81
    },
    {
      "midi": 57,
      "hit": false,
      "t": 60993.87990624994,
      "d": 973.3610937500052,
      "v": 96
    },
    {
      "midi": 60,
      "hit": false,
      "t": 60993.87990624994,
      "d": 973.3610937500052,
      "v": 98
    },
    {
      "midi": 53,
      "hit": false,
      "t": 61485.68340624994,
      "d": 481.55759375000343,
      "v": 70
    },
    {
      "midi": 60,
      "hit": false,
      "t": 61977.48690624994,
      "d": 471.3116874999978,
      "v": 100
    },
    {
      "midi": 53,
      "hit": false,
      "t": 61977.48690624994,
      "d": 481.55759374999616,
      "v": 98
    },
    {
      "midi": 57,
      "hit": false,
      "t": 61977.48690624994,
      "d": 481.55759374999616,
      "v": 106
    },
    {
      "midi": 60,
      "hit": false,
      "t": 62459.04449999994,
      "d": 225.40993750000052,
      "v": 98
    },
    {
      "midi": 53,
      "hit": false,
      "t": 62469.29040624994,
      "d": 215.16403125000215,
      "v": 98
    },
    {
      "midi": 57,
      "hit": false,
      "t": 62469.29040624994,
      "d": 215.16403125000215,
      "v": 100
    },
    {
      "midi": 53,
      "hit": false,
      "t": 62694.70034374994,
      "d": 235.6558437499989,
      "v": 81
    },
    {
      "midi": 57,
      "hit": false,
      "t": 62694.70034374994,
      "d": 235.6558437499989,
      "v": 93
    },
    {
      "midi": 60,
      "hit": false,
      "t": 62694.70034374994,
      "d": 235.6558437499989,
      "v": 87
    },
    {
      "midi": 53,
      "hit": false,
      "t": 62940.602093749934,
      "d": 993.852906250002,
      "v": 110
    },
    {
      "midi": 57,
      "hit": false,
      "t": 62940.602093749934,
      "d": 993.852906250002,
      "v": 125
    },
    {
      "midi": 60,
      "hit": false,
      "t": 62940.602093749934,
      "d": 993.852906250002,
      "v": 120
    },
    {
      "midi": 29,
      "hit": false,
      "t": 62940.602093749934,
      "d": 3924.1820937499942,
      "v": 103
    },
    {
      "midi": 41,
      "hit": false,
      "t": 62940.602093749934,
      "d": 3924.1820937499942,
      "v": 112
    },
    {
      "midi": 53,
      "hit": false,
      "t": 63944.700906249935,
      "d": 973.361093749998,
      "v": 98
    },
    {
      "midi": 57,
      "hit": false,
      "t": 63944.700906249935,
      "d": 973.361093749998,
      "v": 102
    },
    {
      "midi": 60,
      "hit": false,
      "t": 63944.700906249935,
      "d": 973.361093749998,
      "v": 103
    },
    {
      "midi": 53,
      "hit": false,
      "t": 64928.30790624993,
      "d": 973.3610937500052,
      "v": 87
    },
    {
      "midi": 57,
      "hit": false,
      "t": 64928.30790624993,
      "d": 973.3610937500052,
      "v": 96
    },
    {
      "midi": 60,
      "hit": false,
      "t": 64928.30790624993,
      "d": 973.3610937500052,
      "v": 100
    },
    {
      "midi": 53,
      "hit": false,
      "t": 65911.91490624993,
      "d": 952.869281249994,
      "v": 78
    },
    {
      "midi": 57,
      "hit": false,
      "t": 65911.91490624993,
      "d": 952.869281249994,
      "v": 88
    },
    {
      "midi": 60,
      "hit": false,
      "t": 65911.91490624993,
      "d": 952.869281249994,
      "v": 86
    },
    {
      "midi": 59,
      "hit": false,
      "t": 66895.52190624992,
      "d": 973.3610937500052,
      "v": 96
    },
    {
      "midi": 62,
      "hit": false,
      "t": 66895.52190624992,
      "d": 973.3610937500052,
      "v": 96
    },
    {
      "midi": 55,
      "hit": false,
      "t": 66895.52190624992,
      "d": 1465.1645937499998,
      "v": 96
    },
    {
      "midi": 31,
      "hit": false,
      "t": 66895.52190624992,
      "d": 3924.1820937499724,
      "v": 84
    },
    {
      "midi": 43,
      "hit": false,
      "t": 66895.52190624992,
      "d": 3924.1820937499724,
      "v": 91
    },
    {
      "midi": 59,
      "hit": false,
      "t": 67879.12890624993,
      "d": 973.3610937499907,
      "v": 96
    },
    {
      "midi": 62,
      "hit": false,
      "t": 67879.12890624993,
      "d": 973.3610937499907,
      "v": 99
    },
    {
      "midi": 55,
      "hit": false,
      "t": 68370.93240624992,
      "d": 973.3610937499907,
      "v": 74
    },
    {
      "midi": 59,
      "hit": false,
      "t": 68862.73590624992,
      "d": 973.3610937499907,
      "v": 92
    },
    {
      "midi": 62,
      "hit": false,
      "t": 68862.73590624992,
      "d": 973.3610937499907,
      "v": 91
    },
    {
      "midi": 55,
      "hit": false,
      "t": 69354.53940624991,
      "d": 973.3610937499907,
      "v": 69
    },
    {
      "midi": 59,
      "hit": false,
      "t": 69846.3429062499,
      "d": 973.3610937499907,
      "v": 106
    },
    {
      "midi": 62,
      "hit": false,
      "t": 69846.3429062499,
      "d": 973.3610937499907,
      "v": 108
    },
    {
      "midi": 55,
      "hit": false,
      "t": 70338.1464062499,
      "d": 481.55759374999616,
      "v": 88
    },
    {
      "midi": 59,
      "hit": false,
      "t": 70829.9499062499,
      "d": 973.3610937500052,
      "v": 100
    },
    {
      "midi": 62,
      "hit": false,
      "t": 70829.9499062499,
      "d": 973.3610937500052,
      "v": 100
    },
    {
      "midi": 55,
      "hit": false,
      "t": 70829.9499062499,
      "d": 2448.7715937500034,
      "v": 96
    },
    {
      "midi": 31,
      "hit": false,
      "t": 70829.9499062499,
      "d": 3893.444374999992,
      "v": 88
    },
    {
      "midi": 43,
      "hit": false,
      "t": 70829.9499062499,
      "d": 3893.444374999992,
      "v": 88
    },
    {
      "midi": 59,
      "hit": false,
      "t": 71813.5569062499,
      "d": 973.3610937500052,
      "v": 95
    },
    {
      "midi": 62,
      "hit": false,
      "t": 71813.5569062499,
      "d": 973.3610937500052,
      "v": 96
    },
    {
      "midi": 59,
      "hit": false,
      "t": 72797.1639062499,
      "d": 973.3610937499907,
      "v": 95
    },
    {
      "midi": 62,
      "hit": false,
      "t": 72797.1639062499,
      "d": 973.3610937499907,
      "v": 95
    },
    {
      "midi": 55,
      "hit": false,
      "t": 73288.9674062499,
      "d": 973.3610937499907,
      "v": 72
    },
    {
      "midi": 59,
      "hit": false,
      "t": 73780.77090624989,
      "d": 942.6233749999956,
      "v": 102
    },
    {
      "midi": 62,
      "hit": false,
      "t": 73780.77090624989,
      "d": 942.6233749999956,
      "v": 100
    },
    {
      "midi": 55,
      "hit": false,
      "t": 74272.57440624989,
      "d": 450.81987500000105,
      "v": 74
    },
    {
      "midi": 33,
      "hit": false,
      "t": 74754.13199999988,
      "d": 3780.73940625001,
      "v": 79
    },
    {
      "midi": 57,
      "hit": false,
      "t": 74764.37790624988,
      "d": 973.3610937500052,
      "v": 85
    },
    {
      "midi": 61,
      "hit": false,
      "t": 74764.37790624988,
      "d": 973.3610937500052,
      "v": 87
    },
    {
      "midi": 64,
      "hit": false,
      "t": 74764.37790624988,
      "d": 973.3610937500052,
      "v": 93
    },
    {
      "midi": 45,
      "hit": false,
      "t": 74764.37790624988,
      "d": 3770.4935000000114,
      "v": 82
    },
    {
      "midi": 57,
      "hit": false,
      "t": 75747.98490624988,
      "d": 973.3610937500052,
      "v": 88
    },
    {
      "midi": 61,
      "hit": false,
      "t": 75747.98490624988,
      "d": 973.3610937500052,
      "v": 86
    },
    {
      "midi": 64,
      "hit": false,
      "t": 75747.98490624988,
      "d": 973.3610937500052,
      "v": 94
    },
    {
      "midi": 57,
      "hit": false,
      "t": 76731.59190624989,
      "d": 973.3610937500052,
      "v": 84
    },
    {
      "midi": 61,
      "hit": false,
      "t": 76731.59190624989,
      "d": 973.3610937500052,
      "v": 82
    },
    {
      "midi": 64,
      "hit": false,
      "t": 76731.59190624989,
      "d": 973.3610937500052,
      "v": 92
    },
    {
      "midi": 57,
      "hit": false,
      "t": 77715.19890624989,
      "d": 819.6725000000006,
      "v": 95
    },
    {
      "midi": 61,
      "hit": false,
      "t": 77715.19890624989,
      "d": 819.6725000000006,
      "v": 93
    },
    {
      "midi": 64,
      "hit": false,
      "t": 77715.19890624989,
      "d": 819.6725000000006,
      "v": 99
    },
    {
      "midi": 54,
      "hit": false,
      "t": 78698.8059062499,
      "d": 471.3116874999978,
      "v": 101
    },
    {
      "midi": 57,
      "hit": false,
      "t": 78698.8059062499,
      "d": 952.869281249994,
      "v": 102
    },
    {
      "midi": 26,
      "hit": false,
      "t": 78698.8059062499,
      "d": 3903.690281249961,
      "v": 89
    },
    {
      "midi": 38,
      "hit": false,
      "t": 78698.8059062499,
      "d": 3903.690281249961,
      "v": 81
    },
    {
      "midi": 50,
      "hit": false,
      "t": 78698.8059062499,
      "d": 3903.690281249961,
      "v": 100
    },
    {
      "midi": 54,
      "hit": false,
      "t": 79180.36349999989,
      "d": 3422.132687499965,
      "v": 89
    },
    {
      "midi": 57,
      "hit": false,
      "t": 79661.92109374989,
      "d": 2940.575093749969,
      "v": 95
    },
    {
      "midi": 62,
      "hit": false,
      "t": 80153.72459374988,
      "d": 1977.4599062499765,
      "v": 87
    },
    {
      "midi": 66,
      "hit": false,
      "t": 80645.52809374988,
      "d": 973.3610937499907,
      "v": 107
    },
    {
      "midi": 69,
      "hit": false,
      "t": 81137.33159374987,
      "d": 1465.1645937499852,
      "v": 103
    },
    {
      "midi": 66,
      "hit": false,
      "t": 81629.13509374986,
      "d": 973.3610937499907,
      "v": 115
    },
    {
      "midi": 62,
      "hit": false,
      "t": 82141.43040624986,
      "d": 461.0657812499994,
      "v": 98
    },
    {
      "midi": 55,
      "hit": false,
      "t": 82633.23390624985,
      "d": 973.3610937500052,
      "v": 100
    },
    {
      "midi": 59,
      "hit": false,
      "t": 82633.23390624985,
      "d": 973.3610937500052,
      "v": 102
    },
    {
      "midi": 62,
      "hit": false,
      "t": 82633.23390624985,
      "d": 973.3610937500052,
      "v": 100
    },
    {
      "midi": 55,
      "hit": false,
      "t": 83616.84090624985,
      "d": 973.3610937500052,
      "v": 99
    },
    {
      "midi": 59,
      "hit": false,
      "t": 83616.84090624985,
      "d": 973.3610937500052,
      "v": 99
    },
    {
      "midi": 62,
      "hit": false,
      "t": 83616.84090624985,
      "d": 973.3610937500052,
      "v": 96
    },
    {
      "midi": 55,
      "hit": false,
      "t": 84600.44790624986,
      "d": 481.55759374999616,
      "v": 106
    },
    {
      "midi": 59,
      "hit": false,
      "t": 84600.44790624986,
      "d": 973.3610937499907,
      "v": 100
    },
    {
      "midi": 62,
      "hit": false,
      "t": 84600.44790624986,
      "d": 973.3610937499907,
      "v": 98
    },
    {
      "midi": 55,
      "hit": false,
      "t": 85092.25140624985,
      "d": 952.869281249994,
      "v": 80
    },
    {
      "midi": 59,
      "hit": false,
      "t": 85584.05490624985,
      "d": 840.1643124999973,
      "v": 103
    },
    {
      "midi": 62,
      "hit": false,
      "t": 85584.05490624985,
      "d": 840.1643124999973,
      "v": 103
    },
    {
      "midi": 55,
      "hit": false,
      "t": 86055.36659374984,
      "d": 368.85262499999953,
      "v": 88
    },
    {
      "midi": 55,
      "hit": false,
      "t": 86567.66190624985,
      "d": 973.3610937500052,
      "v": 106
    },
    {
      "midi": 59,
      "hit": false,
      "t": 86567.66190624985,
      "d": 973.3610937500052,
      "v": 106
    },
    {
      "midi": 62,
      "hit": false,
      "t": 86567.66190624985,
      "d": 973.3610937500052,
      "v": 102
    },
    {
      "midi": 55,
      "hit": false,
      "t": 87551.26890624985,
      "d": 952.869281249994,
      "v": 95
    },
    {
      "midi": 59,
      "hit": false,
      "t": 87551.26890624985,
      "d": 952.869281249994,
      "v": 100
    },
    {
      "midi": 62,
      "hit": false,
      "t": 87551.26890624985,
      "d": 952.869281249994,
      "v": 99
    },
    {
      "midi": 55,
      "hit": false,
      "t": 88514.38409374985,
      "d": 993.852906250002,
      "v": 99
    },
    {
      "midi": 59,
      "hit": false,
      "t": 88514.38409374985,
      "d": 993.852906250002,
      "v": 100
    },
    {
      "midi": 62,
      "hit": false,
      "t": 88514.38409374985,
      "d": 993.852906250002,
      "v": 103
    },
    {
      "midi": 55,
      "hit": false,
      "t": 89518.48290624985,
      "d": 963.1151875000069,
      "v": 110
    },
    {
      "midi": 59,
      "hit": false,
      "t": 89518.48290624985,
      "d": 963.1151875000069,
      "v": 106
    },
    {
      "midi": 62,
      "hit": false,
      "t": 89518.48290624985,
      "d": 963.1151875000069,
      "v": 105
    },
    {
      "midi": 61,
      "hit": false,
      "t": 90491.84399999985,
      "d": 983.6070000000036,
      "v": 95
    },
    {
      "midi": 64,
      "hit": false,
      "t": 90491.84399999985,
      "d": 983.6070000000036,
      "v": 105
    },
    {
      "midi": 69,
      "hit": false,
      "t": 90491.84399999985,
      "d": 983.6070000000036,
      "v": 100
    },
    {
      "midi": 61,
      "hit": false,
      "t": 91485.69690624985,
      "d": 881.1479375000054,
      "v": 99
    },
    {
      "midi": 64,
      "hit": false,
      "t": 91485.69690624985,
      "d": 881.1479375000054,
      "v": 106
    },
    {
      "midi": 69,
      "hit": false,
      "t": 91485.69690624985,
      "d": 881.1479375000054,
      "v": 94
    },
    {
      "midi": 61,
      "hit": false,
      "t": 92459.05799999986,
      "d": 481.55759374999616,
      "v": 101
    },
    {
      "midi": 64,
      "hit": false,
      "t": 92459.05799999986,
      "d": 491.80349999999453,
      "v": 108
    },
    {
      "midi": 69,
      "hit": false,
      "t": 92459.05799999986,
      "d": 491.80349999999453,
      "v": 105
    },
    {
      "midi": 61,
      "hit": false,
      "t": 92950.86149999985,
      "d": 963.1151874999923,
      "v": 67
    },
    {
      "midi": 64,
      "hit": false,
      "t": 92961.10740624985,
      "d": 461.0657812499994,
      "v": 81
    },
    {
      "midi": 69,
      "hit": false,
      "t": 92961.10740624985,
      "d": 461.0657812499994,
      "v": 72
    },
    {
      "midi": 69,
      "hit": false,
      "t": 93432.41909374985,
      "d": 481.55759374999616,
      "v": 125
    },
    {
      "midi": 64,
      "hit": false,
      "t": 93432.41909374985,
      "d": 491.80349999999453,
      "v": 114
    },
    {
      "midi": 73,
      "hit": false,
      "t": 93432.41909374985,
      "d": 850.4102187499957,
      "v": 118
    },
    {
      "midi": 61,
      "hit": false,
      "t": 93924.22259374984,
      "d": 358.60671875000116,
      "v": 97
    },
    {
      "midi": 69,
      "hit": false,
      "t": 93924.22259374984,
      "d": 358.60671875000116,
      "v": 95
    },
    {
      "midi": 64,
      "hit": false,
      "t": 93934.46849999984,
      "d": 348.3608125000028,
      "v": 88
    },
    {
      "midi": 69,
      "hit": false,
      "t": 94436.51790624985,
      "d": 235.65584375000617,
      "v": 80
    },
    {
      "midi": 73,
      "hit": false,
      "t": 94436.51790624985,
      "d": 235.65584375000617,
      "v": 92
    },
    {
      "midi": 76,
      "hit": false,
      "t": 94436.51790624985,
      "d": 235.65584375000617,
      "v": 99
    },
    {
      "midi": 69,
      "hit": false,
      "t": 94682.41965624985,
      "d": 235.65584375000617,
      "v": 81
    },
    {
      "midi": 73,
      "hit": false,
      "t": 94682.41965624985,
      "d": 235.65584375000617,
      "v": 86
    },
    {
      "midi": 76,
      "hit": false,
      "t": 94682.41965624985,
      "d": 235.65584375000617,
      "v": 91
    },
    {
      "midi": 69,
      "hit": false,
      "t": 94928.32140624986,
      "d": 461.0657812499994,
      "v": 84
    },
    {
      "midi": 73,
      "hit": false,
      "t": 94928.32140624986,
      "d": 461.0657812499994,
      "v": 97
    },
    {
      "midi": 76,
      "hit": false,
      "t": 94928.32140624986,
      "d": 461.0657812499994,
      "v": 88
    },
    {
      "midi": 69,
      "hit": false,
      "t": 95399.63309374986,
      "d": 983.6070000000036,
      "v": 112
    },
    {
      "midi": 73,
      "hit": false,
      "t": 95399.63309374986,
      "d": 983.6070000000036,
      "v": 121
    },
    {
      "midi": 76,
      "hit": false,
      "t": 95399.63309374986,
      "d": 983.6070000000036,
      "v": 118
    },
    {
      "midi": 69,
      "hit": false,
      "t": 96393.48599999986,
      "d": 983.6070000000036,
      "v": 106
    },
    {
      "midi": 73,
      "hit": false,
      "t": 96393.48599999986,
      "d": 983.6070000000036,
      "v": 115
    },
    {
      "midi": 76,
      "hit": false,
      "t": 96393.48599999986,
      "d": 1157.787406250005,
      "v": 114
    },
    {
      "midi": 64,
      "hit": false,
      "t": 97387.33890624986,
      "d": 952.8692812500085,
      "v": 94
    },
    {
      "midi": 69,
      "hit": false,
      "t": 97387.33890624986,
      "d": 952.8692812500085,
      "v": 103
    },
    {
      "midi": 73,
      "hit": false,
      "t": 97387.33890624986,
      "d": 963.1151875000069,
      "v": 95
    },
    {
      "midi": 54,
      "hit": false,
      "t": 98360.69999999987,
      "d": 973.3610937500052,
      "v": 103
    },
    {
      "midi": 57,
      "hit": false,
      "t": 98360.69999999987,
      "d": 973.3610937500052,
      "v": 102
    },
    {
      "midi": 50,
      "hit": false,
      "t": 98360.69999999987,
      "d": 983.6070000000036,
      "v": 96
    },
    {
      "midi": 26,
      "hit": false,
      "t": 98360.69999999987,
      "d": 3913.936187499974,
      "v": 114
    },
    {
      "midi": 38,
      "hit": false,
      "t": 98360.69999999987,
      "d": 3913.936187499974,
      "v": 105
    },
    {
      "midi": 54,
      "hit": false,
      "t": 99344.30699999987,
      "d": 983.6069999999891,
      "v": 105
    },
    {
      "midi": 57,
      "hit": false,
      "t": 99344.30699999987,
      "d": 983.6069999999891,
      "v": 103
    },
    {
      "midi": 50,
      "hit": false,
      "t": 99354.55290624987,
      "d": 481.55759374999616,
      "v": 81
    },
    {
      "midi": 50,
      "hit": false,
      "t": 99846.35640624986,
      "d": 963.1151874999923,
      "v": 88
    },
    {
      "midi": 54,
      "hit": false,
      "t": 100338.15990624986,
      "d": 973.3610937499907,
      "v": 105
    },
    {
      "midi": 57,
      "hit": false,
      "t": 100338.15990624986,
      "d": 973.3610937499907,
      "v": 110
    },
    {
      "midi": 50,
      "hit": false,
      "t": 100819.71749999985,
      "d": 491.80349999999453,
      "v": 78
    },
    {
      "midi": 50,
      "hit": false,
      "t": 101321.76690624985,
      "d": 481.55759374999616,
      "v": 99
    },
    {
      "midi": 54,
      "hit": false,
      "t": 101321.76690624985,
      "d": 963.1151874999923,
      "v": 109
    },
    {
      "midi": 57,
      "hit": false,
      "t": 101321.76690624985,
      "d": 963.1151874999923,
      "v": 106
    },
    {
      "midi": 50,
      "hit": false,
      "t": 101813.57040624984,
      "d": 471.3116874999978,
      "v": 79
    },
    {
      "midi": 26,
      "hit": false,
      "t": 102284.88209374984,
      "d": 3893.4443749999627,
      "v": 103
    },
    {
      "midi": 38,
      "hit": false,
      "t": 102284.88209374984,
      "d": 3893.4443749999627,
      "v": 99
    },
    {
      "midi": 50,
      "hit": false,
      "t": 102295.12799999984,
      "d": 409.836249999993,
      "v": 103
    },
    {
      "midi": 54,
      "hit": false,
      "t": 102295.12799999984,
      "d": 983.6069999999891,
      "v": 115
    },
    {
      "midi": 57,
      "hit": false,
      "t": 102295.12799999984,
      "d": 983.6069999999891,
      "v": 110
    },
    {
      "midi": 50,
      "hit": false,
      "t": 102797.17740624983,
      "d": 973.3610937499907,
      "v": 59
    },
    {
      "midi": 54,
      "hit": false,
      "t": 103288.98090624982,
      "d": 963.1151874999923,
      "v": 115
    },
    {
      "midi": 57,
      "hit": false,
      "t": 103288.98090624982,
      "d": 963.1151874999923,
      "v": 110
    },
    {
      "midi": 50,
      "hit": false,
      "t": 103780.78440624982,
      "d": 481.55759374999616,
      "v": 81
    },
    {
      "midi": 54,
      "hit": false,
      "t": 104262.34199999982,
      "d": 963.1151874999923,
      "v": 109
    },
    {
      "midi": 57,
      "hit": false,
      "t": 104262.34199999982,
      "d": 963.1151874999923,
      "v": 112
    },
    {
      "midi": 50,
      "hit": false,
      "t": 104272.58790624981,
      "d": 461.0657812499994,
      "v": 89
    },
    {
      "midi": 50,
      "hit": false,
      "t": 104743.89959374981,
      "d": 973.3610937499907,
      "v": 93
    },
    {
      "midi": 54,
      "hit": false,
      "t": 105235.7030937498,
      "d": 942.6233749999956,
      "v": 115
    },
    {
      "midi": 57,
      "hit": false,
      "t": 105235.7030937498,
      "d": 942.6233749999956,
      "v": 120
    },
    {
      "midi": 50,
      "hit": false,
      "t": 105727.5065937498,
      "d": 450.81987500000105,
      "v": 80
    },
    {
      "midi": 55,
      "hit": false,
      "t": 106219.3100937498,
      "d": 1475.4104999999981,
      "v": 125
    },
    {
      "midi": 60,
      "hit": false,
      "t": 106219.3100937498,
      "d": 1680.3286249999946,
      "v": 122
    },
    {
      "midi": 64,
      "hit": false,
      "t": 106219.3100937498,
      "d": 1680.3286249999946,
      "v": 118
    },
    {
      "midi": 55,
      "hit": false,
      "t": 107704.96649999979,
      "d": 194.67221874999814,
      "v": 118
    },
    {
      "midi": 59,
      "hit": false,
      "t": 107704.96649999979,
      "d": 194.67221874999814,
      "v": 118
    },
    {
      "midi": 62,
      "hit": false,
      "t": 107704.96649999979,
      "d": 194.67221874999814,
      "v": 108
    },
    {
      "midi": 55,
      "hit": false,
      "t": 108186.52409374979,
      "d": 1967.2140000000072,
      "v": 116
    },
    {
      "midi": 59,
      "hit": false,
      "t": 108186.52409374979,
      "d": 1967.2140000000072,
      "v": 116
    },
    {
      "midi": 62,
      "hit": false,
      "t": 108186.52409374979,
      "d": 1967.2140000000072,
      "v": 108
    },
    {
      "midi": 55,
      "hit": false,
      "t": 110163.9839999998,
      "d": 471.3116874999978,
      "v": 68
    },
    {
      "midi": 59,
      "hit": false,
      "t": 110163.9839999998,
      "d": 471.3116874999978,
      "v": 75
    },
    {
      "midi": 62,
      "hit": false,
      "t": 110163.9839999998,
      "d": 471.3116874999978,
      "v": 74
    },
    {
      "midi": 55,
      "hit": false,
      "t": 110645.54159374979,
      "d": 235.65584375000617,
      "v": 72
    },
    {
      "midi": 59,
      "hit": false,
      "t": 110645.54159374979,
      "d": 235.65584375000617,
      "v": 74
    },
    {
      "midi": 62,
      "hit": false,
      "t": 110645.54159374979,
      "d": 235.65584375000617,
      "v": 78
    },
    {
      "midi": 55,
      "hit": false,
      "t": 110891.4433437498,
      "d": 235.65584375000617,
      "v": 73
    },
    {
      "midi": 59,
      "hit": false,
      "t": 110891.4433437498,
      "d": 235.65584375000617,
      "v": 74
    },
    {
      "midi": 62,
      "hit": false,
      "t": 110891.4433437498,
      "d": 235.65584375000617,
      "v": 81
    },
    {
      "midi": 55,
      "hit": false,
      "t": 111137.3450937498,
      "d": 235.65584375000617,
      "v": 88
    },
    {
      "midi": 59,
      "hit": false,
      "t": 111137.3450937498,
      "d": 235.65584375000617,
      "v": 91
    },
    {
      "midi": 62,
      "hit": false,
      "t": 111137.3450937498,
      "d": 235.65584375000617,
      "v": 91
    },
    {
      "midi": 55,
      "hit": false,
      "t": 111383.2468437498,
      "d": 235.65584375000617,
      "v": 93
    },
    {
      "midi": 59,
      "hit": false,
      "t": 111383.2468437498,
      "d": 235.65584375000617,
      "v": 100
    },
    {
      "midi": 62,
      "hit": false,
      "t": 111383.2468437498,
      "d": 235.65584375000617,
      "v": 93
    },
    {
      "midi": 55,
      "hit": false,
      "t": 111629.14859374981,
      "d": 235.65584375000617,
      "v": 89
    },
    {
      "midi": 62,
      "hit": false,
      "t": 111629.14859374981,
      "d": 235.65584375000617,
      "v": 96
    },
    {
      "midi": 59,
      "hit": false,
      "t": 111629.14859374981,
      "d": 245.90175000000454,
      "v": 100
    },
    {
      "midi": 55,
      "hit": false,
      "t": 111875.05034374981,
      "d": 235.65584374999162,
      "v": 93
    },
    {
      "midi": 62,
      "hit": false,
      "t": 111875.05034374981,
      "d": 235.65584374999162,
      "v": 103
    },
    {
      "midi": 59,
      "hit": false,
      "t": 111885.29624999981,
      "d": 235.65584374999162,
      "v": 102
    },
    {
      "midi": 55,
      "hit": false,
      "t": 112120.9520937498,
      "d": 235.65584374999162,
      "v": 102
    },
    {
      "midi": 62,
      "hit": false,
      "t": 112120.9520937498,
      "d": 235.65584374999162,
      "v": 105
    },
    {
      "midi": 59,
      "hit": false,
      "t": 112131.1979999998,
      "d": 225.40993749999325,
      "v": 110
    },
    {
      "midi": 55,
      "hit": false,
      "t": 112366.85384374979,
      "d": 245.90175000000454,
      "v": 102
    },
    {
      "midi": 59,
      "hit": false,
      "t": 112366.85384374979,
      "d": 245.90175000000454,
      "v": 116
    },
    {
      "midi": 62,
      "hit": false,
      "t": 112366.85384374979,
      "d": 245.90175000000454,
      "v": 114
    },
    {
      "midi": 55,
      "hit": false,
      "t": 112623.0014999998,
      "d": 225.40993749999325,
      "v": 105
    },
    {
      "midi": 59,
      "hit": false,
      "t": 112623.0014999998,
      "d": 225.40993749999325,
      "v": 116
    },
    {
      "midi": 62,
      "hit": false,
      "t": 112623.0014999998,
      "d": 225.40993749999325,
      "v": 108
    },
    {
      "midi": 55,
      "hit": false,
      "t": 112858.65734374979,
      "d": 235.65584375000617,
      "v": 110
    },
    {
      "midi": 62,
      "hit": false,
      "t": 112858.65734374979,
      "d": 235.65584375000617,
      "v": 112
    },
    {
      "midi": 59,
      "hit": false,
      "t": 112858.65734374979,
      "d": 245.90175000000454,
      "v": 116
    },
    {
      "midi": 55,
      "hit": false,
      "t": 113104.55909374979,
      "d": 235.65584374999162,
      "v": 108
    },
    {
      "midi": 62,
      "hit": false,
      "t": 113104.55909374979,
      "d": 235.65584374999162,
      "v": 114
    },
    {
      "midi": 59,
      "hit": false,
      "t": 113114.80499999979,
      "d": 225.40993749999325,
      "v": 114
    },
    {
      "midi": 55,
      "hit": false,
      "t": 113350.46084374978,
      "d": 235.65584375000617,
      "v": 105
    },
    {
      "midi": 59,
      "hit": false,
      "t": 113350.46084374978,
      "d": 235.65584375000617,
      "v": 114
    },
    {
      "midi": 62,
      "hit": false,
      "t": 113350.46084374978,
      "d": 235.65584375000617,
      "v": 112
    },
    {
      "midi": 55,
      "hit": false,
      "t": 113596.36259374979,
      "d": 235.65584375000617,
      "v": 103
    },
    {
      "midi": 59,
      "hit": false,
      "t": 113596.36259374979,
      "d": 235.65584375000617,
      "v": 114
    },
    {
      "midi": 62,
      "hit": false,
      "t": 113596.36259374979,
      "d": 235.65584375000617,
      "v": 114
    },
    {
      "midi": 55,
      "hit": false,
      "t": 113842.26434374979,
      "d": 163.93450000000303,
      "v": 122
    },
    {
      "midi": 59,
      "hit": false,
      "t": 113842.26434374979,
      "d": 163.93450000000303,
      "v": 122
    },
    {
      "midi": 62,
      "hit": false,
      "t": 113842.26434374979,
      "d": 163.93450000000303,
      "v": 118
    },
    {
      "midi": 58,
      "hit": false,
      "t": 114098.4119999998,
      "d": 963.1151875000069,
      "v": 112
    },
    {
      "midi": 62,
      "hit": false,
      "t": 114098.4119999998,
      "d": 963.1151875000069,
      "v": 112
    },
    {
      "midi": 65,
      "hit": false,
      "t": 114098.4119999998,
      "d": 963.1151875000069,
      "v": 114
    },
    {
      "midi": 34,
      "hit": false,
      "t": 114098.4119999998,
      "d": 3913.936187499974,
      "v": 90
    },
    {
      "midi": 46,
      "hit": false,
      "t": 114098.4119999998,
      "d": 3913.936187499974,
      "v": 105
    },
    {
      "midi": 58,
      "hit": false,
      "t": 115071.7730937498,
      "d": 502.0494062499929,
      "v": 115
    },
    {
      "midi": 62,
      "hit": false,
      "t": 115071.7730937498,
      "d": 993.8529062499874,
      "v": 110
    },
    {
      "midi": 65,
      "hit": false,
      "t": 115071.7730937498,
      "d": 993.8529062499874,
      "v": 112
    },
    {
      "midi": 58,
      "hit": false,
      "t": 115584.06840624979,
      "d": 481.55759374999616,
      "v": 78
    },
    {
      "midi": 58,
      "hit": false,
      "t": 116075.87190624978,
      "d": 481.55759374999616,
      "v": 97
    },
    {
      "midi": 62,
      "hit": false,
      "t": 116075.87190624978,
      "d": 963.1151874999923,
      "v": 106
    },
    {
      "midi": 65,
      "hit": false,
      "t": 116075.87190624978,
      "d": 963.1151874999923,
      "v": 110
    },
    {
      "midi": 58,
      "hit": false,
      "t": 116567.67540624978,
      "d": 471.3116874999978,
      "v": 83
    },
    {
      "midi": 58,
      "hit": false,
      "t": 117049.23299999977,
      "d": 491.80349999999453,
      "v": 115
    },
    {
      "midi": 62,
      "hit": false,
      "t": 117049.23299999977,
      "d": 963.1151874999923,
      "v": 108
    },
    {
      "midi": 65,
      "hit": false,
      "t": 117049.23299999977,
      "d": 963.1151874999923,
      "v": 99
    },
    {
      "midi": 58,
      "hit": false,
      "t": 117551.28240624977,
      "d": 461.0657812499994,
      "v": 71
    },
    {
      "midi": 62,
      "hit": false,
      "t": 118022.59409374977,
      "d": 993.852906250002,
      "v": 105
    },
    {
      "midi": 65,
      "hit": false,
      "t": 118022.59409374977,
      "d": 993.852906250002,
      "v": 110
    },
    {
      "midi": 58,
      "hit": false,
      "t": 118022.59409374977,
      "d": 1485.6564062499965,
      "v": 115
    },
    {
      "midi": 34,
      "hit": false,
      "t": 118022.59409374977,
      "d": 3954.9198124999675,
      "v": 86
    },
    {
      "midi": 46,
      "hit": false,
      "t": 118022.59409374977,
      "d": 3954.9198124999675,
      "v": 90
    },
    {
      "midi": 62,
      "hit": false,
      "t": 119026.69290624977,
      "d": 963.1151874999923,
      "v": 106
    },
    {
      "midi": 65,
      "hit": false,
      "t": 119026.69290624977,
      "d": 963.1151874999923,
      "v": 106
    },
    {
      "midi": 58,
      "hit": false,
      "t": 119518.49640624976,
      "d": 952.869281249994,
      "v": 80
    },
    {
      "midi": 62,
      "hit": false,
      "t": 120000.05399999976,
      "d": 963.1151874999923,
      "v": 105
    },
    {
      "midi": 65,
      "hit": false,
      "t": 120000.05399999976,
      "d": 963.1151874999923,
      "v": 92
    },
    {
      "midi": 58,
      "hit": false,
      "t": 120481.61159374975,
      "d": 973.3610937499907,
      "v": 89
    },
    {
      "midi": 62,
      "hit": false,
      "t": 120973.41509374975,
      "d": 973.3610937499907,
      "v": 110
    },
    {
      "midi": 65,
      "hit": false,
      "t": 120973.41509374975,
      "d": 1004.0988124999858,
      "v": 108
    },
    {
      "midi": 58,
      "hit": false,
      "t": 121465.21859374974,
      "d": 512.2953124999913,
      "v": 73
    },
    {
      "midi": 54,
      "hit": false,
      "t": 121957.02209374974,
      "d": 993.852906250002,
      "v": 115
    },
    {
      "midi": 57,
      "hit": false,
      "t": 121957.02209374974,
      "d": 993.852906250002,
      "v": 112
    },
    {
      "midi": 62,
      "hit": false,
      "t": 121957.02209374974,
      "d": 993.852906250002,
      "v": 114
    },
    {
      "midi": 50,
      "hit": false,
      "t": 121957.02209374974,
      "d": 1465.1645937499998,
      "v": 116
    },
    {
      "midi": 38,
      "hit": false,
      "t": 121957.02209374974,
      "d": 3452.8704062499746,
      "v": 95
    },
    {
      "midi": 26,
      "hit": false,
      "t": 121957.02209374974,
      "d": 3790.985312499979,
      "v": 98
    },
    {
      "midi": 54,
      "hit": false,
      "t": 122961.12090624974,
      "d": 952.869281249994,
      "v": 109
    },
    {
      "midi": 57,
      "hit": false,
      "t": 122961.12090624974,
      "d": 952.869281249994,
      "v": 112
    },
    {
      "midi": 62,
      "hit": false,
      "t": 122961.12090624974,
      "d": 952.869281249994,
      "v": 116
    },
    {
      "midi": 50,
      "hit": false,
      "t": 123432.43259374973,
      "d": 973.3610937499907,
      "v": 85
    },
    {
      "midi": 54,
      "hit": false,
      "t": 123924.23609374973,
      "d": 993.8529062499874,
      "v": 115
    },
    {
      "midi": 57,
      "hit": false,
      "t": 123924.23609374973,
      "d": 993.8529062499874,
      "v": 112
    },
    {
      "midi": 62,
      "hit": false,
      "t": 123924.23609374973,
      "d": 993.8529062499874,
      "v": 125
    },
    {
      "midi": 50,
      "hit": false,
      "t": 124416.03959374972,
      "d": 973.3610937499907,
      "v": 92
    },
    {
      "midi": 54,
      "hit": false,
      "t": 124928.33490624971,
      "d": 819.6725000000006,
      "v": 124
    },
    {
      "midi": 57,
      "hit": false,
      "t": 124928.33490624971,
      "d": 819.6725000000006,
      "v": 125
    },
    {
      "midi": 62,
      "hit": false,
      "t": 124928.33490624971,
      "d": 819.6725000000006,
      "v": 125
    },
    {
      "midi": 50,
      "hit": false,
      "t": 125399.64659374971,
      "d": 348.3608125000028,
      "v": 81
    },
    {
      "midi": 38,
      "hit": false,
      "t": 125420.13840624971,
      "d": 327.86900000000605,
      "v": 73
    },
    {
      "midi": 62,
      "hit": false,
      "t": 125891.45009374972,
      "d": 450.81987500000105,
      "v": 122
    },
    {
      "midi": 50,
      "hit": false,
      "t": 125891.45009374972,
      "d": 481.55759374999616,
      "v": 125
    },
    {
      "midi": 54,
      "hit": false,
      "t": 125891.45009374972,
      "d": 481.55759374999616,
      "v": 125
    },
    {
      "midi": 57,
      "hit": false,
      "t": 125891.45009374972,
      "d": 481.55759374999616,
      "v": 125
    },
    {
      "midi": 38,
      "hit": false,
      "t": 125891.45009374972,
      "d": 3524.5917499999923,
      "v": 118
    },
    {
      "midi": 26,
      "hit": false,
      "t": 125901.69599999972,
      "d": 3514.345843749994,
      "v": 125
    },
    {
      "midi": 55,
      "hit": false,
      "t": 129836.12399999972,
      "d": 1475.4104999999981,
      "v": 100
    },
    {
      "midi": 59,
      "hit": false,
      "t": 129836.12399999972,
      "d": 1475.4104999999981,
      "v": 103
    },
    {
      "midi": 62,
      "hit": false,
      "t": 129836.12399999972,
      "d": 1475.4104999999981,
      "v": 98
    },
    {
      "midi": 55,
      "hit": false,
      "t": 131321.78040624972,
      "d": 461.06578125001397,
      "v": 88
    },
    {
      "midi": 59,
      "hit": false,
      "t": 131321.78040624972,
      "d": 461.06578125001397,
      "v": 92
    },
    {
      "midi": 62,
      "hit": false,
      "t": 131321.78040624972,
      "d": 461.06578125001397,
      "v": 86
    },
    {
      "midi": 55,
      "hit": false,
      "t": 131793.09209374973,
      "d": 973.3610937499907,
      "v": 106
    },
    {
      "midi": 59,
      "hit": false,
      "t": 131793.09209374973,
      "d": 973.3610937499907,
      "v": 108
    },
    {
      "midi": 62,
      "hit": false,
      "t": 131793.09209374973,
      "d": 973.3610937499907,
      "v": 103
    },
    {
      "midi": 55,
      "hit": false,
      "t": 132776.69909374972,
      "d": 850.4102187500102,
      "v": 106
    },
    {
      "midi": 59,
      "hit": false,
      "t": 132776.69909374972,
      "d": 850.4102187500102,
      "v": 108
    },
    {
      "midi": 62,
      "hit": false,
      "t": 132776.69909374972,
      "d": 850.4102187500102,
      "v": 110
    },
    {
      "midi": 54,
      "hit": false,
      "t": 133760.30609374974,
      "d": 993.8529062499874,
      "v": 103
    },
    {
      "midi": 57,
      "hit": false,
      "t": 133760.30609374974,
      "d": 993.8529062499874,
      "v": 108
    },
    {
      "midi": 62,
      "hit": false,
      "t": 133760.30609374974,
      "d": 993.8529062499874,
      "v": 108
    },
    {
      "midi": 54,
      "hit": false,
      "t": 134764.40490624972,
      "d": 471.31168750001234,
      "v": 71
    },
    {
      "midi": 57,
      "hit": false,
      "t": 134764.40490624972,
      "d": 481.5575937500107,
      "v": 81
    },
    {
      "midi": 62,
      "hit": false,
      "t": 134764.40490624972,
      "d": 481.5575937500107,
      "v": 78
    },
    {
      "midi": 54,
      "hit": false,
      "t": 135245.96249999973,
      "d": 471.31168750001234,
      "v": 89
    },
    {
      "midi": 57,
      "hit": false,
      "t": 135256.20840624973,
      "d": 461.06578125001397,
      "v": 94
    },
    {
      "midi": 62,
      "hit": false,
      "t": 135256.20840624973,
      "d": 471.31168750001234,
      "v": 93
    },
    {
      "midi": 54,
      "hit": false,
      "t": 135727.52009374974,
      "d": 973.3610937499907,
      "v": 107
    },
    {
      "midi": 57,
      "hit": false,
      "t": 135727.52009374974,
      "d": 983.6069999999891,
      "v": 110
    },
    {
      "midi": 62,
      "hit": false,
      "t": 135737.76599999974,
      "d": 973.3610937499907,
      "v": 112
    },
    {
      "midi": 54,
      "hit": false,
      "t": 136711.12709374973,
      "d": 850.4102187500102,
      "v": 107
    },
    {
      "midi": 57,
      "hit": false,
      "t": 136721.37299999973,
      "d": 840.1643125000119,
      "v": 110
    },
    {
      "midi": 62,
      "hit": false,
      "t": 136721.37299999973,
      "d": 840.1643125000119,
      "v": 105
    },
    {
      "midi": 62,
      "hit": false,
      "t": 137694.73409374975,
      "d": 993.8529062499874,
      "v": 103
    },
    {
      "midi": 55,
      "hit": false,
      "t": 137715.22590624975,
      "d": 973.3610937499907,
      "v": 110
    },
    {
      "midi": 59,
      "hit": false,
      "t": 137715.22590624975,
      "d": 973.3610937499907,
      "v": 108
    },
    {
      "midi": 55,
      "hit": false,
      "t": 138698.83290624974,
      "d": 747.9511562499974,
      "v": 103
    },
    {
      "midi": 59,
      "hit": false,
      "t": 138698.83290624974,
      "d": 747.9511562499974,
      "v": 105
    },
    {
      "midi": 62,
      "hit": false,
      "t": 138698.83290624974,
      "d": 747.9511562499974,
      "v": 98
    },
    {
      "midi": 60,
      "hit": false,
      "t": 139661.94809374973,
      "d": 256.14765624998836,
      "v": 96
    },
    {
      "midi": 62,
      "hit": false,
      "t": 139661.94809374973,
      "d": 256.14765624998836,
      "v": 94
    },
    {
      "midi": 55,
      "hit": false,
      "t": 139672.19399999973,
      "d": 245.90174999999,
      "v": 98
    },
    {
      "midi": 55,
      "hit": false,
      "t": 139928.34165624972,
      "d": 235.65584374999162,
      "v": 83
    },
    {
      "midi": 60,
      "hit": false,
      "t": 139928.34165624972,
      "d": 235.65584374999162,
      "v": 81
    },
    {
      "midi": 62,
      "hit": false,
      "t": 139928.34165624972,
      "d": 235.65584374999162,
      "v": 81
    },
    {
      "midi": 55,
      "hit": false,
      "t": 140174.2434062497,
      "d": 461.06578125001397,
      "v": 105
    },
    {
      "midi": 62,
      "hit": false,
      "t": 140174.2434062497,
      "d": 461.06578125001397,
      "v": 105
    },
    {
      "midi": 60,
      "hit": false,
      "t": 140174.2434062497,
      "d": 471.31168750001234,
      "v": 103
    },
    {
      "midi": 55,
      "hit": false,
      "t": 140645.55509374972,
      "d": 491.8035000000091,
      "v": 125
    },
    {
      "midi": 59,
      "hit": false,
      "t": 140645.55509374972,
      "d": 932.3774687499972,
      "v": 120
    },
    {
      "midi": 62,
      "hit": false,
      "t": 140645.55509374972,
      "d": 932.3774687499972,
      "v": 116
    },
    {
      "midi": 55,
      "hit": false,
      "t": 141147.60449999972,
      "d": 430.32806249998976,
      "v": 78
    },
    {
      "midi": 54,
      "hit": false,
      "t": 141629.1620937497,
      "d": 973.3610937499907,
      "v": 99
    },
    {
      "midi": 57,
      "hit": false,
      "t": 141629.1620937497,
      "d": 973.3610937499907,
      "v": 103
    },
    {
      "midi": 62,
      "hit": false,
      "t": 141629.1620937497,
      "d": 983.6069999999891,
      "v": 103
    },
    {
      "midi": 54,
      "hit": false,
      "t": 142612.7690937497,
      "d": 993.8529062499874,
      "v": 105
    },
    {
      "midi": 57,
      "hit": false,
      "t": 142612.7690937497,
      "d": 993.8529062499874,
      "v": 103
    },
    {
      "midi": 62,
      "hit": false,
      "t": 142623.0149999997,
      "d": 983.6069999999891,
      "v": 99
    },
    {
      "midi": 54,
      "hit": false,
      "t": 143616.86790624968,
      "d": 481.5575937500107,
      "v": 112
    },
    {
      "midi": 57,
      "hit": false,
      "t": 143616.86790624968,
      "d": 952.869281250023,
      "v": 112
    },
    {
      "midi": 62,
      "hit": false,
      "t": 143616.86790624968,
      "d": 963.1151875000214,
      "v": 112
    },
    {
      "midi": 54,
      "hit": false,
      "t": 144108.6714062497,
      "d": 973.3610937500198,
      "v": 85
    },
    {
      "midi": 57,
      "hit": false,
      "t": 144579.9830937497,
      "d": 860.6561250000086,
      "v": 125
    },
    {
      "midi": 62,
      "hit": false,
      "t": 144590.2289999997,
      "d": 850.4102187500102,
      "v": 120
    },
    {
      "midi": 54,
      "hit": false,
      "t": 145092.2784062497,
      "d": 348.3608125000028,
      "v": 93
    },
    {
      "midi": 59,
      "hit": false,
      "t": 145594.32781249972,
      "d": 1936.476281249954,
      "v": 110
    },
    {
      "midi": 62,
      "hit": false,
      "t": 145594.32781249972,
      "d": 1936.476281249954,
      "v": 118
    },
    {
      "midi": 67,
      "hit": false,
      "t": 145594.32781249972,
      "d": 1946.7221874999523,
      "v": 125
    },
    {
      "midi": 55,
      "hit": false,
      "t": 145594.32781249972,
      "d": 1956.9680937499506,
      "v": 110
    },
    {
      "midi": 71,
      "hit": false,
      "t": 146403.7544062497,
      "d": 61.47543749999022,
      "v": 88
    },
    {
      "midi": 74,
      "hit": false,
      "t": 146403.7544062497,
      "d": 61.47543749999022,
      "v": 93
    },
    {
      "midi": 79,
      "hit": false,
      "t": 146403.7544062497,
      "d": 71.72134374998859,
      "v": 88
    },
    {
      "midi": 71,
      "hit": false,
      "t": 146557.44299999968,
      "d": 1711.0663437499898,
      "v": 114
    },
    {
      "midi": 74,
      "hit": false,
      "t": 146557.44299999968,
      "d": 1711.0663437499898,
      "v": 120
    },
    {
      "midi": 79,
      "hit": false,
      "t": 146557.44299999968,
      "d": 1711.0663437499898,
      "v": 125
    },
    {
      "midi": 59,
      "hit": false,
      "t": 147541.04999999967,
      "d": 1946.7221875000105,
      "v": 87
    },
    {
      "midi": 62,
      "hit": false,
      "t": 147541.04999999967,
      "d": 1946.7221875000105,
      "v": 99
    },
    {
      "midi": 67,
      "hit": false,
      "t": 147551.29590624967,
      "d": 1946.7221875000105,
      "v": 106
    },
    {
      "midi": 55,
      "hit": false,
      "t": 147561.54181249966,
      "d": 1936.476281250012,
      "v": 85
    },
    {
      "midi": 71,
      "hit": false,
      "t": 148370.96840624968,
      "d": 61.47543749999022,
      "v": 88
    },
    {
      "midi": 74,
      "hit": false,
      "t": 148370.96840624968,
      "d": 61.47543749999022,
      "v": 89
    },
    {
      "midi": 79,
      "hit": false,
      "t": 148370.96840624968,
      "d": 61.47543749999022,
      "v": 80
    },
    {
      "midi": 71,
      "hit": false,
      "t": 148524.6569999997,
      "d": 1588.1154687499802,
      "v": 106
    },
    {
      "midi": 74,
      "hit": false,
      "t": 148524.6569999997,
      "d": 1588.1154687499802,
      "v": 122
    },
    {
      "midi": 79,
      "hit": false,
      "t": 148524.6569999997,
      "d": 1588.1154687499802,
      "v": 118
    },
    {
      "midi": 59,
      "hit": false,
      "t": 149498.01809374968,
      "d": 1956.9680937499506,
      "v": 105
    },
    {
      "midi": 62,
      "hit": false,
      "t": 149498.01809374968,
      "d": 1956.9680937499506,
      "v": 110
    },
    {
      "midi": 55,
      "hit": false,
      "t": 149508.26399999968,
      "d": 1956.9680937499506,
      "v": 99
    },
    {
      "midi": 67,
      "hit": false,
      "t": 149508.26399999968,
      "d": 1956.9680937499506,
      "v": 118
    },
    {
      "midi": 71,
      "hit": false,
      "t": 150338.18240624966,
      "d": 61.47543749999022,
      "v": 76
    },
    {
      "midi": 74,
      "hit": false,
      "t": 150338.18240624966,
      "d": 61.47543749999022,
      "v": 82
    },
    {
      "midi": 79,
      "hit": false,
      "t": 150338.18240624966,
      "d": 61.47543749999022,
      "v": 69
    },
    {
      "midi": 71,
      "hit": false,
      "t": 150481.62509374964,
      "d": 1639.3450000000012,
      "v": 105
    },
    {
      "midi": 79,
      "hit": false,
      "t": 150481.62509374964,
      "d": 1639.3450000000012,
      "v": 114
    },
    {
      "midi": 74,
      "hit": false,
      "t": 150491.87099999964,
      "d": 1629.0990937500028,
      "v": 116
    },
    {
      "midi": 62,
      "hit": false,
      "t": 151465.23209374963,
      "d": 1885.2467500000203,
      "v": 110
    },
    {
      "midi": 59,
      "hit": false,
      "t": 151465.23209374963,
      "d": 1895.4926562500186,
      "v": 108
    },
    {
      "midi": 67,
      "hit": false,
      "t": 151475.47799999962,
      "d": 1854.5090312500251,
      "v": 120
    },
    {
      "midi": 55,
      "hit": false,
      "t": 151475.47799999962,
      "d": 1926.2303750000137,
      "v": 98
    },
    {
      "midi": 71,
      "hit": false,
      "t": 152305.39640624964,
      "d": 61.47543749999022,
      "v": 81
    },
    {
      "midi": 74,
      "hit": false,
      "t": 152305.39640624964,
      "d": 61.47543749999022,
      "v": 81
    },
    {
      "midi": 79,
      "hit": false,
      "t": 152305.39640624964,
      "d": 61.47543749999022,
      "v": 69
    },
    {
      "midi": 71,
      "hit": false,
      "t": 152459.08499999964,
      "d": 922.1315624999988,
      "v": 122
    },
    {
      "midi": 74,
      "hit": false,
      "t": 152459.08499999964,
      "d": 942.6233749999956,
      "v": 125
    },
    {
      "midi": 79,
      "hit": false,
      "t": 152459.08499999964,
      "d": 942.6233749999956,
      "v": 122
    },
    {
      "midi": 57,
      "hit": false,
      "t": 153442.69199999963,
      "d": 1926.2303750000137,
      "v": 100
    },
    {
      "midi": 61,
      "hit": false,
      "t": 153442.69199999963,
      "d": 1926.2303750000137,
      "v": 105
    },
    {
      "midi": 64,
      "hit": false,
      "t": 153442.69199999963,
      "d": 1926.2303750000137,
      "v": 91
    },
    {
      "midi": 69,
      "hit": false,
      "t": 154272.61040624965,
      "d": 163.93450000000303,
      "v": 74
    },
    {
      "midi": 76,
      "hit": false,
      "t": 154272.61040624965,
      "d": 163.93450000000303,
      "v": 74
    },
    {
      "midi": 73,
      "hit": false,
      "t": 154272.61040624965,
      "d": 174.1804062500014,
      "v": 74
    },
    {
      "midi": 69,
      "hit": false,
      "t": 154446.79081249965,
      "d": 922.1315624999988,
      "v": 103
    },
    {
      "midi": 76,
      "hit": false,
      "t": 154446.79081249965,
      "d": 922.1315624999988,
      "v": 116
    },
    {
      "midi": 73,
      "hit": false,
      "t": 154457.03671874964,
      "d": 911.8856562500005,
      "v": 109
    },
    {
      "midi": 64,
      "hit": false,
      "t": 155409.90599999964,
      "d": 1823.771312500001,
      "v": 100
    },
    {
      "midi": 57,
      "hit": false,
      "t": 155420.15190624964,
      "d": 1813.5254062500026,
      "v": 108
    },
    {
      "midi": 61,
      "hit": false,
      "t": 155420.15190624964,
      "d": 1813.5254062500026,
      "v": 109
    },
    {
      "midi": 69,
      "hit": false,
      "t": 156239.82440624962,
      "d": 143.4426875000063,
      "v": 78
    },
    {
      "midi": 73,
      "hit": false,
      "t": 156239.82440624962,
      "d": 143.4426875000063,
      "v": 79
    },
    {
      "midi": 76,
      "hit": false,
      "t": 156239.82440624962,
      "d": 143.4426875000063,
      "v": 74
    },
    {
      "midi": 69,
      "hit": false,
      "t": 156393.51299999963,
      "d": 840.1643125000119,
      "v": 98
    },
    {
      "midi": 73,
      "hit": false,
      "t": 156393.51299999963,
      "d": 840.1643125000119,
      "v": 112
    },
    {
      "midi": 76,
      "hit": false,
      "t": 156393.51299999963,
      "d": 840.1643125000119,
      "v": 120
    },
    {
      "midi": 52,
      "hit": false,
      "t": 157377.11999999965,
      "d": 71.72134374998859,
      "v": 78
    },
    {
      "midi": 57,
      "hit": false,
      "t": 157377.11999999965,
      "d": 71.72134374998859,
      "v": 78
    },
    {
      "midi": 61,
      "hit": false,
      "t": 157377.11999999965,
      "d": 71.72134374998859,
      "v": 78
    },
    {
      "midi": 33,
      "hit": false,
      "t": 157377.11999999965,
      "d": 3924.1820937499288,
      "v": 114
    },
    {
      "midi": 45,
      "hit": false,
      "t": 157377.11999999965,
      "d": 3924.1820937499288,
      "v": 103
    },
    {
      "midi": 61,
      "hit": false,
      "t": 158207.03840624963,
      "d": 163.93450000000303,
      "v": 75
    },
    {
      "midi": 64,
      "hit": false,
      "t": 158207.03840624963,
      "d": 163.93450000000303,
      "v": 75
    },
    {
      "midi": 69,
      "hit": false,
      "t": 158207.03840624963,
      "d": 163.93450000000303,
      "v": 75
    },
    {
      "midi": 64,
      "hit": false,
      "t": 158381.21881249963,
      "d": 799.1806874999893,
      "v": 106
    },
    {
      "midi": 69,
      "hit": false,
      "t": 158381.21881249963,
      "d": 799.1806874999893,
      "v": 102
    },
    {
      "midi": 61,
      "hit": false,
      "t": 158381.21881249963,
      "d": 840.1643124999828,
      "v": 105
    },
    {
      "midi": 73,
      "hit": false,
      "t": 159190.64540624962,
      "d": 81.96724999998696,
      "v": 86
    },
    {
      "midi": 69,
      "hit": false,
      "t": 159190.64540624962,
      "d": 92.21315624998533,
      "v": 92
    },
    {
      "midi": 64,
      "hit": false,
      "t": 159190.64540624962,
      "d": 102.4590624999837,
      "v": 77
    },
    {
      "midi": 64,
      "hit": false,
      "t": 159344.3339999996,
      "d": 819.672499999986,
      "v": 89
    },
    {
      "midi": 69,
      "hit": false,
      "t": 159344.3339999996,
      "d": 819.672499999986,
      "v": 114
    },
    {
      "midi": 73,
      "hit": false,
      "t": 159344.3339999996,
      "d": 1004.0988124999858,
      "v": 103
    },
    {
      "midi": 61,
      "hit": false,
      "t": 160174.25240624958,
      "d": 153.68859375000466,
      "v": 83
    },
    {
      "midi": 64,
      "hit": false,
      "t": 160174.25240624958,
      "d": 153.68859375000466,
      "v": 83
    },
    {
      "midi": 69,
      "hit": false,
      "t": 160174.25240624958,
      "d": 153.68859375000466,
      "v": 83
    },
    {
      "midi": 61,
      "hit": false,
      "t": 160338.18690624958,
      "d": 973.3610937499907,
      "v": 118
    },
    {
      "midi": 64,
      "hit": false,
      "t": 160338.18690624958,
      "d": 973.3610937499907,
      "v": 118
    },
    {
      "midi": 69,
      "hit": false,
      "t": 160338.18690624958,
      "d": 973.3610937499907,
      "v": 118
    },
    {
      "midi": 50,
      "hit": false,
      "t": 161311.54799999957,
      "d": 1956.9680937499797,
      "v": 112
    },
    {
      "midi": 54,
      "hit": false,
      "t": 161311.54799999957,
      "d": 1956.9680937499797,
      "v": 109
    },
    {
      "midi": 57,
      "hit": false,
      "t": 161311.54799999957,
      "d": 1956.9680937499797,
      "v": 112
    },
    {
      "midi": 74,
      "hit": false,
      "t": 162151.71231249959,
      "d": 61.47543749999022,
      "v": 82
    },
    {
      "midi": 66,
      "hit": false,
      "t": 162151.71231249959,
      "d": 71.72134374998859,
      "v": 82
    },
    {
      "midi": 69,
      "hit": false,
      "t": 162151.71231249959,
      "d": 81.96724999998696,
      "v": 82
    },
    {
      "midi": 66,
      "hit": false,
      "t": 162284.90909374956,
      "d": 1147.541499999992,
      "v": 118
    },
    {
      "midi": 69,
      "hit": false,
      "t": 162295.15499999956,
      "d": 1137.2955937499937,
      "v": 122
    },
    {
      "midi": 74,
      "hit": false,
      "t": 162305.40090624956,
      "d": 1127.0496874999953,
      "v": 120
    },
    {
      "midi": 50,
      "hit": false,
      "t": 163278.76199999955,
      "d": 1977.4599062499765,
      "v": 116
    },
    {
      "midi": 54,
      "hit": false,
      "t": 163278.76199999955,
      "d": 1987.7058124999749,
      "v": 115
    },
    {
      "midi": 57,
      "hit": false,
      "t": 163278.76199999955,
      "d": 1987.7058124999749,
      "v": 118
    },
    {
      "midi": 74,
      "hit": false,
      "t": 164108.68040624956,
      "d": 61.47543749999022,
      "v": 66
    },
    {
      "midi": 66,
      "hit": false,
      "t": 164118.92631249956,
      "d": 61.47543749999022,
      "v": 73
    },
    {
      "midi": 69,
      "hit": false,
      "t": 164118.92631249956,
      "d": 61.47543749999022,
      "v": 73
    },
    {
      "midi": 69,
      "hit": false,
      "t": 164262.36899999954,
      "d": 1127.0496874999953,
      "v": 116
    },
    {
      "midi": 74,
      "hit": false,
      "t": 164262.36899999954,
      "d": 1127.0496874999953,
      "v": 97
    },
    {
      "midi": 50,
      "hit": false,
      "t": 165266.46781249953,
      "d": 1915.9844687500154,
      "v": 114
    },
    {
      "midi": 54,
      "hit": false,
      "t": 165276.71371874952,
      "d": 1905.738562500017,
      "v": 118
    },
    {
      "midi": 57,
      "hit": false,
      "t": 165276.71371874952,
      "d": 1926.2303750000137,
      "v": 120
    },
    {
      "midi": 66,
      "hit": false,
      "t": 166075.89440624954,
      "d": 61.47543749999022,
      "v": 75
    },
    {
      "midi": 69,
      "hit": false,
      "t": 166075.89440624954,
      "d": 61.47543749999022,
      "v": 74
    },
    {
      "midi": 74,
      "hit": false,
      "t": 166075.89440624954,
      "d": 61.47543749999022,
      "v": 66
    },
    {
      "midi": 66,
      "hit": false,
      "t": 166229.58299999955,
      "d": 1803.279499999975,
      "v": 115
    },
    {
      "midi": 69,
      "hit": false,
      "t": 166229.58299999955,
      "d": 1803.279499999975,
      "v": 122
    },
    {
      "midi": 74,
      "hit": false,
      "t": 166229.58299999955,
      "d": 1813.5254062499735,
      "v": 116
    },
    {
      "midi": 50,
      "hit": false,
      "t": 167192.69818749954,
      "d": 1803.279499999975,
      "v": 106
    },
    {
      "midi": 54,
      "hit": false,
      "t": 167192.69818749954,
      "d": 1803.279499999975,
      "v": 118
    },
    {
      "midi": 57,
      "hit": false,
      "t": 167213.18999999954,
      "d": 1782.7876874999783,
      "v": 110
    },
    {
      "midi": 66,
      "hit": false,
      "t": 168043.10840624952,
      "d": 133.19678125000792,
      "v": 66
    },
    {
      "midi": 69,
      "hit": false,
      "t": 168043.10840624952,
      "d": 133.19678125000792,
      "v": 69
    },
    {
      "midi": 74,
      "hit": false,
      "t": 168053.35431249952,
      "d": 122.95087500000955,
      "v": 60
    },
    {
      "midi": 69,
      "hit": false,
      "t": 168186.55109374953,
      "d": 809.4265937499877,
      "v": 110
    },
    {
      "midi": 74,
      "hit": false,
      "t": 168186.55109374953,
      "d": 809.4265937499877,
      "v": 112
    },
    {
      "midi": 43,
      "hit": false,
      "t": 169180.40399999951,
      "d": 3903.69028124999,
      "v": 92
    },
    {
      "midi": 59,
      "hit": false,
      "t": 169180.40399999951,
      "d": 3934.4279999999853,
      "v": 106
    },
    {
      "midi": 62,
      "hit": false,
      "t": 169180.40399999951,
      "d": 3934.4279999999853,
      "v": 114
    },
    {
      "midi": 67,
      "hit": false,
      "t": 169180.40399999951,
      "d": 3934.4279999999853,
      "v": 110
    },
    {
      "midi": 55,
      "hit": false,
      "t": 169180.40399999951,
      "d": 3975.411624999979,
      "v": 100
    },
    {
      "midi": 71,
      "hit": false,
      "t": 170010.32240624953,
      "d": 133.19678125000792,
      "v": 85
    },
    {
      "midi": 74,
      "hit": false,
      "t": 170010.32240624953,
      "d": 133.19678125000792,
      "v": 84
    },
    {
      "midi": 79,
      "hit": false,
      "t": 170010.32240624953,
      "d": 143.4426875000063,
      "v": 80
    },
    {
      "midi": 71,
      "hit": false,
      "t": 170153.76509374953,
      "d": 1813.5254062499735,
      "v": 110
    },
    {
      "midi": 74,
      "hit": false,
      "t": 170153.76509374953,
      "d": 1813.5254062499735,
      "v": 122
    },
    {
      "midi": 79,
      "hit": false,
      "t": 170164.01099999953,
      "d": 819.672499999986,
      "v": 110
    },
    {
      "midi": 86,
      "hit": false,
      "t": 170993.92940624952,
      "d": 133.19678125000792,
      "v": 102
    },
    {
      "midi": 79,
      "hit": false,
      "t": 170993.92940624952,
      "d": 143.4426875000063,
      "v": 93
    },
    {
      "midi": 83,
      "hit": false,
      "t": 170993.92940624952,
      "d": 143.4426875000063,
      "v": 94
    },
    {
      "midi": 86,
      "hit": false,
      "t": 171137.37209374952,
      "d": 2018.44353124997,
      "v": 103
    },
    {
      "midi": 79,
      "hit": false,
      "t": 171147.61799999952,
      "d": 819.672499999986,
      "v": 96
    },
    {
      "midi": 83,
      "hit": false,
      "t": 171147.61799999952,
      "d": 2008.1976249999716,
      "v": 102
    },
    {
      "midi": 71,
      "hit": false,
      "t": 171977.5364062495,
      "d": 143.4426875000063,
      "v": 81
    },
    {
      "midi": 74,
      "hit": false,
      "t": 171977.5364062495,
      "d": 143.4426875000063,
      "v": 88
    },
    {
      "midi": 79,
      "hit": false,
      "t": 171977.5364062495,
      "d": 143.4426875000063,
      "v": 88
    },
    {
      "midi": 71,
      "hit": false,
      "t": 172131.2249999995,
      "d": 1024.5906249999825,
      "v": 110
    },
    {
      "midi": 74,
      "hit": false,
      "t": 172131.2249999995,
      "d": 1024.5906249999825,
      "v": 120
    },
    {
      "midi": 79,
      "hit": false,
      "t": 172131.2249999995,
      "d": 1024.5906249999825,
      "v": 106
    },
    {
      "midi": 31,
      "hit": false,
      "t": 173094.3401874995,
      "d": 747.9511562499974,
      "v": 102
    },
    {
      "midi": 43,
      "hit": false,
      "t": 173094.3401874995,
      "d": 747.9511562499974,
      "v": 98
    },
    {
      "midi": 59,
      "hit": false,
      "t": 173125.0779062495,
      "d": 963.1151874999923,
      "v": 100
    },
    {
      "midi": 62,
      "hit": false,
      "t": 173125.0779062495,
      "d": 963.1151874999923,
      "v": 110
    },
    {
      "midi": 67,
      "hit": false,
      "t": 173125.0779062495,
      "d": 1526.6400312499609,
      "v": 112
    },
    {
      "midi": 31,
      "hit": false,
      "t": 173852.5372499995,
      "d": 481.5575937499816,
      "v": 91
    },
    {
      "midi": 43,
      "hit": false,
      "t": 173852.5372499995,
      "d": 481.5575937499816,
      "v": 91
    },
    {
      "midi": 55,
      "hit": false,
      "t": 174098.4389999995,
      "d": 471.31168749998324,
      "v": 69
    },
    {
      "midi": 59,
      "hit": false,
      "t": 174098.4389999995,
      "d": 471.31168749998324,
      "v": 72
    },
    {
      "midi": 62,
      "hit": false,
      "t": 174098.4389999995,
      "d": 471.31168749998324,
      "v": 74
    },
    {
      "midi": 31,
      "hit": false,
      "t": 174344.34074999948,
      "d": 307.3771874999802,
      "v": 77
    },
    {
      "midi": 43,
      "hit": false,
      "t": 174344.34074999948,
      "d": 307.3771874999802,
      "v": 65
    },
    {
      "midi": 55,
      "hit": false,
      "t": 174579.99659374947,
      "d": 502.04940624997835,
      "v": 88
    },
    {
      "midi": 59,
      "hit": false,
      "t": 174579.99659374947,
      "d": 502.04940624997835,
      "v": 93
    },
    {
      "midi": 62,
      "hit": false,
      "t": 174579.99659374947,
      "d": 502.04940624997835,
      "v": 100
    },
    {
      "midi": 31,
      "hit": false,
      "t": 174836.14424999946,
      "d": 174.1804062500014,
      "v": 108
    },
    {
      "midi": 43,
      "hit": false,
      "t": 174836.14424999946,
      "d": 174.1804062500014,
      "v": 108
    },
    {
      "midi": 55,
      "hit": false,
      "t": 175092.29190624945,
      "d": 481.5575937499816,
      "v": 103
    },
    {
      "midi": 59,
      "hit": false,
      "t": 175092.29190624945,
      "d": 481.5575937499816,
      "v": 112
    },
    {
      "midi": 62,
      "hit": false,
      "t": 175092.29190624945,
      "d": 481.5575937499816,
      "v": 112
    },
    {
      "midi": 31,
      "hit": false,
      "t": 175327.94774999944,
      "d": 481.5575937499816,
      "v": 110
    },
    {
      "midi": 43,
      "hit": false,
      "t": 175327.94774999944,
      "d": 481.5575937499816,
      "v": 105
    },
    {
      "midi": 55,
      "hit": false,
      "t": 175584.09540624943,
      "d": 481.5575937499816,
      "v": 114
    },
    {
      "midi": 59,
      "hit": false,
      "t": 175584.09540624943,
      "d": 481.5575937499816,
      "v": 125
    },
    {
      "midi": 62,
      "hit": false,
      "t": 175584.09540624943,
      "d": 481.5575937499816,
      "v": 120
    },
    {
      "midi": 31,
      "hit": false,
      "t": 175819.75124999942,
      "d": 481.5575937499816,
      "v": 105
    },
    {
      "midi": 43,
      "hit": false,
      "t": 175819.75124999942,
      "d": 481.5575937499816,
      "v": 105
    },
    {
      "midi": 55,
      "hit": false,
      "t": 176075.8989062494,
      "d": 461.06578124998487,
      "v": 116
    },
    {
      "midi": 59,
      "hit": false,
      "t": 176075.8989062494,
      "d": 461.06578124998487,
      "v": 125
    },
    {
      "midi": 62,
      "hit": false,
      "t": 176075.8989062494,
      "d": 461.06578124998487,
      "v": 122
    },
    {
      "midi": 31,
      "hit": false,
      "t": 176311.5547499994,
      "d": 481.5575937499816,
      "v": 114
    },
    {
      "midi": 43,
      "hit": false,
      "t": 176311.5547499994,
      "d": 481.5575937499816,
      "v": 106
    },
    {
      "midi": 55,
      "hit": false,
      "t": 176547.2105937494,
      "d": 481.5575937499816,
      "v": 114
    },
    {
      "midi": 59,
      "hit": false,
      "t": 176547.2105937494,
      "d": 481.5575937499816,
      "v": 116
    },
    {
      "midi": 62,
      "hit": false,
      "t": 176547.2105937494,
      "d": 481.5575937499816,
      "v": 118
    },
    {
      "midi": 31,
      "hit": false,
      "t": 176803.35824999938,
      "d": 225.40993749999325,
      "v": 114
    },
    {
      "midi": 43,
      "hit": false,
      "t": 176803.35824999938,
      "d": 225.40993749999325,
      "v": 108
    },
    {
      "midi": 58,
      "hit": false,
      "t": 177059.50590624937,
      "d": 952.869281249994,
      "v": 112
    },
    {
      "midi": 62,
      "hit": false,
      "t": 177059.50590624937,
      "d": 952.869281249994,
      "v": 106
    },
    {
      "midi": 65,
      "hit": false,
      "t": 177059.50590624937,
      "d": 952.869281249994,
      "v": 110
    },
    {
      "midi": 46,
      "hit": false,
      "t": 177059.50590624937,
      "d": 2428.279781249992,
      "v": 99
    },
    {
      "midi": 34,
      "hit": false,
      "t": 177059.50590624937,
      "d": 3903.6902812500193,
      "v": 99
    },
    {
      "midi": 58,
      "hit": false,
      "t": 178022.62109374936,
      "d": 747.9511562499974,
      "v": 115
    },
    {
      "midi": 62,
      "hit": false,
      "t": 178022.62109374936,
      "d": 747.9511562499974,
      "v": 112
    },
    {
      "midi": 65,
      "hit": false,
      "t": 178022.62109374936,
      "d": 747.9511562499974,
      "v": 108
    },
    {
      "midi": 58,
      "hit": false,
      "t": 178780.81815624936,
      "d": 215.16403124999488,
      "v": 86
    },
    {
      "midi": 62,
      "hit": false,
      "t": 178780.81815624936,
      "d": 225.40993749999325,
      "v": 96
    },
    {
      "midi": 65,
      "hit": false,
      "t": 178780.81815624936,
      "d": 225.40993749999325,
      "v": 75
    },
    {
      "midi": 58,
      "hit": false,
      "t": 179006.22809374935,
      "d": 973.3610937500198,
      "v": 99
    },
    {
      "midi": 62,
      "hit": false,
      "t": 179016.47399999935,
      "d": 963.1151875000214,
      "v": 105
    },
    {
      "midi": 65,
      "hit": false,
      "t": 179016.47399999935,
      "d": 963.1151875000214,
      "v": 89
    },
    {
      "midi": 46,
      "hit": false,
      "t": 179498.03159374936,
      "d": 993.8529062500165,
      "v": 71
    },
    {
      "midi": 58,
      "hit": false,
      "t": 179989.83509374937,
      "d": 973.3610937500198,
      "v": 105
    },
    {
      "midi": 62,
      "hit": false,
      "t": 179989.83509374937,
      "d": 973.3610937500198,
      "v": 105
    },
    {
      "midi": 65,
      "hit": false,
      "t": 179989.83509374937,
      "d": 973.3610937500198,
      "v": 98
    },
    {
      "midi": 46,
      "hit": false,
      "t": 180502.13040624937,
      "d": 461.06578125001397,
      "v": 81
    },
    {
      "midi": 58,
      "hit": false,
      "t": 180973.44209374939,
      "d": 481.5575937500107,
      "v": 115
    },
    {
      "midi": 62,
      "hit": false,
      "t": 180973.44209374939,
      "d": 973.3610937500198,
      "v": 114
    },
    {
      "midi": 65,
      "hit": false,
      "t": 180973.44209374939,
      "d": 973.3610937500198,
      "v": 110
    },
    {
      "midi": 34,
      "hit": false,
      "t": 180973.44209374939,
      "d": 3924.1820937500743,
      "v": 79
    },
    {
      "midi": 46,
      "hit": false,
      "t": 180973.44209374939,
      "d": 3924.1820937500743,
      "v": 75
    },
    {
      "midi": 58,
      "hit": false,
      "t": 181465.2455937494,
      "d": 481.5575937500107,
      "v": 74
    },
    {
      "midi": 58,
      "hit": false,
      "t": 181957.0490937494,
      "d": 502.04940625000745,
      "v": 115
    },
    {
      "midi": 62,
      "hit": false,
      "t": 181957.0490937494,
      "d": 973.3610937500198,
      "v": 108
    },
    {
      "midi": 65,
      "hit": false,
      "t": 181957.0490937494,
      "d": 973.3610937500198,
      "v": 99
    },
    {
      "midi": 58,
      "hit": false,
      "t": 182469.3444062494,
      "d": 461.06578125001397,
      "v": 107
    },
    {
      "midi": 58,
      "hit": false,
      "t": 182940.65609374942,
      "d": 502.04940625000745,
      "v": 125
    },
    {
      "midi": 62,
      "hit": false,
      "t": 182940.65609374942,
      "d": 973.3610937500198,
      "v": 125
    },
    {
      "midi": 65,
      "hit": false,
      "t": 182940.65609374942,
      "d": 973.3610937500198,
      "v": 114
    },
    {
      "midi": 58,
      "hit": false,
      "t": 183452.95140624943,
      "d": 471.31168750001234,
      "v": 89
    },
    {
      "midi": 62,
      "hit": false,
      "t": 183924.26309374944,
      "d": 973.3610937500198,
      "v": 120
    },
    {
      "midi": 65,
      "hit": false,
      "t": 183924.26309374944,
      "d": 973.3610937500198,
      "v": 110
    },
    {
      "midi": 58,
      "hit": false,
      "t": 183934.50899999944,
      "d": 491.8035000000091,
      "v": 124
    },
    {
      "midi": 58,
      "hit": false,
      "t": 184436.55840624945,
      "d": 461.06578125001397,
      "v": 93
    },
    {
      "midi": 38,
      "hit": false,
      "t": 184918.11599999946,
      "d": 3739.755781249958,
      "v": 102
    },
    {
      "midi": 57,
      "hit": false,
      "t": 184918.11599999946,
      "d": 3790.98531249995,
      "v": 110
    },
    {
      "midi": 62,
      "hit": false,
      "t": 184918.11599999946,
      "d": 3790.98531249995,
      "v": 120
    },
    {
      "midi": 66,
      "hit": false,
      "t": 184918.11599999946,
      "d": 3790.98531249995,
      "v": 115
    },
    {
      "midi": 50,
      "hit": false,
      "t": 184959.09962499945,
      "d": 3750.0016874999565,
      "v": 103
    },
    {
      "midi": 69,
      "hit": false,
      "t": 185748.03440624944,
      "d": 143.4426875000063,
      "v": 86
    },
    {
      "midi": 74,
      "hit": false,
      "t": 185748.03440624944,
      "d": 143.4426875000063,
      "v": 78
    },
    {
      "midi": 78,
      "hit": false,
      "t": 185748.03440624944,
      "d": 143.4426875000063,
      "v": 81
    },
    {
      "midi": 74,
      "hit": false,
      "t": 185901.72299999945,
      "d": 819.672499999986,
      "v": 112
    },
    {
      "midi": 78,
      "hit": false,
      "t": 185901.72299999945,
      "d": 819.672499999986,
      "v": 109
    },
    {
      "midi": 69,
      "hit": false,
      "t": 185901.72299999945,
      "d": 2807.378312499961,
      "v": 95
    },
    {
      "midi": 74,
      "hit": false,
      "t": 186731.64140624943,
      "d": 143.4426875000063,
      "v": 93
    },
    {
      "midi": 78,
      "hit": false,
      "t": 186731.64140624943,
      "d": 153.68859375000466,
      "v": 99
    },
    {
      "midi": 81,
      "hit": false,
      "t": 186731.64140624943,
      "d": 153.68859375000466,
      "v": 96
    },
    {
      "midi": 74,
      "hit": false,
      "t": 186885.32999999943,
      "d": 1823.7713124999718,
      "v": 88
    },
    {
      "midi": 78,
      "hit": false,
      "t": 186895.57590624943,
      "d": 809.4265937499877,
      "v": 99
    },
    {
      "midi": 81,
      "hit": false,
      "t": 186895.57590624943,
      "d": 809.4265937499877,
      "v": 96
    },
    {
      "midi": 78,
      "hit": false,
      "t": 187715.24840624942,
      "d": 143.4426875000063,
      "v": 93
    },
    {
      "midi": 81,
      "hit": false,
      "t": 187715.24840624942,
      "d": 143.4426875000063,
      "v": 99
    },
    {
      "midi": 86,
      "hit": false,
      "t": 187715.24840624942,
      "d": 143.4426875000063,
      "v": 98
    },
    {
      "midi": 78,
      "hit": false,
      "t": 187868.93699999942,
      "d": 840.1643124999828,
      "v": 112
    },
    {
      "midi": 81,
      "hit": false,
      "t": 187868.93699999942,
      "d": 840.1643124999828,
      "v": 110
    },
    {
      "midi": 86,
      "hit": false,
      "t": 187868.93699999942,
      "d": 840.1643124999828,
      "v": 118
    },
    {
      "midi": 38,
      "hit": false,
      "t": 188668.1176874994,
      "d": 3739.755781249987,
      "v": 118
    },
    {
      "midi": 26,
      "hit": false,
      "t": 188668.1176874994,
      "d": 3770.4934999999823,
      "v": 120
    },
    {
      "midi": 66,
      "hit": false,
      "t": 188852.5439999994,
      "d": 3586.0671874999825,
      "v": 112
    },
    {
      "midi": 57,
      "hit": false,
      "t": 188852.5439999994,
      "d": 3596.313093749981,
      "v": 110
    },
    {
      "midi": 62,
      "hit": false,
      "t": 188862.7899062494,
      "d": 3575.821281249984,
      "v": 122
    },
    {
      "midi": 55,
      "hit": false,
      "t": 192786.9719999994,
      "d": 1475.4104999999981,
      "v": 100
    },
    {
      "midi": 59,
      "hit": false,
      "t": 192786.9719999994,
      "d": 1475.4104999999981,
      "v": 102
    },
    {
      "midi": 62,
      "hit": false,
      "t": 192786.9719999994,
      "d": 1475.4104999999981,
      "v": 100
    },
    {
      "midi": 31,
      "hit": false,
      "t": 192786.9719999994,
      "d": 3739.755781249987,
      "v": 89
    },
    {
      "midi": 43,
      "hit": false,
      "t": 192786.9719999994,
      "d": 3739.755781249987,
      "v": 88
    },
    {
      "midi": 55,
      "hit": false,
      "t": 194272.6284062494,
      "d": 481.5575937500107,
      "v": 81
    },
    {
      "midi": 59,
      "hit": false,
      "t": 194272.6284062494,
      "d": 481.5575937500107,
      "v": 77
    },
    {
      "midi": 62,
      "hit": false,
      "t": 194272.6284062494,
      "d": 481.5575937500107,
      "v": 69
    },
    {
      "midi": 62,
      "hit": false,
      "t": 194764.4319062494,
      "d": 963.1151874999923,
      "v": 106
    },
    {
      "midi": 55,
      "hit": false,
      "t": 194764.4319062494,
      "d": 973.3610937499907,
      "v": 114
    },
    {
      "midi": 59,
      "hit": false,
      "t": 194764.4319062494,
      "d": 973.3610937499907,
      "v": 112
    },
    {
      "midi": 62,
      "hit": false,
      "t": 195737.7929999994,
      "d": 788.9347812499909,
      "v": 103
    },
    {
      "midi": 55,
      "hit": false,
      "t": 195748.0389062494,
      "d": 778.6888749999925,
      "v": 110
    },
    {
      "midi": 59,
      "hit": false,
      "t": 195748.0389062494,
      "d": 778.6888749999925,
      "v": 106
    },
    {
      "midi": 54,
      "hit": false,
      "t": 196711.15409374938,
      "d": 973.3610937499907,
      "v": 101
    },
    {
      "midi": 57,
      "hit": false,
      "t": 196711.15409374938,
      "d": 973.3610937499907,
      "v": 106
    },
    {
      "midi": 62,
      "hit": false,
      "t": 196711.15409374938,
      "d": 973.3610937499907,
      "v": 103
    },
    {
      "midi": 26,
      "hit": false,
      "t": 196711.15409374938,
      "d": 3760.247593749955,
      "v": 98
    },
    {
      "midi": 38,
      "hit": false,
      "t": 196721.39999999938,
      "d": 3750.0016874999565,
      "v": 94
    },
    {
      "midi": 54,
      "hit": false,
      "t": 197694.76109374937,
      "d": 973.3610937499907,
      "v": 95
    },
    {
      "midi": 57,
      "hit": false,
      "t": 197694.76109374937,
      "d": 973.3610937499907,
      "v": 100
    },
    {
      "midi": 62,
      "hit": false,
      "t": 197694.76109374937,
      "d": 973.3610937499907,
      "v": 99
    },
    {
      "midi": 54,
      "hit": false,
      "t": 198678.36809374936,
      "d": 973.3610937499907,
      "v": 92
    },
    {
      "midi": 57,
      "hit": false,
      "t": 198678.36809374936,
      "d": 973.3610937499907,
      "v": 102
    },
    {
      "midi": 62,
      "hit": false,
      "t": 198678.36809374936,
      "d": 973.3610937499907,
      "v": 100
    },
    {
      "midi": 54,
      "hit": false,
      "t": 199661.97509374935,
      "d": 809.4265937499877,
      "v": 99
    },
    {
      "midi": 57,
      "hit": false,
      "t": 199661.97509374935,
      "d": 809.4265937499877,
      "v": 102
    },
    {
      "midi": 62,
      "hit": false,
      "t": 199661.97509374935,
      "d": 809.4265937499877,
      "v": 103
    },
    {
      "midi": 31,
      "hit": false,
      "t": 200645.58209374934,
      "d": 3934.4279999999853,
      "v": 93
    },
    {
      "midi": 43,
      "hit": false,
      "t": 200645.58209374934,
      "d": 3934.4279999999853,
      "v": 94
    },
    {
      "midi": 55,
      "hit": false,
      "t": 200655.82799999934,
      "d": 1475.4104999999981,
      "v": 102
    },
    {
      "midi": 59,
      "hit": false,
      "t": 200655.82799999934,
      "d": 1475.4104999999981,
      "v": 106
    },
    {
      "midi": 62,
      "hit": false,
      "t": 200655.82799999934,
      "d": 1475.4104999999981,
      "v": 108
    },
    {
      "midi": 55,
      "hit": false,
      "t": 202141.48440624934,
      "d": 348.3608125000028,
      "v": 88
    },
    {
      "midi": 59,
      "hit": false,
      "t": 202141.48440624934,
      "d": 348.3608125000028,
      "v": 96
    },
    {
      "midi": 62,
      "hit": false,
      "t": 202141.48440624934,
      "d": 348.3608125000028,
      "v": 93
    },
    {
      "midi": 55,
      "hit": false,
      "t": 202633.28790624934,
      "d": 235.65584374999162,
      "v": 105
    },
    {
      "midi": 60,
      "hit": false,
      "t": 202633.28790624934,
      "d": 235.65584374999162,
      "v": 106
    },
    {
      "midi": 62,
      "hit": false,
      "t": 202633.28790624934,
      "d": 235.65584374999162,
      "v": 106
    },
    {
      "midi": 55,
      "hit": false,
      "t": 202879.18965624933,
      "d": 225.40993749999325,
      "v": 83
    },
    {
      "midi": 60,
      "hit": false,
      "t": 202879.18965624933,
      "d": 225.40993749999325,
      "v": 85
    },
    {
      "midi": 62,
      "hit": false,
      "t": 202879.18965624933,
      "d": 225.40993749999325,
      "v": 82
    },
    {
      "midi": 55,
      "hit": false,
      "t": 203114.84549999933,
      "d": 481.5575937500107,
      "v": 88
    },
    {
      "midi": 60,
      "hit": false,
      "t": 203114.84549999933,
      "d": 481.5575937500107,
      "v": 95
    },
    {
      "midi": 62,
      "hit": false,
      "t": 203114.84549999933,
      "d": 481.5575937500107,
      "v": 88
    },
    {
      "midi": 62,
      "hit": false,
      "t": 203606.64899999934,
      "d": 963.1151874999923,
      "v": 103
    },
    {
      "midi": 55,
      "hit": false,
      "t": 203606.64899999934,
      "d": 973.3610937499907,
      "v": 100
    },
    {
      "midi": 59,
      "hit": false,
      "t": 203606.64899999934,
      "d": 973.3610937499907,
      "v": 108
    },
    {
      "midi": 54,
      "hit": false,
      "t": 204580.01009374933,
      "d": 3504.0999374999956,
      "v": 99
    },
    {
      "midi": 57,
      "hit": false,
      "t": 204580.01009374933,
      "d": 3504.0999374999956,
      "v": 105
    },
    {
      "midi": 62,
      "hit": false,
      "t": 204580.01009374933,
      "d": 3545.083562499989,
      "v": 103
    },
    {
      "midi": 38,
      "hit": false,
      "t": 204590.25599999932,
      "d": 3493.854031249997,
      "v": 96
    },
    {
      "midi": 26,
      "hit": false,
      "t": 204600.50190624932,
      "d": 3483.608124999999,
      "v": 99
    },
    {
      "midi": 55,
      "hit": false,
      "t": 208524.6839999993,
      "d": 1454.9186875000014,
      "v": 102
    },
    {
      "midi": 59,
      "hit": false,
      "t": 208524.6839999993,
      "d": 1454.9186875000014,
      "v": 103
    },
    {
      "midi": 62,
      "hit": false,
      "t": 208524.6839999993,
      "d": 1454.9186875000014,
      "v": 99
    },
    {
      "midi": 43,
      "hit": false,
      "t": 208524.6839999993,
      "d": 2817.6242187499884,
      "v": 93
    },
    {
      "midi": 31,
      "hit": false,
      "t": 208524.6839999993,
      "d": 3893.444374999992,
      "v": 83
    },
    {
      "midi": 55,
      "hit": false,
      "t": 209989.8485937493,
      "d": 481.5575937500107,
      "v": 93
    },
    {
      "midi": 62,
      "hit": false,
      "t": 209989.8485937493,
      "d": 481.5575937500107,
      "v": 91
    },
    {
      "midi": 59,
      "hit": false,
      "t": 209989.8485937493,
      "d": 747.9511562499974,
      "v": 100
    },
    {
      "midi": 55,
      "hit": false,
      "t": 210481.65209374932,
      "d": 327.86899999997695,
      "v": 88
    },
    {
      "midi": 60,
      "hit": false,
      "t": 210481.65209374932,
      "d": 338.1149062499753,
      "v": 93
    },
    {
      "midi": 62,
      "hit": false,
      "t": 210481.65209374932,
      "d": 348.3608124999737,
      "v": 96
    },
    {
      "midi": 55,
      "hit": false,
      "t": 210973.4555937493,
      "d": 1444.672781250003,
      "v": 93
    },
    {
      "midi": 59,
      "hit": false,
      "t": 210973.4555937493,
      "d": 1444.672781250003,
      "v": 98
    },
    {
      "midi": 62,
      "hit": false,
      "t": 210973.4555937493,
      "d": 1444.672781250003,
      "v": 96
    },
    {
      "midi": 43,
      "hit": false,
      "t": 211485.7509062493,
      "d": 932.3774687499972,
      "v": 81
    },
    {
      "midi": 54,
      "hit": false,
      "t": 212448.8660937493,
      "d": 993.8529062499874,
      "v": 89
    },
    {
      "midi": 57,
      "hit": false,
      "t": 212448.8660937493,
      "d": 993.8529062499874,
      "v": 95
    },
    {
      "midi": 62,
      "hit": false,
      "t": 212448.8660937493,
      "d": 993.8529062499874,
      "v": 102
    },
    {
      "midi": 38,
      "hit": false,
      "t": 212448.8660937493,
      "d": 1465.1645937499998,
      "v": 94
    },
    {
      "midi": 26,
      "hit": false,
      "t": 212448.8660937493,
      "d": 3944.6739062499837,
      "v": 93
    },
    {
      "midi": 54,
      "hit": false,
      "t": 213452.96490624928,
      "d": 973.3610937500198,
      "v": 86
    },
    {
      "midi": 57,
      "hit": false,
      "t": 213452.96490624928,
      "d": 973.3610937500198,
      "v": 93
    },
    {
      "midi": 62,
      "hit": false,
      "t": 213452.96490624928,
      "d": 973.3610937500198,
      "v": 92
    },
    {
      "midi": 38,
      "hit": false,
      "t": 213924.2765937493,
      "d": 2438.5256874999905,
      "v": 74
    },
    {
      "midi": 57,
      "hit": false,
      "t": 214436.5719062493,
      "d": 963.1151874999923,
      "v": 91
    },
    {
      "midi": 62,
      "hit": false,
      "t": 214436.5719062493,
      "d": 963.1151874999923,
      "v": 98
    },
    {
      "midi": 54,
      "hit": false,
      "t": 214436.5719062493,
      "d": 1444.672781250003,
      "v": 89
    },
    {
      "midi": 57,
      "hit": false,
      "t": 215409.9329999993,
      "d": 922.1315624999988,
      "v": 98
    },
    {
      "midi": 62,
      "hit": false,
      "t": 215409.9329999993,
      "d": 973.3610937499907,
      "v": 105
    },
    {
      "midi": 54,
      "hit": false,
      "t": 215891.4905937493,
      "d": 440.5739687499881,
      "v": 69
    },
    {
      "midi": 59,
      "hit": false,
      "t": 216393.53999999928,
      "d": 1454.9186875000014,
      "v": 88
    },
    {
      "midi": 43,
      "hit": false,
      "t": 216393.53999999928,
      "d": 3801.2312187500356,
      "v": 78
    },
    {
      "midi": 55,
      "hit": false,
      "t": 216403.78590624928,
      "d": 1444.672781250003,
      "v": 84
    },
    {
      "midi": 62,
      "hit": false,
      "t": 216403.78590624928,
      "d": 1444.672781250003,
      "v": 83
    },
    {
      "midi": 31,
      "hit": false,
      "t": 216403.78590624928,
      "d": 3790.9853125000373,
      "v": 78
    },
    {
      "midi": 55,
      "hit": false,
      "t": 217858.70459374928,
      "d": 481.5575937500107,
      "v": 77
    },
    {
      "midi": 62,
      "hit": false,
      "t": 217858.70459374928,
      "d": 481.5575937500107,
      "v": 81
    },
    {
      "midi": 59,
      "hit": false,
      "t": 217858.70459374928,
      "d": 584.0166562500235,
      "v": 81
    },
    {
      "midi": 55,
      "hit": false,
      "t": 218350.5080937493,
      "d": 1465.1645937500289,
      "v": 88
    },
    {
      "midi": 62,
      "hit": false,
      "t": 218350.5080937493,
      "d": 1465.1645937500289,
      "v": 88
    },
    {
      "midi": 60,
      "hit": false,
      "t": 218350.5080937493,
      "d": 1844.2631250000268,
      "v": 88
    },
    {
      "midi": 55,
      "hit": false,
      "t": 219825.91859374932,
      "d": 368.85262499999953,
      "v": 80
    },
    {
      "midi": 59,
      "hit": false,
      "t": 219825.91859374932,
      "d": 368.85262499999953,
      "v": 81
    },
    {
      "midi": 62,
      "hit": false,
      "t": 219825.91859374932,
      "d": 368.85262499999953,
      "v": 79
    },
    {
      "midi": 54,
      "hit": false,
      "t": 220317.72209374933,
      "d": 3596.31309375001,
      "v": 76
    },
    {
      "midi": 38,
      "hit": false,
      "t": 220317.72209374933,
      "d": 3627.050812500005,
      "v": 86
    },
    {
      "midi": 57,
      "hit": false,
      "t": 220317.72209374933,
      "d": 3657.7885312500002,
      "v": 92
    },
    {
      "midi": 62,
      "hit": false,
      "t": 220317.72209374933,
      "d": 3668.0344374999986,
      "v": 88
    },
    {
      "midi": 26,
      "hit": false,
      "t": 220327.96799999932,
      "d": 3073.771875000006,
      "v": 49
    },
    {
      "midi": 60,
      "hit": false,
      "t": 235573.8764999993,
      "d": 461.06578125001397,
      "v": 67
    },
    {
      "midi": 60,
      "hit": false,
      "t": 236086.17181249932,
      "d": 461.06578125001397,
      "v": 72
    },
    {
      "midi": 60,
      "hit": false,
      "t": 236557.48349999933,
      "d": 481.5575937500107,
      "v": 62
    },
    {
      "midi": 59,
      "hit": false,
      "t": 237049.28699999934,
      "d": 3924.182093749987,
      "v": 62
    },
    {
      "midi": 31,
      "hit": false,
      "t": 239477.56678124933,
      "d": 5102.461312500003,
      "v": 37
    },
    {
      "midi": 43,
      "hit": false,
      "t": 239477.56678124933,
      "d": 5102.461312500003,
      "v": 52
    },
    {
      "midi": 60,
      "hit": false,
      "t": 239508.30449999933,
      "d": 481.5575937500107,
      "v": 52
    },
    {
      "midi": 62,
      "hit": false,
      "t": 239508.30449999933,
      "d": 481.5575937500107,
      "v": 49
    },
    {
      "midi": 55,
      "hit": false,
      "t": 239528.79631249933,
      "d": 706.967531250004,
      "v": 43
    },
    {
      "midi": 60,
      "hit": false,
      "t": 240000.10799999934,
      "d": 481.5575937499816,
      "v": 72
    },
    {
      "midi": 62,
      "hit": false,
      "t": 240000.10799999934,
      "d": 481.5575937499816,
      "v": 76
    },
    {
      "midi": 55,
      "hit": false,
      "t": 240246.00974999933,
      "d": 727.4593437500007,
      "v": 76
    },
    {
      "midi": 62,
      "hit": false,
      "t": 240491.91149999932,
      "d": 481.5575937500107,
      "v": 64
    },
    {
      "midi": 60,
      "hit": false,
      "t": 240491.91149999932,
      "d": 614.7543750000186,
      "v": 59
    },
    {
      "midi": 62,
      "hit": false,
      "t": 240983.71499999933,
      "d": 2448.771593750018,
      "v": 80
    },
    {
      "midi": 55,
      "hit": false,
      "t": 240983.71499999933,
      "d": 2469.2634062500147,
      "v": 76
    },
    {
      "midi": 59,
      "hit": false,
      "t": 240983.71499999933,
      "d": 2479.509312500013,
      "v": 78
    },
    {
      "midi": 62,
      "hit": false,
      "t": 243442.73249999934,
      "d": 512.2953125000058,
      "v": 76
    },
    {
      "midi": 55,
      "hit": false,
      "t": 243463.22431249934,
      "d": 491.8035000000091,
      "v": 67
    },
    {
      "midi": 59,
      "hit": false,
      "t": 243473.47021874934,
      "d": 481.5575937500107,
      "v": 64
    },
    {
      "midi": 55,
      "hit": false,
      "t": 243965.27371874935,
      "d": 952.869281249994,
      "v": 81
    },
    {
      "midi": 59,
      "hit": false,
      "t": 243965.27371874935,
      "d": 952.869281249994,
      "v": 81
    },
    {
      "midi": 62,
      "hit": false,
      "t": 243965.27371874935,
      "d": 952.869281249994,
      "v": 86
    },
    {
      "midi": 31,
      "hit": false,
      "t": 244907.89709374934,
      "d": 8104.511843749991,
      "v": 81
    },
    {
      "midi": 59,
      "hit": false,
      "t": 244928.38890624934,
      "d": 532.7871250000026,
      "v": 92
    },
    {
      "midi": 62,
      "hit": false,
      "t": 244928.38890624934,
      "d": 1127.0496874999953,
      "v": 91
    },
    {
      "midi": 55,
      "hit": false,
      "t": 244928.38890624934,
      "d": 7715.167406249995,
      "v": 85
    },
    {
      "midi": 43,
      "hit": false,
      "t": 244938.63481249934,
      "d": 7858.610093750001,
      "v": 79
    },
    {
      "midi": 59,
      "hit": false,
      "t": 245512.40556249933,
      "d": 7182.380281249993,
      "v": 77
    },
    {
      "midi": 62,
      "hit": false,
      "t": 246106.66812499933,
      "d": 6588.11771875,
      "v": 86
    },
    {
      "midi": 67,
      "hit": false,
      "t": 246649.70115624933,
      "d": 6045.084687499999,
      "v": 81
    },
    {
      "midi": 71,
      "hit": false,
      "t": 247284.9473437493,
      "d": 5409.838500000013,
      "v": 74
    },
    {
      "midi": 74,
      "hit": false,
      "t": 248032.8984999993,
      "d": 4661.887343750015,
      "v": 72
    },
    {
      "midi": 79,
      "hit": false,
      "t": 249590.27624999933,
      "d": 3104.509593750001,
      "v": 79
    }
  ]
}