{
  "jsonPath": "Classical/Classical Piano/Martin Jones/songs-without-words-book-v-no-5.json",
  "path": "Classical\\Classical Piano\\Martin Jones\\Songs Without Words - Book V_ No 5.mid",
  "name": "Songs Without Words - Book V_ No 5",
  "difficulty": "Advanced",
  "bpm": 120,
  "notes": [
    {
      "midi": 52,
      "hit": false,
      "t": 5768.750000000001,
      "d": 1406.25,
      "v": 19
    },
    {
      "midi": 57,
      "hit": false,
      "t": 6397.916666666668,
      "d": 1154.166666666666,
      "v": 31
    },
    {
      "midi": 60,
      "hit": false,
      "t": 6408.333333333335,
      "d": 1249.999999999999,
      "v": 29
    },
    {
      "midi": 45,
      "hit": false,
      "t": 6979.166666666668,
      "d": 937.4999999999991,
      "v": 25
    },
    {
      "midi": 52,
      "hit": false,
      "t": 7420.833333333334,
      "d": 997.9166666666661,
      "v": 37
    },
    {
      "midi": 60,
      "hit": false,
      "t": 7822.916666666667,
      "d": 779.166666666667,
      "v": 45
    },
    {
      "midi": 57,
      "hit": false,
      "t": 7856.25,
      "d": 877.0833333333339,
      "v": 25
    },
    {
      "midi": 45,
      "hit": false,
      "t": 8258.333333333334,
      "d": 560.4166666666679,
      "v": 28
    },
    {
      "midi": 52,
      "hit": false,
      "t": 8747.916666666668,
      "d": 183.33333333333394,
      "v": 45
    },
    {
      "midi": 57,
      "hit": false,
      "t": 9304.166666666668,
      "d": 231.25000000000182,
      "v": 12
    },
    {
      "midi": 60,
      "hit": false,
      "t": 9318.750000000002,
      "d": 241.66666666666788,
      "v": 30
    },
    {
      "midi": 69,
      "hit": false,
      "t": 9320.833333333336,
      "d": 1650,
      "v": 106
    },
    {
      "midi": 45,
      "hit": false,
      "t": 9939.583333333336,
      "d": 560.4166666666661,
      "v": 28
    },
    {
      "midi": 52,
      "hit": false,
      "t": 10395.833333333336,
      "d": 204.16666666666606,
      "v": 33
    },
    {
      "midi": 57,
      "hit": false,
      "t": 10887.500000000002,
      "d": 170.83333333333394,
      "v": 29
    },
    {
      "midi": 60,
      "hit": false,
      "t": 10887.500000000002,
      "d": 214.58333333333394,
      "v": 50
    },
    {
      "midi": 64,
      "hit": false,
      "t": 10902.083333333336,
      "d": 2231.250000000002,
      "v": 100
    },
    {
      "midi": 45,
      "hit": false,
      "t": 11495.833333333336,
      "d": 485.4166666666679,
      "v": 18
    },
    {
      "midi": 52,
      "hit": false,
      "t": 11910.41666666667,
      "d": 131.25,
      "v": 35
    },
    {
      "midi": 57,
      "hit": false,
      "t": 12345.833333333336,
      "d": 104.16666666666788,
      "v": 23
    },
    {
      "midi": 60,
      "hit": false,
      "t": 12354.16666666667,
      "d": 108.33333333333394,
      "v": 57
    },
    {
      "midi": 45,
      "hit": false,
      "t": 12743.750000000004,
      "d": 402.08333333333394,
      "v": 47
    },
    {
      "midi": 52,
      "hit": false,
      "t": 13168.750000000004,
      "d": 429.16666666666606,
      "v": 32
    },
    {
      "midi": 60,
      "hit": false,
      "t": 13677.083333333336,
      "d": 118.75,
      "v": 44
    },
    {
      "midi": 57,
      "hit": false,
      "t": 13691.66666666667,
      "d": 906.25,
      "v": 111
    },
    {
      "midi": 45,
      "hit": false,
      "t": 14141.66666666667,
      "d": 402.08333333333394,
      "v": 55
    },
    {
      "midi": 52,
      "hit": false,
      "t": 14554.16666666667,
      "d": 100,
      "v": 33
    },
    {
      "midi": 57,
      "hit": false,
      "t": 15025.000000000004,
      "d": 135.41666666666606,
      "v": 26
    },
    {
      "midi": 60,
      "hit": false,
      "t": 15054.16666666667,
      "d": 175,
      "v": 34
    },
    {
      "midi": 52,
      "hit": false,
      "t": 15066.66666666667,
      "d": 385.41666666666606,
      "v": 97
    },
    {
      "midi": 45,
      "hit": false,
      "t": 15797.91666666667,
      "d": 406.25,
      "v": 6
    },
    {
      "midi": 52,
      "hit": false,
      "t": 16131.250000000004,
      "d": 145.83333333333212,
      "v": 32
    },
    {
      "midi": 60,
      "hit": false,
      "t": 16714.583333333336,
      "d": 164.58333333333212,
      "v": 26
    },
    {
      "midi": 57,
      "hit": false,
      "t": 16718.750000000004,
      "d": 145.83333333333212,
      "v": 25
    },
    {
      "midi": 76,
      "hit": false,
      "t": 16775.000000000004,
      "d": 881.25,
      "v": 51
    },
    {
      "midi": 72,
      "hit": false,
      "t": 16814.583333333336,
      "d": 662.5,
      "v": 50
    },
    {
      "midi": 40,
      "hit": false,
      "t": 17385.416666666668,
      "d": 475.00000000000364,
      "v": 38
    },
    {
      "midi": 72,
      "hit": false,
      "t": 17908.33333333334,
      "d": 529.1666666666642,
      "v": 78
    },
    {
      "midi": 52,
      "hit": false,
      "t": 17916.66666666667,
      "d": 106.25,
      "v": 48
    },
    {
      "midi": 69,
      "hit": false,
      "t": 17927.08333333334,
      "d": 233.33333333333212,
      "v": 52
    },
    {
      "midi": 69,
      "hit": false,
      "t": 18408.33333333334,
      "d": 1083.3333333333358,
      "v": 77
    },
    {
      "midi": 60,
      "hit": false,
      "t": 18435.41666666667,
      "d": 220.83333333333212,
      "v": 38
    },
    {
      "midi": 64,
      "hit": false,
      "t": 18445.833333333336,
      "d": 1133.3333333333394,
      "v": 54
    },
    {
      "midi": 57,
      "hit": false,
      "t": 18452.083333333336,
      "d": 214.58333333333576,
      "v": 30
    },
    {
      "midi": 33,
      "hit": false,
      "t": 19045.83333333334,
      "d": 66.66666666666788,
      "v": 30
    },
    {
      "midi": 68,
      "hit": false,
      "t": 19654.166666666675,
      "d": 100,
      "v": 54
    },
    {
      "midi": 71,
      "hit": false,
      "t": 19654.166666666675,
      "d": 131.25,
      "v": 71
    },
    {
      "midi": 52,
      "hit": false,
      "t": 19664.583333333343,
      "d": 145.83333333333212,
      "v": 29
    },
    {
      "midi": 72,
      "hit": false,
      "t": 20141.666666666675,
      "d": 402.0833333333321,
      "v": 83
    },
    {
      "midi": 69,
      "hit": false,
      "t": 20154.166666666675,
      "d": 397.91666666666424,
      "v": 57
    },
    {
      "midi": 60,
      "hit": false,
      "t": 20156.250000000007,
      "d": 108.33333333333212,
      "v": 51
    },
    {
      "midi": 57,
      "hit": false,
      "t": 20162.500000000007,
      "d": 89.58333333333212,
      "v": 36
    },
    {
      "midi": 74,
      "hit": false,
      "t": 20577.08333333334,
      "d": 343.75,
      "v": 88
    },
    {
      "midi": 71,
      "hit": false,
      "t": 20593.750000000007,
      "d": 277.0833333333321,
      "v": 63
    },
    {
      "midi": 45,
      "hit": false,
      "t": 20593.750000000007,
      "d": 320.8333333333321,
      "v": 50
    },
    {
      "midi": 52,
      "hit": false,
      "t": 20956.250000000007,
      "d": 104.16666666666424,
      "v": 68
    },
    {
      "midi": 76,
      "hit": false,
      "t": 20964.58333333334,
      "d": 106.25,
      "v": 99
    },
    {
      "midi": 72,
      "hit": false,
      "t": 20970.83333333334,
      "d": 43.75,
      "v": 84
    },
    {
      "midi": 57,
      "hit": false,
      "t": 21381.250000000007,
      "d": 322.9166666666679,
      "v": 36
    },
    {
      "midi": 62,
      "hit": false,
      "t": 21406.250000000007,
      "d": 333.33333333333576,
      "v": 46
    },
    {
      "midi": 79,
      "hit": false,
      "t": 21410.416666666675,
      "d": 977.0833333333358,
      "v": 88
    },
    {
      "midi": 74,
      "hit": false,
      "t": 21433.333333333343,
      "d": 679.1666666666679,
      "v": 63
    },
    {
      "midi": 45,
      "hit": false,
      "t": 21933.333333333343,
      "d": 402.08333333333576,
      "v": 65
    },
    {
      "midi": 77,
      "hit": false,
      "t": 22352.083333333347,
      "d": 779.166666666657,
      "v": 104
    },
    {
      "midi": 74,
      "hit": false,
      "t": 22360.41666666668,
      "d": 449.99999999999636,
      "v": 94
    },
    {
      "midi": 53,
      "hit": false,
      "t": 22362.50000000001,
      "d": 64.58333333333212,
      "v": 50
    },
    {
      "midi": 62,
      "hit": false,
      "t": 22729.166666666675,
      "d": 104.16666666666424,
      "v": 84
    },
    {
      "midi": 57,
      "hit": false,
      "t": 22735.416666666675,
      "d": 83.33333333333212,
      "v": 64
    },
    {
      "midi": 76,
      "hit": false,
      "t": 23116.66666666667,
      "d": 485.41666666666424,
      "v": 96
    },
    {
      "midi": 45,
      "hit": false,
      "t": 23125.000000000004,
      "d": 433.3333333333321,
      "v": 61
    },
    {
      "midi": 72,
      "hit": false,
      "t": 23129.16666666667,
      "d": 366.66666666666424,
      "v": 91
    },
    {
      "midi": 74,
      "hit": false,
      "t": 23520.833333333336,
      "d": 127.08333333333212,
      "v": 98
    },
    {
      "midi": 71,
      "hit": false,
      "t": 23533.333333333336,
      "d": 466.66666666666424,
      "v": 85
    },
    {
      "midi": 53,
      "hit": false,
      "t": 23543.750000000004,
      "d": 97.91666666666424,
      "v": 63
    },
    {
      "midi": 57,
      "hit": false,
      "t": 23925,
      "d": 233.33333333333212,
      "v": 47
    },
    {
      "midi": 60,
      "hit": false,
      "t": 23933.333333333332,
      "d": 300,
      "v": 60
    },
    {
      "midi": 72,
      "hit": false,
      "t": 23956.25,
      "d": 475,
      "v": 80
    },
    {
      "midi": 76,
      "hit": false,
      "t": 23958.333333333332,
      "d": 562.5,
      "v": 80
    },
    {
      "midi": 45,
      "hit": false,
      "t": 24431.25,
      "d": 420.8333333333285,
      "v": 58
    },
    {
      "midi": 72,
      "hit": false,
      "t": 24829.166666666664,
      "d": 81.24999999999636,
      "v": 88
    },
    {
      "midi": 69,
      "hit": false,
      "t": 24837.499999999996,
      "d": 58.33333333333212,
      "v": 72
    },
    {
      "midi": 52,
      "hit": false,
      "t": 24837.499999999996,
      "d": 87.49999999999636,
      "v": 63
    },
    {
      "midi": 63,
      "hit": false,
      "t": 25168.749999999993,
      "d": 156.24999999999636,
      "v": 82
    },
    {
      "midi": 66,
      "hit": false,
      "t": 25252.083333333325,
      "d": 666.6666666666642,
      "v": 78
    },
    {
      "midi": 68,
      "hit": false,
      "t": 25302.083333333325,
      "d": 112.49999999999636,
      "v": 76
    },
    {
      "midi": 57,
      "hit": false,
      "t": 25314.583333333325,
      "d": 118.74999999999636,
      "v": 17
    },
    {
      "midi": 60,
      "hit": false,
      "t": 25322.916666666657,
      "d": 114.58333333333212,
      "v": 33
    },
    {
      "midi": 71,
      "hit": false,
      "t": 25370.83333333332,
      "d": 110.41666666666788,
      "v": 65
    },
    {
      "midi": 69,
      "hit": false,
      "t": 25472.916666666657,
      "d": 489.5833333333321,
      "v": 86
    },
    {
      "midi": 63,
      "hit": false,
      "t": 25618.74999999999,
      "d": 222.91666666666788,
      "v": 5
    },
    {
      "midi": 45,
      "hit": false,
      "t": 25924.99999999999,
      "d": 587.5,
      "v": 59
    },
    {
      "midi": 68,
      "hit": false,
      "t": 25927.08333333332,
      "d": 443.75,
      "v": 104
    },
    {
      "midi": 64,
      "hit": false,
      "t": 25972.916666666657,
      "d": 327.0833333333321,
      "v": 63
    },
    {
      "midi": 69,
      "hit": false,
      "t": 26310.416666666657,
      "d": 470.8333333333321,
      "v": 102
    },
    {
      "midi": 66,
      "hit": false,
      "t": 26320.83333333332,
      "d": 431.25,
      "v": 100
    },
    {
      "midi": 52,
      "hit": false,
      "t": 26352.08333333332,
      "d": 222.91666666666788,
      "v": 76
    },
    {
      "midi": 71,
      "hit": false,
      "t": 26789.58333333332,
      "d": 906.25,
      "v": 96
    },
    {
      "midi": 68,
      "hit": false,
      "t": 26791.666666666653,
      "d": 910.4166666666679,
      "v": 74
    },
    {
      "midi": 56,
      "hit": false,
      "t": 26804.166666666653,
      "d": 204.16666666666788,
      "v": 60
    },
    {
      "midi": 59,
      "hit": false,
      "t": 26820.83333333332,
      "d": 222.91666666666788,
      "v": 48
    },
    {
      "midi": 40,
      "hit": false,
      "t": 27324.99999999999,
      "d": 387.5,
      "v": 74
    },
    {
      "midi": 52,
      "hit": false,
      "t": 27718.74999999999,
      "d": 87.5,
      "v": 85
    },
    {
      "midi": 62,
      "hit": false,
      "t": 28274.99999999999,
      "d": 79.16666666666788,
      "v": 68
    },
    {
      "midi": 59,
      "hit": false,
      "t": 28279.166666666657,
      "d": 64.58333333333212,
      "v": 57
    },
    {
      "midi": 76,
      "hit": false,
      "t": 28283.333333333325,
      "d": 458.3333333333321,
      "v": 98
    },
    {
      "midi": 68,
      "hit": false,
      "t": 28304.166666666657,
      "d": 45.83333333333212,
      "v": 88
    },
    {
      "midi": 40,
      "hit": false,
      "t": 28860.416666666657,
      "d": 379.1666666666679,
      "v": 76
    },
    {
      "midi": 52,
      "hit": false,
      "t": 29312.499999999993,
      "d": 95.83333333333212,
      "v": 60
    },
    {
      "midi": 72,
      "hit": false,
      "t": 29314.583333333325,
      "d": 389.5833333333321,
      "v": 94
    },
    {
      "midi": 69,
      "hit": false,
      "t": 29712.49999999999,
      "d": 531.25,
      "v": 93
    },
    {
      "midi": 60,
      "hit": false,
      "t": 29727.08333333332,
      "d": 193.75,
      "v": 61
    },
    {
      "midi": 57,
      "hit": false,
      "t": 29739.58333333332,
      "d": 125,
      "v": 56
    },
    {
      "midi": 64,
      "hit": false,
      "t": 29754.166666666653,
      "d": 666.6666666666679,
      "v": 69
    },
    {
      "midi": 45,
      "hit": false,
      "t": 30133.33333333332,
      "d": 424.99999999999636,
      "v": 74
    },
    {
      "midi": 71,
      "hit": false,
      "t": 30510.416666666653,
      "d": 85.41666666666424,
      "v": 103
    },
    {
      "midi": 52,
      "hit": false,
      "t": 30529.166666666653,
      "d": 81.24999999999636,
      "v": 69
    },
    {
      "midi": 68,
      "hit": false,
      "t": 30531.249999999985,
      "d": 37.5,
      "v": 92
    },
    {
      "midi": 72,
      "hit": false,
      "t": 30910.41666666665,
      "d": 458.33333333333576,
      "v": 111
    },
    {
      "midi": 69,
      "hit": false,
      "t": 30933.333333333318,
      "d": 360.4166666666679,
      "v": 85
    },
    {
      "midi": 57,
      "hit": false,
      "t": 30935.41666666665,
      "d": 152.08333333333576,
      "v": 58
    },
    {
      "midi": 60,
      "hit": false,
      "t": 30937.49999999998,
      "d": 239.58333333333576,
      "v": 69
    },
    {
      "midi": 74,
      "hit": false,
      "t": 31324.999999999985,
      "d": 512.5000000000073,
      "v": 104
    },
    {
      "midi": 71,
      "hit": false,
      "t": 31331.249999999985,
      "d": 431.25000000000364,
      "v": 96
    },
    {
      "midi": 45,
      "hit": false,
      "t": 31349.999999999985,
      "d": 475.0000000000073,
      "v": 68
    },
    {
      "midi": 76,
      "hit": false,
      "t": 31772.916666666657,
      "d": 127.08333333333212,
      "v": 102
    },
    {
      "midi": 52,
      "hit": false,
      "t": 31777.083333333325,
      "d": 108.33333333333212,
      "v": 88
    },
    {
      "midi": 72,
      "hit": false,
      "t": 31781.249999999993,
      "d": 89.58333333333212,
      "v": 98
    },
    {
      "midi": 59,
      "hit": false,
      "t": 32264.58333333332,
      "d": 283.33333333333576,
      "v": 59
    },
    {
      "midi": 62,
      "hit": false,
      "t": 32264.58333333332,
      "d": 370.83333333333576,
      "v": 72
    },
    {
      "midi": 79,
      "hit": false,
      "t": 32287.49999999999,
      "d": 1562.5000000000036,
      "v": 106
    },
    {
      "midi": 74,
      "hit": false,
      "t": 32310.416666666657,
      "d": 587.4999999999927,
      "v": 84
    },
    {
      "midi": 76,
      "hit": false,
      "t": 32852.08333333332,
      "d": 360.41666666666424,
      "v": 106
    },
    {
      "midi": 47,
      "hit": false,
      "t": 32862.499999999985,
      "d": 393.75,
      "v": 61
    },
    {
      "midi": 77,
      "hit": false,
      "t": 33262.499999999985,
      "d": 447.9166666666715,
      "v": 100
    },
    {
      "midi": 55,
      "hit": false,
      "t": 33268.749999999985,
      "d": 66.66666666666424,
      "v": 44
    },
    {
      "midi": 76,
      "hit": false,
      "t": 33658.33333333332,
      "d": 247.91666666667152,
      "v": 98
    },
    {
      "midi": 60,
      "hit": false,
      "t": 33670.83333333332,
      "d": 125,
      "v": 68
    },
    {
      "midi": 64,
      "hit": false,
      "t": 33674.999999999985,
      "d": 166.66666666667152,
      "v": 53
    },
    {
      "midi": 48,
      "hit": false,
      "t": 34187.49999999999,
      "d": 589.5833333333358,
      "v": 38
    },
    {
      "midi": 77,
      "hit": false,
      "t": 34191.66666666666,
      "d": 464.58333333333576,
      "v": 100
    },
    {
      "midi": 74,
      "hit": false,
      "t": 34206.24999999999,
      "d": 397.91666666666424,
      "v": 78
    },
    {
      "midi": 55,
      "hit": false,
      "t": 34727.08333333333,
      "d": 77.08333333333576,
      "v": 57
    },
    {
      "midi": 76,
      "hit": false,
      "t": 34900,
      "d": 106.25,
      "v": 93
    },
    {
      "midi": 72,
      "hit": false,
      "t": 34918.75,
      "d": 56.25,
      "v": 76
    },
    {
      "midi": 76,
      "hit": false,
      "t": 35072.916666666664,
      "d": 216.66666666666424,
      "v": 76
    },
    {
      "midi": 72,
      "hit": false,
      "t": 35087.5,
      "d": 224.99999999999272,
      "v": 70
    },
    {
      "midi": 62,
      "hit": false,
      "t": 35116.666666666664,
      "d": 97.91666666666424,
      "v": 63
    },
    {
      "midi": 65,
      "hit": false,
      "t": 35116.666666666664,
      "d": 129.16666666666424,
      "v": 55
    },
    {
      "midi": 74,
      "hit": false,
      "t": 35518.74999999999,
      "d": 629.1666666666715,
      "v": 89
    },
    {
      "midi": 50,
      "hit": false,
      "t": 35524.99999999999,
      "d": 502.08333333333576,
      "v": 59
    },
    {
      "midi": 71,
      "hit": false,
      "t": 35531.24999999999,
      "d": 522.9166666666715,
      "v": 77
    },
    {
      "midi": 57,
      "hit": false,
      "t": 35956.24999999999,
      "d": 352.08333333334303,
      "v": 60
    },
    {
      "midi": 72,
      "hit": false,
      "t": 36127.08333333333,
      "d": 110.41666666667152,
      "v": 81
    },
    {
      "midi": 69,
      "hit": false,
      "t": 36139.58333333333,
      "d": 143.75000000000728,
      "v": 66
    },
    {
      "midi": 72,
      "hit": false,
      "t": 36389.583333333336,
      "d": 310.4166666666715,
      "v": 80
    },
    {
      "midi": 64,
      "hit": false,
      "t": 36391.66666666667,
      "d": 422.9166666666715,
      "v": 47
    },
    {
      "midi": 69,
      "hit": false,
      "t": 36412.50000000001,
      "d": 331.25,
      "v": 69
    },
    {
      "midi": 71,
      "hit": false,
      "t": 36897.91666666668,
      "d": 972.9166666666715,
      "v": 75
    },
    {
      "midi": 52,
      "hit": false,
      "t": 36920.83333333334,
      "d": 1120.8333333333358,
      "v": 44
    },
    {
      "midi": 68,
      "hit": false,
      "t": 36935.41666666668,
      "d": 962.5,
      "v": 51
    },
    {
      "midi": 62,
      "hit": false,
      "t": 37481.250000000015,
      "d": 400,
      "v": 54
    },
    {
      "midi": 69,
      "hit": false,
      "t": 37795.83333333335,
      "d": 277.0833333333285,
      "v": 74
    },
    {
      "midi": 69,
      "hit": false,
      "t": 38172.91666666668,
      "d": 833.3333333333358,
      "v": 69
    },
    {
      "midi": 60,
      "hit": false,
      "t": 38183.33333333334,
      "d": 370.83333333333576,
      "v": 31
    },
    {
      "midi": 57,
      "hit": false,
      "t": 38202.08333333334,
      "d": 281.25,
      "v": 22
    },
    {
      "midi": 45,
      "hit": false,
      "t": 38812.500000000015,
      "d": 395.83333333333576,
      "v": 42
    },
    {
      "midi": 52,
      "hit": false,
      "t": 39285.416666666686,
      "d": 379.16666666666424,
      "v": 50
    },
    {
      "midi": 57,
      "hit": false,
      "t": 39847.916666666686,
      "d": 583.3333333333358,
      "v": 113
    },
    {
      "midi": 60,
      "hit": false,
      "t": 39868.75000000002,
      "d": 83.33333333333576,
      "v": 45
    },
    {
      "midi": 45,
      "hit": false,
      "t": 40343.75000000002,
      "d": 427.08333333333576,
      "v": 47
    },
    {
      "midi": 52,
      "hit": false,
      "t": 40797.91666666669,
      "d": 70.83333333333576,
      "v": 34
    },
    {
      "midi": 52,
      "hit": false,
      "t": 41281.25000000003,
      "d": 350.0000000000073,
      "v": 101
    },
    {
      "midi": 57,
      "hit": false,
      "t": 41283.333333333365,
      "d": 79.16666666667152,
      "v": 37
    },
    {
      "midi": 60,
      "hit": false,
      "t": 41285.4166666667,
      "d": 118.75,
      "v": 54
    },
    {
      "midi": 45,
      "hit": false,
      "t": 41783.33333333337,
      "d": 525,
      "v": 52
    },
    {
      "midi": 52,
      "hit": false,
      "t": 42264.58333333337,
      "d": 129.16666666666424,
      "v": 48
    },
    {
      "midi": 57,
      "hit": false,
      "t": 42837.50000000004,
      "d": 81.25,
      "v": 33
    },
    {
      "midi": 60,
      "hit": false,
      "t": 42837.50000000004,
      "d": 83.33333333333576,
      "v": 36
    },
    {
      "midi": 76,
      "hit": false,
      "t": 42850.00000000004,
      "d": 675,
      "v": 50
    },
    {
      "midi": 88,
      "hit": false,
      "t": 42854.1666666667,
      "d": 606.25,
      "v": 70
    },
    {
      "midi": 84,
      "hit": false,
      "t": 42860.4166666667,
      "d": 627.0833333333358,
      "v": 49
    },
    {
      "midi": 40,
      "hit": false,
      "t": 43425.00000000004,
      "d": 358.33333333333576,
      "v": 47
    },
    {
      "midi": 52,
      "hit": false,
      "t": 43960.41666666671,
      "d": 100.00000000000728,
      "v": 46
    },
    {
      "midi": 84,
      "hit": false,
      "t": 43968.750000000044,
      "d": 95.83333333333576,
      "v": 67
    },
    {
      "midi": 72,
      "hit": false,
      "t": 43995.83333333338,
      "d": 62.5,
      "v": 15
    },
    {
      "midi": 81,
      "hit": false,
      "t": 44006.250000000044,
      "d": 52.08333333333576,
      "v": 24
    },
    {
      "midi": 81,
      "hit": false,
      "t": 44618.750000000044,
      "d": 804.1666666666642,
      "v": 68
    },
    {
      "midi": 60,
      "hit": false,
      "t": 44627.08333333338,
      "d": 241.66666666666424,
      "v": 29
    },
    {
      "midi": 76,
      "hit": false,
      "t": 44631.250000000044,
      "d": 914.5833333333285,
      "v": 47
    },
    {
      "midi": 69,
      "hit": false,
      "t": 44639.58333333338,
      "d": 635.4166666666642,
      "v": 22
    },
    {
      "midi": 57,
      "hit": false,
      "t": 44643.750000000044,
      "d": 250,
      "v": 27
    },
    {
      "midi": 33,
      "hit": false,
      "t": 45297.91666666671,
      "d": 131.25,
      "v": 47
    },
    {
      "midi": 52,
      "hit": false,
      "t": 45783.33333333337,
      "d": 141.66666666667152,
      "v": 55
    },
    {
      "midi": 83,
      "hit": false,
      "t": 45810.41666666671,
      "d": 156.25000000000728,
      "v": 63
    },
    {
      "midi": 71,
      "hit": false,
      "t": 45816.66666666671,
      "d": 91.66666666667152,
      "v": 54
    },
    {
      "midi": 80,
      "hit": false,
      "t": 45831.250000000044,
      "d": 120.83333333333576,
      "v": 71
    },
    {
      "midi": 84,
      "hit": false,
      "t": 46245.83333333338,
      "d": 149.99999999999272,
      "v": 79
    },
    {
      "midi": 81,
      "hit": false,
      "t": 46256.250000000044,
      "d": 110.41666666666424,
      "v": 68
    },
    {
      "midi": 60,
      "hit": false,
      "t": 46260.41666666671,
      "d": 139.58333333332848,
      "v": 46
    },
    {
      "midi": 72,
      "hit": false,
      "t": 46262.500000000044,
      "d": 85.41666666666424,
      "v": 51
    },
    {
      "midi": 57,
      "hit": false,
      "t": 46268.750000000044,
      "d": 68.75,
      "v": 16
    },
    {
      "midi": 86,
      "hit": false,
      "t": 46656.25000000004,
      "d": 125,
      "v": 94
    },
    {
      "midi": 83,
      "hit": false,
      "t": 46658.33333333337,
      "d": 125,
      "v": 74
    },
    {
      "midi": 45,
      "hit": false,
      "t": 46658.33333333337,
      "d": 429.16666666666424,
      "v": 79
    },
    {
      "midi": 74,
      "hit": false,
      "t": 46677.08333333337,
      "d": 60.41666666666424,
      "v": 63
    },
    {
      "midi": 84,
      "hit": false,
      "t": 47043.75000000004,
      "d": 95.83333333333576,
      "v": 87
    },
    {
      "midi": 88,
      "hit": false,
      "t": 47043.75000000004,
      "d": 118.75000000000728,
      "v": 94
    },
    {
      "midi": 76,
      "hit": false,
      "t": 47047.9166666667,
      "d": 66.66666666667152,
      "v": 81
    },
    {
      "midi": 52,
      "hit": false,
      "t": 47047.9166666667,
      "d": 106.25000000000728,
      "v": 76
    },
    {
      "midi": 57,
      "hit": false,
      "t": 47510.41666666671,
      "d": 250.00000000000728,
      "v": 29
    },
    {
      "midi": 62,
      "hit": false,
      "t": 47516.66666666671,
      "d": 287.5000000000073,
      "v": 55
    },
    {
      "midi": 91,
      "hit": false,
      "t": 47537.500000000044,
      "d": 445.83333333333576,
      "v": 91
    },
    {
      "midi": 88,
      "hit": false,
      "t": 47537.500000000044,
      "d": 768.75,
      "v": 75
    },
    {
      "midi": 79,
      "hit": false,
      "t": 47539.58333333338,
      "d": 533.3333333333285,
      "v": 79
    },
    {
      "midi": 45,
      "hit": false,
      "t": 48018.750000000044,
      "d": 320.83333333333576,
      "v": 59
    },
    {
      "midi": 89,
      "hit": false,
      "t": 48395.83333333338,
      "d": 418.7499999999927,
      "v": 86
    },
    {
      "midi": 53,
      "hit": false,
      "t": 48404.166666666715,
      "d": 66.66666666666424,
      "v": 50
    },
    {
      "midi": 86,
      "hit": false,
      "t": 48404.166666666715,
      "d": 399.9999999999927,
      "v": 73
    },
    {
      "midi": 77,
      "hit": false,
      "t": 48408.33333333338,
      "d": 464.5833333333285,
      "v": 57
    },
    {
      "midi": 62,
      "hit": false,
      "t": 48793.750000000044,
      "d": 95.83333333332848,
      "v": 66
    },
    {
      "midi": 57,
      "hit": false,
      "t": 48797.91666666671,
      "d": 62.5,
      "v": 43
    },
    {
      "midi": 88,
      "hit": false,
      "t": 49200.00000000004,
      "d": 131.25000000000728,
      "v": 85
    },
    {
      "midi": 45,
      "hit": false,
      "t": 49200.00000000004,
      "d": 366.6666666666715,
      "v": 57
    },
    {
      "midi": 76,
      "hit": false,
      "t": 49208.33333333337,
      "d": 122.91666666667152,
      "v": 71
    },
    {
      "midi": 84,
      "hit": false,
      "t": 49216.66666666671,
      "d": 112.5,
      "v": 80
    },
    {
      "midi": 86,
      "hit": false,
      "t": 49585.41666666671,
      "d": 125.00000000000728,
      "v": 90
    },
    {
      "midi": 74,
      "hit": false,
      "t": 49591.66666666671,
      "d": 77.08333333333576,
      "v": 78
    },
    {
      "midi": 53,
      "hit": false,
      "t": 49591.66666666671,
      "d": 85.41666666667152,
      "v": 70
    },
    {
      "midi": 83,
      "hit": false,
      "t": 49597.91666666671,
      "d": 135.41666666667152,
      "v": 81
    },
    {
      "midi": 57,
      "hit": false,
      "t": 49989.58333333338,
      "d": 164.58333333334303,
      "v": 48
    },
    {
      "midi": 60,
      "hit": false,
      "t": 49997.916666666715,
      "d": 247.91666666667152,
      "v": 57
    },
    {
      "midi": 88,
      "hit": false,
      "t": 50000.00000000005,
      "d": 262.5,
      "v": 90
    },
    {
      "midi": 84,
      "hit": false,
      "t": 50000.00000000005,
      "d": 304.16666666666424,
      "v": 77
    },
    {
      "midi": 76,
      "hit": false,
      "t": 50012.50000000005,
      "d": 331.25,
      "v": 74
    },
    {
      "midi": 45,
      "hit": false,
      "t": 50450.00000000005,
      "d": 458.3333333333285,
      "v": 66
    },
    {
      "midi": 84,
      "hit": false,
      "t": 50868.75000000005,
      "d": 77.08333333332848,
      "v": 79
    },
    {
      "midi": 81,
      "hit": false,
      "t": 50877.08333333339,
      "d": 52.08333333332848,
      "v": 74
    },
    {
      "midi": 52,
      "hit": false,
      "t": 50887.50000000005,
      "d": 72.91666666666424,
      "v": 60
    },
    {
      "midi": 72,
      "hit": false,
      "t": 50897.916666666715,
      "d": 68.75,
      "v": 40
    },
    {
      "midi": 69,
      "hit": false,
      "t": 51147.916666666715,
      "d": 85.41666666666424,
      "v": 41
    },
    {
      "midi": 75,
      "hit": false,
      "t": 51237.500000000044,
      "d": 85.41666666666424,
      "v": 91
    },
    {
      "midi": 78,
      "hit": false,
      "t": 51291.66666666671,
      "d": 91.66666666666424,
      "v": 76
    },
    {
      "midi": 83,
      "hit": false,
      "t": 51358.33333333337,
      "d": 168.75,
      "v": 80
    },
    {
      "midi": 60,
      "hit": false,
      "t": 51441.66666666671,
      "d": 162.49999999999272,
      "v": 44
    },
    {
      "midi": 57,
      "hit": false,
      "t": 51450.000000000044,
      "d": 137.49999999999272,
      "v": 43
    },
    {
      "midi": 81,
      "hit": false,
      "t": 51472.91666666671,
      "d": 118.74999999999272,
      "v": 96
    },
    {
      "midi": 45,
      "hit": false,
      "t": 51962.50000000004,
      "d": 474.9999999999927,
      "v": 55
    },
    {
      "midi": 80,
      "hit": false,
      "t": 51970.83333333337,
      "d": 110.41666666666424,
      "v": 107
    },
    {
      "midi": 68,
      "hit": false,
      "t": 51983.33333333337,
      "d": 37.5,
      "v": 84
    },
    {
      "midi": 81,
      "hit": false,
      "t": 52393.75000000004,
      "d": 112.49999999999272,
      "v": 107
    },
    {
      "midi": 69,
      "hit": false,
      "t": 52397.9166666667,
      "d": 70.83333333332848,
      "v": 98
    },
    {
      "midi": 52,
      "hit": false,
      "t": 52402.083333333365,
      "d": 91.66666666666424,
      "v": 86
    },
    {
      "midi": 56,
      "hit": false,
      "t": 52785.41666666669,
      "d": 133.33333333332848,
      "v": 76
    },
    {
      "midi": 83,
      "hit": false,
      "t": 52802.08333333336,
      "d": 620.8333333333212,
      "v": 99
    },
    {
      "midi": 59,
      "hit": false,
      "t": 52806.25000000002,
      "d": 172.91666666666424,
      "v": 68
    },
    {
      "midi": 71,
      "hit": false,
      "t": 52810.416666666686,
      "d": 489.5833333333285,
      "v": 90
    },
    {
      "midi": 80,
      "hit": false,
      "t": 52810.416666666686,
      "d": 654.166666666657,
      "v": 87
    },
    {
      "midi": 40,
      "hit": false,
      "t": 53233.33333333335,
      "d": 372.91666666665697,
      "v": 96
    },
    {
      "midi": 52,
      "hit": false,
      "t": 53600.00000000001,
      "d": 106.25,
      "v": 98
    },
    {
      "midi": 62,
      "hit": false,
      "t": 54039.58333333334,
      "d": 75,
      "v": 88
    },
    {
      "midi": 88,
      "hit": false,
      "t": 54047.91666666668,
      "d": 327.0833333333285,
      "v": 108
    },
    {
      "midi": 59,
      "hit": false,
      "t": 54052.08333333334,
      "d": 50,
      "v": 78
    },
    {
      "midi": 80,
      "hit": false,
      "t": 54054.16666666668,
      "d": 322.91666666666424,
      "v": 98
    },
    {
      "midi": 76,
      "hit": false,
      "t": 54060.41666666668,
      "d": 145.83333333332848,
      "v": 84
    },
    {
      "midi": 40,
      "hit": false,
      "t": 54529.16666666668,
      "d": 450,
      "v": 99
    },
    {
      "midi": 84,
      "hit": false,
      "t": 54997.91666666668,
      "d": 81.25,
      "v": 99
    },
    {
      "midi": 72,
      "hit": false,
      "t": 55006.250000000015,
      "d": 87.5,
      "v": 76
    },
    {
      "midi": 52,
      "hit": false,
      "t": 55010.41666666668,
      "d": 108.33333333333576,
      "v": 65
    },
    {
      "midi": 81,
      "hit": false,
      "t": 55518.750000000015,
      "d": 510.41666666666424,
      "v": 86
    },
    {
      "midi": 76,
      "hit": false,
      "t": 55529.16666666668,
      "d": 510.41666666666424,
      "v": 71
    },
    {
      "midi": 69,
      "hit": false,
      "t": 55531.250000000015,
      "d": 458.3333333333285,
      "v": 59
    },
    {
      "midi": 60,
      "hit": false,
      "t": 55535.41666666668,
      "d": 281.25,
      "v": 51
    },
    {
      "midi": 57,
      "hit": false,
      "t": 55537.500000000015,
      "d": 200,
      "v": 52
    },
    {
      "midi": 45,
      "hit": false,
      "t": 56043.75000000001,
      "d": 389.58333333333576,
      "v": 82
    },
    {
      "midi": 52,
      "hit": false,
      "t": 56429.16666666667,
      "d": 58.33333333333576,
      "v": 60
    },
    {
      "midi": 83,
      "hit": false,
      "t": 56431.25000000001,
      "d": 106.25,
      "v": 92
    },
    {
      "midi": 71,
      "hit": false,
      "t": 56435.41666666668,
      "d": 58.33333333332848,
      "v": 89
    },
    {
      "midi": 80,
      "hit": false,
      "t": 56439.58333333334,
      "d": 87.5,
      "v": 88
    },
    {
      "midi": 84,
      "hit": false,
      "t": 56795.83333333334,
      "d": 110.41666666667152,
      "v": 101
    },
    {
      "midi": 72,
      "hit": false,
      "t": 56804.16666666668,
      "d": 68.75000000000728,
      "v": 96
    },
    {
      "midi": 81,
      "hit": false,
      "t": 56804.16666666668,
      "d": 85.41666666667152,
      "v": 91
    },
    {
      "midi": 60,
      "hit": false,
      "t": 56812.500000000015,
      "d": 93.75,
      "v": 84
    },
    {
      "midi": 57,
      "hit": false,
      "t": 56814.58333333335,
      "d": 64.58333333333576,
      "v": 74
    },
    {
      "midi": 83,
      "hit": false,
      "t": 57187.500000000015,
      "d": 87.5,
      "v": 90
    },
    {
      "midi": 86,
      "hit": false,
      "t": 57191.66666666668,
      "d": 87.5,
      "v": 97
    },
    {
      "midi": 74,
      "hit": false,
      "t": 57195.83333333334,
      "d": 52.08333333333576,
      "v": 88
    },
    {
      "midi": 45,
      "hit": false,
      "t": 57195.83333333334,
      "d": 460.4166666666715,
      "v": 93
    },
    {
      "midi": 84,
      "hit": false,
      "t": 57602.08333333334,
      "d": 77.08333333333576,
      "v": 97
    },
    {
      "midi": 88,
      "hit": false,
      "t": 57604.16666666668,
      "d": 100,
      "v": 92
    },
    {
      "midi": 76,
      "hit": false,
      "t": 57606.250000000015,
      "d": 54.16666666666424,
      "v": 90
    },
    {
      "midi": 52,
      "hit": false,
      "t": 57616.66666666668,
      "d": 87.5,
      "v": 96
    },
    {
      "midi": 59,
      "hit": false,
      "t": 58104.16666666668,
      "d": 339.5833333333285,
      "v": 72
    },
    {
      "midi": 62,
      "hit": false,
      "t": 58120.83333333334,
      "d": 422.91666666666424,
      "v": 76
    },
    {
      "midi": 91,
      "hit": false,
      "t": 58147.91666666668,
      "d": 393.7499999999927,
      "v": 99
    },
    {
      "midi": 79,
      "hit": false,
      "t": 58152.08333333334,
      "d": 445.8333333333285,
      "v": 86
    },
    {
      "midi": 86,
      "hit": false,
      "t": 58156.25000000001,
      "d": 1652.0833333333285,
      "v": 90
    },
    {
      "midi": 77,
      "hit": false,
      "t": 58718.75000000001,
      "d": 508.33333333333576,
      "v": 96
    },
    {
      "midi": 47,
      "hit": false,
      "t": 58739.58333333334,
      "d": 543.75,
      "v": 32
    },
    {
      "midi": 55,
      "hit": false,
      "t": 59210.41666666668,
      "d": 175,
      "v": 83
    },
    {
      "midi": 76,
      "hit": false,
      "t": 59389.58333333334,
      "d": 150,
      "v": 106
    },
    {
      "midi": 76,
      "hit": false,
      "t": 59616.66666666668,
      "d": 664.5833333333285,
      "v": 99
    },
    {
      "midi": 64,
      "hit": false,
      "t": 59627.08333333334,
      "d": 220.83333333332848,
      "v": 72
    },
    {
      "midi": 60,
      "hit": false,
      "t": 59629.16666666668,
      "d": 156.24999999999272,
      "v": 58
    },
    {
      "midi": 48,
      "hit": false,
      "t": 60162.50000000001,
      "d": 502.08333333333576,
      "v": 65
    },
    {
      "midi": 89,
      "hit": false,
      "t": 60179.16666666667,
      "d": 339.58333333333576,
      "v": 87
    },
    {
      "midi": 86,
      "hit": false,
      "t": 60197.91666666667,
      "d": 295.83333333333576,
      "v": 65
    },
    {
      "midi": 55,
      "hit": false,
      "t": 60631.25000000001,
      "d": 91.66666666667152,
      "v": 84
    },
    {
      "midi": 88,
      "hit": false,
      "t": 60783.33333333334,
      "d": 147.91666666666424,
      "v": 103
    },
    {
      "midi": 84,
      "hit": false,
      "t": 60789.58333333334,
      "d": 137.5,
      "v": 97
    },
    {
      "midi": 76,
      "hit": false,
      "t": 60810.41666666668,
      "d": 143.74999999999272,
      "v": 5
    },
    {
      "midi": 88,
      "hit": false,
      "t": 60997.91666666667,
      "d": 127.08333333334303,
      "v": 102
    },
    {
      "midi": 84,
      "hit": false,
      "t": 61006.25000000001,
      "d": 106.25000000000728,
      "v": 86
    },
    {
      "midi": 65,
      "hit": false,
      "t": 61014.58333333334,
      "d": 108.33333333333576,
      "v": 71
    },
    {
      "midi": 62,
      "hit": false,
      "t": 61016.66666666668,
      "d": 68.75,
      "v": 76
    },
    {
      "midi": 76,
      "hit": false,
      "t": 61022.91666666668,
      "d": 131.25,
      "v": 22
    },
    {
      "midi": 86,
      "hit": false,
      "t": 61412.500000000015,
      "d": 291.66666666666424,
      "v": 102
    },
    {
      "midi": 74,
      "hit": false,
      "t": 61416.66666666668,
      "d": 372.9166666666715,
      "v": 92
    },
    {
      "midi": 50,
      "hit": false,
      "t": 61418.750000000015,
      "d": 506.25,
      "v": 71
    },
    {
      "midi": 83,
      "hit": false,
      "t": 61420.83333333335,
      "d": 291.66666666666424,
      "v": 85
    },
    {
      "midi": 57,
      "hit": false,
      "t": 61895.83333333335,
      "d": 118.75,
      "v": 81
    },
    {
      "midi": 84,
      "hit": false,
      "t": 62102.08333333335,
      "d": 172.91666666667152,
      "v": 91
    },
    {
      "midi": 72,
      "hit": false,
      "t": 62108.33333333335,
      "d": 164.58333333333576,
      "v": 80
    },
    {
      "midi": 81,
      "hit": false,
      "t": 62110.416666666686,
      "d": 179.16666666667152,
      "v": 83
    },
    {
      "midi": 84,
      "hit": false,
      "t": 62366.66666666669,
      "d": 208.33333333334303,
      "v": 81
    },
    {
      "midi": 81,
      "hit": false,
      "t": 62372.91666666669,
      "d": 220.83333333334303,
      "v": 68
    },
    {
      "midi": 72,
      "hit": false,
      "t": 62381.25000000003,
      "d": 231.25000000000728,
      "v": 63
    },
    {
      "midi": 64,
      "hit": false,
      "t": 62383.333333333365,
      "d": 395.83333333333576,
      "v": 54
    },
    {
      "midi": 52,
      "hit": false,
      "t": 62875.00000000004,
      "d": 635.4166666666642,
      "v": 47
    },
    {
      "midi": 80,
      "hit": false,
      "t": 62885.4166666667,
      "d": 502.08333333333576,
      "v": 72
    },
    {
      "midi": 83,
      "hit": false,
      "t": 62893.75000000004,
      "d": 441.66666666666424,
      "v": 64
    },
    {
      "midi": 71,
      "hit": false,
      "t": 62904.1666666667,
      "d": 510.4166666666715,
      "v": 51
    },
    {
      "midi": 62,
      "hit": false,
      "t": 63487.50000000004,
      "d": 150,
      "v": 52
    },
    {
      "midi": 81,
      "hit": false,
      "t": 63735.4166666667,
      "d": 150,
      "v": 66
    },
    {
      "midi": 69,
      "hit": false,
      "t": 63754.1666666667,
      "d": 116.66666666666424,
      "v": 34
    },
    {
      "midi": 81,
      "hit": false,
      "t": 64077.083333333365,
      "d": 939.5833333333358,
      "v": 71
    },
    {
      "midi": 69,
      "hit": false,
      "t": 64095.833333333365,
      "d": 731.25,
      "v": 36
    },
    {
      "midi": 57,
      "hit": false,
      "t": 64116.6666666667,
      "d": 235.41666666666424,
      "v": 35
    },
    {
      "midi": 60,
      "hit": false,
      "t": 64120.833333333365,
      "d": 304.16666666666424,
      "v": 33
    },
    {
      "midi": 45,
      "hit": false,
      "t": 64752.083333333365,
      "d": 633.3333333333358,
      "v": 30
    },
    {
      "midi": 52,
      "hit": false,
      "t": 65245.833333333365,
      "d": 295.83333333333576,
      "v": 43
    },
    {
      "midi": 63,
      "hit": false,
      "t": 65800.00000000003,
      "d": 210.41666666665697,
      "v": 51
    },
    {
      "midi": 66,
      "hit": false,
      "t": 65800.00000000003,
      "d": 429.16666666665697,
      "v": 72
    },
    {
      "midi": 57,
      "hit": false,
      "t": 65808.33333333336,
      "d": 127.08333333332848,
      "v": 33
    },
    {
      "midi": 60,
      "hit": false,
      "t": 65814.58333333336,
      "d": 127.08333333332848,
      "v": 44
    },
    {
      "midi": 68,
      "hit": false,
      "t": 66289.58333333336,
      "d": 302.0833333333285,
      "v": 92
    },
    {
      "midi": 45,
      "hit": false,
      "t": 66304.16666666669,
      "d": 291.6666666666715,
      "v": 54
    },
    {
      "midi": 64,
      "hit": false,
      "t": 66322.91666666669,
      "d": 118.75,
      "v": 54
    },
    {
      "midi": 69,
      "hit": false,
      "t": 66645.83333333336,
      "d": 93.75,
      "v": 98
    },
    {
      "midi": 52,
      "hit": false,
      "t": 66660.41666666669,
      "d": 66.66666666667152,
      "v": 61
    },
    {
      "midi": 66,
      "hit": false,
      "t": 66664.58333333336,
      "d": 37.5,
      "v": 90
    },
    {
      "midi": 71,
      "hit": false,
      "t": 67029.16666666669,
      "d": 541.666666666657,
      "v": 87
    },
    {
      "midi": 56,
      "hit": false,
      "t": 67041.66666666669,
      "d": 127.08333333332848,
      "v": 67
    },
    {
      "midi": 68,
      "hit": false,
      "t": 67054.16666666669,
      "d": 572.916666666657,
      "v": 65
    },
    {
      "midi": 59,
      "hit": false,
      "t": 67056.25000000001,
      "d": 145.83333333332848,
      "v": 55
    },
    {
      "midi": 40,
      "hit": false,
      "t": 67495.83333333334,
      "d": 381.25,
      "v": 36
    },
    {
      "midi": 76,
      "hit": false,
      "t": 67500.00000000001,
      "d": 391.66666666665697,
      "v": 81
    },
    {
      "midi": 71,
      "hit": false,
      "t": 67889.58333333334,
      "d": 60.41666666667152,
      "v": 87
    },
    {
      "midi": 68,
      "hit": false,
      "t": 67902.08333333334,
      "d": 87.5,
      "v": 73
    },
    {
      "midi": 52,
      "hit": false,
      "t": 67906.25000000001,
      "d": 75,
      "v": 55
    },
    {
      "midi": 71,
      "hit": false,
      "t": 68229.16666666667,
      "d": 149.99999999998545,
      "v": 65
    },
    {
      "midi": 68,
      "hit": false,
      "t": 68237.5,
      "d": 118.74999999998545,
      "v": 70
    },
    {
      "midi": 57,
      "hit": false,
      "t": 68320.83333333333,
      "d": 204.16666666665697,
      "v": 38
    },
    {
      "midi": 60,
      "hit": false,
      "t": 68329.16666666666,
      "d": 212.5,
      "v": 54
    },
    {
      "midi": 69,
      "hit": false,
      "t": 68335.41666666666,
      "d": 562.5000000000146,
      "v": 76
    },
    {
      "midi": 66,
      "hit": false,
      "t": 68354.16666666666,
      "d": 462.5,
      "v": 70
    },
    {
      "midi": 68,
      "hit": false,
      "t": 68820.83333333333,
      "d": 162.50000000001455,
      "v": 87
    },
    {
      "midi": 40,
      "hit": false,
      "t": 68839.58333333333,
      "d": 333.33333333334303,
      "v": 51
    },
    {
      "midi": 64,
      "hit": false,
      "t": 68843.75,
      "d": 375.00000000001455,
      "v": 59
    },
    {
      "midi": 66,
      "hit": false,
      "t": 69187.5,
      "d": 102.08333333335759,
      "v": 105
    },
    {
      "midi": 52,
      "hit": false,
      "t": 69197.91666666667,
      "d": 62.50000000001455,
      "v": 69
    },
    {
      "midi": 63,
      "hit": false,
      "t": 69202.08333333334,
      "d": 58.333333333343035,
      "v": 91
    },
    {
      "midi": 71,
      "hit": false,
      "t": 69587.50000000003,
      "d": 824.9999999999854,
      "v": 84
    },
    {
      "midi": 68,
      "hit": false,
      "t": 69595.83333333336,
      "d": 520.8333333333139,
      "v": 80
    },
    {
      "midi": 56,
      "hit": false,
      "t": 69604.16666666669,
      "d": 129.16666666665697,
      "v": 61
    },
    {
      "midi": 59,
      "hit": false,
      "t": 69618.75000000001,
      "d": 172.91666666665697,
      "v": 34
    },
    {
      "midi": 40,
      "hit": false,
      "t": 70004.16666666667,
      "d": 345.8333333333285,
      "v": 74
    },
    {
      "midi": 68,
      "hit": false,
      "t": 70379.16666666667,
      "d": 154.16666666668607,
      "v": 86
    },
    {
      "midi": 52,
      "hit": false,
      "t": 70395.83333333334,
      "d": 95.83333333334303,
      "v": 49
    },
    {
      "midi": 64,
      "hit": false,
      "t": 70406.25000000001,
      "d": 104.16666666667152,
      "v": 44
    },
    {
      "midi": 66,
      "hit": false,
      "t": 70814.58333333336,
      "d": 479.16666666665697,
      "v": 74
    },
    {
      "midi": 63,
      "hit": false,
      "t": 70818.75000000003,
      "d": 368.74999999998545,
      "v": 60
    },
    {
      "midi": 60,
      "hit": false,
      "t": 70827.08333333336,
      "d": 235.41666666665697,
      "v": 55
    },
    {
      "midi": 57,
      "hit": false,
      "t": 70839.58333333336,
      "d": 185.41666666665697,
      "v": 34
    },
    {
      "midi": 68,
      "hit": false,
      "t": 71297.91666666669,
      "d": 456.25,
      "v": 76
    },
    {
      "midi": 45,
      "hit": false,
      "t": 71318.75000000001,
      "d": 475,
      "v": 57
    },
    {
      "midi": 64,
      "hit": false,
      "t": 71329.16666666669,
      "d": 402.0833333333285,
      "v": 53
    },
    {
      "midi": 66,
      "hit": false,
      "t": 71714.58333333336,
      "d": 304.16666666665697,
      "v": 80
    },
    {
      "midi": 69,
      "hit": false,
      "t": 71714.58333333336,
      "d": 349.99999999998545,
      "v": 87
    },
    {
      "midi": 52,
      "hit": false,
      "t": 71722.91666666669,
      "d": 154.16666666665697,
      "v": 70
    },
    {
      "midi": 71,
      "hit": false,
      "t": 72070.83333333334,
      "d": 120.83333333332848,
      "v": 90
    },
    {
      "midi": 68,
      "hit": false,
      "t": 72085.41666666667,
      "d": 104.16666666667152,
      "v": 80
    },
    {
      "midi": 56,
      "hit": false,
      "t": 72097.91666666667,
      "d": 118.75,
      "v": 59
    },
    {
      "midi": 59,
      "hit": false,
      "t": 72102.08333333334,
      "d": 152.08333333332848,
      "v": 59
    },
    {
      "midi": 76,
      "hit": false,
      "t": 72472.91666666667,
      "d": 93.75,
      "v": 91
    },
    {
      "midi": 40,
      "hit": false,
      "t": 72495.83333333334,
      "d": 372.91666666665697,
      "v": 71
    },
    {
      "midi": 71,
      "hit": false,
      "t": 72895.83333333333,
      "d": 68.75,
      "v": 84
    },
    {
      "midi": 68,
      "hit": false,
      "t": 72908.33333333333,
      "d": 43.75,
      "v": 73
    },
    {
      "midi": 52,
      "hit": false,
      "t": 72918.75,
      "d": 72.91666666665697,
      "v": 47
    },
    {
      "midi": 71,
      "hit": false,
      "t": 73279.16666666666,
      "d": 108.33333333331393,
      "v": 77
    },
    {
      "midi": 68,
      "hit": false,
      "t": 73299.99999999999,
      "d": 64.58333333332848,
      "v": 56
    },
    {
      "midi": 60,
      "hit": false,
      "t": 73352.08333333331,
      "d": 200,
      "v": 43
    },
    {
      "midi": 57,
      "hit": false,
      "t": 73360.41666666664,
      "d": 166.66666666667152,
      "v": 41
    },
    {
      "midi": 69,
      "hit": false,
      "t": 73377.08333333331,
      "d": 566.666666666657,
      "v": 77
    },
    {
      "midi": 66,
      "hit": false,
      "t": 73391.66666666664,
      "d": 468.75,
      "v": 61
    },
    {
      "midi": 68,
      "hit": false,
      "t": 73866.66666666664,
      "d": 385.4166666666715,
      "v": 84
    },
    {
      "midi": 40,
      "hit": false,
      "t": 73874.99999999997,
      "d": 341.6666666666715,
      "v": 60
    },
    {
      "midi": 64,
      "hit": false,
      "t": 73887.49999999997,
      "d": 112.5,
      "v": 47
    },
    {
      "midi": 66,
      "hit": false,
      "t": 74239.58333333331,
      "d": 143.75000000001455,
      "v": 103
    },
    {
      "midi": 52,
      "hit": false,
      "t": 74256.24999999999,
      "d": 56.25,
      "v": 58
    },
    {
      "midi": 63,
      "hit": false,
      "t": 74266.66666666666,
      "d": 93.75,
      "v": 72
    },
    {
      "midi": 71,
      "hit": false,
      "t": 74650,
      "d": 1754.166666666657,
      "v": 81
    },
    {
      "midi": 56,
      "hit": false,
      "t": 74652.08333333333,
      "d": 100,
      "v": 67
    },
    {
      "midi": 59,
      "hit": false,
      "t": 74652.08333333333,
      "d": 143.75,
      "v": 60
    },
    {
      "midi": 68,
      "hit": false,
      "t": 74658.33333333333,
      "d": 1839.5833333333285,
      "v": 83
    },
    {
      "midi": 40,
      "hit": false,
      "t": 75141.66666666666,
      "d": 329.1666666666715,
      "v": 56
    },
    {
      "midi": 52,
      "hit": false,
      "t": 75491.66666666666,
      "d": 70.83333333332848,
      "v": 76
    },
    {
      "midi": 59,
      "hit": false,
      "t": 75843.74999999999,
      "d": 83.33333333334303,
      "v": 76
    },
    {
      "midi": 56,
      "hit": false,
      "t": 75847.91666666666,
      "d": 56.25,
      "v": 76
    },
    {
      "midi": 40,
      "hit": false,
      "t": 76229.16666666666,
      "d": 393.75,
      "v": 89
    },
    {
      "midi": 52,
      "hit": false,
      "t": 76622.91666666666,
      "d": 91.66666666667152,
      "v": 83
    },
    {
      "midi": 57,
      "hit": false,
      "t": 77152.08333333333,
      "d": 222.91666666665697,
      "v": 47
    },
    {
      "midi": 73,
      "hit": false,
      "t": 77154.16666666666,
      "d": 908.3333333333285,
      "v": 80
    },
    {
      "midi": 61,
      "hit": false,
      "t": 77162.49999999999,
      "d": 222.91666666667152,
      "v": 52
    },
    {
      "midi": 67,
      "hit": false,
      "t": 77172.91666666666,
      "d": 672.916666666657,
      "v": 50
    },
    {
      "midi": 45,
      "hit": false,
      "t": 77687.49999999999,
      "d": 125,
      "v": 56
    },
    {
      "midi": 52,
      "hit": false,
      "t": 78122.91666666666,
      "d": 81.25,
      "v": 77
    },
    {
      "midi": 74,
      "hit": false,
      "t": 78599.99999999999,
      "d": 735.4166666666715,
      "v": 91
    },
    {
      "midi": 62,
      "hit": false,
      "t": 78610.41666666666,
      "d": 364.58333333334303,
      "v": 57
    },
    {
      "midi": 66,
      "hit": false,
      "t": 78610.41666666666,
      "d": 641.6666666666715,
      "v": 81
    },
    {
      "midi": 57,
      "hit": false,
      "t": 78614.58333333333,
      "d": 318.75,
      "v": 44
    },
    {
      "midi": 50,
      "hit": false,
      "t": 79045.83333333333,
      "d": 139.58333333332848,
      "v": 83
    },
    {
      "midi": 54,
      "hit": false,
      "t": 79408.33333333333,
      "d": 91.66666666667152,
      "v": 93
    },
    {
      "midi": 59,
      "hit": false,
      "t": 79820.83333333333,
      "d": 164.58333333332848,
      "v": 66
    },
    {
      "midi": 63,
      "hit": false,
      "t": 79825,
      "d": 139.58333333332848,
      "v": 80
    },
    {
      "midi": 75,
      "hit": false,
      "t": 79831.25,
      "d": 829.1666666666424,
      "v": 110
    },
    {
      "midi": 69,
      "hit": false,
      "t": 79841.66666666667,
      "d": 793.7499999999709,
      "v": 81
    },
    {
      "midi": 47,
      "hit": false,
      "t": 80272.91666666666,
      "d": 360.41666666665697,
      "v": 87
    },
    {
      "midi": 54,
      "hit": false,
      "t": 80606.24999999999,
      "d": 89.58333333332848,
      "v": 104
    },
    {
      "midi": 76,
      "hit": false,
      "t": 80966.66666666664,
      "d": 741.6666666666424,
      "v": 114
    },
    {
      "midi": 72,
      "hit": false,
      "t": 80974.99999999997,
      "d": 691.6666666666424,
      "v": 104
    },
    {
      "midi": 69,
      "hit": false,
      "t": 80983.3333333333,
      "d": 674.9999999999854,
      "v": 92
    },
    {
      "midi": 60,
      "hit": false,
      "t": 80985.41666666663,
      "d": 89.58333333332848,
      "v": 86
    },
    {
      "midi": 64,
      "hit": false,
      "t": 80991.66666666663,
      "d": 129.16666666665697,
      "v": 84
    },
    {
      "midi": 48,
      "hit": false,
      "t": 81354.16666666661,
      "d": 397.9166666666715,
      "v": 101
    },
    {
      "midi": 57,
      "hit": false,
      "t": 81712.49999999996,
      "d": 95.83333333332848,
      "v": 109
    },
    {
      "midi": 79,
      "hit": false,
      "t": 82122.91666666661,
      "d": 910.4166666666715,
      "v": 104
    },
    {
      "midi": 76,
      "hit": false,
      "t": 82133.33333333328,
      "d": 954.1666666666715,
      "v": 102
    },
    {
      "midi": 61,
      "hit": false,
      "t": 82139.58333333328,
      "d": 147.91666666667152,
      "v": 105
    },
    {
      "midi": 64,
      "hit": false,
      "t": 82139.58333333328,
      "d": 154.16666666667152,
      "v": 99
    },
    {
      "midi": 70,
      "hit": false,
      "t": 82141.66666666661,
      "d": 935.4166666666715,
      "v": 112
    },
    {
      "midi": 49,
      "hit": false,
      "t": 82558.33333333328,
      "d": 450,
      "v": 107
    },
    {
      "midi": 58,
      "hit": false,
      "t": 82954.16666666661,
      "d": 110.41666666667152,
      "v": 119
    },
    {
      "midi": 77,
      "hit": false,
      "t": 83362.49999999996,
      "d": 966.6666666666424,
      "v": 112
    },
    {
      "midi": 74,
      "hit": false,
      "t": 83366.66666666663,
      "d": 927.0833333333139,
      "v": 108
    },
    {
      "midi": 70,
      "hit": false,
      "t": 83368.74999999996,
      "d": 933.3333333333139,
      "v": 110
    },
    {
      "midi": 65,
      "hit": false,
      "t": 83374.99999999996,
      "d": 127.08333333331393,
      "v": 103
    },
    {
      "midi": 62,
      "hit": false,
      "t": 83377.08333333328,
      "d": 104.16666666665697,
      "v": 102
    },
    {
      "midi": 50,
      "hit": false,
      "t": 83799.99999999994,
      "d": 562.4999999999854,
      "v": 112
    },
    {
      "midi": 58,
      "hit": false,
      "t": 84308.33333333327,
      "d": 106.24999999998545,
      "v": 118
    },
    {
      "midi": 81,
      "hit": false,
      "t": 84993.74999999993,
      "d": 710.416666666657,
      "v": 117
    },
    {
      "midi": 78,
      "hit": false,
      "t": 84997.9166666666,
      "d": 741.666666666657,
      "v": 107
    },
    {
      "midi": 69,
      "hit": false,
      "t": 85002.08333333327,
      "d": 677.0833333333139,
      "v": 112
    },
    {
      "midi": 75,
      "hit": false,
      "t": 85002.08333333327,
      "d": 731.2499999999854,
      "v": 114
    },
    {
      "midi": 66,
      "hit": false,
      "t": 85004.1666666666,
      "d": 399.99999999998545,
      "v": 109
    },
    {
      "midi": 72,
      "hit": false,
      "t": 85004.1666666666,
      "d": 666.666666666657,
      "v": 112
    },
    {
      "midi": 63,
      "hit": false,
      "t": 85006.24999999993,
      "d": 306.24999999998545,
      "v": 110
    },
    {
      "midi": 51,
      "hit": false,
      "t": 85714.58333333326,
      "d": 537.5,
      "v": 116
    },
    {
      "midi": 60,
      "hit": false,
      "t": 86237.49999999993,
      "d": 197.91666666665697,
      "v": 104
    },
    {
      "midi": 63,
      "hit": false,
      "t": 86733.33333333326,
      "d": 102.08333333332848,
      "v": 104
    },
    {
      "midi": 66,
      "hit": false,
      "t": 86735.41666666658,
      "d": 131.25,
      "v": 104
    },
    {
      "midi": 51,
      "hit": false,
      "t": 87166.66666666658,
      "d": 275,
      "v": 106
    },
    {
      "midi": 60,
      "hit": false,
      "t": 87554.16666666658,
      "d": 106.25,
      "v": 93
    },
    {
      "midi": 45,
      "hit": false,
      "t": 88072.91666666658,
      "d": 56.25,
      "v": 120
    },
    {
      "midi": 63,
      "hit": false,
      "t": 88085.41666666658,
      "d": 108.33333333332848,
      "v": 87
    },
    {
      "midi": 66,
      "hit": false,
      "t": 88089.58333333326,
      "d": 120.83333333332848,
      "v": 86
    },
    {
      "midi": 51,
      "hit": false,
      "t": 88524.99999999991,
      "d": 120.83333333332848,
      "v": 93
    },
    {
      "midi": 60,
      "hit": false,
      "t": 88981.24999999991,
      "d": 102.08333333332848,
      "v": 98
    },
    {
      "midi": 39,
      "hit": false,
      "t": 89520.83333333324,
      "d": 122.91666666665697,
      "v": 127
    },
    {
      "midi": 66,
      "hit": false,
      "t": 89533.33333333324,
      "d": 108.33333333332848,
      "v": 93
    },
    {
      "midi": 63,
      "hit": false,
      "t": 89535.41666666657,
      "d": 102.08333333332848,
      "v": 94
    },
    {
      "midi": 51,
      "hit": false,
      "t": 90035.41666666657,
      "d": 402.0833333333285,
      "v": 88
    },
    {
      "midi": 60,
      "hit": false,
      "t": 90449.9999999999,
      "d": 102.08333333332848,
      "v": 58
    },
    {
      "midi": 63,
      "hit": false,
      "t": 90954.16666666656,
      "d": 108.33333333332848,
      "v": 67
    },
    {
      "midi": 66,
      "hit": false,
      "t": 90972.91666666656,
      "d": 135.41666666665697,
      "v": 63
    },
    {
      "midi": 51,
      "hit": false,
      "t": 91466.66666666654,
      "d": 193.75,
      "v": 57
    },
    {
      "midi": 60,
      "hit": false,
      "t": 92058.33333333321,
      "d": 229.16666666667152,
      "v": 35
    },
    {
      "midi": 52,
      "hit": false,
      "t": 92839.58333333321,
      "d": 689.5833333333285,
      "v": 41
    },
    {
      "midi": 76,
      "hit": false,
      "t": 92860.41666666654,
      "d": 922.9166666666715,
      "v": 56
    },
    {
      "midi": 72,
      "hit": false,
      "t": 92891.66666666654,
      "d": 768.75,
      "v": 46
    },
    {
      "midi": 40,
      "hit": false,
      "t": 93612.49999999987,
      "d": 364.58333333334303,
      "v": 50
    },
    {
      "midi": 52,
      "hit": false,
      "t": 94120.83333333321,
      "d": 47.91666666667152,
      "v": 36
    },
    {
      "midi": 72,
      "hit": false,
      "t": 94131.24999999988,
      "d": 97.91666666667152,
      "v": 79
    },
    {
      "midi": 69,
      "hit": false,
      "t": 94141.66666666656,
      "d": 68.75,
      "v": 67
    },
    {
      "midi": 69,
      "hit": false,
      "t": 94589.58333333323,
      "d": 645.833333333343,
      "v": 84
    },
    {
      "midi": 57,
      "hit": false,
      "t": 94606.2499999999,
      "d": 116.66666666667152,
      "v": 43
    },
    {
      "midi": 60,
      "hit": false,
      "t": 94610.41666666657,
      "d": 118.75,
      "v": 52
    },
    {
      "midi": 64,
      "hit": false,
      "t": 94614.58333333324,
      "d": 677.0833333333285,
      "v": 65
    },
    {
      "midi": 40,
      "hit": false,
      "t": 94991.66666666657,
      "d": 341.6666666666715,
      "v": 67
    },
    {
      "midi": 71,
      "hit": false,
      "t": 95343.74999999991,
      "d": 83.33333333334303,
      "v": 93
    },
    {
      "midi": 52,
      "hit": false,
      "t": 95347.91666666658,
      "d": 70.83333333334303,
      "v": 80
    },
    {
      "midi": 68,
      "hit": false,
      "t": 95352.08333333326,
      "d": 50,
      "v": 83
    },
    {
      "midi": 72,
      "hit": false,
      "t": 95747.91666666658,
      "d": 383.3333333333285,
      "v": 93
    },
    {
      "midi": 64,
      "hit": false,
      "t": 95756.24999999991,
      "d": 72.91666666667152,
      "v": 54
    },
    {
      "midi": 69,
      "hit": false,
      "t": 95758.33333333324,
      "d": 362.50000000001455,
      "v": 73
    },
    {
      "midi": 60,
      "hit": false,
      "t": 95762.49999999991,
      "d": 56.25,
      "v": 47
    },
    {
      "midi": 57,
      "hit": false,
      "t": 95772.91666666658,
      "d": 106.25,
      "v": 39
    },
    {
      "midi": 74,
      "hit": false,
      "t": 96122.91666666658,
      "d": 477.0833333333285,
      "v": 97
    },
    {
      "midi": 71,
      "hit": false,
      "t": 96131.24999999991,
      "d": 387.5,
      "v": 81
    },
    {
      "midi": 40,
      "hit": false,
      "t": 96152.08333333324,
      "d": 422.9166666666715,
      "v": 29
    },
    {
      "midi": 52,
      "hit": false,
      "t": 96535.41666666658,
      "d": 170.83333333332848,
      "v": 48
    },
    {
      "midi": 76,
      "hit": false,
      "t": 96543.74999999991,
      "d": 154.16666666667152,
      "v": 87
    },
    {
      "midi": 72,
      "hit": false,
      "t": 96549.99999999991,
      "d": 118.75,
      "v": 63
    },
    {
      "midi": 69,
      "hit": false,
      "t": 97022.91666666658,
      "d": 758.333333333343,
      "v": 71
    },
    {
      "midi": 64,
      "hit": false,
      "t": 97041.66666666658,
      "d": 800.0000000000146,
      "v": 52
    },
    {
      "midi": 57,
      "hit": false,
      "t": 97049.99999999991,
      "d": 183.33333333334303,
      "v": 35
    },
    {
      "midi": 60,
      "hit": false,
      "t": 97087.49999999991,
      "d": 164.58333333334303,
      "v": 22
    },
    {
      "midi": 40,
      "hit": false,
      "t": 97487.49999999993,
      "d": 356.25,
      "v": 48
    },
    {
      "midi": 68,
      "hit": false,
      "t": 97862.49999999993,
      "d": 70.83333333332848,
      "v": 79
    },
    {
      "midi": 71,
      "hit": false,
      "t": 97864.58333333326,
      "d": 93.75,
      "v": 84
    },
    {
      "midi": 52,
      "hit": false,
      "t": 97874.99999999993,
      "d": 66.66666666665697,
      "v": 71
    },
    {
      "midi": 72,
      "hit": false,
      "t": 98245.83333333326,
      "d": 377.0833333333285,
      "v": 93
    },
    {
      "midi": 64,
      "hit": false,
      "t": 98249.99999999993,
      "d": 64.58333333332848,
      "v": 71
    },
    {
      "midi": 60,
      "hit": false,
      "t": 98258.33333333326,
      "d": 50,
      "v": 65
    },
    {
      "midi": 69,
      "hit": false,
      "t": 98258.33333333326,
      "d": 256.25,
      "v": 69
    },
    {
      "midi": 57,
      "hit": false,
      "t": 98289.58333333326,
      "d": 72.91666666667152,
      "v": 28
    },
    {
      "midi": 74,
      "hit": false,
      "t": 98668.74999999991,
      "d": 502.0833333333285,
      "v": 98
    },
    {
      "midi": 71,
      "hit": false,
      "t": 98683.33333333324,
      "d": 472.9166666666715,
      "v": 87
    },
    {
      "midi": 40,
      "hit": false,
      "t": 98716.66666666657,
      "d": 572.9166666666861,
      "v": 50
    },
    {
      "midi": 76,
      "hit": false,
      "t": 99141.66666666657,
      "d": 1170.8333333333576,
      "v": 103
    },
    {
      "midi": 52,
      "hit": false,
      "t": 99145.83333333324,
      "d": 218.75000000001455,
      "v": 65
    },
    {
      "midi": 72,
      "hit": false,
      "t": 99145.83333333324,
      "d": 1112.5000000000146,
      "v": 90
    },
    {
      "midi": 65,
      "hit": false,
      "t": 99702.08333333326,
      "d": 612.5,
      "v": 78
    },
    {
      "midi": 74,
      "hit": false,
      "t": 100333.33333333326,
      "d": 289.5833333333285,
      "v": 79
    },
    {
      "midi": 52,
      "hit": false,
      "t": 100335.41666666658,
      "d": 925.0000000000146,
      "v": 49
    },
    {
      "midi": 71,
      "hit": false,
      "t": 100337.49999999991,
      "d": 304.1666666666715,
      "v": 71
    },
    {
      "midi": 57,
      "hit": false,
      "t": 100752.08333333326,
      "d": 422.9166666666715,
      "v": 79
    },
    {
      "midi": 72,
      "hit": false,
      "t": 100931.24999999993,
      "d": 162.5,
      "v": 100
    },
    {
      "midi": 69,
      "hit": false,
      "t": 100941.6666666666,
      "d": 137.5,
      "v": 84
    },
    {
      "midi": 72,
      "hit": false,
      "t": 101162.49999999993,
      "d": 502.08333333334303,
      "v": 80
    },
    {
      "midi": 64,
      "hit": false,
      "t": 101168.74999999993,
      "d": 875,
      "v": 62
    },
    {
      "midi": 69,
      "hit": false,
      "t": 101172.9166666666,
      "d": 404.1666666666715,
      "v": 68
    },
    {
      "midi": 71,
      "hit": false,
      "t": 101685.4166666666,
      "d": 1039.583333333343,
      "v": 70
    },
    {
      "midi": 52,
      "hit": false,
      "t": 101685.4166666666,
      "d": 1272.9166666666715,
      "v": 46
    },
    {
      "midi": 68,
      "hit": false,
      "t": 101693.74999999993,
      "d": 985.4166666666861,
      "v": 59
    },
    {
      "midi": 62,
      "hit": false,
      "t": 102266.6666666666,
      "d": 572.9166666666715,
      "v": 63
    },
    {
      "midi": 69,
      "hit": false,
      "t": 102612.49999999994,
      "d": 277.0833333333285,
      "v": 63
    },
    {
      "midi": 69,
      "hit": false,
      "t": 102985.4166666666,
      "d": 922.9166666666715,
      "v": 54
    },
    {
      "midi": 60,
      "hit": false,
      "t": 103020.83333333327,
      "d": 368.75,
      "v": 36
    },
    {
      "midi": 57,
      "hit": false,
      "t": 103033.33333333327,
      "d": 291.6666666666715,
      "v": 22
    },
    {
      "midi": 45,
      "hit": false,
      "t": 103660.4166666666,
      "d": 547.9166666666715,
      "v": 47
    },
    {
      "midi": 52,
      "hit": false,
      "t": 104158.33333333327,
      "d": 141.66666666667152,
      "v": 41
    },
    {
      "midi": 66,
      "hit": false,
      "t": 104743.74999999994,
      "d": 629.1666666666715,
      "v": 67
    },
    {
      "midi": 60,
      "hit": false,
      "t": 104747.91666666661,
      "d": 129.16666666667152,
      "v": 24
    },
    {
      "midi": 63,
      "hit": false,
      "t": 104758.33333333328,
      "d": 375,
      "v": 33
    },
    {
      "midi": 57,
      "hit": false,
      "t": 104762.49999999996,
      "d": 116.66666666665697,
      "v": 27
    },
    {
      "midi": 64,
      "hit": false,
      "t": 105135.41666666661,
      "d": 335.4166666666715,
      "v": 28
    },
    {
      "midi": 45,
      "hit": false,
      "t": 105356.24999999994,
      "d": 500.00000000001455,
      "v": 25
    },
    {
      "midi": 68,
      "hit": false,
      "t": 105362.49999999994,
      "d": 272.9166666666715,
      "v": 74
    },
    {
      "midi": 64,
      "hit": false,
      "t": 105647.91666666661,
      "d": 191.66666666667152,
      "v": 27
    },
    {
      "midi": 69,
      "hit": false,
      "t": 105849.99999999996,
      "d": 414.58333333331393,
      "v": 72
    },
    {
      "midi": 66,
      "hit": false,
      "t": 105870.83333333328,
      "d": 231.25,
      "v": 55
    },
    {
      "midi": 64,
      "hit": false,
      "t": 106079.16666666661,
      "d": 289.5833333333285,
      "v": 55
    },
    {
      "midi": 71,
      "hit": false,
      "t": 106260.41666666661,
      "d": 170.83333333332848,
      "v": 84
    },
    {
      "midi": 56,
      "hit": false,
      "t": 106266.6666666666,
      "d": 112.50000000001455,
      "v": 66
    },
    {
      "midi": 68,
      "hit": false,
      "t": 106270.83333333327,
      "d": 175,
      "v": 82
    },
    {
      "midi": 59,
      "hit": false,
      "t": 106289.58333333327,
      "d": 116.66666666667152,
      "v": 47
    },
    {
      "midi": 40,
      "hit": false,
      "t": 106649.99999999994,
      "d": 333.3333333333285,
      "v": 62
    },
    {
      "midi": 76,
      "hit": false,
      "t": 106687.49999999994,
      "d": 102.08333333332848,
      "v": 88
    },
    {
      "midi": 64,
      "hit": false,
      "t": 106827.08333333327,
      "d": 295.83333333334303,
      "v": 65
    },
    {
      "midi": 52,
      "hit": false,
      "t": 107060.4166666666,
      "d": 68.75000000001455,
      "v": 59
    },
    {
      "midi": 71,
      "hit": false,
      "t": 107064.58333333327,
      "d": 120.83333333334303,
      "v": 86
    },
    {
      "midi": 68,
      "hit": false,
      "t": 107068.74999999994,
      "d": 125,
      "v": 85
    },
    {
      "midi": 68,
      "hit": false,
      "t": 107320.83333333327,
      "d": 133.33333333332848,
      "v": 71
    },
    {
      "midi": 71,
      "hit": false,
      "t": 107322.9166666666,
      "d": 179.16666666665697,
      "v": 77
    },
    {
      "midi": 60,
      "hit": false,
      "t": 107474.99999999993,
      "d": 166.66666666665697,
      "v": 46
    },
    {
      "midi": 57,
      "hit": false,
      "t": 107481.24999999993,
      "d": 168.74999999998545,
      "v": 45
    },
    {
      "midi": 69,
      "hit": false,
      "t": 107493.74999999993,
      "d": 497.91666666665697,
      "v": 81
    },
    {
      "midi": 66,
      "hit": false,
      "t": 107508.33333333326,
      "d": 329.16666666665697,
      "v": 63
    },
    {
      "midi": 64,
      "hit": false,
      "t": 107737.49999999991,
      "d": 295.83333333334303,
      "v": 57
    },
    {
      "midi": 68,
      "hit": false,
      "t": 107943.74999999991,
      "d": 193.75,
      "v": 90
    },
    {
      "midi": 40,
      "hit": false,
      "t": 107949.99999999991,
      "d": 383.3333333333285,
      "v": 48
    },
    {
      "midi": 64,
      "hit": false,
      "t": 108129.16666666658,
      "d": 150,
      "v": 60
    },
    {
      "midi": 66,
      "hit": false,
      "t": 108316.66666666658,
      "d": 175,
      "v": 101
    },
    {
      "midi": 63,
      "hit": false,
      "t": 108331.24999999991,
      "d": 183.33333333332848,
      "v": 87
    },
    {
      "midi": 52,
      "hit": false,
      "t": 108343.74999999991,
      "d": 72.91666666667152,
      "v": 49
    },
    {
      "midi": 64,
      "hit": false,
      "t": 108499.99999999991,
      "d": 268.74999999998545,
      "v": 85
    },
    {
      "midi": 56,
      "hit": false,
      "t": 108672.91666666657,
      "d": 177.08333333332848,
      "v": 65
    },
    {
      "midi": 59,
      "hit": false,
      "t": 108685.41666666657,
      "d": 187.5,
      "v": 65
    },
    {
      "midi": 71,
      "hit": false,
      "t": 108704.16666666657,
      "d": 872.916666666657,
      "v": 88
    },
    {
      "midi": 68,
      "hit": false,
      "t": 108706.2499999999,
      "d": 704.1666666666715,
      "v": 82
    },
    {
      "midi": 64,
      "hit": false,
      "t": 108954.16666666657,
      "d": 206.25,
      "v": 31
    },
    {
      "midi": 40,
      "hit": false,
      "t": 109104.16666666657,
      "d": 375,
      "v": 60
    },
    {
      "midi": 64,
      "hit": false,
      "t": 109297.91666666657,
      "d": 147.91666666667152,
      "v": 63
    },
    {
      "midi": 52,
      "hit": false,
      "t": 109512.4999999999,
      "d": 93.75,
      "v": 57
    },
    {
      "midi": 68,
      "hit": false,
      "t": 109524.9999999999,
      "d": 220.83333333332848,
      "v": 91
    },
    {
      "midi": 64,
      "hit": false,
      "t": 109543.7499999999,
      "d": 83.33333333332848,
      "v": 46
    },
    {
      "midi": 64,
      "hit": false,
      "t": 109724.9999999999,
      "d": 241.66666666665697,
      "v": 47
    },
    {
      "midi": 57,
      "hit": false,
      "t": 110010.41666666656,
      "d": 231.25,
      "v": 35
    },
    {
      "midi": 60,
      "hit": false,
      "t": 110014.58333333323,
      "d": 229.16666666665697,
      "v": 47
    },
    {
      "midi": 66,
      "hit": false,
      "t": 110027.08333333323,
      "d": 391.66666666665697,
      "v": 80
    },
    {
      "midi": 63,
      "hit": false,
      "t": 110035.41666666656,
      "d": 368.75,
      "v": 73
    },
    {
      "midi": 64,
      "hit": false,
      "t": 110354.16666666656,
      "d": 185.41666666665697,
      "v": 46
    },
    {
      "midi": 45,
      "hit": false,
      "t": 110589.58333333321,
      "d": 414.5833333333576,
      "v": 55
    },
    {
      "midi": 68,
      "hit": false,
      "t": 110602.08333333321,
      "d": 272.9166666666715,
      "v": 88
    },
    {
      "midi": 64,
      "hit": false,
      "t": 110808.33333333321,
      "d": 170.83333333334303,
      "v": 60
    },
    {
      "midi": 52,
      "hit": false,
      "t": 110989.58333333323,
      "d": 91.66666666667152,
      "v": 68
    },
    {
      "midi": 69,
      "hit": false,
      "t": 110999.9999999999,
      "d": 193.75,
      "v": 84
    },
    {
      "midi": 66,
      "hit": false,
      "t": 111004.16666666657,
      "d": 158.33333333332848,
      "v": 85
    },
    {
      "midi": 64,
      "hit": false,
      "t": 111177.08333333323,
      "d": 191.66666666668607,
      "v": 78
    },
    {
      "midi": 56,
      "hit": false,
      "t": 111356.24999999991,
      "d": 95.83333333334303,
      "v": 80
    },
    {
      "midi": 71,
      "hit": false,
      "t": 111358.33333333324,
      "d": 137.50000000001455,
      "v": 94
    },
    {
      "midi": 68,
      "hit": false,
      "t": 111362.49999999991,
      "d": 156.25000000001455,
      "v": 85
    },
    {
      "midi": 59,
      "hit": false,
      "t": 111366.66666666658,
      "d": 93.75,
      "v": 72
    },
    {
      "midi": 64,
      "hit": false,
      "t": 111539.58333333326,
      "d": 179.16666666665697,
      "v": 61
    },
    {
      "midi": 40,
      "hit": false,
      "t": 111716.66666666658,
      "d": 368.75,
      "v": 65
    },
    {
      "midi": 76,
      "hit": false,
      "t": 111739.58333333324,
      "d": 110.41666666667152,
      "v": 94
    },
    {
      "midi": 64,
      "hit": false,
      "t": 111904.16666666658,
      "d": 179.16666666667152,
      "v": 60
    },
    {
      "midi": 52,
      "hit": false,
      "t": 112108.33333333326,
      "d": 60.41666666667152,
      "v": 66
    },
    {
      "midi": 71,
      "hit": false,
      "t": 112118.74999999993,
      "d": 183.33333333332848,
      "v": 84
    },
    {
      "midi": 68,
      "hit": false,
      "t": 112120.83333333326,
      "d": 166.66666666667152,
      "v": 81
    },
    {
      "midi": 64,
      "hit": false,
      "t": 112285.4166666666,
      "d": 145.83333333332848,
      "v": 60
    },
    {
      "midi": 71,
      "hit": false,
      "t": 112433.33333333326,
      "d": 154.16666666665697,
      "v": 91
    },
    {
      "midi": 68,
      "hit": false,
      "t": 112435.41666666658,
      "d": 145.83333333332848,
      "v": 87
    },
    {
      "midi": 69,
      "hit": false,
      "t": 112552.08333333326,
      "d": 556.25,
      "v": 83
    },
    {
      "midi": 60,
      "hit": false,
      "t": 112554.16666666658,
      "d": 233.33333333332848,
      "v": 55
    },
    {
      "midi": 57,
      "hit": false,
      "t": 112577.08333333326,
      "d": 204.16666666665697,
      "v": 46
    },
    {
      "midi": 66,
      "hit": false,
      "t": 112577.08333333326,
      "d": 270.8333333333285,
      "v": 90
    },
    {
      "midi": 64,
      "hit": false,
      "t": 112822.91666666658,
      "d": 268.75,
      "v": 61
    },
    {
      "midi": 40,
      "hit": false,
      "t": 113037.49999999991,
      "d": 352.08333333334303,
      "v": 65
    },
    {
      "midi": 68,
      "hit": false,
      "t": 113041.66666666658,
      "d": 197.91666666667152,
      "v": 97
    },
    {
      "midi": 64,
      "hit": false,
      "t": 113212.49999999993,
      "d": 225,
      "v": 75
    },
    {
      "midi": 52,
      "hit": false,
      "t": 113406.24999999993,
      "d": 85.41666666667152,
      "v": 70
    },
    {
      "midi": 66,
      "hit": false,
      "t": 113410.4166666666,
      "d": 164.58333333332848,
      "v": 105
    },
    {
      "midi": 63,
      "hit": false,
      "t": 113418.74999999993,
      "d": 166.66666666667152,
      "v": 98
    },
    {
      "midi": 64,
      "hit": false,
      "t": 113579.1666666666,
      "d": 289.58333333331393,
      "v": 88
    },
    {
      "midi": 56,
      "hit": false,
      "t": 113762.49999999993,
      "d": 199.99999999998545,
      "v": 72
    },
    {
      "midi": 59,
      "hit": false,
      "t": 113770.83333333326,
      "d": 235.41666666665697,
      "v": 70
    },
    {
      "midi": 71,
      "hit": false,
      "t": 113806.24999999993,
      "d": 2070.833333333285,
      "v": 92
    },
    {
      "midi": 68,
      "hit": false,
      "t": 113822.91666666658,
      "d": 2106.2499999999563,
      "v": 76
    },
    {
      "midi": 64,
      "hit": false,
      "t": 114039.58333333324,
      "d": 222.91666666667152,
      "v": 62
    },
    {
      "midi": 40,
      "hit": false,
      "t": 114239.58333333324,
      "d": 325,
      "v": 76
    },
    {
      "midi": 64,
      "hit": false,
      "t": 114402.08333333324,
      "d": 102.08333333332848,
      "v": 59
    },
    {
      "midi": 52,
      "hit": false,
      "t": 114566.66666666657,
      "d": 87.5,
      "v": 81
    },
    {
      "midi": 64,
      "hit": false,
      "t": 114737.4999999999,
      "d": 158.33333333332848,
      "v": 75
    },
    {
      "midi": 59,
      "hit": false,
      "t": 114929.16666666656,
      "d": 77.08333333332848,
      "v": 87
    },
    {
      "midi": 56,
      "hit": false,
      "t": 114937.49999999988,
      "d": 70.83333333332848,
      "v": 81
    },
    {
      "midi": 64,
      "hit": false,
      "t": 115108.33333333321,
      "d": 127.08333333332848,
      "v": 72
    },
    {
      "midi": 40,
      "hit": false,
      "t": 115287.49999999987,
      "d": 420.83333333334303,
      "v": 99
    },
    {
      "midi": 64,
      "hit": false,
      "t": 115460.41666666654,
      "d": 110.41666666667152,
      "v": 59
    },
    {
      "midi": 52,
      "hit": false,
      "t": 115697.91666666654,
      "d": 100,
      "v": 99
    },
    {
      "midi": 64,
      "hit": false,
      "t": 115866.66666666654,
      "d": 139.58333333332848,
      "v": 81
    },
    {
      "midi": 61,
      "hit": false,
      "t": 116179.16666666654,
      "d": 204.16666666665697,
      "v": 87
    },
    {
      "midi": 57,
      "hit": false,
      "t": 116195.83333333321,
      "d": 189.58333333331393,
      "v": 60
    },
    {
      "midi": 73,
      "hit": false,
      "t": 116197.91666666654,
      "d": 1210.416666666657,
      "v": 110
    },
    {
      "midi": 67,
      "hit": false,
      "t": 116210.41666666654,
      "d": 1156.2499999999854,
      "v": 87
    },
    {
      "midi": 64,
      "hit": false,
      "t": 116466.66666666653,
      "d": 139.58333333332848,
      "v": 63
    },
    {
      "midi": 45,
      "hit": false,
      "t": 116697.91666666653,
      "d": 491.6666666666715,
      "v": 75
    },
    {
      "midi": 64,
      "hit": false,
      "t": 116922.91666666653,
      "d": 118.75,
      "v": 54
    },
    {
      "midi": 52,
      "hit": false,
      "t": 117127.0833333332,
      "d": 93.75,
      "v": 78
    },
    {
      "midi": 64,
      "hit": false,
      "t": 117316.66666666653,
      "d": 125,
      "v": 71
    },
    {
      "midi": 69,
      "hit": false,
      "t": 117541.66666666653,
      "d": 939.5833333333285,
      "v": 73
    },
    {
      "midi": 74,
      "hit": false,
      "t": 117543.74999999985,
      "d": 854.166666666657,
      "v": 82
    },
    {
      "midi": 62,
      "hit": false,
      "t": 117547.91666666653,
      "d": 602.0833333333285,
      "v": 54
    },
    {
      "midi": 57,
      "hit": false,
      "t": 117562.49999999985,
      "d": 625,
      "v": 34
    },
    {
      "midi": 66,
      "hit": false,
      "t": 117752.0833333332,
      "d": 231.25,
      "v": 85
    },
    {
      "midi": 50,
      "hit": false,
      "t": 117941.66666666653,
      "d": 406.24999999998545,
      "v": 84
    },
    {
      "midi": 66,
      "hit": false,
      "t": 118110.41666666653,
      "d": 166.66666666665697,
      "v": 79
    },
    {
      "midi": 54,
      "hit": false,
      "t": 118297.91666666651,
      "d": 258.33333333334303,
      "v": 99
    },
    {
      "midi": 66,
      "hit": false,
      "t": 118427.08333333318,
      "d": 91.66666666667152,
      "v": 90
    },
    {
      "midi": 63,
      "hit": false,
      "t": 118764.58333333318,
      "d": 262.50000000001455,
      "v": 87
    },
    {
      "midi": 75,
      "hit": false,
      "t": 118783.33333333318,
      "d": 972.916666666657,
      "v": 101
    },
    {
      "midi": 69,
      "hit": false,
      "t": 118785.41666666651,
      "d": 933.3333333333285,
      "v": 87
    },
    {
      "midi": 66,
      "hit": false,
      "t": 119022.91666666653,
      "d": 187.5,
      "v": 78
    },
    {
      "midi": 47,
      "hit": false,
      "t": 119243.74999999985,
      "d": 360.41666666665697,
      "v": 78
    },
    {
      "midi": 66,
      "hit": false,
      "t": 119420.83333333318,
      "d": 97.91666666667152,
      "v": 72
    },
    {
      "midi": 54,
      "hit": false,
      "t": 119595.83333333318,
      "d": 83.33333333332848,
      "v": 92
    },
    {
      "midi": 66,
      "hit": false,
      "t": 119710.41666666651,
      "d": 100,
      "v": 90
    },
    {
      "midi": 64,
      "hit": false,
      "t": 119935.41666666651,
      "d": 139.5833333333576,
      "v": 80
    },
    {
      "midi": 60,
      "hit": false,
      "t": 119939.58333333318,
      "d": 110.41666666668607,
      "v": 84
    },
    {
      "midi": 76,
      "hit": false,
      "t": 119949.99999999985,
      "d": 891.666666666657,
      "v": 96
    },
    {
      "midi": 72,
      "hit": false,
      "t": 119962.49999999985,
      "d": 862.5,
      "v": 89
    },
    {
      "midi": 69,
      "hit": false,
      "t": 120162.49999999987,
      "d": 185.41666666665697,
      "v": 56
    },
    {
      "midi": 48,
      "hit": false,
      "t": 120339.5833333332,
      "d": 387.49999999998545,
      "v": 102
    },
    {
      "midi": 69,
      "hit": false,
      "t": 120520.8333333332,
      "d": 108.33333333332848,
      "v": 72
    },
    {
      "midi": 57,
      "hit": false,
      "t": 120687.49999999985,
      "d": 93.75,
      "v": 101
    },
    {
      "midi": 69,
      "hit": false,
      "t": 120839.58333333318,
      "d": 83.33333333332848,
      "v": 88
    },
    {
      "midi": 76,
      "hit": false,
      "t": 121074.99999999984,
      "d": 1029.166666666686,
      "v": 106
    },
    {
      "midi": 79,
      "hit": false,
      "t": 121079.16666666651,
      "d": 1108.333333333343,
      "v": 106
    },
    {
      "midi": 61,
      "hit": false,
      "t": 121087.49999999984,
      "d": 97.91666666667152,
      "v": 106
    },
    {
      "midi": 64,
      "hit": false,
      "t": 121089.58333333317,
      "d": 122.91666666667152,
      "v": 103
    },
    {
      "midi": 70,
      "hit": false,
      "t": 121295.83333333317,
      "d": 154.16666666667152,
      "v": 87
    },
    {
      "midi": 49,
      "hit": false,
      "t": 121479.16666666651,
      "d": 383.33333333334303,
      "v": 105
    },
    {
      "midi": 70,
      "hit": false,
      "t": 121652.08333333318,
      "d": 97.91666666667152,
      "v": 80
    },
    {
      "midi": 58,
      "hit": false,
      "t": 121843.74999999985,
      "d": 102.08333333332848,
      "v": 108
    },
    {
      "midi": 70,
      "hit": false,
      "t": 122018.74999999985,
      "d": 129.16666666667152,
      "v": 92
    },
    {
      "midi": 62,
      "hit": false,
      "t": 122247.91666666653,
      "d": 129.16666666667152,
      "v": 107
    },
    {
      "midi": 65,
      "hit": false,
      "t": 122247.91666666653,
      "d": 139.58333333334303,
      "v": 106
    },
    {
      "midi": 77,
      "hit": false,
      "t": 122247.91666666653,
      "d": 1237.5000000000146,
      "v": 112
    },
    {
      "midi": 74,
      "hit": false,
      "t": 122254.16666666653,
      "d": 1210.416666666686,
      "v": 106
    },
    {
      "midi": 70,
      "hit": false,
      "t": 122518.74999999987,
      "d": 150,
      "v": 104
    },
    {
      "midi": 50,
      "hit": false,
      "t": 122729.16666666654,
      "d": 495.83333333334303,
      "v": 108
    },
    {
      "midi": 70,
      "hit": false,
      "t": 122920.83333333321,
      "d": 175,
      "v": 100
    },
    {
      "midi": 58,
      "hit": false,
      "t": 123174.99999999988,
      "d": 170.83333333332848,
      "v": 118
    },
    {
      "midi": 70,
      "hit": false,
      "t": 123418.74999999988,
      "d": 97.91666666665697,
      "v": 106
    },
    {
      "midi": 81,
      "hit": false,
      "t": 123864.58333333321,
      "d": 2291.6666666666424,
      "v": 111
    },
    {
      "midi": 63,
      "hit": false,
      "t": 123868.74999999988,
      "d": 300,
      "v": 114
    },
    {
      "midi": 66,
      "hit": false,
      "t": 123870.83333333321,
      "d": 318.75,
      "v": 115
    },
    {
      "midi": 75,
      "hit": false,
      "t": 123870.83333333321,
      "d": 2314.5833333332994,
      "v": 114
    },
    {
      "midi": 69,
      "hit": false,
      "t": 123872.91666666654,
      "d": 2299.999999999971,
      "v": 103
    },
    {
      "midi": 78,
      "hit": false,
      "t": 123881.24999999987,
      "d": 2310.4166666666424,
      "v": 101
    },
    {
      "midi": 51,
      "hit": false,
      "t": 124522.91666666654,
      "d": 258.3333333333285,
      "v": 115
    },
    {
      "midi": 60,
      "hit": false,
      "t": 124995.8333333332,
      "d": 91.66666666667152,
      "v": 116
    },
    {
      "midi": 66,
      "hit": false,
      "t": 125427.0833333332,
      "d": 81.25,
      "v": 115
    },
    {
      "midi": 63,
      "hit": false,
      "t": 125429.16666666653,
      "d": 72.91666666667152,
      "v": 114
    },
    {
      "midi": 51,
      "hit": false,
      "t": 125804.16666666653,
      "d": 397.91666666665697,
      "v": 110
    },
    {
      "midi": 60,
      "hit": false,
      "t": 126170.83333333318,
      "d": 87.5,
      "v": 103
    },
    {
      "midi": 45,
      "hit": false,
      "t": 126695.83333333318,
      "d": 75,
      "v": 125
    },
    {
      "midi": 63,
      "hit": false,
      "t": 126699.99999999985,
      "d": 106.25,
      "v": 100
    },
    {
      "midi": 66,
      "hit": false,
      "t": 126702.08333333318,
      "d": 135.41666666667152,
      "v": 105
    },
    {
      "midi": 51,
      "hit": false,
      "t": 127185.41666666653,
      "d": 229.16666666667152,
      "v": 105
    },
    {
      "midi": 60,
      "hit": false,
      "t": 127606.24999999987,
      "d": 102.08333333332848,
      "v": 113
    },
    {
      "midi": 39,
      "hit": false,
      "t": 128181.24999999987,
      "d": 1668.75,
      "v": 127
    },
    {
      "midi": 66,
      "hit": false,
      "t": 128185.41666666654,
      "d": 212.50000000001455,
      "v": 103
    },
    {
      "midi": 63,
      "hit": false,
      "t": 128189.58333333321,
      "d": 147.91666666667152,
      "v": 99
    },
    {
      "midi": 51,
      "hit": false,
      "t": 128743.74999999988,
      "d": 450,
      "v": 98
    },
    {
      "midi": 60,
      "hit": false,
      "t": 129195.83333333321,
      "d": 89.58333333332848,
      "v": 84
    },
    {
      "midi": 66,
      "hit": false,
      "t": 129641.66666666654,
      "d": 87.5,
      "v": 73
    },
    {
      "midi": 63,
      "hit": false,
      "t": 129647.91666666654,
      "d": 50,
      "v": 75
    },
    {
      "midi": 51,
      "hit": false,
      "t": 130137.49999999987,
      "d": 289.5833333333285,
      "v": 54
    },
    {
      "midi": 60,
      "hit": false,
      "t": 130743.74999999987,
      "d": 262.5,
      "v": 50
    },
    {
      "midi": 52,
      "hit": false,
      "t": 131489.5833333332,
      "d": 820.8333333332848,
      "v": 42
    },
    {
      "midi": 76,
      "hit": false,
      "t": 131524.99999999985,
      "d": 1022.9166666666279,
      "v": 62
    },
    {
      "midi": 72,
      "hit": false,
      "t": 131535.4166666665,
      "d": 924.9999999999709,
      "v": 25
    },
    {
      "midi": 64,
      "hit": false,
      "t": 131912.49999999983,
      "d": 333.33333333331393,
      "v": 37
    },
    {
      "midi": 40,
      "hit": false,
      "t": 132185.41666666648,
      "d": 408.33333333334303,
      "v": 59
    },
    {
      "midi": 64,
      "hit": false,
      "t": 132416.66666666648,
      "d": 279.16666666668607,
      "v": 43
    },
    {
      "midi": 52,
      "hit": false,
      "t": 132658.33333333317,
      "d": 66.66666666665697,
      "v": 40
    },
    {
      "midi": 72,
      "hit": false,
      "t": 132683.33333333317,
      "d": 287.5,
      "v": 78
    },
    {
      "midi": 69,
      "hit": false,
      "t": 132699.99999999983,
      "d": 229.16666666668607,
      "v": 54
    },
    {
      "midi": 64,
      "hit": false,
      "t": 132927.08333333317,
      "d": 191.66666666665697,
      "v": 50
    },
    {
      "midi": 60,
      "hit": false,
      "t": 133112.49999999983,
      "d": 91.66666666665697,
      "v": 63
    },
    {
      "midi": 69,
      "hit": false,
      "t": 133116.66666666648,
      "d": 745.833333333343,
      "v": 78
    },
    {
      "midi": 57,
      "hit": false,
      "t": 133118.74999999983,
      "d": 87.5,
      "v": 52
    },
    {
      "midi": 64,
      "hit": false,
      "t": 133341.66666666648,
      "d": 154.16666666665697,
      "v": 43
    },
    {
      "midi": 40,
      "hit": false,
      "t": 133514.58333333314,
      "d": 318.75,
      "v": 57
    },
    {
      "midi": 64,
      "hit": false,
      "t": 133691.66666666648,
      "d": 162.5,
      "v": 52
    },
    {
      "midi": 52,
      "hit": false,
      "t": 133874.99999999983,
      "d": 66.66666666665697,
      "v": 62
    },
    {
      "midi": 71,
      "hit": false,
      "t": 133904.16666666648,
      "d": 331.25,
      "v": 87
    },
    {
      "midi": 68,
      "hit": false,
      "t": 133910.41666666648,
      "d": 160.41666666665697,
      "v": 79
    },
    {
      "midi": 64,
      "hit": false,
      "t": 134079.16666666648,
      "d": 156.25,
      "v": 54
    },
    {
      "midi": 72,
      "hit": false,
      "t": 134266.66666666648,
      "d": 154.16666666662786,
      "v": 90
    },
    {
      "midi": 60,
      "hit": false,
      "t": 134270.83333333314,
      "d": 52.08333333331393,
      "v": 61
    },
    {
      "midi": 57,
      "hit": false,
      "t": 134277.08333333314,
      "d": 58.33333333331393,
      "v": 52
    },
    {
      "midi": 69,
      "hit": false,
      "t": 134281.2499999998,
      "d": 122.91666666665697,
      "v": 74
    },
    {
      "midi": 64,
      "hit": false,
      "t": 134433.3333333331,
      "d": 175,
      "v": 52
    },
    {
      "midi": 74,
      "hit": false,
      "t": 134637.49999999977,
      "d": 152.08333333334303,
      "v": 103
    },
    {
      "midi": 40,
      "hit": false,
      "t": 134639.5833333331,
      "d": 352.08333333334303,
      "v": 68
    },
    {
      "midi": 71,
      "hit": false,
      "t": 134645.8333333331,
      "d": 139.58333333334303,
      "v": 86
    },
    {
      "midi": 64,
      "hit": false,
      "t": 134795.8333333331,
      "d": 297.91666666665697,
      "v": 68
    },
    {
      "midi": 52,
      "hit": false,
      "t": 135016.66666666645,
      "d": 85.41666666665697,
      "v": 71
    },
    {
      "midi": 76,
      "hit": false,
      "t": 135029.16666666645,
      "d": 183.33333333331393,
      "v": 99
    },
    {
      "midi": 72,
      "hit": false,
      "t": 135045.8333333331,
      "d": 129.16666666665697,
      "v": 84
    },
    {
      "midi": 64,
      "hit": false,
      "t": 135208.3333333331,
      "d": 197.91666666665697,
      "v": 73
    },
    {
      "midi": 60,
      "hit": false,
      "t": 135456.24999999977,
      "d": 162.5,
      "v": 61
    },
    {
      "midi": 69,
      "hit": false,
      "t": 135456.24999999977,
      "d": 754.1666666666861,
      "v": 92
    },
    {
      "midi": 57,
      "hit": false,
      "t": 135458.3333333331,
      "d": 152.08333333331393,
      "v": 45
    },
    {
      "midi": 64,
      "hit": false,
      "t": 135689.5833333331,
      "d": 150,
      "v": 49
    },
    {
      "midi": 40,
      "hit": false,
      "t": 135872.91666666645,
      "d": 304.16666666668607,
      "v": 57
    },
    {
      "midi": 64,
      "hit": false,
      "t": 136049.9999999998,
      "d": 156.25,
      "v": 59
    },
    {
      "midi": 52,
      "hit": false,
      "t": 136216.66666666645,
      "d": 70.83333333334303,
      "v": 65
    },
    {
      "midi": 68,
      "hit": false,
      "t": 136241.66666666645,
      "d": 162.5,
      "v": 70
    },
    {
      "midi": 71,
      "hit": false,
      "t": 136247.91666666645,
      "d": 295.83333333334303,
      "v": 81
    },
    {
      "midi": 64,
      "hit": false,
      "t": 136412.4999999998,
      "d": 152.08333333334303,
      "v": 50
    },
    {
      "midi": 60,
      "hit": false,
      "t": 136583.33333333314,
      "d": 81.2500000000291,
      "v": 84
    },
    {
      "midi": 72,
      "hit": false,
      "t": 136585.41666666648,
      "d": 177.08333333337214,
      "v": 91
    },
    {
      "midi": 69,
      "hit": false,
      "t": 136593.74999999983,
      "d": 156.2500000000291,
      "v": 80
    },
    {
      "midi": 57,
      "hit": false,
      "t": 136595.83333333317,
      "d": 66.66666666665697,
      "v": 67
    },
    {
      "midi": 64,
      "hit": false,
      "t": 136747.9166666665,
      "d": 206.25,
      "v": 68
    },
    {
      "midi": 74,
      "hit": false,
      "t": 136970.83333333317,
      "d": 185.41666666668607,
      "v": 99
    },
    {
      "midi": 71,
      "hit": false,
      "t": 136979.1666666665,
      "d": 166.66666666668607,
      "v": 87
    },
    {
      "midi": 40,
      "hit": false,
      "t": 136979.1666666665,
      "d": 425,
      "v": 89
    },
    {
      "midi": 64,
      "hit": false,
      "t": 137131.24999999985,
      "d": 345.8333333332848,
      "v": 68
    },
    {
      "midi": 76,
      "hit": false,
      "t": 137408.33333333317,
      "d": 968.7499999999709,
      "v": 99
    },
    {
      "midi": 52,
      "hit": false,
      "t": 137412.49999999983,
      "d": 72.91666666665697,
      "v": 83
    },
    {
      "midi": 72,
      "hit": false,
      "t": 137416.66666666648,
      "d": 947.916666666657,
      "v": 93
    },
    {
      "midi": 64,
      "hit": false,
      "t": 137633.33333333314,
      "d": 406.2499999999709,
      "v": 46
    },
    {
      "midi": 65,
      "hit": false,
      "t": 137979.16666666645,
      "d": 287.5,
      "v": 100
    },
    {
      "midi": 64,
      "hit": false,
      "t": 138281.2499999998,
      "d": 358.33333333337214,
      "v": 54
    },
    {
      "midi": 74,
      "hit": false,
      "t": 138591.66666666648,
      "d": 752.0833333332848,
      "v": 92
    },
    {
      "midi": 52,
      "hit": false,
      "t": 138597.91666666648,
      "d": 1172.916666666657,
      "v": 48
    },
    {
      "midi": 71,
      "hit": false,
      "t": 138606.24999999983,
      "d": 664.5833333333139,
      "v": 79
    },
    {
      "midi": 64,
      "hit": false,
      "t": 138862.49999999983,
      "d": 449.9999999999709,
      "v": 61
    },
    {
      "midi": 57,
      "hit": false,
      "t": 139122.91666666648,
      "d": 491.66666666665697,
      "v": 65
    },
    {
      "midi": 72,
      "hit": false,
      "t": 139322.91666666645,
      "d": 197.91666666665697,
      "v": 97
    },
    {
      "midi": 69,
      "hit": false,
      "t": 139327.0833333331,
      "d": 175,
      "v": 82
    },
    {
      "midi": 64,
      "hit": false,
      "t": 139610.41666666645,
      "d": 852.0833333333721,
      "v": 40
    },
    {
      "midi": 69,
      "hit": false,
      "t": 139612.4999999998,
      "d": 479.16666666668607,
      "v": 66
    },
    {
      "midi": 72,
      "hit": false,
      "t": 139612.4999999998,
      "d": 497.91666666668607,
      "v": 61
    },
    {
      "midi": 52,
      "hit": false,
      "t": 140116.66666666648,
      "d": 1260.416666666657,
      "v": 51
    },
    {
      "midi": 71,
      "hit": false,
      "t": 140120.83333333314,
      "d": 935.416666666657,
      "v": 77
    },
    {
      "midi": 68,
      "hit": false,
      "t": 140139.58333333314,
      "d": 918.75,
      "v": 66
    },
    {
      "midi": 62,
      "hit": false,
      "t": 140697.91666666648,
      "d": 406.25,
      "v": 68
    },
    {
      "midi": 69,
      "hit": false,
      "t": 140995.83333333314,
      "d": 281.25,
      "v": 71
    },
    {
      "midi": 57,
      "hit": false,
      "t": 141429.16666666648,
      "d": 345.83333333334303,
      "v": 39
    },
    {
      "midi": 69,
      "hit": false,
      "t": 141429.16666666648,
      "d": 952.083333333343,
      "v": 60
    },
    {
      "midi": 61,
      "hit": false,
      "t": 141431.24999999983,
      "d": 362.5,
      "v": 61
    },
    {
      "midi": 45,
      "hit": false,
      "t": 142174.99999999983,
      "d": 502.08333333334303,
      "v": 55
    },
    {
      "midi": 57,
      "hit": false,
      "t": 142697.9166666665,
      "d": 97.91666666665697,
      "v": 32
    },
    {
      "midi": 71,
      "hit": false,
      "t": 143331.24999999983,
      "d": 554.1666666666279,
      "v": 55
    },
    {
      "midi": 68,
      "hit": false,
      "t": 143343.74999999983,
      "d": 349.9999999999709,
      "v": 35
    },
    {
      "midi": 62,
      "hit": false,
      "t": 143364.58333333317,
      "d": 208.33333333331393,
      "v": 32
    },
    {
      "midi": 65,
      "hit": false,
      "t": 143377.08333333317,
      "d": 212.4999999999709,
      "v": 25
    },
    {
      "midi": 45,
      "hit": false,
      "t": 143947.91666666645,
      "d": 358.33333333334303,
      "v": 41
    },
    {
      "midi": 73,
      "hit": false,
      "t": 143954.16666666645,
      "d": 383.33333333334303,
      "v": 76
    },
    {
      "midi": 69,
      "hit": false,
      "t": 143993.7499999998,
      "d": 302.08333333334303,
      "v": 29
    },
    {
      "midi": 74,
      "hit": false,
      "t": 144364.58333333314,
      "d": 93.7500000000291,
      "v": 87
    },
    {
      "midi": 57,
      "hit": false,
      "t": 144366.66666666648,
      "d": 64.58333333334303,
      "v": 41
    },
    {
      "midi": 71,
      "hit": false,
      "t": 144381.24999999983,
      "d": 47.916666666656965,
      "v": 60
    },
    {
      "midi": 76,
      "hit": false,
      "t": 144756.24999999983,
      "d": 591.666666666657,
      "v": 82
    },
    {
      "midi": 73,
      "hit": false,
      "t": 144758.33333333317,
      "d": 649.9999999999709,
      "v": 72
    },
    {
      "midi": 61,
      "hit": false,
      "t": 144768.74999999983,
      "d": 102.08333333331393,
      "v": 60
    },
    {
      "midi": 64,
      "hit": false,
      "t": 144772.91666666648,
      "d": 150,
      "v": 52
    },
    {
      "midi": 81,
      "hit": false,
      "t": 145197.91666666648,
      "d": 168.75,
      "v": 72
    },
    {
      "midi": 45,
      "hit": false,
      "t": 145199.99999999983,
      "d": 433.33333333331393,
      "v": 46
    },
    {
      "midi": 76,
      "hit": false,
      "t": 145643.7499999998,
      "d": 112.5000000000291,
      "v": 77
    },
    {
      "midi": 73,
      "hit": false,
      "t": 145649.9999999998,
      "d": 77.08333333334303,
      "v": 74
    },
    {
      "midi": 57,
      "hit": false,
      "t": 145668.7499999998,
      "d": 66.66666666668607,
      "v": 38
    },
    {
      "midi": 76,
      "hit": false,
      "t": 145964.58333333317,
      "d": 106.25,
      "v": 74
    },
    {
      "midi": 73,
      "hit": false,
      "t": 145974.99999999983,
      "d": 91.66666666668607,
      "v": 67
    },
    {
      "midi": 65,
      "hit": false,
      "t": 146058.33333333317,
      "d": 118.75,
      "v": 45
    },
    {
      "midi": 62,
      "hit": false,
      "t": 146062.49999999983,
      "d": 125,
      "v": 50
    },
    {
      "midi": 74,
      "hit": false,
      "t": 146064.58333333317,
      "d": 504.16666666665697,
      "v": 85
    },
    {
      "midi": 71,
      "hit": false,
      "t": 146070.83333333317,
      "d": 410.41666666665697,
      "v": 76
    },
    {
      "midi": 73,
      "hit": false,
      "t": 146506.24999999983,
      "d": 141.66666666665697,
      "v": 91
    },
    {
      "midi": 38,
      "hit": false,
      "t": 146510.41666666648,
      "d": 179.16666666665697,
      "v": 85
    },
    {
      "midi": 69,
      "hit": false,
      "t": 146522.91666666648,
      "d": 356.25,
      "v": 59
    },
    {
      "midi": 71,
      "hit": false,
      "t": 146964.58333333314,
      "d": 127.08333333334303,
      "v": 68
    },
    {
      "midi": 68,
      "hit": false,
      "t": 146974.9999999998,
      "d": 110.41666666668607,
      "v": 68
    },
    {
      "midi": 57,
      "hit": false,
      "t": 146995.83333333314,
      "d": 104.16666666668607,
      "v": 59
    },
    {
      "midi": 73,
      "hit": false,
      "t": 147516.66666666648,
      "d": 587.5000000000291,
      "v": 78
    },
    {
      "midi": 61,
      "hit": false,
      "t": 147527.08333333314,
      "d": 237.5000000000291,
      "v": 51
    },
    {
      "midi": 76,
      "hit": false,
      "t": 147527.08333333314,
      "d": 900.0000000000582,
      "v": 75
    },
    {
      "midi": 64,
      "hit": false,
      "t": 147541.66666666648,
      "d": 256.2500000000291,
      "v": 27
    },
    {
      "midi": 45,
      "hit": false,
      "t": 148022.9166666665,
      "d": 285.41666666665697,
      "v": 63
    },
    {
      "midi": 57,
      "hit": false,
      "t": 148383.33333333317,
      "d": 56.250000000029104,
      "v": 61
    },
    {
      "midi": 73,
      "hit": false,
      "t": 148397.9166666665,
      "d": 150.0000000000291,
      "v": 90
    },
    {
      "midi": 69,
      "hit": false,
      "t": 148406.24999999985,
      "d": 97.91666666668607,
      "v": 65
    },
    {
      "midi": 71,
      "hit": false,
      "t": 148768.74999999988,
      "d": 389.58333333331393,
      "v": 84
    },
    {
      "midi": 65,
      "hit": false,
      "t": 148777.08333333323,
      "d": 129.16666666665697,
      "v": 71
    },
    {
      "midi": 68,
      "hit": false,
      "t": 148779.16666666657,
      "d": 274.9999999999709,
      "v": 78
    },
    {
      "midi": 62,
      "hit": false,
      "t": 148797.91666666657,
      "d": 97.91666666665697,
      "v": 71
    },
    {
      "midi": 45,
      "hit": false,
      "t": 149166.66666666654,
      "d": 270.83333333331393,
      "v": 71
    },
    {
      "midi": 73,
      "hit": false,
      "t": 149177.0833333332,
      "d": 306.25,
      "v": 91
    },
    {
      "midi": 69,
      "hit": false,
      "t": 149202.0833333332,
      "d": 293.75,
      "v": 53
    },
    {
      "midi": 74,
      "hit": false,
      "t": 149541.66666666654,
      "d": 83.33333333334303,
      "v": 97
    },
    {
      "midi": 57,
      "hit": false,
      "t": 149543.74999999988,
      "d": 45.833333333343035,
      "v": 82
    },
    {
      "midi": 71,
      "hit": false,
      "t": 149549.99999999988,
      "d": 39.583333333343035,
      "v": 82
    },
    {
      "midi": 76,
      "hit": false,
      "t": 149933.33333333323,
      "d": 460.41666666668607,
      "v": 84
    },
    {
      "midi": 64,
      "hit": false,
      "t": 149937.4999999999,
      "d": 172.91666666665697,
      "v": 74
    },
    {
      "midi": 73,
      "hit": false,
      "t": 149947.91666666657,
      "d": 512.5,
      "v": 75
    },
    {
      "midi": 61,
      "hit": false,
      "t": 149956.2499999999,
      "d": 110.41666666665697,
      "v": 68
    },
    {
      "midi": 81,
      "hit": false,
      "t": 150337.4999999999,
      "d": 91.66666666665697,
      "v": 88
    },
    {
      "midi": 45,
      "hit": false,
      "t": 150352.08333333326,
      "d": 345.83333333331393,
      "v": 62
    },
    {
      "midi": 76,
      "hit": false,
      "t": 150733.33333333323,
      "d": 102.08333333331393,
      "v": 84
    },
    {
      "midi": 57,
      "hit": false,
      "t": 150739.58333333323,
      "d": 99.9999999999709,
      "v": 59
    },
    {
      "midi": 73,
      "hit": false,
      "t": 150745.83333333323,
      "d": 79.16666666665697,
      "v": 78
    },
    {
      "midi": 76,
      "hit": false,
      "t": 151089.5833333332,
      "d": 114.58333333334303,
      "v": 74
    },
    {
      "midi": 73,
      "hit": false,
      "t": 151110.41666666654,
      "d": 89.58333333334303,
      "v": 61
    },
    {
      "midi": 65,
      "hit": false,
      "t": 151162.49999999988,
      "d": 162.4999999999709,
      "v": 54
    },
    {
      "midi": 62,
      "hit": false,
      "t": 151172.91666666654,
      "d": 152.08333333331393,
      "v": 51
    },
    {
      "midi": 74,
      "hit": false,
      "t": 151191.66666666654,
      "d": 552.083333333343,
      "v": 79
    },
    {
      "midi": 71,
      "hit": false,
      "t": 151208.3333333332,
      "d": 437.5,
      "v": 69
    },
    {
      "midi": 73,
      "hit": false,
      "t": 151679.16666666654,
      "d": 379.16666666668607,
      "v": 79
    },
    {
      "midi": 38,
      "hit": false,
      "t": 151695.8333333332,
      "d": 185.41666666668607,
      "v": 75
    },
    {
      "midi": 69,
      "hit": false,
      "t": 151704.16666666654,
      "d": 229.16666666668607,
      "v": 35
    },
    {
      "midi": 71,
      "hit": false,
      "t": 152208.33333333323,
      "d": 170.83333333334303,
      "v": 69
    },
    {
      "midi": 57,
      "hit": false,
      "t": 152212.49999999988,
      "d": 129.16666666668607,
      "v": 48
    },
    {
      "midi": 68,
      "hit": false,
      "t": 152214.58333333323,
      "d": 200,
      "v": 59
    },
    {
      "midi": 73,
      "hit": false,
      "t": 152847.91666666657,
      "d": 685.4166666666861,
      "v": 66
    },
    {
      "midi": 61,
      "hit": false,
      "t": 152854.16666666657,
      "d": 306.25,
      "v": 45
    },
    {
      "midi": 76,
      "hit": false,
      "t": 152854.16666666657,
      "d": 577.083333333343,
      "v": 60
    },
    {
      "midi": 64,
      "hit": false,
      "t": 152879.16666666657,
      "d": 300,
      "v": 33
    },
    {
      "midi": 45,
      "hit": false,
      "t": 153566.6666666666,
      "d": 550,
      "v": 60
    },
    {
      "midi": 52,
      "hit": false,
      "t": 154089.58333333326,
      "d": 60.41666666668607,
      "v": 30
    },
    {
      "midi": 61,
      "hit": false,
      "t": 154577.08333333328,
      "d": 102.08333333334303,
      "v": 49
    },
    {
      "midi": 57,
      "hit": false,
      "t": 154591.66666666663,
      "d": 129.16666666665697,
      "v": 16
    },
    {
      "midi": 64,
      "hit": false,
      "t": 154879.16666666663,
      "d": 289.58333333334303,
      "v": 54
    },
    {
      "midi": 45,
      "hit": false,
      "t": 155149.99999999997,
      "d": 445.83333333334303,
      "v": 35
    },
    {
      "midi": 69,
      "hit": false,
      "t": 155177.0833333333,
      "d": 218.75,
      "v": 38
    },
    {
      "midi": 71,
      "hit": false,
      "t": 155408.3333333333,
      "d": 187.5,
      "v": 51
    },
    {
      "midi": 52,
      "hit": false,
      "t": 155606.24999999997,
      "d": 68.75,
      "v": 59
    },
    {
      "midi": 69,
      "hit": false,
      "t": 155641.66666666663,
      "d": 166.66666666668607,
      "v": 46
    },
    {
      "midi": 71,
      "hit": false,
      "t": 155810.41666666666,
      "d": 202.08333333334303,
      "v": 57
    },
    {
      "midi": 57,
      "hit": false,
      "t": 155987.5,
      "d": 91.66666666665697,
      "v": 45
    },
    {
      "midi": 61,
      "hit": false,
      "t": 155991.66666666666,
      "d": 56.25,
      "v": 58
    },
    {
      "midi": 73,
      "hit": false,
      "t": 156004.16666666666,
      "d": 195.83333333334303,
      "v": 74
    },
    {
      "midi": 76,
      "hit": false,
      "t": 156206.25,
      "d": 160.41666666665697,
      "v": 58
    },
    {
      "midi": 45,
      "hit": false,
      "t": 156372.91666666666,
      "d": 352.08333333334303,
      "v": 45
    },
    {
      "midi": 73,
      "hit": false,
      "t": 156379.16666666666,
      "d": 179.16666666668607,
      "v": 74
    },
    {
      "midi": 74,
      "hit": false,
      "t": 156550,
      "d": 212.5,
      "v": 71
    },
    {
      "midi": 52,
      "hit": false,
      "t": 156714.58333333334,
      "d": 56.25,
      "v": 63
    },
    {
      "midi": 73,
      "hit": false,
      "t": 156720.83333333334,
      "d": 152.08333333334303,
      "v": 86
    },
    {
      "midi": 74,
      "hit": false,
      "t": 156852.08333333334,
      "d": 106.25,
      "v": 76
    },
    {
      "midi": 57,
      "hit": false,
      "t": 157043.75,
      "d": 93.75,
      "v": 65
    },
    {
      "midi": 76,
      "hit": false,
      "t": 157050,
      "d": 177.08333333334303,
      "v": 82
    },
    {
      "midi": 61,
      "hit": false,
      "t": 157058.33333333334,
      "d": 66.66666666665697,
      "v": 65
    },
    {
      "midi": 81,
      "hit": false,
      "t": 157225,
      "d": 179.16666666665697,
      "v": 70
    },
    {
      "midi": 76,
      "hit": false,
      "t": 157393.75,
      "d": 179.16666666665697,
      "v": 71
    },
    {
      "midi": 45,
      "hit": false,
      "t": 157420.8333333333,
      "d": 304.16666666668607,
      "v": 41
    },
    {
      "midi": 80,
      "hit": false,
      "t": 157541.66666666666,
      "d": 208.33333333334303,
      "v": 81
    },
    {
      "midi": 52,
      "hit": false,
      "t": 157712.5,
      "d": 47.916666666656965,
      "v": 75
    },
    {
      "midi": 76,
      "hit": false,
      "t": 157725,
      "d": 147.91666666665697,
      "v": 81
    },
    {
      "midi": 80,
      "hit": false,
      "t": 157856.25,
      "d": 100,
      "v": 91
    },
    {
      "midi": 81,
      "hit": false,
      "t": 158054.16666666666,
      "d": 229.16666666665697,
      "v": 84
    },
    {
      "midi": 57,
      "hit": false,
      "t": 158058.3333333333,
      "d": 106.25,
      "v": 56
    },
    {
      "midi": 61,
      "hit": false,
      "t": 158066.66666666666,
      "d": 87.5,
      "v": 70
    },
    {
      "midi": 85,
      "hit": false,
      "t": 158224.99999999997,
      "d": 229.16666666665697,
      "v": 93
    },
    {
      "midi": 81,
      "hit": false,
      "t": 158399.99999999997,
      "d": 168.75,
      "v": 86
    },
    {
      "midi": 45,
      "hit": false,
      "t": 158410.41666666663,
      "d": 316.66666666668607,
      "v": 76
    },
    {
      "midi": 83,
      "hit": false,
      "t": 158531.24999999997,
      "d": 200,
      "v": 85
    },
    {
      "midi": 81,
      "hit": false,
      "t": 158702.0833333333,
      "d": 170.83333333334303,
      "v": 86
    },
    {
      "midi": 52,
      "hit": false,
      "t": 158708.3333333333,
      "d": 60.416666666656965,
      "v": 84
    },
    {
      "midi": 83,
      "hit": false,
      "t": 158852.0833333333,
      "d": 220.83333333334303,
      "v": 90
    },
    {
      "midi": 57,
      "hit": false,
      "t": 159075,
      "d": 883.3333333333139,
      "v": 71
    },
    {
      "midi": 85,
      "hit": false,
      "t": 159087.5,
      "d": 62.5,
      "v": 87
    },
    {
      "midi": 61,
      "hit": false,
      "t": 159091.66666666666,
      "d": 908.3333333333139,
      "v": 83
    },
    {
      "midi": 88,
      "hit": false,
      "t": 159385.41666666666,
      "d": 245.83333333334303,
      "v": 70
    },
    {
      "midi": 93,
      "hit": false,
      "t": 159593.75,
      "d": 222.91666666665697,
      "v": 62
    },
    {
      "midi": 97,
      "hit": false,
      "t": 159781.25,
      "d": 208.33333333331393,
      "v": 83
    },
    {
      "midi": 100,
      "hit": false,
      "t": 159985.41666666666,
      "d": 154.16666666665697,
      "v": 73
    },
    {
      "midi": 97,
      "hit": false,
      "t": 160181.24999999997,
      "d": 241.66666666665697,
      "v": 68
    },
    {
      "midi": 69,
      "hit": false,
      "t": 160399.99999999997,
      "d": 1277.083333333314,
      "v": 91
    },
    {
      "midi": 93,
      "hit": false,
      "t": 160437.49999999997,
      "d": 141.66666666665697,
      "v": 60
    },
    {
      "midi": 88,
      "hit": false,
      "t": 160633.33333333328,
      "d": 210.41666666665697,
      "v": 60
    },
    {
      "midi": 64,
      "hit": false,
      "t": 160895.83333333328,
      "d": 1152.083333333314,
      "v": 103
    },
    {
      "midi": 85,
      "hit": false,
      "t": 160937.49999999994,
      "d": 177.08333333334303,
      "v": 70
    },
    {
      "midi": 81,
      "hit": false,
      "t": 161120.83333333328,
      "d": 181.25,
      "v": 55
    },
    {
      "midi": 76,
      "hit": false,
      "t": 161333.33333333328,
      "d": 125,
      "v": 71
    },
    {
      "midi": 81,
      "hit": false,
      "t": 161495.83333333328,
      "d": 181.25,
      "v": 68
    },
    {
      "midi": 85,
      "hit": false,
      "t": 161656.24999999994,
      "d": 160.41666666665697,
      "v": 92
    },
    {
      "midi": 88,
      "hit": false,
      "t": 161812.49999999994,
      "d": 141.66666666665697,
      "v": 77
    },
    {
      "midi": 85,
      "hit": false,
      "t": 161977.08333333326,
      "d": 150,
      "v": 76
    },
    {
      "midi": 81,
      "hit": false,
      "t": 162143.7499999999,
      "d": 106.25,
      "v": 76
    },
    {
      "midi": 76,
      "hit": false,
      "t": 162318.7499999999,
      "d": 79.16666666665697,
      "v": 73
    },
    {
      "midi": 73,
      "hit": false,
      "t": 162493.7499999999,
      "d": 97.91666666665697,
      "v": 70
    },
    {
      "midi": 69,
      "hit": false,
      "t": 162664.58333333323,
      "d": 150,
      "v": 71
    },
    {
      "midi": 57,
      "hit": false,
      "t": 162679.16666666657,
      "d": 104.16666666665697,
      "v": 104
    },
    {
      "midi": 64,
      "hit": false,
      "t": 162862.49999999988,
      "d": 239.58333333334303,
      "v": 36
    },
    {
      "midi": 52,
      "hit": false,
      "t": 163116.66666666657,
      "d": 904.166666666657,
      "v": 104
    },
    {
      "midi": 69,
      "hit": false,
      "t": 163131.2499999999,
      "d": 177.08333333334303,
      "v": 68
    },
    {
      "midi": 73,
      "hit": false,
      "t": 163314.58333333326,
      "d": 183.33333333334303,
      "v": 82
    },
    {
      "midi": 76,
      "hit": false,
      "t": 163508.33333333326,
      "d": 116.66666666665697,
      "v": 64
    },
    {
      "midi": 73,
      "hit": false,
      "t": 163637.4999999999,
      "d": 135.41666666665697,
      "v": 92
    },
    {
      "midi": 69,
      "hit": false,
      "t": 163816.66666666657,
      "d": 125,
      "v": 61
    },
    {
      "midi": 64,
      "hit": false,
      "t": 163970.83333333323,
      "d": 85.41666666665697,
      "v": 77
    },
    {
      "midi": 61,
      "hit": false,
      "t": 164160.41666666654,
      "d": 110.41666666665697,
      "v": 70
    },
    {
      "midi": 57,
      "hit": false,
      "t": 164318.74999999985,
      "d": 110.41666666665697,
      "v": 68
    },
    {
      "midi": 52,
      "hit": false,
      "t": 164533.33333333317,
      "d": 118.75,
      "v": 70
    },
    {
      "midi": 49,
      "hit": false,
      "t": 164720.83333333317,
      "d": 75,
      "v": 60
    },
    {
      "midi": 45,
      "hit": false,
      "t": 164981.24999999983,
      "d": 1033.333333333343,
      "v": 81
    },
    {
      "midi": 33,
      "hit": false,
      "t": 164993.74999999983,
      "d": 995.833333333343,
      "v": 72
    },
    {
      "midi": 73,
      "hit": false,
      "t": 166816.66666666648,
      "d": 981.2499999999709,
      "v": 53
    },
    {
      "midi": 64,
      "hit": false,
      "t": 166835.41666666648,
      "d": 974.9999999999709,
      "v": 44
    },
    {
      "midi": 33,
      "hit": false,
      "t": 166845.83333333314,
      "d": 122.91666666665697,
      "v": 28
    },
    {
      "midi": 45,
      "hit": false,
      "t": 166849.9999999998,
      "d": 116.66666666665697,
      "v": 24
    },
    {
      "midi": 61,
      "hit": false,
      "t": 166856.2499999998,
      "d": 918.75,
      "v": 10
    },
    {
      "midi": 33,
      "hit": false,
      "t": 168981.2499999998,
      "d": 297.91666666668607,
      "v": 30
    },
    {
      "midi": 64,
      "hit": false,
      "t": 168983.33333333314,
      "d": 933.333333333343,
      "v": 30
    },
    {
      "midi": 69,
      "hit": false,
      "t": 168983.33333333314,
      "d": 987.5,
      "v": 26
    },
    {
      "midi": 61,
      "hit": false,
      "t": 168985.41666666648,
      "d": 895.833333333343,
      "v": 30
    },
    {
      "midi": 45,
      "hit": false,
      "t": 169006.24999999983,
      "d": 231.25,
      "v": 18
    }
  ]
}