{
  "jsonPath": "Unknown/Unknown/Sergio Tiempo/sonata-no-37-in-d-major-for-piano-hob-xvi37-iii-finale-presto-ma-non-troppo.json",
  "path": "Unknown\\Unknown\\Sergio Tiempo\\Sonata No 37 in D Major for Piano_ Hob XVI37 III Finale Presto ma non troppo.mid",
  "name": "Sonata No 37 in D Major for Piano_ Hob XVI37 III Finale Presto ma non troppo",
  "difficulty": "Advanced",
  "bpm": 120,
  "notes": [
    {
      "midi": 69,
      "hit": false,
      "t": 2218.75,
      "d": 65.10416666666652,
      "v": 36
    },
    {
      "midi": 69,
      "hit": false,
      "t": 2489.583333333333,
      "d": 429.6875,
      "v": 55
    },
    {
      "midi": 54,
      "hit": false,
      "t": 2690.1041666666665,
      "d": 75.52083333333348,
      "v": 41
    },
    {
      "midi": 50,
      "hit": false,
      "t": 2703.125,
      "d": 59.895833333333485,
      "v": 38
    },
    {
      "midi": 66,
      "hit": false,
      "t": 2908.8541666666665,
      "d": 161.45833333333348,
      "v": 55
    },
    {
      "midi": 54,
      "hit": false,
      "t": 2947.9166666666665,
      "d": 62.5,
      "v": 40
    },
    {
      "midi": 50,
      "hit": false,
      "t": 2947.9166666666665,
      "d": 67.70833333333348,
      "v": 35
    },
    {
      "midi": 74,
      "hit": false,
      "t": 3130.2083333333335,
      "d": 39.0625,
      "v": 73
    },
    {
      "midi": 74,
      "hit": false,
      "t": 3369.791666666667,
      "d": 453.125,
      "v": 75
    },
    {
      "midi": 55,
      "hit": false,
      "t": 3588.541666666667,
      "d": 65.10416666666652,
      "v": 49
    },
    {
      "midi": 52,
      "hit": false,
      "t": 3598.9583333333335,
      "d": 49.479166666666515,
      "v": 52
    },
    {
      "midi": 73,
      "hit": false,
      "t": 3809.8958333333335,
      "d": 93.75,
      "v": 66
    },
    {
      "midi": 55,
      "hit": false,
      "t": 3838.541666666667,
      "d": 57.291666666666515,
      "v": 48
    },
    {
      "midi": 52,
      "hit": false,
      "t": 3843.7500000000005,
      "d": 49.479166666666515,
      "v": 52
    },
    {
      "midi": 76,
      "hit": false,
      "t": 4044.2708333333335,
      "d": 44.270833333333485,
      "v": 66
    },
    {
      "midi": 76,
      "hit": false,
      "t": 4278.645833333334,
      "d": 346.35416666666606,
      "v": 68
    },
    {
      "midi": 61,
      "hit": false,
      "t": 4500.000000000001,
      "d": 54.6875,
      "v": 43
    },
    {
      "midi": 57,
      "hit": false,
      "t": 4510.416666666668,
      "d": 57.29166666666606,
      "v": 41
    },
    {
      "midi": 78,
      "hit": false,
      "t": 4604.166666666667,
      "d": 125,
      "v": 47
    },
    {
      "midi": 79,
      "hit": false,
      "t": 4708.333333333333,
      "d": 46.87500000000091,
      "v": 66
    },
    {
      "midi": 57,
      "hit": false,
      "t": 4718.75,
      "d": 65.10416666666697,
      "v": 32
    },
    {
      "midi": 61,
      "hit": false,
      "t": 4739.583333333334,
      "d": 49.47916666666606,
      "v": 50
    },
    {
      "midi": 79,
      "hit": false,
      "t": 4929.6875,
      "d": 39.0625,
      "v": 75
    },
    {
      "midi": 79,
      "hit": false,
      "t": 5179.6875,
      "d": 455.72916666666697,
      "v": 65
    },
    {
      "midi": 66,
      "hit": false,
      "t": 5380.208333333333,
      "d": 72.91666666666697,
      "v": 40
    },
    {
      "midi": 62,
      "hit": false,
      "t": 5385.416666666666,
      "d": 65.10416666666697,
      "v": 31
    },
    {
      "midi": 78,
      "hit": false,
      "t": 5609.375,
      "d": 85.9375,
      "v": 51
    },
    {
      "midi": 66,
      "hit": false,
      "t": 5645.833333333334,
      "d": 62.49999999999909,
      "v": 43
    },
    {
      "midi": 62,
      "hit": false,
      "t": 5658.854166666667,
      "d": 75.52083333333303,
      "v": 39
    },
    {
      "midi": 81,
      "hit": false,
      "t": 5833.333333333333,
      "d": 52.08333333333303,
      "v": 79
    },
    {
      "midi": 81,
      "hit": false,
      "t": 6065.104166666666,
      "d": 648.4374999999991,
      "v": 82
    },
    {
      "midi": 61,
      "hit": false,
      "t": 6273.437499999999,
      "d": 49.47916666666606,
      "v": 51
    },
    {
      "midi": 64,
      "hit": false,
      "t": 6278.645833333332,
      "d": 59.89583333333303,
      "v": 57
    },
    {
      "midi": 61,
      "hit": false,
      "t": 6494.791666666665,
      "d": 75.52083333333303,
      "v": 69
    },
    {
      "midi": 64,
      "hit": false,
      "t": 6510.416666666665,
      "d": 39.0625,
      "v": 71
    },
    {
      "midi": 82,
      "hit": false,
      "t": 6695.312499999998,
      "d": 239.58333333333303,
      "v": 86
    },
    {
      "midi": 83,
      "hit": false,
      "t": 6929.687499999998,
      "d": 330.72916666666697,
      "v": 78
    },
    {
      "midi": 62,
      "hit": false,
      "t": 7148.437499999998,
      "d": 59.89583333333303,
      "v": 46
    },
    {
      "midi": 66,
      "hit": false,
      "t": 7153.645833333331,
      "d": 54.6875,
      "v": 47
    },
    {
      "midi": 85,
      "hit": false,
      "t": 7249.999999999998,
      "d": 78.125,
      "v": 68
    },
    {
      "midi": 88,
      "hit": false,
      "t": 7380.208333333331,
      "d": 49.47916666666697,
      "v": 71
    },
    {
      "midi": 66,
      "hit": false,
      "t": 7390.624999999998,
      "d": 49.47916666666697,
      "v": 47
    },
    {
      "midi": 62,
      "hit": false,
      "t": 7390.624999999998,
      "d": 54.6875,
      "v": 47
    },
    {
      "midi": 86,
      "hit": false,
      "t": 7489.583333333331,
      "d": 54.6875,
      "v": 61
    },
    {
      "midi": 66,
      "hit": false,
      "t": 7583.333333333331,
      "d": 57.29166666666606,
      "v": 37
    },
    {
      "midi": 85,
      "hit": false,
      "t": 7583.333333333331,
      "d": 70.3125,
      "v": 63
    },
    {
      "midi": 62,
      "hit": false,
      "t": 7588.541666666664,
      "d": 54.6875,
      "v": 47
    },
    {
      "midi": 83,
      "hit": false,
      "t": 7697.916666666664,
      "d": 46.875,
      "v": 50
    },
    {
      "midi": 61,
      "hit": false,
      "t": 7794.270833333331,
      "d": 39.0625,
      "v": 76
    },
    {
      "midi": 81,
      "hit": false,
      "t": 7794.270833333331,
      "d": 276.04166666666697,
      "v": 76
    },
    {
      "midi": 52,
      "hit": false,
      "t": 7804.687499999998,
      "d": 33.85416666666606,
      "v": 79
    },
    {
      "midi": 61,
      "hit": false,
      "t": 8020.833333333331,
      "d": 49.47916666666697,
      "v": 59
    },
    {
      "midi": 52,
      "hit": false,
      "t": 8028.645833333331,
      "d": 41.66666666666697,
      "v": 64
    },
    {
      "midi": 81,
      "hit": false,
      "t": 8184.895833333331,
      "d": 39.06250000000091,
      "v": 68
    },
    {
      "midi": 80,
      "hit": false,
      "t": 8239.583333333332,
      "d": 49.47916666666606,
      "v": 69
    },
    {
      "midi": 59,
      "hit": false,
      "t": 8249.999999999998,
      "d": 39.0625,
      "v": 45
    },
    {
      "midi": 52,
      "hit": false,
      "t": 8252.604166666664,
      "d": 54.6875,
      "v": 41
    },
    {
      "midi": 81,
      "hit": false,
      "t": 8299.479166666664,
      "d": 44.27083333333394,
      "v": 78
    },
    {
      "midi": 80,
      "hit": false,
      "t": 8369.791666666664,
      "d": 49.47916666666606,
      "v": 58
    },
    {
      "midi": 81,
      "hit": false,
      "t": 8424.479166666664,
      "d": 85.9375,
      "v": 68
    },
    {
      "midi": 59,
      "hit": false,
      "t": 8453.124999999998,
      "d": 46.875,
      "v": 39
    },
    {
      "midi": 52,
      "hit": false,
      "t": 8458.333333333332,
      "d": 62.49999999999818,
      "v": 41
    },
    {
      "midi": 80,
      "hit": false,
      "t": 8484.374999999998,
      "d": 88.54166666666606,
      "v": 68
    },
    {
      "midi": 81,
      "hit": false,
      "t": 8624.999999999998,
      "d": 44.27083333333394,
      "v": 67
    },
    {
      "midi": 81,
      "hit": false,
      "t": 8744.791666666666,
      "d": 234.37500000000182,
      "v": 66
    },
    {
      "midi": 57,
      "hit": false,
      "t": 8750,
      "d": 265.6250000000018,
      "v": 44
    },
    {
      "midi": 45,
      "hit": false,
      "t": 8755.208333333334,
      "d": 239.58333333333394,
      "v": 41
    },
    {
      "midi": 69,
      "hit": false,
      "t": 9500.000000000002,
      "d": 59.89583333333394,
      "v": 42
    },
    {
      "midi": 69,
      "hit": false,
      "t": 9744.79166666667,
      "d": 450.52083333333394,
      "v": 64
    },
    {
      "midi": 54,
      "hit": false,
      "t": 9953.125000000004,
      "d": 67.70833333333394,
      "v": 49
    },
    {
      "midi": 50,
      "hit": false,
      "t": 9958.333333333338,
      "d": 65.10416666666606,
      "v": 44
    },
    {
      "midi": 66,
      "hit": false,
      "t": 10174.47916666667,
      "d": 179.68750000000182,
      "v": 58
    },
    {
      "midi": 54,
      "hit": false,
      "t": 10208.333333333338,
      "d": 70.3125,
      "v": 37
    },
    {
      "midi": 50,
      "hit": false,
      "t": 10213.541666666672,
      "d": 65.10416666666606,
      "v": 50
    },
    {
      "midi": 74,
      "hit": false,
      "t": 10408.854166666672,
      "d": 36.45833333333394,
      "v": 75
    },
    {
      "midi": 74,
      "hit": false,
      "t": 10648.437500000005,
      "d": 471.3541666666697,
      "v": 73
    },
    {
      "midi": 52,
      "hit": false,
      "t": 10864.58333333334,
      "d": 59.89583333333394,
      "v": 49
    },
    {
      "midi": 55,
      "hit": false,
      "t": 10864.58333333334,
      "d": 59.89583333333394,
      "v": 50
    },
    {
      "midi": 73,
      "hit": false,
      "t": 11093.750000000007,
      "d": 104.16666666666788,
      "v": 55
    },
    {
      "midi": 55,
      "hit": false,
      "t": 11114.583333333341,
      "d": 54.68750000000182,
      "v": 46
    },
    {
      "midi": 52,
      "hit": false,
      "t": 11125.00000000001,
      "d": 54.6875,
      "v": 50
    },
    {
      "midi": 76,
      "hit": false,
      "t": 11338.541666666675,
      "d": 41.66666666666606,
      "v": 68
    },
    {
      "midi": 76,
      "hit": false,
      "t": 11565.104166666675,
      "d": 375.0000000000018,
      "v": 68
    },
    {
      "midi": 61,
      "hit": false,
      "t": 11773.43750000001,
      "d": 59.89583333333394,
      "v": 42
    },
    {
      "midi": 57,
      "hit": false,
      "t": 11778.645833333343,
      "d": 59.89583333333394,
      "v": 51
    },
    {
      "midi": 78,
      "hit": false,
      "t": 11914.062500000011,
      "d": 109.37499999999818,
      "v": 53
    },
    {
      "midi": 79,
      "hit": false,
      "t": 12010.416666666677,
      "d": 39.06249999999818,
      "v": 70
    },
    {
      "midi": 61,
      "hit": false,
      "t": 12020.833333333343,
      "d": 49.47916666666606,
      "v": 50
    },
    {
      "midi": 57,
      "hit": false,
      "t": 12026.041666666675,
      "d": 49.47916666666788,
      "v": 45
    },
    {
      "midi": 79,
      "hit": false,
      "t": 12234.37500000001,
      "d": 44.27083333333394,
      "v": 77
    },
    {
      "midi": 79,
      "hit": false,
      "t": 12494.791666666677,
      "d": 484.3749999999982,
      "v": 79
    },
    {
      "midi": 66,
      "hit": false,
      "t": 12708.333333333343,
      "d": 70.3125,
      "v": 42
    },
    {
      "midi": 62,
      "hit": false,
      "t": 12718.75000000001,
      "d": 59.89583333333394,
      "v": 42
    },
    {
      "midi": 78,
      "hit": false,
      "t": 12953.12500000001,
      "d": 67.70833333333212,
      "v": 60
    },
    {
      "midi": 66,
      "hit": false,
      "t": 12963.541666666675,
      "d": 59.89583333333212,
      "v": 46
    },
    {
      "midi": 62,
      "hit": false,
      "t": 12973.958333333341,
      "d": 70.3125,
      "v": 41
    },
    {
      "midi": 81,
      "hit": false,
      "t": 13184.895833333341,
      "d": 39.0625,
      "v": 86
    },
    {
      "midi": 81,
      "hit": false,
      "t": 13445.312500000007,
      "d": 695.3125,
      "v": 86
    },
    {
      "midi": 61,
      "hit": false,
      "t": 13677.083333333341,
      "d": 80.72916666666606,
      "v": 36
    },
    {
      "midi": 64,
      "hit": false,
      "t": 13684.895833333341,
      "d": 54.6875,
      "v": 38
    },
    {
      "midi": 64,
      "hit": false,
      "t": 13940.104166666673,
      "d": 49.47916666666606,
      "v": 53
    },
    {
      "midi": 61,
      "hit": false,
      "t": 13942.70833333334,
      "d": 83.33333333333394,
      "v": 61
    },
    {
      "midi": 82,
      "hit": false,
      "t": 14140.625000000007,
      "d": 255.20833333333212,
      "v": 85
    },
    {
      "midi": 83,
      "hit": false,
      "t": 14385.416666666673,
      "d": 348.9583333333321,
      "v": 77
    },
    {
      "midi": 66,
      "hit": false,
      "t": 14609.375000000005,
      "d": 54.6875,
      "v": 45
    },
    {
      "midi": 62,
      "hit": false,
      "t": 14614.58333333334,
      "d": 65.10416666666606,
      "v": 40
    },
    {
      "midi": 85,
      "hit": false,
      "t": 14708.33333333334,
      "d": 106.77083333333212,
      "v": 75
    },
    {
      "midi": 66,
      "hit": false,
      "t": 14828.125000000005,
      "d": 62.5,
      "v": 53
    },
    {
      "midi": 62,
      "hit": false,
      "t": 14835.937500000005,
      "d": 59.89583333333394,
      "v": 40
    },
    {
      "midi": 88,
      "hit": false,
      "t": 14838.541666666672,
      "d": 114.58333333333394,
      "v": 76
    },
    {
      "midi": 86,
      "hit": false,
      "t": 14929.687500000005,
      "d": 65.10416666666606,
      "v": 80
    },
    {
      "midi": 85,
      "hit": false,
      "t": 15039.062500000005,
      "d": 119.79166666666788,
      "v": 76
    },
    {
      "midi": 66,
      "hit": false,
      "t": 15054.687500000005,
      "d": 54.6875,
      "v": 45
    },
    {
      "midi": 62,
      "hit": false,
      "t": 15059.89583333334,
      "d": 70.3125,
      "v": 29
    },
    {
      "midi": 83,
      "hit": false,
      "t": 15158.854166666673,
      "d": 65.10416666666606,
      "v": 63
    },
    {
      "midi": 61,
      "hit": false,
      "t": 15265.625000000005,
      "d": 39.0625,
      "v": 76
    },
    {
      "midi": 52,
      "hit": false,
      "t": 15265.625000000005,
      "d": 44.27083333333394,
      "v": 83
    },
    {
      "midi": 81,
      "hit": false,
      "t": 15270.83333333334,
      "d": 302.08333333333394,
      "v": 79
    },
    {
      "midi": 52,
      "hit": false,
      "t": 15505.20833333334,
      "d": 44.27083333333394,
      "v": 73
    },
    {
      "midi": 61,
      "hit": false,
      "t": 15505.20833333334,
      "d": 44.27083333333394,
      "v": 68
    },
    {
      "midi": 81,
      "hit": false,
      "t": 15684.89583333334,
      "d": 44.27083333333394,
      "v": 71
    },
    {
      "midi": 52,
      "hit": false,
      "t": 15723.95833333334,
      "d": 41.66666666666606,
      "v": 77
    },
    {
      "midi": 59,
      "hit": false,
      "t": 15723.95833333334,
      "d": 41.66666666666606,
      "v": 63
    },
    {
      "midi": 80,
      "hit": false,
      "t": 15755.20833333334,
      "d": 39.0625,
      "v": 65
    },
    {
      "midi": 81,
      "hit": false,
      "t": 15804.687500000005,
      "d": 39.0625,
      "v": 77
    },
    {
      "midi": 80,
      "hit": false,
      "t": 15869.791666666672,
      "d": 33.85416666666606,
      "v": 70
    },
    {
      "midi": 81,
      "hit": false,
      "t": 15914.062500000004,
      "d": 49.47916666666606,
      "v": 78
    },
    {
      "midi": 59,
      "hit": false,
      "t": 15947.91666666667,
      "d": 46.875,
      "v": 53
    },
    {
      "midi": 52,
      "hit": false,
      "t": 15953.125000000004,
      "d": 52.08333333333212,
      "v": 62
    },
    {
      "midi": 80,
      "hit": false,
      "t": 15973.958333333336,
      "d": 114.58333333333394,
      "v": 65
    },
    {
      "midi": 81,
      "hit": false,
      "t": 16148.437500000004,
      "d": 36.45833333333394,
      "v": 74
    },
    {
      "midi": 45,
      "hit": false,
      "t": 16250.000000000004,
      "d": 216.14583333333212,
      "v": 43
    },
    {
      "midi": 81,
      "hit": false,
      "t": 16250.000000000004,
      "d": 234.375,
      "v": 86
    },
    {
      "midi": 57,
      "hit": false,
      "t": 16250.000000000004,
      "d": 268.2291666666679,
      "v": 46
    },
    {
      "midi": 81,
      "hit": false,
      "t": 16984.375000000004,
      "d": 59.89583333333212,
      "v": 51
    },
    {
      "midi": 81,
      "hit": false,
      "t": 17260.416666666668,
      "d": 494.7916666666679,
      "v": 68
    },
    {
      "midi": 66,
      "hit": false,
      "t": 17484.375,
      "d": 65.10416666666788,
      "v": 44
    },
    {
      "midi": 69,
      "hit": false,
      "t": 17494.791666666668,
      "d": 65.10416666666788,
      "v": 39
    },
    {
      "midi": 75,
      "hit": false,
      "t": 17739.583333333336,
      "d": 190.10416666666788,
      "v": 42
    },
    {
      "midi": 69,
      "hit": false,
      "t": 17744.791666666668,
      "d": 65.10416666666788,
      "v": 56
    },
    {
      "midi": 66,
      "hit": false,
      "t": 17752.604166666668,
      "d": 106.77083333333576,
      "v": 32
    },
    {
      "midi": 83,
      "hit": false,
      "t": 17963.54166666667,
      "d": 46.875,
      "v": 68
    },
    {
      "midi": 83,
      "hit": false,
      "t": 18223.95833333334,
      "d": 515.6249999999964,
      "v": 68
    },
    {
      "midi": 71,
      "hit": false,
      "t": 18458.33333333334,
      "d": 57.29166666666424,
      "v": 40
    },
    {
      "midi": 67,
      "hit": false,
      "t": 18471.35416666667,
      "d": 65.10416666666424,
      "v": 37
    },
    {
      "midi": 71,
      "hit": false,
      "t": 18729.166666666668,
      "d": 75.52083333333576,
      "v": 33
    },
    {
      "midi": 76,
      "hit": false,
      "t": 18729.166666666668,
      "d": 239.58333333333576,
      "v": 58
    },
    {
      "midi": 67,
      "hit": false,
      "t": 18731.770833333336,
      "d": 54.6875,
      "v": 41
    },
    {
      "midi": 79,
      "hit": false,
      "t": 18953.125000000004,
      "d": 67.70833333333212,
      "v": 77
    },
    {
      "midi": 79,
      "hit": false,
      "t": 19190.104166666668,
      "d": 299.4791666666679,
      "v": 78
    },
    {
      "midi": 61,
      "hit": false,
      "t": 19197.916666666668,
      "d": 41.66666666666788,
      "v": 69
    },
    {
      "midi": 69,
      "hit": false,
      "t": 19208.333333333336,
      "d": 46.875,
      "v": 61
    },
    {
      "midi": 69,
      "hit": false,
      "t": 19440.104166666668,
      "d": 54.6875,
      "v": 50
    },
    {
      "midi": 61,
      "hit": false,
      "t": 19442.708333333336,
      "d": 93.75,
      "v": 56
    },
    {
      "midi": 81,
      "hit": false,
      "t": 19528.645833333336,
      "d": 54.6875,
      "v": 57
    },
    {
      "midi": 79,
      "hit": false,
      "t": 19604.166666666668,
      "d": 91.14583333333576,
      "v": 59
    },
    {
      "midi": 78,
      "hit": false,
      "t": 19690.104166666668,
      "d": 44.27083333333576,
      "v": 68
    },
    {
      "midi": 62,
      "hit": false,
      "t": 19692.708333333336,
      "d": 52.08333333333576,
      "v": 47
    },
    {
      "midi": 69,
      "hit": false,
      "t": 19695.312500000004,
      "d": 59.89583333333576,
      "v": 37
    },
    {
      "midi": 78,
      "hit": false,
      "t": 19903.64583333334,
      "d": 41.66666666666788,
      "v": 75
    },
    {
      "midi": 62,
      "hit": false,
      "t": 19914.062500000007,
      "d": 59.89583333333212,
      "v": 47
    },
    {
      "midi": 76,
      "hit": false,
      "t": 20184.89583333334,
      "d": 249.99999999999636,
      "v": 60
    },
    {
      "midi": 69,
      "hit": false,
      "t": 20190.10416666667,
      "d": 169.27083333333212,
      "v": 44
    },
    {
      "midi": 57,
      "hit": false,
      "t": 20197.91666666667,
      "d": 307.29166666666424,
      "v": 30
    },
    {
      "midi": 73,
      "hit": false,
      "t": 20414.062500000004,
      "d": 106.77083333333212,
      "v": 46
    },
    {
      "midi": 69,
      "hit": false,
      "t": 20640.625,
      "d": 49.47916666666788,
      "v": 47
    },
    {
      "midi": 66,
      "hit": false,
      "t": 20867.1875,
      "d": 44.27083333333576,
      "v": 75
    },
    {
      "midi": 69,
      "hit": false,
      "t": 20869.791666666668,
      "d": 39.0625,
      "v": 87
    },
    {
      "midi": 66,
      "hit": false,
      "t": 21119.791666666668,
      "d": 260.4166666666679,
      "v": 95
    },
    {
      "midi": 69,
      "hit": false,
      "t": 21119.791666666668,
      "d": 450.52083333333576,
      "v": 108
    },
    {
      "midi": 38,
      "hit": false,
      "t": 21348.958333333336,
      "d": 65.10416666666788,
      "v": 88
    },
    {
      "midi": 50,
      "hit": false,
      "t": 21348.958333333336,
      "d": 98.95833333333576,
      "v": 93
    },
    {
      "midi": 66,
      "hit": false,
      "t": 21572.91666666667,
      "d": 75.52083333333212,
      "v": 95
    },
    {
      "midi": 62,
      "hit": false,
      "t": 21578.125000000004,
      "d": 46.875,
      "v": 84
    },
    {
      "midi": 50,
      "hit": false,
      "t": 21588.54166666667,
      "d": 75.52083333333212,
      "v": 94
    },
    {
      "midi": 38,
      "hit": false,
      "t": 21593.750000000004,
      "d": 52.08333333333212,
      "v": 96
    },
    {
      "midi": 66,
      "hit": false,
      "t": 21799.47916666667,
      "d": 104.16666666666424,
      "v": 88
    },
    {
      "midi": 74,
      "hit": false,
      "t": 21804.687500000004,
      "d": 70.3125,
      "v": 104
    },
    {
      "midi": 66,
      "hit": false,
      "t": 22049.479166666668,
      "d": 273.4375,
      "v": 97
    },
    {
      "midi": 74,
      "hit": false,
      "t": 22054.6875,
      "d": 455.7291666666679,
      "v": 110
    },
    {
      "midi": 45,
      "hit": false,
      "t": 22304.6875,
      "d": 33.85416666666788,
      "v": 88
    },
    {
      "midi": 57,
      "hit": false,
      "t": 22304.6875,
      "d": 44.27083333333576,
      "v": 78
    },
    {
      "midi": 73,
      "hit": false,
      "t": 22510.416666666668,
      "d": 124.99999999999636,
      "v": 92
    },
    {
      "midi": 64,
      "hit": false,
      "t": 22515.625,
      "d": 54.6875,
      "v": 93
    },
    {
      "midi": 57,
      "hit": false,
      "t": 22523.4375,
      "d": 75.52083333333212,
      "v": 89
    },
    {
      "midi": 45,
      "hit": false,
      "t": 22539.0625,
      "d": 44.27083333333212,
      "v": 88
    },
    {
      "midi": 73,
      "hit": false,
      "t": 22734.374999999996,
      "d": 54.6875,
      "v": 77
    },
    {
      "midi": 76,
      "hit": false,
      "t": 22739.58333333333,
      "d": 83.33333333333576,
      "v": 106
    },
    {
      "midi": 73,
      "hit": false,
      "t": 22984.374999999996,
      "d": 218.75,
      "v": 95
    },
    {
      "midi": 76,
      "hit": false,
      "t": 22984.374999999996,
      "d": 294.2708333333321,
      "v": 111
    },
    {
      "midi": 57,
      "hit": false,
      "t": 23208.33333333333,
      "d": 52.08333333333212,
      "v": 80
    },
    {
      "midi": 45,
      "hit": false,
      "t": 23213.54166666666,
      "d": 46.875,
      "v": 80
    },
    {
      "midi": 74,
      "hit": false,
      "t": 23333.33333333333,
      "d": 114.58333333333212,
      "v": 84
    },
    {
      "midi": 78,
      "hit": false,
      "t": 23333.33333333333,
      "d": 161.45833333333212,
      "v": 83
    },
    {
      "midi": 76,
      "hit": false,
      "t": 23429.687499999993,
      "d": 39.0625,
      "v": 105
    },
    {
      "midi": 79,
      "hit": false,
      "t": 23429.687499999993,
      "d": 93.75,
      "v": 101
    },
    {
      "midi": 57,
      "hit": false,
      "t": 23440.10416666666,
      "d": 93.75,
      "v": 87
    },
    {
      "midi": 45,
      "hit": false,
      "t": 23445.312499999993,
      "d": 49.47916666666788,
      "v": 87
    },
    {
      "midi": 76,
      "hit": false,
      "t": 23658.85416666666,
      "d": 36.45833333333212,
      "v": 98
    },
    {
      "midi": 79,
      "hit": false,
      "t": 23658.85416666666,
      "d": 44.27083333333212,
      "v": 97
    },
    {
      "midi": 79,
      "hit": false,
      "t": 23898.437499999993,
      "d": 486.97916666666424,
      "v": 110
    },
    {
      "midi": 76,
      "hit": false,
      "t": 23903.645833333325,
      "d": 445.3125,
      "v": 110
    },
    {
      "midi": 62,
      "hit": false,
      "t": 24124.999999999993,
      "d": 49.47916666666424,
      "v": 82
    },
    {
      "midi": 50,
      "hit": false,
      "t": 24130.208333333325,
      "d": 44.27083333333212,
      "v": 86
    },
    {
      "midi": 74,
      "hit": false,
      "t": 24359.374999999993,
      "d": 44.27083333333212,
      "v": 86
    },
    {
      "midi": 78,
      "hit": false,
      "t": 24359.374999999993,
      "d": 93.74999999999636,
      "v": 86
    },
    {
      "midi": 62,
      "hit": false,
      "t": 24374.999999999993,
      "d": 49.47916666666424,
      "v": 74
    },
    {
      "midi": 50,
      "hit": false,
      "t": 24380.208333333325,
      "d": 44.27083333333212,
      "v": 71
    },
    {
      "midi": 81,
      "hit": false,
      "t": 24593.74999999999,
      "d": 36.45833333333212,
      "v": 87
    },
    {
      "midi": 81,
      "hit": false,
      "t": 24854.166666666653,
      "d": 450.5208333333321,
      "v": 92
    },
    {
      "midi": 66,
      "hit": false,
      "t": 25088.541666666653,
      "d": 65.10416666666788,
      "v": 48
    },
    {
      "midi": 62,
      "hit": false,
      "t": 25088.541666666653,
      "d": 85.9375,
      "v": 53
    },
    {
      "midi": 60,
      "hit": false,
      "t": 25096.354166666653,
      "d": 65.10416666666788,
      "v": 41
    },
    {
      "midi": 74,
      "hit": false,
      "t": 25322.916666666653,
      "d": 145.83333333333212,
      "v": 91
    },
    {
      "midi": 60,
      "hit": false,
      "t": 25328.124999999985,
      "d": 75.52083333333212,
      "v": 46
    },
    {
      "midi": 62,
      "hit": false,
      "t": 25328.124999999985,
      "d": 85.9375,
      "v": 58
    },
    {
      "midi": 66,
      "hit": false,
      "t": 25328.124999999985,
      "d": 119.79166666666788,
      "v": 75
    },
    {
      "midi": 86,
      "hit": false,
      "t": 25528.645833333318,
      "d": 44.27083333333212,
      "v": 101
    },
    {
      "midi": 86,
      "hit": false,
      "t": 25783.85416666665,
      "d": 320.31249999999636,
      "v": 103
    },
    {
      "midi": 62,
      "hit": false,
      "t": 25999.99999999998,
      "d": 59.89583333333212,
      "v": 49
    },
    {
      "midi": 67,
      "hit": false,
      "t": 25999.99999999998,
      "d": 65.10416666666424,
      "v": 60
    },
    {
      "midi": 59,
      "hit": false,
      "t": 26005.208333333314,
      "d": 54.6875,
      "v": 45
    },
    {
      "midi": 83,
      "hit": false,
      "t": 26145.833333333314,
      "d": 39.0625,
      "v": 56
    },
    {
      "midi": 79,
      "hit": false,
      "t": 26239.583333333314,
      "d": 119.79166666666424,
      "v": 77
    },
    {
      "midi": 67,
      "hit": false,
      "t": 26249.99999999998,
      "d": 54.6875,
      "v": 65
    },
    {
      "midi": 62,
      "hit": false,
      "t": 26249.99999999998,
      "d": 65.10416666666424,
      "v": 44
    },
    {
      "midi": 59,
      "hit": false,
      "t": 26255.208333333314,
      "d": 54.6875,
      "v": 50
    },
    {
      "midi": 83,
      "hit": false,
      "t": 26473.95833333331,
      "d": 49.47916666666788,
      "v": 81
    },
    {
      "midi": 81,
      "hit": false,
      "t": 26739.58333333331,
      "d": 309.89583333333576,
      "v": 85
    },
    {
      "midi": 66,
      "hit": false,
      "t": 26945.312499999978,
      "d": 54.6875,
      "v": 52
    },
    {
      "midi": 57,
      "hit": false,
      "t": 26947.916666666646,
      "d": 52.08333333333212,
      "v": 61
    },
    {
      "midi": 78,
      "hit": false,
      "t": 27054.687499999978,
      "d": 54.6875,
      "v": 67
    },
    {
      "midi": 66,
      "hit": false,
      "t": 27153.64583333331,
      "d": 49.47916666666424,
      "v": 74
    },
    {
      "midi": 74,
      "hit": false,
      "t": 27158.854166666642,
      "d": 65.10416666666424,
      "v": 69
    },
    {
      "midi": 57,
      "hit": false,
      "t": 27166.666666666642,
      "d": 44.27083333333212,
      "v": 69
    },
    {
      "midi": 73,
      "hit": false,
      "t": 27398.437499999975,
      "d": 54.6875,
      "v": 80
    },
    {
      "midi": 64,
      "hit": false,
      "t": 27414.062499999975,
      "d": 39.0625,
      "v": 69
    },
    {
      "midi": 57,
      "hit": false,
      "t": 27424.479166666642,
      "d": 44.27083333333212,
      "v": 59
    },
    {
      "midi": 50,
      "hit": false,
      "t": 27695.312499999975,
      "d": 223.95833333333576,
      "v": 38
    },
    {
      "midi": 74,
      "hit": false,
      "t": 27695.312499999975,
      "d": 263.02083333333576,
      "v": 84
    },
    {
      "midi": 62,
      "hit": false,
      "t": 27697.916666666642,
      "d": 171.875,
      "v": 50
    },
    {
      "midi": 81,
      "hit": false,
      "t": 28458.33333333331,
      "d": 46.875,
      "v": 66
    },
    {
      "midi": 81,
      "hit": false,
      "t": 28718.749999999978,
      "d": 500.00000000000364,
      "v": 75
    },
    {
      "midi": 66,
      "hit": false,
      "t": 28945.312499999978,
      "d": 59.89583333333576,
      "v": 42
    },
    {
      "midi": 69,
      "hit": false,
      "t": 28947.916666666646,
      "d": 75.52083333333576,
      "v": 45
    },
    {
      "midi": 75,
      "hit": false,
      "t": 29190.10416666665,
      "d": 174.47916666666424,
      "v": 55
    },
    {
      "midi": 66,
      "hit": false,
      "t": 29197.91666666665,
      "d": 111.97916666666424,
      "v": 42
    },
    {
      "midi": 69,
      "hit": false,
      "t": 29203.12499999998,
      "d": 59.89583333333212,
      "v": 52
    },
    {
      "midi": 83,
      "hit": false,
      "t": 29414.06249999998,
      "d": 49.47916666666788,
      "v": 80
    },
    {
      "midi": 83,
      "hit": false,
      "t": 29679.68749999998,
      "d": 489.58333333333576,
      "v": 78
    },
    {
      "midi": 71,
      "hit": false,
      "t": 29908.85416666665,
      "d": 54.6875,
      "v": 43
    },
    {
      "midi": 67,
      "hit": false,
      "t": 29919.270833333318,
      "d": 59.89583333333212,
      "v": 42
    },
    {
      "midi": 71,
      "hit": false,
      "t": 30169.270833333318,
      "d": 65.10416666666424,
      "v": 37
    },
    {
      "midi": 76,
      "hit": false,
      "t": 30174.47916666665,
      "d": 164.0625,
      "v": 59
    },
    {
      "midi": 67,
      "hit": false,
      "t": 30179.68749999998,
      "d": 54.6875,
      "v": 51
    },
    {
      "midi": 79,
      "hit": false,
      "t": 30390.62499999998,
      "d": 33.85416666666788,
      "v": 85
    },
    {
      "midi": 61,
      "hit": false,
      "t": 30624.99999999998,
      "d": 54.68749999999636,
      "v": 58
    },
    {
      "midi": 79,
      "hit": false,
      "t": 30630.208333333314,
      "d": 223.95833333333212,
      "v": 68
    },
    {
      "midi": 69,
      "hit": false,
      "t": 30635.416666666646,
      "d": 54.6875,
      "v": 50
    },
    {
      "midi": 61,
      "hit": false,
      "t": 30893.229166666646,
      "d": 59.89583333333576,
      "v": 48
    },
    {
      "midi": 69,
      "hit": false,
      "t": 30895.833333333314,
      "d": 62.5,
      "v": 38
    },
    {
      "midi": 81,
      "hit": false,
      "t": 30898.43749999998,
      "d": 70.3125,
      "v": 41
    },
    {
      "midi": 79,
      "hit": false,
      "t": 30973.958333333314,
      "d": 65.10416666666788,
      "v": 57
    },
    {
      "midi": 78,
      "hit": false,
      "t": 31049.47916666665,
      "d": 44.27083333333212,
      "v": 81
    },
    {
      "midi": 62,
      "hit": false,
      "t": 31054.68749999998,
      "d": 54.6875,
      "v": 50
    },
    {
      "midi": 69,
      "hit": false,
      "t": 31054.68749999998,
      "d": 65.10416666666788,
      "v": 59
    },
    {
      "midi": 78,
      "hit": false,
      "t": 31283.85416666665,
      "d": 49.47916666666788,
      "v": 80
    },
    {
      "midi": 69,
      "hit": false,
      "t": 31302.083333333318,
      "d": 65.10416666666788,
      "v": 38
    },
    {
      "midi": 62,
      "hit": false,
      "t": 31304.687499999985,
      "d": 70.3125,
      "v": 29
    },
    {
      "midi": 76,
      "hit": false,
      "t": 31533.854166666653,
      "d": 239.58333333333212,
      "v": 78
    },
    {
      "midi": 69,
      "hit": false,
      "t": 31544.27083333332,
      "d": 125,
      "v": 43
    },
    {
      "midi": 57,
      "hit": false,
      "t": 31549.479166666653,
      "d": 325.5208333333321,
      "v": 50
    },
    {
      "midi": 73,
      "hit": false,
      "t": 31749.999999999985,
      "d": 158.85416666666788,
      "v": 57
    },
    {
      "midi": 69,
      "hit": false,
      "t": 31973.958333333318,
      "d": 59.89583333333212,
      "v": 71
    },
    {
      "midi": 66,
      "hit": false,
      "t": 32197.91666666665,
      "d": 46.875,
      "v": 72
    },
    {
      "midi": 69,
      "hit": false,
      "t": 32203.12499999998,
      "d": 41.66666666666788,
      "v": 92
    },
    {
      "midi": 66,
      "hit": false,
      "t": 32445.31249999998,
      "d": 252.60416666666424,
      "v": 95
    },
    {
      "midi": 69,
      "hit": false,
      "t": 32445.31249999998,
      "d": 458.3333333333321,
      "v": 102
    },
    {
      "midi": 50,
      "hit": false,
      "t": 32669.270833333314,
      "d": 44.27083333333212,
      "v": 85
    },
    {
      "midi": 38,
      "hit": false,
      "t": 32674.479166666646,
      "d": 39.0625,
      "v": 85
    },
    {
      "midi": 66,
      "hit": false,
      "t": 32903.645833333314,
      "d": 59.89583333332121,
      "v": 88
    },
    {
      "midi": 62,
      "hit": false,
      "t": 32914.06249999998,
      "d": 39.062499999992724,
      "v": 73
    },
    {
      "midi": 50,
      "hit": false,
      "t": 32924.47916666664,
      "d": 39.062499999992724,
      "v": 89
    },
    {
      "midi": 38,
      "hit": false,
      "t": 32934.89583333331,
      "d": 44.27083333332848,
      "v": 78
    },
    {
      "midi": 66,
      "hit": false,
      "t": 33130.2083333333,
      "d": 49.47916666667152,
      "v": 89
    },
    {
      "midi": 74,
      "hit": false,
      "t": 33135.416666666635,
      "d": 59.89583333333576,
      "v": 105
    },
    {
      "midi": 66,
      "hit": false,
      "t": 33395.83333333331,
      "d": 307.2916666666715,
      "v": 93
    },
    {
      "midi": 74,
      "hit": false,
      "t": 33395.83333333331,
      "d": 468.7500000000073,
      "v": 108
    },
    {
      "midi": 57,
      "hit": false,
      "t": 33640.62499999998,
      "d": 39.0625,
      "v": 92
    },
    {
      "midi": 45,
      "hit": false,
      "t": 33645.833333333314,
      "d": 44.27083333332848,
      "v": 85
    },
    {
      "midi": 64,
      "hit": false,
      "t": 33859.37499999998,
      "d": 54.6875,
      "v": 93
    },
    {
      "midi": 73,
      "hit": false,
      "t": 33859.37499999998,
      "d": 119.79166666666424,
      "v": 91
    },
    {
      "midi": 57,
      "hit": false,
      "t": 33864.583333333314,
      "d": 83.33333333332848,
      "v": 91
    },
    {
      "midi": 45,
      "hit": false,
      "t": 33864.583333333314,
      "d": 104.16666666666424,
      "v": 91
    },
    {
      "midi": 73,
      "hit": false,
      "t": 34072.91666666664,
      "d": 106.77083333332848,
      "v": 84
    },
    {
      "midi": 76,
      "hit": false,
      "t": 34083.33333333331,
      "d": 85.9375,
      "v": 108
    },
    {
      "midi": 76,
      "hit": false,
      "t": 34328.12499999997,
      "d": 270.83333333334303,
      "v": 110
    },
    {
      "midi": 73,
      "hit": false,
      "t": 34328.12499999997,
      "d": 346.3541666666788,
      "v": 95
    },
    {
      "midi": 57,
      "hit": false,
      "t": 34539.06249999997,
      "d": 54.687500000007276,
      "v": 73
    },
    {
      "midi": 45,
      "hit": false,
      "t": 34544.27083333331,
      "d": 44.27083333333576,
      "v": 78
    },
    {
      "midi": 74,
      "hit": false,
      "t": 34674.47916666665,
      "d": 125,
      "v": 79
    },
    {
      "midi": 78,
      "hit": false,
      "t": 34679.687499999985,
      "d": 130.20833333332848,
      "v": 76
    },
    {
      "midi": 79,
      "hit": false,
      "t": 34760.41666666666,
      "d": 104.16666666665697,
      "v": 100
    },
    {
      "midi": 76,
      "hit": false,
      "t": 34770.83333333332,
      "d": 39.062499999992724,
      "v": 99
    },
    {
      "midi": 57,
      "hit": false,
      "t": 34770.83333333332,
      "d": 109.37499999999272,
      "v": 91
    },
    {
      "midi": 45,
      "hit": false,
      "t": 34773.437499999985,
      "d": 65.10416666666424,
      "v": 84
    },
    {
      "midi": 76,
      "hit": false,
      "t": 34994.79166666665,
      "d": 39.0625,
      "v": 100
    },
    {
      "midi": 79,
      "hit": false,
      "t": 34994.79166666665,
      "d": 75.52083333333576,
      "v": 97
    },
    {
      "midi": 76,
      "hit": false,
      "t": 35229.16666666665,
      "d": 450.52083333333576,
      "v": 110
    },
    {
      "midi": 79,
      "hit": false,
      "t": 35229.16666666665,
      "d": 468.7500000000073,
      "v": 106
    },
    {
      "midi": 62,
      "hit": false,
      "t": 35447.91666666665,
      "d": 57.29166666667152,
      "v": 75
    },
    {
      "midi": 50,
      "hit": false,
      "t": 35453.124999999985,
      "d": 62.5,
      "v": 72
    },
    {
      "midi": 78,
      "hit": false,
      "t": 35679.687499999985,
      "d": 109.37500000000728,
      "v": 88
    },
    {
      "midi": 74,
      "hit": false,
      "t": 35684.89583333332,
      "d": 49.47916666667152,
      "v": 84
    },
    {
      "midi": 50,
      "hit": false,
      "t": 35690.10416666666,
      "d": 39.0625,
      "v": 85
    },
    {
      "midi": 62,
      "hit": false,
      "t": 35695.31249999999,
      "d": 49.47916666666424,
      "v": 75
    },
    {
      "midi": 81,
      "hit": false,
      "t": 35908.85416666666,
      "d": 36.45833333333576,
      "v": 83
    },
    {
      "midi": 81,
      "hit": false,
      "t": 36148.43749999999,
      "d": 466.14583333333576,
      "v": 92
    },
    {
      "midi": 62,
      "hit": false,
      "t": 36374.99999999999,
      "d": 70.31250000000728,
      "v": 36
    },
    {
      "midi": 66,
      "hit": false,
      "t": 36380.20833333333,
      "d": 59.89583333333576,
      "v": 50
    },
    {
      "midi": 60,
      "hit": false,
      "t": 36380.20833333333,
      "d": 65.10416666667152,
      "v": 39
    },
    {
      "midi": 66,
      "hit": false,
      "t": 36614.58333333333,
      "d": 75.52083333333576,
      "v": 57
    },
    {
      "midi": 62,
      "hit": false,
      "t": 36619.791666666664,
      "d": 88.54166666667152,
      "v": 25
    },
    {
      "midi": 74,
      "hit": false,
      "t": 36625,
      "d": 145.83333333333576,
      "v": 81
    },
    {
      "midi": 60,
      "hit": false,
      "t": 36635.416666666664,
      "d": 67.70833333333576,
      "v": 31
    },
    {
      "midi": 86,
      "hit": false,
      "t": 36833.333333333336,
      "d": 52.08333333333576,
      "v": 100
    },
    {
      "midi": 86,
      "hit": false,
      "t": 37078.12500000001,
      "d": 325.52083333333576,
      "v": 107
    },
    {
      "midi": 62,
      "hit": false,
      "t": 37299.47916666667,
      "d": 70.3125,
      "v": 51
    },
    {
      "midi": 67,
      "hit": false,
      "t": 37299.47916666667,
      "d": 70.3125,
      "v": 48
    },
    {
      "midi": 59,
      "hit": false,
      "t": 37315.10416666667,
      "d": 59.89583333333576,
      "v": 37
    },
    {
      "midi": 83,
      "hit": false,
      "t": 37445.31250000001,
      "d": 44.27083333333576,
      "v": 47
    },
    {
      "midi": 67,
      "hit": false,
      "t": 37533.85416666668,
      "d": 59.89583333332848,
      "v": 79
    },
    {
      "midi": 79,
      "hit": false,
      "t": 37533.85416666668,
      "d": 101.5625,
      "v": 75
    },
    {
      "midi": 62,
      "hit": false,
      "t": 37549.47916666668,
      "d": 65.10416666666424,
      "v": 41
    },
    {
      "midi": 59,
      "hit": false,
      "t": 37552.08333333334,
      "d": 54.6875,
      "v": 52
    },
    {
      "midi": 83,
      "hit": false,
      "t": 37765.625000000015,
      "d": 39.0625,
      "v": 75
    },
    {
      "midi": 81,
      "hit": false,
      "t": 38033.85416666668,
      "d": 315.10416666666424,
      "v": 86
    },
    {
      "midi": 66,
      "hit": false,
      "t": 38221.35416666668,
      "d": 65.10416666666424,
      "v": 56
    },
    {
      "midi": 57,
      "hit": false,
      "t": 38231.77083333334,
      "d": 59.89583333333576,
      "v": 42
    },
    {
      "midi": 78,
      "hit": false,
      "t": 38354.16666666668,
      "d": 59.89583333333576,
      "v": 64
    },
    {
      "midi": 66,
      "hit": false,
      "t": 38466.14583333335,
      "d": 54.687499999992724,
      "v": 58
    },
    {
      "midi": 74,
      "hit": false,
      "t": 38468.750000000015,
      "d": 54.687499999992724,
      "v": 62
    },
    {
      "midi": 57,
      "hit": false,
      "t": 38479.16666666668,
      "d": 54.687499999992724,
      "v": 34
    },
    {
      "midi": 73,
      "hit": false,
      "t": 38703.12500000001,
      "d": 57.29166666667152,
      "v": 68
    },
    {
      "midi": 64,
      "hit": false,
      "t": 38716.14583333334,
      "d": 65.10416666666424,
      "v": 34
    },
    {
      "midi": 57,
      "hit": false,
      "t": 38729.16666666668,
      "d": 49.47916666666424,
      "v": 44
    },
    {
      "midi": 74,
      "hit": false,
      "t": 39039.06250000001,
      "d": 325.52083333333576,
      "v": 85
    },
    {
      "midi": 62,
      "hit": false,
      "t": 39041.66666666667,
      "d": 169.27083333333576,
      "v": 39
    },
    {
      "midi": 50,
      "hit": false,
      "t": 39054.68750000001,
      "d": 304.6875,
      "v": 41
    },
    {
      "midi": 69,
      "hit": false,
      "t": 39898.43750000001,
      "d": 130.20833333332848,
      "v": 81
    },
    {
      "midi": 67,
      "hit": false,
      "t": 40010.41666666667,
      "d": 138.02083333332848,
      "v": 94
    },
    {
      "midi": 57,
      "hit": false,
      "t": 40104.16666666667,
      "d": 124.99999999999272,
      "v": 102
    },
    {
      "midi": 65,
      "hit": false,
      "t": 40114.583333333336,
      "d": 98.95833333332848,
      "v": 111
    },
    {
      "midi": 53,
      "hit": false,
      "t": 40114.583333333336,
      "d": 114.58333333332848,
      "v": 95
    },
    {
      "midi": 50,
      "hit": false,
      "t": 40114.583333333336,
      "d": 151.04166666666424,
      "v": 95
    },
    {
      "midi": 61,
      "hit": false,
      "t": 40583.333333333336,
      "d": 166.66666666667152,
      "v": 91
    },
    {
      "midi": 55,
      "hit": false,
      "t": 40588.54166666667,
      "d": 119.79166666667152,
      "v": 95
    },
    {
      "midi": 52,
      "hit": false,
      "t": 40593.75000000001,
      "d": 96.35416666666424,
      "v": 93
    },
    {
      "midi": 64,
      "hit": false,
      "t": 40593.75000000001,
      "d": 114.58333333333576,
      "v": 102
    },
    {
      "midi": 45,
      "hit": false,
      "t": 40593.75000000001,
      "d": 125,
      "v": 97
    },
    {
      "midi": 49,
      "hit": false,
      "t": 40593.75000000001,
      "d": 130.20833333333576,
      "v": 84
    },
    {
      "midi": 62,
      "hit": false,
      "t": 41065.10416666667,
      "d": 143.22916666667152,
      "v": 102
    },
    {
      "midi": 53,
      "hit": false,
      "t": 41070.31250000001,
      "d": 93.75,
      "v": 99
    },
    {
      "midi": 58,
      "hit": false,
      "t": 41070.31250000001,
      "d": 184.89583333333576,
      "v": 97
    },
    {
      "midi": 46,
      "hit": false,
      "t": 41072.91666666667,
      "d": 122.39583333333576,
      "v": 89
    },
    {
      "midi": 50,
      "hit": false,
      "t": 41078.12500000001,
      "d": 67.70833333333576,
      "v": 85
    },
    {
      "midi": 74,
      "hit": false,
      "t": 41804.68750000001,
      "d": 49.47916666667152,
      "v": 60
    },
    {
      "midi": 65,
      "hit": false,
      "t": 41809.89583333334,
      "d": 54.6875,
      "v": 48
    },
    {
      "midi": 67,
      "hit": false,
      "t": 42065.10416666668,
      "d": 643.229166666657,
      "v": 61
    },
    {
      "midi": 76,
      "hit": false,
      "t": 42070.312500000015,
      "d": 252.60416666666424,
      "v": 68
    },
    {
      "midi": 79,
      "hit": false,
      "t": 42320.312500000015,
      "d": 114.58333333332848,
      "v": 69
    },
    {
      "midi": 77,
      "hit": false,
      "t": 42434.89583333334,
      "d": 88.54166666666424,
      "v": 73
    },
    {
      "midi": 76,
      "hit": false,
      "t": 42520.83333333334,
      "d": 44.27083333332848,
      "v": 76
    },
    {
      "midi": 68,
      "hit": false,
      "t": 42729.16666666667,
      "d": 65.10416666667152,
      "v": 53
    },
    {
      "midi": 74,
      "hit": false,
      "t": 42734.37500000001,
      "d": 44.27083333333576,
      "v": 74
    },
    {
      "midi": 73,
      "hit": false,
      "t": 42973.95833333334,
      "d": 221.35416666667152,
      "v": 54
    },
    {
      "midi": 69,
      "hit": false,
      "t": 42979.16666666668,
      "d": 247.39583333333576,
      "v": 47
    },
    {
      "midi": 81,
      "hit": false,
      "t": 43234.375000000015,
      "d": 119.79166666667152,
      "v": 55
    },
    {
      "midi": 69,
      "hit": false,
      "t": 43484.37500000002,
      "d": 98.95833333333576,
      "v": 44
    },
    {
      "midi": 72,
      "hit": false,
      "t": 43734.37500000002,
      "d": 88.54166666666424,
      "v": 87
    },
    {
      "midi": 70,
      "hit": false,
      "t": 43815.104166666686,
      "d": 75.52083333333576,
      "v": 94
    },
    {
      "midi": 53,
      "hit": false,
      "t": 43924.479166666686,
      "d": 44.27083333332848,
      "v": 83
    },
    {
      "midi": 57,
      "hit": false,
      "t": 43924.479166666686,
      "d": 44.27083333332848,
      "v": 83
    },
    {
      "midi": 69,
      "hit": false,
      "t": 43924.479166666686,
      "d": 65.10416666666424,
      "v": 106
    },
    {
      "midi": 60,
      "hit": false,
      "t": 43927.08333333335,
      "d": 33.85416666666424,
      "v": 91
    },
    {
      "midi": 58,
      "hit": false,
      "t": 44385.41666666668,
      "d": 109.375,
      "v": 95
    },
    {
      "midi": 67,
      "hit": false,
      "t": 44385.41666666668,
      "d": 109.375,
      "v": 97
    },
    {
      "midi": 48,
      "hit": false,
      "t": 44393.22916666668,
      "d": 49.47916666666424,
      "v": 92
    },
    {
      "midi": 52,
      "hit": false,
      "t": 44395.83333333334,
      "d": 39.0625,
      "v": 91
    },
    {
      "midi": 64,
      "hit": false,
      "t": 44395.83333333334,
      "d": 67.70833333333576,
      "v": 89
    },
    {
      "midi": 53,
      "hit": false,
      "t": 44890.625000000015,
      "d": 239.58333333333576,
      "v": 70
    },
    {
      "midi": 65,
      "hit": false,
      "t": 44890.625000000015,
      "d": 289.0625000000073,
      "v": 96
    },
    {
      "midi": 57,
      "hit": false,
      "t": 44895.83333333335,
      "d": 174.47916666666424,
      "v": 87
    },
    {
      "midi": 50,
      "hit": false,
      "t": 44898.437500000015,
      "d": 236.97916666667152,
      "v": 64
    },
    {
      "midi": 62,
      "hit": false,
      "t": 44898.437500000015,
      "d": 236.97916666667152,
      "v": 74
    },
    {
      "midi": 77,
      "hit": false,
      "t": 45583.33333333336,
      "d": 52.08333333333576,
      "v": 80
    },
    {
      "midi": 57,
      "hit": false,
      "t": 45604.16666666669,
      "d": 54.6875,
      "v": 44
    },
    {
      "midi": 67,
      "hit": false,
      "t": 45828.12500000003,
      "d": 226.5625,
      "v": 79
    },
    {
      "midi": 58,
      "hit": false,
      "t": 45843.75000000003,
      "d": 354.1666666666715,
      "v": 54
    },
    {
      "midi": 74,
      "hit": false,
      "t": 46059.895833333365,
      "d": 54.6875,
      "v": 74
    },
    {
      "midi": 72,
      "hit": false,
      "t": 46278.645833333365,
      "d": 54.6875,
      "v": 80
    },
    {
      "midi": 60,
      "hit": false,
      "t": 46505.208333333365,
      "d": 67.70833333332848,
      "v": 50
    },
    {
      "midi": 64,
      "hit": false,
      "t": 46515.62500000003,
      "d": 57.29166666666424,
      "v": 61
    },
    {
      "midi": 65,
      "hit": false,
      "t": 46809.89583333336,
      "d": 338.54166666666424,
      "v": 53
    },
    {
      "midi": 53,
      "hit": false,
      "t": 46817.70833333336,
      "d": 294.2708333333285,
      "v": 36
    },
    {
      "midi": 69,
      "hit": false,
      "t": 47593.75000000002,
      "d": 119.79166666666424,
      "v": 85
    },
    {
      "midi": 67,
      "hit": false,
      "t": 47695.31250000002,
      "d": 70.3125,
      "v": 97
    },
    {
      "midi": 65,
      "hit": false,
      "t": 47789.06250000002,
      "d": 106.77083333333576,
      "v": 108
    },
    {
      "midi": 57,
      "hit": false,
      "t": 47794.27083333336,
      "d": 65.10416666666424,
      "v": 94
    },
    {
      "midi": 53,
      "hit": false,
      "t": 47804.68750000002,
      "d": 54.6875,
      "v": 84
    },
    {
      "midi": 50,
      "hit": false,
      "t": 47809.89583333336,
      "d": 54.6875,
      "v": 85
    },
    {
      "midi": 61,
      "hit": false,
      "t": 48255.20833333336,
      "d": 140.62500000000728,
      "v": 82
    },
    {
      "midi": 64,
      "hit": false,
      "t": 48260.41666666669,
      "d": 98.95833333333576,
      "v": 97
    },
    {
      "midi": 55,
      "hit": false,
      "t": 48260.41666666669,
      "d": 104.16666666667152,
      "v": 88
    },
    {
      "midi": 52,
      "hit": false,
      "t": 48265.62500000003,
      "d": 54.6875,
      "v": 83
    },
    {
      "midi": 45,
      "hit": false,
      "t": 48270.833333333365,
      "d": 62.499999999992724,
      "v": 84
    },
    {
      "midi": 49,
      "hit": false,
      "t": 48270.833333333365,
      "d": 83.33333333332848,
      "v": 82
    },
    {
      "midi": 58,
      "hit": false,
      "t": 48734.37500000004,
      "d": 210.9375,
      "v": 91
    },
    {
      "midi": 62,
      "hit": false,
      "t": 48734.37500000004,
      "d": 218.75,
      "v": 94
    },
    {
      "midi": 53,
      "hit": false,
      "t": 48739.58333333337,
      "d": 109.375,
      "v": 82
    },
    {
      "midi": 46,
      "hit": false,
      "t": 48744.79166666671,
      "d": 114.58333333332848,
      "v": 91
    },
    {
      "midi": 50,
      "hit": false,
      "t": 48750.000000000044,
      "d": 72.91666666666424,
      "v": 78
    },
    {
      "midi": 65,
      "hit": false,
      "t": 49445.31250000004,
      "d": 44.27083333332848,
      "v": 63
    },
    {
      "midi": 74,
      "hit": false,
      "t": 49447.9166666667,
      "d": 46.875,
      "v": 65
    },
    {
      "midi": 76,
      "hit": false,
      "t": 49723.958333333365,
      "d": 234.375,
      "v": 60
    },
    {
      "midi": 67,
      "hit": false,
      "t": 49734.37500000003,
      "d": 531.2499999999927,
      "v": 55
    },
    {
      "midi": 79,
      "hit": false,
      "t": 49984.37500000003,
      "d": 85.9375,
      "v": 75
    },
    {
      "midi": 77,
      "hit": false,
      "t": 50104.16666666669,
      "d": 104.16666666666424,
      "v": 74
    },
    {
      "midi": 76,
      "hit": false,
      "t": 50208.33333333336,
      "d": 41.66666666666424,
      "v": 71
    },
    {
      "midi": 68,
      "hit": false,
      "t": 50403.64583333336,
      "d": 44.27083333332848,
      "v": 66
    },
    {
      "midi": 74,
      "hit": false,
      "t": 50429.68750000002,
      "d": 54.6875,
      "v": 58
    },
    {
      "midi": 73,
      "hit": false,
      "t": 50664.06250000002,
      "d": 226.5625,
      "v": 62
    },
    {
      "midi": 69,
      "hit": false,
      "t": 50669.27083333336,
      "d": 276.04166666666424,
      "v": 60
    },
    {
      "midi": 81,
      "hit": false,
      "t": 50919.27083333336,
      "d": 119.79166666666424,
      "v": 63
    },
    {
      "midi": 69,
      "hit": false,
      "t": 51179.68750000002,
      "d": 143.22916666666424,
      "v": 57
    },
    {
      "midi": 72,
      "hit": false,
      "t": 51440.104166666686,
      "d": 75.52083333333576,
      "v": 79
    },
    {
      "midi": 70,
      "hit": false,
      "t": 51515.62500000002,
      "d": 179.68750000001455,
      "v": 85
    },
    {
      "midi": 60,
      "hit": false,
      "t": 51630.20833333336,
      "d": 44.27083333333576,
      "v": 91
    },
    {
      "midi": 69,
      "hit": false,
      "t": 51630.20833333336,
      "d": 104.1666666666788,
      "v": 105
    },
    {
      "midi": 57,
      "hit": false,
      "t": 51635.41666666669,
      "d": 44.27083333333576,
      "v": 93
    },
    {
      "midi": 53,
      "hit": false,
      "t": 51640.62500000003,
      "d": 44.27083333333576,
      "v": 83
    },
    {
      "midi": 64,
      "hit": false,
      "t": 52093.75000000004,
      "d": 109.375,
      "v": 87
    },
    {
      "midi": 58,
      "hit": false,
      "t": 52093.75000000004,
      "d": 119.79166666666424,
      "v": 93
    },
    {
      "midi": 67,
      "hit": false,
      "t": 52093.75000000004,
      "d": 130.20833333332848,
      "v": 95
    },
    {
      "midi": 52,
      "hit": false,
      "t": 52098.95833333337,
      "d": 49.47916666666424,
      "v": 84
    },
    {
      "midi": 48,
      "hit": false,
      "t": 52098.95833333337,
      "d": 85.9375,
      "v": 80
    },
    {
      "midi": 57,
      "hit": false,
      "t": 52614.583333333365,
      "d": 44.27083333332848,
      "v": 91
    },
    {
      "midi": 53,
      "hit": false,
      "t": 52614.583333333365,
      "d": 49.47916666666424,
      "v": 79
    },
    {
      "midi": 65,
      "hit": false,
      "t": 52614.583333333365,
      "d": 158.85416666666424,
      "v": 97
    },
    {
      "midi": 50,
      "hit": false,
      "t": 52617.18750000003,
      "d": 39.0625,
      "v": 61
    },
    {
      "midi": 62,
      "hit": false,
      "t": 52619.79166666669,
      "d": 65.10416666667152,
      "v": 71
    },
    {
      "midi": 57,
      "hit": false,
      "t": 53406.25000000003,
      "d": 44.27083333333576,
      "v": 75
    },
    {
      "midi": 77,
      "hit": false,
      "t": 53414.06250000003,
      "d": 54.6875,
      "v": 62
    },
    {
      "midi": 67,
      "hit": false,
      "t": 53656.25000000003,
      "d": 164.0625,
      "v": 68
    },
    {
      "midi": 58,
      "hit": false,
      "t": 53656.25000000003,
      "d": 250,
      "v": 68
    },
    {
      "midi": 74,
      "hit": false,
      "t": 53895.833333333365,
      "d": 49.47916666666424,
      "v": 56
    },
    {
      "midi": 60,
      "hit": false,
      "t": 54127.60416666669,
      "d": 148.43749999999272,
      "v": 36
    },
    {
      "midi": 72,
      "hit": false,
      "t": 54130.20833333336,
      "d": 65.10416666666424,
      "v": 67
    },
    {
      "midi": 64,
      "hit": false,
      "t": 54364.58333333335,
      "d": 49.47916666666424,
      "v": 48
    },
    {
      "midi": 65,
      "hit": false,
      "t": 54658.85416666668,
      "d": 690.1041666666642,
      "v": 44
    },
    {
      "midi": 53,
      "hit": false,
      "t": 54666.66666666668,
      "d": 619.7916666666642,
      "v": 40
    },
    {
      "midi": 81,
      "hit": false,
      "t": 55471.35416666668,
      "d": 119.79166666667152,
      "v": 84
    },
    {
      "midi": 82,
      "hit": false,
      "t": 55562.500000000015,
      "d": 169.27083333333576,
      "v": 92
    },
    {
      "midi": 65,
      "hit": false,
      "t": 55666.666666666686,
      "d": 93.75,
      "v": 95
    },
    {
      "midi": 84,
      "hit": false,
      "t": 55666.666666666686,
      "d": 104.16666666667152,
      "v": 110
    },
    {
      "midi": 57,
      "hit": false,
      "t": 55677.08333333335,
      "d": 104.16666666667152,
      "v": 90
    },
    {
      "midi": 60,
      "hit": false,
      "t": 55682.291666666686,
      "d": 83.33333333333576,
      "v": 90
    },
    {
      "midi": 75,
      "hit": false,
      "t": 56132.81250000002,
      "d": 143.22916666667152,
      "v": 99
    },
    {
      "midi": 63,
      "hit": false,
      "t": 56140.62500000002,
      "d": 75.52083333333576,
      "v": 84
    },
    {
      "midi": 67,
      "hit": false,
      "t": 56140.62500000002,
      "d": 96.35416666667152,
      "v": 89
    },
    {
      "midi": 70,
      "hit": false,
      "t": 56140.62500000002,
      "d": 125.00000000000728,
      "v": 89
    },
    {
      "midi": 55,
      "hit": false,
      "t": 56161.45833333336,
      "d": 46.875,
      "v": 75
    },
    {
      "midi": 58,
      "hit": false,
      "t": 56166.66666666669,
      "d": 54.6875,
      "v": 81
    },
    {
      "midi": 66,
      "hit": false,
      "t": 56632.81250000003,
      "d": 78.125,
      "v": 90
    },
    {
      "midi": 62,
      "hit": false,
      "t": 56635.41666666669,
      "d": 62.500000000007276,
      "v": 84
    },
    {
      "midi": 74,
      "hit": false,
      "t": 56635.41666666669,
      "d": 242.18750000000728,
      "v": 107
    },
    {
      "midi": 69,
      "hit": false,
      "t": 56640.62500000003,
      "d": 119.79166666667152,
      "v": 81
    },
    {
      "midi": 57,
      "hit": false,
      "t": 56645.833333333365,
      "d": 62.5,
      "v": 80
    },
    {
      "midi": 54,
      "hit": false,
      "t": 56645.833333333365,
      "d": 106.77083333333576,
      "v": 74
    },
    {
      "midi": 66,
      "hit": false,
      "t": 57361.9791666667,
      "d": 234.375,
      "v": 55
    },
    {
      "midi": 84,
      "hit": false,
      "t": 57382.81250000004,
      "d": 78.125,
      "v": 63
    },
    {
      "midi": 82,
      "hit": false,
      "t": 57611.9791666667,
      "d": 270.83333333333576,
      "v": 89
    },
    {
      "midi": 67,
      "hit": false,
      "t": 57632.81250000004,
      "d": 218.75,
      "v": 54
    },
    {
      "midi": 78,
      "hit": false,
      "t": 57833.33333333337,
      "d": 268.22916666666424,
      "v": 81
    },
    {
      "midi": 69,
      "hit": false,
      "t": 57867.18750000004,
      "d": 153.64583333333576,
      "v": 51
    },
    {
      "midi": 70,
      "hit": false,
      "t": 58046.87500000004,
      "d": 195.3125,
      "v": 77
    },
    {
      "midi": 79,
      "hit": false,
      "t": 58052.08333333337,
      "d": 223.95833333333576,
      "v": 89
    },
    {
      "midi": 64,
      "hit": false,
      "t": 58270.83333333337,
      "d": 200.52083333333576,
      "v": 80
    },
    {
      "midi": 82,
      "hit": false,
      "t": 58270.83333333337,
      "d": 231.77083333333576,
      "v": 96
    },
    {
      "midi": 65,
      "hit": false,
      "t": 58492.187500000044,
      "d": 216.14583333332848,
      "v": 79
    },
    {
      "midi": 81,
      "hit": false,
      "t": 58492.187500000044,
      "d": 218.74999999999272,
      "v": 93
    },
    {
      "midi": 76,
      "hit": false,
      "t": 58710.93750000004,
      "d": 270.83333333333576,
      "v": 87
    },
    {
      "midi": 67,
      "hit": false,
      "t": 58716.14583333337,
      "d": 145.83333333333576,
      "v": 80
    },
    {
      "midi": 69,
      "hit": false,
      "t": 58916.66666666671,
      "d": 161.45833333332848,
      "v": 61
    },
    {
      "midi": 77,
      "hit": false,
      "t": 58927.08333333337,
      "d": 164.0625,
      "v": 86
    },
    {
      "midi": 65,
      "hit": false,
      "t": 59132.81250000004,
      "d": 70.3125,
      "v": 63
    },
    {
      "midi": 81,
      "hit": false,
      "t": 59140.62500000004,
      "d": 226.5625,
      "v": 78
    },
    {
      "midi": 70,
      "hit": false,
      "t": 59351.56250000004,
      "d": 184.89583333333576,
      "v": 63
    },
    {
      "midi": 79,
      "hit": false,
      "t": 59356.77083333337,
      "d": 226.5625,
      "v": 83
    },
    {
      "midi": 69,
      "hit": false,
      "t": 59572.91666666671,
      "d": 62.5,
      "v": 58
    },
    {
      "midi": 77,
      "hit": false,
      "t": 59572.91666666671,
      "d": 83.33333333333576,
      "v": 70
    },
    {
      "midi": 67,
      "hit": false,
      "t": 59791.66666666671,
      "d": 49.47916666667152,
      "v": 61
    },
    {
      "midi": 76,
      "hit": false,
      "t": 59796.875000000044,
      "d": 65.10416666667152,
      "v": 72
    },
    {
      "midi": 68,
      "hit": false,
      "t": 60002.604166666715,
      "d": 65.10416666666424,
      "v": 47
    },
    {
      "midi": 74,
      "hit": false,
      "t": 60010.416666666715,
      "d": 80.72916666666424,
      "v": 62
    },
    {
      "midi": 74,
      "hit": false,
      "t": 60281.250000000044,
      "d": 427.08333333333576,
      "v": 61
    },
    {
      "midi": 69,
      "hit": false,
      "t": 60302.08333333338,
      "d": 445.3125,
      "v": 42
    },
    {
      "midi": 73,
      "hit": false,
      "t": 60747.39583333338,
      "d": 59.89583333333576,
      "v": 49
    },
    {
      "midi": 69,
      "hit": false,
      "t": 61036.45833333338,
      "d": 114.58333333332848,
      "v": 82
    },
    {
      "midi": 65,
      "hit": false,
      "t": 61046.875000000044,
      "d": 59.89583333333576,
      "v": 71
    },
    {
      "midi": 64,
      "hit": false,
      "t": 61132.812500000044,
      "d": 49.47916666666424,
      "v": 89
    },
    {
      "midi": 67,
      "hit": false,
      "t": 61135.41666666671,
      "d": 52.08333333333576,
      "v": 87
    },
    {
      "midi": 65,
      "hit": false,
      "t": 61247.39583333338,
      "d": 59.89583333333576,
      "v": 97
    },
    {
      "midi": 62,
      "hit": false,
      "t": 61252.604166666715,
      "d": 130.20833333333576,
      "v": 84
    },
    {
      "midi": 61,
      "hit": false,
      "t": 61671.87500000005,
      "d": 88.54166666666424,
      "v": 75
    },
    {
      "midi": 64,
      "hit": false,
      "t": 61687.50000000005,
      "d": 93.75,
      "v": 84
    },
    {
      "midi": 57,
      "hit": false,
      "t": 61916.666666666715,
      "d": 49.47916666666424,
      "v": 80
    },
    {
      "midi": 55,
      "hit": false,
      "t": 62010.416666666715,
      "d": 62.5,
      "v": 87
    },
    {
      "midi": 53,
      "hit": false,
      "t": 62127.604166666715,
      "d": 44.27083333333576,
      "v": 100
    },
    {
      "midi": 65,
      "hit": false,
      "t": 62127.604166666715,
      "d": 65.10416666667152,
      "v": 89
    },
    {
      "midi": 62,
      "hit": false,
      "t": 62135.416666666715,
      "d": 41.66666666667152,
      "v": 79
    },
    {
      "midi": 53,
      "hit": false,
      "t": 62356.77083333339,
      "d": 96.35416666666424,
      "v": 84
    },
    {
      "midi": 52,
      "hit": false,
      "t": 62466.14583333339,
      "d": 111.97916666667152,
      "v": 90
    },
    {
      "midi": 50,
      "hit": false,
      "t": 62546.87500000005,
      "d": 39.062500000007276,
      "v": 101
    },
    {
      "midi": 65,
      "hit": false,
      "t": 62552.08333333339,
      "d": 98.95833333333576,
      "v": 99
    },
    {
      "midi": 74,
      "hit": false,
      "t": 62557.29166666672,
      "d": 104.16666666666424,
      "v": 100
    },
    {
      "midi": 50,
      "hit": false,
      "t": 62776.04166666672,
      "d": 109.375,
      "v": 86
    },
    {
      "midi": 48,
      "hit": false,
      "t": 62867.18750000006,
      "d": 75.52083333332848,
      "v": 97
    },
    {
      "midi": 46,
      "hit": false,
      "t": 62992.18750000005,
      "d": 419.27083333333576,
      "v": 106
    },
    {
      "midi": 74,
      "hit": false,
      "t": 62997.39583333339,
      "d": 28.64583333333576,
      "v": 97
    },
    {
      "midi": 77,
      "hit": false,
      "t": 62997.39583333339,
      "d": 65.10416666667152,
      "v": 101
    },
    {
      "midi": 86,
      "hit": false,
      "t": 63226.56250000006,
      "d": 119.79166666666424,
      "v": 92
    },
    {
      "midi": 88,
      "hit": false,
      "t": 63328.12500000006,
      "d": 119.79166666666424,
      "v": 95
    },
    {
      "midi": 89,
      "hit": false,
      "t": 63416.66666666672,
      "d": 80.72916666666424,
      "v": 104
    },
    {
      "midi": 86,
      "hit": false,
      "t": 63656.25000000005,
      "d": 91.14583333333576,
      "v": 94
    },
    {
      "midi": 88,
      "hit": false,
      "t": 63747.39583333339,
      "d": 75.52083333333576,
      "v": 94
    },
    {
      "midi": 89,
      "hit": false,
      "t": 63872.39583333339,
      "d": 143.22916666666424,
      "v": 87
    },
    {
      "midi": 45,
      "hit": false,
      "t": 64861.979166666715,
      "d": 510.41666666666424,
      "v": 43
    },
    {
      "midi": 74,
      "hit": false,
      "t": 65096.354166666715,
      "d": 59.89583333333576,
      "v": 61
    },
    {
      "midi": 77,
      "hit": false,
      "t": 65101.56250000005,
      "d": 205.72916666666424,
      "v": 61
    },
    {
      "midi": 79,
      "hit": false,
      "t": 65335.93750000005,
      "d": 46.874999999992724,
      "v": 63
    },
    {
      "midi": 76,
      "hit": false,
      "t": 65346.354166666715,
      "d": 39.062499999992724,
      "v": 66
    },
    {
      "midi": 73,
      "hit": false,
      "t": 65578.12500000004,
      "d": 49.47916666667152,
      "v": 58
    },
    {
      "midi": 76,
      "hit": false,
      "t": 65578.12500000004,
      "d": 54.6875,
      "v": 63
    },
    {
      "midi": 38,
      "hit": false,
      "t": 65895.83333333337,
      "d": 411.4583333333285,
      "v": 43
    },
    {
      "midi": 74,
      "hit": false,
      "t": 65895.83333333337,
      "d": 437.5,
      "v": 50
    },
    {
      "midi": 81,
      "hit": false,
      "t": 66757.81250000003,
      "d": 119.79166666667152,
      "v": 94
    },
    {
      "midi": 82,
      "hit": false,
      "t": 66861.9791666667,
      "d": 164.0625,
      "v": 105
    },
    {
      "midi": 65,
      "hit": false,
      "t": 66958.33333333337,
      "d": 109.375,
      "v": 103
    },
    {
      "midi": 84,
      "hit": false,
      "t": 66966.14583333337,
      "d": 75.52083333332848,
      "v": 113
    },
    {
      "midi": 60,
      "hit": false,
      "t": 66976.56250000004,
      "d": 106.77083333332848,
      "v": 90
    },
    {
      "midi": 57,
      "hit": false,
      "t": 66976.56250000004,
      "d": 114.58333333332848,
      "v": 94
    },
    {
      "midi": 75,
      "hit": false,
      "t": 67421.87500000003,
      "d": 98.95833333335759,
      "v": 101
    },
    {
      "midi": 63,
      "hit": false,
      "t": 67427.08333333336,
      "d": 33.85416666667152,
      "v": 83
    },
    {
      "midi": 67,
      "hit": false,
      "t": 67427.08333333336,
      "d": 44.270833333343035,
      "v": 89
    },
    {
      "midi": 70,
      "hit": false,
      "t": 67427.08333333336,
      "d": 54.68750000001455,
      "v": 95
    },
    {
      "midi": 55,
      "hit": false,
      "t": 67437.50000000003,
      "d": 44.270833333343035,
      "v": 81
    },
    {
      "midi": 58,
      "hit": false,
      "t": 67437.50000000003,
      "d": 54.68750000001455,
      "v": 89
    },
    {
      "midi": 66,
      "hit": false,
      "t": 67911.45833333339,
      "d": 59.89583333332848,
      "v": 84
    },
    {
      "midi": 74,
      "hit": false,
      "t": 67911.45833333339,
      "d": 85.93749999998545,
      "v": 109
    },
    {
      "midi": 62,
      "hit": false,
      "t": 67916.66666666672,
      "d": 44.270833333343035,
      "v": 80
    },
    {
      "midi": 54,
      "hit": false,
      "t": 67916.66666666672,
      "d": 54.6875,
      "v": 81
    },
    {
      "midi": 69,
      "hit": false,
      "t": 67916.66666666672,
      "d": 59.89583333332848,
      "v": 89
    },
    {
      "midi": 57,
      "hit": false,
      "t": 67927.08333333339,
      "d": 44.27083333332848,
      "v": 69
    },
    {
      "midi": 66,
      "hit": false,
      "t": 68645.83333333337,
      "d": 57.291666666656965,
      "v": 57
    },
    {
      "midi": 84,
      "hit": false,
      "t": 68651.0416666667,
      "d": 46.875,
      "v": 69
    },
    {
      "midi": 82,
      "hit": false,
      "t": 68885.4166666667,
      "d": 286.4583333333285,
      "v": 79
    },
    {
      "midi": 67,
      "hit": false,
      "t": 68906.25000000003,
      "d": 216.14583333334303,
      "v": 43
    },
    {
      "midi": 78,
      "hit": false,
      "t": 69111.9791666667,
      "d": 265.625,
      "v": 69
    },
    {
      "midi": 69,
      "hit": false,
      "t": 69135.4166666667,
      "d": 171.875,
      "v": 50
    },
    {
      "midi": 70,
      "hit": false,
      "t": 69341.14583333337,
      "d": 195.3125,
      "v": 63
    },
    {
      "midi": 79,
      "hit": false,
      "t": 69341.14583333337,
      "d": 195.3125,
      "v": 87
    },
    {
      "midi": 82,
      "hit": false,
      "t": 69567.70833333337,
      "d": 158.85416666667152,
      "v": 87
    },
    {
      "midi": 64,
      "hit": false,
      "t": 69583.33333333337,
      "d": 148.4375,
      "v": 55
    },
    {
      "midi": 65,
      "hit": false,
      "t": 69796.87500000004,
      "d": 213.54166666665697,
      "v": 63
    },
    {
      "midi": 81,
      "hit": false,
      "t": 69802.08333333337,
      "d": 208.33333333332848,
      "v": 72
    },
    {
      "midi": 67,
      "hit": false,
      "t": 70026.0416666667,
      "d": 156.25,
      "v": 57
    },
    {
      "midi": 76,
      "hit": false,
      "t": 70036.45833333337,
      "d": 244.79166666667152,
      "v": 66
    },
    {
      "midi": 69,
      "hit": false,
      "t": 70252.6041666667,
      "d": 93.75,
      "v": 52
    },
    {
      "midi": 77,
      "hit": false,
      "t": 70270.83333333337,
      "d": 62.5,
      "v": 60
    },
    {
      "midi": 81,
      "hit": false,
      "t": 70471.3541666667,
      "d": 54.6875,
      "v": 71
    },
    {
      "midi": 65,
      "hit": false,
      "t": 70497.39583333337,
      "d": 59.89583333332848,
      "v": 47
    },
    {
      "midi": 70,
      "hit": false,
      "t": 70692.70833333337,
      "d": 208.33333333332848,
      "v": 72
    },
    {
      "midi": 79,
      "hit": false,
      "t": 70697.9166666667,
      "d": 255.20833333334303,
      "v": 83
    },
    {
      "midi": 77,
      "hit": false,
      "t": 70911.45833333337,
      "d": 145.83333333334303,
      "v": 81
    },
    {
      "midi": 69,
      "hit": false,
      "t": 70921.87500000004,
      "d": 70.3125,
      "v": 59
    },
    {
      "midi": 67,
      "hit": false,
      "t": 71127.60416666672,
      "d": 44.27083333332848,
      "v": 63
    },
    {
      "midi": 76,
      "hit": false,
      "t": 71132.81250000004,
      "d": 49.47916666667152,
      "v": 74
    },
    {
      "midi": 68,
      "hit": false,
      "t": 71351.56250000004,
      "d": 59.89583333332848,
      "v": 48
    },
    {
      "midi": 74,
      "hit": false,
      "t": 71356.77083333337,
      "d": 49.47916666667152,
      "v": 66
    },
    {
      "midi": 74,
      "hit": false,
      "t": 71651.0416666667,
      "d": 416.6666666666715,
      "v": 56
    },
    {
      "midi": 69,
      "hit": false,
      "t": 71666.6666666667,
      "d": 468.75000000001455,
      "v": 47
    },
    {
      "midi": 73,
      "hit": false,
      "t": 72117.18750000004,
      "d": 54.6875,
      "v": 51
    },
    {
      "midi": 69,
      "hit": false,
      "t": 72382.81250000004,
      "d": 104.16666666665697,
      "v": 87
    },
    {
      "midi": 65,
      "hit": false,
      "t": 72385.41666666672,
      "d": 52.08333333332848,
      "v": 81
    },
    {
      "midi": 67,
      "hit": false,
      "t": 72466.14583333337,
      "d": 65.10416666667152,
      "v": 92
    },
    {
      "midi": 64,
      "hit": false,
      "t": 72471.3541666667,
      "d": 49.47916666667152,
      "v": 83
    },
    {
      "midi": 65,
      "hit": false,
      "t": 72583.33333333337,
      "d": 104.16666666667152,
      "v": 97
    },
    {
      "midi": 62,
      "hit": false,
      "t": 72591.14583333337,
      "d": 135.41666666667152,
      "v": 84
    },
    {
      "midi": 61,
      "hit": false,
      "t": 73031.25000000004,
      "d": 96.35416666665697,
      "v": 82
    },
    {
      "midi": 64,
      "hit": false,
      "t": 73036.45833333337,
      "d": 114.58333333332848,
      "v": 83
    },
    {
      "midi": 57,
      "hit": false,
      "t": 73265.62500000003,
      "d": 62.5,
      "v": 81
    },
    {
      "midi": 55,
      "hit": false,
      "t": 73367.18750000003,
      "d": 65.10416666667152,
      "v": 83
    },
    {
      "midi": 62,
      "hit": false,
      "t": 73486.9791666667,
      "d": 39.0625,
      "v": 87
    },
    {
      "midi": 53,
      "hit": false,
      "t": 73486.9791666667,
      "d": 49.47916666667152,
      "v": 93
    },
    {
      "midi": 65,
      "hit": false,
      "t": 73486.9791666667,
      "d": 75.52083333334303,
      "v": 92
    },
    {
      "midi": 53,
      "hit": false,
      "t": 73726.56250000004,
      "d": 70.3125,
      "v": 81
    },
    {
      "midi": 52,
      "hit": false,
      "t": 73833.33333333337,
      "d": 114.58333333332848,
      "v": 87
    },
    {
      "midi": 50,
      "hit": false,
      "t": 73921.87500000004,
      "d": 36.45833333332848,
      "v": 97
    },
    {
      "midi": 65,
      "hit": false,
      "t": 73927.08333333337,
      "d": 59.89583333332848,
      "v": 101
    },
    {
      "midi": 74,
      "hit": false,
      "t": 73927.08333333337,
      "d": 98.95833333332848,
      "v": 103
    },
    {
      "midi": 50,
      "hit": false,
      "t": 74156.25000000003,
      "d": 70.3125,
      "v": 84
    },
    {
      "midi": 48,
      "hit": false,
      "t": 74247.39583333336,
      "d": 65.10416666667152,
      "v": 92
    },
    {
      "midi": 77,
      "hit": false,
      "t": 74367.18750000003,
      "d": 109.375,
      "v": 102
    },
    {
      "midi": 46,
      "hit": false,
      "t": 74367.18750000003,
      "d": 695.3125,
      "v": 102
    },
    {
      "midi": 74,
      "hit": false,
      "t": 74377.6041666667,
      "d": 28.645833333328483,
      "v": 92
    },
    {
      "midi": 86,
      "hit": false,
      "t": 74622.39583333336,
      "d": 109.375,
      "v": 94
    },
    {
      "midi": 88,
      "hit": false,
      "t": 74721.35416666669,
      "d": 96.35416666667152,
      "v": 94
    },
    {
      "midi": 89,
      "hit": false,
      "t": 74807.29166666669,
      "d": 104.16666666667152,
      "v": 102
    },
    {
      "midi": 86,
      "hit": false,
      "t": 75078.12500000003,
      "d": 78.125,
      "v": 66
    },
    {
      "midi": 88,
      "hit": false,
      "t": 75166.6666666667,
      "d": 91.14583333332848,
      "v": 67
    },
    {
      "midi": 89,
      "hit": false,
      "t": 75291.6666666667,
      "d": 419.2708333333285,
      "v": 59
    },
    {
      "midi": 45,
      "hit": false,
      "t": 76333.33333333336,
      "d": 408.8541666666715,
      "v": 46
    },
    {
      "midi": 77,
      "hit": false,
      "t": 76583.33333333336,
      "d": 197.91666666667152,
      "v": 60
    },
    {
      "midi": 74,
      "hit": false,
      "t": 76591.14583333336,
      "d": 70.3125,
      "v": 45
    },
    {
      "midi": 79,
      "hit": false,
      "t": 76856.77083333336,
      "d": 59.895833333343035,
      "v": 59
    },
    {
      "midi": 76,
      "hit": false,
      "t": 76867.18750000003,
      "d": 54.6875,
      "v": 39
    },
    {
      "midi": 76,
      "hit": false,
      "t": 77135.4166666667,
      "d": 130.20833333332848,
      "v": 48
    },
    {
      "midi": 73,
      "hit": false,
      "t": 77140.62500000003,
      "d": 70.3125,
      "v": 40
    },
    {
      "midi": 74,
      "hit": false,
      "t": 77578.12500000003,
      "d": 778.6458333333285,
      "v": 45
    },
    {
      "midi": 38,
      "hit": false,
      "t": 77591.14583333336,
      "d": 781.25,
      "v": 37
    },
    {
      "midi": 69,
      "hit": false,
      "t": 79083.33333333336,
      "d": 52.08333333332848,
      "v": 42
    },
    {
      "midi": 69,
      "hit": false,
      "t": 79335.93750000001,
      "d": 445.31250000001455,
      "v": 61
    },
    {
      "midi": 54,
      "hit": false,
      "t": 79541.66666666669,
      "d": 75.52083333334303,
      "v": 43
    },
    {
      "midi": 50,
      "hit": false,
      "t": 79552.08333333336,
      "d": 65.10416666667152,
      "v": 45
    },
    {
      "midi": 66,
      "hit": false,
      "t": 79776.0416666667,
      "d": 85.9375,
      "v": 52
    },
    {
      "midi": 54,
      "hit": false,
      "t": 79794.27083333336,
      "d": 65.10416666667152,
      "v": 36
    },
    {
      "midi": 50,
      "hit": false,
      "t": 79796.87500000003,
      "d": 59.89583333332848,
      "v": 44
    },
    {
      "midi": 74,
      "hit": false,
      "t": 80010.4166666667,
      "d": 46.875,
      "v": 71
    },
    {
      "midi": 74,
      "hit": false,
      "t": 80252.6041666667,
      "d": 463.54166666665697,
      "v": 73
    },
    {
      "midi": 55,
      "hit": false,
      "t": 80476.56250000003,
      "d": 54.6875,
      "v": 57
    },
    {
      "midi": 52,
      "hit": false,
      "t": 80479.1666666667,
      "d": 62.5,
      "v": 44
    },
    {
      "midi": 73,
      "hit": false,
      "t": 80703.12500000003,
      "d": 93.75,
      "v": 66
    },
    {
      "midi": 55,
      "hit": false,
      "t": 80721.35416666669,
      "d": 59.895833333343035,
      "v": 53
    },
    {
      "midi": 52,
      "hit": false,
      "t": 80729.16666666669,
      "d": 49.47916666667152,
      "v": 62
    },
    {
      "midi": 76,
      "hit": false,
      "t": 80932.2916666667,
      "d": 39.0625,
      "v": 83
    },
    {
      "midi": 76,
      "hit": false,
      "t": 81182.2916666667,
      "d": 343.74999999998545,
      "v": 79
    },
    {
      "midi": 61,
      "hit": false,
      "t": 81406.25000000003,
      "d": 80.72916666665697,
      "v": 44
    },
    {
      "midi": 57,
      "hit": false,
      "t": 81414.06250000003,
      "d": 59.89583333332848,
      "v": 42
    },
    {
      "midi": 78,
      "hit": false,
      "t": 81520.83333333336,
      "d": 101.5625,
      "v": 46
    },
    {
      "midi": 79,
      "hit": false,
      "t": 81622.39583333336,
      "d": 44.27083333332848,
      "v": 80
    },
    {
      "midi": 61,
      "hit": false,
      "t": 81651.04166666669,
      "d": 57.29166666667152,
      "v": 55
    },
    {
      "midi": 57,
      "hit": false,
      "t": 81656.25000000001,
      "d": 65.10416666667152,
      "v": 39
    },
    {
      "midi": 79,
      "hit": false,
      "t": 81861.97916666669,
      "d": 39.0625,
      "v": 86
    },
    {
      "midi": 79,
      "hit": false,
      "t": 82101.56250000001,
      "d": 460.9375,
      "v": 84
    },
    {
      "midi": 66,
      "hit": false,
      "t": 82322.91666666669,
      "d": 72.91666666665697,
      "v": 48
    },
    {
      "midi": 62,
      "hit": false,
      "t": 82328.12500000001,
      "d": 62.5,
      "v": 51
    },
    {
      "midi": 78,
      "hit": false,
      "t": 82552.08333333334,
      "d": 65.10416666667152,
      "v": 59
    },
    {
      "midi": 66,
      "hit": false,
      "t": 82562.50000000001,
      "d": 54.6875,
      "v": 60
    },
    {
      "midi": 62,
      "hit": false,
      "t": 82578.12500000001,
      "d": 57.29166666667152,
      "v": 54
    },
    {
      "midi": 81,
      "hit": false,
      "t": 82781.25000000001,
      "d": 41.66666666667152,
      "v": 77
    },
    {
      "midi": 81,
      "hit": false,
      "t": 83031.25000000001,
      "d": 666.6666666666715,
      "v": 72
    },
    {
      "midi": 61,
      "hit": false,
      "t": 83247.39583333334,
      "d": 49.47916666667152,
      "v": 55
    },
    {
      "midi": 64,
      "hit": false,
      "t": 83247.39583333334,
      "d": 59.895833333343035,
      "v": 45
    },
    {
      "midi": 61,
      "hit": false,
      "t": 83494.79166666669,
      "d": 59.895833333343035,
      "v": 69
    },
    {
      "midi": 64,
      "hit": false,
      "t": 83497.39583333336,
      "d": 54.6875,
      "v": 58
    },
    {
      "midi": 82,
      "hit": false,
      "t": 83692.70833333336,
      "d": 260.41666666665697,
      "v": 91
    },
    {
      "midi": 83,
      "hit": false,
      "t": 83932.29166666669,
      "d": 354.1666666666715,
      "v": 83
    },
    {
      "midi": 66,
      "hit": false,
      "t": 84135.41666666669,
      "d": 62.5,
      "v": 58
    },
    {
      "midi": 62,
      "hit": false,
      "t": 84151.04166666669,
      "d": 57.29166666667152,
      "v": 50
    },
    {
      "midi": 85,
      "hit": false,
      "t": 84270.83333333336,
      "d": 91.14583333332848,
      "v": 79
    },
    {
      "midi": 66,
      "hit": false,
      "t": 84382.81250000001,
      "d": 54.6875,
      "v": 67
    },
    {
      "midi": 62,
      "hit": false,
      "t": 84390.62500000001,
      "d": 57.29166666667152,
      "v": 51
    },
    {
      "midi": 88,
      "hit": false,
      "t": 84395.83333333334,
      "d": 80.72916666667152,
      "v": 91
    },
    {
      "midi": 86,
      "hit": false,
      "t": 84502.60416666669,
      "d": 75.52083333332848,
      "v": 88
    },
    {
      "midi": 85,
      "hit": false,
      "t": 84591.14583333334,
      "d": 111.97916666667152,
      "v": 88
    },
    {
      "midi": 62,
      "hit": false,
      "t": 84598.95833333334,
      "d": 57.29166666667152,
      "v": 51
    },
    {
      "midi": 66,
      "hit": false,
      "t": 84601.56250000001,
      "d": 49.47916666667152,
      "v": 62
    },
    {
      "midi": 83,
      "hit": false,
      "t": 84716.14583333334,
      "d": 49.47916666667152,
      "v": 66
    },
    {
      "midi": 61,
      "hit": false,
      "t": 84812.50000000001,
      "d": 44.27083333332848,
      "v": 74
    },
    {
      "midi": 81,
      "hit": false,
      "t": 84817.70833333334,
      "d": 309.89583333331393,
      "v": 89
    },
    {
      "midi": 52,
      "hit": false,
      "t": 84820.31250000001,
      "d": 49.479166666656965,
      "v": 57
    },
    {
      "midi": 61,
      "hit": false,
      "t": 85057.29166666667,
      "d": 49.479166666656965,
      "v": 66
    },
    {
      "midi": 52,
      "hit": false,
      "t": 85062.5,
      "d": 49.479166666656965,
      "v": 57
    },
    {
      "midi": 81,
      "hit": false,
      "t": 85231.77083333333,
      "d": 49.47916666667152,
      "v": 81
    },
    {
      "midi": 59,
      "hit": false,
      "t": 85286.45833333333,
      "d": 46.875,
      "v": 48
    },
    {
      "midi": 52,
      "hit": false,
      "t": 85286.45833333333,
      "d": 59.89583333332848,
      "v": 70
    },
    {
      "midi": 80,
      "hit": false,
      "t": 85317.70833333333,
      "d": 49.479166666656965,
      "v": 67
    },
    {
      "midi": 81,
      "hit": false,
      "t": 85361.97916666666,
      "d": 49.479166666656965,
      "v": 83
    },
    {
      "midi": 80,
      "hit": false,
      "t": 85442.70833333331,
      "d": 153.64583333332848,
      "v": 46
    },
    {
      "midi": 52,
      "hit": false,
      "t": 85510.41666666664,
      "d": 59.89583333332848,
      "v": 45
    },
    {
      "midi": 59,
      "hit": false,
      "t": 85515.62499999997,
      "d": 57.29166666667152,
      "v": 31
    },
    {
      "midi": 81,
      "hit": false,
      "t": 85661.45833333331,
      "d": 54.6875,
      "v": 50
    },
    {
      "midi": 57,
      "hit": false,
      "t": 85781.24999999999,
      "d": 216.14583333332848,
      "v": 26
    },
    {
      "midi": 45,
      "hit": false,
      "t": 85802.08333333331,
      "d": 208.33333333332848,
      "v": 51
    },
    {
      "midi": 81,
      "hit": false,
      "t": 85807.29166666664,
      "d": 195.3125,
      "v": 52
    },
    {
      "midi": 69,
      "hit": false,
      "t": 86520.8333333333,
      "d": 57.29166666667152,
      "v": 55
    },
    {
      "midi": 69,
      "hit": false,
      "t": 86752.60416666664,
      "d": 463.5416666666715,
      "v": 73
    },
    {
      "midi": 54,
      "hit": false,
      "t": 86971.35416666664,
      "d": 70.3125,
      "v": 44
    },
    {
      "midi": 50,
      "hit": false,
      "t": 86981.77083333331,
      "d": 59.89583333332848,
      "v": 52
    },
    {
      "midi": 66,
      "hit": false,
      "t": 87221.35416666664,
      "d": 111.97916666665697,
      "v": 50
    },
    {
      "midi": 50,
      "hit": false,
      "t": 87226.56249999997,
      "d": 54.6875,
      "v": 65
    },
    {
      "midi": 54,
      "hit": false,
      "t": 87226.56249999997,
      "d": 59.89583333332848,
      "v": 52
    },
    {
      "midi": 74,
      "hit": false,
      "t": 87476.56249999997,
      "d": 39.0625,
      "v": 72
    },
    {
      "midi": 74,
      "hit": false,
      "t": 87752.60416666664,
      "d": 458.3333333333285,
      "v": 80
    },
    {
      "midi": 52,
      "hit": false,
      "t": 87966.14583333331,
      "d": 85.93749999998545,
      "v": 49
    },
    {
      "midi": 55,
      "hit": false,
      "t": 87971.35416666664,
      "d": 59.89583333332848,
      "v": 47
    },
    {
      "midi": 73,
      "hit": false,
      "t": 88208.3333333333,
      "d": 62.5,
      "v": 69
    },
    {
      "midi": 55,
      "hit": false,
      "t": 88210.93749999997,
      "d": 54.6875,
      "v": 66
    },
    {
      "midi": 52,
      "hit": false,
      "t": 88216.1458333333,
      "d": 54.6875,
      "v": 53
    },
    {
      "midi": 76,
      "hit": false,
      "t": 88447.91666666663,
      "d": 67.70833333332848,
      "v": 92
    },
    {
      "midi": 76,
      "hit": false,
      "t": 88687.49999999996,
      "d": 343.75000000001455,
      "v": 90
    },
    {
      "midi": 61,
      "hit": false,
      "t": 88885.41666666663,
      "d": 62.5,
      "v": 52
    },
    {
      "midi": 57,
      "hit": false,
      "t": 88901.04166666663,
      "d": 57.29166666667152,
      "v": 51
    },
    {
      "midi": 78,
      "hit": false,
      "t": 89031.24999999997,
      "d": 114.58333333334303,
      "v": 61
    },
    {
      "midi": 79,
      "hit": false,
      "t": 89117.18749999997,
      "d": 39.06250000001455,
      "v": 92
    },
    {
      "midi": 57,
      "hit": false,
      "t": 89124.99999999997,
      "d": 44.270833333343035,
      "v": 59
    },
    {
      "midi": 61,
      "hit": false,
      "t": 89127.60416666664,
      "d": 54.6875,
      "v": 64
    },
    {
      "midi": 79,
      "hit": false,
      "t": 89346.35416666664,
      "d": 44.27083333332848,
      "v": 92
    },
    {
      "midi": 79,
      "hit": false,
      "t": 89591.1458333333,
      "d": 494.79166666665697,
      "v": 94
    },
    {
      "midi": 66,
      "hit": false,
      "t": 89822.91666666663,
      "d": 54.6875,
      "v": 57
    },
    {
      "midi": 62,
      "hit": false,
      "t": 89822.91666666663,
      "d": 59.89583333332848,
      "v": 53
    },
    {
      "midi": 78,
      "hit": false,
      "t": 90062.49999999996,
      "d": 72.91666666667152,
      "v": 62
    },
    {
      "midi": 66,
      "hit": false,
      "t": 90072.91666666663,
      "d": 54.6875,
      "v": 51
    },
    {
      "midi": 62,
      "hit": false,
      "t": 90072.91666666663,
      "d": 59.89583333332848,
      "v": 54
    },
    {
      "midi": 81,
      "hit": false,
      "t": 90302.0833333333,
      "d": 33.85416666667152,
      "v": 81
    },
    {
      "midi": 81,
      "hit": false,
      "t": 90567.7083333333,
      "d": 713.5416666666715,
      "v": 56
    },
    {
      "midi": 61,
      "hit": false,
      "t": 90796.87499999997,
      "d": 54.6875,
      "v": 50
    },
    {
      "midi": 64,
      "hit": false,
      "t": 90796.87499999997,
      "d": 54.6875,
      "v": 55
    },
    {
      "midi": 64,
      "hit": false,
      "t": 91041.66666666664,
      "d": 44.27083333332848,
      "v": 71
    },
    {
      "midi": 61,
      "hit": false,
      "t": 91046.87499999997,
      "d": 49.47916666667152,
      "v": 51
    },
    {
      "midi": 82,
      "hit": false,
      "t": 91260.41666666664,
      "d": 255.20833333332848,
      "v": 85
    },
    {
      "midi": 83,
      "hit": false,
      "t": 91510.41666666664,
      "d": 335.9375,
      "v": 86
    },
    {
      "midi": 66,
      "hit": false,
      "t": 91710.93749999997,
      "d": 59.89583333332848,
      "v": 53
    },
    {
      "midi": 62,
      "hit": false,
      "t": 91718.74999999997,
      "d": 70.3125,
      "v": 33
    },
    {
      "midi": 85,
      "hit": false,
      "t": 91835.93749999997,
      "d": 122.39583333334303,
      "v": 80
    },
    {
      "midi": 66,
      "hit": false,
      "t": 91958.33333333331,
      "d": 62.50000000001455,
      "v": 57
    },
    {
      "midi": 88,
      "hit": false,
      "t": 91960.93749999999,
      "d": 130.20833333334303,
      "v": 96
    },
    {
      "midi": 62,
      "hit": false,
      "t": 91963.54166666666,
      "d": 54.6875,
      "v": 42
    },
    {
      "midi": 86,
      "hit": false,
      "t": 92067.70833333333,
      "d": 93.75,
      "v": 90
    },
    {
      "midi": 85,
      "hit": false,
      "t": 92161.45833333333,
      "d": 125,
      "v": 84
    },
    {
      "midi": 62,
      "hit": false,
      "t": 92182.29166666666,
      "d": 49.47916666667152,
      "v": 50
    },
    {
      "midi": 66,
      "hit": false,
      "t": 92182.29166666666,
      "d": 49.47916666667152,
      "v": 55
    },
    {
      "midi": 83,
      "hit": false,
      "t": 92286.45833333333,
      "d": 65.10416666667152,
      "v": 70
    },
    {
      "midi": 52,
      "hit": false,
      "t": 92390.625,
      "d": 41.666666666656965,
      "v": 91
    },
    {
      "midi": 81,
      "hit": false,
      "t": 92390.625,
      "d": 330.7291666666715,
      "v": 94
    },
    {
      "midi": 61,
      "hit": false,
      "t": 92395.83333333333,
      "d": 41.666666666656965,
      "v": 78
    },
    {
      "midi": 61,
      "hit": false,
      "t": 92635.41666666666,
      "d": 52.083333333343035,
      "v": 73
    },
    {
      "midi": 52,
      "hit": false,
      "t": 92645.83333333333,
      "d": 41.66666666667152,
      "v": 78
    },
    {
      "midi": 81,
      "hit": false,
      "t": 92822.91666666667,
      "d": 39.0625,
      "v": 82
    },
    {
      "midi": 59,
      "hit": false,
      "t": 92867.1875,
      "d": 39.0625,
      "v": 64
    },
    {
      "midi": 52,
      "hit": false,
      "t": 92872.39583333333,
      "d": 39.0625,
      "v": 76
    },
    {
      "midi": 80,
      "hit": false,
      "t": 92890.625,
      "d": 52.08333333332848,
      "v": 59
    },
    {
      "midi": 81,
      "hit": false,
      "t": 92942.70833333333,
      "d": 44.27083333332848,
      "v": 88
    },
    {
      "midi": 81,
      "hit": false,
      "t": 93052.08333333333,
      "d": 49.47916666667152,
      "v": 59
    },
    {
      "midi": 80,
      "hit": false,
      "t": 93062.5,
      "d": 130.20833333334303,
      "v": 16
    },
    {
      "midi": 59,
      "hit": false,
      "t": 93083.33333333333,
      "d": 44.270833333343035,
      "v": 59
    },
    {
      "midi": 52,
      "hit": false,
      "t": 93083.33333333333,
      "d": 62.50000000001455,
      "v": 35
    },
    {
      "midi": 81,
      "hit": false,
      "t": 93242.18750000001,
      "d": 39.0625,
      "v": 69
    },
    {
      "midi": 45,
      "hit": false,
      "t": 93343.75000000001,
      "d": 265.625,
      "v": 44
    },
    {
      "midi": 57,
      "hit": false,
      "t": 93346.35416666669,
      "d": 281.25,
      "v": 51
    },
    {
      "midi": 81,
      "hit": false,
      "t": 93346.35416666669,
      "d": 335.9375,
      "v": 92
    },
    {
      "midi": 81,
      "hit": false,
      "t": 94111.97916666669,
      "d": 44.27083333332848,
      "v": 55
    },
    {
      "midi": 81,
      "hit": false,
      "t": 94361.97916666669,
      "d": 450.5208333333285,
      "v": 66
    },
    {
      "midi": 66,
      "hit": false,
      "t": 94583.33333333336,
      "d": 62.5,
      "v": 40
    },
    {
      "midi": 69,
      "hit": false,
      "t": 94583.33333333336,
      "d": 67.70833333332848,
      "v": 48
    },
    {
      "midi": 75,
      "hit": false,
      "t": 94817.70833333334,
      "d": 143.22916666665697,
      "v": 48
    },
    {
      "midi": 66,
      "hit": false,
      "t": 94830.72916666667,
      "d": 75.52083333332848,
      "v": 27
    },
    {
      "midi": 69,
      "hit": false,
      "t": 94843.75,
      "d": 62.5,
      "v": 44
    },
    {
      "midi": 83,
      "hit": false,
      "t": 95046.875,
      "d": 36.45833333332848,
      "v": 67
    },
    {
      "midi": 83,
      "hit": false,
      "t": 95281.25,
      "d": 455.72916666665697,
      "v": 62
    },
    {
      "midi": 71,
      "hit": false,
      "t": 95497.39583333333,
      "d": 54.6875,
      "v": 36
    },
    {
      "midi": 67,
      "hit": false,
      "t": 95500,
      "d": 59.89583333332848,
      "v": 36
    },
    {
      "midi": 76,
      "hit": false,
      "t": 95736.97916666666,
      "d": 70.3125,
      "v": 56
    },
    {
      "midi": 67,
      "hit": false,
      "t": 95744.79166666666,
      "d": 75.52083333332848,
      "v": 18
    },
    {
      "midi": 71,
      "hit": false,
      "t": 95757.81249999999,
      "d": 54.6875,
      "v": 36
    },
    {
      "midi": 79,
      "hit": false,
      "t": 95971.35416666666,
      "d": 39.0625,
      "v": 62
    },
    {
      "midi": 61,
      "hit": false,
      "t": 96200.52083333333,
      "d": 54.6875,
      "v": 64
    },
    {
      "midi": 69,
      "hit": false,
      "t": 96205.72916666666,
      "d": 49.47916666667152,
      "v": 59
    },
    {
      "midi": 79,
      "hit": false,
      "t": 96208.33333333333,
      "d": 257.8125,
      "v": 50
    },
    {
      "midi": 61,
      "hit": false,
      "t": 96416.66666666666,
      "d": 46.875,
      "v": 70
    },
    {
      "midi": 69,
      "hit": false,
      "t": 96421.87499999999,
      "d": 54.68750000001455,
      "v": 44
    },
    {
      "midi": 81,
      "hit": false,
      "t": 96526.04166666667,
      "d": 59.89583333332848,
      "v": 36
    },
    {
      "midi": 79,
      "hit": false,
      "t": 96562.5,
      "d": 70.3125,
      "v": 61
    },
    {
      "midi": 78,
      "hit": false,
      "t": 96640.625,
      "d": 46.875,
      "v": 74
    },
    {
      "midi": 62,
      "hit": false,
      "t": 96645.83333333333,
      "d": 57.29166666667152,
      "v": 76
    },
    {
      "midi": 69,
      "hit": false,
      "t": 96645.83333333333,
      "d": 57.29166666667152,
      "v": 50
    },
    {
      "midi": 78,
      "hit": false,
      "t": 96877.60416666667,
      "d": 49.47916666667152,
      "v": 73
    },
    {
      "midi": 69,
      "hit": false,
      "t": 96880.20833333334,
      "d": 59.895833333343035,
      "v": 43
    },
    {
      "midi": 62,
      "hit": false,
      "t": 96882.81250000001,
      "d": 54.6875,
      "v": 54
    },
    {
      "midi": 69,
      "hit": false,
      "t": 97117.18750000001,
      "d": 143.22916666665697,
      "v": 49
    },
    {
      "midi": 76,
      "hit": false,
      "t": 97122.39583333334,
      "d": 213.54166666665697,
      "v": 66
    },
    {
      "midi": 57,
      "hit": false,
      "t": 97135.41666666667,
      "d": 276.04166666665697,
      "v": 44
    },
    {
      "midi": 73,
      "hit": false,
      "t": 97341.14583333333,
      "d": 65.10416666667152,
      "v": 58
    },
    {
      "midi": 69,
      "hit": false,
      "t": 97578.125,
      "d": 44.27083333332848,
      "v": 60
    },
    {
      "midi": 66,
      "hit": false,
      "t": 97799.47916666666,
      "d": 44.270833333343035,
      "v": 81
    },
    {
      "midi": 69,
      "hit": false,
      "t": 97802.08333333333,
      "d": 33.85416666667152,
      "v": 89
    },
    {
      "midi": 69,
      "hit": false,
      "t": 98026.04166666667,
      "d": 440.10416666665697,
      "v": 98
    },
    {
      "midi": 66,
      "hit": false,
      "t": 98031.25,
      "d": 244.79166666667152,
      "v": 93
    },
    {
      "midi": 38,
      "hit": false,
      "t": 98242.1875,
      "d": 39.0625,
      "v": 85
    },
    {
      "midi": 50,
      "hit": false,
      "t": 98242.1875,
      "d": 44.27083333332848,
      "v": 88
    },
    {
      "midi": 62,
      "hit": false,
      "t": 98471.35416666666,
      "d": 44.270833333343035,
      "v": 81
    },
    {
      "midi": 66,
      "hit": false,
      "t": 98471.35416666666,
      "d": 49.47916666667152,
      "v": 89
    },
    {
      "midi": 50,
      "hit": false,
      "t": 98481.77083333333,
      "d": 85.9375,
      "v": 96
    },
    {
      "midi": 38,
      "hit": false,
      "t": 98497.39583333333,
      "d": 49.47916666667152,
      "v": 87
    },
    {
      "midi": 66,
      "hit": false,
      "t": 98697.91666666666,
      "d": 59.89583333332848,
      "v": 93
    },
    {
      "midi": 74,
      "hit": false,
      "t": 98703.12499999999,
      "d": 49.47916666667152,
      "v": 102
    },
    {
      "midi": 66,
      "hit": false,
      "t": 98947.91666666666,
      "d": 338.54166666665697,
      "v": 93
    },
    {
      "midi": 74,
      "hit": false,
      "t": 98947.91666666666,
      "d": 463.5416666666424,
      "v": 103
    },
    {
      "midi": 57,
      "hit": false,
      "t": 99171.87499999999,
      "d": 44.27083333332848,
      "v": 85
    },
    {
      "midi": 45,
      "hit": false,
      "t": 99177.08333333331,
      "d": 39.0625,
      "v": 89
    },
    {
      "midi": 73,
      "hit": false,
      "t": 99401.04166666664,
      "d": 114.58333333332848,
      "v": 84
    },
    {
      "midi": 45,
      "hit": false,
      "t": 99406.24999999997,
      "d": 46.875,
      "v": 91
    },
    {
      "midi": 57,
      "hit": false,
      "t": 99406.24999999997,
      "d": 59.89583333332848,
      "v": 87
    },
    {
      "midi": 64,
      "hit": false,
      "t": 99411.4583333333,
      "d": 46.875,
      "v": 84
    },
    {
      "midi": 76,
      "hit": false,
      "t": 99622.3958333333,
      "d": 85.9375,
      "v": 109
    },
    {
      "midi": 73,
      "hit": false,
      "t": 99622.3958333333,
      "d": 98.95833333332848,
      "v": 78
    },
    {
      "midi": 76,
      "hit": false,
      "t": 99872.3958333333,
      "d": 234.375,
      "v": 105
    },
    {
      "midi": 73,
      "hit": false,
      "t": 99872.3958333333,
      "d": 354.16666666665697,
      "v": 95
    },
    {
      "midi": 57,
      "hit": false,
      "t": 100091.1458333333,
      "d": 44.27083333332848,
      "v": 83
    },
    {
      "midi": 45,
      "hit": false,
      "t": 100101.56249999997,
      "d": 49.479166666656965,
      "v": 73
    },
    {
      "midi": 78,
      "hit": false,
      "t": 100210.93749999996,
      "d": 151.04166666665697,
      "v": 76
    },
    {
      "midi": 74,
      "hit": false,
      "t": 100247.39583333328,
      "d": 93.75,
      "v": 71
    },
    {
      "midi": 76,
      "hit": false,
      "t": 100307.29166666661,
      "d": 78.125,
      "v": 98
    },
    {
      "midi": 79,
      "hit": false,
      "t": 100307.29166666661,
      "d": 114.58333333332848,
      "v": 97
    },
    {
      "midi": 45,
      "hit": false,
      "t": 100333.33333333328,
      "d": 49.479166666656965,
      "v": 86
    },
    {
      "midi": 57,
      "hit": false,
      "t": 100333.33333333328,
      "d": 72.91666666665697,
      "v": 91
    },
    {
      "midi": 79,
      "hit": false,
      "t": 100531.24999999994,
      "d": 104.16666666667152,
      "v": 92
    },
    {
      "midi": 76,
      "hit": false,
      "t": 100541.66666666661,
      "d": 36.45833333332848,
      "v": 101
    },
    {
      "midi": 76,
      "hit": false,
      "t": 100776.04166666661,
      "d": 434.8958333333285,
      "v": 107
    },
    {
      "midi": 79,
      "hit": false,
      "t": 100776.04166666661,
      "d": 476.5625,
      "v": 105
    },
    {
      "midi": 50,
      "hit": false,
      "t": 100997.39583333328,
      "d": 44.27083333332848,
      "v": 76
    },
    {
      "midi": 62,
      "hit": false,
      "t": 100997.39583333328,
      "d": 44.27083333332848,
      "v": 71
    },
    {
      "midi": 78,
      "hit": false,
      "t": 101221.35416666661,
      "d": 119.79166666667152,
      "v": 85
    },
    {
      "midi": 62,
      "hit": false,
      "t": 101226.56249999994,
      "d": 59.895833333343035,
      "v": 78
    },
    {
      "midi": 74,
      "hit": false,
      "t": 101226.56249999994,
      "d": 70.31250000001455,
      "v": 83
    },
    {
      "midi": 50,
      "hit": false,
      "t": 101236.97916666661,
      "d": 49.47916666667152,
      "v": 78
    },
    {
      "midi": 81,
      "hit": false,
      "t": 101437.49999999996,
      "d": 93.75,
      "v": 102
    },
    {
      "midi": 81,
      "hit": false,
      "t": 101671.87499999996,
      "d": 463.54166666665697,
      "v": 108
    },
    {
      "midi": 66,
      "hit": false,
      "t": 101890.62499999996,
      "d": 70.3125,
      "v": 75
    },
    {
      "midi": 60,
      "hit": false,
      "t": 101916.66666666663,
      "d": 49.479166666656965,
      "v": 61
    },
    {
      "midi": 62,
      "hit": false,
      "t": 101916.66666666663,
      "d": 59.89583333332848,
      "v": 52
    },
    {
      "midi": 66,
      "hit": false,
      "t": 102117.18749999996,
      "d": 49.479166666656965,
      "v": 79
    },
    {
      "midi": 62,
      "hit": false,
      "t": 102122.39583333328,
      "d": 49.479166666656965,
      "v": 57
    },
    {
      "midi": 74,
      "hit": false,
      "t": 102127.60416666661,
      "d": 138.02083333332848,
      "v": 101
    },
    {
      "midi": 86,
      "hit": false,
      "t": 102335.93749999994,
      "d": 96.35416666667152,
      "v": 107
    },
    {
      "midi": 86,
      "hit": false,
      "t": 102583.33333333328,
      "d": 364.58333333331393,
      "v": 110
    },
    {
      "midi": 62,
      "hit": false,
      "t": 102802.08333333328,
      "d": 59.89583333332848,
      "v": 40
    },
    {
      "midi": 67,
      "hit": false,
      "t": 102802.08333333328,
      "d": 65.10416666665697,
      "v": 49
    },
    {
      "midi": 59,
      "hit": false,
      "t": 102809.89583333328,
      "d": 44.27083333332848,
      "v": 47
    },
    {
      "midi": 83,
      "hit": false,
      "t": 102942.70833333327,
      "d": 119.79166666665697,
      "v": 76
    },
    {
      "midi": 79,
      "hit": false,
      "t": 103026.0416666666,
      "d": 36.45833333332848,
      "v": 98
    },
    {
      "midi": 67,
      "hit": false,
      "t": 103026.0416666666,
      "d": 46.875,
      "v": 84
    },
    {
      "midi": 62,
      "hit": false,
      "t": 103031.24999999993,
      "d": 65.10416666667152,
      "v": 47
    },
    {
      "midi": 59,
      "hit": false,
      "t": 103046.87499999993,
      "d": 54.6875,
      "v": 44
    },
    {
      "midi": 83,
      "hit": false,
      "t": 103257.81249999993,
      "d": 93.75,
      "v": 97
    },
    {
      "midi": 81,
      "hit": false,
      "t": 103481.77083333326,
      "d": 283.8541666666715,
      "v": 108
    },
    {
      "midi": 57,
      "hit": false,
      "t": 103687.49999999993,
      "d": 52.08333333332848,
      "v": 54
    },
    {
      "midi": 66,
      "hit": false,
      "t": 103692.70833333326,
      "d": 54.6875,
      "v": 70
    },
    {
      "midi": 78,
      "hit": false,
      "t": 103802.08333333326,
      "d": 54.6875,
      "v": 83
    },
    {
      "midi": 66,
      "hit": false,
      "t": 103901.04166666658,
      "d": 57.29166666667152,
      "v": 78
    },
    {
      "midi": 74,
      "hit": false,
      "t": 103911.45833333326,
      "d": 49.47916666667152,
      "v": 83
    },
    {
      "midi": 57,
      "hit": false,
      "t": 103916.66666666658,
      "d": 54.68750000001455,
      "v": 39
    },
    {
      "midi": 73,
      "hit": false,
      "t": 104132.81249999993,
      "d": 59.89583333332848,
      "v": 84
    },
    {
      "midi": 57,
      "hit": false,
      "t": 104161.45833333326,
      "d": 41.66666666667152,
      "v": 72
    },
    {
      "midi": 64,
      "hit": false,
      "t": 104161.45833333326,
      "d": 41.66666666667152,
      "v": 66
    },
    {
      "midi": 74,
      "hit": false,
      "t": 104390.62499999993,
      "d": 276.04166666665697,
      "v": 101
    },
    {
      "midi": 62,
      "hit": false,
      "t": 104395.83333333326,
      "d": 195.3125,
      "v": 72
    },
    {
      "midi": 50,
      "hit": false,
      "t": 104406.24999999993,
      "d": 216.14583333332848,
      "v": 76
    },
    {
      "midi": 81,
      "hit": false,
      "t": 105096.35416666658,
      "d": 39.0625,
      "v": 70
    },
    {
      "midi": 81,
      "hit": false,
      "t": 105361.97916666658,
      "d": 471.35416666665697,
      "v": 65
    },
    {
      "midi": 69,
      "hit": false,
      "t": 105572.91666666658,
      "d": 67.70833333332848,
      "v": 44
    },
    {
      "midi": 66,
      "hit": false,
      "t": 105578.12499999991,
      "d": 54.6875,
      "v": 46
    },
    {
      "midi": 75,
      "hit": false,
      "t": 105817.70833333324,
      "d": 169.27083333332848,
      "v": 47
    },
    {
      "midi": 69,
      "hit": false,
      "t": 105828.12499999991,
      "d": 72.91666666665697,
      "v": 57
    },
    {
      "midi": 66,
      "hit": false,
      "t": 105833.33333333324,
      "d": 104.16666666665697,
      "v": 40
    },
    {
      "midi": 83,
      "hit": false,
      "t": 106046.8749999999,
      "d": 49.47916666667152,
      "v": 66
    },
    {
      "midi": 83,
      "hit": false,
      "t": 106296.8749999999,
      "d": 455.72916666665697,
      "v": 75
    },
    {
      "midi": 71,
      "hit": false,
      "t": 106507.8124999999,
      "d": 59.89583333332848,
      "v": 37
    },
    {
      "midi": 67,
      "hit": false,
      "t": 106513.02083333323,
      "d": 59.89583333332848,
      "v": 34
    },
    {
      "midi": 67,
      "hit": false,
      "t": 106765.62499999988,
      "d": 57.291666666656965,
      "v": 39
    },
    {
      "midi": 76,
      "hit": false,
      "t": 106765.62499999988,
      "d": 216.14583333332848,
      "v": 63
    },
    {
      "midi": 71,
      "hit": false,
      "t": 106770.83333333321,
      "d": 114.58333333332848,
      "v": 30
    },
    {
      "midi": 79,
      "hit": false,
      "t": 107007.81249999988,
      "d": 54.6875,
      "v": 80
    },
    {
      "midi": 79,
      "hit": false,
      "t": 107226.56249999988,
      "d": 283.85416666668607,
      "v": 88
    },
    {
      "midi": 61,
      "hit": false,
      "t": 107236.97916666656,
      "d": 44.27083333332848,
      "v": 53
    },
    {
      "midi": 69,
      "hit": false,
      "t": 107236.97916666656,
      "d": 54.6875,
      "v": 52
    },
    {
      "midi": 61,
      "hit": false,
      "t": 107481.77083333323,
      "d": 65.10416666667152,
      "v": 34
    },
    {
      "midi": 69,
      "hit": false,
      "t": 107492.1874999999,
      "d": 54.6875,
      "v": 26
    },
    {
      "midi": 81,
      "hit": false,
      "t": 107531.2499999999,
      "d": 54.6875,
      "v": 76
    },
    {
      "midi": 79,
      "hit": false,
      "t": 107585.9374999999,
      "d": 85.9375,
      "v": 81
    },
    {
      "midi": 69,
      "hit": false,
      "t": 107651.04166666657,
      "d": 75.52083333332848,
      "v": 51
    },
    {
      "midi": 78,
      "hit": false,
      "t": 107656.2499999999,
      "d": 54.6875,
      "v": 83
    },
    {
      "midi": 62,
      "hit": false,
      "t": 107677.08333333323,
      "d": 54.6875,
      "v": 53
    },
    {
      "midi": 62,
      "hit": false,
      "t": 107872.39583333323,
      "d": 70.3125,
      "v": 33
    },
    {
      "midi": 78,
      "hit": false,
      "t": 107877.60416666656,
      "d": 54.6875,
      "v": 84
    },
    {
      "midi": 76,
      "hit": false,
      "t": 108132.8124999999,
      "d": 218.75,
      "v": 60
    },
    {
      "midi": 69,
      "hit": false,
      "t": 108140.6249999999,
      "d": 145.83333333332848,
      "v": 35
    },
    {
      "midi": 57,
      "hit": false,
      "t": 108140.6249999999,
      "d": 356.7708333333285,
      "v": 41
    },
    {
      "midi": 73,
      "hit": false,
      "t": 108356.77083333323,
      "d": 114.58333333332848,
      "v": 44
    },
    {
      "midi": 69,
      "hit": false,
      "t": 108567.70833333323,
      "d": 65.10416666667152,
      "v": 60
    },
    {
      "midi": 66,
      "hit": false,
      "t": 108776.04166666657,
      "d": 52.08333333332848,
      "v": 79
    },
    {
      "midi": 69,
      "hit": false,
      "t": 108781.2499999999,
      "d": 46.875,
      "v": 87
    },
    {
      "midi": 66,
      "hit": false,
      "t": 109015.6249999999,
      "d": 242.18749999998545,
      "v": 101
    },
    {
      "midi": 69,
      "hit": false,
      "t": 109015.6249999999,
      "d": 401.0416666666424,
      "v": 105
    },
    {
      "midi": 50,
      "hit": false,
      "t": 109231.77083333323,
      "d": 44.27083333331393,
      "v": 92
    },
    {
      "midi": 38,
      "hit": false,
      "t": 109236.97916666656,
      "d": 33.854166666656965,
      "v": 89
    },
    {
      "midi": 66,
      "hit": false,
      "t": 109458.33333333321,
      "d": 57.29166666667152,
      "v": 95
    },
    {
      "midi": 62,
      "hit": false,
      "t": 109460.93749999988,
      "d": 46.875,
      "v": 90
    },
    {
      "midi": 50,
      "hit": false,
      "t": 109460.93749999988,
      "d": 80.72916666667152,
      "v": 97
    },
    {
      "midi": 38,
      "hit": false,
      "t": 109471.35416666656,
      "d": 36.45833333332848,
      "v": 88
    },
    {
      "midi": 66,
      "hit": false,
      "t": 109671.87499999988,
      "d": 104.16666666667152,
      "v": 99
    },
    {
      "midi": 74,
      "hit": false,
      "t": 109682.29166666656,
      "d": 104.16666666667152,
      "v": 108
    },
    {
      "midi": 66,
      "hit": false,
      "t": 109921.8749999999,
      "d": 325.5208333333285,
      "v": 97
    },
    {
      "midi": 74,
      "hit": false,
      "t": 109921.8749999999,
      "d": 440.10416666665697,
      "v": 109
    },
    {
      "midi": 57,
      "hit": false,
      "t": 110140.6249999999,
      "d": 52.08333333332848,
      "v": 87
    },
    {
      "midi": 45,
      "hit": false,
      "t": 110145.83333333323,
      "d": 52.08333333332848,
      "v": 88
    },
    {
      "midi": 73,
      "hit": false,
      "t": 110356.77083333323,
      "d": 119.79166666665697,
      "v": 90
    },
    {
      "midi": 64,
      "hit": false,
      "t": 110361.97916666656,
      "d": 44.27083333332848,
      "v": 88
    },
    {
      "midi": 57,
      "hit": false,
      "t": 110367.18749999988,
      "d": 104.16666666667152,
      "v": 88
    },
    {
      "midi": 45,
      "hit": false,
      "t": 110372.39583333321,
      "d": 80.72916666667152,
      "v": 87
    },
    {
      "midi": 73,
      "hit": false,
      "t": 110572.91666666656,
      "d": 104.16666666665697,
      "v": 88
    },
    {
      "midi": 76,
      "hit": false,
      "t": 110578.12499999988,
      "d": 83.33333333332848,
      "v": 110
    },
    {
      "midi": 76,
      "hit": false,
      "t": 110822.91666666654,
      "d": 283.8541666666715,
      "v": 112
    },
    {
      "midi": 73,
      "hit": false,
      "t": 110828.12499999987,
      "d": 359.375,
      "v": 103
    },
    {
      "midi": 57,
      "hit": false,
      "t": 111026.04166666654,
      "d": 65.10416666667152,
      "v": 94
    },
    {
      "midi": 45,
      "hit": false,
      "t": 111031.24999999987,
      "d": 41.66666666667152,
      "v": 88
    },
    {
      "midi": 78,
      "hit": false,
      "t": 111166.66666666654,
      "d": 125,
      "v": 77
    },
    {
      "midi": 74,
      "hit": false,
      "t": 111187.49999999987,
      "d": 98.95833333334303,
      "v": 80
    },
    {
      "midi": 79,
      "hit": false,
      "t": 111257.81249999987,
      "d": 93.75,
      "v": 95
    },
    {
      "midi": 76,
      "hit": false,
      "t": 111260.41666666654,
      "d": 46.875,
      "v": 104
    },
    {
      "midi": 57,
      "hit": false,
      "t": 111270.83333333321,
      "d": 57.291666666656965,
      "v": 99
    },
    {
      "midi": 45,
      "hit": false,
      "t": 111270.83333333321,
      "d": 65.10416666665697,
      "v": 92
    },
    {
      "midi": 76,
      "hit": false,
      "t": 111481.7708333332,
      "d": 39.0625,
      "v": 104
    },
    {
      "midi": 79,
      "hit": false,
      "t": 111481.7708333332,
      "d": 101.5625,
      "v": 105
    },
    {
      "midi": 76,
      "hit": false,
      "t": 111721.35416666653,
      "d": 455.72916666665697,
      "v": 114
    },
    {
      "midi": 79,
      "hit": false,
      "t": 111721.35416666653,
      "d": 466.14583333331393,
      "v": 114
    },
    {
      "midi": 62,
      "hit": false,
      "t": 111953.12499999985,
      "d": 39.0625,
      "v": 91
    },
    {
      "midi": 50,
      "hit": false,
      "t": 111960.93749999985,
      "d": 41.66666666667152,
      "v": 85
    },
    {
      "midi": 78,
      "hit": false,
      "t": 112166.66666666653,
      "d": 119.79166666665697,
      "v": 90
    },
    {
      "midi": 74,
      "hit": false,
      "t": 112171.87499999985,
      "d": 75.52083333332848,
      "v": 91
    },
    {
      "midi": 50,
      "hit": false,
      "t": 112182.29166666651,
      "d": 39.0625,
      "v": 80
    },
    {
      "midi": 62,
      "hit": false,
      "t": 112182.29166666651,
      "d": 44.27083333332848,
      "v": 88
    },
    {
      "midi": 81,
      "hit": false,
      "t": 112390.62499999985,
      "d": 75.52083333332848,
      "v": 105
    },
    {
      "midi": 81,
      "hit": false,
      "t": 112635.41666666651,
      "d": 421.87499999998545,
      "v": 100
    },
    {
      "midi": 66,
      "hit": false,
      "t": 112841.14583333317,
      "d": 65.10416666665697,
      "v": 68
    },
    {
      "midi": 62,
      "hit": false,
      "t": 112846.3541666665,
      "d": 65.10416666665697,
      "v": 58
    },
    {
      "midi": 60,
      "hit": false,
      "t": 112854.1666666665,
      "d": 59.89583333332848,
      "v": 52
    },
    {
      "midi": 74,
      "hit": false,
      "t": 113072.9166666665,
      "d": 104.16666666667152,
      "v": 100
    },
    {
      "midi": 66,
      "hit": false,
      "t": 113083.33333333317,
      "d": 44.270833333343035,
      "v": 73
    },
    {
      "midi": 62,
      "hit": false,
      "t": 113093.74999999984,
      "d": 54.6875,
      "v": 54
    },
    {
      "midi": 60,
      "hit": false,
      "t": 113093.74999999984,
      "d": 67.70833333332848,
      "v": 38
    },
    {
      "midi": 86,
      "hit": false,
      "t": 113302.08333333317,
      "d": 83.33333333332848,
      "v": 108
    },
    {
      "midi": 86,
      "hit": false,
      "t": 113552.08333333317,
      "d": 315.1041666666715,
      "v": 101
    },
    {
      "midi": 67,
      "hit": false,
      "t": 113757.81249999984,
      "d": 59.89583333332848,
      "v": 60
    },
    {
      "midi": 59,
      "hit": false,
      "t": 113770.83333333317,
      "d": 57.29166666667152,
      "v": 43
    },
    {
      "midi": 62,
      "hit": false,
      "t": 113776.0416666665,
      "d": 59.895833333343035,
      "v": 45
    },
    {
      "midi": 83,
      "hit": false,
      "t": 113895.83333333317,
      "d": 41.66666666667152,
      "v": 66
    },
    {
      "midi": 67,
      "hit": false,
      "t": 113986.97916666651,
      "d": 70.3125,
      "v": 73
    },
    {
      "midi": 79,
      "hit": false,
      "t": 113986.97916666651,
      "d": 104.16666666667152,
      "v": 92
    },
    {
      "midi": 62,
      "hit": false,
      "t": 113992.18749999984,
      "d": 65.10416666667152,
      "v": 48
    },
    {
      "midi": 59,
      "hit": false,
      "t": 113994.79166666651,
      "d": 54.6875,
      "v": 18
    },
    {
      "midi": 83,
      "hit": false,
      "t": 114210.93749999985,
      "d": 106.77083333332848,
      "v": 88
    },
    {
      "midi": 81,
      "hit": false,
      "t": 114460.93749999985,
      "d": 315.1041666666715,
      "v": 78
    },
    {
      "midi": 57,
      "hit": false,
      "t": 114653.64583333318,
      "d": 59.895833333343035,
      "v": 45
    },
    {
      "midi": 66,
      "hit": false,
      "t": 114656.24999999985,
      "d": 59.895833333343035,
      "v": 51
    },
    {
      "midi": 78,
      "hit": false,
      "t": 114796.87499999985,
      "d": 54.6875,
      "v": 67
    },
    {
      "midi": 74,
      "hit": false,
      "t": 114885.41666666653,
      "d": 46.87500000001455,
      "v": 72
    },
    {
      "midi": 57,
      "hit": false,
      "t": 114888.0208333332,
      "d": 54.68750000001455,
      "v": 45
    },
    {
      "midi": 66,
      "hit": false,
      "t": 114890.62499999987,
      "d": 57.29166666667152,
      "v": 67
    },
    {
      "midi": 73,
      "hit": false,
      "t": 115122.39583333321,
      "d": 54.68750000001455,
      "v": 65
    },
    {
      "midi": 64,
      "hit": false,
      "t": 115124.99999999988,
      "d": 49.47916666667152,
      "v": 48
    },
    {
      "midi": 57,
      "hit": false,
      "t": 115124.99999999988,
      "d": 54.68750000001455,
      "v": 41
    },
    {
      "midi": 62,
      "hit": false,
      "t": 115429.6874999999,
      "d": 473.95833333334303,
      "v": 38
    },
    {
      "midi": 74,
      "hit": false,
      "t": 115432.29166666657,
      "d": 554.6875000000146,
      "v": 61
    },
    {
      "midi": 50,
      "hit": false,
      "t": 115440.10416666657,
      "d": 473.95833333334303,
      "v": 39
    },
    {
      "midi": 74,
      "hit": false,
      "t": 116395.83333333324,
      "d": 41.66666666667152,
      "v": 67
    },
    {
      "midi": 79,
      "hit": false,
      "t": 116703.12499999991,
      "d": 88.54166666667152,
      "v": 77
    },
    {
      "midi": 67,
      "hit": false,
      "t": 116705.72916666658,
      "d": 304.68749999998545,
      "v": 37
    },
    {
      "midi": 71,
      "hit": false,
      "t": 116708.33333333326,
      "d": 322.9166666666424,
      "v": 36
    },
    {
      "midi": 78,
      "hit": false,
      "t": 116822.91666666658,
      "d": 67.70833333332848,
      "v": 70
    },
    {
      "midi": 81,
      "hit": false,
      "t": 116927.08333333324,
      "d": 54.6875,
      "v": 68
    },
    {
      "midi": 79,
      "hit": false,
      "t": 117010.41666666657,
      "d": 57.291666666656965,
      "v": 80
    },
    {
      "midi": 83,
      "hit": false,
      "t": 117127.60416666656,
      "d": 33.85416666667152,
      "v": 69
    },
    {
      "midi": 79,
      "hit": false,
      "t": 117356.77083333323,
      "d": 39.0625,
      "v": 84
    },
    {
      "midi": 71,
      "hit": false,
      "t": 117356.77083333323,
      "d": 44.27083333332848,
      "v": 41
    },
    {
      "midi": 67,
      "hit": false,
      "t": 117364.58333333323,
      "d": 62.5,
      "v": 42
    },
    {
      "midi": 62,
      "hit": false,
      "t": 117596.35416666656,
      "d": 380.2083333333576,
      "v": 31
    },
    {
      "midi": 69,
      "hit": false,
      "t": 117598.95833333323,
      "d": 315.10416666668607,
      "v": 46
    },
    {
      "midi": 78,
      "hit": false,
      "t": 117601.5624999999,
      "d": 221.35416666667152,
      "v": 66
    },
    {
      "midi": 81,
      "hit": false,
      "t": 117841.14583333324,
      "d": 54.6875,
      "v": 73
    },
    {
      "midi": 74,
      "hit": false,
      "t": 118062.49999999991,
      "d": 49.47916666667152,
      "v": 75
    },
    {
      "midi": 86,
      "hit": false,
      "t": 118281.24999999991,
      "d": 75.52083333332848,
      "v": 80
    },
    {
      "midi": 62,
      "hit": false,
      "t": 118286.45833333324,
      "d": 54.6875,
      "v": 65
    },
    {
      "midi": 69,
      "hit": false,
      "t": 118291.66666666657,
      "d": 49.47916666667152,
      "v": 63
    },
    {
      "midi": 71,
      "hit": false,
      "t": 118507.81249999991,
      "d": 78.125,
      "v": 75
    },
    {
      "midi": 67,
      "hit": false,
      "t": 118515.62499999991,
      "d": 62.5,
      "v": 81
    },
    {
      "midi": 83,
      "hit": false,
      "t": 118736.97916666658,
      "d": 49.479166666656965,
      "v": 76
    },
    {
      "midi": 79,
      "hit": false,
      "t": 118742.18749999991,
      "d": 39.0625,
      "v": 78
    },
    {
      "midi": 60,
      "hit": false,
      "t": 118958.33333333324,
      "d": 52.08333333332848,
      "v": 65
    },
    {
      "midi": 81,
      "hit": false,
      "t": 119177.08333333324,
      "d": 49.47916666667152,
      "v": 66
    },
    {
      "midi": 84,
      "hit": false,
      "t": 119177.08333333324,
      "d": 49.47916666667152,
      "v": 76
    },
    {
      "midi": 62,
      "hit": false,
      "t": 119401.04166666658,
      "d": 481.77083333331393,
      "v": 46
    },
    {
      "midi": 79,
      "hit": false,
      "t": 119606.77083333326,
      "d": 239.58333333331393,
      "v": 81
    },
    {
      "midi": 83,
      "hit": false,
      "t": 119611.97916666658,
      "d": 244.79166666665697,
      "v": 72
    },
    {
      "midi": 78,
      "hit": false,
      "t": 119828.12499999991,
      "d": 54.68749999998545,
      "v": 78
    },
    {
      "midi": 81,
      "hit": false,
      "t": 119833.33333333324,
      "d": 44.27083333332848,
      "v": 92
    },
    {
      "midi": 74,
      "hit": false,
      "t": 120046.8749999999,
      "d": 39.0625,
      "v": 90
    },
    {
      "midi": 79,
      "hit": false,
      "t": 120291.66666666657,
      "d": 130.20833333332848,
      "v": 102
    },
    {
      "midi": 71,
      "hit": false,
      "t": 120296.8749999999,
      "d": 213.54166666667152,
      "v": 48
    },
    {
      "midi": 67,
      "hit": false,
      "t": 120302.08333333323,
      "d": 229.16666666667152,
      "v": 44
    },
    {
      "midi": 78,
      "hit": false,
      "t": 120395.83333333323,
      "d": 145.83333333334303,
      "v": 90
    },
    {
      "midi": 81,
      "hit": false,
      "t": 120507.8124999999,
      "d": 158.85416666667152,
      "v": 95
    },
    {
      "midi": 79,
      "hit": false,
      "t": 120606.77083333324,
      "d": 125,
      "v": 95
    },
    {
      "midi": 83,
      "hit": false,
      "t": 120697.91666666657,
      "d": 72.91666666667152,
      "v": 92
    },
    {
      "midi": 79,
      "hit": false,
      "t": 120927.08333333324,
      "d": 44.27083333332848,
      "v": 96
    },
    {
      "midi": 67,
      "hit": false,
      "t": 120927.08333333324,
      "d": 62.5,
      "v": 39
    },
    {
      "midi": 71,
      "hit": false,
      "t": 120932.29166666657,
      "d": 49.47916666667152,
      "v": 47
    },
    {
      "midi": 78,
      "hit": false,
      "t": 121171.87499999991,
      "d": 255.20833333332848,
      "v": 79
    },
    {
      "midi": 69,
      "hit": false,
      "t": 121177.08333333324,
      "d": 265.625,
      "v": 54
    },
    {
      "midi": 62,
      "hit": false,
      "t": 121187.49999999991,
      "d": 320.3125,
      "v": 30
    },
    {
      "midi": 81,
      "hit": false,
      "t": 121395.83333333324,
      "d": 70.3125,
      "v": 86
    },
    {
      "midi": 74,
      "hit": false,
      "t": 121606.77083333324,
      "d": 91.14583333332848,
      "v": 83
    },
    {
      "midi": 69,
      "hit": false,
      "t": 121822.91666666657,
      "d": 44.27083333332848,
      "v": 81
    },
    {
      "midi": 62,
      "hit": false,
      "t": 121822.91666666657,
      "d": 59.89583333332848,
      "v": 56
    },
    {
      "midi": 86,
      "hit": false,
      "t": 121822.91666666657,
      "d": 93.75,
      "v": 83
    },
    {
      "midi": 71,
      "hit": false,
      "t": 122052.08333333324,
      "d": 93.75,
      "v": 76
    },
    {
      "midi": 67,
      "hit": false,
      "t": 122062.49999999991,
      "d": 130.20833333332848,
      "v": 85
    },
    {
      "midi": 83,
      "hit": false,
      "t": 122265.62499999991,
      "d": 111.97916666667152,
      "v": 79
    },
    {
      "midi": 79,
      "hit": false,
      "t": 122270.83333333324,
      "d": 65.10416666667152,
      "v": 85
    },
    {
      "midi": 62,
      "hit": false,
      "t": 122481.77083333326,
      "d": 59.89583333332848,
      "v": 76
    },
    {
      "midi": 81,
      "hit": false,
      "t": 122687.49999999991,
      "d": 44.270833333343035,
      "v": 81
    },
    {
      "midi": 72,
      "hit": false,
      "t": 122697.91666666658,
      "d": 59.895833333343035,
      "v": 74
    },
    {
      "midi": 55,
      "hit": false,
      "t": 122911.45833333326,
      "d": 348.9583333333285,
      "v": 66
    },
    {
      "midi": 71,
      "hit": false,
      "t": 123140.62499999993,
      "d": 140.62499999998545,
      "v": 65
    },
    {
      "midi": 79,
      "hit": false,
      "t": 123145.83333333326,
      "d": 187.49999999998545,
      "v": 79
    },
    {
      "midi": 74,
      "hit": false,
      "t": 123601.5624999999,
      "d": 44.27083333332848,
      "v": 64
    },
    {
      "midi": 79,
      "hit": false,
      "t": 123846.35416666656,
      "d": 49.47916666667152,
      "v": 79
    },
    {
      "midi": 67,
      "hit": false,
      "t": 123864.58333333323,
      "d": 250,
      "v": 27
    },
    {
      "midi": 71,
      "hit": false,
      "t": 123864.58333333323,
      "d": 255.20833333332848,
      "v": 27
    },
    {
      "midi": 78,
      "hit": false,
      "t": 123960.9374999999,
      "d": 85.9375,
      "v": 60
    },
    {
      "midi": 81,
      "hit": false,
      "t": 124078.1249999999,
      "d": 57.291666666656965,
      "v": 47
    },
    {
      "midi": 79,
      "hit": false,
      "t": 124140.62499999988,
      "d": 57.29166666667152,
      "v": 63
    },
    {
      "midi": 83,
      "hit": false,
      "t": 124265.62499999988,
      "d": 36.45833333332848,
      "v": 59
    },
    {
      "midi": 71,
      "hit": false,
      "t": 124492.18749999988,
      "d": 54.6875,
      "v": 31
    },
    {
      "midi": 79,
      "hit": false,
      "t": 124497.39583333321,
      "d": 49.47916666667152,
      "v": 63
    },
    {
      "midi": 67,
      "hit": false,
      "t": 124499.99999999988,
      "d": 75.52083333332848,
      "v": 38
    },
    {
      "midi": 78,
      "hit": false,
      "t": 124736.97916666654,
      "d": 221.35416666667152,
      "v": 56
    },
    {
      "midi": 69,
      "hit": false,
      "t": 124739.58333333321,
      "d": 255.20833333334303,
      "v": 32
    },
    {
      "midi": 62,
      "hit": false,
      "t": 124744.79166666654,
      "d": 289.06250000001455,
      "v": 27
    },
    {
      "midi": 81,
      "hit": false,
      "t": 124976.56249999988,
      "d": 54.6875,
      "v": 53
    },
    {
      "midi": 74,
      "hit": false,
      "t": 125192.70833333323,
      "d": 49.47916666667152,
      "v": 60
    },
    {
      "midi": 86,
      "hit": false,
      "t": 125401.04166666657,
      "d": 57.29166666667152,
      "v": 63
    },
    {
      "midi": 62,
      "hit": false,
      "t": 125401.04166666657,
      "d": 65.10416666667152,
      "v": 46
    },
    {
      "midi": 69,
      "hit": false,
      "t": 125416.66666666657,
      "d": 59.895833333343035,
      "v": 29
    },
    {
      "midi": 71,
      "hit": false,
      "t": 125606.77083333324,
      "d": 75.52083333332848,
      "v": 64
    },
    {
      "midi": 67,
      "hit": false,
      "t": 125611.97916666657,
      "d": 91.14583333332848,
      "v": 72
    },
    {
      "midi": 83,
      "hit": false,
      "t": 125828.1249999999,
      "d": 49.47916666667152,
      "v": 53
    },
    {
      "midi": 79,
      "hit": false,
      "t": 125835.9374999999,
      "d": 54.6875,
      "v": 51
    },
    {
      "midi": 60,
      "hit": false,
      "t": 126052.08333333323,
      "d": 54.6875,
      "v": 66
    },
    {
      "midi": 81,
      "hit": false,
      "t": 126247.39583333323,
      "d": 54.6875,
      "v": 61
    },
    {
      "midi": 84,
      "hit": false,
      "t": 126252.60416666656,
      "d": 49.47916666667152,
      "v": 63
    },
    {
      "midi": 62,
      "hit": false,
      "t": 126502.60416666656,
      "d": 440.10416666665697,
      "v": 61
    },
    {
      "midi": 79,
      "hit": false,
      "t": 126703.12499999988,
      "d": 179.6875,
      "v": 75
    },
    {
      "midi": 83,
      "hit": false,
      "t": 126703.12499999988,
      "d": 203.125,
      "v": 69
    },
    {
      "midi": 81,
      "hit": false,
      "t": 126921.87499999988,
      "d": 44.27083333332848,
      "v": 85
    },
    {
      "midi": 78,
      "hit": false,
      "t": 126927.08333333321,
      "d": 49.47916666667152,
      "v": 68
    },
    {
      "midi": 74,
      "hit": false,
      "t": 127156.24999999988,
      "d": 41.66666666667152,
      "v": 71
    },
    {
      "midi": 79,
      "hit": false,
      "t": 127395.83333333323,
      "d": 57.29166666667152,
      "v": 77
    },
    {
      "midi": 71,
      "hit": false,
      "t": 127416.66666666656,
      "d": 255.2083333333576,
      "v": 30
    },
    {
      "midi": 67,
      "hit": false,
      "t": 127427.08333333323,
      "d": 244.79166666668607,
      "v": 37
    },
    {
      "midi": 78,
      "hit": false,
      "t": 127502.60416666657,
      "d": 104.16666666667152,
      "v": 68
    },
    {
      "midi": 81,
      "hit": false,
      "t": 127606.77083333324,
      "d": 54.6875,
      "v": 72
    },
    {
      "midi": 79,
      "hit": false,
      "t": 127692.70833333324,
      "d": 54.6875,
      "v": 78
    },
    {
      "midi": 83,
      "hit": false,
      "t": 127786.45833333324,
      "d": 31.25,
      "v": 89
    },
    {
      "midi": 79,
      "hit": false,
      "t": 128015.62499999991,
      "d": 41.66666666667152,
      "v": 91
    },
    {
      "midi": 71,
      "hit": false,
      "t": 128026.04166666658,
      "d": 46.875,
      "v": 42
    },
    {
      "midi": 67,
      "hit": false,
      "t": 128041.66666666658,
      "d": 70.3125,
      "v": 45
    },
    {
      "midi": 78,
      "hit": false,
      "t": 128247.39583333326,
      "d": 229.16666666667152,
      "v": 88
    },
    {
      "midi": 69,
      "hit": false,
      "t": 128257.81249999993,
      "d": 200.52083333332848,
      "v": 54
    },
    {
      "midi": 62,
      "hit": false,
      "t": 128265.62499999993,
      "d": 260.4166666666715,
      "v": 38
    },
    {
      "midi": 81,
      "hit": false,
      "t": 128466.14583333326,
      "d": 44.270833333343035,
      "v": 89
    },
    {
      "midi": 74,
      "hit": false,
      "t": 128671.87499999993,
      "d": 49.47916666667152,
      "v": 90
    },
    {
      "midi": 69,
      "hit": false,
      "t": 128885.4166666666,
      "d": 46.875,
      "v": 84
    },
    {
      "midi": 62,
      "hit": false,
      "t": 128885.4166666666,
      "d": 52.08333333332848,
      "v": 78
    },
    {
      "midi": 86,
      "hit": false,
      "t": 128885.4166666666,
      "d": 106.77083333332848,
      "v": 95
    },
    {
      "midi": 71,
      "hit": false,
      "t": 129106.77083333326,
      "d": 39.0625,
      "v": 79
    },
    {
      "midi": 67,
      "hit": false,
      "t": 129117.18749999993,
      "d": 39.0625,
      "v": 87
    },
    {
      "midi": 83,
      "hit": false,
      "t": 129328.12499999993,
      "d": 44.27083333332848,
      "v": 76
    },
    {
      "midi": 79,
      "hit": false,
      "t": 129328.12499999993,
      "d": 49.479166666656965,
      "v": 86
    },
    {
      "midi": 62,
      "hit": false,
      "t": 129531.24999999991,
      "d": 52.08333333332848,
      "v": 74
    },
    {
      "midi": 81,
      "hit": false,
      "t": 129752.60416666657,
      "d": 39.0625,
      "v": 76
    },
    {
      "midi": 72,
      "hit": false,
      "t": 129752.60416666657,
      "d": 49.47916666667152,
      "v": 74
    },
    {
      "midi": 55,
      "hit": false,
      "t": 129971.35416666657,
      "d": 276.0416666666715,
      "v": 55
    },
    {
      "midi": 71,
      "hit": false,
      "t": 130197.91666666657,
      "d": 93.75,
      "v": 52
    },
    {
      "midi": 79,
      "hit": false,
      "t": 130197.91666666657,
      "d": 158.85416666667152,
      "v": 69
    },
    {
      "midi": 83,
      "hit": false,
      "t": 130708.33333333324,
      "d": 33.85416666667152,
      "v": 66
    },
    {
      "midi": 74,
      "hit": false,
      "t": 130710.93749999991,
      "d": 54.6875,
      "v": 45
    },
    {
      "midi": 67,
      "hit": false,
      "t": 130721.35416666658,
      "d": 49.479166666656965,
      "v": 52
    },
    {
      "midi": 84,
      "hit": false,
      "t": 130958.33333333324,
      "d": 88.54166666667152,
      "v": 80
    },
    {
      "midi": 74,
      "hit": false,
      "t": 130960.93749999991,
      "d": 216.14583333334303,
      "v": 54
    },
    {
      "midi": 66,
      "hit": false,
      "t": 130971.35416666658,
      "d": 260.4166666666715,
      "v": 38
    },
    {
      "midi": 86,
      "hit": false,
      "t": 131062.49999999991,
      "d": 83.33333333334303,
      "v": 78
    },
    {
      "midi": 83,
      "hit": false,
      "t": 131166.6666666666,
      "d": 65.10416666665697,
      "v": 55
    },
    {
      "midi": 84,
      "hit": false,
      "t": 131270.83333333326,
      "d": 52.083333333343035,
      "v": 81
    },
    {
      "midi": 81,
      "hit": false,
      "t": 131372.39583333326,
      "d": 39.0625,
      "v": 94
    },
    {
      "midi": 66,
      "hit": false,
      "t": 131596.3541666666,
      "d": 49.47916666668607,
      "v": 75
    },
    {
      "midi": 84,
      "hit": false,
      "t": 131601.56249999994,
      "d": 44.270833333343035,
      "v": 100
    },
    {
      "midi": 74,
      "hit": false,
      "t": 131606.77083333328,
      "d": 39.0625,
      "v": 77
    },
    {
      "midi": 83,
      "hit": false,
      "t": 131835.93749999994,
      "d": 125,
      "v": 90
    },
    {
      "midi": 67,
      "hit": false,
      "t": 131846.3541666666,
      "d": 239.58333333334303,
      "v": 65
    },
    {
      "midi": 74,
      "hit": false,
      "t": 131851.56249999994,
      "d": 164.0625,
      "v": 63
    },
    {
      "midi": 84,
      "hit": false,
      "t": 131942.70833333328,
      "d": 104.16666666665697,
      "v": 98
    },
    {
      "midi": 81,
      "hit": false,
      "t": 132046.87499999994,
      "d": 114.58333333331393,
      "v": 86
    },
    {
      "midi": 83,
      "hit": false,
      "t": 132151.0416666666,
      "d": 52.08333333331393,
      "v": 79
    },
    {
      "midi": 79,
      "hit": false,
      "t": 132257.8124999999,
      "d": 104.16666666665697,
      "v": 99
    },
    {
      "midi": 83,
      "hit": false,
      "t": 132476.5624999999,
      "d": 96.35416666668607,
      "v": 93
    },
    {
      "midi": 67,
      "hit": false,
      "t": 132481.77083333326,
      "d": 44.270833333343035,
      "v": 73
    },
    {
      "midi": 60,
      "hit": false,
      "t": 132703.12499999994,
      "d": 44.270833333343035,
      "v": 94
    },
    {
      "midi": 64,
      "hit": false,
      "t": 132708.33333333328,
      "d": 33.854166666656965,
      "v": 89
    },
    {
      "midi": 81,
      "hit": false,
      "t": 132710.93749999994,
      "d": 101.5625000000291,
      "v": 103
    },
    {
      "midi": 83,
      "hit": false,
      "t": 132807.29166666663,
      "d": 54.6875,
      "v": 84
    },
    {
      "midi": 81,
      "hit": false,
      "t": 132895.83333333328,
      "d": 130.20833333334303,
      "v": 86
    },
    {
      "midi": 64,
      "hit": false,
      "t": 132916.66666666663,
      "d": 41.666666666656965,
      "v": 88
    },
    {
      "midi": 60,
      "hit": false,
      "t": 132916.66666666663,
      "d": 49.479166666656965,
      "v": 81
    },
    {
      "midi": 83,
      "hit": false,
      "t": 133010.41666666663,
      "d": 62.5,
      "v": 78
    },
    {
      "midi": 61,
      "hit": false,
      "t": 133122.39583333328,
      "d": 39.0625,
      "v": 83
    },
    {
      "midi": 64,
      "hit": false,
      "t": 133122.39583333328,
      "d": 39.0625,
      "v": 84
    },
    {
      "midi": 79,
      "hit": false,
      "t": 133132.81249999994,
      "d": 49.47916666668607,
      "v": 83
    },
    {
      "midi": 81,
      "hit": false,
      "t": 133216.14583333328,
      "d": 59.895833333343035,
      "v": 85
    },
    {
      "midi": 61,
      "hit": false,
      "t": 133333.33333333328,
      "d": 44.270833333343035,
      "v": 76
    },
    {
      "midi": 79,
      "hit": false,
      "t": 133341.14583333328,
      "d": 59.895833333343035,
      "v": 83
    },
    {
      "midi": 64,
      "hit": false,
      "t": 133346.35416666663,
      "d": 39.0625,
      "v": 71
    },
    {
      "midi": 81,
      "hit": false,
      "t": 133447.91666666663,
      "d": 49.479166666656965,
      "v": 75
    },
    {
      "midi": 78,
      "hit": false,
      "t": 133546.87499999994,
      "d": 70.3125,
      "v": 71
    },
    {
      "midi": 62,
      "hit": false,
      "t": 133552.08333333328,
      "d": 260.41666666662786,
      "v": 69
    },
    {
      "midi": 79,
      "hit": false,
      "t": 133651.0416666666,
      "d": 65.10416666665697,
      "v": 73
    },
    {
      "midi": 76,
      "hit": false,
      "t": 133765.6249999999,
      "d": 57.291666666656965,
      "v": 72
    },
    {
      "midi": 78,
      "hit": false,
      "t": 133851.5624999999,
      "d": 59.895833333343035,
      "v": 71
    },
    {
      "midi": 74,
      "hit": false,
      "t": 133971.3541666666,
      "d": 54.6875,
      "v": 70
    },
    {
      "midi": 74,
      "hit": false,
      "t": 134221.3541666666,
      "d": 39.0625,
      "v": 69
    },
    {
      "midi": 79,
      "hit": false,
      "t": 134453.12499999994,
      "d": 54.6875,
      "v": 77
    },
    {
      "midi": 67,
      "hit": false,
      "t": 134471.3541666666,
      "d": 315.10416666668607,
      "v": 35
    },
    {
      "midi": 71,
      "hit": false,
      "t": 134471.3541666666,
      "d": 335.9375000000291,
      "v": 33
    },
    {
      "midi": 78,
      "hit": false,
      "t": 134567.70833333328,
      "d": 72.91666666665697,
      "v": 58
    },
    {
      "midi": 81,
      "hit": false,
      "t": 134671.87499999994,
      "d": 59.895833333343035,
      "v": 57
    },
    {
      "midi": 79,
      "hit": false,
      "t": 134781.24999999994,
      "d": 59.895833333343035,
      "v": 42
    },
    {
      "midi": 83,
      "hit": false,
      "t": 134882.81249999994,
      "d": 39.0625,
      "v": 56
    },
    {
      "midi": 79,
      "hit": false,
      "t": 135122.39583333328,
      "d": 44.270833333343035,
      "v": 62
    },
    {
      "midi": 71,
      "hit": false,
      "t": 135122.39583333328,
      "d": 54.6875,
      "v": 39
    },
    {
      "midi": 67,
      "hit": false,
      "t": 135122.39583333328,
      "d": 65.10416666665697,
      "v": 32
    },
    {
      "midi": 78,
      "hit": false,
      "t": 135351.56249999994,
      "d": 234.3749999999709,
      "v": 57
    },
    {
      "midi": 62,
      "hit": false,
      "t": 135354.1666666666,
      "d": 184.89583333331393,
      "v": 42
    },
    {
      "midi": 69,
      "hit": false,
      "t": 135356.77083333326,
      "d": 200.52083333331393,
      "v": 36
    },
    {
      "midi": 81,
      "hit": false,
      "t": 135585.9374999999,
      "d": 59.895833333343035,
      "v": 53
    },
    {
      "midi": 74,
      "hit": false,
      "t": 135807.2916666666,
      "d": 49.479166666656965,
      "v": 65
    },
    {
      "midi": 69,
      "hit": false,
      "t": 136026.0416666666,
      "d": 52.083333333343035,
      "v": 56
    },
    {
      "midi": 86,
      "hit": false,
      "t": 136026.0416666666,
      "d": 52.083333333343035,
      "v": 70
    },
    {
      "midi": 62,
      "hit": false,
      "t": 136031.24999999994,
      "d": 59.895833333343035,
      "v": 43
    },
    {
      "midi": 71,
      "hit": false,
      "t": 136257.81249999994,
      "d": 49.479166666656965,
      "v": 47
    },
    {
      "midi": 67,
      "hit": false,
      "t": 136260.4166666666,
      "d": 62.5,
      "v": 46
    },
    {
      "midi": 83,
      "hit": false,
      "t": 136497.39583333326,
      "d": 49.47916666668607,
      "v": 52
    },
    {
      "midi": 79,
      "hit": false,
      "t": 136502.6041666666,
      "d": 59.895833333343035,
      "v": 49
    },
    {
      "midi": 60,
      "hit": false,
      "t": 136710.93749999994,
      "d": 70.3125,
      "v": 45
    },
    {
      "midi": 81,
      "hit": false,
      "t": 136937.49999999994,
      "d": 54.6875,
      "v": 54
    },
    {
      "midi": 84,
      "hit": false,
      "t": 136942.70833333328,
      "d": 49.479166666656965,
      "v": 61
    },
    {
      "midi": 62,
      "hit": false,
      "t": 137166.6666666666,
      "d": 205.72916666665697,
      "v": 40
    },
    {
      "midi": 79,
      "hit": false,
      "t": 137372.39583333326,
      "d": 255.20833333331393,
      "v": 68
    },
    {
      "midi": 83,
      "hit": false,
      "t": 137374.9999999999,
      "d": 234.375,
      "v": 64
    },
    {
      "midi": 81,
      "hit": false,
      "t": 137611.97916666657,
      "d": 39.0625,
      "v": 86
    },
    {
      "midi": 78,
      "hit": false,
      "t": 137611.97916666657,
      "d": 49.479166666656965,
      "v": 75
    },
    {
      "midi": 74,
      "hit": false,
      "t": 137846.35416666657,
      "d": 36.458333333343035,
      "v": 85
    },
    {
      "midi": 79,
      "hit": false,
      "t": 138078.1249999999,
      "d": 72.91666666668607,
      "v": 87
    },
    {
      "midi": 67,
      "hit": false,
      "t": 138083.33333333326,
      "d": 244.79166666665697,
      "v": 39
    },
    {
      "midi": 71,
      "hit": false,
      "t": 138083.33333333326,
      "d": 257.8125,
      "v": 40
    },
    {
      "midi": 78,
      "hit": false,
      "t": 138177.08333333326,
      "d": 93.75,
      "v": 75
    },
    {
      "midi": 81,
      "hit": false,
      "t": 138281.2499999999,
      "d": 80.72916666668607,
      "v": 83
    },
    {
      "midi": 79,
      "hit": false,
      "t": 138377.6041666666,
      "d": 93.75,
      "v": 69
    },
    {
      "midi": 83,
      "hit": false,
      "t": 138481.77083333326,
      "d": 28.645833333343035,
      "v": 76
    },
    {
      "midi": 79,
      "hit": false,
      "t": 138716.14583333326,
      "d": 41.666666666656965,
      "v": 75
    },
    {
      "midi": 71,
      "hit": false,
      "t": 138721.3541666666,
      "d": 65.10416666665697,
      "v": 40
    },
    {
      "midi": 67,
      "hit": false,
      "t": 138731.77083333326,
      "d": 59.895833333343035,
      "v": 44
    },
    {
      "midi": 69,
      "hit": false,
      "t": 138953.12499999994,
      "d": 213.54166666668607,
      "v": 63
    },
    {
      "midi": 78,
      "hit": false,
      "t": 138953.12499999994,
      "d": 234.375,
      "v": 72
    },
    {
      "midi": 62,
      "hit": false,
      "t": 138958.33333333328,
      "d": 218.75,
      "v": 40
    },
    {
      "midi": 81,
      "hit": false,
      "t": 139187.49999999994,
      "d": 49.479166666656965,
      "v": 68
    },
    {
      "midi": 74,
      "hit": false,
      "t": 139406.24999999994,
      "d": 52.083333333343035,
      "v": 63
    },
    {
      "midi": 62,
      "hit": false,
      "t": 139627.60416666663,
      "d": 65.10416666668607,
      "v": 45
    },
    {
      "midi": 69,
      "hit": false,
      "t": 139632.81249999997,
      "d": 54.6875,
      "v": 59
    },
    {
      "midi": 86,
      "hit": false,
      "t": 139640.62499999997,
      "d": 52.083333333343035,
      "v": 58
    },
    {
      "midi": 71,
      "hit": false,
      "t": 139846.35416666666,
      "d": 54.6875,
      "v": 57
    },
    {
      "midi": 67,
      "hit": false,
      "t": 139856.7708333333,
      "d": 54.6875,
      "v": 44
    },
    {
      "midi": 83,
      "hit": false,
      "t": 140062.49999999997,
      "d": 49.47916666668607,
      "v": 57
    },
    {
      "midi": 79,
      "hit": false,
      "t": 140067.7083333333,
      "d": 59.895833333343035,
      "v": 46
    },
    {
      "midi": 62,
      "hit": false,
      "t": 140296.875,
      "d": 59.895833333343035,
      "v": 48
    },
    {
      "midi": 72,
      "hit": false,
      "t": 140510.4166666667,
      "d": 62.5,
      "v": 55
    },
    {
      "midi": 81,
      "hit": false,
      "t": 140515.62500000003,
      "d": 46.875,
      "v": 57
    },
    {
      "midi": 55,
      "hit": false,
      "t": 140742.18750000003,
      "d": 354.16666666665697,
      "v": 54
    },
    {
      "midi": 79,
      "hit": false,
      "t": 140992.18750000003,
      "d": 234.3749999999709,
      "v": 70
    },
    {
      "midi": 71,
      "hit": false,
      "t": 141000.00000000003,
      "d": 145.83333333331393,
      "v": 41
    },
    {
      "midi": 83,
      "hit": false,
      "t": 141606.77083333334,
      "d": 33.854166666656965,
      "v": 80
    },
    {
      "midi": 74,
      "hit": false,
      "t": 141611.9791666667,
      "d": 54.687499999970896,
      "v": 53
    },
    {
      "midi": 67,
      "hit": false,
      "t": 141622.39583333334,
      "d": 59.89583333331393,
      "v": 49
    },
    {
      "midi": 84,
      "hit": false,
      "t": 141895.8333333333,
      "d": 135.41666666665697,
      "v": 80
    },
    {
      "midi": 74,
      "hit": false,
      "t": 141916.66666666666,
      "d": 244.79166666662786,
      "v": 46
    },
    {
      "midi": 66,
      "hit": false,
      "t": 141916.66666666666,
      "d": 315.10416666662786,
      "v": 46
    },
    {
      "midi": 86,
      "hit": false,
      "t": 142020.8333333333,
      "d": 91.14583333331393,
      "v": 75
    },
    {
      "midi": 83,
      "hit": false,
      "t": 142127.60416666663,
      "d": 75.52083333331393,
      "v": 55
    },
    {
      "midi": 84,
      "hit": false,
      "t": 142236.97916666663,
      "d": 59.895833333343035,
      "v": 76
    },
    {
      "midi": 81,
      "hit": false,
      "t": 142341.1458333333,
      "d": 36.458333333343035,
      "v": 88
    },
    {
      "midi": 66,
      "hit": false,
      "t": 142585.9375,
      "d": 54.687500000029104,
      "v": 66
    },
    {
      "midi": 74,
      "hit": false,
      "t": 142591.14583333334,
      "d": 44.270833333343035,
      "v": 68
    },
    {
      "midi": 84,
      "hit": false,
      "t": 142591.14583333334,
      "d": 54.687500000029104,
      "v": 95
    },
    {
      "midi": 74,
      "hit": false,
      "t": 142846.35416666672,
      "d": 200.52083333331393,
      "v": 70
    },
    {
      "midi": 67,
      "hit": false,
      "t": 142848.95833333337,
      "d": 239.58333333334303,
      "v": 59
    },
    {
      "midi": 83,
      "hit": false,
      "t": 142851.56250000003,
      "d": 114.58333333334303,
      "v": 84
    },
    {
      "midi": 84,
      "hit": false,
      "t": 142958.33333333337,
      "d": 125,
      "v": 90
    },
    {
      "midi": 81,
      "hit": false,
      "t": 143067.70833333337,
      "d": 130.20833333334303,
      "v": 83
    },
    {
      "midi": 83,
      "hit": false,
      "t": 143182.29166666672,
      "d": 54.6875,
      "v": 75
    },
    {
      "midi": 79,
      "hit": false,
      "t": 143291.66666666672,
      "d": 44.270833333343035,
      "v": 90
    },
    {
      "midi": 83,
      "hit": false,
      "t": 143526.04166666672,
      "d": 41.66666666668607,
      "v": 84
    },
    {
      "midi": 67,
      "hit": false,
      "t": 143546.87500000006,
      "d": 44.270833333343035,
      "v": 60
    },
    {
      "midi": 64,
      "hit": false,
      "t": 143765.62500000006,
      "d": 41.66666666668607,
      "v": 84
    },
    {
      "midi": 60,
      "hit": false,
      "t": 143765.62500000006,
      "d": 49.47916666668607,
      "v": 91
    },
    {
      "midi": 81,
      "hit": false,
      "t": 143770.8333333334,
      "d": 111.97916666668607,
      "v": 98
    },
    {
      "midi": 83,
      "hit": false,
      "t": 143867.1875000001,
      "d": 54.6875,
      "v": 78
    },
    {
      "midi": 81,
      "hit": false,
      "t": 143971.35416666674,
      "d": 80.72916666665697,
      "v": 78
    },
    {
      "midi": 60,
      "hit": false,
      "t": 143981.7708333334,
      "d": 54.6875,
      "v": 70
    },
    {
      "midi": 64,
      "hit": false,
      "t": 143986.97916666674,
      "d": 39.0625,
      "v": 75
    },
    {
      "midi": 83,
      "hit": false,
      "t": 144101.56250000006,
      "d": 39.0625,
      "v": 58
    },
    {
      "midi": 64,
      "hit": false,
      "t": 144210.93750000006,
      "d": 46.875,
      "v": 83
    },
    {
      "midi": 61,
      "hit": false,
      "t": 144216.1458333334,
      "d": 49.479166666656965,
      "v": 57
    },
    {
      "midi": 79,
      "hit": false,
      "t": 144216.1458333334,
      "d": 54.6875,
      "v": 69
    },
    {
      "midi": 81,
      "hit": false,
      "t": 144317.7083333334,
      "d": 59.895833333343035,
      "v": 73
    },
    {
      "midi": 79,
      "hit": false,
      "t": 144468.7500000001,
      "d": 65.10416666668607,
      "v": 60
    },
    {
      "midi": 61,
      "hit": false,
      "t": 144468.7500000001,
      "d": 70.3125000000291,
      "v": 38
    },
    {
      "midi": 64,
      "hit": false,
      "t": 144473.95833333343,
      "d": 59.895833333343035,
      "v": 38
    },
    {
      "midi": 81,
      "hit": false,
      "t": 144546.87500000012,
      "d": 46.875,
      "v": 65
    },
    {
      "midi": 78,
      "hit": false,
      "t": 144645.83333333346,
      "d": 91.14583333334303,
      "v": 57
    },
    {
      "midi": 62,
      "hit": false,
      "t": 144666.6666666668,
      "d": 315.10416666668607,
      "v": 53
    },
    {
      "midi": 79,
      "hit": false,
      "t": 144757.81250000015,
      "d": 75.52083333334303,
      "v": 57
    },
    {
      "midi": 76,
      "hit": false,
      "t": 144885.41666666683,
      "d": 62.5,
      "v": 46
    },
    {
      "midi": 78,
      "hit": false,
      "t": 144981.7708333335,
      "d": 80.72916666665697,
      "v": 58
    },
    {
      "midi": 74,
      "hit": false,
      "t": 145127.6041666668,
      "d": 54.6875,
      "v": 41
    },
    {
      "midi": 74,
      "hit": false,
      "t": 145372.39583333346,
      "d": 39.0625,
      "v": 69
    },
    {
      "midi": 79,
      "hit": false,
      "t": 145611.9791666668,
      "d": 75.52083333334303,
      "v": 71
    },
    {
      "midi": 71,
      "hit": false,
      "t": 145619.7916666668,
      "d": 283.85416666668607,
      "v": 36
    },
    {
      "midi": 67,
      "hit": false,
      "t": 145625.00000000015,
      "d": 304.6875,
      "v": 35
    },
    {
      "midi": 78,
      "hit": false,
      "t": 145726.56250000015,
      "d": 96.35416666665697,
      "v": 67
    },
    {
      "midi": 81,
      "hit": false,
      "t": 145851.56250000015,
      "d": 54.6875,
      "v": 56
    },
    {
      "midi": 79,
      "hit": false,
      "t": 145921.87500000015,
      "d": 70.3125,
      "v": 66
    },
    {
      "midi": 83,
      "hit": false,
      "t": 146052.0833333335,
      "d": 39.0625,
      "v": 65
    },
    {
      "midi": 71,
      "hit": false,
      "t": 146276.04166666683,
      "d": 41.666666666656965,
      "v": 48
    },
    {
      "midi": 79,
      "hit": false,
      "t": 146276.04166666683,
      "d": 41.666666666656965,
      "v": 84
    },
    {
      "midi": 67,
      "hit": false,
      "t": 146291.66666666683,
      "d": 54.6875,
      "v": 51
    },
    {
      "midi": 78,
      "hit": false,
      "t": 146507.81250000017,
      "d": 249.9999999999709,
      "v": 84
    },
    {
      "midi": 69,
      "hit": false,
      "t": 146510.41666666683,
      "d": 260.41666666665697,
      "v": 51
    },
    {
      "midi": 62,
      "hit": false,
      "t": 146520.8333333335,
      "d": 265.625,
      "v": 38
    },
    {
      "midi": 81,
      "hit": false,
      "t": 146742.18750000015,
      "d": 104.16666666668607,
      "v": 89
    },
    {
      "midi": 74,
      "hit": false,
      "t": 146958.33333333352,
      "d": 62.5,
      "v": 91
    },
    {
      "midi": 62,
      "hit": false,
      "t": 147177.08333333352,
      "d": 54.6875,
      "v": 65
    },
    {
      "midi": 69,
      "hit": false,
      "t": 147182.29166666686,
      "d": 49.479166666656965,
      "v": 63
    },
    {
      "midi": 86,
      "hit": false,
      "t": 147182.29166666686,
      "d": 54.6875,
      "v": 87
    },
    {
      "midi": 71,
      "hit": false,
      "t": 147416.66666666686,
      "d": 41.666666666656965,
      "v": 61
    },
    {
      "midi": 67,
      "hit": false,
      "t": 147432.29166666686,
      "d": 44.27083333331393,
      "v": 66
    },
    {
      "midi": 83,
      "hit": false,
      "t": 147671.87500000017,
      "d": 44.270833333343035,
      "v": 55
    },
    {
      "midi": 79,
      "hit": false,
      "t": 147671.87500000017,
      "d": 49.47916666668607,
      "v": 59
    },
    {
      "midi": 60,
      "hit": false,
      "t": 147890.6250000002,
      "d": 57.291666666656965,
      "v": 60
    },
    {
      "midi": 81,
      "hit": false,
      "t": 148119.79166666686,
      "d": 49.479166666656965,
      "v": 50
    },
    {
      "midi": 84,
      "hit": false,
      "t": 148127.60416666686,
      "d": 54.6875,
      "v": 49
    },
    {
      "midi": 62,
      "hit": false,
      "t": 148372.39583333352,
      "d": 440.10416666665697,
      "v": 29
    },
    {
      "midi": 83,
      "hit": false,
      "t": 148583.33333333352,
      "d": 184.89583333334303,
      "v": 38
    },
    {
      "midi": 79,
      "hit": false,
      "t": 148585.93750000017,
      "d": 184.89583333334303,
      "v": 46
    },
    {
      "midi": 81,
      "hit": false,
      "t": 148812.50000000017,
      "d": 49.479166666656965,
      "v": 64
    },
    {
      "midi": 78,
      "hit": false,
      "t": 148822.91666666683,
      "d": 62.5,
      "v": 44
    },
    {
      "midi": 74,
      "hit": false,
      "t": 149052.0833333335,
      "d": 44.270833333343035,
      "v": 62
    },
    {
      "midi": 79,
      "hit": false,
      "t": 149286.4583333335,
      "d": 59.895833333343035,
      "v": 78
    },
    {
      "midi": 71,
      "hit": false,
      "t": 149286.4583333335,
      "d": 229.16666666668607,
      "v": 32
    },
    {
      "midi": 67,
      "hit": false,
      "t": 149291.66666666683,
      "d": 91.14583333334303,
      "v": 36
    },
    {
      "midi": 78,
      "hit": false,
      "t": 149401.04166666683,
      "d": 65.10416666665697,
      "v": 75
    },
    {
      "midi": 81,
      "hit": false,
      "t": 149510.41666666683,
      "d": 67.70833333334303,
      "v": 68
    },
    {
      "midi": 79,
      "hit": false,
      "t": 149606.77083333352,
      "d": 65.10416666665697,
      "v": 70
    },
    {
      "midi": 83,
      "hit": false,
      "t": 149697.91666666683,
      "d": 39.0625,
      "v": 81
    },
    {
      "midi": 79,
      "hit": false,
      "t": 149937.50000000017,
      "d": 39.0625,
      "v": 85
    },
    {
      "midi": 71,
      "hit": false,
      "t": 149937.50000000017,
      "d": 44.270833333343035,
      "v": 44
    },
    {
      "midi": 67,
      "hit": false,
      "t": 149947.91666666683,
      "d": 62.500000000029104,
      "v": 51
    },
    {
      "midi": 78,
      "hit": false,
      "t": 150177.08333333352,
      "d": 250,
      "v": 72
    },
    {
      "midi": 69,
      "hit": false,
      "t": 150187.50000000017,
      "d": 239.58333333334303,
      "v": 40
    },
    {
      "midi": 62,
      "hit": false,
      "t": 150192.70833333352,
      "d": 268.22916666665697,
      "v": 36
    },
    {
      "midi": 81,
      "hit": false,
      "t": 150416.66666666686,
      "d": 65.10416666665697,
      "v": 67
    },
    {
      "midi": 74,
      "hit": false,
      "t": 150640.62500000017,
      "d": 62.5,
      "v": 44
    },
    {
      "midi": 86,
      "hit": false,
      "t": 150851.56250000017,
      "d": 49.479166666656965,
      "v": 57
    },
    {
      "midi": 69,
      "hit": false,
      "t": 150851.56250000017,
      "d": 54.6875,
      "v": 40
    },
    {
      "midi": 62,
      "hit": false,
      "t": 150851.56250000017,
      "d": 65.10416666665697,
      "v": 40
    },
    {
      "midi": 71,
      "hit": false,
      "t": 151096.35416666683,
      "d": 54.6875,
      "v": 42
    },
    {
      "midi": 67,
      "hit": false,
      "t": 151106.7708333335,
      "d": 65.10416666668607,
      "v": 39
    },
    {
      "midi": 83,
      "hit": false,
      "t": 151312.50000000017,
      "d": 49.479166666656965,
      "v": 49
    },
    {
      "midi": 62,
      "hit": false,
      "t": 151531.25000000017,
      "d": 65.10416666665697,
      "v": 41
    },
    {
      "midi": 72,
      "hit": false,
      "t": 151757.81250000017,
      "d": 75.52083333334303,
      "v": 42
    },
    {
      "midi": 81,
      "hit": false,
      "t": 151765.62500000017,
      "d": 62.5,
      "v": 43
    },
    {
      "midi": 55,
      "hit": false,
      "t": 151992.18750000017,
      "d": 510.41666666665697,
      "v": 39
    },
    {
      "midi": 79,
      "hit": false,
      "t": 152257.81250000017,
      "d": 273.4375,
      "v": 39
    },
    {
      "midi": 71,
      "hit": false,
      "t": 152265.62500000017,
      "d": 210.9375,
      "v": 31
    },
    {
      "midi": 83,
      "hit": false,
      "t": 152869.79166666686,
      "d": 41.666666666656965,
      "v": 56
    },
    {
      "midi": 86,
      "hit": false,
      "t": 152872.39583333352,
      "d": 54.6875,
      "v": 82
    },
    {
      "midi": 83,
      "hit": false,
      "t": 153117.18750000017,
      "d": 130.20833333334303,
      "v": 79
    },
    {
      "midi": 79,
      "hit": false,
      "t": 153122.39583333352,
      "d": 114.58333333334303,
      "v": 90
    },
    {
      "midi": 67,
      "hit": false,
      "t": 153341.14583333352,
      "d": 101.5625,
      "v": 69
    },
    {
      "midi": 81,
      "hit": false,
      "t": 153562.50000000017,
      "d": 98.95833333334303,
      "v": 98
    },
    {
      "midi": 78,
      "hit": false,
      "t": 153562.50000000017,
      "d": 104.16666666668607,
      "v": 88
    },
    {
      "midi": 63,
      "hit": false,
      "t": 153786.45833333352,
      "d": 70.3125,
      "v": 86
    },
    {
      "midi": 78,
      "hit": false,
      "t": 154007.81250000017,
      "d": 234.375,
      "v": 93
    },
    {
      "midi": 81,
      "hit": false,
      "t": 154010.41666666683,
      "d": 250,
      "v": 101
    },
    {
      "midi": 64,
      "hit": false,
      "t": 154252.60416666683,
      "d": 200.52083333337214,
      "v": 92
    },
    {
      "midi": 76,
      "hit": false,
      "t": 154265.62500000017,
      "d": 192.70833333337214,
      "v": 72
    },
    {
      "midi": 79,
      "hit": false,
      "t": 154270.83333333352,
      "d": 161.45833333334303,
      "v": 83
    },
    {
      "midi": 52,
      "hit": false,
      "t": 154497.39583333355,
      "d": 88.54166666665697,
      "v": 93
    },
    {
      "midi": 83,
      "hit": false,
      "t": 154708.33333333355,
      "d": 109.375,
      "v": 79
    },
    {
      "midi": 79,
      "hit": false,
      "t": 154716.14583333355,
      "d": 44.270833333343035,
      "v": 87
    },
    {
      "midi": 78,
      "hit": false,
      "t": 154921.8750000002,
      "d": 125,
      "v": 83
    },
    {
      "midi": 81,
      "hit": false,
      "t": 154927.08333333355,
      "d": 109.375,
      "v": 89
    },
    {
      "midi": 57,
      "hit": false,
      "t": 155135.41666666686,
      "d": 96.35416666665697,
      "v": 95
    },
    {
      "midi": 79,
      "hit": false,
      "t": 155356.77083333352,
      "d": 91.14583333334303,
      "v": 98
    },
    {
      "midi": 76,
      "hit": false,
      "t": 155361.97916666686,
      "d": 65.10416666665697,
      "v": 98
    },
    {
      "midi": 61,
      "hit": false,
      "t": 155585.9375000002,
      "d": 75.52083333334303,
      "v": 101
    },
    {
      "midi": 79,
      "hit": false,
      "t": 155802.08333333355,
      "d": 281.2500000000291,
      "v": 106
    },
    {
      "midi": 76,
      "hit": false,
      "t": 155807.2916666669,
      "d": 260.41666666668607,
      "v": 104
    },
    {
      "midi": 62,
      "hit": false,
      "t": 156026.0416666669,
      "d": 216.14583333334303,
      "v": 100
    },
    {
      "midi": 74,
      "hit": false,
      "t": 156046.87500000023,
      "d": 218.75,
      "v": 89
    },
    {
      "midi": 78,
      "hit": false,
      "t": 156052.08333333358,
      "d": 169.27083333331393,
      "v": 86
    },
    {
      "midi": 50,
      "hit": false,
      "t": 156276.0416666669,
      "d": 125,
      "v": 104
    },
    {
      "midi": 81,
      "hit": false,
      "t": 156486.9791666669,
      "d": 244.79166666668607,
      "v": 113
    },
    {
      "midi": 86,
      "hit": false,
      "t": 156703.12500000023,
      "d": 213.54166666665697,
      "v": 108
    },
    {
      "midi": 68,
      "hit": false,
      "t": 156906.25000000023,
      "d": 161.45833333331393,
      "v": 88
    },
    {
      "midi": 62,
      "hit": false,
      "t": 156916.6666666669,
      "d": 93.75,
      "v": 73
    },
    {
      "midi": 59,
      "hit": false,
      "t": 156921.87500000023,
      "d": 114.58333333331393,
      "v": 68
    },
    {
      "midi": 83,
      "hit": false,
      "t": 157117.1875000002,
      "d": 218.75,
      "v": 102
    },
    {
      "midi": 68,
      "hit": false,
      "t": 157335.9375000002,
      "d": 130.20833333334303,
      "v": 79
    },
    {
      "midi": 59,
      "hit": false,
      "t": 157343.7500000002,
      "d": 91.14583333334303,
      "v": 65
    },
    {
      "midi": 62,
      "hit": false,
      "t": 157348.95833333355,
      "d": 75.52083333334303,
      "v": 69
    },
    {
      "midi": 80,
      "hit": false,
      "t": 157546.8750000002,
      "d": 190.10416666665697,
      "v": 103
    },
    {
      "midi": 68,
      "hit": false,
      "t": 157760.41666666686,
      "d": 130.20833333334303,
      "v": 78
    },
    {
      "midi": 59,
      "hit": false,
      "t": 157765.6250000002,
      "d": 62.5,
      "v": 64
    },
    {
      "midi": 62,
      "hit": false,
      "t": 157765.6250000002,
      "d": 98.95833333334303,
      "v": 70
    },
    {
      "midi": 74,
      "hit": false,
      "t": 157976.5625000002,
      "d": 221.35416666665697,
      "v": 107
    },
    {
      "midi": 68,
      "hit": false,
      "t": 158187.5000000002,
      "d": 148.4375,
      "v": 80
    },
    {
      "midi": 59,
      "hit": false,
      "t": 158208.33333333352,
      "d": 52.083333333343035,
      "v": 65
    },
    {
      "midi": 62,
      "hit": false,
      "t": 158208.33333333352,
      "d": 57.29166666668607,
      "v": 74
    },
    {
      "midi": 73,
      "hit": false,
      "t": 158416.66666666686,
      "d": 223.95833333334303,
      "v": 101
    },
    {
      "midi": 69,
      "hit": false,
      "t": 158635.41666666686,
      "d": 111.97916666668607,
      "v": 91
    },
    {
      "midi": 57,
      "hit": false,
      "t": 158651.04166666686,
      "d": 114.58333333334303,
      "v": 59
    },
    {
      "midi": 61,
      "hit": false,
      "t": 158651.04166666686,
      "d": 114.58333333334303,
      "v": 76
    },
    {
      "midi": 64,
      "hit": false,
      "t": 158656.2500000002,
      "d": 70.3125,
      "v": 79
    },
    {
      "midi": 69,
      "hit": false,
      "t": 158882.8125000002,
      "d": 119.79166666665697,
      "v": 100
    },
    {
      "midi": 69,
      "hit": false,
      "t": 159091.14583333352,
      "d": 96.35416666665697,
      "v": 92
    },
    {
      "midi": 69,
      "hit": false,
      "t": 159307.29166666683,
      "d": 109.375,
      "v": 94
    },
    {
      "midi": 69,
      "hit": false,
      "t": 159520.8333333335,
      "d": 91.14583333334303,
      "v": 87
    },
    {
      "midi": 69,
      "hit": false,
      "t": 159742.18750000017,
      "d": 91.14583333334303,
      "v": 85
    },
    {
      "midi": 69,
      "hit": false,
      "t": 159942.70833333352,
      "d": 98.95833333334303,
      "v": 79
    },
    {
      "midi": 69,
      "hit": false,
      "t": 160166.66666666686,
      "d": 104.16666666665697,
      "v": 81
    },
    {
      "midi": 69,
      "hit": false,
      "t": 160372.39583333352,
      "d": 93.75,
      "v": 71
    },
    {
      "midi": 69,
      "hit": false,
      "t": 160596.35416666686,
      "d": 85.9375,
      "v": 71
    },
    {
      "midi": 69,
      "hit": false,
      "t": 160796.8750000002,
      "d": 98.95833333334303,
      "v": 61
    },
    {
      "midi": 69,
      "hit": false,
      "t": 161020.83333333355,
      "d": 91.14583333334303,
      "v": 63
    },
    {
      "midi": 69,
      "hit": false,
      "t": 161231.77083333355,
      "d": 101.5625,
      "v": 54
    },
    {
      "midi": 69,
      "hit": false,
      "t": 161458.33333333355,
      "d": 83.33333333334303,
      "v": 54
    },
    {
      "midi": 69,
      "hit": false,
      "t": 161656.25000000023,
      "d": 101.5625,
      "v": 50
    },
    {
      "midi": 69,
      "hit": false,
      "t": 161953.12500000023,
      "d": 328.125,
      "v": 44
    },
    {
      "midi": 69,
      "hit": false,
      "t": 162645.83333333358,
      "d": 101.5625,
      "v": 35
    },
    {
      "midi": 69,
      "hit": false,
      "t": 162901.04166666692,
      "d": 231.77083333334303,
      "v": 25
    },
    {
      "midi": 69,
      "hit": false,
      "t": 163807.29166666692,
      "d": 98.95833333334303,
      "v": 29
    },
    {
      "midi": 69,
      "hit": false,
      "t": 164177.0833333336,
      "d": 380.20833333334303,
      "v": 33
    },
    {
      "midi": 69,
      "hit": false,
      "t": 165765.6250000003,
      "d": 85.9375,
      "v": 34
    },
    {
      "midi": 69,
      "hit": false,
      "t": 166091.14583333363,
      "d": 544.270833333343,
      "v": 35
    },
    {
      "midi": 50,
      "hit": false,
      "t": 166333.33333333363,
      "d": 78.125,
      "v": 33
    },
    {
      "midi": 54,
      "hit": false,
      "t": 166333.33333333363,
      "d": 98.95833333334303,
      "v": 38
    },
    {
      "midi": 66,
      "hit": false,
      "t": 166606.77083333363,
      "d": 174.47916666668607,
      "v": 43
    },
    {
      "midi": 50,
      "hit": false,
      "t": 166619.79166666698,
      "d": 65.10416666665697,
      "v": 49
    },
    {
      "midi": 54,
      "hit": false,
      "t": 166627.60416666698,
      "d": 70.3125,
      "v": 40
    },
    {
      "midi": 74,
      "hit": false,
      "t": 166833.33333333366,
      "d": 39.0625,
      "v": 73
    },
    {
      "midi": 74,
      "hit": false,
      "t": 167091.14583333366,
      "d": 500,
      "v": 86
    },
    {
      "midi": 55,
      "hit": false,
      "t": 167328.12500000032,
      "d": 62.5,
      "v": 53
    },
    {
      "midi": 52,
      "hit": false,
      "t": 167328.12500000032,
      "d": 83.33333333334303,
      "v": 51
    },
    {
      "midi": 73,
      "hit": false,
      "t": 167552.08333333366,
      "d": 158.85416666665697,
      "v": 69
    },
    {
      "midi": 55,
      "hit": false,
      "t": 167583.33333333366,
      "d": 44.270833333343035,
      "v": 61
    },
    {
      "midi": 52,
      "hit": false,
      "t": 167585.93750000032,
      "d": 59.895833333343035,
      "v": 44
    },
    {
      "midi": 76,
      "hit": false,
      "t": 167776.04166666698,
      "d": 31.25,
      "v": 95
    },
    {
      "midi": 76,
      "hit": false,
      "t": 168020.83333333363,
      "d": 361.97916666668607,
      "v": 94
    },
    {
      "midi": 61,
      "hit": false,
      "t": 168216.14583333363,
      "d": 70.3125,
      "v": 53
    },
    {
      "midi": 57,
      "hit": false,
      "t": 168226.5625000003,
      "d": 65.10416666668607,
      "v": 56
    },
    {
      "midi": 78,
      "hit": false,
      "t": 168351.56250000032,
      "d": 75.52083333334303,
      "v": 61
    },
    {
      "midi": 79,
      "hit": false,
      "t": 168447.916666667,
      "d": 44.270833333343035,
      "v": 75
    },
    {
      "midi": 61,
      "hit": false,
      "t": 168471.354166667,
      "d": 59.895833333343035,
      "v": 52
    },
    {
      "midi": 57,
      "hit": false,
      "t": 168476.56250000035,
      "d": 54.6875,
      "v": 55
    },
    {
      "midi": 79,
      "hit": false,
      "t": 168687.50000000035,
      "d": 44.270833333343035,
      "v": 78
    },
    {
      "midi": 79,
      "hit": false,
      "t": 168942.7083333337,
      "d": 494.79166666668607,
      "v": 72
    },
    {
      "midi": 66,
      "hit": false,
      "t": 169161.4583333337,
      "d": 85.9375,
      "v": 41
    },
    {
      "midi": 62,
      "hit": false,
      "t": 169171.87500000035,
      "d": 75.52083333334303,
      "v": 35
    },
    {
      "midi": 78,
      "hit": false,
      "t": 169401.04166666704,
      "d": 125,
      "v": 55
    },
    {
      "midi": 66,
      "hit": false,
      "t": 169432.29166666704,
      "d": 70.3125,
      "v": 44
    },
    {
      "midi": 62,
      "hit": false,
      "t": 169453.12500000038,
      "d": 72.91666666665697,
      "v": 41
    },
    {
      "midi": 81,
      "hit": false,
      "t": 169640.62500000038,
      "d": 106.77083333334303,
      "v": 89
    },
    {
      "midi": 81,
      "hit": false,
      "t": 169885.41666666706,
      "d": 677.0833333333139,
      "v": 97
    },
    {
      "midi": 64,
      "hit": false,
      "t": 170085.9375000004,
      "d": 59.89583333331393,
      "v": 74
    },
    {
      "midi": 61,
      "hit": false,
      "t": 170096.35416666706,
      "d": 59.89583333331393,
      "v": 58
    },
    {
      "midi": 64,
      "hit": false,
      "t": 170322.91666666704,
      "d": 49.479166666656965,
      "v": 86
    },
    {
      "midi": 61,
      "hit": false,
      "t": 170322.91666666704,
      "d": 54.6875,
      "v": 73
    },
    {
      "midi": 82,
      "hit": false,
      "t": 170531.25000000038,
      "d": 265.625,
      "v": 103
    },
    {
      "midi": 83,
      "hit": false,
      "t": 170781.25000000038,
      "d": 385.41666666668607,
      "v": 93
    },
    {
      "midi": 66,
      "hit": false,
      "t": 170992.18750000038,
      "d": 59.895833333343035,
      "v": 52
    },
    {
      "midi": 62,
      "hit": false,
      "t": 171007.81250000038,
      "d": 65.10416666668607,
      "v": 50
    },
    {
      "midi": 85,
      "hit": false,
      "t": 171127.60416666706,
      "d": 130.20833333334303,
      "v": 86
    },
    {
      "midi": 66,
      "hit": false,
      "t": 171242.1875000004,
      "d": 59.89583333331393,
      "v": 46
    },
    {
      "midi": 88,
      "hit": false,
      "t": 171242.1875000004,
      "d": 135.41666666662786,
      "v": 100
    },
    {
      "midi": 62,
      "hit": false,
      "t": 171260.41666666706,
      "d": 52.08333333331393,
      "v": 54
    },
    {
      "midi": 86,
      "hit": false,
      "t": 171351.56250000038,
      "d": 106.77083333331393,
      "v": 97
    },
    {
      "midi": 85,
      "hit": false,
      "t": 171442.7083333337,
      "d": 135.41666666665697,
      "v": 95
    },
    {
      "midi": 62,
      "hit": false,
      "t": 171458.3333333337,
      "d": 52.083333333343035,
      "v": 41
    },
    {
      "midi": 66,
      "hit": false,
      "t": 171466.1458333337,
      "d": 70.3125,
      "v": 34
    },
    {
      "midi": 83,
      "hit": false,
      "t": 171562.50000000035,
      "d": 104.16666666668607,
      "v": 81
    },
    {
      "midi": 61,
      "hit": false,
      "t": 171651.041666667,
      "d": 41.66666666668607,
      "v": 86
    },
    {
      "midi": 52,
      "hit": false,
      "t": 171656.25000000035,
      "d": 36.458333333343035,
      "v": 100
    },
    {
      "midi": 81,
      "hit": false,
      "t": 171661.4583333337,
      "d": 309.89583333331393,
      "v": 97
    },
    {
      "midi": 52,
      "hit": false,
      "t": 171885.41666666704,
      "d": 41.666666666656965,
      "v": 83
    },
    {
      "midi": 61,
      "hit": false,
      "t": 171885.41666666704,
      "d": 52.08333333331393,
      "v": 73
    },
    {
      "midi": 81,
      "hit": false,
      "t": 172057.291666667,
      "d": 49.479166666656965,
      "v": 87
    },
    {
      "midi": 52,
      "hit": false,
      "t": 172106.77083333366,
      "d": 33.854166666656965,
      "v": 89
    },
    {
      "midi": 59,
      "hit": false,
      "t": 172106.77083333366,
      "d": 33.854166666656965,
      "v": 68
    },
    {
      "midi": 80,
      "hit": false,
      "t": 172117.18750000032,
      "d": 49.479166666656965,
      "v": 81
    },
    {
      "midi": 81,
      "hit": false,
      "t": 172187.50000000032,
      "d": 33.854166666656965,
      "v": 82
    },
    {
      "midi": 80,
      "hit": false,
      "t": 172236.97916666698,
      "d": 39.0625,
      "v": 76
    },
    {
      "midi": 81,
      "hit": false,
      "t": 172286.45833333363,
      "d": 96.35416666671517,
      "v": 93
    },
    {
      "midi": 59,
      "hit": false,
      "t": 172322.91666666698,
      "d": 54.687500000029104,
      "v": 65
    },
    {
      "midi": 52,
      "hit": false,
      "t": 172328.12500000032,
      "d": 49.47916666668607,
      "v": 69
    },
    {
      "midi": 80,
      "hit": false,
      "t": 172341.14583333366,
      "d": 106.77083333334303,
      "v": 66
    },
    {
      "midi": 81,
      "hit": false,
      "t": 172497.39583333366,
      "d": 44.270833333343035,
      "v": 67
    },
    {
      "midi": 57,
      "hit": false,
      "t": 172601.56250000035,
      "d": 289.0625,
      "v": 54
    },
    {
      "midi": 81,
      "hit": false,
      "t": 172617.18750000035,
      "d": 49.479166666656965,
      "v": 94
    },
    {
      "midi": 45,
      "hit": false,
      "t": 172632.81250000035,
      "d": 239.58333333334303,
      "v": 48
    },
    {
      "midi": 81,
      "hit": false,
      "t": 172716.14583333366,
      "d": 151.04166666668607,
      "v": 49
    },
    {
      "midi": 69,
      "hit": false,
      "t": 173307.291666667,
      "d": 33.854166666656965,
      "v": 83
    },
    {
      "midi": 50,
      "hit": false,
      "t": 173546.87500000032,
      "d": 289.0625,
      "v": 63
    },
    {
      "midi": 69,
      "hit": false,
      "t": 173546.87500000032,
      "d": 494.79166666665697,
      "v": 98
    },
    {
      "midi": 57,
      "hit": false,
      "t": 173635.41666666698,
      "d": 80.72916666665697,
      "v": 63
    },
    {
      "midi": 54,
      "hit": false,
      "t": 173736.97916666698,
      "d": 145.83333333334303,
      "v": 67
    },
    {
      "midi": 57,
      "hit": false,
      "t": 173872.39583333366,
      "d": 93.75,
      "v": 55
    },
    {
      "midi": 66,
      "hit": false,
      "t": 173992.18750000032,
      "d": 184.89583333334303,
      "v": 83
    },
    {
      "midi": 50,
      "hit": false,
      "t": 174007.81250000032,
      "d": 252.60416666668607,
      "v": 75
    },
    {
      "midi": 57,
      "hit": false,
      "t": 174101.56250000032,
      "d": 80.72916666668607,
      "v": 47
    },
    {
      "midi": 54,
      "hit": false,
      "t": 174216.14583333366,
      "d": 106.77083333334303,
      "v": 67
    },
    {
      "midi": 74,
      "hit": false,
      "t": 174221.354166667,
      "d": 65.10416666665697,
      "v": 97
    },
    {
      "midi": 57,
      "hit": false,
      "t": 174328.12500000035,
      "d": 67.70833333334303,
      "v": 58
    },
    {
      "midi": 74,
      "hit": false,
      "t": 174442.7083333337,
      "d": 434.89583333334303,
      "v": 103
    },
    {
      "midi": 52,
      "hit": false,
      "t": 174458.3333333337,
      "d": 239.58333333331393,
      "v": 72
    },
    {
      "midi": 57,
      "hit": false,
      "t": 174557.29166666704,
      "d": 65.10416666665697,
      "v": 63
    },
    {
      "midi": 55,
      "hit": false,
      "t": 174656.25000000035,
      "d": 125,
      "v": 58
    },
    {
      "midi": 57,
      "hit": false,
      "t": 174757.81250000035,
      "d": 98.95833333334303,
      "v": 59
    },
    {
      "midi": 73,
      "hit": false,
      "t": 174877.60416666704,
      "d": 153.64583333334303,
      "v": 86
    },
    {
      "midi": 52,
      "hit": false,
      "t": 174882.81250000038,
      "d": 257.8124999999709,
      "v": 79
    },
    {
      "midi": 57,
      "hit": false,
      "t": 174992.18750000038,
      "d": 85.9375,
      "v": 62
    },
    {
      "midi": 55,
      "hit": false,
      "t": 175111.97916666704,
      "d": 135.41666666665697,
      "v": 71
    },
    {
      "midi": 76,
      "hit": false,
      "t": 175122.3958333337,
      "d": 85.9375,
      "v": 105
    },
    {
      "midi": 57,
      "hit": false,
      "t": 175208.3333333337,
      "d": 125,
      "v": 59
    },
    {
      "midi": 49,
      "hit": false,
      "t": 175367.18750000035,
      "d": 250.0000000000291,
      "v": 79
    },
    {
      "midi": 76,
      "hit": false,
      "t": 175367.18750000035,
      "d": 320.3125000000291,
      "v": 107
    },
    {
      "midi": 57,
      "hit": false,
      "t": 175458.3333333337,
      "d": 93.75,
      "v": 54
    },
    {
      "midi": 52,
      "hit": false,
      "t": 175585.93750000038,
      "d": 101.5625,
      "v": 73
    },
    {
      "midi": 78,
      "hit": false,
      "t": 175666.66666666704,
      "d": 161.45833333331393,
      "v": 84
    },
    {
      "midi": 57,
      "hit": false,
      "t": 175687.50000000038,
      "d": 98.95833333331393,
      "v": 55
    },
    {
      "midi": 79,
      "hit": false,
      "t": 175760.41666666704,
      "d": 85.9374999999709,
      "v": 105
    },
    {
      "midi": 49,
      "hit": false,
      "t": 175786.4583333337,
      "d": 234.375,
      "v": 77
    },
    {
      "midi": 57,
      "hit": false,
      "t": 175890.62500000035,
      "d": 96.35416666665697,
      "v": 64
    },
    {
      "midi": 79,
      "hit": false,
      "t": 175997.39583333366,
      "d": 88.54166666668607,
      "v": 111
    },
    {
      "midi": 52,
      "hit": false,
      "t": 176007.81250000035,
      "d": 153.64583333334303,
      "v": 80
    },
    {
      "midi": 57,
      "hit": false,
      "t": 176101.56250000035,
      "d": 130.20833333334303,
      "v": 61
    },
    {
      "midi": 79,
      "hit": false,
      "t": 176231.7708333337,
      "d": 494.79166666665697,
      "v": 104
    },
    {
      "midi": 50,
      "hit": false,
      "t": 176247.3958333337,
      "d": 304.6875,
      "v": 81
    },
    {
      "midi": 57,
      "hit": false,
      "t": 176346.35416666704,
      "d": 119.79166666665697,
      "v": 54
    },
    {
      "midi": 54,
      "hit": false,
      "t": 176466.1458333337,
      "d": 125,
      "v": 63
    },
    {
      "midi": 57,
      "hit": false,
      "t": 176572.91666666704,
      "d": 119.79166666665697,
      "v": 64
    },
    {
      "midi": 78,
      "hit": false,
      "t": 176692.7083333337,
      "d": 234.3749999999709,
      "v": 88
    },
    {
      "midi": 50,
      "hit": false,
      "t": 176726.56250000035,
      "d": 294.27083333331393,
      "v": 76
    },
    {
      "midi": 57,
      "hit": false,
      "t": 176807.291666667,
      "d": 119.79166666665697,
      "v": 57
    },
    {
      "midi": 81,
      "hit": false,
      "t": 176916.666666667,
      "d": 93.75,
      "v": 105
    },
    {
      "midi": 54,
      "hit": false,
      "t": 176932.291666667,
      "d": 164.0624999999709,
      "v": 69
    },
    {
      "midi": 57,
      "hit": false,
      "t": 177031.25000000032,
      "d": 119.79166666665697,
      "v": 64
    },
    {
      "midi": 81,
      "hit": false,
      "t": 177145.83333333363,
      "d": 716.1458333334012,
      "v": 107
    },
    {
      "midi": 49,
      "hit": false,
      "t": 177166.66666666698,
      "d": 223.95833333334303,
      "v": 81
    },
    {
      "midi": 57,
      "hit": false,
      "t": 177252.60416666698,
      "d": 114.58333333334303,
      "v": 59
    },
    {
      "midi": 52,
      "hit": false,
      "t": 177361.97916666698,
      "d": 140.625,
      "v": 82
    },
    {
      "midi": 57,
      "hit": false,
      "t": 177460.93750000032,
      "d": 96.35416666665697,
      "v": 72
    },
    {
      "midi": 49,
      "hit": false,
      "t": 177585.93750000032,
      "d": 242.1875000000291,
      "v": 91
    },
    {
      "midi": 58,
      "hit": false,
      "t": 177703.12500000032,
      "d": 109.3750000000291,
      "v": 98
    },
    {
      "midi": 82,
      "hit": false,
      "t": 177802.08333333366,
      "d": 281.25,
      "v": 111
    },
    {
      "midi": 52,
      "hit": false,
      "t": 177807.291666667,
      "d": 153.64583333334303,
      "v": 88
    },
    {
      "midi": 58,
      "hit": false,
      "t": 177895.8333333337,
      "d": 177.08333333331393,
      "v": 82
    },
    {
      "midi": 50,
      "hit": false,
      "t": 178041.666666667,
      "d": 260.41666666665697,
      "v": 83
    },
    {
      "midi": 83,
      "hit": false,
      "t": 178041.666666667,
      "d": 335.9375,
      "v": 103
    },
    {
      "midi": 59,
      "hit": false,
      "t": 178145.83333333366,
      "d": 106.77083333334303,
      "v": 73
    },
    {
      "midi": 54,
      "hit": false,
      "t": 178236.979166667,
      "d": 148.4375,
      "v": 79
    },
    {
      "midi": 59,
      "hit": false,
      "t": 178346.354166667,
      "d": 106.77083333334303,
      "v": 72
    },
    {
      "midi": 85,
      "hit": false,
      "t": 178351.56250000035,
      "d": 140.625,
      "v": 100
    },
    {
      "midi": 50,
      "hit": false,
      "t": 178471.354166667,
      "d": 164.0625,
      "v": 91
    },
    {
      "midi": 88,
      "hit": false,
      "t": 178476.56250000035,
      "d": 184.89583333331393,
      "v": 107
    },
    {
      "midi": 59,
      "hit": false,
      "t": 178585.93750000035,
      "d": 85.9374999999709,
      "v": 54
    },
    {
      "midi": 86,
      "hit": false,
      "t": 178585.93750000035,
      "d": 145.83333333328483,
      "v": 105
    },
    {
      "midi": 85,
      "hit": false,
      "t": 178671.87500000032,
      "d": 161.45833333331393,
      "v": 98
    },
    {
      "midi": 54,
      "hit": false,
      "t": 178682.29166666698,
      "d": 153.64583333331393,
      "v": 77
    },
    {
      "midi": 83,
      "hit": false,
      "t": 178786.45833333363,
      "d": 109.375,
      "v": 91
    },
    {
      "midi": 59,
      "hit": false,
      "t": 178791.66666666698,
      "d": 91.14583333331393,
      "v": 65
    },
    {
      "midi": 81,
      "hit": false,
      "t": 178890.6250000003,
      "d": 260.41666666665697,
      "v": 108
    },
    {
      "midi": 52,
      "hit": false,
      "t": 178901.04166666698,
      "d": 166.66666666665697,
      "v": 84
    },
    {
      "midi": 61,
      "hit": false,
      "t": 179020.83333333363,
      "d": 80.72916666665697,
      "v": 79
    },
    {
      "midi": 57,
      "hit": false,
      "t": 179122.39583333363,
      "d": 75.52083333331393,
      "v": 75
    },
    {
      "midi": 61,
      "hit": false,
      "t": 179216.1458333336,
      "d": 111.97916666665697,
      "v": 68
    },
    {
      "midi": 81,
      "hit": false,
      "t": 179231.7708333336,
      "d": 39.0625,
      "v": 95
    },
    {
      "midi": 80,
      "hit": false,
      "t": 179291.66666666695,
      "d": 59.89583333331393,
      "v": 77
    },
    {
      "midi": 52,
      "hit": false,
      "t": 179328.12500000026,
      "d": 244.79166666668607,
      "v": 72
    },
    {
      "midi": 81,
      "hit": false,
      "t": 179351.56250000026,
      "d": 54.6875,
      "v": 88
    },
    {
      "midi": 80,
      "hit": false,
      "t": 179406.25000000026,
      "d": 46.875,
      "v": 68
    },
    {
      "midi": 62,
      "hit": false,
      "t": 179437.50000000026,
      "d": 59.895833333343035,
      "v": 73
    },
    {
      "midi": 81,
      "hit": false,
      "t": 179458.3333333336,
      "d": 93.75,
      "v": 67
    },
    {
      "midi": 80,
      "hit": false,
      "t": 179515.62500000026,
      "d": 140.625,
      "v": 88
    },
    {
      "midi": 59,
      "hit": false,
      "t": 179552.0833333336,
      "d": 39.0625,
      "v": 67
    },
    {
      "midi": 81,
      "hit": false,
      "t": 179666.66666666692,
      "d": 44.270833333343035,
      "v": 80
    },
    {
      "midi": 62,
      "hit": false,
      "t": 179666.66666666692,
      "d": 114.58333333337214,
      "v": 67
    },
    {
      "midi": 81,
      "hit": false,
      "t": 179776.04166666695,
      "d": 466.14583333337214,
      "v": 99
    },
    {
      "midi": 61,
      "hit": false,
      "t": 179802.08333333363,
      "d": 445.3125000000291,
      "v": 62
    },
    {
      "midi": 57,
      "hit": false,
      "t": 179817.70833333363,
      "d": 403.64583333334303,
      "v": 67
    },
    {
      "midi": 81,
      "hit": false,
      "t": 180520.83333333366,
      "d": 70.3125,
      "v": 71
    },
    {
      "midi": 66,
      "hit": false,
      "t": 180752.604166667,
      "d": 65.10416666665697,
      "v": 39
    },
    {
      "midi": 81,
      "hit": false,
      "t": 180760.416666667,
      "d": 432.29166666668607,
      "v": 73
    },
    {
      "midi": 72,
      "hit": false,
      "t": 180841.14583333366,
      "d": 75.52083333334303,
      "v": 75
    },
    {
      "midi": 66,
      "hit": false,
      "t": 180986.979166667,
      "d": 59.895833333343035,
      "v": 50
    },
    {
      "midi": 72,
      "hit": false,
      "t": 181085.93750000035,
      "d": 41.666666666656965,
      "v": 85
    },
    {
      "midi": 75,
      "hit": false,
      "t": 181171.87500000035,
      "d": 179.6875,
      "v": 73
    },
    {
      "midi": 66,
      "hit": false,
      "t": 181203.12500000035,
      "d": 39.0625,
      "v": 75
    },
    {
      "midi": 83,
      "hit": false,
      "t": 181421.87500000035,
      "d": 44.270833333343035,
      "v": 77
    },
    {
      "midi": 83,
      "hit": false,
      "t": 181645.8333333337,
      "d": 421.875,
      "v": 70
    },
    {
      "midi": 67,
      "hit": false,
      "t": 181661.4583333337,
      "d": 49.479166666656965,
      "v": 60
    },
    {
      "midi": 71,
      "hit": false,
      "t": 181757.81250000035,
      "d": 44.270833333343035,
      "v": 59
    },
    {
      "midi": 67,
      "hit": false,
      "t": 181877.60416666704,
      "d": 54.6875,
      "v": 44
    },
    {
      "midi": 71,
      "hit": false,
      "t": 181966.1458333337,
      "d": 44.270833333343035,
      "v": 59
    },
    {
      "midi": 76,
      "hit": false,
      "t": 182091.1458333337,
      "d": 65.10416666668607,
      "v": 65
    },
    {
      "midi": 67,
      "hit": false,
      "t": 182096.35416666704,
      "d": 39.0625,
      "v": 84
    },
    {
      "midi": 79,
      "hit": false,
      "t": 182312.50000000038,
      "d": 39.0625,
      "v": 84
    },
    {
      "midi": 61,
      "hit": false,
      "t": 182546.87500000038,
      "d": 49.47916666668607,
      "v": 77
    },
    {
      "midi": 79,
      "hit": false,
      "t": 182546.87500000038,
      "d": 276.04166666668607,
      "v": 87
    },
    {
      "midi": 69,
      "hit": false,
      "t": 182552.08333333372,
      "d": 44.270833333343035,
      "v": 77
    },
    {
      "midi": 61,
      "hit": false,
      "t": 182791.66666666706,
      "d": 44.270833333343035,
      "v": 65
    },
    {
      "midi": 69,
      "hit": false,
      "t": 182791.66666666706,
      "d": 49.47916666668607,
      "v": 63
    },
    {
      "midi": 81,
      "hit": false,
      "t": 182877.6041666671,
      "d": 44.270833333343035,
      "v": 71
    },
    {
      "midi": 79,
      "hit": false,
      "t": 182916.6666666671,
      "d": 85.9375,
      "v": 73
    },
    {
      "midi": 78,
      "hit": false,
      "t": 183007.81250000044,
      "d": 49.479166666656965,
      "v": 81
    },
    {
      "midi": 62,
      "hit": false,
      "t": 183007.81250000044,
      "d": 54.6875,
      "v": 63
    },
    {
      "midi": 69,
      "hit": false,
      "t": 183015.62500000044,
      "d": 46.875,
      "v": 62
    },
    {
      "midi": 78,
      "hit": false,
      "t": 183226.56250000044,
      "d": 44.27083333331393,
      "v": 81
    },
    {
      "midi": 62,
      "hit": false,
      "t": 183236.9791666671,
      "d": 49.479166666656965,
      "v": 61
    },
    {
      "midi": 69,
      "hit": false,
      "t": 183247.39583333375,
      "d": 54.6875,
      "v": 49
    },
    {
      "midi": 76,
      "hit": false,
      "t": 183492.1875000004,
      "d": 216.14583333334303,
      "v": 74
    },
    {
      "midi": 57,
      "hit": false,
      "t": 183492.1875000004,
      "d": 299.47916666668607,
      "v": 54
    },
    {
      "midi": 69,
      "hit": false,
      "t": 183497.39583333375,
      "d": 70.3125,
      "v": 42
    },
    {
      "midi": 73,
      "hit": false,
      "t": 183710.9375000004,
      "d": 122.39583333334303,
      "v": 57
    },
    {
      "midi": 69,
      "hit": false,
      "t": 183942.70833333375,
      "d": 49.479166666656965,
      "v": 69
    },
    {
      "midi": 66,
      "hit": false,
      "t": 184145.83333333375,
      "d": 57.29166666668607,
      "v": 81
    },
    {
      "midi": 69,
      "hit": false,
      "t": 184151.0416666671,
      "d": 46.875,
      "v": 91
    },
    {
      "midi": 38,
      "hit": false,
      "t": 184382.81250000044,
      "d": 88.54166666668607,
      "v": 110
    },
    {
      "midi": 66,
      "hit": false,
      "t": 184390.62500000044,
      "d": 250.0000000000291,
      "v": 97
    },
    {
      "midi": 69,
      "hit": false,
      "t": 184390.62500000044,
      "d": 437.5000000000873,
      "v": 107
    },
    {
      "midi": 50,
      "hit": false,
      "t": 184466.14583333378,
      "d": 96.35416666668607,
      "v": 99
    },
    {
      "midi": 49,
      "hit": false,
      "t": 184583.3333333338,
      "d": 114.58333333334303,
      "v": 88
    },
    {
      "midi": 50,
      "hit": false,
      "t": 184677.0833333338,
      "d": 104.16666666668607,
      "v": 72
    },
    {
      "midi": 49,
      "hit": false,
      "t": 184802.08333333384,
      "d": 114.58333333334303,
      "v": 76
    },
    {
      "midi": 62,
      "hit": false,
      "t": 184822.91666666718,
      "d": 39.0625,
      "v": 84
    },
    {
      "midi": 66,
      "hit": false,
      "t": 184822.91666666718,
      "d": 62.5,
      "v": 92
    },
    {
      "midi": 50,
      "hit": false,
      "t": 184916.66666666718,
      "d": 93.75,
      "v": 87
    },
    {
      "midi": 49,
      "hit": false,
      "t": 185020.83333333384,
      "d": 114.58333333334303,
      "v": 80
    },
    {
      "midi": 66,
      "hit": false,
      "t": 185041.66666666718,
      "d": 54.6875,
      "v": 91
    },
    {
      "midi": 74,
      "hit": false,
      "t": 185041.66666666718,
      "d": 65.10416666665697,
      "v": 101
    },
    {
      "midi": 50,
      "hit": false,
      "t": 185140.62500000052,
      "d": 62.5,
      "v": 87
    },
    {
      "midi": 74,
      "hit": false,
      "t": 185276.04166666718,
      "d": 432.2916666667152,
      "v": 108
    },
    {
      "midi": 66,
      "hit": false,
      "t": 185281.25000000052,
      "d": 265.6250000000291,
      "v": 99
    },
    {
      "midi": 45,
      "hit": false,
      "t": 185291.66666666718,
      "d": 109.3750000000291,
      "v": 105
    },
    {
      "midi": 57,
      "hit": false,
      "t": 185395.83333333387,
      "d": 62.5,
      "v": 98
    },
    {
      "midi": 56,
      "hit": false,
      "t": 185502.6041666672,
      "d": 109.375,
      "v": 85
    },
    {
      "midi": 57,
      "hit": false,
      "t": 185611.9791666672,
      "d": 59.895833333343035,
      "v": 83
    },
    {
      "midi": 73,
      "hit": false,
      "t": 185697.9166666672,
      "d": 104.16666666668607,
      "v": 93
    },
    {
      "midi": 64,
      "hit": false,
      "t": 185703.12500000055,
      "d": 39.0625,
      "v": 96
    },
    {
      "midi": 56,
      "hit": false,
      "t": 185708.3333333339,
      "d": 93.75,
      "v": 73
    },
    {
      "midi": 57,
      "hit": false,
      "t": 185802.0833333339,
      "d": 88.54166666665697,
      "v": 83
    },
    {
      "midi": 73,
      "hit": false,
      "t": 185921.87500000055,
      "d": 80.72916666665697,
      "v": 87
    },
    {
      "midi": 76,
      "hit": false,
      "t": 185921.87500000055,
      "d": 88.54166666665697,
      "v": 109
    },
    {
      "midi": 56,
      "hit": false,
      "t": 185921.87500000055,
      "d": 114.58333333331393,
      "v": 76
    },
    {
      "midi": 57,
      "hit": false,
      "t": 186041.6666666672,
      "d": 65.10416666665697,
      "v": 83
    },
    {
      "midi": 76,
      "hit": false,
      "t": 186161.45833333387,
      "d": 244.79166666665697,
      "v": 115
    },
    {
      "midi": 73,
      "hit": false,
      "t": 186166.6666666672,
      "d": 354.16666666665697,
      "v": 98
    },
    {
      "midi": 45,
      "hit": false,
      "t": 186171.87500000055,
      "d": 109.375,
      "v": 108
    },
    {
      "midi": 57,
      "hit": false,
      "t": 186276.0416666672,
      "d": 101.5625,
      "v": 98
    },
    {
      "midi": 56,
      "hit": false,
      "t": 186395.83333333387,
      "d": 119.79166666665697,
      "v": 83
    },
    {
      "midi": 57,
      "hit": false,
      "t": 186502.60416666718,
      "d": 109.37500000005821,
      "v": 73
    },
    {
      "midi": 78,
      "hit": false,
      "t": 186507.81250000052,
      "d": 143.22916666671517,
      "v": 84
    },
    {
      "midi": 74,
      "hit": false,
      "t": 186515.62500000052,
      "d": 119.79166666671517,
      "v": 91
    },
    {
      "midi": 79,
      "hit": false,
      "t": 186601.56250000055,
      "d": 91.14583333337214,
      "v": 100
    },
    {
      "midi": 76,
      "hit": false,
      "t": 186606.7708333339,
      "d": 65.10416666668607,
      "v": 106
    },
    {
      "midi": 56,
      "hit": false,
      "t": 186611.97916666724,
      "d": 119.79166666668607,
      "v": 74
    },
    {
      "midi": 57,
      "hit": false,
      "t": 186710.93750000058,
      "d": 106.77083333334303,
      "v": 71
    },
    {
      "midi": 76,
      "hit": false,
      "t": 186828.12500000058,
      "d": 57.291666666656965,
      "v": 108
    },
    {
      "midi": 56,
      "hit": false,
      "t": 186828.12500000058,
      "d": 130.20833333334303,
      "v": 68
    },
    {
      "midi": 79,
      "hit": false,
      "t": 186835.93750000058,
      "d": 101.5625,
      "v": 102
    },
    {
      "midi": 57,
      "hit": false,
      "t": 186932.29166666724,
      "d": 93.7500000000291,
      "v": 64
    },
    {
      "midi": 50,
      "hit": false,
      "t": 187067.70833333393,
      "d": 93.7500000000291,
      "v": 106
    },
    {
      "midi": 76,
      "hit": false,
      "t": 187072.91666666727,
      "d": 393.22916666668607,
      "v": 110
    },
    {
      "midi": 79,
      "hit": false,
      "t": 187072.91666666727,
      "d": 447.91666666668607,
      "v": 108
    },
    {
      "midi": 62,
      "hit": false,
      "t": 187171.8750000006,
      "d": 54.6875,
      "v": 100
    },
    {
      "midi": 61,
      "hit": false,
      "t": 187296.8750000006,
      "d": 80.72916666665697,
      "v": 78
    },
    {
      "midi": 62,
      "hit": false,
      "t": 187390.6250000006,
      "d": 67.70833333334303,
      "v": 81
    },
    {
      "midi": 74,
      "hit": false,
      "t": 187502.6041666673,
      "d": 44.27083333331393,
      "v": 89
    },
    {
      "midi": 78,
      "hit": false,
      "t": 187502.6041666673,
      "d": 114.58333333331393,
      "v": 92
    },
    {
      "midi": 61,
      "hit": false,
      "t": 187507.81250000064,
      "d": 65.10416666662786,
      "v": 74
    },
    {
      "midi": 62,
      "hit": false,
      "t": 187622.39583333395,
      "d": 54.6875,
      "v": 76
    },
    {
      "midi": 61,
      "hit": false,
      "t": 187731.77083333395,
      "d": 54.6875,
      "v": 74
    },
    {
      "midi": 81,
      "hit": false,
      "t": 187731.77083333395,
      "d": 96.35416666665697,
      "v": 102
    },
    {
      "midi": 62,
      "hit": false,
      "t": 187856.77083333395,
      "d": 54.6875,
      "v": 66
    },
    {
      "midi": 81,
      "hit": false,
      "t": 187976.5625000006,
      "d": 395.83333333334303,
      "v": 112
    },
    {
      "midi": 54,
      "hit": false,
      "t": 187981.77083333395,
      "d": 815.1041666666861,
      "v": 87
    },
    {
      "midi": 62,
      "hit": false,
      "t": 188085.9375000006,
      "d": 106.77083333334303,
      "v": 80
    },
    {
      "midi": 61,
      "hit": false,
      "t": 188192.70833333395,
      "d": 93.75,
      "v": 77
    },
    {
      "midi": 62,
      "hit": false,
      "t": 188312.5000000006,
      "d": 114.58333333337214,
      "v": 59
    },
    {
      "midi": 74,
      "hit": false,
      "t": 188401.0416666673,
      "d": 119.79166666668607,
      "v": 94
    },
    {
      "midi": 61,
      "hit": false,
      "t": 188453.12500000064,
      "d": 44.270833333343035,
      "v": 69
    },
    {
      "midi": 62,
      "hit": false,
      "t": 188536.45833333398,
      "d": 70.3125,
      "v": 54
    },
    {
      "midi": 86,
      "hit": false,
      "t": 188635.41666666733,
      "d": 91.14583333331393,
      "v": 103
    },
    {
      "midi": 61,
      "hit": false,
      "t": 188645.83333333398,
      "d": 106.77083333331393,
      "v": 79
    },
    {
      "midi": 62,
      "hit": false,
      "t": 188765.62500000064,
      "d": 117.1875,
      "v": 82
    },
    {
      "midi": 86,
      "hit": false,
      "t": 188877.6041666673,
      "d": 343.7500000000291,
      "v": 115
    },
    {
      "midi": 55,
      "hit": false,
      "t": 188882.81250000064,
      "d": 820.3125000000291,
      "v": 94
    },
    {
      "midi": 62,
      "hit": false,
      "t": 188981.77083333398,
      "d": 104.16666666665697,
      "v": 81
    },
    {
      "midi": 61,
      "hit": false,
      "t": 189106.77083333398,
      "d": 54.6875,
      "v": 78
    },
    {
      "midi": 62,
      "hit": false,
      "t": 189210.93750000064,
      "d": 70.3125,
      "v": 69
    },
    {
      "midi": 83,
      "hit": false,
      "t": 189216.14583333398,
      "d": 106.77083333334303,
      "v": 78
    },
    {
      "midi": 79,
      "hit": false,
      "t": 189296.87500000064,
      "d": 88.54166666668607,
      "v": 103
    },
    {
      "midi": 61,
      "hit": false,
      "t": 189317.70833333398,
      "d": 54.6875,
      "v": 83
    },
    {
      "midi": 62,
      "hit": false,
      "t": 189432.29166666733,
      "d": 54.6875,
      "v": 75
    },
    {
      "midi": 83,
      "hit": false,
      "t": 189515.62500000067,
      "d": 96.35416666665697,
      "v": 100
    },
    {
      "midi": 61,
      "hit": false,
      "t": 189526.04166666733,
      "d": 96.35416666665697,
      "v": 84
    },
    {
      "midi": 62,
      "hit": false,
      "t": 189635.41666666733,
      "d": 322.91666666665697,
      "v": 91
    },
    {
      "midi": 81,
      "hit": false,
      "t": 189752.60416666733,
      "d": 320.3125,
      "v": 114
    },
    {
      "midi": 57,
      "hit": false,
      "t": 189760.41666666733,
      "d": 747.395833333343,
      "v": 99
    },
    {
      "midi": 78,
      "hit": false,
      "t": 190067.70833333398,
      "d": 119.79166666668607,
      "v": 88
    },
    {
      "midi": 74,
      "hit": false,
      "t": 190161.45833333398,
      "d": 91.14583333334303,
      "v": 100
    },
    {
      "midi": 66,
      "hit": false,
      "t": 190177.08333333398,
      "d": 65.10416666668607,
      "v": 89
    },
    {
      "midi": 73,
      "hit": false,
      "t": 190411.45833333398,
      "d": 104.16666666668607,
      "v": 97
    },
    {
      "midi": 64,
      "hit": false,
      "t": 190432.29166666733,
      "d": 39.0625,
      "v": 92
    },
    {
      "midi": 74,
      "hit": false,
      "t": 190687.50000000067,
      "d": 440.10416666668607,
      "v": 109
    },
    {
      "midi": 62,
      "hit": false,
      "t": 190703.12500000067,
      "d": 348.95833333334303,
      "v": 79
    },
    {
      "midi": 50,
      "hit": false,
      "t": 190703.12500000067,
      "d": 354.16666666668607,
      "v": 83
    },
    {
      "midi": 81,
      "hit": false,
      "t": 191341.145833334,
      "d": 44.270833333343035,
      "v": 87
    },
    {
      "midi": 66,
      "hit": false,
      "t": 191585.9375000007,
      "d": 49.479166666656965,
      "v": 67
    },
    {
      "midi": 81,
      "hit": false,
      "t": 191601.5625000007,
      "d": 406.2499999999709,
      "v": 92
    },
    {
      "midi": 72,
      "hit": false,
      "t": 191692.708333334,
      "d": 59.895833333343035,
      "v": 68
    },
    {
      "midi": 66,
      "hit": false,
      "t": 191817.708333334,
      "d": 67.70833333334303,
      "v": 38
    },
    {
      "midi": 72,
      "hit": false,
      "t": 191901.04166666736,
      "d": 57.291666666656965,
      "v": 69
    },
    {
      "midi": 66,
      "hit": false,
      "t": 192015.62500000067,
      "d": 80.72916666665697,
      "v": 38
    },
    {
      "midi": 75,
      "hit": false,
      "t": 192026.04166666733,
      "d": 80.72916666665697,
      "v": 70
    },
    {
      "midi": 83,
      "hit": false,
      "t": 192247.39583333398,
      "d": 39.0625,
      "v": 67
    },
    {
      "midi": 83,
      "hit": false,
      "t": 192476.56250000064,
      "d": 440.10416666668607,
      "v": 63
    },
    {
      "midi": 67,
      "hit": false,
      "t": 192507.81250000064,
      "d": 54.6875,
      "v": 49
    },
    {
      "midi": 71,
      "hit": false,
      "t": 192591.14583333398,
      "d": 49.479166666656965,
      "v": 41
    },
    {
      "midi": 67,
      "hit": false,
      "t": 192708.33333333398,
      "d": 67.70833333334303,
      "v": 30
    },
    {
      "midi": 71,
      "hit": false,
      "t": 192822.91666666733,
      "d": 54.6875,
      "v": 42
    },
    {
      "midi": 76,
      "hit": false,
      "t": 192947.91666666733,
      "d": 62.5,
      "v": 54
    },
    {
      "midi": 67,
      "hit": false,
      "t": 192958.33333333398,
      "d": 70.3125,
      "v": 25
    },
    {
      "midi": 79,
      "hit": false,
      "t": 193177.08333333398,
      "d": 49.479166666656965,
      "v": 56
    },
    {
      "midi": 61,
      "hit": false,
      "t": 193382.81250000064,
      "d": 44.270833333343035,
      "v": 64
    },
    {
      "midi": 69,
      "hit": false,
      "t": 193382.81250000064,
      "d": 59.895833333343035,
      "v": 54
    },
    {
      "midi": 79,
      "hit": false,
      "t": 193390.62500000064,
      "d": 244.79166666668607,
      "v": 75
    },
    {
      "midi": 61,
      "hit": false,
      "t": 193606.77083333398,
      "d": 44.270833333343035,
      "v": 67
    },
    {
      "midi": 69,
      "hit": false,
      "t": 193606.77083333398,
      "d": 59.895833333343035,
      "v": 54
    },
    {
      "midi": 81,
      "hit": false,
      "t": 193692.70833333398,
      "d": 49.479166666656965,
      "v": 57
    },
    {
      "midi": 79,
      "hit": false,
      "t": 193752.6041666673,
      "d": 49.479166666656965,
      "v": 71
    },
    {
      "midi": 69,
      "hit": false,
      "t": 193807.2916666673,
      "d": 59.895833333343035,
      "v": 53
    },
    {
      "midi": 78,
      "hit": false,
      "t": 193817.70833333395,
      "d": 49.47916666668607,
      "v": 67
    },
    {
      "midi": 62,
      "hit": false,
      "t": 193822.9166666673,
      "d": 49.47916666668607,
      "v": 64
    },
    {
      "midi": 78,
      "hit": false,
      "t": 194015.62500000064,
      "d": 52.083333333343035,
      "v": 83
    },
    {
      "midi": 69,
      "hit": false,
      "t": 194031.25000000064,
      "d": 59.895833333343035,
      "v": 43
    },
    {
      "midi": 76,
      "hit": false,
      "t": 194247.39583333398,
      "d": 239.58333333331393,
      "v": 96
    },
    {
      "midi": 69,
      "hit": false,
      "t": 194260.41666666733,
      "d": 96.35416666665697,
      "v": 52
    },
    {
      "midi": 57,
      "hit": false,
      "t": 194276.04166666733,
      "d": 182.29166666665697,
      "v": 62
    },
    {
      "midi": 73,
      "hit": false,
      "t": 194460.93750000064,
      "d": 130.20833333331393,
      "v": 84
    },
    {
      "midi": 69,
      "hit": false,
      "t": 194666.6666666673,
      "d": 91.14583333334303,
      "v": 100
    },
    {
      "midi": 69,
      "hit": false,
      "t": 194861.9791666673,
      "d": 96.35416666668607,
      "v": 89
    },
    {
      "midi": 66,
      "hit": false,
      "t": 194867.18750000064,
      "d": 85.9375,
      "v": 95
    },
    {
      "midi": 38,
      "hit": false,
      "t": 195096.35416666733,
      "d": 85.9375000000291,
      "v": 116
    },
    {
      "midi": 66,
      "hit": false,
      "t": 195096.35416666733,
      "d": 200.52083333340124,
      "v": 100
    },
    {
      "midi": 69,
      "hit": false,
      "t": 195101.56250000067,
      "d": 401.0416666667152,
      "v": 115
    },
    {
      "midi": 50,
      "hit": false,
      "t": 195187.5000000007,
      "d": 98.95833333334303,
      "v": 100
    },
    {
      "midi": 49,
      "hit": false,
      "t": 195291.66666666738,
      "d": 119.79166666665697,
      "v": 92
    },
    {
      "midi": 50,
      "hit": false,
      "t": 195385.41666666738,
      "d": 111.97916666665697,
      "v": 72
    },
    {
      "midi": 62,
      "hit": false,
      "t": 195507.81250000073,
      "d": 39.0625,
      "v": 93
    },
    {
      "midi": 49,
      "hit": false,
      "t": 195507.81250000073,
      "d": 93.75,
      "v": 78
    },
    {
      "midi": 66,
      "hit": false,
      "t": 195507.81250000073,
      "d": 98.95833333334303,
      "v": 97
    },
    {
      "midi": 50,
      "hit": false,
      "t": 195591.14583333407,
      "d": 96.35416666665697,
      "v": 81
    },
    {
      "midi": 49,
      "hit": false,
      "t": 195692.70833333407,
      "d": 109.375,
      "v": 76
    },
    {
      "midi": 74,
      "hit": false,
      "t": 195726.56250000073,
      "d": 75.52083333334303,
      "v": 109
    },
    {
      "midi": 66,
      "hit": false,
      "t": 195731.77083333407,
      "d": 39.0625,
      "v": 95
    },
    {
      "midi": 50,
      "hit": false,
      "t": 195796.87500000073,
      "d": 54.6875,
      "v": 74
    },
    {
      "midi": 74,
      "hit": false,
      "t": 195953.12500000073,
      "d": 442.70833333334303,
      "v": 113
    },
    {
      "midi": 45,
      "hit": false,
      "t": 195958.33333333407,
      "d": 88.54166666668607,
      "v": 111
    },
    {
      "midi": 66,
      "hit": false,
      "t": 195960.93750000073,
      "d": 276.04166666668607,
      "v": 100
    },
    {
      "midi": 57,
      "hit": false,
      "t": 196036.45833333407,
      "d": 91.14583333334303,
      "v": 107
    },
    {
      "midi": 56,
      "hit": false,
      "t": 196145.83333333407,
      "d": 119.79166666665697,
      "v": 88
    },
    {
      "midi": 57,
      "hit": false,
      "t": 196247.39583333407,
      "d": 98.95833333331393,
      "v": 67
    },
    {
      "midi": 56,
      "hit": false,
      "t": 196367.18750000073,
      "d": 109.375,
      "v": 79
    },
    {
      "midi": 64,
      "hit": false,
      "t": 196372.39583333407,
      "d": 70.3125,
      "v": 103
    },
    {
      "midi": 73,
      "hit": false,
      "t": 196377.6041666674,
      "d": 119.79166666665697,
      "v": 100
    },
    {
      "midi": 57,
      "hit": false,
      "t": 196466.14583333407,
      "d": 101.5625,
      "v": 77
    },
    {
      "midi": 56,
      "hit": false,
      "t": 196583.33333333407,
      "d": 114.58333333331393,
      "v": 70
    },
    {
      "midi": 73,
      "hit": false,
      "t": 196585.93750000073,
      "d": 101.5625,
      "v": 90
    },
    {
      "midi": 76,
      "hit": false,
      "t": 196591.14583333407,
      "d": 85.9375,
      "v": 113
    },
    {
      "midi": 57,
      "hit": false,
      "t": 196677.08333333407,
      "d": 104.16666666665697,
      "v": 75
    },
    {
      "midi": 76,
      "hit": false,
      "t": 196817.70833333407,
      "d": 299.47916666668607,
      "v": 117
    },
    {
      "midi": 73,
      "hit": false,
      "t": 196817.70833333407,
      "d": 338.54166666668607,
      "v": 106
    },
    {
      "midi": 45,
      "hit": false,
      "t": 196822.9166666674,
      "d": 78.125,
      "v": 115
    },
    {
      "midi": 57,
      "hit": false,
      "t": 196916.6666666674,
      "d": 91.14583333334303,
      "v": 95
    },
    {
      "midi": 56,
      "hit": false,
      "t": 197036.4583333341,
      "d": 119.79166666665697,
      "v": 85
    },
    {
      "midi": 57,
      "hit": false,
      "t": 197140.62500000076,
      "d": 91.14583333334303,
      "v": 80
    },
    {
      "midi": 78,
      "hit": false,
      "t": 197156.25000000076,
      "d": 145.83333333334303,
      "v": 81
    },
    {
      "midi": 74,
      "hit": false,
      "t": 197161.4583333341,
      "d": 104.16666666665697,
      "v": 81
    },
    {
      "midi": 79,
      "hit": false,
      "t": 197231.7708333341,
      "d": 85.9375,
      "v": 105
    },
    {
      "midi": 76,
      "hit": false,
      "t": 197242.18750000076,
      "d": 59.895833333343035,
      "v": 97
    },
    {
      "midi": 56,
      "hit": false,
      "t": 197242.18750000076,
      "d": 109.375,
      "v": 79
    },
    {
      "midi": 57,
      "hit": false,
      "t": 197335.93750000076,
      "d": 101.5625,
      "v": 78
    },
    {
      "midi": 56,
      "hit": false,
      "t": 197447.9166666674,
      "d": 114.58333333331393,
      "v": 70
    },
    {
      "midi": 79,
      "hit": false,
      "t": 197458.33333333407,
      "d": 88.54166666665697,
      "v": 111
    },
    {
      "midi": 76,
      "hit": false,
      "t": 197460.93750000073,
      "d": 36.458333333343035,
      "v": 107
    },
    {
      "midi": 57,
      "hit": false,
      "t": 197546.87500000073,
      "d": 104.16666666665697,
      "v": 70
    },
    {
      "midi": 79,
      "hit": false,
      "t": 197687.50000000073,
      "d": 434.89583333334303,
      "v": 113
    },
    {
      "midi": 76,
      "hit": false,
      "t": 197692.70833333407,
      "d": 328.125,
      "v": 113
    },
    {
      "midi": 50,
      "hit": false,
      "t": 197703.12500000073,
      "d": 72.91666666665697,
      "v": 102
    },
    {
      "midi": 62,
      "hit": false,
      "t": 197796.8750000007,
      "d": 75.52083333334303,
      "v": 96
    },
    {
      "midi": 61,
      "hit": false,
      "t": 197911.45833333404,
      "d": 75.52083333334303,
      "v": 77
    },
    {
      "midi": 62,
      "hit": false,
      "t": 198007.81250000073,
      "d": 54.6875,
      "v": 76
    },
    {
      "midi": 78,
      "hit": false,
      "t": 198111.97916666738,
      "d": 125,
      "v": 97
    },
    {
      "midi": 74,
      "hit": false,
      "t": 198117.18750000073,
      "d": 39.0625,
      "v": 97
    },
    {
      "midi": 61,
      "hit": false,
      "t": 198117.18750000073,
      "d": 80.72916666665697,
      "v": 73
    },
    {
      "midi": 62,
      "hit": false,
      "t": 198216.14583333404,
      "d": 49.47916666668607,
      "v": 91
    },
    {
      "midi": 61,
      "hit": false,
      "t": 198335.93750000073,
      "d": 59.895833333343035,
      "v": 72
    },
    {
      "midi": 81,
      "hit": false,
      "t": 198335.93750000073,
      "d": 80.72916666668607,
      "v": 110
    },
    {
      "midi": 62,
      "hit": false,
      "t": 198432.2916666674,
      "d": 83.33333333334303,
      "v": 83
    },
    {
      "midi": 81,
      "hit": false,
      "t": 198572.9166666674,
      "d": 393.22916666665697,
      "v": 113
    },
    {
      "midi": 54,
      "hit": false,
      "t": 198583.33333333407,
      "d": 817.7083333333721,
      "v": 90
    },
    {
      "midi": 62,
      "hit": false,
      "t": 198671.87500000073,
      "d": 70.3125,
      "v": 95
    },
    {
      "midi": 61,
      "hit": false,
      "t": 198781.25000000073,
      "d": 75.52083333334303,
      "v": 78
    },
    {
      "midi": 62,
      "hit": false,
      "t": 198895.83333333407,
      "d": 91.14583333334303,
      "v": 92
    },
    {
      "midi": 74,
      "hit": false,
      "t": 198986.9791666674,
      "d": 130.20833333334303,
      "v": 105
    },
    {
      "midi": 61,
      "hit": false,
      "t": 199015.62500000076,
      "d": 46.875,
      "v": 81
    },
    {
      "midi": 62,
      "hit": false,
      "t": 199106.7708333341,
      "d": 101.5625,
      "v": 75
    },
    {
      "midi": 61,
      "hit": false,
      "t": 199216.1458333341,
      "d": 117.1875,
      "v": 85
    },
    {
      "midi": 86,
      "hit": false,
      "t": 199221.35416666744,
      "d": 80.72916666665697,
      "v": 108
    },
    {
      "midi": 62,
      "hit": false,
      "t": 199328.12500000076,
      "d": 132.8125,
      "v": 73
    },
    {
      "midi": 86,
      "hit": false,
      "t": 199458.3333333341,
      "d": 348.95833333331393,
      "v": 113
    },
    {
      "midi": 55,
      "hit": false,
      "t": 199460.93750000076,
      "d": 841.1458333332848,
      "v": 99
    },
    {
      "midi": 62,
      "hit": false,
      "t": 199572.9166666674,
      "d": 83.33333333334303,
      "v": 80
    },
    {
      "midi": 61,
      "hit": false,
      "t": 199687.50000000076,
      "d": 78.125,
      "v": 82
    },
    {
      "midi": 83,
      "hit": false,
      "t": 199786.4583333341,
      "d": 114.58333333331393,
      "v": 84
    },
    {
      "midi": 62,
      "hit": false,
      "t": 199796.87500000076,
      "d": 75.52083333331393,
      "v": 77
    },
    {
      "midi": 79,
      "hit": false,
      "t": 199867.18750000073,
      "d": 93.7500000000291,
      "v": 103
    },
    {
      "midi": 61,
      "hit": false,
      "t": 199885.4166666674,
      "d": 85.9375,
      "v": 80
    },
    {
      "midi": 62,
      "hit": false,
      "t": 199997.39583333407,
      "d": 88.54166666665697,
      "v": 78
    },
    {
      "midi": 83,
      "hit": false,
      "t": 200085.93750000073,
      "d": 106.77083333331393,
      "v": 102
    },
    {
      "midi": 61,
      "hit": false,
      "t": 200096.35416666738,
      "d": 114.58333333331393,
      "v": 74
    },
    {
      "midi": 62,
      "hit": false,
      "t": 200210.9375000007,
      "d": 265.625,
      "v": 80
    },
    {
      "midi": 81,
      "hit": false,
      "t": 200312.5000000007,
      "d": 338.54166666665697,
      "v": 114
    },
    {
      "midi": 57,
      "hit": false,
      "t": 200322.91666666736,
      "d": 734.3749999999709,
      "v": 105
    },
    {
      "midi": 78,
      "hit": false,
      "t": 200640.6250000007,
      "d": 75.52083333331393,
      "v": 84
    },
    {
      "midi": 74,
      "hit": false,
      "t": 200736.97916666736,
      "d": 96.35416666665697,
      "v": 98
    },
    {
      "midi": 66,
      "hit": false,
      "t": 200739.583333334,
      "d": 57.291666666656965,
      "v": 88
    },
    {
      "midi": 73,
      "hit": false,
      "t": 200971.35416666736,
      "d": 101.5624999999709,
      "v": 95
    },
    {
      "midi": 64,
      "hit": false,
      "t": 200981.770833334,
      "d": 33.854166666656965,
      "v": 96
    },
    {
      "midi": 74,
      "hit": false,
      "t": 201210.93750000067,
      "d": 161.45833333331393,
      "v": 111
    },
    {
      "midi": 62,
      "hit": false,
      "t": 201216.145833334,
      "d": 44.27083333331393,
      "v": 107
    },
    {
      "midi": 50,
      "hit": false,
      "t": 201226.56250000067,
      "d": 33.854166666656965,
      "v": 95
    },
    {
      "midi": 74,
      "hit": false,
      "t": 201677.08333333398,
      "d": 135.41666666668607,
      "v": 113
    },
    {
      "midi": 86,
      "hit": false,
      "t": 201677.08333333398,
      "d": 151.04166666668607,
      "v": 110
    },
    {
      "midi": 78,
      "hit": false,
      "t": 201677.08333333398,
      "d": 208.33333333337214,
      "v": 100
    },
    {
      "midi": 62,
      "hit": false,
      "t": 201682.29166666733,
      "d": 93.7500000000291,
      "v": 111
    },
    {
      "midi": 54,
      "hit": false,
      "t": 201682.29166666733,
      "d": 151.04166666668607,
      "v": 91
    },
    {
      "midi": 81,
      "hit": false,
      "t": 201682.29166666733,
      "d": 203.1250000000291,
      "v": 110
    },
    {
      "midi": 57,
      "hit": false,
      "t": 201687.50000000067,
      "d": 83.33333333334303,
      "v": 100
    },
    {
      "midi": 50,
      "hit": false,
      "t": 201687.50000000067,
      "d": 114.58333333334303,
      "v": 106
    },
    {
      "midi": 62,
      "hit": false,
      "t": 202203.1250000007,
      "d": 132.8124999999709,
      "v": 108
    },
    {
      "midi": 86,
      "hit": false,
      "t": 202203.1250000007,
      "d": 158.85416666665697,
      "v": 114
    },
    {
      "midi": 78,
      "hit": false,
      "t": 202203.1250000007,
      "d": 174.47916666665697,
      "v": 102
    },
    {
      "midi": 74,
      "hit": false,
      "t": 202208.33333333404,
      "d": 98.95833333331393,
      "v": 113
    },
    {
      "midi": 57,
      "hit": false,
      "t": 202208.33333333404,
      "d": 109.3749999999709,
      "v": 100
    },
    {
      "midi": 81,
      "hit": false,
      "t": 202208.33333333404,
      "d": 174.47916666665697,
      "v": 112
    },
    {
      "midi": 50,
      "hit": false,
      "t": 202208.33333333404,
      "d": 213.54166666665697,
      "v": 106
    },
    {
      "midi": 54,
      "hit": false,
      "t": 202210.9375000007,
      "d": 130.20833333331393,
      "v": 84
    }
  ]
}