{
  "jsonPath": "Unknown/Unknown/Sergio Tiempo/sonata-no-37-in-d-major-for-piano-hob-xvi37-ii-largo-e-sostenuto.json",
  "path": "Unknown\\Unknown\\Sergio Tiempo\\Sonata No 37 in D Major for Piano_ Hob XVI37 II Largo e sostenuto.mid",
  "name": "Sonata No 37 in D Major for Piano_ Hob XVI37 II Largo e sostenuto",
  "difficulty": "Advanced",
  "bpm": 120,
  "notes": [
    {
      "midi": 38,
      "hit": false,
      "t": 2000,
      "d": 1536.458333333334,
      "v": 49
    },
    {
      "midi": 41,
      "hit": false,
      "t": 2130.2083333333335,
      "d": 385.4166666666674,
      "v": 65
    },
    {
      "midi": 45,
      "hit": false,
      "t": 2190.104166666667,
      "d": 250.00000000000045,
      "v": 74
    },
    {
      "midi": 50,
      "hit": false,
      "t": 2255.2083333333335,
      "d": 195.31250000000045,
      "v": 74
    },
    {
      "midi": 53,
      "hit": false,
      "t": 2335.9375000000005,
      "d": 544.2708333333335,
      "v": 73
    },
    {
      "midi": 57,
      "hit": false,
      "t": 2427.083333333334,
      "d": 434.8958333333335,
      "v": 81
    },
    {
      "midi": 62,
      "hit": false,
      "t": 2494.7916666666674,
      "d": 1635.4166666666665,
      "v": 89
    },
    {
      "midi": 65,
      "hit": false,
      "t": 3986.9791666666674,
      "d": 2398.4374999999986,
      "v": 87
    },
    {
      "midi": 57,
      "hit": false,
      "t": 4000.000000000001,
      "d": 1096.354166666666,
      "v": 51
    },
    {
      "midi": 53,
      "hit": false,
      "t": 4015.625000000001,
      "d": 1075.520833333333,
      "v": 52
    },
    {
      "midi": 50,
      "hit": false,
      "t": 4015.625000000001,
      "d": 1223.9583333333321,
      "v": 55
    },
    {
      "midi": 59,
      "hit": false,
      "t": 5091.145833333334,
      "d": 455.72916666666606,
      "v": 52
    },
    {
      "midi": 55,
      "hit": false,
      "t": 5096.354166666667,
      "d": 75.52083333333303,
      "v": 50
    },
    {
      "midi": 61,
      "hit": false,
      "t": 5450.520833333333,
      "d": 1575.520833333333,
      "v": 67
    },
    {
      "midi": 57,
      "hit": false,
      "t": 5460.9375,
      "d": 3330.729166666668,
      "v": 39
    },
    {
      "midi": 45,
      "hit": false,
      "t": 5476.5625,
      "d": 1919.270833333333,
      "v": 36
    },
    {
      "midi": 64,
      "hit": false,
      "t": 6302.083333333333,
      "d": 1309.895833333333,
      "v": 79
    },
    {
      "midi": 62,
      "hit": false,
      "t": 7210.937499999999,
      "d": 2429.687500000001,
      "v": 61
    },
    {
      "midi": 46,
      "hit": false,
      "t": 7221.354166666666,
      "d": 4065.104166666668,
      "v": 55
    },
    {
      "midi": 50,
      "hit": false,
      "t": 8661.458333333334,
      "d": 265.625,
      "v": 41
    },
    {
      "midi": 52,
      "hit": false,
      "t": 8830.729166666668,
      "d": 184.89583333333212,
      "v": 38
    },
    {
      "midi": 54,
      "hit": false,
      "t": 8937.5,
      "d": 187.5,
      "v": 50
    },
    {
      "midi": 55,
      "hit": false,
      "t": 9119.791666666666,
      "d": 5427.083333333332,
      "v": 46
    },
    {
      "midi": 62,
      "hit": false,
      "t": 9869.791666666666,
      "d": 85.9375,
      "v": 53
    },
    {
      "midi": 64,
      "hit": false,
      "t": 10015.625,
      "d": 119.79166666666788,
      "v": 64
    },
    {
      "midi": 66,
      "hit": false,
      "t": 10114.583333333334,
      "d": 171.875,
      "v": 76
    },
    {
      "midi": 67,
      "hit": false,
      "t": 10260.416666666668,
      "d": 895.8333333333321,
      "v": 65
    },
    {
      "midi": 69,
      "hit": false,
      "t": 11057.291666666666,
      "d": 328.125,
      "v": 67
    },
    {
      "midi": 70,
      "hit": false,
      "t": 11296.875,
      "d": 1669.2708333333321,
      "v": 81
    },
    {
      "midi": 43,
      "hit": false,
      "t": 11335.9375,
      "d": 1640.6249999999982,
      "v": 35
    },
    {
      "midi": 64,
      "hit": false,
      "t": 11739.583333333332,
      "d": 205.72916666666606,
      "v": 60
    },
    {
      "midi": 65,
      "hit": false,
      "t": 11937.499999999998,
      "d": 278.64583333333394,
      "v": 75
    },
    {
      "midi": 64,
      "hit": false,
      "t": 12140.624999999998,
      "d": 460.9375,
      "v": 69
    },
    {
      "midi": 62,
      "hit": false,
      "t": 12575.520833333332,
      "d": 825.5208333333339,
      "v": 60
    },
    {
      "midi": 70,
      "hit": false,
      "t": 13239.583333333332,
      "d": 1851.5624999999982,
      "v": 73
    },
    {
      "midi": 61,
      "hit": false,
      "t": 13244.791666666666,
      "d": 2200.520833333332,
      "v": 54
    },
    {
      "midi": 45,
      "hit": false,
      "t": 13276.041666666666,
      "d": 5145.833333333334,
      "v": 44
    },
    {
      "midi": 52,
      "hit": false,
      "t": 14807.291666666664,
      "d": 169.27083333333212,
      "v": 39
    },
    {
      "midi": 53,
      "hit": false,
      "t": 14966.14583333333,
      "d": 104.16666666666606,
      "v": 48
    },
    {
      "midi": 55,
      "hit": false,
      "t": 15119.791666666664,
      "d": 145.83333333333394,
      "v": 56
    },
    {
      "midi": 69,
      "hit": false,
      "t": 15260.416666666664,
      "d": 1656.2500000000036,
      "v": 52
    },
    {
      "midi": 62,
      "hit": false,
      "t": 15281.249999999998,
      "d": 1109.3750000000018,
      "v": 29
    },
    {
      "midi": 53,
      "hit": false,
      "t": 15286.458333333332,
      "d": 1049.479166666666,
      "v": 40
    },
    {
      "midi": 49,
      "hit": false,
      "t": 16315.104166666664,
      "d": 1195.3125000000036,
      "v": 43
    },
    {
      "midi": 64,
      "hit": false,
      "t": 16335.937499999998,
      "d": 539.0625000000018,
      "v": 50
    },
    {
      "midi": 67,
      "hit": false,
      "t": 16791.666666666668,
      "d": 197.91666666666788,
      "v": 46
    },
    {
      "midi": 65,
      "hit": false,
      "t": 16966.145833333336,
      "d": 169.27083333333212,
      "v": 65
    },
    {
      "midi": 64,
      "hit": false,
      "t": 17119.791666666668,
      "d": 1312.5,
      "v": 70
    },
    {
      "midi": 65,
      "hit": false,
      "t": 17380.208333333336,
      "d": 2205.7291666666642,
      "v": 71
    },
    {
      "midi": 50,
      "hit": false,
      "t": 17401.041666666668,
      "d": 2843.75,
      "v": 51
    },
    {
      "midi": 46,
      "hit": false,
      "t": 18320.3125,
      "d": 994.7916666666679,
      "v": 59
    },
    {
      "midi": 62,
      "hit": false,
      "t": 18341.145833333332,
      "d": 1114.5833333333358,
      "v": 46
    },
    {
      "midi": 44,
      "hit": false,
      "t": 19281.25,
      "d": 395.83333333333576,
      "v": 46
    },
    {
      "midi": 64,
      "hit": false,
      "t": 19640.625,
      "d": 179.68750000000364,
      "v": 46
    },
    {
      "midi": 62,
      "hit": false,
      "t": 19651.041666666668,
      "d": 2151.0416666666642,
      "v": 43
    },
    {
      "midi": 45,
      "hit": false,
      "t": 19666.666666666668,
      "d": 2328.1249999999964,
      "v": 54
    },
    {
      "midi": 65,
      "hit": false,
      "t": 19796.875000000004,
      "d": 169.27083333333212,
      "v": 47
    },
    {
      "midi": 67,
      "hit": false,
      "t": 19966.145833333336,
      "d": 195.3125,
      "v": 53
    },
    {
      "midi": 65,
      "hit": false,
      "t": 20156.250000000004,
      "d": 1783.8541666666606,
      "v": 57
    },
    {
      "midi": 64,
      "hit": false,
      "t": 21635.416666666668,
      "d": 2325.5208333333285,
      "v": 37
    },
    {
      "midi": 61,
      "hit": false,
      "t": 21635.416666666668,
      "d": 2364.5833333333285,
      "v": 23
    },
    {
      "midi": 33,
      "hit": false,
      "t": 21640.625,
      "d": 2320.3124999999964,
      "v": 36
    },
    {
      "midi": 65,
      "hit": false,
      "t": 24812.499999999996,
      "d": 1664.0625,
      "v": 76
    },
    {
      "midi": 57,
      "hit": false,
      "t": 24820.312499999996,
      "d": 1156.25,
      "v": 51
    },
    {
      "midi": 62,
      "hit": false,
      "t": 24820.312499999996,
      "d": 1611.9791666666679,
      "v": 58
    },
    {
      "midi": 50,
      "hit": false,
      "t": 24825.52083333333,
      "d": 1526.0416666666679,
      "v": 54
    },
    {
      "midi": 58,
      "hit": false,
      "t": 26361.979166666664,
      "d": 3304.6875000000036,
      "v": 55
    },
    {
      "midi": 64,
      "hit": false,
      "t": 26364.583333333332,
      "d": 1515.625,
      "v": 69
    },
    {
      "midi": 48,
      "hit": false,
      "t": 26364.583333333332,
      "d": 2156.25,
      "v": 46
    },
    {
      "midi": 67,
      "hit": false,
      "t": 26364.583333333332,
      "d": 2510.416666666668,
      "v": 71
    },
    {
      "midi": 65,
      "hit": false,
      "t": 27861.979166666664,
      "d": 223.95833333333576,
      "v": 52
    },
    {
      "midi": 64,
      "hit": false,
      "t": 28075.520833333332,
      "d": 70.3125,
      "v": 57
    },
    {
      "midi": 62,
      "hit": false,
      "t": 28195.3125,
      "d": 184.89583333333212,
      "v": 49
    },
    {
      "midi": 60,
      "hit": false,
      "t": 28341.145833333332,
      "d": 1445.3125000000036,
      "v": 59
    },
    {
      "midi": 52,
      "hit": false,
      "t": 28390.625,
      "d": 1841.1458333333358,
      "v": 37
    },
    {
      "midi": 67,
      "hit": false,
      "t": 29111.979166666668,
      "d": 734.375,
      "v": 74
    },
    {
      "midi": 67,
      "hit": false,
      "t": 30106.770833333336,
      "d": 1708.3333333333358,
      "v": 57
    },
    {
      "midi": 58,
      "hit": false,
      "t": 30127.604166666668,
      "d": 1929.6875000000073,
      "v": 51
    },
    {
      "midi": 60,
      "hit": false,
      "t": 30130.208333333336,
      "d": 971.3541666666679,
      "v": 28
    },
    {
      "midi": 53,
      "hit": false,
      "t": 30138.020833333336,
      "d": 3356.770833333343,
      "v": 23
    },
    {
      "midi": 60,
      "hit": false,
      "t": 31591.145833333336,
      "d": 283.8541666666715,
      "v": 29
    },
    {
      "midi": 62,
      "hit": false,
      "t": 31765.625000000004,
      "d": 98.95833333333576,
      "v": 32
    },
    {
      "midi": 64,
      "hit": false,
      "t": 31921.875000000007,
      "d": 135.41666666666788,
      "v": 34
    },
    {
      "midi": 57,
      "hit": false,
      "t": 32046.875000000007,
      "d": 750,
      "v": 22
    },
    {
      "midi": 65,
      "hit": false,
      "t": 32070.312500000007,
      "d": 809.8958333333358,
      "v": 44
    },
    {
      "midi": 55,
      "hit": false,
      "t": 32841.14583333334,
      "d": 200.52083333333576,
      "v": 37
    },
    {
      "midi": 64,
      "hit": false,
      "t": 32841.14583333334,
      "d": 239.58333333333576,
      "v": 47
    },
    {
      "midi": 65,
      "hit": false,
      "t": 33046.875000000015,
      "d": 729.1666666666642,
      "v": 67
    },
    {
      "midi": 57,
      "hit": false,
      "t": 33062.500000000015,
      "d": 609.3749999999927,
      "v": 59
    },
    {
      "midi": 58,
      "hit": false,
      "t": 33716.14583333334,
      "d": 223.95833333332848,
      "v": 73
    },
    {
      "midi": 67,
      "hit": false,
      "t": 33716.14583333334,
      "d": 223.95833333332848,
      "v": 74
    },
    {
      "midi": 69,
      "hit": false,
      "t": 33927.08333333334,
      "d": 1572.9166666666715,
      "v": 82
    },
    {
      "midi": 57,
      "hit": false,
      "t": 33937.50000000001,
      "d": 619.7916666666642,
      "v": 65
    },
    {
      "midi": 65,
      "hit": false,
      "t": 33937.50000000001,
      "d": 1502.6041666666715,
      "v": 67
    },
    {
      "midi": 53,
      "hit": false,
      "t": 33950.520833333336,
      "d": 575.5208333333358,
      "v": 50
    },
    {
      "midi": 52,
      "hit": false,
      "t": 34606.770833333336,
      "d": 169.27083333333576,
      "v": 51
    },
    {
      "midi": 55,
      "hit": false,
      "t": 34611.97916666667,
      "d": 153.64583333333576,
      "v": 63
    },
    {
      "midi": 53,
      "hit": false,
      "t": 34776.04166666667,
      "d": 734.3750000000073,
      "v": 76
    },
    {
      "midi": 50,
      "hit": false,
      "t": 34796.87500000001,
      "d": 565.1041666666715,
      "v": 64
    },
    {
      "midi": 52,
      "hit": false,
      "t": 35500.000000000015,
      "d": 351.5625,
      "v": 80
    },
    {
      "midi": 48,
      "hit": false,
      "t": 35526.04166666668,
      "d": 234.375,
      "v": 58
    },
    {
      "midi": 69,
      "hit": false,
      "t": 35760.41666666668,
      "d": 869.7916666666715,
      "v": 88
    },
    {
      "midi": 46,
      "hit": false,
      "t": 35776.04166666668,
      "d": 994.7916666666715,
      "v": 61
    },
    {
      "midi": 65,
      "hit": false,
      "t": 35781.250000000015,
      "d": 1088.5416666666715,
      "v": 67
    },
    {
      "midi": 50,
      "hit": false,
      "t": 35791.66666666668,
      "d": 1148.4375000000073,
      "v": 69
    },
    {
      "midi": 67,
      "hit": false,
      "t": 36562.500000000015,
      "d": 518.2291666666715,
      "v": 85
    },
    {
      "midi": 46,
      "hit": false,
      "t": 36916.666666666686,
      "d": 1593.75,
      "v": 55
    },
    {
      "midi": 48,
      "hit": false,
      "t": 37000.00000000002,
      "d": 1226.5624999999927,
      "v": 55
    },
    {
      "midi": 52,
      "hit": false,
      "t": 37085.93750000002,
      "d": 1369.7916666666642,
      "v": 55
    },
    {
      "midi": 55,
      "hit": false,
      "t": 37171.87500000002,
      "d": 1398.4375,
      "v": 69
    },
    {
      "midi": 64,
      "hit": false,
      "t": 37276.041666666686,
      "d": 1075.5208333333285,
      "v": 70
    },
    {
      "midi": 67,
      "hit": false,
      "t": 37341.14583333335,
      "d": 1075.5208333333358,
      "v": 74
    },
    {
      "midi": 70,
      "hit": false,
      "t": 37406.250000000015,
      "d": 1026.0416666666715,
      "v": 78
    },
    {
      "midi": 74,
      "hit": false,
      "t": 37526.04166666668,
      "d": 869.7916666666715,
      "v": 98
    },
    {
      "midi": 70,
      "hit": false,
      "t": 39130.20833333336,
      "d": 869.7916666666788,
      "v": 76
    },
    {
      "midi": 74,
      "hit": false,
      "t": 39130.20833333336,
      "d": 906.2500000000146,
      "v": 94
    },
    {
      "midi": 65,
      "hit": false,
      "t": 39135.41666666669,
      "d": 1270.8333333333503,
      "v": 58
    },
    {
      "midi": 45,
      "hit": false,
      "t": 39156.25000000003,
      "d": 1484.3750000000146,
      "v": 51
    },
    {
      "midi": 53,
      "hit": false,
      "t": 39161.458333333365,
      "d": 1333.333333333343,
      "v": 56
    },
    {
      "midi": 48,
      "hit": false,
      "t": 39166.6666666667,
      "d": 1375.0000000000073,
      "v": 60
    },
    {
      "midi": 72,
      "hit": false,
      "t": 39950.520833333365,
      "d": 414.0625000000073,
      "v": 95
    },
    {
      "midi": 69,
      "hit": false,
      "t": 39955.7291666667,
      "d": 445.3125000000073,
      "v": 83
    },
    {
      "midi": 46,
      "hit": false,
      "t": 40557.29166666671,
      "d": 1354.1666666666715,
      "v": 58
    },
    {
      "midi": 50,
      "hit": false,
      "t": 40677.08333333338,
      "d": 1213.5416666666715,
      "v": 36
    },
    {
      "midi": 72,
      "hit": false,
      "t": 40731.77083333338,
      "d": 940.1041666666715,
      "v": 89
    },
    {
      "midi": 62,
      "hit": false,
      "t": 40731.77083333338,
      "d": 1229.1666666666642,
      "v": 62
    },
    {
      "midi": 69,
      "hit": false,
      "t": 40755.20833333338,
      "d": 786.4583333333358,
      "v": 58
    },
    {
      "midi": 55,
      "hit": false,
      "t": 40755.20833333338,
      "d": 1302.0833333333285,
      "v": 51
    },
    {
      "midi": 70,
      "hit": false,
      "t": 41546.87500000005,
      "d": 403.6458333333285,
      "v": 68
    },
    {
      "midi": 67,
      "hit": false,
      "t": 41575.52083333339,
      "d": 325.5208333333285,
      "v": 47
    },
    {
      "midi": 48,
      "hit": false,
      "t": 42156.250000000044,
      "d": 1265.6249999999927,
      "v": 40
    },
    {
      "midi": 53,
      "hit": false,
      "t": 42260.41666666671,
      "d": 1135.4166666666642,
      "v": 34
    },
    {
      "midi": 70,
      "hit": false,
      "t": 42364.58333333337,
      "d": 880.2083333333358,
      "v": 68
    },
    {
      "midi": 60,
      "hit": false,
      "t": 42390.62500000004,
      "d": 1104.1666666666642,
      "v": 41
    },
    {
      "midi": 67,
      "hit": false,
      "t": 42406.25000000004,
      "d": 783.8541666666715,
      "v": 50
    },
    {
      "midi": 57,
      "hit": false,
      "t": 42406.25000000004,
      "d": 1088.5416666666642,
      "v": 41
    },
    {
      "midi": 65,
      "hit": false,
      "t": 43182.29166666671,
      "d": 312.4999999999927,
      "v": 39
    },
    {
      "midi": 69,
      "hit": false,
      "t": 43182.29166666671,
      "d": 317.7083333333285,
      "v": 54
    },
    {
      "midi": 48,
      "hit": false,
      "t": 43760.4166666667,
      "d": 1359.3750000000073,
      "v": 22
    },
    {
      "midi": 55,
      "hit": false,
      "t": 43867.18750000004,
      "d": 1098.958333333343,
      "v": 16
    },
    {
      "midi": 58,
      "hit": false,
      "t": 43927.08333333337,
      "d": 1203.125,
      "v": 45
    },
    {
      "midi": 69,
      "hit": false,
      "t": 43976.56250000004,
      "d": 809.895833333343,
      "v": 50
    },
    {
      "midi": 60,
      "hit": false,
      "t": 43981.77083333337,
      "d": 1179.6875,
      "v": 31
    },
    {
      "midi": 65,
      "hit": false,
      "t": 43994.79166666671,
      "d": 755.2083333333358,
      "v": 34
    },
    {
      "midi": 64,
      "hit": false,
      "t": 44786.45833333338,
      "d": 385.41666666665697,
      "v": 40
    },
    {
      "midi": 67,
      "hit": false,
      "t": 44786.45833333338,
      "d": 408.85416666665697,
      "v": 46
    },
    {
      "midi": 67,
      "hit": false,
      "t": 45721.3541666667,
      "d": 1398.4375,
      "v": 38
    },
    {
      "midi": 64,
      "hit": false,
      "t": 45729.1666666667,
      "d": 1614.5833333333358,
      "v": 20
    },
    {
      "midi": 58,
      "hit": false,
      "t": 45731.770833333365,
      "d": 1403.6458333333358,
      "v": 24
    },
    {
      "midi": 60,
      "hit": false,
      "t": 45736.9791666667,
      "d": 3507.8125000000073,
      "v": 16
    },
    {
      "midi": 53,
      "hit": false,
      "t": 45744.7916666667,
      "d": 2968.7500000000073,
      "v": 26
    },
    {
      "midi": 69,
      "hit": false,
      "t": 47562.50000000004,
      "d": 1859.375,
      "v": 27
    },
    {
      "midi": 65,
      "hit": false,
      "t": 47572.9166666667,
      "d": 1916.6666666666715,
      "v": 16
    },
    {
      "midi": 57,
      "hit": false,
      "t": 47601.56250000004,
      "d": 1669.2708333333358,
      "v": 20
    },
    {
      "midi": 38,
      "hit": false,
      "t": 50286.45833333337,
      "d": 1375.0000000000073,
      "v": 62
    },
    {
      "midi": 41,
      "hit": false,
      "t": 50466.14583333337,
      "d": 1145.833333333343,
      "v": 79
    },
    {
      "midi": 45,
      "hit": false,
      "t": 50565.10416666671,
      "d": 1026.0416666666715,
      "v": 86
    },
    {
      "midi": 50,
      "hit": false,
      "t": 50651.04166666671,
      "d": 968.7500000000073,
      "v": 94
    },
    {
      "midi": 53,
      "hit": false,
      "t": 50744.79166666671,
      "d": 750.0000000000073,
      "v": 87
    },
    {
      "midi": 57,
      "hit": false,
      "t": 50820.312500000044,
      "d": 776.0416666666715,
      "v": 97
    },
    {
      "midi": 62,
      "hit": false,
      "t": 50911.45833333338,
      "d": 1765.6250000000073,
      "v": 97
    },
    {
      "midi": 65,
      "hit": false,
      "t": 52356.77083333338,
      "d": 2263.020833333343,
      "v": 100
    },
    {
      "midi": 53,
      "hit": false,
      "t": 52369.791666666715,
      "d": 1041.6666666666715,
      "v": 83
    },
    {
      "midi": 57,
      "hit": false,
      "t": 52369.791666666715,
      "d": 1041.6666666666715,
      "v": 73
    },
    {
      "midi": 50,
      "hit": false,
      "t": 52375.00000000005,
      "d": 1221.3541666666715,
      "v": 79
    },
    {
      "midi": 55,
      "hit": false,
      "t": 53406.25000000005,
      "d": 184.89583333333576,
      "v": 64
    },
    {
      "midi": 59,
      "hit": false,
      "t": 53406.25000000005,
      "d": 455.7291666666715,
      "v": 72
    },
    {
      "midi": 61,
      "hit": false,
      "t": 53750.00000000006,
      "d": 1791.6666666666642,
      "v": 75
    },
    {
      "midi": 57,
      "hit": false,
      "t": 53760.41666666672,
      "d": 3052.0833333333285,
      "v": 80
    },
    {
      "midi": 45,
      "hit": false,
      "t": 53765.62500000006,
      "d": 1661.4583333333285,
      "v": 74
    },
    {
      "midi": 64,
      "hit": false,
      "t": 54486.97916666672,
      "d": 1002.6041666666642,
      "v": 94
    },
    {
      "midi": 62,
      "hit": false,
      "t": 55255.20833333339,
      "d": 2140.6249999999927,
      "v": 86
    },
    {
      "midi": 46,
      "hit": false,
      "t": 55265.62500000005,
      "d": 3770.8333333333285,
      "v": 92
    },
    {
      "midi": 50,
      "hit": false,
      "t": 56591.14583333339,
      "d": 278.6458333333285,
      "v": 57
    },
    {
      "midi": 52,
      "hit": false,
      "t": 56781.25000000005,
      "d": 234.37499999999272,
      "v": 66
    },
    {
      "midi": 54,
      "hit": false,
      "t": 56895.83333333338,
      "d": 229.16666666666424,
      "v": 57
    },
    {
      "midi": 55,
      "hit": false,
      "t": 57046.875000000044,
      "d": 5033.854166666657,
      "v": 73
    },
    {
      "midi": 62,
      "hit": false,
      "t": 57580.729166666715,
      "d": 2049.479166666657,
      "v": 54
    },
    {
      "midi": 64,
      "hit": false,
      "t": 57716.14583333338,
      "d": 130.20833333333576,
      "v": 70
    },
    {
      "midi": 66,
      "hit": false,
      "t": 57825.52083333338,
      "d": 195.3125,
      "v": 75
    },
    {
      "midi": 67,
      "hit": false,
      "t": 57955.729166666715,
      "d": 734.375,
      "v": 87
    },
    {
      "midi": 69,
      "hit": false,
      "t": 58700.52083333338,
      "d": 289.0625,
      "v": 79
    },
    {
      "midi": 70,
      "hit": false,
      "t": 58955.729166666715,
      "d": 1515.6249999999927,
      "v": 87
    },
    {
      "midi": 43,
      "hit": false,
      "t": 58966.14583333338,
      "d": 1773.4374999999927,
      "v": 49
    },
    {
      "midi": 64,
      "hit": false,
      "t": 59361.97916666671,
      "d": 213.54166666666424,
      "v": 63
    },
    {
      "midi": 65,
      "hit": false,
      "t": 59570.31250000004,
      "d": 291.6666666666715,
      "v": 77
    },
    {
      "midi": 64,
      "hit": false,
      "t": 59760.41666666671,
      "d": 471.35416666666424,
      "v": 84
    },
    {
      "midi": 62,
      "hit": false,
      "t": 60156.25000000004,
      "d": 635.4166666666715,
      "v": 75
    },
    {
      "midi": 70,
      "hit": false,
      "t": 60645.83333333337,
      "d": 1765.6249999999927,
      "v": 85
    },
    {
      "midi": 61,
      "hit": false,
      "t": 60666.66666666671,
      "d": 1984.3749999999927,
      "v": 62
    },
    {
      "midi": 45,
      "hit": false,
      "t": 60666.66666666671,
      "d": 4658.854166666642,
      "v": 67
    },
    {
      "midi": 52,
      "hit": false,
      "t": 62140.62500000004,
      "d": 174.47916666666424,
      "v": 49
    },
    {
      "midi": 53,
      "hit": false,
      "t": 62281.25000000004,
      "d": 59.89583333332848,
      "v": 58
    },
    {
      "midi": 55,
      "hit": false,
      "t": 62369.7916666667,
      "d": 140.625,
      "v": 63
    },
    {
      "midi": 69,
      "hit": false,
      "t": 62460.93750000003,
      "d": 1450.5208333333285,
      "v": 66
    },
    {
      "midi": 62,
      "hit": false,
      "t": 62481.770833333365,
      "d": 1023.4375,
      "v": 48
    },
    {
      "midi": 53,
      "hit": false,
      "t": 62489.583333333365,
      "d": 981.7708333333358,
      "v": 49
    },
    {
      "midi": 49,
      "hit": false,
      "t": 63395.833333333365,
      "d": 945.3124999999927,
      "v": 55
    },
    {
      "midi": 64,
      "hit": false,
      "t": 63411.458333333365,
      "d": 505.2083333333285,
      "v": 47
    },
    {
      "midi": 67,
      "hit": false,
      "t": 63815.10416666669,
      "d": 250,
      "v": 61
    },
    {
      "midi": 65,
      "hit": false,
      "t": 63989.58333333336,
      "d": 151.04166666667152,
      "v": 65
    },
    {
      "midi": 64,
      "hit": false,
      "t": 64111.97916666669,
      "d": 1195.3124999999927,
      "v": 70
    },
    {
      "midi": 65,
      "hit": false,
      "t": 64244.79166666669,
      "d": 2031.2499999999927,
      "v": 63
    },
    {
      "midi": 50,
      "hit": false,
      "t": 64255.20833333336,
      "d": 2895.8333333333285,
      "v": 58
    },
    {
      "midi": 62,
      "hit": false,
      "t": 65187.50000000002,
      "d": 973.9583333333358,
      "v": 46
    },
    {
      "midi": 46,
      "hit": false,
      "t": 65190.104166666686,
      "d": 861.9791666666715,
      "v": 53
    },
    {
      "midi": 44,
      "hit": false,
      "t": 65986.97916666669,
      "d": 377.60416666665697,
      "v": 33
    },
    {
      "midi": 62,
      "hit": false,
      "t": 66307.29166666669,
      "d": 1914.0625,
      "v": 19
    },
    {
      "midi": 64,
      "hit": false,
      "t": 66312.50000000001,
      "d": 174.47916666665697,
      "v": 52
    },
    {
      "midi": 45,
      "hit": false,
      "t": 66325.52083333334,
      "d": 2221.354166666686,
      "v": 49
    },
    {
      "midi": 65,
      "hit": false,
      "t": 66471.35416666667,
      "d": 158.85416666667152,
      "v": 58
    },
    {
      "midi": 67,
      "hit": false,
      "t": 66619.79166666667,
      "d": 171.87500000001455,
      "v": 48
    },
    {
      "midi": 65,
      "hit": false,
      "t": 66765.62500000001,
      "d": 1614.583333333343,
      "v": 33
    },
    {
      "midi": 61,
      "hit": false,
      "t": 68036.45833333336,
      "d": 2364.583333333343,
      "v": 25
    },
    {
      "midi": 64,
      "hit": false,
      "t": 68052.08333333336,
      "d": 2333.333333333343,
      "v": 37
    },
    {
      "midi": 33,
      "hit": false,
      "t": 68065.10416666669,
      "d": 2265.6250000000146,
      "v": 36
    },
    {
      "midi": 50,
      "hit": false,
      "t": 71151.0416666667,
      "d": 1429.6875,
      "v": 36
    },
    {
      "midi": 65,
      "hit": false,
      "t": 71151.0416666667,
      "d": 1619.791666666686,
      "v": 43
    },
    {
      "midi": 62,
      "hit": false,
      "t": 71166.6666666667,
      "d": 1395.8333333333285,
      "v": 28
    },
    {
      "midi": 57,
      "hit": false,
      "t": 71171.87500000003,
      "d": 1010.4166666666715,
      "v": 26
    },
    {
      "midi": 67,
      "hit": false,
      "t": 72721.3541666667,
      "d": 2059.8958333333285,
      "v": 46
    },
    {
      "midi": 48,
      "hit": false,
      "t": 72723.95833333337,
      "d": 1705.729166666657,
      "v": 46
    },
    {
      "midi": 58,
      "hit": false,
      "t": 72726.56250000004,
      "d": 2776.041666666657,
      "v": 35
    },
    {
      "midi": 64,
      "hit": false,
      "t": 72736.97916666672,
      "d": 1054.6875,
      "v": 43
    },
    {
      "midi": 65,
      "hit": false,
      "t": 73856.77083333339,
      "d": 164.0625,
      "v": 33
    },
    {
      "midi": 64,
      "hit": false,
      "t": 74065.10416666672,
      "d": 59.89583333332848,
      "v": 36
    },
    {
      "midi": 62,
      "hit": false,
      "t": 74156.25000000004,
      "d": 130.20833333332848,
      "v": 34
    },
    {
      "midi": 60,
      "hit": false,
      "t": 74291.6666666667,
      "d": 1153.6458333333285,
      "v": 57
    },
    {
      "midi": 52,
      "hit": false,
      "t": 74307.2916666667,
      "d": 1653.6458333333285,
      "v": 42
    },
    {
      "midi": 67,
      "hit": false,
      "t": 75065.1041666667,
      "d": 411.4583333333285,
      "v": 66
    },
    {
      "midi": 67,
      "hit": false,
      "t": 75875.00000000003,
      "d": 1505.208333333343,
      "v": 63
    },
    {
      "midi": 60,
      "hit": false,
      "t": 75890.62500000003,
      "d": 979.1666666666715,
      "v": 36
    },
    {
      "midi": 58,
      "hit": false,
      "t": 75890.62500000003,
      "d": 1809.895833333343,
      "v": 59
    },
    {
      "midi": 53,
      "hit": false,
      "t": 75911.45833333336,
      "d": 3390.625,
      "v": 31
    },
    {
      "midi": 60,
      "hit": false,
      "t": 77231.77083333337,
      "d": 2138.020833333314,
      "v": 27
    },
    {
      "midi": 62,
      "hit": false,
      "t": 77401.0416666667,
      "d": 93.75,
      "v": 28
    },
    {
      "midi": 64,
      "hit": false,
      "t": 77557.2916666667,
      "d": 93.75,
      "v": 29
    },
    {
      "midi": 65,
      "hit": false,
      "t": 77661.45833333337,
      "d": 778.645833333343,
      "v": 38
    },
    {
      "midi": 57,
      "hit": false,
      "t": 77705.7291666667,
      "d": 710.9375000000146,
      "v": 29
    },
    {
      "midi": 64,
      "hit": false,
      "t": 78437.50000000004,
      "d": 223.95833333332848,
      "v": 52
    },
    {
      "midi": 55,
      "hit": false,
      "t": 78455.72916666672,
      "d": 158.85416666667152,
      "v": 36
    },
    {
      "midi": 65,
      "hit": false,
      "t": 78619.79166666672,
      "d": 687.4999999999709,
      "v": 71
    },
    {
      "midi": 57,
      "hit": false,
      "t": 78625.00000000004,
      "d": 505.2083333333285,
      "v": 59
    },
    {
      "midi": 67,
      "hit": false,
      "t": 79276.0416666667,
      "d": 223.95833333331393,
      "v": 65
    },
    {
      "midi": 58,
      "hit": false,
      "t": 79281.25000000003,
      "d": 59.89583333332848,
      "v": 57
    },
    {
      "midi": 65,
      "hit": false,
      "t": 79476.56250000001,
      "d": 1380.2083333333285,
      "v": 78
    },
    {
      "midi": 69,
      "hit": false,
      "t": 79476.56250000001,
      "d": 1440.104166666657,
      "v": 77
    },
    {
      "midi": 57,
      "hit": false,
      "t": 79481.77083333334,
      "d": 473.95833333334303,
      "v": 66
    },
    {
      "midi": 53,
      "hit": false,
      "t": 79484.37500000001,
      "d": 476.5625,
      "v": 34
    },
    {
      "midi": 52,
      "hit": false,
      "t": 80096.35416666667,
      "d": 54.6875,
      "v": 70
    },
    {
      "midi": 55,
      "hit": false,
      "t": 80111.97916666667,
      "d": 54.6875,
      "v": 50
    },
    {
      "midi": 50,
      "hit": false,
      "t": 80270.83333333334,
      "d": 549.479166666657,
      "v": 75
    },
    {
      "midi": 53,
      "hit": false,
      "t": 80270.83333333334,
      "d": 640.625,
      "v": 74
    },
    {
      "midi": 48,
      "hit": false,
      "t": 80864.58333333334,
      "d": 205.72916666665697,
      "v": 70
    },
    {
      "midi": 52,
      "hit": false,
      "t": 80875.00000000001,
      "d": 226.56249999998545,
      "v": 74
    },
    {
      "midi": 69,
      "hit": false,
      "t": 81065.10416666667,
      "d": 966.1458333333285,
      "v": 83
    },
    {
      "midi": 46,
      "hit": false,
      "t": 81070.3125,
      "d": 1015.625,
      "v": 74
    },
    {
      "midi": 65,
      "hit": false,
      "t": 81070.3125,
      "d": 1020.8333333333285,
      "v": 78
    },
    {
      "midi": 50,
      "hit": false,
      "t": 81085.9375,
      "d": 1216.1458333333285,
      "v": 62
    },
    {
      "midi": 67,
      "hit": false,
      "t": 81986.97916666667,
      "d": 468.74999999998545,
      "v": 87
    },
    {
      "midi": 46,
      "hit": false,
      "t": 82270.83333333333,
      "d": 1635.416666666657,
      "v": 63
    },
    {
      "midi": 48,
      "hit": false,
      "t": 82369.79166666666,
      "d": 1325.520833333314,
      "v": 52
    },
    {
      "midi": 52,
      "hit": false,
      "t": 82437.49999999999,
      "d": 1544.2708333333285,
      "v": 69
    },
    {
      "midi": 55,
      "hit": false,
      "t": 82531.24999999999,
      "d": 1406.25,
      "v": 67
    },
    {
      "midi": 64,
      "hit": false,
      "t": 82606.77083333331,
      "d": 1257.8125,
      "v": 75
    },
    {
      "midi": 67,
      "hit": false,
      "t": 82666.66666666664,
      "d": 1255.208333333343,
      "v": 72
    },
    {
      "midi": 70,
      "hit": false,
      "t": 82765.62499999997,
      "d": 1216.145833333343,
      "v": 74
    },
    {
      "midi": 74,
      "hit": false,
      "t": 82864.5833333333,
      "d": 997.395833333343,
      "v": 94
    },
    {
      "midi": 45,
      "hit": false,
      "t": 84101.56249999999,
      "d": 1544.2708333333576,
      "v": 66
    },
    {
      "midi": 48,
      "hit": false,
      "t": 84210.93749999999,
      "d": 1354.166666666686,
      "v": 68
    },
    {
      "midi": 53,
      "hit": false,
      "t": 84374.99999999999,
      "d": 1164.0625000000146,
      "v": 55
    },
    {
      "midi": 70,
      "hit": false,
      "t": 84380.20833333331,
      "d": 890.6250000000146,
      "v": 75
    },
    {
      "midi": 74,
      "hit": false,
      "t": 84380.20833333331,
      "d": 901.0416666666861,
      "v": 92
    },
    {
      "midi": 65,
      "hit": false,
      "t": 84406.24999999999,
      "d": 1088.541666666686,
      "v": 61
    },
    {
      "midi": 72,
      "hit": false,
      "t": 85231.77083333333,
      "d": 239.58333333334303,
      "v": 91
    },
    {
      "midi": 69,
      "hit": false,
      "t": 85231.77083333333,
      "d": 294.27083333334303,
      "v": 75
    },
    {
      "midi": 46,
      "hit": false,
      "t": 85786.45833333334,
      "d": 1375,
      "v": 57
    },
    {
      "midi": 50,
      "hit": false,
      "t": 85880.20833333334,
      "d": 1231.7708333333285,
      "v": 50
    },
    {
      "midi": 72,
      "hit": false,
      "t": 86031.25000000001,
      "d": 895.8333333333285,
      "v": 92
    },
    {
      "midi": 55,
      "hit": false,
      "t": 86041.66666666669,
      "d": 1239.5833333333285,
      "v": 39
    },
    {
      "midi": 69,
      "hit": false,
      "t": 86046.87500000001,
      "d": 815.104166666657,
      "v": 58
    },
    {
      "midi": 62,
      "hit": false,
      "t": 86046.87500000001,
      "d": 1169.2708333333285,
      "v": 43
    },
    {
      "midi": 70,
      "hit": false,
      "t": 86856.77083333334,
      "d": 398.4375,
      "v": 58
    },
    {
      "midi": 67,
      "hit": false,
      "t": 86885.41666666667,
      "d": 312.5,
      "v": 41
    },
    {
      "midi": 48,
      "hit": false,
      "t": 87421.87500000001,
      "d": 1278.6458333333285,
      "v": 45
    },
    {
      "midi": 53,
      "hit": false,
      "t": 87531.25000000001,
      "d": 1156.25,
      "v": 33
    },
    {
      "midi": 70,
      "hit": false,
      "t": 87645.83333333334,
      "d": 809.8958333333285,
      "v": 77
    },
    {
      "midi": 57,
      "hit": false,
      "t": 87666.66666666667,
      "d": 1070.3125,
      "v": 39
    },
    {
      "midi": 67,
      "hit": false,
      "t": 87677.08333333334,
      "d": 723.9583333333285,
      "v": 50
    },
    {
      "midi": 60,
      "hit": false,
      "t": 87677.08333333334,
      "d": 1083.3333333333285,
      "v": 26
    },
    {
      "midi": 69,
      "hit": false,
      "t": 88411.45833333334,
      "d": 359.375,
      "v": 53
    },
    {
      "midi": 65,
      "hit": false,
      "t": 88440.10416666667,
      "d": 346.3541666666715,
      "v": 32
    },
    {
      "midi": 48,
      "hit": false,
      "t": 89015.62500000001,
      "d": 1484.3749999999854,
      "v": 16
    },
    {
      "midi": 55,
      "hit": false,
      "t": 89111.97916666669,
      "d": 1473.958333333314,
      "v": 24
    },
    {
      "midi": 58,
      "hit": false,
      "t": 89203.12500000001,
      "d": 1226.5624999999854,
      "v": 35
    },
    {
      "midi": 60,
      "hit": false,
      "t": 89255.20833333334,
      "d": 1286.4583333333285,
      "v": 34
    },
    {
      "midi": 69,
      "hit": false,
      "t": 89260.41666666667,
      "d": 880.2083333333285,
      "v": 44
    },
    {
      "midi": 65,
      "hit": false,
      "t": 89270.83333333334,
      "d": 765.625,
      "v": 32
    },
    {
      "midi": 67,
      "hit": false,
      "t": 90106.77083333334,
      "d": 489.5833333333285,
      "v": 28
    },
    {
      "midi": 64,
      "hit": false,
      "t": 90119.79166666667,
      "d": 476.5625,
      "v": 30
    },
    {
      "midi": 67,
      "hit": false,
      "t": 91091.14583333334,
      "d": 1804.6875,
      "v": 35
    },
    {
      "midi": 64,
      "hit": false,
      "t": 91098.95833333334,
      "d": 1369.7916666666715,
      "v": 20
    },
    {
      "midi": 58,
      "hit": false,
      "t": 91101.56250000001,
      "d": 1434.8958333333285,
      "v": 31
    },
    {
      "midi": 60,
      "hit": false,
      "t": 91111.97916666669,
      "d": 3877.604166666657,
      "v": 16
    },
    {
      "midi": 53,
      "hit": false,
      "t": 91114.58333333336,
      "d": 3874.9999999999854,
      "v": 19
    },
    {
      "midi": 69,
      "hit": false,
      "t": 92981.77083333334,
      "d": 2190.1041666666715,
      "v": 32
    },
    {
      "midi": 65,
      "hit": false,
      "t": 92986.97916666667,
      "d": 2281.2500000000146,
      "v": 29
    },
    {
      "midi": 57,
      "hit": false,
      "t": 92994.79166666667,
      "d": 2028.645833333343,
      "v": 16
    },
    {
      "midi": 62,
      "hit": false,
      "t": 96130.20833333336,
      "d": 1075.5208333333285,
      "v": 36
    },
    {
      "midi": 66,
      "hit": false,
      "t": 96130.20833333336,
      "d": 1101.5625,
      "v": 40
    },
    {
      "midi": 54,
      "hit": false,
      "t": 96135.41666666669,
      "d": 1130.208333333343,
      "v": 27
    },
    {
      "midi": 69,
      "hit": false,
      "t": 96135.41666666669,
      "d": 1221.3541666666715,
      "v": 55
    },
    {
      "midi": 50,
      "hit": false,
      "t": 96145.83333333336,
      "d": 1104.1666666666715,
      "v": 37
    },
    {
      "midi": 57,
      "hit": false,
      "t": 96151.04166666669,
      "d": 1049.4791666666715,
      "v": 38
    },
    {
      "midi": 70,
      "hit": false,
      "t": 97671.87500000003,
      "d": 1322.9166666666715,
      "v": 75
    },
    {
      "midi": 67,
      "hit": false,
      "t": 97700.52083333336,
      "d": 804.6875,
      "v": 47
    },
    {
      "midi": 62,
      "hit": false,
      "t": 97700.52083333336,
      "d": 1156.25,
      "v": 34
    },
    {
      "midi": 55,
      "hit": false,
      "t": 97705.72916666669,
      "d": 841.145833333343,
      "v": 40
    },
    {
      "midi": 43,
      "hit": false,
      "t": 97716.14583333336,
      "d": 789.0625,
      "v": 32
    },
    {
      "midi": 50,
      "hit": false,
      "t": 97726.56250000003,
      "d": 859.375,
      "v": 36
    },
    {
      "midi": 46,
      "hit": false,
      "t": 97731.77083333336,
      "d": 898.4375,
      "v": 32
    },
    {
      "midi": 69,
      "hit": false,
      "t": 98960.93750000003,
      "d": 85.9375,
      "v": 30
    },
    {
      "midi": 67,
      "hit": false,
      "t": 99091.14583333336,
      "d": 104.16666666667152,
      "v": 47
    },
    {
      "midi": 66,
      "hit": false,
      "t": 99221.3541666667,
      "d": 825.5208333333285,
      "v": 56
    },
    {
      "midi": 50,
      "hit": false,
      "t": 99231.77083333337,
      "d": 1158.854166666657,
      "v": 42
    },
    {
      "midi": 60,
      "hit": false,
      "t": 99236.9791666667,
      "d": 914.0625,
      "v": 38
    },
    {
      "midi": 62,
      "hit": false,
      "t": 99250.00000000003,
      "d": 1221.3541666666715,
      "v": 36
    },
    {
      "midi": 69,
      "hit": false,
      "t": 99981.77083333336,
      "d": 554.6875000000146,
      "v": 63
    },
    {
      "midi": 57,
      "hit": false,
      "t": 100361.9791666667,
      "d": 179.6875,
      "v": 61
    },
    {
      "midi": 58,
      "hit": false,
      "t": 100510.4166666667,
      "d": 200.52083333332848,
      "v": 63
    },
    {
      "midi": 60,
      "hit": false,
      "t": 100656.25000000003,
      "d": 54.6875,
      "v": 63
    },
    {
      "midi": 69,
      "hit": false,
      "t": 100830.7291666667,
      "d": 1499.9999999999854,
      "v": 71
    },
    {
      "midi": 62,
      "hit": false,
      "t": 100851.56250000003,
      "d": 859.3749999999854,
      "v": 34
    },
    {
      "midi": 55,
      "hit": false,
      "t": 100864.58333333336,
      "d": 2617.1874999999854,
      "v": 46
    },
    {
      "midi": 60,
      "hit": false,
      "t": 100869.79166666669,
      "d": 1666.6666666666715,
      "v": 40
    },
    {
      "midi": 62,
      "hit": false,
      "t": 102125.00000000001,
      "d": 177.08333333334303,
      "v": 32
    },
    {
      "midi": 64,
      "hit": false,
      "t": 102299.47916666669,
      "d": 85.9375,
      "v": 16
    },
    {
      "midi": 66,
      "hit": false,
      "t": 102401.04166666669,
      "d": 119.79166666667152,
      "v": 30
    },
    {
      "midi": 58,
      "hit": false,
      "t": 102531.25000000003,
      "d": 656.2499999999854,
      "v": 31
    },
    {
      "midi": 62,
      "hit": false,
      "t": 102536.45833333336,
      "d": 1708.333333333314,
      "v": 16
    },
    {
      "midi": 67,
      "hit": false,
      "t": 102552.08333333336,
      "d": 703.1249999999854,
      "v": 47
    },
    {
      "midi": 66,
      "hit": false,
      "t": 103216.14583333334,
      "d": 283.8541666666715,
      "v": 38
    },
    {
      "midi": 57,
      "hit": false,
      "t": 103236.97916666667,
      "d": 229.16666666667152,
      "v": 38
    },
    {
      "midi": 58,
      "hit": false,
      "t": 103437.50000000001,
      "d": 377.60416666665697,
      "v": 57
    },
    {
      "midi": 67,
      "hit": false,
      "t": 103445.31250000001,
      "d": 640.6249999999854,
      "v": 76
    },
    {
      "midi": 69,
      "hit": false,
      "t": 104065.10416666667,
      "d": 242.1875,
      "v": 64
    },
    {
      "midi": 60,
      "hit": false,
      "t": 104070.3125,
      "d": 125,
      "v": 40
    },
    {
      "midi": 58,
      "hit": false,
      "t": 104265.625,
      "d": 510.4166666666715,
      "v": 62
    },
    {
      "midi": 70,
      "hit": false,
      "t": 104265.625,
      "d": 1554.6875,
      "v": 76
    },
    {
      "midi": 55,
      "hit": false,
      "t": 104281.25,
      "d": 539.0625,
      "v": 40
    },
    {
      "midi": 67,
      "hit": false,
      "t": 104296.875,
      "d": 1515.625,
      "v": 34
    },
    {
      "midi": 57,
      "hit": false,
      "t": 104916.66666666667,
      "d": 153.64583333332848,
      "v": 57
    },
    {
      "midi": 53,
      "hit": false,
      "t": 104934.89583333334,
      "d": 75.52083333332848,
      "v": 49
    },
    {
      "midi": 52,
      "hit": false,
      "t": 105130.20833333333,
      "d": 450.52083333334303,
      "v": 53
    },
    {
      "midi": 55,
      "hit": false,
      "t": 105130.20833333333,
      "d": 481.77083333334303,
      "v": 60
    },
    {
      "midi": 53,
      "hit": false,
      "t": 105820.3125,
      "d": 242.1875,
      "v": 64
    },
    {
      "midi": 50,
      "hit": false,
      "t": 105835.9375,
      "d": 226.5625,
      "v": 59
    },
    {
      "midi": 70,
      "hit": false,
      "t": 106091.14583333333,
      "d": 914.0625,
      "v": 78
    },
    {
      "midi": 49,
      "hit": false,
      "t": 106096.35416666666,
      "d": 1533.8541666666424,
      "v": 63
    },
    {
      "midi": 52,
      "hit": false,
      "t": 106119.79166666666,
      "d": 1317.7083333333285,
      "v": 57
    },
    {
      "midi": 67,
      "hit": false,
      "t": 106119.79166666666,
      "d": 1486.9791666666424,
      "v": 55
    },
    {
      "midi": 69,
      "hit": false,
      "t": 106940.10416666666,
      "d": 640.6249999999854,
      "v": 81
    },
    {
      "midi": 57,
      "hit": false,
      "t": 106940.10416666666,
      "d": 661.4583333333139,
      "v": 56
    },
    {
      "midi": 69,
      "hit": false,
      "t": 107755.2083333333,
      "d": 1981.7708333333285,
      "v": 83
    },
    {
      "midi": 67,
      "hit": false,
      "t": 107765.62499999997,
      "d": 1161.458333333343,
      "v": 70
    },
    {
      "midi": 57,
      "hit": false,
      "t": 107781.24999999997,
      "d": 1057.2916666666715,
      "v": 47
    },
    {
      "midi": 50,
      "hit": false,
      "t": 107786.4583333333,
      "d": 1489.583333333343,
      "v": 46
    },
    {
      "midi": 65,
      "hit": false,
      "t": 108580.72916666664,
      "d": 679.6875,
      "v": 74
    },
    {
      "midi": 59,
      "hit": false,
      "t": 108601.56249999997,
      "d": 684.895833333343,
      "v": 75
    },
    {
      "midi": 67,
      "hit": false,
      "t": 109432.29166666664,
      "d": 1583.333333333343,
      "v": 68
    },
    {
      "midi": 65,
      "hit": false,
      "t": 109437.49999999997,
      "d": 1052.0833333333285,
      "v": 75
    },
    {
      "midi": 59,
      "hit": false,
      "t": 109445.31249999997,
      "d": 924.479166666657,
      "v": 81
    },
    {
      "midi": 52,
      "hit": false,
      "t": 109450.5208333333,
      "d": 1518.229166666686,
      "v": 51
    },
    {
      "midi": 64,
      "hit": false,
      "t": 110291.66666666663,
      "d": 658.8541666666861,
      "v": 59
    },
    {
      "midi": 61,
      "hit": false,
      "t": 110291.66666666663,
      "d": 695.3125000000291,
      "v": 85
    },
    {
      "midi": 61,
      "hit": false,
      "t": 111210.93749999999,
      "d": 1630.2083333333285,
      "v": 73
    },
    {
      "midi": 64,
      "hit": false,
      "t": 111210.93749999999,
      "d": 1640.625,
      "v": 59
    },
    {
      "midi": 69,
      "hit": false,
      "t": 111210.93749999999,
      "d": 3526.0416666666424,
      "v": 64
    },
    {
      "midi": 53,
      "hit": false,
      "t": 111236.97916666666,
      "d": 3424.4791666666424,
      "v": 44
    },
    {
      "midi": 65,
      "hit": false,
      "t": 112812.49999999999,
      "d": 257.8125,
      "v": 48
    },
    {
      "midi": 62,
      "hit": false,
      "t": 112812.49999999999,
      "d": 263.0208333333285,
      "v": 36
    },
    {
      "midi": 65,
      "hit": false,
      "t": 113270.83333333331,
      "d": 1369.791666666657,
      "v": 41
    },
    {
      "midi": 62,
      "hit": false,
      "t": 113276.04166666664,
      "d": 1390.6249999999854,
      "v": 45
    },
    {
      "midi": 70,
      "hit": false,
      "t": 115645.8333333333,
      "d": 411.4583333333285,
      "v": 54
    },
    {
      "midi": 61,
      "hit": false,
      "t": 115661.4583333333,
      "d": 403.6458333333285,
      "v": 32
    },
    {
      "midi": 52,
      "hit": false,
      "t": 115666.66666666663,
      "d": 429.6875,
      "v": 44
    },
    {
      "midi": 67,
      "hit": false,
      "t": 115679.68749999996,
      "d": 351.5625,
      "v": 41
    },
    {
      "midi": 70,
      "hit": false,
      "t": 116505.2083333333,
      "d": 1374.9999999999854,
      "v": 59
    },
    {
      "midi": 61,
      "hit": false,
      "t": 116510.41666666663,
      "d": 1401.041666666657,
      "v": 40
    },
    {
      "midi": 53,
      "hit": false,
      "t": 116515.62499999996,
      "d": 2940.104166666657,
      "v": 35
    },
    {
      "midi": 67,
      "hit": false,
      "t": 116520.83333333328,
      "d": 1380.2083333333285,
      "v": 44
    },
    {
      "midi": 69,
      "hit": false,
      "t": 117955.72916666661,
      "d": 174.47916666667152,
      "v": 29
    },
    {
      "midi": 62,
      "hit": false,
      "t": 117958.33333333328,
      "d": 208.33333333332848,
      "v": 22
    },
    {
      "midi": 65,
      "hit": false,
      "t": 117966.14583333328,
      "d": 184.89583333332848,
      "v": 23
    },
    {
      "midi": 69,
      "hit": false,
      "t": 118374.99999999994,
      "d": 1114.583333333343,
      "v": 31
    },
    {
      "midi": 65,
      "hit": false,
      "t": 118385.41666666661,
      "d": 1080.7291666666715,
      "v": 27
    },
    {
      "midi": 62,
      "hit": false,
      "t": 118406.24999999994,
      "d": 1031.25,
      "v": 22
    },
    {
      "midi": 70,
      "hit": false,
      "t": 120666.66666666661,
      "d": 304.68749999998545,
      "v": 27
    },
    {
      "midi": 67,
      "hit": false,
      "t": 120695.31249999994,
      "d": 119.79166666665697,
      "v": 19
    },
    {
      "midi": 52,
      "hit": false,
      "t": 120700.52083333327,
      "d": 200.52083333332848,
      "v": 24
    },
    {
      "midi": 61,
      "hit": false,
      "t": 120700.52083333327,
      "d": 239.58333333332848,
      "v": 16
    },
    {
      "midi": 70,
      "hit": false,
      "t": 121630.20833333327,
      "d": 1380.208333333314,
      "v": 41
    },
    {
      "midi": 67,
      "hit": false,
      "t": 121661.45833333327,
      "d": 1395.833333333314,
      "v": 29
    },
    {
      "midi": 61,
      "hit": false,
      "t": 121666.6666666666,
      "d": 1533.854166666657,
      "v": 23
    },
    {
      "midi": 53,
      "hit": false,
      "t": 121671.87499999993,
      "d": 3078.1249999999854,
      "v": 27
    },
    {
      "midi": 69,
      "hit": false,
      "t": 123286.45833333326,
      "d": 130.20833333332848,
      "v": 22
    },
    {
      "midi": 62,
      "hit": false,
      "t": 123291.66666666658,
      "d": 130.20833333332848,
      "v": 17
    },
    {
      "midi": 65,
      "hit": false,
      "t": 123304.68749999991,
      "d": 125,
      "v": 16
    },
    {
      "midi": 69,
      "hit": false,
      "t": 123765.62499999991,
      "d": 1010.4166666666715,
      "v": 23
    },
    {
      "midi": 65,
      "hit": false,
      "t": 123770.83333333324,
      "d": 1010.4166666666715,
      "v": 35
    },
    {
      "midi": 62,
      "hit": false,
      "t": 123776.04166666657,
      "d": 984.3750000000146,
      "v": 26
    },
    {
      "midi": 69,
      "hit": false,
      "t": 125416.66666666658,
      "d": 875,
      "v": 87
    },
    {
      "midi": 62,
      "hit": false,
      "t": 125421.87499999991,
      "d": 822.9166666666715,
      "v": 54
    },
    {
      "midi": 60,
      "hit": false,
      "t": 125432.29166666658,
      "d": 789.0625,
      "v": 50
    },
    {
      "midi": 54,
      "hit": false,
      "t": 125432.29166666658,
      "d": 843.75,
      "v": 44
    },
    {
      "midi": 66,
      "hit": false,
      "t": 125432.29166666658,
      "d": 919.2708333333285,
      "v": 48
    },
    {
      "midi": 57,
      "hit": false,
      "t": 125450.52083333326,
      "d": 770.8333333333285,
      "v": 44
    },
    {
      "midi": 43,
      "hit": false,
      "t": 127205.72916666658,
      "d": 4325.520833333358,
      "v": 70
    },
    {
      "midi": 46,
      "hit": false,
      "t": 127270.83333333326,
      "d": 3854.166666666686,
      "v": 98
    },
    {
      "midi": 51,
      "hit": false,
      "t": 127330.72916666658,
      "d": 3924.4791666667006,
      "v": 86
    },
    {
      "midi": 55,
      "hit": false,
      "t": 127395.83333333326,
      "d": 3864.583333333372,
      "v": 91
    },
    {
      "midi": 58,
      "hit": false,
      "t": 127445.31249999993,
      "d": 2794.2708333333576,
      "v": 93
    },
    {
      "midi": 63,
      "hit": false,
      "t": 127499.99999999993,
      "d": 2812.500000000029,
      "v": 87
    },
    {
      "midi": 67,
      "hit": false,
      "t": 127570.31249999993,
      "d": 1890.6250000000146,
      "v": 91
    },
    {
      "midi": 70,
      "hit": false,
      "t": 127656.24999999993,
      "d": 2419.2708333333576,
      "v": 111
    },
    {
      "midi": 69,
      "hit": false,
      "t": 130065.10416666661,
      "d": 351.5625,
      "v": 84
    },
    {
      "midi": 67,
      "hit": false,
      "t": 130281.24999999996,
      "d": 208.33333333332848,
      "v": 88
    },
    {
      "midi": 65,
      "hit": false,
      "t": 130411.45833333328,
      "d": 276.0416666666715,
      "v": 92
    },
    {
      "midi": 63,
      "hit": false,
      "t": 130601.56249999996,
      "d": 1013.0208333333285,
      "v": 81
    },
    {
      "midi": 62,
      "hit": false,
      "t": 131411.45833333328,
      "d": 554.6874999999709,
      "v": 73
    },
    {
      "midi": 53,
      "hit": false,
      "t": 131421.87499999994,
      "d": 549.479166666657,
      "v": 62
    },
    {
      "midi": 44,
      "hit": false,
      "t": 131427.08333333328,
      "d": 723.9583333333139,
      "v": 48
    },
    {
      "midi": 62,
      "hit": false,
      "t": 132351.56249999994,
      "d": 1960.9375,
      "v": 66
    },
    {
      "midi": 53,
      "hit": false,
      "t": 132361.9791666666,
      "d": 1375,
      "v": 59
    },
    {
      "midi": 45,
      "hit": false,
      "t": 132380.20833333326,
      "d": 4911.458333333372,
      "v": 52
    },
    {
      "midi": 33,
      "hit": false,
      "t": 132385.4166666666,
      "d": 4914.062500000029,
      "v": 39
    },
    {
      "midi": 61,
      "hit": false,
      "t": 134106.77083333326,
      "d": 583.3333333333721,
      "v": 42
    },
    {
      "midi": 52,
      "hit": false,
      "t": 134130.20833333326,
      "d": 460.9375000000291,
      "v": 24
    },
    {
      "midi": 53,
      "hit": false,
      "t": 135276.04166666663,
      "d": 343.75,
      "v": 34
    },
    {
      "midi": 57,
      "hit": false,
      "t": 135281.24999999997,
      "d": 364.58333333331393,
      "v": 31
    },
    {
      "midi": 57,
      "hit": false,
      "t": 136124.99999999997,
      "d": 330.72916666665697,
      "v": 34
    },
    {
      "midi": 55,
      "hit": false,
      "t": 136138.0208333333,
      "d": 382.8124999999709,
      "v": 42
    },
    {
      "midi": 52,
      "hit": false,
      "t": 136140.62499999997,
      "d": 309.89583333331393,
      "v": 38
    },
    {
      "midi": 53,
      "hit": false,
      "t": 136997.39583333328,
      "d": 403.64583333334303,
      "v": 36
    },
    {
      "midi": 50,
      "hit": false,
      "t": 136999.99999999994,
      "d": 361.97916666668607,
      "v": 31
    },
    {
      "midi": 57,
      "hit": false,
      "t": 137005.20833333328,
      "d": 395.83333333334303,
      "v": 24
    },
    {
      "midi": 45,
      "hit": false,
      "t": 138046.87499999997,
      "d": 468.7500000000291,
      "v": 28
    },
    {
      "midi": 33,
      "hit": false,
      "t": 138052.0833333333,
      "d": 523.4375000000291,
      "v": 29
    },
    {
      "midi": 49,
      "hit": false,
      "t": 138052.0833333333,
      "d": 690.1041666666861,
      "v": 28
    },
    {
      "midi": 52,
      "hit": false,
      "t": 138057.29166666666,
      "d": 664.0625000000291,
      "v": 36
    },
    {
      "midi": 57,
      "hit": false,
      "t": 138065.10416666666,
      "d": 666.6666666666861,
      "v": 24
    },
    {
      "midi": 45,
      "hit": false,
      "t": 139721.35416666666,
      "d": 515.625,
      "v": 27
    },
    {
      "midi": 57,
      "hit": false,
      "t": 139721.35416666666,
      "d": 533.854166666657,
      "v": 25
    },
    {
      "midi": 49,
      "hit": false,
      "t": 139726.5625,
      "d": 531.2499999999709,
      "v": 26
    },
    {
      "midi": 33,
      "hit": false,
      "t": 139726.5625,
      "d": 570.3124999999709,
      "v": 31
    },
    {
      "midi": 52,
      "hit": false,
      "t": 139736.97916666666,
      "d": 544.2708333333139,
      "v": 28
    },
    {
      "midi": 49,
      "hit": false,
      "t": 141325.52083333328,
      "d": 505.20833333331393,
      "v": 23
    },
    {
      "midi": 52,
      "hit": false,
      "t": 141328.12499999994,
      "d": 562.5,
      "v": 23
    },
    {
      "midi": 57,
      "hit": false,
      "t": 141330.7291666666,
      "d": 651.0416666666861,
      "v": 18
    },
    {
      "midi": 45,
      "hit": false,
      "t": 141335.93749999994,
      "d": 369.79166666665697,
      "v": 24
    },
    {
      "midi": 33,
      "hit": false,
      "t": 141346.3541666666,
      "d": 289.0625,
      "v": 36
    },
    {
      "midi": 57,
      "hit": false,
      "t": 143796.87499999994,
      "d": 1630.208333333314,
      "v": 17
    },
    {
      "midi": 49,
      "hit": false,
      "t": 143802.08333333328,
      "d": 789.0624999999709,
      "v": 16
    },
    {
      "midi": 45,
      "hit": false,
      "t": 143804.68749999994,
      "d": 460.9374999999709,
      "v": 16
    },
    {
      "midi": 52,
      "hit": false,
      "t": 143804.68749999994,
      "d": 1539.062499999971,
      "v": 18
    },
    {
      "midi": 33,
      "hit": false,
      "t": 143815.1041666666,
      "d": 135.41666666665697,
      "v": 25
    }
  ]
}