{
  "jsonPath": "Classical/Historic Piano Performance/Dinu Lipatti/14-valseswaltzes-2005-digital-remaster-no12-in-f-minor-op70-no2.json",
  "path": "Classical\\Historic Piano Performance\\Dinu Lipatti\\14 ValsesWaltzes (2005 Digital Remaster) No12 in F minor Op70 No2.mid",
  "name": "14 ValsesWaltzes (2005 Digital Remaster) No12 in F minor Op70 No2",
  "difficulty": "Advanced",
  "bpm": 120,
  "notes": [
    {
      "midi": 72,
      "hit": false,
      "t": 2177.083333333333,
      "d": 1359.375,
      "v": 73
    },
    {
      "midi": 53,
      "hit": false,
      "t": 2924.4791666666665,
      "d": 1507.8125000000005,
      "v": 56
    },
    {
      "midi": 73,
      "hit": false,
      "t": 3479.1666666666665,
      "d": 393.2291666666665,
      "v": 73
    },
    {
      "midi": 60,
      "hit": false,
      "t": 3505.208333333333,
      "d": 213.54166666666652,
      "v": 34
    },
    {
      "midi": 56,
      "hit": false,
      "t": 3507.8124999999995,
      "d": 231.77083333333348,
      "v": 32
    },
    {
      "midi": 72,
      "hit": false,
      "t": 3755.208333333333,
      "d": 263.0208333333335,
      "v": 87
    },
    {
      "midi": 70,
      "hit": false,
      "t": 3947.9166666666665,
      "d": 276.0416666666665,
      "v": 89
    },
    {
      "midi": 60,
      "hit": false,
      "t": 3968.75,
      "d": 351.5625,
      "v": 43
    },
    {
      "midi": 56,
      "hit": false,
      "t": 3968.75,
      "d": 393.22916666666697,
      "v": 38
    },
    {
      "midi": 68,
      "hit": false,
      "t": 4156.25,
      "d": 307.29166666666697,
      "v": 82
    },
    {
      "midi": 67,
      "hit": false,
      "t": 4398.4375,
      "d": 893.2291666666679,
      "v": 85
    },
    {
      "midi": 51,
      "hit": false,
      "t": 4401.041666666667,
      "d": 1471.3541666666688,
      "v": 56
    },
    {
      "midi": 60,
      "hit": false,
      "t": 4968.750000000001,
      "d": 236.97916666666697,
      "v": 42
    },
    {
      "midi": 56,
      "hit": false,
      "t": 4979.166666666668,
      "d": 250,
      "v": 40
    },
    {
      "midi": 65,
      "hit": false,
      "t": 5223.958333333335,
      "d": 156.25,
      "v": 77
    },
    {
      "midi": 65,
      "hit": false,
      "t": 5453.125000000002,
      "d": 429.6875000000009,
      "v": 96
    },
    {
      "midi": 60,
      "hit": false,
      "t": 5460.937500000002,
      "d": 351.5625,
      "v": 46
    },
    {
      "midi": 56,
      "hit": false,
      "t": 5468.750000000002,
      "d": 429.6875000000009,
      "v": 27
    },
    {
      "midi": 77,
      "hit": false,
      "t": 5861.979166666669,
      "d": 520.8333333333339,
      "v": 97
    },
    {
      "midi": 49,
      "hit": false,
      "t": 5861.979166666669,
      "d": 869.7916666666679,
      "v": 56
    },
    {
      "midi": 70,
      "hit": false,
      "t": 6273.437500000003,
      "d": 325.52083333333394,
      "v": 92
    },
    {
      "midi": 61,
      "hit": false,
      "t": 6309.895833333336,
      "d": 611.9791666666679,
      "v": 48
    },
    {
      "midi": 53,
      "hit": false,
      "t": 6325.520833333336,
      "d": 648.4375000000018,
      "v": 45
    },
    {
      "midi": 72,
      "hit": false,
      "t": 6526.04166666667,
      "d": 247.39583333333394,
      "v": 98
    },
    {
      "midi": 46,
      "hit": false,
      "t": 6750.000000000004,
      "d": 257.8125000000009,
      "v": 63
    },
    {
      "midi": 75,
      "hit": false,
      "t": 6757.812500000004,
      "d": 273.4375000000009,
      "v": 79
    },
    {
      "midi": 73,
      "hit": false,
      "t": 6973.958333333338,
      "d": 244.79166666666697,
      "v": 82
    },
    {
      "midi": 41,
      "hit": false,
      "t": 7203.125000000005,
      "d": 367.1875,
      "v": 51
    },
    {
      "midi": 72,
      "hit": false,
      "t": 7234.375000000005,
      "d": 62.5,
      "v": 72
    },
    {
      "midi": 73,
      "hit": false,
      "t": 7343.750000000005,
      "d": 59.89583333333303,
      "v": 59
    },
    {
      "midi": 75,
      "hit": false,
      "t": 7419.270833333338,
      "d": 151.04166666666697,
      "v": 60
    },
    {
      "midi": 73,
      "hit": false,
      "t": 7513.020833333338,
      "d": 888.0208333333358,
      "v": 66
    },
    {
      "midi": 68,
      "hit": false,
      "t": 8010.4166666666715,
      "d": 166.66666666666697,
      "v": 39
    },
    {
      "midi": 60,
      "hit": false,
      "t": 8013.0208333333385,
      "d": 218.7500000000009,
      "v": 41
    },
    {
      "midi": 72,
      "hit": false,
      "t": 8322.916666666673,
      "d": 184.89583333333394,
      "v": 65
    },
    {
      "midi": 72,
      "hit": false,
      "t": 8593.750000000007,
      "d": 541.6666666666679,
      "v": 67
    },
    {
      "midi": 68,
      "hit": false,
      "t": 8598.958333333341,
      "d": 195.3125,
      "v": 39
    },
    {
      "midi": 60,
      "hit": false,
      "t": 8638.020833333341,
      "d": 101.5625,
      "v": 29
    },
    {
      "midi": 71,
      "hit": false,
      "t": 9127.604166666675,
      "d": 255.20833333333394,
      "v": 70
    },
    {
      "midi": 52,
      "hit": false,
      "t": 9130.208333333341,
      "d": 1093.7500000000018,
      "v": 45
    },
    {
      "midi": 72,
      "hit": false,
      "t": 9361.979166666675,
      "d": 174.47916666666788,
      "v": 96
    },
    {
      "midi": 75,
      "hit": false,
      "t": 9523.43750000001,
      "d": 111.97916666666788,
      "v": 75
    },
    {
      "midi": 67,
      "hit": false,
      "t": 9541.666666666677,
      "d": 239.58333333333212,
      "v": 57
    },
    {
      "midi": 73,
      "hit": false,
      "t": 9562.500000000011,
      "d": 229.16666666666424,
      "v": 92
    },
    {
      "midi": 60,
      "hit": false,
      "t": 9565.104166666677,
      "d": 190.10416666666606,
      "v": 49
    },
    {
      "midi": 58,
      "hit": false,
      "t": 9570.312500000011,
      "d": 190.10416666666424,
      "v": 55
    },
    {
      "midi": 72,
      "hit": false,
      "t": 9791.666666666675,
      "d": 239.58333333333394,
      "v": 101
    },
    {
      "midi": 77,
      "hit": false,
      "t": 10015.62500000001,
      "d": 283.8541666666679,
      "v": 100
    },
    {
      "midi": 67,
      "hit": false,
      "t": 10028.645833333343,
      "d": 276.0416666666679,
      "v": 46
    },
    {
      "midi": 60,
      "hit": false,
      "t": 10036.458333333343,
      "d": 395.83333333333394,
      "v": 46
    },
    {
      "midi": 58,
      "hit": false,
      "t": 10044.270833333343,
      "d": 401.0416666666679,
      "v": 53
    },
    {
      "midi": 79,
      "hit": false,
      "t": 10244.791666666677,
      "d": 242.1875,
      "v": 98
    },
    {
      "midi": 53,
      "hit": false,
      "t": 10453.125000000011,
      "d": 338.54166666666424,
      "v": 58
    },
    {
      "midi": 80,
      "hit": false,
      "t": 10455.729166666677,
      "d": 268.22916666666606,
      "v": 83
    },
    {
      "midi": 68,
      "hit": false,
      "t": 10661.458333333343,
      "d": 257.8125,
      "v": 83
    },
    {
      "midi": 56,
      "hit": false,
      "t": 10867.18750000001,
      "d": 250.00000000000182,
      "v": 38
    },
    {
      "midi": 65,
      "hit": false,
      "t": 10890.62500000001,
      "d": 88.54166666666788,
      "v": 37
    },
    {
      "midi": 76,
      "hit": false,
      "t": 10890.62500000001,
      "d": 255.20833333333576,
      "v": 89
    },
    {
      "midi": 60,
      "hit": false,
      "t": 10927.083333333343,
      "d": 130.20833333333394,
      "v": 41
    },
    {
      "midi": 79,
      "hit": false,
      "t": 11130.208333333345,
      "d": 304.6875,
      "v": 81
    },
    {
      "midi": 44,
      "hit": false,
      "t": 11359.375000000011,
      "d": 260.4166666666679,
      "v": 56
    },
    {
      "midi": 77,
      "hit": false,
      "t": 11367.187500000011,
      "d": 158.85416666666788,
      "v": 80
    },
    {
      "midi": 65,
      "hit": false,
      "t": 11580.729166666679,
      "d": 231.77083333333212,
      "v": 87
    },
    {
      "midi": 46,
      "hit": false,
      "t": 11802.083333333345,
      "d": 242.1875,
      "v": 72
    },
    {
      "midi": 72,
      "hit": false,
      "t": 11815.104166666677,
      "d": 210.9375,
      "v": 93
    },
    {
      "midi": 75,
      "hit": false,
      "t": 12007.812500000011,
      "d": 244.79166666666788,
      "v": 70
    },
    {
      "midi": 61,
      "hit": false,
      "t": 12213.541666666679,
      "d": 65.10416666666606,
      "v": 39
    },
    {
      "midi": 73,
      "hit": false,
      "t": 12229.166666666679,
      "d": 195.3125,
      "v": 70
    },
    {
      "midi": 53,
      "hit": false,
      "t": 12263.020833333345,
      "d": 59.89583333333394,
      "v": 38
    },
    {
      "midi": 55,
      "hit": false,
      "t": 12265.625000000011,
      "d": 62.50000000000182,
      "v": 33
    },
    {
      "midi": 61,
      "hit": false,
      "t": 12429.687500000013,
      "d": 231.77083333333394,
      "v": 55
    },
    {
      "midi": 72,
      "hit": false,
      "t": 12684.895833333347,
      "d": 299.4791666666679,
      "v": 67
    },
    {
      "midi": 34,
      "hit": false,
      "t": 12697.91666666668,
      "d": 348.95833333333394,
      "v": 54
    },
    {
      "midi": 70,
      "hit": false,
      "t": 12950.520833333348,
      "d": 307.29166666666606,
      "v": 69
    },
    {
      "midi": 36,
      "hit": false,
      "t": 13205.72916666668,
      "d": 151.04166666666788,
      "v": 47
    },
    {
      "midi": 67,
      "hit": false,
      "t": 13270.833333333348,
      "d": 312.5,
      "v": 55
    },
    {
      "midi": 72,
      "hit": false,
      "t": 13562.500000000015,
      "d": 312.5000000000018,
      "v": 63
    },
    {
      "midi": 48,
      "hit": false,
      "t": 13630.208333333348,
      "d": 526.0416666666679,
      "v": 41
    },
    {
      "midi": 55,
      "hit": false,
      "t": 13760.416666666682,
      "d": 520.8333333333321,
      "v": 36
    },
    {
      "midi": 71,
      "hit": false,
      "t": 13875.000000000016,
      "d": 291.66666666666606,
      "v": 50
    },
    {
      "midi": 64,
      "hit": false,
      "t": 13916.666666666682,
      "d": 322.91666666666606,
      "v": 45
    },
    {
      "midi": 72,
      "hit": false,
      "t": 14122.39583333335,
      "d": 234.37499999999818,
      "v": 67
    },
    {
      "midi": 73,
      "hit": false,
      "t": 14335.937500000015,
      "d": 247.39583333333394,
      "v": 67
    },
    {
      "midi": 74,
      "hit": false,
      "t": 14562.500000000015,
      "d": 322.91666666666606,
      "v": 66
    },
    {
      "midi": 56,
      "hit": false,
      "t": 14859.375000000015,
      "d": 1520.8333333333321,
      "v": 34
    },
    {
      "midi": 75,
      "hit": false,
      "t": 14869.79166666668,
      "d": 617.1875,
      "v": 48
    },
    {
      "midi": 63,
      "hit": false,
      "t": 15473.958333333347,
      "d": 223.95833333333394,
      "v": 29
    },
    {
      "midi": 77,
      "hit": false,
      "t": 15473.958333333347,
      "d": 263.02083333333394,
      "v": 48
    },
    {
      "midi": 60,
      "hit": false,
      "t": 15489.583333333347,
      "d": 177.08333333333394,
      "v": 27
    },
    {
      "midi": 75,
      "hit": false,
      "t": 15718.750000000015,
      "d": 236.97916666666606,
      "v": 46
    },
    {
      "midi": 73,
      "hit": false,
      "t": 15937.500000000015,
      "d": 190.10416666666606,
      "v": 54
    },
    {
      "midi": 63,
      "hit": false,
      "t": 15953.125000000015,
      "d": 179.6875,
      "v": 34
    },
    {
      "midi": 60,
      "hit": false,
      "t": 15994.79166666668,
      "d": 138.02083333333394,
      "v": 22
    },
    {
      "midi": 72,
      "hit": false,
      "t": 16148.437500000015,
      "d": 252.60416666666788,
      "v": 66
    },
    {
      "midi": 70,
      "hit": false,
      "t": 16390.625000000015,
      "d": 789.0625000000036,
      "v": 72
    },
    {
      "midi": 55,
      "hit": false,
      "t": 16411.45833333335,
      "d": 1257.8125,
      "v": 44
    },
    {
      "midi": 63,
      "hit": false,
      "t": 16934.89583333335,
      "d": 190.10416666666788,
      "v": 32
    },
    {
      "midi": 60,
      "hit": false,
      "t": 16947.916666666682,
      "d": 158.85416666666788,
      "v": 22
    },
    {
      "midi": 68,
      "hit": false,
      "t": 17208.33333333335,
      "d": 158.85416666666788,
      "v": 43
    },
    {
      "midi": 68,
      "hit": false,
      "t": 17447.916666666686,
      "d": 458.3333333333321,
      "v": 62
    },
    {
      "midi": 63,
      "hit": false,
      "t": 17484.37500000002,
      "d": 231.77083333333212,
      "v": 32
    },
    {
      "midi": 60,
      "hit": false,
      "t": 17507.81250000002,
      "d": 265.625,
      "v": 24
    },
    {
      "midi": 80,
      "hit": false,
      "t": 17867.18750000002,
      "d": 549.4791666666679,
      "v": 83
    },
    {
      "midi": 53,
      "hit": false,
      "t": 17890.62500000002,
      "d": 812.5,
      "v": 50
    },
    {
      "midi": 72,
      "hit": false,
      "t": 18281.25000000002,
      "d": 312.5,
      "v": 87
    },
    {
      "midi": 63,
      "hit": false,
      "t": 18302.08333333335,
      "d": 195.31250000000364,
      "v": 42
    },
    {
      "midi": 56,
      "hit": false,
      "t": 18304.68750000002,
      "d": 179.68750000000364,
      "v": 37
    },
    {
      "midi": 60,
      "hit": false,
      "t": 18315.104166666686,
      "d": 166.66666666666788,
      "v": 38
    },
    {
      "midi": 75,
      "hit": false,
      "t": 18502.604166666686,
      "d": 216.14583333333212,
      "v": 84
    },
    {
      "midi": 63,
      "hit": false,
      "t": 18708.33333333335,
      "d": 93.75,
      "v": 49
    },
    {
      "midi": 56,
      "hit": false,
      "t": 18708.33333333335,
      "d": 177.08333333333576,
      "v": 48
    },
    {
      "midi": 79,
      "hit": false,
      "t": 18708.33333333335,
      "d": 257.81250000000364,
      "v": 90
    },
    {
      "midi": 60,
      "hit": false,
      "t": 18773.43750000002,
      "d": 70.3125,
      "v": 27
    },
    {
      "midi": 77,
      "hit": false,
      "t": 18919.270833333354,
      "d": 247.39583333333576,
      "v": 94
    },
    {
      "midi": 46,
      "hit": false,
      "t": 19104.166666666686,
      "d": 234.37500000000364,
      "v": 61
    },
    {
      "midi": 75,
      "hit": false,
      "t": 19156.250000000022,
      "d": 750,
      "v": 81
    },
    {
      "midi": 65,
      "hit": false,
      "t": 19554.687500000022,
      "d": 283.8541666666679,
      "v": 69
    },
    {
      "midi": 56,
      "hit": false,
      "t": 19562.500000000022,
      "d": 281.25,
      "v": 42
    },
    {
      "midi": 58,
      "hit": false,
      "t": 19570.312500000022,
      "d": 268.2291666666679,
      "v": 68
    },
    {
      "midi": 74,
      "hit": false,
      "t": 19835.937500000022,
      "d": 125,
      "v": 87
    },
    {
      "midi": 74,
      "hit": false,
      "t": 20049.47916666669,
      "d": 554.6874999999927,
      "v": 81
    },
    {
      "midi": 65,
      "hit": false,
      "t": 20057.29166666669,
      "d": 88.54166666666424,
      "v": 69
    },
    {
      "midi": 56,
      "hit": false,
      "t": 20070.312500000022,
      "d": 166.66666666666424,
      "v": 33
    },
    {
      "midi": 58,
      "hit": false,
      "t": 20085.937500000022,
      "d": 158.85416666666424,
      "v": 45
    },
    {
      "midi": 84,
      "hit": false,
      "t": 20583.33333333335,
      "d": 833.3333333333358,
      "v": 80
    },
    {
      "midi": 46,
      "hit": false,
      "t": 20598.95833333335,
      "d": 231.77083333333212,
      "v": 47
    },
    {
      "midi": 58,
      "hit": false,
      "t": 21054.68750000002,
      "d": 122.39583333333576,
      "v": 49
    },
    {
      "midi": 62,
      "hit": false,
      "t": 21072.916666666686,
      "d": 93.75,
      "v": 33
    },
    {
      "midi": 56,
      "hit": false,
      "t": 21080.729166666686,
      "d": 117.1875,
      "v": 21
    },
    {
      "midi": 82,
      "hit": false,
      "t": 21255.208333333354,
      "d": 291.66666666666424,
      "v": 83
    },
    {
      "midi": 81,
      "hit": false,
      "t": 21492.18750000002,
      "d": 208.33333333333212,
      "v": 82
    },
    {
      "midi": 62,
      "hit": false,
      "t": 21497.39583333335,
      "d": 62.5,
      "v": 44
    },
    {
      "midi": 56,
      "hit": false,
      "t": 21497.39583333335,
      "d": 67.70833333333212,
      "v": 39
    },
    {
      "midi": 58,
      "hit": false,
      "t": 21528.64583333335,
      "d": 70.3125,
      "v": 39
    },
    {
      "midi": 80,
      "hit": false,
      "t": 21684.89583333335,
      "d": 111.97916666666788,
      "v": 86
    },
    {
      "midi": 80,
      "hit": false,
      "t": 21882.81250000002,
      "d": 278.6458333333321,
      "v": 78
    },
    {
      "midi": 46,
      "hit": false,
      "t": 21895.83333333335,
      "d": 83.33333333333212,
      "v": 63
    },
    {
      "midi": 79,
      "hit": false,
      "t": 22098.95833333335,
      "d": 197.91666666666788,
      "v": 83
    },
    {
      "midi": 63,
      "hit": false,
      "t": 22270.83333333335,
      "d": 72.91666666666788,
      "v": 44
    },
    {
      "midi": 58,
      "hit": false,
      "t": 22281.25000000002,
      "d": 83.33333333333212,
      "v": 44
    },
    {
      "midi": 77,
      "hit": false,
      "t": 22286.45833333335,
      "d": 234.375,
      "v": 87
    },
    {
      "midi": 55,
      "hit": false,
      "t": 22328.12500000002,
      "d": 75.52083333333212,
      "v": 24
    },
    {
      "midi": 75,
      "hit": false,
      "t": 22473.95833333335,
      "d": 236.97916666666788,
      "v": 83
    },
    {
      "midi": 74,
      "hit": false,
      "t": 22677.08333333335,
      "d": 130.20833333333576,
      "v": 88
    },
    {
      "midi": 63,
      "hit": false,
      "t": 22679.68750000002,
      "d": 62.5,
      "v": 58
    },
    {
      "midi": 58,
      "hit": false,
      "t": 22703.12500000002,
      "d": 70.3125,
      "v": 55
    },
    {
      "midi": 55,
      "hit": false,
      "t": 22718.75000000002,
      "d": 57.29166666666788,
      "v": 42
    },
    {
      "midi": 72,
      "hit": false,
      "t": 22869.791666666686,
      "d": 104.16666666666788,
      "v": 79
    },
    {
      "midi": 72,
      "hit": false,
      "t": 23054.68750000002,
      "d": 236.97916666666788,
      "v": 78
    },
    {
      "midi": 46,
      "hit": false,
      "t": 23072.916666666686,
      "d": 145.83333333333212,
      "v": 68
    },
    {
      "midi": 70,
      "hit": false,
      "t": 23252.604166666686,
      "d": 197.91666666666424,
      "v": 85
    },
    {
      "midi": 56,
      "hit": false,
      "t": 23432.291666666686,
      "d": 148.4375,
      "v": 56
    },
    {
      "midi": 65,
      "hit": false,
      "t": 23437.50000000002,
      "d": 85.9375,
      "v": 64
    },
    {
      "midi": 69,
      "hit": false,
      "t": 23442.70833333335,
      "d": 208.33333333333576,
      "v": 75
    },
    {
      "midi": 58,
      "hit": false,
      "t": 23458.33333333335,
      "d": 65.10416666666788,
      "v": 56
    },
    {
      "midi": 70,
      "hit": false,
      "t": 23630.208333333354,
      "d": 161.45833333333212,
      "v": 79
    },
    {
      "midi": 74,
      "hit": false,
      "t": 23786.458333333354,
      "d": 57.29166666666424,
      "v": 75
    },
    {
      "midi": 72,
      "hit": false,
      "t": 23820.31250000002,
      "d": 200.52083333333212,
      "v": 88
    },
    {
      "midi": 58,
      "hit": false,
      "t": 23828.12500000002,
      "d": 145.83333333333212,
      "v": 54
    },
    {
      "midi": 65,
      "hit": false,
      "t": 23835.93750000002,
      "d": 75.52083333333212,
      "v": 49
    },
    {
      "midi": 56,
      "hit": false,
      "t": 23843.75000000002,
      "d": 130.20833333333212,
      "v": 44
    },
    {
      "midi": 70,
      "hit": false,
      "t": 23992.18750000002,
      "d": 226.5625,
      "v": 92
    },
    {
      "midi": 46,
      "hit": false,
      "t": 24174.479166666686,
      "d": 96.35416666666424,
      "v": 76
    },
    {
      "midi": 72,
      "hit": false,
      "t": 24187.50000000002,
      "d": 229.16666666666788,
      "v": 81
    },
    {
      "midi": 70,
      "hit": false,
      "t": 24382.81250000002,
      "d": 203.12500000000364,
      "v": 83
    },
    {
      "midi": 63,
      "hit": false,
      "t": 24575.520833333354,
      "d": 96.35416666666788,
      "v": 48
    },
    {
      "midi": 58,
      "hit": false,
      "t": 24583.333333333354,
      "d": 156.25,
      "v": 42
    },
    {
      "midi": 69,
      "hit": false,
      "t": 24583.333333333354,
      "d": 195.3125,
      "v": 61
    },
    {
      "midi": 55,
      "hit": false,
      "t": 24617.187500000022,
      "d": 75.52083333333212,
      "v": 34
    },
    {
      "midi": 70,
      "hit": false,
      "t": 24786.458333333354,
      "d": 192.70833333333212,
      "v": 67
    },
    {
      "midi": 74,
      "hit": false,
      "t": 24984.37500000002,
      "d": 65.10416666666788,
      "v": 57
    },
    {
      "midi": 63,
      "hit": false,
      "t": 25023.43750000002,
      "d": 130.20833333333212,
      "v": 30
    },
    {
      "midi": 58,
      "hit": false,
      "t": 25031.25000000002,
      "d": 130.20833333333212,
      "v": 32
    },
    {
      "midi": 72,
      "hit": false,
      "t": 25049.479166666686,
      "d": 268.22916666666424,
      "v": 64
    },
    {
      "midi": 55,
      "hit": false,
      "t": 25072.916666666686,
      "d": 75.52083333333212,
      "v": 29
    },
    {
      "midi": 70,
      "hit": false,
      "t": 25286.45833333335,
      "d": 130.20833333333212,
      "v": 69
    },
    {
      "midi": 46,
      "hit": false,
      "t": 25494.791666666682,
      "d": 171.875,
      "v": 37
    },
    {
      "midi": 70,
      "hit": false,
      "t": 25552.08333333335,
      "d": 125,
      "v": 50
    },
    {
      "midi": 84,
      "hit": false,
      "t": 25838.541666666682,
      "d": 557.2916666666679,
      "v": 61
    },
    {
      "midi": 62,
      "hit": false,
      "t": 26093.750000000015,
      "d": 153.64583333333576,
      "v": 39
    },
    {
      "midi": 58,
      "hit": false,
      "t": 26104.166666666682,
      "d": 125,
      "v": 34
    },
    {
      "midi": 56,
      "hit": false,
      "t": 26106.77083333335,
      "d": 130.20833333333212,
      "v": 28
    },
    {
      "midi": 82,
      "hit": false,
      "t": 26359.37500000002,
      "d": 276.04166666666424,
      "v": 74
    },
    {
      "midi": 65,
      "hit": false,
      "t": 26598.95833333335,
      "d": 138.02083333333212,
      "v": 43
    },
    {
      "midi": 56,
      "hit": false,
      "t": 26606.77083333335,
      "d": 164.0625,
      "v": 35
    },
    {
      "midi": 81,
      "hit": false,
      "t": 26609.37500000002,
      "d": 231.77083333333212,
      "v": 71
    },
    {
      "midi": 58,
      "hit": false,
      "t": 26614.58333333335,
      "d": 177.08333333333212,
      "v": 39
    },
    {
      "midi": 80,
      "hit": false,
      "t": 26822.916666666682,
      "d": 296.875,
      "v": 76
    },
    {
      "midi": 51,
      "hit": false,
      "t": 27020.83333333335,
      "d": 286.4583333333321,
      "v": 41
    },
    {
      "midi": 78,
      "hit": false,
      "t": 27041.666666666682,
      "d": 226.5625,
      "v": 70
    },
    {
      "midi": 79,
      "hit": false,
      "t": 27260.416666666682,
      "d": 127.60416666666788,
      "v": 83
    },
    {
      "midi": 58,
      "hit": false,
      "t": 27450.52083333335,
      "d": 117.1875,
      "v": 64
    },
    {
      "midi": 67,
      "hit": false,
      "t": 27455.729166666682,
      "d": 54.6875,
      "v": 55
    },
    {
      "midi": 74,
      "hit": false,
      "t": 27473.95833333335,
      "d": 132.8125,
      "v": 75
    },
    {
      "midi": 75,
      "hit": false,
      "t": 27669.27083333335,
      "d": 46.875,
      "v": 77
    },
    {
      "midi": 63,
      "hit": false,
      "t": 27906.25000000002,
      "d": 325.52083333333576,
      "v": 65
    },
    {
      "midi": 60,
      "hit": false,
      "t": 27921.87500000002,
      "d": 208.33333333333576,
      "v": 35
    },
    {
      "midi": 57,
      "hit": false,
      "t": 27947.916666666686,
      "d": 177.08333333333576,
      "v": 36
    },
    {
      "midi": 66,
      "hit": false,
      "t": 27958.333333333354,
      "d": 177.08333333333212,
      "v": 42
    },
    {
      "midi": 72,
      "hit": false,
      "t": 28190.104166666686,
      "d": 200.52083333333576,
      "v": 63
    },
    {
      "midi": 70,
      "hit": false,
      "t": 28432.29166666669,
      "d": 442.7083333333321,
      "v": 64
    },
    {
      "midi": 46,
      "hit": false,
      "t": 28453.125000000022,
      "d": 627.6041666666679,
      "v": 43
    },
    {
      "midi": 58,
      "hit": false,
      "t": 28661.458333333358,
      "d": 130.20833333333212,
      "v": 60
    },
    {
      "midi": 58,
      "hit": false,
      "t": 28875.000000000022,
      "d": 335.9375,
      "v": 57
    },
    {
      "midi": 63,
      "hit": false,
      "t": 28893.22916666669,
      "d": 93.75,
      "v": 43
    },
    {
      "midi": 67,
      "hit": false,
      "t": 28903.645833333358,
      "d": 239.58333333332848,
      "v": 53
    },
    {
      "midi": 70,
      "hit": false,
      "t": 29130.208333333354,
      "d": 265.625,
      "v": 65
    },
    {
      "midi": 63,
      "hit": false,
      "t": 29161.458333333354,
      "d": 294.2708333333321,
      "v": 2
    },
    {
      "midi": 56,
      "hit": false,
      "t": 29419.270833333354,
      "d": 567.7083333333358,
      "v": 41
    },
    {
      "midi": 62,
      "hit": false,
      "t": 29432.291666666686,
      "d": 609.3750000000036,
      "v": 37
    },
    {
      "midi": 65,
      "hit": false,
      "t": 29447.916666666686,
      "d": 286.45833333333576,
      "v": 50
    },
    {
      "midi": 46,
      "hit": false,
      "t": 29458.333333333354,
      "d": 757.8125,
      "v": 41
    },
    {
      "midi": 70,
      "hit": false,
      "t": 29708.333333333354,
      "d": 510.4166666666679,
      "v": 57
    },
    {
      "midi": 63,
      "hit": false,
      "t": 30057.29166666669,
      "d": 1492.1874999999964,
      "v": 46
    },
    {
      "midi": 51,
      "hit": false,
      "t": 30109.375000000022,
      "d": 1263.0208333333321,
      "v": 24
    },
    {
      "midi": 58,
      "hit": false,
      "t": 30757.812500000022,
      "d": 622.3958333333321,
      "v": 31
    },
    {
      "midi": 55,
      "hit": false,
      "t": 30781.250000000022,
      "d": 554.6875,
      "v": 28
    },
    {
      "midi": 73,
      "hit": false,
      "t": 31375.000000000022,
      "d": 583.3333333333321,
      "v": 47
    },
    {
      "midi": 48,
      "hit": false,
      "t": 31684.895833333354,
      "d": 2481.770833333332,
      "v": 25
    },
    {
      "midi": 55,
      "hit": false,
      "t": 31901.041666666686,
      "d": 1960.9375,
      "v": 25
    },
    {
      "midi": 72,
      "hit": false,
      "t": 32005.208333333354,
      "d": 127.60416666666424,
      "v": 53
    },
    {
      "midi": 58,
      "hit": false,
      "t": 32104.166666666686,
      "d": 1893.2291666666642,
      "v": 42
    },
    {
      "midi": 73,
      "hit": false,
      "t": 32166.666666666686,
      "d": 153.64583333333212,
      "v": 48
    },
    {
      "midi": 75,
      "hit": false,
      "t": 32312.50000000002,
      "d": 294.2708333333321,
      "v": 55
    },
    {
      "midi": 64,
      "hit": false,
      "t": 32453.12500000002,
      "d": 1497.3958333333321,
      "v": 40
    },
    {
      "midi": 73,
      "hit": false,
      "t": 32578.12500000002,
      "d": 630.2083333333321,
      "v": 54
    },
    {
      "midi": 72,
      "hit": false,
      "t": 33197.916666666686,
      "d": 416.66666666666424,
      "v": 51
    },
    {
      "midi": 53,
      "hit": false,
      "t": 33960.937500000015,
      "d": 1763.0208333333503,
      "v": 24
    },
    {
      "midi": 72,
      "hit": false,
      "t": 33968.750000000015,
      "d": 742.1875000000073,
      "v": 44
    },
    {
      "midi": 73,
      "hit": false,
      "t": 34729.166666666686,
      "d": 335.9375000000073,
      "v": 34
    },
    {
      "midi": 60,
      "hit": false,
      "t": 34755.20833333335,
      "d": 192.70833333333576,
      "v": 27
    },
    {
      "midi": 56,
      "hit": false,
      "t": 34768.229166666686,
      "d": 192.70833333333576,
      "v": 22
    },
    {
      "midi": 72,
      "hit": false,
      "t": 35036.45833333336,
      "d": 205.72916666667152,
      "v": 55
    },
    {
      "midi": 70,
      "hit": false,
      "t": 35281.25000000003,
      "d": 187.5,
      "v": 64
    },
    {
      "midi": 56,
      "hit": false,
      "t": 35320.31250000003,
      "d": 169.27083333333576,
      "v": 29
    },
    {
      "midi": 60,
      "hit": false,
      "t": 35328.12500000003,
      "d": 125,
      "v": 28
    },
    {
      "midi": 68,
      "hit": false,
      "t": 35518.2291666667,
      "d": 210.9375,
      "v": 57
    },
    {
      "midi": 51,
      "hit": false,
      "t": 35757.81250000004,
      "d": 1700.5208333333212,
      "v": 47
    },
    {
      "midi": 67,
      "hit": false,
      "t": 35770.83333333337,
      "d": 828.1249999999854,
      "v": 57
    },
    {
      "midi": 56,
      "hit": false,
      "t": 36242.18750000004,
      "d": 325.5208333333212,
      "v": 36
    },
    {
      "midi": 60,
      "hit": false,
      "t": 36260.4166666667,
      "d": 270.8333333333285,
      "v": 35
    },
    {
      "midi": 65,
      "hit": false,
      "t": 36541.66666666669,
      "d": 169.27083333332848,
      "v": 51
    },
    {
      "midi": 65,
      "hit": false,
      "t": 36830.729166666686,
      "d": 658.8541666666715,
      "v": 57
    },
    {
      "midi": 60,
      "hit": false,
      "t": 36861.979166666686,
      "d": 325.52083333333576,
      "v": 25
    },
    {
      "midi": 56,
      "hit": false,
      "t": 36867.18750000002,
      "d": 531.25,
      "v": 26
    },
    {
      "midi": 77,
      "hit": false,
      "t": 37466.14583333336,
      "d": 494.7916666666715,
      "v": 76
    },
    {
      "midi": 49,
      "hit": false,
      "t": 37479.16666666669,
      "d": 820.3125000000073,
      "v": 38
    },
    {
      "midi": 70,
      "hit": false,
      "t": 37901.04166666669,
      "d": 250.00000000000728,
      "v": 82
    },
    {
      "midi": 61,
      "hit": false,
      "t": 37940.10416666669,
      "d": 539.0625000000146,
      "v": 30
    },
    {
      "midi": 53,
      "hit": false,
      "t": 37945.31250000003,
      "d": 598.9583333333503,
      "v": 35
    },
    {
      "midi": 72,
      "hit": false,
      "t": 38145.833333333365,
      "d": 213.54166666667152,
      "v": 83
    },
    {
      "midi": 46,
      "hit": false,
      "t": 38348.958333333365,
      "d": 255.2083333333503,
      "v": 47
    },
    {
      "midi": 75,
      "hit": false,
      "t": 38354.1666666667,
      "d": 260.4166666666788,
      "v": 70
    },
    {
      "midi": 73,
      "hit": false,
      "t": 38580.729166666715,
      "d": 234.375,
      "v": 69
    },
    {
      "midi": 41,
      "hit": false,
      "t": 38817.70833333338,
      "d": 437.4999999999927,
      "v": 41
    },
    {
      "midi": 72,
      "hit": false,
      "t": 38861.979166666715,
      "d": 70.3125,
      "v": 65
    },
    {
      "midi": 73,
      "hit": false,
      "t": 38979.166666666715,
      "d": 62.5,
      "v": 62
    },
    {
      "midi": 75,
      "hit": false,
      "t": 39067.70833333338,
      "d": 127.60416666666424,
      "v": 57
    },
    {
      "midi": 73,
      "hit": false,
      "t": 39179.687500000044,
      "d": 908.8541666666715,
      "v": 63
    },
    {
      "midi": 68,
      "hit": false,
      "t": 39666.66666666671,
      "d": 169.27083333333576,
      "v": 36
    },
    {
      "midi": 60,
      "hit": false,
      "t": 39695.312500000044,
      "d": 85.9375,
      "v": 27
    },
    {
      "midi": 72,
      "hit": false,
      "t": 40005.20833333338,
      "d": 190.10416666667152,
      "v": 57
    },
    {
      "midi": 68,
      "hit": false,
      "t": 40252.604166666715,
      "d": 151.04166666666424,
      "v": 38
    },
    {
      "midi": 72,
      "hit": false,
      "t": 40273.43750000005,
      "d": 473.9583333333212,
      "v": 85
    },
    {
      "midi": 60,
      "hit": false,
      "t": 40291.666666666715,
      "d": 138.02083333332848,
      "v": 30
    },
    {
      "midi": 52,
      "hit": false,
      "t": 40705.72916666671,
      "d": 1075.5208333333212,
      "v": 65
    },
    {
      "midi": 71,
      "hit": false,
      "t": 40765.62500000004,
      "d": 242.1875,
      "v": 61
    },
    {
      "midi": 72,
      "hit": false,
      "t": 40968.75000000004,
      "d": 148.4375,
      "v": 91
    },
    {
      "midi": 75,
      "hit": false,
      "t": 41132.81250000004,
      "d": 72.91666666665697,
      "v": 58
    },
    {
      "midi": 67,
      "hit": false,
      "t": 41156.25000000004,
      "d": 213.54166666665697,
      "v": 55
    },
    {
      "midi": 60,
      "hit": false,
      "t": 41169.270833333365,
      "d": 164.06249999999272,
      "v": 44
    },
    {
      "midi": 73,
      "hit": false,
      "t": 41177.083333333365,
      "d": 226.5625,
      "v": 88
    },
    {
      "midi": 58,
      "hit": false,
      "t": 41179.68750000003,
      "d": 111.97916666666424,
      "v": 43
    },
    {
      "midi": 72,
      "hit": false,
      "t": 41398.43750000003,
      "d": 263.02083333333576,
      "v": 97
    },
    {
      "midi": 77,
      "hit": false,
      "t": 41619.7916666667,
      "d": 265.62499999998545,
      "v": 98
    },
    {
      "midi": 67,
      "hit": false,
      "t": 41625.00000000004,
      "d": 249.99999999998545,
      "v": 49
    },
    {
      "midi": 58,
      "hit": false,
      "t": 41648.43750000004,
      "d": 359.3749999999782,
      "v": 62
    },
    {
      "midi": 60,
      "hit": false,
      "t": 41651.0416666667,
      "d": 283.8541666666497,
      "v": 48
    },
    {
      "midi": 79,
      "hit": false,
      "t": 41833.33333333336,
      "d": 216.1458333333212,
      "v": 94
    },
    {
      "midi": 80,
      "hit": false,
      "t": 42041.66666666668,
      "d": 250,
      "v": 81
    },
    {
      "midi": 53,
      "hit": false,
      "t": 42041.66666666668,
      "d": 393.22916666666424,
      "v": 65
    },
    {
      "midi": 68,
      "hit": false,
      "t": 42242.187500000015,
      "d": 255.20833333332848,
      "v": 73
    },
    {
      "midi": 56,
      "hit": false,
      "t": 42479.16666666668,
      "d": 203.12499999999272,
      "v": 45
    },
    {
      "midi": 76,
      "hit": false,
      "t": 42479.16666666668,
      "d": 221.35416666665697,
      "v": 82
    },
    {
      "midi": 65,
      "hit": false,
      "t": 42486.97916666668,
      "d": 85.93749999999272,
      "v": 39
    },
    {
      "midi": 60,
      "hit": false,
      "t": 42531.25000000001,
      "d": 93.75,
      "v": 32
    },
    {
      "midi": 79,
      "hit": false,
      "t": 42684.895833333336,
      "d": 226.5625,
      "v": 76
    },
    {
      "midi": 77,
      "hit": false,
      "t": 42893.22916666667,
      "d": 54.6875,
      "v": 86
    },
    {
      "midi": 44,
      "hit": false,
      "t": 42895.833333333336,
      "d": 260.4166666666715,
      "v": 65
    },
    {
      "midi": 65,
      "hit": false,
      "t": 43104.16666666667,
      "d": 213.54166666667152,
      "v": 80
    },
    {
      "midi": 46,
      "hit": false,
      "t": 43322.91666666668,
      "d": 231.77083333332848,
      "v": 73
    },
    {
      "midi": 72,
      "hit": false,
      "t": 43338.54166666668,
      "d": 190.10416666666424,
      "v": 78
    },
    {
      "midi": 75,
      "hit": false,
      "t": 43531.25000000001,
      "d": 226.5625,
      "v": 63
    },
    {
      "midi": 61,
      "hit": false,
      "t": 43734.37500000001,
      "d": 62.5,
      "v": 48
    },
    {
      "midi": 73,
      "hit": false,
      "t": 43744.79166666667,
      "d": 156.25,
      "v": 65
    },
    {
      "midi": 53,
      "hit": false,
      "t": 43773.43750000001,
      "d": 96.35416666666424,
      "v": 44
    },
    {
      "midi": 55,
      "hit": false,
      "t": 43799.47916666667,
      "d": 65.10416666666424,
      "v": 37
    },
    {
      "midi": 61,
      "hit": false,
      "t": 43955.72916666667,
      "d": 242.1875,
      "v": 69
    },
    {
      "midi": 72,
      "hit": false,
      "t": 44229.16666666667,
      "d": 276.04166666666424,
      "v": 66
    },
    {
      "midi": 34,
      "hit": false,
      "t": 44236.97916666667,
      "d": 278.64583333333576,
      "v": 61
    },
    {
      "midi": 70,
      "hit": false,
      "t": 44510.41666666667,
      "d": 205.72916666667152,
      "v": 72
    },
    {
      "midi": 36,
      "hit": false,
      "t": 44736.97916666668,
      "d": 151.04166666666424,
      "v": 54
    },
    {
      "midi": 67,
      "hit": false,
      "t": 44807.29166666668,
      "d": 229.16666666666424,
      "v": 57
    },
    {
      "midi": 72,
      "hit": false,
      "t": 45067.70833333334,
      "d": 286.45833333333576,
      "v": 66
    },
    {
      "midi": 48,
      "hit": false,
      "t": 45119.79166666668,
      "d": 479.1666666666715,
      "v": 55
    },
    {
      "midi": 55,
      "hit": false,
      "t": 45229.16666666668,
      "d": 445.3125,
      "v": 39
    },
    {
      "midi": 71,
      "hit": false,
      "t": 45359.375000000015,
      "d": 281.25,
      "v": 55
    },
    {
      "midi": 64,
      "hit": false,
      "t": 45416.66666666668,
      "d": 216.14583333333576,
      "v": 35
    },
    {
      "midi": 72,
      "hit": false,
      "t": 45606.77083333335,
      "d": 236.97916666665697,
      "v": 77
    },
    {
      "midi": 73,
      "hit": false,
      "t": 45809.89583333334,
      "d": 231.77083333332848,
      "v": 70
    },
    {
      "midi": 74,
      "hit": false,
      "t": 46026.04166666667,
      "d": 281.2499999999927,
      "v": 75
    },
    {
      "midi": 56,
      "hit": false,
      "t": 46278.645833333336,
      "d": 1421.875,
      "v": 38
    },
    {
      "midi": 75,
      "hit": false,
      "t": 46286.458333333336,
      "d": 562.4999999999927,
      "v": 58
    },
    {
      "midi": 63,
      "hit": false,
      "t": 46804.6875,
      "d": 236.97916666666424,
      "v": 27
    },
    {
      "midi": 77,
      "hit": false,
      "t": 46807.291666666664,
      "d": 322.9166666666715,
      "v": 55
    },
    {
      "midi": 60,
      "hit": false,
      "t": 46869.791666666664,
      "d": 148.4375,
      "v": 26
    },
    {
      "midi": 75,
      "hit": false,
      "t": 47109.375,
      "d": 231.77083333333576,
      "v": 42
    },
    {
      "midi": 73,
      "hit": false,
      "t": 47335.9375,
      "d": 179.6875,
      "v": 50
    },
    {
      "midi": 63,
      "hit": false,
      "t": 47359.375,
      "d": 101.5625,
      "v": 23
    },
    {
      "midi": 60,
      "hit": false,
      "t": 47416.666666666664,
      "d": 72.91666666667152,
      "v": 5
    },
    {
      "midi": 72,
      "hit": false,
      "t": 47559.895833333336,
      "d": 200.52083333333576,
      "v": 54
    },
    {
      "midi": 70,
      "hit": false,
      "t": 47781.25000000001,
      "d": 833.3333333333285,
      "v": 52
    },
    {
      "midi": 55,
      "hit": false,
      "t": 47796.87500000001,
      "d": 1273.4375,
      "v": 35
    },
    {
      "midi": 63,
      "hit": false,
      "t": 48208.33333333334,
      "d": 242.1875,
      "v": 32
    },
    {
      "midi": 60,
      "hit": false,
      "t": 48229.16666666668,
      "d": 231.77083333332848,
      "v": 34
    },
    {
      "midi": 68,
      "hit": false,
      "t": 48518.22916666667,
      "d": 156.25,
      "v": 45
    },
    {
      "midi": 68,
      "hit": false,
      "t": 48791.66666666667,
      "d": 588.5416666666642,
      "v": 49
    },
    {
      "midi": 63,
      "hit": false,
      "t": 48794.270833333336,
      "d": 320.3125000000073,
      "v": 27
    },
    {
      "midi": 60,
      "hit": false,
      "t": 48848.958333333336,
      "d": 236.97916666667152,
      "v": 29
    },
    {
      "midi": 80,
      "hit": false,
      "t": 49367.18750000001,
      "d": 549.4791666666642,
      "v": 71
    },
    {
      "midi": 53,
      "hit": false,
      "t": 49377.60416666667,
      "d": 674.4791666666642,
      "v": 54
    },
    {
      "midi": 63,
      "hit": false,
      "t": 49786.458333333336,
      "d": 169.27083333333576,
      "v": 41
    },
    {
      "midi": 56,
      "hit": false,
      "t": 49791.66666666667,
      "d": 106.77083333333576,
      "v": 49
    },
    {
      "midi": 72,
      "hit": false,
      "t": 49791.66666666667,
      "d": 263.0208333333285,
      "v": 78
    },
    {
      "midi": 60,
      "hit": false,
      "t": 49804.68750000001,
      "d": 127.60416666666424,
      "v": 31
    },
    {
      "midi": 75,
      "hit": false,
      "t": 50010.41666666667,
      "d": 218.74999999999272,
      "v": 70
    },
    {
      "midi": 63,
      "hit": false,
      "t": 50218.75,
      "d": 125,
      "v": 52
    },
    {
      "midi": 79,
      "hit": false,
      "t": 50229.166666666664,
      "d": 255.20833333333576,
      "v": 87
    },
    {
      "midi": 56,
      "hit": false,
      "t": 50247.39583333333,
      "d": 236.97916666667152,
      "v": 48
    },
    {
      "midi": 60,
      "hit": false,
      "t": 50252.604166666664,
      "d": 83.33333333333576,
      "v": 43
    },
    {
      "midi": 77,
      "hit": false,
      "t": 50432.291666666664,
      "d": 273.4375,
      "v": 93
    },
    {
      "midi": 46,
      "hit": false,
      "t": 50632.8125,
      "d": 231.77083333332848,
      "v": 80
    },
    {
      "midi": 75,
      "hit": false,
      "t": 50666.666666666664,
      "d": 760.4166666666642,
      "v": 83
    },
    {
      "midi": 56,
      "hit": false,
      "t": 51078.12499999999,
      "d": 223.95833333333576,
      "v": 49
    },
    {
      "midi": 58,
      "hit": false,
      "t": 51098.95833333333,
      "d": 98.95833333333576,
      "v": 55
    },
    {
      "midi": 65,
      "hit": false,
      "t": 51143.229166666664,
      "d": 80.72916666666424,
      "v": 57
    },
    {
      "midi": 74,
      "hit": false,
      "t": 51343.74999999999,
      "d": 125,
      "v": 84
    },
    {
      "midi": 65,
      "hit": false,
      "t": 51565.10416666666,
      "d": 114.58333333332848,
      "v": 58
    },
    {
      "midi": 56,
      "hit": false,
      "t": 51567.70833333332,
      "d": 351.5624999999927,
      "v": 47
    },
    {
      "midi": 74,
      "hit": false,
      "t": 51578.124999999985,
      "d": 671.875,
      "v": 73
    },
    {
      "midi": 58,
      "hit": false,
      "t": 51583.33333333332,
      "d": 302.0833333333285,
      "v": 52
    },
    {
      "midi": 46,
      "hit": false,
      "t": 52127.60416666665,
      "d": 278.64583333333576,
      "v": 78
    },
    {
      "midi": 84,
      "hit": false,
      "t": 52156.249999999985,
      "d": 716.1458333333358,
      "v": 94
    },
    {
      "midi": 56,
      "hit": false,
      "t": 52585.937499999985,
      "d": 130.20833333333576,
      "v": 59
    },
    {
      "midi": 58,
      "hit": false,
      "t": 52591.14583333332,
      "d": 96.35416666666424,
      "v": 65
    },
    {
      "midi": 62,
      "hit": false,
      "t": 52593.749999999985,
      "d": 130.20833333333576,
      "v": 54
    },
    {
      "midi": 82,
      "hit": false,
      "t": 52796.874999999985,
      "d": 291.66666666666424,
      "v": 97
    },
    {
      "midi": 62,
      "hit": false,
      "t": 53013.02083333332,
      "d": 75.52083333332848,
      "v": 60
    },
    {
      "midi": 81,
      "hit": false,
      "t": 53020.83333333332,
      "d": 210.93749999999272,
      "v": 95
    },
    {
      "midi": 56,
      "hit": false,
      "t": 53031.249999999985,
      "d": 114.58333333332848,
      "v": 48
    },
    {
      "midi": 58,
      "hit": false,
      "t": 53041.66666666665,
      "d": 72.91666666666424,
      "v": 56
    },
    {
      "midi": 80,
      "hit": false,
      "t": 53218.74999999998,
      "d": 114.58333333333576,
      "v": 93
    },
    {
      "midi": 46,
      "hit": false,
      "t": 53406.24999999998,
      "d": 140.625,
      "v": 76
    },
    {
      "midi": 80,
      "hit": false,
      "t": 53406.24999999998,
      "d": 281.25,
      "v": 89
    },
    {
      "midi": 79,
      "hit": false,
      "t": 53627.60416666664,
      "d": 203.12500000000728,
      "v": 94
    },
    {
      "midi": 58,
      "hit": false,
      "t": 53812.49999999998,
      "d": 104.16666666666424,
      "v": 49
    },
    {
      "midi": 63,
      "hit": false,
      "t": 53817.708333333314,
      "d": 80.72916666666424,
      "v": 43
    },
    {
      "midi": 77,
      "hit": false,
      "t": 53822.91666666665,
      "d": 223.9583333333212,
      "v": 91
    },
    {
      "midi": 55,
      "hit": false,
      "t": 53848.958333333314,
      "d": 70.31249999999272,
      "v": 38
    },
    {
      "midi": 75,
      "hit": false,
      "t": 54007.81249999997,
      "d": 221.35416666666424,
      "v": 84
    },
    {
      "midi": 63,
      "hit": false,
      "t": 54203.12499999997,
      "d": 72.91666666666424,
      "v": 51
    },
    {
      "midi": 74,
      "hit": false,
      "t": 54205.729166666635,
      "d": 143.22916666666424,
      "v": 91
    },
    {
      "midi": 58,
      "hit": false,
      "t": 54229.166666666635,
      "d": 67.70833333333576,
      "v": 58
    },
    {
      "midi": 55,
      "hit": false,
      "t": 54239.5833333333,
      "d": 59.89583333333576,
      "v": 41
    },
    {
      "midi": 72,
      "hit": false,
      "t": 54393.229166666635,
      "d": 98.95833333333576,
      "v": 86
    },
    {
      "midi": 46,
      "hit": false,
      "t": 54567.70833333331,
      "d": 174.47916666666424,
      "v": 73
    },
    {
      "midi": 72,
      "hit": false,
      "t": 54570.31249999997,
      "d": 268.22916666666424,
      "v": 86
    },
    {
      "midi": 70,
      "hit": false,
      "t": 54773.43749999997,
      "d": 195.31249999999272,
      "v": 84
    },
    {
      "midi": 56,
      "hit": false,
      "t": 54934.8958333333,
      "d": 164.0625,
      "v": 47
    },
    {
      "midi": 65,
      "hit": false,
      "t": 54937.49999999996,
      "d": 122.39583333333576,
      "v": 63
    },
    {
      "midi": 58,
      "hit": false,
      "t": 54953.12499999996,
      "d": 127.60416666667152,
      "v": 67
    },
    {
      "midi": 69,
      "hit": false,
      "t": 54958.3333333333,
      "d": 229.16666666667152,
      "v": 76
    },
    {
      "midi": 70,
      "hit": false,
      "t": 55135.416666666635,
      "d": 151.04166666667152,
      "v": 81
    },
    {
      "midi": 74,
      "hit": false,
      "t": 55296.87499999997,
      "d": 57.29166666666424,
      "v": 71
    },
    {
      "midi": 56,
      "hit": false,
      "t": 55341.14583333331,
      "d": 153.64583333332848,
      "v": 52
    },
    {
      "midi": 65,
      "hit": false,
      "t": 55343.74999999997,
      "d": 96.35416666666424,
      "v": 54
    },
    {
      "midi": 72,
      "hit": false,
      "t": 55343.74999999997,
      "d": 213.54166666667152,
      "v": 83
    },
    {
      "midi": 58,
      "hit": false,
      "t": 55369.791666666635,
      "d": 138.02083333333576,
      "v": 53
    },
    {
      "midi": 70,
      "hit": false,
      "t": 55536.45833333331,
      "d": 216.14583333333576,
      "v": 87
    },
    {
      "midi": 46,
      "hit": false,
      "t": 55723.95833333331,
      "d": 177.08333333333576,
      "v": 63
    },
    {
      "midi": 72,
      "hit": false,
      "t": 55744.79166666664,
      "d": 278.64583333333576,
      "v": 73
    },
    {
      "midi": 70,
      "hit": false,
      "t": 55994.79166666664,
      "d": 210.9375,
      "v": 67
    },
    {
      "midi": 63,
      "hit": false,
      "t": 56229.16666666664,
      "d": 145.83333333333576,
      "v": 39
    },
    {
      "midi": 69,
      "hit": false,
      "t": 56229.16666666664,
      "d": 177.08333333333576,
      "v": 55
    },
    {
      "midi": 58,
      "hit": false,
      "t": 56242.18749999998,
      "d": 174.47916666667152,
      "v": 37
    },
    {
      "midi": 55,
      "hit": false,
      "t": 56273.43749999998,
      "d": 138.02083333333576,
      "v": 35
    },
    {
      "midi": 70,
      "hit": false,
      "t": 56434.895833333314,
      "d": 111.97916666666424,
      "v": 68
    },
    {
      "midi": 74,
      "hit": false,
      "t": 56598.958333333314,
      "d": 62.5,
      "v": 49
    },
    {
      "midi": 63,
      "hit": false,
      "t": 56648.43749999998,
      "d": 127.60416666666424,
      "v": 36
    },
    {
      "midi": 72,
      "hit": false,
      "t": 56653.645833333314,
      "d": 210.93749999999272,
      "v": 58
    },
    {
      "midi": 58,
      "hit": false,
      "t": 56656.24999999998,
      "d": 140.625,
      "v": 26
    },
    {
      "midi": 55,
      "hit": false,
      "t": 56671.87499999998,
      "d": 109.375,
      "v": 23
    },
    {
      "midi": 70,
      "hit": false,
      "t": 56867.18749999997,
      "d": 161.45833333333576,
      "v": 66
    },
    {
      "midi": 46,
      "hit": false,
      "t": 57104.16666666664,
      "d": 218.75000000000728,
      "v": 43
    },
    {
      "midi": 70,
      "hit": false,
      "t": 57138.020833333314,
      "d": 218.75000000000728,
      "v": 36
    },
    {
      "midi": 84,
      "hit": false,
      "t": 57528.64583333332,
      "d": 518.2291666666715,
      "v": 46
    },
    {
      "midi": 62,
      "hit": false,
      "t": 57786.45833333332,
      "d": 161.45833333333576,
      "v": 39
    },
    {
      "midi": 58,
      "hit": false,
      "t": 57791.66666666666,
      "d": 151.04166666666424,
      "v": 39
    },
    {
      "midi": 56,
      "hit": false,
      "t": 57802.08333333332,
      "d": 151.04166666667152,
      "v": 35
    },
    {
      "midi": 82,
      "hit": false,
      "t": 58036.45833333333,
      "d": 250,
      "v": 77
    },
    {
      "midi": 81,
      "hit": false,
      "t": 58278.64583333333,
      "d": 213.54166666666424,
      "v": 71
    },
    {
      "midi": 65,
      "hit": false,
      "t": 58286.45833333333,
      "d": 96.35416666666424,
      "v": 39
    },
    {
      "midi": 56,
      "hit": false,
      "t": 58286.45833333333,
      "d": 195.3125,
      "v": 29
    },
    {
      "midi": 58,
      "hit": false,
      "t": 58286.45833333333,
      "d": 213.54166666666424,
      "v": 27
    },
    {
      "midi": 80,
      "hit": false,
      "t": 58489.58333333333,
      "d": 216.14583333332848,
      "v": 73
    },
    {
      "midi": 78,
      "hit": false,
      "t": 58690.10416666666,
      "d": 247.39583333332848,
      "v": 71
    },
    {
      "midi": 51,
      "hit": false,
      "t": 58697.91666666666,
      "d": 218.75,
      "v": 34
    },
    {
      "midi": 79,
      "hit": false,
      "t": 58919.27083333332,
      "d": 132.8125,
      "v": 75
    },
    {
      "midi": 74,
      "hit": false,
      "t": 59156.249999999985,
      "d": 59.89583333333576,
      "v": 64
    },
    {
      "midi": 58,
      "hit": false,
      "t": 59156.249999999985,
      "d": 85.9375,
      "v": 28
    },
    {
      "midi": 67,
      "hit": false,
      "t": 59161.45833333332,
      "d": 57.29166666666424,
      "v": 28
    },
    {
      "midi": 75,
      "hit": false,
      "t": 59403.64583333332,
      "d": 41.66666666666424,
      "v": 67
    },
    {
      "midi": 63,
      "hit": false,
      "t": 59653.64583333332,
      "d": 257.8125,
      "v": 44
    },
    {
      "midi": 60,
      "hit": false,
      "t": 59661.45833333332,
      "d": 171.875,
      "v": 26
    },
    {
      "midi": 66,
      "hit": false,
      "t": 59679.687499999985,
      "d": 195.3125,
      "v": 28
    },
    {
      "midi": 57,
      "hit": false,
      "t": 59684.89583333332,
      "d": 164.0625,
      "v": 21
    },
    {
      "midi": 72,
      "hit": false,
      "t": 59929.687499999985,
      "d": 59.89583333333576,
      "v": 69
    },
    {
      "midi": 70,
      "hit": false,
      "t": 60203.124999999985,
      "d": 286.4583333333285,
      "v": 65
    },
    {
      "midi": 46,
      "hit": false,
      "t": 60223.95833333332,
      "d": 596.354166666657,
      "v": 42
    },
    {
      "midi": 58,
      "hit": false,
      "t": 60437.499999999985,
      "d": 109.37499999999272,
      "v": 69
    },
    {
      "midi": 58,
      "hit": false,
      "t": 60677.083333333314,
      "d": 1244.7916666666642,
      "v": 37
    },
    {
      "midi": 67,
      "hit": false,
      "t": 60695.31249999998,
      "d": 257.8125,
      "v": 58
    },
    {
      "midi": 63,
      "hit": false,
      "t": 60710.93749999998,
      "d": 119.79166666666424,
      "v": 30
    },
    {
      "midi": 70,
      "hit": false,
      "t": 60947.91666666664,
      "d": 213.54166666667152,
      "v": 59
    },
    {
      "midi": 62,
      "hit": false,
      "t": 61234.37499999998,
      "d": 455.72916666666424,
      "v": 37
    },
    {
      "midi": 46,
      "hit": false,
      "t": 61244.79166666665,
      "d": 765.6249999999927,
      "v": 38
    },
    {
      "midi": 56,
      "hit": false,
      "t": 61247.395833333314,
      "d": 627.6041666666642,
      "v": 34
    },
    {
      "midi": 65,
      "hit": false,
      "t": 61252.60416666665,
      "d": 205.72916666666424,
      "v": 41
    },
    {
      "midi": 70,
      "hit": false,
      "t": 61536.458333333314,
      "d": 338.54166666666424,
      "v": 49
    },
    {
      "midi": 63,
      "hit": false,
      "t": 61916.66666666664,
      "d": 1609.3749999999927,
      "v": 36
    },
    {
      "midi": 51,
      "hit": false,
      "t": 61916.66666666664,
      "d": 1627.604166666657,
      "v": 25
    },
    {
      "midi": 58,
      "hit": false,
      "t": 62580.72916666664,
      "d": 802.0833333333285,
      "v": 29
    },
    {
      "midi": 55,
      "hit": false,
      "t": 62638.02083333331,
      "d": 864.5833333333285,
      "v": 22
    },
    {
      "midi": 64,
      "hit": false,
      "t": 63367.18749999997,
      "d": 794.2708333333285,
      "v": 48
    },
    {
      "midi": 65,
      "hit": false,
      "t": 64044.2708333333,
      "d": 1054.6875000000146,
      "v": 59
    },
    {
      "midi": 49,
      "hit": false,
      "t": 64098.9583333333,
      "d": 1153.6458333333503,
      "v": 34
    },
    {
      "midi": 58,
      "hit": false,
      "t": 64526.041666666635,
      "d": 205.72916666667152,
      "v": 43
    },
    {
      "midi": 56,
      "hit": false,
      "t": 64544.2708333333,
      "d": 174.47916666667152,
      "v": 32
    },
    {
      "midi": 67,
      "hit": false,
      "t": 65041.66666666664,
      "d": 289.0625000000073,
      "v": 65
    },
    {
      "midi": 58,
      "hit": false,
      "t": 65078.12499999998,
      "d": 304.6875000000073,
      "v": 42
    },
    {
      "midi": 56,
      "hit": false,
      "t": 65091.145833333314,
      "d": 125,
      "v": 26
    },
    {
      "midi": 68,
      "hit": false,
      "t": 65458.33333333332,
      "d": 57.29166666666424,
      "v": 54
    },
    {
      "midi": 46,
      "hit": false,
      "t": 65468.749999999985,
      "d": 1005.208333333343,
      "v": 56
    },
    {
      "midi": 70,
      "hit": false,
      "t": 65526.04166666665,
      "d": 62.500000000007276,
      "v": 64
    },
    {
      "midi": 68,
      "hit": false,
      "t": 65593.74999999999,
      "d": 432.2916666666715,
      "v": 70
    },
    {
      "midi": 67,
      "hit": false,
      "t": 65994.79166666666,
      "d": 276.04166666668607,
      "v": 70
    },
    {
      "midi": 61,
      "hit": false,
      "t": 65997.39583333333,
      "d": 197.91666666667152,
      "v": 35
    },
    {
      "midi": 53,
      "hit": false,
      "t": 66036.45833333333,
      "d": 96.35416666667152,
      "v": 34
    },
    {
      "midi": 68,
      "hit": false,
      "t": 66229.16666666667,
      "d": 203.125,
      "v": 76
    },
    {
      "midi": 61,
      "hit": false,
      "t": 66453.125,
      "d": 651.0416666666424,
      "v": 43
    },
    {
      "midi": 72,
      "hit": false,
      "t": 66455.72916666667,
      "d": 223.95833333331393,
      "v": 63
    },
    {
      "midi": 51,
      "hit": false,
      "t": 66468.75,
      "d": 203.12499999998545,
      "v": 36
    },
    {
      "midi": 55,
      "hit": false,
      "t": 66497.39583333333,
      "d": 471.35416666665697,
      "v": 33
    },
    {
      "midi": 70,
      "hit": false,
      "t": 66661.45833333333,
      "d": 335.93749999998545,
      "v": 62
    },
    {
      "midi": 51,
      "hit": false,
      "t": 66854.16666666666,
      "d": 1145.833333333314,
      "v": 62
    },
    {
      "midi": 62,
      "hit": false,
      "t": 67239.5833333333,
      "d": 252.60416666667152,
      "v": 56
    },
    {
      "midi": 56,
      "hit": false,
      "t": 67270.8333333333,
      "d": 190.10416666667152,
      "v": 40
    },
    {
      "midi": 60,
      "hit": false,
      "t": 67286.4583333333,
      "d": 119.79166666667152,
      "v": 26
    },
    {
      "midi": 65,
      "hit": false,
      "t": 67466.1458333333,
      "d": 226.5625,
      "v": 59
    },
    {
      "midi": 63,
      "hit": false,
      "t": 67687.49999999997,
      "d": 197.91666666667152,
      "v": 47
    },
    {
      "midi": 60,
      "hit": false,
      "t": 67718.74999999997,
      "d": 104.16666666667152,
      "v": 39
    },
    {
      "midi": 56,
      "hit": false,
      "t": 67723.9583333333,
      "d": 208.33333333334303,
      "v": 33
    },
    {
      "midi": 68,
      "hit": false,
      "t": 67940.10416666664,
      "d": 351.56249999998545,
      "v": 46
    },
    {
      "midi": 60,
      "hit": false,
      "t": 68281.24999999997,
      "d": 838.541666666657,
      "v": 59
    },
    {
      "midi": 39,
      "hit": false,
      "t": 68296.87499999996,
      "d": 244.79166666667152,
      "v": 28
    },
    {
      "midi": 56,
      "hit": false,
      "t": 68770.8333333333,
      "d": 130.20833333332848,
      "v": 35
    },
    {
      "midi": 51,
      "hit": false,
      "t": 68791.66666666663,
      "d": 78.125,
      "v": 29
    },
    {
      "midi": 56,
      "hit": false,
      "t": 69200.5208333333,
      "d": 85.9375,
      "v": 42
    },
    {
      "midi": 51,
      "hit": false,
      "t": 69223.9583333333,
      "d": 78.125,
      "v": 41
    },
    {
      "midi": 55,
      "hit": false,
      "t": 69598.9583333333,
      "d": 148.4375,
      "v": 72
    },
    {
      "midi": 39,
      "hit": false,
      "t": 69606.7708333333,
      "d": 54.6875,
      "v": 57
    },
    {
      "midi": 61,
      "hit": false,
      "t": 69817.7083333333,
      "d": 348.9583333333285,
      "v": 80
    },
    {
      "midi": 63,
      "hit": false,
      "t": 70018.22916666663,
      "d": 36.45833333332848,
      "v": 87
    },
    {
      "midi": 55,
      "hit": false,
      "t": 70028.6458333333,
      "d": 65.10416666665697,
      "v": 39
    },
    {
      "midi": 51,
      "hit": false,
      "t": 70041.66666666663,
      "d": 375,
      "v": 58
    },
    {
      "midi": 67,
      "hit": false,
      "t": 70203.12499999996,
      "d": 223.95833333334303,
      "v": 96
    },
    {
      "midi": 63,
      "hit": false,
      "t": 70390.62499999996,
      "d": 164.06250000001455,
      "v": 56
    },
    {
      "midi": 73,
      "hit": false,
      "t": 70406.24999999996,
      "d": 223.95833333334303,
      "v": 89
    },
    {
      "midi": 58,
      "hit": false,
      "t": 70416.66666666663,
      "d": 289.0625,
      "v": 67
    },
    {
      "midi": 77,
      "hit": false,
      "t": 70617.18749999997,
      "d": 72.91666666665697,
      "v": 95
    },
    {
      "midi": 73,
      "hit": false,
      "t": 70807.29166666663,
      "d": 552.0833333333285,
      "v": 75
    },
    {
      "midi": 51,
      "hit": false,
      "t": 70833.3333333333,
      "d": 213.54166666665697,
      "v": 52
    },
    {
      "midi": 77,
      "hit": false,
      "t": 70882.81249999996,
      "d": 903.6458333333285,
      "v": 98
    },
    {
      "midi": 67,
      "hit": false,
      "t": 71249.99999999996,
      "d": 122.39583333332848,
      "v": 71
    },
    {
      "midi": 58,
      "hit": false,
      "t": 71257.81249999996,
      "d": 83.33333333332848,
      "v": 65
    },
    {
      "midi": 63,
      "hit": false,
      "t": 71263.02083333328,
      "d": 190.10416666667152,
      "v": 42
    },
    {
      "midi": 75,
      "hit": false,
      "t": 71749.99999999996,
      "d": 231.77083333332848,
      "v": 87
    },
    {
      "midi": 67,
      "hit": false,
      "t": 71755.20833333328,
      "d": 46.875,
      "v": 63
    },
    {
      "midi": 73,
      "hit": false,
      "t": 71760.41666666661,
      "d": 88.54166666667152,
      "v": 65
    },
    {
      "midi": 63,
      "hit": false,
      "t": 71778.64583333328,
      "d": 57.29166666667152,
      "v": 44
    },
    {
      "midi": 58,
      "hit": false,
      "t": 71781.24999999996,
      "d": 62.5,
      "v": 49
    },
    {
      "midi": 75,
      "hit": false,
      "t": 72127.60416666663,
      "d": 46.875,
      "v": 79
    },
    {
      "midi": 44,
      "hit": false,
      "t": 72169.2708333333,
      "d": 140.625,
      "v": 44
    },
    {
      "midi": 77,
      "hit": false,
      "t": 72192.7083333333,
      "d": 104.16666666667152,
      "v": 78
    },
    {
      "midi": 72,
      "hit": false,
      "t": 72205.72916666663,
      "d": 273.4375,
      "v": 66
    },
    {
      "midi": 75,
      "hit": false,
      "t": 72236.97916666663,
      "d": 403.6458333333285,
      "v": 80
    },
    {
      "midi": 74,
      "hit": false,
      "t": 72617.18749999996,
      "d": 223.95833333334303,
      "v": 84
    },
    {
      "midi": 71,
      "hit": false,
      "t": 72619.79166666663,
      "d": 250,
      "v": 60
    },
    {
      "midi": 68,
      "hit": false,
      "t": 72627.60416666663,
      "d": 75.52083333334303,
      "v": 45
    },
    {
      "midi": 56,
      "hit": false,
      "t": 72643.22916666663,
      "d": 88.54166666667152,
      "v": 30
    },
    {
      "midi": 63,
      "hit": false,
      "t": 72653.6458333333,
      "d": 65.10416666667152,
      "v": 33
    },
    {
      "midi": 75,
      "hit": false,
      "t": 72825.5208333333,
      "d": 195.31249999998545,
      "v": 74
    },
    {
      "midi": 72,
      "hit": false,
      "t": 72828.12499999997,
      "d": 70.31249999998545,
      "v": 80
    },
    {
      "midi": 68,
      "hit": false,
      "t": 72997.39583333328,
      "d": 62.5,
      "v": 41
    },
    {
      "midi": 56,
      "hit": false,
      "t": 73015.62499999996,
      "d": 96.35416666667152,
      "v": 32
    },
    {
      "midi": 73,
      "hit": false,
      "t": 73028.64583333328,
      "d": 65.10416666667152,
      "v": 72
    },
    {
      "midi": 77,
      "hit": false,
      "t": 73031.24999999996,
      "d": 135.41666666667152,
      "v": 81
    },
    {
      "midi": 63,
      "hit": false,
      "t": 73036.45833333328,
      "d": 57.29166666667152,
      "v": 33
    },
    {
      "midi": 75,
      "hit": false,
      "t": 73203.12499999996,
      "d": 252.60416666668607,
      "v": 82
    },
    {
      "midi": 72,
      "hit": false,
      "t": 73229.16666666663,
      "d": 49.47916666667152,
      "v": 78
    },
    {
      "midi": 80,
      "hit": false,
      "t": 73447.91666666664,
      "d": 721.3541666666424,
      "v": 74
    },
    {
      "midi": 44,
      "hit": false,
      "t": 73468.74999999997,
      "d": 205.72916666665697,
      "v": 32
    },
    {
      "midi": 72,
      "hit": false,
      "t": 73489.5833333333,
      "d": 604.166666666657,
      "v": 17
    },
    {
      "midi": 51,
      "hit": false,
      "t": 74065.10416666663,
      "d": 127.60416666665697,
      "v": 21
    },
    {
      "midi": 60,
      "hit": false,
      "t": 74065.10416666663,
      "d": 140.62499999998545,
      "v": 32
    },
    {
      "midi": 56,
      "hit": false,
      "t": 74072.91666666663,
      "d": 169.27083333331393,
      "v": 22
    },
    {
      "midi": 67,
      "hit": false,
      "t": 74565.10416666661,
      "d": 382.8125,
      "v": 52
    },
    {
      "midi": 51,
      "hit": false,
      "t": 74604.16666666661,
      "d": 213.54166666667152,
      "v": 18
    },
    {
      "midi": 56,
      "hit": false,
      "t": 74619.79166666661,
      "d": 114.58333333334303,
      "v": 15
    },
    {
      "midi": 60,
      "hit": false,
      "t": 74638.02083333328,
      "d": 109.375,
      "v": 12
    },
    {
      "midi": 65,
      "hit": false,
      "t": 75007.81249999994,
      "d": 804.6875000000146,
      "v": 50
    },
    {
      "midi": 49,
      "hit": false,
      "t": 75018.22916666661,
      "d": 510.4166666666715,
      "v": 40
    },
    {
      "midi": 61,
      "hit": false,
      "t": 75388.02083333327,
      "d": 158.85416666668607,
      "v": 43
    },
    {
      "midi": 53,
      "hit": false,
      "t": 75411.45833333327,
      "d": 104.16666666667152,
      "v": 30
    },
    {
      "midi": 58,
      "hit": false,
      "t": 75411.45833333327,
      "d": 106.77083333334303,
      "v": 41
    },
    {
      "midi": 67,
      "hit": false,
      "t": 75817.70833333328,
      "d": 398.43750000001455,
      "v": 73
    },
    {
      "midi": 61,
      "hit": false,
      "t": 75848.95833333328,
      "d": 67.70833333334303,
      "v": 46
    },
    {
      "midi": 53,
      "hit": false,
      "t": 75880.20833333328,
      "d": 93.75000000001455,
      "v": 37
    },
    {
      "midi": 58,
      "hit": false,
      "t": 75882.81249999996,
      "d": 80.72916666667152,
      "v": 43
    },
    {
      "midi": 46,
      "hit": false,
      "t": 76229.16666666663,
      "d": 333.33333333334303,
      "v": 57
    },
    {
      "midi": 68,
      "hit": false,
      "t": 76231.7708333333,
      "d": 49.47916666667152,
      "v": 75
    },
    {
      "midi": 70,
      "hit": false,
      "t": 76281.24999999997,
      "d": 80.72916666665697,
      "v": 76
    },
    {
      "midi": 68,
      "hit": false,
      "t": 76356.7708333333,
      "d": 382.81250000001455,
      "v": 80
    },
    {
      "midi": 67,
      "hit": false,
      "t": 76705.72916666664,
      "d": 257.81250000001455,
      "v": 72
    },
    {
      "midi": 61,
      "hit": false,
      "t": 76708.33333333331,
      "d": 145.83333333334303,
      "v": 51
    },
    {
      "midi": 53,
      "hit": false,
      "t": 76742.18749999999,
      "d": 343.75,
      "v": 39
    },
    {
      "midi": 68,
      "hit": false,
      "t": 76911.45833333333,
      "d": 203.125,
      "v": 73
    },
    {
      "midi": 61,
      "hit": false,
      "t": 77111.97916666666,
      "d": 518.2291666666715,
      "v": 40
    },
    {
      "midi": 51,
      "hit": false,
      "t": 77117.1875,
      "d": 184.89583333332848,
      "v": 48
    },
    {
      "midi": 72,
      "hit": false,
      "t": 77132.8125,
      "d": 216.14583333332848,
      "v": 67
    },
    {
      "midi": 55,
      "hit": false,
      "t": 77171.875,
      "d": 494.79166666665697,
      "v": 32
    },
    {
      "midi": 70,
      "hit": false,
      "t": 77354.16666666666,
      "d": 255.20833333334303,
      "v": 57
    },
    {
      "midi": 51,
      "hit": false,
      "t": 77536.45833333333,
      "d": 1049.479166666657,
      "v": 57
    },
    {
      "midi": 62,
      "hit": false,
      "t": 77901.04166666666,
      "d": 260.41666666665697,
      "v": 54
    },
    {
      "midi": 56,
      "hit": false,
      "t": 77916.66666666666,
      "d": 216.14583333332848,
      "v": 41
    },
    {
      "midi": 60,
      "hit": false,
      "t": 77927.08333333333,
      "d": 171.875,
      "v": 41
    },
    {
      "midi": 65,
      "hit": false,
      "t": 78119.79166666666,
      "d": 218.75,
      "v": 67
    },
    {
      "midi": 63,
      "hit": false,
      "t": 78312.49999999999,
      "d": 119.79166666667152,
      "v": 56
    },
    {
      "midi": 56,
      "hit": false,
      "t": 78335.93749999999,
      "d": 205.72916666667152,
      "v": 39
    },
    {
      "midi": 60,
      "hit": false,
      "t": 78343.74999999999,
      "d": 85.9375,
      "v": 38
    },
    {
      "midi": 68,
      "hit": false,
      "t": 78507.81249999999,
      "d": 604.166666666657,
      "v": 56
    },
    {
      "midi": 44,
      "hit": false,
      "t": 78770.83333333331,
      "d": 976.5624999999854,
      "v": 62
    },
    {
      "midi": 60,
      "hit": false,
      "t": 78776.04166666664,
      "d": 791.666666666657,
      "v": 68
    },
    {
      "midi": 53,
      "hit": false,
      "t": 79197.91666666664,
      "d": 117.1875,
      "v": 38
    },
    {
      "midi": 50,
      "hit": false,
      "t": 79213.54166666664,
      "d": 93.75,
      "v": 34
    },
    {
      "midi": 53,
      "hit": false,
      "t": 79666.66666666663,
      "d": 145.83333333334303,
      "v": 40
    },
    {
      "midi": 50,
      "hit": false,
      "t": 79692.7083333333,
      "d": 223.95833333334303,
      "v": 37
    },
    {
      "midi": 43,
      "hit": false,
      "t": 80026.04166666664,
      "d": 328.12500000001455,
      "v": 68
    },
    {
      "midi": 55,
      "hit": false,
      "t": 80041.66666666664,
      "d": 187.50000000001455,
      "v": 70
    },
    {
      "midi": 60,
      "hit": false,
      "t": 80218.74999999999,
      "d": 143.22916666667152,
      "v": 89
    },
    {
      "midi": 51,
      "hit": false,
      "t": 80372.39583333333,
      "d": 52.08333333332848,
      "v": 69
    },
    {
      "midi": 55,
      "hit": false,
      "t": 80375,
      "d": 80.72916666665697,
      "v": 67
    },
    {
      "midi": 63,
      "hit": false,
      "t": 80395.83333333333,
      "d": 65.10416666665697,
      "v": 91
    },
    {
      "midi": 67,
      "hit": false,
      "t": 80557.29166666666,
      "d": 166.66666666667152,
      "v": 103
    },
    {
      "midi": 51,
      "hit": false,
      "t": 80622.39583333333,
      "d": 304.68750000001455,
      "v": 68
    },
    {
      "midi": 55,
      "hit": false,
      "t": 80669.27083333333,
      "d": 223.95833333334303,
      "v": 58
    },
    {
      "midi": 72,
      "hit": false,
      "t": 80742.1875,
      "d": 106.77083333332848,
      "v": 106
    },
    {
      "midi": 60,
      "hit": false,
      "t": 80742.1875,
      "d": 132.8125,
      "v": 84
    },
    {
      "midi": 75,
      "hit": false,
      "t": 81026.04166666667,
      "d": 127.60416666667152,
      "v": 101
    },
    {
      "midi": 43,
      "hit": false,
      "t": 81166.66666666667,
      "d": 169.27083333334303,
      "v": 59
    },
    {
      "midi": 67,
      "hit": false,
      "t": 81169.27083333334,
      "d": 289.0625,
      "v": 74
    },
    {
      "midi": 75,
      "hit": false,
      "t": 81218.75000000001,
      "d": 833.333333333343,
      "v": 92
    },
    {
      "midi": 67,
      "hit": false,
      "t": 81593.75000000001,
      "d": 122.39583333334303,
      "v": 57
    },
    {
      "midi": 59,
      "hit": false,
      "t": 81611.97916666669,
      "d": 70.3125,
      "v": 44
    },
    {
      "midi": 55,
      "hit": false,
      "t": 81617.18750000001,
      "d": 106.77083333334303,
      "v": 39
    },
    {
      "midi": 74,
      "hit": false,
      "t": 82044.27083333336,
      "d": 1169.270833333314,
      "v": 87
    },
    {
      "midi": 65,
      "hit": false,
      "t": 82049.47916666669,
      "d": 611.979166666657,
      "v": 83
    },
    {
      "midi": 67,
      "hit": false,
      "t": 82065.10416666669,
      "d": 106.77083333332848,
      "v": 70
    },
    {
      "midi": 59,
      "hit": false,
      "t": 82070.31250000001,
      "d": 122.39583333332848,
      "v": 47
    },
    {
      "midi": 55,
      "hit": false,
      "t": 82093.75000000001,
      "d": 140.625,
      "v": 45
    },
    {
      "midi": 48,
      "hit": false,
      "t": 82427.08333333334,
      "d": 179.6875,
      "v": 79
    },
    {
      "midi": 67,
      "hit": false,
      "t": 82804.68750000001,
      "d": 195.31249999998545,
      "v": 68
    },
    {
      "midi": 60,
      "hit": false,
      "t": 82809.89583333334,
      "d": 156.25,
      "v": 62
    },
    {
      "midi": 55,
      "hit": false,
      "t": 82830.72916666667,
      "d": 148.4375,
      "v": 45
    },
    {
      "midi": 63,
      "hit": false,
      "t": 83109.375,
      "d": 57.29166666667152,
      "v": 72
    },
    {
      "midi": 72,
      "hit": false,
      "t": 83140.625,
      "d": 46.875,
      "v": 66
    },
    {
      "midi": 60,
      "hit": false,
      "t": 83294.27083333334,
      "d": 135.41666666667152,
      "v": 52
    },
    {
      "midi": 72,
      "hit": false,
      "t": 83296.87500000001,
      "d": 552.083333333343,
      "v": 61
    },
    {
      "midi": 67,
      "hit": false,
      "t": 83302.08333333334,
      "d": 125,
      "v": 61
    },
    {
      "midi": 63,
      "hit": false,
      "t": 83309.89583333334,
      "d": 588.5416666666861,
      "v": 56
    },
    {
      "midi": 55,
      "hit": false,
      "t": 83328.12500000001,
      "d": 151.04166666667152,
      "v": 43
    },
    {
      "midi": 48,
      "hit": false,
      "t": 83731.77083333336,
      "d": 125,
      "v": 59
    },
    {
      "midi": 67,
      "hit": false,
      "t": 84187.50000000003,
      "d": 140.625,
      "v": 45
    },
    {
      "midi": 55,
      "hit": false,
      "t": 84200.52083333336,
      "d": 98.95833333334303,
      "v": 31
    },
    {
      "midi": 60,
      "hit": false,
      "t": 84208.33333333336,
      "d": 88.54166666667152,
      "v": 35
    },
    {
      "midi": 63,
      "hit": false,
      "t": 84549.4791666667,
      "d": 62.5,
      "v": 49
    },
    {
      "midi": 72,
      "hit": false,
      "t": 84559.89583333337,
      "d": 57.291666666656965,
      "v": 56
    },
    {
      "midi": 72,
      "hit": false,
      "t": 84760.4166666667,
      "d": 1242.1874999999854,
      "v": 41
    },
    {
      "midi": 63,
      "hit": false,
      "t": 84778.64583333337,
      "d": 346.35416666665697,
      "v": 38
    },
    {
      "midi": 67,
      "hit": false,
      "t": 84799.4791666667,
      "d": 158.85416666665697,
      "v": 31
    },
    {
      "midi": 60,
      "hit": false,
      "t": 84822.9166666667,
      "d": 187.49999999998545,
      "v": 11
    },
    {
      "midi": 55,
      "hit": false,
      "t": 84835.93750000003,
      "d": 263.0208333333285,
      "v": 10
    },
    {
      "midi": 49,
      "hit": false,
      "t": 85473.95833333336,
      "d": 1098.958333333343,
      "v": 47
    },
    {
      "midi": 58,
      "hit": false,
      "t": 85968.75000000001,
      "d": 205.72916666667152,
      "v": 49
    },
    {
      "midi": 56,
      "hit": false,
      "t": 85979.16666666669,
      "d": 205.72916666667152,
      "v": 38
    },
    {
      "midi": 65,
      "hit": false,
      "t": 85979.16666666669,
      "d": 450.52083333334303,
      "v": 70
    },
    {
      "midi": 67,
      "hit": false,
      "t": 86372.39583333336,
      "d": 302.08333333334303,
      "v": 79
    },
    {
      "midi": 56,
      "hit": false,
      "t": 86390.62500000003,
      "d": 184.89583333334303,
      "v": 34
    },
    {
      "midi": 58,
      "hit": false,
      "t": 86395.83333333336,
      "d": 307.2916666666715,
      "v": 51
    },
    {
      "midi": 46,
      "hit": false,
      "t": 86768.2291666667,
      "d": 1046.874999999971,
      "v": 60
    },
    {
      "midi": 68,
      "hit": false,
      "t": 86773.43750000003,
      "d": 57.29166666667152,
      "v": 64
    },
    {
      "midi": 70,
      "hit": false,
      "t": 86835.93750000003,
      "d": 62.5,
      "v": 66
    },
    {
      "midi": 68,
      "hit": false,
      "t": 86888.02083333336,
      "d": 455.72916666665697,
      "v": 50
    },
    {
      "midi": 61,
      "hit": false,
      "t": 87315.10416666669,
      "d": 208.33333333332848,
      "v": 35
    },
    {
      "midi": 67,
      "hit": false,
      "t": 87315.10416666669,
      "d": 289.06249999998545,
      "v": 62
    },
    {
      "midi": 53,
      "hit": false,
      "t": 87338.54166666669,
      "d": 179.6875,
      "v": 43
    },
    {
      "midi": 68,
      "hit": false,
      "t": 87552.08333333334,
      "d": 263.0208333333285,
      "v": 71
    },
    {
      "midi": 61,
      "hit": false,
      "t": 87794.27083333334,
      "d": 622.3958333333139,
      "v": 40
    },
    {
      "midi": 51,
      "hit": false,
      "t": 87802.08333333334,
      "d": 255.20833333332848,
      "v": 48
    },
    {
      "midi": 72,
      "hit": false,
      "t": 87809.89583333334,
      "d": 260.41666666665697,
      "v": 66
    },
    {
      "midi": 55,
      "hit": false,
      "t": 87867.1875,
      "d": 466.1458333333285,
      "v": 30
    },
    {
      "midi": 70,
      "hit": false,
      "t": 88057.29166666667,
      "d": 252.60416666665697,
      "v": 59
    },
    {
      "midi": 51,
      "hit": false,
      "t": 88242.1875,
      "d": 1127.6041666666279,
      "v": 58
    },
    {
      "midi": 62,
      "hit": false,
      "t": 88645.83333333333,
      "d": 221.3541666666424,
      "v": 57
    },
    {
      "midi": 60,
      "hit": false,
      "t": 88661.45833333333,
      "d": 135.41666666665697,
      "v": 40
    },
    {
      "midi": 56,
      "hit": false,
      "t": 88666.66666666666,
      "d": 187.49999999998545,
      "v": 35
    },
    {
      "midi": 65,
      "hit": false,
      "t": 88848.95833333331,
      "d": 203.12499999998545,
      "v": 61
    },
    {
      "midi": 63,
      "hit": false,
      "t": 89057.29166666663,
      "d": 210.9375,
      "v": 48
    },
    {
      "midi": 56,
      "hit": false,
      "t": 89085.93749999996,
      "d": 223.95833333334303,
      "v": 33
    },
    {
      "midi": 60,
      "hit": false,
      "t": 89093.74999999996,
      "d": 117.1875,
      "v": 41
    },
    {
      "midi": 68,
      "hit": false,
      "t": 89286.4583333333,
      "d": 375.00000000001455,
      "v": 51
    },
    {
      "midi": 60,
      "hit": false,
      "t": 89609.37499999997,
      "d": 908.8541666666861,
      "v": 52
    },
    {
      "midi": 39,
      "hit": false,
      "t": 89635.41666666664,
      "d": 213.54166666667152,
      "v": 39
    },
    {
      "midi": 56,
      "hit": false,
      "t": 90093.74999999999,
      "d": 174.47916666667152,
      "v": 37
    },
    {
      "midi": 51,
      "hit": false,
      "t": 90104.16666666666,
      "d": 78.125,
      "v": 43
    },
    {
      "midi": 56,
      "hit": false,
      "t": 90523.43749999999,
      "d": 101.5625,
      "v": 43
    },
    {
      "midi": 51,
      "hit": false,
      "t": 90544.27083333331,
      "d": 111.97916666667152,
      "v": 42
    },
    {
      "midi": 55,
      "hit": false,
      "t": 90895.83333333331,
      "d": 166.66666666667152,
      "v": 81
    },
    {
      "midi": 39,
      "hit": false,
      "t": 90916.66666666666,
      "d": 114.58333333332848,
      "v": 61
    },
    {
      "midi": 61,
      "hit": false,
      "t": 91104.16666666666,
      "d": 333.33333333334303,
      "v": 86
    },
    {
      "midi": 63,
      "hit": false,
      "t": 91291.66666666666,
      "d": 46.875,
      "v": 93
    },
    {
      "midi": 55,
      "hit": false,
      "t": 91317.70833333333,
      "d": 62.5,
      "v": 60
    },
    {
      "midi": 51,
      "hit": false,
      "t": 91348.95833333333,
      "d": 302.08333333334303,
      "v": 50
    },
    {
      "midi": 67,
      "hit": false,
      "t": 91463.54166666667,
      "d": 140.625,
      "v": 100
    },
    {
      "midi": 63,
      "hit": false,
      "t": 91630.20833333334,
      "d": 197.91666666665697,
      "v": 62
    },
    {
      "midi": 73,
      "hit": false,
      "t": 91630.20833333334,
      "d": 205.72916666665697,
      "v": 92
    },
    {
      "midi": 55,
      "hit": false,
      "t": 91651.04166666667,
      "d": 184.89583333332848,
      "v": 60
    },
    {
      "midi": 58,
      "hit": false,
      "t": 91666.66666666667,
      "d": 177.08333333332848,
      "v": 69
    },
    {
      "midi": 77,
      "hit": false,
      "t": 91812.5,
      "d": 98.95833333332848,
      "v": 99
    },
    {
      "midi": 73,
      "hit": false,
      "t": 91979.16666666666,
      "d": 721.3541666666715,
      "v": 81
    },
    {
      "midi": 51,
      "hit": false,
      "t": 91984.37499999999,
      "d": 216.14583333332848,
      "v": 62
    },
    {
      "midi": 77,
      "hit": false,
      "t": 92046.87499999999,
      "d": 859.3750000000146,
      "v": 100
    },
    {
      "midi": 67,
      "hit": false,
      "t": 92364.58333333331,
      "d": 138.02083333334303,
      "v": 80
    },
    {
      "midi": 58,
      "hit": false,
      "t": 92374.99999999999,
      "d": 166.66666666667152,
      "v": 67
    },
    {
      "midi": 63,
      "hit": false,
      "t": 92385.41666666666,
      "d": 93.75,
      "v": 48
    },
    {
      "midi": 75,
      "hit": false,
      "t": 92848.95833333333,
      "d": 250.00000000001455,
      "v": 91
    },
    {
      "midi": 73,
      "hit": false,
      "t": 92854.16666666666,
      "d": 250.00000000001455,
      "v": 75
    },
    {
      "midi": 67,
      "hit": false,
      "t": 92861.97916666666,
      "d": 54.68750000001455,
      "v": 68
    },
    {
      "midi": 58,
      "hit": false,
      "t": 92877.60416666666,
      "d": 101.56250000001455,
      "v": 59
    },
    {
      "midi": 63,
      "hit": false,
      "t": 92880.20833333333,
      "d": 65.10416666667152,
      "v": 55
    },
    {
      "midi": 75,
      "hit": false,
      "t": 93239.58333333334,
      "d": 46.875,
      "v": 90
    },
    {
      "midi": 44,
      "hit": false,
      "t": 93263.02083333334,
      "d": 135.41666666665697,
      "v": 54
    },
    {
      "midi": 72,
      "hit": false,
      "t": 93263.02083333334,
      "d": 286.4583333333285,
      "v": 81
    },
    {
      "midi": 77,
      "hit": false,
      "t": 93315.10416666667,
      "d": 153.64583333332848,
      "v": 82
    },
    {
      "midi": 75,
      "hit": false,
      "t": 93354.16666666667,
      "d": 408.85416666665697,
      "v": 95
    },
    {
      "midi": 71,
      "hit": false,
      "t": 93713.54166666667,
      "d": 273.43749999998545,
      "v": 71
    },
    {
      "midi": 68,
      "hit": false,
      "t": 93718.75,
      "d": 72.91666666665697,
      "v": 64
    },
    {
      "midi": 74,
      "hit": false,
      "t": 93718.75,
      "d": 223.95833333332848,
      "v": 91
    },
    {
      "midi": 56,
      "hit": false,
      "t": 93723.95833333333,
      "d": 93.75,
      "v": 55
    },
    {
      "midi": 63,
      "hit": false,
      "t": 93742.1875,
      "d": 67.70833333332848,
      "v": 47
    },
    {
      "midi": 75,
      "hit": false,
      "t": 93919.27083333333,
      "d": 184.89583333334303,
      "v": 84
    },
    {
      "midi": 72,
      "hit": false,
      "t": 93929.6875,
      "d": 114.58333333332848,
      "v": 89
    },
    {
      "midi": 68,
      "hit": false,
      "t": 94093.75,
      "d": 54.68750000001455,
      "v": 62
    },
    {
      "midi": 73,
      "hit": false,
      "t": 94093.75,
      "d": 85.93750000001455,
      "v": 81
    },
    {
      "midi": 77,
      "hit": false,
      "t": 94106.77083333334,
      "d": 164.06250000001455,
      "v": 87
    },
    {
      "midi": 56,
      "hit": false,
      "t": 94117.18750000001,
      "d": 106.77083333334303,
      "v": 42
    },
    {
      "midi": 63,
      "hit": false,
      "t": 94127.60416666669,
      "d": 54.6875,
      "v": 50
    },
    {
      "midi": 75,
      "hit": false,
      "t": 94273.43750000003,
      "d": 263.02083333334303,
      "v": 86
    },
    {
      "midi": 72,
      "hit": false,
      "t": 94296.87500000003,
      "d": 57.29166666667152,
      "v": 83
    },
    {
      "midi": 80,
      "hit": false,
      "t": 94515.62500000004,
      "d": 770.8333333333285,
      "v": 81
    },
    {
      "midi": 44,
      "hit": false,
      "t": 94549.4791666667,
      "d": 190.10416666667152,
      "v": 36
    },
    {
      "midi": 72,
      "hit": false,
      "t": 94562.50000000003,
      "d": 427.08333333334303,
      "v": 37
    },
    {
      "midi": 60,
      "hit": false,
      "t": 95106.77083333337,
      "d": 174.47916666667152,
      "v": 29
    },
    {
      "midi": 51,
      "hit": false,
      "t": 95111.9791666667,
      "d": 117.1875,
      "v": 22
    },
    {
      "midi": 56,
      "hit": false,
      "t": 95111.9791666667,
      "d": 127.60416666667152,
      "v": 23
    },
    {
      "midi": 67,
      "hit": false,
      "t": 95625.00000000004,
      "d": 406.24999999998545,
      "v": 49
    },
    {
      "midi": 51,
      "hit": false,
      "t": 95645.83333333337,
      "d": 140.62499999998545,
      "v": 26
    },
    {
      "midi": 60,
      "hit": false,
      "t": 95666.6666666667,
      "d": 114.58333333332848,
      "v": 18
    },
    {
      "midi": 56,
      "hit": false,
      "t": 95687.50000000003,
      "d": 98.95833333332848,
      "v": 18
    },
    {
      "midi": 65,
      "hit": false,
      "t": 96072.9166666667,
      "d": 820.3125000000146,
      "v": 52
    },
    {
      "midi": 49,
      "hit": false,
      "t": 96091.14583333337,
      "d": 968.7500000000146,
      "v": 38
    },
    {
      "midi": 61,
      "hit": false,
      "t": 96460.93750000004,
      "d": 153.64583333334303,
      "v": 33
    },
    {
      "midi": 58,
      "hit": false,
      "t": 96479.16666666672,
      "d": 151.04166666667152,
      "v": 48
    },
    {
      "midi": 53,
      "hit": false,
      "t": 96484.37500000004,
      "d": 166.66666666667152,
      "v": 30
    },
    {
      "midi": 67,
      "hit": false,
      "t": 96872.39583333339,
      "d": 359.375,
      "v": 71
    },
    {
      "midi": 61,
      "hit": false,
      "t": 96895.83333333339,
      "d": 85.9375,
      "v": 38
    },
    {
      "midi": 53,
      "hit": false,
      "t": 96903.64583333339,
      "d": 174.47916666667152,
      "v": 42
    },
    {
      "midi": 58,
      "hit": false,
      "t": 96963.54166666672,
      "d": 78.125,
      "v": 30
    },
    {
      "midi": 68,
      "hit": false,
      "t": 97247.39583333339,
      "d": 44.27083333332848,
      "v": 75
    },
    {
      "midi": 46,
      "hit": false,
      "t": 97247.39583333339,
      "d": 867.1874999999854,
      "v": 70
    },
    {
      "midi": 70,
      "hit": false,
      "t": 97304.68750000004,
      "d": 135.41666666667152,
      "v": 77
    },
    {
      "midi": 68,
      "hit": false,
      "t": 97354.16666666672,
      "d": 338.54166666665697,
      "v": 77
    },
    {
      "midi": 67,
      "hit": false,
      "t": 97651.04166666672,
      "d": 247.39583333332848,
      "v": 83
    },
    {
      "midi": 61,
      "hit": false,
      "t": 97656.25000000004,
      "d": 171.875,
      "v": 46
    },
    {
      "midi": 53,
      "hit": false,
      "t": 97687.50000000004,
      "d": 140.625,
      "v": 39
    },
    {
      "midi": 68,
      "hit": false,
      "t": 97848.95833333337,
      "d": 234.375,
      "v": 83
    },
    {
      "midi": 61,
      "hit": false,
      "t": 98075.52083333337,
      "d": 677.083333333343,
      "v": 42
    },
    {
      "midi": 72,
      "hit": false,
      "t": 98085.93750000004,
      "d": 276.04166666665697,
      "v": 68
    },
    {
      "midi": 51,
      "hit": false,
      "t": 98111.9791666667,
      "d": 236.97916666667152,
      "v": 41
    },
    {
      "midi": 55,
      "hit": false,
      "t": 98132.81250000004,
      "d": 533.8541666666715,
      "v": 38
    },
    {
      "midi": 70,
      "hit": false,
      "t": 98354.1666666667,
      "d": 557.2916666666715,
      "v": 55
    },
    {
      "midi": 51,
      "hit": false,
      "t": 98570.31250000004,
      "d": 1028.645833333314,
      "v": 62
    },
    {
      "midi": 62,
      "hit": false,
      "t": 98979.1666666667,
      "d": 257.81250000001455,
      "v": 54
    },
    {
      "midi": 56,
      "hit": false,
      "t": 98984.37500000003,
      "d": 171.87500000001455,
      "v": 38
    },
    {
      "midi": 60,
      "hit": false,
      "t": 99002.6041666667,
      "d": 111.97916666667152,
      "v": 39
    },
    {
      "midi": 65,
      "hit": false,
      "t": 99174.47916666672,
      "d": 236.97916666665697,
      "v": 79
    },
    {
      "midi": 63,
      "hit": false,
      "t": 99369.79166666672,
      "d": 205.7291666666424,
      "v": 69
    },
    {
      "midi": 60,
      "hit": false,
      "t": 99390.62500000004,
      "d": 101.56249999998545,
      "v": 56
    },
    {
      "midi": 56,
      "hit": false,
      "t": 99416.6666666667,
      "d": 106.77083333332848,
      "v": 44
    },
    {
      "midi": 68,
      "hit": false,
      "t": 99562.50000000003,
      "d": 338.5416666666715,
      "v": 67
    },
    {
      "midi": 60,
      "hit": false,
      "t": 99843.75000000003,
      "d": 1153.6458333333285,
      "v": 70
    },
    {
      "midi": 39,
      "hit": false,
      "t": 99867.18750000003,
      "d": 236.97916666667152,
      "v": 46
    },
    {
      "midi": 56,
      "hit": false,
      "t": 100369.7916666667,
      "d": 166.66666666667152,
      "v": 38
    },
    {
      "midi": 51,
      "hit": false,
      "t": 100401.0416666667,
      "d": 179.6875,
      "v": 41
    },
    {
      "midi": 56,
      "hit": false,
      "t": 100843.75000000003,
      "d": 93.75,
      "v": 37
    },
    {
      "midi": 51,
      "hit": false,
      "t": 100861.9791666667,
      "d": 135.41666666665697,
      "v": 35
    },
    {
      "midi": 39,
      "hit": false,
      "t": 101372.39583333336,
      "d": 171.875,
      "v": 47
    },
    {
      "midi": 62,
      "hit": false,
      "t": 101833.33333333336,
      "d": 210.9375,
      "v": 43
    },
    {
      "midi": 58,
      "hit": false,
      "t": 101854.16666666669,
      "d": 78.125,
      "v": 49
    },
    {
      "midi": 56,
      "hit": false,
      "t": 101880.20833333336,
      "d": 83.33333333332848,
      "v": 25
    },
    {
      "midi": 63,
      "hit": false,
      "t": 102041.66666666669,
      "d": 151.04166666667152,
      "v": 57
    },
    {
      "midi": 65,
      "hit": false,
      "t": 102218.75000000003,
      "d": 75.52083333332848,
      "v": 66
    },
    {
      "midi": 58,
      "hit": false,
      "t": 102223.95833333336,
      "d": 91.14583333332848,
      "v": 50
    },
    {
      "midi": 56,
      "hit": false,
      "t": 102236.97916666669,
      "d": 111.97916666667152,
      "v": 35
    },
    {
      "midi": 67,
      "hit": false,
      "t": 102398.43750000003,
      "d": 44.27083333332848,
      "v": 72
    },
    {
      "midi": 65,
      "hit": false,
      "t": 102583.33333333336,
      "d": 49.47916666667152,
      "v": 71
    },
    {
      "midi": 51,
      "hit": false,
      "t": 102593.75000000003,
      "d": 786.458333333343,
      "v": 47
    },
    {
      "midi": 67,
      "hit": false,
      "t": 102627.6041666667,
      "d": 104.16666666667152,
      "v": 71
    },
    {
      "midi": 65,
      "hit": false,
      "t": 102705.7291666667,
      "d": 273.4375,
      "v": 65
    },
    {
      "midi": 64,
      "hit": false,
      "t": 102947.9166666667,
      "d": 226.5625,
      "v": 73
    },
    {
      "midi": 58,
      "hit": false,
      "t": 102958.33333333337,
      "d": 177.08333333332848,
      "v": 53
    },
    {
      "midi": 56,
      "hit": false,
      "t": 102966.14583333337,
      "d": 106.77083333332848,
      "v": 46
    },
    {
      "midi": 62,
      "hit": false,
      "t": 102979.1666666667,
      "d": 109.375,
      "v": 41
    },
    {
      "midi": 65,
      "hit": false,
      "t": 103127.6041666667,
      "d": 208.33333333334303,
      "v": 78
    },
    {
      "midi": 67,
      "hit": false,
      "t": 103307.2916666667,
      "d": 195.3125,
      "v": 81
    },
    {
      "midi": 58,
      "hit": false,
      "t": 103325.52083333337,
      "d": 229.16666666665697,
      "v": 47
    },
    {
      "midi": 62,
      "hit": false,
      "t": 103343.75000000004,
      "d": 145.83333333332848,
      "v": 39
    },
    {
      "midi": 56,
      "hit": false,
      "t": 103348.95833333337,
      "d": 109.375,
      "v": 44
    },
    {
      "midi": 68,
      "hit": false,
      "t": 103507.81250000003,
      "d": 65.10416666667152,
      "v": 79
    },
    {
      "midi": 68,
      "hit": false,
      "t": 103700.52083333337,
      "d": 54.6875,
      "v": 64
    },
    {
      "midi": 51,
      "hit": false,
      "t": 103710.93750000004,
      "d": 1177.0833333333285,
      "v": 44
    },
    {
      "midi": 70,
      "hit": false,
      "t": 103755.20833333337,
      "d": 65.10416666667152,
      "v": 90
    },
    {
      "midi": 68,
      "hit": false,
      "t": 103830.72916666672,
      "d": 335.9375,
      "v": 68
    },
    {
      "midi": 70,
      "hit": false,
      "t": 103929.68750000004,
      "d": 65.10416666667152,
      "v": 55
    },
    {
      "midi": 67,
      "hit": false,
      "t": 104153.64583333339,
      "d": 263.0208333333285,
      "v": 65
    },
    {
      "midi": 63,
      "hit": false,
      "t": 104169.27083333339,
      "d": 132.8125,
      "v": 34
    },
    {
      "midi": 61,
      "hit": false,
      "t": 104208.33333333339,
      "d": 153.64583333332848,
      "v": 38
    },
    {
      "midi": 58,
      "hit": false,
      "t": 104208.33333333339,
      "d": 195.3125,
      "v": 45
    },
    {
      "midi": 68,
      "hit": false,
      "t": 104385.41666666672,
      "d": 276.04166666665697,
      "v": 70
    },
    {
      "midi": 70,
      "hit": false,
      "t": 104625.00000000004,
      "d": 286.4583333333285,
      "v": 69
    },
    {
      "midi": 63,
      "hit": false,
      "t": 104661.45833333337,
      "d": 96.35416666665697,
      "v": 23
    },
    {
      "midi": 55,
      "hit": false,
      "t": 104661.45833333337,
      "d": 200.52083333332848,
      "v": 28
    },
    {
      "midi": 61,
      "hit": false,
      "t": 104674.4791666667,
      "d": 156.25,
      "v": 24
    },
    {
      "midi": 72,
      "hit": false,
      "t": 104916.6666666667,
      "d": 325.5208333333285,
      "v": 54
    },
    {
      "midi": 44,
      "hit": false,
      "t": 105268.2291666667,
      "d": 291.6666666666715,
      "v": 30
    },
    {
      "midi": 68,
      "hit": false,
      "t": 105278.64583333337,
      "d": 1437.5,
      "v": 44
    },
    {
      "midi": 51,
      "hit": false,
      "t": 105916.6666666667,
      "d": 713.5416666666715,
      "v": 34
    },
    {
      "midi": 56,
      "hit": false,
      "t": 105932.2916666667,
      "d": 98.95833333332848,
      "v": 15
    },
    {
      "midi": 60,
      "hit": false,
      "t": 105937.50000000003,
      "d": 93.75,
      "v": 28
    },
    {
      "midi": 72,
      "hit": false,
      "t": 106619.7916666667,
      "d": 1411.458333333343,
      "v": 40
    },
    {
      "midi": 52,
      "hit": false,
      "t": 106653.64583333337,
      "d": 726.5625,
      "v": 32
    },
    {
      "midi": 60,
      "hit": false,
      "t": 106684.89583333337,
      "d": 744.7916666666715,
      "v": 10
    },
    {
      "midi": 56,
      "hit": false,
      "t": 106734.37500000004,
      "d": 114.58333333332848,
      "v": 13
    },
    {
      "midi": 56,
      "hit": false,
      "t": 107036.45833333337,
      "d": 432.2916666666715,
      "v": 2
    },
    {
      "midi": 53,
      "hit": false,
      "t": 107442.70833333337,
      "d": 1557.2916666666715,
      "v": 25
    },
    {
      "midi": 73,
      "hit": false,
      "t": 108041.66666666672,
      "d": 364.5833333333285,
      "v": 31
    },
    {
      "midi": 56,
      "hit": false,
      "t": 108078.12500000004,
      "d": 213.54166666667152,
      "v": 20
    },
    {
      "midi": 60,
      "hit": false,
      "t": 108088.54166666672,
      "d": 177.08333333332848,
      "v": 18
    },
    {
      "midi": 72,
      "hit": false,
      "t": 108361.97916666672,
      "d": 210.9375,
      "v": 43
    },
    {
      "midi": 70,
      "hit": false,
      "t": 108598.95833333339,
      "d": 130.20833333332848,
      "v": 56
    },
    {
      "midi": 56,
      "hit": false,
      "t": 108666.66666666672,
      "d": 153.64583333332848,
      "v": 20
    },
    {
      "midi": 60,
      "hit": false,
      "t": 108674.47916666672,
      "d": 122.39583333332848,
      "v": 13
    },
    {
      "midi": 68,
      "hit": false,
      "t": 108820.31250000004,
      "d": 260.4166666666715,
      "v": 52
    },
    {
      "midi": 51,
      "hit": false,
      "t": 109098.95833333339,
      "d": 1736.9791666666424,
      "v": 39
    },
    {
      "midi": 67,
      "hit": false,
      "t": 109114.58333333339,
      "d": 906.2499999999854,
      "v": 48
    },
    {
      "midi": 56,
      "hit": false,
      "t": 109700.52083333339,
      "d": 236.97916666665697,
      "v": 28
    },
    {
      "midi": 60,
      "hit": false,
      "t": 109705.72916666672,
      "d": 197.91666666665697,
      "v": 34
    },
    {
      "midi": 65,
      "hit": false,
      "t": 110031.25000000004,
      "d": 145.83333333332848,
      "v": 44
    },
    {
      "midi": 65,
      "hit": false,
      "t": 110307.2916666667,
      "d": 515.625,
      "v": 32
    },
    {
      "midi": 56,
      "hit": false,
      "t": 110348.95833333337,
      "d": 408.85416666665697,
      "v": 23
    },
    {
      "midi": 60,
      "hit": false,
      "t": 110361.9791666667,
      "d": 289.0625,
      "v": 26
    },
    {
      "midi": 77,
      "hit": false,
      "t": 110859.37500000003,
      "d": 447.91666666665697,
      "v": 59
    },
    {
      "midi": 49,
      "hit": false,
      "t": 110903.64583333336,
      "d": 841.1458333333139,
      "v": 41
    },
    {
      "midi": 70,
      "hit": false,
      "t": 111312.50000000001,
      "d": 263.0208333333285,
      "v": 66
    },
    {
      "midi": 61,
      "hit": false,
      "t": 111354.16666666669,
      "d": 567.7083333333285,
      "v": 30
    },
    {
      "midi": 53,
      "hit": false,
      "t": 111359.37500000001,
      "d": 619.7916666666715,
      "v": 35
    },
    {
      "midi": 72,
      "hit": false,
      "t": 111575.52083333334,
      "d": 221.35416666667152,
      "v": 60
    },
    {
      "midi": 46,
      "hit": false,
      "t": 111776.04166666667,
      "d": 244.79166666667152,
      "v": 45
    },
    {
      "midi": 75,
      "hit": false,
      "t": 111794.27083333334,
      "d": 250,
      "v": 56
    },
    {
      "midi": 73,
      "hit": false,
      "t": 112015.62500000001,
      "d": 203.125,
      "v": 60
    },
    {
      "midi": 41,
      "hit": false,
      "t": 112302.08333333334,
      "d": 429.68750000001455,
      "v": 39
    },
    {
      "midi": 72,
      "hit": false,
      "t": 112312.50000000001,
      "d": 70.3125,
      "v": 51
    },
    {
      "midi": 73,
      "hit": false,
      "t": 112421.87500000001,
      "d": 78.125,
      "v": 61
    },
    {
      "midi": 75,
      "hit": false,
      "t": 112541.66666666669,
      "d": 171.875,
      "v": 53
    },
    {
      "midi": 73,
      "hit": false,
      "t": 112674.47916666669,
      "d": 856.770833333343,
      "v": 56
    },
    {
      "midi": 68,
      "hit": false,
      "t": 113156.25000000003,
      "d": 75.52083333332848,
      "v": 35
    },
    {
      "midi": 60,
      "hit": false,
      "t": 113156.25000000003,
      "d": 164.0625,
      "v": 40
    },
    {
      "midi": 72,
      "hit": false,
      "t": 113473.95833333336,
      "d": 145.83333333334303,
      "v": 60
    },
    {
      "midi": 68,
      "hit": false,
      "t": 113723.95833333337,
      "d": 177.08333333332848,
      "v": 43
    },
    {
      "midi": 72,
      "hit": false,
      "t": 113729.1666666667,
      "d": 614.583333333343,
      "v": 52
    },
    {
      "midi": 60,
      "hit": false,
      "t": 113739.58333333337,
      "d": 226.5625,
      "v": 34
    },
    {
      "midi": 71,
      "hit": false,
      "t": 114348.95833333337,
      "d": 257.8125,
      "v": 44
    },
    {
      "midi": 52,
      "hit": false,
      "t": 114361.9791666667,
      "d": 1135.4166666666715,
      "v": 52
    },
    {
      "midi": 72,
      "hit": false,
      "t": 114593.75000000004,
      "d": 187.49999999998545,
      "v": 81
    },
    {
      "midi": 75,
      "hit": false,
      "t": 114776.0416666667,
      "d": 109.3749999999709,
      "v": 64
    },
    {
      "midi": 73,
      "hit": false,
      "t": 114825.52083333336,
      "d": 252.60416666667152,
      "v": 78
    },
    {
      "midi": 67,
      "hit": false,
      "t": 114830.72916666669,
      "d": 210.9375,
      "v": 38
    },
    {
      "midi": 60,
      "hit": false,
      "t": 114843.75000000001,
      "d": 187.5,
      "v": 42
    },
    {
      "midi": 58,
      "hit": false,
      "t": 114848.95833333334,
      "d": 109.375,
      "v": 54
    },
    {
      "midi": 72,
      "hit": false,
      "t": 115059.89583333336,
      "d": 236.97916666667152,
      "v": 92
    },
    {
      "midi": 77,
      "hit": false,
      "t": 115281.25000000003,
      "d": 250.00000000001455,
      "v": 91
    },
    {
      "midi": 67,
      "hit": false,
      "t": 115304.68750000003,
      "d": 239.58333333334303,
      "v": 52
    },
    {
      "midi": 60,
      "hit": false,
      "t": 115320.31250000003,
      "d": 322.9166666666715,
      "v": 37
    },
    {
      "midi": 58,
      "hit": false,
      "t": 115343.75000000003,
      "d": 351.5625,
      "v": 50
    },
    {
      "midi": 79,
      "hit": false,
      "t": 115489.58333333337,
      "d": 239.58333333331393,
      "v": 92
    },
    {
      "midi": 80,
      "hit": false,
      "t": 115708.33333333336,
      "d": 252.60416666667152,
      "v": 79
    },
    {
      "midi": 53,
      "hit": false,
      "t": 115739.58333333336,
      "d": 343.75,
      "v": 47
    },
    {
      "midi": 68,
      "hit": false,
      "t": 115919.27083333336,
      "d": 242.18749999998545,
      "v": 73
    },
    {
      "midi": 56,
      "hit": false,
      "t": 116151.04166666669,
      "d": 239.58333333331393,
      "v": 34
    },
    {
      "midi": 76,
      "hit": false,
      "t": 116156.25000000001,
      "d": 231.77083333331393,
      "v": 81
    },
    {
      "midi": 65,
      "hit": false,
      "t": 116161.45833333334,
      "d": 88.54166666665697,
      "v": 39
    },
    {
      "midi": 60,
      "hit": false,
      "t": 116197.91666666667,
      "d": 151.04166666665697,
      "v": 17
    },
    {
      "midi": 79,
      "hit": false,
      "t": 116380.20833333333,
      "d": 236.97916666668607,
      "v": 75
    },
    {
      "midi": 44,
      "hit": false,
      "t": 116593.75,
      "d": 270.83333333334303,
      "v": 54
    },
    {
      "midi": 77,
      "hit": false,
      "t": 116604.16666666667,
      "d": 158.85416666667152,
      "v": 76
    },
    {
      "midi": 65,
      "hit": false,
      "t": 116815.10416666667,
      "d": 252.60416666668607,
      "v": 81
    },
    {
      "midi": 46,
      "hit": false,
      "t": 117046.87500000001,
      "d": 182.29166666667152,
      "v": 60
    },
    {
      "midi": 72,
      "hit": false,
      "t": 117049.47916666669,
      "d": 213.54166666665697,
      "v": 86
    },
    {
      "midi": 75,
      "hit": false,
      "t": 117257.81250000001,
      "d": 216.14583333332848,
      "v": 67
    },
    {
      "midi": 61,
      "hit": false,
      "t": 117453.12500000001,
      "d": 57.29166666667152,
      "v": 63
    },
    {
      "midi": 73,
      "hit": false,
      "t": 117468.75000000001,
      "d": 148.43750000001455,
      "v": 69
    },
    {
      "midi": 53,
      "hit": false,
      "t": 117484.37500000001,
      "d": 67.70833333334303,
      "v": 33
    },
    {
      "midi": 61,
      "hit": false,
      "t": 117679.68750000003,
      "d": 197.91666666667152,
      "v": 69
    },
    {
      "midi": 34,
      "hit": false,
      "t": 117950.52083333337,
      "d": 289.0625,
      "v": 54
    },
    {
      "midi": 72,
      "hit": false,
      "t": 117955.7291666667,
      "d": 268.2291666666715,
      "v": 60
    },
    {
      "midi": 70,
      "hit": false,
      "t": 118229.1666666667,
      "d": 260.4166666666715,
      "v": 65
    },
    {
      "midi": 36,
      "hit": false,
      "t": 118468.75000000004,
      "d": 148.43749999998545,
      "v": 40
    },
    {
      "midi": 67,
      "hit": false,
      "t": 118580.7291666667,
      "d": 320.3125,
      "v": 50
    },
    {
      "midi": 72,
      "hit": false,
      "t": 118843.75000000003,
      "d": 210.93750000001455,
      "v": 49
    },
    {
      "midi": 48,
      "hit": false,
      "t": 118927.08333333337,
      "d": 57.29166666667152,
      "v": 42
    },
    {
      "midi": 55,
      "hit": false,
      "t": 119005.20833333337,
      "d": 41.66666666667152,
      "v": 78
    },
    {
      "midi": 64,
      "hit": false,
      "t": 119065.10416666672,
      "d": 164.0625,
      "v": 54
    },
    {
      "midi": 71,
      "hit": false,
      "t": 119187.50000000004,
      "d": 281.25,
      "v": 71
    },
    {
      "midi": 72,
      "hit": false,
      "t": 119460.93750000004,
      "d": 229.16666666665697,
      "v": 88
    },
    {
      "midi": 73,
      "hit": false,
      "t": 119661.45833333337,
      "d": 250,
      "v": 83
    },
    {
      "midi": 74,
      "hit": false,
      "t": 119888.02083333337,
      "d": 377.6041666666715,
      "v": 90
    },
    {
      "midi": 75,
      "hit": false,
      "t": 120179.68750000004,
      "d": 505.2083333333285,
      "v": 79
    },
    {
      "midi": 56,
      "hit": false,
      "t": 120187.50000000004,
      "d": 1322.916666666657,
      "v": 52
    },
    {
      "midi": 77,
      "hit": false,
      "t": 120622.39583333337,
      "d": 328.125,
      "v": 81
    },
    {
      "midi": 63,
      "hit": false,
      "t": 120661.45833333337,
      "d": 164.0625,
      "v": 36
    },
    {
      "midi": 60,
      "hit": false,
      "t": 120682.2916666667,
      "d": 78.125,
      "v": 32
    },
    {
      "midi": 75,
      "hit": false,
      "t": 120841.14583333337,
      "d": 252.60416666667152,
      "v": 83
    },
    {
      "midi": 73,
      "hit": false,
      "t": 121036.45833333337,
      "d": 192.70833333332848,
      "v": 81
    },
    {
      "midi": 63,
      "hit": false,
      "t": 121054.68750000004,
      "d": 138.02083333332848,
      "v": 50
    },
    {
      "midi": 60,
      "hit": false,
      "t": 121093.75000000004,
      "d": 93.75,
      "v": 29
    },
    {
      "midi": 72,
      "hit": false,
      "t": 121236.9791666667,
      "d": 291.6666666666715,
      "v": 90
    },
    {
      "midi": 55,
      "hit": false,
      "t": 121473.95833333337,
      "d": 1432.2916666666715,
      "v": 67
    },
    {
      "midi": 70,
      "hit": false,
      "t": 121497.39583333337,
      "d": 856.770833333343,
      "v": 78
    },
    {
      "midi": 63,
      "hit": false,
      "t": 121919.27083333337,
      "d": 164.0625,
      "v": 45
    },
    {
      "midi": 60,
      "hit": false,
      "t": 121940.1041666667,
      "d": 101.5625,
      "v": 27
    },
    {
      "midi": 68,
      "hit": false,
      "t": 122234.37500000004,
      "d": 158.85416666667152,
      "v": 64
    },
    {
      "midi": 63,
      "hit": false,
      "t": 122460.93750000004,
      "d": 299.4791666666715,
      "v": 29
    },
    {
      "midi": 68,
      "hit": false,
      "t": 122473.95833333337,
      "d": 476.5625,
      "v": 62
    },
    {
      "midi": 60,
      "hit": false,
      "t": 122507.81250000004,
      "d": 291.6666666666715,
      "v": 19
    },
    {
      "midi": 80,
      "hit": false,
      "t": 122864.58333333339,
      "d": 671.875,
      "v": 81
    },
    {
      "midi": 53,
      "hit": false,
      "t": 122877.60416666672,
      "d": 929.6875000000146,
      "v": 63
    },
    {
      "midi": 63,
      "hit": false,
      "t": 123255.20833333337,
      "d": 164.06250000001455,
      "v": 47
    },
    {
      "midi": 72,
      "hit": false,
      "t": 123255.20833333337,
      "d": 291.66666666668607,
      "v": 95
    },
    {
      "midi": 56,
      "hit": false,
      "t": 123265.62500000004,
      "d": 195.31250000001455,
      "v": 57
    },
    {
      "midi": 60,
      "hit": false,
      "t": 123291.66666666672,
      "d": 109.375,
      "v": 49
    },
    {
      "midi": 75,
      "hit": false,
      "t": 123468.75000000006,
      "d": 247.39583333334303,
      "v": 86
    },
    {
      "midi": 79,
      "hit": false,
      "t": 123666.66666666673,
      "d": 260.4166666666715,
      "v": 91
    },
    {
      "midi": 63,
      "hit": false,
      "t": 123674.47916666673,
      "d": 83.33333333334303,
      "v": 55
    },
    {
      "midi": 56,
      "hit": false,
      "t": 123690.10416666673,
      "d": 182.29166666667152,
      "v": 60
    },
    {
      "midi": 60,
      "hit": false,
      "t": 123723.9583333334,
      "d": 70.3125,
      "v": 38
    },
    {
      "midi": 77,
      "hit": false,
      "t": 123848.9583333334,
      "d": 250,
      "v": 97
    },
    {
      "midi": 46,
      "hit": false,
      "t": 124036.4583333334,
      "d": 218.75,
      "v": 87
    },
    {
      "midi": 75,
      "hit": false,
      "t": 124065.10416666673,
      "d": 713.5416666666715,
      "v": 88
    },
    {
      "midi": 65,
      "hit": false,
      "t": 124484.37500000006,
      "d": 145.83333333332848,
      "v": 79
    },
    {
      "midi": 56,
      "hit": false,
      "t": 124489.58333333339,
      "d": 205.72916666667152,
      "v": 52
    },
    {
      "midi": 58,
      "hit": false,
      "t": 124497.39583333339,
      "d": 85.9375,
      "v": 71
    },
    {
      "midi": 74,
      "hit": false,
      "t": 124705.72916666673,
      "d": 91.14583333334303,
      "v": 99
    },
    {
      "midi": 56,
      "hit": false,
      "t": 124890.62500000007,
      "d": 226.5625,
      "v": 48
    },
    {
      "midi": 74,
      "hit": false,
      "t": 124895.8333333334,
      "d": 572.9166666666861,
      "v": 90
    },
    {
      "midi": 65,
      "hit": false,
      "t": 124901.04166666673,
      "d": 57.29166666667152,
      "v": 76
    },
    {
      "midi": 58,
      "hit": false,
      "t": 124919.2708333334,
      "d": 174.47916666667152,
      "v": 69
    },
    {
      "midi": 46,
      "hit": false,
      "t": 125372.39583333342,
      "d": 270.83333333334303,
      "v": 89
    },
    {
      "midi": 84,
      "hit": false,
      "t": 125375.00000000009,
      "d": 807.2916666666715,
      "v": 100
    },
    {
      "midi": 56,
      "hit": false,
      "t": 125791.66666666676,
      "d": 281.25,
      "v": 72
    },
    {
      "midi": 62,
      "hit": false,
      "t": 125794.27083333343,
      "d": 195.3125,
      "v": 77
    },
    {
      "midi": 58,
      "hit": false,
      "t": 125802.08333333343,
      "d": 187.5,
      "v": 80
    },
    {
      "midi": 82,
      "hit": false,
      "t": 126052.08333333343,
      "d": 302.08333333334303,
      "v": 106
    },
    {
      "midi": 56,
      "hit": false,
      "t": 126263.02083333343,
      "d": 244.79166666667152,
      "v": 60
    },
    {
      "midi": 81,
      "hit": false,
      "t": 126270.83333333343,
      "d": 210.9375,
      "v": 98
    },
    {
      "midi": 62,
      "hit": false,
      "t": 126273.4375000001,
      "d": 164.0625,
      "v": 61
    },
    {
      "midi": 58,
      "hit": false,
      "t": 126281.2500000001,
      "d": 208.33333333332848,
      "v": 65
    },
    {
      "midi": 80,
      "hit": false,
      "t": 126460.9375000001,
      "d": 88.54166666667152,
      "v": 95
    },
    {
      "midi": 80,
      "hit": false,
      "t": 126640.6250000001,
      "d": 265.62499999998545,
      "v": 77
    },
    {
      "midi": 46,
      "hit": false,
      "t": 126645.83333333343,
      "d": 122.39583333332848,
      "v": 90
    },
    {
      "midi": 79,
      "hit": false,
      "t": 126843.75000000009,
      "d": 205.72916666665697,
      "v": 95
    },
    {
      "midi": 63,
      "hit": false,
      "t": 127028.64583333342,
      "d": 132.8125,
      "v": 66
    },
    {
      "midi": 55,
      "hit": false,
      "t": 127041.66666666674,
      "d": 156.25,
      "v": 56
    },
    {
      "midi": 77,
      "hit": false,
      "t": 127041.66666666674,
      "d": 244.79166666667152,
      "v": 89
    },
    {
      "midi": 58,
      "hit": false,
      "t": 127046.87500000007,
      "d": 106.77083333334303,
      "v": 56
    },
    {
      "midi": 75,
      "hit": false,
      "t": 127223.95833333342,
      "d": 218.75,
      "v": 82
    },
    {
      "midi": 63,
      "hit": false,
      "t": 127406.25000000009,
      "d": 130.20833333332848,
      "v": 70
    },
    {
      "midi": 74,
      "hit": false,
      "t": 127411.45833333342,
      "d": 153.64583333334303,
      "v": 91
    },
    {
      "midi": 55,
      "hit": false,
      "t": 127421.87500000009,
      "d": 148.4375,
      "v": 48
    },
    {
      "midi": 58,
      "hit": false,
      "t": 127437.50000000009,
      "d": 109.375,
      "v": 61
    },
    {
      "midi": 72,
      "hit": false,
      "t": 127593.75000000009,
      "d": 93.75,
      "v": 94
    },
    {
      "midi": 46,
      "hit": false,
      "t": 127760.41666666674,
      "d": 190.10416666667152,
      "v": 88
    },
    {
      "midi": 72,
      "hit": false,
      "t": 127768.22916666674,
      "d": 252.60416666667152,
      "v": 94
    },
    {
      "midi": 70,
      "hit": false,
      "t": 127953.12500000009,
      "d": 195.3125,
      "v": 95
    },
    {
      "midi": 56,
      "hit": false,
      "t": 128127.60416666674,
      "d": 169.27083333334303,
      "v": 58
    },
    {
      "midi": 65,
      "hit": false,
      "t": 128130.20833333342,
      "d": 145.83333333334303,
      "v": 69
    },
    {
      "midi": 69,
      "hit": false,
      "t": 128138.02083333342,
      "d": 205.72916666667152,
      "v": 83
    },
    {
      "midi": 58,
      "hit": false,
      "t": 128156.25000000009,
      "d": 104.16666666667152,
      "v": 51
    },
    {
      "midi": 70,
      "hit": false,
      "t": 128307.29166666676,
      "d": 153.64583333332848,
      "v": 85
    },
    {
      "midi": 74,
      "hit": false,
      "t": 128455.72916666676,
      "d": 52.08333333332848,
      "v": 65
    },
    {
      "midi": 72,
      "hit": false,
      "t": 128479.16666666676,
      "d": 226.5625,
      "v": 91
    },
    {
      "midi": 56,
      "hit": false,
      "t": 128486.97916666676,
      "d": 216.14583333332848,
      "v": 46
    },
    {
      "midi": 65,
      "hit": false,
      "t": 128502.60416666676,
      "d": 143.22916666665697,
      "v": 68
    },
    {
      "midi": 58,
      "hit": false,
      "t": 128528.64583333342,
      "d": 179.68750000001455,
      "v": 51
    },
    {
      "midi": 70,
      "hit": false,
      "t": 128677.08333333342,
      "d": 255.20833333334303,
      "v": 83
    },
    {
      "midi": 46,
      "hit": false,
      "t": 128872.39583333343,
      "d": 187.5,
      "v": 82
    },
    {
      "midi": 72,
      "hit": false,
      "t": 128880.20833333343,
      "d": 289.0625,
      "v": 78
    },
    {
      "midi": 70,
      "hit": false,
      "t": 129114.58333333343,
      "d": 229.16666666667152,
      "v": 77
    },
    {
      "midi": 69,
      "hit": false,
      "t": 129348.95833333343,
      "d": 216.14583333334303,
      "v": 60
    },
    {
      "midi": 63,
      "hit": false,
      "t": 129359.3750000001,
      "d": 135.41666666668607,
      "v": 69
    },
    {
      "midi": 58,
      "hit": false,
      "t": 129377.60416666677,
      "d": 106.77083333334303,
      "v": 51
    },
    {
      "midi": 55,
      "hit": false,
      "t": 129481.77083333344,
      "d": 78.125,
      "v": 17
    },
    {
      "midi": 70,
      "hit": false,
      "t": 129523.43750000012,
      "d": 184.89583333331393,
      "v": 69
    },
    {
      "midi": 74,
      "hit": false,
      "t": 129703.1250000001,
      "d": 46.87499999998545,
      "v": 60
    },
    {
      "midi": 72,
      "hit": false,
      "t": 129744.79166666676,
      "d": 239.58333333334303,
      "v": 80
    },
    {
      "midi": 63,
      "hit": false,
      "t": 129776.04166666676,
      "d": 83.33333333334303,
      "v": 38
    },
    {
      "midi": 55,
      "hit": false,
      "t": 129778.64583333343,
      "d": 122.39583333334303,
      "v": 32
    },
    {
      "midi": 58,
      "hit": false,
      "t": 129794.27083333343,
      "d": 101.56250000001455,
      "v": 48
    },
    {
      "midi": 70,
      "hit": false,
      "t": 129955.72916666677,
      "d": 138.02083333332848,
      "v": 79
    },
    {
      "midi": 46,
      "hit": false,
      "t": 130177.08333333343,
      "d": 177.08333333334303,
      "v": 59
    },
    {
      "midi": 70,
      "hit": false,
      "t": 130179.6875000001,
      "d": 252.60416666667152,
      "v": 61
    },
    {
      "midi": 84,
      "hit": false,
      "t": 130513.02083333344,
      "d": 460.9375,
      "v": 74
    },
    {
      "midi": 62,
      "hit": false,
      "t": 130723.95833333344,
      "d": 239.58333333332848,
      "v": 45
    },
    {
      "midi": 58,
      "hit": false,
      "t": 130736.97916666677,
      "d": 236.97916666667152,
      "v": 40
    },
    {
      "midi": 56,
      "hit": false,
      "t": 130739.58333333344,
      "d": 171.875,
      "v": 37
    },
    {
      "midi": 82,
      "hit": false,
      "t": 130963.54166666677,
      "d": 281.25,
      "v": 64
    },
    {
      "midi": 81,
      "hit": false,
      "t": 131236.97916666677,
      "d": 223.95833333334303,
      "v": 71
    },
    {
      "midi": 65,
      "hit": false,
      "t": 131260.41666666677,
      "d": 151.04166666665697,
      "v": 48
    },
    {
      "midi": 58,
      "hit": false,
      "t": 131270.83333333343,
      "d": 203.1250000000291,
      "v": 31
    },
    {
      "midi": 56,
      "hit": false,
      "t": 131276.04166666677,
      "d": 190.10416666668607,
      "v": 31
    },
    {
      "midi": 80,
      "hit": false,
      "t": 131455.72916666677,
      "d": 226.5625,
      "v": 76
    },
    {
      "midi": 78,
      "hit": false,
      "t": 131661.45833333346,
      "d": 216.14583333331393,
      "v": 70
    },
    {
      "midi": 51,
      "hit": false,
      "t": 131677.08333333346,
      "d": 216.14583333331393,
      "v": 39
    },
    {
      "midi": 79,
      "hit": false,
      "t": 131867.18750000012,
      "d": 145.83333333331393,
      "v": 74
    },
    {
      "midi": 58,
      "hit": false,
      "t": 132070.3125000001,
      "d": 130.20833333334303,
      "v": 47
    },
    {
      "midi": 74,
      "hit": false,
      "t": 132078.1250000001,
      "d": 78.125,
      "v": 66
    },
    {
      "midi": 67,
      "hit": false,
      "t": 132085.9375000001,
      "d": 67.70833333334303,
      "v": 35
    },
    {
      "midi": 75,
      "hit": false,
      "t": 132286.45833333343,
      "d": 41.666666666656965,
      "v": 70
    },
    {
      "midi": 60,
      "hit": false,
      "t": 132510.41666666674,
      "d": 166.66666666665697,
      "v": 37
    },
    {
      "midi": 57,
      "hit": false,
      "t": 132520.8333333334,
      "d": 174.47916666665697,
      "v": 29
    },
    {
      "midi": 63,
      "hit": false,
      "t": 132526.04166666674,
      "d": 125,
      "v": 34
    },
    {
      "midi": 66,
      "hit": false,
      "t": 132526.04166666674,
      "d": 197.91666666665697,
      "v": 30
    },
    {
      "midi": 72,
      "hit": false,
      "t": 132765.62500000006,
      "d": 88.54166666665697,
      "v": 55
    },
    {
      "midi": 70,
      "hit": false,
      "t": 133026.04166666672,
      "d": 468.75,
      "v": 56
    },
    {
      "midi": 46,
      "hit": false,
      "t": 133054.68750000006,
      "d": 677.083333333343,
      "v": 42
    },
    {
      "midi": 58,
      "hit": false,
      "t": 133270.8333333334,
      "d": 135.41666666665697,
      "v": 61
    },
    {
      "midi": 63,
      "hit": false,
      "t": 133505.20833333337,
      "d": 505.20833333337214,
      "v": 41
    },
    {
      "midi": 58,
      "hit": false,
      "t": 133505.20833333337,
      "d": 1169.2708333333721,
      "v": 53
    },
    {
      "midi": 67,
      "hit": false,
      "t": 133526.04166666672,
      "d": 242.1875,
      "v": 55
    },
    {
      "midi": 70,
      "hit": false,
      "t": 133750.00000000006,
      "d": 203.125,
      "v": 59
    },
    {
      "midi": 62,
      "hit": false,
      "t": 134005.2083333334,
      "d": 593.75,
      "v": 31
    },
    {
      "midi": 46,
      "hit": false,
      "t": 134028.6458333334,
      "d": 570.3125,
      "v": 24
    },
    {
      "midi": 56,
      "hit": false,
      "t": 134028.6458333334,
      "d": 640.625,
      "v": 28
    },
    {
      "midi": 65,
      "hit": false,
      "t": 134031.25000000006,
      "d": 223.95833333334303,
      "v": 43
    },
    {
      "midi": 70,
      "hit": false,
      "t": 134278.6458333334,
      "d": 416.66666666668607,
      "v": 51
    },
    {
      "midi": 63,
      "hit": false,
      "t": 134632.81250000006,
      "d": 1414.062500000029,
      "v": 45
    },
    {
      "midi": 51,
      "hit": false,
      "t": 134661.4583333334,
      "d": 1361.979166666686,
      "v": 20
    },
    {
      "midi": 58,
      "hit": false,
      "t": 135268.22916666677,
      "d": 682.291666666657,
      "v": 38
    },
    {
      "midi": 55,
      "hit": false,
      "t": 135354.16666666677,
      "d": 682.291666666657,
      "v": 9
    },
    {
      "midi": 64,
      "hit": false,
      "t": 135916.66666666677,
      "d": 718.7499999999709,
      "v": 52
    },
    {
      "midi": 65,
      "hit": false,
      "t": 136640.6250000001,
      "d": 1140.625000000029,
      "v": 49
    },
    {
      "midi": 49,
      "hit": false,
      "t": 136669.27083333343,
      "d": 1265.625,
      "v": 25
    },
    {
      "midi": 56,
      "hit": false,
      "t": 137205.72916666677,
      "d": 156.2500000000291,
      "v": 28
    },
    {
      "midi": 58,
      "hit": false,
      "t": 137218.75000000012,
      "d": 130.20833333334303,
      "v": 34
    },
    {
      "midi": 67,
      "hit": false,
      "t": 137729.1666666668,
      "d": 395.8333333332848,
      "v": 65
    },
    {
      "midi": 58,
      "hit": false,
      "t": 137739.58333333346,
      "d": 127.60416666665697,
      "v": 45
    },
    {
      "midi": 56,
      "hit": false,
      "t": 137755.20833333346,
      "d": 138.02083333331393,
      "v": 24
    },
    {
      "midi": 46,
      "hit": false,
      "t": 138135.41666666674,
      "d": 893.229166666657,
      "v": 59
    },
    {
      "midi": 68,
      "hit": false,
      "t": 138138.0208333334,
      "d": 468.75,
      "v": 47
    },
    {
      "midi": 70,
      "hit": false,
      "t": 138190.10416666674,
      "d": 59.89583333331393,
      "v": 69
    },
    {
      "midi": 61,
      "hit": false,
      "t": 138591.1458333334,
      "d": 195.3125,
      "v": 40
    },
    {
      "midi": 67,
      "hit": false,
      "t": 138593.75000000006,
      "d": 247.39583333334303,
      "v": 58
    },
    {
      "midi": 53,
      "hit": false,
      "t": 138622.3958333334,
      "d": 117.1875,
      "v": 34
    },
    {
      "midi": 68,
      "hit": false,
      "t": 138796.87500000006,
      "d": 216.14583333337214,
      "v": 67
    },
    {
      "midi": 61,
      "hit": false,
      "t": 138984.3750000001,
      "d": 713.541666666657,
      "v": 37
    },
    {
      "midi": 51,
      "hit": false,
      "t": 139015.6250000001,
      "d": 229.16666666665697,
      "v": 47
    },
    {
      "midi": 72,
      "hit": false,
      "t": 139026.04166666674,
      "d": 226.5625,
      "v": 57
    },
    {
      "midi": 55,
      "hit": false,
      "t": 139057.29166666674,
      "d": 528.645833333343,
      "v": 36
    },
    {
      "midi": 70,
      "hit": false,
      "t": 139257.8125000001,
      "d": 268.22916666665697,
      "v": 57
    },
    {
      "midi": 51,
      "hit": false,
      "t": 139479.16666666674,
      "d": 1200.520833333314,
      "v": 50
    },
    {
      "midi": 62,
      "hit": false,
      "t": 140036.4583333334,
      "d": 249.9999999999709,
      "v": 45
    },
    {
      "midi": 60,
      "hit": false,
      "t": 140041.66666666674,
      "d": 156.2499999999709,
      "v": 33
    },
    {
      "midi": 56,
      "hit": false,
      "t": 140044.2708333334,
      "d": 104.16666666665697,
      "v": 30
    },
    {
      "midi": 65,
      "hit": false,
      "t": 140260.41666666672,
      "d": 197.91666666665697,
      "v": 61
    },
    {
      "midi": 63,
      "hit": false,
      "t": 140442.70833333337,
      "d": 179.6875,
      "v": 53
    },
    {
      "midi": 60,
      "hit": false,
      "t": 140479.16666666672,
      "d": 85.9375,
      "v": 34
    },
    {
      "midi": 56,
      "hit": false,
      "t": 140481.77083333337,
      "d": 169.27083333334303,
      "v": 38
    },
    {
      "midi": 68,
      "hit": false,
      "t": 140635.41666666672,
      "d": 197.91666666668607,
      "v": 54
    },
    {
      "midi": 60,
      "hit": false,
      "t": 140880.2083333334,
      "d": 890.625,
      "v": 66
    },
    {
      "midi": 39,
      "hit": false,
      "t": 140882.81250000006,
      "d": 234.375,
      "v": 32
    },
    {
      "midi": 56,
      "hit": false,
      "t": 141375.00000000006,
      "d": 208.33333333334303,
      "v": 45
    },
    {
      "midi": 51,
      "hit": false,
      "t": 141395.8333333334,
      "d": 187.5,
      "v": 45
    },
    {
      "midi": 56,
      "hit": false,
      "t": 141809.8958333334,
      "d": 135.41666666668607,
      "v": 62
    },
    {
      "midi": 51,
      "hit": false,
      "t": 141815.10416666674,
      "d": 208.33333333334303,
      "v": 52
    },
    {
      "midi": 39,
      "hit": false,
      "t": 142166.66666666674,
      "d": 145.83333333334303,
      "v": 64
    },
    {
      "midi": 55,
      "hit": false,
      "t": 142192.70833333343,
      "d": 164.0625,
      "v": 82
    },
    {
      "midi": 61,
      "hit": false,
      "t": 142388.02083333343,
      "d": 398.4375,
      "v": 87
    },
    {
      "midi": 63,
      "hit": false,
      "t": 142593.7500000001,
      "d": 41.666666666656965,
      "v": 88
    },
    {
      "midi": 55,
      "hit": false,
      "t": 142593.7500000001,
      "d": 88.54166666665697,
      "v": 55
    },
    {
      "midi": 51,
      "hit": false,
      "t": 142627.60416666674,
      "d": 364.58333333334303,
      "v": 46
    },
    {
      "midi": 67,
      "hit": false,
      "t": 142781.2500000001,
      "d": 239.58333333334303,
      "v": 97
    },
    {
      "midi": 63,
      "hit": false,
      "t": 142953.1250000001,
      "d": 289.0625,
      "v": 61
    },
    {
      "midi": 73,
      "hit": false,
      "t": 142966.14583333343,
      "d": 265.625,
      "v": 92
    },
    {
      "midi": 58,
      "hit": false,
      "t": 142992.1875000001,
      "d": 273.4375,
      "v": 62
    },
    {
      "midi": 55,
      "hit": false,
      "t": 143000.0000000001,
      "d": 125,
      "v": 51
    },
    {
      "midi": 77,
      "hit": false,
      "t": 143169.27083333343,
      "d": 122.39583333331393,
      "v": 102
    },
    {
      "midi": 73,
      "hit": false,
      "t": 143390.6250000001,
      "d": 817.7083333333139,
      "v": 76
    },
    {
      "midi": 51,
      "hit": false,
      "t": 143393.22916666674,
      "d": 257.8125,
      "v": 54
    },
    {
      "midi": 77,
      "hit": false,
      "t": 143447.91666666674,
      "d": 906.2499999999709,
      "v": 103
    },
    {
      "midi": 67,
      "hit": false,
      "t": 143807.29166666674,
      "d": 218.75,
      "v": 69
    },
    {
      "midi": 63,
      "hit": false,
      "t": 143825.5208333334,
      "d": 294.27083333334303,
      "v": 46
    },
    {
      "midi": 58,
      "hit": false,
      "t": 143838.54166666674,
      "d": 231.77083333334303,
      "v": 42
    },
    {
      "midi": 75,
      "hit": false,
      "t": 144278.6458333334,
      "d": 289.0624999999709,
      "v": 89
    },
    {
      "midi": 73,
      "hit": false,
      "t": 144281.25000000006,
      "d": 273.4374999999709,
      "v": 75
    },
    {
      "midi": 67,
      "hit": false,
      "t": 144304.68750000006,
      "d": 78.125,
      "v": 71
    },
    {
      "midi": 63,
      "hit": false,
      "t": 144322.91666666672,
      "d": 156.25,
      "v": 44
    },
    {
      "midi": 58,
      "hit": false,
      "t": 144335.93750000006,
      "d": 169.27083333331393,
      "v": 52
    },
    {
      "midi": 75,
      "hit": false,
      "t": 144651.04166666672,
      "d": 57.291666666656965,
      "v": 75
    },
    {
      "midi": 44,
      "hit": false,
      "t": 144684.89583333337,
      "d": 234.3749999999709,
      "v": 56
    },
    {
      "midi": 77,
      "hit": false,
      "t": 144729.16666666672,
      "d": 114.58333333331393,
      "v": 90
    },
    {
      "midi": 75,
      "hit": false,
      "t": 144770.83333333337,
      "d": 510.41666666662786,
      "v": 91
    },
    {
      "midi": 72,
      "hit": false,
      "t": 144781.25000000003,
      "d": 278.64583333331393,
      "v": 90
    },
    {
      "midi": 71,
      "hit": false,
      "t": 145218.75,
      "d": 218.75,
      "v": 70
    },
    {
      "midi": 68,
      "hit": false,
      "t": 145229.16666666666,
      "d": 93.75,
      "v": 58
    },
    {
      "midi": 74,
      "hit": false,
      "t": 145229.16666666666,
      "d": 218.75,
      "v": 92
    },
    {
      "midi": 56,
      "hit": false,
      "t": 145234.375,
      "d": 91.14583333331393,
      "v": 37
    },
    {
      "midi": 63,
      "hit": false,
      "t": 145250,
      "d": 80.72916666665697,
      "v": 47
    },
    {
      "midi": 75,
      "hit": false,
      "t": 145429.6875,
      "d": 179.6874999999709,
      "v": 89
    },
    {
      "midi": 72,
      "hit": false,
      "t": 145440.10416666666,
      "d": 119.79166666665697,
      "v": 89
    },
    {
      "midi": 68,
      "hit": false,
      "t": 145598.9583333333,
      "d": 54.6875,
      "v": 60
    },
    {
      "midi": 73,
      "hit": false,
      "t": 145614.5833333333,
      "d": 65.10416666665697,
      "v": 76
    },
    {
      "midi": 77,
      "hit": false,
      "t": 145614.5833333333,
      "d": 171.8749999999709,
      "v": 91
    },
    {
      "midi": 56,
      "hit": false,
      "t": 145622.3958333333,
      "d": 106.77083333331393,
      "v": 44
    },
    {
      "midi": 63,
      "hit": false,
      "t": 145651.04166666666,
      "d": 54.687499999970896,
      "v": 46
    },
    {
      "midi": 75,
      "hit": false,
      "t": 145786.45833333328,
      "d": 283.85416666668607,
      "v": 84
    },
    {
      "midi": 72,
      "hit": false,
      "t": 145817.70833333328,
      "d": 67.70833333334303,
      "v": 79
    },
    {
      "midi": 80,
      "hit": false,
      "t": 146036.45833333328,
      "d": 841.1458333333721,
      "v": 81
    },
    {
      "midi": 44,
      "hit": false,
      "t": 146057.29166666663,
      "d": 205.72916666668607,
      "v": 44
    },
    {
      "midi": 72,
      "hit": false,
      "t": 146070.31249999997,
      "d": 390.625,
      "v": 70
    },
    {
      "midi": 51,
      "hit": false,
      "t": 146593.74999999997,
      "d": 242.1875000000291,
      "v": 18
    },
    {
      "midi": 60,
      "hit": false,
      "t": 146598.9583333333,
      "d": 130.20833333334303,
      "v": 28
    },
    {
      "midi": 56,
      "hit": false,
      "t": 146598.9583333333,
      "d": 236.97916666668607,
      "v": 26
    },
    {
      "midi": 67,
      "hit": false,
      "t": 147138.0208333333,
      "d": 419.27083333331393,
      "v": 57
    },
    {
      "midi": 51,
      "hit": false,
      "t": 147171.87499999997,
      "d": 192.70833333331393,
      "v": 26
    },
    {
      "midi": 60,
      "hit": false,
      "t": 147182.29166666663,
      "d": 109.375,
      "v": 19
    },
    {
      "midi": 56,
      "hit": false,
      "t": 147187.49999999997,
      "d": 143.22916666665697,
      "v": 16
    },
    {
      "midi": 65,
      "hit": false,
      "t": 147562.49999999997,
      "d": 916.6666666666861,
      "v": 80
    },
    {
      "midi": 49,
      "hit": false,
      "t": 147580.72916666663,
      "d": 1059.895833333343,
      "v": 59
    },
    {
      "midi": 61,
      "hit": false,
      "t": 147966.14583333328,
      "d": 223.95833333334303,
      "v": 27
    },
    {
      "midi": 53,
      "hit": false,
      "t": 147981.77083333328,
      "d": 184.89583333334303,
      "v": 40
    },
    {
      "midi": 58,
      "hit": false,
      "t": 147981.77083333328,
      "d": 213.54166666668607,
      "v": 57
    },
    {
      "midi": 67,
      "hit": false,
      "t": 148406.24999999997,
      "d": 187.5,
      "v": 78
    },
    {
      "midi": 61,
      "hit": false,
      "t": 148434.8958333333,
      "d": 91.14583333334303,
      "v": 42
    },
    {
      "midi": 53,
      "hit": false,
      "t": 148466.1458333333,
      "d": 138.02083333331393,
      "v": 34
    },
    {
      "midi": 58,
      "hit": false,
      "t": 148473.9583333333,
      "d": 93.75,
      "v": 30
    },
    {
      "midi": 68,
      "hit": false,
      "t": 148671.87499999997,
      "d": 57.291666666656965,
      "v": 53
    },
    {
      "midi": 70,
      "hit": false,
      "t": 148731.77083333328,
      "d": 62.5,
      "v": 61
    },
    {
      "midi": 68,
      "hit": false,
      "t": 148778.64583333328,
      "d": 382.8125,
      "v": 69
    },
    {
      "midi": 46,
      "hit": false,
      "t": 148778.64583333328,
      "d": 872.395833333343,
      "v": 71
    },
    {
      "midi": 67,
      "hit": false,
      "t": 149138.02083333328,
      "d": 273.4375,
      "v": 69
    },
    {
      "midi": 61,
      "hit": false,
      "t": 149156.24999999994,
      "d": 187.5,
      "v": 42
    },
    {
      "midi": 53,
      "hit": false,
      "t": 149174.47916666663,
      "d": 143.22916666665697,
      "v": 41
    },
    {
      "midi": 68,
      "hit": false,
      "t": 149348.95833333328,
      "d": 260.41666666668607,
      "v": 72
    },
    {
      "midi": 72,
      "hit": false,
      "t": 149604.16666666663,
      "d": 283.85416666668607,
      "v": 67
    },
    {
      "midi": 61,
      "hit": false,
      "t": 149604.16666666663,
      "d": 703.1250000000291,
      "v": 39
    },
    {
      "midi": 51,
      "hit": false,
      "t": 149609.37499999997,
      "d": 265.625,
      "v": 45
    },
    {
      "midi": 55,
      "hit": false,
      "t": 149666.66666666663,
      "d": 510.41666666668607,
      "v": 30
    },
    {
      "midi": 70,
      "hit": false,
      "t": 149874.99999999997,
      "d": 268.22916666668607,
      "v": 66
    },
    {
      "midi": 51,
      "hit": false,
      "t": 150083.3333333333,
      "d": 1158.854166666657,
      "v": 61
    },
    {
      "midi": 56,
      "hit": false,
      "t": 150559.89583333334,
      "d": 255.20833333331393,
      "v": 34
    },
    {
      "midi": 62,
      "hit": false,
      "t": 150559.89583333334,
      "d": 343.7499999999709,
      "v": 59
    },
    {
      "midi": 60,
      "hit": false,
      "t": 150591.14583333334,
      "d": 161.45833333334303,
      "v": 44
    },
    {
      "midi": 65,
      "hit": false,
      "t": 150781.25,
      "d": 242.1874999999709,
      "v": 75
    },
    {
      "midi": 63,
      "hit": false,
      "t": 150963.54166666666,
      "d": 218.7499999999709,
      "v": 64
    },
    {
      "midi": 60,
      "hit": false,
      "t": 151010.41666666666,
      "d": 93.7499999999709,
      "v": 41
    },
    {
      "midi": 56,
      "hit": false,
      "t": 151013.0208333333,
      "d": 200.52083333331393,
      "v": 43
    },
    {
      "midi": 68,
      "hit": false,
      "t": 151145.83333333328,
      "d": 304.6875000000291,
      "v": 67
    },
    {
      "midi": 60,
      "hit": false,
      "t": 151382.81249999997,
      "d": 807.2916666666861,
      "v": 75
    },
    {
      "midi": 44,
      "hit": false,
      "t": 151390.62499999997,
      "d": 1114.5833333333721,
      "v": 57
    },
    {
      "midi": 53,
      "hit": false,
      "t": 151799.47916666666,
      "d": 223.95833333334303,
      "v": 50
    },
    {
      "midi": 50,
      "hit": false,
      "t": 151804.6875,
      "d": 93.75,
      "v": 42
    },
    {
      "midi": 53,
      "hit": false,
      "t": 152322.91666666666,
      "d": 203.1250000000291,
      "v": 53
    },
    {
      "midi": 50,
      "hit": false,
      "t": 152335.9375,
      "d": 309.89583333334303,
      "v": 53
    },
    {
      "midi": 55,
      "hit": false,
      "t": 152697.9166666667,
      "d": 239.58333333334303,
      "v": 74
    },
    {
      "midi": 43,
      "hit": false,
      "t": 152718.75000000003,
      "d": 380.20833333331393,
      "v": 55
    },
    {
      "midi": 60,
      "hit": false,
      "t": 152911.45833333337,
      "d": 210.9374999999709,
      "v": 85
    },
    {
      "midi": 51,
      "hit": false,
      "t": 153091.14583333334,
      "d": 62.5,
      "v": 55
    },
    {
      "midi": 55,
      "hit": false,
      "t": 153093.75,
      "d": 109.375,
      "v": 55
    },
    {
      "midi": 63,
      "hit": false,
      "t": 153109.375,
      "d": 138.02083333334303,
      "v": 80
    },
    {
      "midi": 67,
      "hit": false,
      "t": 153291.6666666667,
      "d": 252.60416666668607,
      "v": 93
    },
    {
      "midi": 51,
      "hit": false,
      "t": 153453.12500000003,
      "d": 372.39583333334303,
      "v": 56
    },
    {
      "midi": 55,
      "hit": false,
      "t": 153502.6041666667,
      "d": 289.0625000000291,
      "v": 49
    },
    {
      "midi": 72,
      "hit": false,
      "t": 153531.25000000003,
      "d": 276.04166666668607,
      "v": 102
    },
    {
      "midi": 60,
      "hit": false,
      "t": 153549.47916666672,
      "d": 200.52083333334303,
      "v": 67
    },
    {
      "midi": 75,
      "hit": false,
      "t": 153932.29166666672,
      "d": 182.29166666665697,
      "v": 98
    },
    {
      "midi": 43,
      "hit": false,
      "t": 154065.10416666672,
      "d": 205.72916666668607,
      "v": 70
    },
    {
      "midi": 67,
      "hit": false,
      "t": 154098.95833333337,
      "d": 351.5625000000291,
      "v": 72
    },
    {
      "midi": 75,
      "hit": false,
      "t": 154174.47916666672,
      "d": 911.4583333333721,
      "v": 100
    },
    {
      "midi": 59,
      "hit": false,
      "t": 154606.7708333334,
      "d": 138.02083333334303,
      "v": 45
    },
    {
      "midi": 67,
      "hit": false,
      "t": 154606.7708333334,
      "d": 205.72916666668607,
      "v": 64
    },
    {
      "midi": 55,
      "hit": false,
      "t": 154630.2083333334,
      "d": 93.75,
      "v": 40
    },
    {
      "midi": 65,
      "hit": false,
      "t": 155083.33333333343,
      "d": 658.854166666657,
      "v": 75
    },
    {
      "midi": 67,
      "hit": false,
      "t": 155088.54166666674,
      "d": 67.70833333331393,
      "v": 62
    },
    {
      "midi": 74,
      "hit": false,
      "t": 155088.54166666674,
      "d": 1135.416666666686,
      "v": 81
    },
    {
      "midi": 59,
      "hit": false,
      "t": 155098.9583333334,
      "d": 78.125,
      "v": 44
    },
    {
      "midi": 55,
      "hit": false,
      "t": 155122.3958333334,
      "d": 119.79166666665697,
      "v": 39
    },
    {
      "midi": 48,
      "hit": false,
      "t": 155494.79166666674,
      "d": 161.45833333334303,
      "v": 74
    },
    {
      "midi": 60,
      "hit": false,
      "t": 155916.66666666674,
      "d": 83.33333333334303,
      "v": 46
    },
    {
      "midi": 67,
      "hit": false,
      "t": 155919.2708333334,
      "d": 111.97916666668607,
      "v": 48
    },
    {
      "midi": 55,
      "hit": false,
      "t": 155940.10416666674,
      "d": 91.14583333334303,
      "v": 37
    },
    {
      "midi": 63,
      "hit": false,
      "t": 156200.52083333343,
      "d": 59.895833333343035,
      "v": 58
    },
    {
      "midi": 72,
      "hit": false,
      "t": 156208.33333333343,
      "d": 46.875,
      "v": 76
    },
    {
      "midi": 63,
      "hit": false,
      "t": 156364.58333333343,
      "d": 843.7499999999418,
      "v": 47
    },
    {
      "midi": 67,
      "hit": false,
      "t": 156367.1875000001,
      "d": 98.95833333331393,
      "v": 47
    },
    {
      "midi": 72,
      "hit": false,
      "t": 156375.0000000001,
      "d": 848.9583333332848,
      "v": 59
    },
    {
      "midi": 60,
      "hit": false,
      "t": 156385.41666666674,
      "d": 96.35416666665697,
      "v": 43
    },
    {
      "midi": 55,
      "hit": false,
      "t": 156388.0208333334,
      "d": 130.20833333334303,
      "v": 25
    },
    {
      "midi": 48,
      "hit": false,
      "t": 156781.25000000006,
      "d": 140.625,
      "v": 52
    },
    {
      "midi": 55,
      "hit": false,
      "t": 157296.87500000003,
      "d": 221.35416666665697,
      "v": 27
    },
    {
      "midi": 67,
      "hit": false,
      "t": 157302.08333333337,
      "d": 184.89583333331393,
      "v": 31
    },
    {
      "midi": 60,
      "hit": false,
      "t": 157328.12500000003,
      "d": 156.25,
      "v": 16
    },
    {
      "midi": 63,
      "hit": false,
      "t": 157651.0416666667,
      "d": 67.70833333331393,
      "v": 39
    },
    {
      "midi": 72,
      "hit": false,
      "t": 157661.45833333334,
      "d": 67.70833333331393,
      "v": 45
    },
    {
      "midi": 72,
      "hit": false,
      "t": 157875,
      "d": 1335.9375,
      "v": 35
    },
    {
      "midi": 67,
      "hit": false,
      "t": 157911.45833333334,
      "d": 130.20833333334303,
      "v": 19
    },
    {
      "midi": 63,
      "hit": false,
      "t": 157916.6666666667,
      "d": 127.60416666665697,
      "v": 27
    },
    {
      "midi": 55,
      "hit": false,
      "t": 157919.27083333334,
      "d": 260.41666666668607,
      "v": 23
    },
    {
      "midi": 60,
      "hit": false,
      "t": 157932.2916666667,
      "d": 117.1875,
      "v": 10
    },
    {
      "midi": 49,
      "hit": false,
      "t": 158656.25000000003,
      "d": 1148.437499999971,
      "v": 41
    },
    {
      "midi": 58,
      "hit": false,
      "t": 159161.45833333334,
      "d": 119.79166666665697,
      "v": 44
    },
    {
      "midi": 65,
      "hit": false,
      "t": 159161.45833333334,
      "d": 458.33333333331393,
      "v": 53
    },
    {
      "midi": 56,
      "hit": false,
      "t": 159179.6875,
      "d": 151.04166666665697,
      "v": 32
    },
    {
      "midi": 67,
      "hit": false,
      "t": 159575.5208333333,
      "d": 294.27083333334303,
      "v": 70
    },
    {
      "midi": 58,
      "hit": false,
      "t": 159585.93749999997,
      "d": 348.95833333334303,
      "v": 49
    },
    {
      "midi": 56,
      "hit": false,
      "t": 159604.16666666666,
      "d": 187.5,
      "v": 37
    },
    {
      "midi": 68,
      "hit": false,
      "t": 159960.93749999997,
      "d": 52.083333333343035,
      "v": 60
    },
    {
      "midi": 46,
      "hit": false,
      "t": 159968.74999999997,
      "d": 999.9999999999709,
      "v": 67
    },
    {
      "midi": 70,
      "hit": false,
      "t": 160023.43749999997,
      "d": 75.52083333331393,
      "v": 65
    },
    {
      "midi": 68,
      "hit": false,
      "t": 160080.72916666663,
      "d": 414.0624999999709,
      "v": 75
    },
    {
      "midi": 61,
      "hit": false,
      "t": 160460.93749999994,
      "d": 195.3124999999709,
      "v": 42
    },
    {
      "midi": 67,
      "hit": false,
      "t": 160479.1666666666,
      "d": 265.625,
      "v": 65
    },
    {
      "midi": 53,
      "hit": false,
      "t": 160497.39583333326,
      "d": 158.85416666665697,
      "v": 41
    },
    {
      "midi": 68,
      "hit": false,
      "t": 160700.52083333326,
      "d": 236.97916666668607,
      "v": 70
    },
    {
      "midi": 61,
      "hit": false,
      "t": 160911.45833333326,
      "d": 513.020833333343,
      "v": 46
    },
    {
      "midi": 51,
      "hit": false,
      "t": 160919.27083333326,
      "d": 195.3125000000291,
      "v": 52
    },
    {
      "midi": 72,
      "hit": false,
      "t": 160942.70833333328,
      "d": 213.54166666665697,
      "v": 55
    },
    {
      "midi": 55,
      "hit": false,
      "t": 160973.95833333328,
      "d": 382.8124999999709,
      "v": 20
    },
    {
      "midi": 70,
      "hit": false,
      "t": 161148.43749999994,
      "d": 119.79166666665697,
      "v": 52
    },
    {
      "midi": 51,
      "hit": false,
      "t": 161307.2916666666,
      "d": 1109.375,
      "v": 54
    },
    {
      "midi": 62,
      "hit": false,
      "t": 161692.70833333326,
      "d": 250,
      "v": 59
    },
    {
      "midi": 60,
      "hit": false,
      "t": 161734.37499999994,
      "d": 151.04166666665697,
      "v": 33
    },
    {
      "midi": 56,
      "hit": false,
      "t": 161734.37499999994,
      "d": 182.29166666665697,
      "v": 26
    },
    {
      "midi": 65,
      "hit": false,
      "t": 161903.64583333326,
      "d": 218.75,
      "v": 71
    },
    {
      "midi": 63,
      "hit": false,
      "t": 162117.1874999999,
      "d": 218.7500000000291,
      "v": 54
    },
    {
      "midi": 60,
      "hit": false,
      "t": 162145.83333333326,
      "d": 104.16666666665697,
      "v": 46
    },
    {
      "midi": 56,
      "hit": false,
      "t": 162148.4374999999,
      "d": 213.54166666668607,
      "v": 30
    },
    {
      "midi": 68,
      "hit": false,
      "t": 162322.9166666666,
      "d": 359.375,
      "v": 55
    },
    {
      "midi": 60,
      "hit": false,
      "t": 162635.4166666666,
      "d": 937.5,
      "v": 57
    },
    {
      "midi": 39,
      "hit": false,
      "t": 162653.64583333326,
      "d": 252.60416666668607,
      "v": 36
    },
    {
      "midi": 56,
      "hit": false,
      "t": 163104.1666666666,
      "d": 158.85416666665697,
      "v": 31
    },
    {
      "midi": 51,
      "hit": false,
      "t": 163122.39583333326,
      "d": 111.97916666665697,
      "v": 23
    },
    {
      "midi": 56,
      "hit": false,
      "t": 163510.4166666666,
      "d": 104.16666666665697,
      "v": 38
    },
    {
      "midi": 51,
      "hit": false,
      "t": 163546.87499999994,
      "d": 78.1249999999709,
      "v": 45
    },
    {
      "midi": 55,
      "hit": false,
      "t": 163877.60416666657,
      "d": 166.66666666668607,
      "v": 73
    },
    {
      "midi": 39,
      "hit": false,
      "t": 163906.2499999999,
      "d": 83.33333333334303,
      "v": 61
    },
    {
      "midi": 61,
      "hit": false,
      "t": 164083.33333333326,
      "d": 367.1874999999709,
      "v": 81
    },
    {
      "midi": 63,
      "hit": false,
      "t": 164270.83333333326,
      "d": 39.0625,
      "v": 88
    },
    {
      "midi": 55,
      "hit": false,
      "t": 164291.6666666666,
      "d": 62.499999999970896,
      "v": 49
    },
    {
      "midi": 51,
      "hit": false,
      "t": 164312.4999999999,
      "d": 309.89583333331393,
      "v": 57
    },
    {
      "midi": 67,
      "hit": false,
      "t": 164440.10416666657,
      "d": 148.4375,
      "v": 101
    },
    {
      "midi": 63,
      "hit": false,
      "t": 164606.77083333323,
      "d": 184.89583333331393,
      "v": 56
    },
    {
      "midi": 73,
      "hit": false,
      "t": 164609.37499999988,
      "d": 166.66666666665697,
      "v": 94
    },
    {
      "midi": 55,
      "hit": false,
      "t": 164635.41666666657,
      "d": 122.39583333331393,
      "v": 51
    },
    {
      "midi": 58,
      "hit": false,
      "t": 164651.04166666657,
      "d": 88.54166666665697,
      "v": 54
    },
    {
      "midi": 77,
      "hit": false,
      "t": 164786.4583333332,
      "d": 75.52083333334303,
      "v": 93
    },
    {
      "midi": 73,
      "hit": false,
      "t": 164921.87499999988,
      "d": 747.395833333343,
      "v": 70
    },
    {
      "midi": 51,
      "hit": false,
      "t": 164947.91666666654,
      "d": 213.54166666668607,
      "v": 52
    },
    {
      "midi": 77,
      "hit": false,
      "t": 164989.58333333323,
      "d": 885.416666666657,
      "v": 103
    },
    {
      "midi": 67,
      "hit": false,
      "t": 165343.74999999988,
      "d": 255.20833333334303,
      "v": 75
    },
    {
      "midi": 58,
      "hit": false,
      "t": 165356.77083333323,
      "d": 192.70833333334303,
      "v": 70
    },
    {
      "midi": 63,
      "hit": false,
      "t": 165361.97916666657,
      "d": 226.5625,
      "v": 46
    },
    {
      "midi": 73,
      "hit": false,
      "t": 165835.93749999988,
      "d": 70.3125,
      "v": 72
    },
    {
      "midi": 75,
      "hit": false,
      "t": 165835.93749999988,
      "d": 234.375,
      "v": 90
    },
    {
      "midi": 67,
      "hit": false,
      "t": 165848.95833333323,
      "d": 67.70833333331393,
      "v": 67
    },
    {
      "midi": 58,
      "hit": false,
      "t": 165867.18749999988,
      "d": 177.08333333334303,
      "v": 48
    },
    {
      "midi": 63,
      "hit": false,
      "t": 165869.79166666654,
      "d": 138.02083333334303,
      "v": 49
    },
    {
      "midi": 75,
      "hit": false,
      "t": 166218.74999999988,
      "d": 44.270833333343035,
      "v": 73
    },
    {
      "midi": 44,
      "hit": false,
      "t": 166239.58333333323,
      "d": 171.875,
      "v": 48
    },
    {
      "midi": 72,
      "hit": false,
      "t": 166244.79166666657,
      "d": 265.625,
      "v": 75
    },
    {
      "midi": 77,
      "hit": false,
      "t": 166273.43749999988,
      "d": 59.895833333343035,
      "v": 80
    },
    {
      "midi": 75,
      "hit": false,
      "t": 166328.12499999988,
      "d": 346.35416666668607,
      "v": 83
    },
    {
      "midi": 71,
      "hit": false,
      "t": 166630.20833333323,
      "d": 260.41666666662786,
      "v": 65
    },
    {
      "midi": 74,
      "hit": false,
      "t": 166635.41666666657,
      "d": 195.3124999999709,
      "v": 87
    },
    {
      "midi": 56,
      "hit": false,
      "t": 166651.04166666657,
      "d": 80.72916666665697,
      "v": 47
    },
    {
      "midi": 68,
      "hit": false,
      "t": 166653.64583333323,
      "d": 75.52083333334303,
      "v": 52
    },
    {
      "midi": 63,
      "hit": false,
      "t": 166661.45833333323,
      "d": 72.91666666665697,
      "v": 42
    },
    {
      "midi": 75,
      "hit": false,
      "t": 166833.3333333332,
      "d": 169.27083333334303,
      "v": 86
    },
    {
      "midi": 72,
      "hit": false,
      "t": 166835.93749999985,
      "d": 91.14583333334303,
      "v": 83
    },
    {
      "midi": 68,
      "hit": false,
      "t": 167002.60416666654,
      "d": 54.6875,
      "v": 61
    },
    {
      "midi": 77,
      "hit": false,
      "t": 167015.62499999988,
      "d": 179.6875,
      "v": 83
    },
    {
      "midi": 73,
      "hit": false,
      "t": 167023.43749999988,
      "d": 54.6875,
      "v": 62
    },
    {
      "midi": 56,
      "hit": false,
      "t": 167023.43749999988,
      "d": 138.02083333334303,
      "v": 48
    },
    {
      "midi": 63,
      "hit": false,
      "t": 167062.49999999988,
      "d": 62.5,
      "v": 35
    },
    {
      "midi": 75,
      "hit": false,
      "t": 167197.91666666654,
      "d": 283.85416666665697,
      "v": 80
    },
    {
      "midi": 72,
      "hit": false,
      "t": 167218.74999999988,
      "d": 59.895833333343035,
      "v": 67
    },
    {
      "midi": 80,
      "hit": false,
      "t": 167445.31249999988,
      "d": 716.1458333333139,
      "v": 73
    },
    {
      "midi": 44,
      "hit": false,
      "t": 167479.16666666654,
      "d": 177.08333333331393,
      "v": 36
    },
    {
      "midi": 72,
      "hit": false,
      "t": 167479.16666666654,
      "d": 437.4999999999709,
      "v": 51
    },
    {
      "midi": 60,
      "hit": false,
      "t": 167984.37499999985,
      "d": 182.29166666668607,
      "v": 29
    },
    {
      "midi": 51,
      "hit": false,
      "t": 167994.7916666665,
      "d": 130.20833333334303,
      "v": 25
    },
    {
      "midi": 56,
      "hit": false,
      "t": 168018.2291666665,
      "d": 111.97916666668607,
      "v": 13
    },
    {
      "midi": 67,
      "hit": false,
      "t": 168466.1458333332,
      "d": 364.58333333334303,
      "v": 62
    },
    {
      "midi": 60,
      "hit": false,
      "t": 168486.97916666654,
      "d": 125,
      "v": 27
    },
    {
      "midi": 51,
      "hit": false,
      "t": 168507.81249999988,
      "d": 192.70833333331393,
      "v": 29
    },
    {
      "midi": 56,
      "hit": false,
      "t": 168518.22916666654,
      "d": 117.1875,
      "v": 20
    },
    {
      "midi": 65,
      "hit": false,
      "t": 168893.22916666654,
      "d": 815.1041666666279,
      "v": 70
    },
    {
      "midi": 49,
      "hit": false,
      "t": 168911.4583333332,
      "d": 999.9999999999418,
      "v": 41
    },
    {
      "midi": 61,
      "hit": false,
      "t": 169260.4166666665,
      "d": 164.0625,
      "v": 32
    },
    {
      "midi": 53,
      "hit": false,
      "t": 169291.6666666665,
      "d": 98.95833333334303,
      "v": 32
    },
    {
      "midi": 58,
      "hit": false,
      "t": 169296.87499999985,
      "d": 125,
      "v": 43
    },
    {
      "midi": 67,
      "hit": false,
      "t": 169656.24999999983,
      "d": 203.125,
      "v": 71
    },
    {
      "midi": 61,
      "hit": false,
      "t": 169684.89583333317,
      "d": 83.33333333334303,
      "v": 39
    },
    {
      "midi": 53,
      "hit": false,
      "t": 169723.95833333317,
      "d": 153.64583333331393,
      "v": 22
    },
    {
      "midi": 58,
      "hit": false,
      "t": 169729.1666666665,
      "d": 80.72916666665697,
      "v": 43
    },
    {
      "midi": 68,
      "hit": false,
      "t": 169921.8749999998,
      "d": 59.89583333331393,
      "v": 52
    },
    {
      "midi": 70,
      "hit": false,
      "t": 169979.16666666645,
      "d": 62.5,
      "v": 68
    },
    {
      "midi": 68,
      "hit": false,
      "t": 170041.66666666645,
      "d": 460.9374999999709,
      "v": 48
    },
    {
      "midi": 46,
      "hit": false,
      "t": 170067.7083333331,
      "d": 309.89583333334303,
      "v": 66
    },
    {
      "midi": 67,
      "hit": false,
      "t": 170473.9583333331,
      "d": 281.2499999999709,
      "v": 57
    },
    {
      "midi": 61,
      "hit": false,
      "t": 170492.18749999977,
      "d": 119.79166666665697,
      "v": 36
    },
    {
      "midi": 53,
      "hit": false,
      "t": 170494.79166666642,
      "d": 179.6875,
      "v": 49
    },
    {
      "midi": 68,
      "hit": false,
      "t": 170692.70833333308,
      "d": 250,
      "v": 55
    },
    {
      "midi": 51,
      "hit": false,
      "t": 170940.10416666642,
      "d": 273.4375,
      "v": 33
    },
    {
      "midi": 61,
      "hit": false,
      "t": 170940.10416666642,
      "d": 658.854166666657,
      "v": 35
    },
    {
      "midi": 72,
      "hit": false,
      "t": 170942.70833333308,
      "d": 273.4375,
      "v": 51
    },
    {
      "midi": 55,
      "hit": false,
      "t": 171013.02083333308,
      "d": 460.9375,
      "v": 13
    },
    {
      "midi": 70,
      "hit": false,
      "t": 171208.33333333308,
      "d": 260.41666666665697,
      "v": 54
    },
    {
      "midi": 51,
      "hit": false,
      "t": 171437.49999999974,
      "d": 1242.187500000029,
      "v": 62
    },
    {
      "midi": 62,
      "hit": false,
      "t": 171843.74999999974,
      "d": 385.41666666668607,
      "v": 63
    },
    {
      "midi": 60,
      "hit": false,
      "t": 171869.7916666664,
      "d": 197.91666666668607,
      "v": 34
    },
    {
      "midi": 56,
      "hit": false,
      "t": 171874.99999999974,
      "d": 223.95833333334303,
      "v": 26
    },
    {
      "midi": 65,
      "hit": false,
      "t": 172062.49999999974,
      "d": 291.66666666668607,
      "v": 79
    },
    {
      "midi": 63,
      "hit": false,
      "t": 172296.87499999977,
      "d": 270.83333333331393,
      "v": 62
    },
    {
      "midi": 56,
      "hit": false,
      "t": 172328.12499999977,
      "d": 276.04166666665697,
      "v": 26
    },
    {
      "midi": 60,
      "hit": false,
      "t": 172343.74999999977,
      "d": 164.0624999999709,
      "v": 38
    },
    {
      "midi": 68,
      "hit": false,
      "t": 172536.45833333308,
      "d": 437.5000000000291,
      "v": 62
    },
    {
      "midi": 60,
      "hit": false,
      "t": 172880.2083333331,
      "d": 1601.562499999971,
      "v": 65
    },
    {
      "midi": 39,
      "hit": false,
      "t": 172903.6458333331,
      "d": 252.60416666665697,
      "v": 36
    },
    {
      "midi": 56,
      "hit": false,
      "t": 173442.7083333331,
      "d": 111.97916666665697,
      "v": 32
    },
    {
      "midi": 51,
      "hit": false,
      "t": 173481.7708333331,
      "d": 88.54166666665697,
      "v": 28
    },
    {
      "midi": 51,
      "hit": false,
      "t": 173924.47916666642,
      "d": 276.04166666665697,
      "v": 28
    },
    {
      "midi": 56,
      "hit": false,
      "t": 173934.89583333308,
      "d": 106.77083333334303,
      "v": 24
    },
    {
      "midi": 39,
      "hit": false,
      "t": 174544.27083333308,
      "d": 179.6875,
      "v": 36
    },
    {
      "midi": 62,
      "hit": false,
      "t": 175075.52083333308,
      "d": 242.1875,
      "v": 35
    },
    {
      "midi": 58,
      "hit": false,
      "t": 175078.12499999974,
      "d": 93.75,
      "v": 35
    },
    {
      "midi": 56,
      "hit": false,
      "t": 175093.74999999974,
      "d": 93.75,
      "v": 26
    },
    {
      "midi": 63,
      "hit": false,
      "t": 175286.45833333308,
      "d": 109.375,
      "v": 57
    },
    {
      "midi": 65,
      "hit": false,
      "t": 175484.37499999974,
      "d": 106.77083333334303,
      "v": 58
    },
    {
      "midi": 56,
      "hit": false,
      "t": 175492.18749999974,
      "d": 101.5625,
      "v": 41
    },
    {
      "midi": 58,
      "hit": false,
      "t": 175492.18749999974,
      "d": 101.5625,
      "v": 45
    },
    {
      "midi": 67,
      "hit": false,
      "t": 175671.87499999974,
      "d": 57.291666666656965,
      "v": 64
    },
    {
      "midi": 51,
      "hit": false,
      "t": 175848.95833333305,
      "d": 976.5625000000291,
      "v": 46
    },
    {
      "midi": 65,
      "hit": false,
      "t": 175869.7916666664,
      "d": 62.5,
      "v": 53
    },
    {
      "midi": 67,
      "hit": false,
      "t": 175911.45833333305,
      "d": 52.083333333343035,
      "v": 75
    },
    {
      "midi": 65,
      "hit": false,
      "t": 175986.9791666664,
      "d": 65.10416666665697,
      "v": 40
    },
    {
      "midi": 67,
      "hit": false,
      "t": 176059.89583333305,
      "d": 114.58333333334303,
      "v": 62
    },
    {
      "midi": 65,
      "hit": false,
      "t": 176138.02083333305,
      "d": 140.6250000000291,
      "v": 79
    },
    {
      "midi": 58,
      "hit": false,
      "t": 176229.1666666664,
      "d": 177.08333333337214,
      "v": 42
    },
    {
      "midi": 56,
      "hit": false,
      "t": 176242.18749999974,
      "d": 106.77083333334303,
      "v": 35
    },
    {
      "midi": 62,
      "hit": false,
      "t": 176257.81249999974,
      "d": 96.35416666668607,
      "v": 38
    },
    {
      "midi": 64,
      "hit": false,
      "t": 176281.24999999974,
      "d": 218.7500000000291,
      "v": 70
    },
    {
      "midi": 65,
      "hit": false,
      "t": 176466.1458333331,
      "d": 213.54166666665697,
      "v": 81
    },
    {
      "midi": 67,
      "hit": false,
      "t": 176671.87499999977,
      "d": 184.89583333331393,
      "v": 71
    },
    {
      "midi": 62,
      "hit": false,
      "t": 176677.0833333331,
      "d": 153.64583333331393,
      "v": 39
    },
    {
      "midi": 58,
      "hit": false,
      "t": 176677.0833333331,
      "d": 234.3749999999709,
      "v": 41
    },
    {
      "midi": 56,
      "hit": false,
      "t": 176695.31249999977,
      "d": 119.79166666665697,
      "v": 36
    },
    {
      "midi": 68,
      "hit": false,
      "t": 176861.97916666642,
      "d": 62.5,
      "v": 75
    },
    {
      "midi": 70,
      "hit": false,
      "t": 177065.10416666642,
      "d": 57.291666666656965,
      "v": 78
    },
    {
      "midi": 51,
      "hit": false,
      "t": 177114.58333333308,
      "d": 1354.166666666686,
      "v": 37
    },
    {
      "midi": 68,
      "hit": false,
      "t": 177143.22916666642,
      "d": 59.895833333343035,
      "v": 67
    },
    {
      "midi": 70,
      "hit": false,
      "t": 177208.3333333331,
      "d": 72.91666666665697,
      "v": 66
    },
    {
      "midi": 68,
      "hit": false,
      "t": 177294.2708333331,
      "d": 54.6875,
      "v": 58
    },
    {
      "midi": 70,
      "hit": false,
      "t": 177367.18749999977,
      "d": 72.91666666665697,
      "v": 58
    },
    {
      "midi": 68,
      "hit": false,
      "t": 177416.66666666642,
      "d": 132.8125,
      "v": 69
    },
    {
      "midi": 63,
      "hit": false,
      "t": 177554.68749999977,
      "d": 182.29166666668607,
      "v": 23
    },
    {
      "midi": 67,
      "hit": false,
      "t": 177567.7083333331,
      "d": 281.25,
      "v": 59
    },
    {
      "midi": 61,
      "hit": false,
      "t": 177572.91666666645,
      "d": 208.33333333334303,
      "v": 30
    },
    {
      "midi": 58,
      "hit": false,
      "t": 177572.91666666645,
      "d": 257.8125,
      "v": 38
    },
    {
      "midi": 68,
      "hit": false,
      "t": 177828.1249999998,
      "d": 309.89583333331393,
      "v": 54
    },
    {
      "midi": 70,
      "hit": false,
      "t": 178104.16666666645,
      "d": 325.52083333331393,
      "v": 56
    },
    {
      "midi": 63,
      "hit": false,
      "t": 178140.62499999977,
      "d": 197.91666666665697,
      "v": 18
    },
    {
      "midi": 55,
      "hit": false,
      "t": 178169.2708333331,
      "d": 218.75,
      "v": 26
    },
    {
      "midi": 61,
      "hit": false,
      "t": 178171.87499999977,
      "d": 208.33333333334303,
      "v": 25
    },
    {
      "midi": 72,
      "hit": false,
      "t": 178455.72916666642,
      "d": 401.04166666668607,
      "v": 51
    },
    {
      "midi": 68,
      "hit": false,
      "t": 178861.97916666645,
      "d": 2851.562499999971,
      "v": 41
    },
    {
      "midi": 44,
      "hit": false,
      "t": 178911.45833333314,
      "d": 455.72916666665697,
      "v": 28
    },
    {
      "midi": 51,
      "hit": false,
      "t": 179955.72916666645,
      "d": 1747.395833333314,
      "v": 32
    },
    {
      "midi": 60,
      "hit": false,
      "t": 179997.3958333331,
      "d": 1585.9375,
      "v": 21
    }
  ]
}