{
  "jsonPath": "Rock/Pop Rock/Graham Colton/new-years-resolution.json",
  "path": "Rock\\Pop Rock\\Graham Colton\\New Years Resolution.mid",
  "name": "New Years Resolution",
  "difficulty": "Advanced",
  "bpm": 69.99998833333528,
  "notes": [
    {
      "midi": 56,
      "hit": false,
      "t": 12000.001999999999,
      "d": 857.143,
      "v": 127
    },
    {
      "midi": 68,
      "hit": false,
      "t": 12428.573499999999,
      "d": 857.143,
      "v": 127
    },
    {
      "midi": 61,
      "hit": false,
      "t": 13071.43075,
      "d": 428.5714999999982,
      "v": 127
    },
    {
      "midi": 65,
      "hit": false,
      "t": 13071.43075,
      "d": 428.5714999999982,
      "v": 127
    },
    {
      "midi": 70,
      "hit": false,
      "t": 13500.002249999998,
      "d": 214.2857499999991,
      "v": 127
    },
    {
      "midi": 58,
      "hit": false,
      "t": 13714.287999999997,
      "d": 642.8572500000009,
      "v": 127
    },
    {
      "midi": 61,
      "hit": false,
      "t": 13714.287999999997,
      "d": 1500.000250000001,
      "v": 127
    },
    {
      "midi": 66,
      "hit": false,
      "t": 13714.287999999997,
      "d": 1500.000250000001,
      "v": 127
    },
    {
      "midi": 70,
      "hit": false,
      "t": 13714.287999999997,
      "d": 1500.000250000001,
      "v": 127
    },
    {
      "midi": 73,
      "hit": false,
      "t": 13714.287999999997,
      "d": 1500.000250000001,
      "v": 127
    },
    {
      "midi": 78,
      "hit": false,
      "t": 13714.287999999997,
      "d": 1714.286,
      "v": 127
    },
    {
      "midi": 58,
      "hit": false,
      "t": 14571.430999999997,
      "d": 857.143,
      "v": 127
    },
    {
      "midi": 56,
      "hit": false,
      "t": 15428.573999999997,
      "d": 428.5715,
      "v": 127
    },
    {
      "midi": 68,
      "hit": false,
      "t": 15428.573999999997,
      "d": 1071.4287499999991,
      "v": 127
    },
    {
      "midi": 72,
      "hit": false,
      "t": 15428.573999999997,
      "d": 1285.7144999999982,
      "v": 127
    },
    {
      "midi": 60,
      "hit": false,
      "t": 15428.573999999997,
      "d": 1500.0002499999973,
      "v": 127
    },
    {
      "midi": 63,
      "hit": false,
      "t": 15428.573999999997,
      "d": 1500.0002499999973,
      "v": 127
    },
    {
      "midi": 75,
      "hit": false,
      "t": 15428.573999999997,
      "d": 1500.0002499999973,
      "v": 127
    },
    {
      "midi": 56,
      "hit": false,
      "t": 16285.716999999997,
      "d": 2571.4289999999964,
      "v": 127
    },
    {
      "midi": 68,
      "hit": false,
      "t": 16714.288499999995,
      "d": 1928.5717499999992,
      "v": 127
    },
    {
      "midi": 61,
      "hit": false,
      "t": 17142.859999999993,
      "d": 642.8572500000009,
      "v": 127
    },
    {
      "midi": 65,
      "hit": false,
      "t": 17142.859999999993,
      "d": 857.143,
      "v": 127
    },
    {
      "midi": 73,
      "hit": false,
      "t": 17142.859999999993,
      "d": 1714.286,
      "v": 127
    },
    {
      "midi": 77,
      "hit": false,
      "t": 17142.859999999993,
      "d": 2571.4289999999964,
      "v": 127
    },
    {
      "midi": 61,
      "hit": false,
      "t": 18000.002999999993,
      "d": 1285.7144999999982,
      "v": 127
    },
    {
      "midi": 65,
      "hit": false,
      "t": 18428.574499999995,
      "d": 1285.7144999999946,
      "v": 127
    },
    {
      "midi": 73,
      "hit": false,
      "t": 18857.145999999993,
      "d": 642.8572499999973,
      "v": 127
    },
    {
      "midi": 56,
      "hit": false,
      "t": 18857.145999999993,
      "d": 1285.7144999999946,
      "v": 127
    },
    {
      "midi": 68,
      "hit": false,
      "t": 18857.145999999993,
      "d": 1285.7144999999946,
      "v": 127
    },
    {
      "midi": 59,
      "hit": false,
      "t": 19285.71749999999,
      "d": 642.8572499999973,
      "v": 127
    },
    {
      "midi": 71,
      "hit": false,
      "t": 19714.28899999999,
      "d": 428.5714999999982,
      "v": 127
    },
    {
      "midi": 61,
      "hit": false,
      "t": 19714.28899999999,
      "d": 2357.1432499999974,
      "v": 127
    },
    {
      "midi": 65,
      "hit": false,
      "t": 20142.860499999988,
      "d": 214.2857499999991,
      "v": 127
    },
    {
      "midi": 70,
      "hit": false,
      "t": 20571.431999999986,
      "d": 1285.7145000000019,
      "v": 127
    },
    {
      "midi": 58,
      "hit": false,
      "t": 20571.431999999986,
      "d": 1500.000250000001,
      "v": 127
    },
    {
      "midi": 66,
      "hit": false,
      "t": 20571.431999999986,
      "d": 1500.000250000001,
      "v": 127
    },
    {
      "midi": 73,
      "hit": false,
      "t": 20571.431999999986,
      "d": 1500.000250000001,
      "v": 127
    },
    {
      "midi": 78,
      "hit": false,
      "t": 21428.574999999986,
      "d": 857.143,
      "v": 127
    },
    {
      "midi": 70,
      "hit": false,
      "t": 21857.146499999988,
      "d": 428.5714999999982,
      "v": 127
    },
    {
      "midi": 56,
      "hit": false,
      "t": 22285.717999999986,
      "d": 642.8572499999973,
      "v": 127
    },
    {
      "midi": 63,
      "hit": false,
      "t": 22285.717999999986,
      "d": 857.1429999999964,
      "v": 127
    },
    {
      "midi": 60,
      "hit": false,
      "t": 22285.717999999986,
      "d": 1500.0002499999937,
      "v": 127
    },
    {
      "midi": 72,
      "hit": false,
      "t": 22285.717999999986,
      "d": 1500.0002499999937,
      "v": 127
    },
    {
      "midi": 75,
      "hit": false,
      "t": 22285.717999999986,
      "d": 1500.0002499999937,
      "v": 127
    },
    {
      "midi": 68,
      "hit": false,
      "t": 22714.289499999984,
      "d": 642.8572499999973,
      "v": 127
    },
    {
      "midi": 56,
      "hit": false,
      "t": 23142.860999999983,
      "d": 3857.1434999999983,
      "v": 127
    },
    {
      "midi": 63,
      "hit": false,
      "t": 23571.43249999998,
      "d": 428.5714999999982,
      "v": 127
    },
    {
      "midi": 61,
      "hit": false,
      "t": 24000.00399999998,
      "d": 642.8572500000009,
      "v": 127
    },
    {
      "midi": 65,
      "hit": false,
      "t": 24000.00399999998,
      "d": 642.8572500000009,
      "v": 127
    },
    {
      "midi": 73,
      "hit": false,
      "t": 24000.00399999998,
      "d": 1500.000250000001,
      "v": 127
    },
    {
      "midi": 77,
      "hit": false,
      "t": 24000.00399999998,
      "d": 1500.000250000001,
      "v": 127
    },
    {
      "midi": 68,
      "hit": false,
      "t": 24000.00399999998,
      "d": 1714.286,
      "v": 127
    },
    {
      "midi": 65,
      "hit": false,
      "t": 24857.14699999998,
      "d": 642.8572500000009,
      "v": 127
    },
    {
      "midi": 61,
      "hit": false,
      "t": 24857.14699999998,
      "d": 857.143,
      "v": 127
    },
    {
      "midi": 59,
      "hit": false,
      "t": 25714.28999999998,
      "d": 642.8572500000009,
      "v": 127
    },
    {
      "midi": 63,
      "hit": false,
      "t": 25714.28999999998,
      "d": 642.8572500000009,
      "v": 127
    },
    {
      "midi": 71,
      "hit": false,
      "t": 25714.28999999998,
      "d": 642.8572500000009,
      "v": 127
    },
    {
      "midi": 75,
      "hit": false,
      "t": 25714.28999999998,
      "d": 642.8572500000009,
      "v": 127
    },
    {
      "midi": 71,
      "hit": false,
      "t": 26571.43299999998,
      "d": 428.57150000000183,
      "v": 127
    },
    {
      "midi": 59,
      "hit": false,
      "t": 26571.43299999998,
      "d": 642.8572500000009,
      "v": 127
    },
    {
      "midi": 63,
      "hit": false,
      "t": 26571.43299999998,
      "d": 642.8572500000009,
      "v": 127
    },
    {
      "midi": 75,
      "hit": false,
      "t": 26571.43299999998,
      "d": 642.8572500000009,
      "v": 127
    },
    {
      "midi": 65,
      "hit": false,
      "t": 27428.57599999998,
      "d": 214.2857499999991,
      "v": 127
    },
    {
      "midi": 58,
      "hit": false,
      "t": 27428.57599999998,
      "d": 642.8572500000009,
      "v": 127
    },
    {
      "midi": 61,
      "hit": false,
      "t": 27428.57599999998,
      "d": 1500.000250000001,
      "v": 127
    },
    {
      "midi": 66,
      "hit": false,
      "t": 27428.57599999998,
      "d": 1500.000250000001,
      "v": 127
    },
    {
      "midi": 70,
      "hit": false,
      "t": 27428.57599999998,
      "d": 1500.000250000001,
      "v": 127
    },
    {
      "midi": 73,
      "hit": false,
      "t": 27428.57599999998,
      "d": 1500.000250000001,
      "v": 127
    },
    {
      "midi": 58,
      "hit": false,
      "t": 28071.43324999998,
      "d": 642.8572500000009,
      "v": 127
    },
    {
      "midi": 78,
      "hit": false,
      "t": 28285.71899999998,
      "d": 642.8572500000009,
      "v": 127
    },
    {
      "midi": 56,
      "hit": false,
      "t": 28928.57624999998,
      "d": 642.8572500000009,
      "v": 127
    },
    {
      "midi": 60,
      "hit": false,
      "t": 28928.57624999998,
      "d": 1285.7145000000019,
      "v": 127
    },
    {
      "midi": 63,
      "hit": false,
      "t": 28928.57624999998,
      "d": 1285.7145000000019,
      "v": 127
    },
    {
      "midi": 56,
      "hit": false,
      "t": 30000.004999999983,
      "d": 428.5714999999982,
      "v": 127
    },
    {
      "midi": 56,
      "hit": false,
      "t": 30857.14799999998,
      "d": 1714.286,
      "v": 127
    },
    {
      "midi": 61,
      "hit": false,
      "t": 30857.14799999998,
      "d": 1714.286,
      "v": 127
    },
    {
      "midi": 65,
      "hit": false,
      "t": 30857.14799999998,
      "d": 1714.286,
      "v": 127
    },
    {
      "midi": 61,
      "hit": false,
      "t": 32571.43399999998,
      "d": 1285.7145000000019,
      "v": 127
    },
    {
      "midi": 65,
      "hit": false,
      "t": 32571.43399999998,
      "d": 1285.7145000000019,
      "v": 127
    },
    {
      "midi": 58,
      "hit": false,
      "t": 32571.43399999998,
      "d": 1500.0002500000046,
      "v": 127
    },
    {
      "midi": 58,
      "hit": false,
      "t": 34285.71999999999,
      "d": 1714.2859999999928,
      "v": 127
    },
    {
      "midi": 55,
      "hit": false,
      "t": 34285.71999999999,
      "d": 3214.28624999999,
      "v": 127
    },
    {
      "midi": 51,
      "hit": false,
      "t": 35142.86299999998,
      "d": 857.1429999999964,
      "v": 127
    },
    {
      "midi": 63,
      "hit": false,
      "t": 36000.00599999998,
      "d": 857.1429999999964,
      "v": 127
    },
    {
      "midi": 58,
      "hit": false,
      "t": 36000.00599999998,
      "d": 1500.0002499999973,
      "v": 127
    },
    {
      "midi": 61,
      "hit": false,
      "t": 36857.148999999976,
      "d": 642.8572500000009,
      "v": 127
    },
    {
      "midi": 63,
      "hit": false,
      "t": 37714.29199999998,
      "d": 642.8572500000009,
      "v": 127
    },
    {
      "midi": 56,
      "hit": false,
      "t": 37714.29199999998,
      "d": 857.1430000000037,
      "v": 127
    },
    {
      "midi": 60,
      "hit": false,
      "t": 37714.29199999998,
      "d": 1500.0002500000046,
      "v": 127
    },
    {
      "midi": 63,
      "hit": false,
      "t": 38571.43499999998,
      "d": 642.8572500000009,
      "v": 127
    },
    {
      "midi": 56,
      "hit": false,
      "t": 39000.00649999998,
      "d": 428.57150000000547,
      "v": 127
    },
    {
      "midi": 61,
      "hit": false,
      "t": 39428.57799999999,
      "d": 428.5714999999982,
      "v": 127
    },
    {
      "midi": 54,
      "hit": false,
      "t": 39428.57799999999,
      "d": 857.1429999999964,
      "v": 127
    },
    {
      "midi": 58,
      "hit": false,
      "t": 39428.57799999999,
      "d": 1500.0002499999973,
      "v": 127
    },
    {
      "midi": 61,
      "hit": false,
      "t": 40285.72099999998,
      "d": 642.8572500000009,
      "v": 127
    },
    {
      "midi": 54,
      "hit": false,
      "t": 40714.29249999998,
      "d": 214.28575000000274,
      "v": 127
    },
    {
      "midi": 53,
      "hit": false,
      "t": 41142.86399999999,
      "d": 857.1429999999964,
      "v": 127
    },
    {
      "midi": 56,
      "hit": false,
      "t": 41142.86399999999,
      "d": 1500.0002499999973,
      "v": 127
    },
    {
      "midi": 60,
      "hit": false,
      "t": 41142.86399999999,
      "d": 1500.0002499999973,
      "v": 127
    },
    {
      "midi": 65,
      "hit": false,
      "t": 42000.00699999998,
      "d": 428.5714999999982,
      "v": 127
    },
    {
      "midi": 53,
      "hit": false,
      "t": 42428.57849999998,
      "d": 214.28575000000274,
      "v": 127
    },
    {
      "midi": 51,
      "hit": false,
      "t": 42857.14999999999,
      "d": 1285.7145000000019,
      "v": 127
    },
    {
      "midi": 54,
      "hit": false,
      "t": 42857.14999999999,
      "d": 1285.7145000000019,
      "v": 127
    },
    {
      "midi": 58,
      "hit": false,
      "t": 42857.14999999999,
      "d": 1285.7145000000019,
      "v": 127
    },
    {
      "midi": 65,
      "hit": false,
      "t": 44571.43599999999,
      "d": 642.8572500000009,
      "v": 127
    },
    {
      "midi": 56,
      "hit": false,
      "t": 44571.43599999999,
      "d": 857.1430000000037,
      "v": 127
    },
    {
      "midi": 61,
      "hit": false,
      "t": 44571.43599999999,
      "d": 3428.572,
      "v": 127
    },
    {
      "midi": 65,
      "hit": false,
      "t": 45428.57899999999,
      "d": 2142.8574999999983,
      "v": 127
    },
    {
      "midi": 56,
      "hit": false,
      "t": 45857.15049999999,
      "d": 1500.0002499999973,
      "v": 127
    },
    {
      "midi": 56,
      "hit": false,
      "t": 47571.43649999999,
      "d": 428.5714999999982,
      "v": 127
    },
    {
      "midi": 56,
      "hit": false,
      "t": 48000.00799999999,
      "d": 642.8572500000009,
      "v": 127
    },
    {
      "midi": 65,
      "hit": false,
      "t": 48000.00799999999,
      "d": 642.8572500000009,
      "v": 127
    },
    {
      "midi": 61,
      "hit": false,
      "t": 48000.00799999999,
      "d": 857.1430000000037,
      "v": 127
    },
    {
      "midi": 65,
      "hit": false,
      "t": 48857.15099999999,
      "d": 642.8572500000009,
      "v": 127
    },
    {
      "midi": 56,
      "hit": false,
      "t": 48857.15099999999,
      "d": 857.1430000000037,
      "v": 127
    },
    {
      "midi": 61,
      "hit": false,
      "t": 48857.15099999999,
      "d": 857.1430000000037,
      "v": 127
    },
    {
      "midi": 59,
      "hit": false,
      "t": 49714.293999999994,
      "d": 642.8572500000009,
      "v": 127
    },
    {
      "midi": 63,
      "hit": false,
      "t": 49714.293999999994,
      "d": 642.8572500000009,
      "v": 127
    },
    {
      "midi": 61,
      "hit": false,
      "t": 50571.437,
      "d": 642.8572500000009,
      "v": 127
    },
    {
      "midi": 65,
      "hit": false,
      "t": 50571.437,
      "d": 642.8572500000009,
      "v": 127
    },
    {
      "midi": 58,
      "hit": false,
      "t": 51428.58,
      "d": 1714.286,
      "v": 127
    },
    {
      "midi": 61,
      "hit": false,
      "t": 51428.58,
      "d": 1714.286,
      "v": 127
    },
    {
      "midi": 66,
      "hit": false,
      "t": 51428.58,
      "d": 1714.286,
      "v": 127
    },
    {
      "midi": 56,
      "hit": false,
      "t": 53142.866,
      "d": 857.1430000000037,
      "v": 127
    },
    {
      "midi": 60,
      "hit": false,
      "t": 53142.866,
      "d": 1714.286,
      "v": 127
    },
    {
      "midi": 63,
      "hit": false,
      "t": 53142.866,
      "d": 1714.286,
      "v": 127
    },
    {
      "midi": 68,
      "hit": false,
      "t": 54000.009000000005,
      "d": 428.5714999999982,
      "v": 127
    },
    {
      "midi": 56,
      "hit": false,
      "t": 54428.580500000004,
      "d": 428.5714999999982,
      "v": 127
    },
    {
      "midi": 65,
      "hit": false,
      "t": 54857.152,
      "d": 642.8572500000009,
      "v": 127
    },
    {
      "midi": 56,
      "hit": false,
      "t": 54857.152,
      "d": 857.1430000000037,
      "v": 127
    },
    {
      "midi": 61,
      "hit": false,
      "t": 54857.152,
      "d": 1500.0002500000046,
      "v": 127
    },
    {
      "midi": 65,
      "hit": false,
      "t": 55714.295000000006,
      "d": 642.8572500000009,
      "v": 127
    },
    {
      "midi": 56,
      "hit": false,
      "t": 56357.15225000001,
      "d": 214.28575000000274,
      "v": 127
    },
    {
      "midi": 59,
      "hit": false,
      "t": 56571.43800000001,
      "d": 642.8572500000009,
      "v": 127
    },
    {
      "midi": 63,
      "hit": false,
      "t": 56571.43800000001,
      "d": 642.8572500000009,
      "v": 127
    },
    {
      "midi": 61,
      "hit": false,
      "t": 57428.58100000001,
      "d": 642.8572500000009,
      "v": 127
    },
    {
      "midi": 65,
      "hit": false,
      "t": 57428.58100000001,
      "d": 642.8572500000009,
      "v": 127
    },
    {
      "midi": 61,
      "hit": false,
      "t": 58285.72400000002,
      "d": 1500.0002499999973,
      "v": 127
    },
    {
      "midi": 58,
      "hit": false,
      "t": 58285.72400000002,
      "d": 1714.286,
      "v": 127
    },
    {
      "midi": 66,
      "hit": false,
      "t": 58285.72400000002,
      "d": 1714.286,
      "v": 127
    },
    {
      "midi": 56,
      "hit": false,
      "t": 60000.01000000002,
      "d": 857.1430000000037,
      "v": 127
    },
    {
      "midi": 63,
      "hit": false,
      "t": 60000.01000000002,
      "d": 1500.0002500000046,
      "v": 127
    },
    {
      "midi": 60,
      "hit": false,
      "t": 60000.01000000002,
      "d": 1714.2860000000073,
      "v": 127
    },
    {
      "midi": 66,
      "hit": false,
      "t": 60857.15300000002,
      "d": 428.5714999999982,
      "v": 127
    },
    {
      "midi": 56,
      "hit": false,
      "t": 61285.72450000002,
      "d": 214.28575000000274,
      "v": 127
    },
    {
      "midi": 65,
      "hit": false,
      "t": 61714.296000000024,
      "d": 642.8572500000009,
      "v": 127
    },
    {
      "midi": 56,
      "hit": false,
      "t": 61714.296000000024,
      "d": 1500.0002500000046,
      "v": 127
    },
    {
      "midi": 61,
      "hit": false,
      "t": 61714.296000000024,
      "d": 1714.2860000000073,
      "v": 127
    },
    {
      "midi": 65,
      "hit": false,
      "t": 62571.43900000003,
      "d": 1500.0002500000046,
      "v": 127
    },
    {
      "midi": 58,
      "hit": false,
      "t": 63428.58200000003,
      "d": 1500.0002500000046,
      "v": 127
    },
    {
      "midi": 61,
      "hit": false,
      "t": 63428.58200000003,
      "d": 1500.0002500000046,
      "v": 127
    },
    {
      "midi": 65,
      "hit": false,
      "t": 64285.725000000035,
      "d": 642.8572500000009,
      "v": 127
    },
    {
      "midi": 60,
      "hit": false,
      "t": 65142.86800000004,
      "d": 3214.2862499999974,
      "v": 127
    },
    {
      "midi": 56,
      "hit": false,
      "t": 65571.43950000004,
      "d": 428.57150000000547,
      "v": 127
    },
    {
      "midi": 63,
      "hit": false,
      "t": 66000.01100000004,
      "d": 642.8572500000009,
      "v": 127
    },
    {
      "midi": 56,
      "hit": false,
      "t": 66428.58250000005,
      "d": 428.5714999999909,
      "v": 127
    },
    {
      "midi": 63,
      "hit": false,
      "t": 66857.15400000004,
      "d": 642.8572500000009,
      "v": 127
    },
    {
      "midi": 63,
      "hit": false,
      "t": 67714.29700000004,
      "d": 428.57150000000547,
      "v": 127
    },
    {
      "midi": 56,
      "hit": false,
      "t": 68142.86850000004,
      "d": 428.5714999999909,
      "v": 127
    },
    {
      "midi": 73,
      "hit": false,
      "t": 68526.79713541667,
      "d": 1562.5002604166657,
      "v": 127
    },
    {
      "midi": 63,
      "hit": false,
      "t": 68544.65428125,
      "d": 1598.2145520833292,
      "v": 127
    },
    {
      "midi": 61,
      "hit": false,
      "t": 68553.58285416667,
      "d": 1553.5716874999925,
      "v": 127
    },
    {
      "midi": 68,
      "hit": false,
      "t": 68553.58285416667,
      "d": 6026.786718749994,
      "v": 127
    },
    {
      "midi": 56,
      "hit": false,
      "t": 68571.44000000003,
      "d": 1500.0002499999973,
      "v": 127
    },
    {
      "midi": 60,
      "hit": false,
      "t": 68571.44000000003,
      "d": 1500.0002499999973,
      "v": 127
    },
    {
      "midi": 63,
      "hit": false,
      "t": 68571.44000000003,
      "d": 1500.0002499999973,
      "v": 127
    },
    {
      "midi": 56,
      "hit": false,
      "t": 68598.22571875,
      "d": 5964.286708333326,
      "v": 127
    },
    {
      "midi": 75,
      "hit": false,
      "t": 68910.72577083333,
      "d": 5669.64380208333,
      "v": 127
    },
    {
      "midi": 63,
      "hit": false,
      "t": 70241.08313541666,
      "d": 4303.572145833328,
      "v": 127
    },
    {
      "midi": 60,
      "hit": false,
      "t": 70258.94028124999,
      "d": 4294.64357291667,
      "v": 127
    },
    {
      "midi": 72,
      "hit": false,
      "t": 70258.94028124999,
      "d": 4330.357864583348,
      "v": 127
    },
    {
      "midi": 61,
      "hit": false,
      "t": 70285.72600000002,
      "d": 642.8572500000009,
      "v": 127
    },
    {
      "midi": 54,
      "hit": false,
      "t": 70285.72600000002,
      "d": 1071.4287499999919,
      "v": 127
    },
    {
      "midi": 58,
      "hit": false,
      "t": 70285.72600000002,
      "d": 1500.0002499999828,
      "v": 127
    },
    {
      "midi": 61,
      "hit": false,
      "t": 71142.86900000002,
      "d": 642.8572499999864,
      "v": 127
    },
    {
      "midi": 54,
      "hit": false,
      "t": 71571.44050000001,
      "d": 428.5714999999909,
      "v": 127
    },
    {
      "midi": 60,
      "hit": false,
      "t": 72000.012,
      "d": 642.8572500000009,
      "v": 127
    },
    {
      "midi": 53,
      "hit": false,
      "t": 72000.012,
      "d": 857.1429999999964,
      "v": 127
    },
    {
      "midi": 56,
      "hit": false,
      "t": 72000.012,
      "d": 1500.0002499999973,
      "v": 127
    },
    {
      "midi": 60,
      "hit": false,
      "t": 72857.155,
      "d": 642.8572500000009,
      "v": 127
    },
    {
      "midi": 53,
      "hit": false,
      "t": 73285.7265,
      "d": 214.28574999999546,
      "v": 127
    },
    {
      "midi": 58,
      "hit": false,
      "t": 73714.298,
      "d": 642.8572500000009,
      "v": 127
    },
    {
      "midi": 51,
      "hit": false,
      "t": 73714.298,
      "d": 857.1429999999964,
      "v": 127
    },
    {
      "midi": 54,
      "hit": false,
      "t": 73714.298,
      "d": 1285.7145000000019,
      "v": 127
    },
    {
      "midi": 58,
      "hit": false,
      "t": 74571.44099999999,
      "d": 428.57150000000547,
      "v": 127
    },
    {
      "midi": 56,
      "hit": false,
      "t": 75428.584,
      "d": 857.1429999999964,
      "v": 127
    },
    {
      "midi": 61,
      "hit": false,
      "t": 75428.584,
      "d": 1714.2860000000073,
      "v": 127
    },
    {
      "midi": 65,
      "hit": false,
      "t": 75428.584,
      "d": 1714.2860000000073,
      "v": 127
    },
    {
      "midi": 70,
      "hit": false,
      "t": 76285.727,
      "d": 428.57150000000547,
      "v": 127
    },
    {
      "midi": 56,
      "hit": false,
      "t": 76714.2985,
      "d": 1500.0002499999973,
      "v": 127
    },
    {
      "midi": 65,
      "hit": false,
      "t": 77142.87000000001,
      "d": 642.8572500000009,
      "v": 127
    },
    {
      "midi": 61,
      "hit": false,
      "t": 77142.87000000001,
      "d": 2357.1432499999937,
      "v": 127
    },
    {
      "midi": 65,
      "hit": false,
      "t": 78000.013,
      "d": 1071.4287499999919,
      "v": 127
    },
    {
      "midi": 56,
      "hit": false,
      "t": 78428.5845,
      "d": 1071.4287500000064,
      "v": 127
    },
    {
      "midi": 61,
      "hit": false,
      "t": 79714.299,
      "d": 642.8572500000009,
      "v": 127
    },
    {
      "midi": 65,
      "hit": false,
      "t": 79714.299,
      "d": 642.8572500000009,
      "v": 127
    },
    {
      "midi": 56,
      "hit": false,
      "t": 79714.299,
      "d": 857.1429999999964,
      "v": 127
    },
    {
      "midi": 59,
      "hit": false,
      "t": 80571.442,
      "d": 642.8572500000009,
      "v": 127
    },
    {
      "midi": 63,
      "hit": false,
      "t": 80571.442,
      "d": 642.8572500000009,
      "v": 127
    },
    {
      "midi": 60,
      "hit": false,
      "t": 81428.58499999999,
      "d": 214.28574999999546,
      "v": 127
    },
    {
      "midi": 61,
      "hit": false,
      "t": 81428.58499999999,
      "d": 642.8572500000009,
      "v": 127
    },
    {
      "midi": 65,
      "hit": false,
      "t": 81428.58499999999,
      "d": 642.8572500000009,
      "v": 127
    },
    {
      "midi": 61,
      "hit": false,
      "t": 82285.72799999999,
      "d": 1500.0002499999973,
      "v": 127
    },
    {
      "midi": 58,
      "hit": false,
      "t": 82285.72799999999,
      "d": 1714.2859999999928,
      "v": 127
    },
    {
      "midi": 66,
      "hit": false,
      "t": 82285.72799999999,
      "d": 1714.2859999999928,
      "v": 127
    },
    {
      "midi": 56,
      "hit": false,
      "t": 84000.01399999998,
      "d": 1071.4287499999919,
      "v": 127
    },
    {
      "midi": 60,
      "hit": false,
      "t": 84000.01399999998,
      "d": 1500.0002499999828,
      "v": 127
    },
    {
      "midi": 63,
      "hit": false,
      "t": 84000.01399999998,
      "d": 1500.0002499999828,
      "v": 127
    },
    {
      "midi": 66,
      "hit": false,
      "t": 84857.15699999998,
      "d": 428.5714999999909,
      "v": 127
    },
    {
      "midi": 56,
      "hit": false,
      "t": 85285.72849999997,
      "d": 214.28574999999546,
      "v": 127
    },
    {
      "midi": 65,
      "hit": false,
      "t": 85714.29999999996,
      "d": 428.57150000000547,
      "v": 127
    },
    {
      "midi": 56,
      "hit": false,
      "t": 85714.29999999996,
      "d": 1500.0002500000119,
      "v": 127
    },
    {
      "midi": 61,
      "hit": false,
      "t": 85714.29999999996,
      "d": 1500.0002500000119,
      "v": 127
    },
    {
      "midi": 65,
      "hit": false,
      "t": 86571.44299999997,
      "d": 642.8572500000009,
      "v": 127
    },
    {
      "midi": 59,
      "hit": false,
      "t": 87428.58599999997,
      "d": 642.8572500000009,
      "v": 127
    },
    {
      "midi": 63,
      "hit": false,
      "t": 87428.58599999997,
      "d": 857.1429999999964,
      "v": 127
    },
    {
      "midi": 61,
      "hit": false,
      "t": 88285.72899999996,
      "d": 642.8572500000009,
      "v": 127
    },
    {
      "midi": 65,
      "hit": false,
      "t": 88285.72899999996,
      "d": 642.8572500000009,
      "v": 127
    },
    {
      "midi": 61,
      "hit": false,
      "t": 89142.87199999996,
      "d": 1285.7145000000019,
      "v": 127
    },
    {
      "midi": 58,
      "hit": false,
      "t": 89142.87199999996,
      "d": 1714.2860000000073,
      "v": 127
    },
    {
      "midi": 66,
      "hit": false,
      "t": 89142.87199999996,
      "d": 1714.2860000000073,
      "v": 127
    },
    {
      "midi": 61,
      "hit": false,
      "t": 90428.58649999996,
      "d": 428.57150000000547,
      "v": 127
    },
    {
      "midi": 56,
      "hit": false,
      "t": 90857.15799999997,
      "d": 1285.7145000000019,
      "v": 127
    },
    {
      "midi": 60,
      "hit": false,
      "t": 90857.15799999997,
      "d": 1500.0002499999973,
      "v": 127
    },
    {
      "midi": 63,
      "hit": false,
      "t": 90857.15799999997,
      "d": 1500.0002499999973,
      "v": 127
    },
    {
      "midi": 56,
      "hit": false,
      "t": 92357.15824999996,
      "d": 1928.5717499999882,
      "v": 127
    },
    {
      "midi": 61,
      "hit": false,
      "t": 92571.44399999996,
      "d": 1500.0002499999973,
      "v": 127
    },
    {
      "midi": 65,
      "hit": false,
      "t": 92571.44399999996,
      "d": 1500.0002499999973,
      "v": 127
    },
    {
      "midi": 58,
      "hit": false,
      "t": 94285.72999999995,
      "d": 1500.0002499999973,
      "v": 127
    },
    {
      "midi": 61,
      "hit": false,
      "t": 94285.72999999995,
      "d": 1500.0002499999973,
      "v": 127
    },
    {
      "midi": 65,
      "hit": false,
      "t": 94285.72999999995,
      "d": 1500.0002499999973,
      "v": 127
    },
    {
      "midi": 66,
      "hit": false,
      "t": 96000.01599999995,
      "d": 214.28574999999546,
      "v": 127
    },
    {
      "midi": 61,
      "hit": false,
      "t": 96000.01599999995,
      "d": 1500.0002499999973,
      "v": 127
    },
    {
      "midi": 58,
      "hit": false,
      "t": 96000.01599999995,
      "d": 1714.2859999999928,
      "v": 127
    },
    {
      "midi": 66,
      "hit": false,
      "t": 96857.15899999994,
      "d": 642.8572500000009,
      "v": 127
    },
    {
      "midi": 56,
      "hit": false,
      "t": 97714.30199999994,
      "d": 857.1429999999964,
      "v": 127
    },
    {
      "midi": 60,
      "hit": false,
      "t": 97714.30199999994,
      "d": 1500.0002499999973,
      "v": 127
    },
    {
      "midi": 63,
      "hit": false,
      "t": 97714.30199999994,
      "d": 1500.0002499999973,
      "v": 127
    },
    {
      "midi": 56,
      "hit": false,
      "t": 99000.01649999994,
      "d": 214.28574999999546,
      "v": 127
    },
    {
      "midi": 65,
      "hit": false,
      "t": 99428.58799999993,
      "d": 1285.7145000000019,
      "v": 127
    },
    {
      "midi": 56,
      "hit": false,
      "t": 99428.58799999993,
      "d": 1928.5717500000028,
      "v": 127
    },
    {
      "midi": 61,
      "hit": false,
      "t": 99428.58799999993,
      "d": 3428.5719999999856,
      "v": 127
    },
    {
      "midi": 65,
      "hit": false,
      "t": 101142.87399999994,
      "d": 642.8572499999864,
      "v": 127
    },
    {
      "midi": 56,
      "hit": false,
      "t": 101571.44549999993,
      "d": 428.5714999999909,
      "v": 127
    },
    {
      "midi": 65,
      "hit": false,
      "t": 102000.01699999992,
      "d": 642.8572500000009,
      "v": 127
    },
    {
      "midi": 56,
      "hit": false,
      "t": 102428.58849999993,
      "d": 2142.8574999999983,
      "v": 127
    },
    {
      "midi": 65,
      "hit": false,
      "t": 102857.15999999992,
      "d": 1285.7145000000019,
      "v": 127
    },
    {
      "midi": 61,
      "hit": false,
      "t": 102857.15999999992,
      "d": 3214.286250000019,
      "v": 127
    },
    {
      "midi": 65,
      "hit": false,
      "t": 104571.44599999992,
      "d": 428.57150000000547,
      "v": 127
    },
    {
      "midi": 56,
      "hit": false,
      "t": 105000.01749999993,
      "d": 428.57150000000547,
      "v": 127
    },
    {
      "midi": 65,
      "hit": false,
      "t": 105428.58899999993,
      "d": 428.57150000000547,
      "v": 127
    },
    {
      "midi": 56,
      "hit": false,
      "t": 105857.16049999994,
      "d": 428.5714999999909,
      "v": 127
    },
    {
      "midi": 57,
      "hit": false,
      "t": 106285.73199999993,
      "d": 642.8572500000009,
      "v": 127
    },
    {
      "midi": 60,
      "hit": false,
      "t": 106285.73199999993,
      "d": 857.1429999999964,
      "v": 127
    },
    {
      "midi": 60,
      "hit": false,
      "t": 107142.87499999993,
      "d": 857.1429999999964,
      "v": 127
    },
    {
      "midi": 53,
      "hit": false,
      "t": 107142.87499999993,
      "d": 2142.8574999999837,
      "v": 127
    },
    {
      "midi": 57,
      "hit": false,
      "t": 107142.87499999993,
      "d": 2357.143249999979,
      "v": 127
    },
    {
      "midi": 60,
      "hit": false,
      "t": 108000.01799999992,
      "d": 1500.0002499999828,
      "v": 127
    },
    {
      "midi": 63,
      "hit": false,
      "t": 108214.30374999992,
      "d": 857.1429999999964,
      "v": 127
    },
    {
      "midi": 65,
      "hit": false,
      "t": 109071.44674999992,
      "d": 642.8572499999864,
      "v": 127
    },
    {
      "midi": 65,
      "hit": false,
      "t": 109928.5897499999,
      "d": 642.8572500000009,
      "v": 127
    },
    {
      "midi": 58,
      "hit": false,
      "t": 109928.5897499999,
      "d": 857.1429999999964,
      "v": 127
    },
    {
      "midi": 61,
      "hit": false,
      "t": 109928.5897499999,
      "d": 2357.1432499999937,
      "v": 127
    },
    {
      "midi": 65,
      "hit": false,
      "t": 110785.7327499999,
      "d": 1500.0002499999973,
      "v": 127
    },
    {
      "midi": 58,
      "hit": false,
      "t": 111000.01849999989,
      "d": 428.57150000000547,
      "v": 127
    },
    {
      "midi": 68,
      "hit": false,
      "t": 111642.87574999989,
      "d": 428.57150000000547,
      "v": 127
    },
    {
      "midi": 58,
      "hit": false,
      "t": 112071.4472499999,
      "d": 214.28574999999546,
      "v": 127
    },
    {
      "midi": 61,
      "hit": false,
      "t": 112285.73299999989,
      "d": 428.57150000000547,
      "v": 127
    },
    {
      "midi": 65,
      "hit": false,
      "t": 112285.73299999989,
      "d": 428.57150000000547,
      "v": 127
    },
    {
      "midi": 58,
      "hit": false,
      "t": 112714.3044999999,
      "d": 214.28574999999546,
      "v": 127
    },
    {
      "midi": 57,
      "hit": false,
      "t": 113142.87599999989,
      "d": 857.1429999999964,
      "v": 127
    },
    {
      "midi": 61,
      "hit": false,
      "t": 113357.16174999988,
      "d": 214.28574999999546,
      "v": 127
    },
    {
      "midi": 60,
      "hit": false,
      "t": 114000.01899999988,
      "d": 214.28574999999546,
      "v": 127
    },
    {
      "midi": 65,
      "hit": false,
      "t": 114000.01899999988,
      "d": 1500.0002499999973,
      "v": 127
    },
    {
      "midi": 57,
      "hit": false,
      "t": 114000.01899999988,
      "d": 1714.2859999999928,
      "v": 127
    },
    {
      "midi": 53,
      "hit": false,
      "t": 114857.16199999988,
      "d": 1500.0002499999973,
      "v": 127
    },
    {
      "midi": 57,
      "hit": false,
      "t": 115928.59074999987,
      "d": 642.8572500000009,
      "v": 127
    },
    {
      "midi": 60,
      "hit": false,
      "t": 115928.59074999987,
      "d": 642.8572500000009,
      "v": 127
    },
    {
      "midi": 63,
      "hit": false,
      "t": 115928.59074999987,
      "d": 642.8572500000009,
      "v": 127
    },
    {
      "midi": 58,
      "hit": false,
      "t": 116571.44799999987,
      "d": 1714.2860000000073,
      "v": 127
    },
    {
      "midi": 61,
      "hit": false,
      "t": 116571.44799999987,
      "d": 3000.000500000009,
      "v": 127
    },
    {
      "midi": 65,
      "hit": false,
      "t": 117642.87674999988,
      "d": 642.8572500000009,
      "v": 127
    },
    {
      "midi": 65,
      "hit": false,
      "t": 118285.73399999988,
      "d": 857.1429999999964,
      "v": 127
    },
    {
      "midi": 58,
      "hit": false,
      "t": 119142.87699999988,
      "d": 642.8572500000009,
      "v": 127
    },
    {
      "midi": 58,
      "hit": false,
      "t": 120000.01999999987,
      "d": 1928.5717499999882,
      "v": 127
    },
    {
      "midi": 63,
      "hit": false,
      "t": 120000.01999999987,
      "d": 3214.28624999999,
      "v": 127
    },
    {
      "midi": 67,
      "hit": false,
      "t": 120000.01999999987,
      "d": 3214.28624999999,
      "v": 127
    },
    {
      "midi": 70,
      "hit": false,
      "t": 121714.30599999987,
      "d": 857.1429999999964,
      "v": 127
    },
    {
      "midi": 58,
      "hit": false,
      "t": 122571.44899999986,
      "d": 642.8572500000009,
      "v": 127
    },
    {
      "midi": 68,
      "hit": false,
      "t": 123428.59199999986,
      "d": 1071.4287499999919,
      "v": 127
    },
    {
      "midi": 72,
      "hit": false,
      "t": 123428.59199999986,
      "d": 2357.143249999979,
      "v": 127
    },
    {
      "midi": 75,
      "hit": false,
      "t": 124285.73499999986,
      "d": 642.8572499999864,
      "v": 127
    },
    {
      "midi": 68,
      "hit": false,
      "t": 124714.30649999985,
      "d": 428.5714999999909,
      "v": 127
    },
    {
      "midi": 75,
      "hit": false,
      "t": 125142.87799999984,
      "d": 428.57150000000547,
      "v": 127
    },
    {
      "midi": 68,
      "hit": false,
      "t": 125571.44949999984,
      "d": 1071.4287499999919,
      "v": 127
    },
    {
      "midi": 72,
      "hit": false,
      "t": 126000.02099999983,
      "d": 642.8572500000009,
      "v": 127
    },
    {
      "midi": 75,
      "hit": false,
      "t": 126000.02099999983,
      "d": 642.8572500000009,
      "v": 127
    },
    {
      "midi": 66,
      "hit": false,
      "t": 126857.16399999983,
      "d": 857.1429999999964,
      "v": 127
    },
    {
      "midi": 73,
      "hit": false,
      "t": 126857.16399999983,
      "d": 1500.0002499999973,
      "v": 127
    },
    {
      "midi": 70,
      "hit": false,
      "t": 126857.16399999983,
      "d": 3000.00049999998,
      "v": 127
    },
    {
      "midi": 78,
      "hit": false,
      "t": 127714.30699999983,
      "d": 428.57150000000547,
      "v": 127
    },
    {
      "midi": 66,
      "hit": false,
      "t": 128142.87849999983,
      "d": 1500.0002499999828,
      "v": 127
    },
    {
      "midi": 73,
      "hit": false,
      "t": 128571.44999999982,
      "d": 642.8572500000009,
      "v": 127
    },
    {
      "midi": 73,
      "hit": false,
      "t": 129428.59299999982,
      "d": 428.5714999999909,
      "v": 127
    },
    {
      "midi": 66,
      "hit": false,
      "t": 129857.16449999981,
      "d": 214.28574999999546,
      "v": 127
    },
    {
      "midi": 63,
      "hit": false,
      "t": 130285.7359999998,
      "d": 642.8572500000009,
      "v": 127
    },
    {
      "midi": 56,
      "hit": false,
      "t": 130285.7359999998,
      "d": 857.1430000000109,
      "v": 127
    },
    {
      "midi": 60,
      "hit": false,
      "t": 130285.7359999998,
      "d": 1500.0002500000119,
      "v": 127
    },
    {
      "midi": 63,
      "hit": false,
      "t": 131142.8789999998,
      "d": 642.8572500000009,
      "v": 127
    },
    {
      "midi": 56,
      "hit": false,
      "t": 131571.4504999998,
      "d": 214.28575000001,
      "v": 127
    },
    {
      "midi": 54,
      "hit": false,
      "t": 132000.02199999982,
      "d": 857.1430000000109,
      "v": 127
    },
    {
      "midi": 58,
      "hit": false,
      "t": 132000.02199999982,
      "d": 1500.000250000041,
      "v": 127
    },
    {
      "midi": 61,
      "hit": false,
      "t": 132000.02199999982,
      "d": 1500.000250000041,
      "v": 127
    },
    {
      "midi": 66,
      "hit": false,
      "t": 132857.16499999983,
      "d": 214.28575000001,
      "v": 127
    },
    {
      "midi": 54,
      "hit": false,
      "t": 133285.73649999985,
      "d": 214.28575000001,
      "v": 127
    },
    {
      "midi": 60,
      "hit": false,
      "t": 133714.30799999987,
      "d": 642.8572500000009,
      "v": 127
    },
    {
      "midi": 53,
      "hit": false,
      "t": 133714.30799999987,
      "d": 1071.4287499999919,
      "v": 127
    },
    {
      "midi": 56,
      "hit": false,
      "t": 133714.30799999987,
      "d": 1500.0002500000119,
      "v": 127
    },
    {
      "midi": 60,
      "hit": false,
      "t": 134357.16524999987,
      "d": 642.8572500000009,
      "v": 127
    },
    {
      "midi": 53,
      "hit": false,
      "t": 135000.02249999988,
      "d": 214.28575000001,
      "v": 127
    },
    {
      "midi": 51,
      "hit": false,
      "t": 135428.5939999999,
      "d": 1500.0002500000119,
      "v": 127
    },
    {
      "midi": 54,
      "hit": false,
      "t": 135428.5939999999,
      "d": 1500.0002500000119,
      "v": 127
    },
    {
      "midi": 58,
      "hit": false,
      "t": 135428.5939999999,
      "d": 1500.0002500000119,
      "v": 127
    },
    {
      "midi": 65,
      "hit": false,
      "t": 137142.87999999992,
      "d": 642.8572500000009,
      "v": 127
    },
    {
      "midi": 56,
      "hit": false,
      "t": 137142.87999999992,
      "d": 1071.428750000021,
      "v": 127
    },
    {
      "midi": 61,
      "hit": false,
      "t": 137142.87999999992,
      "d": 3428.572000000073,
      "v": 127
    },
    {
      "midi": 65,
      "hit": false,
      "t": 138000.02299999993,
      "d": 857.1430000000109,
      "v": 127
    },
    {
      "midi": 56,
      "hit": false,
      "t": 138428.59449999995,
      "d": 1500.0002500000119,
      "v": 127
    },
    {
      "midi": 65,
      "hit": false,
      "t": 138857.16599999994,
      "d": 642.8572500000009,
      "v": 127
    },
    {
      "midi": 65,
      "hit": false,
      "t": 139714.30899999995,
      "d": 642.85725000003,
      "v": 127
    },
    {
      "midi": 56,
      "hit": false,
      "t": 140142.88049999997,
      "d": 1285.714500000031,
      "v": 127
    },
    {
      "midi": 61,
      "hit": false,
      "t": 140571.452,
      "d": 642.8572500000009,
      "v": 127
    },
    {
      "midi": 65,
      "hit": false,
      "t": 140571.452,
      "d": 642.8572500000009,
      "v": 127
    },
    {
      "midi": 65,
      "hit": false,
      "t": 141428.595,
      "d": 642.8572500000009,
      "v": 127
    },
    {
      "midi": 56,
      "hit": false,
      "t": 141428.595,
      "d": 857.1430000000109,
      "v": 127
    },
    {
      "midi": 61,
      "hit": false,
      "t": 141428.595,
      "d": 857.1430000000109,
      "v": 127
    },
    {
      "midi": 59,
      "hit": false,
      "t": 142285.738,
      "d": 642.8572500000009,
      "v": 127
    },
    {
      "midi": 63,
      "hit": false,
      "t": 142285.738,
      "d": 642.8572500000009,
      "v": 127
    },
    {
      "midi": 65,
      "hit": false,
      "t": 143142.88100000002,
      "d": 642.8572500000009,
      "v": 127
    },
    {
      "midi": 61,
      "hit": false,
      "t": 143142.88100000002,
      "d": 857.1430000000109,
      "v": 127
    },
    {
      "midi": 66,
      "hit": false,
      "t": 144000.02400000003,
      "d": 642.8572500000009,
      "v": 127
    },
    {
      "midi": 61,
      "hit": false,
      "t": 144000.02400000003,
      "d": 1500.0002500000119,
      "v": 127
    },
    {
      "midi": 58,
      "hit": false,
      "t": 144000.02400000003,
      "d": 1714.2860000000219,
      "v": 127
    },
    {
      "midi": 66,
      "hit": false,
      "t": 144857.16700000004,
      "d": 857.1430000000109,
      "v": 127
    },
    {
      "midi": 56,
      "hit": false,
      "t": 145714.31000000006,
      "d": 857.1430000000109,
      "v": 127
    },
    {
      "midi": 63,
      "hit": false,
      "t": 145714.31000000006,
      "d": 1500.0002500000119,
      "v": 127
    },
    {
      "midi": 60,
      "hit": false,
      "t": 145714.31000000006,
      "d": 1714.2860000000219,
      "v": 127
    },
    {
      "midi": 66,
      "hit": false,
      "t": 146571.45300000007,
      "d": 428.5714999999909,
      "v": 127
    },
    {
      "midi": 56,
      "hit": false,
      "t": 147000.02450000006,
      "d": 428.57150000002,
      "v": 127
    },
    {
      "midi": 61,
      "hit": false,
      "t": 147428.59600000008,
      "d": 642.8572500000009,
      "v": 127
    },
    {
      "midi": 65,
      "hit": false,
      "t": 147428.59600000008,
      "d": 642.8572500000009,
      "v": 127
    },
    {
      "midi": 56,
      "hit": false,
      "t": 147428.59600000008,
      "d": 857.1430000000109,
      "v": 127
    },
    {
      "midi": 61,
      "hit": false,
      "t": 148285.7390000001,
      "d": 642.8572500000009,
      "v": 127
    },
    {
      "midi": 65,
      "hit": false,
      "t": 148285.7390000001,
      "d": 642.8572500000009,
      "v": 127
    },
    {
      "midi": 56,
      "hit": false,
      "t": 148285.7390000001,
      "d": 857.1430000000109,
      "v": 127
    },
    {
      "midi": 59,
      "hit": false,
      "t": 149142.8820000001,
      "d": 857.1430000000109,
      "v": 127
    },
    {
      "midi": 63,
      "hit": false,
      "t": 149142.8820000001,
      "d": 1500.000250000041,
      "v": 127
    },
    {
      "midi": 60,
      "hit": false,
      "t": 150000.0250000001,
      "d": 214.28575000001,
      "v": 127
    },
    {
      "midi": 61,
      "hit": false,
      "t": 150000.0250000001,
      "d": 428.57150000002,
      "v": 127
    },
    {
      "midi": 66,
      "hit": false,
      "t": 150857.16800000015,
      "d": 642.8572500000009,
      "v": 127
    },
    {
      "midi": 58,
      "hit": false,
      "t": 150857.16800000015,
      "d": 857.1430000000109,
      "v": 127
    },
    {
      "midi": 61,
      "hit": false,
      "t": 150857.16800000015,
      "d": 1500.0002500000119,
      "v": 127
    },
    {
      "midi": 66,
      "hit": false,
      "t": 151714.31100000016,
      "d": 642.8572500000009,
      "v": 127
    },
    {
      "midi": 58,
      "hit": false,
      "t": 152142.88250000015,
      "d": 214.28575000001,
      "v": 127
    },
    {
      "midi": 56,
      "hit": false,
      "t": 152571.45400000017,
      "d": 1071.4287499999919,
      "v": 127
    },
    {
      "midi": 60,
      "hit": false,
      "t": 152571.45400000017,
      "d": 1500.0002500000119,
      "v": 127
    },
    {
      "midi": 63,
      "hit": false,
      "t": 152571.45400000017,
      "d": 1500.0002500000119,
      "v": 127
    },
    {
      "midi": 56,
      "hit": false,
      "t": 153857.16850000017,
      "d": 214.28575000001,
      "v": 127
    },
    {
      "midi": 65,
      "hit": false,
      "t": 154285.7400000002,
      "d": 857.1430000000109,
      "v": 127
    },
    {
      "midi": 56,
      "hit": false,
      "t": 154285.7400000002,
      "d": 1714.2860000000219,
      "v": 127
    },
    {
      "midi": 61,
      "hit": false,
      "t": 154285.7400000002,
      "d": 1714.2860000000219,
      "v": 127
    },
    {
      "midi": 65,
      "hit": false,
      "t": 155142.8830000002,
      "d": 857.1430000000109,
      "v": 127
    },
    {
      "midi": 65,
      "hit": false,
      "t": 156000.02600000022,
      "d": 642.8572500000009,
      "v": 127
    },
    {
      "midi": 58,
      "hit": false,
      "t": 156000.02600000022,
      "d": 857.1430000000109,
      "v": 127
    },
    {
      "midi": 61,
      "hit": false,
      "t": 156000.02600000022,
      "d": 1500.0002500000119,
      "v": 127
    },
    {
      "midi": 65,
      "hit": false,
      "t": 156857.16900000023,
      "d": 642.8572500000009,
      "v": 127
    },
    {
      "midi": 58,
      "hit": false,
      "t": 157285.74050000022,
      "d": 214.28575000001,
      "v": 127
    },
    {
      "midi": 66,
      "hit": false,
      "t": 157714.31200000024,
      "d": 428.5714999999909,
      "v": 127
    },
    {
      "midi": 58,
      "hit": false,
      "t": 157714.31200000024,
      "d": 1500.0002499999828,
      "v": 127
    },
    {
      "midi": 63,
      "hit": false,
      "t": 157714.31200000024,
      "d": 1500.0002499999828,
      "v": 127
    },
    {
      "midi": 66,
      "hit": false,
      "t": 158571.45500000022,
      "d": 642.8572500000009,
      "v": 127
    },
    {
      "midi": 56,
      "hit": false,
      "t": 159428.59800000023,
      "d": 857.1430000000109,
      "v": 127
    },
    {
      "midi": 60,
      "hit": false,
      "t": 159428.59800000023,
      "d": 1500.0002500000119,
      "v": 127
    },
    {
      "midi": 63,
      "hit": false,
      "t": 159428.59800000023,
      "d": 1500.0002500000119,
      "v": 127
    },
    {
      "midi": 66,
      "hit": false,
      "t": 160285.74100000024,
      "d": 428.5714999999909,
      "v": 127
    },
    {
      "midi": 56,
      "hit": false,
      "t": 160714.31250000023,
      "d": 214.28575000001,
      "v": 127
    },
    {
      "midi": 65,
      "hit": false,
      "t": 161142.88400000025,
      "d": 642.8572500000009,
      "v": 127
    },
    {
      "midi": 56,
      "hit": false,
      "t": 161142.88400000025,
      "d": 1714.2860000000219,
      "v": 127
    },
    {
      "midi": 61,
      "hit": false,
      "t": 161142.88400000025,
      "d": 2357.143250000023,
      "v": 127
    },
    {
      "midi": 65,
      "hit": false,
      "t": 162000.02700000026,
      "d": 642.8572500000009,
      "v": 127
    },
    {
      "midi": 65,
      "hit": false,
      "t": 162857.17000000027,
      "d": 857.1430000000109,
      "v": 127
    },
    {
      "midi": 56,
      "hit": false,
      "t": 163285.74150000027,
      "d": 1071.428750000021,
      "v": 127
    },
    {
      "midi": 59,
      "hit": false,
      "t": 163714.3130000003,
      "d": 642.8572500000009,
      "v": 127
    },
    {
      "midi": 58,
      "hit": false,
      "t": 164571.4560000003,
      "d": 1071.428750000021,
      "v": 127
    },
    {
      "midi": 61,
      "hit": false,
      "t": 164571.4560000003,
      "d": 1071.428750000021,
      "v": 127
    },
    {
      "midi": 66,
      "hit": false,
      "t": 165428.5990000003,
      "d": 642.85725000003,
      "v": 127
    },
    {
      "midi": 58,
      "hit": false,
      "t": 165857.17050000033,
      "d": 214.28575000001,
      "v": 127
    },
    {
      "midi": 61,
      "hit": false,
      "t": 165857.17050000033,
      "d": 214.28575000001,
      "v": 127
    },
    {
      "midi": 56,
      "hit": false,
      "t": 166285.74200000035,
      "d": 857.1430000000109,
      "v": 127
    },
    {
      "midi": 60,
      "hit": false,
      "t": 166285.74200000035,
      "d": 1285.7145000000019,
      "v": 127
    },
    {
      "midi": 63,
      "hit": false,
      "t": 166285.74200000035,
      "d": 1285.7145000000019,
      "v": 127
    },
    {
      "midi": 66,
      "hit": false,
      "t": 167142.88500000036,
      "d": 428.5714999999909,
      "v": 127
    },
    {
      "midi": 56,
      "hit": false,
      "t": 167571.45650000035,
      "d": 214.28575000001,
      "v": 127
    },
    {
      "midi": 65,
      "hit": false,
      "t": 168000.02800000037,
      "d": 642.8572500000009,
      "v": 127
    },
    {
      "midi": 56,
      "hit": false,
      "t": 168000.02800000037,
      "d": 857.1430000000109,
      "v": 127
    },
    {
      "midi": 61,
      "hit": false,
      "t": 168000.02800000037,
      "d": 857.1430000000109,
      "v": 127
    },
    {
      "midi": 56,
      "hit": false,
      "t": 168857.17100000038,
      "d": 642.8572500000009,
      "v": 127
    },
    {
      "midi": 61,
      "hit": false,
      "t": 168857.17100000038,
      "d": 642.8572500000009,
      "v": 127
    },
    {
      "midi": 65,
      "hit": false,
      "t": 168857.17100000038,
      "d": 642.8572500000009,
      "v": 127
    },
    {
      "midi": 56,
      "hit": false,
      "t": 169714.3140000004,
      "d": 642.8572500000009,
      "v": 127
    },
    {
      "midi": 59,
      "hit": false,
      "t": 169714.3140000004,
      "d": 642.8572500000009,
      "v": 127
    },
    {
      "midi": 63,
      "hit": false,
      "t": 169714.3140000004,
      "d": 642.8572500000009,
      "v": 127
    },
    {
      "midi": 59,
      "hit": false,
      "t": 170571.4570000004,
      "d": 642.8572500000009,
      "v": 127
    },
    {
      "midi": 63,
      "hit": false,
      "t": 170571.4570000004,
      "d": 642.8572500000009,
      "v": 127
    },
    {
      "midi": 56,
      "hit": false,
      "t": 170589.31414583375,
      "d": 642.8572500000009,
      "v": 127
    },
    {
      "midi": 66,
      "hit": false,
      "t": 171428.6000000004,
      "d": 642.8572500000009,
      "v": 127
    },
    {
      "midi": 58,
      "hit": false,
      "t": 171428.6000000004,
      "d": 1285.7145000000019,
      "v": 127
    },
    {
      "midi": 61,
      "hit": false,
      "t": 171428.6000000004,
      "d": 1285.7145000000019,
      "v": 127
    },
    {
      "midi": 66,
      "hit": false,
      "t": 172285.74300000042,
      "d": 642.8572500000009,
      "v": 127
    },
    {
      "midi": 58,
      "hit": false,
      "t": 172714.31450000042,
      "d": 214.28575000001,
      "v": 127
    },
    {
      "midi": 61,
      "hit": false,
      "t": 172714.31450000042,
      "d": 214.28575000001,
      "v": 127
    },
    {
      "midi": 56,
      "hit": false,
      "t": 173142.88600000044,
      "d": 1071.4287499999919,
      "v": 127
    },
    {
      "midi": 60,
      "hit": false,
      "t": 173142.88600000044,
      "d": 1500.0002500000119,
      "v": 127
    },
    {
      "midi": 63,
      "hit": false,
      "t": 173142.88600000044,
      "d": 1500.0002500000119,
      "v": 127
    },
    {
      "midi": 56,
      "hit": false,
      "t": 174428.60050000044,
      "d": 428.57150000002,
      "v": 127
    },
    {
      "midi": 65,
      "hit": false,
      "t": 174857.17200000046,
      "d": 642.8572500000009,
      "v": 127
    },
    {
      "midi": 56,
      "hit": false,
      "t": 174857.17200000046,
      "d": 857.1430000000109,
      "v": 127
    },
    {
      "midi": 61,
      "hit": false,
      "t": 174857.17200000046,
      "d": 857.1430000000109,
      "v": 127
    },
    {
      "midi": 65,
      "hit": false,
      "t": 175714.31500000047,
      "d": 642.8572500000009,
      "v": 127
    },
    {
      "midi": 56,
      "hit": false,
      "t": 175714.31500000047,
      "d": 857.1430000000109,
      "v": 127
    },
    {
      "midi": 61,
      "hit": false,
      "t": 175714.31500000047,
      "d": 857.1430000000109,
      "v": 127
    },
    {
      "midi": 59,
      "hit": false,
      "t": 176571.45800000048,
      "d": 642.8572500000009,
      "v": 127
    },
    {
      "midi": 63,
      "hit": false,
      "t": 176571.45800000048,
      "d": 642.8572500000009,
      "v": 127
    },
    {
      "midi": 61,
      "hit": false,
      "t": 177428.6010000005,
      "d": 642.8572500000009,
      "v": 127
    },
    {
      "midi": 65,
      "hit": false,
      "t": 177428.6010000005,
      "d": 642.8572500000009,
      "v": 127
    },
    {
      "midi": 66,
      "hit": false,
      "t": 178285.7440000005,
      "d": 857.1430000000109,
      "v": 127
    },
    {
      "midi": 61,
      "hit": false,
      "t": 178285.7440000005,
      "d": 1500.0002500000119,
      "v": 127
    },
    {
      "midi": 58,
      "hit": false,
      "t": 178285.7440000005,
      "d": 1714.2860000000219,
      "v": 127
    },
    {
      "midi": 66,
      "hit": false,
      "t": 179142.8870000005,
      "d": 642.8572500000009,
      "v": 127
    },
    {
      "midi": 60,
      "hit": false,
      "t": 180000.03000000052,
      "d": 857.1430000000109,
      "v": 127
    },
    {
      "midi": 63,
      "hit": false,
      "t": 180000.03000000052,
      "d": 857.1430000000109,
      "v": 127
    },
    {
      "midi": 56,
      "hit": false,
      "t": 180000.03000000052,
      "d": 1071.428750000021,
      "v": 127
    },
    {
      "midi": 60,
      "hit": false,
      "t": 180857.17300000053,
      "d": 857.1430000000109,
      "v": 127
    },
    {
      "midi": 63,
      "hit": false,
      "t": 180857.17300000053,
      "d": 857.1430000000109,
      "v": 127
    },
    {
      "midi": 56,
      "hit": false,
      "t": 181285.74450000055,
      "d": 428.5714999999909,
      "v": 127
    },
    {
      "midi": 65,
      "hit": false,
      "t": 181714.31600000054,
      "d": 642.8572500000009,
      "v": 127
    },
    {
      "midi": 61,
      "hit": false,
      "t": 181714.31600000054,
      "d": 1285.7145000000019,
      "v": 127
    },
    {
      "midi": 56,
      "hit": false,
      "t": 181714.31600000054,
      "d": 1714.2859999999928,
      "v": 127
    },
    {
      "midi": 65,
      "hit": false,
      "t": 182571.45900000056,
      "d": 857.1429999999818,
      "v": 127
    },
    {
      "midi": 61,
      "hit": false,
      "t": 183000.03050000055,
      "d": 428.5714999999909,
      "v": 127
    },
    {
      "midi": 65,
      "hit": false,
      "t": 183428.60200000054,
      "d": 428.5714999999909,
      "v": 127
    },
    {
      "midi": 61,
      "hit": false,
      "t": 183428.60200000054,
      "d": 857.1429999999818,
      "v": 127
    },
    {
      "midi": 58,
      "hit": false,
      "t": 183428.60200000054,
      "d": 1500.0002499999828,
      "v": 127
    },
    {
      "midi": 61,
      "hit": false,
      "t": 184285.74500000052,
      "d": 642.8572500000009,
      "v": 127
    },
    {
      "midi": 65,
      "hit": false,
      "t": 184285.74500000052,
      "d": 642.8572500000009,
      "v": 127
    },
    {
      "midi": 63,
      "hit": false,
      "t": 185142.88800000053,
      "d": 642.8572500000009,
      "v": 127
    },
    {
      "midi": 67,
      "hit": false,
      "t": 185142.88800000053,
      "d": 642.8572500000009,
      "v": 127
    },
    {
      "midi": 58,
      "hit": false,
      "t": 185142.88800000053,
      "d": 857.1430000000109,
      "v": 127
    },
    {
      "midi": 58,
      "hit": false,
      "t": 186000.03100000054,
      "d": 428.5714999999909,
      "v": 127
    },
    {
      "midi": 63,
      "hit": false,
      "t": 186000.03100000054,
      "d": 428.5714999999909,
      "v": 127
    },
    {
      "midi": 67,
      "hit": false,
      "t": 186000.03100000054,
      "d": 2357.143250000023,
      "v": 127
    },
    {
      "midi": 58,
      "hit": false,
      "t": 186428.60250000053,
      "d": 642.8572500000009,
      "v": 127
    },
    {
      "midi": 63,
      "hit": false,
      "t": 186428.60250000053,
      "d": 1714.2860000000219,
      "v": 127
    },
    {
      "midi": 70,
      "hit": false,
      "t": 186857.17400000052,
      "d": 1071.428750000021,
      "v": 127
    },
    {
      "midi": 60,
      "hit": false,
      "t": 187714.31700000053,
      "d": 214.28575000001,
      "v": 127
    },
    {
      "midi": 58,
      "hit": false,
      "t": 187714.31700000053,
      "d": 642.85725000003,
      "v": 127
    },
    {
      "midi": 56,
      "hit": false,
      "t": 188571.46000000057,
      "d": 1500.0002500000119,
      "v": 127
    },
    {
      "midi": 60,
      "hit": false,
      "t": 188571.46000000057,
      "d": 1500.0002500000119,
      "v": 127
    },
    {
      "midi": 63,
      "hit": false,
      "t": 188571.46000000057,
      "d": 1500.0002500000119,
      "v": 127
    },
    {
      "midi": 54,
      "hit": false,
      "t": 190285.7460000006,
      "d": 1714.2859999999928,
      "v": 127
    },
    {
      "midi": 58,
      "hit": false,
      "t": 190285.7460000006,
      "d": 1714.2859999999928,
      "v": 127
    },
    {
      "midi": 61,
      "hit": false,
      "t": 190285.7460000006,
      "d": 1714.2859999999928,
      "v": 127
    },
    {
      "midi": 53,
      "hit": false,
      "t": 192000.0320000006,
      "d": 1500.0002500000119,
      "v": 127
    },
    {
      "midi": 56,
      "hit": false,
      "t": 192000.0320000006,
      "d": 1500.0002500000119,
      "v": 127
    },
    {
      "midi": 60,
      "hit": false,
      "t": 192000.0320000006,
      "d": 1500.0002500000119,
      "v": 127
    },
    {
      "midi": 51,
      "hit": false,
      "t": 193714.3180000006,
      "d": 1500.0002500000119,
      "v": 127
    },
    {
      "midi": 54,
      "hit": false,
      "t": 193714.3180000006,
      "d": 1500.0002500000119,
      "v": 127
    },
    {
      "midi": 58,
      "hit": false,
      "t": 193714.3180000006,
      "d": 1500.0002500000119,
      "v": 127
    },
    {
      "midi": 58,
      "hit": false,
      "t": 195428.60400000063,
      "d": 214.28575000001,
      "v": 127
    },
    {
      "midi": 65,
      "hit": false,
      "t": 195428.60400000063,
      "d": 642.8572500000009,
      "v": 127
    },
    {
      "midi": 56,
      "hit": false,
      "t": 195428.60400000063,
      "d": 1071.428750000021,
      "v": 127
    },
    {
      "midi": 61,
      "hit": false,
      "t": 195428.60400000063,
      "d": 1714.2860000000219,
      "v": 127
    },
    {
      "midi": 65,
      "hit": false,
      "t": 196285.74700000064,
      "d": 857.1430000000109,
      "v": 127
    },
    {
      "midi": 56,
      "hit": false,
      "t": 196714.31850000066,
      "d": 1500.0002500000119,
      "v": 127
    },
    {
      "midi": 65,
      "hit": false,
      "t": 197142.89000000065,
      "d": 642.8572500000009,
      "v": 127
    },
    {
      "midi": 61,
      "hit": false,
      "t": 197142.89000000065,
      "d": 1500.000250000041,
      "v": 127
    },
    {
      "midi": 65,
      "hit": false,
      "t": 198000.03300000067,
      "d": 642.85725000003,
      "v": 127
    },
    {
      "midi": 56,
      "hit": false,
      "t": 198428.60450000069,
      "d": 214.28575000001,
      "v": 127
    },
    {
      "midi": 61,
      "hit": false,
      "t": 198857.1760000007,
      "d": 642.8572500000009,
      "v": 127
    },
    {
      "midi": 65,
      "hit": false,
      "t": 198857.1760000007,
      "d": 642.8572500000009,
      "v": 127
    },
    {
      "midi": 56,
      "hit": false,
      "t": 198857.1760000007,
      "d": 857.1430000000109,
      "v": 127
    },
    {
      "midi": 61,
      "hit": false,
      "t": 199714.31900000072,
      "d": 642.8572500000009,
      "v": 127
    },
    {
      "midi": 65,
      "hit": false,
      "t": 199714.31900000072,
      "d": 642.8572500000009,
      "v": 127
    },
    {
      "midi": 56,
      "hit": false,
      "t": 199714.31900000072,
      "d": 857.1430000000109,
      "v": 127
    },
    {
      "midi": 59,
      "hit": false,
      "t": 200571.46200000073,
      "d": 642.8572500000009,
      "v": 127
    },
    {
      "midi": 63,
      "hit": false,
      "t": 200571.46200000073,
      "d": 642.8572500000009,
      "v": 127
    },
    {
      "midi": 56,
      "hit": false,
      "t": 201428.60500000074,
      "d": 214.28575000001,
      "v": 127
    },
    {
      "midi": 58,
      "hit": false,
      "t": 201428.60500000074,
      "d": 857.1430000000109,
      "v": 127
    },
    {
      "midi": 61,
      "hit": false,
      "t": 201428.60500000074,
      "d": 857.1430000000109,
      "v": 127
    },
    {
      "midi": 58,
      "hit": false,
      "t": 202285.74800000075,
      "d": 1714.2859999999928,
      "v": 127
    },
    {
      "midi": 61,
      "hit": false,
      "t": 202285.74800000075,
      "d": 1714.2859999999928,
      "v": 127
    },
    {
      "midi": 66,
      "hit": false,
      "t": 202285.74800000075,
      "d": 1714.2859999999928,
      "v": 127
    },
    {
      "midi": 56,
      "hit": false,
      "t": 204000.03400000074,
      "d": 1071.4287499999919,
      "v": 127
    },
    {
      "midi": 60,
      "hit": false,
      "t": 204000.03400000074,
      "d": 1500.0002500000119,
      "v": 127
    },
    {
      "midi": 63,
      "hit": false,
      "t": 204000.03400000074,
      "d": 1500.0002500000119,
      "v": 127
    },
    {
      "midi": 56,
      "hit": false,
      "t": 205285.74850000074,
      "d": 214.28575000001,
      "v": 127
    },
    {
      "midi": 65,
      "hit": false,
      "t": 205714.32000000076,
      "d": 642.8572500000009,
      "v": 127
    },
    {
      "midi": 61,
      "hit": false,
      "t": 205714.32000000076,
      "d": 857.1430000000109,
      "v": 127
    },
    {
      "midi": 56,
      "hit": false,
      "t": 205714.32000000076,
      "d": 1714.2860000000219,
      "v": 127
    },
    {
      "midi": 65,
      "hit": false,
      "t": 206571.46300000077,
      "d": 642.8572500000009,
      "v": 127
    },
    {
      "midi": 61,
      "hit": false,
      "t": 206571.46300000077,
      "d": 857.1430000000109,
      "v": 127
    },
    {
      "midi": 59,
      "hit": false,
      "t": 207428.6060000008,
      "d": 642.8572500000009,
      "v": 127
    },
    {
      "midi": 63,
      "hit": false,
      "t": 207428.6060000008,
      "d": 642.8572500000009,
      "v": 127
    },
    {
      "midi": 56,
      "hit": false,
      "t": 208285.7490000008,
      "d": 214.28575000001,
      "v": 127
    },
    {
      "midi": 58,
      "hit": false,
      "t": 208285.7490000008,
      "d": 642.8572500000009,
      "v": 127
    },
    {
      "midi": 61,
      "hit": false,
      "t": 208285.7490000008,
      "d": 642.8572500000009,
      "v": 127
    },
    {
      "midi": 66,
      "hit": false,
      "t": 208285.7490000008,
      "d": 642.8572500000009,
      "v": 127
    },
    {
      "midi": 66,
      "hit": false,
      "t": 209142.8920000008,
      "d": 857.1430000000109,
      "v": 127
    },
    {
      "midi": 58,
      "hit": false,
      "t": 209142.8920000008,
      "d": 1500.0002500000119,
      "v": 127
    },
    {
      "midi": 61,
      "hit": false,
      "t": 209142.8920000008,
      "d": 1500.0002500000119,
      "v": 127
    },
    {
      "midi": 66,
      "hit": false,
      "t": 210000.03500000082,
      "d": 642.8572500000009,
      "v": 127
    },
    {
      "midi": 56,
      "hit": false,
      "t": 210857.17800000083,
      "d": 1071.4287499999919,
      "v": 127
    },
    {
      "midi": 60,
      "hit": false,
      "t": 210857.17800000083,
      "d": 1500.0002500000119,
      "v": 127
    },
    {
      "midi": 63,
      "hit": false,
      "t": 210857.17800000083,
      "d": 1500.0002500000119,
      "v": 127
    },
    {
      "midi": 56,
      "hit": false,
      "t": 212142.89250000083,
      "d": 214.28575000001,
      "v": 127
    },
    {
      "midi": 65,
      "hit": false,
      "t": 212571.46400000085,
      "d": 642.8572500000009,
      "v": 127
    },
    {
      "midi": 56,
      "hit": false,
      "t": 212571.46400000085,
      "d": 857.1430000000109,
      "v": 127
    },
    {
      "midi": 61,
      "hit": false,
      "t": 212571.46400000085,
      "d": 1714.2859999999928,
      "v": 127
    },
    {
      "midi": 65,
      "hit": false,
      "t": 213428.60700000086,
      "d": 1714.2859999999928,
      "v": 127
    },
    {
      "midi": 56,
      "hit": false,
      "t": 213857.17850000085,
      "d": 428.5714999999909,
      "v": 127
    },
    {
      "midi": 61,
      "hit": false,
      "t": 214285.75000000084,
      "d": 857.1430000000109,
      "v": 127
    },
    {
      "midi": 58,
      "hit": false,
      "t": 214285.75000000084,
      "d": 1071.428750000021,
      "v": 127
    },
    {
      "midi": 61,
      "hit": false,
      "t": 215142.89300000085,
      "d": 642.8572500000009,
      "v": 127
    },
    {
      "midi": 65,
      "hit": false,
      "t": 215142.89300000085,
      "d": 642.8572500000009,
      "v": 127
    },
    {
      "midi": 58,
      "hit": false,
      "t": 215785.75025000086,
      "d": 1285.7145000000019,
      "v": 127
    },
    {
      "midi": 66,
      "hit": false,
      "t": 216000.03600000087,
      "d": 428.5714999999909,
      "v": 127
    },
    {
      "midi": 63,
      "hit": false,
      "t": 216000.03600000087,
      "d": 1714.2860000000219,
      "v": 127
    },
    {
      "midi": 66,
      "hit": false,
      "t": 216857.17900000085,
      "d": 642.85725000003,
      "v": 127
    },
    {
      "midi": 58,
      "hit": false,
      "t": 217285.75050000087,
      "d": 1500.0002500000119,
      "v": 127
    },
    {
      "midi": 66,
      "hit": false,
      "t": 217714.3220000009,
      "d": 428.5714999999909,
      "v": 127
    },
    {
      "midi": 63,
      "hit": false,
      "t": 217714.3220000009,
      "d": 1285.7145000000019,
      "v": 127
    },
    {
      "midi": 66,
      "hit": false,
      "t": 218571.46500000087,
      "d": 428.57150000002,
      "v": 127
    },
    {
      "midi": 58,
      "hit": false,
      "t": 219000.0365000009,
      "d": 428.5714999999909,
      "v": 127
    },
    {
      "midi": 65,
      "hit": false,
      "t": 219428.60800000088,
      "d": 642.8572500000009,
      "v": 127
    },
    {
      "midi": 56,
      "hit": false,
      "t": 219428.60800000088,
      "d": 2357.143250000023,
      "v": 127
    },
    {
      "midi": 61,
      "hit": false,
      "t": 219428.60800000088,
      "d": 2785.714750000043,
      "v": 127
    },
    {
      "midi": 65,
      "hit": false,
      "t": 220285.7510000009,
      "d": 642.8572500000009,
      "v": 127
    },
    {
      "midi": 65,
      "hit": false,
      "t": 221142.8940000009,
      "d": 642.8572500000009,
      "v": 127
    },
    {
      "midi": 65,
      "hit": false,
      "t": 222000.0370000009,
      "d": 642.8572500000009,
      "v": 127
    },
    {
      "midi": 56,
      "hit": false,
      "t": 222214.32275000092,
      "d": 1500.0002500000119,
      "v": 127
    },
    {
      "midi": 61,
      "hit": false,
      "t": 222642.8942500009,
      "d": 214.28575000001,
      "v": 127
    },
    {
      "midi": 65,
      "hit": false,
      "t": 222857.18000000092,
      "d": 1500.0002500000119,
      "v": 127
    },
    {
      "midi": 61,
      "hit": false,
      "t": 222857.18000000092,
      "d": 2571.429000000033,
      "v": 127
    },
    {
      "midi": 56,
      "hit": false,
      "t": 224142.89450000093,
      "d": 428.57150000002,
      "v": 127
    },
    {
      "midi": 65,
      "hit": false,
      "t": 224571.46600000095,
      "d": 642.8572500000009,
      "v": 127
    },
    {
      "midi": 56,
      "hit": false,
      "t": 225000.03750000094,
      "d": 428.57150000002,
      "v": 127
    },
    {
      "midi": 65,
      "hit": false,
      "t": 225428.60900000096,
      "d": 428.57150000002,
      "v": 127
    },
    {
      "midi": 63,
      "hit": false,
      "t": 225642.89475000097,
      "d": 428.57150000002,
      "v": 127
    },
    {
      "midi": 61,
      "hit": false,
      "t": 225857.18050000098,
      "d": 214.28575000001,
      "v": 127
    },
    {
      "midi": 56,
      "hit": false,
      "t": 226071.466250001,
      "d": 214.28575000001,
      "v": 127
    },
    {
      "midi": 57,
      "hit": false,
      "t": 226285.752000001,
      "d": 1500.0002500000119,
      "v": 127
    },
    {
      "midi": 60,
      "hit": false,
      "t": 226285.752000001,
      "d": 1714.2860000000219,
      "v": 127
    },
    {
      "midi": 65,
      "hit": false,
      "t": 227142.895000001,
      "d": 642.8572500000009,
      "v": 127
    },
    {
      "midi": 63,
      "hit": false,
      "t": 228000.03800000102,
      "d": 642.8572500000009,
      "v": 127
    },
    {
      "midi": 57,
      "hit": false,
      "t": 228000.03800000102,
      "d": 1285.7145000000019,
      "v": 127
    },
    {
      "midi": 60,
      "hit": false,
      "t": 228000.03800000102,
      "d": 1285.7145000000019,
      "v": 127
    },
    {
      "midi": 63,
      "hit": false,
      "t": 228857.18100000103,
      "d": 428.5714999999909,
      "v": 127
    },
    {
      "midi": 65,
      "hit": false,
      "t": 229714.324000001,
      "d": 642.8572500000009,
      "v": 127
    },
    {
      "midi": 61,
      "hit": false,
      "t": 229714.324000001,
      "d": 857.1430000000109,
      "v": 127
    },
    {
      "midi": 58,
      "hit": false,
      "t": 229714.324000001,
      "d": 1071.428750000021,
      "v": 127
    },
    {
      "midi": 61,
      "hit": false,
      "t": 230571.46700000102,
      "d": 214.28575000001,
      "v": 127
    },
    {
      "midi": 65,
      "hit": false,
      "t": 230571.46700000102,
      "d": 1714.2860000000219,
      "v": 127
    },
    {
      "midi": 58,
      "hit": false,
      "t": 231000.03850000104,
      "d": 428.5714999999909,
      "v": 127
    },
    {
      "midi": 61,
      "hit": false,
      "t": 231000.03850000104,
      "d": 1285.7145000000019,
      "v": 127
    },
    {
      "midi": 70,
      "hit": false,
      "t": 231428.61000000103,
      "d": 642.8572500000009,
      "v": 127
    },
    {
      "midi": 61,
      "hit": false,
      "t": 232285.75300000104,
      "d": 642.8572500000009,
      "v": 127
    },
    {
      "midi": 65,
      "hit": false,
      "t": 232285.75300000104,
      "d": 642.8572500000009,
      "v": 127
    },
    {
      "midi": 58,
      "hit": false,
      "t": 232714.32450000104,
      "d": 428.57150000002,
      "v": 127
    },
    {
      "midi": 56,
      "hit": false,
      "t": 233142.89600000106,
      "d": 214.28575000001,
      "v": 127
    },
    {
      "midi": 57,
      "hit": false,
      "t": 233142.89600000106,
      "d": 214.28575000001,
      "v": 127
    },
    {
      "midi": 60,
      "hit": false,
      "t": 233142.89600000106,
      "d": 1714.2860000000219,
      "v": 127
    },
    {
      "midi": 57,
      "hit": false,
      "t": 234000.03900000107,
      "d": 2142.857500000013,
      "v": 127
    },
    {
      "midi": 60,
      "hit": false,
      "t": 234857.18200000108,
      "d": 1285.7145000000019,
      "v": 127
    },
    {
      "midi": 65,
      "hit": false,
      "t": 234857.18200000108,
      "d": 1285.7145000000019,
      "v": 127
    },
    {
      "midi": 58,
      "hit": false,
      "t": 236571.46800000107,
      "d": 857.1430000000109,
      "v": 127
    },
    {
      "midi": 65,
      "hit": false,
      "t": 236571.46800000107,
      "d": 857.1430000000109,
      "v": 127
    },
    {
      "midi": 61,
      "hit": false,
      "t": 236571.46800000107,
      "d": 2571.4290000000037,
      "v": 127
    },
    {
      "midi": 65,
      "hit": false,
      "t": 237428.61100000108,
      "d": 2571.4290000000037,
      "v": 127
    },
    {
      "midi": 58,
      "hit": false,
      "t": 237857.18250000107,
      "d": 428.5714999999909,
      "v": 127
    },
    {
      "midi": 70,
      "hit": false,
      "t": 238285.75400000106,
      "d": 642.8572500000009,
      "v": 127
    },
    {
      "midi": 61,
      "hit": false,
      "t": 239142.89700000107,
      "d": 642.8572500000009,
      "v": 127
    },
    {
      "midi": 58,
      "hit": false,
      "t": 239142.89700000107,
      "d": 1928.571750000032,
      "v": 127
    },
    {
      "midi": 67,
      "hit": false,
      "t": 240000.04000000108,
      "d": 642.8572500000009,
      "v": 127
    },
    {
      "midi": 63,
      "hit": false,
      "t": 240000.04000000108,
      "d": 3214.2862500000338,
      "v": 127
    },
    {
      "midi": 67,
      "hit": false,
      "t": 240857.1830000011,
      "d": 2357.143250000023,
      "v": 127
    },
    {
      "midi": 58,
      "hit": false,
      "t": 241285.75450000112,
      "d": 428.5714999999909,
      "v": 127
    },
    {
      "midi": 70,
      "hit": false,
      "t": 241714.3260000011,
      "d": 1500.0002500000119,
      "v": 127
    },
    {
      "midi": 58,
      "hit": false,
      "t": 242571.46900000112,
      "d": 857.1430000000109,
      "v": 127
    },
    {
      "midi": 56,
      "hit": false,
      "t": 243428.61200000113,
      "d": 857.1430000000109,
      "v": 127
    },
    {
      "midi": 60,
      "hit": false,
      "t": 243428.61200000113,
      "d": 3000.000500000053,
      "v": 127
    },
    {
      "midi": 63,
      "hit": false,
      "t": 243428.61200000113,
      "d": 3214.286250000063,
      "v": 127
    },
    {
      "midi": 56,
      "hit": false,
      "t": 244714.32650000113,
      "d": 214.28575000001,
      "v": 127
    },
    {
      "midi": 68,
      "hit": false,
      "t": 245142.89800000115,
      "d": 1500.000250000041,
      "v": 127
    },
    {
      "midi": 56,
      "hit": false,
      "t": 246000.04100000116,
      "d": 214.28575000001,
      "v": 127
    },
    {
      "midi": 66,
      "hit": false,
      "t": 246857.1840000012,
      "d": 857.1430000000109,
      "v": 127
    },
    {
      "midi": 70,
      "hit": false,
      "t": 246857.1840000012,
      "d": 1500.0002500000119,
      "v": 127
    },
    {
      "midi": 73,
      "hit": false,
      "t": 246857.1840000012,
      "d": 1500.0002500000119,
      "v": 127
    },
    {
      "midi": 78,
      "hit": false,
      "t": 247714.3270000012,
      "d": 428.5714999999909,
      "v": 127
    },
    {
      "midi": 66,
      "hit": false,
      "t": 248142.8985000012,
      "d": 2142.857500000013,
      "v": 127
    },
    {
      "midi": 70,
      "hit": false,
      "t": 248571.47000000122,
      "d": 1714.2859999999928,
      "v": 127
    },
    {
      "midi": 73,
      "hit": false,
      "t": 248571.47000000122,
      "d": 1714.2859999999928,
      "v": 127
    },
    {
      "midi": 75,
      "hit": false,
      "t": 250285.75600000122,
      "d": 642.8572500000009,
      "v": 127
    },
    {
      "midi": 68,
      "hit": false,
      "t": 250285.75600000122,
      "d": 1500.0002500000119,
      "v": 127
    },
    {
      "midi": 72,
      "hit": false,
      "t": 250285.75600000122,
      "d": 1500.0002500000119,
      "v": 127
    },
    {
      "midi": 75,
      "hit": false,
      "t": 251142.89900000123,
      "d": 642.8572500000009,
      "v": 127
    },
    {
      "midi": 73,
      "hit": false,
      "t": 252000.04200000124,
      "d": 857.1430000000109,
      "v": 127
    },
    {
      "midi": 66,
      "hit": false,
      "t": 252000.04200000124,
      "d": 1500.0002500000119,
      "v": 127
    },
    {
      "midi": 70,
      "hit": false,
      "t": 252000.04200000124,
      "d": 1500.0002500000119,
      "v": 127
    },
    {
      "midi": 73,
      "hit": false,
      "t": 253285.75650000124,
      "d": 214.28575000001,
      "v": 127
    },
    {
      "midi": 72,
      "hit": false,
      "t": 253714.32800000126,
      "d": 642.8572500000009,
      "v": 127
    },
    {
      "midi": 65,
      "hit": false,
      "t": 253714.32800000126,
      "d": 1285.7145000000019,
      "v": 127
    },
    {
      "midi": 68,
      "hit": false,
      "t": 253714.32800000126,
      "d": 1714.2860000000219,
      "v": 127
    },
    {
      "midi": 72,
      "hit": false,
      "t": 254571.47100000127,
      "d": 642.8572500000009,
      "v": 127
    },
    {
      "midi": 65,
      "hit": false,
      "t": 255000.04250000126,
      "d": 428.57150000002,
      "v": 127
    },
    {
      "midi": 63,
      "hit": false,
      "t": 255428.61400000128,
      "d": 1500.0002500000119,
      "v": 127
    },
    {
      "midi": 66,
      "hit": false,
      "t": 255428.61400000128,
      "d": 1500.0002500000119,
      "v": 127
    },
    {
      "midi": 70,
      "hit": false,
      "t": 255428.61400000128,
      "d": 1500.0002500000119,
      "v": 127
    },
    {
      "midi": 65,
      "hit": false,
      "t": 257142.9000000013,
      "d": 1285.7145000000019,
      "v": 127
    },
    {
      "midi": 68,
      "hit": false,
      "t": 257142.9000000013,
      "d": 1285.7145000000019,
      "v": 127
    },
    {
      "midi": 61,
      "hit": false,
      "t": 257142.9000000013,
      "d": 1714.2859999999928,
      "v": 127
    },
    {
      "midi": 65,
      "hit": false,
      "t": 258857.1860000013,
      "d": 642.8572500000009,
      "v": 127
    },
    {
      "midi": 61,
      "hit": false,
      "t": 258857.1860000013,
      "d": 857.1430000000109,
      "v": 127
    },
    {
      "midi": 56,
      "hit": false,
      "t": 259285.7575000013,
      "d": 642.85725000003,
      "v": 127
    },
    {
      "midi": 65,
      "hit": false,
      "t": 259714.3290000013,
      "d": 642.85725000003,
      "v": 127
    },
    {
      "midi": 61,
      "hit": false,
      "t": 259714.3290000013,
      "d": 857.14300000004,
      "v": 127
    },
    {
      "midi": 56,
      "hit": false,
      "t": 260142.90050000133,
      "d": 1071.428750000021,
      "v": 127
    },
    {
      "midi": 61,
      "hit": false,
      "t": 260571.47200000135,
      "d": 642.8572500000009,
      "v": 127
    },
    {
      "midi": 65,
      "hit": false,
      "t": 260571.47200000135,
      "d": 642.8572500000009,
      "v": 127
    },
    {
      "midi": 65,
      "hit": false,
      "t": 261428.61500000136,
      "d": 642.8572500000009,
      "v": 127
    },
    {
      "midi": 56,
      "hit": false,
      "t": 261428.61500000136,
      "d": 857.1430000000109,
      "v": 127
    },
    {
      "midi": 61,
      "hit": false,
      "t": 261428.61500000136,
      "d": 857.1430000000109,
      "v": 127
    },
    {
      "midi": 59,
      "hit": false,
      "t": 262285.75800000137,
      "d": 642.8572500000009,
      "v": 127
    },
    {
      "midi": 63,
      "hit": false,
      "t": 262285.75800000137,
      "d": 857.1429999999818,
      "v": 127
    },
    {
      "midi": 61,
      "hit": false,
      "t": 263142.90100000135,
      "d": 642.8572500000009,
      "v": 127
    },
    {
      "midi": 65,
      "hit": false,
      "t": 263142.90100000135,
      "d": 642.8572500000009,
      "v": 127
    },
    {
      "midi": 66,
      "hit": false,
      "t": 264000.04400000133,
      "d": 642.8572500000009,
      "v": 127
    },
    {
      "midi": 61,
      "hit": false,
      "t": 264000.04400000133,
      "d": 1500.0002499999828,
      "v": 127
    },
    {
      "midi": 58,
      "hit": false,
      "t": 264000.04400000133,
      "d": 1714.2859999999637,
      "v": 127
    },
    {
      "midi": 66,
      "hit": false,
      "t": 264857.1870000013,
      "d": 857.1429999999818,
      "v": 127
    },
    {
      "midi": 56,
      "hit": false,
      "t": 265714.3300000013,
      "d": 857.1429999999818,
      "v": 127
    },
    {
      "midi": 60,
      "hit": false,
      "t": 265714.3300000013,
      "d": 1500.0002499999828,
      "v": 127
    },
    {
      "midi": 63,
      "hit": false,
      "t": 265714.3300000013,
      "d": 1500.0002499999828,
      "v": 127
    },
    {
      "midi": 66,
      "hit": false,
      "t": 266571.4730000013,
      "d": 428.57150000002,
      "v": 127
    },
    {
      "midi": 56,
      "hit": false,
      "t": 267000.0445000013,
      "d": 428.5714999999618,
      "v": 127
    },
    {
      "midi": 65,
      "hit": false,
      "t": 267428.61600000126,
      "d": 642.8572500000009,
      "v": 127
    },
    {
      "midi": 56,
      "hit": false,
      "t": 267428.61600000126,
      "d": 1500.0002499999828,
      "v": 127
    },
    {
      "midi": 61,
      "hit": false,
      "t": 267428.61600000126,
      "d": 1500.0002499999828,
      "v": 127
    },
    {
      "midi": 65,
      "hit": false,
      "t": 268285.75900000124,
      "d": 642.8572500000009,
      "v": 127
    },
    {
      "midi": 59,
      "hit": false,
      "t": 269142.9020000012,
      "d": 857.1429999999818,
      "v": 127
    },
    {
      "midi": 63,
      "hit": false,
      "t": 269142.9020000012,
      "d": 857.1429999999818,
      "v": 127
    },
    {
      "midi": 65,
      "hit": false,
      "t": 270000.0450000012,
      "d": 642.8572500000009,
      "v": 127
    },
    {
      "midi": 61,
      "hit": false,
      "t": 270000.0450000012,
      "d": 857.1429999999818,
      "v": 127
    },
    {
      "midi": 58,
      "hit": false,
      "t": 270857.1880000012,
      "d": 857.1429999999818,
      "v": 127
    },
    {
      "midi": 66,
      "hit": false,
      "t": 270857.1880000012,
      "d": 857.1429999999818,
      "v": 127
    },
    {
      "midi": 61,
      "hit": false,
      "t": 270857.1880000012,
      "d": 1500.0002499999828,
      "v": 127
    },
    {
      "midi": 66,
      "hit": false,
      "t": 271714.33100000117,
      "d": 857.1429999999818,
      "v": 127
    },
    {
      "midi": 58,
      "hit": false,
      "t": 272142.9025000012,
      "d": 428.5714999999618,
      "v": 127
    },
    {
      "midi": 56,
      "hit": false,
      "t": 272571.47400000115,
      "d": 857.1429999999818,
      "v": 127
    },
    {
      "midi": 63,
      "hit": false,
      "t": 272571.47400000115,
      "d": 1285.7144999999437,
      "v": 127
    },
    {
      "midi": 60,
      "hit": false,
      "t": 272571.47400000115,
      "d": 1500.0002499999246,
      "v": 127
    },
    {
      "midi": 65,
      "hit": false,
      "t": 273642.9027500011,
      "d": 428.5714999999618,
      "v": 127
    },
    {
      "midi": 56,
      "hit": false,
      "t": 273857.1885000011,
      "d": 428.5714999999618,
      "v": 127
    },
    {
      "midi": 65,
      "hit": false,
      "t": 274285.76000000106,
      "d": 642.8572500000009,
      "v": 127
    },
    {
      "midi": 56,
      "hit": false,
      "t": 274285.76000000106,
      "d": 1714.2859999999637,
      "v": 127
    },
    {
      "midi": 61,
      "hit": false,
      "t": 274285.76000000106,
      "d": 1714.2859999999637,
      "v": 127
    },
    {
      "midi": 65,
      "hit": false,
      "t": 275142.90300000104,
      "d": 857.1429999999818,
      "v": 127
    },
    {
      "midi": 58,
      "hit": false,
      "t": 276000.046000001,
      "d": 857.1429999999818,
      "v": 127
    },
    {
      "midi": 61,
      "hit": false,
      "t": 276000.046000001,
      "d": 857.1429999999818,
      "v": 127
    },
    {
      "midi": 65,
      "hit": false,
      "t": 276000.046000001,
      "d": 1500.0002499999828,
      "v": 127
    },
    {
      "midi": 58,
      "hit": false,
      "t": 276857.189000001,
      "d": 642.8572500000009,
      "v": 127
    },
    {
      "midi": 61,
      "hit": false,
      "t": 276857.189000001,
      "d": 642.8572500000009,
      "v": 127
    },
    {
      "midi": 66,
      "hit": false,
      "t": 277714.332000001,
      "d": 428.57150000002,
      "v": 127
    },
    {
      "midi": 58,
      "hit": false,
      "t": 277714.332000001,
      "d": 1500.000250000041,
      "v": 127
    },
    {
      "midi": 63,
      "hit": false,
      "t": 277714.332000001,
      "d": 1500.000250000041,
      "v": 127
    },
    {
      "midi": 66,
      "hit": false,
      "t": 278571.475000001,
      "d": 857.1429999999818,
      "v": 127
    },
    {
      "midi": 63,
      "hit": false,
      "t": 279428.618000001,
      "d": 642.8572500000009,
      "v": 127
    },
    {
      "midi": 56,
      "hit": false,
      "t": 279428.618000001,
      "d": 857.1429999999818,
      "v": 127
    },
    {
      "midi": 60,
      "hit": false,
      "t": 279428.618000001,
      "d": 1500.0002499999828,
      "v": 127
    },
    {
      "midi": 63,
      "hit": false,
      "t": 280285.761000001,
      "d": 642.8572500000009,
      "v": 127
    },
    {
      "midi": 56,
      "hit": false,
      "t": 280714.332500001,
      "d": 428.5714999999618,
      "v": 127
    },
    {
      "midi": 65,
      "hit": false,
      "t": 281142.90400000097,
      "d": 428.57150000002,
      "v": 127
    },
    {
      "midi": 56,
      "hit": false,
      "t": 281142.90400000097,
      "d": 1714.2860000000219,
      "v": 127
    },
    {
      "midi": 61,
      "hit": false,
      "t": 281142.90400000097,
      "d": 1714.2860000000219,
      "v": 127
    },
    {
      "midi": 65,
      "hit": false,
      "t": 282000.047000001,
      "d": 857.1429999999818,
      "v": 127
    },
    {
      "midi": 65,
      "hit": false,
      "t": 282857.190000001,
      "d": 642.8572500000009,
      "v": 127
    },
    {
      "midi": 58,
      "hit": false,
      "t": 282857.190000001,
      "d": 1071.4287499999627,
      "v": 127
    },
    {
      "midi": 61,
      "hit": false,
      "t": 282857.190000001,
      "d": 1500.0002499999246,
      "v": 127
    },
    {
      "midi": 65,
      "hit": false,
      "t": 283714.333000001,
      "d": 642.8572499999427,
      "v": 127
    },
    {
      "midi": 58,
      "hit": false,
      "t": 284142.90450000094,
      "d": 214.2857499999809,
      "v": 127
    },
    {
      "midi": 66,
      "hit": false,
      "t": 284571.4760000009,
      "d": 428.57150000002,
      "v": 127
    },
    {
      "midi": 58,
      "hit": false,
      "t": 284571.4760000009,
      "d": 857.14300000004,
      "v": 127
    },
    {
      "midi": 63,
      "hit": false,
      "t": 284571.4760000009,
      "d": 1500.000250000041,
      "v": 127
    },
    {
      "midi": 66,
      "hit": false,
      "t": 285428.61900000094,
      "d": 642.8572500000009,
      "v": 127
    },
    {
      "midi": 58,
      "hit": false,
      "t": 285857.19050000096,
      "d": 428.5714999999618,
      "v": 127
    },
    {
      "midi": 63,
      "hit": false,
      "t": 286285.7620000009,
      "d": 642.8572500000009,
      "v": 127
    },
    {
      "midi": 56,
      "hit": false,
      "t": 286285.7620000009,
      "d": 857.1429999999818,
      "v": 127
    },
    {
      "midi": 60,
      "hit": false,
      "t": 286285.7620000009,
      "d": 1500.0002499999828,
      "v": 127
    },
    {
      "midi": 63,
      "hit": false,
      "t": 287142.9050000009,
      "d": 642.8572500000009,
      "v": 127
    },
    {
      "midi": 56,
      "hit": false,
      "t": 287571.4765000009,
      "d": 214.2857499999809,
      "v": 127
    },
    {
      "midi": 65,
      "hit": false,
      "t": 288000.0480000009,
      "d": 642.8572500000009,
      "v": 127
    },
    {
      "midi": 61,
      "hit": false,
      "t": 288000.0480000009,
      "d": 1285.7145000000019,
      "v": 127
    },
    {
      "midi": 56,
      "hit": false,
      "t": 288000.0480000009,
      "d": 1714.2860000000219,
      "v": 127
    },
    {
      "midi": 65,
      "hit": false,
      "t": 288857.19100000086,
      "d": 857.14300000004,
      "v": 127
    },
    {
      "midi": 61,
      "hit": false,
      "t": 289285.7625000009,
      "d": 428.57150000002,
      "v": 127
    },
    {
      "midi": 65,
      "hit": false,
      "t": 289714.3340000009,
      "d": 857.1429999999818,
      "v": 127
    },
    {
      "midi": 58,
      "hit": false,
      "t": 289714.3340000009,
      "d": 1285.7144999999437,
      "v": 127
    },
    {
      "midi": 61,
      "hit": false,
      "t": 289714.3340000009,
      "d": 3214.2862499999464,
      "v": 127
    },
    {
      "midi": 65,
      "hit": false,
      "t": 290785.76275000087,
      "d": 642.8572500000009,
      "v": 127
    },
    {
      "midi": 66,
      "hit": false,
      "t": 291428.62000000087,
      "d": 642.8572500000009,
      "v": 127
    },
    {
      "midi": 58,
      "hit": false,
      "t": 291428.62000000087,
      "d": 1285.7145000000019,
      "v": 127
    },
    {
      "midi": 66,
      "hit": false,
      "t": 292285.76300000085,
      "d": 642.8572500000009,
      "v": 127
    },
    {
      "midi": 58,
      "hit": false,
      "t": 292714.33450000087,
      "d": 214.2857499999809,
      "v": 127
    },
    {
      "midi": 63,
      "hit": false,
      "t": 293142.90600000083,
      "d": 642.8572500000009,
      "v": 127
    },
    {
      "midi": 56,
      "hit": false,
      "t": 293142.90600000083,
      "d": 857.1429999999818,
      "v": 127
    },
    {
      "midi": 60,
      "hit": false,
      "t": 293142.90600000083,
      "d": 1500.0002499999828,
      "v": 127
    },
    {
      "midi": 63,
      "hit": false,
      "t": 294000.0490000008,
      "d": 857.1429999999818,
      "v": 127
    },
    {
      "midi": 56,
      "hit": false,
      "t": 294428.62050000083,
      "d": 1500.0002499999246,
      "v": 127
    },
    {
      "midi": 65,
      "hit": false,
      "t": 294857.1920000008,
      "d": 642.8572500000009,
      "v": 127
    },
    {
      "midi": 61,
      "hit": false,
      "t": 294857.1920000008,
      "d": 1714.2859999999055,
      "v": 127
    },
    {
      "midi": 65,
      "hit": false,
      "t": 295714.3350000008,
      "d": 642.8572499999427,
      "v": 127
    },
    {
      "midi": 56,
      "hit": false,
      "t": 296142.90650000074,
      "d": 642.8572499999427,
      "v": 127
    },
    {
      "midi": 65,
      "hit": false,
      "t": 296571.4780000007,
      "d": 642.8572499999427,
      "v": 127
    },
    {
      "midi": 61,
      "hit": false,
      "t": 296571.4780000007,
      "d": 1285.7144999999437,
      "v": 127
    },
    {
      "midi": 56,
      "hit": false,
      "t": 297000.04950000066,
      "d": 1071.4287499999627,
      "v": 127
    },
    {
      "midi": 65,
      "hit": false,
      "t": 297428.6210000006,
      "d": 642.8572500000009,
      "v": 127
    },
    {
      "midi": 61,
      "hit": false,
      "t": 297857.19250000064,
      "d": 214.2857499999809,
      "v": 127
    },
    {
      "midi": 66,
      "hit": false,
      "t": 298285.7640000006,
      "d": 428.57150000002,
      "v": 127
    },
    {
      "midi": 58,
      "hit": false,
      "t": 298285.7640000006,
      "d": 1071.428750000021,
      "v": 127
    },
    {
      "midi": 61,
      "hit": false,
      "t": 298285.7640000006,
      "d": 1500.0002499999828,
      "v": 127
    },
    {
      "midi": 66,
      "hit": false,
      "t": 299142.90700000065,
      "d": 642.8572499999427,
      "v": 127
    },
    {
      "midi": 58,
      "hit": false,
      "t": 299571.4785000006,
      "d": 428.5714999999618,
      "v": 127
    },
    {
      "midi": 63,
      "hit": false,
      "t": 300000.05000000057,
      "d": 642.8572500000009,
      "v": 127
    },
    {
      "midi": 56,
      "hit": false,
      "t": 300000.05000000057,
      "d": 857.1429999999818,
      "v": 127
    },
    {
      "midi": 60,
      "hit": false,
      "t": 300000.05000000057,
      "d": 857.1429999999818,
      "v": 127
    },
    {
      "midi": 60,
      "hit": false,
      "t": 300857.19300000055,
      "d": 642.8572500000009,
      "v": 127
    },
    {
      "midi": 63,
      "hit": false,
      "t": 300857.19300000055,
      "d": 642.8572500000009,
      "v": 127
    },
    {
      "midi": 56,
      "hit": false,
      "t": 301285.7645000006,
      "d": 1285.7144999999437,
      "v": 127
    },
    {
      "midi": 65,
      "hit": false,
      "t": 301714.33600000053,
      "d": 642.8572500000009,
      "v": 127
    },
    {
      "midi": 61,
      "hit": false,
      "t": 301714.33600000053,
      "d": 857.1429999999818,
      "v": 127
    },
    {
      "midi": 61,
      "hit": false,
      "t": 302571.4790000005,
      "d": 428.57150000002,
      "v": 127
    },
    {
      "midi": 65,
      "hit": false,
      "t": 302571.4790000005,
      "d": 857.1429999999818,
      "v": 127
    },
    {
      "midi": 56,
      "hit": false,
      "t": 303000.05050000054,
      "d": 214.2857499999809,
      "v": 127
    },
    {
      "midi": 61,
      "hit": false,
      "t": 303000.05050000054,
      "d": 428.5714999999618,
      "v": 127
    },
    {
      "midi": 65,
      "hit": false,
      "t": 303428.6220000005,
      "d": 428.57150000002,
      "v": 127
    },
    {
      "midi": 58,
      "hit": false,
      "t": 303428.6220000005,
      "d": 857.14300000004,
      "v": 127
    },
    {
      "midi": 61,
      "hit": false,
      "t": 303428.6220000005,
      "d": 1500.000250000041,
      "v": 127
    },
    {
      "midi": 65,
      "hit": false,
      "t": 304285.76500000054,
      "d": 642.8572500000009,
      "v": 127
    },
    {
      "midi": 58,
      "hit": false,
      "t": 304714.33650000056,
      "d": 214.2857499999809,
      "v": 127
    },
    {
      "midi": 66,
      "hit": false,
      "t": 305142.9080000005,
      "d": 642.8572500000009,
      "v": 127
    },
    {
      "midi": 58,
      "hit": false,
      "t": 305142.9080000005,
      "d": 1500.0002499999828,
      "v": 127
    },
    {
      "midi": 61,
      "hit": false,
      "t": 305142.9080000005,
      "d": 1714.2859999999637,
      "v": 127
    },
    {
      "midi": 66,
      "hit": false,
      "t": 306000.0510000005,
      "d": 1071.4287499999627,
      "v": 127
    },
    {
      "midi": 58,
      "hit": false,
      "t": 306642.9082500005,
      "d": 214.2857499999809,
      "v": 127
    },
    {
      "midi": 63,
      "hit": false,
      "t": 307071.47975000046,
      "d": 642.8572500000009,
      "v": 127
    },
    {
      "midi": 56,
      "hit": false,
      "t": 307714.33700000047,
      "d": 214.2857499999809,
      "v": 127
    },
    {
      "midi": 60,
      "hit": false,
      "t": 307714.33700000047,
      "d": 214.2857499999809,
      "v": 127
    },
    {
      "midi": 63,
      "hit": false,
      "t": 307714.33700000047,
      "d": 642.8572500000009,
      "v": 127
    },
    {
      "midi": 65,
      "hit": false,
      "t": 308571.48000000045,
      "d": 642.8572500000009,
      "v": 127
    },
    {
      "midi": 61,
      "hit": false,
      "t": 308571.48000000045,
      "d": 1500.0002499999828,
      "v": 127
    },
    {
      "midi": 65,
      "hit": false,
      "t": 309428.6230000004,
      "d": 642.8572500000009,
      "v": 127
    },
    {
      "midi": 56,
      "hit": false,
      "t": 309857.19450000045,
      "d": 214.2857499999809,
      "v": 127
    },
    {
      "midi": 59,
      "hit": false,
      "t": 310285.7660000004,
      "d": 642.8572500000009,
      "v": 127
    },
    {
      "midi": 63,
      "hit": false,
      "t": 310285.7660000004,
      "d": 642.8572500000009,
      "v": 127
    },
    {
      "midi": 61,
      "hit": false,
      "t": 311142.9090000004,
      "d": 642.8572500000009,
      "v": 127
    },
    {
      "midi": 65,
      "hit": false,
      "t": 311142.9090000004,
      "d": 642.8572500000009,
      "v": 127
    },
    {
      "midi": 66,
      "hit": false,
      "t": 312000.0520000004,
      "d": 857.1429999999818,
      "v": 127
    },
    {
      "midi": 58,
      "hit": false,
      "t": 312000.0520000004,
      "d": 1285.7145000000019,
      "v": 127
    },
    {
      "midi": 61,
      "hit": false,
      "t": 312000.0520000004,
      "d": 1500.0002499999828,
      "v": 127
    },
    {
      "midi": 66,
      "hit": false,
      "t": 312857.19500000036,
      "d": 857.1429999999818,
      "v": 127
    },
    {
      "midi": 58,
      "hit": false,
      "t": 313285.7665000004,
      "d": 214.2857499999809,
      "v": 127
    },
    {
      "midi": 56,
      "hit": false,
      "t": 313714.33800000034,
      "d": 857.1429999999818,
      "v": 127
    },
    {
      "midi": 60,
      "hit": false,
      "t": 313714.33800000034,
      "d": 857.1429999999818,
      "v": 127
    },
    {
      "midi": 63,
      "hit": false,
      "t": 313714.33800000034,
      "d": 857.1429999999818,
      "v": 127
    },
    {
      "midi": 60,
      "hit": false,
      "t": 314571.4810000003,
      "d": 642.8572500000009,
      "v": 127
    },
    {
      "midi": 63,
      "hit": false,
      "t": 314571.4810000003,
      "d": 642.8572500000009,
      "v": 127
    },
    {
      "midi": 56,
      "hit": false,
      "t": 315000.05250000034,
      "d": 1500.0002499999246,
      "v": 127
    },
    {
      "midi": 65,
      "hit": false,
      "t": 315214.3382500003,
      "d": 857.1429999999818,
      "v": 127
    },
    {
      "midi": 61,
      "hit": false,
      "t": 315214.3382500003,
      "d": 1714.2859999999055,
      "v": 127
    },
    {
      "midi": 65,
      "hit": false,
      "t": 316285.7670000003,
      "d": 857.1429999999236,
      "v": 127
    },
    {
      "midi": 56,
      "hit": false,
      "t": 316714.33850000025,
      "d": 428.5714999999618,
      "v": 127
    },
    {
      "midi": 65,
      "hit": false,
      "t": 317142.9100000002,
      "d": 428.57150000002,
      "v": 127
    },
    {
      "midi": 61,
      "hit": false,
      "t": 317142.9100000002,
      "d": 857.14300000004,
      "v": 127
    },
    {
      "midi": 58,
      "hit": false,
      "t": 317142.9100000002,
      "d": 3428.5719999999856,
      "v": 127
    },
    {
      "midi": 61,
      "hit": false,
      "t": 318000.05300000025,
      "d": 642.8572500000009,
      "v": 127
    },
    {
      "midi": 65,
      "hit": false,
      "t": 318000.05300000025,
      "d": 642.8572500000009,
      "v": 127
    },
    {
      "midi": 63,
      "hit": false,
      "t": 318857.19600000023,
      "d": 857.1429999999818,
      "v": 127
    },
    {
      "midi": 67,
      "hit": false,
      "t": 318857.19600000023,
      "d": 857.1429999999818,
      "v": 127
    },
    {
      "midi": 63,
      "hit": false,
      "t": 319714.3390000002,
      "d": 214.2857499999809,
      "v": 127
    },
    {
      "midi": 67,
      "hit": false,
      "t": 319714.3390000002,
      "d": 1714.2859999999637,
      "v": 127
    },
    {
      "midi": 63,
      "hit": false,
      "t": 320142.9105000002,
      "d": 1285.7145000000019,
      "v": 127
    },
    {
      "midi": 70,
      "hit": false,
      "t": 320571.4820000002,
      "d": 214.2857499999809,
      "v": 127
    },
    {
      "midi": 72,
      "hit": false,
      "t": 320571.4820000002,
      "d": 214.2857499999809,
      "v": 127
    },
    {
      "midi": 58,
      "hit": false,
      "t": 321000.05350000015,
      "d": 1285.7145000000019,
      "v": 127
    },
    {
      "midi": 63,
      "hit": false,
      "t": 321428.6250000002,
      "d": 642.8572500000009,
      "v": 127
    },
    {
      "midi": 67,
      "hit": false,
      "t": 321428.6250000002,
      "d": 642.8572500000009,
      "v": 127
    },
    {
      "midi": 63,
      "hit": false,
      "t": 322285.76800000016,
      "d": 642.8572500000009,
      "v": 127
    },
    {
      "midi": 60,
      "hit": false,
      "t": 322285.76800000016,
      "d": 857.1429999999818,
      "v": 127
    },
    {
      "midi": 56,
      "hit": false,
      "t": 322285.76800000016,
      "d": 1071.4287499999627,
      "v": 127
    },
    {
      "midi": 60,
      "hit": false,
      "t": 323142.91100000014,
      "d": 1714.2859999999637,
      "v": 127
    },
    {
      "midi": 63,
      "hit": false,
      "t": 323142.91100000014,
      "d": 1714.2859999999637,
      "v": 127
    },
    {
      "midi": 56,
      "hit": false,
      "t": 323571.4825000001,
      "d": 214.2857499999809,
      "v": 127
    },
    {
      "midi": 68,
      "hit": false,
      "t": 324000.05400000006,
      "d": 428.57150000002,
      "v": 127
    },
    {
      "midi": 56,
      "hit": false,
      "t": 324428.6255000001,
      "d": 428.57150000002,
      "v": 127
    },
    {
      "midi": 60,
      "hit": false,
      "t": 324857.1970000001,
      "d": 642.8572500000009,
      "v": 127
    },
    {
      "midi": 63,
      "hit": false,
      "t": 324857.1970000001,
      "d": 642.8572500000009,
      "v": 127
    },
    {
      "midi": 56,
      "hit": false,
      "t": 325285.7685000001,
      "d": 214.2857499999809,
      "v": 127
    },
    {
      "midi": 61,
      "hit": false,
      "t": 325714.3400000001,
      "d": 642.8572500000009,
      "v": 127
    },
    {
      "midi": 54,
      "hit": false,
      "t": 325714.3400000001,
      "d": 857.1429999999818,
      "v": 127
    },
    {
      "midi": 58,
      "hit": false,
      "t": 325714.3400000001,
      "d": 1500.0002499999828,
      "v": 127
    },
    {
      "midi": 61,
      "hit": false,
      "t": 326571.48300000007,
      "d": 642.8572500000009,
      "v": 127
    },
    {
      "midi": 54,
      "hit": false,
      "t": 327000.0545000001,
      "d": 428.5714999999618,
      "v": 127
    },
    {
      "midi": 63,
      "hit": false,
      "t": 327428.62600000005,
      "d": 642.8572500000009,
      "v": 127
    },
    {
      "midi": 56,
      "hit": false,
      "t": 327428.62600000005,
      "d": 857.1429999999818,
      "v": 127
    },
    {
      "midi": 60,
      "hit": false,
      "t": 327428.62600000005,
      "d": 1500.0002499999828,
      "v": 127
    },
    {
      "midi": 63,
      "hit": false,
      "t": 328285.76900000003,
      "d": 642.8572500000009,
      "v": 127
    },
    {
      "midi": 56,
      "hit": false,
      "t": 328714.34050000005,
      "d": 428.5714999999618,
      "v": 127
    },
    {
      "midi": 65,
      "hit": false,
      "t": 329142.912,
      "d": 857.1429999999818,
      "v": 127
    },
    {
      "midi": 56,
      "hit": false,
      "t": 329142.912,
      "d": 1500.0002499999828,
      "v": 127
    },
    {
      "midi": 61,
      "hit": false,
      "t": 329142.912,
      "d": 1500.0002499999828,
      "v": 127
    },
    {
      "midi": 65,
      "hit": false,
      "t": 330000.055,
      "d": 642.8572500000009,
      "v": 127
    },
    {
      "midi": 65,
      "hit": false,
      "t": 330857.198,
      "d": 642.8572500000009,
      "v": 127
    },
    {
      "midi": 58,
      "hit": false,
      "t": 330857.198,
      "d": 857.1429999999818,
      "v": 127
    },
    {
      "midi": 61,
      "hit": false,
      "t": 330857.198,
      "d": 857.1429999999818,
      "v": 127
    },
    {
      "midi": 65,
      "hit": false,
      "t": 331714.34099999996,
      "d": 642.8572500000009,
      "v": 127
    },
    {
      "midi": 61,
      "hit": false,
      "t": 331714.34099999996,
      "d": 857.1429999999818,
      "v": 127
    },
    {
      "midi": 58,
      "hit": false,
      "t": 332142.9125,
      "d": 428.5714999999618,
      "v": 127
    },
    {
      "midi": 66,
      "hit": false,
      "t": 332571.48399999994,
      "d": 642.8572500000009,
      "v": 127
    },
    {
      "midi": 58,
      "hit": false,
      "t": 332571.48399999994,
      "d": 1071.4287499999627,
      "v": 127
    },
    {
      "midi": 61,
      "hit": false,
      "t": 332571.48399999994,
      "d": 1285.7144999999437,
      "v": 127
    },
    {
      "midi": 66,
      "hit": false,
      "t": 333428.6269999999,
      "d": 857.1429999999236,
      "v": 127
    },
    {
      "midi": 61,
      "hit": false,
      "t": 333857.1984999999,
      "d": 214.2857499999809,
      "v": 127
    },
    {
      "midi": 58,
      "hit": false,
      "t": 333857.1984999999,
      "d": 428.5714999999618,
      "v": 127
    },
    {
      "midi": 56,
      "hit": false,
      "t": 334285.76999999984,
      "d": 857.1429999999818,
      "v": 127
    },
    {
      "midi": 60,
      "hit": false,
      "t": 334285.76999999984,
      "d": 857.1429999999818,
      "v": 127
    },
    {
      "midi": 63,
      "hit": false,
      "t": 334285.76999999984,
      "d": 857.1429999999818,
      "v": 127
    },
    {
      "midi": 60,
      "hit": false,
      "t": 335142.9129999998,
      "d": 642.8572500000009,
      "v": 127
    },
    {
      "midi": 63,
      "hit": false,
      "t": 335142.9129999998,
      "d": 642.8572500000009,
      "v": 127
    },
    {
      "midi": 56,
      "hit": false,
      "t": 335571.48449999985,
      "d": 642.8572499999427,
      "v": 127
    },
    {
      "midi": 63,
      "hit": false,
      "t": 336000.0559999998,
      "d": 214.2857499999809,
      "v": 127
    },
    {
      "midi": 61,
      "hit": false,
      "t": 336000.0559999998,
      "d": 642.8572500000009,
      "v": 127
    },
    {
      "midi": 65,
      "hit": false,
      "t": 336000.0559999998,
      "d": 642.8572500000009,
      "v": 127
    },
    {
      "midi": 61,
      "hit": false,
      "t": 336857.1989999998,
      "d": 642.8572500000009,
      "v": 127
    },
    {
      "midi": 65,
      "hit": false,
      "t": 336857.1989999998,
      "d": 642.8572500000009,
      "v": 127
    },
    {
      "midi": 59,
      "hit": false,
      "t": 337714.3419999998,
      "d": 642.8572500000009,
      "v": 127
    },
    {
      "midi": 63,
      "hit": false,
      "t": 337714.3419999998,
      "d": 857.1429999999818,
      "v": 127
    },
    {
      "midi": 61,
      "hit": false,
      "t": 338571.48499999975,
      "d": 642.8572500000009,
      "v": 127
    },
    {
      "midi": 65,
      "hit": false,
      "t": 338571.48499999975,
      "d": 642.8572500000009,
      "v": 127
    },
    {
      "midi": 66,
      "hit": false,
      "t": 339428.62799999974,
      "d": 642.8572500000009,
      "v": 127
    },
    {
      "midi": 58,
      "hit": false,
      "t": 339428.62799999974,
      "d": 1285.7145000000019,
      "v": 127
    },
    {
      "midi": 61,
      "hit": false,
      "t": 339428.62799999974,
      "d": 1285.7145000000019,
      "v": 127
    },
    {
      "midi": 66,
      "hit": false,
      "t": 340285.7709999997,
      "d": 857.14300000004,
      "v": 127
    },
    {
      "midi": 61,
      "hit": false,
      "t": 340714.34249999974,
      "d": 214.28575000003912,
      "v": 127
    },
    {
      "midi": 58,
      "hit": false,
      "t": 340714.34249999974,
      "d": 428.57150000002,
      "v": 127
    },
    {
      "midi": 56,
      "hit": false,
      "t": 341142.91399999976,
      "d": 642.8572499999427,
      "v": 127
    },
    {
      "midi": 60,
      "hit": false,
      "t": 341142.91399999976,
      "d": 1714.2859999998473,
      "v": 127
    },
    {
      "midi": 63,
      "hit": false,
      "t": 341142.91399999976,
      "d": 1714.2859999998473,
      "v": 127
    },
    {
      "midi": 68,
      "hit": false,
      "t": 342000.0569999997,
      "d": 428.5714999999618,
      "v": 127
    },
    {
      "midi": 56,
      "hit": false,
      "t": 342428.62849999964,
      "d": 1928.5717499999446,
      "v": 127
    },
    {
      "midi": 61,
      "hit": false,
      "t": 342857.1999999996,
      "d": 857.1429999999818,
      "v": 127
    },
    {
      "midi": 65,
      "hit": false,
      "t": 342857.1999999996,
      "d": 857.1429999999818,
      "v": 127
    },
    {
      "midi": 65,
      "hit": false,
      "t": 343714.3429999996,
      "d": 1500.0002499999828,
      "v": 127
    },
    {
      "midi": 61,
      "hit": false,
      "t": 343714.3429999996,
      "d": 3857.143499999831,
      "v": 127
    },
    {
      "midi": 58,
      "hit": false,
      "t": 344571.48599999957,
      "d": 1071.4287499999627,
      "v": 127
    },
    {
      "midi": 65,
      "hit": false,
      "t": 345428.62899999955,
      "d": 642.8572499999427,
      "v": 127
    },
    {
      "midi": 58,
      "hit": false,
      "t": 345857.2004999995,
      "d": 1714.2859999999055,
      "v": 127
    },
    {
      "midi": 66,
      "hit": false,
      "t": 346285.7719999995,
      "d": 1714.2859999999055,
      "v": 127
    },
    {
      "midi": 60,
      "hit": false,
      "t": 348000.0579999994,
      "d": 428.57150000002,
      "v": 127
    },
    {
      "midi": 56,
      "hit": false,
      "t": 348000.0579999994,
      "d": 857.14300000004,
      "v": 127
    },
    {
      "midi": 55,
      "hit": false,
      "t": 348642.91524999944,
      "d": 642.8572500000009,
      "v": 127
    },
    {
      "midi": 58,
      "hit": false,
      "t": 348642.91524999944,
      "d": 857.14300000004,
      "v": 127
    }
  ]
}