{
  "jsonPath": "Soundtracks/Video Game Music/Final Fantasy 10/final-fantasy-10-atzanarkand.json",
  "path": "Soundtracks\\Video Game Music\\Final Fantasy 10\\Final_Fantasy_10_AtZanarkand.mid",
  "name": "Final_Fantasy_10_AtZanarkand",
  "difficulty": "Advanced",
  "bpm": 92.00012880018032,
  "notes": [
    {
      "midi": 89,
      "hit": false,
      "t": 0,
      "d": 412.63183593750006,
      "v": 71
    },
    {
      "midi": 72,
      "hit": false,
      "t": 0,
      "d": 1681.062099609375,
      "v": 66
    },
    {
      "midi": 65,
      "hit": false,
      "t": 2.475791015625,
      "d": 1676.9357812500002,
      "v": 63
    },
    {
      "midi": 77,
      "hit": false,
      "t": 431.61290039062504,
      "d": 399.42761718749995,
      "v": 65
    },
    {
      "midi": 80,
      "hit": false,
      "t": 832.691044921875,
      "d": 436.56448242187514,
      "v": 68
    },
    {
      "midi": 84,
      "hit": false,
      "t": 1271.731318359375,
      "d": 416.7581542968751,
      "v": 73
    },
    {
      "midi": 89,
      "hit": false,
      "t": 1684.363154296875,
      "d": 420.8844726562502,
      "v": 71
    },
    {
      "midi": 63,
      "hit": false,
      "t": 1686.8389453125,
      "d": 840.1184179687498,
      "v": 46
    },
    {
      "midi": 91,
      "hit": false,
      "t": 2121.752900390625,
      "d": 417.5834179687499,
      "v": 73
    },
    {
      "midi": 87,
      "hit": false,
      "t": 2124.22869140625,
      "d": 422.53499999999985,
      "v": 69
    },
    {
      "midi": 89,
      "hit": false,
      "t": 2531.0836816406254,
      "d": 2529.433154296875,
      "v": 78
    },
    {
      "midi": 92,
      "hit": false,
      "t": 2538.5110546875003,
      "d": 2526.95736328125,
      "v": 69
    },
    {
      "midi": 73,
      "hit": false,
      "t": 2550.06474609375,
      "d": 2510.4520898437504,
      "v": 44
    },
    {
      "midi": 61,
      "hit": false,
      "t": 2550.8900097656247,
      "d": 2531.9089453125002,
      "v": 48
    },
    {
      "midi": 63,
      "hit": false,
      "t": 5057.21578125,
      "d": 1687.6642089843754,
      "v": 64
    },
    {
      "midi": 70,
      "hit": false,
      "t": 5062.16736328125,
      "d": 1689.314736328125,
      "v": 66
    },
    {
      "midi": 87,
      "hit": false,
      "t": 5065.46841796875,
      "d": 420.0592089843749,
      "v": 70
    },
    {
      "midi": 75,
      "hit": false,
      "t": 5478.925517578125,
      "d": 443.16659179687394,
      "v": 70
    },
    {
      "midi": 79,
      "hit": false,
      "t": 5920.44158203125,
      "d": 401.07814453124956,
      "v": 72
    },
    {
      "midi": 82,
      "hit": false,
      "t": 6341.326054687499,
      "d": 411.8065722656247,
      "v": 69
    },
    {
      "midi": 87,
      "hit": false,
      "t": 6767.9873730468735,
      "d": 428.3118457031251,
      "v": 76
    },
    {
      "midi": 61,
      "hit": false,
      "t": 6772.11369140625,
      "d": 817.8362988281251,
      "v": 49
    },
    {
      "midi": 89,
      "hit": false,
      "t": 7183.920263671874,
      "d": 417.5834179687499,
      "v": 71
    },
    {
      "midi": 85,
      "hit": false,
      "t": 7186.396054687499,
      "d": 428.3118457031251,
      "v": 72
    },
    {
      "midi": 87,
      "hit": false,
      "t": 7590.7752539062485,
      "d": 2536.0352636718753,
      "v": 76
    },
    {
      "midi": 60,
      "hit": false,
      "t": 7602.3289453125,
      "d": 2543.46263671875,
      "v": 40
    },
    {
      "midi": 72,
      "hit": false,
      "t": 7619.659482421875,
      "d": 2504.675244140625,
      "v": 48
    },
    {
      "midi": 91,
      "hit": false,
      "t": 7620.484746093749,
      "d": 2532.734208984375,
      "v": 78
    },
    {
      "midi": 84,
      "hit": false,
      "t": 10125.159990234373,
      "d": 857.4489550781254,
      "v": 65
    },
    {
      "midi": 61,
      "hit": false,
      "t": 10136.713681640626,
      "d": 420.0592089843758,
      "v": 65
    },
    {
      "midi": 68,
      "hit": false,
      "t": 10574.92869140625,
      "d": 400.2528808593743,
      "v": 68
    },
    {
      "midi": 75,
      "hit": false,
      "t": 10984.25947265625,
      "d": 421.70973632812456,
      "v": 68
    },
    {
      "midi": 84,
      "hit": false,
      "t": 10989.2110546875,
      "d": 838.4678906249992,
      "v": 63
    },
    {
      "midi": 73,
      "hit": false,
      "t": 11405.143945312499,
      "d": 428.3118457031251,
      "v": 63
    },
    {
      "midi": 77,
      "hit": false,
      "t": 11825.203154296874,
      "d": 443.16659179687304,
      "v": 66
    },
    {
      "midi": 84,
      "hit": false,
      "t": 11834.281054687499,
      "d": 825.263671875,
      "v": 62
    },
    {
      "midi": 79,
      "hit": false,
      "t": 12250.213945312498,
      "d": 434.91395507812376,
      "v": 66
    },
    {
      "midi": 84,
      "hit": false,
      "t": 12664.496308593749,
      "d": 842.5942089843757,
      "v": 66
    },
    {
      "midi": 73,
      "hit": false,
      "t": 12673.574208984372,
      "d": 2527.782626953125,
      "v": 56
    },
    {
      "midi": 77,
      "hit": false,
      "t": 12676.049999999997,
      "d": 2518.7047265624988,
      "v": 60
    },
    {
      "midi": 80,
      "hit": false,
      "t": 12684.302636718747,
      "d": 2541.8121093749996,
      "v": 57
    },
    {
      "midi": 82,
      "hit": false,
      "t": 13519.46947265625,
      "d": 1263.478681640625,
      "v": 65
    },
    {
      "midi": 87,
      "hit": false,
      "t": 14792.0260546875,
      "d": 411.8065722656247,
      "v": 63
    },
    {
      "midi": 60,
      "hit": false,
      "t": 15210.434736328121,
      "d": 420.0592089843758,
      "v": 59
    },
    {
      "midi": 79,
      "hit": false,
      "t": 15224.46421875,
      "d": 2512.1026171874983,
      "v": 59
    },
    {
      "midi": 67,
      "hit": false,
      "t": 15644.523427734372,
      "d": 409.33078125000065,
      "v": 65
    },
    {
      "midi": 72,
      "hit": false,
      "t": 16063.757373046872,
      "d": 401.07814453124956,
      "v": 62
    },
    {
      "midi": 74,
      "hit": false,
      "t": 16489.593427734373,
      "d": 406.85499023437296,
      "v": 63
    },
    {
      "midi": 75,
      "hit": false,
      "t": 16887.37051757812,
      "d": 425.836054687501,
      "v": 64
    },
    {
      "midi": 79,
      "hit": false,
      "t": 17337.13921875,
      "d": 402.72867187500015,
      "v": 65
    },
    {
      "midi": 84,
      "hit": false,
      "t": 17740.693154296874,
      "d": 2532.734208984377,
      "v": 63
    },
    {
      "midi": 89,
      "hit": false,
      "t": 20270.12630859375,
      "d": 841.7689453125022,
      "v": 60
    },
    {
      "midi": 58,
      "hit": false,
      "t": 20272.602099609376,
      "d": 424.18552734375044,
      "v": 67
    },
    {
      "midi": 65,
      "hit": false,
      "t": 20714.1181640625,
      "d": 416.75815429687646,
      "v": 65
    },
    {
      "midi": 72,
      "hit": false,
      "t": 21110.2447265625,
      "d": 431.6129003906244,
      "v": 67
    },
    {
      "midi": 70,
      "hit": false,
      "t": 21560.83869140625,
      "d": 417.58341796875175,
      "v": 67
    },
    {
      "midi": 89,
      "hit": false,
      "t": 21961.09157226563,
      "d": 8.252636718749272,
      "v": 68
    },
    {
      "midi": 73,
      "hit": false,
      "t": 21985.02421875,
      "d": 395.30129882812616,
      "v": 59
    },
    {
      "midi": 75,
      "hit": false,
      "t": 22380.325517578127,
      "d": 432.4381640624997,
      "v": 68
    },
    {
      "midi": 73,
      "hit": false,
      "t": 22808.63736328125,
      "d": 2555.0163281250025,
      "v": 58
    },
    {
      "midi": 89,
      "hit": false,
      "t": 22816.890000000003,
      "d": 832.6910449218776,
      "v": 68
    },
    {
      "midi": 70,
      "hit": false,
      "t": 22822.666845703126,
      "d": 2539.3363183593756,
      "v": 57
    },
    {
      "midi": 77,
      "hit": false,
      "t": 22831.74474609375,
      "d": 2510.4520898437513,
      "v": 60
    },
    {
      "midi": 87,
      "hit": false,
      "t": 23647.105253906255,
      "d": 1295.6639648437522,
      "v": 59
    },
    {
      "midi": 92,
      "hit": false,
      "t": 24937.817636718755,
      "d": 401.0781445312532,
      "v": 63
    },
    {
      "midi": 85,
      "hit": false,
      "t": 25342.19683593751,
      "d": 5072.895791015624,
      "v": 62
    },
    {
      "midi": 54,
      "hit": false,
      "t": 25366.954746093754,
      "d": 415.1076269531259,
      "v": 68
    },
    {
      "midi": 61,
      "hit": false,
      "t": 25780.41184570313,
      "d": 429.9623730468775,
      "v": 63
    },
    {
      "midi": 66,
      "hit": false,
      "t": 26207.89842773438,
      "d": 398.6023535156273,
      "v": 62
    },
    {
      "midi": 68,
      "hit": false,
      "t": 26632.909218750006,
      "d": 421.70973632812456,
      "v": 68
    },
    {
      "midi": 70,
      "hit": false,
      "t": 27057.094746093757,
      "d": 401.90340820312485,
      "v": 61
    },
    {
      "midi": 73,
      "hit": false,
      "t": 27477.15395507813,
      "d": 407.6802539062519,
      "v": 64
    },
    {
      "midi": 78,
      "hit": false,
      "t": 27896.387900390633,
      "d": 412.6318359375,
      "v": 68
    },
    {
      "midi": 73,
      "hit": false,
      "t": 28311.49552734376,
      "d": 415.1076269531259,
      "v": 59
    },
    {
      "midi": 78,
      "hit": false,
      "t": 28745.58421875001,
      "d": 404.3791992187507,
      "v": 61
    },
    {
      "midi": 80,
      "hit": false,
      "t": 29145.01183593751,
      "d": 417.58341796875175,
      "v": 61
    },
    {
      "midi": 82,
      "hit": false,
      "t": 29568.372099609383,
      "d": 419.2339453124987,
      "v": 62
    },
    {
      "midi": 85,
      "hit": false,
      "t": 30003.286054687505,
      "d": 400.2528808593743,
      "v": 67
    },
    {
      "midi": 53,
      "hit": false,
      "t": 30406.014726562506,
      "d": 428.31184570312325,
      "v": 62
    },
    {
      "midi": 68,
      "hit": false,
      "t": 30408.490517578135,
      "d": 1267.6049999999996,
      "v": 59
    },
    {
      "midi": 77,
      "hit": false,
      "t": 30436.549482421884,
      "d": 1265.9544726562526,
      "v": 64
    },
    {
      "midi": 60,
      "hit": false,
      "t": 30847.53079101563,
      "d": 415.1076269531259,
      "v": 68
    },
    {
      "midi": 65,
      "hit": false,
      "t": 31277.493164062507,
      "d": 401.07814453124956,
      "v": 68
    },
    {
      "midi": 72,
      "hit": false,
      "t": 31681.047099609386,
      "d": 428.3118457031269,
      "v": 50
    },
    {
      "midi": 67,
      "hit": false,
      "t": 31696.727109375006,
      "d": 409.33078124999884,
      "v": 48
    },
    {
      "midi": 68,
      "hit": false,
      "t": 32098.63051757813,
      "d": 424.18552734375044,
      "v": 55
    },
    {
      "midi": 77,
      "hit": false,
      "t": 32116.786318359387,
      "d": 416.75815429687646,
      "v": 61
    },
    {
      "midi": 79,
      "hit": false,
      "t": 32537.67079101564,
      "d": 431.6129003906317,
      "v": 59
    },
    {
      "midi": 70,
      "hit": false,
      "t": 32550.87500976563,
      "d": 393.6507714843756,
      "v": 60
    },
    {
      "midi": 72,
      "hit": false,
      "t": 32953.60368164064,
      "d": 431.6129003906317,
      "v": 68
    },
    {
      "midi": 80,
      "hit": false,
      "t": 32961.03105468752,
      "d": 843.4194726562491,
      "v": 72
    },
    {
      "midi": 61,
      "hit": false,
      "t": 32973.41000976565,
      "d": 419.2339453125023,
      "v": 59
    },
    {
      "midi": 68,
      "hit": false,
      "t": 33404.1976464844,
      "d": 826.088935546868,
      "v": 47
    },
    {
      "midi": 79,
      "hit": false,
      "t": 33792.071572265646,
      "d": 857.4489550781145,
      "v": 63
    },
    {
      "midi": 67,
      "hit": false,
      "t": 34230.286582031265,
      "d": 420.05920898437034,
      "v": 60
    },
    {
      "midi": 77,
      "hit": false,
      "t": 34638.79209960939,
      "d": 857.4489550781145,
      "v": 64
    },
    {
      "midi": 65,
      "hit": false,
      "t": 34661.89948242188,
      "d": 387.04866210937325,
      "v": 65
    },
    {
      "midi": 61,
      "hit": false,
      "t": 35066.27868164063,
      "d": 402.7286718749965,
      "v": 66
    },
    {
      "midi": 51,
      "hit": false,
      "t": 35476.43472656251,
      "d": 439.86553710937005,
      "v": 67
    },
    {
      "midi": 75,
      "hit": false,
      "t": 35478.91051757813,
      "d": 1285.7608007812596,
      "v": 61
    },
    {
      "midi": 67,
      "hit": false,
      "t": 35504.49369140626,
      "d": 1244.4976171875023,
      "v": 65
    },
    {
      "midi": 58,
      "hit": false,
      "t": 35918.77605468751,
      "d": 407.68025390624825,
      "v": 59
    },
    {
      "midi": 63,
      "hit": false,
      "t": 36336.35947265626,
      "d": 409.33078124999884,
      "v": 66
    },
    {
      "midi": 77,
      "hit": false,
      "t": 36758.89447265626,
      "d": 412.6318359375,
      "v": 67
    },
    {
      "midi": 68,
      "hit": false,
      "t": 36761.37026367189,
      "d": 418.40868164062704,
      "v": 65
    },
    {
      "midi": 65,
      "hit": false,
      "t": 36769.622900390634,
      "d": 413.4570996093753,
      "v": 64
    },
    {
      "midi": 75,
      "hit": false,
      "t": 37170.70104492189,
      "d": 866.5268554687573,
      "v": 59
    },
    {
      "midi": 70,
      "hit": false,
      "t": 37190.50737304689,
      "d": 848.3710546875081,
      "v": 65
    },
    {
      "midi": 73,
      "hit": false,
      "t": 37194.63369140626,
      "d": 826.9141992187506,
      "v": 68
    },
    {
      "midi": 67,
      "hit": false,
      "t": 37195.45895507813,
      "d": 425.0107910156221,
      "v": 60
    },
    {
      "midi": 61,
      "hit": false,
      "t": 37606.44026367188,
      "d": 420.0592089843776,
      "v": 66
    },
    {
      "midi": 68,
      "hit": false,
      "t": 38031.45105468752,
      "d": 2517.0541992187573,
      "v": 61
    },
    {
      "midi": 72,
      "hit": false,
      "t": 38033.10158203127,
      "d": 2517.0541992187573,
      "v": 67
    },
    {
      "midi": 44,
      "hit": false,
      "t": 38039.703691406256,
      "d": 420.0592089843776,
      "v": 62
    },
    {
      "midi": 51,
      "hit": false,
      "t": 38466.365009765635,
      "d": 410.1560449218741,
      "v": 60
    },
    {
      "midi": 56,
      "hit": false,
      "t": 38864.96736328126,
      "d": 441.51606445312063,
      "v": 62
    },
    {
      "midi": 58,
      "hit": false,
      "t": 39291.628681640635,
      "d": 432.4381640624997,
      "v": 64
    },
    {
      "midi": 60,
      "hit": false,
      "t": 39701.78472656251,
      "d": 431.6129003906244,
      "v": 68
    },
    {
      "midi": 63,
      "hit": false,
      "t": 40143.30079101564,
      "d": 422.5350000000035,
      "v": 66
    },
    {
      "midi": 68,
      "hit": false,
      "t": 40554.2820996094,
      "d": 1289.8871191406288,
      "v": 67
    },
    {
      "midi": 53,
      "hit": false,
      "t": 40562.53473632814,
      "d": 430.7876367187564,
      "v": 59
    },
    {
      "midi": 77,
      "hit": false,
      "t": 40568.31158203128,
      "d": 1261.8281542968762,
      "v": 64
    },
    {
      "midi": 60,
      "hit": false,
      "t": 40984.24447265627,
      "d": 431.6129003906317,
      "v": 59
    },
    {
      "midi": 65,
      "hit": false,
      "t": 41410.90579101565,
      "d": 427.48658203125524,
      "v": 68
    },
    {
      "midi": 72,
      "hit": false,
      "t": 41830.13973632816,
      "d": 423.3602636718715,
      "v": 47
    },
    {
      "midi": 67,
      "hit": false,
      "t": 41832.615527343776,
      "d": 409.33078124999884,
      "v": 50
    },
    {
      "midi": 68,
      "hit": false,
      "t": 42251.0242089844,
      "d": 425.0107910156221,
      "v": 54
    },
    {
      "midi": 77,
      "hit": false,
      "t": 42259.276845703156,
      "d": 420.0592089843776,
      "v": 57
    },
    {
      "midi": 79,
      "hit": false,
      "t": 42659.529726562534,
      "d": 425.83605468750466,
      "v": 63
    },
    {
      "midi": 70,
      "hit": false,
      "t": 42684.28763671878,
      "d": 402.7286718749965,
      "v": 60
    },
    {
      "midi": 72,
      "hit": false,
      "t": 43080.41419921879,
      "d": 421.7097363281282,
      "v": 68
    },
    {
      "midi": 61,
      "hit": false,
      "t": 43090.31736328129,
      "d": 448.94343750000553,
      "v": 62
    },
    {
      "midi": 80,
      "hit": false,
      "t": 43110.12369140629,
      "d": 840.9436816406305,
      "v": 65
    },
    {
      "midi": 68,
      "hit": false,
      "t": 43511.20183593754,
      "d": 880.55633789063,
      "v": 49
    },
    {
      "midi": 79,
      "hit": false,
      "t": 43939.513681640674,
      "d": 850.8468457031267,
      "v": 59
    },
    {
      "midi": 67,
      "hit": false,
      "t": 44368.65079101567,
      "d": 392.8255078125003,
      "v": 53
    },
    {
      "midi": 65,
      "hit": false,
      "t": 44796.9626367188,
      "d": 408.5055175781308,
      "v": 58
    },
    {
      "midi": 80,
      "hit": false,
      "t": 44803.564746093805,
      "d": 819.4868261718802,
      "v": 66
    },
    {
      "midi": 61,
      "hit": false,
      "t": 45184.01129882818,
      "d": 435.7392187500009,
      "v": 59
    },
    {
      "midi": 82,
      "hit": false,
      "t": 45621.401044921935,
      "d": 1276.6829003906314,
      "v": 59
    },
    {
      "midi": 70,
      "hit": false,
      "t": 45628.82841796881,
      "d": 1282.4597460937584,
      "v": 64
    },
    {
      "midi": 51,
      "hit": false,
      "t": 45632.95473632815,
      "d": 429.13710937499854,
      "v": 62
    },
    {
      "midi": 79,
      "hit": false,
      "t": 45634.60526367194,
      "d": 1275.857636718756,
      "v": 63
    },
    {
      "midi": 58,
      "hit": false,
      "t": 46043.9360449219,
      "d": 422.5349999999962,
      "v": 65
    },
    {
      "midi": 63,
      "hit": false,
      "t": 46484.62684570315,
      "d": 414.2823632812506,
      "v": 66
    },
    {
      "midi": 68,
      "hit": false,
      "t": 46889.00604492194,
      "d": 420.0592089843849,
      "v": 60
    },
    {
      "midi": 80,
      "hit": false,
      "t": 46894.782890625065,
      "d": 439.0402734375166,
      "v": 60
    },
    {
      "midi": 77,
      "hit": false,
      "t": 46903.03552734382,
      "d": 421.7097363281355,
      "v": 62
    },
    {
      "midi": 65,
      "hit": false,
      "t": 46916.23974609377,
      "d": 396.12656250000146,
      "v": 60
    },
    {
      "midi": 82,
      "hit": false,
      "t": 47314.84209960945,
      "d": 845.070000000007,
      "v": 65
    },
    {
      "midi": 70,
      "hit": false,
      "t": 47316.4926269532,
      "d": 864.8763281250067,
      "v": 63
    },
    {
      "midi": 79,
      "hit": false,
      "t": 47331.347373046956,
      "d": 832.6910449218776,
      "v": 62
    },
    {
      "midi": 67,
      "hit": false,
      "t": 47333.82316406252,
      "d": 401.9034082031285,
      "v": 66
    },
    {
      "midi": 61,
      "hit": false,
      "t": 47756.35816406253,
      "d": 401.0781445312459,
      "v": 61
    },
    {
      "midi": 80,
      "hit": false,
      "t": 48168.990000000085,
      "d": 2521.1805175781265,
      "v": 68
    },
    {
      "midi": 72,
      "hit": false,
      "t": 48169.81526367196,
      "d": 2519.529990234376,
      "v": 62
    },
    {
      "midi": 44,
      "hit": false,
      "t": 48176.4173730469,
      "d": 407.680253906241,
      "v": 60
    },
    {
      "midi": 84,
      "hit": false,
      "t": 48181.36895507821,
      "d": 2510.452089843755,
      "v": 62
    },
    {
      "midi": 51,
      "hit": false,
      "t": 48597.301845703136,
      "d": 423.3602636718715,
      "v": 63
    },
    {
      "midi": 56,
      "hit": false,
      "t": 49000.85578125001,
      "d": 446.4676464843724,
      "v": 65
    },
    {
      "midi": 58,
      "hit": false,
      "t": 49436.59500000001,
      "d": 420.05920898437034,
      "v": 65
    },
    {
      "midi": 60,
      "hit": false,
      "t": 49873.15948242188,
      "d": 409.33078124999884,
      "v": 61
    },
    {
      "midi": 63,
      "hit": false,
      "t": 50280.01447265625,
      "d": 434.9139550781183,
      "v": 67
    },
    {
      "midi": 77,
      "hit": false,
      "t": 50698.423154296965,
      "d": 1269.2555273437465,
      "v": 67
    },
    {
      "midi": 53,
      "hit": false,
      "t": 50702.54947265625,
      "d": 439.8655371093773,
      "v": 60
    },
    {
      "midi": 68,
      "hit": false,
      "t": 50718.229482421964,
      "d": 1237.8955078125,
      "v": 61
    },
    {
      "midi": 60,
      "hit": false,
      "t": 51134.16237304687,
      "d": 404.37919921875437,
      "v": 68
    },
    {
      "midi": 65,
      "hit": false,
      "t": 51559.998427734376,
      "d": 411.8065722656247,
      "v": 64
    },
    {
      "midi": 67,
      "hit": false,
      "t": 51956.12499023438,
      "d": 439.86553710937005,
      "v": 47
    },
    {
      "midi": 72,
      "hit": false,
      "t": 51985.83448242196,
      "d": 409.33078124999884,
      "v": 50
    },
    {
      "midi": 68,
      "hit": false,
      "t": 52395.16526367187,
      "d": 432.4381640624997,
      "v": 56
    },
    {
      "midi": 77,
      "hit": false,
      "t": 52400.11684570321,
      "d": 408.50551757812354,
      "v": 55
    },
    {
      "midi": 79,
      "hit": false,
      "t": 52817.70026367196,
      "d": 417.58341796875175,
      "v": 60
    },
    {
      "midi": 70,
      "hit": false,
      "t": 52821.826582031244,
      "d": 428.31184570312325,
      "v": 66
    },
    {
      "midi": 72,
      "hit": false,
      "t": 53221.25419921884,
      "d": 465.4487109374968,
      "v": 67
    },
    {
      "midi": 61,
      "hit": false,
      "t": 53241.88579101572,
      "d": 410.9813085937494,
      "v": 59
    },
    {
      "midi": 80,
      "hit": false,
      "t": 53241.88579101572,
      "d": 848.3710546875009,
      "v": 68
    },
    {
      "midi": 68,
      "hit": false,
      "t": 53667.721845703214,
      "d": 840.1184179687552,
      "v": 52
    },
    {
      "midi": 79,
      "hit": false,
      "t": 54082.004208984465,
      "d": 831.0405175781343,
      "v": 59
    },
    {
      "midi": 67,
      "hit": false,
      "t": 54515.26763671885,
      "d": 409.33078124999884,
      "v": 62
    },
    {
      "midi": 65,
      "hit": false,
      "t": 54927.07420898447,
      "d": 415.1076269531259,
      "v": 64
    },
    {
      "midi": 77,
      "hit": false,
      "t": 54932.8510546876,
      "d": 844.2447363281244,
      "v": 62
    },
    {
      "midi": 61,
      "hit": false,
      "t": 55351.259736328226,
      "d": 396.1265624999942,
      "v": 72
    },
    {
      "midi": 51,
      "hit": false,
      "t": 55761.41578125,
      "d": 429.13710937499854,
      "v": 64
    },
    {
      "midi": 67,
      "hit": false,
      "t": 55788.64948242197,
      "d": 1245.3228808593776,
      "v": 66
    },
    {
      "midi": 75,
      "hit": false,
      "t": 55790.30000976572,
      "d": 1244.4976171875023,
      "v": 64
    },
    {
      "midi": 58,
      "hit": false,
      "t": 56189.72762695312,
      "d": 417.58341796875175,
      "v": 64
    },
    {
      "midi": 63,
      "hit": false,
      "t": 56630.418427734374,
      "d": 415.1076269531186,
      "v": 61
    },
    {
      "midi": 77,
      "hit": false,
      "t": 57033.14709960947,
      "d": 444.8171191406291,
      "v": 60
    },
    {
      "midi": 65,
      "hit": false,
      "t": 57033.972363281246,
      "d": 414.2823632812433,
      "v": 60
    },
    {
      "midi": 68,
      "hit": false,
      "t": 57037.27341796885,
      "d": 417.58341796875175,
      "v": 62
    },
    {
      "midi": 73,
      "hit": false,
      "t": 57453.20630859385,
      "d": 865.7015917968747,
      "v": 62
    },
    {
      "midi": 75,
      "hit": false,
      "t": 57454.8568359376,
      "d": 838.4678906249974,
      "v": 59
    },
    {
      "midi": 67,
      "hit": false,
      "t": 57474.66316406249,
      "d": 402.7286718749965,
      "v": 62
    },
    {
      "midi": 70,
      "hit": false,
      "t": 57477.9642187501,
      "d": 817.8362988281224,
      "v": 59
    },
    {
      "midi": 61,
      "hit": false,
      "t": 57888.945527343734,
      "d": 407.68025390624825,
      "v": 67
    },
    {
      "midi": 72,
      "hit": false,
      "t": 58294.14999023447,
      "d": 1695.091582031244,
      "v": 66
    },
    {
      "midi": 44,
      "hit": false,
      "t": 58318.08263671873,
      "d": 415.1076269531186,
      "v": 67
    },
    {
      "midi": 51,
      "hit": false,
      "t": 58729.88920898435,
      "d": 430.7876367187564,
      "v": 63
    },
    {
      "midi": 56,
      "hit": false,
      "t": 59152.424208984354,
      "d": 427.48658203125524,
      "v": 59
    },
    {
      "midi": 58,
      "hit": false,
      "t": 59581.56131835936,
      "d": 418.40868164062704,
      "v": 62
    },
    {
      "midi": 68,
      "hit": false,
      "t": 59988.41630859384,
      "d": 4.951582031251746,
      "v": 65
    },
    {
      "midi": 60,
      "hit": false,
      "t": 60005.746845703114,
      "d": 406.0297265624977,
      "v": 61
    },
    {
      "midi": 55,
      "hit": false,
      "t": 60411.77657226561,
      "d": 431.6129003906244,
      "v": 61
    },
    {
      "midi": 70,
      "hit": false,
      "t": 60411.77657226572,
      "d": 437.38974609375146,
      "v": 63
    },
    {
      "midi": 72,
      "hit": false,
      "t": 60829.35999023447,
      "d": 854.1479003906279,
      "v": 59
    },
    {
      "midi": 63,
      "hit": false,
      "t": 60835.1368359376,
      "d": 859.9247460937477,
      "v": 67
    },
    {
      "midi": 65,
      "hit": false,
      "t": 60850.81684570322,
      "d": 825.263671875,
      "v": 62
    },
    {
      "midi": 49,
      "hit": false,
      "t": 60852.467373046864,
      "d": 416.75815429687646,
      "v": 67
    },
    {
      "midi": 56,
      "hit": false,
      "t": 61280.77921874999,
      "d": 420.88447265624563,
      "v": 44
    },
    {
      "midi": 65,
      "hit": false,
      "t": 61677.73104492197,
      "d": 842.5942089843738,
      "v": 64
    },
    {
      "midi": 61,
      "hit": false,
      "t": 61689.28473632811,
      "d": 430.78763671874185,
      "v": 64
    },
    {
      "midi": 56,
      "hit": false,
      "t": 62104.39236328123,
      "d": 439.8655371093773,
      "v": 40
    },
    {
      "midi": 72,
      "hit": false,
      "t": 62519.49999023447,
      "d": 21.45685546875029,
      "v": 61
    },
    {
      "midi": 60,
      "hit": false,
      "t": 62536.83052734373,
      "d": 420.8844726562529,
      "v": 67
    },
    {
      "midi": 65,
      "hit": false,
      "t": 62540.13158203135,
      "d": 826.0889355468753,
      "v": 68
    },
    {
      "midi": 56,
      "hit": false,
      "t": 62964.317109374984,
      "d": 423.3602636718715,
      "v": 45
    },
    {
      "midi": 67,
      "hit": false,
      "t": 63370.3468359376,
      "d": 2544.2879003906273,
      "v": 67
    },
    {
      "midi": 61,
      "hit": false,
      "t": 63376.12368164061,
      "d": 2524.4815722656276,
      "v": 64
    },
    {
      "midi": 72,
      "hit": false,
      "t": 63387.67737304698,
      "d": 843.4194726562491,
      "v": 68
    },
    {
      "midi": 51,
      "hit": false,
      "t": 63393.45421874998,
      "d": 2531.08368164063,
      "v": 59
    },
    {
      "midi": 70,
      "hit": false,
      "t": 64220.36841796886,
      "d": 834.3415722656209,
      "v": 65
    },
    {
      "midi": 75,
      "hit": false,
      "t": 65058.836308593854,
      "d": 850.0215820312515,
      "v": 65
    },
    {
      "midi": 46,
      "hit": false,
      "t": 65898.95472656249,
      "d": 447.2929101562477,
      "v": 64
    },
    {
      "midi": 65,
      "hit": false,
      "t": 65912.1589453126,
      "d": 1281.6344824218686,
      "v": 65
    },
    {
      "midi": 61,
      "hit": false,
      "t": 65912.98420898448,
      "d": 1273.3818457031302,
      "v": 64
    },
    {
      "midi": 68,
      "hit": false,
      "t": 65918.7610546876,
      "d": 1249.449199218754,
      "v": 60
    },
    {
      "midi": 53,
      "hit": false,
      "t": 66326.44130859373,
      "d": 439.0402734375093,
      "v": 64
    },
    {
      "midi": 58,
      "hit": false,
      "t": 66754.75315429686,
      "d": 859.9247460937331,
      "v": 66
    },
    {
      "midi": 68,
      "hit": false,
      "t": 67194.61869140634,
      "d": 404.3791992187471,
      "v": 63
    },
    {
      "midi": 67,
      "hit": false,
      "t": 67589.91999023447,
      "d": 434.08869140625757,
      "v": 69
    },
    {
      "midi": 60,
      "hit": false,
      "t": 67593.22104492185,
      "d": 850.8468457030976,
      "v": 58
    },
    {
      "midi": 55,
      "hit": false,
      "t": 67617.15369140622,
      "d": 820.3120898437483,
      "v": 63
    },
    {
      "midi": 48,
      "hit": false,
      "t": 67621.28000976559,
      "d": 821.9626171874988,
      "v": 62
    },
    {
      "midi": 63,
      "hit": false,
      "t": 68012.45499023447,
      "d": 449.7687011718808,
      "v": 73
    },
    {
      "midi": 65,
      "hit": false,
      "t": 68447.3689453126,
      "d": 2541.8121093750087,
      "v": 76
    },
    {
      "midi": 49,
      "hit": false,
      "t": 68460.57316406246,
      "d": 422.5350000000035,
      "v": 62
    },
    {
      "midi": 56,
      "hit": false,
      "t": 68885.58395507808,
      "d": 401.90340820311394,
      "v": 56
    },
    {
      "midi": 61,
      "hit": false,
      "t": 69286.66209960933,
      "d": 443.16659179686394,
      "v": 61
    },
    {
      "midi": 65,
      "hit": false,
      "t": 69729.00342773432,
      "d": 396.1265624999942,
      "v": 56
    },
    {
      "midi": 68,
      "hit": false,
      "t": 70130.08157226557,
      "d": 430.7876367187564,
      "v": 60
    },
    {
      "midi": 73,
      "hit": false,
      "t": 70575.72395507808,
      "d": 410.9813085937494,
      "v": 63
    },
    {
      "midi": 77,
      "hit": false,
      "t": 70998.25895507823,
      "d": 412.6318359375,
      "v": 64
    },
    {
      "midi": 65,
      "hit": false,
      "t": 71417.49290039073,
      "d": 415.9328906249866,
      "v": 60
    },
    {
      "midi": 68,
      "hit": false,
      "t": 71832.60052734385,
      "d": 425.8360546874901,
      "v": 65
    },
    {
      "midi": 73,
      "hit": false,
      "t": 72236.9797265626,
      "d": 433.263427734375,
      "v": 70
    },
    {
      "midi": 77,
      "hit": false,
      "t": 72684.27263671884,
      "d": 425.8360546874901,
      "v": 68
    },
    {
      "midi": 80,
      "hit": false,
      "t": 73105.98237304697,
      "d": 427.4865820312407,
      "v": 73
    },
    {
      "midi": 58,
      "hit": false,
      "t": 73521.08999999995,
      "d": 438.21500976562675,
      "v": 43
    },
    {
      "midi": 82,
      "hit": false,
      "t": 73521.91526367195,
      "d": 1698.3926367187669,
      "v": 80
    },
    {
      "midi": 65,
      "hit": false,
      "t": 73955.17869140621,
      "d": 398.6023535156128,
      "v": 46
    },
    {
      "midi": 70,
      "hit": false,
      "t": 74358.73262695307,
      "d": 444.8171191406291,
      "v": 42
    },
    {
      "midi": 72,
      "hit": false,
      "t": 74795.29710937495,
      "d": 420.0592089843849,
      "v": 44
    },
    {
      "midi": 89,
      "hit": false,
      "t": 75200.50157226571,
      "d": 854.9731640624959,
      "v": 76
    },
    {
      "midi": 73,
      "hit": false,
      "t": 75218.65737304684,
      "d": 401.9034082031285,
      "v": 41
    },
    {
      "midi": 77,
      "hit": false,
      "t": 75629.63868164059,
      "d": 439.8655371093773,
      "v": 41
    },
    {
      "midi": 54,
      "hit": false,
      "t": 76040.61999023434,
      "d": 435.73921875000815,
      "v": 44
    },
    {
      "midi": 82,
      "hit": false,
      "t": 76059.60105468758,
      "d": 833.5163085937384,
      "v": 72
    },
    {
      "midi": 89,
      "hit": false,
      "t": 76065.3779003907,
      "d": 842.5942089843593,
      "v": 76
    },
    {
      "midi": 80,
      "hit": false,
      "t": 76067.02842773445,
      "d": 838.4678906249901,
      "v": 73
    },
    {
      "midi": 61,
      "hit": false,
      "t": 76469.75709960934,
      "d": 420.05920898437034,
      "v": 46
    },
    {
      "midi": 87,
      "hit": false,
      "t": 76887.3405175782,
      "d": 870.6531738281046,
      "v": 79
    },
    {
      "midi": 66,
      "hit": false,
      "t": 76901.36999999997,
      "d": 430.7876367187564,
      "v": 47
    },
    {
      "midi": 68,
      "hit": false,
      "t": 77314.00183593747,
      "d": 440.6908007812599,
      "v": 45
    },
    {
      "midi": 85,
      "hit": false,
      "t": 77735.71157226567,
      "d": 871.4784375000017,
      "v": 68
    },
    {
      "midi": 78,
      "hit": false,
      "t": 77739.83789062504,
      "d": 850.0215820312587,
      "v": 72
    },
    {
      "midi": 70,
      "hit": false,
      "t": 77748.09052734372,
      "d": 432.43816406249243,
      "v": 42
    },
    {
      "midi": 73,
      "hit": false,
      "t": 78169.80026367184,
      "d": 433.263427734375,
      "v": 45
    },
    {
      "midi": 56,
      "hit": false,
      "t": 78582.43209960934,
      "d": 426.6613183593727,
      "v": 45
    },
    {
      "midi": 84,
      "hit": false,
      "t": 78583.2573632813,
      "d": 1709.1210644531238,
      "v": 67
    },
    {
      "midi": 80,
      "hit": false,
      "t": 78595.63631835942,
      "d": 1674.4599902343762,
      "v": 72
    },
    {
      "midi": 63,
      "hit": false,
      "t": 78998.36499023435,
      "d": 434.088691406243,
      "v": 47
    },
    {
      "midi": 68,
      "hit": false,
      "t": 79429.97789062497,
      "d": 419.2339453124878,
      "v": 48
    },
    {
      "midi": 70,
      "hit": false,
      "t": 79846.73604492184,
      "d": 447.2929101562477,
      "v": 42
    },
    {
      "midi": 72,
      "hit": false,
      "t": 80271.74683593746,
      "d": 434.08869140625757,
      "v": 41
    },
    {
      "midi": 75,
      "hit": false,
      "t": 80700.88394531247,
      "d": 437.38974609375873,
      "v": 40
    },
    {
      "midi": 80,
      "hit": false,
      "t": 80977.34727539067,
      "d": 2699.4374707030947,
      "v": 77
    },
    {
      "midi": 84,
      "hit": false,
      "t": 81040.06731445316,
      "d": 2610.3089941406215,
      "v": 80
    },
    {
      "midi": 92,
      "hit": false,
      "t": 81110.21472656254,
      "d": 7.427373046870343,
      "v": 82
    },
    {
      "midi": 53,
      "hit": false,
      "t": 81118.46736328122,
      "d": 436.56448242187616,
      "v": 43
    },
    {
      "midi": 60,
      "hit": false,
      "t": 81564.10974609372,
      "d": 416.7581542968692,
      "v": 41
    },
    {
      "midi": 65,
      "hit": false,
      "t": 81981.69316406245,
      "d": 400.25288085936336,
      "v": 43
    },
    {
      "midi": 67,
      "hit": false,
      "t": 82377.81972656245,
      "d": 446.4676464843651,
      "v": 41
    },
    {
      "midi": 68,
      "hit": false,
      "t": 82830.06421874993,
      "d": 417.5834179687372,
      "v": 39
    },
    {
      "midi": 72,
      "hit": false,
      "t": 83243.5213183593,
      "d": 424.1855273437395,
      "v": 40
    },
    {
      "midi": 79,
      "hit": false,
      "t": 83658.62894531254,
      "d": 1679.4115722655988,
      "v": 74
    },
    {
      "midi": 60,
      "hit": false,
      "t": 83661.92999999992,
      "d": 414.2823632812506,
      "v": 47
    },
    {
      "midi": 84,
      "hit": false,
      "t": 83667.70684570314,
      "d": 1689.3147363281169,
      "v": 73
    },
    {
      "midi": 67,
      "hit": false,
      "t": 84088.5913183593,
      "d": 410.1560449218814,
      "v": 41
    },
    {
      "midi": 72,
      "hit": false,
      "t": 84505.34947265618,
      "d": 419.2339453125023,
      "v": 45
    },
    {
      "midi": 74,
      "hit": false,
      "t": 84928.70973632805,
      "d": 420.05920898437034,
      "v": 38
    },
    {
      "midi": 75,
      "hit": false,
      "t": 85336.3899902343,
      "d": 440.69080078124534,
      "v": 38
    },
    {
      "midi": 91,
      "hit": false,
      "t": 85352.89526367189,
      "d": 829.3899902343692,
      "v": 78
    },
    {
      "midi": 77,
      "hit": false,
      "t": 85772.12920898429,
      "d": 420.88447265623836,
      "v": 34
    },
    {
      "midi": 82,
      "hit": false,
      "t": 86048.59253906252,
      "d": 2695.3111523437256,
      "v": 75
    },
    {
      "midi": 86,
      "hit": false,
      "t": 86112.96310546876,
      "d": 2625.98900390623,
      "v": 79
    },
    {
      "midi": 67,
      "hit": false,
      "t": 86180.6347265624,
      "d": 2563.268964843737,
      "v": 35
    },
    {
      "midi": 91,
      "hit": false,
      "t": 86208.69369140625,
      "d": 2516.228935546882,
      "v": 85
    },
    {
      "midi": 77,
      "hit": false,
      "t": 88736.47631835938,
      "d": 1696.7421093750017,
      "v": 68
    },
    {
      "midi": 58,
      "hit": false,
      "t": 88738.12684570302,
      "d": 420.05920898437034,
      "v": 56
    },
    {
      "midi": 82,
      "hit": false,
      "t": 88743.90369140625,
      "d": 1691.79052734375,
      "v": 70
    },
    {
      "midi": 65,
      "hit": false,
      "t": 89156.53552734364,
      "d": 416.7581542968692,
      "v": 52
    },
    {
      "midi": 70,
      "hit": false,
      "t": 89591.44948242177,
      "d": 423.3602636718715,
      "v": 54
    },
    {
      "midi": 72,
      "hit": false,
      "t": 90002.43079101552,
      "d": 416.7581542968692,
      "v": 50
    },
    {
      "midi": 89,
      "hit": false,
      "t": 90420.01420898437,
      "d": 842.5942089843738,
      "v": 82
    },
    {
      "midi": 73,
      "hit": false,
      "t": 90421.664736328,
      "d": 434.9139550781256,
      "v": 50
    },
    {
      "midi": 70,
      "hit": false,
      "t": 90854.10290039051,
      "d": 415.93289062500116,
      "v": 44
    },
    {
      "midi": 79,
      "hit": false,
      "t": 91124.78938476562,
      "d": 971.3353417968756,
      "v": 71
    },
    {
      "midi": 84,
      "hit": false,
      "t": 91205.66522460937,
      "d": 892.9352929687448,
      "v": 75
    },
    {
      "midi": 60,
      "hit": false,
      "t": 91260.13262695301,
      "d": 1676.1105175781267,
      "v": 44
    },
    {
      "midi": 89,
      "hit": false,
      "t": 91273.33684570312,
      "d": 827.7394628906186,
      "v": 77
    },
    {
      "midi": 88,
      "hit": false,
      "t": 92096.94999023437,
      "d": 1689.3147363281169,
      "v": 80
    },
    {
      "midi": 60,
      "hit": false,
      "t": 92951.0978906249,
      "d": 440.69080078124534,
      "v": 60
    },
    {
      "midi": 58,
      "hit": false,
      "t": 93369.50657226551,
      "d": 445.6423828124971,
      "v": 55
    },
    {
      "midi": 48,
      "hit": false,
      "t": 93787.08999023426,
      "d": 423.3602636718715,
      "v": 61
    },
    {
      "midi": 55,
      "hit": false,
      "t": 94217.05236328114,
      "d": 417.58341796875175,
      "v": 65
    },
    {
      "midi": 60,
      "hit": false,
      "t": 94647.01473632801,
      "d": 407.68025390624825,
      "v": 66
    },
    {
      "midi": 62,
      "hit": false,
      "t": 95064.59815429676,
      "d": 428.31184570312325,
      "v": 64
    },
    {
      "midi": 72,
      "hit": false,
      "t": 95480.53104492184,
      "d": 3.301054687501164,
      "v": 66
    },
    {
      "midi": 63,
      "hit": false,
      "t": 95489.60894531239,
      "d": 429.1371093750058,
      "v": 63
    },
    {
      "midi": 79,
      "hit": false,
      "t": 95491.25947265621,
      "d": 840.1184179687552,
      "v": 59
    },
    {
      "midi": 67,
      "hit": false,
      "t": 95497.86158203121,
      "d": 8.25263671875291,
      "v": 61
    },
    {
      "midi": 55,
      "hit": false,
      "t": 95914.61973632802,
      "d": 421.7097363281209,
      "v": 68
    },
    {
      "midi": 70,
      "hit": false,
      "t": 96332.20315429683,
      "d": 854.1479003906134,
      "v": 72
    },
    {
      "midi": 79,
      "hit": false,
      "t": 96344.58210937495,
      "d": 847.545791015611,
      "v": 65
    },
    {
      "midi": 72,
      "hit": false,
      "t": 96353.66000976558,
      "d": 817.8362988281297,
      "v": 59
    },
    {
      "midi": 44,
      "hit": false,
      "t": 96356.96106445302,
      "d": 413.457099609368,
      "v": 59
    },
    {
      "midi": 51,
      "hit": false,
      "t": 96772.06869140614,
      "d": 425.0107910156221,
      "v": 59
    },
    {
      "midi": 77,
      "hit": false,
      "t": 97173.97209960932,
      "d": 853.3226367187453,
      "v": 62
    },
    {
      "midi": 72,
      "hit": false,
      "t": 97184.7005273437,
      "d": 844.2447363281244,
      "v": 59
    },
    {
      "midi": 68,
      "hit": false,
      "t": 97186.35105468745,
      "d": 847.545791015611,
      "v": 67
    },
    {
      "midi": 56,
      "hit": false,
      "t": 97197.07948242176,
      "d": 396.1265624999942,
      "v": 62
    },
    {
      "midi": 58,
      "hit": false,
      "t": 97603.93447265612,
      "d": 408.5055175781308,
      "v": 67
    },
    {
      "midi": 60,
      "hit": false,
      "t": 98026.46947265613,
      "d": 411.806572265632,
      "v": 63
    },
    {
      "midi": 75,
      "hit": false,
      "t": 98032.24631835932,
      "d": 843.4194726562273,
      "v": 66
    },
    {
      "midi": 67,
      "hit": false,
      "t": 98033.07158203119,
      "d": 839.2931542968727,
      "v": 71
    },
    {
      "midi": 72,
      "hit": false,
      "t": 98037.19790039056,
      "d": 837.6426269531221,
      "v": 61
    },
    {
      "midi": 51,
      "hit": false,
      "t": 98440.75183593738,
      "d": 420.8844726562529,
      "v": 68
    },
    {
      "midi": 65,
      "hit": false,
      "t": 98873.18999999993,
      "d": 1687.6642089843663,
      "v": 66
    },
    {
      "midi": 46,
      "hit": false,
      "t": 98878.14158203114,
      "d": 426.6613183593727,
      "v": 60
    },
    {
      "midi": 70,
      "hit": false,
      "t": 98887.2194824218,
      "d": 1667.8578808593738,
      "v": 62
    },
    {
      "midi": 53,
      "hit": false,
      "t": 99306.45342773426,
      "d": 410.9813085937494,
      "v": 63
    },
    {
      "midi": 58,
      "hit": false,
      "t": 99704.230517578,
      "d": 431.6129003906244,
      "v": 68
    },
    {
      "midi": 60,
      "hit": false,
      "t": 100137.49394531238,
      "d": 418.40868164061976,
      "v": 59
    },
    {
      "midi": 74,
      "hit": false,
      "t": 100560.8542089843,
      "d": 6.602109374987776,
      "v": 67
    },
    {
      "midi": 82,
      "hit": false,
      "t": 100566.63105468742,
      "d": 830.2152539062372,
      "v": 67
    },
    {
      "midi": 72,
      "hit": false,
      "t": 100567.45631835928,
      "d": 842.5942089843593,
      "v": 61
    },
    {
      "midi": 62,
      "hit": false,
      "t": 100570.75737304676,
      "d": 400.2528808593779,
      "v": 60
    },
    {
      "midi": 53,
      "hit": false,
      "t": 100980.91341796864,
      "d": 415.93289062500116,
      "v": 62
    },
    {
      "midi": 43,
      "hit": false,
      "t": 101396.02104492177,
      "d": 424.1855273437541,
      "v": 59
    },
    {
      "midi": 70,
      "hit": false,
      "t": 101402.62315429677,
      "d": 2545.938427734349,
      "v": 68
    },
    {
      "midi": 74,
      "hit": false,
      "t": 101405.92420898427,
      "d": 18.15580078124185,
      "v": 69
    },
    {
      "midi": 82,
      "hit": false,
      "t": 101407.57473632802,
      "d": 2545.9384277343343,
      "v": 73
    },
    {
      "midi": 50,
      "hit": false,
      "t": 101821.85709960927,
      "d": 425.83605468750466,
      "v": 64
    },
    {
      "midi": 55,
      "hit": false,
      "t": 102258.42158203115,
      "d": 431.6129003906244,
      "v": 61
    },
    {
      "midi": 57,
      "hit": false,
      "t": 102662.8007812499,
      "d": 437.38974609375873,
      "v": 59
    },
    {
      "midi": 58,
      "hit": false,
      "t": 103110.91895507803,
      "d": 421.7097363281209,
      "v": 51
    },
    {
      "midi": 60,
      "hit": false,
      "t": 103516.94868164053,
      "d": 431.6129003906244,
      "v": 54
    },
    {
      "midi": 69,
      "hit": false,
      "t": 103927.10472656238,
      "d": 857.4489550781,
      "v": 51
    },
    {
      "midi": 50,
      "hit": false,
      "t": 103936.18262695303,
      "d": 2558.3173828125,
      "v": 49
    },
    {
      "midi": 57,
      "hit": false,
      "t": 103946.08579101553,
      "d": 2520.355253906251,
      "v": 50
    },
    {
      "midi": 62,
      "hit": false,
      "t": 103946.9110546874,
      "d": 2526.9573632812535,
      "v": 51
    },
    {
      "midi": 81,
      "hit": false,
      "t": 103948.56158203112,
      "d": 847.545791015611,
      "v": 50
    },
    {
      "midi": 74,
      "hit": false,
      "t": 103954.33842773423,
      "d": 846.7205273437576,
      "v": 47
    },
    {
      "midi": 77,
      "hit": false,
      "t": 104803.5347460936,
      "d": 825.263671875,
      "v": 49
    },
    {
      "midi": 74,
      "hit": false,
      "t": 105646.95421874986,
      "d": 830.2152539062517,
      "v": 51
    },
    {
      "midi": 44,
      "hit": false,
      "t": 106477.99473632802,
      "d": 1704.9947460937547,
      "v": 54
    },
    {
      "midi": 63,
      "hit": false,
      "t": 106490.37369140612,
      "d": 1662.906298828122,
      "v": 54
    },
    {
      "midi": 56,
      "hit": false,
      "t": 106494.50000976553,
      "d": 1674.4599902343762,
      "v": 54
    },
    {
      "midi": 72,
      "hit": false,
      "t": 108155.75578124986,
      "d": 1.650527343750582,
      "v": 46
    },
    {
      "midi": 63,
      "hit": false,
      "t": 108161.53262695303,
      "d": 865.7015917968674,
      "v": 44
    },
    {
      "midi": 60,
      "hit": false,
      "t": 108170.61052734366,
      "d": 837.6426269531221,
      "v": 44
    },
    {
      "midi": 79,
      "hit": false,
      "t": 108171.43579101548,
      "d": 850.0215820312442,
      "v": 46
    },
    {
      "midi": 56,
      "hit": false,
      "t": 108181.33895507803,
      "d": 826.9141992187506,
      "v": 48
    },
    {
      "midi": 67,
      "hit": false,
      "t": 109018.9815820311,
      "d": 1247.7986718750035,
      "v": 51
    },
    {
      "midi": 62,
      "hit": false,
      "t": 109022.28263671865,
      "d": 1688.4894726562488,
      "v": 50
    },
    {
      "midi": 55,
      "hit": false,
      "t": 109023.9331640624,
      "d": 1686.0136816406302,
      "v": 54
    },
    {
      "midi": 70,
      "hit": false,
      "t": 109029.71000976548,
      "d": 1242.0218261718837,
      "v": 50
    },
    {
      "midi": 67,
      "hit": false,
      "t": 110277.50868164048,
      "d": 429.1371093750058,
      "v": 61
    },
    {
      "midi": 43,
      "hit": false,
      "t": 110698.39315429678,
      "d": 850.0215820312442,
      "v": 59
    },
    {
      "midi": 53,
      "hit": false,
      "t": 110714.89842773427,
      "d": 835.1668359375035,
      "v": 64
    },
    {
      "midi": 70,
      "hit": false,
      "t": 110719.02474609361,
      "d": 826.088935546868,
      "v": 62
    },
    {
      "midi": 60,
      "hit": false,
      "t": 111536.03578124986,
      "d": 1687.6642089843517,
      "v": 68
    },
    {
      "midi": 72,
      "hit": false,
      "t": 111546.76420898423,
      "d": 1690.9652636718529,
      "v": 66
    },
    {
      "midi": 36,
      "hit": false,
      "t": 111550.89052734364,
      "d": 425.0107910156221,
      "v": 59
    },
    {
      "midi": 67,
      "hit": false,
      "t": 111557.4926367186,
      "d": 1665.3820898437407,
      "v": 63
    },
    {
      "midi": 48,
      "hit": false,
      "t": 111980.02763671863,
      "d": 402.7286718749965,
      "v": 66
    },
    {
      "midi": 52,
      "hit": false,
      "t": 112403.3879003905,
      "d": 410.9813085937494,
      "v": 70
    },
    {
      "midi": 55,
      "hit": false,
      "t": 112816.84499999987,
      "d": 407.68025390624825,
      "v": 67
    },
    {
      "midi": 60,
      "hit": false,
      "t": 113255.0600097655,
      "d": 410.1560449218814,
      "v": 66
    },
    {
      "midi": 64,
      "hit": false,
      "t": 113656.96341796863,
      "d": 439.0402734375093,
      "v": 72
    },
    {
      "midi": 67,
      "hit": false,
      "t": 114075.37209960926,
      "d": 2529.4331542968866,
      "v": 76
    },
    {
      "midi": 53,
      "hit": false,
      "t": 116603.1547265624,
      "d": 428.3118457031378,
      "v": 62
    },
    {
      "midi": 68,
      "hit": false,
      "t": 116605.63051757796,
      "d": 1267.604999999996,
      "v": 59
    },
    {
      "midi": 77,
      "hit": false,
      "t": 116633.6894824217,
      "d": 1265.9544726562453,
      "v": 64
    },
    {
      "midi": 60,
      "hit": false,
      "t": 117044.67079101554,
      "d": 415.1076269531186,
      "v": 68
    },
    {
      "midi": 65,
      "hit": false,
      "t": 117474.63316406241,
      "d": 401.0781445312459,
      "v": 68
    },
    {
      "midi": 72,
      "hit": false,
      "t": 117878.1870996092,
      "d": 428.31184570312325,
      "v": 50
    },
    {
      "midi": 67,
      "hit": false,
      "t": 117893.86710937491,
      "d": 409.33078124999884,
      "v": 48
    },
    {
      "midi": 68,
      "hit": false,
      "t": 118295.77051757804,
      "d": 424.1855273437395,
      "v": 55
    },
    {
      "midi": 77,
      "hit": false,
      "t": 118313.9263183592,
      "d": 416.7581542968692,
      "v": 61
    },
    {
      "midi": 79,
      "hit": false,
      "t": 118734.81079101544,
      "d": 431.6129003906244,
      "v": 59
    },
    {
      "midi": 70,
      "hit": false,
      "t": 118748.01500976553,
      "d": 393.6507714843756,
      "v": 60
    },
    {
      "midi": 72,
      "hit": false,
      "t": 119150.74368164044,
      "d": 431.61290039060987,
      "v": 68
    },
    {
      "midi": 80,
      "hit": false,
      "t": 119158.17105468731,
      "d": 843.4194726562419,
      "v": 72
    },
    {
      "midi": 61,
      "hit": false,
      "t": 119170.55000976543,
      "d": 419.2339453124878,
      "v": 59
    },
    {
      "midi": 68,
      "hit": false,
      "t": 119601.33764648417,
      "d": 826.0889355468826,
      "v": 47
    },
    {
      "midi": 79,
      "hit": false,
      "t": 119989.21157226543,
      "d": 857.4489550781291,
      "v": 63
    },
    {
      "midi": 67,
      "hit": false,
      "t": 120427.42658203105,
      "d": 420.05920898437034,
      "v": 60
    },
    {
      "midi": 77,
      "hit": false,
      "t": 120835.93209960918,
      "d": 857.4489550781145,
      "v": 64
    },
    {
      "midi": 65,
      "hit": false,
      "t": 120859.03948242168,
      "d": 387.04866210937325,
      "v": 65
    },
    {
      "midi": 61,
      "hit": false,
      "t": 121263.41868164043,
      "d": 402.7286718749965,
      "v": 66
    },
    {
      "midi": 51,
      "hit": false,
      "t": 121673.5747265624,
      "d": 439.8655371093773,
      "v": 67
    },
    {
      "midi": 75,
      "hit": false,
      "t": 121676.05051757793,
      "d": 1285.7608007812523,
      "v": 61
    },
    {
      "midi": 67,
      "hit": false,
      "t": 121701.63369140605,
      "d": 1244.4976171875023,
      "v": 65
    },
    {
      "midi": 58,
      "hit": false,
      "t": 122115.91605468739,
      "d": 407.68025390624825,
      "v": 59
    },
    {
      "midi": 63,
      "hit": false,
      "t": 122533.49947265614,
      "d": 409.33078124999884,
      "v": 66
    },
    {
      "midi": 77,
      "hit": false,
      "t": 122956.03447265606,
      "d": 412.63183593748545,
      "v": 67
    },
    {
      "midi": 68,
      "hit": false,
      "t": 122958.51026367168,
      "d": 418.40868164061976,
      "v": 65
    },
    {
      "midi": 65,
      "hit": false,
      "t": 122966.76290039052,
      "d": 413.457099609368,
      "v": 64
    },
    {
      "midi": 75,
      "hit": false,
      "t": 123367.84104492168,
      "d": 866.5268554687209,
      "v": 59
    },
    {
      "midi": 70,
      "hit": false,
      "t": 123387.64737304667,
      "d": 848.371054687479,
      "v": 65
    },
    {
      "midi": 73,
      "hit": false,
      "t": 123391.77369140604,
      "d": 826.914199218736,
      "v": 68
    },
    {
      "midi": 67,
      "hit": false,
      "t": 123392.598955078,
      "d": 425.0107910156221,
      "v": 60
    },
    {
      "midi": 61,
      "hit": false,
      "t": 123803.58026367176,
      "d": 420.05920898437034,
      "v": 66
    },
    {
      "midi": 68,
      "hit": false,
      "t": 124228.59105468728,
      "d": 2517.0541992187354,
      "v": 61
    },
    {
      "midi": 72,
      "hit": false,
      "t": 124230.24158203103,
      "d": 2517.0541992187354,
      "v": 67
    },
    {
      "midi": 44,
      "hit": false,
      "t": 124236.84369140613,
      "d": 420.0592089843849,
      "v": 62
    },
    {
      "midi": 51,
      "hit": false,
      "t": 124663.50500976552,
      "d": 410.1560449218814,
      "v": 60
    },
    {
      "midi": 56,
      "hit": false,
      "t": 125062.10736328115,
      "d": 441.5160644531279,
      "v": 62
    },
    {
      "midi": 58,
      "hit": false,
      "t": 125488.76868164052,
      "d": 432.438164062507,
      "v": 64
    },
    {
      "midi": 60,
      "hit": false,
      "t": 125898.9247265624,
      "d": 431.6129003906244,
      "v": 68
    },
    {
      "midi": 63,
      "hit": false,
      "t": 126340.44079101553,
      "d": 422.53499999998894,
      "v": 66
    },
    {
      "midi": 68,
      "hit": false,
      "t": 126751.42209960913,
      "d": 1289.887119140607,
      "v": 67
    },
    {
      "midi": 53,
      "hit": false,
      "t": 126759.67473632803,
      "d": 430.7876367187273,
      "v": 59
    },
    {
      "midi": 77,
      "hit": false,
      "t": 126765.451582031,
      "d": 1261.8281542968616,
      "v": 64
    },
    {
      "midi": 60,
      "hit": false,
      "t": 127181.38447265614,
      "d": 431.6129003906244,
      "v": 59
    },
    {
      "midi": 65,
      "hit": false,
      "t": 127608.04579101551,
      "d": 427.4865820312407,
      "v": 68
    },
    {
      "midi": 72,
      "hit": false,
      "t": 128027.27973632787,
      "d": 423.3602636718715,
      "v": 47
    },
    {
      "midi": 67,
      "hit": false,
      "t": 128029.75552734363,
      "d": 409.33078124999884,
      "v": 50
    },
    {
      "midi": 68,
      "hit": false,
      "t": 128448.16420898425,
      "d": 425.0107910156221,
      "v": 54
    },
    {
      "midi": 77,
      "hit": false,
      "t": 128456.41684570286,
      "d": 420.0592089843849,
      "v": 57
    },
    {
      "midi": 79,
      "hit": false,
      "t": 128856.66972656224,
      "d": 425.83605468750466,
      "v": 63
    },
    {
      "midi": 70,
      "hit": false,
      "t": 128881.42763671862,
      "d": 402.72867187501106,
      "v": 60
    },
    {
      "midi": 72,
      "hit": false,
      "t": 129277.55419921849,
      "d": 421.7097363281355,
      "v": 68
    },
    {
      "midi": 61,
      "hit": false,
      "t": 129287.45736328099,
      "d": 448.94343749999825,
      "v": 62
    },
    {
      "midi": 80,
      "hit": false,
      "t": 129307.263691406,
      "d": 840.9436816406233,
      "v": 65
    },
    {
      "midi": 68,
      "hit": false,
      "t": 129708.34183593724,
      "d": 880.5563378906227,
      "v": 49
    },
    {
      "midi": 79,
      "hit": false,
      "t": 130136.65368164037,
      "d": 850.8468457031267,
      "v": 59
    },
    {
      "midi": 67,
      "hit": false,
      "t": 130565.79079101537,
      "d": 392.825507812493,
      "v": 53
    },
    {
      "midi": 65,
      "hit": false,
      "t": 130994.1026367185,
      "d": 408.50551757811627,
      "v": 58
    },
    {
      "midi": 80,
      "hit": false,
      "t": 131000.7047460935,
      "d": 819.486826171822,
      "v": 66
    },
    {
      "midi": 61,
      "hit": false,
      "t": 131381.15129882787,
      "d": 435.73921874997905,
      "v": 59
    },
    {
      "midi": 82,
      "hit": false,
      "t": 131818.54104492159,
      "d": 1276.6829003906169,
      "v": 59
    },
    {
      "midi": 70,
      "hit": false,
      "t": 131825.96841796846,
      "d": 1282.459746093722,
      "v": 64
    },
    {
      "midi": 51,
      "hit": false,
      "t": 131830.094736328,
      "d": 429.1371093749767,
      "v": 62
    },
    {
      "midi": 79,
      "hit": false,
      "t": 131831.74526367156,
      "d": 1275.8576367187488,
      "v": 63
    },
    {
      "midi": 58,
      "hit": false,
      "t": 132241.07604492173,
      "d": 422.5350000000035,
      "v": 65
    },
    {
      "midi": 63,
      "hit": false,
      "t": 132681.76684570298,
      "d": 414.28236328123603,
      "v": 66
    },
    {
      "midi": 68,
      "hit": false,
      "t": 133086.14604492157,
      "d": 420.05920898437034,
      "v": 60
    },
    {
      "midi": 80,
      "hit": false,
      "t": 133091.9228906247,
      "d": 439.0402734374802,
      "v": 60
    },
    {
      "midi": 77,
      "hit": false,
      "t": 133100.17552734344,
      "d": 421.7097363281064,
      "v": 62
    },
    {
      "midi": 65,
      "hit": false,
      "t": 133113.3797460936,
      "d": 396.1265624999942,
      "v": 60
    },
    {
      "midi": 82,
      "hit": false,
      "t": 133511.98209960907,
      "d": 845.070000000007,
      "v": 65
    },
    {
      "midi": 70,
      "hit": false,
      "t": 133513.6326269528,
      "d": 864.8763281249849,
      "v": 63
    },
    {
      "midi": 79,
      "hit": false,
      "t": 133528.48737304655,
      "d": 832.6910449218994,
      "v": 62
    },
    {
      "midi": 67,
      "hit": false,
      "t": 133530.96316406233,
      "d": 401.9034082031285,
      "v": 66
    },
    {
      "midi": 61,
      "hit": false,
      "t": 133953.49816406233,
      "d": 401.0781445312605,
      "v": 61
    },
    {
      "midi": 80,
      "hit": false,
      "t": 134366.12999999968,
      "d": 2521.18051757809,
      "v": 68
    },
    {
      "midi": 72,
      "hit": false,
      "t": 134366.95526367155,
      "d": 2519.529990234354,
      "v": 62
    },
    {
      "midi": 44,
      "hit": false,
      "t": 134373.55737304673,
      "d": 407.6802539062628,
      "v": 60
    },
    {
      "midi": 84,
      "hit": false,
      "t": 134378.5089550778,
      "d": 2510.4520898437186,
      "v": 62
    },
    {
      "midi": 51,
      "hit": false,
      "t": 134794.441845703,
      "d": 423.3602636718715,
      "v": 63
    },
    {
      "midi": 56,
      "hit": false,
      "t": 135197.99578124986,
      "d": 446.46764648437966,
      "v": 65
    },
    {
      "midi": 58,
      "hit": false,
      "t": 135633.73499999987,
      "d": 420.05920898437034,
      "v": 65
    },
    {
      "midi": 60,
      "hit": false,
      "t": 136070.29948242175,
      "d": 409.33078124999884,
      "v": 61
    },
    {
      "midi": 63,
      "hit": false,
      "t": 136477.1544726561,
      "d": 434.91395507811103,
      "v": 67
    },
    {
      "midi": 77,
      "hit": false,
      "t": 136895.5631542965,
      "d": 1269.2555273437465,
      "v": 67
    },
    {
      "midi": 53,
      "hit": false,
      "t": 136899.68947265611,
      "d": 439.8655371093482,
      "v": 60
    },
    {
      "midi": 68,
      "hit": false,
      "t": 136915.36948242152,
      "d": 1237.8955078125,
      "v": 61
    },
    {
      "midi": 60,
      "hit": false,
      "t": 137331.30237304672,
      "d": 404.37919921873254,
      "v": 68
    },
    {
      "midi": 65,
      "hit": false,
      "t": 137757.1384277342,
      "d": 411.806572265632,
      "v": 64
    },
    {
      "midi": 67,
      "hit": false,
      "t": 138153.2649902342,
      "d": 439.8655371093773,
      "v": 47
    },
    {
      "midi": 72,
      "hit": false,
      "t": 138182.9744824215,
      "d": 409.33078124999884,
      "v": 50
    },
    {
      "midi": 68,
      "hit": false,
      "t": 138592.3052636717,
      "d": 432.438164062507,
      "v": 56
    },
    {
      "midi": 77,
      "hit": false,
      "t": 138597.25684570274,
      "d": 408.5055175781308,
      "v": 55
    },
    {
      "midi": 79,
      "hit": false,
      "t": 139014.8402636715,
      "d": 417.5834179687372,
      "v": 60
    },
    {
      "midi": 70,
      "hit": false,
      "t": 139018.96658203108,
      "d": 428.3118457031378,
      "v": 66
    },
    {
      "midi": 72,
      "hit": false,
      "t": 139418.39419921837,
      "d": 465.4487109374895,
      "v": 67
    },
    {
      "midi": 61,
      "hit": false,
      "t": 139439.02579101524,
      "d": 410.98130859373487,
      "v": 59
    },
    {
      "midi": 80,
      "hit": false,
      "t": 139439.02579101524,
      "d": 848.371054687479,
      "v": 68
    },
    {
      "midi": 68,
      "hit": false,
      "t": 139864.86184570272,
      "d": 840.1184179687407,
      "v": 52
    },
    {
      "midi": 79,
      "hit": false,
      "t": 140279.14420898398,
      "d": 831.0405175781052,
      "v": 59
    },
    {
      "midi": 67,
      "hit": false,
      "t": 140712.40763671833,
      "d": 409.33078124999884,
      "v": 62
    },
    {
      "midi": 65,
      "hit": false,
      "t": 141124.21420898396,
      "d": 415.10762695313315,
      "v": 64
    },
    {
      "midi": 77,
      "hit": false,
      "t": 141129.9910546871,
      "d": 844.2447363281681,
      "v": 62
    },
    {
      "midi": 61,
      "hit": false,
      "t": 141548.39973632773,
      "d": 396.1265625000233,
      "v": 72
    },
    {
      "midi": 51,
      "hit": false,
      "t": 141958.55578124986,
      "d": 429.1371093750058,
      "v": 64
    },
    {
      "midi": 67,
      "hit": false,
      "t": 141985.7894824215,
      "d": 1245.3228808593412,
      "v": 66
    },
    {
      "midi": 75,
      "hit": false,
      "t": 141987.44000976524,
      "d": 1244.4976171874732,
      "v": 64
    },
    {
      "midi": 58,
      "hit": false,
      "t": 142386.867626953,
      "d": 417.5834179687372,
      "v": 64
    },
    {
      "midi": 63,
      "hit": false,
      "t": 142827.55842773424,
      "d": 415.10762695310405,
      "v": 61
    },
    {
      "midi": 77,
      "hit": false,
      "t": 143230.28709960898,
      "d": 444.8171191406145,
      "v": 60
    },
    {
      "midi": 65,
      "hit": false,
      "t": 143231.1123632811,
      "d": 414.28236328123603,
      "v": 60
    },
    {
      "midi": 68,
      "hit": false,
      "t": 143234.41341796835,
      "d": 417.5834179687372,
      "v": 62
    },
    {
      "midi": 73,
      "hit": false,
      "t": 143650.34630859335,
      "d": 865.7015917968238,
      "v": 62
    },
    {
      "midi": 75,
      "hit": false,
      "t": 143651.99683593708,
      "d": 838.4678906250047,
      "v": 59
    },
    {
      "midi": 67,
      "hit": false,
      "t": 143671.80316406235,
      "d": 402.7286718749965,
      "v": 62
    },
    {
      "midi": 70,
      "hit": false,
      "t": 143675.1042187496,
      "d": 817.8362988281006,
      "v": 59
    },
    {
      "midi": 61,
      "hit": false,
      "t": 144086.0855273436,
      "d": 407.6802539062628,
      "v": 67
    },
    {
      "midi": 72,
      "hit": false,
      "t": 144491.28999023396,
      "d": 1695.091582031193,
      "v": 66
    },
    {
      "midi": 44,
      "hit": false,
      "t": 144515.2226367186,
      "d": 415.10762695310405,
      "v": 67
    },
    {
      "midi": 51,
      "hit": false,
      "t": 144927.0292089842,
      "d": 430.78763671874185,
      "v": 63
    },
    {
      "midi": 56,
      "hit": false,
      "t": 145349.5642089842,
      "d": 427.4865820312407,
      "v": 59
    },
    {
      "midi": 58,
      "hit": false,
      "t": 145778.70131835918,
      "d": 418.4086816406343,
      "v": 62
    },
    {
      "midi": 68,
      "hit": false,
      "t": 146185.55630859328,
      "d": 4.951582031237194,
      "v": 65
    },
    {
      "midi": 60,
      "hit": false,
      "t": 146202.88684570295,
      "d": 406.0297265624977,
      "v": 61
    },
    {
      "midi": 70,
      "hit": false,
      "t": 146608.91657226515,
      "d": 437.3897460937733,
      "v": 63
    },
    {
      "midi": 55,
      "hit": false,
      "t": 146608.91657226544,
      "d": 431.61290039060987,
      "v": 61
    },
    {
      "midi": 72,
      "hit": false,
      "t": 147026.49999023392,
      "d": 854.1479003906134,
      "v": 59
    },
    {
      "midi": 63,
      "hit": false,
      "t": 147032.27683593705,
      "d": 859.9247460937186,
      "v": 67
    },
    {
      "midi": 65,
      "hit": false,
      "t": 147047.95684570266,
      "d": 825.263671875,
      "v": 62
    },
    {
      "midi": 49,
      "hit": false,
      "t": 147049.6073730467,
      "d": 416.7581542968692,
      "v": 67
    },
    {
      "midi": 56,
      "hit": false,
      "t": 147477.9192187498,
      "d": 420.88447265626746,
      "v": 44
    },
    {
      "midi": 65,
      "hit": false,
      "t": 147874.8710449214,
      "d": 842.5942089843447,
      "v": 64
    },
    {
      "midi": 61,
      "hit": false,
      "t": 147886.42473632793,
      "d": 430.78763671877095,
      "v": 64
    },
    {
      "midi": 56,
      "hit": false,
      "t": 148301.53236328106,
      "d": 439.8655371093773,
      "v": 40
    },
    {
      "midi": 72,
      "hit": false,
      "t": 148716.63999023387,
      "d": 21.456855468743015,
      "v": 61
    },
    {
      "midi": 60,
      "hit": false,
      "t": 148733.97052734357,
      "d": 420.88447265623836,
      "v": 67
    },
    {
      "midi": 65,
      "hit": false,
      "t": 148737.27158203075,
      "d": 826.088935546868,
      "v": 68
    },
    {
      "midi": 56,
      "hit": false,
      "t": 149161.4571093748,
      "d": 423.3602636718715,
      "v": 45
    },
    {
      "midi": 67,
      "hit": false,
      "t": 149567.486835937,
      "d": 2544.287900390598,
      "v": 67
    },
    {
      "midi": 61,
      "hit": false,
      "t": 149573.26368164044,
      "d": 2524.4815722656203,
      "v": 64
    },
    {
      "midi": 72,
      "hit": false,
      "t": 149584.81737304636,
      "d": 843.4194726562419,
      "v": 68
    },
    {
      "midi": 51,
      "hit": false,
      "t": 149590.59421874981,
      "d": 2531.0836816406227,
      "v": 59
    },
    {
      "midi": 70,
      "hit": false,
      "t": 150417.50841796823,
      "d": 834.3415722656355,
      "v": 65
    },
    {
      "midi": 75,
      "hit": false,
      "t": 151255.97630859324,
      "d": 850.0215820312442,
      "v": 65
    },
    {
      "midi": 46,
      "hit": false,
      "t": 152096.09472656233,
      "d": 447.2929101562477,
      "v": 64
    },
    {
      "midi": 65,
      "hit": false,
      "t": 152109.29894531198,
      "d": 1281.634482421825,
      "v": 65
    },
    {
      "midi": 61,
      "hit": false,
      "t": 152110.12420898385,
      "d": 1273.3818457030866,
      "v": 64
    },
    {
      "midi": 68,
      "hit": false,
      "t": 152115.90105468695,
      "d": 1249.4491992187395,
      "v": 60
    },
    {
      "midi": 53,
      "hit": false,
      "t": 152523.58130859357,
      "d": 439.0402734375093,
      "v": 64
    },
    {
      "midi": 58,
      "hit": false,
      "t": 152951.8931542967,
      "d": 859.9247460937477,
      "v": 66
    },
    {
      "midi": 68,
      "hit": false,
      "t": 153391.75869140567,
      "d": 404.37919921876164,
      "v": 63
    },
    {
      "midi": 67,
      "hit": false,
      "t": 153787.0599902338,
      "d": 434.088691406243,
      "v": 69
    },
    {
      "midi": 60,
      "hit": false,
      "t": 153790.3610449217,
      "d": 850.8468457031413,
      "v": 58
    },
    {
      "midi": 55,
      "hit": false,
      "t": 153814.29369140608,
      "d": 820.3120898437628,
      "v": 63
    },
    {
      "midi": 48,
      "hit": false,
      "t": 153818.42000976545,
      "d": 821.9626171875279,
      "v": 62
    },
    {
      "midi": 63,
      "hit": false,
      "t": 154209.5949902338,
      "d": 449.7687011718517,
      "v": 73
    },
    {
      "midi": 65,
      "hit": false,
      "t": 154644.5089453119,
      "d": 2541.812109374994,
      "v": 76
    },
    {
      "midi": 49,
      "hit": false,
      "t": 154657.71316406236,
      "d": 422.5350000000035,
      "v": 62
    },
    {
      "midi": 56,
      "hit": false,
      "t": 155082.723955078,
      "d": 401.9034082031285,
      "v": 56
    },
    {
      "midi": 61,
      "hit": false,
      "t": 155483.80209960925,
      "d": 443.1665917968494,
      "v": 61
    },
    {
      "midi": 65,
      "hit": false,
      "t": 155926.14342773423,
      "d": 396.1265624999942,
      "v": 56
    },
    {
      "midi": 68,
      "hit": false,
      "t": 156327.22157226547,
      "d": 430.78763671874185,
      "v": 60
    },
    {
      "midi": 73,
      "hit": false,
      "t": 156772.86395507795,
      "d": 410.98130859376397,
      "v": 63
    },
    {
      "midi": 77,
      "hit": false,
      "t": 157195.39895507754,
      "d": 412.6318359375,
      "v": 64
    },
    {
      "midi": 65,
      "hit": false,
      "t": 157614.63290039005,
      "d": 415.93289062500116,
      "v": 60
    },
    {
      "midi": 68,
      "hit": false,
      "t": 158029.74052734318,
      "d": 425.83605468747555,
      "v": 65
    },
    {
      "midi": 73,
      "hit": false,
      "t": 158434.1197265619,
      "d": 433.263427734375,
      "v": 70
    },
    {
      "midi": 77,
      "hit": false,
      "t": 158881.41263671816,
      "d": 425.83605468750466,
      "v": 68
    },
    {
      "midi": 80,
      "hit": false,
      "t": 159303.1223730463,
      "d": 427.4865820312116,
      "v": 73
    },
    {
      "midi": 58,
      "hit": false,
      "t": 159718.22999999984,
      "d": 438.2150097656122,
      "v": 43
    },
    {
      "midi": 82,
      "hit": false,
      "t": 159719.05526367127,
      "d": 1698.3926367187523,
      "v": 80
    },
    {
      "midi": 65,
      "hit": false,
      "t": 160152.31869140608,
      "d": 398.6023535156273,
      "v": 46
    },
    {
      "midi": 70,
      "hit": false,
      "t": 160555.87262695294,
      "d": 444.8171191406145,
      "v": 42
    },
    {
      "midi": 72,
      "hit": false,
      "t": 160992.43710937482,
      "d": 420.05920898437034,
      "v": 44
    },
    {
      "midi": 89,
      "hit": false,
      "t": 161397.641572265,
      "d": 854.9731640625105,
      "v": 76
    },
    {
      "midi": 73,
      "hit": false,
      "t": 161415.7973730467,
      "d": 401.9034082031285,
      "v": 41
    },
    {
      "midi": 77,
      "hit": false,
      "t": 161826.77868164046,
      "d": 439.8655371093482,
      "v": 41
    },
    {
      "midi": 54,
      "hit": false,
      "t": 162237.7599902342,
      "d": 435.73921874997905,
      "v": 44
    },
    {
      "midi": 82,
      "hit": false,
      "t": 162256.7410546869,
      "d": 833.5163085937675,
      "v": 72
    },
    {
      "midi": 89,
      "hit": false,
      "t": 162262.51790039003,
      "d": 842.5942089844029,
      "v": 76
    },
    {
      "midi": 80,
      "hit": false,
      "t": 162264.16842773376,
      "d": 838.4678906250338,
      "v": 73
    },
    {
      "midi": 61,
      "hit": false,
      "t": 162666.89709960917,
      "d": 420.05920898437034,
      "v": 46
    },
    {
      "midi": 87,
      "hit": false,
      "t": 163084.48051757753,
      "d": 870.6531738281483,
      "v": 79
    },
    {
      "midi": 66,
      "hit": false,
      "t": 163098.50999999978,
      "d": 430.78763671874185,
      "v": 47
    },
    {
      "midi": 68,
      "hit": false,
      "t": 163511.14183593728,
      "d": 440.69080078124534,
      "v": 45
    },
    {
      "midi": 85,
      "hit": false,
      "t": 163932.85157226506,
      "d": 871.4784374999581,
      "v": 68
    },
    {
      "midi": 78,
      "hit": false,
      "t": 163936.97789062443,
      "d": 850.0215820312442,
      "v": 72
    },
    {
      "midi": 70,
      "hit": false,
      "t": 163945.23052734352,
      "d": 432.438164062507,
      "v": 42
    },
    {
      "midi": 73,
      "hit": false,
      "t": 164366.94026367165,
      "d": 433.263427734375,
      "v": 45
    },
    {
      "midi": 56,
      "hit": false,
      "t": 164779.57209960915,
      "d": 426.6613183593727,
      "v": 45
    },
    {
      "midi": 84,
      "hit": false,
      "t": 164780.39736328067,
      "d": 1709.1210644531238,
      "v": 67
    },
    {
      "midi": 80,
      "hit": false,
      "t": 164792.77631835878,
      "d": 1674.4599902343762,
      "v": 72
    },
    {
      "midi": 63,
      "hit": false,
      "t": 165195.50499023416,
      "d": 434.088691406243,
      "v": 47
    },
    {
      "midi": 68,
      "hit": false,
      "t": 165627.11789062477,
      "d": 419.2339453125023,
      "v": 48
    },
    {
      "midi": 70,
      "hit": false,
      "t": 166043.87604492164,
      "d": 447.2929101562477,
      "v": 42
    },
    {
      "midi": 72,
      "hit": false,
      "t": 166468.88683593727,
      "d": 434.0886914062139,
      "v": 41
    },
    {
      "midi": 75,
      "hit": false,
      "t": 166898.02394531225,
      "d": 437.3897460937442,
      "v": 40
    },
    {
      "midi": 80,
      "hit": false,
      "t": 167174.48727539007,
      "d": 2699.4374707030656,
      "v": 77
    },
    {
      "midi": 84,
      "hit": false,
      "t": 167237.20731445256,
      "d": 2610.3089941405924,
      "v": 80
    },
    {
      "midi": 92,
      "hit": false,
      "t": 167307.35472656193,
      "d": 7.427373046870343,
      "v": 82
    },
    {
      "midi": 53,
      "hit": false,
      "t": 167315.607363281,
      "d": 436.56448242190527,
      "v": 43
    },
    {
      "midi": 60,
      "hit": false,
      "t": 167761.24974609353,
      "d": 416.7581542968692,
      "v": 41
    },
    {
      "midi": 65,
      "hit": false,
      "t": 168178.83316406226,
      "d": 400.25288085936336,
      "v": 43
    },
    {
      "midi": 67,
      "hit": false,
      "t": 168574.95972656226,
      "d": 446.46764648437966,
      "v": 41
    },
    {
      "midi": 68,
      "hit": false,
      "t": 169027.20421874977,
      "d": 417.5834179687372,
      "v": 39
    },
    {
      "midi": 72,
      "hit": false,
      "t": 169440.66131835914,
      "d": 424.1855273437395,
      "v": 40
    },
    {
      "midi": 79,
      "hit": false,
      "t": 169855.7689453119,
      "d": 1679.4115722656134,
      "v": 74
    },
    {
      "midi": 60,
      "hit": false,
      "t": 169859.06999999975,
      "d": 414.28236328126513,
      "v": 47
    },
    {
      "midi": 84,
      "hit": false,
      "t": 169864.8468457025,
      "d": 1689.3147363281169,
      "v": 73
    },
    {
      "midi": 67,
      "hit": false,
      "t": 170285.73131835915,
      "d": 410.15604492186685,
      "v": 41
    },
    {
      "midi": 72,
      "hit": false,
      "t": 170702.48947265602,
      "d": 419.2339453125023,
      "v": 45
    },
    {
      "midi": 74,
      "hit": false,
      "t": 171125.8497363279,
      "d": 420.05920898439945,
      "v": 38
    },
    {
      "midi": 75,
      "hit": false,
      "t": 171533.52999023415,
      "d": 440.69080078124534,
      "v": 38
    },
    {
      "midi": 91,
      "hit": false,
      "t": 171550.03526367125,
      "d": 829.3899902343692,
      "v": 78
    },
    {
      "midi": 77,
      "hit": false,
      "t": 171969.26920898416,
      "d": 420.88447265623836,
      "v": 34
    },
    {
      "midi": 82,
      "hit": false,
      "t": 172245.73253906186,
      "d": 2695.3111523437547,
      "v": 75
    },
    {
      "midi": 86,
      "hit": false,
      "t": 172310.10310546812,
      "d": 2625.9890039062593,
      "v": 79
    },
    {
      "midi": 67,
      "hit": false,
      "t": 172377.77472656226,
      "d": 2563.2689648437663,
      "v": 35
    },
    {
      "midi": 91,
      "hit": false,
      "t": 172405.83369140563,
      "d": 2516.228935546882,
      "v": 85
    },
    {
      "midi": 77,
      "hit": false,
      "t": 174933.61631835875,
      "d": 1696.7421093749872,
      "v": 68
    },
    {
      "midi": 58,
      "hit": false,
      "t": 174935.2668457029,
      "d": 420.05920898437034,
      "v": 56
    },
    {
      "midi": 82,
      "hit": false,
      "t": 174941.04369140562,
      "d": 1691.79052734375,
      "v": 70
    },
    {
      "midi": 65,
      "hit": false,
      "t": 175353.67552734353,
      "d": 416.7581542968692,
      "v": 52
    },
    {
      "midi": 70,
      "hit": false,
      "t": 175788.58948242164,
      "d": 423.3602636719006,
      "v": 54
    },
    {
      "midi": 72,
      "hit": false,
      "t": 176199.5707910154,
      "d": 416.7581542968983,
      "v": 50
    },
    {
      "midi": 89,
      "hit": false,
      "t": 176617.15420898373,
      "d": 842.5942089844029,
      "v": 82
    },
    {
      "midi": 73,
      "hit": false,
      "t": 176618.80473632793,
      "d": 434.91395507814013,
      "v": 50
    },
    {
      "midi": 70,
      "hit": false,
      "t": 177051.24290039044,
      "d": 415.93289062503027,
      "v": 44
    },
    {
      "midi": 79,
      "hit": false,
      "t": 177321.92938476498,
      "d": 971.3353417969192,
      "v": 71
    },
    {
      "midi": 84,
      "hit": false,
      "t": 177402.80522460875,
      "d": 892.9352929687593,
      "v": 75
    },
    {
      "midi": 60,
      "hit": false,
      "t": 177457.27262695297,
      "d": 1676.1105175781413,
      "v": 44
    },
    {
      "midi": 89,
      "hit": false,
      "t": 177470.4768457025,
      "d": 827.7394628906331,
      "v": 77
    },
    {
      "midi": 88,
      "hit": false,
      "t": 178294.08999023377,
      "d": 1689.3147363281169,
      "v": 80
    },
    {
      "midi": 60,
      "hit": false,
      "t": 179148.23789062485,
      "d": 440.69080078124534,
      "v": 60
    },
    {
      "midi": 58,
      "hit": false,
      "t": 179566.64657226548,
      "d": 445.64238281248254,
      "v": 55
    },
    {
      "midi": 48,
      "hit": false,
      "t": 179984.22999023422,
      "d": 423.3602636718715,
      "v": 61
    },
    {
      "midi": 55,
      "hit": false,
      "t": 180414.1923632811,
      "d": 417.5834179687372,
      "v": 65
    },
    {
      "midi": 60,
      "hit": false,
      "t": 180844.15473632797,
      "d": 407.6802539062628,
      "v": 66
    },
    {
      "midi": 62,
      "hit": false,
      "t": 181261.73815429673,
      "d": 428.3118457031378,
      "v": 64
    },
    {
      "midi": 72,
      "hit": false,
      "t": 181677.67104492127,
      "d": 3.301054687501164,
      "v": 66
    },
    {
      "midi": 63,
      "hit": false,
      "t": 181686.74894531237,
      "d": 429.1371093750058,
      "v": 63
    },
    {
      "midi": 79,
      "hit": false,
      "t": 181688.39947265564,
      "d": 840.1184179687407,
      "v": 59
    },
    {
      "midi": 67,
      "hit": false,
      "t": 181695.00158203064,
      "d": 8.252636718738358,
      "v": 61
    },
    {
      "midi": 55,
      "hit": false,
      "t": 182111.759736328,
      "d": 421.7097363281355,
      "v": 68
    },
    {
      "midi": 70,
      "hit": false,
      "t": 182529.34315429625,
      "d": 854.1479003906134,
      "v": 72
    },
    {
      "midi": 79,
      "hit": false,
      "t": 182541.72210937436,
      "d": 847.5457910156401,
      "v": 65
    },
    {
      "midi": 72,
      "hit": false,
      "t": 182550.800009765,
      "d": 817.8362988281297,
      "v": 59
    },
    {
      "midi": 44,
      "hit": false,
      "t": 182554.10106445302,
      "d": 413.457099609368,
      "v": 59
    },
    {
      "midi": 51,
      "hit": false,
      "t": 182969.20869140612,
      "d": 425.01079101563664,
      "v": 59
    },
    {
      "midi": 77,
      "hit": false,
      "t": 183371.11209960876,
      "d": 853.3226367187453,
      "v": 62
    },
    {
      "midi": 72,
      "hit": false,
      "t": 183381.84052734313,
      "d": 844.2447363281099,
      "v": 59
    },
    {
      "midi": 68,
      "hit": false,
      "t": 183383.49105468686,
      "d": 847.545791015611,
      "v": 67
    },
    {
      "midi": 56,
      "hit": false,
      "t": 183394.21948242176,
      "d": 396.1265624999942,
      "v": 62
    },
    {
      "midi": 58,
      "hit": false,
      "t": 183801.07447265612,
      "d": 408.5055175781308,
      "v": 67
    },
    {
      "midi": 60,
      "hit": false,
      "t": 184223.60947265613,
      "d": 411.806572265632,
      "v": 63
    },
    {
      "midi": 75,
      "hit": false,
      "t": 184229.38631835874,
      "d": 843.4194726562127,
      "v": 66
    },
    {
      "midi": 67,
      "hit": false,
      "t": 184230.2115820306,
      "d": 839.2931542968727,
      "v": 71
    },
    {
      "midi": 72,
      "hit": false,
      "t": 184234.33790038998,
      "d": 837.6426269531075,
      "v": 61
    },
    {
      "midi": 51,
      "hit": false,
      "t": 184637.8918359374,
      "d": 420.88447265626746,
      "v": 68
    },
    {
      "midi": 65,
      "hit": false,
      "t": 185070.32999999935,
      "d": 1687.6642089843517,
      "v": 66
    },
    {
      "midi": 46,
      "hit": false,
      "t": 185075.28158203114,
      "d": 426.6613183593727,
      "v": 60
    },
    {
      "midi": 70,
      "hit": false,
      "t": 185084.3594824212,
      "d": 1667.8578808593738,
      "v": 62
    },
    {
      "midi": 53,
      "hit": false,
      "t": 185503.59342773425,
      "d": 410.98130859376397,
      "v": 63
    },
    {
      "midi": 58,
      "hit": false,
      "t": 185901.370517578,
      "d": 431.61290039063897,
      "v": 68
    },
    {
      "midi": 60,
      "hit": false,
      "t": 186334.63394531238,
      "d": 418.4086816406343,
      "v": 59
    },
    {
      "midi": 74,
      "hit": false,
      "t": 186757.9942089837,
      "d": 6.602109375002328,
      "v": 67
    },
    {
      "midi": 82,
      "hit": false,
      "t": 186763.77105468683,
      "d": 830.2152539062663,
      "v": 67
    },
    {
      "midi": 72,
      "hit": false,
      "t": 186764.5963183587,
      "d": 842.5942089843738,
      "v": 61
    },
    {
      "midi": 62,
      "hit": false,
      "t": 186767.89737304676,
      "d": 400.25288085936336,
      "v": 60
    },
    {
      "midi": 53,
      "hit": false,
      "t": 187178.05341796862,
      "d": 415.93289062497206,
      "v": 62
    },
    {
      "midi": 43,
      "hit": false,
      "t": 187593.16104492173,
      "d": 424.1855273437395,
      "v": 59
    },
    {
      "midi": 70,
      "hit": false,
      "t": 187599.76315429623,
      "d": 2545.9384277343343,
      "v": 68
    },
    {
      "midi": 74,
      "hit": false,
      "t": 187603.06420898373,
      "d": 18.155800781212747,
      "v": 69
    },
    {
      "midi": 82,
      "hit": false,
      "t": 187604.71473632747,
      "d": 2545.9384277343343,
      "v": 73
    },
    {
      "midi": 50,
      "hit": false,
      "t": 188018.9970996092,
      "d": 425.83605468750466,
      "v": 64
    },
    {
      "midi": 55,
      "hit": false,
      "t": 188455.56158203108,
      "d": 431.61290039063897,
      "v": 61
    },
    {
      "midi": 57,
      "hit": false,
      "t": 188859.94078124984,
      "d": 437.3897460937442,
      "v": 59
    },
    {
      "midi": 58,
      "hit": false,
      "t": 189308.05895507796,
      "d": 421.7097363281355,
      "v": 51
    },
    {
      "midi": 60,
      "hit": false,
      "t": 189714.08868164045,
      "d": 431.61290039063897,
      "v": 54
    },
    {
      "midi": 69,
      "hit": false,
      "t": 190124.24472656182,
      "d": 857.4489550780854,
      "v": 51
    },
    {
      "midi": 50,
      "hit": false,
      "t": 190133.32262695298,
      "d": 2558.317382812471,
      "v": 49
    },
    {
      "midi": 57,
      "hit": false,
      "t": 190143.2257910155,
      "d": 2520.355253906222,
      "v": 50
    },
    {
      "midi": 62,
      "hit": false,
      "t": 190144.05105468736,
      "d": 2526.9573632812244,
      "v": 51
    },
    {
      "midi": 81,
      "hit": false,
      "t": 190145.70158203057,
      "d": 847.5457910155819,
      "v": 50
    },
    {
      "midi": 74,
      "hit": false,
      "t": 190151.47842773367,
      "d": 846.7205273437139,
      "v": 47
    },
    {
      "midi": 77,
      "hit": false,
      "t": 191000.67474609302,
      "d": 825.263671875,
      "v": 49
    },
    {
      "midi": 74,
      "hit": false,
      "t": 191844.09421874926,
      "d": 830.2152539062372,
      "v": 51
    },
    {
      "midi": 44,
      "hit": false,
      "t": 192675.13473632795,
      "d": 1704.9947460937256,
      "v": 54
    },
    {
      "midi": 63,
      "hit": false,
      "t": 192687.5136914055,
      "d": 1662.9062988281366,
      "v": 54
    },
    {
      "midi": 56,
      "hit": false,
      "t": 192691.64000976546,
      "d": 1674.4599902343762,
      "v": 54
    },
    {
      "midi": 72,
      "hit": false,
      "t": 194352.89578124927,
      "d": 1.6505273437360302,
      "v": 46
    },
    {
      "midi": 63,
      "hit": false,
      "t": 194358.67262695296,
      "d": 865.7015917968238,
      "v": 44
    },
    {
      "midi": 60,
      "hit": false,
      "t": 194367.75052734357,
      "d": 837.6426269531075,
      "v": 44
    },
    {
      "midi": 79,
      "hit": false,
      "t": 194368.57579101488,
      "d": 850.0215820312442,
      "v": 46
    },
    {
      "midi": 56,
      "hit": false,
      "t": 194378.47895507794,
      "d": 826.914199218736,
      "v": 48
    },
    {
      "midi": 67,
      "hit": false,
      "t": 195216.1215820305,
      "d": 1247.7986718750035,
      "v": 51
    },
    {
      "midi": 62,
      "hit": false,
      "t": 195219.42263671855,
      "d": 1688.4894726562197,
      "v": 50
    },
    {
      "midi": 55,
      "hit": false,
      "t": 195221.07316406228,
      "d": 1686.0136816406157,
      "v": 54
    },
    {
      "midi": 70,
      "hit": false,
      "t": 195226.85000976486,
      "d": 1242.0218261718692,
      "v": 50
    },
    {
      "midi": 67,
      "hit": false,
      "t": 196474.64868163987,
      "d": 429.1371093750058,
      "v": 61
    },
    {
      "midi": 43,
      "hit": false,
      "t": 196895.53315429666,
      "d": 850.0215820312151,
      "v": 59
    },
    {
      "midi": 53,
      "hit": false,
      "t": 196912.03842773414,
      "d": 835.1668359374744,
      "v": 64
    },
    {
      "midi": 70,
      "hit": false,
      "t": 196916.164746093,
      "d": 826.0889355468971,
      "v": 62
    },
    {
      "midi": 60,
      "hit": false,
      "t": 197733.17578124927,
      "d": 1687.6642089843517,
      "v": 68
    },
    {
      "midi": 72,
      "hit": false,
      "t": 197743.90420898364,
      "d": 1690.9652636718529,
      "v": 66
    },
    {
      "midi": 36,
      "hit": false,
      "t": 197748.03052734348,
      "d": 425.01079101563664,
      "v": 59
    },
    {
      "midi": 67,
      "hit": false,
      "t": 197754.63263671802,
      "d": 1665.3820898437407,
      "v": 63
    },
    {
      "midi": 48,
      "hit": false,
      "t": 198177.16763671848,
      "d": 402.7286718749965,
      "v": 66
    },
    {
      "midi": 52,
      "hit": false,
      "t": 198600.52790039036,
      "d": 410.98130859376397,
      "v": 70
    },
    {
      "midi": 55,
      "hit": false,
      "t": 199013.98499999975,
      "d": 407.6802539062628,
      "v": 67
    },
    {
      "midi": 60,
      "hit": false,
      "t": 199452.2000097654,
      "d": 410.15604492186685,
      "v": 66
    },
    {
      "midi": 64,
      "hit": false,
      "t": 199854.10341796852,
      "d": 439.0402734374802,
      "v": 72
    },
    {
      "midi": 67,
      "hit": false,
      "t": 200272.51209960913,
      "d": 2529.4331542968866,
      "v": 76
    }
  ]
}