{
  "jsonPath": "Soundtracks/Video Game Music/Final Fantasy 10/final-fantasy-10-pathofrepentance.json",
  "path": "Soundtracks\\Video Game Music\\Final Fantasy 10\\Final_Fantasy_10_PathofRepentance.mid",
  "name": "Final_Fantasy_10_PathofRepentance",
  "difficulty": "Advanced",
  "bpm": 140.00014000014,
  "notes": [
    {
      "midi": 68,
      "hit": false,
      "t": 428.5710000000001,
      "d": 428.5710000000001,
      "v": 127
    },
    {
      "midi": 42,
      "hit": false,
      "t": 428.5710000000001,
      "d": 428.5710000000001,
      "v": 127
    },
    {
      "midi": 57,
      "hit": false,
      "t": 642.8565000000001,
      "d": 428.57100000000014,
      "v": 127
    },
    {
      "midi": 49,
      "hit": false,
      "t": 642.8565000000001,
      "d": 428.57100000000014,
      "v": 127
    },
    {
      "midi": 61,
      "hit": false,
      "t": 857.1420000000002,
      "d": 428.571,
      "v": 127
    },
    {
      "midi": 54,
      "hit": false,
      "t": 857.1420000000002,
      "d": 642.8565,
      "v": 127
    },
    {
      "midi": 68,
      "hit": false,
      "t": 1071.4275000000002,
      "d": 428.5709999999999,
      "v": 127
    },
    {
      "midi": 59,
      "hit": false,
      "t": 1285.7130000000002,
      "d": 428.5709999999999,
      "v": 127
    },
    {
      "midi": 56,
      "hit": false,
      "t": 1285.7130000000002,
      "d": 642.8564999999999,
      "v": 127
    },
    {
      "midi": 61,
      "hit": false,
      "t": 1499.9985000000001,
      "d": 428.5709999999999,
      "v": 127
    },
    {
      "midi": 68,
      "hit": false,
      "t": 1714.284,
      "d": 428.5709999999999,
      "v": 127
    },
    {
      "midi": 42,
      "hit": false,
      "t": 1714.284,
      "d": 428.5709999999999,
      "v": 127
    },
    {
      "midi": 57,
      "hit": false,
      "t": 1928.5695,
      "d": 428.5709999999999,
      "v": 127
    },
    {
      "midi": 49,
      "hit": false,
      "t": 1928.5695,
      "d": 428.5709999999999,
      "v": 127
    },
    {
      "midi": 65,
      "hit": false,
      "t": 2142.855,
      "d": 428.5709999999999,
      "v": 127
    },
    {
      "midi": 54,
      "hit": false,
      "t": 2142.855,
      "d": 642.8564999999999,
      "v": 127
    },
    {
      "midi": 57,
      "hit": false,
      "t": 2357.1405,
      "d": 428.5709999999999,
      "v": 127
    },
    {
      "midi": 66,
      "hit": false,
      "t": 2571.426,
      "d": 428.5709999999999,
      "v": 127
    },
    {
      "midi": 53,
      "hit": false,
      "t": 2571.426,
      "d": 642.8564999999999,
      "v": 127
    },
    {
      "midi": 57,
      "hit": false,
      "t": 2785.7115,
      "d": 428.5709999999999,
      "v": 127
    },
    {
      "midi": 73,
      "hit": false,
      "t": 2999.997,
      "d": 428.5709999999999,
      "v": 127
    },
    {
      "midi": 47,
      "hit": false,
      "t": 2999.997,
      "d": 428.5709999999999,
      "v": 127
    },
    {
      "midi": 62,
      "hit": false,
      "t": 3214.2825,
      "d": 428.5709999999999,
      "v": 127
    },
    {
      "midi": 54,
      "hit": false,
      "t": 3214.2825,
      "d": 428.5709999999999,
      "v": 127
    },
    {
      "midi": 66,
      "hit": false,
      "t": 3428.5679999999998,
      "d": 428.5709999999999,
      "v": 127
    },
    {
      "midi": 59,
      "hit": false,
      "t": 3428.5679999999998,
      "d": 642.8564999999999,
      "v": 127
    },
    {
      "midi": 73,
      "hit": false,
      "t": 3642.8534999999997,
      "d": 428.5709999999999,
      "v": 127
    },
    {
      "midi": 64,
      "hit": false,
      "t": 3857.1389999999997,
      "d": 428.57100000000037,
      "v": 127
    },
    {
      "midi": 61,
      "hit": false,
      "t": 3857.1389999999997,
      "d": 642.8565000000003,
      "v": 127
    },
    {
      "midi": 66,
      "hit": false,
      "t": 4071.4244999999996,
      "d": 428.57100000000037,
      "v": 127
    },
    {
      "midi": 73,
      "hit": false,
      "t": 4285.71,
      "d": 428.5709999999999,
      "v": 127
    },
    {
      "midi": 47,
      "hit": false,
      "t": 4285.71,
      "d": 428.5709999999999,
      "v": 127
    },
    {
      "midi": 62,
      "hit": false,
      "t": 4499.9955,
      "d": 428.5709999999999,
      "v": 127
    },
    {
      "midi": 54,
      "hit": false,
      "t": 4499.9955,
      "d": 428.5709999999999,
      "v": 127
    },
    {
      "midi": 70,
      "hit": false,
      "t": 4714.281,
      "d": 428.5709999999999,
      "v": 127
    },
    {
      "midi": 59,
      "hit": false,
      "t": 4714.281,
      "d": 642.8564999999999,
      "v": 127
    },
    {
      "midi": 62,
      "hit": false,
      "t": 4928.5665,
      "d": 428.5709999999999,
      "v": 127
    },
    {
      "midi": 71,
      "hit": false,
      "t": 5142.852,
      "d": 428.5709999999999,
      "v": 127
    },
    {
      "midi": 58,
      "hit": false,
      "t": 5142.852,
      "d": 642.8564999999999,
      "v": 127
    },
    {
      "midi": 62,
      "hit": false,
      "t": 5357.1375,
      "d": 428.5709999999999,
      "v": 127
    },
    {
      "midi": 78,
      "hit": false,
      "t": 5571.423,
      "d": 428.5709999999999,
      "v": 127
    },
    {
      "midi": 43,
      "hit": false,
      "t": 5571.423,
      "d": 428.5709999999999,
      "v": 127
    },
    {
      "midi": 67,
      "hit": false,
      "t": 5785.7085,
      "d": 428.5709999999999,
      "v": 127
    },
    {
      "midi": 50,
      "hit": false,
      "t": 5785.7085,
      "d": 428.5709999999999,
      "v": 127
    },
    {
      "midi": 71,
      "hit": false,
      "t": 5999.994,
      "d": 428.5709999999999,
      "v": 127
    },
    {
      "midi": 55,
      "hit": false,
      "t": 5999.994,
      "d": 642.8564999999999,
      "v": 127
    },
    {
      "midi": 78,
      "hit": false,
      "t": 6214.2795,
      "d": 428.5709999999999,
      "v": 127
    },
    {
      "midi": 69,
      "hit": false,
      "t": 6428.565,
      "d": 428.5709999999999,
      "v": 127
    },
    {
      "midi": 57,
      "hit": false,
      "t": 6428.565,
      "d": 642.8564999999999,
      "v": 127
    },
    {
      "midi": 71,
      "hit": false,
      "t": 6642.8505,
      "d": 428.5709999999999,
      "v": 127
    },
    {
      "midi": 78,
      "hit": false,
      "t": 6857.1359999999995,
      "d": 428.5709999999999,
      "v": 127
    },
    {
      "midi": 43,
      "hit": false,
      "t": 6857.1359999999995,
      "d": 428.5709999999999,
      "v": 127
    },
    {
      "midi": 67,
      "hit": false,
      "t": 7071.4214999999995,
      "d": 428.5709999999999,
      "v": 127
    },
    {
      "midi": 50,
      "hit": false,
      "t": 7071.4214999999995,
      "d": 428.5709999999999,
      "v": 127
    },
    {
      "midi": 76,
      "hit": false,
      "t": 7285.706999999999,
      "d": 428.5709999999999,
      "v": 127
    },
    {
      "midi": 57,
      "hit": false,
      "t": 7285.706999999999,
      "d": 642.8564999999999,
      "v": 127
    },
    {
      "midi": 67,
      "hit": false,
      "t": 7499.992499999999,
      "d": 428.5709999999999,
      "v": 127
    },
    {
      "midi": 74,
      "hit": false,
      "t": 7714.277999999999,
      "d": 428.5709999999999,
      "v": 127
    },
    {
      "midi": 55,
      "hit": false,
      "t": 7714.277999999999,
      "d": 642.8565000000008,
      "v": 127
    },
    {
      "midi": 67,
      "hit": false,
      "t": 7928.563499999999,
      "d": 428.5710000000008,
      "v": 127
    },
    {
      "midi": 76,
      "hit": false,
      "t": 8142.848999999999,
      "d": 428.5710000000008,
      "v": 127
    },
    {
      "midi": 42,
      "hit": false,
      "t": 8142.848999999999,
      "d": 428.5710000000008,
      "v": 127
    },
    {
      "midi": 64,
      "hit": false,
      "t": 8357.1345,
      "d": 428.5709999999999,
      "v": 127
    },
    {
      "midi": 49,
      "hit": false,
      "t": 8357.1345,
      "d": 428.5709999999999,
      "v": 127
    },
    {
      "midi": 69,
      "hit": false,
      "t": 8571.42,
      "d": 428.5709999999999,
      "v": 127
    },
    {
      "midi": 54,
      "hit": false,
      "t": 8571.42,
      "d": 642.8564999999999,
      "v": 127
    },
    {
      "midi": 76,
      "hit": false,
      "t": 8785.7055,
      "d": 428.5709999999999,
      "v": 127
    },
    {
      "midi": 56,
      "hit": false,
      "t": 8999.991,
      "d": 642.8564999999999,
      "v": 127
    },
    {
      "midi": 68,
      "hit": false,
      "t": 9214.2765,
      "d": 428.5709999999999,
      "v": 127
    },
    {
      "midi": 76,
      "hit": false,
      "t": 9428.562,
      "d": 428.5709999999999,
      "v": 127
    },
    {
      "midi": 42,
      "hit": false,
      "t": 9428.562,
      "d": 428.5709999999999,
      "v": 127
    },
    {
      "midi": 64,
      "hit": false,
      "t": 9642.8475,
      "d": 428.5709999999999,
      "v": 127
    },
    {
      "midi": 49,
      "hit": false,
      "t": 9642.8475,
      "d": 428.5709999999999,
      "v": 127
    },
    {
      "midi": 74,
      "hit": false,
      "t": 9857.133,
      "d": 428.5709999999999,
      "v": 127
    },
    {
      "midi": 56,
      "hit": false,
      "t": 9857.133,
      "d": 642.8564999999999,
      "v": 127
    },
    {
      "midi": 64,
      "hit": false,
      "t": 10071.4185,
      "d": 428.5709999999999,
      "v": 127
    },
    {
      "midi": 73,
      "hit": false,
      "t": 10285.704,
      "d": 428.5709999999999,
      "v": 127
    },
    {
      "midi": 54,
      "hit": false,
      "t": 10285.704,
      "d": 642.8564999999999,
      "v": 127
    },
    {
      "midi": 64,
      "hit": false,
      "t": 10499.9895,
      "d": 428.5709999999999,
      "v": 127
    },
    {
      "midi": 73,
      "hit": false,
      "t": 10714.275,
      "d": 428.5709999999999,
      "v": 127
    },
    {
      "midi": 40,
      "hit": false,
      "t": 10714.275,
      "d": 428.5709999999999,
      "v": 127
    },
    {
      "midi": 62,
      "hit": false,
      "t": 10928.5605,
      "d": 428.5709999999999,
      "v": 127
    },
    {
      "midi": 47,
      "hit": false,
      "t": 10928.5605,
      "d": 428.5709999999999,
      "v": 127
    },
    {
      "midi": 67,
      "hit": false,
      "t": 11142.846,
      "d": 428.5709999999999,
      "v": 127
    },
    {
      "midi": 55,
      "hit": false,
      "t": 11142.846,
      "d": 642.8564999999999,
      "v": 127
    },
    {
      "midi": 73,
      "hit": false,
      "t": 11357.1315,
      "d": 428.5709999999999,
      "v": 127
    },
    {
      "midi": 66,
      "hit": false,
      "t": 11571.417,
      "d": 428.5709999999999,
      "v": 127
    },
    {
      "midi": 57,
      "hit": false,
      "t": 11571.417,
      "d": 642.8564999999999,
      "v": 127
    },
    {
      "midi": 67,
      "hit": false,
      "t": 11785.7025,
      "d": 428.5709999999999,
      "v": 127
    },
    {
      "midi": 73,
      "hit": false,
      "t": 11999.988,
      "d": 428.5709999999999,
      "v": 127
    },
    {
      "midi": 40,
      "hit": false,
      "t": 11999.988,
      "d": 428.5709999999999,
      "v": 127
    },
    {
      "midi": 62,
      "hit": false,
      "t": 12214.2735,
      "d": 428.5709999999999,
      "v": 127
    },
    {
      "midi": 47,
      "hit": false,
      "t": 12214.2735,
      "d": 428.5709999999999,
      "v": 127
    },
    {
      "midi": 74,
      "hit": false,
      "t": 12428.559,
      "d": 428.5709999999999,
      "v": 127
    },
    {
      "midi": 54,
      "hit": false,
      "t": 12428.559,
      "d": 642.8564999999999,
      "v": 127
    },
    {
      "midi": 62,
      "hit": false,
      "t": 12642.8445,
      "d": 428.5709999999999,
      "v": 127
    },
    {
      "midi": 73,
      "hit": false,
      "t": 12857.13,
      "d": 428.5709999999999,
      "v": 127
    },
    {
      "midi": 52,
      "hit": false,
      "t": 12857.13,
      "d": 642.8564999999999,
      "v": 127
    },
    {
      "midi": 62,
      "hit": false,
      "t": 13071.4155,
      "d": 428.5709999999999,
      "v": 127
    },
    {
      "midi": 71,
      "hit": false,
      "t": 13285.701,
      "d": 428.5709999999999,
      "v": 127
    },
    {
      "midi": 47,
      "hit": false,
      "t": 13285.701,
      "d": 428.5709999999999,
      "v": 127
    },
    {
      "midi": 62,
      "hit": false,
      "t": 13499.986499999999,
      "d": 428.5709999999999,
      "v": 127
    },
    {
      "midi": 54,
      "hit": false,
      "t": 13499.986499999999,
      "d": 428.5709999999999,
      "v": 127
    },
    {
      "midi": 66,
      "hit": false,
      "t": 13714.271999999999,
      "d": 428.5709999999999,
      "v": 127
    },
    {
      "midi": 59,
      "hit": false,
      "t": 13714.271999999999,
      "d": 642.8564999999999,
      "v": 127
    },
    {
      "midi": 71,
      "hit": false,
      "t": 13928.557499999999,
      "d": 428.5709999999999,
      "v": 127
    },
    {
      "midi": 64,
      "hit": false,
      "t": 14142.842999999999,
      "d": 428.5709999999999,
      "v": 127
    },
    {
      "midi": 61,
      "hit": false,
      "t": 14142.842999999999,
      "d": 642.8564999999999,
      "v": 127
    },
    {
      "midi": 66,
      "hit": false,
      "t": 14357.128499999999,
      "d": 428.5709999999999,
      "v": 127
    },
    {
      "midi": 71,
      "hit": false,
      "t": 14571.413999999999,
      "d": 428.5709999999999,
      "v": 127
    },
    {
      "midi": 47,
      "hit": false,
      "t": 14571.413999999999,
      "d": 428.5709999999999,
      "v": 127
    },
    {
      "midi": 62,
      "hit": false,
      "t": 14785.699499999999,
      "d": 428.5709999999999,
      "v": 127
    },
    {
      "midi": 54,
      "hit": false,
      "t": 14785.699499999999,
      "d": 428.5709999999999,
      "v": 127
    },
    {
      "midi": 61,
      "hit": false,
      "t": 14999.984999999999,
      "d": 428.5709999999999,
      "v": 127
    },
    {
      "midi": 59,
      "hit": false,
      "t": 14999.984999999999,
      "d": 642.8564999999999,
      "v": 127
    },
    {
      "midi": 62,
      "hit": false,
      "t": 15214.270499999999,
      "d": 428.5709999999999,
      "v": 127
    },
    {
      "midi": 64,
      "hit": false,
      "t": 15428.555999999999,
      "d": 428.5709999999999,
      "v": 127
    },
    {
      "midi": 55,
      "hit": false,
      "t": 15428.555999999999,
      "d": 642.8564999999999,
      "v": 127
    },
    {
      "midi": 62,
      "hit": false,
      "t": 15642.841499999999,
      "d": 428.5709999999999,
      "v": 127
    },
    {
      "midi": 71,
      "hit": false,
      "t": 15857.126999999999,
      "d": 428.5709999999999,
      "v": 127
    },
    {
      "midi": 47,
      "hit": false,
      "t": 15857.126999999999,
      "d": 428.5709999999999,
      "v": 127
    },
    {
      "midi": 62,
      "hit": false,
      "t": 16071.412499999999,
      "d": 428.5709999999999,
      "v": 127
    },
    {
      "midi": 54,
      "hit": false,
      "t": 16071.412499999999,
      "d": 428.5709999999999,
      "v": 127
    },
    {
      "midi": 66,
      "hit": false,
      "t": 16285.697999999999,
      "d": 428.57100000000173,
      "v": 127
    },
    {
      "midi": 59,
      "hit": false,
      "t": 16285.697999999999,
      "d": 642.8565000000035,
      "v": 127
    },
    {
      "midi": 71,
      "hit": false,
      "t": 16499.9835,
      "d": 428.57100000000355,
      "v": 127
    },
    {
      "midi": 64,
      "hit": false,
      "t": 16714.269,
      "d": 428.57100000000355,
      "v": 127
    },
    {
      "midi": 61,
      "hit": false,
      "t": 16714.269,
      "d": 642.8565000000053,
      "v": 127
    },
    {
      "midi": 66,
      "hit": false,
      "t": 16928.554500000002,
      "d": 428.57100000000355,
      "v": 127
    },
    {
      "midi": 71,
      "hit": false,
      "t": 17142.840000000004,
      "d": 428.57100000000355,
      "v": 127
    },
    {
      "midi": 47,
      "hit": false,
      "t": 17142.840000000004,
      "d": 428.57100000000355,
      "v": 127
    },
    {
      "midi": 62,
      "hit": false,
      "t": 17357.125500000006,
      "d": 428.57100000000355,
      "v": 127
    },
    {
      "midi": 54,
      "hit": false,
      "t": 17357.125500000006,
      "d": 428.57100000000355,
      "v": 127
    },
    {
      "midi": 61,
      "hit": false,
      "t": 17571.411000000007,
      "d": 428.57100000000355,
      "v": 127
    },
    {
      "midi": 59,
      "hit": false,
      "t": 17571.411000000007,
      "d": 642.8565000000053,
      "v": 127
    },
    {
      "midi": 62,
      "hit": false,
      "t": 17785.69650000001,
      "d": 428.57100000000355,
      "v": 127
    },
    {
      "midi": 64,
      "hit": false,
      "t": 17999.98200000001,
      "d": 428.57100000000355,
      "v": 127
    },
    {
      "midi": 55,
      "hit": false,
      "t": 17999.98200000001,
      "d": 428.57100000000355,
      "v": 127
    },
    {
      "midi": 62,
      "hit": false,
      "t": 18214.267500000013,
      "d": 428.57100000000355,
      "v": 127
    },
    {
      "midi": 59,
      "hit": false,
      "t": 18214.267500000013,
      "d": 428.57100000000355,
      "v": 127
    },
    {
      "midi": 68,
      "hit": false,
      "t": 18428.553000000014,
      "d": 428.57100000000355,
      "v": 127
    },
    {
      "midi": 42,
      "hit": false,
      "t": 18428.553000000014,
      "d": 428.57100000000355,
      "v": 127
    },
    {
      "midi": 57,
      "hit": false,
      "t": 18642.838500000016,
      "d": 428.57100000000355,
      "v": 127
    },
    {
      "midi": 49,
      "hit": false,
      "t": 18642.838500000016,
      "d": 428.57100000000355,
      "v": 127
    },
    {
      "midi": 61,
      "hit": false,
      "t": 18857.124000000018,
      "d": 428.57100000000355,
      "v": 127
    },
    {
      "midi": 54,
      "hit": false,
      "t": 18857.124000000018,
      "d": 642.8565000000053,
      "v": 127
    },
    {
      "midi": 68,
      "hit": false,
      "t": 19071.40950000002,
      "d": 428.57100000000355,
      "v": 127
    },
    {
      "midi": 59,
      "hit": false,
      "t": 19285.69500000002,
      "d": 428.57100000000355,
      "v": 127
    },
    {
      "midi": 56,
      "hit": false,
      "t": 19285.69500000002,
      "d": 642.8565000000053,
      "v": 127
    },
    {
      "midi": 61,
      "hit": false,
      "t": 19499.980500000023,
      "d": 428.57100000000355,
      "v": 127
    },
    {
      "midi": 68,
      "hit": false,
      "t": 19714.266000000025,
      "d": 428.57100000000355,
      "v": 127
    },
    {
      "midi": 42,
      "hit": false,
      "t": 19714.266000000025,
      "d": 428.57100000000355,
      "v": 127
    },
    {
      "midi": 57,
      "hit": false,
      "t": 19928.551500000027,
      "d": 428.57100000000355,
      "v": 127
    },
    {
      "midi": 49,
      "hit": false,
      "t": 19928.551500000027,
      "d": 428.57100000000355,
      "v": 127
    },
    {
      "midi": 65,
      "hit": false,
      "t": 20142.83700000003,
      "d": 428.57100000000355,
      "v": 127
    },
    {
      "midi": 54,
      "hit": false,
      "t": 20142.83700000003,
      "d": 642.8565000000053,
      "v": 127
    },
    {
      "midi": 57,
      "hit": false,
      "t": 20357.12250000003,
      "d": 428.57100000000355,
      "v": 127
    },
    {
      "midi": 66,
      "hit": false,
      "t": 20571.408000000032,
      "d": 428.57100000000355,
      "v": 127
    },
    {
      "midi": 53,
      "hit": false,
      "t": 20571.408000000032,
      "d": 642.8565000000053,
      "v": 127
    },
    {
      "midi": 57,
      "hit": false,
      "t": 20785.693500000034,
      "d": 428.57100000000355,
      "v": 127
    },
    {
      "midi": 73,
      "hit": false,
      "t": 20999.979000000036,
      "d": 428.57100000000355,
      "v": 127
    },
    {
      "midi": 47,
      "hit": false,
      "t": 20999.979000000036,
      "d": 428.57100000000355,
      "v": 127
    },
    {
      "midi": 62,
      "hit": false,
      "t": 21214.264500000038,
      "d": 428.57100000000355,
      "v": 127
    },
    {
      "midi": 54,
      "hit": false,
      "t": 21214.264500000038,
      "d": 428.57100000000355,
      "v": 127
    },
    {
      "midi": 66,
      "hit": false,
      "t": 21428.55000000004,
      "d": 428.57100000000355,
      "v": 127
    },
    {
      "midi": 59,
      "hit": false,
      "t": 21428.55000000004,
      "d": 642.8565000000053,
      "v": 127
    },
    {
      "midi": 73,
      "hit": false,
      "t": 21642.83550000004,
      "d": 428.57100000000355,
      "v": 127
    },
    {
      "midi": 64,
      "hit": false,
      "t": 21857.121000000043,
      "d": 428.57100000000355,
      "v": 127
    },
    {
      "midi": 61,
      "hit": false,
      "t": 21857.121000000043,
      "d": 642.8565000000053,
      "v": 127
    },
    {
      "midi": 66,
      "hit": false,
      "t": 22071.406500000045,
      "d": 428.57100000000355,
      "v": 127
    },
    {
      "midi": 73,
      "hit": false,
      "t": 22285.692000000046,
      "d": 428.57100000000355,
      "v": 127
    },
    {
      "midi": 47,
      "hit": false,
      "t": 22285.692000000046,
      "d": 428.57100000000355,
      "v": 127
    },
    {
      "midi": 62,
      "hit": false,
      "t": 22499.977500000048,
      "d": 428.57100000000355,
      "v": 127
    },
    {
      "midi": 54,
      "hit": false,
      "t": 22499.977500000048,
      "d": 428.57100000000355,
      "v": 127
    },
    {
      "midi": 70,
      "hit": false,
      "t": 22714.26300000005,
      "d": 428.57100000000355,
      "v": 127
    },
    {
      "midi": 59,
      "hit": false,
      "t": 22714.26300000005,
      "d": 642.8565000000053,
      "v": 127
    },
    {
      "midi": 62,
      "hit": false,
      "t": 22928.54850000005,
      "d": 428.57100000000355,
      "v": 127
    },
    {
      "midi": 71,
      "hit": false,
      "t": 23142.834000000053,
      "d": 428.57100000000355,
      "v": 127
    },
    {
      "midi": 58,
      "hit": false,
      "t": 23142.834000000053,
      "d": 642.8565000000053,
      "v": 127
    },
    {
      "midi": 62,
      "hit": false,
      "t": 23357.119500000055,
      "d": 428.57100000000355,
      "v": 127
    },
    {
      "midi": 78,
      "hit": false,
      "t": 23571.405000000057,
      "d": 428.57100000000355,
      "v": 127
    },
    {
      "midi": 43,
      "hit": false,
      "t": 23571.405000000057,
      "d": 428.57100000000355,
      "v": 127
    },
    {
      "midi": 67,
      "hit": false,
      "t": 23785.69050000006,
      "d": 428.57100000000355,
      "v": 127
    },
    {
      "midi": 50,
      "hit": false,
      "t": 23785.69050000006,
      "d": 428.57100000000355,
      "v": 127
    },
    {
      "midi": 71,
      "hit": false,
      "t": 23999.97600000006,
      "d": 428.57100000000355,
      "v": 127
    },
    {
      "midi": 55,
      "hit": false,
      "t": 23999.97600000006,
      "d": 642.8565000000053,
      "v": 127
    },
    {
      "midi": 78,
      "hit": false,
      "t": 24214.261500000062,
      "d": 428.57100000000355,
      "v": 127
    },
    {
      "midi": 69,
      "hit": false,
      "t": 24428.547000000064,
      "d": 428.57100000000355,
      "v": 127
    },
    {
      "midi": 57,
      "hit": false,
      "t": 24428.547000000064,
      "d": 642.8565000000053,
      "v": 127
    },
    {
      "midi": 71,
      "hit": false,
      "t": 24642.832500000066,
      "d": 428.57100000000355,
      "v": 127
    },
    {
      "midi": 78,
      "hit": false,
      "t": 24857.118000000068,
      "d": 428.57100000000355,
      "v": 127
    },
    {
      "midi": 43,
      "hit": false,
      "t": 24857.118000000068,
      "d": 428.57100000000355,
      "v": 127
    },
    {
      "midi": 67,
      "hit": false,
      "t": 25071.40350000007,
      "d": 428.57100000000355,
      "v": 127
    },
    {
      "midi": 50,
      "hit": false,
      "t": 25071.40350000007,
      "d": 428.57100000000355,
      "v": 127
    },
    {
      "midi": 76,
      "hit": false,
      "t": 25285.68900000007,
      "d": 428.57100000000355,
      "v": 127
    },
    {
      "midi": 57,
      "hit": false,
      "t": 25285.68900000007,
      "d": 642.8565000000053,
      "v": 127
    },
    {
      "midi": 67,
      "hit": false,
      "t": 25499.974500000073,
      "d": 428.57100000000355,
      "v": 127
    },
    {
      "midi": 74,
      "hit": false,
      "t": 25714.260000000075,
      "d": 428.57100000000355,
      "v": 127
    },
    {
      "midi": 55,
      "hit": false,
      "t": 25714.260000000075,
      "d": 642.8565000000053,
      "v": 127
    },
    {
      "midi": 67,
      "hit": false,
      "t": 25928.545500000077,
      "d": 428.57100000000355,
      "v": 127
    },
    {
      "midi": 76,
      "hit": false,
      "t": 26142.83100000008,
      "d": 428.57100000000355,
      "v": 127
    },
    {
      "midi": 42,
      "hit": false,
      "t": 26142.83100000008,
      "d": 428.57100000000355,
      "v": 127
    },
    {
      "midi": 64,
      "hit": false,
      "t": 26357.11650000008,
      "d": 428.57100000000355,
      "v": 127
    },
    {
      "midi": 49,
      "hit": false,
      "t": 26357.11650000008,
      "d": 428.57100000000355,
      "v": 127
    },
    {
      "midi": 69,
      "hit": false,
      "t": 26571.402000000082,
      "d": 428.57100000000355,
      "v": 127
    },
    {
      "midi": 54,
      "hit": false,
      "t": 26571.402000000082,
      "d": 642.8565000000053,
      "v": 127
    },
    {
      "midi": 76,
      "hit": false,
      "t": 26785.687500000084,
      "d": 428.57100000000355,
      "v": 127
    },
    {
      "midi": 56,
      "hit": false,
      "t": 26999.973000000085,
      "d": 642.8565000000053,
      "v": 127
    },
    {
      "midi": 68,
      "hit": false,
      "t": 27214.258500000087,
      "d": 428.57100000000355,
      "v": 127
    },
    {
      "midi": 76,
      "hit": false,
      "t": 27428.54400000009,
      "d": 428.57100000000355,
      "v": 127
    },
    {
      "midi": 42,
      "hit": false,
      "t": 27428.54400000009,
      "d": 428.57100000000355,
      "v": 127
    },
    {
      "midi": 64,
      "hit": false,
      "t": 27642.82950000009,
      "d": 428.57100000000355,
      "v": 127
    },
    {
      "midi": 49,
      "hit": false,
      "t": 27642.82950000009,
      "d": 428.57100000000355,
      "v": 127
    },
    {
      "midi": 74,
      "hit": false,
      "t": 27857.115000000093,
      "d": 428.57100000000355,
      "v": 127
    },
    {
      "midi": 56,
      "hit": false,
      "t": 27857.115000000093,
      "d": 642.8565000000053,
      "v": 127
    },
    {
      "midi": 64,
      "hit": false,
      "t": 28071.400500000094,
      "d": 428.57100000000355,
      "v": 127
    },
    {
      "midi": 73,
      "hit": false,
      "t": 28285.686000000096,
      "d": 428.57100000000355,
      "v": 127
    },
    {
      "midi": 54,
      "hit": false,
      "t": 28285.686000000096,
      "d": 642.8565000000053,
      "v": 127
    },
    {
      "midi": 64,
      "hit": false,
      "t": 28499.971500000098,
      "d": 428.57100000000355,
      "v": 127
    },
    {
      "midi": 73,
      "hit": false,
      "t": 28714.2570000001,
      "d": 428.57100000000355,
      "v": 127
    },
    {
      "midi": 40,
      "hit": false,
      "t": 28714.2570000001,
      "d": 428.57100000000355,
      "v": 127
    },
    {
      "midi": 62,
      "hit": false,
      "t": 28928.5425000001,
      "d": 428.57100000000355,
      "v": 127
    },
    {
      "midi": 47,
      "hit": false,
      "t": 28928.5425000001,
      "d": 428.57100000000355,
      "v": 127
    },
    {
      "midi": 67,
      "hit": false,
      "t": 29142.828000000103,
      "d": 428.57100000000355,
      "v": 127
    },
    {
      "midi": 55,
      "hit": false,
      "t": 29142.828000000103,
      "d": 642.8565000000053,
      "v": 127
    },
    {
      "midi": 73,
      "hit": false,
      "t": 29357.113500000105,
      "d": 428.57100000000355,
      "v": 127
    },
    {
      "midi": 66,
      "hit": false,
      "t": 29571.399000000107,
      "d": 428.57100000000355,
      "v": 127
    },
    {
      "midi": 57,
      "hit": false,
      "t": 29571.399000000107,
      "d": 642.8565000000053,
      "v": 127
    },
    {
      "midi": 67,
      "hit": false,
      "t": 29785.68450000011,
      "d": 428.57100000000355,
      "v": 127
    },
    {
      "midi": 73,
      "hit": false,
      "t": 29999.97000000011,
      "d": 428.57100000000355,
      "v": 127
    },
    {
      "midi": 40,
      "hit": false,
      "t": 29999.97000000011,
      "d": 428.57100000000355,
      "v": 127
    },
    {
      "midi": 62,
      "hit": false,
      "t": 30214.255500000112,
      "d": 428.57100000000355,
      "v": 127
    },
    {
      "midi": 47,
      "hit": false,
      "t": 30214.255500000112,
      "d": 428.57100000000355,
      "v": 127
    },
    {
      "midi": 74,
      "hit": false,
      "t": 30428.541000000114,
      "d": 428.57100000000355,
      "v": 127
    },
    {
      "midi": 54,
      "hit": false,
      "t": 30428.541000000114,
      "d": 642.8565000000053,
      "v": 127
    },
    {
      "midi": 62,
      "hit": false,
      "t": 30642.826500000116,
      "d": 428.57100000000355,
      "v": 127
    },
    {
      "midi": 73,
      "hit": false,
      "t": 30857.112000000117,
      "d": 428.57100000000355,
      "v": 127
    },
    {
      "midi": 52,
      "hit": false,
      "t": 30857.112000000117,
      "d": 642.8565000000053,
      "v": 127
    },
    {
      "midi": 62,
      "hit": false,
      "t": 31071.39750000012,
      "d": 428.57100000000355,
      "v": 127
    },
    {
      "midi": 71,
      "hit": false,
      "t": 31285.68300000012,
      "d": 428.57100000000355,
      "v": 127
    },
    {
      "midi": 47,
      "hit": false,
      "t": 31285.68300000012,
      "d": 428.57100000000355,
      "v": 127
    },
    {
      "midi": 62,
      "hit": false,
      "t": 31499.968500000123,
      "d": 428.57100000000355,
      "v": 127
    },
    {
      "midi": 54,
      "hit": false,
      "t": 31499.968500000123,
      "d": 428.57100000000355,
      "v": 127
    },
    {
      "midi": 66,
      "hit": false,
      "t": 31714.254000000125,
      "d": 428.57100000000355,
      "v": 127
    },
    {
      "midi": 59,
      "hit": false,
      "t": 31714.254000000125,
      "d": 642.8565000000053,
      "v": 127
    },
    {
      "midi": 71,
      "hit": false,
      "t": 31928.539500000126,
      "d": 428.57100000000355,
      "v": 127
    },
    {
      "midi": 64,
      "hit": false,
      "t": 32142.825000000128,
      "d": 428.57100000000355,
      "v": 127
    },
    {
      "midi": 61,
      "hit": false,
      "t": 32142.825000000128,
      "d": 642.8565000000017,
      "v": 127
    },
    {
      "midi": 66,
      "hit": false,
      "t": 32357.11050000013,
      "d": 428.5709999999999,
      "v": 127
    },
    {
      "midi": 71,
      "hit": false,
      "t": 32571.39600000013,
      "d": 428.5709999999963,
      "v": 127
    },
    {
      "midi": 47,
      "hit": false,
      "t": 32571.39600000013,
      "d": 428.5709999999963,
      "v": 127
    },
    {
      "midi": 62,
      "hit": false,
      "t": 32785.68150000013,
      "d": 428.5709999999963,
      "v": 127
    },
    {
      "midi": 54,
      "hit": false,
      "t": 32785.68150000013,
      "d": 428.5709999999963,
      "v": 127
    },
    {
      "midi": 61,
      "hit": false,
      "t": 32999.96700000013,
      "d": 428.5709999999963,
      "v": 127
    },
    {
      "midi": 59,
      "hit": false,
      "t": 32999.96700000013,
      "d": 642.8564999999944,
      "v": 127
    },
    {
      "midi": 62,
      "hit": false,
      "t": 33214.252500000126,
      "d": 428.5709999999963,
      "v": 127
    },
    {
      "midi": 64,
      "hit": false,
      "t": 33428.538000000124,
      "d": 428.5709999999963,
      "v": 127
    },
    {
      "midi": 55,
      "hit": false,
      "t": 33428.538000000124,
      "d": 642.8564999999944,
      "v": 127
    },
    {
      "midi": 62,
      "hit": false,
      "t": 33642.82350000012,
      "d": 428.5709999999963,
      "v": 127
    },
    {
      "midi": 71,
      "hit": false,
      "t": 33857.10900000012,
      "d": 428.5709999999963,
      "v": 127
    },
    {
      "midi": 47,
      "hit": false,
      "t": 33857.10900000012,
      "d": 428.5709999999963,
      "v": 127
    },
    {
      "midi": 62,
      "hit": false,
      "t": 34071.39450000012,
      "d": 428.5709999999963,
      "v": 127
    },
    {
      "midi": 54,
      "hit": false,
      "t": 34071.39450000012,
      "d": 428.5709999999963,
      "v": 127
    },
    {
      "midi": 66,
      "hit": false,
      "t": 34285.68000000012,
      "d": 428.5709999999963,
      "v": 127
    },
    {
      "midi": 59,
      "hit": false,
      "t": 34285.68000000012,
      "d": 642.8564999999944,
      "v": 127
    },
    {
      "midi": 71,
      "hit": false,
      "t": 34499.965500000115,
      "d": 428.5709999999963,
      "v": 127
    },
    {
      "midi": 64,
      "hit": false,
      "t": 34714.25100000011,
      "d": 428.5709999999963,
      "v": 127
    },
    {
      "midi": 61,
      "hit": false,
      "t": 34714.25100000011,
      "d": 642.8564999999944,
      "v": 127
    },
    {
      "midi": 66,
      "hit": false,
      "t": 34928.53650000011,
      "d": 428.5709999999963,
      "v": 127
    },
    {
      "midi": 71,
      "hit": false,
      "t": 35142.82200000011,
      "d": 428.5709999999963,
      "v": 127
    },
    {
      "midi": 47,
      "hit": false,
      "t": 35142.82200000011,
      "d": 428.5709999999963,
      "v": 127
    },
    {
      "midi": 62,
      "hit": false,
      "t": 35357.10750000011,
      "d": 428.5709999999963,
      "v": 127
    },
    {
      "midi": 54,
      "hit": false,
      "t": 35357.10750000011,
      "d": 428.5709999999963,
      "v": 127
    },
    {
      "midi": 61,
      "hit": false,
      "t": 35571.393000000106,
      "d": 428.5709999999963,
      "v": 127
    },
    {
      "midi": 59,
      "hit": false,
      "t": 35571.393000000106,
      "d": 642.8564999999944,
      "v": 127
    },
    {
      "midi": 62,
      "hit": false,
      "t": 35785.678500000104,
      "d": 428.5709999999963,
      "v": 127
    },
    {
      "midi": 64,
      "hit": false,
      "t": 35999.9640000001,
      "d": 428.5709999999963,
      "v": 127
    },
    {
      "midi": 55,
      "hit": false,
      "t": 35999.9640000001,
      "d": 428.5709999999963,
      "v": 127
    },
    {
      "midi": 62,
      "hit": false,
      "t": 36214.2495000001,
      "d": 428.5709999999963,
      "v": 127
    },
    {
      "midi": 59,
      "hit": false,
      "t": 36214.2495000001,
      "d": 428.5709999999963,
      "v": 127
    },
    {
      "midi": 78,
      "hit": false,
      "t": 36428.5350000001,
      "d": 428.5709999999963,
      "v": 127
    },
    {
      "midi": 50,
      "hit": false,
      "t": 36428.5350000001,
      "d": 428.5709999999963,
      "v": 127
    },
    {
      "midi": 66,
      "hit": false,
      "t": 36642.820500000096,
      "d": 428.5709999999963,
      "v": 127
    },
    {
      "midi": 57,
      "hit": false,
      "t": 36642.820500000096,
      "d": 428.5709999999963,
      "v": 127
    },
    {
      "midi": 69,
      "hit": false,
      "t": 36857.106000000094,
      "d": 428.5709999999963,
      "v": 127
    },
    {
      "midi": 62,
      "hit": false,
      "t": 36857.106000000094,
      "d": 428.5709999999963,
      "v": 127
    },
    {
      "midi": 78,
      "hit": false,
      "t": 37071.39150000009,
      "d": 428.5709999999963,
      "v": 127
    },
    {
      "midi": 61,
      "hit": false,
      "t": 37071.39150000009,
      "d": 428.5709999999963,
      "v": 127
    },
    {
      "midi": 68,
      "hit": false,
      "t": 37285.67700000009,
      "d": 428.5709999999963,
      "v": 127
    },
    {
      "midi": 62,
      "hit": false,
      "t": 37285.67700000009,
      "d": 642.8564999999944,
      "v": 127
    },
    {
      "midi": 69,
      "hit": false,
      "t": 37499.96250000009,
      "d": 428.5709999999963,
      "v": 127
    },
    {
      "midi": 78,
      "hit": false,
      "t": 37714.24800000009,
      "d": 428.5709999999963,
      "v": 127
    },
    {
      "midi": 50,
      "hit": false,
      "t": 37714.24800000009,
      "d": 428.5709999999963,
      "v": 127
    },
    {
      "midi": 66,
      "hit": false,
      "t": 37928.533500000085,
      "d": 428.5709999999963,
      "v": 127
    },
    {
      "midi": 57,
      "hit": false,
      "t": 37928.533500000085,
      "d": 428.5709999999963,
      "v": 127
    },
    {
      "midi": 76,
      "hit": false,
      "t": 38142.81900000008,
      "d": 428.5709999999963,
      "v": 127
    },
    {
      "midi": 61,
      "hit": false,
      "t": 38142.81900000008,
      "d": 642.8564999999944,
      "v": 127
    },
    {
      "midi": 66,
      "hit": false,
      "t": 38357.10450000008,
      "d": 428.5709999999963,
      "v": 127
    },
    {
      "midi": 74,
      "hit": false,
      "t": 38571.39000000008,
      "d": 428.5709999999963,
      "v": 127
    },
    {
      "midi": 59,
      "hit": false,
      "t": 38571.39000000008,
      "d": 428.5709999999963,
      "v": 127
    },
    {
      "midi": 66,
      "hit": false,
      "t": 38785.67550000008,
      "d": 428.5709999999963,
      "v": 127
    },
    {
      "midi": 57,
      "hit": false,
      "t": 38785.67550000008,
      "d": 428.5709999999963,
      "v": 127
    },
    {
      "midi": 73,
      "hit": false,
      "t": 38999.961000000076,
      "d": 642.8564999999944,
      "v": 127
    },
    {
      "midi": 49,
      "hit": false,
      "t": 38999.961000000076,
      "d": 1071.427499999998,
      "v": 127
    },
    {
      "midi": 64,
      "hit": false,
      "t": 39428.53200000007,
      "d": 428.5709999999963,
      "v": 127
    },
    {
      "midi": 68,
      "hit": false,
      "t": 39642.81750000007,
      "d": 428.5709999999963,
      "v": 127
    },
    {
      "midi": 63,
      "hit": false,
      "t": 39857.10300000007,
      "d": 428.5709999999963,
      "v": 127
    },
    {
      "midi": 60,
      "hit": false,
      "t": 39857.103000000076,
      "d": 642.8564999999944,
      "v": 127
    },
    {
      "midi": 64,
      "hit": false,
      "t": 40071.38850000007,
      "d": 428.5709999999963,
      "v": 127
    },
    {
      "midi": 68,
      "hit": false,
      "t": 40285.674000000065,
      "d": 428.5709999999963,
      "v": 127
    },
    {
      "midi": 59,
      "hit": false,
      "t": 40285.67400000007,
      "d": 642.8565000000017,
      "v": 127
    },
    {
      "midi": 61,
      "hit": false,
      "t": 40499.95950000006,
      "d": 428.5709999999963,
      "v": 127
    },
    {
      "midi": 64,
      "hit": false,
      "t": 40714.24500000006,
      "d": 428.5709999999963,
      "v": 127
    },
    {
      "midi": 68,
      "hit": false,
      "t": 40928.53050000006,
      "d": 428.5709999999963,
      "v": 127
    },
    {
      "midi": 58,
      "hit": false,
      "t": 40928.53050000007,
      "d": 428.5709999999963,
      "v": 127
    },
    {
      "midi": 63,
      "hit": false,
      "t": 41142.81600000006,
      "d": 428.5709999999963,
      "v": 127
    },
    {
      "midi": 57,
      "hit": false,
      "t": 41142.81600000007,
      "d": 428.5709999999963,
      "v": 127
    },
    {
      "midi": 64,
      "hit": false,
      "t": 41357.101500000055,
      "d": 428.5709999999963,
      "v": 127
    },
    {
      "midi": 56,
      "hit": false,
      "t": 41357.10150000007,
      "d": 428.5709999999963,
      "v": 127
    },
    {
      "midi": 76,
      "hit": false,
      "t": 41571.38700000005,
      "d": 428.5709999999963,
      "v": 127
    },
    {
      "midi": 52,
      "hit": false,
      "t": 41571.38700000007,
      "d": 428.5709999999963,
      "v": 127
    },
    {
      "midi": 64,
      "hit": false,
      "t": 41785.67250000005,
      "d": 428.5709999999963,
      "v": 127
    },
    {
      "midi": 59,
      "hit": false,
      "t": 41785.672500000066,
      "d": 428.5709999999963,
      "v": 127
    },
    {
      "midi": 67,
      "hit": false,
      "t": 41999.95800000005,
      "d": 428.5709999999963,
      "v": 127
    },
    {
      "midi": 60,
      "hit": false,
      "t": 41999.958000000064,
      "d": 428.5709999999963,
      "v": 127
    },
    {
      "midi": 76,
      "hit": false,
      "t": 42214.24350000005,
      "d": 428.5709999999963,
      "v": 127
    },
    {
      "midi": 59,
      "hit": false,
      "t": 42214.24350000006,
      "d": 428.5709999999963,
      "v": 127
    },
    {
      "midi": 66,
      "hit": false,
      "t": 42428.529000000046,
      "d": 428.5709999999963,
      "v": 127
    },
    {
      "midi": 60,
      "hit": false,
      "t": 42428.52900000006,
      "d": 642.8564999999944,
      "v": 127
    },
    {
      "midi": 67,
      "hit": false,
      "t": 42642.814500000044,
      "d": 428.5709999999963,
      "v": 127
    },
    {
      "midi": 76,
      "hit": false,
      "t": 42857.10000000004,
      "d": 428.5709999999963,
      "v": 127
    },
    {
      "midi": 52,
      "hit": false,
      "t": 42857.10000000006,
      "d": 428.5709999999963,
      "v": 127
    },
    {
      "midi": 64,
      "hit": false,
      "t": 43071.38550000004,
      "d": 428.5709999999963,
      "v": 127
    },
    {
      "midi": 59,
      "hit": false,
      "t": 43071.385500000055,
      "d": 428.5709999999963,
      "v": 127
    },
    {
      "midi": 74,
      "hit": false,
      "t": 43285.67100000004,
      "d": 428.5709999999963,
      "v": 127
    },
    {
      "midi": 60,
      "hit": false,
      "t": 43285.67100000005,
      "d": 428.5709999999963,
      "v": 127
    },
    {
      "midi": 64,
      "hit": false,
      "t": 43499.95650000004,
      "d": 428.5709999999963,
      "v": 127
    },
    {
      "midi": 59,
      "hit": false,
      "t": 43499.95650000005,
      "d": 428.5709999999963,
      "v": 127
    },
    {
      "midi": 72,
      "hit": false,
      "t": 43714.242000000035,
      "d": 428.5709999999963,
      "v": 127
    },
    {
      "midi": 60,
      "hit": false,
      "t": 43714.24200000005,
      "d": 642.8564999999944,
      "v": 127
    },
    {
      "midi": 64,
      "hit": false,
      "t": 43928.52750000003,
      "d": 428.5709999999963,
      "v": 127
    },
    {
      "midi": 71,
      "hit": false,
      "t": 44142.81300000003,
      "d": 428.5709999999963,
      "v": 127
    },
    {
      "midi": 47,
      "hit": false,
      "t": 44142.813000000046,
      "d": 428.5709999999963,
      "v": 127
    },
    {
      "midi": 59,
      "hit": false,
      "t": 44357.09850000003,
      "d": 428.5709999999963,
      "v": 127
    },
    {
      "midi": 54,
      "hit": false,
      "t": 44357.098500000044,
      "d": 428.5709999999963,
      "v": 127
    },
    {
      "midi": 62,
      "hit": false,
      "t": 44571.38400000003,
      "d": 428.5709999999963,
      "v": 127
    },
    {
      "midi": 55,
      "hit": false,
      "t": 44571.38400000004,
      "d": 428.5709999999963,
      "v": 127
    },
    {
      "midi": 66,
      "hit": false,
      "t": 44785.669500000025,
      "d": 428.5709999999963,
      "v": 127
    },
    {
      "midi": 56,
      "hit": false,
      "t": 44785.66950000004,
      "d": 428.5709999999963,
      "v": 127
    },
    {
      "midi": 61,
      "hit": false,
      "t": 44999.95500000002,
      "d": 428.5709999999963,
      "v": 127
    },
    {
      "midi": 55,
      "hit": false,
      "t": 44999.95500000004,
      "d": 428.5709999999963,
      "v": 127
    },
    {
      "midi": 62,
      "hit": false,
      "t": 45214.24050000002,
      "d": 428.5709999999963,
      "v": 127
    },
    {
      "midi": 54,
      "hit": false,
      "t": 45214.240500000036,
      "d": 428.5709999999963,
      "v": 127
    },
    {
      "midi": 66,
      "hit": false,
      "t": 45428.52600000002,
      "d": 428.5709999999963,
      "v": 127
    },
    {
      "midi": 47,
      "hit": false,
      "t": 45428.526000000034,
      "d": 428.5709999999963,
      "v": 127
    },
    {
      "midi": 59,
      "hit": false,
      "t": 45642.81150000002,
      "d": 428.5709999999963,
      "v": 127
    },
    {
      "midi": 54,
      "hit": false,
      "t": 45642.81150000003,
      "d": 428.5709999999963,
      "v": 127
    },
    {
      "midi": 62,
      "hit": false,
      "t": 45857.097000000016,
      "d": 428.5709999999963,
      "v": 127
    },
    {
      "midi": 55,
      "hit": false,
      "t": 45857.09700000003,
      "d": 428.5709999999963,
      "v": 127
    },
    {
      "midi": 66,
      "hit": false,
      "t": 46071.382500000014,
      "d": 428.5709999999963,
      "v": 127
    },
    {
      "midi": 56,
      "hit": false,
      "t": 46071.38250000003,
      "d": 428.5709999999963,
      "v": 127
    },
    {
      "midi": 61,
      "hit": false,
      "t": 46285.66800000001,
      "d": 428.5709999999963,
      "v": 127
    },
    {
      "midi": 55,
      "hit": false,
      "t": 46285.66800000003,
      "d": 428.5709999999963,
      "v": 127
    },
    {
      "midi": 62,
      "hit": false,
      "t": 46499.95350000001,
      "d": 428.5709999999963,
      "v": 127
    },
    {
      "midi": 54,
      "hit": false,
      "t": 46499.953500000025,
      "d": 428.5709999999963,
      "v": 127
    },
    {
      "midi": 73,
      "hit": false,
      "t": 46714.23900000001,
      "d": 428.5709999999963,
      "v": 127
    },
    {
      "midi": 42,
      "hit": false,
      "t": 46714.23900000002,
      "d": 428.5709999999963,
      "v": 127
    },
    {
      "midi": 66,
      "hit": false,
      "t": 46928.52450000001,
      "d": 428.5709999999963,
      "v": 127
    },
    {
      "midi": 49,
      "hit": false,
      "t": 46928.52450000002,
      "d": 428.5709999999963,
      "v": 127
    },
    {
      "midi": 69,
      "hit": false,
      "t": 47142.810000000005,
      "d": 428.5709999999963,
      "v": 127
    },
    {
      "midi": 54,
      "hit": false,
      "t": 47142.81000000002,
      "d": 428.5709999999963,
      "v": 127
    },
    {
      "midi": 73,
      "hit": false,
      "t": 47357.0955,
      "d": 428.5709999999963,
      "v": 127
    },
    {
      "midi": 49,
      "hit": false,
      "t": 47357.09550000002,
      "d": 428.5709999999963,
      "v": 127
    },
    {
      "midi": 65,
      "hit": false,
      "t": 47571.381,
      "d": 428.5709999999963,
      "v": 127
    },
    {
      "midi": 56,
      "hit": false,
      "t": 47571.381000000016,
      "d": 428.5709999999963,
      "v": 127
    },
    {
      "midi": 66,
      "hit": false,
      "t": 47785.6665,
      "d": 428.5709999999963,
      "v": 127
    },
    {
      "midi": 49,
      "hit": false,
      "t": 47785.666500000014,
      "d": 428.5709999999963,
      "v": 127
    },
    {
      "midi": 73,
      "hit": false,
      "t": 47999.952,
      "d": 428.5709999999963,
      "v": 127
    },
    {
      "midi": 42,
      "hit": false,
      "t": 47999.95200000001,
      "d": 428.5709999999963,
      "v": 127
    },
    {
      "midi": 66,
      "hit": false,
      "t": 48214.237499999996,
      "d": 428.5709999999963,
      "v": 127
    },
    {
      "midi": 49,
      "hit": false,
      "t": 48214.23750000001,
      "d": 428.5709999999963,
      "v": 127
    },
    {
      "midi": 74,
      "hit": false,
      "t": 48428.522999999994,
      "d": 428.5709999999963,
      "v": 127
    },
    {
      "midi": 53,
      "hit": false,
      "t": 48428.52300000001,
      "d": 428.5709999999963,
      "v": 127
    },
    {
      "midi": 66,
      "hit": false,
      "t": 48642.80849999999,
      "d": 428.5709999999963,
      "v": 127
    },
    {
      "midi": 49,
      "hit": false,
      "t": 48642.80850000001,
      "d": 428.5709999999963,
      "v": 127
    },
    {
      "midi": 73,
      "hit": false,
      "t": 48857.09399999999,
      "d": 428.5709999999963,
      "v": 127
    },
    {
      "midi": 54,
      "hit": false,
      "t": 48857.094000000005,
      "d": 428.5709999999963,
      "v": 127
    },
    {
      "midi": 66,
      "hit": false,
      "t": 49071.37949999999,
      "d": 428.5709999999963,
      "v": 127
    },
    {
      "midi": 49,
      "hit": false,
      "t": 49071.3795,
      "d": 428.5709999999963,
      "v": 127
    },
    {
      "midi": 72,
      "hit": false,
      "t": 49285.664999999986,
      "d": 428.5709999999963,
      "v": 127
    },
    {
      "midi": 44,
      "hit": false,
      "t": 49285.665,
      "d": 428.5709999999963,
      "v": 127
    },
    {
      "midi": 60,
      "hit": false,
      "t": 49499.950499999984,
      "d": 428.5709999999963,
      "v": 127
    },
    {
      "midi": 51,
      "hit": false,
      "t": 49499.9505,
      "d": 428.5709999999963,
      "v": 127
    },
    {
      "midi": 63,
      "hit": false,
      "t": 49714.23599999998,
      "d": 428.5709999999963,
      "v": 127
    },
    {
      "midi": 55,
      "hit": false,
      "t": 49714.236,
      "d": 428.5709999999963,
      "v": 127
    },
    {
      "midi": 68,
      "hit": false,
      "t": 49928.52149999998,
      "d": 428.5709999999963,
      "v": 127
    },
    {
      "midi": 51,
      "hit": false,
      "t": 49928.521499999995,
      "d": 428.5709999999963,
      "v": 127
    },
    {
      "midi": 62,
      "hit": false,
      "t": 50142.80699999998,
      "d": 428.5709999999963,
      "v": 127
    },
    {
      "midi": 56,
      "hit": false,
      "t": 50142.80699999999,
      "d": 428.5709999999963,
      "v": 127
    },
    {
      "midi": 63,
      "hit": false,
      "t": 50357.09249999998,
      "d": 428.5709999999963,
      "v": 127
    },
    {
      "midi": 51,
      "hit": false,
      "t": 50357.09249999999,
      "d": 428.5709999999963,
      "v": 127
    },
    {
      "midi": 68,
      "hit": false,
      "t": 50571.377999999975,
      "d": 428.5709999999963,
      "v": 127
    },
    {
      "midi": 44,
      "hit": false,
      "t": 50571.37799999999,
      "d": 428.5709999999963,
      "v": 127
    },
    {
      "midi": 60,
      "hit": false,
      "t": 50785.66349999997,
      "d": 428.5709999999963,
      "v": 127
    },
    {
      "midi": 51,
      "hit": false,
      "t": 50785.66349999999,
      "d": 428.5709999999963,
      "v": 127
    },
    {
      "midi": 63,
      "hit": false,
      "t": 50999.94899999997,
      "d": 428.5709999999963,
      "v": 127
    },
    {
      "midi": 55,
      "hit": false,
      "t": 50999.948999999986,
      "d": 428.5709999999963,
      "v": 127
    },
    {
      "midi": 68,
      "hit": false,
      "t": 51214.23449999997,
      "d": 428.5709999999963,
      "v": 127
    },
    {
      "midi": 51,
      "hit": false,
      "t": 51214.234499999984,
      "d": 428.5709999999963,
      "v": 127
    },
    {
      "midi": 62,
      "hit": false,
      "t": 51428.51999999997,
      "d": 428.5709999999963,
      "v": 127
    },
    {
      "midi": 56,
      "hit": false,
      "t": 51428.51999999998,
      "d": 428.5709999999963,
      "v": 127
    },
    {
      "midi": 63,
      "hit": false,
      "t": 51642.805499999966,
      "d": 428.5709999999963,
      "v": 127
    },
    {
      "midi": 51,
      "hit": false,
      "t": 51642.80549999998,
      "d": 428.5709999999963,
      "v": 127
    },
    {
      "midi": 71,
      "hit": false,
      "t": 51857.090999999964,
      "d": 428.5709999999963,
      "v": 127
    },
    {
      "midi": 47,
      "hit": false,
      "t": 51857.09099999998,
      "d": 428.5709999999963,
      "v": 127
    },
    {
      "midi": 62,
      "hit": false,
      "t": 52071.37649999996,
      "d": 428.5709999999963,
      "v": 127
    },
    {
      "midi": 54,
      "hit": false,
      "t": 52071.37649999998,
      "d": 428.5709999999963,
      "v": 127
    },
    {
      "midi": 66,
      "hit": false,
      "t": 52285.66199999996,
      "d": 428.5709999999963,
      "v": 127
    },
    {
      "midi": 59,
      "hit": false,
      "t": 52285.661999999975,
      "d": 642.8564999999944,
      "v": 127
    },
    {
      "midi": 71,
      "hit": false,
      "t": 52499.94749999996,
      "d": 428.5709999999963,
      "v": 127
    },
    {
      "midi": 64,
      "hit": false,
      "t": 52714.23299999996,
      "d": 428.5709999999963,
      "v": 127
    },
    {
      "midi": 61,
      "hit": false,
      "t": 52714.23299999997,
      "d": 642.8564999999944,
      "v": 127
    },
    {
      "midi": 66,
      "hit": false,
      "t": 52928.518499999955,
      "d": 428.5709999999963,
      "v": 127
    },
    {
      "midi": 71,
      "hit": false,
      "t": 53142.80399999995,
      "d": 428.5709999999963,
      "v": 127
    },
    {
      "midi": 47,
      "hit": false,
      "t": 53142.80399999997,
      "d": 428.5709999999963,
      "v": 127
    },
    {
      "midi": 62,
      "hit": false,
      "t": 53357.08949999995,
      "d": 428.5709999999963,
      "v": 127
    },
    {
      "midi": 54,
      "hit": false,
      "t": 53357.089499999965,
      "d": 428.5709999999963,
      "v": 127
    },
    {
      "midi": 73,
      "hit": false,
      "t": 53571.37499999995,
      "d": 428.5709999999963,
      "v": 127
    },
    {
      "midi": 57,
      "hit": false,
      "t": 53571.37499999996,
      "d": 642.8564999999944,
      "v": 127
    },
    {
      "midi": 62,
      "hit": false,
      "t": 53785.66049999995,
      "d": 428.5709999999963,
      "v": 127
    },
    {
      "midi": 71,
      "hit": false,
      "t": 53999.945999999945,
      "d": 428.5709999999963,
      "v": 127
    },
    {
      "midi": 56,
      "hit": false,
      "t": 53999.94599999996,
      "d": 642.8564999999944,
      "v": 127
    },
    {
      "midi": 62,
      "hit": false,
      "t": 54214.23149999994,
      "d": 428.5709999999963,
      "v": 127
    },
    {
      "midi": 70,
      "hit": false,
      "t": 54428.51699999994,
      "d": 428.5709999999963,
      "v": 127
    },
    {
      "midi": 42,
      "hit": false,
      "t": 54428.516999999956,
      "d": 428.5709999999963,
      "v": 127
    },
    {
      "midi": 58,
      "hit": false,
      "t": 54642.80249999994,
      "d": 428.5709999999963,
      "v": 127
    },
    {
      "midi": 54,
      "hit": false,
      "t": 54642.802499999954,
      "d": 428.5709999999963,
      "v": 127
    },
    {
      "midi": 61,
      "hit": false,
      "t": 54857.08799999994,
      "d": 428.5709999999963,
      "v": 127
    },
    {
      "midi": 56,
      "hit": false,
      "t": 54857.08799999995,
      "d": 642.8564999999944,
      "v": 127
    },
    {
      "midi": 66,
      "hit": false,
      "t": 55071.373499999936,
      "d": 428.5709999999963,
      "v": 127
    },
    {
      "midi": 60,
      "hit": false,
      "t": 55285.658999999934,
      "d": 428.5709999999963,
      "v": 127
    },
    {
      "midi": 54,
      "hit": false,
      "t": 55285.65899999995,
      "d": 428.5709999999963,
      "v": 127
    },
    {
      "midi": 61,
      "hit": false,
      "t": 55499.94449999993,
      "d": 428.5709999999963,
      "v": 127
    },
    {
      "midi": 49,
      "hit": false,
      "t": 55499.94449999995,
      "d": 428.5709999999963,
      "v": 127
    },
    {
      "midi": 66,
      "hit": false,
      "t": 55714.22999999993,
      "d": 428.5709999999963,
      "v": 127
    },
    {
      "midi": 42,
      "hit": false,
      "t": 55714.229999999945,
      "d": 428.5709999999963,
      "v": 127
    },
    {
      "midi": 58,
      "hit": false,
      "t": 55928.51549999993,
      "d": 428.5709999999963,
      "v": 127
    },
    {
      "midi": 54,
      "hit": false,
      "t": 55928.51549999994,
      "d": 428.5709999999963,
      "v": 127
    },
    {
      "midi": 61,
      "hit": false,
      "t": 56142.80099999993,
      "d": 428.5709999999963,
      "v": 127
    },
    {
      "midi": 53,
      "hit": false,
      "t": 56142.80099999994,
      "d": 642.8564999999944,
      "v": 127
    },
    {
      "midi": 66,
      "hit": false,
      "t": 56357.086499999925,
      "d": 428.5709999999963,
      "v": 127
    },
    {
      "midi": 60,
      "hit": false,
      "t": 56571.37199999992,
      "d": 428.5709999999963,
      "v": 127
    },
    {
      "midi": 54,
      "hit": false,
      "t": 56571.37199999994,
      "d": 428.5709999999963,
      "v": 127
    },
    {
      "midi": 61,
      "hit": false,
      "t": 56785.65749999992,
      "d": 428.5709999999963,
      "v": 127
    },
    {
      "midi": 49,
      "hit": false,
      "t": 56785.657499999936,
      "d": 428.5709999999963,
      "v": 127
    },
    {
      "midi": 66,
      "hit": false,
      "t": 56999.94299999992,
      "d": 428.5709999999963,
      "v": 127
    },
    {
      "midi": 42,
      "hit": false,
      "t": 56999.942999999934,
      "d": 428.5709999999963,
      "v": 127
    },
    {
      "midi": 58,
      "hit": false,
      "t": 57214.22849999992,
      "d": 428.5709999999963,
      "v": 127
    },
    {
      "midi": 54,
      "hit": false,
      "t": 57214.22849999993,
      "d": 428.5709999999963,
      "v": 127
    },
    {
      "midi": 61,
      "hit": false,
      "t": 57428.513999999916,
      "d": 428.5709999999963,
      "v": 127
    },
    {
      "midi": 56,
      "hit": false,
      "t": 57428.51399999993,
      "d": 642.8564999999944,
      "v": 127
    },
    {
      "midi": 66,
      "hit": false,
      "t": 57642.799499999914,
      "d": 428.5709999999963,
      "v": 127
    },
    {
      "midi": 60,
      "hit": false,
      "t": 57857.08499999991,
      "d": 428.5709999999963,
      "v": 127
    },
    {
      "midi": 54,
      "hit": false,
      "t": 57857.08499999993,
      "d": 428.5709999999963,
      "v": 127
    },
    {
      "midi": 61,
      "hit": false,
      "t": 58071.37049999991,
      "d": 428.5709999999963,
      "v": 127
    },
    {
      "midi": 49,
      "hit": false,
      "t": 58071.370499999925,
      "d": 428.5709999999963,
      "v": 127
    },
    {
      "midi": 66,
      "hit": false,
      "t": 58285.65599999991,
      "d": 428.5709999999963,
      "v": 127
    },
    {
      "midi": 42,
      "hit": false,
      "t": 58285.65599999992,
      "d": 428.5709999999963,
      "v": 127
    },
    {
      "midi": 58,
      "hit": false,
      "t": 58499.941499999906,
      "d": 428.5709999999963,
      "v": 127
    },
    {
      "midi": 54,
      "hit": false,
      "t": 58499.94149999992,
      "d": 428.5709999999963,
      "v": 127
    },
    {
      "midi": 61,
      "hit": false,
      "t": 58714.226999999904,
      "d": 428.5709999999963,
      "v": 127
    },
    {
      "midi": 53,
      "hit": false,
      "t": 58714.22699999992,
      "d": 642.8564999999944,
      "v": 127
    },
    {
      "midi": 66,
      "hit": false,
      "t": 58928.5124999999,
      "d": 428.5709999999963,
      "v": 127
    },
    {
      "midi": 60,
      "hit": false,
      "t": 59142.7979999999,
      "d": 428.5709999999963,
      "v": 127
    },
    {
      "midi": 54,
      "hit": false,
      "t": 59142.797999999915,
      "d": 428.5709999999963,
      "v": 127
    },
    {
      "midi": 61,
      "hit": false,
      "t": 59357.0834999999,
      "d": 214.28549999999814,
      "v": 127
    },
    {
      "midi": 49,
      "hit": false,
      "t": 59357.08349999991,
      "d": 214.28549999999814,
      "v": 127
    }
  ]
}