{
  "jsonPath": "Classical/Classical Performance/Emil Gilels/3-allegro-ma-non-troppo.json",
  "path": "Classical\\Classical Performance\\Emil Gilels\\3 Allegro ma non troppo.mid",
  "name": "3 Allegro ma non troppo",
  "difficulty": "Advanced",
  "bpm": 120,
  "notes": [
    {
      "midi": 46,
      "hit": false,
      "t": 435.6794083333333,
      "d": 337.3784833333333,
      "v": 78
    },
    {
      "midi": 73,
      "hit": false,
      "t": 435.6794083333333,
      "d": 337.3784833333333,
      "v": 80
    },
    {
      "midi": 64,
      "hit": false,
      "t": 436.893,
      "d": 336.1648916666666,
      "v": 67
    },
    {
      "midi": 55,
      "hit": false,
      "t": 438.10659166666665,
      "d": 334.95129999999995,
      "v": 75
    },
    {
      "midi": 46,
      "hit": false,
      "t": 773.0578916666666,
      "d": 115.29120833333332,
      "v": 78
    },
    {
      "midi": 64,
      "hit": false,
      "t": 773.0578916666666,
      "d": 116.50479999999993,
      "v": 64
    },
    {
      "midi": 55,
      "hit": false,
      "t": 773.0578916666666,
      "d": 117.71839166666655,
      "v": 67
    },
    {
      "midi": 73,
      "hit": false,
      "t": 773.0578916666666,
      "d": 118.93198333333316,
      "v": 80
    },
    {
      "midi": 55,
      "hit": false,
      "t": 893.2034666666664,
      "d": 337.3784833333332,
      "v": 67
    },
    {
      "midi": 73,
      "hit": false,
      "t": 893.2034666666664,
      "d": 338.5920749999998,
      "v": 86
    },
    {
      "midi": 64,
      "hit": false,
      "t": 894.417058333333,
      "d": 334.95129999999995,
      "v": 78
    },
    {
      "midi": 46,
      "hit": false,
      "t": 895.6306499999996,
      "d": 332.5241166666667,
      "v": 84
    },
    {
      "midi": 64,
      "hit": false,
      "t": 1233.0091333333328,
      "d": 110.4368416666664,
      "v": 67
    },
    {
      "midi": 73,
      "hit": false,
      "t": 1233.0091333333328,
      "d": 111.65043333333301,
      "v": 80
    },
    {
      "midi": 46,
      "hit": false,
      "t": 1234.2227249999994,
      "d": 106.79606666666655,
      "v": 72
    },
    {
      "midi": 55,
      "hit": false,
      "t": 1234.2227249999994,
      "d": 108.00965833333316,
      "v": 62
    },
    {
      "midi": 73,
      "hit": false,
      "t": 1345.8731583333324,
      "d": 165.04846666666663,
      "v": 86
    },
    {
      "midi": 55,
      "hit": false,
      "t": 1347.086749999999,
      "d": 163.834875,
      "v": 75
    },
    {
      "midi": 64,
      "hit": false,
      "t": 1347.086749999999,
      "d": 163.834875,
      "v": 83
    },
    {
      "midi": 46,
      "hit": false,
      "t": 1348.3003416666656,
      "d": 162.6212833333334,
      "v": 84
    },
    {
      "midi": 46,
      "hit": false,
      "t": 1510.921624999999,
      "d": 59.465991666666696,
      "v": 67
    },
    {
      "midi": 55,
      "hit": false,
      "t": 1510.921624999999,
      "d": 59.465991666666696,
      "v": 59
    },
    {
      "midi": 64,
      "hit": false,
      "t": 1510.921624999999,
      "d": 60.67958333333331,
      "v": 64
    },
    {
      "midi": 73,
      "hit": false,
      "t": 1510.921624999999,
      "d": 61.89317499999993,
      "v": 80
    },
    {
      "midi": 46,
      "hit": false,
      "t": 1574.0283916666656,
      "d": 165.0484666666664,
      "v": 72
    },
    {
      "midi": 73,
      "hit": false,
      "t": 1575.2419833333322,
      "d": 163.83487499999978,
      "v": 86
    },
    {
      "midi": 55,
      "hit": false,
      "t": 1576.4555749999988,
      "d": 162.62128333333317,
      "v": 75
    },
    {
      "midi": 64,
      "hit": false,
      "t": 1577.6691666666654,
      "d": 161.40769166666655,
      "v": 70
    },
    {
      "midi": 46,
      "hit": false,
      "t": 1739.076858333332,
      "d": 57.038808333333236,
      "v": 72
    },
    {
      "midi": 55,
      "hit": false,
      "t": 1739.076858333332,
      "d": 57.038808333333236,
      "v": 67
    },
    {
      "midi": 64,
      "hit": false,
      "t": 1739.076858333332,
      "d": 57.038808333333236,
      "v": 70
    },
    {
      "midi": 73,
      "hit": false,
      "t": 1739.076858333332,
      "d": 57.038808333333236,
      "v": 80
    },
    {
      "midi": 46,
      "hit": false,
      "t": 1796.1156666666652,
      "d": 168.6892416666667,
      "v": 67
    },
    {
      "midi": 55,
      "hit": false,
      "t": 1796.1156666666652,
      "d": 168.6892416666667,
      "v": 59
    },
    {
      "midi": 64,
      "hit": false,
      "t": 1796.1156666666652,
      "d": 168.6892416666667,
      "v": 70
    },
    {
      "midi": 73,
      "hit": false,
      "t": 1796.1156666666652,
      "d": 168.6892416666667,
      "v": 80
    },
    {
      "midi": 46,
      "hit": false,
      "t": 1964.804908333332,
      "d": 57.038808333333236,
      "v": 78
    },
    {
      "midi": 55,
      "hit": false,
      "t": 1964.804908333332,
      "d": 57.038808333333236,
      "v": 56
    },
    {
      "midi": 64,
      "hit": false,
      "t": 1964.804908333332,
      "d": 57.038808333333236,
      "v": 70
    },
    {
      "midi": 73,
      "hit": false,
      "t": 1964.804908333332,
      "d": 57.038808333333236,
      "v": 80
    },
    {
      "midi": 46,
      "hit": false,
      "t": 2021.8437166666652,
      "d": 171.11642499999994,
      "v": 67
    },
    {
      "midi": 55,
      "hit": false,
      "t": 2021.8437166666652,
      "d": 171.11642499999994,
      "v": 59
    },
    {
      "midi": 64,
      "hit": false,
      "t": 2021.8437166666652,
      "d": 171.11642499999994,
      "v": 75
    },
    {
      "midi": 73,
      "hit": false,
      "t": 2021.8437166666652,
      "d": 171.11642499999994,
      "v": 86
    },
    {
      "midi": 73,
      "hit": false,
      "t": 2196.600916666665,
      "d": 53.39803333333339,
      "v": 80
    },
    {
      "midi": 64,
      "hit": false,
      "t": 2197.8145083333316,
      "d": 52.18444166666677,
      "v": 75
    },
    {
      "midi": 46,
      "hit": false,
      "t": 2199.028099999998,
      "d": 50.970850000000155,
      "v": 84
    },
    {
      "midi": 55,
      "hit": false,
      "t": 2199.028099999998,
      "d": 50.970850000000155,
      "v": 70
    },
    {
      "midi": 46,
      "hit": false,
      "t": 2249.9989499999983,
      "d": 226.94164166666678,
      "v": 84
    },
    {
      "midi": 55,
      "hit": false,
      "t": 2249.9989499999983,
      "d": 226.94164166666678,
      "v": 80
    },
    {
      "midi": 64,
      "hit": false,
      "t": 2249.9989499999983,
      "d": 226.94164166666678,
      "v": 100
    },
    {
      "midi": 73,
      "hit": false,
      "t": 2249.9989499999983,
      "d": 226.94164166666678,
      "v": 94
    },
    {
      "midi": 85,
      "hit": false,
      "t": 2591.0182083333316,
      "d": 59.46599166666647,
      "v": 47
    },
    {
      "midi": 84,
      "hit": false,
      "t": 2651.6977916666647,
      "d": 53.39803333333339,
      "v": 44
    },
    {
      "midi": 82,
      "hit": false,
      "t": 2705.095824999998,
      "d": 57.038808333333236,
      "v": 50
    },
    {
      "midi": 84,
      "hit": false,
      "t": 2762.1346333333313,
      "d": 58.25239999999985,
      "v": 47
    },
    {
      "midi": 82,
      "hit": false,
      "t": 2821.6006249999978,
      "d": 52.18444166666677,
      "v": 50
    },
    {
      "midi": 80,
      "hit": false,
      "t": 2877.4258416666644,
      "d": 53.39803333333339,
      "v": 47
    },
    {
      "midi": 79,
      "hit": false,
      "t": 2934.4646499999976,
      "d": 53.39803333333339,
      "v": 59
    },
    {
      "midi": 80,
      "hit": false,
      "t": 2990.2898666666642,
      "d": 57.038808333333236,
      "v": 50
    },
    {
      "midi": 79,
      "hit": false,
      "t": 3048.542266666664,
      "d": 54.611625000000004,
      "v": 50
    },
    {
      "midi": 77,
      "hit": false,
      "t": 3103.153891666664,
      "d": 54.611625000000004,
      "v": 44
    },
    {
      "midi": 76,
      "hit": false,
      "t": 3162.6198833333306,
      "d": 225.72805000000017,
      "v": 59
    },
    {
      "midi": 73,
      "hit": false,
      "t": 3499.998366666664,
      "d": 63.10676666666677,
      "v": 55
    },
    {
      "midi": 72,
      "hit": false,
      "t": 3563.1051333333307,
      "d": 50.970850000000155,
      "v": 47
    },
    {
      "midi": 70,
      "hit": false,
      "t": 3614.075983333331,
      "d": 57.038808333333236,
      "v": 63
    },
    {
      "midi": 72,
      "hit": false,
      "t": 3671.114791666664,
      "d": 57.038808333333236,
      "v": 50
    },
    {
      "midi": 70,
      "hit": false,
      "t": 3728.1535999999974,
      "d": 57.038808333333236,
      "v": 55
    },
    {
      "midi": 68,
      "hit": false,
      "t": 3785.1924083333306,
      "d": 55.82521666666662,
      "v": 50
    },
    {
      "midi": 67,
      "hit": false,
      "t": 3843.4448083333305,
      "d": 54.611625000000004,
      "v": 56
    },
    {
      "midi": 68,
      "hit": false,
      "t": 3900.4836166666637,
      "d": 53.39803333333339,
      "v": 55
    },
    {
      "midi": 67,
      "hit": false,
      "t": 3956.3088333333303,
      "d": 55.82521666666662,
      "v": 50
    },
    {
      "midi": 65,
      "hit": false,
      "t": 4014.56123333333,
      "d": 57.038808333333236,
      "v": 52
    },
    {
      "midi": 64,
      "hit": false,
      "t": 4072.81363333333,
      "d": 224.51445833333355,
      "v": 60
    },
    {
      "midi": 73,
      "hit": false,
      "t": 4410.192116666663,
      "d": 55.825216666667075,
      "v": 35
    },
    {
      "midi": 72,
      "hit": false,
      "t": 4466.0173333333305,
      "d": 57.03880833333369,
      "v": 47
    },
    {
      "midi": 70,
      "hit": false,
      "t": 4523.056141666664,
      "d": 58.25240000000031,
      "v": 55
    },
    {
      "midi": 72,
      "hit": false,
      "t": 4583.735724999998,
      "d": 53.39803333333293,
      "v": 52
    },
    {
      "midi": 70,
      "hit": false,
      "t": 4637.133758333331,
      "d": 57.03880833333369,
      "v": 50
    },
    {
      "midi": 68,
      "hit": false,
      "t": 4694.172566666664,
      "d": 57.03880833333369,
      "v": 55
    },
    {
      "midi": 67,
      "hit": false,
      "t": 4751.211374999998,
      "d": 54.61162499999955,
      "v": 62
    },
    {
      "midi": 68,
      "hit": false,
      "t": 4805.822999999998,
      "d": 55.825216666667075,
      "v": 58
    },
    {
      "midi": 67,
      "hit": false,
      "t": 4866.502583333331,
      "d": 52.18444166666632,
      "v": 59
    },
    {
      "midi": 65,
      "hit": false,
      "t": 4921.114208333331,
      "d": 55.825216666667075,
      "v": 59
    },
    {
      "midi": 64,
      "hit": false,
      "t": 4980.580199999998,
      "d": 54.61162499999955,
      "v": 67
    },
    {
      "midi": 65,
      "hit": false,
      "t": 5035.191824999997,
      "d": 54.61162499999955,
      "v": 59
    },
    {
      "midi": 64,
      "hit": false,
      "t": 5094.657816666663,
      "d": 52.18444166666632,
      "v": 58
    },
    {
      "midi": 61,
      "hit": false,
      "t": 5149.269441666663,
      "d": 55.825216666667075,
      "v": 63
    },
    {
      "midi": 60,
      "hit": false,
      "t": 5206.308249999996,
      "d": 54.61162499999955,
      "v": 56
    },
    {
      "midi": 61,
      "hit": false,
      "t": 5260.919874999996,
      "d": 57.03880833333369,
      "v": 59
    },
    {
      "midi": 60,
      "hit": false,
      "t": 5317.95868333333,
      "d": 57.03880833333369,
      "v": 52
    },
    {
      "midi": 59,
      "hit": false,
      "t": 5374.997491666663,
      "d": 57.03880833333369,
      "v": 60
    },
    {
      "midi": 58,
      "hit": false,
      "t": 5432.036299999997,
      "d": 57.03880833333369,
      "v": 63
    },
    {
      "midi": 60,
      "hit": false,
      "t": 5491.502291666664,
      "d": 55.825216666667075,
      "v": 56
    },
    {
      "midi": 58,
      "hit": false,
      "t": 5548.541099999998,
      "d": 53.39803333333293,
      "v": 63
    },
    {
      "midi": 56,
      "hit": false,
      "t": 5601.939133333331,
      "d": 58.25240000000031,
      "v": 67
    },
    {
      "midi": 55,
      "hit": false,
      "t": 5660.191533333331,
      "d": 57.03880833333369,
      "v": 70
    },
    {
      "midi": 56,
      "hit": false,
      "t": 5717.230341666665,
      "d": 55.825216666667075,
      "v": 67
    },
    {
      "midi": 55,
      "hit": false,
      "t": 5773.055558333332,
      "d": 54.61162499999955,
      "v": 67
    },
    {
      "midi": 53,
      "hit": false,
      "t": 5828.880774999998,
      "d": 58.25240000000031,
      "v": 66
    },
    {
      "midi": 52,
      "hit": false,
      "t": 5889.560358333331,
      "d": 53.39803333333293,
      "v": 67
    },
    {
      "midi": 53,
      "hit": false,
      "t": 5944.171983333331,
      "d": 57.03880833333369,
      "v": 66
    },
    {
      "midi": 52,
      "hit": false,
      "t": 6001.210791666665,
      "d": 55.825216666667075,
      "v": 67
    },
    {
      "midi": 49,
      "hit": false,
      "t": 6060.6767833333315,
      "d": 52.18444166666632,
      "v": 68
    },
    {
      "midi": 36,
      "hit": false,
      "t": 6115.288408333331,
      "d": 54.61162499999955,
      "v": 56
    },
    {
      "midi": 48,
      "hit": false,
      "t": 6115.288408333331,
      "d": 54.61162499999955,
      "v": 62
    },
    {
      "midi": 37,
      "hit": false,
      "t": 6172.327216666664,
      "d": 55.825216666667075,
      "v": 44
    },
    {
      "midi": 49,
      "hit": false,
      "t": 6172.327216666664,
      "d": 57.03880833333369,
      "v": 58
    },
    {
      "midi": 48,
      "hit": false,
      "t": 6230.579616666664,
      "d": 55.825216666666165,
      "v": 50
    },
    {
      "midi": 36,
      "hit": false,
      "t": 6231.793208333331,
      "d": 53.39803333333293,
      "v": 44
    },
    {
      "midi": 35,
      "hit": false,
      "t": 6287.618424999997,
      "d": 53.39803333333293,
      "v": 39
    },
    {
      "midi": 47,
      "hit": false,
      "t": 6287.618424999997,
      "d": 53.39803333333293,
      "v": 44
    },
    {
      "midi": 36,
      "hit": false,
      "t": 6341.01645833333,
      "d": 57.03880833333369,
      "v": 59
    },
    {
      "midi": 48,
      "hit": false,
      "t": 6341.01645833333,
      "d": 57.03880833333369,
      "v": 70
    },
    {
      "midi": 37,
      "hit": false,
      "t": 6398.055266666664,
      "d": 57.03880833333369,
      "v": 50
    },
    {
      "midi": 49,
      "hit": false,
      "t": 6398.055266666664,
      "d": 57.03880833333369,
      "v": 58
    },
    {
      "midi": 36,
      "hit": false,
      "t": 6455.094074999997,
      "d": 58.25240000000031,
      "v": 59
    },
    {
      "midi": 48,
      "hit": false,
      "t": 6455.094074999997,
      "d": 59.46599166666692,
      "v": 50
    },
    {
      "midi": 35,
      "hit": false,
      "t": 6515.773658333331,
      "d": 52.18444166666632,
      "v": 47
    },
    {
      "midi": 47,
      "hit": false,
      "t": 6515.773658333331,
      "d": 52.18444166666632,
      "v": 47
    },
    {
      "midi": 36,
      "hit": false,
      "t": 6567.958099999997,
      "d": 59.46599166666692,
      "v": 70
    },
    {
      "midi": 48,
      "hit": false,
      "t": 6567.958099999997,
      "d": 60.67958333333354,
      "v": 70
    },
    {
      "midi": 49,
      "hit": false,
      "t": 6631.064866666664,
      "d": 50.9708499999997,
      "v": 55
    },
    {
      "midi": 37,
      "hit": false,
      "t": 6632.2784583333305,
      "d": 49.757258333333084,
      "v": 58
    },
    {
      "midi": 36,
      "hit": false,
      "t": 6682.035716666664,
      "d": 57.03880833333369,
      "v": 59
    },
    {
      "midi": 48,
      "hit": false,
      "t": 6682.035716666664,
      "d": 58.25240000000031,
      "v": 56
    },
    {
      "midi": 35,
      "hit": false,
      "t": 6741.5017083333305,
      "d": 52.18444166666632,
      "v": 47
    },
    {
      "midi": 47,
      "hit": false,
      "t": 6741.5017083333305,
      "d": 52.18444166666632,
      "v": 52
    },
    {
      "midi": 36,
      "hit": false,
      "t": 6798.540516666663,
      "d": 52.18444166666632,
      "v": 67
    },
    {
      "midi": 48,
      "hit": false,
      "t": 6798.540516666663,
      "d": 52.18444166666632,
      "v": 59
    },
    {
      "midi": 37,
      "hit": false,
      "t": 6853.152141666663,
      "d": 54.61162499999955,
      "v": 50
    },
    {
      "midi": 49,
      "hit": false,
      "t": 6853.152141666663,
      "d": 54.61162499999955,
      "v": 55
    },
    {
      "midi": 36,
      "hit": false,
      "t": 6908.977358333329,
      "d": 58.25240000000031,
      "v": 56
    },
    {
      "midi": 48,
      "hit": false,
      "t": 6908.977358333329,
      "d": 59.46599166666692,
      "v": 56
    },
    {
      "midi": 47,
      "hit": false,
      "t": 6968.443349999996,
      "d": 55.825216666666165,
      "v": 52
    },
    {
      "midi": 35,
      "hit": false,
      "t": 6969.6569416666625,
      "d": 53.39803333333293,
      "v": 47
    },
    {
      "midi": 36,
      "hit": false,
      "t": 7026.695749999995,
      "d": 50.9708499999997,
      "v": 59
    },
    {
      "midi": 48,
      "hit": false,
      "t": 7026.695749999995,
      "d": 50.9708499999997,
      "v": 59
    },
    {
      "midi": 49,
      "hit": false,
      "t": 7082.5209666666615,
      "d": 55.825216666666165,
      "v": 58
    },
    {
      "midi": 37,
      "hit": false,
      "t": 7083.734558333328,
      "d": 53.39803333333293,
      "v": 55
    },
    {
      "midi": 48,
      "hit": false,
      "t": 7139.559774999994,
      "d": 55.825216666666165,
      "v": 62
    },
    {
      "midi": 36,
      "hit": false,
      "t": 7140.773366666661,
      "d": 53.39803333333293,
      "v": 62
    },
    {
      "midi": 47,
      "hit": false,
      "t": 7196.598583333327,
      "d": 55.825216666666165,
      "v": 62
    },
    {
      "midi": 35,
      "hit": false,
      "t": 7197.812174999994,
      "d": 53.39803333333293,
      "v": 44
    },
    {
      "midi": 46,
      "hit": false,
      "t": 7253.63739166666,
      "d": 52.18444166666632,
      "v": 78
    },
    {
      "midi": 34,
      "hit": false,
      "t": 7254.850983333326,
      "d": 50.9708499999997,
      "v": 58
    },
    {
      "midi": 36,
      "hit": false,
      "t": 7305.821833333326,
      "d": 58.25240000000031,
      "v": 44
    },
    {
      "midi": 48,
      "hit": false,
      "t": 7305.821833333326,
      "d": 58.25240000000031,
      "v": 59
    },
    {
      "midi": 34,
      "hit": false,
      "t": 7364.074233333326,
      "d": 57.03880833333369,
      "v": 47
    },
    {
      "midi": 46,
      "hit": false,
      "t": 7364.074233333326,
      "d": 57.03880833333369,
      "v": 67
    },
    {
      "midi": 33,
      "hit": false,
      "t": 7421.11304166666,
      "d": 58.25240000000031,
      "v": 44
    },
    {
      "midi": 45,
      "hit": false,
      "t": 7421.11304166666,
      "d": 59.46599166666692,
      "v": 62
    },
    {
      "midi": 46,
      "hit": false,
      "t": 7480.579033333327,
      "d": 53.39803333333293,
      "v": 72
    },
    {
      "midi": 34,
      "hit": false,
      "t": 7481.792624999994,
      "d": 52.18444166666632,
      "v": 63
    },
    {
      "midi": 36,
      "hit": false,
      "t": 7533.97706666666,
      "d": 58.25240000000031,
      "v": 47
    },
    {
      "midi": 48,
      "hit": false,
      "t": 7533.97706666666,
      "d": 59.46599166666692,
      "v": 59
    },
    {
      "midi": 46,
      "hit": false,
      "t": 7594.6566499999935,
      "d": 53.39803333333293,
      "v": 67
    },
    {
      "midi": 34,
      "hit": false,
      "t": 7595.87024166666,
      "d": 52.18444166666632,
      "v": 58
    },
    {
      "midi": 33,
      "hit": false,
      "t": 7648.0546833333265,
      "d": 57.03880833333369,
      "v": 50
    },
    {
      "midi": 45,
      "hit": false,
      "t": 7648.0546833333265,
      "d": 57.03880833333369,
      "v": 62
    },
    {
      "midi": 46,
      "hit": false,
      "t": 7706.307083333327,
      "d": 53.39803333333293,
      "v": 72
    },
    {
      "midi": 34,
      "hit": false,
      "t": 7707.520674999993,
      "d": 52.18444166666632,
      "v": 55
    },
    {
      "midi": 36,
      "hit": false,
      "t": 7764.559483333326,
      "d": 52.18444166666632,
      "v": 47
    },
    {
      "midi": 48,
      "hit": false,
      "t": 7764.559483333326,
      "d": 52.18444166666632,
      "v": 59
    },
    {
      "midi": 34,
      "hit": false,
      "t": 7819.171108333326,
      "d": 54.61162499999955,
      "v": 47
    },
    {
      "midi": 46,
      "hit": false,
      "t": 7819.171108333326,
      "d": 57.03880833333278,
      "v": 67
    },
    {
      "midi": 45,
      "hit": false,
      "t": 7878.637099999992,
      "d": 54.61162499999955,
      "v": 62
    },
    {
      "midi": 33,
      "hit": false,
      "t": 7879.850691666658,
      "d": 52.18444166666632,
      "v": 50
    },
    {
      "midi": 46,
      "hit": false,
      "t": 7934.462316666658,
      "d": 55.825216666666165,
      "v": 84
    },
    {
      "midi": 34,
      "hit": false,
      "t": 7935.6759083333245,
      "d": 54.61162499999955,
      "v": 68
    },
    {
      "midi": 48,
      "hit": false,
      "t": 7991.501124999991,
      "d": 53.39803333333293,
      "v": 67
    },
    {
      "midi": 36,
      "hit": false,
      "t": 7992.714716666657,
      "d": 52.18444166666632,
      "v": 52
    },
    {
      "midi": 34,
      "hit": false,
      "t": 8048.5399333333235,
      "d": 53.39803333333293,
      "v": 58
    },
    {
      "midi": 46,
      "hit": false,
      "t": 8048.5399333333235,
      "d": 53.39803333333293,
      "v": 72
    },
    {
      "midi": 33,
      "hit": false,
      "t": 8101.937966666656,
      "d": 58.25240000000031,
      "v": 52
    },
    {
      "midi": 45,
      "hit": false,
      "t": 8101.937966666656,
      "d": 59.46599166666692,
      "v": 62
    },
    {
      "midi": 46,
      "hit": false,
      "t": 8162.61754999999,
      "d": 53.39803333333293,
      "v": 72
    },
    {
      "midi": 34,
      "hit": false,
      "t": 8163.831141666657,
      "d": 52.18444166666632,
      "v": 68
    },
    {
      "midi": 36,
      "hit": false,
      "t": 8216.015583333323,
      "d": 57.03880833333278,
      "v": 50
    },
    {
      "midi": 48,
      "hit": false,
      "t": 8216.015583333323,
      "d": 57.03880833333278,
      "v": 50
    },
    {
      "midi": 34,
      "hit": false,
      "t": 8273.054391666656,
      "d": 55.825216666666165,
      "v": 50
    },
    {
      "midi": 46,
      "hit": false,
      "t": 8273.054391666656,
      "d": 55.825216666666165,
      "v": 54
    },
    {
      "midi": 33,
      "hit": false,
      "t": 8328.879608333322,
      "d": 57.03880833333278,
      "v": 50
    },
    {
      "midi": 45,
      "hit": false,
      "t": 8328.879608333322,
      "d": 57.03880833333278,
      "v": 56
    },
    {
      "midi": 34,
      "hit": false,
      "t": 8385.918416666655,
      "d": 58.2523999999994,
      "v": 63
    },
    {
      "midi": 46,
      "hit": false,
      "t": 8385.918416666655,
      "d": 59.465991666666014,
      "v": 62
    },
    {
      "midi": 48,
      "hit": false,
      "t": 8446.597999999987,
      "d": 53.39803333333293,
      "v": 52
    },
    {
      "midi": 36,
      "hit": false,
      "t": 8447.811591666654,
      "d": 52.18444166666632,
      "v": 52
    },
    {
      "midi": 34,
      "hit": false,
      "t": 8499.99603333332,
      "d": 57.03880833333278,
      "v": 55
    },
    {
      "midi": 46,
      "hit": false,
      "t": 8499.99603333332,
      "d": 57.03880833333278,
      "v": 62
    },
    {
      "midi": 33,
      "hit": false,
      "t": 8557.034841666653,
      "d": 57.03880833333278,
      "v": 47
    },
    {
      "midi": 45,
      "hit": false,
      "t": 8557.034841666653,
      "d": 57.03880833333278,
      "v": 62
    },
    {
      "midi": 34,
      "hit": false,
      "t": 8614.073649999986,
      "d": 57.03880833333278,
      "v": 63
    },
    {
      "midi": 46,
      "hit": false,
      "t": 8614.073649999986,
      "d": 57.03880833333278,
      "v": 72
    },
    {
      "midi": 43,
      "hit": false,
      "t": 8672.326049999985,
      "d": 53.39803333333293,
      "v": 67
    },
    {
      "midi": 31,
      "hit": false,
      "t": 8673.539641666652,
      "d": 52.18444166666632,
      "v": 52
    },
    {
      "midi": 44,
      "hit": false,
      "t": 8730.578449999985,
      "d": 52.18444166666632,
      "v": 74
    },
    {
      "midi": 32,
      "hit": false,
      "t": 8731.792041666651,
      "d": 50.9708499999997,
      "v": 63
    },
    {
      "midi": 34,
      "hit": false,
      "t": 8785.190074999984,
      "d": 54.61162499999955,
      "v": 63
    },
    {
      "midi": 46,
      "hit": false,
      "t": 8785.190074999984,
      "d": 55.825216666666165,
      "v": 78
    },
    {
      "midi": 48,
      "hit": false,
      "t": 8843.442474999983,
      "d": 53.39803333333293,
      "v": 70
    },
    {
      "midi": 36,
      "hit": false,
      "t": 8844.65606666665,
      "d": 52.18444166666632,
      "v": 67
    },
    {
      "midi": 46,
      "hit": false,
      "t": 8900.481283333316,
      "d": 53.39803333333293,
      "v": 78
    },
    {
      "midi": 34,
      "hit": false,
      "t": 8902.90846666665,
      "d": 50.9708499999997,
      "v": 55
    },
    {
      "midi": 44,
      "hit": false,
      "t": 8957.520091666649,
      "d": 52.18444166666632,
      "v": 80
    },
    {
      "midi": 32,
      "hit": false,
      "t": 8958.733683333316,
      "d": 50.9708499999997,
      "v": 68
    },
    {
      "midi": 31,
      "hit": false,
      "t": 9012.131716666649,
      "d": 55.825216666666165,
      "v": 70
    },
    {
      "midi": 43,
      "hit": false,
      "t": 9012.131716666649,
      "d": 57.03880833333278,
      "v": 75
    },
    {
      "midi": 29,
      "hit": false,
      "t": 9071.597708333315,
      "d": 225.7280499999979,
      "v": 75
    },
    {
      "midi": 48,
      "hit": false,
      "t": 9124.995741666648,
      "d": 58.2523999999994,
      "v": 41
    },
    {
      "midi": 53,
      "hit": false,
      "t": 9184.461733333314,
      "d": 53.39803333333293,
      "v": 40
    },
    {
      "midi": 56,
      "hit": false,
      "t": 9237.859766666646,
      "d": 58.2523999999994,
      "v": 54
    },
    {
      "midi": 60,
      "hit": false,
      "t": 9298.53934999998,
      "d": 53.39803333333293,
      "v": 47
    },
    {
      "midi": 61,
      "hit": false,
      "t": 9351.937383333312,
      "d": 58.2523999999994,
      "v": 51
    },
    {
      "midi": 60,
      "hit": false,
      "t": 9411.403374999978,
      "d": 54.61162499999955,
      "v": 44
    },
    {
      "midi": 58,
      "hit": false,
      "t": 9466.014999999978,
      "d": 57.03880833333278,
      "v": 47
    },
    {
      "midi": 56,
      "hit": false,
      "t": 9523.05380833331,
      "d": 57.03880833333278,
      "v": 59
    },
    {
      "midi": 58,
      "hit": false,
      "t": 9580.092616666643,
      "d": 55.825216666666165,
      "v": 50
    },
    {
      "midi": 56,
      "hit": false,
      "t": 9640.772199999976,
      "d": 52.18444166666632,
      "v": 48
    },
    {
      "midi": 55,
      "hit": false,
      "t": 9694.170233333309,
      "d": 54.61162499999955,
      "v": 50
    },
    {
      "midi": 53,
      "hit": false,
      "t": 9751.209041666641,
      "d": 54.61162499999955,
      "v": 56
    },
    {
      "midi": 55,
      "hit": false,
      "t": 9808.247849999974,
      "d": 53.39803333333293,
      "v": 32
    },
    {
      "midi": 56,
      "hit": false,
      "t": 9866.500249999974,
      "d": 52.18444166666632,
      "v": 48
    },
    {
      "midi": 53,
      "hit": false,
      "t": 9923.539058333306,
      "d": 52.18444166666632,
      "v": 51
    },
    {
      "midi": 41,
      "hit": false,
      "t": 9924.752649999973,
      "d": 50.9708499999997,
      "v": 60
    },
    {
      "midi": 29,
      "hit": false,
      "t": 9978.150683333306,
      "d": 225.7280499999979,
      "v": 86
    },
    {
      "midi": 48,
      "hit": false,
      "t": 10035.189491666639,
      "d": 54.61162499999955,
      "v": 44
    },
    {
      "midi": 53,
      "hit": false,
      "t": 10089.801116666638,
      "d": 58.2523999999994,
      "v": 48
    },
    {
      "midi": 56,
      "hit": false,
      "t": 10151.694291666638,
      "d": 52.18444166666632,
      "v": 54
    },
    {
      "midi": 60,
      "hit": false,
      "t": 10203.878733333304,
      "d": 57.03880833333278,
      "v": 59
    },
    {
      "midi": 61,
      "hit": false,
      "t": 10260.917541666637,
      "d": 57.03880833333278,
      "v": 51
    },
    {
      "midi": 60,
      "hit": false,
      "t": 10317.95634999997,
      "d": 58.2523999999994,
      "v": 50
    },
    {
      "midi": 58,
      "hit": false,
      "t": 10377.422341666635,
      "d": 54.61162499999955,
      "v": 44
    },
    {
      "midi": 56,
      "hit": false,
      "t": 10432.033966666635,
      "d": 57.03880833333278,
      "v": 51
    },
    {
      "midi": 58,
      "hit": false,
      "t": 10489.072774999968,
      "d": 57.03880833333278,
      "v": 44
    },
    {
      "midi": 56,
      "hit": false,
      "t": 10546.1115833333,
      "d": 55.825216666666165,
      "v": 39
    },
    {
      "midi": 55,
      "hit": false,
      "t": 10601.936799999967,
      "d": 54.61162499999955,
      "v": 50
    },
    {
      "midi": 53,
      "hit": false,
      "t": 10661.402791666633,
      "d": 52.18444166666632,
      "v": 51
    },
    {
      "midi": 55,
      "hit": false,
      "t": 10716.014416666632,
      "d": 55.825216666666165,
      "v": 50
    },
    {
      "midi": 56,
      "hit": false,
      "t": 10773.053224999965,
      "d": 55.825216666666165,
      "v": 54
    },
    {
      "midi": 53,
      "hit": false,
      "t": 10831.305624999964,
      "d": 53.398033333331114,
      "v": 56
    },
    {
      "midi": 41,
      "hit": false,
      "t": 10832.519216666631,
      "d": 52.1844416666645,
      "v": 63
    },
    {
      "midi": 34,
      "hit": false,
      "t": 10889.558024999962,
      "d": 225.72804999999607,
      "v": 80
    },
    {
      "midi": 49,
      "hit": false,
      "t": 10944.169649999962,
      "d": 55.825216666664346,
      "v": 47
    },
    {
      "midi": 54,
      "hit": false,
      "t": 11003.635641666626,
      "d": 52.18444166666632,
      "v": 55
    },
    {
      "midi": 58,
      "hit": false,
      "t": 11055.820083333292,
      "d": 58.2523999999994,
      "v": 40
    },
    {
      "midi": 61,
      "hit": false,
      "t": 11116.499666666625,
      "d": 53.39803333333293,
      "v": 59
    },
    {
      "midi": 63,
      "hit": false,
      "t": 11169.897699999958,
      "d": 58.2523999999994,
      "v": 58
    },
    {
      "midi": 61,
      "hit": false,
      "t": 11229.363691666624,
      "d": 54.61162499999955,
      "v": 54
    },
    {
      "midi": 60,
      "hit": false,
      "t": 11283.975316666623,
      "d": 58.2523999999994,
      "v": 44
    },
    {
      "midi": 58,
      "hit": false,
      "t": 11343.44130833329,
      "d": 54.61162499999955,
      "v": 55
    },
    {
      "midi": 60,
      "hit": false,
      "t": 11398.052933333289,
      "d": 57.03880833333278,
      "v": 52
    },
    {
      "midi": 58,
      "hit": false,
      "t": 11455.091741666622,
      "d": 57.03880833333278,
      "v": 44
    },
    {
      "midi": 56,
      "hit": false,
      "t": 11512.130549999954,
      "d": 55.825216666666165,
      "v": 54
    },
    {
      "midi": 54,
      "hit": false,
      "t": 11567.95576666662,
      "d": 57.03880833333278,
      "v": 55
    },
    {
      "midi": 56,
      "hit": false,
      "t": 11627.421758333287,
      "d": 52.18444166666632,
      "v": 44
    },
    {
      "midi": 54,
      "hit": false,
      "t": 11682.033383333286,
      "d": 55.825216666666165,
      "v": 50
    },
    {
      "midi": 37,
      "hit": false,
      "t": 11739.072191666619,
      "d": 57.03880833333278,
      "v": 74
    },
    {
      "midi": 53,
      "hit": false,
      "t": 11739.072191666619,
      "d": 58.2523999999994,
      "v": 51
    },
    {
      "midi": 52,
      "hit": false,
      "t": 11797.324591666618,
      "d": 55.825216666666165,
      "v": 59
    },
    {
      "midi": 36,
      "hit": false,
      "t": 11798.538183333285,
      "d": 53.39803333333293,
      "v": 86
    },
    {
      "midi": 53,
      "hit": false,
      "t": 11853.149808333284,
      "d": 58.2523999999994,
      "v": 56
    },
    {
      "midi": 55,
      "hit": false,
      "t": 11912.61579999995,
      "d": 53.39803333333293,
      "v": 47
    },
    {
      "midi": 52,
      "hit": false,
      "t": 11967.22742499995,
      "d": 54.61162499999955,
      "v": 52
    },
    {
      "midi": 37,
      "hit": false,
      "t": 12021.83904999995,
      "d": 58.2523999999994,
      "v": 74
    },
    {
      "midi": 53,
      "hit": false,
      "t": 12021.83904999995,
      "d": 59.465991666666014,
      "v": 60
    },
    {
      "midi": 55,
      "hit": false,
      "t": 12082.518633333282,
      "d": 52.18444166666632,
      "v": 44
    },
    {
      "midi": 56,
      "hit": false,
      "t": 12134.703074999949,
      "d": 58.2523999999994,
      "v": 51
    },
    {
      "midi": 53,
      "hit": false,
      "t": 12192.955474999948,
      "d": 58.2523999999994,
      "v": 54
    },
    {
      "midi": 55,
      "hit": false,
      "t": 12252.421466666614,
      "d": 57.03880833333278,
      "v": 62
    },
    {
      "midi": 34,
      "hit": false,
      "t": 12253.63505833328,
      "d": 54.61162499999955,
      "v": 80
    },
    {
      "midi": 56,
      "hit": false,
      "t": 12310.673866666613,
      "d": 52.18444166666632,
      "v": 59
    },
    {
      "midi": 58,
      "hit": false,
      "t": 12362.85830833328,
      "d": 57.03880833333278,
      "v": 58
    },
    {
      "midi": 55,
      "hit": false,
      "t": 12419.897116666612,
      "d": 57.03880833333278,
      "v": 52
    },
    {
      "midi": 36,
      "hit": false,
      "t": 12476.935924999945,
      "d": 57.03880833333278,
      "v": 70
    },
    {
      "midi": 52,
      "hit": false,
      "t": 12476.935924999945,
      "d": 57.03880833333278,
      "v": 59
    },
    {
      "midi": 53,
      "hit": false,
      "t": 12536.401916666611,
      "d": 53.39803333333293,
      "v": 60
    },
    {
      "midi": 55,
      "hit": false,
      "t": 12592.227133333277,
      "d": 53.39803333333293,
      "v": 50
    },
    {
      "midi": 52,
      "hit": false,
      "t": 12650.479533333277,
      "d": 53.39803333333293,
      "v": 56
    },
    {
      "midi": 53,
      "hit": false,
      "t": 12705.091158333276,
      "d": 57.03880833333278,
      "v": 60
    },
    {
      "midi": 41,
      "hit": false,
      "t": 12705.091158333276,
      "d": 226.9416416666645,
      "v": 84
    },
    {
      "midi": 29,
      "hit": false,
      "t": 12705.091158333276,
      "d": 228.15523333333113,
      "v": 80
    },
    {
      "midi": 48,
      "hit": false,
      "t": 12762.12996666661,
      "d": 55.825216666666165,
      "v": 44
    },
    {
      "midi": 53,
      "hit": false,
      "t": 12819.168774999942,
      "d": 54.61162499999955,
      "v": 51
    },
    {
      "midi": 56,
      "hit": false,
      "t": 12877.421174999941,
      "d": 53.39803333333293,
      "v": 59
    },
    {
      "midi": 60,
      "hit": false,
      "t": 12935.67357499994,
      "d": 54.61162499999955,
      "v": 67
    },
    {
      "midi": 61,
      "hit": false,
      "t": 12991.498791666607,
      "d": 54.61162499999955,
      "v": 62
    },
    {
      "midi": 60,
      "hit": false,
      "t": 13047.324008333273,
      "d": 54.61162499999955,
      "v": 56
    },
    {
      "midi": 58,
      "hit": false,
      "t": 13101.935633333273,
      "d": 55.825216666666165,
      "v": 55
    },
    {
      "midi": 68,
      "hit": false,
      "t": 13101.935633333273,
      "d": 55.825216666666165,
      "v": 74
    },
    {
      "midi": 72,
      "hit": false,
      "t": 13101.935633333273,
      "d": 55.825216666666165,
      "v": 70
    },
    {
      "midi": 56,
      "hit": false,
      "t": 13157.760849999939,
      "d": 58.2523999999994,
      "v": 62
    },
    {
      "midi": 68,
      "hit": false,
      "t": 13157.760849999939,
      "d": 228.15523333333294,
      "v": 68
    },
    {
      "midi": 72,
      "hit": false,
      "t": 13157.760849999939,
      "d": 228.15523333333294,
      "v": 70
    },
    {
      "midi": 58,
      "hit": false,
      "t": 13216.013249999938,
      "d": 57.03880833333278,
      "v": 55
    },
    {
      "midi": 56,
      "hit": false,
      "t": 13273.05205833327,
      "d": 55.825216666666165,
      "v": 54
    },
    {
      "midi": 55,
      "hit": false,
      "t": 13328.877274999937,
      "d": 57.0388083333346,
      "v": 47
    },
    {
      "midi": 53,
      "hit": false,
      "t": 13385.916083333272,
      "d": 57.03880833333278,
      "v": 54
    },
    {
      "midi": 65,
      "hit": false,
      "t": 13385.916083333272,
      "d": 115.29120833333218,
      "v": 44
    },
    {
      "midi": 68,
      "hit": false,
      "t": 13385.916083333272,
      "d": 115.29120833333218,
      "v": 63
    },
    {
      "midi": 55,
      "hit": false,
      "t": 13442.954891666604,
      "d": 57.03880833333278,
      "v": 50
    },
    {
      "midi": 56,
      "hit": false,
      "t": 13502.42088333327,
      "d": 54.61162499999955,
      "v": 62
    },
    {
      "midi": 53,
      "hit": false,
      "t": 13557.03250833327,
      "d": 54.61162499999955,
      "v": 48
    },
    {
      "midi": 29,
      "hit": false,
      "t": 13614.071316666603,
      "d": 225.7280499999979,
      "v": 92
    },
    {
      "midi": 41,
      "hit": false,
      "t": 13614.071316666603,
      "d": 225.7280499999979,
      "v": 90
    },
    {
      "midi": 48,
      "hit": false,
      "t": 13669.896533333269,
      "d": 58.2523999999994,
      "v": 56
    },
    {
      "midi": 53,
      "hit": false,
      "t": 13728.148933333268,
      "d": 55.825216666666165,
      "v": 54
    },
    {
      "midi": 56,
      "hit": false,
      "t": 13785.187741666601,
      "d": 54.61162499999955,
      "v": 62
    },
    {
      "midi": 60,
      "hit": false,
      "t": 13843.4401416666,
      "d": 53.39803333333293,
      "v": 59
    },
    {
      "midi": 61,
      "hit": false,
      "t": 13898.0517666666,
      "d": 57.03880833333278,
      "v": 62
    },
    {
      "midi": 60,
      "hit": false,
      "t": 13956.3041666666,
      "d": 55.825216666666165,
      "v": 50
    },
    {
      "midi": 58,
      "hit": false,
      "t": 14013.342974999932,
      "d": 53.39803333333293,
      "v": 55
    },
    {
      "midi": 68,
      "hit": false,
      "t": 14014.556566666599,
      "d": 52.18444166666632,
      "v": 74
    },
    {
      "midi": 72,
      "hit": false,
      "t": 14014.556566666599,
      "d": 52.18444166666632,
      "v": 70
    },
    {
      "midi": 56,
      "hit": false,
      "t": 14066.741008333265,
      "d": 57.03880833333278,
      "v": 62
    },
    {
      "midi": 68,
      "hit": false,
      "t": 14066.741008333265,
      "d": 231.79600833333097,
      "v": 80
    },
    {
      "midi": 72,
      "hit": false,
      "t": 14066.741008333265,
      "d": 231.79600833333097,
      "v": 75
    },
    {
      "midi": 58,
      "hit": false,
      "t": 14123.779816666598,
      "d": 57.03880833333278,
      "v": 50
    },
    {
      "midi": 56,
      "hit": false,
      "t": 14180.81862499993,
      "d": 59.465991666666014,
      "v": 59
    },
    {
      "midi": 55,
      "hit": false,
      "t": 14241.498208333263,
      "d": 55.825216666666165,
      "v": 47
    },
    {
      "midi": 53,
      "hit": false,
      "t": 14300.96419999993,
      "d": 50.9708499999997,
      "v": 54
    },
    {
      "midi": 68,
      "hit": false,
      "t": 14300.96419999993,
      "d": 108.00965833333248,
      "v": 58
    },
    {
      "midi": 65,
      "hit": false,
      "t": 14302.177791666596,
      "d": 106.79606666666587,
      "v": 52
    },
    {
      "midi": 55,
      "hit": false,
      "t": 14351.93504999993,
      "d": 57.03880833333278,
      "v": 44
    },
    {
      "midi": 56,
      "hit": false,
      "t": 14408.973858333262,
      "d": 57.03880833333278,
      "v": 67
    },
    {
      "midi": 53,
      "hit": false,
      "t": 14466.012666666595,
      "d": 54.61162499999955,
      "v": 60
    },
    {
      "midi": 34,
      "hit": false,
      "t": 14525.47865833326,
      "d": 222.08727499999804,
      "v": 74
    },
    {
      "midi": 46,
      "hit": false,
      "t": 14525.47865833326,
      "d": 222.08727499999804,
      "v": 78
    },
    {
      "midi": 49,
      "hit": false,
      "t": 14580.09028333326,
      "d": 54.61162499999955,
      "v": 55
    },
    {
      "midi": 54,
      "hit": false,
      "t": 14637.129091666593,
      "d": 55.825216666666165,
      "v": 50
    },
    {
      "midi": 58,
      "hit": false,
      "t": 14692.95430833326,
      "d": 54.61162499999955,
      "v": 50
    },
    {
      "midi": 61,
      "hit": false,
      "t": 14752.420299999925,
      "d": 53.39803333333293,
      "v": 59
    },
    {
      "midi": 63,
      "hit": false,
      "t": 14807.031924999925,
      "d": 57.03880833333278,
      "v": 58
    },
    {
      "midi": 61,
      "hit": false,
      "t": 14866.49791666659,
      "d": 52.18444166666632,
      "v": 48
    },
    {
      "midi": 70,
      "hit": false,
      "t": 14918.682358333257,
      "d": 59.465991666666014,
      "v": 80
    },
    {
      "midi": 60,
      "hit": false,
      "t": 14918.682358333257,
      "d": 60.67958333333263,
      "v": 47
    },
    {
      "midi": 73,
      "hit": false,
      "t": 14918.682358333257,
      "d": 60.67958333333263,
      "v": 86
    },
    {
      "midi": 58,
      "hit": false,
      "t": 14980.575533333256,
      "d": 52.18444166666632,
      "v": 68
    },
    {
      "midi": 70,
      "hit": false,
      "t": 14981.789124999923,
      "d": 453.883283333329,
      "v": 19
    },
    {
      "midi": 73,
      "hit": false,
      "t": 14983.00271666659,
      "d": 451.4560999999958,
      "v": 86
    },
    {
      "midi": 60,
      "hit": false,
      "t": 15032.759974999923,
      "d": 57.03880833333278,
      "v": 41
    },
    {
      "midi": 58,
      "hit": false,
      "t": 15089.798783333255,
      "d": 57.03880833333278,
      "v": 47
    },
    {
      "midi": 56,
      "hit": false,
      "t": 15146.837591666588,
      "d": 58.2523999999994,
      "v": 48
    },
    {
      "midi": 54,
      "hit": false,
      "t": 15207.51717499992,
      "d": 53.39803333333293,
      "v": 63
    },
    {
      "midi": 56,
      "hit": false,
      "t": 15260.915208333254,
      "d": 57.03880833333278,
      "v": 48
    },
    {
      "midi": 54,
      "hit": false,
      "t": 15317.954016666587,
      "d": 57.03880833333278,
      "v": 47
    },
    {
      "midi": 53,
      "hit": false,
      "t": 15374.99282499992,
      "d": 58.2523999999994,
      "v": 54
    },
    {
      "midi": 72,
      "hit": false,
      "t": 15436.885999999919,
      "d": 52.18444166666632,
      "v": 50
    },
    {
      "midi": 52,
      "hit": false,
      "t": 15436.885999999919,
      "d": 53.39803333333293,
      "v": 62
    },
    {
      "midi": 70,
      "hit": false,
      "t": 15438.099591666585,
      "d": 49.757258333333084,
      "v": 50
    },
    {
      "midi": 53,
      "hit": false,
      "t": 15490.284033333252,
      "d": 53.39803333333293,
      "v": 54
    },
    {
      "midi": 36,
      "hit": false,
      "t": 15546.109249999918,
      "d": 54.61162499999955,
      "v": 67
    },
    {
      "midi": 48,
      "hit": false,
      "t": 15546.109249999918,
      "d": 54.61162499999955,
      "v": 67
    },
    {
      "midi": 55,
      "hit": false,
      "t": 15546.109249999918,
      "d": 54.61162499999955,
      "v": 47
    },
    {
      "midi": 52,
      "hit": false,
      "t": 15603.14805833325,
      "d": 57.03880833333278,
      "v": 59
    },
    {
      "midi": 53,
      "hit": false,
      "t": 15660.186866666583,
      "d": 55.825216666666165,
      "v": 71
    },
    {
      "midi": 55,
      "hit": false,
      "t": 15716.01208333325,
      "d": 54.61162499999955,
      "v": 52
    },
    {
      "midi": 37,
      "hit": false,
      "t": 15773.050891666582,
      "d": 54.61162499999955,
      "v": 80
    },
    {
      "midi": 49,
      "hit": false,
      "t": 15773.050891666582,
      "d": 54.61162499999955,
      "v": 74
    },
    {
      "midi": 56,
      "hit": false,
      "t": 15773.050891666582,
      "d": 54.61162499999955,
      "v": 67
    },
    {
      "midi": 53,
      "hit": false,
      "t": 15830.089699999915,
      "d": 57.03880833333278,
      "v": 45
    },
    {
      "midi": 55,
      "hit": false,
      "t": 15888.342099999914,
      "d": 53.39803333333293,
      "v": 59
    },
    {
      "midi": 56,
      "hit": false,
      "t": 15941.740133333247,
      "d": 57.03880833333278,
      "v": 67
    },
    {
      "midi": 34,
      "hit": false,
      "t": 15998.77894166658,
      "d": 57.03880833333278,
      "v": 80
    },
    {
      "midi": 46,
      "hit": false,
      "t": 15998.77894166658,
      "d": 57.03880833333278,
      "v": 78
    },
    {
      "midi": 58,
      "hit": false,
      "t": 15998.77894166658,
      "d": 57.03880833333278,
      "v": 55
    },
    {
      "midi": 55,
      "hit": false,
      "t": 16055.817749999913,
      "d": 57.03880833333278,
      "v": 50
    },
    {
      "midi": 52,
      "hit": false,
      "t": 16112.856558333246,
      "d": 58.2523999999994,
      "v": 67
    },
    {
      "midi": 53,
      "hit": false,
      "t": 16172.322549999912,
      "d": 54.61162499999955,
      "v": 60
    },
    {
      "midi": 36,
      "hit": false,
      "t": 16226.934174999911,
      "d": 57.03880833333278,
      "v": 67
    },
    {
      "midi": 48,
      "hit": false,
      "t": 16226.934174999911,
      "d": 57.03880833333278,
      "v": 67
    },
    {
      "midi": 55,
      "hit": false,
      "t": 16226.934174999911,
      "d": 57.03880833333278,
      "v": 52
    },
    {
      "midi": 52,
      "hit": false,
      "t": 16283.972983333244,
      "d": 57.03880833333278,
      "v": 56
    },
    {
      "midi": 53,
      "hit": false,
      "t": 16343.43897499991,
      "d": 53.39803333333475,
      "v": 63
    },
    {
      "midi": 41,
      "hit": false,
      "t": 16343.43897499991,
      "d": 109.22325000000274,
      "v": 71
    },
    {
      "midi": 29,
      "hit": false,
      "t": 16344.652566666577,
      "d": 108.00965833333612,
      "v": 75
    },
    {
      "midi": 60,
      "hit": false,
      "t": 16396.837008333245,
      "d": 55.825216666667984,
      "v": 41
    },
    {
      "midi": 65,
      "hit": false,
      "t": 16452.662224999913,
      "d": 57.0388083333346,
      "v": 44
    },
    {
      "midi": 68,
      "hit": false,
      "t": 16510.914624999914,
      "d": 57.0388083333346,
      "v": 38
    },
    {
      "midi": 72,
      "hit": false,
      "t": 16567.95343333325,
      "d": 55.825216666664346,
      "v": 59
    },
    {
      "midi": 60,
      "hit": false,
      "t": 16626.205833333246,
      "d": 55.825216666667984,
      "v": 47
    },
    {
      "midi": 65,
      "hit": false,
      "t": 16682.031049999914,
      "d": 54.61162500000137,
      "v": 52
    },
    {
      "midi": 68,
      "hit": false,
      "t": 16741.497041666582,
      "d": 52.1844416666645,
      "v": 50
    },
    {
      "midi": 56,
      "hit": false,
      "t": 16742.71063333325,
      "d": 50.97084999999788,
      "v": 72
    },
    {
      "midi": 53,
      "hit": false,
      "t": 16743.924224999915,
      "d": 49.757258333331265,
      "v": 66
    },
    {
      "midi": 53,
      "hit": false,
      "t": 16796.10866666658,
      "d": 225.72805000000517,
      "v": 60
    },
    {
      "midi": 56,
      "hit": false,
      "t": 16796.10866666658,
      "d": 225.72805000000517,
      "v": 67
    },
    {
      "midi": 60,
      "hit": false,
      "t": 16850.72029166658,
      "d": 59.46599166666783,
      "v": 44
    },
    {
      "midi": 65,
      "hit": false,
      "t": 16911.399874999915,
      "d": 53.39803333333475,
      "v": 47
    },
    {
      "midi": 68,
      "hit": false,
      "t": 16964.79790833325,
      "d": 57.0388083333346,
      "v": 22
    },
    {
      "midi": 72,
      "hit": false,
      "t": 17021.836716666585,
      "d": 57.0388083333346,
      "v": 67
    },
    {
      "midi": 60,
      "hit": false,
      "t": 17081.302708333253,
      "d": 55.825216666667984,
      "v": 56
    },
    {
      "midi": 65,
      "hit": false,
      "t": 17138.341516666587,
      "d": 54.61162500000137,
      "v": 52
    },
    {
      "midi": 53,
      "hit": false,
      "t": 17192.95314166659,
      "d": 57.03880833333096,
      "v": 71
    },
    {
      "midi": 56,
      "hit": false,
      "t": 17192.95314166659,
      "d": 57.03880833333096,
      "v": 72
    },
    {
      "midi": 68,
      "hit": false,
      "t": 17192.95314166659,
      "d": 57.03880833333096,
      "v": 47
    },
    {
      "midi": 48,
      "hit": false,
      "t": 17249.99194999992,
      "d": 455.09687500000655,
      "v": 75
    },
    {
      "midi": 53,
      "hit": false,
      "t": 17249.99194999992,
      "d": 455.09687500000655,
      "v": 84
    },
    {
      "midi": 56,
      "hit": false,
      "t": 17249.99194999992,
      "d": 456.31046666667316,
      "v": 90
    },
    {
      "midi": 59,
      "hit": false,
      "t": 17309.457941666584,
      "d": 53.39803333333475,
      "v": 38
    },
    {
      "midi": 62,
      "hit": false,
      "t": 17362.85597499992,
      "d": 54.61162500000137,
      "v": 50
    },
    {
      "midi": 68,
      "hit": false,
      "t": 17422.321966666586,
      "d": 52.184441666668135,
      "v": 58
    },
    {
      "midi": 71,
      "hit": false,
      "t": 17476.933591666588,
      "d": 55.825216666667984,
      "v": 59
    },
    {
      "midi": 59,
      "hit": false,
      "t": 17533.972399999922,
      "d": 57.0388083333346,
      "v": 54
    },
    {
      "midi": 62,
      "hit": false,
      "t": 17591.011208333257,
      "d": 55.825216666667984,
      "v": 44
    },
    {
      "midi": 68,
      "hit": false,
      "t": 17648.05001666659,
      "d": 55.825216666667984,
      "v": 47
    },
    {
      "midi": 71,
      "hit": false,
      "t": 17707.51600833326,
      "d": 225.72805000000153,
      "v": 62
    },
    {
      "midi": 52,
      "hit": false,
      "t": 17708.729599999926,
      "d": 108.00965833333248,
      "v": 52
    },
    {
      "midi": 55,
      "hit": false,
      "t": 17708.729599999926,
      "d": 108.00965833333248,
      "v": 50
    },
    {
      "midi": 48,
      "hit": false,
      "t": 17709.943191666593,
      "d": 106.79606666666587,
      "v": 21
    },
    {
      "midi": 59,
      "hit": false,
      "t": 17762.127633333257,
      "d": 54.61162500000137,
      "v": 51
    },
    {
      "midi": 64,
      "hit": false,
      "t": 17816.73925833326,
      "d": 58.25240000000122,
      "v": 47
    },
    {
      "midi": 67,
      "hit": false,
      "t": 17876.205249999926,
      "d": 55.825216666667984,
      "v": 39
    },
    {
      "midi": 72,
      "hit": false,
      "t": 17934.457649999928,
      "d": 223.30086666667194,
      "v": 59
    },
    {
      "midi": 60,
      "hit": false,
      "t": 17987.855683333262,
      "d": 57.0388083333346,
      "v": 26
    },
    {
      "midi": 64,
      "hit": false,
      "t": 18044.894491666597,
      "d": 58.25240000000122,
      "v": 26
    },
    {
      "midi": 67,
      "hit": false,
      "t": 18104.360483333265,
      "d": 53.39803333333475,
      "v": 25
    },
    {
      "midi": 36,
      "hit": false,
      "t": 18157.7585166666,
      "d": 226.94164166667179,
      "v": 80
    },
    {
      "midi": 48,
      "hit": false,
      "t": 18157.7585166666,
      "d": 226.94164166667179,
      "v": 75
    },
    {
      "midi": 60,
      "hit": false,
      "t": 18214.797324999934,
      "d": 57.0388083333346,
      "v": 47
    },
    {
      "midi": 64,
      "hit": false,
      "t": 18271.83613333327,
      "d": 58.25240000000122,
      "v": 40
    },
    {
      "midi": 67,
      "hit": false,
      "t": 18331.302124999936,
      "d": 53.39803333333475,
      "v": 50
    },
    {
      "midi": 72,
      "hit": false,
      "t": 18388.34093333327,
      "d": 52.184441666668135,
      "v": 41
    },
    {
      "midi": 60,
      "hit": false,
      "t": 18442.952558333272,
      "d": 54.61162500000137,
      "v": 39
    },
    {
      "midi": 64,
      "hit": false,
      "t": 18499.991366666607,
      "d": 57.0388083333346,
      "v": 52
    },
    {
      "midi": 58,
      "hit": false,
      "t": 18557.03017499994,
      "d": 55.825216666667984,
      "v": 58
    },
    {
      "midi": 55,
      "hit": false,
      "t": 18557.03017499994,
      "d": 57.0388083333346,
      "v": 67
    },
    {
      "midi": 67,
      "hit": false,
      "t": 18557.03017499994,
      "d": 58.25240000000122,
      "v": 47
    },
    {
      "midi": 55,
      "hit": false,
      "t": 18616.49616666661,
      "d": 225.72805000000153,
      "v": 59
    },
    {
      "midi": 58,
      "hit": false,
      "t": 18616.49616666661,
      "d": 225.72805000000153,
      "v": 68
    },
    {
      "midi": 60,
      "hit": false,
      "t": 18671.107791666607,
      "d": 54.61162500000137,
      "v": 50
    },
    {
      "midi": 64,
      "hit": false,
      "t": 18729.36019166661,
      "d": 53.39803333333475,
      "v": 31
    },
    {
      "midi": 67,
      "hit": false,
      "t": 18782.758224999943,
      "d": 58.25240000000122,
      "v": 52
    },
    {
      "midi": 72,
      "hit": false,
      "t": 18843.437808333278,
      "d": 53.39803333333475,
      "v": 59
    },
    {
      "midi": 60,
      "hit": false,
      "t": 18896.835841666612,
      "d": 57.03880833333096,
      "v": 52
    },
    {
      "midi": 64,
      "hit": false,
      "t": 18956.301833333277,
      "d": 54.61162500000137,
      "v": 49
    },
    {
      "midi": 58,
      "hit": false,
      "t": 19010.913458333278,
      "d": 59.465991666664195,
      "v": 68
    },
    {
      "midi": 67,
      "hit": false,
      "t": 19010.913458333278,
      "d": 60.67958333333081,
      "v": 50
    },
    {
      "midi": 55,
      "hit": false,
      "t": 19012.127049999945,
      "d": 57.03880833333096,
      "v": 70
    },
    {
      "midi": 53,
      "hit": false,
      "t": 19072.806633333275,
      "d": 450.2425083333401,
      "v": 74
    },
    {
      "midi": 55,
      "hit": false,
      "t": 19072.806633333275,
      "d": 451.4561000000067,
      "v": 70
    },
    {
      "midi": 58,
      "hit": false,
      "t": 19072.806633333275,
      "d": 451.4561000000067,
      "v": 74
    },
    {
      "midi": 60,
      "hit": false,
      "t": 19126.20466666661,
      "d": 54.61162500000137,
      "v": 50
    },
    {
      "midi": 64,
      "hit": false,
      "t": 19180.81629166661,
      "d": 57.0388083333346,
      "v": 44
    },
    {
      "midi": 67,
      "hit": false,
      "t": 19237.855099999946,
      "d": 57.03880833333096,
      "v": 59
    },
    {
      "midi": 72,
      "hit": false,
      "t": 19294.893908333277,
      "d": 55.825216666667984,
      "v": 56
    },
    {
      "midi": 60,
      "hit": false,
      "t": 19354.359899999945,
      "d": 52.184441666668135,
      "v": 34
    },
    {
      "midi": 64,
      "hit": false,
      "t": 19408.971524999946,
      "d": 55.825216666667984,
      "v": 44
    },
    {
      "midi": 67,
      "hit": false,
      "t": 19466.01033333328,
      "d": 57.0388083333346,
      "v": 52
    },
    {
      "midi": 72,
      "hit": false,
      "t": 19526.689916666615,
      "d": 50.97085000000152,
      "v": 56
    },
    {
      "midi": 56,
      "hit": false,
      "t": 19527.903508333282,
      "d": 106.79606666666587,
      "v": 42
    },
    {
      "midi": 53,
      "hit": false,
      "t": 19529.11709999995,
      "d": 105.58247499999925,
      "v": 43
    },
    {
      "midi": 60,
      "hit": false,
      "t": 19582.515133333283,
      "d": 52.1844416666645,
      "v": 44
    },
    {
      "midi": 64,
      "hit": false,
      "t": 19634.699574999948,
      "d": 57.03880833333096,
      "v": 42
    },
    {
      "midi": 67,
      "hit": false,
      "t": 19694.165566666612,
      "d": 54.61162500000137,
      "v": 52
    },
    {
      "midi": 72,
      "hit": false,
      "t": 19752.417966666613,
      "d": 54.61162500000137,
      "v": 47
    },
    {
      "midi": 60,
      "hit": false,
      "t": 19808.24318333328,
      "d": 53.39803333333475,
      "v": 44
    },
    {
      "midi": 65,
      "hit": false,
      "t": 19861.641216666616,
      "d": 58.25240000000122,
      "v": 41
    },
    {
      "midi": 68,
      "hit": false,
      "t": 19921.107208333284,
      "d": 54.61162500000137,
      "v": 44
    },
    {
      "midi": 41,
      "hit": false,
      "t": 19975.718833333285,
      "d": 228.1552333333384,
      "v": 71
    },
    {
      "midi": 53,
      "hit": false,
      "t": 19975.718833333285,
      "d": 228.1552333333384,
      "v": 66
    },
    {
      "midi": 65,
      "hit": false,
      "t": 20033.971233333286,
      "d": 55.825216666667984,
      "v": 47
    },
    {
      "midi": 69,
      "hit": false,
      "t": 20089.796449999954,
      "d": 57.0388083333346,
      "v": 52
    },
    {
      "midi": 72,
      "hit": false,
      "t": 20146.83525833329,
      "d": 57.0388083333346,
      "v": 56
    },
    {
      "midi": 77,
      "hit": false,
      "t": 20203.874066666624,
      "d": 57.0388083333346,
      "v": 56
    },
    {
      "midi": 65,
      "hit": false,
      "t": 20260.912874999958,
      "d": 55.825216666667984,
      "v": 44
    },
    {
      "midi": 69,
      "hit": false,
      "t": 20317.951683333293,
      "d": 54.61162500000137,
      "v": 36
    },
    {
      "midi": 60,
      "hit": false,
      "t": 20374.990491666627,
      "d": 54.61162500000137,
      "v": 52
    },
    {
      "midi": 63,
      "hit": false,
      "t": 20374.990491666627,
      "d": 55.825216666667984,
      "v": 63
    },
    {
      "midi": 72,
      "hit": false,
      "t": 20374.990491666627,
      "d": 57.0388083333346,
      "v": 47
    },
    {
      "midi": 60,
      "hit": false,
      "t": 20433.24289166663,
      "d": 224.51445833333128,
      "v": 50
    },
    {
      "midi": 63,
      "hit": false,
      "t": 20434.456483333295,
      "d": 223.30086666666466,
      "v": 50
    },
    {
      "midi": 65,
      "hit": false,
      "t": 20490.28169999996,
      "d": 53.39803333333475,
      "v": 52
    },
    {
      "midi": 69,
      "hit": false,
      "t": 20547.320508333294,
      "d": 53.398033333331114,
      "v": 47
    },
    {
      "midi": 72,
      "hit": false,
      "t": 20603.14572499996,
      "d": 54.61162500000137,
      "v": 44
    },
    {
      "midi": 77,
      "hit": false,
      "t": 20660.184533333293,
      "d": 54.61162500000137,
      "v": 25
    },
    {
      "midi": 65,
      "hit": false,
      "t": 20714.796158333294,
      "d": 58.25239999999758,
      "v": 50
    },
    {
      "midi": 69,
      "hit": false,
      "t": 20774.26214999996,
      "d": 53.39803333333475,
      "v": 39
    },
    {
      "midi": 60,
      "hit": false,
      "t": 20827.660183333293,
      "d": 57.0388083333346,
      "v": 67
    },
    {
      "midi": 63,
      "hit": false,
      "t": 20827.660183333293,
      "d": 57.0388083333346,
      "v": 58
    },
    {
      "midi": 72,
      "hit": false,
      "t": 20827.660183333293,
      "d": 57.0388083333346,
      "v": 44
    },
    {
      "midi": 58,
      "hit": false,
      "t": 20884.698991666628,
      "d": 567.9609000000091,
      "v": 68
    },
    {
      "midi": 60,
      "hit": false,
      "t": 20884.698991666628,
      "d": 567.9609000000091,
      "v": 67
    },
    {
      "midi": 63,
      "hit": false,
      "t": 20884.698991666628,
      "d": 567.9609000000091,
      "v": 74
    },
    {
      "midi": 65,
      "hit": false,
      "t": 20944.164983333292,
      "d": 57.0388083333346,
      "v": 39
    },
    {
      "midi": 69,
      "hit": false,
      "t": 21002.417383333293,
      "d": 53.39803333333475,
      "v": 44
    },
    {
      "midi": 72,
      "hit": false,
      "t": 21055.815416666628,
      "d": 57.0388083333346,
      "v": 47
    },
    {
      "midi": 77,
      "hit": false,
      "t": 21112.854224999963,
      "d": 57.0388083333346,
      "v": 52
    },
    {
      "midi": 65,
      "hit": false,
      "t": 21172.32021666663,
      "d": 52.184441666668135,
      "v": 34
    },
    {
      "midi": 69,
      "hit": false,
      "t": 21228.1454333333,
      "d": 54.61162500000137,
      "v": 41
    },
    {
      "midi": 72,
      "hit": false,
      "t": 21283.970649999967,
      "d": 54.61162500000137,
      "v": 52
    },
    {
      "midi": 69,
      "hit": false,
      "t": 21341.0094583333,
      "d": 54.61162500000137,
      "v": 44
    },
    {
      "midi": 65,
      "hit": false,
      "t": 21341.0094583333,
      "d": 55.825216666667984,
      "v": 47
    },
    {
      "midi": 77,
      "hit": false,
      "t": 21398.048266666636,
      "d": 54.61162500000137,
      "v": 56
    },
    {
      "midi": 65,
      "hit": false,
      "t": 21455.08707499997,
      "d": 57.0388083333346,
      "v": 44
    },
    {
      "midi": 70,
      "hit": false,
      "t": 21456.300666666637,
      "d": 54.61162500000137,
      "v": 50
    },
    {
      "midi": 58,
      "hit": false,
      "t": 21457.514258333304,
      "d": 108.00965833333248,
      "v": 55
    },
    {
      "midi": 61,
      "hit": false,
      "t": 21458.72784999997,
      "d": 106.79606666666587,
      "v": 51
    },
    {
      "midi": 77,
      "hit": false,
      "t": 21513.33947499997,
      "d": 52.1844416666645,
      "v": 44
    },
    {
      "midi": 72,
      "hit": false,
      "t": 21570.378283333303,
      "d": 52.1844416666645,
      "v": 47
    },
    {
      "midi": 65,
      "hit": false,
      "t": 21571.59187499997,
      "d": 50.97084999999788,
      "v": 39
    },
    {
      "midi": 56,
      "hit": false,
      "t": 21571.59187499997,
      "d": 108.00965833333248,
      "v": 62
    },
    {
      "midi": 60,
      "hit": false,
      "t": 21572.805466666636,
      "d": 106.79606666666587,
      "v": 47
    },
    {
      "midi": 77,
      "hit": false,
      "t": 21622.562724999967,
      "d": 57.0388083333346,
      "v": 47
    },
    {
      "midi": 65,
      "hit": false,
      "t": 21679.6015333333,
      "d": 58.25240000000122,
      "v": 23
    },
    {
      "midi": 73,
      "hit": false,
      "t": 21679.6015333333,
      "d": 59.46599166666783,
      "v": 55
    },
    {
      "midi": 55,
      "hit": false,
      "t": 21679.6015333333,
      "d": 114.0776166666692,
      "v": 52
    },
    {
      "midi": 58,
      "hit": false,
      "t": 21679.6015333333,
      "d": 114.0776166666692,
      "v": 58
    },
    {
      "midi": 77,
      "hit": false,
      "t": 21740.281116666636,
      "d": 53.39803333333475,
      "v": 56
    },
    {
      "midi": 48,
      "hit": false,
      "t": 21793.67914999997,
      "d": 228.1552333333384,
      "v": 62
    },
    {
      "midi": 53,
      "hit": false,
      "t": 21793.67914999997,
      "d": 228.1552333333384,
      "v": 60
    },
    {
      "midi": 56,
      "hit": false,
      "t": 21793.67914999997,
      "d": 228.1552333333384,
      "v": 67
    },
    {
      "midi": 60,
      "hit": false,
      "t": 21850.717958333305,
      "d": 58.25240000000122,
      "v": 39
    },
    {
      "midi": 65,
      "hit": false,
      "t": 21908.970358333307,
      "d": 57.0388083333346,
      "v": 52
    },
    {
      "midi": 68,
      "hit": false,
      "t": 21967.222758333308,
      "d": 54.61162500000137,
      "v": 47
    },
    {
      "midi": 72,
      "hit": false,
      "t": 22021.83438333331,
      "d": 57.0388083333346,
      "v": 56
    },
    {
      "midi": 60,
      "hit": false,
      "t": 22078.873191666644,
      "d": 57.0388083333346,
      "v": 41
    },
    {
      "midi": 65,
      "hit": false,
      "t": 22138.33918333331,
      "d": 53.39803333333475,
      "v": 52
    },
    {
      "midi": 68,
      "hit": false,
      "t": 22192.950808333313,
      "d": 57.0388083333346,
      "v": 47
    },
    {
      "midi": 53,
      "hit": false,
      "t": 22194.16439999998,
      "d": 55.825216666667984,
      "v": 63
    },
    {
      "midi": 56,
      "hit": false,
      "t": 22195.377991666646,
      "d": 53.39803333333475,
      "v": 62
    },
    {
      "midi": 72,
      "hit": false,
      "t": 22251.203208333314,
      "d": 53.39803333333475,
      "v": 56
    },
    {
      "midi": 58,
      "hit": false,
      "t": 22252.41679999998,
      "d": 226.94164166667179,
      "v": 68
    },
    {
      "midi": 48,
      "hit": false,
      "t": 22253.630391666647,
      "d": 224.51445833333855,
      "v": 80
    },
    {
      "midi": 55,
      "hit": false,
      "t": 22253.630391666647,
      "d": 224.51445833333855,
      "v": 70
    },
    {
      "midi": 60,
      "hit": false,
      "t": 22308.24201666665,
      "d": 53.39803333333475,
      "v": 44
    },
    {
      "midi": 67,
      "hit": false,
      "t": 22364.067233333317,
      "d": 54.61162500000137,
      "v": 50
    },
    {
      "midi": 70,
      "hit": false,
      "t": 22422.319633333318,
      "d": 54.61162500000137,
      "v": 50
    },
    {
      "midi": 72,
      "hit": false,
      "t": 22480.57203333332,
      "d": 50.97085000000152,
      "v": 62
    },
    {
      "midi": 60,
      "hit": false,
      "t": 22533.970066666654,
      "d": 57.0388083333346,
      "v": 52
    },
    {
      "midi": 64,
      "hit": false,
      "t": 22593.436058333322,
      "d": 52.184441666668135,
      "v": 52
    },
    {
      "midi": 52,
      "hit": false,
      "t": 22645.62049999999,
      "d": 58.25240000000122,
      "v": 56
    },
    {
      "midi": 55,
      "hit": false,
      "t": 22645.62049999999,
      "d": 59.46599166666783,
      "v": 39
    },
    {
      "midi": 67,
      "hit": false,
      "t": 22645.62049999999,
      "d": 60.67958333333445,
      "v": 39
    },
    {
      "midi": 72,
      "hit": false,
      "t": 22707.51367499999,
      "d": 228.15523333333113,
      "v": 67
    },
    {
      "midi": 68,
      "hit": false,
      "t": 22708.727266666658,
      "d": 224.51445833333128,
      "v": 68
    },
    {
      "midi": 65,
      "hit": false,
      "t": 22709.940858333324,
      "d": 223.30086666666466,
      "v": 62
    },
    {
      "midi": 53,
      "hit": false,
      "t": 22711.15444999999,
      "d": 48.54366666666465,
      "v": 56
    },
    {
      "midi": 60,
      "hit": false,
      "t": 22759.698116666656,
      "d": 57.03880833333096,
      "v": 50
    },
    {
      "midi": 56,
      "hit": false,
      "t": 22816.736924999987,
      "d": 58.25240000000122,
      "v": 48
    },
    {
      "midi": 53,
      "hit": false,
      "t": 22876.202916666654,
      "d": 55.825216666667984,
      "v": 48
    },
    {
      "midi": 48,
      "hit": false,
      "t": 22935.668908333322,
      "d": 52.184441666668135,
      "v": 56
    },
    {
      "midi": 56,
      "hit": false,
      "t": 22987.85334999999,
      "d": 57.03880833333096,
      "v": 62
    },
    {
      "midi": 53,
      "hit": false,
      "t": 23044.89215833332,
      "d": 57.0388083333346,
      "v": 51
    },
    {
      "midi": 80,
      "hit": false,
      "t": 23104.35814999999,
      "d": 54.61162500000137,
      "v": 68
    },
    {
      "midi": 77,
      "hit": false,
      "t": 23104.35814999999,
      "d": 55.825216666667984,
      "v": 62
    },
    {
      "midi": 48,
      "hit": false,
      "t": 23105.571741666656,
      "d": 52.184441666668135,
      "v": 50
    },
    {
      "midi": 77,
      "hit": false,
      "t": 23162.61054999999,
      "d": 224.51445833333128,
      "v": 62
    },
    {
      "midi": 44,
      "hit": false,
      "t": 23163.824141666657,
      "d": 48.54366666666465,
      "v": 58
    },
    {
      "midi": 80,
      "hit": false,
      "t": 23163.824141666657,
      "d": 223.30086666666466,
      "v": 80
    },
    {
      "midi": 53,
      "hit": false,
      "t": 23217.222174999988,
      "d": 52.1844416666645,
      "v": 48
    },
    {
      "midi": 48,
      "hit": false,
      "t": 23274.26098333332,
      "d": 53.39803333333475,
      "v": 39
    },
    {
      "midi": 44,
      "hit": false,
      "t": 23330.086199999987,
      "d": 55.825216666667984,
      "v": 47
    },
    {
      "midi": 41,
      "hit": false,
      "t": 23388.33859999999,
      "d": 53.39803333333475,
      "v": 71
    },
    {
      "midi": 48,
      "hit": false,
      "t": 23442.95022499999,
      "d": 54.61162500000137,
      "v": 56
    },
    {
      "midi": 44,
      "hit": false,
      "t": 23501.20262499999,
      "d": 54.61162499999773,
      "v": 58
    },
    {
      "midi": 41,
      "hit": false,
      "t": 23557.027841666655,
      "d": 57.0388083333346,
      "v": 56
    },
    {
      "midi": 77,
      "hit": false,
      "t": 23557.027841666655,
      "d": 58.25240000000122,
      "v": 67
    },
    {
      "midi": 80,
      "hit": false,
      "t": 23557.027841666655,
      "d": 58.25240000000122,
      "v": 74
    },
    {
      "midi": 80,
      "hit": false,
      "t": 23616.493833333323,
      "d": 452.6696916666624,
      "v": 86
    },
    {
      "midi": 77,
      "hit": false,
      "t": 23616.493833333323,
      "d": 455.09687499999563,
      "v": 67
    },
    {
      "midi": 36,
      "hit": false,
      "t": 23617.70742499999,
      "d": 52.184441666668135,
      "v": 67
    },
    {
      "midi": 41,
      "hit": false,
      "t": 23671.105458333324,
      "d": 54.61162499999773,
      "v": 56
    },
    {
      "midi": 44,
      "hit": false,
      "t": 23725.717083333322,
      "d": 55.825216666667984,
      "v": 58
    },
    {
      "midi": 48,
      "hit": false,
      "t": 23781.54229999999,
      "d": 58.25240000000122,
      "v": 44
    },
    {
      "midi": 47,
      "hit": false,
      "t": 23839.79469999999,
      "d": 58.25239999999758,
      "v": 47
    },
    {
      "midi": 48,
      "hit": false,
      "t": 23899.260691666655,
      "d": 54.61162500000137,
      "v": 44
    },
    {
      "midi": 47,
      "hit": false,
      "t": 23953.872316666657,
      "d": 55.825216666664346,
      "v": 39
    },
    {
      "midi": 48,
      "hit": false,
      "t": 24009.69753333332,
      "d": 58.25239999999758,
      "v": 50
    },
    {
      "midi": 79,
      "hit": false,
      "t": 24072.804299999985,
      "d": 105.58247499999925,
      "v": 59
    },
    {
      "midi": 47,
      "hit": false,
      "t": 24074.017891666652,
      "d": 49.757258333331265,
      "v": 52
    },
    {
      "midi": 76,
      "hit": false,
      "t": 24074.017891666652,
      "d": 104.36888333333263,
      "v": 34
    },
    {
      "midi": 48,
      "hit": false,
      "t": 24123.775149999983,
      "d": 54.61162500000137,
      "v": 52
    },
    {
      "midi": 43,
      "hit": false,
      "t": 24183.24114166665,
      "d": 53.39803333333475,
      "v": 56
    },
    {
      "midi": 48,
      "hit": false,
      "t": 24237.852766666652,
      "d": 57.0388083333346,
      "v": 39
    },
    {
      "midi": 40,
      "hit": false,
      "t": 24296.105166666654,
      "d": 53.39803333333475,
      "v": 56
    },
    {
      "midi": 48,
      "hit": false,
      "t": 24353.143974999988,
      "d": 54.61162500000137,
      "v": 47
    },
    {
      "midi": 43,
      "hit": false,
      "t": 24408.969191666656,
      "d": 54.61162500000137,
      "v": 50
    },
    {
      "midi": 48,
      "hit": false,
      "t": 24467.221591666657,
      "d": 53.39803333333475,
      "v": 56
    },
    {
      "midi": 36,
      "hit": false,
      "t": 24523.046808333325,
      "d": 57.03880833333096,
      "v": 67
    },
    {
      "midi": 40,
      "hit": false,
      "t": 24581.299208333323,
      "d": 54.61162499999773,
      "v": 52
    },
    {
      "midi": 43,
      "hit": false,
      "t": 24637.124424999987,
      "d": 54.61162500000137,
      "v": 56
    },
    {
      "midi": 48,
      "hit": false,
      "t": 24691.73604999999,
      "d": 57.0388083333346,
      "v": 44
    },
    {
      "midi": 40,
      "hit": false,
      "t": 24748.774858333323,
      "d": 57.0388083333346,
      "v": 67
    },
    {
      "midi": 43,
      "hit": false,
      "t": 24805.813666666658,
      "d": 58.25240000000122,
      "v": 52
    },
    {
      "midi": 48,
      "hit": false,
      "t": 24865.279658333326,
      "d": 53.39803333333475,
      "v": 59
    },
    {
      "midi": 52,
      "hit": false,
      "t": 24918.67769166666,
      "d": 57.0388083333346,
      "v": 62
    },
    {
      "midi": 79,
      "hit": false,
      "t": 24918.67769166666,
      "d": 57.0388083333346,
      "v": 47
    },
    {
      "midi": 82,
      "hit": false,
      "t": 24918.67769166666,
      "d": 57.0388083333346,
      "v": 58
    },
    {
      "midi": 43,
      "hit": false,
      "t": 24975.716499999995,
      "d": 58.25239999999758,
      "v": 62
    },
    {
      "midi": 79,
      "hit": false,
      "t": 24975.716499999995,
      "d": 225.7280499999979,
      "v": 50
    },
    {
      "midi": 82,
      "hit": false,
      "t": 24975.716499999995,
      "d": 225.7280499999979,
      "v": 68
    },
    {
      "midi": 48,
      "hit": false,
      "t": 25035.18249166666,
      "d": 53.398033333331114,
      "v": 47
    },
    {
      "midi": 52,
      "hit": false,
      "t": 25091.007708333324,
      "d": 54.61162500000137,
      "v": 59
    },
    {
      "midi": 55,
      "hit": false,
      "t": 25149.260108333325,
      "d": 52.184441666668135,
      "v": 62
    },
    {
      "midi": 48,
      "hit": false,
      "t": 25205.085324999993,
      "d": 54.61162500000137,
      "v": 59
    },
    {
      "midi": 52,
      "hit": false,
      "t": 25260.91054166666,
      "d": 57.0388083333346,
      "v": 50
    },
    {
      "midi": 55,
      "hit": false,
      "t": 25320.37653333333,
      "d": 53.398033333331114,
      "v": 56
    },
    {
      "midi": 60,
      "hit": false,
      "t": 25374.988158333326,
      "d": 54.61162500000137,
      "v": 59
    },
    {
      "midi": 79,
      "hit": false,
      "t": 25374.988158333326,
      "d": 54.61162500000137,
      "v": 67
    },
    {
      "midi": 82,
      "hit": false,
      "t": 25374.988158333326,
      "d": 54.61162500000137,
      "v": 80
    },
    {
      "midi": 79,
      "hit": false,
      "t": 25433.240558333327,
      "d": 451.4561000000067,
      "v": 70
    },
    {
      "midi": 82,
      "hit": false,
      "t": 25434.454149999994,
      "d": 450.2425083333401,
      "v": 80
    },
    {
      "midi": 53,
      "hit": false,
      "t": 25435.66774166666,
      "d": 50.97084999999788,
      "v": 63
    },
    {
      "midi": 56,
      "hit": false,
      "t": 25489.065774999992,
      "d": 55.825216666667984,
      "v": 59
    },
    {
      "midi": 60,
      "hit": false,
      "t": 25546.104583333326,
      "d": 54.61162500000137,
      "v": 50
    },
    {
      "midi": 65,
      "hit": false,
      "t": 25600.716208333328,
      "d": 55.825216666667984,
      "v": 56
    },
    {
      "midi": 64,
      "hit": false,
      "t": 25656.541424999996,
      "d": 57.0388083333346,
      "v": 58
    },
    {
      "midi": 65,
      "hit": false,
      "t": 25713.58023333333,
      "d": 58.25240000000122,
      "v": 52
    },
    {
      "midi": 64,
      "hit": false,
      "t": 25771.83263333333,
      "d": 55.825216666667984,
      "v": 55
    },
    {
      "midi": 65,
      "hit": false,
      "t": 25827.65785,
      "d": 57.0388083333346,
      "v": 62
    },
    {
      "midi": 64,
      "hit": false,
      "t": 25884.696658333334,
      "d": 57.03880833333096,
      "v": 58
    },
    {
      "midi": 77,
      "hit": false,
      "t": 25884.696658333334,
      "d": 114.07761666666556,
      "v": 47
    },
    {
      "midi": 80,
      "hit": false,
      "t": 25884.696658333334,
      "d": 115.29120833333218,
      "v": 47
    },
    {
      "midi": 65,
      "hit": false,
      "t": 25941.735466666665,
      "d": 55.825216666667984,
      "v": 62
    },
    {
      "midi": 60,
      "hit": false,
      "t": 26001.201458333333,
      "d": 57.0388083333346,
      "v": 59
    },
    {
      "midi": 65,
      "hit": false,
      "t": 26059.453858333334,
      "d": 52.184441666668135,
      "v": 36
    },
    {
      "midi": 56,
      "hit": false,
      "t": 26112.85189166667,
      "d": 54.61162500000137,
      "v": 62
    },
    {
      "midi": 65,
      "hit": false,
      "t": 26171.10429166667,
      "d": 53.39803333333475,
      "v": 44
    },
    {
      "midi": 60,
      "hit": false,
      "t": 26225.71591666667,
      "d": 55.825216666667984,
      "v": 50
    },
    {
      "midi": 65,
      "hit": false,
      "t": 26285.18190833334,
      "d": 54.61162500000137,
      "v": 50
    },
    {
      "midi": 53,
      "hit": false,
      "t": 26341.007125000007,
      "d": 54.61162499999773,
      "v": 63
    },
    {
      "midi": 57,
      "hit": false,
      "t": 26399.259525000005,
      "d": 53.39803333333475,
      "v": 39
    },
    {
      "midi": 60,
      "hit": false,
      "t": 26455.084741666673,
      "d": 54.61162500000137,
      "v": 59
    },
    {
      "midi": 65,
      "hit": false,
      "t": 26509.696366666674,
      "d": 55.825216666664346,
      "v": 56
    },
    {
      "midi": 57,
      "hit": false,
      "t": 26565.52158333334,
      "d": 57.0388083333346,
      "v": 70
    },
    {
      "midi": 60,
      "hit": false,
      "t": 26622.560391666673,
      "d": 57.0388083333346,
      "v": 67
    },
    {
      "midi": 65,
      "hit": false,
      "t": 26679.599200000008,
      "d": 57.0388083333346,
      "v": 67
    },
    {
      "midi": 69,
      "hit": false,
      "t": 26736.638008333342,
      "d": 59.465991666664195,
      "v": 70
    },
    {
      "midi": 84,
      "hit": false,
      "t": 26736.638008333342,
      "d": 59.465991666664195,
      "v": 47
    },
    {
      "midi": 87,
      "hit": false,
      "t": 26736.638008333342,
      "d": 60.67958333333081,
      "v": 58
    },
    {
      "midi": 84,
      "hit": false,
      "t": 26798.53118333334,
      "d": 224.51445833333128,
      "v": 50
    },
    {
      "midi": 87,
      "hit": false,
      "t": 26799.744775000006,
      "d": 223.30086666666466,
      "v": 63
    },
    {
      "midi": 60,
      "hit": false,
      "t": 26800.958366666673,
      "d": 49.757258333331265,
      "v": 70
    },
    {
      "midi": 65,
      "hit": false,
      "t": 26850.715625000004,
      "d": 57.03880833333096,
      "v": 56
    },
    {
      "midi": 69,
      "hit": false,
      "t": 26907.754433333335,
      "d": 55.825216666667984,
      "v": 56
    },
    {
      "midi": 72,
      "hit": false,
      "t": 26967.220425000003,
      "d": 54.61162500000137,
      "v": 56
    },
    {
      "midi": 65,
      "hit": false,
      "t": 27024.259233333338,
      "d": 53.39803333333475,
      "v": 70
    },
    {
      "midi": 69,
      "hit": false,
      "t": 27078.87085833334,
      "d": 54.61162500000137,
      "v": 52
    },
    {
      "midi": 72,
      "hit": false,
      "t": 27137.12325833334,
      "d": 53.39803333333475,
      "v": 62
    },
    {
      "midi": 87,
      "hit": false,
      "t": 27194.162066666675,
      "d": 53.398033333331114,
      "v": 74
    },
    {
      "midi": 84,
      "hit": false,
      "t": 27195.37565833334,
      "d": 52.1844416666645,
      "v": 62
    },
    {
      "midi": 77,
      "hit": false,
      "t": 27196.589250000008,
      "d": 50.97084999999788,
      "v": 62
    },
    {
      "midi": 69,
      "hit": false,
      "t": 27247.560100000006,
      "d": 58.25239999999758,
      "v": 62
    },
    {
      "midi": 84,
      "hit": false,
      "t": 27247.560100000006,
      "d": 569.1744916666757,
      "v": 80
    },
    {
      "midi": 87,
      "hit": false,
      "t": 27247.560100000006,
      "d": 569.1744916666757,
      "v": 86
    },
    {
      "midi": 77,
      "hit": false,
      "t": 27305.812500000004,
      "d": 54.61162500000137,
      "v": 56
    },
    {
      "midi": 76,
      "hit": false,
      "t": 27365.27849166667,
      "d": 52.184441666668135,
      "v": 59
    },
    {
      "midi": 77,
      "hit": false,
      "t": 27419.890116666673,
      "d": 55.825216666667984,
      "v": 59
    },
    {
      "midi": 69,
      "hit": false,
      "t": 27475.71533333334,
      "d": 58.25240000000122,
      "v": 56
    },
    {
      "midi": 77,
      "hit": false,
      "t": 27533.967733333342,
      "d": 54.61162500000137,
      "v": 59
    },
    {
      "midi": 69,
      "hit": false,
      "t": 27588.579358333343,
      "d": 57.0388083333346,
      "v": 52
    },
    {
      "midi": 77,
      "hit": false,
      "t": 27645.618166666678,
      "d": 57.0388083333346,
      "v": 59
    },
    {
      "midi": 69,
      "hit": false,
      "t": 27702.656975000013,
      "d": 59.46599166666783,
      "v": 62
    },
    {
      "midi": 77,
      "hit": false,
      "t": 27763.336558333347,
      "d": 53.39803333333475,
      "v": 62
    },
    {
      "midi": 70,
      "hit": false,
      "t": 27816.73459166668,
      "d": 57.0388083333346,
      "v": 58
    },
    {
      "midi": 82,
      "hit": false,
      "t": 27816.73459166668,
      "d": 114.07761666666556,
      "v": 50
    },
    {
      "midi": 85,
      "hit": false,
      "t": 27816.73459166668,
      "d": 115.29120833333218,
      "v": 55
    },
    {
      "midi": 77,
      "hit": false,
      "t": 27873.773400000016,
      "d": 55.825216666664346,
      "v": 56
    },
    {
      "midi": 84,
      "hit": false,
      "t": 27933.23939166668,
      "d": 111.65043333333597,
      "v": 59
    },
    {
      "midi": 72,
      "hit": false,
      "t": 27934.452983333347,
      "d": 52.184441666668135,
      "v": 62
    },
    {
      "midi": 80,
      "hit": false,
      "t": 27934.452983333347,
      "d": 110.43684166666935,
      "v": 40
    },
    {
      "midi": 77,
      "hit": false,
      "t": 27990.278200000015,
      "d": 53.39803333333475,
      "v": 59
    },
    {
      "midi": 82,
      "hit": false,
      "t": 28046.103416666683,
      "d": 110.43684166666935,
      "v": 63
    },
    {
      "midi": 73,
      "hit": false,
      "t": 28047.31700833335,
      "d": 52.184441666668135,
      "v": 63
    },
    {
      "midi": 79,
      "hit": false,
      "t": 28047.31700833335,
      "d": 109.22325000000274,
      "v": 50
    },
    {
      "midi": 77,
      "hit": false,
      "t": 28104.355816666684,
      "d": 52.184441666668135,
      "v": 62
    },
    {
      "midi": 60,
      "hit": false,
      "t": 28158.967441666686,
      "d": 55.825216666664346,
      "v": 62
    },
    {
      "midi": 77,
      "hit": false,
      "t": 28158.967441666686,
      "d": 224.51445833333491,
      "v": 56
    },
    {
      "midi": 80,
      "hit": false,
      "t": 28158.967441666686,
      "d": 224.51445833333491,
      "v": 68
    },
    {
      "midi": 65,
      "hit": false,
      "t": 28214.79265833335,
      "d": 55.825216666667984,
      "v": 47
    },
    {
      "midi": 68,
      "hit": false,
      "t": 28274.258650000018,
      "d": 53.39803333333475,
      "v": 50
    },
    {
      "midi": 72,
      "hit": false,
      "t": 28330.083866666686,
      "d": 53.39803333333475,
      "v": 56
    },
    {
      "midi": 71,
      "hit": false,
      "t": 28385.909083333354,
      "d": 54.61162500000137,
      "v": 59
    },
    {
      "midi": 72,
      "hit": false,
      "t": 28440.520708333355,
      "d": 59.46599166666783,
      "v": 36
    },
    {
      "midi": 71,
      "hit": false,
      "t": 28501.20029166669,
      "d": 53.39803333333475,
      "v": 44
    },
    {
      "midi": 72,
      "hit": false,
      "t": 28554.598325000024,
      "d": 59.465991666664195,
      "v": 56
    },
    {
      "midi": 80,
      "hit": false,
      "t": 28554.598325000024,
      "d": 60.67958333333081,
      "v": 58
    },
    {
      "midi": 89,
      "hit": false,
      "t": 28554.598325000024,
      "d": 60.67958333333081,
      "v": 56
    },
    {
      "midi": 77,
      "hit": false,
      "t": 28554.598325000024,
      "d": 61.89317499999743,
      "v": 47
    },
    {
      "midi": 82,
      "hit": false,
      "t": 28617.70509166669,
      "d": 220.87368333333507,
      "v": 74
    },
    {
      "midi": 91,
      "hit": false,
      "t": 28618.918683333355,
      "d": 219.66009166666845,
      "v": 70
    },
    {
      "midi": 79,
      "hit": false,
      "t": 28620.13227500002,
      "d": 218.44650000000183,
      "v": 39
    },
    {
      "midi": 60,
      "hit": false,
      "t": 28621.34586666669,
      "d": 48.54366666666829,
      "v": 70
    },
    {
      "midi": 64,
      "hit": false,
      "t": 28671.103125000023,
      "d": 57.03880833333096,
      "v": 44
    },
    {
      "midi": 67,
      "hit": false,
      "t": 28728.141933333354,
      "d": 54.61162500000137,
      "v": 59
    },
    {
      "midi": 72,
      "hit": false,
      "t": 28782.753558333356,
      "d": 55.825216666667984,
      "v": 52
    },
    {
      "midi": 60,
      "hit": false,
      "t": 28838.578775000024,
      "d": 58.25240000000122,
      "v": 62
    },
    {
      "midi": 67,
      "hit": false,
      "t": 28898.04476666669,
      "d": 54.61162500000137,
      "v": 41
    },
    {
      "midi": 70,
      "hit": false,
      "t": 28952.656391666693,
      "d": 54.61162500000137,
      "v": 63
    },
    {
      "midi": 88,
      "hit": false,
      "t": 29012.12238333336,
      "d": 52.1844416666645,
      "v": 62
    },
    {
      "midi": 76,
      "hit": false,
      "t": 29013.335975000027,
      "d": 50.97084999999788,
      "v": 50
    },
    {
      "midi": 79,
      "hit": false,
      "t": 29013.335975000027,
      "d": 50.97084999999788,
      "v": 52
    },
    {
      "midi": 72,
      "hit": false,
      "t": 29014.549566666694,
      "d": 49.757258333331265,
      "v": 67
    },
    {
      "midi": 53,
      "hit": false,
      "t": 29064.306825000025,
      "d": 57.0388083333346,
      "v": 54
    },
    {
      "midi": 77,
      "hit": false,
      "t": 29064.306825000025,
      "d": 57.0388083333346,
      "v": 47
    },
    {
      "midi": 80,
      "hit": false,
      "t": 29064.306825000025,
      "d": 57.0388083333346,
      "v": 74
    },
    {
      "midi": 89,
      "hit": false,
      "t": 29064.306825000025,
      "d": 57.0388083333346,
      "v": 80
    },
    {
      "midi": 65,
      "hit": false,
      "t": 29121.34563333336,
      "d": 58.25239999999758,
      "v": 41
    },
    {
      "midi": 68,
      "hit": false,
      "t": 29121.34563333336,
      "d": 58.25239999999758,
      "v": 32
    },
    {
      "midi": 72,
      "hit": false,
      "t": 29121.34563333336,
      "d": 58.25239999999758,
      "v": 39
    },
    {
      "midi": 77,
      "hit": false,
      "t": 29182.02521666669,
      "d": 53.39803333333475,
      "v": 47
    },
    {
      "midi": 60,
      "hit": false,
      "t": 29183.238808333357,
      "d": 52.184441666668135,
      "v": 41
    },
    {
      "midi": 72,
      "hit": false,
      "t": 29184.452400000024,
      "d": 50.97085000000152,
      "v": 41
    },
    {
      "midi": 65,
      "hit": false,
      "t": 29239.064025000025,
      "d": 53.39803333333475,
      "v": 44
    },
    {
      "midi": 68,
      "hit": false,
      "t": 29239.064025000025,
      "d": 53.39803333333475,
      "v": 44
    },
    {
      "midi": 80,
      "hit": false,
      "t": 29239.064025000025,
      "d": 53.39803333333475,
      "v": 32
    },
    {
      "midi": 84,
      "hit": false,
      "t": 29296.10283333336,
      "d": 53.398033333331114,
      "v": 47
    },
    {
      "midi": 60,
      "hit": false,
      "t": 29297.316425000026,
      "d": 52.1844416666645,
      "v": 50
    },
    {
      "midi": 72,
      "hit": false,
      "t": 29297.316425000026,
      "d": 52.1844416666645,
      "v": 44
    },
    {
      "midi": 65,
      "hit": false,
      "t": 29349.50086666669,
      "d": 57.0388083333346,
      "v": 41
    },
    {
      "midi": 68,
      "hit": false,
      "t": 29349.50086666669,
      "d": 57.0388083333346,
      "v": 44
    },
    {
      "midi": 85,
      "hit": false,
      "t": 29349.50086666669,
      "d": 57.0388083333346,
      "v": 58
    },
    {
      "midi": 60,
      "hit": false,
      "t": 29406.539675000025,
      "d": 58.25240000000122,
      "v": 47
    },
    {
      "midi": 72,
      "hit": false,
      "t": 29406.539675000025,
      "d": 59.46599166666783,
      "v": 44
    },
    {
      "midi": 84,
      "hit": false,
      "t": 29406.539675000025,
      "d": 60.67958333333445,
      "v": 52
    },
    {
      "midi": 65,
      "hit": false,
      "t": 29468.432850000027,
      "d": 52.184441666668135,
      "v": 39
    },
    {
      "midi": 82,
      "hit": false,
      "t": 29468.432850000027,
      "d": 52.184441666668135,
      "v": 50
    },
    {
      "midi": 68,
      "hit": false,
      "t": 29469.646441666693,
      "d": 50.97085000000152,
      "v": 44
    },
    {
      "midi": 60,
      "hit": false,
      "t": 29520.617291666695,
      "d": 57.0388083333346,
      "v": 47
    },
    {
      "midi": 72,
      "hit": false,
      "t": 29520.617291666695,
      "d": 59.46599166666783,
      "v": 34
    },
    {
      "midi": 80,
      "hit": false,
      "t": 29520.617291666695,
      "d": 59.46599166666783,
      "v": 58
    },
    {
      "midi": 82,
      "hit": false,
      "t": 29581.29687500003,
      "d": 53.39803333333475,
      "v": 50
    },
    {
      "midi": 65,
      "hit": false,
      "t": 29582.510466666696,
      "d": 52.184441666668135,
      "v": 34
    },
    {
      "midi": 68,
      "hit": false,
      "t": 29583.724058333362,
      "d": 50.97085000000152,
      "v": 38
    },
    {
      "midi": 60,
      "hit": false,
      "t": 29634.694908333364,
      "d": 58.25240000000122,
      "v": 47
    },
    {
      "midi": 72,
      "hit": false,
      "t": 29634.694908333364,
      "d": 59.46599166666783,
      "v": 47
    },
    {
      "midi": 80,
      "hit": false,
      "t": 29634.694908333364,
      "d": 59.46599166666783,
      "v": 38
    },
    {
      "midi": 79,
      "hit": false,
      "t": 29695.3744916667,
      "d": 52.184441666668135,
      "v": 52
    },
    {
      "midi": 65,
      "hit": false,
      "t": 29696.588083333365,
      "d": 50.97085000000152,
      "v": 39
    },
    {
      "midi": 68,
      "hit": false,
      "t": 29697.80167500003,
      "d": 49.7572583333349,
      "v": 40
    },
    {
      "midi": 60,
      "hit": false,
      "t": 29747.558933333366,
      "d": 58.25240000000122,
      "v": 49
    },
    {
      "midi": 72,
      "hit": false,
      "t": 29747.558933333366,
      "d": 58.25240000000122,
      "v": 47
    },
    {
      "midi": 77,
      "hit": false,
      "t": 29747.558933333366,
      "d": 58.25240000000122,
      "v": 40
    },
    {
      "midi": 65,
      "hit": false,
      "t": 29805.811333333368,
      "d": 54.61162500000137,
      "v": 35
    },
    {
      "midi": 68,
      "hit": false,
      "t": 29805.811333333368,
      "d": 55.825216666667984,
      "v": 32
    },
    {
      "midi": 79,
      "hit": false,
      "t": 29805.811333333368,
      "d": 58.25240000000122,
      "v": 37
    },
    {
      "midi": 60,
      "hit": false,
      "t": 29865.277325000035,
      "d": 54.61162500000137,
      "v": 31
    },
    {
      "midi": 80,
      "hit": false,
      "t": 29865.277325000035,
      "d": 55.825216666667984,
      "v": 25
    },
    {
      "midi": 72,
      "hit": false,
      "t": 29866.490916666702,
      "d": 52.184441666668135,
      "v": 31
    },
    {
      "midi": 65,
      "hit": false,
      "t": 29922.31613333337,
      "d": 52.184441666668135,
      "v": 37
    },
    {
      "midi": 77,
      "hit": false,
      "t": 29922.31613333337,
      "d": 52.184441666668135,
      "v": 27
    },
    {
      "midi": 68,
      "hit": false,
      "t": 29923.529725000037,
      "d": 50.97085000000152,
      "v": 32
    },
    {
      "midi": 53,
      "hit": false,
      "t": 29974.50057500004,
      "d": 55.825216666667984,
      "v": 40
    },
    {
      "midi": 68,
      "hit": false,
      "t": 30032.75297500004,
      "d": 57.0388083333346,
      "v": 30
    },
    {
      "midi": 65,
      "hit": false,
      "t": 30032.75297500004,
      "d": 58.25240000000122,
      "v": 32
    },
    {
      "midi": 72,
      "hit": false,
      "t": 30032.75297500004,
      "d": 59.46599166666783,
      "v": 40
    },
    {
      "midi": 72,
      "hit": false,
      "t": 30093.432558333374,
      "d": 54.61162500000137,
      "v": 37
    },
    {
      "midi": 77,
      "hit": false,
      "t": 30093.432558333374,
      "d": 54.61162500000137,
      "v": 47
    },
    {
      "midi": 60,
      "hit": false,
      "t": 30094.64615000004,
      "d": 52.184441666668135,
      "v": 35
    },
    {
      "midi": 65,
      "hit": false,
      "t": 30151.684958333375,
      "d": 52.184441666668135,
      "v": 32
    },
    {
      "midi": 80,
      "hit": false,
      "t": 30151.684958333375,
      "d": 53.39803333333475,
      "v": 46
    },
    {
      "midi": 68,
      "hit": false,
      "t": 30152.89855000004,
      "d": 49.7572583333349,
      "v": 30
    },
    {
      "midi": 60,
      "hit": false,
      "t": 30206.296583333376,
      "d": 52.184441666668135,
      "v": 47
    },
    {
      "midi": 84,
      "hit": false,
      "t": 30206.296583333376,
      "d": 52.184441666668135,
      "v": 47
    },
    {
      "midi": 72,
      "hit": false,
      "t": 30207.510175000043,
      "d": 50.97085000000152,
      "v": 44
    },
    {
      "midi": 85,
      "hit": false,
      "t": 30262.121800000044,
      "d": 53.39803333333475,
      "v": 50
    },
    {
      "midi": 68,
      "hit": false,
      "t": 30263.33539166671,
      "d": 52.184441666668135,
      "v": 32
    },
    {
      "midi": 65,
      "hit": false,
      "t": 30264.548983333378,
      "d": 50.97085000000152,
      "v": 31
    },
    {
      "midi": 60,
      "hit": false,
      "t": 30317.947016666712,
      "d": 54.61162500000137,
      "v": 32
    },
    {
      "midi": 72,
      "hit": false,
      "t": 30317.947016666712,
      "d": 54.61162500000137,
      "v": 32
    },
    {
      "midi": 84,
      "hit": false,
      "t": 30317.947016666712,
      "d": 54.61162500000137,
      "v": 40
    },
    {
      "midi": 65,
      "hit": false,
      "t": 30372.558641666714,
      "d": 58.25240000000122,
      "v": 32
    },
    {
      "midi": 68,
      "hit": false,
      "t": 30372.558641666714,
      "d": 59.46599166666783,
      "v": 35
    },
    {
      "midi": 82,
      "hit": false,
      "t": 30372.558641666714,
      "d": 59.46599166666783,
      "v": 40
    },
    {
      "midi": 80,
      "hit": false,
      "t": 30433.23822500005,
      "d": 53.39803333333475,
      "v": 44
    },
    {
      "midi": 60,
      "hit": false,
      "t": 30434.451816666715,
      "d": 52.184441666668135,
      "v": 41
    },
    {
      "midi": 72,
      "hit": false,
      "t": 30435.66540833338,
      "d": 50.97085000000152,
      "v": 41
    },
    {
      "midi": 65,
      "hit": false,
      "t": 30486.636258333383,
      "d": 57.0388083333346,
      "v": 35
    },
    {
      "midi": 68,
      "hit": false,
      "t": 30486.636258333383,
      "d": 57.0388083333346,
      "v": 32
    },
    {
      "midi": 82,
      "hit": false,
      "t": 30486.636258333383,
      "d": 57.0388083333346,
      "v": 37
    },
    {
      "midi": 60,
      "hit": false,
      "t": 30543.675066666718,
      "d": 57.0388083333346,
      "v": 41
    },
    {
      "midi": 72,
      "hit": false,
      "t": 30543.675066666718,
      "d": 57.0388083333346,
      "v": 35
    },
    {
      "midi": 80,
      "hit": false,
      "t": 30543.675066666718,
      "d": 57.0388083333346,
      "v": 40
    },
    {
      "midi": 65,
      "hit": false,
      "t": 30600.713875000052,
      "d": 58.25240000000122,
      "v": 28
    },
    {
      "midi": 68,
      "hit": false,
      "t": 30600.713875000052,
      "d": 59.46599166666783,
      "v": 35
    },
    {
      "midi": 79,
      "hit": false,
      "t": 30600.713875000052,
      "d": 60.67958333333445,
      "v": 23
    },
    {
      "midi": 77,
      "hit": false,
      "t": 30663.82064166672,
      "d": 49.7572583333349,
      "v": 27
    },
    {
      "midi": 60,
      "hit": false,
      "t": 30665.034233333387,
      "d": 48.54366666666829,
      "v": 37
    },
    {
      "midi": 72,
      "hit": false,
      "t": 30665.034233333387,
      "d": 48.54366666666829,
      "v": 32
    },
    {
      "midi": 65,
      "hit": false,
      "t": 30713.577900000055,
      "d": 57.0388083333346,
      "v": 31
    },
    {
      "midi": 68,
      "hit": false,
      "t": 30713.577900000055,
      "d": 57.0388083333346,
      "v": 23
    },
    {
      "midi": 79,
      "hit": false,
      "t": 30713.577900000055,
      "d": 57.0388083333346,
      "v": 24
    },
    {
      "midi": 60,
      "hit": false,
      "t": 30770.61670833339,
      "d": 55.825216666667984,
      "v": 32
    },
    {
      "midi": 72,
      "hit": false,
      "t": 30770.61670833339,
      "d": 57.0388083333346,
      "v": 44
    },
    {
      "midi": 80,
      "hit": false,
      "t": 30770.61670833339,
      "d": 58.25240000000122,
      "v": 19
    },
    {
      "midi": 77,
      "hit": false,
      "t": 30830.082700000057,
      "d": 55.825216666667984,
      "v": 40
    },
    {
      "midi": 68,
      "hit": false,
      "t": 30831.296291666724,
      "d": 52.184441666668135,
      "v": 28
    },
    {
      "midi": 65,
      "hit": false,
      "t": 30831.296291666724,
      "d": 53.39803333333475,
      "v": 44
    },
    {
      "midi": 43,
      "hit": false,
      "t": 30888.33510000006,
      "d": 53.39803333333475,
      "v": 49
    },
    {
      "midi": 53,
      "hit": false,
      "t": 30941.733133333393,
      "d": 54.61162500000137,
      "v": 40
    },
    {
      "midi": 55,
      "hit": false,
      "t": 30941.733133333393,
      "d": 54.61162500000137,
      "v": 28
    },
    {
      "midi": 77,
      "hit": false,
      "t": 30941.733133333393,
      "d": 54.61162500000137,
      "v": 40
    },
    {
      "midi": 50,
      "hit": false,
      "t": 30999.985533333394,
      "d": 53.39803333333475,
      "v": 41
    },
    {
      "midi": 59,
      "hit": false,
      "t": 30999.985533333394,
      "d": 53.39803333333475,
      "v": 44
    },
    {
      "midi": 83,
      "hit": false,
      "t": 30999.985533333394,
      "d": 53.39803333333475,
      "v": 44
    },
    {
      "midi": 53,
      "hit": false,
      "t": 31055.810750000062,
      "d": 53.39803333333475,
      "v": 44
    },
    {
      "midi": 55,
      "hit": false,
      "t": 31055.810750000062,
      "d": 53.39803333333475,
      "v": 31
    },
    {
      "midi": 86,
      "hit": false,
      "t": 31055.810750000062,
      "d": 53.39803333333475,
      "v": 44
    },
    {
      "midi": 89,
      "hit": false,
      "t": 31114.063150000064,
      "d": 57.0388083333346,
      "v": 41
    },
    {
      "midi": 50,
      "hit": false,
      "t": 31115.27674166673,
      "d": 54.61162500000137,
      "v": 47
    },
    {
      "midi": 59,
      "hit": false,
      "t": 31116.490333333397,
      "d": 53.39803333333475,
      "v": 44
    },
    {
      "midi": 91,
      "hit": false,
      "t": 31172.315550000065,
      "d": 52.184441666668135,
      "v": 44
    },
    {
      "midi": 53,
      "hit": false,
      "t": 31173.52914166673,
      "d": 50.97085000000152,
      "v": 40
    },
    {
      "midi": 55,
      "hit": false,
      "t": 31173.52914166673,
      "d": 50.97085000000152,
      "v": 27
    },
    {
      "midi": 89,
      "hit": false,
      "t": 31228.140766666733,
      "d": 55.825216666667984,
      "v": 44
    },
    {
      "midi": 50,
      "hit": false,
      "t": 31229.3543583334,
      "d": 53.39803333333475,
      "v": 44
    },
    {
      "midi": 59,
      "hit": false,
      "t": 31230.567950000066,
      "d": 50.97085000000152,
      "v": 44
    },
    {
      "midi": 87,
      "hit": false,
      "t": 31285.179575000067,
      "d": 57.0388083333346,
      "v": 37
    },
    {
      "midi": 55,
      "hit": false,
      "t": 31286.393166666734,
      "d": 54.61162500000137,
      "v": 32
    },
    {
      "midi": 53,
      "hit": false,
      "t": 31287.6067583334,
      "d": 52.184441666668135,
      "v": 32
    },
    {
      "midi": 59,
      "hit": false,
      "t": 31343.43197500007,
      "d": 54.61162500000137,
      "v": 50
    },
    {
      "midi": 86,
      "hit": false,
      "t": 31343.43197500007,
      "d": 55.825216666667984,
      "v": 47
    },
    {
      "midi": 50,
      "hit": false,
      "t": 31344.645566666735,
      "d": 52.184441666668135,
      "v": 49
    },
    {
      "midi": 87,
      "hit": false,
      "t": 31400.470783333403,
      "d": 50.97085000000152,
      "v": 46
    },
    {
      "midi": 53,
      "hit": false,
      "t": 31401.68437500007,
      "d": 49.7572583333349,
      "v": 40
    },
    {
      "midi": 56,
      "hit": false,
      "t": 31401.68437500007,
      "d": 49.7572583333349,
      "v": 38
    },
    {
      "midi": 50,
      "hit": false,
      "t": 31451.441633333405,
      "d": 58.25240000000122,
      "v": 41
    },
    {
      "midi": 59,
      "hit": false,
      "t": 31451.441633333405,
      "d": 58.25240000000122,
      "v": 48
    },
    {
      "midi": 86,
      "hit": false,
      "t": 31451.441633333405,
      "d": 58.25240000000122,
      "v": 35
    },
    {
      "midi": 53,
      "hit": false,
      "t": 31509.694033333406,
      "d": 57.0388083333346,
      "v": 44
    },
    {
      "midi": 56,
      "hit": false,
      "t": 31509.694033333406,
      "d": 57.0388083333346,
      "v": 40
    },
    {
      "midi": 84,
      "hit": false,
      "t": 31509.694033333406,
      "d": 57.0388083333346,
      "v": 27
    },
    {
      "midi": 50,
      "hit": false,
      "t": 31566.73284166674,
      "d": 55.825216666667984,
      "v": 47
    },
    {
      "midi": 59,
      "hit": false,
      "t": 31566.73284166674,
      "d": 55.825216666667984,
      "v": 48
    },
    {
      "midi": 83,
      "hit": false,
      "t": 31566.73284166674,
      "d": 55.825216666667984,
      "v": 32
    },
    {
      "midi": 53,
      "hit": false,
      "t": 31622.55805833341,
      "d": 57.0388083333346,
      "v": 40
    },
    {
      "midi": 55,
      "hit": false,
      "t": 31622.55805833341,
      "d": 57.0388083333346,
      "v": 37
    },
    {
      "midi": 84,
      "hit": false,
      "t": 31622.55805833341,
      "d": 57.0388083333346,
      "v": 27
    },
    {
      "midi": 50,
      "hit": false,
      "t": 31679.596866666743,
      "d": 57.0388083333346,
      "v": 41
    },
    {
      "midi": 59,
      "hit": false,
      "t": 31679.596866666743,
      "d": 57.0388083333346,
      "v": 50
    },
    {
      "midi": 86,
      "hit": false,
      "t": 31679.596866666743,
      "d": 57.0388083333346,
      "v": 14
    },
    {
      "midi": 55,
      "hit": false,
      "t": 31736.635675000078,
      "d": 55.825216666667984,
      "v": 44
    },
    {
      "midi": 53,
      "hit": false,
      "t": 31736.635675000078,
      "d": 57.0388083333346,
      "v": 36
    },
    {
      "midi": 83,
      "hit": false,
      "t": 31736.635675000078,
      "d": 58.25240000000122,
      "v": 20
    },
    {
      "midi": 43,
      "hit": false,
      "t": 31796.101666666746,
      "d": 54.61162500000137,
      "v": 49
    },
    {
      "midi": 53,
      "hit": false,
      "t": 31850.713291666747,
      "d": 54.61162500000137,
      "v": 36
    },
    {
      "midi": 55,
      "hit": false,
      "t": 31850.713291666747,
      "d": 54.61162500000137,
      "v": 40
    },
    {
      "midi": 77,
      "hit": false,
      "t": 31850.713291666747,
      "d": 54.61162500000137,
      "v": 35
    },
    {
      "midi": 83,
      "hit": false,
      "t": 31908.965691666748,
      "d": 53.39803333333475,
      "v": 40
    },
    {
      "midi": 59,
      "hit": false,
      "t": 31911.39287500008,
      "d": 50.97085000000152,
      "v": 43
    },
    {
      "midi": 50,
      "hit": false,
      "t": 31912.606466666748,
      "d": 49.7572583333349,
      "v": 41
    },
    {
      "midi": 86,
      "hit": false,
      "t": 31966.004500000083,
      "d": 53.39803333333475,
      "v": 47
    },
    {
      "midi": 53,
      "hit": false,
      "t": 31967.21809166675,
      "d": 52.184441666668135,
      "v": 40
    },
    {
      "midi": 55,
      "hit": false,
      "t": 31967.21809166675,
      "d": 52.184441666668135,
      "v": 28
    },
    {
      "midi": 50,
      "hit": false,
      "t": 32021.82971666675,
      "d": 54.61162500000137,
      "v": 41
    },
    {
      "midi": 59,
      "hit": false,
      "t": 32021.82971666675,
      "d": 54.61162500000137,
      "v": 43
    },
    {
      "midi": 89,
      "hit": false,
      "t": 32021.82971666675,
      "d": 54.61162500000137,
      "v": 47
    },
    {
      "midi": 91,
      "hit": false,
      "t": 32080.082116666752,
      "d": 57.0388083333346,
      "v": 49
    },
    {
      "midi": 53,
      "hit": false,
      "t": 32081.29570833342,
      "d": 55.825216666667984,
      "v": 32
    },
    {
      "midi": 55,
      "hit": false,
      "t": 32082.509300000085,
      "d": 53.39803333333475,
      "v": 28
    },
    {
      "midi": 89,
      "hit": false,
      "t": 32138.334516666753,
      "d": 52.184441666668135,
      "v": 47
    },
    {
      "midi": 59,
      "hit": false,
      "t": 32139.54810833342,
      "d": 50.97085000000152,
      "v": 44
    },
    {
      "midi": 50,
      "hit": false,
      "t": 32140.761700000086,
      "d": 49.7572583333349,
      "v": 35
    },
    {
      "midi": 53,
      "hit": false,
      "t": 32194.15973333342,
      "d": 55.825216666667984,
      "v": 34
    },
    {
      "midi": 87,
      "hit": false,
      "t": 32194.15973333342,
      "d": 57.0388083333346,
      "v": 44
    },
    {
      "midi": 55,
      "hit": false,
      "t": 32195.373325000088,
      "d": 54.61162500000137,
      "v": 27
    },
    {
      "midi": 50,
      "hit": false,
      "t": 32196.586916666754,
      "d": 50.97085000000152,
      "v": 10
    },
    {
      "midi": 50,
      "hit": false,
      "t": 32252.412133333422,
      "d": 52.184441666668135,
      "v": 44
    },
    {
      "midi": 86,
      "hit": false,
      "t": 32252.412133333422,
      "d": 52.184441666668135,
      "v": 35
    },
    {
      "midi": 59,
      "hit": false,
      "t": 32253.62572500009,
      "d": 50.97085000000152,
      "v": 48
    },
    {
      "midi": 56,
      "hit": false,
      "t": 32304.59657500009,
      "d": 58.25240000000122,
      "v": 40
    },
    {
      "midi": 53,
      "hit": false,
      "t": 32304.59657500009,
      "d": 59.46599166666783,
      "v": 40
    },
    {
      "midi": 87,
      "hit": false,
      "t": 32304.59657500009,
      "d": 59.46599166666783,
      "v": 46
    },
    {
      "midi": 86,
      "hit": false,
      "t": 32365.276158333425,
      "d": 52.184441666668135,
      "v": 28
    },
    {
      "midi": 50,
      "hit": false,
      "t": 32366.48975000009,
      "d": 50.97085000000152,
      "v": 40
    },
    {
      "midi": 59,
      "hit": false,
      "t": 32367.70334166676,
      "d": 49.7572583333349,
      "v": 43
    },
    {
      "midi": 53,
      "hit": false,
      "t": 32417.460600000093,
      "d": 57.0388083333346,
      "v": 43
    },
    {
      "midi": 56,
      "hit": false,
      "t": 32417.460600000093,
      "d": 57.0388083333346,
      "v": 43
    },
    {
      "midi": 84,
      "hit": false,
      "t": 32417.460600000093,
      "d": 57.0388083333346,
      "v": 31
    },
    {
      "midi": 50,
      "hit": false,
      "t": 32474.499408333428,
      "d": 58.25240000000122,
      "v": 40
    },
    {
      "midi": 59,
      "hit": false,
      "t": 32474.499408333428,
      "d": 59.46599166666783,
      "v": 50
    },
    {
      "midi": 83,
      "hit": false,
      "t": 32474.499408333428,
      "d": 60.67958333333445,
      "v": 40
    },
    {
      "midi": 53,
      "hit": false,
      "t": 32536.39258333343,
      "d": 54.61162500000137,
      "v": 38
    },
    {
      "midi": 84,
      "hit": false,
      "t": 32536.39258333343,
      "d": 55.825216666667984,
      "v": 28
    },
    {
      "midi": 55,
      "hit": false,
      "t": 32537.606175000095,
      "d": 52.184441666668135,
      "v": 40
    },
    {
      "midi": 59,
      "hit": false,
      "t": 32593.431391666763,
      "d": 52.184441666668135,
      "v": 44
    },
    {
      "midi": 86,
      "hit": false,
      "t": 32593.431391666763,
      "d": 52.184441666668135,
      "v": 27
    },
    {
      "midi": 50,
      "hit": false,
      "t": 32594.64498333343,
      "d": 50.97085000000152,
      "v": 40
    },
    {
      "midi": 53,
      "hit": false,
      "t": 32645.61583333343,
      "d": 57.0388083333346,
      "v": 28
    },
    {
      "midi": 55,
      "hit": false,
      "t": 32645.61583333343,
      "d": 57.0388083333346,
      "v": 44
    },
    {
      "midi": 83,
      "hit": false,
      "t": 32645.61583333343,
      "d": 57.0388083333346,
      "v": 37
    },
    {
      "midi": 48,
      "hit": false,
      "t": 32702.654641666766,
      "d": 57.0388083333346,
      "v": 47
    },
    {
      "midi": 63,
      "hit": false,
      "t": 32759.6934500001,
      "d": 57.03880833333096,
      "v": 17
    },
    {
      "midi": 60,
      "hit": false,
      "t": 32759.6934500001,
      "d": 58.25239999999758,
      "v": 40
    },
    {
      "midi": 79,
      "hit": false,
      "t": 32759.6934500001,
      "d": 58.25239999999758,
      "v": 44
    },
    {
      "midi": 84,
      "hit": false,
      "t": 32819.159441666765,
      "d": 55.825216666664346,
      "v": 28
    },
    {
      "midi": 67,
      "hit": false,
      "t": 32820.37303333343,
      "d": 52.1844416666645,
      "v": 32
    },
    {
      "midi": 55,
      "hit": false,
      "t": 32820.37303333343,
      "d": 53.398033333331114,
      "v": 40
    },
    {
      "midi": 63,
      "hit": false,
      "t": 32876.198250000096,
      "d": 52.1844416666645,
      "v": 35
    },
    {
      "midi": 87,
      "hit": false,
      "t": 32876.198250000096,
      "d": 52.1844416666645,
      "v": 50
    },
    {
      "midi": 60,
      "hit": false,
      "t": 32877.41184166676,
      "d": 50.97084999999788,
      "v": 41
    },
    {
      "midi": 91,
      "hit": false,
      "t": 32932.02346666676,
      "d": 53.398033333331114,
      "v": 53
    },
    {
      "midi": 55,
      "hit": false,
      "t": 32933.23705833343,
      "d": 52.1844416666645,
      "v": 47
    },
    {
      "midi": 67,
      "hit": false,
      "t": 32933.23705833343,
      "d": 52.1844416666645,
      "v": 37
    },
    {
      "midi": 63,
      "hit": false,
      "t": 32990.27586666676,
      "d": 52.1844416666645,
      "v": 37
    },
    {
      "midi": 92,
      "hit": false,
      "t": 32990.27586666676,
      "d": 52.1844416666645,
      "v": 46
    },
    {
      "midi": 60,
      "hit": false,
      "t": 32991.489458333424,
      "d": 50.97084999999788,
      "v": 37
    },
    {
      "midi": 91,
      "hit": false,
      "t": 33044.887491666756,
      "d": 57.03880833333096,
      "v": 40
    },
    {
      "midi": 55,
      "hit": false,
      "t": 33046.10108333342,
      "d": 55.825216666664346,
      "v": 41
    },
    {
      "midi": 67,
      "hit": false,
      "t": 33047.31467500009,
      "d": 53.398033333331114,
      "v": 40
    },
    {
      "midi": 89,
      "hit": false,
      "t": 33103.13989166675,
      "d": 52.1844416666645,
      "v": 40
    },
    {
      "midi": 63,
      "hit": false,
      "t": 33104.35348333342,
      "d": 50.97084999999788,
      "v": 40
    },
    {
      "midi": 60,
      "hit": false,
      "t": 33105.567075000086,
      "d": 49.757258333331265,
      "v": 37
    },
    {
      "midi": 67,
      "hit": false,
      "t": 33155.32433333342,
      "d": 58.25239999999758,
      "v": 49
    },
    {
      "midi": 55,
      "hit": false,
      "t": 33155.32433333342,
      "d": 59.465991666664195,
      "v": 49
    },
    {
      "midi": 87,
      "hit": false,
      "t": 33155.32433333342,
      "d": 60.67958333333081,
      "v": 46
    },
    {
      "midi": 63,
      "hit": false,
      "t": 33217.217508333415,
      "d": 53.398033333331114,
      "v": 37
    },
    {
      "midi": 89,
      "hit": false,
      "t": 33217.217508333415,
      "d": 53.398033333331114,
      "v": 32
    },
    {
      "midi": 60,
      "hit": false,
      "t": 33218.43110000008,
      "d": 52.1844416666645,
      "v": 37
    },
    {
      "midi": 67,
      "hit": false,
      "t": 33270.615541666746,
      "d": 58.25239999999758,
      "v": 41
    },
    {
      "midi": 55,
      "hit": false,
      "t": 33270.615541666746,
      "d": 59.465991666664195,
      "v": 44
    },
    {
      "midi": 87,
      "hit": false,
      "t": 33270.615541666746,
      "d": 59.465991666664195,
      "v": 28
    },
    {
      "midi": 86,
      "hit": false,
      "t": 33331.29512500008,
      "d": 52.1844416666645,
      "v": 28
    },
    {
      "midi": 60,
      "hit": false,
      "t": 33332.50871666674,
      "d": 50.97084999999788,
      "v": 35
    },
    {
      "midi": 63,
      "hit": false,
      "t": 33332.50871666674,
      "d": 50.97084999999788,
      "v": 37
    },
    {
      "midi": 55,
      "hit": false,
      "t": 33383.47956666674,
      "d": 57.03880833333096,
      "v": 49
    },
    {
      "midi": 67,
      "hit": false,
      "t": 33383.47956666674,
      "d": 57.03880833333096,
      "v": 53
    },
    {
      "midi": 84,
      "hit": false,
      "t": 33383.47956666674,
      "d": 57.03880833333096,
      "v": 35
    },
    {
      "midi": 60,
      "hit": false,
      "t": 33440.51837500007,
      "d": 59.465991666664195,
      "v": 37
    },
    {
      "midi": 63,
      "hit": false,
      "t": 33440.51837500007,
      "d": 59.465991666664195,
      "v": 40
    },
    {
      "midi": 86,
      "hit": false,
      "t": 33440.51837500007,
      "d": 60.67958333333081,
      "v": 35
    },
    {
      "midi": 87,
      "hit": false,
      "t": 33502.41155000007,
      "d": 55.825216666664346,
      "v": 37
    },
    {
      "midi": 55,
      "hit": false,
      "t": 33503.62514166674,
      "d": 53.398033333331114,
      "v": 41
    },
    {
      "midi": 67,
      "hit": false,
      "t": 33503.62514166674,
      "d": 53.398033333331114,
      "v": 44
    },
    {
      "midi": 84,
      "hit": false,
      "t": 33559.4503583334,
      "d": 52.1844416666645,
      "v": 35
    },
    {
      "midi": 63,
      "hit": false,
      "t": 33560.66395000007,
      "d": 50.97084999999788,
      "v": 37
    },
    {
      "midi": 60,
      "hit": false,
      "t": 33561.877541666734,
      "d": 49.757258333331265,
      "v": 40
    },
    {
      "midi": 67,
      "hit": false,
      "t": 33561.877541666734,
      "d": 49.757258333331265,
      "v": 28
    },
    {
      "midi": 48,
      "hit": false,
      "t": 33611.634800000065,
      "d": 112.86402499999531,
      "v": 41
    },
    {
      "midi": 79,
      "hit": false,
      "t": 33668.673608333396,
      "d": 54.61162499999773,
      "v": 41
    },
    {
      "midi": 84,
      "hit": false,
      "t": 33726.926008333394,
      "d": 55.825216666664346,
      "v": 47
    },
    {
      "midi": 67,
      "hit": false,
      "t": 33728.13960000006,
      "d": 53.398033333331114,
      "v": 37
    },
    {
      "midi": 87,
      "hit": false,
      "t": 33783.964816666725,
      "d": 55.825216666664346,
      "v": 44
    },
    {
      "midi": 63,
      "hit": false,
      "t": 33785.17840833339,
      "d": 54.61162499999773,
      "v": 50
    },
    {
      "midi": 72,
      "hit": false,
      "t": 33841.003625000056,
      "d": 53.398033333331114,
      "v": 49
    },
    {
      "midi": 91,
      "hit": false,
      "t": 33841.003625000056,
      "d": 53.398033333331114,
      "v": 49
    },
    {
      "midi": 67,
      "hit": false,
      "t": 33894.40165833339,
      "d": 57.03880833333096,
      "v": 44
    },
    {
      "midi": 92,
      "hit": false,
      "t": 33894.40165833339,
      "d": 57.03880833333096,
      "v": 40
    },
    {
      "midi": 72,
      "hit": false,
      "t": 33953.86765000005,
      "d": 54.61162499999773,
      "v": 47
    },
    {
      "midi": 91,
      "hit": false,
      "t": 33953.86765000005,
      "d": 54.61162499999773,
      "v": 40
    },
    {
      "midi": 89,
      "hit": false,
      "t": 34012.12005000005,
      "d": 55.825216666664346,
      "v": 37
    },
    {
      "midi": 67,
      "hit": false,
      "t": 34013.333641666715,
      "d": 53.398033333331114,
      "v": 47
    },
    {
      "midi": 87,
      "hit": false,
      "t": 34069.15885833338,
      "d": 52.1844416666645,
      "v": 40
    },
    {
      "midi": 75,
      "hit": false,
      "t": 34070.372450000046,
      "d": 50.97084999999788,
      "v": 54
    },
    {
      "midi": 72,
      "hit": false,
      "t": 34124.984075000044,
      "d": 53.398033333331114,
      "v": 44
    },
    {
      "midi": 89,
      "hit": false,
      "t": 34124.984075000044,
      "d": 53.398033333331114,
      "v": 41
    },
    {
      "midi": 75,
      "hit": false,
      "t": 34180.80929166671,
      "d": 57.03880833333096,
      "v": 54
    },
    {
      "midi": 87,
      "hit": false,
      "t": 34180.80929166671,
      "d": 58.25239999999758,
      "v": 35
    },
    {
      "midi": 86,
      "hit": false,
      "t": 34240.27528333337,
      "d": 54.61162499999773,
      "v": 35
    },
    {
      "midi": 72,
      "hit": false,
      "t": 34241.48887500004,
      "d": 52.1844416666645,
      "v": 47
    },
    {
      "midi": 84,
      "hit": false,
      "t": 34296.10050000004,
      "d": 53.398033333331114,
      "v": 31
    },
    {
      "midi": 79,
      "hit": false,
      "t": 34297.3140916667,
      "d": 52.1844416666645,
      "v": 53
    },
    {
      "midi": 75,
      "hit": false,
      "t": 34349.49853333337,
      "d": 57.03880833333096,
      "v": 54
    },
    {
      "midi": 86,
      "hit": false,
      "t": 34349.49853333337,
      "d": 57.03880833333096,
      "v": 35
    },
    {
      "midi": 79,
      "hit": false,
      "t": 34406.5373416667,
      "d": 57.03880833333096,
      "v": 67
    },
    {
      "midi": 87,
      "hit": false,
      "t": 34406.5373416667,
      "d": 57.03880833333096,
      "v": 50
    },
    {
      "midi": 75,
      "hit": false,
      "t": 34463.57615000003,
      "d": 59.465991666664195,
      "v": 50
    },
    {
      "midi": 84,
      "hit": false,
      "t": 34463.57615000003,
      "d": 59.465991666664195,
      "v": 41
    },
    {
      "midi": 77,
      "hit": false,
      "t": 34524.25573333336,
      "d": 334.9512999999861,
      "v": 70
    },
    {
      "midi": 80,
      "hit": false,
      "t": 34524.25573333336,
      "d": 334.9512999999861,
      "v": 80
    },
    {
      "midi": 85,
      "hit": false,
      "t": 34580.080950000025,
      "d": 57.03880833333096,
      "v": 55
    },
    {
      "midi": 87,
      "hit": false,
      "t": 34638.33335000002,
      "d": 50.97084999999788,
      "v": 44
    },
    {
      "midi": 85,
      "hit": false,
      "t": 34690.51779166669,
      "d": 55.825216666664346,
      "v": 47
    },
    {
      "midi": 87,
      "hit": false,
      "t": 34749.98378333335,
      "d": 54.61162499999773,
      "v": 40
    },
    {
      "midi": 85,
      "hit": false,
      "t": 34804.59540833335,
      "d": 54.61162499999773,
      "v": 47
    },
    {
      "midi": 84,
      "hit": false,
      "t": 34864.06140000001,
      "d": 53.398033333331114,
      "v": 36
    },
    {
      "midi": 79,
      "hit": false,
      "t": 34864.06140000001,
      "d": 110.43684166666208,
      "v": 44
    },
    {
      "midi": 75,
      "hit": false,
      "t": 34865.27499166668,
      "d": 109.22324999999546,
      "v": 40
    },
    {
      "midi": 85,
      "hit": false,
      "t": 34917.459433333344,
      "d": 57.03880833333096,
      "v": 35
    },
    {
      "midi": 77,
      "hit": false,
      "t": 34976.92542500001,
      "d": 224.514458333324,
      "v": 59
    },
    {
      "midi": 74,
      "hit": false,
      "t": 34978.139016666675,
      "d": 223.30086666665738,
      "v": 50
    },
    {
      "midi": 83,
      "hit": false,
      "t": 35033.96423333334,
      "d": 53.398033333331114,
      "v": 50
    },
    {
      "midi": 84,
      "hit": false,
      "t": 35092.21663333334,
      "d": 52.1844416666645,
      "v": 56
    },
    {
      "midi": 83,
      "hit": false,
      "t": 35146.828258333335,
      "d": 54.61162499999773,
      "v": 47
    },
    {
      "midi": 75,
      "hit": false,
      "t": 35201.43988333333,
      "d": 228.15523333332385,
      "v": 55
    },
    {
      "midi": 79,
      "hit": false,
      "t": 35201.43988333333,
      "d": 228.15523333332385,
      "v": 56
    },
    {
      "midi": 84,
      "hit": false,
      "t": 35258.47869166666,
      "d": 57.03880833333096,
      "v": 50
    },
    {
      "midi": 86,
      "hit": false,
      "t": 35315.517499999994,
      "d": 57.03880833333096,
      "v": 50
    },
    {
      "midi": 84,
      "hit": false,
      "t": 35372.556308333325,
      "d": 57.03880833333096,
      "v": 50
    },
    {
      "midi": 77,
      "hit": false,
      "t": 35429.59511666666,
      "d": 342.2328499999858,
      "v": 80
    },
    {
      "midi": 80,
      "hit": false,
      "t": 35429.59511666666,
      "d": 342.2328499999858,
      "v": 86
    },
    {
      "midi": 85,
      "hit": false,
      "t": 35486.63392499999,
      "d": 57.03880833333096,
      "v": 74
    },
    {
      "midi": 87,
      "hit": false,
      "t": 35543.67273333332,
      "d": 57.03880833333096,
      "v": 38
    },
    {
      "midi": 85,
      "hit": false,
      "t": 35600.71154166665,
      "d": 53.398033333331114,
      "v": 32
    },
    {
      "midi": 87,
      "hit": false,
      "t": 35657.75034999998,
      "d": 54.61162499999773,
      "v": 40
    },
    {
      "midi": 85,
      "hit": false,
      "t": 35716.00274999998,
      "d": 54.61162499999773,
      "v": 45
    },
    {
      "midi": 84,
      "hit": false,
      "t": 35773.04155833331,
      "d": 52.1844416666645,
      "v": 23
    },
    {
      "midi": 79,
      "hit": false,
      "t": 35774.255149999975,
      "d": 111.65043333332869,
      "v": 48
    },
    {
      "midi": 75,
      "hit": false,
      "t": 35775.46874166664,
      "d": 109.22324999999546,
      "v": 48
    },
    {
      "midi": 85,
      "hit": false,
      "t": 35827.65318333331,
      "d": 55.825216666664346,
      "v": 25
    },
    {
      "midi": 74,
      "hit": false,
      "t": 35887.11917499997,
      "d": 223.30086666665738,
      "v": 49
    },
    {
      "midi": 77,
      "hit": false,
      "t": 35887.11917499997,
      "d": 223.30086666665738,
      "v": 55
    },
    {
      "midi": 83,
      "hit": false,
      "t": 35941.73079999997,
      "d": 55.825216666664346,
      "v": 42
    },
    {
      "midi": 84,
      "hit": false,
      "t": 36001.19679166663,
      "d": 52.1844416666645,
      "v": 55
    },
    {
      "midi": 83,
      "hit": false,
      "t": 36057.0220083333,
      "d": 53.398033333331114,
      "v": 48
    },
    {
      "midi": 75,
      "hit": false,
      "t": 36112.84722499996,
      "d": 225.72804999999062,
      "v": 59
    },
    {
      "midi": 79,
      "hit": false,
      "t": 36112.84722499996,
      "d": 225.72804999999062,
      "v": 52
    },
    {
      "midi": 84,
      "hit": false,
      "t": 36167.45884999996,
      "d": 58.25239999999758,
      "v": 48
    },
    {
      "midi": 86,
      "hit": false,
      "t": 36226.92484166662,
      "d": 55.825216666664346,
      "v": 48
    },
    {
      "midi": 84,
      "hit": false,
      "t": 36283.963649999954,
      "d": 54.61162499999773,
      "v": 43
    },
    {
      "midi": 77,
      "hit": false,
      "t": 36338.57527499995,
      "d": 339.80566666665254,
      "v": 69
    },
    {
      "midi": 80,
      "hit": false,
      "t": 36338.57527499995,
      "d": 339.80566666665254,
      "v": 68
    },
    {
      "midi": 85,
      "hit": false,
      "t": 36395.61408333328,
      "d": 59.465991666664195,
      "v": 72
    },
    {
      "midi": 87,
      "hit": false,
      "t": 36456.293666666614,
      "d": 52.1844416666645,
      "v": 38
    },
    {
      "midi": 85,
      "hit": false,
      "t": 36508.47810833328,
      "d": 57.03880833333096,
      "v": 28
    },
    {
      "midi": 87,
      "hit": false,
      "t": 36565.51691666661,
      "d": 55.825216666664346,
      "v": 31
    },
    {
      "midi": 85,
      "hit": false,
      "t": 36622.55572499994,
      "d": 55.825216666664346,
      "v": 44
    },
    {
      "midi": 84,
      "hit": false,
      "t": 36678.380941666604,
      "d": 58.25239999999758,
      "v": 44
    },
    {
      "midi": 75,
      "hit": false,
      "t": 36678.380941666604,
      "d": 112.86402499999531,
      "v": 44
    },
    {
      "midi": 79,
      "hit": false,
      "t": 36678.380941666604,
      "d": 112.86402499999531,
      "v": 41
    },
    {
      "midi": 86,
      "hit": false,
      "t": 36736.6333416666,
      "d": 54.61162499999773,
      "v": 21
    },
    {
      "midi": 74,
      "hit": false,
      "t": 36796.099333333266,
      "d": 223.30086666665738,
      "v": 44
    },
    {
      "midi": 77,
      "hit": false,
      "t": 36796.099333333266,
      "d": 223.30086666665738,
      "v": 48
    },
    {
      "midi": 83,
      "hit": false,
      "t": 36850.710958333264,
      "d": 54.61162499999773,
      "v": 39
    },
    {
      "midi": 84,
      "hit": false,
      "t": 36910.17694999993,
      "d": 53.398033333331114,
      "v": 39
    },
    {
      "midi": 83,
      "hit": false,
      "t": 36964.788574999926,
      "d": 54.61162499999773,
      "v": 34
    },
    {
      "midi": 72,
      "hit": false,
      "t": 37021.82738333326,
      "d": 225.72804999999062,
      "v": 43
    },
    {
      "midi": 75,
      "hit": false,
      "t": 37021.82738333326,
      "d": 225.72804999999062,
      "v": 52
    },
    {
      "midi": 80,
      "hit": false,
      "t": 37078.86619166659,
      "d": 54.61162499999773,
      "v": 46
    },
    {
      "midi": 82,
      "hit": false,
      "t": 37133.477816666586,
      "d": 55.825216666664346,
      "v": 40
    },
    {
      "midi": 80,
      "hit": false,
      "t": 37189.30303333325,
      "d": 58.25239999999758,
      "v": 38
    },
    {
      "midi": 71,
      "hit": false,
      "t": 37247.55543333325,
      "d": 226.94164166665723,
      "v": 48
    },
    {
      "midi": 74,
      "hit": false,
      "t": 37247.55543333325,
      "d": 226.94164166665723,
      "v": 40
    },
    {
      "midi": 79,
      "hit": false,
      "t": 37304.59424166658,
      "d": 57.03880833333096,
      "v": 40
    },
    {
      "midi": 80,
      "hit": false,
      "t": 37364.06023333324,
      "d": 53.398033333331114,
      "v": 40
    },
    {
      "midi": 79,
      "hit": false,
      "t": 37417.458266666574,
      "d": 57.03880833333096,
      "v": 40
    },
    {
      "midi": 69,
      "hit": false,
      "t": 37474.497074999905,
      "d": 229.36882499999047,
      "v": 40
    },
    {
      "midi": 72,
      "hit": false,
      "t": 37474.497074999905,
      "d": 230.58241666665708,
      "v": 46
    },
    {
      "midi": 78,
      "hit": false,
      "t": 37531.535883333236,
      "d": 55.825216666664346,
      "v": 42
    },
    {
      "midi": 79,
      "hit": false,
      "t": 37588.57469166657,
      "d": 54.61162499999773,
      "v": 39
    },
    {
      "midi": 78,
      "hit": false,
      "t": 37648.04068333323,
      "d": 53.398033333331114,
      "v": 42
    },
    {
      "midi": 72,
      "hit": false,
      "t": 37706.29308333323,
      "d": 222.08727499999077,
      "v": 43
    },
    {
      "midi": 68,
      "hit": false,
      "t": 37707.506674999895,
      "d": 220.87368333332415,
      "v": 48
    },
    {
      "midi": 77,
      "hit": false,
      "t": 37760.904708333226,
      "d": 53.398033333331114,
      "v": 38
    },
    {
      "midi": 79,
      "hit": false,
      "t": 37816.72992499989,
      "d": 57.03880833333096,
      "v": 37
    },
    {
      "midi": 77,
      "hit": false,
      "t": 37873.76873333322,
      "d": 54.61162499999773,
      "v": 34
    },
    {
      "midi": 67,
      "hit": false,
      "t": 37930.80754166655,
      "d": 228.15523333332385,
      "v": 44
    },
    {
      "midi": 72,
      "hit": false,
      "t": 37930.80754166655,
      "d": 229.36882499999047,
      "v": 41
    },
    {
      "midi": 75,
      "hit": false,
      "t": 37987.84634999988,
      "d": 54.61162499999773,
      "v": 49
    },
    {
      "midi": 77,
      "hit": false,
      "t": 38044.885158333214,
      "d": 54.61162499999773,
      "v": 25
    },
    {
      "midi": 75,
      "hit": false,
      "t": 38099.49678333321,
      "d": 58.25239999999758,
      "v": 31
    },
    {
      "midi": 66,
      "hit": false,
      "t": 38161.38995833321,
      "d": 224.514458333324,
      "v": 52
    },
    {
      "midi": 75,
      "hit": false,
      "t": 38216.00158333321,
      "d": 53.398033333331114,
      "v": 39
    },
    {
      "midi": 77,
      "hit": false,
      "t": 38269.39961666654,
      "d": 58.25239999999758,
      "v": 28
    },
    {
      "midi": 75,
      "hit": false,
      "t": 38330.07919999987,
      "d": 55.825216666664346,
      "v": 30
    },
    {
      "midi": 69,
      "hit": false,
      "t": 38387.1180083332,
      "d": 222.08727499999077,
      "v": 48
    },
    {
      "midi": 74,
      "hit": false,
      "t": 38441.7296333332,
      "d": 55.825216666664346,
      "v": 25
    },
    {
      "midi": 75,
      "hit": false,
      "t": 38497.55484999986,
      "d": 54.61162499999773,
      "v": 32
    },
    {
      "midi": 74,
      "hit": false,
      "t": 38554.59365833319,
      "d": 54.61162499999773,
      "v": 24
    },
    {
      "midi": 67,
      "hit": false,
      "t": 38612.84605833319,
      "d": 452.66969166664785,
      "v": 51
    },
    {
      "midi": 55,
      "hit": false,
      "t": 38614.05964999986,
      "d": 451.45609999998123,
      "v": 51
    },
    {
      "midi": 63,
      "hit": false,
      "t": 38615.273241666524,
      "d": 224.514458333324,
      "v": 50
    },
    {
      "midi": 72,
      "hit": false,
      "t": 38669.88486666652,
      "d": 53.398033333331114,
      "v": 34
    },
    {
      "midi": 74,
      "hit": false,
      "t": 38728.13726666652,
      "d": 52.1844416666645,
      "v": 33
    },
    {
      "midi": 72,
      "hit": false,
      "t": 38782.74889166652,
      "d": 54.61162499999773,
      "v": 31
    },
    {
      "midi": 62,
      "hit": false,
      "t": 38841.001291666515,
      "d": 224.514458333324,
      "v": 41
    },
    {
      "midi": 71,
      "hit": false,
      "t": 38898.040099999846,
      "d": 53.398033333331114,
      "v": 25
    },
    {
      "midi": 72,
      "hit": false,
      "t": 38953.86531666651,
      "d": 54.61162499999773,
      "v": 30
    },
    {
      "midi": 71,
      "hit": false,
      "t": 39010.90412499984,
      "d": 54.61162499999773,
      "v": 28
    },
    {
      "midi": 53,
      "hit": false,
      "t": 39065.51574999984,
      "d": 341.01925833331916,
      "v": 79
    },
    {
      "midi": 56,
      "hit": false,
      "t": 39065.51574999984,
      "d": 341.01925833331916,
      "v": 98
    },
    {
      "midi": 61,
      "hit": false,
      "t": 39065.51574999984,
      "d": 341.01925833331916,
      "v": 90
    },
    {
      "midi": 68,
      "hit": false,
      "t": 39122.55455833317,
      "d": 55.825216666664346,
      "v": 40
    },
    {
      "midi": 80,
      "hit": false,
      "t": 39178.379774999834,
      "d": 57.03880833333096,
      "v": 38
    },
    {
      "midi": 68,
      "hit": false,
      "t": 39235.418583333165,
      "d": 57.03880833333096,
      "v": 32
    },
    {
      "midi": 80,
      "hit": false,
      "t": 39292.457391666496,
      "d": 59.465991666664195,
      "v": 58
    },
    {
      "midi": 68,
      "hit": false,
      "t": 39353.13697499983,
      "d": 53.398033333331114,
      "v": 50
    },
    {
      "midi": 80,
      "hit": false,
      "t": 39406.53500833316,
      "d": 55.825216666664346,
      "v": 55
    },
    {
      "midi": 55,
      "hit": false,
      "t": 39406.53500833316,
      "d": 112.86402499999531,
      "v": 70
    },
    {
      "midi": 51,
      "hit": false,
      "t": 39406.53500833316,
      "d": 114.07761666666192,
      "v": 63
    },
    {
      "midi": 60,
      "hit": false,
      "t": 39406.53500833316,
      "d": 115.29120833332854,
      "v": 67
    },
    {
      "midi": 68,
      "hit": false,
      "t": 39462.36022499982,
      "d": 57.03880833333096,
      "v": 24
    },
    {
      "midi": 59,
      "hit": false,
      "t": 39523.03980833315,
      "d": 223.30086666665738,
      "v": 74
    },
    {
      "midi": 50,
      "hit": false,
      "t": 39524.25339999982,
      "d": 222.08727499999077,
      "v": 70
    },
    {
      "midi": 53,
      "hit": false,
      "t": 39524.25339999982,
      "d": 222.08727499999077,
      "v": 74
    },
    {
      "midi": 68,
      "hit": false,
      "t": 39577.65143333315,
      "d": 55.825216666664346,
      "v": 47
    },
    {
      "midi": 80,
      "hit": false,
      "t": 39634.69024166648,
      "d": 54.61162499999773,
      "v": 58
    },
    {
      "midi": 79,
      "hit": false,
      "t": 39691.72904999981,
      "d": 54.61162499999773,
      "v": 47
    },
    {
      "midi": 77,
      "hit": false,
      "t": 39746.34067499981,
      "d": 57.03880833333096,
      "v": 50
    },
    {
      "midi": 51,
      "hit": false,
      "t": 39746.34067499981,
      "d": 226.94164166665723,
      "v": 68
    },
    {
      "midi": 55,
      "hit": false,
      "t": 39746.34067499981,
      "d": 226.94164166665723,
      "v": 67
    },
    {
      "midi": 60,
      "hit": false,
      "t": 39746.34067499981,
      "d": 226.94164166665723,
      "v": 67
    },
    {
      "midi": 75,
      "hit": false,
      "t": 39805.806666666474,
      "d": 55.825216666664346,
      "v": 44
    },
    {
      "midi": 74,
      "hit": false,
      "t": 39861.63188333314,
      "d": 57.03880833333096,
      "v": 52
    },
    {
      "midi": 72,
      "hit": false,
      "t": 39921.0978749998,
      "d": 52.1844416666645,
      "v": 47
    },
    {
      "midi": 53,
      "hit": false,
      "t": 39973.28231666647,
      "d": 344.660033333319,
      "v": 79
    },
    {
      "midi": 56,
      "hit": false,
      "t": 39973.28231666647,
      "d": 345.8736249999856,
      "v": 90
    },
    {
      "midi": 61,
      "hit": false,
      "t": 39973.28231666647,
      "d": 347.08721666665224,
      "v": 90
    },
    {
      "midi": 80,
      "hit": false,
      "t": 40030.3211249998,
      "d": 59.465991666664195,
      "v": 44
    },
    {
      "midi": 92,
      "hit": false,
      "t": 40091.00070833313,
      "d": 53.398033333331114,
      "v": 44
    },
    {
      "midi": 80,
      "hit": false,
      "t": 40144.39874166646,
      "d": 57.03880833333096,
      "v": 40
    },
    {
      "midi": 92,
      "hit": false,
      "t": 40201.43754999979,
      "d": 57.03880833333096,
      "v": 55
    },
    {
      "midi": 80,
      "hit": false,
      "t": 40258.47635833312,
      "d": 58.25239999999758,
      "v": 44
    },
    {
      "midi": 92,
      "hit": false,
      "t": 40320.36953333312,
      "d": 52.1844416666645,
      "v": 50
    },
    {
      "midi": 60,
      "hit": false,
      "t": 40321.58312499979,
      "d": 108.00965833332884,
      "v": 67
    },
    {
      "midi": 51,
      "hit": false,
      "t": 40322.79671666645,
      "d": 106.79606666666223,
      "v": 68
    },
    {
      "midi": 55,
      "hit": false,
      "t": 40322.79671666645,
      "d": 106.79606666666223,
      "v": 59
    },
    {
      "midi": 80,
      "hit": false,
      "t": 40372.553974999784,
      "d": 57.03880833333096,
      "v": 35
    },
    {
      "midi": 50,
      "hit": false,
      "t": 40429.592783333115,
      "d": 225.72804999999062,
      "v": 59
    },
    {
      "midi": 53,
      "hit": false,
      "t": 40429.592783333115,
      "d": 225.72804999999062,
      "v": 66
    },
    {
      "midi": 59,
      "hit": false,
      "t": 40429.592783333115,
      "d": 225.72804999999062,
      "v": 63
    },
    {
      "midi": 80,
      "hit": false,
      "t": 40485.41799999978,
      "d": 57.03880833333096,
      "v": 50
    },
    {
      "midi": 92,
      "hit": false,
      "t": 40542.45680833311,
      "d": 54.61162499999773,
      "v": 63
    },
    {
      "midi": 91,
      "hit": false,
      "t": 40601.922799999775,
      "d": 53.398033333331114,
      "v": 62
    },
    {
      "midi": 89,
      "hit": false,
      "t": 40660.17519999977,
      "d": 50.97084999999788,
      "v": 52
    },
    {
      "midi": 51,
      "hit": false,
      "t": 40660.17519999977,
      "d": 222.08727499999077,
      "v": 68
    },
    {
      "midi": 60,
      "hit": false,
      "t": 40661.38879166644,
      "d": 220.87368333332415,
      "v": 62
    },
    {
      "midi": 55,
      "hit": false,
      "t": 40662.602383333106,
      "d": 219.66009166665754,
      "v": 67
    },
    {
      "midi": 87,
      "hit": false,
      "t": 40713.5732333331,
      "d": 55.825216666664346,
      "v": 63
    },
    {
      "midi": 86,
      "hit": false,
      "t": 40771.8256333331,
      "d": 55.825216666664346,
      "v": 59
    },
    {
      "midi": 84,
      "hit": false,
      "t": 40827.650849999765,
      "d": 54.61162499999773,
      "v": 59
    },
    {
      "midi": 53,
      "hit": false,
      "t": 40883.47606666643,
      "d": 342.2328499999858,
      "v": 79
    },
    {
      "midi": 56,
      "hit": false,
      "t": 40883.47606666643,
      "d": 343.4464416666524,
      "v": 90
    },
    {
      "midi": 61,
      "hit": false,
      "t": 40883.47606666643,
      "d": 344.660033333319,
      "v": 90
    },
    {
      "midi": 68,
      "hit": false,
      "t": 40941.72846666643,
      "d": 54.61162499999773,
      "v": 44
    },
    {
      "midi": 80,
      "hit": false,
      "t": 40996.340091666425,
      "d": 58.25239999999758,
      "v": 58
    },
    {
      "midi": 68,
      "hit": false,
      "t": 41055.80608333309,
      "d": 54.61162499999773,
      "v": 50
    },
    {
      "midi": 80,
      "hit": false,
      "t": 41110.41770833309,
      "d": 57.03880833333096,
      "v": 47
    },
    {
      "midi": 68,
      "hit": false,
      "t": 41167.45651666642,
      "d": 57.03880833333096,
      "v": 40
    },
    {
      "midi": 80,
      "hit": false,
      "t": 41229.349691666415,
      "d": 53.398033333331114,
      "v": 47
    },
    {
      "midi": 55,
      "hit": false,
      "t": 41230.56328333308,
      "d": 108.00965833332884,
      "v": 62
    },
    {
      "midi": 60,
      "hit": false,
      "t": 41230.56328333308,
      "d": 108.00965833332884,
      "v": 62
    },
    {
      "midi": 51,
      "hit": false,
      "t": 41231.77687499975,
      "d": 106.79606666666223,
      "v": 63
    },
    {
      "midi": 68,
      "hit": false,
      "t": 41283.96131666641,
      "d": 54.61162499999773,
      "v": 32
    },
    {
      "midi": 50,
      "hit": false,
      "t": 41338.57294166641,
      "d": 225.72804999999062,
      "v": 70
    },
    {
      "midi": 53,
      "hit": false,
      "t": 41338.57294166641,
      "d": 225.72804999999062,
      "v": 74
    },
    {
      "midi": 59,
      "hit": false,
      "t": 41338.57294166641,
      "d": 225.72804999999062,
      "v": 79
    },
    {
      "midi": 80,
      "hit": false,
      "t": 41395.61174999974,
      "d": 54.61162499999773,
      "v": 58
    },
    {
      "midi": 68,
      "hit": false,
      "t": 41452.65055833307,
      "d": 57.03880833333096,
      "v": 47
    },
    {
      "midi": 80,
      "hit": false,
      "t": 41512.11654999974,
      "d": 52.1844416666645,
      "v": 47
    },
    {
      "midi": 51,
      "hit": false,
      "t": 41567.9417666664,
      "d": 226.94164166665723,
      "v": 80
    },
    {
      "midi": 56,
      "hit": false,
      "t": 41569.15535833307,
      "d": 225.72804999999062,
      "v": 90
    },
    {
      "midi": 48,
      "hit": false,
      "t": 41570.368949999734,
      "d": 223.30086666665738,
      "v": 75
    },
    {
      "midi": 92,
      "hit": false,
      "t": 41622.5533916664,
      "d": 54.61162499999773,
      "v": 58
    },
    {
      "midi": 80,
      "hit": false,
      "t": 41679.59219999973,
      "d": 53.398033333331114,
      "v": 63
    },
    {
      "midi": 92,
      "hit": false,
      "t": 41737.84459999973,
      "d": 54.61162499999773,
      "v": 63
    },
    {
      "midi": 47,
      "hit": false,
      "t": 41796.096999999725,
      "d": 228.15523333332385,
      "v": 80
    },
    {
      "midi": 55,
      "hit": false,
      "t": 41797.31059166639,
      "d": 226.94164166665723,
      "v": 86
    },
    {
      "midi": 50,
      "hit": false,
      "t": 41799.737774999725,
      "d": 222.08727499999077,
      "v": 80
    },
    {
      "midi": 91,
      "hit": false,
      "t": 41851.92221666639,
      "d": 54.61162499999773,
      "v": 56
    },
    {
      "midi": 79,
      "hit": false,
      "t": 41907.747433333054,
      "d": 54.61162499999773,
      "v": 59
    },
    {
      "midi": 91,
      "hit": false,
      "t": 41962.35905833305,
      "d": 58.25239999999758,
      "v": 59
    },
    {
      "midi": 45,
      "hit": false,
      "t": 42025.465824999716,
      "d": 226.94164166665723,
      "v": 67
    },
    {
      "midi": 54,
      "hit": false,
      "t": 42026.67941666638,
      "d": 224.514458333324,
      "v": 86
    },
    {
      "midi": 48,
      "hit": false,
      "t": 42026.67941666638,
      "d": 225.72804999999062,
      "v": 70
    },
    {
      "midi": 51,
      "hit": false,
      "t": 42027.89300833305,
      "d": 222.08727499999077,
      "v": 80
    },
    {
      "midi": 90,
      "hit": false,
      "t": 42077.65026666638,
      "d": 55.825216666664346,
      "v": 68
    },
    {
      "midi": 78,
      "hit": false,
      "t": 42133.475483333044,
      "d": 57.03880833333096,
      "v": 58
    },
    {
      "midi": 90,
      "hit": false,
      "t": 42192.94147499971,
      "d": 55.825216666664346,
      "v": 63
    },
    {
      "midi": 47,
      "hit": false,
      "t": 42253.62105833304,
      "d": 219.66009166665754,
      "v": 80
    },
    {
      "midi": 50,
      "hit": false,
      "t": 42254.834649999706,
      "d": 218.44649999999092,
      "v": 80
    },
    {
      "midi": 53,
      "hit": false,
      "t": 42256.04824166637,
      "d": 217.2329083333243,
      "v": 84
    },
    {
      "midi": 89,
      "hit": false,
      "t": 42304.59190833304,
      "d": 55.825216666664346,
      "v": 59
    },
    {
      "midi": 77,
      "hit": false,
      "t": 42360.4171249997,
      "d": 55.825216666664346,
      "v": 56
    },
    {
      "midi": 89,
      "hit": false,
      "t": 42417.45593333303,
      "d": 55.825216666664346,
      "v": 62
    },
    {
      "midi": 48,
      "hit": false,
      "t": 42476.9219249997,
      "d": 223.30086666665738,
      "v": 70
    },
    {
      "midi": 51,
      "hit": false,
      "t": 42478.13551666636,
      "d": 222.08727499999077,
      "v": 74
    },
    {
      "midi": 87,
      "hit": false,
      "t": 42533.96073333303,
      "d": 53.398033333331114,
      "v": 63
    },
    {
      "midi": 75,
      "hit": false,
      "t": 42588.572358333025,
      "d": 54.61162499999773,
      "v": 38
    },
    {
      "midi": 79,
      "hit": false,
      "t": 42588.572358333025,
      "d": 54.61162499999773,
      "v": 52
    },
    {
      "midi": 87,
      "hit": false,
      "t": 42645.61116666636,
      "d": 54.61162499999773,
      "v": 68
    },
    {
      "midi": 51,
      "hit": false,
      "t": 42702.64997499969,
      "d": 225.72804999999062,
      "v": 94
    },
    {
      "midi": 45,
      "hit": false,
      "t": 42702.64997499969,
      "d": 456.3104666666477,
      "v": 75
    },
    {
      "midi": 41,
      "hit": false,
      "t": 42702.64997499969,
      "d": 457.5240583333143,
      "v": 84
    },
    {
      "midi": 87,
      "hit": false,
      "t": 42762.11596666635,
      "d": 52.1844416666645,
      "v": 68
    },
    {
      "midi": 75,
      "hit": false,
      "t": 42817.941183333016,
      "d": 53.398033333331114,
      "v": 47
    },
    {
      "midi": 81,
      "hit": false,
      "t": 42819.15477499968,
      "d": 52.1844416666645,
      "v": 52
    },
    {
      "midi": 87,
      "hit": false,
      "t": 42873.76639999968,
      "d": 54.61162499999773,
      "v": 68
    },
    {
      "midi": 50,
      "hit": false,
      "t": 42928.37802499968,
      "d": 229.36882499999047,
      "v": 75
    },
    {
      "midi": 86,
      "hit": false,
      "t": 42985.41683333301,
      "d": 57.03880833333096,
      "v": 67
    },
    {
      "midi": 74,
      "hit": false,
      "t": 43042.45564166634,
      "d": 57.03880833333096,
      "v": 47
    },
    {
      "midi": 81,
      "hit": false,
      "t": 43042.45564166634,
      "d": 57.03880833333096,
      "v": 62
    },
    {
      "midi": 86,
      "hit": false,
      "t": 43099.49444999967,
      "d": 57.03880833333096,
      "v": 70
    },
    {
      "midi": 48,
      "hit": false,
      "t": 43161.38762499967,
      "d": 222.08727499999077,
      "v": 70
    },
    {
      "midi": 43,
      "hit": false,
      "t": 43161.38762499967,
      "d": 447.8153249999814,
      "v": 75
    },
    {
      "midi": 84,
      "hit": false,
      "t": 43213.57206666633,
      "d": 55.825216666664346,
      "v": 70
    },
    {
      "midi": 72,
      "hit": false,
      "t": 43269.397283333,
      "d": 57.03880833333096,
      "v": 47
    },
    {
      "midi": 75,
      "hit": false,
      "t": 43269.397283333,
      "d": 57.03880833333096,
      "v": 63
    },
    {
      "midi": 84,
      "hit": false,
      "t": 43326.43609166633,
      "d": 55.825216666664346,
      "v": 70
    },
    {
      "midi": 47,
      "hit": false,
      "t": 43385.90208333299,
      "d": 223.30086666665738,
      "v": 75
    },
    {
      "midi": 83,
      "hit": false,
      "t": 43441.72729999966,
      "d": 54.61162499999773,
      "v": 75
    },
    {
      "midi": 71,
      "hit": false,
      "t": 43497.55251666632,
      "d": 54.61162499999773,
      "v": 59
    },
    {
      "midi": 74,
      "hit": false,
      "t": 43497.55251666632,
      "d": 54.61162499999773,
      "v": 67
    },
    {
      "midi": 83,
      "hit": false,
      "t": 43555.80491666632,
      "d": 53.398033333331114,
      "v": 80
    },
    {
      "midi": 72,
      "hit": false,
      "t": 43611.63013333298,
      "d": 54.61162499999773,
      "v": 56
    },
    {
      "midi": 75,
      "hit": false,
      "t": 43611.63013333298,
      "d": 54.61162499999773,
      "v": 58
    },
    {
      "midi": 79,
      "hit": false,
      "t": 43611.63013333298,
      "d": 54.61162499999773,
      "v": 67
    },
    {
      "midi": 84,
      "hit": false,
      "t": 43611.63013333298,
      "d": 54.61162499999773,
      "v": 67
    },
    {
      "midi": 43,
      "hit": false,
      "t": 43611.63013333298,
      "d": 114.07761666666192,
      "v": 86
    },
    {
      "midi": 39,
      "hit": false,
      "t": 43611.63013333298,
      "d": 115.29120833332854,
      "v": 86
    },
    {
      "midi": 36,
      "hit": false,
      "t": 43611.63013333298,
      "d": 116.50479999999516,
      "v": 86
    },
    {
      "midi": 48,
      "hit": false,
      "t": 43611.63013333298,
      "d": 116.50479999999516,
      "v": 80
    },
    {
      "midi": 67,
      "hit": false,
      "t": 43669.88253333298,
      "d": 54.61162499999773,
      "v": 39
    },
    {
      "midi": 72,
      "hit": false,
      "t": 43729.348524999645,
      "d": 50.97084999999788,
      "v": 36
    },
    {
      "midi": 75,
      "hit": false,
      "t": 43781.53296666631,
      "d": 55.825216666664346,
      "v": 47
    },
    {
      "midi": 79,
      "hit": false,
      "t": 43839.78536666631,
      "d": 54.61162499999773,
      "v": 50
    },
    {
      "midi": 55,
      "hit": false,
      "t": 43894.396991666305,
      "d": 57.03880833333096,
      "v": 52
    },
    {
      "midi": 80,
      "hit": false,
      "t": 43894.396991666305,
      "d": 57.03880833333096,
      "v": 47
    },
    {
      "midi": 60,
      "hit": false,
      "t": 43951.435799999635,
      "d": 55.825216666664346,
      "v": 47
    },
    {
      "midi": 79,
      "hit": false,
      "t": 43951.435799999635,
      "d": 55.825216666664346,
      "v": 41
    },
    {
      "midi": 63,
      "hit": false,
      "t": 44007.2610166663,
      "d": 57.03880833333096,
      "v": 55
    },
    {
      "midi": 77,
      "hit": false,
      "t": 44007.2610166663,
      "d": 57.03880833333096,
      "v": 32
    },
    {
      "midi": 67,
      "hit": false,
      "t": 44064.29982499963,
      "d": 58.25239999999758,
      "v": 62
    },
    {
      "midi": 75,
      "hit": false,
      "t": 44064.29982499963,
      "d": 59.465991666664195,
      "v": 47
    },
    {
      "midi": 77,
      "hit": false,
      "t": 44124.97940833296,
      "d": 55.825216666664346,
      "v": 44
    },
    {
      "midi": 68,
      "hit": false,
      "t": 44126.19299999963,
      "d": 54.61162499999773,
      "v": 58
    },
    {
      "midi": 75,
      "hit": false,
      "t": 44182.01821666629,
      "d": 53.398033333331114,
      "v": 47
    },
    {
      "midi": 67,
      "hit": false,
      "t": 44183.23180833296,
      "d": 52.1844416666645,
      "v": 56
    },
    {
      "midi": 65,
      "hit": false,
      "t": 44235.416249999624,
      "d": 57.03880833333096,
      "v": 56
    },
    {
      "midi": 74,
      "hit": false,
      "t": 44235.416249999624,
      "d": 57.03880833333096,
      "v": 47
    },
    {
      "midi": 63,
      "hit": false,
      "t": 44292.455058332955,
      "d": 57.03880833333096,
      "v": 63
    },
    {
      "midi": 72,
      "hit": false,
      "t": 44292.455058332955,
      "d": 57.03880833333096,
      "v": 52
    },
    {
      "midi": 70,
      "hit": false,
      "t": 44351.92104999962,
      "d": 52.1844416666645,
      "v": 44
    },
    {
      "midi": 62,
      "hit": false,
      "t": 44353.134641666285,
      "d": 50.97084999999788,
      "v": 56
    },
    {
      "midi": 68,
      "hit": false,
      "t": 44407.74626666628,
      "d": 55.825216666664346,
      "v": 44
    },
    {
      "midi": 60,
      "hit": false,
      "t": 44408.95985833295,
      "d": 53.398033333331114,
      "v": 56
    },
    {
      "midi": 58,
      "hit": false,
      "t": 44465.99866666628,
      "d": 52.1844416666645,
      "v": 58
    },
    {
      "midi": 67,
      "hit": false,
      "t": 44465.99866666628,
      "d": 52.1844416666645,
      "v": 50
    },
    {
      "midi": 56,
      "hit": false,
      "t": 44519.39669999961,
      "d": 55.825216666664346,
      "v": 67
    },
    {
      "midi": 65,
      "hit": false,
      "t": 44519.39669999961,
      "d": 55.825216666664346,
      "v": 59
    },
    {
      "midi": 55,
      "hit": false,
      "t": 44577.64909999961,
      "d": 54.61162499999773,
      "v": 52
    },
    {
      "midi": 63,
      "hit": false,
      "t": 44577.64909999961,
      "d": 54.61162499999773,
      "v": 50
    },
    {
      "midi": 62,
      "hit": false,
      "t": 44634.68790833294,
      "d": 57.03880833333096,
      "v": 52
    },
    {
      "midi": 53,
      "hit": false,
      "t": 44635.90149999961,
      "d": 54.61162499999773,
      "v": 56
    },
    {
      "midi": 60,
      "hit": false,
      "t": 44692.94030833294,
      "d": 53.398033333331114,
      "v": 47
    },
    {
      "midi": 51,
      "hit": false,
      "t": 44694.153899999605,
      "d": 52.1844416666645,
      "v": 55
    },
    {
      "midi": 50,
      "hit": false,
      "t": 44747.551933332936,
      "d": 55.825216666664346,
      "v": 59
    },
    {
      "midi": 59,
      "hit": false,
      "t": 44747.551933332936,
      "d": 55.825216666664346,
      "v": 66
    },
    {
      "midi": 51,
      "hit": false,
      "t": 44805.80433333293,
      "d": 54.61162499999773,
      "v": 58
    },
    {
      "midi": 67,
      "hit": false,
      "t": 44862.843141666264,
      "d": 58.25239999999758,
      "v": 62
    },
    {
      "midi": 59,
      "hit": false,
      "t": 44862.843141666264,
      "d": 59.465991666664195,
      "v": 63
    },
    {
      "midi": 62,
      "hit": false,
      "t": 44864.05673333293,
      "d": 55.825216666664346,
      "v": 56
    },
    {
      "midi": 55,
      "hit": false,
      "t": 44864.05673333293,
      "d": 57.03880833333096,
      "v": 52
    },
    {
      "midi": 53,
      "hit": false,
      "t": 44865.2703249996,
      "d": 53.398033333331114,
      "v": 63
    },
    {
      "midi": 51,
      "hit": false,
      "t": 44922.30913333293,
      "d": 50.97084999999788,
      "v": 63
    },
    {
      "midi": 50,
      "hit": false,
      "t": 44973.279983332926,
      "d": 57.03880833333096,
      "v": 70
    },
    {
      "midi": 55,
      "hit": false,
      "t": 44973.279983332926,
      "d": 57.03880833333096,
      "v": 47
    },
    {
      "midi": 59,
      "hit": false,
      "t": 44973.279983332926,
      "d": 57.03880833333096,
      "v": 63
    },
    {
      "midi": 65,
      "hit": false,
      "t": 44973.279983332926,
      "d": 57.03880833333096,
      "v": 56
    },
    {
      "midi": 67,
      "hit": false,
      "t": 44973.279983332926,
      "d": 57.03880833333096,
      "v": 59
    },
    {
      "midi": 48,
      "hit": false,
      "t": 45030.31879166626,
      "d": 59.465991666664195,
      "v": 52
    },
    {
      "midi": 55,
      "hit": false,
      "t": 45090.99837499959,
      "d": 58.25239999999758,
      "v": 50
    },
    {
      "midi": 59,
      "hit": false,
      "t": 45090.99837499959,
      "d": 59.465991666664195,
      "v": 60
    },
    {
      "midi": 65,
      "hit": false,
      "t": 45092.211966666255,
      "d": 55.825216666664346,
      "v": 50
    },
    {
      "midi": 47,
      "hit": false,
      "t": 45093.42555833292,
      "d": 53.398033333331114,
      "v": 62
    },
    {
      "midi": 67,
      "hit": false,
      "t": 45093.42555833292,
      "d": 53.398033333331114,
      "v": 39
    },
    {
      "midi": 44,
      "hit": false,
      "t": 45151.67795833292,
      "d": 49.757258333331265,
      "v": 63
    },
    {
      "midi": 43,
      "hit": false,
      "t": 45201.43521666625,
      "d": 57.03880833333096,
      "v": 62
    },
    {
      "midi": 55,
      "hit": false,
      "t": 45201.43521666625,
      "d": 57.03880833333096,
      "v": 44
    },
    {
      "midi": 59,
      "hit": false,
      "t": 45201.43521666625,
      "d": 57.03880833333096,
      "v": 60
    },
    {
      "midi": 65,
      "hit": false,
      "t": 45201.43521666625,
      "d": 57.03880833333096,
      "v": 56
    },
    {
      "midi": 67,
      "hit": false,
      "t": 45201.43521666625,
      "d": 57.03880833333096,
      "v": 52
    },
    {
      "midi": 41,
      "hit": false,
      "t": 45258.47402499958,
      "d": 54.61162499999773,
      "v": 63
    },
    {
      "midi": 59,
      "hit": false,
      "t": 45316.72642499958,
      "d": 53.398033333331114,
      "v": 56
    },
    {
      "midi": 55,
      "hit": false,
      "t": 45319.15360833291,
      "d": 50.97084999999788,
      "v": 41
    },
    {
      "midi": 65,
      "hit": false,
      "t": 45319.15360833291,
      "d": 50.97084999999788,
      "v": 56
    },
    {
      "midi": 67,
      "hit": false,
      "t": 45320.36719999958,
      "d": 49.757258333331265,
      "v": 52
    },
    {
      "midi": 39,
      "hit": false,
      "t": 45321.580791666245,
      "d": 48.54366666666465,
      "v": 68
    },
    {
      "midi": 38,
      "hit": false,
      "t": 45370.12445833291,
      "d": 59.465991666664195,
      "v": 70
    },
    {
      "midi": 36,
      "hit": false,
      "t": 45429.590449999574,
      "d": 54.61162499999773,
      "v": 75
    },
    {
      "midi": 39,
      "hit": false,
      "t": 45429.590449999574,
      "d": 54.61162499999773,
      "v": 74
    },
    {
      "midi": 43,
      "hit": false,
      "t": 45429.590449999574,
      "d": 54.61162499999773,
      "v": 67
    },
    {
      "midi": 48,
      "hit": false,
      "t": 45429.590449999574,
      "d": 54.61162499999773,
      "v": 75
    },
    {
      "midi": 55,
      "hit": false,
      "t": 45429.590449999574,
      "d": 54.61162499999773,
      "v": 70
    },
    {
      "midi": 60,
      "hit": false,
      "t": 45429.590449999574,
      "d": 54.61162499999773,
      "v": 70
    },
    {
      "midi": 63,
      "hit": false,
      "t": 45429.590449999574,
      "d": 54.61162499999773,
      "v": 74
    },
    {
      "midi": 67,
      "hit": false,
      "t": 45429.590449999574,
      "d": 54.61162499999773,
      "v": 75
    },
    {
      "midi": 79,
      "hit": false,
      "t": 45484.20207499957,
      "d": 57.03880833333096,
      "v": 39
    },
    {
      "midi": 84,
      "hit": false,
      "t": 45541.2408833329,
      "d": 57.03880833333096,
      "v": 36
    },
    {
      "midi": 87,
      "hit": false,
      "t": 45600.70687499957,
      "d": 55.825216666664346,
      "v": 47
    },
    {
      "midi": 91,
      "hit": false,
      "t": 45656.53209166623,
      "d": 54.61162499999773,
      "v": 59
    },
    {
      "midi": 92,
      "hit": false,
      "t": 45715.998083332895,
      "d": 52.1844416666645,
      "v": 50
    },
    {
      "midi": 67,
      "hit": false,
      "t": 45717.21167499956,
      "d": 50.97084999999788,
      "v": 52
    },
    {
      "midi": 72,
      "hit": false,
      "t": 45770.60970833289,
      "d": 54.61162499999773,
      "v": 52
    },
    {
      "midi": 91,
      "hit": false,
      "t": 45770.60970833289,
      "d": 54.61162499999773,
      "v": 47
    },
    {
      "midi": 75,
      "hit": false,
      "t": 45825.22133333289,
      "d": 59.465991666664195,
      "v": 47
    },
    {
      "midi": 89,
      "hit": false,
      "t": 45825.22133333289,
      "d": 59.465991666664195,
      "v": 36
    },
    {
      "midi": 87,
      "hit": false,
      "t": 45885.90091666622,
      "d": 55.825216666664346,
      "v": 63
    },
    {
      "midi": 79,
      "hit": false,
      "t": 45887.11450833289,
      "d": 54.61162499999773,
      "v": 67
    },
    {
      "midi": 89,
      "hit": false,
      "t": 45942.93972499955,
      "d": 53.398033333331114,
      "v": 50
    },
    {
      "midi": 80,
      "hit": false,
      "t": 45944.15331666622,
      "d": 52.1844416666645,
      "v": 55
    },
    {
      "midi": 79,
      "hit": false,
      "t": 45996.337758332884,
      "d": 57.03880833333096,
      "v": 52
    },
    {
      "midi": 87,
      "hit": false,
      "t": 45996.337758332884,
      "d": 57.03880833333096,
      "v": 50
    },
    {
      "midi": 77,
      "hit": false,
      "t": 46053.376566666215,
      "d": 59.465991666664195,
      "v": 36
    },
    {
      "midi": 86,
      "hit": false,
      "t": 46053.376566666215,
      "d": 59.465991666664195,
      "v": 50
    },
    {
      "midi": 84,
      "hit": false,
      "t": 46114.056149999546,
      "d": 53.398033333331114,
      "v": 59
    },
    {
      "midi": 75,
      "hit": false,
      "t": 46115.26974166621,
      "d": 52.1844416666645,
      "v": 58
    },
    {
      "midi": 74,
      "hit": false,
      "t": 46167.45418333288,
      "d": 57.03880833333096,
      "v": 47
    },
    {
      "midi": 82,
      "hit": false,
      "t": 46167.45418333288,
      "d": 57.03880833333096,
      "v": 47
    },
    {
      "midi": 72,
      "hit": false,
      "t": 46224.49299166621,
      "d": 53.398033333331114,
      "v": 50
    },
    {
      "midi": 80,
      "hit": false,
      "t": 46224.49299166621,
      "d": 53.398033333331114,
      "v": 50
    },
    {
      "midi": 70,
      "hit": false,
      "t": 46279.104616666205,
      "d": 57.03880833333096,
      "v": 47
    },
    {
      "midi": 79,
      "hit": false,
      "t": 46279.104616666205,
      "d": 57.03880833333096,
      "v": 50
    },
    {
      "midi": 77,
      "hit": false,
      "t": 46339.784199999536,
      "d": 55.825216666664346,
      "v": 56
    },
    {
      "midi": 68,
      "hit": false,
      "t": 46340.9977916662,
      "d": 53.398033333331114,
      "v": 44
    },
    {
      "midi": 75,
      "hit": false,
      "t": 46396.82300833287,
      "d": 53.398033333331114,
      "v": 50
    },
    {
      "midi": 67,
      "hit": false,
      "t": 46398.036599999534,
      "d": 52.1844416666645,
      "v": 47
    },
    {
      "midi": 65,
      "hit": false,
      "t": 46452.64822499953,
      "d": 54.61162499999773,
      "v": 56
    },
    {
      "midi": 74,
      "hit": false,
      "t": 46452.64822499953,
      "d": 54.61162499999773,
      "v": 47
    },
    {
      "midi": 63,
      "hit": false,
      "t": 46508.473441666196,
      "d": 57.03880833333096,
      "v": 58
    },
    {
      "midi": 72,
      "hit": false,
      "t": 46508.473441666196,
      "d": 59.465991666664195,
      "v": 50
    },
    {
      "midi": 71,
      "hit": false,
      "t": 46569.15302499953,
      "d": 54.61162499999773,
      "v": 52
    },
    {
      "midi": 62,
      "hit": false,
      "t": 46570.36661666619,
      "d": 52.1844416666645,
      "v": 59
    },
    {
      "midi": 63,
      "hit": false,
      "t": 46624.97824166619,
      "d": 52.1844416666645,
      "v": 58
    },
    {
      "midi": 65,
      "hit": false,
      "t": 46680.803458332855,
      "d": 53.398033333331114,
      "v": 59
    },
    {
      "midi": 67,
      "hit": false,
      "t": 46680.803458332855,
      "d": 53.398033333331114,
      "v": 70
    },
    {
      "midi": 71,
      "hit": false,
      "t": 46680.803458332855,
      "d": 53.398033333331114,
      "v": 75
    },
    {
      "midi": 74,
      "hit": false,
      "t": 46680.803458332855,
      "d": 53.398033333331114,
      "v": 75
    },
    {
      "midi": 79,
      "hit": false,
      "t": 46680.803458332855,
      "d": 53.398033333331114,
      "v": 80
    },
    {
      "midi": 63,
      "hit": false,
      "t": 46734.20149166619,
      "d": 58.25239999999758,
      "v": 58
    },
    {
      "midi": 67,
      "hit": false,
      "t": 46793.66748333285,
      "d": 59.465991666664195,
      "v": 31
    },
    {
      "midi": 71,
      "hit": false,
      "t": 46794.88107499952,
      "d": 58.25239999999758,
      "v": 34
    },
    {
      "midi": 79,
      "hit": false,
      "t": 46796.094666666184,
      "d": 54.61162499999773,
      "v": 16
    },
    {
      "midi": 77,
      "hit": false,
      "t": 46796.094666666184,
      "d": 55.825216666664346,
      "v": 31
    },
    {
      "midi": 62,
      "hit": false,
      "t": 46797.30825833285,
      "d": 53.398033333331114,
      "v": 67
    },
    {
      "midi": 60,
      "hit": false,
      "t": 46855.56065833285,
      "d": 49.757258333331265,
      "v": 62
    },
    {
      "midi": 59,
      "hit": false,
      "t": 46905.31791666618,
      "d": 58.25239999999758,
      "v": 63
    },
    {
      "midi": 79,
      "hit": false,
      "t": 46905.31791666618,
      "d": 59.465991666664195,
      "v": 32
    },
    {
      "midi": 67,
      "hit": false,
      "t": 46905.31791666618,
      "d": 60.67958333333081,
      "v": 41
    },
    {
      "midi": 77,
      "hit": false,
      "t": 46905.31791666618,
      "d": 60.67958333333081,
      "v": 52
    },
    {
      "midi": 71,
      "hit": false,
      "t": 46905.31791666618,
      "d": 61.89317499999743,
      "v": 52
    },
    {
      "midi": 56,
      "hit": false,
      "t": 46968.42468333284,
      "d": 50.97084999999788,
      "v": 62
    },
    {
      "midi": 77,
      "hit": false,
      "t": 47021.822716666175,
      "d": 59.465991666664195,
      "v": 50
    },
    {
      "midi": 71,
      "hit": false,
      "t": 47021.822716666175,
      "d": 60.67958333333081,
      "v": 52
    },
    {
      "midi": 67,
      "hit": false,
      "t": 47023.03630833284,
      "d": 57.03880833333096,
      "v": 41
    },
    {
      "midi": 55,
      "hit": false,
      "t": 47024.24989999951,
      "d": 54.61162499999773,
      "v": 59
    },
    {
      "midi": 79,
      "hit": false,
      "t": 47024.24989999951,
      "d": 54.61162499999773,
      "v": 36
    },
    {
      "midi": 53,
      "hit": false,
      "t": 47083.71589166617,
      "d": 49.757258333331265,
      "v": 63
    },
    {
      "midi": 51,
      "hit": false,
      "t": 47133.4731499995,
      "d": 57.03880833333096,
      "v": 58
    },
    {
      "midi": 67,
      "hit": false,
      "t": 47133.4731499995,
      "d": 57.03880833333096,
      "v": 47
    },
    {
      "midi": 71,
      "hit": false,
      "t": 47133.4731499995,
      "d": 57.03880833333096,
      "v": 56
    },
    {
      "midi": 77,
      "hit": false,
      "t": 47133.4731499995,
      "d": 57.03880833333096,
      "v": 56
    },
    {
      "midi": 79,
      "hit": false,
      "t": 47133.4731499995,
      "d": 57.03880833333096,
      "v": 50
    },
    {
      "midi": 50,
      "hit": false,
      "t": 47190.511958332834,
      "d": 54.61162499999773,
      "v": 62
    },
    {
      "midi": 48,
      "hit": false,
      "t": 47246.3371749995,
      "d": 55.825216666664346,
      "v": 59
    },
    {
      "midi": 75,
      "hit": false,
      "t": 47246.3371749995,
      "d": 342.2328499999858,
      "v": 68
    },
    {
      "midi": 67,
      "hit": false,
      "t": 47246.3371749995,
      "d": 343.4464416666524,
      "v": 59
    },
    {
      "midi": 72,
      "hit": false,
      "t": 47246.3371749995,
      "d": 345.8736249999856,
      "v": 59
    },
    {
      "midi": 79,
      "hit": false,
      "t": 47246.3371749995,
      "d": 345.8736249999856,
      "v": 70
    },
    {
      "midi": 50,
      "hit": false,
      "t": 47305.80316666616,
      "d": 54.61162499999773,
      "v": 56
    },
    {
      "midi": 51,
      "hit": false,
      "t": 47361.62838333283,
      "d": 53.398033333331114,
      "v": 63
    },
    {
      "midi": 53,
      "hit": false,
      "t": 47417.45359999949,
      "d": 54.61162499999773,
      "v": 60
    },
    {
      "midi": 55,
      "hit": false,
      "t": 47474.49240833282,
      "d": 54.61162499999773,
      "v": 59
    },
    {
      "midi": 57,
      "hit": false,
      "t": 47531.53121666615,
      "d": 55.825216666664346,
      "v": 47
    },
    {
      "midi": 91,
      "hit": false,
      "t": 47593.42439166615,
      "d": 49.757258333331265,
      "v": 80
    },
    {
      "midi": 87,
      "hit": false,
      "t": 47594.63798333282,
      "d": 48.54366666666465,
      "v": 74
    },
    {
      "midi": 79,
      "hit": false,
      "t": 47595.851574999484,
      "d": 47.33007499999803,
      "v": 62
    },
    {
      "midi": 84,
      "hit": false,
      "t": 47595.851574999484,
      "d": 47.33007499999803,
      "v": 59
    },
    {
      "midi": 59,
      "hit": false,
      "t": 47597.06516666615,
      "d": 46.116483333331416,
      "v": 51
    },
    {
      "midi": 60,
      "hit": false,
      "t": 47643.18164999948,
      "d": 57.03880833333096,
      "v": 52
    },
    {
      "midi": 62,
      "hit": false,
      "t": 47702.647641666146,
      "d": 57.03880833333096,
      "v": 59
    },
    {
      "midi": 91,
      "hit": false,
      "t": 47702.647641666146,
      "d": 57.03880833333096,
      "v": 36
    },
    {
      "midi": 83,
      "hit": false,
      "t": 47702.647641666146,
      "d": 58.25239999999758,
      "v": 52
    },
    {
      "midi": 79,
      "hit": false,
      "t": 47702.647641666146,
      "d": 59.465991666664195,
      "v": 44
    },
    {
      "midi": 89,
      "hit": false,
      "t": 47702.647641666146,
      "d": 59.465991666664195,
      "v": 44
    },
    {
      "midi": 60,
      "hit": false,
      "t": 47763.32722499948,
      "d": 50.97084999999788,
      "v": 47
    },
    {
      "midi": 59,
      "hit": false,
      "t": 47814.298074999475,
      "d": 57.03880833333096,
      "v": 54
    },
    {
      "midi": 79,
      "hit": false,
      "t": 47814.298074999475,
      "d": 57.03880833333096,
      "v": 39
    },
    {
      "midi": 83,
      "hit": false,
      "t": 47814.298074999475,
      "d": 57.03880833333096,
      "v": 56
    },
    {
      "midi": 89,
      "hit": false,
      "t": 47814.298074999475,
      "d": 57.03880833333096,
      "v": 59
    },
    {
      "midi": 91,
      "hit": false,
      "t": 47814.298074999475,
      "d": 57.03880833333096,
      "v": 52
    },
    {
      "midi": 57,
      "hit": false,
      "t": 47871.336883332806,
      "d": 57.03880833333096,
      "v": 41
    },
    {
      "midi": 55,
      "hit": false,
      "t": 47928.37569166614,
      "d": 57.03880833333096,
      "v": 59
    },
    {
      "midi": 91,
      "hit": false,
      "t": 47928.37569166614,
      "d": 58.25239999999758,
      "v": 39
    },
    {
      "midi": 83,
      "hit": false,
      "t": 47928.37569166614,
      "d": 59.465991666664195,
      "v": 52
    },
    {
      "midi": 89,
      "hit": false,
      "t": 47928.37569166614,
      "d": 60.67958333333081,
      "v": 50
    },
    {
      "midi": 79,
      "hit": false,
      "t": 47928.37569166614,
      "d": 61.89317499999743,
      "v": 41
    },
    {
      "midi": 53,
      "hit": false,
      "t": 47991.4824583328,
      "d": 52.1844416666645,
      "v": 60
    },
    {
      "midi": 83,
      "hit": false,
      "t": 48044.88049166613,
      "d": 53.398033333331114,
      "v": 47
    },
    {
      "midi": 79,
      "hit": false,
      "t": 48046.0940833328,
      "d": 52.1844416666645,
      "v": 44
    },
    {
      "midi": 89,
      "hit": false,
      "t": 48046.0940833328,
      "d": 52.1844416666645,
      "v": 50
    },
    {
      "midi": 91,
      "hit": false,
      "t": 48047.307674999465,
      "d": 50.97084999999788,
      "v": 56
    },
    {
      "midi": 51,
      "hit": false,
      "t": 48048.52126666613,
      "d": 49.757258333331265,
      "v": 63
    },
    {
      "midi": 50,
      "hit": false,
      "t": 48098.27852499946,
      "d": 57.03880833333096,
      "v": 59
    },
    {
      "midi": 48,
      "hit": false,
      "t": 48155.317333332794,
      "d": 55.825216666664346,
      "v": 59
    },
    {
      "midi": 79,
      "hit": false,
      "t": 48155.317333332794,
      "d": 225.72804999999062,
      "v": 34
    },
    {
      "midi": 84,
      "hit": false,
      "t": 48155.317333332794,
      "d": 225.72804999999062,
      "v": 41
    },
    {
      "midi": 87,
      "hit": false,
      "t": 48155.317333332794,
      "d": 225.72804999999062,
      "v": 47
    },
    {
      "midi": 91,
      "hit": false,
      "t": 48155.317333332794,
      "d": 225.72804999999062,
      "v": 47
    },
    {
      "midi": 50,
      "hit": false,
      "t": 48213.56973333279,
      "d": 54.61162499999773,
      "v": 52
    },
    {
      "midi": 51,
      "hit": false,
      "t": 48270.60854166612,
      "d": 55.825216666664346,
      "v": 68
    },
    {
      "midi": 53,
      "hit": false,
      "t": 48328.86094166612,
      "d": 52.1844416666645,
      "v": 63
    },
    {
      "midi": 55,
      "hit": false,
      "t": 48381.045383332785,
      "d": 57.03880833333096,
      "v": 70
    },
    {
      "midi": 57,
      "hit": false,
      "t": 48440.51137499945,
      "d": 54.61162499999773,
      "v": 59
    },
    {
      "midi": 79,
      "hit": false,
      "t": 48499.97736666611,
      "d": 57.03880833333096,
      "v": 80
    },
    {
      "midi": 72,
      "hit": false,
      "t": 48501.19095833278,
      "d": 54.61162499999773,
      "v": 67
    },
    {
      "midi": 75,
      "hit": false,
      "t": 48502.404549999446,
      "d": 52.1844416666645,
      "v": 74
    },
    {
      "midi": 67,
      "hit": false,
      "t": 48502.404549999446,
      "d": 53.398033333331114,
      "v": 70
    },
    {
      "midi": 59,
      "hit": false,
      "t": 48503.61814166611,
      "d": 49.757258333331265,
      "v": 71
    },
    {
      "midi": 60,
      "hit": false,
      "t": 48558.22976666611,
      "d": 52.1844416666645,
      "v": 67
    },
    {
      "midi": 71,
      "hit": false,
      "t": 48612.84139166611,
      "d": 53.398033333331114,
      "v": 47
    },
    {
      "midi": 79,
      "hit": false,
      "t": 48615.26857499944,
      "d": 50.97084999999788,
      "v": 41
    },
    {
      "midi": 77,
      "hit": false,
      "t": 48616.48216666611,
      "d": 49.757258333331265,
      "v": 50
    },
    {
      "midi": 62,
      "hit": false,
      "t": 48617.695758332775,
      "d": 48.54366666666465,
      "v": 70
    },
    {
      "midi": 67,
      "hit": false,
      "t": 48617.695758332775,
      "d": 48.54366666666465,
      "v": 39
    },
    {
      "midi": 60,
      "hit": false,
      "t": 48666.23942499944,
      "d": 57.03880833333096,
      "v": 59
    },
    {
      "midi": 77,
      "hit": false,
      "t": 48725.705416666104,
      "d": 58.25239999999758,
      "v": 50
    },
    {
      "midi": 71,
      "hit": false,
      "t": 48725.705416666104,
      "d": 59.465991666664195,
      "v": 44
    },
    {
      "midi": 67,
      "hit": false,
      "t": 48726.91900833277,
      "d": 57.03880833333096,
      "v": 32
    },
    {
      "midi": 79,
      "hit": false,
      "t": 48728.13259999944,
      "d": 54.61162499999773,
      "v": 39
    },
    {
      "midi": 59,
      "hit": false,
      "t": 48729.3461916661,
      "d": 52.1844416666645,
      "v": 60
    },
    {
      "midi": 57,
      "hit": false,
      "t": 48786.384999999435,
      "d": 50.97084999999788,
      "v": 56
    },
    {
      "midi": 55,
      "hit": false,
      "t": 48837.35584999943,
      "d": 57.03880833333096,
      "v": 67
    },
    {
      "midi": 67,
      "hit": false,
      "t": 48837.35584999943,
      "d": 57.03880833333096,
      "v": 39
    },
    {
      "midi": 71,
      "hit": false,
      "t": 48837.35584999943,
      "d": 57.03880833333096,
      "v": 50
    },
    {
      "midi": 77,
      "hit": false,
      "t": 48837.35584999943,
      "d": 57.03880833333096,
      "v": 56
    },
    {
      "midi": 79,
      "hit": false,
      "t": 48837.35584999943,
      "d": 57.03880833333096,
      "v": 52
    },
    {
      "midi": 53,
      "hit": false,
      "t": 48894.39465833276,
      "d": 57.03880833333096,
      "v": 63
    },
    {
      "midi": 51,
      "hit": false,
      "t": 48951.433466666094,
      "d": 55.825216666664346,
      "v": 68
    },
    {
      "midi": 67,
      "hit": false,
      "t": 48951.433466666094,
      "d": 55.825216666664346,
      "v": 50
    },
    {
      "midi": 71,
      "hit": false,
      "t": 48951.433466666094,
      "d": 55.825216666664346,
      "v": 52
    },
    {
      "midi": 77,
      "hit": false,
      "t": 48951.433466666094,
      "d": 55.825216666664346,
      "v": 56
    },
    {
      "midi": 79,
      "hit": false,
      "t": 48951.433466666094,
      "d": 55.825216666664346,
      "v": 52
    },
    {
      "midi": 50,
      "hit": false,
      "t": 49007.25868333276,
      "d": 57.03880833333096,
      "v": 62
    },
    {
      "midi": 48,
      "hit": false,
      "t": 49064.29749166609,
      "d": 57.03880833333096,
      "v": 59
    },
    {
      "midi": 75,
      "hit": false,
      "t": 49064.29749166609,
      "d": 228.15523333332385,
      "v": 55
    },
    {
      "midi": 72,
      "hit": false,
      "t": 49064.29749166609,
      "d": 229.36882499999047,
      "v": 52
    },
    {
      "midi": 79,
      "hit": false,
      "t": 49064.29749166609,
      "d": 229.36882499999047,
      "v": 52
    },
    {
      "midi": 67,
      "hit": false,
      "t": 49064.29749166609,
      "d": 230.58241666665708,
      "v": 52
    },
    {
      "midi": 50,
      "hit": false,
      "t": 49121.33629999942,
      "d": 55.825216666664346,
      "v": 56
    },
    {
      "midi": 51,
      "hit": false,
      "t": 49178.37510833275,
      "d": 54.61162499999773,
      "v": 68
    },
    {
      "midi": 53,
      "hit": false,
      "t": 49235.41391666608,
      "d": 55.825216666664346,
      "v": 56
    },
    {
      "midi": 55,
      "hit": false,
      "t": 49296.09349999941,
      "d": 50.97084999999788,
      "v": 70
    },
    {
      "midi": 57,
      "hit": false,
      "t": 49351.91871666608,
      "d": 52.1844416666645,
      "v": 50
    },
    {
      "midi": 59,
      "hit": false,
      "t": 49406.530341666075,
      "d": 54.61162499999773,
      "v": 51
    },
    {
      "midi": 72,
      "hit": false,
      "t": 49406.530341666075,
      "d": 54.61162499999773,
      "v": 47
    },
    {
      "midi": 75,
      "hit": false,
      "t": 49406.530341666075,
      "d": 54.61162499999773,
      "v": 68
    },
    {
      "midi": 79,
      "hit": false,
      "t": 49406.530341666075,
      "d": 54.61162499999773,
      "v": 67
    },
    {
      "midi": 84,
      "hit": false,
      "t": 49406.530341666075,
      "d": 54.61162499999773,
      "v": 75
    },
    {
      "midi": 60,
      "hit": false,
      "t": 49461.14196666607,
      "d": 58.25239999999758,
      "v": 50
    },
    {
      "midi": 58,
      "hit": false,
      "t": 49520.60795833274,
      "d": 55.825216666664346,
      "v": 68
    },
    {
      "midi": 76,
      "hit": false,
      "t": 49520.60795833274,
      "d": 57.03880833333096,
      "v": 47
    },
    {
      "midi": 84,
      "hit": false,
      "t": 49520.60795833274,
      "d": 57.03880833333096,
      "v": 50
    },
    {
      "midi": 79,
      "hit": false,
      "t": 49520.60795833274,
      "d": 58.25239999999758,
      "v": 47
    },
    {
      "midi": 72,
      "hit": false,
      "t": 49520.60795833274,
      "d": 59.465991666664195,
      "v": 36
    },
    {
      "midi": 56,
      "hit": false,
      "t": 49581.28754166607,
      "d": 50.97084999999788,
      "v": 67
    },
    {
      "midi": 55,
      "hit": false,
      "t": 49634.6855749994,
      "d": 54.61162499999773,
      "v": 59
    },
    {
      "midi": 72,
      "hit": false,
      "t": 49634.6855749994,
      "d": 57.03880833333096,
      "v": 25
    },
    {
      "midi": 79,
      "hit": false,
      "t": 49634.6855749994,
      "d": 57.03880833333096,
      "v": 50
    },
    {
      "midi": 84,
      "hit": false,
      "t": 49634.6855749994,
      "d": 58.25239999999758,
      "v": 47
    },
    {
      "midi": 76,
      "hit": false,
      "t": 49634.6855749994,
      "d": 59.465991666664195,
      "v": 47
    },
    {
      "midi": 53,
      "hit": false,
      "t": 49695.36515833273,
      "d": 52.1844416666645,
      "v": 56
    },
    {
      "midi": 72,
      "hit": false,
      "t": 49748.76319166606,
      "d": 53.398033333331114,
      "v": 47
    },
    {
      "midi": 84,
      "hit": false,
      "t": 49749.97678333273,
      "d": 52.1844416666645,
      "v": 41
    },
    {
      "midi": 76,
      "hit": false,
      "t": 49751.190374999394,
      "d": 50.97084999999788,
      "v": 47
    },
    {
      "midi": 79,
      "hit": false,
      "t": 49751.190374999394,
      "d": 50.97084999999788,
      "v": 52
    },
    {
      "midi": 52,
      "hit": false,
      "t": 49752.40396666606,
      "d": 49.757258333331265,
      "v": 62
    },
    {
      "midi": 49,
      "hit": false,
      "t": 49802.16122499939,
      "d": 57.03880833333096,
      "v": 55
    },
    {
      "midi": 48,
      "hit": false,
      "t": 49859.20003333272,
      "d": 58.25239999999758,
      "v": 41
    },
    {
      "midi": 72,
      "hit": false,
      "t": 49859.20003333272,
      "d": 58.25239999999758,
      "v": 50
    },
    {
      "midi": 76,
      "hit": false,
      "t": 49859.20003333272,
      "d": 58.25239999999758,
      "v": 52
    },
    {
      "midi": 79,
      "hit": false,
      "t": 49859.20003333272,
      "d": 58.25239999999758,
      "v": 56
    },
    {
      "midi": 84,
      "hit": false,
      "t": 49859.20003333272,
      "d": 58.25239999999758,
      "v": 59
    },
    {
      "midi": 46,
      "hit": false,
      "t": 49917.45243333272,
      "d": 57.03880833333096,
      "v": 51
    },
    {
      "midi": 44,
      "hit": false,
      "t": 49974.49124166605,
      "d": 55.825216666664346,
      "v": 55
    },
    {
      "midi": 77,
      "hit": false,
      "t": 49974.49124166605,
      "d": 226.94164166665723,
      "v": 59
    },
    {
      "midi": 80,
      "hit": false,
      "t": 49974.49124166605,
      "d": 228.15523333332385,
      "v": 58
    },
    {
      "midi": 72,
      "hit": false,
      "t": 49974.49124166605,
      "d": 229.36882499999047,
      "v": 44
    },
    {
      "midi": 84,
      "hit": false,
      "t": 49974.49124166605,
      "d": 230.58241666665708,
      "v": 67
    },
    {
      "midi": 46,
      "hit": false,
      "t": 50030.316458332716,
      "d": 57.03880833333096,
      "v": 44
    },
    {
      "midi": 48,
      "hit": false,
      "t": 50087.35526666605,
      "d": 54.61162499999773,
      "v": 47
    },
    {
      "midi": 50,
      "hit": false,
      "t": 50144.39407499938,
      "d": 57.03880833333096,
      "v": 62
    },
    {
      "midi": 52,
      "hit": false,
      "t": 50206.287249999375,
      "d": 50.97084999999788,
      "v": 67
    },
    {
      "midi": 53,
      "hit": false,
      "t": 50258.47169166604,
      "d": 54.61162499999773,
      "v": 66
    },
    {
      "midi": 72,
      "hit": false,
      "t": 50316.72409166604,
      "d": 53.398033333331114,
      "v": 75
    },
    {
      "midi": 68,
      "hit": false,
      "t": 50317.937683332704,
      "d": 52.1844416666645,
      "v": 80
    },
    {
      "midi": 60,
      "hit": false,
      "t": 50319.15127499937,
      "d": 50.97084999999788,
      "v": 70
    },
    {
      "midi": 55,
      "hit": false,
      "t": 50320.36486666604,
      "d": 49.757258333331265,
      "v": 52
    },
    {
      "midi": 65,
      "hit": false,
      "t": 50320.36486666604,
      "d": 49.757258333331265,
      "v": 70
    },
    {
      "midi": 56,
      "hit": false,
      "t": 50370.12212499937,
      "d": 57.03880833333096,
      "v": 67
    },
    {
      "midi": 70,
      "hit": false,
      "t": 50429.58811666603,
      "d": 59.465991666664195,
      "v": 47
    },
    {
      "midi": 60,
      "hit": false,
      "t": 50430.8017083327,
      "d": 57.03880833333096,
      "v": 44
    },
    {
      "midi": 72,
      "hit": false,
      "t": 50432.015299999366,
      "d": 54.61162499999773,
      "v": 50
    },
    {
      "midi": 55,
      "hit": false,
      "t": 50433.22889166603,
      "d": 52.1844416666645,
      "v": 62
    },
    {
      "midi": 64,
      "hit": false,
      "t": 50433.22889166603,
      "d": 53.398033333331114,
      "v": 47
    },
    {
      "midi": 53,
      "hit": false,
      "t": 50490.267699999364,
      "d": 50.97084999999788,
      "v": 63
    },
    {
      "midi": 70,
      "hit": false,
      "t": 50544.87932499936,
      "d": 53.398033333331114,
      "v": 47
    },
    {
      "midi": 72,
      "hit": false,
      "t": 50544.87932499936,
      "d": 53.398033333331114,
      "v": 50
    },
    {
      "midi": 64,
      "hit": false,
      "t": 50546.09291666603,
      "d": 52.1844416666645,
      "v": 47
    },
    {
      "midi": 60,
      "hit": false,
      "t": 50547.306508332695,
      "d": 50.97084999999788,
      "v": 36
    },
    {
      "midi": 52,
      "hit": false,
      "t": 50548.52009999936,
      "d": 49.757258333331265,
      "v": 59
    },
    {
      "midi": 49,
      "hit": false,
      "t": 50598.27735833269,
      "d": 57.03880833333096,
      "v": 63
    },
    {
      "midi": 64,
      "hit": false,
      "t": 50657.74334999936,
      "d": 58.25239999999758,
      "v": 49
    },
    {
      "midi": 70,
      "hit": false,
      "t": 50657.74334999936,
      "d": 59.465991666664195,
      "v": 50
    },
    {
      "midi": 72,
      "hit": false,
      "t": 50658.95694166602,
      "d": 57.03880833333096,
      "v": 52
    },
    {
      "midi": 48,
      "hit": false,
      "t": 50660.17053333269,
      "d": 53.398033333331114,
      "v": 59
    },
    {
      "midi": 60,
      "hit": false,
      "t": 50660.17053333269,
      "d": 54.61162499999773,
      "v": 36
    },
    {
      "midi": 46,
      "hit": false,
      "t": 50718.42293333269,
      "d": 49.757258333331265,
      "v": 67
    },
    {
      "midi": 44,
      "hit": false,
      "t": 50768.18019166602,
      "d": 57.03880833333096,
      "v": 68
    },
    {
      "midi": 60,
      "hit": false,
      "t": 50768.18019166602,
      "d": 57.03880833333096,
      "v": 34
    },
    {
      "midi": 64,
      "hit": false,
      "t": 50768.18019166602,
      "d": 57.03880833333096,
      "v": 52
    },
    {
      "midi": 70,
      "hit": false,
      "t": 50768.18019166602,
      "d": 57.03880833333096,
      "v": 44
    },
    {
      "midi": 72,
      "hit": false,
      "t": 50768.18019166602,
      "d": 57.03880833333096,
      "v": 52
    },
    {
      "midi": 43,
      "hit": false,
      "t": 50825.21899999935,
      "d": 58.25239999999758,
      "v": 67
    },
    {
      "midi": 72,
      "hit": false,
      "t": 50884.684991666014,
      "d": 59.465991666664195,
      "v": 52
    },
    {
      "midi": 63,
      "hit": false,
      "t": 50887.11217499935,
      "d": 57.03880833333096,
      "v": 55
    },
    {
      "midi": 60,
      "hit": false,
      "t": 50888.325766666014,
      "d": 54.61162499999773,
      "v": 41
    },
    {
      "midi": 69,
      "hit": false,
      "t": 50889.53935833268,
      "d": 52.1844416666645,
      "v": 62
    },
    {
      "midi": 30,
      "hit": false,
      "t": 50890.75294999935,
      "d": 49.757258333331265,
      "v": 80
    },
    {
      "midi": 42,
      "hit": false,
      "t": 50890.75294999935,
      "d": 105.58247499999561,
      "v": 74
    },
    {
      "midi": 57,
      "hit": false,
      "t": 50945.364574999345,
      "d": 50.97084999999788,
      "v": 52
    },
    {
      "midi": 60,
      "hit": false,
      "t": 50996.33542499934,
      "d": 57.03880833333096,
      "v": 52
    },
    {
      "midi": 63,
      "hit": false,
      "t": 51053.37423333267,
      "d": 54.61162499999773,
      "v": 58
    },
    {
      "midi": 66,
      "hit": false,
      "t": 51110.413041666005,
      "d": 54.61162499999773,
      "v": 68
    },
    {
      "midi": 69,
      "hit": false,
      "t": 51169.87903333267,
      "d": 53.398033333331114,
      "v": 47
    },
    {
      "midi": 72,
      "hit": false,
      "t": 51224.49065833267,
      "d": 54.61162499999773,
      "v": 44
    },
    {
      "midi": 75,
      "hit": false,
      "t": 51281.529466666,
      "d": 53.398033333331114,
      "v": 50
    },
    {
      "midi": 78,
      "hit": false,
      "t": 51338.56827499933,
      "d": 54.61162499999773,
      "v": 58
    },
    {
      "midi": 81,
      "hit": false,
      "t": 51395.60708333266,
      "d": 55.825216666664346,
      "v": 50
    },
    {
      "midi": 84,
      "hit": false,
      "t": 51451.432299999324,
      "d": 54.61162499999773,
      "v": 50
    },
    {
      "midi": 87,
      "hit": false,
      "t": 51510.89829166599,
      "d": 52.1844416666645,
      "v": 55
    },
    {
      "midi": 90,
      "hit": false,
      "t": 51565.509916665986,
      "d": 55.825216666664346,
      "v": 68
    },
    {
      "midi": 87,
      "hit": false,
      "t": 51621.33513333265,
      "d": 55.825216666664346,
      "v": 58
    },
    {
      "midi": 84,
      "hit": false,
      "t": 51677.160349999314,
      "d": 57.03880833333096,
      "v": 50
    },
    {
      "midi": 81,
      "hit": false,
      "t": 51734.199158332645,
      "d": 57.03880833333096,
      "v": 50
    },
    {
      "midi": 78,
      "hit": false,
      "t": 51791.237966665976,
      "d": 58.25239999999758,
      "v": 74
    },
    {
      "midi": 75,
      "hit": false,
      "t": 51850.70395833264,
      "d": 57.03880833333096,
      "v": 55
    },
    {
      "midi": 72,
      "hit": false,
      "t": 51908.95635833264,
      "d": 55.825216666664346,
      "v": 52
    },
    {
      "midi": 69,
      "hit": false,
      "t": 51965.99516666597,
      "d": 53.398033333331114,
      "v": 52
    },
    {
      "midi": 66,
      "hit": false,
      "t": 52019.3931999993,
      "d": 54.61162499999773,
      "v": 68
    },
    {
      "midi": 63,
      "hit": false,
      "t": 52076.43200833263,
      "d": 54.61162499999773,
      "v": 55
    },
    {
      "midi": 60,
      "hit": false,
      "t": 52135.897999999295,
      "d": 53.398033333331114,
      "v": 50
    },
    {
      "midi": 57,
      "hit": false,
      "t": 52191.72321666596,
      "d": 55.825216666664346,
      "v": 56
    },
    {
      "midi": 54,
      "hit": false,
      "t": 52248.76202499929,
      "d": 53.398033333331114,
      "v": 58
    },
    {
      "midi": 51,
      "hit": false,
      "t": 52304.587241665955,
      "d": 53.398033333331114,
      "v": 50
    },
    {
      "midi": 48,
      "hit": false,
      "t": 52362.83964166595,
      "d": 54.61162499999773,
      "v": 44
    },
    {
      "midi": 45,
      "hit": false,
      "t": 52417.45126666595,
      "d": 54.61162499999773,
      "v": 41
    },
    {
      "midi": 42,
      "hit": false,
      "t": 52476.917258332614,
      "d": 52.1844416666645,
      "v": 58
    },
    {
      "midi": 39,
      "hit": false,
      "t": 52531.52888333261,
      "d": 54.61162499999773,
      "v": 55
    },
    {
      "midi": 36,
      "hit": false,
      "t": 52586.14050833261,
      "d": 59.465991666664195,
      "v": 41
    },
    {
      "midi": 33,
      "hit": false,
      "t": 52648.03368333261,
      "d": 52.1844416666645,
      "v": 44
    },
    {
      "midi": 30,
      "hit": false,
      "t": 52700.21812499927,
      "d": 57.03880833333096,
      "v": 63
    },
    {
      "midi": 33,
      "hit": false,
      "t": 52757.2569333326,
      "d": 58.25239999999758,
      "v": 36
    },
    {
      "midi": 36,
      "hit": false,
      "t": 52816.72292499927,
      "d": 57.03880833333096,
      "v": 29
    },
    {
      "midi": 39,
      "hit": false,
      "t": 52873.7617333326,
      "d": 54.61162499999773,
      "v": 50
    },
    {
      "midi": 30,
      "hit": false,
      "t": 52928.373358332596,
      "d": 57.03880833333096,
      "v": 58
    },
    {
      "midi": 33,
      "hit": false,
      "t": 52985.41216666593,
      "d": 54.61162499999773,
      "v": 39
    },
    {
      "midi": 36,
      "hit": false,
      "t": 53042.45097499926,
      "d": 54.61162499999773,
      "v": 36
    },
    {
      "midi": 39,
      "hit": false,
      "t": 53099.48978333259,
      "d": 55.825216666664346,
      "v": 50
    },
    {
      "midi": 30,
      "hit": false,
      "t": 53155.31499999925,
      "d": 54.61162499999773,
      "v": 63
    },
    {
      "midi": 33,
      "hit": false,
      "t": 53214.78099166592,
      "d": 54.61162499999773,
      "v": 44
    },
    {
      "midi": 36,
      "hit": false,
      "t": 53269.392616665915,
      "d": 55.825216666664346,
      "v": 32
    },
    {
      "midi": 39,
      "hit": false,
      "t": 53326.431424999246,
      "d": 59.465991666664195,
      "v": 55
    },
    {
      "midi": 30,
      "hit": false,
      "t": 53387.11100833258,
      "d": 50.97084999999788,
      "v": 58
    },
    {
      "midi": 33,
      "hit": false,
      "t": 53441.722633332574,
      "d": 53.398033333331114,
      "v": 50
    },
    {
      "midi": 36,
      "hit": false,
      "t": 53497.54784999924,
      "d": 54.61162499999773,
      "v": 41
    },
    {
      "midi": 39,
      "hit": false,
      "t": 53552.15947499924,
      "d": 40.048524999998335,
      "v": 44
    },
    {
      "midi": 29,
      "hit": false,
      "t": 53592.20799999999,
      "d": 291.26200000000244,
      "v": 85
    },
    {
      "midi": 57,
      "hit": false,
      "t": 53665.023499999996,
      "d": 54.61162499999773,
      "v": 20
    },
    {
      "midi": 60,
      "hit": false,
      "t": 53737.83899999999,
      "d": 54.61162499999773,
      "v": 23
    },
    {
      "midi": 63,
      "hit": false,
      "t": 53810.65449999999,
      "d": 54.61162499999773,
      "v": 30
    },
    {
      "midi": 66,
      "hit": false,
      "t": 53883.46999999999,
      "d": 54.61162499999773,
      "v": 30
    },
    {
      "midi": 68,
      "hit": false,
      "t": 53956.28549999998,
      "d": 54.61162499999773,
      "v": 33
    },
    {
      "midi": 66,
      "hit": false,
      "t": 54029.10099999998,
      "d": 54.61162499999773,
      "v": 28
    },
    {
      "midi": 65,
      "hit": false,
      "t": 54101.91649999998,
      "d": 54.61162499999773,
      "v": 28
    },
    {
      "midi": 63,
      "hit": false,
      "t": 54174.731999999975,
      "d": 54.61162499999773,
      "v": 24
    },
    {
      "midi": 65,
      "hit": false,
      "t": 54247.54749999997,
      "d": 54.61162499999773,
      "v": 28
    },
    {
      "midi": 63,
      "hit": false,
      "t": 54320.36299999997,
      "d": 54.61162499999773,
      "v": 28
    },
    {
      "midi": 61,
      "hit": false,
      "t": 54393.178499999965,
      "d": 54.61162499999773,
      "v": 25
    },
    {
      "midi": 60,
      "hit": false,
      "t": 54465.99399999996,
      "d": 54.61162499999773,
      "v": 23
    },
    {
      "midi": 61,
      "hit": false,
      "t": 54538.80949999996,
      "d": 54.61162499999773,
      "v": 26
    },
    {
      "midi": 63,
      "hit": false,
      "t": 54611.624999999956,
      "d": 54.61162499999773,
      "v": 22
    },
    {
      "midi": 60,
      "hit": false,
      "t": 54684.44049999995,
      "d": 54.61162499999773,
      "v": 24
    },
    {
      "midi": 53,
      "hit": false,
      "t": 54684.4405,
      "d": 72.81549999999697,
      "v": 56
    },
    {
      "midi": 29,
      "hit": false,
      "t": 54757.255999999994,
      "d": 291.26200000000244,
      "v": 85
    },
    {
      "midi": 57,
      "hit": false,
      "t": 54830.071499999955,
      "d": 54.61162499999773,
      "v": 30
    },
    {
      "midi": 60,
      "hit": false,
      "t": 54902.88699999995,
      "d": 54.61162499999773,
      "v": 31
    },
    {
      "midi": 63,
      "hit": false,
      "t": 54975.70249999995,
      "d": 54.61162499999773,
      "v": 34
    },
    {
      "midi": 66,
      "hit": false,
      "t": 55048.517999999945,
      "d": 54.61162499999773,
      "v": 30
    },
    {
      "midi": 68,
      "hit": false,
      "t": 55121.33349999994,
      "d": 54.61162499999773,
      "v": 30
    },
    {
      "midi": 66,
      "hit": false,
      "t": 55194.14899999994,
      "d": 54.61162499999773,
      "v": 28
    },
    {
      "midi": 65,
      "hit": false,
      "t": 55266.96449999994,
      "d": 54.61162499999773,
      "v": 26
    },
    {
      "midi": 63,
      "hit": false,
      "t": 55339.77999999993,
      "d": 54.61162499999773,
      "v": 30
    },
    {
      "midi": 65,
      "hit": false,
      "t": 55412.59549999993,
      "d": 54.61162499999773,
      "v": 28
    },
    {
      "midi": 63,
      "hit": false,
      "t": 55485.41099999993,
      "d": 54.61162499999773,
      "v": 26
    },
    {
      "midi": 61,
      "hit": false,
      "t": 55558.226499999924,
      "d": 54.61162499999773,
      "v": 21
    },
    {
      "midi": 60,
      "hit": false,
      "t": 55631.04199999992,
      "d": 54.61162499999773,
      "v": 28
    },
    {
      "midi": 61,
      "hit": false,
      "t": 55703.85749999992,
      "d": 54.61162499999773,
      "v": 25
    },
    {
      "midi": 63,
      "hit": false,
      "t": 55776.672999999915,
      "d": 54.61162499999773,
      "v": 28
    },
    {
      "midi": 60,
      "hit": false,
      "t": 55849.48849999991,
      "d": 54.61162499999773,
      "v": 28
    },
    {
      "midi": 53,
      "hit": false,
      "t": 55849.4885,
      "d": 72.81549999999697,
      "v": 54
    },
    {
      "midi": 29,
      "hit": false,
      "t": 55922.304,
      "d": 291.26200000000244,
      "v": 85
    },
    {
      "midi": 57,
      "hit": false,
      "t": 55995.11949999991,
      "d": 54.61162499999773,
      "v": 56
    },
    {
      "midi": 60,
      "hit": false,
      "t": 56067.93499999991,
      "d": 54.61162499999773,
      "v": 56
    },
    {
      "midi": 63,
      "hit": false,
      "t": 56140.75049999991,
      "d": 54.61162499999773,
      "v": 50
    },
    {
      "midi": 66,
      "hit": false,
      "t": 56213.565999999904,
      "d": 54.61162499999773,
      "v": 58
    },
    {
      "midi": 68,
      "hit": false,
      "t": 56286.3814999999,
      "d": 54.61162499999773,
      "v": 55
    },
    {
      "midi": 66,
      "hit": false,
      "t": 56359.1969999999,
      "d": 54.61162499999773,
      "v": 55
    },
    {
      "midi": 58,
      "hit": false,
      "t": 56359.197,
      "d": 72.81549999999697,
      "v": 44
    },
    {
      "midi": 65,
      "hit": false,
      "t": 56432.012499999895,
      "d": 54.61162499999773,
      "v": 50
    },
    {
      "midi": 59,
      "hit": false,
      "t": 56432.0125,
      "d": 72.81549999999697,
      "v": 43
    },
    {
      "midi": 63,
      "hit": false,
      "t": 56504.82799999989,
      "d": 109.22325000000274,
      "v": 47
    },
    {
      "midi": 60,
      "hit": false,
      "t": 56504.827999999994,
      "d": 72.81549999999697,
      "v": 34
    },
    {
      "midi": 61,
      "hit": false,
      "t": 56577.64349999999,
      "d": 72.81549999999697,
      "v": 39
    },
    {
      "midi": 63,
      "hit": false,
      "t": 56650.45899999989,
      "d": 54.61162499999773,
      "v": 44
    },
    {
      "midi": 60,
      "hit": false,
      "t": 56650.45899999999,
      "d": 72.81549999999697,
      "v": 32
    },
    {
      "midi": 65,
      "hit": false,
      "t": 56723.27449999989,
      "d": 54.61162499999773,
      "v": 36
    },
    {
      "midi": 58,
      "hit": false,
      "t": 56723.274499999985,
      "d": 72.81549999999697,
      "v": 32
    },
    {
      "midi": 66,
      "hit": false,
      "t": 56796.08999999989,
      "d": 54.61162499999773,
      "v": 40
    },
    {
      "midi": 57,
      "hit": false,
      "t": 56796.08999999998,
      "d": 145.63100000000122,
      "v": 50
    },
    {
      "midi": 68,
      "hit": false,
      "t": 56868.905499999884,
      "d": 54.61162499999773,
      "v": 40
    },
    {
      "midi": 66,
      "hit": false,
      "t": 56941.72099999988,
      "d": 54.61162499999773,
      "v": 40
    },
    {
      "midi": 57,
      "hit": false,
      "t": 56941.72099999998,
      "d": 72.81549999999697,
      "v": 50
    },
    {
      "midi": 65,
      "hit": false,
      "t": 57014.53649999988,
      "d": 54.61162499999773,
      "v": 50
    },
    {
      "midi": 58,
      "hit": false,
      "t": 57014.53649999998,
      "d": 72.81549999999697,
      "v": 55
    },
    {
      "midi": 63,
      "hit": false,
      "t": 57087.351999999875,
      "d": 109.22325000000274,
      "v": 68
    },
    {
      "midi": 60,
      "hit": false,
      "t": 57087.35199999998,
      "d": 72.81549999999697,
      "v": 59
    },
    {
      "midi": 61,
      "hit": false,
      "t": 57160.167499999974,
      "d": 72.81549999999697,
      "v": 54
    },
    {
      "midi": 63,
      "hit": false,
      "t": 57232.98299999988,
      "d": 54.61162499999773,
      "v": 44
    },
    {
      "midi": 60,
      "hit": false,
      "t": 57232.98299999997,
      "d": 72.81549999999697,
      "v": 52
    },
    {
      "midi": 65,
      "hit": false,
      "t": 57305.79849999987,
      "d": 54.61162499999773,
      "v": 41
    },
    {
      "midi": 58,
      "hit": false,
      "t": 57305.79849999997,
      "d": 72.81549999999697,
      "v": 50
    },
    {
      "midi": 66,
      "hit": false,
      "t": 57378.61399999987,
      "d": 54.61162499999773,
      "v": 50
    },
    {
      "midi": 57,
      "hit": false,
      "t": 57378.613999999965,
      "d": 145.63100000000122,
      "v": 47
    },
    {
      "midi": 68,
      "hit": false,
      "t": 57451.42949999987,
      "d": 54.61162499999773,
      "v": 50
    },
    {
      "midi": 66,
      "hit": false,
      "t": 57524.244999999864,
      "d": 54.61162499999773,
      "v": 44
    },
    {
      "midi": 57,
      "hit": false,
      "t": 57524.244999999966,
      "d": 72.81549999999697,
      "v": 44
    },
    {
      "midi": 65,
      "hit": false,
      "t": 57597.06049999986,
      "d": 54.61162499999773,
      "v": 50
    },
    {
      "midi": 58,
      "hit": false,
      "t": 57597.06049999996,
      "d": 72.81549999999697,
      "v": 47
    },
    {
      "midi": 63,
      "hit": false,
      "t": 57669.87599999986,
      "d": 109.22325000000274,
      "v": 44
    },
    {
      "midi": 60,
      "hit": false,
      "t": 57669.87599999996,
      "d": 72.81549999999697,
      "v": 56
    },
    {
      "midi": 61,
      "hit": false,
      "t": 57742.69149999996,
      "d": 72.81549999999697,
      "v": 51
    },
    {
      "midi": 66,
      "hit": false,
      "t": 57815.50699999986,
      "d": 109.22325000000274,
      "v": 38
    },
    {
      "midi": 78,
      "hit": false,
      "t": 57815.50699999986,
      "d": 109.22325000000274,
      "v": 55
    },
    {
      "midi": 60,
      "hit": false,
      "t": 57815.506999999954,
      "d": 72.81549999999697,
      "v": 52
    },
    {
      "midi": 58,
      "hit": false,
      "t": 57888.32249999995,
      "d": 72.81549999999697,
      "v": 50
    },
    {
      "midi": 65,
      "hit": false,
      "t": 57961.13799999986,
      "d": 109.22325000000274,
      "v": 56
    },
    {
      "midi": 77,
      "hit": false,
      "t": 57961.13799999986,
      "d": 109.22325000000274,
      "v": 59
    },
    {
      "midi": 57,
      "hit": false,
      "t": 57961.13799999995,
      "d": 72.81549999999697,
      "v": 32
    },
    {
      "midi": 54,
      "hit": false,
      "t": 58033.953499999945,
      "d": 72.81549999999697,
      "v": 47
    },
    {
      "midi": 69,
      "hit": false,
      "t": 58106.76899999986,
      "d": 109.22325000000274,
      "v": 44
    },
    {
      "midi": 81,
      "hit": false,
      "t": 58106.76899999986,
      "d": 109.22325000000274,
      "v": 52
    },
    {
      "midi": 53,
      "hit": false,
      "t": 58106.76899999994,
      "d": 72.81549999999697,
      "v": 51
    },
    {
      "midi": 51,
      "hit": false,
      "t": 58179.58449999994,
      "d": 72.81549999999697,
      "v": 40
    },
    {
      "midi": 70,
      "hit": false,
      "t": 58252.39999999986,
      "d": 54.61162499999773,
      "v": 35
    },
    {
      "midi": 82,
      "hit": false,
      "t": 58252.39999999986,
      "d": 54.61162499999773,
      "v": 47
    },
    {
      "midi": 49,
      "hit": false,
      "t": 58252.399999999936,
      "d": 54.61162499999773,
      "v": 47
    },
    {
      "midi": 65,
      "hit": false,
      "t": 58325.21549999986,
      "d": 72.81549999999697,
      "v": 41
    },
    {
      "midi": 53,
      "hit": false,
      "t": 58325.21549999993,
      "d": 54.61162499999773,
      "v": 29
    },
    {
      "midi": 70,
      "hit": false,
      "t": 58398.03099999986,
      "d": 72.81549999999697,
      "v": 40
    },
    {
      "midi": 58,
      "hit": false,
      "t": 58398.03099999993,
      "d": 54.61162499999773,
      "v": 44
    },
    {
      "midi": 73,
      "hit": false,
      "t": 58470.846499999854,
      "d": 72.81549999999697,
      "v": 47
    },
    {
      "midi": 53,
      "hit": false,
      "t": 58470.84649999993,
      "d": 54.61162499999773,
      "v": 40
    },
    {
      "midi": 77,
      "hit": false,
      "t": 58543.66199999985,
      "d": 72.81549999999697,
      "v": 52
    },
    {
      "midi": 58,
      "hit": false,
      "t": 58543.661999999924,
      "d": 54.61162499999773,
      "v": 50
    },
    {
      "midi": 78,
      "hit": false,
      "t": 58616.47749999985,
      "d": 72.81549999999697,
      "v": 55
    },
    {
      "midi": 53,
      "hit": false,
      "t": 58616.47749999992,
      "d": 54.61162499999773,
      "v": 43
    },
    {
      "midi": 77,
      "hit": false,
      "t": 58689.292999999845,
      "d": 72.81549999999697,
      "v": 52
    },
    {
      "midi": 58,
      "hit": false,
      "t": 58689.29299999992,
      "d": 54.61162499999773,
      "v": 44
    },
    {
      "midi": 75,
      "hit": false,
      "t": 58762.10849999984,
      "d": 72.81549999999697,
      "v": 44
    },
    {
      "midi": 53,
      "hit": false,
      "t": 58762.108499999915,
      "d": 54.61162499999773,
      "v": 40
    },
    {
      "midi": 73,
      "hit": false,
      "t": 58834.92399999984,
      "d": 72.81549999999697,
      "v": 40
    },
    {
      "midi": 58,
      "hit": false,
      "t": 58834.92399999991,
      "d": 54.61162499999773,
      "v": 58
    },
    {
      "midi": 75,
      "hit": false,
      "t": 58907.739499999836,
      "d": 72.81549999999697,
      "v": 44
    },
    {
      "midi": 53,
      "hit": false,
      "t": 58907.73949999991,
      "d": 54.61162499999773,
      "v": 36
    },
    {
      "midi": 73,
      "hit": false,
      "t": 58980.55499999983,
      "d": 72.81549999999697,
      "v": 44
    },
    {
      "midi": 58,
      "hit": false,
      "t": 58980.554999999906,
      "d": 54.61162499999773,
      "v": 44
    },
    {
      "midi": 72,
      "hit": false,
      "t": 59053.37049999983,
      "d": 72.81549999999697,
      "v": 39
    },
    {
      "midi": 53,
      "hit": false,
      "t": 59053.3704999999,
      "d": 54.61162499999773,
      "v": 30
    },
    {
      "midi": 70,
      "hit": false,
      "t": 59126.18599999983,
      "d": 72.81549999999697,
      "v": 40
    },
    {
      "midi": 58,
      "hit": false,
      "t": 59126.1859999999,
      "d": 54.61162499999773,
      "v": 55
    },
    {
      "midi": 72,
      "hit": false,
      "t": 59199.001499999824,
      "d": 72.81549999999697,
      "v": 44
    },
    {
      "midi": 53,
      "hit": false,
      "t": 59199.0014999999,
      "d": 54.61162499999773,
      "v": 40
    },
    {
      "midi": 73,
      "hit": false,
      "t": 59271.81699999982,
      "d": 72.81549999999697,
      "v": 47
    },
    {
      "midi": 58,
      "hit": false,
      "t": 59271.81699999989,
      "d": 54.61162499999773,
      "v": 50
    },
    {
      "midi": 70,
      "hit": false,
      "t": 59344.63249999982,
      "d": 72.81549999999697,
      "v": 35
    },
    {
      "midi": 53,
      "hit": false,
      "t": 59344.63249999989,
      "d": 54.61162499999773,
      "v": 48
    },
    {
      "midi": 49,
      "hit": false,
      "t": 59417.44799999989,
      "d": 54.61162499999773,
      "v": 47
    },
    {
      "midi": 65,
      "hit": false,
      "t": 59490.26349999981,
      "d": 72.81549999999697,
      "v": 56
    },
    {
      "midi": 53,
      "hit": false,
      "t": 59490.263499999885,
      "d": 54.61162499999773,
      "v": 45
    },
    {
      "midi": 70,
      "hit": false,
      "t": 59563.07899999981,
      "d": 72.81549999999697,
      "v": 38
    },
    {
      "midi": 58,
      "hit": false,
      "t": 59563.07899999988,
      "d": 54.61162499999773,
      "v": 50
    },
    {
      "midi": 73,
      "hit": false,
      "t": 59635.894499999806,
      "d": 72.81549999999697,
      "v": 47
    },
    {
      "midi": 53,
      "hit": false,
      "t": 59635.89449999988,
      "d": 54.61162499999773,
      "v": 40
    },
    {
      "midi": 77,
      "hit": false,
      "t": 59708.7099999998,
      "d": 72.81549999999697,
      "v": 50
    },
    {
      "midi": 58,
      "hit": false,
      "t": 59708.709999999875,
      "d": 54.61162499999773,
      "v": 50
    },
    {
      "midi": 78,
      "hit": false,
      "t": 59781.5254999998,
      "d": 72.81549999999697,
      "v": 55
    },
    {
      "midi": 53,
      "hit": false,
      "t": 59781.52549999987,
      "d": 54.61162499999773,
      "v": 45
    },
    {
      "midi": 77,
      "hit": false,
      "t": 59854.3409999998,
      "d": 72.81549999999697,
      "v": 50
    },
    {
      "midi": 58,
      "hit": false,
      "t": 59854.34099999987,
      "d": 54.61162499999773,
      "v": 50
    },
    {
      "midi": 75,
      "hit": false,
      "t": 59927.15649999979,
      "d": 72.81549999999697,
      "v": 44
    },
    {
      "midi": 53,
      "hit": false,
      "t": 59927.156499999866,
      "d": 54.61162499999773,
      "v": 38
    },
    {
      "midi": 73,
      "hit": false,
      "t": 59999.97199999979,
      "d": 72.81549999999697,
      "v": 47
    },
    {
      "midi": 58,
      "hit": false,
      "t": 59999.97199999986,
      "d": 54.61162499999773,
      "v": 47
    },
    {
      "midi": 75,
      "hit": false,
      "t": 60072.78749999979,
      "d": 72.81549999999697,
      "v": 44
    },
    {
      "midi": 53,
      "hit": false,
      "t": 60072.78749999986,
      "d": 54.61162499999773,
      "v": 45
    },
    {
      "midi": 73,
      "hit": false,
      "t": 60145.602999999785,
      "d": 72.81549999999697,
      "v": 40
    },
    {
      "midi": 58,
      "hit": false,
      "t": 60145.60299999986,
      "d": 54.61162499999773,
      "v": 50
    },
    {
      "midi": 72,
      "hit": false,
      "t": 60218.41849999978,
      "d": 72.81549999999697,
      "v": 32
    },
    {
      "midi": 53,
      "hit": false,
      "t": 60218.418499999854,
      "d": 54.61162499999773,
      "v": 43
    },
    {
      "midi": 70,
      "hit": false,
      "t": 60291.23399999978,
      "d": 72.81549999999697,
      "v": 38
    },
    {
      "midi": 58,
      "hit": false,
      "t": 60291.23399999985,
      "d": 54.61162499999773,
      "v": 50
    },
    {
      "midi": 72,
      "hit": false,
      "t": 60364.049499999775,
      "d": 72.81549999999697,
      "v": 44
    },
    {
      "midi": 53,
      "hit": false,
      "t": 60364.04949999985,
      "d": 54.61162499999773,
      "v": 40
    },
    {
      "midi": 73,
      "hit": false,
      "t": 60436.86499999977,
      "d": 72.81549999999697,
      "v": 55
    },
    {
      "midi": 58,
      "hit": false,
      "t": 60436.864999999845,
      "d": 54.61162499999773,
      "v": 47
    },
    {
      "midi": 70,
      "hit": false,
      "t": 60509.68049999977,
      "d": 72.81549999999697,
      "v": 32
    },
    {
      "midi": 53,
      "hit": false,
      "t": 60509.68049999984,
      "d": 54.61162499999773,
      "v": 43
    },
    {
      "midi": 51,
      "hit": false,
      "t": 60582.49599999984,
      "d": 54.61162499999773,
      "v": 44
    },
    {
      "midi": 66,
      "hit": false,
      "t": 60655.31149999976,
      "d": 72.81549999999697,
      "v": 44
    },
    {
      "midi": 54,
      "hit": false,
      "t": 60655.311499999836,
      "d": 54.61162499999773,
      "v": 47
    },
    {
      "midi": 71,
      "hit": false,
      "t": 60728.12699999976,
      "d": 72.81549999999697,
      "v": 41
    },
    {
      "midi": 59,
      "hit": false,
      "t": 60728.12699999983,
      "d": 54.61162499999773,
      "v": 56
    },
    {
      "midi": 75,
      "hit": false,
      "t": 60800.94249999976,
      "d": 72.81549999999697,
      "v": 55
    },
    {
      "midi": 54,
      "hit": false,
      "t": 60800.94249999983,
      "d": 54.61162499999773,
      "v": 55
    },
    {
      "midi": 78,
      "hit": false,
      "t": 60873.757999999754,
      "d": 72.81549999999697,
      "v": 55
    },
    {
      "midi": 59,
      "hit": false,
      "t": 60873.75799999983,
      "d": 54.61162499999773,
      "v": 54
    },
    {
      "midi": 80,
      "hit": false,
      "t": 60946.57349999975,
      "d": 72.81549999999697,
      "v": 58
    },
    {
      "midi": 54,
      "hit": false,
      "t": 60946.573499999824,
      "d": 54.61162499999773,
      "v": 50
    },
    {
      "midi": 78,
      "hit": false,
      "t": 61019.38899999975,
      "d": 72.81549999999697,
      "v": 50
    },
    {
      "midi": 59,
      "hit": false,
      "t": 61019.38899999982,
      "d": 54.61162499999773,
      "v": 48
    },
    {
      "midi": 77,
      "hit": false,
      "t": 61092.204499999745,
      "d": 72.81549999999697,
      "v": 44
    },
    {
      "midi": 54,
      "hit": false,
      "t": 61092.20449999982,
      "d": 54.61162499999773,
      "v": 40
    },
    {
      "midi": 75,
      "hit": false,
      "t": 61165.01999999974,
      "d": 72.81549999999697,
      "v": 47
    },
    {
      "midi": 59,
      "hit": false,
      "t": 61165.019999999815,
      "d": 54.61162499999773,
      "v": 51
    },
    {
      "midi": 77,
      "hit": false,
      "t": 61237.83549999974,
      "d": 72.81549999999697,
      "v": 50
    },
    {
      "midi": 54,
      "hit": false,
      "t": 61237.83549999981,
      "d": 54.61162499999773,
      "v": 50
    },
    {
      "midi": 75,
      "hit": false,
      "t": 61310.650999999736,
      "d": 72.81549999999697,
      "v": 50
    },
    {
      "midi": 59,
      "hit": false,
      "t": 61310.65099999981,
      "d": 54.61162499999773,
      "v": 51
    },
    {
      "midi": 73,
      "hit": false,
      "t": 61383.46649999973,
      "d": 72.81549999999697,
      "v": 55
    },
    {
      "midi": 54,
      "hit": false,
      "t": 61383.466499999806,
      "d": 54.61162499999773,
      "v": 44
    },
    {
      "midi": 71,
      "hit": false,
      "t": 61456.28199999973,
      "d": 72.81549999999697,
      "v": 21
    },
    {
      "midi": 59,
      "hit": false,
      "t": 61456.2819999998,
      "d": 54.61162499999773,
      "v": 43
    },
    {
      "midi": 73,
      "hit": false,
      "t": 61529.09749999973,
      "d": 72.81549999999697,
      "v": 40
    },
    {
      "midi": 54,
      "hit": false,
      "t": 61529.0974999998,
      "d": 54.61162499999773,
      "v": 47
    },
    {
      "midi": 75,
      "hit": false,
      "t": 61601.912999999724,
      "d": 72.81549999999697,
      "v": 50
    },
    {
      "midi": 59,
      "hit": false,
      "t": 61601.9129999998,
      "d": 54.61162499999773,
      "v": 43
    },
    {
      "midi": 71,
      "hit": false,
      "t": 61674.72849999972,
      "d": 72.81549999999697,
      "v": 36
    },
    {
      "midi": 54,
      "hit": false,
      "t": 61674.728499999794,
      "d": 54.61162499999773,
      "v": 44
    },
    {
      "midi": 70,
      "hit": false,
      "t": 61747.54399999972,
      "d": 72.81549999999697,
      "v": 29
    },
    {
      "midi": 53,
      "hit": false,
      "t": 61747.54399999979,
      "d": 54.61162499999773,
      "v": 48
    },
    {
      "midi": 72,
      "hit": false,
      "t": 61820.359499999715,
      "d": 72.81549999999697,
      "v": 36
    },
    {
      "midi": 58,
      "hit": false,
      "t": 61820.35949999979,
      "d": 54.61162499999773,
      "v": 47
    },
    {
      "midi": 70,
      "hit": false,
      "t": 61893.17499999971,
      "d": 72.81549999999697,
      "v": 40
    },
    {
      "midi": 61,
      "hit": false,
      "t": 61893.174999999785,
      "d": 54.61162499999773,
      "v": 51
    },
    {
      "midi": 69,
      "hit": false,
      "t": 61965.99049999971,
      "d": 72.81549999999697,
      "v": 39
    },
    {
      "midi": 58,
      "hit": false,
      "t": 61965.99049999978,
      "d": 54.61162499999773,
      "v": 40
    },
    {
      "midi": 70,
      "hit": false,
      "t": 62038.805999999706,
      "d": 72.81549999999697,
      "v": 44
    },
    {
      "midi": 61,
      "hit": false,
      "t": 62038.80599999978,
      "d": 54.61162499999773,
      "v": 48
    },
    {
      "midi": 72,
      "hit": false,
      "t": 62111.6214999997,
      "d": 72.81549999999697,
      "v": 50
    },
    {
      "midi": 58,
      "hit": false,
      "t": 62111.621499999776,
      "d": 54.61162499999773,
      "v": 47
    },
    {
      "midi": 73,
      "hit": false,
      "t": 62184.4369999997,
      "d": 72.81549999999697,
      "v": 55
    },
    {
      "midi": 61,
      "hit": false,
      "t": 62184.43699999977,
      "d": 54.61162499999773,
      "v": 51
    },
    {
      "midi": 70,
      "hit": false,
      "t": 62257.2524999997,
      "d": 72.81549999999697,
      "v": 44
    },
    {
      "midi": 58,
      "hit": false,
      "t": 62257.25249999977,
      "d": 54.61162499999773,
      "v": 40
    },
    {
      "midi": 69,
      "hit": false,
      "t": 62330.067999999694,
      "d": 72.81549999999697,
      "v": 47
    },
    {
      "midi": 51,
      "hit": false,
      "t": 62330.06799999977,
      "d": 54.61162499999773,
      "v": 47
    },
    {
      "midi": 70,
      "hit": false,
      "t": 62402.88349999969,
      "d": 72.81549999999697,
      "v": 40
    },
    {
      "midi": 53,
      "hit": false,
      "t": 62402.88349999976,
      "d": 54.61162499999773,
      "v": 60
    },
    {
      "midi": 69,
      "hit": false,
      "t": 62475.69899999969,
      "d": 72.81549999999697,
      "v": 41
    },
    {
      "midi": 60,
      "hit": false,
      "t": 62475.69899999976,
      "d": 54.61162499999773,
      "v": 47
    },
    {
      "midi": 67,
      "hit": false,
      "t": 62548.514499999685,
      "d": 72.81549999999697,
      "v": 36
    },
    {
      "midi": 53,
      "hit": false,
      "t": 62548.51449999976,
      "d": 54.61162499999773,
      "v": 30
    },
    {
      "midi": 69,
      "hit": false,
      "t": 62621.32999999968,
      "d": 72.81549999999697,
      "v": 47
    },
    {
      "midi": 60,
      "hit": false,
      "t": 62621.329999999754,
      "d": 54.61162499999773,
      "v": 39
    },
    {
      "midi": 70,
      "hit": false,
      "t": 62694.14549999968,
      "d": 72.81549999999697,
      "v": 44
    },
    {
      "midi": 53,
      "hit": false,
      "t": 62694.14549999975,
      "d": 54.61162499999773,
      "v": 38
    },
    {
      "midi": 72,
      "hit": false,
      "t": 62766.960999999676,
      "d": 72.81549999999697,
      "v": 44
    },
    {
      "midi": 60,
      "hit": false,
      "t": 62766.96099999975,
      "d": 54.61162499999773,
      "v": 50
    },
    {
      "midi": 69,
      "hit": false,
      "t": 62839.77649999967,
      "d": 72.81549999999697,
      "v": 36
    },
    {
      "midi": 53,
      "hit": false,
      "t": 62839.776499999745,
      "d": 54.61162499999773,
      "v": 51
    },
    {
      "midi": 70,
      "hit": false,
      "t": 62912.59199999967,
      "d": 145.63100000000122,
      "v": 40
    },
    {
      "midi": 49,
      "hit": false,
      "t": 62912.59199999974,
      "d": 54.61162499999773,
      "v": 47
    },
    {
      "midi": 65,
      "hit": false,
      "t": 62985.40749999974,
      "d": 54.61162499999773,
      "v": 47
    },
    {
      "midi": 70,
      "hit": false,
      "t": 63058.22299999967,
      "d": 72.81549999999697,
      "v": 40
    },
    {
      "midi": 73,
      "hit": false,
      "t": 63131.03849999967,
      "d": 72.81549999999697,
      "v": 47
    },
    {
      "midi": 77,
      "hit": false,
      "t": 63203.853999999665,
      "d": 72.81549999999697,
      "v": 36
    },
    {
      "midi": 58,
      "hit": false,
      "t": 63203.85399999974,
      "d": 291.2619999999879,
      "v": 70
    },
    {
      "midi": 78,
      "hit": false,
      "t": 63276.66949999966,
      "d": 72.81549999999697,
      "v": 44
    },
    {
      "midi": 61,
      "hit": false,
      "t": 63276.669499999734,
      "d": 54.61162499999773,
      "v": 48
    },
    {
      "midi": 77,
      "hit": false,
      "t": 63349.48499999966,
      "d": 72.81549999999697,
      "v": 41
    },
    {
      "midi": 65,
      "hit": false,
      "t": 63349.48499999973,
      "d": 54.61162499999773,
      "v": 47
    },
    {
      "midi": 75,
      "hit": false,
      "t": 63422.300499999656,
      "d": 72.81549999999697,
      "v": 40
    },
    {
      "midi": 61,
      "hit": false,
      "t": 63422.30049999973,
      "d": 54.61162499999773,
      "v": 39
    },
    {
      "midi": 73,
      "hit": false,
      "t": 63495.11599999965,
      "d": 72.81549999999697,
      "v": 47
    },
    {
      "midi": 57,
      "hit": false,
      "t": 63495.115999999725,
      "d": 291.2619999999879,
      "v": 85
    },
    {
      "midi": 75,
      "hit": false,
      "t": 63567.93149999965,
      "d": 72.81549999999697,
      "v": 44
    },
    {
      "midi": 61,
      "hit": false,
      "t": 63567.93149999972,
      "d": 54.61162499999773,
      "v": 39
    },
    {
      "midi": 73,
      "hit": false,
      "t": 63640.74699999965,
      "d": 72.81549999999697,
      "v": 50
    },
    {
      "midi": 65,
      "hit": false,
      "t": 63640.74699999972,
      "d": 54.61162499999773,
      "v": 32
    },
    {
      "midi": 72,
      "hit": false,
      "t": 63713.56249999964,
      "d": 72.81549999999697,
      "v": 50
    },
    {
      "midi": 61,
      "hit": false,
      "t": 63713.562499999716,
      "d": 54.61162499999773,
      "v": 36
    },
    {
      "midi": 70,
      "hit": false,
      "t": 63786.37799999964,
      "d": 72.81549999999697,
      "v": 44
    },
    {
      "midi": 82,
      "hit": false,
      "t": 63786.37799999964,
      "d": 291.2619999999879,
      "v": 75
    },
    {
      "midi": 58,
      "hit": false,
      "t": 63786.37799999971,
      "d": 291.2619999999879,
      "v": 70
    },
    {
      "midi": 72,
      "hit": false,
      "t": 63859.19349999964,
      "d": 72.81549999999697,
      "v": 36
    },
    {
      "midi": 61,
      "hit": false,
      "t": 63859.19349999971,
      "d": 54.61162499999773,
      "v": 54
    },
    {
      "midi": 73,
      "hit": false,
      "t": 63932.008999999634,
      "d": 72.81549999999697,
      "v": 50
    },
    {
      "midi": 65,
      "hit": false,
      "t": 63932.00899999971,
      "d": 54.61162499999773,
      "v": 52
    },
    {
      "midi": 70,
      "hit": false,
      "t": 64004.82449999963,
      "d": 72.81549999999697,
      "v": 47
    },
    {
      "midi": 61,
      "hit": false,
      "t": 64004.824499999704,
      "d": 54.61162499999773,
      "v": 54
    },
    {
      "midi": 81,
      "hit": false,
      "t": 64077.63999999963,
      "d": 291.26199999999517,
      "v": 75
    },
    {
      "midi": 49,
      "hit": false,
      "t": 64077.6399999997,
      "d": 54.61162499999773,
      "v": 55
    },
    {
      "midi": 65,
      "hit": false,
      "t": 64150.4554999997,
      "d": 54.61162499999773,
      "v": 47
    },
    {
      "midi": 70,
      "hit": false,
      "t": 64223.27099999963,
      "d": 72.81549999999697,
      "v": 35
    },
    {
      "midi": 73,
      "hit": false,
      "t": 64296.08649999963,
      "d": 72.81549999999697,
      "v": 44
    },
    {
      "midi": 77,
      "hit": false,
      "t": 64368.90199999962,
      "d": 72.81549999999697,
      "v": 52
    },
    {
      "midi": 82,
      "hit": false,
      "t": 64368.90199999962,
      "d": 291.2619999999879,
      "v": 75
    },
    {
      "midi": 58,
      "hit": false,
      "t": 64368.901999999696,
      "d": 291.2619999999879,
      "v": 70
    },
    {
      "midi": 78,
      "hit": false,
      "t": 64441.71749999962,
      "d": 72.81549999999697,
      "v": 55
    },
    {
      "midi": 61,
      "hit": false,
      "t": 64441.71749999969,
      "d": 54.61162499999773,
      "v": 44
    },
    {
      "midi": 77,
      "hit": false,
      "t": 64514.53299999962,
      "d": 72.81549999999697,
      "v": 50
    },
    {
      "midi": 65,
      "hit": false,
      "t": 64514.53299999969,
      "d": 54.61162499999773,
      "v": 36
    },
    {
      "midi": 75,
      "hit": false,
      "t": 64587.348499999614,
      "d": 72.81549999999697,
      "v": 35
    },
    {
      "midi": 61,
      "hit": false,
      "t": 64587.34849999969,
      "d": 54.61162499999773,
      "v": 36
    },
    {
      "midi": 73,
      "hit": false,
      "t": 64660.16399999961,
      "d": 72.81549999999697,
      "v": 50
    },
    {
      "midi": 57,
      "hit": false,
      "t": 64660.163999999684,
      "d": 291.2619999999879,
      "v": 85
    },
    {
      "midi": 75,
      "hit": false,
      "t": 64732.97949999961,
      "d": 72.81549999999697,
      "v": 38
    },
    {
      "midi": 61,
      "hit": false,
      "t": 64732.97949999968,
      "d": 54.61162499999773,
      "v": 48
    },
    {
      "midi": 73,
      "hit": false,
      "t": 64805.794999999605,
      "d": 72.81549999999697,
      "v": 50
    },
    {
      "midi": 65,
      "hit": false,
      "t": 64805.79499999968,
      "d": 54.61162499999773,
      "v": 44
    },
    {
      "midi": 72,
      "hit": false,
      "t": 64878.6104999996,
      "d": 72.81549999999697,
      "v": 41
    },
    {
      "midi": 61,
      "hit": false,
      "t": 64878.610499999675,
      "d": 54.61162499999773,
      "v": 42
    },
    {
      "midi": 70,
      "hit": false,
      "t": 64951.4259999996,
      "d": 72.81549999999697,
      "v": 35
    },
    {
      "midi": 82,
      "hit": false,
      "t": 64951.4259999996,
      "d": 291.2619999999879,
      "v": 75
    },
    {
      "midi": 58,
      "hit": false,
      "t": 64951.42599999967,
      "d": 291.2619999999879,
      "v": 70
    },
    {
      "midi": 72,
      "hit": false,
      "t": 65024.241499999596,
      "d": 72.81549999999697,
      "v": 36
    },
    {
      "midi": 61,
      "hit": false,
      "t": 65024.24149999967,
      "d": 54.61162499999773,
      "v": 48
    },
    {
      "midi": 73,
      "hit": false,
      "t": 65097.05699999959,
      "d": 72.81549999999697,
      "v": 32
    },
    {
      "midi": 65,
      "hit": false,
      "t": 65097.056999999666,
      "d": 54.61162499999773,
      "v": 44
    },
    {
      "midi": 70,
      "hit": false,
      "t": 65169.87249999959,
      "d": 72.81549999999697,
      "v": 38
    },
    {
      "midi": 61,
      "hit": false,
      "t": 65169.87249999966,
      "d": 54.61162499999773,
      "v": 42
    },
    {
      "midi": 71,
      "hit": false,
      "t": 65242.68799999959,
      "d": 72.81549999999697,
      "v": 32
    },
    {
      "midi": 83,
      "hit": false,
      "t": 65242.68799999959,
      "d": 72.81549999999697,
      "v": 80
    },
    {
      "midi": 51,
      "hit": false,
      "t": 65242.68799999966,
      "d": 54.61162499999773,
      "v": 63
    },
    {
      "midi": 78,
      "hit": false,
      "t": 65315.503499999584,
      "d": 72.81549999999697,
      "v": 50
    },
    {
      "midi": 66,
      "hit": false,
      "t": 65315.50349999966,
      "d": 54.61162499999773,
      "v": 44
    },
    {
      "midi": 71,
      "hit": false,
      "t": 65315.50349999966,
      "d": 54.61162499999773,
      "v": 39
    },
    {
      "midi": 83,
      "hit": false,
      "t": 65388.31899999958,
      "d": 72.81549999999697,
      "v": 47
    },
    {
      "midi": 63,
      "hit": false,
      "t": 65388.318999999654,
      "d": 54.61162499999773,
      "v": 50
    },
    {
      "midi": 87,
      "hit": false,
      "t": 65461.13449999958,
      "d": 72.81549999999697,
      "v": 58
    },
    {
      "midi": 66,
      "hit": false,
      "t": 65461.13449999965,
      "d": 54.61162499999773,
      "v": 47
    },
    {
      "midi": 71,
      "hit": false,
      "t": 65461.13449999965,
      "d": 54.61162499999773,
      "v": 32
    },
    {
      "midi": 90,
      "hit": false,
      "t": 65533.949999999575,
      "d": 72.81549999999697,
      "v": 58
    },
    {
      "midi": 63,
      "hit": false,
      "t": 65533.94999999965,
      "d": 54.611625000005006,
      "v": 55
    },
    {
      "midi": 92,
      "hit": false,
      "t": 65606.76549999957,
      "d": 72.81549999999697,
      "v": 58
    },
    {
      "midi": 66,
      "hit": false,
      "t": 65606.76549999966,
      "d": 54.611625000005006,
      "v": 40
    },
    {
      "midi": 71,
      "hit": false,
      "t": 65606.76549999966,
      "d": 54.611625000005006,
      "v": 36
    },
    {
      "midi": 90,
      "hit": false,
      "t": 65679.58099999957,
      "d": 72.81549999999697,
      "v": 58
    },
    {
      "midi": 63,
      "hit": false,
      "t": 65679.58099999967,
      "d": 54.611625000005006,
      "v": 47
    },
    {
      "midi": 89,
      "hit": false,
      "t": 65752.39649999957,
      "d": 72.81549999999697,
      "v": 59
    },
    {
      "midi": 66,
      "hit": false,
      "t": 65752.39649999968,
      "d": 54.611625000005006,
      "v": 27
    },
    {
      "midi": 71,
      "hit": false,
      "t": 65752.39649999968,
      "d": 54.611625000005006,
      "v": 26
    },
    {
      "midi": 87,
      "hit": false,
      "t": 65825.21199999956,
      "d": 72.81549999999697,
      "v": 58
    },
    {
      "midi": 63,
      "hit": false,
      "t": 65825.2119999997,
      "d": 54.611625000005006,
      "v": 55
    },
    {
      "midi": 89,
      "hit": false,
      "t": 65898.02749999956,
      "d": 72.81549999999697,
      "v": 47
    },
    {
      "midi": 66,
      "hit": false,
      "t": 65898.0274999997,
      "d": 54.611625000005006,
      "v": 24
    },
    {
      "midi": 71,
      "hit": false,
      "t": 65898.0274999997,
      "d": 54.611625000005006,
      "v": 41
    },
    {
      "midi": 87,
      "hit": false,
      "t": 65970.84299999956,
      "d": 72.81549999999697,
      "v": 55
    },
    {
      "midi": 63,
      "hit": false,
      "t": 65970.84299999972,
      "d": 54.611625000005006,
      "v": 44
    },
    {
      "midi": 85,
      "hit": false,
      "t": 66043.65849999955,
      "d": 72.81549999999697,
      "v": 50
    },
    {
      "midi": 66,
      "hit": false,
      "t": 66043.65849999973,
      "d": 54.611625000005006,
      "v": 38
    },
    {
      "midi": 71,
      "hit": false,
      "t": 66043.65849999973,
      "d": 54.611625000005006,
      "v": 23
    },
    {
      "midi": 83,
      "hit": false,
      "t": 66116.47399999955,
      "d": 72.81549999999697,
      "v": 52
    },
    {
      "midi": 63,
      "hit": false,
      "t": 66116.47399999974,
      "d": 54.611625000005006,
      "v": 55
    },
    {
      "midi": 85,
      "hit": false,
      "t": 66189.28949999955,
      "d": 72.81549999999697,
      "v": 55
    },
    {
      "midi": 66,
      "hit": false,
      "t": 66189.28949999975,
      "d": 54.611625000005006,
      "v": 32
    },
    {
      "midi": 71,
      "hit": false,
      "t": 66189.28949999975,
      "d": 54.611625000005006,
      "v": 36
    },
    {
      "midi": 83,
      "hit": false,
      "t": 66262.10499999954,
      "d": 72.81549999999697,
      "v": 50
    },
    {
      "midi": 63,
      "hit": false,
      "t": 66262.10499999976,
      "d": 54.611625000005006,
      "v": 50
    },
    {
      "midi": 82,
      "hit": false,
      "t": 66334.92049999954,
      "d": 72.81549999999697,
      "v": 55
    },
    {
      "midi": 66,
      "hit": false,
      "t": 66334.92049999977,
      "d": 54.611625000005006,
      "v": 27
    },
    {
      "midi": 71,
      "hit": false,
      "t": 66334.92049999977,
      "d": 54.611625000005006,
      "v": 34
    },
    {
      "midi": 81,
      "hit": false,
      "t": 66407.73599999954,
      "d": 72.81549999999697,
      "v": 52
    },
    {
      "midi": 65,
      "hit": false,
      "t": 66407.73599999979,
      "d": 54.611625000005006,
      "v": 59
    },
    {
      "midi": 84,
      "hit": false,
      "t": 66480.55149999954,
      "d": 72.81549999999697,
      "v": 50
    },
    {
      "midi": 69,
      "hit": false,
      "t": 66480.5514999998,
      "d": 54.611625000005006,
      "v": 41
    },
    {
      "midi": 75,
      "hit": false,
      "t": 66480.5514999998,
      "d": 54.611625000005006,
      "v": 58
    },
    {
      "midi": 87,
      "hit": false,
      "t": 66553.36699999953,
      "d": 72.81549999999697,
      "v": 58
    },
    {
      "midi": 65,
      "hit": false,
      "t": 66553.36699999981,
      "d": 54.611625000005006,
      "v": 50
    },
    {
      "midi": 85,
      "hit": false,
      "t": 66626.18249999953,
      "d": 72.81549999999697,
      "v": 55
    },
    {
      "midi": 69,
      "hit": false,
      "t": 66626.18249999982,
      "d": 54.611625000005006,
      "v": 39
    },
    {
      "midi": 75,
      "hit": false,
      "t": 66626.18249999982,
      "d": 54.611625000005006,
      "v": 47
    },
    {
      "midi": 84,
      "hit": false,
      "t": 66698.99799999953,
      "d": 72.81549999999697,
      "v": 50
    },
    {
      "midi": 65,
      "hit": false,
      "t": 66698.99799999983,
      "d": 54.611625000005006,
      "v": 52
    },
    {
      "midi": 85,
      "hit": false,
      "t": 66771.81349999952,
      "d": 72.81549999999697,
      "v": 55
    },
    {
      "midi": 69,
      "hit": false,
      "t": 66771.81349999984,
      "d": 54.611625000005006,
      "v": 41
    },
    {
      "midi": 75,
      "hit": false,
      "t": 66771.81349999984,
      "d": 54.611625000005006,
      "v": 44
    },
    {
      "midi": 84,
      "hit": false,
      "t": 66844.62899999952,
      "d": 72.81549999999697,
      "v": 44
    },
    {
      "midi": 65,
      "hit": false,
      "t": 66844.62899999986,
      "d": 54.611625000005006,
      "v": 56
    },
    {
      "midi": 82,
      "hit": false,
      "t": 66917.44449999952,
      "d": 72.81549999999697,
      "v": 50
    },
    {
      "midi": 69,
      "hit": false,
      "t": 66917.44449999987,
      "d": 54.611625000005006,
      "v": 44
    },
    {
      "midi": 75,
      "hit": false,
      "t": 66917.44449999987,
      "d": 54.611625000005006,
      "v": 50
    },
    {
      "midi": 81,
      "hit": false,
      "t": 66990.25999999951,
      "d": 72.81549999999697,
      "v": 50
    },
    {
      "midi": 65,
      "hit": false,
      "t": 66990.25999999988,
      "d": 54.611625000005006,
      "v": 41
    },
    {
      "midi": 82,
      "hit": false,
      "t": 67063.07549999951,
      "d": 72.81549999999697,
      "v": 55
    },
    {
      "midi": 69,
      "hit": false,
      "t": 67063.07549999989,
      "d": 54.611625000005006,
      "v": 39
    },
    {
      "midi": 81,
      "hit": false,
      "t": 67135.89099999951,
      "d": 72.81549999999697,
      "v": 41
    },
    {
      "midi": 65,
      "hit": false,
      "t": 67135.8909999999,
      "d": 54.611625000005006,
      "v": 44
    },
    {
      "midi": 78,
      "hit": false,
      "t": 67208.7064999995,
      "d": 72.81549999999697,
      "v": 44
    },
    {
      "midi": 69,
      "hit": false,
      "t": 67208.70649999991,
      "d": 54.611625000005006,
      "v": 44
    },
    {
      "midi": 77,
      "hit": false,
      "t": 67281.5219999995,
      "d": 72.81549999999697,
      "v": 56
    },
    {
      "midi": 53,
      "hit": false,
      "t": 67281.52199999992,
      "d": 54.611625000005006,
      "v": 51
    },
    {
      "midi": 75,
      "hit": false,
      "t": 67354.3374999995,
      "d": 72.81549999999697,
      "v": 55
    },
    {
      "midi": 65,
      "hit": false,
      "t": 67354.33749999994,
      "d": 54.611625000005006,
      "v": 44
    },
    {
      "midi": 73,
      "hit": false,
      "t": 67427.1529999995,
      "d": 72.81549999999697,
      "v": 40
    },
    {
      "midi": 53,
      "hit": false,
      "t": 67427.15299999995,
      "d": 54.611625000005006,
      "v": 51
    },
    {
      "midi": 72,
      "hit": false,
      "t": 67499.9684999995,
      "d": 72.81549999999697,
      "v": 52
    },
    {
      "midi": 65,
      "hit": false,
      "t": 67499.96849999996,
      "d": 54.611625000005006,
      "v": 50
    },
    {
      "midi": 70,
      "hit": false,
      "t": 67572.78399999949,
      "d": 72.81549999999697,
      "v": 58
    },
    {
      "midi": 46,
      "hit": false,
      "t": 67572.78399999997,
      "d": 109.22324999999546,
      "v": 33
    },
    {
      "midi": 77,
      "hit": false,
      "t": 67718.41499999948,
      "d": 145.63099999999395,
      "v": 70
    },
    {
      "midi": 58,
      "hit": false,
      "t": 67718.41499999996,
      "d": 54.611625000005006,
      "v": 70
    },
    {
      "midi": 61,
      "hit": false,
      "t": 67718.41499999996,
      "d": 54.611625000005006,
      "v": 70
    },
    {
      "midi": 65,
      "hit": false,
      "t": 67791.23049999998,
      "d": 54.611625000005006,
      "v": 39
    },
    {
      "midi": 58,
      "hit": false,
      "t": 67864.04599999999,
      "d": 54.611625000005006,
      "v": 44
    },
    {
      "midi": 61,
      "hit": false,
      "t": 67864.04599999999,
      "d": 54.611625000005006,
      "v": 28
    },
    {
      "midi": 65,
      "hit": false,
      "t": 67936.8615,
      "d": 54.611625000005006,
      "v": 36
    },
    {
      "midi": 77,
      "hit": false,
      "t": 68009.67699999947,
      "d": 72.81549999999697,
      "v": 56
    },
    {
      "midi": 58,
      "hit": false,
      "t": 68009.67700000001,
      "d": 54.611625000005006,
      "v": 44
    },
    {
      "midi": 61,
      "hit": false,
      "t": 68009.67700000001,
      "d": 54.611625000005006,
      "v": 23
    },
    {
      "midi": 65,
      "hit": false,
      "t": 68082.49250000002,
      "d": 54.611625000005006,
      "v": 31
    },
    {
      "midi": 77,
      "hit": false,
      "t": 68155.30799999947,
      "d": 72.81549999999697,
      "v": 67
    },
    {
      "midi": 58,
      "hit": false,
      "t": 68155.30800000003,
      "d": 54.611625000005006,
      "v": 38
    },
    {
      "midi": 61,
      "hit": false,
      "t": 68155.30800000003,
      "d": 54.611625000005006,
      "v": 31
    },
    {
      "midi": 65,
      "hit": false,
      "t": 68228.12350000005,
      "d": 54.611625000005006,
      "v": 47
    },
    {
      "midi": 78,
      "hit": false,
      "t": 68300.93899999946,
      "d": 145.63099999999395,
      "v": 68
    },
    {
      "midi": 58,
      "hit": false,
      "t": 68300.93900000006,
      "d": 54.611625000005006,
      "v": 70
    },
    {
      "midi": 61,
      "hit": false,
      "t": 68300.93900000006,
      "d": 54.611625000005006,
      "v": 70
    },
    {
      "midi": 64,
      "hit": false,
      "t": 68373.75450000007,
      "d": 54.611625000005006,
      "v": 47
    },
    {
      "midi": 58,
      "hit": false,
      "t": 68446.57000000008,
      "d": 54.611625000005006,
      "v": 47
    },
    {
      "midi": 61,
      "hit": false,
      "t": 68446.57000000008,
      "d": 54.611625000005006,
      "v": 18
    },
    {
      "midi": 64,
      "hit": false,
      "t": 68519.38550000009,
      "d": 54.611625000005006,
      "v": 42
    },
    {
      "midi": 78,
      "hit": false,
      "t": 68592.20099999945,
      "d": 72.81549999999697,
      "v": 63
    },
    {
      "midi": 58,
      "hit": false,
      "t": 68592.2010000001,
      "d": 54.611625000005006,
      "v": 47
    },
    {
      "midi": 61,
      "hit": false,
      "t": 68592.2010000001,
      "d": 54.611625000005006,
      "v": 42
    },
    {
      "midi": 64,
      "hit": false,
      "t": 68665.01650000011,
      "d": 54.611625000005006,
      "v": 42
    },
    {
      "midi": 78,
      "hit": false,
      "t": 68737.83199999944,
      "d": 72.81549999999697,
      "v": 68
    },
    {
      "midi": 57,
      "hit": false,
      "t": 68737.83200000013,
      "d": 54.611625000005006,
      "v": 47
    },
    {
      "midi": 60,
      "hit": false,
      "t": 68737.83200000013,
      "d": 54.611625000005006,
      "v": 47
    },
    {
      "midi": 64,
      "hit": false,
      "t": 68810.64750000014,
      "d": 54.611625000005006,
      "v": 42
    },
    {
      "midi": 77,
      "hit": false,
      "t": 68883.46299999944,
      "d": 145.63099999999395,
      "v": 75
    },
    {
      "midi": 57,
      "hit": false,
      "t": 68883.46300000015,
      "d": 54.611625000005006,
      "v": 70
    },
    {
      "midi": 60,
      "hit": false,
      "t": 68883.46300000015,
      "d": 54.611625000005006,
      "v": 70
    },
    {
      "midi": 65,
      "hit": false,
      "t": 68956.27850000016,
      "d": 54.611625000005006,
      "v": 47
    },
    {
      "midi": 57,
      "hit": false,
      "t": 69029.09400000017,
      "d": 54.611625000005006,
      "v": 44
    },
    {
      "midi": 60,
      "hit": false,
      "t": 69029.09400000017,
      "d": 54.611625000005006,
      "v": 39
    },
    {
      "midi": 65,
      "hit": false,
      "t": 69101.90950000018,
      "d": 54.611625000005006,
      "v": 47
    },
    {
      "midi": 77,
      "hit": false,
      "t": 69174.72499999942,
      "d": 72.81549999999697,
      "v": 70
    },
    {
      "midi": 57,
      "hit": false,
      "t": 69174.7250000002,
      "d": 54.611625000005006,
      "v": 47
    },
    {
      "midi": 60,
      "hit": false,
      "t": 69174.7250000002,
      "d": 54.611625000005006,
      "v": 47
    },
    {
      "midi": 65,
      "hit": false,
      "t": 69247.5405000002,
      "d": 54.611625000005006,
      "v": 50
    },
    {
      "midi": 77,
      "hit": false,
      "t": 69320.35599999942,
      "d": 72.81549999999697,
      "v": 44
    },
    {
      "midi": 57,
      "hit": false,
      "t": 69320.35600000022,
      "d": 54.611625000005006,
      "v": 35
    },
    {
      "midi": 60,
      "hit": false,
      "t": 69320.35600000022,
      "d": 54.611625000005006,
      "v": 29
    },
    {
      "midi": 65,
      "hit": false,
      "t": 69393.17150000023,
      "d": 54.611625000005006,
      "v": 31
    },
    {
      "midi": 72,
      "hit": false,
      "t": 69465.98699999941,
      "d": 72.81549999999697,
      "v": 31
    },
    {
      "midi": 57,
      "hit": false,
      "t": 69465.98700000024,
      "d": 54.611625000005006,
      "v": 27
    },
    {
      "midi": 60,
      "hit": false,
      "t": 69465.98700000024,
      "d": 54.611625000005006,
      "v": 22
    },
    {
      "midi": 65,
      "hit": false,
      "t": 69538.80250000025,
      "d": 54.611625000005006,
      "v": 33
    },
    {
      "midi": 73,
      "hit": false,
      "t": 69611.6179999994,
      "d": 72.81549999999697,
      "v": 39
    },
    {
      "midi": 57,
      "hit": false,
      "t": 69611.61800000026,
      "d": 54.611625000005006,
      "v": 31
    },
    {
      "midi": 60,
      "hit": false,
      "t": 69611.61800000026,
      "d": 54.611625000005006,
      "v": 20
    },
    {
      "midi": 65,
      "hit": false,
      "t": 69684.43350000028,
      "d": 54.611625000005006,
      "v": 29
    },
    {
      "midi": 75,
      "hit": false,
      "t": 69757.2489999994,
      "d": 72.81549999999697,
      "v": 39
    },
    {
      "midi": 57,
      "hit": false,
      "t": 69757.24900000029,
      "d": 54.611625000005006,
      "v": 27
    },
    {
      "midi": 60,
      "hit": false,
      "t": 69757.24900000029,
      "d": 54.611625000005006,
      "v": 24
    },
    {
      "midi": 65,
      "hit": false,
      "t": 69830.0645000003,
      "d": 54.611625000005006,
      "v": 29
    },
    {
      "midi": 73,
      "hit": false,
      "t": 69902.8799999994,
      "d": 72.81549999999697,
      "v": 63
    },
    {
      "midi": 58,
      "hit": false,
      "t": 69902.88000000031,
      "d": 54.611625000005006,
      "v": 44
    },
    {
      "midi": 61,
      "hit": false,
      "t": 69902.88000000031,
      "d": 54.611625000005006,
      "v": 51
    },
    {
      "midi": 65,
      "hit": false,
      "t": 69975.69550000032,
      "d": 54.611625000005006,
      "v": 47
    },
    {
      "midi": 77,
      "hit": false,
      "t": 70048.51099999939,
      "d": 145.63099999999395,
      "v": 56
    },
    {
      "midi": 89,
      "hit": false,
      "t": 70048.51099999939,
      "d": 145.63099999999395,
      "v": 62
    },
    {
      "midi": 58,
      "hit": false,
      "t": 70048.51100000033,
      "d": 54.611625000005006,
      "v": 70
    },
    {
      "midi": 61,
      "hit": false,
      "t": 70048.51100000033,
      "d": 54.611625000005006,
      "v": 70
    },
    {
      "midi": 65,
      "hit": false,
      "t": 70121.32650000034,
      "d": 54.611625000005006,
      "v": 47
    },
    {
      "midi": 58,
      "hit": false,
      "t": 70194.14200000036,
      "d": 54.611625000005006,
      "v": 47
    },
    {
      "midi": 61,
      "hit": false,
      "t": 70194.14200000036,
      "d": 54.611625000005006,
      "v": 42
    },
    {
      "midi": 65,
      "hit": false,
      "t": 70266.95750000037,
      "d": 54.611625000005006,
      "v": 34
    },
    {
      "midi": 77,
      "hit": false,
      "t": 70339.77299999938,
      "d": 72.81549999999697,
      "v": 50
    },
    {
      "midi": 89,
      "hit": false,
      "t": 70339.77299999938,
      "d": 72.81549999999697,
      "v": 62
    },
    {
      "midi": 58,
      "hit": false,
      "t": 70339.77300000038,
      "d": 54.611625000005006,
      "v": 63
    },
    {
      "midi": 61,
      "hit": false,
      "t": 70339.77300000038,
      "d": 54.611625000005006,
      "v": 13
    },
    {
      "midi": 65,
      "hit": false,
      "t": 70412.58850000039,
      "d": 54.611625000005006,
      "v": 50
    },
    {
      "midi": 77,
      "hit": false,
      "t": 70485.40399999937,
      "d": 72.81549999999697,
      "v": 47
    },
    {
      "midi": 89,
      "hit": false,
      "t": 70485.40399999937,
      "d": 72.81549999999697,
      "v": 59
    },
    {
      "midi": 58,
      "hit": false,
      "t": 70485.4040000004,
      "d": 54.611625000005006,
      "v": 50
    },
    {
      "midi": 61,
      "hit": false,
      "t": 70485.4040000004,
      "d": 54.611625000005006,
      "v": 51
    },
    {
      "midi": 65,
      "hit": false,
      "t": 70558.21950000041,
      "d": 54.611625000005006,
      "v": 44
    },
    {
      "midi": 78,
      "hit": false,
      "t": 70631.03499999936,
      "d": 145.63099999999395,
      "v": 58
    },
    {
      "midi": 90,
      "hit": false,
      "t": 70631.03499999936,
      "d": 145.63099999999395,
      "v": 74
    },
    {
      "midi": 58,
      "hit": false,
      "t": 70631.03500000043,
      "d": 54.611625000005006,
      "v": 70
    },
    {
      "midi": 61,
      "hit": false,
      "t": 70631.03500000043,
      "d": 54.611625000005006,
      "v": 70
    },
    {
      "midi": 64,
      "hit": false,
      "t": 70703.85050000044,
      "d": 54.611625000005006,
      "v": 49
    },
    {
      "midi": 58,
      "hit": false,
      "t": 70776.66600000045,
      "d": 54.611625000005006,
      "v": 40
    },
    {
      "midi": 61,
      "hit": false,
      "t": 70776.66600000045,
      "d": 54.611625000005006,
      "v": 39
    },
    {
      "midi": 64,
      "hit": false,
      "t": 70849.48150000046,
      "d": 54.611625000005006,
      "v": 40
    },
    {
      "midi": 78,
      "hit": false,
      "t": 70922.29699999935,
      "d": 72.81549999999697,
      "v": 38
    },
    {
      "midi": 90,
      "hit": false,
      "t": 70922.29699999935,
      "d": 72.81549999999697,
      "v": 68
    },
    {
      "midi": 58,
      "hit": false,
      "t": 70922.29700000047,
      "d": 54.611625000005006,
      "v": 44
    },
    {
      "midi": 61,
      "hit": false,
      "t": 70922.29700000047,
      "d": 54.611625000005006,
      "v": 42
    },
    {
      "midi": 64,
      "hit": false,
      "t": 70995.11250000048,
      "d": 54.611625000005006,
      "v": 42
    },
    {
      "midi": 78,
      "hit": false,
      "t": 71067.92799999935,
      "d": 72.81549999999697,
      "v": 40
    },
    {
      "midi": 90,
      "hit": false,
      "t": 71067.92799999935,
      "d": 72.81549999999697,
      "v": 63
    },
    {
      "midi": 57,
      "hit": false,
      "t": 71067.9280000005,
      "d": 54.611625000005006,
      "v": 41
    },
    {
      "midi": 60,
      "hit": false,
      "t": 71067.9280000005,
      "d": 54.611625000005006,
      "v": 52
    },
    {
      "midi": 64,
      "hit": false,
      "t": 71140.7435000005,
      "d": 54.611625000005006,
      "v": 40
    },
    {
      "midi": 77,
      "hit": false,
      "t": 71213.55899999934,
      "d": 145.63099999999395,
      "v": 52
    },
    {
      "midi": 89,
      "hit": false,
      "t": 71213.55899999934,
      "d": 145.63099999999395,
      "v": 67
    },
    {
      "midi": 57,
      "hit": false,
      "t": 71213.55900000052,
      "d": 54.611625000005006,
      "v": 70
    },
    {
      "midi": 60,
      "hit": false,
      "t": 71213.55900000052,
      "d": 54.611625000005006,
      "v": 70
    },
    {
      "midi": 65,
      "hit": false,
      "t": 71286.37450000053,
      "d": 54.611625000005006,
      "v": 44
    },
    {
      "midi": 57,
      "hit": false,
      "t": 71359.19000000054,
      "d": 54.611625000005006,
      "v": 39
    },
    {
      "midi": 60,
      "hit": false,
      "t": 71359.19000000054,
      "d": 54.611625000005006,
      "v": 50
    },
    {
      "midi": 65,
      "hit": false,
      "t": 71432.00550000055,
      "d": 54.611625000005006,
      "v": 34
    },
    {
      "midi": 77,
      "hit": false,
      "t": 71504.82099999933,
      "d": 72.81549999999697,
      "v": 44
    },
    {
      "midi": 89,
      "hit": false,
      "t": 71504.82099999933,
      "d": 72.81549999999697,
      "v": 59
    },
    {
      "midi": 57,
      "hit": false,
      "t": 71504.82100000056,
      "d": 54.611625000005006,
      "v": 44
    },
    {
      "midi": 60,
      "hit": false,
      "t": 71504.82100000056,
      "d": 54.611625000005006,
      "v": 32
    },
    {
      "midi": 65,
      "hit": false,
      "t": 71577.63650000058,
      "d": 54.611625000005006,
      "v": 47
    },
    {
      "midi": 77,
      "hit": false,
      "t": 71650.45199999932,
      "d": 72.81549999999697,
      "v": 28
    },
    {
      "midi": 89,
      "hit": false,
      "t": 71650.45199999932,
      "d": 72.81549999999697,
      "v": 36
    },
    {
      "midi": 57,
      "hit": false,
      "t": 71650.45200000059,
      "d": 54.611625000005006,
      "v": 28
    },
    {
      "midi": 60,
      "hit": false,
      "t": 71650.45200000059,
      "d": 54.611625000005006,
      "v": 28
    },
    {
      "midi": 65,
      "hit": false,
      "t": 71723.2675000006,
      "d": 54.611625000005006,
      "v": 29
    },
    {
      "midi": 72,
      "hit": false,
      "t": 71796.08299999931,
      "d": 72.81549999999697,
      "v": 26
    },
    {
      "midi": 84,
      "hit": false,
      "t": 71796.08299999931,
      "d": 72.81549999999697,
      "v": 31
    },
    {
      "midi": 57,
      "hit": false,
      "t": 71796.08300000061,
      "d": 54.611625000005006,
      "v": 26
    },
    {
      "midi": 60,
      "hit": false,
      "t": 71796.08300000061,
      "d": 54.611625000005006,
      "v": 28
    },
    {
      "midi": 65,
      "hit": false,
      "t": 71868.89850000062,
      "d": 54.611625000005006,
      "v": 29
    },
    {
      "midi": 73,
      "hit": false,
      "t": 71941.71399999931,
      "d": 72.81549999999697,
      "v": 28
    },
    {
      "midi": 85,
      "hit": false,
      "t": 71941.71399999931,
      "d": 72.81549999999697,
      "v": 40
    },
    {
      "midi": 57,
      "hit": false,
      "t": 71941.71400000063,
      "d": 54.611625000005006,
      "v": 28
    },
    {
      "midi": 60,
      "hit": false,
      "t": 71941.71400000063,
      "d": 54.611625000005006,
      "v": 28
    },
    {
      "midi": 65,
      "hit": false,
      "t": 72014.52950000064,
      "d": 54.611625000005006,
      "v": 29
    },
    {
      "midi": 75,
      "hit": false,
      "t": 72087.3449999993,
      "d": 72.81549999999697,
      "v": 24
    },
    {
      "midi": 87,
      "hit": false,
      "t": 72087.3449999993,
      "d": 72.81549999999697,
      "v": 37
    },
    {
      "midi": 57,
      "hit": false,
      "t": 72087.34500000066,
      "d": 54.611625000005006,
      "v": 24
    },
    {
      "midi": 60,
      "hit": false,
      "t": 72087.34500000066,
      "d": 54.611625000005006,
      "v": 24
    },
    {
      "midi": 65,
      "hit": false,
      "t": 72160.16050000067,
      "d": 54.611625000005006,
      "v": 29
    },
    {
      "midi": 73,
      "hit": false,
      "t": 72232.9759999993,
      "d": 72.81549999999697,
      "v": 38
    },
    {
      "midi": 85,
      "hit": false,
      "t": 72232.9759999993,
      "d": 72.81549999999697,
      "v": 50
    },
    {
      "midi": 58,
      "hit": false,
      "t": 72232.97600000068,
      "d": 54.611625000005006,
      "v": 47
    },
    {
      "midi": 61,
      "hit": false,
      "t": 72232.97600000068,
      "d": 54.611625000005006,
      "v": 51
    },
    {
      "midi": 65,
      "hit": false,
      "t": 72305.79150000069,
      "d": 54.611625000005006,
      "v": 52
    },
    {
      "midi": 72,
      "hit": false,
      "t": 72378.60699999929,
      "d": 145.63099999999395,
      "v": 62
    },
    {
      "midi": 52,
      "hit": false,
      "t": 72378.6070000007,
      "d": 54.611625000005006,
      "v": 70
    },
    {
      "midi": 55,
      "hit": false,
      "t": 72378.6070000007,
      "d": 54.611625000005006,
      "v": 70
    },
    {
      "midi": 60,
      "hit": false,
      "t": 72451.42250000071,
      "d": 54.611625000005006,
      "v": 52
    },
    {
      "midi": 52,
      "hit": false,
      "t": 72524.23800000073,
      "d": 54.611625000005006,
      "v": 44
    },
    {
      "midi": 55,
      "hit": false,
      "t": 72524.23800000073,
      "d": 54.611625000005006,
      "v": 36
    },
    {
      "midi": 60,
      "hit": false,
      "t": 72597.05350000074,
      "d": 54.611625000005006,
      "v": 44
    },
    {
      "midi": 72,
      "hit": false,
      "t": 72669.86899999928,
      "d": 72.81549999999697,
      "v": 59
    },
    {
      "midi": 52,
      "hit": false,
      "t": 72669.86900000075,
      "d": 54.611625000005006,
      "v": 52
    },
    {
      "midi": 55,
      "hit": false,
      "t": 72669.86900000075,
      "d": 54.611625000005006,
      "v": 44
    },
    {
      "midi": 60,
      "hit": false,
      "t": 72742.68450000076,
      "d": 54.611625000005006,
      "v": 50
    },
    {
      "midi": 72,
      "hit": false,
      "t": 72815.49999999927,
      "d": 72.81549999999697,
      "v": 62
    },
    {
      "midi": 53,
      "hit": false,
      "t": 72815.50000000077,
      "d": 54.611625000005006,
      "v": 54
    },
    {
      "midi": 56,
      "hit": false,
      "t": 72815.50000000077,
      "d": 54.611625000005006,
      "v": 62
    },
    {
      "midi": 60,
      "hit": false,
      "t": 72888.31550000078,
      "d": 54.611625000005006,
      "v": 36
    },
    {
      "midi": 71,
      "hit": false,
      "t": 72961.13099999927,
      "d": 145.63099999999395,
      "v": 59
    },
    {
      "midi": 53,
      "hit": false,
      "t": 72961.1310000008,
      "d": 54.611625000005006,
      "v": 70
    },
    {
      "midi": 56,
      "hit": false,
      "t": 72961.1310000008,
      "d": 54.611625000005006,
      "v": 70
    },
    {
      "midi": 62,
      "hit": false,
      "t": 73033.9465000008,
      "d": 54.611625000005006,
      "v": 47
    },
    {
      "midi": 53,
      "hit": false,
      "t": 73106.76200000082,
      "d": 54.611625000005006,
      "v": 38
    },
    {
      "midi": 56,
      "hit": false,
      "t": 73106.76200000082,
      "d": 54.611625000005006,
      "v": 51
    },
    {
      "midi": 62,
      "hit": false,
      "t": 73179.57750000083,
      "d": 54.611625000005006,
      "v": 36
    },
    {
      "midi": 71,
      "hit": false,
      "t": 73252.39299999925,
      "d": 72.81549999999697,
      "v": 59
    },
    {
      "midi": 53,
      "hit": false,
      "t": 73252.39300000084,
      "d": 54.611625000005006,
      "v": 45
    },
    {
      "midi": 56,
      "hit": false,
      "t": 73252.39300000084,
      "d": 54.611625000005006,
      "v": 59
    },
    {
      "midi": 62,
      "hit": false,
      "t": 73325.20850000085,
      "d": 54.611625000005006,
      "v": 47
    },
    {
      "midi": 71,
      "hit": false,
      "t": 73398.02399999925,
      "d": 72.81549999999697,
      "v": 59
    },
    {
      "midi": 52,
      "hit": false,
      "t": 73398.02400000086,
      "d": 54.611625000005006,
      "v": 62
    },
    {
      "midi": 55,
      "hit": false,
      "t": 73398.02400000086,
      "d": 54.611625000005006,
      "v": 52
    },
    {
      "midi": 62,
      "hit": false,
      "t": 73470.83950000087,
      "d": 54.611625000005006,
      "v": 47
    },
    {
      "midi": 72,
      "hit": false,
      "t": 73543.65499999924,
      "d": 145.63099999999395,
      "v": 67
    },
    {
      "midi": 52,
      "hit": false,
      "t": 73543.65500000089,
      "d": 54.611625000005006,
      "v": 50
    },
    {
      "midi": 55,
      "hit": false,
      "t": 73543.65500000089,
      "d": 54.611625000005006,
      "v": 70
    },
    {
      "midi": 60,
      "hit": false,
      "t": 73616.4705000009,
      "d": 54.611625000005006,
      "v": 50
    },
    {
      "midi": 52,
      "hit": false,
      "t": 73689.28600000091,
      "d": 54.611625000005006,
      "v": 52
    },
    {
      "midi": 55,
      "hit": false,
      "t": 73689.28600000091,
      "d": 54.611625000005006,
      "v": 52
    },
    {
      "midi": 60,
      "hit": false,
      "t": 73762.10150000092,
      "d": 54.611625000005006,
      "v": 50
    },
    {
      "midi": 72,
      "hit": false,
      "t": 73834.91699999923,
      "d": 72.81549999999697,
      "v": 59
    },
    {
      "midi": 52,
      "hit": false,
      "t": 73834.91700000093,
      "d": 54.611625000005006,
      "v": 50
    },
    {
      "midi": 55,
      "hit": false,
      "t": 73834.91700000093,
      "d": 54.611625000005006,
      "v": 52
    },
    {
      "midi": 60,
      "hit": false,
      "t": 73907.73250000094,
      "d": 54.611625000005006,
      "v": 47
    },
    {
      "midi": 72,
      "hit": false,
      "t": 73980.54799999922,
      "d": 72.81549999999697,
      "v": 46
    },
    {
      "midi": 52,
      "hit": false,
      "t": 73980.54800000096,
      "d": 54.611625000005006,
      "v": 30
    },
    {
      "midi": 55,
      "hit": false,
      "t": 73980.54800000096,
      "d": 54.611625000005006,
      "v": 27
    },
    {
      "midi": 60,
      "hit": false,
      "t": 74053.36350000097,
      "d": 54.611625000005006,
      "v": 39
    },
    {
      "midi": 67,
      "hit": false,
      "t": 74126.17899999922,
      "d": 72.81549999999697,
      "v": 42
    },
    {
      "midi": 52,
      "hit": false,
      "t": 74126.17900000098,
      "d": 54.611625000005006,
      "v": 35
    },
    {
      "midi": 55,
      "hit": false,
      "t": 74126.17900000098,
      "d": 54.611625000005006,
      "v": 35
    },
    {
      "midi": 60,
      "hit": false,
      "t": 74198.99450000099,
      "d": 54.611625000005006,
      "v": 35
    },
    {
      "midi": 68,
      "hit": false,
      "t": 74271.80999999921,
      "d": 72.81549999999697,
      "v": 43
    },
    {
      "midi": 52,
      "hit": false,
      "t": 74271.810000001,
      "d": 54.611625000005006,
      "v": 33
    },
    {
      "midi": 55,
      "hit": false,
      "t": 74271.810000001,
      "d": 54.611625000005006,
      "v": 24
    },
    {
      "midi": 60,
      "hit": false,
      "t": 74344.62550000101,
      "d": 54.611625000005006,
      "v": 37
    },
    {
      "midi": 70,
      "hit": false,
      "t": 74417.4409999992,
      "d": 72.81549999999697,
      "v": 41
    },
    {
      "midi": 52,
      "hit": false,
      "t": 74417.44100000102,
      "d": 54.611625000005006,
      "v": 30
    },
    {
      "midi": 55,
      "hit": false,
      "t": 74417.44100000102,
      "d": 54.611625000005006,
      "v": 25
    },
    {
      "midi": 60,
      "hit": false,
      "t": 74490.25650000104,
      "d": 54.611625000005006,
      "v": 35
    },
    {
      "midi": 68,
      "hit": false,
      "t": 74563.0719999992,
      "d": 72.81549999999697,
      "v": 63
    },
    {
      "midi": 53,
      "hit": false,
      "t": 74563.07200000105,
      "d": 54.611625000005006,
      "v": 45
    },
    {
      "midi": 56,
      "hit": false,
      "t": 74563.07200000105,
      "d": 54.611625000005006,
      "v": 48
    },
    {
      "midi": 60,
      "hit": false,
      "t": 74635.88750000106,
      "d": 54.611625000005006,
      "v": 50
    },
    {
      "midi": 72,
      "hit": false,
      "t": 74708.7029999992,
      "d": 145.63099999999395,
      "v": 59
    },
    {
      "midi": 84,
      "hit": false,
      "t": 74708.7029999992,
      "d": 145.63099999999395,
      "v": 70
    },
    {
      "midi": 53,
      "hit": false,
      "t": 74708.70300000107,
      "d": 54.611625000005006,
      "v": 70
    },
    {
      "midi": 56,
      "hit": false,
      "t": 74708.70300000107,
      "d": 54.611625000005006,
      "v": 70
    },
    {
      "midi": 60,
      "hit": false,
      "t": 74781.51850000108,
      "d": 54.611625000005006,
      "v": 52
    },
    {
      "midi": 53,
      "hit": false,
      "t": 74854.3340000011,
      "d": 54.611625000005006,
      "v": 38
    },
    {
      "midi": 56,
      "hit": false,
      "t": 74854.3340000011,
      "d": 54.611625000005006,
      "v": 54
    },
    {
      "midi": 60,
      "hit": false,
      "t": 74927.1495000011,
      "d": 54.611625000005006,
      "v": 56
    },
    {
      "midi": 72,
      "hit": false,
      "t": 74999.96499999918,
      "d": 72.81549999999697,
      "v": 52
    },
    {
      "midi": 84,
      "hit": false,
      "t": 74999.96499999918,
      "d": 72.81549999999697,
      "v": 67
    },
    {
      "midi": 53,
      "hit": false,
      "t": 74999.96500000112,
      "d": 54.611625000005006,
      "v": 48
    },
    {
      "midi": 56,
      "hit": false,
      "t": 74999.96500000112,
      "d": 54.611625000005006,
      "v": 51
    },
    {
      "midi": 60,
      "hit": false,
      "t": 75072.78050000113,
      "d": 54.611625000005006,
      "v": 50
    },
    {
      "midi": 72,
      "hit": false,
      "t": 75145.59599999918,
      "d": 72.81549999999697,
      "v": 47
    },
    {
      "midi": 84,
      "hit": false,
      "t": 75145.59599999918,
      "d": 72.81549999999697,
      "v": 59
    },
    {
      "midi": 53,
      "hit": false,
      "t": 75145.59600000114,
      "d": 54.611625000005006,
      "v": 40
    },
    {
      "midi": 56,
      "hit": false,
      "t": 75145.59600000114,
      "d": 54.611625000005006,
      "v": 54
    },
    {
      "midi": 60,
      "hit": false,
      "t": 75218.41150000115,
      "d": 54.611625000005006,
      "v": 41
    },
    {
      "midi": 71,
      "hit": false,
      "t": 75291.22699999917,
      "d": 145.63099999999395,
      "v": 52
    },
    {
      "midi": 83,
      "hit": false,
      "t": 75291.22699999917,
      "d": 145.63099999999395,
      "v": 62
    },
    {
      "midi": 53,
      "hit": false,
      "t": 75291.22700000116,
      "d": 54.611625000005006,
      "v": 70
    },
    {
      "midi": 56,
      "hit": false,
      "t": 75291.22700000116,
      "d": 54.611625000005006,
      "v": 70
    },
    {
      "midi": 62,
      "hit": false,
      "t": 75364.04250000117,
      "d": 54.611625000005006,
      "v": 41
    },
    {
      "midi": 53,
      "hit": false,
      "t": 75436.85800000119,
      "d": 54.611625000005006,
      "v": 48
    },
    {
      "midi": 56,
      "hit": false,
      "t": 75436.85800000119,
      "d": 54.611625000005006,
      "v": 36
    },
    {
      "midi": 62,
      "hit": false,
      "t": 75509.6735000012,
      "d": 54.611625000005006,
      "v": 47
    },
    {
      "midi": 71,
      "hit": false,
      "t": 75582.48899999916,
      "d": 72.81549999999697,
      "v": 47
    },
    {
      "midi": 83,
      "hit": false,
      "t": 75582.48899999916,
      "d": 72.81549999999697,
      "v": 62
    },
    {
      "midi": 53,
      "hit": false,
      "t": 75582.48900000121,
      "d": 54.611625000005006,
      "v": 29
    },
    {
      "midi": 56,
      "hit": false,
      "t": 75582.48900000121,
      "d": 54.611625000005006,
      "v": 54
    },
    {
      "midi": 62,
      "hit": false,
      "t": 75655.30450000122,
      "d": 54.611625000005006,
      "v": 41
    },
    {
      "midi": 71,
      "hit": false,
      "t": 75728.11999999915,
      "d": 72.81549999999697,
      "v": 59
    },
    {
      "midi": 83,
      "hit": false,
      "t": 75728.11999999915,
      "d": 72.81549999999697,
      "v": 70
    },
    {
      "midi": 52,
      "hit": false,
      "t": 75728.12000000123,
      "d": 54.611625000005006,
      "v": 56
    },
    {
      "midi": 55,
      "hit": false,
      "t": 75728.12000000123,
      "d": 54.611625000005006,
      "v": 56
    },
    {
      "midi": 62,
      "hit": false,
      "t": 75800.93550000124,
      "d": 54.611625000005006,
      "v": 47
    },
    {
      "midi": 72,
      "hit": false,
      "t": 75873.75099999915,
      "d": 145.63099999999395,
      "v": 70
    },
    {
      "midi": 84,
      "hit": false,
      "t": 75873.75099999915,
      "d": 145.63099999999395,
      "v": 80
    },
    {
      "midi": 52,
      "hit": false,
      "t": 75873.75100000126,
      "d": 54.611625000005006,
      "v": 70
    },
    {
      "midi": 55,
      "hit": false,
      "t": 75873.75100000126,
      "d": 54.611625000005006,
      "v": 70
    },
    {
      "midi": 60,
      "hit": false,
      "t": 75946.56650000127,
      "d": 54.611625000005006,
      "v": 50
    },
    {
      "midi": 52,
      "hit": false,
      "t": 76019.38200000128,
      "d": 54.611625000005006,
      "v": 47
    },
    {
      "midi": 55,
      "hit": false,
      "t": 76019.38200000128,
      "d": 54.611625000005006,
      "v": 44
    },
    {
      "midi": 60,
      "hit": false,
      "t": 76092.19750000129,
      "d": 54.611625000005006,
      "v": 41
    },
    {
      "midi": 72,
      "hit": false,
      "t": 76165.01299999913,
      "d": 72.81549999999697,
      "v": 52
    },
    {
      "midi": 84,
      "hit": false,
      "t": 76165.01299999913,
      "d": 72.81549999999697,
      "v": 70
    },
    {
      "midi": 52,
      "hit": false,
      "t": 76165.0130000013,
      "d": 54.611625000005006,
      "v": 41
    },
    {
      "midi": 55,
      "hit": false,
      "t": 76165.0130000013,
      "d": 54.611625000005006,
      "v": 39
    },
    {
      "midi": 60,
      "hit": false,
      "t": 76237.82850000131,
      "d": 54.611625000005006,
      "v": 41
    },
    {
      "midi": 72,
      "hit": false,
      "t": 76310.64399999913,
      "d": 72.81549999999697,
      "v": 52
    },
    {
      "midi": 84,
      "hit": false,
      "t": 76310.64399999913,
      "d": 72.81549999999697,
      "v": 70
    },
    {
      "midi": 52,
      "hit": false,
      "t": 76310.64400000132,
      "d": 54.611625000005006,
      "v": 47
    },
    {
      "midi": 55,
      "hit": false,
      "t": 76310.64400000132,
      "d": 54.611625000005006,
      "v": 41
    },
    {
      "midi": 60,
      "hit": false,
      "t": 76383.45950000134,
      "d": 54.611625000005006,
      "v": 47
    },
    {
      "midi": 67,
      "hit": false,
      "t": 76456.27499999912,
      "d": 72.81549999999697,
      "v": 56
    },
    {
      "midi": 79,
      "hit": false,
      "t": 76456.27499999912,
      "d": 72.81549999999697,
      "v": 70
    },
    {
      "midi": 52,
      "hit": false,
      "t": 76456.27500000135,
      "d": 54.611625000005006,
      "v": 50
    },
    {
      "midi": 55,
      "hit": false,
      "t": 76456.27500000135,
      "d": 54.611625000005006,
      "v": 47
    },
    {
      "midi": 60,
      "hit": false,
      "t": 76529.09050000136,
      "d": 54.611625000005006,
      "v": 44
    },
    {
      "midi": 68,
      "hit": false,
      "t": 76601.90599999912,
      "d": 72.81549999999697,
      "v": 47
    },
    {
      "midi": 80,
      "hit": false,
      "t": 76601.90599999912,
      "d": 72.81549999999697,
      "v": 68
    },
    {
      "midi": 52,
      "hit": false,
      "t": 76601.90600000137,
      "d": 54.611625000005006,
      "v": 41
    },
    {
      "midi": 55,
      "hit": false,
      "t": 76601.90600000137,
      "d": 54.611625000005006,
      "v": 44
    },
    {
      "midi": 60,
      "hit": false,
      "t": 76674.72150000138,
      "d": 54.611625000005006,
      "v": 41
    },
    {
      "midi": 70,
      "hit": false,
      "t": 76747.53699999911,
      "d": 72.81549999999697,
      "v": 50
    },
    {
      "midi": 82,
      "hit": false,
      "t": 76747.53699999911,
      "d": 72.81549999999697,
      "v": 68
    },
    {
      "midi": 52,
      "hit": false,
      "t": 76747.5370000014,
      "d": 54.611625000005006,
      "v": 44
    },
    {
      "midi": 55,
      "hit": false,
      "t": 76747.5370000014,
      "d": 54.611625000005006,
      "v": 41
    },
    {
      "midi": 60,
      "hit": false,
      "t": 76820.3525000014,
      "d": 54.611625000005006,
      "v": 44
    },
    {
      "midi": 68,
      "hit": false,
      "t": 76893.1679999991,
      "d": 54.611625000005006,
      "v": 55
    },
    {
      "midi": 80,
      "hit": false,
      "t": 76893.1679999991,
      "d": 54.611625000005006,
      "v": 68
    },
    {
      "midi": 41,
      "hit": false,
      "t": 76893.16800000142,
      "d": 218.44650000000547,
      "v": 54
    },
    {
      "midi": 44,
      "hit": false,
      "t": 76893.16800000142,
      "d": 218.44650000000547,
      "v": 58
    },
    {
      "midi": 48,
      "hit": false,
      "t": 76893.16800000142,
      "d": 218.44650000000547,
      "v": 62
    },
    {
      "midi": 53,
      "hit": false,
      "t": 76893.16800000142,
      "d": 218.44650000000547,
      "v": 71
    },
    {
      "midi": 60,
      "hit": false,
      "t": 76965.98349999911,
      "d": 54.611625000005006,
      "v": 41
    },
    {
      "midi": 65,
      "hit": false,
      "t": 77038.79899999913,
      "d": 54.611625000005006,
      "v": 39
    },
    {
      "midi": 68,
      "hit": false,
      "t": 77111.61449999914,
      "d": 54.611625000005006,
      "v": 40
    },
    {
      "midi": 72,
      "hit": false,
      "t": 77184.42999999915,
      "d": 54.611625000005006,
      "v": 56
    },
    {
      "midi": 73,
      "hit": false,
      "t": 77257.24549999916,
      "d": 54.611625000005006,
      "v": 58
    },
    {
      "midi": 48,
      "hit": false,
      "t": 77257.24550000142,
      "d": 54.611625000005006,
      "v": 50
    },
    {
      "midi": 72,
      "hit": false,
      "t": 77330.06099999917,
      "d": 54.611625000005006,
      "v": 52
    },
    {
      "midi": 53,
      "hit": false,
      "t": 77330.06100000143,
      "d": 54.611625000005006,
      "v": 56
    },
    {
      "midi": 70,
      "hit": false,
      "t": 77402.87649999918,
      "d": 54.611625000005006,
      "v": 44
    },
    {
      "midi": 56,
      "hit": false,
      "t": 77402.87650000144,
      "d": 54.611625000005006,
      "v": 62
    },
    {
      "midi": 68,
      "hit": false,
      "t": 77475.6919999992,
      "d": 54.611625000005006,
      "v": 50
    },
    {
      "midi": 60,
      "hit": false,
      "t": 77475.69200000145,
      "d": 54.611625000005006,
      "v": 59
    },
    {
      "midi": 70,
      "hit": false,
      "t": 77548.5074999992,
      "d": 54.611625000005006,
      "v": 40
    },
    {
      "midi": 61,
      "hit": false,
      "t": 77548.50750000146,
      "d": 54.611625000005006,
      "v": 54
    },
    {
      "midi": 68,
      "hit": false,
      "t": 77621.32299999922,
      "d": 54.611625000005006,
      "v": 55
    },
    {
      "midi": 60,
      "hit": false,
      "t": 77621.32300000147,
      "d": 54.611625000005006,
      "v": 50
    },
    {
      "midi": 67,
      "hit": false,
      "t": 77694.13849999923,
      "d": 54.611625000005006,
      "v": 56
    },
    {
      "midi": 58,
      "hit": false,
      "t": 77694.13850000149,
      "d": 54.611625000005006,
      "v": 50
    },
    {
      "midi": 65,
      "hit": false,
      "t": 77766.95399999924,
      "d": 54.611625000005006,
      "v": 52
    },
    {
      "midi": 56,
      "hit": false,
      "t": 77766.9540000015,
      "d": 54.611625000005006,
      "v": 62
    },
    {
      "midi": 67,
      "hit": false,
      "t": 77839.76949999925,
      "d": 54.611625000005006,
      "v": 39
    },
    {
      "midi": 58,
      "hit": false,
      "t": 77839.76950000151,
      "d": 54.611625000005006,
      "v": 50
    },
    {
      "midi": 68,
      "hit": false,
      "t": 77912.58499999926,
      "d": 54.611625000005006,
      "v": 47
    },
    {
      "midi": 60,
      "hit": false,
      "t": 77912.58500000152,
      "d": 54.611625000005006,
      "v": 44
    },
    {
      "midi": 65,
      "hit": false,
      "t": 77985.40049999928,
      "d": 54.611625000005006,
      "v": 52
    },
    {
      "midi": 56,
      "hit": false,
      "t": 77985.40050000153,
      "d": 54.611625000005006,
      "v": 51
    },
    {
      "midi": 66,
      "hit": false,
      "t": 78058.21599999929,
      "d": 54.611625000005006,
      "v": 50
    },
    {
      "midi": 58,
      "hit": false,
      "t": 78058.21600000154,
      "d": 54.611625000005006,
      "v": 50
    },
    {
      "midi": 61,
      "hit": false,
      "t": 78131.0314999993,
      "d": 54.611625000005006,
      "v": 54
    },
    {
      "midi": 60,
      "hit": false,
      "t": 78131.03150000155,
      "d": 54.611625000005006,
      "v": 41
    },
    {
      "midi": 66,
      "hit": false,
      "t": 78203.84699999931,
      "d": 54.611625000005006,
      "v": 50
    },
    {
      "midi": 58,
      "hit": false,
      "t": 78203.84700000157,
      "d": 54.611625000005006,
      "v": 50
    },
    {
      "midi": 70,
      "hit": false,
      "t": 78276.66249999932,
      "d": 54.611625000005006,
      "v": 47
    },
    {
      "midi": 56,
      "hit": false,
      "t": 78276.66250000158,
      "d": 54.611625000005006,
      "v": 54
    },
    {
      "midi": 73,
      "hit": false,
      "t": 78349.47799999933,
      "d": 54.611625000005006,
      "v": 63
    },
    {
      "midi": 54,
      "hit": false,
      "t": 78349.47800000159,
      "d": 54.611625000005006,
      "v": 47
    },
    {
      "midi": 75,
      "hit": false,
      "t": 78422.29349999934,
      "d": 54.611625000005006,
      "v": 55
    },
    {
      "midi": 49,
      "hit": false,
      "t": 78422.2935000016,
      "d": 54.611625000005006,
      "v": 50
    },
    {
      "midi": 73,
      "hit": false,
      "t": 78495.10899999936,
      "d": 54.611625000005006,
      "v": 55
    },
    {
      "midi": 54,
      "hit": false,
      "t": 78495.10900000161,
      "d": 54.611625000005006,
      "v": 58
    },
    {
      "midi": 72,
      "hit": false,
      "t": 78567.92449999937,
      "d": 54.611625000005006,
      "v": 41
    },
    {
      "midi": 58,
      "hit": false,
      "t": 78567.92450000162,
      "d": 54.611625000005006,
      "v": 50
    },
    {
      "midi": 70,
      "hit": false,
      "t": 78640.73999999938,
      "d": 54.611625000005006,
      "v": 50
    },
    {
      "midi": 61,
      "hit": false,
      "t": 78640.74000000164,
      "d": 54.611625000005006,
      "v": 62
    },
    {
      "midi": 72,
      "hit": false,
      "t": 78713.55549999939,
      "d": 54.611625000005006,
      "v": 44
    },
    {
      "midi": 63,
      "hit": false,
      "t": 78713.55550000165,
      "d": 54.611625000005006,
      "v": 58
    },
    {
      "midi": 70,
      "hit": false,
      "t": 78786.3709999994,
      "d": 54.611625000005006,
      "v": 47
    },
    {
      "midi": 61,
      "hit": false,
      "t": 78786.37100000166,
      "d": 54.611625000005006,
      "v": 54
    },
    {
      "midi": 68,
      "hit": false,
      "t": 78859.18649999941,
      "d": 54.611625000005006,
      "v": 44
    },
    {
      "midi": 60,
      "hit": false,
      "t": 78859.18650000167,
      "d": 54.611625000005006,
      "v": 52
    },
    {
      "midi": 66,
      "hit": false,
      "t": 78932.00199999943,
      "d": 54.611625000005006,
      "v": 44
    },
    {
      "midi": 58,
      "hit": false,
      "t": 78932.00200000168,
      "d": 54.611625000005006,
      "v": 50
    },
    {
      "midi": 68,
      "hit": false,
      "t": 79004.81749999944,
      "d": 54.611625000005006,
      "v": 44
    },
    {
      "midi": 60,
      "hit": false,
      "t": 79004.81750000169,
      "d": 54.611625000005006,
      "v": 47
    },
    {
      "midi": 70,
      "hit": false,
      "t": 79077.63299999945,
      "d": 54.611625000005006,
      "v": 38
    },
    {
      "midi": 61,
      "hit": false,
      "t": 79077.6330000017,
      "d": 54.611625000005006,
      "v": 59
    },
    {
      "midi": 66,
      "hit": false,
      "t": 79150.44849999946,
      "d": 54.611625000005006,
      "v": 47
    },
    {
      "midi": 58,
      "hit": false,
      "t": 79150.44850000172,
      "d": 54.611625000005006,
      "v": 50
    },
    {
      "midi": 69,
      "hit": false,
      "t": 79223.26399999947,
      "d": 54.611625000005006,
      "v": 52
    },
    {
      "midi": 60,
      "hit": false,
      "t": 79223.26400000173,
      "d": 54.611625000005006,
      "v": 59
    },
    {
      "midi": 63,
      "hit": false,
      "t": 79296.07949999948,
      "d": 54.611625000005006,
      "v": 50
    },
    {
      "midi": 61,
      "hit": false,
      "t": 79296.07950000174,
      "d": 54.611625000005006,
      "v": 59
    },
    {
      "midi": 69,
      "hit": false,
      "t": 79368.8949999995,
      "d": 54.611625000005006,
      "v": 50
    },
    {
      "midi": 60,
      "hit": false,
      "t": 79368.89500000175,
      "d": 54.611625000005006,
      "v": 56
    },
    {
      "midi": 72,
      "hit": false,
      "t": 79441.7104999995,
      "d": 54.611625000005006,
      "v": 56
    },
    {
      "midi": 58,
      "hit": false,
      "t": 79441.71050000176,
      "d": 54.611625000005006,
      "v": 47
    },
    {
      "midi": 75,
      "hit": false,
      "t": 79514.52599999952,
      "d": 54.611625000005006,
      "v": 58
    },
    {
      "midi": 57,
      "hit": false,
      "t": 79514.52600000177,
      "d": 54.611625000005006,
      "v": 62
    },
    {
      "midi": 77,
      "hit": false,
      "t": 79587.34149999953,
      "d": 54.611625000005006,
      "v": 56
    },
    {
      "midi": 51,
      "hit": false,
      "t": 79587.34150000178,
      "d": 54.611625000005006,
      "v": 58
    },
    {
      "midi": 75,
      "hit": false,
      "t": 79660.15699999954,
      "d": 54.611625000005006,
      "v": 50
    },
    {
      "midi": 57,
      "hit": false,
      "t": 79660.1570000018,
      "d": 54.611625000005006,
      "v": 56
    },
    {
      "midi": 73,
      "hit": false,
      "t": 79732.97249999955,
      "d": 54.611625000005006,
      "v": 55
    },
    {
      "midi": 60,
      "hit": false,
      "t": 79732.97250000181,
      "d": 54.611625000005006,
      "v": 52
    },
    {
      "midi": 72,
      "hit": false,
      "t": 79805.78799999956,
      "d": 54.611625000005006,
      "v": 56
    },
    {
      "midi": 63,
      "hit": false,
      "t": 79805.78800000182,
      "d": 54.611625000005006,
      "v": 58
    },
    {
      "midi": 73,
      "hit": false,
      "t": 79878.60349999958,
      "d": 54.611625000005006,
      "v": 55
    },
    {
      "midi": 65,
      "hit": false,
      "t": 79878.60350000183,
      "d": 54.611625000005006,
      "v": 59
    },
    {
      "midi": 72,
      "hit": false,
      "t": 79951.41899999959,
      "d": 54.611625000005006,
      "v": 50
    },
    {
      "midi": 63,
      "hit": false,
      "t": 79951.41900000184,
      "d": 54.611625000005006,
      "v": 58
    },
    {
      "midi": 70,
      "hit": false,
      "t": 80024.2344999996,
      "d": 54.611625000005006,
      "v": 47
    },
    {
      "midi": 61,
      "hit": false,
      "t": 80024.23450000185,
      "d": 54.611625000005006,
      "v": 59
    },
    {
      "midi": 69,
      "hit": false,
      "t": 80097.04999999961,
      "d": 54.611625000005006,
      "v": 50
    },
    {
      "midi": 60,
      "hit": false,
      "t": 80097.05000000187,
      "d": 54.611625000005006,
      "v": 56
    },
    {
      "midi": 70,
      "hit": false,
      "t": 80169.86549999962,
      "d": 54.611625000005006,
      "v": 47
    },
    {
      "midi": 61,
      "hit": false,
      "t": 80169.86550000188,
      "d": 54.611625000005006,
      "v": 59
    },
    {
      "midi": 72,
      "hit": false,
      "t": 80242.68099999963,
      "d": 54.611625000005006,
      "v": 52
    },
    {
      "midi": 63,
      "hit": false,
      "t": 80242.68100000189,
      "d": 54.611625000005006,
      "v": 55
    },
    {
      "midi": 69,
      "hit": false,
      "t": 80315.49649999964,
      "d": 54.611625000005006,
      "v": 50
    },
    {
      "midi": 60,
      "hit": false,
      "t": 80315.4965000019,
      "d": 54.611625000005006,
      "v": 50
    },
    {
      "midi": 70,
      "hit": false,
      "t": 80388.31199999966,
      "d": 54.611625000005006,
      "v": 47
    },
    {
      "midi": 61,
      "hit": false,
      "t": 80388.31200000191,
      "d": 54.611625000005006,
      "v": 62
    },
    {
      "midi": 65,
      "hit": false,
      "t": 80461.12749999967,
      "d": 54.611625000005006,
      "v": 47
    },
    {
      "midi": 53,
      "hit": false,
      "t": 80461.12750000192,
      "d": 54.611625000005006,
      "v": 56
    },
    {
      "midi": 70,
      "hit": false,
      "t": 80533.94299999968,
      "d": 54.611625000005006,
      "v": 50
    },
    {
      "midi": 58,
      "hit": false,
      "t": 80533.94300000193,
      "d": 54.611625000005006,
      "v": 47
    },
    {
      "midi": 73,
      "hit": false,
      "t": 80606.75849999969,
      "d": 54.611625000005006,
      "v": 50
    },
    {
      "midi": 61,
      "hit": false,
      "t": 80606.75850000195,
      "d": 54.611625000005006,
      "v": 51
    },
    {
      "midi": 77,
      "hit": false,
      "t": 80679.5739999997,
      "d": 54.611625000005006,
      "v": 62
    },
    {
      "midi": 65,
      "hit": false,
      "t": 80679.57400000196,
      "d": 54.611625000005006,
      "v": 50
    },
    {
      "midi": 78,
      "hit": false,
      "t": 80752.38949999971,
      "d": 54.611625000005006,
      "v": 63
    },
    {
      "midi": 66,
      "hit": false,
      "t": 80752.38950000197,
      "d": 54.611625000005006,
      "v": 55
    },
    {
      "midi": 77,
      "hit": false,
      "t": 80825.20499999973,
      "d": 54.611625000005006,
      "v": 59
    },
    {
      "midi": 65,
      "hit": false,
      "t": 80825.20500000198,
      "d": 54.611625000005006,
      "v": 47
    },
    {
      "midi": 75,
      "hit": false,
      "t": 80898.02049999974,
      "d": 54.611625000005006,
      "v": 58
    },
    {
      "midi": 63,
      "hit": false,
      "t": 80898.02050000199,
      "d": 54.611625000005006,
      "v": 50
    },
    {
      "midi": 73,
      "hit": false,
      "t": 80970.83599999975,
      "d": 54.611625000005006,
      "v": 55
    },
    {
      "midi": 61,
      "hit": false,
      "t": 80970.836000002,
      "d": 54.611625000005006,
      "v": 59
    },
    {
      "midi": 72,
      "hit": false,
      "t": 81043.65149999976,
      "d": 54.611625000005006,
      "v": 52
    },
    {
      "midi": 60,
      "hit": false,
      "t": 81043.65150000202,
      "d": 54.611625000005006,
      "v": 39
    },
    {
      "midi": 70,
      "hit": false,
      "t": 81116.46699999977,
      "d": 54.611625000005006,
      "v": 50
    },
    {
      "midi": 58,
      "hit": false,
      "t": 81116.46700000203,
      "d": 54.611625000005006,
      "v": 55
    },
    {
      "midi": 68,
      "hit": false,
      "t": 81189.28249999978,
      "d": 54.611625000005006,
      "v": 55
    },
    {
      "midi": 56,
      "hit": false,
      "t": 81189.28250000204,
      "d": 54.611625000005006,
      "v": 62
    },
    {
      "midi": 66,
      "hit": false,
      "t": 81262.0979999998,
      "d": 54.611625000005006,
      "v": 58
    },
    {
      "midi": 54,
      "hit": false,
      "t": 81262.09800000205,
      "d": 54.611625000005006,
      "v": 63
    },
    {
      "midi": 65,
      "hit": false,
      "t": 81334.9134999998,
      "d": 54.611625000005006,
      "v": 59
    },
    {
      "midi": 53,
      "hit": false,
      "t": 81334.91350000206,
      "d": 54.611625000005006,
      "v": 60
    },
    {
      "midi": 63,
      "hit": false,
      "t": 81407.72899999982,
      "d": 54.611625000005006,
      "v": 34
    },
    {
      "midi": 51,
      "hit": false,
      "t": 81407.72900000207,
      "d": 54.611625000005006,
      "v": 58
    },
    {
      "midi": 61,
      "hit": false,
      "t": 81480.54449999983,
      "d": 54.611625000005006,
      "v": 59
    },
    {
      "midi": 49,
      "hit": false,
      "t": 81480.54450000208,
      "d": 54.611625000005006,
      "v": 58
    },
    {
      "midi": 60,
      "hit": false,
      "t": 81553.35999999984,
      "d": 54.611625000005006,
      "v": 52
    },
    {
      "midi": 48,
      "hit": false,
      "t": 81553.3600000021,
      "d": 54.611625000005006,
      "v": 52
    },
    {
      "midi": 58,
      "hit": false,
      "t": 81626.17549999985,
      "d": 54.611625000005006,
      "v": 55
    },
    {
      "midi": 46,
      "hit": false,
      "t": 81626.17550000211,
      "d": 54.611625000005006,
      "v": 54
    },
    {
      "midi": 56,
      "hit": false,
      "t": 81698.99099999986,
      "d": 54.611625000005006,
      "v": 59
    },
    {
      "midi": 44,
      "hit": false,
      "t": 81698.99100000212,
      "d": 54.611625000005006,
      "v": 50
    },
    {
      "midi": 54,
      "hit": false,
      "t": 81771.80649999988,
      "d": 54.611625000005006,
      "v": 55
    },
    {
      "midi": 42,
      "hit": false,
      "t": 81771.80650000213,
      "d": 54.611625000005006,
      "v": 55
    },
    {
      "midi": 53,
      "hit": false,
      "t": 81844.62199999989,
      "d": 54.611625000005006,
      "v": 60
    },
    {
      "midi": 41,
      "hit": false,
      "t": 81844.62200000214,
      "d": 54.611625000005006,
      "v": 56
    },
    {
      "midi": 51,
      "hit": false,
      "t": 81917.4374999999,
      "d": 54.611625000005006,
      "v": 63
    },
    {
      "midi": 39,
      "hit": false,
      "t": 81917.43750000215,
      "d": 54.611625000005006,
      "v": 63
    },
    {
      "midi": 49,
      "hit": false,
      "t": 81990.25299999991,
      "d": 54.611625000005006,
      "v": 63
    },
    {
      "midi": 37,
      "hit": false,
      "t": 81990.25300000217,
      "d": 54.611625000005006,
      "v": 55
    },
    {
      "midi": 48,
      "hit": false,
      "t": 82063.06849999992,
      "d": 54.611625000005006,
      "v": 62
    },
    {
      "midi": 36,
      "hit": false,
      "t": 82063.06850000218,
      "d": 54.611625000005006,
      "v": 59
    },
    {
      "midi": 46,
      "hit": false,
      "t": 82135.88399999993,
      "d": 54.611625000005006,
      "v": 67
    },
    {
      "midi": 34,
      "hit": false,
      "t": 82135.88400000219,
      "d": 54.611625000005006,
      "v": 51
    },
    {
      "midi": 48,
      "hit": false,
      "t": 82208.69949999994,
      "d": 54.611625000005006,
      "v": 62
    },
    {
      "midi": 36,
      "hit": false,
      "t": 82208.6995000022,
      "d": 54.611625000005006,
      "v": 44
    },
    {
      "midi": 49,
      "hit": false,
      "t": 82281.51499999996,
      "d": 54.611625000005006,
      "v": 63
    },
    {
      "midi": 37,
      "hit": false,
      "t": 82281.51500000221,
      "d": 54.611625000005006,
      "v": 50
    },
    {
      "midi": 48,
      "hit": false,
      "t": 82354.33049999997,
      "d": 54.611625000005006,
      "v": 62
    },
    {
      "midi": 36,
      "hit": false,
      "t": 82354.33050000222,
      "d": 54.611625000005006,
      "v": 52
    },
    {
      "midi": 46,
      "hit": false,
      "t": 82427.14599999998,
      "d": 109.22324999999546,
      "v": 78
    },
    {
      "midi": 34,
      "hit": false,
      "t": 82427.14600000223,
      "d": 109.22324999999546,
      "v": 59
    },
    {
      "midi": 47,
      "hit": false,
      "t": 82572.77699999997,
      "d": 109.22324999999546,
      "v": 52
    },
    {
      "midi": 50,
      "hit": false,
      "t": 82572.77699999997,
      "d": 109.22324999999546,
      "v": 62
    },
    {
      "midi": 53,
      "hit": false,
      "t": 82572.77699999997,
      "d": 109.22324999999546,
      "v": 63
    },
    {
      "midi": 56,
      "hit": false,
      "t": 82572.77699999997,
      "d": 109.22324999999546,
      "v": 67
    },
    {
      "midi": 35,
      "hit": false,
      "t": 82572.77700000223,
      "d": 109.22324999999546,
      "v": 62
    },
    {
      "midi": 48,
      "hit": false,
      "t": 82718.40799999997,
      "d": 54.611625000005006,
      "v": 15
    },
    {
      "midi": 52,
      "hit": false,
      "t": 82718.40799999997,
      "d": 54.611625000005006,
      "v": 36
    },
    {
      "midi": 55,
      "hit": false,
      "t": 82718.40799999997,
      "d": 54.611625000005006,
      "v": 44
    },
    {
      "midi": 36,
      "hit": false,
      "t": 82718.40800000222,
      "d": 72.81549999999697,
      "v": 52
    },
    {
      "midi": 48,
      "hit": false,
      "t": 82791.22349999998,
      "d": 54.611625000005006,
      "v": 47
    },
    {
      "midi": 60,
      "hit": false,
      "t": 82791.22349999998,
      "d": 54.611625000005006,
      "v": 50
    },
    {
      "midi": 40,
      "hit": false,
      "t": 82864.03900000222,
      "d": 72.81549999999697,
      "v": 74
    },
    {
      "midi": 48,
      "hit": false,
      "t": 82936.85449999999,
      "d": 54.611625000005006,
      "v": 41
    },
    {
      "midi": 60,
      "hit": false,
      "t": 82936.85449999999,
      "d": 54.611625000005006,
      "v": 56
    },
    {
      "midi": 36,
      "hit": false,
      "t": 83009.67000000221,
      "d": 72.81549999999697,
      "v": 44
    },
    {
      "midi": 48,
      "hit": false,
      "t": 83082.4855,
      "d": 54.611625000005006,
      "v": 47
    },
    {
      "midi": 60,
      "hit": false,
      "t": 83082.4855,
      "d": 54.611625000005006,
      "v": 56
    },
    {
      "midi": 41,
      "hit": false,
      "t": 83155.3010000022,
      "d": 72.81549999999697,
      "v": 72
    },
    {
      "midi": 48,
      "hit": false,
      "t": 83228.1165,
      "d": 54.611625000005006,
      "v": 47
    },
    {
      "midi": 60,
      "hit": false,
      "t": 83228.1165,
      "d": 54.611625000005006,
      "v": 56
    },
    {
      "midi": 36,
      "hit": false,
      "t": 83300.9320000022,
      "d": 72.81549999999697,
      "v": 50
    },
    {
      "midi": 48,
      "hit": false,
      "t": 83373.74750000001,
      "d": 54.611625000005006,
      "v": 29
    },
    {
      "midi": 60,
      "hit": false,
      "t": 83373.74750000001,
      "d": 54.611625000005006,
      "v": 50
    },
    {
      "midi": 43,
      "hit": false,
      "t": 83446.56300000219,
      "d": 72.81549999999697,
      "v": 80
    },
    {
      "midi": 48,
      "hit": false,
      "t": 83519.37850000002,
      "d": 54.611625000005006,
      "v": 36
    },
    {
      "midi": 60,
      "hit": false,
      "t": 83519.37850000002,
      "d": 54.611625000005006,
      "v": 47
    },
    {
      "midi": 36,
      "hit": false,
      "t": 83592.19400000219,
      "d": 72.81549999999697,
      "v": 44
    },
    {
      "midi": 48,
      "hit": false,
      "t": 83665.00950000003,
      "d": 54.611625000005006,
      "v": 39
    },
    {
      "midi": 60,
      "hit": false,
      "t": 83665.00950000003,
      "d": 54.611625000005006,
      "v": 47
    },
    {
      "midi": 44,
      "hit": false,
      "t": 83737.82500000218,
      "d": 72.81549999999697,
      "v": 60
    },
    {
      "midi": 48,
      "hit": false,
      "t": 83810.64050000004,
      "d": 54.611625000005006,
      "v": 47
    },
    {
      "midi": 60,
      "hit": false,
      "t": 83810.64050000004,
      "d": 54.611625000005006,
      "v": 52
    },
    {
      "midi": 36,
      "hit": false,
      "t": 83883.45600000217,
      "d": 72.81549999999697,
      "v": 56
    },
    {
      "midi": 60,
      "hit": false,
      "t": 83956.27150000005,
      "d": 54.611625000005006,
      "v": 50
    },
    {
      "midi": 72,
      "hit": false,
      "t": 83956.27150000005,
      "d": 54.611625000005006,
      "v": 62
    },
    {
      "midi": 46,
      "hit": false,
      "t": 84029.08700000217,
      "d": 72.81549999999697,
      "v": 80
    },
    {
      "midi": 60,
      "hit": false,
      "t": 84101.90250000005,
      "d": 54.611625000005006,
      "v": 47
    },
    {
      "midi": 72,
      "hit": false,
      "t": 84101.90250000005,
      "d": 54.611625000005006,
      "v": 59
    },
    {
      "midi": 36,
      "hit": false,
      "t": 84174.71800000216,
      "d": 72.81549999999697,
      "v": 62
    },
    {
      "midi": 60,
      "hit": false,
      "t": 84247.53350000006,
      "d": 54.611625000005006,
      "v": 41
    },
    {
      "midi": 72,
      "hit": false,
      "t": 84247.53350000006,
      "d": 54.611625000005006,
      "v": 59
    },
    {
      "midi": 44,
      "hit": false,
      "t": 84320.34900000216,
      "d": 72.81549999999697,
      "v": 66
    },
    {
      "midi": 60,
      "hit": false,
      "t": 84393.16450000007,
      "d": 54.611625000005006,
      "v": 41
    },
    {
      "midi": 72,
      "hit": false,
      "t": 84393.16450000007,
      "d": 54.611625000005006,
      "v": 59
    },
    {
      "midi": 36,
      "hit": false,
      "t": 84465.98000000215,
      "d": 72.81549999999697,
      "v": 56
    },
    {
      "midi": 60,
      "hit": false,
      "t": 84538.79550000008,
      "d": 54.611625000005006,
      "v": 41
    },
    {
      "midi": 72,
      "hit": false,
      "t": 84538.79550000008,
      "d": 54.611625000005006,
      "v": 52
    },
    {
      "midi": 43,
      "hit": false,
      "t": 84611.61100000214,
      "d": 72.81549999999697,
      "v": 62
    },
    {
      "midi": 60,
      "hit": false,
      "t": 84684.42650000009,
      "d": 54.611625000005006,
      "v": 44
    },
    {
      "midi": 72,
      "hit": false,
      "t": 84684.42650000009,
      "d": 54.611625000005006,
      "v": 56
    },
    {
      "midi": 36,
      "hit": false,
      "t": 84757.24200000214,
      "d": 72.81549999999697,
      "v": 39
    },
    {
      "midi": 60,
      "hit": false,
      "t": 84830.0575000001,
      "d": 54.611625000005006,
      "v": 34
    },
    {
      "midi": 72,
      "hit": false,
      "t": 84830.0575000001,
      "d": 54.611625000005006,
      "v": 50
    },
    {
      "midi": 41,
      "hit": false,
      "t": 84902.87300000213,
      "d": 72.81549999999697,
      "v": 67
    },
    {
      "midi": 60,
      "hit": false,
      "t": 84975.6885000001,
      "d": 54.611625000005006,
      "v": 41
    },
    {
      "midi": 72,
      "hit": false,
      "t": 84975.6885000001,
      "d": 54.611625000005006,
      "v": 52
    },
    {
      "midi": 36,
      "hit": false,
      "t": 85048.50400000213,
      "d": 72.81549999999697,
      "v": 44
    },
    {
      "midi": 72,
      "hit": false,
      "t": 85121.31950000011,
      "d": 54.611625000005006,
      "v": 42
    },
    {
      "midi": 84,
      "hit": false,
      "t": 85121.31950000011,
      "d": 54.611625000005006,
      "v": 50
    },
    {
      "midi": 40,
      "hit": false,
      "t": 85194.13500000212,
      "d": 72.81549999999697,
      "v": 57
    },
    {
      "midi": 72,
      "hit": false,
      "t": 85266.95050000012,
      "d": 54.611625000005006,
      "v": 43
    },
    {
      "midi": 84,
      "hit": false,
      "t": 85266.95050000012,
      "d": 54.611625000005006,
      "v": 58
    },
    {
      "midi": 36,
      "hit": false,
      "t": 85339.76600000211,
      "d": 72.81549999999697,
      "v": 48
    },
    {
      "midi": 72,
      "hit": false,
      "t": 85412.58150000013,
      "d": 54.611625000005006,
      "v": 43
    },
    {
      "midi": 84,
      "hit": false,
      "t": 85412.58150000013,
      "d": 54.611625000005006,
      "v": 53
    },
    {
      "midi": 41,
      "hit": false,
      "t": 85485.3970000021,
      "d": 72.81549999999697,
      "v": 58
    },
    {
      "midi": 72,
      "hit": false,
      "t": 85558.21250000014,
      "d": 54.611625000005006,
      "v": 50
    },
    {
      "midi": 84,
      "hit": false,
      "t": 85558.21250000014,
      "d": 54.611625000005006,
      "v": 60
    },
    {
      "midi": 36,
      "hit": false,
      "t": 85631.0280000021,
      "d": 72.81549999999697,
      "v": 51
    },
    {
      "midi": 72,
      "hit": false,
      "t": 85703.84350000015,
      "d": 54.611625000005006,
      "v": 47
    },
    {
      "midi": 84,
      "hit": false,
      "t": 85703.84350000015,
      "d": 54.611625000005006,
      "v": 58
    },
    {
      "midi": 43,
      "hit": false,
      "t": 85776.6590000021,
      "d": 72.81549999999697,
      "v": 67
    },
    {
      "midi": 72,
      "hit": false,
      "t": 85849.47450000016,
      "d": 54.611625000005006,
      "v": 42
    },
    {
      "midi": 84,
      "hit": false,
      "t": 85849.47450000016,
      "d": 54.611625000005006,
      "v": 60
    },
    {
      "midi": 36,
      "hit": false,
      "t": 85922.29000000209,
      "d": 72.81549999999697,
      "v": 50
    },
    {
      "midi": 72,
      "hit": false,
      "t": 85995.10550000017,
      "d": 54.611625000005006,
      "v": 44
    },
    {
      "midi": 84,
      "hit": false,
      "t": 85995.10550000017,
      "d": 54.611625000005006,
      "v": 56
    },
    {
      "midi": 44,
      "hit": false,
      "t": 86067.92100000208,
      "d": 72.81549999999697,
      "v": 66
    },
    {
      "midi": 72,
      "hit": false,
      "t": 86140.73650000017,
      "d": 54.611625000005006,
      "v": 51
    },
    {
      "midi": 84,
      "hit": false,
      "t": 86140.73650000017,
      "d": 54.611625000005006,
      "v": 69
    },
    {
      "midi": 36,
      "hit": false,
      "t": 86213.55200000208,
      "d": 72.81549999999697,
      "v": 52
    },
    {
      "midi": 84,
      "hit": false,
      "t": 86286.36750000018,
      "d": 54.611625000005006,
      "v": 65
    },
    {
      "midi": 96,
      "hit": false,
      "t": 86286.36750000018,
      "d": 54.611625000005006,
      "v": 74
    },
    {
      "midi": 45,
      "hit": false,
      "t": 86359.18300000207,
      "d": 72.81549999999697,
      "v": 72
    },
    {
      "midi": 84,
      "hit": false,
      "t": 86431.99850000019,
      "d": 54.611625000005006,
      "v": 64
    },
    {
      "midi": 96,
      "hit": false,
      "t": 86431.99850000019,
      "d": 54.611625000005006,
      "v": 81
    },
    {
      "midi": 36,
      "hit": false,
      "t": 86504.81400000206,
      "d": 72.81549999999697,
      "v": 62
    },
    {
      "midi": 84,
      "hit": false,
      "t": 86577.6295000002,
      "d": 54.611625000005006,
      "v": 62
    },
    {
      "midi": 96,
      "hit": false,
      "t": 86577.6295000002,
      "d": 54.611625000005006,
      "v": 75
    },
    {
      "midi": 46,
      "hit": false,
      "t": 86650.44500000206,
      "d": 72.81549999999697,
      "v": 80
    },
    {
      "midi": 84,
      "hit": false,
      "t": 86723.26050000021,
      "d": 54.611625000005006,
      "v": 54
    },
    {
      "midi": 96,
      "hit": false,
      "t": 86723.26050000021,
      "d": 54.611625000005006,
      "v": 71
    },
    {
      "midi": 36,
      "hit": false,
      "t": 86796.07600000205,
      "d": 72.81549999999697,
      "v": 60
    },
    {
      "midi": 84,
      "hit": false,
      "t": 86868.89150000022,
      "d": 54.611625000005006,
      "v": 55
    },
    {
      "midi": 96,
      "hit": false,
      "t": 86868.89150000022,
      "d": 54.611625000005006,
      "v": 66
    },
    {
      "midi": 47,
      "hit": false,
      "t": 86941.70700000205,
      "d": 72.81549999999697,
      "v": 84
    },
    {
      "midi": 84,
      "hit": false,
      "t": 87014.52250000022,
      "d": 54.611625000005006,
      "v": 53
    },
    {
      "midi": 96,
      "hit": false,
      "t": 87014.52250000022,
      "d": 54.611625000005006,
      "v": 81
    },
    {
      "midi": 36,
      "hit": false,
      "t": 87087.33800000204,
      "d": 72.81549999999697,
      "v": 76
    },
    {
      "midi": 84,
      "hit": false,
      "t": 87160.15350000023,
      "d": 54.611625000005006,
      "v": 48
    },
    {
      "midi": 96,
      "hit": false,
      "t": 87160.15350000023,
      "d": 54.611625000005006,
      "v": 70
    },
    {
      "midi": 48,
      "hit": false,
      "t": 87232.96900000203,
      "d": 72.81549999999697,
      "v": 100
    },
    {
      "midi": 84,
      "hit": false,
      "t": 87305.78450000024,
      "d": 54.611625000005006,
      "v": 79
    },
    {
      "midi": 96,
      "hit": false,
      "t": 87305.78450000024,
      "d": 54.611625000005006,
      "v": 89
    },
    {
      "midi": 34,
      "hit": false,
      "t": 87378.60000000203,
      "d": 145.63099999999395,
      "v": 80
    },
    {
      "midi": 37,
      "hit": false,
      "t": 87378.60000000203,
      "d": 145.63099999999395,
      "v": 85
    },
    {
      "midi": 42,
      "hit": false,
      "t": 87378.60000000203,
      "d": 145.63099999999395,
      "v": 85
    },
    {
      "midi": 46,
      "hit": false,
      "t": 87378.60000000203,
      "d": 145.63099999999395,
      "v": 85
    },
    {
      "midi": 49,
      "hit": false,
      "t": 87451.41550000025,
      "d": 72.81549999999697,
      "v": 50
    },
    {
      "midi": 54,
      "hit": false,
      "t": 87524.23100000025,
      "d": 72.81549999999697,
      "v": 55
    },
    {
      "midi": 58,
      "hit": false,
      "t": 87597.04650000024,
      "d": 72.81549999999697,
      "v": 55
    },
    {
      "midi": 61,
      "hit": false,
      "t": 87669.86200000024,
      "d": 145.63099999999395,
      "v": 62
    },
    {
      "midi": 46,
      "hit": false,
      "t": 87742.67750000203,
      "d": 72.81549999999697,
      "v": 59
    },
    {
      "midi": 49,
      "hit": false,
      "t": 87815.49300000202,
      "d": 72.81549999999697,
      "v": 58
    },
    {
      "midi": 54,
      "hit": false,
      "t": 87888.30850000202,
      "d": 72.81549999999697,
      "v": 55
    },
    {
      "midi": 58,
      "hit": false,
      "t": 87961.12400000202,
      "d": 145.63099999999395,
      "v": 58
    },
    {
      "midi": 61,
      "hit": false,
      "t": 88033.93950000024,
      "d": 72.81549999999697,
      "v": 48
    },
    {
      "midi": 66,
      "hit": false,
      "t": 88106.75500000024,
      "d": 72.81549999999697,
      "v": 47
    },
    {
      "midi": 70,
      "hit": false,
      "t": 88179.57050000023,
      "d": 72.81549999999697,
      "v": 50
    },
    {
      "midi": 73,
      "hit": false,
      "t": 88252.38600000023,
      "d": 145.63099999999395,
      "v": 55
    },
    {
      "midi": 58,
      "hit": false,
      "t": 88325.20150000202,
      "d": 72.81549999999697,
      "v": 68
    },
    {
      "midi": 61,
      "hit": false,
      "t": 88398.01700000202,
      "d": 72.81549999999697,
      "v": 59
    },
    {
      "midi": 66,
      "hit": false,
      "t": 88470.83250000201,
      "d": 72.81549999999697,
      "v": 58
    },
    {
      "midi": 70,
      "hit": false,
      "t": 88543.64800000201,
      "d": 145.63099999999395,
      "v": 63
    },
    {
      "midi": 73,
      "hit": false,
      "t": 88616.46350000023,
      "d": 72.81549999999697,
      "v": 44
    },
    {
      "midi": 78,
      "hit": false,
      "t": 88689.27900000023,
      "d": 72.81549999999697,
      "v": 55
    },
    {
      "midi": 82,
      "hit": false,
      "t": 88762.09450000022,
      "d": 72.81549999999697,
      "v": 55
    },
    {
      "midi": 85,
      "hit": false,
      "t": 88834.91000000022,
      "d": 145.63099999999395,
      "v": 63
    },
    {
      "midi": 36,
      "hit": false,
      "t": 89708.696000002,
      "d": 145.63099999999395,
      "v": 85
    },
    {
      "midi": 43,
      "hit": false,
      "t": 89708.696000002,
      "d": 145.63099999999395,
      "v": 85
    },
    {
      "midi": 46,
      "hit": false,
      "t": 89708.696000002,
      "d": 145.63099999999395,
      "v": 85
    },
    {
      "midi": 48,
      "hit": false,
      "t": 89708.696000002,
      "d": 145.63099999999395,
      "v": 85
    },
    {
      "midi": 52,
      "hit": false,
      "t": 89781.51150000021,
      "d": 72.81549999999697,
      "v": 41
    },
    {
      "midi": 55,
      "hit": false,
      "t": 89854.32700000021,
      "d": 72.81549999999697,
      "v": 36
    },
    {
      "midi": 58,
      "hit": false,
      "t": 89927.1425000002,
      "d": 72.81549999999697,
      "v": 40
    },
    {
      "midi": 64,
      "hit": false,
      "t": 89999.9580000002,
      "d": 145.63099999999395,
      "v": 44
    },
    {
      "midi": 48,
      "hit": false,
      "t": 90072.773500002,
      "d": 72.81549999999697,
      "v": 59
    },
    {
      "midi": 55,
      "hit": false,
      "t": 90145.589000002,
      "d": 72.81549999999697,
      "v": 59
    },
    {
      "midi": 58,
      "hit": false,
      "t": 90218.404500002,
      "d": 72.81549999999697,
      "v": 58
    },
    {
      "midi": 60,
      "hit": false,
      "t": 90291.220000002,
      "d": 145.63099999999395,
      "v": 67
    },
    {
      "midi": 64,
      "hit": false,
      "t": 90364.0355000002,
      "d": 72.81549999999697,
      "v": 49
    },
    {
      "midi": 67,
      "hit": false,
      "t": 90436.8510000002,
      "d": 72.81549999999697,
      "v": 62
    },
    {
      "midi": 70,
      "hit": false,
      "t": 90509.6665000002,
      "d": 72.81549999999697,
      "v": 63
    },
    {
      "midi": 76,
      "hit": false,
      "t": 90582.4820000002,
      "d": 145.63099999999395,
      "v": 59
    },
    {
      "midi": 60,
      "hit": false,
      "t": 90655.297500002,
      "d": 72.81549999999697,
      "v": 59
    },
    {
      "midi": 67,
      "hit": false,
      "t": 90728.11300000199,
      "d": 72.81549999999697,
      "v": 62
    },
    {
      "midi": 70,
      "hit": false,
      "t": 90800.92850000199,
      "d": 72.81549999999697,
      "v": 55
    },
    {
      "midi": 72,
      "hit": false,
      "t": 90873.74400000199,
      "d": 145.63099999999395,
      "v": 62
    },
    {
      "midi": 76,
      "hit": false,
      "t": 90946.55950000019,
      "d": 72.81549999999697,
      "v": 47
    },
    {
      "midi": 79,
      "hit": false,
      "t": 91019.37500000019,
      "d": 72.81549999999697,
      "v": 67
    },
    {
      "midi": 82,
      "hit": false,
      "t": 91092.19050000019,
      "d": 72.81549999999697,
      "v": 74
    },
    {
      "midi": 88,
      "hit": false,
      "t": 91174.71473333352,
      "d": 145.63099999999395,
      "v": 56
    },
    {
      "midi": 37,
      "hit": false,
      "t": 92038.79200000018,
      "d": 97.0873333333293,
      "v": 58
    },
    {
      "midi": 49,
      "hit": false,
      "t": 92135.8793333335,
      "d": 97.0873333333293,
      "v": 50
    },
    {
      "midi": 52,
      "hit": false,
      "t": 92232.96666666683,
      "d": 97.0873333333293,
      "v": 50
    },
    {
      "midi": 55,
      "hit": false,
      "t": 92330.05400000016,
      "d": 72.81549999999697,
      "v": 50
    },
    {
      "midi": 58,
      "hit": false,
      "t": 92402.86950000016,
      "d": 72.81549999999697,
      "v": 58
    },
    {
      "midi": 61,
      "hit": false,
      "t": 92475.68500000016,
      "d": 72.81549999999697,
      "v": 59
    },
    {
      "midi": 64,
      "hit": false,
      "t": 92548.50050000015,
      "d": 72.81549999999697,
      "v": 58
    },
    {
      "midi": 67,
      "hit": false,
      "t": 92621.31600000015,
      "d": 145.63099999999395,
      "v": 56
    },
    {
      "midi": 40,
      "hit": false,
      "t": 93203.84000000014,
      "d": 97.0873333333293,
      "v": 56
    },
    {
      "midi": 52,
      "hit": false,
      "t": 93300.92733333347,
      "d": 97.0873333333293,
      "v": 59
    },
    {
      "midi": 55,
      "hit": false,
      "t": 93398.0146666668,
      "d": 97.0873333333293,
      "v": 56
    },
    {
      "midi": 58,
      "hit": false,
      "t": 93495.10200000013,
      "d": 72.81549999999697,
      "v": 55
    },
    {
      "midi": 61,
      "hit": false,
      "t": 93567.91750000013,
      "d": 72.81549999999697,
      "v": 59
    },
    {
      "midi": 64,
      "hit": false,
      "t": 93640.73300000012,
      "d": 72.81549999999697,
      "v": 49
    },
    {
      "midi": 67,
      "hit": false,
      "t": 93713.54850000012,
      "d": 72.81549999999697,
      "v": 59
    },
    {
      "midi": 70,
      "hit": false,
      "t": 93786.36400000012,
      "d": 145.63099999999395,
      "v": 63
    },
    {
      "midi": 43,
      "hit": false,
      "t": 94368.88800000011,
      "d": 97.0873333333293,
      "v": 59
    },
    {
      "midi": 55,
      "hit": false,
      "t": 94465.97533333344,
      "d": 97.0873333333293,
      "v": 52
    },
    {
      "midi": 58,
      "hit": false,
      "t": 94563.06266666677,
      "d": 97.0873333333293,
      "v": 63
    },
    {
      "midi": 61,
      "hit": false,
      "t": 94660.1500000001,
      "d": 72.81549999999697,
      "v": 51
    },
    {
      "midi": 64,
      "hit": false,
      "t": 94732.9655000001,
      "d": 72.81549999999697,
      "v": 55
    },
    {
      "midi": 67,
      "hit": false,
      "t": 94805.78100000009,
      "d": 72.81549999999697,
      "v": 56
    },
    {
      "midi": 70,
      "hit": false,
      "t": 94878.59650000009,
      "d": 72.81549999999697,
      "v": 58
    },
    {
      "midi": 73,
      "hit": false,
      "t": 94951.41200000008,
      "d": 145.63099999999395,
      "v": 55
    },
    {
      "midi": 46,
      "hit": false,
      "t": 95533.93600000007,
      "d": 97.0873333333293,
      "v": 59
    },
    {
      "midi": 58,
      "hit": false,
      "t": 95631.0233333334,
      "d": 97.0873333333293,
      "v": 58
    },
    {
      "midi": 61,
      "hit": false,
      "t": 95728.11066666673,
      "d": 97.0873333333293,
      "v": 51
    },
    {
      "midi": 64,
      "hit": false,
      "t": 95825.19800000006,
      "d": 72.81549999999697,
      "v": 52
    },
    {
      "midi": 67,
      "hit": false,
      "t": 95898.01350000006,
      "d": 72.81549999999697,
      "v": 62
    },
    {
      "midi": 70,
      "hit": false,
      "t": 95970.82900000006,
      "d": 72.81549999999697,
      "v": 58
    },
    {
      "midi": 73,
      "hit": false,
      "t": 96043.64450000005,
      "d": 72.81549999999697,
      "v": 68
    },
    {
      "midi": 76,
      "hit": false,
      "t": 96116.46000000005,
      "d": 145.63099999999395,
      "v": 59
    },
    {
      "midi": 49,
      "hit": false,
      "t": 96698.98400000004,
      "d": 145.63099999999395,
      "v": 37
    },
    {
      "midi": 52,
      "hit": false,
      "t": 96844.61500000003,
      "d": 145.63099999999395,
      "v": 32
    },
    {
      "midi": 55,
      "hit": false,
      "t": 96990.24600000003,
      "d": 145.63099999999395,
      "v": 41
    },
    {
      "midi": 58,
      "hit": false,
      "t": 97135.87700000002,
      "d": 145.63099999999395,
      "v": 40
    },
    {
      "midi": 61,
      "hit": false,
      "t": 97281.50800000002,
      "d": 145.63099999999395,
      "v": 40
    },
    {
      "midi": 64,
      "hit": false,
      "t": 97427.13900000001,
      "d": 145.63099999999395,
      "v": 33
    },
    {
      "midi": 67,
      "hit": false,
      "t": 97572.77,
      "d": 145.63099999999395,
      "v": 35
    },
    {
      "midi": 70,
      "hit": false,
      "t": 97718.401,
      "d": 145.63099999999395,
      "v": 44
    },
    {
      "midi": 73,
      "hit": false,
      "t": 97864.03199999999,
      "d": 145.63099999999395,
      "v": 40
    },
    {
      "midi": 76,
      "hit": false,
      "t": 98009.66299999999,
      "d": 145.63099999999395,
      "v": 44
    },
    {
      "midi": 79,
      "hit": false,
      "t": 98155.29399999998,
      "d": 145.63099999999395,
      "v": 37
    },
    {
      "midi": 82,
      "hit": false,
      "t": 98300.92499999997,
      "d": 145.63099999999395,
      "v": 35
    },
    {
      "midi": 85,
      "hit": false,
      "t": 98446.55599999997,
      "d": 145.63099999999395,
      "v": 40
    },
    {
      "midi": 88,
      "hit": false,
      "t": 98592.18699999996,
      "d": 145.63099999999395,
      "v": 41
    },
    {
      "midi": 91,
      "hit": false,
      "t": 98737.81799999996,
      "d": 145.63099999999395,
      "v": 40
    },
    {
      "midi": 94,
      "hit": false,
      "t": 98883.44899999995,
      "d": 145.63099999999395,
      "v": 40
    },
    {
      "midi": 91,
      "hit": false,
      "t": 99029.07999999994,
      "d": 145.63099999999395,
      "v": 41
    },
    {
      "midi": 88,
      "hit": false,
      "t": 99174.71099999994,
      "d": 145.63099999999395,
      "v": 41
    },
    {
      "midi": 85,
      "hit": false,
      "t": 99320.34199999993,
      "d": 145.63099999999395,
      "v": 44
    },
    {
      "midi": 82,
      "hit": false,
      "t": 99465.97299999993,
      "d": 145.63099999999395,
      "v": 40
    },
    {
      "midi": 79,
      "hit": false,
      "t": 99611.60399999992,
      "d": 145.63099999999395,
      "v": 37
    },
    {
      "midi": 76,
      "hit": false,
      "t": 99757.23499999991,
      "d": 145.63099999999395,
      "v": 41
    },
    {
      "midi": 73,
      "hit": false,
      "t": 99902.8659999999,
      "d": 145.63099999999395,
      "v": 44
    },
    {
      "midi": 70,
      "hit": false,
      "t": 100048.4969999999,
      "d": 145.63099999999395,
      "v": 32
    },
    {
      "midi": 67,
      "hit": false,
      "t": 100194.1279999999,
      "d": 145.63099999999395,
      "v": 37
    },
    {
      "midi": 64,
      "hit": false,
      "t": 100339.75899999989,
      "d": 145.63099999999395,
      "v": 35
    },
    {
      "midi": 61,
      "hit": false,
      "t": 100485.38999999988,
      "d": 145.63099999999395,
      "v": 43
    },
    {
      "midi": 58,
      "hit": false,
      "t": 100631.02099999988,
      "d": 145.63099999999395,
      "v": 44
    },
    {
      "midi": 55,
      "hit": false,
      "t": 100776.65199999987,
      "d": 145.63099999999395,
      "v": 40
    },
    {
      "midi": 52,
      "hit": false,
      "t": 100922.28299999986,
      "d": 145.63099999999395,
      "v": 35
    },
    {
      "midi": 49,
      "hit": false,
      "t": 101067.91399999986,
      "d": 145.63099999999395,
      "v": 40
    },
    {
      "midi": 46,
      "hit": false,
      "t": 101213.54499999985,
      "d": 145.63099999999395,
      "v": 38
    },
    {
      "midi": 43,
      "hit": false,
      "t": 101359.17599999985,
      "d": 582.5240000000049,
      "v": 47
    },
    {
      "midi": 40,
      "hit": false,
      "t": 101941.70000000198,
      "d": 582.5240000000049,
      "v": 56
    },
    {
      "midi": 37,
      "hit": false,
      "t": 102524.22400000198,
      "d": 582.5240000000049,
      "v": 68
    },
    {
      "midi": 34,
      "hit": false,
      "t": 103106.74800000199,
      "d": 582.5240000000049,
      "v": 62
    },
    {
      "midi": 31,
      "hit": false,
      "t": 103689.27200000199,
      "d": 1165.0479999999952,
      "v": 47
    },
    {
      "midi": 43,
      "hit": false,
      "t": 104854.31999999985,
      "d": 436.8929999999964,
      "v": 25
    },
    {
      "midi": 46,
      "hit": false,
      "t": 104854.31999999985,
      "d": 436.8929999999964,
      "v": 48
    },
    {
      "midi": 48,
      "hit": false,
      "t": 104854.31999999985,
      "d": 436.8929999999964,
      "v": 47
    },
    {
      "midi": 52,
      "hit": false,
      "t": 104854.31999999985,
      "d": 436.8929999999964,
      "v": 44
    },
    {
      "midi": 36,
      "hit": false,
      "t": 104854.32000000199,
      "d": 1165.0479999999952,
      "v": 52
    },
    {
      "midi": 55,
      "hit": false,
      "t": 106019.36799999984,
      "d": 436.8929999999964,
      "v": 32
    },
    {
      "midi": 58,
      "hit": false,
      "t": 106019.36799999984,
      "d": 436.8929999999964,
      "v": 44
    },
    {
      "midi": 60,
      "hit": false,
      "t": 106019.36799999984,
      "d": 436.8929999999964,
      "v": 52
    },
    {
      "midi": 64,
      "hit": false,
      "t": 106019.36799999984,
      "d": 436.8929999999964,
      "v": 47
    },
    {
      "midi": 67,
      "hit": false,
      "t": 106601.89199999983,
      "d": 436.8929999999964,
      "v": 44
    },
    {
      "midi": 70,
      "hit": false,
      "t": 106601.89199999983,
      "d": 436.8929999999964,
      "v": 55
    },
    {
      "midi": 72,
      "hit": false,
      "t": 106601.89199999983,
      "d": 436.8929999999964,
      "v": 59
    },
    {
      "midi": 76,
      "hit": false,
      "t": 106601.89199999983,
      "d": 436.8929999999964,
      "v": 59
    },
    {
      "midi": 79,
      "hit": false,
      "t": 107184.41599999982,
      "d": 436.8929999999964,
      "v": 56
    },
    {
      "midi": 82,
      "hit": false,
      "t": 107184.41599999982,
      "d": 436.8929999999964,
      "v": 58
    },
    {
      "midi": 84,
      "hit": false,
      "t": 107184.41599999982,
      "d": 436.8929999999964,
      "v": 59
    },
    {
      "midi": 88,
      "hit": false,
      "t": 107184.41599999982,
      "d": 436.8929999999964,
      "v": 70
    },
    {
      "midi": 43,
      "hit": false,
      "t": 107766.93999999981,
      "d": 436.8929999999964,
      "v": 31
    },
    {
      "midi": 46,
      "hit": false,
      "t": 107766.93999999981,
      "d": 436.8929999999964,
      "v": 48
    },
    {
      "midi": 48,
      "hit": false,
      "t": 107766.93999999981,
      "d": 436.8929999999964,
      "v": 47
    },
    {
      "midi": 52,
      "hit": false,
      "t": 107766.93999999981,
      "d": 436.8929999999964,
      "v": 50
    },
    {
      "midi": 36,
      "hit": false,
      "t": 108058.20200000198,
      "d": 218.44650000000547,
      "v": 59
    },
    {
      "midi": 36,
      "hit": false,
      "t": 108276.64850000199,
      "d": 72.81549999999697,
      "v": 62
    },
    {
      "midi": 29,
      "hit": false,
      "t": 108349.46400000199,
      "d": 291.26200000000244,
      "v": 74
    },
    {
      "midi": 41,
      "hit": false,
      "t": 108349.46400000199,
      "d": 291.26200000000244,
      "v": 74
    },
    {
      "midi": 48,
      "hit": false,
      "t": 108422.27949999982,
      "d": 54.611625000005006,
      "v": 15
    },
    {
      "midi": 53,
      "hit": false,
      "t": 108495.09499999983,
      "d": 54.611625000005006,
      "v": 21
    },
    {
      "midi": 56,
      "hit": false,
      "t": 108567.91049999984,
      "d": 54.611625000005006,
      "v": 28
    },
    {
      "midi": 60,
      "hit": false,
      "t": 108640.72599999985,
      "d": 54.611625000005006,
      "v": 26
    },
    {
      "midi": 61,
      "hit": false,
      "t": 108713.54149999986,
      "d": 54.611625000005006,
      "v": 30
    },
    {
      "midi": 60,
      "hit": false,
      "t": 108786.35699999987,
      "d": 54.611625000005006,
      "v": 30
    },
    {
      "midi": 58,
      "hit": false,
      "t": 108859.17249999988,
      "d": 54.611625000005006,
      "v": 28
    },
    {
      "midi": 56,
      "hit": false,
      "t": 108931.9879999999,
      "d": 54.611625000005006,
      "v": 25
    },
    {
      "midi": 58,
      "hit": false,
      "t": 109004.8034999999,
      "d": 54.611625000005006,
      "v": 17
    },
    {
      "midi": 56,
      "hit": false,
      "t": 109077.61899999992,
      "d": 54.611625000005006,
      "v": 30
    },
    {
      "midi": 55,
      "hit": false,
      "t": 109150.43449999993,
      "d": 54.611625000005006,
      "v": 20
    },
    {
      "midi": 53,
      "hit": false,
      "t": 109223.24999999994,
      "d": 54.611625000005006,
      "v": 28
    },
    {
      "midi": 55,
      "hit": false,
      "t": 109296.06549999995,
      "d": 54.611625000005006,
      "v": 20
    },
    {
      "midi": 56,
      "hit": false,
      "t": 109368.88099999996,
      "d": 54.611625000005006,
      "v": 26
    },
    {
      "midi": 53,
      "hit": false,
      "t": 109441.69649999998,
      "d": 54.611625000005006,
      "v": 13
    },
    {
      "midi": 29,
      "hit": false,
      "t": 109514.51200000198,
      "d": 291.26200000000244,
      "v": 71
    },
    {
      "midi": 41,
      "hit": false,
      "t": 109514.51200000198,
      "d": 291.26200000000244,
      "v": 71
    },
    {
      "midi": 48,
      "hit": false,
      "t": 109587.32749999998,
      "d": 54.611625000005006,
      "v": 18
    },
    {
      "midi": 53,
      "hit": false,
      "t": 109660.143,
      "d": 54.611625000005006,
      "v": 21
    },
    {
      "midi": 56,
      "hit": false,
      "t": 109732.95850000001,
      "d": 54.611625000005006,
      "v": 21
    },
    {
      "midi": 60,
      "hit": false,
      "t": 109805.77400000002,
      "d": 54.611625000005006,
      "v": 21
    },
    {
      "midi": 61,
      "hit": false,
      "t": 109878.58950000003,
      "d": 54.611625000005006,
      "v": 28
    },
    {
      "midi": 60,
      "hit": false,
      "t": 109951.40500000004,
      "d": 54.611625000005006,
      "v": 28
    },
    {
      "midi": 58,
      "hit": false,
      "t": 110024.22050000005,
      "d": 54.611625000005006,
      "v": 28
    },
    {
      "midi": 68,
      "hit": false,
      "t": 110024.22050000199,
      "d": 72.81549999999697,
      "v": 55
    },
    {
      "midi": 72,
      "hit": false,
      "t": 110024.22050000199,
      "d": 72.81549999999697,
      "v": 52
    },
    {
      "midi": 56,
      "hit": false,
      "t": 110097.03600000007,
      "d": 54.611625000005006,
      "v": 32
    },
    {
      "midi": 68,
      "hit": false,
      "t": 110097.03600000199,
      "d": 291.26200000000244,
      "v": 75
    },
    {
      "midi": 72,
      "hit": false,
      "t": 110097.03600000199,
      "d": 291.26200000000244,
      "v": 75
    },
    {
      "midi": 58,
      "hit": false,
      "t": 110169.85150000008,
      "d": 54.611625000005006,
      "v": 26
    },
    {
      "midi": 56,
      "hit": false,
      "t": 110242.66700000009,
      "d": 54.611625000005006,
      "v": 28
    },
    {
      "midi": 55,
      "hit": false,
      "t": 110315.4825000001,
      "d": 54.611625000005006,
      "v": 24
    },
    {
      "midi": 53,
      "hit": false,
      "t": 110388.29800000011,
      "d": 54.611625000005006,
      "v": 28
    },
    {
      "midi": 65,
      "hit": false,
      "t": 110388.29800000199,
      "d": 145.63099999999395,
      "v": 39
    },
    {
      "midi": 68,
      "hit": false,
      "t": 110388.29800000199,
      "d": 145.63099999999395,
      "v": 47
    },
    {
      "midi": 55,
      "hit": false,
      "t": 110461.11350000012,
      "d": 54.611625000005006,
      "v": 23
    },
    {
      "midi": 56,
      "hit": false,
      "t": 110533.92900000013,
      "d": 54.611625000005006,
      "v": 32
    },
    {
      "midi": 53,
      "hit": false,
      "t": 110606.74450000015,
      "d": 54.611625000005006,
      "v": 21
    },
    {
      "midi": 34,
      "hit": false,
      "t": 110679.56000000198,
      "d": 291.26200000000244,
      "v": 59
    },
    {
      "midi": 46,
      "hit": false,
      "t": 110679.56000000198,
      "d": 291.26200000000244,
      "v": 70
    },
    {
      "midi": 49,
      "hit": false,
      "t": 110752.37550000015,
      "d": 54.611625000005006,
      "v": 22
    },
    {
      "midi": 54,
      "hit": false,
      "t": 110825.19100000017,
      "d": 54.611625000005006,
      "v": 21
    },
    {
      "midi": 58,
      "hit": false,
      "t": 110898.00650000018,
      "d": 54.611625000005006,
      "v": 16
    },
    {
      "midi": 61,
      "hit": false,
      "t": 110970.82200000019,
      "d": 54.611625000005006,
      "v": 26
    },
    {
      "midi": 63,
      "hit": false,
      "t": 111043.6375000002,
      "d": 54.611625000005006,
      "v": 34
    },
    {
      "midi": 61,
      "hit": false,
      "t": 111116.45300000021,
      "d": 54.611625000005006,
      "v": 23
    },
    {
      "midi": 60,
      "hit": false,
      "t": 111189.26850000022,
      "d": 54.611625000005006,
      "v": 23
    },
    {
      "midi": 70,
      "hit": false,
      "t": 111189.26850000198,
      "d": 72.81549999999697,
      "v": 58
    },
    {
      "midi": 73,
      "hit": false,
      "t": 111189.26850000198,
      "d": 72.81549999999697,
      "v": 63
    },
    {
      "midi": 58,
      "hit": false,
      "t": 111262.08400000024,
      "d": 54.611625000005006,
      "v": 28
    },
    {
      "midi": 70,
      "hit": false,
      "t": 111262.08400000198,
      "d": 582.5240000000049,
      "v": 80
    },
    {
      "midi": 73,
      "hit": false,
      "t": 111262.08400000198,
      "d": 582.5240000000049,
      "v": 80
    },
    {
      "midi": 60,
      "hit": false,
      "t": 111334.89950000025,
      "d": 54.611625000005006,
      "v": 21
    },
    {
      "midi": 58,
      "hit": false,
      "t": 111407.71500000026,
      "d": 54.611625000005006,
      "v": 26
    },
    {
      "midi": 56,
      "hit": false,
      "t": 111480.53050000027,
      "d": 54.611625000005006,
      "v": 19
    },
    {
      "midi": 54,
      "hit": false,
      "t": 111553.34600000028,
      "d": 54.611625000005006,
      "v": 28
    },
    {
      "midi": 56,
      "hit": false,
      "t": 111626.1615000003,
      "d": 54.611625000005006,
      "v": 26
    },
    {
      "midi": 54,
      "hit": false,
      "t": 111698.9770000003,
      "d": 54.611625000005006,
      "v": 21
    },
    {
      "midi": 53,
      "hit": false,
      "t": 111771.79250000032,
      "d": 54.611625000005006,
      "v": 25
    },
    {
      "midi": 52,
      "hit": false,
      "t": 111844.60800000033,
      "d": 54.611625000005006,
      "v": 31
    },
    {
      "midi": 70,
      "hit": false,
      "t": 111844.60800000199,
      "d": 72.81549999999697,
      "v": 47
    },
    {
      "midi": 72,
      "hit": false,
      "t": 111844.60800000199,
      "d": 72.81549999999697,
      "v": 56
    },
    {
      "midi": 53,
      "hit": false,
      "t": 111917.42350000034,
      "d": 54.611625000005006,
      "v": 32
    },
    {
      "midi": 55,
      "hit": false,
      "t": 111990.23900000035,
      "d": 54.611625000005006,
      "v": 26
    },
    {
      "midi": 36,
      "hit": false,
      "t": 111990.23900000198,
      "d": 72.81549999999697,
      "v": 56
    },
    {
      "midi": 48,
      "hit": false,
      "t": 111990.23900000198,
      "d": 72.81549999999697,
      "v": 47
    },
    {
      "midi": 52,
      "hit": false,
      "t": 112063.05450000036,
      "d": 54.611625000005006,
      "v": 30
    },
    {
      "midi": 53,
      "hit": false,
      "t": 112135.87000000037,
      "d": 54.611625000005006,
      "v": 32
    },
    {
      "midi": 55,
      "hit": false,
      "t": 112208.68550000039,
      "d": 54.611625000005006,
      "v": 33
    },
    {
      "midi": 56,
      "hit": false,
      "t": 112281.5010000004,
      "d": 54.611625000005006,
      "v": 37
    },
    {
      "midi": 37,
      "hit": false,
      "t": 112281.50100000198,
      "d": 72.81549999999697,
      "v": 55
    },
    {
      "midi": 49,
      "hit": false,
      "t": 112281.50100000198,
      "d": 72.81549999999697,
      "v": 55
    },
    {
      "midi": 53,
      "hit": false,
      "t": 112354.31650000041,
      "d": 54.611625000005006,
      "v": 33
    },
    {
      "midi": 55,
      "hit": false,
      "t": 112427.13200000042,
      "d": 54.611625000005006,
      "v": 47
    },
    {
      "midi": 56,
      "hit": false,
      "t": 112499.94750000043,
      "d": 54.611625000005006,
      "v": 54
    },
    {
      "midi": 58,
      "hit": false,
      "t": 112572.76300000044,
      "d": 54.611625000005006,
      "v": 50
    },
    {
      "midi": 34,
      "hit": false,
      "t": 112572.76300000199,
      "d": 72.81549999999697,
      "v": 59
    },
    {
      "midi": 46,
      "hit": false,
      "t": 112572.76300000199,
      "d": 72.81549999999697,
      "v": 55
    },
    {
      "midi": 55,
      "hit": false,
      "t": 112645.57850000045,
      "d": 54.611625000005006,
      "v": 44
    },
    {
      "midi": 52,
      "hit": false,
      "t": 112718.39400000047,
      "d": 54.611625000005006,
      "v": 52
    },
    {
      "midi": 53,
      "hit": false,
      "t": 112791.20950000048,
      "d": 54.611625000005006,
      "v": 48
    },
    {
      "midi": 55,
      "hit": false,
      "t": 112864.02500000049,
      "d": 54.611625000005006,
      "v": 47
    },
    {
      "midi": 36,
      "hit": false,
      "t": 112864.02500000199,
      "d": 72.81549999999697,
      "v": 59
    },
    {
      "midi": 48,
      "hit": false,
      "t": 112864.02500000199,
      "d": 72.81549999999697,
      "v": 50
    },
    {
      "midi": 52,
      "hit": false,
      "t": 112936.8405000005,
      "d": 54.611625000005006,
      "v": 52
    },
    {
      "midi": 53,
      "hit": false,
      "t": 113009.65600000051,
      "d": 218.44650000000547,
      "v": 30
    },
    {
      "midi": 41,
      "hit": false,
      "t": 113009.65600000198,
      "d": 72.81549999999697,
      "v": 36
    },
    {
      "midi": 53,
      "hit": false,
      "t": 113009.65600000198,
      "d": 72.81549999999697,
      "v": 32
    },
    {
      "midi": 48,
      "hit": false,
      "t": 113082.47150000198,
      "d": 72.81549999999697,
      "v": 28
    },
    {
      "midi": 53,
      "hit": false,
      "t": 113155.28700000198,
      "d": 72.81549999999697,
      "v": 28
    },
    {
      "midi": 56,
      "hit": false,
      "t": 113228.10250000197,
      "d": 72.81549999999697,
      "v": 35
    },
    {
      "midi": 60,
      "hit": false,
      "t": 113300.91800000197,
      "d": 72.81549999999697,
      "v": 35
    },
    {
      "midi": 61,
      "hit": false,
      "t": 113373.73350000197,
      "d": 72.81549999999697,
      "v": 32
    },
    {
      "midi": 64,
      "hit": false,
      "t": 113446.54900000052,
      "d": 72.81549999999697,
      "v": 39
    },
    {
      "midi": 60,
      "hit": false,
      "t": 113446.54900000196,
      "d": 72.81549999999697,
      "v": 26
    },
    {
      "midi": 58,
      "hit": false,
      "t": 113519.36450000196,
      "d": 72.81549999999697,
      "v": 26
    },
    {
      "midi": 65,
      "hit": false,
      "t": 113592.18000000052,
      "d": 72.81549999999697,
      "v": 47
    },
    {
      "midi": 56,
      "hit": false,
      "t": 113592.18000000196,
      "d": 72.81549999999697,
      "v": 37
    },
    {
      "midi": 58,
      "hit": false,
      "t": 113664.99550000195,
      "d": 72.81549999999697,
      "v": 30
    },
    {
      "midi": 67,
      "hit": false,
      "t": 113737.81100000051,
      "d": 72.81549999999697,
      "v": 50
    },
    {
      "midi": 56,
      "hit": false,
      "t": 113737.81100000195,
      "d": 72.81549999999697,
      "v": 30
    },
    {
      "midi": 55,
      "hit": false,
      "t": 113810.62650000195,
      "d": 72.81549999999697,
      "v": 31
    },
    {
      "midi": 68,
      "hit": false,
      "t": 113883.4420000005,
      "d": 72.81549999999697,
      "v": 58
    },
    {
      "midi": 53,
      "hit": false,
      "t": 113883.44200000195,
      "d": 72.81549999999697,
      "v": 33
    },
    {
      "midi": 55,
      "hit": false,
      "t": 113956.25750000194,
      "d": 72.81549999999697,
      "v": 33
    },
    {
      "midi": 65,
      "hit": false,
      "t": 114029.0730000005,
      "d": 72.81549999999697,
      "v": 41
    },
    {
      "midi": 56,
      "hit": false,
      "t": 114029.07300000194,
      "d": 72.81549999999697,
      "v": 37
    },
    {
      "midi": 53,
      "hit": false,
      "t": 114101.88850000194,
      "d": 72.81549999999697,
      "v": 27
    },
    {
      "midi": 56,
      "hit": false,
      "t": 114174.70400000193,
      "d": 72.81549999999697,
      "v": 37
    },
    {
      "midi": 48,
      "hit": false,
      "t": 114247.51950000193,
      "d": 72.81549999999697,
      "v": 33
    },
    {
      "midi": 53,
      "hit": false,
      "t": 114320.33500000193,
      "d": 72.81549999999697,
      "v": 33
    },
    {
      "midi": 56,
      "hit": false,
      "t": 114393.15050000192,
      "d": 72.81549999999697,
      "v": 30
    },
    {
      "midi": 60,
      "hit": false,
      "t": 114465.96600000192,
      "d": 72.81549999999697,
      "v": 31
    },
    {
      "midi": 61,
      "hit": false,
      "t": 114538.78150000192,
      "d": 72.81549999999697,
      "v": 30
    },
    {
      "midi": 64,
      "hit": false,
      "t": 114611.59700000049,
      "d": 72.81549999999697,
      "v": 39
    },
    {
      "midi": 76,
      "hit": false,
      "t": 114611.59700000049,
      "d": 72.81549999999697,
      "v": 56
    },
    {
      "midi": 60,
      "hit": false,
      "t": 114611.59700000192,
      "d": 72.81549999999697,
      "v": 30
    },
    {
      "midi": 58,
      "hit": false,
      "t": 114684.41250000191,
      "d": 72.81549999999697,
      "v": 28
    },
    {
      "midi": 65,
      "hit": false,
      "t": 114757.22800000048,
      "d": 72.81549999999697,
      "v": 41
    },
    {
      "midi": 77,
      "hit": false,
      "t": 114757.22800000048,
      "d": 72.81549999999697,
      "v": 59
    },
    {
      "midi": 56,
      "hit": false,
      "t": 114757.22800000191,
      "d": 72.81549999999697,
      "v": 35
    },
    {
      "midi": 58,
      "hit": false,
      "t": 114830.0435000019,
      "d": 72.81549999999697,
      "v": 33
    },
    {
      "midi": 67,
      "hit": false,
      "t": 114902.85900000048,
      "d": 72.81549999999697,
      "v": 47
    },
    {
      "midi": 79,
      "hit": false,
      "t": 114902.85900000048,
      "d": 72.81549999999697,
      "v": 59
    },
    {
      "midi": 56,
      "hit": false,
      "t": 114902.8590000019,
      "d": 72.81549999999697,
      "v": 35
    },
    {
      "midi": 55,
      "hit": false,
      "t": 114975.6745000019,
      "d": 72.81549999999697,
      "v": 37
    },
    {
      "midi": 68,
      "hit": false,
      "t": 115048.49000000047,
      "d": 72.81549999999697,
      "v": 44
    },
    {
      "midi": 80,
      "hit": false,
      "t": 115048.49000000047,
      "d": 72.81549999999697,
      "v": 58
    },
    {
      "midi": 53,
      "hit": false,
      "t": 115048.4900000019,
      "d": 72.81549999999697,
      "v": 39
    },
    {
      "midi": 55,
      "hit": false,
      "t": 115121.3055000019,
      "d": 72.81549999999697,
      "v": 37
    },
    {
      "midi": 65,
      "hit": false,
      "t": 115194.12100000046,
      "d": 72.81549999999697,
      "v": 26
    },
    {
      "midi": 77,
      "hit": false,
      "t": 115194.12100000046,
      "d": 72.81549999999697,
      "v": 44
    },
    {
      "midi": 56,
      "hit": false,
      "t": 115194.12100000189,
      "d": 72.81549999999697,
      "v": 43
    },
    {
      "midi": 53,
      "hit": false,
      "t": 115266.93650000189,
      "d": 72.81549999999697,
      "v": 37
    },
    {
      "midi": 58,
      "hit": false,
      "t": 115339.75200000188,
      "d": 72.81549999999697,
      "v": 37
    },
    {
      "midi": 49,
      "hit": false,
      "t": 115412.56750000188,
      "d": 72.81549999999697,
      "v": 40
    },
    {
      "midi": 54,
      "hit": false,
      "t": 115485.38300000188,
      "d": 72.81549999999697,
      "v": 37
    },
    {
      "midi": 58,
      "hit": false,
      "t": 115558.19850000188,
      "d": 72.81549999999697,
      "v": 33
    },
    {
      "midi": 61,
      "hit": false,
      "t": 115631.01400000187,
      "d": 72.81549999999697,
      "v": 37
    },
    {
      "midi": 63,
      "hit": false,
      "t": 115703.82950000187,
      "d": 72.81549999999697,
      "v": 30
    },
    {
      "midi": 65,
      "hit": false,
      "t": 115776.64500000046,
      "d": 72.81549999999697,
      "v": 36
    },
    {
      "midi": 77,
      "hit": false,
      "t": 115776.64500000046,
      "d": 72.81549999999697,
      "v": 50
    },
    {
      "midi": 61,
      "hit": false,
      "t": 115776.64500000187,
      "d": 72.81549999999697,
      "v": 32
    },
    {
      "midi": 60,
      "hit": false,
      "t": 115849.46050000186,
      "d": 72.81549999999697,
      "v": 28
    },
    {
      "midi": 66,
      "hit": false,
      "t": 115922.27600000045,
      "d": 72.81549999999697,
      "v": 40
    },
    {
      "midi": 78,
      "hit": false,
      "t": 115922.27600000045,
      "d": 72.81549999999697,
      "v": 63
    },
    {
      "midi": 58,
      "hit": false,
      "t": 115922.27600000186,
      "d": 72.81549999999697,
      "v": 40
    },
    {
      "midi": 60,
      "hit": false,
      "t": 115995.09150000186,
      "d": 72.81549999999697,
      "v": 30
    },
    {
      "midi": 70,
      "hit": false,
      "t": 116067.90700000044,
      "d": 72.81549999999697,
      "v": 47
    },
    {
      "midi": 82,
      "hit": false,
      "t": 116067.90700000044,
      "d": 72.81549999999697,
      "v": 63
    },
    {
      "midi": 58,
      "hit": false,
      "t": 116067.90700000185,
      "d": 72.81549999999697,
      "v": 28
    },
    {
      "midi": 56,
      "hit": false,
      "t": 116140.72250000185,
      "d": 72.81549999999697,
      "v": 30
    },
    {
      "midi": 73,
      "hit": false,
      "t": 116213.53800000044,
      "d": 72.81549999999697,
      "v": 35
    },
    {
      "midi": 85,
      "hit": false,
      "t": 116213.53800000044,
      "d": 72.81549999999697,
      "v": 63
    },
    {
      "midi": 54,
      "hit": false,
      "t": 116213.53800000185,
      "d": 72.81549999999697,
      "v": 37
    },
    {
      "midi": 56,
      "hit": false,
      "t": 116286.35350000185,
      "d": 72.81549999999697,
      "v": 35
    },
    {
      "midi": 73,
      "hit": false,
      "t": 116359.16900000043,
      "d": 72.81549999999697,
      "v": 44
    },
    {
      "midi": 85,
      "hit": false,
      "t": 116359.16900000043,
      "d": 72.81549999999697,
      "v": 63
    },
    {
      "midi": 54,
      "hit": false,
      "t": 116359.16900000184,
      "d": 72.81549999999697,
      "v": 33
    },
    {
      "midi": 53,
      "hit": false,
      "t": 116431.98450000184,
      "d": 72.81549999999697,
      "v": 33
    },
    {
      "midi": 73,
      "hit": false,
      "t": 116504.80000000042,
      "d": 145.63099999999395,
      "v": 68
    },
    {
      "midi": 85,
      "hit": false,
      "t": 116504.80000000042,
      "d": 145.63099999999395,
      "v": 74
    },
    {
      "midi": 52,
      "hit": false,
      "t": 116504.80000000184,
      "d": 72.81549999999697,
      "v": 40
    },
    {
      "midi": 53,
      "hit": false,
      "t": 116577.61550000183,
      "d": 72.81549999999697,
      "v": 33
    },
    {
      "midi": 55,
      "hit": false,
      "t": 116650.43100000183,
      "d": 72.81549999999697,
      "v": 33
    },
    {
      "midi": 56,
      "hit": false,
      "t": 116723.24650000183,
      "d": 72.81549999999697,
      "v": 37
    },
    {
      "midi": 72,
      "hit": false,
      "t": 116796.06200000041,
      "d": 291.26200000000244,
      "v": 50
    },
    {
      "midi": 84,
      "hit": false,
      "t": 116796.06200000041,
      "d": 291.26200000000244,
      "v": 59
    },
    {
      "midi": 58,
      "hit": false,
      "t": 116796.06200000182,
      "d": 72.81549999999697,
      "v": 40
    },
    {
      "midi": 56,
      "hit": false,
      "t": 116868.87750000182,
      "d": 72.81549999999697,
      "v": 37
    },
    {
      "midi": 55,
      "hit": false,
      "t": 116941.69300000182,
      "d": 72.81549999999697,
      "v": 33
    },
    {
      "midi": 53,
      "hit": false,
      "t": 117014.50850000182,
      "d": 72.81549999999697,
      "v": 30
    },
    {
      "midi": 52,
      "hit": false,
      "t": 117087.32400000181,
      "d": 72.81549999999697,
      "v": 30
    },
    {
      "midi": 53,
      "hit": false,
      "t": 117160.13950000181,
      "d": 72.81549999999697,
      "v": 32
    },
    {
      "midi": 52,
      "hit": false,
      "t": 117232.9550000018,
      "d": 72.81549999999697,
      "v": 33
    },
    {
      "midi": 49,
      "hit": false,
      "t": 117305.7705000018,
      "d": 72.81549999999697,
      "v": 30
    },
    {
      "midi": 64,
      "hit": false,
      "t": 117378.58600000042,
      "d": 145.63099999999395,
      "v": 47
    },
    {
      "midi": 76,
      "hit": false,
      "t": 117378.58600000042,
      "d": 145.63099999999395,
      "v": 59
    },
    {
      "midi": 48,
      "hit": false,
      "t": 117378.5860000018,
      "d": 72.81549999999697,
      "v": 28
    },
    {
      "midi": 46,
      "hit": false,
      "t": 117451.4015000018,
      "d": 72.81549999999697,
      "v": 32
    },
    {
      "midi": 44,
      "hit": false,
      "t": 117524.2170000018,
      "d": 72.81549999999697,
      "v": 34
    },
    {
      "midi": 43,
      "hit": false,
      "t": 117597.03250000179,
      "d": 72.81549999999697,
      "v": 35
    },
    {
      "midi": 65,
      "hit": false,
      "t": 117669.8480000004,
      "d": 72.81549999999697,
      "v": 41
    },
    {
      "midi": 77,
      "hit": false,
      "t": 117669.8480000004,
      "d": 72.81549999999697,
      "v": 47
    },
    {
      "midi": 41,
      "hit": false,
      "t": 117669.84800000179,
      "d": 291.26200000000244,
      "v": 71
    },
    {
      "midi": 60,
      "hit": false,
      "t": 117742.6635000004,
      "d": 72.81549999999697,
      "v": 41
    },
    {
      "midi": 65,
      "hit": false,
      "t": 117815.4790000004,
      "d": 72.81549999999697,
      "v": 39
    },
    {
      "midi": 68,
      "hit": false,
      "t": 117888.2945000004,
      "d": 72.81549999999697,
      "v": 38
    },
    {
      "midi": 72,
      "hit": false,
      "t": 117961.1100000004,
      "d": 72.81549999999697,
      "v": 59
    },
    {
      "midi": 60,
      "hit": false,
      "t": 118033.92550000039,
      "d": 72.81549999999697,
      "v": 10
    },
    {
      "midi": 65,
      "hit": false,
      "t": 118106.74100000039,
      "d": 72.81549999999697,
      "v": 36
    },
    {
      "midi": 68,
      "hit": false,
      "t": 118179.55650000038,
      "d": 72.81549999999697,
      "v": 35
    },
    {
      "midi": 53,
      "hit": false,
      "t": 118179.5565000018,
      "d": 72.81549999999697,
      "v": 56
    },
    {
      "midi": 56,
      "hit": false,
      "t": 118179.5565000018,
      "d": 72.81549999999697,
      "v": 62
    },
    {
      "midi": 53,
      "hit": false,
      "t": 118252.3720000018,
      "d": 291.26200000000244,
      "v": 71
    },
    {
      "midi": 56,
      "hit": false,
      "t": 118252.3720000018,
      "d": 291.26200000000244,
      "v": 72
    },
    {
      "midi": 60,
      "hit": false,
      "t": 118325.18750000038,
      "d": 72.81549999999697,
      "v": 47
    },
    {
      "midi": 65,
      "hit": false,
      "t": 118398.00300000038,
      "d": 72.81549999999697,
      "v": 44
    },
    {
      "midi": 68,
      "hit": false,
      "t": 118470.81850000037,
      "d": 72.81549999999697,
      "v": 40
    },
    {
      "midi": 72,
      "hit": false,
      "t": 118543.63400000037,
      "d": 72.81549999999697,
      "v": 59
    },
    {
      "midi": 60,
      "hit": false,
      "t": 118616.44950000037,
      "d": 72.81549999999697,
      "v": 23
    },
    {
      "midi": 65,
      "hit": false,
      "t": 118689.26500000036,
      "d": 72.81549999999697,
      "v": 44
    },
    {
      "midi": 68,
      "hit": false,
      "t": 118762.08050000036,
      "d": 72.81549999999697,
      "v": 32
    },
    {
      "midi": 53,
      "hit": false,
      "t": 118762.0805000018,
      "d": 72.81549999999697,
      "v": 56
    },
    {
      "midi": 56,
      "hit": false,
      "t": 118762.0805000018,
      "d": 72.81549999999697,
      "v": 62
    },
    {
      "midi": 48,
      "hit": false,
      "t": 118834.8960000018,
      "d": 582.5240000000049,
      "v": 80
    },
    {
      "midi": 53,
      "hit": false,
      "t": 118834.8960000018,
      "d": 582.5240000000049,
      "v": 85
    },
    {
      "midi": 56,
      "hit": false,
      "t": 118834.8960000018,
      "d": 582.5240000000049,
      "v": 85
    },
    {
      "midi": 59,
      "hit": false,
      "t": 118907.71150000035,
      "d": 72.81549999999697,
      "v": 43
    },
    {
      "midi": 62,
      "hit": false,
      "t": 118980.52700000035,
      "d": 72.81549999999697,
      "v": 36
    },
    {
      "midi": 68,
      "hit": false,
      "t": 119053.34250000035,
      "d": 72.81549999999697,
      "v": 50
    },
    {
      "midi": 71,
      "hit": false,
      "t": 119126.15800000035,
      "d": 72.81549999999697,
      "v": 59
    },
    {
      "midi": 59,
      "hit": false,
      "t": 119198.97350000034,
      "d": 72.81549999999697,
      "v": 45
    },
    {
      "midi": 62,
      "hit": false,
      "t": 119271.78900000034,
      "d": 72.81549999999697,
      "v": 50
    },
    {
      "midi": 68,
      "hit": false,
      "t": 119344.60450000034,
      "d": 72.81549999999697,
      "v": 47
    },
    {
      "midi": 71,
      "hit": false,
      "t": 119417.42000000033,
      "d": 72.81549999999697,
      "v": 59
    },
    {
      "midi": 48,
      "hit": false,
      "t": 119417.4200000018,
      "d": 145.63099999999395,
      "v": 41
    },
    {
      "midi": 52,
      "hit": false,
      "t": 119417.4200000018,
      "d": 145.63099999999395,
      "v": 52
    },
    {
      "midi": 55,
      "hit": false,
      "t": 119417.4200000018,
      "d": 145.63099999999395,
      "v": 56
    },
    {
      "midi": 59,
      "hit": false,
      "t": 119490.23550000033,
      "d": 72.81549999999697,
      "v": 19
    },
    {
      "midi": 64,
      "hit": false,
      "t": 119563.05100000033,
      "d": 72.81549999999697,
      "v": 31
    },
    {
      "midi": 67,
      "hit": false,
      "t": 119635.86650000032,
      "d": 72.81549999999697,
      "v": 34
    },
    {
      "midi": 72,
      "hit": false,
      "t": 119708.68200000032,
      "d": 72.81549999999697,
      "v": 62
    },
    {
      "midi": 60,
      "hit": false,
      "t": 119781.49750000032,
      "d": 72.81549999999697,
      "v": 47
    },
    {
      "midi": 64,
      "hit": false,
      "t": 119854.31300000031,
      "d": 72.81549999999697,
      "v": 42
    },
    {
      "midi": 67,
      "hit": false,
      "t": 119927.12850000031,
      "d": 72.81549999999697,
      "v": 36
    },
    {
      "midi": 36,
      "hit": false,
      "t": 119999.9440000018,
      "d": 291.26200000000244,
      "v": 67
    },
    {
      "midi": 48,
      "hit": false,
      "t": 119999.9440000018,
      "d": 291.26200000000244,
      "v": 62
    },
    {
      "midi": 60,
      "hit": false,
      "t": 120072.7595000003,
      "d": 72.81549999999697,
      "v": 44
    },
    {
      "midi": 64,
      "hit": false,
      "t": 120145.5750000003,
      "d": 72.81549999999697,
      "v": 42
    },
    {
      "midi": 67,
      "hit": false,
      "t": 120218.3905000003,
      "d": 72.81549999999697,
      "v": 44
    },
    {
      "midi": 72,
      "hit": false,
      "t": 120291.2060000003,
      "d": 72.81549999999697,
      "v": 56
    },
    {
      "midi": 60,
      "hit": false,
      "t": 120364.0215000003,
      "d": 72.81549999999697,
      "v": 47
    },
    {
      "midi": 64,
      "hit": false,
      "t": 120436.83700000029,
      "d": 72.81549999999697,
      "v": 47
    },
    {
      "midi": 67,
      "hit": false,
      "t": 120509.65250000029,
      "d": 72.81549999999697,
      "v": 41
    },
    {
      "midi": 55,
      "hit": false,
      "t": 120509.6525000018,
      "d": 72.81549999999697,
      "v": 67
    },
    {
      "midi": 58,
      "hit": false,
      "t": 120509.6525000018,
      "d": 72.81549999999697,
      "v": 63
    },
    {
      "midi": 55,
      "hit": false,
      "t": 120582.4680000018,
      "d": 291.26200000000244,
      "v": 67
    },
    {
      "midi": 58,
      "hit": false,
      "t": 120582.4680000018,
      "d": 291.26200000000244,
      "v": 63
    },
    {
      "midi": 60,
      "hit": false,
      "t": 120655.28350000028,
      "d": 72.81549999999697,
      "v": 36
    },
    {
      "midi": 64,
      "hit": false,
      "t": 120728.09900000028,
      "d": 72.81549999999697,
      "v": 42
    },
    {
      "midi": 67,
      "hit": false,
      "t": 120800.91450000028,
      "d": 72.81549999999697,
      "v": 52
    },
    {
      "midi": 72,
      "hit": false,
      "t": 120873.73000000027,
      "d": 72.81549999999697,
      "v": 62
    },
    {
      "midi": 60,
      "hit": false,
      "t": 120946.54550000027,
      "d": 72.81549999999697,
      "v": 32
    },
    {
      "midi": 64,
      "hit": false,
      "t": 121019.36100000027,
      "d": 72.81549999999697,
      "v": 42
    },
    {
      "midi": 67,
      "hit": false,
      "t": 121092.17650000026,
      "d": 72.81549999999697,
      "v": 36
    },
    {
      "midi": 55,
      "hit": false,
      "t": 121092.1765000018,
      "d": 72.81549999999697,
      "v": 56
    },
    {
      "midi": 58,
      "hit": false,
      "t": 121092.1765000018,
      "d": 72.81549999999697,
      "v": 44
    },
    {
      "midi": 53,
      "hit": false,
      "t": 121164.9920000018,
      "d": 582.5240000000049,
      "v": 80
    },
    {
      "midi": 55,
      "hit": false,
      "t": 121164.9920000018,
      "d": 582.5240000000049,
      "v": 80
    },
    {
      "midi": 58,
      "hit": false,
      "t": 121164.9920000018,
      "d": 582.5240000000049,
      "v": 85
    },
    {
      "midi": 60,
      "hit": false,
      "t": 121237.80750000026,
      "d": 72.81549999999697,
      "v": 50
    },
    {
      "midi": 64,
      "hit": false,
      "t": 121310.62300000025,
      "d": 72.81549999999697,
      "v": 52
    },
    {
      "midi": 67,
      "hit": false,
      "t": 121383.43850000025,
      "d": 72.81549999999697,
      "v": 56
    },
    {
      "midi": 72,
      "hit": false,
      "t": 121456.25400000025,
      "d": 72.81549999999697,
      "v": 59
    },
    {
      "midi": 60,
      "hit": false,
      "t": 121529.06950000025,
      "d": 72.81549999999697,
      "v": 41
    },
    {
      "midi": 64,
      "hit": false,
      "t": 121601.88500000024,
      "d": 72.81549999999697,
      "v": 42
    },
    {
      "midi": 67,
      "hit": false,
      "t": 121674.70050000024,
      "d": 72.81549999999697,
      "v": 29
    },
    {
      "midi": 72,
      "hit": false,
      "t": 121747.51600000024,
      "d": 72.81549999999697,
      "v": 52
    },
    {
      "midi": 53,
      "hit": false,
      "t": 121747.51600000181,
      "d": 145.63099999999395,
      "v": 56
    },
    {
      "midi": 56,
      "hit": false,
      "t": 121747.51600000181,
      "d": 145.63099999999395,
      "v": 39
    },
    {
      "midi": 60,
      "hit": false,
      "t": 121820.33150000023,
      "d": 72.81549999999697,
      "v": 41
    },
    {
      "midi": 64,
      "hit": false,
      "t": 121893.14700000023,
      "d": 72.81549999999697,
      "v": 44
    },
    {
      "midi": 67,
      "hit": false,
      "t": 121965.96250000023,
      "d": 72.81549999999697,
      "v": 41
    },
    {
      "midi": 72,
      "hit": false,
      "t": 122038.77800000022,
      "d": 72.81549999999697,
      "v": 59
    },
    {
      "midi": 60,
      "hit": false,
      "t": 122111.59350000022,
      "d": 72.81549999999697,
      "v": 47
    },
    {
      "midi": 65,
      "hit": false,
      "t": 122184.40900000022,
      "d": 72.81549999999697,
      "v": 56
    },
    {
      "midi": 68,
      "hit": false,
      "t": 122257.22450000021,
      "d": 72.81549999999697,
      "v": 55
    },
    {
      "midi": 41,
      "hit": false,
      "t": 122330.0400000018,
      "d": 291.26200000000244,
      "v": 60
    },
    {
      "midi": 53,
      "hit": false,
      "t": 122330.0400000018,
      "d": 291.26200000000244,
      "v": 60
    },
    {
      "midi": 65,
      "hit": false,
      "t": 122402.85550000021,
      "d": 72.81549999999697,
      "v": 47
    },
    {
      "midi": 69,
      "hit": false,
      "t": 122475.6710000002,
      "d": 72.81549999999697,
      "v": 50
    },
    {
      "midi": 72,
      "hit": false,
      "t": 122548.4865000002,
      "d": 72.81549999999697,
      "v": 59
    },
    {
      "midi": 77,
      "hit": false,
      "t": 122621.3020000002,
      "d": 72.81549999999697,
      "v": 62
    },
    {
      "midi": 65,
      "hit": false,
      "t": 122694.1175000002,
      "d": 72.81549999999697,
      "v": 52
    },
    {
      "midi": 69,
      "hit": false,
      "t": 122766.9330000002,
      "d": 72.81549999999697,
      "v": 56
    },
    {
      "midi": 72,
      "hit": false,
      "t": 122839.74850000019,
      "d": 72.81549999999697,
      "v": 47
    },
    {
      "midi": 60,
      "hit": false,
      "t": 122839.7485000018,
      "d": 72.81549999999697,
      "v": 59
    },
    {
      "midi": 63,
      "hit": false,
      "t": 122839.7485000018,
      "d": 72.81549999999697,
      "v": 68
    },
    {
      "midi": 60,
      "hit": false,
      "t": 122912.5640000018,
      "d": 291.26200000000244,
      "v": 67
    },
    {
      "midi": 63,
      "hit": false,
      "t": 122912.5640000018,
      "d": 291.26200000000244,
      "v": 74
    },
    {
      "midi": 65,
      "hit": false,
      "t": 122985.37950000018,
      "d": 72.81549999999697,
      "v": 56
    },
    {
      "midi": 69,
      "hit": false,
      "t": 123058.19500000018,
      "d": 72.81549999999697,
      "v": 62
    },
    {
      "midi": 72,
      "hit": false,
      "t": 123131.01050000018,
      "d": 72.81549999999697,
      "v": 56
    },
    {
      "midi": 77,
      "hit": false,
      "t": 123203.82600000018,
      "d": 72.81549999999697,
      "v": 59
    },
    {
      "midi": 65,
      "hit": false,
      "t": 123276.64150000017,
      "d": 72.81549999999697,
      "v": 59
    },
    {
      "midi": 69,
      "hit": false,
      "t": 123349.45700000017,
      "d": 72.81549999999697,
      "v": 62
    },
    {
      "midi": 72,
      "hit": false,
      "t": 123422.27250000017,
      "d": 72.81549999999697,
      "v": 59
    },
    {
      "midi": 60,
      "hit": false,
      "t": 123422.27250000181,
      "d": 72.81549999999697,
      "v": 52
    },
    {
      "midi": 63,
      "hit": false,
      "t": 123422.27250000181,
      "d": 72.81549999999697,
      "v": 55
    },
    {
      "midi": 60,
      "hit": false,
      "t": 123495.08800000181,
      "d": 665.0482333333348,
      "v": 85
    },
    {
      "midi": 63,
      "hit": false,
      "t": 123495.08800000181,
      "d": 665.0482333333348,
      "v": 85
    },
    {
      "midi": 58,
      "hit": false,
      "t": 123495.08800000181,
      "d": 669.9026000000013,
      "v": 85
    },
    {
      "midi": 65,
      "hit": false,
      "t": 123567.90350000016,
      "d": 72.81549999999697,
      "v": 59
    },
    {
      "midi": 69,
      "hit": false,
      "t": 123640.71900000016,
      "d": 72.81549999999697,
      "v": 59
    },
    {
      "midi": 72,
      "hit": false,
      "t": 123713.53450000015,
      "d": 72.81549999999697,
      "v": 59
    },
    {
      "midi": 77,
      "hit": false,
      "t": 123786.35000000015,
      "d": 72.81549999999697,
      "v": 62
    },
    {
      "midi": 65,
      "hit": false,
      "t": 123859.16550000015,
      "d": 72.81549999999697,
      "v": 59
    },
    {
      "midi": 69,
      "hit": false,
      "t": 123931.98100000015,
      "d": 72.81549999999697,
      "v": 59
    },
    {
      "midi": 72,
      "hit": false,
      "t": 124004.79650000014,
      "d": 72.81549999999697,
      "v": 56
    },
    {
      "midi": 65,
      "hit": false,
      "t": 124077.61200000014,
      "d": 72.81549999999697,
      "v": 39
    },
    {
      "midi": 69,
      "hit": false,
      "t": 124077.61200000014,
      "d": 72.81549999999697,
      "v": 44
    },
    {
      "midi": 77,
      "hit": false,
      "t": 124150.42750000014,
      "d": 72.81549999999697,
      "v": 56
    },
    {
      "midi": 65,
      "hit": false,
      "t": 124223.24300000013,
      "d": 72.81549999999697,
      "v": 52
    },
    {
      "midi": 70,
      "hit": false,
      "t": 124223.24300000013,
      "d": 72.81549999999697,
      "v": 55
    },
    {
      "midi": 58,
      "hit": false,
      "t": 124223.2430000018,
      "d": 145.63099999999395,
      "v": 38
    },
    {
      "midi": 61,
      "hit": false,
      "t": 124223.2430000018,
      "d": 145.63099999999395,
      "v": 47
    },
    {
      "midi": 77,
      "hit": false,
      "t": 124296.05850000013,
      "d": 72.81549999999697,
      "v": 59
    },
    {
      "midi": 65,
      "hit": false,
      "t": 124368.87400000013,
      "d": 72.81549999999697,
      "v": 41
    },
    {
      "midi": 72,
      "hit": false,
      "t": 124368.87400000013,
      "d": 72.81549999999697,
      "v": 59
    },
    {
      "midi": 56,
      "hit": false,
      "t": 124368.8740000018,
      "d": 145.63099999999395,
      "v": 54
    },
    {
      "midi": 60,
      "hit": false,
      "t": 124368.8740000018,
      "d": 145.63099999999395,
      "v": 39
    },
    {
      "midi": 77,
      "hit": false,
      "t": 124441.68950000012,
      "d": 72.81549999999697,
      "v": 47
    },
    {
      "midi": 65,
      "hit": false,
      "t": 124514.50500000012,
      "d": 72.81549999999697,
      "v": 34
    },
    {
      "midi": 73,
      "hit": false,
      "t": 124514.50500000012,
      "d": 72.81549999999697,
      "v": 58
    },
    {
      "midi": 55,
      "hit": false,
      "t": 124514.5050000018,
      "d": 145.63099999999395,
      "v": 47
    },
    {
      "midi": 58,
      "hit": false,
      "t": 124514.5050000018,
      "d": 145.63099999999395,
      "v": 47
    },
    {
      "midi": 77,
      "hit": false,
      "t": 124587.32050000012,
      "d": 72.81549999999697,
      "v": 52
    },
    {
      "midi": 48,
      "hit": false,
      "t": 124660.13600000179,
      "d": 291.26200000000244,
      "v": 56
    },
    {
      "midi": 53,
      "hit": false,
      "t": 124660.13600000179,
      "d": 291.26200000000244,
      "v": 60
    },
    {
      "midi": 56,
      "hit": false,
      "t": 124660.13600000179,
      "d": 291.26200000000244,
      "v": 67
    },
    {
      "midi": 60,
      "hit": false,
      "t": 124732.95150000011,
      "d": 72.81549999999697,
      "v": 44
    },
    {
      "midi": 65,
      "hit": false,
      "t": 124805.76700000011,
      "d": 72.81549999999697,
      "v": 50
    },
    {
      "midi": 68,
      "hit": false,
      "t": 124878.5825000001,
      "d": 72.81549999999697,
      "v": 58
    },
    {
      "midi": 72,
      "hit": false,
      "t": 124951.3980000001,
      "d": 72.81549999999697,
      "v": 62
    },
    {
      "midi": 60,
      "hit": false,
      "t": 125024.2135000001,
      "d": 72.81549999999697,
      "v": 50
    },
    {
      "midi": 65,
      "hit": false,
      "t": 125097.0290000001,
      "d": 72.81549999999697,
      "v": 50
    },
    {
      "midi": 68,
      "hit": false,
      "t": 125169.8445000001,
      "d": 72.81549999999697,
      "v": 38
    },
    {
      "midi": 53,
      "hit": false,
      "t": 125169.8445000018,
      "d": 72.81549999999697,
      "v": 56
    },
    {
      "midi": 56,
      "hit": false,
      "t": 125169.8445000018,
      "d": 72.81549999999697,
      "v": 54
    },
    {
      "midi": 72,
      "hit": false,
      "t": 125242.66000000009,
      "d": 72.81549999999697,
      "v": 62
    },
    {
      "midi": 48,
      "hit": false,
      "t": 125242.6600000018,
      "d": 291.26200000000244,
      "v": 62
    },
    {
      "midi": 55,
      "hit": false,
      "t": 125242.6600000018,
      "d": 291.26200000000244,
      "v": 62
    },
    {
      "midi": 58,
      "hit": false,
      "t": 125242.6600000018,
      "d": 291.26200000000244,
      "v": 58
    },
    {
      "midi": 60,
      "hit": false,
      "t": 125315.47550000009,
      "d": 72.81549999999697,
      "v": 47
    },
    {
      "midi": 67,
      "hit": false,
      "t": 125388.29100000008,
      "d": 72.81549999999697,
      "v": 56
    },
    {
      "midi": 70,
      "hit": false,
      "t": 125461.10650000008,
      "d": 72.81549999999697,
      "v": 55
    },
    {
      "midi": 72,
      "hit": false,
      "t": 125533.92200000008,
      "d": 72.81549999999697,
      "v": 59
    },
    {
      "midi": 60,
      "hit": false,
      "t": 125606.73750000008,
      "d": 72.81549999999697,
      "v": 52
    },
    {
      "midi": 64,
      "hit": false,
      "t": 125679.55300000007,
      "d": 72.81549999999697,
      "v": 55
    },
    {
      "midi": 67,
      "hit": false,
      "t": 125752.36850000007,
      "d": 72.81549999999697,
      "v": 50
    },
    {
      "midi": 52,
      "hit": false,
      "t": 125752.3685000018,
      "d": 72.81549999999697,
      "v": 59
    },
    {
      "midi": 55,
      "hit": false,
      "t": 125752.3685000018,
      "d": 72.81549999999697,
      "v": 50
    },
    {
      "midi": 60,
      "hit": false,
      "t": 125825.18400000007,
      "d": 291.26200000000244,
      "v": 39
    },
    {
      "midi": 65,
      "hit": false,
      "t": 125825.18400000007,
      "d": 291.26200000000244,
      "v": 44
    },
    {
      "midi": 68,
      "hit": false,
      "t": 125825.18400000007,
      "d": 291.26200000000244,
      "v": 50
    },
    {
      "midi": 72,
      "hit": false,
      "t": 125825.18400000007,
      "d": 291.26200000000244,
      "v": 52
    },
    {
      "midi": 53,
      "hit": false,
      "t": 125825.1840000018,
      "d": 72.81549999999697,
      "v": 24
    },
    {
      "midi": 60,
      "hit": false,
      "t": 125897.9995000018,
      "d": 72.81549999999697,
      "v": 32
    },
    {
      "midi": 56,
      "hit": false,
      "t": 125970.81500000179,
      "d": 72.81549999999697,
      "v": 48
    },
    {
      "midi": 53,
      "hit": false,
      "t": 126043.63050000179,
      "d": 72.81549999999697,
      "v": 45
    },
    {
      "midi": 48,
      "hit": false,
      "t": 126116.44600000179,
      "d": 72.81549999999697,
      "v": 52
    },
    {
      "midi": 56,
      "hit": false,
      "t": 126189.26150000178,
      "d": 72.81549999999697,
      "v": 44
    },
    {
      "midi": 53,
      "hit": false,
      "t": 126262.07700000178,
      "d": 72.81549999999697,
      "v": 54
    },
    {
      "midi": 77,
      "hit": false,
      "t": 126334.89250000007,
      "d": 72.81549999999697,
      "v": 39
    },
    {
      "midi": 80,
      "hit": false,
      "t": 126334.89250000007,
      "d": 72.81549999999697,
      "v": 55
    },
    {
      "midi": 48,
      "hit": false,
      "t": 126334.89250000178,
      "d": 72.81549999999697,
      "v": 39
    },
    {
      "midi": 77,
      "hit": false,
      "t": 126407.70800000007,
      "d": 291.26200000000244,
      "v": 70
    },
    {
      "midi": 80,
      "hit": false,
      "t": 126407.70800000007,
      "d": 291.26200000000244,
      "v": 68
    },
    {
      "midi": 44,
      "hit": false,
      "t": 126407.70800000177,
      "d": 72.81549999999697,
      "v": 55
    },
    {
      "midi": 53,
      "hit": false,
      "t": 126480.52350000177,
      "d": 72.81549999999697,
      "v": 54
    },
    {
      "midi": 48,
      "hit": false,
      "t": 126553.33900000177,
      "d": 72.81549999999697,
      "v": 44
    },
    {
      "midi": 44,
      "hit": false,
      "t": 126626.15450000176,
      "d": 72.81549999999697,
      "v": 50
    },
    {
      "midi": 41,
      "hit": false,
      "t": 126698.97000000176,
      "d": 72.81549999999697,
      "v": 60
    },
    {
      "midi": 48,
      "hit": false,
      "t": 126771.78550000176,
      "d": 72.81549999999697,
      "v": 44
    },
    {
      "midi": 44,
      "hit": false,
      "t": 126844.60100000176,
      "d": 72.81549999999697,
      "v": 55
    },
    {
      "midi": 77,
      "hit": false,
      "t": 126917.41650000008,
      "d": 72.81549999999697,
      "v": 39
    },
    {
      "midi": 80,
      "hit": false,
      "t": 126917.41650000008,
      "d": 72.81549999999697,
      "v": 58
    },
    {
      "midi": 41,
      "hit": false,
      "t": 126917.41650000175,
      "d": 72.81549999999697,
      "v": 43
    },
    {
      "midi": 77,
      "hit": false,
      "t": 126990.23200000008,
      "d": 582.5240000000049,
      "v": 75
    },
    {
      "midi": 80,
      "hit": false,
      "t": 126990.23200000008,
      "d": 582.5240000000049,
      "v": 74
    },
    {
      "midi": 36,
      "hit": false,
      "t": 126990.23200000175,
      "d": 72.81549999999697,
      "v": 47
    },
    {
      "midi": 41,
      "hit": false,
      "t": 127063.04750000175,
      "d": 72.81549999999697,
      "v": 63
    },
    {
      "midi": 44,
      "hit": false,
      "t": 127135.86300000174,
      "d": 72.81549999999697,
      "v": 55
    },
    {
      "midi": 48,
      "hit": false,
      "t": 127208.67850000174,
      "d": 72.81549999999697,
      "v": 44
    },
    {
      "midi": 47,
      "hit": false,
      "t": 127281.49400000174,
      "d": 72.81549999999697,
      "v": 50
    },
    {
      "midi": 48,
      "hit": false,
      "t": 127354.30950000173,
      "d": 72.81549999999697,
      "v": 41
    },
    {
      "midi": 47,
      "hit": false,
      "t": 127427.12500000173,
      "d": 72.81549999999697,
      "v": 41
    },
    {
      "midi": 48,
      "hit": false,
      "t": 127499.94050000173,
      "d": 72.81549999999697,
      "v": 41
    },
    {
      "midi": 76,
      "hit": false,
      "t": 127572.75600000008,
      "d": 145.63099999999395,
      "v": 36
    },
    {
      "midi": 79,
      "hit": false,
      "t": 127572.75600000008,
      "d": 145.63099999999395,
      "v": 52
    },
    {
      "midi": 47,
      "hit": false,
      "t": 127572.75600000173,
      "d": 72.81549999999697,
      "v": 56
    },
    {
      "midi": 48,
      "hit": false,
      "t": 127645.57150000172,
      "d": 72.81549999999697,
      "v": 44
    },
    {
      "midi": 43,
      "hit": false,
      "t": 127718.38700000172,
      "d": 72.81549999999697,
      "v": 59
    },
    {
      "midi": 48,
      "hit": false,
      "t": 127791.20250000172,
      "d": 72.81549999999697,
      "v": 32
    },
    {
      "midi": 40,
      "hit": false,
      "t": 127864.01800000171,
      "d": 72.81549999999697,
      "v": 41
    },
    {
      "midi": 48,
      "hit": false,
      "t": 127936.83350000171,
      "d": 72.81549999999697,
      "v": 32
    },
    {
      "midi": 43,
      "hit": false,
      "t": 128009.64900000171,
      "d": 72.81549999999697,
      "v": 52
    },
    {
      "midi": 48,
      "hit": false,
      "t": 128082.4645000017,
      "d": 72.81549999999697,
      "v": 47
    },
    {
      "midi": 36,
      "hit": false,
      "t": 128155.2800000017,
      "d": 72.81549999999697,
      "v": 52
    },
    {
      "midi": 40,
      "hit": false,
      "t": 128228.0955000017,
      "d": 72.81549999999697,
      "v": 56
    },
    {
      "midi": 43,
      "hit": false,
      "t": 128300.9110000017,
      "d": 72.81549999999697,
      "v": 52
    },
    {
      "midi": 48,
      "hit": false,
      "t": 128373.72650000169,
      "d": 72.81549999999697,
      "v": 44
    },
    {
      "midi": 40,
      "hit": false,
      "t": 128446.54200000169,
      "d": 72.81549999999697,
      "v": 56
    },
    {
      "midi": 43,
      "hit": false,
      "t": 128519.35750000169,
      "d": 72.81549999999697,
      "v": 47
    },
    {
      "midi": 48,
      "hit": false,
      "t": 128592.17300000168,
      "d": 72.81549999999697,
      "v": 56
    },
    {
      "midi": 79,
      "hit": false,
      "t": 128664.98850000008,
      "d": 72.81549999999697,
      "v": 44
    },
    {
      "midi": 82,
      "hit": false,
      "t": 128664.98850000008,
      "d": 72.81549999999697,
      "v": 55
    },
    {
      "midi": 52,
      "hit": false,
      "t": 128664.98850000168,
      "d": 72.81549999999697,
      "v": 52
    },
    {
      "midi": 79,
      "hit": false,
      "t": 128737.80400000008,
      "d": 291.26200000000244,
      "v": 67
    },
    {
      "midi": 82,
      "hit": false,
      "t": 128737.80400000008,
      "d": 291.26200000000244,
      "v": 74
    },
    {
      "midi": 43,
      "hit": false,
      "t": 128737.80400000168,
      "d": 72.81549999999697,
      "v": 59
    },
    {
      "midi": 48,
      "hit": false,
      "t": 128810.61950000167,
      "d": 72.81549999999697,
      "v": 44
    },
    {
      "midi": 52,
      "hit": false,
      "t": 128883.43500000167,
      "d": 72.81549999999697,
      "v": 50
    },
    {
      "midi": 55,
      "hit": false,
      "t": 128956.25050000167,
      "d": 72.81549999999697,
      "v": 50
    },
    {
      "midi": 48,
      "hit": false,
      "t": 129029.06600000167,
      "d": 72.81549999999697,
      "v": 52
    },
    {
      "midi": 52,
      "hit": false,
      "t": 129101.88150000166,
      "d": 72.81549999999697,
      "v": 52
    },
    {
      "midi": 55,
      "hit": false,
      "t": 129174.69700000166,
      "d": 72.81549999999697,
      "v": 47
    },
    {
      "midi": 79,
      "hit": false,
      "t": 129247.51250000008,
      "d": 72.81549999999697,
      "v": 56
    },
    {
      "midi": 82,
      "hit": false,
      "t": 129247.51250000008,
      "d": 72.81549999999697,
      "v": 58
    },
    {
      "midi": 60,
      "hit": false,
      "t": 129247.51250000166,
      "d": 72.81549999999697,
      "v": 44
    },
    {
      "midi": 79,
      "hit": false,
      "t": 129320.32800000008,
      "d": 582.5240000000049,
      "v": 75
    },
    {
      "midi": 82,
      "hit": false,
      "t": 129320.32800000008,
      "d": 582.5240000000049,
      "v": 80
    },
    {
      "midi": 53,
      "hit": false,
      "t": 129320.32800000165,
      "d": 72.81549999999697,
      "v": 56
    },
    {
      "midi": 56,
      "hit": false,
      "t": 129393.14350000165,
      "d": 72.81549999999697,
      "v": 51
    },
    {
      "midi": 60,
      "hit": false,
      "t": 129465.95900000165,
      "d": 72.81549999999697,
      "v": 39
    },
    {
      "midi": 65,
      "hit": false,
      "t": 129538.77450000164,
      "d": 72.81549999999697,
      "v": 47
    },
    {
      "midi": 64,
      "hit": false,
      "t": 129611.59000000164,
      "d": 72.81549999999697,
      "v": 47
    },
    {
      "midi": 65,
      "hit": false,
      "t": 129684.40550000164,
      "d": 72.81549999999697,
      "v": 34
    },
    {
      "midi": 64,
      "hit": false,
      "t": 129757.22100000163,
      "d": 72.81549999999697,
      "v": 52
    },
    {
      "midi": 65,
      "hit": false,
      "t": 129830.03650000163,
      "d": 72.81549999999697,
      "v": 34
    },
    {
      "midi": 77,
      "hit": false,
      "t": 129902.85200000009,
      "d": 145.63099999999395,
      "v": 32
    },
    {
      "midi": 80,
      "hit": false,
      "t": 129902.85200000009,
      "d": 145.63099999999395,
      "v": 55
    },
    {
      "midi": 64,
      "hit": false,
      "t": 129902.85200000163,
      "d": 72.81549999999697,
      "v": 49
    },
    {
      "midi": 65,
      "hit": false,
      "t": 129975.66750000163,
      "d": 72.81549999999697,
      "v": 50
    },
    {
      "midi": 60,
      "hit": false,
      "t": 130048.48300000162,
      "d": 72.81549999999697,
      "v": 47
    },
    {
      "midi": 65,
      "hit": false,
      "t": 130121.29850000162,
      "d": 72.81549999999697,
      "v": 44
    },
    {
      "midi": 56,
      "hit": false,
      "t": 130194.11400000162,
      "d": 72.81549999999697,
      "v": 54
    },
    {
      "midi": 65,
      "hit": false,
      "t": 130266.92950000161,
      "d": 72.81549999999697,
      "v": 47
    },
    {
      "midi": 60,
      "hit": false,
      "t": 130339.74500000161,
      "d": 72.81549999999697,
      "v": 50
    },
    {
      "midi": 65,
      "hit": false,
      "t": 130412.56050000161,
      "d": 72.81549999999697,
      "v": 47
    },
    {
      "midi": 53,
      "hit": false,
      "t": 130485.3760000016,
      "d": 72.81549999999697,
      "v": 60
    },
    {
      "midi": 57,
      "hit": false,
      "t": 130558.1915000016,
      "d": 72.81549999999697,
      "v": 39
    },
    {
      "midi": 60,
      "hit": false,
      "t": 130631.0070000016,
      "d": 72.81549999999697,
      "v": 47
    },
    {
      "midi": 65,
      "hit": false,
      "t": 130703.8225000016,
      "d": 72.81549999999697,
      "v": 47
    },
    {
      "midi": 57,
      "hit": false,
      "t": 130776.63800000159,
      "d": 72.81549999999697,
      "v": 52
    },
    {
      "midi": 60,
      "hit": false,
      "t": 130849.45350000159,
      "d": 72.81549999999697,
      "v": 52
    },
    {
      "midi": 65,
      "hit": false,
      "t": 130922.26900000159,
      "d": 72.81549999999697,
      "v": 50
    },
    {
      "midi": 84,
      "hit": false,
      "t": 130995.08450000008,
      "d": 72.81549999999697,
      "v": 62
    },
    {
      "midi": 87,
      "hit": false,
      "t": 130995.08450000008,
      "d": 72.81549999999697,
      "v": 74
    },
    {
      "midi": 69,
      "hit": false,
      "t": 130995.08450000158,
      "d": 72.81549999999697,
      "v": 47
    },
    {
      "midi": 84,
      "hit": false,
      "t": 131067.90000000008,
      "d": 291.2619999999879,
      "v": 67
    },
    {
      "midi": 87,
      "hit": false,
      "t": 131067.90000000008,
      "d": 291.2619999999879,
      "v": 74
    },
    {
      "midi": 60,
      "hit": false,
      "t": 131067.90000000158,
      "d": 72.81550000001153,
      "v": 52
    },
    {
      "midi": 65,
      "hit": false,
      "t": 131140.7155000016,
      "d": 72.81549999999697,
      "v": 50
    },
    {
      "midi": 69,
      "hit": false,
      "t": 131213.5310000016,
      "d": 72.81549999999697,
      "v": 50
    },
    {
      "midi": 72,
      "hit": false,
      "t": 131286.3465000016,
      "d": 72.81549999999697,
      "v": 59
    },
    {
      "midi": 65,
      "hit": false,
      "t": 131359.16200000158,
      "d": 72.81549999999697,
      "v": 59
    },
    {
      "midi": 69,
      "hit": false,
      "t": 131431.97750000158,
      "d": 72.81549999999697,
      "v": 56
    },
    {
      "midi": 72,
      "hit": false,
      "t": 131504.79300000158,
      "d": 72.81549999999697,
      "v": 59
    },
    {
      "midi": 84,
      "hit": false,
      "t": 131577.60850000006,
      "d": 72.81549999999697,
      "v": 59
    },
    {
      "midi": 87,
      "hit": false,
      "t": 131577.60850000006,
      "d": 72.81549999999697,
      "v": 68
    },
    {
      "midi": 77,
      "hit": false,
      "t": 131577.60850000157,
      "d": 72.81549999999697,
      "v": 62
    },
    {
      "midi": 84,
      "hit": false,
      "t": 131650.42400000006,
      "d": 669.9026000000013,
      "v": 70
    },
    {
      "midi": 87,
      "hit": false,
      "t": 131650.42400000006,
      "d": 669.9026000000013,
      "v": 74
    },
    {
      "midi": 69,
      "hit": false,
      "t": 131650.42400000157,
      "d": 72.81549999999697,
      "v": 59
    },
    {
      "midi": 77,
      "hit": false,
      "t": 131723.23950000157,
      "d": 72.81549999999697,
      "v": 50
    },
    {
      "midi": 76,
      "hit": false,
      "t": 131796.05500000156,
      "d": 72.81549999999697,
      "v": 44
    },
    {
      "midi": 77,
      "hit": false,
      "t": 131868.87050000156,
      "d": 72.81549999999697,
      "v": 56
    },
    {
      "midi": 69,
      "hit": false,
      "t": 131941.68600000156,
      "d": 72.81549999999697,
      "v": 52
    },
    {
      "midi": 77,
      "hit": false,
      "t": 132014.50150000156,
      "d": 72.81549999999697,
      "v": 52
    },
    {
      "midi": 69,
      "hit": false,
      "t": 132087.31700000155,
      "d": 72.81549999999697,
      "v": 56
    },
    {
      "midi": 77,
      "hit": false,
      "t": 132160.13250000155,
      "d": 72.81549999999697,
      "v": 52
    },
    {
      "midi": 69,
      "hit": false,
      "t": 132232.94800000155,
      "d": 72.81549999999697,
      "v": 62
    },
    {
      "midi": 77,
      "hit": false,
      "t": 132305.76350000154,
      "d": 72.81549999999697,
      "v": 56
    },
    {
      "midi": 82,
      "hit": false,
      "t": 132378.57900000006,
      "d": 145.63099999999395,
      "v": 47
    },
    {
      "midi": 85,
      "hit": false,
      "t": 132378.57900000006,
      "d": 145.63099999999395,
      "v": 58
    },
    {
      "midi": 70,
      "hit": false,
      "t": 132378.57900000154,
      "d": 72.81549999999697,
      "v": 55
    },
    {
      "midi": 77,
      "hit": false,
      "t": 132451.39450000154,
      "d": 72.81549999999697,
      "v": 44
    },
    {
      "midi": 80,
      "hit": false,
      "t": 132524.21000000005,
      "d": 145.63099999999395,
      "v": 40
    },
    {
      "midi": 84,
      "hit": false,
      "t": 132524.21000000005,
      "d": 145.63099999999395,
      "v": 47
    },
    {
      "midi": 72,
      "hit": false,
      "t": 132524.21000000153,
      "d": 72.81549999999697,
      "v": 59
    },
    {
      "midi": 77,
      "hit": false,
      "t": 132597.02550000153,
      "d": 72.81549999999697,
      "v": 52
    },
    {
      "midi": 79,
      "hit": false,
      "t": 132669.84100000004,
      "d": 145.63099999999395,
      "v": 39
    },
    {
      "midi": 82,
      "hit": false,
      "t": 132669.84100000004,
      "d": 145.63099999999395,
      "v": 47
    },
    {
      "midi": 73,
      "hit": false,
      "t": 132669.84100000153,
      "d": 72.81549999999697,
      "v": 63
    },
    {
      "midi": 77,
      "hit": false,
      "t": 132742.65650000153,
      "d": 72.81549999999697,
      "v": 56
    },
    {
      "midi": 77,
      "hit": false,
      "t": 132815.47200000004,
      "d": 291.2619999999879,
      "v": 50
    },
    {
      "midi": 80,
      "hit": false,
      "t": 132815.47200000004,
      "d": 291.2619999999879,
      "v": 58
    },
    {
      "midi": 60,
      "hit": false,
      "t": 132815.47200000152,
      "d": 72.81549999999697,
      "v": 50
    },
    {
      "midi": 65,
      "hit": false,
      "t": 132888.28750000152,
      "d": 72.81549999999697,
      "v": 47
    },
    {
      "midi": 68,
      "hit": false,
      "t": 132961.10300000152,
      "d": 72.81549999999697,
      "v": 50
    },
    {
      "midi": 72,
      "hit": false,
      "t": 133033.9185000015,
      "d": 72.81549999999697,
      "v": 56
    },
    {
      "midi": 71,
      "hit": false,
      "t": 133106.7340000015,
      "d": 72.81549999999697,
      "v": 50
    },
    {
      "midi": 72,
      "hit": false,
      "t": 133179.5495000015,
      "d": 72.81549999999697,
      "v": 56
    },
    {
      "midi": 71,
      "hit": false,
      "t": 133252.3650000015,
      "d": 72.81549999999697,
      "v": 47
    },
    {
      "midi": 77,
      "hit": false,
      "t": 133325.18050000002,
      "d": 72.81549999999697,
      "v": 44
    },
    {
      "midi": 80,
      "hit": false,
      "t": 133325.18050000002,
      "d": 72.81549999999697,
      "v": 55
    },
    {
      "midi": 89,
      "hit": false,
      "t": 133325.18050000002,
      "d": 72.81549999999697,
      "v": 56
    },
    {
      "midi": 72,
      "hit": false,
      "t": 133325.1805000015,
      "d": 72.81549999999697,
      "v": 56
    },
    {
      "midi": 79,
      "hit": false,
      "t": 133397.996,
      "d": 291.2619999999879,
      "v": 47
    },
    {
      "midi": 82,
      "hit": false,
      "t": 133397.996,
      "d": 291.2619999999879,
      "v": 58
    },
    {
      "midi": 91,
      "hit": false,
      "t": 133397.996,
      "d": 291.2619999999879,
      "v": 62
    },
    {
      "midi": 60,
      "hit": false,
      "t": 133397.9960000015,
      "d": 72.81549999999697,
      "v": 56
    },
    {
      "midi": 64,
      "hit": false,
      "t": 133470.8115000015,
      "d": 72.81549999999697,
      "v": 49
    },
    {
      "midi": 67,
      "hit": false,
      "t": 133543.6270000015,
      "d": 72.81549999999697,
      "v": 52
    },
    {
      "midi": 72,
      "hit": false,
      "t": 133616.4425000015,
      "d": 72.81549999999697,
      "v": 52
    },
    {
      "midi": 60,
      "hit": false,
      "t": 133689.2580000015,
      "d": 72.81549999999697,
      "v": 52
    },
    {
      "midi": 64,
      "hit": false,
      "t": 133762.07350000148,
      "d": 72.81549999999697,
      "v": 40
    },
    {
      "midi": 70,
      "hit": false,
      "t": 133834.88900000148,
      "d": 72.81549999999697,
      "v": 47
    },
    {
      "midi": 76,
      "hit": false,
      "t": 133907.7045,
      "d": 72.81549999999697,
      "v": 39
    },
    {
      "midi": 79,
      "hit": false,
      "t": 133907.7045,
      "d": 72.81549999999697,
      "v": 52
    },
    {
      "midi": 88,
      "hit": false,
      "t": 133907.7045,
      "d": 72.81549999999697,
      "v": 56
    },
    {
      "midi": 72,
      "hit": false,
      "t": 133907.70450000148,
      "d": 72.81549999999697,
      "v": 50
    },
    {
      "midi": 53,
      "hit": false,
      "t": 133980.52,
      "d": 54.611624999990454,
      "v": 43
    },
    {
      "midi": 77,
      "hit": false,
      "t": 133980.52,
      "d": 54.611624999990454,
      "v": 20
    },
    {
      "midi": 80,
      "hit": false,
      "t": 133980.52,
      "d": 54.611624999990454,
      "v": 35
    },
    {
      "midi": 89,
      "hit": false,
      "t": 133980.52,
      "d": 54.611624999990454,
      "v": 44
    },
    {
      "midi": 53,
      "hit": false,
      "t": 133980.52000000147,
      "d": 54.611624999990454,
      "v": 32
    },
    {
      "midi": 72,
      "hit": false,
      "t": 134053.3355,
      "d": 54.611624999990454,
      "v": 41
    },
    {
      "midi": 65,
      "hit": false,
      "t": 134053.33550000147,
      "d": 54.611624999990454,
      "v": 27
    },
    {
      "midi": 68,
      "hit": false,
      "t": 134053.33550000147,
      "d": 54.611624999990454,
      "v": 35
    },
    {
      "midi": 77,
      "hit": false,
      "t": 134126.15099999998,
      "d": 54.611624999990454,
      "v": 32
    },
    {
      "midi": 60,
      "hit": false,
      "t": 134126.15100000147,
      "d": 54.611624999990454,
      "v": 32
    },
    {
      "midi": 72,
      "hit": false,
      "t": 134126.15100000147,
      "d": 54.611624999990454,
      "v": 31
    },
    {
      "midi": 80,
      "hit": false,
      "t": 134198.96649999998,
      "d": 54.611624999990454,
      "v": 37
    },
    {
      "midi": 65,
      "hit": false,
      "t": 134198.96650000146,
      "d": 54.611624999990454,
      "v": 31
    },
    {
      "midi": 68,
      "hit": false,
      "t": 134198.96650000146,
      "d": 54.611624999990454,
      "v": 25
    },
    {
      "midi": 84,
      "hit": false,
      "t": 134271.78199999998,
      "d": 54.611624999990454,
      "v": 47
    },
    {
      "midi": 60,
      "hit": false,
      "t": 134271.78200000146,
      "d": 54.611624999990454,
      "v": 44
    },
    {
      "midi": 72,
      "hit": false,
      "t": 134271.78200000146,
      "d": 54.611624999990454,
      "v": 40
    },
    {
      "midi": 85,
      "hit": false,
      "t": 134344.59749999997,
      "d": 54.611624999990454,
      "v": 50
    },
    {
      "midi": 65,
      "hit": false,
      "t": 134344.59750000146,
      "d": 54.611624999990454,
      "v": 31
    },
    {
      "midi": 68,
      "hit": false,
      "t": 134344.59750000146,
      "d": 54.611624999990454,
      "v": 28
    },
    {
      "midi": 84,
      "hit": false,
      "t": 134417.41299999997,
      "d": 54.611624999990454,
      "v": 40
    },
    {
      "midi": 60,
      "hit": false,
      "t": 134417.41300000146,
      "d": 54.611624999990454,
      "v": 40
    },
    {
      "midi": 72,
      "hit": false,
      "t": 134417.41300000146,
      "d": 54.611624999990454,
      "v": 35
    },
    {
      "midi": 82,
      "hit": false,
      "t": 134490.22849999997,
      "d": 54.611624999990454,
      "v": 40
    },
    {
      "midi": 65,
      "hit": false,
      "t": 134490.22850000145,
      "d": 54.611624999990454,
      "v": 31
    },
    {
      "midi": 68,
      "hit": false,
      "t": 134490.22850000145,
      "d": 54.611624999990454,
      "v": 28
    },
    {
      "midi": 80,
      "hit": false,
      "t": 134563.04399999997,
      "d": 54.611624999990454,
      "v": 40
    },
    {
      "midi": 60,
      "hit": false,
      "t": 134563.04400000145,
      "d": 54.611624999990454,
      "v": 35
    },
    {
      "midi": 72,
      "hit": false,
      "t": 134563.04400000145,
      "d": 54.611624999990454,
      "v": 35
    },
    {
      "midi": 82,
      "hit": false,
      "t": 134635.85949999996,
      "d": 54.611624999990454,
      "v": 37
    },
    {
      "midi": 65,
      "hit": false,
      "t": 134635.85950000145,
      "d": 54.611624999990454,
      "v": 31
    },
    {
      "midi": 68,
      "hit": false,
      "t": 134635.85950000145,
      "d": 54.611624999990454,
      "v": 28
    },
    {
      "midi": 80,
      "hit": false,
      "t": 134708.67499999996,
      "d": 54.611624999990454,
      "v": 40
    },
    {
      "midi": 60,
      "hit": false,
      "t": 134708.67500000144,
      "d": 54.611624999990454,
      "v": 35
    },
    {
      "midi": 72,
      "hit": false,
      "t": 134708.67500000144,
      "d": 54.611624999990454,
      "v": 28
    },
    {
      "midi": 79,
      "hit": false,
      "t": 134781.49049999996,
      "d": 54.611624999990454,
      "v": 31
    },
    {
      "midi": 65,
      "hit": false,
      "t": 134781.49050000144,
      "d": 54.611624999990454,
      "v": 31
    },
    {
      "midi": 68,
      "hit": false,
      "t": 134781.49050000144,
      "d": 54.611624999990454,
      "v": 30
    },
    {
      "midi": 77,
      "hit": false,
      "t": 134854.30599999995,
      "d": 54.611624999990454,
      "v": 27
    },
    {
      "midi": 60,
      "hit": false,
      "t": 134854.30600000144,
      "d": 54.611624999990454,
      "v": 47
    },
    {
      "midi": 72,
      "hit": false,
      "t": 134854.30600000144,
      "d": 54.611624999990454,
      "v": 44
    },
    {
      "midi": 79,
      "hit": false,
      "t": 134927.12149999995,
      "d": 54.611624999990454,
      "v": 25
    },
    {
      "midi": 65,
      "hit": false,
      "t": 134927.12150000143,
      "d": 54.611624999990454,
      "v": 28
    },
    {
      "midi": 68,
      "hit": false,
      "t": 134927.12150000143,
      "d": 54.611624999990454,
      "v": 12
    },
    {
      "midi": 80,
      "hit": false,
      "t": 134999.93699999995,
      "d": 54.611624999990454,
      "v": 37
    },
    {
      "midi": 60,
      "hit": false,
      "t": 134999.93700000143,
      "d": 54.611624999990454,
      "v": 32
    },
    {
      "midi": 72,
      "hit": false,
      "t": 134999.93700000143,
      "d": 54.611624999990454,
      "v": 28
    },
    {
      "midi": 77,
      "hit": false,
      "t": 135072.75249999994,
      "d": 54.611624999990454,
      "v": 31
    },
    {
      "midi": 65,
      "hit": false,
      "t": 135072.75250000143,
      "d": 54.611624999990454,
      "v": 23
    },
    {
      "midi": 68,
      "hit": false,
      "t": 135072.75250000143,
      "d": 54.611624999990454,
      "v": 28
    },
    {
      "midi": 53,
      "hit": false,
      "t": 135145.56800000143,
      "d": 54.611624999990454,
      "v": 34
    },
    {
      "midi": 72,
      "hit": false,
      "t": 135218.38349999994,
      "d": 54.611624999990454,
      "v": 27
    },
    {
      "midi": 65,
      "hit": false,
      "t": 135218.38350000142,
      "d": 54.611624999990454,
      "v": 40
    },
    {
      "midi": 68,
      "hit": false,
      "t": 135218.38350000142,
      "d": 54.611624999990454,
      "v": 28
    },
    {
      "midi": 77,
      "hit": false,
      "t": 135291.19899999994,
      "d": 54.611624999990454,
      "v": 35
    },
    {
      "midi": 60,
      "hit": false,
      "t": 135291.19900000142,
      "d": 54.611624999990454,
      "v": 35
    },
    {
      "midi": 72,
      "hit": false,
      "t": 135291.19900000142,
      "d": 54.611624999990454,
      "v": 37
    },
    {
      "midi": 80,
      "hit": false,
      "t": 135364.01449999993,
      "d": 54.611624999990454,
      "v": 35
    },
    {
      "midi": 65,
      "hit": false,
      "t": 135364.01450000142,
      "d": 54.611624999990454,
      "v": 35
    },
    {
      "midi": 68,
      "hit": false,
      "t": 135364.01450000142,
      "d": 54.611624999990454,
      "v": 35
    },
    {
      "midi": 84,
      "hit": false,
      "t": 135436.82999999993,
      "d": 54.611624999990454,
      "v": 44
    },
    {
      "midi": 60,
      "hit": false,
      "t": 135436.8300000014,
      "d": 54.611624999990454,
      "v": 40
    },
    {
      "midi": 72,
      "hit": false,
      "t": 135436.8300000014,
      "d": 54.611624999990454,
      "v": 35
    },
    {
      "midi": 85,
      "hit": false,
      "t": 135509.64549999993,
      "d": 54.611624999990454,
      "v": 44
    },
    {
      "midi": 65,
      "hit": false,
      "t": 135509.6455000014,
      "d": 54.611624999990454,
      "v": 28
    },
    {
      "midi": 68,
      "hit": false,
      "t": 135509.6455000014,
      "d": 54.611624999990454,
      "v": 21
    },
    {
      "midi": 84,
      "hit": false,
      "t": 135582.46099999992,
      "d": 54.611624999990454,
      "v": 41
    },
    {
      "midi": 60,
      "hit": false,
      "t": 135582.4610000014,
      "d": 54.611624999990454,
      "v": 40
    },
    {
      "midi": 72,
      "hit": false,
      "t": 135582.4610000014,
      "d": 54.611624999990454,
      "v": 32
    },
    {
      "midi": 82,
      "hit": false,
      "t": 135655.27649999992,
      "d": 54.611624999990454,
      "v": 37
    },
    {
      "midi": 65,
      "hit": false,
      "t": 135655.2765000014,
      "d": 54.611624999990454,
      "v": 31
    },
    {
      "midi": 68,
      "hit": false,
      "t": 135655.2765000014,
      "d": 54.611624999990454,
      "v": 8
    },
    {
      "midi": 80,
      "hit": false,
      "t": 135728.09199999992,
      "d": 54.611624999990454,
      "v": 40
    },
    {
      "midi": 60,
      "hit": false,
      "t": 135728.0920000014,
      "d": 54.611624999990454,
      "v": 44
    },
    {
      "midi": 72,
      "hit": false,
      "t": 135728.0920000014,
      "d": 54.611624999990454,
      "v": 41
    },
    {
      "midi": 82,
      "hit": false,
      "t": 135800.9074999999,
      "d": 54.611624999990454,
      "v": 44
    },
    {
      "midi": 65,
      "hit": false,
      "t": 135800.9075000014,
      "d": 54.611624999990454,
      "v": 32
    },
    {
      "midi": 68,
      "hit": false,
      "t": 135800.9075000014,
      "d": 54.611624999990454,
      "v": 21
    },
    {
      "midi": 80,
      "hit": false,
      "t": 135873.7229999999,
      "d": 54.611624999990454,
      "v": 40
    },
    {
      "midi": 60,
      "hit": false,
      "t": 135873.7230000014,
      "d": 54.611624999990454,
      "v": 31
    },
    {
      "midi": 72,
      "hit": false,
      "t": 135873.7230000014,
      "d": 54.611624999990454,
      "v": 32
    },
    {
      "midi": 79,
      "hit": false,
      "t": 135946.5384999999,
      "d": 54.611624999990454,
      "v": 37
    },
    {
      "midi": 65,
      "hit": false,
      "t": 135946.5385000014,
      "d": 54.611624999990454,
      "v": 28
    },
    {
      "midi": 68,
      "hit": false,
      "t": 135946.5385000014,
      "d": 54.611624999990454,
      "v": 13
    },
    {
      "midi": 77,
      "hit": false,
      "t": 136019.3539999999,
      "d": 54.611624999990454,
      "v": 31
    },
    {
      "midi": 60,
      "hit": false,
      "t": 136019.3540000014,
      "d": 54.611624999990454,
      "v": 37
    },
    {
      "midi": 72,
      "hit": false,
      "t": 136019.3540000014,
      "d": 54.611624999990454,
      "v": 28
    },
    {
      "midi": 79,
      "hit": false,
      "t": 136092.1694999999,
      "d": 54.611624999990454,
      "v": 18
    },
    {
      "midi": 65,
      "hit": false,
      "t": 136092.1695000014,
      "d": 54.611624999990454,
      "v": 35
    },
    {
      "midi": 68,
      "hit": false,
      "t": 136092.1695000014,
      "d": 54.611624999990454,
      "v": 23
    },
    {
      "midi": 80,
      "hit": false,
      "t": 136164.9849999999,
      "d": 54.611624999990454,
      "v": 30
    },
    {
      "midi": 60,
      "hit": false,
      "t": 136164.98500000138,
      "d": 54.611624999990454,
      "v": 37
    },
    {
      "midi": 72,
      "hit": false,
      "t": 136164.98500000138,
      "d": 54.611624999990454,
      "v": 35
    },
    {
      "midi": 77,
      "hit": false,
      "t": 136237.8004999999,
      "d": 54.611624999990454,
      "v": 25
    },
    {
      "midi": 65,
      "hit": false,
      "t": 136237.80050000138,
      "d": 54.611624999990454,
      "v": 27
    },
    {
      "midi": 68,
      "hit": false,
      "t": 136237.80050000138,
      "d": 54.611624999990454,
      "v": 19
    },
    {
      "midi": 45,
      "hit": false,
      "t": 136310.61600000138,
      "d": 54.611624999990454,
      "v": 27
    },
    {
      "midi": 78,
      "hit": false,
      "t": 136383.4314999999,
      "d": 54.611624999990454,
      "v": 44
    },
    {
      "midi": 54,
      "hit": false,
      "t": 136383.43150000137,
      "d": 54.611624999990454,
      "v": 35
    },
    {
      "midi": 56,
      "hit": false,
      "t": 136383.43150000137,
      "d": 54.611624999990454,
      "v": 26
    },
    {
      "midi": 84,
      "hit": false,
      "t": 136456.2469999999,
      "d": 54.611624999990454,
      "v": 35
    },
    {
      "midi": 51,
      "hit": false,
      "t": 136456.24700000137,
      "d": 54.611624999990454,
      "v": 46
    },
    {
      "midi": 60,
      "hit": false,
      "t": 136456.24700000137,
      "d": 54.611624999990454,
      "v": 31
    },
    {
      "midi": 87,
      "hit": false,
      "t": 136529.06249999988,
      "d": 54.611624999990454,
      "v": 44
    },
    {
      "midi": 54,
      "hit": false,
      "t": 136529.06250000137,
      "d": 54.611624999990454,
      "v": 32
    },
    {
      "midi": 56,
      "hit": false,
      "t": 136529.06250000137,
      "d": 54.611624999990454,
      "v": 24
    },
    {
      "midi": 90,
      "hit": false,
      "t": 136601.87799999988,
      "d": 54.611624999990454,
      "v": 46
    },
    {
      "midi": 51,
      "hit": false,
      "t": 136601.87800000136,
      "d": 54.611624999990454,
      "v": 46
    },
    {
      "midi": 60,
      "hit": false,
      "t": 136601.87800000136,
      "d": 54.611624999990454,
      "v": 40
    },
    {
      "midi": 92,
      "hit": false,
      "t": 136674.69349999988,
      "d": 54.611624999990454,
      "v": 50
    },
    {
      "midi": 54,
      "hit": false,
      "t": 136674.69350000136,
      "d": 54.611624999990454,
      "v": 32
    },
    {
      "midi": 56,
      "hit": false,
      "t": 136674.69350000136,
      "d": 54.611624999990454,
      "v": 33
    },
    {
      "midi": 90,
      "hit": false,
      "t": 136747.50899999987,
      "d": 54.611624999990454,
      "v": 44
    },
    {
      "midi": 51,
      "hit": false,
      "t": 136747.50900000136,
      "d": 54.611624999990454,
      "v": 44
    },
    {
      "midi": 60,
      "hit": false,
      "t": 136747.50900000136,
      "d": 54.611624999990454,
      "v": 28
    },
    {
      "midi": 89,
      "hit": false,
      "t": 136820.32449999987,
      "d": 54.611624999990454,
      "v": 35
    },
    {
      "midi": 54,
      "hit": false,
      "t": 136820.32450000136,
      "d": 54.611624999990454,
      "v": 23
    },
    {
      "midi": 56,
      "hit": false,
      "t": 136820.32450000136,
      "d": 54.611624999990454,
      "v": 20
    },
    {
      "midi": 87,
      "hit": false,
      "t": 136893.13999999987,
      "d": 54.611624999990454,
      "v": 30
    },
    {
      "midi": 51,
      "hit": false,
      "t": 136893.14000000135,
      "d": 54.611624999990454,
      "v": 30
    },
    {
      "midi": 60,
      "hit": false,
      "t": 136893.14000000135,
      "d": 54.611624999990454,
      "v": 24
    },
    {
      "midi": 89,
      "hit": false,
      "t": 136965.95549999987,
      "d": 54.611624999990454,
      "v": 31
    },
    {
      "midi": 54,
      "hit": false,
      "t": 136965.95550000135,
      "d": 54.611624999990454,
      "v": 23
    },
    {
      "midi": 56,
      "hit": false,
      "t": 136965.95550000135,
      "d": 54.611624999990454,
      "v": 22
    },
    {
      "midi": 87,
      "hit": false,
      "t": 137038.77099999986,
      "d": 54.611624999990454,
      "v": 35
    },
    {
      "midi": 51,
      "hit": false,
      "t": 137038.77100000135,
      "d": 54.611624999990454,
      "v": 37
    },
    {
      "midi": 60,
      "hit": false,
      "t": 137038.77100000135,
      "d": 54.611624999990454,
      "v": 32
    },
    {
      "midi": 85,
      "hit": false,
      "t": 137111.58649999986,
      "d": 54.611624999990454,
      "v": 32
    },
    {
      "midi": 54,
      "hit": false,
      "t": 137111.58650000134,
      "d": 54.611624999990454,
      "v": 23
    },
    {
      "midi": 56,
      "hit": false,
      "t": 137111.58650000134,
      "d": 54.611624999990454,
      "v": 22
    },
    {
      "midi": 84,
      "hit": false,
      "t": 137184.40199999986,
      "d": 54.611624999990454,
      "v": 40
    },
    {
      "midi": 51,
      "hit": false,
      "t": 137184.40200000134,
      "d": 54.611624999990454,
      "v": 37
    },
    {
      "midi": 60,
      "hit": false,
      "t": 137184.40200000134,
      "d": 54.611624999990454,
      "v": 28
    },
    {
      "midi": 85,
      "hit": false,
      "t": 137257.21749999985,
      "d": 54.611624999990454,
      "v": 44
    },
    {
      "midi": 54,
      "hit": false,
      "t": 137257.21750000134,
      "d": 54.611624999990454,
      "v": 23
    },
    {
      "midi": 56,
      "hit": false,
      "t": 137257.21750000134,
      "d": 54.611624999990454,
      "v": 26
    },
    {
      "midi": 87,
      "hit": false,
      "t": 137330.03299999985,
      "d": 54.611624999990454,
      "v": 35
    },
    {
      "midi": 51,
      "hit": false,
      "t": 137330.03300000133,
      "d": 54.611624999990454,
      "v": 37
    },
    {
      "midi": 60,
      "hit": false,
      "t": 137330.03300000133,
      "d": 54.611624999990454,
      "v": 25
    },
    {
      "midi": 84,
      "hit": false,
      "t": 137402.84849999985,
      "d": 54.611624999990454,
      "v": 24
    },
    {
      "midi": 54,
      "hit": false,
      "t": 137402.84850000133,
      "d": 54.611624999990454,
      "v": 30
    },
    {
      "midi": 56,
      "hit": false,
      "t": 137402.84850000133,
      "d": 54.611624999990454,
      "v": 24
    },
    {
      "midi": 44,
      "hit": false,
      "t": 137475.66400000133,
      "d": 54.611624999990454,
      "v": 40
    },
    {
      "midi": 78,
      "hit": false,
      "t": 137548.47949999984,
      "d": 54.611624999990454,
      "v": 40
    },
    {
      "midi": 54,
      "hit": false,
      "t": 137548.47950000133,
      "d": 54.611624999990454,
      "v": 32
    },
    {
      "midi": 56,
      "hit": false,
      "t": 137548.47950000133,
      "d": 54.611624999990454,
      "v": 24
    },
    {
      "midi": 84,
      "hit": false,
      "t": 137621.29499999984,
      "d": 54.611624999990454,
      "v": 31
    },
    {
      "midi": 51,
      "hit": false,
      "t": 137621.29500000132,
      "d": 54.611624999990454,
      "v": 37
    },
    {
      "midi": 60,
      "hit": false,
      "t": 137621.29500000132,
      "d": 54.611624999990454,
      "v": 27
    },
    {
      "midi": 87,
      "hit": false,
      "t": 137694.11049999984,
      "d": 54.611624999990454,
      "v": 44
    },
    {
      "midi": 54,
      "hit": false,
      "t": 137694.11050000132,
      "d": 54.611624999990454,
      "v": 30
    },
    {
      "midi": 56,
      "hit": false,
      "t": 137694.11050000132,
      "d": 54.611624999990454,
      "v": 35
    },
    {
      "midi": 90,
      "hit": false,
      "t": 137766.92599999983,
      "d": 54.611624999990454,
      "v": 37
    },
    {
      "midi": 51,
      "hit": false,
      "t": 137766.92600000132,
      "d": 54.611624999990454,
      "v": 40
    },
    {
      "midi": 60,
      "hit": false,
      "t": 137766.92600000132,
      "d": 54.611624999990454,
      "v": 28
    },
    {
      "midi": 92,
      "hit": false,
      "t": 137839.74149999983,
      "d": 54.611624999990454,
      "v": 40
    },
    {
      "midi": 54,
      "hit": false,
      "t": 137839.7415000013,
      "d": 54.611624999990454,
      "v": 30
    },
    {
      "midi": 56,
      "hit": false,
      "t": 137839.7415000013,
      "d": 54.611624999990454,
      "v": 33
    },
    {
      "midi": 90,
      "hit": false,
      "t": 137912.55699999983,
      "d": 54.611624999990454,
      "v": 44
    },
    {
      "midi": 51,
      "hit": false,
      "t": 137912.5570000013,
      "d": 54.611624999990454,
      "v": 35
    },
    {
      "midi": 60,
      "hit": false,
      "t": 137912.5570000013,
      "d": 54.611624999990454,
      "v": 23
    },
    {
      "midi": 89,
      "hit": false,
      "t": 137985.37249999982,
      "d": 54.611624999990454,
      "v": 28
    },
    {
      "midi": 54,
      "hit": false,
      "t": 137985.3725000013,
      "d": 54.611624999990454,
      "v": 32
    },
    {
      "midi": 56,
      "hit": false,
      "t": 137985.3725000013,
      "d": 54.611624999990454,
      "v": 33
    },
    {
      "midi": 87,
      "hit": false,
      "t": 138058.18799999982,
      "d": 54.611624999990454,
      "v": 35
    },
    {
      "midi": 51,
      "hit": false,
      "t": 138058.1880000013,
      "d": 54.611624999990454,
      "v": 37
    },
    {
      "midi": 60,
      "hit": false,
      "t": 138058.1880000013,
      "d": 54.611624999990454,
      "v": 31
    },
    {
      "midi": 89,
      "hit": false,
      "t": 138131.00349999982,
      "d": 54.611624999990454,
      "v": 32
    },
    {
      "midi": 54,
      "hit": false,
      "t": 138131.0035000013,
      "d": 54.611624999990454,
      "v": 23
    },
    {
      "midi": 56,
      "hit": false,
      "t": 138131.0035000013,
      "d": 54.611624999990454,
      "v": 20
    },
    {
      "midi": 87,
      "hit": false,
      "t": 138203.8189999998,
      "d": 54.611624999990454,
      "v": 37
    },
    {
      "midi": 51,
      "hit": false,
      "t": 138203.8190000013,
      "d": 54.611624999990454,
      "v": 37
    },
    {
      "midi": 60,
      "hit": false,
      "t": 138203.8190000013,
      "d": 54.611624999990454,
      "v": 25
    },
    {
      "midi": 85,
      "hit": false,
      "t": 138276.6344999998,
      "d": 54.611624999990454,
      "v": 32
    },
    {
      "midi": 54,
      "hit": false,
      "t": 138276.6345000013,
      "d": 54.611624999990454,
      "v": 16
    },
    {
      "midi": 56,
      "hit": false,
      "t": 138276.6345000013,
      "d": 54.611624999990454,
      "v": 35
    },
    {
      "midi": 84,
      "hit": false,
      "t": 138349.4499999998,
      "d": 54.611624999990454,
      "v": 37
    },
    {
      "midi": 51,
      "hit": false,
      "t": 138349.4500000013,
      "d": 54.611624999990454,
      "v": 40
    },
    {
      "midi": 60,
      "hit": false,
      "t": 138349.4500000013,
      "d": 54.611624999990454,
      "v": 25
    },
    {
      "midi": 82,
      "hit": false,
      "t": 138422.2654999998,
      "d": 54.611624999990454,
      "v": 40
    },
    {
      "midi": 54,
      "hit": false,
      "t": 138422.2655000013,
      "d": 54.611624999990454,
      "v": 44
    },
    {
      "midi": 56,
      "hit": false,
      "t": 138422.2655000013,
      "d": 54.611624999990454,
      "v": 16
    },
    {
      "midi": 80,
      "hit": false,
      "t": 138495.0809999998,
      "d": 54.611624999990454,
      "v": 37
    },
    {
      "midi": 51,
      "hit": false,
      "t": 138495.0810000013,
      "d": 54.611624999990454,
      "v": 32
    },
    {
      "midi": 60,
      "hit": false,
      "t": 138495.0810000013,
      "d": 54.611624999990454,
      "v": 20
    },
    {
      "midi": 78,
      "hit": false,
      "t": 138567.8964999998,
      "d": 54.611624999990454,
      "v": 35
    },
    {
      "midi": 54,
      "hit": false,
      "t": 138567.89650000128,
      "d": 54.611624999990454,
      "v": 21
    },
    {
      "midi": 56,
      "hit": false,
      "t": 138567.89650000128,
      "d": 54.611624999990454,
      "v": 22
    },
    {
      "midi": 77,
      "hit": false,
      "t": 138640.7119999998,
      "d": 54.611624999990454,
      "v": 37
    },
    {
      "midi": 49,
      "hit": false,
      "t": 138640.71200000128,
      "d": 54.611624999990454,
      "v": 35
    },
    {
      "midi": 80,
      "hit": false,
      "t": 138713.5274999998,
      "d": 54.611624999990454,
      "v": 44
    },
    {
      "midi": 61,
      "hit": false,
      "t": 138713.52750000128,
      "d": 54.611624999990454,
      "v": 31
    },
    {
      "midi": 65,
      "hit": false,
      "t": 138713.52750000128,
      "d": 54.611624999990454,
      "v": 28
    },
    {
      "midi": 85,
      "hit": false,
      "t": 138786.3429999998,
      "d": 54.611624999990454,
      "v": 40
    },
    {
      "midi": 56,
      "hit": false,
      "t": 138786.34300000127,
      "d": 54.611624999990454,
      "v": 35
    },
    {
      "midi": 68,
      "hit": false,
      "t": 138786.34300000127,
      "d": 54.611624999990454,
      "v": 35
    },
    {
      "midi": 89,
      "hit": false,
      "t": 138859.1584999998,
      "d": 54.611624999990454,
      "v": 41
    },
    {
      "midi": 61,
      "hit": false,
      "t": 138859.15850000127,
      "d": 54.611624999990454,
      "v": 28
    },
    {
      "midi": 65,
      "hit": false,
      "t": 138859.15850000127,
      "d": 54.611624999990454,
      "v": 20
    },
    {
      "midi": 92,
      "hit": false,
      "t": 138931.97399999978,
      "d": 54.611624999990454,
      "v": 40
    },
    {
      "midi": 56,
      "hit": false,
      "t": 138931.97400000127,
      "d": 54.611624999990454,
      "v": 47
    },
    {
      "midi": 68,
      "hit": false,
      "t": 138931.97400000127,
      "d": 54.611624999990454,
      "v": 44
    },
    {
      "midi": 94,
      "hit": false,
      "t": 139004.78949999978,
      "d": 54.611624999990454,
      "v": 35
    },
    {
      "midi": 61,
      "hit": false,
      "t": 139004.78950000126,
      "d": 54.611624999990454,
      "v": 35
    },
    {
      "midi": 65,
      "hit": false,
      "t": 139004.78950000126,
      "d": 54.611624999990454,
      "v": 8
    },
    {
      "midi": 92,
      "hit": false,
      "t": 139077.60499999978,
      "d": 54.611624999990454,
      "v": 37
    },
    {
      "midi": 56,
      "hit": false,
      "t": 139077.60500000126,
      "d": 54.611624999990454,
      "v": 35
    },
    {
      "midi": 68,
      "hit": false,
      "t": 139077.60500000126,
      "d": 54.611624999990454,
      "v": 21
    },
    {
      "midi": 90,
      "hit": false,
      "t": 139150.42049999977,
      "d": 54.611624999990454,
      "v": 40
    },
    {
      "midi": 61,
      "hit": false,
      "t": 139150.42050000126,
      "d": 54.611624999990454,
      "v": 38
    },
    {
      "midi": 65,
      "hit": false,
      "t": 139150.42050000126,
      "d": 54.611624999990454,
      "v": 27
    },
    {
      "midi": 89,
      "hit": false,
      "t": 139223.23599999977,
      "d": 54.611624999990454,
      "v": 56
    },
    {
      "midi": 56,
      "hit": false,
      "t": 139223.23600000126,
      "d": 54.611624999990454,
      "v": 59
    },
    {
      "midi": 68,
      "hit": false,
      "t": 139223.23600000126,
      "d": 54.611624999990454,
      "v": 50
    },
    {
      "midi": 90,
      "hit": false,
      "t": 139296.05149999977,
      "d": 54.611624999990454,
      "v": 55
    },
    {
      "midi": 61,
      "hit": false,
      "t": 139296.05150000125,
      "d": 54.611624999990454,
      "v": 31
    },
    {
      "midi": 65,
      "hit": false,
      "t": 139296.05150000125,
      "d": 54.611624999990454,
      "v": 41
    },
    {
      "midi": 89,
      "hit": false,
      "t": 139368.86699999977,
      "d": 54.611624999990454,
      "v": 50
    },
    {
      "midi": 56,
      "hit": false,
      "t": 139368.86700000125,
      "d": 54.611624999990454,
      "v": 48
    },
    {
      "midi": 68,
      "hit": false,
      "t": 139368.86700000125,
      "d": 54.611624999990454,
      "v": 47
    },
    {
      "midi": 87,
      "hit": false,
      "t": 139441.68249999976,
      "d": 54.611624999990454,
      "v": 47
    },
    {
      "midi": 61,
      "hit": false,
      "t": 139441.68250000125,
      "d": 54.611624999990454,
      "v": 44
    },
    {
      "midi": 65,
      "hit": false,
      "t": 139441.68250000125,
      "d": 54.611624999990454,
      "v": 26
    },
    {
      "midi": 85,
      "hit": false,
      "t": 139514.49799999976,
      "d": 54.611624999990454,
      "v": 55
    },
    {
      "midi": 56,
      "hit": false,
      "t": 139514.49800000124,
      "d": 54.611624999990454,
      "v": 59
    },
    {
      "midi": 68,
      "hit": false,
      "t": 139514.49800000124,
      "d": 54.611624999990454,
      "v": 55
    },
    {
      "midi": 87,
      "hit": false,
      "t": 139587.31349999976,
      "d": 54.611624999990454,
      "v": 55
    },
    {
      "midi": 61,
      "hit": false,
      "t": 139587.31350000124,
      "d": 54.611624999990454,
      "v": 36
    },
    {
      "midi": 65,
      "hit": false,
      "t": 139587.31350000124,
      "d": 54.611624999990454,
      "v": 31
    },
    {
      "midi": 89,
      "hit": false,
      "t": 139660.12899999975,
      "d": 54.611624999990454,
      "v": 47
    },
    {
      "midi": 56,
      "hit": false,
      "t": 139660.12900000124,
      "d": 54.611624999990454,
      "v": 48
    },
    {
      "midi": 68,
      "hit": false,
      "t": 139660.12900000124,
      "d": 54.611624999990454,
      "v": 55
    },
    {
      "midi": 85,
      "hit": false,
      "t": 139732.94449999975,
      "d": 54.611624999990454,
      "v": 47
    },
    {
      "midi": 61,
      "hit": false,
      "t": 139732.94450000123,
      "d": 54.611624999990454,
      "v": 44
    },
    {
      "midi": 65,
      "hit": false,
      "t": 139732.94450000123,
      "d": 54.611624999990454,
      "v": 34
    },
    {
      "midi": 49,
      "hit": false,
      "t": 139805.76000000123,
      "d": 54.611624999990454,
      "v": 40
    },
    {
      "midi": 80,
      "hit": false,
      "t": 139878.57549999974,
      "d": 54.611624999990454,
      "v": 40
    },
    {
      "midi": 61,
      "hit": false,
      "t": 139878.57550000123,
      "d": 54.611624999990454,
      "v": 51
    },
    {
      "midi": 65,
      "hit": false,
      "t": 139878.57550000123,
      "d": 54.611624999990454,
      "v": 34
    },
    {
      "midi": 85,
      "hit": false,
      "t": 139951.39099999974,
      "d": 54.611624999990454,
      "v": 40
    },
    {
      "midi": 56,
      "hit": false,
      "t": 139951.39100000123,
      "d": 54.611624999990454,
      "v": 42
    },
    {
      "midi": 68,
      "hit": false,
      "t": 139951.39100000123,
      "d": 54.611624999990454,
      "v": 40
    },
    {
      "midi": 89,
      "hit": false,
      "t": 140024.20649999974,
      "d": 54.611624999990454,
      "v": 44
    },
    {
      "midi": 61,
      "hit": false,
      "t": 140024.20650000122,
      "d": 54.611624999990454,
      "v": 33
    },
    {
      "midi": 65,
      "hit": false,
      "t": 140024.20650000122,
      "d": 54.611624999990454,
      "v": 15
    },
    {
      "midi": 92,
      "hit": false,
      "t": 140097.02199999974,
      "d": 54.611624999990454,
      "v": 58
    },
    {
      "midi": 68,
      "hit": false,
      "t": 140097.02200000122,
      "d": 72.81549999999697,
      "v": 50
    },
    {
      "midi": 94,
      "hit": false,
      "t": 140169.83749999973,
      "d": 54.611624999990454,
      "v": 50
    },
    {
      "midi": 92,
      "hit": false,
      "t": 140242.65299999973,
      "d": 54.611624999990454,
      "v": 55
    },
    {
      "midi": 73,
      "hit": false,
      "t": 140242.6530000012,
      "d": 72.81549999999697,
      "v": 47
    },
    {
      "midi": 90,
      "hit": false,
      "t": 140315.46849999973,
      "d": 54.611624999990454,
      "v": 50
    },
    {
      "midi": 89,
      "hit": false,
      "t": 140388.28399999972,
      "d": 54.611624999990454,
      "v": 50
    },
    {
      "midi": 77,
      "hit": false,
      "t": 140388.2840000012,
      "d": 72.81549999999697,
      "v": 50
    },
    {
      "midi": 90,
      "hit": false,
      "t": 140461.09949999972,
      "d": 54.611624999990454,
      "v": 47
    },
    {
      "midi": 92,
      "hit": false,
      "t": 140533.91499999972,
      "d": 54.611624999990454,
      "v": 58
    },
    {
      "midi": 80,
      "hit": false,
      "t": 140533.9150000012,
      "d": 72.81549999999697,
      "v": 47
    },
    {
      "midi": 90,
      "hit": false,
      "t": 140606.7304999997,
      "d": 54.611624999990454,
      "v": 50
    },
    {
      "midi": 89,
      "hit": false,
      "t": 140679.5459999997,
      "d": 54.611624999990454,
      "v": 41
    },
    {
      "midi": 85,
      "hit": false,
      "t": 140679.5460000012,
      "d": 72.81549999999697,
      "v": 44
    },
    {
      "midi": 90,
      "hit": false,
      "t": 140752.3614999997,
      "d": 54.611624999990454,
      "v": 47
    },
    {
      "midi": 92,
      "hit": false,
      "t": 140825.1769999997,
      "d": 54.611624999990454,
      "v": 47
    },
    {
      "midi": 85,
      "hit": false,
      "t": 140825.1770000012,
      "d": 72.81549999999697,
      "v": 38
    },
    {
      "midi": 89,
      "hit": false,
      "t": 140897.9924999997,
      "d": 54.611624999990454,
      "v": 39
    },
    {
      "midi": 82,
      "hit": false,
      "t": 140970.80800000118,
      "d": 436.89300000001094,
      "v": 58
    },
    {
      "midi": 85,
      "hit": false,
      "t": 140970.80800000118,
      "d": 436.89300000001094,
      "v": 63
    },
    {
      "midi": 90,
      "hit": false,
      "t": 141043.6234999997,
      "d": 54.611624999990454,
      "v": 58
    },
    {
      "midi": 92,
      "hit": false,
      "t": 141116.4389999997,
      "d": 54.611624999990454,
      "v": 38
    },
    {
      "midi": 90,
      "hit": false,
      "t": 141189.2544999997,
      "d": 54.611624999990454,
      "v": 44
    },
    {
      "midi": 92,
      "hit": false,
      "t": 141262.0699999997,
      "d": 54.611624999990454,
      "v": 50
    },
    {
      "midi": 90,
      "hit": false,
      "t": 141334.88549999968,
      "d": 54.611624999990454,
      "v": 40
    },
    {
      "midi": 89,
      "hit": false,
      "t": 141407.70099999968,
      "d": 54.611624999990454,
      "v": 41
    },
    {
      "midi": 80,
      "hit": false,
      "t": 141407.7010000012,
      "d": 145.63099999999395,
      "v": 44
    },
    {
      "midi": 84,
      "hit": false,
      "t": 141407.7010000012,
      "d": 145.63099999999395,
      "v": 52
    },
    {
      "midi": 90,
      "hit": false,
      "t": 141480.51649999968,
      "d": 54.611624999990454,
      "v": 40
    },
    {
      "midi": 79,
      "hit": false,
      "t": 141553.3320000012,
      "d": 291.2619999999879,
      "v": 39
    },
    {
      "midi": 82,
      "hit": false,
      "t": 141553.3320000012,
      "d": 291.2619999999879,
      "v": 55
    },
    {
      "midi": 88,
      "hit": false,
      "t": 141626.14749999967,
      "d": 54.611624999990454,
      "v": 34
    },
    {
      "midi": 89,
      "hit": false,
      "t": 141698.96299999967,
      "d": 54.611624999990454,
      "v": 34
    },
    {
      "midi": 88,
      "hit": false,
      "t": 141771.77849999967,
      "d": 54.611624999990454,
      "v": 26
    },
    {
      "midi": 80,
      "hit": false,
      "t": 141844.59400000118,
      "d": 291.2619999999879,
      "v": 55
    },
    {
      "midi": 84,
      "hit": false,
      "t": 141844.59400000118,
      "d": 291.2619999999879,
      "v": 59
    },
    {
      "midi": 89,
      "hit": false,
      "t": 141917.40949999966,
      "d": 54.611624999990454,
      "v": 41
    },
    {
      "midi": 91,
      "hit": false,
      "t": 141990.22499999966,
      "d": 54.611624999990454,
      "v": 31
    },
    {
      "midi": 89,
      "hit": false,
      "t": 142063.04049999965,
      "d": 54.611624999990454,
      "v": 36
    },
    {
      "midi": 82,
      "hit": false,
      "t": 142135.85600000116,
      "d": 436.89300000001094,
      "v": 68
    },
    {
      "midi": 85,
      "hit": false,
      "t": 142135.85600000116,
      "d": 436.89300000001094,
      "v": 74
    },
    {
      "midi": 90,
      "hit": false,
      "t": 142208.67149999965,
      "d": 54.611624999990454,
      "v": 63
    },
    {
      "midi": 92,
      "hit": false,
      "t": 142281.48699999964,
      "d": 54.611624999990454,
      "v": 44
    },
    {
      "midi": 90,
      "hit": false,
      "t": 142354.30249999964,
      "d": 54.611624999990454,
      "v": 35
    },
    {
      "midi": 92,
      "hit": false,
      "t": 142427.11799999964,
      "d": 54.611624999990454,
      "v": 47
    },
    {
      "midi": 90,
      "hit": false,
      "t": 142499.93349999964,
      "d": 54.611624999990454,
      "v": 50
    },
    {
      "midi": 89,
      "hit": false,
      "t": 142572.74899999963,
      "d": 54.611624999990454,
      "v": 32
    },
    {
      "midi": 80,
      "hit": false,
      "t": 142572.74900000117,
      "d": 145.63099999999395,
      "v": 47
    },
    {
      "midi": 84,
      "hit": false,
      "t": 142572.74900000117,
      "d": 145.63099999999395,
      "v": 59
    },
    {
      "midi": 90,
      "hit": false,
      "t": 142645.56449999963,
      "d": 54.611624999990454,
      "v": 38
    },
    {
      "midi": 79,
      "hit": false,
      "t": 142718.38000000117,
      "d": 291.2619999999879,
      "v": 52
    },
    {
      "midi": 82,
      "hit": false,
      "t": 142718.38000000117,
      "d": 291.2619999999879,
      "v": 63
    },
    {
      "midi": 88,
      "hit": false,
      "t": 142791.19549999962,
      "d": 54.611624999990454,
      "v": 36
    },
    {
      "midi": 89,
      "hit": false,
      "t": 142864.01099999962,
      "d": 54.611624999990454,
      "v": 29
    },
    {
      "midi": 88,
      "hit": false,
      "t": 142936.82649999962,
      "d": 54.611624999990454,
      "v": 34
    },
    {
      "midi": 80,
      "hit": false,
      "t": 143009.64200000116,
      "d": 291.2619999999879,
      "v": 50
    },
    {
      "midi": 84,
      "hit": false,
      "t": 143009.64200000116,
      "d": 291.2619999999879,
      "v": 52
    },
    {
      "midi": 89,
      "hit": false,
      "t": 143082.4574999996,
      "d": 54.611624999990454,
      "v": 47
    },
    {
      "midi": 91,
      "hit": false,
      "t": 143155.2729999996,
      "d": 54.611624999990454,
      "v": 44
    },
    {
      "midi": 89,
      "hit": false,
      "t": 143228.0884999996,
      "d": 54.611624999990454,
      "v": 39
    },
    {
      "midi": 82,
      "hit": false,
      "t": 143300.90400000114,
      "d": 436.89300000001094,
      "v": 68
    },
    {
      "midi": 85,
      "hit": false,
      "t": 143300.90400000114,
      "d": 436.89300000001094,
      "v": 74
    },
    {
      "midi": 90,
      "hit": false,
      "t": 143373.7194999996,
      "d": 54.611624999990454,
      "v": 63
    },
    {
      "midi": 92,
      "hit": false,
      "t": 143446.5349999996,
      "d": 54.611624999990454,
      "v": 44
    },
    {
      "midi": 90,
      "hit": false,
      "t": 143519.3504999996,
      "d": 54.611624999990454,
      "v": 44
    },
    {
      "midi": 92,
      "hit": false,
      "t": 143592.1659999996,
      "d": 54.611624999990454,
      "v": 44
    },
    {
      "midi": 90,
      "hit": false,
      "t": 143664.9814999996,
      "d": 54.611624999990454,
      "v": 44
    },
    {
      "midi": 89,
      "hit": false,
      "t": 143737.79699999958,
      "d": 54.611624999990454,
      "v": 44
    },
    {
      "midi": 80,
      "hit": false,
      "t": 143737.79700000116,
      "d": 145.63099999999395,
      "v": 55
    },
    {
      "midi": 84,
      "hit": false,
      "t": 143737.79700000116,
      "d": 145.63099999999395,
      "v": 56
    },
    {
      "midi": 91,
      "hit": false,
      "t": 143810.61249999958,
      "d": 54.611624999990454,
      "v": 44
    },
    {
      "midi": 79,
      "hit": false,
      "t": 143883.42800000115,
      "d": 291.2619999999879,
      "v": 56
    },
    {
      "midi": 82,
      "hit": false,
      "t": 143883.42800000115,
      "d": 291.2619999999879,
      "v": 68
    },
    {
      "midi": 88,
      "hit": false,
      "t": 143956.24349999957,
      "d": 54.611624999990454,
      "v": 56
    },
    {
      "midi": 89,
      "hit": false,
      "t": 144029.05899999957,
      "d": 54.611624999990454,
      "v": 39
    },
    {
      "midi": 88,
      "hit": false,
      "t": 144101.87449999957,
      "d": 54.611624999990454,
      "v": 31
    },
    {
      "midi": 77,
      "hit": false,
      "t": 144174.69000000114,
      "d": 291.2619999999879,
      "v": 50
    },
    {
      "midi": 80,
      "hit": false,
      "t": 144174.69000000114,
      "d": 291.2619999999879,
      "v": 68
    },
    {
      "midi": 85,
      "hit": false,
      "t": 144247.50549999956,
      "d": 54.611624999990454,
      "v": 50
    },
    {
      "midi": 87,
      "hit": false,
      "t": 144320.32099999956,
      "d": 54.611624999990454,
      "v": 40
    },
    {
      "midi": 85,
      "hit": false,
      "t": 144393.13649999956,
      "d": 54.611624999990454,
      "v": 40
    },
    {
      "midi": 76,
      "hit": false,
      "t": 144465.95200000113,
      "d": 291.2619999999879,
      "v": 41
    },
    {
      "midi": 79,
      "hit": false,
      "t": 144465.95200000113,
      "d": 291.2619999999879,
      "v": 47
    },
    {
      "midi": 84,
      "hit": false,
      "t": 144538.76749999955,
      "d": 54.611624999990454,
      "v": 52
    },
    {
      "midi": 85,
      "hit": false,
      "t": 144611.58299999955,
      "d": 54.611624999990454,
      "v": 47
    },
    {
      "midi": 84,
      "hit": false,
      "t": 144684.39849999954,
      "d": 54.611624999990454,
      "v": 36
    },
    {
      "midi": 74,
      "hit": false,
      "t": 144757.2140000011,
      "d": 291.2619999999879,
      "v": 36
    },
    {
      "midi": 77,
      "hit": false,
      "t": 144757.2140000011,
      "d": 291.2619999999879,
      "v": 39
    },
    {
      "midi": 83,
      "hit": false,
      "t": 144830.02949999954,
      "d": 54.611624999990454,
      "v": 47
    },
    {
      "midi": 84,
      "hit": false,
      "t": 144902.84499999954,
      "d": 54.611624999990454,
      "v": 52
    },
    {
      "midi": 83,
      "hit": false,
      "t": 144975.66049999953,
      "d": 54.611624999990454,
      "v": 44
    },
    {
      "midi": 73,
      "hit": false,
      "t": 145048.4760000011,
      "d": 291.2619999999879,
      "v": 55
    },
    {
      "midi": 77,
      "hit": false,
      "t": 145048.4760000011,
      "d": 291.2619999999879,
      "v": 47
    },
    {
      "midi": 82,
      "hit": false,
      "t": 145121.29149999953,
      "d": 54.611624999990454,
      "v": 58
    },
    {
      "midi": 84,
      "hit": false,
      "t": 145194.10699999952,
      "d": 54.611624999990454,
      "v": 56
    },
    {
      "midi": 82,
      "hit": false,
      "t": 145266.92249999952,
      "d": 54.611624999990454,
      "v": 55
    },
    {
      "midi": 72,
      "hit": false,
      "t": 145339.7380000011,
      "d": 291.2619999999879,
      "v": 36
    },
    {
      "midi": 77,
      "hit": false,
      "t": 145339.7380000011,
      "d": 291.2619999999879,
      "v": 39
    },
    {
      "midi": 80,
      "hit": false,
      "t": 145412.5534999995,
      "d": 54.611624999990454,
      "v": 38
    },
    {
      "midi": 82,
      "hit": false,
      "t": 145485.3689999995,
      "d": 54.611624999990454,
      "v": 44
    },
    {
      "midi": 80,
      "hit": false,
      "t": 145558.1844999995,
      "d": 54.611624999990454,
      "v": 29
    },
    {
      "midi": 71,
      "hit": false,
      "t": 145631.00000000108,
      "d": 582.5239999999758,
      "v": 47
    },
    {
      "midi": 80,
      "hit": false,
      "t": 145703.8154999995,
      "d": 54.611624999990454,
      "v": 40
    },
    {
      "midi": 82,
      "hit": false,
      "t": 145776.6309999995,
      "d": 54.611624999990454,
      "v": 38
    },
    {
      "midi": 80,
      "hit": false,
      "t": 145849.4464999995,
      "d": 54.611624999990454,
      "v": 44
    },
    {
      "midi": 74,
      "hit": false,
      "t": 145922.26200000106,
      "d": 291.2619999999879,
      "v": 52
    },
    {
      "midi": 79,
      "hit": false,
      "t": 145995.0774999995,
      "d": 54.611624999990454,
      "v": 47
    },
    {
      "midi": 80,
      "hit": false,
      "t": 146067.8929999995,
      "d": 54.611624999990454,
      "v": 44
    },
    {
      "midi": 79,
      "hit": false,
      "t": 146140.70849999948,
      "d": 54.611624999990454,
      "v": 36
    },
    {
      "midi": 60,
      "hit": false,
      "t": 146213.52400000105,
      "d": 291.2619999999879,
      "v": 55
    },
    {
      "midi": 72,
      "hit": false,
      "t": 146213.52400000105,
      "d": 582.5239999999758,
      "v": 56
    },
    {
      "midi": 77,
      "hit": false,
      "t": 146286.33949999948,
      "d": 54.611624999990454,
      "v": 52
    },
    {
      "midi": 79,
      "hit": false,
      "t": 146359.15499999947,
      "d": 54.611624999990454,
      "v": 59
    },
    {
      "midi": 77,
      "hit": false,
      "t": 146431.97049999947,
      "d": 54.611624999990454,
      "v": 47
    },
    {
      "midi": 67,
      "hit": false,
      "t": 146504.78600000104,
      "d": 291.2619999999879,
      "v": 39
    },
    {
      "midi": 76,
      "hit": false,
      "t": 146577.60149999947,
      "d": 54.611624999990454,
      "v": 47
    },
    {
      "midi": 77,
      "hit": false,
      "t": 146650.41699999946,
      "d": 54.611624999990454,
      "v": 50
    },
    {
      "midi": 76,
      "hit": false,
      "t": 146723.23249999946,
      "d": 54.611624999990454,
      "v": 47
    },
    {
      "midi": 46,
      "hit": false,
      "t": 146796.04800000103,
      "d": 436.89300000001094,
      "v": 54
    },
    {
      "midi": 49,
      "hit": false,
      "t": 146796.04800000103,
      "d": 436.89300000001094,
      "v": 74
    },
    {
      "midi": 54,
      "hit": false,
      "t": 146796.04800000103,
      "d": 436.89300000001094,
      "v": 74
    },
    {
      "midi": 61,
      "hit": false,
      "t": 146868.86349999945,
      "d": 72.81549999999697,
      "v": 31
    },
    {
      "midi": 73,
      "hit": false,
      "t": 146941.67899999945,
      "d": 72.81549999999697,
      "v": 47
    },
    {
      "midi": 61,
      "hit": false,
      "t": 147014.49449999945,
      "d": 72.81549999999697,
      "v": 44
    },
    {
      "midi": 73,
      "hit": false,
      "t": 147087.30999999944,
      "d": 72.81549999999697,
      "v": 40
    },
    {
      "midi": 61,
      "hit": false,
      "t": 147160.12549999944,
      "d": 72.81549999999697,
      "v": 39
    },
    {
      "midi": 73,
      "hit": false,
      "t": 147232.94099999944,
      "d": 72.81549999999697,
      "v": 35
    },
    {
      "midi": 44,
      "hit": false,
      "t": 147232.94100000104,
      "d": 145.63099999999395,
      "v": 40
    },
    {
      "midi": 48,
      "hit": false,
      "t": 147232.94100000104,
      "d": 145.63099999999395,
      "v": 56
    },
    {
      "midi": 53,
      "hit": false,
      "t": 147232.94100000104,
      "d": 145.63099999999395,
      "v": 54
    },
    {
      "midi": 61,
      "hit": false,
      "t": 147305.75649999944,
      "d": 72.81549999999697,
      "v": 24
    },
    {
      "midi": 43,
      "hit": false,
      "t": 147378.57200000103,
      "d": 291.2619999999879,
      "v": 56
    },
    {
      "midi": 46,
      "hit": false,
      "t": 147378.57200000103,
      "d": 291.2619999999879,
      "v": 62
    },
    {
      "midi": 52,
      "hit": false,
      "t": 147378.57200000103,
      "d": 291.2619999999879,
      "v": 56
    },
    {
      "midi": 61,
      "hit": false,
      "t": 147451.38749999943,
      "d": 72.81549999999697,
      "v": 39
    },
    {
      "midi": 73,
      "hit": false,
      "t": 147524.20299999943,
      "d": 72.81549999999697,
      "v": 50
    },
    {
      "midi": 72,
      "hit": false,
      "t": 147597.01849999942,
      "d": 72.81549999999697,
      "v": 36
    },
    {
      "midi": 70,
      "hit": false,
      "t": 147669.83399999942,
      "d": 72.81549999999697,
      "v": 50
    },
    {
      "midi": 44,
      "hit": false,
      "t": 147669.83400000102,
      "d": 291.2619999999879,
      "v": 50
    },
    {
      "midi": 48,
      "hit": false,
      "t": 147669.83400000102,
      "d": 291.2619999999879,
      "v": 59
    },
    {
      "midi": 53,
      "hit": false,
      "t": 147669.83400000102,
      "d": 291.2619999999879,
      "v": 56
    },
    {
      "midi": 68,
      "hit": false,
      "t": 147742.64949999942,
      "d": 72.81549999999697,
      "v": 44
    },
    {
      "midi": 67,
      "hit": false,
      "t": 147815.4649999994,
      "d": 72.81549999999697,
      "v": 52
    },
    {
      "midi": 65,
      "hit": false,
      "t": 147888.2804999994,
      "d": 72.81549999999697,
      "v": 44
    },
    {
      "midi": 46,
      "hit": false,
      "t": 147961.096000001,
      "d": 436.89300000001094,
      "v": 72
    },
    {
      "midi": 49,
      "hit": false,
      "t": 147961.096000001,
      "d": 436.89300000001094,
      "v": 80
    },
    {
      "midi": 54,
      "hit": false,
      "t": 147961.096000001,
      "d": 436.89300000001094,
      "v": 80
    },
    {
      "midi": 73,
      "hit": false,
      "t": 148033.9114999994,
      "d": 72.81549999999697,
      "v": 63
    },
    {
      "midi": 85,
      "hit": false,
      "t": 148106.7269999994,
      "d": 72.81549999999697,
      "v": 58
    },
    {
      "midi": 73,
      "hit": false,
      "t": 148179.5424999994,
      "d": 72.81549999999697,
      "v": 47
    },
    {
      "midi": 85,
      "hit": false,
      "t": 148252.3579999994,
      "d": 72.81549999999697,
      "v": 40
    },
    {
      "midi": 73,
      "hit": false,
      "t": 148325.1734999994,
      "d": 72.81549999999697,
      "v": 19
    },
    {
      "midi": 85,
      "hit": false,
      "t": 148397.9889999994,
      "d": 72.81549999999697,
      "v": 44
    },
    {
      "midi": 44,
      "hit": false,
      "t": 148397.98900000102,
      "d": 145.63099999999395,
      "v": 44
    },
    {
      "midi": 48,
      "hit": false,
      "t": 148397.98900000102,
      "d": 145.63099999999395,
      "v": 44
    },
    {
      "midi": 53,
      "hit": false,
      "t": 148397.98900000102,
      "d": 145.63099999999395,
      "v": 56
    },
    {
      "midi": 73,
      "hit": false,
      "t": 148470.8044999994,
      "d": 72.81549999999697,
      "v": 22
    },
    {
      "midi": 43,
      "hit": false,
      "t": 148543.620000001,
      "d": 291.2619999999879,
      "v": 56
    },
    {
      "midi": 46,
      "hit": false,
      "t": 148543.620000001,
      "d": 291.2619999999879,
      "v": 59
    },
    {
      "midi": 52,
      "hit": false,
      "t": 148543.620000001,
      "d": 291.2619999999879,
      "v": 62
    },
    {
      "midi": 73,
      "hit": false,
      "t": 148616.43549999938,
      "d": 72.81549999999697,
      "v": 47
    },
    {
      "midi": 85,
      "hit": false,
      "t": 148689.25099999938,
      "d": 72.81549999999697,
      "v": 58
    },
    {
      "midi": 84,
      "hit": false,
      "t": 148762.06649999938,
      "d": 72.81549999999697,
      "v": 52
    },
    {
      "midi": 82,
      "hit": false,
      "t": 148834.88199999937,
      "d": 72.81549999999697,
      "v": 29
    },
    {
      "midi": 44,
      "hit": false,
      "t": 148834.882000001,
      "d": 291.2619999999879,
      "v": 55
    },
    {
      "midi": 48,
      "hit": false,
      "t": 148834.882000001,
      "d": 291.2619999999879,
      "v": 52
    },
    {
      "midi": 53,
      "hit": false,
      "t": 148834.882000001,
      "d": 291.2619999999879,
      "v": 60
    },
    {
      "midi": 80,
      "hit": false,
      "t": 148907.69749999937,
      "d": 72.81549999999697,
      "v": 29
    },
    {
      "midi": 79,
      "hit": false,
      "t": 148980.51299999937,
      "d": 72.81549999999697,
      "v": 36
    },
    {
      "midi": 77,
      "hit": false,
      "t": 149053.32849999936,
      "d": 72.81549999999697,
      "v": 21
    },
    {
      "midi": 46,
      "hit": false,
      "t": 149126.144000001,
      "d": 436.89300000001094,
      "v": 72
    },
    {
      "midi": 49,
      "hit": false,
      "t": 149126.144000001,
      "d": 436.89300000001094,
      "v": 86
    },
    {
      "midi": 54,
      "hit": false,
      "t": 149126.144000001,
      "d": 436.89300000001094,
      "v": 80
    },
    {
      "midi": 61,
      "hit": false,
      "t": 149198.95949999936,
      "d": 72.81549999999697,
      "v": 54
    },
    {
      "midi": 73,
      "hit": false,
      "t": 149271.77499999935,
      "d": 72.81549999999697,
      "v": 50
    },
    {
      "midi": 61,
      "hit": false,
      "t": 149344.59049999935,
      "d": 72.81549999999697,
      "v": 36
    },
    {
      "midi": 73,
      "hit": false,
      "t": 149417.40599999935,
      "d": 72.81549999999697,
      "v": 32
    },
    {
      "midi": 61,
      "hit": false,
      "t": 149490.22149999934,
      "d": 72.81549999999697,
      "v": 16
    },
    {
      "midi": 73,
      "hit": false,
      "t": 149563.03699999934,
      "d": 72.81549999999697,
      "v": 27
    },
    {
      "midi": 44,
      "hit": false,
      "t": 149563.037000001,
      "d": 145.63099999999395,
      "v": 47
    },
    {
      "midi": 48,
      "hit": false,
      "t": 149563.037000001,
      "d": 145.63099999999395,
      "v": 39
    },
    {
      "midi": 53,
      "hit": false,
      "t": 149563.037000001,
      "d": 145.63099999999395,
      "v": 51
    },
    {
      "midi": 61,
      "hit": false,
      "t": 149635.85249999934,
      "d": 72.81549999999697,
      "v": 8
    },
    {
      "midi": 43,
      "hit": false,
      "t": 149708.668000001,
      "d": 291.2619999999879,
      "v": 62
    },
    {
      "midi": 46,
      "hit": false,
      "t": 149708.668000001,
      "d": 291.2619999999879,
      "v": 54
    },
    {
      "midi": 52,
      "hit": false,
      "t": 149708.668000001,
      "d": 291.2619999999879,
      "v": 56
    },
    {
      "midi": 73,
      "hit": false,
      "t": 149781.48349999933,
      "d": 72.81549999999697,
      "v": 50
    },
    {
      "midi": 61,
      "hit": false,
      "t": 149854.29899999933,
      "d": 72.81549999999697,
      "v": 39
    },
    {
      "midi": 73,
      "hit": false,
      "t": 149927.11449999933,
      "d": 72.81549999999697,
      "v": 29
    },
    {
      "midi": 41,
      "hit": false,
      "t": 149999.93000000098,
      "d": 291.2619999999879,
      "v": 63
    },
    {
      "midi": 44,
      "hit": false,
      "t": 149999.93000000098,
      "d": 291.2619999999879,
      "v": 68
    },
    {
      "midi": 49,
      "hit": false,
      "t": 149999.93000000098,
      "d": 291.2619999999879,
      "v": 68
    },
    {
      "midi": 85,
      "hit": false,
      "t": 150072.74549999932,
      "d": 72.81549999999697,
      "v": 58
    },
    {
      "midi": 73,
      "hit": false,
      "t": 150145.56099999932,
      "d": 72.81549999999697,
      "v": 27
    },
    {
      "midi": 85,
      "hit": false,
      "t": 150218.3764999993,
      "d": 72.81549999999697,
      "v": 29
    },
    {
      "midi": 40,
      "hit": false,
      "t": 150291.19200000097,
      "d": 291.2619999999879,
      "v": 67
    },
    {
      "midi": 43,
      "hit": false,
      "t": 150291.19200000097,
      "d": 291.2619999999879,
      "v": 67
    },
    {
      "midi": 48,
      "hit": false,
      "t": 150291.19200000097,
      "d": 291.2619999999879,
      "v": 56
    },
    {
      "midi": 84,
      "hit": false,
      "t": 150364.0074999993,
      "d": 72.81549999999697,
      "v": 59
    },
    {
      "midi": 72,
      "hit": false,
      "t": 150436.8229999993,
      "d": 72.81549999999697,
      "v": 23
    },
    {
      "midi": 84,
      "hit": false,
      "t": 150509.6384999993,
      "d": 72.81549999999697,
      "v": 16
    },
    {
      "midi": 38,
      "hit": false,
      "t": 150582.45400000096,
      "d": 291.2619999999879,
      "v": 52
    },
    {
      "midi": 41,
      "hit": false,
      "t": 150582.45400000096,
      "d": 291.2619999999879,
      "v": 51
    },
    {
      "midi": 44,
      "hit": false,
      "t": 150582.45400000096,
      "d": 291.2619999999879,
      "v": 50
    },
    {
      "midi": 47,
      "hit": false,
      "t": 150582.45400000096,
      "d": 291.2619999999879,
      "v": 50
    },
    {
      "midi": 83,
      "hit": false,
      "t": 150655.2694999993,
      "d": 72.81549999999697,
      "v": 59
    },
    {
      "midi": 71,
      "hit": false,
      "t": 150728.0849999993,
      "d": 72.81549999999697,
      "v": 39
    },
    {
      "midi": 83,
      "hit": false,
      "t": 150800.9004999993,
      "d": 72.81549999999697,
      "v": 41
    },
    {
      "midi": 40,
      "hit": false,
      "t": 150873.71600000095,
      "d": 291.2619999999879,
      "v": 56
    },
    {
      "midi": 43,
      "hit": false,
      "t": 150873.71600000095,
      "d": 291.2619999999879,
      "v": 56
    },
    {
      "midi": 46,
      "hit": false,
      "t": 150873.71600000095,
      "d": 291.2619999999879,
      "v": 59
    },
    {
      "midi": 82,
      "hit": false,
      "t": 150946.53149999928,
      "d": 72.81549999999697,
      "v": 63
    },
    {
      "midi": 70,
      "hit": false,
      "t": 151019.34699999928,
      "d": 72.81549999999697,
      "v": 47
    },
    {
      "midi": 82,
      "hit": false,
      "t": 151092.16249999928,
      "d": 72.81549999999697,
      "v": 55
    },
    {
      "midi": 41,
      "hit": false,
      "t": 151164.97800000093,
      "d": 291.2619999999879,
      "v": 60
    },
    {
      "midi": 44,
      "hit": false,
      "t": 151164.97800000093,
      "d": 291.2619999999879,
      "v": 50
    },
    {
      "midi": 80,
      "hit": false,
      "t": 151237.79349999927,
      "d": 72.81549999999697,
      "v": 58
    },
    {
      "midi": 68,
      "hit": false,
      "t": 151310.60899999927,
      "d": 72.81549999999697,
      "v": 47
    },
    {
      "midi": 72,
      "hit": false,
      "t": 151310.60899999927,
      "d": 72.81549999999697,
      "v": 47
    },
    {
      "midi": 80,
      "hit": false,
      "t": 151383.42449999927,
      "d": 72.81549999999697,
      "v": 68
    },
    {
      "midi": 44,
      "hit": false,
      "t": 151456.24000000092,
      "d": 291.2619999999879,
      "v": 58
    },
    {
      "midi": 35,
      "hit": false,
      "t": 151456.24000000092,
      "d": 582.5239999999758,
      "v": 47
    },
    {
      "midi": 80,
      "hit": false,
      "t": 151529.05549999926,
      "d": 72.81549999999697,
      "v": 68
    },
    {
      "midi": 68,
      "hit": false,
      "t": 151601.87099999926,
      "d": 72.81549999999697,
      "v": 55
    },
    {
      "midi": 74,
      "hit": false,
      "t": 151601.87099999926,
      "d": 72.81549999999697,
      "v": 47
    },
    {
      "midi": 80,
      "hit": false,
      "t": 151674.68649999925,
      "d": 72.81549999999697,
      "v": 63
    },
    {
      "midi": 43,
      "hit": false,
      "t": 151747.5020000009,
      "d": 291.2619999999879,
      "v": 59
    },
    {
      "midi": 79,
      "hit": false,
      "t": 151820.31749999925,
      "d": 72.81549999999697,
      "v": 67
    },
    {
      "midi": 67,
      "hit": false,
      "t": 151893.13299999924,
      "d": 72.81549999999697,
      "v": 47
    },
    {
      "midi": 74,
      "hit": false,
      "t": 151893.13299999924,
      "d": 72.81549999999697,
      "v": 59
    },
    {
      "midi": 79,
      "hit": false,
      "t": 151965.94849999924,
      "d": 72.81549999999697,
      "v": 52
    },
    {
      "midi": 41,
      "hit": false,
      "t": 152038.7640000009,
      "d": 291.2619999999879,
      "v": 45
    },
    {
      "midi": 36,
      "hit": false,
      "t": 152038.7640000009,
      "d": 582.5239999999758,
      "v": 50
    },
    {
      "midi": 77,
      "hit": false,
      "t": 152111.57949999924,
      "d": 72.81549999999697,
      "v": 67
    },
    {
      "midi": 65,
      "hit": false,
      "t": 152184.39499999923,
      "d": 72.81549999999697,
      "v": 52
    },
    {
      "midi": 68,
      "hit": false,
      "t": 152184.39499999923,
      "d": 72.81549999999697,
      "v": 63
    },
    {
      "midi": 77,
      "hit": false,
      "t": 152257.21049999923,
      "d": 72.81549999999697,
      "v": 62
    },
    {
      "midi": 40,
      "hit": false,
      "t": 152330.0260000009,
      "d": 291.2619999999879,
      "v": 56
    },
    {
      "midi": 76,
      "hit": false,
      "t": 152402.84149999922,
      "d": 72.81549999999697,
      "v": 75
    },
    {
      "midi": 64,
      "hit": false,
      "t": 152475.65699999922,
      "d": 72.81549999999697,
      "v": 58
    },
    {
      "midi": 67,
      "hit": false,
      "t": 152475.65699999922,
      "d": 72.81549999999697,
      "v": 70
    },
    {
      "midi": 76,
      "hit": false,
      "t": 152548.47249999922,
      "d": 72.81549999999697,
      "v": 62
    },
    {
      "midi": 65,
      "hit": false,
      "t": 152621.28799999921,
      "d": 72.81549999999697,
      "v": 50
    },
    {
      "midi": 68,
      "hit": false,
      "t": 152621.28799999921,
      "d": 72.81549999999697,
      "v": 55
    },
    {
      "midi": 77,
      "hit": false,
      "t": 152621.28799999921,
      "d": 72.81549999999697,
      "v": 67
    },
    {
      "midi": 41,
      "hit": false,
      "t": 152621.28800000087,
      "d": 145.63099999999395,
      "v": 63
    },
    {
      "midi": 44,
      "hit": false,
      "t": 152621.28800000087,
      "d": 145.63099999999395,
      "v": 68
    },
    {
      "midi": 48,
      "hit": false,
      "t": 152621.28800000087,
      "d": 145.63099999999395,
      "v": 67
    },
    {
      "midi": 53,
      "hit": false,
      "t": 152621.28800000087,
      "d": 145.63099999999395,
      "v": 79
    },
    {
      "midi": 60,
      "hit": false,
      "t": 152694.1034999992,
      "d": 72.81549999999697,
      "v": 52
    },
    {
      "midi": 65,
      "hit": false,
      "t": 152766.9189999992,
      "d": 72.81549999999697,
      "v": 52
    },
    {
      "midi": 68,
      "hit": false,
      "t": 152839.7344999992,
      "d": 72.81549999999697,
      "v": 50
    },
    {
      "midi": 72,
      "hit": false,
      "t": 152912.5499999992,
      "d": 72.81549999999697,
      "v": 59
    },
    {
      "midi": 73,
      "hit": false,
      "t": 152985.3654999992,
      "d": 72.81549999999697,
      "v": 55
    },
    {
      "midi": 48,
      "hit": false,
      "t": 152985.36550000086,
      "d": 72.81549999999697,
      "v": 44
    },
    {
      "midi": 72,
      "hit": false,
      "t": 153058.1809999992,
      "d": 72.81549999999697,
      "v": 52
    },
    {
      "midi": 53,
      "hit": false,
      "t": 153058.18100000086,
      "d": 72.81549999999697,
      "v": 43
    },
    {
      "midi": 70,
      "hit": false,
      "t": 153130.9964999992,
      "d": 72.81549999999697,
      "v": 50
    },
    {
      "midi": 56,
      "hit": false,
      "t": 153130.99650000085,
      "d": 72.81549999999697,
      "v": 54
    },
    {
      "midi": 68,
      "hit": false,
      "t": 153203.8119999992,
      "d": 72.81549999999697,
      "v": 55
    },
    {
      "midi": 60,
      "hit": false,
      "t": 153203.81200000085,
      "d": 72.81549999999697,
      "v": 47
    },
    {
      "midi": 70,
      "hit": false,
      "t": 153276.6274999992,
      "d": 72.81549999999697,
      "v": 47
    },
    {
      "midi": 61,
      "hit": false,
      "t": 153276.62750000085,
      "d": 72.81549999999697,
      "v": 39
    },
    {
      "midi": 68,
      "hit": false,
      "t": 153349.44299999918,
      "d": 72.81549999999697,
      "v": 47
    },
    {
      "midi": 60,
      "hit": false,
      "t": 153349.44300000084,
      "d": 72.81549999999697,
      "v": 39
    },
    {
      "midi": 67,
      "hit": false,
      "t": 153422.25849999918,
      "d": 72.81549999999697,
      "v": 50
    },
    {
      "midi": 58,
      "hit": false,
      "t": 153422.25850000084,
      "d": 72.81549999999697,
      "v": 40
    },
    {
      "midi": 65,
      "hit": false,
      "t": 153495.07399999918,
      "d": 72.81549999999697,
      "v": 56
    },
    {
      "midi": 56,
      "hit": false,
      "t": 153495.07400000084,
      "d": 72.81549999999697,
      "v": 54
    },
    {
      "midi": 63,
      "hit": false,
      "t": 153567.88949999918,
      "d": 72.81549999999697,
      "v": 50
    },
    {
      "midi": 55,
      "hit": false,
      "t": 153567.88950000083,
      "d": 72.81549999999697,
      "v": 39
    },
    {
      "midi": 61,
      "hit": false,
      "t": 153640.70499999917,
      "d": 72.81549999999697,
      "v": 44
    },
    {
      "midi": 53,
      "hit": false,
      "t": 153640.70500000083,
      "d": 72.81549999999697,
      "v": 51
    },
    {
      "midi": 60,
      "hit": false,
      "t": 153713.52049999917,
      "d": 72.81549999999697,
      "v": 47
    },
    {
      "midi": 51,
      "hit": false,
      "t": 153713.52050000083,
      "d": 72.81549999999697,
      "v": 50
    },
    {
      "midi": 58,
      "hit": false,
      "t": 153786.33599999917,
      "d": 72.81549999999697,
      "v": 55
    },
    {
      "midi": 49,
      "hit": false,
      "t": 153786.33600000083,
      "d": 72.81549999999697,
      "v": 47
    },
    {
      "midi": 56,
      "hit": false,
      "t": 153859.15149999916,
      "d": 72.81549999999697,
      "v": 62
    },
    {
      "midi": 48,
      "hit": false,
      "t": 153859.15150000082,
      "d": 72.81549999999697,
      "v": 41
    },
    {
      "midi": 55,
      "hit": false,
      "t": 153931.96699999916,
      "d": 72.81549999999697,
      "v": 50
    },
    {
      "midi": 46,
      "hit": false,
      "t": 153931.96700000082,
      "d": 72.81549999999697,
      "v": 42
    },
    {
      "midi": 53,
      "hit": false,
      "t": 154004.78249999916,
      "d": 72.81549999999697,
      "v": 60
    },
    {
      "midi": 44,
      "hit": false,
      "t": 154004.78250000082,
      "d": 72.81549999999697,
      "v": 47
    },
    {
      "midi": 52,
      "hit": false,
      "t": 154077.59799999915,
      "d": 72.81549999999697,
      "v": 56
    },
    {
      "midi": 43,
      "hit": false,
      "t": 154077.5980000008,
      "d": 72.81549999999697,
      "v": 59
    },
    {
      "midi": 44,
      "hit": false,
      "t": 154150.4135000008,
      "d": 72.81549999999697,
      "v": 58
    },
    {
      "midi": 48,
      "hit": false,
      "t": 154223.22899999915,
      "d": 72.81549999999697,
      "v": 62
    },
    {
      "midi": 52,
      "hit": false,
      "t": 154223.22899999915,
      "d": 72.81549999999697,
      "v": 70
    },
    {
      "midi": 55,
      "hit": false,
      "t": 154223.22899999915,
      "d": 72.81549999999697,
      "v": 59
    },
    {
      "midi": 58,
      "hit": false,
      "t": 154223.22899999915,
      "d": 72.81549999999697,
      "v": 63
    },
    {
      "midi": 60,
      "hit": false,
      "t": 154223.22899999915,
      "d": 72.81549999999697,
      "v": 67
    },
    {
      "midi": 46,
      "hit": false,
      "t": 154223.2290000008,
      "d": 72.81549999999697,
      "v": 54
    },
    {
      "midi": 44,
      "hit": false,
      "t": 154296.0445000008,
      "d": 72.81549999999697,
      "v": 50
    },
    {
      "midi": 48,
      "hit": false,
      "t": 154368.85999999914,
      "d": 72.81549999999697,
      "v": 44
    },
    {
      "midi": 52,
      "hit": false,
      "t": 154368.85999999914,
      "d": 72.81549999999697,
      "v": 59
    },
    {
      "midi": 58,
      "hit": false,
      "t": 154368.85999999914,
      "d": 72.81549999999697,
      "v": 55
    },
    {
      "midi": 60,
      "hit": false,
      "t": 154368.85999999914,
      "d": 72.81549999999697,
      "v": 52
    },
    {
      "midi": 43,
      "hit": false,
      "t": 154368.8600000008,
      "d": 72.81549999999697,
      "v": 52
    },
    {
      "midi": 41,
      "hit": false,
      "t": 154441.6755000008,
      "d": 72.81549999999697,
      "v": 48
    },
    {
      "midi": 48,
      "hit": false,
      "t": 154514.49099999914,
      "d": 72.81549999999697,
      "v": 44
    },
    {
      "midi": 52,
      "hit": false,
      "t": 154514.49099999914,
      "d": 72.81549999999697,
      "v": 62
    },
    {
      "midi": 58,
      "hit": false,
      "t": 154514.49099999914,
      "d": 72.81549999999697,
      "v": 58
    },
    {
      "midi": 60,
      "hit": false,
      "t": 154514.49099999914,
      "d": 72.81549999999697,
      "v": 52
    },
    {
      "midi": 40,
      "hit": false,
      "t": 154514.4910000008,
      "d": 72.81549999999697,
      "v": 56
    },
    {
      "midi": 38,
      "hit": false,
      "t": 154587.3065000008,
      "d": 72.81549999999697,
      "v": 41
    },
    {
      "midi": 48,
      "hit": false,
      "t": 154660.12199999913,
      "d": 72.81549999999697,
      "v": 41
    },
    {
      "midi": 52,
      "hit": false,
      "t": 154660.12199999913,
      "d": 72.81549999999697,
      "v": 59
    },
    {
      "midi": 58,
      "hit": false,
      "t": 154660.12199999913,
      "d": 72.81549999999697,
      "v": 55
    },
    {
      "midi": 60,
      "hit": false,
      "t": 154660.12199999913,
      "d": 72.81549999999697,
      "v": 52
    },
    {
      "midi": 36,
      "hit": false,
      "t": 154660.1220000008,
      "d": 72.81549999999697,
      "v": 36
    },
    {
      "midi": 34,
      "hit": false,
      "t": 154732.9375000008,
      "d": 72.81549999999697,
      "v": 51
    },
    {
      "midi": 48,
      "hit": false,
      "t": 154805.75299999912,
      "d": 72.81549999999697,
      "v": 50
    },
    {
      "midi": 52,
      "hit": false,
      "t": 154805.75299999912,
      "d": 72.81549999999697,
      "v": 62
    },
    {
      "midi": 58,
      "hit": false,
      "t": 154805.75299999912,
      "d": 72.81549999999697,
      "v": 63
    },
    {
      "midi": 60,
      "hit": false,
      "t": 154805.75299999912,
      "d": 72.81549999999697,
      "v": 50
    },
    {
      "midi": 32,
      "hit": false,
      "t": 154805.75300000078,
      "d": 72.81549999999697,
      "v": 47
    },
    {
      "midi": 31,
      "hit": false,
      "t": 154878.56850000078,
      "d": 72.81549999999697,
      "v": 56
    },
    {
      "midi": 48,
      "hit": false,
      "t": 154951.38399999912,
      "d": 72.81549999999697,
      "v": 70
    },
    {
      "midi": 53,
      "hit": false,
      "t": 154951.38399999912,
      "d": 72.81549999999697,
      "v": 74
    },
    {
      "midi": 56,
      "hit": false,
      "t": 154951.38399999912,
      "d": 72.81549999999697,
      "v": 78
    },
    {
      "midi": 60,
      "hit": false,
      "t": 154951.38399999912,
      "d": 72.81549999999697,
      "v": 70
    },
    {
      "midi": 29,
      "hit": false,
      "t": 154951.38400000078,
      "d": 145.63099999999395,
      "v": 60
    },
    {
      "midi": 32,
      "hit": false,
      "t": 154951.38400000078,
      "d": 145.63099999999395,
      "v": 50
    },
    {
      "midi": 36,
      "hit": false,
      "t": 154951.38400000078,
      "d": 145.63099999999395,
      "v": 47
    },
    {
      "midi": 41,
      "hit": false,
      "t": 154951.38400000078,
      "d": 145.63099999999395,
      "v": 60
    },
    {
      "midi": 72,
      "hit": false,
      "t": 155024.19949999911,
      "d": 72.81549999999697,
      "v": 56
    },
    {
      "midi": 77,
      "hit": false,
      "t": 155097.0149999991,
      "d": 72.81549999999697,
      "v": 50
    },
    {
      "midi": 80,
      "hit": false,
      "t": 155169.8304999991,
      "d": 72.81549999999697,
      "v": 63
    },
    {
      "midi": 84,
      "hit": false,
      "t": 155242.6459999991,
      "d": 72.81549999999697,
      "v": 62
    },
    {
      "midi": 85,
      "hit": false,
      "t": 155315.4614999991,
      "d": 72.81549999999697,
      "v": 58
    },
    {
      "midi": 60,
      "hit": false,
      "t": 155315.46150000076,
      "d": 72.81549999999697,
      "v": 47
    },
    {
      "midi": 84,
      "hit": false,
      "t": 155388.2769999991,
      "d": 72.81549999999697,
      "v": 56
    },
    {
      "midi": 65,
      "hit": false,
      "t": 155388.27700000076,
      "d": 72.81549999999697,
      "v": 52
    },
    {
      "midi": 82,
      "hit": false,
      "t": 155461.0924999991,
      "d": 72.81549999999697,
      "v": 38
    },
    {
      "midi": 68,
      "hit": false,
      "t": 155461.09250000076,
      "d": 72.81549999999697,
      "v": 63
    },
    {
      "midi": 80,
      "hit": false,
      "t": 155533.9079999991,
      "d": 72.81549999999697,
      "v": 50
    },
    {
      "midi": 72,
      "hit": false,
      "t": 155533.90800000075,
      "d": 72.81549999999697,
      "v": 62
    },
    {
      "midi": 82,
      "hit": false,
      "t": 155606.7234999991,
      "d": 72.81549999999697,
      "v": 55
    },
    {
      "midi": 73,
      "hit": false,
      "t": 155606.72350000075,
      "d": 72.81549999999697,
      "v": 58
    },
    {
      "midi": 80,
      "hit": false,
      "t": 155679.5389999991,
      "d": 72.81549999999697,
      "v": 50
    },
    {
      "midi": 72,
      "hit": false,
      "t": 155679.53900000075,
      "d": 72.81549999999697,
      "v": 50
    },
    {
      "midi": 79,
      "hit": false,
      "t": 155752.35449999908,
      "d": 72.81549999999697,
      "v": 47
    },
    {
      "midi": 70,
      "hit": false,
      "t": 155752.35450000074,
      "d": 72.81549999999697,
      "v": 50
    },
    {
      "midi": 77,
      "hit": false,
      "t": 155825.16999999908,
      "d": 72.81549999999697,
      "v": 56
    },
    {
      "midi": 68,
      "hit": false,
      "t": 155825.17000000074,
      "d": 72.81549999999697,
      "v": 55
    },
    {
      "midi": 75,
      "hit": false,
      "t": 155897.98549999908,
      "d": 72.81549999999697,
      "v": 38
    },
    {
      "midi": 67,
      "hit": false,
      "t": 155897.98550000074,
      "d": 72.81549999999697,
      "v": 59
    },
    {
      "midi": 73,
      "hit": false,
      "t": 155970.80099999908,
      "d": 72.81549999999697,
      "v": 38
    },
    {
      "midi": 65,
      "hit": false,
      "t": 155970.80100000073,
      "d": 72.81549999999697,
      "v": 56
    },
    {
      "midi": 72,
      "hit": false,
      "t": 156043.61649999907,
      "d": 72.81549999999697,
      "v": 50
    },
    {
      "midi": 63,
      "hit": false,
      "t": 156043.61650000073,
      "d": 72.81549999999697,
      "v": 47
    },
    {
      "midi": 70,
      "hit": false,
      "t": 156116.43199999907,
      "d": 72.81549999999697,
      "v": 55
    },
    {
      "midi": 61,
      "hit": false,
      "t": 156116.43200000073,
      "d": 72.81549999999697,
      "v": 51
    },
    {
      "midi": 68,
      "hit": false,
      "t": 156189.24749999907,
      "d": 72.81549999999697,
      "v": 44
    },
    {
      "midi": 60,
      "hit": false,
      "t": 156189.24750000073,
      "d": 72.81549999999697,
      "v": 47
    },
    {
      "midi": 67,
      "hit": false,
      "t": 156262.06299999906,
      "d": 72.81549999999697,
      "v": 44
    },
    {
      "midi": 58,
      "hit": false,
      "t": 156262.06300000072,
      "d": 72.81549999999697,
      "v": 55
    },
    {
      "midi": 65,
      "hit": false,
      "t": 156334.87849999906,
      "d": 72.81549999999697,
      "v": 50
    },
    {
      "midi": 56,
      "hit": false,
      "t": 156334.87850000072,
      "d": 72.81549999999697,
      "v": 54
    },
    {
      "midi": 64,
      "hit": false,
      "t": 156407.69399999906,
      "d": 72.81549999999697,
      "v": 55
    },
    {
      "midi": 55,
      "hit": false,
      "t": 156407.69400000072,
      "d": 72.81549999999697,
      "v": 59
    },
    {
      "midi": 56,
      "hit": false,
      "t": 156480.5095000007,
      "d": 72.81549999999697,
      "v": 54
    },
    {
      "midi": 60,
      "hit": false,
      "t": 156553.32499999905,
      "d": 72.81549999999697,
      "v": 52
    },
    {
      "midi": 64,
      "hit": false,
      "t": 156553.32499999905,
      "d": 72.81549999999697,
      "v": 55
    },
    {
      "midi": 67,
      "hit": false,
      "t": 156553.32499999905,
      "d": 72.81549999999697,
      "v": 62
    },
    {
      "midi": 72,
      "hit": false,
      "t": 156553.32499999905,
      "d": 72.81549999999697,
      "v": 59
    },
    {
      "midi": 58,
      "hit": false,
      "t": 156553.3250000007,
      "d": 72.81549999999697,
      "v": 47
    },
    {
      "midi": 56,
      "hit": false,
      "t": 156626.1405000007,
      "d": 72.81549999999697,
      "v": 59
    },
    {
      "midi": 60,
      "hit": false,
      "t": 156698.95599999905,
      "d": 72.81549999999697,
      "v": 50
    },
    {
      "midi": 64,
      "hit": false,
      "t": 156698.95599999905,
      "d": 72.81549999999697,
      "v": 47
    },
    {
      "midi": 70,
      "hit": false,
      "t": 156698.95599999905,
      "d": 72.81549999999697,
      "v": 50
    },
    {
      "midi": 72,
      "hit": false,
      "t": 156698.95599999905,
      "d": 72.81549999999697,
      "v": 47
    },
    {
      "midi": 55,
      "hit": false,
      "t": 156698.9560000007,
      "d": 72.81549999999697,
      "v": 47
    },
    {
      "midi": 53,
      "hit": false,
      "t": 156771.7715000007,
      "d": 72.81549999999697,
      "v": 48
    },
    {
      "midi": 60,
      "hit": false,
      "t": 156844.58699999904,
      "d": 72.81549999999697,
      "v": 41
    },
    {
      "midi": 64,
      "hit": false,
      "t": 156844.58699999904,
      "d": 72.81549999999697,
      "v": 49
    },
    {
      "midi": 70,
      "hit": false,
      "t": 156844.58699999904,
      "d": 72.81549999999697,
      "v": 47
    },
    {
      "midi": 72,
      "hit": false,
      "t": 156844.58699999904,
      "d": 72.81549999999697,
      "v": 44
    },
    {
      "midi": 52,
      "hit": false,
      "t": 156844.5870000007,
      "d": 72.81549999999697,
      "v": 50
    },
    {
      "midi": 50,
      "hit": false,
      "t": 156917.4025000007,
      "d": 72.81549999999697,
      "v": 47
    },
    {
      "midi": 60,
      "hit": false,
      "t": 156990.21799999903,
      "d": 72.81549999999697,
      "v": 31
    },
    {
      "midi": 64,
      "hit": false,
      "t": 156990.21799999903,
      "d": 72.81549999999697,
      "v": 40
    },
    {
      "midi": 70,
      "hit": false,
      "t": 156990.21799999903,
      "d": 72.81549999999697,
      "v": 38
    },
    {
      "midi": 72,
      "hit": false,
      "t": 156990.21799999903,
      "d": 72.81549999999697,
      "v": 36
    },
    {
      "midi": 48,
      "hit": false,
      "t": 156990.2180000007,
      "d": 72.81549999999697,
      "v": 52
    },
    {
      "midi": 46,
      "hit": false,
      "t": 157063.0335000007,
      "d": 72.81549999999697,
      "v": 51
    },
    {
      "midi": 60,
      "hit": false,
      "t": 157135.84899999903,
      "d": 72.81549999999697,
      "v": 36
    },
    {
      "midi": 64,
      "hit": false,
      "t": 157135.84899999903,
      "d": 72.81549999999697,
      "v": 47
    },
    {
      "midi": 70,
      "hit": false,
      "t": 157135.84899999903,
      "d": 72.81549999999697,
      "v": 35
    },
    {
      "midi": 72,
      "hit": false,
      "t": 157135.84899999903,
      "d": 72.81549999999697,
      "v": 39
    },
    {
      "midi": 44,
      "hit": false,
      "t": 157135.8490000007,
      "d": 72.81549999999697,
      "v": 38
    },
    {
      "midi": 43,
      "hit": false,
      "t": 157208.66450000068,
      "d": 72.81549999999697,
      "v": 56
    },
    {
      "midi": 60,
      "hit": false,
      "t": 157281.47999999902,
      "d": 291.2619999999879,
      "v": 50
    },
    {
      "midi": 65,
      "hit": false,
      "t": 157281.47999999902,
      "d": 291.2619999999879,
      "v": 56
    },
    {
      "midi": 68,
      "hit": false,
      "t": 157281.47999999902,
      "d": 291.2619999999879,
      "v": 58
    },
    {
      "midi": 72,
      "hit": false,
      "t": 157281.47999999902,
      "d": 291.2619999999879,
      "v": 59
    },
    {
      "midi": 41,
      "hit": false,
      "t": 157281.48000000068,
      "d": 72.81549999999697,
      "v": 56
    },
    {
      "midi": 43,
      "hit": false,
      "t": 157354.29550000068,
      "d": 72.81549999999697,
      "v": 56
    },
    {
      "midi": 44,
      "hit": false,
      "t": 157427.11100000067,
      "d": 72.81549999999697,
      "v": 50
    },
    {
      "midi": 46,
      "hit": false,
      "t": 157499.92650000067,
      "d": 72.81549999999697,
      "v": 62
    },
    {
      "midi": 48,
      "hit": false,
      "t": 157572.74200000067,
      "d": 72.81549999999697,
      "v": 56
    },
    {
      "midi": 50,
      "hit": false,
      "t": 157645.55750000066,
      "d": 72.81549999999697,
      "v": 50
    },
    {
      "midi": 72,
      "hit": false,
      "t": 157718.372999999,
      "d": 72.81549999999697,
      "v": 56
    },
    {
      "midi": 77,
      "hit": false,
      "t": 157718.372999999,
      "d": 72.81549999999697,
      "v": 62
    },
    {
      "midi": 80,
      "hit": false,
      "t": 157718.372999999,
      "d": 72.81549999999697,
      "v": 68
    },
    {
      "midi": 84,
      "hit": false,
      "t": 157718.372999999,
      "d": 72.81549999999697,
      "v": 59
    },
    {
      "midi": 52,
      "hit": false,
      "t": 157718.37300000066,
      "d": 72.81549999999697,
      "v": 36
    },
    {
      "midi": 53,
      "hit": false,
      "t": 157791.18850000066,
      "d": 72.81549999999697,
      "v": 40
    },
    {
      "midi": 72,
      "hit": false,
      "t": 157864.003999999,
      "d": 72.81549999999697,
      "v": 47
    },
    {
      "midi": 76,
      "hit": false,
      "t": 157864.003999999,
      "d": 72.81549999999697,
      "v": 59
    },
    {
      "midi": 82,
      "hit": false,
      "t": 157864.003999999,
      "d": 72.81549999999697,
      "v": 63
    },
    {
      "midi": 84,
      "hit": false,
      "t": 157864.003999999,
      "d": 72.81549999999697,
      "v": 52
    },
    {
      "midi": 55,
      "hit": false,
      "t": 157864.00400000066,
      "d": 72.81549999999697,
      "v": 62
    },
    {
      "midi": 53,
      "hit": false,
      "t": 157936.81950000065,
      "d": 72.81549999999697,
      "v": 63
    },
    {
      "midi": 72,
      "hit": false,
      "t": 158009.634999999,
      "d": 72.81549999999697,
      "v": 50
    },
    {
      "midi": 76,
      "hit": false,
      "t": 158009.634999999,
      "d": 72.81549999999697,
      "v": 59
    },
    {
      "midi": 82,
      "hit": false,
      "t": 158009.634999999,
      "d": 72.81549999999697,
      "v": 63
    },
    {
      "midi": 84,
      "hit": false,
      "t": 158009.634999999,
      "d": 72.81549999999697,
      "v": 50
    },
    {
      "midi": 52,
      "hit": false,
      "t": 158009.63500000065,
      "d": 72.81549999999697,
      "v": 52
    },
    {
      "midi": 50,
      "hit": false,
      "t": 158082.45050000065,
      "d": 72.81549999999697,
      "v": 52
    },
    {
      "midi": 72,
      "hit": false,
      "t": 158155.26599999898,
      "d": 72.81549999999697,
      "v": 50
    },
    {
      "midi": 76,
      "hit": false,
      "t": 158155.26599999898,
      "d": 72.81549999999697,
      "v": 56
    },
    {
      "midi": 82,
      "hit": false,
      "t": 158155.26599999898,
      "d": 72.81549999999697,
      "v": 55
    },
    {
      "midi": 84,
      "hit": false,
      "t": 158155.26599999898,
      "d": 72.81549999999697,
      "v": 59
    },
    {
      "midi": 48,
      "hit": false,
      "t": 158155.26600000064,
      "d": 72.81549999999697,
      "v": 47
    },
    {
      "midi": 46,
      "hit": false,
      "t": 158228.08150000064,
      "d": 72.81549999999697,
      "v": 42
    },
    {
      "midi": 72,
      "hit": false,
      "t": 158300.89699999898,
      "d": 72.81549999999697,
      "v": 52
    },
    {
      "midi": 76,
      "hit": false,
      "t": 158300.89699999898,
      "d": 72.81549999999697,
      "v": 56
    },
    {
      "midi": 82,
      "hit": false,
      "t": 158300.89699999898,
      "d": 72.81549999999697,
      "v": 58
    },
    {
      "midi": 84,
      "hit": false,
      "t": 158300.89699999898,
      "d": 72.81549999999697,
      "v": 59
    },
    {
      "midi": 44,
      "hit": false,
      "t": 158300.89700000064,
      "d": 72.81549999999697,
      "v": 47
    },
    {
      "midi": 43,
      "hit": false,
      "t": 158373.71250000063,
      "d": 72.81549999999697,
      "v": 41
    },
    {
      "midi": 72,
      "hit": false,
      "t": 158446.52799999897,
      "d": 291.2619999999879,
      "v": 52
    },
    {
      "midi": 77,
      "hit": false,
      "t": 158446.52799999897,
      "d": 291.2619999999879,
      "v": 56
    },
    {
      "midi": 80,
      "hit": false,
      "t": 158446.52799999897,
      "d": 291.2619999999879,
      "v": 58
    },
    {
      "midi": 84,
      "hit": false,
      "t": 158446.52799999897,
      "d": 291.2619999999879,
      "v": 56
    },
    {
      "midi": 41,
      "hit": false,
      "t": 158446.52800000063,
      "d": 72.81549999999697,
      "v": 63
    },
    {
      "midi": 43,
      "hit": false,
      "t": 158519.34350000063,
      "d": 72.81549999999697,
      "v": 52
    },
    {
      "midi": 44,
      "hit": false,
      "t": 158592.15900000063,
      "d": 72.81549999999697,
      "v": 44
    },
    {
      "midi": 46,
      "hit": false,
      "t": 158664.97450000062,
      "d": 72.81549999999697,
      "v": 48
    },
    {
      "midi": 48,
      "hit": false,
      "t": 158737.79000000062,
      "d": 72.81549999999697,
      "v": 56
    },
    {
      "midi": 50,
      "hit": false,
      "t": 158810.60550000062,
      "d": 72.81549999999697,
      "v": 44
    },
    {
      "midi": 60,
      "hit": false,
      "t": 158883.42099999895,
      "d": 145.63099999999395,
      "v": 62
    },
    {
      "midi": 65,
      "hit": false,
      "t": 158883.42099999895,
      "d": 145.63099999999395,
      "v": 62
    },
    {
      "midi": 68,
      "hit": false,
      "t": 158883.42099999895,
      "d": 145.63099999999395,
      "v": 63
    },
    {
      "midi": 72,
      "hit": false,
      "t": 158883.42099999895,
      "d": 145.63099999999395,
      "v": 67
    },
    {
      "midi": 52,
      "hit": false,
      "t": 158883.4210000006,
      "d": 72.81549999999697,
      "v": 50
    },
    {
      "midi": 53,
      "hit": false,
      "t": 158956.2365000006,
      "d": 72.81549999999697,
      "v": 51
    },
    {
      "midi": 60,
      "hit": false,
      "t": 159029.05199999895,
      "d": 72.81549999999697,
      "v": 41
    },
    {
      "midi": 64,
      "hit": false,
      "t": 159029.05199999895,
      "d": 72.81549999999697,
      "v": 44
    },
    {
      "midi": 70,
      "hit": false,
      "t": 159029.05199999895,
      "d": 72.81549999999697,
      "v": 50
    },
    {
      "midi": 72,
      "hit": false,
      "t": 159029.05199999895,
      "d": 72.81549999999697,
      "v": 47
    },
    {
      "midi": 55,
      "hit": false,
      "t": 159029.0520000006,
      "d": 72.81549999999697,
      "v": 62
    },
    {
      "midi": 53,
      "hit": false,
      "t": 159101.8675000006,
      "d": 72.81549999999697,
      "v": 54
    },
    {
      "midi": 60,
      "hit": false,
      "t": 159174.68299999894,
      "d": 72.81549999999697,
      "v": 56
    },
    {
      "midi": 64,
      "hit": false,
      "t": 159174.68299999894,
      "d": 72.81549999999697,
      "v": 55
    },
    {
      "midi": 70,
      "hit": false,
      "t": 159174.68299999894,
      "d": 72.81549999999697,
      "v": 55
    },
    {
      "midi": 72,
      "hit": false,
      "t": 159174.68299999894,
      "d": 72.81549999999697,
      "v": 52
    },
    {
      "midi": 52,
      "hit": false,
      "t": 159174.6830000006,
      "d": 72.81549999999697,
      "v": 56
    },
    {
      "midi": 50,
      "hit": false,
      "t": 159247.4985000006,
      "d": 72.81549999999697,
      "v": 41
    },
    {
      "midi": 60,
      "hit": false,
      "t": 159320.31399999894,
      "d": 72.81549999999697,
      "v": 52
    },
    {
      "midi": 64,
      "hit": false,
      "t": 159320.31399999894,
      "d": 72.81549999999697,
      "v": 58
    },
    {
      "midi": 70,
      "hit": false,
      "t": 159320.31399999894,
      "d": 72.81549999999697,
      "v": 55
    },
    {
      "midi": 72,
      "hit": false,
      "t": 159320.31399999894,
      "d": 72.81549999999697,
      "v": 56
    },
    {
      "midi": 48,
      "hit": false,
      "t": 159320.3140000006,
      "d": 72.81549999999697,
      "v": 50
    },
    {
      "midi": 46,
      "hit": false,
      "t": 159393.1295000006,
      "d": 72.81549999999697,
      "v": 54
    },
    {
      "midi": 60,
      "hit": false,
      "t": 159465.94499999893,
      "d": 72.81549999999697,
      "v": 52
    },
    {
      "midi": 64,
      "hit": false,
      "t": 159465.94499999893,
      "d": 72.81549999999697,
      "v": 55
    },
    {
      "midi": 70,
      "hit": false,
      "t": 159465.94499999893,
      "d": 72.81549999999697,
      "v": 58
    },
    {
      "midi": 72,
      "hit": false,
      "t": 159465.94499999893,
      "d": 72.81549999999697,
      "v": 47
    },
    {
      "midi": 44,
      "hit": false,
      "t": 159465.9450000006,
      "d": 72.81549999999697,
      "v": 47
    },
    {
      "midi": 43,
      "hit": false,
      "t": 159538.7605000006,
      "d": 72.81549999999697,
      "v": 59
    },
    {
      "midi": 60,
      "hit": false,
      "t": 159611.57599999892,
      "d": 72.81549999999697,
      "v": 56
    },
    {
      "midi": 65,
      "hit": false,
      "t": 159611.57599999892,
      "d": 72.81549999999697,
      "v": 56
    },
    {
      "midi": 68,
      "hit": false,
      "t": 159611.57599999892,
      "d": 72.81549999999697,
      "v": 63
    },
    {
      "midi": 72,
      "hit": false,
      "t": 159611.57599999892,
      "d": 72.81549999999697,
      "v": 59
    },
    {
      "midi": 41,
      "hit": false,
      "t": 159611.57600000058,
      "d": 72.81549999999697,
      "v": 60
    },
    {
      "midi": 40,
      "hit": false,
      "t": 159684.39150000058,
      "d": 72.81549999999697,
      "v": 59
    },
    {
      "midi": 72,
      "hit": false,
      "t": 159757.20699999892,
      "d": 72.81549999999697,
      "v": 47
    },
    {
      "midi": 77,
      "hit": false,
      "t": 159757.20699999892,
      "d": 72.81549999999697,
      "v": 47
    },
    {
      "midi": 80,
      "hit": false,
      "t": 159757.20699999892,
      "d": 72.81549999999697,
      "v": 55
    },
    {
      "midi": 84,
      "hit": false,
      "t": 159757.20699999892,
      "d": 72.81549999999697,
      "v": 52
    },
    {
      "midi": 38,
      "hit": false,
      "t": 159757.20700000058,
      "d": 72.81549999999697,
      "v": 52
    },
    {
      "midi": 36,
      "hit": false,
      "t": 159830.02250000057,
      "d": 72.81549999999697,
      "v": 56
    },
    {
      "midi": 72,
      "hit": false,
      "t": 159902.8379999989,
      "d": 72.81549999999697,
      "v": 52
    },
    {
      "midi": 77,
      "hit": false,
      "t": 159902.8379999989,
      "d": 72.81549999999697,
      "v": 56
    },
    {
      "midi": 80,
      "hit": false,
      "t": 159902.8379999989,
      "d": 72.81549999999697,
      "v": 58
    },
    {
      "midi": 84,
      "hit": false,
      "t": 159902.8379999989,
      "d": 72.81549999999697,
      "v": 56
    },
    {
      "midi": 34,
      "hit": false,
      "t": 159902.83800000057,
      "d": 72.81549999999697,
      "v": 59
    },
    {
      "midi": 32,
      "hit": false,
      "t": 159975.65350000057,
      "d": 72.81549999999697,
      "v": 55
    },
    {
      "midi": 72,
      "hit": false,
      "t": 160048.4689999989,
      "d": 72.81549999999697,
      "v": 50
    },
    {
      "midi": 77,
      "hit": false,
      "t": 160048.4689999989,
      "d": 72.81549999999697,
      "v": 52
    },
    {
      "midi": 80,
      "hit": false,
      "t": 160048.4689999989,
      "d": 72.81549999999697,
      "v": 55
    },
    {
      "midi": 84,
      "hit": false,
      "t": 160048.4689999989,
      "d": 72.81549999999697,
      "v": 52
    },
    {
      "midi": 31,
      "hit": false,
      "t": 160048.46900000056,
      "d": 72.81549999999697,
      "v": 52
    },
    {
      "midi": 29,
      "hit": false,
      "t": 160121.28450000056,
      "d": 72.81549999999697,
      "v": 48
    },
    {
      "midi": 72,
      "hit": false,
      "t": 160194.0999999989,
      "d": 72.81549999999697,
      "v": 50
    },
    {
      "midi": 76,
      "hit": false,
      "t": 160194.0999999989,
      "d": 72.81549999999697,
      "v": 62
    },
    {
      "midi": 82,
      "hit": false,
      "t": 160194.0999999989,
      "d": 72.81549999999697,
      "v": 58
    },
    {
      "midi": 84,
      "hit": false,
      "t": 160194.0999999989,
      "d": 72.81549999999697,
      "v": 56
    },
    {
      "midi": 31,
      "hit": false,
      "t": 160194.10000000056,
      "d": 72.81549999999697,
      "v": 50
    },
    {
      "midi": 32,
      "hit": false,
      "t": 160266.91550000056,
      "d": 72.81549999999697,
      "v": 50
    },
    {
      "midi": 72,
      "hit": false,
      "t": 160339.7309999989,
      "d": 72.81549999999697,
      "v": 50
    },
    {
      "midi": 76,
      "hit": false,
      "t": 160339.7309999989,
      "d": 72.81549999999697,
      "v": 62
    },
    {
      "midi": 82,
      "hit": false,
      "t": 160339.7309999989,
      "d": 72.81549999999697,
      "v": 63
    },
    {
      "midi": 84,
      "hit": false,
      "t": 160339.7309999989,
      "d": 72.81549999999697,
      "v": 50
    },
    {
      "midi": 34,
      "hit": false,
      "t": 160339.73100000055,
      "d": 72.81549999999697,
      "v": 44
    },
    {
      "midi": 36,
      "hit": false,
      "t": 160412.54650000055,
      "d": 72.81549999999697,
      "v": 52
    },
    {
      "midi": 72,
      "hit": false,
      "t": 160485.3619999989,
      "d": 72.81549999999697,
      "v": 41
    },
    {
      "midi": 76,
      "hit": false,
      "t": 160485.3619999989,
      "d": 72.81549999999697,
      "v": 52
    },
    {
      "midi": 82,
      "hit": false,
      "t": 160485.3619999989,
      "d": 72.81549999999697,
      "v": 55
    },
    {
      "midi": 84,
      "hit": false,
      "t": 160485.3619999989,
      "d": 72.81549999999697,
      "v": 41
    },
    {
      "midi": 38,
      "hit": false,
      "t": 160485.36200000055,
      "d": 72.81549999999697,
      "v": 47
    },
    {
      "midi": 40,
      "hit": false,
      "t": 160558.17750000054,
      "d": 72.81549999999697,
      "v": 52
    },
    {
      "midi": 72,
      "hit": false,
      "t": 160630.99299999888,
      "d": 72.81549999999697,
      "v": 41
    },
    {
      "midi": 76,
      "hit": false,
      "t": 160630.99299999888,
      "d": 72.81549999999697,
      "v": 56
    },
    {
      "midi": 82,
      "hit": false,
      "t": 160630.99299999888,
      "d": 72.81549999999697,
      "v": 55
    },
    {
      "midi": 84,
      "hit": false,
      "t": 160630.99299999888,
      "d": 72.81549999999697,
      "v": 50
    },
    {
      "midi": 41,
      "hit": false,
      "t": 160630.99300000054,
      "d": 72.81549999999697,
      "v": 54
    },
    {
      "midi": 43,
      "hit": false,
      "t": 160703.80850000054,
      "d": 72.81549999999697,
      "v": 50
    },
    {
      "midi": 72,
      "hit": false,
      "t": 160776.62399999888,
      "d": 72.81549999999697,
      "v": 59
    },
    {
      "midi": 75,
      "hit": false,
      "t": 160776.62399999888,
      "d": 72.81549999999697,
      "v": 63
    },
    {
      "midi": 81,
      "hit": false,
      "t": 160776.62399999888,
      "d": 72.81549999999697,
      "v": 62
    },
    {
      "midi": 84,
      "hit": false,
      "t": 160776.62399999888,
      "d": 72.81549999999697,
      "v": 70
    },
    {
      "midi": 30,
      "hit": false,
      "t": 160776.62400000053,
      "d": 145.63099999999395,
      "v": 58
    },
    {
      "midi": 42,
      "hit": false,
      "t": 160776.62400000053,
      "d": 145.63099999999395,
      "v": 55
    },
    {
      "midi": 57,
      "hit": false,
      "t": 160849.43949999887,
      "d": 72.81549999999697,
      "v": 47
    },
    {
      "midi": 60,
      "hit": false,
      "t": 160922.25499999887,
      "d": 72.81549999999697,
      "v": 52
    },
    {
      "midi": 63,
      "hit": false,
      "t": 160995.07049999887,
      "d": 72.81549999999697,
      "v": 44
    },
    {
      "midi": 66,
      "hit": false,
      "t": 161067.88599999886,
      "d": 72.81549999999697,
      "v": 58
    },
    {
      "midi": 69,
      "hit": false,
      "t": 161140.70149999886,
      "d": 72.81549999999697,
      "v": 50
    },
    {
      "midi": 72,
      "hit": false,
      "t": 161213.51699999886,
      "d": 72.81549999999697,
      "v": 52
    },
    {
      "midi": 75,
      "hit": false,
      "t": 161286.33249999885,
      "d": 72.81549999999697,
      "v": 50
    },
    {
      "midi": 78,
      "hit": false,
      "t": 161359.14799999885,
      "d": 72.81549999999697,
      "v": 55
    },
    {
      "midi": 81,
      "hit": false,
      "t": 161431.96349999885,
      "d": 72.81549999999697,
      "v": 47
    },
    {
      "midi": 84,
      "hit": false,
      "t": 161504.77899999885,
      "d": 72.81549999999697,
      "v": 36
    },
    {
      "midi": 87,
      "hit": false,
      "t": 161577.59449999884,
      "d": 72.81549999999697,
      "v": 35
    },
    {
      "midi": 90,
      "hit": false,
      "t": 161650.40999999884,
      "d": 72.81549999999697,
      "v": 55
    },
    {
      "midi": 87,
      "hit": false,
      "t": 161723.22549999884,
      "d": 72.81549999999697,
      "v": 50
    },
    {
      "midi": 84,
      "hit": false,
      "t": 161796.04099999883,
      "d": 72.81549999999697,
      "v": 41
    },
    {
      "midi": 81,
      "hit": false,
      "t": 161868.85649999883,
      "d": 72.81549999999697,
      "v": 41
    },
    {
      "midi": 78,
      "hit": false,
      "t": 161941.67199999883,
      "d": 72.81549999999697,
      "v": 50
    },
    {
      "midi": 75,
      "hit": false,
      "t": 162014.48749999882,
      "d": 72.81549999999697,
      "v": 40
    },
    {
      "midi": 72,
      "hit": false,
      "t": 162087.30299999882,
      "d": 72.81549999999697,
      "v": 32
    },
    {
      "midi": 69,
      "hit": false,
      "t": 162160.11849999882,
      "d": 72.81549999999697,
      "v": 39
    },
    {
      "midi": 66,
      "hit": false,
      "t": 162232.93399999882,
      "d": 72.81549999999697,
      "v": 40
    },
    {
      "midi": 63,
      "hit": false,
      "t": 162305.7494999988,
      "d": 72.81549999999697,
      "v": 47
    },
    {
      "midi": 60,
      "hit": false,
      "t": 162378.5649999988,
      "d": 72.81549999999697,
      "v": 50
    },
    {
      "midi": 57,
      "hit": false,
      "t": 162451.3804999988,
      "d": 72.81549999999697,
      "v": 47
    },
    {
      "midi": 54,
      "hit": false,
      "t": 162524.1959999988,
      "d": 72.81549999999697,
      "v": 47
    },
    {
      "midi": 51,
      "hit": false,
      "t": 162597.0114999988,
      "d": 72.81549999999697,
      "v": 50
    },
    {
      "midi": 48,
      "hit": false,
      "t": 162669.8269999988,
      "d": 72.81549999999697,
      "v": 47
    },
    {
      "midi": 45,
      "hit": false,
      "t": 162742.6424999988,
      "d": 72.81549999999697,
      "v": 31
    },
    {
      "midi": 42,
      "hit": false,
      "t": 162815.4579999988,
      "d": 72.81549999999697,
      "v": 50
    },
    {
      "midi": 39,
      "hit": false,
      "t": 162888.2734999988,
      "d": 72.81549999999697,
      "v": 55
    },
    {
      "midi": 36,
      "hit": false,
      "t": 162961.08899999878,
      "d": 72.81549999999697,
      "v": 52
    },
    {
      "midi": 33,
      "hit": false,
      "t": 163033.90449999878,
      "d": 72.81549999999697,
      "v": 32
    },
    {
      "midi": 30,
      "hit": false,
      "t": 163106.71999999878,
      "d": 72.81549999999697,
      "v": 55
    },
    {
      "midi": 39,
      "hit": false,
      "t": 163179.53549999878,
      "d": 72.81549999999697,
      "v": 47
    },
    {
      "midi": 36,
      "hit": false,
      "t": 163252.35099999877,
      "d": 72.81549999999697,
      "v": 39
    },
    {
      "midi": 33,
      "hit": false,
      "t": 163325.16649999877,
      "d": 72.81549999999697,
      "v": 39
    },
    {
      "midi": 30,
      "hit": false,
      "t": 163397.98199999877,
      "d": 72.81549999999697,
      "v": 63
    },
    {
      "midi": 39,
      "hit": false,
      "t": 163470.79749999876,
      "d": 72.81549999999697,
      "v": 50
    },
    {
      "midi": 36,
      "hit": false,
      "t": 163543.61299999876,
      "d": 72.81549999999697,
      "v": 29
    },
    {
      "midi": 33,
      "hit": false,
      "t": 163616.42849999876,
      "d": 72.81549999999697,
      "v": 34
    },
    {
      "midi": 30,
      "hit": false,
      "t": 163689.24399999875,
      "d": 72.81549999999697,
      "v": 55
    },
    {
      "midi": 39,
      "hit": false,
      "t": 163762.05949999875,
      "d": 72.81549999999697,
      "v": 47
    },
    {
      "midi": 36,
      "hit": false,
      "t": 163834.87499999875,
      "d": 72.81549999999697,
      "v": 39
    },
    {
      "midi": 33,
      "hit": false,
      "t": 163907.69049999875,
      "d": 72.81549999999697,
      "v": 44
    },
    {
      "midi": 30,
      "hit": false,
      "t": 163980.50599999874,
      "d": 72.81549999999697,
      "v": 44
    },
    {
      "midi": 39,
      "hit": false,
      "t": 164053.32149999874,
      "d": 72.81549999999697,
      "v": 47
    },
    {
      "midi": 36,
      "hit": false,
      "t": 164126.13699999874,
      "d": 72.81549999999697,
      "v": 39
    },
    {
      "midi": 33,
      "hit": false,
      "t": 164198.95249999873,
      "d": 72.81549999999697,
      "v": 31
    },
    {
      "midi": 29,
      "hit": false,
      "t": 164271.76800000053,
      "d": 291.2619999999879,
      "v": 85
    },
    {
      "midi": 57,
      "hit": false,
      "t": 164344.58349999873,
      "d": 54.611624999990454,
      "v": 20
    },
    {
      "midi": 60,
      "hit": false,
      "t": 164417.39899999872,
      "d": 54.611624999990454,
      "v": 23
    },
    {
      "midi": 63,
      "hit": false,
      "t": 164490.21449999872,
      "d": 54.611624999990454,
      "v": 30
    },
    {
      "midi": 66,
      "hit": false,
      "t": 164563.02999999872,
      "d": 54.611624999990454,
      "v": 30
    },
    {
      "midi": 68,
      "hit": false,
      "t": 164635.84549999872,
      "d": 54.611624999990454,
      "v": 33
    },
    {
      "midi": 66,
      "hit": false,
      "t": 164708.6609999987,
      "d": 54.611624999990454,
      "v": 28
    },
    {
      "midi": 65,
      "hit": false,
      "t": 164781.4764999987,
      "d": 54.611624999990454,
      "v": 28
    },
    {
      "midi": 63,
      "hit": false,
      "t": 164854.2919999987,
      "d": 54.611624999990454,
      "v": 24
    },
    {
      "midi": 65,
      "hit": false,
      "t": 164927.1074999987,
      "d": 54.611624999990454,
      "v": 28
    },
    {
      "midi": 63,
      "hit": false,
      "t": 164999.9229999987,
      "d": 54.611624999990454,
      "v": 28
    },
    {
      "midi": 61,
      "hit": false,
      "t": 165072.7384999987,
      "d": 54.611624999990454,
      "v": 25
    },
    {
      "midi": 60,
      "hit": false,
      "t": 165145.5539999987,
      "d": 54.611624999990454,
      "v": 23
    },
    {
      "midi": 61,
      "hit": false,
      "t": 165218.3694999987,
      "d": 54.611624999990454,
      "v": 26
    },
    {
      "midi": 63,
      "hit": false,
      "t": 165291.1849999987,
      "d": 54.611624999990454,
      "v": 22
    },
    {
      "midi": 60,
      "hit": false,
      "t": 165364.00049999868,
      "d": 54.611624999990454,
      "v": 24
    },
    {
      "midi": 53,
      "hit": false,
      "t": 165364.00050000052,
      "d": 72.81549999999697,
      "v": 56
    },
    {
      "midi": 29,
      "hit": false,
      "t": 165436.81600000052,
      "d": 291.2619999999879,
      "v": 85
    },
    {
      "midi": 57,
      "hit": false,
      "t": 165509.63149999868,
      "d": 54.611624999990454,
      "v": 30
    },
    {
      "midi": 60,
      "hit": false,
      "t": 165582.44699999868,
      "d": 54.611624999990454,
      "v": 31
    },
    {
      "midi": 63,
      "hit": false,
      "t": 165655.26249999867,
      "d": 54.611624999990454,
      "v": 34
    },
    {
      "midi": 66,
      "hit": false,
      "t": 165728.07799999867,
      "d": 54.611624999990454,
      "v": 30
    },
    {
      "midi": 68,
      "hit": false,
      "t": 165800.89349999867,
      "d": 54.611624999990454,
      "v": 30
    },
    {
      "midi": 66,
      "hit": false,
      "t": 165873.70899999866,
      "d": 54.611624999990454,
      "v": 28
    },
    {
      "midi": 65,
      "hit": false,
      "t": 165946.52449999866,
      "d": 54.611624999990454,
      "v": 26
    },
    {
      "midi": 63,
      "hit": false,
      "t": 166019.33999999866,
      "d": 54.611624999990454,
      "v": 30
    },
    {
      "midi": 65,
      "hit": false,
      "t": 166092.15549999865,
      "d": 54.611624999990454,
      "v": 28
    },
    {
      "midi": 63,
      "hit": false,
      "t": 166164.97099999865,
      "d": 54.611624999990454,
      "v": 26
    },
    {
      "midi": 61,
      "hit": false,
      "t": 166237.78649999865,
      "d": 54.611624999990454,
      "v": 21
    },
    {
      "midi": 60,
      "hit": false,
      "t": 166310.60199999865,
      "d": 54.611624999990454,
      "v": 28
    },
    {
      "midi": 61,
      "hit": false,
      "t": 166383.41749999864,
      "d": 54.611624999990454,
      "v": 25
    },
    {
      "midi": 63,
      "hit": false,
      "t": 166456.23299999864,
      "d": 54.611624999990454,
      "v": 28
    },
    {
      "midi": 60,
      "hit": false,
      "t": 166529.04849999864,
      "d": 54.611624999990454,
      "v": 28
    },
    {
      "midi": 53,
      "hit": false,
      "t": 166529.0485000005,
      "d": 72.81549999999697,
      "v": 54
    },
    {
      "midi": 29,
      "hit": false,
      "t": 166601.8640000005,
      "d": 291.2619999999879,
      "v": 85
    },
    {
      "midi": 57,
      "hit": false,
      "t": 166674.67949999863,
      "d": 54.611624999990454,
      "v": 56
    },
    {
      "midi": 60,
      "hit": false,
      "t": 166747.49499999863,
      "d": 54.611624999990454,
      "v": 56
    },
    {
      "midi": 63,
      "hit": false,
      "t": 166820.31049999862,
      "d": 54.611624999990454,
      "v": 50
    },
    {
      "midi": 66,
      "hit": false,
      "t": 166893.12599999862,
      "d": 54.611624999990454,
      "v": 58
    },
    {
      "midi": 68,
      "hit": false,
      "t": 166965.94149999862,
      "d": 54.611624999990454,
      "v": 55
    },
    {
      "midi": 66,
      "hit": false,
      "t": 167038.75699999862,
      "d": 54.611624999990454,
      "v": 55
    },
    {
      "midi": 58,
      "hit": false,
      "t": 167038.75700000048,
      "d": 72.81549999999697,
      "v": 44
    },
    {
      "midi": 65,
      "hit": false,
      "t": 167111.5724999986,
      "d": 54.611624999990454,
      "v": 50
    },
    {
      "midi": 59,
      "hit": false,
      "t": 167111.57250000047,
      "d": 72.81549999999697,
      "v": 43
    },
    {
      "midi": 63,
      "hit": false,
      "t": 167184.3879999986,
      "d": 109.22325000001001,
      "v": 47
    },
    {
      "midi": 60,
      "hit": false,
      "t": 167184.38800000047,
      "d": 72.81549999999697,
      "v": 34
    },
    {
      "midi": 61,
      "hit": false,
      "t": 167257.20350000047,
      "d": 72.81549999999697,
      "v": 39
    },
    {
      "midi": 63,
      "hit": false,
      "t": 167330.01899999863,
      "d": 54.611624999990454,
      "v": 44
    },
    {
      "midi": 60,
      "hit": false,
      "t": 167330.01900000047,
      "d": 72.81549999999697,
      "v": 32
    },
    {
      "midi": 65,
      "hit": false,
      "t": 167402.83449999863,
      "d": 54.611624999990454,
      "v": 36
    },
    {
      "midi": 58,
      "hit": false,
      "t": 167402.83450000046,
      "d": 72.81549999999697,
      "v": 32
    },
    {
      "midi": 66,
      "hit": false,
      "t": 167475.64999999863,
      "d": 54.611624999990454,
      "v": 40
    },
    {
      "midi": 57,
      "hit": false,
      "t": 167475.65000000046,
      "d": 145.63099999999395,
      "v": 50
    },
    {
      "midi": 68,
      "hit": false,
      "t": 167548.46549999862,
      "d": 54.611624999990454,
      "v": 40
    },
    {
      "midi": 66,
      "hit": false,
      "t": 167621.28099999862,
      "d": 54.611624999990454,
      "v": 40
    },
    {
      "midi": 57,
      "hit": false,
      "t": 167621.28100000045,
      "d": 72.81549999999697,
      "v": 50
    },
    {
      "midi": 65,
      "hit": false,
      "t": 167694.09649999862,
      "d": 54.611624999990454,
      "v": 50
    },
    {
      "midi": 58,
      "hit": false,
      "t": 167694.09650000045,
      "d": 72.81549999999697,
      "v": 55
    },
    {
      "midi": 63,
      "hit": false,
      "t": 167766.9119999986,
      "d": 109.22325000001001,
      "v": 68
    },
    {
      "midi": 60,
      "hit": false,
      "t": 167766.91200000045,
      "d": 72.81549999999697,
      "v": 59
    },
    {
      "midi": 61,
      "hit": false,
      "t": 167839.72750000044,
      "d": 72.81549999999697,
      "v": 54
    },
    {
      "midi": 63,
      "hit": false,
      "t": 167912.54299999864,
      "d": 54.611624999990454,
      "v": 44
    },
    {
      "midi": 60,
      "hit": false,
      "t": 167912.54300000044,
      "d": 72.81549999999697,
      "v": 52
    },
    {
      "midi": 65,
      "hit": false,
      "t": 167985.35849999863,
      "d": 54.611624999990454,
      "v": 41
    },
    {
      "midi": 58,
      "hit": false,
      "t": 167985.35850000044,
      "d": 72.81549999999697,
      "v": 50
    },
    {
      "midi": 66,
      "hit": false,
      "t": 168058.17399999863,
      "d": 54.611624999990454,
      "v": 50
    },
    {
      "midi": 57,
      "hit": false,
      "t": 168058.17400000044,
      "d": 145.63099999999395,
      "v": 47
    },
    {
      "midi": 68,
      "hit": false,
      "t": 168130.98949999863,
      "d": 54.611624999990454,
      "v": 50
    },
    {
      "midi": 66,
      "hit": false,
      "t": 168203.80499999863,
      "d": 54.611624999990454,
      "v": 44
    },
    {
      "midi": 57,
      "hit": false,
      "t": 168203.80500000043,
      "d": 72.81549999999697,
      "v": 44
    },
    {
      "midi": 65,
      "hit": false,
      "t": 168276.62049999862,
      "d": 54.611624999990454,
      "v": 50
    },
    {
      "midi": 58,
      "hit": false,
      "t": 168276.62050000043,
      "d": 72.81549999999697,
      "v": 47
    },
    {
      "midi": 63,
      "hit": false,
      "t": 168349.43599999862,
      "d": 109.22325000001001,
      "v": 44
    },
    {
      "midi": 60,
      "hit": false,
      "t": 168349.43600000042,
      "d": 72.81549999999697,
      "v": 56
    },
    {
      "midi": 61,
      "hit": false,
      "t": 168422.25150000042,
      "d": 72.81549999999697,
      "v": 51
    },
    {
      "midi": 66,
      "hit": false,
      "t": 168495.06699999864,
      "d": 109.22325000001001,
      "v": 38
    },
    {
      "midi": 78,
      "hit": false,
      "t": 168495.06699999864,
      "d": 109.22325000001001,
      "v": 55
    },
    {
      "midi": 60,
      "hit": false,
      "t": 168495.06700000042,
      "d": 72.81549999999697,
      "v": 52
    },
    {
      "midi": 58,
      "hit": false,
      "t": 168567.8825000004,
      "d": 72.81549999999697,
      "v": 50
    },
    {
      "midi": 65,
      "hit": false,
      "t": 168640.69799999867,
      "d": 109.22325000001001,
      "v": 56
    },
    {
      "midi": 77,
      "hit": false,
      "t": 168640.69799999867,
      "d": 109.22325000001001,
      "v": 59
    },
    {
      "midi": 57,
      "hit": false,
      "t": 168640.6980000004,
      "d": 72.81549999999697,
      "v": 32
    },
    {
      "midi": 54,
      "hit": false,
      "t": 168713.5135000004,
      "d": 72.81549999999697,
      "v": 47
    },
    {
      "midi": 69,
      "hit": false,
      "t": 168786.3289999987,
      "d": 109.22325000001001,
      "v": 44
    },
    {
      "midi": 81,
      "hit": false,
      "t": 168786.3289999987,
      "d": 109.22325000001001,
      "v": 52
    },
    {
      "midi": 53,
      "hit": false,
      "t": 168786.3290000004,
      "d": 72.81549999999697,
      "v": 51
    },
    {
      "midi": 51,
      "hit": false,
      "t": 168859.1445000004,
      "d": 72.81549999999697,
      "v": 40
    },
    {
      "midi": 70,
      "hit": false,
      "t": 168931.9599999987,
      "d": 54.611624999990454,
      "v": 35
    },
    {
      "midi": 82,
      "hit": false,
      "t": 168931.9599999987,
      "d": 54.611624999990454,
      "v": 47
    },
    {
      "midi": 49,
      "hit": false,
      "t": 168931.9600000004,
      "d": 54.611624999990454,
      "v": 47
    },
    {
      "midi": 65,
      "hit": false,
      "t": 169004.7754999987,
      "d": 72.81549999999697,
      "v": 41
    },
    {
      "midi": 53,
      "hit": false,
      "t": 169004.7755000004,
      "d": 54.611624999990454,
      "v": 29
    },
    {
      "midi": 70,
      "hit": false,
      "t": 169077.5909999987,
      "d": 72.81549999999697,
      "v": 40
    },
    {
      "midi": 58,
      "hit": false,
      "t": 169077.5910000004,
      "d": 54.611624999990454,
      "v": 44
    },
    {
      "midi": 73,
      "hit": false,
      "t": 169150.4064999987,
      "d": 72.81549999999697,
      "v": 47
    },
    {
      "midi": 53,
      "hit": false,
      "t": 169150.4065000004,
      "d": 54.611624999990454,
      "v": 40
    },
    {
      "midi": 77,
      "hit": false,
      "t": 169223.2219999987,
      "d": 72.81549999999697,
      "v": 52
    },
    {
      "midi": 58,
      "hit": false,
      "t": 169223.2220000004,
      "d": 54.611624999990454,
      "v": 50
    },
    {
      "midi": 78,
      "hit": false,
      "t": 169296.0374999987,
      "d": 72.81549999999697,
      "v": 55
    },
    {
      "midi": 53,
      "hit": false,
      "t": 169296.03750000038,
      "d": 54.611624999990454,
      "v": 43
    },
    {
      "midi": 77,
      "hit": false,
      "t": 169368.8529999987,
      "d": 72.81549999999697,
      "v": 52
    },
    {
      "midi": 58,
      "hit": false,
      "t": 169368.85300000038,
      "d": 54.611624999990454,
      "v": 44
    },
    {
      "midi": 75,
      "hit": false,
      "t": 169441.6684999987,
      "d": 72.81549999999697,
      "v": 44
    },
    {
      "midi": 53,
      "hit": false,
      "t": 169441.66850000038,
      "d": 54.611624999990454,
      "v": 40
    },
    {
      "midi": 73,
      "hit": false,
      "t": 169514.4839999987,
      "d": 72.81549999999697,
      "v": 40
    },
    {
      "midi": 58,
      "hit": false,
      "t": 169514.48400000038,
      "d": 54.611624999990454,
      "v": 58
    },
    {
      "midi": 75,
      "hit": false,
      "t": 169587.29949999868,
      "d": 72.81549999999697,
      "v": 44
    },
    {
      "midi": 53,
      "hit": false,
      "t": 169587.29950000037,
      "d": 54.611624999990454,
      "v": 36
    },
    {
      "midi": 73,
      "hit": false,
      "t": 169660.11499999868,
      "d": 72.81549999999697,
      "v": 44
    },
    {
      "midi": 58,
      "hit": false,
      "t": 169660.11500000037,
      "d": 54.611624999990454,
      "v": 44
    },
    {
      "midi": 72,
      "hit": false,
      "t": 169732.93049999868,
      "d": 72.81549999999697,
      "v": 39
    },
    {
      "midi": 53,
      "hit": false,
      "t": 169732.93050000037,
      "d": 54.611624999990454,
      "v": 30
    },
    {
      "midi": 70,
      "hit": false,
      "t": 169805.74599999867,
      "d": 72.81549999999697,
      "v": 40
    },
    {
      "midi": 58,
      "hit": false,
      "t": 169805.74600000036,
      "d": 54.611624999990454,
      "v": 55
    },
    {
      "midi": 72,
      "hit": false,
      "t": 169878.56149999867,
      "d": 72.81549999999697,
      "v": 44
    },
    {
      "midi": 53,
      "hit": false,
      "t": 169878.56150000036,
      "d": 54.611624999990454,
      "v": 40
    },
    {
      "midi": 73,
      "hit": false,
      "t": 169951.37699999867,
      "d": 72.81549999999697,
      "v": 47
    },
    {
      "midi": 58,
      "hit": false,
      "t": 169951.37700000036,
      "d": 54.611624999990454,
      "v": 50
    },
    {
      "midi": 70,
      "hit": false,
      "t": 170024.19249999867,
      "d": 72.81549999999697,
      "v": 35
    },
    {
      "midi": 53,
      "hit": false,
      "t": 170024.19250000035,
      "d": 54.611624999990454,
      "v": 48
    },
    {
      "midi": 49,
      "hit": false,
      "t": 170097.00800000035,
      "d": 54.611624999990454,
      "v": 47
    },
    {
      "midi": 65,
      "hit": false,
      "t": 170169.82349999866,
      "d": 72.81549999999697,
      "v": 56
    },
    {
      "midi": 53,
      "hit": false,
      "t": 170169.82350000035,
      "d": 54.611624999990454,
      "v": 45
    },
    {
      "midi": 70,
      "hit": false,
      "t": 170242.63899999866,
      "d": 72.81549999999697,
      "v": 38
    },
    {
      "midi": 58,
      "hit": false,
      "t": 170242.63900000034,
      "d": 54.611624999990454,
      "v": 50
    },
    {
      "midi": 73,
      "hit": false,
      "t": 170315.45449999865,
      "d": 72.81549999999697,
      "v": 47
    },
    {
      "midi": 53,
      "hit": false,
      "t": 170315.45450000034,
      "d": 54.611624999990454,
      "v": 40
    },
    {
      "midi": 77,
      "hit": false,
      "t": 170388.26999999865,
      "d": 72.81549999999697,
      "v": 50
    },
    {
      "midi": 58,
      "hit": false,
      "t": 170388.27000000034,
      "d": 54.611624999990454,
      "v": 50
    },
    {
      "midi": 78,
      "hit": false,
      "t": 170461.08549999865,
      "d": 72.81549999999697,
      "v": 55
    },
    {
      "midi": 53,
      "hit": false,
      "t": 170461.08550000034,
      "d": 54.611624999990454,
      "v": 45
    },
    {
      "midi": 77,
      "hit": false,
      "t": 170533.90099999864,
      "d": 72.81549999999697,
      "v": 50
    },
    {
      "midi": 58,
      "hit": false,
      "t": 170533.90100000033,
      "d": 54.611624999990454,
      "v": 50
    },
    {
      "midi": 75,
      "hit": false,
      "t": 170606.71649999864,
      "d": 72.81549999999697,
      "v": 44
    },
    {
      "midi": 53,
      "hit": false,
      "t": 170606.71650000033,
      "d": 54.611624999990454,
      "v": 38
    },
    {
      "midi": 73,
      "hit": false,
      "t": 170679.53199999864,
      "d": 72.81549999999697,
      "v": 47
    },
    {
      "midi": 58,
      "hit": false,
      "t": 170679.53200000033,
      "d": 54.611624999990454,
      "v": 47
    },
    {
      "midi": 75,
      "hit": false,
      "t": 170752.34749999864,
      "d": 72.81549999999697,
      "v": 44
    },
    {
      "midi": 53,
      "hit": false,
      "t": 170752.34750000032,
      "d": 54.611624999990454,
      "v": 45
    },
    {
      "midi": 73,
      "hit": false,
      "t": 170825.16299999863,
      "d": 72.81549999999697,
      "v": 40
    },
    {
      "midi": 58,
      "hit": false,
      "t": 170825.16300000032,
      "d": 54.611624999990454,
      "v": 50
    },
    {
      "midi": 72,
      "hit": false,
      "t": 170897.97849999863,
      "d": 72.81549999999697,
      "v": 32
    },
    {
      "midi": 53,
      "hit": false,
      "t": 170897.97850000032,
      "d": 54.611624999990454,
      "v": 43
    },
    {
      "midi": 70,
      "hit": false,
      "t": 170970.79399999863,
      "d": 72.81549999999697,
      "v": 38
    },
    {
      "midi": 58,
      "hit": false,
      "t": 170970.79400000031,
      "d": 54.611624999990454,
      "v": 50
    },
    {
      "midi": 72,
      "hit": false,
      "t": 171043.60949999862,
      "d": 72.81549999999697,
      "v": 44
    },
    {
      "midi": 53,
      "hit": false,
      "t": 171043.6095000003,
      "d": 54.611624999990454,
      "v": 40
    },
    {
      "midi": 73,
      "hit": false,
      "t": 171116.42499999862,
      "d": 72.81549999999697,
      "v": 55
    },
    {
      "midi": 58,
      "hit": false,
      "t": 171116.4250000003,
      "d": 54.611624999990454,
      "v": 47
    },
    {
      "midi": 70,
      "hit": false,
      "t": 171189.24049999862,
      "d": 72.81549999999697,
      "v": 32
    },
    {
      "midi": 53,
      "hit": false,
      "t": 171189.2405000003,
      "d": 54.611624999990454,
      "v": 43
    },
    {
      "midi": 51,
      "hit": false,
      "t": 171262.0560000003,
      "d": 54.611624999990454,
      "v": 44
    },
    {
      "midi": 66,
      "hit": false,
      "t": 171334.8714999986,
      "d": 72.81549999999697,
      "v": 44
    },
    {
      "midi": 54,
      "hit": false,
      "t": 171334.8715000003,
      "d": 54.611624999990454,
      "v": 47
    },
    {
      "midi": 71,
      "hit": false,
      "t": 171407.6869999986,
      "d": 72.81549999999697,
      "v": 41
    },
    {
      "midi": 59,
      "hit": false,
      "t": 171407.6870000003,
      "d": 54.611624999990454,
      "v": 56
    },
    {
      "midi": 75,
      "hit": false,
      "t": 171480.5024999986,
      "d": 72.81549999999697,
      "v": 55
    },
    {
      "midi": 54,
      "hit": false,
      "t": 171480.5025000003,
      "d": 54.611624999990454,
      "v": 55
    },
    {
      "midi": 78,
      "hit": false,
      "t": 171553.3179999986,
      "d": 72.81549999999697,
      "v": 55
    },
    {
      "midi": 59,
      "hit": false,
      "t": 171553.3180000003,
      "d": 54.611624999990454,
      "v": 54
    },
    {
      "midi": 80,
      "hit": false,
      "t": 171626.1334999986,
      "d": 72.81549999999697,
      "v": 58
    },
    {
      "midi": 54,
      "hit": false,
      "t": 171626.1335000003,
      "d": 54.611624999990454,
      "v": 50
    },
    {
      "midi": 78,
      "hit": false,
      "t": 171698.9489999986,
      "d": 72.81549999999697,
      "v": 50
    },
    {
      "midi": 59,
      "hit": false,
      "t": 171698.94900000028,
      "d": 54.611624999990454,
      "v": 48
    },
    {
      "midi": 77,
      "hit": false,
      "t": 171771.7644999986,
      "d": 72.81549999999697,
      "v": 44
    },
    {
      "midi": 54,
      "hit": false,
      "t": 171771.76450000028,
      "d": 54.611624999990454,
      "v": 40
    },
    {
      "midi": 75,
      "hit": false,
      "t": 171844.5799999986,
      "d": 72.81549999999697,
      "v": 47
    },
    {
      "midi": 59,
      "hit": false,
      "t": 171844.58000000028,
      "d": 54.611624999990454,
      "v": 51
    },
    {
      "midi": 77,
      "hit": false,
      "t": 171917.3954999986,
      "d": 72.81549999999697,
      "v": 50
    },
    {
      "midi": 54,
      "hit": false,
      "t": 171917.39550000028,
      "d": 54.611624999990454,
      "v": 50
    },
    {
      "midi": 75,
      "hit": false,
      "t": 171990.21099999858,
      "d": 72.81549999999697,
      "v": 50
    },
    {
      "midi": 59,
      "hit": false,
      "t": 171990.21100000027,
      "d": 54.611624999990454,
      "v": 51
    },
    {
      "midi": 73,
      "hit": false,
      "t": 172063.02649999858,
      "d": 72.81549999999697,
      "v": 55
    },
    {
      "midi": 54,
      "hit": false,
      "t": 172063.02650000027,
      "d": 54.611624999990454,
      "v": 44
    },
    {
      "midi": 71,
      "hit": false,
      "t": 172135.84199999858,
      "d": 72.81549999999697,
      "v": 21
    },
    {
      "midi": 59,
      "hit": false,
      "t": 172135.84200000027,
      "d": 54.611624999990454,
      "v": 43
    },
    {
      "midi": 73,
      "hit": false,
      "t": 172208.65749999858,
      "d": 72.81549999999697,
      "v": 40
    },
    {
      "midi": 54,
      "hit": false,
      "t": 172208.65750000026,
      "d": 54.611624999990454,
      "v": 47
    },
    {
      "midi": 75,
      "hit": false,
      "t": 172281.47299999857,
      "d": 72.81549999999697,
      "v": 50
    },
    {
      "midi": 59,
      "hit": false,
      "t": 172281.47300000026,
      "d": 54.611624999990454,
      "v": 43
    },
    {
      "midi": 71,
      "hit": false,
      "t": 172354.28849999857,
      "d": 72.81549999999697,
      "v": 36
    },
    {
      "midi": 54,
      "hit": false,
      "t": 172354.28850000026,
      "d": 54.611624999990454,
      "v": 44
    },
    {
      "midi": 70,
      "hit": false,
      "t": 172427.10399999857,
      "d": 72.81549999999697,
      "v": 29
    },
    {
      "midi": 53,
      "hit": false,
      "t": 172427.10400000025,
      "d": 54.611624999990454,
      "v": 48
    },
    {
      "midi": 72,
      "hit": false,
      "t": 172499.91949999856,
      "d": 72.81549999999697,
      "v": 36
    },
    {
      "midi": 58,
      "hit": false,
      "t": 172499.91950000025,
      "d": 54.611624999990454,
      "v": 47
    },
    {
      "midi": 70,
      "hit": false,
      "t": 172572.73499999856,
      "d": 72.81549999999697,
      "v": 40
    },
    {
      "midi": 61,
      "hit": false,
      "t": 172572.73500000025,
      "d": 54.611624999990454,
      "v": 51
    },
    {
      "midi": 69,
      "hit": false,
      "t": 172645.55049999856,
      "d": 72.81549999999697,
      "v": 39
    },
    {
      "midi": 58,
      "hit": false,
      "t": 172645.55050000024,
      "d": 54.611624999990454,
      "v": 40
    },
    {
      "midi": 70,
      "hit": false,
      "t": 172718.36599999855,
      "d": 72.81549999999697,
      "v": 44
    },
    {
      "midi": 61,
      "hit": false,
      "t": 172718.36600000024,
      "d": 54.611624999990454,
      "v": 48
    },
    {
      "midi": 72,
      "hit": false,
      "t": 172791.18149999855,
      "d": 72.81549999999697,
      "v": 50
    },
    {
      "midi": 58,
      "hit": false,
      "t": 172791.18150000024,
      "d": 54.611624999990454,
      "v": 47
    },
    {
      "midi": 73,
      "hit": false,
      "t": 172863.99699999855,
      "d": 72.81549999999697,
      "v": 55
    },
    {
      "midi": 61,
      "hit": false,
      "t": 172863.99700000024,
      "d": 54.611624999990454,
      "v": 51
    },
    {
      "midi": 70,
      "hit": false,
      "t": 172936.81249999854,
      "d": 72.81549999999697,
      "v": 44
    },
    {
      "midi": 58,
      "hit": false,
      "t": 172936.81250000023,
      "d": 54.611624999990454,
      "v": 40
    },
    {
      "midi": 69,
      "hit": false,
      "t": 173009.62799999854,
      "d": 72.81549999999697,
      "v": 47
    },
    {
      "midi": 51,
      "hit": false,
      "t": 173009.62800000023,
      "d": 54.611624999990454,
      "v": 47
    },
    {
      "midi": 70,
      "hit": false,
      "t": 173082.44349999854,
      "d": 72.81549999999697,
      "v": 40
    },
    {
      "midi": 53,
      "hit": false,
      "t": 173082.44350000023,
      "d": 54.611624999990454,
      "v": 60
    },
    {
      "midi": 69,
      "hit": false,
      "t": 173155.25899999854,
      "d": 72.81549999999697,
      "v": 41
    },
    {
      "midi": 60,
      "hit": false,
      "t": 173155.25900000022,
      "d": 54.611624999990454,
      "v": 47
    },
    {
      "midi": 67,
      "hit": false,
      "t": 173228.07449999853,
      "d": 72.81549999999697,
      "v": 36
    },
    {
      "midi": 53,
      "hit": false,
      "t": 173228.07450000022,
      "d": 54.611624999990454,
      "v": 30
    },
    {
      "midi": 69,
      "hit": false,
      "t": 173300.88999999853,
      "d": 72.81549999999697,
      "v": 47
    },
    {
      "midi": 60,
      "hit": false,
      "t": 173300.89000000022,
      "d": 54.611624999990454,
      "v": 39
    },
    {
      "midi": 70,
      "hit": false,
      "t": 173373.70549999853,
      "d": 72.81549999999697,
      "v": 44
    },
    {
      "midi": 53,
      "hit": false,
      "t": 173373.70550000021,
      "d": 54.611624999990454,
      "v": 38
    },
    {
      "midi": 72,
      "hit": false,
      "t": 173446.52099999852,
      "d": 72.81549999999697,
      "v": 44
    },
    {
      "midi": 60,
      "hit": false,
      "t": 173446.5210000002,
      "d": 54.611624999990454,
      "v": 50
    },
    {
      "midi": 69,
      "hit": false,
      "t": 173519.33649999852,
      "d": 72.81549999999697,
      "v": 36
    },
    {
      "midi": 53,
      "hit": false,
      "t": 173519.3365000002,
      "d": 54.611624999990454,
      "v": 51
    },
    {
      "midi": 70,
      "hit": false,
      "t": 173592.15199999852,
      "d": 145.63099999999395,
      "v": 40
    },
    {
      "midi": 49,
      "hit": false,
      "t": 173592.1520000002,
      "d": 54.611624999990454,
      "v": 47
    },
    {
      "midi": 65,
      "hit": false,
      "t": 173664.9675000002,
      "d": 54.611624999990454,
      "v": 47
    },
    {
      "midi": 70,
      "hit": false,
      "t": 173737.7829999985,
      "d": 72.81549999999697,
      "v": 40
    },
    {
      "midi": 73,
      "hit": false,
      "t": 173810.5984999985,
      "d": 72.81549999999697,
      "v": 47
    },
    {
      "midi": 77,
      "hit": false,
      "t": 173883.4139999985,
      "d": 72.81549999999697,
      "v": 36
    },
    {
      "midi": 58,
      "hit": false,
      "t": 173883.4140000002,
      "d": 291.2619999999879,
      "v": 70
    },
    {
      "midi": 78,
      "hit": false,
      "t": 173956.2294999985,
      "d": 72.81549999999697,
      "v": 44
    },
    {
      "midi": 61,
      "hit": false,
      "t": 173956.2295000002,
      "d": 54.611624999990454,
      "v": 48
    },
    {
      "midi": 77,
      "hit": false,
      "t": 174029.0449999985,
      "d": 72.81549999999697,
      "v": 41
    },
    {
      "midi": 65,
      "hit": false,
      "t": 174029.0450000002,
      "d": 54.611624999990454,
      "v": 47
    },
    {
      "midi": 75,
      "hit": false,
      "t": 174101.8604999985,
      "d": 72.81549999999697,
      "v": 40
    },
    {
      "midi": 61,
      "hit": false,
      "t": 174101.86050000018,
      "d": 54.611624999990454,
      "v": 39
    },
    {
      "midi": 73,
      "hit": false,
      "t": 174174.6759999985,
      "d": 72.81549999999697,
      "v": 47
    },
    {
      "midi": 57,
      "hit": false,
      "t": 174174.67600000018,
      "d": 291.2619999999879,
      "v": 85
    },
    {
      "midi": 75,
      "hit": false,
      "t": 174247.4914999985,
      "d": 72.81549999999697,
      "v": 44
    },
    {
      "midi": 61,
      "hit": false,
      "t": 174247.49150000018,
      "d": 54.611624999990454,
      "v": 39
    },
    {
      "midi": 73,
      "hit": false,
      "t": 174320.3069999985,
      "d": 72.81549999999697,
      "v": 50
    },
    {
      "midi": 65,
      "hit": false,
      "t": 174320.30700000018,
      "d": 54.611624999990454,
      "v": 32
    },
    {
      "midi": 72,
      "hit": false,
      "t": 174393.12249999848,
      "d": 72.81549999999697,
      "v": 50
    },
    {
      "midi": 61,
      "hit": false,
      "t": 174393.12250000017,
      "d": 54.611624999990454,
      "v": 36
    },
    {
      "midi": 70,
      "hit": false,
      "t": 174465.93799999848,
      "d": 72.81549999999697,
      "v": 44
    },
    {
      "midi": 82,
      "hit": false,
      "t": 174465.93799999848,
      "d": 291.2619999999879,
      "v": 75
    },
    {
      "midi": 58,
      "hit": false,
      "t": 174465.93800000017,
      "d": 291.2619999999879,
      "v": 70
    },
    {
      "midi": 72,
      "hit": false,
      "t": 174538.75349999848,
      "d": 72.81549999999697,
      "v": 36
    },
    {
      "midi": 61,
      "hit": false,
      "t": 174538.75350000017,
      "d": 54.611624999990454,
      "v": 54
    },
    {
      "midi": 73,
      "hit": false,
      "t": 174611.56899999848,
      "d": 72.81549999999697,
      "v": 50
    },
    {
      "midi": 65,
      "hit": false,
      "t": 174611.56900000016,
      "d": 54.611624999990454,
      "v": 52
    },
    {
      "midi": 70,
      "hit": false,
      "t": 174684.38449999847,
      "d": 72.81549999999697,
      "v": 47
    },
    {
      "midi": 61,
      "hit": false,
      "t": 174684.38450000016,
      "d": 54.611624999990454,
      "v": 54
    },
    {
      "midi": 81,
      "hit": false,
      "t": 174757.19999999847,
      "d": 291.2619999999879,
      "v": 75
    },
    {
      "midi": 49,
      "hit": false,
      "t": 174757.20000000016,
      "d": 54.611624999990454,
      "v": 55
    },
    {
      "midi": 65,
      "hit": false,
      "t": 174830.01550000015,
      "d": 54.611624999990454,
      "v": 47
    },
    {
      "midi": 70,
      "hit": false,
      "t": 174902.83099999846,
      "d": 72.81549999999697,
      "v": 35
    },
    {
      "midi": 73,
      "hit": false,
      "t": 174975.64649999846,
      "d": 72.81549999999697,
      "v": 44
    },
    {
      "midi": 77,
      "hit": false,
      "t": 175048.46199999846,
      "d": 72.81549999999697,
      "v": 52
    },
    {
      "midi": 82,
      "hit": false,
      "t": 175048.46199999846,
      "d": 291.2619999999879,
      "v": 75
    },
    {
      "midi": 58,
      "hit": false,
      "t": 175048.46200000015,
      "d": 291.2619999999879,
      "v": 70
    },
    {
      "midi": 78,
      "hit": false,
      "t": 175121.27749999845,
      "d": 72.81549999999697,
      "v": 55
    },
    {
      "midi": 61,
      "hit": false,
      "t": 175121.27750000014,
      "d": 54.611624999990454,
      "v": 44
    },
    {
      "midi": 77,
      "hit": false,
      "t": 175194.09299999845,
      "d": 72.81549999999697,
      "v": 50
    },
    {
      "midi": 65,
      "hit": false,
      "t": 175194.09300000014,
      "d": 54.611624999990454,
      "v": 36
    },
    {
      "midi": 75,
      "hit": false,
      "t": 175266.90849999845,
      "d": 72.81549999999697,
      "v": 35
    },
    {
      "midi": 61,
      "hit": false,
      "t": 175266.90850000014,
      "d": 54.611624999990454,
      "v": 36
    },
    {
      "midi": 73,
      "hit": false,
      "t": 175339.72399999844,
      "d": 72.81549999999697,
      "v": 50
    },
    {
      "midi": 57,
      "hit": false,
      "t": 175339.72400000013,
      "d": 291.2619999999879,
      "v": 85
    },
    {
      "midi": 75,
      "hit": false,
      "t": 175412.53949999844,
      "d": 72.81549999999697,
      "v": 38
    },
    {
      "midi": 61,
      "hit": false,
      "t": 175412.53950000013,
      "d": 54.611624999990454,
      "v": 48
    },
    {
      "midi": 73,
      "hit": false,
      "t": 175485.35499999844,
      "d": 72.81549999999697,
      "v": 50
    },
    {
      "midi": 65,
      "hit": false,
      "t": 175485.35500000013,
      "d": 54.611624999990454,
      "v": 44
    },
    {
      "midi": 72,
      "hit": false,
      "t": 175558.17049999844,
      "d": 72.81549999999697,
      "v": 41
    },
    {
      "midi": 61,
      "hit": false,
      "t": 175558.17050000012,
      "d": 54.611624999990454,
      "v": 42
    },
    {
      "midi": 70,
      "hit": false,
      "t": 175630.98599999843,
      "d": 72.81549999999697,
      "v": 35
    },
    {
      "midi": 82,
      "hit": false,
      "t": 175630.98599999843,
      "d": 291.2619999999879,
      "v": 75
    },
    {
      "midi": 58,
      "hit": false,
      "t": 175630.98600000012,
      "d": 291.2619999999879,
      "v": 70
    },
    {
      "midi": 72,
      "hit": false,
      "t": 175703.80149999843,
      "d": 72.81549999999697,
      "v": 36
    },
    {
      "midi": 61,
      "hit": false,
      "t": 175703.80150000012,
      "d": 54.611624999990454,
      "v": 48
    },
    {
      "midi": 73,
      "hit": false,
      "t": 175776.61699999843,
      "d": 72.81549999999697,
      "v": 32
    },
    {
      "midi": 65,
      "hit": false,
      "t": 175776.61700000011,
      "d": 54.611624999990454,
      "v": 44
    },
    {
      "midi": 70,
      "hit": false,
      "t": 175849.43249999842,
      "d": 72.81549999999697,
      "v": 38
    },
    {
      "midi": 61,
      "hit": false,
      "t": 175849.4325000001,
      "d": 54.611624999990454,
      "v": 42
    },
    {
      "midi": 71,
      "hit": false,
      "t": 175922.24799999842,
      "d": 72.81549999999697,
      "v": 32
    },
    {
      "midi": 83,
      "hit": false,
      "t": 175922.24799999842,
      "d": 72.81549999999697,
      "v": 80
    },
    {
      "midi": 51,
      "hit": false,
      "t": 175922.2480000001,
      "d": 54.611624999990454,
      "v": 63
    },
    {
      "midi": 78,
      "hit": false,
      "t": 175995.06349999842,
      "d": 72.81549999999697,
      "v": 50
    },
    {
      "midi": 66,
      "hit": false,
      "t": 175995.0635000001,
      "d": 54.611624999990454,
      "v": 44
    },
    {
      "midi": 71,
      "hit": false,
      "t": 175995.0635000001,
      "d": 54.611624999990454,
      "v": 39
    },
    {
      "midi": 83,
      "hit": false,
      "t": 176067.87899999841,
      "d": 72.81549999999697,
      "v": 47
    },
    {
      "midi": 63,
      "hit": false,
      "t": 176067.8790000001,
      "d": 54.611624999990454,
      "v": 50
    },
    {
      "midi": 87,
      "hit": false,
      "t": 176140.6944999984,
      "d": 72.81549999999697,
      "v": 58
    },
    {
      "midi": 66,
      "hit": false,
      "t": 176140.6945000001,
      "d": 54.611624999990454,
      "v": 47
    },
    {
      "midi": 71,
      "hit": false,
      "t": 176140.6945000001,
      "d": 54.611624999990454,
      "v": 32
    },
    {
      "midi": 90,
      "hit": false,
      "t": 176213.5099999984,
      "d": 72.81549999999697,
      "v": 58
    },
    {
      "midi": 63,
      "hit": false,
      "t": 176213.5100000001,
      "d": 54.611624999990454,
      "v": 55
    },
    {
      "midi": 92,
      "hit": false,
      "t": 176286.3254999984,
      "d": 72.81549999999697,
      "v": 58
    },
    {
      "midi": 66,
      "hit": false,
      "t": 176286.3255000001,
      "d": 54.611624999990454,
      "v": 40
    },
    {
      "midi": 71,
      "hit": false,
      "t": 176286.3255000001,
      "d": 54.611624999990454,
      "v": 36
    },
    {
      "midi": 90,
      "hit": false,
      "t": 176359.1409999984,
      "d": 72.81549999999697,
      "v": 58
    },
    {
      "midi": 63,
      "hit": false,
      "t": 176359.1410000001,
      "d": 54.611624999990454,
      "v": 47
    },
    {
      "midi": 89,
      "hit": false,
      "t": 176431.9564999984,
      "d": 72.81549999999697,
      "v": 59
    },
    {
      "midi": 66,
      "hit": false,
      "t": 176431.9565000001,
      "d": 54.611624999990454,
      "v": 27
    },
    {
      "midi": 71,
      "hit": false,
      "t": 176431.9565000001,
      "d": 54.611624999990454,
      "v": 26
    },
    {
      "midi": 87,
      "hit": false,
      "t": 176504.7719999984,
      "d": 72.81549999999697,
      "v": 58
    },
    {
      "midi": 63,
      "hit": false,
      "t": 176504.77200000008,
      "d": 54.611624999990454,
      "v": 55
    },
    {
      "midi": 89,
      "hit": false,
      "t": 176577.5874999984,
      "d": 72.81549999999697,
      "v": 47
    },
    {
      "midi": 66,
      "hit": false,
      "t": 176577.58750000008,
      "d": 54.611624999990454,
      "v": 24
    },
    {
      "midi": 71,
      "hit": false,
      "t": 176577.58750000008,
      "d": 54.611624999990454,
      "v": 41
    },
    {
      "midi": 87,
      "hit": false,
      "t": 176650.4029999984,
      "d": 72.81549999999697,
      "v": 55
    },
    {
      "midi": 63,
      "hit": false,
      "t": 176650.40300000008,
      "d": 54.611624999990454,
      "v": 44
    },
    {
      "midi": 85,
      "hit": false,
      "t": 176723.2184999984,
      "d": 72.81549999999697,
      "v": 50
    },
    {
      "midi": 66,
      "hit": false,
      "t": 176723.21850000008,
      "d": 54.611624999990454,
      "v": 38
    },
    {
      "midi": 71,
      "hit": false,
      "t": 176723.21850000008,
      "d": 54.611624999990454,
      "v": 23
    },
    {
      "midi": 83,
      "hit": false,
      "t": 176796.03399999838,
      "d": 72.81549999999697,
      "v": 52
    },
    {
      "midi": 63,
      "hit": false,
      "t": 176796.03400000007,
      "d": 54.611624999990454,
      "v": 55
    },
    {
      "midi": 85,
      "hit": false,
      "t": 176868.84949999838,
      "d": 72.81549999999697,
      "v": 55
    },
    {
      "midi": 66,
      "hit": false,
      "t": 176868.84950000007,
      "d": 54.611624999990454,
      "v": 32
    },
    {
      "midi": 71,
      "hit": false,
      "t": 176868.84950000007,
      "d": 54.611624999990454,
      "v": 36
    },
    {
      "midi": 83,
      "hit": false,
      "t": 176941.66499999838,
      "d": 72.81549999999697,
      "v": 50
    },
    {
      "midi": 63,
      "hit": false,
      "t": 176941.66500000007,
      "d": 54.611624999990454,
      "v": 50
    },
    {
      "midi": 82,
      "hit": false,
      "t": 177014.48049999838,
      "d": 72.81549999999697,
      "v": 55
    },
    {
      "midi": 66,
      "hit": false,
      "t": 177014.48050000006,
      "d": 54.611624999990454,
      "v": 27
    },
    {
      "midi": 71,
      "hit": false,
      "t": 177014.48050000006,
      "d": 54.611624999990454,
      "v": 34
    },
    {
      "midi": 81,
      "hit": false,
      "t": 177087.29599999837,
      "d": 72.81549999999697,
      "v": 52
    },
    {
      "midi": 65,
      "hit": false,
      "t": 177087.29600000006,
      "d": 54.611624999990454,
      "v": 59
    },
    {
      "midi": 84,
      "hit": false,
      "t": 177160.11149999837,
      "d": 72.81549999999697,
      "v": 50
    },
    {
      "midi": 69,
      "hit": false,
      "t": 177160.11150000006,
      "d": 54.611624999990454,
      "v": 41
    },
    {
      "midi": 75,
      "hit": false,
      "t": 177160.11150000006,
      "d": 54.611624999990454,
      "v": 58
    },
    {
      "midi": 87,
      "hit": false,
      "t": 177232.92699999837,
      "d": 72.81549999999697,
      "v": 58
    },
    {
      "midi": 65,
      "hit": false,
      "t": 177232.92700000005,
      "d": 54.611624999990454,
      "v": 50
    },
    {
      "midi": 85,
      "hit": false,
      "t": 177305.74249999836,
      "d": 72.81549999999697,
      "v": 55
    },
    {
      "midi": 69,
      "hit": false,
      "t": 177305.74250000005,
      "d": 54.611624999990454,
      "v": 39
    },
    {
      "midi": 75,
      "hit": false,
      "t": 177305.74250000005,
      "d": 54.611624999990454,
      "v": 47
    },
    {
      "midi": 84,
      "hit": false,
      "t": 177378.55799999836,
      "d": 72.81549999999697,
      "v": 50
    },
    {
      "midi": 65,
      "hit": false,
      "t": 177378.55800000005,
      "d": 54.611624999990454,
      "v": 52
    },
    {
      "midi": 85,
      "hit": false,
      "t": 177451.37349999836,
      "d": 72.81549999999697,
      "v": 55
    },
    {
      "midi": 69,
      "hit": false,
      "t": 177451.37350000005,
      "d": 54.611624999990454,
      "v": 41
    },
    {
      "midi": 75,
      "hit": false,
      "t": 177451.37350000005,
      "d": 54.611624999990454,
      "v": 44
    },
    {
      "midi": 84,
      "hit": false,
      "t": 177524.18899999835,
      "d": 72.81549999999697,
      "v": 44
    },
    {
      "midi": 65,
      "hit": false,
      "t": 177524.18900000004,
      "d": 54.611624999990454,
      "v": 56
    },
    {
      "midi": 82,
      "hit": false,
      "t": 177597.00449999835,
      "d": 72.81549999999697,
      "v": 50
    },
    {
      "midi": 69,
      "hit": false,
      "t": 177597.00450000004,
      "d": 54.611624999990454,
      "v": 44
    },
    {
      "midi": 75,
      "hit": false,
      "t": 177597.00450000004,
      "d": 54.611624999990454,
      "v": 50
    },
    {
      "midi": 81,
      "hit": false,
      "t": 177669.81999999835,
      "d": 72.81549999999697,
      "v": 50
    },
    {
      "midi": 65,
      "hit": false,
      "t": 177669.82000000004,
      "d": 54.611624999990454,
      "v": 41
    },
    {
      "midi": 82,
      "hit": false,
      "t": 177742.63549999835,
      "d": 72.81549999999697,
      "v": 55
    },
    {
      "midi": 69,
      "hit": false,
      "t": 177742.63550000003,
      "d": 54.611624999990454,
      "v": 39
    },
    {
      "midi": 81,
      "hit": false,
      "t": 177815.45099999834,
      "d": 72.81549999999697,
      "v": 41
    },
    {
      "midi": 65,
      "hit": false,
      "t": 177815.45100000003,
      "d": 54.611624999990454,
      "v": 44
    },
    {
      "midi": 78,
      "hit": false,
      "t": 177888.26649999834,
      "d": 72.81549999999697,
      "v": 44
    },
    {
      "midi": 69,
      "hit": false,
      "t": 177888.26650000003,
      "d": 54.611624999990454,
      "v": 44
    },
    {
      "midi": 77,
      "hit": false,
      "t": 177961.08199999834,
      "d": 72.81549999999697,
      "v": 56
    },
    {
      "midi": 53,
      "hit": false,
      "t": 177961.08200000002,
      "d": 54.611624999990454,
      "v": 51
    },
    {
      "midi": 75,
      "hit": false,
      "t": 178033.89749999833,
      "d": 72.81549999999697,
      "v": 55
    },
    {
      "midi": 65,
      "hit": false,
      "t": 178033.89750000002,
      "d": 54.611624999990454,
      "v": 44
    },
    {
      "midi": 73,
      "hit": false,
      "t": 178106.71299999833,
      "d": 72.81549999999697,
      "v": 40
    },
    {
      "midi": 53,
      "hit": false,
      "t": 178106.71300000002,
      "d": 54.611624999990454,
      "v": 51
    },
    {
      "midi": 72,
      "hit": false,
      "t": 178179.52849999833,
      "d": 72.81549999999697,
      "v": 52
    },
    {
      "midi": 65,
      "hit": false,
      "t": 178179.52850000001,
      "d": 54.611624999990454,
      "v": 50
    },
    {
      "midi": 70,
      "hit": false,
      "t": 178252.34399999832,
      "d": 72.81549999999697,
      "v": 58
    },
    {
      "midi": 46,
      "hit": false,
      "t": 178252.344,
      "d": 109.22325000001001,
      "v": 33
    },
    {
      "midi": 77,
      "hit": false,
      "t": 178397.97499999832,
      "d": 145.63099999999395,
      "v": 70
    },
    {
      "midi": 58,
      "hit": false,
      "t": 178397.97500000003,
      "d": 54.611624999990454,
      "v": 70
    },
    {
      "midi": 61,
      "hit": false,
      "t": 178397.97500000003,
      "d": 54.611624999990454,
      "v": 70
    },
    {
      "midi": 65,
      "hit": false,
      "t": 178470.79050000003,
      "d": 54.611624999990454,
      "v": 39
    },
    {
      "midi": 58,
      "hit": false,
      "t": 178543.60600000003,
      "d": 54.611624999990454,
      "v": 44
    },
    {
      "midi": 61,
      "hit": false,
      "t": 178543.60600000003,
      "d": 54.611624999990454,
      "v": 28
    },
    {
      "midi": 65,
      "hit": false,
      "t": 178616.42150000003,
      "d": 54.611624999990454,
      "v": 36
    },
    {
      "midi": 77,
      "hit": false,
      "t": 178689.2369999983,
      "d": 72.81549999999697,
      "v": 56
    },
    {
      "midi": 58,
      "hit": false,
      "t": 178689.23700000002,
      "d": 54.611624999990454,
      "v": 44
    },
    {
      "midi": 61,
      "hit": false,
      "t": 178689.23700000002,
      "d": 54.611624999990454,
      "v": 23
    },
    {
      "midi": 65,
      "hit": false,
      "t": 178762.05250000002,
      "d": 54.611624999990454,
      "v": 31
    },
    {
      "midi": 77,
      "hit": false,
      "t": 178834.8679999983,
      "d": 72.81549999999697,
      "v": 67
    },
    {
      "midi": 58,
      "hit": false,
      "t": 178834.86800000002,
      "d": 54.611624999990454,
      "v": 38
    },
    {
      "midi": 61,
      "hit": false,
      "t": 178834.86800000002,
      "d": 54.611624999990454,
      "v": 31
    },
    {
      "midi": 65,
      "hit": false,
      "t": 178907.6835,
      "d": 54.611624999990454,
      "v": 47
    },
    {
      "midi": 78,
      "hit": false,
      "t": 178980.4989999983,
      "d": 145.63099999999395,
      "v": 68
    },
    {
      "midi": 58,
      "hit": false,
      "t": 178980.499,
      "d": 54.611624999990454,
      "v": 70
    },
    {
      "midi": 61,
      "hit": false,
      "t": 178980.499,
      "d": 54.611624999990454,
      "v": 70
    },
    {
      "midi": 64,
      "hit": false,
      "t": 179053.3145,
      "d": 54.611624999990454,
      "v": 47
    },
    {
      "midi": 58,
      "hit": false,
      "t": 179126.13,
      "d": 54.611624999990454,
      "v": 47
    },
    {
      "midi": 61,
      "hit": false,
      "t": 179126.13,
      "d": 54.611624999990454,
      "v": 18
    },
    {
      "midi": 64,
      "hit": false,
      "t": 179198.9455,
      "d": 54.611624999990454,
      "v": 42
    },
    {
      "midi": 78,
      "hit": false,
      "t": 179271.76099999828,
      "d": 72.81549999999697,
      "v": 63
    },
    {
      "midi": 58,
      "hit": false,
      "t": 179271.761,
      "d": 54.611624999990454,
      "v": 47
    },
    {
      "midi": 61,
      "hit": false,
      "t": 179271.761,
      "d": 54.611624999990454,
      "v": 42
    },
    {
      "midi": 64,
      "hit": false,
      "t": 179344.5765,
      "d": 54.611624999990454,
      "v": 42
    },
    {
      "midi": 78,
      "hit": false,
      "t": 179417.39199999828,
      "d": 72.81549999999697,
      "v": 68
    },
    {
      "midi": 57,
      "hit": false,
      "t": 179417.392,
      "d": 54.611624999990454,
      "v": 47
    },
    {
      "midi": 60,
      "hit": false,
      "t": 179417.392,
      "d": 54.611624999990454,
      "v": 47
    },
    {
      "midi": 64,
      "hit": false,
      "t": 179490.2075,
      "d": 54.611624999990454,
      "v": 42
    },
    {
      "midi": 77,
      "hit": false,
      "t": 179563.02299999827,
      "d": 145.63099999999395,
      "v": 75
    },
    {
      "midi": 57,
      "hit": false,
      "t": 179563.023,
      "d": 54.611624999990454,
      "v": 70
    },
    {
      "midi": 60,
      "hit": false,
      "t": 179563.023,
      "d": 54.611624999990454,
      "v": 70
    },
    {
      "midi": 65,
      "hit": false,
      "t": 179635.83849999998,
      "d": 54.611624999990454,
      "v": 47
    },
    {
      "midi": 57,
      "hit": false,
      "t": 179708.65399999998,
      "d": 54.611624999990454,
      "v": 44
    },
    {
      "midi": 60,
      "hit": false,
      "t": 179708.65399999998,
      "d": 54.611624999990454,
      "v": 39
    },
    {
      "midi": 65,
      "hit": false,
      "t": 179781.46949999998,
      "d": 54.611624999990454,
      "v": 47
    },
    {
      "midi": 77,
      "hit": false,
      "t": 179854.28499999826,
      "d": 72.81549999999697,
      "v": 70
    },
    {
      "midi": 57,
      "hit": false,
      "t": 179854.28499999997,
      "d": 54.611624999990454,
      "v": 47
    },
    {
      "midi": 60,
      "hit": false,
      "t": 179854.28499999997,
      "d": 54.611624999990454,
      "v": 47
    },
    {
      "midi": 65,
      "hit": false,
      "t": 179927.10049999997,
      "d": 54.611624999990454,
      "v": 50
    },
    {
      "midi": 77,
      "hit": false,
      "t": 179999.91599999825,
      "d": 72.81549999999697,
      "v": 44
    },
    {
      "midi": 57,
      "hit": false,
      "t": 179999.91599999997,
      "d": 54.611624999990454,
      "v": 35
    },
    {
      "midi": 60,
      "hit": false,
      "t": 179999.91599999997,
      "d": 54.611624999990454,
      "v": 29
    },
    {
      "midi": 65,
      "hit": false,
      "t": 180072.73149999997,
      "d": 54.611624999990454,
      "v": 31
    },
    {
      "midi": 72,
      "hit": false,
      "t": 180145.54699999825,
      "d": 72.81549999999697,
      "v": 31
    },
    {
      "midi": 57,
      "hit": false,
      "t": 180145.54699999996,
      "d": 54.611624999990454,
      "v": 27
    },
    {
      "midi": 60,
      "hit": false,
      "t": 180145.54699999996,
      "d": 54.611624999990454,
      "v": 22
    },
    {
      "midi": 65,
      "hit": false,
      "t": 180218.36249999996,
      "d": 54.611624999990454,
      "v": 33
    },
    {
      "midi": 73,
      "hit": false,
      "t": 180291.17799999824,
      "d": 72.81549999999697,
      "v": 39
    },
    {
      "midi": 57,
      "hit": false,
      "t": 180291.17799999996,
      "d": 54.611624999990454,
      "v": 31
    },
    {
      "midi": 60,
      "hit": false,
      "t": 180291.17799999996,
      "d": 54.611624999990454,
      "v": 20
    },
    {
      "midi": 65,
      "hit": false,
      "t": 180363.99349999995,
      "d": 54.611624999990454,
      "v": 29
    },
    {
      "midi": 75,
      "hit": false,
      "t": 180436.80899999823,
      "d": 72.81549999999697,
      "v": 39
    },
    {
      "midi": 57,
      "hit": false,
      "t": 180436.80899999995,
      "d": 54.611624999990454,
      "v": 27
    },
    {
      "midi": 60,
      "hit": false,
      "t": 180436.80899999995,
      "d": 54.611624999990454,
      "v": 24
    },
    {
      "midi": 65,
      "hit": false,
      "t": 180509.62449999995,
      "d": 54.611624999990454,
      "v": 29
    },
    {
      "midi": 73,
      "hit": false,
      "t": 180582.43999999823,
      "d": 72.81549999999697,
      "v": 63
    },
    {
      "midi": 58,
      "hit": false,
      "t": 180582.43999999994,
      "d": 54.611624999990454,
      "v": 44
    },
    {
      "midi": 61,
      "hit": false,
      "t": 180582.43999999994,
      "d": 54.611624999990454,
      "v": 51
    },
    {
      "midi": 65,
      "hit": false,
      "t": 180655.25549999994,
      "d": 54.611624999990454,
      "v": 47
    },
    {
      "midi": 77,
      "hit": false,
      "t": 180728.07099999822,
      "d": 145.63099999999395,
      "v": 56
    },
    {
      "midi": 89,
      "hit": false,
      "t": 180728.07099999822,
      "d": 145.63099999999395,
      "v": 62
    },
    {
      "midi": 58,
      "hit": false,
      "t": 180728.07099999994,
      "d": 54.611624999990454,
      "v": 70
    },
    {
      "midi": 61,
      "hit": false,
      "t": 180728.07099999994,
      "d": 54.611624999990454,
      "v": 70
    },
    {
      "midi": 65,
      "hit": false,
      "t": 180800.88649999994,
      "d": 54.611624999990454,
      "v": 47
    },
    {
      "midi": 58,
      "hit": false,
      "t": 180873.70199999993,
      "d": 54.611624999990454,
      "v": 47
    },
    {
      "midi": 61,
      "hit": false,
      "t": 180873.70199999993,
      "d": 54.611624999990454,
      "v": 42
    },
    {
      "midi": 65,
      "hit": false,
      "t": 180946.51749999993,
      "d": 54.611624999990454,
      "v": 34
    },
    {
      "midi": 77,
      "hit": false,
      "t": 181019.3329999982,
      "d": 72.81549999999697,
      "v": 50
    },
    {
      "midi": 89,
      "hit": false,
      "t": 181019.3329999982,
      "d": 72.81549999999697,
      "v": 62
    },
    {
      "midi": 58,
      "hit": false,
      "t": 181019.33299999993,
      "d": 54.611624999990454,
      "v": 63
    },
    {
      "midi": 61,
      "hit": false,
      "t": 181019.33299999993,
      "d": 54.611624999990454,
      "v": 13
    },
    {
      "midi": 65,
      "hit": false,
      "t": 181092.14849999992,
      "d": 54.611624999990454,
      "v": 50
    },
    {
      "midi": 77,
      "hit": false,
      "t": 181164.9639999982,
      "d": 72.81549999999697,
      "v": 47
    },
    {
      "midi": 89,
      "hit": false,
      "t": 181164.9639999982,
      "d": 72.81549999999697,
      "v": 59
    },
    {
      "midi": 58,
      "hit": false,
      "t": 181164.96399999992,
      "d": 54.611624999990454,
      "v": 50
    },
    {
      "midi": 61,
      "hit": false,
      "t": 181164.96399999992,
      "d": 54.611624999990454,
      "v": 51
    },
    {
      "midi": 65,
      "hit": false,
      "t": 181237.77949999992,
      "d": 54.611624999990454,
      "v": 44
    },
    {
      "midi": 78,
      "hit": false,
      "t": 181310.5949999982,
      "d": 145.63099999999395,
      "v": 58
    },
    {
      "midi": 90,
      "hit": false,
      "t": 181310.5949999982,
      "d": 145.63099999999395,
      "v": 74
    },
    {
      "midi": 58,
      "hit": false,
      "t": 181310.5949999999,
      "d": 54.611624999990454,
      "v": 70
    },
    {
      "midi": 61,
      "hit": false,
      "t": 181310.5949999999,
      "d": 54.611624999990454,
      "v": 70
    },
    {
      "midi": 64,
      "hit": false,
      "t": 181383.4104999999,
      "d": 54.611624999990454,
      "v": 49
    },
    {
      "midi": 58,
      "hit": false,
      "t": 181456.2259999999,
      "d": 54.611624999990454,
      "v": 40
    },
    {
      "midi": 61,
      "hit": false,
      "t": 181456.2259999999,
      "d": 54.611624999990454,
      "v": 39
    },
    {
      "midi": 64,
      "hit": false,
      "t": 181529.0414999999,
      "d": 54.611624999990454,
      "v": 40
    },
    {
      "midi": 78,
      "hit": false,
      "t": 181601.85699999818,
      "d": 72.81549999999697,
      "v": 38
    },
    {
      "midi": 90,
      "hit": false,
      "t": 181601.85699999818,
      "d": 72.81549999999697,
      "v": 68
    },
    {
      "midi": 58,
      "hit": false,
      "t": 181601.8569999999,
      "d": 54.611624999990454,
      "v": 44
    },
    {
      "midi": 61,
      "hit": false,
      "t": 181601.8569999999,
      "d": 54.611624999990454,
      "v": 42
    },
    {
      "midi": 64,
      "hit": false,
      "t": 181674.6724999999,
      "d": 54.611624999990454,
      "v": 42
    },
    {
      "midi": 78,
      "hit": false,
      "t": 181747.48799999818,
      "d": 72.81549999999697,
      "v": 40
    },
    {
      "midi": 90,
      "hit": false,
      "t": 181747.48799999818,
      "d": 72.81549999999697,
      "v": 63
    },
    {
      "midi": 57,
      "hit": false,
      "t": 181747.4879999999,
      "d": 54.611624999990454,
      "v": 41
    },
    {
      "midi": 60,
      "hit": false,
      "t": 181747.4879999999,
      "d": 54.611624999990454,
      "v": 52
    },
    {
      "midi": 64,
      "hit": false,
      "t": 181820.3034999999,
      "d": 54.611624999990454,
      "v": 40
    },
    {
      "midi": 77,
      "hit": false,
      "t": 181893.11899999817,
      "d": 145.63099999999395,
      "v": 52
    },
    {
      "midi": 89,
      "hit": false,
      "t": 181893.11899999817,
      "d": 145.63099999999395,
      "v": 67
    },
    {
      "midi": 57,
      "hit": false,
      "t": 181893.1189999999,
      "d": 54.611624999990454,
      "v": 70
    },
    {
      "midi": 60,
      "hit": false,
      "t": 181893.1189999999,
      "d": 54.611624999990454,
      "v": 70
    },
    {
      "midi": 65,
      "hit": false,
      "t": 181965.9344999999,
      "d": 54.611624999990454,
      "v": 44
    },
    {
      "midi": 57,
      "hit": false,
      "t": 182038.74999999988,
      "d": 54.611624999990454,
      "v": 39
    },
    {
      "midi": 60,
      "hit": false,
      "t": 182038.74999999988,
      "d": 54.611624999990454,
      "v": 50
    },
    {
      "midi": 65,
      "hit": false,
      "t": 182111.56549999988,
      "d": 54.611624999990454,
      "v": 34
    },
    {
      "midi": 77,
      "hit": false,
      "t": 182184.38099999816,
      "d": 72.81549999999697,
      "v": 44
    },
    {
      "midi": 89,
      "hit": false,
      "t": 182184.38099999816,
      "d": 72.81549999999697,
      "v": 59
    },
    {
      "midi": 57,
      "hit": false,
      "t": 182184.38099999988,
      "d": 54.611624999990454,
      "v": 44
    },
    {
      "midi": 60,
      "hit": false,
      "t": 182184.38099999988,
      "d": 54.611624999990454,
      "v": 32
    },
    {
      "midi": 65,
      "hit": false,
      "t": 182257.19649999987,
      "d": 54.611624999990454,
      "v": 47
    },
    {
      "midi": 77,
      "hit": false,
      "t": 182330.01199999815,
      "d": 72.81549999999697,
      "v": 35
    },
    {
      "midi": 89,
      "hit": false,
      "t": 182330.01199999815,
      "d": 72.81549999999697,
      "v": 46
    },
    {
      "midi": 57,
      "hit": false,
      "t": 182330.01199999987,
      "d": 54.611624999990454,
      "v": 35
    },
    {
      "midi": 60,
      "hit": false,
      "t": 182330.01199999987,
      "d": 54.611624999990454,
      "v": 35
    },
    {
      "midi": 65,
      "hit": false,
      "t": 182402.82749999987,
      "d": 54.611624999990454,
      "v": 37
    },
    {
      "midi": 72,
      "hit": false,
      "t": 182475.64299999815,
      "d": 72.81549999999697,
      "v": 33
    },
    {
      "midi": 84,
      "hit": false,
      "t": 182475.64299999815,
      "d": 72.81549999999697,
      "v": 39
    },
    {
      "midi": 57,
      "hit": false,
      "t": 182475.64299999987,
      "d": 54.611624999990454,
      "v": 33
    },
    {
      "midi": 60,
      "hit": false,
      "t": 182475.64299999987,
      "d": 54.611624999990454,
      "v": 35
    },
    {
      "midi": 65,
      "hit": false,
      "t": 182548.45849999986,
      "d": 54.611624999990454,
      "v": 37
    },
    {
      "midi": 73,
      "hit": false,
      "t": 182621.27399999814,
      "d": 72.81549999999697,
      "v": 35
    },
    {
      "midi": 85,
      "hit": false,
      "t": 182621.27399999814,
      "d": 72.81549999999697,
      "v": 51
    },
    {
      "midi": 57,
      "hit": false,
      "t": 182621.27399999986,
      "d": 54.611624999990454,
      "v": 35
    },
    {
      "midi": 60,
      "hit": false,
      "t": 182621.27399999986,
      "d": 54.611624999990454,
      "v": 35
    },
    {
      "midi": 65,
      "hit": false,
      "t": 182694.08949999986,
      "d": 54.611624999990454,
      "v": 37
    },
    {
      "midi": 75,
      "hit": false,
      "t": 182766.90499999814,
      "d": 72.81549999999697,
      "v": 30
    },
    {
      "midi": 87,
      "hit": false,
      "t": 182766.90499999814,
      "d": 72.81549999999697,
      "v": 47
    },
    {
      "midi": 57,
      "hit": false,
      "t": 182766.90499999985,
      "d": 54.611624999990454,
      "v": 30
    },
    {
      "midi": 60,
      "hit": false,
      "t": 182766.90499999985,
      "d": 54.611624999990454,
      "v": 30
    },
    {
      "midi": 65,
      "hit": false,
      "t": 182839.72049999985,
      "d": 54.611624999990454,
      "v": 37
    },
    {
      "midi": 73,
      "hit": false,
      "t": 182912.53599999813,
      "d": 72.81549999999697,
      "v": 38
    },
    {
      "midi": 85,
      "hit": false,
      "t": 182912.53599999813,
      "d": 72.81549999999697,
      "v": 50
    },
    {
      "midi": 58,
      "hit": false,
      "t": 182912.53599999985,
      "d": 54.611624999990454,
      "v": 47
    },
    {
      "midi": 61,
      "hit": false,
      "t": 182912.53599999985,
      "d": 54.611624999990454,
      "v": 51
    },
    {
      "midi": 65,
      "hit": false,
      "t": 182985.35149999984,
      "d": 54.611624999990454,
      "v": 52
    },
    {
      "midi": 72,
      "hit": false,
      "t": 183058.16699999812,
      "d": 145.63099999999395,
      "v": 62
    },
    {
      "midi": 52,
      "hit": false,
      "t": 183058.16699999984,
      "d": 54.611624999990454,
      "v": 70
    },
    {
      "midi": 55,
      "hit": false,
      "t": 183058.16699999984,
      "d": 54.611624999990454,
      "v": 70
    },
    {
      "midi": 60,
      "hit": false,
      "t": 183130.98249999984,
      "d": 54.611624999990454,
      "v": 52
    },
    {
      "midi": 52,
      "hit": false,
      "t": 183203.79799999984,
      "d": 54.611624999990454,
      "v": 44
    },
    {
      "midi": 55,
      "hit": false,
      "t": 183203.79799999984,
      "d": 54.611624999990454,
      "v": 36
    },
    {
      "midi": 60,
      "hit": false,
      "t": 183276.61349999983,
      "d": 54.611624999990454,
      "v": 44
    },
    {
      "midi": 72,
      "hit": false,
      "t": 183349.4289999981,
      "d": 72.81549999999697,
      "v": 59
    },
    {
      "midi": 52,
      "hit": false,
      "t": 183349.42899999983,
      "d": 54.611624999990454,
      "v": 52
    },
    {
      "midi": 55,
      "hit": false,
      "t": 183349.42899999983,
      "d": 54.611624999990454,
      "v": 44
    },
    {
      "midi": 60,
      "hit": false,
      "t": 183422.24449999983,
      "d": 54.611624999990454,
      "v": 50
    },
    {
      "midi": 72,
      "hit": false,
      "t": 183495.0599999981,
      "d": 72.81549999999697,
      "v": 62
    },
    {
      "midi": 53,
      "hit": false,
      "t": 183495.05999999982,
      "d": 54.611624999990454,
      "v": 54
    },
    {
      "midi": 56,
      "hit": false,
      "t": 183495.05999999982,
      "d": 54.611624999990454,
      "v": 62
    },
    {
      "midi": 60,
      "hit": false,
      "t": 183567.87549999982,
      "d": 54.611624999990454,
      "v": 36
    },
    {
      "midi": 71,
      "hit": false,
      "t": 183640.6909999981,
      "d": 145.63099999999395,
      "v": 59
    },
    {
      "midi": 53,
      "hit": false,
      "t": 183640.69099999982,
      "d": 54.611624999990454,
      "v": 70
    },
    {
      "midi": 56,
      "hit": false,
      "t": 183640.69099999982,
      "d": 54.611624999990454,
      "v": 70
    },
    {
      "midi": 62,
      "hit": false,
      "t": 183713.5064999998,
      "d": 54.611624999990454,
      "v": 47
    },
    {
      "midi": 53,
      "hit": false,
      "t": 183786.3219999998,
      "d": 54.611624999990454,
      "v": 38
    },
    {
      "midi": 56,
      "hit": false,
      "t": 183786.3219999998,
      "d": 54.611624999990454,
      "v": 51
    },
    {
      "midi": 62,
      "hit": false,
      "t": 183859.1374999998,
      "d": 54.611624999990454,
      "v": 36
    },
    {
      "midi": 71,
      "hit": false,
      "t": 183931.9529999981,
      "d": 72.81549999999697,
      "v": 59
    },
    {
      "midi": 53,
      "hit": false,
      "t": 183931.9529999998,
      "d": 54.611624999990454,
      "v": 45
    },
    {
      "midi": 56,
      "hit": false,
      "t": 183931.9529999998,
      "d": 54.611624999990454,
      "v": 59
    },
    {
      "midi": 62,
      "hit": false,
      "t": 184004.7684999998,
      "d": 54.611624999990454,
      "v": 47
    },
    {
      "midi": 71,
      "hit": false,
      "t": 184077.58399999808,
      "d": 72.81549999999697,
      "v": 59
    },
    {
      "midi": 52,
      "hit": false,
      "t": 184077.5839999998,
      "d": 54.611624999990454,
      "v": 62
    },
    {
      "midi": 55,
      "hit": false,
      "t": 184077.5839999998,
      "d": 54.611624999990454,
      "v": 52
    },
    {
      "midi": 62,
      "hit": false,
      "t": 184150.3994999998,
      "d": 54.611624999990454,
      "v": 47
    },
    {
      "midi": 72,
      "hit": false,
      "t": 184223.21499999808,
      "d": 145.63099999999395,
      "v": 67
    },
    {
      "midi": 52,
      "hit": false,
      "t": 184223.2149999998,
      "d": 54.611624999990454,
      "v": 50
    },
    {
      "midi": 55,
      "hit": false,
      "t": 184223.2149999998,
      "d": 54.611624999990454,
      "v": 70
    },
    {
      "midi": 60,
      "hit": false,
      "t": 184296.0304999998,
      "d": 54.611624999990454,
      "v": 50
    },
    {
      "midi": 52,
      "hit": false,
      "t": 184368.8459999998,
      "d": 54.611624999990454,
      "v": 52
    },
    {
      "midi": 55,
      "hit": false,
      "t": 184368.8459999998,
      "d": 54.611624999990454,
      "v": 52
    },
    {
      "midi": 60,
      "hit": false,
      "t": 184441.66149999978,
      "d": 54.611624999990454,
      "v": 50
    },
    {
      "midi": 72,
      "hit": false,
      "t": 184514.47699999806,
      "d": 72.81549999999697,
      "v": 59
    },
    {
      "midi": 52,
      "hit": false,
      "t": 184514.47699999978,
      "d": 54.611624999990454,
      "v": 50
    },
    {
      "midi": 55,
      "hit": false,
      "t": 184514.47699999978,
      "d": 54.611624999990454,
      "v": 52
    },
    {
      "midi": 60,
      "hit": false,
      "t": 184587.29249999978,
      "d": 54.611624999990454,
      "v": 47
    },
    {
      "midi": 72,
      "hit": false,
      "t": 184660.10799999806,
      "d": 72.81549999999697,
      "v": 46
    },
    {
      "midi": 52,
      "hit": false,
      "t": 184660.10799999977,
      "d": 54.611624999990454,
      "v": 30
    },
    {
      "midi": 55,
      "hit": false,
      "t": 184660.10799999977,
      "d": 54.611624999990454,
      "v": 27
    },
    {
      "midi": 60,
      "hit": false,
      "t": 184732.92349999977,
      "d": 54.611624999990454,
      "v": 39
    },
    {
      "midi": 67,
      "hit": false,
      "t": 184805.73899999805,
      "d": 72.81549999999697,
      "v": 42
    },
    {
      "midi": 52,
      "hit": false,
      "t": 184805.73899999977,
      "d": 54.611624999990454,
      "v": 35
    },
    {
      "midi": 55,
      "hit": false,
      "t": 184805.73899999977,
      "d": 54.611624999990454,
      "v": 35
    },
    {
      "midi": 60,
      "hit": false,
      "t": 184878.55449999977,
      "d": 54.611624999990454,
      "v": 35
    },
    {
      "midi": 68,
      "hit": false,
      "t": 184951.36999999805,
      "d": 72.81549999999697,
      "v": 43
    },
    {
      "midi": 52,
      "hit": false,
      "t": 184951.36999999976,
      "d": 54.611624999990454,
      "v": 33
    },
    {
      "midi": 55,
      "hit": false,
      "t": 184951.36999999976,
      "d": 54.611624999990454,
      "v": 24
    },
    {
      "midi": 60,
      "hit": false,
      "t": 185024.18549999976,
      "d": 54.611624999990454,
      "v": 37
    },
    {
      "midi": 70,
      "hit": false,
      "t": 185097.00099999804,
      "d": 72.81549999999697,
      "v": 41
    },
    {
      "midi": 52,
      "hit": false,
      "t": 185097.00099999976,
      "d": 54.611624999990454,
      "v": 30
    },
    {
      "midi": 55,
      "hit": false,
      "t": 185097.00099999976,
      "d": 54.611624999990454,
      "v": 25
    },
    {
      "midi": 60,
      "hit": false,
      "t": 185169.81649999975,
      "d": 54.611624999990454,
      "v": 35
    },
    {
      "midi": 68,
      "hit": false,
      "t": 185242.63199999803,
      "d": 72.81549999999697,
      "v": 63
    },
    {
      "midi": 53,
      "hit": false,
      "t": 185242.63199999975,
      "d": 54.611624999990454,
      "v": 45
    },
    {
      "midi": 56,
      "hit": false,
      "t": 185242.63199999975,
      "d": 54.611624999990454,
      "v": 48
    },
    {
      "midi": 60,
      "hit": false,
      "t": 185315.44749999975,
      "d": 54.611624999990454,
      "v": 50
    },
    {
      "midi": 72,
      "hit": false,
      "t": 185388.26299999803,
      "d": 145.63099999999395,
      "v": 59
    },
    {
      "midi": 84,
      "hit": false,
      "t": 185388.26299999803,
      "d": 145.63099999999395,
      "v": 70
    },
    {
      "midi": 53,
      "hit": false,
      "t": 185388.26299999974,
      "d": 54.611624999990454,
      "v": 70
    },
    {
      "midi": 56,
      "hit": false,
      "t": 185388.26299999974,
      "d": 54.611624999990454,
      "v": 70
    },
    {
      "midi": 60,
      "hit": false,
      "t": 185461.07849999974,
      "d": 54.611624999990454,
      "v": 52
    },
    {
      "midi": 53,
      "hit": false,
      "t": 185533.89399999974,
      "d": 54.611624999990454,
      "v": 38
    },
    {
      "midi": 56,
      "hit": false,
      "t": 185533.89399999974,
      "d": 54.611624999990454,
      "v": 54
    },
    {
      "midi": 60,
      "hit": false,
      "t": 185606.70949999974,
      "d": 54.611624999990454,
      "v": 56
    },
    {
      "midi": 72,
      "hit": false,
      "t": 185679.52499999802,
      "d": 72.81549999999697,
      "v": 52
    },
    {
      "midi": 84,
      "hit": false,
      "t": 185679.52499999802,
      "d": 72.81549999999697,
      "v": 67
    },
    {
      "midi": 53,
      "hit": false,
      "t": 185679.52499999973,
      "d": 54.611624999990454,
      "v": 48
    },
    {
      "midi": 56,
      "hit": false,
      "t": 185679.52499999973,
      "d": 54.611624999990454,
      "v": 51
    },
    {
      "midi": 60,
      "hit": false,
      "t": 185752.34049999973,
      "d": 54.611624999990454,
      "v": 50
    },
    {
      "midi": 72,
      "hit": false,
      "t": 185825.155999998,
      "d": 72.81549999999697,
      "v": 47
    },
    {
      "midi": 84,
      "hit": false,
      "t": 185825.155999998,
      "d": 72.81549999999697,
      "v": 59
    },
    {
      "midi": 53,
      "hit": false,
      "t": 185825.15599999973,
      "d": 54.611624999990454,
      "v": 40
    },
    {
      "midi": 56,
      "hit": false,
      "t": 185825.15599999973,
      "d": 54.611624999990454,
      "v": 54
    },
    {
      "midi": 60,
      "hit": false,
      "t": 185897.97149999972,
      "d": 54.611624999990454,
      "v": 41
    },
    {
      "midi": 71,
      "hit": false,
      "t": 185970.786999998,
      "d": 145.63099999999395,
      "v": 52
    },
    {
      "midi": 83,
      "hit": false,
      "t": 185970.786999998,
      "d": 145.63099999999395,
      "v": 62
    },
    {
      "midi": 53,
      "hit": false,
      "t": 185970.78699999972,
      "d": 54.611624999990454,
      "v": 70
    },
    {
      "midi": 56,
      "hit": false,
      "t": 185970.78699999972,
      "d": 54.611624999990454,
      "v": 70
    },
    {
      "midi": 62,
      "hit": false,
      "t": 186043.60249999972,
      "d": 54.611624999990454,
      "v": 41
    },
    {
      "midi": 53,
      "hit": false,
      "t": 186116.4179999997,
      "d": 54.611624999990454,
      "v": 48
    },
    {
      "midi": 56,
      "hit": false,
      "t": 186116.4179999997,
      "d": 54.611624999990454,
      "v": 36
    },
    {
      "midi": 62,
      "hit": false,
      "t": 186189.2334999997,
      "d": 54.611624999990454,
      "v": 47
    },
    {
      "midi": 71,
      "hit": false,
      "t": 186262.048999998,
      "d": 72.81549999999697,
      "v": 47
    },
    {
      "midi": 83,
      "hit": false,
      "t": 186262.048999998,
      "d": 72.81549999999697,
      "v": 62
    },
    {
      "midi": 53,
      "hit": false,
      "t": 186262.0489999997,
      "d": 54.611624999990454,
      "v": 29
    },
    {
      "midi": 56,
      "hit": false,
      "t": 186262.0489999997,
      "d": 54.611624999990454,
      "v": 54
    },
    {
      "midi": 62,
      "hit": false,
      "t": 186334.8644999997,
      "d": 54.611624999990454,
      "v": 41
    },
    {
      "midi": 71,
      "hit": false,
      "t": 186407.67999999798,
      "d": 72.81549999999697,
      "v": 59
    },
    {
      "midi": 83,
      "hit": false,
      "t": 186407.67999999798,
      "d": 72.81549999999697,
      "v": 70
    },
    {
      "midi": 52,
      "hit": false,
      "t": 186407.6799999997,
      "d": 54.611624999990454,
      "v": 56
    },
    {
      "midi": 55,
      "hit": false,
      "t": 186407.6799999997,
      "d": 54.611624999990454,
      "v": 56
    },
    {
      "midi": 62,
      "hit": false,
      "t": 186480.4954999997,
      "d": 54.611624999990454,
      "v": 47
    },
    {
      "midi": 72,
      "hit": false,
      "t": 186553.31099999798,
      "d": 145.63099999999395,
      "v": 70
    },
    {
      "midi": 84,
      "hit": false,
      "t": 186553.31099999798,
      "d": 145.63099999999395,
      "v": 80
    },
    {
      "midi": 52,
      "hit": false,
      "t": 186553.3109999997,
      "d": 54.611624999990454,
      "v": 70
    },
    {
      "midi": 55,
      "hit": false,
      "t": 186553.3109999997,
      "d": 54.611624999990454,
      "v": 70
    },
    {
      "midi": 60,
      "hit": false,
      "t": 186626.1264999997,
      "d": 54.611624999990454,
      "v": 50
    },
    {
      "midi": 52,
      "hit": false,
      "t": 186698.9419999997,
      "d": 54.611624999990454,
      "v": 47
    },
    {
      "midi": 55,
      "hit": false,
      "t": 186698.9419999997,
      "d": 54.611624999990454,
      "v": 44
    },
    {
      "midi": 60,
      "hit": false,
      "t": 186771.7574999997,
      "d": 54.611624999990454,
      "v": 41
    },
    {
      "midi": 72,
      "hit": false,
      "t": 186844.57299999797,
      "d": 72.81549999999697,
      "v": 52
    },
    {
      "midi": 84,
      "hit": false,
      "t": 186844.57299999797,
      "d": 72.81549999999697,
      "v": 70
    },
    {
      "midi": 52,
      "hit": false,
      "t": 186844.57299999968,
      "d": 54.611624999990454,
      "v": 41
    },
    {
      "midi": 55,
      "hit": false,
      "t": 186844.57299999968,
      "d": 54.611624999990454,
      "v": 39
    },
    {
      "midi": 60,
      "hit": false,
      "t": 186917.38849999968,
      "d": 54.611624999990454,
      "v": 41
    },
    {
      "midi": 72,
      "hit": false,
      "t": 186990.20399999796,
      "d": 72.81549999999697,
      "v": 52
    },
    {
      "midi": 84,
      "hit": false,
      "t": 186990.20399999796,
      "d": 72.81549999999697,
      "v": 70
    },
    {
      "midi": 52,
      "hit": false,
      "t": 186990.20399999968,
      "d": 54.611624999990454,
      "v": 47
    },
    {
      "midi": 55,
      "hit": false,
      "t": 186990.20399999968,
      "d": 54.611624999990454,
      "v": 41
    },
    {
      "midi": 60,
      "hit": false,
      "t": 187063.01949999967,
      "d": 54.611624999990454,
      "v": 47
    },
    {
      "midi": 67,
      "hit": false,
      "t": 187135.83499999795,
      "d": 72.81549999999697,
      "v": 56
    },
    {
      "midi": 79,
      "hit": false,
      "t": 187135.83499999795,
      "d": 72.81549999999697,
      "v": 70
    },
    {
      "midi": 52,
      "hit": false,
      "t": 187135.83499999967,
      "d": 54.611624999990454,
      "v": 50
    },
    {
      "midi": 55,
      "hit": false,
      "t": 187135.83499999967,
      "d": 54.611624999990454,
      "v": 47
    },
    {
      "midi": 60,
      "hit": false,
      "t": 187208.65049999967,
      "d": 54.611624999990454,
      "v": 44
    },
    {
      "midi": 68,
      "hit": false,
      "t": 187281.46599999795,
      "d": 72.81549999999697,
      "v": 47
    },
    {
      "midi": 80,
      "hit": false,
      "t": 187281.46599999795,
      "d": 72.81549999999697,
      "v": 68
    },
    {
      "midi": 52,
      "hit": false,
      "t": 187281.46599999967,
      "d": 54.611624999990454,
      "v": 41
    },
    {
      "midi": 55,
      "hit": false,
      "t": 187281.46599999967,
      "d": 54.611624999990454,
      "v": 44
    },
    {
      "midi": 60,
      "hit": false,
      "t": 187354.28149999966,
      "d": 54.611624999990454,
      "v": 41
    },
    {
      "midi": 70,
      "hit": false,
      "t": 187427.09699999794,
      "d": 72.81549999999697,
      "v": 50
    },
    {
      "midi": 82,
      "hit": false,
      "t": 187427.09699999794,
      "d": 72.81549999999697,
      "v": 68
    },
    {
      "midi": 52,
      "hit": false,
      "t": 187427.09699999966,
      "d": 54.611624999990454,
      "v": 44
    },
    {
      "midi": 55,
      "hit": false,
      "t": 187427.09699999966,
      "d": 54.611624999990454,
      "v": 41
    },
    {
      "midi": 60,
      "hit": false,
      "t": 187499.91249999966,
      "d": 54.611624999990454,
      "v": 44
    },
    {
      "midi": 68,
      "hit": false,
      "t": 187572.72799999794,
      "d": 54.611624999990454,
      "v": 55
    },
    {
      "midi": 80,
      "hit": false,
      "t": 187572.72799999794,
      "d": 54.611624999990454,
      "v": 68
    },
    {
      "midi": 41,
      "hit": false,
      "t": 187572.72799999965,
      "d": 218.44649999999092,
      "v": 54
    },
    {
      "midi": 44,
      "hit": false,
      "t": 187572.72799999965,
      "d": 218.44649999999092,
      "v": 58
    },
    {
      "midi": 48,
      "hit": false,
      "t": 187572.72799999965,
      "d": 218.44649999999092,
      "v": 62
    },
    {
      "midi": 53,
      "hit": false,
      "t": 187572.72799999965,
      "d": 218.44649999999092,
      "v": 71
    },
    {
      "midi": 60,
      "hit": false,
      "t": 187645.54349999793,
      "d": 54.611624999990454,
      "v": 41
    },
    {
      "midi": 65,
      "hit": false,
      "t": 187718.35899999793,
      "d": 54.611624999990454,
      "v": 39
    },
    {
      "midi": 68,
      "hit": false,
      "t": 187791.17449999793,
      "d": 54.611624999990454,
      "v": 40
    },
    {
      "midi": 72,
      "hit": false,
      "t": 187863.98999999792,
      "d": 54.611624999990454,
      "v": 56
    },
    {
      "midi": 73,
      "hit": false,
      "t": 187936.80549999792,
      "d": 54.611624999990454,
      "v": 58
    },
    {
      "midi": 48,
      "hit": false,
      "t": 187936.80549999964,
      "d": 54.611624999990454,
      "v": 50
    },
    {
      "midi": 72,
      "hit": false,
      "t": 188009.62099999792,
      "d": 54.611624999990454,
      "v": 52
    },
    {
      "midi": 53,
      "hit": false,
      "t": 188009.62099999964,
      "d": 54.611624999990454,
      "v": 56
    },
    {
      "midi": 70,
      "hit": false,
      "t": 188082.43649999792,
      "d": 54.611624999990454,
      "v": 44
    },
    {
      "midi": 56,
      "hit": false,
      "t": 188082.43649999963,
      "d": 54.611624999990454,
      "v": 62
    },
    {
      "midi": 68,
      "hit": false,
      "t": 188155.2519999979,
      "d": 54.611624999990454,
      "v": 50
    },
    {
      "midi": 60,
      "hit": false,
      "t": 188155.25199999963,
      "d": 54.611624999990454,
      "v": 59
    },
    {
      "midi": 70,
      "hit": false,
      "t": 188228.0674999979,
      "d": 54.611624999990454,
      "v": 40
    },
    {
      "midi": 61,
      "hit": false,
      "t": 188228.06749999963,
      "d": 54.611624999990454,
      "v": 54
    },
    {
      "midi": 68,
      "hit": false,
      "t": 188300.8829999979,
      "d": 54.611624999990454,
      "v": 55
    },
    {
      "midi": 60,
      "hit": false,
      "t": 188300.88299999962,
      "d": 54.611624999990454,
      "v": 50
    },
    {
      "midi": 67,
      "hit": false,
      "t": 188373.6984999979,
      "d": 54.611624999990454,
      "v": 56
    },
    {
      "midi": 58,
      "hit": false,
      "t": 188373.69849999962,
      "d": 54.611624999990454,
      "v": 50
    },
    {
      "midi": 65,
      "hit": false,
      "t": 188446.5139999979,
      "d": 54.611624999990454,
      "v": 52
    },
    {
      "midi": 56,
      "hit": false,
      "t": 188446.51399999962,
      "d": 54.611624999990454,
      "v": 62
    },
    {
      "midi": 67,
      "hit": false,
      "t": 188519.3294999979,
      "d": 54.611624999990454,
      "v": 39
    },
    {
      "midi": 58,
      "hit": false,
      "t": 188519.3294999996,
      "d": 54.611624999990454,
      "v": 50
    },
    {
      "midi": 68,
      "hit": false,
      "t": 188592.1449999979,
      "d": 54.611624999990454,
      "v": 47
    },
    {
      "midi": 60,
      "hit": false,
      "t": 188592.1449999996,
      "d": 54.611624999990454,
      "v": 44
    },
    {
      "midi": 65,
      "hit": false,
      "t": 188664.9604999979,
      "d": 54.611624999990454,
      "v": 52
    },
    {
      "midi": 56,
      "hit": false,
      "t": 188664.9604999996,
      "d": 54.611624999990454,
      "v": 51
    },
    {
      "midi": 66,
      "hit": false,
      "t": 188737.7759999979,
      "d": 54.611624999990454,
      "v": 50
    },
    {
      "midi": 58,
      "hit": false,
      "t": 188737.7759999996,
      "d": 54.611624999990454,
      "v": 50
    },
    {
      "midi": 61,
      "hit": false,
      "t": 188810.59149999788,
      "d": 54.611624999990454,
      "v": 54
    },
    {
      "midi": 60,
      "hit": false,
      "t": 188810.5914999996,
      "d": 54.611624999990454,
      "v": 41
    },
    {
      "midi": 66,
      "hit": false,
      "t": 188883.40699999788,
      "d": 54.611624999990454,
      "v": 50
    },
    {
      "midi": 58,
      "hit": false,
      "t": 188883.4069999996,
      "d": 54.611624999990454,
      "v": 50
    },
    {
      "midi": 70,
      "hit": false,
      "t": 188956.22249999788,
      "d": 54.611624999990454,
      "v": 47
    },
    {
      "midi": 56,
      "hit": false,
      "t": 188956.2224999996,
      "d": 54.611624999990454,
      "v": 54
    },
    {
      "midi": 73,
      "hit": false,
      "t": 189029.03799999788,
      "d": 54.611624999990454,
      "v": 63
    },
    {
      "midi": 54,
      "hit": false,
      "t": 189029.0379999996,
      "d": 54.611624999990454,
      "v": 47
    },
    {
      "midi": 75,
      "hit": false,
      "t": 189101.85349999787,
      "d": 54.611624999990454,
      "v": 55
    },
    {
      "midi": 49,
      "hit": false,
      "t": 189101.8534999996,
      "d": 54.611624999990454,
      "v": 50
    },
    {
      "midi": 73,
      "hit": false,
      "t": 189174.66899999787,
      "d": 54.611624999990454,
      "v": 55
    },
    {
      "midi": 54,
      "hit": false,
      "t": 189174.6689999996,
      "d": 54.611624999990454,
      "v": 58
    },
    {
      "midi": 72,
      "hit": false,
      "t": 189247.48449999787,
      "d": 54.611624999990454,
      "v": 41
    },
    {
      "midi": 58,
      "hit": false,
      "t": 189247.48449999958,
      "d": 54.611624999990454,
      "v": 50
    },
    {
      "midi": 70,
      "hit": false,
      "t": 189320.29999999786,
      "d": 54.611624999990454,
      "v": 50
    },
    {
      "midi": 61,
      "hit": false,
      "t": 189320.29999999958,
      "d": 54.611624999990454,
      "v": 62
    },
    {
      "midi": 72,
      "hit": false,
      "t": 189393.11549999786,
      "d": 54.611624999990454,
      "v": 44
    },
    {
      "midi": 63,
      "hit": false,
      "t": 189393.11549999958,
      "d": 54.611624999990454,
      "v": 58
    },
    {
      "midi": 70,
      "hit": false,
      "t": 189465.93099999786,
      "d": 54.611624999990454,
      "v": 47
    },
    {
      "midi": 61,
      "hit": false,
      "t": 189465.93099999957,
      "d": 54.611624999990454,
      "v": 54
    },
    {
      "midi": 68,
      "hit": false,
      "t": 189538.74649999785,
      "d": 54.611624999990454,
      "v": 44
    },
    {
      "midi": 60,
      "hit": false,
      "t": 189538.74649999957,
      "d": 54.611624999990454,
      "v": 52
    },
    {
      "midi": 66,
      "hit": false,
      "t": 189611.56199999785,
      "d": 54.611624999990454,
      "v": 44
    },
    {
      "midi": 58,
      "hit": false,
      "t": 189611.56199999957,
      "d": 54.611624999990454,
      "v": 50
    },
    {
      "midi": 68,
      "hit": false,
      "t": 189684.37749999785,
      "d": 54.611624999990454,
      "v": 44
    },
    {
      "midi": 60,
      "hit": false,
      "t": 189684.37749999957,
      "d": 54.611624999990454,
      "v": 47
    },
    {
      "midi": 70,
      "hit": false,
      "t": 189757.19299999785,
      "d": 54.611624999990454,
      "v": 38
    },
    {
      "midi": 61,
      "hit": false,
      "t": 189757.19299999956,
      "d": 54.611624999990454,
      "v": 59
    },
    {
      "midi": 66,
      "hit": false,
      "t": 189830.00849999784,
      "d": 54.611624999990454,
      "v": 47
    },
    {
      "midi": 58,
      "hit": false,
      "t": 189830.00849999956,
      "d": 54.611624999990454,
      "v": 50
    },
    {
      "midi": 69,
      "hit": false,
      "t": 189902.82399999784,
      "d": 54.611624999990454,
      "v": 52
    },
    {
      "midi": 60,
      "hit": false,
      "t": 189902.82399999956,
      "d": 54.611624999990454,
      "v": 59
    },
    {
      "midi": 63,
      "hit": false,
      "t": 189975.63949999784,
      "d": 54.611624999990454,
      "v": 50
    },
    {
      "midi": 61,
      "hit": false,
      "t": 189975.63949999955,
      "d": 54.611624999990454,
      "v": 59
    },
    {
      "midi": 69,
      "hit": false,
      "t": 190048.45499999783,
      "d": 54.611624999990454,
      "v": 50
    },
    {
      "midi": 60,
      "hit": false,
      "t": 190048.45499999955,
      "d": 54.611624999990454,
      "v": 56
    },
    {
      "midi": 72,
      "hit": false,
      "t": 190121.27049999783,
      "d": 54.611624999990454,
      "v": 56
    },
    {
      "midi": 58,
      "hit": false,
      "t": 190121.27049999955,
      "d": 54.611624999990454,
      "v": 47
    },
    {
      "midi": 75,
      "hit": false,
      "t": 190194.08599999783,
      "d": 54.611624999990454,
      "v": 58
    },
    {
      "midi": 57,
      "hit": false,
      "t": 190194.08599999954,
      "d": 54.611624999990454,
      "v": 62
    },
    {
      "midi": 77,
      "hit": false,
      "t": 190266.90149999782,
      "d": 54.611624999990454,
      "v": 56
    },
    {
      "midi": 51,
      "hit": false,
      "t": 190266.90149999954,
      "d": 54.611624999990454,
      "v": 58
    },
    {
      "midi": 75,
      "hit": false,
      "t": 190339.71699999782,
      "d": 54.611624999990454,
      "v": 50
    },
    {
      "midi": 57,
      "hit": false,
      "t": 190339.71699999954,
      "d": 54.611624999990454,
      "v": 56
    },
    {
      "midi": 73,
      "hit": false,
      "t": 190412.53249999782,
      "d": 54.611624999990454,
      "v": 55
    },
    {
      "midi": 60,
      "hit": false,
      "t": 190412.53249999954,
      "d": 54.611624999990454,
      "v": 52
    },
    {
      "midi": 72,
      "hit": false,
      "t": 190485.34799999782,
      "d": 54.611624999990454,
      "v": 56
    },
    {
      "midi": 63,
      "hit": false,
      "t": 190485.34799999953,
      "d": 54.611624999990454,
      "v": 58
    },
    {
      "midi": 73,
      "hit": false,
      "t": 190558.1634999978,
      "d": 54.611624999990454,
      "v": 55
    },
    {
      "midi": 65,
      "hit": false,
      "t": 190558.16349999953,
      "d": 54.611624999990454,
      "v": 59
    },
    {
      "midi": 72,
      "hit": false,
      "t": 190630.9789999978,
      "d": 54.611624999990454,
      "v": 50
    },
    {
      "midi": 63,
      "hit": false,
      "t": 190630.97899999953,
      "d": 54.611624999990454,
      "v": 58
    },
    {
      "midi": 70,
      "hit": false,
      "t": 190703.7944999978,
      "d": 54.611624999990454,
      "v": 47
    },
    {
      "midi": 61,
      "hit": false,
      "t": 190703.79449999952,
      "d": 54.611624999990454,
      "v": 59
    },
    {
      "midi": 69,
      "hit": false,
      "t": 190776.6099999978,
      "d": 54.611624999990454,
      "v": 50
    },
    {
      "midi": 60,
      "hit": false,
      "t": 190776.60999999952,
      "d": 54.611624999990454,
      "v": 56
    },
    {
      "midi": 70,
      "hit": false,
      "t": 190849.4254999978,
      "d": 54.611624999990454,
      "v": 47
    },
    {
      "midi": 61,
      "hit": false,
      "t": 190849.42549999952,
      "d": 54.611624999990454,
      "v": 59
    },
    {
      "midi": 72,
      "hit": false,
      "t": 190922.2409999978,
      "d": 54.611624999990454,
      "v": 52
    },
    {
      "midi": 63,
      "hit": false,
      "t": 190922.2409999995,
      "d": 54.611624999990454,
      "v": 55
    },
    {
      "midi": 69,
      "hit": false,
      "t": 190995.0564999978,
      "d": 54.611624999990454,
      "v": 50
    },
    {
      "midi": 60,
      "hit": false,
      "t": 190995.0564999995,
      "d": 54.611624999990454,
      "v": 50
    },
    {
      "midi": 70,
      "hit": false,
      "t": 191067.8719999978,
      "d": 54.611624999990454,
      "v": 47
    },
    {
      "midi": 61,
      "hit": false,
      "t": 191067.8719999995,
      "d": 54.611624999990454,
      "v": 62
    },
    {
      "midi": 65,
      "hit": false,
      "t": 191140.6874999978,
      "d": 54.611624999990454,
      "v": 47
    },
    {
      "midi": 53,
      "hit": false,
      "t": 191140.6874999995,
      "d": 54.611624999990454,
      "v": 56
    },
    {
      "midi": 70,
      "hit": false,
      "t": 191213.50299999779,
      "d": 54.611624999990454,
      "v": 50
    },
    {
      "midi": 58,
      "hit": false,
      "t": 191213.5029999995,
      "d": 54.611624999990454,
      "v": 47
    },
    {
      "midi": 73,
      "hit": false,
      "t": 191286.31849999778,
      "d": 54.611624999990454,
      "v": 50
    },
    {
      "midi": 61,
      "hit": false,
      "t": 191286.3184999995,
      "d": 54.611624999990454,
      "v": 51
    },
    {
      "midi": 77,
      "hit": false,
      "t": 191359.13399999778,
      "d": 54.611624999990454,
      "v": 62
    },
    {
      "midi": 65,
      "hit": false,
      "t": 191359.1339999995,
      "d": 54.611624999990454,
      "v": 50
    },
    {
      "midi": 78,
      "hit": false,
      "t": 191431.94949999778,
      "d": 54.611624999990454,
      "v": 63
    },
    {
      "midi": 66,
      "hit": false,
      "t": 191431.9494999995,
      "d": 54.611624999990454,
      "v": 55
    },
    {
      "midi": 77,
      "hit": false,
      "t": 191504.76499999777,
      "d": 54.611624999990454,
      "v": 59
    },
    {
      "midi": 65,
      "hit": false,
      "t": 191504.7649999995,
      "d": 54.611624999990454,
      "v": 47
    },
    {
      "midi": 75,
      "hit": false,
      "t": 191577.58049999777,
      "d": 54.611624999990454,
      "v": 58
    },
    {
      "midi": 63,
      "hit": false,
      "t": 191577.5804999995,
      "d": 54.611624999990454,
      "v": 50
    },
    {
      "midi": 73,
      "hit": false,
      "t": 191650.39599999777,
      "d": 54.611624999990454,
      "v": 55
    },
    {
      "midi": 61,
      "hit": false,
      "t": 191650.39599999948,
      "d": 54.611624999990454,
      "v": 59
    },
    {
      "midi": 72,
      "hit": false,
      "t": 191723.21149999776,
      "d": 54.611624999990454,
      "v": 52
    },
    {
      "midi": 60,
      "hit": false,
      "t": 191723.21149999948,
      "d": 54.611624999990454,
      "v": 39
    },
    {
      "midi": 70,
      "hit": false,
      "t": 191796.02699999776,
      "d": 54.611624999990454,
      "v": 50
    },
    {
      "midi": 58,
      "hit": false,
      "t": 191796.02699999948,
      "d": 54.611624999990454,
      "v": 55
    },
    {
      "midi": 68,
      "hit": false,
      "t": 191868.84249999776,
      "d": 54.611624999990454,
      "v": 55
    },
    {
      "midi": 56,
      "hit": false,
      "t": 191868.84249999947,
      "d": 54.611624999990454,
      "v": 62
    },
    {
      "midi": 66,
      "hit": false,
      "t": 191941.65799999775,
      "d": 54.611624999990454,
      "v": 58
    },
    {
      "midi": 54,
      "hit": false,
      "t": 191941.65799999947,
      "d": 54.611624999990454,
      "v": 63
    },
    {
      "midi": 65,
      "hit": false,
      "t": 192014.47349999775,
      "d": 54.611624999990454,
      "v": 59
    },
    {
      "midi": 53,
      "hit": false,
      "t": 192014.47349999947,
      "d": 54.611624999990454,
      "v": 60
    },
    {
      "midi": 63,
      "hit": false,
      "t": 192087.28899999775,
      "d": 54.611624999990454,
      "v": 34
    },
    {
      "midi": 51,
      "hit": false,
      "t": 192087.28899999947,
      "d": 54.611624999990454,
      "v": 58
    },
    {
      "midi": 61,
      "hit": false,
      "t": 192160.10449999775,
      "d": 54.611624999990454,
      "v": 59
    },
    {
      "midi": 49,
      "hit": false,
      "t": 192160.10449999946,
      "d": 54.611624999990454,
      "v": 58
    },
    {
      "midi": 60,
      "hit": false,
      "t": 192232.91999999774,
      "d": 54.611624999990454,
      "v": 52
    },
    {
      "midi": 48,
      "hit": false,
      "t": 192232.91999999946,
      "d": 54.611624999990454,
      "v": 52
    },
    {
      "midi": 58,
      "hit": false,
      "t": 192305.73549999774,
      "d": 54.611624999990454,
      "v": 55
    },
    {
      "midi": 46,
      "hit": false,
      "t": 192305.73549999946,
      "d": 54.611624999990454,
      "v": 54
    },
    {
      "midi": 56,
      "hit": false,
      "t": 192378.55099999774,
      "d": 54.611624999990454,
      "v": 59
    },
    {
      "midi": 44,
      "hit": false,
      "t": 192378.55099999945,
      "d": 54.611624999990454,
      "v": 50
    },
    {
      "midi": 54,
      "hit": false,
      "t": 192451.36649999773,
      "d": 54.611624999990454,
      "v": 55
    },
    {
      "midi": 42,
      "hit": false,
      "t": 192451.36649999945,
      "d": 54.611624999990454,
      "v": 55
    },
    {
      "midi": 53,
      "hit": false,
      "t": 192524.18199999773,
      "d": 54.611624999990454,
      "v": 60
    },
    {
      "midi": 41,
      "hit": false,
      "t": 192524.18199999945,
      "d": 54.611624999990454,
      "v": 56
    },
    {
      "midi": 51,
      "hit": false,
      "t": 192596.99749999773,
      "d": 54.611624999990454,
      "v": 63
    },
    {
      "midi": 39,
      "hit": false,
      "t": 192596.99749999944,
      "d": 54.611624999990454,
      "v": 63
    },
    {
      "midi": 49,
      "hit": false,
      "t": 192669.81299999772,
      "d": 54.611624999990454,
      "v": 63
    },
    {
      "midi": 37,
      "hit": false,
      "t": 192669.81299999944,
      "d": 54.611624999990454,
      "v": 55
    },
    {
      "midi": 48,
      "hit": false,
      "t": 192742.62849999772,
      "d": 54.611624999990454,
      "v": 62
    },
    {
      "midi": 36,
      "hit": false,
      "t": 192742.62849999944,
      "d": 54.611624999990454,
      "v": 59
    },
    {
      "midi": 46,
      "hit": false,
      "t": 192815.44399999772,
      "d": 54.611624999990454,
      "v": 67
    },
    {
      "midi": 34,
      "hit": false,
      "t": 192815.44399999944,
      "d": 54.611624999990454,
      "v": 51
    },
    {
      "midi": 48,
      "hit": false,
      "t": 192888.25949999772,
      "d": 54.611624999990454,
      "v": 62
    },
    {
      "midi": 36,
      "hit": false,
      "t": 192888.25949999943,
      "d": 54.611624999990454,
      "v": 44
    },
    {
      "midi": 49,
      "hit": false,
      "t": 192961.0749999977,
      "d": 54.611624999990454,
      "v": 63
    },
    {
      "midi": 37,
      "hit": false,
      "t": 192961.07499999943,
      "d": 54.611624999990454,
      "v": 50
    },
    {
      "midi": 48,
      "hit": false,
      "t": 193033.8904999977,
      "d": 54.611624999990454,
      "v": 62
    },
    {
      "midi": 36,
      "hit": false,
      "t": 193033.89049999943,
      "d": 54.611624999990454,
      "v": 52
    },
    {
      "midi": 46,
      "hit": false,
      "t": 193106.7059999977,
      "d": 109.22325000001001,
      "v": 78
    },
    {
      "midi": 34,
      "hit": false,
      "t": 193106.70599999942,
      "d": 109.22325000001001,
      "v": 59
    },
    {
      "midi": 47,
      "hit": false,
      "t": 193252.33699999773,
      "d": 109.22325000001001,
      "v": 52
    },
    {
      "midi": 50,
      "hit": false,
      "t": 193252.33699999773,
      "d": 109.22325000001001,
      "v": 62
    },
    {
      "midi": 53,
      "hit": false,
      "t": 193252.33699999773,
      "d": 109.22325000001001,
      "v": 63
    },
    {
      "midi": 56,
      "hit": false,
      "t": 193252.33699999773,
      "d": 109.22325000001001,
      "v": 67
    },
    {
      "midi": 35,
      "hit": false,
      "t": 193252.33699999945,
      "d": 109.22325000001001,
      "v": 62
    },
    {
      "midi": 48,
      "hit": false,
      "t": 193397.96799999775,
      "d": 54.611624999990454,
      "v": 15
    },
    {
      "midi": 52,
      "hit": false,
      "t": 193397.96799999775,
      "d": 54.611624999990454,
      "v": 36
    },
    {
      "midi": 55,
      "hit": false,
      "t": 193397.96799999775,
      "d": 54.611624999990454,
      "v": 44
    },
    {
      "midi": 36,
      "hit": false,
      "t": 193397.96799999947,
      "d": 72.81549999999697,
      "v": 52
    },
    {
      "midi": 48,
      "hit": false,
      "t": 193470.78349999775,
      "d": 54.611624999990454,
      "v": 47
    },
    {
      "midi": 60,
      "hit": false,
      "t": 193470.78349999775,
      "d": 54.611624999990454,
      "v": 50
    },
    {
      "midi": 40,
      "hit": false,
      "t": 193543.59899999946,
      "d": 72.81549999999697,
      "v": 74
    },
    {
      "midi": 48,
      "hit": false,
      "t": 193616.41449999774,
      "d": 54.611624999990454,
      "v": 41
    },
    {
      "midi": 60,
      "hit": false,
      "t": 193616.41449999774,
      "d": 54.611624999990454,
      "v": 56
    },
    {
      "midi": 36,
      "hit": false,
      "t": 193689.22999999946,
      "d": 72.81549999999697,
      "v": 44
    },
    {
      "midi": 48,
      "hit": false,
      "t": 193762.04549999774,
      "d": 54.611624999990454,
      "v": 47
    },
    {
      "midi": 60,
      "hit": false,
      "t": 193762.04549999774,
      "d": 54.611624999990454,
      "v": 56
    },
    {
      "midi": 41,
      "hit": false,
      "t": 193834.86099999945,
      "d": 72.81549999999697,
      "v": 72
    },
    {
      "midi": 48,
      "hit": false,
      "t": 193907.67649999773,
      "d": 54.611624999990454,
      "v": 47
    },
    {
      "midi": 60,
      "hit": false,
      "t": 193907.67649999773,
      "d": 54.611624999990454,
      "v": 56
    },
    {
      "midi": 36,
      "hit": false,
      "t": 193980.49199999945,
      "d": 72.81549999999697,
      "v": 50
    },
    {
      "midi": 48,
      "hit": false,
      "t": 194053.30749999773,
      "d": 54.611624999990454,
      "v": 29
    },
    {
      "midi": 60,
      "hit": false,
      "t": 194053.30749999773,
      "d": 54.611624999990454,
      "v": 50
    },
    {
      "midi": 43,
      "hit": false,
      "t": 194126.12299999944,
      "d": 72.81549999999697,
      "v": 80
    },
    {
      "midi": 48,
      "hit": false,
      "t": 194198.93849999772,
      "d": 54.611624999990454,
      "v": 36
    },
    {
      "midi": 60,
      "hit": false,
      "t": 194198.93849999772,
      "d": 54.611624999990454,
      "v": 47
    },
    {
      "midi": 36,
      "hit": false,
      "t": 194271.75399999943,
      "d": 72.81549999999697,
      "v": 44
    },
    {
      "midi": 48,
      "hit": false,
      "t": 194344.5694999977,
      "d": 54.611624999990454,
      "v": 39
    },
    {
      "midi": 60,
      "hit": false,
      "t": 194344.5694999977,
      "d": 54.611624999990454,
      "v": 47
    },
    {
      "midi": 44,
      "hit": false,
      "t": 194417.38499999943,
      "d": 72.81549999999697,
      "v": 60
    },
    {
      "midi": 48,
      "hit": false,
      "t": 194490.2004999977,
      "d": 54.611624999990454,
      "v": 47
    },
    {
      "midi": 60,
      "hit": false,
      "t": 194490.2004999977,
      "d": 54.611624999990454,
      "v": 52
    },
    {
      "midi": 36,
      "hit": false,
      "t": 194563.01599999942,
      "d": 72.81549999999697,
      "v": 56
    },
    {
      "midi": 60,
      "hit": false,
      "t": 194635.8314999977,
      "d": 54.611624999990454,
      "v": 50
    },
    {
      "midi": 72,
      "hit": false,
      "t": 194635.8314999977,
      "d": 54.611624999990454,
      "v": 62
    },
    {
      "midi": 46,
      "hit": false,
      "t": 194708.64699999942,
      "d": 72.81549999999697,
      "v": 80
    },
    {
      "midi": 60,
      "hit": false,
      "t": 194781.4624999977,
      "d": 54.611624999990454,
      "v": 47
    },
    {
      "midi": 72,
      "hit": false,
      "t": 194781.4624999977,
      "d": 54.611624999990454,
      "v": 59
    },
    {
      "midi": 36,
      "hit": false,
      "t": 194854.2779999994,
      "d": 72.81549999999697,
      "v": 62
    },
    {
      "midi": 60,
      "hit": false,
      "t": 194927.0934999977,
      "d": 54.611624999990454,
      "v": 41
    },
    {
      "midi": 72,
      "hit": false,
      "t": 194927.0934999977,
      "d": 54.611624999990454,
      "v": 59
    },
    {
      "midi": 44,
      "hit": false,
      "t": 194999.9089999994,
      "d": 72.81549999999697,
      "v": 66
    },
    {
      "midi": 60,
      "hit": false,
      "t": 195072.72449999768,
      "d": 54.611624999990454,
      "v": 41
    },
    {
      "midi": 72,
      "hit": false,
      "t": 195072.72449999768,
      "d": 54.611624999990454,
      "v": 59
    },
    {
      "midi": 36,
      "hit": false,
      "t": 195145.5399999994,
      "d": 72.81549999999697,
      "v": 56
    },
    {
      "midi": 60,
      "hit": false,
      "t": 195218.35549999768,
      "d": 54.611624999990454,
      "v": 41
    },
    {
      "midi": 72,
      "hit": false,
      "t": 195218.35549999768,
      "d": 54.611624999990454,
      "v": 52
    },
    {
      "midi": 43,
      "hit": false,
      "t": 195291.1709999994,
      "d": 72.81549999999697,
      "v": 62
    },
    {
      "midi": 60,
      "hit": false,
      "t": 195363.98649999767,
      "d": 54.611624999990454,
      "v": 44
    },
    {
      "midi": 72,
      "hit": false,
      "t": 195363.98649999767,
      "d": 54.611624999990454,
      "v": 56
    },
    {
      "midi": 36,
      "hit": false,
      "t": 195436.80199999938,
      "d": 72.81549999999697,
      "v": 39
    },
    {
      "midi": 60,
      "hit": false,
      "t": 195509.61749999766,
      "d": 54.611624999990454,
      "v": 34
    },
    {
      "midi": 72,
      "hit": false,
      "t": 195509.61749999766,
      "d": 54.611624999990454,
      "v": 50
    },
    {
      "midi": 41,
      "hit": false,
      "t": 195582.43299999938,
      "d": 72.81549999999697,
      "v": 67
    },
    {
      "midi": 60,
      "hit": false,
      "t": 195655.24849999766,
      "d": 54.611624999990454,
      "v": 41
    },
    {
      "midi": 72,
      "hit": false,
      "t": 195655.24849999766,
      "d": 54.611624999990454,
      "v": 52
    },
    {
      "midi": 36,
      "hit": false,
      "t": 195728.06399999937,
      "d": 72.81549999999697,
      "v": 44
    },
    {
      "midi": 72,
      "hit": false,
      "t": 195800.87949999765,
      "d": 54.611624999990454,
      "v": 42
    },
    {
      "midi": 84,
      "hit": false,
      "t": 195800.87949999765,
      "d": 54.611624999990454,
      "v": 50
    },
    {
      "midi": 40,
      "hit": false,
      "t": 195873.69499999937,
      "d": 72.81549999999697,
      "v": 57
    },
    {
      "midi": 72,
      "hit": false,
      "t": 195946.51049999765,
      "d": 54.611624999990454,
      "v": 43
    },
    {
      "midi": 84,
      "hit": false,
      "t": 195946.51049999765,
      "d": 54.611624999990454,
      "v": 58
    },
    {
      "midi": 36,
      "hit": false,
      "t": 196019.32599999936,
      "d": 72.81549999999697,
      "v": 48
    },
    {
      "midi": 72,
      "hit": false,
      "t": 196092.14149999764,
      "d": 54.611624999990454,
      "v": 43
    },
    {
      "midi": 84,
      "hit": false,
      "t": 196092.14149999764,
      "d": 54.611624999990454,
      "v": 53
    },
    {
      "midi": 41,
      "hit": false,
      "t": 196164.95699999935,
      "d": 72.81549999999697,
      "v": 58
    },
    {
      "midi": 72,
      "hit": false,
      "t": 196237.77249999763,
      "d": 54.611624999990454,
      "v": 50
    },
    {
      "midi": 84,
      "hit": false,
      "t": 196237.77249999763,
      "d": 54.611624999990454,
      "v": 60
    },
    {
      "midi": 36,
      "hit": false,
      "t": 196310.58799999935,
      "d": 72.81549999999697,
      "v": 51
    },
    {
      "midi": 72,
      "hit": false,
      "t": 196383.40349999763,
      "d": 54.611624999990454,
      "v": 47
    },
    {
      "midi": 84,
      "hit": false,
      "t": 196383.40349999763,
      "d": 54.611624999990454,
      "v": 58
    },
    {
      "midi": 43,
      "hit": false,
      "t": 196456.21899999934,
      "d": 72.81549999999697,
      "v": 67
    },
    {
      "midi": 72,
      "hit": false,
      "t": 196529.03449999762,
      "d": 54.611624999990454,
      "v": 42
    },
    {
      "midi": 84,
      "hit": false,
      "t": 196529.03449999762,
      "d": 54.611624999990454,
      "v": 60
    },
    {
      "midi": 36,
      "hit": false,
      "t": 196601.84999999934,
      "d": 72.81549999999697,
      "v": 50
    },
    {
      "midi": 72,
      "hit": false,
      "t": 196674.66549999762,
      "d": 54.611624999990454,
      "v": 44
    },
    {
      "midi": 84,
      "hit": false,
      "t": 196674.66549999762,
      "d": 54.611624999990454,
      "v": 56
    },
    {
      "midi": 44,
      "hit": false,
      "t": 196747.48099999933,
      "d": 72.81549999999697,
      "v": 66
    },
    {
      "midi": 72,
      "hit": false,
      "t": 196820.2964999976,
      "d": 54.611624999990454,
      "v": 51
    },
    {
      "midi": 84,
      "hit": false,
      "t": 196820.2964999976,
      "d": 54.611624999990454,
      "v": 69
    },
    {
      "midi": 36,
      "hit": false,
      "t": 196893.11199999932,
      "d": 72.81549999999697,
      "v": 52
    },
    {
      "midi": 84,
      "hit": false,
      "t": 196965.9274999976,
      "d": 54.611624999990454,
      "v": 65
    },
    {
      "midi": 96,
      "hit": false,
      "t": 196965.9274999976,
      "d": 54.611624999990454,
      "v": 74
    },
    {
      "midi": 45,
      "hit": false,
      "t": 197038.74299999932,
      "d": 72.81549999999697,
      "v": 72
    },
    {
      "midi": 84,
      "hit": false,
      "t": 197111.5584999976,
      "d": 54.611624999990454,
      "v": 64
    },
    {
      "midi": 96,
      "hit": false,
      "t": 197111.5584999976,
      "d": 54.611624999990454,
      "v": 81
    },
    {
      "midi": 36,
      "hit": false,
      "t": 197184.3739999993,
      "d": 72.81549999999697,
      "v": 62
    },
    {
      "midi": 84,
      "hit": false,
      "t": 197257.1894999976,
      "d": 54.611624999990454,
      "v": 62
    },
    {
      "midi": 96,
      "hit": false,
      "t": 197257.1894999976,
      "d": 54.611624999990454,
      "v": 75
    },
    {
      "midi": 46,
      "hit": false,
      "t": 197330.0049999993,
      "d": 72.81549999999697,
      "v": 80
    },
    {
      "midi": 84,
      "hit": false,
      "t": 197402.8204999976,
      "d": 54.611624999990454,
      "v": 54
    },
    {
      "midi": 96,
      "hit": false,
      "t": 197402.8204999976,
      "d": 54.611624999990454,
      "v": 71
    },
    {
      "midi": 36,
      "hit": false,
      "t": 197475.6359999993,
      "d": 72.81549999999697,
      "v": 60
    },
    {
      "midi": 84,
      "hit": false,
      "t": 197548.45149999758,
      "d": 54.611624999990454,
      "v": 55
    },
    {
      "midi": 96,
      "hit": false,
      "t": 197548.45149999758,
      "d": 54.611624999990454,
      "v": 66
    },
    {
      "midi": 47,
      "hit": false,
      "t": 197621.2669999993,
      "d": 72.81549999999697,
      "v": 84
    },
    {
      "midi": 84,
      "hit": false,
      "t": 197694.08249999757,
      "d": 54.611624999990454,
      "v": 53
    },
    {
      "midi": 96,
      "hit": false,
      "t": 197694.08249999757,
      "d": 54.611624999990454,
      "v": 81
    },
    {
      "midi": 36,
      "hit": false,
      "t": 197766.8979999993,
      "d": 72.81549999999697,
      "v": 76
    },
    {
      "midi": 84,
      "hit": false,
      "t": 197839.71349999757,
      "d": 54.611624999990454,
      "v": 48
    },
    {
      "midi": 96,
      "hit": false,
      "t": 197839.71349999757,
      "d": 54.611624999990454,
      "v": 70
    },
    {
      "midi": 48,
      "hit": false,
      "t": 197912.52899999928,
      "d": 72.81549999999697,
      "v": 100
    },
    {
      "midi": 84,
      "hit": false,
      "t": 197985.34449999756,
      "d": 54.611624999990454,
      "v": 79
    },
    {
      "midi": 96,
      "hit": false,
      "t": 197985.34449999756,
      "d": 54.611624999990454,
      "v": 89
    },
    {
      "midi": 34,
      "hit": false,
      "t": 198058.15999999928,
      "d": 145.63099999999395,
      "v": 80
    },
    {
      "midi": 37,
      "hit": false,
      "t": 198058.15999999928,
      "d": 145.63099999999395,
      "v": 85
    },
    {
      "midi": 42,
      "hit": false,
      "t": 198058.15999999928,
      "d": 145.63099999999395,
      "v": 85
    },
    {
      "midi": 46,
      "hit": false,
      "t": 198058.15999999928,
      "d": 145.63099999999395,
      "v": 85
    },
    {
      "midi": 49,
      "hit": false,
      "t": 198130.97549999756,
      "d": 72.81549999999697,
      "v": 50
    },
    {
      "midi": 54,
      "hit": false,
      "t": 198203.79099999755,
      "d": 72.81549999999697,
      "v": 55
    },
    {
      "midi": 58,
      "hit": false,
      "t": 198276.60649999755,
      "d": 72.81549999999697,
      "v": 55
    },
    {
      "midi": 61,
      "hit": false,
      "t": 198349.42199999755,
      "d": 145.63099999999395,
      "v": 62
    },
    {
      "midi": 46,
      "hit": false,
      "t": 198422.23749999926,
      "d": 72.81549999999697,
      "v": 59
    },
    {
      "midi": 49,
      "hit": false,
      "t": 198495.05299999926,
      "d": 72.81549999999697,
      "v": 58
    },
    {
      "midi": 54,
      "hit": false,
      "t": 198567.86849999925,
      "d": 72.81549999999697,
      "v": 55
    },
    {
      "midi": 58,
      "hit": false,
      "t": 198640.68399999925,
      "d": 145.63099999999395,
      "v": 58
    },
    {
      "midi": 61,
      "hit": false,
      "t": 198713.49949999753,
      "d": 72.81549999999697,
      "v": 48
    },
    {
      "midi": 66,
      "hit": false,
      "t": 198786.31499999753,
      "d": 72.81549999999697,
      "v": 47
    },
    {
      "midi": 70,
      "hit": false,
      "t": 198859.13049999753,
      "d": 72.81549999999697,
      "v": 50
    },
    {
      "midi": 73,
      "hit": false,
      "t": 198931.94599999752,
      "d": 145.63099999999395,
      "v": 55
    },
    {
      "midi": 58,
      "hit": false,
      "t": 199004.76149999924,
      "d": 72.81549999999697,
      "v": 68
    },
    {
      "midi": 61,
      "hit": false,
      "t": 199077.57699999923,
      "d": 72.81549999999697,
      "v": 59
    },
    {
      "midi": 66,
      "hit": false,
      "t": 199150.39249999923,
      "d": 72.81549999999697,
      "v": 58
    },
    {
      "midi": 70,
      "hit": false,
      "t": 199223.20799999923,
      "d": 145.63099999999395,
      "v": 63
    },
    {
      "midi": 73,
      "hit": false,
      "t": 199296.0234999975,
      "d": 72.81549999999697,
      "v": 44
    },
    {
      "midi": 78,
      "hit": false,
      "t": 199368.8389999975,
      "d": 72.81549999999697,
      "v": 55
    },
    {
      "midi": 82,
      "hit": false,
      "t": 199441.6544999975,
      "d": 72.81549999999697,
      "v": 55
    },
    {
      "midi": 85,
      "hit": false,
      "t": 199514.4699999975,
      "d": 145.63099999999395,
      "v": 63
    },
    {
      "midi": 36,
      "hit": false,
      "t": 200388.2559999992,
      "d": 145.63099999999395,
      "v": 85
    },
    {
      "midi": 43,
      "hit": false,
      "t": 200388.2559999992,
      "d": 145.63099999999395,
      "v": 85
    },
    {
      "midi": 46,
      "hit": false,
      "t": 200388.2559999992,
      "d": 145.63099999999395,
      "v": 85
    },
    {
      "midi": 48,
      "hit": false,
      "t": 200388.2559999992,
      "d": 145.63099999999395,
      "v": 85
    },
    {
      "midi": 52,
      "hit": false,
      "t": 200461.0714999975,
      "d": 72.81549999999697,
      "v": 41
    },
    {
      "midi": 55,
      "hit": false,
      "t": 200533.88699999748,
      "d": 72.81549999999697,
      "v": 36
    },
    {
      "midi": 58,
      "hit": false,
      "t": 200606.70249999748,
      "d": 72.81549999999697,
      "v": 40
    },
    {
      "midi": 64,
      "hit": false,
      "t": 200679.51799999748,
      "d": 145.63099999999395,
      "v": 44
    },
    {
      "midi": 48,
      "hit": false,
      "t": 200752.3334999992,
      "d": 72.81549999999697,
      "v": 59
    },
    {
      "midi": 55,
      "hit": false,
      "t": 200825.1489999992,
      "d": 72.81549999999697,
      "v": 59
    },
    {
      "midi": 58,
      "hit": false,
      "t": 200897.9644999992,
      "d": 72.81549999999697,
      "v": 58
    },
    {
      "midi": 60,
      "hit": false,
      "t": 200970.77999999918,
      "d": 145.63099999999395,
      "v": 67
    },
    {
      "midi": 64,
      "hit": false,
      "t": 201043.59549999746,
      "d": 72.81549999999697,
      "v": 49
    },
    {
      "midi": 67,
      "hit": false,
      "t": 201116.41099999746,
      "d": 72.81549999999697,
      "v": 62
    },
    {
      "midi": 70,
      "hit": false,
      "t": 201189.22649999746,
      "d": 72.81549999999697,
      "v": 63
    },
    {
      "midi": 76,
      "hit": false,
      "t": 201262.04199999745,
      "d": 145.63099999999395,
      "v": 59
    },
    {
      "midi": 60,
      "hit": false,
      "t": 201334.85749999917,
      "d": 72.81549999999697,
      "v": 59
    },
    {
      "midi": 67,
      "hit": false,
      "t": 201407.67299999917,
      "d": 72.81549999999697,
      "v": 62
    },
    {
      "midi": 70,
      "hit": false,
      "t": 201480.48849999916,
      "d": 72.81549999999697,
      "v": 55
    },
    {
      "midi": 72,
      "hit": false,
      "t": 201553.30399999916,
      "d": 145.63099999999395,
      "v": 62
    },
    {
      "midi": 76,
      "hit": false,
      "t": 201626.11949999744,
      "d": 72.81549999999697,
      "v": 47
    },
    {
      "midi": 79,
      "hit": false,
      "t": 201698.93499999744,
      "d": 72.81549999999697,
      "v": 67
    },
    {
      "midi": 82,
      "hit": false,
      "t": 201771.75049999743,
      "d": 72.81549999999697,
      "v": 74
    },
    {
      "midi": 88,
      "hit": false,
      "t": 201854.27473333076,
      "d": 145.63099999999395,
      "v": 56
    },
    {
      "midi": 37,
      "hit": false,
      "t": 202718.35199999742,
      "d": 97.0873333333293,
      "v": 58
    },
    {
      "midi": 49,
      "hit": false,
      "t": 202815.43933333075,
      "d": 97.0873333333293,
      "v": 50
    },
    {
      "midi": 52,
      "hit": false,
      "t": 202912.52666666408,
      "d": 97.0873333333293,
      "v": 50
    },
    {
      "midi": 55,
      "hit": false,
      "t": 203009.6139999974,
      "d": 72.81549999999697,
      "v": 50
    },
    {
      "midi": 58,
      "hit": false,
      "t": 203082.4294999974,
      "d": 72.81549999999697,
      "v": 58
    },
    {
      "midi": 61,
      "hit": false,
      "t": 203155.2449999974,
      "d": 72.81549999999697,
      "v": 59
    },
    {
      "midi": 64,
      "hit": false,
      "t": 203228.0604999974,
      "d": 72.81549999999697,
      "v": 58
    },
    {
      "midi": 67,
      "hit": false,
      "t": 203300.8759999974,
      "d": 145.63099999999395,
      "v": 56
    },
    {
      "midi": 40,
      "hit": false,
      "t": 203883.3999999974,
      "d": 97.0873333333293,
      "v": 56
    },
    {
      "midi": 52,
      "hit": false,
      "t": 203980.48733333073,
      "d": 97.0873333333293,
      "v": 59
    },
    {
      "midi": 55,
      "hit": false,
      "t": 204077.57466666406,
      "d": 97.0873333333293,
      "v": 56
    },
    {
      "midi": 58,
      "hit": false,
      "t": 204174.6619999974,
      "d": 72.81549999999697,
      "v": 55
    },
    {
      "midi": 61,
      "hit": false,
      "t": 204247.4774999974,
      "d": 72.81549999999697,
      "v": 59
    },
    {
      "midi": 64,
      "hit": false,
      "t": 204320.2929999974,
      "d": 72.81549999999697,
      "v": 49
    },
    {
      "midi": 67,
      "hit": false,
      "t": 204393.10849999738,
      "d": 72.81549999999697,
      "v": 59
    },
    {
      "midi": 70,
      "hit": false,
      "t": 204465.92399999738,
      "d": 145.63099999999395,
      "v": 63
    },
    {
      "midi": 43,
      "hit": false,
      "t": 205048.44799999738,
      "d": 97.0873333333293,
      "v": 59
    },
    {
      "midi": 55,
      "hit": false,
      "t": 205145.5353333307,
      "d": 97.0873333333293,
      "v": 52
    },
    {
      "midi": 58,
      "hit": false,
      "t": 205242.62266666404,
      "d": 97.0873333333293,
      "v": 63
    },
    {
      "midi": 61,
      "hit": false,
      "t": 205339.70999999737,
      "d": 72.81549999999697,
      "v": 51
    },
    {
      "midi": 64,
      "hit": false,
      "t": 205412.52549999737,
      "d": 72.81549999999697,
      "v": 55
    },
    {
      "midi": 67,
      "hit": false,
      "t": 205485.34099999737,
      "d": 72.81549999999697,
      "v": 56
    },
    {
      "midi": 70,
      "hit": false,
      "t": 205558.15649999736,
      "d": 72.81549999999697,
      "v": 58
    },
    {
      "midi": 73,
      "hit": false,
      "t": 205630.97199999736,
      "d": 145.63099999999395,
      "v": 55
    },
    {
      "midi": 46,
      "hit": false,
      "t": 206213.49599999737,
      "d": 97.0873333333293,
      "v": 59
    },
    {
      "midi": 58,
      "hit": false,
      "t": 206310.5833333307,
      "d": 97.0873333333293,
      "v": 58
    },
    {
      "midi": 61,
      "hit": false,
      "t": 206407.67066666402,
      "d": 97.0873333333293,
      "v": 51
    },
    {
      "midi": 64,
      "hit": false,
      "t": 206504.75799999735,
      "d": 72.81549999999697,
      "v": 52
    },
    {
      "midi": 67,
      "hit": false,
      "t": 206577.57349999735,
      "d": 72.81549999999697,
      "v": 62
    },
    {
      "midi": 70,
      "hit": false,
      "t": 206650.38899999735,
      "d": 72.81549999999697,
      "v": 58
    },
    {
      "midi": 73,
      "hit": false,
      "t": 206723.20449999734,
      "d": 72.81549999999697,
      "v": 68
    },
    {
      "midi": 76,
      "hit": false,
      "t": 206796.01999999734,
      "d": 145.63099999999395,
      "v": 59
    },
    {
      "midi": 49,
      "hit": false,
      "t": 207378.54399999735,
      "d": 145.63099999999395,
      "v": 29
    },
    {
      "midi": 52,
      "hit": false,
      "t": 207524.17499999734,
      "d": 145.63099999999395,
      "v": 25
    },
    {
      "midi": 55,
      "hit": false,
      "t": 207669.80599999733,
      "d": 145.63099999999395,
      "v": 32
    },
    {
      "midi": 58,
      "hit": false,
      "t": 207815.43699999733,
      "d": 145.63099999999395,
      "v": 32
    },
    {
      "midi": 61,
      "hit": false,
      "t": 207961.06799999732,
      "d": 145.63099999999395,
      "v": 32
    },
    {
      "midi": 64,
      "hit": false,
      "t": 208106.69899999732,
      "d": 145.63099999999395,
      "v": 26
    },
    {
      "midi": 67,
      "hit": false,
      "t": 208252.3299999973,
      "d": 145.63099999999395,
      "v": 28
    },
    {
      "midi": 70,
      "hit": false,
      "t": 208397.9609999973,
      "d": 145.63099999999395,
      "v": 35
    },
    {
      "midi": 73,
      "hit": false,
      "t": 208543.5919999973,
      "d": 145.63099999999395,
      "v": 32
    },
    {
      "midi": 76,
      "hit": false,
      "t": 208689.2229999973,
      "d": 145.63099999999395,
      "v": 35
    },
    {
      "midi": 79,
      "hit": false,
      "t": 208834.85399999729,
      "d": 145.63099999999395,
      "v": 29
    },
    {
      "midi": 82,
      "hit": false,
      "t": 208980.48499999728,
      "d": 145.63099999999395,
      "v": 28
    },
    {
      "midi": 85,
      "hit": false,
      "t": 209126.11599999727,
      "d": 145.63099999999395,
      "v": 32
    },
    {
      "midi": 88,
      "hit": false,
      "t": 209271.74699999727,
      "d": 145.63099999999395,
      "v": 32
    },
    {
      "midi": 91,
      "hit": false,
      "t": 209417.37799999726,
      "d": 145.63099999999395,
      "v": 32
    },
    {
      "midi": 94,
      "hit": false,
      "t": 209563.00899999726,
      "d": 145.63099999999395,
      "v": 32
    },
    {
      "midi": 91,
      "hit": false,
      "t": 209708.63999999725,
      "d": 145.63099999999395,
      "v": 32
    },
    {
      "midi": 88,
      "hit": false,
      "t": 209854.27099999724,
      "d": 145.63099999999395,
      "v": 32
    },
    {
      "midi": 85,
      "hit": false,
      "t": 209999.90199999724,
      "d": 145.63099999999395,
      "v": 35
    },
    {
      "midi": 82,
      "hit": false,
      "t": 210145.53299999723,
      "d": 145.63099999999395,
      "v": 32
    },
    {
      "midi": 79,
      "hit": false,
      "t": 210291.16399999722,
      "d": 145.63099999999395,
      "v": 29
    },
    {
      "midi": 76,
      "hit": false,
      "t": 210436.79499999722,
      "d": 145.63099999999395,
      "v": 32
    },
    {
      "midi": 73,
      "hit": false,
      "t": 210582.4259999972,
      "d": 145.63099999999395,
      "v": 35
    },
    {
      "midi": 70,
      "hit": false,
      "t": 210728.0569999972,
      "d": 145.63099999999395,
      "v": 25
    },
    {
      "midi": 67,
      "hit": false,
      "t": 210873.6879999972,
      "d": 145.63099999999395,
      "v": 29
    },
    {
      "midi": 64,
      "hit": false,
      "t": 211019.3189999972,
      "d": 145.63099999999395,
      "v": 28
    },
    {
      "midi": 61,
      "hit": false,
      "t": 211164.9499999972,
      "d": 145.63099999999395,
      "v": 34
    },
    {
      "midi": 58,
      "hit": false,
      "t": 211310.58099999718,
      "d": 145.63099999999395,
      "v": 35
    },
    {
      "midi": 55,
      "hit": false,
      "t": 211456.21199999718,
      "d": 145.63099999999395,
      "v": 32
    },
    {
      "midi": 52,
      "hit": false,
      "t": 211601.84299999717,
      "d": 145.63099999999395,
      "v": 28
    },
    {
      "midi": 49,
      "hit": false,
      "t": 211747.47399999716,
      "d": 145.63099999999395,
      "v": 32
    },
    {
      "midi": 46,
      "hit": false,
      "t": 211893.10499999716,
      "d": 145.63099999999395,
      "v": 30
    },
    {
      "midi": 43,
      "hit": false,
      "t": 212038.73599999715,
      "d": 582.5240000000049,
      "v": 29
    },
    {
      "midi": 40,
      "hit": false,
      "t": 212621.25999999917,
      "d": 582.5240000000049,
      "v": 56
    },
    {
      "midi": 37,
      "hit": false,
      "t": 213203.78399999917,
      "d": 582.5240000000049,
      "v": 68
    },
    {
      "midi": 34,
      "hit": false,
      "t": 213786.30799999918,
      "d": 582.5240000000049,
      "v": 62
    },
    {
      "midi": 31,
      "hit": false,
      "t": 214368.83199999918,
      "d": 1165.0480000000098,
      "v": 47
    },
    {
      "midi": 43,
      "hit": false,
      "t": 215533.87999999715,
      "d": 436.89300000001094,
      "v": 25
    },
    {
      "midi": 46,
      "hit": false,
      "t": 215533.87999999715,
      "d": 436.89300000001094,
      "v": 48
    },
    {
      "midi": 48,
      "hit": false,
      "t": 215533.87999999715,
      "d": 436.89300000001094,
      "v": 47
    },
    {
      "midi": 52,
      "hit": false,
      "t": 215533.87999999715,
      "d": 436.89300000001094,
      "v": 44
    },
    {
      "midi": 36,
      "hit": false,
      "t": 215533.8799999992,
      "d": 1165.0480000000098,
      "v": 52
    },
    {
      "midi": 55,
      "hit": false,
      "t": 216698.92799999716,
      "d": 436.89300000001094,
      "v": 32
    },
    {
      "midi": 58,
      "hit": false,
      "t": 216698.92799999716,
      "d": 436.89300000001094,
      "v": 44
    },
    {
      "midi": 60,
      "hit": false,
      "t": 216698.92799999716,
      "d": 436.89300000001094,
      "v": 52
    },
    {
      "midi": 64,
      "hit": false,
      "t": 216698.92799999716,
      "d": 436.89300000001094,
      "v": 47
    },
    {
      "midi": 67,
      "hit": false,
      "t": 217281.45199999717,
      "d": 436.89300000001094,
      "v": 44
    },
    {
      "midi": 70,
      "hit": false,
      "t": 217281.45199999717,
      "d": 436.89300000001094,
      "v": 55
    },
    {
      "midi": 72,
      "hit": false,
      "t": 217281.45199999717,
      "d": 436.89300000001094,
      "v": 59
    },
    {
      "midi": 76,
      "hit": false,
      "t": 217281.45199999717,
      "d": 436.89300000001094,
      "v": 59
    },
    {
      "midi": 79,
      "hit": false,
      "t": 217863.97599999717,
      "d": 436.89300000001094,
      "v": 56
    },
    {
      "midi": 82,
      "hit": false,
      "t": 217863.97599999717,
      "d": 436.89300000001094,
      "v": 58
    },
    {
      "midi": 84,
      "hit": false,
      "t": 217863.97599999717,
      "d": 436.89300000001094,
      "v": 59
    },
    {
      "midi": 88,
      "hit": false,
      "t": 217863.97599999717,
      "d": 436.89300000001094,
      "v": 70
    },
    {
      "midi": 43,
      "hit": false,
      "t": 218446.49999999718,
      "d": 436.89300000001094,
      "v": 31
    },
    {
      "midi": 46,
      "hit": false,
      "t": 218446.49999999718,
      "d": 436.89300000001094,
      "v": 48
    },
    {
      "midi": 48,
      "hit": false,
      "t": 218446.49999999718,
      "d": 436.89300000001094,
      "v": 47
    },
    {
      "midi": 52,
      "hit": false,
      "t": 218446.49999999718,
      "d": 436.89300000001094,
      "v": 50
    },
    {
      "midi": 36,
      "hit": false,
      "t": 218737.7619999992,
      "d": 218.44649999999092,
      "v": 59
    },
    {
      "midi": 36,
      "hit": false,
      "t": 218956.2084999992,
      "d": 72.81549999999697,
      "v": 62
    },
    {
      "midi": 29,
      "hit": false,
      "t": 219029.0239999992,
      "d": 291.2619999999879,
      "v": 74
    },
    {
      "midi": 41,
      "hit": false,
      "t": 219029.0239999992,
      "d": 291.2619999999879,
      "v": 74
    },
    {
      "midi": 48,
      "hit": false,
      "t": 219101.83949999718,
      "d": 54.611624999990454,
      "v": 15
    },
    {
      "midi": 53,
      "hit": false,
      "t": 219174.65499999718,
      "d": 54.611624999990454,
      "v": 21
    },
    {
      "midi": 56,
      "hit": false,
      "t": 219247.47049999717,
      "d": 54.611624999990454,
      "v": 28
    },
    {
      "midi": 60,
      "hit": false,
      "t": 219320.28599999717,
      "d": 54.611624999990454,
      "v": 26
    },
    {
      "midi": 61,
      "hit": false,
      "t": 219393.10149999717,
      "d": 54.611624999990454,
      "v": 30
    },
    {
      "midi": 60,
      "hit": false,
      "t": 219465.91699999716,
      "d": 54.611624999990454,
      "v": 30
    },
    {
      "midi": 58,
      "hit": false,
      "t": 219538.73249999716,
      "d": 54.611624999990454,
      "v": 28
    },
    {
      "midi": 56,
      "hit": false,
      "t": 219611.54799999716,
      "d": 54.611624999990454,
      "v": 25
    },
    {
      "midi": 58,
      "hit": false,
      "t": 219684.36349999715,
      "d": 54.611624999990454,
      "v": 17
    },
    {
      "midi": 56,
      "hit": false,
      "t": 219757.17899999715,
      "d": 54.611624999990454,
      "v": 30
    },
    {
      "midi": 55,
      "hit": false,
      "t": 219829.99449999715,
      "d": 54.611624999990454,
      "v": 20
    },
    {
      "midi": 53,
      "hit": false,
      "t": 219902.80999999715,
      "d": 54.611624999990454,
      "v": 28
    },
    {
      "midi": 55,
      "hit": false,
      "t": 219975.62549999714,
      "d": 54.611624999990454,
      "v": 20
    },
    {
      "midi": 56,
      "hit": false,
      "t": 220048.44099999714,
      "d": 54.611624999990454,
      "v": 26
    },
    {
      "midi": 53,
      "hit": false,
      "t": 220121.25649999714,
      "d": 54.611624999990454,
      "v": 13
    },
    {
      "midi": 29,
      "hit": false,
      "t": 220194.07199999917,
      "d": 291.2619999999879,
      "v": 71
    },
    {
      "midi": 41,
      "hit": false,
      "t": 220194.07199999917,
      "d": 291.2619999999879,
      "v": 71
    },
    {
      "midi": 48,
      "hit": false,
      "t": 220266.88749999713,
      "d": 54.611624999990454,
      "v": 18
    },
    {
      "midi": 53,
      "hit": false,
      "t": 220339.70299999713,
      "d": 54.611624999990454,
      "v": 21
    },
    {
      "midi": 56,
      "hit": false,
      "t": 220412.51849999712,
      "d": 54.611624999990454,
      "v": 21
    },
    {
      "midi": 60,
      "hit": false,
      "t": 220485.33399999712,
      "d": 54.611624999990454,
      "v": 21
    },
    {
      "midi": 61,
      "hit": false,
      "t": 220558.14949999712,
      "d": 54.611624999990454,
      "v": 28
    },
    {
      "midi": 60,
      "hit": false,
      "t": 220630.96499999712,
      "d": 54.611624999990454,
      "v": 28
    },
    {
      "midi": 58,
      "hit": false,
      "t": 220703.7804999971,
      "d": 54.611624999990454,
      "v": 28
    },
    {
      "midi": 68,
      "hit": false,
      "t": 220703.78049999915,
      "d": 72.81549999999697,
      "v": 55
    },
    {
      "midi": 72,
      "hit": false,
      "t": 220703.78049999915,
      "d": 72.81549999999697,
      "v": 52
    },
    {
      "midi": 56,
      "hit": false,
      "t": 220776.5959999971,
      "d": 54.611624999990454,
      "v": 32
    },
    {
      "midi": 68,
      "hit": false,
      "t": 220776.59599999915,
      "d": 291.2619999999879,
      "v": 75
    },
    {
      "midi": 72,
      "hit": false,
      "t": 220776.59599999915,
      "d": 291.2619999999879,
      "v": 75
    },
    {
      "midi": 58,
      "hit": false,
      "t": 220849.4114999971,
      "d": 54.611624999990454,
      "v": 26
    },
    {
      "midi": 56,
      "hit": false,
      "t": 220922.2269999971,
      "d": 54.611624999990454,
      "v": 28
    },
    {
      "midi": 55,
      "hit": false,
      "t": 220995.0424999971,
      "d": 54.611624999990454,
      "v": 24
    },
    {
      "midi": 53,
      "hit": false,
      "t": 221067.8579999971,
      "d": 54.611624999990454,
      "v": 28
    },
    {
      "midi": 65,
      "hit": false,
      "t": 221067.85799999913,
      "d": 145.63099999999395,
      "v": 39
    },
    {
      "midi": 68,
      "hit": false,
      "t": 221067.85799999913,
      "d": 145.63099999999395,
      "v": 47
    },
    {
      "midi": 55,
      "hit": false,
      "t": 221140.6734999971,
      "d": 54.611624999990454,
      "v": 23
    },
    {
      "midi": 56,
      "hit": false,
      "t": 221213.4889999971,
      "d": 54.611624999990454,
      "v": 32
    },
    {
      "midi": 53,
      "hit": false,
      "t": 221286.3044999971,
      "d": 54.611624999990454,
      "v": 21
    },
    {
      "midi": 34,
      "hit": false,
      "t": 221359.11999999912,
      "d": 291.2619999999879,
      "v": 59
    },
    {
      "midi": 46,
      "hit": false,
      "t": 221359.11999999912,
      "d": 291.2619999999879,
      "v": 70
    },
    {
      "midi": 49,
      "hit": false,
      "t": 221431.93549999708,
      "d": 54.611624999990454,
      "v": 22
    },
    {
      "midi": 54,
      "hit": false,
      "t": 221504.75099999708,
      "d": 54.611624999990454,
      "v": 21
    },
    {
      "midi": 58,
      "hit": false,
      "t": 221577.56649999708,
      "d": 54.611624999990454,
      "v": 16
    },
    {
      "midi": 61,
      "hit": false,
      "t": 221650.38199999707,
      "d": 54.611624999990454,
      "v": 26
    },
    {
      "midi": 63,
      "hit": false,
      "t": 221723.19749999707,
      "d": 54.611624999990454,
      "v": 34
    },
    {
      "midi": 61,
      "hit": false,
      "t": 221796.01299999707,
      "d": 54.611624999990454,
      "v": 23
    },
    {
      "midi": 60,
      "hit": false,
      "t": 221868.82849999706,
      "d": 54.611624999990454,
      "v": 23
    },
    {
      "midi": 70,
      "hit": false,
      "t": 221868.8284999991,
      "d": 72.81549999999697,
      "v": 58
    },
    {
      "midi": 73,
      "hit": false,
      "t": 221868.8284999991,
      "d": 72.81549999999697,
      "v": 63
    },
    {
      "midi": 58,
      "hit": false,
      "t": 221941.64399999706,
      "d": 54.611624999990454,
      "v": 28
    },
    {
      "midi": 70,
      "hit": false,
      "t": 221941.6439999991,
      "d": 582.5240000000049,
      "v": 80
    },
    {
      "midi": 73,
      "hit": false,
      "t": 221941.6439999991,
      "d": 582.5240000000049,
      "v": 80
    },
    {
      "midi": 60,
      "hit": false,
      "t": 222014.45949999706,
      "d": 54.611624999990454,
      "v": 21
    },
    {
      "midi": 58,
      "hit": false,
      "t": 222087.27499999705,
      "d": 54.611624999990454,
      "v": 26
    },
    {
      "midi": 56,
      "hit": false,
      "t": 222160.09049999705,
      "d": 54.611624999990454,
      "v": 19
    },
    {
      "midi": 54,
      "hit": false,
      "t": 222232.90599999705,
      "d": 54.611624999990454,
      "v": 28
    },
    {
      "midi": 56,
      "hit": false,
      "t": 222305.72149999705,
      "d": 54.611624999990454,
      "v": 26
    },
    {
      "midi": 54,
      "hit": false,
      "t": 222378.53699999704,
      "d": 54.611624999990454,
      "v": 21
    },
    {
      "midi": 53,
      "hit": false,
      "t": 222451.35249999704,
      "d": 54.611624999990454,
      "v": 25
    },
    {
      "midi": 52,
      "hit": false,
      "t": 222524.16799999704,
      "d": 54.611624999990454,
      "v": 31
    },
    {
      "midi": 70,
      "hit": false,
      "t": 222524.1679999991,
      "d": 72.81549999999697,
      "v": 47
    },
    {
      "midi": 72,
      "hit": false,
      "t": 222524.1679999991,
      "d": 72.81549999999697,
      "v": 56
    },
    {
      "midi": 53,
      "hit": false,
      "t": 222596.98349999703,
      "d": 54.611624999990454,
      "v": 32
    },
    {
      "midi": 55,
      "hit": false,
      "t": 222669.79899999703,
      "d": 54.611624999990454,
      "v": 26
    },
    {
      "midi": 36,
      "hit": false,
      "t": 222669.7989999991,
      "d": 72.81549999999697,
      "v": 56
    },
    {
      "midi": 48,
      "hit": false,
      "t": 222669.7989999991,
      "d": 72.81549999999697,
      "v": 47
    },
    {
      "midi": 52,
      "hit": false,
      "t": 222742.61449999703,
      "d": 54.611624999990454,
      "v": 30
    },
    {
      "midi": 53,
      "hit": false,
      "t": 222815.42999999702,
      "d": 54.611624999990454,
      "v": 32
    },
    {
      "midi": 55,
      "hit": false,
      "t": 222888.24549999702,
      "d": 54.611624999990454,
      "v": 33
    },
    {
      "midi": 56,
      "hit": false,
      "t": 222961.06099999702,
      "d": 54.611624999990454,
      "v": 37
    },
    {
      "midi": 37,
      "hit": false,
      "t": 222961.06099999908,
      "d": 72.81549999999697,
      "v": 55
    },
    {
      "midi": 49,
      "hit": false,
      "t": 222961.06099999908,
      "d": 72.81549999999697,
      "v": 55
    },
    {
      "midi": 53,
      "hit": false,
      "t": 223033.87649999702,
      "d": 54.611624999990454,
      "v": 33
    },
    {
      "midi": 55,
      "hit": false,
      "t": 223106.691999997,
      "d": 54.611624999990454,
      "v": 47
    },
    {
      "midi": 56,
      "hit": false,
      "t": 223179.507499997,
      "d": 54.611624999990454,
      "v": 54
    },
    {
      "midi": 58,
      "hit": false,
      "t": 223252.322999997,
      "d": 54.611624999990454,
      "v": 50
    },
    {
      "midi": 34,
      "hit": false,
      "t": 223252.32299999907,
      "d": 72.81549999999697,
      "v": 59
    },
    {
      "midi": 46,
      "hit": false,
      "t": 223252.32299999907,
      "d": 72.81549999999697,
      "v": 55
    },
    {
      "midi": 55,
      "hit": false,
      "t": 223325.138499997,
      "d": 54.611624999990454,
      "v": 44
    },
    {
      "midi": 52,
      "hit": false,
      "t": 223397.953999997,
      "d": 54.611624999990454,
      "v": 52
    },
    {
      "midi": 53,
      "hit": false,
      "t": 223470.769499997,
      "d": 54.611624999990454,
      "v": 48
    },
    {
      "midi": 55,
      "hit": false,
      "t": 223543.584999997,
      "d": 54.611624999990454,
      "v": 47
    },
    {
      "midi": 36,
      "hit": false,
      "t": 223543.58499999906,
      "d": 72.81549999999697,
      "v": 59
    },
    {
      "midi": 48,
      "hit": false,
      "t": 223543.58499999906,
      "d": 72.81549999999697,
      "v": 50
    },
    {
      "midi": 52,
      "hit": false,
      "t": 223616.400499997,
      "d": 54.611624999990454,
      "v": 52
    },
    {
      "midi": 53,
      "hit": false,
      "t": 223689.215999997,
      "d": 218.44649999999092,
      "v": 30
    },
    {
      "midi": 41,
      "hit": false,
      "t": 223689.21599999905,
      "d": 72.81549999999697,
      "v": 36
    },
    {
      "midi": 53,
      "hit": false,
      "t": 223689.21599999905,
      "d": 72.81549999999697,
      "v": 32
    },
    {
      "midi": 48,
      "hit": false,
      "t": 223762.03149999905,
      "d": 72.81549999999697,
      "v": 28
    },
    {
      "midi": 53,
      "hit": false,
      "t": 223834.84699999905,
      "d": 72.81549999999697,
      "v": 28
    },
    {
      "midi": 56,
      "hit": false,
      "t": 223907.66249999905,
      "d": 72.81549999999697,
      "v": 35
    },
    {
      "midi": 60,
      "hit": false,
      "t": 223980.47799999904,
      "d": 72.81549999999697,
      "v": 35
    },
    {
      "midi": 61,
      "hit": false,
      "t": 224053.29349999904,
      "d": 72.81549999999697,
      "v": 32
    },
    {
      "midi": 64,
      "hit": false,
      "t": 224126.10899999697,
      "d": 72.81549999999697,
      "v": 39
    },
    {
      "midi": 60,
      "hit": false,
      "t": 224126.10899999904,
      "d": 72.81549999999697,
      "v": 26
    },
    {
      "midi": 58,
      "hit": false,
      "t": 224198.92449999903,
      "d": 72.81549999999697,
      "v": 26
    },
    {
      "midi": 65,
      "hit": false,
      "t": 224271.73999999696,
      "d": 72.81549999999697,
      "v": 47
    },
    {
      "midi": 56,
      "hit": false,
      "t": 224271.73999999903,
      "d": 72.81549999999697,
      "v": 37
    },
    {
      "midi": 58,
      "hit": false,
      "t": 224344.55549999903,
      "d": 72.81549999999697,
      "v": 30
    },
    {
      "midi": 67,
      "hit": false,
      "t": 224417.37099999696,
      "d": 72.81549999999697,
      "v": 50
    },
    {
      "midi": 56,
      "hit": false,
      "t": 224417.37099999902,
      "d": 72.81549999999697,
      "v": 30
    },
    {
      "midi": 55,
      "hit": false,
      "t": 224490.18649999902,
      "d": 72.81549999999697,
      "v": 31
    },
    {
      "midi": 68,
      "hit": false,
      "t": 224563.00199999695,
      "d": 72.81549999999697,
      "v": 58
    },
    {
      "midi": 53,
      "hit": false,
      "t": 224563.00199999902,
      "d": 72.81549999999697,
      "v": 33
    },
    {
      "midi": 55,
      "hit": false,
      "t": 224635.81749999902,
      "d": 72.81549999999697,
      "v": 33
    },
    {
      "midi": 65,
      "hit": false,
      "t": 224708.63299999695,
      "d": 72.81549999999697,
      "v": 41
    },
    {
      "midi": 56,
      "hit": false,
      "t": 224708.632999999,
      "d": 72.81549999999697,
      "v": 37
    },
    {
      "midi": 53,
      "hit": false,
      "t": 224781.448499999,
      "d": 72.81549999999697,
      "v": 27
    },
    {
      "midi": 56,
      "hit": false,
      "t": 224854.263999999,
      "d": 72.81549999999697,
      "v": 37
    },
    {
      "midi": 48,
      "hit": false,
      "t": 224927.079499999,
      "d": 72.81549999999697,
      "v": 33
    },
    {
      "midi": 53,
      "hit": false,
      "t": 224999.894999999,
      "d": 72.81549999999697,
      "v": 33
    },
    {
      "midi": 56,
      "hit": false,
      "t": 225072.710499999,
      "d": 72.81549999999697,
      "v": 30
    },
    {
      "midi": 60,
      "hit": false,
      "t": 225145.525999999,
      "d": 72.81549999999697,
      "v": 31
    },
    {
      "midi": 61,
      "hit": false,
      "t": 225218.341499999,
      "d": 72.81549999999697,
      "v": 30
    },
    {
      "midi": 64,
      "hit": false,
      "t": 225291.15699999695,
      "d": 72.81549999999697,
      "v": 39
    },
    {
      "midi": 76,
      "hit": false,
      "t": 225291.15699999695,
      "d": 72.81549999999697,
      "v": 56
    },
    {
      "midi": 60,
      "hit": false,
      "t": 225291.156999999,
      "d": 72.81549999999697,
      "v": 30
    },
    {
      "midi": 58,
      "hit": false,
      "t": 225363.97249999898,
      "d": 72.81549999999697,
      "v": 28
    },
    {
      "midi": 65,
      "hit": false,
      "t": 225436.78799999694,
      "d": 72.81549999999697,
      "v": 41
    },
    {
      "midi": 77,
      "hit": false,
      "t": 225436.78799999694,
      "d": 72.81549999999697,
      "v": 59
    },
    {
      "midi": 56,
      "hit": false,
      "t": 225436.78799999898,
      "d": 72.81549999999697,
      "v": 35
    },
    {
      "midi": 58,
      "hit": false,
      "t": 225509.60349999898,
      "d": 72.81549999999697,
      "v": 33
    },
    {
      "midi": 67,
      "hit": false,
      "t": 225582.41899999694,
      "d": 72.81549999999697,
      "v": 47
    },
    {
      "midi": 79,
      "hit": false,
      "t": 225582.41899999694,
      "d": 72.81549999999697,
      "v": 59
    },
    {
      "midi": 56,
      "hit": false,
      "t": 225582.41899999898,
      "d": 72.81549999999697,
      "v": 35
    },
    {
      "midi": 55,
      "hit": false,
      "t": 225655.23449999897,
      "d": 72.81549999999697,
      "v": 37
    },
    {
      "midi": 68,
      "hit": false,
      "t": 225728.04999999693,
      "d": 72.81549999999697,
      "v": 44
    },
    {
      "midi": 80,
      "hit": false,
      "t": 225728.04999999693,
      "d": 72.81549999999697,
      "v": 58
    },
    {
      "midi": 53,
      "hit": false,
      "t": 225728.04999999897,
      "d": 72.81549999999697,
      "v": 39
    },
    {
      "midi": 55,
      "hit": false,
      "t": 225800.86549999897,
      "d": 72.81549999999697,
      "v": 37
    },
    {
      "midi": 65,
      "hit": false,
      "t": 225873.68099999693,
      "d": 72.81549999999697,
      "v": 26
    },
    {
      "midi": 77,
      "hit": false,
      "t": 225873.68099999693,
      "d": 72.81549999999697,
      "v": 44
    },
    {
      "midi": 56,
      "hit": false,
      "t": 225873.68099999896,
      "d": 72.81549999999697,
      "v": 43
    },
    {
      "midi": 53,
      "hit": false,
      "t": 225946.49649999896,
      "d": 72.81549999999697,
      "v": 37
    },
    {
      "midi": 58,
      "hit": false,
      "t": 226019.31199999896,
      "d": 72.81549999999697,
      "v": 37
    },
    {
      "midi": 49,
      "hit": false,
      "t": 226092.12749999895,
      "d": 72.81549999999697,
      "v": 40
    },
    {
      "midi": 54,
      "hit": false,
      "t": 226164.94299999895,
      "d": 72.81549999999697,
      "v": 37
    },
    {
      "midi": 58,
      "hit": false,
      "t": 226237.75849999895,
      "d": 72.81549999999697,
      "v": 33
    },
    {
      "midi": 61,
      "hit": false,
      "t": 226310.57399999895,
      "d": 72.81549999999697,
      "v": 37
    },
    {
      "midi": 63,
      "hit": false,
      "t": 226383.38949999894,
      "d": 72.81549999999697,
      "v": 30
    },
    {
      "midi": 65,
      "hit": false,
      "t": 226456.20499999693,
      "d": 72.81549999999697,
      "v": 36
    },
    {
      "midi": 77,
      "hit": false,
      "t": 226456.20499999693,
      "d": 72.81549999999697,
      "v": 50
    },
    {
      "midi": 61,
      "hit": false,
      "t": 226456.20499999894,
      "d": 72.81549999999697,
      "v": 32
    },
    {
      "midi": 60,
      "hit": false,
      "t": 226529.02049999894,
      "d": 72.81549999999697,
      "v": 28
    },
    {
      "midi": 66,
      "hit": false,
      "t": 226601.83599999693,
      "d": 72.81549999999697,
      "v": 40
    },
    {
      "midi": 78,
      "hit": false,
      "t": 226601.83599999693,
      "d": 72.81549999999697,
      "v": 63
    },
    {
      "midi": 58,
      "hit": false,
      "t": 226601.83599999893,
      "d": 72.81549999999697,
      "v": 40
    },
    {
      "midi": 60,
      "hit": false,
      "t": 226674.65149999893,
      "d": 72.81549999999697,
      "v": 30
    },
    {
      "midi": 70,
      "hit": false,
      "t": 226747.46699999692,
      "d": 72.81549999999697,
      "v": 47
    },
    {
      "midi": 82,
      "hit": false,
      "t": 226747.46699999692,
      "d": 72.81549999999697,
      "v": 63
    },
    {
      "midi": 58,
      "hit": false,
      "t": 226747.46699999893,
      "d": 72.81549999999697,
      "v": 28
    },
    {
      "midi": 56,
      "hit": false,
      "t": 226820.28249999892,
      "d": 72.81549999999697,
      "v": 30
    },
    {
      "midi": 73,
      "hit": false,
      "t": 226893.0979999969,
      "d": 72.81549999999697,
      "v": 35
    },
    {
      "midi": 85,
      "hit": false,
      "t": 226893.0979999969,
      "d": 72.81549999999697,
      "v": 63
    },
    {
      "midi": 54,
      "hit": false,
      "t": 226893.09799999892,
      "d": 72.81549999999697,
      "v": 37
    },
    {
      "midi": 56,
      "hit": false,
      "t": 226965.91349999892,
      "d": 72.81549999999697,
      "v": 35
    },
    {
      "midi": 73,
      "hit": false,
      "t": 227038.7289999969,
      "d": 72.81549999999697,
      "v": 44
    },
    {
      "midi": 85,
      "hit": false,
      "t": 227038.7289999969,
      "d": 72.81549999999697,
      "v": 63
    },
    {
      "midi": 54,
      "hit": false,
      "t": 227038.72899999892,
      "d": 72.81549999999697,
      "v": 33
    },
    {
      "midi": 53,
      "hit": false,
      "t": 227111.5444999989,
      "d": 72.81549999999697,
      "v": 33
    },
    {
      "midi": 73,
      "hit": false,
      "t": 227184.3599999969,
      "d": 145.63099999999395,
      "v": 68
    },
    {
      "midi": 85,
      "hit": false,
      "t": 227184.3599999969,
      "d": 145.63099999999395,
      "v": 74
    },
    {
      "midi": 52,
      "hit": false,
      "t": 227184.3599999989,
      "d": 72.81549999999697,
      "v": 40
    },
    {
      "midi": 53,
      "hit": false,
      "t": 227257.1754999989,
      "d": 72.81549999999697,
      "v": 33
    },
    {
      "midi": 55,
      "hit": false,
      "t": 227329.9909999989,
      "d": 72.81549999999697,
      "v": 33
    },
    {
      "midi": 56,
      "hit": false,
      "t": 227402.8064999989,
      "d": 72.81549999999697,
      "v": 37
    },
    {
      "midi": 72,
      "hit": false,
      "t": 227475.6219999969,
      "d": 291.2619999999879,
      "v": 50
    },
    {
      "midi": 84,
      "hit": false,
      "t": 227475.6219999969,
      "d": 291.2619999999879,
      "v": 59
    },
    {
      "midi": 58,
      "hit": false,
      "t": 227475.6219999989,
      "d": 72.81549999999697,
      "v": 40
    },
    {
      "midi": 56,
      "hit": false,
      "t": 227548.4374999989,
      "d": 72.81549999999697,
      "v": 37
    },
    {
      "midi": 55,
      "hit": false,
      "t": 227621.2529999989,
      "d": 72.81549999999697,
      "v": 33
    },
    {
      "midi": 53,
      "hit": false,
      "t": 227694.0684999989,
      "d": 72.81549999999697,
      "v": 30
    },
    {
      "midi": 52,
      "hit": false,
      "t": 227766.88399999888,
      "d": 72.81549999999697,
      "v": 30
    },
    {
      "midi": 53,
      "hit": false,
      "t": 227839.69949999888,
      "d": 72.81549999999697,
      "v": 32
    },
    {
      "midi": 52,
      "hit": false,
      "t": 227912.51499999888,
      "d": 72.81549999999697,
      "v": 33
    },
    {
      "midi": 49,
      "hit": false,
      "t": 227985.33049999888,
      "d": 72.81549999999697,
      "v": 30
    },
    {
      "midi": 64,
      "hit": false,
      "t": 228058.14599999686,
      "d": 145.63099999999395,
      "v": 47
    },
    {
      "midi": 76,
      "hit": false,
      "t": 228058.14599999686,
      "d": 145.63099999999395,
      "v": 59
    },
    {
      "midi": 48,
      "hit": false,
      "t": 228058.14599999887,
      "d": 72.81549999999697,
      "v": 28
    },
    {
      "midi": 46,
      "hit": false,
      "t": 228130.96149999887,
      "d": 72.81549999999697,
      "v": 32
    },
    {
      "midi": 44,
      "hit": false,
      "t": 228203.77699999887,
      "d": 72.81549999999697,
      "v": 34
    },
    {
      "midi": 43,
      "hit": false,
      "t": 228276.59249999886,
      "d": 72.81549999999697,
      "v": 35
    },
    {
      "midi": 65,
      "hit": false,
      "t": 228349.40799999685,
      "d": 72.81549999999697,
      "v": 41
    },
    {
      "midi": 77,
      "hit": false,
      "t": 228349.40799999685,
      "d": 72.81549999999697,
      "v": 47
    },
    {
      "midi": 41,
      "hit": false,
      "t": 228349.40799999886,
      "d": 291.2619999999879,
      "v": 71
    },
    {
      "midi": 60,
      "hit": false,
      "t": 228422.22349999685,
      "d": 72.81549999999697,
      "v": 41
    },
    {
      "midi": 65,
      "hit": false,
      "t": 228495.03899999685,
      "d": 72.81549999999697,
      "v": 39
    },
    {
      "midi": 68,
      "hit": false,
      "t": 228567.85449999684,
      "d": 72.81549999999697,
      "v": 38
    },
    {
      "midi": 72,
      "hit": false,
      "t": 228640.66999999684,
      "d": 72.81549999999697,
      "v": 59
    },
    {
      "midi": 60,
      "hit": false,
      "t": 228713.48549999684,
      "d": 72.81549999999697,
      "v": 10
    },
    {
      "midi": 65,
      "hit": false,
      "t": 228786.30099999683,
      "d": 72.81549999999697,
      "v": 36
    },
    {
      "midi": 68,
      "hit": false,
      "t": 228859.11649999683,
      "d": 72.81549999999697,
      "v": 35
    },
    {
      "midi": 53,
      "hit": false,
      "t": 228859.11649999884,
      "d": 72.81549999999697,
      "v": 56
    },
    {
      "midi": 56,
      "hit": false,
      "t": 228859.11649999884,
      "d": 72.81549999999697,
      "v": 62
    },
    {
      "midi": 53,
      "hit": false,
      "t": 228931.93199999884,
      "d": 291.2619999999879,
      "v": 71
    },
    {
      "midi": 56,
      "hit": false,
      "t": 228931.93199999884,
      "d": 291.2619999999879,
      "v": 72
    },
    {
      "midi": 60,
      "hit": false,
      "t": 229004.74749999683,
      "d": 72.81549999999697,
      "v": 47
    },
    {
      "midi": 65,
      "hit": false,
      "t": 229077.56299999682,
      "d": 72.81549999999697,
      "v": 44
    },
    {
      "midi": 68,
      "hit": false,
      "t": 229150.37849999682,
      "d": 72.81549999999697,
      "v": 40
    },
    {
      "midi": 72,
      "hit": false,
      "t": 229223.19399999682,
      "d": 72.81549999999697,
      "v": 59
    },
    {
      "midi": 60,
      "hit": false,
      "t": 229296.0094999968,
      "d": 72.81549999999697,
      "v": 23
    },
    {
      "midi": 65,
      "hit": false,
      "t": 229368.8249999968,
      "d": 72.81549999999697,
      "v": 44
    },
    {
      "midi": 68,
      "hit": false,
      "t": 229441.6404999968,
      "d": 72.81549999999697,
      "v": 32
    },
    {
      "midi": 53,
      "hit": false,
      "t": 229441.64049999882,
      "d": 72.81549999999697,
      "v": 56
    },
    {
      "midi": 56,
      "hit": false,
      "t": 229441.64049999882,
      "d": 72.81549999999697,
      "v": 62
    },
    {
      "midi": 48,
      "hit": false,
      "t": 229514.4559999988,
      "d": 582.5240000000049,
      "v": 80
    },
    {
      "midi": 53,
      "hit": false,
      "t": 229514.4559999988,
      "d": 582.5240000000049,
      "v": 85
    },
    {
      "midi": 56,
      "hit": false,
      "t": 229514.4559999988,
      "d": 582.5240000000049,
      "v": 85
    },
    {
      "midi": 59,
      "hit": false,
      "t": 229587.2714999968,
      "d": 72.81549999999697,
      "v": 43
    },
    {
      "midi": 62,
      "hit": false,
      "t": 229660.0869999968,
      "d": 72.81549999999697,
      "v": 36
    },
    {
      "midi": 68,
      "hit": false,
      "t": 229732.9024999968,
      "d": 72.81549999999697,
      "v": 50
    },
    {
      "midi": 71,
      "hit": false,
      "t": 229805.7179999968,
      "d": 72.81549999999697,
      "v": 59
    },
    {
      "midi": 59,
      "hit": false,
      "t": 229878.5334999968,
      "d": 72.81549999999697,
      "v": 45
    },
    {
      "midi": 62,
      "hit": false,
      "t": 229951.3489999968,
      "d": 72.81549999999697,
      "v": 50
    },
    {
      "midi": 68,
      "hit": false,
      "t": 230024.16449999678,
      "d": 72.81549999999697,
      "v": 47
    },
    {
      "midi": 71,
      "hit": false,
      "t": 230096.97999999678,
      "d": 72.81549999999697,
      "v": 59
    },
    {
      "midi": 48,
      "hit": false,
      "t": 230096.97999999882,
      "d": 145.63099999999395,
      "v": 41
    },
    {
      "midi": 52,
      "hit": false,
      "t": 230096.97999999882,
      "d": 145.63099999999395,
      "v": 52
    },
    {
      "midi": 55,
      "hit": false,
      "t": 230096.97999999882,
      "d": 145.63099999999395,
      "v": 56
    },
    {
      "midi": 59,
      "hit": false,
      "t": 230169.79549999678,
      "d": 72.81549999999697,
      "v": 19
    },
    {
      "midi": 64,
      "hit": false,
      "t": 230242.61099999677,
      "d": 72.81549999999697,
      "v": 31
    },
    {
      "midi": 67,
      "hit": false,
      "t": 230315.42649999677,
      "d": 72.81549999999697,
      "v": 34
    },
    {
      "midi": 72,
      "hit": false,
      "t": 230388.24199999677,
      "d": 72.81549999999697,
      "v": 62
    },
    {
      "midi": 60,
      "hit": false,
      "t": 230461.05749999676,
      "d": 72.81549999999697,
      "v": 47
    },
    {
      "midi": 64,
      "hit": false,
      "t": 230533.87299999676,
      "d": 72.81549999999697,
      "v": 42
    },
    {
      "midi": 67,
      "hit": false,
      "t": 230606.68849999676,
      "d": 72.81549999999697,
      "v": 36
    },
    {
      "midi": 36,
      "hit": false,
      "t": 230679.50399999882,
      "d": 291.2619999999879,
      "v": 67
    },
    {
      "midi": 48,
      "hit": false,
      "t": 230679.50399999882,
      "d": 291.2619999999879,
      "v": 62
    },
    {
      "midi": 60,
      "hit": false,
      "t": 230752.31949999675,
      "d": 72.81549999999697,
      "v": 44
    },
    {
      "midi": 64,
      "hit": false,
      "t": 230825.13499999675,
      "d": 72.81549999999697,
      "v": 42
    },
    {
      "midi": 67,
      "hit": false,
      "t": 230897.95049999675,
      "d": 72.81549999999697,
      "v": 44
    },
    {
      "midi": 72,
      "hit": false,
      "t": 230970.76599999674,
      "d": 72.81549999999697,
      "v": 56
    },
    {
      "midi": 60,
      "hit": false,
      "t": 231043.58149999674,
      "d": 72.81549999999697,
      "v": 47
    },
    {
      "midi": 64,
      "hit": false,
      "t": 231116.39699999674,
      "d": 72.81549999999697,
      "v": 47
    },
    {
      "midi": 67,
      "hit": false,
      "t": 231189.21249999673,
      "d": 72.81549999999697,
      "v": 41
    },
    {
      "midi": 55,
      "hit": false,
      "t": 231189.2124999988,
      "d": 72.81549999999697,
      "v": 67
    },
    {
      "midi": 58,
      "hit": false,
      "t": 231189.2124999988,
      "d": 72.81549999999697,
      "v": 63
    },
    {
      "midi": 55,
      "hit": false,
      "t": 231262.0279999988,
      "d": 291.2619999999879,
      "v": 67
    },
    {
      "midi": 58,
      "hit": false,
      "t": 231262.0279999988,
      "d": 291.2619999999879,
      "v": 63
    },
    {
      "midi": 60,
      "hit": false,
      "t": 231334.84349999673,
      "d": 72.81549999999697,
      "v": 36
    },
    {
      "midi": 64,
      "hit": false,
      "t": 231407.65899999673,
      "d": 72.81549999999697,
      "v": 42
    },
    {
      "midi": 67,
      "hit": false,
      "t": 231480.47449999672,
      "d": 72.81549999999697,
      "v": 52
    },
    {
      "midi": 72,
      "hit": false,
      "t": 231553.28999999672,
      "d": 72.81549999999697,
      "v": 62
    },
    {
      "midi": 60,
      "hit": false,
      "t": 231626.10549999672,
      "d": 72.81549999999697,
      "v": 32
    },
    {
      "midi": 64,
      "hit": false,
      "t": 231698.9209999967,
      "d": 72.81549999999697,
      "v": 42
    },
    {
      "midi": 67,
      "hit": false,
      "t": 231771.7364999967,
      "d": 72.81549999999697,
      "v": 36
    },
    {
      "midi": 55,
      "hit": false,
      "t": 231771.73649999878,
      "d": 72.81549999999697,
      "v": 56
    },
    {
      "midi": 58,
      "hit": false,
      "t": 231771.73649999878,
      "d": 72.81549999999697,
      "v": 44
    },
    {
      "midi": 53,
      "hit": false,
      "t": 231844.55199999877,
      "d": 582.5240000000049,
      "v": 80
    },
    {
      "midi": 55,
      "hit": false,
      "t": 231844.55199999877,
      "d": 582.5240000000049,
      "v": 80
    },
    {
      "midi": 58,
      "hit": false,
      "t": 231844.55199999877,
      "d": 582.5240000000049,
      "v": 85
    },
    {
      "midi": 60,
      "hit": false,
      "t": 231917.3674999967,
      "d": 72.81549999999697,
      "v": 50
    },
    {
      "midi": 64,
      "hit": false,
      "t": 231990.1829999967,
      "d": 72.81549999999697,
      "v": 52
    },
    {
      "midi": 67,
      "hit": false,
      "t": 232062.9984999967,
      "d": 72.81549999999697,
      "v": 56
    },
    {
      "midi": 72,
      "hit": false,
      "t": 232135.8139999967,
      "d": 72.81549999999697,
      "v": 59
    },
    {
      "midi": 60,
      "hit": false,
      "t": 232208.6294999967,
      "d": 72.81549999999697,
      "v": 41
    },
    {
      "midi": 64,
      "hit": false,
      "t": 232281.4449999967,
      "d": 72.81549999999697,
      "v": 42
    },
    {
      "midi": 67,
      "hit": false,
      "t": 232354.2604999967,
      "d": 72.81549999999697,
      "v": 29
    },
    {
      "midi": 72,
      "hit": false,
      "t": 232427.07599999668,
      "d": 72.81549999999697,
      "v": 52
    },
    {
      "midi": 53,
      "hit": false,
      "t": 232427.07599999878,
      "d": 145.63099999999395,
      "v": 56
    },
    {
      "midi": 56,
      "hit": false,
      "t": 232427.07599999878,
      "d": 145.63099999999395,
      "v": 39
    },
    {
      "midi": 60,
      "hit": false,
      "t": 232499.89149999668,
      "d": 72.81549999999697,
      "v": 41
    },
    {
      "midi": 64,
      "hit": false,
      "t": 232572.70699999668,
      "d": 72.81549999999697,
      "v": 44
    },
    {
      "midi": 67,
      "hit": false,
      "t": 232645.52249999667,
      "d": 72.81549999999697,
      "v": 41
    },
    {
      "midi": 72,
      "hit": false,
      "t": 232718.33799999667,
      "d": 72.81549999999697,
      "v": 59
    },
    {
      "midi": 60,
      "hit": false,
      "t": 232791.15349999667,
      "d": 72.81549999999697,
      "v": 47
    },
    {
      "midi": 65,
      "hit": false,
      "t": 232863.96899999666,
      "d": 72.81549999999697,
      "v": 56
    },
    {
      "midi": 68,
      "hit": false,
      "t": 232936.78449999666,
      "d": 72.81549999999697,
      "v": 55
    },
    {
      "midi": 41,
      "hit": false,
      "t": 233009.59999999878,
      "d": 291.2619999999879,
      "v": 60
    },
    {
      "midi": 53,
      "hit": false,
      "t": 233009.59999999878,
      "d": 291.2619999999879,
      "v": 60
    },
    {
      "midi": 65,
      "hit": false,
      "t": 233082.41549999666,
      "d": 72.81549999999697,
      "v": 47
    },
    {
      "midi": 69,
      "hit": false,
      "t": 233155.23099999665,
      "d": 72.81549999999697,
      "v": 50
    },
    {
      "midi": 72,
      "hit": false,
      "t": 233228.04649999665,
      "d": 72.81549999999697,
      "v": 59
    },
    {
      "midi": 77,
      "hit": false,
      "t": 233300.86199999665,
      "d": 72.81549999999697,
      "v": 62
    },
    {
      "midi": 65,
      "hit": false,
      "t": 233373.67749999664,
      "d": 72.81549999999697,
      "v": 52
    },
    {
      "midi": 69,
      "hit": false,
      "t": 233446.49299999664,
      "d": 72.81549999999697,
      "v": 56
    },
    {
      "midi": 72,
      "hit": false,
      "t": 233519.30849999664,
      "d": 72.81549999999697,
      "v": 47
    },
    {
      "midi": 60,
      "hit": false,
      "t": 233519.30849999876,
      "d": 72.81549999999697,
      "v": 59
    },
    {
      "midi": 63,
      "hit": false,
      "t": 233519.30849999876,
      "d": 72.81549999999697,
      "v": 68
    },
    {
      "midi": 60,
      "hit": false,
      "t": 233592.12399999876,
      "d": 291.2619999999879,
      "v": 67
    },
    {
      "midi": 63,
      "hit": false,
      "t": 233592.12399999876,
      "d": 291.2619999999879,
      "v": 74
    },
    {
      "midi": 65,
      "hit": false,
      "t": 233664.93949999663,
      "d": 72.81549999999697,
      "v": 56
    },
    {
      "midi": 69,
      "hit": false,
      "t": 233737.75499999663,
      "d": 72.81549999999697,
      "v": 62
    },
    {
      "midi": 72,
      "hit": false,
      "t": 233810.57049999663,
      "d": 72.81549999999697,
      "v": 56
    },
    {
      "midi": 77,
      "hit": false,
      "t": 233883.38599999662,
      "d": 72.81549999999697,
      "v": 59
    },
    {
      "midi": 65,
      "hit": false,
      "t": 233956.20149999662,
      "d": 72.81549999999697,
      "v": 59
    },
    {
      "midi": 69,
      "hit": false,
      "t": 234029.01699999662,
      "d": 72.81549999999697,
      "v": 62
    },
    {
      "midi": 72,
      "hit": false,
      "t": 234101.8324999966,
      "d": 72.81549999999697,
      "v": 59
    },
    {
      "midi": 60,
      "hit": false,
      "t": 234101.83249999874,
      "d": 72.81549999999697,
      "v": 52
    },
    {
      "midi": 63,
      "hit": false,
      "t": 234101.83249999874,
      "d": 72.81549999999697,
      "v": 55
    },
    {
      "midi": 60,
      "hit": false,
      "t": 234174.64799999874,
      "d": 665.0482333333348,
      "v": 85
    },
    {
      "midi": 63,
      "hit": false,
      "t": 234174.64799999874,
      "d": 665.0482333333348,
      "v": 85
    },
    {
      "midi": 58,
      "hit": false,
      "t": 234174.64799999874,
      "d": 669.9026000000013,
      "v": 85
    },
    {
      "midi": 65,
      "hit": false,
      "t": 234247.4634999966,
      "d": 72.81549999999697,
      "v": 59
    },
    {
      "midi": 69,
      "hit": false,
      "t": 234320.2789999966,
      "d": 72.81549999999697,
      "v": 59
    },
    {
      "midi": 72,
      "hit": false,
      "t": 234393.0944999966,
      "d": 72.81549999999697,
      "v": 59
    },
    {
      "midi": 77,
      "hit": false,
      "t": 234465.9099999966,
      "d": 72.81549999999697,
      "v": 62
    },
    {
      "midi": 65,
      "hit": false,
      "t": 234538.7254999966,
      "d": 72.81549999999697,
      "v": 59
    },
    {
      "midi": 69,
      "hit": false,
      "t": 234611.5409999966,
      "d": 72.81549999999697,
      "v": 59
    },
    {
      "midi": 72,
      "hit": false,
      "t": 234684.3564999966,
      "d": 72.81549999999697,
      "v": 56
    },
    {
      "midi": 65,
      "hit": false,
      "t": 234757.1719999966,
      "d": 72.81549999999697,
      "v": 39
    },
    {
      "midi": 69,
      "hit": false,
      "t": 234757.1719999966,
      "d": 72.81549999999697,
      "v": 44
    },
    {
      "midi": 77,
      "hit": false,
      "t": 234829.98749999658,
      "d": 72.81549999999697,
      "v": 56
    },
    {
      "midi": 65,
      "hit": false,
      "t": 234902.80299999658,
      "d": 72.81549999999697,
      "v": 52
    },
    {
      "midi": 70,
      "hit": false,
      "t": 234902.80299999658,
      "d": 72.81549999999697,
      "v": 55
    },
    {
      "midi": 58,
      "hit": false,
      "t": 234902.80299999873,
      "d": 145.63099999999395,
      "v": 38
    },
    {
      "midi": 61,
      "hit": false,
      "t": 234902.80299999873,
      "d": 145.63099999999395,
      "v": 47
    },
    {
      "midi": 77,
      "hit": false,
      "t": 234975.61849999658,
      "d": 72.81549999999697,
      "v": 59
    },
    {
      "midi": 65,
      "hit": false,
      "t": 235048.43399999657,
      "d": 72.81549999999697,
      "v": 41
    },
    {
      "midi": 72,
      "hit": false,
      "t": 235048.43399999657,
      "d": 72.81549999999697,
      "v": 59
    },
    {
      "midi": 56,
      "hit": false,
      "t": 235048.43399999873,
      "d": 145.63099999999395,
      "v": 54
    },
    {
      "midi": 60,
      "hit": false,
      "t": 235048.43399999873,
      "d": 145.63099999999395,
      "v": 39
    },
    {
      "midi": 77,
      "hit": false,
      "t": 235121.24949999657,
      "d": 72.81549999999697,
      "v": 47
    },
    {
      "midi": 65,
      "hit": false,
      "t": 235194.06499999657,
      "d": 72.81549999999697,
      "v": 34
    },
    {
      "midi": 73,
      "hit": false,
      "t": 235194.06499999657,
      "d": 72.81549999999697,
      "v": 58
    },
    {
      "midi": 55,
      "hit": false,
      "t": 235194.06499999872,
      "d": 145.63099999999395,
      "v": 47
    },
    {
      "midi": 58,
      "hit": false,
      "t": 235194.06499999872,
      "d": 145.63099999999395,
      "v": 47
    },
    {
      "midi": 77,
      "hit": false,
      "t": 235266.88049999657,
      "d": 72.81549999999697,
      "v": 52
    },
    {
      "midi": 48,
      "hit": false,
      "t": 235339.69599999872,
      "d": 291.2619999999879,
      "v": 56
    },
    {
      "midi": 53,
      "hit": false,
      "t": 235339.69599999872,
      "d": 291.2619999999879,
      "v": 60
    },
    {
      "midi": 56,
      "hit": false,
      "t": 235339.69599999872,
      "d": 291.2619999999879,
      "v": 67
    },
    {
      "midi": 60,
      "hit": false,
      "t": 235412.51149999656,
      "d": 72.81549999999697,
      "v": 44
    },
    {
      "midi": 65,
      "hit": false,
      "t": 235485.32699999656,
      "d": 72.81549999999697,
      "v": 50
    },
    {
      "midi": 68,
      "hit": false,
      "t": 235558.14249999655,
      "d": 72.81549999999697,
      "v": 58
    },
    {
      "midi": 72,
      "hit": false,
      "t": 235630.95799999655,
      "d": 72.81549999999697,
      "v": 62
    },
    {
      "midi": 60,
      "hit": false,
      "t": 235703.77349999655,
      "d": 72.81549999999697,
      "v": 50
    },
    {
      "midi": 65,
      "hit": false,
      "t": 235776.58899999654,
      "d": 72.81549999999697,
      "v": 50
    },
    {
      "midi": 68,
      "hit": false,
      "t": 235849.40449999654,
      "d": 72.81549999999697,
      "v": 38
    },
    {
      "midi": 53,
      "hit": false,
      "t": 235849.4044999987,
      "d": 72.81549999999697,
      "v": 56
    },
    {
      "midi": 56,
      "hit": false,
      "t": 235849.4044999987,
      "d": 72.81549999999697,
      "v": 54
    },
    {
      "midi": 72,
      "hit": false,
      "t": 235922.21999999654,
      "d": 72.81549999999697,
      "v": 62
    },
    {
      "midi": 48,
      "hit": false,
      "t": 235922.2199999987,
      "d": 291.2619999999879,
      "v": 62
    },
    {
      "midi": 55,
      "hit": false,
      "t": 235922.2199999987,
      "d": 291.2619999999879,
      "v": 62
    },
    {
      "midi": 58,
      "hit": false,
      "t": 235922.2199999987,
      "d": 291.2619999999879,
      "v": 58
    },
    {
      "midi": 60,
      "hit": false,
      "t": 235995.03549999653,
      "d": 72.81549999999697,
      "v": 47
    },
    {
      "midi": 67,
      "hit": false,
      "t": 236067.85099999653,
      "d": 72.81549999999697,
      "v": 56
    },
    {
      "midi": 70,
      "hit": false,
      "t": 236140.66649999653,
      "d": 72.81549999999697,
      "v": 55
    },
    {
      "midi": 72,
      "hit": false,
      "t": 236213.48199999653,
      "d": 72.81549999999697,
      "v": 59
    },
    {
      "midi": 60,
      "hit": false,
      "t": 236286.29749999652,
      "d": 72.81549999999697,
      "v": 52
    },
    {
      "midi": 64,
      "hit": false,
      "t": 236359.11299999652,
      "d": 72.81549999999697,
      "v": 55
    },
    {
      "midi": 67,
      "hit": false,
      "t": 236431.92849999652,
      "d": 72.81549999999697,
      "v": 50
    },
    {
      "midi": 52,
      "hit": false,
      "t": 236431.92849999867,
      "d": 72.81549999999697,
      "v": 59
    },
    {
      "midi": 55,
      "hit": false,
      "t": 236431.92849999867,
      "d": 72.81549999999697,
      "v": 50
    },
    {
      "midi": 60,
      "hit": false,
      "t": 236504.7439999965,
      "d": 291.2619999999879,
      "v": 39
    },
    {
      "midi": 65,
      "hit": false,
      "t": 236504.7439999965,
      "d": 291.2619999999879,
      "v": 44
    },
    {
      "midi": 68,
      "hit": false,
      "t": 236504.7439999965,
      "d": 291.2619999999879,
      "v": 50
    },
    {
      "midi": 72,
      "hit": false,
      "t": 236504.7439999965,
      "d": 291.2619999999879,
      "v": 52
    },
    {
      "midi": 53,
      "hit": false,
      "t": 236504.74399999867,
      "d": 72.81549999999697,
      "v": 24
    },
    {
      "midi": 60,
      "hit": false,
      "t": 236577.55949999866,
      "d": 72.81549999999697,
      "v": 32
    },
    {
      "midi": 56,
      "hit": false,
      "t": 236650.37499999866,
      "d": 72.81549999999697,
      "v": 48
    },
    {
      "midi": 53,
      "hit": false,
      "t": 236723.19049999866,
      "d": 72.81549999999697,
      "v": 45
    },
    {
      "midi": 48,
      "hit": false,
      "t": 236796.00599999866,
      "d": 72.81549999999697,
      "v": 52
    },
    {
      "midi": 56,
      "hit": false,
      "t": 236868.82149999865,
      "d": 72.81549999999697,
      "v": 44
    },
    {
      "midi": 53,
      "hit": false,
      "t": 236941.63699999865,
      "d": 72.81549999999697,
      "v": 54
    },
    {
      "midi": 77,
      "hit": false,
      "t": 237014.4524999965,
      "d": 72.81549999999697,
      "v": 39
    },
    {
      "midi": 80,
      "hit": false,
      "t": 237014.4524999965,
      "d": 72.81549999999697,
      "v": 55
    },
    {
      "midi": 48,
      "hit": false,
      "t": 237014.45249999865,
      "d": 72.81549999999697,
      "v": 39
    },
    {
      "midi": 77,
      "hit": false,
      "t": 237087.2679999965,
      "d": 291.2619999999879,
      "v": 70
    },
    {
      "midi": 80,
      "hit": false,
      "t": 237087.2679999965,
      "d": 291.2619999999879,
      "v": 68
    },
    {
      "midi": 44,
      "hit": false,
      "t": 237087.26799999864,
      "d": 72.81549999999697,
      "v": 55
    },
    {
      "midi": 53,
      "hit": false,
      "t": 237160.08349999864,
      "d": 72.81549999999697,
      "v": 54
    },
    {
      "midi": 48,
      "hit": false,
      "t": 237232.89899999864,
      "d": 72.81549999999697,
      "v": 44
    },
    {
      "midi": 44,
      "hit": false,
      "t": 237305.71449999863,
      "d": 72.81549999999697,
      "v": 50
    },
    {
      "midi": 41,
      "hit": false,
      "t": 237378.52999999863,
      "d": 72.81549999999697,
      "v": 60
    },
    {
      "midi": 48,
      "hit": false,
      "t": 237451.34549999863,
      "d": 72.81549999999697,
      "v": 44
    },
    {
      "midi": 44,
      "hit": false,
      "t": 237524.16099999862,
      "d": 72.81549999999697,
      "v": 55
    },
    {
      "midi": 77,
      "hit": false,
      "t": 237596.97649999647,
      "d": 72.81549999999697,
      "v": 39
    },
    {
      "midi": 80,
      "hit": false,
      "t": 237596.97649999647,
      "d": 72.81549999999697,
      "v": 58
    },
    {
      "midi": 41,
      "hit": false,
      "t": 237596.97649999862,
      "d": 72.81549999999697,
      "v": 43
    },
    {
      "midi": 77,
      "hit": false,
      "t": 237669.79199999647,
      "d": 582.5240000000049,
      "v": 75
    },
    {
      "midi": 80,
      "hit": false,
      "t": 237669.79199999647,
      "d": 582.5240000000049,
      "v": 74
    },
    {
      "midi": 36,
      "hit": false,
      "t": 237669.79199999862,
      "d": 72.81549999999697,
      "v": 47
    },
    {
      "midi": 41,
      "hit": false,
      "t": 237742.60749999862,
      "d": 72.81549999999697,
      "v": 63
    },
    {
      "midi": 44,
      "hit": false,
      "t": 237815.4229999986,
      "d": 72.81549999999697,
      "v": 55
    },
    {
      "midi": 48,
      "hit": false,
      "t": 237888.2384999986,
      "d": 72.81549999999697,
      "v": 44
    },
    {
      "midi": 47,
      "hit": false,
      "t": 237961.0539999986,
      "d": 72.81549999999697,
      "v": 50
    },
    {
      "midi": 48,
      "hit": false,
      "t": 238033.8694999986,
      "d": 72.81549999999697,
      "v": 41
    },
    {
      "midi": 47,
      "hit": false,
      "t": 238106.6849999986,
      "d": 72.81549999999697,
      "v": 41
    },
    {
      "midi": 48,
      "hit": false,
      "t": 238179.5004999986,
      "d": 72.81549999999697,
      "v": 41
    },
    {
      "midi": 76,
      "hit": false,
      "t": 238252.31599999647,
      "d": 145.63099999999395,
      "v": 36
    },
    {
      "midi": 79,
      "hit": false,
      "t": 238252.31599999647,
      "d": 145.63099999999395,
      "v": 52
    },
    {
      "midi": 47,
      "hit": false,
      "t": 238252.3159999986,
      "d": 72.81549999999697,
      "v": 56
    },
    {
      "midi": 48,
      "hit": false,
      "t": 238325.1314999986,
      "d": 72.81549999999697,
      "v": 44
    },
    {
      "midi": 43,
      "hit": false,
      "t": 238397.9469999986,
      "d": 72.81549999999697,
      "v": 59
    },
    {
      "midi": 48,
      "hit": false,
      "t": 238470.7624999986,
      "d": 72.81549999999697,
      "v": 32
    },
    {
      "midi": 40,
      "hit": false,
      "t": 238543.57799999858,
      "d": 72.81549999999697,
      "v": 41
    },
    {
      "midi": 48,
      "hit": false,
      "t": 238616.39349999858,
      "d": 72.81549999999697,
      "v": 32
    },
    {
      "midi": 43,
      "hit": false,
      "t": 238689.20899999858,
      "d": 72.81549999999697,
      "v": 52
    },
    {
      "midi": 48,
      "hit": false,
      "t": 238762.02449999857,
      "d": 72.81549999999697,
      "v": 47
    },
    {
      "midi": 36,
      "hit": false,
      "t": 238834.83999999857,
      "d": 72.81549999999697,
      "v": 52
    },
    {
      "midi": 40,
      "hit": false,
      "t": 238907.65549999857,
      "d": 72.81549999999697,
      "v": 56
    },
    {
      "midi": 43,
      "hit": false,
      "t": 238980.47099999856,
      "d": 72.81549999999697,
      "v": 52
    },
    {
      "midi": 48,
      "hit": false,
      "t": 239053.28649999856,
      "d": 72.81549999999697,
      "v": 44
    },
    {
      "midi": 40,
      "hit": false,
      "t": 239126.10199999856,
      "d": 72.81549999999697,
      "v": 56
    },
    {
      "midi": 43,
      "hit": false,
      "t": 239198.91749999856,
      "d": 72.81549999999697,
      "v": 47
    },
    {
      "midi": 48,
      "hit": false,
      "t": 239271.73299999855,
      "d": 72.81549999999697,
      "v": 56
    },
    {
      "midi": 79,
      "hit": false,
      "t": 239344.54849999645,
      "d": 72.81549999999697,
      "v": 44
    },
    {
      "midi": 82,
      "hit": false,
      "t": 239344.54849999645,
      "d": 72.81549999999697,
      "v": 55
    },
    {
      "midi": 52,
      "hit": false,
      "t": 239344.54849999855,
      "d": 72.81549999999697,
      "v": 52
    },
    {
      "midi": 79,
      "hit": false,
      "t": 239417.36399999645,
      "d": 291.2619999999879,
      "v": 53
    },
    {
      "midi": 82,
      "hit": false,
      "t": 239417.36399999645,
      "d": 291.2619999999879,
      "v": 59
    },
    {
      "midi": 43,
      "hit": false,
      "t": 239417.36399999855,
      "d": 72.81549999999697,
      "v": 47
    },
    {
      "midi": 48,
      "hit": false,
      "t": 239490.17949999854,
      "d": 72.81549999999697,
      "v": 35
    },
    {
      "midi": 52,
      "hit": false,
      "t": 239562.99499999854,
      "d": 72.81549999999697,
      "v": 40
    },
    {
      "midi": 55,
      "hit": false,
      "t": 239635.81049999854,
      "d": 72.81549999999697,
      "v": 40
    },
    {
      "midi": 48,
      "hit": false,
      "t": 239708.62599999853,
      "d": 72.81549999999697,
      "v": 41
    },
    {
      "midi": 52,
      "hit": false,
      "t": 239781.44149999853,
      "d": 72.81549999999697,
      "v": 41
    },
    {
      "midi": 55,
      "hit": false,
      "t": 239854.25699999853,
      "d": 72.81549999999697,
      "v": 37
    },
    {
      "midi": 79,
      "hit": false,
      "t": 239927.07249999643,
      "d": 72.81549999999697,
      "v": 44
    },
    {
      "midi": 82,
      "hit": false,
      "t": 239927.07249999643,
      "d": 72.81549999999697,
      "v": 46
    },
    {
      "midi": 60,
      "hit": false,
      "t": 239927.07249999853,
      "d": 72.81549999999697,
      "v": 35
    },
    {
      "midi": 79,
      "hit": false,
      "t": 239999.88799999643,
      "d": 582.5240000000049,
      "v": 60
    },
    {
      "midi": 82,
      "hit": false,
      "t": 239999.88799999643,
      "d": 582.5240000000049,
      "v": 64
    },
    {
      "midi": 53,
      "hit": false,
      "t": 239999.88799999852,
      "d": 72.81549999999697,
      "v": 44
    },
    {
      "midi": 56,
      "hit": false,
      "t": 240072.70349999852,
      "d": 72.81549999999697,
      "v": 40
    },
    {
      "midi": 60,
      "hit": false,
      "t": 240145.51899999852,
      "d": 72.81549999999697,
      "v": 31
    },
    {
      "midi": 65,
      "hit": false,
      "t": 240218.3344999985,
      "d": 72.81549999999697,
      "v": 37
    },
    {
      "midi": 64,
      "hit": false,
      "t": 240291.1499999985,
      "d": 72.81549999999697,
      "v": 37
    },
    {
      "midi": 65,
      "hit": false,
      "t": 240363.9654999985,
      "d": 72.81549999999697,
      "v": 27
    },
    {
      "midi": 64,
      "hit": false,
      "t": 240436.7809999985,
      "d": 72.81549999999697,
      "v": 41
    },
    {
      "midi": 65,
      "hit": false,
      "t": 240509.5964999985,
      "d": 72.81549999999697,
      "v": 27
    },
    {
      "midi": 77,
      "hit": false,
      "t": 240582.41199999643,
      "d": 145.63099999999395,
      "v": 25
    },
    {
      "midi": 80,
      "hit": false,
      "t": 240582.41199999643,
      "d": 145.63099999999395,
      "v": 44
    },
    {
      "midi": 64,
      "hit": false,
      "t": 240582.4119999985,
      "d": 72.81549999999697,
      "v": 39
    },
    {
      "midi": 65,
      "hit": false,
      "t": 240655.2274999985,
      "d": 72.81549999999697,
      "v": 40
    },
    {
      "midi": 60,
      "hit": false,
      "t": 240728.0429999985,
      "d": 72.81549999999697,
      "v": 37
    },
    {
      "midi": 65,
      "hit": false,
      "t": 240800.8584999985,
      "d": 72.81549999999697,
      "v": 35
    },
    {
      "midi": 56,
      "hit": false,
      "t": 240873.6739999985,
      "d": 72.81549999999697,
      "v": 43
    },
    {
      "midi": 65,
      "hit": false,
      "t": 240946.48949999848,
      "d": 72.81549999999697,
      "v": 37
    },
    {
      "midi": 60,
      "hit": false,
      "t": 241019.30499999848,
      "d": 72.81549999999697,
      "v": 40
    },
    {
      "midi": 65,
      "hit": false,
      "t": 241092.12049999848,
      "d": 72.81549999999697,
      "v": 37
    },
    {
      "midi": 53,
      "hit": false,
      "t": 241164.93599999847,
      "d": 72.81549999999697,
      "v": 48
    },
    {
      "midi": 57,
      "hit": false,
      "t": 241237.75149999847,
      "d": 72.81549999999697,
      "v": 31
    },
    {
      "midi": 60,
      "hit": false,
      "t": 241310.56699999847,
      "d": 72.81549999999697,
      "v": 37
    },
    {
      "midi": 65,
      "hit": false,
      "t": 241383.38249999846,
      "d": 72.81549999999697,
      "v": 37
    },
    {
      "midi": 57,
      "hit": false,
      "t": 241456.19799999846,
      "d": 72.81549999999697,
      "v": 41
    },
    {
      "midi": 60,
      "hit": false,
      "t": 241529.01349999846,
      "d": 72.81549999999697,
      "v": 41
    },
    {
      "midi": 65,
      "hit": false,
      "t": 241601.82899999846,
      "d": 72.81549999999697,
      "v": 40
    },
    {
      "midi": 84,
      "hit": false,
      "t": 241674.64449999642,
      "d": 72.81549999999697,
      "v": 49
    },
    {
      "midi": 87,
      "hit": false,
      "t": 241674.64449999642,
      "d": 72.81549999999697,
      "v": 59
    },
    {
      "midi": 69,
      "hit": false,
      "t": 241674.64449999845,
      "d": 72.81549999999697,
      "v": 37
    },
    {
      "midi": 84,
      "hit": false,
      "t": 241747.4599999964,
      "d": 291.2619999999879,
      "v": 53
    },
    {
      "midi": 87,
      "hit": false,
      "t": 241747.4599999964,
      "d": 291.2619999999879,
      "v": 59
    },
    {
      "midi": 60,
      "hit": false,
      "t": 241747.45999999845,
      "d": 72.81549999999697,
      "v": 41
    },
    {
      "midi": 65,
      "hit": false,
      "t": 241820.27549999845,
      "d": 72.81549999999697,
      "v": 40
    },
    {
      "midi": 69,
      "hit": false,
      "t": 241893.09099999844,
      "d": 72.81549999999697,
      "v": 40
    },
    {
      "midi": 72,
      "hit": false,
      "t": 241965.90649999844,
      "d": 72.81549999999697,
      "v": 47
    },
    {
      "midi": 65,
      "hit": false,
      "t": 242038.72199999844,
      "d": 72.81549999999697,
      "v": 47
    },
    {
      "midi": 69,
      "hit": false,
      "t": 242111.53749999843,
      "d": 72.81549999999697,
      "v": 44
    },
    {
      "midi": 72,
      "hit": false,
      "t": 242184.35299999843,
      "d": 72.81549999999697,
      "v": 47
    },
    {
      "midi": 84,
      "hit": false,
      "t": 242257.1684999964,
      "d": 72.81549999999697,
      "v": 47
    },
    {
      "midi": 87,
      "hit": false,
      "t": 242257.1684999964,
      "d": 72.81549999999697,
      "v": 54
    },
    {
      "midi": 77,
      "hit": false,
      "t": 242257.16849999843,
      "d": 72.81549999999697,
      "v": 49
    },
    {
      "midi": 84,
      "hit": false,
      "t": 242329.9839999964,
      "d": 669.9026000000013,
      "v": 56
    },
    {
      "midi": 87,
      "hit": false,
      "t": 242329.9839999964,
      "d": 669.9026000000013,
      "v": 59
    },
    {
      "midi": 69,
      "hit": false,
      "t": 242329.98399999843,
      "d": 72.81549999999697,
      "v": 47
    },
    {
      "midi": 77,
      "hit": false,
      "t": 242402.79949999842,
      "d": 72.81549999999697,
      "v": 40
    },
    {
      "midi": 76,
      "hit": false,
      "t": 242475.61499999842,
      "d": 72.81549999999697,
      "v": 35
    },
    {
      "midi": 77,
      "hit": false,
      "t": 242548.43049999842,
      "d": 72.81549999999697,
      "v": 44
    },
    {
      "midi": 69,
      "hit": false,
      "t": 242621.2459999984,
      "d": 72.81549999999697,
      "v": 41
    },
    {
      "midi": 77,
      "hit": false,
      "t": 242694.0614999984,
      "d": 72.81549999999697,
      "v": 41
    },
    {
      "midi": 69,
      "hit": false,
      "t": 242766.8769999984,
      "d": 72.81549999999697,
      "v": 44
    },
    {
      "midi": 77,
      "hit": false,
      "t": 242839.6924999984,
      "d": 72.81549999999697,
      "v": 41
    },
    {
      "midi": 69,
      "hit": false,
      "t": 242912.5079999984,
      "d": 72.81549999999697,
      "v": 49
    },
    {
      "midi": 77,
      "hit": false,
      "t": 242985.3234999984,
      "d": 72.81549999999697,
      "v": 44
    },
    {
      "midi": 82,
      "hit": false,
      "t": 243058.1389999964,
      "d": 145.63099999999395,
      "v": 37
    },
    {
      "midi": 85,
      "hit": false,
      "t": 243058.1389999964,
      "d": 145.63099999999395,
      "v": 46
    },
    {
      "midi": 70,
      "hit": false,
      "t": 243058.1389999984,
      "d": 72.81549999999697,
      "v": 44
    },
    {
      "midi": 77,
      "hit": false,
      "t": 243130.9544999984,
      "d": 72.81549999999697,
      "v": 35
    },
    {
      "midi": 80,
      "hit": false,
      "t": 243203.76999999638,
      "d": 145.63099999999395,
      "v": 32
    },
    {
      "midi": 84,
      "hit": false,
      "t": 243203.76999999638,
      "d": 145.63099999999395,
      "v": 37
    },
    {
      "midi": 72,
      "hit": false,
      "t": 243203.7699999984,
      "d": 72.81549999999697,
      "v": 47
    },
    {
      "midi": 77,
      "hit": false,
      "t": 243276.5854999984,
      "d": 72.81549999999697,
      "v": 41
    },
    {
      "midi": 79,
      "hit": false,
      "t": 243349.40099999637,
      "d": 145.63099999999395,
      "v": 31
    },
    {
      "midi": 82,
      "hit": false,
      "t": 243349.40099999637,
      "d": 145.63099999999395,
      "v": 37
    },
    {
      "midi": 73,
      "hit": false,
      "t": 243349.40099999838,
      "d": 72.81549999999697,
      "v": 50
    },
    {
      "midi": 77,
      "hit": false,
      "t": 243422.21649999838,
      "d": 72.81549999999697,
      "v": 44
    },
    {
      "midi": 77,
      "hit": false,
      "t": 243495.03199999637,
      "d": 291.2619999999879,
      "v": 40
    },
    {
      "midi": 80,
      "hit": false,
      "t": 243495.03199999637,
      "d": 291.2619999999879,
      "v": 46
    },
    {
      "midi": 60,
      "hit": false,
      "t": 243495.03199999838,
      "d": 72.81549999999697,
      "v": 40
    },
    {
      "midi": 65,
      "hit": false,
      "t": 243567.84749999837,
      "d": 72.81549999999697,
      "v": 37
    },
    {
      "midi": 68,
      "hit": false,
      "t": 243640.66299999837,
      "d": 72.81549999999697,
      "v": 40
    },
    {
      "midi": 72,
      "hit": false,
      "t": 243713.47849999837,
      "d": 72.81549999999697,
      "v": 44
    },
    {
      "midi": 71,
      "hit": false,
      "t": 243786.29399999836,
      "d": 72.81549999999697,
      "v": 40
    },
    {
      "midi": 72,
      "hit": false,
      "t": 243859.10949999836,
      "d": 72.81549999999697,
      "v": 44
    },
    {
      "midi": 71,
      "hit": false,
      "t": 243931.92499999836,
      "d": 72.81549999999697,
      "v": 37
    },
    {
      "midi": 77,
      "hit": false,
      "t": 244004.74049999635,
      "d": 72.81549999999697,
      "v": 35
    },
    {
      "midi": 80,
      "hit": false,
      "t": 244004.74049999635,
      "d": 72.81549999999697,
      "v": 44
    },
    {
      "midi": 89,
      "hit": false,
      "t": 244004.74049999635,
      "d": 72.81549999999697,
      "v": 44
    },
    {
      "midi": 72,
      "hit": false,
      "t": 244004.74049999836,
      "d": 72.81549999999697,
      "v": 44
    },
    {
      "midi": 79,
      "hit": false,
      "t": 244077.55599999634,
      "d": 291.2619999999879,
      "v": 37
    },
    {
      "midi": 82,
      "hit": false,
      "t": 244077.55599999634,
      "d": 291.2619999999879,
      "v": 46
    },
    {
      "midi": 91,
      "hit": false,
      "t": 244077.55599999634,
      "d": 291.2619999999879,
      "v": 49
    },
    {
      "midi": 60,
      "hit": false,
      "t": 244077.55599999835,
      "d": 72.81549999999697,
      "v": 44
    },
    {
      "midi": 64,
      "hit": false,
      "t": 244150.37149999835,
      "d": 72.81549999999697,
      "v": 39
    },
    {
      "midi": 67,
      "hit": false,
      "t": 244223.18699999835,
      "d": 72.81549999999697,
      "v": 41
    },
    {
      "midi": 72,
      "hit": false,
      "t": 244296.00249999834,
      "d": 72.81549999999697,
      "v": 41
    },
    {
      "midi": 60,
      "hit": false,
      "t": 244368.81799999834,
      "d": 72.81549999999697,
      "v": 41
    },
    {
      "midi": 64,
      "hit": false,
      "t": 244441.63349999834,
      "d": 72.81549999999697,
      "v": 32
    },
    {
      "midi": 70,
      "hit": false,
      "t": 244514.44899999833,
      "d": 72.81549999999697,
      "v": 37
    },
    {
      "midi": 76,
      "hit": false,
      "t": 244587.26449999632,
      "d": 72.81549999999697,
      "v": 31
    },
    {
      "midi": 79,
      "hit": false,
      "t": 244587.26449999632,
      "d": 72.81549999999697,
      "v": 41
    },
    {
      "midi": 88,
      "hit": false,
      "t": 244587.26449999632,
      "d": 72.81549999999697,
      "v": 44
    },
    {
      "midi": 72,
      "hit": false,
      "t": 244587.26449999833,
      "d": 72.81549999999697,
      "v": 40
    },
    {
      "midi": 53,
      "hit": false,
      "t": 244660.07999999632,
      "d": 54.611624999990454,
      "v": 43
    },
    {
      "midi": 77,
      "hit": false,
      "t": 244660.07999999632,
      "d": 54.611624999990454,
      "v": 20
    },
    {
      "midi": 80,
      "hit": false,
      "t": 244660.07999999632,
      "d": 54.611624999990454,
      "v": 35
    },
    {
      "midi": 89,
      "hit": false,
      "t": 244660.07999999632,
      "d": 54.611624999990454,
      "v": 44
    },
    {
      "midi": 53,
      "hit": false,
      "t": 244660.07999999833,
      "d": 54.611624999990454,
      "v": 32
    },
    {
      "midi": 72,
      "hit": false,
      "t": 244732.89549999632,
      "d": 54.611624999990454,
      "v": 41
    },
    {
      "midi": 65,
      "hit": false,
      "t": 244732.89549999833,
      "d": 54.611624999990454,
      "v": 27
    },
    {
      "midi": 68,
      "hit": false,
      "t": 244732.89549999833,
      "d": 54.611624999990454,
      "v": 35
    },
    {
      "midi": 77,
      "hit": false,
      "t": 244805.7109999963,
      "d": 54.611624999990454,
      "v": 32
    },
    {
      "midi": 60,
      "hit": false,
      "t": 244805.71099999832,
      "d": 54.611624999990454,
      "v": 32
    },
    {
      "midi": 72,
      "hit": false,
      "t": 244805.71099999832,
      "d": 54.611624999990454,
      "v": 31
    },
    {
      "midi": 80,
      "hit": false,
      "t": 244878.5264999963,
      "d": 54.611624999990454,
      "v": 37
    },
    {
      "midi": 65,
      "hit": false,
      "t": 244878.52649999832,
      "d": 54.611624999990454,
      "v": 31
    },
    {
      "midi": 68,
      "hit": false,
      "t": 244878.52649999832,
      "d": 54.611624999990454,
      "v": 25
    },
    {
      "midi": 84,
      "hit": false,
      "t": 244951.3419999963,
      "d": 54.611624999990454,
      "v": 47
    },
    {
      "midi": 60,
      "hit": false,
      "t": 244951.34199999832,
      "d": 54.611624999990454,
      "v": 44
    },
    {
      "midi": 72,
      "hit": false,
      "t": 244951.34199999832,
      "d": 54.611624999990454,
      "v": 40
    },
    {
      "midi": 85,
      "hit": false,
      "t": 245024.1574999963,
      "d": 54.611624999990454,
      "v": 50
    },
    {
      "midi": 65,
      "hit": false,
      "t": 245024.1574999983,
      "d": 54.611624999990454,
      "v": 31
    },
    {
      "midi": 68,
      "hit": false,
      "t": 245024.1574999983,
      "d": 54.611624999990454,
      "v": 28
    },
    {
      "midi": 84,
      "hit": false,
      "t": 245096.9729999963,
      "d": 54.611624999990454,
      "v": 40
    },
    {
      "midi": 60,
      "hit": false,
      "t": 245096.9729999983,
      "d": 54.611624999990454,
      "v": 40
    },
    {
      "midi": 72,
      "hit": false,
      "t": 245096.9729999983,
      "d": 54.611624999990454,
      "v": 35
    },
    {
      "midi": 82,
      "hit": false,
      "t": 245169.7884999963,
      "d": 54.611624999990454,
      "v": 40
    },
    {
      "midi": 65,
      "hit": false,
      "t": 245169.7884999983,
      "d": 54.611624999990454,
      "v": 31
    },
    {
      "midi": 68,
      "hit": false,
      "t": 245169.7884999983,
      "d": 54.611624999990454,
      "v": 28
    },
    {
      "midi": 80,
      "hit": false,
      "t": 245242.6039999963,
      "d": 54.611624999990454,
      "v": 40
    },
    {
      "midi": 60,
      "hit": false,
      "t": 245242.6039999983,
      "d": 54.611624999990454,
      "v": 35
    },
    {
      "midi": 72,
      "hit": false,
      "t": 245242.6039999983,
      "d": 54.611624999990454,
      "v": 35
    },
    {
      "midi": 82,
      "hit": false,
      "t": 245315.4194999963,
      "d": 54.611624999990454,
      "v": 37
    },
    {
      "midi": 65,
      "hit": false,
      "t": 245315.4194999983,
      "d": 54.611624999990454,
      "v": 31
    },
    {
      "midi": 68,
      "hit": false,
      "t": 245315.4194999983,
      "d": 54.611624999990454,
      "v": 28
    },
    {
      "midi": 80,
      "hit": false,
      "t": 245388.2349999963,
      "d": 54.611624999990454,
      "v": 40
    },
    {
      "midi": 60,
      "hit": false,
      "t": 245388.2349999983,
      "d": 54.611624999990454,
      "v": 35
    },
    {
      "midi": 72,
      "hit": false,
      "t": 245388.2349999983,
      "d": 54.611624999990454,
      "v": 28
    },
    {
      "midi": 79,
      "hit": false,
      "t": 245461.0504999963,
      "d": 54.611624999990454,
      "v": 31
    },
    {
      "midi": 65,
      "hit": false,
      "t": 245461.0504999983,
      "d": 54.611624999990454,
      "v": 31
    },
    {
      "midi": 68,
      "hit": false,
      "t": 245461.0504999983,
      "d": 54.611624999990454,
      "v": 30
    },
    {
      "midi": 77,
      "hit": false,
      "t": 245533.86599999628,
      "d": 54.611624999990454,
      "v": 27
    },
    {
      "midi": 60,
      "hit": false,
      "t": 245533.8659999983,
      "d": 54.611624999990454,
      "v": 47
    },
    {
      "midi": 72,
      "hit": false,
      "t": 245533.8659999983,
      "d": 54.611624999990454,
      "v": 44
    },
    {
      "midi": 79,
      "hit": false,
      "t": 245606.68149999628,
      "d": 54.611624999990454,
      "v": 25
    },
    {
      "midi": 65,
      "hit": false,
      "t": 245606.6814999983,
      "d": 54.611624999990454,
      "v": 28
    },
    {
      "midi": 68,
      "hit": false,
      "t": 245606.6814999983,
      "d": 54.611624999990454,
      "v": 12
    },
    {
      "midi": 80,
      "hit": false,
      "t": 245679.49699999628,
      "d": 54.611624999990454,
      "v": 37
    },
    {
      "midi": 60,
      "hit": false,
      "t": 245679.4969999983,
      "d": 54.611624999990454,
      "v": 32
    },
    {
      "midi": 72,
      "hit": false,
      "t": 245679.4969999983,
      "d": 54.611624999990454,
      "v": 28
    },
    {
      "midi": 77,
      "hit": false,
      "t": 245752.31249999627,
      "d": 54.611624999990454,
      "v": 31
    },
    {
      "midi": 65,
      "hit": false,
      "t": 245752.31249999828,
      "d": 54.611624999990454,
      "v": 23
    },
    {
      "midi": 68,
      "hit": false,
      "t": 245752.31249999828,
      "d": 54.611624999990454,
      "v": 28
    },
    {
      "midi": 53,
      "hit": false,
      "t": 245825.12799999828,
      "d": 54.611624999990454,
      "v": 34
    },
    {
      "midi": 72,
      "hit": false,
      "t": 245897.94349999627,
      "d": 54.611624999990454,
      "v": 27
    },
    {
      "midi": 65,
      "hit": false,
      "t": 245897.94349999828,
      "d": 54.611624999990454,
      "v": 40
    },
    {
      "midi": 68,
      "hit": false,
      "t": 245897.94349999828,
      "d": 54.611624999990454,
      "v": 28
    },
    {
      "midi": 77,
      "hit": false,
      "t": 245970.75899999627,
      "d": 54.611624999990454,
      "v": 35
    },
    {
      "midi": 60,
      "hit": false,
      "t": 245970.75899999827,
      "d": 54.611624999990454,
      "v": 35
    },
    {
      "midi": 72,
      "hit": false,
      "t": 245970.75899999827,
      "d": 54.611624999990454,
      "v": 37
    },
    {
      "midi": 80,
      "hit": false,
      "t": 246043.57449999626,
      "d": 54.611624999990454,
      "v": 35
    },
    {
      "midi": 65,
      "hit": false,
      "t": 246043.57449999827,
      "d": 54.611624999990454,
      "v": 35
    },
    {
      "midi": 68,
      "hit": false,
      "t": 246043.57449999827,
      "d": 54.611624999990454,
      "v": 35
    },
    {
      "midi": 84,
      "hit": false,
      "t": 246116.38999999626,
      "d": 54.611624999990454,
      "v": 44
    },
    {
      "midi": 60,
      "hit": false,
      "t": 246116.38999999827,
      "d": 54.611624999990454,
      "v": 40
    },
    {
      "midi": 72,
      "hit": false,
      "t": 246116.38999999827,
      "d": 54.611624999990454,
      "v": 35
    },
    {
      "midi": 85,
      "hit": false,
      "t": 246189.20549999626,
      "d": 54.611624999990454,
      "v": 44
    },
    {
      "midi": 65,
      "hit": false,
      "t": 246189.20549999826,
      "d": 54.611624999990454,
      "v": 28
    },
    {
      "midi": 68,
      "hit": false,
      "t": 246189.20549999826,
      "d": 54.611624999990454,
      "v": 21
    },
    {
      "midi": 84,
      "hit": false,
      "t": 246262.02099999625,
      "d": 54.611624999990454,
      "v": 41
    },
    {
      "midi": 60,
      "hit": false,
      "t": 246262.02099999826,
      "d": 54.611624999990454,
      "v": 40
    },
    {
      "midi": 72,
      "hit": false,
      "t": 246262.02099999826,
      "d": 54.611624999990454,
      "v": 32
    },
    {
      "midi": 82,
      "hit": false,
      "t": 246334.83649999625,
      "d": 54.611624999990454,
      "v": 37
    },
    {
      "midi": 65,
      "hit": false,
      "t": 246334.83649999826,
      "d": 54.611624999990454,
      "v": 31
    },
    {
      "midi": 68,
      "hit": false,
      "t": 246334.83649999826,
      "d": 54.611624999990454,
      "v": 8
    },
    {
      "midi": 80,
      "hit": false,
      "t": 246407.65199999625,
      "d": 54.611624999990454,
      "v": 40
    },
    {
      "midi": 60,
      "hit": false,
      "t": 246407.65199999826,
      "d": 54.611624999990454,
      "v": 44
    },
    {
      "midi": 72,
      "hit": false,
      "t": 246407.65199999826,
      "d": 54.611624999990454,
      "v": 41
    },
    {
      "midi": 82,
      "hit": false,
      "t": 246480.46749999624,
      "d": 54.611624999990454,
      "v": 44
    },
    {
      "midi": 65,
      "hit": false,
      "t": 246480.46749999825,
      "d": 54.611624999990454,
      "v": 32
    },
    {
      "midi": 68,
      "hit": false,
      "t": 246480.46749999825,
      "d": 54.611624999990454,
      "v": 21
    },
    {
      "midi": 80,
      "hit": false,
      "t": 246553.28299999624,
      "d": 54.611624999990454,
      "v": 40
    },
    {
      "midi": 60,
      "hit": false,
      "t": 246553.28299999825,
      "d": 54.611624999990454,
      "v": 31
    },
    {
      "midi": 72,
      "hit": false,
      "t": 246553.28299999825,
      "d": 54.611624999990454,
      "v": 32
    },
    {
      "midi": 79,
      "hit": false,
      "t": 246626.09849999624,
      "d": 54.611624999990454,
      "v": 37
    },
    {
      "midi": 65,
      "hit": false,
      "t": 246626.09849999825,
      "d": 54.611624999990454,
      "v": 28
    },
    {
      "midi": 68,
      "hit": false,
      "t": 246626.09849999825,
      "d": 54.611624999990454,
      "v": 13
    },
    {
      "midi": 77,
      "hit": false,
      "t": 246698.91399999624,
      "d": 54.611624999990454,
      "v": 31
    },
    {
      "midi": 60,
      "hit": false,
      "t": 246698.91399999824,
      "d": 54.611624999990454,
      "v": 37
    },
    {
      "midi": 72,
      "hit": false,
      "t": 246698.91399999824,
      "d": 54.611624999990454,
      "v": 28
    },
    {
      "midi": 79,
      "hit": false,
      "t": 246771.72949999623,
      "d": 54.611624999990454,
      "v": 18
    },
    {
      "midi": 65,
      "hit": false,
      "t": 246771.72949999824,
      "d": 54.611624999990454,
      "v": 35
    },
    {
      "midi": 68,
      "hit": false,
      "t": 246771.72949999824,
      "d": 54.611624999990454,
      "v": 23
    },
    {
      "midi": 80,
      "hit": false,
      "t": 246844.54499999623,
      "d": 54.611624999990454,
      "v": 30
    },
    {
      "midi": 60,
      "hit": false,
      "t": 246844.54499999824,
      "d": 54.611624999990454,
      "v": 37
    },
    {
      "midi": 72,
      "hit": false,
      "t": 246844.54499999824,
      "d": 54.611624999990454,
      "v": 35
    },
    {
      "midi": 77,
      "hit": false,
      "t": 246917.36049999623,
      "d": 54.611624999990454,
      "v": 25
    },
    {
      "midi": 65,
      "hit": false,
      "t": 246917.36049999823,
      "d": 54.611624999990454,
      "v": 27
    },
    {
      "midi": 68,
      "hit": false,
      "t": 246917.36049999823,
      "d": 54.611624999990454,
      "v": 19
    },
    {
      "midi": 45,
      "hit": false,
      "t": 246990.17599999823,
      "d": 54.611624999990454,
      "v": 27
    },
    {
      "midi": 78,
      "hit": false,
      "t": 247062.99149999622,
      "d": 54.611624999990454,
      "v": 44
    },
    {
      "midi": 54,
      "hit": false,
      "t": 247062.99149999823,
      "d": 54.611624999990454,
      "v": 35
    },
    {
      "midi": 56,
      "hit": false,
      "t": 247062.99149999823,
      "d": 54.611624999990454,
      "v": 26
    },
    {
      "midi": 84,
      "hit": false,
      "t": 247135.80699999622,
      "d": 54.611624999990454,
      "v": 35
    },
    {
      "midi": 51,
      "hit": false,
      "t": 247135.80699999823,
      "d": 54.611624999990454,
      "v": 46
    },
    {
      "midi": 60,
      "hit": false,
      "t": 247135.80699999823,
      "d": 54.611624999990454,
      "v": 31
    },
    {
      "midi": 87,
      "hit": false,
      "t": 247208.6224999962,
      "d": 54.611624999990454,
      "v": 44
    },
    {
      "midi": 54,
      "hit": false,
      "t": 247208.62249999822,
      "d": 54.611624999990454,
      "v": 32
    },
    {
      "midi": 56,
      "hit": false,
      "t": 247208.62249999822,
      "d": 54.611624999990454,
      "v": 24
    },
    {
      "midi": 90,
      "hit": false,
      "t": 247281.4379999962,
      "d": 54.611624999990454,
      "v": 46
    },
    {
      "midi": 51,
      "hit": false,
      "t": 247281.43799999822,
      "d": 54.611624999990454,
      "v": 46
    },
    {
      "midi": 60,
      "hit": false,
      "t": 247281.43799999822,
      "d": 54.611624999990454,
      "v": 40
    },
    {
      "midi": 92,
      "hit": false,
      "t": 247354.2534999962,
      "d": 54.611624999990454,
      "v": 50
    },
    {
      "midi": 54,
      "hit": false,
      "t": 247354.25349999822,
      "d": 54.611624999990454,
      "v": 32
    },
    {
      "midi": 56,
      "hit": false,
      "t": 247354.25349999822,
      "d": 54.611624999990454,
      "v": 33
    },
    {
      "midi": 90,
      "hit": false,
      "t": 247427.0689999962,
      "d": 54.611624999990454,
      "v": 44
    },
    {
      "midi": 51,
      "hit": false,
      "t": 247427.0689999982,
      "d": 54.611624999990454,
      "v": 44
    },
    {
      "midi": 60,
      "hit": false,
      "t": 247427.0689999982,
      "d": 54.611624999990454,
      "v": 28
    },
    {
      "midi": 89,
      "hit": false,
      "t": 247499.8844999962,
      "d": 54.611624999990454,
      "v": 35
    },
    {
      "midi": 54,
      "hit": false,
      "t": 247499.8844999982,
      "d": 54.611624999990454,
      "v": 23
    },
    {
      "midi": 56,
      "hit": false,
      "t": 247499.8844999982,
      "d": 54.611624999990454,
      "v": 20
    },
    {
      "midi": 87,
      "hit": false,
      "t": 247572.6999999962,
      "d": 54.611624999990454,
      "v": 30
    },
    {
      "midi": 51,
      "hit": false,
      "t": 247572.6999999982,
      "d": 54.611624999990454,
      "v": 30
    },
    {
      "midi": 60,
      "hit": false,
      "t": 247572.6999999982,
      "d": 54.611624999990454,
      "v": 24
    },
    {
      "midi": 89,
      "hit": false,
      "t": 247645.5154999962,
      "d": 54.611624999990454,
      "v": 31
    },
    {
      "midi": 54,
      "hit": false,
      "t": 247645.5154999982,
      "d": 54.611624999990454,
      "v": 23
    },
    {
      "midi": 56,
      "hit": false,
      "t": 247645.5154999982,
      "d": 54.611624999990454,
      "v": 22
    },
    {
      "midi": 87,
      "hit": false,
      "t": 247718.3309999962,
      "d": 54.611624999990454,
      "v": 35
    },
    {
      "midi": 51,
      "hit": false,
      "t": 247718.3309999982,
      "d": 54.611624999990454,
      "v": 37
    },
    {
      "midi": 60,
      "hit": false,
      "t": 247718.3309999982,
      "d": 54.611624999990454,
      "v": 32
    },
    {
      "midi": 85,
      "hit": false,
      "t": 247791.1464999962,
      "d": 54.611624999990454,
      "v": 32
    },
    {
      "midi": 54,
      "hit": false,
      "t": 247791.1464999982,
      "d": 54.611624999990454,
      "v": 23
    },
    {
      "midi": 56,
      "hit": false,
      "t": 247791.1464999982,
      "d": 54.611624999990454,
      "v": 22
    },
    {
      "midi": 84,
      "hit": false,
      "t": 247863.9619999962,
      "d": 54.611624999990454,
      "v": 40
    },
    {
      "midi": 51,
      "hit": false,
      "t": 247863.9619999982,
      "d": 54.611624999990454,
      "v": 37
    },
    {
      "midi": 60,
      "hit": false,
      "t": 247863.9619999982,
      "d": 54.611624999990454,
      "v": 28
    },
    {
      "midi": 85,
      "hit": false,
      "t": 247936.77749999618,
      "d": 54.611624999990454,
      "v": 44
    },
    {
      "midi": 54,
      "hit": false,
      "t": 247936.7774999982,
      "d": 54.611624999990454,
      "v": 23
    },
    {
      "midi": 56,
      "hit": false,
      "t": 247936.7774999982,
      "d": 54.611624999990454,
      "v": 26
    },
    {
      "midi": 87,
      "hit": false,
      "t": 248009.59299999618,
      "d": 54.611624999990454,
      "v": 35
    },
    {
      "midi": 51,
      "hit": false,
      "t": 248009.5929999982,
      "d": 54.611624999990454,
      "v": 37
    },
    {
      "midi": 60,
      "hit": false,
      "t": 248009.5929999982,
      "d": 54.611624999990454,
      "v": 25
    },
    {
      "midi": 84,
      "hit": false,
      "t": 248082.40849999618,
      "d": 54.611624999990454,
      "v": 24
    },
    {
      "midi": 54,
      "hit": false,
      "t": 248082.4084999982,
      "d": 54.611624999990454,
      "v": 30
    },
    {
      "midi": 56,
      "hit": false,
      "t": 248082.4084999982,
      "d": 54.611624999990454,
      "v": 24
    },
    {
      "midi": 44,
      "hit": false,
      "t": 248155.22399999818,
      "d": 54.611624999990454,
      "v": 40
    },
    {
      "midi": 78,
      "hit": false,
      "t": 248228.03949999617,
      "d": 54.611624999990454,
      "v": 40
    },
    {
      "midi": 54,
      "hit": false,
      "t": 248228.03949999818,
      "d": 54.611624999990454,
      "v": 32
    },
    {
      "midi": 56,
      "hit": false,
      "t": 248228.03949999818,
      "d": 54.611624999990454,
      "v": 24
    },
    {
      "midi": 84,
      "hit": false,
      "t": 248300.85499999617,
      "d": 54.611624999990454,
      "v": 31
    },
    {
      "midi": 51,
      "hit": false,
      "t": 248300.85499999818,
      "d": 54.611624999990454,
      "v": 37
    },
    {
      "midi": 60,
      "hit": false,
      "t": 248300.85499999818,
      "d": 54.611624999990454,
      "v": 27
    },
    {
      "midi": 87,
      "hit": false,
      "t": 248373.67049999617,
      "d": 54.611624999990454,
      "v": 44
    },
    {
      "midi": 54,
      "hit": false,
      "t": 248373.67049999817,
      "d": 54.611624999990454,
      "v": 30
    },
    {
      "midi": 56,
      "hit": false,
      "t": 248373.67049999817,
      "d": 54.611624999990454,
      "v": 35
    },
    {
      "midi": 90,
      "hit": false,
      "t": 248446.48599999616,
      "d": 54.611624999990454,
      "v": 37
    },
    {
      "midi": 51,
      "hit": false,
      "t": 248446.48599999817,
      "d": 54.611624999990454,
      "v": 40
    },
    {
      "midi": 60,
      "hit": false,
      "t": 248446.48599999817,
      "d": 54.611624999990454,
      "v": 28
    },
    {
      "midi": 92,
      "hit": false,
      "t": 248519.30149999616,
      "d": 54.611624999990454,
      "v": 40
    },
    {
      "midi": 54,
      "hit": false,
      "t": 248519.30149999817,
      "d": 54.611624999990454,
      "v": 30
    },
    {
      "midi": 56,
      "hit": false,
      "t": 248519.30149999817,
      "d": 54.611624999990454,
      "v": 33
    },
    {
      "midi": 90,
      "hit": false,
      "t": 248592.11699999616,
      "d": 54.611624999990454,
      "v": 44
    },
    {
      "midi": 51,
      "hit": false,
      "t": 248592.11699999816,
      "d": 54.611624999990454,
      "v": 35
    },
    {
      "midi": 60,
      "hit": false,
      "t": 248592.11699999816,
      "d": 54.611624999990454,
      "v": 23
    },
    {
      "midi": 89,
      "hit": false,
      "t": 248664.93249999615,
      "d": 54.611624999990454,
      "v": 28
    },
    {
      "midi": 54,
      "hit": false,
      "t": 248664.93249999816,
      "d": 54.611624999990454,
      "v": 32
    },
    {
      "midi": 56,
      "hit": false,
      "t": 248664.93249999816,
      "d": 54.611624999990454,
      "v": 33
    },
    {
      "midi": 87,
      "hit": false,
      "t": 248737.74799999615,
      "d": 54.611624999990454,
      "v": 35
    },
    {
      "midi": 51,
      "hit": false,
      "t": 248737.74799999816,
      "d": 54.611624999990454,
      "v": 37
    },
    {
      "midi": 60,
      "hit": false,
      "t": 248737.74799999816,
      "d": 54.611624999990454,
      "v": 31
    },
    {
      "midi": 89,
      "hit": false,
      "t": 248810.56349999615,
      "d": 54.611624999990454,
      "v": 32
    },
    {
      "midi": 54,
      "hit": false,
      "t": 248810.56349999816,
      "d": 54.611624999990454,
      "v": 23
    },
    {
      "midi": 56,
      "hit": false,
      "t": 248810.56349999816,
      "d": 54.611624999990454,
      "v": 20
    },
    {
      "midi": 87,
      "hit": false,
      "t": 248883.37899999614,
      "d": 54.611624999990454,
      "v": 37
    },
    {
      "midi": 51,
      "hit": false,
      "t": 248883.37899999815,
      "d": 54.611624999990454,
      "v": 37
    },
    {
      "midi": 60,
      "hit": false,
      "t": 248883.37899999815,
      "d": 54.611624999990454,
      "v": 25
    },
    {
      "midi": 85,
      "hit": false,
      "t": 248956.19449999614,
      "d": 54.611624999990454,
      "v": 32
    },
    {
      "midi": 54,
      "hit": false,
      "t": 248956.19449999815,
      "d": 54.611624999990454,
      "v": 16
    },
    {
      "midi": 56,
      "hit": false,
      "t": 248956.19449999815,
      "d": 54.611624999990454,
      "v": 35
    },
    {
      "midi": 84,
      "hit": false,
      "t": 249029.00999999614,
      "d": 54.611624999990454,
      "v": 37
    },
    {
      "midi": 51,
      "hit": false,
      "t": 249029.00999999815,
      "d": 54.611624999990454,
      "v": 40
    },
    {
      "midi": 60,
      "hit": false,
      "t": 249029.00999999815,
      "d": 54.611624999990454,
      "v": 25
    },
    {
      "midi": 82,
      "hit": false,
      "t": 249101.82549999614,
      "d": 54.611624999990454,
      "v": 40
    },
    {
      "midi": 54,
      "hit": false,
      "t": 249101.82549999814,
      "d": 54.611624999990454,
      "v": 44
    },
    {
      "midi": 56,
      "hit": false,
      "t": 249101.82549999814,
      "d": 54.611624999990454,
      "v": 16
    },
    {
      "midi": 80,
      "hit": false,
      "t": 249174.64099999613,
      "d": 54.611624999990454,
      "v": 37
    },
    {
      "midi": 51,
      "hit": false,
      "t": 249174.64099999814,
      "d": 54.611624999990454,
      "v": 32
    },
    {
      "midi": 60,
      "hit": false,
      "t": 249174.64099999814,
      "d": 54.611624999990454,
      "v": 20
    },
    {
      "midi": 78,
      "hit": false,
      "t": 249247.45649999613,
      "d": 54.611624999990454,
      "v": 35
    },
    {
      "midi": 54,
      "hit": false,
      "t": 249247.45649999814,
      "d": 54.611624999990454,
      "v": 21
    },
    {
      "midi": 56,
      "hit": false,
      "t": 249247.45649999814,
      "d": 54.611624999990454,
      "v": 22
    },
    {
      "midi": 77,
      "hit": false,
      "t": 249320.27199999613,
      "d": 54.611624999990454,
      "v": 37
    },
    {
      "midi": 49,
      "hit": false,
      "t": 249320.27199999813,
      "d": 54.611624999990454,
      "v": 35
    },
    {
      "midi": 80,
      "hit": false,
      "t": 249393.08749999612,
      "d": 54.611624999990454,
      "v": 44
    },
    {
      "midi": 61,
      "hit": false,
      "t": 249393.08749999813,
      "d": 54.611624999990454,
      "v": 31
    },
    {
      "midi": 65,
      "hit": false,
      "t": 249393.08749999813,
      "d": 54.611624999990454,
      "v": 28
    },
    {
      "midi": 85,
      "hit": false,
      "t": 249465.90299999612,
      "d": 54.611624999990454,
      "v": 40
    },
    {
      "midi": 56,
      "hit": false,
      "t": 249465.90299999813,
      "d": 54.611624999990454,
      "v": 35
    },
    {
      "midi": 68,
      "hit": false,
      "t": 249465.90299999813,
      "d": 54.611624999990454,
      "v": 35
    },
    {
      "midi": 89,
      "hit": false,
      "t": 249538.71849999612,
      "d": 54.611624999990454,
      "v": 41
    },
    {
      "midi": 61,
      "hit": false,
      "t": 249538.71849999813,
      "d": 54.611624999990454,
      "v": 28
    },
    {
      "midi": 65,
      "hit": false,
      "t": 249538.71849999813,
      "d": 54.611624999990454,
      "v": 20
    },
    {
      "midi": 92,
      "hit": false,
      "t": 249611.5339999961,
      "d": 54.611624999990454,
      "v": 40
    },
    {
      "midi": 56,
      "hit": false,
      "t": 249611.53399999812,
      "d": 54.611624999990454,
      "v": 47
    },
    {
      "midi": 68,
      "hit": false,
      "t": 249611.53399999812,
      "d": 54.611624999990454,
      "v": 44
    },
    {
      "midi": 94,
      "hit": false,
      "t": 249684.3494999961,
      "d": 54.611624999990454,
      "v": 35
    },
    {
      "midi": 61,
      "hit": false,
      "t": 249684.34949999812,
      "d": 54.611624999990454,
      "v": 35
    },
    {
      "midi": 65,
      "hit": false,
      "t": 249684.34949999812,
      "d": 54.611624999990454,
      "v": 8
    },
    {
      "midi": 92,
      "hit": false,
      "t": 249757.1649999961,
      "d": 54.611624999990454,
      "v": 37
    },
    {
      "midi": 56,
      "hit": false,
      "t": 249757.16499999812,
      "d": 54.611624999990454,
      "v": 35
    },
    {
      "midi": 68,
      "hit": false,
      "t": 249757.16499999812,
      "d": 54.611624999990454,
      "v": 21
    },
    {
      "midi": 90,
      "hit": false,
      "t": 249829.9804999961,
      "d": 54.611624999990454,
      "v": 40
    },
    {
      "midi": 61,
      "hit": false,
      "t": 249829.9804999981,
      "d": 54.611624999990454,
      "v": 38
    },
    {
      "midi": 65,
      "hit": false,
      "t": 249829.9804999981,
      "d": 54.611624999990454,
      "v": 27
    },
    {
      "midi": 89,
      "hit": false,
      "t": 249902.7959999961,
      "d": 54.611624999990454,
      "v": 56
    },
    {
      "midi": 56,
      "hit": false,
      "t": 249902.7959999981,
      "d": 54.611624999990454,
      "v": 59
    },
    {
      "midi": 68,
      "hit": false,
      "t": 249902.7959999981,
      "d": 54.611624999990454,
      "v": 50
    },
    {
      "midi": 90,
      "hit": false,
      "t": 249975.6114999961,
      "d": 54.611624999990454,
      "v": 55
    },
    {
      "midi": 61,
      "hit": false,
      "t": 249975.6114999981,
      "d": 54.611624999990454,
      "v": 31
    },
    {
      "midi": 65,
      "hit": false,
      "t": 249975.6114999981,
      "d": 54.611624999990454,
      "v": 41
    },
    {
      "midi": 89,
      "hit": false,
      "t": 250048.4269999961,
      "d": 54.611624999990454,
      "v": 50
    },
    {
      "midi": 56,
      "hit": false,
      "t": 250048.4269999981,
      "d": 54.611624999990454,
      "v": 48
    },
    {
      "midi": 68,
      "hit": false,
      "t": 250048.4269999981,
      "d": 54.611624999990454,
      "v": 47
    },
    {
      "midi": 87,
      "hit": false,
      "t": 250121.2424999961,
      "d": 54.611624999990454,
      "v": 47
    },
    {
      "midi": 61,
      "hit": false,
      "t": 250121.2424999981,
      "d": 54.611624999990454,
      "v": 44
    },
    {
      "midi": 65,
      "hit": false,
      "t": 250121.2424999981,
      "d": 54.611624999990454,
      "v": 26
    },
    {
      "midi": 85,
      "hit": false,
      "t": 250194.0579999961,
      "d": 54.611624999990454,
      "v": 55
    },
    {
      "midi": 56,
      "hit": false,
      "t": 250194.0579999981,
      "d": 54.611624999990454,
      "v": 59
    },
    {
      "midi": 68,
      "hit": false,
      "t": 250194.0579999981,
      "d": 54.611624999990454,
      "v": 55
    },
    {
      "midi": 87,
      "hit": false,
      "t": 250266.8734999961,
      "d": 54.611624999990454,
      "v": 55
    },
    {
      "midi": 61,
      "hit": false,
      "t": 250266.8734999981,
      "d": 54.611624999990454,
      "v": 36
    },
    {
      "midi": 65,
      "hit": false,
      "t": 250266.8734999981,
      "d": 54.611624999990454,
      "v": 31
    },
    {
      "midi": 89,
      "hit": false,
      "t": 250339.68899999608,
      "d": 54.611624999990454,
      "v": 47
    },
    {
      "midi": 56,
      "hit": false,
      "t": 250339.6889999981,
      "d": 54.611624999990454,
      "v": 48
    },
    {
      "midi": 68,
      "hit": false,
      "t": 250339.6889999981,
      "d": 54.611624999990454,
      "v": 55
    },
    {
      "midi": 85,
      "hit": false,
      "t": 250412.50449999608,
      "d": 54.611624999990454,
      "v": 47
    },
    {
      "midi": 61,
      "hit": false,
      "t": 250412.5044999981,
      "d": 54.611624999990454,
      "v": 44
    },
    {
      "midi": 65,
      "hit": false,
      "t": 250412.5044999981,
      "d": 54.611624999990454,
      "v": 34
    },
    {
      "midi": 49,
      "hit": false,
      "t": 250485.3199999981,
      "d": 54.611624999990454,
      "v": 40
    },
    {
      "midi": 80,
      "hit": false,
      "t": 250558.13549999607,
      "d": 54.611624999990454,
      "v": 40
    },
    {
      "midi": 61,
      "hit": false,
      "t": 250558.13549999808,
      "d": 54.611624999990454,
      "v": 51
    },
    {
      "midi": 65,
      "hit": false,
      "t": 250558.13549999808,
      "d": 54.611624999990454,
      "v": 34
    },
    {
      "midi": 85,
      "hit": false,
      "t": 250630.95099999607,
      "d": 54.611624999990454,
      "v": 40
    },
    {
      "midi": 56,
      "hit": false,
      "t": 250630.95099999808,
      "d": 54.611624999990454,
      "v": 42
    },
    {
      "midi": 68,
      "hit": false,
      "t": 250630.95099999808,
      "d": 54.611624999990454,
      "v": 40
    },
    {
      "midi": 89,
      "hit": false,
      "t": 250703.76649999607,
      "d": 54.611624999990454,
      "v": 44
    },
    {
      "midi": 61,
      "hit": false,
      "t": 250703.76649999808,
      "d": 54.611624999990454,
      "v": 33
    },
    {
      "midi": 65,
      "hit": false,
      "t": 250703.76649999808,
      "d": 54.611624999990454,
      "v": 15
    },
    {
      "midi": 92,
      "hit": false,
      "t": 250776.58199999607,
      "d": 54.611624999990454,
      "v": 58
    },
    {
      "midi": 68,
      "hit": false,
      "t": 250776.58199999807,
      "d": 72.81549999999697,
      "v": 50
    },
    {
      "midi": 94,
      "hit": false,
      "t": 250849.39749999606,
      "d": 54.611624999990454,
      "v": 50
    },
    {
      "midi": 92,
      "hit": false,
      "t": 250922.21299999606,
      "d": 54.611624999990454,
      "v": 55
    },
    {
      "midi": 73,
      "hit": false,
      "t": 250922.21299999807,
      "d": 72.81549999999697,
      "v": 47
    },
    {
      "midi": 90,
      "hit": false,
      "t": 250995.02849999606,
      "d": 54.611624999990454,
      "v": 50
    },
    {
      "midi": 89,
      "hit": false,
      "t": 251067.84399999605,
      "d": 54.611624999990454,
      "v": 50
    },
    {
      "midi": 77,
      "hit": false,
      "t": 251067.84399999806,
      "d": 72.81549999999697,
      "v": 50
    },
    {
      "midi": 90,
      "hit": false,
      "t": 251140.65949999605,
      "d": 54.611624999990454,
      "v": 47
    },
    {
      "midi": 92,
      "hit": false,
      "t": 251213.47499999605,
      "d": 54.611624999990454,
      "v": 58
    },
    {
      "midi": 80,
      "hit": false,
      "t": 251213.47499999806,
      "d": 72.81549999999697,
      "v": 47
    },
    {
      "midi": 90,
      "hit": false,
      "t": 251286.29049999604,
      "d": 54.611624999990454,
      "v": 50
    },
    {
      "midi": 89,
      "hit": false,
      "t": 251359.10599999604,
      "d": 54.611624999990454,
      "v": 41
    },
    {
      "midi": 85,
      "hit": false,
      "t": 251359.10599999805,
      "d": 72.81549999999697,
      "v": 44
    },
    {
      "midi": 90,
      "hit": false,
      "t": 251431.92149999604,
      "d": 54.611624999990454,
      "v": 47
    },
    {
      "midi": 92,
      "hit": false,
      "t": 251504.73699999604,
      "d": 54.611624999990454,
      "v": 47
    },
    {
      "midi": 85,
      "hit": false,
      "t": 251504.73699999804,
      "d": 72.81549999999697,
      "v": 38
    },
    {
      "midi": 89,
      "hit": false,
      "t": 251577.55249999603,
      "d": 54.611624999990454,
      "v": 39
    },
    {
      "midi": 82,
      "hit": false,
      "t": 251650.36799999804,
      "d": 436.89300000001094,
      "v": 58
    },
    {
      "midi": 85,
      "hit": false,
      "t": 251650.36799999804,
      "d": 436.89300000001094,
      "v": 63
    },
    {
      "midi": 90,
      "hit": false,
      "t": 251723.18349999603,
      "d": 54.611624999990454,
      "v": 58
    },
    {
      "midi": 92,
      "hit": false,
      "t": 251795.99899999602,
      "d": 54.611624999990454,
      "v": 38
    },
    {
      "midi": 90,
      "hit": false,
      "t": 251868.81449999602,
      "d": 54.611624999990454,
      "v": 44
    },
    {
      "midi": 92,
      "hit": false,
      "t": 251941.62999999602,
      "d": 54.611624999990454,
      "v": 50
    },
    {
      "midi": 90,
      "hit": false,
      "t": 252014.445499996,
      "d": 54.611624999990454,
      "v": 40
    },
    {
      "midi": 89,
      "hit": false,
      "t": 252087.260999996,
      "d": 54.611624999990454,
      "v": 41
    },
    {
      "midi": 80,
      "hit": false,
      "t": 252087.26099999805,
      "d": 145.63099999999395,
      "v": 44
    },
    {
      "midi": 84,
      "hit": false,
      "t": 252087.26099999805,
      "d": 145.63099999999395,
      "v": 52
    },
    {
      "midi": 90,
      "hit": false,
      "t": 252160.076499996,
      "d": 54.611624999990454,
      "v": 40
    },
    {
      "midi": 79,
      "hit": false,
      "t": 252232.89199999804,
      "d": 291.2619999999879,
      "v": 39
    },
    {
      "midi": 82,
      "hit": false,
      "t": 252232.89199999804,
      "d": 291.2619999999879,
      "v": 55
    },
    {
      "midi": 88,
      "hit": false,
      "t": 252305.707499996,
      "d": 54.611624999990454,
      "v": 34
    },
    {
      "midi": 89,
      "hit": false,
      "t": 252378.522999996,
      "d": 54.611624999990454,
      "v": 34
    },
    {
      "midi": 88,
      "hit": false,
      "t": 252451.338499996,
      "d": 54.611624999990454,
      "v": 26
    },
    {
      "midi": 80,
      "hit": false,
      "t": 252524.15399999803,
      "d": 291.2619999999879,
      "v": 55
    },
    {
      "midi": 84,
      "hit": false,
      "t": 252524.15399999803,
      "d": 291.2619999999879,
      "v": 59
    },
    {
      "midi": 89,
      "hit": false,
      "t": 252596.969499996,
      "d": 54.611624999990454,
      "v": 41
    },
    {
      "midi": 91,
      "hit": false,
      "t": 252669.784999996,
      "d": 54.611624999990454,
      "v": 31
    },
    {
      "midi": 89,
      "hit": false,
      "t": 252742.60049999598,
      "d": 54.611624999990454,
      "v": 36
    },
    {
      "midi": 82,
      "hit": false,
      "t": 252815.41599999802,
      "d": 436.89300000001094,
      "v": 68
    },
    {
      "midi": 85,
      "hit": false,
      "t": 252815.41599999802,
      "d": 436.89300000001094,
      "v": 74
    },
    {
      "midi": 90,
      "hit": false,
      "t": 252888.23149999598,
      "d": 54.611624999990454,
      "v": 63
    },
    {
      "midi": 92,
      "hit": false,
      "t": 252961.04699999598,
      "d": 54.611624999990454,
      "v": 44
    },
    {
      "midi": 90,
      "hit": false,
      "t": 253033.86249999597,
      "d": 54.611624999990454,
      "v": 35
    },
    {
      "midi": 92,
      "hit": false,
      "t": 253106.67799999597,
      "d": 54.611624999990454,
      "v": 47
    },
    {
      "midi": 90,
      "hit": false,
      "t": 253179.49349999597,
      "d": 54.611624999990454,
      "v": 50
    },
    {
      "midi": 89,
      "hit": false,
      "t": 253252.30899999596,
      "d": 54.611624999990454,
      "v": 32
    },
    {
      "midi": 80,
      "hit": false,
      "t": 253252.30899999803,
      "d": 145.63099999999395,
      "v": 47
    },
    {
      "midi": 84,
      "hit": false,
      "t": 253252.30899999803,
      "d": 145.63099999999395,
      "v": 59
    },
    {
      "midi": 90,
      "hit": false,
      "t": 253325.12449999596,
      "d": 54.611624999990454,
      "v": 38
    },
    {
      "midi": 79,
      "hit": false,
      "t": 253397.93999999802,
      "d": 291.2619999999879,
      "v": 52
    },
    {
      "midi": 82,
      "hit": false,
      "t": 253397.93999999802,
      "d": 291.2619999999879,
      "v": 63
    },
    {
      "midi": 88,
      "hit": false,
      "t": 253470.75549999595,
      "d": 54.611624999990454,
      "v": 36
    },
    {
      "midi": 89,
      "hit": false,
      "t": 253543.57099999595,
      "d": 54.611624999990454,
      "v": 29
    },
    {
      "midi": 88,
      "hit": false,
      "t": 253616.38649999595,
      "d": 54.611624999990454,
      "v": 34
    },
    {
      "midi": 80,
      "hit": false,
      "t": 253689.201999998,
      "d": 291.2619999999879,
      "v": 50
    },
    {
      "midi": 84,
      "hit": false,
      "t": 253689.201999998,
      "d": 291.2619999999879,
      "v": 52
    },
    {
      "midi": 89,
      "hit": false,
      "t": 253762.01749999594,
      "d": 54.611624999990454,
      "v": 47
    },
    {
      "midi": 91,
      "hit": false,
      "t": 253834.83299999594,
      "d": 54.611624999990454,
      "v": 44
    },
    {
      "midi": 89,
      "hit": false,
      "t": 253907.64849999594,
      "d": 54.611624999990454,
      "v": 39
    },
    {
      "midi": 82,
      "hit": false,
      "t": 253980.463999998,
      "d": 436.89300000001094,
      "v": 68
    },
    {
      "midi": 85,
      "hit": false,
      "t": 253980.463999998,
      "d": 436.89300000001094,
      "v": 74
    },
    {
      "midi": 90,
      "hit": false,
      "t": 254053.27949999593,
      "d": 54.611624999990454,
      "v": 63
    },
    {
      "midi": 92,
      "hit": false,
      "t": 254126.09499999593,
      "d": 54.611624999990454,
      "v": 44
    },
    {
      "midi": 90,
      "hit": false,
      "t": 254198.91049999592,
      "d": 54.611624999990454,
      "v": 43
    },
    {
      "midi": 92,
      "hit": false,
      "t": 254271.72599999592,
      "d": 54.611624999990454,
      "v": 43
    },
    {
      "midi": 90,
      "hit": false,
      "t": 254344.54149999592,
      "d": 54.611624999990454,
      "v": 43
    },
    {
      "midi": 89,
      "hit": false,
      "t": 254417.3569999959,
      "d": 54.611624999990454,
      "v": 43
    },
    {
      "midi": 80,
      "hit": false,
      "t": 254417.356999998,
      "d": 145.63099999999395,
      "v": 53
    },
    {
      "midi": 84,
      "hit": false,
      "t": 254417.356999998,
      "d": 145.63099999999395,
      "v": 54
    },
    {
      "midi": 91,
      "hit": false,
      "t": 254490.1724999959,
      "d": 54.611624999990454,
      "v": 43
    },
    {
      "midi": 79,
      "hit": false,
      "t": 254562.987999998,
      "d": 291.2619999999879,
      "v": 54
    },
    {
      "midi": 82,
      "hit": false,
      "t": 254562.987999998,
      "d": 291.2619999999879,
      "v": 65
    },
    {
      "midi": 88,
      "hit": false,
      "t": 254635.8034999959,
      "d": 54.611624999990454,
      "v": 54
    },
    {
      "midi": 89,
      "hit": false,
      "t": 254708.6189999959,
      "d": 54.611624999990454,
      "v": 37
    },
    {
      "midi": 88,
      "hit": false,
      "t": 254781.4344999959,
      "d": 54.611624999990454,
      "v": 29
    },
    {
      "midi": 77,
      "hit": false,
      "t": 254854.249999998,
      "d": 291.2619999999879,
      "v": 47
    },
    {
      "midi": 80,
      "hit": false,
      "t": 254854.249999998,
      "d": 291.2619999999879,
      "v": 64
    },
    {
      "midi": 85,
      "hit": false,
      "t": 254927.0654999959,
      "d": 54.611624999990454,
      "v": 47
    },
    {
      "midi": 87,
      "hit": false,
      "t": 254999.8809999959,
      "d": 54.611624999990454,
      "v": 38
    },
    {
      "midi": 85,
      "hit": false,
      "t": 255072.6964999959,
      "d": 54.611624999990454,
      "v": 37
    },
    {
      "midi": 76,
      "hit": false,
      "t": 255145.51199999798,
      "d": 291.2619999999879,
      "v": 38
    },
    {
      "midi": 79,
      "hit": false,
      "t": 255145.51199999798,
      "d": 291.2619999999879,
      "v": 44
    },
    {
      "midi": 84,
      "hit": false,
      "t": 255218.32749999588,
      "d": 54.611624999990454,
      "v": 48
    },
    {
      "midi": 85,
      "hit": false,
      "t": 255291.14299999588,
      "d": 54.611624999990454,
      "v": 43
    },
    {
      "midi": 84,
      "hit": false,
      "t": 255363.95849999588,
      "d": 54.611624999990454,
      "v": 33
    },
    {
      "midi": 74,
      "hit": false,
      "t": 255436.77399999797,
      "d": 291.2619999999879,
      "v": 33
    },
    {
      "midi": 77,
      "hit": false,
      "t": 255436.77399999797,
      "d": 291.2619999999879,
      "v": 35
    },
    {
      "midi": 83,
      "hit": false,
      "t": 255509.58949999587,
      "d": 54.611624999990454,
      "v": 43
    },
    {
      "midi": 84,
      "hit": false,
      "t": 255582.40499999587,
      "d": 54.611624999990454,
      "v": 47
    },
    {
      "midi": 83,
      "hit": false,
      "t": 255655.22049999586,
      "d": 54.611624999990454,
      "v": 40
    },
    {
      "midi": 73,
      "hit": false,
      "t": 255728.03599999796,
      "d": 291.2619999999879,
      "v": 49
    },
    {
      "midi": 77,
      "hit": false,
      "t": 255728.03599999796,
      "d": 291.2619999999879,
      "v": 42
    },
    {
      "midi": 82,
      "hit": false,
      "t": 255800.85149999586,
      "d": 54.611624999990454,
      "v": 52
    },
    {
      "midi": 84,
      "hit": false,
      "t": 255873.66699999585,
      "d": 54.611624999990454,
      "v": 50
    },
    {
      "midi": 82,
      "hit": false,
      "t": 255946.48249999585,
      "d": 54.611624999990454,
      "v": 48
    },
    {
      "midi": 72,
      "hit": false,
      "t": 256019.29799999794,
      "d": 291.2619999999879,
      "v": 32
    },
    {
      "midi": 77,
      "hit": false,
      "t": 256019.29799999794,
      "d": 291.2619999999879,
      "v": 34
    },
    {
      "midi": 80,
      "hit": false,
      "t": 256092.11349999584,
      "d": 54.611624999990454,
      "v": 33
    },
    {
      "midi": 82,
      "hit": false,
      "t": 256164.92899999584,
      "d": 54.611624999990454,
      "v": 38
    },
    {
      "midi": 80,
      "hit": false,
      "t": 256237.74449999584,
      "d": 54.611624999990454,
      "v": 25
    },
    {
      "midi": 71,
      "hit": false,
      "t": 256310.55999999793,
      "d": 582.5239999999758,
      "v": 40
    },
    {
      "midi": 80,
      "hit": false,
      "t": 256383.37549999583,
      "d": 54.611624999990454,
      "v": 34
    },
    {
      "midi": 82,
      "hit": false,
      "t": 256456.19099999583,
      "d": 54.611624999990454,
      "v": 32
    },
    {
      "midi": 80,
      "hit": false,
      "t": 256529.00649999583,
      "d": 54.611624999990454,
      "v": 37
    },
    {
      "midi": 74,
      "hit": false,
      "t": 256601.82199999792,
      "d": 291.2619999999879,
      "v": 44
    },
    {
      "midi": 79,
      "hit": false,
      "t": 256674.63749999582,
      "d": 54.611624999990454,
      "v": 39
    },
    {
      "midi": 80,
      "hit": false,
      "t": 256747.45299999582,
      "d": 54.611624999990454,
      "v": 37
    },
    {
      "midi": 79,
      "hit": false,
      "t": 256820.26849999581,
      "d": 54.611624999990454,
      "v": 30
    },
    {
      "midi": 60,
      "hit": false,
      "t": 256893.0839999979,
      "d": 291.2619999999879,
      "v": 46
    },
    {
      "midi": 72,
      "hit": false,
      "t": 256893.0839999979,
      "d": 582.5239999999758,
      "v": 47
    },
    {
      "midi": 77,
      "hit": false,
      "t": 256965.8994999958,
      "d": 54.611624999990454,
      "v": 43
    },
    {
      "midi": 79,
      "hit": false,
      "t": 257038.7149999958,
      "d": 54.611624999990454,
      "v": 48
    },
    {
      "midi": 77,
      "hit": false,
      "t": 257111.5304999958,
      "d": 54.611624999990454,
      "v": 39
    },
    {
      "midi": 67,
      "hit": false,
      "t": 257184.3459999979,
      "d": 291.2619999999879,
      "v": 31
    },
    {
      "midi": 76,
      "hit": false,
      "t": 257257.1614999958,
      "d": 54.611624999990454,
      "v": 38
    },
    {
      "midi": 77,
      "hit": false,
      "t": 257329.9769999958,
      "d": 54.611624999990454,
      "v": 40
    },
    {
      "midi": 76,
      "hit": false,
      "t": 257402.7924999958,
      "d": 54.611624999990454,
      "v": 38
    },
    {
      "midi": 46,
      "hit": false,
      "t": 257475.60799999788,
      "d": 436.89300000001094,
      "v": 54
    },
    {
      "midi": 49,
      "hit": false,
      "t": 257475.60799999788,
      "d": 436.89300000001094,
      "v": 74
    },
    {
      "midi": 54,
      "hit": false,
      "t": 257475.60799999788,
      "d": 436.89300000001094,
      "v": 74
    },
    {
      "midi": 61,
      "hit": false,
      "t": 257548.42349999578,
      "d": 72.81549999999697,
      "v": 31
    },
    {
      "midi": 73,
      "hit": false,
      "t": 257621.23899999578,
      "d": 72.81549999999697,
      "v": 47
    },
    {
      "midi": 61,
      "hit": false,
      "t": 257694.05449999578,
      "d": 72.81549999999697,
      "v": 44
    },
    {
      "midi": 73,
      "hit": false,
      "t": 257766.86999999578,
      "d": 72.81549999999697,
      "v": 40
    },
    {
      "midi": 61,
      "hit": false,
      "t": 257839.68549999577,
      "d": 72.81549999999697,
      "v": 39
    },
    {
      "midi": 73,
      "hit": false,
      "t": 257912.50099999577,
      "d": 72.81549999999697,
      "v": 35
    },
    {
      "midi": 44,
      "hit": false,
      "t": 257912.5009999979,
      "d": 145.63099999999395,
      "v": 40
    },
    {
      "midi": 48,
      "hit": false,
      "t": 257912.5009999979,
      "d": 145.63099999999395,
      "v": 56
    },
    {
      "midi": 53,
      "hit": false,
      "t": 257912.5009999979,
      "d": 145.63099999999395,
      "v": 54
    },
    {
      "midi": 61,
      "hit": false,
      "t": 257985.31649999577,
      "d": 72.81549999999697,
      "v": 24
    },
    {
      "midi": 43,
      "hit": false,
      "t": 258058.1319999979,
      "d": 291.2619999999879,
      "v": 56
    },
    {
      "midi": 46,
      "hit": false,
      "t": 258058.1319999979,
      "d": 291.2619999999879,
      "v": 62
    },
    {
      "midi": 52,
      "hit": false,
      "t": 258058.1319999979,
      "d": 291.2619999999879,
      "v": 56
    },
    {
      "midi": 61,
      "hit": false,
      "t": 258130.94749999576,
      "d": 72.81549999999697,
      "v": 39
    },
    {
      "midi": 73,
      "hit": false,
      "t": 258203.76299999576,
      "d": 72.81549999999697,
      "v": 50
    },
    {
      "midi": 72,
      "hit": false,
      "t": 258276.57849999575,
      "d": 72.81549999999697,
      "v": 36
    },
    {
      "midi": 70,
      "hit": false,
      "t": 258349.39399999575,
      "d": 72.81549999999697,
      "v": 50
    },
    {
      "midi": 44,
      "hit": false,
      "t": 258349.39399999788,
      "d": 291.2619999999879,
      "v": 50
    },
    {
      "midi": 48,
      "hit": false,
      "t": 258349.39399999788,
      "d": 291.2619999999879,
      "v": 59
    },
    {
      "midi": 53,
      "hit": false,
      "t": 258349.39399999788,
      "d": 291.2619999999879,
      "v": 56
    },
    {
      "midi": 68,
      "hit": false,
      "t": 258422.20949999575,
      "d": 72.81549999999697,
      "v": 44
    },
    {
      "midi": 67,
      "hit": false,
      "t": 258495.02499999575,
      "d": 72.81549999999697,
      "v": 52
    },
    {
      "midi": 65,
      "hit": false,
      "t": 258567.84049999574,
      "d": 72.81549999999697,
      "v": 44
    },
    {
      "midi": 46,
      "hit": false,
      "t": 258640.65599999786,
      "d": 436.89300000001094,
      "v": 72
    },
    {
      "midi": 49,
      "hit": false,
      "t": 258640.65599999786,
      "d": 436.89300000001094,
      "v": 80
    },
    {
      "midi": 54,
      "hit": false,
      "t": 258640.65599999786,
      "d": 436.89300000001094,
      "v": 80
    },
    {
      "midi": 73,
      "hit": false,
      "t": 258713.47149999574,
      "d": 72.81549999999697,
      "v": 63
    },
    {
      "midi": 85,
      "hit": false,
      "t": 258786.28699999573,
      "d": 72.81549999999697,
      "v": 58
    },
    {
      "midi": 73,
      "hit": false,
      "t": 258859.10249999573,
      "d": 72.81549999999697,
      "v": 47
    },
    {
      "midi": 85,
      "hit": false,
      "t": 258931.91799999573,
      "d": 72.81549999999697,
      "v": 40
    },
    {
      "midi": 73,
      "hit": false,
      "t": 259004.73349999572,
      "d": 72.81549999999697,
      "v": 19
    },
    {
      "midi": 85,
      "hit": false,
      "t": 259077.54899999572,
      "d": 72.81549999999697,
      "v": 44
    },
    {
      "midi": 44,
      "hit": false,
      "t": 259077.54899999787,
      "d": 145.63099999999395,
      "v": 44
    },
    {
      "midi": 48,
      "hit": false,
      "t": 259077.54899999787,
      "d": 145.63099999999395,
      "v": 44
    },
    {
      "midi": 53,
      "hit": false,
      "t": 259077.54899999787,
      "d": 145.63099999999395,
      "v": 56
    },
    {
      "midi": 73,
      "hit": false,
      "t": 259150.36449999572,
      "d": 72.81549999999697,
      "v": 22
    },
    {
      "midi": 43,
      "hit": false,
      "t": 259223.17999999787,
      "d": 291.2619999999879,
      "v": 56
    },
    {
      "midi": 46,
      "hit": false,
      "t": 259223.17999999787,
      "d": 291.2619999999879,
      "v": 59
    },
    {
      "midi": 52,
      "hit": false,
      "t": 259223.17999999787,
      "d": 291.2619999999879,
      "v": 62
    },
    {
      "midi": 73,
      "hit": false,
      "t": 259295.9954999957,
      "d": 72.81549999999697,
      "v": 47
    },
    {
      "midi": 85,
      "hit": false,
      "t": 259368.8109999957,
      "d": 72.81549999999697,
      "v": 58
    },
    {
      "midi": 84,
      "hit": false,
      "t": 259441.6264999957,
      "d": 72.81549999999697,
      "v": 52
    },
    {
      "midi": 82,
      "hit": false,
      "t": 259514.4419999957,
      "d": 72.81549999999697,
      "v": 29
    },
    {
      "midi": 44,
      "hit": false,
      "t": 259514.44199999786,
      "d": 291.2619999999879,
      "v": 55
    },
    {
      "midi": 48,
      "hit": false,
      "t": 259514.44199999786,
      "d": 291.2619999999879,
      "v": 52
    },
    {
      "midi": 53,
      "hit": false,
      "t": 259514.44199999786,
      "d": 291.2619999999879,
      "v": 60
    },
    {
      "midi": 80,
      "hit": false,
      "t": 259587.2574999957,
      "d": 72.81549999999697,
      "v": 29
    },
    {
      "midi": 79,
      "hit": false,
      "t": 259660.0729999957,
      "d": 72.81549999999697,
      "v": 36
    },
    {
      "midi": 77,
      "hit": false,
      "t": 259732.8884999957,
      "d": 72.81549999999697,
      "v": 21
    },
    {
      "midi": 46,
      "hit": false,
      "t": 259805.70399999784,
      "d": 436.89300000001094,
      "v": 72
    },
    {
      "midi": 49,
      "hit": false,
      "t": 259805.70399999784,
      "d": 436.89300000001094,
      "v": 86
    },
    {
      "midi": 54,
      "hit": false,
      "t": 259805.70399999784,
      "d": 436.89300000001094,
      "v": 80
    },
    {
      "midi": 61,
      "hit": false,
      "t": 259878.5194999957,
      "d": 72.81549999999697,
      "v": 54
    },
    {
      "midi": 73,
      "hit": false,
      "t": 259951.33499999568,
      "d": 72.81549999999697,
      "v": 50
    },
    {
      "midi": 61,
      "hit": false,
      "t": 260024.15049999568,
      "d": 72.81549999999697,
      "v": 36
    },
    {
      "midi": 73,
      "hit": false,
      "t": 260096.96599999568,
      "d": 72.81549999999697,
      "v": 32
    },
    {
      "midi": 61,
      "hit": false,
      "t": 260169.78149999568,
      "d": 72.81549999999697,
      "v": 16
    },
    {
      "midi": 73,
      "hit": false,
      "t": 260242.59699999567,
      "d": 72.81549999999697,
      "v": 27
    },
    {
      "midi": 44,
      "hit": false,
      "t": 260242.59699999786,
      "d": 145.63099999999395,
      "v": 47
    },
    {
      "midi": 48,
      "hit": false,
      "t": 260242.59699999786,
      "d": 145.63099999999395,
      "v": 39
    },
    {
      "midi": 53,
      "hit": false,
      "t": 260242.59699999786,
      "d": 145.63099999999395,
      "v": 51
    },
    {
      "midi": 61,
      "hit": false,
      "t": 260315.41249999567,
      "d": 72.81549999999697,
      "v": 8
    },
    {
      "midi": 43,
      "hit": false,
      "t": 260388.22799999785,
      "d": 291.2619999999879,
      "v": 62
    },
    {
      "midi": 46,
      "hit": false,
      "t": 260388.22799999785,
      "d": 291.2619999999879,
      "v": 54
    },
    {
      "midi": 52,
      "hit": false,
      "t": 260388.22799999785,
      "d": 291.2619999999879,
      "v": 56
    },
    {
      "midi": 73,
      "hit": false,
      "t": 260461.04349999566,
      "d": 72.81549999999697,
      "v": 50
    },
    {
      "midi": 61,
      "hit": false,
      "t": 260533.85899999566,
      "d": 72.81549999999697,
      "v": 39
    },
    {
      "midi": 73,
      "hit": false,
      "t": 260606.67449999566,
      "d": 72.81549999999697,
      "v": 29
    },
    {
      "midi": 41,
      "hit": false,
      "t": 260679.48999999784,
      "d": 291.2619999999879,
      "v": 63
    },
    {
      "midi": 44,
      "hit": false,
      "t": 260679.48999999784,
      "d": 291.2619999999879,
      "v": 68
    },
    {
      "midi": 49,
      "hit": false,
      "t": 260679.48999999784,
      "d": 291.2619999999879,
      "v": 68
    },
    {
      "midi": 85,
      "hit": false,
      "t": 260752.30549999565,
      "d": 72.81549999999697,
      "v": 58
    },
    {
      "midi": 73,
      "hit": false,
      "t": 260825.12099999565,
      "d": 72.81549999999697,
      "v": 27
    },
    {
      "midi": 85,
      "hit": false,
      "t": 260897.93649999565,
      "d": 72.81549999999697,
      "v": 29
    },
    {
      "midi": 40,
      "hit": false,
      "t": 260970.75199999782,
      "d": 291.2619999999879,
      "v": 67
    },
    {
      "midi": 43,
      "hit": false,
      "t": 260970.75199999782,
      "d": 291.2619999999879,
      "v": 67
    },
    {
      "midi": 48,
      "hit": false,
      "t": 260970.75199999782,
      "d": 291.2619999999879,
      "v": 56
    },
    {
      "midi": 84,
      "hit": false,
      "t": 261043.56749999564,
      "d": 72.81549999999697,
      "v": 59
    },
    {
      "midi": 72,
      "hit": false,
      "t": 261116.38299999564,
      "d": 72.81549999999697,
      "v": 23
    },
    {
      "midi": 84,
      "hit": false,
      "t": 261189.19849999563,
      "d": 72.81549999999697,
      "v": 16
    },
    {
      "midi": 38,
      "hit": false,
      "t": 261262.0139999978,
      "d": 291.2619999999879,
      "v": 52
    },
    {
      "midi": 41,
      "hit": false,
      "t": 261262.0139999978,
      "d": 291.2619999999879,
      "v": 51
    },
    {
      "midi": 44,
      "hit": false,
      "t": 261262.0139999978,
      "d": 291.2619999999879,
      "v": 50
    },
    {
      "midi": 47,
      "hit": false,
      "t": 261262.0139999978,
      "d": 291.2619999999879,
      "v": 50
    },
    {
      "midi": 83,
      "hit": false,
      "t": 261334.82949999563,
      "d": 72.81549999999697,
      "v": 59
    },
    {
      "midi": 71,
      "hit": false,
      "t": 261407.64499999562,
      "d": 72.81549999999697,
      "v": 39
    },
    {
      "midi": 83,
      "hit": false,
      "t": 261480.46049999562,
      "d": 72.81549999999697,
      "v": 41
    },
    {
      "midi": 40,
      "hit": false,
      "t": 261553.2759999978,
      "d": 291.2619999999879,
      "v": 56
    },
    {
      "midi": 43,
      "hit": false,
      "t": 261553.2759999978,
      "d": 291.2619999999879,
      "v": 56
    },
    {
      "midi": 46,
      "hit": false,
      "t": 261553.2759999978,
      "d": 291.2619999999879,
      "v": 59
    },
    {
      "midi": 82,
      "hit": false,
      "t": 261626.09149999561,
      "d": 72.81549999999697,
      "v": 63
    },
    {
      "midi": 70,
      "hit": false,
      "t": 261698.9069999956,
      "d": 72.81549999999697,
      "v": 47
    },
    {
      "midi": 82,
      "hit": false,
      "t": 261771.7224999956,
      "d": 72.81549999999697,
      "v": 55
    },
    {
      "midi": 41,
      "hit": false,
      "t": 261844.5379999978,
      "d": 291.2619999999879,
      "v": 60
    },
    {
      "midi": 44,
      "hit": false,
      "t": 261844.5379999978,
      "d": 291.2619999999879,
      "v": 50
    },
    {
      "midi": 80,
      "hit": false,
      "t": 261917.3534999956,
      "d": 72.81549999999697,
      "v": 58
    },
    {
      "midi": 68,
      "hit": false,
      "t": 261990.1689999956,
      "d": 72.81549999999697,
      "v": 47
    },
    {
      "midi": 72,
      "hit": false,
      "t": 261990.1689999956,
      "d": 72.81549999999697,
      "v": 47
    },
    {
      "midi": 80,
      "hit": false,
      "t": 262062.9844999956,
      "d": 72.81549999999697,
      "v": 68
    },
    {
      "midi": 44,
      "hit": false,
      "t": 262135.79999999778,
      "d": 291.2619999999879,
      "v": 58
    },
    {
      "midi": 35,
      "hit": false,
      "t": 262135.79999999778,
      "d": 582.5239999999758,
      "v": 47
    },
    {
      "midi": 80,
      "hit": false,
      "t": 262208.6154999956,
      "d": 72.81550000002608,
      "v": 68
    },
    {
      "midi": 68,
      "hit": false,
      "t": 262281.4309999956,
      "d": 72.81550000002608,
      "v": 55
    },
    {
      "midi": 74,
      "hit": false,
      "t": 262281.4309999956,
      "d": 72.81550000002608,
      "v": 47
    },
    {
      "midi": 80,
      "hit": false,
      "t": 262354.24649999564,
      "d": 72.81550000002608,
      "v": 63
    },
    {
      "midi": 43,
      "hit": false,
      "t": 262427.06199999776,
      "d": 291.2619999999879,
      "v": 59
    },
    {
      "midi": 79,
      "hit": false,
      "t": 262499.8774999957,
      "d": 72.81550000002608,
      "v": 67
    },
    {
      "midi": 67,
      "hit": false,
      "t": 262572.6929999957,
      "d": 72.81550000002608,
      "v": 47
    },
    {
      "midi": 74,
      "hit": false,
      "t": 262572.6929999957,
      "d": 72.81550000002608,
      "v": 59
    },
    {
      "midi": 79,
      "hit": false,
      "t": 262645.50849999575,
      "d": 72.81550000002608,
      "v": 52
    },
    {
      "midi": 41,
      "hit": false,
      "t": 262718.32399999775,
      "d": 291.2619999999879,
      "v": 45
    },
    {
      "midi": 36,
      "hit": false,
      "t": 262718.32399999775,
      "d": 582.5239999999758,
      "v": 50
    },
    {
      "midi": 77,
      "hit": false,
      "t": 262791.1394999958,
      "d": 72.81550000002608,
      "v": 67
    },
    {
      "midi": 65,
      "hit": false,
      "t": 262863.9549999958,
      "d": 72.81550000002608,
      "v": 52
    },
    {
      "midi": 68,
      "hit": false,
      "t": 262863.9549999958,
      "d": 72.81550000002608,
      "v": 63
    },
    {
      "midi": 77,
      "hit": false,
      "t": 262936.77049999585,
      "d": 72.81550000002608,
      "v": 62
    },
    {
      "midi": 40,
      "hit": false,
      "t": 263009.58599999774,
      "d": 291.2619999999879,
      "v": 56
    },
    {
      "midi": 76,
      "hit": false,
      "t": 263082.4014999959,
      "d": 72.81550000002608,
      "v": 75
    },
    {
      "midi": 64,
      "hit": false,
      "t": 263155.21699999593,
      "d": 72.81550000002608,
      "v": 58
    },
    {
      "midi": 67,
      "hit": false,
      "t": 263155.21699999593,
      "d": 72.81550000002608,
      "v": 70
    },
    {
      "midi": 76,
      "hit": false,
      "t": 263228.03249999596,
      "d": 72.81550000002608,
      "v": 62
    },
    {
      "midi": 65,
      "hit": false,
      "t": 263300.847999996,
      "d": 72.81550000002608,
      "v": 50
    },
    {
      "midi": 68,
      "hit": false,
      "t": 263300.847999996,
      "d": 72.81550000002608,
      "v": 55
    },
    {
      "midi": 77,
      "hit": false,
      "t": 263300.847999996,
      "d": 72.81550000002608,
      "v": 67
    },
    {
      "midi": 41,
      "hit": false,
      "t": 263300.8479999977,
      "d": 145.63099999999395,
      "v": 63
    },
    {
      "midi": 44,
      "hit": false,
      "t": 263300.8479999977,
      "d": 145.63099999999395,
      "v": 68
    },
    {
      "midi": 48,
      "hit": false,
      "t": 263300.8479999977,
      "d": 145.63099999999395,
      "v": 67
    },
    {
      "midi": 53,
      "hit": false,
      "t": 263300.8479999977,
      "d": 145.63099999999395,
      "v": 79
    },
    {
      "midi": 60,
      "hit": false,
      "t": 263373.663499996,
      "d": 72.81550000002608,
      "v": 52
    },
    {
      "midi": 65,
      "hit": false,
      "t": 263446.47899999603,
      "d": 72.81550000002608,
      "v": 52
    },
    {
      "midi": 68,
      "hit": false,
      "t": 263519.29449999606,
      "d": 72.81550000002608,
      "v": 50
    },
    {
      "midi": 72,
      "hit": false,
      "t": 263592.1099999961,
      "d": 72.81550000002608,
      "v": 59
    },
    {
      "midi": 73,
      "hit": false,
      "t": 263664.9254999961,
      "d": 72.81550000002608,
      "v": 55
    },
    {
      "midi": 48,
      "hit": false,
      "t": 263664.92549999774,
      "d": 72.81550000002608,
      "v": 44
    },
    {
      "midi": 72,
      "hit": false,
      "t": 263737.74099999614,
      "d": 72.81550000002608,
      "v": 52
    },
    {
      "midi": 53,
      "hit": false,
      "t": 263737.74099999777,
      "d": 72.81550000002608,
      "v": 43
    },
    {
      "midi": 70,
      "hit": false,
      "t": 263810.55649999616,
      "d": 72.81550000002608,
      "v": 50
    },
    {
      "midi": 56,
      "hit": false,
      "t": 263810.5564999978,
      "d": 72.81550000002608,
      "v": 54
    },
    {
      "midi": 68,
      "hit": false,
      "t": 263883.3719999962,
      "d": 72.81550000002608,
      "v": 55
    },
    {
      "midi": 60,
      "hit": false,
      "t": 263883.3719999978,
      "d": 72.81550000002608,
      "v": 47
    },
    {
      "midi": 70,
      "hit": false,
      "t": 263956.1874999962,
      "d": 72.81550000002608,
      "v": 47
    },
    {
      "midi": 61,
      "hit": false,
      "t": 263956.18749999785,
      "d": 72.81550000002608,
      "v": 39
    },
    {
      "midi": 68,
      "hit": false,
      "t": 264029.00299999624,
      "d": 72.81550000002608,
      "v": 47
    },
    {
      "midi": 60,
      "hit": false,
      "t": 264029.0029999979,
      "d": 72.81550000002608,
      "v": 39
    },
    {
      "midi": 67,
      "hit": false,
      "t": 264101.81849999627,
      "d": 72.81550000002608,
      "v": 50
    },
    {
      "midi": 58,
      "hit": false,
      "t": 264101.8184999979,
      "d": 72.81550000002608,
      "v": 40
    },
    {
      "midi": 65,
      "hit": false,
      "t": 264174.6339999963,
      "d": 72.81550000002608,
      "v": 56
    },
    {
      "midi": 56,
      "hit": false,
      "t": 264174.6339999979,
      "d": 72.81550000002608,
      "v": 54
    },
    {
      "midi": 63,
      "hit": false,
      "t": 264247.4494999963,
      "d": 72.81550000002608,
      "v": 50
    },
    {
      "midi": 55,
      "hit": false,
      "t": 264247.44949999795,
      "d": 72.81550000002608,
      "v": 39
    },
    {
      "midi": 61,
      "hit": false,
      "t": 264320.26499999635,
      "d": 72.81550000002608,
      "v": 44
    },
    {
      "midi": 53,
      "hit": false,
      "t": 264320.264999998,
      "d": 72.81550000002608,
      "v": 51
    },
    {
      "midi": 60,
      "hit": false,
      "t": 264393.0804999964,
      "d": 72.81550000002608,
      "v": 47
    },
    {
      "midi": 51,
      "hit": false,
      "t": 264393.080499998,
      "d": 72.81550000002608,
      "v": 50
    },
    {
      "midi": 58,
      "hit": false,
      "t": 264465.8959999964,
      "d": 72.81550000002608,
      "v": 55
    },
    {
      "midi": 49,
      "hit": false,
      "t": 264465.895999998,
      "d": 72.81550000002608,
      "v": 47
    },
    {
      "midi": 56,
      "hit": false,
      "t": 264538.7114999964,
      "d": 72.81550000002608,
      "v": 62
    },
    {
      "midi": 48,
      "hit": false,
      "t": 264538.71149999805,
      "d": 72.81550000002608,
      "v": 41
    },
    {
      "midi": 55,
      "hit": false,
      "t": 264611.52699999645,
      "d": 72.81550000002608,
      "v": 50
    },
    {
      "midi": 46,
      "hit": false,
      "t": 264611.5269999981,
      "d": 72.81550000002608,
      "v": 42
    },
    {
      "midi": 53,
      "hit": false,
      "t": 264684.3424999965,
      "d": 72.81550000002608,
      "v": 60
    },
    {
      "midi": 44,
      "hit": false,
      "t": 264684.3424999981,
      "d": 72.81550000002608,
      "v": 47
    },
    {
      "midi": 52,
      "hit": false,
      "t": 264757.1579999965,
      "d": 72.81550000002608,
      "v": 56
    },
    {
      "midi": 43,
      "hit": false,
      "t": 264757.15799999813,
      "d": 72.81550000002608,
      "v": 59
    },
    {
      "midi": 44,
      "hit": false,
      "t": 264829.97349999816,
      "d": 72.81550000002608,
      "v": 58
    },
    {
      "midi": 48,
      "hit": false,
      "t": 264902.78899999656,
      "d": 72.81550000002608,
      "v": 62
    },
    {
      "midi": 52,
      "hit": false,
      "t": 264902.78899999656,
      "d": 72.81550000002608,
      "v": 70
    },
    {
      "midi": 55,
      "hit": false,
      "t": 264902.78899999656,
      "d": 72.81550000002608,
      "v": 59
    },
    {
      "midi": 58,
      "hit": false,
      "t": 264902.78899999656,
      "d": 72.81550000002608,
      "v": 63
    },
    {
      "midi": 60,
      "hit": false,
      "t": 264902.78899999656,
      "d": 72.81550000002608,
      "v": 67
    },
    {
      "midi": 46,
      "hit": false,
      "t": 264902.7889999982,
      "d": 72.81550000002608,
      "v": 54
    },
    {
      "midi": 44,
      "hit": false,
      "t": 264975.6044999982,
      "d": 72.81550000002608,
      "v": 50
    },
    {
      "midi": 48,
      "hit": false,
      "t": 265048.4199999966,
      "d": 72.81550000002608,
      "v": 44
    },
    {
      "midi": 52,
      "hit": false,
      "t": 265048.4199999966,
      "d": 72.81550000002608,
      "v": 59
    },
    {
      "midi": 58,
      "hit": false,
      "t": 265048.4199999966,
      "d": 72.81550000002608,
      "v": 55
    },
    {
      "midi": 60,
      "hit": false,
      "t": 265048.4199999966,
      "d": 72.81550000002608,
      "v": 52
    },
    {
      "midi": 43,
      "hit": false,
      "t": 265048.41999999824,
      "d": 72.81550000002608,
      "v": 52
    },
    {
      "midi": 41,
      "hit": false,
      "t": 265121.23549999826,
      "d": 72.81550000002608,
      "v": 48
    },
    {
      "midi": 48,
      "hit": false,
      "t": 265194.05099999666,
      "d": 72.81550000002608,
      "v": 44
    },
    {
      "midi": 52,
      "hit": false,
      "t": 265194.05099999666,
      "d": 72.81550000002608,
      "v": 62
    },
    {
      "midi": 58,
      "hit": false,
      "t": 265194.05099999666,
      "d": 72.81550000002608,
      "v": 58
    },
    {
      "midi": 60,
      "hit": false,
      "t": 265194.05099999666,
      "d": 72.81550000002608,
      "v": 52
    },
    {
      "midi": 40,
      "hit": false,
      "t": 265194.0509999983,
      "d": 72.81550000002608,
      "v": 56
    },
    {
      "midi": 38,
      "hit": false,
      "t": 265266.8664999983,
      "d": 72.81550000002608,
      "v": 41
    },
    {
      "midi": 48,
      "hit": false,
      "t": 265339.6819999967,
      "d": 72.81550000002608,
      "v": 41
    },
    {
      "midi": 52,
      "hit": false,
      "t": 265339.6819999967,
      "d": 72.81550000002608,
      "v": 59
    },
    {
      "midi": 58,
      "hit": false,
      "t": 265339.6819999967,
      "d": 72.81550000002608,
      "v": 55
    },
    {
      "midi": 60,
      "hit": false,
      "t": 265339.6819999967,
      "d": 72.81550000002608,
      "v": 52
    },
    {
      "midi": 36,
      "hit": false,
      "t": 265339.68199999834,
      "d": 72.81550000002608,
      "v": 36
    },
    {
      "midi": 34,
      "hit": false,
      "t": 265412.49749999837,
      "d": 72.81550000002608,
      "v": 51
    },
    {
      "midi": 48,
      "hit": false,
      "t": 265485.31299999676,
      "d": 72.81550000002608,
      "v": 50
    },
    {
      "midi": 52,
      "hit": false,
      "t": 265485.31299999676,
      "d": 72.81550000002608,
      "v": 62
    },
    {
      "midi": 58,
      "hit": false,
      "t": 265485.31299999676,
      "d": 72.81550000002608,
      "v": 63
    },
    {
      "midi": 60,
      "hit": false,
      "t": 265485.31299999676,
      "d": 72.81550000002608,
      "v": 50
    },
    {
      "midi": 32,
      "hit": false,
      "t": 265485.3129999984,
      "d": 72.81550000002608,
      "v": 47
    },
    {
      "midi": 31,
      "hit": false,
      "t": 265558.1284999984,
      "d": 72.81550000002608,
      "v": 56
    },
    {
      "midi": 48,
      "hit": false,
      "t": 265630.9439999968,
      "d": 72.81550000002608,
      "v": 70
    },
    {
      "midi": 53,
      "hit": false,
      "t": 265630.9439999968,
      "d": 72.81550000002608,
      "v": 74
    },
    {
      "midi": 56,
      "hit": false,
      "t": 265630.9439999968,
      "d": 72.81550000002608,
      "v": 78
    },
    {
      "midi": 60,
      "hit": false,
      "t": 265630.9439999968,
      "d": 72.81550000002608,
      "v": 70
    },
    {
      "midi": 29,
      "hit": false,
      "t": 265630.94399999845,
      "d": 145.63099999999395,
      "v": 60
    },
    {
      "midi": 32,
      "hit": false,
      "t": 265630.94399999845,
      "d": 145.63099999999395,
      "v": 50
    },
    {
      "midi": 36,
      "hit": false,
      "t": 265630.94399999845,
      "d": 145.63099999999395,
      "v": 47
    },
    {
      "midi": 41,
      "hit": false,
      "t": 265630.94399999845,
      "d": 145.63099999999395,
      "v": 60
    },
    {
      "midi": 72,
      "hit": false,
      "t": 265703.75949999684,
      "d": 72.81550000002608,
      "v": 56
    },
    {
      "midi": 77,
      "hit": false,
      "t": 265776.57499999687,
      "d": 72.81550000002608,
      "v": 50
    },
    {
      "midi": 80,
      "hit": false,
      "t": 265849.3904999969,
      "d": 72.81550000002608,
      "v": 63
    },
    {
      "midi": 84,
      "hit": false,
      "t": 265922.2059999969,
      "d": 72.81550000002608,
      "v": 62
    },
    {
      "midi": 85,
      "hit": false,
      "t": 265995.02149999695,
      "d": 72.81550000002608,
      "v": 58
    },
    {
      "midi": 60,
      "hit": false,
      "t": 265995.02149999846,
      "d": 72.81550000002608,
      "v": 47
    },
    {
      "midi": 84,
      "hit": false,
      "t": 266067.836999997,
      "d": 72.81550000002608,
      "v": 56
    },
    {
      "midi": 65,
      "hit": false,
      "t": 266067.8369999985,
      "d": 72.81550000002608,
      "v": 52
    },
    {
      "midi": 82,
      "hit": false,
      "t": 266140.652499997,
      "d": 72.81550000002608,
      "v": 38
    },
    {
      "midi": 68,
      "hit": false,
      "t": 266140.6524999985,
      "d": 72.81550000002608,
      "v": 63
    },
    {
      "midi": 80,
      "hit": false,
      "t": 266213.467999997,
      "d": 72.81550000002608,
      "v": 50
    },
    {
      "midi": 72,
      "hit": false,
      "t": 266213.46799999854,
      "d": 72.81550000002608,
      "v": 62
    },
    {
      "midi": 82,
      "hit": false,
      "t": 266286.28349999705,
      "d": 72.81550000002608,
      "v": 55
    },
    {
      "midi": 73,
      "hit": false,
      "t": 266286.28349999856,
      "d": 72.81550000002608,
      "v": 58
    },
    {
      "midi": 80,
      "hit": false,
      "t": 266359.0989999971,
      "d": 72.81550000002608,
      "v": 50
    },
    {
      "midi": 72,
      "hit": false,
      "t": 266359.0989999986,
      "d": 72.81550000002608,
      "v": 50
    },
    {
      "midi": 79,
      "hit": false,
      "t": 266431.9144999971,
      "d": 72.81550000002608,
      "v": 47
    },
    {
      "midi": 70,
      "hit": false,
      "t": 266431.9144999986,
      "d": 72.81550000002608,
      "v": 50
    },
    {
      "midi": 77,
      "hit": false,
      "t": 266504.72999999713,
      "d": 72.81550000002608,
      "v": 56
    },
    {
      "midi": 68,
      "hit": false,
      "t": 266504.72999999864,
      "d": 72.81550000002608,
      "v": 55
    },
    {
      "midi": 75,
      "hit": false,
      "t": 266577.54549999716,
      "d": 72.81550000002608,
      "v": 38
    },
    {
      "midi": 67,
      "hit": false,
      "t": 266577.54549999867,
      "d": 72.81550000002608,
      "v": 59
    },
    {
      "midi": 73,
      "hit": false,
      "t": 266650.3609999972,
      "d": 72.81550000002608,
      "v": 38
    },
    {
      "midi": 65,
      "hit": false,
      "t": 266650.3609999987,
      "d": 72.81550000002608,
      "v": 56
    },
    {
      "midi": 72,
      "hit": false,
      "t": 266723.1764999972,
      "d": 72.81550000002608,
      "v": 50
    },
    {
      "midi": 63,
      "hit": false,
      "t": 266723.1764999987,
      "d": 72.81550000002608,
      "v": 47
    },
    {
      "midi": 70,
      "hit": false,
      "t": 266795.99199999723,
      "d": 72.81550000002608,
      "v": 55
    },
    {
      "midi": 61,
      "hit": false,
      "t": 266795.99199999875,
      "d": 72.81550000002608,
      "v": 51
    },
    {
      "midi": 68,
      "hit": false,
      "t": 266868.80749999726,
      "d": 72.81550000002608,
      "v": 44
    },
    {
      "midi": 60,
      "hit": false,
      "t": 266868.8074999988,
      "d": 72.81550000002608,
      "v": 47
    },
    {
      "midi": 67,
      "hit": false,
      "t": 266941.6229999973,
      "d": 72.81550000002608,
      "v": 44
    },
    {
      "midi": 58,
      "hit": false,
      "t": 266941.6229999988,
      "d": 72.81550000002608,
      "v": 55
    },
    {
      "midi": 65,
      "hit": false,
      "t": 267014.4384999973,
      "d": 72.81550000002608,
      "v": 50
    },
    {
      "midi": 56,
      "hit": false,
      "t": 267014.4384999988,
      "d": 72.81550000002608,
      "v": 54
    },
    {
      "midi": 64,
      "hit": false,
      "t": 267087.25399999734,
      "d": 72.81550000002608,
      "v": 55
    },
    {
      "midi": 55,
      "hit": false,
      "t": 267087.25399999885,
      "d": 72.81550000002608,
      "v": 59
    },
    {
      "midi": 56,
      "hit": false,
      "t": 267160.0694999989,
      "d": 72.81550000002608,
      "v": 54
    },
    {
      "midi": 60,
      "hit": false,
      "t": 267232.8849999974,
      "d": 72.81550000002608,
      "v": 52
    },
    {
      "midi": 64,
      "hit": false,
      "t": 267232.8849999974,
      "d": 72.81550000002608,
      "v": 55
    },
    {
      "midi": 67,
      "hit": false,
      "t": 267232.8849999974,
      "d": 72.81550000002608,
      "v": 62
    },
    {
      "midi": 72,
      "hit": false,
      "t": 267232.8849999974,
      "d": 72.81550000002608,
      "v": 59
    },
    {
      "midi": 58,
      "hit": false,
      "t": 267232.8849999989,
      "d": 72.81550000002608,
      "v": 47
    },
    {
      "midi": 56,
      "hit": false,
      "t": 267305.70049999893,
      "d": 72.81550000002608,
      "v": 59
    },
    {
      "midi": 60,
      "hit": false,
      "t": 267378.51599999744,
      "d": 72.81550000002608,
      "v": 50
    },
    {
      "midi": 64,
      "hit": false,
      "t": 267378.51599999744,
      "d": 72.81550000002608,
      "v": 47
    },
    {
      "midi": 70,
      "hit": false,
      "t": 267378.51599999744,
      "d": 72.81550000002608,
      "v": 50
    },
    {
      "midi": 72,
      "hit": false,
      "t": 267378.51599999744,
      "d": 72.81550000002608,
      "v": 47
    },
    {
      "midi": 55,
      "hit": false,
      "t": 267378.51599999896,
      "d": 72.81550000002608,
      "v": 47
    },
    {
      "midi": 53,
      "hit": false,
      "t": 267451.331499999,
      "d": 72.81550000002608,
      "v": 48
    },
    {
      "midi": 60,
      "hit": false,
      "t": 267524.1469999975,
      "d": 72.81550000002608,
      "v": 41
    },
    {
      "midi": 64,
      "hit": false,
      "t": 267524.1469999975,
      "d": 72.81550000002608,
      "v": 49
    },
    {
      "midi": 70,
      "hit": false,
      "t": 267524.1469999975,
      "d": 72.81550000002608,
      "v": 47
    },
    {
      "midi": 72,
      "hit": false,
      "t": 267524.1469999975,
      "d": 72.81550000002608,
      "v": 44
    },
    {
      "midi": 52,
      "hit": false,
      "t": 267524.146999999,
      "d": 72.81550000002608,
      "v": 50
    },
    {
      "midi": 50,
      "hit": false,
      "t": 267596.96249999903,
      "d": 72.81550000002608,
      "v": 47
    },
    {
      "midi": 60,
      "hit": false,
      "t": 267669.77799999755,
      "d": 72.81550000002608,
      "v": 31
    },
    {
      "midi": 64,
      "hit": false,
      "t": 267669.77799999755,
      "d": 72.81550000002608,
      "v": 40
    },
    {
      "midi": 70,
      "hit": false,
      "t": 267669.77799999755,
      "d": 72.81550000002608,
      "v": 38
    },
    {
      "midi": 72,
      "hit": false,
      "t": 267669.77799999755,
      "d": 72.81550000002608,
      "v": 36
    },
    {
      "midi": 48,
      "hit": false,
      "t": 267669.77799999906,
      "d": 72.81550000002608,
      "v": 52
    },
    {
      "midi": 46,
      "hit": false,
      "t": 267742.5934999991,
      "d": 72.81550000002608,
      "v": 51
    },
    {
      "midi": 60,
      "hit": false,
      "t": 267815.4089999976,
      "d": 72.81550000002608,
      "v": 36
    },
    {
      "midi": 64,
      "hit": false,
      "t": 267815.4089999976,
      "d": 72.81550000002608,
      "v": 47
    },
    {
      "midi": 70,
      "hit": false,
      "t": 267815.4089999976,
      "d": 72.81550000002608,
      "v": 35
    },
    {
      "midi": 72,
      "hit": false,
      "t": 267815.4089999976,
      "d": 72.81550000002608,
      "v": 39
    },
    {
      "midi": 44,
      "hit": false,
      "t": 267815.4089999991,
      "d": 72.81550000002608,
      "v": 38
    },
    {
      "midi": 43,
      "hit": false,
      "t": 267888.22449999914,
      "d": 72.81550000002608,
      "v": 56
    },
    {
      "midi": 60,
      "hit": false,
      "t": 267961.03999999765,
      "d": 291.2619999999879,
      "v": 50
    },
    {
      "midi": 65,
      "hit": false,
      "t": 267961.03999999765,
      "d": 291.2619999999879,
      "v": 56
    },
    {
      "midi": 68,
      "hit": false,
      "t": 267961.03999999765,
      "d": 291.2619999999879,
      "v": 58
    },
    {
      "midi": 72,
      "hit": false,
      "t": 267961.03999999765,
      "d": 291.2619999999879,
      "v": 59
    },
    {
      "midi": 41,
      "hit": false,
      "t": 267961.03999999916,
      "d": 72.81550000002608,
      "v": 56
    },
    {
      "midi": 43,
      "hit": false,
      "t": 268033.8554999992,
      "d": 72.81550000002608,
      "v": 56
    },
    {
      "midi": 44,
      "hit": false,
      "t": 268106.6709999992,
      "d": 72.81550000002608,
      "v": 50
    },
    {
      "midi": 46,
      "hit": false,
      "t": 268179.48649999924,
      "d": 72.81550000002608,
      "v": 62
    },
    {
      "midi": 48,
      "hit": false,
      "t": 268252.30199999927,
      "d": 72.81550000002608,
      "v": 56
    },
    {
      "midi": 50,
      "hit": false,
      "t": 268325.1174999993,
      "d": 72.81550000002608,
      "v": 50
    },
    {
      "midi": 72,
      "hit": false,
      "t": 268397.93299999763,
      "d": 72.81550000002608,
      "v": 56
    },
    {
      "midi": 77,
      "hit": false,
      "t": 268397.93299999763,
      "d": 72.81550000002608,
      "v": 62
    },
    {
      "midi": 80,
      "hit": false,
      "t": 268397.93299999763,
      "d": 72.81550000002608,
      "v": 68
    },
    {
      "midi": 84,
      "hit": false,
      "t": 268397.93299999763,
      "d": 72.81550000002608,
      "v": 59
    },
    {
      "midi": 52,
      "hit": false,
      "t": 268397.9329999993,
      "d": 72.81550000002608,
      "v": 36
    },
    {
      "midi": 53,
      "hit": false,
      "t": 268470.74849999935,
      "d": 72.81550000002608,
      "v": 40
    },
    {
      "midi": 72,
      "hit": false,
      "t": 268543.5639999977,
      "d": 72.81550000002608,
      "v": 47
    },
    {
      "midi": 76,
      "hit": false,
      "t": 268543.5639999977,
      "d": 72.81550000002608,
      "v": 59
    },
    {
      "midi": 82,
      "hit": false,
      "t": 268543.5639999977,
      "d": 72.81550000002608,
      "v": 63
    },
    {
      "midi": 84,
      "hit": false,
      "t": 268543.5639999977,
      "d": 72.81550000002608,
      "v": 52
    },
    {
      "midi": 55,
      "hit": false,
      "t": 268543.5639999994,
      "d": 72.81550000002608,
      "v": 62
    },
    {
      "midi": 53,
      "hit": false,
      "t": 268616.3794999994,
      "d": 72.81550000002608,
      "v": 63
    },
    {
      "midi": 72,
      "hit": false,
      "t": 268689.19499999774,
      "d": 72.81550000002608,
      "v": 50
    },
    {
      "midi": 76,
      "hit": false,
      "t": 268689.19499999774,
      "d": 72.81550000002608,
      "v": 59
    },
    {
      "midi": 82,
      "hit": false,
      "t": 268689.19499999774,
      "d": 72.81550000002608,
      "v": 63
    },
    {
      "midi": 84,
      "hit": false,
      "t": 268689.19499999774,
      "d": 72.81550000002608,
      "v": 50
    },
    {
      "midi": 52,
      "hit": false,
      "t": 268689.1949999994,
      "d": 72.81550000002608,
      "v": 52
    },
    {
      "midi": 50,
      "hit": false,
      "t": 268762.01049999945,
      "d": 72.81550000002608,
      "v": 52
    },
    {
      "midi": 72,
      "hit": false,
      "t": 268834.8259999978,
      "d": 72.81550000002608,
      "v": 50
    },
    {
      "midi": 76,
      "hit": false,
      "t": 268834.8259999978,
      "d": 72.81550000002608,
      "v": 56
    },
    {
      "midi": 82,
      "hit": false,
      "t": 268834.8259999978,
      "d": 72.81550000002608,
      "v": 55
    },
    {
      "midi": 84,
      "hit": false,
      "t": 268834.8259999978,
      "d": 72.81550000002608,
      "v": 59
    },
    {
      "midi": 48,
      "hit": false,
      "t": 268834.8259999995,
      "d": 72.81550000002608,
      "v": 47
    },
    {
      "midi": 46,
      "hit": false,
      "t": 268907.6414999995,
      "d": 72.81550000002608,
      "v": 42
    },
    {
      "midi": 72,
      "hit": false,
      "t": 268980.45699999784,
      "d": 72.81550000002608,
      "v": 52
    },
    {
      "midi": 76,
      "hit": false,
      "t": 268980.45699999784,
      "d": 72.81550000002608,
      "v": 56
    },
    {
      "midi": 82,
      "hit": false,
      "t": 268980.45699999784,
      "d": 72.81550000002608,
      "v": 58
    },
    {
      "midi": 84,
      "hit": false,
      "t": 268980.45699999784,
      "d": 72.81550000002608,
      "v": 59
    },
    {
      "midi": 44,
      "hit": false,
      "t": 268980.45699999953,
      "d": 72.81550000002608,
      "v": 47
    },
    {
      "midi": 43,
      "hit": false,
      "t": 269053.27249999956,
      "d": 72.81550000002608,
      "v": 41
    },
    {
      "midi": 72,
      "hit": false,
      "t": 269126.0879999979,
      "d": 291.2619999999879,
      "v": 52
    },
    {
      "midi": 77,
      "hit": false,
      "t": 269126.0879999979,
      "d": 291.2619999999879,
      "v": 56
    },
    {
      "midi": 80,
      "hit": false,
      "t": 269126.0879999979,
      "d": 291.2619999999879,
      "v": 58
    },
    {
      "midi": 84,
      "hit": false,
      "t": 269126.0879999979,
      "d": 291.2619999999879,
      "v": 56
    },
    {
      "midi": 41,
      "hit": false,
      "t": 269126.0879999996,
      "d": 72.81550000002608,
      "v": 63
    },
    {
      "midi": 43,
      "hit": false,
      "t": 269198.9034999996,
      "d": 72.81550000002608,
      "v": 52
    },
    {
      "midi": 44,
      "hit": false,
      "t": 269271.71899999963,
      "d": 72.81550000002608,
      "v": 44
    },
    {
      "midi": 46,
      "hit": false,
      "t": 269344.53449999966,
      "d": 72.81550000002608,
      "v": 48
    },
    {
      "midi": 48,
      "hit": false,
      "t": 269417.3499999997,
      "d": 72.81550000002608,
      "v": 56
    },
    {
      "midi": 50,
      "hit": false,
      "t": 269490.1654999997,
      "d": 72.81550000002608,
      "v": 44
    },
    {
      "midi": 60,
      "hit": false,
      "t": 269562.9809999979,
      "d": 145.63099999999395,
      "v": 62
    },
    {
      "midi": 65,
      "hit": false,
      "t": 269562.9809999979,
      "d": 145.63099999999395,
      "v": 62
    },
    {
      "midi": 68,
      "hit": false,
      "t": 269562.9809999979,
      "d": 145.63099999999395,
      "v": 63
    },
    {
      "midi": 72,
      "hit": false,
      "t": 269562.9809999979,
      "d": 145.63099999999395,
      "v": 67
    },
    {
      "midi": 52,
      "hit": false,
      "t": 269562.98099999974,
      "d": 72.81550000002608,
      "v": 50
    },
    {
      "midi": 53,
      "hit": false,
      "t": 269635.79649999976,
      "d": 72.81550000002608,
      "v": 51
    },
    {
      "midi": 60,
      "hit": false,
      "t": 269708.61199999787,
      "d": 72.81550000002608,
      "v": 41
    },
    {
      "midi": 64,
      "hit": false,
      "t": 269708.61199999787,
      "d": 72.81550000002608,
      "v": 44
    },
    {
      "midi": 70,
      "hit": false,
      "t": 269708.61199999787,
      "d": 72.81550000002608,
      "v": 50
    },
    {
      "midi": 72,
      "hit": false,
      "t": 269708.61199999787,
      "d": 72.81550000002608,
      "v": 47
    },
    {
      "midi": 55,
      "hit": false,
      "t": 269708.6119999998,
      "d": 72.81550000002608,
      "v": 62
    },
    {
      "midi": 53,
      "hit": false,
      "t": 269781.4274999998,
      "d": 72.81550000002608,
      "v": 54
    },
    {
      "midi": 60,
      "hit": false,
      "t": 269854.2429999979,
      "d": 72.81550000002608,
      "v": 56
    },
    {
      "midi": 64,
      "hit": false,
      "t": 269854.2429999979,
      "d": 72.81550000002608,
      "v": 55
    },
    {
      "midi": 70,
      "hit": false,
      "t": 269854.2429999979,
      "d": 72.81550000002608,
      "v": 55
    },
    {
      "midi": 72,
      "hit": false,
      "t": 269854.2429999979,
      "d": 72.81550000002608,
      "v": 52
    },
    {
      "midi": 52,
      "hit": false,
      "t": 269854.24299999984,
      "d": 72.81550000002608,
      "v": 56
    },
    {
      "midi": 50,
      "hit": false,
      "t": 269927.05849999987,
      "d": 72.81550000002608,
      "v": 41
    },
    {
      "midi": 60,
      "hit": false,
      "t": 269999.873999998,
      "d": 72.81550000002608,
      "v": 52
    },
    {
      "midi": 64,
      "hit": false,
      "t": 269999.873999998,
      "d": 72.81550000002608,
      "v": 58
    },
    {
      "midi": 70,
      "hit": false,
      "t": 269999.873999998,
      "d": 72.81550000002608,
      "v": 55
    },
    {
      "midi": 72,
      "hit": false,
      "t": 269999.873999998,
      "d": 72.81550000002608,
      "v": 56
    },
    {
      "midi": 48,
      "hit": false,
      "t": 269999.8739999999,
      "d": 72.81550000002608,
      "v": 50
    },
    {
      "midi": 46,
      "hit": false,
      "t": 270072.6894999999,
      "d": 72.81550000002608,
      "v": 54
    },
    {
      "midi": 60,
      "hit": false,
      "t": 270145.504999998,
      "d": 72.81550000002608,
      "v": 52
    },
    {
      "midi": 64,
      "hit": false,
      "t": 270145.504999998,
      "d": 72.81550000002608,
      "v": 55
    },
    {
      "midi": 70,
      "hit": false,
      "t": 270145.504999998,
      "d": 72.81550000002608,
      "v": 58
    },
    {
      "midi": 72,
      "hit": false,
      "t": 270145.504999998,
      "d": 72.81550000002608,
      "v": 47
    },
    {
      "midi": 44,
      "hit": false,
      "t": 270145.50499999995,
      "d": 72.81550000002608,
      "v": 47
    },
    {
      "midi": 43,
      "hit": false,
      "t": 270218.3205,
      "d": 72.81550000002608,
      "v": 59
    },
    {
      "midi": 60,
      "hit": false,
      "t": 270291.1359999981,
      "d": 72.81550000002608,
      "v": 56
    },
    {
      "midi": 65,
      "hit": false,
      "t": 270291.1359999981,
      "d": 72.81550000002608,
      "v": 62
    },
    {
      "midi": 68,
      "hit": false,
      "t": 270291.1359999981,
      "d": 72.81550000002608,
      "v": 63
    },
    {
      "midi": 72,
      "hit": false,
      "t": 270291.1359999981,
      "d": 72.81550000002608,
      "v": 62
    },
    {
      "midi": 41,
      "hit": false,
      "t": 270291.136,
      "d": 291.2619999999879,
      "v": 63
    },
    {
      "midi": 67,
      "hit": false,
      "t": 270363.9514999981,
      "d": 72.81550000002608,
      "v": 44
    },
    {
      "midi": 68,
      "hit": false,
      "t": 270436.76699999813,
      "d": 72.81550000002608,
      "v": 47
    },
    {
      "midi": 70,
      "hit": false,
      "t": 270509.58249999816,
      "d": 72.81550000002608,
      "v": 32
    },
    {
      "midi": 72,
      "hit": false,
      "t": 270582.3979999982,
      "d": 72.81550000002608,
      "v": 34
    },
    {
      "midi": 74,
      "hit": false,
      "t": 270655.2134999982,
      "d": 72.81550000002608,
      "v": 44
    },
    {
      "midi": 76,
      "hit": false,
      "t": 270728.02899999823,
      "d": 72.81550000002608,
      "v": 47
    },
    {
      "midi": 36,
      "hit": false,
      "t": 270728.029,
      "d": 72.81550000002608,
      "v": 62
    },
    {
      "midi": 41,
      "hit": false,
      "t": 270728.029,
      "d": 72.81550000002608,
      "v": 63
    },
    {
      "midi": 44,
      "hit": false,
      "t": 270728.029,
      "d": 72.81550000002608,
      "v": 50
    },
    {
      "midi": 48,
      "hit": false,
      "t": 270728.029,
      "d": 72.81550000002608,
      "v": 52
    },
    {
      "midi": 77,
      "hit": false,
      "t": 270800.84449999826,
      "d": 72.81550000002608,
      "v": 52
    },
    {
      "midi": 79,
      "hit": false,
      "t": 270873.6599999983,
      "d": 72.81550000002608,
      "v": 70
    },
    {
      "midi": 36,
      "hit": false,
      "t": 270873.66000000003,
      "d": 72.81550000002608,
      "v": 62
    },
    {
      "midi": 40,
      "hit": false,
      "t": 270873.66000000003,
      "d": 72.81550000002608,
      "v": 67
    },
    {
      "midi": 43,
      "hit": false,
      "t": 270873.66000000003,
      "d": 72.81550000002608,
      "v": 32
    },
    {
      "midi": 46,
      "hit": false,
      "t": 270873.66000000003,
      "d": 72.81550000002608,
      "v": 62
    },
    {
      "midi": 48,
      "hit": false,
      "t": 270873.66000000003,
      "d": 72.81550000002608,
      "v": 52
    },
    {
      "midi": 77,
      "hit": false,
      "t": 270946.4754999983,
      "d": 72.81550000002608,
      "v": 50
    },
    {
      "midi": 76,
      "hit": false,
      "t": 271019.29099999834,
      "d": 72.81550000002608,
      "v": 50
    },
    {
      "midi": 36,
      "hit": false,
      "t": 271019.2910000001,
      "d": 72.81550000002608,
      "v": 59
    },
    {
      "midi": 40,
      "hit": false,
      "t": 271019.2910000001,
      "d": 72.81550000002608,
      "v": 56
    },
    {
      "midi": 43,
      "hit": false,
      "t": 271019.2910000001,
      "d": 72.81550000002608,
      "v": 41
    },
    {
      "midi": 46,
      "hit": false,
      "t": 271019.2910000001,
      "d": 72.81550000002608,
      "v": 51
    },
    {
      "midi": 48,
      "hit": false,
      "t": 271019.2910000001,
      "d": 72.81550000002608,
      "v": 50
    },
    {
      "midi": 73,
      "hit": false,
      "t": 271092.10649999836,
      "d": 72.81550000002608,
      "v": 40
    },
    {
      "midi": 72,
      "hit": false,
      "t": 271164.9219999984,
      "d": 72.81550000002608,
      "v": 52
    },
    {
      "midi": 36,
      "hit": false,
      "t": 271164.92200000014,
      "d": 72.81550000002608,
      "v": 56
    },
    {
      "midi": 40,
      "hit": false,
      "t": 271164.92200000014,
      "d": 72.81550000002608,
      "v": 56
    },
    {
      "midi": 43,
      "hit": false,
      "t": 271164.92200000014,
      "d": 72.81550000002608,
      "v": 47
    },
    {
      "midi": 46,
      "hit": false,
      "t": 271164.92200000014,
      "d": 72.81550000002608,
      "v": 48
    },
    {
      "midi": 48,
      "hit": false,
      "t": 271164.92200000014,
      "d": 72.81550000002608,
      "v": 50
    },
    {
      "midi": 70,
      "hit": false,
      "t": 271237.7374999984,
      "d": 72.81550000002608,
      "v": 44
    },
    {
      "midi": 68,
      "hit": false,
      "t": 271310.55299999844,
      "d": 72.81550000002608,
      "v": 44
    },
    {
      "midi": 36,
      "hit": false,
      "t": 271310.5530000002,
      "d": 72.81550000002608,
      "v": 47
    },
    {
      "midi": 40,
      "hit": false,
      "t": 271310.5530000002,
      "d": 72.81550000002608,
      "v": 56
    },
    {
      "midi": 43,
      "hit": false,
      "t": 271310.5530000002,
      "d": 72.81550000002608,
      "v": 50
    },
    {
      "midi": 46,
      "hit": false,
      "t": 271310.5530000002,
      "d": 72.81550000002608,
      "v": 48
    },
    {
      "midi": 48,
      "hit": false,
      "t": 271310.5530000002,
      "d": 72.81550000002608,
      "v": 47
    },
    {
      "midi": 67,
      "hit": false,
      "t": 271383.36849999847,
      "d": 72.81550000002608,
      "v": 41
    },
    {
      "midi": 65,
      "hit": false,
      "t": 271456.1839999985,
      "d": 72.81550000002608,
      "v": 59
    },
    {
      "midi": 36,
      "hit": false,
      "t": 271456.18400000024,
      "d": 291.2619999999879,
      "v": 67
    },
    {
      "midi": 41,
      "hit": false,
      "t": 271456.18400000024,
      "d": 291.2619999999879,
      "v": 63
    },
    {
      "midi": 44,
      "hit": false,
      "t": 271456.18400000024,
      "d": 291.2619999999879,
      "v": 63
    },
    {
      "midi": 48,
      "hit": false,
      "t": 271456.18400000024,
      "d": 291.2619999999879,
      "v": 62
    },
    {
      "midi": 67,
      "hit": false,
      "t": 271528.9994999985,
      "d": 72.81550000002608,
      "v": 50
    },
    {
      "midi": 68,
      "hit": false,
      "t": 271601.81499999855,
      "d": 72.81550000002608,
      "v": 55
    },
    {
      "midi": 70,
      "hit": false,
      "t": 271674.6304999986,
      "d": 72.81550000002608,
      "v": 55
    },
    {
      "midi": 72,
      "hit": false,
      "t": 271747.4459999986,
      "d": 72.81550000002608,
      "v": 56
    },
    {
      "midi": 74,
      "hit": false,
      "t": 271820.2614999986,
      "d": 72.81550000002608,
      "v": 59
    },
    {
      "midi": 76,
      "hit": false,
      "t": 271893.07699999865,
      "d": 72.81550000002608,
      "v": 62
    },
    {
      "midi": 48,
      "hit": false,
      "t": 271893.0770000002,
      "d": 72.81550000002608,
      "v": 50
    },
    {
      "midi": 53,
      "hit": false,
      "t": 271893.0770000002,
      "d": 72.81550000002608,
      "v": 56
    },
    {
      "midi": 56,
      "hit": false,
      "t": 271893.0770000002,
      "d": 72.81550000002608,
      "v": 51
    },
    {
      "midi": 60,
      "hit": false,
      "t": 271893.0770000002,
      "d": 72.81550000002608,
      "v": 47
    },
    {
      "midi": 77,
      "hit": false,
      "t": 271965.8924999987,
      "d": 72.81550000002608,
      "v": 59
    },
    {
      "midi": 77,
      "hit": false,
      "t": 272038.7079999987,
      "d": 72.81550000002608,
      "v": 23
    },
    {
      "midi": 79,
      "hit": false,
      "t": 272038.7079999987,
      "d": 72.81550000002608,
      "v": 86
    },
    {
      "midi": 48,
      "hit": false,
      "t": 272038.7080000003,
      "d": 72.81550000002608,
      "v": 59
    },
    {
      "midi": 52,
      "hit": false,
      "t": 272038.7080000003,
      "d": 72.81550000002608,
      "v": 67
    },
    {
      "midi": 55,
      "hit": false,
      "t": 272038.7080000003,
      "d": 72.81550000002608,
      "v": 47
    },
    {
      "midi": 58,
      "hit": false,
      "t": 272038.7080000003,
      "d": 72.81550000002608,
      "v": 63
    },
    {
      "midi": 60,
      "hit": false,
      "t": 272038.7080000003,
      "d": 72.81550000002608,
      "v": 59
    },
    {
      "midi": 77,
      "hit": false,
      "t": 272111.52349999873,
      "d": 72.81550000002608,
      "v": 62
    },
    {
      "midi": 76,
      "hit": false,
      "t": 272184.33899999876,
      "d": 72.81550000002608,
      "v": 50
    },
    {
      "midi": 48,
      "hit": false,
      "t": 272184.3390000003,
      "d": 72.81550000002608,
      "v": 56
    },
    {
      "midi": 52,
      "hit": false,
      "t": 272184.3390000003,
      "d": 72.81550000002608,
      "v": 52
    },
    {
      "midi": 55,
      "hit": false,
      "t": 272184.3390000003,
      "d": 72.81550000002608,
      "v": 44
    },
    {
      "midi": 58,
      "hit": false,
      "t": 272184.3390000003,
      "d": 72.81550000002608,
      "v": 55
    },
    {
      "midi": 60,
      "hit": false,
      "t": 272184.3390000003,
      "d": 72.81550000002608,
      "v": 52
    },
    {
      "midi": 73,
      "hit": false,
      "t": 272257.1544999988,
      "d": 72.81550000002608,
      "v": 63
    },
    {
      "midi": 72,
      "hit": false,
      "t": 272329.9699999988,
      "d": 72.81550000002608,
      "v": 56
    },
    {
      "midi": 48,
      "hit": false,
      "t": 272329.9700000004,
      "d": 72.81550000002608,
      "v": 52
    },
    {
      "midi": 52,
      "hit": false,
      "t": 272329.9700000004,
      "d": 72.81550000002608,
      "v": 56
    },
    {
      "midi": 55,
      "hit": false,
      "t": 272329.9700000004,
      "d": 72.81550000002608,
      "v": 47
    },
    {
      "midi": 58,
      "hit": false,
      "t": 272329.9700000004,
      "d": 72.81550000002608,
      "v": 58
    },
    {
      "midi": 60,
      "hit": false,
      "t": 272329.9700000004,
      "d": 72.81550000002608,
      "v": 52
    },
    {
      "midi": 70,
      "hit": false,
      "t": 272402.78549999883,
      "d": 72.81550000002608,
      "v": 55
    },
    {
      "midi": 68,
      "hit": false,
      "t": 272475.60099999886,
      "d": 72.81550000002608,
      "v": 50
    },
    {
      "midi": 48,
      "hit": false,
      "t": 272475.60100000043,
      "d": 72.81550000002608,
      "v": 47
    },
    {
      "midi": 52,
      "hit": false,
      "t": 272475.60100000043,
      "d": 72.81550000002608,
      "v": 56
    },
    {
      "midi": 55,
      "hit": false,
      "t": 272475.60100000043,
      "d": 72.81550000002608,
      "v": 44
    },
    {
      "midi": 58,
      "hit": false,
      "t": 272475.60100000043,
      "d": 72.81550000002608,
      "v": 58
    },
    {
      "midi": 60,
      "hit": false,
      "t": 272475.60100000043,
      "d": 72.81550000002608,
      "v": 56
    },
    {
      "midi": 67,
      "hit": false,
      "t": 272548.4164999989,
      "d": 72.81550000002608,
      "v": 41
    },
    {
      "midi": 65,
      "hit": false,
      "t": 272621.2319999989,
      "d": 72.81550000002608,
      "v": 52
    },
    {
      "midi": 48,
      "hit": false,
      "t": 272621.2320000005,
      "d": 291.2619999999879,
      "v": 62
    },
    {
      "midi": 53,
      "hit": false,
      "t": 272621.2320000005,
      "d": 291.2619999999879,
      "v": 63
    },
    {
      "midi": 56,
      "hit": false,
      "t": 272621.2320000005,
      "d": 291.2619999999879,
      "v": 62
    },
    {
      "midi": 60,
      "hit": false,
      "t": 272621.2320000005,
      "d": 291.2619999999879,
      "v": 62
    },
    {
      "midi": 67,
      "hit": false,
      "t": 272694.04749999894,
      "d": 72.81550000002608,
      "v": 47
    },
    {
      "midi": 68,
      "hit": false,
      "t": 272766.86299999896,
      "d": 72.81550000002608,
      "v": 50
    },
    {
      "midi": 70,
      "hit": false,
      "t": 272839.678499999,
      "d": 72.81550000002608,
      "v": 55
    },
    {
      "midi": 72,
      "hit": false,
      "t": 272912.493999999,
      "d": 72.81550000002608,
      "v": 56
    },
    {
      "midi": 74,
      "hit": false,
      "t": 272985.30949999904,
      "d": 72.81550000002608,
      "v": 50
    },
    {
      "midi": 76,
      "hit": false,
      "t": 273058.12499999907,
      "d": 72.81550000002608,
      "v": 52
    },
    {
      "midi": 36,
      "hit": false,
      "t": 273058.12500000047,
      "d": 72.81550000002608,
      "v": 70
    },
    {
      "midi": 41,
      "hit": false,
      "t": 273058.12500000047,
      "d": 72.81550000002608,
      "v": 66
    },
    {
      "midi": 44,
      "hit": false,
      "t": 273058.12500000047,
      "d": 72.81550000002608,
      "v": 58
    },
    {
      "midi": 48,
      "hit": false,
      "t": 273058.12500000047,
      "d": 72.81550000002608,
      "v": 70
    },
    {
      "midi": 77,
      "hit": false,
      "t": 273130.9404999991,
      "d": 72.81550000002608,
      "v": 59
    },
    {
      "midi": 79,
      "hit": false,
      "t": 273203.7559999991,
      "d": 72.81550000002608,
      "v": 70
    },
    {
      "midi": 36,
      "hit": false,
      "t": 273203.7560000005,
      "d": 72.81550000002608,
      "v": 67
    },
    {
      "midi": 40,
      "hit": false,
      "t": 273203.7560000005,
      "d": 72.81550000002608,
      "v": 67
    },
    {
      "midi": 43,
      "hit": false,
      "t": 273203.7560000005,
      "d": 72.81550000002608,
      "v": 59
    },
    {
      "midi": 46,
      "hit": false,
      "t": 273203.7560000005,
      "d": 72.81550000002608,
      "v": 67
    },
    {
      "midi": 48,
      "hit": false,
      "t": 273203.7560000005,
      "d": 72.81550000002608,
      "v": 62
    },
    {
      "midi": 78,
      "hit": false,
      "t": 273276.57149999915,
      "d": 72.81550000002608,
      "v": 63
    },
    {
      "midi": 79,
      "hit": false,
      "t": 273349.3869999992,
      "d": 72.81550000002608,
      "v": 67
    },
    {
      "midi": 36,
      "hit": false,
      "t": 273349.38700000057,
      "d": 72.81550000002608,
      "v": 67
    },
    {
      "midi": 40,
      "hit": false,
      "t": 273349.38700000057,
      "d": 72.81550000002608,
      "v": 67
    },
    {
      "midi": 43,
      "hit": false,
      "t": 273349.38700000057,
      "d": 72.81550000002608,
      "v": 56
    },
    {
      "midi": 46,
      "hit": false,
      "t": 273349.38700000057,
      "d": 72.81550000002608,
      "v": 67
    },
    {
      "midi": 48,
      "hit": false,
      "t": 273349.38700000057,
      "d": 72.81550000002608,
      "v": 56
    },
    {
      "midi": 78,
      "hit": false,
      "t": 273422.2024999992,
      "d": 72.81550000002608,
      "v": 68
    },
    {
      "midi": 79,
      "hit": false,
      "t": 273495.0179999992,
      "d": 72.81550000002608,
      "v": 62
    },
    {
      "midi": 36,
      "hit": false,
      "t": 273495.0180000006,
      "d": 72.81550000002608,
      "v": 67
    },
    {
      "midi": 40,
      "hit": false,
      "t": 273495.0180000006,
      "d": 72.81550000002608,
      "v": 70
    },
    {
      "midi": 43,
      "hit": false,
      "t": 273495.0180000006,
      "d": 72.81550000002608,
      "v": 52
    },
    {
      "midi": 46,
      "hit": false,
      "t": 273495.0180000006,
      "d": 72.81550000002608,
      "v": 67
    },
    {
      "midi": 48,
      "hit": false,
      "t": 273495.0180000006,
      "d": 72.81550000002608,
      "v": 59
    },
    {
      "midi": 78,
      "hit": false,
      "t": 273567.83349999925,
      "d": 72.81550000002608,
      "v": 74
    },
    {
      "midi": 79,
      "hit": false,
      "t": 273640.6489999993,
      "d": 72.81550000002608,
      "v": 67
    },
    {
      "midi": 36,
      "hit": false,
      "t": 273640.6490000007,
      "d": 72.81550000002608,
      "v": 67
    },
    {
      "midi": 40,
      "hit": false,
      "t": 273640.6490000007,
      "d": 72.81550000002608,
      "v": 59
    },
    {
      "midi": 43,
      "hit": false,
      "t": 273640.6490000007,
      "d": 72.81550000002608,
      "v": 52
    },
    {
      "midi": 46,
      "hit": false,
      "t": 273640.6490000007,
      "d": 72.81550000002608,
      "v": 67
    },
    {
      "midi": 48,
      "hit": false,
      "t": 273640.6490000007,
      "d": 72.81550000002608,
      "v": 59
    },
    {
      "midi": 78,
      "hit": false,
      "t": 273713.4644999993,
      "d": 72.81550000002608,
      "v": 74
    },
    {
      "midi": 79,
      "hit": false,
      "t": 273786.27999999933,
      "d": 72.81550000002608,
      "v": 75
    },
    {
      "midi": 36,
      "hit": false,
      "t": 273786.2800000007,
      "d": 72.81550000002608,
      "v": 62
    },
    {
      "midi": 40,
      "hit": false,
      "t": 273786.2800000007,
      "d": 72.81550000002608,
      "v": 70
    },
    {
      "midi": 43,
      "hit": false,
      "t": 273786.2800000007,
      "d": 72.81550000002608,
      "v": 67
    },
    {
      "midi": 46,
      "hit": false,
      "t": 273786.2800000007,
      "d": 72.81550000002608,
      "v": 72
    },
    {
      "midi": 48,
      "hit": false,
      "t": 273786.2800000007,
      "d": 72.81550000002608,
      "v": 67
    },
    {
      "midi": 78,
      "hit": false,
      "t": 273859.09549999936,
      "d": 72.81550000002608,
      "v": 68
    },
    {
      "midi": 79,
      "hit": false,
      "t": 273931.9109999994,
      "d": 72.81550000002608,
      "v": 67
    },
    {
      "midi": 36,
      "hit": false,
      "t": 273931.9110000008,
      "d": 72.81550000002608,
      "v": 62
    },
    {
      "midi": 40,
      "hit": false,
      "t": 273931.9110000008,
      "d": 72.81550000002608,
      "v": 67
    },
    {
      "midi": 43,
      "hit": false,
      "t": 273931.9110000008,
      "d": 72.81550000002608,
      "v": 62
    },
    {
      "midi": 46,
      "hit": false,
      "t": 273931.9110000008,
      "d": 72.81550000002608,
      "v": 67
    },
    {
      "midi": 48,
      "hit": false,
      "t": 273931.9110000008,
      "d": 72.81550000002608,
      "v": 67
    },
    {
      "midi": 78,
      "hit": false,
      "t": 274004.7264999994,
      "d": 72.81550000002608,
      "v": 68
    },
    {
      "midi": 79,
      "hit": false,
      "t": 274077.54199999943,
      "d": 72.81550000002608,
      "v": 62
    },
    {
      "midi": 36,
      "hit": false,
      "t": 274077.54200000083,
      "d": 72.81550000002608,
      "v": 67
    },
    {
      "midi": 40,
      "hit": false,
      "t": 274077.54200000083,
      "d": 72.81550000002608,
      "v": 62
    },
    {
      "midi": 43,
      "hit": false,
      "t": 274077.54200000083,
      "d": 72.81550000002608,
      "v": 56
    },
    {
      "midi": 46,
      "hit": false,
      "t": 274077.54200000083,
      "d": 72.81550000002608,
      "v": 67
    },
    {
      "midi": 48,
      "hit": false,
      "t": 274077.54200000083,
      "d": 72.81550000002608,
      "v": 59
    },
    {
      "midi": 78,
      "hit": false,
      "t": 274150.35749999946,
      "d": 72.81550000002608,
      "v": 74
    },
    {
      "midi": 79,
      "hit": false,
      "t": 274223.1729999995,
      "d": 72.81550000002608,
      "v": 62
    },
    {
      "midi": 36,
      "hit": false,
      "t": 274223.1730000009,
      "d": 72.81550000002608,
      "v": 67
    },
    {
      "midi": 40,
      "hit": false,
      "t": 274223.1730000009,
      "d": 72.81550000002608,
      "v": 62
    },
    {
      "midi": 43,
      "hit": false,
      "t": 274223.1730000009,
      "d": 72.81550000002608,
      "v": 59
    },
    {
      "midi": 46,
      "hit": false,
      "t": 274223.1730000009,
      "d": 72.81550000002608,
      "v": 67
    },
    {
      "midi": 48,
      "hit": false,
      "t": 274223.1730000009,
      "d": 72.81550000002608,
      "v": 56
    },
    {
      "midi": 78,
      "hit": false,
      "t": 274295.9884999995,
      "d": 72.81550000002608,
      "v": 74
    },
    {
      "midi": 79,
      "hit": false,
      "t": 274368.80399999954,
      "d": 72.81550000002608,
      "v": 80
    },
    {
      "midi": 36,
      "hit": false,
      "t": 274368.80400000094,
      "d": 72.81550000002608,
      "v": 59
    },
    {
      "midi": 40,
      "hit": false,
      "t": 274368.80400000094,
      "d": 72.81550000002608,
      "v": 62
    },
    {
      "midi": 43,
      "hit": false,
      "t": 274368.80400000094,
      "d": 72.81550000002608,
      "v": 59
    },
    {
      "midi": 46,
      "hit": false,
      "t": 274368.80400000094,
      "d": 72.81550000002608,
      "v": 67
    },
    {
      "midi": 48,
      "hit": false,
      "t": 274368.80400000094,
      "d": 72.81550000002608,
      "v": 59
    },
    {
      "midi": 77,
      "hit": false,
      "t": 274441.61949999956,
      "d": 72.81550000002608,
      "v": 70
    },
    {
      "midi": 76,
      "hit": false,
      "t": 274514.4349999996,
      "d": 72.81550000002608,
      "v": 70
    },
    {
      "midi": 36,
      "hit": false,
      "t": 274514.435000001,
      "d": 72.81550000002608,
      "v": 59
    },
    {
      "midi": 40,
      "hit": false,
      "t": 274514.435000001,
      "d": 72.81550000002608,
      "v": 62
    },
    {
      "midi": 43,
      "hit": false,
      "t": 274514.435000001,
      "d": 72.81550000002608,
      "v": 52
    },
    {
      "midi": 46,
      "hit": false,
      "t": 274514.435000001,
      "d": 72.81550000002608,
      "v": 67
    },
    {
      "midi": 48,
      "hit": false,
      "t": 274514.435000001,
      "d": 72.81550000002608,
      "v": 59
    },
    {
      "midi": 73,
      "hit": false,
      "t": 274587.2504999996,
      "d": 72.81550000002608,
      "v": 68
    },
    {
      "midi": 72,
      "hit": false,
      "t": 274660.06599999964,
      "d": 72.81550000002608,
      "v": 67
    },
    {
      "midi": 36,
      "hit": false,
      "t": 274660.06600000104,
      "d": 72.81550000002608,
      "v": 59
    },
    {
      "midi": 40,
      "hit": false,
      "t": 274660.06600000104,
      "d": 72.81550000002608,
      "v": 59
    },
    {
      "midi": 43,
      "hit": false,
      "t": 274660.06600000104,
      "d": 72.81550000002608,
      "v": 50
    },
    {
      "midi": 46,
      "hit": false,
      "t": 274660.06600000104,
      "d": 72.81550000002608,
      "v": 67
    },
    {
      "midi": 48,
      "hit": false,
      "t": 274660.06600000104,
      "d": 72.81550000002608,
      "v": 52
    },
    {
      "midi": 70,
      "hit": false,
      "t": 274732.88149999967,
      "d": 72.81550000002608,
      "v": 68
    },
    {
      "midi": 68,
      "hit": false,
      "t": 274805.6969999997,
      "d": 72.81550000002608,
      "v": 80
    },
    {
      "midi": 36,
      "hit": false,
      "t": 274805.6970000011,
      "d": 72.81550000002608,
      "v": 67
    },
    {
      "midi": 40,
      "hit": false,
      "t": 274805.6970000011,
      "d": 72.81550000002608,
      "v": 62
    },
    {
      "midi": 43,
      "hit": false,
      "t": 274805.6970000011,
      "d": 72.81550000002608,
      "v": 50
    },
    {
      "midi": 46,
      "hit": false,
      "t": 274805.6970000011,
      "d": 72.81550000002608,
      "v": 62
    },
    {
      "midi": 48,
      "hit": false,
      "t": 274805.6970000011,
      "d": 72.81550000002608,
      "v": 59
    },
    {
      "midi": 67,
      "hit": false,
      "t": 274878.5124999997,
      "d": 72.81550000002608,
      "v": 70
    },
    {
      "midi": 56,
      "hit": false,
      "t": 274951.32799999975,
      "d": 582.5239999999758,
      "v": 78
    },
    {
      "midi": 60,
      "hit": false,
      "t": 274951.32799999975,
      "d": 582.5239999999758,
      "v": 70
    },
    {
      "midi": 65,
      "hit": false,
      "t": 274951.32799999975,
      "d": 582.5239999999758,
      "v": 70
    },
    {
      "midi": 29,
      "hit": false,
      "t": 274951.32800000114,
      "d": 582.5239999999758,
      "v": 74
    },
    {
      "midi": 32,
      "hit": false,
      "t": 274951.32800000114,
      "d": 582.5239999999758,
      "v": 80
    },
    {
      "midi": 36,
      "hit": false,
      "t": 274951.32800000114,
      "d": 582.5239999999758,
      "v": 75
    },
    {
      "midi": 41,
      "hit": false,
      "t": 274951.32800000114,
      "d": 582.5239999999758,
      "v": 84
    },
    {
      "midi": 56,
      "hit": false,
      "t": 275533.8519999997,
      "d": 582.5239999999758,
      "v": 80
    },
    {
      "midi": 60,
      "hit": false,
      "t": 275533.8519999997,
      "d": 582.5239999999758,
      "v": 84
    },
    {
      "midi": 68,
      "hit": false,
      "t": 275533.8519999997,
      "d": 582.5239999999758,
      "v": 96
    },
    {
      "midi": 29,
      "hit": false,
      "t": 275533.8520000011,
      "d": 582.5239999999758,
      "v": 85
    },
    {
      "midi": 32,
      "hit": false,
      "t": 275533.8520000011,
      "d": 582.5239999999758,
      "v": 81
    },
    {
      "midi": 36,
      "hit": false,
      "t": 275533.8520000011,
      "d": 582.5239999999758,
      "v": 84
    },
    {
      "midi": 41,
      "hit": false,
      "t": 275533.8520000011,
      "d": 582.5239999999758,
      "v": 88
    },
    {
      "midi": 55,
      "hit": false,
      "t": 276116.3759999997,
      "d": 36.40775000001304,
      "v": 36
    },
    {
      "midi": 58,
      "hit": false,
      "t": 276116.3759999997,
      "d": 36.40775000001304,
      "v": 55
    },
    {
      "midi": 67,
      "hit": false,
      "t": 276116.3759999997,
      "d": 36.40775000001304,
      "v": 62
    },
    {
      "midi": 36,
      "hit": false,
      "t": 276116.3760000011,
      "d": 72.81550000002608,
      "v": 62
    },
    {
      "midi": 48,
      "hit": false,
      "t": 276116.3760000011,
      "d": 72.81550000002608,
      "v": 62
    },
    {
      "midi": 55,
      "hit": false,
      "t": 276262.0069999997,
      "d": 36.40775000001304,
      "v": 29
    },
    {
      "midi": 64,
      "hit": false,
      "t": 276262.0069999997,
      "d": 36.40775000001304,
      "v": 42
    },
    {
      "midi": 36,
      "hit": false,
      "t": 276262.00700000115,
      "d": 72.81550000002608,
      "v": 44
    },
    {
      "midi": 55,
      "hit": false,
      "t": 276407.6379999997,
      "d": 36.40775000001304,
      "v": 36
    },
    {
      "midi": 58,
      "hit": false,
      "t": 276407.6379999997,
      "d": 36.40775000001304,
      "v": 40
    },
    {
      "midi": 60,
      "hit": false,
      "t": 276407.6379999997,
      "d": 36.40775000001304,
      "v": 52
    },
    {
      "midi": 36,
      "hit": false,
      "t": 276407.6380000012,
      "d": 72.81550000002608,
      "v": 50
    },
    {
      "midi": 55,
      "hit": false,
      "t": 276553.2689999997,
      "d": 36.40775000001304,
      "v": 26
    },
    {
      "midi": 58,
      "hit": false,
      "t": 276553.2689999997,
      "d": 36.40775000001304,
      "v": 47
    },
    {
      "midi": 64,
      "hit": false,
      "t": 276553.2689999997,
      "d": 36.40775000001304,
      "v": 52
    },
    {
      "midi": 36,
      "hit": false,
      "t": 276553.26900000125,
      "d": 72.81550000002608,
      "v": 50
    },
    {
      "midi": 56,
      "hit": false,
      "t": 276698.8999999997,
      "d": 36.40775000001304,
      "v": 42
    },
    {
      "midi": 60,
      "hit": false,
      "t": 276698.8999999997,
      "d": 36.40775000001304,
      "v": 32
    },
    {
      "midi": 65,
      "hit": false,
      "t": 276698.8999999997,
      "d": 36.40775000001304,
      "v": 50
    },
    {
      "midi": 29,
      "hit": false,
      "t": 276698.9000000013,
      "d": 72.81550000002608,
      "v": 63
    },
    {
      "midi": 41,
      "hit": false,
      "t": 276698.9000000013,
      "d": 72.81550000002608,
      "v": 60
    },
    {
      "midi": 56,
      "hit": false,
      "t": 276844.53099999967,
      "d": 36.40775000001304,
      "v": 44
    },
    {
      "midi": 60,
      "hit": false,
      "t": 276844.53099999967,
      "d": 36.40775000001304,
      "v": 52
    },
    {
      "midi": 29,
      "hit": false,
      "t": 276844.53100000136,
      "d": 72.81550000002608,
      "v": 63
    },
    {
      "midi": 56,
      "hit": false,
      "t": 276990.16199999966,
      "d": 36.40775000001304,
      "v": 31
    },
    {
      "midi": 60,
      "hit": false,
      "t": 276990.16199999966,
      "d": 36.40775000001304,
      "v": 36
    },
    {
      "midi": 65,
      "hit": false,
      "t": 276990.16199999966,
      "d": 36.40775000001304,
      "v": 47
    },
    {
      "midi": 29,
      "hit": false,
      "t": 276990.1620000014,
      "d": 72.81550000002608,
      "v": 60
    },
    {
      "midi": 56,
      "hit": false,
      "t": 277135.79299999966,
      "d": 36.40775000001304,
      "v": 15
    },
    {
      "midi": 60,
      "hit": false,
      "t": 277135.79299999966,
      "d": 36.40775000001304,
      "v": 39
    },
    {
      "midi": 68,
      "hit": false,
      "t": 277135.79299999966,
      "d": 36.40775000001304,
      "v": 47
    },
    {
      "midi": 29,
      "hit": false,
      "t": 277135.79300000146,
      "d": 72.81550000002608,
      "v": 51
    },
    {
      "midi": 55,
      "hit": false,
      "t": 277281.42399999965,
      "d": 36.40775000001304,
      "v": 56
    },
    {
      "midi": 58,
      "hit": false,
      "t": 277281.42399999965,
      "d": 36.40775000001304,
      "v": 63
    },
    {
      "midi": 67,
      "hit": false,
      "t": 277281.42399999965,
      "d": 36.40775000001304,
      "v": 75
    },
    {
      "midi": 36,
      "hit": false,
      "t": 277281.4240000015,
      "d": 72.81550000002608,
      "v": 62
    },
    {
      "midi": 48,
      "hit": false,
      "t": 277281.4240000015,
      "d": 72.81550000002608,
      "v": 59
    },
    {
      "midi": 55,
      "hit": false,
      "t": 277427.05499999964,
      "d": 36.40775000001304,
      "v": 44
    },
    {
      "midi": 64,
      "hit": false,
      "t": 277427.05499999964,
      "d": 36.40775000001304,
      "v": 55
    },
    {
      "midi": 36,
      "hit": false,
      "t": 277427.05500000156,
      "d": 72.81550000002608,
      "v": 56
    },
    {
      "midi": 55,
      "hit": false,
      "t": 277572.68599999964,
      "d": 36.40775000001304,
      "v": 32
    },
    {
      "midi": 58,
      "hit": false,
      "t": 277572.68599999964,
      "d": 36.40775000001304,
      "v": 44
    },
    {
      "midi": 60,
      "hit": false,
      "t": 277572.68599999964,
      "d": 36.40775000001304,
      "v": 50
    },
    {
      "midi": 36,
      "hit": false,
      "t": 277572.6860000016,
      "d": 72.81550000002608,
      "v": 47
    },
    {
      "midi": 55,
      "hit": false,
      "t": 277718.31699999963,
      "d": 36.40775000001304,
      "v": 41
    },
    {
      "midi": 58,
      "hit": false,
      "t": 277718.31699999963,
      "d": 36.40775000001304,
      "v": 55
    },
    {
      "midi": 64,
      "hit": false,
      "t": 277718.31699999963,
      "d": 36.40775000001304,
      "v": 55
    },
    {
      "midi": 36,
      "hit": false,
      "t": 277718.31700000167,
      "d": 72.81550000002608,
      "v": 44
    },
    {
      "midi": 56,
      "hit": false,
      "t": 277863.9479999996,
      "d": 36.40775000001304,
      "v": 44
    },
    {
      "midi": 60,
      "hit": false,
      "t": 277863.9479999996,
      "d": 36.40775000001304,
      "v": 47
    },
    {
      "midi": 65,
      "hit": false,
      "t": 277863.9479999996,
      "d": 36.40775000001304,
      "v": 62
    },
    {
      "midi": 29,
      "hit": false,
      "t": 277863.9480000017,
      "d": 72.81550000002608,
      "v": 66
    },
    {
      "midi": 41,
      "hit": false,
      "t": 277863.9480000017,
      "d": 72.81550000002608,
      "v": 66
    },
    {
      "midi": 56,
      "hit": false,
      "t": 278009.5789999996,
      "d": 36.40775000001304,
      "v": 39
    },
    {
      "midi": 60,
      "hit": false,
      "t": 278009.5789999996,
      "d": 36.40775000001304,
      "v": 56
    },
    {
      "midi": 41,
      "hit": false,
      "t": 278009.5790000018,
      "d": 72.81550000002608,
      "v": 56
    },
    {
      "midi": 56,
      "hit": false,
      "t": 278155.2099999996,
      "d": 36.40775000001304,
      "v": 51
    },
    {
      "midi": 60,
      "hit": false,
      "t": 278155.2099999996,
      "d": 36.40775000001304,
      "v": 50
    },
    {
      "midi": 65,
      "hit": false,
      "t": 278155.2099999996,
      "d": 36.40775000001304,
      "v": 52
    },
    {
      "midi": 41,
      "hit": false,
      "t": 278155.2100000018,
      "d": 72.81550000002608,
      "v": 56
    },
    {
      "midi": 56,
      "hit": false,
      "t": 278300.8409999996,
      "d": 36.40775000001304,
      "v": 31
    },
    {
      "midi": 60,
      "hit": false,
      "t": 278300.8409999996,
      "d": 36.40775000001304,
      "v": 44
    },
    {
      "midi": 68,
      "hit": false,
      "t": 278300.8409999996,
      "d": 36.40775000001304,
      "v": 55
    },
    {
      "midi": 41,
      "hit": false,
      "t": 278300.8410000019,
      "d": 72.81550000002608,
      "v": 51
    },
    {
      "midi": 55,
      "hit": false,
      "t": 278446.4719999996,
      "d": 36.40775000001304,
      "v": 41
    },
    {
      "midi": 60,
      "hit": false,
      "t": 278446.4719999996,
      "d": 36.40775000001304,
      "v": 52
    },
    {
      "midi": 67,
      "hit": false,
      "t": 278446.4719999996,
      "d": 36.40775000001304,
      "v": 62
    },
    {
      "midi": 31,
      "hit": false,
      "t": 278446.47200000193,
      "d": 72.81550000002608,
      "v": 52
    },
    {
      "midi": 55,
      "hit": false,
      "t": 278592.1029999996,
      "d": 36.40775000001304,
      "v": 47
    },
    {
      "midi": 60,
      "hit": false,
      "t": 278592.1029999996,
      "d": 36.40775000001304,
      "v": 59
    },
    {
      "midi": 63,
      "hit": false,
      "t": 278592.1029999996,
      "d": 36.40775000001304,
      "v": 58
    },
    {
      "midi": 43,
      "hit": false,
      "t": 278592.103000002,
      "d": 72.81550000002608,
      "v": 52
    },
    {
      "midi": 55,
      "hit": false,
      "t": 278737.7339999996,
      "d": 36.40775000001304,
      "v": 44
    },
    {
      "midi": 59,
      "hit": false,
      "t": 278737.7339999996,
      "d": 36.40775000001304,
      "v": 60
    },
    {
      "midi": 62,
      "hit": false,
      "t": 278737.7339999996,
      "d": 36.40775000001304,
      "v": 62
    },
    {
      "midi": 31,
      "hit": false,
      "t": 278737.73400000203,
      "d": 72.81550000002608,
      "v": 52
    },
    {
      "midi": 55,
      "hit": false,
      "t": 278883.3649999996,
      "d": 36.40775000001304,
      "v": 36
    },
    {
      "midi": 59,
      "hit": false,
      "t": 278883.3649999996,
      "d": 36.40775000001304,
      "v": 60
    },
    {
      "midi": 67,
      "hit": false,
      "t": 278883.3649999996,
      "d": 36.40775000001304,
      "v": 59
    },
    {
      "midi": 31,
      "hit": false,
      "t": 278883.3650000021,
      "d": 72.81550000002608,
      "v": 59
    },
    {
      "midi": 60,
      "hit": false,
      "t": 279028.9959999996,
      "d": 291.2619999999879,
      "v": 59
    },
    {
      "midi": 36,
      "hit": false,
      "t": 279028.99600000214,
      "d": 291.2619999999879,
      "v": 62
    },
    {
      "midi": 60,
      "hit": false,
      "t": 279465.88899999956,
      "d": 48.54366666666465,
      "v": 44
    },
    {
      "midi": 36,
      "hit": false,
      "t": 279465.8890000021,
      "d": 36.40775000001304,
      "v": 62
    },
    {
      "midi": 34,
      "hit": false,
      "t": 279502.29675000213,
      "d": 36.40775000001304,
      "v": 54
    },
    {
      "midi": 62,
      "hit": false,
      "t": 279514.4326666662,
      "d": 48.54366666666465,
      "v": 29
    },
    {
      "midi": 32,
      "hit": false,
      "t": 279538.70450000215,
      "d": 36.40775000001304,
      "v": 50
    },
    {
      "midi": 64,
      "hit": false,
      "t": 279562.9763333329,
      "d": 48.54366666666465,
      "v": 40
    },
    {
      "midi": 31,
      "hit": false,
      "t": 279575.11225000216,
      "d": 36.40775000001304,
      "v": 50
    },
    {
      "midi": 56,
      "hit": false,
      "t": 279611.51999999955,
      "d": 582.5239999999758,
      "v": 78
    },
    {
      "midi": 60,
      "hit": false,
      "t": 279611.51999999955,
      "d": 582.5239999999758,
      "v": 70
    },
    {
      "midi": 65,
      "hit": false,
      "t": 279611.51999999955,
      "d": 582.5239999999758,
      "v": 70
    },
    {
      "midi": 29,
      "hit": false,
      "t": 279611.5200000022,
      "d": 582.5239999999758,
      "v": 74
    },
    {
      "midi": 32,
      "hit": false,
      "t": 279611.5200000022,
      "d": 582.5239999999758,
      "v": 80
    },
    {
      "midi": 36,
      "hit": false,
      "t": 279611.5200000022,
      "d": 582.5239999999758,
      "v": 75
    },
    {
      "midi": 41,
      "hit": false,
      "t": 279611.5200000022,
      "d": 582.5239999999758,
      "v": 84
    },
    {
      "midi": 56,
      "hit": false,
      "t": 280194.0439999995,
      "d": 582.5239999999758,
      "v": 77
    },
    {
      "midi": 60,
      "hit": false,
      "t": 280194.0439999995,
      "d": 582.5239999999758,
      "v": 80
    },
    {
      "midi": 68,
      "hit": false,
      "t": 280194.0439999995,
      "d": 582.5239999999758,
      "v": 92
    },
    {
      "midi": 29,
      "hit": false,
      "t": 280194.04400000215,
      "d": 582.5239999999758,
      "v": 81
    },
    {
      "midi": 32,
      "hit": false,
      "t": 280194.04400000215,
      "d": 582.5239999999758,
      "v": 78
    },
    {
      "midi": 36,
      "hit": false,
      "t": 280194.04400000215,
      "d": 582.5239999999758,
      "v": 80
    },
    {
      "midi": 41,
      "hit": false,
      "t": 280194.04400000215,
      "d": 582.5239999999758,
      "v": 85
    },
    {
      "midi": 55,
      "hit": false,
      "t": 280776.5679999995,
      "d": 36.40775000001304,
      "v": 36
    },
    {
      "midi": 58,
      "hit": false,
      "t": 280776.5679999995,
      "d": 36.40775000001304,
      "v": 55
    },
    {
      "midi": 67,
      "hit": false,
      "t": 280776.5679999995,
      "d": 36.40775000001304,
      "v": 62
    },
    {
      "midi": 36,
      "hit": false,
      "t": 280776.5680000021,
      "d": 72.81550000002608,
      "v": 62
    },
    {
      "midi": 48,
      "hit": false,
      "t": 280776.5680000021,
      "d": 72.81550000002608,
      "v": 62
    },
    {
      "midi": 55,
      "hit": false,
      "t": 280922.1989999995,
      "d": 36.40775000001304,
      "v": 29
    },
    {
      "midi": 64,
      "hit": false,
      "t": 280922.1989999995,
      "d": 36.40775000001304,
      "v": 42
    },
    {
      "midi": 36,
      "hit": false,
      "t": 280922.1990000022,
      "d": 72.81550000002608,
      "v": 44
    },
    {
      "midi": 55,
      "hit": false,
      "t": 281067.8299999995,
      "d": 36.40775000001304,
      "v": 36
    },
    {
      "midi": 58,
      "hit": false,
      "t": 281067.8299999995,
      "d": 36.40775000001304,
      "v": 40
    },
    {
      "midi": 60,
      "hit": false,
      "t": 281067.8299999995,
      "d": 36.40775000001304,
      "v": 52
    },
    {
      "midi": 36,
      "hit": false,
      "t": 281067.8300000022,
      "d": 72.81550000002608,
      "v": 50
    },
    {
      "midi": 55,
      "hit": false,
      "t": 281213.4609999995,
      "d": 36.40775000001304,
      "v": 26
    },
    {
      "midi": 58,
      "hit": false,
      "t": 281213.4609999995,
      "d": 36.40775000001304,
      "v": 47
    },
    {
      "midi": 64,
      "hit": false,
      "t": 281213.4609999995,
      "d": 36.40775000001304,
      "v": 52
    },
    {
      "midi": 36,
      "hit": false,
      "t": 281213.4610000023,
      "d": 72.81550000002608,
      "v": 50
    },
    {
      "midi": 56,
      "hit": false,
      "t": 281359.0919999995,
      "d": 36.40775000001304,
      "v": 42
    },
    {
      "midi": 60,
      "hit": false,
      "t": 281359.0919999995,
      "d": 36.40775000001304,
      "v": 32
    },
    {
      "midi": 65,
      "hit": false,
      "t": 281359.0919999995,
      "d": 36.40775000001304,
      "v": 50
    },
    {
      "midi": 29,
      "hit": false,
      "t": 281359.09200000233,
      "d": 72.81550000002608,
      "v": 63
    },
    {
      "midi": 41,
      "hit": false,
      "t": 281359.09200000233,
      "d": 72.81550000002608,
      "v": 60
    },
    {
      "midi": 56,
      "hit": false,
      "t": 281504.7229999995,
      "d": 36.40775000001304,
      "v": 44
    },
    {
      "midi": 60,
      "hit": false,
      "t": 281504.7229999995,
      "d": 36.40775000001304,
      "v": 52
    },
    {
      "midi": 29,
      "hit": false,
      "t": 281504.7230000024,
      "d": 72.81550000002608,
      "v": 63
    },
    {
      "midi": 56,
      "hit": false,
      "t": 281650.35399999947,
      "d": 36.40775000001304,
      "v": 31
    },
    {
      "midi": 60,
      "hit": false,
      "t": 281650.35399999947,
      "d": 36.40775000001304,
      "v": 36
    },
    {
      "midi": 65,
      "hit": false,
      "t": 281650.35399999947,
      "d": 36.40775000001304,
      "v": 47
    },
    {
      "midi": 29,
      "hit": false,
      "t": 281650.35400000244,
      "d": 72.81550000002608,
      "v": 60
    },
    {
      "midi": 56,
      "hit": false,
      "t": 281795.98499999946,
      "d": 36.40775000001304,
      "v": 15
    },
    {
      "midi": 60,
      "hit": false,
      "t": 281795.98499999946,
      "d": 36.40775000001304,
      "v": 39
    },
    {
      "midi": 68,
      "hit": false,
      "t": 281795.98499999946,
      "d": 36.40775000001304,
      "v": 47
    },
    {
      "midi": 29,
      "hit": false,
      "t": 281795.9850000025,
      "d": 72.81550000002608,
      "v": 51
    },
    {
      "midi": 55,
      "hit": false,
      "t": 281941.61599999946,
      "d": 36.40775000001304,
      "v": 56
    },
    {
      "midi": 58,
      "hit": false,
      "t": 281941.61599999946,
      "d": 36.40775000001304,
      "v": 63
    },
    {
      "midi": 67,
      "hit": false,
      "t": 281941.61599999946,
      "d": 36.40775000001304,
      "v": 75
    },
    {
      "midi": 36,
      "hit": false,
      "t": 281941.61600000254,
      "d": 72.81550000002608,
      "v": 62
    },
    {
      "midi": 48,
      "hit": false,
      "t": 281941.61600000254,
      "d": 72.81550000002608,
      "v": 59
    },
    {
      "midi": 55,
      "hit": false,
      "t": 282087.24699999945,
      "d": 36.40775000001304,
      "v": 44
    },
    {
      "midi": 64,
      "hit": false,
      "t": 282087.24699999945,
      "d": 36.40775000001304,
      "v": 55
    },
    {
      "midi": 36,
      "hit": false,
      "t": 282087.2470000026,
      "d": 72.81550000002608,
      "v": 56
    },
    {
      "midi": 55,
      "hit": false,
      "t": 282232.87799999944,
      "d": 36.40775000001304,
      "v": 32
    },
    {
      "midi": 58,
      "hit": false,
      "t": 282232.87799999944,
      "d": 36.40775000001304,
      "v": 44
    },
    {
      "midi": 60,
      "hit": false,
      "t": 282232.87799999944,
      "d": 36.40775000001304,
      "v": 50
    },
    {
      "midi": 36,
      "hit": false,
      "t": 282232.87800000265,
      "d": 72.81550000002608,
      "v": 47
    },
    {
      "midi": 55,
      "hit": false,
      "t": 282378.50899999944,
      "d": 36.40775000001304,
      "v": 41
    },
    {
      "midi": 58,
      "hit": false,
      "t": 282378.50899999944,
      "d": 36.40775000001304,
      "v": 55
    },
    {
      "midi": 64,
      "hit": false,
      "t": 282378.50899999944,
      "d": 36.40775000001304,
      "v": 55
    },
    {
      "midi": 36,
      "hit": false,
      "t": 282378.5090000027,
      "d": 72.81550000002608,
      "v": 44
    },
    {
      "midi": 56,
      "hit": false,
      "t": 282524.13999999943,
      "d": 36.40775000001304,
      "v": 44
    },
    {
      "midi": 60,
      "hit": false,
      "t": 282524.13999999943,
      "d": 36.40775000001304,
      "v": 47
    },
    {
      "midi": 65,
      "hit": false,
      "t": 282524.13999999943,
      "d": 36.40775000001304,
      "v": 62
    },
    {
      "midi": 29,
      "hit": false,
      "t": 282524.14000000275,
      "d": 72.81550000002608,
      "v": 66
    },
    {
      "midi": 41,
      "hit": false,
      "t": 282524.14000000275,
      "d": 72.81550000002608,
      "v": 66
    },
    {
      "midi": 56,
      "hit": false,
      "t": 282669.7709999994,
      "d": 36.40775000001304,
      "v": 39
    },
    {
      "midi": 60,
      "hit": false,
      "t": 282669.7709999994,
      "d": 36.40775000001304,
      "v": 56
    },
    {
      "midi": 41,
      "hit": false,
      "t": 282669.7710000028,
      "d": 72.81550000002608,
      "v": 56
    },
    {
      "midi": 56,
      "hit": false,
      "t": 282815.4019999994,
      "d": 36.40775000001304,
      "v": 51
    },
    {
      "midi": 60,
      "hit": false,
      "t": 282815.4019999994,
      "d": 36.40775000001304,
      "v": 50
    },
    {
      "midi": 65,
      "hit": false,
      "t": 282815.4019999994,
      "d": 36.40775000001304,
      "v": 52
    },
    {
      "midi": 41,
      "hit": false,
      "t": 282815.40200000285,
      "d": 72.81550000002608,
      "v": 56
    },
    {
      "midi": 56,
      "hit": false,
      "t": 282961.0329999994,
      "d": 36.40775000001304,
      "v": 31
    },
    {
      "midi": 60,
      "hit": false,
      "t": 282961.0329999994,
      "d": 36.40775000001304,
      "v": 44
    },
    {
      "midi": 68,
      "hit": false,
      "t": 282961.0329999994,
      "d": 36.40775000001304,
      "v": 55
    },
    {
      "midi": 41,
      "hit": false,
      "t": 282961.0330000029,
      "d": 72.81550000002608,
      "v": 51
    },
    {
      "midi": 55,
      "hit": false,
      "t": 283106.6639999994,
      "d": 36.40775000001304,
      "v": 41
    },
    {
      "midi": 60,
      "hit": false,
      "t": 283106.6639999994,
      "d": 36.40775000001304,
      "v": 52
    },
    {
      "midi": 67,
      "hit": false,
      "t": 283106.6639999994,
      "d": 36.40775000001304,
      "v": 62
    },
    {
      "midi": 31,
      "hit": false,
      "t": 283106.66400000296,
      "d": 72.81550000002608,
      "v": 52
    },
    {
      "midi": 55,
      "hit": false,
      "t": 283252.2949999994,
      "d": 36.40775000001304,
      "v": 47
    },
    {
      "midi": 60,
      "hit": false,
      "t": 283252.2949999994,
      "d": 36.40775000001304,
      "v": 59
    },
    {
      "midi": 63,
      "hit": false,
      "t": 283252.2949999994,
      "d": 36.40775000001304,
      "v": 58
    },
    {
      "midi": 43,
      "hit": false,
      "t": 283252.295000003,
      "d": 72.81550000002608,
      "v": 52
    },
    {
      "midi": 55,
      "hit": false,
      "t": 283397.9259999994,
      "d": 36.40775000001304,
      "v": 44
    },
    {
      "midi": 59,
      "hit": false,
      "t": 283397.9259999994,
      "d": 36.40775000001304,
      "v": 60
    },
    {
      "midi": 62,
      "hit": false,
      "t": 283397.9259999994,
      "d": 36.40775000001304,
      "v": 62
    },
    {
      "midi": 31,
      "hit": false,
      "t": 283397.92600000306,
      "d": 72.81550000002608,
      "v": 52
    },
    {
      "midi": 55,
      "hit": false,
      "t": 283543.5569999994,
      "d": 36.40775000001304,
      "v": 36
    },
    {
      "midi": 59,
      "hit": false,
      "t": 283543.5569999994,
      "d": 36.40775000001304,
      "v": 60
    },
    {
      "midi": 67,
      "hit": false,
      "t": 283543.5569999994,
      "d": 36.40775000001304,
      "v": 59
    },
    {
      "midi": 31,
      "hit": false,
      "t": 283543.5570000031,
      "d": 72.81550000002608,
      "v": 59
    },
    {
      "midi": 60,
      "hit": false,
      "t": 283684.33363333275,
      "d": 145.63099999999395,
      "v": 59
    },
    {
      "midi": 36,
      "hit": false,
      "t": 283689.18800000317,
      "d": 291.2619999999879,
      "v": 56
    },
    {
      "midi": 63,
      "hit": false,
      "t": 284121.2266333327,
      "d": 48.54366666666465,
      "v": 50
    },
    {
      "midi": 39,
      "hit": false,
      "t": 284126.08100000315,
      "d": 48.54366666666465,
      "v": 58
    },
    {
      "midi": 65,
      "hit": false,
      "t": 284169.7702999994,
      "d": 48.54366666666465,
      "v": 32
    },
    {
      "midi": 41,
      "hit": false,
      "t": 284174.6246666698,
      "d": 48.54366666666465,
      "v": 56
    },
    {
      "midi": 67,
      "hit": false,
      "t": 284218.31396666606,
      "d": 48.54366666666465,
      "v": 18
    },
    {
      "midi": 43,
      "hit": false,
      "t": 284223.1683333365,
      "d": 48.54366666666465,
      "v": 47
    },
    {
      "midi": 60,
      "hit": false,
      "t": 284266.8576333327,
      "d": 582.5239999999758,
      "v": 59
    },
    {
      "midi": 63,
      "hit": false,
      "t": 284266.8576333327,
      "d": 582.5239999999758,
      "v": 68
    },
    {
      "midi": 68,
      "hit": false,
      "t": 284266.8576333327,
      "d": 582.5239999999758,
      "v": 74
    },
    {
      "midi": 32,
      "hit": false,
      "t": 284271.71200000314,
      "d": 582.5239999999758,
      "v": 75
    },
    {
      "midi": 36,
      "hit": false,
      "t": 284271.71200000314,
      "d": 582.5239999999758,
      "v": 60
    },
    {
      "midi": 39,
      "hit": false,
      "t": 284271.71200000314,
      "d": 582.5239999999758,
      "v": 75
    },
    {
      "midi": 44,
      "hit": false,
      "t": 284271.71200000314,
      "d": 582.5239999999758,
      "v": 93
    },
    {
      "midi": 60,
      "hit": false,
      "t": 284849.3816333327,
      "d": 582.5239999999758,
      "v": 67
    },
    {
      "midi": 63,
      "hit": false,
      "t": 284849.3816333327,
      "d": 582.5239999999758,
      "v": 75
    },
    {
      "midi": 72,
      "hit": false,
      "t": 284849.3816333327,
      "d": 582.5239999999758,
      "v": 84
    },
    {
      "midi": 32,
      "hit": false,
      "t": 284854.2360000031,
      "d": 582.5239999999758,
      "v": 97
    },
    {
      "midi": 36,
      "hit": false,
      "t": 284854.2360000031,
      "d": 582.5239999999758,
      "v": 72
    },
    {
      "midi": 39,
      "hit": false,
      "t": 284854.2360000031,
      "d": 582.5239999999758,
      "v": 90
    },
    {
      "midi": 44,
      "hit": false,
      "t": 284854.2360000031,
      "d": 582.5239999999758,
      "v": 111
    },
    {
      "midi": 58,
      "hit": false,
      "t": 285431.9056333327,
      "d": 72.81550000002608,
      "v": 57
    },
    {
      "midi": 61,
      "hit": false,
      "t": 285431.9056333327,
      "d": 72.81550000002608,
      "v": 73
    },
    {
      "midi": 70,
      "hit": false,
      "t": 285431.9056333327,
      "d": 72.81550000002608,
      "v": 82
    },
    {
      "midi": 39,
      "hit": false,
      "t": 285436.7600000031,
      "d": 72.81550000002608,
      "v": 58
    },
    {
      "midi": 51,
      "hit": false,
      "t": 285436.7600000031,
      "d": 72.81550000002608,
      "v": 47
    },
    {
      "midi": 58,
      "hit": false,
      "t": 285577.5366333327,
      "d": 72.81550000002608,
      "v": 24
    },
    {
      "midi": 61,
      "hit": false,
      "t": 285577.5366333327,
      "d": 72.81550000002608,
      "v": 23
    },
    {
      "midi": 67,
      "hit": false,
      "t": 285577.5366333327,
      "d": 72.81550000002608,
      "v": 41
    },
    {
      "midi": 39,
      "hit": false,
      "t": 285582.39100000315,
      "d": 72.81550000002608,
      "v": 58
    },
    {
      "midi": 58,
      "hit": false,
      "t": 285723.1676333328,
      "d": 72.81550000002608,
      "v": 47
    },
    {
      "midi": 61,
      "hit": false,
      "t": 285723.1676333328,
      "d": 72.81550000002608,
      "v": 36
    },
    {
      "midi": 63,
      "hit": false,
      "t": 285723.1676333328,
      "d": 72.81550000002608,
      "v": 44
    },
    {
      "midi": 39,
      "hit": false,
      "t": 285728.0220000032,
      "d": 72.81550000002608,
      "v": 50
    },
    {
      "midi": 58,
      "hit": false,
      "t": 285868.79863333283,
      "d": 72.81550000002608,
      "v": 27
    },
    {
      "midi": 61,
      "hit": false,
      "t": 285868.79863333283,
      "d": 72.81550000002608,
      "v": 44
    },
    {
      "midi": 67,
      "hit": false,
      "t": 285868.79863333283,
      "d": 72.81550000002608,
      "v": 50
    },
    {
      "midi": 39,
      "hit": false,
      "t": 285873.65300000325,
      "d": 72.81550000002608,
      "v": 50
    },
    {
      "midi": 60,
      "hit": false,
      "t": 286014.4296333329,
      "d": 72.81550000002608,
      "v": 31
    },
    {
      "midi": 63,
      "hit": false,
      "t": 286014.4296333329,
      "d": 72.81550000002608,
      "v": 50
    },
    {
      "midi": 68,
      "hit": false,
      "t": 286014.4296333329,
      "d": 72.81550000002608,
      "v": 55
    },
    {
      "midi": 32,
      "hit": false,
      "t": 286019.2840000033,
      "d": 72.81550000002608,
      "v": 63
    },
    {
      "midi": 44,
      "hit": false,
      "t": 286019.2840000033,
      "d": 72.81550000002608,
      "v": 67
    },
    {
      "midi": 60,
      "hit": false,
      "t": 286160.06063333293,
      "d": 72.81550000002608,
      "v": 47
    },
    {
      "midi": 63,
      "hit": false,
      "t": 286160.06063333293,
      "d": 72.81550000002608,
      "v": 50
    },
    {
      "midi": 44,
      "hit": false,
      "t": 286164.91500000336,
      "d": 72.81550000002608,
      "v": 44
    },
    {
      "midi": 60,
      "hit": false,
      "t": 286305.691633333,
      "d": 72.81550000002608,
      "v": 47
    },
    {
      "midi": 63,
      "hit": false,
      "t": 286305.691633333,
      "d": 72.81550000002608,
      "v": 58
    },
    {
      "midi": 68,
      "hit": false,
      "t": 286305.691633333,
      "d": 72.81550000002608,
      "v": 58
    },
    {
      "midi": 44,
      "hit": false,
      "t": 286310.5460000034,
      "d": 72.81550000002608,
      "v": 36
    },
    {
      "midi": 60,
      "hit": false,
      "t": 286451.32263333304,
      "d": 72.81550000002608,
      "v": 18
    },
    {
      "midi": 63,
      "hit": false,
      "t": 286451.32263333304,
      "d": 72.81550000002608,
      "v": 55
    },
    {
      "midi": 72,
      "hit": false,
      "t": 286451.32263333304,
      "d": 72.81550000002608,
      "v": 56
    },
    {
      "midi": 44,
      "hit": false,
      "t": 286456.17700000346,
      "d": 72.81550000002608,
      "v": 44
    },
    {
      "midi": 58,
      "hit": false,
      "t": 286596.9536333331,
      "d": 72.81550000002608,
      "v": 50
    },
    {
      "midi": 61,
      "hit": false,
      "t": 286596.9536333331,
      "d": 72.81550000002608,
      "v": 51
    },
    {
      "midi": 70,
      "hit": false,
      "t": 286596.9536333331,
      "d": 72.81550000002608,
      "v": 68
    },
    {
      "midi": 39,
      "hit": false,
      "t": 286601.8080000035,
      "d": 72.81550000002608,
      "v": 68
    },
    {
      "midi": 51,
      "hit": false,
      "t": 286601.8080000035,
      "d": 72.81550000002608,
      "v": 63
    },
    {
      "midi": 58,
      "hit": false,
      "t": 286742.58463333314,
      "d": 72.81550000002608,
      "v": 40
    },
    {
      "midi": 61,
      "hit": false,
      "t": 286742.58463333314,
      "d": 72.81550000002608,
      "v": 39
    },
    {
      "midi": 67,
      "hit": false,
      "t": 286742.58463333314,
      "d": 72.81550000002608,
      "v": 56
    },
    {
      "midi": 39,
      "hit": false,
      "t": 286747.43900000356,
      "d": 72.81550000002608,
      "v": 44
    },
    {
      "midi": 58,
      "hit": false,
      "t": 286888.2156333332,
      "d": 72.81550000002608,
      "v": 35
    },
    {
      "midi": 61,
      "hit": false,
      "t": 286888.2156333332,
      "d": 72.81550000002608,
      "v": 33
    },
    {
      "midi": 63,
      "hit": false,
      "t": 286888.2156333332,
      "d": 72.81550000002608,
      "v": 47
    },
    {
      "midi": 39,
      "hit": false,
      "t": 286893.0700000036,
      "d": 72.81550000002608,
      "v": 47
    },
    {
      "midi": 58,
      "hit": false,
      "t": 287033.84663333325,
      "d": 72.81550000002608,
      "v": 24
    },
    {
      "midi": 61,
      "hit": false,
      "t": 287033.84663333325,
      "d": 72.81550000002608,
      "v": 51
    },
    {
      "midi": 67,
      "hit": false,
      "t": 287033.84663333325,
      "d": 72.81550000002608,
      "v": 52
    },
    {
      "midi": 39,
      "hit": false,
      "t": 287038.70100000367,
      "d": 72.81550000002608,
      "v": 50
    },
    {
      "midi": 60,
      "hit": false,
      "t": 287179.4776333333,
      "d": 72.81550000002608,
      "v": 59
    },
    {
      "midi": 63,
      "hit": false,
      "t": 287179.4776333333,
      "d": 72.81550000002608,
      "v": 58
    },
    {
      "midi": 68,
      "hit": false,
      "t": 287179.4776333333,
      "d": 72.81550000002608,
      "v": 68
    },
    {
      "midi": 32,
      "hit": false,
      "t": 287184.3320000037,
      "d": 72.81550000002608,
      "v": 63
    },
    {
      "midi": 44,
      "hit": false,
      "t": 287184.3320000037,
      "d": 72.81550000002608,
      "v": 67
    },
    {
      "midi": 60,
      "hit": false,
      "t": 287325.10863333335,
      "d": 72.81550000002608,
      "v": 41
    },
    {
      "midi": 63,
      "hit": false,
      "t": 287325.10863333335,
      "d": 72.81550000002608,
      "v": 58
    },
    {
      "midi": 44,
      "hit": false,
      "t": 287329.9630000038,
      "d": 72.81550000002608,
      "v": 42
    },
    {
      "midi": 60,
      "hit": false,
      "t": 287470.7396333334,
      "d": 72.81550000002608,
      "v": 47
    },
    {
      "midi": 63,
      "hit": false,
      "t": 287470.7396333334,
      "d": 72.81550000002608,
      "v": 50
    },
    {
      "midi": 68,
      "hit": false,
      "t": 287470.7396333334,
      "d": 72.81550000002608,
      "v": 55
    },
    {
      "midi": 44,
      "hit": false,
      "t": 287475.5940000038,
      "d": 72.81550000002608,
      "v": 51
    },
    {
      "midi": 60,
      "hit": false,
      "t": 287616.37063333346,
      "d": 72.81550000002608,
      "v": 31
    },
    {
      "midi": 63,
      "hit": false,
      "t": 287616.37063333346,
      "d": 72.81550000002608,
      "v": 50
    },
    {
      "midi": 72,
      "hit": false,
      "t": 287616.37063333346,
      "d": 72.81550000002608,
      "v": 52
    },
    {
      "midi": 44,
      "hit": false,
      "t": 287621.2250000039,
      "d": 72.81550000002608,
      "v": 33
    },
    {
      "midi": 60,
      "hit": false,
      "t": 287762.0016333335,
      "d": 72.81550000002608,
      "v": 52
    },
    {
      "midi": 63,
      "hit": false,
      "t": 287762.0016333335,
      "d": 72.81550000002608,
      "v": 55
    },
    {
      "midi": 69,
      "hit": false,
      "t": 287762.0016333335,
      "d": 72.81550000002608,
      "v": 67
    },
    {
      "midi": 29,
      "hit": false,
      "t": 287766.8560000039,
      "d": 72.81550000002608,
      "v": 71
    },
    {
      "midi": 41,
      "hit": false,
      "t": 287766.8560000039,
      "d": 72.81550000002608,
      "v": 54
    },
    {
      "midi": 60,
      "hit": false,
      "t": 287907.63263333356,
      "d": 72.81550000002608,
      "v": 44
    },
    {
      "midi": 63,
      "hit": false,
      "t": 287907.63263333356,
      "d": 72.81550000002608,
      "v": 55
    },
    {
      "midi": 65,
      "hit": false,
      "t": 287907.63263333356,
      "d": 72.81550000002608,
      "v": 50
    },
    {
      "midi": 29,
      "hit": false,
      "t": 287912.487000004,
      "d": 72.81550000002608,
      "v": 63
    },
    {
      "midi": 60,
      "hit": false,
      "t": 288053.2636333336,
      "d": 72.81550000002608,
      "v": 32
    },
    {
      "midi": 63,
      "hit": false,
      "t": 288053.2636333336,
      "d": 72.81550000002608,
      "v": 58
    },
    {
      "midi": 69,
      "hit": false,
      "t": 288053.2636333336,
      "d": 72.81550000002608,
      "v": 59
    },
    {
      "midi": 29,
      "hit": false,
      "t": 288058.11800000403,
      "d": 72.81550000002608,
      "v": 63
    },
    {
      "midi": 60,
      "hit": false,
      "t": 288198.89463333366,
      "d": 72.81550000002608,
      "v": 31
    },
    {
      "midi": 63,
      "hit": false,
      "t": 288198.89463333366,
      "d": 72.81550000002608,
      "v": 50
    },
    {
      "midi": 72,
      "hit": false,
      "t": 288198.89463333366,
      "d": 72.81550000002608,
      "v": 56
    },
    {
      "midi": 29,
      "hit": false,
      "t": 288203.7490000041,
      "d": 72.81550000002608,
      "v": 51
    },
    {
      "midi": 61,
      "hit": false,
      "t": 288344.5256333337,
      "d": 72.81550000002608,
      "v": 17
    },
    {
      "midi": 65,
      "hit": false,
      "t": 288344.5256333337,
      "d": 72.81550000002608,
      "v": 34
    },
    {
      "midi": 70,
      "hit": false,
      "t": 288344.5256333337,
      "d": 72.81550000002608,
      "v": 47
    },
    {
      "midi": 34,
      "hit": false,
      "t": 288349.38000000414,
      "d": 72.81550000002608,
      "v": 67
    },
    {
      "midi": 46,
      "hit": false,
      "t": 288349.38000000414,
      "d": 72.81550000002608,
      "v": 55
    },
    {
      "midi": 61,
      "hit": false,
      "t": 288490.15663333377,
      "d": 72.81550000002608,
      "v": 36
    },
    {
      "midi": 65,
      "hit": false,
      "t": 288490.15663333377,
      "d": 72.81550000002608,
      "v": 44
    },
    {
      "midi": 46,
      "hit": false,
      "t": 288495.0110000042,
      "d": 72.81550000002608,
      "v": 58
    },
    {
      "midi": 61,
      "hit": false,
      "t": 288635.7876333338,
      "d": 72.81550000002608,
      "v": 31
    },
    {
      "midi": 65,
      "hit": false,
      "t": 288635.7876333338,
      "d": 72.81550000002608,
      "v": 44
    },
    {
      "midi": 70,
      "hit": false,
      "t": 288635.7876333338,
      "d": 72.81550000002608,
      "v": 58
    },
    {
      "midi": 46,
      "hit": false,
      "t": 288640.64200000424,
      "d": 72.81550000002608,
      "v": 55
    },
    {
      "midi": 61,
      "hit": false,
      "t": 288781.4186333339,
      "d": 72.81550000002608,
      "v": 21
    },
    {
      "midi": 65,
      "hit": false,
      "t": 288781.4186333339,
      "d": 72.81550000002608,
      "v": 32
    },
    {
      "midi": 73,
      "hit": false,
      "t": 288781.4186333339,
      "d": 72.81550000002608,
      "v": 50
    },
    {
      "midi": 46,
      "hit": false,
      "t": 288786.2730000043,
      "d": 72.81550000002608,
      "v": 44
    },
    {
      "midi": 60,
      "hit": false,
      "t": 288927.0496333339,
      "d": 72.81550000002608,
      "v": 56
    },
    {
      "midi": 65,
      "hit": false,
      "t": 288927.0496333339,
      "d": 72.81550000002608,
      "v": 62
    },
    {
      "midi": 72,
      "hit": false,
      "t": 288927.0496333339,
      "d": 72.81550000002608,
      "v": 62
    },
    {
      "midi": 36,
      "hit": false,
      "t": 288931.90400000435,
      "d": 72.81550000002608,
      "v": 52
    },
    {
      "midi": 60,
      "hit": false,
      "t": 289072.680633334,
      "d": 72.81550000002608,
      "v": 39
    },
    {
      "midi": 65,
      "hit": false,
      "t": 289072.680633334,
      "d": 72.81550000002608,
      "v": 56
    },
    {
      "midi": 68,
      "hit": false,
      "t": 289072.680633334,
      "d": 72.81550000002608,
      "v": 55
    },
    {
      "midi": 48,
      "hit": false,
      "t": 289077.5350000044,
      "d": 72.81550000002608,
      "v": 39
    },
    {
      "midi": 60,
      "hit": false,
      "t": 289218.31163333403,
      "d": 72.81550000002608,
      "v": 41
    },
    {
      "midi": 64,
      "hit": false,
      "t": 289218.31163333403,
      "d": 72.81550000002608,
      "v": 44
    },
    {
      "midi": 67,
      "hit": false,
      "t": 289218.31163333403,
      "d": 72.81550000002608,
      "v": 56
    },
    {
      "midi": 36,
      "hit": false,
      "t": 289223.16600000445,
      "d": 72.81550000002608,
      "v": 50
    },
    {
      "midi": 60,
      "hit": false,
      "t": 289363.9426333341,
      "d": 72.81550000002608,
      "v": 31
    },
    {
      "midi": 64,
      "hit": false,
      "t": 289363.9426333341,
      "d": 72.81550000002608,
      "v": 49
    },
    {
      "midi": 72,
      "hit": false,
      "t": 289363.9426333341,
      "d": 72.81550000002608,
      "v": 56
    },
    {
      "midi": 36,
      "hit": false,
      "t": 289368.7970000045,
      "d": 72.81550000002608,
      "v": 62
    },
    {
      "midi": 65,
      "hit": false,
      "t": 289509.57363333413,
      "d": 291.2619999999879,
      "v": 70
    },
    {
      "midi": 29,
      "hit": false,
      "t": 289514.42800000455,
      "d": 291.2619999999879,
      "v": 60
    },
    {
      "midi": 41,
      "hit": false,
      "t": 289514.42800000455,
      "d": 291.2619999999879,
      "v": 51
    },
    {
      "midi": 63,
      "hit": false,
      "t": 289946.4666333341,
      "d": 48.54366666666465,
      "v": 55
    },
    {
      "midi": 39,
      "hit": false,
      "t": 289951.32100000454,
      "d": 48.54366666666465,
      "v": 55
    },
    {
      "midi": 65,
      "hit": false,
      "t": 289995.0103000008,
      "d": 48.54366666666465,
      "v": 50
    },
    {
      "midi": 41,
      "hit": false,
      "t": 289999.8646666712,
      "d": 48.54366666666465,
      "v": 56
    },
    {
      "midi": 67,
      "hit": false,
      "t": 290043.55396666744,
      "d": 48.54366666666465,
      "v": 41
    },
    {
      "midi": 43,
      "hit": false,
      "t": 290048.40833333787,
      "d": 48.54366666666465,
      "v": 39
    },
    {
      "midi": 60,
      "hit": false,
      "t": 290096.9520000008,
      "d": 577.6696333333384,
      "v": 70
    },
    {
      "midi": 63,
      "hit": false,
      "t": 290096.9520000008,
      "d": 577.6696333333384,
      "v": 81
    },
    {
      "midi": 68,
      "hit": false,
      "t": 290096.9520000008,
      "d": 577.6696333333384,
      "v": 88
    },
    {
      "midi": 32,
      "hit": false,
      "t": 290096.95200000453,
      "d": 582.5239999999758,
      "v": 75
    },
    {
      "midi": 36,
      "hit": false,
      "t": 290096.95200000453,
      "d": 582.5239999999758,
      "v": 60
    },
    {
      "midi": 39,
      "hit": false,
      "t": 290096.95200000453,
      "d": 582.5239999999758,
      "v": 75
    },
    {
      "midi": 44,
      "hit": false,
      "t": 290096.95200000453,
      "d": 582.5239999999758,
      "v": 93
    },
    {
      "midi": 60,
      "hit": false,
      "t": 290674.62163333414,
      "d": 582.5239999999758,
      "v": 67
    },
    {
      "midi": 63,
      "hit": false,
      "t": 290674.62163333414,
      "d": 582.5239999999758,
      "v": 75
    },
    {
      "midi": 72,
      "hit": false,
      "t": 290674.62163333414,
      "d": 582.5239999999758,
      "v": 84
    },
    {
      "midi": 32,
      "hit": false,
      "t": 290679.4760000045,
      "d": 582.5239999999758,
      "v": 81
    },
    {
      "midi": 36,
      "hit": false,
      "t": 290679.4760000045,
      "d": 582.5239999999758,
      "v": 60
    },
    {
      "midi": 39,
      "hit": false,
      "t": 290679.4760000045,
      "d": 582.5239999999758,
      "v": 75
    },
    {
      "midi": 44,
      "hit": false,
      "t": 290679.4760000045,
      "d": 582.5239999999758,
      "v": 93
    },
    {
      "midi": 58,
      "hit": false,
      "t": 291257.1456333341,
      "d": 72.81550000002608,
      "v": 48
    },
    {
      "midi": 61,
      "hit": false,
      "t": 291257.1456333341,
      "d": 72.81550000002608,
      "v": 61
    },
    {
      "midi": 70,
      "hit": false,
      "t": 291257.1456333341,
      "d": 72.81550000002608,
      "v": 69
    },
    {
      "midi": 39,
      "hit": false,
      "t": 291262.0000000045,
      "d": 72.81550000002608,
      "v": 58
    },
    {
      "midi": 51,
      "hit": false,
      "t": 291262.0000000045,
      "d": 72.81550000002608,
      "v": 47
    },
    {
      "midi": 58,
      "hit": false,
      "t": 291402.7766333342,
      "d": 72.81550000002608,
      "v": 24
    },
    {
      "midi": 61,
      "hit": false,
      "t": 291402.7766333342,
      "d": 72.81550000002608,
      "v": 23
    },
    {
      "midi": 67,
      "hit": false,
      "t": 291402.7766333342,
      "d": 72.81550000002608,
      "v": 41
    },
    {
      "midi": 39,
      "hit": false,
      "t": 291407.63100000453,
      "d": 72.81550000002608,
      "v": 58
    },
    {
      "midi": 58,
      "hit": false,
      "t": 291548.4076333342,
      "d": 72.81550000002608,
      "v": 47
    },
    {
      "midi": 61,
      "hit": false,
      "t": 291548.4076333342,
      "d": 72.81550000002608,
      "v": 36
    },
    {
      "midi": 63,
      "hit": false,
      "t": 291548.4076333342,
      "d": 72.81550000002608,
      "v": 44
    },
    {
      "midi": 39,
      "hit": false,
      "t": 291553.2620000046,
      "d": 72.81550000002608,
      "v": 50
    },
    {
      "midi": 58,
      "hit": false,
      "t": 291694.0386333343,
      "d": 72.81550000002608,
      "v": 27
    },
    {
      "midi": 61,
      "hit": false,
      "t": 291694.0386333343,
      "d": 72.81550000002608,
      "v": 44
    },
    {
      "midi": 67,
      "hit": false,
      "t": 291694.0386333343,
      "d": 72.81550000002608,
      "v": 50
    },
    {
      "midi": 39,
      "hit": false,
      "t": 291698.89300000464,
      "d": 72.81550000002608,
      "v": 50
    },
    {
      "midi": 60,
      "hit": false,
      "t": 291839.6696333343,
      "d": 72.81550000002608,
      "v": 31
    },
    {
      "midi": 63,
      "hit": false,
      "t": 291839.6696333343,
      "d": 72.81550000002608,
      "v": 50
    },
    {
      "midi": 68,
      "hit": false,
      "t": 291839.6696333343,
      "d": 72.81550000002608,
      "v": 55
    },
    {
      "midi": 32,
      "hit": false,
      "t": 291844.5240000047,
      "d": 72.81550000002608,
      "v": 63
    },
    {
      "midi": 44,
      "hit": false,
      "t": 291844.5240000047,
      "d": 72.81550000002608,
      "v": 67
    },
    {
      "midi": 60,
      "hit": false,
      "t": 291985.3006333344,
      "d": 72.81550000002608,
      "v": 47
    },
    {
      "midi": 63,
      "hit": false,
      "t": 291985.3006333344,
      "d": 72.81550000002608,
      "v": 50
    },
    {
      "midi": 44,
      "hit": false,
      "t": 291990.15500000474,
      "d": 72.81550000002608,
      "v": 44
    },
    {
      "midi": 60,
      "hit": false,
      "t": 292130.93163333443,
      "d": 72.81550000002608,
      "v": 47
    },
    {
      "midi": 63,
      "hit": false,
      "t": 292130.93163333443,
      "d": 72.81550000002608,
      "v": 58
    },
    {
      "midi": 68,
      "hit": false,
      "t": 292130.93163333443,
      "d": 72.81550000002608,
      "v": 58
    },
    {
      "midi": 44,
      "hit": false,
      "t": 292135.7860000048,
      "d": 72.81550000002608,
      "v": 36
    },
    {
      "midi": 60,
      "hit": false,
      "t": 292276.5626333345,
      "d": 72.81550000002608,
      "v": 18
    },
    {
      "midi": 63,
      "hit": false,
      "t": 292276.5626333345,
      "d": 72.81550000002608,
      "v": 55
    },
    {
      "midi": 72,
      "hit": false,
      "t": 292276.5626333345,
      "d": 72.81550000002608,
      "v": 56
    },
    {
      "midi": 44,
      "hit": false,
      "t": 292281.41700000485,
      "d": 72.81550000002608,
      "v": 44
    },
    {
      "midi": 58,
      "hit": false,
      "t": 292422.19363333454,
      "d": 72.81550000002608,
      "v": 50
    },
    {
      "midi": 61,
      "hit": false,
      "t": 292422.19363333454,
      "d": 72.81550000002608,
      "v": 51
    },
    {
      "midi": 70,
      "hit": false,
      "t": 292422.19363333454,
      "d": 72.81550000002608,
      "v": 68
    },
    {
      "midi": 39,
      "hit": false,
      "t": 292427.0480000049,
      "d": 72.81550000002608,
      "v": 68
    },
    {
      "midi": 51,
      "hit": false,
      "t": 292427.0480000049,
      "d": 72.81550000002608,
      "v": 63
    },
    {
      "midi": 58,
      "hit": false,
      "t": 292567.8246333346,
      "d": 72.81550000002608,
      "v": 40
    },
    {
      "midi": 61,
      "hit": false,
      "t": 292567.8246333346,
      "d": 72.81550000002608,
      "v": 39
    },
    {
      "midi": 67,
      "hit": false,
      "t": 292567.8246333346,
      "d": 72.81550000002608,
      "v": 56
    },
    {
      "midi": 39,
      "hit": false,
      "t": 292572.67900000495,
      "d": 72.81550000002608,
      "v": 44
    },
    {
      "midi": 58,
      "hit": false,
      "t": 292713.45563333464,
      "d": 72.81550000002608,
      "v": 35
    },
    {
      "midi": 61,
      "hit": false,
      "t": 292713.45563333464,
      "d": 72.81550000002608,
      "v": 33
    },
    {
      "midi": 63,
      "hit": false,
      "t": 292713.45563333464,
      "d": 72.81550000002608,
      "v": 47
    },
    {
      "midi": 39,
      "hit": false,
      "t": 292718.310000005,
      "d": 72.81550000002608,
      "v": 47
    },
    {
      "midi": 58,
      "hit": false,
      "t": 292859.0866333347,
      "d": 72.81550000002608,
      "v": 24
    },
    {
      "midi": 61,
      "hit": false,
      "t": 292859.0866333347,
      "d": 72.81550000002608,
      "v": 51
    },
    {
      "midi": 67,
      "hit": false,
      "t": 292859.0866333347,
      "d": 72.81550000002608,
      "v": 52
    },
    {
      "midi": 39,
      "hit": false,
      "t": 292863.94100000506,
      "d": 72.81550000002608,
      "v": 50
    },
    {
      "midi": 60,
      "hit": false,
      "t": 293004.71763333475,
      "d": 72.81550000002608,
      "v": 59
    },
    {
      "midi": 63,
      "hit": false,
      "t": 293004.71763333475,
      "d": 72.81550000002608,
      "v": 58
    },
    {
      "midi": 68,
      "hit": false,
      "t": 293004.71763333475,
      "d": 72.81550000002608,
      "v": 68
    },
    {
      "midi": 32,
      "hit": false,
      "t": 293009.5720000051,
      "d": 72.81550000002608,
      "v": 63
    },
    {
      "midi": 44,
      "hit": false,
      "t": 293009.5720000051,
      "d": 72.81550000002608,
      "v": 67
    },
    {
      "midi": 60,
      "hit": false,
      "t": 293150.3486333348,
      "d": 72.81550000002608,
      "v": 41
    },
    {
      "midi": 63,
      "hit": false,
      "t": 293150.3486333348,
      "d": 72.81550000002608,
      "v": 58
    },
    {
      "midi": 44,
      "hit": false,
      "t": 293155.20300000516,
      "d": 72.81550000002608,
      "v": 42
    },
    {
      "midi": 60,
      "hit": false,
      "t": 293295.97963333485,
      "d": 72.81550000002608,
      "v": 47
    },
    {
      "midi": 63,
      "hit": false,
      "t": 293295.97963333485,
      "d": 72.81550000002608,
      "v": 50
    },
    {
      "midi": 68,
      "hit": false,
      "t": 293295.97963333485,
      "d": 72.81550000002608,
      "v": 55
    },
    {
      "midi": 44,
      "hit": false,
      "t": 293300.8340000052,
      "d": 72.81550000002608,
      "v": 51
    },
    {
      "midi": 60,
      "hit": false,
      "t": 293441.6106333349,
      "d": 72.81550000002608,
      "v": 31
    },
    {
      "midi": 63,
      "hit": false,
      "t": 293441.6106333349,
      "d": 72.81550000002608,
      "v": 50
    },
    {
      "midi": 72,
      "hit": false,
      "t": 293441.6106333349,
      "d": 72.81550000002608,
      "v": 52
    },
    {
      "midi": 44,
      "hit": false,
      "t": 293446.46500000526,
      "d": 72.81550000002608,
      "v": 33
    },
    {
      "midi": 60,
      "hit": false,
      "t": 293587.24163333495,
      "d": 72.81550000002608,
      "v": 52
    },
    {
      "midi": 63,
      "hit": false,
      "t": 293587.24163333495,
      "d": 72.81550000002608,
      "v": 55
    },
    {
      "midi": 69,
      "hit": false,
      "t": 293587.24163333495,
      "d": 72.81550000002608,
      "v": 67
    },
    {
      "midi": 29,
      "hit": false,
      "t": 293592.0960000053,
      "d": 72.81550000002608,
      "v": 71
    },
    {
      "midi": 41,
      "hit": false,
      "t": 293592.0960000053,
      "d": 72.81550000002608,
      "v": 54
    },
    {
      "midi": 60,
      "hit": false,
      "t": 293732.872633335,
      "d": 72.81550000002608,
      "v": 44
    },
    {
      "midi": 63,
      "hit": false,
      "t": 293732.872633335,
      "d": 72.81550000002608,
      "v": 55
    },
    {
      "midi": 65,
      "hit": false,
      "t": 293732.872633335,
      "d": 72.81550000002608,
      "v": 50
    },
    {
      "midi": 29,
      "hit": false,
      "t": 293737.72700000537,
      "d": 72.81550000002608,
      "v": 63
    },
    {
      "midi": 60,
      "hit": false,
      "t": 293878.50363333506,
      "d": 72.81550000002608,
      "v": 32
    },
    {
      "midi": 63,
      "hit": false,
      "t": 293878.50363333506,
      "d": 72.81550000002608,
      "v": 58
    },
    {
      "midi": 69,
      "hit": false,
      "t": 293878.50363333506,
      "d": 72.81550000002608,
      "v": 59
    },
    {
      "midi": 29,
      "hit": false,
      "t": 293883.3580000054,
      "d": 72.81550000002608,
      "v": 63
    },
    {
      "midi": 60,
      "hit": false,
      "t": 294024.1346333351,
      "d": 72.81550000002608,
      "v": 31
    },
    {
      "midi": 63,
      "hit": false,
      "t": 294024.1346333351,
      "d": 72.81550000002608,
      "v": 50
    },
    {
      "midi": 72,
      "hit": false,
      "t": 294024.1346333351,
      "d": 72.81550000002608,
      "v": 56
    },
    {
      "midi": 29,
      "hit": false,
      "t": 294028.9890000055,
      "d": 72.81550000002608,
      "v": 51
    },
    {
      "midi": 61,
      "hit": false,
      "t": 294169.76563333516,
      "d": 72.81550000002608,
      "v": 17
    },
    {
      "midi": 65,
      "hit": false,
      "t": 294169.76563333516,
      "d": 72.81550000002608,
      "v": 34
    },
    {
      "midi": 70,
      "hit": false,
      "t": 294169.76563333516,
      "d": 72.81550000002608,
      "v": 47
    },
    {
      "midi": 34,
      "hit": false,
      "t": 294174.6200000055,
      "d": 72.81550000002608,
      "v": 67
    },
    {
      "midi": 46,
      "hit": false,
      "t": 294174.6200000055,
      "d": 72.81550000002608,
      "v": 55
    },
    {
      "midi": 61,
      "hit": false,
      "t": 294315.3966333352,
      "d": 72.81550000002608,
      "v": 36
    },
    {
      "midi": 65,
      "hit": false,
      "t": 294315.3966333352,
      "d": 72.81550000002608,
      "v": 44
    },
    {
      "midi": 46,
      "hit": false,
      "t": 294320.2510000056,
      "d": 72.81550000002608,
      "v": 58
    },
    {
      "midi": 61,
      "hit": false,
      "t": 294461.02763333527,
      "d": 72.81550000002608,
      "v": 31
    },
    {
      "midi": 65,
      "hit": false,
      "t": 294461.02763333527,
      "d": 72.81550000002608,
      "v": 44
    },
    {
      "midi": 70,
      "hit": false,
      "t": 294461.02763333527,
      "d": 72.81550000002608,
      "v": 58
    },
    {
      "midi": 46,
      "hit": false,
      "t": 294465.88200000563,
      "d": 72.81550000002608,
      "v": 55
    },
    {
      "midi": 61,
      "hit": false,
      "t": 294606.6586333353,
      "d": 72.81550000002608,
      "v": 21
    },
    {
      "midi": 65,
      "hit": false,
      "t": 294606.6586333353,
      "d": 72.81550000002608,
      "v": 32
    },
    {
      "midi": 73,
      "hit": false,
      "t": 294606.6586333353,
      "d": 72.81550000002608,
      "v": 50
    },
    {
      "midi": 46,
      "hit": false,
      "t": 294611.5130000057,
      "d": 72.81550000002608,
      "v": 44
    },
    {
      "midi": 60,
      "hit": false,
      "t": 294752.2896333354,
      "d": 72.81550000002608,
      "v": 56
    },
    {
      "midi": 65,
      "hit": false,
      "t": 294752.2896333354,
      "d": 72.81550000002608,
      "v": 62
    },
    {
      "midi": 72,
      "hit": false,
      "t": 294752.2896333354,
      "d": 72.81550000002608,
      "v": 62
    },
    {
      "midi": 36,
      "hit": false,
      "t": 294757.14400000573,
      "d": 72.81550000002608,
      "v": 52
    },
    {
      "midi": 60,
      "hit": false,
      "t": 294897.9206333354,
      "d": 72.81550000002608,
      "v": 39
    },
    {
      "midi": 65,
      "hit": false,
      "t": 294897.9206333354,
      "d": 72.81550000002608,
      "v": 56
    },
    {
      "midi": 68,
      "hit": false,
      "t": 294897.9206333354,
      "d": 72.81550000002608,
      "v": 55
    },
    {
      "midi": 48,
      "hit": false,
      "t": 294902.7750000058,
      "d": 72.81550000002608,
      "v": 39
    },
    {
      "midi": 60,
      "hit": false,
      "t": 295043.5516333355,
      "d": 72.81550000002608,
      "v": 41
    },
    {
      "midi": 64,
      "hit": false,
      "t": 295043.5516333355,
      "d": 72.81550000002608,
      "v": 44
    },
    {
      "midi": 67,
      "hit": false,
      "t": 295043.5516333355,
      "d": 72.81550000002608,
      "v": 56
    },
    {
      "midi": 36,
      "hit": false,
      "t": 295048.40600000584,
      "d": 72.81550000002608,
      "v": 50
    },
    {
      "midi": 60,
      "hit": false,
      "t": 295189.1826333355,
      "d": 72.81550000002608,
      "v": 31
    },
    {
      "midi": 64,
      "hit": false,
      "t": 295189.1826333355,
      "d": 72.81550000002608,
      "v": 49
    },
    {
      "midi": 72,
      "hit": false,
      "t": 295189.1826333355,
      "d": 72.81550000002608,
      "v": 56
    },
    {
      "midi": 36,
      "hit": false,
      "t": 295194.0370000059,
      "d": 72.81550000002608,
      "v": 62
    },
    {
      "midi": 65,
      "hit": false,
      "t": 295339.6680000022,
      "d": 54.61162500001956,
      "v": 41
    },
    {
      "midi": 29,
      "hit": false,
      "t": 295339.66800000594,
      "d": 72.81550000002608,
      "v": 75
    },
    {
      "midi": 41,
      "hit": false,
      "t": 295339.66800000594,
      "d": 72.81550000002608,
      "v": 63
    },
    {
      "midi": 60,
      "hit": false,
      "t": 295412.48350000224,
      "d": 54.61162500001956,
      "v": 52
    },
    {
      "midi": 41,
      "hit": false,
      "t": 295412.48350000597,
      "d": 548.543433333456,
      "v": 59
    },
    {
      "midi": 65,
      "hit": false,
      "t": 295485.29900000227,
      "d": 54.61162500001956,
      "v": 56
    },
    {
      "midi": 44,
      "hit": false,
      "t": 295485.299000006,
      "d": 470.8735666667344,
      "v": 56
    },
    {
      "midi": 68,
      "hit": false,
      "t": 295558.1145000023,
      "d": 54.61162500001956,
      "v": 47
    },
    {
      "midi": 48,
      "hit": false,
      "t": 295558.114500006,
      "d": 407.76680000009947,
      "v": 53
    },
    {
      "midi": 72,
      "hit": false,
      "t": 295630.9300000023,
      "d": 54.61162500001956,
      "v": 70
    },
    {
      "midi": 53,
      "hit": false,
      "t": 295630.93000000605,
      "d": 354.36876666673925,
      "v": 54
    },
    {
      "midi": 73,
      "hit": false,
      "t": 295703.74550000235,
      "d": 54.61162500001956,
      "v": 58
    },
    {
      "midi": 72,
      "hit": false,
      "t": 295776.5610000024,
      "d": 54.61162500001956,
      "v": 59
    },
    {
      "midi": 70,
      "hit": false,
      "t": 295849.3765000024,
      "d": 54.61162500001956,
      "v": 40
    },
    {
      "midi": 68,
      "hit": false,
      "t": 295922.1920000024,
      "d": 54.61162500001956,
      "v": 55
    },
    {
      "midi": 70,
      "hit": false,
      "t": 295995.00750000245,
      "d": 54.61162500001956,
      "v": 44
    },
    {
      "midi": 41,
      "hit": false,
      "t": 295995.0075000061,
      "d": 543.6890666667605,
      "v": 54
    },
    {
      "midi": 68,
      "hit": false,
      "t": 296067.8230000025,
      "d": 54.61162500001956,
      "v": 44
    },
    {
      "midi": 44,
      "hit": false,
      "t": 296067.82300000614,
      "d": 475.72793333343,
      "v": 52
    },
    {
      "midi": 67,
      "hit": false,
      "t": 296140.6385000025,
      "d": 54.61162500001956,
      "v": 44
    },
    {
      "midi": 48,
      "hit": false,
      "t": 296140.6385000062,
      "d": 407.76680000009947,
      "v": 55
    },
    {
      "midi": 65,
      "hit": false,
      "t": 296213.45400000253,
      "d": 54.61162500001956,
      "v": 41
    },
    {
      "midi": 53,
      "hit": false,
      "t": 296213.4540000062,
      "d": 359.2231333334348,
      "v": 71
    },
    {
      "midi": 67,
      "hit": false,
      "t": 296286.26950000256,
      "d": 54.61162500001956,
      "v": 47
    },
    {
      "midi": 68,
      "hit": false,
      "t": 296359.0850000026,
      "d": 54.61162500001956,
      "v": 38
    },
    {
      "midi": 65,
      "hit": false,
      "t": 296431.9005000026,
      "d": 54.61162500001956,
      "v": 39
    },
    {
      "midi": 68,
      "hit": false,
      "t": 296504.71600000263,
      "d": 54.61162500001956,
      "v": 58
    },
    {
      "midi": 60,
      "hit": false,
      "t": 296577.53150000266,
      "d": 54.61162500001956,
      "v": 59
    },
    {
      "midi": 41,
      "hit": false,
      "t": 296577.5315000063,
      "d": 543.6890666667605,
      "v": 59
    },
    {
      "midi": 65,
      "hit": false,
      "t": 296650.3470000027,
      "d": 54.61162500001956,
      "v": 59
    },
    {
      "midi": 44,
      "hit": false,
      "t": 296650.34700000635,
      "d": 475.72793333343,
      "v": 56
    },
    {
      "midi": 68,
      "hit": false,
      "t": 296723.1625000027,
      "d": 54.61162500001956,
      "v": 68
    },
    {
      "midi": 48,
      "hit": false,
      "t": 296723.1625000064,
      "d": 412.6211666667368,
      "v": 60
    },
    {
      "midi": 72,
      "hit": false,
      "t": 296795.97800000274,
      "d": 54.61162500001956,
      "v": 67
    },
    {
      "midi": 53,
      "hit": false,
      "t": 296795.9780000064,
      "d": 344.6600333334063,
      "v": 71
    },
    {
      "midi": 73,
      "hit": false,
      "t": 296868.79350000276,
      "d": 54.61162500001956,
      "v": 68
    },
    {
      "midi": 72,
      "hit": false,
      "t": 296941.6090000028,
      "d": 54.61162500001956,
      "v": 52
    },
    {
      "midi": 70,
      "hit": false,
      "t": 297014.4245000028,
      "d": 54.61162500001956,
      "v": 55
    },
    {
      "midi": 68,
      "hit": false,
      "t": 297087.24000000284,
      "d": 54.61162500001956,
      "v": 44
    },
    {
      "midi": 70,
      "hit": false,
      "t": 297160.05550000287,
      "d": 54.61162500001956,
      "v": 47
    },
    {
      "midi": 41,
      "hit": false,
      "t": 297160.0555000065,
      "d": 504.85413333342876,
      "v": 59
    },
    {
      "midi": 68,
      "hit": false,
      "t": 297232.8710000029,
      "d": 54.61162500001956,
      "v": 55
    },
    {
      "midi": 44,
      "hit": false,
      "t": 297232.8710000065,
      "d": 432.0386333334027,
      "v": 56
    },
    {
      "midi": 67,
      "hit": false,
      "t": 297305.6865000029,
      "d": 54.61162500001956,
      "v": 50
    },
    {
      "midi": 48,
      "hit": false,
      "t": 297305.68650000653,
      "d": 354.36876666668104,
      "v": 60
    },
    {
      "midi": 65,
      "hit": false,
      "t": 297378.50200000295,
      "d": 54.61162500001956,
      "v": 52
    },
    {
      "midi": 53,
      "hit": false,
      "t": 297378.50200000656,
      "d": 291.2620000000461,
      "v": 71
    },
    {
      "midi": 67,
      "hit": false,
      "t": 297451.317500003,
      "d": 54.61162500001956,
      "v": 44
    },
    {
      "midi": 68,
      "hit": false,
      "t": 297524.133000003,
      "d": 54.61162500001956,
      "v": 47
    },
    {
      "midi": 65,
      "hit": false,
      "t": 297596.948500003,
      "d": 54.61162500001956,
      "v": 50
    },
    {
      "midi": 66,
      "hit": false,
      "t": 297669.76400000305,
      "d": 54.61162500001956,
      "v": 44
    },
    {
      "midi": 61,
      "hit": false,
      "t": 297742.5795000031,
      "d": 54.61162500001956,
      "v": 54
    },
    {
      "midi": 46,
      "hit": false,
      "t": 297742.5795000066,
      "d": 548.5434333333978,
      "v": 55
    },
    {
      "midi": 66,
      "hit": false,
      "t": 297815.3950000031,
      "d": 54.61162500001956,
      "v": 58
    },
    {
      "midi": 49,
      "hit": false,
      "t": 297815.39500000665,
      "d": 466.01920000003884,
      "v": 52
    },
    {
      "midi": 70,
      "hit": false,
      "t": 297888.21050000313,
      "d": 54.61162500001956,
      "v": 55
    },
    {
      "midi": 54,
      "hit": false,
      "t": 297888.2105000067,
      "d": 402.9124333333457,
      "v": 56
    },
    {
      "midi": 73,
      "hit": false,
      "t": 297961.02600000316,
      "d": 54.61162500001956,
      "v": 63
    },
    {
      "midi": 58,
      "hit": false,
      "t": 297961.0260000067,
      "d": 334.9513000000152,
      "v": 66
    },
    {
      "midi": 75,
      "hit": false,
      "t": 298033.8415000032,
      "d": 54.61162500001956,
      "v": 58
    },
    {
      "midi": 73,
      "hit": false,
      "t": 298106.6570000032,
      "d": 54.61162500001956,
      "v": 63
    },
    {
      "midi": 72,
      "hit": false,
      "t": 298179.47250000323,
      "d": 54.61162500001956,
      "v": 52
    },
    {
      "midi": 70,
      "hit": false,
      "t": 298252.28800000326,
      "d": 54.61162500001956,
      "v": 58
    },
    {
      "midi": 72,
      "hit": false,
      "t": 298325.1035000033,
      "d": 54.61162500001956,
      "v": 52
    },
    {
      "midi": 46,
      "hit": false,
      "t": 298325.1035000067,
      "d": 504.85413333342876,
      "v": 53
    },
    {
      "midi": 70,
      "hit": false,
      "t": 298397.9190000033,
      "d": 54.61162500001956,
      "v": 50
    },
    {
      "midi": 49,
      "hit": false,
      "t": 298397.91900000675,
      "d": 456.3104666667641,
      "v": 52
    },
    {
      "midi": 68,
      "hit": false,
      "t": 298470.73450000334,
      "d": 54.61162500001956,
      "v": 50
    },
    {
      "midi": 54,
      "hit": false,
      "t": 298470.7345000068,
      "d": 383.49496666673804,
      "v": 56
    },
    {
      "midi": 66,
      "hit": false,
      "t": 298543.55000000336,
      "d": 54.61162500001956,
      "v": 58
    },
    {
      "midi": 58,
      "hit": false,
      "t": 298543.5500000068,
      "d": 315.53383333340753,
      "v": 66
    },
    {
      "midi": 68,
      "hit": false,
      "t": 298616.3655000034,
      "d": 54.61162500001956,
      "v": 58
    },
    {
      "midi": 66,
      "hit": false,
      "t": 298689.1810000034,
      "d": 54.61162500001956,
      "v": 50
    },
    {
      "midi": 65,
      "hit": false,
      "t": 298761.99650000344,
      "d": 54.61162500001956,
      "v": 59
    },
    {
      "midi": 64,
      "hit": false,
      "t": 298834.81200000347,
      "d": 54.61162500001956,
      "v": 58
    },
    {
      "midi": 65,
      "hit": false,
      "t": 298907.6275000035,
      "d": 54.61162500001956,
      "v": 52
    },
    {
      "midi": 48,
      "hit": false,
      "t": 298907.62750000687,
      "d": 543.6890666668187,
      "v": 55
    },
    {
      "midi": 67,
      "hit": false,
      "t": 298980.4430000035,
      "d": 54.61162500001956,
      "v": 56
    },
    {
      "midi": 55,
      "hit": false,
      "t": 298980.4430000069,
      "d": 451.45610000006855,
      "v": 46
    },
    {
      "midi": 68,
      "hit": false,
      "t": 299053.25850000355,
      "d": 54.61162500001956,
      "v": 63
    },
    {
      "midi": 58,
      "hit": false,
      "t": 299053.2585000069,
      "d": 388.3493333334336,
      "v": 56
    },
    {
      "midi": 70,
      "hit": false,
      "t": 299126.0740000036,
      "d": 54.61162500001956,
      "v": 63
    },
    {
      "midi": 60,
      "hit": false,
      "t": 299126.07400000695,
      "d": 310.67946666671196,
      "v": 63
    },
    {
      "midi": 68,
      "hit": false,
      "t": 299198.8895000036,
      "d": 54.61162500001956,
      "v": 55
    },
    {
      "midi": 67,
      "hit": false,
      "t": 299271.7050000036,
      "d": 54.61162500001956,
      "v": 39
    },
    {
      "midi": 65,
      "hit": false,
      "t": 299344.52050000365,
      "d": 54.61162500001956,
      "v": 47
    },
    {
      "midi": 64,
      "hit": false,
      "t": 299417.3360000037,
      "d": 54.61162500001956,
      "v": 44
    },
    {
      "midi": 65,
      "hit": false,
      "t": 299490.1515000037,
      "d": 54.61162500001956,
      "v": 52
    },
    {
      "midi": 48,
      "hit": false,
      "t": 299490.151500007,
      "d": 504.85413333342876,
      "v": 53
    },
    {
      "midi": 67,
      "hit": false,
      "t": 299562.96700000373,
      "d": 54.61162500001956,
      "v": 59
    },
    {
      "midi": 55,
      "hit": false,
      "t": 299562.96700000705,
      "d": 432.0386333334027,
      "v": 60
    },
    {
      "midi": 68,
      "hit": false,
      "t": 299635.78250000376,
      "d": 54.61162500001956,
      "v": 58
    },
    {
      "midi": 58,
      "hit": false,
      "t": 299635.7825000071,
      "d": 368.93186666676775,
      "v": 56
    },
    {
      "midi": 70,
      "hit": false,
      "t": 299708.5980000038,
      "d": 54.61162500001956,
      "v": 58
    },
    {
      "midi": 60,
      "hit": false,
      "t": 299708.5980000071,
      "d": 291.2620000000461,
      "v": 67
    },
    {
      "midi": 72,
      "hit": false,
      "t": 299781.4135000038,
      "d": 54.61162500001956,
      "v": 56
    },
    {
      "midi": 74,
      "hit": false,
      "t": 299854.22900000383,
      "d": 54.61162500001956,
      "v": 59
    },
    {
      "midi": 76,
      "hit": false,
      "t": 299927.04450000386,
      "d": 54.61162500001956,
      "v": 59
    },
    {
      "midi": 77,
      "hit": false,
      "t": 299999.8600000039,
      "d": 54.61162500001956,
      "v": 59
    },
    {
      "midi": 72,
      "hit": false,
      "t": 300072.6755000039,
      "d": 54.61162500001956,
      "v": 50
    },
    {
      "midi": 53,
      "hit": false,
      "t": 300072.6755000072,
      "d": 553.3978000000934,
      "v": 54
    },
    {
      "midi": 77,
      "hit": false,
      "t": 300145.49100000394,
      "d": 54.61162500001956,
      "v": 59
    },
    {
      "midi": 56,
      "hit": false,
      "t": 300145.4910000072,
      "d": 485.4366666667629,
      "v": 53
    },
    {
      "midi": 80,
      "hit": false,
      "t": 300218.30650000396,
      "d": 54.61162500001956,
      "v": 63
    },
    {
      "midi": 60,
      "hit": false,
      "t": 300218.3065000072,
      "d": 402.9124333333457,
      "v": 53
    },
    {
      "midi": 84,
      "hit": false,
      "t": 300291.122000004,
      "d": 54.61162500001956,
      "v": 70
    },
    {
      "midi": 65,
      "hit": false,
      "t": 300291.12200000725,
      "d": 320.3881999999867,
      "v": 77
    },
    {
      "midi": 85,
      "hit": false,
      "t": 300363.937500004,
      "d": 54.61162500001956,
      "v": 68
    },
    {
      "midi": 84,
      "hit": false,
      "t": 300436.75300000404,
      "d": 54.61162500001956,
      "v": 59
    },
    {
      "midi": 82,
      "hit": false,
      "t": 300509.56850000407,
      "d": 54.61162500001956,
      "v": 55
    },
    {
      "midi": 80,
      "hit": false,
      "t": 300582.3840000041,
      "d": 54.61162500001956,
      "v": 47
    },
    {
      "midi": 82,
      "hit": false,
      "t": 300655.1995000041,
      "d": 54.61162500001956,
      "v": 44
    },
    {
      "midi": 53,
      "hit": false,
      "t": 300655.1995000073,
      "d": 538.8347000001231,
      "v": 56
    },
    {
      "midi": 80,
      "hit": false,
      "t": 300728.01500000415,
      "d": 54.61162500001956,
      "v": 47
    },
    {
      "midi": 56,
      "hit": false,
      "t": 300728.01500000735,
      "d": 466.01920000009704,
      "v": 60
    },
    {
      "midi": 79,
      "hit": false,
      "t": 300800.8305000042,
      "d": 54.61162500001956,
      "v": 44
    },
    {
      "midi": 60,
      "hit": false,
      "t": 300800.8305000074,
      "d": 388.3493333333754,
      "v": 53
    },
    {
      "midi": 77,
      "hit": false,
      "t": 300873.6460000042,
      "d": 54.61162500001956,
      "v": 52
    },
    {
      "midi": 65,
      "hit": false,
      "t": 300873.6460000074,
      "d": 339.80566666671075,
      "v": 72
    },
    {
      "midi": 79,
      "hit": false,
      "t": 300946.4615000042,
      "d": 54.61162500001956,
      "v": 41
    },
    {
      "midi": 80,
      "hit": false,
      "t": 301019.27700000425,
      "d": 54.61162500001956,
      "v": 50
    },
    {
      "midi": 77,
      "hit": false,
      "t": 301092.0925000043,
      "d": 54.61162500001956,
      "v": 47
    },
    {
      "midi": 80,
      "hit": false,
      "t": 301164.9080000043,
      "d": 54.61162500001956,
      "v": 47
    },
    {
      "midi": 72,
      "hit": false,
      "t": 301237.72350000433,
      "d": 54.61162500001956,
      "v": 39
    },
    {
      "midi": 53,
      "hit": false,
      "t": 301237.7235000075,
      "d": 553.3978000001516,
      "v": 59
    },
    {
      "midi": 77,
      "hit": false,
      "t": 301310.53900000436,
      "d": 54.61162500001956,
      "v": 52
    },
    {
      "midi": 56,
      "hit": false,
      "t": 301310.5390000075,
      "d": 470.8735666667344,
      "v": 60
    },
    {
      "midi": 80,
      "hit": false,
      "t": 301383.3545000044,
      "d": 54.61162500001956,
      "v": 44
    },
    {
      "midi": 60,
      "hit": false,
      "t": 301383.3545000075,
      "d": 402.9124333334039,
      "v": 53
    },
    {
      "midi": 84,
      "hit": false,
      "t": 301456.1700000044,
      "d": 54.61162500001956,
      "v": 47
    },
    {
      "midi": 65,
      "hit": false,
      "t": 301456.17000000755,
      "d": 339.80566666676896,
      "v": 72
    },
    {
      "midi": 85,
      "hit": false,
      "t": 301528.98550000443,
      "d": 54.61162500001956,
      "v": 63
    },
    {
      "midi": 84,
      "hit": false,
      "t": 301601.80100000446,
      "d": 54.61162500001956,
      "v": 56
    },
    {
      "midi": 82,
      "hit": false,
      "t": 301674.6165000045,
      "d": 54.61162500001956,
      "v": 58
    },
    {
      "midi": 80,
      "hit": false,
      "t": 301747.4320000045,
      "d": 54.61162500001956,
      "v": 50
    },
    {
      "midi": 82,
      "hit": false,
      "t": 301820.24750000454,
      "d": 54.61162500001956,
      "v": 55
    },
    {
      "midi": 53,
      "hit": false,
      "t": 301820.2475000077,
      "d": 499.9997666667332,
      "v": 59
    },
    {
      "midi": 80,
      "hit": false,
      "t": 301893.06300000456,
      "d": 54.61162500001956,
      "v": 50
    },
    {
      "midi": 56,
      "hit": false,
      "t": 301893.0630000077,
      "d": 432.0386333334027,
      "v": 60
    },
    {
      "midi": 79,
      "hit": false,
      "t": 301965.8785000046,
      "d": 54.61162500001956,
      "v": 47
    },
    {
      "midi": 60,
      "hit": false,
      "t": 301965.87850000773,
      "d": 354.36876666668104,
      "v": 53
    },
    {
      "midi": 77,
      "hit": false,
      "t": 302038.6940000046,
      "d": 54.61162500001956,
      "v": 39
    },
    {
      "midi": 65,
      "hit": false,
      "t": 302038.69400000776,
      "d": 291.2620000000461,
      "v": 72
    },
    {
      "midi": 79,
      "hit": false,
      "t": 302111.50950000464,
      "d": 54.61162500001956,
      "v": 34
    },
    {
      "midi": 80,
      "hit": false,
      "t": 302184.32500000467,
      "d": 54.61162500001956,
      "v": 47
    },
    {
      "midi": 77,
      "hit": false,
      "t": 302257.1405000047,
      "d": 54.61162500001956,
      "v": 34
    },
    {
      "midi": 78,
      "hit": false,
      "t": 302329.9560000047,
      "d": 54.61162500001956,
      "v": 55
    },
    {
      "midi": 73,
      "hit": false,
      "t": 302402.77150000475,
      "d": 54.61162500001956,
      "v": 44
    },
    {
      "midi": 58,
      "hit": false,
      "t": 302402.77150000783,
      "d": 499.9997666667332,
      "v": 56
    },
    {
      "midi": 78,
      "hit": false,
      "t": 302475.5870000048,
      "d": 54.61162500001956,
      "v": 44
    },
    {
      "midi": 61,
      "hit": false,
      "t": 302475.58700000786,
      "d": 427.1842666667071,
      "v": 60
    },
    {
      "midi": 82,
      "hit": false,
      "t": 302548.4025000048,
      "d": 54.61162500001956,
      "v": 32
    },
    {
      "midi": 66,
      "hit": false,
      "t": 302548.4025000079,
      "d": 359.2231333333766,
      "v": 49
    },
    {
      "midi": 85,
      "hit": false,
      "t": 302621.2180000048,
      "d": 54.61162500001956,
      "v": 44
    },
    {
      "midi": 70,
      "hit": false,
      "t": 302621.2180000079,
      "d": 291.2620000000461,
      "v": 61
    },
    {
      "midi": 87,
      "hit": false,
      "t": 302694.03350000485,
      "d": 54.61162500001956,
      "v": 55
    },
    {
      "midi": 85,
      "hit": false,
      "t": 302766.8490000049,
      "d": 54.61162500001956,
      "v": 50
    },
    {
      "midi": 84,
      "hit": false,
      "t": 302839.6645000049,
      "d": 54.61162500001956,
      "v": 50
    },
    {
      "midi": 82,
      "hit": false,
      "t": 302912.4800000049,
      "d": 54.61162500001956,
      "v": 47
    },
    {
      "midi": 84,
      "hit": false,
      "t": 302985.29550000496,
      "d": 54.61162500001956,
      "v": 39
    },
    {
      "midi": 58,
      "hit": false,
      "t": 302985.295500008,
      "d": 499.9997666667332,
      "v": 61
    },
    {
      "midi": 82,
      "hit": false,
      "t": 303058.111000005,
      "d": 54.61162500001956,
      "v": 50
    },
    {
      "midi": 61,
      "hit": false,
      "t": 303058.111000008,
      "d": 432.0386333334027,
      "v": 48
    },
    {
      "midi": 80,
      "hit": false,
      "t": 303130.926500005,
      "d": 54.61162500001956,
      "v": 50
    },
    {
      "midi": 66,
      "hit": false,
      "t": 303130.92650000803,
      "d": 359.2231333333766,
      "v": 52
    },
    {
      "midi": 78,
      "hit": false,
      "t": 303203.74200000503,
      "d": 54.61162500001956,
      "v": 44
    },
    {
      "midi": 70,
      "hit": false,
      "t": 303203.74200000806,
      "d": 291.2620000000461,
      "v": 72
    },
    {
      "midi": 80,
      "hit": false,
      "t": 303276.55750000506,
      "d": 54.61162500001956,
      "v": 55
    },
    {
      "midi": 78,
      "hit": false,
      "t": 303349.3730000051,
      "d": 54.61162500001956,
      "v": 55
    },
    {
      "midi": 77,
      "hit": false,
      "t": 303422.1885000051,
      "d": 54.61162500001956,
      "v": 50
    },
    {
      "midi": 76,
      "hit": false,
      "t": 303495.00400000514,
      "d": 54.61162500001956,
      "v": 44
    },
    {
      "midi": 77,
      "hit": false,
      "t": 303567.81950000516,
      "d": 54.61162500001956,
      "v": 41
    },
    {
      "midi": 60,
      "hit": false,
      "t": 303567.81950000813,
      "d": 504.85413333342876,
      "v": 50
    },
    {
      "midi": 79,
      "hit": false,
      "t": 303640.6350000052,
      "d": 54.61162500001956,
      "v": 41
    },
    {
      "midi": 64,
      "hit": false,
      "t": 303640.63500000816,
      "d": 427.1842666667071,
      "v": 54
    },
    {
      "midi": 80,
      "hit": false,
      "t": 303713.4505000052,
      "d": 54.61162500001956,
      "v": 55
    },
    {
      "midi": 67,
      "hit": false,
      "t": 303713.4505000082,
      "d": 354.36876666668104,
      "v": 60
    },
    {
      "midi": 82,
      "hit": false,
      "t": 303786.26600000524,
      "d": 54.61162500001956,
      "v": 63
    },
    {
      "midi": 72,
      "hit": false,
      "t": 303786.2660000082,
      "d": 291.2620000000461,
      "v": 72
    },
    {
      "midi": 80,
      "hit": false,
      "t": 303859.08150000527,
      "d": 54.61162500001956,
      "v": 50
    },
    {
      "midi": 79,
      "hit": false,
      "t": 303931.8970000053,
      "d": 54.61162500001956,
      "v": 32
    },
    {
      "midi": 77,
      "hit": false,
      "t": 304004.7125000053,
      "d": 54.61162500001956,
      "v": 50
    },
    {
      "midi": 76,
      "hit": false,
      "t": 304077.52800000535,
      "d": 54.61162500001956,
      "v": 52
    },
    {
      "midi": 77,
      "hit": false,
      "t": 304150.3435000054,
      "d": 54.61162500001956,
      "v": 56
    },
    {
      "midi": 48,
      "hit": false,
      "t": 304150.3435000083,
      "d": 499.9997666667332,
      "v": 53
    },
    {
      "midi": 79,
      "hit": false,
      "t": 304223.1590000054,
      "d": 54.61162500001956,
      "v": 50
    },
    {
      "midi": 52,
      "hit": false,
      "t": 304223.1590000083,
      "d": 427.1842666667071,
      "v": 46
    },
    {
      "midi": 80,
      "hit": false,
      "t": 304295.9745000054,
      "d": 54.61162500001956,
      "v": 47
    },
    {
      "midi": 55,
      "hit": false,
      "t": 304295.97450000833,
      "d": 354.36876666668104,
      "v": 50
    },
    {
      "midi": 82,
      "hit": false,
      "t": 304368.79000000545,
      "d": 54.61162500001956,
      "v": 47
    },
    {
      "midi": 60,
      "hit": false,
      "t": 304368.79000000836,
      "d": 291.2619999999879,
      "v": 67
    },
    {
      "midi": 84,
      "hit": false,
      "t": 304441.6055000055,
      "d": 54.61162500001956,
      "v": 47
    },
    {
      "midi": 86,
      "hit": false,
      "t": 304514.4210000055,
      "d": 54.61162500001956,
      "v": 41
    },
    {
      "midi": 88,
      "hit": false,
      "t": 304587.2365000055,
      "d": 54.61162500001956,
      "v": 52
    },
    {
      "midi": 89,
      "hit": false,
      "t": 304660.05200000555,
      "d": 54.61162500001956,
      "v": 50
    },
    {
      "midi": 41,
      "hit": false,
      "t": 304660.05200000835,
      "d": 145.63099999999395,
      "v": 50
    },
    {
      "midi": 53,
      "hit": false,
      "t": 304660.05200000835,
      "d": 145.63099999999395,
      "v": 43
    },
    {
      "midi": 80,
      "hit": false,
      "t": 304732.8675000056,
      "d": 54.61162500001956,
      "v": 58
    },
    {
      "midi": 84,
      "hit": false,
      "t": 304805.6830000056,
      "d": 54.61162500001956,
      "v": 52
    },
    {
      "midi": 89,
      "hit": false,
      "t": 304878.49850000563,
      "d": 54.61162500001956,
      "v": 56
    },
    {
      "midi": 92,
      "hit": false,
      "t": 304951.31400000566,
      "d": 334.9513000000152,
      "v": 85
    },
    {
      "midi": 72,
      "hit": false,
      "t": 305096.94500000833,
      "d": 572.8152666667011,
      "v": 50
    },
    {
      "midi": 77,
      "hit": false,
      "t": 305169.76050000836,
      "d": 504.85413333337056,
      "v": 39
    },
    {
      "midi": 80,
      "hit": false,
      "t": 305242.5760000084,
      "d": 436.89300000004005,
      "v": 63
    },
    {
      "midi": 84,
      "hit": false,
      "t": 305315.3915000057,
      "d": 54.61162500001956,
      "v": 44
    },
    {
      "midi": 89,
      "hit": false,
      "t": 305388.2070000057,
      "d": 54.61162500001956,
      "v": 50
    },
    {
      "midi": 92,
      "hit": false,
      "t": 305461.0225000057,
      "d": 54.61162500001956,
      "v": 50
    },
    {
      "midi": 96,
      "hit": false,
      "t": 305533.83800000575,
      "d": 54.61162500001956,
      "v": 41
    },
    {
      "midi": 92,
      "hit": false,
      "t": 305606.6535000058,
      "d": 54.61162500001956,
      "v": 55
    },
    {
      "midi": 91,
      "hit": false,
      "t": 305679.4690000058,
      "d": 54.61162500001956,
      "v": 41
    },
    {
      "midi": 60,
      "hit": false,
      "t": 305679.4690000084,
      "d": 72.81550000002608,
      "v": 70
    },
    {
      "midi": 88,
      "hit": false,
      "t": 305752.28450000583,
      "d": 54.61162500001956,
      "v": 47
    },
    {
      "midi": 89,
      "hit": false,
      "t": 305825.10000000586,
      "d": 54.61162500001956,
      "v": 36
    },
    {
      "midi": 65,
      "hit": false,
      "t": 305825.1000000085,
      "d": 72.81550000002608,
      "v": 75
    },
    {
      "midi": 80,
      "hit": false,
      "t": 305897.9155000059,
      "d": 54.61162500001956,
      "v": 44
    },
    {
      "midi": 84,
      "hit": false,
      "t": 305970.7310000059,
      "d": 54.61162500001956,
      "v": 52
    },
    {
      "midi": 89,
      "hit": false,
      "t": 306043.54650000593,
      "d": 54.61162500001956,
      "v": 56
    },
    {
      "midi": 92,
      "hit": false,
      "t": 306116.36200000596,
      "d": 291.2619999999879,
      "v": 85
    },
    {
      "midi": 72,
      "hit": false,
      "t": 306261.9930000085,
      "d": 563.1065333333681,
      "v": 56
    },
    {
      "midi": 77,
      "hit": false,
      "t": 306334.80850000854,
      "d": 499.999766666675,
      "v": 56
    },
    {
      "midi": 92,
      "hit": false,
      "t": 306407.62400000595,
      "d": 54.61162500001956,
      "v": 50
    },
    {
      "midi": 80,
      "hit": false,
      "t": 306407.62400000857,
      "d": 436.89299999998184,
      "v": 58
    },
    {
      "midi": 84,
      "hit": false,
      "t": 306480.439500006,
      "d": 54.61162500001956,
      "v": 39
    },
    {
      "midi": 89,
      "hit": false,
      "t": 306553.255000006,
      "d": 54.61162500001956,
      "v": 50
    },
    {
      "midi": 92,
      "hit": false,
      "t": 306626.070500006,
      "d": 54.61162500001956,
      "v": 47
    },
    {
      "midi": 96,
      "hit": false,
      "t": 306698.88600000605,
      "d": 54.61162500001956,
      "v": 50
    },
    {
      "midi": 92,
      "hit": false,
      "t": 306771.7015000061,
      "d": 54.61162500001956,
      "v": 47
    },
    {
      "midi": 91,
      "hit": false,
      "t": 306844.5170000061,
      "d": 54.61162500001956,
      "v": 50
    },
    {
      "midi": 60,
      "hit": false,
      "t": 306844.51700000855,
      "d": 72.81550000002608,
      "v": 62
    },
    {
      "midi": 88,
      "hit": false,
      "t": 306917.33250000613,
      "d": 54.61162500001956,
      "v": 41
    },
    {
      "midi": 89,
      "hit": false,
      "t": 306990.14800000616,
      "d": 54.61162500001956,
      "v": 34
    },
    {
      "midi": 65,
      "hit": false,
      "t": 306990.1480000086,
      "d": 72.81550000002608,
      "v": 70
    },
    {
      "midi": 80,
      "hit": false,
      "t": 307062.9635000062,
      "d": 54.61162500001956,
      "v": 40
    },
    {
      "midi": 84,
      "hit": false,
      "t": 307135.7790000062,
      "d": 54.61162500001956,
      "v": 50
    },
    {
      "midi": 89,
      "hit": false,
      "t": 307208.59450000623,
      "d": 54.61162500001956,
      "v": 44
    },
    {
      "midi": 92,
      "hit": false,
      "t": 307281.41000000626,
      "d": 330.0969333333196,
      "v": 85
    },
    {
      "midi": 72,
      "hit": false,
      "t": 307427.04100000864,
      "d": 563.1065333333681,
      "v": 59
    },
    {
      "midi": 77,
      "hit": false,
      "t": 307499.85650000867,
      "d": 499.999766666675,
      "v": 62
    },
    {
      "midi": 80,
      "hit": false,
      "t": 307572.6720000087,
      "d": 436.89299999998184,
      "v": 58
    },
    {
      "midi": 84,
      "hit": false,
      "t": 307645.4875000063,
      "d": 54.61162500001956,
      "v": 50
    },
    {
      "midi": 89,
      "hit": false,
      "t": 307718.3030000063,
      "d": 54.61162500001956,
      "v": 47
    },
    {
      "midi": 92,
      "hit": false,
      "t": 307791.1185000063,
      "d": 54.61162500001956,
      "v": 55
    },
    {
      "midi": 96,
      "hit": false,
      "t": 307863.93400000635,
      "d": 54.61162500001956,
      "v": 56
    },
    {
      "midi": 92,
      "hit": false,
      "t": 307936.7495000064,
      "d": 54.61162500001956,
      "v": 50
    },
    {
      "midi": 91,
      "hit": false,
      "t": 308009.5650000064,
      "d": 54.61162500001956,
      "v": 56
    },
    {
      "midi": 60,
      "hit": false,
      "t": 308009.5650000087,
      "d": 72.81550000002608,
      "v": 75
    },
    {
      "midi": 88,
      "hit": false,
      "t": 308082.38050000643,
      "d": 54.61162500001956,
      "v": 52
    },
    {
      "midi": 89,
      "hit": false,
      "t": 308155.19600000646,
      "d": 54.61162500001956,
      "v": 59
    },
    {
      "midi": 65,
      "hit": false,
      "t": 308155.1960000087,
      "d": 72.81550000002608,
      "v": 80
    },
    {
      "midi": 80,
      "hit": false,
      "t": 308228.0115000065,
      "d": 54.61162500001956,
      "v": 55
    },
    {
      "midi": 84,
      "hit": false,
      "t": 308300.8270000065,
      "d": 54.61162500001956,
      "v": 52
    },
    {
      "midi": 89,
      "hit": false,
      "t": 308373.64250000654,
      "d": 54.61162500001956,
      "v": 44
    },
    {
      "midi": 92,
      "hit": false,
      "t": 308446.45800000656,
      "d": 320.3881999999867,
      "v": 85
    },
    {
      "midi": 72,
      "hit": false,
      "t": 308592.08900000877,
      "d": 572.8152666667011,
      "v": 56
    },
    {
      "midi": 77,
      "hit": false,
      "t": 308664.9045000088,
      "d": 499.999766666675,
      "v": 52
    },
    {
      "midi": 80,
      "hit": false,
      "t": 308737.7200000088,
      "d": 436.89299999998184,
      "v": 74
    },
    {
      "midi": 84,
      "hit": false,
      "t": 308810.5355000066,
      "d": 54.61162500001956,
      "v": 52
    },
    {
      "midi": 89,
      "hit": false,
      "t": 308883.3510000066,
      "d": 54.61162500001956,
      "v": 50
    },
    {
      "midi": 92,
      "hit": false,
      "t": 308956.1665000066,
      "d": 54.61162500001956,
      "v": 58
    },
    {
      "midi": 96,
      "hit": false,
      "t": 309028.98200000665,
      "d": 54.61162500001956,
      "v": 47
    },
    {
      "midi": 92,
      "hit": false,
      "t": 309101.7975000067,
      "d": 54.61162500001956,
      "v": 55
    },
    {
      "midi": 91,
      "hit": false,
      "t": 309174.6130000067,
      "d": 54.61162500001956,
      "v": 52
    },
    {
      "midi": 60,
      "hit": false,
      "t": 309174.6130000088,
      "d": 72.81550000002608,
      "v": 70
    },
    {
      "midi": 88,
      "hit": false,
      "t": 309247.42850000673,
      "d": 54.61162500001956,
      "v": 52
    },
    {
      "midi": 89,
      "hit": false,
      "t": 309320.24400000676,
      "d": 54.61162500001956,
      "v": 52
    },
    {
      "midi": 65,
      "hit": false,
      "t": 309320.24400000885,
      "d": 145.63099999999395,
      "v": 80
    },
    {
      "midi": 84,
      "hit": false,
      "t": 309393.0595000068,
      "d": 54.61162500001956,
      "v": 41
    },
    {
      "midi": 89,
      "hit": false,
      "t": 309465.8750000068,
      "d": 54.61162500001956,
      "v": 56
    },
    {
      "midi": 92,
      "hit": false,
      "t": 309538.69050000684,
      "d": 54.61162500001956,
      "v": 58
    },
    {
      "midi": 96,
      "hit": false,
      "t": 309611.50600000686,
      "d": 54.61162500001956,
      "v": 52
    },
    {
      "midi": 92,
      "hit": false,
      "t": 309684.3215000069,
      "d": 54.61162500001956,
      "v": 50
    },
    {
      "midi": 91,
      "hit": false,
      "t": 309757.1370000069,
      "d": 54.61162500001956,
      "v": 47
    },
    {
      "midi": 60,
      "hit": false,
      "t": 309757.13700000884,
      "d": 72.81550000002608,
      "v": 75
    },
    {
      "midi": 88,
      "hit": false,
      "t": 309829.95250000694,
      "d": 54.61162500001956,
      "v": 44
    },
    {
      "midi": 89,
      "hit": false,
      "t": 309902.76800000697,
      "d": 54.61162500001956,
      "v": 59
    },
    {
      "midi": 53,
      "hit": false,
      "t": 309902.7680000089,
      "d": 291.2619999999879,
      "v": 79
    },
    {
      "midi": 84,
      "hit": false,
      "t": 309975.583500007,
      "d": 54.61162500001956,
      "v": 50
    },
    {
      "midi": 89,
      "hit": false,
      "t": 310048.399000007,
      "d": 54.61162500001956,
      "v": 50
    },
    {
      "midi": 92,
      "hit": false,
      "t": 310121.21450000704,
      "d": 54.61162500001956,
      "v": 47
    },
    {
      "midi": 96,
      "hit": false,
      "t": 310194.0300000071,
      "d": 54.61162500001956,
      "v": 44
    },
    {
      "midi": 92,
      "hit": false,
      "t": 310266.8455000071,
      "d": 54.61162500001956,
      "v": 55
    },
    {
      "midi": 91,
      "hit": false,
      "t": 310339.6610000071,
      "d": 54.61162500001956,
      "v": 50
    },
    {
      "midi": 48,
      "hit": false,
      "t": 310339.66100000887,
      "d": 72.81550000002608,
      "v": 62
    },
    {
      "midi": 88,
      "hit": false,
      "t": 310412.47650000715,
      "d": 54.61162500001956,
      "v": 50
    },
    {
      "midi": 89,
      "hit": false,
      "t": 310485.2920000072,
      "d": 54.61162500001956,
      "v": 67
    },
    {
      "midi": 41,
      "hit": false,
      "t": 310485.2920000089,
      "d": 291.2619999999879,
      "v": 79
    },
    {
      "midi": 84,
      "hit": false,
      "t": 310558.1075000072,
      "d": 54.61162500001956,
      "v": 47
    },
    {
      "midi": 89,
      "hit": false,
      "t": 310630.9230000072,
      "d": 54.61162500001956,
      "v": 39
    },
    {
      "midi": 92,
      "hit": false,
      "t": 310703.73850000725,
      "d": 54.61162500001956,
      "v": 47
    },
    {
      "midi": 96,
      "hit": false,
      "t": 310776.5540000073,
      "d": 54.61162500001956,
      "v": 56
    },
    {
      "midi": 92,
      "hit": false,
      "t": 310849.3695000073,
      "d": 54.61162500001956,
      "v": 50
    },
    {
      "midi": 91,
      "hit": false,
      "t": 310922.18500000733,
      "d": 54.61162500001956,
      "v": 50
    },
    {
      "midi": 36,
      "hit": false,
      "t": 310922.1850000089,
      "d": 72.81550000002608,
      "v": 67
    },
    {
      "midi": 88,
      "hit": false,
      "t": 310995.00050000736,
      "d": 54.61162500001956,
      "v": 21
    },
    {
      "midi": 96,
      "hit": false,
      "t": 311067.8160000074,
      "d": 72.81550000002608,
      "v": 59
    },
    {
      "midi": 29,
      "hit": false,
      "t": 311067.81600000896,
      "d": 72.81550000002608,
      "v": 79
    },
    {
      "midi": 92,
      "hit": false,
      "t": 311140.6315000074,
      "d": 72.81550000002608,
      "v": 50
    },
    {
      "midi": 91,
      "hit": false,
      "t": 311213.44700000744,
      "d": 72.81550000002608,
      "v": 52
    },
    {
      "midi": 36,
      "hit": false,
      "t": 311213.447000009,
      "d": 72.81550000002608,
      "v": 62
    },
    {
      "midi": 88,
      "hit": false,
      "t": 311286.26250000746,
      "d": 72.81550000002608,
      "v": 47
    },
    {
      "midi": 96,
      "hit": false,
      "t": 311359.0780000075,
      "d": 72.81550000002608,
      "v": 70
    },
    {
      "midi": 29,
      "hit": false,
      "t": 311359.07800000906,
      "d": 72.81550000002608,
      "v": 74
    },
    {
      "midi": 92,
      "hit": false,
      "t": 311431.8935000075,
      "d": 72.81550000002608,
      "v": 50
    },
    {
      "midi": 91,
      "hit": false,
      "t": 311504.70900000754,
      "d": 72.81550000002608,
      "v": 52
    },
    {
      "midi": 36,
      "hit": false,
      "t": 311504.7090000091,
      "d": 72.81550000002608,
      "v": 70
    },
    {
      "midi": 88,
      "hit": false,
      "t": 311577.52450000757,
      "d": 72.81550000002608,
      "v": 47
    },
    {
      "midi": 96,
      "hit": false,
      "t": 311650.3400000076,
      "d": 72.81550000002608,
      "v": 70
    },
    {
      "midi": 41,
      "hit": false,
      "t": 311650.34000000916,
      "d": 54.61162500001956,
      "v": 71
    },
    {
      "midi": 92,
      "hit": false,
      "t": 311723.1555000076,
      "d": 72.81550000002608,
      "v": 47
    },
    {
      "midi": 44,
      "hit": false,
      "t": 311723.1555000092,
      "d": 54.61162500001956,
      "v": 38
    },
    {
      "midi": 89,
      "hit": false,
      "t": 311795.97100000764,
      "d": 72.81550000002608,
      "v": 36
    },
    {
      "midi": 48,
      "hit": false,
      "t": 311795.9710000092,
      "d": 54.61162500001956,
      "v": 50
    },
    {
      "midi": 84,
      "hit": false,
      "t": 311868.78650000767,
      "d": 72.81550000002608,
      "v": 36
    },
    {
      "midi": 53,
      "hit": false,
      "t": 311868.78650000924,
      "d": 54.61162500001956,
      "v": 48
    },
    {
      "midi": 92,
      "hit": false,
      "t": 311941.6020000077,
      "d": 72.81550000002608,
      "v": 68
    },
    {
      "midi": 41,
      "hit": false,
      "t": 311941.60200000927,
      "d": 54.61162500001956,
      "v": 71
    },
    {
      "midi": 89,
      "hit": false,
      "t": 312014.4175000077,
      "d": 72.81550000002608,
      "v": 50
    },
    {
      "midi": 44,
      "hit": false,
      "t": 312014.4175000093,
      "d": 54.61162500001956,
      "v": 58
    },
    {
      "midi": 84,
      "hit": false,
      "t": 312087.23300000775,
      "d": 72.81550000002608,
      "v": 32
    },
    {
      "midi": 48,
      "hit": false,
      "t": 312087.2330000093,
      "d": 54.61162500001956,
      "v": 56
    },
    {
      "midi": 80,
      "hit": false,
      "t": 312160.0485000078,
      "d": 72.81550000002608,
      "v": 29
    },
    {
      "midi": 53,
      "hit": false,
      "t": 312160.04850000935,
      "d": 54.61162500001956,
      "v": 51
    },
    {
      "midi": 89,
      "hit": false,
      "t": 312232.8640000078,
      "d": 72.81550000002608,
      "v": 67
    },
    {
      "midi": 41,
      "hit": false,
      "t": 312232.8640000094,
      "d": 54.61162500001956,
      "v": 71
    },
    {
      "midi": 84,
      "hit": false,
      "t": 312305.6795000078,
      "d": 72.81550000002608,
      "v": 59
    },
    {
      "midi": 44,
      "hit": false,
      "t": 312305.6795000094,
      "d": 54.61162500001956,
      "v": 55
    },
    {
      "midi": 80,
      "hit": false,
      "t": 312378.49500000785,
      "d": 72.81550000002608,
      "v": 58
    },
    {
      "midi": 48,
      "hit": false,
      "t": 312378.4950000094,
      "d": 54.61162500001956,
      "v": 59
    },
    {
      "midi": 77,
      "hit": false,
      "t": 312451.3105000079,
      "d": 72.81550000002608,
      "v": 59
    },
    {
      "midi": 53,
      "hit": false,
      "t": 312451.31050000945,
      "d": 54.61162500001956,
      "v": 54
    },
    {
      "midi": 84,
      "hit": false,
      "t": 312524.1260000079,
      "d": 72.81550000002608,
      "v": 75
    },
    {
      "midi": 41,
      "hit": false,
      "t": 312524.1260000095,
      "d": 54.61162500001956,
      "v": 71
    },
    {
      "midi": 80,
      "hit": false,
      "t": 312596.94150000793,
      "d": 72.81550000002608,
      "v": 58
    },
    {
      "midi": 44,
      "hit": false,
      "t": 312596.9415000095,
      "d": 54.61162500001956,
      "v": 55
    },
    {
      "midi": 77,
      "hit": false,
      "t": 312669.75700000796,
      "d": 72.81550000002608,
      "v": 56
    },
    {
      "midi": 48,
      "hit": false,
      "t": 312669.75700000953,
      "d": 54.61162500001956,
      "v": 59
    },
    {
      "midi": 72,
      "hit": false,
      "t": 312742.572500008,
      "d": 72.81550000002608,
      "v": 44
    },
    {
      "midi": 53,
      "hit": false,
      "t": 312742.57250000956,
      "d": 54.61162500001956,
      "v": 51
    },
    {
      "midi": 80,
      "hit": false,
      "t": 312815.388000008,
      "d": 72.81550000002608,
      "v": 74
    },
    {
      "midi": 41,
      "hit": false,
      "t": 312815.3880000096,
      "d": 54.61162500001956,
      "v": 71
    },
    {
      "midi": 77,
      "hit": false,
      "t": 312888.20350000804,
      "d": 72.81550000002608,
      "v": 56
    },
    {
      "midi": 44,
      "hit": false,
      "t": 312888.2035000096,
      "d": 54.61162500001956,
      "v": 50
    },
    {
      "midi": 72,
      "hit": false,
      "t": 312961.01900000806,
      "d": 72.81550000002608,
      "v": 25
    },
    {
      "midi": 48,
      "hit": false,
      "t": 312961.01900000963,
      "d": 54.61162500001956,
      "v": 56
    },
    {
      "midi": 68,
      "hit": false,
      "t": 313033.8345000081,
      "d": 72.81550000002608,
      "v": 58
    },
    {
      "midi": 53,
      "hit": false,
      "t": 313033.83450000966,
      "d": 54.61162500001956,
      "v": 54
    },
    {
      "midi": 77,
      "hit": false,
      "t": 313106.6500000081,
      "d": 72.81550000002608,
      "v": 70
    },
    {
      "midi": 41,
      "hit": false,
      "t": 313106.6500000097,
      "d": 54.61162500001956,
      "v": 71
    },
    {
      "midi": 72,
      "hit": false,
      "t": 313179.46550000814,
      "d": 72.81550000002608,
      "v": 47
    },
    {
      "midi": 44,
      "hit": false,
      "t": 313179.4655000097,
      "d": 54.61162500001956,
      "v": 63
    },
    {
      "midi": 68,
      "hit": false,
      "t": 313252.28100000817,
      "d": 72.81550000002608,
      "v": 47
    },
    {
      "midi": 48,
      "hit": false,
      "t": 313252.28100000974,
      "d": 54.61162500001956,
      "v": 56
    },
    {
      "midi": 65,
      "hit": false,
      "t": 313325.0965000082,
      "d": 72.81550000002608,
      "v": 50
    },
    {
      "midi": 53,
      "hit": false,
      "t": 313325.09650000976,
      "d": 54.61162500001956,
      "v": 54
    },
    {
      "midi": 72,
      "hit": false,
      "t": 313397.9120000082,
      "d": 72.81550000002608,
      "v": 67
    },
    {
      "midi": 41,
      "hit": false,
      "t": 313397.9120000098,
      "d": 54.61162500001956,
      "v": 74
    },
    {
      "midi": 68,
      "hit": false,
      "t": 313470.72750000824,
      "d": 72.81550000002608,
      "v": 55
    },
    {
      "midi": 44,
      "hit": false,
      "t": 313470.7275000098,
      "d": 54.61162500001956,
      "v": 50
    },
    {
      "midi": 65,
      "hit": false,
      "t": 313543.54300000827,
      "d": 72.81550000002608,
      "v": 44
    },
    {
      "midi": 48,
      "hit": false,
      "t": 313543.54300000984,
      "d": 54.61162500001956,
      "v": 52
    },
    {
      "midi": 60,
      "hit": false,
      "t": 313616.3585000083,
      "d": 72.81550000002608,
      "v": 44
    },
    {
      "midi": 53,
      "hit": false,
      "t": 313616.35850000987,
      "d": 54.61162500001956,
      "v": 54
    },
    {
      "midi": 68,
      "hit": false,
      "t": 313689.1740000083,
      "d": 72.81550000002608,
      "v": 68
    },
    {
      "midi": 41,
      "hit": false,
      "t": 313689.1740000099,
      "d": 54.61162500001956,
      "v": 71
    },
    {
      "midi": 65,
      "hit": false,
      "t": 313761.98950000835,
      "d": 72.81550000002608,
      "v": 52
    },
    {
      "midi": 44,
      "hit": false,
      "t": 313761.9895000099,
      "d": 54.61162500001956,
      "v": 63
    },
    {
      "midi": 60,
      "hit": false,
      "t": 313834.8050000084,
      "d": 72.81550000002608,
      "v": 52
    },
    {
      "midi": 48,
      "hit": false,
      "t": 313834.80500000995,
      "d": 54.61162500001956,
      "v": 56
    },
    {
      "midi": 56,
      "hit": false,
      "t": 313907.6205000084,
      "d": 72.81550000002608,
      "v": 51
    },
    {
      "midi": 53,
      "hit": false,
      "t": 313907.62050001,
      "d": 54.61162500001956,
      "v": 56
    },
    {
      "midi": 65,
      "hit": false,
      "t": 313980.4360000084,
      "d": 72.81550000002608,
      "v": 62
    },
    {
      "midi": 41,
      "hit": false,
      "t": 313980.43600001,
      "d": 54.61162500001956,
      "v": 74
    },
    {
      "midi": 60,
      "hit": false,
      "t": 314053.25150000845,
      "d": 72.81550000002608,
      "v": 52
    },
    {
      "midi": 44,
      "hit": false,
      "t": 314053.25150001,
      "d": 54.61162500001956,
      "v": 58
    },
    {
      "midi": 56,
      "hit": false,
      "t": 314126.0670000085,
      "d": 72.81550000002608,
      "v": 54
    },
    {
      "midi": 48,
      "hit": false,
      "t": 314126.06700001005,
      "d": 54.61162500001956,
      "v": 52
    },
    {
      "midi": 53,
      "hit": false,
      "t": 314198.8825000085,
      "d": 72.81550000002608,
      "v": 60
    },
    {
      "midi": 53,
      "hit": false,
      "t": 314198.8825000101,
      "d": 54.61162500001956,
      "v": 60
    },
    {
      "midi": 60,
      "hit": false,
      "t": 314271.69800000853,
      "d": 72.81550000002608,
      "v": 70
    },
    {
      "midi": 41,
      "hit": false,
      "t": 314271.6980000101,
      "d": 54.61162500001956,
      "v": 71
    },
    {
      "midi": 56,
      "hit": false,
      "t": 314344.51350000856,
      "d": 72.81550000002608,
      "v": 62
    },
    {
      "midi": 44,
      "hit": false,
      "t": 314344.5135000101,
      "d": 54.61162500001956,
      "v": 55
    },
    {
      "midi": 53,
      "hit": false,
      "t": 314417.3290000086,
      "d": 72.81550000002608,
      "v": 63
    },
    {
      "midi": 48,
      "hit": false,
      "t": 314417.32900001016,
      "d": 54.61162500001956,
      "v": 56
    },
    {
      "midi": 48,
      "hit": false,
      "t": 314490.1445000086,
      "d": 72.81550000002608,
      "v": 52
    },
    {
      "midi": 53,
      "hit": false,
      "t": 314490.1445000102,
      "d": 54.61162500001956,
      "v": 56
    },
    {
      "midi": 56,
      "hit": false,
      "t": 314562.96000000864,
      "d": 72.81550000002608,
      "v": 78
    },
    {
      "midi": 41,
      "hit": false,
      "t": 314562.9600000102,
      "d": 54.61162500001956,
      "v": 74
    },
    {
      "midi": 53,
      "hit": false,
      "t": 314635.77550000866,
      "d": 72.81550000002608,
      "v": 54
    },
    {
      "midi": 44,
      "hit": false,
      "t": 314635.77550001023,
      "d": 54.61162500001956,
      "v": 63
    },
    {
      "midi": 48,
      "hit": false,
      "t": 314708.5910000087,
      "d": 72.81550000002608,
      "v": 47
    },
    {
      "midi": 48,
      "hit": false,
      "t": 314708.59100001026,
      "d": 54.61162500001956,
      "v": 52
    },
    {
      "midi": 44,
      "hit": false,
      "t": 314781.4065000087,
      "d": 72.81550000002608,
      "v": 58
    },
    {
      "midi": 53,
      "hit": false,
      "t": 314781.4065000103,
      "d": 54.61162500001956,
      "v": 45
    },
    {
      "midi": 53,
      "hit": false,
      "t": 314854.22200000874,
      "d": 72.81550000002608,
      "v": 63
    },
    {
      "midi": 41,
      "hit": false,
      "t": 314854.2220000103,
      "d": 54.61162500001956,
      "v": 66
    },
    {
      "midi": 48,
      "hit": false,
      "t": 314927.03750000877,
      "d": 72.81550000002608,
      "v": 62
    },
    {
      "midi": 44,
      "hit": false,
      "t": 314927.03750001034,
      "d": 54.61162500001956,
      "v": 55
    },
    {
      "midi": 44,
      "hit": false,
      "t": 314999.8530000088,
      "d": 72.81550000002608,
      "v": 68
    },
    {
      "midi": 48,
      "hit": false,
      "t": 314999.85300001036,
      "d": 54.61162500001956,
      "v": 59
    },
    {
      "midi": 48,
      "hit": false,
      "t": 315072.6685000088,
      "d": 72.81550000002608,
      "v": 67
    },
    {
      "midi": 53,
      "hit": false,
      "t": 315072.6685000104,
      "d": 54.61162500001956,
      "v": 56
    },
    {
      "midi": 44,
      "hit": false,
      "t": 315145.48400000884,
      "d": 145.63099999999395,
      "v": 58
    },
    {
      "midi": 48,
      "hit": false,
      "t": 315145.48400000884,
      "d": 145.63099999999395,
      "v": 56
    },
    {
      "midi": 53,
      "hit": false,
      "t": 315145.48400000884,
      "d": 145.63099999999395,
      "v": 54
    },
    {
      "midi": 29,
      "hit": false,
      "t": 315145.4840000104,
      "d": 109.22324999998091,
      "v": 66
    },
    {
      "midi": 32,
      "hit": false,
      "t": 315145.4840000104,
      "d": 109.22324999998091,
      "v": 74
    },
    {
      "midi": 36,
      "hit": false,
      "t": 315145.4840000104,
      "d": 109.22324999998091,
      "v": 67
    },
    {
      "midi": 41,
      "hit": false,
      "t": 315145.4840000104,
      "d": 109.22324999998091,
      "v": 74
    },
    {
      "midi": 65,
      "hit": false,
      "t": 315728.0080000088,
      "d": 145.63099999999395,
      "v": 62
    },
    {
      "midi": 68,
      "hit": false,
      "t": 315728.0080000088,
      "d": 145.63099999999395,
      "v": 75
    },
    {
      "midi": 72,
      "hit": false,
      "t": 315728.0080000088,
      "d": 145.63099999999395,
      "v": 74
    },
    {
      "midi": 77,
      "hit": false,
      "t": 315728.0080000088,
      "d": 145.63099999999395,
      "v": 74
    },
    {
      "midi": 29,
      "hit": false,
      "t": 315728.0080000104,
      "d": 145.63099999999395,
      "v": 84
    },
    {
      "midi": 32,
      "hit": false,
      "t": 315728.0080000104,
      "d": 145.63099999999395,
      "v": 86
    },
    {
      "midi": 36,
      "hit": false,
      "t": 315728.0080000104,
      "d": 145.63099999999395,
      "v": 80
    },
    {
      "midi": 41,
      "hit": false,
      "t": 315728.0080000104,
      "d": 145.63099999999395,
      "v": 84
    },
    {
      "midi": 53,
      "hit": false,
      "t": 316310.5320000088,
      "d": 145.63099999999395,
      "v": 56
    },
    {
      "midi": 56,
      "hit": false,
      "t": 316310.5320000088,
      "d": 145.63099999999395,
      "v": 67
    },
    {
      "midi": 60,
      "hit": false,
      "t": 316310.5320000088,
      "d": 145.63099999999395,
      "v": 70
    },
    {
      "midi": 65,
      "hit": false,
      "t": 316310.5320000088,
      "d": 145.63099999999395,
      "v": 62
    },
    {
      "midi": 29,
      "hit": false,
      "t": 316310.53200001037,
      "d": 145.63099999999395,
      "v": 84
    },
    {
      "midi": 32,
      "hit": false,
      "t": 316310.53200001037,
      "d": 145.63099999999395,
      "v": 80
    },
    {
      "midi": 36,
      "hit": false,
      "t": 316310.53200001037,
      "d": 145.63099999999395,
      "v": 80
    },
    {
      "midi": 41,
      "hit": false,
      "t": 316310.53200001037,
      "d": 145.63099999999395,
      "v": 90
    }
  ]
}