{
  "jsonPath": "Classical/Classical Performance/Emil Gilels/3-das-wiedersehn-vivacissimamente.json",
  "path": "Classical\\Classical Performance\\Emil Gilels\\3 Das Wiedersehn (Vivacissimamente).mid",
  "name": "3 Das Wiedersehn (Vivacissimamente)",
  "difficulty": "Advanced",
  "bpm": 120,
  "notes": [
    {
      "midi": 80,
      "hit": false,
      "t": 0,
      "d": 91.889,
      "v": 77
    },
    {
      "midi": 86,
      "hit": false,
      "t": 0,
      "d": 91.889,
      "v": 77
    },
    {
      "midi": 89,
      "hit": false,
      "t": 0,
      "d": 91.889,
      "v": 77
    },
    {
      "midi": 92,
      "hit": false,
      "t": 0,
      "d": 91.889,
      "v": 88
    },
    {
      "midi": 58,
      "hit": false,
      "t": 0,
      "d": 91.889,
      "v": 66
    },
    {
      "midi": 62,
      "hit": false,
      "t": 0,
      "d": 91.889,
      "v": 66
    },
    {
      "midi": 65,
      "hit": false,
      "t": 0,
      "d": 91.889,
      "v": 66
    },
    {
      "midi": 68,
      "hit": false,
      "t": 0,
      "d": 91.889,
      "v": 75
    },
    {
      "midi": 58,
      "hit": false,
      "t": 183.778,
      "d": 91.88899999999998,
      "v": 66
    },
    {
      "midi": 46,
      "hit": false,
      "t": 183.778,
      "d": 91.88899999999998,
      "v": 60
    },
    {
      "midi": 57,
      "hit": false,
      "t": 275.667,
      "d": 91.88900000000001,
      "v": 57
    },
    {
      "midi": 50,
      "hit": false,
      "t": 275.667,
      "d": 91.88900000000001,
      "v": 50
    },
    {
      "midi": 58,
      "hit": false,
      "t": 367.556,
      "d": 91.88900000000001,
      "v": 57
    },
    {
      "midi": 46,
      "hit": false,
      "t": 367.556,
      "d": 91.88900000000001,
      "v": 60
    },
    {
      "midi": 62,
      "hit": false,
      "t": 459.445,
      "d": 91.88899999999995,
      "v": 56
    },
    {
      "midi": 50,
      "hit": false,
      "t": 459.445,
      "d": 91.88899999999995,
      "v": 51
    },
    {
      "midi": 65,
      "hit": false,
      "t": 551.334,
      "d": 91.88900000000001,
      "v": 67
    },
    {
      "midi": 50,
      "hit": false,
      "t": 551.334,
      "d": 91.88900000000001,
      "v": 59
    },
    {
      "midi": 62,
      "hit": false,
      "t": 643.223,
      "d": 91.88900000000001,
      "v": 56
    },
    {
      "midi": 53,
      "hit": false,
      "t": 643.223,
      "d": 91.88900000000001,
      "v": 52
    },
    {
      "midi": 65,
      "hit": false,
      "t": 735.112,
      "d": 91.88900000000001,
      "v": 54
    },
    {
      "midi": 50,
      "hit": false,
      "t": 735.112,
      "d": 91.88900000000001,
      "v": 59
    },
    {
      "midi": 68,
      "hit": false,
      "t": 827.001,
      "d": 91.88900000000001,
      "v": 55
    },
    {
      "midi": 53,
      "hit": false,
      "t": 827.001,
      "d": 91.88900000000001,
      "v": 52
    },
    {
      "midi": 65,
      "hit": false,
      "t": 918.89,
      "d": 91.88900000000001,
      "v": 55
    },
    {
      "midi": 50,
      "hit": false,
      "t": 918.89,
      "d": 91.88900000000001,
      "v": 59
    },
    {
      "midi": 62,
      "hit": false,
      "t": 1010.779,
      "d": 91.8889999999999,
      "v": 55
    },
    {
      "midi": 53,
      "hit": false,
      "t": 1010.779,
      "d": 91.8889999999999,
      "v": 51
    },
    {
      "midi": 68,
      "hit": false,
      "t": 1102.668,
      "d": 91.8889999999999,
      "v": 65
    },
    {
      "midi": 53,
      "hit": false,
      "t": 1102.668,
      "d": 91.8889999999999,
      "v": 59
    },
    {
      "midi": 65,
      "hit": false,
      "t": 1194.5569999999998,
      "d": 91.8889999999999,
      "v": 56
    },
    {
      "midi": 56,
      "hit": false,
      "t": 1194.5569999999998,
      "d": 91.8889999999999,
      "v": 51
    },
    {
      "midi": 68,
      "hit": false,
      "t": 1286.4459999999997,
      "d": 91.8889999999999,
      "v": 57
    },
    {
      "midi": 53,
      "hit": false,
      "t": 1286.4459999999997,
      "d": 91.8889999999999,
      "v": 59
    },
    {
      "midi": 70,
      "hit": false,
      "t": 1378.3349999999996,
      "d": 91.8889999999999,
      "v": 56
    },
    {
      "midi": 56,
      "hit": false,
      "t": 1378.3349999999996,
      "d": 91.8889999999999,
      "v": 50
    },
    {
      "midi": 68,
      "hit": false,
      "t": 1470.2239999999995,
      "d": 91.8889999999999,
      "v": 55
    },
    {
      "midi": 53,
      "hit": false,
      "t": 1470.2239999999995,
      "d": 91.8889999999999,
      "v": 58
    },
    {
      "midi": 65,
      "hit": false,
      "t": 1562.1129999999994,
      "d": 91.8889999999999,
      "v": 55
    },
    {
      "midi": 56,
      "hit": false,
      "t": 1562.1129999999994,
      "d": 91.8889999999999,
      "v": 50
    },
    {
      "midi": 70,
      "hit": false,
      "t": 1654.0019999999993,
      "d": 91.8889999999999,
      "v": 67
    },
    {
      "midi": 58,
      "hit": false,
      "t": 1654.0019999999993,
      "d": 91.8889999999999,
      "v": 58
    },
    {
      "midi": 68,
      "hit": false,
      "t": 1745.8909999999992,
      "d": 91.8889999999999,
      "v": 55
    },
    {
      "midi": 62,
      "hit": false,
      "t": 1745.8909999999992,
      "d": 91.8889999999999,
      "v": 50
    },
    {
      "midi": 70,
      "hit": false,
      "t": 1837.779999999999,
      "d": 91.8889999999999,
      "v": 55
    },
    {
      "midi": 58,
      "hit": false,
      "t": 1837.779999999999,
      "d": 91.8889999999999,
      "v": 58
    },
    {
      "midi": 74,
      "hit": false,
      "t": 1929.668999999999,
      "d": 91.8889999999999,
      "v": 55
    },
    {
      "midi": 62,
      "hit": false,
      "t": 1929.668999999999,
      "d": 91.8889999999999,
      "v": 50
    },
    {
      "midi": 70,
      "hit": false,
      "t": 2021.5579999999989,
      "d": 91.8889999999999,
      "v": 55
    },
    {
      "midi": 58,
      "hit": false,
      "t": 2021.5579999999989,
      "d": 91.8889999999999,
      "v": 58
    },
    {
      "midi": 68,
      "hit": false,
      "t": 2113.4469999999988,
      "d": 91.88900000000012,
      "v": 55
    },
    {
      "midi": 62,
      "hit": false,
      "t": 2113.4469999999988,
      "d": 91.88900000000012,
      "v": 51
    },
    {
      "midi": 77,
      "hit": false,
      "t": 2205.335999999999,
      "d": 91.88900000000012,
      "v": 64
    },
    {
      "midi": 62,
      "hit": false,
      "t": 2205.335999999999,
      "d": 91.88900000000012,
      "v": 57
    },
    {
      "midi": 74,
      "hit": false,
      "t": 2297.224999999999,
      "d": 91.88900000000012,
      "v": 54
    },
    {
      "midi": 65,
      "hit": false,
      "t": 2297.224999999999,
      "d": 91.88900000000012,
      "v": 50
    },
    {
      "midi": 77,
      "hit": false,
      "t": 2389.113999999999,
      "d": 91.88900000000012,
      "v": 55
    },
    {
      "midi": 62,
      "hit": false,
      "t": 2389.113999999999,
      "d": 91.88900000000012,
      "v": 57
    },
    {
      "midi": 80,
      "hit": false,
      "t": 2481.0029999999992,
      "d": 91.88900000000012,
      "v": 55
    },
    {
      "midi": 65,
      "hit": false,
      "t": 2481.0029999999992,
      "d": 91.88900000000012,
      "v": 49
    },
    {
      "midi": 77,
      "hit": false,
      "t": 2572.8919999999994,
      "d": 91.88900000000012,
      "v": 54
    },
    {
      "midi": 62,
      "hit": false,
      "t": 2572.8919999999994,
      "d": 91.88900000000012,
      "v": 57
    },
    {
      "midi": 74,
      "hit": false,
      "t": 2664.7809999999995,
      "d": 91.88900000000012,
      "v": 54
    },
    {
      "midi": 65,
      "hit": false,
      "t": 2664.7809999999995,
      "d": 91.88900000000012,
      "v": 48
    },
    {
      "midi": 80,
      "hit": false,
      "t": 2756.6699999999996,
      "d": 91.88900000000012,
      "v": 65
    },
    {
      "midi": 65,
      "hit": false,
      "t": 2756.6699999999996,
      "d": 91.88900000000012,
      "v": 57
    },
    {
      "midi": 77,
      "hit": false,
      "t": 2848.5589999999997,
      "d": 91.88900000000012,
      "v": 54
    },
    {
      "midi": 68,
      "hit": false,
      "t": 2848.5589999999997,
      "d": 91.88900000000012,
      "v": 48
    },
    {
      "midi": 80,
      "hit": false,
      "t": 2940.448,
      "d": 91.88900000000012,
      "v": 54
    },
    {
      "midi": 65,
      "hit": false,
      "t": 2940.448,
      "d": 91.88900000000012,
      "v": 57
    },
    {
      "midi": 82,
      "hit": false,
      "t": 3032.337,
      "d": 91.88900000000012,
      "v": 54
    },
    {
      "midi": 68,
      "hit": false,
      "t": 3032.337,
      "d": 91.88900000000012,
      "v": 49
    },
    {
      "midi": 80,
      "hit": false,
      "t": 3124.226,
      "d": 91.88900000000012,
      "v": 53
    },
    {
      "midi": 65,
      "hit": false,
      "t": 3124.226,
      "d": 91.88900000000012,
      "v": 56
    },
    {
      "midi": 77,
      "hit": false,
      "t": 3216.1150000000002,
      "d": 91.88900000000012,
      "v": 53
    },
    {
      "midi": 68,
      "hit": false,
      "t": 3216.1150000000002,
      "d": 91.88900000000012,
      "v": 50
    },
    {
      "midi": 82,
      "hit": false,
      "t": 3308.0040000000004,
      "d": 91.88900000000012,
      "v": 62
    },
    {
      "midi": 74,
      "hit": false,
      "t": 3308.0040000000004,
      "d": 91.88900000000012,
      "v": 56
    },
    {
      "midi": 80,
      "hit": false,
      "t": 3399.8930000000005,
      "d": 91.88900000000012,
      "v": 53
    },
    {
      "midi": 77,
      "hit": false,
      "t": 3399.8930000000005,
      "d": 91.88900000000012,
      "v": 49
    },
    {
      "midi": 82,
      "hit": false,
      "t": 3491.7820000000006,
      "d": 91.88900000000012,
      "v": 54
    },
    {
      "midi": 74,
      "hit": false,
      "t": 3491.7820000000006,
      "d": 91.88900000000012,
      "v": 56
    },
    {
      "midi": 86,
      "hit": false,
      "t": 3583.6710000000007,
      "d": 91.88900000000012,
      "v": 54
    },
    {
      "midi": 77,
      "hit": false,
      "t": 3583.6710000000007,
      "d": 91.88900000000012,
      "v": 47
    },
    {
      "midi": 82,
      "hit": false,
      "t": 3675.560000000001,
      "d": 91.88900000000012,
      "v": 53
    },
    {
      "midi": 74,
      "hit": false,
      "t": 3675.560000000001,
      "d": 91.88900000000012,
      "v": 56
    },
    {
      "midi": 80,
      "hit": false,
      "t": 3767.449000000001,
      "d": 91.88900000000012,
      "v": 53
    },
    {
      "midi": 77,
      "hit": false,
      "t": 3767.449000000001,
      "d": 91.88900000000012,
      "v": 47
    },
    {
      "midi": 86,
      "hit": false,
      "t": 3859.338000000001,
      "d": 91.88900000000012,
      "v": 64
    },
    {
      "midi": 77,
      "hit": false,
      "t": 3859.338000000001,
      "d": 91.88900000000012,
      "v": 56
    },
    {
      "midi": 82,
      "hit": false,
      "t": 3951.227000000001,
      "d": 91.88900000000012,
      "v": 53
    },
    {
      "midi": 80,
      "hit": false,
      "t": 3951.227000000001,
      "d": 91.88900000000012,
      "v": 47
    },
    {
      "midi": 86,
      "hit": false,
      "t": 4043.1160000000013,
      "d": 91.88899999999967,
      "v": 52
    },
    {
      "midi": 77,
      "hit": false,
      "t": 4043.1160000000013,
      "d": 91.88899999999967,
      "v": 55
    },
    {
      "midi": 89,
      "hit": false,
      "t": 4135.005000000001,
      "d": 91.88900000000012,
      "v": 52
    },
    {
      "midi": 80,
      "hit": false,
      "t": 4135.005000000001,
      "d": 91.88900000000012,
      "v": 48
    },
    {
      "midi": 86,
      "hit": false,
      "t": 4226.894000000001,
      "d": 91.88900000000012,
      "v": 52
    },
    {
      "midi": 77,
      "hit": false,
      "t": 4226.894000000001,
      "d": 91.88900000000012,
      "v": 55
    },
    {
      "midi": 82,
      "hit": false,
      "t": 4318.783000000001,
      "d": 91.88900000000012,
      "v": 52
    },
    {
      "midi": 80,
      "hit": false,
      "t": 4318.783000000001,
      "d": 91.88900000000012,
      "v": 49
    },
    {
      "midi": 89,
      "hit": false,
      "t": 4410.672000000001,
      "d": 91.88900000000012,
      "v": 57
    },
    {
      "midi": 86,
      "hit": false,
      "t": 4502.5610000000015,
      "d": 91.88900000000012,
      "v": 49
    },
    {
      "midi": 89,
      "hit": false,
      "t": 4594.450000000002,
      "d": 91.88900000000012,
      "v": 50
    },
    {
      "midi": 92,
      "hit": false,
      "t": 4686.339000000002,
      "d": 91.88900000000012,
      "v": 49
    },
    {
      "midi": 80,
      "hit": false,
      "t": 4778.228000000001,
      "d": 183.77800000000025,
      "v": 33
    },
    {
      "midi": 77,
      "hit": false,
      "t": 4778.228000000001,
      "d": 551.3339999999998,
      "v": 33
    },
    {
      "midi": 89,
      "hit": false,
      "t": 4778.228000000002,
      "d": 91.88900000000012,
      "v": 48
    },
    {
      "midi": 86,
      "hit": false,
      "t": 4870.117000000002,
      "d": 91.88900000000012,
      "v": 48
    },
    {
      "midi": 74,
      "hit": false,
      "t": 4962.006000000001,
      "d": 367.5559999999996,
      "v": 38
    },
    {
      "midi": 82,
      "hit": false,
      "t": 4962.006000000002,
      "d": 91.88900000000012,
      "v": 58
    },
    {
      "midi": 81,
      "hit": false,
      "t": 5053.895000000002,
      "d": 91.88900000000012,
      "v": 48
    },
    {
      "midi": 82,
      "hit": false,
      "t": 5145.784000000002,
      "d": 91.88900000000012,
      "v": 47
    },
    {
      "midi": 86,
      "hit": false,
      "t": 5237.6730000000025,
      "d": 91.88900000000012,
      "v": 47
    },
    {
      "midi": 89,
      "hit": false,
      "t": 5329.562000000003,
      "d": 91.88900000000012,
      "v": 47
    },
    {
      "midi": 86,
      "hit": false,
      "t": 5421.451000000003,
      "d": 91.88900000000012,
      "v": 47
    },
    {
      "midi": 89,
      "hit": false,
      "t": 5513.340000000003,
      "d": 91.88900000000012,
      "v": 54
    },
    {
      "midi": 86,
      "hit": false,
      "t": 5605.229000000003,
      "d": 91.88900000000012,
      "v": 46
    },
    {
      "midi": 89,
      "hit": false,
      "t": 5697.118000000003,
      "d": 91.88900000000012,
      "v": 47
    },
    {
      "midi": 92,
      "hit": false,
      "t": 5789.007000000003,
      "d": 91.88900000000012,
      "v": 47
    },
    {
      "midi": 80,
      "hit": false,
      "t": 5880.896000000001,
      "d": 183.77800000000025,
      "v": 32
    },
    {
      "midi": 77,
      "hit": false,
      "t": 5880.896000000001,
      "d": 551.3339999999998,
      "v": 32
    },
    {
      "midi": 89,
      "hit": false,
      "t": 5880.896000000003,
      "d": 91.88900000000012,
      "v": 46
    },
    {
      "midi": 86,
      "hit": false,
      "t": 5972.7850000000035,
      "d": 91.88900000000012,
      "v": 45
    },
    {
      "midi": 74,
      "hit": false,
      "t": 6064.674000000001,
      "d": 367.5559999999996,
      "v": 36
    },
    {
      "midi": 82,
      "hit": false,
      "t": 6064.674000000004,
      "d": 91.88900000000012,
      "v": 55
    },
    {
      "midi": 81,
      "hit": false,
      "t": 6156.563000000004,
      "d": 91.88900000000012,
      "v": 45
    },
    {
      "midi": 82,
      "hit": false,
      "t": 6248.452000000004,
      "d": 91.88900000000012,
      "v": 45
    },
    {
      "midi": 86,
      "hit": false,
      "t": 6340.341000000004,
      "d": 91.88900000000012,
      "v": 45
    },
    {
      "midi": 89,
      "hit": false,
      "t": 6432.230000000004,
      "d": 91.88900000000012,
      "v": 44
    },
    {
      "midi": 86,
      "hit": false,
      "t": 6524.119000000004,
      "d": 91.88900000000012,
      "v": 44
    },
    {
      "midi": 77,
      "hit": false,
      "t": 6616.008000000004,
      "d": 91.88900000000012,
      "v": 51
    },
    {
      "midi": 74,
      "hit": false,
      "t": 6707.8970000000045,
      "d": 91.88900000000012,
      "v": 44
    },
    {
      "midi": 77,
      "hit": false,
      "t": 6799.786000000005,
      "d": 91.88900000000012,
      "v": 45
    },
    {
      "midi": 80,
      "hit": false,
      "t": 6891.675000000005,
      "d": 91.88900000000012,
      "v": 44
    },
    {
      "midi": 68,
      "hit": false,
      "t": 6983.564,
      "d": 183.77800000000025,
      "v": 30
    },
    {
      "midi": 65,
      "hit": false,
      "t": 6983.564,
      "d": 551.3339999999998,
      "v": 30
    },
    {
      "midi": 77,
      "hit": false,
      "t": 6983.564000000005,
      "d": 91.88900000000012,
      "v": 43
    },
    {
      "midi": 74,
      "hit": false,
      "t": 7075.453000000005,
      "d": 91.88900000000012,
      "v": 43
    },
    {
      "midi": 62,
      "hit": false,
      "t": 7167.342000000001,
      "d": 367.5559999999996,
      "v": 34
    },
    {
      "midi": 70,
      "hit": false,
      "t": 7167.342000000005,
      "d": 91.88900000000012,
      "v": 52
    },
    {
      "midi": 69,
      "hit": false,
      "t": 7259.231000000005,
      "d": 91.88900000000012,
      "v": 43
    },
    {
      "midi": 70,
      "hit": false,
      "t": 7351.120000000005,
      "d": 91.88900000000012,
      "v": 42
    },
    {
      "midi": 74,
      "hit": false,
      "t": 7443.0090000000055,
      "d": 91.88900000000012,
      "v": 42
    },
    {
      "midi": 77,
      "hit": false,
      "t": 7534.898000000006,
      "d": 91.88900000000012,
      "v": 42
    },
    {
      "midi": 74,
      "hit": false,
      "t": 7626.787000000006,
      "d": 91.88900000000012,
      "v": 42
    },
    {
      "midi": 77,
      "hit": false,
      "t": 7718.676000000006,
      "d": 91.88900000000012,
      "v": 48
    },
    {
      "midi": 74,
      "hit": false,
      "t": 7810.565000000006,
      "d": 91.88900000000012,
      "v": 41
    },
    {
      "midi": 77,
      "hit": false,
      "t": 7902.454000000006,
      "d": 91.88900000000012,
      "v": 42
    },
    {
      "midi": 80,
      "hit": false,
      "t": 7994.343000000006,
      "d": 91.88900000000012,
      "v": 41
    },
    {
      "midi": 68,
      "hit": false,
      "t": 8086.232,
      "d": 183.77800000000025,
      "v": 28
    },
    {
      "midi": 65,
      "hit": false,
      "t": 8086.232,
      "d": 551.3340000000007,
      "v": 28
    },
    {
      "midi": 77,
      "hit": false,
      "t": 8086.232000000006,
      "d": 91.88900000000012,
      "v": 41
    },
    {
      "midi": 74,
      "hit": false,
      "t": 8178.1210000000065,
      "d": 91.88899999999921,
      "v": 40
    },
    {
      "midi": 62,
      "hit": false,
      "t": 8270.01,
      "d": 367.5560000000005,
      "v": 31
    },
    {
      "midi": 70,
      "hit": false,
      "t": 8270.010000000006,
      "d": 91.88899999999921,
      "v": 49
    },
    {
      "midi": 69,
      "hit": false,
      "t": 8361.899000000005,
      "d": 91.88899999999921,
      "v": 40
    },
    {
      "midi": 70,
      "hit": false,
      "t": 8453.788000000004,
      "d": 91.88899999999921,
      "v": 40
    },
    {
      "midi": 74,
      "hit": false,
      "t": 8545.677000000003,
      "d": 91.88899999999921,
      "v": 40
    },
    {
      "midi": 77,
      "hit": false,
      "t": 8637.566000000003,
      "d": 91.88899999999921,
      "v": 39
    },
    {
      "midi": 74,
      "hit": false,
      "t": 8729.455000000002,
      "d": 91.88899999999921,
      "v": 39
    },
    {
      "midi": 68,
      "hit": false,
      "t": 8821.344000000001,
      "d": 91.88899999999921,
      "v": 77
    },
    {
      "midi": 74,
      "hit": false,
      "t": 8821.344000000001,
      "d": 91.88899999999921,
      "v": 77
    },
    {
      "midi": 77,
      "hit": false,
      "t": 8821.344000000001,
      "d": 91.88899999999921,
      "v": 77
    },
    {
      "midi": 80,
      "hit": false,
      "t": 8821.344000000001,
      "d": 91.88899999999921,
      "v": 88
    },
    {
      "midi": 46,
      "hit": false,
      "t": 8821.344000000001,
      "d": 91.88899999999921,
      "v": 66
    },
    {
      "midi": 50,
      "hit": false,
      "t": 8821.344000000001,
      "d": 91.88899999999921,
      "v": 66
    },
    {
      "midi": 53,
      "hit": false,
      "t": 8821.344000000001,
      "d": 91.88899999999921,
      "v": 66
    },
    {
      "midi": 58,
      "hit": false,
      "t": 8821.344000000001,
      "d": 91.88899999999921,
      "v": 75
    },
    {
      "midi": 58,
      "hit": false,
      "t": 9005.122,
      "d": 91.88899999999921,
      "v": 66
    },
    {
      "midi": 46,
      "hit": false,
      "t": 9005.122,
      "d": 91.88899999999921,
      "v": 60
    },
    {
      "midi": 57,
      "hit": false,
      "t": 9097.010999999999,
      "d": 91.88899999999921,
      "v": 57
    },
    {
      "midi": 58,
      "hit": false,
      "t": 9188.899999999998,
      "d": 91.88899999999921,
      "v": 56
    },
    {
      "midi": 46,
      "hit": false,
      "t": 9188.899999999998,
      "d": 91.88899999999921,
      "v": 59
    },
    {
      "midi": 57,
      "hit": false,
      "t": 9280.788999999997,
      "d": 91.88899999999921,
      "v": 54
    },
    {
      "midi": 60,
      "hit": false,
      "t": 9372.677999999996,
      "d": 91.88899999999921,
      "v": 64
    },
    {
      "midi": 50,
      "hit": false,
      "t": 9372.677999999996,
      "d": 91.88899999999921,
      "v": 57
    },
    {
      "midi": 58,
      "hit": false,
      "t": 9464.566999999995,
      "d": 91.88899999999921,
      "v": 53
    },
    {
      "midi": 63,
      "hit": false,
      "t": 9556.455999999995,
      "d": 91.88899999999921,
      "v": 51
    },
    {
      "midi": 53,
      "hit": false,
      "t": 9556.455999999995,
      "d": 91.88899999999921,
      "v": 56
    },
    {
      "midi": 62,
      "hit": false,
      "t": 9648.344999999994,
      "d": 91.88899999999921,
      "v": 51
    },
    {
      "midi": 67,
      "hit": false,
      "t": 9740.233999999993,
      "d": 91.88899999999921,
      "v": 51
    },
    {
      "midi": 58,
      "hit": false,
      "t": 9740.233999999993,
      "d": 91.88899999999921,
      "v": 54
    },
    {
      "midi": 65,
      "hit": false,
      "t": 9832.122999999992,
      "d": 91.88899999999921,
      "v": 50
    },
    {
      "midi": 70,
      "hit": false,
      "t": 9924.011999999992,
      "d": 91.88899999999921,
      "v": 60
    },
    {
      "midi": 62,
      "hit": false,
      "t": 9924.011999999992,
      "d": 91.88899999999921,
      "v": 54
    },
    {
      "midi": 69,
      "hit": false,
      "t": 10015.90099999999,
      "d": 91.88899999999921,
      "v": 51
    },
    {
      "midi": 72,
      "hit": false,
      "t": 10107.78999999999,
      "d": 91.88899999999921,
      "v": 59
    },
    {
      "midi": 65,
      "hit": false,
      "t": 10107.78999999999,
      "d": 91.88899999999921,
      "v": 54
    },
    {
      "midi": 70,
      "hit": false,
      "t": 10199.67899999999,
      "d": 91.88899999999921,
      "v": 50
    },
    {
      "midi": 75,
      "hit": false,
      "t": 10291.567999999988,
      "d": 91.88899999999921,
      "v": 50
    },
    {
      "midi": 68,
      "hit": false,
      "t": 10291.567999999988,
      "d": 91.88899999999921,
      "v": 52
    },
    {
      "midi": 70,
      "hit": false,
      "t": 10291.567999999988,
      "d": 91.88899999999921,
      "v": 52
    },
    {
      "midi": 74,
      "hit": false,
      "t": 10383.456999999988,
      "d": 91.88899999999921,
      "v": 48
    },
    {
      "midi": 79,
      "hit": false,
      "t": 10475.345999999987,
      "d": 91.88899999999921,
      "v": 57
    },
    {
      "midi": 68,
      "hit": false,
      "t": 10475.345999999987,
      "d": 91.88899999999921,
      "v": 50
    },
    {
      "midi": 70,
      "hit": false,
      "t": 10475.345999999987,
      "d": 91.88899999999921,
      "v": 50
    },
    {
      "midi": 77,
      "hit": false,
      "t": 10567.234999999986,
      "d": 91.88899999999921,
      "v": 47
    },
    {
      "midi": 82,
      "hit": false,
      "t": 10659.123999999985,
      "d": 91.88899999999921,
      "v": 45
    },
    {
      "midi": 68,
      "hit": false,
      "t": 10659.123999999985,
      "d": 91.88899999999921,
      "v": 49
    },
    {
      "midi": 70,
      "hit": false,
      "t": 10659.123999999985,
      "d": 91.88899999999921,
      "v": 49
    },
    {
      "midi": 81,
      "hit": false,
      "t": 10751.012999999984,
      "d": 91.88899999999921,
      "v": 45
    },
    {
      "midi": 84,
      "hit": false,
      "t": 10842.901999999984,
      "d": 91.88899999999921,
      "v": 45
    },
    {
      "midi": 68,
      "hit": false,
      "t": 10842.901999999984,
      "d": 91.88899999999921,
      "v": 48
    },
    {
      "midi": 70,
      "hit": false,
      "t": 10842.901999999984,
      "d": 91.88899999999921,
      "v": 48
    },
    {
      "midi": 82,
      "hit": false,
      "t": 10934.790999999983,
      "d": 91.88899999999921,
      "v": 44
    },
    {
      "midi": 82,
      "hit": false,
      "t": 11026.679999999982,
      "d": 183.77800000000025,
      "v": 45
    },
    {
      "midi": 63,
      "hit": false,
      "t": 11026.679999999982,
      "d": 367.5560000000005,
      "v": 34
    },
    {
      "midi": 67,
      "hit": false,
      "t": 11026.679999999982,
      "d": 367.5560000000005,
      "v": 34
    },
    {
      "midi": 70,
      "hit": false,
      "t": 11026.679999999982,
      "d": 367.5560000000005,
      "v": 40
    },
    {
      "midi": 79,
      "hit": false,
      "t": 11210.457999999982,
      "d": 183.77800000000025,
      "v": 45
    },
    {
      "midi": 75,
      "hit": false,
      "t": 11394.235999999983,
      "d": 183.77800000000025,
      "v": 39
    },
    {
      "midi": 74,
      "hit": false,
      "t": 11578.013999999983,
      "d": 183.77800000000025,
      "v": 45
    },
    {
      "midi": 58,
      "hit": false,
      "t": 11578.013999999983,
      "d": 367.5560000000005,
      "v": 28
    },
    {
      "midi": 65,
      "hit": false,
      "t": 11578.013999999983,
      "d": 367.5560000000005,
      "v": 28
    },
    {
      "midi": 68,
      "hit": false,
      "t": 11578.013999999983,
      "d": 367.5560000000005,
      "v": 28
    },
    {
      "midi": 70,
      "hit": false,
      "t": 11578.013999999983,
      "d": 367.5560000000005,
      "v": 34
    },
    {
      "midi": 77,
      "hit": false,
      "t": 11761.791999999983,
      "d": 183.77800000000025,
      "v": 40
    },
    {
      "midi": 82,
      "hit": false,
      "t": 11945.569999999983,
      "d": 137.83350000000064,
      "v": 40
    },
    {
      "midi": 82,
      "hit": false,
      "t": 12129.347999999984,
      "d": 183.77800000000025,
      "v": 45
    },
    {
      "midi": 63,
      "hit": false,
      "t": 12129.347999999984,
      "d": 367.5560000000005,
      "v": 34
    },
    {
      "midi": 67,
      "hit": false,
      "t": 12129.347999999984,
      "d": 367.5560000000005,
      "v": 34
    },
    {
      "midi": 70,
      "hit": false,
      "t": 12129.347999999984,
      "d": 367.5560000000005,
      "v": 40
    },
    {
      "midi": 79,
      "hit": false,
      "t": 12313.125999999984,
      "d": 183.77800000000025,
      "v": 41
    },
    {
      "midi": 75,
      "hit": false,
      "t": 12496.903999999984,
      "d": 137.83350000000064,
      "v": 41
    },
    {
      "midi": 75,
      "hit": false,
      "t": 12680.681999999984,
      "d": 183.77800000000025,
      "v": 45
    },
    {
      "midi": 79,
      "hit": false,
      "t": 12864.459999999985,
      "d": 183.77800000000025,
      "v": 39
    },
    {
      "midi": 84,
      "hit": false,
      "t": 13048.237999999985,
      "d": 137.83350000000064,
      "v": 51
    },
    {
      "midi": 64,
      "hit": false,
      "t": 13048.237999999985,
      "d": 137.83350000000064,
      "v": 28
    },
    {
      "midi": 67,
      "hit": false,
      "t": 13048.237999999985,
      "d": 137.83350000000064,
      "v": 28
    },
    {
      "midi": 70,
      "hit": false,
      "t": 13048.237999999985,
      "d": 137.83350000000064,
      "v": 28
    },
    {
      "midi": 72,
      "hit": false,
      "t": 13048.237999999985,
      "d": 137.83350000000064,
      "v": 34
    },
    {
      "midi": 84,
      "hit": false,
      "t": 13232.015999999985,
      "d": 183.77800000000025,
      "v": 57
    },
    {
      "midi": 65,
      "hit": false,
      "t": 13232.015999999985,
      "d": 367.5560000000005,
      "v": 34
    },
    {
      "midi": 68,
      "hit": false,
      "t": 13232.015999999985,
      "d": 367.5560000000005,
      "v": 34
    },
    {
      "midi": 72,
      "hit": false,
      "t": 13232.015999999985,
      "d": 367.5560000000005,
      "v": 40
    },
    {
      "midi": 80,
      "hit": false,
      "t": 13415.793999999985,
      "d": 183.77800000000025,
      "v": 45
    },
    {
      "midi": 77,
      "hit": false,
      "t": 13599.571999999986,
      "d": 183.77800000000025,
      "v": 45
    },
    {
      "midi": 76,
      "hit": false,
      "t": 13783.349999999986,
      "d": 183.77800000000025,
      "v": 49
    },
    {
      "midi": 60,
      "hit": false,
      "t": 13783.349999999986,
      "d": 367.5560000000005,
      "v": 28
    },
    {
      "midi": 67,
      "hit": false,
      "t": 13783.349999999986,
      "d": 367.5560000000005,
      "v": 28
    },
    {
      "midi": 70,
      "hit": false,
      "t": 13783.349999999986,
      "d": 367.5560000000005,
      "v": 28
    },
    {
      "midi": 72,
      "hit": false,
      "t": 13783.349999999986,
      "d": 367.5560000000005,
      "v": 34
    },
    {
      "midi": 79,
      "hit": false,
      "t": 13967.127999999986,
      "d": 183.77800000000025,
      "v": 44
    },
    {
      "midi": 84,
      "hit": false,
      "t": 14150.905999999986,
      "d": 137.83350000000064,
      "v": 51
    },
    {
      "midi": 84,
      "hit": false,
      "t": 14334.683999999987,
      "d": 183.77800000000025,
      "v": 60
    },
    {
      "midi": 65,
      "hit": false,
      "t": 14334.683999999987,
      "d": 367.5560000000005,
      "v": 34
    },
    {
      "midi": 68,
      "hit": false,
      "t": 14334.683999999987,
      "d": 367.5560000000005,
      "v": 34
    },
    {
      "midi": 72,
      "hit": false,
      "t": 14334.683999999987,
      "d": 367.5560000000005,
      "v": 40
    },
    {
      "midi": 80,
      "hit": false,
      "t": 14518.461999999987,
      "d": 183.77800000000025,
      "v": 45
    },
    {
      "midi": 77,
      "hit": false,
      "t": 14702.239999999987,
      "d": 183.77800000000025,
      "v": 45
    },
    {
      "midi": 74,
      "hit": false,
      "t": 14886.017999999987,
      "d": 183.77800000000025,
      "v": 51
    },
    {
      "midi": 77,
      "hit": false,
      "t": 15069.795999999988,
      "d": 183.77800000000025,
      "v": 45
    },
    {
      "midi": 82,
      "hit": false,
      "t": 15253.573999999988,
      "d": 137.83350000000064,
      "v": 45
    },
    {
      "midi": 62,
      "hit": false,
      "t": 15253.573999999988,
      "d": 137.83350000000064,
      "v": 31
    },
    {
      "midi": 65,
      "hit": false,
      "t": 15253.573999999988,
      "d": 137.83350000000064,
      "v": 31
    },
    {
      "midi": 68,
      "hit": false,
      "t": 15253.573999999988,
      "d": 137.83350000000064,
      "v": 31
    },
    {
      "midi": 70,
      "hit": false,
      "t": 15253.573999999988,
      "d": 137.83350000000064,
      "v": 37
    },
    {
      "midi": 82,
      "hit": false,
      "t": 15437.351999999988,
      "d": 183.77800000000025,
      "v": 50
    },
    {
      "midi": 63,
      "hit": false,
      "t": 15437.351999999988,
      "d": 367.5560000000005,
      "v": 33
    },
    {
      "midi": 67,
      "hit": false,
      "t": 15437.351999999988,
      "d": 367.5560000000005,
      "v": 33
    },
    {
      "midi": 70,
      "hit": false,
      "t": 15437.351999999988,
      "d": 367.5560000000005,
      "v": 39
    },
    {
      "midi": 79,
      "hit": false,
      "t": 15621.129999999988,
      "d": 183.77800000000025,
      "v": 43
    },
    {
      "midi": 75,
      "hit": false,
      "t": 15804.907999999989,
      "d": 183.77800000000025,
      "v": 43
    },
    {
      "midi": 72,
      "hit": false,
      "t": 15988.685999999989,
      "d": 183.77800000000025,
      "v": 45
    },
    {
      "midi": 56,
      "hit": false,
      "t": 15988.685999999989,
      "d": 367.5560000000005,
      "v": 29
    },
    {
      "midi": 60,
      "hit": false,
      "t": 15988.685999999989,
      "d": 367.5560000000005,
      "v": 29
    },
    {
      "midi": 65,
      "hit": false,
      "t": 15988.685999999989,
      "d": 367.5560000000005,
      "v": 35
    },
    {
      "midi": 77,
      "hit": false,
      "t": 16172.463999999989,
      "d": 183.77800000000025,
      "v": 41
    },
    {
      "midi": 80,
      "hit": false,
      "t": 16356.24199999999,
      "d": 137.83349999999882,
      "v": 41
    },
    {
      "midi": 70,
      "hit": false,
      "t": 16540.01999999999,
      "d": 183.77799999999843,
      "v": 47
    },
    {
      "midi": 58,
      "hit": false,
      "t": 16540.01999999999,
      "d": 367.5560000000005,
      "v": 35
    },
    {
      "midi": 63,
      "hit": false,
      "t": 16540.01999999999,
      "d": 367.5560000000005,
      "v": 35
    },
    {
      "midi": 67,
      "hit": false,
      "t": 16540.01999999999,
      "d": 367.5560000000005,
      "v": 42
    },
    {
      "midi": 75,
      "hit": false,
      "t": 16723.797999999988,
      "d": 183.77799999999843,
      "v": 43
    },
    {
      "midi": 79,
      "hit": false,
      "t": 16907.575999999986,
      "d": 137.83350000000064,
      "v": 43
    },
    {
      "midi": 68,
      "hit": false,
      "t": 17091.35399999999,
      "d": 183.77799999999843,
      "v": 48
    },
    {
      "midi": 58,
      "hit": false,
      "t": 17091.35399999999,
      "d": 367.5560000000005,
      "v": 33
    },
    {
      "midi": 62,
      "hit": false,
      "t": 17091.35399999999,
      "d": 367.5560000000005,
      "v": 33
    },
    {
      "midi": 65,
      "hit": false,
      "t": 17091.35399999999,
      "d": 367.5560000000005,
      "v": 39
    },
    {
      "midi": 74,
      "hit": false,
      "t": 17275.131999999987,
      "d": 183.77799999999843,
      "v": 43
    },
    {
      "midi": 68,
      "hit": false,
      "t": 17458.909999999985,
      "d": 137.83350000000064,
      "v": 43
    },
    {
      "midi": 77,
      "hit": false,
      "t": 17458.909999999985,
      "d": 137.83350000000064,
      "v": 43
    },
    {
      "midi": 58,
      "hit": false,
      "t": 17458.90999999999,
      "d": 137.83350000000064,
      "v": 39
    },
    {
      "midi": 67,
      "hit": false,
      "t": 17642.687999999987,
      "d": 183.77799999999843,
      "v": 49
    },
    {
      "midi": 75,
      "hit": false,
      "t": 17642.687999999987,
      "d": 183.77799999999843,
      "v": 49
    },
    {
      "midi": 58,
      "hit": false,
      "t": 17642.68799999999,
      "d": 183.77799999999843,
      "v": 49
    },
    {
      "midi": 55,
      "hit": false,
      "t": 17826.46599999999,
      "d": 183.77799999999843,
      "v": 49
    },
    {
      "midi": 79,
      "hit": false,
      "t": 18010.243999999984,
      "d": 183.77799999999843,
      "v": 49
    },
    {
      "midi": 51,
      "hit": false,
      "t": 18010.243999999988,
      "d": 183.77799999999843,
      "v": 42
    },
    {
      "midi": 80,
      "hit": false,
      "t": 18194.021999999983,
      "d": 91.88899999999921,
      "v": 49
    },
    {
      "midi": 50,
      "hit": false,
      "t": 18194.021999999986,
      "d": 183.77799999999843,
      "v": 49
    },
    {
      "midi": 79,
      "hit": false,
      "t": 18285.910999999982,
      "d": 91.88899999999921,
      "v": 45
    },
    {
      "midi": 80,
      "hit": false,
      "t": 18377.79999999998,
      "d": 91.88899999999921,
      "v": 49
    },
    {
      "midi": 53,
      "hit": false,
      "t": 18377.799999999985,
      "d": 183.77799999999843,
      "v": 45
    },
    {
      "midi": 77,
      "hit": false,
      "t": 18469.68899999998,
      "d": 91.88899999999921,
      "v": 44
    },
    {
      "midi": 82,
      "hit": false,
      "t": 18561.57799999998,
      "d": 91.88899999999921,
      "v": 49
    },
    {
      "midi": 58,
      "hit": false,
      "t": 18561.577999999983,
      "d": 137.83350000000064,
      "v": 45
    },
    {
      "midi": 80,
      "hit": false,
      "t": 18653.46699999998,
      "d": 91.88899999999921,
      "v": 44
    },
    {
      "midi": 79,
      "hit": false,
      "t": 18745.355999999978,
      "d": 183.77799999999843,
      "v": 67
    },
    {
      "midi": 58,
      "hit": false,
      "t": 18745.355999999985,
      "d": 183.77799999999843,
      "v": 51
    },
    {
      "midi": 94,
      "hit": false,
      "t": 18929.133999999976,
      "d": 183.77799999999843,
      "v": 62
    },
    {
      "midi": 55,
      "hit": false,
      "t": 18929.133999999984,
      "d": 183.77799999999843,
      "v": 47
    },
    {
      "midi": 51,
      "hit": false,
      "t": 19112.911999999982,
      "d": 137.83350000000064,
      "v": 47
    },
    {
      "midi": 51,
      "hit": false,
      "t": 19296.689999999984,
      "d": 183.77799999999843,
      "v": 52
    },
    {
      "midi": 55,
      "hit": false,
      "t": 19480.467999999983,
      "d": 183.77799999999843,
      "v": 46
    },
    {
      "midi": 67,
      "hit": false,
      "t": 19664.245999999974,
      "d": 137.83350000000064,
      "v": 49
    },
    {
      "midi": 52,
      "hit": false,
      "t": 19664.24599999998,
      "d": 137.83350000000064,
      "v": 49
    },
    {
      "midi": 60,
      "hit": false,
      "t": 19664.24599999998,
      "d": 137.83350000000064,
      "v": 60
    },
    {
      "midi": 53,
      "hit": false,
      "t": 19848.023999999983,
      "d": 183.77799999999843,
      "v": 53
    },
    {
      "midi": 60,
      "hit": false,
      "t": 19848.023999999983,
      "d": 183.77799999999843,
      "v": 66
    },
    {
      "midi": 56,
      "hit": false,
      "t": 20031.80199999998,
      "d": 183.77799999999843,
      "v": 53
    },
    {
      "midi": 68,
      "hit": false,
      "t": 20215.579999999973,
      "d": 183.77799999999843,
      "v": 49
    },
    {
      "midi": 53,
      "hit": false,
      "t": 20215.57999999998,
      "d": 183.77799999999843,
      "v": 53
    },
    {
      "midi": 70,
      "hit": false,
      "t": 20399.35799999997,
      "d": 91.88899999999921,
      "v": 51
    },
    {
      "midi": 52,
      "hit": false,
      "t": 20399.35799999998,
      "d": 183.77799999999843,
      "v": 59
    },
    {
      "midi": 68,
      "hit": false,
      "t": 20491.24699999997,
      "d": 91.88899999999921,
      "v": 41
    },
    {
      "midi": 70,
      "hit": false,
      "t": 20583.13599999997,
      "d": 91.88899999999921,
      "v": 49
    },
    {
      "midi": 55,
      "hit": false,
      "t": 20583.135999999977,
      "d": 183.77799999999843,
      "v": 53
    },
    {
      "midi": 67,
      "hit": false,
      "t": 20675.02499999997,
      "d": 91.88899999999921,
      "v": 42
    },
    {
      "midi": 72,
      "hit": false,
      "t": 20766.913999999968,
      "d": 91.88899999999921,
      "v": 49
    },
    {
      "midi": 60,
      "hit": false,
      "t": 20766.913999999975,
      "d": 137.83350000000064,
      "v": 58
    },
    {
      "midi": 70,
      "hit": false,
      "t": 20858.802999999967,
      "d": 91.88899999999921,
      "v": 47
    },
    {
      "midi": 68,
      "hit": false,
      "t": 20950.691999999966,
      "d": 183.77799999999843,
      "v": 69
    },
    {
      "midi": 60,
      "hit": false,
      "t": 20950.691999999977,
      "d": 183.77799999999843,
      "v": 70
    },
    {
      "midi": 84,
      "hit": false,
      "t": 21134.469999999965,
      "d": 183.77799999999843,
      "v": 61
    },
    {
      "midi": 56,
      "hit": false,
      "t": 21134.469999999976,
      "d": 183.77799999999843,
      "v": 56
    },
    {
      "midi": 53,
      "hit": false,
      "t": 21318.247999999974,
      "d": 183.77799999999843,
      "v": 57
    },
    {
      "midi": 50,
      "hit": false,
      "t": 21502.025999999973,
      "d": 183.77799999999843,
      "v": 64
    },
    {
      "midi": 53,
      "hit": false,
      "t": 21685.80399999997,
      "d": 183.77799999999843,
      "v": 58
    },
    {
      "midi": 77,
      "hit": false,
      "t": 21869.581999999962,
      "d": 137.83350000000064,
      "v": 55
    },
    {
      "midi": 50,
      "hit": false,
      "t": 21869.58199999997,
      "d": 137.83350000000064,
      "v": 53
    },
    {
      "midi": 58,
      "hit": false,
      "t": 21869.58199999997,
      "d": 137.83350000000064,
      "v": 63
    },
    {
      "midi": 51,
      "hit": false,
      "t": 22053.35999999997,
      "d": 183.77799999999843,
      "v": 61
    },
    {
      "midi": 58,
      "hit": false,
      "t": 22053.35999999997,
      "d": 183.77799999999843,
      "v": 72
    },
    {
      "midi": 55,
      "hit": false,
      "t": 22237.13799999997,
      "d": 183.77799999999843,
      "v": 56
    },
    {
      "midi": 79,
      "hit": false,
      "t": 22420.91599999996,
      "d": 183.77799999999843,
      "v": 53
    },
    {
      "midi": 51,
      "hit": false,
      "t": 22420.91599999997,
      "d": 183.77799999999843,
      "v": 57
    },
    {
      "midi": 80,
      "hit": false,
      "t": 22604.69399999996,
      "d": 91.88899999999921,
      "v": 53
    },
    {
      "midi": 44,
      "hit": false,
      "t": 22604.693999999967,
      "d": 183.77799999999843,
      "v": 50
    },
    {
      "midi": 48,
      "hit": false,
      "t": 22604.693999999967,
      "d": 183.77799999999843,
      "v": 59
    },
    {
      "midi": 79,
      "hit": false,
      "t": 22696.58299999996,
      "d": 91.88899999999921,
      "v": 49
    },
    {
      "midi": 80,
      "hit": false,
      "t": 22788.471999999958,
      "d": 91.88899999999921,
      "v": 55
    },
    {
      "midi": 53,
      "hit": false,
      "t": 22788.471999999965,
      "d": 183.77799999999843,
      "v": 55
    },
    {
      "midi": 77,
      "hit": false,
      "t": 22880.360999999957,
      "d": 91.88899999999921,
      "v": 49
    },
    {
      "midi": 92,
      "hit": false,
      "t": 22972.249999999956,
      "d": 137.83350000000064,
      "v": 74
    },
    {
      "midi": 56,
      "hit": false,
      "t": 22972.249999999964,
      "d": 137.83350000000064,
      "v": 55
    },
    {
      "midi": 46,
      "hit": false,
      "t": 23156.027999999966,
      "d": 183.77799999999843,
      "v": 61
    },
    {
      "midi": 51,
      "hit": false,
      "t": 23339.805999999964,
      "d": 183.77799999999843,
      "v": 56
    },
    {
      "midi": 75,
      "hit": false,
      "t": 23523.583999999955,
      "d": 137.83350000000064,
      "v": 49
    },
    {
      "midi": 55,
      "hit": false,
      "t": 23523.583999999963,
      "d": 137.83350000000064,
      "v": 56
    },
    {
      "midi": 77,
      "hit": false,
      "t": 23707.361999999957,
      "d": 91.88899999999921,
      "v": 57
    },
    {
      "midi": 46,
      "hit": false,
      "t": 23707.361999999965,
      "d": 183.77799999999843,
      "v": 62
    },
    {
      "midi": 75,
      "hit": false,
      "t": 23799.250999999957,
      "d": 91.88899999999921,
      "v": 49
    },
    {
      "midi": 77,
      "hit": false,
      "t": 23891.139999999956,
      "d": 91.88899999999921,
      "v": 56
    },
    {
      "midi": 50,
      "hit": false,
      "t": 23891.139999999963,
      "d": 183.77799999999843,
      "v": 56
    },
    {
      "midi": 74,
      "hit": false,
      "t": 23983.028999999955,
      "d": 91.88899999999921,
      "v": 49
    },
    {
      "midi": 89,
      "hit": false,
      "t": 24074.917999999954,
      "d": 137.83350000000064,
      "v": 72
    },
    {
      "midi": 46,
      "hit": false,
      "t": 24074.91799999996,
      "d": 137.83350000000064,
      "v": 56
    },
    {
      "midi": 58,
      "hit": false,
      "t": 24074.91799999996,
      "d": 137.83350000000064,
      "v": 56
    },
    {
      "midi": 67,
      "hit": false,
      "t": 24258.695999999956,
      "d": 91.88899999999921,
      "v": 81
    },
    {
      "midi": 46,
      "hit": false,
      "t": 24258.695999999964,
      "d": 183.77799999999843,
      "v": 63
    },
    {
      "midi": 79,
      "hit": false,
      "t": 24350.584999999955,
      "d": 91.88899999999921,
      "v": 60
    },
    {
      "midi": 67,
      "hit": false,
      "t": 24442.473999999955,
      "d": 91.88899999999921,
      "v": 69
    },
    {
      "midi": 43,
      "hit": false,
      "t": 24442.473999999962,
      "d": 183.77799999999843,
      "v": 63
    },
    {
      "midi": 79,
      "hit": false,
      "t": 24534.362999999954,
      "d": 91.88899999999921,
      "v": 59
    },
    {
      "midi": 70,
      "hit": false,
      "t": 24626.251999999953,
      "d": 91.88899999999921,
      "v": 67
    },
    {
      "midi": 39,
      "hit": false,
      "t": 24626.25199999996,
      "d": 183.77799999999843,
      "v": 55
    },
    {
      "midi": 82,
      "hit": false,
      "t": 24718.140999999952,
      "d": 91.88899999999921,
      "v": 59
    },
    {
      "midi": 70,
      "hit": false,
      "t": 24810.02999999995,
      "d": 91.88899999999921,
      "v": 77
    },
    {
      "midi": 38,
      "hit": false,
      "t": 24810.02999999996,
      "d": 183.77799999999843,
      "v": 63
    },
    {
      "midi": 82,
      "hit": false,
      "t": 24901.91899999995,
      "d": 91.88899999999921,
      "v": 57
    },
    {
      "midi": 70,
      "hit": false,
      "t": 24993.80799999995,
      "d": 91.88899999999921,
      "v": 63
    },
    {
      "midi": 41,
      "hit": false,
      "t": 24993.807999999957,
      "d": 183.77799999999843,
      "v": 57
    },
    {
      "midi": 82,
      "hit": false,
      "t": 25085.69699999995,
      "d": 91.88899999999921,
      "v": 56
    },
    {
      "midi": 68,
      "hit": false,
      "t": 25177.58599999995,
      "d": 91.88899999999921,
      "v": 63
    },
    {
      "midi": 46,
      "hit": false,
      "t": 25177.585999999956,
      "d": 137.83350000000064,
      "v": 57
    },
    {
      "midi": 80,
      "hit": false,
      "t": 25269.474999999948,
      "d": 91.88899999999921,
      "v": 56
    },
    {
      "midi": 67,
      "hit": false,
      "t": 25361.363999999947,
      "d": 91.88899999999921,
      "v": 73
    },
    {
      "midi": 46,
      "hit": false,
      "t": 25361.363999999958,
      "d": 183.77799999999843,
      "v": 63
    },
    {
      "midi": 79,
      "hit": false,
      "t": 25453.252999999946,
      "d": 91.88899999999921,
      "v": 60
    },
    {
      "midi": 67,
      "hit": false,
      "t": 25545.141999999945,
      "d": 91.88899999999921,
      "v": 66
    },
    {
      "midi": 43,
      "hit": false,
      "t": 25545.141999999956,
      "d": 183.77799999999843,
      "v": 58
    },
    {
      "midi": 79,
      "hit": false,
      "t": 25637.030999999944,
      "d": 91.88899999999921,
      "v": 60
    },
    {
      "midi": 70,
      "hit": false,
      "t": 25728.919999999944,
      "d": 91.88899999999921,
      "v": 66
    },
    {
      "midi": 39,
      "hit": false,
      "t": 25728.919999999955,
      "d": 137.83350000000064,
      "v": 58
    },
    {
      "midi": 82,
      "hit": false,
      "t": 25820.808999999943,
      "d": 91.88899999999921,
      "v": 59
    },
    {
      "midi": 70,
      "hit": false,
      "t": 25912.697999999942,
      "d": 91.88899999999921,
      "v": 73
    },
    {
      "midi": 39,
      "hit": false,
      "t": 25912.697999999957,
      "d": 183.77799999999843,
      "v": 63
    },
    {
      "midi": 82,
      "hit": false,
      "t": 26004.58699999994,
      "d": 91.88899999999921,
      "v": 60
    },
    {
      "midi": 70,
      "hit": false,
      "t": 26096.47599999994,
      "d": 91.88899999999921,
      "v": 63
    },
    {
      "midi": 43,
      "hit": false,
      "t": 26096.475999999955,
      "d": 183.77799999999843,
      "v": 55
    },
    {
      "midi": 82,
      "hit": false,
      "t": 26188.36499999994,
      "d": 91.88899999999921,
      "v": 55
    },
    {
      "midi": 67,
      "hit": false,
      "t": 26280.25399999994,
      "d": 91.88899999999921,
      "v": 66
    },
    {
      "midi": 40,
      "hit": false,
      "t": 26280.253999999954,
      "d": 137.83350000000064,
      "v": 58
    },
    {
      "midi": 48,
      "hit": false,
      "t": 26280.253999999954,
      "d": 137.83350000000064,
      "v": 70
    },
    {
      "midi": 79,
      "hit": false,
      "t": 26372.14299999994,
      "d": 91.88899999999921,
      "v": 60
    },
    {
      "midi": 68,
      "hit": false,
      "t": 26464.031999999937,
      "d": 91.88899999999921,
      "v": 73
    },
    {
      "midi": 41,
      "hit": false,
      "t": 26464.031999999956,
      "d": 183.77799999999843,
      "v": 63
    },
    {
      "midi": 48,
      "hit": false,
      "t": 26464.031999999956,
      "d": 183.77799999999843,
      "v": 78
    },
    {
      "midi": 80,
      "hit": false,
      "t": 26555.920999999937,
      "d": 91.88899999999921,
      "v": 53
    },
    {
      "midi": 68,
      "hit": false,
      "t": 26647.809999999936,
      "d": 91.88899999999921,
      "v": 61
    },
    {
      "midi": 44,
      "hit": false,
      "t": 26647.809999999954,
      "d": 183.77799999999843,
      "v": 63
    },
    {
      "midi": 80,
      "hit": false,
      "t": 26739.698999999935,
      "d": 91.88899999999921,
      "v": 53
    },
    {
      "midi": 72,
      "hit": false,
      "t": 26831.587999999934,
      "d": 91.88899999999921,
      "v": 61
    },
    {
      "midi": 41,
      "hit": false,
      "t": 26831.587999999952,
      "d": 183.77799999999843,
      "v": 63
    },
    {
      "midi": 84,
      "hit": false,
      "t": 26923.476999999933,
      "d": 91.88899999999921,
      "v": 56
    },
    {
      "midi": 72,
      "hit": false,
      "t": 27015.365999999933,
      "d": 91.88899999999921,
      "v": 73
    },
    {
      "midi": 40,
      "hit": false,
      "t": 27015.36599999995,
      "d": 183.77799999999843,
      "v": 69
    },
    {
      "midi": 84,
      "hit": false,
      "t": 27107.254999999932,
      "d": 91.88899999999921,
      "v": 53
    },
    {
      "midi": 72,
      "hit": false,
      "t": 27199.14399999993,
      "d": 91.88899999999921,
      "v": 61
    },
    {
      "midi": 43,
      "hit": false,
      "t": 27199.14399999995,
      "d": 183.77799999999843,
      "v": 62
    },
    {
      "midi": 84,
      "hit": false,
      "t": 27291.03299999993,
      "d": 91.88899999999921,
      "v": 55
    },
    {
      "midi": 70,
      "hit": false,
      "t": 27382.92199999993,
      "d": 91.88899999999921,
      "v": 61
    },
    {
      "midi": 48,
      "hit": false,
      "t": 27382.921999999948,
      "d": 137.83350000000064,
      "v": 73
    },
    {
      "midi": 82,
      "hit": false,
      "t": 27474.81099999993,
      "d": 91.88899999999921,
      "v": 53
    },
    {
      "midi": 68,
      "hit": false,
      "t": 27566.699999999928,
      "d": 91.88899999999921,
      "v": 73
    },
    {
      "midi": 48,
      "hit": false,
      "t": 27566.69999999995,
      "d": 183.77799999999843,
      "v": 86
    },
    {
      "midi": 80,
      "hit": false,
      "t": 27658.588999999927,
      "d": 91.88899999999921,
      "v": 55
    },
    {
      "midi": 68,
      "hit": false,
      "t": 27750.477999999926,
      "d": 91.88899999999921,
      "v": 61
    },
    {
      "midi": 44,
      "hit": false,
      "t": 27750.47799999995,
      "d": 183.77799999999843,
      "v": 63
    },
    {
      "midi": 80,
      "hit": false,
      "t": 27842.366999999926,
      "d": 91.88899999999921,
      "v": 55
    },
    {
      "midi": 72,
      "hit": false,
      "t": 27934.255999999925,
      "d": 91.88899999999921,
      "v": 61
    },
    {
      "midi": 41,
      "hit": false,
      "t": 27934.255999999947,
      "d": 183.77799999999843,
      "v": 63
    },
    {
      "midi": 84,
      "hit": false,
      "t": 28026.144999999924,
      "d": 91.88899999999921,
      "v": 55
    },
    {
      "midi": 72,
      "hit": false,
      "t": 28118.033999999923,
      "d": 91.88899999999921,
      "v": 73
    },
    {
      "midi": 38,
      "hit": false,
      "t": 28118.033999999945,
      "d": 183.77799999999843,
      "v": 72
    },
    {
      "midi": 84,
      "hit": false,
      "t": 28209.922999999922,
      "d": 91.88899999999921,
      "v": 52
    },
    {
      "midi": 70,
      "hit": false,
      "t": 28301.81199999992,
      "d": 91.88899999999921,
      "v": 59
    },
    {
      "midi": 41,
      "hit": false,
      "t": 28301.811999999944,
      "d": 183.77799999999843,
      "v": 63
    },
    {
      "midi": 82,
      "hit": false,
      "t": 28393.70099999992,
      "d": 91.88899999999921,
      "v": 52
    },
    {
      "midi": 68,
      "hit": false,
      "t": 28485.58999999992,
      "d": 91.88899999999921,
      "v": 59
    },
    {
      "midi": 38,
      "hit": false,
      "t": 28485.589999999942,
      "d": 137.83350000000064,
      "v": 58
    },
    {
      "midi": 46,
      "hit": false,
      "t": 28485.589999999942,
      "d": 137.83350000000064,
      "v": 69
    },
    {
      "midi": 80,
      "hit": false,
      "t": 28577.47899999992,
      "d": 91.88899999999921,
      "v": 53
    },
    {
      "midi": 67,
      "hit": false,
      "t": 28669.36799999992,
      "d": 91.88899999999921,
      "v": 73
    },
    {
      "midi": 39,
      "hit": false,
      "t": 28669.367999999944,
      "d": 183.77799999999843,
      "v": 66
    },
    {
      "midi": 46,
      "hit": false,
      "t": 28669.367999999944,
      "d": 183.77799999999843,
      "v": 78
    },
    {
      "midi": 79,
      "hit": false,
      "t": 28761.256999999918,
      "d": 91.88899999999921,
      "v": 53
    },
    {
      "midi": 70,
      "hit": false,
      "t": 28853.145999999917,
      "d": 91.88899999999921,
      "v": 61
    },
    {
      "midi": 43,
      "hit": false,
      "t": 28853.145999999942,
      "d": 183.77799999999843,
      "v": 60
    },
    {
      "midi": 82,
      "hit": false,
      "t": 28945.034999999916,
      "d": 91.88899999999921,
      "v": 55
    },
    {
      "midi": 75,
      "hit": false,
      "t": 29036.923999999915,
      "d": 91.88899999999921,
      "v": 61
    },
    {
      "midi": 39,
      "hit": false,
      "t": 29036.92399999994,
      "d": 183.77799999999843,
      "v": 60
    },
    {
      "midi": 87,
      "hit": false,
      "t": 29128.812999999915,
      "d": 91.88899999999921,
      "v": 55
    },
    {
      "midi": 75,
      "hit": false,
      "t": 29220.701999999914,
      "d": 91.88899999999921,
      "v": 73
    },
    {
      "midi": 36,
      "hit": false,
      "t": 29220.70199999994,
      "d": 183.77799999999843,
      "v": 63
    },
    {
      "midi": 32,
      "hit": false,
      "t": 29220.70199999994,
      "d": 367.55599999999686,
      "v": 53
    },
    {
      "midi": 87,
      "hit": false,
      "t": 29312.590999999913,
      "d": 91.88899999999921,
      "v": 53
    },
    {
      "midi": 72,
      "hit": false,
      "t": 29404.479999999912,
      "d": 91.88899999999921,
      "v": 60
    },
    {
      "midi": 41,
      "hit": false,
      "t": 29404.479999999938,
      "d": 183.77799999999843,
      "v": 58
    },
    {
      "midi": 84,
      "hit": false,
      "t": 29496.36899999991,
      "d": 91.88899999999921,
      "v": 53
    },
    {
      "midi": 68,
      "hit": false,
      "t": 29588.25799999991,
      "d": 91.88899999999921,
      "v": 60
    },
    {
      "midi": 44,
      "hit": false,
      "t": 29588.257999999936,
      "d": 137.83350000000064,
      "v": 63
    },
    {
      "midi": 80,
      "hit": false,
      "t": 29680.14699999991,
      "d": 91.88899999999921,
      "v": 53
    },
    {
      "midi": 75,
      "hit": false,
      "t": 29772.03599999991,
      "d": 91.88899999999921,
      "v": 73
    },
    {
      "midi": 34,
      "hit": false,
      "t": 29772.03599999994,
      "d": 183.77799999999843,
      "v": 69
    },
    {
      "midi": 87,
      "hit": false,
      "t": 29863.92499999991,
      "d": 91.88899999999921,
      "v": 56
    },
    {
      "midi": 70,
      "hit": false,
      "t": 29955.813999999908,
      "d": 91.88899999999921,
      "v": 62
    },
    {
      "midi": 39,
      "hit": false,
      "t": 29955.813999999937,
      "d": 183.77799999999843,
      "v": 58
    },
    {
      "midi": 82,
      "hit": false,
      "t": 30047.702999999907,
      "d": 91.88899999999921,
      "v": 55
    },
    {
      "midi": 67,
      "hit": false,
      "t": 30139.591999999906,
      "d": 91.88899999999921,
      "v": 62
    },
    {
      "midi": 43,
      "hit": false,
      "t": 30139.591999999935,
      "d": 137.83350000000064,
      "v": 58
    },
    {
      "midi": 79,
      "hit": false,
      "t": 30231.480999999905,
      "d": 91.88899999999921,
      "v": 55
    },
    {
      "midi": 70,
      "hit": false,
      "t": 30323.369999999904,
      "d": 91.88899999999921,
      "v": 73
    },
    {
      "midi": 34,
      "hit": false,
      "t": 30323.369999999937,
      "d": 183.77799999999843,
      "v": 63
    },
    {
      "midi": 82,
      "hit": false,
      "t": 30415.258999999904,
      "d": 91.88899999999921,
      "v": 56
    },
    {
      "midi": 68,
      "hit": false,
      "t": 30507.147999999903,
      "d": 91.88899999999921,
      "v": 64
    },
    {
      "midi": 41,
      "hit": false,
      "t": 30507.147999999936,
      "d": 183.77799999999843,
      "v": 57
    },
    {
      "midi": 80,
      "hit": false,
      "t": 30599.036999999902,
      "d": 91.88899999999921,
      "v": 57
    },
    {
      "midi": 65,
      "hit": false,
      "t": 30690.9259999999,
      "d": 91.88899999999921,
      "v": 64
    },
    {
      "midi": 46,
      "hit": false,
      "t": 30690.925999999934,
      "d": 137.83350000000064,
      "v": 57
    },
    {
      "midi": 77,
      "hit": false,
      "t": 30782.8149999999,
      "d": 91.88899999999921,
      "v": 58
    },
    {
      "midi": 55,
      "hit": false,
      "t": 30874.7039999999,
      "d": 91.88899999999921,
      "v": 78
    },
    {
      "midi": 39,
      "hit": false,
      "t": 30874.703999999936,
      "d": 91.88899999999921,
      "v": 73
    },
    {
      "midi": 63,
      "hit": false,
      "t": 30966.5929999999,
      "d": 91.88899999999921,
      "v": 64
    },
    {
      "midi": 58,
      "hit": false,
      "t": 31058.481999999898,
      "d": 91.88899999999921,
      "v": 72
    },
    {
      "midi": 51,
      "hit": false,
      "t": 31058.481999999934,
      "d": 91.88899999999921,
      "v": 49
    },
    {
      "midi": 55,
      "hit": false,
      "t": 31058.481999999934,
      "d": 91.88899999999921,
      "v": 62
    },
    {
      "midi": 67,
      "hit": false,
      "t": 31150.370999999897,
      "d": 91.88899999999921,
      "v": 64
    },
    {
      "midi": 63,
      "hit": false,
      "t": 31242.259999999897,
      "d": 91.88899999999921,
      "v": 74
    },
    {
      "midi": 51,
      "hit": false,
      "t": 31242.259999999933,
      "d": 91.88899999999921,
      "v": 49
    },
    {
      "midi": 55,
      "hit": false,
      "t": 31242.259999999933,
      "d": 91.88899999999921,
      "v": 49
    },
    {
      "midi": 58,
      "hit": false,
      "t": 31242.259999999933,
      "d": 91.88899999999921,
      "v": 62
    },
    {
      "midi": 70,
      "hit": false,
      "t": 31334.148999999896,
      "d": 91.88899999999921,
      "v": 64
    },
    {
      "midi": 67,
      "hit": false,
      "t": 31426.037999999895,
      "d": 91.88899999999921,
      "v": 79
    },
    {
      "midi": 51,
      "hit": false,
      "t": 31426.03799999993,
      "d": 91.88899999999921,
      "v": 49
    },
    {
      "midi": 55,
      "hit": false,
      "t": 31426.03799999993,
      "d": 91.88899999999921,
      "v": 49
    },
    {
      "midi": 58,
      "hit": false,
      "t": 31426.03799999993,
      "d": 91.88899999999921,
      "v": 49
    },
    {
      "midi": 63,
      "hit": false,
      "t": 31426.03799999993,
      "d": 91.88899999999921,
      "v": 62
    },
    {
      "midi": 75,
      "hit": false,
      "t": 31517.926999999894,
      "d": 91.88899999999921,
      "v": 64
    },
    {
      "midi": 70,
      "hit": false,
      "t": 31609.815999999893,
      "d": 91.88899999999921,
      "v": 70
    },
    {
      "midi": 51,
      "hit": false,
      "t": 31609.81599999993,
      "d": 91.88899999999921,
      "v": 49
    },
    {
      "midi": 55,
      "hit": false,
      "t": 31609.81599999993,
      "d": 91.88899999999921,
      "v": 49
    },
    {
      "midi": 58,
      "hit": false,
      "t": 31609.81599999993,
      "d": 91.88899999999921,
      "v": 49
    },
    {
      "midi": 63,
      "hit": false,
      "t": 31609.81599999993,
      "d": 91.88899999999921,
      "v": 62
    },
    {
      "midi": 79,
      "hit": false,
      "t": 31701.704999999893,
      "d": 91.88899999999921,
      "v": 64
    },
    {
      "midi": 75,
      "hit": false,
      "t": 31793.593999999892,
      "d": 91.88899999999921,
      "v": 71
    },
    {
      "midi": 51,
      "hit": false,
      "t": 31793.59399999993,
      "d": 91.88899999999921,
      "v": 49
    },
    {
      "midi": 55,
      "hit": false,
      "t": 31793.59399999993,
      "d": 91.88899999999921,
      "v": 49
    },
    {
      "midi": 58,
      "hit": false,
      "t": 31793.59399999993,
      "d": 91.88899999999921,
      "v": 49
    },
    {
      "midi": 63,
      "hit": false,
      "t": 31793.59399999993,
      "d": 91.88899999999921,
      "v": 62
    },
    {
      "midi": 82,
      "hit": false,
      "t": 31885.48299999989,
      "d": 91.88899999999921,
      "v": 64
    },
    {
      "midi": 79,
      "hit": false,
      "t": 31977.37199999989,
      "d": 91.88899999999921,
      "v": 79
    },
    {
      "midi": 51,
      "hit": false,
      "t": 31977.371999999927,
      "d": 91.88899999999921,
      "v": 56
    },
    {
      "midi": 55,
      "hit": false,
      "t": 31977.371999999927,
      "d": 91.88899999999921,
      "v": 56
    },
    {
      "midi": 58,
      "hit": false,
      "t": 31977.371999999927,
      "d": 91.88899999999921,
      "v": 56
    },
    {
      "midi": 63,
      "hit": false,
      "t": 31977.371999999927,
      "d": 91.88899999999921,
      "v": 70
    },
    {
      "midi": 87,
      "hit": false,
      "t": 32069.26099999989,
      "d": 91.88899999999921,
      "v": 64
    },
    {
      "midi": 82,
      "hit": false,
      "t": 32161.14999999989,
      "d": 91.88899999999921,
      "v": 70
    },
    {
      "midi": 51,
      "hit": false,
      "t": 32161.149999999925,
      "d": 91.88899999999921,
      "v": 49
    },
    {
      "midi": 55,
      "hit": false,
      "t": 32161.149999999925,
      "d": 91.88899999999921,
      "v": 49
    },
    {
      "midi": 58,
      "hit": false,
      "t": 32161.149999999925,
      "d": 91.88899999999921,
      "v": 49
    },
    {
      "midi": 63,
      "hit": false,
      "t": 32161.149999999925,
      "d": 91.88899999999921,
      "v": 62
    },
    {
      "midi": 91,
      "hit": false,
      "t": 32253.038999999888,
      "d": 91.88899999999921,
      "v": 61
    },
    {
      "midi": 87,
      "hit": false,
      "t": 32344.927999999887,
      "d": 91.88899999999921,
      "v": 69
    },
    {
      "midi": 51,
      "hit": false,
      "t": 32344.927999999923,
      "d": 91.88899999999921,
      "v": 49
    },
    {
      "midi": 55,
      "hit": false,
      "t": 32344.927999999923,
      "d": 91.88899999999921,
      "v": 49
    },
    {
      "midi": 58,
      "hit": false,
      "t": 32344.927999999923,
      "d": 91.88899999999921,
      "v": 49
    },
    {
      "midi": 63,
      "hit": false,
      "t": 32344.927999999923,
      "d": 91.88899999999921,
      "v": 62
    },
    {
      "midi": 94,
      "hit": false,
      "t": 32436.816999999886,
      "d": 91.88899999999921,
      "v": 62
    },
    {
      "midi": 93,
      "hit": false,
      "t": 32528.705999999886,
      "d": 91.88899999999921,
      "v": 73
    },
    {
      "midi": 51,
      "hit": false,
      "t": 32528.705999999922,
      "d": 91.88899999999921,
      "v": 49
    },
    {
      "midi": 53,
      "hit": false,
      "t": 32528.705999999922,
      "d": 91.88899999999921,
      "v": 49
    },
    {
      "midi": 56,
      "hit": false,
      "t": 32528.705999999922,
      "d": 91.88899999999921,
      "v": 49
    },
    {
      "midi": 58,
      "hit": false,
      "t": 32528.705999999922,
      "d": 91.88899999999921,
      "v": 49
    },
    {
      "midi": 62,
      "hit": false,
      "t": 32528.705999999922,
      "d": 91.88899999999921,
      "v": 62
    },
    {
      "midi": 94,
      "hit": false,
      "t": 32620.594999999885,
      "d": 91.88899999999921,
      "v": 66
    },
    {
      "midi": 93,
      "hit": false,
      "t": 32712.483999999884,
      "d": 91.88899999999921,
      "v": 70
    },
    {
      "midi": 51,
      "hit": false,
      "t": 32712.48399999992,
      "d": 91.88899999999921,
      "v": 49
    },
    {
      "midi": 53,
      "hit": false,
      "t": 32712.48399999992,
      "d": 91.88899999999921,
      "v": 49
    },
    {
      "midi": 56,
      "hit": false,
      "t": 32712.48399999992,
      "d": 91.88899999999921,
      "v": 49
    },
    {
      "midi": 58,
      "hit": false,
      "t": 32712.48399999992,
      "d": 91.88899999999921,
      "v": 49
    },
    {
      "midi": 62,
      "hit": false,
      "t": 32712.48399999992,
      "d": 91.88899999999921,
      "v": 62
    },
    {
      "midi": 94,
      "hit": false,
      "t": 32804.37299999988,
      "d": 91.88900000000285,
      "v": 64
    },
    {
      "midi": 93,
      "hit": false,
      "t": 32896.261999999886,
      "d": 91.88900000000285,
      "v": 69
    },
    {
      "midi": 51,
      "hit": false,
      "t": 32896.26199999992,
      "d": 91.88900000000285,
      "v": 49
    },
    {
      "midi": 53,
      "hit": false,
      "t": 32896.26199999992,
      "d": 91.88900000000285,
      "v": 49
    },
    {
      "midi": 56,
      "hit": false,
      "t": 32896.26199999992,
      "d": 91.88900000000285,
      "v": 49
    },
    {
      "midi": 58,
      "hit": false,
      "t": 32896.26199999992,
      "d": 91.88900000000285,
      "v": 49
    },
    {
      "midi": 62,
      "hit": false,
      "t": 32896.26199999992,
      "d": 91.88900000000285,
      "v": 62
    },
    {
      "midi": 94,
      "hit": false,
      "t": 32988.15099999989,
      "d": 91.88900000000285,
      "v": 64
    },
    {
      "midi": 96,
      "hit": false,
      "t": 33080.03999999989,
      "d": 91.88900000000285,
      "v": 77
    },
    {
      "midi": 51,
      "hit": false,
      "t": 33080.03999999993,
      "d": 91.88900000000285,
      "v": 57
    },
    {
      "midi": 55,
      "hit": false,
      "t": 33080.03999999993,
      "d": 91.88900000000285,
      "v": 57
    },
    {
      "midi": 58,
      "hit": false,
      "t": 33080.03999999993,
      "d": 91.88900000000285,
      "v": 57
    },
    {
      "midi": 63,
      "hit": false,
      "t": 33080.03999999993,
      "d": 91.88900000000285,
      "v": 72
    },
    {
      "midi": 94,
      "hit": false,
      "t": 33171.928999999895,
      "d": 91.88900000000285,
      "v": 77
    },
    {
      "midi": 92,
      "hit": false,
      "t": 33263.8179999999,
      "d": 91.88900000000285,
      "v": 76
    },
    {
      "midi": 51,
      "hit": false,
      "t": 33263.817999999934,
      "d": 91.88900000000285,
      "v": 49
    },
    {
      "midi": 55,
      "hit": false,
      "t": 33263.817999999934,
      "d": 91.88900000000285,
      "v": 49
    },
    {
      "midi": 58,
      "hit": false,
      "t": 33263.817999999934,
      "d": 91.88900000000285,
      "v": 49
    },
    {
      "midi": 63,
      "hit": false,
      "t": 33263.817999999934,
      "d": 91.88900000000285,
      "v": 62
    },
    {
      "midi": 91,
      "hit": false,
      "t": 33355.7069999999,
      "d": 91.88900000000285,
      "v": 75
    },
    {
      "midi": 89,
      "hit": false,
      "t": 33447.5959999999,
      "d": 91.88900000000285,
      "v": 74
    },
    {
      "midi": 51,
      "hit": false,
      "t": 33447.59599999994,
      "d": 91.88900000000285,
      "v": 49
    },
    {
      "midi": 55,
      "hit": false,
      "t": 33447.59599999994,
      "d": 91.88900000000285,
      "v": 49
    },
    {
      "midi": 58,
      "hit": false,
      "t": 33447.59599999994,
      "d": 91.88900000000285,
      "v": 49
    },
    {
      "midi": 63,
      "hit": false,
      "t": 33447.59599999994,
      "d": 91.88900000000285,
      "v": 62
    },
    {
      "midi": 87,
      "hit": false,
      "t": 33539.484999999906,
      "d": 91.88900000000285,
      "v": 74
    },
    {
      "midi": 86,
      "hit": false,
      "t": 33631.37399999991,
      "d": 91.88900000000285,
      "v": 72
    },
    {
      "midi": 51,
      "hit": false,
      "t": 33631.373999999945,
      "d": 91.88900000000285,
      "v": 49
    },
    {
      "midi": 55,
      "hit": false,
      "t": 33631.373999999945,
      "d": 91.88900000000285,
      "v": 49
    },
    {
      "midi": 58,
      "hit": false,
      "t": 33631.373999999945,
      "d": 91.88900000000285,
      "v": 49
    },
    {
      "midi": 63,
      "hit": false,
      "t": 33631.373999999945,
      "d": 91.88900000000285,
      "v": 62
    },
    {
      "midi": 84,
      "hit": false,
      "t": 33723.26299999991,
      "d": 91.88900000000285,
      "v": 65
    },
    {
      "midi": 82,
      "hit": false,
      "t": 33815.151999999915,
      "d": 91.88900000000285,
      "v": 65
    },
    {
      "midi": 51,
      "hit": false,
      "t": 33815.15199999995,
      "d": 91.88900000000285,
      "v": 49
    },
    {
      "midi": 55,
      "hit": false,
      "t": 33815.15199999995,
      "d": 91.88900000000285,
      "v": 49
    },
    {
      "midi": 58,
      "hit": false,
      "t": 33815.15199999995,
      "d": 91.88900000000285,
      "v": 49
    },
    {
      "midi": 63,
      "hit": false,
      "t": 33815.15199999995,
      "d": 91.88900000000285,
      "v": 62
    },
    {
      "midi": 80,
      "hit": false,
      "t": 33907.04099999992,
      "d": 91.88900000000285,
      "v": 65
    },
    {
      "midi": 79,
      "hit": false,
      "t": 33998.92999999992,
      "d": 91.88900000000285,
      "v": 65
    },
    {
      "midi": 51,
      "hit": false,
      "t": 33998.92999999996,
      "d": 91.88900000000285,
      "v": 49
    },
    {
      "midi": 55,
      "hit": false,
      "t": 33998.92999999996,
      "d": 91.88900000000285,
      "v": 49
    },
    {
      "midi": 58,
      "hit": false,
      "t": 33998.92999999996,
      "d": 91.88900000000285,
      "v": 49
    },
    {
      "midi": 63,
      "hit": false,
      "t": 33998.92999999996,
      "d": 91.88900000000285,
      "v": 62
    },
    {
      "midi": 77,
      "hit": false,
      "t": 34090.81899999992,
      "d": 91.88900000000285,
      "v": 65
    },
    {
      "midi": 75,
      "hit": false,
      "t": 34182.707999999926,
      "d": 91.88900000000285,
      "v": 70
    },
    {
      "midi": 51,
      "hit": false,
      "t": 34182.70799999996,
      "d": 91.88900000000285,
      "v": 55
    },
    {
      "midi": 55,
      "hit": false,
      "t": 34182.70799999996,
      "d": 91.88900000000285,
      "v": 55
    },
    {
      "midi": 58,
      "hit": false,
      "t": 34182.70799999996,
      "d": 91.88900000000285,
      "v": 55
    },
    {
      "midi": 63,
      "hit": false,
      "t": 34182.70799999996,
      "d": 91.88900000000285,
      "v": 69
    },
    {
      "midi": 74,
      "hit": false,
      "t": 34274.59699999993,
      "d": 91.88900000000285,
      "v": 69
    },
    {
      "midi": 72,
      "hit": false,
      "t": 34366.48599999993,
      "d": 91.88900000000285,
      "v": 68
    },
    {
      "midi": 51,
      "hit": false,
      "t": 34366.48599999997,
      "d": 91.88900000000285,
      "v": 48
    },
    {
      "midi": 55,
      "hit": false,
      "t": 34366.48599999997,
      "d": 91.88900000000285,
      "v": 48
    },
    {
      "midi": 58,
      "hit": false,
      "t": 34366.48599999997,
      "d": 91.88900000000285,
      "v": 48
    },
    {
      "midi": 63,
      "hit": false,
      "t": 34366.48599999997,
      "d": 91.88900000000285,
      "v": 61
    },
    {
      "midi": 70,
      "hit": false,
      "t": 34458.374999999935,
      "d": 91.88900000000285,
      "v": 68
    },
    {
      "midi": 68,
      "hit": false,
      "t": 34550.26399999994,
      "d": 91.88900000000285,
      "v": 67
    },
    {
      "midi": 51,
      "hit": false,
      "t": 34550.263999999974,
      "d": 91.88900000000285,
      "v": 48
    },
    {
      "midi": 55,
      "hit": false,
      "t": 34550.263999999974,
      "d": 91.88900000000285,
      "v": 48
    },
    {
      "midi": 58,
      "hit": false,
      "t": 34550.263999999974,
      "d": 91.88900000000285,
      "v": 48
    },
    {
      "midi": 63,
      "hit": false,
      "t": 34550.263999999974,
      "d": 91.88900000000285,
      "v": 61
    },
    {
      "midi": 67,
      "hit": false,
      "t": 34642.15299999994,
      "d": 91.88900000000285,
      "v": 66
    },
    {
      "midi": 65,
      "hit": false,
      "t": 34734.04199999994,
      "d": 91.88900000000285,
      "v": 64
    },
    {
      "midi": 51,
      "hit": false,
      "t": 34734.04199999998,
      "d": 91.88900000000285,
      "v": 48
    },
    {
      "midi": 53,
      "hit": false,
      "t": 34734.04199999998,
      "d": 91.88900000000285,
      "v": 48
    },
    {
      "midi": 56,
      "hit": false,
      "t": 34734.04199999998,
      "d": 91.88900000000285,
      "v": 48
    },
    {
      "midi": 58,
      "hit": false,
      "t": 34734.04199999998,
      "d": 91.88900000000285,
      "v": 61
    },
    {
      "midi": 63,
      "hit": false,
      "t": 34825.930999999946,
      "d": 91.88900000000285,
      "v": 59
    },
    {
      "midi": 62,
      "hit": false,
      "t": 34917.81999999995,
      "d": 91.88900000000285,
      "v": 64
    },
    {
      "midi": 51,
      "hit": false,
      "t": 34917.819999999985,
      "d": 91.88900000000285,
      "v": 48
    },
    {
      "midi": 53,
      "hit": false,
      "t": 34917.819999999985,
      "d": 91.88900000000285,
      "v": 48
    },
    {
      "midi": 56,
      "hit": false,
      "t": 34917.819999999985,
      "d": 91.88900000000285,
      "v": 48
    },
    {
      "midi": 58,
      "hit": false,
      "t": 34917.819999999985,
      "d": 91.88900000000285,
      "v": 61
    },
    {
      "midi": 65,
      "hit": false,
      "t": 35009.70899999995,
      "d": 91.88900000000285,
      "v": 60
    },
    {
      "midi": 68,
      "hit": false,
      "t": 35101.597999999954,
      "d": 91.88900000000285,
      "v": 69
    },
    {
      "midi": 51,
      "hit": false,
      "t": 35101.59799999999,
      "d": 91.88900000000285,
      "v": 48
    },
    {
      "midi": 53,
      "hit": false,
      "t": 35101.59799999999,
      "d": 91.88900000000285,
      "v": 48
    },
    {
      "midi": 56,
      "hit": false,
      "t": 35101.59799999999,
      "d": 91.88900000000285,
      "v": 48
    },
    {
      "midi": 58,
      "hit": false,
      "t": 35101.59799999999,
      "d": 91.88900000000285,
      "v": 61
    },
    {
      "midi": 62,
      "hit": false,
      "t": 35193.48699999996,
      "d": 91.88900000000285,
      "v": 63
    },
    {
      "midi": 55,
      "hit": false,
      "t": 35285.37599999996,
      "d": 91.88900000000285,
      "v": 78
    },
    {
      "midi": 39,
      "hit": false,
      "t": 35285.376,
      "d": 91.88900000000285,
      "v": 73
    },
    {
      "midi": 63,
      "hit": false,
      "t": 35377.26499999996,
      "d": 91.88900000000285,
      "v": 64
    },
    {
      "midi": 58,
      "hit": false,
      "t": 35469.153999999966,
      "d": 91.88900000000285,
      "v": 72
    },
    {
      "midi": 51,
      "hit": false,
      "t": 35469.154,
      "d": 91.88900000000285,
      "v": 49
    },
    {
      "midi": 55,
      "hit": false,
      "t": 35469.154,
      "d": 91.88900000000285,
      "v": 62
    },
    {
      "midi": 67,
      "hit": false,
      "t": 35561.04299999997,
      "d": 91.88900000000285,
      "v": 64
    },
    {
      "midi": 63,
      "hit": false,
      "t": 35652.93199999997,
      "d": 91.88900000000285,
      "v": 74
    },
    {
      "midi": 51,
      "hit": false,
      "t": 35652.93200000001,
      "d": 91.88900000000285,
      "v": 49
    },
    {
      "midi": 55,
      "hit": false,
      "t": 35652.93200000001,
      "d": 91.88900000000285,
      "v": 49
    },
    {
      "midi": 58,
      "hit": false,
      "t": 35652.93200000001,
      "d": 91.88900000000285,
      "v": 62
    },
    {
      "midi": 70,
      "hit": false,
      "t": 35744.820999999974,
      "d": 91.88900000000285,
      "v": 64
    },
    {
      "midi": 67,
      "hit": false,
      "t": 35836.70999999998,
      "d": 91.88900000000285,
      "v": 79
    },
    {
      "midi": 51,
      "hit": false,
      "t": 35836.710000000014,
      "d": 91.88900000000285,
      "v": 49
    },
    {
      "midi": 55,
      "hit": false,
      "t": 35836.710000000014,
      "d": 91.88900000000285,
      "v": 49
    },
    {
      "midi": 58,
      "hit": false,
      "t": 35836.710000000014,
      "d": 91.88900000000285,
      "v": 49
    },
    {
      "midi": 63,
      "hit": false,
      "t": 35836.710000000014,
      "d": 91.88900000000285,
      "v": 62
    },
    {
      "midi": 75,
      "hit": false,
      "t": 35928.59899999998,
      "d": 91.88900000000285,
      "v": 64
    },
    {
      "midi": 70,
      "hit": false,
      "t": 36020.48799999998,
      "d": 91.88900000000285,
      "v": 70
    },
    {
      "midi": 51,
      "hit": false,
      "t": 36020.48800000002,
      "d": 91.88900000000285,
      "v": 49
    },
    {
      "midi": 55,
      "hit": false,
      "t": 36020.48800000002,
      "d": 91.88900000000285,
      "v": 49
    },
    {
      "midi": 58,
      "hit": false,
      "t": 36020.48800000002,
      "d": 91.88900000000285,
      "v": 49
    },
    {
      "midi": 63,
      "hit": false,
      "t": 36020.48800000002,
      "d": 91.88900000000285,
      "v": 62
    },
    {
      "midi": 79,
      "hit": false,
      "t": 36112.376999999986,
      "d": 91.88900000000285,
      "v": 64
    },
    {
      "midi": 75,
      "hit": false,
      "t": 36204.26599999999,
      "d": 91.88900000000285,
      "v": 71
    },
    {
      "midi": 51,
      "hit": false,
      "t": 36204.266000000025,
      "d": 91.88900000000285,
      "v": 49
    },
    {
      "midi": 55,
      "hit": false,
      "t": 36204.266000000025,
      "d": 91.88900000000285,
      "v": 49
    },
    {
      "midi": 58,
      "hit": false,
      "t": 36204.266000000025,
      "d": 91.88900000000285,
      "v": 49
    },
    {
      "midi": 63,
      "hit": false,
      "t": 36204.266000000025,
      "d": 91.88900000000285,
      "v": 62
    },
    {
      "midi": 82,
      "hit": false,
      "t": 36296.15499999999,
      "d": 91.88900000000285,
      "v": 64
    },
    {
      "midi": 79,
      "hit": false,
      "t": 36388.043999999994,
      "d": 91.88900000000285,
      "v": 79
    },
    {
      "midi": 51,
      "hit": false,
      "t": 36388.04400000003,
      "d": 91.88900000000285,
      "v": 56
    },
    {
      "midi": 55,
      "hit": false,
      "t": 36388.04400000003,
      "d": 91.88900000000285,
      "v": 56
    },
    {
      "midi": 58,
      "hit": false,
      "t": 36388.04400000003,
      "d": 91.88900000000285,
      "v": 56
    },
    {
      "midi": 63,
      "hit": false,
      "t": 36388.04400000003,
      "d": 91.88900000000285,
      "v": 70
    },
    {
      "midi": 87,
      "hit": false,
      "t": 36479.933,
      "d": 91.88900000000285,
      "v": 64
    },
    {
      "midi": 82,
      "hit": false,
      "t": 36571.822,
      "d": 91.88900000000285,
      "v": 70
    },
    {
      "midi": 51,
      "hit": false,
      "t": 36571.82200000004,
      "d": 91.88900000000285,
      "v": 49
    },
    {
      "midi": 55,
      "hit": false,
      "t": 36571.82200000004,
      "d": 91.88900000000285,
      "v": 49
    },
    {
      "midi": 58,
      "hit": false,
      "t": 36571.82200000004,
      "d": 91.88900000000285,
      "v": 49
    },
    {
      "midi": 63,
      "hit": false,
      "t": 36571.82200000004,
      "d": 91.88900000000285,
      "v": 62
    },
    {
      "midi": 91,
      "hit": false,
      "t": 36663.711,
      "d": 91.88900000000285,
      "v": 61
    },
    {
      "midi": 87,
      "hit": false,
      "t": 36755.600000000006,
      "d": 91.88900000000285,
      "v": 69
    },
    {
      "midi": 51,
      "hit": false,
      "t": 36755.60000000004,
      "d": 91.88900000000285,
      "v": 49
    },
    {
      "midi": 55,
      "hit": false,
      "t": 36755.60000000004,
      "d": 91.88900000000285,
      "v": 49
    },
    {
      "midi": 58,
      "hit": false,
      "t": 36755.60000000004,
      "d": 91.88900000000285,
      "v": 49
    },
    {
      "midi": 63,
      "hit": false,
      "t": 36755.60000000004,
      "d": 91.88900000000285,
      "v": 62
    },
    {
      "midi": 94,
      "hit": false,
      "t": 36847.48900000001,
      "d": 91.88900000000285,
      "v": 62
    },
    {
      "midi": 93,
      "hit": false,
      "t": 36939.37800000001,
      "d": 91.88900000000285,
      "v": 73
    },
    {
      "midi": 51,
      "hit": false,
      "t": 36939.37800000005,
      "d": 91.88900000000285,
      "v": 49
    },
    {
      "midi": 53,
      "hit": false,
      "t": 36939.37800000005,
      "d": 91.88900000000285,
      "v": 49
    },
    {
      "midi": 56,
      "hit": false,
      "t": 36939.37800000005,
      "d": 91.88900000000285,
      "v": 49
    },
    {
      "midi": 58,
      "hit": false,
      "t": 36939.37800000005,
      "d": 91.88900000000285,
      "v": 49
    },
    {
      "midi": 62,
      "hit": false,
      "t": 36939.37800000005,
      "d": 91.88900000000285,
      "v": 62
    },
    {
      "midi": 94,
      "hit": false,
      "t": 37031.267000000014,
      "d": 91.88900000000285,
      "v": 66
    },
    {
      "midi": 93,
      "hit": false,
      "t": 37123.15600000002,
      "d": 91.88900000000285,
      "v": 70
    },
    {
      "midi": 51,
      "hit": false,
      "t": 37123.15600000005,
      "d": 91.88900000000285,
      "v": 49
    },
    {
      "midi": 53,
      "hit": false,
      "t": 37123.15600000005,
      "d": 91.88900000000285,
      "v": 49
    },
    {
      "midi": 56,
      "hit": false,
      "t": 37123.15600000005,
      "d": 91.88900000000285,
      "v": 49
    },
    {
      "midi": 58,
      "hit": false,
      "t": 37123.15600000005,
      "d": 91.88900000000285,
      "v": 49
    },
    {
      "midi": 62,
      "hit": false,
      "t": 37123.15600000005,
      "d": 91.88900000000285,
      "v": 62
    },
    {
      "midi": 94,
      "hit": false,
      "t": 37215.04500000002,
      "d": 91.88900000000285,
      "v": 64
    },
    {
      "midi": 93,
      "hit": false,
      "t": 37306.93400000002,
      "d": 91.88900000000285,
      "v": 69
    },
    {
      "midi": 51,
      "hit": false,
      "t": 37306.93400000006,
      "d": 91.88900000000285,
      "v": 49
    },
    {
      "midi": 53,
      "hit": false,
      "t": 37306.93400000006,
      "d": 91.88900000000285,
      "v": 49
    },
    {
      "midi": 56,
      "hit": false,
      "t": 37306.93400000006,
      "d": 91.88900000000285,
      "v": 49
    },
    {
      "midi": 58,
      "hit": false,
      "t": 37306.93400000006,
      "d": 91.88900000000285,
      "v": 49
    },
    {
      "midi": 62,
      "hit": false,
      "t": 37306.93400000006,
      "d": 91.88900000000285,
      "v": 62
    },
    {
      "midi": 94,
      "hit": false,
      "t": 37398.823000000026,
      "d": 91.88900000000285,
      "v": 64
    },
    {
      "midi": 96,
      "hit": false,
      "t": 37490.71200000003,
      "d": 91.88900000000285,
      "v": 77
    },
    {
      "midi": 51,
      "hit": false,
      "t": 37490.712000000065,
      "d": 91.88900000000285,
      "v": 57
    },
    {
      "midi": 55,
      "hit": false,
      "t": 37490.712000000065,
      "d": 91.88900000000285,
      "v": 57
    },
    {
      "midi": 58,
      "hit": false,
      "t": 37490.712000000065,
      "d": 91.88900000000285,
      "v": 57
    },
    {
      "midi": 63,
      "hit": false,
      "t": 37490.712000000065,
      "d": 91.88900000000285,
      "v": 72
    },
    {
      "midi": 94,
      "hit": false,
      "t": 37582.60100000003,
      "d": 91.88900000000285,
      "v": 77
    },
    {
      "midi": 92,
      "hit": false,
      "t": 37674.490000000034,
      "d": 91.88900000000285,
      "v": 76
    },
    {
      "midi": 51,
      "hit": false,
      "t": 37674.49000000007,
      "d": 91.88900000000285,
      "v": 49
    },
    {
      "midi": 55,
      "hit": false,
      "t": 37674.49000000007,
      "d": 91.88900000000285,
      "v": 49
    },
    {
      "midi": 58,
      "hit": false,
      "t": 37674.49000000007,
      "d": 91.88900000000285,
      "v": 49
    },
    {
      "midi": 63,
      "hit": false,
      "t": 37674.49000000007,
      "d": 91.88900000000285,
      "v": 62
    },
    {
      "midi": 91,
      "hit": false,
      "t": 37766.37900000004,
      "d": 91.88900000000285,
      "v": 75
    },
    {
      "midi": 89,
      "hit": false,
      "t": 37858.26800000004,
      "d": 91.88900000000285,
      "v": 74
    },
    {
      "midi": 51,
      "hit": false,
      "t": 37858.26800000008,
      "d": 91.88900000000285,
      "v": 49
    },
    {
      "midi": 55,
      "hit": false,
      "t": 37858.26800000008,
      "d": 91.88900000000285,
      "v": 49
    },
    {
      "midi": 58,
      "hit": false,
      "t": 37858.26800000008,
      "d": 91.88900000000285,
      "v": 49
    },
    {
      "midi": 63,
      "hit": false,
      "t": 37858.26800000008,
      "d": 91.88900000000285,
      "v": 62
    },
    {
      "midi": 87,
      "hit": false,
      "t": 37950.15700000004,
      "d": 91.88900000000285,
      "v": 74
    },
    {
      "midi": 86,
      "hit": false,
      "t": 38042.046000000046,
      "d": 91.88900000000285,
      "v": 72
    },
    {
      "midi": 51,
      "hit": false,
      "t": 38042.04600000008,
      "d": 91.88900000000285,
      "v": 49
    },
    {
      "midi": 55,
      "hit": false,
      "t": 38042.04600000008,
      "d": 91.88900000000285,
      "v": 49
    },
    {
      "midi": 58,
      "hit": false,
      "t": 38042.04600000008,
      "d": 91.88900000000285,
      "v": 49
    },
    {
      "midi": 63,
      "hit": false,
      "t": 38042.04600000008,
      "d": 91.88900000000285,
      "v": 62
    },
    {
      "midi": 84,
      "hit": false,
      "t": 38133.93500000005,
      "d": 91.88900000000285,
      "v": 65
    },
    {
      "midi": 82,
      "hit": false,
      "t": 38225.82400000005,
      "d": 91.88900000000285,
      "v": 65
    },
    {
      "midi": 51,
      "hit": false,
      "t": 38225.82400000009,
      "d": 91.88900000000285,
      "v": 49
    },
    {
      "midi": 55,
      "hit": false,
      "t": 38225.82400000009,
      "d": 91.88900000000285,
      "v": 49
    },
    {
      "midi": 58,
      "hit": false,
      "t": 38225.82400000009,
      "d": 91.88900000000285,
      "v": 49
    },
    {
      "midi": 63,
      "hit": false,
      "t": 38225.82400000009,
      "d": 91.88900000000285,
      "v": 62
    },
    {
      "midi": 80,
      "hit": false,
      "t": 38317.713000000054,
      "d": 91.88900000000285,
      "v": 65
    },
    {
      "midi": 79,
      "hit": false,
      "t": 38409.60200000006,
      "d": 91.88900000000285,
      "v": 65
    },
    {
      "midi": 51,
      "hit": false,
      "t": 38409.60200000009,
      "d": 91.88900000000285,
      "v": 49
    },
    {
      "midi": 55,
      "hit": false,
      "t": 38409.60200000009,
      "d": 91.88900000000285,
      "v": 49
    },
    {
      "midi": 58,
      "hit": false,
      "t": 38409.60200000009,
      "d": 91.88900000000285,
      "v": 49
    },
    {
      "midi": 63,
      "hit": false,
      "t": 38409.60200000009,
      "d": 91.88900000000285,
      "v": 62
    },
    {
      "midi": 77,
      "hit": false,
      "t": 38501.49100000006,
      "d": 91.88900000000285,
      "v": 65
    },
    {
      "midi": 75,
      "hit": false,
      "t": 38593.38000000006,
      "d": 62.02507499999774,
      "v": 70
    },
    {
      "midi": 51,
      "hit": false,
      "t": 38593.3800000001,
      "d": 91.88900000000285,
      "v": 55
    },
    {
      "midi": 55,
      "hit": false,
      "t": 38593.3800000001,
      "d": 91.88900000000285,
      "v": 55
    },
    {
      "midi": 58,
      "hit": false,
      "t": 38593.3800000001,
      "d": 91.88900000000285,
      "v": 69
    },
    {
      "midi": 74,
      "hit": false,
      "t": 38655.40507500006,
      "d": 61.259333333335235,
      "v": 69
    },
    {
      "midi": 72,
      "hit": false,
      "t": 38715.898666666726,
      "d": 61.259333333335235,
      "v": 68
    },
    {
      "midi": 70,
      "hit": false,
      "t": 38777.15800000006,
      "d": 61.259333333335235,
      "v": 68
    },
    {
      "midi": 51,
      "hit": false,
      "t": 38777.158000000105,
      "d": 91.88900000000285,
      "v": 48
    },
    {
      "midi": 55,
      "hit": false,
      "t": 38777.158000000105,
      "d": 91.88900000000285,
      "v": 48
    },
    {
      "midi": 58,
      "hit": false,
      "t": 38777.158000000105,
      "d": 91.88900000000285,
      "v": 61
    },
    {
      "midi": 68,
      "hit": false,
      "t": 38838.4173333334,
      "d": 61.259333333335235,
      "v": 67
    },
    {
      "midi": 67,
      "hit": false,
      "t": 38899.67666666673,
      "d": 61.259333333335235,
      "v": 66
    },
    {
      "midi": 65,
      "hit": false,
      "t": 38960.93600000007,
      "d": 61.259333333335235,
      "v": 64
    },
    {
      "midi": 51,
      "hit": false,
      "t": 38960.93600000011,
      "d": 91.88900000000285,
      "v": 48
    },
    {
      "midi": 55,
      "hit": false,
      "t": 38960.93600000011,
      "d": 91.88900000000285,
      "v": 48
    },
    {
      "midi": 58,
      "hit": false,
      "t": 38960.93600000011,
      "d": 91.88900000000285,
      "v": 61
    },
    {
      "midi": 63,
      "hit": false,
      "t": 39022.1953333334,
      "d": 61.259333333335235,
      "v": 59
    },
    {
      "midi": 62,
      "hit": false,
      "t": 39083.45466666674,
      "d": 61.259333333335235,
      "v": 55
    },
    {
      "midi": 60,
      "hit": false,
      "t": 39144.71400000007,
      "d": 91.88900000000285,
      "v": 62
    },
    {
      "midi": 51,
      "hit": false,
      "t": 39144.714000000116,
      "d": 91.88900000000285,
      "v": 48
    },
    {
      "midi": 53,
      "hit": false,
      "t": 39144.714000000116,
      "d": 91.88900000000285,
      "v": 61
    },
    {
      "midi": 58,
      "hit": false,
      "t": 39236.603000000076,
      "d": 91.88900000000285,
      "v": 54
    },
    {
      "midi": 57,
      "hit": false,
      "t": 39328.49200000008,
      "d": 91.88900000000285,
      "v": 60
    },
    {
      "midi": 41,
      "hit": false,
      "t": 39328.49200000012,
      "d": 91.88900000000285,
      "v": 48
    },
    {
      "midi": 51,
      "hit": false,
      "t": 39328.49200000012,
      "d": 91.88900000000285,
      "v": 48
    },
    {
      "midi": 53,
      "hit": false,
      "t": 39328.49200000012,
      "d": 91.88900000000285,
      "v": 61
    },
    {
      "midi": 60,
      "hit": false,
      "t": 39420.38100000008,
      "d": 91.88900000000285,
      "v": 54
    },
    {
      "midi": 63,
      "hit": false,
      "t": 39512.270000000084,
      "d": 91.88900000000285,
      "v": 64
    },
    {
      "midi": 41,
      "hit": false,
      "t": 39512.27000000013,
      "d": 91.88900000000285,
      "v": 48
    },
    {
      "midi": 51,
      "hit": false,
      "t": 39512.27000000013,
      "d": 91.88900000000285,
      "v": 48
    },
    {
      "midi": 53,
      "hit": false,
      "t": 39512.27000000013,
      "d": 91.88900000000285,
      "v": 61
    },
    {
      "midi": 57,
      "hit": false,
      "t": 39604.15900000009,
      "d": 91.88900000000285,
      "v": 54
    },
    {
      "midi": 58,
      "hit": false,
      "t": 39696.04800000009,
      "d": 183.77799999999843,
      "v": 95
    },
    {
      "midi": 34,
      "hit": false,
      "t": 39696.04800000013,
      "d": 183.77799999999843,
      "v": 80
    },
    {
      "midi": 46,
      "hit": false,
      "t": 39696.04800000013,
      "d": 183.77799999999843,
      "v": 80
    },
    {
      "midi": 70,
      "hit": false,
      "t": 40247.382000000085,
      "d": 183.77799999999843,
      "v": 89
    },
    {
      "midi": 58,
      "hit": false,
      "t": 40247.38200000013,
      "d": 183.77799999999843,
      "v": 75
    },
    {
      "midi": 73,
      "hit": false,
      "t": 40798.71600000008,
      "d": 183.77799999999843,
      "v": 96
    },
    {
      "midi": 61,
      "hit": false,
      "t": 40798.716000000124,
      "d": 183.77799999999843,
      "v": 81
    },
    {
      "midi": 78,
      "hit": false,
      "t": 41350.050000000076,
      "d": 183.77799999999843,
      "v": 88
    },
    {
      "midi": 66,
      "hit": false,
      "t": 41350.05000000012,
      "d": 183.77799999999843,
      "v": 74
    },
    {
      "midi": 73,
      "hit": false,
      "t": 41901.38400000007,
      "d": 183.77799999999843,
      "v": 94
    },
    {
      "midi": 61,
      "hit": false,
      "t": 41901.384000000115,
      "d": 183.77799999999843,
      "v": 79
    },
    {
      "midi": 70,
      "hit": false,
      "t": 42452.718000000066,
      "d": 183.77799999999843,
      "v": 88
    },
    {
      "midi": 58,
      "hit": false,
      "t": 42452.71800000011,
      "d": 183.77799999999843,
      "v": 74
    },
    {
      "midi": 66,
      "hit": false,
      "t": 43004.05200000006,
      "d": 183.77799999999843,
      "v": 93
    },
    {
      "midi": 54,
      "hit": false,
      "t": 43004.052000000105,
      "d": 183.77799999999843,
      "v": 78
    },
    {
      "midi": 61,
      "hit": false,
      "t": 43555.38600000006,
      "d": 183.77799999999843,
      "v": 82
    },
    {
      "midi": 49,
      "hit": false,
      "t": 43555.3860000001,
      "d": 183.77799999999843,
      "v": 70
    },
    {
      "midi": 57,
      "hit": false,
      "t": 44106.72000000005,
      "d": 183.77799999999843,
      "v": 95
    },
    {
      "midi": 33,
      "hit": false,
      "t": 44106.720000000096,
      "d": 183.77799999999843,
      "v": 80
    },
    {
      "midi": 45,
      "hit": false,
      "t": 44106.720000000096,
      "d": 183.77799999999843,
      "v": 80
    },
    {
      "midi": 69,
      "hit": false,
      "t": 44658.05400000005,
      "d": 183.77799999999843,
      "v": 89
    },
    {
      "midi": 57,
      "hit": false,
      "t": 44658.05400000009,
      "d": 183.77799999999843,
      "v": 75
    },
    {
      "midi": 72,
      "hit": false,
      "t": 45209.38800000004,
      "d": 183.77799999999843,
      "v": 96
    },
    {
      "midi": 60,
      "hit": false,
      "t": 45209.388000000086,
      "d": 183.77799999999843,
      "v": 81
    },
    {
      "midi": 77,
      "hit": false,
      "t": 45760.72200000004,
      "d": 183.77799999999843,
      "v": 88
    },
    {
      "midi": 65,
      "hit": false,
      "t": 45760.72200000008,
      "d": 183.77799999999843,
      "v": 74
    },
    {
      "midi": 72,
      "hit": false,
      "t": 46312.05600000003,
      "d": 183.77799999999843,
      "v": 94
    },
    {
      "midi": 60,
      "hit": false,
      "t": 46312.05600000008,
      "d": 183.77799999999843,
      "v": 79
    },
    {
      "midi": 69,
      "hit": false,
      "t": 46863.39000000003,
      "d": 183.77799999999843,
      "v": 88
    },
    {
      "midi": 57,
      "hit": false,
      "t": 46863.39000000007,
      "d": 183.77799999999843,
      "v": 74
    },
    {
      "midi": 65,
      "hit": false,
      "t": 47414.724000000024,
      "d": 183.77799999999843,
      "v": 93
    },
    {
      "midi": 53,
      "hit": false,
      "t": 47414.72400000007,
      "d": 183.77799999999843,
      "v": 78
    },
    {
      "midi": 60,
      "hit": false,
      "t": 47966.05800000002,
      "d": 183.77799999999843,
      "v": 82
    },
    {
      "midi": 48,
      "hit": false,
      "t": 47966.05800000006,
      "d": 183.77799999999843,
      "v": 70
    },
    {
      "midi": 73,
      "hit": false,
      "t": 48517.392000000014,
      "d": 91.88900000000285,
      "v": 55
    },
    {
      "midi": 58,
      "hit": false,
      "t": 48517.39200000006,
      "d": 91.88900000000285,
      "v": 34
    },
    {
      "midi": 61,
      "hit": false,
      "t": 48517.39200000006,
      "d": 91.88900000000285,
      "v": 34
    },
    {
      "midi": 66,
      "hit": false,
      "t": 48517.39200000006,
      "d": 91.88900000000285,
      "v": 40
    },
    {
      "midi": 58,
      "hit": false,
      "t": 48701.170000000064,
      "d": 91.88900000000285,
      "v": 29
    },
    {
      "midi": 61,
      "hit": false,
      "t": 48701.170000000064,
      "d": 91.88900000000285,
      "v": 29
    },
    {
      "midi": 66,
      "hit": false,
      "t": 48701.170000000064,
      "d": 91.88900000000285,
      "v": 35
    },
    {
      "midi": 84,
      "hit": false,
      "t": 48839.00350000002,
      "d": 45.94449999999779,
      "v": 51
    },
    {
      "midi": 82,
      "hit": false,
      "t": 48884.94800000002,
      "d": 91.88900000000285,
      "v": 57
    },
    {
      "midi": 58,
      "hit": false,
      "t": 48884.94800000007,
      "d": 91.88900000000285,
      "v": 29
    },
    {
      "midi": 61,
      "hit": false,
      "t": 48884.94800000007,
      "d": 91.88900000000285,
      "v": 29
    },
    {
      "midi": 66,
      "hit": false,
      "t": 48884.94800000007,
      "d": 91.88900000000285,
      "v": 35
    },
    {
      "midi": 81,
      "hit": false,
      "t": 48976.83700000002,
      "d": 91.88900000000285,
      "v": 52
    },
    {
      "midi": 82,
      "hit": false,
      "t": 49068.726000000024,
      "d": 91.88900000000285,
      "v": 57
    },
    {
      "midi": 58,
      "hit": false,
      "t": 49068.726000000075,
      "d": 91.88900000000285,
      "v": 29
    },
    {
      "midi": 61,
      "hit": false,
      "t": 49068.726000000075,
      "d": 91.88900000000285,
      "v": 29
    },
    {
      "midi": 66,
      "hit": false,
      "t": 49068.726000000075,
      "d": 91.88900000000285,
      "v": 36
    },
    {
      "midi": 58,
      "hit": false,
      "t": 49252.50400000008,
      "d": 91.88900000000285,
      "v": 30
    },
    {
      "midi": 61,
      "hit": false,
      "t": 49252.50400000008,
      "d": 91.88900000000285,
      "v": 30
    },
    {
      "midi": 66,
      "hit": false,
      "t": 49252.50400000008,
      "d": 91.88900000000285,
      "v": 36
    },
    {
      "midi": 87,
      "hit": false,
      "t": 49390.33750000003,
      "d": 45.94449999999779,
      "v": 53
    },
    {
      "midi": 85,
      "hit": false,
      "t": 49436.28200000003,
      "d": 91.88900000000285,
      "v": 59
    },
    {
      "midi": 58,
      "hit": false,
      "t": 49436.28200000009,
      "d": 91.88900000000285,
      "v": 30
    },
    {
      "midi": 61,
      "hit": false,
      "t": 49436.28200000009,
      "d": 91.88900000000285,
      "v": 30
    },
    {
      "midi": 66,
      "hit": false,
      "t": 49436.28200000009,
      "d": 91.88900000000285,
      "v": 36
    },
    {
      "midi": 84,
      "hit": false,
      "t": 49528.17100000003,
      "d": 91.88900000000285,
      "v": 52
    },
    {
      "midi": 85,
      "hit": false,
      "t": 49620.060000000034,
      "d": 91.88900000000285,
      "v": 63
    },
    {
      "midi": 58,
      "hit": false,
      "t": 49620.06000000009,
      "d": 91.88900000000285,
      "v": 36
    },
    {
      "midi": 61,
      "hit": false,
      "t": 49620.06000000009,
      "d": 91.88900000000285,
      "v": 36
    },
    {
      "midi": 66,
      "hit": false,
      "t": 49620.06000000009,
      "d": 91.88900000000285,
      "v": 42
    },
    {
      "midi": 58,
      "hit": false,
      "t": 49803.8380000001,
      "d": 91.88900000000285,
      "v": 31
    },
    {
      "midi": 61,
      "hit": false,
      "t": 49803.8380000001,
      "d": 91.88900000000285,
      "v": 31
    },
    {
      "midi": 66,
      "hit": false,
      "t": 49803.8380000001,
      "d": 91.88900000000285,
      "v": 37
    },
    {
      "midi": 92,
      "hit": false,
      "t": 49941.67150000004,
      "d": 45.94449999999779,
      "v": 54
    },
    {
      "midi": 90,
      "hit": false,
      "t": 49987.61600000004,
      "d": 91.88900000000285,
      "v": 60
    },
    {
      "midi": 58,
      "hit": false,
      "t": 49987.616000000104,
      "d": 91.88900000000285,
      "v": 31
    },
    {
      "midi": 61,
      "hit": false,
      "t": 49987.616000000104,
      "d": 91.88900000000285,
      "v": 31
    },
    {
      "midi": 66,
      "hit": false,
      "t": 49987.616000000104,
      "d": 91.88900000000285,
      "v": 37
    },
    {
      "midi": 89,
      "hit": false,
      "t": 50079.50500000004,
      "d": 91.88900000000285,
      "v": 55
    },
    {
      "midi": 90,
      "hit": false,
      "t": 50171.394000000044,
      "d": 91.88900000000285,
      "v": 61
    },
    {
      "midi": 58,
      "hit": false,
      "t": 50171.39400000011,
      "d": 91.88900000000285,
      "v": 31
    },
    {
      "midi": 61,
      "hit": false,
      "t": 50171.39400000011,
      "d": 91.88900000000285,
      "v": 31
    },
    {
      "midi": 66,
      "hit": false,
      "t": 50171.39400000011,
      "d": 91.88900000000285,
      "v": 38
    },
    {
      "midi": 58,
      "hit": false,
      "t": 50355.172000000115,
      "d": 91.88900000000285,
      "v": 29
    },
    {
      "midi": 61,
      "hit": false,
      "t": 50355.172000000115,
      "d": 91.88900000000285,
      "v": 29
    },
    {
      "midi": 66,
      "hit": false,
      "t": 50355.172000000115,
      "d": 91.88900000000285,
      "v": 35
    },
    {
      "midi": 87,
      "hit": false,
      "t": 50493.00550000005,
      "d": 45.94449999999779,
      "v": 51
    },
    {
      "midi": 85,
      "hit": false,
      "t": 50538.95000000005,
      "d": 91.88900000000285,
      "v": 57
    },
    {
      "midi": 58,
      "hit": false,
      "t": 50538.95000000012,
      "d": 91.88900000000285,
      "v": 29
    },
    {
      "midi": 61,
      "hit": false,
      "t": 50538.95000000012,
      "d": 91.88900000000285,
      "v": 29
    },
    {
      "midi": 66,
      "hit": false,
      "t": 50538.95000000012,
      "d": 91.88900000000285,
      "v": 35
    },
    {
      "midi": 84,
      "hit": false,
      "t": 50630.83900000005,
      "d": 91.88900000000285,
      "v": 50
    },
    {
      "midi": 85,
      "hit": false,
      "t": 50722.728000000054,
      "d": 91.88900000000285,
      "v": 60
    },
    {
      "midi": 58,
      "hit": false,
      "t": 50722.72800000013,
      "d": 91.88900000000285,
      "v": 34
    },
    {
      "midi": 61,
      "hit": false,
      "t": 50722.72800000013,
      "d": 91.88900000000285,
      "v": 34
    },
    {
      "midi": 66,
      "hit": false,
      "t": 50722.72800000013,
      "d": 91.88900000000285,
      "v": 40
    },
    {
      "midi": 58,
      "hit": false,
      "t": 50906.50600000013,
      "d": 91.88900000000285,
      "v": 29
    },
    {
      "midi": 61,
      "hit": false,
      "t": 50906.50600000013,
      "d": 91.88900000000285,
      "v": 29
    },
    {
      "midi": 66,
      "hit": false,
      "t": 50906.50600000013,
      "d": 91.88900000000285,
      "v": 35
    },
    {
      "midi": 84,
      "hit": false,
      "t": 51044.33950000006,
      "d": 45.94449999999779,
      "v": 51
    },
    {
      "midi": 82,
      "hit": false,
      "t": 51090.28400000006,
      "d": 91.88900000000285,
      "v": 56
    },
    {
      "midi": 58,
      "hit": false,
      "t": 51090.28400000014,
      "d": 91.88900000000285,
      "v": 29
    },
    {
      "midi": 61,
      "hit": false,
      "t": 51090.28400000014,
      "d": 91.88900000000285,
      "v": 29
    },
    {
      "midi": 66,
      "hit": false,
      "t": 51090.28400000014,
      "d": 91.88900000000285,
      "v": 35
    },
    {
      "midi": 81,
      "hit": false,
      "t": 51182.17300000006,
      "d": 91.88900000000285,
      "v": 51
    },
    {
      "midi": 82,
      "hit": false,
      "t": 51274.06200000006,
      "d": 91.88900000000285,
      "v": 56
    },
    {
      "midi": 58,
      "hit": false,
      "t": 51274.06200000014,
      "d": 91.88900000000285,
      "v": 29
    },
    {
      "midi": 61,
      "hit": false,
      "t": 51274.06200000014,
      "d": 91.88900000000285,
      "v": 29
    },
    {
      "midi": 66,
      "hit": false,
      "t": 51274.06200000014,
      "d": 91.88900000000285,
      "v": 35
    },
    {
      "midi": 58,
      "hit": false,
      "t": 51457.84000000015,
      "d": 91.88900000000285,
      "v": 29
    },
    {
      "midi": 61,
      "hit": false,
      "t": 51457.84000000015,
      "d": 91.88900000000285,
      "v": 29
    },
    {
      "midi": 66,
      "hit": false,
      "t": 51457.84000000015,
      "d": 91.88900000000285,
      "v": 35
    },
    {
      "midi": 80,
      "hit": false,
      "t": 51595.67350000007,
      "d": 45.94449999999779,
      "v": 51
    },
    {
      "midi": 78,
      "hit": false,
      "t": 51641.61800000007,
      "d": 91.88900000000285,
      "v": 57
    },
    {
      "midi": 58,
      "hit": false,
      "t": 51641.618000000155,
      "d": 91.88900000000285,
      "v": 29
    },
    {
      "midi": 61,
      "hit": false,
      "t": 51641.618000000155,
      "d": 91.88900000000285,
      "v": 29
    },
    {
      "midi": 66,
      "hit": false,
      "t": 51641.618000000155,
      "d": 91.88900000000285,
      "v": 35
    },
    {
      "midi": 77,
      "hit": false,
      "t": 51733.50700000007,
      "d": 91.88900000000285,
      "v": 50
    },
    {
      "midi": 78,
      "hit": false,
      "t": 51825.39600000007,
      "d": 91.88900000000285,
      "v": 60
    },
    {
      "midi": 58,
      "hit": false,
      "t": 51825.39600000016,
      "d": 91.88900000000285,
      "v": 34
    },
    {
      "midi": 61,
      "hit": false,
      "t": 51825.39600000016,
      "d": 91.88900000000285,
      "v": 34
    },
    {
      "midi": 66,
      "hit": false,
      "t": 51825.39600000016,
      "d": 91.88900000000285,
      "v": 40
    },
    {
      "midi": 58,
      "hit": false,
      "t": 52009.17400000017,
      "d": 91.88900000000285,
      "v": 29
    },
    {
      "midi": 61,
      "hit": false,
      "t": 52009.17400000017,
      "d": 91.88900000000285,
      "v": 29
    },
    {
      "midi": 66,
      "hit": false,
      "t": 52009.17400000017,
      "d": 91.88900000000285,
      "v": 35
    },
    {
      "midi": 75,
      "hit": false,
      "t": 52147.00750000008,
      "d": 45.94449999999779,
      "v": 51
    },
    {
      "midi": 73,
      "hit": false,
      "t": 52192.95200000008,
      "d": 91.88900000000285,
      "v": 56
    },
    {
      "midi": 58,
      "hit": false,
      "t": 52192.95200000017,
      "d": 91.88900000000285,
      "v": 29
    },
    {
      "midi": 61,
      "hit": false,
      "t": 52192.95200000017,
      "d": 91.88900000000285,
      "v": 29
    },
    {
      "midi": 66,
      "hit": false,
      "t": 52192.95200000017,
      "d": 91.88900000000285,
      "v": 35
    },
    {
      "midi": 72,
      "hit": false,
      "t": 52284.84100000008,
      "d": 91.88900000000285,
      "v": 51
    },
    {
      "midi": 73,
      "hit": false,
      "t": 52376.73000000008,
      "d": 367.55599999999686,
      "v": 56
    },
    {
      "midi": 58,
      "hit": false,
      "t": 52376.73000000018,
      "d": 91.88900000000285,
      "v": 29
    },
    {
      "midi": 61,
      "hit": false,
      "t": 52376.73000000018,
      "d": 91.88900000000285,
      "v": 29
    },
    {
      "midi": 66,
      "hit": false,
      "t": 52376.73000000018,
      "d": 91.88900000000285,
      "v": 35
    },
    {
      "midi": 58,
      "hit": false,
      "t": 52560.50800000018,
      "d": 91.88900000000285,
      "v": 29
    },
    {
      "midi": 61,
      "hit": false,
      "t": 52560.50800000018,
      "d": 91.88900000000285,
      "v": 29
    },
    {
      "midi": 66,
      "hit": false,
      "t": 52560.50800000018,
      "d": 91.88900000000285,
      "v": 35
    },
    {
      "midi": 58,
      "hit": false,
      "t": 52744.28600000019,
      "d": 91.88900000000285,
      "v": 29
    },
    {
      "midi": 61,
      "hit": false,
      "t": 52744.28600000019,
      "d": 91.88900000000285,
      "v": 29
    },
    {
      "midi": 64,
      "hit": false,
      "t": 52744.28600000019,
      "d": 91.88900000000285,
      "v": 35
    },
    {
      "midi": 72,
      "hit": false,
      "t": 52928.06400000008,
      "d": 91.88900000000285,
      "v": 55
    },
    {
      "midi": 57,
      "hit": false,
      "t": 52928.064000000195,
      "d": 91.88900000000285,
      "v": 34
    },
    {
      "midi": 60,
      "hit": false,
      "t": 52928.064000000195,
      "d": 91.88900000000285,
      "v": 34
    },
    {
      "midi": 65,
      "hit": false,
      "t": 52928.064000000195,
      "d": 91.88900000000285,
      "v": 40
    },
    {
      "midi": 57,
      "hit": false,
      "t": 53111.8420000002,
      "d": 91.88900000000285,
      "v": 29
    },
    {
      "midi": 60,
      "hit": false,
      "t": 53111.8420000002,
      "d": 91.88900000000285,
      "v": 29
    },
    {
      "midi": 65,
      "hit": false,
      "t": 53111.8420000002,
      "d": 91.88900000000285,
      "v": 35
    },
    {
      "midi": 82,
      "hit": false,
      "t": 53249.675500000085,
      "d": 45.94449999999779,
      "v": 51
    },
    {
      "midi": 81,
      "hit": false,
      "t": 53295.62000000008,
      "d": 91.88900000000285,
      "v": 57
    },
    {
      "midi": 57,
      "hit": false,
      "t": 53295.620000000206,
      "d": 91.88900000000285,
      "v": 29
    },
    {
      "midi": 60,
      "hit": false,
      "t": 53295.620000000206,
      "d": 91.88900000000285,
      "v": 29
    },
    {
      "midi": 65,
      "hit": false,
      "t": 53295.620000000206,
      "d": 91.88900000000285,
      "v": 35
    },
    {
      "midi": 79,
      "hit": false,
      "t": 53387.509000000086,
      "d": 91.88900000000285,
      "v": 52
    },
    {
      "midi": 81,
      "hit": false,
      "t": 53479.39800000009,
      "d": 91.88900000000285,
      "v": 57
    },
    {
      "midi": 57,
      "hit": false,
      "t": 53479.39800000021,
      "d": 91.88900000000285,
      "v": 29
    },
    {
      "midi": 60,
      "hit": false,
      "t": 53479.39800000021,
      "d": 91.88900000000285,
      "v": 29
    },
    {
      "midi": 65,
      "hit": false,
      "t": 53479.39800000021,
      "d": 91.88900000000285,
      "v": 36
    },
    {
      "midi": 57,
      "hit": false,
      "t": 53663.17600000022,
      "d": 91.88900000000285,
      "v": 30
    },
    {
      "midi": 60,
      "hit": false,
      "t": 53663.17600000022,
      "d": 91.88900000000285,
      "v": 30
    },
    {
      "midi": 65,
      "hit": false,
      "t": 53663.17600000022,
      "d": 91.88900000000285,
      "v": 36
    },
    {
      "midi": 86,
      "hit": false,
      "t": 53801.009500000095,
      "d": 45.94449999999779,
      "v": 53
    },
    {
      "midi": 84,
      "hit": false,
      "t": 53846.95400000009,
      "d": 91.88900000000285,
      "v": 59
    },
    {
      "midi": 57,
      "hit": false,
      "t": 53846.95400000022,
      "d": 91.88900000000285,
      "v": 30
    },
    {
      "midi": 60,
      "hit": false,
      "t": 53846.95400000022,
      "d": 91.88900000000285,
      "v": 30
    },
    {
      "midi": 65,
      "hit": false,
      "t": 53846.95400000022,
      "d": 91.88900000000285,
      "v": 36
    },
    {
      "midi": 83,
      "hit": false,
      "t": 53938.843000000095,
      "d": 91.88900000000285,
      "v": 52
    },
    {
      "midi": 84,
      "hit": false,
      "t": 54030.7320000001,
      "d": 91.88900000000285,
      "v": 63
    },
    {
      "midi": 57,
      "hit": false,
      "t": 54030.73200000023,
      "d": 91.88900000000285,
      "v": 36
    },
    {
      "midi": 60,
      "hit": false,
      "t": 54030.73200000023,
      "d": 91.88900000000285,
      "v": 36
    },
    {
      "midi": 65,
      "hit": false,
      "t": 54030.73200000023,
      "d": 91.88900000000285,
      "v": 42
    },
    {
      "midi": 57,
      "hit": false,
      "t": 54214.510000000235,
      "d": 91.88900000000285,
      "v": 31
    },
    {
      "midi": 60,
      "hit": false,
      "t": 54214.510000000235,
      "d": 91.88900000000285,
      "v": 31
    },
    {
      "midi": 65,
      "hit": false,
      "t": 54214.510000000235,
      "d": 91.88900000000285,
      "v": 37
    },
    {
      "midi": 90,
      "hit": false,
      "t": 54352.343500000105,
      "d": 45.94449999999779,
      "v": 55
    },
    {
      "midi": 89,
      "hit": false,
      "t": 54398.2880000001,
      "d": 91.88900000000285,
      "v": 60
    },
    {
      "midi": 57,
      "hit": false,
      "t": 54398.28800000024,
      "d": 91.88900000000285,
      "v": 31
    },
    {
      "midi": 60,
      "hit": false,
      "t": 54398.28800000024,
      "d": 91.88900000000285,
      "v": 31
    },
    {
      "midi": 65,
      "hit": false,
      "t": 54398.28800000024,
      "d": 91.88900000000285,
      "v": 37
    },
    {
      "midi": 88,
      "hit": false,
      "t": 54490.177000000105,
      "d": 91.88900000000285,
      "v": 55
    },
    {
      "midi": 89,
      "hit": false,
      "t": 54582.06600000011,
      "d": 91.88900000000285,
      "v": 61
    },
    {
      "midi": 57,
      "hit": false,
      "t": 54582.066000000246,
      "d": 91.88900000000285,
      "v": 31
    },
    {
      "midi": 60,
      "hit": false,
      "t": 54582.066000000246,
      "d": 91.88900000000285,
      "v": 31
    },
    {
      "midi": 65,
      "hit": false,
      "t": 54582.066000000246,
      "d": 91.88900000000285,
      "v": 38
    },
    {
      "midi": 57,
      "hit": false,
      "t": 54765.84400000025,
      "d": 91.88900000000285,
      "v": 29
    },
    {
      "midi": 60,
      "hit": false,
      "t": 54765.84400000025,
      "d": 91.88900000000285,
      "v": 29
    },
    {
      "midi": 65,
      "hit": false,
      "t": 54765.84400000025,
      "d": 91.88900000000285,
      "v": 35
    },
    {
      "midi": 85,
      "hit": false,
      "t": 54903.677500000114,
      "d": 45.94449999999779,
      "v": 51
    },
    {
      "midi": 84,
      "hit": false,
      "t": 54949.62200000011,
      "d": 91.88900000000285,
      "v": 57
    },
    {
      "midi": 57,
      "hit": false,
      "t": 54949.62200000026,
      "d": 91.88900000000285,
      "v": 29
    },
    {
      "midi": 60,
      "hit": false,
      "t": 54949.62200000026,
      "d": 91.88900000000285,
      "v": 29
    },
    {
      "midi": 65,
      "hit": false,
      "t": 54949.62200000026,
      "d": 91.88900000000285,
      "v": 35
    },
    {
      "midi": 83,
      "hit": false,
      "t": 55041.511000000115,
      "d": 91.88900000000285,
      "v": 50
    },
    {
      "midi": 84,
      "hit": false,
      "t": 55133.40000000012,
      "d": 91.88900000000285,
      "v": 60
    },
    {
      "midi": 57,
      "hit": false,
      "t": 55133.40000000026,
      "d": 91.88900000000285,
      "v": 34
    },
    {
      "midi": 60,
      "hit": false,
      "t": 55133.40000000026,
      "d": 91.88900000000285,
      "v": 34
    },
    {
      "midi": 65,
      "hit": false,
      "t": 55133.40000000026,
      "d": 91.88900000000285,
      "v": 40
    },
    {
      "midi": 57,
      "hit": false,
      "t": 55317.17800000027,
      "d": 91.88900000000285,
      "v": 29
    },
    {
      "midi": 60,
      "hit": false,
      "t": 55317.17800000027,
      "d": 91.88900000000285,
      "v": 29
    },
    {
      "midi": 65,
      "hit": false,
      "t": 55317.17800000027,
      "d": 91.88900000000285,
      "v": 35
    },
    {
      "midi": 82,
      "hit": false,
      "t": 55455.011500000124,
      "d": 45.94449999999779,
      "v": 51
    },
    {
      "midi": 81,
      "hit": false,
      "t": 55500.95600000012,
      "d": 91.88900000000285,
      "v": 56
    },
    {
      "midi": 57,
      "hit": false,
      "t": 55500.956000000275,
      "d": 91.88900000000285,
      "v": 29
    },
    {
      "midi": 60,
      "hit": false,
      "t": 55500.956000000275,
      "d": 91.88900000000285,
      "v": 29
    },
    {
      "midi": 65,
      "hit": false,
      "t": 55500.956000000275,
      "d": 91.88900000000285,
      "v": 35
    },
    {
      "midi": 79,
      "hit": false,
      "t": 55592.845000000125,
      "d": 91.88900000000285,
      "v": 51
    },
    {
      "midi": 81,
      "hit": false,
      "t": 55684.73400000013,
      "d": 91.88900000000285,
      "v": 56
    },
    {
      "midi": 57,
      "hit": false,
      "t": 55684.73400000028,
      "d": 91.88900000000285,
      "v": 29
    },
    {
      "midi": 60,
      "hit": false,
      "t": 55684.73400000028,
      "d": 91.88900000000285,
      "v": 29
    },
    {
      "midi": 65,
      "hit": false,
      "t": 55684.73400000028,
      "d": 91.88900000000285,
      "v": 35
    },
    {
      "midi": 57,
      "hit": false,
      "t": 55868.512000000286,
      "d": 91.88900000000285,
      "v": 29
    },
    {
      "midi": 60,
      "hit": false,
      "t": 55868.512000000286,
      "d": 91.88900000000285,
      "v": 29
    },
    {
      "midi": 65,
      "hit": false,
      "t": 55868.512000000286,
      "d": 91.88900000000285,
      "v": 35
    },
    {
      "midi": 78,
      "hit": false,
      "t": 56006.345500000134,
      "d": 45.94449999999779,
      "v": 51
    },
    {
      "midi": 77,
      "hit": false,
      "t": 56052.29000000013,
      "d": 91.88900000000285,
      "v": 57
    },
    {
      "midi": 57,
      "hit": false,
      "t": 56052.29000000029,
      "d": 91.88900000000285,
      "v": 29
    },
    {
      "midi": 60,
      "hit": false,
      "t": 56052.29000000029,
      "d": 91.88900000000285,
      "v": 29
    },
    {
      "midi": 65,
      "hit": false,
      "t": 56052.29000000029,
      "d": 91.88900000000285,
      "v": 35
    },
    {
      "midi": 76,
      "hit": false,
      "t": 56144.179000000135,
      "d": 91.88900000000285,
      "v": 50
    },
    {
      "midi": 77,
      "hit": false,
      "t": 56236.06800000014,
      "d": 91.88900000000285,
      "v": 60
    },
    {
      "midi": 57,
      "hit": false,
      "t": 56236.0680000003,
      "d": 91.88900000000285,
      "v": 34
    },
    {
      "midi": 60,
      "hit": false,
      "t": 56236.0680000003,
      "d": 91.88900000000285,
      "v": 34
    },
    {
      "midi": 65,
      "hit": false,
      "t": 56236.0680000003,
      "d": 91.88900000000285,
      "v": 40
    },
    {
      "midi": 57,
      "hit": false,
      "t": 56419.8460000003,
      "d": 91.88900000000285,
      "v": 29
    },
    {
      "midi": 60,
      "hit": false,
      "t": 56419.8460000003,
      "d": 91.88900000000285,
      "v": 29
    },
    {
      "midi": 65,
      "hit": false,
      "t": 56419.8460000003,
      "d": 91.88900000000285,
      "v": 35
    },
    {
      "midi": 73,
      "hit": false,
      "t": 56557.679500000144,
      "d": 45.94449999999779,
      "v": 51
    },
    {
      "midi": 72,
      "hit": false,
      "t": 56603.62400000014,
      "d": 91.88900000000285,
      "v": 56
    },
    {
      "midi": 57,
      "hit": false,
      "t": 56603.62400000031,
      "d": 91.88900000000285,
      "v": 29
    },
    {
      "midi": 60,
      "hit": false,
      "t": 56603.62400000031,
      "d": 91.88900000000285,
      "v": 29
    },
    {
      "midi": 65,
      "hit": false,
      "t": 56603.62400000031,
      "d": 91.88900000000285,
      "v": 35
    },
    {
      "midi": 71,
      "hit": false,
      "t": 56695.513000000145,
      "d": 91.88900000000285,
      "v": 51
    },
    {
      "midi": 72,
      "hit": false,
      "t": 56787.40200000015,
      "d": 183.77799999999843,
      "v": 56
    },
    {
      "midi": 57,
      "hit": false,
      "t": 56787.402000000315,
      "d": 183.77799999999843,
      "v": 29
    },
    {
      "midi": 60,
      "hit": false,
      "t": 56787.402000000315,
      "d": 183.77799999999843,
      "v": 29
    },
    {
      "midi": 65,
      "hit": false,
      "t": 56787.402000000315,
      "d": 183.77799999999843,
      "v": 35
    },
    {
      "midi": 53,
      "hit": false,
      "t": 56971.18000000031,
      "d": 183.77799999999843,
      "v": 35
    },
    {
      "midi": 73,
      "hit": false,
      "t": 57154.958000000144,
      "d": 183.77799999999843,
      "v": 61
    },
    {
      "midi": 51,
      "hit": false,
      "t": 57154.95800000031,
      "d": 183.77799999999843,
      "v": 35
    },
    {
      "midi": 65,
      "hit": false,
      "t": 57338.73600000014,
      "d": 91.88900000000285,
      "v": 35
    },
    {
      "midi": 74,
      "hit": false,
      "t": 57338.73600000014,
      "d": 551.3340000000171,
      "v": 56
    },
    {
      "midi": 50,
      "hit": false,
      "t": 57338.73600000031,
      "d": 367.55599999999686,
      "v": 40
    },
    {
      "midi": 46,
      "hit": false,
      "t": 57338.73600000031,
      "d": 1102.6679999999906,
      "v": 40
    },
    {
      "midi": 67,
      "hit": false,
      "t": 57430.625000000146,
      "d": 91.88900000000285,
      "v": 31
    },
    {
      "midi": 65,
      "hit": false,
      "t": 57522.51400000015,
      "d": 91.88900000000285,
      "v": 35
    },
    {
      "midi": 67,
      "hit": false,
      "t": 57614.40300000015,
      "d": 91.88900000000285,
      "v": 31
    },
    {
      "midi": 65,
      "hit": false,
      "t": 57706.292000000154,
      "d": 91.88900000000285,
      "v": 34
    },
    {
      "midi": 55,
      "hit": false,
      "t": 57706.29200000031,
      "d": 183.77799999999843,
      "v": 33
    },
    {
      "midi": 67,
      "hit": false,
      "t": 57798.18100000016,
      "d": 91.88900000000285,
      "v": 31
    },
    {
      "midi": 65,
      "hit": false,
      "t": 57890.07000000016,
      "d": 91.88900000000285,
      "v": 36
    },
    {
      "midi": 70,
      "hit": false,
      "t": 57890.07000000016,
      "d": 551.3340000000171,
      "v": 55
    },
    {
      "midi": 53,
      "hit": false,
      "t": 57890.070000000305,
      "d": 367.55599999999686,
      "v": 42
    },
    {
      "midi": 67,
      "hit": false,
      "t": 57981.95900000016,
      "d": 91.88900000000285,
      "v": 32
    },
    {
      "midi": 65,
      "hit": false,
      "t": 58073.848000000165,
      "d": 91.88900000000285,
      "v": 36
    },
    {
      "midi": 67,
      "hit": false,
      "t": 58165.73700000017,
      "d": 91.88900000000285,
      "v": 31
    },
    {
      "midi": 65,
      "hit": false,
      "t": 58257.62600000017,
      "d": 91.88900000000285,
      "v": 37
    },
    {
      "midi": 50,
      "hit": false,
      "t": 58257.6260000003,
      "d": 183.77799999999843,
      "v": 39
    },
    {
      "midi": 67,
      "hit": false,
      "t": 58349.515000000174,
      "d": 91.88900000000285,
      "v": 31
    },
    {
      "midi": 65,
      "hit": false,
      "t": 58441.40400000018,
      "d": 91.88900000000285,
      "v": 37
    },
    {
      "midi": 69,
      "hit": false,
      "t": 58441.40400000018,
      "d": 551.3340000000171,
      "v": 59
    },
    {
      "midi": 48,
      "hit": false,
      "t": 58441.4040000003,
      "d": 367.55599999999686,
      "v": 42
    },
    {
      "midi": 41,
      "hit": false,
      "t": 58441.4040000003,
      "d": 1102.6679999999906,
      "v": 42
    },
    {
      "midi": 67,
      "hit": false,
      "t": 58533.29300000018,
      "d": 91.88900000000285,
      "v": 33
    },
    {
      "midi": 65,
      "hit": false,
      "t": 58625.18200000018,
      "d": 91.88900000000285,
      "v": 37
    },
    {
      "midi": 67,
      "hit": false,
      "t": 58717.071000000185,
      "d": 91.88900000000285,
      "v": 33
    },
    {
      "midi": 65,
      "hit": false,
      "t": 58808.96000000019,
      "d": 91.88900000000285,
      "v": 37
    },
    {
      "midi": 55,
      "hit": false,
      "t": 58808.9600000003,
      "d": 183.77799999999843,
      "v": 36
    },
    {
      "midi": 67,
      "hit": false,
      "t": 58900.84900000019,
      "d": 91.88900000000285,
      "v": 34
    },
    {
      "midi": 65,
      "hit": false,
      "t": 58992.738000000194,
      "d": 91.88900000000285,
      "v": 38
    },
    {
      "midi": 75,
      "hit": false,
      "t": 58992.738000000194,
      "d": 551.3340000000171,
      "v": 59
    },
    {
      "midi": 53,
      "hit": false,
      "t": 58992.738000000296,
      "d": 367.55599999999686,
      "v": 45
    },
    {
      "midi": 67,
      "hit": false,
      "t": 59084.6270000002,
      "d": 91.88900000000285,
      "v": 34
    },
    {
      "midi": 65,
      "hit": false,
      "t": 59176.5160000002,
      "d": 91.88900000000285,
      "v": 39
    },
    {
      "midi": 67,
      "hit": false,
      "t": 59268.4050000002,
      "d": 91.88900000000285,
      "v": 33
    },
    {
      "midi": 65,
      "hit": false,
      "t": 59360.294000000205,
      "d": 91.88900000000285,
      "v": 39
    },
    {
      "midi": 48,
      "hit": false,
      "t": 59360.29400000029,
      "d": 183.77799999999843,
      "v": 41
    },
    {
      "midi": 67,
      "hit": false,
      "t": 59452.18300000021,
      "d": 91.88900000000285,
      "v": 34
    },
    {
      "midi": 65,
      "hit": false,
      "t": 59544.07200000021,
      "d": 91.88900000000285,
      "v": 40
    },
    {
      "midi": 74,
      "hit": false,
      "t": 59544.07200000021,
      "d": 551.3340000000171,
      "v": 64
    },
    {
      "midi": 50,
      "hit": false,
      "t": 59544.07200000029,
      "d": 367.55599999999686,
      "v": 46
    },
    {
      "midi": 46,
      "hit": false,
      "t": 59544.07200000029,
      "d": 1102.6679999999906,
      "v": 46
    },
    {
      "midi": 67,
      "hit": false,
      "t": 59635.961000000214,
      "d": 91.88900000000285,
      "v": 35
    },
    {
      "midi": 65,
      "hit": false,
      "t": 59727.85000000022,
      "d": 91.88900000000285,
      "v": 39
    },
    {
      "midi": 67,
      "hit": false,
      "t": 59819.73900000022,
      "d": 91.88900000000285,
      "v": 35
    },
    {
      "midi": 65,
      "hit": false,
      "t": 59911.62800000022,
      "d": 91.88900000000285,
      "v": 38
    },
    {
      "midi": 55,
      "hit": false,
      "t": 59911.62800000029,
      "d": 183.77799999999843,
      "v": 37
    },
    {
      "midi": 67,
      "hit": false,
      "t": 60003.517000000225,
      "d": 91.88900000000285,
      "v": 34
    },
    {
      "midi": 65,
      "hit": false,
      "t": 60095.40600000023,
      "d": 91.88900000000285,
      "v": 39
    },
    {
      "midi": 70,
      "hit": false,
      "t": 60095.40600000023,
      "d": 551.3340000000171,
      "v": 60
    },
    {
      "midi": 53,
      "hit": false,
      "t": 60095.40600000029,
      "d": 367.55599999999686,
      "v": 45
    },
    {
      "midi": 67,
      "hit": false,
      "t": 60187.29500000023,
      "d": 91.88900000000285,
      "v": 34
    },
    {
      "midi": 65,
      "hit": false,
      "t": 60279.184000000234,
      "d": 91.88900000000285,
      "v": 38
    },
    {
      "midi": 67,
      "hit": false,
      "t": 60371.07300000024,
      "d": 91.88900000000285,
      "v": 33
    },
    {
      "midi": 65,
      "hit": false,
      "t": 60462.96200000024,
      "d": 91.88900000000285,
      "v": 38
    },
    {
      "midi": 50,
      "hit": false,
      "t": 60462.96200000028,
      "d": 183.77799999999843,
      "v": 40
    },
    {
      "midi": 67,
      "hit": false,
      "t": 60554.85100000024,
      "d": 91.88900000000285,
      "v": 32
    },
    {
      "midi": 65,
      "hit": false,
      "t": 60646.740000000245,
      "d": 91.88900000000285,
      "v": 37
    },
    {
      "midi": 69,
      "hit": false,
      "t": 60646.740000000245,
      "d": 551.3340000000171,
      "v": 60
    },
    {
      "midi": 48,
      "hit": false,
      "t": 60646.74000000028,
      "d": 367.55599999999686,
      "v": 43
    },
    {
      "midi": 41,
      "hit": false,
      "t": 60646.74000000028,
      "d": 1102.6679999999906,
      "v": 43
    },
    {
      "midi": 67,
      "hit": false,
      "t": 60738.62900000025,
      "d": 91.88900000000285,
      "v": 33
    },
    {
      "midi": 65,
      "hit": false,
      "t": 60830.51800000025,
      "d": 91.88900000000285,
      "v": 37
    },
    {
      "midi": 67,
      "hit": false,
      "t": 60922.407000000254,
      "d": 91.88900000000285,
      "v": 32
    },
    {
      "midi": 65,
      "hit": false,
      "t": 61014.29600000026,
      "d": 91.88900000000285,
      "v": 35
    },
    {
      "midi": 55,
      "hit": false,
      "t": 61014.29600000028,
      "d": 183.77799999999843,
      "v": 34
    },
    {
      "midi": 67,
      "hit": false,
      "t": 61106.18500000026,
      "d": 91.88900000000285,
      "v": 32
    },
    {
      "midi": 65,
      "hit": false,
      "t": 61198.07400000026,
      "d": 91.88900000000285,
      "v": 36
    },
    {
      "midi": 75,
      "hit": false,
      "t": 61198.07400000026,
      "d": 551.3340000000171,
      "v": 56
    },
    {
      "midi": 53,
      "hit": false,
      "t": 61198.07400000028,
      "d": 367.55599999999686,
      "v": 42
    },
    {
      "midi": 67,
      "hit": false,
      "t": 61289.963000000265,
      "d": 91.88900000000285,
      "v": 32
    },
    {
      "midi": 65,
      "hit": false,
      "t": 61381.85200000027,
      "d": 91.88900000000285,
      "v": 36
    },
    {
      "midi": 67,
      "hit": false,
      "t": 61473.74100000027,
      "d": 91.88900000000285,
      "v": 30
    },
    {
      "midi": 65,
      "hit": false,
      "t": 61565.630000000274,
      "d": 91.88900000000285,
      "v": 35
    },
    {
      "midi": 48,
      "hit": false,
      "t": 61565.630000000274,
      "d": 183.77799999999843,
      "v": 37
    },
    {
      "midi": 67,
      "hit": false,
      "t": 61657.51900000028,
      "d": 91.88900000000285,
      "v": 30
    },
    {
      "midi": 46,
      "hit": false,
      "t": 61749.40800000027,
      "d": 91.88900000000285,
      "v": 34
    },
    {
      "midi": 50,
      "hit": false,
      "t": 61749.40800000027,
      "d": 91.88900000000285,
      "v": 40
    },
    {
      "midi": 74,
      "hit": false,
      "t": 61749.40800000028,
      "d": 91.88900000000285,
      "v": 51
    },
    {
      "midi": 77,
      "hit": false,
      "t": 61841.29700000028,
      "d": 91.88900000000285,
      "v": 45
    },
    {
      "midi": 50,
      "hit": false,
      "t": 61933.18600000028,
      "d": 91.88900000000285,
      "v": 29
    },
    {
      "midi": 53,
      "hit": false,
      "t": 61933.18600000028,
      "d": 91.88900000000285,
      "v": 29
    },
    {
      "midi": 58,
      "hit": false,
      "t": 61933.18600000028,
      "d": 91.88900000000285,
      "v": 35
    },
    {
      "midi": 79,
      "hit": false,
      "t": 61933.186000000285,
      "d": 61.259333333335235,
      "v": 48
    },
    {
      "midi": 81,
      "hit": false,
      "t": 61994.44533333362,
      "d": 61.259333333335235,
      "v": 50
    },
    {
      "midi": 82,
      "hit": false,
      "t": 62055.704666666956,
      "d": 61.259333333335235,
      "v": 52
    },
    {
      "midi": 50,
      "hit": false,
      "t": 62116.964000000284,
      "d": 91.88900000000285,
      "v": 29
    },
    {
      "midi": 53,
      "hit": false,
      "t": 62116.964000000284,
      "d": 91.88900000000285,
      "v": 29
    },
    {
      "midi": 58,
      "hit": false,
      "t": 62116.964000000284,
      "d": 91.88900000000285,
      "v": 35
    },
    {
      "midi": 84,
      "hit": false,
      "t": 62116.96400000029,
      "d": 61.259333333335235,
      "v": 54
    },
    {
      "midi": 86,
      "hit": false,
      "t": 62178.223333333626,
      "d": 61.259333333335235,
      "v": 56
    },
    {
      "midi": 87,
      "hit": false,
      "t": 62239.48266666696,
      "d": 61.259333333335235,
      "v": 59
    },
    {
      "midi": 50,
      "hit": false,
      "t": 62300.74200000029,
      "d": 91.88900000000285,
      "v": 29
    },
    {
      "midi": 53,
      "hit": false,
      "t": 62300.74200000029,
      "d": 91.88900000000285,
      "v": 29
    },
    {
      "midi": 58,
      "hit": false,
      "t": 62300.74200000029,
      "d": 91.88900000000285,
      "v": 35
    },
    {
      "midi": 89,
      "hit": false,
      "t": 62300.7420000003,
      "d": 91.88900000000285,
      "v": 61
    },
    {
      "midi": 87,
      "hit": false,
      "t": 62392.6310000003,
      "d": 91.88900000000285,
      "v": 60
    },
    {
      "midi": 50,
      "hit": false,
      "t": 62484.520000000295,
      "d": 91.88900000000285,
      "v": 29
    },
    {
      "midi": 53,
      "hit": false,
      "t": 62484.520000000295,
      "d": 91.88900000000285,
      "v": 29
    },
    {
      "midi": 58,
      "hit": false,
      "t": 62484.520000000295,
      "d": 91.88900000000285,
      "v": 35
    },
    {
      "midi": 86,
      "hit": false,
      "t": 62484.5200000003,
      "d": 91.88900000000285,
      "v": 58
    },
    {
      "midi": 84,
      "hit": false,
      "t": 62576.409000000305,
      "d": 91.88900000000285,
      "v": 57
    },
    {
      "midi": 50,
      "hit": false,
      "t": 62668.2980000003,
      "d": 91.88900000000285,
      "v": 29
    },
    {
      "midi": 53,
      "hit": false,
      "t": 62668.2980000003,
      "d": 91.88900000000285,
      "v": 29
    },
    {
      "midi": 58,
      "hit": false,
      "t": 62668.2980000003,
      "d": 91.88900000000285,
      "v": 35
    },
    {
      "midi": 82,
      "hit": false,
      "t": 62668.29800000031,
      "d": 91.88900000000285,
      "v": 55
    },
    {
      "midi": 81,
      "hit": false,
      "t": 62760.18700000031,
      "d": 91.88900000000285,
      "v": 54
    },
    {
      "midi": 79,
      "hit": false,
      "t": 62852.076000000314,
      "d": 91.88900000000285,
      "v": 51
    },
    {
      "midi": 81,
      "hit": false,
      "t": 62943.96500000032,
      "d": 91.88900000000285,
      "v": 45
    },
    {
      "midi": 51,
      "hit": false,
      "t": 63035.854000000305,
      "d": 91.88900000000285,
      "v": 29
    },
    {
      "midi": 55,
      "hit": false,
      "t": 63035.854000000305,
      "d": 91.88900000000285,
      "v": 29
    },
    {
      "midi": 58,
      "hit": false,
      "t": 63035.854000000305,
      "d": 91.88900000000285,
      "v": 35
    },
    {
      "midi": 82,
      "hit": false,
      "t": 63035.85400000032,
      "d": 91.88900000000285,
      "v": 48
    },
    {
      "midi": 84,
      "hit": false,
      "t": 63127.74300000032,
      "d": 91.88900000000285,
      "v": 50
    },
    {
      "midi": 51,
      "hit": false,
      "t": 63219.63200000031,
      "d": 91.88900000000285,
      "v": 29
    },
    {
      "midi": 55,
      "hit": false,
      "t": 63219.63200000031,
      "d": 91.88900000000285,
      "v": 29
    },
    {
      "midi": 58,
      "hit": false,
      "t": 63219.63200000031,
      "d": 91.88900000000285,
      "v": 35
    },
    {
      "midi": 86,
      "hit": false,
      "t": 63219.632000000325,
      "d": 61.259333333335235,
      "v": 54
    },
    {
      "midi": 87,
      "hit": false,
      "t": 63280.89133333366,
      "d": 61.259333333335235,
      "v": 56
    },
    {
      "midi": 89,
      "hit": false,
      "t": 63342.150666666996,
      "d": 61.259333333335235,
      "v": 59
    },
    {
      "midi": 51,
      "hit": false,
      "t": 63403.410000000316,
      "d": 91.88900000000285,
      "v": 29
    },
    {
      "midi": 55,
      "hit": false,
      "t": 63403.410000000316,
      "d": 91.88900000000285,
      "v": 29
    },
    {
      "midi": 58,
      "hit": false,
      "t": 63403.410000000316,
      "d": 91.88900000000285,
      "v": 35
    },
    {
      "midi": 91,
      "hit": false,
      "t": 63403.41000000033,
      "d": 91.88900000000285,
      "v": 61
    },
    {
      "midi": 89,
      "hit": false,
      "t": 63495.299000000334,
      "d": 91.88900000000285,
      "v": 60
    },
    {
      "midi": 51,
      "hit": false,
      "t": 63587.18800000032,
      "d": 91.88900000000285,
      "v": 29
    },
    {
      "midi": 55,
      "hit": false,
      "t": 63587.18800000032,
      "d": 91.88900000000285,
      "v": 29
    },
    {
      "midi": 58,
      "hit": false,
      "t": 63587.18800000032,
      "d": 91.88900000000285,
      "v": 35
    },
    {
      "midi": 87,
      "hit": false,
      "t": 63587.18800000034,
      "d": 61.259333333335235,
      "v": 58
    },
    {
      "midi": 86,
      "hit": false,
      "t": 63648.44733333367,
      "d": 61.259333333335235,
      "v": 57
    },
    {
      "midi": 84,
      "hit": false,
      "t": 63709.70666666701,
      "d": 61.259333333335235,
      "v": 56
    },
    {
      "midi": 51,
      "hit": false,
      "t": 63770.96600000033,
      "d": 91.88900000000285,
      "v": 29
    },
    {
      "midi": 55,
      "hit": false,
      "t": 63770.96600000033,
      "d": 91.88900000000285,
      "v": 29
    },
    {
      "midi": 60,
      "hit": false,
      "t": 63770.96600000033,
      "d": 91.88900000000285,
      "v": 35
    },
    {
      "midi": 82,
      "hit": false,
      "t": 63770.96600000034,
      "d": 61.259333333335235,
      "v": 55
    },
    {
      "midi": 81,
      "hit": false,
      "t": 63832.22533333368,
      "d": 61.259333333335235,
      "v": 54
    },
    {
      "midi": 79,
      "hit": false,
      "t": 63893.48466666701,
      "d": 61.259333333335235,
      "v": 53
    },
    {
      "midi": 77,
      "hit": false,
      "t": 63954.74400000035,
      "d": 91.88900000000285,
      "v": 57
    },
    {
      "midi": 86,
      "hit": false,
      "t": 64046.63300000035,
      "d": 91.88900000000285,
      "v": 49
    },
    {
      "midi": 53,
      "hit": false,
      "t": 64138.52200000033,
      "d": 91.88900000000285,
      "v": 29
    },
    {
      "midi": 58,
      "hit": false,
      "t": 64138.52200000033,
      "d": 91.88900000000285,
      "v": 29
    },
    {
      "midi": 62,
      "hit": false,
      "t": 64138.52200000033,
      "d": 91.88900000000285,
      "v": 35
    },
    {
      "midi": 82,
      "hit": false,
      "t": 64138.522000000354,
      "d": 91.88900000000285,
      "v": 59
    },
    {
      "midi": 89,
      "hit": false,
      "t": 64230.41100000036,
      "d": 91.88900000000285,
      "v": 55
    },
    {
      "midi": 53,
      "hit": false,
      "t": 64322.30000000034,
      "d": 91.88900000000285,
      "v": 29
    },
    {
      "midi": 58,
      "hit": false,
      "t": 64322.30000000034,
      "d": 91.88900000000285,
      "v": 29
    },
    {
      "midi": 62,
      "hit": false,
      "t": 64322.30000000034,
      "d": 91.88900000000285,
      "v": 35
    },
    {
      "midi": 86,
      "hit": false,
      "t": 64322.30000000036,
      "d": 91.88900000000285,
      "v": 62
    },
    {
      "midi": 94,
      "hit": false,
      "t": 64414.18900000036,
      "d": 91.88900000000285,
      "v": 57
    },
    {
      "midi": 53,
      "hit": false,
      "t": 64506.07800000034,
      "d": 91.88900000000285,
      "v": 29
    },
    {
      "midi": 58,
      "hit": false,
      "t": 64506.07800000034,
      "d": 91.88900000000285,
      "v": 29
    },
    {
      "midi": 62,
      "hit": false,
      "t": 64506.07800000034,
      "d": 91.88900000000285,
      "v": 35
    },
    {
      "midi": 89,
      "hit": false,
      "t": 64506.078000000365,
      "d": 61.259333333335235,
      "v": 62
    },
    {
      "midi": 98,
      "hit": false,
      "t": 64567.3373333337,
      "d": 61.259333333335235,
      "v": 57
    },
    {
      "midi": 94,
      "hit": false,
      "t": 64628.596666667036,
      "d": 61.259333333335235,
      "v": 55
    },
    {
      "midi": 53,
      "hit": false,
      "t": 64689.85600000035,
      "d": 91.88900000000285,
      "v": 29
    },
    {
      "midi": 58,
      "hit": false,
      "t": 64689.85600000035,
      "d": 91.88900000000285,
      "v": 29
    },
    {
      "midi": 62,
      "hit": false,
      "t": 64689.85600000035,
      "d": 91.88900000000285,
      "v": 35
    },
    {
      "midi": 101,
      "hit": false,
      "t": 64689.85600000037,
      "d": 61.259333333335235,
      "v": 61
    },
    {
      "midi": 98,
      "hit": false,
      "t": 64751.115333333706,
      "d": 61.259333333335235,
      "v": 53
    },
    {
      "midi": 94,
      "hit": false,
      "t": 64812.37466666704,
      "d": 61.259333333335235,
      "v": 54
    },
    {
      "midi": 53,
      "hit": false,
      "t": 64873.634000000355,
      "d": 91.88900000000285,
      "v": 29
    },
    {
      "midi": 58,
      "hit": false,
      "t": 64873.634000000355,
      "d": 91.88900000000285,
      "v": 29
    },
    {
      "midi": 62,
      "hit": false,
      "t": 64873.634000000355,
      "d": 91.88900000000285,
      "v": 35
    },
    {
      "midi": 89,
      "hit": false,
      "t": 64873.63400000038,
      "d": 61.259333333335235,
      "v": 59
    },
    {
      "midi": 86,
      "hit": false,
      "t": 64934.89333333371,
      "d": 61.259333333335235,
      "v": 53
    },
    {
      "midi": 82,
      "hit": false,
      "t": 64996.15266666705,
      "d": 61.259333333335235,
      "v": 53
    },
    {
      "midi": 53,
      "hit": false,
      "t": 65057.41200000036,
      "d": 91.88900000000285,
      "v": 29
    },
    {
      "midi": 58,
      "hit": false,
      "t": 65057.41200000036,
      "d": 91.88900000000285,
      "v": 29
    },
    {
      "midi": 62,
      "hit": false,
      "t": 65057.41200000036,
      "d": 91.88900000000285,
      "v": 35
    },
    {
      "midi": 77,
      "hit": false,
      "t": 65057.41200000038,
      "d": 367.55599999999686,
      "v": 59
    },
    {
      "midi": 53,
      "hit": false,
      "t": 65241.190000000366,
      "d": 91.88900000000285,
      "v": 29
    },
    {
      "midi": 58,
      "hit": false,
      "t": 65241.190000000366,
      "d": 91.88900000000285,
      "v": 29
    },
    {
      "midi": 62,
      "hit": false,
      "t": 65241.190000000366,
      "d": 91.88900000000285,
      "v": 35
    },
    {
      "midi": 53,
      "hit": false,
      "t": 65424.96800000037,
      "d": 91.88900000000285,
      "v": 29
    },
    {
      "midi": 58,
      "hit": false,
      "t": 65424.96800000037,
      "d": 91.88900000000285,
      "v": 29
    },
    {
      "midi": 62,
      "hit": false,
      "t": 65424.96800000037,
      "d": 91.88900000000285,
      "v": 35
    },
    {
      "midi": 84,
      "hit": false,
      "t": 65608.74600000038,
      "d": 61.259333333335235,
      "v": 59
    },
    {
      "midi": 53,
      "hit": false,
      "t": 65608.74600000038,
      "d": 91.88899999999558,
      "v": 29
    },
    {
      "midi": 57,
      "hit": false,
      "t": 65608.74600000038,
      "d": 91.88899999999558,
      "v": 29
    },
    {
      "midi": 63,
      "hit": false,
      "t": 65608.74600000038,
      "d": 91.88899999999558,
      "v": 35
    },
    {
      "midi": 86,
      "hit": false,
      "t": 65670.00533333371,
      "d": 61.259333333335235,
      "v": 52
    },
    {
      "midi": 84,
      "hit": false,
      "t": 65731.26466666705,
      "d": 61.259333333335235,
      "v": 59
    },
    {
      "midi": 53,
      "hit": false,
      "t": 65792.52400000037,
      "d": 91.88899999999558,
      "v": 29
    },
    {
      "midi": 57,
      "hit": false,
      "t": 65792.52400000037,
      "d": 91.88899999999558,
      "v": 29
    },
    {
      "midi": 63,
      "hit": false,
      "t": 65792.52400000037,
      "d": 91.88899999999558,
      "v": 35
    },
    {
      "midi": 86,
      "hit": false,
      "t": 65792.52400000038,
      "d": 61.259333333335235,
      "v": 54
    },
    {
      "midi": 84,
      "hit": false,
      "t": 65853.78333333372,
      "d": 61.259333333335235,
      "v": 59
    },
    {
      "midi": 86,
      "hit": false,
      "t": 65915.04266666705,
      "d": 61.259333333335235,
      "v": 53
    },
    {
      "midi": 53,
      "hit": false,
      "t": 65976.30200000036,
      "d": 91.88899999999558,
      "v": 29
    },
    {
      "midi": 57,
      "hit": false,
      "t": 65976.30200000036,
      "d": 91.88899999999558,
      "v": 29
    },
    {
      "midi": 63,
      "hit": false,
      "t": 65976.30200000036,
      "d": 91.88899999999558,
      "v": 35
    },
    {
      "midi": 84,
      "hit": false,
      "t": 65976.30200000039,
      "d": 61.259333333335235,
      "v": 59
    },
    {
      "midi": 86,
      "hit": false,
      "t": 66037.56133333372,
      "d": 61.259333333335235,
      "v": 53
    },
    {
      "midi": 84,
      "hit": false,
      "t": 66098.82066666706,
      "d": 61.259333333335235,
      "v": 56
    },
    {
      "midi": 62,
      "hit": false,
      "t": 66160.08000000035,
      "d": 367.55599999999686,
      "v": 40
    },
    {
      "midi": 58,
      "hit": false,
      "t": 66160.08000000035,
      "d": 1102.6680000000051,
      "v": 40
    },
    {
      "midi": 77,
      "hit": false,
      "t": 66160.0800000004,
      "d": 91.88899999999558,
      "v": 41
    },
    {
      "midi": 86,
      "hit": false,
      "t": 66160.0800000004,
      "d": 551.3339999999735,
      "v": 61
    },
    {
      "midi": 79,
      "hit": false,
      "t": 66251.96900000039,
      "d": 91.88899999999558,
      "v": 31
    },
    {
      "midi": 77,
      "hit": false,
      "t": 66343.85800000039,
      "d": 91.88899999999558,
      "v": 35
    },
    {
      "midi": 79,
      "hit": false,
      "t": 66435.74700000038,
      "d": 91.88899999999558,
      "v": 31
    },
    {
      "midi": 67,
      "hit": false,
      "t": 66527.63600000035,
      "d": 183.7780000000057,
      "v": 33
    },
    {
      "midi": 77,
      "hit": false,
      "t": 66527.63600000038,
      "d": 91.88899999999558,
      "v": 34
    },
    {
      "midi": 79,
      "hit": false,
      "t": 66619.52500000037,
      "d": 91.88899999999558,
      "v": 31
    },
    {
      "midi": 65,
      "hit": false,
      "t": 66711.41400000035,
      "d": 367.55599999999686,
      "v": 42
    },
    {
      "midi": 77,
      "hit": false,
      "t": 66711.41400000037,
      "d": 91.88899999999558,
      "v": 36
    },
    {
      "midi": 82,
      "hit": false,
      "t": 66711.41400000037,
      "d": 551.3339999999735,
      "v": 55
    },
    {
      "midi": 79,
      "hit": false,
      "t": 66803.30300000036,
      "d": 91.88899999999558,
      "v": 32
    },
    {
      "midi": 77,
      "hit": false,
      "t": 66895.19200000036,
      "d": 91.88899999999558,
      "v": 36
    },
    {
      "midi": 79,
      "hit": false,
      "t": 66987.08100000035,
      "d": 91.88899999999558,
      "v": 31
    },
    {
      "midi": 77,
      "hit": false,
      "t": 67078.97000000035,
      "d": 91.88899999999558,
      "v": 37
    },
    {
      "midi": 62,
      "hit": false,
      "t": 67078.97000000035,
      "d": 183.7780000000057,
      "v": 39
    },
    {
      "midi": 79,
      "hit": false,
      "t": 67170.85900000035,
      "d": 91.88899999999558,
      "v": 31
    },
    {
      "midi": 77,
      "hit": false,
      "t": 67262.74800000034,
      "d": 91.88899999999558,
      "v": 37
    },
    {
      "midi": 81,
      "hit": false,
      "t": 67262.74800000034,
      "d": 551.3339999999735,
      "v": 59
    },
    {
      "midi": 60,
      "hit": false,
      "t": 67262.74800000036,
      "d": 367.55599999999686,
      "v": 42
    },
    {
      "midi": 53,
      "hit": false,
      "t": 67262.74800000036,
      "d": 1102.6680000000051,
      "v": 42
    },
    {
      "midi": 79,
      "hit": false,
      "t": 67354.63700000034,
      "d": 91.88899999999558,
      "v": 33
    },
    {
      "midi": 77,
      "hit": false,
      "t": 67446.52600000033,
      "d": 91.88899999999558,
      "v": 37
    },
    {
      "midi": 79,
      "hit": false,
      "t": 67538.41500000033,
      "d": 91.88899999999558,
      "v": 33
    },
    {
      "midi": 77,
      "hit": false,
      "t": 67630.30400000032,
      "d": 91.88899999999558,
      "v": 37
    },
    {
      "midi": 67,
      "hit": false,
      "t": 67630.30400000035,
      "d": 183.7780000000057,
      "v": 36
    },
    {
      "midi": 79,
      "hit": false,
      "t": 67722.19300000032,
      "d": 91.88899999999558,
      "v": 34
    },
    {
      "midi": 77,
      "hit": false,
      "t": 67814.08200000032,
      "d": 91.88899999999558,
      "v": 38
    },
    {
      "midi": 87,
      "hit": false,
      "t": 67814.08200000032,
      "d": 551.3339999999735,
      "v": 59
    },
    {
      "midi": 65,
      "hit": false,
      "t": 67814.08200000036,
      "d": 367.55599999999686,
      "v": 45
    },
    {
      "midi": 79,
      "hit": false,
      "t": 67905.97100000031,
      "d": 91.88899999999558,
      "v": 34
    },
    {
      "midi": 77,
      "hit": false,
      "t": 67997.8600000003,
      "d": 91.88899999999558,
      "v": 39
    },
    {
      "midi": 79,
      "hit": false,
      "t": 68089.7490000003,
      "d": 91.88899999999558,
      "v": 33
    },
    {
      "midi": 77,
      "hit": false,
      "t": 68181.6380000003,
      "d": 91.88899999999558,
      "v": 39
    },
    {
      "midi": 60,
      "hit": false,
      "t": 68181.63800000036,
      "d": 183.7780000000057,
      "v": 41
    },
    {
      "midi": 79,
      "hit": false,
      "t": 68273.5270000003,
      "d": 91.88899999999558,
      "v": 34
    },
    {
      "midi": 77,
      "hit": false,
      "t": 68365.41600000029,
      "d": 91.88899999999558,
      "v": 40
    },
    {
      "midi": 86,
      "hit": false,
      "t": 68365.41600000029,
      "d": 551.3339999999735,
      "v": 64
    },
    {
      "midi": 62,
      "hit": false,
      "t": 68365.41600000036,
      "d": 367.55599999999686,
      "v": 46
    },
    {
      "midi": 58,
      "hit": false,
      "t": 68365.41600000036,
      "d": 1102.6680000000051,
      "v": 46
    },
    {
      "midi": 79,
      "hit": false,
      "t": 68457.30500000028,
      "d": 91.88899999999558,
      "v": 35
    },
    {
      "midi": 77,
      "hit": false,
      "t": 68549.19400000028,
      "d": 91.88899999999558,
      "v": 39
    },
    {
      "midi": 79,
      "hit": false,
      "t": 68641.08300000028,
      "d": 91.88899999999558,
      "v": 35
    },
    {
      "midi": 77,
      "hit": false,
      "t": 68732.97200000027,
      "d": 91.88899999999558,
      "v": 38
    },
    {
      "midi": 67,
      "hit": false,
      "t": 68732.97200000036,
      "d": 183.7780000000057,
      "v": 37
    },
    {
      "midi": 79,
      "hit": false,
      "t": 68824.86100000027,
      "d": 91.88899999999558,
      "v": 34
    },
    {
      "midi": 77,
      "hit": false,
      "t": 68916.75000000026,
      "d": 91.88899999999558,
      "v": 39
    },
    {
      "midi": 82,
      "hit": false,
      "t": 68916.75000000026,
      "d": 551.3339999999735,
      "v": 60
    },
    {
      "midi": 65,
      "hit": false,
      "t": 68916.75000000036,
      "d": 367.55599999999686,
      "v": 45
    },
    {
      "midi": 79,
      "hit": false,
      "t": 69008.63900000026,
      "d": 91.88899999999558,
      "v": 34
    },
    {
      "midi": 77,
      "hit": false,
      "t": 69100.52800000025,
      "d": 91.88899999999558,
      "v": 38
    },
    {
      "midi": 79,
      "hit": false,
      "t": 69192.41700000025,
      "d": 91.88899999999558,
      "v": 33
    },
    {
      "midi": 77,
      "hit": false,
      "t": 69284.30600000024,
      "d": 91.88899999999558,
      "v": 38
    },
    {
      "midi": 62,
      "hit": false,
      "t": 69284.30600000036,
      "d": 183.7780000000057,
      "v": 40
    },
    {
      "midi": 79,
      "hit": false,
      "t": 69376.19500000024,
      "d": 91.88899999999558,
      "v": 32
    },
    {
      "midi": 77,
      "hit": false,
      "t": 69468.08400000024,
      "d": 91.88899999999558,
      "v": 37
    },
    {
      "midi": 81,
      "hit": false,
      "t": 69468.08400000024,
      "d": 551.3339999999735,
      "v": 60
    },
    {
      "midi": 60,
      "hit": false,
      "t": 69468.08400000037,
      "d": 367.55599999999686,
      "v": 43
    },
    {
      "midi": 53,
      "hit": false,
      "t": 69468.08400000037,
      "d": 1102.6680000000051,
      "v": 43
    },
    {
      "midi": 79,
      "hit": false,
      "t": 69559.97300000023,
      "d": 91.88899999999558,
      "v": 33
    },
    {
      "midi": 77,
      "hit": false,
      "t": 69651.86200000023,
      "d": 91.88899999999558,
      "v": 37
    },
    {
      "midi": 79,
      "hit": false,
      "t": 69743.75100000022,
      "d": 91.88899999999558,
      "v": 32
    },
    {
      "midi": 77,
      "hit": false,
      "t": 69835.64000000022,
      "d": 91.88899999999558,
      "v": 35
    },
    {
      "midi": 67,
      "hit": false,
      "t": 69835.64000000036,
      "d": 183.7780000000057,
      "v": 34
    },
    {
      "midi": 79,
      "hit": false,
      "t": 69927.52900000021,
      "d": 91.88899999999558,
      "v": 32
    },
    {
      "midi": 77,
      "hit": false,
      "t": 70019.41800000021,
      "d": 91.88899999999558,
      "v": 36
    },
    {
      "midi": 87,
      "hit": false,
      "t": 70019.41800000021,
      "d": 551.3339999999735,
      "v": 56
    },
    {
      "midi": 65,
      "hit": false,
      "t": 70019.41800000037,
      "d": 367.55599999999686,
      "v": 42
    },
    {
      "midi": 79,
      "hit": false,
      "t": 70111.3070000002,
      "d": 91.88899999999558,
      "v": 32
    },
    {
      "midi": 77,
      "hit": false,
      "t": 70203.1960000002,
      "d": 91.88899999999558,
      "v": 36
    },
    {
      "midi": 79,
      "hit": false,
      "t": 70295.0850000002,
      "d": 91.88899999999558,
      "v": 30
    },
    {
      "midi": 77,
      "hit": false,
      "t": 70386.97400000019,
      "d": 91.88899999999558,
      "v": 35
    },
    {
      "midi": 60,
      "hit": false,
      "t": 70386.97400000037,
      "d": 183.7780000000057,
      "v": 37
    },
    {
      "midi": 79,
      "hit": false,
      "t": 70478.86300000019,
      "d": 91.88899999999558,
      "v": 30
    },
    {
      "midi": 62,
      "hit": false,
      "t": 70570.75200000037,
      "d": 91.88899999999558,
      "v": 51
    },
    {
      "midi": 65,
      "hit": false,
      "t": 70570.75200000037,
      "d": 91.88899999999558,
      "v": 51
    },
    {
      "midi": 67,
      "hit": false,
      "t": 70662.64100000037,
      "d": 91.88899999999558,
      "v": 45
    },
    {
      "midi": 82,
      "hit": false,
      "t": 70754.53000000019,
      "d": 91.88899999999558,
      "v": 45
    },
    {
      "midi": 86,
      "hit": false,
      "t": 70754.53000000019,
      "d": 91.88899999999558,
      "v": 45
    },
    {
      "midi": 69,
      "hit": false,
      "t": 70754.53000000036,
      "d": 91.88899999999558,
      "v": 50
    },
    {
      "midi": 70,
      "hit": false,
      "t": 70846.41900000036,
      "d": 91.88899999999558,
      "v": 52
    },
    {
      "midi": 82,
      "hit": false,
      "t": 70938.30800000018,
      "d": 91.88899999999558,
      "v": 45
    },
    {
      "midi": 86,
      "hit": false,
      "t": 70938.30800000018,
      "d": 91.88899999999558,
      "v": 45
    },
    {
      "midi": 72,
      "hit": false,
      "t": 70938.30800000035,
      "d": 61.259333333335235,
      "v": 54
    },
    {
      "midi": 74,
      "hit": false,
      "t": 70999.56733333369,
      "d": 61.259333333335235,
      "v": 56
    },
    {
      "midi": 75,
      "hit": false,
      "t": 71060.82666666702,
      "d": 61.259333333335235,
      "v": 59
    },
    {
      "midi": 82,
      "hit": false,
      "t": 71122.08600000017,
      "d": 91.88899999999558,
      "v": 48
    },
    {
      "midi": 86,
      "hit": false,
      "t": 71122.08600000017,
      "d": 91.88899999999558,
      "v": 48
    },
    {
      "midi": 77,
      "hit": false,
      "t": 71122.08600000036,
      "d": 91.88899999999558,
      "v": 61
    },
    {
      "midi": 75,
      "hit": false,
      "t": 71213.97500000036,
      "d": 91.88899999999558,
      "v": 60
    },
    {
      "midi": 82,
      "hit": false,
      "t": 71305.86400000016,
      "d": 91.88899999999558,
      "v": 42
    },
    {
      "midi": 86,
      "hit": false,
      "t": 71305.86400000016,
      "d": 91.88899999999558,
      "v": 42
    },
    {
      "midi": 74,
      "hit": false,
      "t": 71305.86400000035,
      "d": 91.88899999999558,
      "v": 58
    },
    {
      "midi": 72,
      "hit": false,
      "t": 71397.75300000035,
      "d": 91.88899999999558,
      "v": 57
    },
    {
      "midi": 82,
      "hit": false,
      "t": 71489.64200000015,
      "d": 91.88899999999558,
      "v": 42
    },
    {
      "midi": 86,
      "hit": false,
      "t": 71489.64200000015,
      "d": 91.88899999999558,
      "v": 42
    },
    {
      "midi": 70,
      "hit": false,
      "t": 71489.64200000034,
      "d": 91.88899999999558,
      "v": 55
    },
    {
      "midi": 69,
      "hit": false,
      "t": 71581.53100000034,
      "d": 91.88899999999558,
      "v": 54
    },
    {
      "midi": 63,
      "hit": false,
      "t": 71673.42000000033,
      "d": 91.88899999999558,
      "v": 51
    },
    {
      "midi": 67,
      "hit": false,
      "t": 71673.42000000033,
      "d": 91.88899999999558,
      "v": 51
    },
    {
      "midi": 69,
      "hit": false,
      "t": 71765.30900000033,
      "d": 91.88899999999558,
      "v": 45
    },
    {
      "midi": 82,
      "hit": false,
      "t": 71857.19800000015,
      "d": 91.88899999999558,
      "v": 45
    },
    {
      "midi": 84,
      "hit": false,
      "t": 71857.19800000015,
      "d": 91.88899999999558,
      "v": 45
    },
    {
      "midi": 70,
      "hit": false,
      "t": 71857.19800000032,
      "d": 91.88899999999558,
      "v": 48
    },
    {
      "midi": 72,
      "hit": false,
      "t": 71949.08700000032,
      "d": 91.88899999999558,
      "v": 50
    },
    {
      "midi": 82,
      "hit": false,
      "t": 72040.97600000014,
      "d": 91.88899999999558,
      "v": 45
    },
    {
      "midi": 84,
      "hit": false,
      "t": 72040.97600000014,
      "d": 91.88899999999558,
      "v": 45
    },
    {
      "midi": 74,
      "hit": false,
      "t": 72040.97600000032,
      "d": 61.259333333335235,
      "v": 55
    },
    {
      "midi": 75,
      "hit": false,
      "t": 72102.23533333365,
      "d": 61.259333333335235,
      "v": 57
    },
    {
      "midi": 77,
      "hit": false,
      "t": 72163.49466666699,
      "d": 61.259333333335235,
      "v": 60
    },
    {
      "midi": 82,
      "hit": false,
      "t": 72224.75400000013,
      "d": 91.88899999999558,
      "v": 49
    },
    {
      "midi": 84,
      "hit": false,
      "t": 72224.75400000013,
      "d": 91.88899999999558,
      "v": 49
    },
    {
      "midi": 79,
      "hit": false,
      "t": 72224.75400000032,
      "d": 91.88899999999558,
      "v": 62
    },
    {
      "midi": 77,
      "hit": false,
      "t": 72316.64300000032,
      "d": 91.88899999999558,
      "v": 62
    },
    {
      "midi": 82,
      "hit": false,
      "t": 72408.53200000012,
      "d": 91.88899999999558,
      "v": 44
    },
    {
      "midi": 84,
      "hit": false,
      "t": 72408.53200000012,
      "d": 91.88899999999558,
      "v": 44
    },
    {
      "midi": 75,
      "hit": false,
      "t": 72408.53200000031,
      "d": 61.259333333335235,
      "v": 60
    },
    {
      "midi": 74,
      "hit": false,
      "t": 72469.79133333365,
      "d": 61.259333333335235,
      "v": 59
    },
    {
      "midi": 72,
      "hit": false,
      "t": 72531.05066666698,
      "d": 61.259333333335235,
      "v": 58
    },
    {
      "midi": 82,
      "hit": false,
      "t": 72592.31000000011,
      "d": 91.88899999999558,
      "v": 46
    },
    {
      "midi": 84,
      "hit": false,
      "t": 72592.31000000011,
      "d": 91.88899999999558,
      "v": 46
    },
    {
      "midi": 70,
      "hit": false,
      "t": 72592.31000000032,
      "d": 61.259333333335235,
      "v": 58
    },
    {
      "midi": 69,
      "hit": false,
      "t": 72653.56933333365,
      "d": 61.259333333335235,
      "v": 57
    },
    {
      "midi": 67,
      "hit": false,
      "t": 72714.82866666699,
      "d": 61.259333333335235,
      "v": 56
    },
    {
      "midi": 65,
      "hit": false,
      "t": 72776.08800000032,
      "d": 91.88899999999558,
      "v": 60
    },
    {
      "midi": 53,
      "hit": false,
      "t": 72867.97700000032,
      "d": 91.88899999999558,
      "v": 52
    },
    {
      "midi": 82,
      "hit": false,
      "t": 72959.86600000011,
      "d": 91.88899999999558,
      "v": 48
    },
    {
      "midi": 86,
      "hit": false,
      "t": 72959.86600000011,
      "d": 91.88899999999558,
      "v": 48
    },
    {
      "midi": 58,
      "hit": false,
      "t": 72959.86600000031,
      "d": 91.88899999999558,
      "v": 63
    },
    {
      "midi": 62,
      "hit": false,
      "t": 73051.75500000031,
      "d": 91.88899999999558,
      "v": 59
    },
    {
      "midi": 82,
      "hit": false,
      "t": 73143.6440000001,
      "d": 91.88899999999558,
      "v": 49
    },
    {
      "midi": 86,
      "hit": false,
      "t": 73143.6440000001,
      "d": 91.88899999999558,
      "v": 49
    },
    {
      "midi": 65,
      "hit": false,
      "t": 73143.6440000003,
      "d": 91.88899999999558,
      "v": 68
    },
    {
      "midi": 70,
      "hit": false,
      "t": 73235.5330000003,
      "d": 91.88899999999558,
      "v": 62
    },
    {
      "midi": 82,
      "hit": false,
      "t": 73327.4220000001,
      "d": 91.88899999999558,
      "v": 52
    },
    {
      "midi": 86,
      "hit": false,
      "t": 73327.4220000001,
      "d": 91.88899999999558,
      "v": 52
    },
    {
      "midi": 74,
      "hit": false,
      "t": 73327.4220000003,
      "d": 91.88899999999558,
      "v": 63
    },
    {
      "midi": 70,
      "hit": false,
      "t": 73419.31100000029,
      "d": 91.88899999999558,
      "v": 54
    },
    {
      "midi": 82,
      "hit": false,
      "t": 73511.20000000008,
      "d": 91.88899999999558,
      "v": 47
    },
    {
      "midi": 86,
      "hit": false,
      "t": 73511.20000000008,
      "d": 91.88899999999558,
      "v": 47
    },
    {
      "midi": 77,
      "hit": false,
      "t": 73511.20000000029,
      "d": 91.88899999999558,
      "v": 66
    },
    {
      "midi": 74,
      "hit": false,
      "t": 73603.08900000028,
      "d": 91.88899999999558,
      "v": 62
    },
    {
      "midi": 82,
      "hit": false,
      "t": 73694.97800000008,
      "d": 91.88899999999558,
      "v": 48
    },
    {
      "midi": 86,
      "hit": false,
      "t": 73694.97800000008,
      "d": 91.88899999999558,
      "v": 48
    },
    {
      "midi": 89,
      "hit": false,
      "t": 73694.97800000008,
      "d": 91.88899999999558,
      "v": 48
    },
    {
      "midi": 70,
      "hit": false,
      "t": 73694.97800000028,
      "d": 91.88899999999558,
      "v": 70
    },
    {
      "midi": 74,
      "hit": false,
      "t": 73786.86700000027,
      "d": 91.88899999999558,
      "v": 64
    },
    {
      "midi": 81,
      "hit": false,
      "t": 73878.75600000007,
      "d": 91.88899999999558,
      "v": 59
    },
    {
      "midi": 87,
      "hit": false,
      "t": 73878.75600000007,
      "d": 91.88899999999558,
      "v": 59
    },
    {
      "midi": 89,
      "hit": false,
      "t": 73878.75600000007,
      "d": 91.88899999999558,
      "v": 59
    },
    {
      "midi": 72,
      "hit": false,
      "t": 73878.75600000027,
      "d": 61.259333333335235,
      "v": 67
    },
    {
      "midi": 65,
      "hit": false,
      "t": 73878.75600000027,
      "d": 183.7780000000057,
      "v": 60
    },
    {
      "midi": 74,
      "hit": false,
      "t": 73940.0153333336,
      "d": 61.259333333335235,
      "v": 59
    },
    {
      "midi": 72,
      "hit": false,
      "t": 74001.27466666694,
      "d": 61.259333333335235,
      "v": 67
    },
    {
      "midi": 81,
      "hit": false,
      "t": 74062.53400000006,
      "d": 91.88899999999558,
      "v": 46
    },
    {
      "midi": 87,
      "hit": false,
      "t": 74062.53400000006,
      "d": 91.88899999999558,
      "v": 46
    },
    {
      "midi": 89,
      "hit": false,
      "t": 74062.53400000006,
      "d": 91.88899999999558,
      "v": 46
    },
    {
      "midi": 74,
      "hit": false,
      "t": 74062.53400000028,
      "d": 61.259333333335235,
      "v": 61
    },
    {
      "midi": 72,
      "hit": false,
      "t": 74123.79333333361,
      "d": 61.259333333335235,
      "v": 66
    },
    {
      "midi": 74,
      "hit": false,
      "t": 74185.05266666695,
      "d": 61.259333333335235,
      "v": 59
    },
    {
      "midi": 81,
      "hit": false,
      "t": 74246.31200000005,
      "d": 91.88899999999558,
      "v": 45
    },
    {
      "midi": 87,
      "hit": false,
      "t": 74246.31200000005,
      "d": 91.88899999999558,
      "v": 45
    },
    {
      "midi": 89,
      "hit": false,
      "t": 74246.31200000005,
      "d": 91.88899999999558,
      "v": 45
    },
    {
      "midi": 72,
      "hit": false,
      "t": 74246.31200000028,
      "d": 61.259333333335235,
      "v": 66
    },
    {
      "midi": 74,
      "hit": false,
      "t": 74307.57133333362,
      "d": 61.259333333335235,
      "v": 59
    },
    {
      "midi": 72,
      "hit": false,
      "t": 74368.83066666695,
      "d": 61.259333333335235,
      "v": 62
    },
    {
      "midi": 81,
      "hit": false,
      "t": 74430.09000000004,
      "d": 91.88899999999558,
      "v": 53
    },
    {
      "midi": 87,
      "hit": false,
      "t": 74430.09000000004,
      "d": 91.88899999999558,
      "v": 53
    },
    {
      "midi": 89,
      "hit": false,
      "t": 74430.09000000004,
      "d": 91.88899999999558,
      "v": 53
    },
    {
      "midi": 74,
      "hit": false,
      "t": 74430.09000000029,
      "d": 61.259333333335235,
      "v": 56
    },
    {
      "midi": 72,
      "hit": false,
      "t": 74491.34933333362,
      "d": 61.259333333335235,
      "v": 63
    },
    {
      "midi": 74,
      "hit": false,
      "t": 74552.60866666696,
      "d": 61.259333333335235,
      "v": 55
    },
    {
      "midi": 81,
      "hit": false,
      "t": 74613.86800000003,
      "d": 91.88899999999558,
      "v": 45
    },
    {
      "midi": 87,
      "hit": false,
      "t": 74613.86800000003,
      "d": 91.88899999999558,
      "v": 45
    },
    {
      "midi": 89,
      "hit": false,
      "t": 74613.86800000003,
      "d": 91.88899999999558,
      "v": 45
    },
    {
      "midi": 72,
      "hit": false,
      "t": 74613.8680000003,
      "d": 61.259333333335235,
      "v": 63
    },
    {
      "midi": 74,
      "hit": false,
      "t": 74675.12733333363,
      "d": 61.259333333335235,
      "v": 55
    },
    {
      "midi": 72,
      "hit": false,
      "t": 74736.38666666696,
      "d": 61.259333333335235,
      "v": 63
    },
    {
      "midi": 81,
      "hit": false,
      "t": 74797.64600000002,
      "d": 91.88899999999558,
      "v": 44
    },
    {
      "midi": 87,
      "hit": false,
      "t": 74797.64600000002,
      "d": 91.88899999999558,
      "v": 44
    },
    {
      "midi": 89,
      "hit": false,
      "t": 74797.64600000002,
      "d": 91.88899999999558,
      "v": 44
    },
    {
      "midi": 74,
      "hit": false,
      "t": 74797.6460000003,
      "d": 61.259333333335235,
      "v": 55
    },
    {
      "midi": 72,
      "hit": false,
      "t": 74858.90533333363,
      "d": 61.259333333335235,
      "v": 63
    },
    {
      "midi": 74,
      "hit": false,
      "t": 74920.16466666697,
      "d": 61.259333333335235,
      "v": 59
    },
    {
      "midi": 65,
      "hit": false,
      "t": 74981.4240000003,
      "d": 91.88899999999558,
      "v": 62
    },
    {
      "midi": 71,
      "hit": false,
      "t": 75073.3130000003,
      "d": 91.88899999999558,
      "v": 55
    },
    {
      "midi": 72,
      "hit": false,
      "t": 75165.2020000003,
      "d": 91.88899999999558,
      "v": 58
    },
    {
      "midi": 74,
      "hit": false,
      "t": 75257.09100000029,
      "d": 91.88899999999558,
      "v": 60
    },
    {
      "midi": 80,
      "hit": false,
      "t": 75348.98000000003,
      "d": 551.3340000000026,
      "v": 70
    },
    {
      "midi": 92,
      "hit": false,
      "t": 75348.98000000003,
      "d": 551.3340000000026,
      "v": 83
    },
    {
      "midi": 72,
      "hit": false,
      "t": 75348.98000000029,
      "d": 91.88899999999558,
      "v": 58
    },
    {
      "midi": 71,
      "hit": false,
      "t": 75440.86900000028,
      "d": 91.88899999999558,
      "v": 58
    },
    {
      "midi": 63,
      "hit": false,
      "t": 75532.75800000028,
      "d": 91.88899999999558,
      "v": 61
    },
    {
      "midi": 72,
      "hit": false,
      "t": 75624.64700000027,
      "d": 91.88899999999558,
      "v": 56
    },
    {
      "midi": 74,
      "hit": false,
      "t": 75716.53600000027,
      "d": 91.88899999999558,
      "v": 59
    },
    {
      "midi": 75,
      "hit": false,
      "t": 75808.42500000026,
      "d": 91.88899999999558,
      "v": 61
    },
    {
      "midi": 79,
      "hit": false,
      "t": 75900.31400000003,
      "d": 183.7780000000057,
      "v": 66
    },
    {
      "midi": 91,
      "hit": false,
      "t": 75900.31400000003,
      "d": 183.7780000000057,
      "v": 79
    },
    {
      "midi": 74,
      "hit": false,
      "t": 75900.31400000026,
      "d": 91.88899999999558,
      "v": 57
    },
    {
      "midi": 72,
      "hit": false,
      "t": 75992.20300000026,
      "d": 91.88899999999558,
      "v": 57
    },
    {
      "midi": 63,
      "hit": false,
      "t": 76088.68645000026,
      "d": 91.88900000001013,
      "v": 62
    },
    {
      "midi": 69,
      "hit": false,
      "t": 76175.98100000026,
      "d": 91.88900000001013,
      "v": 55
    },
    {
      "midi": 70,
      "hit": false,
      "t": 76267.87000000027,
      "d": 91.88899999999558,
      "v": 58
    },
    {
      "midi": 72,
      "hit": false,
      "t": 76355.93029166694,
      "d": 91.88899999999558,
      "v": 60
    },
    {
      "midi": 78,
      "hit": false,
      "t": 76451.64800000003,
      "d": 551.3340000000026,
      "v": 69
    },
    {
      "midi": 90,
      "hit": false,
      "t": 76451.64800000003,
      "d": 551.3340000000026,
      "v": 81
    },
    {
      "midi": 70,
      "hit": false,
      "t": 76451.64800000026,
      "d": 91.88899999999558,
      "v": 59
    },
    {
      "midi": 69,
      "hit": false,
      "t": 76543.53700000026,
      "d": 91.88899999999558,
      "v": 59
    },
    {
      "midi": 62,
      "hit": false,
      "t": 76635.42600000025,
      "d": 91.88899999999558,
      "v": 62
    },
    {
      "midi": 70,
      "hit": false,
      "t": 76727.31500000025,
      "d": 91.88899999999558,
      "v": 57
    },
    {
      "midi": 72,
      "hit": false,
      "t": 76819.20400000025,
      "d": 91.88899999999558,
      "v": 61
    },
    {
      "midi": 74,
      "hit": false,
      "t": 76911.09300000024,
      "d": 91.88899999999558,
      "v": 64
    },
    {
      "midi": 77,
      "hit": false,
      "t": 77002.98200000003,
      "d": 183.7780000000057,
      "v": 67
    },
    {
      "midi": 89,
      "hit": false,
      "t": 77002.98200000003,
      "d": 183.7780000000057,
      "v": 80
    },
    {
      "midi": 72,
      "hit": false,
      "t": 77002.98200000024,
      "d": 91.88899999999558,
      "v": 59
    },
    {
      "midi": 70,
      "hit": false,
      "t": 77094.87100000023,
      "d": 91.88899999999558,
      "v": 60
    },
    {
      "midi": 53,
      "hit": false,
      "t": 77191.35445000023,
      "d": 91.88900000001013,
      "v": 65
    },
    {
      "midi": 59,
      "hit": false,
      "t": 77278.64900000024,
      "d": 91.88900000001013,
      "v": 58
    },
    {
      "midi": 60,
      "hit": false,
      "t": 77370.53800000025,
      "d": 91.88899999999558,
      "v": 62
    },
    {
      "midi": 62,
      "hit": false,
      "t": 77458.59829166692,
      "d": 91.88899999999558,
      "v": 64
    },
    {
      "midi": 68,
      "hit": false,
      "t": 77554.31600000004,
      "d": 551.3340000000026,
      "v": 73
    },
    {
      "midi": 80,
      "hit": false,
      "t": 77554.31600000004,
      "d": 551.3340000000026,
      "v": 86
    },
    {
      "midi": 60,
      "hit": false,
      "t": 77554.31600000024,
      "d": 91.88899999999558,
      "v": 62
    },
    {
      "midi": 59,
      "hit": false,
      "t": 77646.20500000023,
      "d": 91.88899999999558,
      "v": 63
    },
    {
      "midi": 51,
      "hit": false,
      "t": 77738.09400000023,
      "d": 91.88899999999558,
      "v": 67
    },
    {
      "midi": 60,
      "hit": false,
      "t": 77829.98300000023,
      "d": 91.88899999999558,
      "v": 61
    },
    {
      "midi": 62,
      "hit": false,
      "t": 77921.87200000022,
      "d": 91.88899999999558,
      "v": 65
    },
    {
      "midi": 63,
      "hit": false,
      "t": 78013.76100000022,
      "d": 91.88899999999558,
      "v": 67
    },
    {
      "midi": 67,
      "hit": false,
      "t": 78105.65000000004,
      "d": 183.7780000000057,
      "v": 71
    },
    {
      "midi": 79,
      "hit": false,
      "t": 78105.65000000004,
      "d": 183.7780000000057,
      "v": 86
    },
    {
      "midi": 62,
      "hit": false,
      "t": 78105.65000000021,
      "d": 91.88899999999558,
      "v": 63
    },
    {
      "midi": 60,
      "hit": false,
      "t": 78197.53900000021,
      "d": 91.88899999999558,
      "v": 63
    },
    {
      "midi": 51,
      "hit": false,
      "t": 78294.02245000021,
      "d": 91.88900000001013,
      "v": 70
    },
    {
      "midi": 57,
      "hit": false,
      "t": 78381.31700000021,
      "d": 91.88900000001013,
      "v": 62
    },
    {
      "midi": 58,
      "hit": false,
      "t": 78473.20600000022,
      "d": 91.88899999999558,
      "v": 66
    },
    {
      "midi": 60,
      "hit": false,
      "t": 78561.26629166689,
      "d": 91.88899999999558,
      "v": 68
    },
    {
      "midi": 66,
      "hit": false,
      "t": 78656.98400000004,
      "d": 551.3340000000026,
      "v": 78
    },
    {
      "midi": 78,
      "hit": false,
      "t": 78656.98400000004,
      "d": 551.3340000000026,
      "v": 92
    },
    {
      "midi": 58,
      "hit": false,
      "t": 78656.98400000022,
      "d": 91.88899999999558,
      "v": 66
    },
    {
      "midi": 57,
      "hit": false,
      "t": 78748.87300000021,
      "d": 91.88899999999558,
      "v": 67
    },
    {
      "midi": 50,
      "hit": false,
      "t": 78840.7620000002,
      "d": 91.88899999999558,
      "v": 70
    },
    {
      "midi": 58,
      "hit": false,
      "t": 78932.6510000002,
      "d": 91.88899999999558,
      "v": 65
    },
    {
      "midi": 60,
      "hit": false,
      "t": 79024.5400000002,
      "d": 91.88899999999558,
      "v": 69
    },
    {
      "midi": 62,
      "hit": false,
      "t": 79116.4290000002,
      "d": 91.88899999999558,
      "v": 71
    },
    {
      "midi": 65,
      "hit": false,
      "t": 79208.31800000004,
      "d": 183.7780000000057,
      "v": 75
    },
    {
      "midi": 77,
      "hit": false,
      "t": 79208.31800000004,
      "d": 183.7780000000057,
      "v": 90
    },
    {
      "midi": 60,
      "hit": false,
      "t": 79208.31800000019,
      "d": 91.88899999999558,
      "v": 67
    },
    {
      "midi": 58,
      "hit": false,
      "t": 79300.20700000018,
      "d": 91.88899999999558,
      "v": 67
    },
    {
      "midi": 50,
      "hit": false,
      "t": 79392.09600000018,
      "d": 91.88899999999558,
      "v": 70
    },
    {
      "midi": 53,
      "hit": false,
      "t": 79483.98500000018,
      "d": 91.88899999999558,
      "v": 62
    },
    {
      "midi": 65,
      "hit": false,
      "t": 79575.87400000005,
      "d": 91.88899999999558,
      "v": 60
    },
    {
      "midi": 70,
      "hit": false,
      "t": 79575.87400000005,
      "d": 91.88899999999558,
      "v": 60
    },
    {
      "midi": 77,
      "hit": false,
      "t": 79575.87400000005,
      "d": 91.88899999999558,
      "v": 71
    },
    {
      "midi": 58,
      "hit": false,
      "t": 79575.87400000017,
      "d": 91.88899999999558,
      "v": 66
    },
    {
      "midi": 62,
      "hit": false,
      "t": 79667.76300000017,
      "d": 91.88899999999558,
      "v": 68
    },
    {
      "midi": 65,
      "hit": false,
      "t": 79759.65200000005,
      "d": 91.88899999999558,
      "v": 57
    },
    {
      "midi": 70,
      "hit": false,
      "t": 79759.65200000005,
      "d": 91.88899999999558,
      "v": 57
    },
    {
      "midi": 77,
      "hit": false,
      "t": 79759.65200000005,
      "d": 91.88899999999558,
      "v": 68
    },
    {
      "midi": 58,
      "hit": false,
      "t": 79759.65200000016,
      "d": 91.88899999999558,
      "v": 66
    },
    {
      "midi": 53,
      "hit": false,
      "t": 79851.54100000016,
      "d": 91.88899999999558,
      "v": 63
    },
    {
      "midi": 43,
      "hit": false,
      "t": 79943.43000000015,
      "d": 91.88899999999558,
      "v": 70
    },
    {
      "midi": 46,
      "hit": false,
      "t": 80035.31900000015,
      "d": 91.88899999999558,
      "v": 65
    },
    {
      "midi": 67,
      "hit": false,
      "t": 80127.20800000004,
      "d": 91.88899999999558,
      "v": 58
    },
    {
      "midi": 70,
      "hit": false,
      "t": 80127.20800000004,
      "d": 91.88899999999558,
      "v": 58
    },
    {
      "midi": 75,
      "hit": false,
      "t": 80127.20800000004,
      "d": 91.88899999999558,
      "v": 69
    },
    {
      "midi": 50,
      "hit": false,
      "t": 80127.20800000014,
      "d": 91.88899999999558,
      "v": 69
    },
    {
      "midi": 55,
      "hit": false,
      "t": 80219.09700000014,
      "d": 91.88899999999558,
      "v": 71
    },
    {
      "midi": 67,
      "hit": false,
      "t": 80310.98600000003,
      "d": 91.88899999999558,
      "v": 55
    },
    {
      "midi": 70,
      "hit": false,
      "t": 80310.98600000003,
      "d": 91.88899999999558,
      "v": 55
    },
    {
      "midi": 74,
      "hit": false,
      "t": 80310.98600000003,
      "d": 91.88899999999558,
      "v": 65
    },
    {
      "midi": 50,
      "hit": false,
      "t": 80310.98600000014,
      "d": 91.88899999999558,
      "v": 67
    },
    {
      "midi": 46,
      "hit": false,
      "t": 80402.87500000013,
      "d": 91.88899999999558,
      "v": 64
    },
    {
      "midi": 39,
      "hit": false,
      "t": 80494.76400000013,
      "d": 91.88899999999558,
      "v": 70
    },
    {
      "midi": 43,
      "hit": false,
      "t": 80586.65300000012,
      "d": 91.88899999999558,
      "v": 62
    },
    {
      "midi": 63,
      "hit": false,
      "t": 80678.54200000003,
      "d": 91.88899999999558,
      "v": 60
    },
    {
      "midi": 67,
      "hit": false,
      "t": 80678.54200000003,
      "d": 91.88899999999558,
      "v": 60
    },
    {
      "midi": 74,
      "hit": false,
      "t": 80678.54200000003,
      "d": 91.88899999999558,
      "v": 71
    },
    {
      "midi": 48,
      "hit": false,
      "t": 80678.54200000012,
      "d": 91.88899999999558,
      "v": 66
    },
    {
      "midi": 51,
      "hit": false,
      "t": 80770.43100000011,
      "d": 91.88899999999558,
      "v": 68
    },
    {
      "midi": 63,
      "hit": false,
      "t": 80862.32000000002,
      "d": 91.88899999999558,
      "v": 57
    },
    {
      "midi": 67,
      "hit": false,
      "t": 80862.32000000002,
      "d": 91.88899999999558,
      "v": 57
    },
    {
      "midi": 72,
      "hit": false,
      "t": 80862.32000000002,
      "d": 91.88899999999558,
      "v": 68
    },
    {
      "midi": 48,
      "hit": false,
      "t": 80862.32000000011,
      "d": 91.88899999999558,
      "v": 66
    },
    {
      "midi": 43,
      "hit": false,
      "t": 80954.2090000001,
      "d": 91.88899999999558,
      "v": 63
    },
    {
      "midi": 41,
      "hit": false,
      "t": 81046.0980000001,
      "d": 91.88899999999558,
      "v": 70
    },
    {
      "midi": 48,
      "hit": false,
      "t": 81137.9870000001,
      "d": 91.88899999999558,
      "v": 65
    },
    {
      "midi": 60,
      "hit": false,
      "t": 81229.87600000002,
      "d": 91.88899999999558,
      "v": 58
    },
    {
      "midi": 63,
      "hit": false,
      "t": 81229.87600000002,
      "d": 91.88899999999558,
      "v": 58
    },
    {
      "midi": 70,
      "hit": false,
      "t": 81229.87600000002,
      "d": 91.88899999999558,
      "v": 69
    },
    {
      "midi": 51,
      "hit": false,
      "t": 81229.87600000009,
      "d": 91.88899999999558,
      "v": 69
    },
    {
      "midi": 53,
      "hit": false,
      "t": 81321.76500000009,
      "d": 91.88899999999558,
      "v": 71
    },
    {
      "midi": 60,
      "hit": false,
      "t": 81413.65400000001,
      "d": 91.88899999999558,
      "v": 55
    },
    {
      "midi": 63,
      "hit": false,
      "t": 81413.65400000001,
      "d": 91.88899999999558,
      "v": 55
    },
    {
      "midi": 69,
      "hit": false,
      "t": 81413.65400000001,
      "d": 91.88899999999558,
      "v": 65
    },
    {
      "midi": 51,
      "hit": false,
      "t": 81413.65400000008,
      "d": 91.88899999999558,
      "v": 67
    },
    {
      "midi": 48,
      "hit": false,
      "t": 81505.54300000008,
      "d": 91.88899999999558,
      "v": 64
    },
    {
      "midi": 38,
      "hit": false,
      "t": 81597.43200000007,
      "d": 91.88899999999558,
      "v": 70
    },
    {
      "midi": 41,
      "hit": false,
      "t": 81689.32100000007,
      "d": 91.88899999999558,
      "v": 62
    },
    {
      "midi": 58,
      "hit": false,
      "t": 81781.21,
      "d": 91.88899999999558,
      "v": 60
    },
    {
      "midi": 65,
      "hit": false,
      "t": 81781.21,
      "d": 91.88899999999558,
      "v": 60
    },
    {
      "midi": 70,
      "hit": false,
      "t": 81781.21,
      "d": 91.88899999999558,
      "v": 71
    },
    {
      "midi": 46,
      "hit": false,
      "t": 81781.21000000006,
      "d": 91.88899999999558,
      "v": 66
    },
    {
      "midi": 50,
      "hit": false,
      "t": 81873.09900000006,
      "d": 91.88899999999558,
      "v": 68
    },
    {
      "midi": 58,
      "hit": false,
      "t": 81964.988,
      "d": 91.88899999999558,
      "v": 58
    },
    {
      "midi": 62,
      "hit": false,
      "t": 81964.988,
      "d": 91.88899999999558,
      "v": 58
    },
    {
      "midi": 65,
      "hit": false,
      "t": 81964.988,
      "d": 91.88899999999558,
      "v": 69
    },
    {
      "midi": 46,
      "hit": false,
      "t": 81964.98800000006,
      "d": 91.88899999999558,
      "v": 67
    },
    {
      "midi": 41,
      "hit": false,
      "t": 82056.87700000005,
      "d": 91.88899999999558,
      "v": 64
    },
    {
      "midi": 31,
      "hit": false,
      "t": 82148.76600000005,
      "d": 91.88899999999558,
      "v": 72
    },
    {
      "midi": 34,
      "hit": false,
      "t": 82240.65500000004,
      "d": 91.88899999999558,
      "v": 67
    },
    {
      "midi": 55,
      "hit": false,
      "t": 82332.544,
      "d": 91.88899999999558,
      "v": 74
    },
    {
      "midi": 58,
      "hit": false,
      "t": 82332.544,
      "d": 91.88899999999558,
      "v": 60
    },
    {
      "midi": 63,
      "hit": false,
      "t": 82332.544,
      "d": 91.88899999999558,
      "v": 72
    },
    {
      "midi": 38,
      "hit": false,
      "t": 82332.54400000004,
      "d": 91.88899999999558,
      "v": 72
    },
    {
      "midi": 43,
      "hit": false,
      "t": 82424.43300000003,
      "d": 91.88899999999558,
      "v": 74
    },
    {
      "midi": 55,
      "hit": false,
      "t": 82516.32199999999,
      "d": 91.88899999999558,
      "v": 58
    },
    {
      "midi": 58,
      "hit": false,
      "t": 82516.32199999999,
      "d": 91.88899999999558,
      "v": 58
    },
    {
      "midi": 62,
      "hit": false,
      "t": 82516.32199999999,
      "d": 91.88899999999558,
      "v": 68
    },
    {
      "midi": 38,
      "hit": false,
      "t": 82516.32200000003,
      "d": 91.88899999999558,
      "v": 71
    },
    {
      "midi": 34,
      "hit": false,
      "t": 82608.21100000002,
      "d": 91.88899999999558,
      "v": 67
    },
    {
      "midi": 39,
      "hit": false,
      "t": 82700.10000000002,
      "d": 91.88899999999558,
      "v": 74
    },
    {
      "midi": 43,
      "hit": false,
      "t": 82791.98900000002,
      "d": 91.88899999999558,
      "v": 66
    },
    {
      "midi": 51,
      "hit": false,
      "t": 82883.87799999998,
      "d": 91.88899999999558,
      "v": 64
    },
    {
      "midi": 55,
      "hit": false,
      "t": 82883.87799999998,
      "d": 91.88899999999558,
      "v": 64
    },
    {
      "midi": 62,
      "hit": false,
      "t": 82883.87799999998,
      "d": 91.88899999999558,
      "v": 76
    },
    {
      "midi": 48,
      "hit": false,
      "t": 82883.87800000001,
      "d": 91.88899999999558,
      "v": 71
    },
    {
      "midi": 43,
      "hit": false,
      "t": 82975.767,
      "d": 91.88899999999558,
      "v": 74
    },
    {
      "midi": 51,
      "hit": false,
      "t": 83067.65599999997,
      "d": 91.88899999999558,
      "v": 62
    },
    {
      "midi": 55,
      "hit": false,
      "t": 83067.65599999997,
      "d": 91.88899999999558,
      "v": 62
    },
    {
      "midi": 60,
      "hit": false,
      "t": 83067.65599999997,
      "d": 91.88899999999558,
      "v": 74
    },
    {
      "midi": 39,
      "hit": false,
      "t": 83067.656,
      "d": 183.7780000000057,
      "v": 72
    },
    {
      "midi": 29,
      "hit": false,
      "t": 83251.43400000001,
      "d": 91.88899999999558,
      "v": 77
    },
    {
      "midi": 36,
      "hit": false,
      "t": 83343.323,
      "d": 91.88899999999558,
      "v": 72
    },
    {
      "midi": 48,
      "hit": false,
      "t": 83435.21199999997,
      "d": 91.88899999999558,
      "v": 79
    },
    {
      "midi": 51,
      "hit": false,
      "t": 83435.21199999997,
      "d": 91.88899999999558,
      "v": 64
    },
    {
      "midi": 58,
      "hit": false,
      "t": 83435.21199999997,
      "d": 91.88899999999558,
      "v": 77
    },
    {
      "midi": 39,
      "hit": false,
      "t": 83435.212,
      "d": 91.88899999999558,
      "v": 77
    },
    {
      "midi": 41,
      "hit": false,
      "t": 83527.101,
      "d": 91.88899999999558,
      "v": 80
    },
    {
      "midi": 48,
      "hit": false,
      "t": 83618.98999999996,
      "d": 91.88899999999558,
      "v": 62
    },
    {
      "midi": 51,
      "hit": false,
      "t": 83618.98999999996,
      "d": 91.88899999999558,
      "v": 62
    },
    {
      "midi": 57,
      "hit": false,
      "t": 83618.98999999996,
      "d": 91.88899999999558,
      "v": 73
    },
    {
      "midi": 29,
      "hit": false,
      "t": 83618.98999999999,
      "d": 91.88899999999558,
      "v": 75
    },
    {
      "midi": 41,
      "hit": false,
      "t": 83710.87899999999,
      "d": 91.88899999999558,
      "v": 72
    },
    {
      "midi": 46,
      "hit": false,
      "t": 83802.76799999995,
      "d": 91.88899999999558,
      "v": 62
    },
    {
      "midi": 34,
      "hit": false,
      "t": 83802.76799999998,
      "d": 91.88899999999558,
      "v": 75
    },
    {
      "midi": 48,
      "hit": false,
      "t": 83894.65699999995,
      "d": 91.88899999999558,
      "v": 63
    },
    {
      "midi": 50,
      "hit": false,
      "t": 83986.54599999994,
      "d": 91.88899999999558,
      "v": 65
    },
    {
      "midi": 46,
      "hit": false,
      "t": 83986.54599999997,
      "d": 91.88899999999558,
      "v": 75
    },
    {
      "midi": 51,
      "hit": false,
      "t": 84078.43499999994,
      "d": 91.88899999999558,
      "v": 66
    },
    {
      "midi": 53,
      "hit": false,
      "t": 84170.32399999994,
      "d": 61.259333333335235,
      "v": 67
    },
    {
      "midi": 46,
      "hit": false,
      "t": 84170.32399999996,
      "d": 91.88899999999558,
      "v": 64
    },
    {
      "midi": 50,
      "hit": false,
      "t": 84170.32399999996,
      "d": 91.88899999999558,
      "v": 77
    },
    {
      "midi": 55,
      "hit": false,
      "t": 84231.58333333327,
      "d": 61.259333333335235,
      "v": 68
    },
    {
      "midi": 57,
      "hit": false,
      "t": 84292.8426666666,
      "d": 61.259333333335235,
      "v": 68
    },
    {
      "midi": 58,
      "hit": false,
      "t": 84354.10199999994,
      "d": 61.259333333335235,
      "v": 69
    },
    {
      "midi": 46,
      "hit": false,
      "t": 84354.10199999996,
      "d": 367.55599999999686,
      "v": 70
    },
    {
      "midi": 50,
      "hit": false,
      "t": 84354.10199999996,
      "d": 367.55599999999686,
      "v": 70
    },
    {
      "midi": 53,
      "hit": false,
      "t": 84354.10199999996,
      "d": 367.55599999999686,
      "v": 83
    },
    {
      "midi": 60,
      "hit": false,
      "t": 84415.36133333328,
      "d": 61.259333333335235,
      "v": 70
    },
    {
      "midi": 62,
      "hit": false,
      "t": 84476.62066666661,
      "d": 61.259333333335235,
      "v": 71
    },
    {
      "midi": 63,
      "hit": false,
      "t": 84537.87999999995,
      "d": 61.259333333335235,
      "v": 72
    },
    {
      "midi": 65,
      "hit": false,
      "t": 84599.13933333328,
      "d": 61.259333333335235,
      "v": 72
    },
    {
      "midi": 67,
      "hit": false,
      "t": 84660.39866666662,
      "d": 61.259333333335235,
      "v": 73
    },
    {
      "midi": 69,
      "hit": false,
      "t": 84721.65799999995,
      "d": 91.88899999999558,
      "v": 85
    },
    {
      "midi": 41,
      "hit": false,
      "t": 84721.65799999995,
      "d": 91.88899999999558,
      "v": 60
    },
    {
      "midi": 48,
      "hit": false,
      "t": 84721.65799999995,
      "d": 91.88899999999558,
      "v": 60
    },
    {
      "midi": 53,
      "hit": false,
      "t": 84721.65799999995,
      "d": 91.88899999999558,
      "v": 71
    },
    {
      "midi": 57,
      "hit": false,
      "t": 84813.54699999995,
      "d": 91.88899999999558,
      "v": 67
    },
    {
      "midi": 58,
      "hit": false,
      "t": 84905.43599999994,
      "d": 91.88899999999558,
      "v": 62
    },
    {
      "midi": 46,
      "hit": false,
      "t": 84905.43599999994,
      "d": 91.88899999999558,
      "v": 67
    },
    {
      "midi": 50,
      "hit": false,
      "t": 84905.43599999994,
      "d": 91.88899999999558,
      "v": 67
    },
    {
      "midi": 53,
      "hit": false,
      "t": 84905.43599999994,
      "d": 91.88899999999558,
      "v": 79
    },
    {
      "midi": 60,
      "hit": false,
      "t": 84997.32499999994,
      "d": 91.88899999999558,
      "v": 63
    },
    {
      "midi": 62,
      "hit": false,
      "t": 85089.21399999993,
      "d": 91.88899999999558,
      "v": 65
    },
    {
      "midi": 46,
      "hit": false,
      "t": 85089.21399999993,
      "d": 91.88899999999558,
      "v": 63
    },
    {
      "midi": 50,
      "hit": false,
      "t": 85089.21399999993,
      "d": 91.88899999999558,
      "v": 63
    },
    {
      "midi": 53,
      "hit": false,
      "t": 85089.21399999993,
      "d": 91.88899999999558,
      "v": 75
    },
    {
      "midi": 63,
      "hit": false,
      "t": 85181.10299999993,
      "d": 91.88899999999558,
      "v": 66
    },
    {
      "midi": 65,
      "hit": false,
      "t": 85272.99199999993,
      "d": 61.259333333335235,
      "v": 67
    },
    {
      "midi": 46,
      "hit": false,
      "t": 85272.99199999993,
      "d": 91.88899999999558,
      "v": 62
    },
    {
      "midi": 50,
      "hit": false,
      "t": 85272.99199999993,
      "d": 91.88899999999558,
      "v": 62
    },
    {
      "midi": 53,
      "hit": false,
      "t": 85272.99199999993,
      "d": 91.88899999999558,
      "v": 74
    },
    {
      "midi": 67,
      "hit": false,
      "t": 85334.25133333326,
      "d": 61.259333333335235,
      "v": 68
    },
    {
      "midi": 69,
      "hit": false,
      "t": 85395.5106666666,
      "d": 61.259333333335235,
      "v": 68
    },
    {
      "midi": 46,
      "hit": false,
      "t": 85456.76999999992,
      "d": 367.55599999999686,
      "v": 69
    },
    {
      "midi": 50,
      "hit": false,
      "t": 85456.76999999992,
      "d": 367.55599999999686,
      "v": 69
    },
    {
      "midi": 53,
      "hit": false,
      "t": 85456.76999999992,
      "d": 367.55599999999686,
      "v": 82
    },
    {
      "midi": 70,
      "hit": false,
      "t": 85456.76999999993,
      "d": 61.259333333335235,
      "v": 69
    },
    {
      "midi": 72,
      "hit": false,
      "t": 85518.02933333327,
      "d": 61.259333333335235,
      "v": 70
    },
    {
      "midi": 74,
      "hit": false,
      "t": 85579.2886666666,
      "d": 61.259333333335235,
      "v": 71
    },
    {
      "midi": 75,
      "hit": false,
      "t": 85640.54799999994,
      "d": 61.259333333335235,
      "v": 72
    },
    {
      "midi": 77,
      "hit": false,
      "t": 85701.80733333327,
      "d": 61.259333333335235,
      "v": 72
    },
    {
      "midi": 79,
      "hit": false,
      "t": 85763.06666666661,
      "d": 61.259333333335235,
      "v": 73
    },
    {
      "midi": 41,
      "hit": false,
      "t": 85824.32599999991,
      "d": 91.88899999999558,
      "v": 63
    },
    {
      "midi": 48,
      "hit": false,
      "t": 85824.32599999991,
      "d": 91.88899999999558,
      "v": 63
    },
    {
      "midi": 53,
      "hit": false,
      "t": 85824.32599999991,
      "d": 91.88899999999558,
      "v": 75
    },
    {
      "midi": 81,
      "hit": false,
      "t": 85824.32599999994,
      "d": 91.88899999999558,
      "v": 85
    },
    {
      "midi": 69,
      "hit": false,
      "t": 85916.21499999994,
      "d": 91.88899999999558,
      "v": 67
    },
    {
      "midi": 46,
      "hit": false,
      "t": 86008.1039999999,
      "d": 91.88899999999558,
      "v": 64
    },
    {
      "midi": 50,
      "hit": false,
      "t": 86008.1039999999,
      "d": 91.88899999999558,
      "v": 64
    },
    {
      "midi": 53,
      "hit": false,
      "t": 86008.1039999999,
      "d": 91.88899999999558,
      "v": 76
    },
    {
      "midi": 70,
      "hit": false,
      "t": 86008.10399999993,
      "d": 91.88899999999558,
      "v": 62
    },
    {
      "midi": 72,
      "hit": false,
      "t": 86099.99299999993,
      "d": 91.88899999999558,
      "v": 63
    },
    {
      "midi": 46,
      "hit": false,
      "t": 86191.8819999999,
      "d": 91.88899999999558,
      "v": 63
    },
    {
      "midi": 50,
      "hit": false,
      "t": 86191.8819999999,
      "d": 91.88899999999558,
      "v": 63
    },
    {
      "midi": 53,
      "hit": false,
      "t": 86191.8819999999,
      "d": 91.88899999999558,
      "v": 75
    },
    {
      "midi": 74,
      "hit": false,
      "t": 86191.88199999993,
      "d": 91.88899999999558,
      "v": 65
    },
    {
      "midi": 75,
      "hit": false,
      "t": 86283.77099999992,
      "d": 91.88899999999558,
      "v": 66
    },
    {
      "midi": 46,
      "hit": false,
      "t": 86375.65999999989,
      "d": 91.88899999999558,
      "v": 61
    },
    {
      "midi": 50,
      "hit": false,
      "t": 86375.65999999989,
      "d": 91.88899999999558,
      "v": 61
    },
    {
      "midi": 53,
      "hit": false,
      "t": 86375.65999999989,
      "d": 91.88899999999558,
      "v": 73
    },
    {
      "midi": 77,
      "hit": false,
      "t": 86375.65999999992,
      "d": 61.259333333335235,
      "v": 68
    },
    {
      "midi": 79,
      "hit": false,
      "t": 86436.91933333325,
      "d": 61.259333333335235,
      "v": 70
    },
    {
      "midi": 81,
      "hit": false,
      "t": 86498.17866666659,
      "d": 61.259333333335235,
      "v": 72
    },
    {
      "midi": 46,
      "hit": false,
      "t": 86559.43799999988,
      "d": 367.55599999999686,
      "v": 70
    },
    {
      "midi": 50,
      "hit": false,
      "t": 86559.43799999988,
      "d": 367.55599999999686,
      "v": 70
    },
    {
      "midi": 53,
      "hit": false,
      "t": 86559.43799999988,
      "d": 367.55599999999686,
      "v": 83
    },
    {
      "midi": 82,
      "hit": false,
      "t": 86559.43799999992,
      "d": 91.88899999999558,
      "v": 74
    },
    {
      "midi": 84,
      "hit": false,
      "t": 86651.32699999992,
      "d": 91.88899999999558,
      "v": 75
    },
    {
      "midi": 86,
      "hit": false,
      "t": 86743.21599999991,
      "d": 61.259333333335235,
      "v": 77
    },
    {
      "midi": 87,
      "hit": false,
      "t": 86804.47533333325,
      "d": 61.259333333335235,
      "v": 79
    },
    {
      "midi": 89,
      "hit": false,
      "t": 86865.73466666658,
      "d": 61.259333333335235,
      "v": 81
    },
    {
      "midi": 41,
      "hit": false,
      "t": 86926.99399999988,
      "d": 91.88899999999558,
      "v": 63
    },
    {
      "midi": 48,
      "hit": false,
      "t": 86926.99399999988,
      "d": 91.88899999999558,
      "v": 63
    },
    {
      "midi": 53,
      "hit": false,
      "t": 86926.99399999988,
      "d": 91.88899999999558,
      "v": 75
    },
    {
      "midi": 91,
      "hit": false,
      "t": 86926.99399999992,
      "d": 61.259333333335235,
      "v": 83
    },
    {
      "midi": 93,
      "hit": false,
      "t": 86988.25333333325,
      "d": 61.259333333335235,
      "v": 92
    },
    {
      "midi": 81,
      "hit": false,
      "t": 87049.51266666659,
      "d": 61.259333333335235,
      "v": 85
    },
    {
      "midi": 46,
      "hit": false,
      "t": 87110.77199999987,
      "d": 367.55599999999686,
      "v": 69
    },
    {
      "midi": 50,
      "hit": false,
      "t": 87110.77199999987,
      "d": 367.55599999999686,
      "v": 69
    },
    {
      "midi": 53,
      "hit": false,
      "t": 87110.77199999987,
      "d": 367.55599999999686,
      "v": 69
    },
    {
      "midi": 58,
      "hit": false,
      "t": 87110.77199999987,
      "d": 367.55599999999686,
      "v": 82
    },
    {
      "midi": 82,
      "hit": false,
      "t": 87110.77199999992,
      "d": 367.55599999999686,
      "v": 89
    },
    {
      "midi": 94,
      "hit": false,
      "t": 87110.77199999992,
      "d": 367.55599999999686,
      "v": 105
    },
    {
      "midi": 46,
      "hit": false,
      "t": 87662.10599999987,
      "d": 367.55599999999686,
      "v": 69
    },
    {
      "midi": 50,
      "hit": false,
      "t": 87662.10599999987,
      "d": 367.55599999999686,
      "v": 69
    },
    {
      "midi": 53,
      "hit": false,
      "t": 87662.10599999987,
      "d": 367.55599999999686,
      "v": 69
    },
    {
      "midi": 58,
      "hit": false,
      "t": 87662.10599999987,
      "d": 367.55599999999686,
      "v": 82
    },
    {
      "midi": 74,
      "hit": false,
      "t": 87662.10599999993,
      "d": 367.55599999999686,
      "v": 75
    },
    {
      "midi": 77,
      "hit": false,
      "t": 87662.10599999993,
      "d": 367.55599999999686,
      "v": 75
    },
    {
      "midi": 82,
      "hit": false,
      "t": 87662.10599999993,
      "d": 367.55599999999686,
      "v": 90
    },
    {
      "midi": 46,
      "hit": false,
      "t": 88213.43999999987,
      "d": 367.55599999999686,
      "v": 69
    },
    {
      "midi": 50,
      "hit": false,
      "t": 88213.43999999987,
      "d": 367.55599999999686,
      "v": 69
    },
    {
      "midi": 53,
      "hit": false,
      "t": 88213.43999999987,
      "d": 367.55599999999686,
      "v": 69
    },
    {
      "midi": 58,
      "hit": false,
      "t": 88213.43999999987,
      "d": 367.55599999999686,
      "v": 82
    },
    {
      "midi": 62,
      "hit": false,
      "t": 88213.43999999993,
      "d": 367.55599999999686,
      "v": 74
    },
    {
      "midi": 65,
      "hit": false,
      "t": 88213.43999999993,
      "d": 367.55599999999686,
      "v": 74
    },
    {
      "midi": 70,
      "hit": false,
      "t": 88213.43999999993,
      "d": 367.55599999999686,
      "v": 89
    },
    {
      "midi": 82,
      "hit": false,
      "t": 89132.32999999993,
      "d": 183.7780000000057,
      "v": 45
    },
    {
      "midi": 63,
      "hit": false,
      "t": 89316.10799999986,
      "d": 367.55599999999686,
      "v": 34
    },
    {
      "midi": 67,
      "hit": false,
      "t": 89316.10799999986,
      "d": 367.55599999999686,
      "v": 34
    },
    {
      "midi": 70,
      "hit": false,
      "t": 89316.10799999986,
      "d": 367.55599999999686,
      "v": 40
    },
    {
      "midi": 82,
      "hit": false,
      "t": 89316.10799999993,
      "d": 183.7780000000057,
      "v": 45
    },
    {
      "midi": 79,
      "hit": false,
      "t": 89499.88599999994,
      "d": 183.7780000000057,
      "v": 45
    },
    {
      "midi": 75,
      "hit": false,
      "t": 89683.66399999995,
      "d": 183.7780000000057,
      "v": 39
    },
    {
      "midi": 58,
      "hit": false,
      "t": 89867.44199999986,
      "d": 367.55599999999686,
      "v": 28
    },
    {
      "midi": 65,
      "hit": false,
      "t": 89867.44199999986,
      "d": 367.55599999999686,
      "v": 28
    },
    {
      "midi": 68,
      "hit": false,
      "t": 89867.44199999986,
      "d": 367.55599999999686,
      "v": 28
    },
    {
      "midi": 70,
      "hit": false,
      "t": 89867.44199999986,
      "d": 367.55599999999686,
      "v": 34
    },
    {
      "midi": 74,
      "hit": false,
      "t": 89867.44199999995,
      "d": 183.7780000000057,
      "v": 45
    },
    {
      "midi": 77,
      "hit": false,
      "t": 90051.21999999996,
      "d": 183.7780000000057,
      "v": 40
    },
    {
      "midi": 82,
      "hit": false,
      "t": 90234.99799999996,
      "d": 137.83349999999336,
      "v": 40
    },
    {
      "midi": 63,
      "hit": false,
      "t": 90418.77599999987,
      "d": 367.55599999999686,
      "v": 34
    },
    {
      "midi": 67,
      "hit": false,
      "t": 90418.77599999987,
      "d": 367.55599999999686,
      "v": 34
    },
    {
      "midi": 70,
      "hit": false,
      "t": 90418.77599999987,
      "d": 367.55599999999686,
      "v": 40
    },
    {
      "midi": 82,
      "hit": false,
      "t": 90418.77599999995,
      "d": 183.7780000000057,
      "v": 45
    },
    {
      "midi": 79,
      "hit": false,
      "t": 90602.55399999996,
      "d": 183.7780000000057,
      "v": 41
    },
    {
      "midi": 75,
      "hit": false,
      "t": 90786.33199999997,
      "d": 137.83349999999336,
      "v": 41
    },
    {
      "midi": 75,
      "hit": false,
      "t": 90970.10999999996,
      "d": 183.7780000000057,
      "v": 45
    },
    {
      "midi": 79,
      "hit": false,
      "t": 91153.88799999996,
      "d": 183.7780000000057,
      "v": 39
    },
    {
      "midi": 64,
      "hit": false,
      "t": 91337.66599999987,
      "d": 137.83349999999336,
      "v": 28
    },
    {
      "midi": 67,
      "hit": false,
      "t": 91337.66599999987,
      "d": 137.83349999999336,
      "v": 28
    },
    {
      "midi": 70,
      "hit": false,
      "t": 91337.66599999987,
      "d": 137.83349999999336,
      "v": 28
    },
    {
      "midi": 72,
      "hit": false,
      "t": 91337.66599999987,
      "d": 137.83349999999336,
      "v": 34
    },
    {
      "midi": 84,
      "hit": false,
      "t": 91337.66599999997,
      "d": 137.83349999999336,
      "v": 51
    },
    {
      "midi": 65,
      "hit": false,
      "t": 91521.44399999986,
      "d": 367.55599999999686,
      "v": 34
    },
    {
      "midi": 68,
      "hit": false,
      "t": 91521.44399999986,
      "d": 367.55599999999686,
      "v": 34
    },
    {
      "midi": 72,
      "hit": false,
      "t": 91521.44399999986,
      "d": 367.55599999999686,
      "v": 40
    },
    {
      "midi": 84,
      "hit": false,
      "t": 91521.44399999996,
      "d": 183.7780000000057,
      "v": 57
    },
    {
      "midi": 80,
      "hit": false,
      "t": 91705.22199999997,
      "d": 183.7780000000057,
      "v": 45
    },
    {
      "midi": 77,
      "hit": false,
      "t": 91888.99999999997,
      "d": 183.7780000000057,
      "v": 45
    },
    {
      "midi": 60,
      "hit": false,
      "t": 92072.77799999986,
      "d": 367.55599999999686,
      "v": 28
    },
    {
      "midi": 67,
      "hit": false,
      "t": 92072.77799999986,
      "d": 367.55599999999686,
      "v": 28
    },
    {
      "midi": 70,
      "hit": false,
      "t": 92072.77799999986,
      "d": 367.55599999999686,
      "v": 28
    },
    {
      "midi": 72,
      "hit": false,
      "t": 92072.77799999986,
      "d": 367.55599999999686,
      "v": 34
    },
    {
      "midi": 76,
      "hit": false,
      "t": 92072.77799999998,
      "d": 183.7780000000057,
      "v": 49
    },
    {
      "midi": 79,
      "hit": false,
      "t": 92256.55599999998,
      "d": 183.7780000000057,
      "v": 44
    },
    {
      "midi": 84,
      "hit": false,
      "t": 92440.33399999999,
      "d": 137.83349999999336,
      "v": 51
    },
    {
      "midi": 65,
      "hit": false,
      "t": 92624.11199999986,
      "d": 367.55599999999686,
      "v": 34
    },
    {
      "midi": 68,
      "hit": false,
      "t": 92624.11199999986,
      "d": 367.55599999999686,
      "v": 34
    },
    {
      "midi": 72,
      "hit": false,
      "t": 92624.11199999986,
      "d": 367.55599999999686,
      "v": 40
    },
    {
      "midi": 84,
      "hit": false,
      "t": 92624.11199999998,
      "d": 183.7780000000057,
      "v": 60
    },
    {
      "midi": 80,
      "hit": false,
      "t": 92807.88999999998,
      "d": 183.7780000000057,
      "v": 45
    },
    {
      "midi": 77,
      "hit": false,
      "t": 92991.66799999999,
      "d": 183.7780000000057,
      "v": 45
    },
    {
      "midi": 74,
      "hit": false,
      "t": 93175.446,
      "d": 183.7780000000057,
      "v": 51
    },
    {
      "midi": 77,
      "hit": false,
      "t": 93359.224,
      "d": 183.7780000000057,
      "v": 45
    },
    {
      "midi": 62,
      "hit": false,
      "t": 93543.00199999986,
      "d": 137.83349999999336,
      "v": 31
    },
    {
      "midi": 65,
      "hit": false,
      "t": 93543.00199999986,
      "d": 137.83349999999336,
      "v": 31
    },
    {
      "midi": 68,
      "hit": false,
      "t": 93543.00199999986,
      "d": 137.83349999999336,
      "v": 31
    },
    {
      "midi": 70,
      "hit": false,
      "t": 93543.00199999986,
      "d": 137.83349999999336,
      "v": 37
    },
    {
      "midi": 82,
      "hit": false,
      "t": 93543.00200000001,
      "d": 137.83349999999336,
      "v": 45
    },
    {
      "midi": 63,
      "hit": false,
      "t": 93726.77999999985,
      "d": 367.55599999999686,
      "v": 33
    },
    {
      "midi": 67,
      "hit": false,
      "t": 93726.77999999985,
      "d": 367.55599999999686,
      "v": 33
    },
    {
      "midi": 70,
      "hit": false,
      "t": 93726.77999999985,
      "d": 367.55599999999686,
      "v": 39
    },
    {
      "midi": 82,
      "hit": false,
      "t": 93726.78,
      "d": 183.7780000000057,
      "v": 50
    },
    {
      "midi": 79,
      "hit": false,
      "t": 93910.558,
      "d": 183.7780000000057,
      "v": 43
    },
    {
      "midi": 75,
      "hit": false,
      "t": 94094.33600000001,
      "d": 183.7780000000057,
      "v": 43
    },
    {
      "midi": 56,
      "hit": false,
      "t": 94278.11399999986,
      "d": 367.55599999999686,
      "v": 29
    },
    {
      "midi": 60,
      "hit": false,
      "t": 94278.11399999986,
      "d": 367.55599999999686,
      "v": 29
    },
    {
      "midi": 65,
      "hit": false,
      "t": 94278.11399999986,
      "d": 367.55599999999686,
      "v": 35
    },
    {
      "midi": 72,
      "hit": false,
      "t": 94278.11400000002,
      "d": 183.7780000000057,
      "v": 45
    },
    {
      "midi": 77,
      "hit": false,
      "t": 94461.89200000002,
      "d": 183.7780000000057,
      "v": 41
    },
    {
      "midi": 80,
      "hit": false,
      "t": 94645.67000000003,
      "d": 137.83349999999336,
      "v": 41
    },
    {
      "midi": 58,
      "hit": false,
      "t": 94829.44799999986,
      "d": 367.55599999999686,
      "v": 35
    },
    {
      "midi": 63,
      "hit": false,
      "t": 94829.44799999986,
      "d": 367.55599999999686,
      "v": 35
    },
    {
      "midi": 67,
      "hit": false,
      "t": 94829.44799999986,
      "d": 367.55599999999686,
      "v": 42
    },
    {
      "midi": 70,
      "hit": false,
      "t": 94829.44800000002,
      "d": 183.7780000000057,
      "v": 47
    },
    {
      "midi": 75,
      "hit": false,
      "t": 95013.22600000002,
      "d": 183.7780000000057,
      "v": 43
    },
    {
      "midi": 79,
      "hit": false,
      "t": 95197.00400000003,
      "d": 137.83349999999336,
      "v": 43
    },
    {
      "midi": 58,
      "hit": false,
      "t": 95380.78199999986,
      "d": 367.55599999999686,
      "v": 33
    },
    {
      "midi": 62,
      "hit": false,
      "t": 95380.78199999986,
      "d": 367.55599999999686,
      "v": 33
    },
    {
      "midi": 65,
      "hit": false,
      "t": 95380.78199999986,
      "d": 367.55599999999686,
      "v": 39
    },
    {
      "midi": 68,
      "hit": false,
      "t": 95380.78200000002,
      "d": 183.7780000000057,
      "v": 48
    },
    {
      "midi": 74,
      "hit": false,
      "t": 95564.56000000003,
      "d": 183.7780000000057,
      "v": 43
    },
    {
      "midi": 58,
      "hit": false,
      "t": 95748.33799999986,
      "d": 137.83349999999336,
      "v": 39
    },
    {
      "midi": 68,
      "hit": false,
      "t": 95748.33800000003,
      "d": 137.83349999999336,
      "v": 43
    },
    {
      "midi": 77,
      "hit": false,
      "t": 95748.33800000003,
      "d": 137.83349999999336,
      "v": 43
    },
    {
      "midi": 58,
      "hit": false,
      "t": 95932.11599999985,
      "d": 183.7780000000057,
      "v": 49
    },
    {
      "midi": 67,
      "hit": false,
      "t": 95932.11600000002,
      "d": 183.7780000000057,
      "v": 49
    },
    {
      "midi": 75,
      "hit": false,
      "t": 95932.11600000002,
      "d": 183.7780000000057,
      "v": 49
    },
    {
      "midi": 55,
      "hit": false,
      "t": 96115.89399999985,
      "d": 183.7780000000057,
      "v": 49
    },
    {
      "midi": 51,
      "hit": false,
      "t": 96299.67199999986,
      "d": 183.7780000000057,
      "v": 42
    },
    {
      "midi": 79,
      "hit": false,
      "t": 96299.67200000004,
      "d": 183.7780000000057,
      "v": 49
    },
    {
      "midi": 50,
      "hit": false,
      "t": 96483.44999999987,
      "d": 183.7780000000057,
      "v": 49
    },
    {
      "midi": 80,
      "hit": false,
      "t": 96483.45000000004,
      "d": 91.88899999999558,
      "v": 49
    },
    {
      "midi": 79,
      "hit": false,
      "t": 96575.33900000004,
      "d": 91.88899999999558,
      "v": 45
    },
    {
      "midi": 53,
      "hit": false,
      "t": 96667.22799999987,
      "d": 183.7780000000057,
      "v": 45
    },
    {
      "midi": 80,
      "hit": false,
      "t": 96667.22800000003,
      "d": 91.88899999999558,
      "v": 49
    },
    {
      "midi": 77,
      "hit": false,
      "t": 96759.11700000003,
      "d": 91.88899999999558,
      "v": 44
    },
    {
      "midi": 58,
      "hit": false,
      "t": 96851.00599999988,
      "d": 137.83349999999336,
      "v": 45
    },
    {
      "midi": 82,
      "hit": false,
      "t": 96851.00600000002,
      "d": 91.88899999999558,
      "v": 49
    },
    {
      "midi": 80,
      "hit": false,
      "t": 96942.89500000002,
      "d": 91.88899999999558,
      "v": 44
    },
    {
      "midi": 58,
      "hit": false,
      "t": 97034.78399999987,
      "d": 183.7780000000057,
      "v": 51
    },
    {
      "midi": 79,
      "hit": false,
      "t": 97034.78400000001,
      "d": 183.7780000000057,
      "v": 67
    },
    {
      "midi": 55,
      "hit": false,
      "t": 97218.56199999987,
      "d": 183.7780000000057,
      "v": 47
    },
    {
      "midi": 94,
      "hit": false,
      "t": 97218.56200000002,
      "d": 183.7780000000057,
      "v": 62
    },
    {
      "midi": 51,
      "hit": false,
      "t": 97402.33999999988,
      "d": 137.83349999999336,
      "v": 47
    },
    {
      "midi": 51,
      "hit": false,
      "t": 97586.11799999987,
      "d": 183.7780000000057,
      "v": 52
    },
    {
      "midi": 55,
      "hit": false,
      "t": 97769.89599999988,
      "d": 183.7780000000057,
      "v": 46
    },
    {
      "midi": 52,
      "hit": false,
      "t": 97953.67399999988,
      "d": 137.83349999999336,
      "v": 49
    },
    {
      "midi": 60,
      "hit": false,
      "t": 97953.67399999988,
      "d": 137.83349999999336,
      "v": 60
    },
    {
      "midi": 67,
      "hit": false,
      "t": 97953.67400000003,
      "d": 137.83349999999336,
      "v": 49
    },
    {
      "midi": 53,
      "hit": false,
      "t": 98137.45199999987,
      "d": 183.7780000000057,
      "v": 53
    },
    {
      "midi": 60,
      "hit": false,
      "t": 98137.45199999987,
      "d": 183.7780000000057,
      "v": 66
    },
    {
      "midi": 56,
      "hit": false,
      "t": 98321.22999999988,
      "d": 183.7780000000057,
      "v": 53
    },
    {
      "midi": 53,
      "hit": false,
      "t": 98505.00799999989,
      "d": 183.7780000000057,
      "v": 53
    },
    {
      "midi": 68,
      "hit": false,
      "t": 98505.00800000002,
      "d": 183.7780000000057,
      "v": 49
    },
    {
      "midi": 52,
      "hit": false,
      "t": 98688.78599999989,
      "d": 183.7780000000057,
      "v": 59
    },
    {
      "midi": 70,
      "hit": false,
      "t": 98688.78600000002,
      "d": 91.88899999999558,
      "v": 51
    },
    {
      "midi": 68,
      "hit": false,
      "t": 98780.67500000002,
      "d": 91.88899999999558,
      "v": 41
    },
    {
      "midi": 55,
      "hit": false,
      "t": 98872.5639999999,
      "d": 183.7780000000057,
      "v": 53
    },
    {
      "midi": 70,
      "hit": false,
      "t": 98872.56400000001,
      "d": 91.88899999999558,
      "v": 49
    },
    {
      "midi": 67,
      "hit": false,
      "t": 98964.45300000001,
      "d": 91.88899999999558,
      "v": 42
    },
    {
      "midi": 60,
      "hit": false,
      "t": 99056.3419999999,
      "d": 137.83349999999336,
      "v": 58
    },
    {
      "midi": 72,
      "hit": false,
      "t": 99056.342,
      "d": 91.88899999999558,
      "v": 49
    },
    {
      "midi": 70,
      "hit": false,
      "t": 99148.231,
      "d": 91.88899999999558,
      "v": 47
    },
    {
      "midi": 60,
      "hit": false,
      "t": 99240.1199999999,
      "d": 183.7780000000057,
      "v": 70
    },
    {
      "midi": 68,
      "hit": false,
      "t": 99240.12,
      "d": 183.7780000000057,
      "v": 69
    },
    {
      "midi": 56,
      "hit": false,
      "t": 99423.8979999999,
      "d": 183.7780000000057,
      "v": 56
    },
    {
      "midi": 84,
      "hit": false,
      "t": 99423.898,
      "d": 183.7780000000057,
      "v": 61
    },
    {
      "midi": 53,
      "hit": false,
      "t": 99607.6759999999,
      "d": 183.7780000000057,
      "v": 57
    },
    {
      "midi": 50,
      "hit": false,
      "t": 99791.45399999991,
      "d": 183.7780000000057,
      "v": 64
    },
    {
      "midi": 53,
      "hit": false,
      "t": 99975.23199999992,
      "d": 183.7780000000057,
      "v": 58
    },
    {
      "midi": 50,
      "hit": false,
      "t": 100159.00999999992,
      "d": 137.83349999999336,
      "v": 53
    },
    {
      "midi": 58,
      "hit": false,
      "t": 100159.00999999992,
      "d": 137.83349999999336,
      "v": 63
    },
    {
      "midi": 77,
      "hit": false,
      "t": 100159.01000000001,
      "d": 137.83349999999336,
      "v": 55
    },
    {
      "midi": 51,
      "hit": false,
      "t": 100342.78799999991,
      "d": 183.7780000000057,
      "v": 61
    },
    {
      "midi": 58,
      "hit": false,
      "t": 100342.78799999991,
      "d": 183.7780000000057,
      "v": 72
    },
    {
      "midi": 55,
      "hit": false,
      "t": 100526.56599999992,
      "d": 183.7780000000057,
      "v": 56
    },
    {
      "midi": 51,
      "hit": false,
      "t": 100710.34399999992,
      "d": 183.7780000000057,
      "v": 57
    },
    {
      "midi": 79,
      "hit": false,
      "t": 100710.344,
      "d": 183.7780000000057,
      "v": 53
    },
    {
      "midi": 44,
      "hit": false,
      "t": 100894.12199999993,
      "d": 183.7780000000057,
      "v": 50
    },
    {
      "midi": 48,
      "hit": false,
      "t": 100894.12199999993,
      "d": 183.7780000000057,
      "v": 59
    },
    {
      "midi": 80,
      "hit": false,
      "t": 100894.122,
      "d": 91.88899999999558,
      "v": 53
    },
    {
      "midi": 79,
      "hit": false,
      "t": 100986.011,
      "d": 91.88899999999558,
      "v": 49
    },
    {
      "midi": 53,
      "hit": false,
      "t": 101077.89999999994,
      "d": 183.7780000000057,
      "v": 55
    },
    {
      "midi": 80,
      "hit": false,
      "t": 101077.9,
      "d": 91.88899999999558,
      "v": 55
    },
    {
      "midi": 77,
      "hit": false,
      "t": 101169.78899999999,
      "d": 91.88899999999558,
      "v": 49
    },
    {
      "midi": 56,
      "hit": false,
      "t": 101261.67799999994,
      "d": 137.83349999999336,
      "v": 55
    },
    {
      "midi": 92,
      "hit": false,
      "t": 101261.67799999999,
      "d": 137.83349999999336,
      "v": 74
    },
    {
      "midi": 46,
      "hit": false,
      "t": 101445.45599999993,
      "d": 183.7780000000057,
      "v": 61
    },
    {
      "midi": 51,
      "hit": false,
      "t": 101629.23399999994,
      "d": 183.7780000000057,
      "v": 56
    },
    {
      "midi": 55,
      "hit": false,
      "t": 101813.01199999994,
      "d": 137.83349999999336,
      "v": 56
    },
    {
      "midi": 75,
      "hit": false,
      "t": 101813.01199999997,
      "d": 137.83349999999336,
      "v": 49
    },
    {
      "midi": 46,
      "hit": false,
      "t": 101996.78999999994,
      "d": 183.7780000000057,
      "v": 62
    },
    {
      "midi": 77,
      "hit": false,
      "t": 101996.78999999996,
      "d": 91.88899999999558,
      "v": 57
    },
    {
      "midi": 75,
      "hit": false,
      "t": 102088.67899999996,
      "d": 91.88899999999558,
      "v": 49
    },
    {
      "midi": 50,
      "hit": false,
      "t": 102180.56799999994,
      "d": 183.7780000000057,
      "v": 56
    },
    {
      "midi": 77,
      "hit": false,
      "t": 102180.56799999996,
      "d": 91.88899999999558,
      "v": 56
    },
    {
      "midi": 74,
      "hit": false,
      "t": 102272.45699999995,
      "d": 91.88899999999558,
      "v": 49
    },
    {
      "midi": 89,
      "hit": false,
      "t": 102364.34599999995,
      "d": 137.83349999999336,
      "v": 72
    },
    {
      "midi": 46,
      "hit": false,
      "t": 102364.34599999995,
      "d": 137.83349999999336,
      "v": 56
    },
    {
      "midi": 58,
      "hit": false,
      "t": 102364.34599999995,
      "d": 137.83349999999336,
      "v": 56
    },
    {
      "midi": 67,
      "hit": false,
      "t": 102548.12399999994,
      "d": 91.88899999999558,
      "v": 81
    },
    {
      "midi": 46,
      "hit": false,
      "t": 102548.12399999994,
      "d": 183.7780000000057,
      "v": 63
    },
    {
      "midi": 79,
      "hit": false,
      "t": 102640.01299999993,
      "d": 91.88899999999558,
      "v": 60
    },
    {
      "midi": 67,
      "hit": false,
      "t": 102731.90199999993,
      "d": 91.88899999999558,
      "v": 69
    },
    {
      "midi": 43,
      "hit": false,
      "t": 102731.90199999994,
      "d": 183.7780000000057,
      "v": 63
    },
    {
      "midi": 79,
      "hit": false,
      "t": 102823.79099999992,
      "d": 91.88899999999558,
      "v": 59
    },
    {
      "midi": 70,
      "hit": false,
      "t": 102915.67999999992,
      "d": 91.88899999999558,
      "v": 67
    },
    {
      "midi": 39,
      "hit": false,
      "t": 102915.67999999995,
      "d": 183.7780000000057,
      "v": 55
    },
    {
      "midi": 82,
      "hit": false,
      "t": 103007.56899999992,
      "d": 91.88899999999558,
      "v": 59
    },
    {
      "midi": 70,
      "hit": false,
      "t": 103099.45799999991,
      "d": 91.88899999999558,
      "v": 77
    },
    {
      "midi": 38,
      "hit": false,
      "t": 103099.45799999996,
      "d": 183.7780000000057,
      "v": 63
    },
    {
      "midi": 82,
      "hit": false,
      "t": 103191.3469999999,
      "d": 91.88899999999558,
      "v": 57
    },
    {
      "midi": 70,
      "hit": false,
      "t": 103283.2359999999,
      "d": 91.88899999999558,
      "v": 63
    },
    {
      "midi": 41,
      "hit": false,
      "t": 103283.23599999996,
      "d": 183.7780000000057,
      "v": 57
    },
    {
      "midi": 82,
      "hit": false,
      "t": 103375.1249999999,
      "d": 91.88899999999558,
      "v": 56
    },
    {
      "midi": 68,
      "hit": false,
      "t": 103467.0139999999,
      "d": 91.88899999999558,
      "v": 63
    },
    {
      "midi": 46,
      "hit": false,
      "t": 103467.01399999997,
      "d": 137.83349999999336,
      "v": 57
    },
    {
      "midi": 80,
      "hit": false,
      "t": 103558.90299999989,
      "d": 91.88899999999558,
      "v": 56
    },
    {
      "midi": 67,
      "hit": false,
      "t": 103650.79199999988,
      "d": 91.88899999999558,
      "v": 73
    },
    {
      "midi": 46,
      "hit": false,
      "t": 103650.79199999996,
      "d": 183.7780000000057,
      "v": 63
    },
    {
      "midi": 79,
      "hit": false,
      "t": 103742.68099999988,
      "d": 91.88899999999558,
      "v": 60
    },
    {
      "midi": 67,
      "hit": false,
      "t": 103834.56999999988,
      "d": 91.88899999999558,
      "v": 66
    },
    {
      "midi": 43,
      "hit": false,
      "t": 103834.56999999996,
      "d": 183.7780000000057,
      "v": 58
    },
    {
      "midi": 79,
      "hit": false,
      "t": 103926.45899999987,
      "d": 91.88899999999558,
      "v": 60
    },
    {
      "midi": 70,
      "hit": false,
      "t": 104018.34799999987,
      "d": 91.88899999999558,
      "v": 66
    },
    {
      "midi": 39,
      "hit": false,
      "t": 104018.34799999997,
      "d": 137.83349999999336,
      "v": 58
    },
    {
      "midi": 82,
      "hit": false,
      "t": 104110.23699999986,
      "d": 91.88899999999558,
      "v": 59
    },
    {
      "midi": 70,
      "hit": false,
      "t": 104202.12599999986,
      "d": 91.88899999999558,
      "v": 73
    },
    {
      "midi": 39,
      "hit": false,
      "t": 104202.12599999996,
      "d": 183.7780000000057,
      "v": 63
    },
    {
      "midi": 82,
      "hit": false,
      "t": 104294.01499999985,
      "d": 91.88899999999558,
      "v": 60
    },
    {
      "midi": 70,
      "hit": false,
      "t": 104385.90399999985,
      "d": 91.88899999999558,
      "v": 63
    },
    {
      "midi": 43,
      "hit": false,
      "t": 104385.90399999997,
      "d": 183.7780000000057,
      "v": 55
    },
    {
      "midi": 82,
      "hit": false,
      "t": 104477.79299999985,
      "d": 91.88899999999558,
      "v": 55
    },
    {
      "midi": 67,
      "hit": false,
      "t": 104569.68199999984,
      "d": 91.88899999999558,
      "v": 66
    },
    {
      "midi": 40,
      "hit": false,
      "t": 104569.68199999997,
      "d": 137.83349999999336,
      "v": 58
    },
    {
      "midi": 48,
      "hit": false,
      "t": 104569.68199999997,
      "d": 137.83349999999336,
      "v": 70
    },
    {
      "midi": 79,
      "hit": false,
      "t": 104661.57099999984,
      "d": 91.88899999999558,
      "v": 60
    },
    {
      "midi": 68,
      "hit": false,
      "t": 104753.45999999983,
      "d": 91.88899999999558,
      "v": 73
    },
    {
      "midi": 41,
      "hit": false,
      "t": 104753.45999999996,
      "d": 183.7780000000057,
      "v": 63
    },
    {
      "midi": 48,
      "hit": false,
      "t": 104753.45999999996,
      "d": 183.7780000000057,
      "v": 78
    },
    {
      "midi": 80,
      "hit": false,
      "t": 104845.34899999983,
      "d": 91.88899999999558,
      "v": 53
    },
    {
      "midi": 68,
      "hit": false,
      "t": 104937.23799999982,
      "d": 91.88899999999558,
      "v": 61
    },
    {
      "midi": 44,
      "hit": false,
      "t": 104937.23799999997,
      "d": 183.7780000000057,
      "v": 63
    },
    {
      "midi": 80,
      "hit": false,
      "t": 105029.12699999982,
      "d": 91.88899999999558,
      "v": 53
    },
    {
      "midi": 72,
      "hit": false,
      "t": 105121.01599999981,
      "d": 91.88899999999558,
      "v": 61
    },
    {
      "midi": 41,
      "hit": false,
      "t": 105121.01599999997,
      "d": 183.7780000000057,
      "v": 63
    },
    {
      "midi": 84,
      "hit": false,
      "t": 105212.90499999981,
      "d": 91.88899999999558,
      "v": 56
    },
    {
      "midi": 72,
      "hit": false,
      "t": 105304.7939999998,
      "d": 91.88899999999558,
      "v": 73
    },
    {
      "midi": 40,
      "hit": false,
      "t": 105304.79399999998,
      "d": 183.7780000000057,
      "v": 69
    },
    {
      "midi": 84,
      "hit": false,
      "t": 105396.6829999998,
      "d": 91.88899999999558,
      "v": 53
    },
    {
      "midi": 72,
      "hit": false,
      "t": 105488.5719999998,
      "d": 91.88899999999558,
      "v": 61
    },
    {
      "midi": 43,
      "hit": false,
      "t": 105488.57199999999,
      "d": 183.7780000000057,
      "v": 62
    },
    {
      "midi": 84,
      "hit": false,
      "t": 105580.46099999979,
      "d": 91.88899999999558,
      "v": 55
    },
    {
      "midi": 70,
      "hit": false,
      "t": 105672.34999999979,
      "d": 91.88899999999558,
      "v": 61
    },
    {
      "midi": 48,
      "hit": false,
      "t": 105672.34999999999,
      "d": 137.83349999999336,
      "v": 73
    },
    {
      "midi": 82,
      "hit": false,
      "t": 105764.23899999978,
      "d": 91.88899999999558,
      "v": 53
    },
    {
      "midi": 68,
      "hit": false,
      "t": 105856.12799999978,
      "d": 91.88899999999558,
      "v": 73
    },
    {
      "midi": 48,
      "hit": false,
      "t": 105856.12799999998,
      "d": 183.7780000000057,
      "v": 86
    },
    {
      "midi": 80,
      "hit": false,
      "t": 105948.01699999977,
      "d": 91.88899999999558,
      "v": 55
    },
    {
      "midi": 68,
      "hit": false,
      "t": 106039.90599999977,
      "d": 91.88899999999558,
      "v": 61
    },
    {
      "midi": 44,
      "hit": false,
      "t": 106039.90599999999,
      "d": 183.7780000000057,
      "v": 63
    },
    {
      "midi": 80,
      "hit": false,
      "t": 106131.79499999977,
      "d": 91.88899999999558,
      "v": 55
    },
    {
      "midi": 72,
      "hit": false,
      "t": 106223.68399999976,
      "d": 91.88899999999558,
      "v": 61
    },
    {
      "midi": 41,
      "hit": false,
      "t": 106223.684,
      "d": 183.7780000000057,
      "v": 63
    },
    {
      "midi": 84,
      "hit": false,
      "t": 106315.57299999976,
      "d": 91.88899999999558,
      "v": 55
    },
    {
      "midi": 72,
      "hit": false,
      "t": 106407.46199999975,
      "d": 91.88899999999558,
      "v": 73
    },
    {
      "midi": 38,
      "hit": false,
      "t": 106407.462,
      "d": 183.7780000000057,
      "v": 72
    },
    {
      "midi": 84,
      "hit": false,
      "t": 106499.35099999975,
      "d": 91.88899999999558,
      "v": 52
    },
    {
      "midi": 70,
      "hit": false,
      "t": 106591.23999999974,
      "d": 91.88899999999558,
      "v": 59
    },
    {
      "midi": 41,
      "hit": false,
      "t": 106591.24,
      "d": 183.7780000000057,
      "v": 63
    },
    {
      "midi": 82,
      "hit": false,
      "t": 106683.12899999974,
      "d": 91.88899999999558,
      "v": 52
    },
    {
      "midi": 68,
      "hit": false,
      "t": 106775.01799999973,
      "d": 91.88899999999558,
      "v": 59
    },
    {
      "midi": 38,
      "hit": false,
      "t": 106775.01800000001,
      "d": 137.83349999999336,
      "v": 58
    },
    {
      "midi": 46,
      "hit": false,
      "t": 106775.01800000001,
      "d": 137.83349999999336,
      "v": 69
    },
    {
      "midi": 80,
      "hit": false,
      "t": 106866.90699999973,
      "d": 91.88899999999558,
      "v": 53
    },
    {
      "midi": 67,
      "hit": false,
      "t": 106958.79599999973,
      "d": 91.88899999999558,
      "v": 73
    },
    {
      "midi": 39,
      "hit": false,
      "t": 106958.796,
      "d": 183.7780000000057,
      "v": 66
    },
    {
      "midi": 46,
      "hit": false,
      "t": 106958.796,
      "d": 183.7780000000057,
      "v": 78
    },
    {
      "midi": 79,
      "hit": false,
      "t": 107050.68499999972,
      "d": 91.88899999999558,
      "v": 53
    },
    {
      "midi": 70,
      "hit": false,
      "t": 107142.57399999972,
      "d": 91.88899999999558,
      "v": 61
    },
    {
      "midi": 43,
      "hit": false,
      "t": 107142.57400000001,
      "d": 183.7780000000057,
      "v": 60
    },
    {
      "midi": 82,
      "hit": false,
      "t": 107234.46299999971,
      "d": 91.88899999999558,
      "v": 55
    },
    {
      "midi": 75,
      "hit": false,
      "t": 107326.35199999971,
      "d": 91.88899999999558,
      "v": 61
    },
    {
      "midi": 39,
      "hit": false,
      "t": 107326.35200000001,
      "d": 183.7780000000057,
      "v": 60
    },
    {
      "midi": 87,
      "hit": false,
      "t": 107418.2409999997,
      "d": 91.88899999999558,
      "v": 55
    },
    {
      "midi": 75,
      "hit": false,
      "t": 107510.1299999997,
      "d": 91.88899999999558,
      "v": 73
    },
    {
      "midi": 36,
      "hit": false,
      "t": 107510.13000000002,
      "d": 183.7780000000057,
      "v": 63
    },
    {
      "midi": 32,
      "hit": false,
      "t": 107510.13000000002,
      "d": 367.5560000000114,
      "v": 53
    },
    {
      "midi": 87,
      "hit": false,
      "t": 107602.0189999997,
      "d": 91.88899999999558,
      "v": 53
    },
    {
      "midi": 72,
      "hit": false,
      "t": 107693.90799999969,
      "d": 91.88899999999558,
      "v": 60
    },
    {
      "midi": 41,
      "hit": false,
      "t": 107693.90800000002,
      "d": 183.7780000000057,
      "v": 58
    },
    {
      "midi": 84,
      "hit": false,
      "t": 107785.79699999969,
      "d": 91.88899999999558,
      "v": 53
    },
    {
      "midi": 68,
      "hit": false,
      "t": 107877.68599999968,
      "d": 91.88899999999558,
      "v": 60
    },
    {
      "midi": 44,
      "hit": false,
      "t": 107877.68600000003,
      "d": 137.83349999999336,
      "v": 63
    },
    {
      "midi": 80,
      "hit": false,
      "t": 107969.57499999968,
      "d": 91.88899999999558,
      "v": 53
    },
    {
      "midi": 75,
      "hit": false,
      "t": 108061.46399999967,
      "d": 91.88899999999558,
      "v": 73
    },
    {
      "midi": 34,
      "hit": false,
      "t": 108061.46400000002,
      "d": 183.7780000000057,
      "v": 69
    },
    {
      "midi": 87,
      "hit": false,
      "t": 108153.35299999967,
      "d": 91.88899999999558,
      "v": 56
    },
    {
      "midi": 70,
      "hit": false,
      "t": 108245.24199999966,
      "d": 91.88899999999558,
      "v": 62
    },
    {
      "midi": 39,
      "hit": false,
      "t": 108245.24200000003,
      "d": 183.7780000000057,
      "v": 58
    },
    {
      "midi": 82,
      "hit": false,
      "t": 108337.13099999966,
      "d": 91.88899999999558,
      "v": 55
    },
    {
      "midi": 67,
      "hit": false,
      "t": 108429.01999999965,
      "d": 91.88899999999558,
      "v": 62
    },
    {
      "midi": 43,
      "hit": false,
      "t": 108429.02000000003,
      "d": 137.83349999999336,
      "v": 58
    },
    {
      "midi": 79,
      "hit": false,
      "t": 108520.90899999965,
      "d": 91.88899999999558,
      "v": 55
    },
    {
      "midi": 70,
      "hit": false,
      "t": 108612.79799999965,
      "d": 91.88899999999558,
      "v": 73
    },
    {
      "midi": 34,
      "hit": false,
      "t": 108612.79800000002,
      "d": 183.7780000000057,
      "v": 63
    },
    {
      "midi": 82,
      "hit": false,
      "t": 108704.68699999964,
      "d": 91.88899999999558,
      "v": 56
    },
    {
      "midi": 68,
      "hit": false,
      "t": 108796.57599999964,
      "d": 91.88899999999558,
      "v": 64
    },
    {
      "midi": 41,
      "hit": false,
      "t": 108796.57600000003,
      "d": 183.7780000000057,
      "v": 57
    },
    {
      "midi": 80,
      "hit": false,
      "t": 108888.46499999963,
      "d": 91.88899999999558,
      "v": 57
    },
    {
      "midi": 65,
      "hit": false,
      "t": 108980.35399999963,
      "d": 91.88899999999558,
      "v": 64
    },
    {
      "midi": 46,
      "hit": false,
      "t": 108980.35400000004,
      "d": 137.83349999999336,
      "v": 57
    },
    {
      "midi": 77,
      "hit": false,
      "t": 109072.24299999962,
      "d": 91.88899999999558,
      "v": 58
    },
    {
      "midi": 55,
      "hit": false,
      "t": 109164.13199999962,
      "d": 91.88899999999558,
      "v": 78
    },
    {
      "midi": 39,
      "hit": false,
      "t": 109164.13200000003,
      "d": 91.88899999999558,
      "v": 73
    },
    {
      "midi": 63,
      "hit": false,
      "t": 109256.02099999962,
      "d": 91.88899999999558,
      "v": 64
    },
    {
      "midi": 58,
      "hit": false,
      "t": 109347.90999999961,
      "d": 91.88899999999558,
      "v": 72
    },
    {
      "midi": 51,
      "hit": false,
      "t": 109347.91000000002,
      "d": 91.88899999999558,
      "v": 49
    },
    {
      "midi": 55,
      "hit": false,
      "t": 109347.91000000002,
      "d": 91.88899999999558,
      "v": 62
    },
    {
      "midi": 67,
      "hit": false,
      "t": 109439.7989999996,
      "d": 91.88899999999558,
      "v": 64
    },
    {
      "midi": 63,
      "hit": false,
      "t": 109531.6879999996,
      "d": 91.88899999999558,
      "v": 74
    },
    {
      "midi": 51,
      "hit": false,
      "t": 109531.68800000001,
      "d": 91.88899999999558,
      "v": 49
    },
    {
      "midi": 55,
      "hit": false,
      "t": 109531.68800000001,
      "d": 91.88899999999558,
      "v": 49
    },
    {
      "midi": 58,
      "hit": false,
      "t": 109531.68800000001,
      "d": 91.88899999999558,
      "v": 62
    },
    {
      "midi": 70,
      "hit": false,
      "t": 109623.5769999996,
      "d": 91.88899999999558,
      "v": 64
    },
    {
      "midi": 67,
      "hit": false,
      "t": 109715.4659999996,
      "d": 91.88899999999558,
      "v": 79
    },
    {
      "midi": 51,
      "hit": false,
      "t": 109715.466,
      "d": 91.88899999999558,
      "v": 49
    },
    {
      "midi": 55,
      "hit": false,
      "t": 109715.466,
      "d": 91.88899999999558,
      "v": 49
    },
    {
      "midi": 58,
      "hit": false,
      "t": 109715.466,
      "d": 91.88899999999558,
      "v": 49
    },
    {
      "midi": 63,
      "hit": false,
      "t": 109715.466,
      "d": 91.88899999999558,
      "v": 62
    },
    {
      "midi": 75,
      "hit": false,
      "t": 109807.35499999959,
      "d": 91.88899999999558,
      "v": 64
    },
    {
      "midi": 70,
      "hit": false,
      "t": 109899.24399999958,
      "d": 91.88899999999558,
      "v": 70
    },
    {
      "midi": 51,
      "hit": false,
      "t": 109899.24399999999,
      "d": 91.88899999999558,
      "v": 49
    },
    {
      "midi": 55,
      "hit": false,
      "t": 109899.24399999999,
      "d": 91.88899999999558,
      "v": 49
    },
    {
      "midi": 58,
      "hit": false,
      "t": 109899.24399999999,
      "d": 91.88899999999558,
      "v": 49
    },
    {
      "midi": 63,
      "hit": false,
      "t": 109899.24399999999,
      "d": 91.88899999999558,
      "v": 62
    },
    {
      "midi": 79,
      "hit": false,
      "t": 109991.13299999958,
      "d": 91.88899999999558,
      "v": 64
    },
    {
      "midi": 75,
      "hit": false,
      "t": 110083.02199999958,
      "d": 91.88899999999558,
      "v": 71
    },
    {
      "midi": 51,
      "hit": false,
      "t": 110083.02199999998,
      "d": 91.88899999999558,
      "v": 49
    },
    {
      "midi": 55,
      "hit": false,
      "t": 110083.02199999998,
      "d": 91.88899999999558,
      "v": 49
    },
    {
      "midi": 58,
      "hit": false,
      "t": 110083.02199999998,
      "d": 91.88899999999558,
      "v": 49
    },
    {
      "midi": 63,
      "hit": false,
      "t": 110083.02199999998,
      "d": 91.88899999999558,
      "v": 62
    },
    {
      "midi": 82,
      "hit": false,
      "t": 110174.91099999957,
      "d": 91.88899999999558,
      "v": 64
    },
    {
      "midi": 79,
      "hit": false,
      "t": 110266.79999999957,
      "d": 91.88899999999558,
      "v": 79
    },
    {
      "midi": 51,
      "hit": false,
      "t": 110266.79999999997,
      "d": 91.88899999999558,
      "v": 56
    },
    {
      "midi": 55,
      "hit": false,
      "t": 110266.79999999997,
      "d": 91.88899999999558,
      "v": 56
    },
    {
      "midi": 58,
      "hit": false,
      "t": 110266.79999999997,
      "d": 91.88899999999558,
      "v": 56
    },
    {
      "midi": 63,
      "hit": false,
      "t": 110266.79999999997,
      "d": 91.88899999999558,
      "v": 70
    },
    {
      "midi": 87,
      "hit": false,
      "t": 110358.68899999956,
      "d": 91.88899999999558,
      "v": 64
    },
    {
      "midi": 82,
      "hit": false,
      "t": 110450.57799999956,
      "d": 91.88899999999558,
      "v": 70
    },
    {
      "midi": 51,
      "hit": false,
      "t": 110450.57799999996,
      "d": 91.88899999999558,
      "v": 49
    },
    {
      "midi": 55,
      "hit": false,
      "t": 110450.57799999996,
      "d": 91.88899999999558,
      "v": 49
    },
    {
      "midi": 58,
      "hit": false,
      "t": 110450.57799999996,
      "d": 91.88899999999558,
      "v": 49
    },
    {
      "midi": 63,
      "hit": false,
      "t": 110450.57799999996,
      "d": 91.88899999999558,
      "v": 62
    },
    {
      "midi": 91,
      "hit": false,
      "t": 110542.46699999955,
      "d": 91.88899999999558,
      "v": 61
    },
    {
      "midi": 87,
      "hit": false,
      "t": 110634.35599999955,
      "d": 91.88899999999558,
      "v": 69
    },
    {
      "midi": 51,
      "hit": false,
      "t": 110634.35599999996,
      "d": 91.88899999999558,
      "v": 49
    },
    {
      "midi": 55,
      "hit": false,
      "t": 110634.35599999996,
      "d": 91.88899999999558,
      "v": 49
    },
    {
      "midi": 58,
      "hit": false,
      "t": 110634.35599999996,
      "d": 91.88899999999558,
      "v": 49
    },
    {
      "midi": 63,
      "hit": false,
      "t": 110634.35599999996,
      "d": 91.88899999999558,
      "v": 62
    },
    {
      "midi": 94,
      "hit": false,
      "t": 110726.24499999954,
      "d": 91.88899999999558,
      "v": 62
    },
    {
      "midi": 93,
      "hit": false,
      "t": 110818.13399999954,
      "d": 91.88899999999558,
      "v": 73
    },
    {
      "midi": 51,
      "hit": false,
      "t": 110818.13399999995,
      "d": 91.88899999999558,
      "v": 49
    },
    {
      "midi": 53,
      "hit": false,
      "t": 110818.13399999995,
      "d": 91.88899999999558,
      "v": 49
    },
    {
      "midi": 56,
      "hit": false,
      "t": 110818.13399999995,
      "d": 91.88899999999558,
      "v": 49
    },
    {
      "midi": 58,
      "hit": false,
      "t": 110818.13399999995,
      "d": 91.88899999999558,
      "v": 49
    },
    {
      "midi": 62,
      "hit": false,
      "t": 110818.13399999995,
      "d": 91.88899999999558,
      "v": 62
    },
    {
      "midi": 94,
      "hit": false,
      "t": 110910.02299999954,
      "d": 91.88899999999558,
      "v": 66
    },
    {
      "midi": 93,
      "hit": false,
      "t": 111001.91199999953,
      "d": 91.88899999999558,
      "v": 70
    },
    {
      "midi": 51,
      "hit": false,
      "t": 111001.91199999994,
      "d": 91.88899999999558,
      "v": 49
    },
    {
      "midi": 53,
      "hit": false,
      "t": 111001.91199999994,
      "d": 91.88899999999558,
      "v": 49
    },
    {
      "midi": 56,
      "hit": false,
      "t": 111001.91199999994,
      "d": 91.88899999999558,
      "v": 49
    },
    {
      "midi": 58,
      "hit": false,
      "t": 111001.91199999994,
      "d": 91.88899999999558,
      "v": 49
    },
    {
      "midi": 62,
      "hit": false,
      "t": 111001.91199999994,
      "d": 91.88899999999558,
      "v": 62
    },
    {
      "midi": 94,
      "hit": false,
      "t": 111093.80099999953,
      "d": 91.88899999999558,
      "v": 64
    },
    {
      "midi": 93,
      "hit": false,
      "t": 111185.68999999952,
      "d": 91.88899999999558,
      "v": 69
    },
    {
      "midi": 51,
      "hit": false,
      "t": 111185.68999999993,
      "d": 91.88899999999558,
      "v": 49
    },
    {
      "midi": 53,
      "hit": false,
      "t": 111185.68999999993,
      "d": 91.88899999999558,
      "v": 49
    },
    {
      "midi": 56,
      "hit": false,
      "t": 111185.68999999993,
      "d": 91.88899999999558,
      "v": 49
    },
    {
      "midi": 58,
      "hit": false,
      "t": 111185.68999999993,
      "d": 91.88899999999558,
      "v": 49
    },
    {
      "midi": 62,
      "hit": false,
      "t": 111185.68999999993,
      "d": 91.88899999999558,
      "v": 62
    },
    {
      "midi": 94,
      "hit": false,
      "t": 111277.57899999952,
      "d": 91.88899999999558,
      "v": 64
    },
    {
      "midi": 96,
      "hit": false,
      "t": 111369.46799999951,
      "d": 91.88899999999558,
      "v": 77
    },
    {
      "midi": 51,
      "hit": false,
      "t": 111369.46799999992,
      "d": 91.88899999999558,
      "v": 57
    },
    {
      "midi": 55,
      "hit": false,
      "t": 111369.46799999992,
      "d": 91.88899999999558,
      "v": 57
    },
    {
      "midi": 58,
      "hit": false,
      "t": 111369.46799999992,
      "d": 91.88899999999558,
      "v": 57
    },
    {
      "midi": 63,
      "hit": false,
      "t": 111369.46799999992,
      "d": 91.88899999999558,
      "v": 72
    },
    {
      "midi": 94,
      "hit": false,
      "t": 111461.35699999951,
      "d": 91.88899999999558,
      "v": 77
    },
    {
      "midi": 92,
      "hit": false,
      "t": 111553.2459999995,
      "d": 91.88899999999558,
      "v": 76
    },
    {
      "midi": 51,
      "hit": false,
      "t": 111553.24599999991,
      "d": 91.88899999999558,
      "v": 49
    },
    {
      "midi": 55,
      "hit": false,
      "t": 111553.24599999991,
      "d": 91.88899999999558,
      "v": 49
    },
    {
      "midi": 58,
      "hit": false,
      "t": 111553.24599999991,
      "d": 91.88899999999558,
      "v": 49
    },
    {
      "midi": 63,
      "hit": false,
      "t": 111553.24599999991,
      "d": 91.88899999999558,
      "v": 62
    },
    {
      "midi": 91,
      "hit": false,
      "t": 111645.1349999995,
      "d": 91.88899999999558,
      "v": 75
    },
    {
      "midi": 89,
      "hit": false,
      "t": 111737.0239999995,
      "d": 91.88899999999558,
      "v": 74
    },
    {
      "midi": 51,
      "hit": false,
      "t": 111737.0239999999,
      "d": 91.88899999999558,
      "v": 49
    },
    {
      "midi": 55,
      "hit": false,
      "t": 111737.0239999999,
      "d": 91.88899999999558,
      "v": 49
    },
    {
      "midi": 58,
      "hit": false,
      "t": 111737.0239999999,
      "d": 91.88899999999558,
      "v": 49
    },
    {
      "midi": 63,
      "hit": false,
      "t": 111737.0239999999,
      "d": 91.88899999999558,
      "v": 62
    },
    {
      "midi": 87,
      "hit": false,
      "t": 111828.91299999949,
      "d": 91.88899999999558,
      "v": 74
    },
    {
      "midi": 86,
      "hit": false,
      "t": 111920.80199999949,
      "d": 91.88899999999558,
      "v": 72
    },
    {
      "midi": 51,
      "hit": false,
      "t": 111920.8019999999,
      "d": 91.88899999999558,
      "v": 49
    },
    {
      "midi": 55,
      "hit": false,
      "t": 111920.8019999999,
      "d": 91.88899999999558,
      "v": 49
    },
    {
      "midi": 58,
      "hit": false,
      "t": 111920.8019999999,
      "d": 91.88899999999558,
      "v": 49
    },
    {
      "midi": 63,
      "hit": false,
      "t": 111920.8019999999,
      "d": 91.88899999999558,
      "v": 62
    },
    {
      "midi": 84,
      "hit": false,
      "t": 112012.69099999948,
      "d": 91.88899999999558,
      "v": 65
    },
    {
      "midi": 82,
      "hit": false,
      "t": 112104.57999999948,
      "d": 91.88899999999558,
      "v": 65
    },
    {
      "midi": 51,
      "hit": false,
      "t": 112104.57999999989,
      "d": 91.88899999999558,
      "v": 49
    },
    {
      "midi": 55,
      "hit": false,
      "t": 112104.57999999989,
      "d": 91.88899999999558,
      "v": 49
    },
    {
      "midi": 58,
      "hit": false,
      "t": 112104.57999999989,
      "d": 91.88899999999558,
      "v": 49
    },
    {
      "midi": 63,
      "hit": false,
      "t": 112104.57999999989,
      "d": 91.88899999999558,
      "v": 62
    },
    {
      "midi": 80,
      "hit": false,
      "t": 112196.46899999947,
      "d": 91.88899999999558,
      "v": 65
    },
    {
      "midi": 79,
      "hit": false,
      "t": 112288.35799999947,
      "d": 91.88899999999558,
      "v": 65
    },
    {
      "midi": 51,
      "hit": false,
      "t": 112288.35799999988,
      "d": 91.88899999999558,
      "v": 49
    },
    {
      "midi": 55,
      "hit": false,
      "t": 112288.35799999988,
      "d": 91.88899999999558,
      "v": 49
    },
    {
      "midi": 58,
      "hit": false,
      "t": 112288.35799999988,
      "d": 91.88899999999558,
      "v": 49
    },
    {
      "midi": 63,
      "hit": false,
      "t": 112288.35799999988,
      "d": 91.88899999999558,
      "v": 62
    },
    {
      "midi": 77,
      "hit": false,
      "t": 112380.24699999946,
      "d": 91.88899999999558,
      "v": 65
    },
    {
      "midi": 75,
      "hit": false,
      "t": 112472.13599999946,
      "d": 91.88899999999558,
      "v": 70
    },
    {
      "midi": 51,
      "hit": false,
      "t": 112472.13599999987,
      "d": 91.88899999999558,
      "v": 55
    },
    {
      "midi": 55,
      "hit": false,
      "t": 112472.13599999987,
      "d": 91.88899999999558,
      "v": 55
    },
    {
      "midi": 58,
      "hit": false,
      "t": 112472.13599999987,
      "d": 91.88899999999558,
      "v": 55
    },
    {
      "midi": 63,
      "hit": false,
      "t": 112472.13599999987,
      "d": 91.88899999999558,
      "v": 69
    },
    {
      "midi": 74,
      "hit": false,
      "t": 112564.02499999946,
      "d": 91.88899999999558,
      "v": 69
    },
    {
      "midi": 72,
      "hit": false,
      "t": 112655.91399999945,
      "d": 91.88899999999558,
      "v": 68
    },
    {
      "midi": 51,
      "hit": false,
      "t": 112655.91399999986,
      "d": 91.88899999999558,
      "v": 48
    },
    {
      "midi": 55,
      "hit": false,
      "t": 112655.91399999986,
      "d": 91.88899999999558,
      "v": 48
    },
    {
      "midi": 58,
      "hit": false,
      "t": 112655.91399999986,
      "d": 91.88899999999558,
      "v": 48
    },
    {
      "midi": 63,
      "hit": false,
      "t": 112655.91399999986,
      "d": 91.88899999999558,
      "v": 61
    },
    {
      "midi": 70,
      "hit": false,
      "t": 112747.80299999945,
      "d": 91.88899999999558,
      "v": 68
    },
    {
      "midi": 68,
      "hit": false,
      "t": 112839.69199999944,
      "d": 91.88899999999558,
      "v": 67
    },
    {
      "midi": 51,
      "hit": false,
      "t": 112839.69199999985,
      "d": 91.88899999999558,
      "v": 48
    },
    {
      "midi": 55,
      "hit": false,
      "t": 112839.69199999985,
      "d": 91.88899999999558,
      "v": 48
    },
    {
      "midi": 58,
      "hit": false,
      "t": 112839.69199999985,
      "d": 91.88899999999558,
      "v": 48
    },
    {
      "midi": 63,
      "hit": false,
      "t": 112839.69199999985,
      "d": 91.88899999999558,
      "v": 61
    },
    {
      "midi": 67,
      "hit": false,
      "t": 112931.58099999944,
      "d": 91.88899999999558,
      "v": 66
    },
    {
      "midi": 65,
      "hit": false,
      "t": 113023.46999999943,
      "d": 91.88899999999558,
      "v": 64
    },
    {
      "midi": 51,
      "hit": false,
      "t": 113023.46999999984,
      "d": 91.88899999999558,
      "v": 48
    },
    {
      "midi": 53,
      "hit": false,
      "t": 113023.46999999984,
      "d": 91.88899999999558,
      "v": 48
    },
    {
      "midi": 56,
      "hit": false,
      "t": 113023.46999999984,
      "d": 91.88899999999558,
      "v": 48
    },
    {
      "midi": 58,
      "hit": false,
      "t": 113023.46999999984,
      "d": 91.88899999999558,
      "v": 61
    },
    {
      "midi": 63,
      "hit": false,
      "t": 113115.35899999943,
      "d": 91.88899999999558,
      "v": 59
    },
    {
      "midi": 62,
      "hit": false,
      "t": 113207.24799999942,
      "d": 91.88899999999558,
      "v": 64
    },
    {
      "midi": 51,
      "hit": false,
      "t": 113207.24799999983,
      "d": 91.88899999999558,
      "v": 48
    },
    {
      "midi": 53,
      "hit": false,
      "t": 113207.24799999983,
      "d": 91.88899999999558,
      "v": 48
    },
    {
      "midi": 56,
      "hit": false,
      "t": 113207.24799999983,
      "d": 91.88899999999558,
      "v": 48
    },
    {
      "midi": 58,
      "hit": false,
      "t": 113207.24799999983,
      "d": 91.88899999999558,
      "v": 61
    },
    {
      "midi": 65,
      "hit": false,
      "t": 113299.13699999942,
      "d": 91.88899999999558,
      "v": 60
    },
    {
      "midi": 68,
      "hit": false,
      "t": 113391.02599999942,
      "d": 91.88899999999558,
      "v": 69
    },
    {
      "midi": 51,
      "hit": false,
      "t": 113391.02599999982,
      "d": 91.88899999999558,
      "v": 48
    },
    {
      "midi": 53,
      "hit": false,
      "t": 113391.02599999982,
      "d": 91.88899999999558,
      "v": 48
    },
    {
      "midi": 56,
      "hit": false,
      "t": 113391.02599999982,
      "d": 91.88899999999558,
      "v": 48
    },
    {
      "midi": 58,
      "hit": false,
      "t": 113391.02599999982,
      "d": 91.88899999999558,
      "v": 61
    },
    {
      "midi": 62,
      "hit": false,
      "t": 113482.91499999941,
      "d": 91.88899999999558,
      "v": 63
    },
    {
      "midi": 55,
      "hit": false,
      "t": 113574.8039999994,
      "d": 91.88899999999558,
      "v": 78
    },
    {
      "midi": 39,
      "hit": false,
      "t": 113574.80399999981,
      "d": 91.88899999999558,
      "v": 73
    },
    {
      "midi": 63,
      "hit": false,
      "t": 113666.6929999994,
      "d": 91.88899999999558,
      "v": 64
    },
    {
      "midi": 58,
      "hit": false,
      "t": 113758.5819999994,
      "d": 91.88899999999558,
      "v": 72
    },
    {
      "midi": 51,
      "hit": false,
      "t": 113758.5819999998,
      "d": 91.88899999999558,
      "v": 49
    },
    {
      "midi": 55,
      "hit": false,
      "t": 113758.5819999998,
      "d": 91.88899999999558,
      "v": 62
    },
    {
      "midi": 67,
      "hit": false,
      "t": 113850.4709999994,
      "d": 91.88899999999558,
      "v": 64
    },
    {
      "midi": 63,
      "hit": false,
      "t": 113942.35999999939,
      "d": 91.88899999999558,
      "v": 74
    },
    {
      "midi": 51,
      "hit": false,
      "t": 113942.3599999998,
      "d": 91.88899999999558,
      "v": 49
    },
    {
      "midi": 55,
      "hit": false,
      "t": 113942.3599999998,
      "d": 91.88899999999558,
      "v": 49
    },
    {
      "midi": 58,
      "hit": false,
      "t": 113942.3599999998,
      "d": 91.88899999999558,
      "v": 62
    },
    {
      "midi": 70,
      "hit": false,
      "t": 114034.24899999938,
      "d": 91.88899999999558,
      "v": 64
    },
    {
      "midi": 67,
      "hit": false,
      "t": 114126.13799999938,
      "d": 91.88899999999558,
      "v": 79
    },
    {
      "midi": 51,
      "hit": false,
      "t": 114126.13799999979,
      "d": 91.88899999999558,
      "v": 49
    },
    {
      "midi": 55,
      "hit": false,
      "t": 114126.13799999979,
      "d": 91.88899999999558,
      "v": 49
    },
    {
      "midi": 58,
      "hit": false,
      "t": 114126.13799999979,
      "d": 91.88899999999558,
      "v": 49
    },
    {
      "midi": 63,
      "hit": false,
      "t": 114126.13799999979,
      "d": 91.88899999999558,
      "v": 62
    },
    {
      "midi": 75,
      "hit": false,
      "t": 114218.02699999938,
      "d": 91.88899999999558,
      "v": 64
    },
    {
      "midi": 70,
      "hit": false,
      "t": 114309.91599999937,
      "d": 91.88899999999558,
      "v": 70
    },
    {
      "midi": 51,
      "hit": false,
      "t": 114309.91599999978,
      "d": 91.88899999999558,
      "v": 49
    },
    {
      "midi": 55,
      "hit": false,
      "t": 114309.91599999978,
      "d": 91.88899999999558,
      "v": 49
    },
    {
      "midi": 58,
      "hit": false,
      "t": 114309.91599999978,
      "d": 91.88899999999558,
      "v": 49
    },
    {
      "midi": 63,
      "hit": false,
      "t": 114309.91599999978,
      "d": 91.88899999999558,
      "v": 62
    },
    {
      "midi": 79,
      "hit": false,
      "t": 114401.80499999937,
      "d": 91.88899999999558,
      "v": 64
    },
    {
      "midi": 75,
      "hit": false,
      "t": 114493.69399999936,
      "d": 91.88899999999558,
      "v": 71
    },
    {
      "midi": 51,
      "hit": false,
      "t": 114493.69399999977,
      "d": 91.88899999999558,
      "v": 49
    },
    {
      "midi": 55,
      "hit": false,
      "t": 114493.69399999977,
      "d": 91.88899999999558,
      "v": 49
    },
    {
      "midi": 58,
      "hit": false,
      "t": 114493.69399999977,
      "d": 91.88899999999558,
      "v": 49
    },
    {
      "midi": 63,
      "hit": false,
      "t": 114493.69399999977,
      "d": 91.88899999999558,
      "v": 62
    },
    {
      "midi": 82,
      "hit": false,
      "t": 114585.58299999936,
      "d": 91.88899999999558,
      "v": 64
    },
    {
      "midi": 79,
      "hit": false,
      "t": 114677.47199999935,
      "d": 91.88899999999558,
      "v": 79
    },
    {
      "midi": 51,
      "hit": false,
      "t": 114677.47199999976,
      "d": 91.88899999999558,
      "v": 56
    },
    {
      "midi": 55,
      "hit": false,
      "t": 114677.47199999976,
      "d": 91.88899999999558,
      "v": 56
    },
    {
      "midi": 58,
      "hit": false,
      "t": 114677.47199999976,
      "d": 91.88899999999558,
      "v": 56
    },
    {
      "midi": 63,
      "hit": false,
      "t": 114677.47199999976,
      "d": 91.88899999999558,
      "v": 70
    },
    {
      "midi": 87,
      "hit": false,
      "t": 114769.36099999935,
      "d": 91.88899999999558,
      "v": 64
    },
    {
      "midi": 82,
      "hit": false,
      "t": 114861.24999999935,
      "d": 91.88899999999558,
      "v": 70
    },
    {
      "midi": 51,
      "hit": false,
      "t": 114861.24999999975,
      "d": 91.88899999999558,
      "v": 49
    },
    {
      "midi": 55,
      "hit": false,
      "t": 114861.24999999975,
      "d": 91.88899999999558,
      "v": 49
    },
    {
      "midi": 58,
      "hit": false,
      "t": 114861.24999999975,
      "d": 91.88899999999558,
      "v": 49
    },
    {
      "midi": 63,
      "hit": false,
      "t": 114861.24999999975,
      "d": 91.88899999999558,
      "v": 62
    },
    {
      "midi": 91,
      "hit": false,
      "t": 114953.13899999934,
      "d": 91.88899999999558,
      "v": 61
    },
    {
      "midi": 87,
      "hit": false,
      "t": 115045.02799999934,
      "d": 91.88899999999558,
      "v": 69
    },
    {
      "midi": 51,
      "hit": false,
      "t": 115045.02799999974,
      "d": 91.88899999999558,
      "v": 49
    },
    {
      "midi": 55,
      "hit": false,
      "t": 115045.02799999974,
      "d": 91.88899999999558,
      "v": 49
    },
    {
      "midi": 58,
      "hit": false,
      "t": 115045.02799999974,
      "d": 91.88899999999558,
      "v": 49
    },
    {
      "midi": 63,
      "hit": false,
      "t": 115045.02799999974,
      "d": 91.88899999999558,
      "v": 62
    },
    {
      "midi": 94,
      "hit": false,
      "t": 115136.91699999933,
      "d": 91.88899999999558,
      "v": 62
    },
    {
      "midi": 93,
      "hit": false,
      "t": 115228.80599999933,
      "d": 91.88899999999558,
      "v": 73
    },
    {
      "midi": 51,
      "hit": false,
      "t": 115228.80599999973,
      "d": 91.88899999999558,
      "v": 49
    },
    {
      "midi": 53,
      "hit": false,
      "t": 115228.80599999973,
      "d": 91.88899999999558,
      "v": 49
    },
    {
      "midi": 56,
      "hit": false,
      "t": 115228.80599999973,
      "d": 91.88899999999558,
      "v": 49
    },
    {
      "midi": 58,
      "hit": false,
      "t": 115228.80599999973,
      "d": 91.88899999999558,
      "v": 49
    },
    {
      "midi": 62,
      "hit": false,
      "t": 115228.80599999973,
      "d": 91.88899999999558,
      "v": 62
    },
    {
      "midi": 94,
      "hit": false,
      "t": 115320.69499999932,
      "d": 91.88899999999558,
      "v": 66
    },
    {
      "midi": 93,
      "hit": false,
      "t": 115412.58399999932,
      "d": 91.88899999999558,
      "v": 70
    },
    {
      "midi": 51,
      "hit": false,
      "t": 115412.58399999973,
      "d": 91.88899999999558,
      "v": 49
    },
    {
      "midi": 53,
      "hit": false,
      "t": 115412.58399999973,
      "d": 91.88899999999558,
      "v": 49
    },
    {
      "midi": 56,
      "hit": false,
      "t": 115412.58399999973,
      "d": 91.88899999999558,
      "v": 49
    },
    {
      "midi": 58,
      "hit": false,
      "t": 115412.58399999973,
      "d": 91.88899999999558,
      "v": 49
    },
    {
      "midi": 62,
      "hit": false,
      "t": 115412.58399999973,
      "d": 91.88899999999558,
      "v": 62
    },
    {
      "midi": 94,
      "hit": false,
      "t": 115504.47299999931,
      "d": 91.88899999999558,
      "v": 64
    },
    {
      "midi": 93,
      "hit": false,
      "t": 115596.36199999931,
      "d": 91.88899999999558,
      "v": 69
    },
    {
      "midi": 51,
      "hit": false,
      "t": 115596.36199999972,
      "d": 91.88899999999558,
      "v": 49
    },
    {
      "midi": 53,
      "hit": false,
      "t": 115596.36199999972,
      "d": 91.88899999999558,
      "v": 49
    },
    {
      "midi": 56,
      "hit": false,
      "t": 115596.36199999972,
      "d": 91.88899999999558,
      "v": 49
    },
    {
      "midi": 58,
      "hit": false,
      "t": 115596.36199999972,
      "d": 91.88899999999558,
      "v": 49
    },
    {
      "midi": 62,
      "hit": false,
      "t": 115596.36199999972,
      "d": 91.88899999999558,
      "v": 62
    },
    {
      "midi": 94,
      "hit": false,
      "t": 115688.2509999993,
      "d": 91.88899999999558,
      "v": 64
    },
    {
      "midi": 96,
      "hit": false,
      "t": 115780.1399999993,
      "d": 91.88899999999558,
      "v": 77
    },
    {
      "midi": 51,
      "hit": false,
      "t": 115780.13999999971,
      "d": 91.88899999999558,
      "v": 57
    },
    {
      "midi": 55,
      "hit": false,
      "t": 115780.13999999971,
      "d": 91.88899999999558,
      "v": 57
    },
    {
      "midi": 58,
      "hit": false,
      "t": 115780.13999999971,
      "d": 91.88899999999558,
      "v": 57
    },
    {
      "midi": 63,
      "hit": false,
      "t": 115780.13999999971,
      "d": 91.88899999999558,
      "v": 72
    },
    {
      "midi": 94,
      "hit": false,
      "t": 115872.0289999993,
      "d": 91.88899999999558,
      "v": 77
    },
    {
      "midi": 92,
      "hit": false,
      "t": 115963.91799999929,
      "d": 91.88899999999558,
      "v": 76
    },
    {
      "midi": 51,
      "hit": false,
      "t": 115963.9179999997,
      "d": 91.88899999999558,
      "v": 49
    },
    {
      "midi": 55,
      "hit": false,
      "t": 115963.9179999997,
      "d": 91.88899999999558,
      "v": 49
    },
    {
      "midi": 58,
      "hit": false,
      "t": 115963.9179999997,
      "d": 91.88899999999558,
      "v": 49
    },
    {
      "midi": 63,
      "hit": false,
      "t": 115963.9179999997,
      "d": 91.88899999999558,
      "v": 62
    },
    {
      "midi": 91,
      "hit": false,
      "t": 116055.80699999929,
      "d": 91.88899999999558,
      "v": 75
    },
    {
      "midi": 89,
      "hit": false,
      "t": 116147.69599999928,
      "d": 91.88899999999558,
      "v": 74
    },
    {
      "midi": 51,
      "hit": false,
      "t": 116147.69599999969,
      "d": 91.88899999999558,
      "v": 49
    },
    {
      "midi": 55,
      "hit": false,
      "t": 116147.69599999969,
      "d": 91.88899999999558,
      "v": 49
    },
    {
      "midi": 58,
      "hit": false,
      "t": 116147.69599999969,
      "d": 91.88899999999558,
      "v": 49
    },
    {
      "midi": 63,
      "hit": false,
      "t": 116147.69599999969,
      "d": 91.88899999999558,
      "v": 62
    },
    {
      "midi": 87,
      "hit": false,
      "t": 116239.58499999928,
      "d": 91.88899999999558,
      "v": 74
    },
    {
      "midi": 86,
      "hit": false,
      "t": 116331.47399999927,
      "d": 91.88899999999558,
      "v": 72
    },
    {
      "midi": 51,
      "hit": false,
      "t": 116331.47399999968,
      "d": 91.88899999999558,
      "v": 49
    },
    {
      "midi": 55,
      "hit": false,
      "t": 116331.47399999968,
      "d": 91.88899999999558,
      "v": 49
    },
    {
      "midi": 58,
      "hit": false,
      "t": 116331.47399999968,
      "d": 91.88899999999558,
      "v": 49
    },
    {
      "midi": 63,
      "hit": false,
      "t": 116331.47399999968,
      "d": 91.88899999999558,
      "v": 62
    },
    {
      "midi": 84,
      "hit": false,
      "t": 116423.36299999927,
      "d": 91.88899999999558,
      "v": 65
    },
    {
      "midi": 82,
      "hit": false,
      "t": 116515.25199999927,
      "d": 91.88899999999558,
      "v": 65
    },
    {
      "midi": 51,
      "hit": false,
      "t": 116515.25199999967,
      "d": 91.88899999999558,
      "v": 49
    },
    {
      "midi": 55,
      "hit": false,
      "t": 116515.25199999967,
      "d": 91.88899999999558,
      "v": 49
    },
    {
      "midi": 58,
      "hit": false,
      "t": 116515.25199999967,
      "d": 91.88899999999558,
      "v": 49
    },
    {
      "midi": 63,
      "hit": false,
      "t": 116515.25199999967,
      "d": 91.88899999999558,
      "v": 62
    },
    {
      "midi": 80,
      "hit": false,
      "t": 116607.14099999926,
      "d": 91.88899999999558,
      "v": 65
    },
    {
      "midi": 79,
      "hit": false,
      "t": 116699.02999999926,
      "d": 91.88899999999558,
      "v": 65
    },
    {
      "midi": 51,
      "hit": false,
      "t": 116699.02999999966,
      "d": 91.88899999999558,
      "v": 49
    },
    {
      "midi": 55,
      "hit": false,
      "t": 116699.02999999966,
      "d": 91.88899999999558,
      "v": 49
    },
    {
      "midi": 58,
      "hit": false,
      "t": 116699.02999999966,
      "d": 91.88899999999558,
      "v": 49
    },
    {
      "midi": 63,
      "hit": false,
      "t": 116699.02999999966,
      "d": 91.88899999999558,
      "v": 62
    },
    {
      "midi": 77,
      "hit": false,
      "t": 116790.91899999925,
      "d": 91.88899999999558,
      "v": 65
    },
    {
      "midi": 75,
      "hit": false,
      "t": 116882.80799999925,
      "d": 62.02507499999774,
      "v": 70
    },
    {
      "midi": 51,
      "hit": false,
      "t": 116882.80799999966,
      "d": 91.88899999999558,
      "v": 55
    },
    {
      "midi": 55,
      "hit": false,
      "t": 116882.80799999966,
      "d": 91.88899999999558,
      "v": 55
    },
    {
      "midi": 58,
      "hit": false,
      "t": 116882.80799999966,
      "d": 91.88899999999558,
      "v": 69
    },
    {
      "midi": 74,
      "hit": false,
      "t": 116944.83307499925,
      "d": 61.259333333335235,
      "v": 69
    },
    {
      "midi": 72,
      "hit": false,
      "t": 117005.32666666592,
      "d": 61.259333333335235,
      "v": 68
    },
    {
      "midi": 70,
      "hit": false,
      "t": 117066.58599999925,
      "d": 61.259333333335235,
      "v": 68
    },
    {
      "midi": 51,
      "hit": false,
      "t": 117066.58599999965,
      "d": 91.88899999999558,
      "v": 48
    },
    {
      "midi": 55,
      "hit": false,
      "t": 117066.58599999965,
      "d": 91.88899999999558,
      "v": 48
    },
    {
      "midi": 58,
      "hit": false,
      "t": 117066.58599999965,
      "d": 91.88899999999558,
      "v": 61
    },
    {
      "midi": 68,
      "hit": false,
      "t": 117127.84533333259,
      "d": 61.259333333335235,
      "v": 67
    },
    {
      "midi": 67,
      "hit": false,
      "t": 117189.10466666592,
      "d": 61.259333333335235,
      "v": 66
    },
    {
      "midi": 65,
      "hit": false,
      "t": 117250.36399999926,
      "d": 61.259333333335235,
      "v": 64
    },
    {
      "midi": 51,
      "hit": false,
      "t": 117250.36399999964,
      "d": 91.88899999999558,
      "v": 48
    },
    {
      "midi": 55,
      "hit": false,
      "t": 117250.36399999964,
      "d": 91.88899999999558,
      "v": 48
    },
    {
      "midi": 58,
      "hit": false,
      "t": 117250.36399999964,
      "d": 91.88899999999558,
      "v": 61
    },
    {
      "midi": 63,
      "hit": false,
      "t": 117311.6233333326,
      "d": 61.259333333335235,
      "v": 59
    },
    {
      "midi": 62,
      "hit": false,
      "t": 117372.88266666593,
      "d": 61.259333333335235,
      "v": 55
    },
    {
      "midi": 60,
      "hit": false,
      "t": 117434.14199999926,
      "d": 91.88899999999558,
      "v": 62
    },
    {
      "midi": 51,
      "hit": false,
      "t": 117434.14199999963,
      "d": 91.88899999999558,
      "v": 48
    },
    {
      "midi": 53,
      "hit": false,
      "t": 117434.14199999963,
      "d": 91.88899999999558,
      "v": 61
    },
    {
      "midi": 58,
      "hit": false,
      "t": 117526.03099999926,
      "d": 91.88899999999558,
      "v": 54
    },
    {
      "midi": 57,
      "hit": false,
      "t": 117617.91999999926,
      "d": 91.88899999999558,
      "v": 60
    },
    {
      "midi": 41,
      "hit": false,
      "t": 117617.91999999962,
      "d": 91.88899999999558,
      "v": 48
    },
    {
      "midi": 51,
      "hit": false,
      "t": 117617.91999999962,
      "d": 91.88899999999558,
      "v": 48
    },
    {
      "midi": 53,
      "hit": false,
      "t": 117617.91999999962,
      "d": 91.88899999999558,
      "v": 61
    },
    {
      "midi": 60,
      "hit": false,
      "t": 117709.80899999925,
      "d": 91.88899999999558,
      "v": 54
    },
    {
      "midi": 63,
      "hit": false,
      "t": 117801.69799999925,
      "d": 91.88899999999558,
      "v": 64
    },
    {
      "midi": 41,
      "hit": false,
      "t": 117801.69799999961,
      "d": 91.88899999999558,
      "v": 48
    },
    {
      "midi": 51,
      "hit": false,
      "t": 117801.69799999961,
      "d": 91.88899999999558,
      "v": 48
    },
    {
      "midi": 53,
      "hit": false,
      "t": 117801.69799999961,
      "d": 91.88899999999558,
      "v": 61
    },
    {
      "midi": 57,
      "hit": false,
      "t": 117893.58699999924,
      "d": 91.88899999999558,
      "v": 54
    },
    {
      "midi": 58,
      "hit": false,
      "t": 117985.47599999924,
      "d": 183.7780000000057,
      "v": 95
    },
    {
      "midi": 34,
      "hit": false,
      "t": 117985.4759999996,
      "d": 183.7780000000057,
      "v": 80
    },
    {
      "midi": 46,
      "hit": false,
      "t": 117985.4759999996,
      "d": 183.7780000000057,
      "v": 80
    },
    {
      "midi": 70,
      "hit": false,
      "t": 118536.80999999924,
      "d": 183.7780000000057,
      "v": 89
    },
    {
      "midi": 58,
      "hit": false,
      "t": 118536.8099999996,
      "d": 183.7780000000057,
      "v": 75
    },
    {
      "midi": 73,
      "hit": false,
      "t": 119088.14399999924,
      "d": 183.7780000000057,
      "v": 96
    },
    {
      "midi": 61,
      "hit": false,
      "t": 119088.14399999961,
      "d": 183.7780000000057,
      "v": 81
    },
    {
      "midi": 78,
      "hit": false,
      "t": 119639.47799999925,
      "d": 183.7780000000057,
      "v": 88
    },
    {
      "midi": 66,
      "hit": false,
      "t": 119639.47799999961,
      "d": 183.7780000000057,
      "v": 74
    },
    {
      "midi": 73,
      "hit": false,
      "t": 120190.81199999925,
      "d": 183.7780000000057,
      "v": 94
    },
    {
      "midi": 61,
      "hit": false,
      "t": 120190.81199999961,
      "d": 183.7780000000057,
      "v": 79
    },
    {
      "midi": 70,
      "hit": false,
      "t": 120742.14599999925,
      "d": 183.7780000000057,
      "v": 88
    },
    {
      "midi": 58,
      "hit": false,
      "t": 120742.14599999962,
      "d": 183.7780000000057,
      "v": 74
    },
    {
      "midi": 66,
      "hit": false,
      "t": 121293.47999999925,
      "d": 183.7780000000057,
      "v": 93
    },
    {
      "midi": 54,
      "hit": false,
      "t": 121293.47999999962,
      "d": 183.7780000000057,
      "v": 78
    },
    {
      "midi": 61,
      "hit": false,
      "t": 121844.81399999926,
      "d": 183.7780000000057,
      "v": 82
    },
    {
      "midi": 49,
      "hit": false,
      "t": 121844.81399999962,
      "d": 183.7780000000057,
      "v": 70
    },
    {
      "midi": 57,
      "hit": false,
      "t": 122396.14799999926,
      "d": 183.7780000000057,
      "v": 95
    },
    {
      "midi": 33,
      "hit": false,
      "t": 122396.14799999962,
      "d": 183.7780000000057,
      "v": 80
    },
    {
      "midi": 45,
      "hit": false,
      "t": 122396.14799999962,
      "d": 183.7780000000057,
      "v": 80
    },
    {
      "midi": 69,
      "hit": false,
      "t": 122947.48199999926,
      "d": 183.7780000000057,
      "v": 89
    },
    {
      "midi": 57,
      "hit": false,
      "t": 122947.48199999963,
      "d": 183.7780000000057,
      "v": 75
    },
    {
      "midi": 72,
      "hit": false,
      "t": 123498.81599999926,
      "d": 183.7780000000057,
      "v": 96
    },
    {
      "midi": 60,
      "hit": false,
      "t": 123498.81599999963,
      "d": 183.7780000000057,
      "v": 81
    },
    {
      "midi": 77,
      "hit": false,
      "t": 124050.14999999927,
      "d": 183.7780000000057,
      "v": 88
    },
    {
      "midi": 65,
      "hit": false,
      "t": 124050.14999999963,
      "d": 183.7780000000057,
      "v": 74
    },
    {
      "midi": 72,
      "hit": false,
      "t": 124601.48399999927,
      "d": 183.7780000000057,
      "v": 94
    },
    {
      "midi": 60,
      "hit": false,
      "t": 124601.48399999963,
      "d": 183.7780000000057,
      "v": 79
    },
    {
      "midi": 69,
      "hit": false,
      "t": 125152.81799999927,
      "d": 183.7780000000057,
      "v": 88
    },
    {
      "midi": 57,
      "hit": false,
      "t": 125152.81799999964,
      "d": 183.7780000000057,
      "v": 74
    },
    {
      "midi": 65,
      "hit": false,
      "t": 125704.15199999927,
      "d": 183.7780000000057,
      "v": 93
    },
    {
      "midi": 53,
      "hit": false,
      "t": 125704.15199999964,
      "d": 183.7780000000057,
      "v": 78
    },
    {
      "midi": 60,
      "hit": false,
      "t": 126255.48599999928,
      "d": 183.7780000000057,
      "v": 82
    },
    {
      "midi": 48,
      "hit": false,
      "t": 126255.48599999964,
      "d": 183.7780000000057,
      "v": 70
    },
    {
      "midi": 73,
      "hit": false,
      "t": 126806.81999999928,
      "d": 91.88899999999558,
      "v": 55
    },
    {
      "midi": 58,
      "hit": false,
      "t": 126806.81999999964,
      "d": 91.88899999999558,
      "v": 34
    },
    {
      "midi": 61,
      "hit": false,
      "t": 126806.81999999964,
      "d": 91.88899999999558,
      "v": 34
    },
    {
      "midi": 66,
      "hit": false,
      "t": 126806.81999999964,
      "d": 91.88899999999558,
      "v": 40
    },
    {
      "midi": 58,
      "hit": false,
      "t": 126990.59799999963,
      "d": 91.88899999999558,
      "v": 29
    },
    {
      "midi": 61,
      "hit": false,
      "t": 126990.59799999963,
      "d": 91.88899999999558,
      "v": 29
    },
    {
      "midi": 66,
      "hit": false,
      "t": 126990.59799999963,
      "d": 91.88899999999558,
      "v": 35
    },
    {
      "midi": 84,
      "hit": false,
      "t": 127128.43149999928,
      "d": 45.94449999999779,
      "v": 51
    },
    {
      "midi": 82,
      "hit": false,
      "t": 127174.37599999928,
      "d": 91.88899999999558,
      "v": 57
    },
    {
      "midi": 58,
      "hit": false,
      "t": 127174.37599999963,
      "d": 91.88899999999558,
      "v": 29
    },
    {
      "midi": 61,
      "hit": false,
      "t": 127174.37599999963,
      "d": 91.88899999999558,
      "v": 29
    },
    {
      "midi": 66,
      "hit": false,
      "t": 127174.37599999963,
      "d": 91.88899999999558,
      "v": 35
    },
    {
      "midi": 81,
      "hit": false,
      "t": 127266.26499999927,
      "d": 91.88899999999558,
      "v": 52
    },
    {
      "midi": 82,
      "hit": false,
      "t": 127358.15399999927,
      "d": 91.88899999999558,
      "v": 57
    },
    {
      "midi": 58,
      "hit": false,
      "t": 127358.15399999962,
      "d": 91.88899999999558,
      "v": 29
    },
    {
      "midi": 61,
      "hit": false,
      "t": 127358.15399999962,
      "d": 91.88899999999558,
      "v": 29
    },
    {
      "midi": 66,
      "hit": false,
      "t": 127358.15399999962,
      "d": 91.88899999999558,
      "v": 36
    },
    {
      "midi": 58,
      "hit": false,
      "t": 127541.93199999961,
      "d": 91.88899999999558,
      "v": 30
    },
    {
      "midi": 61,
      "hit": false,
      "t": 127541.93199999961,
      "d": 91.88899999999558,
      "v": 30
    },
    {
      "midi": 66,
      "hit": false,
      "t": 127541.93199999961,
      "d": 91.88899999999558,
      "v": 36
    },
    {
      "midi": 87,
      "hit": false,
      "t": 127679.76549999927,
      "d": 45.94449999999779,
      "v": 53
    },
    {
      "midi": 85,
      "hit": false,
      "t": 127725.70999999926,
      "d": 91.88899999999558,
      "v": 59
    },
    {
      "midi": 58,
      "hit": false,
      "t": 127725.7099999996,
      "d": 91.88899999999558,
      "v": 30
    },
    {
      "midi": 61,
      "hit": false,
      "t": 127725.7099999996,
      "d": 91.88899999999558,
      "v": 30
    },
    {
      "midi": 66,
      "hit": false,
      "t": 127725.7099999996,
      "d": 91.88899999999558,
      "v": 36
    },
    {
      "midi": 84,
      "hit": false,
      "t": 127817.59899999926,
      "d": 91.88899999999558,
      "v": 52
    },
    {
      "midi": 85,
      "hit": false,
      "t": 127909.48799999926,
      "d": 91.88899999999558,
      "v": 63
    },
    {
      "midi": 58,
      "hit": false,
      "t": 127909.48799999959,
      "d": 91.88899999999558,
      "v": 36
    },
    {
      "midi": 61,
      "hit": false,
      "t": 127909.48799999959,
      "d": 91.88899999999558,
      "v": 36
    },
    {
      "midi": 66,
      "hit": false,
      "t": 127909.48799999959,
      "d": 91.88899999999558,
      "v": 42
    },
    {
      "midi": 58,
      "hit": false,
      "t": 128093.26599999958,
      "d": 91.88899999999558,
      "v": 31
    },
    {
      "midi": 61,
      "hit": false,
      "t": 128093.26599999958,
      "d": 91.88899999999558,
      "v": 31
    },
    {
      "midi": 66,
      "hit": false,
      "t": 128093.26599999958,
      "d": 91.88899999999558,
      "v": 37
    },
    {
      "midi": 92,
      "hit": false,
      "t": 128231.09949999925,
      "d": 45.94449999999779,
      "v": 54
    },
    {
      "midi": 90,
      "hit": false,
      "t": 128277.04399999925,
      "d": 91.88899999999558,
      "v": 60
    },
    {
      "midi": 58,
      "hit": false,
      "t": 128277.04399999957,
      "d": 91.88899999999558,
      "v": 31
    },
    {
      "midi": 61,
      "hit": false,
      "t": 128277.04399999957,
      "d": 91.88899999999558,
      "v": 31
    },
    {
      "midi": 66,
      "hit": false,
      "t": 128277.04399999957,
      "d": 91.88899999999558,
      "v": 37
    },
    {
      "midi": 89,
      "hit": false,
      "t": 128368.93299999925,
      "d": 91.88899999999558,
      "v": 55
    },
    {
      "midi": 90,
      "hit": false,
      "t": 128460.82199999924,
      "d": 91.88899999999558,
      "v": 61
    },
    {
      "midi": 58,
      "hit": false,
      "t": 128460.82199999956,
      "d": 91.88899999999558,
      "v": 31
    },
    {
      "midi": 61,
      "hit": false,
      "t": 128460.82199999956,
      "d": 91.88899999999558,
      "v": 31
    },
    {
      "midi": 66,
      "hit": false,
      "t": 128460.82199999956,
      "d": 91.88899999999558,
      "v": 38
    },
    {
      "midi": 58,
      "hit": false,
      "t": 128644.59999999955,
      "d": 91.88899999999558,
      "v": 29
    },
    {
      "midi": 61,
      "hit": false,
      "t": 128644.59999999955,
      "d": 91.88899999999558,
      "v": 29
    },
    {
      "midi": 66,
      "hit": false,
      "t": 128644.59999999955,
      "d": 91.88899999999558,
      "v": 35
    },
    {
      "midi": 87,
      "hit": false,
      "t": 128782.43349999924,
      "d": 45.94449999999779,
      "v": 51
    },
    {
      "midi": 85,
      "hit": false,
      "t": 128828.37799999924,
      "d": 91.88899999999558,
      "v": 57
    },
    {
      "midi": 58,
      "hit": false,
      "t": 128828.37799999955,
      "d": 91.88899999999558,
      "v": 29
    },
    {
      "midi": 61,
      "hit": false,
      "t": 128828.37799999955,
      "d": 91.88899999999558,
      "v": 29
    },
    {
      "midi": 66,
      "hit": false,
      "t": 128828.37799999955,
      "d": 91.88899999999558,
      "v": 35
    },
    {
      "midi": 84,
      "hit": false,
      "t": 128920.26699999924,
      "d": 91.88899999999558,
      "v": 50
    },
    {
      "midi": 85,
      "hit": false,
      "t": 129012.15599999923,
      "d": 91.88899999999558,
      "v": 60
    },
    {
      "midi": 58,
      "hit": false,
      "t": 129012.15599999954,
      "d": 91.88899999999558,
      "v": 34
    },
    {
      "midi": 61,
      "hit": false,
      "t": 129012.15599999954,
      "d": 91.88899999999558,
      "v": 34
    },
    {
      "midi": 66,
      "hit": false,
      "t": 129012.15599999954,
      "d": 91.88899999999558,
      "v": 40
    },
    {
      "midi": 58,
      "hit": false,
      "t": 129195.93399999953,
      "d": 91.88899999999558,
      "v": 29
    },
    {
      "midi": 61,
      "hit": false,
      "t": 129195.93399999953,
      "d": 91.88899999999558,
      "v": 29
    },
    {
      "midi": 66,
      "hit": false,
      "t": 129195.93399999953,
      "d": 91.88899999999558,
      "v": 35
    },
    {
      "midi": 84,
      "hit": false,
      "t": 129333.76749999923,
      "d": 45.94449999999779,
      "v": 51
    },
    {
      "midi": 82,
      "hit": false,
      "t": 129379.71199999923,
      "d": 91.88899999999558,
      "v": 56
    },
    {
      "midi": 58,
      "hit": false,
      "t": 129379.71199999952,
      "d": 91.88899999999558,
      "v": 29
    },
    {
      "midi": 61,
      "hit": false,
      "t": 129379.71199999952,
      "d": 91.88899999999558,
      "v": 29
    },
    {
      "midi": 66,
      "hit": false,
      "t": 129379.71199999952,
      "d": 91.88899999999558,
      "v": 35
    },
    {
      "midi": 81,
      "hit": false,
      "t": 129471.60099999922,
      "d": 91.88899999999558,
      "v": 51
    },
    {
      "midi": 82,
      "hit": false,
      "t": 129563.48999999922,
      "d": 91.88899999999558,
      "v": 56
    },
    {
      "midi": 58,
      "hit": false,
      "t": 129563.48999999951,
      "d": 91.88899999999558,
      "v": 29
    },
    {
      "midi": 61,
      "hit": false,
      "t": 129563.48999999951,
      "d": 91.88899999999558,
      "v": 29
    },
    {
      "midi": 66,
      "hit": false,
      "t": 129563.48999999951,
      "d": 91.88899999999558,
      "v": 35
    },
    {
      "midi": 58,
      "hit": false,
      "t": 129747.2679999995,
      "d": 91.88899999999558,
      "v": 29
    },
    {
      "midi": 61,
      "hit": false,
      "t": 129747.2679999995,
      "d": 91.88899999999558,
      "v": 29
    },
    {
      "midi": 66,
      "hit": false,
      "t": 129747.2679999995,
      "d": 91.88899999999558,
      "v": 35
    },
    {
      "midi": 80,
      "hit": false,
      "t": 129885.10149999922,
      "d": 45.94449999999779,
      "v": 51
    },
    {
      "midi": 78,
      "hit": false,
      "t": 129931.04599999922,
      "d": 91.88899999999558,
      "v": 57
    },
    {
      "midi": 58,
      "hit": false,
      "t": 129931.0459999995,
      "d": 91.88899999999558,
      "v": 29
    },
    {
      "midi": 61,
      "hit": false,
      "t": 129931.0459999995,
      "d": 91.88899999999558,
      "v": 29
    },
    {
      "midi": 66,
      "hit": false,
      "t": 129931.0459999995,
      "d": 91.88899999999558,
      "v": 35
    },
    {
      "midi": 77,
      "hit": false,
      "t": 130022.93499999921,
      "d": 91.88899999999558,
      "v": 50
    },
    {
      "midi": 78,
      "hit": false,
      "t": 130114.82399999921,
      "d": 91.88899999999558,
      "v": 60
    },
    {
      "midi": 58,
      "hit": false,
      "t": 130114.82399999948,
      "d": 91.88899999999558,
      "v": 34
    },
    {
      "midi": 61,
      "hit": false,
      "t": 130114.82399999948,
      "d": 91.88899999999558,
      "v": 34
    },
    {
      "midi": 66,
      "hit": false,
      "t": 130114.82399999948,
      "d": 91.88899999999558,
      "v": 40
    },
    {
      "midi": 58,
      "hit": false,
      "t": 130298.60199999948,
      "d": 91.88899999999558,
      "v": 29
    },
    {
      "midi": 61,
      "hit": false,
      "t": 130298.60199999948,
      "d": 91.88899999999558,
      "v": 29
    },
    {
      "midi": 66,
      "hit": false,
      "t": 130298.60199999948,
      "d": 91.88899999999558,
      "v": 35
    },
    {
      "midi": 75,
      "hit": false,
      "t": 130436.4354999992,
      "d": 45.94449999999779,
      "v": 51
    },
    {
      "midi": 73,
      "hit": false,
      "t": 130482.3799999992,
      "d": 91.88899999999558,
      "v": 56
    },
    {
      "midi": 58,
      "hit": false,
      "t": 130482.37999999947,
      "d": 91.88899999999558,
      "v": 29
    },
    {
      "midi": 61,
      "hit": false,
      "t": 130482.37999999947,
      "d": 91.88899999999558,
      "v": 29
    },
    {
      "midi": 66,
      "hit": false,
      "t": 130482.37999999947,
      "d": 91.88899999999558,
      "v": 35
    },
    {
      "midi": 72,
      "hit": false,
      "t": 130574.2689999992,
      "d": 91.88899999999558,
      "v": 51
    },
    {
      "midi": 73,
      "hit": false,
      "t": 130666.1579999992,
      "d": 367.55599999999686,
      "v": 56
    },
    {
      "midi": 58,
      "hit": false,
      "t": 130666.15799999946,
      "d": 91.88899999999558,
      "v": 29
    },
    {
      "midi": 61,
      "hit": false,
      "t": 130666.15799999946,
      "d": 91.88899999999558,
      "v": 29
    },
    {
      "midi": 66,
      "hit": false,
      "t": 130666.15799999946,
      "d": 91.88899999999558,
      "v": 35
    },
    {
      "midi": 58,
      "hit": false,
      "t": 130849.93599999945,
      "d": 91.88899999999558,
      "v": 29
    },
    {
      "midi": 61,
      "hit": false,
      "t": 130849.93599999945,
      "d": 91.88899999999558,
      "v": 29
    },
    {
      "midi": 66,
      "hit": false,
      "t": 130849.93599999945,
      "d": 91.88899999999558,
      "v": 35
    },
    {
      "midi": 58,
      "hit": false,
      "t": 131033.71399999944,
      "d": 91.88900000001013,
      "v": 29
    },
    {
      "midi": 61,
      "hit": false,
      "t": 131033.71399999944,
      "d": 91.88900000001013,
      "v": 29
    },
    {
      "midi": 64,
      "hit": false,
      "t": 131033.71399999944,
      "d": 91.88900000001013,
      "v": 35
    },
    {
      "midi": 72,
      "hit": false,
      "t": 131217.49199999918,
      "d": 91.88899999999558,
      "v": 55
    },
    {
      "midi": 57,
      "hit": false,
      "t": 131217.49199999945,
      "d": 91.88899999999558,
      "v": 34
    },
    {
      "midi": 60,
      "hit": false,
      "t": 131217.49199999945,
      "d": 91.88899999999558,
      "v": 34
    },
    {
      "midi": 65,
      "hit": false,
      "t": 131217.49199999945,
      "d": 91.88899999999558,
      "v": 40
    },
    {
      "midi": 57,
      "hit": false,
      "t": 131401.26999999944,
      "d": 91.88899999999558,
      "v": 29
    },
    {
      "midi": 60,
      "hit": false,
      "t": 131401.26999999944,
      "d": 91.88899999999558,
      "v": 29
    },
    {
      "midi": 65,
      "hit": false,
      "t": 131401.26999999944,
      "d": 91.88899999999558,
      "v": 35
    },
    {
      "midi": 82,
      "hit": false,
      "t": 131539.10349999918,
      "d": 45.94450000001234,
      "v": 51
    },
    {
      "midi": 81,
      "hit": false,
      "t": 131585.0479999992,
      "d": 91.88899999999558,
      "v": 57
    },
    {
      "midi": 57,
      "hit": false,
      "t": 131585.04799999943,
      "d": 91.88899999999558,
      "v": 29
    },
    {
      "midi": 60,
      "hit": false,
      "t": 131585.04799999943,
      "d": 91.88899999999558,
      "v": 29
    },
    {
      "midi": 65,
      "hit": false,
      "t": 131585.04799999943,
      "d": 91.88899999999558,
      "v": 35
    },
    {
      "midi": 79,
      "hit": false,
      "t": 131676.9369999992,
      "d": 91.88899999999558,
      "v": 52
    },
    {
      "midi": 81,
      "hit": false,
      "t": 131768.8259999992,
      "d": 91.88899999999558,
      "v": 57
    },
    {
      "midi": 57,
      "hit": false,
      "t": 131768.82599999942,
      "d": 91.88899999999558,
      "v": 29
    },
    {
      "midi": 60,
      "hit": false,
      "t": 131768.82599999942,
      "d": 91.88899999999558,
      "v": 29
    },
    {
      "midi": 65,
      "hit": false,
      "t": 131768.82599999942,
      "d": 91.88899999999558,
      "v": 36
    },
    {
      "midi": 57,
      "hit": false,
      "t": 131952.6039999994,
      "d": 91.88899999999558,
      "v": 30
    },
    {
      "midi": 60,
      "hit": false,
      "t": 131952.6039999994,
      "d": 91.88899999999558,
      "v": 30
    },
    {
      "midi": 65,
      "hit": false,
      "t": 131952.6039999994,
      "d": 91.88899999999558,
      "v": 36
    },
    {
      "midi": 86,
      "hit": false,
      "t": 132090.43749999919,
      "d": 45.94450000001234,
      "v": 53
    },
    {
      "midi": 84,
      "hit": false,
      "t": 132136.3819999992,
      "d": 91.88899999999558,
      "v": 59
    },
    {
      "midi": 57,
      "hit": false,
      "t": 132136.3819999994,
      "d": 91.88899999999558,
      "v": 30
    },
    {
      "midi": 60,
      "hit": false,
      "t": 132136.3819999994,
      "d": 91.88899999999558,
      "v": 30
    },
    {
      "midi": 65,
      "hit": false,
      "t": 132136.3819999994,
      "d": 91.88899999999558,
      "v": 36
    },
    {
      "midi": 83,
      "hit": false,
      "t": 132228.2709999992,
      "d": 91.88899999999558,
      "v": 52
    },
    {
      "midi": 84,
      "hit": false,
      "t": 132320.1599999992,
      "d": 91.88899999999558,
      "v": 63
    },
    {
      "midi": 57,
      "hit": false,
      "t": 132320.1599999994,
      "d": 91.88899999999558,
      "v": 36
    },
    {
      "midi": 60,
      "hit": false,
      "t": 132320.1599999994,
      "d": 91.88899999999558,
      "v": 36
    },
    {
      "midi": 65,
      "hit": false,
      "t": 132320.1599999994,
      "d": 91.88899999999558,
      "v": 42
    },
    {
      "midi": 57,
      "hit": false,
      "t": 132503.93799999938,
      "d": 91.88899999999558,
      "v": 31
    },
    {
      "midi": 60,
      "hit": false,
      "t": 132503.93799999938,
      "d": 91.88899999999558,
      "v": 31
    },
    {
      "midi": 65,
      "hit": false,
      "t": 132503.93799999938,
      "d": 91.88899999999558,
      "v": 37
    },
    {
      "midi": 90,
      "hit": false,
      "t": 132641.7714999992,
      "d": 45.94450000001234,
      "v": 55
    },
    {
      "midi": 89,
      "hit": false,
      "t": 132687.7159999992,
      "d": 91.88899999999558,
      "v": 60
    },
    {
      "midi": 57,
      "hit": false,
      "t": 132687.71599999937,
      "d": 91.88899999999558,
      "v": 31
    },
    {
      "midi": 60,
      "hit": false,
      "t": 132687.71599999937,
      "d": 91.88899999999558,
      "v": 31
    },
    {
      "midi": 65,
      "hit": false,
      "t": 132687.71599999937,
      "d": 91.88899999999558,
      "v": 37
    },
    {
      "midi": 88,
      "hit": false,
      "t": 132779.6049999992,
      "d": 91.88899999999558,
      "v": 55
    },
    {
      "midi": 89,
      "hit": false,
      "t": 132871.4939999992,
      "d": 91.88899999999558,
      "v": 61
    },
    {
      "midi": 57,
      "hit": false,
      "t": 132871.49399999937,
      "d": 91.88899999999558,
      "v": 31
    },
    {
      "midi": 60,
      "hit": false,
      "t": 132871.49399999937,
      "d": 91.88899999999558,
      "v": 31
    },
    {
      "midi": 65,
      "hit": false,
      "t": 132871.49399999937,
      "d": 91.88899999999558,
      "v": 38
    },
    {
      "midi": 57,
      "hit": false,
      "t": 133055.27199999936,
      "d": 91.88899999999558,
      "v": 29
    },
    {
      "midi": 60,
      "hit": false,
      "t": 133055.27199999936,
      "d": 91.88899999999558,
      "v": 29
    },
    {
      "midi": 65,
      "hit": false,
      "t": 133055.27199999936,
      "d": 91.88899999999558,
      "v": 35
    },
    {
      "midi": 85,
      "hit": false,
      "t": 133193.1054999992,
      "d": 45.94450000001234,
      "v": 51
    },
    {
      "midi": 84,
      "hit": false,
      "t": 133239.0499999992,
      "d": 91.88899999999558,
      "v": 57
    },
    {
      "midi": 57,
      "hit": false,
      "t": 133239.04999999935,
      "d": 91.88899999999558,
      "v": 29
    },
    {
      "midi": 60,
      "hit": false,
      "t": 133239.04999999935,
      "d": 91.88899999999558,
      "v": 29
    },
    {
      "midi": 65,
      "hit": false,
      "t": 133239.04999999935,
      "d": 91.88899999999558,
      "v": 35
    },
    {
      "midi": 83,
      "hit": false,
      "t": 133330.9389999992,
      "d": 91.88899999999558,
      "v": 50
    },
    {
      "midi": 84,
      "hit": false,
      "t": 133422.8279999992,
      "d": 91.88899999999558,
      "v": 60
    },
    {
      "midi": 57,
      "hit": false,
      "t": 133422.82799999934,
      "d": 91.88899999999558,
      "v": 34
    },
    {
      "midi": 60,
      "hit": false,
      "t": 133422.82799999934,
      "d": 91.88899999999558,
      "v": 34
    },
    {
      "midi": 65,
      "hit": false,
      "t": 133422.82799999934,
      "d": 91.88899999999558,
      "v": 40
    },
    {
      "midi": 57,
      "hit": false,
      "t": 133606.60599999933,
      "d": 91.88899999999558,
      "v": 29
    },
    {
      "midi": 60,
      "hit": false,
      "t": 133606.60599999933,
      "d": 91.88899999999558,
      "v": 29
    },
    {
      "midi": 65,
      "hit": false,
      "t": 133606.60599999933,
      "d": 91.88899999999558,
      "v": 35
    },
    {
      "midi": 82,
      "hit": false,
      "t": 133744.4394999992,
      "d": 45.94450000001234,
      "v": 51
    },
    {
      "midi": 81,
      "hit": false,
      "t": 133790.3839999992,
      "d": 91.88899999999558,
      "v": 56
    },
    {
      "midi": 57,
      "hit": false,
      "t": 133790.38399999932,
      "d": 91.88899999999558,
      "v": 29
    },
    {
      "midi": 60,
      "hit": false,
      "t": 133790.38399999932,
      "d": 91.88899999999558,
      "v": 29
    },
    {
      "midi": 65,
      "hit": false,
      "t": 133790.38399999932,
      "d": 91.88899999999558,
      "v": 35
    },
    {
      "midi": 79,
      "hit": false,
      "t": 133882.2729999992,
      "d": 91.88899999999558,
      "v": 51
    },
    {
      "midi": 81,
      "hit": false,
      "t": 133974.1619999992,
      "d": 91.88899999999558,
      "v": 56
    },
    {
      "midi": 57,
      "hit": false,
      "t": 133974.1619999993,
      "d": 91.88899999999558,
      "v": 29
    },
    {
      "midi": 60,
      "hit": false,
      "t": 133974.1619999993,
      "d": 91.88899999999558,
      "v": 29
    },
    {
      "midi": 65,
      "hit": false,
      "t": 133974.1619999993,
      "d": 91.88899999999558,
      "v": 35
    },
    {
      "midi": 57,
      "hit": false,
      "t": 134157.9399999993,
      "d": 91.88899999999558,
      "v": 29
    },
    {
      "midi": 60,
      "hit": false,
      "t": 134157.9399999993,
      "d": 91.88899999999558,
      "v": 29
    },
    {
      "midi": 65,
      "hit": false,
      "t": 134157.9399999993,
      "d": 91.88899999999558,
      "v": 35
    },
    {
      "midi": 78,
      "hit": false,
      "t": 134295.7734999992,
      "d": 45.94450000001234,
      "v": 51
    },
    {
      "midi": 77,
      "hit": false,
      "t": 134341.7179999992,
      "d": 91.88899999999558,
      "v": 57
    },
    {
      "midi": 57,
      "hit": false,
      "t": 134341.7179999993,
      "d": 91.88899999999558,
      "v": 29
    },
    {
      "midi": 60,
      "hit": false,
      "t": 134341.7179999993,
      "d": 91.88899999999558,
      "v": 29
    },
    {
      "midi": 65,
      "hit": false,
      "t": 134341.7179999993,
      "d": 91.88899999999558,
      "v": 35
    },
    {
      "midi": 76,
      "hit": false,
      "t": 134433.6069999992,
      "d": 91.88899999999558,
      "v": 50
    },
    {
      "midi": 77,
      "hit": false,
      "t": 134525.4959999992,
      "d": 91.88899999999558,
      "v": 60
    },
    {
      "midi": 57,
      "hit": false,
      "t": 134525.4959999993,
      "d": 91.88899999999558,
      "v": 34
    },
    {
      "midi": 60,
      "hit": false,
      "t": 134525.4959999993,
      "d": 91.88899999999558,
      "v": 34
    },
    {
      "midi": 65,
      "hit": false,
      "t": 134525.4959999993,
      "d": 91.88899999999558,
      "v": 40
    },
    {
      "midi": 57,
      "hit": false,
      "t": 134709.27399999928,
      "d": 91.88899999999558,
      "v": 29
    },
    {
      "midi": 60,
      "hit": false,
      "t": 134709.27399999928,
      "d": 91.88899999999558,
      "v": 29
    },
    {
      "midi": 65,
      "hit": false,
      "t": 134709.27399999928,
      "d": 91.88899999999558,
      "v": 35
    },
    {
      "midi": 73,
      "hit": false,
      "t": 134847.1074999992,
      "d": 45.94450000001234,
      "v": 51
    },
    {
      "midi": 72,
      "hit": false,
      "t": 134893.0519999992,
      "d": 91.88899999999558,
      "v": 56
    },
    {
      "midi": 57,
      "hit": false,
      "t": 134893.05199999927,
      "d": 91.88899999999558,
      "v": 29
    },
    {
      "midi": 60,
      "hit": false,
      "t": 134893.05199999927,
      "d": 91.88899999999558,
      "v": 29
    },
    {
      "midi": 65,
      "hit": false,
      "t": 134893.05199999927,
      "d": 91.88899999999558,
      "v": 35
    },
    {
      "midi": 71,
      "hit": false,
      "t": 134984.9409999992,
      "d": 91.88899999999558,
      "v": 51
    },
    {
      "midi": 72,
      "hit": false,
      "t": 135076.8299999992,
      "d": 183.77799999999115,
      "v": 56
    },
    {
      "midi": 57,
      "hit": false,
      "t": 135076.82999999926,
      "d": 183.77799999999115,
      "v": 29
    },
    {
      "midi": 60,
      "hit": false,
      "t": 135076.82999999926,
      "d": 183.77799999999115,
      "v": 29
    },
    {
      "midi": 65,
      "hit": false,
      "t": 135076.82999999926,
      "d": 183.77799999999115,
      "v": 35
    },
    {
      "midi": 53,
      "hit": false,
      "t": 135260.60799999925,
      "d": 183.77799999999115,
      "v": 35
    },
    {
      "midi": 73,
      "hit": false,
      "t": 135444.38599999918,
      "d": 183.77799999999115,
      "v": 61
    },
    {
      "midi": 51,
      "hit": false,
      "t": 135444.38599999924,
      "d": 183.77799999999115,
      "v": 35
    },
    {
      "midi": 65,
      "hit": false,
      "t": 135628.16399999917,
      "d": 91.88899999999558,
      "v": 35
    },
    {
      "midi": 74,
      "hit": false,
      "t": 135628.16399999917,
      "d": 551.3339999999735,
      "v": 56
    },
    {
      "midi": 50,
      "hit": false,
      "t": 135628.16399999923,
      "d": 367.5560000000114,
      "v": 40
    },
    {
      "midi": 46,
      "hit": false,
      "t": 135628.16399999923,
      "d": 1102.6680000000051,
      "v": 40
    },
    {
      "midi": 67,
      "hit": false,
      "t": 135720.05299999917,
      "d": 91.88899999999558,
      "v": 31
    },
    {
      "midi": 65,
      "hit": false,
      "t": 135811.94199999917,
      "d": 91.88899999999558,
      "v": 35
    },
    {
      "midi": 67,
      "hit": false,
      "t": 135903.83099999916,
      "d": 91.88899999999558,
      "v": 31
    },
    {
      "midi": 65,
      "hit": false,
      "t": 135995.71999999916,
      "d": 91.88899999999558,
      "v": 34
    },
    {
      "midi": 55,
      "hit": false,
      "t": 135995.71999999924,
      "d": 183.77799999999115,
      "v": 33
    },
    {
      "midi": 67,
      "hit": false,
      "t": 136087.60899999915,
      "d": 91.88899999999558,
      "v": 31
    },
    {
      "midi": 65,
      "hit": false,
      "t": 136179.49799999915,
      "d": 91.88899999999558,
      "v": 36
    },
    {
      "midi": 70,
      "hit": false,
      "t": 136179.49799999915,
      "d": 551.3339999999735,
      "v": 55
    },
    {
      "midi": 53,
      "hit": false,
      "t": 136179.49799999924,
      "d": 367.5560000000114,
      "v": 42
    },
    {
      "midi": 67,
      "hit": false,
      "t": 136271.38699999914,
      "d": 91.88899999999558,
      "v": 32
    },
    {
      "midi": 65,
      "hit": false,
      "t": 136363.27599999914,
      "d": 91.88899999999558,
      "v": 36
    },
    {
      "midi": 67,
      "hit": false,
      "t": 136455.16499999914,
      "d": 91.88899999999558,
      "v": 31
    },
    {
      "midi": 65,
      "hit": false,
      "t": 136547.05399999913,
      "d": 91.88899999999558,
      "v": 37
    },
    {
      "midi": 50,
      "hit": false,
      "t": 136547.05399999925,
      "d": 183.77799999999115,
      "v": 39
    },
    {
      "midi": 67,
      "hit": false,
      "t": 136638.94299999913,
      "d": 91.88899999999558,
      "v": 31
    },
    {
      "midi": 65,
      "hit": false,
      "t": 136730.83199999912,
      "d": 91.88899999999558,
      "v": 37
    },
    {
      "midi": 69,
      "hit": false,
      "t": 136730.83199999912,
      "d": 551.3339999999735,
      "v": 59
    },
    {
      "midi": 48,
      "hit": false,
      "t": 136730.83199999924,
      "d": 367.5560000000114,
      "v": 42
    },
    {
      "midi": 41,
      "hit": false,
      "t": 136730.83199999924,
      "d": 1102.6680000000051,
      "v": 42
    },
    {
      "midi": 67,
      "hit": false,
      "t": 136822.72099999912,
      "d": 91.88899999999558,
      "v": 33
    },
    {
      "midi": 65,
      "hit": false,
      "t": 136914.6099999991,
      "d": 91.88899999999558,
      "v": 37
    },
    {
      "midi": 67,
      "hit": false,
      "t": 137006.4989999991,
      "d": 91.88899999999558,
      "v": 33
    },
    {
      "midi": 65,
      "hit": false,
      "t": 137098.3879999991,
      "d": 91.88899999999558,
      "v": 37
    },
    {
      "midi": 55,
      "hit": false,
      "t": 137098.38799999925,
      "d": 183.77799999999115,
      "v": 36
    },
    {
      "midi": 67,
      "hit": false,
      "t": 137190.2769999991,
      "d": 91.88899999999558,
      "v": 34
    },
    {
      "midi": 65,
      "hit": false,
      "t": 137282.1659999991,
      "d": 91.88899999999558,
      "v": 38
    },
    {
      "midi": 75,
      "hit": false,
      "t": 137282.1659999991,
      "d": 551.3339999999735,
      "v": 59
    },
    {
      "midi": 53,
      "hit": false,
      "t": 137282.16599999924,
      "d": 367.5560000000114,
      "v": 45
    },
    {
      "midi": 67,
      "hit": false,
      "t": 137374.0549999991,
      "d": 91.88899999999558,
      "v": 34
    },
    {
      "midi": 65,
      "hit": false,
      "t": 137465.9439999991,
      "d": 91.88899999999558,
      "v": 39
    },
    {
      "midi": 67,
      "hit": false,
      "t": 137557.83299999908,
      "d": 91.88899999999558,
      "v": 33
    },
    {
      "midi": 65,
      "hit": false,
      "t": 137649.72199999908,
      "d": 91.88899999999558,
      "v": 39
    },
    {
      "midi": 48,
      "hit": false,
      "t": 137649.72199999925,
      "d": 183.77799999999115,
      "v": 41
    },
    {
      "midi": 67,
      "hit": false,
      "t": 137741.61099999907,
      "d": 91.88899999999558,
      "v": 34
    },
    {
      "midi": 65,
      "hit": false,
      "t": 137833.49999999907,
      "d": 91.88899999999558,
      "v": 40
    },
    {
      "midi": 74,
      "hit": false,
      "t": 137833.49999999907,
      "d": 551.3339999999735,
      "v": 64
    },
    {
      "midi": 50,
      "hit": false,
      "t": 137833.49999999924,
      "d": 367.5560000000114,
      "v": 46
    },
    {
      "midi": 46,
      "hit": false,
      "t": 137833.49999999924,
      "d": 1102.6680000000051,
      "v": 46
    },
    {
      "midi": 67,
      "hit": false,
      "t": 137925.38899999906,
      "d": 91.88899999999558,
      "v": 35
    },
    {
      "midi": 65,
      "hit": false,
      "t": 138017.27799999906,
      "d": 91.88899999999558,
      "v": 39
    },
    {
      "midi": 67,
      "hit": false,
      "t": 138109.16699999906,
      "d": 91.88899999999558,
      "v": 35
    },
    {
      "midi": 65,
      "hit": false,
      "t": 138201.05599999905,
      "d": 91.88899999999558,
      "v": 38
    },
    {
      "midi": 55,
      "hit": false,
      "t": 138201.05599999925,
      "d": 183.77799999999115,
      "v": 37
    },
    {
      "midi": 67,
      "hit": false,
      "t": 138292.94499999905,
      "d": 91.88899999999558,
      "v": 34
    },
    {
      "midi": 65,
      "hit": false,
      "t": 138384.83399999904,
      "d": 91.88899999999558,
      "v": 39
    },
    {
      "midi": 70,
      "hit": false,
      "t": 138384.83399999904,
      "d": 551.3339999999735,
      "v": 60
    },
    {
      "midi": 53,
      "hit": false,
      "t": 138384.83399999925,
      "d": 367.5560000000114,
      "v": 45
    },
    {
      "midi": 67,
      "hit": false,
      "t": 138476.72299999904,
      "d": 91.88899999999558,
      "v": 34
    },
    {
      "midi": 65,
      "hit": false,
      "t": 138568.61199999903,
      "d": 91.88899999999558,
      "v": 38
    },
    {
      "midi": 67,
      "hit": false,
      "t": 138660.50099999903,
      "d": 91.88899999999558,
      "v": 33
    },
    {
      "midi": 65,
      "hit": false,
      "t": 138752.38999999902,
      "d": 91.88899999999558,
      "v": 38
    },
    {
      "midi": 50,
      "hit": false,
      "t": 138752.38999999926,
      "d": 183.77799999999115,
      "v": 40
    },
    {
      "midi": 67,
      "hit": false,
      "t": 138844.27899999902,
      "d": 91.88899999999558,
      "v": 32
    },
    {
      "midi": 65,
      "hit": false,
      "t": 138936.16799999902,
      "d": 91.88899999999558,
      "v": 37
    },
    {
      "midi": 69,
      "hit": false,
      "t": 138936.16799999902,
      "d": 551.3339999999735,
      "v": 60
    },
    {
      "midi": 48,
      "hit": false,
      "t": 138936.16799999925,
      "d": 367.5560000000114,
      "v": 43
    },
    {
      "midi": 41,
      "hit": false,
      "t": 138936.16799999925,
      "d": 1102.6680000000051,
      "v": 43
    },
    {
      "midi": 67,
      "hit": false,
      "t": 139028.056999999,
      "d": 91.88899999999558,
      "v": 33
    },
    {
      "midi": 65,
      "hit": false,
      "t": 139119.945999999,
      "d": 91.88899999999558,
      "v": 37
    },
    {
      "midi": 67,
      "hit": false,
      "t": 139211.834999999,
      "d": 91.88899999999558,
      "v": 32
    },
    {
      "midi": 65,
      "hit": false,
      "t": 139303.723999999,
      "d": 91.88899999999558,
      "v": 35
    },
    {
      "midi": 55,
      "hit": false,
      "t": 139303.72399999926,
      "d": 183.77799999999115,
      "v": 34
    },
    {
      "midi": 67,
      "hit": false,
      "t": 139395.612999999,
      "d": 91.88899999999558,
      "v": 32
    },
    {
      "midi": 65,
      "hit": false,
      "t": 139487.501999999,
      "d": 91.88899999999558,
      "v": 36
    },
    {
      "midi": 75,
      "hit": false,
      "t": 139487.501999999,
      "d": 551.3339999999735,
      "v": 56
    },
    {
      "midi": 53,
      "hit": false,
      "t": 139487.50199999925,
      "d": 367.5560000000114,
      "v": 42
    },
    {
      "midi": 67,
      "hit": false,
      "t": 139579.39099999898,
      "d": 91.88899999999558,
      "v": 32
    },
    {
      "midi": 65,
      "hit": false,
      "t": 139671.27999999898,
      "d": 91.88899999999558,
      "v": 36
    },
    {
      "midi": 67,
      "hit": false,
      "t": 139763.16899999898,
      "d": 91.88899999999558,
      "v": 30
    },
    {
      "midi": 65,
      "hit": false,
      "t": 139855.05799999897,
      "d": 91.88899999999558,
      "v": 35
    },
    {
      "midi": 48,
      "hit": false,
      "t": 139855.05799999926,
      "d": 183.77799999999115,
      "v": 37
    },
    {
      "midi": 67,
      "hit": false,
      "t": 139946.94699999897,
      "d": 91.88899999999558,
      "v": 30
    },
    {
      "midi": 74,
      "hit": false,
      "t": 140038.83599999896,
      "d": 91.88899999999558,
      "v": 51
    },
    {
      "midi": 46,
      "hit": false,
      "t": 140038.83599999925,
      "d": 91.88899999999558,
      "v": 34
    },
    {
      "midi": 50,
      "hit": false,
      "t": 140038.83599999925,
      "d": 91.88899999999558,
      "v": 40
    },
    {
      "midi": 77,
      "hit": false,
      "t": 140130.72499999896,
      "d": 91.88899999999558,
      "v": 45
    },
    {
      "midi": 79,
      "hit": false,
      "t": 140222.61399999895,
      "d": 61.25933333332068,
      "v": 48
    },
    {
      "midi": 50,
      "hit": false,
      "t": 140222.61399999924,
      "d": 91.88899999999558,
      "v": 29
    },
    {
      "midi": 53,
      "hit": false,
      "t": 140222.61399999924,
      "d": 91.88899999999558,
      "v": 29
    },
    {
      "midi": 58,
      "hit": false,
      "t": 140222.61399999924,
      "d": 91.88899999999558,
      "v": 35
    },
    {
      "midi": 81,
      "hit": false,
      "t": 140283.87333333227,
      "d": 61.25933333332068,
      "v": 50
    },
    {
      "midi": 82,
      "hit": false,
      "t": 140345.1326666656,
      "d": 61.25933333332068,
      "v": 52
    },
    {
      "midi": 84,
      "hit": false,
      "t": 140406.39199999892,
      "d": 61.25933333332068,
      "v": 54
    },
    {
      "midi": 50,
      "hit": false,
      "t": 140406.39199999924,
      "d": 91.88899999999558,
      "v": 29
    },
    {
      "midi": 53,
      "hit": false,
      "t": 140406.39199999924,
      "d": 91.88899999999558,
      "v": 29
    },
    {
      "midi": 58,
      "hit": false,
      "t": 140406.39199999924,
      "d": 91.88899999999558,
      "v": 35
    },
    {
      "midi": 86,
      "hit": false,
      "t": 140467.65133333224,
      "d": 61.25933333332068,
      "v": 56
    },
    {
      "midi": 87,
      "hit": false,
      "t": 140528.91066666556,
      "d": 61.25933333332068,
      "v": 59
    },
    {
      "midi": 89,
      "hit": false,
      "t": 140590.16999999888,
      "d": 91.88899999999558,
      "v": 61
    },
    {
      "midi": 50,
      "hit": false,
      "t": 140590.16999999923,
      "d": 91.88899999999558,
      "v": 29
    },
    {
      "midi": 53,
      "hit": false,
      "t": 140590.16999999923,
      "d": 91.88899999999558,
      "v": 29
    },
    {
      "midi": 58,
      "hit": false,
      "t": 140590.16999999923,
      "d": 91.88899999999558,
      "v": 35
    },
    {
      "midi": 87,
      "hit": false,
      "t": 140682.05899999887,
      "d": 91.88899999999558,
      "v": 60
    },
    {
      "midi": 86,
      "hit": false,
      "t": 140773.94799999887,
      "d": 91.88899999999558,
      "v": 58
    },
    {
      "midi": 50,
      "hit": false,
      "t": 140773.94799999922,
      "d": 91.88899999999558,
      "v": 29
    },
    {
      "midi": 53,
      "hit": false,
      "t": 140773.94799999922,
      "d": 91.88899999999558,
      "v": 29
    },
    {
      "midi": 58,
      "hit": false,
      "t": 140773.94799999922,
      "d": 91.88899999999558,
      "v": 35
    },
    {
      "midi": 84,
      "hit": false,
      "t": 140865.83699999886,
      "d": 91.88899999999558,
      "v": 57
    },
    {
      "midi": 82,
      "hit": false,
      "t": 140957.72599999886,
      "d": 91.88899999999558,
      "v": 55
    },
    {
      "midi": 50,
      "hit": false,
      "t": 140957.7259999992,
      "d": 91.88899999999558,
      "v": 29
    },
    {
      "midi": 53,
      "hit": false,
      "t": 140957.7259999992,
      "d": 91.88899999999558,
      "v": 29
    },
    {
      "midi": 58,
      "hit": false,
      "t": 140957.7259999992,
      "d": 91.88899999999558,
      "v": 35
    },
    {
      "midi": 81,
      "hit": false,
      "t": 141049.61499999886,
      "d": 91.88899999999558,
      "v": 54
    },
    {
      "midi": 79,
      "hit": false,
      "t": 141141.50399999885,
      "d": 91.88899999999558,
      "v": 51
    },
    {
      "midi": 81,
      "hit": false,
      "t": 141233.39299999885,
      "d": 91.88899999999558,
      "v": 45
    },
    {
      "midi": 82,
      "hit": false,
      "t": 141325.28199999884,
      "d": 91.88899999999558,
      "v": 48
    },
    {
      "midi": 51,
      "hit": false,
      "t": 141325.2819999992,
      "d": 91.88899999999558,
      "v": 29
    },
    {
      "midi": 55,
      "hit": false,
      "t": 141325.2819999992,
      "d": 91.88899999999558,
      "v": 29
    },
    {
      "midi": 58,
      "hit": false,
      "t": 141325.2819999992,
      "d": 91.88899999999558,
      "v": 35
    },
    {
      "midi": 84,
      "hit": false,
      "t": 141417.17099999884,
      "d": 91.88899999999558,
      "v": 50
    },
    {
      "midi": 86,
      "hit": false,
      "t": 141509.05999999883,
      "d": 61.25933333332068,
      "v": 54
    },
    {
      "midi": 51,
      "hit": false,
      "t": 141509.05999999918,
      "d": 91.88899999999558,
      "v": 29
    },
    {
      "midi": 55,
      "hit": false,
      "t": 141509.05999999918,
      "d": 91.88899999999558,
      "v": 29
    },
    {
      "midi": 58,
      "hit": false,
      "t": 141509.05999999918,
      "d": 91.88899999999558,
      "v": 35
    },
    {
      "midi": 87,
      "hit": false,
      "t": 141570.31933333215,
      "d": 61.25933333332068,
      "v": 56
    },
    {
      "midi": 89,
      "hit": false,
      "t": 141631.57866666547,
      "d": 61.25933333332068,
      "v": 59
    },
    {
      "midi": 91,
      "hit": false,
      "t": 141692.8379999988,
      "d": 91.88899999999558,
      "v": 61
    },
    {
      "midi": 51,
      "hit": false,
      "t": 141692.83799999917,
      "d": 91.88899999999558,
      "v": 29
    },
    {
      "midi": 55,
      "hit": false,
      "t": 141692.83799999917,
      "d": 91.88899999999558,
      "v": 29
    },
    {
      "midi": 58,
      "hit": false,
      "t": 141692.83799999917,
      "d": 91.88899999999558,
      "v": 35
    },
    {
      "midi": 89,
      "hit": false,
      "t": 141784.7269999988,
      "d": 91.88899999999558,
      "v": 60
    },
    {
      "midi": 87,
      "hit": false,
      "t": 141876.6159999988,
      "d": 61.25933333332068,
      "v": 58
    },
    {
      "midi": 51,
      "hit": false,
      "t": 141876.61599999917,
      "d": 91.88899999999558,
      "v": 29
    },
    {
      "midi": 55,
      "hit": false,
      "t": 141876.61599999917,
      "d": 91.88899999999558,
      "v": 29
    },
    {
      "midi": 58,
      "hit": false,
      "t": 141876.61599999917,
      "d": 91.88899999999558,
      "v": 35
    },
    {
      "midi": 86,
      "hit": false,
      "t": 141937.8753333321,
      "d": 61.25933333332068,
      "v": 57
    },
    {
      "midi": 84,
      "hit": false,
      "t": 141999.13466666543,
      "d": 61.25933333332068,
      "v": 56
    },
    {
      "midi": 82,
      "hit": false,
      "t": 142060.39399999875,
      "d": 61.25933333332068,
      "v": 55
    },
    {
      "midi": 51,
      "hit": false,
      "t": 142060.39399999916,
      "d": 91.88899999999558,
      "v": 29
    },
    {
      "midi": 55,
      "hit": false,
      "t": 142060.39399999916,
      "d": 91.88899999999558,
      "v": 29
    },
    {
      "midi": 60,
      "hit": false,
      "t": 142060.39399999916,
      "d": 91.88899999999558,
      "v": 35
    },
    {
      "midi": 81,
      "hit": false,
      "t": 142121.65333333207,
      "d": 61.25933333332068,
      "v": 54
    },
    {
      "midi": 79,
      "hit": false,
      "t": 142182.9126666654,
      "d": 61.25933333332068,
      "v": 53
    },
    {
      "midi": 77,
      "hit": false,
      "t": 142244.1719999987,
      "d": 91.88899999999558,
      "v": 57
    },
    {
      "midi": 86,
      "hit": false,
      "t": 142336.0609999987,
      "d": 91.88899999999558,
      "v": 49
    },
    {
      "midi": 82,
      "hit": false,
      "t": 142427.9499999987,
      "d": 91.88899999999558,
      "v": 59
    },
    {
      "midi": 53,
      "hit": false,
      "t": 142427.94999999914,
      "d": 91.88899999999558,
      "v": 29
    },
    {
      "midi": 58,
      "hit": false,
      "t": 142427.94999999914,
      "d": 91.88899999999558,
      "v": 29
    },
    {
      "midi": 62,
      "hit": false,
      "t": 142427.94999999914,
      "d": 91.88899999999558,
      "v": 35
    },
    {
      "midi": 89,
      "hit": false,
      "t": 142519.8389999987,
      "d": 91.88899999999558,
      "v": 55
    },
    {
      "midi": 86,
      "hit": false,
      "t": 142611.7279999987,
      "d": 91.88899999999558,
      "v": 62
    },
    {
      "midi": 53,
      "hit": false,
      "t": 142611.72799999913,
      "d": 91.88899999999558,
      "v": 29
    },
    {
      "midi": 58,
      "hit": false,
      "t": 142611.72799999913,
      "d": 91.88899999999558,
      "v": 29
    },
    {
      "midi": 62,
      "hit": false,
      "t": 142611.72799999913,
      "d": 91.88899999999558,
      "v": 35
    },
    {
      "midi": 94,
      "hit": false,
      "t": 142703.6169999987,
      "d": 91.88899999999558,
      "v": 57
    },
    {
      "midi": 89,
      "hit": false,
      "t": 142795.50599999868,
      "d": 61.25933333332068,
      "v": 62
    },
    {
      "midi": 53,
      "hit": false,
      "t": 142795.50599999912,
      "d": 91.88899999999558,
      "v": 29
    },
    {
      "midi": 58,
      "hit": false,
      "t": 142795.50599999912,
      "d": 91.88899999999558,
      "v": 29
    },
    {
      "midi": 62,
      "hit": false,
      "t": 142795.50599999912,
      "d": 91.88899999999558,
      "v": 35
    },
    {
      "midi": 98,
      "hit": false,
      "t": 142856.765333332,
      "d": 61.25933333332068,
      "v": 57
    },
    {
      "midi": 94,
      "hit": false,
      "t": 142918.02466666533,
      "d": 61.25933333332068,
      "v": 55
    },
    {
      "midi": 101,
      "hit": false,
      "t": 142979.28399999865,
      "d": 61.25933333332068,
      "v": 61
    },
    {
      "midi": 53,
      "hit": false,
      "t": 142979.2839999991,
      "d": 91.88899999999558,
      "v": 29
    },
    {
      "midi": 58,
      "hit": false,
      "t": 142979.2839999991,
      "d": 91.88899999999558,
      "v": 29
    },
    {
      "midi": 62,
      "hit": false,
      "t": 142979.2839999991,
      "d": 91.88899999999558,
      "v": 35
    },
    {
      "midi": 98,
      "hit": false,
      "t": 143040.54333333197,
      "d": 61.25933333332068,
      "v": 53
    },
    {
      "midi": 94,
      "hit": false,
      "t": 143101.8026666653,
      "d": 61.25933333332068,
      "v": 54
    },
    {
      "midi": 89,
      "hit": false,
      "t": 143163.0619999986,
      "d": 61.25933333332068,
      "v": 59
    },
    {
      "midi": 53,
      "hit": false,
      "t": 143163.0619999991,
      "d": 91.88899999999558,
      "v": 29
    },
    {
      "midi": 58,
      "hit": false,
      "t": 143163.0619999991,
      "d": 91.88899999999558,
      "v": 29
    },
    {
      "midi": 62,
      "hit": false,
      "t": 143163.0619999991,
      "d": 91.88899999999558,
      "v": 35
    },
    {
      "midi": 86,
      "hit": false,
      "t": 143224.32133333193,
      "d": 61.25933333332068,
      "v": 53
    },
    {
      "midi": 82,
      "hit": false,
      "t": 143285.58066666525,
      "d": 61.25933333332068,
      "v": 53
    },
    {
      "midi": 77,
      "hit": false,
      "t": 143346.83999999857,
      "d": 367.5560000000114,
      "v": 59
    },
    {
      "midi": 53,
      "hit": false,
      "t": 143346.8399999991,
      "d": 91.88899999999558,
      "v": 29
    },
    {
      "midi": 58,
      "hit": false,
      "t": 143346.8399999991,
      "d": 91.88899999999558,
      "v": 29
    },
    {
      "midi": 62,
      "hit": false,
      "t": 143346.8399999991,
      "d": 91.88899999999558,
      "v": 35
    },
    {
      "midi": 53,
      "hit": false,
      "t": 143530.61799999909,
      "d": 91.88899999999558,
      "v": 29
    },
    {
      "midi": 58,
      "hit": false,
      "t": 143530.61799999909,
      "d": 91.88899999999558,
      "v": 29
    },
    {
      "midi": 62,
      "hit": false,
      "t": 143530.61799999909,
      "d": 91.88899999999558,
      "v": 35
    },
    {
      "midi": 53,
      "hit": false,
      "t": 143714.39599999908,
      "d": 91.88899999999558,
      "v": 29
    },
    {
      "midi": 58,
      "hit": false,
      "t": 143714.39599999908,
      "d": 91.88899999999558,
      "v": 29
    },
    {
      "midi": 62,
      "hit": false,
      "t": 143714.39599999908,
      "d": 91.88899999999558,
      "v": 35
    },
    {
      "midi": 84,
      "hit": false,
      "t": 143898.17399999857,
      "d": 61.25933333332068,
      "v": 59
    },
    {
      "midi": 53,
      "hit": false,
      "t": 143898.17399999907,
      "d": 91.88899999999558,
      "v": 29
    },
    {
      "midi": 57,
      "hit": false,
      "t": 143898.17399999907,
      "d": 91.88899999999558,
      "v": 29
    },
    {
      "midi": 63,
      "hit": false,
      "t": 143898.17399999907,
      "d": 91.88899999999558,
      "v": 35
    },
    {
      "midi": 86,
      "hit": false,
      "t": 143959.4333333319,
      "d": 61.25933333332068,
      "v": 52
    },
    {
      "midi": 84,
      "hit": false,
      "t": 144020.6926666652,
      "d": 61.25933333332068,
      "v": 59
    },
    {
      "midi": 86,
      "hit": false,
      "t": 144081.95199999854,
      "d": 61.25933333332068,
      "v": 54
    },
    {
      "midi": 53,
      "hit": false,
      "t": 144081.95199999906,
      "d": 91.88899999999558,
      "v": 29
    },
    {
      "midi": 57,
      "hit": false,
      "t": 144081.95199999906,
      "d": 91.88899999999558,
      "v": 29
    },
    {
      "midi": 63,
      "hit": false,
      "t": 144081.95199999906,
      "d": 91.88899999999558,
      "v": 35
    },
    {
      "midi": 84,
      "hit": false,
      "t": 144143.21133333186,
      "d": 61.25933333332068,
      "v": 59
    },
    {
      "midi": 86,
      "hit": false,
      "t": 144204.47066666518,
      "d": 61.25933333332068,
      "v": 53
    },
    {
      "midi": 84,
      "hit": false,
      "t": 144265.7299999985,
      "d": 61.25933333332068,
      "v": 59
    },
    {
      "midi": 53,
      "hit": false,
      "t": 144265.72999999905,
      "d": 91.88899999999558,
      "v": 29
    },
    {
      "midi": 57,
      "hit": false,
      "t": 144265.72999999905,
      "d": 91.88899999999558,
      "v": 29
    },
    {
      "midi": 63,
      "hit": false,
      "t": 144265.72999999905,
      "d": 91.88899999999558,
      "v": 35
    },
    {
      "midi": 86,
      "hit": false,
      "t": 144326.98933333182,
      "d": 61.25933333332068,
      "v": 53
    },
    {
      "midi": 84,
      "hit": false,
      "t": 144388.24866666514,
      "d": 61.25933333332068,
      "v": 56
    },
    {
      "midi": 77,
      "hit": false,
      "t": 144449.50799999846,
      "d": 91.88899999999558,
      "v": 41
    },
    {
      "midi": 86,
      "hit": false,
      "t": 144449.50799999846,
      "d": 551.3339999999735,
      "v": 61
    },
    {
      "midi": 62,
      "hit": false,
      "t": 144449.50799999904,
      "d": 367.5560000000114,
      "v": 40
    },
    {
      "midi": 58,
      "hit": false,
      "t": 144449.50799999904,
      "d": 1102.6680000000051,
      "v": 40
    },
    {
      "midi": 79,
      "hit": false,
      "t": 144541.39699999845,
      "d": 91.88899999999558,
      "v": 31
    },
    {
      "midi": 77,
      "hit": false,
      "t": 144633.28599999845,
      "d": 91.88899999999558,
      "v": 35
    },
    {
      "midi": 79,
      "hit": false,
      "t": 144725.17499999845,
      "d": 91.88899999999558,
      "v": 31
    },
    {
      "midi": 77,
      "hit": false,
      "t": 144817.06399999844,
      "d": 91.88899999999558,
      "v": 34
    },
    {
      "midi": 67,
      "hit": false,
      "t": 144817.06399999905,
      "d": 183.77799999999115,
      "v": 33
    },
    {
      "midi": 79,
      "hit": false,
      "t": 144908.95299999844,
      "d": 91.88899999999558,
      "v": 31
    },
    {
      "midi": 77,
      "hit": false,
      "t": 145000.84199999843,
      "d": 91.88899999999558,
      "v": 36
    },
    {
      "midi": 82,
      "hit": false,
      "t": 145000.84199999843,
      "d": 551.3339999999735,
      "v": 55
    },
    {
      "midi": 65,
      "hit": false,
      "t": 145000.84199999904,
      "d": 367.5560000000114,
      "v": 42
    },
    {
      "midi": 79,
      "hit": false,
      "t": 145092.73099999843,
      "d": 91.88899999999558,
      "v": 32
    },
    {
      "midi": 77,
      "hit": false,
      "t": 145184.61999999842,
      "d": 91.88899999999558,
      "v": 36
    },
    {
      "midi": 79,
      "hit": false,
      "t": 145276.50899999842,
      "d": 91.88899999999558,
      "v": 31
    },
    {
      "midi": 77,
      "hit": false,
      "t": 145368.39799999841,
      "d": 91.88899999999558,
      "v": 37
    },
    {
      "midi": 62,
      "hit": false,
      "t": 145368.39799999906,
      "d": 183.77799999999115,
      "v": 39
    },
    {
      "midi": 79,
      "hit": false,
      "t": 145460.2869999984,
      "d": 91.88899999999558,
      "v": 31
    },
    {
      "midi": 77,
      "hit": false,
      "t": 145552.1759999984,
      "d": 91.88899999999558,
      "v": 37
    },
    {
      "midi": 81,
      "hit": false,
      "t": 145552.1759999984,
      "d": 551.3339999999735,
      "v": 59
    },
    {
      "midi": 60,
      "hit": false,
      "t": 145552.17599999905,
      "d": 367.5560000000114,
      "v": 42
    },
    {
      "midi": 53,
      "hit": false,
      "t": 145552.17599999905,
      "d": 1102.6680000000051,
      "v": 42
    },
    {
      "midi": 79,
      "hit": false,
      "t": 145644.0649999984,
      "d": 91.88899999999558,
      "v": 33
    },
    {
      "midi": 77,
      "hit": false,
      "t": 145735.9539999984,
      "d": 91.88899999999558,
      "v": 37
    },
    {
      "midi": 79,
      "hit": false,
      "t": 145827.8429999984,
      "d": 91.88899999999558,
      "v": 33
    },
    {
      "midi": 77,
      "hit": false,
      "t": 145919.7319999984,
      "d": 91.88899999999558,
      "v": 37
    },
    {
      "midi": 67,
      "hit": false,
      "t": 145919.73199999906,
      "d": 183.77799999999115,
      "v": 36
    },
    {
      "midi": 79,
      "hit": false,
      "t": 146011.62099999838,
      "d": 91.88899999999558,
      "v": 34
    },
    {
      "midi": 77,
      "hit": false,
      "t": 146103.50999999838,
      "d": 91.88899999999558,
      "v": 38
    },
    {
      "midi": 87,
      "hit": false,
      "t": 146103.50999999838,
      "d": 551.3339999999735,
      "v": 59
    },
    {
      "midi": 65,
      "hit": false,
      "t": 146103.50999999905,
      "d": 367.5560000000114,
      "v": 45
    },
    {
      "midi": 79,
      "hit": false,
      "t": 146195.39899999838,
      "d": 91.88899999999558,
      "v": 34
    },
    {
      "midi": 77,
      "hit": false,
      "t": 146287.28799999837,
      "d": 91.88899999999558,
      "v": 39
    },
    {
      "midi": 79,
      "hit": false,
      "t": 146379.17699999837,
      "d": 91.88899999999558,
      "v": 33
    },
    {
      "midi": 77,
      "hit": false,
      "t": 146471.06599999836,
      "d": 91.88899999999558,
      "v": 39
    },
    {
      "midi": 60,
      "hit": false,
      "t": 146471.06599999906,
      "d": 183.77799999999115,
      "v": 41
    },
    {
      "midi": 79,
      "hit": false,
      "t": 146562.95499999836,
      "d": 91.88899999999558,
      "v": 34
    },
    {
      "midi": 77,
      "hit": false,
      "t": 146654.84399999835,
      "d": 91.88899999999558,
      "v": 40
    },
    {
      "midi": 86,
      "hit": false,
      "t": 146654.84399999835,
      "d": 551.3339999999735,
      "v": 64
    },
    {
      "midi": 62,
      "hit": false,
      "t": 146654.84399999905,
      "d": 367.5560000000114,
      "v": 46
    },
    {
      "midi": 58,
      "hit": false,
      "t": 146654.84399999905,
      "d": 1102.6680000000051,
      "v": 46
    },
    {
      "midi": 79,
      "hit": false,
      "t": 146746.73299999835,
      "d": 91.88899999999558,
      "v": 35
    },
    {
      "midi": 77,
      "hit": false,
      "t": 146838.62199999834,
      "d": 91.88899999999558,
      "v": 39
    },
    {
      "midi": 79,
      "hit": false,
      "t": 146930.51099999834,
      "d": 91.88899999999558,
      "v": 35
    },
    {
      "midi": 77,
      "hit": false,
      "t": 147022.39999999834,
      "d": 91.88899999999558,
      "v": 38
    },
    {
      "midi": 67,
      "hit": false,
      "t": 147022.39999999906,
      "d": 183.77799999999115,
      "v": 37
    },
    {
      "midi": 79,
      "hit": false,
      "t": 147114.28899999833,
      "d": 91.88899999999558,
      "v": 34
    },
    {
      "midi": 77,
      "hit": false,
      "t": 147206.17799999833,
      "d": 91.88899999999558,
      "v": 39
    },
    {
      "midi": 82,
      "hit": false,
      "t": 147206.17799999833,
      "d": 551.3339999999735,
      "v": 60
    },
    {
      "midi": 65,
      "hit": false,
      "t": 147206.17799999905,
      "d": 367.5560000000114,
      "v": 45
    },
    {
      "midi": 79,
      "hit": false,
      "t": 147298.06699999832,
      "d": 91.88899999999558,
      "v": 34
    },
    {
      "midi": 77,
      "hit": false,
      "t": 147389.95599999832,
      "d": 91.88899999999558,
      "v": 38
    },
    {
      "midi": 79,
      "hit": false,
      "t": 147481.8449999983,
      "d": 91.88899999999558,
      "v": 33
    },
    {
      "midi": 77,
      "hit": false,
      "t": 147573.7339999983,
      "d": 91.88899999999558,
      "v": 38
    },
    {
      "midi": 62,
      "hit": false,
      "t": 147573.73399999907,
      "d": 183.77799999999115,
      "v": 40
    },
    {
      "midi": 79,
      "hit": false,
      "t": 147665.6229999983,
      "d": 91.88899999999558,
      "v": 32
    },
    {
      "midi": 77,
      "hit": false,
      "t": 147757.5119999983,
      "d": 91.88899999999558,
      "v": 37
    },
    {
      "midi": 81,
      "hit": false,
      "t": 147757.5119999983,
      "d": 551.3339999999735,
      "v": 60
    },
    {
      "midi": 60,
      "hit": false,
      "t": 147757.51199999906,
      "d": 367.5560000000114,
      "v": 43
    },
    {
      "midi": 53,
      "hit": false,
      "t": 147757.51199999906,
      "d": 1102.6680000000051,
      "v": 43
    },
    {
      "midi": 79,
      "hit": false,
      "t": 147849.4009999983,
      "d": 91.88899999999558,
      "v": 33
    },
    {
      "midi": 77,
      "hit": false,
      "t": 147941.2899999983,
      "d": 91.88899999999558,
      "v": 37
    },
    {
      "midi": 79,
      "hit": false,
      "t": 148033.1789999983,
      "d": 91.88899999999558,
      "v": 32
    },
    {
      "midi": 77,
      "hit": false,
      "t": 148125.06799999828,
      "d": 91.88899999999558,
      "v": 35
    },
    {
      "midi": 67,
      "hit": false,
      "t": 148125.06799999907,
      "d": 183.77799999999115,
      "v": 34
    },
    {
      "midi": 79,
      "hit": false,
      "t": 148216.95699999828,
      "d": 91.88899999999558,
      "v": 32
    },
    {
      "midi": 77,
      "hit": false,
      "t": 148308.84599999827,
      "d": 91.88899999999558,
      "v": 36
    },
    {
      "midi": 87,
      "hit": false,
      "t": 148308.84599999827,
      "d": 551.3339999999735,
      "v": 56
    },
    {
      "midi": 65,
      "hit": false,
      "t": 148308.84599999906,
      "d": 367.5560000000114,
      "v": 42
    },
    {
      "midi": 79,
      "hit": false,
      "t": 148400.73499999827,
      "d": 91.88899999999558,
      "v": 32
    },
    {
      "midi": 77,
      "hit": false,
      "t": 148492.62399999826,
      "d": 91.88899999999558,
      "v": 36
    },
    {
      "midi": 79,
      "hit": false,
      "t": 148584.51299999826,
      "d": 91.88899999999558,
      "v": 30
    },
    {
      "midi": 77,
      "hit": false,
      "t": 148676.40199999826,
      "d": 91.88899999999558,
      "v": 35
    },
    {
      "midi": 60,
      "hit": false,
      "t": 148676.40199999907,
      "d": 183.77799999999115,
      "v": 37
    },
    {
      "midi": 79,
      "hit": false,
      "t": 148768.29099999825,
      "d": 91.88899999999558,
      "v": 30
    },
    {
      "midi": 62,
      "hit": false,
      "t": 148860.17999999906,
      "d": 91.88899999999558,
      "v": 51
    },
    {
      "midi": 65,
      "hit": false,
      "t": 148860.17999999906,
      "d": 91.88899999999558,
      "v": 51
    },
    {
      "midi": 67,
      "hit": false,
      "t": 148952.06899999906,
      "d": 91.88899999999558,
      "v": 45
    },
    {
      "midi": 82,
      "hit": false,
      "t": 149043.95799999824,
      "d": 91.88899999999558,
      "v": 45
    },
    {
      "midi": 86,
      "hit": false,
      "t": 149043.95799999824,
      "d": 91.88899999999558,
      "v": 45
    },
    {
      "midi": 69,
      "hit": false,
      "t": 149043.95799999905,
      "d": 91.88899999999558,
      "v": 50
    },
    {
      "midi": 70,
      "hit": false,
      "t": 149135.84699999905,
      "d": 91.88899999999558,
      "v": 52
    },
    {
      "midi": 82,
      "hit": false,
      "t": 149227.73599999823,
      "d": 91.88899999999558,
      "v": 45
    },
    {
      "midi": 86,
      "hit": false,
      "t": 149227.73599999823,
      "d": 91.88899999999558,
      "v": 45
    },
    {
      "midi": 72,
      "hit": false,
      "t": 149227.73599999904,
      "d": 61.25933333332068,
      "v": 54
    },
    {
      "midi": 74,
      "hit": false,
      "t": 149288.99533333236,
      "d": 61.25933333332068,
      "v": 56
    },
    {
      "midi": 75,
      "hit": false,
      "t": 149350.25466666569,
      "d": 61.25933333332068,
      "v": 59
    },
    {
      "midi": 82,
      "hit": false,
      "t": 149411.51399999822,
      "d": 91.88899999999558,
      "v": 48
    },
    {
      "midi": 86,
      "hit": false,
      "t": 149411.51399999822,
      "d": 91.88899999999558,
      "v": 48
    },
    {
      "midi": 77,
      "hit": false,
      "t": 149411.513999999,
      "d": 91.88899999999558,
      "v": 61
    },
    {
      "midi": 75,
      "hit": false,
      "t": 149503.402999999,
      "d": 91.88899999999558,
      "v": 60
    },
    {
      "midi": 82,
      "hit": false,
      "t": 149595.2919999982,
      "d": 91.88899999999558,
      "v": 42
    },
    {
      "midi": 86,
      "hit": false,
      "t": 149595.2919999982,
      "d": 91.88899999999558,
      "v": 42
    },
    {
      "midi": 74,
      "hit": false,
      "t": 149595.291999999,
      "d": 91.88899999999558,
      "v": 58
    },
    {
      "midi": 72,
      "hit": false,
      "t": 149687.180999999,
      "d": 91.88899999999558,
      "v": 57
    },
    {
      "midi": 82,
      "hit": false,
      "t": 149779.0699999982,
      "d": 91.88899999999558,
      "v": 42
    },
    {
      "midi": 86,
      "hit": false,
      "t": 149779.0699999982,
      "d": 91.88899999999558,
      "v": 42
    },
    {
      "midi": 70,
      "hit": false,
      "t": 149779.069999999,
      "d": 91.88899999999558,
      "v": 55
    },
    {
      "midi": 69,
      "hit": false,
      "t": 149870.95899999898,
      "d": 91.88899999999558,
      "v": 54
    },
    {
      "midi": 63,
      "hit": false,
      "t": 149962.84799999898,
      "d": 91.88899999999558,
      "v": 51
    },
    {
      "midi": 67,
      "hit": false,
      "t": 149962.84799999898,
      "d": 91.88899999999558,
      "v": 51
    },
    {
      "midi": 69,
      "hit": false,
      "t": 150054.73699999898,
      "d": 91.88899999999558,
      "v": 45
    },
    {
      "midi": 82,
      "hit": false,
      "t": 150146.62599999818,
      "d": 91.88899999999558,
      "v": 45
    },
    {
      "midi": 84,
      "hit": false,
      "t": 150146.62599999818,
      "d": 91.88899999999558,
      "v": 45
    },
    {
      "midi": 70,
      "hit": false,
      "t": 150146.62599999897,
      "d": 91.88899999999558,
      "v": 48
    },
    {
      "midi": 72,
      "hit": false,
      "t": 150238.51499999897,
      "d": 91.88899999999558,
      "v": 50
    },
    {
      "midi": 82,
      "hit": false,
      "t": 150330.40399999818,
      "d": 91.88899999999558,
      "v": 45
    },
    {
      "midi": 84,
      "hit": false,
      "t": 150330.40399999818,
      "d": 91.88899999999558,
      "v": 45
    },
    {
      "midi": 74,
      "hit": false,
      "t": 150330.40399999896,
      "d": 61.25933333332068,
      "v": 55
    },
    {
      "midi": 75,
      "hit": false,
      "t": 150391.66333333228,
      "d": 61.25933333332068,
      "v": 57
    },
    {
      "midi": 77,
      "hit": false,
      "t": 150452.9226666656,
      "d": 61.25933333332068,
      "v": 60
    },
    {
      "midi": 82,
      "hit": false,
      "t": 150514.18199999817,
      "d": 91.88899999999558,
      "v": 49
    },
    {
      "midi": 84,
      "hit": false,
      "t": 150514.18199999817,
      "d": 91.88899999999558,
      "v": 49
    },
    {
      "midi": 79,
      "hit": false,
      "t": 150514.18199999892,
      "d": 91.88899999999558,
      "v": 62
    },
    {
      "midi": 77,
      "hit": false,
      "t": 150606.07099999892,
      "d": 91.88899999999558,
      "v": 62
    },
    {
      "midi": 82,
      "hit": false,
      "t": 150697.95999999816,
      "d": 91.88899999999558,
      "v": 44
    },
    {
      "midi": 84,
      "hit": false,
      "t": 150697.95999999816,
      "d": 91.88899999999558,
      "v": 44
    },
    {
      "midi": 75,
      "hit": false,
      "t": 150697.95999999892,
      "d": 61.25933333332068,
      "v": 60
    },
    {
      "midi": 74,
      "hit": false,
      "t": 150759.21933333224,
      "d": 61.25933333332068,
      "v": 59
    },
    {
      "midi": 72,
      "hit": false,
      "t": 150820.47866666556,
      "d": 61.25933333332068,
      "v": 58
    },
    {
      "midi": 82,
      "hit": false,
      "t": 150881.73799999815,
      "d": 91.88899999999558,
      "v": 46
    },
    {
      "midi": 84,
      "hit": false,
      "t": 150881.73799999815,
      "d": 91.88899999999558,
      "v": 46
    },
    {
      "midi": 70,
      "hit": false,
      "t": 150881.73799999888,
      "d": 61.25933333332068,
      "v": 58
    },
    {
      "midi": 69,
      "hit": false,
      "t": 150942.9973333322,
      "d": 61.25933333332068,
      "v": 57
    },
    {
      "midi": 67,
      "hit": false,
      "t": 151004.25666666552,
      "d": 61.25933333332068,
      "v": 56
    },
    {
      "midi": 65,
      "hit": false,
      "t": 151065.51599999884,
      "d": 91.88899999999558,
      "v": 60
    },
    {
      "midi": 53,
      "hit": false,
      "t": 151157.40499999883,
      "d": 91.88899999999558,
      "v": 52
    },
    {
      "midi": 82,
      "hit": false,
      "t": 151249.29399999813,
      "d": 91.88899999999558,
      "v": 48
    },
    {
      "midi": 86,
      "hit": false,
      "t": 151249.29399999813,
      "d": 91.88899999999558,
      "v": 48
    },
    {
      "midi": 58,
      "hit": false,
      "t": 151249.29399999883,
      "d": 91.88899999999558,
      "v": 63
    },
    {
      "midi": 62,
      "hit": false,
      "t": 151341.18299999883,
      "d": 91.88899999999558,
      "v": 59
    },
    {
      "midi": 82,
      "hit": false,
      "t": 151433.07199999812,
      "d": 91.88899999999558,
      "v": 49
    },
    {
      "midi": 86,
      "hit": false,
      "t": 151433.07199999812,
      "d": 91.88899999999558,
      "v": 49
    },
    {
      "midi": 65,
      "hit": false,
      "t": 151433.07199999882,
      "d": 91.88899999999558,
      "v": 68
    },
    {
      "midi": 70,
      "hit": false,
      "t": 151524.96099999882,
      "d": 91.88899999999558,
      "v": 62
    },
    {
      "midi": 82,
      "hit": false,
      "t": 151616.8499999981,
      "d": 91.88899999999558,
      "v": 52
    },
    {
      "midi": 86,
      "hit": false,
      "t": 151616.8499999981,
      "d": 91.88899999999558,
      "v": 52
    },
    {
      "midi": 74,
      "hit": false,
      "t": 151616.8499999988,
      "d": 91.88899999999558,
      "v": 63
    },
    {
      "midi": 70,
      "hit": false,
      "t": 151708.7389999988,
      "d": 91.88899999999558,
      "v": 54
    },
    {
      "midi": 82,
      "hit": false,
      "t": 151800.6279999981,
      "d": 91.88899999999558,
      "v": 47
    },
    {
      "midi": 86,
      "hit": false,
      "t": 151800.6279999981,
      "d": 91.88899999999558,
      "v": 47
    },
    {
      "midi": 77,
      "hit": false,
      "t": 151800.6279999988,
      "d": 91.88899999999558,
      "v": 66
    },
    {
      "midi": 74,
      "hit": false,
      "t": 151892.5169999988,
      "d": 91.88899999999558,
      "v": 62
    },
    {
      "midi": 82,
      "hit": false,
      "t": 151984.4059999981,
      "d": 91.88899999999558,
      "v": 48
    },
    {
      "midi": 86,
      "hit": false,
      "t": 151984.4059999981,
      "d": 91.88899999999558,
      "v": 48
    },
    {
      "midi": 89,
      "hit": false,
      "t": 151984.4059999981,
      "d": 91.88899999999558,
      "v": 48
    },
    {
      "midi": 70,
      "hit": false,
      "t": 151984.4059999988,
      "d": 91.88899999999558,
      "v": 70
    },
    {
      "midi": 74,
      "hit": false,
      "t": 152076.2949999988,
      "d": 91.88899999999558,
      "v": 64
    },
    {
      "midi": 81,
      "hit": false,
      "t": 152168.1839999981,
      "d": 91.88899999999558,
      "v": 59
    },
    {
      "midi": 87,
      "hit": false,
      "t": 152168.1839999981,
      "d": 91.88899999999558,
      "v": 59
    },
    {
      "midi": 89,
      "hit": false,
      "t": 152168.1839999981,
      "d": 91.88899999999558,
      "v": 59
    },
    {
      "midi": 72,
      "hit": false,
      "t": 152168.1839999988,
      "d": 61.25933333332068,
      "v": 67
    },
    {
      "midi": 65,
      "hit": false,
      "t": 152168.1839999988,
      "d": 183.77799999996205,
      "v": 60
    },
    {
      "midi": 74,
      "hit": false,
      "t": 152229.4433333321,
      "d": 61.25933333332068,
      "v": 59
    },
    {
      "midi": 72,
      "hit": false,
      "t": 152290.70266666543,
      "d": 61.25933333332068,
      "v": 67
    },
    {
      "midi": 81,
      "hit": false,
      "t": 152351.96199999808,
      "d": 91.88899999999558,
      "v": 46
    },
    {
      "midi": 87,
      "hit": false,
      "t": 152351.96199999808,
      "d": 91.88899999999558,
      "v": 46
    },
    {
      "midi": 89,
      "hit": false,
      "t": 152351.96199999808,
      "d": 91.88899999999558,
      "v": 46
    },
    {
      "midi": 74,
      "hit": false,
      "t": 152351.96199999875,
      "d": 61.25933333332068,
      "v": 61
    },
    {
      "midi": 72,
      "hit": false,
      "t": 152413.22133333207,
      "d": 61.25933333332068,
      "v": 66
    },
    {
      "midi": 74,
      "hit": false,
      "t": 152474.4806666654,
      "d": 61.25933333332068,
      "v": 59
    },
    {
      "midi": 81,
      "hit": false,
      "t": 152535.73999999807,
      "d": 91.88899999999558,
      "v": 45
    },
    {
      "midi": 87,
      "hit": false,
      "t": 152535.73999999807,
      "d": 91.88899999999558,
      "v": 45
    },
    {
      "midi": 89,
      "hit": false,
      "t": 152535.73999999807,
      "d": 91.88899999999558,
      "v": 45
    },
    {
      "midi": 72,
      "hit": false,
      "t": 152535.7399999987,
      "d": 61.25933333332068,
      "v": 66
    },
    {
      "midi": 74,
      "hit": false,
      "t": 152596.99933333203,
      "d": 61.25933333332068,
      "v": 59
    },
    {
      "midi": 72,
      "hit": false,
      "t": 152658.25866666535,
      "d": 61.25933333332068,
      "v": 62
    },
    {
      "midi": 81,
      "hit": false,
      "t": 152719.51799999806,
      "d": 91.88899999999558,
      "v": 53
    },
    {
      "midi": 87,
      "hit": false,
      "t": 152719.51799999806,
      "d": 91.88899999999558,
      "v": 53
    },
    {
      "midi": 89,
      "hit": false,
      "t": 152719.51799999806,
      "d": 91.88899999999558,
      "v": 53
    },
    {
      "midi": 74,
      "hit": false,
      "t": 152719.51799999867,
      "d": 61.25933333332068,
      "v": 56
    },
    {
      "midi": 72,
      "hit": false,
      "t": 152780.777333332,
      "d": 61.25933333332068,
      "v": 63
    },
    {
      "midi": 74,
      "hit": false,
      "t": 152842.0366666653,
      "d": 61.25933333332068,
      "v": 55
    },
    {
      "midi": 81,
      "hit": false,
      "t": 152903.29599999805,
      "d": 91.88899999999558,
      "v": 45
    },
    {
      "midi": 87,
      "hit": false,
      "t": 152903.29599999805,
      "d": 91.88899999999558,
      "v": 45
    },
    {
      "midi": 89,
      "hit": false,
      "t": 152903.29599999805,
      "d": 91.88899999999558,
      "v": 45
    },
    {
      "midi": 72,
      "hit": false,
      "t": 152903.29599999863,
      "d": 61.25933333332068,
      "v": 63
    },
    {
      "midi": 74,
      "hit": false,
      "t": 152964.55533333195,
      "d": 61.25933333332068,
      "v": 55
    },
    {
      "midi": 72,
      "hit": false,
      "t": 153025.81466666528,
      "d": 61.25933333332068,
      "v": 63
    },
    {
      "midi": 81,
      "hit": false,
      "t": 153087.07399999804,
      "d": 91.88899999999558,
      "v": 44
    },
    {
      "midi": 87,
      "hit": false,
      "t": 153087.07399999804,
      "d": 91.88899999999558,
      "v": 44
    },
    {
      "midi": 89,
      "hit": false,
      "t": 153087.07399999804,
      "d": 91.88899999999558,
      "v": 44
    },
    {
      "midi": 74,
      "hit": false,
      "t": 153087.0739999986,
      "d": 61.25933333332068,
      "v": 55
    },
    {
      "midi": 72,
      "hit": false,
      "t": 153148.33333333192,
      "d": 61.25933333332068,
      "v": 63
    },
    {
      "midi": 74,
      "hit": false,
      "t": 153209.59266666524,
      "d": 61.25933333332068,
      "v": 59
    },
    {
      "midi": 65,
      "hit": false,
      "t": 153270.85199999856,
      "d": 91.88899999999558,
      "v": 62
    },
    {
      "midi": 71,
      "hit": false,
      "t": 153362.74099999855,
      "d": 91.88899999999558,
      "v": 55
    },
    {
      "midi": 72,
      "hit": false,
      "t": 153454.62999999855,
      "d": 91.88899999999558,
      "v": 58
    },
    {
      "midi": 74,
      "hit": false,
      "t": 153546.51899999855,
      "d": 91.88899999999558,
      "v": 60
    },
    {
      "midi": 80,
      "hit": false,
      "t": 153638.40799999805,
      "d": 551.3340000000026,
      "v": 70
    },
    {
      "midi": 92,
      "hit": false,
      "t": 153638.40799999805,
      "d": 551.3340000000026,
      "v": 83
    },
    {
      "midi": 72,
      "hit": false,
      "t": 153638.40799999854,
      "d": 91.88899999999558,
      "v": 58
    },
    {
      "midi": 71,
      "hit": false,
      "t": 153730.29699999854,
      "d": 91.88899999999558,
      "v": 58
    },
    {
      "midi": 63,
      "hit": false,
      "t": 153822.18599999853,
      "d": 91.88899999999558,
      "v": 61
    },
    {
      "midi": 72,
      "hit": false,
      "t": 153914.07499999853,
      "d": 91.88899999999558,
      "v": 56
    },
    {
      "midi": 74,
      "hit": false,
      "t": 154005.96399999852,
      "d": 91.88899999999558,
      "v": 59
    },
    {
      "midi": 75,
      "hit": false,
      "t": 154097.85299999852,
      "d": 91.88899999999558,
      "v": 61
    },
    {
      "midi": 79,
      "hit": false,
      "t": 154189.74199999805,
      "d": 183.77799999999115,
      "v": 66
    },
    {
      "midi": 91,
      "hit": false,
      "t": 154189.74199999805,
      "d": 183.77799999999115,
      "v": 79
    },
    {
      "midi": 74,
      "hit": false,
      "t": 154189.7419999985,
      "d": 91.88899999999558,
      "v": 57
    },
    {
      "midi": 72,
      "hit": false,
      "t": 154281.6309999985,
      "d": 91.88899999999558,
      "v": 57
    },
    {
      "midi": 63,
      "hit": false,
      "t": 154378.1144499985,
      "d": 91.88899999999558,
      "v": 62
    },
    {
      "midi": 69,
      "hit": false,
      "t": 154465.4089999985,
      "d": 91.88899999999558,
      "v": 55
    },
    {
      "midi": 70,
      "hit": false,
      "t": 154557.2979999985,
      "d": 91.88899999999558,
      "v": 58
    },
    {
      "midi": 72,
      "hit": false,
      "t": 154645.35829166515,
      "d": 91.88899999999558,
      "v": 60
    },
    {
      "midi": 78,
      "hit": false,
      "t": 154741.07599999805,
      "d": 551.3340000000026,
      "v": 69
    },
    {
      "midi": 90,
      "hit": false,
      "t": 154741.07599999805,
      "d": 551.3340000000026,
      "v": 81
    },
    {
      "midi": 70,
      "hit": false,
      "t": 154741.0759999985,
      "d": 91.88899999999558,
      "v": 59
    },
    {
      "midi": 69,
      "hit": false,
      "t": 154832.96499999848,
      "d": 91.88899999999558,
      "v": 59
    },
    {
      "midi": 62,
      "hit": false,
      "t": 154924.85399999848,
      "d": 91.88899999999558,
      "v": 62
    },
    {
      "midi": 70,
      "hit": false,
      "t": 155016.74299999847,
      "d": 91.88899999999558,
      "v": 57
    },
    {
      "midi": 72,
      "hit": false,
      "t": 155108.63199999847,
      "d": 91.88899999999558,
      "v": 61
    },
    {
      "midi": 74,
      "hit": false,
      "t": 155200.52099999847,
      "d": 91.88899999999558,
      "v": 64
    },
    {
      "midi": 77,
      "hit": false,
      "t": 155292.40999999805,
      "d": 183.77799999999115,
      "v": 67
    },
    {
      "midi": 89,
      "hit": false,
      "t": 155292.40999999805,
      "d": 183.77799999999115,
      "v": 80
    },
    {
      "midi": 72,
      "hit": false,
      "t": 155292.40999999846,
      "d": 91.88899999999558,
      "v": 59
    },
    {
      "midi": 70,
      "hit": false,
      "t": 155384.29899999846,
      "d": 91.88899999999558,
      "v": 60
    },
    {
      "midi": 53,
      "hit": false,
      "t": 155480.78244999846,
      "d": 91.88899999999558,
      "v": 65
    },
    {
      "midi": 59,
      "hit": false,
      "t": 155568.07699999845,
      "d": 91.88899999999558,
      "v": 58
    },
    {
      "midi": 60,
      "hit": false,
      "t": 155659.96599999844,
      "d": 91.88899999999558,
      "v": 62
    },
    {
      "midi": 62,
      "hit": false,
      "t": 155748.0262916651,
      "d": 91.88899999999558,
      "v": 64
    },
    {
      "midi": 68,
      "hit": false,
      "t": 155843.74399999806,
      "d": 551.3340000000026,
      "v": 73
    },
    {
      "midi": 80,
      "hit": false,
      "t": 155843.74399999806,
      "d": 551.3340000000026,
      "v": 86
    },
    {
      "midi": 60,
      "hit": false,
      "t": 155843.74399999843,
      "d": 91.88899999999558,
      "v": 62
    },
    {
      "midi": 59,
      "hit": false,
      "t": 155935.63299999843,
      "d": 91.88899999999558,
      "v": 63
    },
    {
      "midi": 51,
      "hit": false,
      "t": 156027.52199999843,
      "d": 91.88899999999558,
      "v": 67
    },
    {
      "midi": 60,
      "hit": false,
      "t": 156119.41099999842,
      "d": 91.88899999999558,
      "v": 61
    },
    {
      "midi": 62,
      "hit": false,
      "t": 156211.29999999842,
      "d": 91.88899999999558,
      "v": 65
    },
    {
      "midi": 63,
      "hit": false,
      "t": 156303.1889999984,
      "d": 91.88899999999558,
      "v": 67
    },
    {
      "midi": 67,
      "hit": false,
      "t": 156395.07799999806,
      "d": 183.77799999999115,
      "v": 71
    },
    {
      "midi": 79,
      "hit": false,
      "t": 156395.07799999806,
      "d": 183.77799999999115,
      "v": 86
    },
    {
      "midi": 62,
      "hit": false,
      "t": 156395.0779999984,
      "d": 91.88899999999558,
      "v": 63
    },
    {
      "midi": 60,
      "hit": false,
      "t": 156486.9669999984,
      "d": 91.88899999999558,
      "v": 63
    },
    {
      "midi": 51,
      "hit": false,
      "t": 156583.4504499984,
      "d": 91.88899999999558,
      "v": 70
    },
    {
      "midi": 57,
      "hit": false,
      "t": 156670.7449999984,
      "d": 91.88899999999558,
      "v": 62
    },
    {
      "midi": 58,
      "hit": false,
      "t": 156762.6339999984,
      "d": 91.88899999999558,
      "v": 66
    },
    {
      "midi": 60,
      "hit": false,
      "t": 156850.69429166504,
      "d": 91.88899999999558,
      "v": 68
    },
    {
      "midi": 66,
      "hit": false,
      "t": 156946.41199999806,
      "d": 551.3340000000026,
      "v": 78
    },
    {
      "midi": 78,
      "hit": false,
      "t": 156946.41199999806,
      "d": 551.3340000000026,
      "v": 92
    },
    {
      "midi": 58,
      "hit": false,
      "t": 156946.41199999838,
      "d": 91.88899999999558,
      "v": 66
    },
    {
      "midi": 57,
      "hit": false,
      "t": 157038.30099999838,
      "d": 91.88899999999558,
      "v": 67
    },
    {
      "midi": 50,
      "hit": false,
      "t": 157130.18999999837,
      "d": 91.88899999999558,
      "v": 70
    },
    {
      "midi": 58,
      "hit": false,
      "t": 157222.07899999837,
      "d": 91.88899999999558,
      "v": 65
    },
    {
      "midi": 60,
      "hit": false,
      "t": 157313.96799999836,
      "d": 91.88899999999558,
      "v": 69
    },
    {
      "midi": 62,
      "hit": false,
      "t": 157405.85699999836,
      "d": 91.88899999999558,
      "v": 71
    },
    {
      "midi": 65,
      "hit": false,
      "t": 157497.74599999806,
      "d": 183.77799999999115,
      "v": 75
    },
    {
      "midi": 77,
      "hit": false,
      "t": 157497.74599999806,
      "d": 183.77799999999115,
      "v": 90
    },
    {
      "midi": 60,
      "hit": false,
      "t": 157497.74599999835,
      "d": 91.88899999999558,
      "v": 67
    },
    {
      "midi": 58,
      "hit": false,
      "t": 157589.63499999835,
      "d": 91.88899999999558,
      "v": 67
    },
    {
      "midi": 50,
      "hit": false,
      "t": 157681.52399999835,
      "d": 91.88899999999558,
      "v": 70
    },
    {
      "midi": 53,
      "hit": false,
      "t": 157773.41299999834,
      "d": 91.88899999999558,
      "v": 62
    },
    {
      "midi": 65,
      "hit": false,
      "t": 157865.30199999805,
      "d": 91.88899999999558,
      "v": 60
    },
    {
      "midi": 70,
      "hit": false,
      "t": 157865.30199999805,
      "d": 91.88899999999558,
      "v": 60
    },
    {
      "midi": 77,
      "hit": false,
      "t": 157865.30199999805,
      "d": 91.88899999999558,
      "v": 71
    },
    {
      "midi": 58,
      "hit": false,
      "t": 157865.30199999834,
      "d": 91.88899999999558,
      "v": 66
    },
    {
      "midi": 62,
      "hit": false,
      "t": 157957.19099999833,
      "d": 91.88899999999558,
      "v": 68
    },
    {
      "midi": 65,
      "hit": false,
      "t": 158049.07999999804,
      "d": 91.88899999999558,
      "v": 57
    },
    {
      "midi": 70,
      "hit": false,
      "t": 158049.07999999804,
      "d": 91.88899999999558,
      "v": 57
    },
    {
      "midi": 77,
      "hit": false,
      "t": 158049.07999999804,
      "d": 91.88899999999558,
      "v": 68
    },
    {
      "midi": 58,
      "hit": false,
      "t": 158049.07999999833,
      "d": 91.88899999999558,
      "v": 66
    },
    {
      "midi": 53,
      "hit": false,
      "t": 158140.96899999832,
      "d": 91.88899999999558,
      "v": 63
    },
    {
      "midi": 43,
      "hit": false,
      "t": 158232.85799999832,
      "d": 91.88899999999558,
      "v": 70
    },
    {
      "midi": 46,
      "hit": false,
      "t": 158324.74699999832,
      "d": 91.88899999999558,
      "v": 65
    },
    {
      "midi": 67,
      "hit": false,
      "t": 158416.63599999802,
      "d": 91.88899999999558,
      "v": 58
    },
    {
      "midi": 70,
      "hit": false,
      "t": 158416.63599999802,
      "d": 91.88899999999558,
      "v": 58
    },
    {
      "midi": 75,
      "hit": false,
      "t": 158416.63599999802,
      "d": 91.88899999999558,
      "v": 69
    },
    {
      "midi": 50,
      "hit": false,
      "t": 158416.6359999983,
      "d": 91.88899999999558,
      "v": 69
    },
    {
      "midi": 55,
      "hit": false,
      "t": 158508.5249999983,
      "d": 91.88899999999558,
      "v": 71
    },
    {
      "midi": 67,
      "hit": false,
      "t": 158600.413999998,
      "d": 91.88899999999558,
      "v": 55
    },
    {
      "midi": 70,
      "hit": false,
      "t": 158600.413999998,
      "d": 91.88899999999558,
      "v": 55
    },
    {
      "midi": 74,
      "hit": false,
      "t": 158600.413999998,
      "d": 91.88899999999558,
      "v": 65
    },
    {
      "midi": 50,
      "hit": false,
      "t": 158600.4139999983,
      "d": 91.88899999999558,
      "v": 67
    },
    {
      "midi": 46,
      "hit": false,
      "t": 158692.3029999983,
      "d": 91.88899999999558,
      "v": 64
    },
    {
      "midi": 39,
      "hit": false,
      "t": 158784.1919999983,
      "d": 91.88899999999558,
      "v": 70
    },
    {
      "midi": 43,
      "hit": false,
      "t": 158876.0809999983,
      "d": 91.88899999999558,
      "v": 62
    },
    {
      "midi": 63,
      "hit": false,
      "t": 158967.969999998,
      "d": 91.88899999999558,
      "v": 60
    },
    {
      "midi": 67,
      "hit": false,
      "t": 158967.969999998,
      "d": 91.88899999999558,
      "v": 60
    },
    {
      "midi": 74,
      "hit": false,
      "t": 158967.969999998,
      "d": 91.88899999999558,
      "v": 71
    },
    {
      "midi": 48,
      "hit": false,
      "t": 158967.96999999828,
      "d": 91.88899999999558,
      "v": 66
    },
    {
      "midi": 51,
      "hit": false,
      "t": 159059.85899999828,
      "d": 91.88899999999558,
      "v": 68
    },
    {
      "midi": 63,
      "hit": false,
      "t": 159151.74799999798,
      "d": 91.88899999999558,
      "v": 57
    },
    {
      "midi": 67,
      "hit": false,
      "t": 159151.74799999798,
      "d": 91.88899999999558,
      "v": 57
    },
    {
      "midi": 72,
      "hit": false,
      "t": 159151.74799999798,
      "d": 91.88899999999558,
      "v": 68
    },
    {
      "midi": 48,
      "hit": false,
      "t": 159151.74799999828,
      "d": 91.88899999999558,
      "v": 66
    },
    {
      "midi": 43,
      "hit": false,
      "t": 159243.63699999827,
      "d": 91.88899999999558,
      "v": 63
    },
    {
      "midi": 41,
      "hit": false,
      "t": 159335.52599999827,
      "d": 91.88899999999558,
      "v": 70
    },
    {
      "midi": 48,
      "hit": false,
      "t": 159427.41499999826,
      "d": 91.88899999999558,
      "v": 65
    },
    {
      "midi": 60,
      "hit": false,
      "t": 159519.30399999797,
      "d": 91.88899999999558,
      "v": 58
    },
    {
      "midi": 63,
      "hit": false,
      "t": 159519.30399999797,
      "d": 91.88899999999558,
      "v": 58
    },
    {
      "midi": 70,
      "hit": false,
      "t": 159519.30399999797,
      "d": 91.88899999999558,
      "v": 69
    },
    {
      "midi": 51,
      "hit": false,
      "t": 159519.30399999826,
      "d": 91.88899999999558,
      "v": 69
    },
    {
      "midi": 53,
      "hit": false,
      "t": 159611.19299999825,
      "d": 91.88899999999558,
      "v": 71
    },
    {
      "midi": 60,
      "hit": false,
      "t": 159703.08199999796,
      "d": 91.88899999999558,
      "v": 55
    },
    {
      "midi": 63,
      "hit": false,
      "t": 159703.08199999796,
      "d": 91.88899999999558,
      "v": 55
    },
    {
      "midi": 69,
      "hit": false,
      "t": 159703.08199999796,
      "d": 91.88899999999558,
      "v": 65
    },
    {
      "midi": 51,
      "hit": false,
      "t": 159703.08199999825,
      "d": 91.88899999999558,
      "v": 67
    },
    {
      "midi": 48,
      "hit": false,
      "t": 159794.97099999824,
      "d": 91.88899999999558,
      "v": 64
    },
    {
      "midi": 38,
      "hit": false,
      "t": 159886.85999999824,
      "d": 91.88899999999558,
      "v": 70
    },
    {
      "midi": 41,
      "hit": false,
      "t": 159978.74899999824,
      "d": 91.88899999999558,
      "v": 62
    },
    {
      "midi": 58,
      "hit": false,
      "t": 160070.63799999794,
      "d": 91.88899999999558,
      "v": 60
    },
    {
      "midi": 65,
      "hit": false,
      "t": 160070.63799999794,
      "d": 91.88899999999558,
      "v": 60
    },
    {
      "midi": 70,
      "hit": false,
      "t": 160070.63799999794,
      "d": 91.88899999999558,
      "v": 71
    },
    {
      "midi": 46,
      "hit": false,
      "t": 160070.63799999823,
      "d": 91.88899999999558,
      "v": 66
    },
    {
      "midi": 50,
      "hit": false,
      "t": 160162.52699999823,
      "d": 91.88899999999558,
      "v": 68
    },
    {
      "midi": 58,
      "hit": false,
      "t": 160254.41599999793,
      "d": 91.88899999999558,
      "v": 58
    },
    {
      "midi": 62,
      "hit": false,
      "t": 160254.41599999793,
      "d": 91.88899999999558,
      "v": 58
    },
    {
      "midi": 65,
      "hit": false,
      "t": 160254.41599999793,
      "d": 91.88899999999558,
      "v": 69
    },
    {
      "midi": 46,
      "hit": false,
      "t": 160254.41599999822,
      "d": 91.88899999999558,
      "v": 67
    },
    {
      "midi": 41,
      "hit": false,
      "t": 160346.30499999822,
      "d": 91.88899999999558,
      "v": 64
    },
    {
      "midi": 31,
      "hit": false,
      "t": 160438.1939999982,
      "d": 91.88899999999558,
      "v": 72
    },
    {
      "midi": 34,
      "hit": false,
      "t": 160530.0829999982,
      "d": 91.88899999999558,
      "v": 67
    },
    {
      "midi": 55,
      "hit": false,
      "t": 160621.9719999979,
      "d": 91.88899999999558,
      "v": 74
    },
    {
      "midi": 58,
      "hit": false,
      "t": 160621.9719999979,
      "d": 91.88899999999558,
      "v": 60
    },
    {
      "midi": 63,
      "hit": false,
      "t": 160621.9719999979,
      "d": 91.88899999999558,
      "v": 72
    },
    {
      "midi": 38,
      "hit": false,
      "t": 160621.9719999982,
      "d": 91.88899999999558,
      "v": 72
    },
    {
      "midi": 43,
      "hit": false,
      "t": 160713.8609999982,
      "d": 91.88899999999558,
      "v": 74
    },
    {
      "midi": 55,
      "hit": false,
      "t": 160805.7499999979,
      "d": 91.88899999999558,
      "v": 58
    },
    {
      "midi": 58,
      "hit": false,
      "t": 160805.7499999979,
      "d": 91.88899999999558,
      "v": 58
    },
    {
      "midi": 62,
      "hit": false,
      "t": 160805.7499999979,
      "d": 91.88899999999558,
      "v": 68
    },
    {
      "midi": 38,
      "hit": false,
      "t": 160805.7499999982,
      "d": 91.88899999999558,
      "v": 71
    },
    {
      "midi": 34,
      "hit": false,
      "t": 160897.6389999982,
      "d": 91.88899999999558,
      "v": 67
    },
    {
      "midi": 39,
      "hit": false,
      "t": 160989.5279999982,
      "d": 91.88899999999558,
      "v": 74
    },
    {
      "midi": 43,
      "hit": false,
      "t": 161081.41699999818,
      "d": 91.88899999999558,
      "v": 66
    },
    {
      "midi": 51,
      "hit": false,
      "t": 161173.3059999979,
      "d": 91.88899999999558,
      "v": 64
    },
    {
      "midi": 55,
      "hit": false,
      "t": 161173.3059999979,
      "d": 91.88899999999558,
      "v": 64
    },
    {
      "midi": 62,
      "hit": false,
      "t": 161173.3059999979,
      "d": 91.88899999999558,
      "v": 76
    },
    {
      "midi": 48,
      "hit": false,
      "t": 161173.30599999818,
      "d": 91.88899999999558,
      "v": 71
    },
    {
      "midi": 43,
      "hit": false,
      "t": 161265.19499999817,
      "d": 91.88899999999558,
      "v": 74
    },
    {
      "midi": 51,
      "hit": false,
      "t": 161357.08399999788,
      "d": 91.88899999999558,
      "v": 62
    },
    {
      "midi": 55,
      "hit": false,
      "t": 161357.08399999788,
      "d": 91.88899999999558,
      "v": 62
    },
    {
      "midi": 60,
      "hit": false,
      "t": 161357.08399999788,
      "d": 91.88899999999558,
      "v": 74
    },
    {
      "midi": 39,
      "hit": false,
      "t": 161357.08399999817,
      "d": 183.77799999999115,
      "v": 72
    },
    {
      "midi": 29,
      "hit": false,
      "t": 161540.86199999816,
      "d": 91.88899999999558,
      "v": 77
    },
    {
      "midi": 36,
      "hit": false,
      "t": 161632.75099999816,
      "d": 91.88899999999558,
      "v": 72
    },
    {
      "midi": 48,
      "hit": false,
      "t": 161724.63999999786,
      "d": 91.88899999999558,
      "v": 79
    },
    {
      "midi": 51,
      "hit": false,
      "t": 161724.63999999786,
      "d": 91.88899999999558,
      "v": 64
    },
    {
      "midi": 58,
      "hit": false,
      "t": 161724.63999999786,
      "d": 91.88899999999558,
      "v": 77
    },
    {
      "midi": 39,
      "hit": false,
      "t": 161724.63999999815,
      "d": 91.88899999999558,
      "v": 77
    },
    {
      "midi": 41,
      "hit": false,
      "t": 161816.52899999815,
      "d": 91.88899999999558,
      "v": 80
    },
    {
      "midi": 48,
      "hit": false,
      "t": 161908.41799999785,
      "d": 91.88899999999558,
      "v": 62
    },
    {
      "midi": 51,
      "hit": false,
      "t": 161908.41799999785,
      "d": 91.88899999999558,
      "v": 62
    },
    {
      "midi": 57,
      "hit": false,
      "t": 161908.41799999785,
      "d": 91.88899999999558,
      "v": 73
    },
    {
      "midi": 29,
      "hit": false,
      "t": 161908.41799999814,
      "d": 91.88899999999558,
      "v": 75
    },
    {
      "midi": 41,
      "hit": false,
      "t": 162000.30699999814,
      "d": 91.88899999999558,
      "v": 72
    },
    {
      "midi": 46,
      "hit": false,
      "t": 162092.19599999784,
      "d": 91.88899999999558,
      "v": 62
    },
    {
      "midi": 34,
      "hit": false,
      "t": 162092.19599999813,
      "d": 91.88899999999558,
      "v": 75
    },
    {
      "midi": 48,
      "hit": false,
      "t": 162184.08499999784,
      "d": 91.88899999999558,
      "v": 63
    },
    {
      "midi": 50,
      "hit": false,
      "t": 162275.97399999783,
      "d": 91.88899999999558,
      "v": 65
    },
    {
      "midi": 46,
      "hit": false,
      "t": 162275.97399999812,
      "d": 91.88899999999558,
      "v": 75
    },
    {
      "midi": 51,
      "hit": false,
      "t": 162367.86299999783,
      "d": 91.88899999999558,
      "v": 66
    },
    {
      "midi": 53,
      "hit": false,
      "t": 162459.75199999782,
      "d": 61.25933333332068,
      "v": 67
    },
    {
      "midi": 46,
      "hit": false,
      "t": 162459.75199999812,
      "d": 91.88899999999558,
      "v": 64
    },
    {
      "midi": 50,
      "hit": false,
      "t": 162459.75199999812,
      "d": 91.88899999999558,
      "v": 77
    },
    {
      "midi": 55,
      "hit": false,
      "t": 162521.01133333115,
      "d": 61.25933333332068,
      "v": 68
    },
    {
      "midi": 57,
      "hit": false,
      "t": 162582.27066666447,
      "d": 61.25933333332068,
      "v": 68
    },
    {
      "midi": 58,
      "hit": false,
      "t": 162643.5299999978,
      "d": 61.25933333332068,
      "v": 69
    },
    {
      "midi": 46,
      "hit": false,
      "t": 162643.5299999981,
      "d": 367.5560000000114,
      "v": 70
    },
    {
      "midi": 50,
      "hit": false,
      "t": 162643.5299999981,
      "d": 367.5560000000114,
      "v": 70
    },
    {
      "midi": 53,
      "hit": false,
      "t": 162643.5299999981,
      "d": 367.5560000000114,
      "v": 83
    },
    {
      "midi": 60,
      "hit": false,
      "t": 162704.7893333311,
      "d": 61.25933333332068,
      "v": 70
    },
    {
      "midi": 62,
      "hit": false,
      "t": 162766.04866666443,
      "d": 61.25933333332068,
      "v": 71
    },
    {
      "midi": 63,
      "hit": false,
      "t": 162827.30799999775,
      "d": 61.25933333332068,
      "v": 72
    },
    {
      "midi": 65,
      "hit": false,
      "t": 162888.56733333107,
      "d": 61.25933333332068,
      "v": 72
    },
    {
      "midi": 67,
      "hit": false,
      "t": 162949.8266666644,
      "d": 61.25933333332068,
      "v": 73
    },
    {
      "midi": 69,
      "hit": false,
      "t": 163011.0859999977,
      "d": 91.88899999999558,
      "v": 85
    },
    {
      "midi": 41,
      "hit": false,
      "t": 163011.08599999812,
      "d": 91.88899999999558,
      "v": 60
    },
    {
      "midi": 48,
      "hit": false,
      "t": 163011.08599999812,
      "d": 91.88899999999558,
      "v": 60
    },
    {
      "midi": 53,
      "hit": false,
      "t": 163011.08599999812,
      "d": 91.88899999999558,
      "v": 71
    },
    {
      "midi": 57,
      "hit": false,
      "t": 163102.9749999977,
      "d": 91.88899999999558,
      "v": 67
    },
    {
      "midi": 58,
      "hit": false,
      "t": 163194.8639999977,
      "d": 91.88899999999558,
      "v": 62
    },
    {
      "midi": 46,
      "hit": false,
      "t": 163194.8639999981,
      "d": 91.88899999999558,
      "v": 67
    },
    {
      "midi": 50,
      "hit": false,
      "t": 163194.8639999981,
      "d": 91.88899999999558,
      "v": 67
    },
    {
      "midi": 53,
      "hit": false,
      "t": 163194.8639999981,
      "d": 91.88899999999558,
      "v": 79
    },
    {
      "midi": 60,
      "hit": false,
      "t": 163286.7529999977,
      "d": 91.88899999999558,
      "v": 63
    },
    {
      "midi": 62,
      "hit": false,
      "t": 163378.6419999977,
      "d": 91.88899999999558,
      "v": 65
    },
    {
      "midi": 46,
      "hit": false,
      "t": 163378.6419999981,
      "d": 91.88899999999558,
      "v": 63
    },
    {
      "midi": 50,
      "hit": false,
      "t": 163378.6419999981,
      "d": 91.88899999999558,
      "v": 63
    },
    {
      "midi": 53,
      "hit": false,
      "t": 163378.6419999981,
      "d": 91.88899999999558,
      "v": 75
    },
    {
      "midi": 63,
      "hit": false,
      "t": 163470.5309999977,
      "d": 91.88899999999558,
      "v": 66
    },
    {
      "midi": 65,
      "hit": false,
      "t": 163562.41999999768,
      "d": 61.25933333332068,
      "v": 67
    },
    {
      "midi": 46,
      "hit": false,
      "t": 163562.4199999981,
      "d": 91.88899999999558,
      "v": 62
    },
    {
      "midi": 50,
      "hit": false,
      "t": 163562.4199999981,
      "d": 91.88899999999558,
      "v": 62
    },
    {
      "midi": 53,
      "hit": false,
      "t": 163562.4199999981,
      "d": 91.88899999999558,
      "v": 74
    },
    {
      "midi": 67,
      "hit": false,
      "t": 163623.679333331,
      "d": 61.25933333332068,
      "v": 68
    },
    {
      "midi": 69,
      "hit": false,
      "t": 163684.93866666433,
      "d": 61.25933333332068,
      "v": 68
    },
    {
      "midi": 70,
      "hit": false,
      "t": 163746.19799999765,
      "d": 61.25933333332068,
      "v": 69
    },
    {
      "midi": 46,
      "hit": false,
      "t": 163746.19799999808,
      "d": 367.5560000000114,
      "v": 69
    },
    {
      "midi": 50,
      "hit": false,
      "t": 163746.19799999808,
      "d": 367.5560000000114,
      "v": 69
    },
    {
      "midi": 53,
      "hit": false,
      "t": 163746.19799999808,
      "d": 367.5560000000114,
      "v": 82
    },
    {
      "midi": 72,
      "hit": false,
      "t": 163807.45733333097,
      "d": 61.25933333332068,
      "v": 70
    },
    {
      "midi": 74,
      "hit": false,
      "t": 163868.7166666643,
      "d": 61.25933333332068,
      "v": 71
    },
    {
      "midi": 75,
      "hit": false,
      "t": 163929.9759999976,
      "d": 61.25933333332068,
      "v": 72
    },
    {
      "midi": 77,
      "hit": false,
      "t": 163991.23533333093,
      "d": 61.25933333332068,
      "v": 72
    },
    {
      "midi": 79,
      "hit": false,
      "t": 164052.49466666425,
      "d": 61.25933333332068,
      "v": 73
    },
    {
      "midi": 81,
      "hit": false,
      "t": 164113.75399999757,
      "d": 91.88899999999558,
      "v": 85
    },
    {
      "midi": 41,
      "hit": false,
      "t": 164113.7539999981,
      "d": 91.88899999999558,
      "v": 63
    },
    {
      "midi": 48,
      "hit": false,
      "t": 164113.7539999981,
      "d": 91.88899999999558,
      "v": 63
    },
    {
      "midi": 53,
      "hit": false,
      "t": 164113.7539999981,
      "d": 91.88899999999558,
      "v": 75
    },
    {
      "midi": 69,
      "hit": false,
      "t": 164205.64299999757,
      "d": 91.88899999999558,
      "v": 67
    },
    {
      "midi": 70,
      "hit": false,
      "t": 164297.53199999756,
      "d": 91.88899999999558,
      "v": 62
    },
    {
      "midi": 46,
      "hit": false,
      "t": 164297.5319999981,
      "d": 91.88899999999558,
      "v": 64
    },
    {
      "midi": 50,
      "hit": false,
      "t": 164297.5319999981,
      "d": 91.88899999999558,
      "v": 64
    },
    {
      "midi": 53,
      "hit": false,
      "t": 164297.5319999981,
      "d": 91.88899999999558,
      "v": 76
    },
    {
      "midi": 72,
      "hit": false,
      "t": 164389.42099999756,
      "d": 91.88899999999558,
      "v": 63
    },
    {
      "midi": 74,
      "hit": false,
      "t": 164481.30999999755,
      "d": 91.88899999999558,
      "v": 65
    },
    {
      "midi": 46,
      "hit": false,
      "t": 164481.30999999808,
      "d": 91.88899999999558,
      "v": 63
    },
    {
      "midi": 50,
      "hit": false,
      "t": 164481.30999999808,
      "d": 91.88899999999558,
      "v": 63
    },
    {
      "midi": 53,
      "hit": false,
      "t": 164481.30999999808,
      "d": 91.88899999999558,
      "v": 75
    },
    {
      "midi": 75,
      "hit": false,
      "t": 164573.19899999755,
      "d": 91.88899999999558,
      "v": 66
    },
    {
      "midi": 77,
      "hit": false,
      "t": 164665.08799999754,
      "d": 61.25933333332068,
      "v": 68
    },
    {
      "midi": 46,
      "hit": false,
      "t": 164665.08799999807,
      "d": 91.88899999999558,
      "v": 61
    },
    {
      "midi": 50,
      "hit": false,
      "t": 164665.08799999807,
      "d": 91.88899999999558,
      "v": 61
    },
    {
      "midi": 53,
      "hit": false,
      "t": 164665.08799999807,
      "d": 91.88899999999558,
      "v": 73
    },
    {
      "midi": 79,
      "hit": false,
      "t": 164726.34733333086,
      "d": 61.25933333332068,
      "v": 70
    },
    {
      "midi": 81,
      "hit": false,
      "t": 164787.6066666642,
      "d": 61.25933333332068,
      "v": 72
    },
    {
      "midi": 82,
      "hit": false,
      "t": 164848.8659999975,
      "d": 91.88899999999558,
      "v": 74
    },
    {
      "midi": 46,
      "hit": false,
      "t": 164848.86599999806,
      "d": 367.5560000000114,
      "v": 70
    },
    {
      "midi": 50,
      "hit": false,
      "t": 164848.86599999806,
      "d": 367.5560000000114,
      "v": 70
    },
    {
      "midi": 53,
      "hit": false,
      "t": 164848.86599999806,
      "d": 367.5560000000114,
      "v": 83
    },
    {
      "midi": 84,
      "hit": false,
      "t": 164940.7549999975,
      "d": 91.88899999999558,
      "v": 75
    },
    {
      "midi": 86,
      "hit": false,
      "t": 165032.6439999975,
      "d": 61.25933333332068,
      "v": 77
    },
    {
      "midi": 87,
      "hit": false,
      "t": 165093.90333333082,
      "d": 61.25933333332068,
      "v": 79
    },
    {
      "midi": 89,
      "hit": false,
      "t": 165155.16266666414,
      "d": 61.25933333332068,
      "v": 81
    },
    {
      "midi": 91,
      "hit": false,
      "t": 165216.42199999746,
      "d": 61.25933333332068,
      "v": 83
    },
    {
      "midi": 41,
      "hit": false,
      "t": 165216.42199999807,
      "d": 91.88899999999558,
      "v": 63
    },
    {
      "midi": 48,
      "hit": false,
      "t": 165216.42199999807,
      "d": 91.88899999999558,
      "v": 63
    },
    {
      "midi": 53,
      "hit": false,
      "t": 165216.42199999807,
      "d": 91.88899999999558,
      "v": 75
    },
    {
      "midi": 93,
      "hit": false,
      "t": 165277.68133333078,
      "d": 61.25933333332068,
      "v": 92
    },
    {
      "midi": 81,
      "hit": false,
      "t": 165338.9406666641,
      "d": 61.25933333332068,
      "v": 85
    },
    {
      "midi": 82,
      "hit": false,
      "t": 165400.19999999742,
      "d": 367.5560000000114,
      "v": 89
    },
    {
      "midi": 94,
      "hit": false,
      "t": 165400.19999999742,
      "d": 367.5560000000114,
      "v": 105
    },
    {
      "midi": 46,
      "hit": false,
      "t": 165400.19999999806,
      "d": 367.5560000000114,
      "v": 69
    },
    {
      "midi": 50,
      "hit": false,
      "t": 165400.19999999806,
      "d": 367.5560000000114,
      "v": 69
    },
    {
      "midi": 53,
      "hit": false,
      "t": 165400.19999999806,
      "d": 367.5560000000114,
      "v": 69
    },
    {
      "midi": 58,
      "hit": false,
      "t": 165400.19999999806,
      "d": 367.5560000000114,
      "v": 82
    },
    {
      "midi": 74,
      "hit": false,
      "t": 165951.53399999742,
      "d": 367.5560000000114,
      "v": 75
    },
    {
      "midi": 77,
      "hit": false,
      "t": 165951.53399999742,
      "d": 367.5560000000114,
      "v": 75
    },
    {
      "midi": 82,
      "hit": false,
      "t": 165951.53399999742,
      "d": 367.5560000000114,
      "v": 90
    },
    {
      "midi": 46,
      "hit": false,
      "t": 165951.53399999806,
      "d": 367.5560000000114,
      "v": 69
    },
    {
      "midi": 50,
      "hit": false,
      "t": 165951.53399999806,
      "d": 367.5560000000114,
      "v": 69
    },
    {
      "midi": 53,
      "hit": false,
      "t": 165951.53399999806,
      "d": 367.5560000000114,
      "v": 69
    },
    {
      "midi": 58,
      "hit": false,
      "t": 165951.53399999806,
      "d": 367.5560000000114,
      "v": 82
    },
    {
      "midi": 62,
      "hit": false,
      "t": 166502.86799999743,
      "d": 367.5560000000114,
      "v": 74
    },
    {
      "midi": 65,
      "hit": false,
      "t": 166502.86799999743,
      "d": 367.5560000000114,
      "v": 74
    },
    {
      "midi": 70,
      "hit": false,
      "t": 166502.86799999743,
      "d": 367.5560000000114,
      "v": 89
    },
    {
      "midi": 46,
      "hit": false,
      "t": 166502.86799999807,
      "d": 367.5560000000114,
      "v": 69
    },
    {
      "midi": 50,
      "hit": false,
      "t": 166502.86799999807,
      "d": 367.5560000000114,
      "v": 69
    },
    {
      "midi": 53,
      "hit": false,
      "t": 166502.86799999807,
      "d": 367.5560000000114,
      "v": 69
    },
    {
      "midi": 58,
      "hit": false,
      "t": 166502.86799999807,
      "d": 367.5560000000114,
      "v": 82
    },
    {
      "midi": 70,
      "hit": false,
      "t": 167421.75799999744,
      "d": 91.88899999999558,
      "v": 45
    },
    {
      "midi": 70,
      "hit": false,
      "t": 167605.53599999743,
      "d": 137.83350000000792,
      "v": 57
    },
    {
      "midi": 66,
      "hit": false,
      "t": 167789.31399999745,
      "d": 91.88899999999558,
      "v": 45
    },
    {
      "midi": 63,
      "hit": false,
      "t": 167973.09199999744,
      "d": 91.88899999999558,
      "v": 45
    },
    {
      "midi": 58,
      "hit": false,
      "t": 168156.86999999807,
      "d": 137.83350000000792,
      "v": 56
    },
    {
      "midi": 54,
      "hit": false,
      "t": 168340.6479999981,
      "d": 91.88899999999558,
      "v": 45
    },
    {
      "midi": 51,
      "hit": false,
      "t": 168524.4259999981,
      "d": 91.88899999999558,
      "v": 45
    },
    {
      "midi": 46,
      "hit": false,
      "t": 168708.20399999808,
      "d": 137.83350000000792,
      "v": 51
    },
    {
      "midi": 42,
      "hit": false,
      "t": 168891.9819999981,
      "d": 91.88899999999558,
      "v": 45
    },
    {
      "midi": 39,
      "hit": false,
      "t": 169075.7599999981,
      "d": 91.88899999999558,
      "v": 45
    },
    {
      "midi": 70,
      "hit": false,
      "t": 169627.09399999745,
      "d": 183.77799999999115,
      "v": 49
    },
    {
      "midi": 82,
      "hit": false,
      "t": 169627.09399999745,
      "d": 183.77799999999115,
      "v": 58
    },
    {
      "midi": 70,
      "hit": false,
      "t": 169810.87199999744,
      "d": 551.3340000000026,
      "v": 49
    },
    {
      "midi": 82,
      "hit": false,
      "t": 169810.87199999744,
      "d": 551.3340000000026,
      "v": 59
    },
    {
      "midi": 63,
      "hit": false,
      "t": 169994.64999999807,
      "d": 91.88899999999558,
      "v": 43
    },
    {
      "midi": 66,
      "hit": false,
      "t": 169994.64999999807,
      "d": 91.88899999999558,
      "v": 51
    },
    {
      "midi": 63,
      "hit": false,
      "t": 170178.42799999806,
      "d": 91.88899999999558,
      "v": 43
    },
    {
      "midi": 66,
      "hit": false,
      "t": 170178.42799999806,
      "d": 91.88899999999558,
      "v": 51
    },
    {
      "midi": 71,
      "hit": false,
      "t": 170362.20599999744,
      "d": 551.3340000000026,
      "v": 52
    },
    {
      "midi": 83,
      "hit": false,
      "t": 170362.20599999744,
      "d": 551.3340000000026,
      "v": 62
    },
    {
      "midi": 63,
      "hit": false,
      "t": 170362.20599999806,
      "d": 91.88899999999558,
      "v": 46
    },
    {
      "midi": 66,
      "hit": false,
      "t": 170362.20599999806,
      "d": 91.88899999999558,
      "v": 55
    },
    {
      "midi": 63,
      "hit": false,
      "t": 170545.98399999805,
      "d": 91.88899999999558,
      "v": 43
    },
    {
      "midi": 66,
      "hit": false,
      "t": 170545.98399999805,
      "d": 91.88899999999558,
      "v": 51
    },
    {
      "midi": 63,
      "hit": false,
      "t": 170729.76199999804,
      "d": 91.88899999999558,
      "v": 43
    },
    {
      "midi": 66,
      "hit": false,
      "t": 170729.76199999804,
      "d": 91.88899999999558,
      "v": 51
    },
    {
      "midi": 72,
      "hit": false,
      "t": 170913.53999999745,
      "d": 551.3340000000026,
      "v": 59
    },
    {
      "midi": 84,
      "hit": false,
      "t": 170913.53999999745,
      "d": 551.3340000000026,
      "v": 70
    },
    {
      "midi": 63,
      "hit": false,
      "t": 170913.53999999803,
      "d": 91.88899999999558,
      "v": 50
    },
    {
      "midi": 66,
      "hit": false,
      "t": 170913.53999999803,
      "d": 91.88899999999558,
      "v": 50
    },
    {
      "midi": 68,
      "hit": false,
      "t": 170913.53999999803,
      "d": 91.88899999999558,
      "v": 59
    },
    {
      "midi": 63,
      "hit": false,
      "t": 171097.31799999802,
      "d": 91.88899999999558,
      "v": 43
    },
    {
      "midi": 66,
      "hit": false,
      "t": 171097.31799999802,
      "d": 91.88899999999558,
      "v": 43
    },
    {
      "midi": 68,
      "hit": false,
      "t": 171097.31799999802,
      "d": 91.88899999999558,
      "v": 51
    },
    {
      "midi": 63,
      "hit": false,
      "t": 171281.095999998,
      "d": 91.88899999999558,
      "v": 43
    },
    {
      "midi": 66,
      "hit": false,
      "t": 171281.095999998,
      "d": 91.88899999999558,
      "v": 43
    },
    {
      "midi": 68,
      "hit": false,
      "t": 171281.095999998,
      "d": 91.88899999999558,
      "v": 51
    },
    {
      "midi": 73,
      "hit": false,
      "t": 171464.87399999745,
      "d": 367.5560000000114,
      "v": 50
    },
    {
      "midi": 85,
      "hit": false,
      "t": 171464.87399999745,
      "d": 367.5560000000114,
      "v": 60
    },
    {
      "midi": 61,
      "hit": false,
      "t": 171464.873999998,
      "d": 91.88899999999558,
      "v": 47
    },
    {
      "midi": 65,
      "hit": false,
      "t": 171464.873999998,
      "d": 91.88899999999558,
      "v": 47
    },
    {
      "midi": 68,
      "hit": false,
      "t": 171464.873999998,
      "d": 91.88899999999558,
      "v": 56
    },
    {
      "midi": 61,
      "hit": false,
      "t": 171648.651999998,
      "d": 91.88899999999558,
      "v": 44
    },
    {
      "midi": 65,
      "hit": false,
      "t": 171648.651999998,
      "d": 91.88899999999558,
      "v": 44
    },
    {
      "midi": 68,
      "hit": false,
      "t": 171648.651999998,
      "d": 91.88899999999558,
      "v": 52
    },
    {
      "midi": 73,
      "hit": false,
      "t": 171832.42999999746,
      "d": 91.88899999999558,
      "v": 45
    },
    {
      "midi": 61,
      "hit": false,
      "t": 171832.42999999798,
      "d": 91.88899999999558,
      "v": 28
    },
    {
      "midi": 65,
      "hit": false,
      "t": 171832.42999999798,
      "d": 91.88899999999558,
      "v": 28
    },
    {
      "midi": 68,
      "hit": false,
      "t": 171832.42999999798,
      "d": 91.88899999999558,
      "v": 32
    },
    {
      "midi": 73,
      "hit": false,
      "t": 172016.20799999745,
      "d": 137.83350000000792,
      "v": 59
    },
    {
      "midi": 70,
      "hit": false,
      "t": 172199.98599999747,
      "d": 91.88899999999558,
      "v": 45
    },
    {
      "midi": 66,
      "hit": false,
      "t": 172383.76399999746,
      "d": 91.88899999999558,
      "v": 45
    },
    {
      "midi": 61,
      "hit": false,
      "t": 172567.54199999798,
      "d": 137.83350000000792,
      "v": 56
    },
    {
      "midi": 58,
      "hit": false,
      "t": 172751.319999998,
      "d": 91.88899999999558,
      "v": 45
    },
    {
      "midi": 54,
      "hit": false,
      "t": 172935.097999998,
      "d": 91.88899999999558,
      "v": 45
    },
    {
      "midi": 49,
      "hit": false,
      "t": 173118.87599999798,
      "d": 137.83350000000792,
      "v": 51
    },
    {
      "midi": 46,
      "hit": false,
      "t": 173302.653999998,
      "d": 91.88899999999558,
      "v": 45
    },
    {
      "midi": 42,
      "hit": false,
      "t": 173486.431999998,
      "d": 91.88899999999558,
      "v": 45
    },
    {
      "midi": 73,
      "hit": false,
      "t": 174037.76599999747,
      "d": 182.24651666666614,
      "v": 49
    },
    {
      "midi": 85,
      "hit": false,
      "t": 174037.76599999747,
      "d": 182.24651666666614,
      "v": 58
    },
    {
      "midi": 73,
      "hit": false,
      "t": 174221.54399999746,
      "d": 551.3340000000026,
      "v": 49
    },
    {
      "midi": 85,
      "hit": false,
      "t": 174221.54399999746,
      "d": 551.3340000000026,
      "v": 59
    },
    {
      "midi": 66,
      "hit": false,
      "t": 174405.32199999798,
      "d": 91.88899999999558,
      "v": 43
    },
    {
      "midi": 70,
      "hit": false,
      "t": 174405.32199999798,
      "d": 91.88899999999558,
      "v": 51
    },
    {
      "midi": 66,
      "hit": false,
      "t": 174589.09999999797,
      "d": 91.88899999999558,
      "v": 43
    },
    {
      "midi": 70,
      "hit": false,
      "t": 174589.09999999797,
      "d": 91.88899999999558,
      "v": 51
    },
    {
      "midi": 75,
      "hit": false,
      "t": 174772.87799999746,
      "d": 1102.6680000000051,
      "v": 52
    },
    {
      "midi": 87,
      "hit": false,
      "t": 174772.87799999746,
      "d": 1102.6680000000051,
      "v": 62
    },
    {
      "midi": 66,
      "hit": false,
      "t": 174772.87799999796,
      "d": 91.88899999999558,
      "v": 46
    },
    {
      "midi": 71,
      "hit": false,
      "t": 174772.87799999796,
      "d": 91.88899999999558,
      "v": 55
    },
    {
      "midi": 66,
      "hit": false,
      "t": 174956.65599999795,
      "d": 91.88899999999558,
      "v": 43
    },
    {
      "midi": 71,
      "hit": false,
      "t": 174956.65599999795,
      "d": 91.88899999999558,
      "v": 51
    },
    {
      "midi": 66,
      "hit": false,
      "t": 175140.43399999794,
      "d": 91.88899999999558,
      "v": 43
    },
    {
      "midi": 71,
      "hit": false,
      "t": 175140.43399999794,
      "d": 91.88899999999558,
      "v": 51
    },
    {
      "midi": 66,
      "hit": false,
      "t": 175324.21199999793,
      "d": 91.88899999999558,
      "v": 43
    },
    {
      "midi": 72,
      "hit": false,
      "t": 175324.21199999793,
      "d": 91.88899999999558,
      "v": 59
    },
    {
      "midi": 66,
      "hit": false,
      "t": 175507.98999999792,
      "d": 91.88899999999558,
      "v": 43
    },
    {
      "midi": 72,
      "hit": false,
      "t": 175507.98999999792,
      "d": 91.88899999999558,
      "v": 51
    },
    {
      "midi": 66,
      "hit": false,
      "t": 175691.76799999792,
      "d": 91.88899999999558,
      "v": 46
    },
    {
      "midi": 72,
      "hit": false,
      "t": 175691.76799999792,
      "d": 91.88899999999558,
      "v": 51
    },
    {
      "midi": 76,
      "hit": false,
      "t": 175875.54599999747,
      "d": 1102.6680000000051,
      "v": 50
    },
    {
      "midi": 88,
      "hit": false,
      "t": 175875.54599999747,
      "d": 1102.6680000000051,
      "v": 60
    },
    {
      "midi": 66,
      "hit": false,
      "t": 175875.5459999979,
      "d": 91.88899999999558,
      "v": 47
    },
    {
      "midi": 73,
      "hit": false,
      "t": 175875.5459999979,
      "d": 91.88899999999558,
      "v": 56
    },
    {
      "midi": 66,
      "hit": false,
      "t": 176059.3239999979,
      "d": 91.88899999999558,
      "v": 44
    },
    {
      "midi": 73,
      "hit": false,
      "t": 176059.3239999979,
      "d": 91.88899999999558,
      "v": 52
    },
    {
      "midi": 66,
      "hit": false,
      "t": 176243.1019999979,
      "d": 91.88899999999558,
      "v": 44
    },
    {
      "midi": 73,
      "hit": false,
      "t": 176243.1019999979,
      "d": 91.88899999999558,
      "v": 53
    },
    {
      "midi": 66,
      "hit": false,
      "t": 176426.87999999788,
      "d": 91.88899999999558,
      "v": 48
    },
    {
      "midi": 73,
      "hit": false,
      "t": 176426.87999999788,
      "d": 91.88899999999558,
      "v": 58
    },
    {
      "midi": 66,
      "hit": false,
      "t": 176610.65799999787,
      "d": 91.88899999999558,
      "v": 44
    },
    {
      "midi": 73,
      "hit": false,
      "t": 176610.65799999787,
      "d": 91.88899999999558,
      "v": 52
    },
    {
      "midi": 66,
      "hit": false,
      "t": 176794.43599999786,
      "d": 91.88899999999558,
      "v": 45
    },
    {
      "midi": 73,
      "hit": false,
      "t": 176794.43599999786,
      "d": 91.88899999999558,
      "v": 54
    },
    {
      "midi": 78,
      "hit": false,
      "t": 176978.21399999748,
      "d": 551.3340000000026,
      "v": 55
    },
    {
      "midi": 90,
      "hit": false,
      "t": 176978.21399999748,
      "d": 551.3340000000026,
      "v": 64
    },
    {
      "midi": 66,
      "hit": false,
      "t": 176978.21399999785,
      "d": 91.88899999999558,
      "v": 50
    },
    {
      "midi": 75,
      "hit": false,
      "t": 176978.21399999785,
      "d": 91.88899999999558,
      "v": 60
    },
    {
      "midi": 66,
      "hit": false,
      "t": 177161.99199999784,
      "d": 91.88899999999558,
      "v": 44
    },
    {
      "midi": 75,
      "hit": false,
      "t": 177161.99199999784,
      "d": 91.88899999999558,
      "v": 53
    },
    {
      "midi": 66,
      "hit": false,
      "t": 177345.76999999784,
      "d": 91.88899999999558,
      "v": 45
    },
    {
      "midi": 75,
      "hit": false,
      "t": 177345.76999999784,
      "d": 91.88899999999558,
      "v": 53
    },
    {
      "midi": 79,
      "hit": false,
      "t": 177529.54799999748,
      "d": 551.3340000000026,
      "v": 57
    },
    {
      "midi": 91,
      "hit": false,
      "t": 177529.54799999748,
      "d": 551.3340000000026,
      "v": 67
    },
    {
      "midi": 66,
      "hit": false,
      "t": 177529.54799999783,
      "d": 91.88899999999558,
      "v": 52
    },
    {
      "midi": 76,
      "hit": false,
      "t": 177529.54799999783,
      "d": 91.88899999999558,
      "v": 62
    },
    {
      "midi": 66,
      "hit": false,
      "t": 177713.32599999782,
      "d": 91.88899999999558,
      "v": 47
    },
    {
      "midi": 76,
      "hit": false,
      "t": 177713.32599999782,
      "d": 91.88899999999558,
      "v": 56
    },
    {
      "midi": 66,
      "hit": false,
      "t": 177897.1039999978,
      "d": 91.88899999999558,
      "v": 47
    },
    {
      "midi": 76,
      "hit": false,
      "t": 177897.1039999978,
      "d": 91.88899999999558,
      "v": 57
    },
    {
      "midi": 80,
      "hit": false,
      "t": 178080.88199999748,
      "d": 1102.6680000000051,
      "v": 59
    },
    {
      "midi": 92,
      "hit": false,
      "t": 178080.88199999748,
      "d": 1102.6680000000051,
      "v": 69
    },
    {
      "midi": 66,
      "hit": false,
      "t": 178080.8819999978,
      "d": 91.88899999999558,
      "v": 54
    },
    {
      "midi": 76,
      "hit": false,
      "t": 178080.8819999978,
      "d": 91.88899999999558,
      "v": 64
    },
    {
      "midi": 66,
      "hit": false,
      "t": 178264.6599999978,
      "d": 91.88899999999558,
      "v": 49
    },
    {
      "midi": 76,
      "hit": false,
      "t": 178264.6599999978,
      "d": 91.88899999999558,
      "v": 58
    },
    {
      "midi": 66,
      "hit": false,
      "t": 178448.43799999778,
      "d": 91.88899999999558,
      "v": 49
    },
    {
      "midi": 76,
      "hit": false,
      "t": 178448.43799999778,
      "d": 91.88899999999558,
      "v": 59
    },
    {
      "midi": 66,
      "hit": false,
      "t": 178632.21599999777,
      "d": 91.88899999999558,
      "v": 56
    },
    {
      "midi": 76,
      "hit": false,
      "t": 178632.21599999777,
      "d": 91.88899999999558,
      "v": 67
    },
    {
      "midi": 66,
      "hit": false,
      "t": 178815.99399999777,
      "d": 91.88899999999558,
      "v": 47
    },
    {
      "midi": 76,
      "hit": false,
      "t": 178815.99399999777,
      "d": 91.88899999999558,
      "v": 56
    },
    {
      "midi": 66,
      "hit": false,
      "t": 178999.77199999776,
      "d": 91.88899999999558,
      "v": 46
    },
    {
      "midi": 76,
      "hit": false,
      "t": 178999.77199999776,
      "d": 91.88899999999558,
      "v": 55
    },
    {
      "midi": 78,
      "hit": false,
      "t": 179183.54999999749,
      "d": 551.3340000000026,
      "v": 57
    },
    {
      "midi": 90,
      "hit": false,
      "t": 179183.54999999749,
      "d": 551.3340000000026,
      "v": 67
    },
    {
      "midi": 66,
      "hit": false,
      "t": 179183.54999999775,
      "d": 91.88899999999558,
      "v": 53
    },
    {
      "midi": 75,
      "hit": false,
      "t": 179183.54999999775,
      "d": 91.88899999999558,
      "v": 63
    },
    {
      "midi": 66,
      "hit": false,
      "t": 179367.32799999774,
      "d": 91.88899999999558,
      "v": 48
    },
    {
      "midi": 75,
      "hit": false,
      "t": 179367.32799999774,
      "d": 91.88899999999558,
      "v": 57
    },
    {
      "midi": 66,
      "hit": false,
      "t": 179551.10599999773,
      "d": 91.88899999999558,
      "v": 47
    },
    {
      "midi": 75,
      "hit": false,
      "t": 179551.10599999773,
      "d": 91.88899999999558,
      "v": 56
    },
    {
      "midi": 76,
      "hit": false,
      "t": 179734.8839999975,
      "d": 551.3340000000026,
      "v": 63
    },
    {
      "midi": 88,
      "hit": false,
      "t": 179734.8839999975,
      "d": 551.3340000000026,
      "v": 63
    },
    {
      "midi": 66,
      "hit": false,
      "t": 179734.88399999772,
      "d": 91.88899999999558,
      "v": 49
    },
    {
      "midi": 73,
      "hit": false,
      "t": 179734.88399999772,
      "d": 91.88899999999558,
      "v": 58
    },
    {
      "midi": 66,
      "hit": false,
      "t": 179918.6619999977,
      "d": 91.88899999999558,
      "v": 43
    },
    {
      "midi": 73,
      "hit": false,
      "t": 179918.6619999977,
      "d": 91.88899999999558,
      "v": 51
    },
    {
      "midi": 66,
      "hit": false,
      "t": 180102.4399999977,
      "d": 91.88899999999558,
      "v": 42
    },
    {
      "midi": 73,
      "hit": false,
      "t": 180102.4399999977,
      "d": 91.88899999999558,
      "v": 50
    },
    {
      "midi": 73,
      "hit": false,
      "t": 180286.2179999975,
      "d": 551.3340000000026,
      "v": 49
    },
    {
      "midi": 85,
      "hit": false,
      "t": 180286.2179999975,
      "d": 551.3340000000026,
      "v": 58
    },
    {
      "midi": 64,
      "hit": false,
      "t": 180286.2179999977,
      "d": 91.88899999999558,
      "v": 41
    },
    {
      "midi": 66,
      "hit": false,
      "t": 180286.2179999977,
      "d": 91.88899999999558,
      "v": 41
    },
    {
      "midi": 70,
      "hit": false,
      "t": 180286.2179999977,
      "d": 91.88899999999558,
      "v": 48
    },
    {
      "midi": 64,
      "hit": false,
      "t": 180469.99599999769,
      "d": 91.88899999999558,
      "v": 36
    },
    {
      "midi": 66,
      "hit": false,
      "t": 180469.99599999769,
      "d": 91.88899999999558,
      "v": 36
    },
    {
      "midi": 70,
      "hit": false,
      "t": 180469.99599999769,
      "d": 91.88899999999558,
      "v": 43
    },
    {
      "midi": 64,
      "hit": false,
      "t": 180653.77399999768,
      "d": 91.88899999999558,
      "v": 35
    },
    {
      "midi": 66,
      "hit": false,
      "t": 180653.77399999768,
      "d": 91.88899999999558,
      "v": 35
    },
    {
      "midi": 70,
      "hit": false,
      "t": 180653.77399999768,
      "d": 91.88899999999558,
      "v": 42
    },
    {
      "midi": 75,
      "hit": false,
      "t": 180837.5519999975,
      "d": 367.5560000000114,
      "v": 54
    },
    {
      "midi": 87,
      "hit": false,
      "t": 180837.5519999975,
      "d": 1102.6680000000051,
      "v": 54
    },
    {
      "midi": 66,
      "hit": false,
      "t": 180837.55199999767,
      "d": 91.88899999999558,
      "v": 46
    },
    {
      "midi": 63,
      "hit": false,
      "t": 180837.55199999767,
      "d": 551.3339999999735,
      "v": 38
    },
    {
      "midi": 68,
      "hit": false,
      "t": 180929.44099999766,
      "d": 91.88899999999558,
      "v": 31
    },
    {
      "midi": 66,
      "hit": false,
      "t": 181021.32999999766,
      "d": 91.88899999999558,
      "v": 36
    },
    {
      "midi": 68,
      "hit": false,
      "t": 181113.21899999765,
      "d": 91.88899999999558,
      "v": 32
    },
    {
      "midi": 80,
      "hit": false,
      "t": 181205.1079999975,
      "d": 183.77799999999115,
      "v": 52
    },
    {
      "midi": 66,
      "hit": false,
      "t": 181205.10799999765,
      "d": 91.88899999999558,
      "v": 36
    },
    {
      "midi": 68,
      "hit": false,
      "t": 181296.99699999765,
      "d": 91.88899999999558,
      "v": 33
    },
    {
      "midi": 78,
      "hit": false,
      "t": 181388.8859999975,
      "d": 367.5560000000114,
      "v": 62
    },
    {
      "midi": 66,
      "hit": false,
      "t": 181388.88599999764,
      "d": 91.88899999999558,
      "v": 48
    },
    {
      "midi": 59,
      "hit": false,
      "t": 181388.88599999764,
      "d": 551.3339999999735,
      "v": 41
    },
    {
      "midi": 68,
      "hit": false,
      "t": 181480.77499999764,
      "d": 91.88899999999558,
      "v": 35
    },
    {
      "midi": 66,
      "hit": false,
      "t": 181572.66399999763,
      "d": 91.88899999999558,
      "v": 40
    },
    {
      "midi": 68,
      "hit": false,
      "t": 181664.55299999763,
      "d": 91.88899999999558,
      "v": 35
    },
    {
      "midi": 75,
      "hit": false,
      "t": 181756.4419999975,
      "d": 183.77799999999115,
      "v": 55
    },
    {
      "midi": 66,
      "hit": false,
      "t": 181756.44199999762,
      "d": 91.88899999999558,
      "v": 42
    },
    {
      "midi": 68,
      "hit": false,
      "t": 181848.33099999762,
      "d": 91.88899999999558,
      "v": 36
    },
    {
      "midi": 73,
      "hit": false,
      "t": 181940.2199999975,
      "d": 367.5560000000114,
      "v": 62
    },
    {
      "midi": 85,
      "hit": false,
      "t": 181940.2199999975,
      "d": 1102.6680000000051,
      "v": 62
    },
    {
      "midi": 66,
      "hit": false,
      "t": 181940.21999999761,
      "d": 91.88899999999558,
      "v": 52
    },
    {
      "midi": 58,
      "hit": false,
      "t": 181940.21999999761,
      "d": 551.3339999999735,
      "v": 43
    },
    {
      "midi": 68,
      "hit": false,
      "t": 182032.1089999976,
      "d": 91.88899999999558,
      "v": 35
    },
    {
      "midi": 66,
      "hit": false,
      "t": 182123.9979999976,
      "d": 91.88899999999558,
      "v": 39
    },
    {
      "midi": 68,
      "hit": false,
      "t": 182215.8869999976,
      "d": 91.88899999999558,
      "v": 34
    },
    {
      "midi": 80,
      "hit": false,
      "t": 182307.7759999975,
      "d": 183.77799999999115,
      "v": 54
    },
    {
      "midi": 66,
      "hit": false,
      "t": 182307.7759999976,
      "d": 91.88899999999558,
      "v": 37
    },
    {
      "midi": 68,
      "hit": false,
      "t": 182399.6649999976,
      "d": 91.88899999999558,
      "v": 33
    },
    {
      "midi": 78,
      "hit": false,
      "t": 182491.5539999975,
      "d": 367.5560000000114,
      "v": 61
    },
    {
      "midi": 66,
      "hit": false,
      "t": 182491.5539999976,
      "d": 91.88899999999558,
      "v": 47
    },
    {
      "midi": 64,
      "hit": false,
      "t": 182491.5539999976,
      "d": 551.3339999999735,
      "v": 41
    },
    {
      "midi": 68,
      "hit": false,
      "t": 182583.44299999758,
      "d": 91.88899999999558,
      "v": 34
    },
    {
      "midi": 66,
      "hit": false,
      "t": 182675.33199999758,
      "d": 91.88899999999558,
      "v": 37
    },
    {
      "midi": 68,
      "hit": false,
      "t": 182767.22099999757,
      "d": 91.88899999999558,
      "v": 32
    },
    {
      "midi": 73,
      "hit": false,
      "t": 182859.1099999975,
      "d": 183.77799999999115,
      "v": 49
    },
    {
      "midi": 66,
      "hit": false,
      "t": 182859.10999999757,
      "d": 91.88899999999558,
      "v": 38
    },
    {
      "midi": 68,
      "hit": false,
      "t": 182950.99899999757,
      "d": 91.88899999999558,
      "v": 31
    },
    {
      "midi": 78,
      "hit": false,
      "t": 183042.8879999975,
      "d": 91.88899999999558,
      "v": 50
    },
    {
      "midi": 87,
      "hit": false,
      "t": 183042.8879999975,
      "d": 551.3339999999735,
      "v": 41
    },
    {
      "midi": 63,
      "hit": false,
      "t": 183042.88799999756,
      "d": 367.5560000000114,
      "v": 48
    },
    {
      "midi": 59,
      "hit": false,
      "t": 183042.88799999756,
      "d": 1102.6680000000051,
      "v": 48
    },
    {
      "midi": 80,
      "hit": false,
      "t": 183134.7769999975,
      "d": 91.88899999999558,
      "v": 34
    },
    {
      "midi": 78,
      "hit": false,
      "t": 183226.6659999975,
      "d": 91.88899999999558,
      "v": 39
    },
    {
      "midi": 80,
      "hit": false,
      "t": 183318.5549999975,
      "d": 91.88899999999558,
      "v": 35
    },
    {
      "midi": 78,
      "hit": false,
      "t": 183410.4439999975,
      "d": 91.88899999999558,
      "v": 39
    },
    {
      "midi": 68,
      "hit": false,
      "t": 183410.44399999757,
      "d": 183.77799999999115,
      "v": 45
    },
    {
      "midi": 80,
      "hit": false,
      "t": 183502.33299999748,
      "d": 91.88899999999558,
      "v": 36
    },
    {
      "midi": 78,
      "hit": false,
      "t": 183594.22199999748,
      "d": 91.88899999999558,
      "v": 52
    },
    {
      "midi": 83,
      "hit": false,
      "t": 183594.22199999748,
      "d": 551.3339999999735,
      "v": 45
    },
    {
      "midi": 66,
      "hit": false,
      "t": 183594.22199999756,
      "d": 367.5560000000114,
      "v": 54
    },
    {
      "midi": 80,
      "hit": false,
      "t": 183686.11099999747,
      "d": 91.88899999999558,
      "v": 38
    },
    {
      "midi": 78,
      "hit": false,
      "t": 183777.99999999747,
      "d": 91.88899999999558,
      "v": 44
    },
    {
      "midi": 80,
      "hit": false,
      "t": 183869.88899999746,
      "d": 91.88899999999558,
      "v": 38
    },
    {
      "midi": 78,
      "hit": false,
      "t": 183961.77799999746,
      "d": 91.88899999999558,
      "v": 46
    },
    {
      "midi": 63,
      "hit": false,
      "t": 183961.77799999758,
      "d": 183.77799999999115,
      "v": 49
    },
    {
      "midi": 80,
      "hit": false,
      "t": 184053.66699999745,
      "d": 91.88899999999558,
      "v": 39
    },
    {
      "midi": 78,
      "hit": false,
      "t": 184145.55599999745,
      "d": 91.88899999999558,
      "v": 57
    },
    {
      "midi": 82,
      "hit": false,
      "t": 184145.55599999745,
      "d": 551.3339999999735,
      "v": 47
    },
    {
      "midi": 61,
      "hit": false,
      "t": 184145.55599999757,
      "d": 367.5560000000114,
      "v": 55
    },
    {
      "midi": 54,
      "hit": false,
      "t": 184145.55599999757,
      "d": 551.3340000000026,
      "v": 46
    },
    {
      "midi": 80,
      "hit": false,
      "t": 184237.44499999745,
      "d": 91.88899999999558,
      "v": 38
    },
    {
      "midi": 78,
      "hit": false,
      "t": 184329.33399999744,
      "d": 91.88899999999558,
      "v": 42
    },
    {
      "midi": 80,
      "hit": false,
      "t": 184421.22299999744,
      "d": 91.88899999999558,
      "v": 37
    },
    {
      "midi": 78,
      "hit": false,
      "t": 184513.11199999743,
      "d": 91.88899999999558,
      "v": 40
    },
    {
      "midi": 68,
      "hit": false,
      "t": 184513.11199999758,
      "d": 183.77799999999115,
      "v": 46
    },
    {
      "midi": 80,
      "hit": false,
      "t": 184605.00099999743,
      "d": 91.88899999999558,
      "v": 36
    },
    {
      "midi": 78,
      "hit": false,
      "t": 184696.88999999742,
      "d": 91.88899999999558,
      "v": 51
    },
    {
      "midi": 90,
      "hit": false,
      "t": 184696.88999999742,
      "d": 551.3339999999735,
      "v": 45
    },
    {
      "midi": 66,
      "hit": false,
      "t": 184696.88999999757,
      "d": 367.5560000000114,
      "v": 53
    },
    {
      "midi": 52,
      "hit": false,
      "t": 184696.88999999757,
      "d": 551.3340000000026,
      "v": 45
    },
    {
      "midi": 80,
      "hit": false,
      "t": 184788.77899999742,
      "d": 91.88899999999558,
      "v": 37
    },
    {
      "midi": 78,
      "hit": false,
      "t": 184880.66799999741,
      "d": 91.88899999999558,
      "v": 40
    },
    {
      "midi": 80,
      "hit": false,
      "t": 184972.5569999974,
      "d": 91.88899999999558,
      "v": 35
    },
    {
      "midi": 78,
      "hit": false,
      "t": 185064.4459999974,
      "d": 91.88899999999558,
      "v": 41
    },
    {
      "midi": 61,
      "hit": false,
      "t": 185064.44599999758,
      "d": 183.77799999999115,
      "v": 44
    },
    {
      "midi": 80,
      "hit": false,
      "t": 185156.3349999974,
      "d": 91.88899999999558,
      "v": 34
    },
    {
      "midi": 78,
      "hit": false,
      "t": 185248.2239999974,
      "d": 551.3340000000026,
      "v": 45
    },
    {
      "midi": 90,
      "hit": false,
      "t": 185248.2239999974,
      "d": 551.3340000000026,
      "v": 50
    },
    {
      "midi": 51,
      "hit": false,
      "t": 185248.22399999757,
      "d": 91.88899999999558,
      "v": 35
    },
    {
      "midi": 59,
      "hit": false,
      "t": 185340.11299999757,
      "d": 91.88899999999558,
      "v": 27
    },
    {
      "midi": 51,
      "hit": false,
      "t": 185432.00199999756,
      "d": 91.88899999999558,
      "v": 31
    },
    {
      "midi": 59,
      "hit": false,
      "t": 185523.89099999756,
      "d": 91.88899999999558,
      "v": 26
    },
    {
      "midi": 51,
      "hit": false,
      "t": 185615.77999999755,
      "d": 91.88899999999558,
      "v": 31
    },
    {
      "midi": 59,
      "hit": false,
      "t": 185707.66899999755,
      "d": 91.88899999999558,
      "v": 27
    },
    {
      "midi": 66,
      "hit": false,
      "t": 185799.5579999974,
      "d": 551.3340000000026,
      "v": 40
    },
    {
      "midi": 78,
      "hit": false,
      "t": 185799.5579999974,
      "d": 551.3340000000026,
      "v": 47
    },
    {
      "midi": 50,
      "hit": false,
      "t": 185799.55799999755,
      "d": 91.88899999999558,
      "v": 37
    },
    {
      "midi": 60,
      "hit": false,
      "t": 185891.44699999754,
      "d": 91.88899999999558,
      "v": 27
    },
    {
      "midi": 50,
      "hit": false,
      "t": 185983.33599999754,
      "d": 91.88899999999558,
      "v": 31
    },
    {
      "midi": 60,
      "hit": false,
      "t": 186075.22499999753,
      "d": 91.88899999999558,
      "v": 27
    },
    {
      "midi": 50,
      "hit": false,
      "t": 186167.11399999753,
      "d": 91.88899999999558,
      "v": 31
    },
    {
      "midi": 60,
      "hit": false,
      "t": 186259.00299999752,
      "d": 91.88899999999558,
      "v": 27
    },
    {
      "midi": 66,
      "hit": false,
      "t": 186350.8919999974,
      "d": 551.3340000000026,
      "v": 41
    },
    {
      "midi": 74,
      "hit": false,
      "t": 186350.8919999974,
      "d": 551.3340000000026,
      "v": 41
    },
    {
      "midi": 78,
      "hit": false,
      "t": 186350.8919999974,
      "d": 551.3340000000026,
      "v": 46
    },
    {
      "midi": 48,
      "hit": false,
      "t": 186350.89199999752,
      "d": 91.88899999999558,
      "v": 35
    },
    {
      "midi": 57,
      "hit": false,
      "t": 186442.7809999975,
      "d": 91.88899999999558,
      "v": 27
    },
    {
      "midi": 48,
      "hit": false,
      "t": 186534.6699999975,
      "d": 91.88899999999558,
      "v": 31
    },
    {
      "midi": 57,
      "hit": false,
      "t": 186626.5589999975,
      "d": 91.88899999999558,
      "v": 26
    },
    {
      "midi": 48,
      "hit": false,
      "t": 186718.4479999975,
      "d": 91.88899999999558,
      "v": 31
    },
    {
      "midi": 57,
      "hit": false,
      "t": 186810.3369999975,
      "d": 91.88899999999558,
      "v": 27
    },
    {
      "midi": 67,
      "hit": false,
      "t": 186902.2259999974,
      "d": 367.5560000000114,
      "v": 45
    },
    {
      "midi": 74,
      "hit": false,
      "t": 186902.2259999974,
      "d": 367.5560000000114,
      "v": 45
    },
    {
      "midi": 79,
      "hit": false,
      "t": 186902.2259999974,
      "d": 367.5560000000114,
      "v": 45
    },
    {
      "midi": 47,
      "hit": false,
      "t": 186902.2259999975,
      "d": 91.88899999999558,
      "v": 37
    },
    {
      "midi": 55,
      "hit": false,
      "t": 186994.1149999975,
      "d": 91.88899999999558,
      "v": 27
    },
    {
      "midi": 47,
      "hit": false,
      "t": 187086.00399999748,
      "d": 91.88899999999558,
      "v": 31
    },
    {
      "midi": 55,
      "hit": false,
      "t": 187177.89299999748,
      "d": 91.88899999999558,
      "v": 27
    },
    {
      "midi": 69,
      "hit": false,
      "t": 187269.78199999742,
      "d": 183.77799999999115,
      "v": 43
    },
    {
      "midi": 74,
      "hit": false,
      "t": 187269.78199999742,
      "d": 183.77799999999115,
      "v": 43
    },
    {
      "midi": 81,
      "hit": false,
      "t": 187269.78199999742,
      "d": 183.77799999999115,
      "v": 43
    },
    {
      "midi": 45,
      "hit": false,
      "t": 187269.78199999747,
      "d": 91.88899999999558,
      "v": 31
    },
    {
      "midi": 54,
      "hit": false,
      "t": 187361.67099999747,
      "d": 91.88899999999558,
      "v": 27
    },
    {
      "midi": 71,
      "hit": false,
      "t": 187453.5599999974,
      "d": 367.5560000000114,
      "v": 54
    },
    {
      "midi": 74,
      "hit": false,
      "t": 187453.5599999974,
      "d": 367.5560000000114,
      "v": 54
    },
    {
      "midi": 83,
      "hit": false,
      "t": 187453.5599999974,
      "d": 367.5560000000114,
      "v": 54
    },
    {
      "midi": 43,
      "hit": false,
      "t": 187453.55999999747,
      "d": 183.77799999999115,
      "v": 36
    },
    {
      "midi": 55,
      "hit": false,
      "t": 187453.55999999747,
      "d": 183.77799999999115,
      "v": 36
    },
    {
      "midi": 55,
      "hit": false,
      "t": 187637.33799999746,
      "d": 91.88899999999558,
      "v": 32
    },
    {
      "midi": 59,
      "hit": false,
      "t": 187637.33799999746,
      "d": 91.88899999999558,
      "v": 38
    },
    {
      "midi": 62,
      "hit": false,
      "t": 187729.22699999745,
      "d": 91.88899999999558,
      "v": 39
    },
    {
      "midi": 76,
      "hit": false,
      "t": 187821.11599999742,
      "d": 183.77799999999115,
      "v": 51
    },
    {
      "midi": 88,
      "hit": false,
      "t": 187821.11599999742,
      "d": 183.77799999999115,
      "v": 51
    },
    {
      "midi": 55,
      "hit": false,
      "t": 187821.11599999745,
      "d": 91.88899999999558,
      "v": 34
    },
    {
      "midi": 59,
      "hit": false,
      "t": 187821.11599999745,
      "d": 91.88899999999558,
      "v": 40
    },
    {
      "midi": 62,
      "hit": false,
      "t": 187913.00499999744,
      "d": 91.88899999999558,
      "v": 36
    },
    {
      "midi": 74,
      "hit": false,
      "t": 188004.8939999974,
      "d": 367.5560000000114,
      "v": 58
    },
    {
      "midi": 86,
      "hit": false,
      "t": 188004.8939999974,
      "d": 367.5560000000114,
      "v": 58
    },
    {
      "midi": 55,
      "hit": false,
      "t": 188004.89399999744,
      "d": 91.88899999999558,
      "v": 35
    },
    {
      "midi": 59,
      "hit": false,
      "t": 188004.89399999744,
      "d": 91.88899999999558,
      "v": 42
    },
    {
      "midi": 62,
      "hit": false,
      "t": 188096.78299999743,
      "d": 91.88899999999558,
      "v": 40
    },
    {
      "midi": 55,
      "hit": false,
      "t": 188188.67199999743,
      "d": 91.88899999999558,
      "v": 37
    },
    {
      "midi": 59,
      "hit": false,
      "t": 188188.67199999743,
      "d": 91.88899999999558,
      "v": 44
    },
    {
      "midi": 62,
      "hit": false,
      "t": 188280.56099999743,
      "d": 91.88899999999558,
      "v": 42
    },
    {
      "midi": 71,
      "hit": false,
      "t": 188372.44999999742,
      "d": 183.77799999999115,
      "v": 50
    },
    {
      "midi": 83,
      "hit": false,
      "t": 188372.44999999742,
      "d": 183.77799999999115,
      "v": 50
    },
    {
      "midi": 55,
      "hit": false,
      "t": 188372.44999999742,
      "d": 91.88899999999558,
      "v": 39
    },
    {
      "midi": 59,
      "hit": false,
      "t": 188372.44999999742,
      "d": 91.88899999999558,
      "v": 46
    },
    {
      "midi": 62,
      "hit": false,
      "t": 188464.33899999742,
      "d": 91.88899999999558,
      "v": 44
    },
    {
      "midi": 69,
      "hit": false,
      "t": 188556.2279999974,
      "d": 367.5560000000114,
      "v": 62
    },
    {
      "midi": 81,
      "hit": false,
      "t": 188556.2279999974,
      "d": 367.5560000000114,
      "v": 62
    },
    {
      "midi": 54,
      "hit": false,
      "t": 188556.2279999974,
      "d": 91.88899999999558,
      "v": 40
    },
    {
      "midi": 60,
      "hit": false,
      "t": 188556.2279999974,
      "d": 91.88899999999558,
      "v": 48
    },
    {
      "midi": 62,
      "hit": false,
      "t": 188648.1169999974,
      "d": 91.88899999999558,
      "v": 42
    },
    {
      "midi": 54,
      "hit": false,
      "t": 188740.0059999974,
      "d": 91.88899999999558,
      "v": 35
    },
    {
      "midi": 60,
      "hit": false,
      "t": 188740.0059999974,
      "d": 91.88899999999558,
      "v": 42
    },
    {
      "midi": 62,
      "hit": false,
      "t": 188831.8949999974,
      "d": 91.88899999999558,
      "v": 42
    },
    {
      "midi": 54,
      "hit": false,
      "t": 188923.7839999974,
      "d": 91.88899999999558,
      "v": 40
    },
    {
      "midi": 60,
      "hit": false,
      "t": 188923.7839999974,
      "d": 91.88899999999558,
      "v": 48
    },
    {
      "midi": 76,
      "hit": false,
      "t": 188923.78399999742,
      "d": 183.77799999999115,
      "v": 50
    },
    {
      "midi": 88,
      "hit": false,
      "t": 188923.78399999742,
      "d": 183.77799999999115,
      "v": 50
    },
    {
      "midi": 62,
      "hit": false,
      "t": 189015.6729999974,
      "d": 91.88899999999558,
      "v": 44
    },
    {
      "midi": 54,
      "hit": false,
      "t": 189107.5619999974,
      "d": 91.88899999999558,
      "v": 39
    },
    {
      "midi": 60,
      "hit": false,
      "t": 189107.5619999974,
      "d": 91.88899999999558,
      "v": 46
    },
    {
      "midi": 74,
      "hit": false,
      "t": 189107.56199999742,
      "d": 367.5560000000114,
      "v": 58
    },
    {
      "midi": 86,
      "hit": false,
      "t": 189107.56199999742,
      "d": 367.5560000000114,
      "v": 58
    },
    {
      "midi": 62,
      "hit": false,
      "t": 189199.45099999738,
      "d": 91.88899999999558,
      "v": 41
    },
    {
      "midi": 54,
      "hit": false,
      "t": 189291.33999999738,
      "d": 91.88899999999558,
      "v": 37
    },
    {
      "midi": 60,
      "hit": false,
      "t": 189291.33999999738,
      "d": 91.88899999999558,
      "v": 44
    },
    {
      "midi": 62,
      "hit": false,
      "t": 189383.22899999737,
      "d": 91.88899999999558,
      "v": 39
    },
    {
      "midi": 54,
      "hit": false,
      "t": 189475.11799999737,
      "d": 91.88899999999558,
      "v": 35
    },
    {
      "midi": 60,
      "hit": false,
      "t": 189475.11799999737,
      "d": 91.88899999999558,
      "v": 42
    },
    {
      "midi": 69,
      "hit": false,
      "t": 189475.11799999743,
      "d": 183.77799999999115,
      "v": 53
    },
    {
      "midi": 81,
      "hit": false,
      "t": 189475.11799999743,
      "d": 183.77799999999115,
      "v": 53
    },
    {
      "midi": 62,
      "hit": false,
      "t": 189567.00699999736,
      "d": 91.88899999999558,
      "v": 36
    },
    {
      "midi": 59,
      "hit": false,
      "t": 189658.89599999736,
      "d": 367.5560000000114,
      "v": 48
    },
    {
      "midi": 55,
      "hit": false,
      "t": 189658.89599999736,
      "d": 1102.6680000000051,
      "v": 48
    },
    {
      "midi": 74,
      "hit": false,
      "t": 189658.89599999742,
      "d": 91.88899999999558,
      "v": 46
    },
    {
      "midi": 83,
      "hit": false,
      "t": 189658.89599999742,
      "d": 551.3339999999735,
      "v": 38
    },
    {
      "midi": 76,
      "hit": false,
      "t": 189750.7849999974,
      "d": 91.88899999999558,
      "v": 31
    },
    {
      "midi": 74,
      "hit": false,
      "t": 189842.6739999974,
      "d": 91.88899999999558,
      "v": 36
    },
    {
      "midi": 76,
      "hit": false,
      "t": 189934.5629999974,
      "d": 91.88899999999558,
      "v": 32
    },
    {
      "midi": 64,
      "hit": false,
      "t": 190026.45199999737,
      "d": 183.77799999999115,
      "v": 45
    },
    {
      "midi": 74,
      "hit": false,
      "t": 190026.4519999974,
      "d": 91.88899999999558,
      "v": 36
    },
    {
      "midi": 76,
      "hit": false,
      "t": 190118.3409999974,
      "d": 91.88899999999558,
      "v": 33
    },
    {
      "midi": 62,
      "hit": false,
      "t": 190210.22999999736,
      "d": 367.5560000000114,
      "v": 54
    },
    {
      "midi": 74,
      "hit": false,
      "t": 190210.2299999974,
      "d": 91.88899999999558,
      "v": 48
    },
    {
      "midi": 79,
      "hit": false,
      "t": 190210.2299999974,
      "d": 551.3339999999735,
      "v": 41
    },
    {
      "midi": 76,
      "hit": false,
      "t": 190302.1189999974,
      "d": 91.88899999999558,
      "v": 35
    },
    {
      "midi": 74,
      "hit": false,
      "t": 190394.00799999738,
      "d": 91.88899999999558,
      "v": 40
    },
    {
      "midi": 76,
      "hit": false,
      "t": 190485.89699999738,
      "d": 91.88899999999558,
      "v": 35
    },
    {
      "midi": 74,
      "hit": false,
      "t": 190577.78599999737,
      "d": 91.88899999999558,
      "v": 42
    },
    {
      "midi": 59,
      "hit": false,
      "t": 190577.78599999737,
      "d": 183.77799999999115,
      "v": 49
    },
    {
      "midi": 76,
      "hit": false,
      "t": 190669.67499999737,
      "d": 91.88899999999558,
      "v": 36
    },
    {
      "midi": 74,
      "hit": false,
      "t": 190761.56399999736,
      "d": 91.88899999999558,
      "v": 52
    },
    {
      "midi": 78,
      "hit": false,
      "t": 190761.56399999736,
      "d": 551.3339999999735,
      "v": 43
    },
    {
      "midi": 57,
      "hit": false,
      "t": 190761.56399999736,
      "d": 367.5560000000114,
      "v": 55
    },
    {
      "midi": 50,
      "hit": false,
      "t": 190761.56399999736,
      "d": 1102.6680000000051,
      "v": 46
    },
    {
      "midi": 76,
      "hit": false,
      "t": 190853.45299999736,
      "d": 91.88899999999558,
      "v": 35
    },
    {
      "midi": 74,
      "hit": false,
      "t": 190945.34199999736,
      "d": 91.88899999999558,
      "v": 39
    },
    {
      "midi": 76,
      "hit": false,
      "t": 191037.23099999735,
      "d": 91.88899999999558,
      "v": 34
    },
    {
      "midi": 74,
      "hit": false,
      "t": 191129.11999999735,
      "d": 91.88899999999558,
      "v": 37
    },
    {
      "midi": 64,
      "hit": false,
      "t": 191129.11999999738,
      "d": 183.77799999999115,
      "v": 46
    },
    {
      "midi": 76,
      "hit": false,
      "t": 191221.00899999734,
      "d": 91.88899999999558,
      "v": 33
    },
    {
      "midi": 74,
      "hit": false,
      "t": 191312.89799999734,
      "d": 91.88899999999558,
      "v": 47
    },
    {
      "midi": 84,
      "hit": false,
      "t": 191312.89799999734,
      "d": 551.3339999999735,
      "v": 41
    },
    {
      "midi": 62,
      "hit": false,
      "t": 191312.89799999737,
      "d": 367.5560000000114,
      "v": 53
    },
    {
      "midi": 76,
      "hit": false,
      "t": 191404.78699999733,
      "d": 91.88899999999558,
      "v": 34
    },
    {
      "midi": 74,
      "hit": false,
      "t": 191496.67599999733,
      "d": 91.88899999999558,
      "v": 37
    },
    {
      "midi": 76,
      "hit": false,
      "t": 191588.56499999732,
      "d": 91.88899999999558,
      "v": 32
    },
    {
      "midi": 74,
      "hit": false,
      "t": 191680.45399999732,
      "d": 183.77799999999115,
      "v": 38
    },
    {
      "midi": 57,
      "hit": false,
      "t": 191680.45399999738,
      "d": 183.77799999999115,
      "v": 44
    },
    {
      "midi": 74,
      "hit": false,
      "t": 191864.2319999973,
      "d": 183.77799999999115,
      "v": 42
    },
    {
      "midi": 83,
      "hit": false,
      "t": 191864.2319999973,
      "d": 183.77799999999115,
      "v": 50
    },
    {
      "midi": 55,
      "hit": false,
      "t": 191864.23199999737,
      "d": 367.5560000000114,
      "v": 37
    },
    {
      "midi": 59,
      "hit": false,
      "t": 191864.23199999737,
      "d": 367.5560000000114,
      "v": 37
    },
    {
      "midi": 62,
      "hit": false,
      "t": 191864.23199999737,
      "d": 367.5560000000114,
      "v": 44
    },
    {
      "midi": 71,
      "hit": false,
      "t": 192048.0099999973,
      "d": 183.77799999999115,
      "v": 44
    },
    {
      "midi": 67,
      "hit": false,
      "t": 192231.7879999973,
      "d": 91.88899999999558,
      "v": 42
    },
    {
      "midi": 86,
      "hit": false,
      "t": 192231.7879999973,
      "d": 91.88899999999558,
      "v": 50
    },
    {
      "midi": 66,
      "hit": false,
      "t": 192415.56599999728,
      "d": 183.77799999999115,
      "v": 45
    },
    {
      "midi": 86,
      "hit": false,
      "t": 192415.56599999728,
      "d": 183.77799999999115,
      "v": 54
    },
    {
      "midi": 67,
      "hit": false,
      "t": 192599.34399999728,
      "d": 183.77799999999115,
      "v": 39
    },
    {
      "midi": 83,
      "hit": false,
      "t": 192599.34399999728,
      "d": 183.77799999999115,
      "v": 46
    },
    {
      "midi": 71,
      "hit": false,
      "t": 192783.12199999727,
      "d": 91.88899999999558,
      "v": 38
    },
    {
      "midi": 79,
      "hit": false,
      "t": 192783.12199999727,
      "d": 91.88899999999558,
      "v": 45
    },
    {
      "midi": 62,
      "hit": false,
      "t": 192783.12199999738,
      "d": 91.88899999999558,
      "v": 44
    },
    {
      "midi": 62,
      "hit": false,
      "t": 192966.89999999737,
      "d": 183.77799999999115,
      "v": 44
    },
    {
      "midi": 71,
      "hit": false,
      "t": 193150.67799999725,
      "d": 183.77799999999115,
      "v": 46
    },
    {
      "midi": 59,
      "hit": false,
      "t": 193150.67799999737,
      "d": 183.77799999999115,
      "v": 38
    },
    {
      "midi": 74,
      "hit": false,
      "t": 193334.45599999724,
      "d": 183.77799999999115,
      "v": 46
    },
    {
      "midi": 55,
      "hit": false,
      "t": 193334.45599999736,
      "d": 183.77799999999115,
      "v": 38
    },
    {
      "midi": 79,
      "hit": false,
      "t": 193518.23399999723,
      "d": 183.77799999999115,
      "v": 50
    },
    {
      "midi": 53,
      "hit": false,
      "t": 193518.23399999735,
      "d": 183.77799999999115,
      "v": 44
    },
    {
      "midi": 83,
      "hit": false,
      "t": 193702.01199999722,
      "d": 183.77799999999115,
      "v": 50
    },
    {
      "midi": 50,
      "hit": false,
      "t": 193702.01199999734,
      "d": 183.77799999999115,
      "v": 44
    },
    {
      "midi": 79,
      "hit": false,
      "t": 193885.7899999972,
      "d": 91.88899999999558,
      "v": 43
    },
    {
      "midi": 86,
      "hit": false,
      "t": 193885.7899999972,
      "d": 91.88899999999558,
      "v": 53
    },
    {
      "midi": 47,
      "hit": false,
      "t": 193885.78999999733,
      "d": 91.88899999999558,
      "v": 44
    },
    {
      "midi": 79,
      "hit": false,
      "t": 194069.5679999972,
      "d": 183.77799999999115,
      "v": 45
    },
    {
      "midi": 88,
      "hit": false,
      "t": 194069.5679999972,
      "d": 367.5559999999823,
      "v": 57
    },
    {
      "midi": 48,
      "hit": false,
      "t": 194069.56799999732,
      "d": 367.5560000000114,
      "v": 44
    },
    {
      "midi": 76,
      "hit": false,
      "t": 194253.3459999972,
      "d": 183.77799999999115,
      "v": 46
    },
    {
      "midi": 72,
      "hit": false,
      "t": 194437.1239999972,
      "d": 183.77799999999115,
      "v": 46
    },
    {
      "midi": 67,
      "hit": false,
      "t": 194437.12399999733,
      "d": 181.48077500000363,
      "v": 40
    },
    {
      "midi": 71,
      "hit": false,
      "t": 194620.90199999718,
      "d": 183.77799999999115,
      "v": 53
    },
    {
      "midi": 67,
      "hit": false,
      "t": 194620.90199999732,
      "d": 183.77799999999115,
      "v": 44
    },
    {
      "midi": 72,
      "hit": false,
      "t": 194804.67999999717,
      "d": 183.77799999999115,
      "v": 46
    },
    {
      "midi": 64,
      "hit": false,
      "t": 194804.67999999732,
      "d": 183.77799999999115,
      "v": 40
    },
    {
      "midi": 76,
      "hit": false,
      "t": 194988.45799999716,
      "d": 183.77799999999115,
      "v": 46
    },
    {
      "midi": 55,
      "hit": false,
      "t": 194988.4579999973,
      "d": 182.24651666666614,
      "v": 34
    },
    {
      "midi": 60,
      "hit": false,
      "t": 194988.4579999973,
      "d": 182.24651666666614,
      "v": 40
    },
    {
      "midi": 55,
      "hit": false,
      "t": 195172.2359999973,
      "d": 183.77799999999115,
      "v": 44
    },
    {
      "midi": 79,
      "hit": false,
      "t": 195356.01399999714,
      "d": 183.77799999999115,
      "v": 50
    },
    {
      "midi": 52,
      "hit": false,
      "t": 195356.0139999973,
      "d": 183.77799999999115,
      "v": 40
    },
    {
      "midi": 84,
      "hit": false,
      "t": 195539.79199999713,
      "d": 183.77799999999115,
      "v": 54
    },
    {
      "midi": 48,
      "hit": false,
      "t": 195539.79199999728,
      "d": 183.77799999999115,
      "v": 40
    },
    {
      "midi": 76,
      "hit": false,
      "t": 195723.56999999713,
      "d": 367.5560000000114,
      "v": 51
    },
    {
      "midi": 88,
      "hit": false,
      "t": 195723.56999999713,
      "d": 367.5560000000114,
      "v": 60
    },
    {
      "midi": 43,
      "hit": false,
      "t": 195723.56999999727,
      "d": 183.77799999999115,
      "v": 44
    },
    {
      "midi": 36,
      "hit": false,
      "t": 195907.34799999726,
      "d": 183.77799999999115,
      "v": 39
    },
    {
      "midi": 75,
      "hit": false,
      "t": 196091.12599999714,
      "d": 183.77799999999115,
      "v": 52
    },
    {
      "midi": 87,
      "hit": false,
      "t": 196091.12599999714,
      "d": 183.77799999999115,
      "v": 62
    },
    {
      "midi": 48,
      "hit": false,
      "t": 196091.12599999725,
      "d": 182.24651666666614,
      "v": 39
    },
    {
      "midi": 87,
      "hit": false,
      "t": 196274.90399999713,
      "d": 183.77799999999115,
      "v": 60
    },
    {
      "midi": 48,
      "hit": false,
      "t": 196274.90399999724,
      "d": 91.88899999999558,
      "v": 39
    },
    {
      "midi": 51,
      "hit": false,
      "t": 196366.79299999724,
      "d": 91.88899999999558,
      "v": 31
    },
    {
      "midi": 84,
      "hit": false,
      "t": 196458.68199999712,
      "d": 183.77799999999115,
      "v": 55
    },
    {
      "midi": 56,
      "hit": false,
      "t": 196458.68199999724,
      "d": 91.88899999999558,
      "v": 31
    },
    {
      "midi": 51,
      "hit": false,
      "t": 196550.57099999723,
      "d": 91.88899999999558,
      "v": 31
    },
    {
      "midi": 80,
      "hit": false,
      "t": 196642.4599999971,
      "d": 137.83350000000792,
      "v": 55
    },
    {
      "midi": 56,
      "hit": false,
      "t": 196642.45999999723,
      "d": 91.88899999999558,
      "v": 30
    },
    {
      "midi": 51,
      "hit": false,
      "t": 196734.34899999722,
      "d": 91.88899999999558,
      "v": 32
    },
    {
      "midi": 79,
      "hit": false,
      "t": 196826.23799999713,
      "d": 183.77799999999115,
      "v": 60
    },
    {
      "midi": 49,
      "hit": false,
      "t": 196826.23799999722,
      "d": 91.88899999999558,
      "v": 41
    },
    {
      "midi": 51,
      "hit": false,
      "t": 196918.1269999972,
      "d": 91.88899999999558,
      "v": 32
    },
    {
      "midi": 82,
      "hit": false,
      "t": 197010.01599999712,
      "d": 183.77799999999115,
      "v": 57
    },
    {
      "midi": 55,
      "hit": false,
      "t": 197010.0159999972,
      "d": 91.88899999999558,
      "v": 33
    },
    {
      "midi": 58,
      "hit": false,
      "t": 197101.9049999972,
      "d": 91.88899999999558,
      "v": 33
    },
    {
      "midi": 75,
      "hit": false,
      "t": 197193.7939999971,
      "d": 137.83350000000792,
      "v": 50
    },
    {
      "midi": 87,
      "hit": false,
      "t": 197193.7939999971,
      "d": 137.83350000000792,
      "v": 57
    },
    {
      "midi": 61,
      "hit": false,
      "t": 197193.7939999972,
      "d": 91.88899999999558,
      "v": 33
    },
    {
      "midi": 55,
      "hit": false,
      "t": 197285.6829999972,
      "d": 91.88899999999558,
      "v": 33
    },
    {
      "midi": 75,
      "hit": false,
      "t": 197377.57199999713,
      "d": 183.77799999999115,
      "v": 58
    },
    {
      "midi": 56,
      "hit": false,
      "t": 197377.5719999972,
      "d": 91.88899999999558,
      "v": 40
    },
    {
      "midi": 60,
      "hit": false,
      "t": 197469.4609999972,
      "d": 91.88899999999558,
      "v": 32
    },
    {
      "midi": 72,
      "hit": false,
      "t": 197561.34999999712,
      "d": 183.77799999999115,
      "v": 50
    },
    {
      "midi": 63,
      "hit": false,
      "t": 197561.34999999718,
      "d": 91.88899999999558,
      "v": 33
    },
    {
      "midi": 60,
      "hit": false,
      "t": 197653.23899999718,
      "d": 91.88899999999558,
      "v": 33
    },
    {
      "midi": 68,
      "hit": false,
      "t": 197745.12799999712,
      "d": 137.83350000000792,
      "v": 50
    },
    {
      "midi": 63,
      "hit": false,
      "t": 197745.12799999717,
      "d": 91.88899999999558,
      "v": 34
    },
    {
      "midi": 60,
      "hit": false,
      "t": 197837.01699999717,
      "d": 91.88899999999558,
      "v": 34
    },
    {
      "midi": 75,
      "hit": false,
      "t": 197928.90599999714,
      "d": 183.77799999999115,
      "v": 58
    },
    {
      "midi": 55,
      "hit": false,
      "t": 197928.90599999717,
      "d": 91.88899999999558,
      "v": 42
    },
    {
      "midi": 58,
      "hit": false,
      "t": 198020.79499999716,
      "d": 91.88899999999558,
      "v": 33
    },
    {
      "midi": 70,
      "hit": false,
      "t": 198112.68399999713,
      "d": 183.77799999999115,
      "v": 51
    },
    {
      "midi": 63,
      "hit": false,
      "t": 198112.68399999716,
      "d": 91.88899999999558,
      "v": 33
    },
    {
      "midi": 58,
      "hit": false,
      "t": 198204.57299999715,
      "d": 91.88899999999558,
      "v": 33
    },
    {
      "midi": 70,
      "hit": false,
      "t": 198296.46199999712,
      "d": 137.83350000000792,
      "v": 51
    },
    {
      "midi": 82,
      "hit": false,
      "t": 198296.46199999712,
      "d": 137.83350000000792,
      "v": 51
    },
    {
      "midi": 55,
      "hit": false,
      "t": 198296.46199999715,
      "d": 91.88899999999558,
      "v": 33
    },
    {
      "midi": 58,
      "hit": false,
      "t": 198388.35099999714,
      "d": 91.88899999999558,
      "v": 33
    },
    {
      "midi": 70,
      "hit": false,
      "t": 198480.23999999714,
      "d": 183.77799999999115,
      "v": 50
    },
    {
      "midi": 82,
      "hit": false,
      "t": 198480.23999999714,
      "d": 183.77799999999115,
      "v": 59
    },
    {
      "midi": 51,
      "hit": false,
      "t": 198480.23999999714,
      "d": 91.88899999999558,
      "v": 41
    },
    {
      "midi": 55,
      "hit": false,
      "t": 198572.12899999713,
      "d": 91.88899999999558,
      "v": 33
    },
    {
      "midi": 67,
      "hit": false,
      "t": 198664.01799999713,
      "d": 183.77799999999115,
      "v": 43
    },
    {
      "midi": 79,
      "hit": false,
      "t": 198664.01799999713,
      "d": 183.77799999999115,
      "v": 51
    },
    {
      "midi": 58,
      "hit": false,
      "t": 198664.01799999713,
      "d": 91.88899999999558,
      "v": 34
    },
    {
      "midi": 55,
      "hit": false,
      "t": 198755.90699999713,
      "d": 91.88899999999558,
      "v": 35
    },
    {
      "midi": 63,
      "hit": false,
      "t": 198847.79599999712,
      "d": 183.77799999999115,
      "v": 39
    },
    {
      "midi": 75,
      "hit": false,
      "t": 198847.79599999712,
      "d": 183.77799999999115,
      "v": 47
    },
    {
      "midi": 58,
      "hit": false,
      "t": 198847.79599999712,
      "d": 91.88899999999558,
      "v": 35
    },
    {
      "midi": 55,
      "hit": false,
      "t": 198939.68499999712,
      "d": 91.88899999999558,
      "v": 35
    },
    {
      "midi": 62,
      "hit": false,
      "t": 199031.5739999971,
      "d": 183.77799999999115,
      "v": 45
    },
    {
      "midi": 74,
      "hit": false,
      "t": 199031.5739999971,
      "d": 183.77799999999115,
      "v": 54
    },
    {
      "midi": 46,
      "hit": false,
      "t": 199031.5739999971,
      "d": 91.88899999999558,
      "v": 43
    },
    {
      "midi": 56,
      "hit": false,
      "t": 199123.4629999971,
      "d": 91.88899999999558,
      "v": 34
    },
    {
      "midi": 65,
      "hit": false,
      "t": 199215.3519999971,
      "d": 183.77799999999115,
      "v": 41
    },
    {
      "midi": 77,
      "hit": false,
      "t": 199215.3519999971,
      "d": 183.77799999999115,
      "v": 49
    },
    {
      "midi": 58,
      "hit": false,
      "t": 199215.3519999971,
      "d": 91.88899999999558,
      "v": 34
    },
    {
      "midi": 56,
      "hit": false,
      "t": 199307.2409999971,
      "d": 91.88899999999558,
      "v": 34
    },
    {
      "midi": 70,
      "hit": false,
      "t": 199399.1299999971,
      "d": 137.83350000000792,
      "v": 42
    },
    {
      "midi": 82,
      "hit": false,
      "t": 199399.1299999971,
      "d": 137.83350000000792,
      "v": 50
    },
    {
      "midi": 58,
      "hit": false,
      "t": 199399.1299999971,
      "d": 91.88899999999558,
      "v": 34
    },
    {
      "midi": 56,
      "hit": false,
      "t": 199491.0189999971,
      "d": 91.88899999999558,
      "v": 34
    },
    {
      "midi": 51,
      "hit": false,
      "t": 199582.90799999709,
      "d": 91.88899999999558,
      "v": 42
    },
    {
      "midi": 70,
      "hit": false,
      "t": 199582.9079999971,
      "d": 183.77799999999115,
      "v": 46
    },
    {
      "midi": 82,
      "hit": false,
      "t": 199582.9079999971,
      "d": 183.77799999999115,
      "v": 55
    },
    {
      "midi": 55,
      "hit": false,
      "t": 199674.79699999708,
      "d": 91.88899999999558,
      "v": 34
    },
    {
      "midi": 58,
      "hit": false,
      "t": 199766.68599999708,
      "d": 91.88899999999558,
      "v": 36
    },
    {
      "midi": 67,
      "hit": false,
      "t": 199766.6859999971,
      "d": 183.77799999999115,
      "v": 43
    },
    {
      "midi": 79,
      "hit": false,
      "t": 199766.6859999971,
      "d": 183.77799999999115,
      "v": 51
    },
    {
      "midi": 55,
      "hit": false,
      "t": 199858.57499999707,
      "d": 91.88899999999558,
      "v": 36
    },
    {
      "midi": 58,
      "hit": false,
      "t": 199950.46399999707,
      "d": 91.88899999999558,
      "v": 36
    },
    {
      "midi": 63,
      "hit": false,
      "t": 199950.4639999971,
      "d": 137.83350000000792,
      "v": 43
    },
    {
      "midi": 75,
      "hit": false,
      "t": 199950.4639999971,
      "d": 137.83350000000792,
      "v": 51
    },
    {
      "midi": 55,
      "hit": false,
      "t": 200042.35299999706,
      "d": 91.88899999999558,
      "v": 36
    },
    {
      "midi": 58,
      "hit": false,
      "t": 200134.24199999706,
      "d": 91.88899999999558,
      "v": 45
    },
    {
      "midi": 63,
      "hit": false,
      "t": 200134.24199999712,
      "d": 183.77799999999115,
      "v": 47
    },
    {
      "midi": 75,
      "hit": false,
      "t": 200134.24199999712,
      "d": 183.77799999999115,
      "v": 56
    },
    {
      "midi": 55,
      "hit": false,
      "t": 200226.13099999705,
      "d": 91.88899999999558,
      "v": 35
    },
    {
      "midi": 58,
      "hit": false,
      "t": 200318.01999999705,
      "d": 91.88899999999558,
      "v": 35
    },
    {
      "midi": 67,
      "hit": false,
      "t": 200318.0199999971,
      "d": 183.77799999999115,
      "v": 40
    },
    {
      "midi": 79,
      "hit": false,
      "t": 200318.0199999971,
      "d": 183.77799999999115,
      "v": 48
    },
    {
      "midi": 55,
      "hit": false,
      "t": 200409.90899999705,
      "d": 91.88899999999558,
      "v": 35
    },
    {
      "midi": 52,
      "hit": false,
      "t": 200501.79799999704,
      "d": 91.88899999999558,
      "v": 35
    },
    {
      "midi": 72,
      "hit": false,
      "t": 200501.7979999971,
      "d": 137.83350000000792,
      "v": 49
    },
    {
      "midi": 84,
      "hit": false,
      "t": 200501.7979999971,
      "d": 137.83350000000792,
      "v": 58
    },
    {
      "midi": 55,
      "hit": false,
      "t": 200593.68699999704,
      "d": 91.88899999999558,
      "v": 35
    },
    {
      "midi": 53,
      "hit": false,
      "t": 200685.57599999703,
      "d": 91.88899999999558,
      "v": 43
    },
    {
      "midi": 72,
      "hit": false,
      "t": 200685.57599999712,
      "d": 183.77799999999115,
      "v": 53
    },
    {
      "midi": 84,
      "hit": false,
      "t": 200685.57599999712,
      "d": 183.77799999999115,
      "v": 63
    },
    {
      "midi": 56,
      "hit": false,
      "t": 200777.46499999703,
      "d": 91.88899999999558,
      "v": 36
    },
    {
      "midi": 60,
      "hit": false,
      "t": 200869.35399999702,
      "d": 91.88899999999558,
      "v": 37
    },
    {
      "midi": 68,
      "hit": false,
      "t": 200869.3539999971,
      "d": 183.77799999999115,
      "v": 48
    },
    {
      "midi": 80,
      "hit": false,
      "t": 200869.3539999971,
      "d": 183.77799999999115,
      "v": 57
    },
    {
      "midi": 56,
      "hit": false,
      "t": 200961.24299999702,
      "d": 91.88899999999558,
      "v": 37
    },
    {
      "midi": 60,
      "hit": false,
      "t": 201053.13199999701,
      "d": 91.88899999999558,
      "v": 37
    },
    {
      "midi": 65,
      "hit": false,
      "t": 201053.1319999971,
      "d": 183.77799999999115,
      "v": 48
    },
    {
      "midi": 77,
      "hit": false,
      "t": 201053.1319999971,
      "d": 183.77799999999115,
      "v": 57
    },
    {
      "midi": 56,
      "hit": false,
      "t": 201145.020999997,
      "d": 91.88899999999558,
      "v": 37
    },
    {
      "midi": 48,
      "hit": false,
      "t": 201236.909999997,
      "d": 91.88899999999558,
      "v": 46
    },
    {
      "midi": 64,
      "hit": false,
      "t": 201236.9099999971,
      "d": 183.77799999999115,
      "v": 53
    },
    {
      "midi": 76,
      "hit": false,
      "t": 201236.9099999971,
      "d": 183.77799999999115,
      "v": 63
    },
    {
      "midi": 58,
      "hit": false,
      "t": 201328.798999997,
      "d": 91.88899999999558,
      "v": 36
    },
    {
      "midi": 60,
      "hit": false,
      "t": 201420.687999997,
      "d": 91.88899999999558,
      "v": 36
    },
    {
      "midi": 67,
      "hit": false,
      "t": 201420.68799999708,
      "d": 183.77799999999115,
      "v": 48
    },
    {
      "midi": 79,
      "hit": false,
      "t": 201420.68799999708,
      "d": 183.77799999999115,
      "v": 57
    },
    {
      "midi": 58,
      "hit": false,
      "t": 201512.576999997,
      "d": 91.88899999999558,
      "v": 36
    },
    {
      "midi": 60,
      "hit": false,
      "t": 201604.465999997,
      "d": 91.88899999999558,
      "v": 36
    },
    {
      "midi": 72,
      "hit": false,
      "t": 201604.46599999708,
      "d": 137.83350000000792,
      "v": 52
    },
    {
      "midi": 84,
      "hit": false,
      "t": 201604.46599999708,
      "d": 137.83350000000792,
      "v": 62
    },
    {
      "midi": 58,
      "hit": false,
      "t": 201696.35499999698,
      "d": 91.88899999999558,
      "v": 36
    },
    {
      "midi": 53,
      "hit": false,
      "t": 201788.24399999698,
      "d": 91.88899999999558,
      "v": 44
    },
    {
      "midi": 72,
      "hit": false,
      "t": 201788.2439999971,
      "d": 183.77799999999115,
      "v": 62
    },
    {
      "midi": 84,
      "hit": false,
      "t": 201788.2439999971,
      "d": 183.77799999999115,
      "v": 73
    },
    {
      "midi": 56,
      "hit": false,
      "t": 201880.13299999697,
      "d": 91.88899999999558,
      "v": 37
    },
    {
      "midi": 60,
      "hit": false,
      "t": 201972.02199999697,
      "d": 91.88899999999558,
      "v": 38
    },
    {
      "midi": 68,
      "hit": false,
      "t": 201972.0219999971,
      "d": 183.77799999999115,
      "v": 50
    },
    {
      "midi": 80,
      "hit": false,
      "t": 201972.0219999971,
      "d": 183.77799999999115,
      "v": 59
    },
    {
      "midi": 56,
      "hit": false,
      "t": 202063.91099999697,
      "d": 91.88899999999558,
      "v": 38
    },
    {
      "midi": 60,
      "hit": false,
      "t": 202155.79999999696,
      "d": 91.88899999999558,
      "v": 38
    },
    {
      "midi": 65,
      "hit": false,
      "t": 202155.79999999708,
      "d": 183.77799999999115,
      "v": 50
    },
    {
      "midi": 77,
      "hit": false,
      "t": 202155.79999999708,
      "d": 183.77799999999115,
      "v": 59
    },
    {
      "midi": 56,
      "hit": false,
      "t": 202247.68899999696,
      "d": 91.88899999999558,
      "v": 38
    },
    {
      "midi": 58,
      "hit": false,
      "t": 202339.57799999695,
      "d": 91.88899999999558,
      "v": 47
    },
    {
      "midi": 62,
      "hit": false,
      "t": 202339.57799999707,
      "d": 183.77799999999115,
      "v": 56
    },
    {
      "midi": 74,
      "hit": false,
      "t": 202339.57799999707,
      "d": 183.77799999999115,
      "v": 67
    },
    {
      "midi": 56,
      "hit": false,
      "t": 202431.46699999695,
      "d": 91.88899999999558,
      "v": 37
    },
    {
      "midi": 58,
      "hit": false,
      "t": 202523.35599999694,
      "d": 91.88899999999558,
      "v": 37
    },
    {
      "midi": 65,
      "hit": false,
      "t": 202523.35599999706,
      "d": 183.77799999999115,
      "v": 51
    },
    {
      "midi": 77,
      "hit": false,
      "t": 202523.35599999706,
      "d": 183.77799999999115,
      "v": 60
    },
    {
      "midi": 56,
      "hit": false,
      "t": 202615.24499999694,
      "d": 91.88899999999558,
      "v": 37
    },
    {
      "midi": 50,
      "hit": false,
      "t": 202707.13399999694,
      "d": 91.88899999999558,
      "v": 37
    },
    {
      "midi": 70,
      "hit": false,
      "t": 202707.13399999705,
      "d": 137.83350000000792,
      "v": 51
    },
    {
      "midi": 82,
      "hit": false,
      "t": 202707.13399999705,
      "d": 137.83350000000792,
      "v": 60
    },
    {
      "midi": 56,
      "hit": false,
      "t": 202799.02299999693,
      "d": 91.88899999999558,
      "v": 37
    },
    {
      "midi": 51,
      "hit": false,
      "t": 202890.91199999693,
      "d": 91.88899999999558,
      "v": 46
    },
    {
      "midi": 70,
      "hit": false,
      "t": 202890.91199999707,
      "d": 183.77799999999115,
      "v": 56
    },
    {
      "midi": 82,
      "hit": false,
      "t": 202890.91199999707,
      "d": 183.77799999999115,
      "v": 67
    },
    {
      "midi": 55,
      "hit": false,
      "t": 202982.80099999692,
      "d": 91.88899999999558,
      "v": 38
    },
    {
      "midi": 58,
      "hit": false,
      "t": 203074.68999999692,
      "d": 91.88899999999558,
      "v": 39
    },
    {
      "midi": 67,
      "hit": false,
      "t": 203074.68999999706,
      "d": 183.77799999999115,
      "v": 49
    },
    {
      "midi": 79,
      "hit": false,
      "t": 203074.68999999706,
      "d": 183.77799999999115,
      "v": 58
    },
    {
      "midi": 55,
      "hit": false,
      "t": 203166.5789999969,
      "d": 91.88899999999558,
      "v": 39
    },
    {
      "midi": 58,
      "hit": false,
      "t": 203258.4679999969,
      "d": 91.88899999999558,
      "v": 39
    },
    {
      "midi": 63,
      "hit": false,
      "t": 203258.46799999705,
      "d": 183.77799999999115,
      "v": 49
    },
    {
      "midi": 75,
      "hit": false,
      "t": 203258.46799999705,
      "d": 183.77799999999115,
      "v": 58
    },
    {
      "midi": 55,
      "hit": false,
      "t": 203350.3569999969,
      "d": 91.88899999999558,
      "v": 39
    },
    {
      "midi": 44,
      "hit": false,
      "t": 203442.2459999969,
      "d": 91.88899999999558,
      "v": 49
    },
    {
      "midi": 60,
      "hit": false,
      "t": 203442.24599999705,
      "d": 183.77799999999115,
      "v": 51
    },
    {
      "midi": 72,
      "hit": false,
      "t": 203442.24599999705,
      "d": 183.77799999999115,
      "v": 61
    },
    {
      "midi": 53,
      "hit": false,
      "t": 203534.1349999969,
      "d": 91.88899999999558,
      "v": 38
    },
    {
      "midi": 56,
      "hit": false,
      "t": 203626.0239999969,
      "d": 91.88899999999558,
      "v": 38
    },
    {
      "midi": 65,
      "hit": false,
      "t": 203626.02399999704,
      "d": 183.77799999999115,
      "v": 47
    },
    {
      "midi": 77,
      "hit": false,
      "t": 203626.02399999704,
      "d": 183.77799999999115,
      "v": 56
    },
    {
      "midi": 53,
      "hit": false,
      "t": 203717.9129999969,
      "d": 91.88899999999558,
      "v": 38
    },
    {
      "midi": 56,
      "hit": false,
      "t": 203809.80199999688,
      "d": 91.88899999999558,
      "v": 38
    },
    {
      "midi": 68,
      "hit": false,
      "t": 203809.80199999703,
      "d": 137.83350000000792,
      "v": 47
    },
    {
      "midi": 80,
      "hit": false,
      "t": 203809.80199999703,
      "d": 137.83350000000792,
      "v": 56
    },
    {
      "midi": 53,
      "hit": false,
      "t": 203901.69099999688,
      "d": 91.88899999999558,
      "v": 39
    },
    {
      "midi": 46,
      "hit": false,
      "t": 203993.57999999687,
      "d": 91.88899999999558,
      "v": 47
    },
    {
      "midi": 58,
      "hit": false,
      "t": 203993.57999999705,
      "d": 183.77799999999115,
      "v": 55
    },
    {
      "midi": 70,
      "hit": false,
      "t": 203993.57999999705,
      "d": 183.77799999999115,
      "v": 65
    },
    {
      "midi": 51,
      "hit": false,
      "t": 204085.46899999687,
      "d": 91.88899999999558,
      "v": 39
    },
    {
      "midi": 55,
      "hit": false,
      "t": 204177.35799999686,
      "d": 91.88899999999558,
      "v": 40
    },
    {
      "midi": 63,
      "hit": false,
      "t": 204177.35799999704,
      "d": 183.77799999999115,
      "v": 50
    },
    {
      "midi": 75,
      "hit": false,
      "t": 204177.35799999704,
      "d": 183.77799999999115,
      "v": 59
    },
    {
      "midi": 51,
      "hit": false,
      "t": 204269.24699999686,
      "d": 91.88899999999558,
      "v": 40
    },
    {
      "midi": 55,
      "hit": false,
      "t": 204361.13599999686,
      "d": 91.88899999999558,
      "v": 40
    },
    {
      "midi": 67,
      "hit": false,
      "t": 204361.13599999703,
      "d": 137.83350000000792,
      "v": 51
    },
    {
      "midi": 79,
      "hit": false,
      "t": 204361.13599999703,
      "d": 137.83350000000792,
      "v": 60
    },
    {
      "midi": 51,
      "hit": false,
      "t": 204453.02499999685,
      "d": 91.88899999999558,
      "v": 40
    },
    {
      "midi": 46,
      "hit": false,
      "t": 204544.91399999685,
      "d": 91.88899999999558,
      "v": 50
    },
    {
      "midi": 58,
      "hit": false,
      "t": 204544.91399999705,
      "d": 183.77799999999115,
      "v": 56
    },
    {
      "midi": 70,
      "hit": false,
      "t": 204544.91399999705,
      "d": 183.77799999999115,
      "v": 67
    },
    {
      "midi": 50,
      "hit": false,
      "t": 204636.80299999684,
      "d": 91.88899999999558,
      "v": 39
    },
    {
      "midi": 53,
      "hit": false,
      "t": 204728.69199999684,
      "d": 91.88899999999558,
      "v": 39
    },
    {
      "midi": 62,
      "hit": false,
      "t": 204728.69199999704,
      "d": 183.77799999999115,
      "v": 51
    },
    {
      "midi": 74,
      "hit": false,
      "t": 204728.69199999704,
      "d": 183.77799999999115,
      "v": 60
    },
    {
      "midi": 50,
      "hit": false,
      "t": 204820.58099999683,
      "d": 91.88899999999558,
      "v": 39
    },
    {
      "midi": 46,
      "hit": false,
      "t": 204912.46999999683,
      "d": 183.77799999999115,
      "v": 39
    },
    {
      "midi": 58,
      "hit": false,
      "t": 204912.46999999683,
      "d": 183.77799999999115,
      "v": 39
    },
    {
      "midi": 68,
      "hit": false,
      "t": 204912.46999999703,
      "d": 91.88899999999558,
      "v": 60
    },
    {
      "midi": 77,
      "hit": false,
      "t": 205004.35899999703,
      "d": 91.88899999999558,
      "v": 60
    },
    {
      "midi": 46,
      "hit": false,
      "t": 205096.24799999682,
      "d": 91.88899999999558,
      "v": 57
    },
    {
      "midi": 58,
      "hit": false,
      "t": 205096.24799999682,
      "d": 91.88899999999558,
      "v": 67
    },
    {
      "midi": 79,
      "hit": false,
      "t": 205188.13699999702,
      "d": 91.88899999999558,
      "v": 55
    },
    {
      "midi": 43,
      "hit": false,
      "t": 205280.0259999968,
      "d": 91.88899999999558,
      "v": 49
    },
    {
      "midi": 55,
      "hit": false,
      "t": 205280.0259999968,
      "d": 91.88899999999558,
      "v": 58
    },
    {
      "midi": 82,
      "hit": false,
      "t": 205280.02599999701,
      "d": 91.88899999999558,
      "v": 59
    },
    {
      "midi": 87,
      "hit": false,
      "t": 205371.914999997,
      "d": 91.88899999999558,
      "v": 55
    },
    {
      "midi": 39,
      "hit": false,
      "t": 205463.8039999968,
      "d": 91.88899999999558,
      "v": 44
    },
    {
      "midi": 51,
      "hit": false,
      "t": 205463.8039999968,
      "d": 91.88899999999558,
      "v": 54
    },
    {
      "midi": 91,
      "hit": false,
      "t": 205463.803999997,
      "d": 91.88899999999558,
      "v": 61
    },
    {
      "midi": 79,
      "hit": false,
      "t": 205555.692999997,
      "d": 91.88899999999558,
      "v": 55
    },
    {
      "midi": 38,
      "hit": false,
      "t": 205647.5819999968,
      "d": 91.88899999999558,
      "v": 51
    },
    {
      "midi": 50,
      "hit": false,
      "t": 205647.5819999968,
      "d": 91.88899999999558,
      "v": 62
    },
    {
      "midi": 80,
      "hit": false,
      "t": 205739.470999997,
      "d": 91.88899999999558,
      "v": 55
    },
    {
      "midi": 41,
      "hit": false,
      "t": 205831.35999999678,
      "d": 91.88899999999558,
      "v": 47
    },
    {
      "midi": 53,
      "hit": false,
      "t": 205831.35999999678,
      "d": 91.88899999999558,
      "v": 56
    },
    {
      "midi": 82,
      "hit": false,
      "t": 205831.359999997,
      "d": 91.88899999999558,
      "v": 59
    },
    {
      "midi": 89,
      "hit": false,
      "t": 205923.24899999698,
      "d": 91.88899999999558,
      "v": 55
    },
    {
      "midi": 46,
      "hit": false,
      "t": 206015.13799999678,
      "d": 92.65474166665808,
      "v": 48
    },
    {
      "midi": 58,
      "hit": false,
      "t": 206015.13799999678,
      "d": 92.65474166665808,
      "v": 57
    },
    {
      "midi": 92,
      "hit": false,
      "t": 206015.13799999698,
      "d": 91.88899999999558,
      "v": 61
    },
    {
      "midi": 80,
      "hit": false,
      "t": 206107.02699999698,
      "d": 91.88899999999558,
      "v": 56
    },
    {
      "midi": 46,
      "hit": false,
      "t": 206198.91599999677,
      "d": 91.88899999999558,
      "v": 52
    },
    {
      "midi": 58,
      "hit": false,
      "t": 206198.91599999677,
      "d": 91.88899999999558,
      "v": 63
    },
    {
      "midi": 79,
      "hit": false,
      "t": 206290.80499999697,
      "d": 91.88899999999558,
      "v": 56
    },
    {
      "midi": 43,
      "hit": false,
      "t": 206382.69399999676,
      "d": 91.88899999999558,
      "v": 49
    },
    {
      "midi": 55,
      "hit": false,
      "t": 206382.69399999676,
      "d": 91.88899999999558,
      "v": 58
    },
    {
      "midi": 82,
      "hit": false,
      "t": 206382.69399999696,
      "d": 91.88899999999558,
      "v": 60
    },
    {
      "midi": 87,
      "hit": false,
      "t": 206474.58299999696,
      "d": 91.88899999999558,
      "v": 56
    },
    {
      "midi": 39,
      "hit": false,
      "t": 206566.47199999675,
      "d": 92.65474166665808,
      "v": 49
    },
    {
      "midi": 51,
      "hit": false,
      "t": 206566.47199999675,
      "d": 92.65474166665808,
      "v": 58
    },
    {
      "midi": 91,
      "hit": false,
      "t": 206566.47199999695,
      "d": 91.88899999999558,
      "v": 62
    },
    {
      "midi": 79,
      "hit": false,
      "t": 206658.36099999695,
      "d": 91.88899999999558,
      "v": 56
    },
    {
      "midi": 39,
      "hit": false,
      "t": 206750.24999999674,
      "d": 91.88899999999558,
      "v": 54
    },
    {
      "midi": 51,
      "hit": false,
      "t": 206750.24999999674,
      "d": 91.88899999999558,
      "v": 64
    },
    {
      "midi": 79,
      "hit": false,
      "t": 206842.13899999694,
      "d": 91.88899999999558,
      "v": 56
    },
    {
      "midi": 43,
      "hit": false,
      "t": 206934.02799999673,
      "d": 91.88899999999558,
      "v": 46
    },
    {
      "midi": 55,
      "hit": false,
      "t": 206934.02799999673,
      "d": 91.88899999999558,
      "v": 55
    },
    {
      "midi": 82,
      "hit": false,
      "t": 206934.02799999694,
      "d": 91.88899999999558,
      "v": 61
    },
    {
      "midi": 87,
      "hit": false,
      "t": 207025.91699999693,
      "d": 91.88899999999558,
      "v": 57
    },
    {
      "midi": 48,
      "hit": false,
      "t": 207117.80599999672,
      "d": 92.65474166665808,
      "v": 56
    },
    {
      "midi": 60,
      "hit": false,
      "t": 207117.80599999672,
      "d": 92.65474166665808,
      "v": 66
    },
    {
      "midi": 91,
      "hit": false,
      "t": 207117.80599999693,
      "d": 91.88899999999558,
      "v": 63
    },
    {
      "midi": 88,
      "hit": false,
      "t": 207209.69499999692,
      "d": 91.88899999999558,
      "v": 57
    },
    {
      "midi": 48,
      "hit": false,
      "t": 207301.5839999967,
      "d": 91.88899999999558,
      "v": 60
    },
    {
      "midi": 60,
      "hit": false,
      "t": 207301.5839999967,
      "d": 91.88899999999558,
      "v": 72
    },
    {
      "midi": 80,
      "hit": false,
      "t": 207393.4729999969,
      "d": 91.88899999999558,
      "v": 57
    },
    {
      "midi": 44,
      "hit": false,
      "t": 207485.3619999967,
      "d": 91.88899999999558,
      "v": 55
    },
    {
      "midi": 56,
      "hit": false,
      "t": 207485.3619999967,
      "d": 91.88899999999558,
      "v": 65
    },
    {
      "midi": 84,
      "hit": false,
      "t": 207485.3619999969,
      "d": 91.88899999999558,
      "v": 61
    },
    {
      "midi": 89,
      "hit": false,
      "t": 207577.2509999969,
      "d": 91.88899999999558,
      "v": 57
    },
    {
      "midi": 41,
      "hit": false,
      "t": 207669.1399999967,
      "d": 91.88899999999558,
      "v": 55
    },
    {
      "midi": 53,
      "hit": false,
      "t": 207669.1399999967,
      "d": 91.88899999999558,
      "v": 65
    },
    {
      "midi": 92,
      "hit": false,
      "t": 207669.1399999969,
      "d": 91.88899999999558,
      "v": 63
    },
    {
      "midi": 80,
      "hit": false,
      "t": 207761.0289999969,
      "d": 91.88899999999558,
      "v": 57
    },
    {
      "midi": 40,
      "hit": false,
      "t": 207852.9179999967,
      "d": 91.88899999999558,
      "v": 60
    },
    {
      "midi": 52,
      "hit": false,
      "t": 207852.9179999967,
      "d": 91.88899999999558,
      "v": 72
    },
    {
      "midi": 82,
      "hit": false,
      "t": 207944.8069999969,
      "d": 91.88899999999558,
      "v": 58
    },
    {
      "midi": 43,
      "hit": false,
      "t": 208036.69599999668,
      "d": 91.88899999999558,
      "v": 55
    },
    {
      "midi": 55,
      "hit": false,
      "t": 208036.69599999668,
      "d": 91.88899999999558,
      "v": 65
    },
    {
      "midi": 84,
      "hit": false,
      "t": 208036.69599999688,
      "d": 91.88899999999558,
      "v": 62
    },
    {
      "midi": 91,
      "hit": false,
      "t": 208128.58499999688,
      "d": 91.88899999999558,
      "v": 58
    },
    {
      "midi": 48,
      "hit": false,
      "t": 208220.47399999667,
      "d": 92.65474166665808,
      "v": 59
    },
    {
      "midi": 60,
      "hit": false,
      "t": 208220.47399999667,
      "d": 92.65474166665808,
      "v": 71
    },
    {
      "midi": 94,
      "hit": false,
      "t": 208220.47399999687,
      "d": 91.88899999999558,
      "v": 64
    },
    {
      "midi": 82,
      "hit": false,
      "t": 208312.36299999687,
      "d": 91.88899999999558,
      "v": 58
    },
    {
      "midi": 48,
      "hit": false,
      "t": 208404.25199999666,
      "d": 91.88899999999558,
      "v": 71
    },
    {
      "midi": 60,
      "hit": false,
      "t": 208404.25199999666,
      "d": 91.88899999999558,
      "v": 83
    },
    {
      "midi": 80,
      "hit": false,
      "t": 208496.14099999686,
      "d": 91.88899999999558,
      "v": 58
    },
    {
      "midi": 44,
      "hit": false,
      "t": 208588.02999999665,
      "d": 91.88899999999558,
      "v": 57
    },
    {
      "midi": 56,
      "hit": false,
      "t": 208588.02999999665,
      "d": 91.88899999999558,
      "v": 67
    },
    {
      "midi": 84,
      "hit": false,
      "t": 208588.02999999686,
      "d": 91.88899999999558,
      "v": 62
    },
    {
      "midi": 89,
      "hit": false,
      "t": 208679.91899999685,
      "d": 91.88899999999558,
      "v": 59
    },
    {
      "midi": 41,
      "hit": false,
      "t": 208771.80799999664,
      "d": 91.88899999999558,
      "v": 57
    },
    {
      "midi": 53,
      "hit": false,
      "t": 208771.80799999664,
      "d": 91.88899999999558,
      "v": 67
    },
    {
      "midi": 92,
      "hit": false,
      "t": 208771.80799999685,
      "d": 91.88899999999558,
      "v": 66
    },
    {
      "midi": 80,
      "hit": false,
      "t": 208863.69699999684,
      "d": 91.88899999999558,
      "v": 59
    },
    {
      "midi": 38,
      "hit": false,
      "t": 208955.58599999663,
      "d": 91.88899999999558,
      "v": 64
    },
    {
      "midi": 50,
      "hit": false,
      "t": 208955.58599999663,
      "d": 91.88899999999558,
      "v": 77
    },
    {
      "midi": 80,
      "hit": false,
      "t": 209047.47499999683,
      "d": 91.88899999999558,
      "v": 59
    },
    {
      "midi": 41,
      "hit": false,
      "t": 209139.36399999663,
      "d": 91.88899999999558,
      "v": 58
    },
    {
      "midi": 53,
      "hit": false,
      "t": 209139.36399999663,
      "d": 91.88899999999558,
      "v": 69
    },
    {
      "midi": 82,
      "hit": false,
      "t": 209139.36399999683,
      "d": 91.88899999999558,
      "v": 63
    },
    {
      "midi": 89,
      "hit": false,
      "t": 209231.25299999682,
      "d": 91.88899999999558,
      "v": 59
    },
    {
      "midi": 46,
      "hit": false,
      "t": 209323.14199999662,
      "d": 92.65474166665808,
      "v": 58
    },
    {
      "midi": 58,
      "hit": false,
      "t": 209323.14199999662,
      "d": 92.65474166665808,
      "v": 69
    },
    {
      "midi": 92,
      "hit": false,
      "t": 209323.14199999682,
      "d": 91.88899999999558,
      "v": 67
    },
    {
      "midi": 80,
      "hit": false,
      "t": 209415.03099999682,
      "d": 91.88899999999558,
      "v": 59
    },
    {
      "midi": 46,
      "hit": false,
      "t": 209506.9199999966,
      "d": 91.88899999999558,
      "v": 64
    },
    {
      "midi": 58,
      "hit": false,
      "t": 209506.9199999966,
      "d": 91.88899999999558,
      "v": 77
    },
    {
      "midi": 79,
      "hit": false,
      "t": 209598.8089999968,
      "d": 91.88899999999558,
      "v": 60
    },
    {
      "midi": 43,
      "hit": false,
      "t": 209690.6979999966,
      "d": 91.88899999999558,
      "v": 56
    },
    {
      "midi": 55,
      "hit": false,
      "t": 209690.6979999966,
      "d": 91.88899999999558,
      "v": 66
    },
    {
      "midi": 82,
      "hit": false,
      "t": 209690.6979999968,
      "d": 91.88899999999558,
      "v": 64
    },
    {
      "midi": 87,
      "hit": false,
      "t": 209782.5869999968,
      "d": 91.88899999999558,
      "v": 60
    },
    {
      "midi": 39,
      "hit": false,
      "t": 209874.4759999966,
      "d": 91.88899999999558,
      "v": 56
    },
    {
      "midi": 51,
      "hit": false,
      "t": 209874.4759999966,
      "d": 91.88899999999558,
      "v": 66
    },
    {
      "midi": 91,
      "hit": false,
      "t": 209874.4759999968,
      "d": 91.88899999999558,
      "v": 68
    },
    {
      "midi": 79,
      "hit": false,
      "t": 209966.3649999968,
      "d": 91.88899999999558,
      "v": 61
    },
    {
      "midi": 36,
      "hit": false,
      "t": 210058.25399999658,
      "d": 91.88899999999558,
      "v": 58
    },
    {
      "midi": 48,
      "hit": false,
      "t": 210058.25399999658,
      "d": 91.88899999999558,
      "v": 70
    },
    {
      "midi": 92,
      "hit": false,
      "t": 210150.14299999678,
      "d": 91.88899999999558,
      "v": 62
    },
    {
      "midi": 41,
      "hit": false,
      "t": 210242.03199999657,
      "d": 91.88899999999558,
      "v": 54
    },
    {
      "midi": 53,
      "hit": false,
      "t": 210242.03199999657,
      "d": 91.88899999999558,
      "v": 64
    },
    {
      "midi": 89,
      "hit": false,
      "t": 210242.03199999678,
      "d": 91.88899999999558,
      "v": 68
    },
    {
      "midi": 87,
      "hit": false,
      "t": 210333.92099999677,
      "d": 91.88899999999558,
      "v": 63
    },
    {
      "midi": 44,
      "hit": false,
      "t": 210425.80999999656,
      "d": 92.65474166665808,
      "v": 54
    },
    {
      "midi": 56,
      "hit": false,
      "t": 210425.80999999656,
      "d": 92.65474166665808,
      "v": 64
    },
    {
      "midi": 80,
      "hit": false,
      "t": 210425.80999999677,
      "d": 91.88899999999558,
      "v": 72
    },
    {
      "midi": 92,
      "hit": false,
      "t": 210517.69899999676,
      "d": 91.88899999999558,
      "v": 66
    },
    {
      "midi": 34,
      "hit": false,
      "t": 210609.58799999655,
      "d": 91.88899999999558,
      "v": 63
    },
    {
      "midi": 46,
      "hit": false,
      "t": 210609.58799999655,
      "d": 91.88899999999558,
      "v": 74
    },
    {
      "midi": 94,
      "hit": false,
      "t": 210701.47699999675,
      "d": 91.88899999999558,
      "v": 67
    },
    {
      "midi": 39,
      "hit": false,
      "t": 210793.36599999655,
      "d": 91.88899999999558,
      "v": 57
    },
    {
      "midi": 51,
      "hit": false,
      "t": 210793.36599999655,
      "d": 91.88899999999558,
      "v": 67
    },
    {
      "midi": 91,
      "hit": false,
      "t": 210793.36599999675,
      "d": 91.88899999999558,
      "v": 72
    },
    {
      "midi": 87,
      "hit": false,
      "t": 210885.25499999675,
      "d": 91.88899999999558,
      "v": 68
    },
    {
      "midi": 43,
      "hit": false,
      "t": 210977.14399999654,
      "d": 92.65474166665808,
      "v": 58
    },
    {
      "midi": 55,
      "hit": false,
      "t": 210977.14399999654,
      "d": 92.65474166665808,
      "v": 69
    },
    {
      "midi": 82,
      "hit": false,
      "t": 210977.14399999674,
      "d": 91.88899999999558,
      "v": 78
    },
    {
      "midi": 94,
      "hit": false,
      "t": 211069.03299999674,
      "d": 91.88899999999558,
      "v": 69
    },
    {
      "midi": 34,
      "hit": false,
      "t": 211160.92199999653,
      "d": 91.88899999999558,
      "v": 64
    },
    {
      "midi": 46,
      "hit": false,
      "t": 211160.92199999653,
      "d": 91.88899999999558,
      "v": 77
    },
    {
      "midi": 94,
      "hit": false,
      "t": 211252.81099999673,
      "d": 91.88899999999558,
      "v": 70
    },
    {
      "midi": 38,
      "hit": false,
      "t": 211344.69999999652,
      "d": 91.88899999999558,
      "v": 58
    },
    {
      "midi": 50,
      "hit": false,
      "t": 211344.69999999652,
      "d": 91.88899999999558,
      "v": 69
    },
    {
      "midi": 89,
      "hit": false,
      "t": 211344.69999999672,
      "d": 91.88899999999558,
      "v": 77
    },
    {
      "midi": 86,
      "hit": false,
      "t": 211436.58899999672,
      "d": 91.88899999999558,
      "v": 72
    },
    {
      "midi": 46,
      "hit": false,
      "t": 211528.4779999965,
      "d": 91.88899999999558,
      "v": 58
    },
    {
      "midi": 58,
      "hit": false,
      "t": 211528.4779999965,
      "d": 91.88899999999558,
      "v": 69
    },
    {
      "midi": 82,
      "hit": false,
      "t": 211528.4779999967,
      "d": 91.88899999999558,
      "v": 81
    },
    {
      "midi": 94,
      "hit": false,
      "t": 211620.3669999967,
      "d": 91.88899999999558,
      "v": 73
    },
    {
      "midi": 39,
      "hit": false,
      "t": 211712.2559999965,
      "d": 91.88899999999558,
      "v": 73
    },
    {
      "midi": 55,
      "hit": false,
      "t": 211712.2559999967,
      "d": 91.88899999999558,
      "v": 85
    },
    {
      "midi": 63,
      "hit": false,
      "t": 211804.1449999967,
      "d": 91.88899999999558,
      "v": 70
    },
    {
      "midi": 51,
      "hit": false,
      "t": 211896.0339999965,
      "d": 91.88899999999558,
      "v": 49
    },
    {
      "midi": 55,
      "hit": false,
      "t": 211896.0339999965,
      "d": 91.88899999999558,
      "v": 62
    },
    {
      "midi": 58,
      "hit": false,
      "t": 211896.0339999967,
      "d": 91.88899999999558,
      "v": 79
    },
    {
      "midi": 67,
      "hit": false,
      "t": 211987.9229999967,
      "d": 91.88899999999558,
      "v": 70
    },
    {
      "midi": 51,
      "hit": false,
      "t": 212079.81199999648,
      "d": 91.88899999999558,
      "v": 49
    },
    {
      "midi": 55,
      "hit": false,
      "t": 212079.81199999648,
      "d": 91.88899999999558,
      "v": 49
    },
    {
      "midi": 58,
      "hit": false,
      "t": 212079.81199999648,
      "d": 91.88899999999558,
      "v": 62
    },
    {
      "midi": 63,
      "hit": false,
      "t": 212079.8119999967,
      "d": 91.88899999999558,
      "v": 81
    },
    {
      "midi": 70,
      "hit": false,
      "t": 212171.70099999668,
      "d": 91.88899999999558,
      "v": 70
    },
    {
      "midi": 51,
      "hit": false,
      "t": 212263.58999999647,
      "d": 91.88899999999558,
      "v": 49
    },
    {
      "midi": 55,
      "hit": false,
      "t": 212263.58999999647,
      "d": 91.88899999999558,
      "v": 49
    },
    {
      "midi": 58,
      "hit": false,
      "t": 212263.58999999647,
      "d": 91.88899999999558,
      "v": 49
    },
    {
      "midi": 63,
      "hit": false,
      "t": 212263.58999999647,
      "d": 91.88899999999558,
      "v": 62
    },
    {
      "midi": 67,
      "hit": false,
      "t": 212263.58999999668,
      "d": 91.88899999999558,
      "v": 86
    },
    {
      "midi": 75,
      "hit": false,
      "t": 212355.47899999667,
      "d": 91.88899999999558,
      "v": 70
    },
    {
      "midi": 51,
      "hit": false,
      "t": 212447.36799999647,
      "d": 91.88899999999558,
      "v": 49
    },
    {
      "midi": 55,
      "hit": false,
      "t": 212447.36799999647,
      "d": 91.88899999999558,
      "v": 49
    },
    {
      "midi": 58,
      "hit": false,
      "t": 212447.36799999647,
      "d": 91.88899999999558,
      "v": 49
    },
    {
      "midi": 63,
      "hit": false,
      "t": 212447.36799999647,
      "d": 91.88899999999558,
      "v": 62
    },
    {
      "midi": 70,
      "hit": false,
      "t": 212447.36799999667,
      "d": 91.88899999999558,
      "v": 77
    },
    {
      "midi": 79,
      "hit": false,
      "t": 212539.25699999667,
      "d": 91.88899999999558,
      "v": 70
    },
    {
      "midi": 51,
      "hit": false,
      "t": 212631.14599999646,
      "d": 91.88899999999558,
      "v": 49
    },
    {
      "midi": 55,
      "hit": false,
      "t": 212631.14599999646,
      "d": 91.88899999999558,
      "v": 49
    },
    {
      "midi": 58,
      "hit": false,
      "t": 212631.14599999646,
      "d": 91.88899999999558,
      "v": 49
    },
    {
      "midi": 63,
      "hit": false,
      "t": 212631.14599999646,
      "d": 91.88899999999558,
      "v": 62
    },
    {
      "midi": 75,
      "hit": false,
      "t": 212631.14599999666,
      "d": 91.88899999999558,
      "v": 78
    },
    {
      "midi": 82,
      "hit": false,
      "t": 212723.03499999666,
      "d": 91.88899999999558,
      "v": 70
    },
    {
      "midi": 51,
      "hit": false,
      "t": 212814.92399999645,
      "d": 91.88899999999558,
      "v": 56
    },
    {
      "midi": 55,
      "hit": false,
      "t": 212814.92399999645,
      "d": 91.88899999999558,
      "v": 56
    },
    {
      "midi": 58,
      "hit": false,
      "t": 212814.92399999645,
      "d": 91.88899999999558,
      "v": 56
    },
    {
      "midi": 63,
      "hit": false,
      "t": 212814.92399999645,
      "d": 91.88899999999558,
      "v": 70
    },
    {
      "midi": 79,
      "hit": false,
      "t": 212814.92399999665,
      "d": 91.88899999999558,
      "v": 86
    },
    {
      "midi": 87,
      "hit": false,
      "t": 212906.81299999665,
      "d": 91.88899999999558,
      "v": 70
    },
    {
      "midi": 51,
      "hit": false,
      "t": 212998.70199999644,
      "d": 91.88899999999558,
      "v": 49
    },
    {
      "midi": 55,
      "hit": false,
      "t": 212998.70199999644,
      "d": 91.88899999999558,
      "v": 49
    },
    {
      "midi": 58,
      "hit": false,
      "t": 212998.70199999644,
      "d": 91.88899999999558,
      "v": 49
    },
    {
      "midi": 63,
      "hit": false,
      "t": 212998.70199999644,
      "d": 91.88899999999558,
      "v": 62
    },
    {
      "midi": 82,
      "hit": false,
      "t": 212998.70199999664,
      "d": 91.88899999999558,
      "v": 77
    },
    {
      "midi": 91,
      "hit": false,
      "t": 213090.59099999664,
      "d": 91.88899999999558,
      "v": 67
    },
    {
      "midi": 51,
      "hit": false,
      "t": 213182.47999999643,
      "d": 91.88899999999558,
      "v": 49
    },
    {
      "midi": 55,
      "hit": false,
      "t": 213182.47999999643,
      "d": 91.88899999999558,
      "v": 49
    },
    {
      "midi": 58,
      "hit": false,
      "t": 213182.47999999643,
      "d": 91.88899999999558,
      "v": 49
    },
    {
      "midi": 63,
      "hit": false,
      "t": 213182.47999999643,
      "d": 91.88899999999558,
      "v": 62
    },
    {
      "midi": 87,
      "hit": false,
      "t": 213182.47999999663,
      "d": 91.88899999999558,
      "v": 75
    },
    {
      "midi": 94,
      "hit": false,
      "t": 213274.36899999663,
      "d": 91.88899999999558,
      "v": 68
    },
    {
      "midi": 51,
      "hit": false,
      "t": 213366.25799999642,
      "d": 91.88899999999558,
      "v": 49
    },
    {
      "midi": 53,
      "hit": false,
      "t": 213366.25799999642,
      "d": 91.88899999999558,
      "v": 49
    },
    {
      "midi": 56,
      "hit": false,
      "t": 213366.25799999642,
      "d": 91.88899999999558,
      "v": 49
    },
    {
      "midi": 58,
      "hit": false,
      "t": 213366.25799999642,
      "d": 91.88899999999558,
      "v": 49
    },
    {
      "midi": 62,
      "hit": false,
      "t": 213366.25799999642,
      "d": 91.88899999999558,
      "v": 62
    },
    {
      "midi": 93,
      "hit": false,
      "t": 213366.25799999663,
      "d": 91.88899999999558,
      "v": 80
    },
    {
      "midi": 94,
      "hit": false,
      "t": 213458.14699999662,
      "d": 91.88899999999558,
      "v": 72
    },
    {
      "midi": 51,
      "hit": false,
      "t": 213550.0359999964,
      "d": 91.88899999999558,
      "v": 49
    },
    {
      "midi": 53,
      "hit": false,
      "t": 213550.0359999964,
      "d": 91.88899999999558,
      "v": 49
    },
    {
      "midi": 56,
      "hit": false,
      "t": 213550.0359999964,
      "d": 91.88899999999558,
      "v": 49
    },
    {
      "midi": 58,
      "hit": false,
      "t": 213550.0359999964,
      "d": 91.88899999999558,
      "v": 49
    },
    {
      "midi": 62,
      "hit": false,
      "t": 213550.0359999964,
      "d": 91.88899999999558,
      "v": 62
    },
    {
      "midi": 93,
      "hit": false,
      "t": 213550.03599999662,
      "d": 91.88899999999558,
      "v": 77
    },
    {
      "midi": 94,
      "hit": false,
      "t": 213641.9249999966,
      "d": 91.88899999999558,
      "v": 70
    },
    {
      "midi": 51,
      "hit": false,
      "t": 213733.8139999964,
      "d": 91.88899999999558,
      "v": 49
    },
    {
      "midi": 53,
      "hit": false,
      "t": 213733.8139999964,
      "d": 91.88899999999558,
      "v": 49
    },
    {
      "midi": 56,
      "hit": false,
      "t": 213733.8139999964,
      "d": 91.88899999999558,
      "v": 49
    },
    {
      "midi": 58,
      "hit": false,
      "t": 213733.8139999964,
      "d": 91.88899999999558,
      "v": 49
    },
    {
      "midi": 62,
      "hit": false,
      "t": 213733.8139999964,
      "d": 91.88899999999558,
      "v": 62
    },
    {
      "midi": 93,
      "hit": false,
      "t": 213733.8139999966,
      "d": 91.88899999999558,
      "v": 75
    },
    {
      "midi": 94,
      "hit": false,
      "t": 213825.7029999966,
      "d": 91.88899999999558,
      "v": 70
    },
    {
      "midi": 51,
      "hit": false,
      "t": 213917.5919999964,
      "d": 91.88899999999558,
      "v": 57
    },
    {
      "midi": 55,
      "hit": false,
      "t": 213917.5919999964,
      "d": 91.88899999999558,
      "v": 57
    },
    {
      "midi": 58,
      "hit": false,
      "t": 213917.5919999964,
      "d": 91.88899999999558,
      "v": 57
    },
    {
      "midi": 63,
      "hit": false,
      "t": 213917.5919999964,
      "d": 91.88899999999558,
      "v": 72
    },
    {
      "midi": 96,
      "hit": false,
      "t": 213917.5919999966,
      "d": 91.88899999999558,
      "v": 84
    },
    {
      "midi": 94,
      "hit": false,
      "t": 214009.4809999966,
      "d": 91.88899999999558,
      "v": 84
    },
    {
      "midi": 51,
      "hit": false,
      "t": 214101.3699999964,
      "d": 91.88899999999558,
      "v": 49
    },
    {
      "midi": 55,
      "hit": false,
      "t": 214101.3699999964,
      "d": 91.88899999999558,
      "v": 49
    },
    {
      "midi": 58,
      "hit": false,
      "t": 214101.3699999964,
      "d": 91.88899999999558,
      "v": 49
    },
    {
      "midi": 63,
      "hit": false,
      "t": 214101.3699999964,
      "d": 91.88899999999558,
      "v": 62
    },
    {
      "midi": 92,
      "hit": false,
      "t": 214101.3699999966,
      "d": 91.88899999999558,
      "v": 83
    },
    {
      "midi": 91,
      "hit": false,
      "t": 214193.2589999966,
      "d": 91.88899999999558,
      "v": 82
    },
    {
      "midi": 51,
      "hit": false,
      "t": 214285.14799999638,
      "d": 91.88899999999558,
      "v": 49
    },
    {
      "midi": 55,
      "hit": false,
      "t": 214285.14799999638,
      "d": 91.88899999999558,
      "v": 49
    },
    {
      "midi": 58,
      "hit": false,
      "t": 214285.14799999638,
      "d": 91.88899999999558,
      "v": 49
    },
    {
      "midi": 63,
      "hit": false,
      "t": 214285.14799999638,
      "d": 91.88899999999558,
      "v": 62
    },
    {
      "midi": 89,
      "hit": false,
      "t": 214285.14799999658,
      "d": 91.88899999999558,
      "v": 81
    },
    {
      "midi": 87,
      "hit": false,
      "t": 214377.03699999658,
      "d": 91.88899999999558,
      "v": 81
    },
    {
      "midi": 51,
      "hit": false,
      "t": 214468.92599999637,
      "d": 91.88899999999558,
      "v": 49
    },
    {
      "midi": 55,
      "hit": false,
      "t": 214468.92599999637,
      "d": 91.88899999999558,
      "v": 49
    },
    {
      "midi": 58,
      "hit": false,
      "t": 214468.92599999637,
      "d": 91.88899999999558,
      "v": 49
    },
    {
      "midi": 63,
      "hit": false,
      "t": 214468.92599999637,
      "d": 91.88899999999558,
      "v": 62
    },
    {
      "midi": 86,
      "hit": false,
      "t": 214468.92599999657,
      "d": 91.88899999999558,
      "v": 79
    },
    {
      "midi": 84,
      "hit": false,
      "t": 214560.81499999657,
      "d": 91.88899999999558,
      "v": 71
    },
    {
      "midi": 51,
      "hit": false,
      "t": 214652.70399999636,
      "d": 91.88899999999558,
      "v": 49
    },
    {
      "midi": 55,
      "hit": false,
      "t": 214652.70399999636,
      "d": 91.88899999999558,
      "v": 49
    },
    {
      "midi": 58,
      "hit": false,
      "t": 214652.70399999636,
      "d": 91.88899999999558,
      "v": 49
    },
    {
      "midi": 63,
      "hit": false,
      "t": 214652.70399999636,
      "d": 91.88899999999558,
      "v": 62
    },
    {
      "midi": 82,
      "hit": false,
      "t": 214652.70399999656,
      "d": 91.88899999999558,
      "v": 71
    },
    {
      "midi": 80,
      "hit": false,
      "t": 214744.59299999656,
      "d": 91.88899999999558,
      "v": 71
    },
    {
      "midi": 51,
      "hit": false,
      "t": 214836.48199999635,
      "d": 91.88899999999558,
      "v": 49
    },
    {
      "midi": 55,
      "hit": false,
      "t": 214836.48199999635,
      "d": 91.88899999999558,
      "v": 49
    },
    {
      "midi": 58,
      "hit": false,
      "t": 214836.48199999635,
      "d": 91.88899999999558,
      "v": 49
    },
    {
      "midi": 63,
      "hit": false,
      "t": 214836.48199999635,
      "d": 91.88899999999558,
      "v": 62
    },
    {
      "midi": 79,
      "hit": false,
      "t": 214836.48199999655,
      "d": 91.88899999999558,
      "v": 71
    },
    {
      "midi": 77,
      "hit": false,
      "t": 214928.37099999655,
      "d": 91.88899999999558,
      "v": 71
    },
    {
      "midi": 51,
      "hit": false,
      "t": 215020.25999999634,
      "d": 91.88899999999558,
      "v": 55
    },
    {
      "midi": 55,
      "hit": false,
      "t": 215020.25999999634,
      "d": 91.88899999999558,
      "v": 55
    },
    {
      "midi": 58,
      "hit": false,
      "t": 215020.25999999634,
      "d": 91.88899999999558,
      "v": 55
    },
    {
      "midi": 63,
      "hit": false,
      "t": 215020.25999999634,
      "d": 91.88899999999558,
      "v": 69
    },
    {
      "midi": 75,
      "hit": false,
      "t": 215020.25999999655,
      "d": 91.88899999999558,
      "v": 77
    },
    {
      "midi": 74,
      "hit": false,
      "t": 215112.14899999654,
      "d": 91.88899999999558,
      "v": 75
    },
    {
      "midi": 51,
      "hit": false,
      "t": 215204.03799999633,
      "d": 91.88899999999558,
      "v": 48
    },
    {
      "midi": 55,
      "hit": false,
      "t": 215204.03799999633,
      "d": 91.88899999999558,
      "v": 48
    },
    {
      "midi": 58,
      "hit": false,
      "t": 215204.03799999633,
      "d": 91.88899999999558,
      "v": 48
    },
    {
      "midi": 63,
      "hit": false,
      "t": 215204.03799999633,
      "d": 91.88899999999558,
      "v": 61
    },
    {
      "midi": 72,
      "hit": false,
      "t": 215204.03799999654,
      "d": 91.88899999999558,
      "v": 74
    },
    {
      "midi": 70,
      "hit": false,
      "t": 215295.92699999653,
      "d": 91.88899999999558,
      "v": 74
    },
    {
      "midi": 51,
      "hit": false,
      "t": 215387.81599999632,
      "d": 91.88899999999558,
      "v": 48
    },
    {
      "midi": 55,
      "hit": false,
      "t": 215387.81599999632,
      "d": 91.88899999999558,
      "v": 48
    },
    {
      "midi": 58,
      "hit": false,
      "t": 215387.81599999632,
      "d": 91.88899999999558,
      "v": 48
    },
    {
      "midi": 63,
      "hit": false,
      "t": 215387.81599999632,
      "d": 91.88899999999558,
      "v": 61
    },
    {
      "midi": 68,
      "hit": false,
      "t": 215387.81599999653,
      "d": 91.88899999999558,
      "v": 73
    },
    {
      "midi": 67,
      "hit": false,
      "t": 215479.70499999652,
      "d": 91.88899999999558,
      "v": 72
    },
    {
      "midi": 51,
      "hit": false,
      "t": 215571.59399999632,
      "d": 91.88899999999558,
      "v": 48
    },
    {
      "midi": 53,
      "hit": false,
      "t": 215571.59399999632,
      "d": 91.88899999999558,
      "v": 48
    },
    {
      "midi": 56,
      "hit": false,
      "t": 215571.59399999632,
      "d": 91.88899999999558,
      "v": 48
    },
    {
      "midi": 58,
      "hit": false,
      "t": 215571.59399999632,
      "d": 91.88899999999558,
      "v": 61
    },
    {
      "midi": 65,
      "hit": false,
      "t": 215571.59399999652,
      "d": 91.88899999999558,
      "v": 70
    },
    {
      "midi": 63,
      "hit": false,
      "t": 215663.48299999651,
      "d": 91.88899999999558,
      "v": 64
    },
    {
      "midi": 51,
      "hit": false,
      "t": 215755.3719999963,
      "d": 91.88899999999558,
      "v": 48
    },
    {
      "midi": 53,
      "hit": false,
      "t": 215755.3719999963,
      "d": 91.88899999999558,
      "v": 48
    },
    {
      "midi": 56,
      "hit": false,
      "t": 215755.3719999963,
      "d": 91.88899999999558,
      "v": 48
    },
    {
      "midi": 58,
      "hit": false,
      "t": 215755.3719999963,
      "d": 91.88899999999558,
      "v": 61
    },
    {
      "midi": 62,
      "hit": false,
      "t": 215755.3719999965,
      "d": 91.88899999999558,
      "v": 70
    },
    {
      "midi": 65,
      "hit": false,
      "t": 215847.2609999965,
      "d": 91.88899999999558,
      "v": 66
    },
    {
      "midi": 51,
      "hit": false,
      "t": 215939.1499999963,
      "d": 91.88899999999558,
      "v": 48
    },
    {
      "midi": 53,
      "hit": false,
      "t": 215939.1499999963,
      "d": 91.88899999999558,
      "v": 48
    },
    {
      "midi": 56,
      "hit": false,
      "t": 215939.1499999963,
      "d": 91.88899999999558,
      "v": 48
    },
    {
      "midi": 58,
      "hit": false,
      "t": 215939.1499999963,
      "d": 91.88899999999558,
      "v": 61
    },
    {
      "midi": 68,
      "hit": false,
      "t": 215939.1499999965,
      "d": 91.88899999999558,
      "v": 75
    },
    {
      "midi": 62,
      "hit": false,
      "t": 216031.0389999965,
      "d": 91.88899999999558,
      "v": 69
    },
    {
      "midi": 39,
      "hit": false,
      "t": 216122.9279999963,
      "d": 91.88899999999558,
      "v": 73
    },
    {
      "midi": 55,
      "hit": false,
      "t": 216122.9279999965,
      "d": 91.88899999999558,
      "v": 85
    },
    {
      "midi": 63,
      "hit": false,
      "t": 216214.8169999965,
      "d": 91.88899999999558,
      "v": 70
    },
    {
      "midi": 51,
      "hit": false,
      "t": 216306.70599999628,
      "d": 91.88899999999558,
      "v": 49
    },
    {
      "midi": 55,
      "hit": false,
      "t": 216306.70599999628,
      "d": 91.88899999999558,
      "v": 62
    },
    {
      "midi": 58,
      "hit": false,
      "t": 216306.70599999648,
      "d": 91.88899999999558,
      "v": 79
    },
    {
      "midi": 67,
      "hit": false,
      "t": 216398.59499999648,
      "d": 91.88899999999558,
      "v": 70
    },
    {
      "midi": 51,
      "hit": false,
      "t": 216490.48399999627,
      "d": 91.88899999999558,
      "v": 49
    },
    {
      "midi": 55,
      "hit": false,
      "t": 216490.48399999627,
      "d": 91.88899999999558,
      "v": 49
    },
    {
      "midi": 58,
      "hit": false,
      "t": 216490.48399999627,
      "d": 91.88899999999558,
      "v": 62
    },
    {
      "midi": 63,
      "hit": false,
      "t": 216490.48399999648,
      "d": 91.88899999999558,
      "v": 81
    },
    {
      "midi": 70,
      "hit": false,
      "t": 216582.37299999647,
      "d": 91.88899999999558,
      "v": 70
    },
    {
      "midi": 51,
      "hit": false,
      "t": 216674.26199999626,
      "d": 91.88899999999558,
      "v": 49
    },
    {
      "midi": 55,
      "hit": false,
      "t": 216674.26199999626,
      "d": 91.88899999999558,
      "v": 49
    },
    {
      "midi": 58,
      "hit": false,
      "t": 216674.26199999626,
      "d": 91.88899999999558,
      "v": 49
    },
    {
      "midi": 63,
      "hit": false,
      "t": 216674.26199999626,
      "d": 91.88899999999558,
      "v": 62
    },
    {
      "midi": 67,
      "hit": false,
      "t": 216674.26199999647,
      "d": 91.88899999999558,
      "v": 86
    },
    {
      "midi": 75,
      "hit": false,
      "t": 216766.15099999646,
      "d": 91.88899999999558,
      "v": 70
    },
    {
      "midi": 51,
      "hit": false,
      "t": 216858.03999999625,
      "d": 91.88899999999558,
      "v": 49
    },
    {
      "midi": 55,
      "hit": false,
      "t": 216858.03999999625,
      "d": 91.88899999999558,
      "v": 49
    },
    {
      "midi": 58,
      "hit": false,
      "t": 216858.03999999625,
      "d": 91.88899999999558,
      "v": 49
    },
    {
      "midi": 63,
      "hit": false,
      "t": 216858.03999999625,
      "d": 91.88899999999558,
      "v": 62
    },
    {
      "midi": 70,
      "hit": false,
      "t": 216858.03999999646,
      "d": 91.88899999999558,
      "v": 77
    },
    {
      "midi": 79,
      "hit": false,
      "t": 216949.92899999645,
      "d": 91.88899999999558,
      "v": 70
    },
    {
      "midi": 51,
      "hit": false,
      "t": 217041.81799999624,
      "d": 91.88899999999558,
      "v": 49
    },
    {
      "midi": 55,
      "hit": false,
      "t": 217041.81799999624,
      "d": 91.88899999999558,
      "v": 49
    },
    {
      "midi": 58,
      "hit": false,
      "t": 217041.81799999624,
      "d": 91.88899999999558,
      "v": 49
    },
    {
      "midi": 63,
      "hit": false,
      "t": 217041.81799999624,
      "d": 91.88899999999558,
      "v": 62
    },
    {
      "midi": 75,
      "hit": false,
      "t": 217041.81799999645,
      "d": 91.88899999999558,
      "v": 78
    },
    {
      "midi": 82,
      "hit": false,
      "t": 217133.70699999644,
      "d": 91.88899999999558,
      "v": 70
    },
    {
      "midi": 51,
      "hit": false,
      "t": 217225.59599999624,
      "d": 91.88899999999558,
      "v": 56
    },
    {
      "midi": 55,
      "hit": false,
      "t": 217225.59599999624,
      "d": 91.88899999999558,
      "v": 56
    },
    {
      "midi": 58,
      "hit": false,
      "t": 217225.59599999624,
      "d": 91.88899999999558,
      "v": 56
    },
    {
      "midi": 63,
      "hit": false,
      "t": 217225.59599999624,
      "d": 91.88899999999558,
      "v": 70
    },
    {
      "midi": 79,
      "hit": false,
      "t": 217225.59599999644,
      "d": 91.88899999999558,
      "v": 86
    },
    {
      "midi": 87,
      "hit": false,
      "t": 217317.48499999644,
      "d": 91.88899999999558,
      "v": 70
    },
    {
      "midi": 51,
      "hit": false,
      "t": 217409.37399999623,
      "d": 91.88899999999558,
      "v": 49
    },
    {
      "midi": 55,
      "hit": false,
      "t": 217409.37399999623,
      "d": 91.88899999999558,
      "v": 49
    },
    {
      "midi": 58,
      "hit": false,
      "t": 217409.37399999623,
      "d": 91.88899999999558,
      "v": 49
    },
    {
      "midi": 63,
      "hit": false,
      "t": 217409.37399999623,
      "d": 91.88899999999558,
      "v": 62
    },
    {
      "midi": 82,
      "hit": false,
      "t": 217409.37399999643,
      "d": 91.88899999999558,
      "v": 77
    },
    {
      "midi": 91,
      "hit": false,
      "t": 217501.26299999643,
      "d": 91.88899999999558,
      "v": 67
    },
    {
      "midi": 51,
      "hit": false,
      "t": 217593.15199999622,
      "d": 91.88899999999558,
      "v": 49
    },
    {
      "midi": 55,
      "hit": false,
      "t": 217593.15199999622,
      "d": 91.88899999999558,
      "v": 49
    },
    {
      "midi": 58,
      "hit": false,
      "t": 217593.15199999622,
      "d": 91.88899999999558,
      "v": 49
    },
    {
      "midi": 63,
      "hit": false,
      "t": 217593.15199999622,
      "d": 91.88899999999558,
      "v": 62
    },
    {
      "midi": 87,
      "hit": false,
      "t": 217593.15199999642,
      "d": 91.88899999999558,
      "v": 75
    },
    {
      "midi": 94,
      "hit": false,
      "t": 217685.04099999642,
      "d": 91.88899999999558,
      "v": 68
    },
    {
      "midi": 51,
      "hit": false,
      "t": 217776.9299999962,
      "d": 91.88899999999558,
      "v": 49
    },
    {
      "midi": 55,
      "hit": false,
      "t": 217776.9299999962,
      "d": 91.88899999999558,
      "v": 49
    },
    {
      "midi": 58,
      "hit": false,
      "t": 217776.9299999962,
      "d": 91.88899999999558,
      "v": 49
    },
    {
      "midi": 61,
      "hit": false,
      "t": 217776.9299999962,
      "d": 91.88899999999558,
      "v": 62
    },
    {
      "midi": 93,
      "hit": false,
      "t": 217776.9299999964,
      "d": 91.88899999999558,
      "v": 80
    },
    {
      "midi": 94,
      "hit": false,
      "t": 217868.8189999964,
      "d": 91.88899999999558,
      "v": 72
    },
    {
      "midi": 51,
      "hit": false,
      "t": 217960.7079999962,
      "d": 91.88899999999558,
      "v": 49
    },
    {
      "midi": 55,
      "hit": false,
      "t": 217960.7079999962,
      "d": 91.88899999999558,
      "v": 49
    },
    {
      "midi": 58,
      "hit": false,
      "t": 217960.7079999962,
      "d": 91.88899999999558,
      "v": 49
    },
    {
      "midi": 61,
      "hit": false,
      "t": 217960.7079999962,
      "d": 91.88899999999558,
      "v": 62
    },
    {
      "midi": 93,
      "hit": false,
      "t": 217960.7079999964,
      "d": 91.88899999999558,
      "v": 77
    },
    {
      "midi": 94,
      "hit": false,
      "t": 218052.5969999964,
      "d": 91.88899999999558,
      "v": 70
    },
    {
      "midi": 51,
      "hit": false,
      "t": 218144.4859999962,
      "d": 91.88899999999558,
      "v": 49
    },
    {
      "midi": 55,
      "hit": false,
      "t": 218144.4859999962,
      "d": 91.88899999999558,
      "v": 49
    },
    {
      "midi": 58,
      "hit": false,
      "t": 218144.4859999962,
      "d": 91.88899999999558,
      "v": 49
    },
    {
      "midi": 61,
      "hit": false,
      "t": 218144.4859999962,
      "d": 91.88899999999558,
      "v": 62
    },
    {
      "midi": 93,
      "hit": false,
      "t": 218144.4859999964,
      "d": 91.88899999999558,
      "v": 75
    },
    {
      "midi": 94,
      "hit": false,
      "t": 218236.3749999964,
      "d": 91.88899999999558,
      "v": 70
    },
    {
      "midi": 51,
      "hit": false,
      "t": 218328.26399999618,
      "d": 91.88899999999558,
      "v": 57
    },
    {
      "midi": 55,
      "hit": false,
      "t": 218328.26399999618,
      "d": 91.88899999999558,
      "v": 57
    },
    {
      "midi": 58,
      "hit": false,
      "t": 218328.26399999618,
      "d": 91.88899999999558,
      "v": 57
    },
    {
      "midi": 61,
      "hit": false,
      "t": 218328.26399999618,
      "d": 91.88899999999558,
      "v": 72
    },
    {
      "midi": 96,
      "hit": false,
      "t": 218328.2639999964,
      "d": 91.88899999999558,
      "v": 84
    },
    {
      "midi": 94,
      "hit": false,
      "t": 218420.15299999638,
      "d": 91.88899999999558,
      "v": 84
    },
    {
      "midi": 51,
      "hit": false,
      "t": 218512.04199999617,
      "d": 91.88899999999558,
      "v": 49
    },
    {
      "midi": 55,
      "hit": false,
      "t": 218512.04199999617,
      "d": 91.88899999999558,
      "v": 49
    },
    {
      "midi": 58,
      "hit": false,
      "t": 218512.04199999617,
      "d": 91.88899999999558,
      "v": 49
    },
    {
      "midi": 61,
      "hit": false,
      "t": 218512.04199999617,
      "d": 91.88899999999558,
      "v": 62
    },
    {
      "midi": 92,
      "hit": false,
      "t": 218512.04199999638,
      "d": 91.88899999999558,
      "v": 83
    },
    {
      "midi": 91,
      "hit": false,
      "t": 218603.93099999637,
      "d": 91.88899999999558,
      "v": 82
    },
    {
      "midi": 51,
      "hit": false,
      "t": 218695.81999999617,
      "d": 91.88899999999558,
      "v": 49
    },
    {
      "midi": 55,
      "hit": false,
      "t": 218695.81999999617,
      "d": 91.88899999999558,
      "v": 49
    },
    {
      "midi": 58,
      "hit": false,
      "t": 218695.81999999617,
      "d": 91.88899999999558,
      "v": 49
    },
    {
      "midi": 61,
      "hit": false,
      "t": 218695.81999999617,
      "d": 91.88899999999558,
      "v": 62
    },
    {
      "midi": 89,
      "hit": false,
      "t": 218695.81999999637,
      "d": 91.88899999999558,
      "v": 81
    },
    {
      "midi": 87,
      "hit": false,
      "t": 218787.70899999636,
      "d": 91.88899999999558,
      "v": 81
    },
    {
      "midi": 51,
      "hit": false,
      "t": 218879.59799999616,
      "d": 91.88899999999558,
      "v": 49
    },
    {
      "midi": 55,
      "hit": false,
      "t": 218879.59799999616,
      "d": 91.88899999999558,
      "v": 49
    },
    {
      "midi": 58,
      "hit": false,
      "t": 218879.59799999616,
      "d": 91.88899999999558,
      "v": 49
    },
    {
      "midi": 61,
      "hit": false,
      "t": 218879.59799999616,
      "d": 91.88899999999558,
      "v": 62
    },
    {
      "midi": 85,
      "hit": false,
      "t": 218879.59799999636,
      "d": 91.88899999999558,
      "v": 79
    },
    {
      "midi": 84,
      "hit": false,
      "t": 218971.48699999636,
      "d": 91.88899999999558,
      "v": 71
    },
    {
      "midi": 51,
      "hit": false,
      "t": 219063.37599999615,
      "d": 91.88899999999558,
      "v": 49
    },
    {
      "midi": 55,
      "hit": false,
      "t": 219063.37599999615,
      "d": 91.88899999999558,
      "v": 49
    },
    {
      "midi": 58,
      "hit": false,
      "t": 219063.37599999615,
      "d": 91.88899999999558,
      "v": 49
    },
    {
      "midi": 61,
      "hit": false,
      "t": 219063.37599999615,
      "d": 91.88899999999558,
      "v": 62
    },
    {
      "midi": 82,
      "hit": false,
      "t": 219063.37599999635,
      "d": 91.88899999999558,
      "v": 71
    },
    {
      "midi": 80,
      "hit": false,
      "t": 219155.26499999635,
      "d": 91.88899999999558,
      "v": 71
    },
    {
      "midi": 51,
      "hit": false,
      "t": 219247.15399999614,
      "d": 91.88899999999558,
      "v": 49
    },
    {
      "midi": 55,
      "hit": false,
      "t": 219247.15399999614,
      "d": 91.88899999999558,
      "v": 49
    },
    {
      "midi": 58,
      "hit": false,
      "t": 219247.15399999614,
      "d": 91.88899999999558,
      "v": 49
    },
    {
      "midi": 61,
      "hit": false,
      "t": 219247.15399999614,
      "d": 91.88899999999558,
      "v": 62
    },
    {
      "midi": 79,
      "hit": false,
      "t": 219247.15399999634,
      "d": 91.88899999999558,
      "v": 71
    },
    {
      "midi": 77,
      "hit": false,
      "t": 219339.04299999634,
      "d": 91.88899999999558,
      "v": 71
    },
    {
      "midi": 51,
      "hit": false,
      "t": 219430.93199999613,
      "d": 91.88899999999558,
      "v": 55
    },
    {
      "midi": 55,
      "hit": false,
      "t": 219430.93199999613,
      "d": 91.88899999999558,
      "v": 55
    },
    {
      "midi": 58,
      "hit": false,
      "t": 219430.93199999613,
      "d": 91.88899999999558,
      "v": 55
    },
    {
      "midi": 61,
      "hit": false,
      "t": 219430.93199999613,
      "d": 91.88899999999558,
      "v": 69
    },
    {
      "midi": 75,
      "hit": false,
      "t": 219430.93199999633,
      "d": 92.65474166665808,
      "v": 77
    },
    {
      "midi": 73,
      "hit": false,
      "t": 219522.82099999633,
      "d": 92.65474166665808,
      "v": 75
    },
    {
      "midi": 51,
      "hit": false,
      "t": 219614.70999999612,
      "d": 91.88899999999558,
      "v": 48
    },
    {
      "midi": 55,
      "hit": false,
      "t": 219614.70999999612,
      "d": 91.88899999999558,
      "v": 48
    },
    {
      "midi": 58,
      "hit": false,
      "t": 219614.70999999612,
      "d": 91.88899999999558,
      "v": 48
    },
    {
      "midi": 61,
      "hit": false,
      "t": 219614.70999999612,
      "d": 91.88899999999558,
      "v": 61
    },
    {
      "midi": 72,
      "hit": false,
      "t": 219614.70999999632,
      "d": 91.88899999999558,
      "v": 74
    },
    {
      "midi": 70,
      "hit": false,
      "t": 219706.59899999632,
      "d": 91.88899999999558,
      "v": 74
    },
    {
      "midi": 51,
      "hit": false,
      "t": 219798.4879999961,
      "d": 91.88899999999558,
      "v": 48
    },
    {
      "midi": 56,
      "hit": false,
      "t": 219798.4879999961,
      "d": 91.88899999999558,
      "v": 48
    },
    {
      "midi": 60,
      "hit": false,
      "t": 219798.4879999961,
      "d": 91.88899999999558,
      "v": 61
    },
    {
      "midi": 68,
      "hit": false,
      "t": 219798.48799999632,
      "d": 91.88899999999558,
      "v": 73
    },
    {
      "midi": 67,
      "hit": false,
      "t": 219890.3769999963,
      "d": 91.88899999999558,
      "v": 72
    },
    {
      "midi": 51,
      "hit": false,
      "t": 219982.2659999961,
      "d": 91.88899999999558,
      "v": 48
    },
    {
      "midi": 53,
      "hit": false,
      "t": 219982.2659999961,
      "d": 91.88899999999558,
      "v": 48
    },
    {
      "midi": 56,
      "hit": false,
      "t": 219982.2659999961,
      "d": 91.88899999999558,
      "v": 48
    },
    {
      "midi": 59,
      "hit": false,
      "t": 219982.2659999961,
      "d": 91.88899999999558,
      "v": 61
    },
    {
      "midi": 65,
      "hit": false,
      "t": 219982.2659999963,
      "d": 91.88899999999558,
      "v": 68
    },
    {
      "midi": 63,
      "hit": false,
      "t": 220074.1549999963,
      "d": 91.88899999999558,
      "v": 59
    },
    {
      "midi": 51,
      "hit": false,
      "t": 220166.0439999961,
      "d": 91.88899999999558,
      "v": 48
    },
    {
      "midi": 53,
      "hit": false,
      "t": 220166.0439999961,
      "d": 91.88899999999558,
      "v": 48
    },
    {
      "midi": 56,
      "hit": false,
      "t": 220166.0439999961,
      "d": 91.88899999999558,
      "v": 48
    },
    {
      "midi": 59,
      "hit": false,
      "t": 220166.0439999961,
      "d": 91.88899999999558,
      "v": 61
    },
    {
      "midi": 62,
      "hit": false,
      "t": 220166.0439999963,
      "d": 91.88899999999558,
      "v": 66
    },
    {
      "midi": 65,
      "hit": false,
      "t": 220257.9329999963,
      "d": 91.88899999999558,
      "v": 59
    },
    {
      "midi": 51,
      "hit": false,
      "t": 220349.8219999961,
      "d": 91.88899999999558,
      "v": 48
    },
    {
      "midi": 53,
      "hit": false,
      "t": 220349.8219999961,
      "d": 91.88899999999558,
      "v": 48
    },
    {
      "midi": 56,
      "hit": false,
      "t": 220349.8219999961,
      "d": 91.88899999999558,
      "v": 48
    },
    {
      "midi": 58,
      "hit": false,
      "t": 220349.8219999961,
      "d": 91.88899999999558,
      "v": 61
    },
    {
      "midi": 68,
      "hit": false,
      "t": 220349.8219999963,
      "d": 91.88899999999558,
      "v": 64
    },
    {
      "midi": 62,
      "hit": false,
      "t": 220441.71099999628,
      "d": 91.88899999999558,
      "v": 59
    },
    {
      "midi": 39,
      "hit": false,
      "t": 220533.59999999608,
      "d": 183.77799999999115,
      "v": 80
    },
    {
      "midi": 51,
      "hit": false,
      "t": 220533.59999999608,
      "d": 183.77799999999115,
      "v": 80
    },
    {
      "midi": 63,
      "hit": false,
      "t": 220533.59999999628,
      "d": 183.77799999999115,
      "v": 95
    },
    {
      "midi": 63,
      "hit": false,
      "t": 221084.93399999608,
      "d": 183.77799999999115,
      "v": 75
    },
    {
      "midi": 75,
      "hit": false,
      "t": 221084.93399999628,
      "d": 183.77799999999115,
      "v": 89
    },
    {
      "midi": 66,
      "hit": false,
      "t": 221636.26799999608,
      "d": 183.77799999999115,
      "v": 81
    },
    {
      "midi": 78,
      "hit": false,
      "t": 221636.2679999963,
      "d": 183.77799999999115,
      "v": 96
    },
    {
      "midi": 71,
      "hit": false,
      "t": 222187.60199999608,
      "d": 183.77799999999115,
      "v": 74
    },
    {
      "midi": 83,
      "hit": false,
      "t": 222187.6019999963,
      "d": 183.77799999999115,
      "v": 88
    },
    {
      "midi": 66,
      "hit": false,
      "t": 222738.9359999961,
      "d": 183.77799999999115,
      "v": 79
    },
    {
      "midi": 78,
      "hit": false,
      "t": 222738.9359999963,
      "d": 183.77799999999115,
      "v": 94
    },
    {
      "midi": 63,
      "hit": false,
      "t": 223290.2699999961,
      "d": 183.77799999999115,
      "v": 74
    },
    {
      "midi": 75,
      "hit": false,
      "t": 223290.2699999963,
      "d": 183.77799999999115,
      "v": 88
    },
    {
      "midi": 59,
      "hit": false,
      "t": 223841.6039999961,
      "d": 183.77799999999115,
      "v": 78
    },
    {
      "midi": 71,
      "hit": false,
      "t": 223841.6039999963,
      "d": 183.77799999999115,
      "v": 93
    },
    {
      "midi": 54,
      "hit": false,
      "t": 224392.9379999961,
      "d": 183.77799999999115,
      "v": 70
    },
    {
      "midi": 66,
      "hit": false,
      "t": 224392.9379999963,
      "d": 183.77799999999115,
      "v": 82
    },
    {
      "midi": 38,
      "hit": false,
      "t": 224944.2719999961,
      "d": 183.77799999999115,
      "v": 80
    },
    {
      "midi": 50,
      "hit": false,
      "t": 224944.2719999961,
      "d": 183.77799999999115,
      "v": 80
    },
    {
      "midi": 62,
      "hit": false,
      "t": 224944.2719999963,
      "d": 183.77799999999115,
      "v": 95
    },
    {
      "midi": 62,
      "hit": false,
      "t": 225495.6059999961,
      "d": 183.77799999999115,
      "v": 75
    },
    {
      "midi": 74,
      "hit": false,
      "t": 225495.6059999963,
      "d": 183.77799999999115,
      "v": 89
    },
    {
      "midi": 65,
      "hit": false,
      "t": 226046.9399999961,
      "d": 183.77799999999115,
      "v": 81
    },
    {
      "midi": 77,
      "hit": false,
      "t": 226046.9399999963,
      "d": 183.77799999999115,
      "v": 96
    },
    {
      "midi": 70,
      "hit": false,
      "t": 226598.2739999961,
      "d": 183.77799999999115,
      "v": 74
    },
    {
      "midi": 82,
      "hit": false,
      "t": 226598.2739999963,
      "d": 183.77799999999115,
      "v": 88
    },
    {
      "midi": 65,
      "hit": false,
      "t": 227149.6079999961,
      "d": 183.77799999999115,
      "v": 79
    },
    {
      "midi": 77,
      "hit": false,
      "t": 227149.6079999963,
      "d": 183.77799999999115,
      "v": 94
    },
    {
      "midi": 62,
      "hit": false,
      "t": 227700.9419999961,
      "d": 183.77799999999115,
      "v": 74
    },
    {
      "midi": 74,
      "hit": false,
      "t": 227700.9419999963,
      "d": 183.77799999999115,
      "v": 88
    },
    {
      "midi": 58,
      "hit": false,
      "t": 228252.2759999961,
      "d": 183.77799999999115,
      "v": 78
    },
    {
      "midi": 70,
      "hit": false,
      "t": 228252.27599999632,
      "d": 183.77799999999115,
      "v": 93
    },
    {
      "midi": 53,
      "hit": false,
      "t": 228803.60999999612,
      "d": 183.77799999999115,
      "v": 70
    },
    {
      "midi": 65,
      "hit": false,
      "t": 228803.60999999632,
      "d": 183.77799999999115,
      "v": 82
    },
    {
      "midi": 63,
      "hit": false,
      "t": 229354.94399999612,
      "d": 91.88899999999558,
      "v": 34
    },
    {
      "midi": 66,
      "hit": false,
      "t": 229354.94399999612,
      "d": 91.88899999999558,
      "v": 34
    },
    {
      "midi": 71,
      "hit": false,
      "t": 229354.94399999612,
      "d": 91.88899999999558,
      "v": 40
    },
    {
      "midi": 78,
      "hit": false,
      "t": 229354.94399999632,
      "d": 91.88899999999558,
      "v": 55
    },
    {
      "midi": 63,
      "hit": false,
      "t": 229538.7219999961,
      "d": 91.88899999999558,
      "v": 29
    },
    {
      "midi": 66,
      "hit": false,
      "t": 229538.7219999961,
      "d": 91.88899999999558,
      "v": 29
    },
    {
      "midi": 71,
      "hit": false,
      "t": 229538.7219999961,
      "d": 91.88899999999558,
      "v": 35
    },
    {
      "midi": 89,
      "hit": false,
      "t": 229676.55549999632,
      "d": 45.94450000001234,
      "v": 51
    },
    {
      "midi": 63,
      "hit": false,
      "t": 229722.4999999961,
      "d": 91.88899999999558,
      "v": 29
    },
    {
      "midi": 66,
      "hit": false,
      "t": 229722.4999999961,
      "d": 91.88899999999558,
      "v": 29
    },
    {
      "midi": 71,
      "hit": false,
      "t": 229722.4999999961,
      "d": 91.88899999999558,
      "v": 35
    },
    {
      "midi": 87,
      "hit": false,
      "t": 229722.49999999633,
      "d": 91.88899999999558,
      "v": 56
    },
    {
      "midi": 86,
      "hit": false,
      "t": 229814.38899999633,
      "d": 91.88899999999558,
      "v": 51
    },
    {
      "midi": 63,
      "hit": false,
      "t": 229906.2779999961,
      "d": 91.88899999999558,
      "v": 29
    },
    {
      "midi": 66,
      "hit": false,
      "t": 229906.2779999961,
      "d": 91.88899999999558,
      "v": 29
    },
    {
      "midi": 71,
      "hit": false,
      "t": 229906.2779999961,
      "d": 91.88899999999558,
      "v": 35
    },
    {
      "midi": 87,
      "hit": false,
      "t": 229906.27799999632,
      "d": 183.77799999999115,
      "v": 56
    },
    {
      "midi": 63,
      "hit": false,
      "t": 230090.05599999608,
      "d": 91.88899999999558,
      "v": 29
    },
    {
      "midi": 66,
      "hit": false,
      "t": 230090.05599999608,
      "d": 91.88899999999558,
      "v": 29
    },
    {
      "midi": 71,
      "hit": false,
      "t": 230090.05599999608,
      "d": 91.88899999999558,
      "v": 35
    },
    {
      "midi": 92,
      "hit": false,
      "t": 230227.88949999632,
      "d": 45.94450000001234,
      "v": 51
    },
    {
      "midi": 63,
      "hit": false,
      "t": 230273.83399999607,
      "d": 91.88899999999558,
      "v": 29
    },
    {
      "midi": 66,
      "hit": false,
      "t": 230273.83399999607,
      "d": 91.88899999999558,
      "v": 29
    },
    {
      "midi": 71,
      "hit": false,
      "t": 230273.83399999607,
      "d": 91.88899999999558,
      "v": 35
    },
    {
      "midi": 90,
      "hit": false,
      "t": 230273.83399999634,
      "d": 91.88899999999558,
      "v": 57
    },
    {
      "midi": 89,
      "hit": false,
      "t": 230365.72299999633,
      "d": 91.88899999999558,
      "v": 50
    },
    {
      "midi": 63,
      "hit": false,
      "t": 230457.61199999606,
      "d": 91.88899999999558,
      "v": 34
    },
    {
      "midi": 66,
      "hit": false,
      "t": 230457.61199999606,
      "d": 91.88899999999558,
      "v": 34
    },
    {
      "midi": 71,
      "hit": false,
      "t": 230457.61199999606,
      "d": 91.88899999999558,
      "v": 40
    },
    {
      "midi": 90,
      "hit": false,
      "t": 230457.61199999633,
      "d": 91.88899999999558,
      "v": 60
    },
    {
      "midi": 63,
      "hit": false,
      "t": 230641.38999999606,
      "d": 91.88899999999558,
      "v": 29
    },
    {
      "midi": 66,
      "hit": false,
      "t": 230641.38999999606,
      "d": 91.88899999999558,
      "v": 29
    },
    {
      "midi": 71,
      "hit": false,
      "t": 230641.38999999606,
      "d": 91.88899999999558,
      "v": 35
    },
    {
      "midi": 97,
      "hit": false,
      "t": 230779.22349999633,
      "d": 45.94450000001234,
      "v": 51
    },
    {
      "midi": 63,
      "hit": false,
      "t": 230825.16799999605,
      "d": 91.88899999999558,
      "v": 29
    },
    {
      "midi": 66,
      "hit": false,
      "t": 230825.16799999605,
      "d": 91.88899999999558,
      "v": 29
    },
    {
      "midi": 71,
      "hit": false,
      "t": 230825.16799999605,
      "d": 91.88899999999558,
      "v": 35
    },
    {
      "midi": 95,
      "hit": false,
      "t": 230825.16799999634,
      "d": 91.88899999999558,
      "v": 56
    },
    {
      "midi": 94,
      "hit": false,
      "t": 230917.05699999633,
      "d": 91.88899999999558,
      "v": 51
    },
    {
      "midi": 63,
      "hit": false,
      "t": 231008.94599999604,
      "d": 91.88899999999558,
      "v": 29
    },
    {
      "midi": 66,
      "hit": false,
      "t": 231008.94599999604,
      "d": 91.88899999999558,
      "v": 29
    },
    {
      "midi": 71,
      "hit": false,
      "t": 231008.94599999604,
      "d": 91.88899999999558,
      "v": 35
    },
    {
      "midi": 95,
      "hit": false,
      "t": 231008.94599999633,
      "d": 183.77799999999115,
      "v": 56
    },
    {
      "midi": 63,
      "hit": false,
      "t": 231192.72399999603,
      "d": 91.88899999999558,
      "v": 29
    },
    {
      "midi": 66,
      "hit": false,
      "t": 231192.72399999603,
      "d": 91.88899999999558,
      "v": 29
    },
    {
      "midi": 71,
      "hit": false,
      "t": 231192.72399999603,
      "d": 91.88899999999558,
      "v": 35
    },
    {
      "midi": 92,
      "hit": false,
      "t": 231330.55749999633,
      "d": 45.94450000001234,
      "v": 51
    },
    {
      "midi": 63,
      "hit": false,
      "t": 231376.50199999602,
      "d": 91.88899999999558,
      "v": 29
    },
    {
      "midi": 66,
      "hit": false,
      "t": 231376.50199999602,
      "d": 91.88899999999558,
      "v": 29
    },
    {
      "midi": 71,
      "hit": false,
      "t": 231376.50199999602,
      "d": 91.88899999999558,
      "v": 35
    },
    {
      "midi": 90,
      "hit": false,
      "t": 231376.50199999634,
      "d": 91.88899999999558,
      "v": 57
    },
    {
      "midi": 89,
      "hit": false,
      "t": 231468.39099999634,
      "d": 91.88899999999558,
      "v": 50
    },
    {
      "midi": 63,
      "hit": false,
      "t": 231560.279999996,
      "d": 91.88899999999558,
      "v": 34
    },
    {
      "midi": 66,
      "hit": false,
      "t": 231560.279999996,
      "d": 91.88899999999558,
      "v": 34
    },
    {
      "midi": 71,
      "hit": false,
      "t": 231560.279999996,
      "d": 91.88899999999558,
      "v": 40
    },
    {
      "midi": 90,
      "hit": false,
      "t": 231560.27999999633,
      "d": 91.88899999999558,
      "v": 60
    },
    {
      "midi": 63,
      "hit": false,
      "t": 231744.057999996,
      "d": 91.88899999999558,
      "v": 29
    },
    {
      "midi": 66,
      "hit": false,
      "t": 231744.057999996,
      "d": 91.88899999999558,
      "v": 29
    },
    {
      "midi": 71,
      "hit": false,
      "t": 231744.057999996,
      "d": 91.88899999999558,
      "v": 35
    },
    {
      "midi": 89,
      "hit": false,
      "t": 231881.89149999633,
      "d": 45.94450000001234,
      "v": 51
    },
    {
      "midi": 63,
      "hit": false,
      "t": 231927.835999996,
      "d": 91.88899999999558,
      "v": 29
    },
    {
      "midi": 66,
      "hit": false,
      "t": 231927.835999996,
      "d": 91.88899999999558,
      "v": 29
    },
    {
      "midi": 71,
      "hit": false,
      "t": 231927.835999996,
      "d": 91.88899999999558,
      "v": 35
    },
    {
      "midi": 87,
      "hit": false,
      "t": 231927.83599999634,
      "d": 91.88899999999558,
      "v": 56
    },
    {
      "midi": 86,
      "hit": false,
      "t": 232019.72499999634,
      "d": 91.88899999999558,
      "v": 51
    },
    {
      "midi": 63,
      "hit": false,
      "t": 232111.61399999599,
      "d": 91.88899999999558,
      "v": 29
    },
    {
      "midi": 66,
      "hit": false,
      "t": 232111.61399999599,
      "d": 91.88899999999558,
      "v": 29
    },
    {
      "midi": 71,
      "hit": false,
      "t": 232111.61399999599,
      "d": 91.88899999999558,
      "v": 35
    },
    {
      "midi": 87,
      "hit": false,
      "t": 232111.61399999633,
      "d": 183.77799999999115,
      "v": 56
    },
    {
      "midi": 63,
      "hit": false,
      "t": 232295.39199999598,
      "d": 91.88899999999558,
      "v": 29
    },
    {
      "midi": 66,
      "hit": false,
      "t": 232295.39199999598,
      "d": 91.88899999999558,
      "v": 29
    },
    {
      "midi": 71,
      "hit": false,
      "t": 232295.39199999598,
      "d": 91.88899999999558,
      "v": 35
    },
    {
      "midi": 85,
      "hit": false,
      "t": 232433.22549999633,
      "d": 45.94450000001234,
      "v": 51
    },
    {
      "midi": 63,
      "hit": false,
      "t": 232479.16999999597,
      "d": 91.88899999999558,
      "v": 29
    },
    {
      "midi": 66,
      "hit": false,
      "t": 232479.16999999597,
      "d": 91.88899999999558,
      "v": 29
    },
    {
      "midi": 71,
      "hit": false,
      "t": 232479.16999999597,
      "d": 91.88899999999558,
      "v": 35
    },
    {
      "midi": 83,
      "hit": false,
      "t": 232479.16999999635,
      "d": 91.88899999999558,
      "v": 57
    },
    {
      "midi": 82,
      "hit": false,
      "t": 232571.05899999634,
      "d": 91.88899999999558,
      "v": 50
    },
    {
      "midi": 63,
      "hit": false,
      "t": 232662.94799999596,
      "d": 91.88899999999558,
      "v": 34
    },
    {
      "midi": 66,
      "hit": false,
      "t": 232662.94799999596,
      "d": 91.88899999999558,
      "v": 34
    },
    {
      "midi": 71,
      "hit": false,
      "t": 232662.94799999596,
      "d": 91.88899999999558,
      "v": 40
    },
    {
      "midi": 83,
      "hit": false,
      "t": 232662.94799999634,
      "d": 91.88899999999558,
      "v": 60
    },
    {
      "midi": 63,
      "hit": false,
      "t": 232846.72599999595,
      "d": 91.88899999999558,
      "v": 29
    },
    {
      "midi": 66,
      "hit": false,
      "t": 232846.72599999595,
      "d": 91.88899999999558,
      "v": 29
    },
    {
      "midi": 71,
      "hit": false,
      "t": 232846.72599999595,
      "d": 91.88899999999558,
      "v": 35
    },
    {
      "midi": 80,
      "hit": false,
      "t": 232984.55949999634,
      "d": 45.94450000001234,
      "v": 51
    },
    {
      "midi": 63,
      "hit": false,
      "t": 233030.50399999594,
      "d": 91.88899999999558,
      "v": 29
    },
    {
      "midi": 66,
      "hit": false,
      "t": 233030.50399999594,
      "d": 91.88899999999558,
      "v": 29
    },
    {
      "midi": 71,
      "hit": false,
      "t": 233030.50399999594,
      "d": 91.88899999999558,
      "v": 35
    },
    {
      "midi": 78,
      "hit": false,
      "t": 233030.50399999635,
      "d": 91.88899999999558,
      "v": 56
    },
    {
      "midi": 77,
      "hit": false,
      "t": 233122.39299999634,
      "d": 91.88899999999558,
      "v": 51
    },
    {
      "midi": 63,
      "hit": false,
      "t": 233214.28199999593,
      "d": 91.88899999999558,
      "v": 29
    },
    {
      "midi": 66,
      "hit": false,
      "t": 233214.28199999593,
      "d": 91.88899999999558,
      "v": 29
    },
    {
      "midi": 71,
      "hit": false,
      "t": 233214.28199999593,
      "d": 91.88899999999558,
      "v": 35
    },
    {
      "midi": 78,
      "hit": false,
      "t": 233214.28199999634,
      "d": 367.5560000000114,
      "v": 56
    },
    {
      "midi": 63,
      "hit": false,
      "t": 233398.05999999592,
      "d": 91.88899999999558,
      "v": 29
    },
    {
      "midi": 66,
      "hit": false,
      "t": 233398.05999999592,
      "d": 91.88899999999558,
      "v": 29
    },
    {
      "midi": 71,
      "hit": false,
      "t": 233398.05999999592,
      "d": 91.88899999999558,
      "v": 35
    },
    {
      "midi": 63,
      "hit": false,
      "t": 233581.8379999959,
      "d": 91.88899999999558,
      "v": 29
    },
    {
      "midi": 66,
      "hit": false,
      "t": 233581.8379999959,
      "d": 91.88899999999558,
      "v": 29
    },
    {
      "midi": 69,
      "hit": false,
      "t": 233581.8379999959,
      "d": 91.88899999999558,
      "v": 35
    },
    {
      "midi": 62,
      "hit": false,
      "t": 233765.6159999959,
      "d": 91.88899999999558,
      "v": 34
    },
    {
      "midi": 65,
      "hit": false,
      "t": 233765.6159999959,
      "d": 91.88899999999558,
      "v": 34
    },
    {
      "midi": 70,
      "hit": false,
      "t": 233765.6159999959,
      "d": 91.88899999999558,
      "v": 40
    },
    {
      "midi": 77,
      "hit": false,
      "t": 233765.61599999634,
      "d": 91.88899999999558,
      "v": 55
    },
    {
      "midi": 62,
      "hit": false,
      "t": 233949.3939999959,
      "d": 91.88899999999558,
      "v": 29
    },
    {
      "midi": 65,
      "hit": false,
      "t": 233949.3939999959,
      "d": 91.88899999999558,
      "v": 29
    },
    {
      "midi": 70,
      "hit": false,
      "t": 233949.3939999959,
      "d": 91.88899999999558,
      "v": 35
    },
    {
      "midi": 87,
      "hit": false,
      "t": 234087.22749999634,
      "d": 45.94450000001234,
      "v": 51
    },
    {
      "midi": 62,
      "hit": false,
      "t": 234133.1719999959,
      "d": 91.88899999999558,
      "v": 29
    },
    {
      "midi": 65,
      "hit": false,
      "t": 234133.1719999959,
      "d": 91.88899999999558,
      "v": 29
    },
    {
      "midi": 70,
      "hit": false,
      "t": 234133.1719999959,
      "d": 91.88899999999558,
      "v": 35
    },
    {
      "midi": 86,
      "hit": false,
      "t": 234133.17199999635,
      "d": 91.88899999999558,
      "v": 56
    },
    {
      "midi": 84,
      "hit": false,
      "t": 234225.06099999635,
      "d": 91.88899999999558,
      "v": 51
    },
    {
      "midi": 62,
      "hit": false,
      "t": 234316.94999999588,
      "d": 91.88899999999558,
      "v": 29
    },
    {
      "midi": 65,
      "hit": false,
      "t": 234316.94999999588,
      "d": 91.88899999999558,
      "v": 29
    },
    {
      "midi": 70,
      "hit": false,
      "t": 234316.94999999588,
      "d": 91.88899999999558,
      "v": 35
    },
    {
      "midi": 86,
      "hit": false,
      "t": 234316.94999999634,
      "d": 183.77799999999115,
      "v": 56
    },
    {
      "midi": 62,
      "hit": false,
      "t": 234500.72799999587,
      "d": 91.88899999999558,
      "v": 29
    },
    {
      "midi": 65,
      "hit": false,
      "t": 234500.72799999587,
      "d": 91.88899999999558,
      "v": 29
    },
    {
      "midi": 70,
      "hit": false,
      "t": 234500.72799999587,
      "d": 91.88899999999558,
      "v": 35
    },
    {
      "midi": 90,
      "hit": false,
      "t": 234638.56149999634,
      "d": 45.94450000001234,
      "v": 51
    },
    {
      "midi": 62,
      "hit": false,
      "t": 234684.50599999586,
      "d": 91.88899999999558,
      "v": 29
    },
    {
      "midi": 65,
      "hit": false,
      "t": 234684.50599999586,
      "d": 91.88899999999558,
      "v": 29
    },
    {
      "midi": 70,
      "hit": false,
      "t": 234684.50599999586,
      "d": 91.88899999999558,
      "v": 35
    },
    {
      "midi": 89,
      "hit": false,
      "t": 234684.50599999636,
      "d": 91.88899999999558,
      "v": 57
    },
    {
      "midi": 88,
      "hit": false,
      "t": 234776.39499999635,
      "d": 91.88899999999558,
      "v": 50
    },
    {
      "midi": 62,
      "hit": false,
      "t": 234868.28399999585,
      "d": 91.88899999999558,
      "v": 34
    },
    {
      "midi": 65,
      "hit": false,
      "t": 234868.28399999585,
      "d": 91.88899999999558,
      "v": 34
    },
    {
      "midi": 70,
      "hit": false,
      "t": 234868.28399999585,
      "d": 91.88899999999558,
      "v": 40
    },
    {
      "midi": 89,
      "hit": false,
      "t": 234868.28399999635,
      "d": 91.88899999999558,
      "v": 60
    },
    {
      "midi": 62,
      "hit": false,
      "t": 235052.06199999584,
      "d": 91.88899999999558,
      "v": 29
    },
    {
      "midi": 65,
      "hit": false,
      "t": 235052.06199999584,
      "d": 91.88899999999558,
      "v": 29
    },
    {
      "midi": 70,
      "hit": false,
      "t": 235052.06199999584,
      "d": 91.88899999999558,
      "v": 35
    },
    {
      "midi": 95,
      "hit": false,
      "t": 235189.89549999635,
      "d": 45.94450000001234,
      "v": 51
    },
    {
      "midi": 62,
      "hit": false,
      "t": 235235.83999999583,
      "d": 91.88899999999558,
      "v": 29
    },
    {
      "midi": 65,
      "hit": false,
      "t": 235235.83999999583,
      "d": 91.88899999999558,
      "v": 29
    },
    {
      "midi": 70,
      "hit": false,
      "t": 235235.83999999583,
      "d": 91.88899999999558,
      "v": 35
    },
    {
      "midi": 94,
      "hit": false,
      "t": 235235.83999999636,
      "d": 91.88899999999558,
      "v": 56
    },
    {
      "midi": 93,
      "hit": false,
      "t": 235327.72899999635,
      "d": 91.88899999999558,
      "v": 51
    },
    {
      "midi": 62,
      "hit": false,
      "t": 235419.61799999583,
      "d": 91.88899999999558,
      "v": 29
    },
    {
      "midi": 65,
      "hit": false,
      "t": 235419.61799999583,
      "d": 91.88899999999558,
      "v": 29
    },
    {
      "midi": 70,
      "hit": false,
      "t": 235419.61799999583,
      "d": 91.88899999999558,
      "v": 35
    },
    {
      "midi": 94,
      "hit": false,
      "t": 235419.61799999635,
      "d": 183.77799999999115,
      "v": 56
    },
    {
      "midi": 62,
      "hit": false,
      "t": 235603.39599999582,
      "d": 91.88899999999558,
      "v": 29
    },
    {
      "midi": 65,
      "hit": false,
      "t": 235603.39599999582,
      "d": 91.88899999999558,
      "v": 29
    },
    {
      "midi": 70,
      "hit": false,
      "t": 235603.39599999582,
      "d": 91.88899999999558,
      "v": 35
    },
    {
      "midi": 90,
      "hit": false,
      "t": 235741.22949999635,
      "d": 45.94450000001234,
      "v": 51
    },
    {
      "midi": 62,
      "hit": false,
      "t": 235787.1739999958,
      "d": 91.88899999999558,
      "v": 29
    },
    {
      "midi": 65,
      "hit": false,
      "t": 235787.1739999958,
      "d": 91.88899999999558,
      "v": 29
    },
    {
      "midi": 70,
      "hit": false,
      "t": 235787.1739999958,
      "d": 91.88899999999558,
      "v": 35
    },
    {
      "midi": 89,
      "hit": false,
      "t": 235787.17399999636,
      "d": 91.88899999999558,
      "v": 57
    },
    {
      "midi": 88,
      "hit": false,
      "t": 235879.06299999636,
      "d": 91.88899999999558,
      "v": 50
    },
    {
      "midi": 62,
      "hit": false,
      "t": 235970.9519999958,
      "d": 91.88899999999558,
      "v": 34
    },
    {
      "midi": 65,
      "hit": false,
      "t": 235970.9519999958,
      "d": 91.88899999999558,
      "v": 34
    },
    {
      "midi": 70,
      "hit": false,
      "t": 235970.9519999958,
      "d": 91.88899999999558,
      "v": 40
    },
    {
      "midi": 89,
      "hit": false,
      "t": 235970.95199999635,
      "d": 91.88899999999558,
      "v": 60
    },
    {
      "midi": 62,
      "hit": false,
      "t": 236154.7299999958,
      "d": 91.88899999999558,
      "v": 29
    },
    {
      "midi": 65,
      "hit": false,
      "t": 236154.7299999958,
      "d": 91.88899999999558,
      "v": 29
    },
    {
      "midi": 70,
      "hit": false,
      "t": 236154.7299999958,
      "d": 91.88899999999558,
      "v": 35
    },
    {
      "midi": 87,
      "hit": false,
      "t": 236292.56349999635,
      "d": 45.94450000001234,
      "v": 51
    },
    {
      "midi": 62,
      "hit": false,
      "t": 236338.50799999578,
      "d": 91.88899999999558,
      "v": 29
    },
    {
      "midi": 65,
      "hit": false,
      "t": 236338.50799999578,
      "d": 91.88899999999558,
      "v": 29
    },
    {
      "midi": 70,
      "hit": false,
      "t": 236338.50799999578,
      "d": 91.88899999999558,
      "v": 35
    },
    {
      "midi": 86,
      "hit": false,
      "t": 236338.50799999636,
      "d": 91.88899999999558,
      "v": 56
    },
    {
      "midi": 84,
      "hit": false,
      "t": 236430.39699999636,
      "d": 91.88899999999558,
      "v": 51
    },
    {
      "midi": 62,
      "hit": false,
      "t": 236522.28599999577,
      "d": 91.88899999999558,
      "v": 29
    },
    {
      "midi": 65,
      "hit": false,
      "t": 236522.28599999577,
      "d": 91.88899999999558,
      "v": 29
    },
    {
      "midi": 70,
      "hit": false,
      "t": 236522.28599999577,
      "d": 91.88899999999558,
      "v": 35
    },
    {
      "midi": 86,
      "hit": false,
      "t": 236522.28599999635,
      "d": 183.77799999999115,
      "v": 56
    },
    {
      "midi": 62,
      "hit": false,
      "t": 236706.06399999576,
      "d": 91.88899999999558,
      "v": 29
    },
    {
      "midi": 65,
      "hit": false,
      "t": 236706.06399999576,
      "d": 91.88899999999558,
      "v": 29
    },
    {
      "midi": 70,
      "hit": false,
      "t": 236706.06399999576,
      "d": 91.88899999999558,
      "v": 35
    },
    {
      "midi": 83,
      "hit": false,
      "t": 236843.89749999635,
      "d": 45.94450000001234,
      "v": 51
    },
    {
      "midi": 62,
      "hit": false,
      "t": 236889.84199999576,
      "d": 91.88899999999558,
      "v": 29
    },
    {
      "midi": 65,
      "hit": false,
      "t": 236889.84199999576,
      "d": 91.88899999999558,
      "v": 29
    },
    {
      "midi": 70,
      "hit": false,
      "t": 236889.84199999576,
      "d": 91.88899999999558,
      "v": 35
    },
    {
      "midi": 82,
      "hit": false,
      "t": 236889.84199999637,
      "d": 91.88899999999558,
      "v": 57
    },
    {
      "midi": 81,
      "hit": false,
      "t": 236981.73099999636,
      "d": 91.88899999999558,
      "v": 50
    },
    {
      "midi": 62,
      "hit": false,
      "t": 237073.61999999575,
      "d": 91.88899999999558,
      "v": 34
    },
    {
      "midi": 65,
      "hit": false,
      "t": 237073.61999999575,
      "d": 91.88899999999558,
      "v": 34
    },
    {
      "midi": 70,
      "hit": false,
      "t": 237073.61999999575,
      "d": 91.88899999999558,
      "v": 40
    },
    {
      "midi": 82,
      "hit": false,
      "t": 237073.61999999636,
      "d": 91.88899999999558,
      "v": 60
    },
    {
      "midi": 62,
      "hit": false,
      "t": 237257.39799999574,
      "d": 91.88899999999558,
      "v": 29
    },
    {
      "midi": 65,
      "hit": false,
      "t": 237257.39799999574,
      "d": 91.88899999999558,
      "v": 29
    },
    {
      "midi": 70,
      "hit": false,
      "t": 237257.39799999574,
      "d": 91.88899999999558,
      "v": 35
    },
    {
      "midi": 78,
      "hit": false,
      "t": 237395.23149999636,
      "d": 45.94450000001234,
      "v": 51
    },
    {
      "midi": 62,
      "hit": false,
      "t": 237441.17599999573,
      "d": 91.88899999999558,
      "v": 29
    },
    {
      "midi": 65,
      "hit": false,
      "t": 237441.17599999573,
      "d": 91.88899999999558,
      "v": 29
    },
    {
      "midi": 70,
      "hit": false,
      "t": 237441.17599999573,
      "d": 91.88899999999558,
      "v": 35
    },
    {
      "midi": 77,
      "hit": false,
      "t": 237441.17599999637,
      "d": 91.88899999999558,
      "v": 56
    },
    {
      "midi": 76,
      "hit": false,
      "t": 237533.06499999636,
      "d": 91.88899999999558,
      "v": 51
    },
    {
      "midi": 62,
      "hit": false,
      "t": 237624.95399999572,
      "d": 183.77799999999115,
      "v": 29
    },
    {
      "midi": 65,
      "hit": false,
      "t": 237624.95399999572,
      "d": 183.77799999999115,
      "v": 29
    },
    {
      "midi": 70,
      "hit": false,
      "t": 237624.95399999572,
      "d": 183.77799999999115,
      "v": 35
    },
    {
      "midi": 77,
      "hit": false,
      "t": 237624.95399999636,
      "d": 183.77799999999115,
      "v": 56
    },
    {
      "midi": 58,
      "hit": false,
      "t": 237808.7319999957,
      "d": 183.77799999999115,
      "v": 35
    },
    {
      "midi": 56,
      "hit": false,
      "t": 237992.5099999957,
      "d": 183.77799999999115,
      "v": 35
    },
    {
      "midi": 78,
      "hit": false,
      "t": 237992.50999999634,
      "d": 183.77799999999115,
      "v": 52
    },
    {
      "midi": 55,
      "hit": false,
      "t": 238176.2879999957,
      "d": 367.5560000000114,
      "v": 40
    },
    {
      "midi": 51,
      "hit": false,
      "t": 238176.2879999957,
      "d": 1102.6680000000051,
      "v": 40
    },
    {
      "midi": 70,
      "hit": false,
      "t": 238176.28799999633,
      "d": 91.88899999999558,
      "v": 35
    },
    {
      "midi": 79,
      "hit": false,
      "t": 238176.28799999633,
      "d": 551.3339999999735,
      "v": 56
    },
    {
      "midi": 72,
      "hit": false,
      "t": 238268.17699999633,
      "d": 91.88899999999558,
      "v": 31
    },
    {
      "midi": 70,
      "hit": false,
      "t": 238360.06599999632,
      "d": 91.88899999999558,
      "v": 35
    },
    {
      "midi": 72,
      "hit": false,
      "t": 238451.95499999632,
      "d": 91.88899999999558,
      "v": 31
    },
    {
      "midi": 60,
      "hit": false,
      "t": 238543.8439999957,
      "d": 183.77799999999115,
      "v": 33
    },
    {
      "midi": 70,
      "hit": false,
      "t": 238543.84399999632,
      "d": 91.88899999999558,
      "v": 34
    },
    {
      "midi": 72,
      "hit": false,
      "t": 238635.7329999963,
      "d": 91.88899999999558,
      "v": 31
    },
    {
      "midi": 58,
      "hit": false,
      "t": 238727.6219999957,
      "d": 367.5560000000114,
      "v": 42
    },
    {
      "midi": 70,
      "hit": false,
      "t": 238727.6219999963,
      "d": 91.88899999999558,
      "v": 36
    },
    {
      "midi": 75,
      "hit": false,
      "t": 238727.6219999963,
      "d": 551.3339999999735,
      "v": 55
    },
    {
      "midi": 72,
      "hit": false,
      "t": 238819.5109999963,
      "d": 91.88899999999558,
      "v": 32
    },
    {
      "midi": 70,
      "hit": false,
      "t": 238911.3999999963,
      "d": 91.88899999999558,
      "v": 36
    },
    {
      "midi": 72,
      "hit": false,
      "t": 239003.2889999963,
      "d": 91.88899999999558,
      "v": 31
    },
    {
      "midi": 55,
      "hit": false,
      "t": 239095.1779999957,
      "d": 183.77799999999115,
      "v": 39
    },
    {
      "midi": 70,
      "hit": false,
      "t": 239095.1779999963,
      "d": 91.88899999999558,
      "v": 37
    },
    {
      "midi": 72,
      "hit": false,
      "t": 239187.06699999628,
      "d": 91.88899999999558,
      "v": 31
    },
    {
      "midi": 53,
      "hit": false,
      "t": 239278.9559999957,
      "d": 367.5560000000114,
      "v": 42
    },
    {
      "midi": 46,
      "hit": false,
      "t": 239278.9559999957,
      "d": 1102.6680000000051,
      "v": 42
    },
    {
      "midi": 70,
      "hit": false,
      "t": 239278.95599999628,
      "d": 91.88899999999558,
      "v": 37
    },
    {
      "midi": 74,
      "hit": false,
      "t": 239278.95599999628,
      "d": 551.3339999999735,
      "v": 59
    },
    {
      "midi": 72,
      "hit": false,
      "t": 239370.84499999628,
      "d": 91.88899999999558,
      "v": 33
    },
    {
      "midi": 70,
      "hit": false,
      "t": 239462.73399999627,
      "d": 91.88899999999558,
      "v": 37
    },
    {
      "midi": 72,
      "hit": false,
      "t": 239554.62299999627,
      "d": 91.88899999999558,
      "v": 33
    },
    {
      "midi": 60,
      "hit": false,
      "t": 239646.5119999957,
      "d": 183.77799999999115,
      "v": 36
    },
    {
      "midi": 70,
      "hit": false,
      "t": 239646.51199999626,
      "d": 91.88899999999558,
      "v": 37
    },
    {
      "midi": 72,
      "hit": false,
      "t": 239738.40099999626,
      "d": 91.88899999999558,
      "v": 34
    },
    {
      "midi": 58,
      "hit": false,
      "t": 239830.2899999957,
      "d": 367.5560000000114,
      "v": 45
    },
    {
      "midi": 70,
      "hit": false,
      "t": 239830.28999999625,
      "d": 91.88899999999558,
      "v": 38
    },
    {
      "midi": 80,
      "hit": false,
      "t": 239830.28999999625,
      "d": 551.3339999999735,
      "v": 59
    },
    {
      "midi": 72,
      "hit": false,
      "t": 239922.17899999625,
      "d": 91.88899999999558,
      "v": 34
    },
    {
      "midi": 70,
      "hit": false,
      "t": 240014.06799999624,
      "d": 91.88899999999558,
      "v": 39
    },
    {
      "midi": 72,
      "hit": false,
      "t": 240105.95699999624,
      "d": 91.88899999999558,
      "v": 33
    },
    {
      "midi": 53,
      "hit": false,
      "t": 240197.8459999957,
      "d": 183.77799999999115,
      "v": 41
    },
    {
      "midi": 70,
      "hit": false,
      "t": 240197.84599999624,
      "d": 91.88899999999558,
      "v": 39
    },
    {
      "midi": 72,
      "hit": false,
      "t": 240289.73499999623,
      "d": 91.88899999999558,
      "v": 34
    },
    {
      "midi": 55,
      "hit": false,
      "t": 240381.6239999957,
      "d": 367.5560000000114,
      "v": 46
    },
    {
      "midi": 51,
      "hit": false,
      "t": 240381.6239999957,
      "d": 1102.6680000000051,
      "v": 46
    },
    {
      "midi": 70,
      "hit": false,
      "t": 240381.62399999623,
      "d": 91.88899999999558,
      "v": 40
    },
    {
      "midi": 79,
      "hit": false,
      "t": 240381.62399999623,
      "d": 551.3339999999735,
      "v": 64
    },
    {
      "midi": 72,
      "hit": false,
      "t": 240473.51299999622,
      "d": 91.88899999999558,
      "v": 35
    },
    {
      "midi": 70,
      "hit": false,
      "t": 240565.40199999622,
      "d": 91.88899999999558,
      "v": 39
    },
    {
      "midi": 72,
      "hit": false,
      "t": 240657.2909999962,
      "d": 91.88899999999558,
      "v": 35
    },
    {
      "midi": 60,
      "hit": false,
      "t": 240749.17999999571,
      "d": 183.77799999999115,
      "v": 37
    },
    {
      "midi": 70,
      "hit": false,
      "t": 240749.1799999962,
      "d": 91.88899999999558,
      "v": 38
    },
    {
      "midi": 72,
      "hit": false,
      "t": 240841.0689999962,
      "d": 91.88899999999558,
      "v": 34
    },
    {
      "midi": 58,
      "hit": false,
      "t": 240932.9579999957,
      "d": 367.5560000000114,
      "v": 45
    },
    {
      "midi": 70,
      "hit": false,
      "t": 240932.9579999962,
      "d": 91.88899999999558,
      "v": 39
    },
    {
      "midi": 75,
      "hit": false,
      "t": 240932.9579999962,
      "d": 551.3339999999735,
      "v": 60
    },
    {
      "midi": 72,
      "hit": false,
      "t": 241024.8469999962,
      "d": 91.88899999999558,
      "v": 34
    },
    {
      "midi": 70,
      "hit": false,
      "t": 241116.7359999962,
      "d": 91.88899999999558,
      "v": 38
    },
    {
      "midi": 72,
      "hit": false,
      "t": 241208.6249999962,
      "d": 91.88899999999558,
      "v": 33
    },
    {
      "midi": 55,
      "hit": false,
      "t": 241300.51399999572,
      "d": 183.77799999999115,
      "v": 40
    },
    {
      "midi": 70,
      "hit": false,
      "t": 241300.51399999618,
      "d": 91.88899999999558,
      "v": 38
    },
    {
      "midi": 72,
      "hit": false,
      "t": 241392.40299999618,
      "d": 91.88899999999558,
      "v": 32
    },
    {
      "midi": 53,
      "hit": false,
      "t": 241484.2919999957,
      "d": 367.5560000000114,
      "v": 43
    },
    {
      "midi": 46,
      "hit": false,
      "t": 241484.2919999957,
      "d": 1102.6680000000051,
      "v": 43
    },
    {
      "midi": 70,
      "hit": false,
      "t": 241484.29199999617,
      "d": 91.88899999999558,
      "v": 37
    },
    {
      "midi": 74,
      "hit": false,
      "t": 241484.29199999617,
      "d": 551.3339999999735,
      "v": 60
    },
    {
      "midi": 72,
      "hit": false,
      "t": 241576.18099999617,
      "d": 91.88899999999558,
      "v": 33
    },
    {
      "midi": 70,
      "hit": false,
      "t": 241668.06999999617,
      "d": 91.88899999999558,
      "v": 37
    },
    {
      "midi": 72,
      "hit": false,
      "t": 241759.95899999616,
      "d": 91.88899999999558,
      "v": 32
    },
    {
      "midi": 60,
      "hit": false,
      "t": 241851.84799999572,
      "d": 183.77799999999115,
      "v": 34
    },
    {
      "midi": 70,
      "hit": false,
      "t": 241851.84799999616,
      "d": 91.88899999999558,
      "v": 35
    },
    {
      "midi": 72,
      "hit": false,
      "t": 241943.73699999615,
      "d": 91.88899999999558,
      "v": 32
    },
    {
      "midi": 58,
      "hit": false,
      "t": 242035.6259999957,
      "d": 367.5560000000114,
      "v": 42
    },
    {
      "midi": 70,
      "hit": false,
      "t": 242035.62599999615,
      "d": 91.88899999999558,
      "v": 36
    },
    {
      "midi": 80,
      "hit": false,
      "t": 242035.62599999615,
      "d": 551.3339999999735,
      "v": 56
    },
    {
      "midi": 72,
      "hit": false,
      "t": 242127.51499999614,
      "d": 91.88899999999558,
      "v": 32
    },
    {
      "midi": 70,
      "hit": false,
      "t": 242219.40399999614,
      "d": 91.88899999999558,
      "v": 36
    },
    {
      "midi": 72,
      "hit": false,
      "t": 242311.29299999613,
      "d": 91.88899999999558,
      "v": 30
    },
    {
      "midi": 53,
      "hit": false,
      "t": 242403.18199999572,
      "d": 183.77799999999115,
      "v": 37
    },
    {
      "midi": 70,
      "hit": false,
      "t": 242403.18199999613,
      "d": 91.88899999999558,
      "v": 35
    },
    {
      "midi": 72,
      "hit": false,
      "t": 242495.07099999613,
      "d": 91.88899999999558,
      "v": 30
    },
    {
      "midi": 51,
      "hit": false,
      "t": 242586.9599999957,
      "d": 91.88899999999558,
      "v": 34
    },
    {
      "midi": 58,
      "hit": false,
      "t": 242586.9599999957,
      "d": 91.88899999999558,
      "v": 40
    },
    {
      "midi": 70,
      "hit": false,
      "t": 242586.95999999612,
      "d": 91.88899999999558,
      "v": 48
    },
    {
      "midi": 79,
      "hit": false,
      "t": 242586.95999999612,
      "d": 91.88899999999558,
      "v": 51
    },
    {
      "midi": 72,
      "hit": false,
      "t": 242678.84899999612,
      "d": 91.88899999999558,
      "v": 45
    },
    {
      "midi": 55,
      "hit": false,
      "t": 242770.7379999957,
      "d": 91.88899999999558,
      "v": 29
    },
    {
      "midi": 58,
      "hit": false,
      "t": 242770.7379999957,
      "d": 91.88899999999558,
      "v": 29
    },
    {
      "midi": 63,
      "hit": false,
      "t": 242770.7379999957,
      "d": 91.88899999999558,
      "v": 35
    },
    {
      "midi": 74,
      "hit": false,
      "t": 242770.7379999961,
      "d": 91.88899999999558,
      "v": 50
    },
    {
      "midi": 75,
      "hit": false,
      "t": 242862.6269999961,
      "d": 91.88899999999558,
      "v": 52
    },
    {
      "midi": 55,
      "hit": false,
      "t": 242954.5159999957,
      "d": 91.88899999999558,
      "v": 29
    },
    {
      "midi": 58,
      "hit": false,
      "t": 242954.5159999957,
      "d": 91.88899999999558,
      "v": 29
    },
    {
      "midi": 63,
      "hit": false,
      "t": 242954.5159999957,
      "d": 91.88899999999558,
      "v": 35
    },
    {
      "midi": 77,
      "hit": false,
      "t": 242954.5159999961,
      "d": 61.25933333332068,
      "v": 54
    },
    {
      "midi": 79,
      "hit": false,
      "t": 243015.77533332942,
      "d": 61.25933333332068,
      "v": 56
    },
    {
      "midi": 80,
      "hit": false,
      "t": 243077.03466666274,
      "d": 61.25933333332068,
      "v": 59
    },
    {
      "midi": 55,
      "hit": false,
      "t": 243138.2939999957,
      "d": 91.88899999999558,
      "v": 29
    },
    {
      "midi": 58,
      "hit": false,
      "t": 243138.2939999957,
      "d": 91.88899999999558,
      "v": 29
    },
    {
      "midi": 63,
      "hit": false,
      "t": 243138.2939999957,
      "d": 91.88899999999558,
      "v": 35
    },
    {
      "midi": 82,
      "hit": false,
      "t": 243138.29399999607,
      "d": 91.88899999999558,
      "v": 61
    },
    {
      "midi": 80,
      "hit": false,
      "t": 243230.18299999606,
      "d": 91.88899999999558,
      "v": 60
    },
    {
      "midi": 55,
      "hit": false,
      "t": 243322.07199999568,
      "d": 91.88899999999558,
      "v": 29
    },
    {
      "midi": 58,
      "hit": false,
      "t": 243322.07199999568,
      "d": 91.88899999999558,
      "v": 29
    },
    {
      "midi": 63,
      "hit": false,
      "t": 243322.07199999568,
      "d": 91.88899999999558,
      "v": 35
    },
    {
      "midi": 79,
      "hit": false,
      "t": 243322.07199999606,
      "d": 61.25933333332068,
      "v": 58
    },
    {
      "midi": 77,
      "hit": false,
      "t": 243383.33133332938,
      "d": 61.25933333332068,
      "v": 56
    },
    {
      "midi": 75,
      "hit": false,
      "t": 243444.5906666627,
      "d": 61.25933333332068,
      "v": 54
    },
    {
      "midi": 55,
      "hit": false,
      "t": 243505.84999999567,
      "d": 91.88899999999558,
      "v": 29
    },
    {
      "midi": 59,
      "hit": false,
      "t": 243505.84999999567,
      "d": 91.88899999999558,
      "v": 29
    },
    {
      "midi": 63,
      "hit": false,
      "t": 243505.84999999567,
      "d": 91.88899999999558,
      "v": 35
    },
    {
      "midi": 74,
      "hit": false,
      "t": 243505.84999999602,
      "d": 61.25933333332068,
      "v": 53
    },
    {
      "midi": 72,
      "hit": false,
      "t": 243567.10933332934,
      "d": 61.25933333332068,
      "v": 51
    },
    {
      "midi": 71,
      "hit": false,
      "t": 243628.36866666266,
      "d": 61.25933333332068,
      "v": 49
    },
    {
      "midi": 72,
      "hit": false,
      "t": 243689.62799999598,
      "d": 91.88899999999558,
      "v": 54
    },
    {
      "midi": 75,
      "hit": false,
      "t": 243781.51699999598,
      "d": 91.88899999999558,
      "v": 45
    },
    {
      "midi": 56,
      "hit": false,
      "t": 243873.40599999565,
      "d": 91.88899999999558,
      "v": 29
    },
    {
      "midi": 60,
      "hit": false,
      "t": 243873.40599999565,
      "d": 91.88899999999558,
      "v": 29
    },
    {
      "midi": 63,
      "hit": false,
      "t": 243873.40599999565,
      "d": 91.88899999999558,
      "v": 35
    },
    {
      "midi": 77,
      "hit": false,
      "t": 243873.40599999597,
      "d": 91.88899999999558,
      "v": 48
    },
    {
      "midi": 79,
      "hit": false,
      "t": 243965.29499999597,
      "d": 91.88899999999558,
      "v": 50
    },
    {
      "midi": 56,
      "hit": false,
      "t": 244057.18399999564,
      "d": 91.88899999999558,
      "v": 29
    },
    {
      "midi": 60,
      "hit": false,
      "t": 244057.18399999564,
      "d": 91.88899999999558,
      "v": 29
    },
    {
      "midi": 63,
      "hit": false,
      "t": 244057.18399999564,
      "d": 91.88899999999558,
      "v": 35
    },
    {
      "midi": 80,
      "hit": false,
      "t": 244057.18399999596,
      "d": 91.88899999999558,
      "v": 56
    },
    {
      "midi": 82,
      "hit": false,
      "t": 244149.07299999596,
      "d": 91.88899999999558,
      "v": 59
    },
    {
      "midi": 56,
      "hit": false,
      "t": 244240.96199999563,
      "d": 91.88899999999558,
      "v": 29
    },
    {
      "midi": 60,
      "hit": false,
      "t": 244240.96199999563,
      "d": 91.88899999999558,
      "v": 29
    },
    {
      "midi": 63,
      "hit": false,
      "t": 244240.96199999563,
      "d": 91.88899999999558,
      "v": 35
    },
    {
      "midi": 84,
      "hit": false,
      "t": 244240.96199999595,
      "d": 91.88899999999558,
      "v": 61
    },
    {
      "midi": 82,
      "hit": false,
      "t": 244332.85099999595,
      "d": 91.88899999999558,
      "v": 60
    },
    {
      "midi": 56,
      "hit": false,
      "t": 244424.73999999563,
      "d": 91.88899999999558,
      "v": 29
    },
    {
      "midi": 60,
      "hit": false,
      "t": 244424.73999999563,
      "d": 91.88899999999558,
      "v": 29
    },
    {
      "midi": 63,
      "hit": false,
      "t": 244424.73999999563,
      "d": 91.88899999999558,
      "v": 35
    },
    {
      "midi": 80,
      "hit": false,
      "t": 244424.73999999595,
      "d": 61.25933333332068,
      "v": 58
    },
    {
      "midi": 79,
      "hit": false,
      "t": 244485.99933332927,
      "d": 61.25933333332068,
      "v": 57
    },
    {
      "midi": 77,
      "hit": false,
      "t": 244547.2586666626,
      "d": 61.25933333332068,
      "v": 56
    },
    {
      "midi": 57,
      "hit": false,
      "t": 244608.51799999562,
      "d": 91.88899999999558,
      "v": 29
    },
    {
      "midi": 63,
      "hit": false,
      "t": 244608.51799999562,
      "d": 91.88899999999558,
      "v": 29
    },
    {
      "midi": 65,
      "hit": false,
      "t": 244608.51799999562,
      "d": 91.88899999999558,
      "v": 35
    },
    {
      "midi": 75,
      "hit": false,
      "t": 244608.5179999959,
      "d": 61.25933333332068,
      "v": 55
    },
    {
      "midi": 74,
      "hit": false,
      "t": 244669.77733332923,
      "d": 61.25933333332068,
      "v": 54
    },
    {
      "midi": 72,
      "hit": false,
      "t": 244731.03666666255,
      "d": 61.25933333332068,
      "v": 53
    },
    {
      "midi": 70,
      "hit": false,
      "t": 244792.29599999587,
      "d": 91.88899999999558,
      "v": 57
    },
    {
      "midi": 79,
      "hit": false,
      "t": 244884.18499999586,
      "d": 91.88899999999558,
      "v": 49
    },
    {
      "midi": 58,
      "hit": false,
      "t": 244976.0739999956,
      "d": 91.88899999999558,
      "v": 29
    },
    {
      "midi": 63,
      "hit": false,
      "t": 244976.0739999956,
      "d": 91.88899999999558,
      "v": 29
    },
    {
      "midi": 67,
      "hit": false,
      "t": 244976.0739999956,
      "d": 91.88899999999558,
      "v": 35
    },
    {
      "midi": 75,
      "hit": false,
      "t": 244976.07399999586,
      "d": 91.88899999999558,
      "v": 59
    },
    {
      "midi": 82,
      "hit": false,
      "t": 245067.96299999586,
      "d": 91.88899999999558,
      "v": 55
    },
    {
      "midi": 58,
      "hit": false,
      "t": 245159.8519999956,
      "d": 91.88899999999558,
      "v": 29
    },
    {
      "midi": 63,
      "hit": false,
      "t": 245159.8519999956,
      "d": 91.88899999999558,
      "v": 29
    },
    {
      "midi": 67,
      "hit": false,
      "t": 245159.8519999956,
      "d": 91.88899999999558,
      "v": 35
    },
    {
      "midi": 79,
      "hit": false,
      "t": 245159.85199999585,
      "d": 91.88899999999558,
      "v": 62
    },
    {
      "midi": 87,
      "hit": false,
      "t": 245251.74099999585,
      "d": 91.88899999999558,
      "v": 57
    },
    {
      "midi": 58,
      "hit": false,
      "t": 245343.62999999558,
      "d": 91.88899999999558,
      "v": 29
    },
    {
      "midi": 63,
      "hit": false,
      "t": 245343.62999999558,
      "d": 91.88899999999558,
      "v": 29
    },
    {
      "midi": 67,
      "hit": false,
      "t": 245343.62999999558,
      "d": 91.88899999999558,
      "v": 35
    },
    {
      "midi": 82,
      "hit": false,
      "t": 245343.62999999584,
      "d": 91.88899999999558,
      "v": 62
    },
    {
      "midi": 91,
      "hit": false,
      "t": 245435.51899999584,
      "d": 91.88899999999558,
      "v": 57
    },
    {
      "midi": 58,
      "hit": false,
      "t": 245527.40799999557,
      "d": 91.88899999999558,
      "v": 29
    },
    {
      "midi": 63,
      "hit": false,
      "t": 245527.40799999557,
      "d": 91.88899999999558,
      "v": 29
    },
    {
      "midi": 67,
      "hit": false,
      "t": 245527.40799999557,
      "d": 91.88899999999558,
      "v": 35
    },
    {
      "midi": 87,
      "hit": false,
      "t": 245527.40799999583,
      "d": 91.88899999999558,
      "v": 55
    },
    {
      "midi": 94,
      "hit": false,
      "t": 245613.93680832916,
      "d": 91.88899999999558,
      "v": 61
    },
    {
      "midi": 58,
      "hit": false,
      "t": 245711.18599999556,
      "d": 91.88899999999558,
      "v": 29
    },
    {
      "midi": 63,
      "hit": false,
      "t": 245711.18599999556,
      "d": 91.88899999999558,
      "v": 29
    },
    {
      "midi": 67,
      "hit": false,
      "t": 245711.18599999556,
      "d": 91.88899999999558,
      "v": 35
    },
    {
      "midi": 91,
      "hit": false,
      "t": 245711.18599999583,
      "d": 91.88899999999558,
      "v": 53
    },
    {
      "midi": 87,
      "hit": false,
      "t": 245803.07499999582,
      "d": 91.88899999999558,
      "v": 54
    },
    {
      "midi": 58,
      "hit": false,
      "t": 245894.96399999555,
      "d": 91.88899999999558,
      "v": 29
    },
    {
      "midi": 63,
      "hit": false,
      "t": 245894.96399999555,
      "d": 91.88899999999558,
      "v": 29
    },
    {
      "midi": 67,
      "hit": false,
      "t": 245894.96399999555,
      "d": 91.88899999999558,
      "v": 35
    },
    {
      "midi": 82,
      "hit": false,
      "t": 245894.96399999582,
      "d": 367.5560000000114,
      "v": 59
    },
    {
      "midi": 58,
      "hit": false,
      "t": 246078.74199999555,
      "d": 91.88899999999558,
      "v": 29
    },
    {
      "midi": 63,
      "hit": false,
      "t": 246078.74199999555,
      "d": 91.88899999999558,
      "v": 29
    },
    {
      "midi": 67,
      "hit": false,
      "t": 246078.74199999555,
      "d": 91.88899999999558,
      "v": 35
    },
    {
      "midi": 58,
      "hit": false,
      "t": 246262.51999999554,
      "d": 91.88899999999558,
      "v": 29
    },
    {
      "midi": 63,
      "hit": false,
      "t": 246262.51999999554,
      "d": 91.88899999999558,
      "v": 29
    },
    {
      "midi": 67,
      "hit": false,
      "t": 246262.51999999554,
      "d": 91.88899999999558,
      "v": 35
    },
    {
      "midi": 58,
      "hit": false,
      "t": 246446.29799999553,
      "d": 91.88899999999558,
      "v": 29
    },
    {
      "midi": 62,
      "hit": false,
      "t": 246446.29799999553,
      "d": 91.88899999999558,
      "v": 29
    },
    {
      "midi": 68,
      "hit": false,
      "t": 246446.29799999553,
      "d": 91.88899999999558,
      "v": 35
    },
    {
      "midi": 89,
      "hit": false,
      "t": 246446.29799999582,
      "d": 61.25933333332068,
      "v": 59
    },
    {
      "midi": 91,
      "hit": false,
      "t": 246507.55733332914,
      "d": 61.25933333332068,
      "v": 52
    },
    {
      "midi": 89,
      "hit": false,
      "t": 246568.81666666246,
      "d": 61.25933333332068,
      "v": 59
    },
    {
      "midi": 58,
      "hit": false,
      "t": 246630.07599999552,
      "d": 91.88899999999558,
      "v": 29
    },
    {
      "midi": 62,
      "hit": false,
      "t": 246630.07599999552,
      "d": 91.88899999999558,
      "v": 29
    },
    {
      "midi": 68,
      "hit": false,
      "t": 246630.07599999552,
      "d": 91.88899999999558,
      "v": 35
    },
    {
      "midi": 91,
      "hit": false,
      "t": 246630.07599999578,
      "d": 61.25933333332068,
      "v": 54
    },
    {
      "midi": 89,
      "hit": false,
      "t": 246691.3353333291,
      "d": 61.25933333332068,
      "v": 59
    },
    {
      "midi": 91,
      "hit": false,
      "t": 246752.59466666242,
      "d": 61.25933333332068,
      "v": 53
    },
    {
      "midi": 58,
      "hit": false,
      "t": 246813.8539999955,
      "d": 91.88899999999558,
      "v": 29
    },
    {
      "midi": 62,
      "hit": false,
      "t": 246813.8539999955,
      "d": 91.88899999999558,
      "v": 29
    },
    {
      "midi": 68,
      "hit": false,
      "t": 246813.8539999955,
      "d": 91.88899999999558,
      "v": 35
    },
    {
      "midi": 89,
      "hit": false,
      "t": 246813.85399999574,
      "d": 61.25933333332068,
      "v": 59
    },
    {
      "midi": 91,
      "hit": false,
      "t": 246875.11333332906,
      "d": 61.25933333332068,
      "v": 53
    },
    {
      "midi": 89,
      "hit": false,
      "t": 246936.37266666238,
      "d": 61.25933333332068,
      "v": 56
    },
    {
      "midi": 67,
      "hit": false,
      "t": 246997.6319999955,
      "d": 367.5560000000114,
      "v": 40
    },
    {
      "midi": 63,
      "hit": false,
      "t": 246997.6319999955,
      "d": 1102.6680000000051,
      "v": 40
    },
    {
      "midi": 82,
      "hit": false,
      "t": 246997.6319999957,
      "d": 91.88899999999558,
      "v": 45
    },
    {
      "midi": 91,
      "hit": false,
      "t": 246997.6319999957,
      "d": 551.3339999999735,
      "v": 67
    },
    {
      "midi": 84,
      "hit": false,
      "t": 247089.5209999957,
      "d": 91.88899999999558,
      "v": 34
    },
    {
      "midi": 82,
      "hit": false,
      "t": 247181.4099999957,
      "d": 91.88899999999558,
      "v": 38
    },
    {
      "midi": 84,
      "hit": false,
      "t": 247273.2989999957,
      "d": 91.88899999999558,
      "v": 34
    },
    {
      "midi": 72,
      "hit": false,
      "t": 247365.1879999955,
      "d": 183.77799999999115,
      "v": 33
    },
    {
      "midi": 82,
      "hit": false,
      "t": 247365.1879999957,
      "d": 91.88899999999558,
      "v": 37
    },
    {
      "midi": 84,
      "hit": false,
      "t": 247457.07699999568,
      "d": 91.88899999999558,
      "v": 34
    },
    {
      "midi": 70,
      "hit": false,
      "t": 247548.9659999955,
      "d": 367.5560000000114,
      "v": 42
    },
    {
      "midi": 82,
      "hit": false,
      "t": 247548.96599999568,
      "d": 91.88899999999558,
      "v": 39
    },
    {
      "midi": 87,
      "hit": false,
      "t": 247548.96599999568,
      "d": 551.3339999999735,
      "v": 60
    },
    {
      "midi": 84,
      "hit": false,
      "t": 247640.85499999567,
      "d": 91.88899999999558,
      "v": 35
    },
    {
      "midi": 82,
      "hit": false,
      "t": 247732.74399999567,
      "d": 91.88899999999558,
      "v": 39
    },
    {
      "midi": 84,
      "hit": false,
      "t": 247824.63299999567,
      "d": 91.88899999999558,
      "v": 34
    },
    {
      "midi": 67,
      "hit": false,
      "t": 247916.52199999552,
      "d": 183.77799999999115,
      "v": 39
    },
    {
      "midi": 82,
      "hit": false,
      "t": 247916.52199999566,
      "d": 91.88899999999558,
      "v": 40
    },
    {
      "midi": 84,
      "hit": false,
      "t": 248008.41099999566,
      "d": 91.88899999999558,
      "v": 34
    },
    {
      "midi": 65,
      "hit": false,
      "t": 248100.2999999955,
      "d": 367.5560000000114,
      "v": 42
    },
    {
      "midi": 58,
      "hit": false,
      "t": 248100.2999999955,
      "d": 1102.6680000000051,
      "v": 42
    },
    {
      "midi": 82,
      "hit": false,
      "t": 248100.29999999565,
      "d": 91.88899999999558,
      "v": 40
    },
    {
      "midi": 86,
      "hit": false,
      "t": 248100.29999999565,
      "d": 551.3339999999735,
      "v": 64
    },
    {
      "midi": 84,
      "hit": false,
      "t": 248192.18899999565,
      "d": 91.88899999999558,
      "v": 36
    },
    {
      "midi": 82,
      "hit": false,
      "t": 248284.07799999564,
      "d": 91.88899999999558,
      "v": 40
    },
    {
      "midi": 84,
      "hit": false,
      "t": 248375.96699999564,
      "d": 91.88899999999558,
      "v": 36
    },
    {
      "midi": 72,
      "hit": false,
      "t": 248467.85599999552,
      "d": 183.77799999999115,
      "v": 36
    },
    {
      "midi": 82,
      "hit": false,
      "t": 248467.85599999563,
      "d": 91.88899999999558,
      "v": 40
    },
    {
      "midi": 84,
      "hit": false,
      "t": 248559.74499999563,
      "d": 91.88899999999558,
      "v": 37
    },
    {
      "midi": 70,
      "hit": false,
      "t": 248651.6339999955,
      "d": 367.5560000000114,
      "v": 45
    },
    {
      "midi": 82,
      "hit": false,
      "t": 248651.63399999563,
      "d": 91.88899999999558,
      "v": 41
    },
    {
      "midi": 92,
      "hit": false,
      "t": 248651.63399999563,
      "d": 551.3339999999735,
      "v": 64
    },
    {
      "midi": 84,
      "hit": false,
      "t": 248743.52299999562,
      "d": 91.88899999999558,
      "v": 37
    },
    {
      "midi": 82,
      "hit": false,
      "t": 248835.41199999562,
      "d": 91.88899999999558,
      "v": 42
    },
    {
      "midi": 84,
      "hit": false,
      "t": 248927.3009999956,
      "d": 91.88899999999558,
      "v": 36
    },
    {
      "midi": 65,
      "hit": false,
      "t": 249019.18999999552,
      "d": 183.77799999999115,
      "v": 41
    },
    {
      "midi": 82,
      "hit": false,
      "t": 249019.1899999956,
      "d": 91.88899999999558,
      "v": 42
    },
    {
      "midi": 84,
      "hit": false,
      "t": 249111.0789999956,
      "d": 91.88899999999558,
      "v": 37
    },
    {
      "midi": 67,
      "hit": false,
      "t": 249202.9679999955,
      "d": 367.5560000000114,
      "v": 46
    },
    {
      "midi": 63,
      "hit": false,
      "t": 249202.9679999955,
      "d": 1102.6680000000051,
      "v": 46
    },
    {
      "midi": 82,
      "hit": false,
      "t": 249202.9679999956,
      "d": 91.88899999999558,
      "v": 44
    },
    {
      "midi": 91,
      "hit": false,
      "t": 249202.9679999956,
      "d": 551.3339999999735,
      "v": 70
    },
    {
      "midi": 84,
      "hit": false,
      "t": 249294.8569999956,
      "d": 91.88899999999558,
      "v": 38
    },
    {
      "midi": 82,
      "hit": false,
      "t": 249386.7459999956,
      "d": 91.88899999999558,
      "v": 42
    },
    {
      "midi": 84,
      "hit": false,
      "t": 249478.6349999956,
      "d": 91.88899999999558,
      "v": 38
    },
    {
      "midi": 72,
      "hit": false,
      "t": 249570.52399999552,
      "d": 183.77799999999115,
      "v": 37
    },
    {
      "midi": 82,
      "hit": false,
      "t": 249570.52399999558,
      "d": 91.88899999999558,
      "v": 41
    },
    {
      "midi": 84,
      "hit": false,
      "t": 249662.41299999558,
      "d": 91.88899999999558,
      "v": 37
    },
    {
      "midi": 70,
      "hit": false,
      "t": 249754.3019999955,
      "d": 367.5560000000114,
      "v": 45
    },
    {
      "midi": 82,
      "hit": false,
      "t": 249754.30199999557,
      "d": 91.88899999999558,
      "v": 42
    },
    {
      "midi": 87,
      "hit": false,
      "t": 249754.30199999557,
      "d": 551.3339999999735,
      "v": 66
    },
    {
      "midi": 84,
      "hit": false,
      "t": 249846.19099999557,
      "d": 91.88899999999558,
      "v": 37
    },
    {
      "midi": 82,
      "hit": false,
      "t": 249938.07999999556,
      "d": 91.88899999999558,
      "v": 41
    },
    {
      "midi": 84,
      "hit": false,
      "t": 250029.96899999556,
      "d": 91.88899999999558,
      "v": 36
    },
    {
      "midi": 67,
      "hit": false,
      "t": 250121.85799999553,
      "d": 183.77799999999115,
      "v": 40
    },
    {
      "midi": 82,
      "hit": false,
      "t": 250121.85799999555,
      "d": 91.88899999999558,
      "v": 41
    },
    {
      "midi": 84,
      "hit": false,
      "t": 250213.74699999555,
      "d": 91.88899999999558,
      "v": 35
    },
    {
      "midi": 65,
      "hit": false,
      "t": 250305.63599999552,
      "d": 367.5560000000114,
      "v": 43
    },
    {
      "midi": 58,
      "hit": false,
      "t": 250305.63599999552,
      "d": 1102.6680000000051,
      "v": 43
    },
    {
      "midi": 82,
      "hit": false,
      "t": 250305.63599999555,
      "d": 91.88899999999558,
      "v": 40
    },
    {
      "midi": 86,
      "hit": false,
      "t": 250305.63599999555,
      "d": 551.3339999999735,
      "v": 66
    },
    {
      "midi": 84,
      "hit": false,
      "t": 250397.52499999554,
      "d": 91.88899999999558,
      "v": 36
    },
    {
      "midi": 82,
      "hit": false,
      "t": 250489.41399999554,
      "d": 91.88899999999558,
      "v": 40
    },
    {
      "midi": 84,
      "hit": false,
      "t": 250581.30299999553,
      "d": 91.88899999999558,
      "v": 35
    },
    {
      "midi": 82,
      "hit": false,
      "t": 250673.19199999553,
      "d": 91.88899999999558,
      "v": 38
    },
    {
      "midi": 72,
      "hit": false,
      "t": 250673.19199999553,
      "d": 183.77799999999115,
      "v": 34
    },
    {
      "midi": 84,
      "hit": false,
      "t": 250765.08099999552,
      "d": 91.88899999999558,
      "v": 35
    },
    {
      "midi": 82,
      "hit": false,
      "t": 250856.96999999552,
      "d": 91.88899999999558,
      "v": 39
    },
    {
      "midi": 92,
      "hit": false,
      "t": 250856.96999999552,
      "d": 551.3339999999735,
      "v": 61
    },
    {
      "midi": 70,
      "hit": false,
      "t": 250856.96999999552,
      "d": 367.5560000000114,
      "v": 42
    },
    {
      "midi": 84,
      "hit": false,
      "t": 250948.85899999551,
      "d": 91.88899999999558,
      "v": 35
    },
    {
      "midi": 82,
      "hit": false,
      "t": 251040.7479999955,
      "d": 91.88899999999558,
      "v": 39
    },
    {
      "midi": 84,
      "hit": false,
      "t": 251132.6369999955,
      "d": 91.88899999999558,
      "v": 33
    },
    {
      "midi": 82,
      "hit": false,
      "t": 251224.5259999955,
      "d": 91.88899999999558,
      "v": 38
    },
    {
      "midi": 65,
      "hit": false,
      "t": 251224.52599999553,
      "d": 183.77799999999115,
      "v": 37
    },
    {
      "midi": 84,
      "hit": false,
      "t": 251316.4149999955,
      "d": 91.88899999999558,
      "v": 33
    },
    {
      "midi": 63,
      "hit": false,
      "t": 251408.30399999552,
      "d": 91.88899999999558,
      "v": 51
    },
    {
      "midi": 67,
      "hit": false,
      "t": 251500.19299999552,
      "d": 91.88899999999558,
      "v": 45
    },
    {
      "midi": 87,
      "hit": false,
      "t": 251592.08199999548,
      "d": 91.88899999999558,
      "v": 49
    },
    {
      "midi": 91,
      "hit": false,
      "t": 251592.08199999548,
      "d": 91.88899999999558,
      "v": 49
    },
    {
      "midi": 68,
      "hit": false,
      "t": 251592.0819999955,
      "d": 91.88899999999558,
      "v": 50
    },
    {
      "midi": 70,
      "hit": false,
      "t": 251683.9709999955,
      "d": 91.88899999999558,
      "v": 52
    },
    {
      "midi": 87,
      "hit": false,
      "t": 251775.85999999547,
      "d": 91.88899999999558,
      "v": 49
    },
    {
      "midi": 91,
      "hit": false,
      "t": 251775.85999999547,
      "d": 91.88899999999558,
      "v": 49
    },
    {
      "midi": 72,
      "hit": false,
      "t": 251775.8599999955,
      "d": 91.88899999999558,
      "v": 54
    },
    {
      "midi": 74,
      "hit": false,
      "t": 251867.7489999955,
      "d": 91.88899999999558,
      "v": 56
    },
    {
      "midi": 87,
      "hit": false,
      "t": 251959.63799999547,
      "d": 91.88899999999558,
      "v": 52
    },
    {
      "midi": 91,
      "hit": false,
      "t": 251959.63799999547,
      "d": 91.88899999999558,
      "v": 52
    },
    {
      "midi": 75,
      "hit": false,
      "t": 251959.6379999955,
      "d": 91.88899999999558,
      "v": 61
    },
    {
      "midi": 74,
      "hit": false,
      "t": 252051.5269999955,
      "d": 91.88899999999558,
      "v": 60
    },
    {
      "midi": 87,
      "hit": false,
      "t": 252143.41599999546,
      "d": 91.88899999999558,
      "v": 46
    },
    {
      "midi": 91,
      "hit": false,
      "t": 252143.41599999546,
      "d": 91.88899999999558,
      "v": 46
    },
    {
      "midi": 72,
      "hit": false,
      "t": 252143.4159999955,
      "d": 91.88899999999558,
      "v": 58
    },
    {
      "midi": 70,
      "hit": false,
      "t": 252235.30499999548,
      "d": 91.88899999999558,
      "v": 57
    },
    {
      "midi": 87,
      "hit": false,
      "t": 252327.19399999545,
      "d": 91.88899999999558,
      "v": 46
    },
    {
      "midi": 91,
      "hit": false,
      "t": 252327.19399999545,
      "d": 91.88899999999558,
      "v": 46
    },
    {
      "midi": 68,
      "hit": false,
      "t": 252327.19399999548,
      "d": 91.88899999999558,
      "v": 55
    },
    {
      "midi": 67,
      "hit": false,
      "t": 252419.08299999547,
      "d": 91.88899999999558,
      "v": 54
    },
    {
      "midi": 68,
      "hit": false,
      "t": 252510.97199999547,
      "d": 91.88899999999558,
      "v": 51
    },
    {
      "midi": 72,
      "hit": false,
      "t": 252602.86099999546,
      "d": 91.88899999999558,
      "v": 45
    },
    {
      "midi": 87,
      "hit": false,
      "t": 252694.74999999543,
      "d": 91.88899999999558,
      "v": 49
    },
    {
      "midi": 89,
      "hit": false,
      "t": 252694.74999999543,
      "d": 91.88899999999558,
      "v": 49
    },
    {
      "midi": 74,
      "hit": false,
      "t": 252694.74999999546,
      "d": 91.88899999999558,
      "v": 48
    },
    {
      "midi": 75,
      "hit": false,
      "t": 252786.63899999546,
      "d": 91.88899999999558,
      "v": 50
    },
    {
      "midi": 87,
      "hit": false,
      "t": 252878.52799999542,
      "d": 91.88899999999558,
      "v": 49
    },
    {
      "midi": 89,
      "hit": false,
      "t": 252878.52799999542,
      "d": 91.88899999999558,
      "v": 49
    },
    {
      "midi": 77,
      "hit": false,
      "t": 252878.52799999545,
      "d": 91.88899999999558,
      "v": 55
    },
    {
      "midi": 79,
      "hit": false,
      "t": 252970.41699999545,
      "d": 91.88899999999558,
      "v": 57
    },
    {
      "midi": 87,
      "hit": false,
      "t": 253062.3059999954,
      "d": 91.88899999999558,
      "v": 53
    },
    {
      "midi": 89,
      "hit": false,
      "t": 253062.3059999954,
      "d": 91.88899999999558,
      "v": 53
    },
    {
      "midi": 80,
      "hit": false,
      "t": 253062.30599999544,
      "d": 91.88899999999558,
      "v": 62
    },
    {
      "midi": 79,
      "hit": false,
      "t": 253154.19499999544,
      "d": 91.88899999999558,
      "v": 60
    },
    {
      "midi": 87,
      "hit": false,
      "t": 253246.0839999954,
      "d": 91.88899999999558,
      "v": 48
    },
    {
      "midi": 89,
      "hit": false,
      "t": 253246.0839999954,
      "d": 91.88899999999558,
      "v": 48
    },
    {
      "midi": 77,
      "hit": false,
      "t": 253246.08399999543,
      "d": 91.88899999999558,
      "v": 59
    },
    {
      "midi": 75,
      "hit": false,
      "t": 253337.97299999543,
      "d": 91.88899999999558,
      "v": 58
    },
    {
      "midi": 87,
      "hit": false,
      "t": 253429.8619999954,
      "d": 91.88899999999558,
      "v": 50
    },
    {
      "midi": 89,
      "hit": false,
      "t": 253429.8619999954,
      "d": 91.88899999999558,
      "v": 50
    },
    {
      "midi": 74,
      "hit": false,
      "t": 253429.86199999542,
      "d": 91.88899999999558,
      "v": 57
    },
    {
      "midi": 72,
      "hit": false,
      "t": 253521.75099999542,
      "d": 91.88899999999558,
      "v": 55
    },
    {
      "midi": 70,
      "hit": false,
      "t": 253613.63999999542,
      "d": 91.88899999999558,
      "v": 60
    },
    {
      "midi": 58,
      "hit": false,
      "t": 253705.5289999954,
      "d": 91.88899999999558,
      "v": 52
    },
    {
      "midi": 87,
      "hit": false,
      "t": 253797.41799999538,
      "d": 91.88899999999558,
      "v": 52
    },
    {
      "midi": 91,
      "hit": false,
      "t": 253797.41799999538,
      "d": 91.88899999999558,
      "v": 52
    },
    {
      "midi": 63,
      "hit": false,
      "t": 253797.4179999954,
      "d": 91.88899999999558,
      "v": 63
    },
    {
      "midi": 67,
      "hit": false,
      "t": 253889.3069999954,
      "d": 91.88899999999558,
      "v": 59
    },
    {
      "midi": 87,
      "hit": false,
      "t": 253981.19599999537,
      "d": 91.88899999999558,
      "v": 53
    },
    {
      "midi": 91,
      "hit": false,
      "t": 253981.19599999537,
      "d": 91.88899999999558,
      "v": 53
    },
    {
      "midi": 70,
      "hit": false,
      "t": 253981.1959999954,
      "d": 91.88899999999558,
      "v": 68
    },
    {
      "midi": 75,
      "hit": false,
      "t": 254073.0849999954,
      "d": 91.88899999999558,
      "v": 62
    },
    {
      "midi": 87,
      "hit": false,
      "t": 254164.97399999536,
      "d": 91.88899999999558,
      "v": 57
    },
    {
      "midi": 91,
      "hit": false,
      "t": 254164.97399999536,
      "d": 91.88899999999558,
      "v": 57
    },
    {
      "midi": 79,
      "hit": false,
      "t": 254164.9739999954,
      "d": 91.88899999999558,
      "v": 63
    },
    {
      "midi": 75,
      "hit": false,
      "t": 254256.86299999538,
      "d": 91.88899999999558,
      "v": 54
    },
    {
      "midi": 87,
      "hit": false,
      "t": 254348.75199999535,
      "d": 91.88899999999558,
      "v": 51
    },
    {
      "midi": 91,
      "hit": false,
      "t": 254348.75199999535,
      "d": 91.88899999999558,
      "v": 51
    },
    {
      "midi": 82,
      "hit": false,
      "t": 254348.75199999538,
      "d": 91.88899999999558,
      "v": 66
    },
    {
      "midi": 79,
      "hit": false,
      "t": 254440.64099999538,
      "d": 91.88899999999558,
      "v": 62
    },
    {
      "midi": 87,
      "hit": false,
      "t": 254532.52999999534,
      "d": 91.88899999999558,
      "v": 52
    },
    {
      "midi": 91,
      "hit": false,
      "t": 254532.52999999534,
      "d": 91.88899999999558,
      "v": 52
    },
    {
      "midi": 75,
      "hit": false,
      "t": 254532.52999999537,
      "d": 91.88899999999558,
      "v": 70
    },
    {
      "midi": 70,
      "hit": false,
      "t": 254624.41899999537,
      "d": 91.88899999999558,
      "v": 64
    },
    {
      "midi": 86,
      "hit": false,
      "t": 254716.30799999533,
      "d": 91.88899999999558,
      "v": 64
    },
    {
      "midi": 89,
      "hit": false,
      "t": 254716.30799999533,
      "d": 91.88899999999558,
      "v": 64
    },
    {
      "midi": 77,
      "hit": false,
      "t": 254716.30799999536,
      "d": 61.25933333332068,
      "v": 67
    },
    {
      "midi": 70,
      "hit": false,
      "t": 254716.30799999536,
      "d": 183.77799999996205,
      "v": 60
    },
    {
      "midi": 79,
      "hit": false,
      "t": 254777.56733332868,
      "d": 61.25933333332068,
      "v": 59
    },
    {
      "midi": 77,
      "hit": false,
      "t": 254838.826666662,
      "d": 61.25933333332068,
      "v": 67
    },
    {
      "midi": 86,
      "hit": false,
      "t": 254900.08599999532,
      "d": 91.88899999999558,
      "v": 50
    },
    {
      "midi": 89,
      "hit": false,
      "t": 254900.08599999532,
      "d": 91.88899999999558,
      "v": 50
    },
    {
      "midi": 79,
      "hit": false,
      "t": 254900.08599999532,
      "d": 61.25933333332068,
      "v": 61
    },
    {
      "midi": 77,
      "hit": false,
      "t": 254961.34533332865,
      "d": 61.25933333332068,
      "v": 66
    },
    {
      "midi": 79,
      "hit": false,
      "t": 255022.60466666197,
      "d": 61.25933333332068,
      "v": 59
    },
    {
      "midi": 77,
      "hit": false,
      "t": 255083.8639999953,
      "d": 61.25933333332068,
      "v": 66
    },
    {
      "midi": 86,
      "hit": false,
      "t": 255083.86399999532,
      "d": 91.88899999999558,
      "v": 49
    },
    {
      "midi": 89,
      "hit": false,
      "t": 255083.86399999532,
      "d": 91.88899999999558,
      "v": 49
    },
    {
      "midi": 79,
      "hit": false,
      "t": 255145.1233333286,
      "d": 61.25933333332068,
      "v": 59
    },
    {
      "midi": 77,
      "hit": false,
      "t": 255206.38266666193,
      "d": 61.25933333332068,
      "v": 62
    },
    {
      "midi": 79,
      "hit": false,
      "t": 255267.64199999525,
      "d": 61.25933333332068,
      "v": 56
    },
    {
      "midi": 86,
      "hit": false,
      "t": 255267.6419999953,
      "d": 91.88899999999558,
      "v": 58
    },
    {
      "midi": 89,
      "hit": false,
      "t": 255267.6419999953,
      "d": 91.88899999999558,
      "v": 58
    },
    {
      "midi": 77,
      "hit": false,
      "t": 255328.90133332857,
      "d": 61.25933333332068,
      "v": 63
    },
    {
      "midi": 79,
      "hit": false,
      "t": 255390.1606666619,
      "d": 61.25933333332068,
      "v": 55
    },
    {
      "midi": 77,
      "hit": false,
      "t": 255451.4199999952,
      "d": 61.25933333332068,
      "v": 63
    },
    {
      "midi": 86,
      "hit": false,
      "t": 255451.4199999953,
      "d": 91.88899999999558,
      "v": 49
    },
    {
      "midi": 89,
      "hit": false,
      "t": 255451.4199999953,
      "d": 91.88899999999558,
      "v": 49
    },
    {
      "midi": 79,
      "hit": false,
      "t": 255512.67933332853,
      "d": 61.25933333332068,
      "v": 55
    },
    {
      "midi": 77,
      "hit": false,
      "t": 255573.93866666185,
      "d": 61.25933333332068,
      "v": 63
    },
    {
      "midi": 79,
      "hit": false,
      "t": 255635.19799999517,
      "d": 61.25933333332068,
      "v": 55
    },
    {
      "midi": 86,
      "hit": false,
      "t": 255635.1979999953,
      "d": 91.88899999999558,
      "v": 48
    },
    {
      "midi": 89,
      "hit": false,
      "t": 255635.1979999953,
      "d": 91.88899999999558,
      "v": 48
    },
    {
      "midi": 77,
      "hit": false,
      "t": 255696.4573333285,
      "d": 61.25933333332068,
      "v": 63
    },
    {
      "midi": 79,
      "hit": false,
      "t": 255757.7166666618,
      "d": 61.25933333332068,
      "v": 59
    },
    {
      "midi": 70,
      "hit": false,
      "t": 255818.97599999513,
      "d": 91.88899999999558,
      "v": 62
    },
    {
      "midi": 76,
      "hit": false,
      "t": 255910.86499999513,
      "d": 91.88899999999558,
      "v": 55
    },
    {
      "midi": 77,
      "hit": false,
      "t": 256002.75399999513,
      "d": 91.88899999999558,
      "v": 58
    },
    {
      "midi": 79,
      "hit": false,
      "t": 256094.64299999512,
      "d": 91.88899999999558,
      "v": 60
    },
    {
      "midi": 77,
      "hit": false,
      "t": 256186.53199999512,
      "d": 91.88899999999558,
      "v": 58
    },
    {
      "midi": 85,
      "hit": false,
      "t": 256186.5319999953,
      "d": 551.3340000000026,
      "v": 68
    },
    {
      "midi": 97,
      "hit": false,
      "t": 256186.5319999953,
      "d": 551.3340000000026,
      "v": 80
    },
    {
      "midi": 76,
      "hit": false,
      "t": 256278.4209999951,
      "d": 91.88899999999558,
      "v": 58
    },
    {
      "midi": 68,
      "hit": false,
      "t": 256370.3099999951,
      "d": 91.88899999999558,
      "v": 61
    },
    {
      "midi": 77,
      "hit": false,
      "t": 256462.1989999951,
      "d": 91.88899999999558,
      "v": 56
    },
    {
      "midi": 79,
      "hit": false,
      "t": 256554.0879999951,
      "d": 91.88899999999558,
      "v": 59
    },
    {
      "midi": 80,
      "hit": false,
      "t": 256645.9769999951,
      "d": 91.88899999999558,
      "v": 61
    },
    {
      "midi": 79,
      "hit": false,
      "t": 256737.8659999951,
      "d": 91.88899999999558,
      "v": 57
    },
    {
      "midi": 84,
      "hit": false,
      "t": 256737.8659999953,
      "d": 183.77799999999115,
      "v": 64
    },
    {
      "midi": 96,
      "hit": false,
      "t": 256737.8659999953,
      "d": 183.77799999999115,
      "v": 77
    },
    {
      "midi": 77,
      "hit": false,
      "t": 256829.7549999951,
      "d": 91.88899999999558,
      "v": 57
    },
    {
      "midi": 56,
      "hit": false,
      "t": 256926.2384499951,
      "d": 91.88899999999558,
      "v": 62
    },
    {
      "midi": 62,
      "hit": false,
      "t": 257013.53299999508,
      "d": 91.88899999999558,
      "v": 55
    },
    {
      "midi": 63,
      "hit": false,
      "t": 257105.42199999507,
      "d": 91.88899999999558,
      "v": 58
    },
    {
      "midi": 65,
      "hit": false,
      "t": 257193.48229166173,
      "d": 91.88899999999558,
      "v": 60
    },
    {
      "midi": 63,
      "hit": false,
      "t": 257289.19999999506,
      "d": 91.88899999999558,
      "v": 59
    },
    {
      "midi": 71,
      "hit": false,
      "t": 257289.1999999953,
      "d": 551.3340000000026,
      "v": 69
    },
    {
      "midi": 83,
      "hit": false,
      "t": 257289.1999999953,
      "d": 551.3340000000026,
      "v": 81
    },
    {
      "midi": 62,
      "hit": false,
      "t": 257381.08899999506,
      "d": 91.88899999999558,
      "v": 59
    },
    {
      "midi": 55,
      "hit": false,
      "t": 257472.97799999506,
      "d": 91.88899999999558,
      "v": 62
    },
    {
      "midi": 63,
      "hit": false,
      "t": 257564.86699999505,
      "d": 91.88899999999558,
      "v": 57
    },
    {
      "midi": 65,
      "hit": false,
      "t": 257656.75599999505,
      "d": 91.88899999999558,
      "v": 61
    },
    {
      "midi": 67,
      "hit": false,
      "t": 257748.64499999504,
      "d": 91.88899999999558,
      "v": 64
    },
    {
      "midi": 65,
      "hit": false,
      "t": 257840.53399999504,
      "d": 91.88899999999558,
      "v": 59
    },
    {
      "midi": 70,
      "hit": false,
      "t": 257840.5339999953,
      "d": 183.77799999999115,
      "v": 67
    },
    {
      "midi": 82,
      "hit": false,
      "t": 257840.5339999953,
      "d": 183.77799999999115,
      "v": 80
    },
    {
      "midi": 63,
      "hit": false,
      "t": 257932.42299999503,
      "d": 91.88899999999558,
      "v": 60
    },
    {
      "midi": 46,
      "hit": false,
      "t": 258028.90644999503,
      "d": 91.88899999999558,
      "v": 65
    },
    {
      "midi": 52,
      "hit": false,
      "t": 258116.20099999502,
      "d": 91.88899999999558,
      "v": 58
    },
    {
      "midi": 53,
      "hit": false,
      "t": 258208.08999999502,
      "d": 91.88899999999558,
      "v": 62
    },
    {
      "midi": 55,
      "hit": false,
      "t": 258296.15029166167,
      "d": 91.88899999999558,
      "v": 64
    },
    {
      "midi": 53,
      "hit": false,
      "t": 258391.867999995,
      "d": 91.88899999999558,
      "v": 62
    },
    {
      "midi": 61,
      "hit": false,
      "t": 258391.8679999953,
      "d": 551.3340000000026,
      "v": 73
    },
    {
      "midi": 73,
      "hit": false,
      "t": 258391.8679999953,
      "d": 551.3340000000026,
      "v": 86
    },
    {
      "midi": 52,
      "hit": false,
      "t": 258483.756999995,
      "d": 91.88899999999558,
      "v": 63
    },
    {
      "midi": 44,
      "hit": false,
      "t": 258575.645999995,
      "d": 91.88899999999558,
      "v": 67
    },
    {
      "midi": 53,
      "hit": false,
      "t": 258667.534999995,
      "d": 91.88899999999558,
      "v": 61
    },
    {
      "midi": 55,
      "hit": false,
      "t": 258759.423999995,
      "d": 91.88899999999558,
      "v": 65
    },
    {
      "midi": 56,
      "hit": false,
      "t": 258851.312999995,
      "d": 91.88899999999558,
      "v": 67
    },
    {
      "midi": 55,
      "hit": false,
      "t": 258943.20199999498,
      "d": 91.88899999999558,
      "v": 63
    },
    {
      "midi": 60,
      "hit": false,
      "t": 258943.2019999953,
      "d": 183.77799999999115,
      "v": 63
    },
    {
      "midi": 72,
      "hit": false,
      "t": 258943.2019999953,
      "d": 183.77799999999115,
      "v": 77
    },
    {
      "midi": 53,
      "hit": false,
      "t": 259035.09099999498,
      "d": 91.88899999999558,
      "v": 63
    },
    {
      "midi": 32,
      "hit": false,
      "t": 259131.57444999498,
      "d": 91.88899999999558,
      "v": 70
    },
    {
      "midi": 38,
      "hit": false,
      "t": 259218.86899999497,
      "d": 91.88899999999558,
      "v": 62
    },
    {
      "midi": 39,
      "hit": false,
      "t": 259310.75799999497,
      "d": 91.88899999999558,
      "v": 66
    },
    {
      "midi": 41,
      "hit": false,
      "t": 259398.81829166162,
      "d": 91.88899999999558,
      "v": 68
    },
    {
      "midi": 39,
      "hit": false,
      "t": 259494.53599999496,
      "d": 91.88899999999558,
      "v": 66
    },
    {
      "midi": 47,
      "hit": false,
      "t": 259494.5359999953,
      "d": 551.3340000000026,
      "v": 78
    },
    {
      "midi": 59,
      "hit": false,
      "t": 259494.5359999953,
      "d": 551.3340000000026,
      "v": 92
    },
    {
      "midi": 38,
      "hit": false,
      "t": 259586.42499999495,
      "d": 91.88899999999558,
      "v": 67
    },
    {
      "midi": 31,
      "hit": false,
      "t": 259678.31399999495,
      "d": 91.88899999999558,
      "v": 70
    },
    {
      "midi": 39,
      "hit": false,
      "t": 259770.20299999494,
      "d": 91.88899999999558,
      "v": 65
    },
    {
      "midi": 41,
      "hit": false,
      "t": 259862.09199999494,
      "d": 91.88899999999558,
      "v": 69
    },
    {
      "midi": 43,
      "hit": false,
      "t": 259953.98099999494,
      "d": 91.88899999999558,
      "v": 71
    },
    {
      "midi": 41,
      "hit": false,
      "t": 260045.86999999493,
      "d": 91.88899999999558,
      "v": 67
    },
    {
      "midi": 46,
      "hit": false,
      "t": 260045.8699999953,
      "d": 183.77799999999115,
      "v": 75
    },
    {
      "midi": 58,
      "hit": false,
      "t": 260045.8699999953,
      "d": 183.77799999999115,
      "v": 90
    },
    {
      "midi": 39,
      "hit": false,
      "t": 260137.75899999493,
      "d": 91.88899999999558,
      "v": 67
    },
    {
      "midi": 31,
      "hit": false,
      "t": 260229.64799999492,
      "d": 91.88899999999558,
      "v": 70
    },
    {
      "midi": 34,
      "hit": false,
      "t": 260321.53699999492,
      "d": 91.88899999999558,
      "v": 62
    },
    {
      "midi": 39,
      "hit": false,
      "t": 260413.4259999949,
      "d": 91.88899999999558,
      "v": 66
    },
    {
      "midi": 58,
      "hit": false,
      "t": 260413.4259999953,
      "d": 91.88899999999558,
      "v": 60
    },
    {
      "midi": 70,
      "hit": false,
      "t": 260413.4259999953,
      "d": 91.88899999999558,
      "v": 71
    },
    {
      "midi": 43,
      "hit": false,
      "t": 260505.3149999949,
      "d": 91.88899999999558,
      "v": 68
    },
    {
      "midi": 39,
      "hit": false,
      "t": 260597.2039999949,
      "d": 91.88899999999558,
      "v": 66
    },
    {
      "midi": 58,
      "hit": false,
      "t": 260597.20399999528,
      "d": 91.88899999999558,
      "v": 57
    },
    {
      "midi": 70,
      "hit": false,
      "t": 260597.20399999528,
      "d": 91.88899999999558,
      "v": 68
    },
    {
      "midi": 34,
      "hit": false,
      "t": 260689.0929999949,
      "d": 91.88899999999558,
      "v": 63
    },
    {
      "midi": 36,
      "hit": false,
      "t": 260780.9819999949,
      "d": 91.88899999999558,
      "v": 70
    },
    {
      "midi": 39,
      "hit": false,
      "t": 260872.8709999949,
      "d": 91.88899999999558,
      "v": 65
    },
    {
      "midi": 43,
      "hit": false,
      "t": 260964.7599999949,
      "d": 91.88899999999558,
      "v": 69
    },
    {
      "midi": 56,
      "hit": false,
      "t": 260964.75999999527,
      "d": 91.88899999999558,
      "v": 58
    },
    {
      "midi": 68,
      "hit": false,
      "t": 260964.75999999527,
      "d": 91.88899999999558,
      "v": 69
    },
    {
      "midi": 48,
      "hit": false,
      "t": 261056.64899999488,
      "d": 91.88899999999558,
      "v": 71
    },
    {
      "midi": 43,
      "hit": false,
      "t": 261148.53799999488,
      "d": 91.88899999999558,
      "v": 67
    },
    {
      "midi": 55,
      "hit": false,
      "t": 261148.53799999526,
      "d": 91.88899999999558,
      "v": 55
    },
    {
      "midi": 67,
      "hit": false,
      "t": 261148.53799999526,
      "d": 91.88899999999558,
      "v": 65
    },
    {
      "midi": 39,
      "hit": false,
      "t": 261240.42699999487,
      "d": 91.88899999999558,
      "v": 64
    },
    {
      "midi": 32,
      "hit": false,
      "t": 261332.31599999487,
      "d": 91.88899999999558,
      "v": 70
    },
    {
      "midi": 36,
      "hit": false,
      "t": 261424.20499999486,
      "d": 91.88899999999558,
      "v": 62
    },
    {
      "midi": 41,
      "hit": false,
      "t": 261516.09399999486,
      "d": 91.88899999999558,
      "v": 66
    },
    {
      "midi": 55,
      "hit": false,
      "t": 261516.09399999524,
      "d": 91.88899999999558,
      "v": 60
    },
    {
      "midi": 67,
      "hit": false,
      "t": 261516.09399999524,
      "d": 91.88899999999558,
      "v": 71
    },
    {
      "midi": 44,
      "hit": false,
      "t": 261607.98299999486,
      "d": 91.88899999999558,
      "v": 68
    },
    {
      "midi": 41,
      "hit": false,
      "t": 261699.87199999485,
      "d": 91.88899999999558,
      "v": 66
    },
    {
      "midi": 53,
      "hit": false,
      "t": 261699.87199999523,
      "d": 91.88899999999558,
      "v": 57
    },
    {
      "midi": 65,
      "hit": false,
      "t": 261699.87199999523,
      "d": 91.88899999999558,
      "v": 68
    },
    {
      "midi": 36,
      "hit": false,
      "t": 261791.76099999485,
      "d": 91.88899999999558,
      "v": 63
    },
    {
      "midi": 34,
      "hit": false,
      "t": 261883.64999999484,
      "d": 91.88899999999558,
      "v": 70
    },
    {
      "midi": 41,
      "hit": false,
      "t": 261975.53899999484,
      "d": 91.88899999999558,
      "v": 65
    },
    {
      "midi": 44,
      "hit": false,
      "t": 262067.42799999483,
      "d": 91.88900000002468,
      "v": 69
    },
    {
      "midi": 51,
      "hit": false,
      "t": 262067.4279999952,
      "d": 91.88899999999558,
      "v": 58
    },
    {
      "midi": 63,
      "hit": false,
      "t": 262067.4279999952,
      "d": 91.88899999999558,
      "v": 69
    },
    {
      "midi": 46,
      "hit": false,
      "t": 262159.31699999486,
      "d": 91.88900000002468,
      "v": 71
    },
    {
      "midi": 44,
      "hit": false,
      "t": 262251.2059999949,
      "d": 91.88900000002468,
      "v": 67
    },
    {
      "midi": 50,
      "hit": false,
      "t": 262251.20599999523,
      "d": 91.88900000002468,
      "v": 55
    },
    {
      "midi": 62,
      "hit": false,
      "t": 262251.20599999523,
      "d": 91.88900000002468,
      "v": 65
    },
    {
      "midi": 41,
      "hit": false,
      "t": 262343.0949999949,
      "d": 91.88900000002468,
      "v": 64
    },
    {
      "midi": 43,
      "hit": false,
      "t": 262434.98399999493,
      "d": 91.88900000002468,
      "v": 70
    },
    {
      "midi": 46,
      "hit": false,
      "t": 262526.87299999496,
      "d": 91.88900000002468,
      "v": 62
    },
    {
      "midi": 51,
      "hit": false,
      "t": 262618.761999995,
      "d": 91.88900000002468,
      "v": 66
    },
    {
      "midi": 70,
      "hit": false,
      "t": 262618.7619999953,
      "d": 91.88900000002468,
      "v": 60
    },
    {
      "midi": 82,
      "hit": false,
      "t": 262618.7619999953,
      "d": 91.88900000002468,
      "v": 71
    },
    {
      "midi": 55,
      "hit": false,
      "t": 262710.650999995,
      "d": 91.88900000002468,
      "v": 68
    },
    {
      "midi": 51,
      "hit": false,
      "t": 262802.53999999503,
      "d": 91.88900000002468,
      "v": 66
    },
    {
      "midi": 70,
      "hit": false,
      "t": 262802.5399999953,
      "d": 91.88900000002468,
      "v": 57
    },
    {
      "midi": 82,
      "hit": false,
      "t": 262802.5399999953,
      "d": 91.88900000002468,
      "v": 68
    },
    {
      "midi": 46,
      "hit": false,
      "t": 262894.42899999506,
      "d": 91.88900000002468,
      "v": 63
    },
    {
      "midi": 48,
      "hit": false,
      "t": 262986.3179999951,
      "d": 91.88900000002468,
      "v": 70
    },
    {
      "midi": 51,
      "hit": false,
      "t": 263078.2069999951,
      "d": 91.88900000002468,
      "v": 65
    },
    {
      "midi": 55,
      "hit": false,
      "t": 263170.09599999513,
      "d": 91.88900000002468,
      "v": 69
    },
    {
      "midi": 68,
      "hit": false,
      "t": 263170.09599999536,
      "d": 91.88900000002468,
      "v": 58
    },
    {
      "midi": 80,
      "hit": false,
      "t": 263170.09599999536,
      "d": 91.88900000002468,
      "v": 69
    },
    {
      "midi": 60,
      "hit": false,
      "t": 263261.98499999515,
      "d": 91.88900000002468,
      "v": 71
    },
    {
      "midi": 55,
      "hit": false,
      "t": 263353.8739999952,
      "d": 91.88900000002468,
      "v": 67
    },
    {
      "midi": 67,
      "hit": false,
      "t": 263353.8739999954,
      "d": 91.88900000002468,
      "v": 55
    },
    {
      "midi": 79,
      "hit": false,
      "t": 263353.8739999954,
      "d": 91.88900000002468,
      "v": 65
    },
    {
      "midi": 51,
      "hit": false,
      "t": 263445.7629999952,
      "d": 91.88900000002468,
      "v": 64
    },
    {
      "midi": 44,
      "hit": false,
      "t": 263537.6519999952,
      "d": 91.88900000002468,
      "v": 70
    },
    {
      "midi": 48,
      "hit": false,
      "t": 263629.54099999525,
      "d": 91.88900000002468,
      "v": 62
    },
    {
      "midi": 53,
      "hit": false,
      "t": 263721.4299999953,
      "d": 91.88900000002468,
      "v": 66
    },
    {
      "midi": 67,
      "hit": false,
      "t": 263721.42999999545,
      "d": 91.88900000002468,
      "v": 60
    },
    {
      "midi": 79,
      "hit": false,
      "t": 263721.42999999545,
      "d": 91.88900000002468,
      "v": 71
    },
    {
      "midi": 56,
      "hit": false,
      "t": 263813.3189999953,
      "d": 91.88900000002468,
      "v": 68
    },
    {
      "midi": 53,
      "hit": false,
      "t": 263905.2079999953,
      "d": 91.88900000002468,
      "v": 66
    },
    {
      "midi": 65,
      "hit": false,
      "t": 263905.2079999955,
      "d": 91.88900000002468,
      "v": 57
    },
    {
      "midi": 77,
      "hit": false,
      "t": 263905.2079999955,
      "d": 91.88900000002468,
      "v": 68
    },
    {
      "midi": 48,
      "hit": false,
      "t": 263997.09699999535,
      "d": 91.88900000002468,
      "v": 63
    },
    {
      "midi": 34,
      "hit": false,
      "t": 264088.9859999954,
      "d": 91.88900000002468,
      "v": 70
    },
    {
      "midi": 41,
      "hit": false,
      "t": 264180.8749999954,
      "d": 91.88900000002468,
      "v": 65
    },
    {
      "midi": 44,
      "hit": false,
      "t": 264272.7639999954,
      "d": 91.88900000002468,
      "v": 69
    },
    {
      "midi": 63,
      "hit": false,
      "t": 264272.76399999554,
      "d": 91.88900000002468,
      "v": 58
    },
    {
      "midi": 75,
      "hit": false,
      "t": 264272.76399999554,
      "d": 91.88900000002468,
      "v": 69
    },
    {
      "midi": 46,
      "hit": false,
      "t": 264364.65299999545,
      "d": 91.88900000002468,
      "v": 71
    },
    {
      "midi": 44,
      "hit": false,
      "t": 264456.5419999955,
      "d": 91.88900000002468,
      "v": 67
    },
    {
      "midi": 62,
      "hit": false,
      "t": 264456.5419999956,
      "d": 91.88900000002468,
      "v": 55
    },
    {
      "midi": 74,
      "hit": false,
      "t": 264456.5419999956,
      "d": 91.88900000002468,
      "v": 65
    },
    {
      "midi": 41,
      "hit": false,
      "t": 264548.4309999955,
      "d": 91.88900000002468,
      "v": 64
    },
    {
      "midi": 31,
      "hit": false,
      "t": 264640.3199999955,
      "d": 91.88900000002468,
      "v": 70
    },
    {
      "midi": 34,
      "hit": false,
      "t": 264732.20899999555,
      "d": 91.88900000002468,
      "v": 62
    },
    {
      "midi": 39,
      "hit": false,
      "t": 264824.0979999956,
      "d": 91.88900000002468,
      "v": 66
    },
    {
      "midi": 63,
      "hit": false,
      "t": 264824.09799999563,
      "d": 91.88900000002468,
      "v": 60
    },
    {
      "midi": 67,
      "hit": false,
      "t": 264824.09799999563,
      "d": 91.88900000002468,
      "v": 60
    },
    {
      "midi": 75,
      "hit": false,
      "t": 264824.09799999563,
      "d": 91.88900000002468,
      "v": 71
    },
    {
      "midi": 43,
      "hit": false,
      "t": 264915.9869999956,
      "d": 91.88900000002468,
      "v": 68
    },
    {
      "midi": 39,
      "hit": false,
      "t": 265007.8759999956,
      "d": 91.88900000002468,
      "v": 67
    },
    {
      "midi": 63,
      "hit": false,
      "t": 265007.8759999957,
      "d": 91.88900000002468,
      "v": 58
    },
    {
      "midi": 67,
      "hit": false,
      "t": 265007.8759999957,
      "d": 91.88900000002468,
      "v": 58
    },
    {
      "midi": 70,
      "hit": false,
      "t": 265007.8759999957,
      "d": 91.88900000002468,
      "v": 69
    },
    {
      "midi": 34,
      "hit": false,
      "t": 265099.76499999565,
      "d": 91.88900000002468,
      "v": 64
    },
    {
      "midi": 36,
      "hit": false,
      "t": 265191.6539999957,
      "d": 91.88900000002468,
      "v": 72
    },
    {
      "midi": 39,
      "hit": false,
      "t": 265283.5429999957,
      "d": 91.88900000002468,
      "v": 67
    },
    {
      "midi": 60,
      "hit": false,
      "t": 265375.4319999957,
      "d": 91.88900000002468,
      "v": 74
    },
    {
      "midi": 63,
      "hit": false,
      "t": 265375.4319999957,
      "d": 91.88900000002468,
      "v": 60
    },
    {
      "midi": 68,
      "hit": false,
      "t": 265375.4319999957,
      "d": 91.88900000002468,
      "v": 72
    },
    {
      "midi": 43,
      "hit": false,
      "t": 265375.4319999957,
      "d": 91.88900000002468,
      "v": 72
    },
    {
      "midi": 48,
      "hit": false,
      "t": 265467.32099999575,
      "d": 91.88900000002468,
      "v": 74
    },
    {
      "midi": 60,
      "hit": false,
      "t": 265559.2099999958,
      "d": 91.88900000002468,
      "v": 58
    },
    {
      "midi": 63,
      "hit": false,
      "t": 265559.2099999958,
      "d": 91.88900000002468,
      "v": 58
    },
    {
      "midi": 67,
      "hit": false,
      "t": 265559.2099999958,
      "d": 91.88900000002468,
      "v": 68
    },
    {
      "midi": 43,
      "hit": false,
      "t": 265559.2099999958,
      "d": 91.88900000002468,
      "v": 71
    },
    {
      "midi": 39,
      "hit": false,
      "t": 265651.0989999958,
      "d": 91.88900000002468,
      "v": 67
    },
    {
      "midi": 32,
      "hit": false,
      "t": 265742.9879999958,
      "d": 91.88900000002468,
      "v": 74
    },
    {
      "midi": 36,
      "hit": false,
      "t": 265834.87699999585,
      "d": 91.88900000002468,
      "v": 66
    },
    {
      "midi": 56,
      "hit": false,
      "t": 265926.7659999958,
      "d": 91.88900000002468,
      "v": 64
    },
    {
      "midi": 60,
      "hit": false,
      "t": 265926.7659999958,
      "d": 91.88900000002468,
      "v": 64
    },
    {
      "midi": 67,
      "hit": false,
      "t": 265926.7659999958,
      "d": 91.88900000002468,
      "v": 76
    },
    {
      "midi": 41,
      "hit": false,
      "t": 265926.76599999587,
      "d": 91.88900000002468,
      "v": 71
    },
    {
      "midi": 44,
      "hit": false,
      "t": 266018.6549999959,
      "d": 91.88900000002468,
      "v": 74
    },
    {
      "midi": 56,
      "hit": false,
      "t": 266110.54399999586,
      "d": 91.88900000002468,
      "v": 62
    },
    {
      "midi": 60,
      "hit": false,
      "t": 266110.54399999586,
      "d": 91.88900000002468,
      "v": 62
    },
    {
      "midi": 65,
      "hit": false,
      "t": 266110.54399999586,
      "d": 91.88900000002468,
      "v": 74
    },
    {
      "midi": 41,
      "hit": false,
      "t": 266110.5439999959,
      "d": 91.88900000002468,
      "v": 72
    },
    {
      "midi": 36,
      "hit": false,
      "t": 266202.43299999594,
      "d": 91.88900000002468,
      "v": 67
    },
    {
      "midi": 34,
      "hit": false,
      "t": 266294.32199999597,
      "d": 91.88900000002468,
      "v": 77
    },
    {
      "midi": 41,
      "hit": false,
      "t": 266386.210999996,
      "d": 91.88900000002468,
      "v": 72
    },
    {
      "midi": 53,
      "hit": false,
      "t": 266478.0999999959,
      "d": 91.88900000002468,
      "v": 79
    },
    {
      "midi": 56,
      "hit": false,
      "t": 266478.0999999959,
      "d": 91.88900000002468,
      "v": 64
    },
    {
      "midi": 63,
      "hit": false,
      "t": 266478.0999999959,
      "d": 91.88900000002468,
      "v": 77
    },
    {
      "midi": 44,
      "hit": false,
      "t": 266478.099999996,
      "d": 91.88900000002468,
      "v": 77
    },
    {
      "midi": 46,
      "hit": false,
      "t": 266569.98899999604,
      "d": 91.88900000002468,
      "v": 80
    },
    {
      "midi": 53,
      "hit": false,
      "t": 266661.87799999595,
      "d": 91.88900000002468,
      "v": 62
    },
    {
      "midi": 56,
      "hit": false,
      "t": 266661.87799999595,
      "d": 91.88900000002468,
      "v": 62
    },
    {
      "midi": 62,
      "hit": false,
      "t": 266661.87799999595,
      "d": 91.88900000002468,
      "v": 73
    },
    {
      "midi": 34,
      "hit": false,
      "t": 266661.87799999607,
      "d": 91.88900000002468,
      "v": 75
    },
    {
      "midi": 46,
      "hit": false,
      "t": 266753.7669999961,
      "d": 91.88900000002468,
      "v": 72
    },
    {
      "midi": 51,
      "hit": false,
      "t": 266845.655999996,
      "d": 91.88900000002468,
      "v": 62
    },
    {
      "midi": 39,
      "hit": false,
      "t": 266845.6559999961,
      "d": 91.88900000002468,
      "v": 75
    },
    {
      "midi": 53,
      "hit": false,
      "t": 266937.544999996,
      "d": 91.88900000002468,
      "v": 63
    },
    {
      "midi": 55,
      "hit": false,
      "t": 267029.43399999605,
      "d": 91.88900000002468,
      "v": 65
    },
    {
      "midi": 51,
      "hit": false,
      "t": 267029.43399999617,
      "d": 91.88900000002468,
      "v": 75
    },
    {
      "midi": 56,
      "hit": false,
      "t": 267121.3229999961,
      "d": 91.88900000002468,
      "v": 66
    },
    {
      "midi": 58,
      "hit": false,
      "t": 267213.2119999961,
      "d": 61.25933333334979,
      "v": 67
    },
    {
      "midi": 51,
      "hit": false,
      "t": 267213.2119999962,
      "d": 91.88900000002468,
      "v": 64
    },
    {
      "midi": 55,
      "hit": false,
      "t": 267213.2119999962,
      "d": 91.88900000002468,
      "v": 77
    },
    {
      "midi": 60,
      "hit": false,
      "t": 267274.47133332945,
      "d": 61.25933333334979,
      "v": 68
    },
    {
      "midi": 62,
      "hit": false,
      "t": 267335.7306666628,
      "d": 61.25933333334979,
      "v": 68
    },
    {
      "midi": 63,
      "hit": false,
      "t": 267396.98999999615,
      "d": 61.25933333334979,
      "v": 69
    },
    {
      "midi": 51,
      "hit": false,
      "t": 267396.98999999627,
      "d": 367.5559999999823,
      "v": 70
    },
    {
      "midi": 55,
      "hit": false,
      "t": 267396.98999999627,
      "d": 367.5559999999823,
      "v": 70
    },
    {
      "midi": 58,
      "hit": false,
      "t": 267396.98999999627,
      "d": 367.5559999999823,
      "v": 83
    },
    {
      "midi": 65,
      "hit": false,
      "t": 267458.2493333295,
      "d": 61.25933333334979,
      "v": 70
    },
    {
      "midi": 67,
      "hit": false,
      "t": 267519.50866666285,
      "d": 61.25933333334979,
      "v": 71
    },
    {
      "midi": 68,
      "hit": false,
      "t": 267580.7679999962,
      "d": 61.25933333334979,
      "v": 72
    },
    {
      "midi": 70,
      "hit": false,
      "t": 267642.02733332955,
      "d": 61.25933333334979,
      "v": 72
    },
    {
      "midi": 72,
      "hit": false,
      "t": 267703.2866666629,
      "d": 61.25933333334979,
      "v": 73
    },
    {
      "midi": 74,
      "hit": false,
      "t": 267764.54599999625,
      "d": 91.88900000002468,
      "v": 85
    },
    {
      "midi": 46,
      "hit": false,
      "t": 267764.54599999625,
      "d": 91.88900000002468,
      "v": 60
    },
    {
      "midi": 53,
      "hit": false,
      "t": 267764.54599999625,
      "d": 91.88900000002468,
      "v": 60
    },
    {
      "midi": 58,
      "hit": false,
      "t": 267764.54599999625,
      "d": 91.88900000002468,
      "v": 71
    },
    {
      "midi": 62,
      "hit": false,
      "t": 267856.4349999963,
      "d": 91.88900000002468,
      "v": 67
    },
    {
      "midi": 63,
      "hit": false,
      "t": 267948.3239999963,
      "d": 91.88900000002468,
      "v": 62
    },
    {
      "midi": 51,
      "hit": false,
      "t": 267948.3239999963,
      "d": 91.88900000002468,
      "v": 67
    },
    {
      "midi": 55,
      "hit": false,
      "t": 267948.3239999963,
      "d": 91.88900000002468,
      "v": 67
    },
    {
      "midi": 58,
      "hit": false,
      "t": 267948.3239999963,
      "d": 91.88900000002468,
      "v": 79
    },
    {
      "midi": 65,
      "hit": false,
      "t": 268040.2129999963,
      "d": 91.88900000002468,
      "v": 63
    },
    {
      "midi": 67,
      "hit": false,
      "t": 268132.10199999635,
      "d": 91.88900000002468,
      "v": 65
    },
    {
      "midi": 51,
      "hit": false,
      "t": 268132.10199999635,
      "d": 91.88900000002468,
      "v": 63
    },
    {
      "midi": 55,
      "hit": false,
      "t": 268132.10199999635,
      "d": 91.88900000002468,
      "v": 63
    },
    {
      "midi": 58,
      "hit": false,
      "t": 268132.10199999635,
      "d": 91.88900000002468,
      "v": 75
    },
    {
      "midi": 68,
      "hit": false,
      "t": 268223.9909999964,
      "d": 91.88900000002468,
      "v": 66
    },
    {
      "midi": 70,
      "hit": false,
      "t": 268315.8799999964,
      "d": 61.25933333334979,
      "v": 67
    },
    {
      "midi": 51,
      "hit": false,
      "t": 268315.8799999964,
      "d": 91.88900000002468,
      "v": 62
    },
    {
      "midi": 55,
      "hit": false,
      "t": 268315.8799999964,
      "d": 91.88900000002468,
      "v": 62
    },
    {
      "midi": 58,
      "hit": false,
      "t": 268315.8799999964,
      "d": 91.88900000002468,
      "v": 74
    },
    {
      "midi": 72,
      "hit": false,
      "t": 268377.13933332975,
      "d": 61.25933333334979,
      "v": 68
    },
    {
      "midi": 74,
      "hit": false,
      "t": 268438.3986666631,
      "d": 61.25933333334979,
      "v": 68
    },
    {
      "midi": 75,
      "hit": false,
      "t": 268499.65799999645,
      "d": 61.25933333334979,
      "v": 69
    },
    {
      "midi": 51,
      "hit": false,
      "t": 268499.65799999645,
      "d": 367.5559999999823,
      "v": 69
    },
    {
      "midi": 55,
      "hit": false,
      "t": 268499.65799999645,
      "d": 367.5559999999823,
      "v": 69
    },
    {
      "midi": 58,
      "hit": false,
      "t": 268499.65799999645,
      "d": 367.5559999999823,
      "v": 82
    },
    {
      "midi": 77,
      "hit": false,
      "t": 268560.9173333298,
      "d": 61.25933333334979,
      "v": 70
    },
    {
      "midi": 79,
      "hit": false,
      "t": 268622.17666666314,
      "d": 61.25933333334979,
      "v": 71
    },
    {
      "midi": 80,
      "hit": false,
      "t": 268683.4359999965,
      "d": 61.25933333334979,
      "v": 72
    },
    {
      "midi": 82,
      "hit": false,
      "t": 268744.69533332984,
      "d": 61.25933333334979,
      "v": 72
    },
    {
      "midi": 84,
      "hit": false,
      "t": 268805.9546666632,
      "d": 61.25933333334979,
      "v": 73
    },
    {
      "midi": 46,
      "hit": false,
      "t": 268867.2139999964,
      "d": 91.88900000002468,
      "v": 63
    },
    {
      "midi": 53,
      "hit": false,
      "t": 268867.2139999964,
      "d": 91.88900000002468,
      "v": 63
    },
    {
      "midi": 58,
      "hit": false,
      "t": 268867.2139999964,
      "d": 91.88900000002468,
      "v": 75
    },
    {
      "midi": 86,
      "hit": false,
      "t": 268867.21399999654,
      "d": 91.88900000002468,
      "v": 85
    },
    {
      "midi": 74,
      "hit": false,
      "t": 268959.10299999657,
      "d": 91.88900000002468,
      "v": 67
    },
    {
      "midi": 51,
      "hit": false,
      "t": 269050.9919999965,
      "d": 91.88900000002468,
      "v": 64
    },
    {
      "midi": 55,
      "hit": false,
      "t": 269050.9919999965,
      "d": 91.88900000002468,
      "v": 64
    },
    {
      "midi": 58,
      "hit": false,
      "t": 269050.9919999965,
      "d": 91.88900000002468,
      "v": 76
    },
    {
      "midi": 75,
      "hit": false,
      "t": 269050.9919999966,
      "d": 91.88900000002468,
      "v": 62
    },
    {
      "midi": 77,
      "hit": false,
      "t": 269142.8809999966,
      "d": 91.88900000002468,
      "v": 63
    },
    {
      "midi": 51,
      "hit": false,
      "t": 269234.7699999965,
      "d": 91.88900000002468,
      "v": 63
    },
    {
      "midi": 55,
      "hit": false,
      "t": 269234.7699999965,
      "d": 91.88900000002468,
      "v": 63
    },
    {
      "midi": 58,
      "hit": false,
      "t": 269234.7699999965,
      "d": 91.88900000002468,
      "v": 75
    },
    {
      "midi": 79,
      "hit": false,
      "t": 269234.76999999664,
      "d": 91.88900000002468,
      "v": 65
    },
    {
      "midi": 80,
      "hit": false,
      "t": 269326.65899999667,
      "d": 91.88900000002468,
      "v": 66
    },
    {
      "midi": 51,
      "hit": false,
      "t": 269418.5479999966,
      "d": 91.88900000002468,
      "v": 61
    },
    {
      "midi": 55,
      "hit": false,
      "t": 269418.5479999966,
      "d": 91.88900000002468,
      "v": 61
    },
    {
      "midi": 58,
      "hit": false,
      "t": 269418.5479999966,
      "d": 91.88900000002468,
      "v": 73
    },
    {
      "midi": 82,
      "hit": false,
      "t": 269418.5479999967,
      "d": 61.25933333334979,
      "v": 68
    },
    {
      "midi": 84,
      "hit": false,
      "t": 269479.80733333004,
      "d": 61.25933333334979,
      "v": 70
    },
    {
      "midi": 86,
      "hit": false,
      "t": 269541.0666666634,
      "d": 61.25933333334979,
      "v": 72
    },
    {
      "midi": 51,
      "hit": false,
      "t": 269602.3259999966,
      "d": 367.5559999999823,
      "v": 70
    },
    {
      "midi": 55,
      "hit": false,
      "t": 269602.3259999966,
      "d": 367.5559999999823,
      "v": 70
    },
    {
      "midi": 58,
      "hit": false,
      "t": 269602.3259999966,
      "d": 367.5559999999823,
      "v": 83
    },
    {
      "midi": 87,
      "hit": false,
      "t": 269602.32599999674,
      "d": 91.88900000002468,
      "v": 74
    },
    {
      "midi": 89,
      "hit": false,
      "t": 269694.21499999677,
      "d": 91.88900000002468,
      "v": 78
    },
    {
      "midi": 91,
      "hit": false,
      "t": 269786.1039999968,
      "d": 91.88900000002468,
      "v": 82
    },
    {
      "midi": 92,
      "hit": false,
      "t": 269877.9929999968,
      "d": 91.88900000002468,
      "v": 86
    },
    {
      "midi": 46,
      "hit": false,
      "t": 269969.8819999966,
      "d": 91.88900000002468,
      "v": 63
    },
    {
      "midi": 53,
      "hit": false,
      "t": 269969.8819999966,
      "d": 91.88900000002468,
      "v": 63
    },
    {
      "midi": 58,
      "hit": false,
      "t": 269969.8819999966,
      "d": 91.88900000002468,
      "v": 75
    },
    {
      "midi": 94,
      "hit": false,
      "t": 269969.88199999684,
      "d": 61.25933333334979,
      "v": 90
    },
    {
      "midi": 96,
      "hit": false,
      "t": 270031.1413333302,
      "d": 61.25933333334979,
      "v": 92
    },
    {
      "midi": 98,
      "hit": false,
      "t": 270092.40066666354,
      "d": 61.25933333334979,
      "v": 95
    },
    {
      "midi": 51,
      "hit": false,
      "t": 270153.65999999666,
      "d": 367.5559999999823,
      "v": 69
    },
    {
      "midi": 55,
      "hit": false,
      "t": 270153.65999999666,
      "d": 367.5559999999823,
      "v": 69
    },
    {
      "midi": 58,
      "hit": false,
      "t": 270153.65999999666,
      "d": 367.5559999999823,
      "v": 82
    },
    {
      "midi": 99,
      "hit": false,
      "t": 270153.6599999969,
      "d": 367.5559999999823,
      "v": 103
    },
    {
      "midi": 39,
      "hit": false,
      "t": 270704.99399999663,
      "d": 367.5559999999823,
      "v": 69
    },
    {
      "midi": 51,
      "hit": false,
      "t": 270704.99399999663,
      "d": 367.5559999999823,
      "v": 82
    },
    {
      "midi": 67,
      "hit": false,
      "t": 270704.99399999686,
      "d": 367.5559999999823,
      "v": 75
    },
    {
      "midi": 70,
      "hit": false,
      "t": 270704.99399999686,
      "d": 367.5559999999823,
      "v": 75
    },
    {
      "midi": 75,
      "hit": false,
      "t": 270704.99399999686,
      "d": 367.5559999999823,
      "v": 90
    },
    {
      "midi": 39,
      "hit": false,
      "t": 271256.3279999966,
      "d": 367.5559999999823,
      "v": 69
    },
    {
      "midi": 51,
      "hit": false,
      "t": 271256.3279999966,
      "d": 367.5559999999823,
      "v": 82
    },
    {
      "midi": 55,
      "hit": false,
      "t": 271256.32799999684,
      "d": 367.5559999999823,
      "v": 74
    },
    {
      "midi": 58,
      "hit": false,
      "t": 271256.32799999684,
      "d": 367.5559999999823,
      "v": 74
    },
    {
      "midi": 63,
      "hit": false,
      "t": 271256.32799999684,
      "d": 367.5559999999823,
      "v": 89
    },
    {
      "midi": 70,
      "hit": false,
      "t": 271807.6619999968,
      "d": 367.5559999999823,
      "v": 70
    },
    {
      "midi": 70,
      "hit": false,
      "t": 272175.2179999968,
      "d": 183.77799999999115,
      "v": 60
    },
    {
      "midi": 51,
      "hit": false,
      "t": 272358.9959999966,
      "d": 367.5559999999823,
      "v": 34
    },
    {
      "midi": 55,
      "hit": false,
      "t": 272358.9959999966,
      "d": 367.5559999999823,
      "v": 34
    },
    {
      "midi": 58,
      "hit": false,
      "t": 272358.9959999966,
      "d": 367.5559999999823,
      "v": 40
    },
    {
      "midi": 70,
      "hit": false,
      "t": 272358.9959999968,
      "d": 183.77799999999115,
      "v": 45
    },
    {
      "midi": 67,
      "hit": false,
      "t": 272542.7739999968,
      "d": 183.77799999999115,
      "v": 45
    },
    {
      "midi": 63,
      "hit": false,
      "t": 272726.55199999677,
      "d": 183.77799999999115,
      "v": 39
    },
    {
      "midi": 46,
      "hit": false,
      "t": 272910.3299999966,
      "d": 367.5559999999823,
      "v": 28
    },
    {
      "midi": 53,
      "hit": false,
      "t": 272910.3299999966,
      "d": 367.5559999999823,
      "v": 28
    },
    {
      "midi": 56,
      "hit": false,
      "t": 272910.3299999966,
      "d": 367.5559999999823,
      "v": 28
    },
    {
      "midi": 58,
      "hit": false,
      "t": 272910.3299999966,
      "d": 367.5559999999823,
      "v": 34
    },
    {
      "midi": 62,
      "hit": false,
      "t": 272910.32999999676,
      "d": 183.77799999999115,
      "v": 45
    },
    {
      "midi": 65,
      "hit": false,
      "t": 273094.10799999675,
      "d": 183.77799999999115,
      "v": 40
    },
    {
      "midi": 70,
      "hit": false,
      "t": 273277.88599999674,
      "d": 137.83350000000792,
      "v": 40
    },
    {
      "midi": 51,
      "hit": false,
      "t": 273461.66399999656,
      "d": 367.5559999999823,
      "v": 34
    },
    {
      "midi": 55,
      "hit": false,
      "t": 273461.66399999656,
      "d": 367.5559999999823,
      "v": 34
    },
    {
      "midi": 58,
      "hit": false,
      "t": 273461.66399999656,
      "d": 367.5559999999823,
      "v": 40
    },
    {
      "midi": 70,
      "hit": false,
      "t": 273461.66399999673,
      "d": 183.77799999999115,
      "v": 45
    },
    {
      "midi": 67,
      "hit": false,
      "t": 273645.4419999967,
      "d": 183.77799999999115,
      "v": 41
    },
    {
      "midi": 63,
      "hit": false,
      "t": 273829.2199999967,
      "d": 183.77799999999115,
      "v": 41
    },
    {
      "midi": 48,
      "hit": false,
      "t": 274012.9979999965,
      "d": 183.77799999999115,
      "v": 28
    },
    {
      "midi": 55,
      "hit": false,
      "t": 274012.9979999965,
      "d": 183.77799999999115,
      "v": 28
    },
    {
      "midi": 60,
      "hit": false,
      "t": 274012.9979999965,
      "d": 183.77799999999115,
      "v": 34
    },
    {
      "midi": 64,
      "hit": false,
      "t": 274012.9979999967,
      "d": 183.77799999999115,
      "v": 45
    },
    {
      "midi": 67,
      "hit": false,
      "t": 274196.7759999967,
      "d": 183.77799999999115,
      "v": 39
    },
    {
      "midi": 52,
      "hit": false,
      "t": 274380.5539999965,
      "d": 137.83350000000792,
      "v": 28
    },
    {
      "midi": 55,
      "hit": false,
      "t": 274380.5539999965,
      "d": 137.83350000000792,
      "v": 28
    },
    {
      "midi": 58,
      "hit": false,
      "t": 274380.5539999965,
      "d": 137.83350000000792,
      "v": 28
    },
    {
      "midi": 60,
      "hit": false,
      "t": 274380.5539999965,
      "d": 137.83350000000792,
      "v": 34
    },
    {
      "midi": 72,
      "hit": false,
      "t": 274380.5539999967,
      "d": 137.83350000000792,
      "v": 46
    },
    {
      "midi": 53,
      "hit": false,
      "t": 274564.3319999965,
      "d": 367.5559999999823,
      "v": 34
    },
    {
      "midi": 56,
      "hit": false,
      "t": 274564.3319999965,
      "d": 367.5559999999823,
      "v": 34
    },
    {
      "midi": 60,
      "hit": false,
      "t": 274564.3319999965,
      "d": 367.5559999999823,
      "v": 40
    },
    {
      "midi": 72,
      "hit": false,
      "t": 274564.3319999967,
      "d": 183.77799999999115,
      "v": 50
    },
    {
      "midi": 68,
      "hit": false,
      "t": 274748.10999999667,
      "d": 183.77799999999115,
      "v": 45
    },
    {
      "midi": 65,
      "hit": false,
      "t": 274931.88799999666,
      "d": 183.77799999999115,
      "v": 45
    },
    {
      "midi": 50,
      "hit": false,
      "t": 275115.6659999965,
      "d": 183.77799999999115,
      "v": 28
    },
    {
      "midi": 57,
      "hit": false,
      "t": 275115.6659999965,
      "d": 183.77799999999115,
      "v": 28
    },
    {
      "midi": 62,
      "hit": false,
      "t": 275115.6659999965,
      "d": 183.77799999999115,
      "v": 34
    },
    {
      "midi": 66,
      "hit": false,
      "t": 275115.66599999665,
      "d": 183.77799999999115,
      "v": 49
    },
    {
      "midi": 69,
      "hit": false,
      "t": 275299.44399999664,
      "d": 183.77799999999115,
      "v": 44
    },
    {
      "midi": 54,
      "hit": false,
      "t": 275483.22199999646,
      "d": 137.83350000000792,
      "v": 28
    },
    {
      "midi": 57,
      "hit": false,
      "t": 275483.22199999646,
      "d": 137.83350000000792,
      "v": 28
    },
    {
      "midi": 62,
      "hit": false,
      "t": 275483.22199999646,
      "d": 137.83350000000792,
      "v": 34
    },
    {
      "midi": 74,
      "hit": false,
      "t": 275483.22199999663,
      "d": 137.83350000000792,
      "v": 47
    },
    {
      "midi": 55,
      "hit": false,
      "t": 275666.99999999645,
      "d": 367.5559999999823,
      "v": 34
    },
    {
      "midi": 58,
      "hit": false,
      "t": 275666.99999999645,
      "d": 367.5559999999823,
      "v": 34
    },
    {
      "midi": 62,
      "hit": false,
      "t": 275666.99999999645,
      "d": 367.5559999999823,
      "v": 40
    },
    {
      "midi": 74,
      "hit": false,
      "t": 275666.9999999966,
      "d": 183.77799999999115,
      "v": 56
    },
    {
      "midi": 70,
      "hit": false,
      "t": 275850.7779999966,
      "d": 183.77799999999115,
      "v": 45
    },
    {
      "midi": 67,
      "hit": false,
      "t": 276034.5559999966,
      "d": 183.77799999999115,
      "v": 45
    },
    {
      "midi": 53,
      "hit": false,
      "t": 276218.3339999964,
      "d": 367.5559999999823,
      "v": 34
    },
    {
      "midi": 56,
      "hit": false,
      "t": 276218.3339999964,
      "d": 367.5559999999823,
      "v": 34
    },
    {
      "midi": 58,
      "hit": false,
      "t": 276218.3339999964,
      "d": 367.5559999999823,
      "v": 34
    },
    {
      "midi": 62,
      "hit": false,
      "t": 276218.3339999964,
      "d": 367.5559999999823,
      "v": 40
    },
    {
      "midi": 68,
      "hit": false,
      "t": 276218.3339999966,
      "d": 183.77799999999115,
      "v": 51
    },
    {
      "midi": 70,
      "hit": false,
      "t": 276402.1119999966,
      "d": 183.77799999999115,
      "v": 45
    },
    {
      "midi": 74,
      "hit": false,
      "t": 276585.8899999966,
      "d": 137.83350000000792,
      "v": 45
    },
    {
      "midi": 51,
      "hit": false,
      "t": 276769.6679999964,
      "d": 367.5559999999823,
      "v": 33
    },
    {
      "midi": 55,
      "hit": false,
      "t": 276769.6679999964,
      "d": 367.5559999999823,
      "v": 33
    },
    {
      "midi": 58,
      "hit": false,
      "t": 276769.6679999964,
      "d": 367.5559999999823,
      "v": 33
    },
    {
      "midi": 63,
      "hit": false,
      "t": 276769.6679999964,
      "d": 367.5559999999823,
      "v": 39
    },
    {
      "midi": 75,
      "hit": false,
      "t": 276769.66799999657,
      "d": 183.77799999999115,
      "v": 50
    },
    {
      "midi": 70,
      "hit": false,
      "t": 276953.44599999656,
      "d": 183.77799999999115,
      "v": 43
    },
    {
      "midi": 67,
      "hit": false,
      "t": 277137.22399999655,
      "d": 137.83350000000792,
      "v": 43
    },
    {
      "midi": 67,
      "hit": false,
      "t": 277321.00199999654,
      "d": 183.77799999999115,
      "v": 45
    },
    {
      "midi": 70,
      "hit": false,
      "t": 277504.77999999654,
      "d": 183.77799999999115,
      "v": 41
    },
    {
      "midi": 75,
      "hit": false,
      "t": 277688.5579999965,
      "d": 137.83350000000792,
      "v": 41
    },
    {
      "midi": 63,
      "hit": false,
      "t": 277872.3359999964,
      "d": 183.77799999999115,
      "v": 42
    },
    {
      "midi": 79,
      "hit": false,
      "t": 277872.3359999965,
      "d": 183.77799999999115,
      "v": 50
    },
    {
      "midi": 58,
      "hit": false,
      "t": 278056.1139999964,
      "d": 183.77799999999115,
      "v": 36
    },
    {
      "midi": 75,
      "hit": false,
      "t": 278056.1139999965,
      "d": 183.77799999999115,
      "v": 43
    },
    {
      "midi": 55,
      "hit": false,
      "t": 278239.8919999964,
      "d": 137.83350000000792,
      "v": 37
    },
    {
      "midi": 70,
      "hit": false,
      "t": 278239.8919999965,
      "d": 137.83350000000792,
      "v": 44
    },
    {
      "midi": 55,
      "hit": false,
      "t": 278423.6699999964,
      "d": 183.77799999999115,
      "v": 39
    },
    {
      "midi": 70,
      "hit": false,
      "t": 278423.6699999965,
      "d": 183.77799999999115,
      "v": 47
    },
    {
      "midi": 58,
      "hit": false,
      "t": 278607.44799999637,
      "d": 183.77799999999115,
      "v": 36
    },
    {
      "midi": 75,
      "hit": false,
      "t": 278607.4479999965,
      "d": 183.77799999999115,
      "v": 43
    },
    {
      "midi": 63,
      "hit": false,
      "t": 278791.22599999636,
      "d": 137.83350000000792,
      "v": 36
    },
    {
      "midi": 79,
      "hit": false,
      "t": 278791.2259999965,
      "d": 137.83350000000792,
      "v": 44
    },
    {
      "midi": 39,
      "hit": false,
      "t": 278975.00399999635,
      "d": 183.77799999999115,
      "v": 38
    },
    {
      "midi": 43,
      "hit": false,
      "t": 278975.00399999635,
      "d": 183.77799999999115,
      "v": 46
    },
    {
      "midi": 79,
      "hit": false,
      "t": 278975.00399999646,
      "d": 183.77799999999115,
      "v": 46
    },
    {
      "midi": 82,
      "hit": false,
      "t": 278975.00399999646,
      "d": 183.77799999999115,
      "v": 55
    },
    {
      "midi": 43,
      "hit": false,
      "t": 279158.78199999634,
      "d": 183.77799999999115,
      "v": 33
    },
    {
      "midi": 46,
      "hit": false,
      "t": 279158.78199999634,
      "d": 183.77799999999115,
      "v": 39
    },
    {
      "midi": 75,
      "hit": false,
      "t": 279158.78199999646,
      "d": 183.77799999999115,
      "v": 39
    },
    {
      "midi": 79,
      "hit": false,
      "t": 279158.78199999646,
      "d": 183.77799999999115,
      "v": 47
    },
    {
      "midi": 46,
      "hit": false,
      "t": 279342.55999999633,
      "d": 183.77799999999115,
      "v": 33
    },
    {
      "midi": 51,
      "hit": false,
      "t": 279342.55999999633,
      "d": 183.77799999999115,
      "v": 40
    },
    {
      "midi": 70,
      "hit": false,
      "t": 279342.55999999645,
      "d": 183.77799999999115,
      "v": 40
    },
    {
      "midi": 75,
      "hit": false,
      "t": 279342.55999999645,
      "d": 183.77799999999115,
      "v": 48
    },
    {
      "midi": 43,
      "hit": false,
      "t": 279526.3379999963,
      "d": 183.77799999999115,
      "v": 36
    },
    {
      "midi": 46,
      "hit": false,
      "t": 279526.3379999963,
      "d": 183.77799999999115,
      "v": 43
    },
    {
      "midi": 75,
      "hit": false,
      "t": 279526.33799999644,
      "d": 183.77799999999115,
      "v": 43
    },
    {
      "midi": 79,
      "hit": false,
      "t": 279526.33799999644,
      "d": 183.77799999999115,
      "v": 51
    },
    {
      "midi": 46,
      "hit": false,
      "t": 279710.1159999963,
      "d": 183.77799999999115,
      "v": 32
    },
    {
      "midi": 51,
      "hit": false,
      "t": 279710.1159999963,
      "d": 183.77799999999115,
      "v": 39
    },
    {
      "midi": 70,
      "hit": false,
      "t": 279710.11599999643,
      "d": 183.77799999999115,
      "v": 39
    },
    {
      "midi": 75,
      "hit": false,
      "t": 279710.11599999643,
      "d": 183.77799999999115,
      "v": 47
    },
    {
      "midi": 51,
      "hit": false,
      "t": 279893.8939999963,
      "d": 137.83350000000792,
      "v": 33
    },
    {
      "midi": 55,
      "hit": false,
      "t": 279893.8939999963,
      "d": 137.83350000000792,
      "v": 40
    },
    {
      "midi": 67,
      "hit": false,
      "t": 279893.8939999964,
      "d": 137.83350000000792,
      "v": 40
    },
    {
      "midi": 70,
      "hit": false,
      "t": 279893.8939999964,
      "d": 137.83350000000792,
      "v": 48
    },
    {
      "midi": 46,
      "hit": false,
      "t": 280077.6719999963,
      "d": 183.77799999999115,
      "v": 42
    },
    {
      "midi": 51,
      "hit": false,
      "t": 280077.6719999963,
      "d": 183.77799999999115,
      "v": 50
    },
    {
      "midi": 70,
      "hit": false,
      "t": 280077.6719999964,
      "d": 183.77799999999115,
      "v": 50
    },
    {
      "midi": 75,
      "hit": false,
      "t": 280077.6719999964,
      "d": 183.77799999999115,
      "v": 60
    },
    {
      "midi": 51,
      "hit": false,
      "t": 280261.4499999963,
      "d": 183.77799999999115,
      "v": 36
    },
    {
      "midi": 55,
      "hit": false,
      "t": 280261.4499999963,
      "d": 183.77799999999115,
      "v": 43
    },
    {
      "midi": 67,
      "hit": false,
      "t": 280261.4499999964,
      "d": 183.77799999999115,
      "v": 43
    },
    {
      "midi": 70,
      "hit": false,
      "t": 280261.4499999964,
      "d": 183.77799999999115,
      "v": 52
    },
    {
      "midi": 55,
      "hit": false,
      "t": 280445.2279999963,
      "d": 183.77799999999115,
      "v": 36
    },
    {
      "midi": 58,
      "hit": false,
      "t": 280445.2279999963,
      "d": 183.77799999999115,
      "v": 44
    },
    {
      "midi": 63,
      "hit": false,
      "t": 280445.2279999964,
      "d": 183.77799999999115,
      "v": 44
    },
    {
      "midi": 67,
      "hit": false,
      "t": 280445.2279999964,
      "d": 183.77799999999115,
      "v": 52
    },
    {
      "midi": 70,
      "hit": false,
      "t": 280629.0059999964,
      "d": 183.77799999999115,
      "v": 54
    },
    {
      "midi": 46,
      "hit": false,
      "t": 280812.78399999626,
      "d": 183.77799999999115,
      "v": 31
    },
    {
      "midi": 53,
      "hit": false,
      "t": 280812.78399999626,
      "d": 183.77799999999115,
      "v": 38
    },
    {
      "midi": 60,
      "hit": false,
      "t": 280812.7839999964,
      "d": 183.77799999999115,
      "v": 38
    },
    {
      "midi": 68,
      "hit": false,
      "t": 280812.7839999964,
      "d": 183.77799999999115,
      "v": 46
    },
    {
      "midi": 46,
      "hit": false,
      "t": 280996.56199999625,
      "d": 137.83350000000792,
      "v": 29
    },
    {
      "midi": 58,
      "hit": false,
      "t": 280996.56199999625,
      "d": 137.83350000000792,
      "v": 36
    },
    {
      "midi": 62,
      "hit": false,
      "t": 280996.56199999637,
      "d": 137.83350000000792,
      "v": 36
    },
    {
      "midi": 65,
      "hit": false,
      "t": 280996.56199999637,
      "d": 137.83350000000792,
      "v": 43
    },
    {
      "midi": 51,
      "hit": false,
      "t": 281180.33999999624,
      "d": 367.5559999999823,
      "v": 30
    },
    {
      "midi": 55,
      "hit": false,
      "t": 281180.33999999624,
      "d": 367.5559999999823,
      "v": 30
    },
    {
      "midi": 58,
      "hit": false,
      "t": 281180.33999999624,
      "d": 367.5559999999823,
      "v": 36
    },
    {
      "midi": 67,
      "hit": false,
      "t": 281180.33999999636,
      "d": 91.88900000002468,
      "v": 54
    },
    {
      "midi": 75,
      "hit": false,
      "t": 281180.33999999636,
      "d": 91.88900000002468,
      "v": 54
    },
    {
      "midi": 74,
      "hit": false,
      "t": 281272.2289999964,
      "d": 91.88900000002468,
      "v": 46
    },
    {
      "midi": 75,
      "hit": false,
      "t": 281364.1179999964,
      "d": 91.88900000002468,
      "v": 46
    },
    {
      "midi": 70,
      "hit": false,
      "t": 281456.00699999643,
      "d": 91.88900000002468,
      "v": 42
    },
    {
      "midi": 67,
      "hit": false,
      "t": 281547.89599999646,
      "d": 91.88900000002468,
      "v": 54
    },
    {
      "midi": 68,
      "hit": false,
      "t": 281685.72949999647,
      "d": 45.944499999983236,
      "v": 47
    },
    {
      "midi": 67,
      "hit": false,
      "t": 281731.67399999645,
      "d": 91.88900000002468,
      "v": 54
    },
    {
      "midi": 66,
      "hit": false,
      "t": 281823.5629999965,
      "d": 91.88900000002468,
      "v": 43
    },
    {
      "midi": 67,
      "hit": false,
      "t": 281915.4519999965,
      "d": 91.88900000002468,
      "v": 48
    },
    {
      "midi": 70,
      "hit": false,
      "t": 282007.3409999965,
      "d": 91.88900000002468,
      "v": 43
    },
    {
      "midi": 75,
      "hit": false,
      "t": 282099.22999999655,
      "d": 91.88900000002468,
      "v": 56
    },
    {
      "midi": 63,
      "hit": false,
      "t": 282283.00799999625,
      "d": 91.88900000002468,
      "v": 45
    },
    {
      "midi": 51,
      "hit": false,
      "t": 282283.00799999625,
      "d": 551.3340000000899,
      "v": 40
    },
    {
      "midi": 79,
      "hit": false,
      "t": 282283.0079999966,
      "d": 91.88900000002468,
      "v": 54
    },
    {
      "midi": 67,
      "hit": false,
      "t": 282283.0079999966,
      "d": 551.3340000000899,
      "v": 48
    },
    {
      "midi": 62,
      "hit": false,
      "t": 282374.8969999963,
      "d": 91.88900000002468,
      "v": 39
    },
    {
      "midi": 78,
      "hit": false,
      "t": 282374.8969999966,
      "d": 91.88900000002468,
      "v": 46
    },
    {
      "midi": 63,
      "hit": false,
      "t": 282466.7859999963,
      "d": 91.88900000002468,
      "v": 39
    },
    {
      "midi": 79,
      "hit": false,
      "t": 282466.78599999665,
      "d": 91.88900000002468,
      "v": 46
    },
    {
      "midi": 58,
      "hit": false,
      "t": 282558.6749999963,
      "d": 91.88900000002468,
      "v": 35
    },
    {
      "midi": 75,
      "hit": false,
      "t": 282558.67499999667,
      "d": 91.88900000002468,
      "v": 42
    },
    {
      "midi": 55,
      "hit": false,
      "t": 282650.56399999635,
      "d": 91.88900000002468,
      "v": 45
    },
    {
      "midi": 70,
      "hit": false,
      "t": 282650.5639999967,
      "d": 91.88900000002468,
      "v": 54
    },
    {
      "midi": 56,
      "hit": false,
      "t": 282788.39749999635,
      "d": 45.944499999983236,
      "v": 39
    },
    {
      "midi": 72,
      "hit": false,
      "t": 282788.3974999967,
      "d": 45.944499999983236,
      "v": 47
    },
    {
      "midi": 55,
      "hit": false,
      "t": 282834.34199999634,
      "d": 91.88900000002468,
      "v": 45
    },
    {
      "midi": 70,
      "hit": false,
      "t": 282834.3419999967,
      "d": 91.88900000002468,
      "v": 54
    },
    {
      "midi": 54,
      "hit": false,
      "t": 282926.23099999636,
      "d": 91.88900000002468,
      "v": 36
    },
    {
      "midi": 69,
      "hit": false,
      "t": 282926.2309999967,
      "d": 91.88900000002468,
      "v": 43
    },
    {
      "midi": 55,
      "hit": false,
      "t": 283018.1199999964,
      "d": 91.88900000002468,
      "v": 40
    },
    {
      "midi": 70,
      "hit": false,
      "t": 283018.11999999674,
      "d": 91.88900000002468,
      "v": 48
    },
    {
      "midi": 58,
      "hit": false,
      "t": 283110.0089999964,
      "d": 91.88900000002468,
      "v": 36
    },
    {
      "midi": 75,
      "hit": false,
      "t": 283110.00899999676,
      "d": 91.88900000002468,
      "v": 43
    },
    {
      "midi": 63,
      "hit": false,
      "t": 283201.89799999644,
      "d": 91.88900000002468,
      "v": 47
    },
    {
      "midi": 79,
      "hit": false,
      "t": 283201.8979999968,
      "d": 91.88900000002468,
      "v": 56
    },
    {
      "midi": 39,
      "hit": false,
      "t": 283385.6759999965,
      "d": 91.88900000002468,
      "v": 45
    },
    {
      "midi": 79,
      "hit": false,
      "t": 283385.67599999683,
      "d": 91.88900000002468,
      "v": 45
    },
    {
      "midi": 82,
      "hit": false,
      "t": 283385.67599999683,
      "d": 91.88900000002468,
      "v": 54
    },
    {
      "midi": 38,
      "hit": false,
      "t": 283477.5649999965,
      "d": 91.88900000002468,
      "v": 36
    },
    {
      "midi": 80,
      "hit": false,
      "t": 283477.56499999686,
      "d": 91.88900000002468,
      "v": 42
    },
    {
      "midi": 84,
      "hit": false,
      "t": 283477.56499999686,
      "d": 91.88900000002468,
      "v": 50
    },
    {
      "midi": 39,
      "hit": false,
      "t": 283569.45399999653,
      "d": 91.88900000002468,
      "v": 41
    },
    {
      "midi": 79,
      "hit": false,
      "t": 283569.4539999969,
      "d": 91.88900000002468,
      "v": 45
    },
    {
      "midi": 82,
      "hit": false,
      "t": 283569.4539999969,
      "d": 91.88900000002468,
      "v": 55
    },
    {
      "midi": 43,
      "hit": false,
      "t": 283661.34299999656,
      "d": 91.88900000002468,
      "v": 37
    },
    {
      "midi": 75,
      "hit": false,
      "t": 283661.3429999969,
      "d": 91.88900000002468,
      "v": 41
    },
    {
      "midi": 79,
      "hit": false,
      "t": 283661.3429999969,
      "d": 91.88900000002468,
      "v": 49
    },
    {
      "midi": 46,
      "hit": false,
      "t": 283753.2319999966,
      "d": 183.77799999999115,
      "v": 47
    },
    {
      "midi": 67,
      "hit": false,
      "t": 283753.23199999693,
      "d": 183.77799999999115,
      "v": 47
    },
    {
      "midi": 75,
      "hit": false,
      "t": 283753.23199999693,
      "d": 183.77799999999115,
      "v": 56
    },
    {
      "midi": 43,
      "hit": false,
      "t": 283937.0099999966,
      "d": 91.88900000002468,
      "v": 48
    },
    {
      "midi": 75,
      "hit": false,
      "t": 283937.0099999969,
      "d": 91.88900000002468,
      "v": 48
    },
    {
      "midi": 79,
      "hit": false,
      "t": 283937.0099999969,
      "d": 91.88900000002468,
      "v": 57
    },
    {
      "midi": 41,
      "hit": false,
      "t": 284028.8989999966,
      "d": 91.88900000002468,
      "v": 38
    },
    {
      "midi": 80,
      "hit": false,
      "t": 284028.89899999695,
      "d": 91.88900000002468,
      "v": 54
    },
    {
      "midi": 43,
      "hit": false,
      "t": 284120.7879999966,
      "d": 91.88900000002468,
      "v": 45
    },
    {
      "midi": 75,
      "hit": false,
      "t": 284120.787999997,
      "d": 91.88900000002468,
      "v": 49
    },
    {
      "midi": 79,
      "hit": false,
      "t": 284120.787999997,
      "d": 91.88900000002468,
      "v": 59
    },
    {
      "midi": 46,
      "hit": false,
      "t": 284212.67699999665,
      "d": 91.88900000002468,
      "v": 39
    },
    {
      "midi": 70,
      "hit": false,
      "t": 284212.676999997,
      "d": 91.88900000002468,
      "v": 44
    },
    {
      "midi": 75,
      "hit": false,
      "t": 284212.676999997,
      "d": 91.88900000002468,
      "v": 53
    },
    {
      "midi": 51,
      "hit": false,
      "t": 284304.5659999967,
      "d": 183.77799999999115,
      "v": 50
    },
    {
      "midi": 67,
      "hit": false,
      "t": 284304.565999997,
      "d": 183.77799999999115,
      "v": 50
    },
    {
      "midi": 70,
      "hit": false,
      "t": 284304.565999997,
      "d": 183.77799999999115,
      "v": 60
    },
    {
      "midi": 46,
      "hit": false,
      "t": 284488.34399999666,
      "d": 91.88900000002468,
      "v": 51
    },
    {
      "midi": 67,
      "hit": false,
      "t": 284488.343999997,
      "d": 91.88900000002468,
      "v": 51
    },
    {
      "midi": 75,
      "hit": false,
      "t": 284488.343999997,
      "d": 91.88900000002468,
      "v": 62
    },
    {
      "midi": 45,
      "hit": false,
      "t": 284580.2329999967,
      "d": 91.88900000002468,
      "v": 40
    },
    {
      "midi": 77,
      "hit": false,
      "t": 284580.23299999704,
      "d": 91.88900000002468,
      "v": 56
    },
    {
      "midi": 46,
      "hit": false,
      "t": 284672.1219999967,
      "d": 91.88900000002468,
      "v": 45
    },
    {
      "midi": 67,
      "hit": false,
      "t": 284672.12199999706,
      "d": 91.88900000002468,
      "v": 49
    },
    {
      "midi": 75,
      "hit": false,
      "t": 284672.12199999706,
      "d": 91.88900000002468,
      "v": 59
    },
    {
      "midi": 51,
      "hit": false,
      "t": 284764.01099999674,
      "d": 91.88900000002468,
      "v": 38
    },
    {
      "midi": 67,
      "hit": false,
      "t": 284764.0109999971,
      "d": 91.88900000002468,
      "v": 43
    },
    {
      "midi": 70,
      "hit": false,
      "t": 284764.0109999971,
      "d": 91.88900000002468,
      "v": 51
    },
    {
      "midi": 55,
      "hit": false,
      "t": 284855.89999999676,
      "d": 183.77799999999115,
      "v": 47
    },
    {
      "midi": 63,
      "hit": false,
      "t": 284855.8999999971,
      "d": 183.77799999999115,
      "v": 47
    },
    {
      "midi": 67,
      "hit": false,
      "t": 284855.8999999971,
      "d": 183.77799999999115,
      "v": 56
    },
    {
      "midi": 70,
      "hit": false,
      "t": 285039.6779999971,
      "d": 183.77799999999115,
      "v": 54
    },
    {
      "midi": 46,
      "hit": false,
      "t": 285223.45599999675,
      "d": 183.77799999999115,
      "v": 31
    },
    {
      "midi": 53,
      "hit": false,
      "t": 285223.45599999675,
      "d": 183.77799999999115,
      "v": 38
    },
    {
      "midi": 60,
      "hit": false,
      "t": 285223.4559999971,
      "d": 183.77799999999115,
      "v": 38
    },
    {
      "midi": 68,
      "hit": false,
      "t": 285223.4559999971,
      "d": 183.77799999999115,
      "v": 46
    },
    {
      "midi": 46,
      "hit": false,
      "t": 285407.23399999674,
      "d": 137.83350000000792,
      "v": 29
    },
    {
      "midi": 58,
      "hit": false,
      "t": 285407.23399999674,
      "d": 137.83350000000792,
      "v": 36
    },
    {
      "midi": 62,
      "hit": false,
      "t": 285407.2339999971,
      "d": 137.83350000000792,
      "v": 36
    },
    {
      "midi": 65,
      "hit": false,
      "t": 285407.2339999971,
      "d": 137.83350000000792,
      "v": 43
    },
    {
      "midi": 39,
      "hit": false,
      "t": 285591.0119999967,
      "d": 183.77799999999115,
      "v": 38
    },
    {
      "midi": 43,
      "hit": false,
      "t": 285591.0119999967,
      "d": 183.77799999999115,
      "v": 46
    },
    {
      "midi": 79,
      "hit": false,
      "t": 285682.9009999971,
      "d": 183.77799999999115,
      "v": 46
    },
    {
      "midi": 82,
      "hit": false,
      "t": 285682.9009999971,
      "d": 183.77799999999115,
      "v": 55
    },
    {
      "midi": 43,
      "hit": false,
      "t": 285774.7899999967,
      "d": 183.77799999999115,
      "v": 33
    },
    {
      "midi": 46,
      "hit": false,
      "t": 285774.7899999967,
      "d": 183.77799999999115,
      "v": 39
    },
    {
      "midi": 75,
      "hit": false,
      "t": 285866.6789999971,
      "d": 182.24651666666614,
      "v": 39
    },
    {
      "midi": 79,
      "hit": false,
      "t": 285866.6789999971,
      "d": 182.24651666666614,
      "v": 47
    },
    {
      "midi": 46,
      "hit": false,
      "t": 285958.5679999967,
      "d": 183.77799999999115,
      "v": 33
    },
    {
      "midi": 51,
      "hit": false,
      "t": 285958.5679999967,
      "d": 183.77799999999115,
      "v": 40
    },
    {
      "midi": 70,
      "hit": false,
      "t": 286050.4569999971,
      "d": 182.24651666666614,
      "v": 40
    },
    {
      "midi": 75,
      "hit": false,
      "t": 286050.4569999971,
      "d": 182.24651666666614,
      "v": 48
    },
    {
      "midi": 43,
      "hit": false,
      "t": 286142.3459999967,
      "d": 183.77799999999115,
      "v": 36
    },
    {
      "midi": 46,
      "hit": false,
      "t": 286142.3459999967,
      "d": 183.77799999999115,
      "v": 43
    },
    {
      "midi": 75,
      "hit": false,
      "t": 286234.2349999971,
      "d": 182.24651666666614,
      "v": 43
    },
    {
      "midi": 79,
      "hit": false,
      "t": 286234.2349999971,
      "d": 182.24651666666614,
      "v": 51
    },
    {
      "midi": 46,
      "hit": false,
      "t": 286326.1239999967,
      "d": 183.77799999999115,
      "v": 32
    },
    {
      "midi": 51,
      "hit": false,
      "t": 286326.1239999967,
      "d": 183.77799999999115,
      "v": 39
    },
    {
      "midi": 70,
      "hit": false,
      "t": 286418.01299999707,
      "d": 182.24651666666614,
      "v": 39
    },
    {
      "midi": 75,
      "hit": false,
      "t": 286418.01299999707,
      "d": 182.24651666666614,
      "v": 47
    },
    {
      "midi": 51,
      "hit": false,
      "t": 286509.9019999967,
      "d": 176.12058333330788,
      "v": 33
    },
    {
      "midi": 55,
      "hit": false,
      "t": 286509.9019999967,
      "d": 176.12058333330788,
      "v": 40
    },
    {
      "midi": 67,
      "hit": false,
      "t": 286601.79099999706,
      "d": 182.24651666666614,
      "v": 40
    },
    {
      "midi": 70,
      "hit": false,
      "t": 286601.79099999706,
      "d": 182.24651666666614,
      "v": 48
    },
    {
      "midi": 46,
      "hit": false,
      "t": 286693.6799999967,
      "d": 183.77799999999115,
      "v": 42
    },
    {
      "midi": 51,
      "hit": false,
      "t": 286693.6799999967,
      "d": 183.77799999999115,
      "v": 50
    },
    {
      "midi": 70,
      "hit": false,
      "t": 286785.56899999705,
      "d": 182.24651666666614,
      "v": 50
    },
    {
      "midi": 75,
      "hit": false,
      "t": 286785.56899999705,
      "d": 182.24651666666614,
      "v": 60
    },
    {
      "midi": 51,
      "hit": false,
      "t": 286877.45799999667,
      "d": 183.77799999999115,
      "v": 36
    },
    {
      "midi": 55,
      "hit": false,
      "t": 286877.45799999667,
      "d": 183.77799999999115,
      "v": 43
    },
    {
      "midi": 67,
      "hit": false,
      "t": 286969.34699999704,
      "d": 182.24651666666614,
      "v": 43
    },
    {
      "midi": 70,
      "hit": false,
      "t": 286969.34699999704,
      "d": 182.24651666666614,
      "v": 52
    },
    {
      "midi": 46,
      "hit": false,
      "t": 287061.23599999666,
      "d": 182.24651666666614,
      "v": 36
    },
    {
      "midi": 51,
      "hit": false,
      "t": 287061.23599999666,
      "d": 182.24651666666614,
      "v": 36
    },
    {
      "midi": 58,
      "hit": false,
      "t": 287061.23599999666,
      "d": 182.24651666666614,
      "v": 44
    },
    {
      "midi": 67,
      "hit": false,
      "t": 287153.12499999703,
      "d": 182.24651666666614,
      "v": 52
    },
    {
      "midi": 46,
      "hit": false,
      "t": 287245.01399999665,
      "d": 182.24651666666614,
      "v": 42
    },
    {
      "midi": 53,
      "hit": false,
      "t": 287245.01399999665,
      "d": 182.24651666666614,
      "v": 42
    },
    {
      "midi": 58,
      "hit": false,
      "t": 287245.01399999665,
      "d": 182.24651666666614,
      "v": 50
    },
    {
      "midi": 62,
      "hit": false,
      "t": 287336.902999997,
      "d": 182.24651666666614,
      "v": 46
    },
    {
      "midi": 70,
      "hit": false,
      "t": 287336.902999997,
      "d": 182.24651666666614,
      "v": 54
    },
    {
      "midi": 46,
      "hit": false,
      "t": 287428.79199999664,
      "d": 182.24651666666614,
      "v": 31
    },
    {
      "midi": 53,
      "hit": false,
      "t": 287428.79199999664,
      "d": 182.24651666666614,
      "v": 31
    },
    {
      "midi": 58,
      "hit": false,
      "t": 287428.79199999664,
      "d": 182.24651666666614,
      "v": 38
    },
    {
      "midi": 62,
      "hit": false,
      "t": 287520.680999997,
      "d": 182.24651666666614,
      "v": 38
    },
    {
      "midi": 68,
      "hit": false,
      "t": 287520.680999997,
      "d": 182.24651666666614,
      "v": 46
    },
    {
      "midi": 46,
      "hit": false,
      "t": 287612.56999999663,
      "d": 183.77799999999115,
      "v": 29
    },
    {
      "midi": 56,
      "hit": false,
      "t": 287612.56999999663,
      "d": 183.77799999999115,
      "v": 36
    },
    {
      "midi": 58,
      "hit": false,
      "t": 287612.56999999663,
      "d": 183.77799999999115,
      "v": 36
    },
    {
      "midi": 62,
      "hit": false,
      "t": 287704.458999997,
      "d": 91.88900000002468,
      "v": 36
    },
    {
      "midi": 65,
      "hit": false,
      "t": 287704.458999997,
      "d": 91.88900000002468,
      "v": 43
    },
    {
      "midi": 70,
      "hit": false,
      "t": 287796.3479999966,
      "d": 91.88900000002468,
      "v": 80
    },
    {
      "midi": 82,
      "hit": false,
      "t": 287796.34799999703,
      "d": 91.88900000002468,
      "v": 80
    },
    {
      "midi": 94,
      "hit": false,
      "t": 287888.23699999705,
      "d": 91.88900000002468,
      "v": 63
    },
    {
      "midi": 67,
      "hit": false,
      "t": 287980.1259999967,
      "d": 91.88900000002468,
      "v": 67
    },
    {
      "midi": 79,
      "hit": false,
      "t": 287980.1259999971,
      "d": 91.88900000002468,
      "v": 69
    },
    {
      "midi": 91,
      "hit": false,
      "t": 288072.0149999971,
      "d": 91.88900000002468,
      "v": 64
    },
    {
      "midi": 63,
      "hit": false,
      "t": 288163.9039999967,
      "d": 91.88900000002468,
      "v": 67
    },
    {
      "midi": 75,
      "hit": false,
      "t": 288163.9039999971,
      "d": 91.88900000002468,
      "v": 69
    },
    {
      "midi": 87,
      "hit": false,
      "t": 288255.79299999715,
      "d": 91.88900000002468,
      "v": 64
    },
    {
      "midi": 67,
      "hit": false,
      "t": 288347.68199999677,
      "d": 91.88900000002468,
      "v": 80
    },
    {
      "midi": 79,
      "hit": false,
      "t": 288347.6819999972,
      "d": 91.88900000002468,
      "v": 80
    },
    {
      "midi": 91,
      "hit": false,
      "t": 288439.5709999972,
      "d": 91.88900000002468,
      "v": 64
    },
    {
      "midi": 63,
      "hit": false,
      "t": 288531.4599999968,
      "d": 91.88900000002468,
      "v": 70
    },
    {
      "midi": 75,
      "hit": false,
      "t": 288531.4599999972,
      "d": 91.88900000002468,
      "v": 69
    },
    {
      "midi": 87,
      "hit": false,
      "t": 288623.34899999725,
      "d": 91.88900000002468,
      "v": 64
    },
    {
      "midi": 58,
      "hit": false,
      "t": 288715.23799999687,
      "d": 91.88900000002468,
      "v": 70
    },
    {
      "midi": 70,
      "hit": false,
      "t": 288715.2379999973,
      "d": 91.88900000002468,
      "v": 69
    },
    {
      "midi": 82,
      "hit": false,
      "t": 288807.1269999973,
      "d": 91.88900000002468,
      "v": 65
    },
    {
      "midi": 63,
      "hit": false,
      "t": 288899.0159999969,
      "d": 91.88900000002468,
      "v": 80
    },
    {
      "midi": 75,
      "hit": false,
      "t": 288899.0159999973,
      "d": 91.88900000002468,
      "v": 80
    },
    {
      "midi": 87,
      "hit": false,
      "t": 288990.90499999735,
      "d": 91.88900000002468,
      "v": 65
    },
    {
      "midi": 58,
      "hit": false,
      "t": 289082.79399999697,
      "d": 91.88900000002468,
      "v": 71
    },
    {
      "midi": 70,
      "hit": false,
      "t": 289082.7939999974,
      "d": 91.88900000002468,
      "v": 70
    },
    {
      "midi": 82,
      "hit": false,
      "t": 289174.6829999974,
      "d": 91.88900000002468,
      "v": 65
    },
    {
      "midi": 55,
      "hit": false,
      "t": 289266.571999997,
      "d": 91.88900000002468,
      "v": 71
    },
    {
      "midi": 67,
      "hit": false,
      "t": 289266.5719999974,
      "d": 91.88900000002468,
      "v": 70
    },
    {
      "midi": 79,
      "hit": false,
      "t": 289358.46099999745,
      "d": 91.88900000002468,
      "v": 66
    },
    {
      "midi": 58,
      "hit": false,
      "t": 289450.34999999707,
      "d": 91.88900000002468,
      "v": 80
    },
    {
      "midi": 70,
      "hit": false,
      "t": 289450.3499999975,
      "d": 91.88900000002468,
      "v": 80
    },
    {
      "midi": 82,
      "hit": false,
      "t": 289542.2389999975,
      "d": 91.88900000002468,
      "v": 64
    },
    {
      "midi": 56,
      "hit": false,
      "t": 289634.1279999971,
      "d": 91.88900000002468,
      "v": 69
    },
    {
      "midi": 68,
      "hit": false,
      "t": 289634.1279999975,
      "d": 91.88900000002468,
      "v": 69
    },
    {
      "midi": 80,
      "hit": false,
      "t": 289726.01699999755,
      "d": 91.88900000002468,
      "v": 65
    },
    {
      "midi": 46,
      "hit": false,
      "t": 289817.90599999717,
      "d": 91.88900000002468,
      "v": 55
    },
    {
      "midi": 53,
      "hit": false,
      "t": 289817.90599999717,
      "d": 91.88900000002468,
      "v": 69
    },
    {
      "midi": 65,
      "hit": false,
      "t": 289817.9059999976,
      "d": 91.88900000002468,
      "v": 69
    },
    {
      "midi": 77,
      "hit": false,
      "t": 289909.7949999976,
      "d": 91.88900000002468,
      "v": 66
    },
    {
      "midi": 39,
      "hit": false,
      "t": 290001.6839999972,
      "d": 91.88900000002468,
      "v": 65
    },
    {
      "midi": 51,
      "hit": false,
      "t": 290001.6839999972,
      "d": 91.88900000002468,
      "v": 82
    },
    {
      "midi": 63,
      "hit": false,
      "t": 290001.6839999976,
      "d": 91.88900000002468,
      "v": 80
    },
    {
      "midi": 75,
      "hit": false,
      "t": 290093.57299999765,
      "d": 91.88900000002468,
      "v": 65
    },
    {
      "midi": 51,
      "hit": false,
      "t": 290185.46199999726,
      "d": 91.88900000002468,
      "v": 51
    },
    {
      "midi": 55,
      "hit": false,
      "t": 290185.46199999726,
      "d": 91.88900000002468,
      "v": 51
    },
    {
      "midi": 58,
      "hit": false,
      "t": 290185.46199999726,
      "d": 91.88900000002468,
      "v": 51
    },
    {
      "midi": 63,
      "hit": false,
      "t": 290185.46199999726,
      "d": 91.88900000002468,
      "v": 64
    },
    {
      "midi": 67,
      "hit": false,
      "t": 290185.4619999977,
      "d": 91.88900000002468,
      "v": 70
    },
    {
      "midi": 79,
      "hit": false,
      "t": 290277.3509999977,
      "d": 91.88900000002468,
      "v": 66
    },
    {
      "midi": 51,
      "hit": false,
      "t": 290369.2399999973,
      "d": 91.88900000002468,
      "v": 51
    },
    {
      "midi": 55,
      "hit": false,
      "t": 290369.2399999973,
      "d": 91.88900000002468,
      "v": 51
    },
    {
      "midi": 58,
      "hit": false,
      "t": 290369.2399999973,
      "d": 91.88900000002468,
      "v": 51
    },
    {
      "midi": 63,
      "hit": false,
      "t": 290369.2399999973,
      "d": 91.88900000002468,
      "v": 64
    },
    {
      "midi": 67,
      "hit": false,
      "t": 290369.2399999977,
      "d": 91.88900000002468,
      "v": 71
    },
    {
      "midi": 79,
      "hit": false,
      "t": 290461.12899999775,
      "d": 91.88900000002468,
      "v": 67
    },
    {
      "midi": 51,
      "hit": false,
      "t": 290553.01799999736,
      "d": 91.88900000002468,
      "v": 51
    },
    {
      "midi": 55,
      "hit": false,
      "t": 290553.01799999736,
      "d": 91.88900000002468,
      "v": 51
    },
    {
      "midi": 58,
      "hit": false,
      "t": 290553.01799999736,
      "d": 91.88900000002468,
      "v": 51
    },
    {
      "midi": 63,
      "hit": false,
      "t": 290553.01799999736,
      "d": 91.88900000002468,
      "v": 64
    },
    {
      "midi": 67,
      "hit": false,
      "t": 290553.01799999777,
      "d": 91.88900000002468,
      "v": 82
    },
    {
      "midi": 79,
      "hit": false,
      "t": 290644.9069999978,
      "d": 91.88900000002468,
      "v": 66
    },
    {
      "midi": 51,
      "hit": false,
      "t": 290736.7959999974,
      "d": 91.88900000002468,
      "v": 51
    },
    {
      "midi": 55,
      "hit": false,
      "t": 290736.7959999974,
      "d": 91.88900000002468,
      "v": 51
    },
    {
      "midi": 58,
      "hit": false,
      "t": 290736.7959999974,
      "d": 91.88900000002468,
      "v": 51
    },
    {
      "midi": 63,
      "hit": false,
      "t": 290736.7959999974,
      "d": 91.88900000002468,
      "v": 64
    },
    {
      "midi": 70,
      "hit": false,
      "t": 290736.7959999978,
      "d": 91.88900000002468,
      "v": 72
    },
    {
      "midi": 82,
      "hit": false,
      "t": 290828.68499999784,
      "d": 91.88900000002468,
      "v": 68
    },
    {
      "midi": 51,
      "hit": false,
      "t": 290920.57399999746,
      "d": 91.88900000002468,
      "v": 51
    },
    {
      "midi": 55,
      "hit": false,
      "t": 290920.57399999746,
      "d": 91.88900000002468,
      "v": 51
    },
    {
      "midi": 58,
      "hit": false,
      "t": 290920.57399999746,
      "d": 91.88900000002468,
      "v": 51
    },
    {
      "midi": 63,
      "hit": false,
      "t": 290920.57399999746,
      "d": 91.88900000002468,
      "v": 64
    },
    {
      "midi": 70,
      "hit": false,
      "t": 290920.57399999787,
      "d": 91.88900000002468,
      "v": 73
    },
    {
      "midi": 82,
      "hit": false,
      "t": 291012.4629999979,
      "d": 91.88900000002468,
      "v": 69
    },
    {
      "midi": 51,
      "hit": false,
      "t": 291104.3519999975,
      "d": 91.88900000002468,
      "v": 59
    },
    {
      "midi": 55,
      "hit": false,
      "t": 291104.3519999975,
      "d": 91.88900000002468,
      "v": 59
    },
    {
      "midi": 58,
      "hit": false,
      "t": 291104.3519999975,
      "d": 91.88900000002468,
      "v": 59
    },
    {
      "midi": 63,
      "hit": false,
      "t": 291104.3519999975,
      "d": 91.88900000002468,
      "v": 74
    },
    {
      "midi": 70,
      "hit": false,
      "t": 291104.3519999979,
      "d": 91.88900000002468,
      "v": 85
    },
    {
      "midi": 82,
      "hit": false,
      "t": 291196.24099999794,
      "d": 91.88900000002468,
      "v": 70
    },
    {
      "midi": 51,
      "hit": false,
      "t": 291288.12999999756,
      "d": 91.88900000002468,
      "v": 48
    },
    {
      "midi": 55,
      "hit": false,
      "t": 291288.12999999756,
      "d": 91.88900000002468,
      "v": 48
    },
    {
      "midi": 58,
      "hit": false,
      "t": 291288.12999999756,
      "d": 91.88900000002468,
      "v": 48
    },
    {
      "midi": 63,
      "hit": false,
      "t": 291288.12999999756,
      "d": 91.88900000002468,
      "v": 61
    },
    {
      "midi": 75,
      "hit": false,
      "t": 291288.12999999797,
      "d": 91.88900000002468,
      "v": 75
    },
    {
      "midi": 87,
      "hit": false,
      "t": 291380.018999998,
      "d": 91.88900000002468,
      "v": 70
    },
    {
      "midi": 51,
      "hit": false,
      "t": 291471.9079999976,
      "d": 91.88900000002468,
      "v": 49
    },
    {
      "midi": 55,
      "hit": false,
      "t": 291471.9079999976,
      "d": 91.88900000002468,
      "v": 49
    },
    {
      "midi": 58,
      "hit": false,
      "t": 291471.9079999976,
      "d": 91.88900000002468,
      "v": 49
    },
    {
      "midi": 63,
      "hit": false,
      "t": 291471.9079999976,
      "d": 91.88900000002468,
      "v": 62
    },
    {
      "midi": 75,
      "hit": false,
      "t": 291471.907999998,
      "d": 91.88900000002468,
      "v": 76
    },
    {
      "midi": 87,
      "hit": false,
      "t": 291563.79699999804,
      "d": 91.88900000002468,
      "v": 72
    },
    {
      "midi": 51,
      "hit": false,
      "t": 291655.68599999766,
      "d": 91.88900000002468,
      "v": 50
    },
    {
      "midi": 55,
      "hit": false,
      "t": 291655.68599999766,
      "d": 91.88900000002468,
      "v": 50
    },
    {
      "midi": 58,
      "hit": false,
      "t": 291655.68599999766,
      "d": 91.88900000002468,
      "v": 50
    },
    {
      "midi": 63,
      "hit": false,
      "t": 291655.68599999766,
      "d": 91.88900000002468,
      "v": 63
    },
    {
      "midi": 75,
      "hit": false,
      "t": 291655.68599999807,
      "d": 91.88900000002468,
      "v": 88
    },
    {
      "midi": 87,
      "hit": false,
      "t": 291747.5749999981,
      "d": 91.88900000002468,
      "v": 77
    },
    {
      "midi": 51,
      "hit": false,
      "t": 291839.4639999977,
      "d": 91.88900000002468,
      "v": 51
    },
    {
      "midi": 55,
      "hit": false,
      "t": 291839.4639999977,
      "d": 91.88900000002468,
      "v": 51
    },
    {
      "midi": 58,
      "hit": false,
      "t": 291839.4639999977,
      "d": 91.88900000002468,
      "v": 51
    },
    {
      "midi": 63,
      "hit": false,
      "t": 291839.4639999977,
      "d": 91.88900000002468,
      "v": 64
    },
    {
      "midi": 79,
      "hit": false,
      "t": 291839.4639999981,
      "d": 91.88900000002468,
      "v": 88
    },
    {
      "midi": 91,
      "hit": false,
      "t": 291931.35299999814,
      "d": 91.88900000002468,
      "v": 81
    },
    {
      "midi": 51,
      "hit": false,
      "t": 292023.24199999776,
      "d": 91.88900000002468,
      "v": 51
    },
    {
      "midi": 55,
      "hit": false,
      "t": 292023.24199999776,
      "d": 91.88900000002468,
      "v": 51
    },
    {
      "midi": 58,
      "hit": false,
      "t": 292023.24199999776,
      "d": 91.88900000002468,
      "v": 51
    },
    {
      "midi": 63,
      "hit": false,
      "t": 292023.24199999776,
      "d": 91.88900000002468,
      "v": 64
    },
    {
      "midi": 82,
      "hit": false,
      "t": 292023.24199999816,
      "d": 91.88900000002468,
      "v": 92
    },
    {
      "midi": 94,
      "hit": false,
      "t": 292115.1309999982,
      "d": 91.88900000002468,
      "v": 84
    },
    {
      "midi": 51,
      "hit": false,
      "t": 292207.0199999978,
      "d": 367.5559999999823,
      "v": 59
    },
    {
      "midi": 55,
      "hit": false,
      "t": 292207.0199999978,
      "d": 367.5559999999823,
      "v": 59
    },
    {
      "midi": 58,
      "hit": false,
      "t": 292207.0199999978,
      "d": 367.5559999999823,
      "v": 59
    },
    {
      "midi": 63,
      "hit": false,
      "t": 292207.0199999978,
      "d": 367.5559999999823,
      "v": 74
    },
    {
      "midi": 87,
      "hit": false,
      "t": 292207.0199999982,
      "d": 367.5559999999823,
      "v": 101
    },
    {
      "midi": 99,
      "hit": false,
      "t": 292207.0199999982,
      "d": 367.5559999999823,
      "v": 109
    },
    {
      "midi": 46,
      "hit": false,
      "t": 292758.3539999978,
      "d": 367.5559999999823,
      "v": 57
    },
    {
      "midi": 58,
      "hit": false,
      "t": 292758.3539999978,
      "d": 367.5559999999823,
      "v": 68
    },
    {
      "midi": 65,
      "hit": false,
      "t": 292758.3539999982,
      "d": 367.5559999999823,
      "v": 74
    },
    {
      "midi": 68,
      "hit": false,
      "t": 292758.3539999982,
      "d": 367.5559999999823,
      "v": 74
    },
    {
      "midi": 70,
      "hit": false,
      "t": 292758.3539999982,
      "d": 367.5559999999823,
      "v": 74
    },
    {
      "midi": 74,
      "hit": false,
      "t": 292758.3539999982,
      "d": 367.5559999999823,
      "v": 88
    },
    {
      "midi": 39,
      "hit": false,
      "t": 293309.68799999775,
      "d": 367.5559999999823,
      "v": 61
    },
    {
      "midi": 51,
      "hit": false,
      "t": 293309.68799999775,
      "d": 367.5559999999823,
      "v": 74
    },
    {
      "midi": 67,
      "hit": false,
      "t": 293309.68799999816,
      "d": 367.5559999999823,
      "v": 77
    },
    {
      "midi": 70,
      "hit": false,
      "t": 293309.68799999816,
      "d": 367.5559999999823,
      "v": 80
    },
    {
      "midi": 75,
      "hit": false,
      "t": 293309.68799999816,
      "d": 367.5559999999823,
      "v": 95
    }
  ]
}