{
  "jsonPath": "Classical/Classical Performance/Emil Gilels/allegro-con-brio.json",
  "path": "Classical\\Classical Performance\\Emil Gilels\\Allegro con brio.mid",
  "name": "Allegro con brio",
  "difficulty": "Advanced",
  "bpm": 120,
  "notes": [
    {
      "midi": 69,
      "hit": false,
      "t": 0,
      "d": 250,
      "v": 64
    },
    {
      "midi": 57,
      "hit": false,
      "t": 0,
      "d": 250,
      "v": 64
    },
    {
      "midi": 61,
      "hit": false,
      "t": 0,
      "d": 250,
      "v": 64
    },
    {
      "midi": 33,
      "hit": false,
      "t": 0,
      "d": 250,
      "v": 64
    },
    {
      "midi": 45,
      "hit": false,
      "t": 0,
      "d": 250,
      "v": 64
    },
    {
      "midi": 61,
      "hit": false,
      "t": 375,
      "d": 125,
      "v": 64
    },
    {
      "midi": 64,
      "hit": false,
      "t": 375,
      "d": 125,
      "v": 64
    },
    {
      "midi": 45,
      "hit": false,
      "t": 375,
      "d": 125,
      "v": 64
    },
    {
      "midi": 52,
      "hit": false,
      "t": 375,
      "d": 125,
      "v": 64
    },
    {
      "midi": 57,
      "hit": false,
      "t": 375,
      "d": 125,
      "v": 64
    },
    {
      "midi": 61,
      "hit": false,
      "t": 500,
      "d": 250,
      "v": 64
    },
    {
      "midi": 64,
      "hit": false,
      "t": 500,
      "d": 250,
      "v": 64
    },
    {
      "midi": 45,
      "hit": false,
      "t": 500,
      "d": 250,
      "v": 64
    },
    {
      "midi": 52,
      "hit": false,
      "t": 500,
      "d": 250,
      "v": 64
    },
    {
      "midi": 57,
      "hit": false,
      "t": 500,
      "d": 250,
      "v": 64
    },
    {
      "midi": 61,
      "hit": false,
      "t": 875,
      "d": 125,
      "v": 64
    },
    {
      "midi": 64,
      "hit": false,
      "t": 875,
      "d": 125,
      "v": 64
    },
    {
      "midi": 45,
      "hit": false,
      "t": 875,
      "d": 125,
      "v": 64
    },
    {
      "midi": 52,
      "hit": false,
      "t": 875,
      "d": 125,
      "v": 64
    },
    {
      "midi": 57,
      "hit": false,
      "t": 875,
      "d": 125,
      "v": 64
    },
    {
      "midi": 62,
      "hit": false,
      "t": 1000,
      "d": 125,
      "v": 64
    },
    {
      "midi": 66,
      "hit": false,
      "t": 1000,
      "d": 125,
      "v": 64
    },
    {
      "midi": 45,
      "hit": false,
      "t": 1000,
      "d": 125,
      "v": 64
    },
    {
      "midi": 52,
      "hit": false,
      "t": 1000,
      "d": 125,
      "v": 64
    },
    {
      "midi": 59,
      "hit": false,
      "t": 1000,
      "d": 125,
      "v": 64
    },
    {
      "midi": 62,
      "hit": false,
      "t": 1125,
      "d": 125,
      "v": 64
    },
    {
      "midi": 68,
      "hit": false,
      "t": 1125,
      "d": 125,
      "v": 64
    },
    {
      "midi": 45,
      "hit": false,
      "t": 1125,
      "d": 125,
      "v": 64
    },
    {
      "midi": 52,
      "hit": false,
      "t": 1125,
      "d": 125,
      "v": 64
    },
    {
      "midi": 59,
      "hit": false,
      "t": 1125,
      "d": 125,
      "v": 64
    },
    {
      "midi": 64,
      "hit": false,
      "t": 1250,
      "d": 125,
      "v": 64
    },
    {
      "midi": 69,
      "hit": false,
      "t": 1250,
      "d": 125,
      "v": 64
    },
    {
      "midi": 45,
      "hit": false,
      "t": 1250,
      "d": 125,
      "v": 64
    },
    {
      "midi": 52,
      "hit": false,
      "t": 1250,
      "d": 125,
      "v": 64
    },
    {
      "midi": 59,
      "hit": false,
      "t": 1250,
      "d": 125,
      "v": 64
    },
    {
      "midi": 62,
      "hit": false,
      "t": 1375,
      "d": 125,
      "v": 64
    },
    {
      "midi": 71,
      "hit": false,
      "t": 1375,
      "d": 125,
      "v": 64
    },
    {
      "midi": 45,
      "hit": false,
      "t": 1375,
      "d": 125,
      "v": 64
    },
    {
      "midi": 52,
      "hit": false,
      "t": 1375,
      "d": 125,
      "v": 64
    },
    {
      "midi": 59,
      "hit": false,
      "t": 1375,
      "d": 125,
      "v": 64
    },
    {
      "midi": 61,
      "hit": false,
      "t": 1500,
      "d": 375,
      "v": 64
    },
    {
      "midi": 73,
      "hit": false,
      "t": 1500,
      "d": 375,
      "v": 64
    },
    {
      "midi": 45,
      "hit": false,
      "t": 1500,
      "d": 375,
      "v": 64
    },
    {
      "midi": 52,
      "hit": false,
      "t": 1500,
      "d": 375,
      "v": 64
    },
    {
      "midi": 57,
      "hit": false,
      "t": 1500,
      "d": 375,
      "v": 64
    },
    {
      "midi": 61,
      "hit": false,
      "t": 1875,
      "d": 125,
      "v": 64
    },
    {
      "midi": 69,
      "hit": false,
      "t": 1875,
      "d": 125,
      "v": 64
    },
    {
      "midi": 45,
      "hit": false,
      "t": 1875,
      "d": 125,
      "v": 64
    },
    {
      "midi": 52,
      "hit": false,
      "t": 1875,
      "d": 125,
      "v": 64
    },
    {
      "midi": 57,
      "hit": false,
      "t": 1875,
      "d": 125,
      "v": 64
    },
    {
      "midi": 61,
      "hit": false,
      "t": 2000,
      "d": 250,
      "v": 64
    },
    {
      "midi": 69,
      "hit": false,
      "t": 2000,
      "d": 250,
      "v": 64
    },
    {
      "midi": 45,
      "hit": false,
      "t": 2000,
      "d": 250,
      "v": 64
    },
    {
      "midi": 52,
      "hit": false,
      "t": 2000,
      "d": 250,
      "v": 64
    },
    {
      "midi": 57,
      "hit": false,
      "t": 2000,
      "d": 250,
      "v": 64
    },
    {
      "midi": 56,
      "hit": false,
      "t": 2250,
      "d": 83.33333333333348,
      "v": 64
    },
    {
      "midi": 44,
      "hit": false,
      "t": 2250,
      "d": 83.33333333333348,
      "v": 64
    },
    {
      "midi": 57,
      "hit": false,
      "t": 2333.3333333333335,
      "d": 83.33333333333348,
      "v": 63
    },
    {
      "midi": 45,
      "hit": false,
      "t": 2333.3333333333335,
      "d": 83.33333333333348,
      "v": 64
    },
    {
      "midi": 59,
      "hit": false,
      "t": 2416.666666666667,
      "d": 83.33333333333348,
      "v": 63
    },
    {
      "midi": 47,
      "hit": false,
      "t": 2416.666666666667,
      "d": 83.33333333333348,
      "v": 64
    },
    {
      "midi": 57,
      "hit": false,
      "t": 2500.0000000000005,
      "d": 250,
      "v": 63
    },
    {
      "midi": 45,
      "hit": false,
      "t": 2500.0000000000005,
      "d": 250,
      "v": 64
    },
    {
      "midi": 52,
      "hit": false,
      "t": 2750.0000000000005,
      "d": 250,
      "v": 63
    },
    {
      "midi": 40,
      "hit": false,
      "t": 2750.0000000000005,
      "d": 250,
      "v": 64
    },
    {
      "midi": 61,
      "hit": false,
      "t": 3000.0000000000005,
      "d": 250,
      "v": 63
    },
    {
      "midi": 73,
      "hit": false,
      "t": 3000.0000000000005,
      "d": 250,
      "v": 63
    },
    {
      "midi": 33,
      "hit": false,
      "t": 3000.0000000000005,
      "d": 250,
      "v": 64
    },
    {
      "midi": 45,
      "hit": false,
      "t": 3000.0000000000005,
      "d": 250,
      "v": 64
    },
    {
      "midi": 61,
      "hit": false,
      "t": 3375.0000000000005,
      "d": 125,
      "v": 63
    },
    {
      "midi": 69,
      "hit": false,
      "t": 3375.0000000000005,
      "d": 125,
      "v": 63
    },
    {
      "midi": 45,
      "hit": false,
      "t": 3375.0000000000005,
      "d": 125,
      "v": 64
    },
    {
      "midi": 52,
      "hit": false,
      "t": 3375.0000000000005,
      "d": 125,
      "v": 64
    },
    {
      "midi": 57,
      "hit": false,
      "t": 3375.0000000000005,
      "d": 125,
      "v": 64
    },
    {
      "midi": 61,
      "hit": false,
      "t": 3500.0000000000005,
      "d": 250,
      "v": 63
    },
    {
      "midi": 69,
      "hit": false,
      "t": 3500.0000000000005,
      "d": 250,
      "v": 63
    },
    {
      "midi": 45,
      "hit": false,
      "t": 3500.0000000000005,
      "d": 250,
      "v": 64
    },
    {
      "midi": 52,
      "hit": false,
      "t": 3500.0000000000005,
      "d": 250,
      "v": 64
    },
    {
      "midi": 57,
      "hit": false,
      "t": 3500.0000000000005,
      "d": 250,
      "v": 64
    },
    {
      "midi": 61,
      "hit": false,
      "t": 3875.0000000000005,
      "d": 125,
      "v": 63
    },
    {
      "midi": 68,
      "hit": false,
      "t": 3875.0000000000005,
      "d": 125,
      "v": 63
    },
    {
      "midi": 45,
      "hit": false,
      "t": 3875.0000000000005,
      "d": 125,
      "v": 64
    },
    {
      "midi": 52,
      "hit": false,
      "t": 3875.0000000000005,
      "d": 125,
      "v": 64
    },
    {
      "midi": 57,
      "hit": false,
      "t": 3875.0000000000005,
      "d": 125,
      "v": 64
    },
    {
      "midi": 61,
      "hit": false,
      "t": 4000.0000000000005,
      "d": 124.99999999999955,
      "v": 63
    },
    {
      "midi": 69,
      "hit": false,
      "t": 4000.0000000000005,
      "d": 124.99999999999955,
      "v": 63
    },
    {
      "midi": 45,
      "hit": false,
      "t": 4000.0000000000005,
      "d": 124.99999999999955,
      "v": 64
    },
    {
      "midi": 52,
      "hit": false,
      "t": 4000.0000000000005,
      "d": 124.99999999999955,
      "v": 64
    },
    {
      "midi": 57,
      "hit": false,
      "t": 4000.0000000000005,
      "d": 124.99999999999955,
      "v": 64
    },
    {
      "midi": 61,
      "hit": false,
      "t": 4125,
      "d": 125,
      "v": 63
    },
    {
      "midi": 69,
      "hit": false,
      "t": 4125,
      "d": 125,
      "v": 63
    },
    {
      "midi": 71,
      "hit": false,
      "t": 4125,
      "d": 125,
      "v": 63
    },
    {
      "midi": 45,
      "hit": false,
      "t": 4125,
      "d": 125,
      "v": 64
    },
    {
      "midi": 52,
      "hit": false,
      "t": 4125,
      "d": 125,
      "v": 64
    },
    {
      "midi": 57,
      "hit": false,
      "t": 4125,
      "d": 125,
      "v": 64
    },
    {
      "midi": 61,
      "hit": false,
      "t": 4250,
      "d": 125,
      "v": 63
    },
    {
      "midi": 69,
      "hit": false,
      "t": 4250,
      "d": 125,
      "v": 63
    },
    {
      "midi": 73,
      "hit": false,
      "t": 4250,
      "d": 125,
      "v": 63
    },
    {
      "midi": 45,
      "hit": false,
      "t": 4250,
      "d": 125,
      "v": 64
    },
    {
      "midi": 52,
      "hit": false,
      "t": 4250,
      "d": 125,
      "v": 64
    },
    {
      "midi": 57,
      "hit": false,
      "t": 4250,
      "d": 125,
      "v": 64
    },
    {
      "midi": 62,
      "hit": false,
      "t": 4375,
      "d": 125,
      "v": 63
    },
    {
      "midi": 69,
      "hit": false,
      "t": 4375,
      "d": 125,
      "v": 63
    },
    {
      "midi": 74,
      "hit": false,
      "t": 4375,
      "d": 125,
      "v": 63
    },
    {
      "midi": 45,
      "hit": false,
      "t": 4375,
      "d": 125,
      "v": 64
    },
    {
      "midi": 52,
      "hit": false,
      "t": 4375,
      "d": 125,
      "v": 64
    },
    {
      "midi": 59,
      "hit": false,
      "t": 4375,
      "d": 125,
      "v": 64
    },
    {
      "midi": 63,
      "hit": false,
      "t": 4500,
      "d": 375,
      "v": 63
    },
    {
      "midi": 69,
      "hit": false,
      "t": 4500,
      "d": 375,
      "v": 63
    },
    {
      "midi": 78,
      "hit": false,
      "t": 4500,
      "d": 375,
      "v": 63
    },
    {
      "midi": 45,
      "hit": false,
      "t": 4500,
      "d": 375,
      "v": 64
    },
    {
      "midi": 51,
      "hit": false,
      "t": 4500,
      "d": 375,
      "v": 64
    },
    {
      "midi": 54,
      "hit": false,
      "t": 4500,
      "d": 375,
      "v": 64
    },
    {
      "midi": 60,
      "hit": false,
      "t": 4500,
      "d": 375,
      "v": 64
    },
    {
      "midi": 64,
      "hit": false,
      "t": 4875,
      "d": 125,
      "v": 63
    },
    {
      "midi": 69,
      "hit": false,
      "t": 4875,
      "d": 125,
      "v": 63
    },
    {
      "midi": 76,
      "hit": false,
      "t": 4875,
      "d": 125,
      "v": 63
    },
    {
      "midi": 52,
      "hit": false,
      "t": 4875,
      "d": 125,
      "v": 64
    },
    {
      "midi": 57,
      "hit": false,
      "t": 4875,
      "d": 125,
      "v": 64
    },
    {
      "midi": 61,
      "hit": false,
      "t": 4875,
      "d": 125,
      "v": 64
    },
    {
      "midi": 64,
      "hit": false,
      "t": 5000,
      "d": 250,
      "v": 63
    },
    {
      "midi": 69,
      "hit": false,
      "t": 5000,
      "d": 250,
      "v": 63
    },
    {
      "midi": 76,
      "hit": false,
      "t": 5000,
      "d": 250,
      "v": 63
    },
    {
      "midi": 52,
      "hit": false,
      "t": 5000,
      "d": 250,
      "v": 64
    },
    {
      "midi": 57,
      "hit": false,
      "t": 5000,
      "d": 250,
      "v": 64
    },
    {
      "midi": 61,
      "hit": false,
      "t": 5000,
      "d": 250,
      "v": 64
    },
    {
      "midi": 56,
      "hit": false,
      "t": 5250,
      "d": 83.33333333333303,
      "v": 63
    },
    {
      "midi": 44,
      "hit": false,
      "t": 5250,
      "d": 83.33333333333303,
      "v": 64
    },
    {
      "midi": 57,
      "hit": false,
      "t": 5333.333333333333,
      "d": 83.33333333333303,
      "v": 63
    },
    {
      "midi": 45,
      "hit": false,
      "t": 5333.333333333333,
      "d": 83.33333333333303,
      "v": 64
    },
    {
      "midi": 59,
      "hit": false,
      "t": 5416.666666666666,
      "d": 83.33333333333303,
      "v": 63
    },
    {
      "midi": 47,
      "hit": false,
      "t": 5416.666666666666,
      "d": 83.33333333333303,
      "v": 64
    },
    {
      "midi": 57,
      "hit": false,
      "t": 5499.999999999999,
      "d": 250,
      "v": 63
    },
    {
      "midi": 45,
      "hit": false,
      "t": 5499.999999999999,
      "d": 250,
      "v": 64
    },
    {
      "midi": 52,
      "hit": false,
      "t": 5749.999999999999,
      "d": 250,
      "v": 63
    },
    {
      "midi": 40,
      "hit": false,
      "t": 5749.999999999999,
      "d": 250,
      "v": 64
    },
    {
      "midi": 28,
      "hit": false,
      "t": 5999.999999999999,
      "d": 250,
      "v": 64
    },
    {
      "midi": 44,
      "hit": false,
      "t": 5999.999999999999,
      "d": 250,
      "v": 64
    },
    {
      "midi": 73,
      "hit": false,
      "t": 6000,
      "d": 250,
      "v": 64
    },
    {
      "midi": 77,
      "hit": false,
      "t": 6000,
      "d": 250,
      "v": 64
    },
    {
      "midi": 85,
      "hit": false,
      "t": 6000,
      "d": 250,
      "v": 64
    },
    {
      "midi": 53,
      "hit": false,
      "t": 6249.999999999999,
      "d": 83.33333333333303,
      "v": 64
    },
    {
      "midi": 56,
      "hit": false,
      "t": 6249.999999999999,
      "d": 83.33333333333303,
      "v": 64
    },
    {
      "midi": 61,
      "hit": false,
      "t": 6249.999999999999,
      "d": 83.33333333333303,
      "v": 64
    },
    {
      "midi": 65,
      "hit": false,
      "t": 6249.999999999999,
      "d": 83.33333333333303,
      "v": 64
    },
    {
      "midi": 68,
      "hit": false,
      "t": 6250,
      "d": 83.33333333333303,
      "v": 64
    },
    {
      "midi": 73,
      "hit": false,
      "t": 6250,
      "d": 83.33333333333303,
      "v": 64
    },
    {
      "midi": 80,
      "hit": false,
      "t": 6250,
      "d": 83.33333333333303,
      "v": 64
    },
    {
      "midi": 53,
      "hit": false,
      "t": 6333.333333333332,
      "d": 83.33333333333303,
      "v": 64
    },
    {
      "midi": 56,
      "hit": false,
      "t": 6333.333333333332,
      "d": 83.33333333333303,
      "v": 64
    },
    {
      "midi": 61,
      "hit": false,
      "t": 6333.333333333332,
      "d": 83.33333333333303,
      "v": 64
    },
    {
      "midi": 65,
      "hit": false,
      "t": 6333.333333333332,
      "d": 83.33333333333303,
      "v": 64
    },
    {
      "midi": 68,
      "hit": false,
      "t": 6333.333333333333,
      "d": 83.33333333333303,
      "v": 64
    },
    {
      "midi": 73,
      "hit": false,
      "t": 6333.333333333333,
      "d": 83.33333333333303,
      "v": 64
    },
    {
      "midi": 80,
      "hit": false,
      "t": 6333.333333333333,
      "d": 83.33333333333303,
      "v": 64
    },
    {
      "midi": 53,
      "hit": false,
      "t": 6416.666666666665,
      "d": 83.33333333333303,
      "v": 64
    },
    {
      "midi": 56,
      "hit": false,
      "t": 6416.666666666665,
      "d": 83.33333333333303,
      "v": 64
    },
    {
      "midi": 61,
      "hit": false,
      "t": 6416.666666666665,
      "d": 83.33333333333303,
      "v": 64
    },
    {
      "midi": 65,
      "hit": false,
      "t": 6416.666666666665,
      "d": 83.33333333333303,
      "v": 64
    },
    {
      "midi": 68,
      "hit": false,
      "t": 6416.666666666666,
      "d": 83.33333333333303,
      "v": 64
    },
    {
      "midi": 73,
      "hit": false,
      "t": 6416.666666666666,
      "d": 83.33333333333303,
      "v": 64
    },
    {
      "midi": 80,
      "hit": false,
      "t": 6416.666666666666,
      "d": 83.33333333333303,
      "v": 64
    },
    {
      "midi": 53,
      "hit": false,
      "t": 6499.999999999998,
      "d": 250,
      "v": 64
    },
    {
      "midi": 56,
      "hit": false,
      "t": 6499.999999999998,
      "d": 250,
      "v": 64
    },
    {
      "midi": 61,
      "hit": false,
      "t": 6499.999999999998,
      "d": 250,
      "v": 64
    },
    {
      "midi": 65,
      "hit": false,
      "t": 6499.999999999998,
      "d": 250,
      "v": 64
    },
    {
      "midi": 68,
      "hit": false,
      "t": 6499.999999999999,
      "d": 250,
      "v": 64
    },
    {
      "midi": 73,
      "hit": false,
      "t": 6499.999999999999,
      "d": 250,
      "v": 64
    },
    {
      "midi": 80,
      "hit": false,
      "t": 6499.999999999999,
      "d": 250,
      "v": 64
    },
    {
      "midi": 53,
      "hit": false,
      "t": 6749.999999999998,
      "d": 250,
      "v": 64
    },
    {
      "midi": 56,
      "hit": false,
      "t": 6749.999999999998,
      "d": 250,
      "v": 64
    },
    {
      "midi": 61,
      "hit": false,
      "t": 6749.999999999998,
      "d": 250,
      "v": 64
    },
    {
      "midi": 65,
      "hit": false,
      "t": 6749.999999999998,
      "d": 250,
      "v": 64
    },
    {
      "midi": 68,
      "hit": false,
      "t": 6749.999999999999,
      "d": 250,
      "v": 64
    },
    {
      "midi": 73,
      "hit": false,
      "t": 6749.999999999999,
      "d": 250,
      "v": 64
    },
    {
      "midi": 80,
      "hit": false,
      "t": 6749.999999999999,
      "d": 250,
      "v": 64
    },
    {
      "midi": 54,
      "hit": false,
      "t": 6999.999999999998,
      "d": 250,
      "v": 64
    },
    {
      "midi": 56,
      "hit": false,
      "t": 6999.999999999998,
      "d": 250,
      "v": 64
    },
    {
      "midi": 60,
      "hit": false,
      "t": 6999.999999999998,
      "d": 250,
      "v": 64
    },
    {
      "midi": 63,
      "hit": false,
      "t": 6999.999999999998,
      "d": 250,
      "v": 64
    },
    {
      "midi": 70,
      "hit": false,
      "t": 6999.999999999999,
      "d": 125,
      "v": 64
    },
    {
      "midi": 75,
      "hit": false,
      "t": 6999.999999999999,
      "d": 125,
      "v": 64
    },
    {
      "midi": 82,
      "hit": false,
      "t": 6999.999999999999,
      "d": 125,
      "v": 64
    },
    {
      "midi": 72,
      "hit": false,
      "t": 7124.999999999999,
      "d": 125,
      "v": 64
    },
    {
      "midi": 84,
      "hit": false,
      "t": 7124.999999999999,
      "d": 125,
      "v": 64
    },
    {
      "midi": 28,
      "hit": false,
      "t": 7249.999999999998,
      "d": 250,
      "v": 64
    },
    {
      "midi": 44,
      "hit": false,
      "t": 7249.999999999998,
      "d": 250,
      "v": 64
    },
    {
      "midi": 73,
      "hit": false,
      "t": 7249.999999999999,
      "d": 125,
      "v": 64
    },
    {
      "midi": 80,
      "hit": false,
      "t": 7249.999999999999,
      "d": 125,
      "v": 64
    },
    {
      "midi": 85,
      "hit": false,
      "t": 7249.999999999999,
      "d": 125,
      "v": 64
    },
    {
      "midi": 75,
      "hit": false,
      "t": 7374.999999999999,
      "d": 125,
      "v": 64
    },
    {
      "midi": 87,
      "hit": false,
      "t": 7374.999999999999,
      "d": 125,
      "v": 64
    },
    {
      "midi": 25,
      "hit": false,
      "t": 7499.999999999998,
      "d": 375,
      "v": 64
    },
    {
      "midi": 37,
      "hit": false,
      "t": 7499.999999999998,
      "d": 375,
      "v": 64
    },
    {
      "midi": 77,
      "hit": false,
      "t": 7499.999999999999,
      "d": 375,
      "v": 64
    },
    {
      "midi": 85,
      "hit": false,
      "t": 7499.999999999999,
      "d": 375,
      "v": 64
    },
    {
      "midi": 89,
      "hit": false,
      "t": 7499.999999999999,
      "d": 375,
      "v": 64
    },
    {
      "midi": 49,
      "hit": false,
      "t": 7874.999999999998,
      "d": 125,
      "v": 64
    },
    {
      "midi": 61,
      "hit": false,
      "t": 7874.999999999998,
      "d": 125,
      "v": 64
    },
    {
      "midi": 73,
      "hit": false,
      "t": 7874.999999999999,
      "d": 125,
      "v": 64
    },
    {
      "midi": 85,
      "hit": false,
      "t": 7874.999999999999,
      "d": 125,
      "v": 64
    },
    {
      "midi": 49,
      "hit": false,
      "t": 7999.999999999998,
      "d": 250,
      "v": 64
    },
    {
      "midi": 61,
      "hit": false,
      "t": 7999.999999999998,
      "d": 250,
      "v": 64
    },
    {
      "midi": 73,
      "hit": false,
      "t": 7999.999999999999,
      "d": 250.0000000000009,
      "v": 64
    },
    {
      "midi": 85,
      "hit": false,
      "t": 7999.999999999999,
      "d": 250.0000000000009,
      "v": 64
    },
    {
      "midi": 49,
      "hit": false,
      "t": 8249.999999999998,
      "d": 125,
      "v": 64
    },
    {
      "midi": 61,
      "hit": false,
      "t": 8249.999999999998,
      "d": 125,
      "v": 64
    },
    {
      "midi": 73,
      "hit": false,
      "t": 8250,
      "d": 125,
      "v": 64
    },
    {
      "midi": 85,
      "hit": false,
      "t": 8250,
      "d": 125,
      "v": 64
    },
    {
      "midi": 49,
      "hit": false,
      "t": 8374.999999999998,
      "d": 125,
      "v": 64
    },
    {
      "midi": 61,
      "hit": false,
      "t": 8374.999999999998,
      "d": 125,
      "v": 64
    },
    {
      "midi": 73,
      "hit": false,
      "t": 8375,
      "d": 125,
      "v": 64
    },
    {
      "midi": 85,
      "hit": false,
      "t": 8375,
      "d": 125,
      "v": 64
    },
    {
      "midi": 49,
      "hit": false,
      "t": 8499.999999999998,
      "d": 125,
      "v": 64
    },
    {
      "midi": 61,
      "hit": false,
      "t": 8499.999999999998,
      "d": 125,
      "v": 64
    },
    {
      "midi": 73,
      "hit": false,
      "t": 8500,
      "d": 125,
      "v": 64
    },
    {
      "midi": 85,
      "hit": false,
      "t": 8500,
      "d": 125,
      "v": 64
    },
    {
      "midi": 49,
      "hit": false,
      "t": 8624.999999999998,
      "d": 125,
      "v": 64
    },
    {
      "midi": 61,
      "hit": false,
      "t": 8624.999999999998,
      "d": 125,
      "v": 64
    },
    {
      "midi": 73,
      "hit": false,
      "t": 8625,
      "d": 125,
      "v": 64
    },
    {
      "midi": 85,
      "hit": false,
      "t": 8625,
      "d": 125,
      "v": 64
    },
    {
      "midi": 49,
      "hit": false,
      "t": 8749.999999999998,
      "d": 125,
      "v": 64
    },
    {
      "midi": 61,
      "hit": false,
      "t": 8749.999999999998,
      "d": 125,
      "v": 64
    },
    {
      "midi": 73,
      "hit": false,
      "t": 8750,
      "d": 125,
      "v": 64
    },
    {
      "midi": 85,
      "hit": false,
      "t": 8750,
      "d": 125,
      "v": 64
    },
    {
      "midi": 49,
      "hit": false,
      "t": 8874.999999999998,
      "d": 125,
      "v": 64
    },
    {
      "midi": 61,
      "hit": false,
      "t": 8874.999999999998,
      "d": 125,
      "v": 64
    },
    {
      "midi": 73,
      "hit": false,
      "t": 8875,
      "d": 125,
      "v": 64
    },
    {
      "midi": 85,
      "hit": false,
      "t": 8875,
      "d": 125,
      "v": 64
    },
    {
      "midi": 49,
      "hit": false,
      "t": 8999.999999999998,
      "d": 250,
      "v": 64
    },
    {
      "midi": 61,
      "hit": false,
      "t": 8999.999999999998,
      "d": 250,
      "v": 64
    },
    {
      "midi": 73,
      "hit": false,
      "t": 9000,
      "d": 250,
      "v": 64
    },
    {
      "midi": 85,
      "hit": false,
      "t": 9000,
      "d": 250,
      "v": 64
    },
    {
      "midi": 50,
      "hit": false,
      "t": 9249.999999999998,
      "d": 187.5,
      "v": 64
    },
    {
      "midi": 54,
      "hit": false,
      "t": 9249.999999999998,
      "d": 187.5,
      "v": 64
    },
    {
      "midi": 59,
      "hit": false,
      "t": 9249.999999999998,
      "d": 187.5,
      "v": 64
    },
    {
      "midi": 71,
      "hit": false,
      "t": 9250,
      "d": 187.5,
      "v": 64
    },
    {
      "midi": 78,
      "hit": false,
      "t": 9250,
      "d": 187.5,
      "v": 64
    },
    {
      "midi": 83,
      "hit": false,
      "t": 9250,
      "d": 187.5,
      "v": 64
    },
    {
      "midi": 50,
      "hit": false,
      "t": 9437.499999999998,
      "d": 62.5,
      "v": 64
    },
    {
      "midi": 54,
      "hit": false,
      "t": 9437.499999999998,
      "d": 62.5,
      "v": 64
    },
    {
      "midi": 59,
      "hit": false,
      "t": 9437.499999999998,
      "d": 62.5,
      "v": 64
    },
    {
      "midi": 71,
      "hit": false,
      "t": 9437.5,
      "d": 62.5,
      "v": 64
    },
    {
      "midi": 78,
      "hit": false,
      "t": 9437.5,
      "d": 62.5,
      "v": 64
    },
    {
      "midi": 83,
      "hit": false,
      "t": 9437.5,
      "d": 62.5,
      "v": 64
    },
    {
      "midi": 50,
      "hit": false,
      "t": 9499.999999999998,
      "d": 250,
      "v": 64
    },
    {
      "midi": 54,
      "hit": false,
      "t": 9499.999999999998,
      "d": 250,
      "v": 64
    },
    {
      "midi": 59,
      "hit": false,
      "t": 9499.999999999998,
      "d": 250,
      "v": 64
    },
    {
      "midi": 71,
      "hit": false,
      "t": 9500,
      "d": 250,
      "v": 64
    },
    {
      "midi": 78,
      "hit": false,
      "t": 9500,
      "d": 250,
      "v": 64
    },
    {
      "midi": 83,
      "hit": false,
      "t": 9500,
      "d": 250,
      "v": 64
    },
    {
      "midi": 52,
      "hit": false,
      "t": 9749.999999999998,
      "d": 250,
      "v": 64
    },
    {
      "midi": 56,
      "hit": false,
      "t": 9749.999999999998,
      "d": 250,
      "v": 64
    },
    {
      "midi": 61,
      "hit": false,
      "t": 9749.999999999998,
      "d": 250,
      "v": 64
    },
    {
      "midi": 73,
      "hit": false,
      "t": 9750,
      "d": 250,
      "v": 64
    },
    {
      "midi": 85,
      "hit": false,
      "t": 9750,
      "d": 250,
      "v": 64
    },
    {
      "midi": 54,
      "hit": false,
      "t": 9999.999999999998,
      "d": 500,
      "v": 64
    },
    {
      "midi": 57,
      "hit": false,
      "t": 9999.999999999998,
      "d": 500,
      "v": 64
    },
    {
      "midi": 76,
      "hit": false,
      "t": 10000,
      "d": 250,
      "v": 64
    },
    {
      "midi": 81,
      "hit": false,
      "t": 10000,
      "d": 250,
      "v": 64
    },
    {
      "midi": 88,
      "hit": false,
      "t": 10000,
      "d": 250,
      "v": 64
    },
    {
      "midi": 64,
      "hit": false,
      "t": 10000,
      "d": 250,
      "v": 63
    },
    {
      "midi": 74,
      "hit": false,
      "t": 10250,
      "d": 125,
      "v": 64
    },
    {
      "midi": 86,
      "hit": false,
      "t": 10250,
      "d": 125,
      "v": 64
    },
    {
      "midi": 62,
      "hit": false,
      "t": 10250,
      "d": 250,
      "v": 63
    },
    {
      "midi": 73,
      "hit": false,
      "t": 10375,
      "d": 125,
      "v": 64
    },
    {
      "midi": 85,
      "hit": false,
      "t": 10375,
      "d": 125,
      "v": 64
    },
    {
      "midi": 52,
      "hit": false,
      "t": 10499.999999999998,
      "d": 250,
      "v": 64
    },
    {
      "midi": 56,
      "hit": false,
      "t": 10499.999999999998,
      "d": 250,
      "v": 64
    },
    {
      "midi": 62,
      "hit": false,
      "t": 10499.999999999998,
      "d": 250,
      "v": 64
    },
    {
      "midi": 71,
      "hit": false,
      "t": 10500,
      "d": 250,
      "v": 64
    },
    {
      "midi": 83,
      "hit": false,
      "t": 10500,
      "d": 250,
      "v": 64
    },
    {
      "midi": 52,
      "hit": false,
      "t": 10749.999999999998,
      "d": 250,
      "v": 64
    },
    {
      "midi": 56,
      "hit": false,
      "t": 10749.999999999998,
      "d": 250,
      "v": 64
    },
    {
      "midi": 62,
      "hit": false,
      "t": 10749.999999999998,
      "d": 250,
      "v": 64
    },
    {
      "midi": 64,
      "hit": false,
      "t": 10749.999999999998,
      "d": 250,
      "v": 64
    },
    {
      "midi": 71,
      "hit": false,
      "t": 10750,
      "d": 187.5,
      "v": 64
    },
    {
      "midi": 76,
      "hit": false,
      "t": 10750,
      "d": 187.5,
      "v": 64
    },
    {
      "midi": 83,
      "hit": false,
      "t": 10750,
      "d": 187.5,
      "v": 64
    },
    {
      "midi": 73,
      "hit": false,
      "t": 10937.5,
      "d": 62.5,
      "v": 64
    },
    {
      "midi": 85,
      "hit": false,
      "t": 10937.5,
      "d": 62.5,
      "v": 64
    },
    {
      "midi": 52,
      "hit": false,
      "t": 10999.999999999998,
      "d": 500,
      "v": 64
    },
    {
      "midi": 56,
      "hit": false,
      "t": 10999.999999999998,
      "d": 500,
      "v": 64
    },
    {
      "midi": 62,
      "hit": false,
      "t": 10999.999999999998,
      "d": 500,
      "v": 64
    },
    {
      "midi": 64,
      "hit": false,
      "t": 10999.999999999998,
      "d": 500,
      "v": 64
    },
    {
      "midi": 71,
      "hit": false,
      "t": 11000,
      "d": 500,
      "v": 64
    },
    {
      "midi": 76,
      "hit": false,
      "t": 11000,
      "d": 500,
      "v": 64
    },
    {
      "midi": 83,
      "hit": false,
      "t": 11000,
      "d": 500,
      "v": 64
    },
    {
      "midi": 57,
      "hit": false,
      "t": 11499.999999999998,
      "d": 250,
      "v": 64
    },
    {
      "midi": 61,
      "hit": false,
      "t": 11499.999999999998,
      "d": 250,
      "v": 64
    },
    {
      "midi": 64,
      "hit": false,
      "t": 11499.999999999998,
      "d": 250,
      "v": 64
    },
    {
      "midi": 69,
      "hit": false,
      "t": 11500,
      "d": 250,
      "v": 64
    },
    {
      "midi": 81,
      "hit": false,
      "t": 11500,
      "d": 250,
      "v": 64
    },
    {
      "midi": 35,
      "hit": false,
      "t": 11999.999999999998,
      "d": 250,
      "v": 64
    },
    {
      "midi": 47,
      "hit": false,
      "t": 11999.999999999998,
      "d": 250,
      "v": 64
    },
    {
      "midi": 69,
      "hit": false,
      "t": 12000,
      "d": 250,
      "v": 64
    },
    {
      "midi": 71,
      "hit": false,
      "t": 12000,
      "d": 250,
      "v": 64
    },
    {
      "midi": 75,
      "hit": false,
      "t": 12000,
      "d": 250,
      "v": 64
    },
    {
      "midi": 78,
      "hit": false,
      "t": 12000,
      "d": 250,
      "v": 64
    },
    {
      "midi": 83,
      "hit": false,
      "t": 12000,
      "d": 250,
      "v": 64
    },
    {
      "midi": 47,
      "hit": false,
      "t": 12374.999999999998,
      "d": 125,
      "v": 64
    },
    {
      "midi": 59,
      "hit": false,
      "t": 12374.999999999998,
      "d": 125,
      "v": 64
    },
    {
      "midi": 69,
      "hit": false,
      "t": 12375,
      "d": 125,
      "v": 64
    },
    {
      "midi": 71,
      "hit": false,
      "t": 12375,
      "d": 125,
      "v": 64
    },
    {
      "midi": 75,
      "hit": false,
      "t": 12375,
      "d": 125,
      "v": 64
    },
    {
      "midi": 78,
      "hit": false,
      "t": 12375,
      "d": 125,
      "v": 64
    },
    {
      "midi": 47,
      "hit": false,
      "t": 12499.999999999998,
      "d": 250,
      "v": 64
    },
    {
      "midi": 59,
      "hit": false,
      "t": 12499.999999999998,
      "d": 250,
      "v": 64
    },
    {
      "midi": 69,
      "hit": false,
      "t": 12500,
      "d": 250,
      "v": 64
    },
    {
      "midi": 71,
      "hit": false,
      "t": 12500,
      "d": 250,
      "v": 64
    },
    {
      "midi": 75,
      "hit": false,
      "t": 12500,
      "d": 250,
      "v": 64
    },
    {
      "midi": 78,
      "hit": false,
      "t": 12500,
      "d": 250,
      "v": 64
    },
    {
      "midi": 46,
      "hit": false,
      "t": 12749.999999999998,
      "d": 83.33333333333394,
      "v": 64
    },
    {
      "midi": 58,
      "hit": false,
      "t": 12750,
      "d": 83.33333333333394,
      "v": 64
    },
    {
      "midi": 47,
      "hit": false,
      "t": 12833.333333333332,
      "d": 83.33333333333394,
      "v": 64
    },
    {
      "midi": 59,
      "hit": false,
      "t": 12833.333333333334,
      "d": 83.33333333333394,
      "v": 64
    },
    {
      "midi": 49,
      "hit": false,
      "t": 12916.666666666666,
      "d": 83.33333333333394,
      "v": 64
    },
    {
      "midi": 61,
      "hit": false,
      "t": 12916.666666666668,
      "d": 83.33333333333394,
      "v": 64
    },
    {
      "midi": 47,
      "hit": false,
      "t": 13000,
      "d": 250,
      "v": 64
    },
    {
      "midi": 59,
      "hit": false,
      "t": 13000.000000000002,
      "d": 250,
      "v": 64
    },
    {
      "midi": 40,
      "hit": false,
      "t": 13250,
      "d": 250,
      "v": 64
    },
    {
      "midi": 52,
      "hit": false,
      "t": 13250,
      "d": 250,
      "v": 64
    },
    {
      "midi": 68,
      "hit": false,
      "t": 13250.000000000002,
      "d": 250,
      "v": 64
    },
    {
      "midi": 76,
      "hit": false,
      "t": 13250.000000000002,
      "d": 250,
      "v": 64
    },
    {
      "midi": 80,
      "hit": false,
      "t": 13250.000000000002,
      "d": 250,
      "v": 64
    },
    {
      "midi": 35,
      "hit": false,
      "t": 13500,
      "d": 250,
      "v": 64
    },
    {
      "midi": 47,
      "hit": false,
      "t": 13500,
      "d": 250,
      "v": 64
    },
    {
      "midi": 69,
      "hit": false,
      "t": 13500.000000000002,
      "d": 250,
      "v": 64
    },
    {
      "midi": 71,
      "hit": false,
      "t": 13500.000000000002,
      "d": 250,
      "v": 64
    },
    {
      "midi": 75,
      "hit": false,
      "t": 13500.000000000002,
      "d": 250,
      "v": 64
    },
    {
      "midi": 78,
      "hit": false,
      "t": 13500.000000000002,
      "d": 250,
      "v": 64
    },
    {
      "midi": 83,
      "hit": false,
      "t": 13500.000000000002,
      "d": 250,
      "v": 64
    },
    {
      "midi": 47,
      "hit": false,
      "t": 13750,
      "d": 83.33333333333394,
      "v": 64
    },
    {
      "midi": 59,
      "hit": false,
      "t": 13750,
      "d": 83.33333333333394,
      "v": 64
    },
    {
      "midi": 69,
      "hit": false,
      "t": 13750.000000000002,
      "d": 83.33333333333394,
      "v": 64
    },
    {
      "midi": 71,
      "hit": false,
      "t": 13750.000000000002,
      "d": 83.33333333333394,
      "v": 64
    },
    {
      "midi": 75,
      "hit": false,
      "t": 13750.000000000002,
      "d": 83.33333333333394,
      "v": 64
    },
    {
      "midi": 78,
      "hit": false,
      "t": 13750.000000000002,
      "d": 83.33333333333394,
      "v": 64
    },
    {
      "midi": 47,
      "hit": false,
      "t": 13833.333333333334,
      "d": 83.33333333333394,
      "v": 64
    },
    {
      "midi": 59,
      "hit": false,
      "t": 13833.333333333334,
      "d": 83.33333333333394,
      "v": 64
    },
    {
      "midi": 69,
      "hit": false,
      "t": 13833.333333333336,
      "d": 83.33333333333394,
      "v": 64
    },
    {
      "midi": 71,
      "hit": false,
      "t": 13833.333333333336,
      "d": 83.33333333333394,
      "v": 64
    },
    {
      "midi": 75,
      "hit": false,
      "t": 13833.333333333336,
      "d": 83.33333333333394,
      "v": 64
    },
    {
      "midi": 78,
      "hit": false,
      "t": 13833.333333333336,
      "d": 83.33333333333394,
      "v": 64
    },
    {
      "midi": 47,
      "hit": false,
      "t": 13916.666666666668,
      "d": 83.33333333333394,
      "v": 64
    },
    {
      "midi": 59,
      "hit": false,
      "t": 13916.666666666668,
      "d": 83.33333333333394,
      "v": 64
    },
    {
      "midi": 69,
      "hit": false,
      "t": 13916.66666666667,
      "d": 83.33333333333394,
      "v": 64
    },
    {
      "midi": 71,
      "hit": false,
      "t": 13916.66666666667,
      "d": 83.33333333333394,
      "v": 64
    },
    {
      "midi": 75,
      "hit": false,
      "t": 13916.66666666667,
      "d": 83.33333333333394,
      "v": 64
    },
    {
      "midi": 78,
      "hit": false,
      "t": 13916.66666666667,
      "d": 83.33333333333394,
      "v": 64
    },
    {
      "midi": 47,
      "hit": false,
      "t": 14000.000000000002,
      "d": 250,
      "v": 64
    },
    {
      "midi": 59,
      "hit": false,
      "t": 14000.000000000002,
      "d": 250,
      "v": 64
    },
    {
      "midi": 69,
      "hit": false,
      "t": 14000.000000000004,
      "d": 250,
      "v": 64
    },
    {
      "midi": 71,
      "hit": false,
      "t": 14000.000000000004,
      "d": 250,
      "v": 64
    },
    {
      "midi": 75,
      "hit": false,
      "t": 14000.000000000004,
      "d": 250,
      "v": 64
    },
    {
      "midi": 78,
      "hit": false,
      "t": 14000.000000000004,
      "d": 250,
      "v": 64
    },
    {
      "midi": 46,
      "hit": false,
      "t": 14250.000000000002,
      "d": 83.33333333333394,
      "v": 64
    },
    {
      "midi": 58,
      "hit": false,
      "t": 14250.000000000004,
      "d": 83.33333333333394,
      "v": 64
    },
    {
      "midi": 47,
      "hit": false,
      "t": 14333.333333333336,
      "d": 83.33333333333394,
      "v": 64
    },
    {
      "midi": 59,
      "hit": false,
      "t": 14333.333333333338,
      "d": 83.33333333333394,
      "v": 64
    },
    {
      "midi": 49,
      "hit": false,
      "t": 14416.66666666667,
      "d": 83.33333333333394,
      "v": 64
    },
    {
      "midi": 61,
      "hit": false,
      "t": 14416.666666666672,
      "d": 83.33333333333394,
      "v": 64
    },
    {
      "midi": 47,
      "hit": false,
      "t": 14500.000000000004,
      "d": 250,
      "v": 64
    },
    {
      "midi": 59,
      "hit": false,
      "t": 14500.000000000005,
      "d": 250,
      "v": 64
    },
    {
      "midi": 35,
      "hit": false,
      "t": 14750.000000000004,
      "d": 250,
      "v": 64
    },
    {
      "midi": 47,
      "hit": false,
      "t": 14750.000000000004,
      "d": 250,
      "v": 64
    },
    {
      "midi": 68,
      "hit": false,
      "t": 14750.000000000005,
      "d": 250,
      "v": 64
    },
    {
      "midi": 75,
      "hit": false,
      "t": 14750.000000000005,
      "d": 250,
      "v": 64
    },
    {
      "midi": 80,
      "hit": false,
      "t": 14750.000000000005,
      "d": 250,
      "v": 64
    },
    {
      "midi": 37,
      "hit": false,
      "t": 15000.000000000004,
      "d": 250,
      "v": 64
    },
    {
      "midi": 49,
      "hit": false,
      "t": 15000.000000000004,
      "d": 250,
      "v": 64
    },
    {
      "midi": 64,
      "hit": false,
      "t": 15000.000000000005,
      "d": 250,
      "v": 64
    },
    {
      "midi": 68,
      "hit": false,
      "t": 15000.000000000005,
      "d": 250,
      "v": 64
    },
    {
      "midi": 73,
      "hit": false,
      "t": 15000.000000000005,
      "d": 250,
      "v": 64
    },
    {
      "midi": 76,
      "hit": false,
      "t": 15000.000000000005,
      "d": 250,
      "v": 64
    },
    {
      "midi": 37,
      "hit": false,
      "t": 15250.000000000004,
      "d": 125,
      "v": 64
    },
    {
      "midi": 49,
      "hit": false,
      "t": 15250.000000000004,
      "d": 125,
      "v": 64
    },
    {
      "midi": 64,
      "hit": false,
      "t": 15250.000000000005,
      "d": 125,
      "v": 64
    },
    {
      "midi": 68,
      "hit": false,
      "t": 15250.000000000005,
      "d": 125,
      "v": 64
    },
    {
      "midi": 73,
      "hit": false,
      "t": 15250.000000000005,
      "d": 125,
      "v": 64
    },
    {
      "midi": 76,
      "hit": false,
      "t": 15250.000000000005,
      "d": 125,
      "v": 64
    },
    {
      "midi": 37,
      "hit": false,
      "t": 15375.000000000004,
      "d": 125,
      "v": 64
    },
    {
      "midi": 49,
      "hit": false,
      "t": 15375.000000000004,
      "d": 125,
      "v": 64
    },
    {
      "midi": 64,
      "hit": false,
      "t": 15375.000000000005,
      "d": 125,
      "v": 64
    },
    {
      "midi": 68,
      "hit": false,
      "t": 15375.000000000005,
      "d": 125,
      "v": 64
    },
    {
      "midi": 73,
      "hit": false,
      "t": 15375.000000000005,
      "d": 125,
      "v": 64
    },
    {
      "midi": 76,
      "hit": false,
      "t": 15375.000000000005,
      "d": 125,
      "v": 64
    },
    {
      "midi": 30,
      "hit": false,
      "t": 15500.000000000004,
      "d": 250,
      "v": 64
    },
    {
      "midi": 42,
      "hit": false,
      "t": 15500.000000000004,
      "d": 250,
      "v": 64
    },
    {
      "midi": 69,
      "hit": false,
      "t": 15500.000000000005,
      "d": 250,
      "v": 64
    },
    {
      "midi": 73,
      "hit": false,
      "t": 15500.000000000005,
      "d": 250,
      "v": 64
    },
    {
      "midi": 81,
      "hit": false,
      "t": 15500.000000000005,
      "d": 250,
      "v": 64
    },
    {
      "midi": 32,
      "hit": false,
      "t": 15750.000000000004,
      "d": 250,
      "v": 64
    },
    {
      "midi": 44,
      "hit": false,
      "t": 15750.000000000004,
      "d": 250,
      "v": 64
    },
    {
      "midi": 69,
      "hit": false,
      "t": 15750.000000000005,
      "d": 250,
      "v": 64
    },
    {
      "midi": 73,
      "hit": false,
      "t": 15750.000000000005,
      "d": 250,
      "v": 64
    },
    {
      "midi": 80,
      "hit": false,
      "t": 15750.000000000005,
      "d": 250,
      "v": 64
    },
    {
      "midi": 33,
      "hit": false,
      "t": 16000.000000000004,
      "d": 250,
      "v": 64
    },
    {
      "midi": 45,
      "hit": false,
      "t": 16000.000000000004,
      "d": 250,
      "v": 64
    },
    {
      "midi": 66,
      "hit": false,
      "t": 16000.000000000005,
      "d": 250,
      "v": 64
    },
    {
      "midi": 73,
      "hit": false,
      "t": 16000.000000000005,
      "d": 250,
      "v": 64
    },
    {
      "midi": 78,
      "hit": false,
      "t": 16000.000000000005,
      "d": 250,
      "v": 64
    },
    {
      "midi": 32,
      "hit": false,
      "t": 16250.000000000004,
      "d": 250,
      "v": 64
    },
    {
      "midi": 44,
      "hit": false,
      "t": 16250.000000000004,
      "d": 250,
      "v": 64
    },
    {
      "midi": 66,
      "hit": false,
      "t": 16250.000000000005,
      "d": 250.00000000000182,
      "v": 64
    },
    {
      "midi": 68,
      "hit": false,
      "t": 16250.000000000005,
      "d": 250.00000000000182,
      "v": 64
    },
    {
      "midi": 72,
      "hit": false,
      "t": 16250.000000000005,
      "d": 250.00000000000182,
      "v": 64
    },
    {
      "midi": 75,
      "hit": false,
      "t": 16250.000000000005,
      "d": 250.00000000000182,
      "v": 64
    },
    {
      "midi": 80,
      "hit": false,
      "t": 16250.000000000005,
      "d": 250.00000000000182,
      "v": 64
    },
    {
      "midi": 64,
      "hit": false,
      "t": 16500,
      "d": 250,
      "v": 63
    },
    {
      "midi": 68,
      "hit": false,
      "t": 16500,
      "d": 250,
      "v": 63
    },
    {
      "midi": 73,
      "hit": false,
      "t": 16500,
      "d": 250,
      "v": 63
    },
    {
      "midi": 76,
      "hit": false,
      "t": 16500,
      "d": 250,
      "v": 63
    },
    {
      "midi": 37,
      "hit": false,
      "t": 16500,
      "d": 250,
      "v": 63
    },
    {
      "midi": 49,
      "hit": false,
      "t": 16500,
      "d": 250,
      "v": 63
    },
    {
      "midi": 61,
      "hit": false,
      "t": 16750,
      "d": 250,
      "v": 63
    },
    {
      "midi": 63,
      "hit": false,
      "t": 16750,
      "d": 250,
      "v": 63
    },
    {
      "midi": 67,
      "hit": false,
      "t": 16750,
      "d": 250,
      "v": 63
    },
    {
      "midi": 70,
      "hit": false,
      "t": 16750,
      "d": 250,
      "v": 63
    },
    {
      "midi": 73,
      "hit": false,
      "t": 16750,
      "d": 250,
      "v": 63
    },
    {
      "midi": 75,
      "hit": false,
      "t": 16750,
      "d": 250,
      "v": 63
    },
    {
      "midi": 39,
      "hit": false,
      "t": 16750,
      "d": 250,
      "v": 63
    },
    {
      "midi": 51,
      "hit": false,
      "t": 16750,
      "d": 250,
      "v": 63
    },
    {
      "midi": 60,
      "hit": false,
      "t": 17000,
      "d": 250,
      "v": 63
    },
    {
      "midi": 63,
      "hit": false,
      "t": 17000,
      "d": 250,
      "v": 63
    },
    {
      "midi": 67,
      "hit": false,
      "t": 17000,
      "d": 250,
      "v": 63
    },
    {
      "midi": 72,
      "hit": false,
      "t": 17000,
      "d": 250,
      "v": 63
    },
    {
      "midi": 44,
      "hit": false,
      "t": 17000,
      "d": 250,
      "v": 63
    },
    {
      "midi": 56,
      "hit": false,
      "t": 17000,
      "d": 250,
      "v": 63
    },
    {
      "midi": 63,
      "hit": false,
      "t": 17250,
      "d": 125,
      "v": 63
    },
    {
      "midi": 75,
      "hit": false,
      "t": 17250,
      "d": 125,
      "v": 63
    },
    {
      "midi": 39,
      "hit": false,
      "t": 17250,
      "d": 125,
      "v": 63
    },
    {
      "midi": 51,
      "hit": false,
      "t": 17250,
      "d": 125,
      "v": 63
    },
    {
      "midi": 63,
      "hit": false,
      "t": 17375,
      "d": 125,
      "v": 63
    },
    {
      "midi": 75,
      "hit": false,
      "t": 17375,
      "d": 125,
      "v": 63
    },
    {
      "midi": 39,
      "hit": false,
      "t": 17375,
      "d": 125,
      "v": 63
    },
    {
      "midi": 51,
      "hit": false,
      "t": 17375,
      "d": 125,
      "v": 63
    },
    {
      "midi": 63,
      "hit": false,
      "t": 17500,
      "d": 125,
      "v": 63
    },
    {
      "midi": 75,
      "hit": false,
      "t": 17500,
      "d": 125,
      "v": 63
    },
    {
      "midi": 39,
      "hit": false,
      "t": 17500,
      "d": 125,
      "v": 63
    },
    {
      "midi": 51,
      "hit": false,
      "t": 17500,
      "d": 125,
      "v": 63
    },
    {
      "midi": 63,
      "hit": false,
      "t": 17625,
      "d": 125,
      "v": 63
    },
    {
      "midi": 75,
      "hit": false,
      "t": 17625,
      "d": 125,
      "v": 63
    },
    {
      "midi": 39,
      "hit": false,
      "t": 17625,
      "d": 125,
      "v": 63
    },
    {
      "midi": 51,
      "hit": false,
      "t": 17625,
      "d": 125,
      "v": 63
    },
    {
      "midi": 63,
      "hit": false,
      "t": 17750,
      "d": 125,
      "v": 63
    },
    {
      "midi": 75,
      "hit": false,
      "t": 17750,
      "d": 125,
      "v": 63
    },
    {
      "midi": 39,
      "hit": false,
      "t": 17750,
      "d": 125,
      "v": 63
    },
    {
      "midi": 51,
      "hit": false,
      "t": 17750,
      "d": 125,
      "v": 63
    },
    {
      "midi": 63,
      "hit": false,
      "t": 17875,
      "d": 125,
      "v": 63
    },
    {
      "midi": 75,
      "hit": false,
      "t": 17875,
      "d": 125,
      "v": 63
    },
    {
      "midi": 39,
      "hit": false,
      "t": 17875,
      "d": 125,
      "v": 63
    },
    {
      "midi": 51,
      "hit": false,
      "t": 17875,
      "d": 125,
      "v": 63
    },
    {
      "midi": 73,
      "hit": false,
      "t": 18000,
      "d": 250,
      "v": 63
    },
    {
      "midi": 75,
      "hit": false,
      "t": 18000,
      "d": 250,
      "v": 63
    },
    {
      "midi": 79,
      "hit": false,
      "t": 18000,
      "d": 250,
      "v": 63
    },
    {
      "midi": 82,
      "hit": false,
      "t": 18000,
      "d": 250,
      "v": 63
    },
    {
      "midi": 87,
      "hit": false,
      "t": 18000,
      "d": 250,
      "v": 63
    },
    {
      "midi": 27,
      "hit": false,
      "t": 18000,
      "d": 250,
      "v": 63
    },
    {
      "midi": 39,
      "hit": false,
      "t": 18000,
      "d": 250,
      "v": 63
    },
    {
      "midi": 70,
      "hit": false,
      "t": 18375,
      "d": 125,
      "v": 63
    },
    {
      "midi": 73,
      "hit": false,
      "t": 18375,
      "d": 125,
      "v": 63
    },
    {
      "midi": 75,
      "hit": false,
      "t": 18375,
      "d": 125,
      "v": 63
    },
    {
      "midi": 82,
      "hit": false,
      "t": 18375,
      "d": 125,
      "v": 63
    },
    {
      "midi": 55,
      "hit": false,
      "t": 18375,
      "d": 125,
      "v": 63
    },
    {
      "midi": 58,
      "hit": false,
      "t": 18375,
      "d": 125,
      "v": 63
    },
    {
      "midi": 61,
      "hit": false,
      "t": 18375,
      "d": 125,
      "v": 63
    },
    {
      "midi": 63,
      "hit": false,
      "t": 18375,
      "d": 125,
      "v": 63
    },
    {
      "midi": 67,
      "hit": false,
      "t": 18375,
      "d": 125,
      "v": 63
    },
    {
      "midi": 70,
      "hit": false,
      "t": 18500,
      "d": 250,
      "v": 63
    },
    {
      "midi": 73,
      "hit": false,
      "t": 18500,
      "d": 250,
      "v": 63
    },
    {
      "midi": 75,
      "hit": false,
      "t": 18500,
      "d": 250,
      "v": 63
    },
    {
      "midi": 82,
      "hit": false,
      "t": 18500,
      "d": 250,
      "v": 63
    },
    {
      "midi": 55,
      "hit": false,
      "t": 18500,
      "d": 250,
      "v": 63
    },
    {
      "midi": 58,
      "hit": false,
      "t": 18500,
      "d": 250,
      "v": 63
    },
    {
      "midi": 61,
      "hit": false,
      "t": 18500,
      "d": 250,
      "v": 63
    },
    {
      "midi": 63,
      "hit": false,
      "t": 18500,
      "d": 250,
      "v": 63
    },
    {
      "midi": 67,
      "hit": false,
      "t": 18500,
      "d": 250,
      "v": 63
    },
    {
      "midi": 62,
      "hit": false,
      "t": 18750,
      "d": 83.33333333333212,
      "v": 63
    },
    {
      "midi": 50,
      "hit": false,
      "t": 18750,
      "d": 83.33333333333212,
      "v": 63
    },
    {
      "midi": 63,
      "hit": false,
      "t": 18833.333333333332,
      "d": 83.33333333333212,
      "v": 63
    },
    {
      "midi": 51,
      "hit": false,
      "t": 18833.333333333332,
      "d": 83.33333333333212,
      "v": 63
    },
    {
      "midi": 65,
      "hit": false,
      "t": 18916.666666666664,
      "d": 83.33333333333212,
      "v": 63
    },
    {
      "midi": 53,
      "hit": false,
      "t": 18916.666666666664,
      "d": 83.33333333333212,
      "v": 63
    },
    {
      "midi": 63,
      "hit": false,
      "t": 18999.999999999996,
      "d": 250,
      "v": 63
    },
    {
      "midi": 51,
      "hit": false,
      "t": 18999.999999999996,
      "d": 250,
      "v": 63
    },
    {
      "midi": 72,
      "hit": false,
      "t": 19249.999999999996,
      "d": 250,
      "v": 63
    },
    {
      "midi": 75,
      "hit": false,
      "t": 19249.999999999996,
      "d": 250,
      "v": 63
    },
    {
      "midi": 80,
      "hit": false,
      "t": 19249.999999999996,
      "d": 250,
      "v": 63
    },
    {
      "midi": 84,
      "hit": false,
      "t": 19249.999999999996,
      "d": 250,
      "v": 63
    },
    {
      "midi": 32,
      "hit": false,
      "t": 19249.999999999996,
      "d": 250,
      "v": 63
    },
    {
      "midi": 44,
      "hit": false,
      "t": 19249.999999999996,
      "d": 250,
      "v": 63
    },
    {
      "midi": 73,
      "hit": false,
      "t": 19499.999999999996,
      "d": 250,
      "v": 63
    },
    {
      "midi": 75,
      "hit": false,
      "t": 19499.999999999996,
      "d": 250,
      "v": 63
    },
    {
      "midi": 79,
      "hit": false,
      "t": 19499.999999999996,
      "d": 250,
      "v": 63
    },
    {
      "midi": 82,
      "hit": false,
      "t": 19499.999999999996,
      "d": 250,
      "v": 63
    },
    {
      "midi": 87,
      "hit": false,
      "t": 19499.999999999996,
      "d": 250,
      "v": 63
    },
    {
      "midi": 29,
      "hit": false,
      "t": 19499.999999999996,
      "d": 250,
      "v": 63
    },
    {
      "midi": 39,
      "hit": false,
      "t": 19499.999999999996,
      "d": 250,
      "v": 63
    },
    {
      "midi": 70,
      "hit": false,
      "t": 19749.999999999996,
      "d": 83.33333333333212,
      "v": 63
    },
    {
      "midi": 73,
      "hit": false,
      "t": 19749.999999999996,
      "d": 83.33333333333212,
      "v": 63
    },
    {
      "midi": 75,
      "hit": false,
      "t": 19749.999999999996,
      "d": 83.33333333333212,
      "v": 63
    },
    {
      "midi": 82,
      "hit": false,
      "t": 19749.999999999996,
      "d": 83.33333333333212,
      "v": 63
    },
    {
      "midi": 55,
      "hit": false,
      "t": 19749.999999999996,
      "d": 83.33333333333212,
      "v": 63
    },
    {
      "midi": 58,
      "hit": false,
      "t": 19749.999999999996,
      "d": 83.33333333333212,
      "v": 63
    },
    {
      "midi": 61,
      "hit": false,
      "t": 19749.999999999996,
      "d": 83.33333333333212,
      "v": 63
    },
    {
      "midi": 63,
      "hit": false,
      "t": 19749.999999999996,
      "d": 83.33333333333212,
      "v": 63
    },
    {
      "midi": 67,
      "hit": false,
      "t": 19749.999999999996,
      "d": 83.33333333333212,
      "v": 63
    },
    {
      "midi": 70,
      "hit": false,
      "t": 19833.33333333333,
      "d": 83.33333333333212,
      "v": 63
    },
    {
      "midi": 73,
      "hit": false,
      "t": 19833.33333333333,
      "d": 83.33333333333212,
      "v": 63
    },
    {
      "midi": 75,
      "hit": false,
      "t": 19833.33333333333,
      "d": 83.33333333333212,
      "v": 63
    },
    {
      "midi": 82,
      "hit": false,
      "t": 19833.33333333333,
      "d": 83.33333333333212,
      "v": 63
    },
    {
      "midi": 55,
      "hit": false,
      "t": 19833.33333333333,
      "d": 83.33333333333212,
      "v": 63
    },
    {
      "midi": 58,
      "hit": false,
      "t": 19833.33333333333,
      "d": 83.33333333333212,
      "v": 63
    },
    {
      "midi": 61,
      "hit": false,
      "t": 19833.33333333333,
      "d": 83.33333333333212,
      "v": 63
    },
    {
      "midi": 63,
      "hit": false,
      "t": 19833.33333333333,
      "d": 83.33333333333212,
      "v": 63
    },
    {
      "midi": 67,
      "hit": false,
      "t": 19833.33333333333,
      "d": 83.33333333333212,
      "v": 63
    },
    {
      "midi": 70,
      "hit": false,
      "t": 19916.66666666666,
      "d": 83.33333333333212,
      "v": 63
    },
    {
      "midi": 73,
      "hit": false,
      "t": 19916.66666666666,
      "d": 83.33333333333212,
      "v": 63
    },
    {
      "midi": 75,
      "hit": false,
      "t": 19916.66666666666,
      "d": 83.33333333333212,
      "v": 63
    },
    {
      "midi": 82,
      "hit": false,
      "t": 19916.66666666666,
      "d": 83.33333333333212,
      "v": 63
    },
    {
      "midi": 55,
      "hit": false,
      "t": 19916.66666666666,
      "d": 83.33333333333212,
      "v": 63
    },
    {
      "midi": 58,
      "hit": false,
      "t": 19916.66666666666,
      "d": 83.33333333333212,
      "v": 63
    },
    {
      "midi": 61,
      "hit": false,
      "t": 19916.66666666666,
      "d": 83.33333333333212,
      "v": 63
    },
    {
      "midi": 63,
      "hit": false,
      "t": 19916.66666666666,
      "d": 83.33333333333212,
      "v": 63
    },
    {
      "midi": 67,
      "hit": false,
      "t": 19916.66666666666,
      "d": 83.33333333333212,
      "v": 63
    },
    {
      "midi": 70,
      "hit": false,
      "t": 19999.999999999993,
      "d": 250,
      "v": 63
    },
    {
      "midi": 73,
      "hit": false,
      "t": 19999.999999999993,
      "d": 250,
      "v": 63
    },
    {
      "midi": 75,
      "hit": false,
      "t": 19999.999999999993,
      "d": 250,
      "v": 63
    },
    {
      "midi": 82,
      "hit": false,
      "t": 19999.999999999993,
      "d": 250,
      "v": 63
    },
    {
      "midi": 55,
      "hit": false,
      "t": 19999.999999999993,
      "d": 250,
      "v": 63
    },
    {
      "midi": 58,
      "hit": false,
      "t": 19999.999999999993,
      "d": 250,
      "v": 63
    },
    {
      "midi": 61,
      "hit": false,
      "t": 19999.999999999993,
      "d": 250,
      "v": 63
    },
    {
      "midi": 63,
      "hit": false,
      "t": 19999.999999999993,
      "d": 250,
      "v": 63
    },
    {
      "midi": 67,
      "hit": false,
      "t": 19999.999999999993,
      "d": 250,
      "v": 63
    },
    {
      "midi": 62,
      "hit": false,
      "t": 20249.999999999993,
      "d": 83.33333333333212,
      "v": 63
    },
    {
      "midi": 50,
      "hit": false,
      "t": 20249.999999999993,
      "d": 83.33333333333212,
      "v": 63
    },
    {
      "midi": 63,
      "hit": false,
      "t": 20333.333333333325,
      "d": 83.33333333333212,
      "v": 63
    },
    {
      "midi": 51,
      "hit": false,
      "t": 20333.333333333325,
      "d": 83.33333333333212,
      "v": 63
    },
    {
      "midi": 65,
      "hit": false,
      "t": 20416.666666666657,
      "d": 83.33333333333212,
      "v": 63
    },
    {
      "midi": 53,
      "hit": false,
      "t": 20416.666666666657,
      "d": 83.33333333333212,
      "v": 63
    },
    {
      "midi": 63,
      "hit": false,
      "t": 20499.99999999999,
      "d": 250,
      "v": 63
    },
    {
      "midi": 51,
      "hit": false,
      "t": 20499.99999999999,
      "d": 250,
      "v": 63
    },
    {
      "midi": 72,
      "hit": false,
      "t": 20749.99999999999,
      "d": 250,
      "v": 63
    },
    {
      "midi": 75,
      "hit": false,
      "t": 20749.99999999999,
      "d": 250,
      "v": 63
    },
    {
      "midi": 80,
      "hit": false,
      "t": 20749.99999999999,
      "d": 250,
      "v": 63
    },
    {
      "midi": 84,
      "hit": false,
      "t": 20749.99999999999,
      "d": 250,
      "v": 63
    },
    {
      "midi": 32,
      "hit": false,
      "t": 20749.99999999999,
      "d": 250,
      "v": 63
    },
    {
      "midi": 44,
      "hit": false,
      "t": 20749.99999999999,
      "d": 250,
      "v": 63
    },
    {
      "midi": 33,
      "hit": false,
      "t": 21000.000000000004,
      "d": 250,
      "v": 64
    },
    {
      "midi": 45,
      "hit": false,
      "t": 21000.000000000004,
      "d": 250,
      "v": 64
    },
    {
      "midi": 73,
      "hit": false,
      "t": 21000.000000000007,
      "d": 250,
      "v": 64
    },
    {
      "midi": 78,
      "hit": false,
      "t": 21000.000000000007,
      "d": 250,
      "v": 64
    },
    {
      "midi": 85,
      "hit": false,
      "t": 21000.000000000007,
      "d": 250,
      "v": 64
    },
    {
      "midi": 45,
      "hit": false,
      "t": 21250.000000000004,
      "d": 83.33333333333212,
      "v": 64
    },
    {
      "midi": 57,
      "hit": false,
      "t": 21250.000000000004,
      "d": 83.33333333333212,
      "v": 64
    },
    {
      "midi": 66,
      "hit": false,
      "t": 21250.000000000007,
      "d": 83.33333333333212,
      "v": 64
    },
    {
      "midi": 73,
      "hit": false,
      "t": 21250.000000000007,
      "d": 83.33333333333212,
      "v": 64
    },
    {
      "midi": 78,
      "hit": false,
      "t": 21250.000000000007,
      "d": 83.33333333333212,
      "v": 64
    },
    {
      "midi": 45,
      "hit": false,
      "t": 21333.333333333336,
      "d": 83.33333333333212,
      "v": 64
    },
    {
      "midi": 57,
      "hit": false,
      "t": 21333.333333333336,
      "d": 83.33333333333212,
      "v": 64
    },
    {
      "midi": 66,
      "hit": false,
      "t": 21333.33333333334,
      "d": 83.33333333333212,
      "v": 64
    },
    {
      "midi": 73,
      "hit": false,
      "t": 21333.33333333334,
      "d": 83.33333333333212,
      "v": 64
    },
    {
      "midi": 78,
      "hit": false,
      "t": 21333.33333333334,
      "d": 83.33333333333212,
      "v": 64
    },
    {
      "midi": 45,
      "hit": false,
      "t": 21416.666666666668,
      "d": 83.33333333333212,
      "v": 64
    },
    {
      "midi": 57,
      "hit": false,
      "t": 21416.666666666668,
      "d": 83.33333333333212,
      "v": 64
    },
    {
      "midi": 66,
      "hit": false,
      "t": 21416.66666666667,
      "d": 83.33333333333212,
      "v": 64
    },
    {
      "midi": 73,
      "hit": false,
      "t": 21416.66666666667,
      "d": 83.33333333333212,
      "v": 64
    },
    {
      "midi": 78,
      "hit": false,
      "t": 21416.66666666667,
      "d": 83.33333333333212,
      "v": 64
    },
    {
      "midi": 45,
      "hit": false,
      "t": 21500,
      "d": 250,
      "v": 64
    },
    {
      "midi": 57,
      "hit": false,
      "t": 21500,
      "d": 250,
      "v": 64
    },
    {
      "midi": 66,
      "hit": false,
      "t": 21500.000000000004,
      "d": 250,
      "v": 64
    },
    {
      "midi": 73,
      "hit": false,
      "t": 21500.000000000004,
      "d": 250,
      "v": 64
    },
    {
      "midi": 78,
      "hit": false,
      "t": 21500.000000000004,
      "d": 250,
      "v": 64
    },
    {
      "midi": 44,
      "hit": false,
      "t": 21750,
      "d": 250,
      "v": 64
    },
    {
      "midi": 56,
      "hit": false,
      "t": 21750,
      "d": 250,
      "v": 64
    },
    {
      "midi": 68,
      "hit": false,
      "t": 21750.000000000004,
      "d": 250,
      "v": 64
    },
    {
      "midi": 73,
      "hit": false,
      "t": 21750.000000000004,
      "d": 250,
      "v": 64
    },
    {
      "midi": 76,
      "hit": false,
      "t": 21750.000000000004,
      "d": 250,
      "v": 64
    },
    {
      "midi": 80,
      "hit": false,
      "t": 21750.000000000004,
      "d": 250,
      "v": 64
    },
    {
      "midi": 42,
      "hit": false,
      "t": 22000,
      "d": 250,
      "v": 64
    },
    {
      "midi": 54,
      "hit": false,
      "t": 22000,
      "d": 250,
      "v": 64
    },
    {
      "midi": 69,
      "hit": false,
      "t": 22000.000000000004,
      "d": 250,
      "v": 64
    },
    {
      "midi": 73,
      "hit": false,
      "t": 22000.000000000004,
      "d": 250,
      "v": 64
    },
    {
      "midi": 76,
      "hit": false,
      "t": 22000.000000000004,
      "d": 250,
      "v": 64
    },
    {
      "midi": 81,
      "hit": false,
      "t": 22000.000000000004,
      "d": 250,
      "v": 64
    },
    {
      "midi": 35,
      "hit": false,
      "t": 22250,
      "d": 250,
      "v": 64
    },
    {
      "midi": 47,
      "hit": false,
      "t": 22250,
      "d": 250,
      "v": 64
    },
    {
      "midi": 69,
      "hit": false,
      "t": 22250.000000000004,
      "d": 250,
      "v": 64
    },
    {
      "midi": 71,
      "hit": false,
      "t": 22250.000000000004,
      "d": 250,
      "v": 64
    },
    {
      "midi": 75,
      "hit": false,
      "t": 22250.000000000004,
      "d": 250,
      "v": 64
    },
    {
      "midi": 83,
      "hit": false,
      "t": 22250.000000000004,
      "d": 250,
      "v": 64
    },
    {
      "midi": 40,
      "hit": false,
      "t": 22499.99999999999,
      "d": 250,
      "v": 63
    },
    {
      "midi": 52,
      "hit": false,
      "t": 22499.99999999999,
      "d": 250,
      "v": 63
    },
    {
      "midi": 64,
      "hit": false,
      "t": 22500.000000000004,
      "d": 250,
      "v": 64
    },
    {
      "midi": 68,
      "hit": false,
      "t": 22500.000000000004,
      "d": 250,
      "v": 64
    },
    {
      "midi": 76,
      "hit": false,
      "t": 22500.000000000004,
      "d": 250,
      "v": 64
    },
    {
      "midi": 37,
      "hit": false,
      "t": 22749.99999999999,
      "d": 250,
      "v": 63
    },
    {
      "midi": 49,
      "hit": false,
      "t": 22749.99999999999,
      "d": 250,
      "v": 63
    },
    {
      "midi": 64,
      "hit": false,
      "t": 22750.000000000004,
      "d": 187.5,
      "v": 64
    },
    {
      "midi": 69,
      "hit": false,
      "t": 22750.000000000004,
      "d": 187.5,
      "v": 64
    },
    {
      "midi": 76,
      "hit": false,
      "t": 22750.000000000004,
      "d": 187.5,
      "v": 64
    },
    {
      "midi": 64,
      "hit": false,
      "t": 22937.500000000004,
      "d": 62.5,
      "v": 64
    },
    {
      "midi": 76,
      "hit": false,
      "t": 22937.500000000004,
      "d": 62.5,
      "v": 64
    },
    {
      "midi": 42,
      "hit": false,
      "t": 22999.99999999999,
      "d": 250,
      "v": 63
    },
    {
      "midi": 54,
      "hit": false,
      "t": 22999.99999999999,
      "d": 250,
      "v": 63
    },
    {
      "midi": 64,
      "hit": false,
      "t": 23000.000000000004,
      "d": 250,
      "v": 64
    },
    {
      "midi": 69,
      "hit": false,
      "t": 23000.000000000004,
      "d": 250,
      "v": 64
    },
    {
      "midi": 76,
      "hit": false,
      "t": 23000.000000000004,
      "d": 250,
      "v": 64
    },
    {
      "midi": 62,
      "hit": false,
      "t": 23249.99999999999,
      "d": 125,
      "v": 63
    },
    {
      "midi": 74,
      "hit": false,
      "t": 23249.99999999999,
      "d": 125,
      "v": 63
    },
    {
      "midi": 35,
      "hit": false,
      "t": 23249.99999999999,
      "d": 250,
      "v": 63
    },
    {
      "midi": 47,
      "hit": false,
      "t": 23249.99999999999,
      "d": 250,
      "v": 63
    },
    {
      "midi": 69,
      "hit": false,
      "t": 23250.000000000004,
      "d": 250,
      "v": 64
    },
    {
      "midi": 61,
      "hit": false,
      "t": 23374.99999999999,
      "d": 125,
      "v": 63
    },
    {
      "midi": 73,
      "hit": false,
      "t": 23374.99999999999,
      "d": 125,
      "v": 63
    },
    {
      "midi": 40,
      "hit": false,
      "t": 23499.99999999999,
      "d": 250,
      "v": 63
    },
    {
      "midi": 52,
      "hit": false,
      "t": 23499.99999999999,
      "d": 250,
      "v": 63
    },
    {
      "midi": 62,
      "hit": false,
      "t": 23500.000000000004,
      "d": 250,
      "v": 64
    },
    {
      "midi": 64,
      "hit": false,
      "t": 23500.000000000004,
      "d": 250,
      "v": 64
    },
    {
      "midi": 68,
      "hit": false,
      "t": 23500.000000000004,
      "d": 250,
      "v": 64
    },
    {
      "midi": 74,
      "hit": false,
      "t": 23500.000000000004,
      "d": 250,
      "v": 64
    },
    {
      "midi": 73,
      "hit": false,
      "t": 23749.99999999999,
      "d": 125,
      "v": 63
    },
    {
      "midi": 28,
      "hit": false,
      "t": 23749.99999999999,
      "d": 250,
      "v": 63
    },
    {
      "midi": 40,
      "hit": false,
      "t": 23749.99999999999,
      "d": 250,
      "v": 63
    },
    {
      "midi": 62,
      "hit": false,
      "t": 23750.000000000004,
      "d": 250,
      "v": 64
    },
    {
      "midi": 64,
      "hit": false,
      "t": 23750.000000000004,
      "d": 250,
      "v": 64
    },
    {
      "midi": 68,
      "hit": false,
      "t": 23750.000000000004,
      "d": 250,
      "v": 64
    },
    {
      "midi": 71,
      "hit": false,
      "t": 23874.99999999999,
      "d": 125,
      "v": 63
    },
    {
      "midi": 57,
      "hit": false,
      "t": 23999.99999999999,
      "d": 250,
      "v": 63
    },
    {
      "midi": 61,
      "hit": false,
      "t": 23999.99999999999,
      "d": 250,
      "v": 63
    },
    {
      "midi": 69,
      "hit": false,
      "t": 23999.99999999999,
      "d": 250,
      "v": 63
    },
    {
      "midi": 30,
      "hit": false,
      "t": 24000,
      "d": 250,
      "v": 64
    },
    {
      "midi": 45,
      "hit": false,
      "t": 24000,
      "d": 250,
      "v": 64
    },
    {
      "midi": 61,
      "hit": false,
      "t": 24374.99999999999,
      "d": 125,
      "v": 63
    },
    {
      "midi": 64,
      "hit": false,
      "t": 24374.99999999999,
      "d": 125,
      "v": 63
    },
    {
      "midi": 45,
      "hit": false,
      "t": 24375,
      "d": 125,
      "v": 64
    },
    {
      "midi": 52,
      "hit": false,
      "t": 24375,
      "d": 125,
      "v": 64
    },
    {
      "midi": 57,
      "hit": false,
      "t": 24375,
      "d": 125,
      "v": 64
    },
    {
      "midi": 61,
      "hit": false,
      "t": 24499.99999999999,
      "d": 250,
      "v": 63
    },
    {
      "midi": 64,
      "hit": false,
      "t": 24499.99999999999,
      "d": 250,
      "v": 63
    },
    {
      "midi": 45,
      "hit": false,
      "t": 24500,
      "d": 250,
      "v": 64
    },
    {
      "midi": 52,
      "hit": false,
      "t": 24500,
      "d": 250,
      "v": 64
    },
    {
      "midi": 57,
      "hit": false,
      "t": 24500,
      "d": 250,
      "v": 64
    },
    {
      "midi": 61,
      "hit": false,
      "t": 24874.99999999999,
      "d": 125,
      "v": 63
    },
    {
      "midi": 64,
      "hit": false,
      "t": 24874.99999999999,
      "d": 125,
      "v": 63
    },
    {
      "midi": 45,
      "hit": false,
      "t": 24875,
      "d": 125,
      "v": 64
    },
    {
      "midi": 52,
      "hit": false,
      "t": 24875,
      "d": 125,
      "v": 64
    },
    {
      "midi": 57,
      "hit": false,
      "t": 24875,
      "d": 125,
      "v": 64
    },
    {
      "midi": 62,
      "hit": false,
      "t": 24999.99999999999,
      "d": 125,
      "v": 63
    },
    {
      "midi": 66,
      "hit": false,
      "t": 24999.99999999999,
      "d": 125,
      "v": 63
    },
    {
      "midi": 45,
      "hit": false,
      "t": 25000,
      "d": 125,
      "v": 64
    },
    {
      "midi": 52,
      "hit": false,
      "t": 25000,
      "d": 125,
      "v": 64
    },
    {
      "midi": 59,
      "hit": false,
      "t": 25000,
      "d": 125,
      "v": 64
    },
    {
      "midi": 62,
      "hit": false,
      "t": 25124.99999999999,
      "d": 125,
      "v": 63
    },
    {
      "midi": 68,
      "hit": false,
      "t": 25124.99999999999,
      "d": 125,
      "v": 63
    },
    {
      "midi": 45,
      "hit": false,
      "t": 25125,
      "d": 125,
      "v": 64
    },
    {
      "midi": 52,
      "hit": false,
      "t": 25125,
      "d": 125,
      "v": 64
    },
    {
      "midi": 59,
      "hit": false,
      "t": 25125,
      "d": 125,
      "v": 64
    },
    {
      "midi": 62,
      "hit": false,
      "t": 25249.99999999999,
      "d": 125,
      "v": 63
    },
    {
      "midi": 69,
      "hit": false,
      "t": 25249.99999999999,
      "d": 125,
      "v": 63
    },
    {
      "midi": 45,
      "hit": false,
      "t": 25250,
      "d": 125,
      "v": 64
    },
    {
      "midi": 52,
      "hit": false,
      "t": 25250,
      "d": 125,
      "v": 64
    },
    {
      "midi": 59,
      "hit": false,
      "t": 25250,
      "d": 125,
      "v": 64
    },
    {
      "midi": 62,
      "hit": false,
      "t": 25374.99999999999,
      "d": 125,
      "v": 63
    },
    {
      "midi": 71,
      "hit": false,
      "t": 25374.99999999999,
      "d": 125,
      "v": 63
    },
    {
      "midi": 45,
      "hit": false,
      "t": 25375,
      "d": 125,
      "v": 64
    },
    {
      "midi": 52,
      "hit": false,
      "t": 25375,
      "d": 125,
      "v": 64
    },
    {
      "midi": 59,
      "hit": false,
      "t": 25375,
      "d": 125,
      "v": 64
    },
    {
      "midi": 61,
      "hit": false,
      "t": 25499.99999999999,
      "d": 375,
      "v": 63
    },
    {
      "midi": 73,
      "hit": false,
      "t": 25499.99999999999,
      "d": 375,
      "v": 63
    },
    {
      "midi": 45,
      "hit": false,
      "t": 25500,
      "d": 375,
      "v": 64
    },
    {
      "midi": 52,
      "hit": false,
      "t": 25500,
      "d": 375,
      "v": 64
    },
    {
      "midi": 57,
      "hit": false,
      "t": 25500,
      "d": 375,
      "v": 64
    },
    {
      "midi": 61,
      "hit": false,
      "t": 25874.99999999999,
      "d": 125,
      "v": 63
    },
    {
      "midi": 69,
      "hit": false,
      "t": 25874.99999999999,
      "d": 125,
      "v": 63
    },
    {
      "midi": 45,
      "hit": false,
      "t": 25875,
      "d": 125,
      "v": 64
    },
    {
      "midi": 52,
      "hit": false,
      "t": 25875,
      "d": 125,
      "v": 64
    },
    {
      "midi": 57,
      "hit": false,
      "t": 25875,
      "d": 125,
      "v": 64
    },
    {
      "midi": 61,
      "hit": false,
      "t": 25999.99999999999,
      "d": 250,
      "v": 63
    },
    {
      "midi": 69,
      "hit": false,
      "t": 25999.99999999999,
      "d": 250,
      "v": 63
    },
    {
      "midi": 45,
      "hit": false,
      "t": 26000,
      "d": 250,
      "v": 64
    },
    {
      "midi": 52,
      "hit": false,
      "t": 26000,
      "d": 250,
      "v": 64
    },
    {
      "midi": 57,
      "hit": false,
      "t": 26000,
      "d": 250,
      "v": 64
    },
    {
      "midi": 56,
      "hit": false,
      "t": 26249.99999999999,
      "d": 83.33333333333212,
      "v": 63
    },
    {
      "midi": 44,
      "hit": false,
      "t": 26250,
      "d": 83.33333333333212,
      "v": 64
    },
    {
      "midi": 57,
      "hit": false,
      "t": 26333.33333333332,
      "d": 83.33333333333212,
      "v": 63
    },
    {
      "midi": 45,
      "hit": false,
      "t": 26333.333333333332,
      "d": 83.33333333333212,
      "v": 64
    },
    {
      "midi": 59,
      "hit": false,
      "t": 26416.666666666653,
      "d": 83.33333333333212,
      "v": 63
    },
    {
      "midi": 47,
      "hit": false,
      "t": 26416.666666666664,
      "d": 83.33333333333212,
      "v": 64
    },
    {
      "midi": 57,
      "hit": false,
      "t": 26499.999999999985,
      "d": 250,
      "v": 63
    },
    {
      "midi": 45,
      "hit": false,
      "t": 26499.999999999996,
      "d": 250,
      "v": 64
    },
    {
      "midi": 52,
      "hit": false,
      "t": 26749.999999999985,
      "d": 250,
      "v": 63
    },
    {
      "midi": 40,
      "hit": false,
      "t": 26749.999999999996,
      "d": 250,
      "v": 64
    },
    {
      "midi": 61,
      "hit": false,
      "t": 26999.999999999985,
      "d": 250,
      "v": 63
    },
    {
      "midi": 73,
      "hit": false,
      "t": 26999.999999999985,
      "d": 250,
      "v": 63
    },
    {
      "midi": 33,
      "hit": false,
      "t": 26999.999999999996,
      "d": 250,
      "v": 64
    },
    {
      "midi": 45,
      "hit": false,
      "t": 26999.999999999996,
      "d": 250,
      "v": 64
    },
    {
      "midi": 61,
      "hit": false,
      "t": 27374.999999999985,
      "d": 125,
      "v": 63
    },
    {
      "midi": 69,
      "hit": false,
      "t": 27374.999999999985,
      "d": 125,
      "v": 63
    },
    {
      "midi": 45,
      "hit": false,
      "t": 27374.999999999996,
      "d": 125,
      "v": 64
    },
    {
      "midi": 52,
      "hit": false,
      "t": 27374.999999999996,
      "d": 125,
      "v": 64
    },
    {
      "midi": 57,
      "hit": false,
      "t": 27374.999999999996,
      "d": 125,
      "v": 64
    },
    {
      "midi": 61,
      "hit": false,
      "t": 27499.999999999985,
      "d": 250,
      "v": 63
    },
    {
      "midi": 69,
      "hit": false,
      "t": 27499.999999999985,
      "d": 250,
      "v": 63
    },
    {
      "midi": 45,
      "hit": false,
      "t": 27499.999999999996,
      "d": 250,
      "v": 64
    },
    {
      "midi": 52,
      "hit": false,
      "t": 27499.999999999996,
      "d": 250,
      "v": 64
    },
    {
      "midi": 57,
      "hit": false,
      "t": 27499.999999999996,
      "d": 250,
      "v": 64
    },
    {
      "midi": 61,
      "hit": false,
      "t": 27874.999999999985,
      "d": 125,
      "v": 63
    },
    {
      "midi": 68,
      "hit": false,
      "t": 27874.999999999985,
      "d": 125,
      "v": 63
    },
    {
      "midi": 45,
      "hit": false,
      "t": 27874.999999999996,
      "d": 125,
      "v": 64
    },
    {
      "midi": 52,
      "hit": false,
      "t": 27874.999999999996,
      "d": 125,
      "v": 64
    },
    {
      "midi": 57,
      "hit": false,
      "t": 27874.999999999996,
      "d": 125,
      "v": 64
    },
    {
      "midi": 61,
      "hit": false,
      "t": 27999.999999999985,
      "d": 125,
      "v": 63
    },
    {
      "midi": 69,
      "hit": false,
      "t": 27999.999999999985,
      "d": 125,
      "v": 63
    },
    {
      "midi": 45,
      "hit": false,
      "t": 27999.999999999996,
      "d": 125,
      "v": 64
    },
    {
      "midi": 52,
      "hit": false,
      "t": 27999.999999999996,
      "d": 125,
      "v": 64
    },
    {
      "midi": 57,
      "hit": false,
      "t": 27999.999999999996,
      "d": 125,
      "v": 64
    },
    {
      "midi": 61,
      "hit": false,
      "t": 28124.999999999985,
      "d": 125,
      "v": 63
    },
    {
      "midi": 69,
      "hit": false,
      "t": 28124.999999999985,
      "d": 125,
      "v": 63
    },
    {
      "midi": 71,
      "hit": false,
      "t": 28124.999999999985,
      "d": 125,
      "v": 63
    },
    {
      "midi": 45,
      "hit": false,
      "t": 28124.999999999996,
      "d": 125,
      "v": 64
    },
    {
      "midi": 52,
      "hit": false,
      "t": 28124.999999999996,
      "d": 125,
      "v": 64
    },
    {
      "midi": 57,
      "hit": false,
      "t": 28124.999999999996,
      "d": 125,
      "v": 64
    },
    {
      "midi": 61,
      "hit": false,
      "t": 28249.999999999985,
      "d": 125,
      "v": 63
    },
    {
      "midi": 69,
      "hit": false,
      "t": 28249.999999999985,
      "d": 125,
      "v": 63
    },
    {
      "midi": 73,
      "hit": false,
      "t": 28249.999999999985,
      "d": 125,
      "v": 63
    },
    {
      "midi": 45,
      "hit": false,
      "t": 28249.999999999996,
      "d": 125,
      "v": 64
    },
    {
      "midi": 52,
      "hit": false,
      "t": 28249.999999999996,
      "d": 125,
      "v": 64
    },
    {
      "midi": 57,
      "hit": false,
      "t": 28249.999999999996,
      "d": 125,
      "v": 64
    },
    {
      "midi": 62,
      "hit": false,
      "t": 28374.999999999985,
      "d": 125,
      "v": 63
    },
    {
      "midi": 69,
      "hit": false,
      "t": 28374.999999999985,
      "d": 125,
      "v": 63
    },
    {
      "midi": 74,
      "hit": false,
      "t": 28374.999999999985,
      "d": 125,
      "v": 63
    },
    {
      "midi": 45,
      "hit": false,
      "t": 28374.999999999996,
      "d": 125,
      "v": 64
    },
    {
      "midi": 52,
      "hit": false,
      "t": 28374.999999999996,
      "d": 125,
      "v": 64
    },
    {
      "midi": 59,
      "hit": false,
      "t": 28374.999999999996,
      "d": 125,
      "v": 64
    },
    {
      "midi": 63,
      "hit": false,
      "t": 28499.999999999985,
      "d": 375,
      "v": 63
    },
    {
      "midi": 69,
      "hit": false,
      "t": 28499.999999999985,
      "d": 375,
      "v": 63
    },
    {
      "midi": 78,
      "hit": false,
      "t": 28499.999999999985,
      "d": 375,
      "v": 63
    },
    {
      "midi": 45,
      "hit": false,
      "t": 28499.999999999996,
      "d": 375,
      "v": 64
    },
    {
      "midi": 51,
      "hit": false,
      "t": 28499.999999999996,
      "d": 375,
      "v": 64
    },
    {
      "midi": 54,
      "hit": false,
      "t": 28499.999999999996,
      "d": 375,
      "v": 64
    },
    {
      "midi": 60,
      "hit": false,
      "t": 28499.999999999996,
      "d": 375,
      "v": 64
    },
    {
      "midi": 64,
      "hit": false,
      "t": 28874.999999999985,
      "d": 125,
      "v": 63
    },
    {
      "midi": 69,
      "hit": false,
      "t": 28874.999999999985,
      "d": 125,
      "v": 63
    },
    {
      "midi": 76,
      "hit": false,
      "t": 28874.999999999985,
      "d": 125,
      "v": 63
    },
    {
      "midi": 52,
      "hit": false,
      "t": 28874.999999999996,
      "d": 125,
      "v": 64
    },
    {
      "midi": 57,
      "hit": false,
      "t": 28874.999999999996,
      "d": 125,
      "v": 64
    },
    {
      "midi": 61,
      "hit": false,
      "t": 28874.999999999996,
      "d": 125,
      "v": 64
    },
    {
      "midi": 64,
      "hit": false,
      "t": 28999.999999999985,
      "d": 250,
      "v": 63
    },
    {
      "midi": 69,
      "hit": false,
      "t": 28999.999999999985,
      "d": 250,
      "v": 63
    },
    {
      "midi": 76,
      "hit": false,
      "t": 28999.999999999985,
      "d": 250,
      "v": 63
    },
    {
      "midi": 52,
      "hit": false,
      "t": 28999.999999999996,
      "d": 250,
      "v": 64
    },
    {
      "midi": 57,
      "hit": false,
      "t": 28999.999999999996,
      "d": 250,
      "v": 64
    },
    {
      "midi": 61,
      "hit": false,
      "t": 28999.999999999996,
      "d": 250,
      "v": 64
    },
    {
      "midi": 56,
      "hit": false,
      "t": 29249.999999999985,
      "d": 83.33333333333212,
      "v": 63
    },
    {
      "midi": 44,
      "hit": false,
      "t": 29249.999999999996,
      "d": 83.33333333333212,
      "v": 64
    },
    {
      "midi": 57,
      "hit": false,
      "t": 29333.333333333318,
      "d": 83.33333333333212,
      "v": 63
    },
    {
      "midi": 45,
      "hit": false,
      "t": 29333.33333333333,
      "d": 83.33333333333212,
      "v": 64
    },
    {
      "midi": 59,
      "hit": false,
      "t": 29416.66666666665,
      "d": 83.33333333333212,
      "v": 63
    },
    {
      "midi": 47,
      "hit": false,
      "t": 29416.66666666666,
      "d": 83.33333333333212,
      "v": 64
    },
    {
      "midi": 57,
      "hit": false,
      "t": 29499.99999999998,
      "d": 250,
      "v": 63
    },
    {
      "midi": 45,
      "hit": false,
      "t": 29499.999999999993,
      "d": 250,
      "v": 64
    },
    {
      "midi": 52,
      "hit": false,
      "t": 29749.99999999998,
      "d": 250,
      "v": 63
    },
    {
      "midi": 40,
      "hit": false,
      "t": 29749.999999999993,
      "d": 250,
      "v": 64
    },
    {
      "midi": 73,
      "hit": false,
      "t": 29999.99999999998,
      "d": 250,
      "v": 63
    },
    {
      "midi": 77,
      "hit": false,
      "t": 29999.99999999998,
      "d": 250,
      "v": 63
    },
    {
      "midi": 85,
      "hit": false,
      "t": 29999.99999999998,
      "d": 250,
      "v": 63
    },
    {
      "midi": 28,
      "hit": false,
      "t": 29999.99999999999,
      "d": 250,
      "v": 63
    },
    {
      "midi": 44,
      "hit": false,
      "t": 29999.99999999999,
      "d": 250,
      "v": 63
    },
    {
      "midi": 68,
      "hit": false,
      "t": 30249.99999999998,
      "d": 83.33333333333212,
      "v": 63
    },
    {
      "midi": 73,
      "hit": false,
      "t": 30249.99999999998,
      "d": 83.33333333333212,
      "v": 63
    },
    {
      "midi": 80,
      "hit": false,
      "t": 30249.99999999998,
      "d": 83.33333333333212,
      "v": 63
    },
    {
      "midi": 53,
      "hit": false,
      "t": 30249.99999999999,
      "d": 83.33333333333212,
      "v": 63
    },
    {
      "midi": 56,
      "hit": false,
      "t": 30249.99999999999,
      "d": 83.33333333333212,
      "v": 63
    },
    {
      "midi": 61,
      "hit": false,
      "t": 30249.99999999999,
      "d": 83.33333333333212,
      "v": 63
    },
    {
      "midi": 65,
      "hit": false,
      "t": 30249.99999999999,
      "d": 83.33333333333212,
      "v": 63
    },
    {
      "midi": 68,
      "hit": false,
      "t": 30333.333333333314,
      "d": 83.33333333333212,
      "v": 63
    },
    {
      "midi": 73,
      "hit": false,
      "t": 30333.333333333314,
      "d": 83.33333333333212,
      "v": 63
    },
    {
      "midi": 80,
      "hit": false,
      "t": 30333.333333333314,
      "d": 83.33333333333212,
      "v": 63
    },
    {
      "midi": 53,
      "hit": false,
      "t": 30333.33333333332,
      "d": 83.33333333333212,
      "v": 63
    },
    {
      "midi": 56,
      "hit": false,
      "t": 30333.33333333332,
      "d": 83.33333333333212,
      "v": 63
    },
    {
      "midi": 61,
      "hit": false,
      "t": 30333.33333333332,
      "d": 83.33333333333212,
      "v": 63
    },
    {
      "midi": 65,
      "hit": false,
      "t": 30333.33333333332,
      "d": 83.33333333333212,
      "v": 63
    },
    {
      "midi": 68,
      "hit": false,
      "t": 30416.666666666646,
      "d": 83.33333333333212,
      "v": 63
    },
    {
      "midi": 73,
      "hit": false,
      "t": 30416.666666666646,
      "d": 83.33333333333212,
      "v": 63
    },
    {
      "midi": 80,
      "hit": false,
      "t": 30416.666666666646,
      "d": 83.33333333333212,
      "v": 63
    },
    {
      "midi": 53,
      "hit": false,
      "t": 30416.666666666653,
      "d": 83.33333333333212,
      "v": 63
    },
    {
      "midi": 56,
      "hit": false,
      "t": 30416.666666666653,
      "d": 83.33333333333212,
      "v": 63
    },
    {
      "midi": 61,
      "hit": false,
      "t": 30416.666666666653,
      "d": 83.33333333333212,
      "v": 63
    },
    {
      "midi": 65,
      "hit": false,
      "t": 30416.666666666653,
      "d": 83.33333333333212,
      "v": 63
    },
    {
      "midi": 68,
      "hit": false,
      "t": 30499.999999999978,
      "d": 250,
      "v": 63
    },
    {
      "midi": 73,
      "hit": false,
      "t": 30499.999999999978,
      "d": 250,
      "v": 63
    },
    {
      "midi": 80,
      "hit": false,
      "t": 30499.999999999978,
      "d": 250,
      "v": 63
    },
    {
      "midi": 53,
      "hit": false,
      "t": 30499.999999999985,
      "d": 250,
      "v": 63
    },
    {
      "midi": 56,
      "hit": false,
      "t": 30499.999999999985,
      "d": 250,
      "v": 63
    },
    {
      "midi": 61,
      "hit": false,
      "t": 30499.999999999985,
      "d": 250,
      "v": 63
    },
    {
      "midi": 65,
      "hit": false,
      "t": 30499.999999999985,
      "d": 250,
      "v": 63
    },
    {
      "midi": 68,
      "hit": false,
      "t": 30749.999999999978,
      "d": 250,
      "v": 63
    },
    {
      "midi": 73,
      "hit": false,
      "t": 30749.999999999978,
      "d": 250,
      "v": 63
    },
    {
      "midi": 80,
      "hit": false,
      "t": 30749.999999999978,
      "d": 250,
      "v": 63
    },
    {
      "midi": 53,
      "hit": false,
      "t": 30749.999999999985,
      "d": 250,
      "v": 63
    },
    {
      "midi": 56,
      "hit": false,
      "t": 30749.999999999985,
      "d": 250,
      "v": 63
    },
    {
      "midi": 61,
      "hit": false,
      "t": 30749.999999999985,
      "d": 250,
      "v": 63
    },
    {
      "midi": 65,
      "hit": false,
      "t": 30749.999999999985,
      "d": 250,
      "v": 63
    },
    {
      "midi": 70,
      "hit": false,
      "t": 30999.999999999978,
      "d": 125,
      "v": 63
    },
    {
      "midi": 75,
      "hit": false,
      "t": 30999.999999999978,
      "d": 125,
      "v": 63
    },
    {
      "midi": 82,
      "hit": false,
      "t": 30999.999999999978,
      "d": 125,
      "v": 63
    },
    {
      "midi": 54,
      "hit": false,
      "t": 30999.999999999985,
      "d": 250,
      "v": 63
    },
    {
      "midi": 56,
      "hit": false,
      "t": 30999.999999999985,
      "d": 250,
      "v": 63
    },
    {
      "midi": 60,
      "hit": false,
      "t": 30999.999999999985,
      "d": 250,
      "v": 63
    },
    {
      "midi": 63,
      "hit": false,
      "t": 30999.999999999985,
      "d": 250,
      "v": 63
    },
    {
      "midi": 72,
      "hit": false,
      "t": 31124.999999999978,
      "d": 125,
      "v": 63
    },
    {
      "midi": 84,
      "hit": false,
      "t": 31124.999999999978,
      "d": 125,
      "v": 63
    },
    {
      "midi": 73,
      "hit": false,
      "t": 31249.999999999978,
      "d": 125,
      "v": 63
    },
    {
      "midi": 80,
      "hit": false,
      "t": 31249.999999999978,
      "d": 125,
      "v": 63
    },
    {
      "midi": 85,
      "hit": false,
      "t": 31249.999999999978,
      "d": 125,
      "v": 63
    },
    {
      "midi": 28,
      "hit": false,
      "t": 31249.999999999985,
      "d": 250,
      "v": 63
    },
    {
      "midi": 44,
      "hit": false,
      "t": 31249.999999999985,
      "d": 250,
      "v": 63
    },
    {
      "midi": 75,
      "hit": false,
      "t": 31374.999999999978,
      "d": 125,
      "v": 63
    },
    {
      "midi": 87,
      "hit": false,
      "t": 31374.999999999978,
      "d": 125,
      "v": 63
    },
    {
      "midi": 77,
      "hit": false,
      "t": 31499.999999999978,
      "d": 375,
      "v": 63
    },
    {
      "midi": 85,
      "hit": false,
      "t": 31499.999999999978,
      "d": 375,
      "v": 63
    },
    {
      "midi": 89,
      "hit": false,
      "t": 31499.999999999978,
      "d": 375,
      "v": 63
    },
    {
      "midi": 25,
      "hit": false,
      "t": 31499.999999999985,
      "d": 375,
      "v": 63
    },
    {
      "midi": 37,
      "hit": false,
      "t": 31499.999999999985,
      "d": 375,
      "v": 63
    },
    {
      "midi": 73,
      "hit": false,
      "t": 31874.999999999978,
      "d": 125,
      "v": 63
    },
    {
      "midi": 85,
      "hit": false,
      "t": 31874.999999999978,
      "d": 125,
      "v": 63
    },
    {
      "midi": 49,
      "hit": false,
      "t": 31874.999999999985,
      "d": 125,
      "v": 63
    },
    {
      "midi": 61,
      "hit": false,
      "t": 31874.999999999985,
      "d": 125,
      "v": 63
    },
    {
      "midi": 73,
      "hit": false,
      "t": 31999.999999999978,
      "d": 250,
      "v": 63
    },
    {
      "midi": 85,
      "hit": false,
      "t": 31999.999999999978,
      "d": 250,
      "v": 63
    },
    {
      "midi": 49,
      "hit": false,
      "t": 31999.999999999985,
      "d": 250,
      "v": 63
    },
    {
      "midi": 61,
      "hit": false,
      "t": 31999.999999999985,
      "d": 250,
      "v": 63
    },
    {
      "midi": 73,
      "hit": false,
      "t": 32249.999999999978,
      "d": 125,
      "v": 63
    },
    {
      "midi": 85,
      "hit": false,
      "t": 32249.999999999978,
      "d": 125,
      "v": 63
    },
    {
      "midi": 49,
      "hit": false,
      "t": 32249.999999999985,
      "d": 125,
      "v": 63
    },
    {
      "midi": 61,
      "hit": false,
      "t": 32249.999999999985,
      "d": 125,
      "v": 63
    },
    {
      "midi": 73,
      "hit": false,
      "t": 32374.999999999978,
      "d": 125,
      "v": 63
    },
    {
      "midi": 85,
      "hit": false,
      "t": 32374.999999999978,
      "d": 125,
      "v": 63
    },
    {
      "midi": 49,
      "hit": false,
      "t": 32374.999999999985,
      "d": 125,
      "v": 63
    },
    {
      "midi": 61,
      "hit": false,
      "t": 32374.999999999985,
      "d": 125,
      "v": 63
    },
    {
      "midi": 73,
      "hit": false,
      "t": 32499.999999999978,
      "d": 125,
      "v": 63
    },
    {
      "midi": 85,
      "hit": false,
      "t": 32499.999999999978,
      "d": 125,
      "v": 63
    },
    {
      "midi": 49,
      "hit": false,
      "t": 32499.999999999985,
      "d": 125,
      "v": 63
    },
    {
      "midi": 61,
      "hit": false,
      "t": 32499.999999999985,
      "d": 125,
      "v": 63
    },
    {
      "midi": 73,
      "hit": false,
      "t": 32624.999999999978,
      "d": 125,
      "v": 63
    },
    {
      "midi": 85,
      "hit": false,
      "t": 32624.999999999978,
      "d": 125,
      "v": 63
    },
    {
      "midi": 49,
      "hit": false,
      "t": 32624.999999999985,
      "d": 125,
      "v": 63
    },
    {
      "midi": 61,
      "hit": false,
      "t": 32624.999999999985,
      "d": 125,
      "v": 63
    },
    {
      "midi": 73,
      "hit": false,
      "t": 32749.999999999978,
      "d": 125,
      "v": 63
    },
    {
      "midi": 85,
      "hit": false,
      "t": 32749.999999999978,
      "d": 125,
      "v": 63
    },
    {
      "midi": 49,
      "hit": false,
      "t": 32749.999999999985,
      "d": 125,
      "v": 63
    },
    {
      "midi": 61,
      "hit": false,
      "t": 32749.999999999985,
      "d": 125,
      "v": 63
    },
    {
      "midi": 73,
      "hit": false,
      "t": 32874.99999999998,
      "d": 125,
      "v": 63
    },
    {
      "midi": 85,
      "hit": false,
      "t": 32874.99999999998,
      "d": 125,
      "v": 63
    },
    {
      "midi": 49,
      "hit": false,
      "t": 32874.999999999985,
      "d": 125,
      "v": 63
    },
    {
      "midi": 61,
      "hit": false,
      "t": 32874.999999999985,
      "d": 125,
      "v": 63
    },
    {
      "midi": 73,
      "hit": false,
      "t": 32999.99999999998,
      "d": 250,
      "v": 63
    },
    {
      "midi": 85,
      "hit": false,
      "t": 32999.99999999998,
      "d": 250,
      "v": 63
    },
    {
      "midi": 49,
      "hit": false,
      "t": 32999.999999999985,
      "d": 250,
      "v": 63
    },
    {
      "midi": 61,
      "hit": false,
      "t": 32999.999999999985,
      "d": 250,
      "v": 63
    },
    {
      "midi": 71,
      "hit": false,
      "t": 33249.99999999998,
      "d": 187.5,
      "v": 63
    },
    {
      "midi": 78,
      "hit": false,
      "t": 33249.99999999998,
      "d": 187.5,
      "v": 63
    },
    {
      "midi": 83,
      "hit": false,
      "t": 33249.99999999998,
      "d": 187.5,
      "v": 63
    },
    {
      "midi": 50,
      "hit": false,
      "t": 33249.999999999985,
      "d": 187.5,
      "v": 63
    },
    {
      "midi": 54,
      "hit": false,
      "t": 33249.999999999985,
      "d": 187.5,
      "v": 63
    },
    {
      "midi": 59,
      "hit": false,
      "t": 33249.999999999985,
      "d": 187.5,
      "v": 63
    },
    {
      "midi": 71,
      "hit": false,
      "t": 33437.49999999998,
      "d": 62.5,
      "v": 63
    },
    {
      "midi": 78,
      "hit": false,
      "t": 33437.49999999998,
      "d": 62.5,
      "v": 63
    },
    {
      "midi": 83,
      "hit": false,
      "t": 33437.49999999998,
      "d": 62.5,
      "v": 63
    },
    {
      "midi": 50,
      "hit": false,
      "t": 33437.499999999985,
      "d": 62.5,
      "v": 63
    },
    {
      "midi": 54,
      "hit": false,
      "t": 33437.499999999985,
      "d": 62.5,
      "v": 63
    },
    {
      "midi": 59,
      "hit": false,
      "t": 33437.499999999985,
      "d": 62.5,
      "v": 63
    },
    {
      "midi": 71,
      "hit": false,
      "t": 33499.99999999998,
      "d": 250,
      "v": 63
    },
    {
      "midi": 78,
      "hit": false,
      "t": 33499.99999999998,
      "d": 250,
      "v": 63
    },
    {
      "midi": 83,
      "hit": false,
      "t": 33499.99999999998,
      "d": 250,
      "v": 63
    },
    {
      "midi": 50,
      "hit": false,
      "t": 33499.999999999985,
      "d": 250,
      "v": 63
    },
    {
      "midi": 54,
      "hit": false,
      "t": 33499.999999999985,
      "d": 250,
      "v": 63
    },
    {
      "midi": 59,
      "hit": false,
      "t": 33499.999999999985,
      "d": 250,
      "v": 63
    },
    {
      "midi": 73,
      "hit": false,
      "t": 33749.99999999998,
      "d": 250,
      "v": 63
    },
    {
      "midi": 85,
      "hit": false,
      "t": 33749.99999999998,
      "d": 250,
      "v": 63
    },
    {
      "midi": 52,
      "hit": false,
      "t": 33749.999999999985,
      "d": 250,
      "v": 63
    },
    {
      "midi": 56,
      "hit": false,
      "t": 33749.999999999985,
      "d": 250,
      "v": 63
    },
    {
      "midi": 61,
      "hit": false,
      "t": 33749.999999999985,
      "d": 250,
      "v": 63
    },
    {
      "midi": 76,
      "hit": false,
      "t": 33999.99999999998,
      "d": 250,
      "v": 63
    },
    {
      "midi": 81,
      "hit": false,
      "t": 33999.99999999998,
      "d": 250,
      "v": 63
    },
    {
      "midi": 88,
      "hit": false,
      "t": 33999.99999999998,
      "d": 250,
      "v": 63
    },
    {
      "midi": 54,
      "hit": false,
      "t": 33999.999999999985,
      "d": 500,
      "v": 63
    },
    {
      "midi": 57,
      "hit": false,
      "t": 33999.999999999985,
      "d": 500,
      "v": 63
    },
    {
      "midi": 76,
      "hit": false,
      "t": 34000,
      "d": 250,
      "v": 64
    },
    {
      "midi": 74,
      "hit": false,
      "t": 34249.99999999998,
      "d": 125,
      "v": 63
    },
    {
      "midi": 86,
      "hit": false,
      "t": 34249.99999999998,
      "d": 125,
      "v": 63
    },
    {
      "midi": 74,
      "hit": false,
      "t": 34250,
      "d": 250,
      "v": 64
    },
    {
      "midi": 73,
      "hit": false,
      "t": 34374.99999999998,
      "d": 125,
      "v": 63
    },
    {
      "midi": 85,
      "hit": false,
      "t": 34374.99999999998,
      "d": 125,
      "v": 63
    },
    {
      "midi": 71,
      "hit": false,
      "t": 34499.99999999998,
      "d": 250,
      "v": 63
    },
    {
      "midi": 83,
      "hit": false,
      "t": 34499.99999999998,
      "d": 250,
      "v": 63
    },
    {
      "midi": 52,
      "hit": false,
      "t": 34499.999999999985,
      "d": 250,
      "v": 63
    },
    {
      "midi": 56,
      "hit": false,
      "t": 34499.999999999985,
      "d": 250,
      "v": 63
    },
    {
      "midi": 62,
      "hit": false,
      "t": 34499.999999999985,
      "d": 250,
      "v": 63
    },
    {
      "midi": 71,
      "hit": false,
      "t": 34749.99999999998,
      "d": 187.5,
      "v": 63
    },
    {
      "midi": 76,
      "hit": false,
      "t": 34749.99999999998,
      "d": 187.5,
      "v": 63
    },
    {
      "midi": 83,
      "hit": false,
      "t": 34749.99999999998,
      "d": 187.5,
      "v": 63
    },
    {
      "midi": 52,
      "hit": false,
      "t": 34749.999999999985,
      "d": 250,
      "v": 63
    },
    {
      "midi": 56,
      "hit": false,
      "t": 34749.999999999985,
      "d": 250,
      "v": 63
    },
    {
      "midi": 62,
      "hit": false,
      "t": 34749.999999999985,
      "d": 250,
      "v": 63
    },
    {
      "midi": 64,
      "hit": false,
      "t": 34749.999999999985,
      "d": 250,
      "v": 63
    },
    {
      "midi": 73,
      "hit": false,
      "t": 34937.49999999998,
      "d": 62.5,
      "v": 63
    },
    {
      "midi": 85,
      "hit": false,
      "t": 34937.49999999998,
      "d": 62.5,
      "v": 63
    },
    {
      "midi": 71,
      "hit": false,
      "t": 34999.99999999998,
      "d": 500,
      "v": 63
    },
    {
      "midi": 76,
      "hit": false,
      "t": 34999.99999999998,
      "d": 500,
      "v": 63
    },
    {
      "midi": 83,
      "hit": false,
      "t": 34999.99999999998,
      "d": 500,
      "v": 63
    },
    {
      "midi": 52,
      "hit": false,
      "t": 34999.999999999985,
      "d": 500,
      "v": 63
    },
    {
      "midi": 56,
      "hit": false,
      "t": 34999.999999999985,
      "d": 500,
      "v": 63
    },
    {
      "midi": 62,
      "hit": false,
      "t": 34999.999999999985,
      "d": 500,
      "v": 63
    },
    {
      "midi": 64,
      "hit": false,
      "t": 34999.999999999985,
      "d": 500,
      "v": 63
    },
    {
      "midi": 69,
      "hit": false,
      "t": 35499.99999999998,
      "d": 250,
      "v": 63
    },
    {
      "midi": 81,
      "hit": false,
      "t": 35499.99999999998,
      "d": 250,
      "v": 63
    },
    {
      "midi": 57,
      "hit": false,
      "t": 35499.999999999985,
      "d": 250,
      "v": 63
    },
    {
      "midi": 61,
      "hit": false,
      "t": 35499.999999999985,
      "d": 250,
      "v": 63
    },
    {
      "midi": 64,
      "hit": false,
      "t": 35499.999999999985,
      "d": 250,
      "v": 63
    },
    {
      "midi": 74,
      "hit": false,
      "t": 35999.99999999998,
      "d": 1000,
      "v": 63
    },
    {
      "midi": 25,
      "hit": false,
      "t": 35999.99999999999,
      "d": 250,
      "v": 64
    },
    {
      "midi": 38,
      "hit": false,
      "t": 35999.99999999999,
      "d": 250,
      "v": 64
    },
    {
      "midi": 54,
      "hit": false,
      "t": 36249.99999999999,
      "d": 125,
      "v": 64
    },
    {
      "midi": 57,
      "hit": false,
      "t": 36249.99999999999,
      "d": 125,
      "v": 64
    },
    {
      "midi": 62,
      "hit": false,
      "t": 36249.99999999999,
      "d": 125,
      "v": 64
    },
    {
      "midi": 54,
      "hit": false,
      "t": 36374.99999999999,
      "d": 125,
      "v": 64
    },
    {
      "midi": 57,
      "hit": false,
      "t": 36374.99999999999,
      "d": 125,
      "v": 64
    },
    {
      "midi": 62,
      "hit": false,
      "t": 36374.99999999999,
      "d": 125,
      "v": 64
    },
    {
      "midi": 54,
      "hit": false,
      "t": 36499.99999999999,
      "d": 250,
      "v": 64
    },
    {
      "midi": 57,
      "hit": false,
      "t": 36499.99999999999,
      "d": 250,
      "v": 64
    },
    {
      "midi": 62,
      "hit": false,
      "t": 36499.99999999999,
      "d": 250,
      "v": 64
    },
    {
      "midi": 54,
      "hit": false,
      "t": 36749.99999999999,
      "d": 250,
      "v": 64
    },
    {
      "midi": 57,
      "hit": false,
      "t": 36749.99999999999,
      "d": 250,
      "v": 64
    },
    {
      "midi": 62,
      "hit": false,
      "t": 36749.99999999999,
      "d": 250,
      "v": 64
    },
    {
      "midi": 69,
      "hit": false,
      "t": 36999.99999999998,
      "d": 500,
      "v": 63
    },
    {
      "midi": 55,
      "hit": false,
      "t": 36999.99999999999,
      "d": 250,
      "v": 64
    },
    {
      "midi": 57,
      "hit": false,
      "t": 36999.99999999999,
      "d": 250,
      "v": 64
    },
    {
      "midi": 61,
      "hit": false,
      "t": 36999.99999999999,
      "d": 250,
      "v": 64
    },
    {
      "midi": 55,
      "hit": false,
      "t": 37249.99999999999,
      "d": 250,
      "v": 64
    },
    {
      "midi": 57,
      "hit": false,
      "t": 37249.99999999999,
      "d": 250,
      "v": 64
    },
    {
      "midi": 61,
      "hit": false,
      "t": 37249.99999999999,
      "d": 250,
      "v": 64
    },
    {
      "midi": 62,
      "hit": false,
      "t": 37499.99999999998,
      "d": 250,
      "v": 63
    },
    {
      "midi": 25,
      "hit": false,
      "t": 37499.99999999999,
      "d": 250,
      "v": 64
    },
    {
      "midi": 38,
      "hit": false,
      "t": 37499.99999999999,
      "d": 250,
      "v": 64
    },
    {
      "midi": 50,
      "hit": false,
      "t": 37749.99999999999,
      "d": 125,
      "v": 64
    },
    {
      "midi": 54,
      "hit": false,
      "t": 37749.99999999999,
      "d": 125,
      "v": 64
    },
    {
      "midi": 57,
      "hit": false,
      "t": 37874.99999999998,
      "d": 125,
      "v": 63
    },
    {
      "midi": 50,
      "hit": false,
      "t": 37874.99999999999,
      "d": 125,
      "v": 64
    },
    {
      "midi": 54,
      "hit": false,
      "t": 37874.99999999999,
      "d": 125,
      "v": 64
    },
    {
      "midi": 62,
      "hit": false,
      "t": 37999.99999999998,
      "d": 1000,
      "v": 63
    },
    {
      "midi": 50,
      "hit": false,
      "t": 37999.99999999999,
      "d": 250,
      "v": 64
    },
    {
      "midi": 54,
      "hit": false,
      "t": 37999.99999999999,
      "d": 250,
      "v": 64
    },
    {
      "midi": 54,
      "hit": false,
      "t": 38249.99999999999,
      "d": 250,
      "v": 64
    },
    {
      "midi": 57,
      "hit": false,
      "t": 38249.99999999999,
      "d": 250,
      "v": 64
    },
    {
      "midi": 52,
      "hit": false,
      "t": 38499.99999999999,
      "d": 250,
      "v": 64
    },
    {
      "midi": 55,
      "hit": false,
      "t": 38499.99999999999,
      "d": 250,
      "v": 64
    },
    {
      "midi": 57,
      "hit": false,
      "t": 38499.99999999999,
      "d": 250,
      "v": 64
    },
    {
      "midi": 50,
      "hit": false,
      "t": 38749.99999999999,
      "d": 250,
      "v": 64
    },
    {
      "midi": 54,
      "hit": false,
      "t": 38749.99999999999,
      "d": 250,
      "v": 64
    },
    {
      "midi": 57,
      "hit": false,
      "t": 38749.99999999999,
      "d": 250,
      "v": 64
    },
    {
      "midi": 69,
      "hit": false,
      "t": 38999.99999999998,
      "d": 1000,
      "v": 63
    },
    {
      "midi": 33,
      "hit": false,
      "t": 38999.99999999999,
      "d": 250,
      "v": 64
    },
    {
      "midi": 45,
      "hit": false,
      "t": 38999.99999999999,
      "d": 250,
      "v": 64
    },
    {
      "midi": 49,
      "hit": false,
      "t": 39249.99999999999,
      "d": 125,
      "v": 64
    },
    {
      "midi": 52,
      "hit": false,
      "t": 39249.99999999999,
      "d": 125,
      "v": 64
    },
    {
      "midi": 57,
      "hit": false,
      "t": 39249.99999999999,
      "d": 125,
      "v": 64
    },
    {
      "midi": 49,
      "hit": false,
      "t": 39374.99999999999,
      "d": 125,
      "v": 64
    },
    {
      "midi": 52,
      "hit": false,
      "t": 39374.99999999999,
      "d": 125,
      "v": 64
    },
    {
      "midi": 57,
      "hit": false,
      "t": 39374.99999999999,
      "d": 125,
      "v": 64
    },
    {
      "midi": 49,
      "hit": false,
      "t": 39499.99999999999,
      "d": 250,
      "v": 64
    },
    {
      "midi": 52,
      "hit": false,
      "t": 39499.99999999999,
      "d": 250,
      "v": 64
    },
    {
      "midi": 57,
      "hit": false,
      "t": 39499.99999999999,
      "d": 250,
      "v": 64
    },
    {
      "midi": 49,
      "hit": false,
      "t": 39749.99999999999,
      "d": 250,
      "v": 64
    },
    {
      "midi": 52,
      "hit": false,
      "t": 39749.99999999999,
      "d": 250,
      "v": 64
    },
    {
      "midi": 57,
      "hit": false,
      "t": 39749.99999999999,
      "d": 250,
      "v": 64
    },
    {
      "midi": 64,
      "hit": false,
      "t": 39999.99999999998,
      "d": 500,
      "v": 63
    },
    {
      "midi": 47,
      "hit": false,
      "t": 39999.99999999999,
      "d": 250,
      "v": 64
    },
    {
      "midi": 50,
      "hit": false,
      "t": 39999.99999999999,
      "d": 250,
      "v": 64
    },
    {
      "midi": 57,
      "hit": false,
      "t": 39999.99999999999,
      "d": 250,
      "v": 64
    },
    {
      "midi": 47,
      "hit": false,
      "t": 40249.99999999999,
      "d": 250,
      "v": 64
    },
    {
      "midi": 50,
      "hit": false,
      "t": 40249.99999999999,
      "d": 250,
      "v": 64
    },
    {
      "midi": 57,
      "hit": false,
      "t": 40249.99999999999,
      "d": 250,
      "v": 64
    },
    {
      "midi": 57,
      "hit": false,
      "t": 40499.99999999998,
      "d": 250,
      "v": 63
    },
    {
      "midi": 33,
      "hit": false,
      "t": 40499.99999999999,
      "d": 250,
      "v": 64
    },
    {
      "midi": 45,
      "hit": false,
      "t": 40499.99999999999,
      "d": 250,
      "v": 64
    },
    {
      "midi": 45,
      "hit": false,
      "t": 40749.99999999999,
      "d": 125,
      "v": 64
    },
    {
      "midi": 49,
      "hit": false,
      "t": 40749.99999999999,
      "d": 125,
      "v": 64
    },
    {
      "midi": 52,
      "hit": false,
      "t": 40874.99999999998,
      "d": 125,
      "v": 63
    },
    {
      "midi": 45,
      "hit": false,
      "t": 40874.99999999999,
      "d": 125,
      "v": 64
    },
    {
      "midi": 49,
      "hit": false,
      "t": 40874.99999999999,
      "d": 125,
      "v": 64
    },
    {
      "midi": 57,
      "hit": false,
      "t": 40999.99999999998,
      "d": 1000,
      "v": 63
    },
    {
      "midi": 45,
      "hit": false,
      "t": 40999.99999999999,
      "d": 250,
      "v": 64
    },
    {
      "midi": 49,
      "hit": false,
      "t": 40999.99999999999,
      "d": 250,
      "v": 64
    },
    {
      "midi": 49,
      "hit": false,
      "t": 41249.99999999999,
      "d": 250,
      "v": 64
    },
    {
      "midi": 52,
      "hit": false,
      "t": 41249.99999999999,
      "d": 250,
      "v": 64
    },
    {
      "midi": 47,
      "hit": false,
      "t": 41499.99999999999,
      "d": 250,
      "v": 64
    },
    {
      "midi": 50,
      "hit": false,
      "t": 41499.99999999999,
      "d": 250,
      "v": 64
    },
    {
      "midi": 52,
      "hit": false,
      "t": 41499.99999999999,
      "d": 250,
      "v": 64
    },
    {
      "midi": 45,
      "hit": false,
      "t": 41749.99999999999,
      "d": 250,
      "v": 64
    },
    {
      "midi": 49,
      "hit": false,
      "t": 41749.99999999999,
      "d": 250,
      "v": 64
    },
    {
      "midi": 52,
      "hit": false,
      "t": 41749.99999999999,
      "d": 250,
      "v": 64
    },
    {
      "midi": 59,
      "hit": false,
      "t": 41999.99999999998,
      "d": 250,
      "v": 63
    },
    {
      "midi": 31,
      "hit": false,
      "t": 41999.99999999999,
      "d": 250,
      "v": 64
    },
    {
      "midi": 43,
      "hit": false,
      "t": 41999.99999999999,
      "d": 250,
      "v": 64
    },
    {
      "midi": 62,
      "hit": false,
      "t": 42249.99999999998,
      "d": 83.33333333333576,
      "v": 63
    },
    {
      "midi": 67,
      "hit": false,
      "t": 42249.99999999998,
      "d": 83.33333333333576,
      "v": 63
    },
    {
      "midi": 71,
      "hit": false,
      "t": 42249.99999999998,
      "d": 83.33333333333576,
      "v": 63
    },
    {
      "midi": 43,
      "hit": false,
      "t": 42249.99999999999,
      "d": 125,
      "v": 64
    },
    {
      "midi": 55,
      "hit": false,
      "t": 42249.99999999999,
      "d": 125,
      "v": 64
    },
    {
      "midi": 59,
      "hit": false,
      "t": 42333.333333333314,
      "d": 83.33333333333576,
      "v": 63
    },
    {
      "midi": 43,
      "hit": false,
      "t": 42374.99999999999,
      "d": 125,
      "v": 64
    },
    {
      "midi": 55,
      "hit": false,
      "t": 42374.99999999999,
      "d": 125,
      "v": 64
    },
    {
      "midi": 62,
      "hit": false,
      "t": 42416.66666666665,
      "d": 333.33333333333576,
      "v": 63
    },
    {
      "midi": 67,
      "hit": false,
      "t": 42416.66666666665,
      "d": 333.33333333333576,
      "v": 63
    },
    {
      "midi": 71,
      "hit": false,
      "t": 42416.66666666665,
      "d": 333.33333333333576,
      "v": 63
    },
    {
      "midi": 59,
      "hit": false,
      "t": 42499.999999999985,
      "d": 250,
      "v": 63
    },
    {
      "midi": 43,
      "hit": false,
      "t": 42499.99999999999,
      "d": 250,
      "v": 64
    },
    {
      "midi": 55,
      "hit": false,
      "t": 42499.99999999999,
      "d": 250,
      "v": 64
    },
    {
      "midi": 61,
      "hit": false,
      "t": 42749.999999999985,
      "d": 250,
      "v": 63
    },
    {
      "midi": 66,
      "hit": false,
      "t": 42749.999999999985,
      "d": 250,
      "v": 63
    },
    {
      "midi": 70,
      "hit": false,
      "t": 42749.999999999985,
      "d": 250,
      "v": 63
    },
    {
      "midi": 73,
      "hit": false,
      "t": 42749.999999999985,
      "d": 250,
      "v": 63
    },
    {
      "midi": 42,
      "hit": false,
      "t": 42749.99999999999,
      "d": 250,
      "v": 64
    },
    {
      "midi": 54,
      "hit": false,
      "t": 42749.99999999999,
      "d": 250,
      "v": 64
    },
    {
      "midi": 62,
      "hit": false,
      "t": 42999.999999999985,
      "d": 250,
      "v": 63
    },
    {
      "midi": 66,
      "hit": false,
      "t": 42999.999999999985,
      "d": 250,
      "v": 63
    },
    {
      "midi": 71,
      "hit": false,
      "t": 42999.999999999985,
      "d": 250,
      "v": 63
    },
    {
      "midi": 74,
      "hit": false,
      "t": 42999.999999999985,
      "d": 250,
      "v": 63
    },
    {
      "midi": 35,
      "hit": false,
      "t": 42999.99999999999,
      "d": 250,
      "v": 64
    },
    {
      "midi": 47,
      "hit": false,
      "t": 42999.99999999999,
      "d": 250,
      "v": 64
    },
    {
      "midi": 64,
      "hit": false,
      "t": 43249.999999999985,
      "d": 250,
      "v": 63
    },
    {
      "midi": 69,
      "hit": false,
      "t": 43249.999999999985,
      "d": 250,
      "v": 63
    },
    {
      "midi": 73,
      "hit": false,
      "t": 43249.999999999985,
      "d": 250,
      "v": 63
    },
    {
      "midi": 76,
      "hit": false,
      "t": 43249.999999999985,
      "d": 250,
      "v": 63
    },
    {
      "midi": 33,
      "hit": false,
      "t": 43249.99999999999,
      "d": 250,
      "v": 64
    },
    {
      "midi": 45,
      "hit": false,
      "t": 43249.99999999999,
      "d": 250,
      "v": 64
    },
    {
      "midi": 25,
      "hit": false,
      "t": 43499.99999999999,
      "d": 250,
      "v": 64
    },
    {
      "midi": 38,
      "hit": false,
      "t": 43499.99999999999,
      "d": 250,
      "v": 64
    },
    {
      "midi": 66,
      "hit": false,
      "t": 43500,
      "d": 250,
      "v": 64
    },
    {
      "midi": 69,
      "hit": false,
      "t": 43500,
      "d": 250,
      "v": 64
    },
    {
      "midi": 74,
      "hit": false,
      "t": 43500,
      "d": 250,
      "v": 64
    },
    {
      "midi": 78,
      "hit": false,
      "t": 43500,
      "d": 250,
      "v": 64
    },
    {
      "midi": 50,
      "hit": false,
      "t": 43749.99999999999,
      "d": 125,
      "v": 64
    },
    {
      "midi": 62,
      "hit": false,
      "t": 43749.99999999999,
      "d": 125,
      "v": 64
    },
    {
      "midi": 69,
      "hit": false,
      "t": 43750,
      "d": 83.33333333333576,
      "v": 64
    },
    {
      "midi": 74,
      "hit": false,
      "t": 43750,
      "d": 83.33333333333576,
      "v": 64
    },
    {
      "midi": 78,
      "hit": false,
      "t": 43750,
      "d": 83.33333333333576,
      "v": 64
    },
    {
      "midi": 66,
      "hit": false,
      "t": 43833.333333333336,
      "d": 83.33333333333576,
      "v": 64
    },
    {
      "midi": 50,
      "hit": false,
      "t": 43874.99999999999,
      "d": 125,
      "v": 64
    },
    {
      "midi": 62,
      "hit": false,
      "t": 43874.99999999999,
      "d": 125,
      "v": 64
    },
    {
      "midi": 69,
      "hit": false,
      "t": 43916.66666666667,
      "d": 333.33333333333576,
      "v": 64
    },
    {
      "midi": 74,
      "hit": false,
      "t": 43916.66666666667,
      "d": 333.33333333333576,
      "v": 64
    },
    {
      "midi": 78,
      "hit": false,
      "t": 43916.66666666667,
      "d": 333.33333333333576,
      "v": 64
    },
    {
      "midi": 50,
      "hit": false,
      "t": 43999.99999999999,
      "d": 250,
      "v": 64
    },
    {
      "midi": 62,
      "hit": false,
      "t": 43999.99999999999,
      "d": 250,
      "v": 64
    },
    {
      "midi": 66,
      "hit": false,
      "t": 44000.00000000001,
      "d": 250,
      "v": 64
    },
    {
      "midi": 49,
      "hit": false,
      "t": 44249.99999999999,
      "d": 250,
      "v": 64
    },
    {
      "midi": 61,
      "hit": false,
      "t": 44249.99999999999,
      "d": 250,
      "v": 64
    },
    {
      "midi": 68,
      "hit": false,
      "t": 44250.00000000001,
      "d": 250,
      "v": 64
    },
    {
      "midi": 73,
      "hit": false,
      "t": 44250.00000000001,
      "d": 250,
      "v": 64
    },
    {
      "midi": 77,
      "hit": false,
      "t": 44250.00000000001,
      "d": 250,
      "v": 64
    },
    {
      "midi": 80,
      "hit": false,
      "t": 44250.00000000001,
      "d": 250,
      "v": 64
    },
    {
      "midi": 42,
      "hit": false,
      "t": 44499.99999999999,
      "d": 250,
      "v": 64
    },
    {
      "midi": 54,
      "hit": false,
      "t": 44499.99999999999,
      "d": 250,
      "v": 64
    },
    {
      "midi": 69,
      "hit": false,
      "t": 44500.00000000001,
      "d": 250,
      "v": 64
    },
    {
      "midi": 73,
      "hit": false,
      "t": 44500.00000000001,
      "d": 250,
      "v": 64
    },
    {
      "midi": 78,
      "hit": false,
      "t": 44500.00000000001,
      "d": 250,
      "v": 64
    },
    {
      "midi": 81,
      "hit": false,
      "t": 44500.00000000001,
      "d": 250,
      "v": 64
    },
    {
      "midi": 40,
      "hit": false,
      "t": 44749.99999999999,
      "d": 250,
      "v": 64
    },
    {
      "midi": 52,
      "hit": false,
      "t": 44749.99999999999,
      "d": 250,
      "v": 64
    },
    {
      "midi": 71,
      "hit": false,
      "t": 44750.00000000001,
      "d": 250,
      "v": 64
    },
    {
      "midi": 76,
      "hit": false,
      "t": 44750.00000000001,
      "d": 250,
      "v": 64
    },
    {
      "midi": 80,
      "hit": false,
      "t": 44750.00000000001,
      "d": 250,
      "v": 64
    },
    {
      "midi": 83,
      "hit": false,
      "t": 44750.00000000001,
      "d": 250,
      "v": 64
    },
    {
      "midi": 33,
      "hit": false,
      "t": 44999.999999999985,
      "d": 250,
      "v": 107
    },
    {
      "midi": 45,
      "hit": false,
      "t": 44999.999999999985,
      "d": 250,
      "v": 107
    },
    {
      "midi": 73,
      "hit": false,
      "t": 45000.00000000001,
      "d": 250,
      "v": 64
    },
    {
      "midi": 79,
      "hit": false,
      "t": 45000.00000000001,
      "d": 250,
      "v": 64
    },
    {
      "midi": 85,
      "hit": false,
      "t": 45000.00000000001,
      "d": 250,
      "v": 64
    },
    {
      "midi": 57,
      "hit": false,
      "t": 45249.999999999985,
      "d": 125,
      "v": 107
    },
    {
      "midi": 64,
      "hit": false,
      "t": 45249.999999999985,
      "d": 125,
      "v": 107
    },
    {
      "midi": 67,
      "hit": false,
      "t": 45249.999999999985,
      "d": 125,
      "v": 107
    },
    {
      "midi": 73,
      "hit": false,
      "t": 45250.00000000001,
      "d": 125,
      "v": 64
    },
    {
      "midi": 79,
      "hit": false,
      "t": 45250.00000000001,
      "d": 125,
      "v": 64
    },
    {
      "midi": 85,
      "hit": false,
      "t": 45250.00000000001,
      "d": 125,
      "v": 64
    },
    {
      "midi": 57,
      "hit": false,
      "t": 45374.999999999985,
      "d": 125,
      "v": 107
    },
    {
      "midi": 64,
      "hit": false,
      "t": 45374.999999999985,
      "d": 125,
      "v": 107
    },
    {
      "midi": 67,
      "hit": false,
      "t": 45374.999999999985,
      "d": 125,
      "v": 107
    },
    {
      "midi": 69,
      "hit": false,
      "t": 45374.999999999985,
      "d": 125,
      "v": 107
    },
    {
      "midi": 73,
      "hit": false,
      "t": 45375.00000000001,
      "d": 125,
      "v": 64
    },
    {
      "midi": 79,
      "hit": false,
      "t": 45375.00000000001,
      "d": 125,
      "v": 64
    },
    {
      "midi": 85,
      "hit": false,
      "t": 45375.00000000001,
      "d": 125,
      "v": 64
    },
    {
      "midi": 57,
      "hit": false,
      "t": 45499.999999999985,
      "d": 250,
      "v": 107
    },
    {
      "midi": 64,
      "hit": false,
      "t": 45499.999999999985,
      "d": 250,
      "v": 107
    },
    {
      "midi": 67,
      "hit": false,
      "t": 45499.999999999985,
      "d": 250,
      "v": 107
    },
    {
      "midi": 69,
      "hit": false,
      "t": 45499.999999999985,
      "d": 250,
      "v": 107
    },
    {
      "midi": 73,
      "hit": false,
      "t": 45500.00000000001,
      "d": 250,
      "v": 64
    },
    {
      "midi": 79,
      "hit": false,
      "t": 45500.00000000001,
      "d": 250,
      "v": 64
    },
    {
      "midi": 85,
      "hit": false,
      "t": 45500.00000000001,
      "d": 250,
      "v": 64
    },
    {
      "midi": 57,
      "hit": false,
      "t": 45749.999999999985,
      "d": 125,
      "v": 107
    },
    {
      "midi": 64,
      "hit": false,
      "t": 45749.999999999985,
      "d": 125,
      "v": 107
    },
    {
      "midi": 67,
      "hit": false,
      "t": 45749.999999999985,
      "d": 125,
      "v": 107
    },
    {
      "midi": 69,
      "hit": false,
      "t": 45749.999999999985,
      "d": 125,
      "v": 107
    },
    {
      "midi": 73,
      "hit": false,
      "t": 45750.00000000001,
      "d": 125,
      "v": 64
    },
    {
      "midi": 79,
      "hit": false,
      "t": 45750.00000000001,
      "d": 125,
      "v": 64
    },
    {
      "midi": 83,
      "hit": false,
      "t": 45750.00000000001,
      "d": 125,
      "v": 64
    },
    {
      "midi": 57,
      "hit": false,
      "t": 45874.999999999985,
      "d": 125,
      "v": 107
    },
    {
      "midi": 64,
      "hit": false,
      "t": 45874.999999999985,
      "d": 125,
      "v": 107
    },
    {
      "midi": 67,
      "hit": false,
      "t": 45874.999999999985,
      "d": 125,
      "v": 107
    },
    {
      "midi": 69,
      "hit": false,
      "t": 45874.999999999985,
      "d": 125,
      "v": 107
    },
    {
      "midi": 73,
      "hit": false,
      "t": 45875.00000000001,
      "d": 125,
      "v": 64
    },
    {
      "midi": 79,
      "hit": false,
      "t": 45875.00000000001,
      "d": 125,
      "v": 64
    },
    {
      "midi": 81,
      "hit": false,
      "t": 45875.00000000001,
      "d": 125,
      "v": 64
    },
    {
      "midi": 57,
      "hit": false,
      "t": 45999.999999999985,
      "d": 250,
      "v": 107
    },
    {
      "midi": 66,
      "hit": false,
      "t": 45999.999999999985,
      "d": 250,
      "v": 107
    },
    {
      "midi": 69,
      "hit": false,
      "t": 45999.999999999985,
      "d": 250,
      "v": 107
    },
    {
      "midi": 74,
      "hit": false,
      "t": 46000.00000000001,
      "d": 250,
      "v": 64
    },
    {
      "midi": 78,
      "hit": false,
      "t": 46000.00000000001,
      "d": 250,
      "v": 64
    },
    {
      "midi": 86,
      "hit": false,
      "t": 46000.00000000001,
      "d": 250,
      "v": 64
    },
    {
      "midi": 58,
      "hit": false,
      "t": 46249.999999999985,
      "d": 250,
      "v": 107
    },
    {
      "midi": 60,
      "hit": false,
      "t": 46249.999999999985,
      "d": 250,
      "v": 107
    },
    {
      "midi": 66,
      "hit": false,
      "t": 46249.999999999985,
      "d": 250,
      "v": 107
    },
    {
      "midi": 69,
      "hit": false,
      "t": 46249.999999999985,
      "d": 250,
      "v": 107
    },
    {
      "midi": 75,
      "hit": false,
      "t": 46250.00000000001,
      "d": 250,
      "v": 64
    },
    {
      "midi": 81,
      "hit": false,
      "t": 46250.00000000001,
      "d": 250,
      "v": 64
    },
    {
      "midi": 87,
      "hit": false,
      "t": 46250.00000000001,
      "d": 250,
      "v": 64
    },
    {
      "midi": 57,
      "hit": false,
      "t": 46499.999999999985,
      "d": 250,
      "v": 107
    },
    {
      "midi": 61,
      "hit": false,
      "t": 46499.999999999985,
      "d": 250,
      "v": 107
    },
    {
      "midi": 67,
      "hit": false,
      "t": 46499.999999999985,
      "d": 250,
      "v": 107
    },
    {
      "midi": 69,
      "hit": false,
      "t": 46499.999999999985,
      "d": 250,
      "v": 107
    },
    {
      "midi": 76,
      "hit": false,
      "t": 46500.00000000001,
      "d": 250,
      "v": 64
    },
    {
      "midi": 81,
      "hit": false,
      "t": 46500.00000000001,
      "d": 250,
      "v": 64
    },
    {
      "midi": 88,
      "hit": false,
      "t": 46500.00000000001,
      "d": 250,
      "v": 64
    },
    {
      "midi": 33,
      "hit": false,
      "t": 46749.999999999985,
      "d": 125,
      "v": 107
    },
    {
      "midi": 45,
      "hit": false,
      "t": 46749.999999999985,
      "d": 125,
      "v": 107
    },
    {
      "midi": 81,
      "hit": false,
      "t": 46750.00000000001,
      "d": 125,
      "v": 64
    },
    {
      "midi": 93,
      "hit": false,
      "t": 46750.00000000001,
      "d": 125,
      "v": 64
    },
    {
      "midi": 33,
      "hit": false,
      "t": 46874.999999999985,
      "d": 125,
      "v": 107
    },
    {
      "midi": 45,
      "hit": false,
      "t": 46874.999999999985,
      "d": 125,
      "v": 107
    },
    {
      "midi": 81,
      "hit": false,
      "t": 46875.00000000001,
      "d": 125,
      "v": 64
    },
    {
      "midi": 93,
      "hit": false,
      "t": 46875.00000000001,
      "d": 125,
      "v": 64
    },
    {
      "midi": 33,
      "hit": false,
      "t": 46999.999999999985,
      "d": 250,
      "v": 107
    },
    {
      "midi": 45,
      "hit": false,
      "t": 46999.999999999985,
      "d": 250,
      "v": 107
    },
    {
      "midi": 81,
      "hit": false,
      "t": 47000.00000000001,
      "d": 250,
      "v": 64
    },
    {
      "midi": 93,
      "hit": false,
      "t": 47000.00000000001,
      "d": 250,
      "v": 64
    },
    {
      "midi": 34,
      "hit": false,
      "t": 47249.999999999985,
      "d": 125,
      "v": 107
    },
    {
      "midi": 46,
      "hit": false,
      "t": 47249.999999999985,
      "d": 125,
      "v": 107
    },
    {
      "midi": 80,
      "hit": false,
      "t": 47250.00000000001,
      "d": 125,
      "v": 64
    },
    {
      "midi": 92,
      "hit": false,
      "t": 47250.00000000001,
      "d": 125,
      "v": 64
    },
    {
      "midi": 33,
      "hit": false,
      "t": 47374.999999999985,
      "d": 125,
      "v": 107
    },
    {
      "midi": 45,
      "hit": false,
      "t": 47374.999999999985,
      "d": 125,
      "v": 107
    },
    {
      "midi": 81,
      "hit": false,
      "t": 47375.00000000001,
      "d": 125,
      "v": 64
    },
    {
      "midi": 93,
      "hit": false,
      "t": 47375.00000000001,
      "d": 125,
      "v": 64
    },
    {
      "midi": 32,
      "hit": false,
      "t": 47499.999999999985,
      "d": 125,
      "v": 107
    },
    {
      "midi": 44,
      "hit": false,
      "t": 47499.999999999985,
      "d": 125,
      "v": 107
    },
    {
      "midi": 82,
      "hit": false,
      "t": 47500.00000000001,
      "d": 125,
      "v": 64
    },
    {
      "midi": 94,
      "hit": false,
      "t": 47500.00000000001,
      "d": 125,
      "v": 64
    },
    {
      "midi": 31,
      "hit": false,
      "t": 47624.999999999985,
      "d": 125,
      "v": 107
    },
    {
      "midi": 43,
      "hit": false,
      "t": 47624.999999999985,
      "d": 125,
      "v": 107
    },
    {
      "midi": 83,
      "hit": false,
      "t": 47625.00000000001,
      "d": 125,
      "v": 64
    },
    {
      "midi": 95,
      "hit": false,
      "t": 47625.00000000001,
      "d": 125,
      "v": 64
    },
    {
      "midi": 30,
      "hit": false,
      "t": 47749.999999999985,
      "d": 125,
      "v": 107
    },
    {
      "midi": 42,
      "hit": false,
      "t": 47749.999999999985,
      "d": 125,
      "v": 107
    },
    {
      "midi": 84,
      "hit": false,
      "t": 47750.00000000001,
      "d": 125,
      "v": 64
    },
    {
      "midi": 96,
      "hit": false,
      "t": 47750.00000000001,
      "d": 125,
      "v": 64
    },
    {
      "midi": 28,
      "hit": false,
      "t": 47874.999999999985,
      "d": 125,
      "v": 107
    },
    {
      "midi": 40,
      "hit": false,
      "t": 47874.999999999985,
      "d": 125,
      "v": 107
    },
    {
      "midi": 85,
      "hit": false,
      "t": 47875.00000000001,
      "d": 125,
      "v": 64
    },
    {
      "midi": 97,
      "hit": false,
      "t": 47875.00000000001,
      "d": 125,
      "v": 64
    },
    {
      "midi": 26,
      "hit": false,
      "t": 47999.99999999999,
      "d": 250,
      "v": 64
    },
    {
      "midi": 38,
      "hit": false,
      "t": 47999.99999999999,
      "d": 250,
      "v": 64
    },
    {
      "midi": 86,
      "hit": false,
      "t": 48000.00000000001,
      "d": 1000,
      "v": 64
    },
    {
      "midi": 98,
      "hit": false,
      "t": 48000.00000000001,
      "d": 1000,
      "v": 64
    },
    {
      "midi": 54,
      "hit": false,
      "t": 48249.99999999999,
      "d": 125,
      "v": 64
    },
    {
      "midi": 57,
      "hit": false,
      "t": 48249.99999999999,
      "d": 125,
      "v": 64
    },
    {
      "midi": 62,
      "hit": false,
      "t": 48249.99999999999,
      "d": 125,
      "v": 64
    },
    {
      "midi": 54,
      "hit": false,
      "t": 48374.99999999999,
      "d": 125,
      "v": 64
    },
    {
      "midi": 57,
      "hit": false,
      "t": 48374.99999999999,
      "d": 125,
      "v": 64
    },
    {
      "midi": 62,
      "hit": false,
      "t": 48374.99999999999,
      "d": 125,
      "v": 64
    },
    {
      "midi": 54,
      "hit": false,
      "t": 48499.99999999999,
      "d": 250,
      "v": 64
    },
    {
      "midi": 57,
      "hit": false,
      "t": 48499.99999999999,
      "d": 250,
      "v": 64
    },
    {
      "midi": 62,
      "hit": false,
      "t": 48499.99999999999,
      "d": 250,
      "v": 64
    },
    {
      "midi": 54,
      "hit": false,
      "t": 48749.99999999999,
      "d": 250,
      "v": 64
    },
    {
      "midi": 57,
      "hit": false,
      "t": 48749.99999999999,
      "d": 250,
      "v": 64
    },
    {
      "midi": 62,
      "hit": false,
      "t": 48749.99999999999,
      "d": 250,
      "v": 64
    },
    {
      "midi": 55,
      "hit": false,
      "t": 48999.99999999999,
      "d": 250,
      "v": 64
    },
    {
      "midi": 57,
      "hit": false,
      "t": 48999.99999999999,
      "d": 250,
      "v": 64
    },
    {
      "midi": 61,
      "hit": false,
      "t": 48999.99999999999,
      "d": 250,
      "v": 64
    },
    {
      "midi": 81,
      "hit": false,
      "t": 49000.00000000001,
      "d": 500,
      "v": 64
    },
    {
      "midi": 93,
      "hit": false,
      "t": 49000.00000000001,
      "d": 500,
      "v": 64
    },
    {
      "midi": 55,
      "hit": false,
      "t": 49249.99999999999,
      "d": 250,
      "v": 64
    },
    {
      "midi": 57,
      "hit": false,
      "t": 49249.99999999999,
      "d": 250,
      "v": 64
    },
    {
      "midi": 61,
      "hit": false,
      "t": 49249.99999999999,
      "d": 250,
      "v": 64
    },
    {
      "midi": 38,
      "hit": false,
      "t": 49499.99999999999,
      "d": 250,
      "v": 64
    },
    {
      "midi": 50,
      "hit": false,
      "t": 49499.99999999999,
      "d": 250,
      "v": 64
    },
    {
      "midi": 74,
      "hit": false,
      "t": 49500.00000000001,
      "d": 250,
      "v": 64
    },
    {
      "midi": 86,
      "hit": false,
      "t": 49500.00000000001,
      "d": 250,
      "v": 64
    },
    {
      "midi": 50,
      "hit": false,
      "t": 49749.99999999999,
      "d": 125,
      "v": 64
    },
    {
      "midi": 54,
      "hit": false,
      "t": 49749.99999999999,
      "d": 125,
      "v": 64
    },
    {
      "midi": 62,
      "hit": false,
      "t": 49749.99999999999,
      "d": 125,
      "v": 64
    },
    {
      "midi": 50,
      "hit": false,
      "t": 49874.99999999999,
      "d": 125,
      "v": 64
    },
    {
      "midi": 54,
      "hit": false,
      "t": 49874.99999999999,
      "d": 125,
      "v": 64
    },
    {
      "midi": 62,
      "hit": false,
      "t": 49874.99999999999,
      "d": 125,
      "v": 64
    },
    {
      "midi": 69,
      "hit": false,
      "t": 49875.00000000001,
      "d": 125,
      "v": 64
    },
    {
      "midi": 81,
      "hit": false,
      "t": 49875.00000000001,
      "d": 125,
      "v": 64
    },
    {
      "midi": 50,
      "hit": false,
      "t": 49999.99999999999,
      "d": 250,
      "v": 64
    },
    {
      "midi": 54,
      "hit": false,
      "t": 49999.99999999999,
      "d": 250,
      "v": 64
    },
    {
      "midi": 62,
      "hit": false,
      "t": 49999.99999999999,
      "d": 250,
      "v": 64
    },
    {
      "midi": 74,
      "hit": false,
      "t": 50000.00000000001,
      "d": 1000,
      "v": 64
    },
    {
      "midi": 86,
      "hit": false,
      "t": 50000.00000000001,
      "d": 1000,
      "v": 64
    },
    {
      "midi": 54,
      "hit": false,
      "t": 50249.99999999999,
      "d": 250,
      "v": 64
    },
    {
      "midi": 57,
      "hit": false,
      "t": 50249.99999999999,
      "d": 250,
      "v": 64
    },
    {
      "midi": 62,
      "hit": false,
      "t": 50249.99999999999,
      "d": 250,
      "v": 64
    },
    {
      "midi": 52,
      "hit": false,
      "t": 50499.99999999999,
      "d": 250,
      "v": 64
    },
    {
      "midi": 55,
      "hit": false,
      "t": 50499.99999999999,
      "d": 250,
      "v": 64
    },
    {
      "midi": 62,
      "hit": false,
      "t": 50499.99999999999,
      "d": 250,
      "v": 64
    },
    {
      "midi": 50,
      "hit": false,
      "t": 50749.99999999999,
      "d": 250,
      "v": 64
    },
    {
      "midi": 54,
      "hit": false,
      "t": 50749.99999999999,
      "d": 250,
      "v": 64
    },
    {
      "midi": 62,
      "hit": false,
      "t": 50749.99999999999,
      "d": 250,
      "v": 64
    },
    {
      "midi": 33,
      "hit": false,
      "t": 50999.99999999999,
      "d": 250,
      "v": 64
    },
    {
      "midi": 45,
      "hit": false,
      "t": 50999.99999999999,
      "d": 250,
      "v": 64
    },
    {
      "midi": 81,
      "hit": false,
      "t": 51000.00000000001,
      "d": 1000,
      "v": 64
    },
    {
      "midi": 93,
      "hit": false,
      "t": 51000.00000000001,
      "d": 1000,
      "v": 64
    },
    {
      "midi": 49,
      "hit": false,
      "t": 51249.99999999999,
      "d": 125,
      "v": 64
    },
    {
      "midi": 52,
      "hit": false,
      "t": 51249.99999999999,
      "d": 125,
      "v": 64
    },
    {
      "midi": 57,
      "hit": false,
      "t": 51249.99999999999,
      "d": 125,
      "v": 64
    },
    {
      "midi": 49,
      "hit": false,
      "t": 51374.99999999999,
      "d": 125,
      "v": 64
    },
    {
      "midi": 52,
      "hit": false,
      "t": 51374.99999999999,
      "d": 125,
      "v": 64
    },
    {
      "midi": 57,
      "hit": false,
      "t": 51374.99999999999,
      "d": 125,
      "v": 64
    },
    {
      "midi": 49,
      "hit": false,
      "t": 51499.99999999999,
      "d": 250,
      "v": 64
    },
    {
      "midi": 52,
      "hit": false,
      "t": 51499.99999999999,
      "d": 250,
      "v": 64
    },
    {
      "midi": 57,
      "hit": false,
      "t": 51499.99999999999,
      "d": 250,
      "v": 64
    },
    {
      "midi": 49,
      "hit": false,
      "t": 51749.99999999999,
      "d": 250,
      "v": 64
    },
    {
      "midi": 52,
      "hit": false,
      "t": 51749.99999999999,
      "d": 250,
      "v": 64
    },
    {
      "midi": 57,
      "hit": false,
      "t": 51749.99999999999,
      "d": 250,
      "v": 64
    },
    {
      "midi": 47,
      "hit": false,
      "t": 51999.99999999999,
      "d": 250,
      "v": 64
    },
    {
      "midi": 50,
      "hit": false,
      "t": 51999.99999999999,
      "d": 250,
      "v": 64
    },
    {
      "midi": 57,
      "hit": false,
      "t": 51999.99999999999,
      "d": 250,
      "v": 64
    },
    {
      "midi": 76,
      "hit": false,
      "t": 52000.00000000001,
      "d": 500,
      "v": 64
    },
    {
      "midi": 88,
      "hit": false,
      "t": 52000.00000000001,
      "d": 500,
      "v": 64
    },
    {
      "midi": 47,
      "hit": false,
      "t": 52249.99999999999,
      "d": 250,
      "v": 64
    },
    {
      "midi": 50,
      "hit": false,
      "t": 52249.99999999999,
      "d": 250,
      "v": 64
    },
    {
      "midi": 57,
      "hit": false,
      "t": 52249.99999999999,
      "d": 250,
      "v": 64
    },
    {
      "midi": 33,
      "hit": false,
      "t": 52499.99999999999,
      "d": 250,
      "v": 64
    },
    {
      "midi": 45,
      "hit": false,
      "t": 52499.99999999999,
      "d": 250,
      "v": 64
    },
    {
      "midi": 69,
      "hit": false,
      "t": 52500.00000000001,
      "d": 250,
      "v": 64
    },
    {
      "midi": 81,
      "hit": false,
      "t": 52500.00000000001,
      "d": 250,
      "v": 64
    },
    {
      "midi": 49,
      "hit": false,
      "t": 52749.99999999999,
      "d": 125,
      "v": 64
    },
    {
      "midi": 52,
      "hit": false,
      "t": 52749.99999999999,
      "d": 125,
      "v": 64
    },
    {
      "midi": 57,
      "hit": false,
      "t": 52749.99999999999,
      "d": 125,
      "v": 64
    },
    {
      "midi": 49,
      "hit": false,
      "t": 52874.99999999999,
      "d": 125,
      "v": 64
    },
    {
      "midi": 52,
      "hit": false,
      "t": 52874.99999999999,
      "d": 125,
      "v": 64
    },
    {
      "midi": 57,
      "hit": false,
      "t": 52874.99999999999,
      "d": 125,
      "v": 64
    },
    {
      "midi": 64,
      "hit": false,
      "t": 52875.00000000001,
      "d": 125,
      "v": 64
    },
    {
      "midi": 76,
      "hit": false,
      "t": 52875.00000000001,
      "d": 125,
      "v": 64
    },
    {
      "midi": 49,
      "hit": false,
      "t": 52999.99999999999,
      "d": 250,
      "v": 64
    },
    {
      "midi": 52,
      "hit": false,
      "t": 52999.99999999999,
      "d": 250,
      "v": 64
    },
    {
      "midi": 57,
      "hit": false,
      "t": 52999.99999999999,
      "d": 250,
      "v": 64
    },
    {
      "midi": 69,
      "hit": false,
      "t": 53000.00000000001,
      "d": 1000,
      "v": 64
    },
    {
      "midi": 81,
      "hit": false,
      "t": 53000.00000000001,
      "d": 1000,
      "v": 64
    },
    {
      "midi": 49,
      "hit": false,
      "t": 53249.99999999999,
      "d": 250,
      "v": 64
    },
    {
      "midi": 52,
      "hit": false,
      "t": 53249.99999999999,
      "d": 250,
      "v": 64
    },
    {
      "midi": 57,
      "hit": false,
      "t": 53249.99999999999,
      "d": 250,
      "v": 64
    },
    {
      "midi": 47,
      "hit": false,
      "t": 53499.99999999999,
      "d": 250,
      "v": 64
    },
    {
      "midi": 50,
      "hit": false,
      "t": 53499.99999999999,
      "d": 250,
      "v": 64
    },
    {
      "midi": 57,
      "hit": false,
      "t": 53499.99999999999,
      "d": 250,
      "v": 64
    },
    {
      "midi": 45,
      "hit": false,
      "t": 53749.99999999999,
      "d": 250,
      "v": 64
    },
    {
      "midi": 49,
      "hit": false,
      "t": 53749.99999999999,
      "d": 250,
      "v": 64
    },
    {
      "midi": 57,
      "hit": false,
      "t": 53749.99999999999,
      "d": 250,
      "v": 64
    },
    {
      "midi": 69,
      "hit": false,
      "t": 53999.999999999985,
      "d": 250,
      "v": 63
    },
    {
      "midi": 75,
      "hit": false,
      "t": 53999.999999999985,
      "d": 250,
      "v": 63
    },
    {
      "midi": 81,
      "hit": false,
      "t": 53999.999999999985,
      "d": 250,
      "v": 63
    },
    {
      "midi": 29,
      "hit": false,
      "t": 53999.999999999985,
      "d": 250,
      "v": 107
    },
    {
      "midi": 41,
      "hit": false,
      "t": 53999.999999999985,
      "d": 250,
      "v": 107
    },
    {
      "midi": 69,
      "hit": false,
      "t": 54249.999999999985,
      "d": 125,
      "v": 63
    },
    {
      "midi": 75,
      "hit": false,
      "t": 54249.999999999985,
      "d": 125,
      "v": 63
    },
    {
      "midi": 81,
      "hit": false,
      "t": 54249.999999999985,
      "d": 125,
      "v": 63
    },
    {
      "midi": 53,
      "hit": false,
      "t": 54249.999999999985,
      "d": 125,
      "v": 107
    },
    {
      "midi": 60,
      "hit": false,
      "t": 54249.999999999985,
      "d": 125,
      "v": 107
    },
    {
      "midi": 63,
      "hit": false,
      "t": 54249.999999999985,
      "d": 125,
      "v": 107
    },
    {
      "midi": 65,
      "hit": false,
      "t": 54249.999999999985,
      "d": 125,
      "v": 107
    },
    {
      "midi": 69,
      "hit": false,
      "t": 54374.999999999985,
      "d": 125,
      "v": 63
    },
    {
      "midi": 75,
      "hit": false,
      "t": 54374.999999999985,
      "d": 125,
      "v": 63
    },
    {
      "midi": 81,
      "hit": false,
      "t": 54374.999999999985,
      "d": 125,
      "v": 63
    },
    {
      "midi": 53,
      "hit": false,
      "t": 54374.999999999985,
      "d": 125,
      "v": 107
    },
    {
      "midi": 60,
      "hit": false,
      "t": 54374.999999999985,
      "d": 125,
      "v": 107
    },
    {
      "midi": 63,
      "hit": false,
      "t": 54374.999999999985,
      "d": 125,
      "v": 107
    },
    {
      "midi": 65,
      "hit": false,
      "t": 54374.999999999985,
      "d": 125,
      "v": 107
    },
    {
      "midi": 69,
      "hit": false,
      "t": 54499.999999999985,
      "d": 250,
      "v": 63
    },
    {
      "midi": 75,
      "hit": false,
      "t": 54499.999999999985,
      "d": 250,
      "v": 63
    },
    {
      "midi": 81,
      "hit": false,
      "t": 54499.999999999985,
      "d": 250,
      "v": 63
    },
    {
      "midi": 53,
      "hit": false,
      "t": 54499.999999999985,
      "d": 250,
      "v": 107
    },
    {
      "midi": 60,
      "hit": false,
      "t": 54499.999999999985,
      "d": 250,
      "v": 107
    },
    {
      "midi": 63,
      "hit": false,
      "t": 54499.999999999985,
      "d": 250,
      "v": 107
    },
    {
      "midi": 65,
      "hit": false,
      "t": 54499.999999999985,
      "d": 250,
      "v": 107
    },
    {
      "midi": 69,
      "hit": false,
      "t": 54749.999999999985,
      "d": 125,
      "v": 63
    },
    {
      "midi": 75,
      "hit": false,
      "t": 54749.999999999985,
      "d": 125,
      "v": 63
    },
    {
      "midi": 79,
      "hit": false,
      "t": 54749.999999999985,
      "d": 125,
      "v": 63
    },
    {
      "midi": 53,
      "hit": false,
      "t": 54749.999999999985,
      "d": 125,
      "v": 107
    },
    {
      "midi": 60,
      "hit": false,
      "t": 54749.999999999985,
      "d": 125,
      "v": 107
    },
    {
      "midi": 63,
      "hit": false,
      "t": 54749.999999999985,
      "d": 125,
      "v": 107
    },
    {
      "midi": 65,
      "hit": false,
      "t": 54749.999999999985,
      "d": 125,
      "v": 107
    },
    {
      "midi": 69,
      "hit": false,
      "t": 54874.999999999985,
      "d": 125,
      "v": 63
    },
    {
      "midi": 76,
      "hit": false,
      "t": 54874.999999999985,
      "d": 125,
      "v": 63
    },
    {
      "midi": 78,
      "hit": false,
      "t": 54874.999999999985,
      "d": 125,
      "v": 63
    },
    {
      "midi": 81,
      "hit": false,
      "t": 54874.999999999985,
      "d": 125,
      "v": 63
    },
    {
      "midi": 53,
      "hit": false,
      "t": 54874.999999999985,
      "d": 125,
      "v": 107
    },
    {
      "midi": 60,
      "hit": false,
      "t": 54874.999999999985,
      "d": 125,
      "v": 107
    },
    {
      "midi": 63,
      "hit": false,
      "t": 54874.999999999985,
      "d": 125,
      "v": 107
    },
    {
      "midi": 65,
      "hit": false,
      "t": 54874.999999999985,
      "d": 125,
      "v": 107
    },
    {
      "midi": 70,
      "hit": false,
      "t": 54999.999999999985,
      "d": 250,
      "v": 63
    },
    {
      "midi": 74,
      "hit": false,
      "t": 54999.999999999985,
      "d": 250,
      "v": 63
    },
    {
      "midi": 78,
      "hit": false,
      "t": 54999.999999999985,
      "d": 250,
      "v": 63
    },
    {
      "midi": 82,
      "hit": false,
      "t": 54999.999999999985,
      "d": 250,
      "v": 63
    },
    {
      "midi": 58,
      "hit": false,
      "t": 54999.999999999985,
      "d": 250,
      "v": 107
    },
    {
      "midi": 62,
      "hit": false,
      "t": 54999.999999999985,
      "d": 250,
      "v": 107
    },
    {
      "midi": 65,
      "hit": false,
      "t": 54999.999999999985,
      "d": 250,
      "v": 107
    },
    {
      "midi": 70,
      "hit": false,
      "t": 55249.999999999985,
      "d": 250,
      "v": 63
    },
    {
      "midi": 74,
      "hit": false,
      "t": 55249.999999999985,
      "d": 250,
      "v": 63
    },
    {
      "midi": 78,
      "hit": false,
      "t": 55249.999999999985,
      "d": 250,
      "v": 63
    },
    {
      "midi": 34,
      "hit": false,
      "t": 55249.999999999985,
      "d": 250,
      "v": 107
    },
    {
      "midi": 46,
      "hit": false,
      "t": 55249.999999999985,
      "d": 250,
      "v": 107
    },
    {
      "midi": 71,
      "hit": false,
      "t": 55499.999999999985,
      "d": 250,
      "v": 63
    },
    {
      "midi": 77,
      "hit": false,
      "t": 55499.999999999985,
      "d": 250,
      "v": 63
    },
    {
      "midi": 83,
      "hit": false,
      "t": 55499.999999999985,
      "d": 250,
      "v": 63
    },
    {
      "midi": 31,
      "hit": false,
      "t": 55499.999999999985,
      "d": 250,
      "v": 107
    },
    {
      "midi": 43,
      "hit": false,
      "t": 55499.999999999985,
      "d": 250,
      "v": 107
    },
    {
      "midi": 71,
      "hit": false,
      "t": 55749.999999999985,
      "d": 125,
      "v": 63
    },
    {
      "midi": 77,
      "hit": false,
      "t": 55749.999999999985,
      "d": 125,
      "v": 63
    },
    {
      "midi": 83,
      "hit": false,
      "t": 55749.999999999985,
      "d": 125,
      "v": 63
    },
    {
      "midi": 55,
      "hit": false,
      "t": 55749.999999999985,
      "d": 125,
      "v": 107
    },
    {
      "midi": 62,
      "hit": false,
      "t": 55749.999999999985,
      "d": 125,
      "v": 107
    },
    {
      "midi": 65,
      "hit": false,
      "t": 55749.999999999985,
      "d": 125,
      "v": 107
    },
    {
      "midi": 67,
      "hit": false,
      "t": 55749.999999999985,
      "d": 125,
      "v": 107
    },
    {
      "midi": 71,
      "hit": false,
      "t": 55874.999999999985,
      "d": 125,
      "v": 63
    },
    {
      "midi": 77,
      "hit": false,
      "t": 55874.999999999985,
      "d": 125,
      "v": 63
    },
    {
      "midi": 83,
      "hit": false,
      "t": 55874.999999999985,
      "d": 125,
      "v": 63
    },
    {
      "midi": 55,
      "hit": false,
      "t": 55874.999999999985,
      "d": 125,
      "v": 107
    },
    {
      "midi": 62,
      "hit": false,
      "t": 55874.999999999985,
      "d": 125,
      "v": 107
    },
    {
      "midi": 65,
      "hit": false,
      "t": 55874.999999999985,
      "d": 125,
      "v": 107
    },
    {
      "midi": 67,
      "hit": false,
      "t": 55874.999999999985,
      "d": 125,
      "v": 107
    },
    {
      "midi": 71,
      "hit": false,
      "t": 55999.999999999985,
      "d": 250,
      "v": 63
    },
    {
      "midi": 77,
      "hit": false,
      "t": 55999.999999999985,
      "d": 250,
      "v": 63
    },
    {
      "midi": 83,
      "hit": false,
      "t": 55999.999999999985,
      "d": 250,
      "v": 63
    },
    {
      "midi": 55,
      "hit": false,
      "t": 55999.999999999985,
      "d": 250,
      "v": 107
    },
    {
      "midi": 62,
      "hit": false,
      "t": 55999.999999999985,
      "d": 250,
      "v": 107
    },
    {
      "midi": 65,
      "hit": false,
      "t": 55999.999999999985,
      "d": 250,
      "v": 107
    },
    {
      "midi": 67,
      "hit": false,
      "t": 55999.999999999985,
      "d": 250,
      "v": 107
    },
    {
      "midi": 71,
      "hit": false,
      "t": 56249.999999999985,
      "d": 125,
      "v": 63
    },
    {
      "midi": 77,
      "hit": false,
      "t": 56249.999999999985,
      "d": 125,
      "v": 63
    },
    {
      "midi": 81,
      "hit": false,
      "t": 56249.999999999985,
      "d": 125,
      "v": 63
    },
    {
      "midi": 55,
      "hit": false,
      "t": 56249.999999999985,
      "d": 125,
      "v": 107
    },
    {
      "midi": 62,
      "hit": false,
      "t": 56249.999999999985,
      "d": 125,
      "v": 107
    },
    {
      "midi": 65,
      "hit": false,
      "t": 56249.999999999985,
      "d": 125,
      "v": 107
    },
    {
      "midi": 67,
      "hit": false,
      "t": 56249.999999999985,
      "d": 125,
      "v": 107
    },
    {
      "midi": 71,
      "hit": false,
      "t": 56374.999999999985,
      "d": 125,
      "v": 63
    },
    {
      "midi": 77,
      "hit": false,
      "t": 56374.999999999985,
      "d": 125,
      "v": 63
    },
    {
      "midi": 79,
      "hit": false,
      "t": 56374.999999999985,
      "d": 125,
      "v": 63
    },
    {
      "midi": 83,
      "hit": false,
      "t": 56374.999999999985,
      "d": 125,
      "v": 63
    },
    {
      "midi": 55,
      "hit": false,
      "t": 56374.999999999985,
      "d": 125,
      "v": 107
    },
    {
      "midi": 62,
      "hit": false,
      "t": 56374.999999999985,
      "d": 125,
      "v": 107
    },
    {
      "midi": 65,
      "hit": false,
      "t": 56374.999999999985,
      "d": 125,
      "v": 107
    },
    {
      "midi": 67,
      "hit": false,
      "t": 56374.999999999985,
      "d": 125,
      "v": 107
    },
    {
      "midi": 72,
      "hit": false,
      "t": 56499.999999999985,
      "d": 250,
      "v": 63
    },
    {
      "midi": 76,
      "hit": false,
      "t": 56499.999999999985,
      "d": 250,
      "v": 63
    },
    {
      "midi": 79,
      "hit": false,
      "t": 56499.999999999985,
      "d": 250,
      "v": 63
    },
    {
      "midi": 84,
      "hit": false,
      "t": 56499.999999999985,
      "d": 250,
      "v": 63
    },
    {
      "midi": 60,
      "hit": false,
      "t": 56499.999999999985,
      "d": 250,
      "v": 107
    },
    {
      "midi": 64,
      "hit": false,
      "t": 56499.999999999985,
      "d": 250,
      "v": 107
    },
    {
      "midi": 67,
      "hit": false,
      "t": 56499.999999999985,
      "d": 250,
      "v": 107
    },
    {
      "midi": 72,
      "hit": false,
      "t": 56749.999999999985,
      "d": 250,
      "v": 63
    },
    {
      "midi": 76,
      "hit": false,
      "t": 56749.999999999985,
      "d": 250,
      "v": 63
    },
    {
      "midi": 79,
      "hit": false,
      "t": 56749.999999999985,
      "d": 250,
      "v": 63
    },
    {
      "midi": 36,
      "hit": false,
      "t": 56749.999999999985,
      "d": 250,
      "v": 107
    },
    {
      "midi": 48,
      "hit": false,
      "t": 56749.999999999985,
      "d": 250,
      "v": 107
    },
    {
      "midi": 73,
      "hit": false,
      "t": 56999.999999999985,
      "d": 250,
      "v": 63
    },
    {
      "midi": 79,
      "hit": false,
      "t": 56999.999999999985,
      "d": 250,
      "v": 63
    },
    {
      "midi": 85,
      "hit": false,
      "t": 56999.999999999985,
      "d": 250,
      "v": 63
    },
    {
      "midi": 33,
      "hit": false,
      "t": 56999.999999999985,
      "d": 250,
      "v": 107
    },
    {
      "midi": 45,
      "hit": false,
      "t": 56999.999999999985,
      "d": 250,
      "v": 107
    },
    {
      "midi": 73,
      "hit": false,
      "t": 57249.999999999985,
      "d": 125,
      "v": 63
    },
    {
      "midi": 79,
      "hit": false,
      "t": 57249.999999999985,
      "d": 125,
      "v": 63
    },
    {
      "midi": 85,
      "hit": false,
      "t": 57249.999999999985,
      "d": 125,
      "v": 63
    },
    {
      "midi": 57,
      "hit": false,
      "t": 57249.999999999985,
      "d": 125,
      "v": 107
    },
    {
      "midi": 61,
      "hit": false,
      "t": 57249.999999999985,
      "d": 125,
      "v": 107
    },
    {
      "midi": 64,
      "hit": false,
      "t": 57249.999999999985,
      "d": 125,
      "v": 107
    },
    {
      "midi": 67,
      "hit": false,
      "t": 57249.999999999985,
      "d": 125,
      "v": 107
    },
    {
      "midi": 69,
      "hit": false,
      "t": 57249.999999999985,
      "d": 125,
      "v": 107
    },
    {
      "midi": 76,
      "hit": false,
      "t": 57374.999999999985,
      "d": 125,
      "v": 63
    },
    {
      "midi": 79,
      "hit": false,
      "t": 57374.999999999985,
      "d": 125,
      "v": 63
    },
    {
      "midi": 86,
      "hit": false,
      "t": 57374.999999999985,
      "d": 125,
      "v": 63
    },
    {
      "midi": 57,
      "hit": false,
      "t": 57374.999999999985,
      "d": 125,
      "v": 107
    },
    {
      "midi": 61,
      "hit": false,
      "t": 57374.999999999985,
      "d": 125,
      "v": 107
    },
    {
      "midi": 64,
      "hit": false,
      "t": 57374.999999999985,
      "d": 125,
      "v": 107
    },
    {
      "midi": 67,
      "hit": false,
      "t": 57374.999999999985,
      "d": 125,
      "v": 107
    },
    {
      "midi": 69,
      "hit": false,
      "t": 57374.999999999985,
      "d": 125,
      "v": 107
    },
    {
      "midi": 76,
      "hit": false,
      "t": 57499.999999999985,
      "d": 250,
      "v": 63
    },
    {
      "midi": 79,
      "hit": false,
      "t": 57499.999999999985,
      "d": 250,
      "v": 63
    },
    {
      "midi": 88,
      "hit": false,
      "t": 57499.999999999985,
      "d": 250,
      "v": 63
    },
    {
      "midi": 57,
      "hit": false,
      "t": 57499.999999999985,
      "d": 250,
      "v": 107
    },
    {
      "midi": 61,
      "hit": false,
      "t": 57499.999999999985,
      "d": 250,
      "v": 107
    },
    {
      "midi": 64,
      "hit": false,
      "t": 57499.999999999985,
      "d": 250,
      "v": 107
    },
    {
      "midi": 67,
      "hit": false,
      "t": 57499.999999999985,
      "d": 250,
      "v": 107
    },
    {
      "midi": 69,
      "hit": false,
      "t": 57499.999999999985,
      "d": 250,
      "v": 107
    },
    {
      "midi": 73,
      "hit": false,
      "t": 57749.999999999985,
      "d": 125,
      "v": 63
    },
    {
      "midi": 79,
      "hit": false,
      "t": 57749.999999999985,
      "d": 125,
      "v": 63
    },
    {
      "midi": 85,
      "hit": false,
      "t": 57749.999999999985,
      "d": 125,
      "v": 63
    },
    {
      "midi": 57,
      "hit": false,
      "t": 57749.999999999985,
      "d": 125,
      "v": 107
    },
    {
      "midi": 61,
      "hit": false,
      "t": 57749.999999999985,
      "d": 125,
      "v": 107
    },
    {
      "midi": 64,
      "hit": false,
      "t": 57749.999999999985,
      "d": 125,
      "v": 107
    },
    {
      "midi": 67,
      "hit": false,
      "t": 57749.999999999985,
      "d": 125,
      "v": 107
    },
    {
      "midi": 69,
      "hit": false,
      "t": 57749.999999999985,
      "d": 125,
      "v": 107
    },
    {
      "midi": 74,
      "hit": false,
      "t": 57874.999999999985,
      "d": 125,
      "v": 63
    },
    {
      "midi": 86,
      "hit": false,
      "t": 57874.999999999985,
      "d": 125,
      "v": 63
    },
    {
      "midi": 57,
      "hit": false,
      "t": 57874.999999999985,
      "d": 125,
      "v": 107
    },
    {
      "midi": 61,
      "hit": false,
      "t": 57874.999999999985,
      "d": 125,
      "v": 107
    },
    {
      "midi": 64,
      "hit": false,
      "t": 57874.999999999985,
      "d": 125,
      "v": 107
    },
    {
      "midi": 67,
      "hit": false,
      "t": 57874.999999999985,
      "d": 125,
      "v": 107
    },
    {
      "midi": 69,
      "hit": false,
      "t": 57874.999999999985,
      "d": 125,
      "v": 107
    },
    {
      "midi": 76,
      "hit": false,
      "t": 57999.999999999985,
      "d": 125,
      "v": 63
    },
    {
      "midi": 88,
      "hit": false,
      "t": 57999.999999999985,
      "d": 125,
      "v": 63
    },
    {
      "midi": 57,
      "hit": false,
      "t": 57999.999999999985,
      "d": 250,
      "v": 107
    },
    {
      "midi": 61,
      "hit": false,
      "t": 57999.999999999985,
      "d": 250,
      "v": 107
    },
    {
      "midi": 64,
      "hit": false,
      "t": 57999.999999999985,
      "d": 250,
      "v": 107
    },
    {
      "midi": 67,
      "hit": false,
      "t": 57999.999999999985,
      "d": 250,
      "v": 107
    },
    {
      "midi": 69,
      "hit": false,
      "t": 57999.999999999985,
      "d": 250,
      "v": 107
    },
    {
      "midi": 78,
      "hit": false,
      "t": 58124.999999999985,
      "d": 125,
      "v": 63
    },
    {
      "midi": 90,
      "hit": false,
      "t": 58124.999999999985,
      "d": 125,
      "v": 63
    },
    {
      "midi": 79,
      "hit": false,
      "t": 58249.999999999985,
      "d": 125,
      "v": 63
    },
    {
      "midi": 91,
      "hit": false,
      "t": 58249.999999999985,
      "d": 125,
      "v": 63
    },
    {
      "midi": 57,
      "hit": false,
      "t": 58249.999999999985,
      "d": 125,
      "v": 107
    },
    {
      "midi": 61,
      "hit": false,
      "t": 58249.999999999985,
      "d": 125,
      "v": 107
    },
    {
      "midi": 64,
      "hit": false,
      "t": 58249.999999999985,
      "d": 125,
      "v": 107
    },
    {
      "midi": 67,
      "hit": false,
      "t": 58249.999999999985,
      "d": 125,
      "v": 107
    },
    {
      "midi": 69,
      "hit": false,
      "t": 58249.999999999985,
      "d": 125,
      "v": 107
    },
    {
      "midi": 80,
      "hit": false,
      "t": 58374.999999999985,
      "d": 125,
      "v": 63
    },
    {
      "midi": 92,
      "hit": false,
      "t": 58374.999999999985,
      "d": 125,
      "v": 63
    },
    {
      "midi": 57,
      "hit": false,
      "t": 58374.999999999985,
      "d": 125,
      "v": 107
    },
    {
      "midi": 61,
      "hit": false,
      "t": 58374.999999999985,
      "d": 125,
      "v": 107
    },
    {
      "midi": 64,
      "hit": false,
      "t": 58374.999999999985,
      "d": 125,
      "v": 107
    },
    {
      "midi": 67,
      "hit": false,
      "t": 58374.999999999985,
      "d": 125,
      "v": 107
    },
    {
      "midi": 69,
      "hit": false,
      "t": 58374.999999999985,
      "d": 125,
      "v": 107
    },
    {
      "midi": 81,
      "hit": false,
      "t": 58499.999999999985,
      "d": 125,
      "v": 63
    },
    {
      "midi": 93,
      "hit": false,
      "t": 58499.999999999985,
      "d": 125,
      "v": 63
    },
    {
      "midi": 57,
      "hit": false,
      "t": 58499.999999999985,
      "d": 250,
      "v": 107
    },
    {
      "midi": 61,
      "hit": false,
      "t": 58499.999999999985,
      "d": 250,
      "v": 107
    },
    {
      "midi": 64,
      "hit": false,
      "t": 58499.999999999985,
      "d": 250,
      "v": 107
    },
    {
      "midi": 67,
      "hit": false,
      "t": 58499.999999999985,
      "d": 250,
      "v": 107
    },
    {
      "midi": 69,
      "hit": false,
      "t": 58499.999999999985,
      "d": 250,
      "v": 107
    },
    {
      "midi": 82,
      "hit": false,
      "t": 58624.999999999985,
      "d": 125,
      "v": 63
    },
    {
      "midi": 94,
      "hit": false,
      "t": 58624.999999999985,
      "d": 125,
      "v": 63
    },
    {
      "midi": 83,
      "hit": false,
      "t": 58749.999999999985,
      "d": 125,
      "v": 63
    },
    {
      "midi": 95,
      "hit": false,
      "t": 58749.999999999985,
      "d": 125,
      "v": 63
    },
    {
      "midi": 57,
      "hit": false,
      "t": 58749.999999999985,
      "d": 250,
      "v": 107
    },
    {
      "midi": 64,
      "hit": false,
      "t": 58749.999999999985,
      "d": 250,
      "v": 107
    },
    {
      "midi": 67,
      "hit": false,
      "t": 58749.999999999985,
      "d": 250,
      "v": 107
    },
    {
      "midi": 69,
      "hit": false,
      "t": 58749.999999999985,
      "d": 250,
      "v": 107
    },
    {
      "midi": 85,
      "hit": false,
      "t": 58874.999999999985,
      "d": 125,
      "v": 63
    },
    {
      "midi": 97,
      "hit": false,
      "t": 58874.999999999985,
      "d": 125,
      "v": 63
    },
    {
      "midi": 88,
      "hit": false,
      "t": 58999.999999999985,
      "d": 500,
      "v": 63
    },
    {
      "midi": 93,
      "hit": false,
      "t": 58999.999999999985,
      "d": 500,
      "v": 63
    },
    {
      "midi": 100,
      "hit": false,
      "t": 58999.999999999985,
      "d": 500,
      "v": 63
    },
    {
      "midi": 57,
      "hit": false,
      "t": 58999.999999999985,
      "d": 500,
      "v": 107
    },
    {
      "midi": 61,
      "hit": false,
      "t": 58999.999999999985,
      "d": 500,
      "v": 107
    },
    {
      "midi": 67,
      "hit": false,
      "t": 58999.999999999985,
      "d": 500,
      "v": 107
    },
    {
      "midi": 69,
      "hit": false,
      "t": 58999.999999999985,
      "d": 500,
      "v": 107
    },
    {
      "midi": 86,
      "hit": false,
      "t": 59499.999999999985,
      "d": 250,
      "v": 63
    },
    {
      "midi": 98,
      "hit": false,
      "t": 59499.999999999985,
      "d": 250,
      "v": 63
    },
    {
      "midi": 62,
      "hit": false,
      "t": 59499.999999999985,
      "d": 250,
      "v": 63
    },
    {
      "midi": 66,
      "hit": false,
      "t": 59499.999999999985,
      "d": 250,
      "v": 63
    },
    {
      "midi": 69,
      "hit": false,
      "t": 59499.999999999985,
      "d": 250,
      "v": 63
    },
    {
      "midi": 74,
      "hit": false,
      "t": 59999.999999999985,
      "d": 1000,
      "v": 63
    },
    {
      "midi": 25,
      "hit": false,
      "t": 59999.99999999999,
      "d": 250,
      "v": 64
    },
    {
      "midi": 38,
      "hit": false,
      "t": 59999.99999999999,
      "d": 250,
      "v": 64
    },
    {
      "midi": 54,
      "hit": false,
      "t": 60249.99999999999,
      "d": 125,
      "v": 64
    },
    {
      "midi": 57,
      "hit": false,
      "t": 60249.99999999999,
      "d": 125,
      "v": 64
    },
    {
      "midi": 62,
      "hit": false,
      "t": 60249.99999999999,
      "d": 125,
      "v": 64
    },
    {
      "midi": 54,
      "hit": false,
      "t": 60374.99999999999,
      "d": 125,
      "v": 64
    },
    {
      "midi": 57,
      "hit": false,
      "t": 60374.99999999999,
      "d": 125,
      "v": 64
    },
    {
      "midi": 62,
      "hit": false,
      "t": 60374.99999999999,
      "d": 125,
      "v": 64
    },
    {
      "midi": 54,
      "hit": false,
      "t": 60499.99999999999,
      "d": 250,
      "v": 64
    },
    {
      "midi": 57,
      "hit": false,
      "t": 60499.99999999999,
      "d": 250,
      "v": 64
    },
    {
      "midi": 62,
      "hit": false,
      "t": 60499.99999999999,
      "d": 250,
      "v": 64
    },
    {
      "midi": 54,
      "hit": false,
      "t": 60749.99999999999,
      "d": 250,
      "v": 64
    },
    {
      "midi": 57,
      "hit": false,
      "t": 60749.99999999999,
      "d": 250,
      "v": 64
    },
    {
      "midi": 62,
      "hit": false,
      "t": 60749.99999999999,
      "d": 250,
      "v": 64
    },
    {
      "midi": 69,
      "hit": false,
      "t": 60999.999999999985,
      "d": 500,
      "v": 63
    },
    {
      "midi": 55,
      "hit": false,
      "t": 60999.99999999999,
      "d": 250,
      "v": 64
    },
    {
      "midi": 57,
      "hit": false,
      "t": 60999.99999999999,
      "d": 250,
      "v": 64
    },
    {
      "midi": 61,
      "hit": false,
      "t": 60999.99999999999,
      "d": 250,
      "v": 64
    },
    {
      "midi": 55,
      "hit": false,
      "t": 61249.99999999999,
      "d": 250,
      "v": 64
    },
    {
      "midi": 57,
      "hit": false,
      "t": 61249.99999999999,
      "d": 250,
      "v": 64
    },
    {
      "midi": 61,
      "hit": false,
      "t": 61249.99999999999,
      "d": 250,
      "v": 64
    },
    {
      "midi": 62,
      "hit": false,
      "t": 61499.999999999985,
      "d": 250,
      "v": 63
    },
    {
      "midi": 25,
      "hit": false,
      "t": 61499.99999999999,
      "d": 250,
      "v": 64
    },
    {
      "midi": 38,
      "hit": false,
      "t": 61499.99999999999,
      "d": 250,
      "v": 64
    },
    {
      "midi": 50,
      "hit": false,
      "t": 61749.99999999999,
      "d": 125,
      "v": 64
    },
    {
      "midi": 54,
      "hit": false,
      "t": 61749.99999999999,
      "d": 125,
      "v": 64
    },
    {
      "midi": 57,
      "hit": false,
      "t": 61874.999999999985,
      "d": 125,
      "v": 63
    },
    {
      "midi": 50,
      "hit": false,
      "t": 61874.99999999999,
      "d": 125,
      "v": 64
    },
    {
      "midi": 54,
      "hit": false,
      "t": 61874.99999999999,
      "d": 125,
      "v": 64
    },
    {
      "midi": 62,
      "hit": false,
      "t": 61999.999999999985,
      "d": 1000,
      "v": 63
    },
    {
      "midi": 50,
      "hit": false,
      "t": 61999.99999999999,
      "d": 250,
      "v": 64
    },
    {
      "midi": 54,
      "hit": false,
      "t": 61999.99999999999,
      "d": 250,
      "v": 64
    },
    {
      "midi": 54,
      "hit": false,
      "t": 62249.99999999999,
      "d": 250,
      "v": 64
    },
    {
      "midi": 57,
      "hit": false,
      "t": 62249.99999999999,
      "d": 250,
      "v": 64
    },
    {
      "midi": 52,
      "hit": false,
      "t": 62499.99999999999,
      "d": 250,
      "v": 64
    },
    {
      "midi": 55,
      "hit": false,
      "t": 62499.99999999999,
      "d": 250,
      "v": 64
    },
    {
      "midi": 57,
      "hit": false,
      "t": 62499.99999999999,
      "d": 250,
      "v": 64
    },
    {
      "midi": 50,
      "hit": false,
      "t": 62749.99999999999,
      "d": 250,
      "v": 64
    },
    {
      "midi": 54,
      "hit": false,
      "t": 62749.99999999999,
      "d": 250,
      "v": 64
    },
    {
      "midi": 57,
      "hit": false,
      "t": 62749.99999999999,
      "d": 250,
      "v": 64
    },
    {
      "midi": 74,
      "hit": false,
      "t": 62999.999999999985,
      "d": 1000,
      "v": 63
    },
    {
      "midi": 25,
      "hit": false,
      "t": 62999.99999999999,
      "d": 250,
      "v": 64
    },
    {
      "midi": 38,
      "hit": false,
      "t": 62999.99999999999,
      "d": 250,
      "v": 64
    },
    {
      "midi": 54,
      "hit": false,
      "t": 63249.99999999999,
      "d": 125,
      "v": 64
    },
    {
      "midi": 57,
      "hit": false,
      "t": 63249.99999999999,
      "d": 125,
      "v": 64
    },
    {
      "midi": 62,
      "hit": false,
      "t": 63249.99999999999,
      "d": 125,
      "v": 64
    },
    {
      "midi": 54,
      "hit": false,
      "t": 63374.99999999999,
      "d": 125,
      "v": 64
    },
    {
      "midi": 57,
      "hit": false,
      "t": 63374.99999999999,
      "d": 125,
      "v": 64
    },
    {
      "midi": 62,
      "hit": false,
      "t": 63374.99999999999,
      "d": 125,
      "v": 64
    },
    {
      "midi": 54,
      "hit": false,
      "t": 63499.99999999999,
      "d": 250,
      "v": 64
    },
    {
      "midi": 57,
      "hit": false,
      "t": 63499.99999999999,
      "d": 250,
      "v": 64
    },
    {
      "midi": 62,
      "hit": false,
      "t": 63499.99999999999,
      "d": 250,
      "v": 64
    },
    {
      "midi": 54,
      "hit": false,
      "t": 63749.99999999999,
      "d": 250,
      "v": 64
    },
    {
      "midi": 57,
      "hit": false,
      "t": 63749.99999999999,
      "d": 250,
      "v": 64
    },
    {
      "midi": 62,
      "hit": false,
      "t": 63749.99999999999,
      "d": 250,
      "v": 64
    },
    {
      "midi": 69,
      "hit": false,
      "t": 63999.999999999985,
      "d": 500,
      "v": 63
    },
    {
      "midi": 55,
      "hit": false,
      "t": 63999.99999999999,
      "d": 250,
      "v": 64
    },
    {
      "midi": 57,
      "hit": false,
      "t": 63999.99999999999,
      "d": 250,
      "v": 64
    },
    {
      "midi": 61,
      "hit": false,
      "t": 63999.99999999999,
      "d": 250,
      "v": 64
    },
    {
      "midi": 55,
      "hit": false,
      "t": 64249.99999999999,
      "d": 250,
      "v": 64
    },
    {
      "midi": 57,
      "hit": false,
      "t": 64249.99999999999,
      "d": 250,
      "v": 64
    },
    {
      "midi": 61,
      "hit": false,
      "t": 64249.99999999999,
      "d": 250,
      "v": 64
    },
    {
      "midi": 62,
      "hit": false,
      "t": 64499.999999999985,
      "d": 250,
      "v": 63
    },
    {
      "midi": 25,
      "hit": false,
      "t": 64499.99999999999,
      "d": 250,
      "v": 64
    },
    {
      "midi": 38,
      "hit": false,
      "t": 64499.99999999999,
      "d": 250,
      "v": 64
    },
    {
      "midi": 50,
      "hit": false,
      "t": 64749.99999999999,
      "d": 125,
      "v": 64
    },
    {
      "midi": 54,
      "hit": false,
      "t": 64749.99999999999,
      "d": 125,
      "v": 64
    },
    {
      "midi": 57,
      "hit": false,
      "t": 64874.999999999985,
      "d": 125,
      "v": 63
    },
    {
      "midi": 50,
      "hit": false,
      "t": 64874.99999999999,
      "d": 125,
      "v": 64
    },
    {
      "midi": 54,
      "hit": false,
      "t": 64874.99999999999,
      "d": 125,
      "v": 64
    },
    {
      "midi": 62,
      "hit": false,
      "t": 64999.999999999985,
      "d": 1000,
      "v": 63
    },
    {
      "midi": 50,
      "hit": false,
      "t": 64999.99999999999,
      "d": 250,
      "v": 64
    },
    {
      "midi": 54,
      "hit": false,
      "t": 64999.99999999999,
      "d": 250,
      "v": 64
    },
    {
      "midi": 54,
      "hit": false,
      "t": 65249.99999999999,
      "d": 250,
      "v": 64
    },
    {
      "midi": 57,
      "hit": false,
      "t": 65249.99999999999,
      "d": 250,
      "v": 64
    },
    {
      "midi": 52,
      "hit": false,
      "t": 65499.99999999999,
      "d": 250.00000000000728,
      "v": 64
    },
    {
      "midi": 55,
      "hit": false,
      "t": 65499.99999999999,
      "d": 250.00000000000728,
      "v": 64
    },
    {
      "midi": 57,
      "hit": false,
      "t": 65499.99999999999,
      "d": 250.00000000000728,
      "v": 64
    },
    {
      "midi": 50,
      "hit": false,
      "t": 65750,
      "d": 250,
      "v": 64
    },
    {
      "midi": 54,
      "hit": false,
      "t": 65750,
      "d": 250,
      "v": 64
    },
    {
      "midi": 57,
      "hit": false,
      "t": 65750,
      "d": 250,
      "v": 64
    },
    {
      "midi": 69,
      "hit": false,
      "t": 65999.99999999999,
      "d": 1000,
      "v": 63
    },
    {
      "midi": 33,
      "hit": false,
      "t": 66000,
      "d": 250,
      "v": 64
    },
    {
      "midi": 45,
      "hit": false,
      "t": 66000,
      "d": 250,
      "v": 64
    },
    {
      "midi": 49,
      "hit": false,
      "t": 66250,
      "d": 125,
      "v": 64
    },
    {
      "midi": 52,
      "hit": false,
      "t": 66250,
      "d": 125,
      "v": 64
    },
    {
      "midi": 57,
      "hit": false,
      "t": 66250,
      "d": 125,
      "v": 64
    },
    {
      "midi": 49,
      "hit": false,
      "t": 66375,
      "d": 125,
      "v": 64
    },
    {
      "midi": 52,
      "hit": false,
      "t": 66375,
      "d": 125,
      "v": 64
    },
    {
      "midi": 57,
      "hit": false,
      "t": 66375,
      "d": 125,
      "v": 64
    },
    {
      "midi": 49,
      "hit": false,
      "t": 66500,
      "d": 250,
      "v": 64
    },
    {
      "midi": 52,
      "hit": false,
      "t": 66500,
      "d": 250,
      "v": 64
    },
    {
      "midi": 57,
      "hit": false,
      "t": 66500,
      "d": 250,
      "v": 64
    },
    {
      "midi": 49,
      "hit": false,
      "t": 66750,
      "d": 250,
      "v": 64
    },
    {
      "midi": 52,
      "hit": false,
      "t": 66750,
      "d": 250,
      "v": 64
    },
    {
      "midi": 57,
      "hit": false,
      "t": 66750,
      "d": 250,
      "v": 64
    },
    {
      "midi": 64,
      "hit": false,
      "t": 66999.99999999999,
      "d": 500,
      "v": 63
    },
    {
      "midi": 47,
      "hit": false,
      "t": 67000,
      "d": 250,
      "v": 64
    },
    {
      "midi": 50,
      "hit": false,
      "t": 67000,
      "d": 250,
      "v": 64
    },
    {
      "midi": 57,
      "hit": false,
      "t": 67000,
      "d": 250,
      "v": 64
    },
    {
      "midi": 47,
      "hit": false,
      "t": 67250,
      "d": 250,
      "v": 64
    },
    {
      "midi": 50,
      "hit": false,
      "t": 67250,
      "d": 250,
      "v": 64
    },
    {
      "midi": 57,
      "hit": false,
      "t": 67250,
      "d": 250,
      "v": 64
    },
    {
      "midi": 57,
      "hit": false,
      "t": 67499.99999999999,
      "d": 250,
      "v": 63
    },
    {
      "midi": 33,
      "hit": false,
      "t": 67500,
      "d": 250,
      "v": 64
    },
    {
      "midi": 45,
      "hit": false,
      "t": 67500,
      "d": 250,
      "v": 64
    },
    {
      "midi": 45,
      "hit": false,
      "t": 67750,
      "d": 125,
      "v": 64
    },
    {
      "midi": 49,
      "hit": false,
      "t": 67750,
      "d": 125,
      "v": 64
    },
    {
      "midi": 52,
      "hit": false,
      "t": 67874.99999999999,
      "d": 125,
      "v": 63
    },
    {
      "midi": 45,
      "hit": false,
      "t": 67875,
      "d": 125,
      "v": 64
    },
    {
      "midi": 49,
      "hit": false,
      "t": 67875,
      "d": 125,
      "v": 64
    },
    {
      "midi": 57,
      "hit": false,
      "t": 67999.99999999999,
      "d": 1000,
      "v": 63
    },
    {
      "midi": 45,
      "hit": false,
      "t": 68000,
      "d": 250,
      "v": 64
    },
    {
      "midi": 49,
      "hit": false,
      "t": 68000,
      "d": 250,
      "v": 64
    },
    {
      "midi": 49,
      "hit": false,
      "t": 68250,
      "d": 250,
      "v": 64
    },
    {
      "midi": 52,
      "hit": false,
      "t": 68250,
      "d": 250,
      "v": 64
    },
    {
      "midi": 47,
      "hit": false,
      "t": 68500,
      "d": 250,
      "v": 64
    },
    {
      "midi": 50,
      "hit": false,
      "t": 68500,
      "d": 250,
      "v": 64
    },
    {
      "midi": 52,
      "hit": false,
      "t": 68500,
      "d": 250,
      "v": 64
    },
    {
      "midi": 45,
      "hit": false,
      "t": 68750,
      "d": 250,
      "v": 64
    },
    {
      "midi": 49,
      "hit": false,
      "t": 68750,
      "d": 250,
      "v": 64
    },
    {
      "midi": 52,
      "hit": false,
      "t": 68750,
      "d": 250,
      "v": 64
    },
    {
      "midi": 59,
      "hit": false,
      "t": 68999.99999999999,
      "d": 250,
      "v": 63
    },
    {
      "midi": 31,
      "hit": false,
      "t": 69000,
      "d": 250,
      "v": 64
    },
    {
      "midi": 43,
      "hit": false,
      "t": 69000,
      "d": 250,
      "v": 64
    },
    {
      "midi": 62,
      "hit": false,
      "t": 69249.99999999999,
      "d": 83.33333333332848,
      "v": 63
    },
    {
      "midi": 67,
      "hit": false,
      "t": 69249.99999999999,
      "d": 83.33333333332848,
      "v": 63
    },
    {
      "midi": 71,
      "hit": false,
      "t": 69249.99999999999,
      "d": 83.33333333332848,
      "v": 63
    },
    {
      "midi": 43,
      "hit": false,
      "t": 69250,
      "d": 125,
      "v": 64
    },
    {
      "midi": 55,
      "hit": false,
      "t": 69250,
      "d": 125,
      "v": 64
    },
    {
      "midi": 59,
      "hit": false,
      "t": 69333.33333333331,
      "d": 83.33333333332848,
      "v": 63
    },
    {
      "midi": 43,
      "hit": false,
      "t": 69375,
      "d": 125,
      "v": 64
    },
    {
      "midi": 55,
      "hit": false,
      "t": 69375,
      "d": 125,
      "v": 64
    },
    {
      "midi": 62,
      "hit": false,
      "t": 69416.66666666664,
      "d": 333.3333333333285,
      "v": 63
    },
    {
      "midi": 67,
      "hit": false,
      "t": 69416.66666666664,
      "d": 333.3333333333285,
      "v": 63
    },
    {
      "midi": 71,
      "hit": false,
      "t": 69416.66666666664,
      "d": 333.3333333333285,
      "v": 63
    },
    {
      "midi": 59,
      "hit": false,
      "t": 69499.99999999997,
      "d": 250,
      "v": 63
    },
    {
      "midi": 43,
      "hit": false,
      "t": 69500,
      "d": 250,
      "v": 64
    },
    {
      "midi": 55,
      "hit": false,
      "t": 69500,
      "d": 250,
      "v": 64
    },
    {
      "midi": 61,
      "hit": false,
      "t": 69749.99999999997,
      "d": 250,
      "v": 63
    },
    {
      "midi": 66,
      "hit": false,
      "t": 69749.99999999997,
      "d": 250,
      "v": 63
    },
    {
      "midi": 70,
      "hit": false,
      "t": 69749.99999999997,
      "d": 250,
      "v": 63
    },
    {
      "midi": 73,
      "hit": false,
      "t": 69749.99999999997,
      "d": 250,
      "v": 63
    },
    {
      "midi": 42,
      "hit": false,
      "t": 69750,
      "d": 250,
      "v": 64
    },
    {
      "midi": 54,
      "hit": false,
      "t": 69750,
      "d": 250,
      "v": 64
    },
    {
      "midi": 62,
      "hit": false,
      "t": 69999.99999999997,
      "d": 250,
      "v": 63
    },
    {
      "midi": 66,
      "hit": false,
      "t": 69999.99999999997,
      "d": 250,
      "v": 63
    },
    {
      "midi": 71,
      "hit": false,
      "t": 69999.99999999997,
      "d": 250,
      "v": 63
    },
    {
      "midi": 74,
      "hit": false,
      "t": 69999.99999999997,
      "d": 250,
      "v": 63
    },
    {
      "midi": 35,
      "hit": false,
      "t": 70000,
      "d": 250,
      "v": 64
    },
    {
      "midi": 47,
      "hit": false,
      "t": 70000,
      "d": 250,
      "v": 64
    },
    {
      "midi": 64,
      "hit": false,
      "t": 70249.99999999997,
      "d": 250,
      "v": 63
    },
    {
      "midi": 69,
      "hit": false,
      "t": 70249.99999999997,
      "d": 250,
      "v": 63
    },
    {
      "midi": 73,
      "hit": false,
      "t": 70249.99999999997,
      "d": 250,
      "v": 63
    },
    {
      "midi": 76,
      "hit": false,
      "t": 70249.99999999997,
      "d": 250,
      "v": 63
    },
    {
      "midi": 33,
      "hit": false,
      "t": 70250,
      "d": 250,
      "v": 64
    },
    {
      "midi": 45,
      "hit": false,
      "t": 70250,
      "d": 250,
      "v": 64
    },
    {
      "midi": 66,
      "hit": false,
      "t": 70500,
      "d": 250,
      "v": 64
    },
    {
      "midi": 69,
      "hit": false,
      "t": 70500,
      "d": 250,
      "v": 64
    },
    {
      "midi": 74,
      "hit": false,
      "t": 70500,
      "d": 250,
      "v": 64
    },
    {
      "midi": 78,
      "hit": false,
      "t": 70500,
      "d": 250,
      "v": 64
    },
    {
      "midi": 25,
      "hit": false,
      "t": 70500,
      "d": 250,
      "v": 64
    },
    {
      "midi": 38,
      "hit": false,
      "t": 70500,
      "d": 250,
      "v": 64
    },
    {
      "midi": 69,
      "hit": false,
      "t": 70750,
      "d": 83.33333333332848,
      "v": 64
    },
    {
      "midi": 74,
      "hit": false,
      "t": 70750,
      "d": 83.33333333332848,
      "v": 64
    },
    {
      "midi": 78,
      "hit": false,
      "t": 70750,
      "d": 83.33333333332848,
      "v": 64
    },
    {
      "midi": 50,
      "hit": false,
      "t": 70750,
      "d": 125,
      "v": 64
    },
    {
      "midi": 62,
      "hit": false,
      "t": 70750,
      "d": 125,
      "v": 64
    },
    {
      "midi": 66,
      "hit": false,
      "t": 70833.33333333333,
      "d": 83.33333333332848,
      "v": 64
    },
    {
      "midi": 50,
      "hit": false,
      "t": 70875,
      "d": 125,
      "v": 64
    },
    {
      "midi": 62,
      "hit": false,
      "t": 70875,
      "d": 125,
      "v": 64
    },
    {
      "midi": 69,
      "hit": false,
      "t": 70916.66666666666,
      "d": 333.3333333333285,
      "v": 64
    },
    {
      "midi": 74,
      "hit": false,
      "t": 70916.66666666666,
      "d": 333.3333333333285,
      "v": 64
    },
    {
      "midi": 78,
      "hit": false,
      "t": 70916.66666666666,
      "d": 333.3333333333285,
      "v": 64
    },
    {
      "midi": 66,
      "hit": false,
      "t": 70999.99999999999,
      "d": 250,
      "v": 64
    },
    {
      "midi": 50,
      "hit": false,
      "t": 71000,
      "d": 250,
      "v": 64
    },
    {
      "midi": 62,
      "hit": false,
      "t": 71000,
      "d": 250,
      "v": 64
    },
    {
      "midi": 68,
      "hit": false,
      "t": 71249.99999999999,
      "d": 250,
      "v": 64
    },
    {
      "midi": 73,
      "hit": false,
      "t": 71249.99999999999,
      "d": 250,
      "v": 64
    },
    {
      "midi": 77,
      "hit": false,
      "t": 71249.99999999999,
      "d": 250,
      "v": 64
    },
    {
      "midi": 80,
      "hit": false,
      "t": 71249.99999999999,
      "d": 250,
      "v": 64
    },
    {
      "midi": 49,
      "hit": false,
      "t": 71250,
      "d": 250,
      "v": 64
    },
    {
      "midi": 61,
      "hit": false,
      "t": 71250,
      "d": 250,
      "v": 64
    },
    {
      "midi": 69,
      "hit": false,
      "t": 71499.99999999999,
      "d": 250,
      "v": 64
    },
    {
      "midi": 73,
      "hit": false,
      "t": 71499.99999999999,
      "d": 250,
      "v": 64
    },
    {
      "midi": 78,
      "hit": false,
      "t": 71499.99999999999,
      "d": 250,
      "v": 64
    },
    {
      "midi": 81,
      "hit": false,
      "t": 71499.99999999999,
      "d": 250,
      "v": 64
    },
    {
      "midi": 42,
      "hit": false,
      "t": 71500,
      "d": 250,
      "v": 64
    },
    {
      "midi": 54,
      "hit": false,
      "t": 71500,
      "d": 250,
      "v": 64
    },
    {
      "midi": 71,
      "hit": false,
      "t": 71749.99999999999,
      "d": 250,
      "v": 64
    },
    {
      "midi": 76,
      "hit": false,
      "t": 71749.99999999999,
      "d": 250,
      "v": 64
    },
    {
      "midi": 80,
      "hit": false,
      "t": 71749.99999999999,
      "d": 250,
      "v": 64
    },
    {
      "midi": 83,
      "hit": false,
      "t": 71749.99999999999,
      "d": 250,
      "v": 64
    },
    {
      "midi": 40,
      "hit": false,
      "t": 71750,
      "d": 250,
      "v": 64
    },
    {
      "midi": 52,
      "hit": false,
      "t": 71750,
      "d": 250,
      "v": 64
    },
    {
      "midi": 73,
      "hit": false,
      "t": 71999.99999999997,
      "d": 250,
      "v": 63
    },
    {
      "midi": 79,
      "hit": false,
      "t": 71999.99999999997,
      "d": 250,
      "v": 63
    },
    {
      "midi": 85,
      "hit": false,
      "t": 71999.99999999997,
      "d": 250,
      "v": 63
    },
    {
      "midi": 45,
      "hit": false,
      "t": 71999.99999999999,
      "d": 250,
      "v": 64
    },
    {
      "midi": 57,
      "hit": false,
      "t": 71999.99999999999,
      "d": 250,
      "v": 64
    },
    {
      "midi": 73,
      "hit": false,
      "t": 72249.99999999997,
      "d": 125,
      "v": 63
    },
    {
      "midi": 79,
      "hit": false,
      "t": 72249.99999999997,
      "d": 125,
      "v": 63
    },
    {
      "midi": 85,
      "hit": false,
      "t": 72249.99999999997,
      "d": 125,
      "v": 63
    },
    {
      "midi": 69,
      "hit": false,
      "t": 72249.99999999999,
      "d": 125,
      "v": 64
    },
    {
      "midi": 76,
      "hit": false,
      "t": 72249.99999999999,
      "d": 125,
      "v": 64
    },
    {
      "midi": 79,
      "hit": false,
      "t": 72249.99999999999,
      "d": 125,
      "v": 64
    },
    {
      "midi": 73,
      "hit": false,
      "t": 72374.99999999997,
      "d": 125,
      "v": 63
    },
    {
      "midi": 79,
      "hit": false,
      "t": 72374.99999999997,
      "d": 125,
      "v": 63
    },
    {
      "midi": 85,
      "hit": false,
      "t": 72374.99999999997,
      "d": 125,
      "v": 63
    },
    {
      "midi": 69,
      "hit": false,
      "t": 72374.99999999999,
      "d": 125,
      "v": 64
    },
    {
      "midi": 76,
      "hit": false,
      "t": 72374.99999999999,
      "d": 125,
      "v": 64
    },
    {
      "midi": 79,
      "hit": false,
      "t": 72374.99999999999,
      "d": 125,
      "v": 64
    },
    {
      "midi": 81,
      "hit": false,
      "t": 72374.99999999999,
      "d": 125,
      "v": 64
    },
    {
      "midi": 73,
      "hit": false,
      "t": 72499.99999999997,
      "d": 250,
      "v": 63
    },
    {
      "midi": 79,
      "hit": false,
      "t": 72499.99999999997,
      "d": 250,
      "v": 63
    },
    {
      "midi": 85,
      "hit": false,
      "t": 72499.99999999997,
      "d": 250,
      "v": 63
    },
    {
      "midi": 69,
      "hit": false,
      "t": 72499.99999999999,
      "d": 250,
      "v": 64
    },
    {
      "midi": 76,
      "hit": false,
      "t": 72499.99999999999,
      "d": 250,
      "v": 64
    },
    {
      "midi": 79,
      "hit": false,
      "t": 72499.99999999999,
      "d": 250,
      "v": 64
    },
    {
      "midi": 81,
      "hit": false,
      "t": 72499.99999999999,
      "d": 250,
      "v": 64
    },
    {
      "midi": 73,
      "hit": false,
      "t": 72749.99999999997,
      "d": 125,
      "v": 63
    },
    {
      "midi": 79,
      "hit": false,
      "t": 72749.99999999997,
      "d": 125,
      "v": 63
    },
    {
      "midi": 83,
      "hit": false,
      "t": 72749.99999999997,
      "d": 125,
      "v": 63
    },
    {
      "midi": 69,
      "hit": false,
      "t": 72749.99999999999,
      "d": 125,
      "v": 64
    },
    {
      "midi": 76,
      "hit": false,
      "t": 72749.99999999999,
      "d": 125,
      "v": 64
    },
    {
      "midi": 79,
      "hit": false,
      "t": 72749.99999999999,
      "d": 125,
      "v": 64
    },
    {
      "midi": 81,
      "hit": false,
      "t": 72749.99999999999,
      "d": 125,
      "v": 64
    },
    {
      "midi": 73,
      "hit": false,
      "t": 72874.99999999997,
      "d": 125,
      "v": 63
    },
    {
      "midi": 79,
      "hit": false,
      "t": 72874.99999999997,
      "d": 125,
      "v": 63
    },
    {
      "midi": 81,
      "hit": false,
      "t": 72874.99999999997,
      "d": 125,
      "v": 63
    },
    {
      "midi": 69,
      "hit": false,
      "t": 72874.99999999999,
      "d": 125,
      "v": 64
    },
    {
      "midi": 76,
      "hit": false,
      "t": 72874.99999999999,
      "d": 125,
      "v": 64
    },
    {
      "midi": 79,
      "hit": false,
      "t": 72874.99999999999,
      "d": 125,
      "v": 64
    },
    {
      "midi": 81,
      "hit": false,
      "t": 72874.99999999999,
      "d": 125,
      "v": 64
    },
    {
      "midi": 74,
      "hit": false,
      "t": 72999.99999999997,
      "d": 250,
      "v": 63
    },
    {
      "midi": 78,
      "hit": false,
      "t": 72999.99999999997,
      "d": 250,
      "v": 63
    },
    {
      "midi": 86,
      "hit": false,
      "t": 72999.99999999997,
      "d": 250,
      "v": 63
    },
    {
      "midi": 69,
      "hit": false,
      "t": 72999.99999999999,
      "d": 250,
      "v": 64
    },
    {
      "midi": 78,
      "hit": false,
      "t": 72999.99999999999,
      "d": 250,
      "v": 64
    },
    {
      "midi": 81,
      "hit": false,
      "t": 72999.99999999999,
      "d": 250,
      "v": 64
    },
    {
      "midi": 75,
      "hit": false,
      "t": 73249.99999999997,
      "d": 250,
      "v": 63
    },
    {
      "midi": 81,
      "hit": false,
      "t": 73249.99999999997,
      "d": 250,
      "v": 63
    },
    {
      "midi": 87,
      "hit": false,
      "t": 73249.99999999997,
      "d": 250,
      "v": 63
    },
    {
      "midi": 70,
      "hit": false,
      "t": 73249.99999999999,
      "d": 250,
      "v": 64
    },
    {
      "midi": 72,
      "hit": false,
      "t": 73249.99999999999,
      "d": 250,
      "v": 64
    },
    {
      "midi": 78,
      "hit": false,
      "t": 73249.99999999999,
      "d": 250,
      "v": 64
    },
    {
      "midi": 81,
      "hit": false,
      "t": 73249.99999999999,
      "d": 250,
      "v": 64
    },
    {
      "midi": 76,
      "hit": false,
      "t": 73499.99999999997,
      "d": 250,
      "v": 63
    },
    {
      "midi": 81,
      "hit": false,
      "t": 73499.99999999997,
      "d": 250,
      "v": 63
    },
    {
      "midi": 88,
      "hit": false,
      "t": 73499.99999999997,
      "d": 250,
      "v": 63
    },
    {
      "midi": 69,
      "hit": false,
      "t": 73499.99999999999,
      "d": 250,
      "v": 64
    },
    {
      "midi": 73,
      "hit": false,
      "t": 73499.99999999999,
      "d": 250,
      "v": 64
    },
    {
      "midi": 79,
      "hit": false,
      "t": 73499.99999999999,
      "d": 250,
      "v": 64
    },
    {
      "midi": 81,
      "hit": false,
      "t": 73499.99999999999,
      "d": 250,
      "v": 64
    },
    {
      "midi": 81,
      "hit": false,
      "t": 73749.99999999997,
      "d": 125,
      "v": 63
    },
    {
      "midi": 93,
      "hit": false,
      "t": 73749.99999999997,
      "d": 125,
      "v": 63
    },
    {
      "midi": 45,
      "hit": false,
      "t": 73749.99999999999,
      "d": 125,
      "v": 64
    },
    {
      "midi": 57,
      "hit": false,
      "t": 73749.99999999999,
      "d": 125,
      "v": 64
    },
    {
      "midi": 81,
      "hit": false,
      "t": 73874.99999999997,
      "d": 125,
      "v": 63
    },
    {
      "midi": 93,
      "hit": false,
      "t": 73874.99999999997,
      "d": 125,
      "v": 63
    },
    {
      "midi": 45,
      "hit": false,
      "t": 73874.99999999999,
      "d": 125,
      "v": 64
    },
    {
      "midi": 57,
      "hit": false,
      "t": 73874.99999999999,
      "d": 125,
      "v": 64
    },
    {
      "midi": 81,
      "hit": false,
      "t": 73999.99999999997,
      "d": 250,
      "v": 63
    },
    {
      "midi": 93,
      "hit": false,
      "t": 73999.99999999997,
      "d": 250,
      "v": 63
    },
    {
      "midi": 45,
      "hit": false,
      "t": 73999.99999999999,
      "d": 250,
      "v": 64
    },
    {
      "midi": 57,
      "hit": false,
      "t": 73999.99999999999,
      "d": 250,
      "v": 64
    },
    {
      "midi": 80,
      "hit": false,
      "t": 74249.99999999997,
      "d": 125,
      "v": 63
    },
    {
      "midi": 92,
      "hit": false,
      "t": 74249.99999999997,
      "d": 125,
      "v": 63
    },
    {
      "midi": 46,
      "hit": false,
      "t": 74249.99999999999,
      "d": 125,
      "v": 64
    },
    {
      "midi": 58,
      "hit": false,
      "t": 74249.99999999999,
      "d": 125,
      "v": 64
    },
    {
      "midi": 81,
      "hit": false,
      "t": 74374.99999999997,
      "d": 125,
      "v": 63
    },
    {
      "midi": 93,
      "hit": false,
      "t": 74374.99999999997,
      "d": 125,
      "v": 63
    },
    {
      "midi": 45,
      "hit": false,
      "t": 74374.99999999999,
      "d": 125,
      "v": 64
    },
    {
      "midi": 57,
      "hit": false,
      "t": 74374.99999999999,
      "d": 125,
      "v": 64
    },
    {
      "midi": 82,
      "hit": false,
      "t": 74499.99999999997,
      "d": 125,
      "v": 63
    },
    {
      "midi": 94,
      "hit": false,
      "t": 74499.99999999997,
      "d": 125,
      "v": 63
    },
    {
      "midi": 44,
      "hit": false,
      "t": 74499.99999999999,
      "d": 125,
      "v": 64
    },
    {
      "midi": 56,
      "hit": false,
      "t": 74499.99999999999,
      "d": 125,
      "v": 64
    },
    {
      "midi": 83,
      "hit": false,
      "t": 74624.99999999997,
      "d": 125,
      "v": 63
    },
    {
      "midi": 95,
      "hit": false,
      "t": 74624.99999999997,
      "d": 125,
      "v": 63
    },
    {
      "midi": 43,
      "hit": false,
      "t": 74624.99999999999,
      "d": 125,
      "v": 64
    },
    {
      "midi": 55,
      "hit": false,
      "t": 74624.99999999999,
      "d": 125,
      "v": 64
    },
    {
      "midi": 84,
      "hit": false,
      "t": 74749.99999999997,
      "d": 125,
      "v": 63
    },
    {
      "midi": 96,
      "hit": false,
      "t": 74749.99999999997,
      "d": 125,
      "v": 63
    },
    {
      "midi": 42,
      "hit": false,
      "t": 74749.99999999999,
      "d": 125,
      "v": 64
    },
    {
      "midi": 54,
      "hit": false,
      "t": 74749.99999999999,
      "d": 125,
      "v": 64
    },
    {
      "midi": 85,
      "hit": false,
      "t": 74874.99999999997,
      "d": 125,
      "v": 63
    },
    {
      "midi": 97,
      "hit": false,
      "t": 74874.99999999997,
      "d": 125,
      "v": 63
    },
    {
      "midi": 40,
      "hit": false,
      "t": 74874.99999999999,
      "d": 125,
      "v": 64
    },
    {
      "midi": 52,
      "hit": false,
      "t": 74874.99999999999,
      "d": 125,
      "v": 64
    },
    {
      "midi": 86,
      "hit": false,
      "t": 74999.99999999997,
      "d": 1000,
      "v": 63
    },
    {
      "midi": 98,
      "hit": false,
      "t": 74999.99999999997,
      "d": 1000,
      "v": 63
    },
    {
      "midi": 26,
      "hit": false,
      "t": 74999.99999999999,
      "d": 250,
      "v": 107
    },
    {
      "midi": 38,
      "hit": false,
      "t": 74999.99999999999,
      "d": 250,
      "v": 107
    },
    {
      "midi": 54,
      "hit": false,
      "t": 75249.99999999999,
      "d": 125,
      "v": 107
    },
    {
      "midi": 57,
      "hit": false,
      "t": 75249.99999999999,
      "d": 125,
      "v": 107
    },
    {
      "midi": 62,
      "hit": false,
      "t": 75249.99999999999,
      "d": 125,
      "v": 107
    },
    {
      "midi": 54,
      "hit": false,
      "t": 75374.99999999999,
      "d": 125,
      "v": 107
    },
    {
      "midi": 57,
      "hit": false,
      "t": 75374.99999999999,
      "d": 125,
      "v": 107
    },
    {
      "midi": 62,
      "hit": false,
      "t": 75374.99999999999,
      "d": 125,
      "v": 107
    },
    {
      "midi": 54,
      "hit": false,
      "t": 75499.99999999999,
      "d": 250,
      "v": 107
    },
    {
      "midi": 57,
      "hit": false,
      "t": 75499.99999999999,
      "d": 250,
      "v": 107
    },
    {
      "midi": 62,
      "hit": false,
      "t": 75499.99999999999,
      "d": 250,
      "v": 107
    },
    {
      "midi": 54,
      "hit": false,
      "t": 75749.99999999999,
      "d": 250,
      "v": 107
    },
    {
      "midi": 57,
      "hit": false,
      "t": 75749.99999999999,
      "d": 250,
      "v": 107
    },
    {
      "midi": 62,
      "hit": false,
      "t": 75749.99999999999,
      "d": 250,
      "v": 107
    },
    {
      "midi": 81,
      "hit": false,
      "t": 75999.99999999997,
      "d": 500,
      "v": 63
    },
    {
      "midi": 93,
      "hit": false,
      "t": 75999.99999999997,
      "d": 500,
      "v": 63
    },
    {
      "midi": 55,
      "hit": false,
      "t": 75999.99999999999,
      "d": 250,
      "v": 107
    },
    {
      "midi": 57,
      "hit": false,
      "t": 75999.99999999999,
      "d": 250,
      "v": 107
    },
    {
      "midi": 61,
      "hit": false,
      "t": 75999.99999999999,
      "d": 250,
      "v": 107
    },
    {
      "midi": 55,
      "hit": false,
      "t": 76249.99999999999,
      "d": 250,
      "v": 107
    },
    {
      "midi": 57,
      "hit": false,
      "t": 76249.99999999999,
      "d": 250,
      "v": 107
    },
    {
      "midi": 61,
      "hit": false,
      "t": 76249.99999999999,
      "d": 250,
      "v": 107
    },
    {
      "midi": 74,
      "hit": false,
      "t": 76499.99999999997,
      "d": 250,
      "v": 63
    },
    {
      "midi": 86,
      "hit": false,
      "t": 76499.99999999997,
      "d": 250,
      "v": 63
    },
    {
      "midi": 38,
      "hit": false,
      "t": 76499.99999999999,
      "d": 250,
      "v": 107
    },
    {
      "midi": 50,
      "hit": false,
      "t": 76499.99999999999,
      "d": 250,
      "v": 107
    },
    {
      "midi": 50,
      "hit": false,
      "t": 76749.99999999999,
      "d": 125,
      "v": 107
    },
    {
      "midi": 54,
      "hit": false,
      "t": 76749.99999999999,
      "d": 125,
      "v": 107
    },
    {
      "midi": 62,
      "hit": false,
      "t": 76749.99999999999,
      "d": 125,
      "v": 107
    },
    {
      "midi": 69,
      "hit": false,
      "t": 76874.99999999997,
      "d": 125,
      "v": 63
    },
    {
      "midi": 81,
      "hit": false,
      "t": 76874.99999999997,
      "d": 125,
      "v": 63
    },
    {
      "midi": 50,
      "hit": false,
      "t": 76874.99999999999,
      "d": 125,
      "v": 107
    },
    {
      "midi": 54,
      "hit": false,
      "t": 76874.99999999999,
      "d": 125,
      "v": 107
    },
    {
      "midi": 62,
      "hit": false,
      "t": 76874.99999999999,
      "d": 125,
      "v": 107
    },
    {
      "midi": 74,
      "hit": false,
      "t": 76999.99999999997,
      "d": 1000,
      "v": 63
    },
    {
      "midi": 86,
      "hit": false,
      "t": 76999.99999999997,
      "d": 1000,
      "v": 63
    },
    {
      "midi": 50,
      "hit": false,
      "t": 76999.99999999999,
      "d": 250,
      "v": 107
    },
    {
      "midi": 54,
      "hit": false,
      "t": 76999.99999999999,
      "d": 250,
      "v": 107
    },
    {
      "midi": 62,
      "hit": false,
      "t": 76999.99999999999,
      "d": 250,
      "v": 107
    },
    {
      "midi": 54,
      "hit": false,
      "t": 77249.99999999999,
      "d": 250,
      "v": 107
    },
    {
      "midi": 57,
      "hit": false,
      "t": 77249.99999999999,
      "d": 250,
      "v": 107
    },
    {
      "midi": 62,
      "hit": false,
      "t": 77249.99999999999,
      "d": 250,
      "v": 107
    },
    {
      "midi": 52,
      "hit": false,
      "t": 77499.99999999999,
      "d": 250,
      "v": 107
    },
    {
      "midi": 55,
      "hit": false,
      "t": 77499.99999999999,
      "d": 250,
      "v": 107
    },
    {
      "midi": 62,
      "hit": false,
      "t": 77499.99999999999,
      "d": 250,
      "v": 107
    },
    {
      "midi": 50,
      "hit": false,
      "t": 77749.99999999999,
      "d": 250,
      "v": 107
    },
    {
      "midi": 54,
      "hit": false,
      "t": 77749.99999999999,
      "d": 250,
      "v": 107
    },
    {
      "midi": 62,
      "hit": false,
      "t": 77749.99999999999,
      "d": 250,
      "v": 107
    },
    {
      "midi": 81,
      "hit": false,
      "t": 77999.99999999997,
      "d": 1000,
      "v": 63
    },
    {
      "midi": 93,
      "hit": false,
      "t": 77999.99999999997,
      "d": 1000,
      "v": 63
    },
    {
      "midi": 33,
      "hit": false,
      "t": 77999.99999999999,
      "d": 250,
      "v": 107
    },
    {
      "midi": 45,
      "hit": false,
      "t": 77999.99999999999,
      "d": 250,
      "v": 107
    },
    {
      "midi": 49,
      "hit": false,
      "t": 78249.99999999999,
      "d": 125,
      "v": 107
    },
    {
      "midi": 52,
      "hit": false,
      "t": 78249.99999999999,
      "d": 125,
      "v": 107
    },
    {
      "midi": 57,
      "hit": false,
      "t": 78249.99999999999,
      "d": 125,
      "v": 107
    },
    {
      "midi": 49,
      "hit": false,
      "t": 78374.99999999999,
      "d": 125,
      "v": 107
    },
    {
      "midi": 52,
      "hit": false,
      "t": 78374.99999999999,
      "d": 125,
      "v": 107
    },
    {
      "midi": 57,
      "hit": false,
      "t": 78374.99999999999,
      "d": 125,
      "v": 107
    },
    {
      "midi": 49,
      "hit": false,
      "t": 78499.99999999999,
      "d": 250,
      "v": 107
    },
    {
      "midi": 52,
      "hit": false,
      "t": 78499.99999999999,
      "d": 250,
      "v": 107
    },
    {
      "midi": 57,
      "hit": false,
      "t": 78499.99999999999,
      "d": 250,
      "v": 107
    },
    {
      "midi": 49,
      "hit": false,
      "t": 78749.99999999999,
      "d": 250,
      "v": 107
    },
    {
      "midi": 52,
      "hit": false,
      "t": 78749.99999999999,
      "d": 250,
      "v": 107
    },
    {
      "midi": 57,
      "hit": false,
      "t": 78749.99999999999,
      "d": 250,
      "v": 107
    },
    {
      "midi": 76,
      "hit": false,
      "t": 78999.99999999997,
      "d": 500,
      "v": 63
    },
    {
      "midi": 88,
      "hit": false,
      "t": 78999.99999999997,
      "d": 500,
      "v": 63
    },
    {
      "midi": 47,
      "hit": false,
      "t": 78999.99999999999,
      "d": 250,
      "v": 107
    },
    {
      "midi": 50,
      "hit": false,
      "t": 78999.99999999999,
      "d": 250,
      "v": 107
    },
    {
      "midi": 57,
      "hit": false,
      "t": 78999.99999999999,
      "d": 250,
      "v": 107
    },
    {
      "midi": 47,
      "hit": false,
      "t": 79249.99999999999,
      "d": 250,
      "v": 107
    },
    {
      "midi": 50,
      "hit": false,
      "t": 79249.99999999999,
      "d": 250,
      "v": 107
    },
    {
      "midi": 57,
      "hit": false,
      "t": 79249.99999999999,
      "d": 250,
      "v": 107
    },
    {
      "midi": 69,
      "hit": false,
      "t": 79499.99999999997,
      "d": 250,
      "v": 63
    },
    {
      "midi": 81,
      "hit": false,
      "t": 79499.99999999997,
      "d": 250,
      "v": 63
    },
    {
      "midi": 33,
      "hit": false,
      "t": 79499.99999999999,
      "d": 250,
      "v": 107
    },
    {
      "midi": 45,
      "hit": false,
      "t": 79499.99999999999,
      "d": 250,
      "v": 107
    },
    {
      "midi": 49,
      "hit": false,
      "t": 79749.99999999999,
      "d": 125,
      "v": 107
    },
    {
      "midi": 52,
      "hit": false,
      "t": 79749.99999999999,
      "d": 125,
      "v": 107
    },
    {
      "midi": 57,
      "hit": false,
      "t": 79749.99999999999,
      "d": 125,
      "v": 107
    },
    {
      "midi": 64,
      "hit": false,
      "t": 79874.99999999997,
      "d": 125,
      "v": 63
    },
    {
      "midi": 76,
      "hit": false,
      "t": 79874.99999999997,
      "d": 125,
      "v": 63
    },
    {
      "midi": 49,
      "hit": false,
      "t": 79874.99999999999,
      "d": 125,
      "v": 107
    },
    {
      "midi": 52,
      "hit": false,
      "t": 79874.99999999999,
      "d": 125,
      "v": 107
    },
    {
      "midi": 57,
      "hit": false,
      "t": 79874.99999999999,
      "d": 125,
      "v": 107
    },
    {
      "midi": 69,
      "hit": false,
      "t": 79999.99999999997,
      "d": 1000,
      "v": 63
    },
    {
      "midi": 81,
      "hit": false,
      "t": 79999.99999999997,
      "d": 1000,
      "v": 63
    },
    {
      "midi": 49,
      "hit": false,
      "t": 79999.99999999999,
      "d": 250,
      "v": 107
    },
    {
      "midi": 52,
      "hit": false,
      "t": 79999.99999999999,
      "d": 250,
      "v": 107
    },
    {
      "midi": 57,
      "hit": false,
      "t": 79999.99999999999,
      "d": 250,
      "v": 107
    },
    {
      "midi": 49,
      "hit": false,
      "t": 80249.99999999999,
      "d": 250,
      "v": 107
    },
    {
      "midi": 52,
      "hit": false,
      "t": 80249.99999999999,
      "d": 250,
      "v": 107
    },
    {
      "midi": 57,
      "hit": false,
      "t": 80249.99999999999,
      "d": 250,
      "v": 107
    },
    {
      "midi": 47,
      "hit": false,
      "t": 80499.99999999999,
      "d": 250,
      "v": 107
    },
    {
      "midi": 50,
      "hit": false,
      "t": 80499.99999999999,
      "d": 250,
      "v": 107
    },
    {
      "midi": 57,
      "hit": false,
      "t": 80499.99999999999,
      "d": 250,
      "v": 107
    },
    {
      "midi": 45,
      "hit": false,
      "t": 80749.99999999999,
      "d": 250,
      "v": 107
    },
    {
      "midi": 49,
      "hit": false,
      "t": 80749.99999999999,
      "d": 250,
      "v": 107
    },
    {
      "midi": 57,
      "hit": false,
      "t": 80749.99999999999,
      "d": 250,
      "v": 107
    },
    {
      "midi": 69,
      "hit": false,
      "t": 80999.99999999997,
      "d": 250,
      "v": 63
    },
    {
      "midi": 75,
      "hit": false,
      "t": 80999.99999999997,
      "d": 250,
      "v": 63
    },
    {
      "midi": 81,
      "hit": false,
      "t": 80999.99999999997,
      "d": 250,
      "v": 63
    },
    {
      "midi": 29,
      "hit": false,
      "t": 80999.99999999999,
      "d": 250,
      "v": 107
    },
    {
      "midi": 41,
      "hit": false,
      "t": 80999.99999999999,
      "d": 250,
      "v": 107
    },
    {
      "midi": 69,
      "hit": false,
      "t": 81249.99999999997,
      "d": 125,
      "v": 63
    },
    {
      "midi": 75,
      "hit": false,
      "t": 81249.99999999997,
      "d": 125,
      "v": 63
    },
    {
      "midi": 81,
      "hit": false,
      "t": 81249.99999999997,
      "d": 125,
      "v": 63
    },
    {
      "midi": 53,
      "hit": false,
      "t": 81249.99999999999,
      "d": 125,
      "v": 107
    },
    {
      "midi": 60,
      "hit": false,
      "t": 81249.99999999999,
      "d": 125,
      "v": 107
    },
    {
      "midi": 63,
      "hit": false,
      "t": 81249.99999999999,
      "d": 125,
      "v": 107
    },
    {
      "midi": 65,
      "hit": false,
      "t": 81249.99999999999,
      "d": 125,
      "v": 107
    },
    {
      "midi": 69,
      "hit": false,
      "t": 81374.99999999997,
      "d": 125,
      "v": 63
    },
    {
      "midi": 75,
      "hit": false,
      "t": 81374.99999999997,
      "d": 125,
      "v": 63
    },
    {
      "midi": 81,
      "hit": false,
      "t": 81374.99999999997,
      "d": 125,
      "v": 63
    },
    {
      "midi": 53,
      "hit": false,
      "t": 81374.99999999999,
      "d": 125,
      "v": 107
    },
    {
      "midi": 60,
      "hit": false,
      "t": 81374.99999999999,
      "d": 125,
      "v": 107
    },
    {
      "midi": 63,
      "hit": false,
      "t": 81374.99999999999,
      "d": 125,
      "v": 107
    },
    {
      "midi": 65,
      "hit": false,
      "t": 81374.99999999999,
      "d": 125,
      "v": 107
    },
    {
      "midi": 69,
      "hit": false,
      "t": 81499.99999999997,
      "d": 250,
      "v": 63
    },
    {
      "midi": 75,
      "hit": false,
      "t": 81499.99999999997,
      "d": 250,
      "v": 63
    },
    {
      "midi": 81,
      "hit": false,
      "t": 81499.99999999997,
      "d": 250,
      "v": 63
    },
    {
      "midi": 53,
      "hit": false,
      "t": 81499.99999999999,
      "d": 250,
      "v": 107
    },
    {
      "midi": 60,
      "hit": false,
      "t": 81499.99999999999,
      "d": 250,
      "v": 107
    },
    {
      "midi": 63,
      "hit": false,
      "t": 81499.99999999999,
      "d": 250,
      "v": 107
    },
    {
      "midi": 65,
      "hit": false,
      "t": 81499.99999999999,
      "d": 250,
      "v": 107
    },
    {
      "midi": 69,
      "hit": false,
      "t": 81749.99999999997,
      "d": 125,
      "v": 63
    },
    {
      "midi": 75,
      "hit": false,
      "t": 81749.99999999997,
      "d": 125,
      "v": 63
    },
    {
      "midi": 79,
      "hit": false,
      "t": 81749.99999999997,
      "d": 125,
      "v": 63
    },
    {
      "midi": 53,
      "hit": false,
      "t": 81749.99999999999,
      "d": 125,
      "v": 107
    },
    {
      "midi": 60,
      "hit": false,
      "t": 81749.99999999999,
      "d": 125,
      "v": 107
    },
    {
      "midi": 63,
      "hit": false,
      "t": 81749.99999999999,
      "d": 125,
      "v": 107
    },
    {
      "midi": 65,
      "hit": false,
      "t": 81749.99999999999,
      "d": 125,
      "v": 107
    },
    {
      "midi": 69,
      "hit": false,
      "t": 81874.99999999997,
      "d": 125,
      "v": 63
    },
    {
      "midi": 76,
      "hit": false,
      "t": 81874.99999999997,
      "d": 125,
      "v": 63
    },
    {
      "midi": 78,
      "hit": false,
      "t": 81874.99999999997,
      "d": 125,
      "v": 63
    },
    {
      "midi": 81,
      "hit": false,
      "t": 81874.99999999997,
      "d": 125,
      "v": 63
    },
    {
      "midi": 53,
      "hit": false,
      "t": 81874.99999999999,
      "d": 125,
      "v": 107
    },
    {
      "midi": 60,
      "hit": false,
      "t": 81874.99999999999,
      "d": 125,
      "v": 107
    },
    {
      "midi": 63,
      "hit": false,
      "t": 81874.99999999999,
      "d": 125,
      "v": 107
    },
    {
      "midi": 65,
      "hit": false,
      "t": 81874.99999999999,
      "d": 125,
      "v": 107
    },
    {
      "midi": 70,
      "hit": false,
      "t": 81999.99999999997,
      "d": 250,
      "v": 63
    },
    {
      "midi": 74,
      "hit": false,
      "t": 81999.99999999997,
      "d": 250,
      "v": 63
    },
    {
      "midi": 78,
      "hit": false,
      "t": 81999.99999999997,
      "d": 250,
      "v": 63
    },
    {
      "midi": 82,
      "hit": false,
      "t": 81999.99999999997,
      "d": 250,
      "v": 63
    },
    {
      "midi": 58,
      "hit": false,
      "t": 81999.99999999999,
      "d": 250,
      "v": 107
    },
    {
      "midi": 62,
      "hit": false,
      "t": 81999.99999999999,
      "d": 250,
      "v": 107
    },
    {
      "midi": 65,
      "hit": false,
      "t": 81999.99999999999,
      "d": 250,
      "v": 107
    },
    {
      "midi": 70,
      "hit": false,
      "t": 82249.99999999997,
      "d": 250,
      "v": 63
    },
    {
      "midi": 74,
      "hit": false,
      "t": 82249.99999999997,
      "d": 250,
      "v": 63
    },
    {
      "midi": 78,
      "hit": false,
      "t": 82249.99999999997,
      "d": 250,
      "v": 63
    },
    {
      "midi": 34,
      "hit": false,
      "t": 82249.99999999999,
      "d": 250,
      "v": 107
    },
    {
      "midi": 46,
      "hit": false,
      "t": 82249.99999999999,
      "d": 250,
      "v": 107
    },
    {
      "midi": 71,
      "hit": false,
      "t": 82499.99999999997,
      "d": 250,
      "v": 63
    },
    {
      "midi": 77,
      "hit": false,
      "t": 82499.99999999997,
      "d": 250,
      "v": 63
    },
    {
      "midi": 83,
      "hit": false,
      "t": 82499.99999999997,
      "d": 250,
      "v": 63
    },
    {
      "midi": 31,
      "hit": false,
      "t": 82499.99999999999,
      "d": 250,
      "v": 107
    },
    {
      "midi": 43,
      "hit": false,
      "t": 82499.99999999999,
      "d": 250,
      "v": 107
    },
    {
      "midi": 71,
      "hit": false,
      "t": 82749.99999999997,
      "d": 125,
      "v": 63
    },
    {
      "midi": 77,
      "hit": false,
      "t": 82749.99999999997,
      "d": 125,
      "v": 63
    },
    {
      "midi": 83,
      "hit": false,
      "t": 82749.99999999997,
      "d": 125,
      "v": 63
    },
    {
      "midi": 55,
      "hit": false,
      "t": 82749.99999999999,
      "d": 125,
      "v": 107
    },
    {
      "midi": 62,
      "hit": false,
      "t": 82749.99999999999,
      "d": 125,
      "v": 107
    },
    {
      "midi": 65,
      "hit": false,
      "t": 82749.99999999999,
      "d": 125,
      "v": 107
    },
    {
      "midi": 67,
      "hit": false,
      "t": 82749.99999999999,
      "d": 125,
      "v": 107
    },
    {
      "midi": 71,
      "hit": false,
      "t": 82874.99999999997,
      "d": 125,
      "v": 63
    },
    {
      "midi": 77,
      "hit": false,
      "t": 82874.99999999997,
      "d": 125,
      "v": 63
    },
    {
      "midi": 83,
      "hit": false,
      "t": 82874.99999999997,
      "d": 125,
      "v": 63
    },
    {
      "midi": 55,
      "hit": false,
      "t": 82874.99999999999,
      "d": 125,
      "v": 107
    },
    {
      "midi": 62,
      "hit": false,
      "t": 82874.99999999999,
      "d": 125,
      "v": 107
    },
    {
      "midi": 65,
      "hit": false,
      "t": 82874.99999999999,
      "d": 125,
      "v": 107
    },
    {
      "midi": 67,
      "hit": false,
      "t": 82874.99999999999,
      "d": 125,
      "v": 107
    },
    {
      "midi": 71,
      "hit": false,
      "t": 82999.99999999997,
      "d": 250,
      "v": 63
    },
    {
      "midi": 77,
      "hit": false,
      "t": 82999.99999999997,
      "d": 250,
      "v": 63
    },
    {
      "midi": 83,
      "hit": false,
      "t": 82999.99999999997,
      "d": 250,
      "v": 63
    },
    {
      "midi": 55,
      "hit": false,
      "t": 82999.99999999999,
      "d": 250,
      "v": 107
    },
    {
      "midi": 62,
      "hit": false,
      "t": 82999.99999999999,
      "d": 250,
      "v": 107
    },
    {
      "midi": 65,
      "hit": false,
      "t": 82999.99999999999,
      "d": 250,
      "v": 107
    },
    {
      "midi": 67,
      "hit": false,
      "t": 82999.99999999999,
      "d": 250,
      "v": 107
    },
    {
      "midi": 71,
      "hit": false,
      "t": 83249.99999999997,
      "d": 125,
      "v": 63
    },
    {
      "midi": 77,
      "hit": false,
      "t": 83249.99999999997,
      "d": 125,
      "v": 63
    },
    {
      "midi": 81,
      "hit": false,
      "t": 83249.99999999997,
      "d": 125,
      "v": 63
    },
    {
      "midi": 55,
      "hit": false,
      "t": 83249.99999999999,
      "d": 125,
      "v": 107
    },
    {
      "midi": 62,
      "hit": false,
      "t": 83249.99999999999,
      "d": 125,
      "v": 107
    },
    {
      "midi": 65,
      "hit": false,
      "t": 83249.99999999999,
      "d": 125,
      "v": 107
    },
    {
      "midi": 67,
      "hit": false,
      "t": 83249.99999999999,
      "d": 125,
      "v": 107
    },
    {
      "midi": 71,
      "hit": false,
      "t": 83374.99999999997,
      "d": 125,
      "v": 63
    },
    {
      "midi": 77,
      "hit": false,
      "t": 83374.99999999997,
      "d": 125,
      "v": 63
    },
    {
      "midi": 79,
      "hit": false,
      "t": 83374.99999999997,
      "d": 125,
      "v": 63
    },
    {
      "midi": 83,
      "hit": false,
      "t": 83374.99999999997,
      "d": 125,
      "v": 63
    },
    {
      "midi": 55,
      "hit": false,
      "t": 83374.99999999999,
      "d": 125,
      "v": 107
    },
    {
      "midi": 62,
      "hit": false,
      "t": 83374.99999999999,
      "d": 125,
      "v": 107
    },
    {
      "midi": 65,
      "hit": false,
      "t": 83374.99999999999,
      "d": 125,
      "v": 107
    },
    {
      "midi": 67,
      "hit": false,
      "t": 83374.99999999999,
      "d": 125,
      "v": 107
    },
    {
      "midi": 72,
      "hit": false,
      "t": 83499.99999999997,
      "d": 250,
      "v": 63
    },
    {
      "midi": 76,
      "hit": false,
      "t": 83499.99999999997,
      "d": 250,
      "v": 63
    },
    {
      "midi": 79,
      "hit": false,
      "t": 83499.99999999997,
      "d": 250,
      "v": 63
    },
    {
      "midi": 84,
      "hit": false,
      "t": 83499.99999999997,
      "d": 250,
      "v": 63
    },
    {
      "midi": 60,
      "hit": false,
      "t": 83499.99999999999,
      "d": 250,
      "v": 107
    },
    {
      "midi": 64,
      "hit": false,
      "t": 83499.99999999999,
      "d": 250,
      "v": 107
    },
    {
      "midi": 67,
      "hit": false,
      "t": 83499.99999999999,
      "d": 250,
      "v": 107
    },
    {
      "midi": 72,
      "hit": false,
      "t": 83749.99999999997,
      "d": 250,
      "v": 63
    },
    {
      "midi": 76,
      "hit": false,
      "t": 83749.99999999997,
      "d": 250,
      "v": 63
    },
    {
      "midi": 79,
      "hit": false,
      "t": 83749.99999999997,
      "d": 250,
      "v": 63
    },
    {
      "midi": 36,
      "hit": false,
      "t": 83749.99999999999,
      "d": 250,
      "v": 107
    },
    {
      "midi": 48,
      "hit": false,
      "t": 83749.99999999999,
      "d": 250,
      "v": 107
    },
    {
      "midi": 73,
      "hit": false,
      "t": 83999.99999999997,
      "d": 250,
      "v": 63
    },
    {
      "midi": 79,
      "hit": false,
      "t": 83999.99999999997,
      "d": 250,
      "v": 63
    },
    {
      "midi": 85,
      "hit": false,
      "t": 83999.99999999997,
      "d": 250,
      "v": 63
    },
    {
      "midi": 33,
      "hit": false,
      "t": 83999.99999999999,
      "d": 250,
      "v": 107
    },
    {
      "midi": 45,
      "hit": false,
      "t": 83999.99999999999,
      "d": 250,
      "v": 107
    },
    {
      "midi": 73,
      "hit": false,
      "t": 84249.99999999997,
      "d": 125,
      "v": 63
    },
    {
      "midi": 79,
      "hit": false,
      "t": 84249.99999999997,
      "d": 125,
      "v": 63
    },
    {
      "midi": 85,
      "hit": false,
      "t": 84249.99999999997,
      "d": 125,
      "v": 63
    },
    {
      "midi": 57,
      "hit": false,
      "t": 84249.99999999999,
      "d": 125,
      "v": 107
    },
    {
      "midi": 61,
      "hit": false,
      "t": 84249.99999999999,
      "d": 125,
      "v": 107
    },
    {
      "midi": 64,
      "hit": false,
      "t": 84249.99999999999,
      "d": 125,
      "v": 107
    },
    {
      "midi": 67,
      "hit": false,
      "t": 84249.99999999999,
      "d": 125,
      "v": 107
    },
    {
      "midi": 69,
      "hit": false,
      "t": 84249.99999999999,
      "d": 125,
      "v": 107
    },
    {
      "midi": 76,
      "hit": false,
      "t": 84374.99999999997,
      "d": 125,
      "v": 63
    },
    {
      "midi": 79,
      "hit": false,
      "t": 84374.99999999997,
      "d": 125,
      "v": 63
    },
    {
      "midi": 86,
      "hit": false,
      "t": 84374.99999999997,
      "d": 125,
      "v": 63
    },
    {
      "midi": 57,
      "hit": false,
      "t": 84374.99999999999,
      "d": 125,
      "v": 107
    },
    {
      "midi": 61,
      "hit": false,
      "t": 84374.99999999999,
      "d": 125,
      "v": 107
    },
    {
      "midi": 64,
      "hit": false,
      "t": 84374.99999999999,
      "d": 125,
      "v": 107
    },
    {
      "midi": 67,
      "hit": false,
      "t": 84374.99999999999,
      "d": 125,
      "v": 107
    },
    {
      "midi": 69,
      "hit": false,
      "t": 84374.99999999999,
      "d": 125,
      "v": 107
    },
    {
      "midi": 76,
      "hit": false,
      "t": 84499.99999999997,
      "d": 250,
      "v": 63
    },
    {
      "midi": 79,
      "hit": false,
      "t": 84499.99999999997,
      "d": 250,
      "v": 63
    },
    {
      "midi": 88,
      "hit": false,
      "t": 84499.99999999997,
      "d": 250,
      "v": 63
    },
    {
      "midi": 57,
      "hit": false,
      "t": 84499.99999999999,
      "d": 250,
      "v": 107
    },
    {
      "midi": 61,
      "hit": false,
      "t": 84499.99999999999,
      "d": 250,
      "v": 107
    },
    {
      "midi": 64,
      "hit": false,
      "t": 84499.99999999999,
      "d": 250,
      "v": 107
    },
    {
      "midi": 67,
      "hit": false,
      "t": 84499.99999999999,
      "d": 250,
      "v": 107
    },
    {
      "midi": 69,
      "hit": false,
      "t": 84499.99999999999,
      "d": 250,
      "v": 107
    },
    {
      "midi": 73,
      "hit": false,
      "t": 84749.99999999997,
      "d": 125,
      "v": 63
    },
    {
      "midi": 79,
      "hit": false,
      "t": 84749.99999999997,
      "d": 125,
      "v": 63
    },
    {
      "midi": 85,
      "hit": false,
      "t": 84749.99999999997,
      "d": 125,
      "v": 63
    },
    {
      "midi": 57,
      "hit": false,
      "t": 84749.99999999999,
      "d": 125,
      "v": 107
    },
    {
      "midi": 61,
      "hit": false,
      "t": 84749.99999999999,
      "d": 125,
      "v": 107
    },
    {
      "midi": 64,
      "hit": false,
      "t": 84749.99999999999,
      "d": 125,
      "v": 107
    },
    {
      "midi": 67,
      "hit": false,
      "t": 84749.99999999999,
      "d": 125,
      "v": 107
    },
    {
      "midi": 69,
      "hit": false,
      "t": 84749.99999999999,
      "d": 125,
      "v": 107
    },
    {
      "midi": 74,
      "hit": false,
      "t": 84874.99999999997,
      "d": 125,
      "v": 63
    },
    {
      "midi": 86,
      "hit": false,
      "t": 84874.99999999997,
      "d": 125,
      "v": 63
    },
    {
      "midi": 57,
      "hit": false,
      "t": 84874.99999999999,
      "d": 125,
      "v": 107
    },
    {
      "midi": 61,
      "hit": false,
      "t": 84874.99999999999,
      "d": 125,
      "v": 107
    },
    {
      "midi": 64,
      "hit": false,
      "t": 84874.99999999999,
      "d": 125,
      "v": 107
    },
    {
      "midi": 67,
      "hit": false,
      "t": 84874.99999999999,
      "d": 125,
      "v": 107
    },
    {
      "midi": 69,
      "hit": false,
      "t": 84874.99999999999,
      "d": 125,
      "v": 107
    },
    {
      "midi": 76,
      "hit": false,
      "t": 84999.99999999997,
      "d": 125,
      "v": 63
    },
    {
      "midi": 88,
      "hit": false,
      "t": 84999.99999999997,
      "d": 125,
      "v": 63
    },
    {
      "midi": 57,
      "hit": false,
      "t": 84999.99999999999,
      "d": 250,
      "v": 107
    },
    {
      "midi": 61,
      "hit": false,
      "t": 84999.99999999999,
      "d": 250,
      "v": 107
    },
    {
      "midi": 64,
      "hit": false,
      "t": 84999.99999999999,
      "d": 250,
      "v": 107
    },
    {
      "midi": 67,
      "hit": false,
      "t": 84999.99999999999,
      "d": 250,
      "v": 107
    },
    {
      "midi": 69,
      "hit": false,
      "t": 84999.99999999999,
      "d": 250,
      "v": 107
    },
    {
      "midi": 78,
      "hit": false,
      "t": 85124.99999999997,
      "d": 125,
      "v": 63
    },
    {
      "midi": 90,
      "hit": false,
      "t": 85124.99999999997,
      "d": 125,
      "v": 63
    },
    {
      "midi": 79,
      "hit": false,
      "t": 85249.99999999997,
      "d": 125,
      "v": 63
    },
    {
      "midi": 91,
      "hit": false,
      "t": 85249.99999999997,
      "d": 125,
      "v": 63
    },
    {
      "midi": 57,
      "hit": false,
      "t": 85249.99999999999,
      "d": 125,
      "v": 107
    },
    {
      "midi": 61,
      "hit": false,
      "t": 85249.99999999999,
      "d": 125,
      "v": 107
    },
    {
      "midi": 64,
      "hit": false,
      "t": 85249.99999999999,
      "d": 125,
      "v": 107
    },
    {
      "midi": 67,
      "hit": false,
      "t": 85249.99999999999,
      "d": 125,
      "v": 107
    },
    {
      "midi": 69,
      "hit": false,
      "t": 85249.99999999999,
      "d": 125,
      "v": 107
    },
    {
      "midi": 80,
      "hit": false,
      "t": 85374.99999999997,
      "d": 125,
      "v": 63
    },
    {
      "midi": 92,
      "hit": false,
      "t": 85374.99999999997,
      "d": 125,
      "v": 63
    },
    {
      "midi": 57,
      "hit": false,
      "t": 85374.99999999999,
      "d": 125,
      "v": 107
    },
    {
      "midi": 61,
      "hit": false,
      "t": 85374.99999999999,
      "d": 125,
      "v": 107
    },
    {
      "midi": 64,
      "hit": false,
      "t": 85374.99999999999,
      "d": 125,
      "v": 107
    },
    {
      "midi": 67,
      "hit": false,
      "t": 85374.99999999999,
      "d": 125,
      "v": 107
    },
    {
      "midi": 69,
      "hit": false,
      "t": 85374.99999999999,
      "d": 125,
      "v": 107
    },
    {
      "midi": 81,
      "hit": false,
      "t": 85499.99999999997,
      "d": 125,
      "v": 63
    },
    {
      "midi": 93,
      "hit": false,
      "t": 85499.99999999997,
      "d": 125,
      "v": 63
    },
    {
      "midi": 57,
      "hit": false,
      "t": 85499.99999999999,
      "d": 250,
      "v": 107
    },
    {
      "midi": 61,
      "hit": false,
      "t": 85499.99999999999,
      "d": 250,
      "v": 107
    },
    {
      "midi": 64,
      "hit": false,
      "t": 85499.99999999999,
      "d": 250,
      "v": 107
    },
    {
      "midi": 67,
      "hit": false,
      "t": 85499.99999999999,
      "d": 250,
      "v": 107
    },
    {
      "midi": 69,
      "hit": false,
      "t": 85499.99999999999,
      "d": 250,
      "v": 107
    },
    {
      "midi": 82,
      "hit": false,
      "t": 85624.99999999997,
      "d": 125,
      "v": 63
    },
    {
      "midi": 94,
      "hit": false,
      "t": 85624.99999999997,
      "d": 125,
      "v": 63
    },
    {
      "midi": 83,
      "hit": false,
      "t": 85749.99999999997,
      "d": 125,
      "v": 63
    },
    {
      "midi": 95,
      "hit": false,
      "t": 85749.99999999997,
      "d": 125,
      "v": 63
    },
    {
      "midi": 57,
      "hit": false,
      "t": 85749.99999999999,
      "d": 250,
      "v": 107
    },
    {
      "midi": 64,
      "hit": false,
      "t": 85749.99999999999,
      "d": 250,
      "v": 107
    },
    {
      "midi": 67,
      "hit": false,
      "t": 85749.99999999999,
      "d": 250,
      "v": 107
    },
    {
      "midi": 69,
      "hit": false,
      "t": 85749.99999999999,
      "d": 250,
      "v": 107
    },
    {
      "midi": 85,
      "hit": false,
      "t": 85874.99999999997,
      "d": 125,
      "v": 63
    },
    {
      "midi": 97,
      "hit": false,
      "t": 85874.99999999997,
      "d": 125,
      "v": 63
    },
    {
      "midi": 88,
      "hit": false,
      "t": 85999.99999999997,
      "d": 500,
      "v": 63
    },
    {
      "midi": 93,
      "hit": false,
      "t": 85999.99999999997,
      "d": 500,
      "v": 63
    },
    {
      "midi": 100,
      "hit": false,
      "t": 85999.99999999997,
      "d": 500,
      "v": 63
    },
    {
      "midi": 57,
      "hit": false,
      "t": 85999.99999999999,
      "d": 500,
      "v": 107
    },
    {
      "midi": 61,
      "hit": false,
      "t": 85999.99999999999,
      "d": 500,
      "v": 107
    },
    {
      "midi": 67,
      "hit": false,
      "t": 85999.99999999999,
      "d": 500,
      "v": 107
    },
    {
      "midi": 69,
      "hit": false,
      "t": 85999.99999999999,
      "d": 500,
      "v": 107
    },
    {
      "midi": 86,
      "hit": false,
      "t": 86499.99999999997,
      "d": 250,
      "v": 63
    },
    {
      "midi": 98,
      "hit": false,
      "t": 86499.99999999997,
      "d": 250,
      "v": 63
    },
    {
      "midi": 62,
      "hit": false,
      "t": 86499.99999999999,
      "d": 250,
      "v": 107
    },
    {
      "midi": 66,
      "hit": false,
      "t": 86499.99999999999,
      "d": 250,
      "v": 107
    },
    {
      "midi": 69,
      "hit": false,
      "t": 86499.99999999999,
      "d": 250,
      "v": 107
    },
    {
      "midi": 49,
      "hit": false,
      "t": 86999.99999999999,
      "d": 62.5,
      "v": 107
    },
    {
      "midi": 37,
      "hit": false,
      "t": 87000,
      "d": 62.5,
      "v": 64
    },
    {
      "midi": 50,
      "hit": false,
      "t": 87062.49999999999,
      "d": 62.5,
      "v": 107
    },
    {
      "midi": 38,
      "hit": false,
      "t": 87062.5,
      "d": 62.5,
      "v": 64
    },
    {
      "midi": 49,
      "hit": false,
      "t": 87124.99999999999,
      "d": 62.5,
      "v": 107
    },
    {
      "midi": 37,
      "hit": false,
      "t": 87125,
      "d": 62.5,
      "v": 64
    },
    {
      "midi": 50,
      "hit": false,
      "t": 87187.49999999999,
      "d": 62.5,
      "v": 107
    },
    {
      "midi": 38,
      "hit": false,
      "t": 87187.5,
      "d": 62.5,
      "v": 64
    },
    {
      "midi": 49,
      "hit": false,
      "t": 87249.99999999999,
      "d": 62.5,
      "v": 107
    },
    {
      "midi": 37,
      "hit": false,
      "t": 87250,
      "d": 62.5,
      "v": 64
    },
    {
      "midi": 50,
      "hit": false,
      "t": 87312.49999999999,
      "d": 62.5,
      "v": 107
    },
    {
      "midi": 38,
      "hit": false,
      "t": 87312.5,
      "d": 62.5,
      "v": 64
    },
    {
      "midi": 49,
      "hit": false,
      "t": 87374.99999999999,
      "d": 62.5,
      "v": 107
    },
    {
      "midi": 37,
      "hit": false,
      "t": 87375,
      "d": 62.5,
      "v": 64
    },
    {
      "midi": 50,
      "hit": false,
      "t": 87437.49999999999,
      "d": 62.5,
      "v": 107
    },
    {
      "midi": 38,
      "hit": false,
      "t": 87437.5,
      "d": 62.5,
      "v": 64
    },
    {
      "midi": 49,
      "hit": false,
      "t": 87499.99999999999,
      "d": 62.5,
      "v": 107
    },
    {
      "midi": 37,
      "hit": false,
      "t": 87500,
      "d": 62.5,
      "v": 64
    },
    {
      "midi": 50,
      "hit": false,
      "t": 87562.49999999999,
      "d": 62.5,
      "v": 107
    },
    {
      "midi": 38,
      "hit": false,
      "t": 87562.5,
      "d": 62.5,
      "v": 64
    },
    {
      "midi": 49,
      "hit": false,
      "t": 87624.99999999999,
      "d": 62.5,
      "v": 107
    },
    {
      "midi": 37,
      "hit": false,
      "t": 87625,
      "d": 62.5,
      "v": 64
    },
    {
      "midi": 50,
      "hit": false,
      "t": 87687.49999999999,
      "d": 62.5,
      "v": 107
    },
    {
      "midi": 38,
      "hit": false,
      "t": 87687.5,
      "d": 62.5,
      "v": 64
    },
    {
      "midi": 49,
      "hit": false,
      "t": 87749.99999999999,
      "d": 62.5,
      "v": 107
    },
    {
      "midi": 37,
      "hit": false,
      "t": 87750,
      "d": 62.5,
      "v": 64
    },
    {
      "midi": 50,
      "hit": false,
      "t": 87812.49999999999,
      "d": 62.5,
      "v": 107
    },
    {
      "midi": 38,
      "hit": false,
      "t": 87812.5,
      "d": 62.5,
      "v": 64
    },
    {
      "midi": 49,
      "hit": false,
      "t": 87874.99999999999,
      "d": 62.5,
      "v": 107
    },
    {
      "midi": 37,
      "hit": false,
      "t": 87875,
      "d": 62.5,
      "v": 64
    },
    {
      "midi": 50,
      "hit": false,
      "t": 87937.49999999999,
      "d": 62.5,
      "v": 107
    },
    {
      "midi": 38,
      "hit": false,
      "t": 87937.5,
      "d": 62.5,
      "v": 64
    },
    {
      "midi": 49,
      "hit": false,
      "t": 87999.99999999999,
      "d": 62.5,
      "v": 107
    },
    {
      "midi": 37,
      "hit": false,
      "t": 88000,
      "d": 62.5,
      "v": 64
    },
    {
      "midi": 50,
      "hit": false,
      "t": 88062.49999999999,
      "d": 62.5,
      "v": 107
    },
    {
      "midi": 38,
      "hit": false,
      "t": 88062.5,
      "d": 62.5,
      "v": 64
    },
    {
      "midi": 49,
      "hit": false,
      "t": 88124.99999999999,
      "d": 62.5,
      "v": 107
    },
    {
      "midi": 37,
      "hit": false,
      "t": 88125,
      "d": 62.5,
      "v": 64
    },
    {
      "midi": 50,
      "hit": false,
      "t": 88187.49999999999,
      "d": 62.5,
      "v": 107
    },
    {
      "midi": 38,
      "hit": false,
      "t": 88187.5,
      "d": 62.5,
      "v": 64
    },
    {
      "midi": 48,
      "hit": false,
      "t": 88249.99999999999,
      "d": 62.5,
      "v": 107
    },
    {
      "midi": 36,
      "hit": false,
      "t": 88250,
      "d": 62.5,
      "v": 64
    },
    {
      "midi": 49,
      "hit": false,
      "t": 88312.49999999999,
      "d": 62.5,
      "v": 107
    },
    {
      "midi": 37,
      "hit": false,
      "t": 88312.5,
      "d": 62.5,
      "v": 64
    },
    {
      "midi": 50,
      "hit": false,
      "t": 88374.99999999999,
      "d": 62.5,
      "v": 107
    },
    {
      "midi": 38,
      "hit": false,
      "t": 88375,
      "d": 62.5,
      "v": 64
    },
    {
      "midi": 52,
      "hit": false,
      "t": 88437.49999999999,
      "d": 62.5,
      "v": 107
    },
    {
      "midi": 40,
      "hit": false,
      "t": 88437.5,
      "d": 62.5,
      "v": 64
    },
    {
      "midi": 34,
      "hit": false,
      "t": 88500,
      "d": 250,
      "v": 64
    },
    {
      "midi": 46,
      "hit": false,
      "t": 88500,
      "d": 250,
      "v": 64
    },
    {
      "midi": 74,
      "hit": false,
      "t": 88749.99999999999,
      "d": 125,
      "v": 107
    },
    {
      "midi": 79,
      "hit": false,
      "t": 88749.99999999999,
      "d": 125,
      "v": 107
    },
    {
      "midi": 86,
      "hit": false,
      "t": 88749.99999999999,
      "d": 125,
      "v": 107
    },
    {
      "midi": 50,
      "hit": false,
      "t": 88750,
      "d": 125,
      "v": 64
    },
    {
      "midi": 55,
      "hit": false,
      "t": 88750,
      "d": 125,
      "v": 64
    },
    {
      "midi": 62,
      "hit": false,
      "t": 88750,
      "d": 125,
      "v": 64
    },
    {
      "midi": 74,
      "hit": false,
      "t": 88874.99999999999,
      "d": 125,
      "v": 107
    },
    {
      "midi": 79,
      "hit": false,
      "t": 88874.99999999999,
      "d": 125,
      "v": 107
    },
    {
      "midi": 86,
      "hit": false,
      "t": 88874.99999999999,
      "d": 125,
      "v": 107
    },
    {
      "midi": 50,
      "hit": false,
      "t": 88875,
      "d": 125,
      "v": 64
    },
    {
      "midi": 55,
      "hit": false,
      "t": 88875,
      "d": 125,
      "v": 64
    },
    {
      "midi": 62,
      "hit": false,
      "t": 88875,
      "d": 125,
      "v": 64
    },
    {
      "midi": 74,
      "hit": false,
      "t": 88999.99999999999,
      "d": 250,
      "v": 107
    },
    {
      "midi": 79,
      "hit": false,
      "t": 88999.99999999999,
      "d": 250,
      "v": 107
    },
    {
      "midi": 86,
      "hit": false,
      "t": 88999.99999999999,
      "d": 250,
      "v": 107
    },
    {
      "midi": 50,
      "hit": false,
      "t": 89000,
      "d": 250,
      "v": 64
    },
    {
      "midi": 55,
      "hit": false,
      "t": 89000,
      "d": 250,
      "v": 64
    },
    {
      "midi": 62,
      "hit": false,
      "t": 89000,
      "d": 250,
      "v": 64
    },
    {
      "midi": 74,
      "hit": false,
      "t": 89249.99999999999,
      "d": 250,
      "v": 107
    },
    {
      "midi": 79,
      "hit": false,
      "t": 89249.99999999999,
      "d": 250,
      "v": 107
    },
    {
      "midi": 86,
      "hit": false,
      "t": 89249.99999999999,
      "d": 250,
      "v": 107
    },
    {
      "midi": 50,
      "hit": false,
      "t": 89250,
      "d": 250,
      "v": 64
    },
    {
      "midi": 55,
      "hit": false,
      "t": 89250,
      "d": 250,
      "v": 64
    },
    {
      "midi": 62,
      "hit": false,
      "t": 89250,
      "d": 250,
      "v": 64
    },
    {
      "midi": 74,
      "hit": false,
      "t": 89499.99999999999,
      "d": 250,
      "v": 107
    },
    {
      "midi": 79,
      "hit": false,
      "t": 89499.99999999999,
      "d": 250,
      "v": 107
    },
    {
      "midi": 86,
      "hit": false,
      "t": 89499.99999999999,
      "d": 250,
      "v": 107
    },
    {
      "midi": 50,
      "hit": false,
      "t": 89500,
      "d": 250,
      "v": 64
    },
    {
      "midi": 55,
      "hit": false,
      "t": 89500,
      "d": 250,
      "v": 64
    },
    {
      "midi": 62,
      "hit": false,
      "t": 89500,
      "d": 250,
      "v": 64
    },
    {
      "midi": 74,
      "hit": false,
      "t": 89749.99999999999,
      "d": 250,
      "v": 107
    },
    {
      "midi": 79,
      "hit": false,
      "t": 89749.99999999999,
      "d": 250,
      "v": 107
    },
    {
      "midi": 86,
      "hit": false,
      "t": 89749.99999999999,
      "d": 250,
      "v": 107
    },
    {
      "midi": 50,
      "hit": false,
      "t": 89750,
      "d": 250,
      "v": 64
    },
    {
      "midi": 55,
      "hit": false,
      "t": 89750,
      "d": 250,
      "v": 64
    },
    {
      "midi": 62,
      "hit": false,
      "t": 89750,
      "d": 250,
      "v": 64
    },
    {
      "midi": 50,
      "hit": false,
      "t": 89999.99999999999,
      "d": 62.5,
      "v": 107
    },
    {
      "midi": 38,
      "hit": false,
      "t": 90000,
      "d": 62.5,
      "v": 64
    },
    {
      "midi": 52,
      "hit": false,
      "t": 90062.49999999999,
      "d": 62.5,
      "v": 107
    },
    {
      "midi": 40,
      "hit": false,
      "t": 90062.5,
      "d": 62.5,
      "v": 64
    },
    {
      "midi": 50,
      "hit": false,
      "t": 90124.99999999999,
      "d": 62.5,
      "v": 107
    },
    {
      "midi": 38,
      "hit": false,
      "t": 90125,
      "d": 62.5,
      "v": 64
    },
    {
      "midi": 52,
      "hit": false,
      "t": 90187.49999999999,
      "d": 62.5,
      "v": 107
    },
    {
      "midi": 40,
      "hit": false,
      "t": 90187.5,
      "d": 62.5,
      "v": 64
    },
    {
      "midi": 50,
      "hit": false,
      "t": 90249.99999999999,
      "d": 62.5,
      "v": 107
    },
    {
      "midi": 38,
      "hit": false,
      "t": 90250,
      "d": 62.5,
      "v": 64
    },
    {
      "midi": 52,
      "hit": false,
      "t": 90312.49999999999,
      "d": 62.5,
      "v": 107
    },
    {
      "midi": 40,
      "hit": false,
      "t": 90312.5,
      "d": 62.5,
      "v": 64
    },
    {
      "midi": 50,
      "hit": false,
      "t": 90374.99999999999,
      "d": 62.5,
      "v": 107
    },
    {
      "midi": 38,
      "hit": false,
      "t": 90375,
      "d": 62.5,
      "v": 64
    },
    {
      "midi": 52,
      "hit": false,
      "t": 90437.49999999999,
      "d": 62.5,
      "v": 107
    },
    {
      "midi": 40,
      "hit": false,
      "t": 90437.5,
      "d": 62.5,
      "v": 64
    },
    {
      "midi": 50,
      "hit": false,
      "t": 90499.99999999999,
      "d": 62.5,
      "v": 107
    },
    {
      "midi": 38,
      "hit": false,
      "t": 90500,
      "d": 62.5,
      "v": 64
    },
    {
      "midi": 52,
      "hit": false,
      "t": 90562.49999999999,
      "d": 62.5,
      "v": 107
    },
    {
      "midi": 40,
      "hit": false,
      "t": 90562.5,
      "d": 62.5,
      "v": 64
    },
    {
      "midi": 50,
      "hit": false,
      "t": 90624.99999999999,
      "d": 62.5,
      "v": 107
    },
    {
      "midi": 38,
      "hit": false,
      "t": 90625,
      "d": 62.5,
      "v": 64
    },
    {
      "midi": 52,
      "hit": false,
      "t": 90687.49999999999,
      "d": 62.5,
      "v": 107
    },
    {
      "midi": 40,
      "hit": false,
      "t": 90687.5,
      "d": 62.5,
      "v": 64
    },
    {
      "midi": 50,
      "hit": false,
      "t": 90749.99999999999,
      "d": 62.5,
      "v": 107
    },
    {
      "midi": 38,
      "hit": false,
      "t": 90750,
      "d": 62.5,
      "v": 64
    },
    {
      "midi": 52,
      "hit": false,
      "t": 90812.49999999999,
      "d": 62.5,
      "v": 107
    },
    {
      "midi": 40,
      "hit": false,
      "t": 90812.5,
      "d": 62.5,
      "v": 64
    },
    {
      "midi": 50,
      "hit": false,
      "t": 90874.99999999999,
      "d": 62.5,
      "v": 107
    },
    {
      "midi": 38,
      "hit": false,
      "t": 90875,
      "d": 62.5,
      "v": 64
    },
    {
      "midi": 52,
      "hit": false,
      "t": 90937.49999999999,
      "d": 62.5,
      "v": 107
    },
    {
      "midi": 40,
      "hit": false,
      "t": 90937.5,
      "d": 62.5,
      "v": 64
    },
    {
      "midi": 50,
      "hit": false,
      "t": 90999.99999999999,
      "d": 62.5,
      "v": 107
    },
    {
      "midi": 38,
      "hit": false,
      "t": 91000,
      "d": 62.5,
      "v": 64
    },
    {
      "midi": 52,
      "hit": false,
      "t": 91062.49999999999,
      "d": 62.5,
      "v": 107
    },
    {
      "midi": 40,
      "hit": false,
      "t": 91062.5,
      "d": 62.5,
      "v": 64
    },
    {
      "midi": 50,
      "hit": false,
      "t": 91124.99999999999,
      "d": 62.5,
      "v": 107
    },
    {
      "midi": 38,
      "hit": false,
      "t": 91125,
      "d": 62.5,
      "v": 64
    },
    {
      "midi": 52,
      "hit": false,
      "t": 91187.49999999999,
      "d": 62.5,
      "v": 107
    },
    {
      "midi": 40,
      "hit": false,
      "t": 91187.5,
      "d": 62.5,
      "v": 64
    },
    {
      "midi": 49,
      "hit": false,
      "t": 91249.99999999999,
      "d": 62.5,
      "v": 107
    },
    {
      "midi": 37,
      "hit": false,
      "t": 91250,
      "d": 62.5,
      "v": 64
    },
    {
      "midi": 50,
      "hit": false,
      "t": 91312.49999999999,
      "d": 62.5,
      "v": 107
    },
    {
      "midi": 38,
      "hit": false,
      "t": 91312.5,
      "d": 62.5,
      "v": 64
    },
    {
      "midi": 52,
      "hit": false,
      "t": 91374.99999999999,
      "d": 62.5,
      "v": 107
    },
    {
      "midi": 40,
      "hit": false,
      "t": 91375,
      "d": 62.5,
      "v": 64
    },
    {
      "midi": 53,
      "hit": false,
      "t": 91437.49999999999,
      "d": 62.5,
      "v": 107
    },
    {
      "midi": 41,
      "hit": false,
      "t": 91437.5,
      "d": 62.5,
      "v": 64
    },
    {
      "midi": 35,
      "hit": false,
      "t": 91500,
      "d": 250,
      "v": 64
    },
    {
      "midi": 47,
      "hit": false,
      "t": 91500,
      "d": 250,
      "v": 64
    },
    {
      "midi": 74,
      "hit": false,
      "t": 91749.99999999999,
      "d": 125,
      "v": 107
    },
    {
      "midi": 80,
      "hit": false,
      "t": 91749.99999999999,
      "d": 125,
      "v": 107
    },
    {
      "midi": 86,
      "hit": false,
      "t": 91749.99999999999,
      "d": 125,
      "v": 107
    },
    {
      "midi": 50,
      "hit": false,
      "t": 91750,
      "d": 125,
      "v": 64
    },
    {
      "midi": 56,
      "hit": false,
      "t": 91750,
      "d": 125,
      "v": 64
    },
    {
      "midi": 62,
      "hit": false,
      "t": 91750,
      "d": 125,
      "v": 64
    },
    {
      "midi": 74,
      "hit": false,
      "t": 91874.99999999999,
      "d": 125,
      "v": 107
    },
    {
      "midi": 80,
      "hit": false,
      "t": 91874.99999999999,
      "d": 125,
      "v": 107
    },
    {
      "midi": 86,
      "hit": false,
      "t": 91874.99999999999,
      "d": 125,
      "v": 107
    },
    {
      "midi": 50,
      "hit": false,
      "t": 91875,
      "d": 125,
      "v": 64
    },
    {
      "midi": 56,
      "hit": false,
      "t": 91875,
      "d": 125,
      "v": 64
    },
    {
      "midi": 62,
      "hit": false,
      "t": 91875,
      "d": 125,
      "v": 64
    },
    {
      "midi": 74,
      "hit": false,
      "t": 91999.99999999999,
      "d": 250,
      "v": 107
    },
    {
      "midi": 80,
      "hit": false,
      "t": 91999.99999999999,
      "d": 250,
      "v": 107
    },
    {
      "midi": 86,
      "hit": false,
      "t": 91999.99999999999,
      "d": 250,
      "v": 107
    },
    {
      "midi": 50,
      "hit": false,
      "t": 92000,
      "d": 250,
      "v": 64
    },
    {
      "midi": 56,
      "hit": false,
      "t": 92000,
      "d": 250,
      "v": 64
    },
    {
      "midi": 62,
      "hit": false,
      "t": 92000,
      "d": 250,
      "v": 64
    },
    {
      "midi": 74,
      "hit": false,
      "t": 92249.99999999999,
      "d": 250,
      "v": 107
    },
    {
      "midi": 80,
      "hit": false,
      "t": 92249.99999999999,
      "d": 250,
      "v": 107
    },
    {
      "midi": 86,
      "hit": false,
      "t": 92249.99999999999,
      "d": 250,
      "v": 107
    },
    {
      "midi": 50,
      "hit": false,
      "t": 92250,
      "d": 250,
      "v": 64
    },
    {
      "midi": 56,
      "hit": false,
      "t": 92250,
      "d": 250,
      "v": 64
    },
    {
      "midi": 62,
      "hit": false,
      "t": 92250,
      "d": 250,
      "v": 64
    },
    {
      "midi": 74,
      "hit": false,
      "t": 92499.99999999999,
      "d": 250,
      "v": 107
    },
    {
      "midi": 80,
      "hit": false,
      "t": 92499.99999999999,
      "d": 250,
      "v": 107
    },
    {
      "midi": 86,
      "hit": false,
      "t": 92499.99999999999,
      "d": 250,
      "v": 107
    },
    {
      "midi": 50,
      "hit": false,
      "t": 92500,
      "d": 250,
      "v": 64
    },
    {
      "midi": 56,
      "hit": false,
      "t": 92500,
      "d": 250,
      "v": 64
    },
    {
      "midi": 62,
      "hit": false,
      "t": 92500,
      "d": 250,
      "v": 64
    },
    {
      "midi": 74,
      "hit": false,
      "t": 92749.99999999999,
      "d": 250,
      "v": 107
    },
    {
      "midi": 80,
      "hit": false,
      "t": 92749.99999999999,
      "d": 250,
      "v": 107
    },
    {
      "midi": 86,
      "hit": false,
      "t": 92749.99999999999,
      "d": 250,
      "v": 107
    },
    {
      "midi": 50,
      "hit": false,
      "t": 92750,
      "d": 250,
      "v": 64
    },
    {
      "midi": 56,
      "hit": false,
      "t": 92750,
      "d": 250,
      "v": 64
    },
    {
      "midi": 62,
      "hit": false,
      "t": 92750,
      "d": 250,
      "v": 64
    },
    {
      "midi": 50,
      "hit": false,
      "t": 92999.99999999999,
      "d": 62.5,
      "v": 107
    },
    {
      "midi": 38,
      "hit": false,
      "t": 93000,
      "d": 62.5,
      "v": 64
    },
    {
      "midi": 52,
      "hit": false,
      "t": 93062.49999999999,
      "d": 62.5,
      "v": 107
    },
    {
      "midi": 40,
      "hit": false,
      "t": 93062.5,
      "d": 62.5,
      "v": 64
    },
    {
      "midi": 50,
      "hit": false,
      "t": 93124.99999999999,
      "d": 62.5,
      "v": 107
    },
    {
      "midi": 38,
      "hit": false,
      "t": 93125,
      "d": 62.5,
      "v": 64
    },
    {
      "midi": 52,
      "hit": false,
      "t": 93187.49999999999,
      "d": 62.5,
      "v": 107
    },
    {
      "midi": 40,
      "hit": false,
      "t": 93187.5,
      "d": 62.5,
      "v": 64
    },
    {
      "midi": 50,
      "hit": false,
      "t": 93249.99999999999,
      "d": 62.5,
      "v": 107
    },
    {
      "midi": 38,
      "hit": false,
      "t": 93250,
      "d": 62.5,
      "v": 64
    },
    {
      "midi": 52,
      "hit": false,
      "t": 93312.49999999999,
      "d": 62.5,
      "v": 107
    },
    {
      "midi": 40,
      "hit": false,
      "t": 93312.5,
      "d": 62.5,
      "v": 64
    },
    {
      "midi": 50,
      "hit": false,
      "t": 93374.99999999999,
      "d": 62.5,
      "v": 107
    },
    {
      "midi": 38,
      "hit": false,
      "t": 93375,
      "d": 62.5,
      "v": 64
    },
    {
      "midi": 52,
      "hit": false,
      "t": 93437.49999999999,
      "d": 62.5,
      "v": 107
    },
    {
      "midi": 40,
      "hit": false,
      "t": 93437.5,
      "d": 62.5,
      "v": 64
    },
    {
      "midi": 50,
      "hit": false,
      "t": 93499.99999999999,
      "d": 62.5,
      "v": 107
    },
    {
      "midi": 38,
      "hit": false,
      "t": 93500,
      "d": 62.5,
      "v": 64
    },
    {
      "midi": 52,
      "hit": false,
      "t": 93562.49999999999,
      "d": 62.5,
      "v": 107
    },
    {
      "midi": 40,
      "hit": false,
      "t": 93562.5,
      "d": 62.5,
      "v": 64
    },
    {
      "midi": 50,
      "hit": false,
      "t": 93624.99999999999,
      "d": 62.5,
      "v": 107
    },
    {
      "midi": 38,
      "hit": false,
      "t": 93625,
      "d": 62.5,
      "v": 64
    },
    {
      "midi": 52,
      "hit": false,
      "t": 93687.49999999999,
      "d": 62.5,
      "v": 107
    },
    {
      "midi": 40,
      "hit": false,
      "t": 93687.5,
      "d": 62.5,
      "v": 64
    },
    {
      "midi": 50,
      "hit": false,
      "t": 93749.99999999999,
      "d": 62.5,
      "v": 107
    },
    {
      "midi": 38,
      "hit": false,
      "t": 93750,
      "d": 62.5,
      "v": 64
    },
    {
      "midi": 52,
      "hit": false,
      "t": 93812.49999999999,
      "d": 62.5,
      "v": 107
    },
    {
      "midi": 40,
      "hit": false,
      "t": 93812.5,
      "d": 62.5,
      "v": 64
    },
    {
      "midi": 50,
      "hit": false,
      "t": 93874.99999999999,
      "d": 62.5,
      "v": 107
    },
    {
      "midi": 38,
      "hit": false,
      "t": 93875,
      "d": 62.5,
      "v": 64
    },
    {
      "midi": 52,
      "hit": false,
      "t": 93937.49999999999,
      "d": 62.5,
      "v": 107
    },
    {
      "midi": 40,
      "hit": false,
      "t": 93937.5,
      "d": 62.5,
      "v": 64
    },
    {
      "midi": 49,
      "hit": false,
      "t": 93999.99999999999,
      "d": 125,
      "v": 107
    },
    {
      "midi": 37,
      "hit": false,
      "t": 94000,
      "d": 125,
      "v": 64
    },
    {
      "midi": 50,
      "hit": false,
      "t": 94124.99999999999,
      "d": 125,
      "v": 107
    },
    {
      "midi": 38,
      "hit": false,
      "t": 94125,
      "d": 125,
      "v": 64
    },
    {
      "midi": 53,
      "hit": false,
      "t": 94249.99999999999,
      "d": 125,
      "v": 107
    },
    {
      "midi": 41,
      "hit": false,
      "t": 94250,
      "d": 125,
      "v": 64
    },
    {
      "midi": 54,
      "hit": false,
      "t": 94374.99999999999,
      "d": 125,
      "v": 107
    },
    {
      "midi": 42,
      "hit": false,
      "t": 94375,
      "d": 125,
      "v": 64
    },
    {
      "midi": 36,
      "hit": false,
      "t": 94500,
      "d": 250,
      "v": 64
    },
    {
      "midi": 48,
      "hit": false,
      "t": 94500,
      "d": 250,
      "v": 64
    },
    {
      "midi": 74,
      "hit": false,
      "t": 94749.99999999999,
      "d": 125,
      "v": 107
    },
    {
      "midi": 78,
      "hit": false,
      "t": 94749.99999999999,
      "d": 125,
      "v": 107
    },
    {
      "midi": 86,
      "hit": false,
      "t": 94749.99999999999,
      "d": 125,
      "v": 107
    },
    {
      "midi": 50,
      "hit": false,
      "t": 94750,
      "d": 125,
      "v": 64
    },
    {
      "midi": 54,
      "hit": false,
      "t": 94750,
      "d": 125,
      "v": 64
    },
    {
      "midi": 62,
      "hit": false,
      "t": 94750,
      "d": 125,
      "v": 64
    },
    {
      "midi": 74,
      "hit": false,
      "t": 94874.99999999999,
      "d": 125,
      "v": 107
    },
    {
      "midi": 78,
      "hit": false,
      "t": 94874.99999999999,
      "d": 125,
      "v": 107
    },
    {
      "midi": 86,
      "hit": false,
      "t": 94874.99999999999,
      "d": 125,
      "v": 107
    },
    {
      "midi": 50,
      "hit": false,
      "t": 94875,
      "d": 125,
      "v": 64
    },
    {
      "midi": 54,
      "hit": false,
      "t": 94875,
      "d": 125,
      "v": 64
    },
    {
      "midi": 62,
      "hit": false,
      "t": 94875,
      "d": 125,
      "v": 64
    },
    {
      "midi": 74,
      "hit": false,
      "t": 94999.99999999999,
      "d": 250,
      "v": 107
    },
    {
      "midi": 78,
      "hit": false,
      "t": 94999.99999999999,
      "d": 250,
      "v": 107
    },
    {
      "midi": 86,
      "hit": false,
      "t": 94999.99999999999,
      "d": 250,
      "v": 107
    },
    {
      "midi": 50,
      "hit": false,
      "t": 95000,
      "d": 250,
      "v": 64
    },
    {
      "midi": 54,
      "hit": false,
      "t": 95000,
      "d": 250,
      "v": 64
    },
    {
      "midi": 62,
      "hit": false,
      "t": 95000,
      "d": 250,
      "v": 64
    },
    {
      "midi": 74,
      "hit": false,
      "t": 95249.99999999999,
      "d": 250,
      "v": 107
    },
    {
      "midi": 78,
      "hit": false,
      "t": 95249.99999999999,
      "d": 250,
      "v": 107
    },
    {
      "midi": 86,
      "hit": false,
      "t": 95249.99999999999,
      "d": 250,
      "v": 107
    },
    {
      "midi": 50,
      "hit": false,
      "t": 95250,
      "d": 250,
      "v": 64
    },
    {
      "midi": 54,
      "hit": false,
      "t": 95250,
      "d": 250,
      "v": 64
    },
    {
      "midi": 62,
      "hit": false,
      "t": 95250,
      "d": 250,
      "v": 64
    },
    {
      "midi": 49,
      "hit": false,
      "t": 95499.99999999999,
      "d": 125,
      "v": 107
    },
    {
      "midi": 37,
      "hit": false,
      "t": 95500,
      "d": 125,
      "v": 64
    },
    {
      "midi": 50,
      "hit": false,
      "t": 95624.99999999999,
      "d": 125,
      "v": 107
    },
    {
      "midi": 38,
      "hit": false,
      "t": 95625,
      "d": 125,
      "v": 64
    },
    {
      "midi": 54,
      "hit": false,
      "t": 95749.99999999999,
      "d": 125,
      "v": 107
    },
    {
      "midi": 42,
      "hit": false,
      "t": 95750,
      "d": 125,
      "v": 64
    },
    {
      "midi": 55,
      "hit": false,
      "t": 95874.99999999999,
      "d": 125,
      "v": 107
    },
    {
      "midi": 43,
      "hit": false,
      "t": 95875,
      "d": 125,
      "v": 64
    },
    {
      "midi": 35,
      "hit": false,
      "t": 95999.99999999999,
      "d": 250,
      "v": 107
    },
    {
      "midi": 47,
      "hit": false,
      "t": 95999.99999999999,
      "d": 250,
      "v": 107
    },
    {
      "midi": 74,
      "hit": false,
      "t": 96249.99999999997,
      "d": 125,
      "v": 63
    },
    {
      "midi": 79,
      "hit": false,
      "t": 96249.99999999997,
      "d": 125,
      "v": 63
    },
    {
      "midi": 86,
      "hit": false,
      "t": 96249.99999999997,
      "d": 125,
      "v": 63
    },
    {
      "midi": 50,
      "hit": false,
      "t": 96249.99999999999,
      "d": 125,
      "v": 107
    },
    {
      "midi": 55,
      "hit": false,
      "t": 96249.99999999999,
      "d": 125,
      "v": 107
    },
    {
      "midi": 62,
      "hit": false,
      "t": 96249.99999999999,
      "d": 125,
      "v": 107
    },
    {
      "midi": 74,
      "hit": false,
      "t": 96374.99999999997,
      "d": 125,
      "v": 63
    },
    {
      "midi": 79,
      "hit": false,
      "t": 96374.99999999997,
      "d": 125,
      "v": 63
    },
    {
      "midi": 86,
      "hit": false,
      "t": 96374.99999999997,
      "d": 125,
      "v": 63
    },
    {
      "midi": 50,
      "hit": false,
      "t": 96374.99999999999,
      "d": 125,
      "v": 107
    },
    {
      "midi": 55,
      "hit": false,
      "t": 96374.99999999999,
      "d": 125,
      "v": 107
    },
    {
      "midi": 62,
      "hit": false,
      "t": 96374.99999999999,
      "d": 125,
      "v": 107
    },
    {
      "midi": 74,
      "hit": false,
      "t": 96499.99999999997,
      "d": 250,
      "v": 63
    },
    {
      "midi": 79,
      "hit": false,
      "t": 96499.99999999997,
      "d": 250,
      "v": 63
    },
    {
      "midi": 86,
      "hit": false,
      "t": 96499.99999999997,
      "d": 250,
      "v": 63
    },
    {
      "midi": 50,
      "hit": false,
      "t": 96499.99999999999,
      "d": 250,
      "v": 107
    },
    {
      "midi": 55,
      "hit": false,
      "t": 96499.99999999999,
      "d": 250,
      "v": 107
    },
    {
      "midi": 62,
      "hit": false,
      "t": 96499.99999999999,
      "d": 250,
      "v": 107
    },
    {
      "midi": 74,
      "hit": false,
      "t": 96749.99999999997,
      "d": 125,
      "v": 63
    },
    {
      "midi": 76,
      "hit": false,
      "t": 96749.99999999997,
      "d": 125,
      "v": 63
    },
    {
      "midi": 80,
      "hit": false,
      "t": 96749.99999999997,
      "d": 125,
      "v": 63
    },
    {
      "midi": 86,
      "hit": false,
      "t": 96749.99999999997,
      "d": 125,
      "v": 63
    },
    {
      "midi": 88,
      "hit": false,
      "t": 96749.99999999997,
      "d": 125,
      "v": 63
    },
    {
      "midi": 34,
      "hit": false,
      "t": 96749.99999999999,
      "d": 125,
      "v": 107
    },
    {
      "midi": 46,
      "hit": false,
      "t": 96749.99999999999,
      "d": 125,
      "v": 107
    },
    {
      "midi": 74,
      "hit": false,
      "t": 96874.99999999997,
      "d": 125,
      "v": 63
    },
    {
      "midi": 76,
      "hit": false,
      "t": 96874.99999999997,
      "d": 125,
      "v": 63
    },
    {
      "midi": 80,
      "hit": false,
      "t": 96874.99999999997,
      "d": 125,
      "v": 63
    },
    {
      "midi": 86,
      "hit": false,
      "t": 96874.99999999997,
      "d": 125,
      "v": 63
    },
    {
      "midi": 88,
      "hit": false,
      "t": 96874.99999999997,
      "d": 125,
      "v": 63
    },
    {
      "midi": 34,
      "hit": false,
      "t": 96874.99999999999,
      "d": 125,
      "v": 107
    },
    {
      "midi": 46,
      "hit": false,
      "t": 96874.99999999999,
      "d": 125,
      "v": 107
    },
    {
      "midi": 74,
      "hit": false,
      "t": 96999.99999999997,
      "d": 250,
      "v": 63
    },
    {
      "midi": 76,
      "hit": false,
      "t": 96999.99999999997,
      "d": 250,
      "v": 63
    },
    {
      "midi": 80,
      "hit": false,
      "t": 96999.99999999997,
      "d": 250,
      "v": 63
    },
    {
      "midi": 86,
      "hit": false,
      "t": 96999.99999999997,
      "d": 250,
      "v": 63
    },
    {
      "midi": 88,
      "hit": false,
      "t": 96999.99999999997,
      "d": 250,
      "v": 63
    },
    {
      "midi": 34,
      "hit": false,
      "t": 96999.99999999999,
      "d": 250,
      "v": 107
    },
    {
      "midi": 46,
      "hit": false,
      "t": 96999.99999999999,
      "d": 250,
      "v": 107
    },
    {
      "midi": 74,
      "hit": false,
      "t": 97249.99999999997,
      "d": 250,
      "v": 63
    },
    {
      "midi": 76,
      "hit": false,
      "t": 97249.99999999997,
      "d": 250,
      "v": 63
    },
    {
      "midi": 80,
      "hit": false,
      "t": 97249.99999999997,
      "d": 250,
      "v": 63
    },
    {
      "midi": 86,
      "hit": false,
      "t": 97249.99999999997,
      "d": 250,
      "v": 63
    },
    {
      "midi": 88,
      "hit": false,
      "t": 97249.99999999997,
      "d": 250,
      "v": 63
    },
    {
      "midi": 34,
      "hit": false,
      "t": 97249.99999999999,
      "d": 250,
      "v": 107
    },
    {
      "midi": 46,
      "hit": false,
      "t": 97249.99999999999,
      "d": 250,
      "v": 107
    },
    {
      "midi": 81,
      "hit": false,
      "t": 97499.99999999999,
      "d": 250,
      "v": 107
    },
    {
      "midi": 85,
      "hit": false,
      "t": 97499.99999999999,
      "d": 250,
      "v": 107
    },
    {
      "midi": 93,
      "hit": false,
      "t": 97499.99999999999,
      "d": 250,
      "v": 107
    },
    {
      "midi": 33,
      "hit": false,
      "t": 97500,
      "d": 250,
      "v": 64
    },
    {
      "midi": 45,
      "hit": false,
      "t": 97500,
      "d": 250,
      "v": 64
    },
    {
      "midi": 59,
      "hit": false,
      "t": 97749.99999999999,
      "d": 62.5,
      "v": 107
    },
    {
      "midi": 35,
      "hit": false,
      "t": 97750,
      "d": 250,
      "v": 64
    },
    {
      "midi": 47,
      "hit": false,
      "t": 97750,
      "d": 250,
      "v": 64
    },
    {
      "midi": 61,
      "hit": false,
      "t": 97812.49999999999,
      "d": 62.5,
      "v": 107
    },
    {
      "midi": 59,
      "hit": false,
      "t": 97874.99999999999,
      "d": 62.5,
      "v": 107
    },
    {
      "midi": 61,
      "hit": false,
      "t": 97937.49999999999,
      "d": 62.5,
      "v": 107
    },
    {
      "midi": 57,
      "hit": false,
      "t": 97999.99999999999,
      "d": 62.5,
      "v": 107
    },
    {
      "midi": 33,
      "hit": false,
      "t": 98000,
      "d": 250,
      "v": 64
    },
    {
      "midi": 45,
      "hit": false,
      "t": 98000,
      "d": 250,
      "v": 64
    },
    {
      "midi": 59,
      "hit": false,
      "t": 98062.49999999999,
      "d": 62.5,
      "v": 107
    },
    {
      "midi": 57,
      "hit": false,
      "t": 98124.99999999999,
      "d": 62.5,
      "v": 107
    },
    {
      "midi": 59,
      "hit": false,
      "t": 98187.49999999999,
      "d": 62.5,
      "v": 107
    },
    {
      "midi": 55,
      "hit": false,
      "t": 98249.99999999999,
      "d": 62.5,
      "v": 107
    },
    {
      "midi": 31,
      "hit": false,
      "t": 98250,
      "d": 250,
      "v": 64
    },
    {
      "midi": 43,
      "hit": false,
      "t": 98250,
      "d": 250,
      "v": 64
    },
    {
      "midi": 57,
      "hit": false,
      "t": 98312.49999999999,
      "d": 62.5,
      "v": 107
    },
    {
      "midi": 55,
      "hit": false,
      "t": 98374.99999999999,
      "d": 62.5,
      "v": 107
    },
    {
      "midi": 57,
      "hit": false,
      "t": 98437.49999999999,
      "d": 62.5,
      "v": 107
    },
    {
      "midi": 54,
      "hit": false,
      "t": 98499.99999999999,
      "d": 62.5,
      "v": 107
    },
    {
      "midi": 30,
      "hit": false,
      "t": 98500,
      "d": 250,
      "v": 64
    },
    {
      "midi": 42,
      "hit": false,
      "t": 98500,
      "d": 250,
      "v": 64
    },
    {
      "midi": 55,
      "hit": false,
      "t": 98562.49999999999,
      "d": 62.5,
      "v": 107
    },
    {
      "midi": 54,
      "hit": false,
      "t": 98624.99999999999,
      "d": 62.5,
      "v": 107
    },
    {
      "midi": 55,
      "hit": false,
      "t": 98687.49999999999,
      "d": 62.5,
      "v": 107
    },
    {
      "midi": 52,
      "hit": false,
      "t": 98749.99999999999,
      "d": 62.5,
      "v": 107
    },
    {
      "midi": 28,
      "hit": false,
      "t": 98750,
      "d": 250,
      "v": 64
    },
    {
      "midi": 40,
      "hit": false,
      "t": 98750,
      "d": 250,
      "v": 64
    },
    {
      "midi": 54,
      "hit": false,
      "t": 98812.49999999999,
      "d": 62.5,
      "v": 107
    },
    {
      "midi": 52,
      "hit": false,
      "t": 98874.99999999999,
      "d": 62.5,
      "v": 107
    },
    {
      "midi": 54,
      "hit": false,
      "t": 98937.49999999999,
      "d": 62.5,
      "v": 107
    },
    {
      "midi": 74,
      "hit": false,
      "t": 98999.99999999999,
      "d": 1000,
      "v": 107
    },
    {
      "midi": 26,
      "hit": false,
      "t": 99000,
      "d": 250,
      "v": 64
    },
    {
      "midi": 38,
      "hit": false,
      "t": 99000,
      "d": 250,
      "v": 64
    },
    {
      "midi": 54,
      "hit": false,
      "t": 99250,
      "d": 125,
      "v": 64
    },
    {
      "midi": 57,
      "hit": false,
      "t": 99250,
      "d": 125,
      "v": 64
    },
    {
      "midi": 62,
      "hit": false,
      "t": 99250,
      "d": 125,
      "v": 64
    },
    {
      "midi": 54,
      "hit": false,
      "t": 99375,
      "d": 125,
      "v": 64
    },
    {
      "midi": 57,
      "hit": false,
      "t": 99375,
      "d": 125,
      "v": 64
    },
    {
      "midi": 62,
      "hit": false,
      "t": 99375,
      "d": 125,
      "v": 64
    },
    {
      "midi": 54,
      "hit": false,
      "t": 99500,
      "d": 250,
      "v": 64
    },
    {
      "midi": 57,
      "hit": false,
      "t": 99500,
      "d": 250,
      "v": 64
    },
    {
      "midi": 62,
      "hit": false,
      "t": 99500,
      "d": 250,
      "v": 64
    },
    {
      "midi": 54,
      "hit": false,
      "t": 99750,
      "d": 250,
      "v": 64
    },
    {
      "midi": 57,
      "hit": false,
      "t": 99750,
      "d": 250,
      "v": 64
    },
    {
      "midi": 62,
      "hit": false,
      "t": 99750,
      "d": 250,
      "v": 64
    },
    {
      "midi": 69,
      "hit": false,
      "t": 99999.99999999999,
      "d": 500,
      "v": 107
    },
    {
      "midi": 55,
      "hit": false,
      "t": 100000,
      "d": 250,
      "v": 64
    },
    {
      "midi": 57,
      "hit": false,
      "t": 100000,
      "d": 250,
      "v": 64
    },
    {
      "midi": 61,
      "hit": false,
      "t": 100000,
      "d": 250,
      "v": 64
    },
    {
      "midi": 55,
      "hit": false,
      "t": 100250,
      "d": 250,
      "v": 64
    },
    {
      "midi": 57,
      "hit": false,
      "t": 100250,
      "d": 250,
      "v": 64
    },
    {
      "midi": 61,
      "hit": false,
      "t": 100250,
      "d": 250,
      "v": 64
    },
    {
      "midi": 62,
      "hit": false,
      "t": 100499.99999999999,
      "d": 250,
      "v": 107
    },
    {
      "midi": 26,
      "hit": false,
      "t": 100500,
      "d": 250,
      "v": 64
    },
    {
      "midi": 38,
      "hit": false,
      "t": 100500,
      "d": 250,
      "v": 64
    },
    {
      "midi": 50,
      "hit": false,
      "t": 100750,
      "d": 125,
      "v": 64
    },
    {
      "midi": 54,
      "hit": false,
      "t": 100750,
      "d": 125,
      "v": 64
    },
    {
      "midi": 57,
      "hit": false,
      "t": 100874.99999999999,
      "d": 125,
      "v": 107
    },
    {
      "midi": 50,
      "hit": false,
      "t": 100875,
      "d": 125,
      "v": 64
    },
    {
      "midi": 54,
      "hit": false,
      "t": 100875,
      "d": 125,
      "v": 64
    },
    {
      "midi": 62,
      "hit": false,
      "t": 100999.99999999999,
      "d": 1000,
      "v": 107
    },
    {
      "midi": 50,
      "hit": false,
      "t": 101000,
      "d": 250,
      "v": 64
    },
    {
      "midi": 54,
      "hit": false,
      "t": 101000,
      "d": 250,
      "v": 64
    },
    {
      "midi": 54,
      "hit": false,
      "t": 101250,
      "d": 250,
      "v": 64
    },
    {
      "midi": 57,
      "hit": false,
      "t": 101250,
      "d": 250,
      "v": 64
    },
    {
      "midi": 52,
      "hit": false,
      "t": 101500,
      "d": 250,
      "v": 64
    },
    {
      "midi": 55,
      "hit": false,
      "t": 101500,
      "d": 250,
      "v": 64
    },
    {
      "midi": 57,
      "hit": false,
      "t": 101500,
      "d": 250,
      "v": 64
    },
    {
      "midi": 50,
      "hit": false,
      "t": 101750,
      "d": 250,
      "v": 64
    },
    {
      "midi": 54,
      "hit": false,
      "t": 101750,
      "d": 250,
      "v": 64
    },
    {
      "midi": 57,
      "hit": false,
      "t": 101750,
      "d": 250,
      "v": 64
    },
    {
      "midi": 69,
      "hit": false,
      "t": 101999.99999999997,
      "d": 1000,
      "v": 63
    },
    {
      "midi": 33,
      "hit": false,
      "t": 101999.99999999999,
      "d": 250,
      "v": 127
    },
    {
      "midi": 45,
      "hit": false,
      "t": 101999.99999999999,
      "d": 250,
      "v": 127
    },
    {
      "midi": 49,
      "hit": false,
      "t": 102249.99999999999,
      "d": 125,
      "v": 127
    },
    {
      "midi": 52,
      "hit": false,
      "t": 102249.99999999999,
      "d": 125,
      "v": 127
    },
    {
      "midi": 57,
      "hit": false,
      "t": 102249.99999999999,
      "d": 125,
      "v": 127
    },
    {
      "midi": 49,
      "hit": false,
      "t": 102374.99999999999,
      "d": 125,
      "v": 127
    },
    {
      "midi": 52,
      "hit": false,
      "t": 102374.99999999999,
      "d": 125,
      "v": 127
    },
    {
      "midi": 57,
      "hit": false,
      "t": 102374.99999999999,
      "d": 125,
      "v": 127
    },
    {
      "midi": 49,
      "hit": false,
      "t": 102499.99999999999,
      "d": 250,
      "v": 127
    },
    {
      "midi": 52,
      "hit": false,
      "t": 102499.99999999999,
      "d": 250,
      "v": 127
    },
    {
      "midi": 57,
      "hit": false,
      "t": 102499.99999999999,
      "d": 250,
      "v": 127
    },
    {
      "midi": 49,
      "hit": false,
      "t": 102749.99999999999,
      "d": 250,
      "v": 127
    },
    {
      "midi": 52,
      "hit": false,
      "t": 102749.99999999999,
      "d": 250,
      "v": 127
    },
    {
      "midi": 57,
      "hit": false,
      "t": 102749.99999999999,
      "d": 250,
      "v": 127
    },
    {
      "midi": 64,
      "hit": false,
      "t": 102999.99999999997,
      "d": 500,
      "v": 63
    },
    {
      "midi": 47,
      "hit": false,
      "t": 102999.99999999999,
      "d": 250,
      "v": 127
    },
    {
      "midi": 50,
      "hit": false,
      "t": 102999.99999999999,
      "d": 250,
      "v": 127
    },
    {
      "midi": 57,
      "hit": false,
      "t": 102999.99999999999,
      "d": 250,
      "v": 127
    },
    {
      "midi": 47,
      "hit": false,
      "t": 103249.99999999999,
      "d": 250,
      "v": 127
    },
    {
      "midi": 50,
      "hit": false,
      "t": 103249.99999999999,
      "d": 250,
      "v": 127
    },
    {
      "midi": 57,
      "hit": false,
      "t": 103249.99999999999,
      "d": 250,
      "v": 127
    },
    {
      "midi": 57,
      "hit": false,
      "t": 103499.99999999997,
      "d": 250,
      "v": 63
    },
    {
      "midi": 33,
      "hit": false,
      "t": 103499.99999999999,
      "d": 250,
      "v": 127
    },
    {
      "midi": 45,
      "hit": false,
      "t": 103499.99999999999,
      "d": 250,
      "v": 127
    },
    {
      "midi": 45,
      "hit": false,
      "t": 103749.99999999999,
      "d": 125,
      "v": 127
    },
    {
      "midi": 49,
      "hit": false,
      "t": 103749.99999999999,
      "d": 125,
      "v": 127
    },
    {
      "midi": 52,
      "hit": false,
      "t": 103874.99999999997,
      "d": 125,
      "v": 63
    },
    {
      "midi": 45,
      "hit": false,
      "t": 103874.99999999999,
      "d": 125,
      "v": 127
    },
    {
      "midi": 49,
      "hit": false,
      "t": 103874.99999999999,
      "d": 125,
      "v": 127
    },
    {
      "midi": 52,
      "hit": false,
      "t": 103874.99999999999,
      "d": 125,
      "v": 127
    },
    {
      "midi": 57,
      "hit": false,
      "t": 103999.99999999997,
      "d": 1000,
      "v": 63
    },
    {
      "midi": 45,
      "hit": false,
      "t": 103999.99999999999,
      "d": 250,
      "v": 127
    },
    {
      "midi": 49,
      "hit": false,
      "t": 103999.99999999999,
      "d": 250,
      "v": 127
    },
    {
      "midi": 49,
      "hit": false,
      "t": 104249.99999999999,
      "d": 250,
      "v": 127
    },
    {
      "midi": 52,
      "hit": false,
      "t": 104249.99999999999,
      "d": 250,
      "v": 127
    },
    {
      "midi": 47,
      "hit": false,
      "t": 104499.99999999999,
      "d": 250,
      "v": 127
    },
    {
      "midi": 50,
      "hit": false,
      "t": 104499.99999999999,
      "d": 250,
      "v": 127
    },
    {
      "midi": 52,
      "hit": false,
      "t": 104499.99999999999,
      "d": 250,
      "v": 127
    },
    {
      "midi": 45,
      "hit": false,
      "t": 104749.99999999999,
      "d": 250,
      "v": 127
    },
    {
      "midi": 49,
      "hit": false,
      "t": 104749.99999999999,
      "d": 250,
      "v": 127
    },
    {
      "midi": 52,
      "hit": false,
      "t": 104749.99999999999,
      "d": 250,
      "v": 127
    },
    {
      "midi": 59,
      "hit": false,
      "t": 104999.99999999997,
      "d": 250,
      "v": 63
    },
    {
      "midi": 31,
      "hit": false,
      "t": 104999.99999999999,
      "d": 250,
      "v": 127
    },
    {
      "midi": 43,
      "hit": false,
      "t": 104999.99999999999,
      "d": 250,
      "v": 127
    },
    {
      "midi": 62,
      "hit": false,
      "t": 105249.99999999997,
      "d": 83.33333333332848,
      "v": 63
    },
    {
      "midi": 67,
      "hit": false,
      "t": 105249.99999999997,
      "d": 83.33333333332848,
      "v": 63
    },
    {
      "midi": 71,
      "hit": false,
      "t": 105249.99999999997,
      "d": 83.33333333332848,
      "v": 63
    },
    {
      "midi": 43,
      "hit": false,
      "t": 105249.99999999999,
      "d": 125,
      "v": 127
    },
    {
      "midi": 55,
      "hit": false,
      "t": 105249.99999999999,
      "d": 125,
      "v": 127
    },
    {
      "midi": 59,
      "hit": false,
      "t": 105333.3333333333,
      "d": 83.33333333332848,
      "v": 63
    },
    {
      "midi": 43,
      "hit": false,
      "t": 105374.99999999999,
      "d": 125,
      "v": 127
    },
    {
      "midi": 55,
      "hit": false,
      "t": 105374.99999999999,
      "d": 125,
      "v": 127
    },
    {
      "midi": 62,
      "hit": false,
      "t": 105416.66666666663,
      "d": 83.33333333332848,
      "v": 63
    },
    {
      "midi": 67,
      "hit": false,
      "t": 105416.66666666663,
      "d": 83.33333333332848,
      "v": 63
    },
    {
      "midi": 71,
      "hit": false,
      "t": 105416.66666666663,
      "d": 83.33333333332848,
      "v": 63
    },
    {
      "midi": 59,
      "hit": false,
      "t": 105499.99999999996,
      "d": 250,
      "v": 63
    },
    {
      "midi": 62,
      "hit": false,
      "t": 105499.99999999996,
      "d": 250,
      "v": 63
    },
    {
      "midi": 67,
      "hit": false,
      "t": 105499.99999999996,
      "d": 250,
      "v": 63
    },
    {
      "midi": 71,
      "hit": false,
      "t": 105499.99999999996,
      "d": 250,
      "v": 63
    },
    {
      "midi": 43,
      "hit": false,
      "t": 105499.99999999999,
      "d": 250,
      "v": 127
    },
    {
      "midi": 55,
      "hit": false,
      "t": 105499.99999999999,
      "d": 250,
      "v": 127
    },
    {
      "midi": 61,
      "hit": false,
      "t": 105749.99999999996,
      "d": 250,
      "v": 63
    },
    {
      "midi": 66,
      "hit": false,
      "t": 105749.99999999996,
      "d": 250,
      "v": 63
    },
    {
      "midi": 70,
      "hit": false,
      "t": 105749.99999999996,
      "d": 250,
      "v": 63
    },
    {
      "midi": 73,
      "hit": false,
      "t": 105749.99999999996,
      "d": 250,
      "v": 63
    },
    {
      "midi": 42,
      "hit": false,
      "t": 105749.99999999999,
      "d": 250,
      "v": 127
    },
    {
      "midi": 54,
      "hit": false,
      "t": 105749.99999999999,
      "d": 250,
      "v": 127
    },
    {
      "midi": 62,
      "hit": false,
      "t": 105999.99999999996,
      "d": 250,
      "v": 63
    },
    {
      "midi": 66,
      "hit": false,
      "t": 105999.99999999996,
      "d": 250,
      "v": 63
    },
    {
      "midi": 71,
      "hit": false,
      "t": 105999.99999999996,
      "d": 250,
      "v": 63
    },
    {
      "midi": 74,
      "hit": false,
      "t": 105999.99999999996,
      "d": 250,
      "v": 63
    },
    {
      "midi": 35,
      "hit": false,
      "t": 105999.99999999999,
      "d": 250,
      "v": 127
    },
    {
      "midi": 47,
      "hit": false,
      "t": 105999.99999999999,
      "d": 250,
      "v": 127
    },
    {
      "midi": 64,
      "hit": false,
      "t": 106249.99999999996,
      "d": 250,
      "v": 63
    },
    {
      "midi": 69,
      "hit": false,
      "t": 106249.99999999996,
      "d": 250,
      "v": 63
    },
    {
      "midi": 73,
      "hit": false,
      "t": 106249.99999999996,
      "d": 250,
      "v": 63
    },
    {
      "midi": 76,
      "hit": false,
      "t": 106249.99999999996,
      "d": 250,
      "v": 63
    },
    {
      "midi": 33,
      "hit": false,
      "t": 106249.99999999999,
      "d": 250,
      "v": 127
    },
    {
      "midi": 45,
      "hit": false,
      "t": 106249.99999999999,
      "d": 250,
      "v": 127
    },
    {
      "midi": 66,
      "hit": false,
      "t": 106499.99999999996,
      "d": 250,
      "v": 63
    },
    {
      "midi": 69,
      "hit": false,
      "t": 106499.99999999996,
      "d": 250,
      "v": 63
    },
    {
      "midi": 74,
      "hit": false,
      "t": 106499.99999999996,
      "d": 250,
      "v": 63
    },
    {
      "midi": 78,
      "hit": false,
      "t": 106499.99999999996,
      "d": 250,
      "v": 63
    },
    {
      "midi": 25,
      "hit": false,
      "t": 106499.99999999999,
      "d": 250,
      "v": 127
    },
    {
      "midi": 38,
      "hit": false,
      "t": 106499.99999999999,
      "d": 250,
      "v": 127
    },
    {
      "midi": 69,
      "hit": false,
      "t": 106749.99999999996,
      "d": 83.33333333332848,
      "v": 63
    },
    {
      "midi": 74,
      "hit": false,
      "t": 106749.99999999996,
      "d": 83.33333333332848,
      "v": 63
    },
    {
      "midi": 78,
      "hit": false,
      "t": 106749.99999999996,
      "d": 83.33333333332848,
      "v": 63
    },
    {
      "midi": 50,
      "hit": false,
      "t": 106749.99999999999,
      "d": 125,
      "v": 127
    },
    {
      "midi": 62,
      "hit": false,
      "t": 106749.99999999999,
      "d": 125,
      "v": 127
    },
    {
      "midi": 66,
      "hit": false,
      "t": 106833.33333333328,
      "d": 83.33333333332848,
      "v": 63
    },
    {
      "midi": 50,
      "hit": false,
      "t": 106874.99999999999,
      "d": 125,
      "v": 127
    },
    {
      "midi": 62,
      "hit": false,
      "t": 106874.99999999999,
      "d": 125,
      "v": 127
    },
    {
      "midi": 69,
      "hit": false,
      "t": 106916.66666666661,
      "d": 333.3333333333285,
      "v": 63
    },
    {
      "midi": 74,
      "hit": false,
      "t": 106916.66666666661,
      "d": 333.3333333333285,
      "v": 63
    },
    {
      "midi": 78,
      "hit": false,
      "t": 106916.66666666661,
      "d": 333.3333333333285,
      "v": 63
    },
    {
      "midi": 66,
      "hit": false,
      "t": 106999.99999999994,
      "d": 250,
      "v": 63
    },
    {
      "midi": 50,
      "hit": false,
      "t": 106999.99999999999,
      "d": 250,
      "v": 127
    },
    {
      "midi": 62,
      "hit": false,
      "t": 106999.99999999999,
      "d": 250,
      "v": 127
    },
    {
      "midi": 68,
      "hit": false,
      "t": 107249.99999999994,
      "d": 250,
      "v": 63
    },
    {
      "midi": 73,
      "hit": false,
      "t": 107249.99999999994,
      "d": 250,
      "v": 63
    },
    {
      "midi": 77,
      "hit": false,
      "t": 107249.99999999994,
      "d": 250,
      "v": 63
    },
    {
      "midi": 80,
      "hit": false,
      "t": 107249.99999999994,
      "d": 250,
      "v": 63
    },
    {
      "midi": 49,
      "hit": false,
      "t": 107249.99999999999,
      "d": 250,
      "v": 127
    },
    {
      "midi": 61,
      "hit": false,
      "t": 107249.99999999999,
      "d": 250,
      "v": 127
    },
    {
      "midi": 69,
      "hit": false,
      "t": 107499.99999999994,
      "d": 250,
      "v": 63
    },
    {
      "midi": 73,
      "hit": false,
      "t": 107499.99999999994,
      "d": 250,
      "v": 63
    },
    {
      "midi": 78,
      "hit": false,
      "t": 107499.99999999994,
      "d": 250,
      "v": 63
    },
    {
      "midi": 81,
      "hit": false,
      "t": 107499.99999999994,
      "d": 250,
      "v": 63
    },
    {
      "midi": 42,
      "hit": false,
      "t": 107499.99999999999,
      "d": 250,
      "v": 127
    },
    {
      "midi": 54,
      "hit": false,
      "t": 107499.99999999999,
      "d": 250,
      "v": 127
    },
    {
      "midi": 71,
      "hit": false,
      "t": 107749.99999999994,
      "d": 250,
      "v": 63
    },
    {
      "midi": 76,
      "hit": false,
      "t": 107749.99999999994,
      "d": 250,
      "v": 63
    },
    {
      "midi": 80,
      "hit": false,
      "t": 107749.99999999994,
      "d": 250,
      "v": 63
    },
    {
      "midi": 83,
      "hit": false,
      "t": 107749.99999999994,
      "d": 250,
      "v": 63
    },
    {
      "midi": 40,
      "hit": false,
      "t": 107749.99999999999,
      "d": 250,
      "v": 127
    },
    {
      "midi": 52,
      "hit": false,
      "t": 107749.99999999999,
      "d": 250,
      "v": 127
    },
    {
      "midi": 73,
      "hit": false,
      "t": 107999.99999999994,
      "d": 250,
      "v": 63
    },
    {
      "midi": 79,
      "hit": false,
      "t": 107999.99999999994,
      "d": 250,
      "v": 63
    },
    {
      "midi": 85,
      "hit": false,
      "t": 107999.99999999994,
      "d": 250,
      "v": 63
    },
    {
      "midi": 45,
      "hit": false,
      "t": 107999.99999999999,
      "d": 250,
      "v": 107
    },
    {
      "midi": 57,
      "hit": false,
      "t": 107999.99999999999,
      "d": 250,
      "v": 107
    },
    {
      "midi": 73,
      "hit": false,
      "t": 108249.99999999994,
      "d": 125,
      "v": 63
    },
    {
      "midi": 79,
      "hit": false,
      "t": 108249.99999999994,
      "d": 125,
      "v": 63
    },
    {
      "midi": 85,
      "hit": false,
      "t": 108249.99999999994,
      "d": 125,
      "v": 63
    },
    {
      "midi": 69,
      "hit": false,
      "t": 108249.99999999999,
      "d": 125,
      "v": 107
    },
    {
      "midi": 76,
      "hit": false,
      "t": 108249.99999999999,
      "d": 125,
      "v": 107
    },
    {
      "midi": 79,
      "hit": false,
      "t": 108249.99999999999,
      "d": 125,
      "v": 107
    },
    {
      "midi": 73,
      "hit": false,
      "t": 108374.99999999994,
      "d": 125,
      "v": 63
    },
    {
      "midi": 79,
      "hit": false,
      "t": 108374.99999999994,
      "d": 125,
      "v": 63
    },
    {
      "midi": 85,
      "hit": false,
      "t": 108374.99999999994,
      "d": 125,
      "v": 63
    },
    {
      "midi": 69,
      "hit": false,
      "t": 108374.99999999999,
      "d": 125,
      "v": 107
    },
    {
      "midi": 76,
      "hit": false,
      "t": 108374.99999999999,
      "d": 125,
      "v": 107
    },
    {
      "midi": 79,
      "hit": false,
      "t": 108374.99999999999,
      "d": 125,
      "v": 107
    },
    {
      "midi": 81,
      "hit": false,
      "t": 108374.99999999999,
      "d": 125,
      "v": 107
    },
    {
      "midi": 73,
      "hit": false,
      "t": 108499.99999999994,
      "d": 250,
      "v": 63
    },
    {
      "midi": 79,
      "hit": false,
      "t": 108499.99999999994,
      "d": 250,
      "v": 63
    },
    {
      "midi": 85,
      "hit": false,
      "t": 108499.99999999994,
      "d": 250,
      "v": 63
    },
    {
      "midi": 69,
      "hit": false,
      "t": 108499.99999999999,
      "d": 250,
      "v": 107
    },
    {
      "midi": 76,
      "hit": false,
      "t": 108499.99999999999,
      "d": 250,
      "v": 107
    },
    {
      "midi": 79,
      "hit": false,
      "t": 108499.99999999999,
      "d": 250,
      "v": 107
    },
    {
      "midi": 81,
      "hit": false,
      "t": 108499.99999999999,
      "d": 250,
      "v": 107
    },
    {
      "midi": 73,
      "hit": false,
      "t": 108749.99999999994,
      "d": 125,
      "v": 63
    },
    {
      "midi": 79,
      "hit": false,
      "t": 108749.99999999994,
      "d": 125,
      "v": 63
    },
    {
      "midi": 83,
      "hit": false,
      "t": 108749.99999999994,
      "d": 125,
      "v": 63
    },
    {
      "midi": 69,
      "hit": false,
      "t": 108749.99999999999,
      "d": 125,
      "v": 107
    },
    {
      "midi": 76,
      "hit": false,
      "t": 108749.99999999999,
      "d": 125,
      "v": 107
    },
    {
      "midi": 79,
      "hit": false,
      "t": 108749.99999999999,
      "d": 125,
      "v": 107
    },
    {
      "midi": 81,
      "hit": false,
      "t": 108749.99999999999,
      "d": 125,
      "v": 107
    },
    {
      "midi": 73,
      "hit": false,
      "t": 108874.99999999994,
      "d": 125,
      "v": 63
    },
    {
      "midi": 79,
      "hit": false,
      "t": 108874.99999999994,
      "d": 125,
      "v": 63
    },
    {
      "midi": 81,
      "hit": false,
      "t": 108874.99999999994,
      "d": 125,
      "v": 63
    },
    {
      "midi": 69,
      "hit": false,
      "t": 108874.99999999999,
      "d": 125,
      "v": 107
    },
    {
      "midi": 76,
      "hit": false,
      "t": 108874.99999999999,
      "d": 125,
      "v": 107
    },
    {
      "midi": 79,
      "hit": false,
      "t": 108874.99999999999,
      "d": 125,
      "v": 107
    },
    {
      "midi": 81,
      "hit": false,
      "t": 108874.99999999999,
      "d": 125,
      "v": 107
    },
    {
      "midi": 74,
      "hit": false,
      "t": 108999.99999999994,
      "d": 250,
      "v": 63
    },
    {
      "midi": 78,
      "hit": false,
      "t": 108999.99999999994,
      "d": 250,
      "v": 63
    },
    {
      "midi": 86,
      "hit": false,
      "t": 108999.99999999994,
      "d": 250,
      "v": 63
    },
    {
      "midi": 69,
      "hit": false,
      "t": 108999.99999999999,
      "d": 250,
      "v": 107
    },
    {
      "midi": 78,
      "hit": false,
      "t": 108999.99999999999,
      "d": 250,
      "v": 107
    },
    {
      "midi": 81,
      "hit": false,
      "t": 108999.99999999999,
      "d": 250,
      "v": 107
    },
    {
      "midi": 75,
      "hit": false,
      "t": 109249.99999999994,
      "d": 250,
      "v": 63
    },
    {
      "midi": 81,
      "hit": false,
      "t": 109249.99999999994,
      "d": 250,
      "v": 63
    },
    {
      "midi": 87,
      "hit": false,
      "t": 109249.99999999994,
      "d": 250,
      "v": 63
    },
    {
      "midi": 70,
      "hit": false,
      "t": 109249.99999999999,
      "d": 250,
      "v": 107
    },
    {
      "midi": 72,
      "hit": false,
      "t": 109249.99999999999,
      "d": 250,
      "v": 107
    },
    {
      "midi": 78,
      "hit": false,
      "t": 109249.99999999999,
      "d": 250,
      "v": 107
    },
    {
      "midi": 81,
      "hit": false,
      "t": 109249.99999999999,
      "d": 250,
      "v": 107
    },
    {
      "midi": 76,
      "hit": false,
      "t": 109499.99999999994,
      "d": 250,
      "v": 63
    },
    {
      "midi": 81,
      "hit": false,
      "t": 109499.99999999994,
      "d": 250,
      "v": 63
    },
    {
      "midi": 88,
      "hit": false,
      "t": 109499.99999999994,
      "d": 250,
      "v": 63
    },
    {
      "midi": 69,
      "hit": false,
      "t": 109499.99999999999,
      "d": 250,
      "v": 107
    },
    {
      "midi": 73,
      "hit": false,
      "t": 109499.99999999999,
      "d": 250,
      "v": 107
    },
    {
      "midi": 79,
      "hit": false,
      "t": 109499.99999999999,
      "d": 250,
      "v": 107
    },
    {
      "midi": 81,
      "hit": false,
      "t": 109499.99999999999,
      "d": 250,
      "v": 107
    },
    {
      "midi": 81,
      "hit": false,
      "t": 109749.99999999994,
      "d": 125,
      "v": 63
    },
    {
      "midi": 93,
      "hit": false,
      "t": 109749.99999999994,
      "d": 125,
      "v": 63
    },
    {
      "midi": 45,
      "hit": false,
      "t": 109749.99999999999,
      "d": 125,
      "v": 107
    },
    {
      "midi": 57,
      "hit": false,
      "t": 109749.99999999999,
      "d": 125,
      "v": 107
    },
    {
      "midi": 81,
      "hit": false,
      "t": 109874.99999999994,
      "d": 125,
      "v": 63
    },
    {
      "midi": 93,
      "hit": false,
      "t": 109874.99999999994,
      "d": 125,
      "v": 63
    },
    {
      "midi": 45,
      "hit": false,
      "t": 109874.99999999999,
      "d": 125,
      "v": 107
    },
    {
      "midi": 57,
      "hit": false,
      "t": 109874.99999999999,
      "d": 125,
      "v": 107
    },
    {
      "midi": 81,
      "hit": false,
      "t": 109999.99999999994,
      "d": 250,
      "v": 63
    },
    {
      "midi": 93,
      "hit": false,
      "t": 109999.99999999994,
      "d": 250,
      "v": 63
    },
    {
      "midi": 45,
      "hit": false,
      "t": 109999.99999999999,
      "d": 250,
      "v": 107
    },
    {
      "midi": 57,
      "hit": false,
      "t": 109999.99999999999,
      "d": 250,
      "v": 107
    },
    {
      "midi": 80,
      "hit": false,
      "t": 110249.99999999994,
      "d": 125,
      "v": 63
    },
    {
      "midi": 92,
      "hit": false,
      "t": 110249.99999999994,
      "d": 125,
      "v": 63
    },
    {
      "midi": 46,
      "hit": false,
      "t": 110249.99999999999,
      "d": 125,
      "v": 107
    },
    {
      "midi": 58,
      "hit": false,
      "t": 110249.99999999999,
      "d": 125,
      "v": 107
    },
    {
      "midi": 81,
      "hit": false,
      "t": 110374.99999999994,
      "d": 125,
      "v": 63
    },
    {
      "midi": 93,
      "hit": false,
      "t": 110374.99999999994,
      "d": 125,
      "v": 63
    },
    {
      "midi": 45,
      "hit": false,
      "t": 110374.99999999999,
      "d": 125,
      "v": 107
    },
    {
      "midi": 57,
      "hit": false,
      "t": 110374.99999999999,
      "d": 125,
      "v": 107
    },
    {
      "midi": 82,
      "hit": false,
      "t": 110499.99999999994,
      "d": 125,
      "v": 63
    },
    {
      "midi": 94,
      "hit": false,
      "t": 110499.99999999994,
      "d": 125,
      "v": 63
    },
    {
      "midi": 44,
      "hit": false,
      "t": 110499.99999999999,
      "d": 125,
      "v": 107
    },
    {
      "midi": 56,
      "hit": false,
      "t": 110499.99999999999,
      "d": 125,
      "v": 107
    },
    {
      "midi": 83,
      "hit": false,
      "t": 110624.99999999994,
      "d": 125,
      "v": 63
    },
    {
      "midi": 95,
      "hit": false,
      "t": 110624.99999999994,
      "d": 125,
      "v": 63
    },
    {
      "midi": 43,
      "hit": false,
      "t": 110624.99999999999,
      "d": 125,
      "v": 107
    },
    {
      "midi": 55,
      "hit": false,
      "t": 110624.99999999999,
      "d": 125,
      "v": 107
    },
    {
      "midi": 84,
      "hit": false,
      "t": 110749.99999999994,
      "d": 125,
      "v": 63
    },
    {
      "midi": 96,
      "hit": false,
      "t": 110749.99999999994,
      "d": 125,
      "v": 63
    },
    {
      "midi": 42,
      "hit": false,
      "t": 110749.99999999999,
      "d": 125,
      "v": 107
    },
    {
      "midi": 54,
      "hit": false,
      "t": 110749.99999999999,
      "d": 125,
      "v": 107
    },
    {
      "midi": 85,
      "hit": false,
      "t": 110874.99999999994,
      "d": 125,
      "v": 63
    },
    {
      "midi": 97,
      "hit": false,
      "t": 110874.99999999994,
      "d": 125,
      "v": 63
    },
    {
      "midi": 40,
      "hit": false,
      "t": 110874.99999999999,
      "d": 125,
      "v": 107
    },
    {
      "midi": 52,
      "hit": false,
      "t": 110874.99999999999,
      "d": 125,
      "v": 107
    },
    {
      "midi": 86,
      "hit": false,
      "t": 110999.99999999994,
      "d": 1000,
      "v": 63
    },
    {
      "midi": 98,
      "hit": false,
      "t": 110999.99999999994,
      "d": 1000,
      "v": 63
    },
    {
      "midi": 26,
      "hit": false,
      "t": 110999.99999999999,
      "d": 250,
      "v": 127
    },
    {
      "midi": 38,
      "hit": false,
      "t": 110999.99999999999,
      "d": 250,
      "v": 127
    },
    {
      "midi": 54,
      "hit": false,
      "t": 111249.99999999999,
      "d": 125,
      "v": 127
    },
    {
      "midi": 57,
      "hit": false,
      "t": 111249.99999999999,
      "d": 125,
      "v": 127
    },
    {
      "midi": 62,
      "hit": false,
      "t": 111249.99999999999,
      "d": 125,
      "v": 127
    },
    {
      "midi": 54,
      "hit": false,
      "t": 111374.99999999999,
      "d": 125,
      "v": 127
    },
    {
      "midi": 57,
      "hit": false,
      "t": 111374.99999999999,
      "d": 125,
      "v": 127
    },
    {
      "midi": 62,
      "hit": false,
      "t": 111374.99999999999,
      "d": 125,
      "v": 127
    },
    {
      "midi": 54,
      "hit": false,
      "t": 111499.99999999999,
      "d": 250,
      "v": 127
    },
    {
      "midi": 57,
      "hit": false,
      "t": 111499.99999999999,
      "d": 250,
      "v": 127
    },
    {
      "midi": 62,
      "hit": false,
      "t": 111499.99999999999,
      "d": 250,
      "v": 127
    },
    {
      "midi": 54,
      "hit": false,
      "t": 111749.99999999999,
      "d": 250,
      "v": 127
    },
    {
      "midi": 57,
      "hit": false,
      "t": 111749.99999999999,
      "d": 250,
      "v": 127
    },
    {
      "midi": 62,
      "hit": false,
      "t": 111749.99999999999,
      "d": 250,
      "v": 127
    },
    {
      "midi": 81,
      "hit": false,
      "t": 111999.99999999994,
      "d": 500,
      "v": 63
    },
    {
      "midi": 93,
      "hit": false,
      "t": 111999.99999999994,
      "d": 500,
      "v": 63
    },
    {
      "midi": 55,
      "hit": false,
      "t": 111999.99999999999,
      "d": 250,
      "v": 127
    },
    {
      "midi": 57,
      "hit": false,
      "t": 111999.99999999999,
      "d": 250,
      "v": 127
    },
    {
      "midi": 61,
      "hit": false,
      "t": 111999.99999999999,
      "d": 250,
      "v": 127
    },
    {
      "midi": 55,
      "hit": false,
      "t": 112249.99999999999,
      "d": 250,
      "v": 127
    },
    {
      "midi": 57,
      "hit": false,
      "t": 112249.99999999999,
      "d": 250,
      "v": 127
    },
    {
      "midi": 61,
      "hit": false,
      "t": 112249.99999999999,
      "d": 250,
      "v": 127
    },
    {
      "midi": 74,
      "hit": false,
      "t": 112499.99999999994,
      "d": 250,
      "v": 63
    },
    {
      "midi": 86,
      "hit": false,
      "t": 112499.99999999994,
      "d": 250,
      "v": 63
    },
    {
      "midi": 38,
      "hit": false,
      "t": 112499.99999999999,
      "d": 250,
      "v": 127
    },
    {
      "midi": 50,
      "hit": false,
      "t": 112499.99999999999,
      "d": 250,
      "v": 127
    },
    {
      "midi": 50,
      "hit": false,
      "t": 112749.99999999999,
      "d": 125,
      "v": 127
    },
    {
      "midi": 54,
      "hit": false,
      "t": 112749.99999999999,
      "d": 125,
      "v": 127
    },
    {
      "midi": 62,
      "hit": false,
      "t": 112749.99999999999,
      "d": 125,
      "v": 127
    },
    {
      "midi": 69,
      "hit": false,
      "t": 112874.99999999994,
      "d": 125,
      "v": 63
    },
    {
      "midi": 81,
      "hit": false,
      "t": 112874.99999999994,
      "d": 125,
      "v": 63
    },
    {
      "midi": 50,
      "hit": false,
      "t": 112874.99999999999,
      "d": 125,
      "v": 127
    },
    {
      "midi": 54,
      "hit": false,
      "t": 112874.99999999999,
      "d": 125,
      "v": 127
    },
    {
      "midi": 62,
      "hit": false,
      "t": 112874.99999999999,
      "d": 125,
      "v": 127
    },
    {
      "midi": 74,
      "hit": false,
      "t": 112999.99999999994,
      "d": 1000,
      "v": 63
    },
    {
      "midi": 86,
      "hit": false,
      "t": 112999.99999999994,
      "d": 1000,
      "v": 63
    },
    {
      "midi": 50,
      "hit": false,
      "t": 112999.99999999999,
      "d": 250,
      "v": 127
    },
    {
      "midi": 54,
      "hit": false,
      "t": 112999.99999999999,
      "d": 250,
      "v": 127
    },
    {
      "midi": 62,
      "hit": false,
      "t": 112999.99999999999,
      "d": 250,
      "v": 127
    },
    {
      "midi": 54,
      "hit": false,
      "t": 113249.99999999999,
      "d": 250,
      "v": 127
    },
    {
      "midi": 57,
      "hit": false,
      "t": 113249.99999999999,
      "d": 250,
      "v": 127
    },
    {
      "midi": 62,
      "hit": false,
      "t": 113249.99999999999,
      "d": 250,
      "v": 127
    },
    {
      "midi": 52,
      "hit": false,
      "t": 113499.99999999999,
      "d": 250,
      "v": 127
    },
    {
      "midi": 55,
      "hit": false,
      "t": 113499.99999999999,
      "d": 250,
      "v": 127
    },
    {
      "midi": 62,
      "hit": false,
      "t": 113499.99999999999,
      "d": 250,
      "v": 127
    },
    {
      "midi": 50,
      "hit": false,
      "t": 113749.99999999999,
      "d": 250,
      "v": 127
    },
    {
      "midi": 54,
      "hit": false,
      "t": 113749.99999999999,
      "d": 250,
      "v": 127
    },
    {
      "midi": 62,
      "hit": false,
      "t": 113749.99999999999,
      "d": 250,
      "v": 127
    },
    {
      "midi": 81,
      "hit": false,
      "t": 113999.99999999994,
      "d": 1000,
      "v": 63
    },
    {
      "midi": 93,
      "hit": false,
      "t": 113999.99999999994,
      "d": 1000,
      "v": 63
    },
    {
      "midi": 33,
      "hit": false,
      "t": 113999.99999999999,
      "d": 250,
      "v": 127
    },
    {
      "midi": 45,
      "hit": false,
      "t": 113999.99999999999,
      "d": 250,
      "v": 127
    },
    {
      "midi": 49,
      "hit": false,
      "t": 114249.99999999999,
      "d": 125,
      "v": 127
    },
    {
      "midi": 52,
      "hit": false,
      "t": 114249.99999999999,
      "d": 125,
      "v": 127
    },
    {
      "midi": 57,
      "hit": false,
      "t": 114249.99999999999,
      "d": 125,
      "v": 127
    },
    {
      "midi": 49,
      "hit": false,
      "t": 114374.99999999999,
      "d": 125,
      "v": 127
    },
    {
      "midi": 52,
      "hit": false,
      "t": 114374.99999999999,
      "d": 125,
      "v": 127
    },
    {
      "midi": 57,
      "hit": false,
      "t": 114374.99999999999,
      "d": 125,
      "v": 127
    },
    {
      "midi": 49,
      "hit": false,
      "t": 114499.99999999999,
      "d": 250,
      "v": 127
    },
    {
      "midi": 52,
      "hit": false,
      "t": 114499.99999999999,
      "d": 250,
      "v": 127
    },
    {
      "midi": 57,
      "hit": false,
      "t": 114499.99999999999,
      "d": 250,
      "v": 127
    },
    {
      "midi": 49,
      "hit": false,
      "t": 114749.99999999999,
      "d": 250,
      "v": 127
    },
    {
      "midi": 52,
      "hit": false,
      "t": 114749.99999999999,
      "d": 250,
      "v": 127
    },
    {
      "midi": 57,
      "hit": false,
      "t": 114749.99999999999,
      "d": 250,
      "v": 127
    },
    {
      "midi": 76,
      "hit": false,
      "t": 114999.99999999994,
      "d": 500,
      "v": 63
    },
    {
      "midi": 88,
      "hit": false,
      "t": 114999.99999999994,
      "d": 500,
      "v": 63
    },
    {
      "midi": 47,
      "hit": false,
      "t": 114999.99999999999,
      "d": 250,
      "v": 127
    },
    {
      "midi": 50,
      "hit": false,
      "t": 114999.99999999999,
      "d": 250,
      "v": 127
    },
    {
      "midi": 57,
      "hit": false,
      "t": 114999.99999999999,
      "d": 250,
      "v": 127
    },
    {
      "midi": 47,
      "hit": false,
      "t": 115249.99999999999,
      "d": 250,
      "v": 127
    },
    {
      "midi": 50,
      "hit": false,
      "t": 115249.99999999999,
      "d": 250,
      "v": 127
    },
    {
      "midi": 57,
      "hit": false,
      "t": 115249.99999999999,
      "d": 250,
      "v": 127
    },
    {
      "midi": 69,
      "hit": false,
      "t": 115499.99999999994,
      "d": 250,
      "v": 63
    },
    {
      "midi": 81,
      "hit": false,
      "t": 115499.99999999994,
      "d": 250,
      "v": 63
    },
    {
      "midi": 33,
      "hit": false,
      "t": 115499.99999999999,
      "d": 250,
      "v": 127
    },
    {
      "midi": 45,
      "hit": false,
      "t": 115499.99999999999,
      "d": 250,
      "v": 127
    },
    {
      "midi": 49,
      "hit": false,
      "t": 115749.99999999999,
      "d": 125,
      "v": 127
    },
    {
      "midi": 52,
      "hit": false,
      "t": 115749.99999999999,
      "d": 125,
      "v": 127
    },
    {
      "midi": 57,
      "hit": false,
      "t": 115749.99999999999,
      "d": 125,
      "v": 127
    },
    {
      "midi": 64,
      "hit": false,
      "t": 115874.99999999994,
      "d": 125,
      "v": 63
    },
    {
      "midi": 76,
      "hit": false,
      "t": 115874.99999999994,
      "d": 125,
      "v": 63
    },
    {
      "midi": 49,
      "hit": false,
      "t": 115874.99999999999,
      "d": 125,
      "v": 127
    },
    {
      "midi": 52,
      "hit": false,
      "t": 115874.99999999999,
      "d": 125,
      "v": 127
    },
    {
      "midi": 57,
      "hit": false,
      "t": 115874.99999999999,
      "d": 125,
      "v": 127
    },
    {
      "midi": 69,
      "hit": false,
      "t": 115999.99999999994,
      "d": 1000,
      "v": 63
    },
    {
      "midi": 81,
      "hit": false,
      "t": 115999.99999999994,
      "d": 1000,
      "v": 63
    },
    {
      "midi": 49,
      "hit": false,
      "t": 115999.99999999999,
      "d": 250,
      "v": 127
    },
    {
      "midi": 52,
      "hit": false,
      "t": 115999.99999999999,
      "d": 250,
      "v": 127
    },
    {
      "midi": 57,
      "hit": false,
      "t": 115999.99999999999,
      "d": 250,
      "v": 127
    },
    {
      "midi": 49,
      "hit": false,
      "t": 116249.99999999999,
      "d": 250,
      "v": 127
    },
    {
      "midi": 52,
      "hit": false,
      "t": 116249.99999999999,
      "d": 250,
      "v": 127
    },
    {
      "midi": 57,
      "hit": false,
      "t": 116249.99999999999,
      "d": 250,
      "v": 127
    },
    {
      "midi": 47,
      "hit": false,
      "t": 116499.99999999999,
      "d": 250,
      "v": 127
    },
    {
      "midi": 50,
      "hit": false,
      "t": 116499.99999999999,
      "d": 250,
      "v": 127
    },
    {
      "midi": 57,
      "hit": false,
      "t": 116499.99999999999,
      "d": 250,
      "v": 127
    },
    {
      "midi": 45,
      "hit": false,
      "t": 116749.99999999999,
      "d": 250,
      "v": 127
    },
    {
      "midi": 49,
      "hit": false,
      "t": 116749.99999999999,
      "d": 250,
      "v": 127
    },
    {
      "midi": 57,
      "hit": false,
      "t": 116749.99999999999,
      "d": 250,
      "v": 127
    },
    {
      "midi": 69,
      "hit": false,
      "t": 116999.99999999994,
      "d": 250,
      "v": 63
    },
    {
      "midi": 75,
      "hit": false,
      "t": 116999.99999999994,
      "d": 250,
      "v": 63
    },
    {
      "midi": 81,
      "hit": false,
      "t": 116999.99999999994,
      "d": 250,
      "v": 63
    },
    {
      "midi": 29,
      "hit": false,
      "t": 116999.99999999999,
      "d": 250,
      "v": 127
    },
    {
      "midi": 41,
      "hit": false,
      "t": 116999.99999999999,
      "d": 250,
      "v": 127
    },
    {
      "midi": 69,
      "hit": false,
      "t": 117249.99999999994,
      "d": 125,
      "v": 63
    },
    {
      "midi": 75,
      "hit": false,
      "t": 117249.99999999994,
      "d": 125,
      "v": 63
    },
    {
      "midi": 81,
      "hit": false,
      "t": 117249.99999999994,
      "d": 125,
      "v": 63
    },
    {
      "midi": 53,
      "hit": false,
      "t": 117249.99999999999,
      "d": 125,
      "v": 127
    },
    {
      "midi": 60,
      "hit": false,
      "t": 117249.99999999999,
      "d": 125,
      "v": 127
    },
    {
      "midi": 63,
      "hit": false,
      "t": 117249.99999999999,
      "d": 125,
      "v": 127
    },
    {
      "midi": 65,
      "hit": false,
      "t": 117249.99999999999,
      "d": 125,
      "v": 127
    },
    {
      "midi": 69,
      "hit": false,
      "t": 117374.99999999994,
      "d": 125,
      "v": 63
    },
    {
      "midi": 75,
      "hit": false,
      "t": 117374.99999999994,
      "d": 125,
      "v": 63
    },
    {
      "midi": 81,
      "hit": false,
      "t": 117374.99999999994,
      "d": 125,
      "v": 63
    },
    {
      "midi": 53,
      "hit": false,
      "t": 117374.99999999999,
      "d": 125,
      "v": 127
    },
    {
      "midi": 60,
      "hit": false,
      "t": 117374.99999999999,
      "d": 125,
      "v": 127
    },
    {
      "midi": 63,
      "hit": false,
      "t": 117374.99999999999,
      "d": 125,
      "v": 127
    },
    {
      "midi": 65,
      "hit": false,
      "t": 117374.99999999999,
      "d": 125,
      "v": 127
    },
    {
      "midi": 69,
      "hit": false,
      "t": 117499.99999999994,
      "d": 250,
      "v": 63
    },
    {
      "midi": 75,
      "hit": false,
      "t": 117499.99999999994,
      "d": 250,
      "v": 63
    },
    {
      "midi": 81,
      "hit": false,
      "t": 117499.99999999994,
      "d": 250,
      "v": 63
    },
    {
      "midi": 53,
      "hit": false,
      "t": 117499.99999999999,
      "d": 250,
      "v": 127
    },
    {
      "midi": 60,
      "hit": false,
      "t": 117499.99999999999,
      "d": 250,
      "v": 127
    },
    {
      "midi": 63,
      "hit": false,
      "t": 117499.99999999999,
      "d": 250,
      "v": 127
    },
    {
      "midi": 65,
      "hit": false,
      "t": 117499.99999999999,
      "d": 250,
      "v": 127
    },
    {
      "midi": 69,
      "hit": false,
      "t": 117749.99999999994,
      "d": 125,
      "v": 63
    },
    {
      "midi": 75,
      "hit": false,
      "t": 117749.99999999994,
      "d": 125,
      "v": 63
    },
    {
      "midi": 79,
      "hit": false,
      "t": 117749.99999999994,
      "d": 125,
      "v": 63
    },
    {
      "midi": 53,
      "hit": false,
      "t": 117749.99999999999,
      "d": 125,
      "v": 127
    },
    {
      "midi": 60,
      "hit": false,
      "t": 117749.99999999999,
      "d": 125,
      "v": 127
    },
    {
      "midi": 63,
      "hit": false,
      "t": 117749.99999999999,
      "d": 125,
      "v": 127
    },
    {
      "midi": 65,
      "hit": false,
      "t": 117749.99999999999,
      "d": 125,
      "v": 127
    },
    {
      "midi": 69,
      "hit": false,
      "t": 117874.99999999994,
      "d": 125,
      "v": 63
    },
    {
      "midi": 76,
      "hit": false,
      "t": 117874.99999999994,
      "d": 125,
      "v": 63
    },
    {
      "midi": 78,
      "hit": false,
      "t": 117874.99999999994,
      "d": 125,
      "v": 63
    },
    {
      "midi": 81,
      "hit": false,
      "t": 117874.99999999994,
      "d": 125,
      "v": 63
    },
    {
      "midi": 53,
      "hit": false,
      "t": 117874.99999999999,
      "d": 125,
      "v": 127
    },
    {
      "midi": 60,
      "hit": false,
      "t": 117874.99999999999,
      "d": 125,
      "v": 127
    },
    {
      "midi": 63,
      "hit": false,
      "t": 117874.99999999999,
      "d": 125,
      "v": 127
    },
    {
      "midi": 65,
      "hit": false,
      "t": 117874.99999999999,
      "d": 125,
      "v": 127
    },
    {
      "midi": 70,
      "hit": false,
      "t": 117999.99999999994,
      "d": 250,
      "v": 63
    },
    {
      "midi": 74,
      "hit": false,
      "t": 117999.99999999994,
      "d": 250,
      "v": 63
    },
    {
      "midi": 78,
      "hit": false,
      "t": 117999.99999999994,
      "d": 250,
      "v": 63
    },
    {
      "midi": 82,
      "hit": false,
      "t": 117999.99999999994,
      "d": 250,
      "v": 63
    },
    {
      "midi": 58,
      "hit": false,
      "t": 117999.99999999999,
      "d": 250,
      "v": 127
    },
    {
      "midi": 62,
      "hit": false,
      "t": 117999.99999999999,
      "d": 250,
      "v": 127
    },
    {
      "midi": 65,
      "hit": false,
      "t": 117999.99999999999,
      "d": 250,
      "v": 127
    },
    {
      "midi": 70,
      "hit": false,
      "t": 118249.99999999994,
      "d": 250,
      "v": 63
    },
    {
      "midi": 74,
      "hit": false,
      "t": 118249.99999999994,
      "d": 250,
      "v": 63
    },
    {
      "midi": 78,
      "hit": false,
      "t": 118249.99999999994,
      "d": 250,
      "v": 63
    },
    {
      "midi": 34,
      "hit": false,
      "t": 118249.99999999999,
      "d": 250,
      "v": 127
    },
    {
      "midi": 46,
      "hit": false,
      "t": 118249.99999999999,
      "d": 250,
      "v": 127
    },
    {
      "midi": 71,
      "hit": false,
      "t": 118499.99999999994,
      "d": 250,
      "v": 63
    },
    {
      "midi": 77,
      "hit": false,
      "t": 118499.99999999994,
      "d": 250,
      "v": 63
    },
    {
      "midi": 83,
      "hit": false,
      "t": 118499.99999999994,
      "d": 250,
      "v": 63
    },
    {
      "midi": 31,
      "hit": false,
      "t": 118499.99999999999,
      "d": 250,
      "v": 127
    },
    {
      "midi": 43,
      "hit": false,
      "t": 118499.99999999999,
      "d": 250,
      "v": 127
    },
    {
      "midi": 71,
      "hit": false,
      "t": 118749.99999999994,
      "d": 125,
      "v": 63
    },
    {
      "midi": 77,
      "hit": false,
      "t": 118749.99999999994,
      "d": 125,
      "v": 63
    },
    {
      "midi": 83,
      "hit": false,
      "t": 118749.99999999994,
      "d": 125,
      "v": 63
    },
    {
      "midi": 55,
      "hit": false,
      "t": 118749.99999999999,
      "d": 125,
      "v": 127
    },
    {
      "midi": 62,
      "hit": false,
      "t": 118749.99999999999,
      "d": 125,
      "v": 127
    },
    {
      "midi": 65,
      "hit": false,
      "t": 118749.99999999999,
      "d": 125,
      "v": 127
    },
    {
      "midi": 67,
      "hit": false,
      "t": 118749.99999999999,
      "d": 125,
      "v": 127
    },
    {
      "midi": 71,
      "hit": false,
      "t": 118874.99999999994,
      "d": 125,
      "v": 63
    },
    {
      "midi": 77,
      "hit": false,
      "t": 118874.99999999994,
      "d": 125,
      "v": 63
    },
    {
      "midi": 83,
      "hit": false,
      "t": 118874.99999999994,
      "d": 125,
      "v": 63
    },
    {
      "midi": 55,
      "hit": false,
      "t": 118874.99999999999,
      "d": 125,
      "v": 127
    },
    {
      "midi": 62,
      "hit": false,
      "t": 118874.99999999999,
      "d": 125,
      "v": 127
    },
    {
      "midi": 65,
      "hit": false,
      "t": 118874.99999999999,
      "d": 125,
      "v": 127
    },
    {
      "midi": 67,
      "hit": false,
      "t": 118874.99999999999,
      "d": 125,
      "v": 127
    },
    {
      "midi": 71,
      "hit": false,
      "t": 118999.99999999994,
      "d": 250,
      "v": 63
    },
    {
      "midi": 77,
      "hit": false,
      "t": 118999.99999999994,
      "d": 250,
      "v": 63
    },
    {
      "midi": 83,
      "hit": false,
      "t": 118999.99999999994,
      "d": 250,
      "v": 63
    },
    {
      "midi": 55,
      "hit": false,
      "t": 118999.99999999999,
      "d": 250,
      "v": 127
    },
    {
      "midi": 62,
      "hit": false,
      "t": 118999.99999999999,
      "d": 250,
      "v": 127
    },
    {
      "midi": 65,
      "hit": false,
      "t": 118999.99999999999,
      "d": 250,
      "v": 127
    },
    {
      "midi": 67,
      "hit": false,
      "t": 118999.99999999999,
      "d": 250,
      "v": 127
    },
    {
      "midi": 71,
      "hit": false,
      "t": 119249.99999999994,
      "d": 125,
      "v": 63
    },
    {
      "midi": 77,
      "hit": false,
      "t": 119249.99999999994,
      "d": 125,
      "v": 63
    },
    {
      "midi": 81,
      "hit": false,
      "t": 119249.99999999994,
      "d": 125,
      "v": 63
    },
    {
      "midi": 55,
      "hit": false,
      "t": 119249.99999999999,
      "d": 125,
      "v": 127
    },
    {
      "midi": 62,
      "hit": false,
      "t": 119249.99999999999,
      "d": 125,
      "v": 127
    },
    {
      "midi": 65,
      "hit": false,
      "t": 119249.99999999999,
      "d": 125,
      "v": 127
    },
    {
      "midi": 67,
      "hit": false,
      "t": 119249.99999999999,
      "d": 125,
      "v": 127
    },
    {
      "midi": 71,
      "hit": false,
      "t": 119374.99999999994,
      "d": 125,
      "v": 63
    },
    {
      "midi": 77,
      "hit": false,
      "t": 119374.99999999994,
      "d": 125,
      "v": 63
    },
    {
      "midi": 79,
      "hit": false,
      "t": 119374.99999999994,
      "d": 125,
      "v": 63
    },
    {
      "midi": 83,
      "hit": false,
      "t": 119374.99999999994,
      "d": 125,
      "v": 63
    },
    {
      "midi": 55,
      "hit": false,
      "t": 119374.99999999999,
      "d": 125,
      "v": 127
    },
    {
      "midi": 62,
      "hit": false,
      "t": 119374.99999999999,
      "d": 125,
      "v": 127
    },
    {
      "midi": 65,
      "hit": false,
      "t": 119374.99999999999,
      "d": 125,
      "v": 127
    },
    {
      "midi": 67,
      "hit": false,
      "t": 119374.99999999999,
      "d": 125,
      "v": 127
    },
    {
      "midi": 72,
      "hit": false,
      "t": 119499.99999999994,
      "d": 250,
      "v": 63
    },
    {
      "midi": 76,
      "hit": false,
      "t": 119499.99999999994,
      "d": 250,
      "v": 63
    },
    {
      "midi": 79,
      "hit": false,
      "t": 119499.99999999994,
      "d": 250,
      "v": 63
    },
    {
      "midi": 84,
      "hit": false,
      "t": 119499.99999999994,
      "d": 250,
      "v": 63
    },
    {
      "midi": 60,
      "hit": false,
      "t": 119499.99999999999,
      "d": 250,
      "v": 127
    },
    {
      "midi": 64,
      "hit": false,
      "t": 119499.99999999999,
      "d": 250,
      "v": 127
    },
    {
      "midi": 67,
      "hit": false,
      "t": 119499.99999999999,
      "d": 250,
      "v": 127
    },
    {
      "midi": 72,
      "hit": false,
      "t": 119749.99999999994,
      "d": 250,
      "v": 63
    },
    {
      "midi": 76,
      "hit": false,
      "t": 119749.99999999994,
      "d": 250,
      "v": 63
    },
    {
      "midi": 79,
      "hit": false,
      "t": 119749.99999999994,
      "d": 250,
      "v": 63
    },
    {
      "midi": 36,
      "hit": false,
      "t": 119749.99999999999,
      "d": 250,
      "v": 127
    },
    {
      "midi": 48,
      "hit": false,
      "t": 119749.99999999999,
      "d": 250,
      "v": 127
    },
    {
      "midi": 73,
      "hit": false,
      "t": 119999.99999999994,
      "d": 250,
      "v": 63
    },
    {
      "midi": 79,
      "hit": false,
      "t": 119999.99999999994,
      "d": 250,
      "v": 63
    },
    {
      "midi": 85,
      "hit": false,
      "t": 119999.99999999994,
      "d": 250,
      "v": 63
    },
    {
      "midi": 33,
      "hit": false,
      "t": 119999.99999999999,
      "d": 250,
      "v": 127
    },
    {
      "midi": 45,
      "hit": false,
      "t": 119999.99999999999,
      "d": 250,
      "v": 127
    },
    {
      "midi": 73,
      "hit": false,
      "t": 120249.99999999994,
      "d": 125,
      "v": 63
    },
    {
      "midi": 79,
      "hit": false,
      "t": 120249.99999999994,
      "d": 125,
      "v": 63
    },
    {
      "midi": 85,
      "hit": false,
      "t": 120249.99999999994,
      "d": 125,
      "v": 63
    },
    {
      "midi": 57,
      "hit": false,
      "t": 120249.99999999999,
      "d": 125,
      "v": 127
    },
    {
      "midi": 61,
      "hit": false,
      "t": 120249.99999999999,
      "d": 125,
      "v": 127
    },
    {
      "midi": 64,
      "hit": false,
      "t": 120249.99999999999,
      "d": 125,
      "v": 127
    },
    {
      "midi": 67,
      "hit": false,
      "t": 120249.99999999999,
      "d": 125,
      "v": 127
    },
    {
      "midi": 69,
      "hit": false,
      "t": 120249.99999999999,
      "d": 125,
      "v": 127
    },
    {
      "midi": 76,
      "hit": false,
      "t": 120374.99999999994,
      "d": 125,
      "v": 63
    },
    {
      "midi": 79,
      "hit": false,
      "t": 120374.99999999994,
      "d": 125,
      "v": 63
    },
    {
      "midi": 86,
      "hit": false,
      "t": 120374.99999999994,
      "d": 125,
      "v": 63
    },
    {
      "midi": 57,
      "hit": false,
      "t": 120374.99999999999,
      "d": 125,
      "v": 127
    },
    {
      "midi": 61,
      "hit": false,
      "t": 120374.99999999999,
      "d": 125,
      "v": 127
    },
    {
      "midi": 64,
      "hit": false,
      "t": 120374.99999999999,
      "d": 125,
      "v": 127
    },
    {
      "midi": 67,
      "hit": false,
      "t": 120374.99999999999,
      "d": 125,
      "v": 127
    },
    {
      "midi": 69,
      "hit": false,
      "t": 120374.99999999999,
      "d": 125,
      "v": 127
    },
    {
      "midi": 76,
      "hit": false,
      "t": 120499.99999999994,
      "d": 250,
      "v": 63
    },
    {
      "midi": 79,
      "hit": false,
      "t": 120499.99999999994,
      "d": 250,
      "v": 63
    },
    {
      "midi": 88,
      "hit": false,
      "t": 120499.99999999994,
      "d": 250,
      "v": 63
    },
    {
      "midi": 57,
      "hit": false,
      "t": 120499.99999999999,
      "d": 250,
      "v": 127
    },
    {
      "midi": 61,
      "hit": false,
      "t": 120499.99999999999,
      "d": 250,
      "v": 127
    },
    {
      "midi": 64,
      "hit": false,
      "t": 120499.99999999999,
      "d": 250,
      "v": 127
    },
    {
      "midi": 67,
      "hit": false,
      "t": 120499.99999999999,
      "d": 250,
      "v": 127
    },
    {
      "midi": 69,
      "hit": false,
      "t": 120499.99999999999,
      "d": 250,
      "v": 127
    },
    {
      "midi": 73,
      "hit": false,
      "t": 120749.99999999994,
      "d": 125,
      "v": 63
    },
    {
      "midi": 79,
      "hit": false,
      "t": 120749.99999999994,
      "d": 125,
      "v": 63
    },
    {
      "midi": 85,
      "hit": false,
      "t": 120749.99999999994,
      "d": 125,
      "v": 63
    },
    {
      "midi": 57,
      "hit": false,
      "t": 120749.99999999999,
      "d": 125,
      "v": 127
    },
    {
      "midi": 61,
      "hit": false,
      "t": 120749.99999999999,
      "d": 125,
      "v": 127
    },
    {
      "midi": 64,
      "hit": false,
      "t": 120749.99999999999,
      "d": 125,
      "v": 127
    },
    {
      "midi": 67,
      "hit": false,
      "t": 120749.99999999999,
      "d": 125,
      "v": 127
    },
    {
      "midi": 69,
      "hit": false,
      "t": 120749.99999999999,
      "d": 125,
      "v": 127
    },
    {
      "midi": 74,
      "hit": false,
      "t": 120874.99999999994,
      "d": 125,
      "v": 63
    },
    {
      "midi": 86,
      "hit": false,
      "t": 120874.99999999994,
      "d": 125,
      "v": 63
    },
    {
      "midi": 57,
      "hit": false,
      "t": 120874.99999999999,
      "d": 125,
      "v": 127
    },
    {
      "midi": 61,
      "hit": false,
      "t": 120874.99999999999,
      "d": 125,
      "v": 127
    },
    {
      "midi": 64,
      "hit": false,
      "t": 120874.99999999999,
      "d": 125,
      "v": 127
    },
    {
      "midi": 67,
      "hit": false,
      "t": 120874.99999999999,
      "d": 125,
      "v": 127
    },
    {
      "midi": 69,
      "hit": false,
      "t": 120874.99999999999,
      "d": 125,
      "v": 127
    },
    {
      "midi": 76,
      "hit": false,
      "t": 120999.99999999994,
      "d": 125,
      "v": 63
    },
    {
      "midi": 88,
      "hit": false,
      "t": 120999.99999999994,
      "d": 125,
      "v": 63
    },
    {
      "midi": 57,
      "hit": false,
      "t": 120999.99999999999,
      "d": 250,
      "v": 127
    },
    {
      "midi": 61,
      "hit": false,
      "t": 120999.99999999999,
      "d": 250,
      "v": 127
    },
    {
      "midi": 64,
      "hit": false,
      "t": 120999.99999999999,
      "d": 250,
      "v": 127
    },
    {
      "midi": 67,
      "hit": false,
      "t": 120999.99999999999,
      "d": 250,
      "v": 127
    },
    {
      "midi": 69,
      "hit": false,
      "t": 120999.99999999999,
      "d": 250,
      "v": 127
    },
    {
      "midi": 78,
      "hit": false,
      "t": 121124.99999999994,
      "d": 125,
      "v": 63
    },
    {
      "midi": 90,
      "hit": false,
      "t": 121124.99999999994,
      "d": 125,
      "v": 63
    },
    {
      "midi": 79,
      "hit": false,
      "t": 121249.99999999994,
      "d": 125,
      "v": 63
    },
    {
      "midi": 91,
      "hit": false,
      "t": 121249.99999999994,
      "d": 125,
      "v": 63
    },
    {
      "midi": 57,
      "hit": false,
      "t": 121249.99999999999,
      "d": 125,
      "v": 127
    },
    {
      "midi": 61,
      "hit": false,
      "t": 121249.99999999999,
      "d": 125,
      "v": 127
    },
    {
      "midi": 64,
      "hit": false,
      "t": 121249.99999999999,
      "d": 125,
      "v": 127
    },
    {
      "midi": 67,
      "hit": false,
      "t": 121249.99999999999,
      "d": 125,
      "v": 127
    },
    {
      "midi": 69,
      "hit": false,
      "t": 121249.99999999999,
      "d": 125,
      "v": 127
    },
    {
      "midi": 80,
      "hit": false,
      "t": 121374.99999999994,
      "d": 125,
      "v": 63
    },
    {
      "midi": 92,
      "hit": false,
      "t": 121374.99999999994,
      "d": 125,
      "v": 63
    },
    {
      "midi": 57,
      "hit": false,
      "t": 121374.99999999999,
      "d": 125,
      "v": 127
    },
    {
      "midi": 61,
      "hit": false,
      "t": 121374.99999999999,
      "d": 125,
      "v": 127
    },
    {
      "midi": 64,
      "hit": false,
      "t": 121374.99999999999,
      "d": 125,
      "v": 127
    },
    {
      "midi": 67,
      "hit": false,
      "t": 121374.99999999999,
      "d": 125,
      "v": 127
    },
    {
      "midi": 69,
      "hit": false,
      "t": 121374.99999999999,
      "d": 125,
      "v": 127
    },
    {
      "midi": 81,
      "hit": false,
      "t": 121499.99999999994,
      "d": 125,
      "v": 63
    },
    {
      "midi": 93,
      "hit": false,
      "t": 121499.99999999994,
      "d": 125,
      "v": 63
    },
    {
      "midi": 57,
      "hit": false,
      "t": 121499.99999999999,
      "d": 250,
      "v": 127
    },
    {
      "midi": 61,
      "hit": false,
      "t": 121499.99999999999,
      "d": 250,
      "v": 127
    },
    {
      "midi": 64,
      "hit": false,
      "t": 121499.99999999999,
      "d": 250,
      "v": 127
    },
    {
      "midi": 67,
      "hit": false,
      "t": 121499.99999999999,
      "d": 250,
      "v": 127
    },
    {
      "midi": 69,
      "hit": false,
      "t": 121499.99999999999,
      "d": 250,
      "v": 127
    },
    {
      "midi": 82,
      "hit": false,
      "t": 121624.99999999994,
      "d": 125,
      "v": 63
    },
    {
      "midi": 94,
      "hit": false,
      "t": 121624.99999999994,
      "d": 125,
      "v": 63
    },
    {
      "midi": 83,
      "hit": false,
      "t": 121749.99999999994,
      "d": 125,
      "v": 63
    },
    {
      "midi": 95,
      "hit": false,
      "t": 121749.99999999994,
      "d": 125,
      "v": 63
    },
    {
      "midi": 57,
      "hit": false,
      "t": 121749.99999999999,
      "d": 250,
      "v": 127
    },
    {
      "midi": 64,
      "hit": false,
      "t": 121749.99999999999,
      "d": 250,
      "v": 127
    },
    {
      "midi": 67,
      "hit": false,
      "t": 121749.99999999999,
      "d": 250,
      "v": 127
    },
    {
      "midi": 69,
      "hit": false,
      "t": 121749.99999999999,
      "d": 250,
      "v": 127
    },
    {
      "midi": 85,
      "hit": false,
      "t": 121874.99999999994,
      "d": 125,
      "v": 63
    },
    {
      "midi": 97,
      "hit": false,
      "t": 121874.99999999994,
      "d": 125,
      "v": 63
    },
    {
      "midi": 88,
      "hit": false,
      "t": 121999.99999999994,
      "d": 500,
      "v": 63
    },
    {
      "midi": 93,
      "hit": false,
      "t": 121999.99999999994,
      "d": 500,
      "v": 63
    },
    {
      "midi": 100,
      "hit": false,
      "t": 121999.99999999994,
      "d": 500,
      "v": 63
    },
    {
      "midi": 57,
      "hit": false,
      "t": 121999.99999999999,
      "d": 500,
      "v": 127
    },
    {
      "midi": 61,
      "hit": false,
      "t": 121999.99999999999,
      "d": 500,
      "v": 127
    },
    {
      "midi": 67,
      "hit": false,
      "t": 121999.99999999999,
      "d": 500,
      "v": 127
    },
    {
      "midi": 69,
      "hit": false,
      "t": 121999.99999999999,
      "d": 500,
      "v": 127
    },
    {
      "midi": 86,
      "hit": false,
      "t": 122499.99999999994,
      "d": 250,
      "v": 63
    },
    {
      "midi": 98,
      "hit": false,
      "t": 122499.99999999994,
      "d": 250,
      "v": 63
    },
    {
      "midi": 62,
      "hit": false,
      "t": 122499.99999999999,
      "d": 250,
      "v": 127
    },
    {
      "midi": 66,
      "hit": false,
      "t": 122499.99999999999,
      "d": 250,
      "v": 127
    },
    {
      "midi": 69,
      "hit": false,
      "t": 122499.99999999999,
      "d": 250,
      "v": 127
    },
    {
      "midi": 69,
      "hit": false,
      "t": 122999.99999999994,
      "d": 250,
      "v": 63
    },
    {
      "midi": 57,
      "hit": false,
      "t": 122999.99999999999,
      "d": 250,
      "v": 127
    },
    {
      "midi": 61,
      "hit": false,
      "t": 122999.99999999999,
      "d": 250,
      "v": 127
    },
    {
      "midi": 33,
      "hit": false,
      "t": 123000,
      "d": 250,
      "v": 64
    },
    {
      "midi": 45,
      "hit": false,
      "t": 123000,
      "d": 250,
      "v": 64
    },
    {
      "midi": 61,
      "hit": false,
      "t": 123374.99999999994,
      "d": 125,
      "v": 63
    },
    {
      "midi": 64,
      "hit": false,
      "t": 123374.99999999994,
      "d": 125,
      "v": 63
    },
    {
      "midi": 45,
      "hit": false,
      "t": 123375,
      "d": 125,
      "v": 64
    },
    {
      "midi": 52,
      "hit": false,
      "t": 123375,
      "d": 125,
      "v": 64
    },
    {
      "midi": 57,
      "hit": false,
      "t": 123375,
      "d": 125,
      "v": 64
    },
    {
      "midi": 61,
      "hit": false,
      "t": 123499.99999999994,
      "d": 250,
      "v": 63
    },
    {
      "midi": 64,
      "hit": false,
      "t": 123499.99999999994,
      "d": 250,
      "v": 63
    },
    {
      "midi": 45,
      "hit": false,
      "t": 123500,
      "d": 250,
      "v": 64
    },
    {
      "midi": 52,
      "hit": false,
      "t": 123500,
      "d": 250,
      "v": 64
    },
    {
      "midi": 57,
      "hit": false,
      "t": 123500,
      "d": 250,
      "v": 64
    },
    {
      "midi": 61,
      "hit": false,
      "t": 123874.99999999994,
      "d": 125,
      "v": 63
    },
    {
      "midi": 64,
      "hit": false,
      "t": 123874.99999999994,
      "d": 125,
      "v": 63
    },
    {
      "midi": 45,
      "hit": false,
      "t": 123875,
      "d": 125,
      "v": 64
    },
    {
      "midi": 52,
      "hit": false,
      "t": 123875,
      "d": 125,
      "v": 64
    },
    {
      "midi": 57,
      "hit": false,
      "t": 123875,
      "d": 125,
      "v": 64
    },
    {
      "midi": 62,
      "hit": false,
      "t": 123999.99999999994,
      "d": 125,
      "v": 63
    },
    {
      "midi": 66,
      "hit": false,
      "t": 123999.99999999994,
      "d": 125,
      "v": 63
    },
    {
      "midi": 45,
      "hit": false,
      "t": 124000,
      "d": 125,
      "v": 64
    },
    {
      "midi": 52,
      "hit": false,
      "t": 124000,
      "d": 125,
      "v": 64
    },
    {
      "midi": 59,
      "hit": false,
      "t": 124000,
      "d": 125,
      "v": 64
    },
    {
      "midi": 62,
      "hit": false,
      "t": 124124.99999999994,
      "d": 125,
      "v": 63
    },
    {
      "midi": 68,
      "hit": false,
      "t": 124124.99999999994,
      "d": 125,
      "v": 63
    },
    {
      "midi": 45,
      "hit": false,
      "t": 124125,
      "d": 125,
      "v": 64
    },
    {
      "midi": 52,
      "hit": false,
      "t": 124125,
      "d": 125,
      "v": 64
    },
    {
      "midi": 59,
      "hit": false,
      "t": 124125,
      "d": 125,
      "v": 64
    },
    {
      "midi": 64,
      "hit": false,
      "t": 124249.99999999994,
      "d": 125,
      "v": 63
    },
    {
      "midi": 69,
      "hit": false,
      "t": 124249.99999999994,
      "d": 125,
      "v": 63
    },
    {
      "midi": 45,
      "hit": false,
      "t": 124250,
      "d": 125,
      "v": 64
    },
    {
      "midi": 52,
      "hit": false,
      "t": 124250,
      "d": 125,
      "v": 64
    },
    {
      "midi": 59,
      "hit": false,
      "t": 124250,
      "d": 125,
      "v": 64
    },
    {
      "midi": 62,
      "hit": false,
      "t": 124374.99999999994,
      "d": 125,
      "v": 63
    },
    {
      "midi": 71,
      "hit": false,
      "t": 124374.99999999994,
      "d": 125,
      "v": 63
    },
    {
      "midi": 45,
      "hit": false,
      "t": 124375,
      "d": 125,
      "v": 64
    },
    {
      "midi": 52,
      "hit": false,
      "t": 124375,
      "d": 125,
      "v": 64
    },
    {
      "midi": 59,
      "hit": false,
      "t": 124375,
      "d": 125,
      "v": 64
    },
    {
      "midi": 61,
      "hit": false,
      "t": 124499.99999999994,
      "d": 375,
      "v": 63
    },
    {
      "midi": 73,
      "hit": false,
      "t": 124499.99999999994,
      "d": 375,
      "v": 63
    },
    {
      "midi": 45,
      "hit": false,
      "t": 124500,
      "d": 375,
      "v": 64
    },
    {
      "midi": 52,
      "hit": false,
      "t": 124500,
      "d": 375,
      "v": 64
    },
    {
      "midi": 57,
      "hit": false,
      "t": 124500,
      "d": 375,
      "v": 64
    },
    {
      "midi": 61,
      "hit": false,
      "t": 124874.99999999994,
      "d": 125,
      "v": 63
    },
    {
      "midi": 69,
      "hit": false,
      "t": 124874.99999999994,
      "d": 125,
      "v": 63
    },
    {
      "midi": 45,
      "hit": false,
      "t": 124875,
      "d": 125,
      "v": 64
    },
    {
      "midi": 52,
      "hit": false,
      "t": 124875,
      "d": 125,
      "v": 64
    },
    {
      "midi": 57,
      "hit": false,
      "t": 124875,
      "d": 125,
      "v": 64
    },
    {
      "midi": 61,
      "hit": false,
      "t": 124999.99999999994,
      "d": 250,
      "v": 63
    },
    {
      "midi": 69,
      "hit": false,
      "t": 124999.99999999994,
      "d": 250,
      "v": 63
    },
    {
      "midi": 45,
      "hit": false,
      "t": 125000,
      "d": 250,
      "v": 64
    },
    {
      "midi": 52,
      "hit": false,
      "t": 125000,
      "d": 250,
      "v": 64
    },
    {
      "midi": 57,
      "hit": false,
      "t": 125000,
      "d": 250,
      "v": 64
    },
    {
      "midi": 56,
      "hit": false,
      "t": 125249.99999999994,
      "d": 83.33333333332848,
      "v": 63
    },
    {
      "midi": 44,
      "hit": false,
      "t": 125250,
      "d": 83.33333333332848,
      "v": 64
    },
    {
      "midi": 57,
      "hit": false,
      "t": 125333.33333333327,
      "d": 83.33333333332848,
      "v": 63
    },
    {
      "midi": 45,
      "hit": false,
      "t": 125333.33333333333,
      "d": 83.33333333332848,
      "v": 64
    },
    {
      "midi": 59,
      "hit": false,
      "t": 125416.6666666666,
      "d": 83.33333333332848,
      "v": 63
    },
    {
      "midi": 47,
      "hit": false,
      "t": 125416.66666666666,
      "d": 83.33333333332848,
      "v": 64
    },
    {
      "midi": 57,
      "hit": false,
      "t": 125499.99999999993,
      "d": 250,
      "v": 63
    },
    {
      "midi": 45,
      "hit": false,
      "t": 125499.99999999999,
      "d": 250,
      "v": 64
    },
    {
      "midi": 52,
      "hit": false,
      "t": 125749.99999999993,
      "d": 250,
      "v": 63
    },
    {
      "midi": 40,
      "hit": false,
      "t": 125749.99999999999,
      "d": 250,
      "v": 64
    },
    {
      "midi": 61,
      "hit": false,
      "t": 125999.99999999993,
      "d": 250,
      "v": 63
    },
    {
      "midi": 73,
      "hit": false,
      "t": 125999.99999999993,
      "d": 250,
      "v": 63
    },
    {
      "midi": 33,
      "hit": false,
      "t": 125999.99999999999,
      "d": 250,
      "v": 64
    },
    {
      "midi": 45,
      "hit": false,
      "t": 125999.99999999999,
      "d": 250,
      "v": 64
    },
    {
      "midi": 61,
      "hit": false,
      "t": 126374.99999999993,
      "d": 125,
      "v": 63
    },
    {
      "midi": 69,
      "hit": false,
      "t": 126374.99999999993,
      "d": 125,
      "v": 63
    },
    {
      "midi": 45,
      "hit": false,
      "t": 126374.99999999999,
      "d": 125,
      "v": 64
    },
    {
      "midi": 52,
      "hit": false,
      "t": 126374.99999999999,
      "d": 125,
      "v": 64
    },
    {
      "midi": 57,
      "hit": false,
      "t": 126374.99999999999,
      "d": 125,
      "v": 64
    },
    {
      "midi": 61,
      "hit": false,
      "t": 126499.99999999993,
      "d": 250,
      "v": 63
    },
    {
      "midi": 69,
      "hit": false,
      "t": 126499.99999999993,
      "d": 250,
      "v": 63
    },
    {
      "midi": 45,
      "hit": false,
      "t": 126499.99999999999,
      "d": 250,
      "v": 64
    },
    {
      "midi": 52,
      "hit": false,
      "t": 126499.99999999999,
      "d": 250,
      "v": 64
    },
    {
      "midi": 57,
      "hit": false,
      "t": 126499.99999999999,
      "d": 250,
      "v": 64
    },
    {
      "midi": 61,
      "hit": false,
      "t": 126874.99999999993,
      "d": 125,
      "v": 63
    },
    {
      "midi": 68,
      "hit": false,
      "t": 126874.99999999993,
      "d": 125,
      "v": 63
    },
    {
      "midi": 45,
      "hit": false,
      "t": 126874.99999999999,
      "d": 125,
      "v": 64
    },
    {
      "midi": 52,
      "hit": false,
      "t": 126874.99999999999,
      "d": 125,
      "v": 64
    },
    {
      "midi": 57,
      "hit": false,
      "t": 126874.99999999999,
      "d": 125,
      "v": 64
    },
    {
      "midi": 61,
      "hit": false,
      "t": 126999.99999999993,
      "d": 125,
      "v": 63
    },
    {
      "midi": 69,
      "hit": false,
      "t": 126999.99999999993,
      "d": 125,
      "v": 63
    },
    {
      "midi": 45,
      "hit": false,
      "t": 126999.99999999999,
      "d": 125,
      "v": 64
    },
    {
      "midi": 52,
      "hit": false,
      "t": 126999.99999999999,
      "d": 125,
      "v": 64
    },
    {
      "midi": 57,
      "hit": false,
      "t": 126999.99999999999,
      "d": 125,
      "v": 64
    },
    {
      "midi": 61,
      "hit": false,
      "t": 127124.99999999993,
      "d": 125,
      "v": 63
    },
    {
      "midi": 69,
      "hit": false,
      "t": 127124.99999999993,
      "d": 125,
      "v": 63
    },
    {
      "midi": 71,
      "hit": false,
      "t": 127124.99999999993,
      "d": 125,
      "v": 63
    },
    {
      "midi": 45,
      "hit": false,
      "t": 127124.99999999999,
      "d": 125,
      "v": 64
    },
    {
      "midi": 52,
      "hit": false,
      "t": 127124.99999999999,
      "d": 125,
      "v": 64
    },
    {
      "midi": 57,
      "hit": false,
      "t": 127124.99999999999,
      "d": 125,
      "v": 64
    },
    {
      "midi": 61,
      "hit": false,
      "t": 127249.99999999993,
      "d": 125,
      "v": 63
    },
    {
      "midi": 69,
      "hit": false,
      "t": 127249.99999999993,
      "d": 125,
      "v": 63
    },
    {
      "midi": 73,
      "hit": false,
      "t": 127249.99999999993,
      "d": 125,
      "v": 63
    },
    {
      "midi": 45,
      "hit": false,
      "t": 127249.99999999999,
      "d": 125,
      "v": 64
    },
    {
      "midi": 52,
      "hit": false,
      "t": 127249.99999999999,
      "d": 125,
      "v": 64
    },
    {
      "midi": 57,
      "hit": false,
      "t": 127249.99999999999,
      "d": 125,
      "v": 64
    },
    {
      "midi": 62,
      "hit": false,
      "t": 127374.99999999993,
      "d": 125,
      "v": 63
    },
    {
      "midi": 69,
      "hit": false,
      "t": 127374.99999999993,
      "d": 125,
      "v": 63
    },
    {
      "midi": 74,
      "hit": false,
      "t": 127374.99999999993,
      "d": 125,
      "v": 63
    },
    {
      "midi": 45,
      "hit": false,
      "t": 127374.99999999999,
      "d": 125,
      "v": 64
    },
    {
      "midi": 52,
      "hit": false,
      "t": 127374.99999999999,
      "d": 125,
      "v": 64
    },
    {
      "midi": 59,
      "hit": false,
      "t": 127374.99999999999,
      "d": 125,
      "v": 64
    },
    {
      "midi": 63,
      "hit": false,
      "t": 127499.99999999993,
      "d": 375,
      "v": 63
    },
    {
      "midi": 69,
      "hit": false,
      "t": 127499.99999999993,
      "d": 375,
      "v": 63
    },
    {
      "midi": 78,
      "hit": false,
      "t": 127499.99999999993,
      "d": 375,
      "v": 63
    },
    {
      "midi": 45,
      "hit": false,
      "t": 127499.99999999999,
      "d": 375,
      "v": 64
    },
    {
      "midi": 51,
      "hit": false,
      "t": 127499.99999999999,
      "d": 375,
      "v": 64
    },
    {
      "midi": 54,
      "hit": false,
      "t": 127499.99999999999,
      "d": 375,
      "v": 64
    },
    {
      "midi": 60,
      "hit": false,
      "t": 127499.99999999999,
      "d": 375,
      "v": 64
    },
    {
      "midi": 64,
      "hit": false,
      "t": 127874.99999999993,
      "d": 125,
      "v": 63
    },
    {
      "midi": 69,
      "hit": false,
      "t": 127874.99999999993,
      "d": 125,
      "v": 63
    },
    {
      "midi": 76,
      "hit": false,
      "t": 127874.99999999993,
      "d": 125,
      "v": 63
    },
    {
      "midi": 52,
      "hit": false,
      "t": 127874.99999999999,
      "d": 125,
      "v": 64
    },
    {
      "midi": 57,
      "hit": false,
      "t": 127874.99999999999,
      "d": 125,
      "v": 64
    },
    {
      "midi": 61,
      "hit": false,
      "t": 127874.99999999999,
      "d": 125,
      "v": 64
    },
    {
      "midi": 64,
      "hit": false,
      "t": 127999.99999999993,
      "d": 250,
      "v": 63
    },
    {
      "midi": 69,
      "hit": false,
      "t": 127999.99999999993,
      "d": 250,
      "v": 63
    },
    {
      "midi": 76,
      "hit": false,
      "t": 127999.99999999993,
      "d": 250,
      "v": 63
    },
    {
      "midi": 52,
      "hit": false,
      "t": 127999.99999999999,
      "d": 250,
      "v": 64
    },
    {
      "midi": 57,
      "hit": false,
      "t": 127999.99999999999,
      "d": 250,
      "v": 64
    },
    {
      "midi": 61,
      "hit": false,
      "t": 127999.99999999999,
      "d": 250,
      "v": 64
    },
    {
      "midi": 56,
      "hit": false,
      "t": 128249.99999999993,
      "d": 83.33333333332848,
      "v": 63
    },
    {
      "midi": 44,
      "hit": false,
      "t": 128249.99999999999,
      "d": 83.33333333332848,
      "v": 64
    },
    {
      "midi": 57,
      "hit": false,
      "t": 128333.33333333326,
      "d": 83.33333333332848,
      "v": 63
    },
    {
      "midi": 45,
      "hit": false,
      "t": 128333.33333333331,
      "d": 83.33333333332848,
      "v": 64
    },
    {
      "midi": 59,
      "hit": false,
      "t": 128416.66666666658,
      "d": 83.33333333332848,
      "v": 63
    },
    {
      "midi": 47,
      "hit": false,
      "t": 128416.66666666664,
      "d": 83.33333333332848,
      "v": 64
    },
    {
      "midi": 57,
      "hit": false,
      "t": 128499.99999999991,
      "d": 250,
      "v": 63
    },
    {
      "midi": 45,
      "hit": false,
      "t": 128499.99999999997,
      "d": 250,
      "v": 64
    },
    {
      "midi": 52,
      "hit": false,
      "t": 128749.99999999991,
      "d": 250,
      "v": 63
    },
    {
      "midi": 40,
      "hit": false,
      "t": 128749.99999999997,
      "d": 250,
      "v": 64
    },
    {
      "midi": 28,
      "hit": false,
      "t": 128999.99999999997,
      "d": 250,
      "v": 64
    },
    {
      "midi": 44,
      "hit": false,
      "t": 128999.99999999997,
      "d": 250,
      "v": 64
    },
    {
      "midi": 73,
      "hit": false,
      "t": 128999.99999999999,
      "d": 250,
      "v": 107
    },
    {
      "midi": 77,
      "hit": false,
      "t": 128999.99999999999,
      "d": 250,
      "v": 107
    },
    {
      "midi": 85,
      "hit": false,
      "t": 128999.99999999999,
      "d": 250,
      "v": 107
    },
    {
      "midi": 53,
      "hit": false,
      "t": 129249.99999999997,
      "d": 83.33333333332848,
      "v": 64
    },
    {
      "midi": 56,
      "hit": false,
      "t": 129249.99999999997,
      "d": 83.33333333332848,
      "v": 64
    },
    {
      "midi": 61,
      "hit": false,
      "t": 129249.99999999997,
      "d": 83.33333333332848,
      "v": 64
    },
    {
      "midi": 65,
      "hit": false,
      "t": 129249.99999999997,
      "d": 83.33333333332848,
      "v": 64
    },
    {
      "midi": 68,
      "hit": false,
      "t": 129249.99999999999,
      "d": 83.33333333332848,
      "v": 107
    },
    {
      "midi": 73,
      "hit": false,
      "t": 129249.99999999999,
      "d": 83.33333333332848,
      "v": 107
    },
    {
      "midi": 80,
      "hit": false,
      "t": 129249.99999999999,
      "d": 83.33333333332848,
      "v": 107
    },
    {
      "midi": 53,
      "hit": false,
      "t": 129333.3333333333,
      "d": 83.33333333332848,
      "v": 64
    },
    {
      "midi": 56,
      "hit": false,
      "t": 129333.3333333333,
      "d": 83.33333333332848,
      "v": 64
    },
    {
      "midi": 61,
      "hit": false,
      "t": 129333.3333333333,
      "d": 83.33333333332848,
      "v": 64
    },
    {
      "midi": 65,
      "hit": false,
      "t": 129333.3333333333,
      "d": 83.33333333332848,
      "v": 64
    },
    {
      "midi": 68,
      "hit": false,
      "t": 129333.33333333331,
      "d": 83.33333333332848,
      "v": 107
    },
    {
      "midi": 73,
      "hit": false,
      "t": 129333.33333333331,
      "d": 83.33333333332848,
      "v": 107
    },
    {
      "midi": 80,
      "hit": false,
      "t": 129333.33333333331,
      "d": 83.33333333332848,
      "v": 107
    },
    {
      "midi": 53,
      "hit": false,
      "t": 129416.66666666663,
      "d": 83.33333333332848,
      "v": 64
    },
    {
      "midi": 56,
      "hit": false,
      "t": 129416.66666666663,
      "d": 83.33333333332848,
      "v": 64
    },
    {
      "midi": 61,
      "hit": false,
      "t": 129416.66666666663,
      "d": 83.33333333332848,
      "v": 64
    },
    {
      "midi": 65,
      "hit": false,
      "t": 129416.66666666663,
      "d": 83.33333333332848,
      "v": 64
    },
    {
      "midi": 68,
      "hit": false,
      "t": 129416.66666666664,
      "d": 83.33333333332848,
      "v": 107
    },
    {
      "midi": 73,
      "hit": false,
      "t": 129416.66666666664,
      "d": 83.33333333332848,
      "v": 107
    },
    {
      "midi": 80,
      "hit": false,
      "t": 129416.66666666664,
      "d": 83.33333333332848,
      "v": 107
    },
    {
      "midi": 53,
      "hit": false,
      "t": 129499.99999999996,
      "d": 250,
      "v": 64
    },
    {
      "midi": 56,
      "hit": false,
      "t": 129499.99999999996,
      "d": 250,
      "v": 64
    },
    {
      "midi": 61,
      "hit": false,
      "t": 129499.99999999996,
      "d": 250,
      "v": 64
    },
    {
      "midi": 65,
      "hit": false,
      "t": 129499.99999999996,
      "d": 250,
      "v": 64
    },
    {
      "midi": 68,
      "hit": false,
      "t": 129499.99999999997,
      "d": 250,
      "v": 107
    },
    {
      "midi": 73,
      "hit": false,
      "t": 129499.99999999997,
      "d": 250,
      "v": 107
    },
    {
      "midi": 80,
      "hit": false,
      "t": 129499.99999999997,
      "d": 250,
      "v": 107
    },
    {
      "midi": 53,
      "hit": false,
      "t": 129749.99999999996,
      "d": 250,
      "v": 64
    },
    {
      "midi": 56,
      "hit": false,
      "t": 129749.99999999996,
      "d": 250,
      "v": 64
    },
    {
      "midi": 61,
      "hit": false,
      "t": 129749.99999999996,
      "d": 250,
      "v": 64
    },
    {
      "midi": 65,
      "hit": false,
      "t": 129749.99999999996,
      "d": 250,
      "v": 64
    },
    {
      "midi": 68,
      "hit": false,
      "t": 129749.99999999997,
      "d": 250,
      "v": 107
    },
    {
      "midi": 73,
      "hit": false,
      "t": 129749.99999999997,
      "d": 250,
      "v": 107
    },
    {
      "midi": 80,
      "hit": false,
      "t": 129749.99999999997,
      "d": 250,
      "v": 107
    },
    {
      "midi": 54,
      "hit": false,
      "t": 129999.99999999996,
      "d": 250,
      "v": 64
    },
    {
      "midi": 56,
      "hit": false,
      "t": 129999.99999999996,
      "d": 250,
      "v": 64
    },
    {
      "midi": 60,
      "hit": false,
      "t": 129999.99999999996,
      "d": 250,
      "v": 64
    },
    {
      "midi": 63,
      "hit": false,
      "t": 129999.99999999996,
      "d": 250,
      "v": 64
    },
    {
      "midi": 70,
      "hit": false,
      "t": 129999.99999999997,
      "d": 125,
      "v": 107
    },
    {
      "midi": 75,
      "hit": false,
      "t": 129999.99999999997,
      "d": 125,
      "v": 107
    },
    {
      "midi": 82,
      "hit": false,
      "t": 129999.99999999997,
      "d": 125,
      "v": 107
    },
    {
      "midi": 72,
      "hit": false,
      "t": 130124.99999999997,
      "d": 125,
      "v": 107
    },
    {
      "midi": 84,
      "hit": false,
      "t": 130124.99999999997,
      "d": 125,
      "v": 107
    },
    {
      "midi": 28,
      "hit": false,
      "t": 130249.99999999996,
      "d": 250,
      "v": 64
    },
    {
      "midi": 44,
      "hit": false,
      "t": 130249.99999999996,
      "d": 250,
      "v": 64
    },
    {
      "midi": 73,
      "hit": false,
      "t": 130249.99999999997,
      "d": 125,
      "v": 107
    },
    {
      "midi": 80,
      "hit": false,
      "t": 130249.99999999997,
      "d": 125,
      "v": 107
    },
    {
      "midi": 85,
      "hit": false,
      "t": 130249.99999999997,
      "d": 125,
      "v": 107
    },
    {
      "midi": 75,
      "hit": false,
      "t": 130374.99999999997,
      "d": 125,
      "v": 107
    },
    {
      "midi": 87,
      "hit": false,
      "t": 130374.99999999997,
      "d": 125,
      "v": 107
    },
    {
      "midi": 25,
      "hit": false,
      "t": 130499.99999999996,
      "d": 375,
      "v": 64
    },
    {
      "midi": 37,
      "hit": false,
      "t": 130499.99999999996,
      "d": 375,
      "v": 64
    },
    {
      "midi": 77,
      "hit": false,
      "t": 130499.99999999997,
      "d": 375,
      "v": 107
    },
    {
      "midi": 85,
      "hit": false,
      "t": 130499.99999999997,
      "d": 375,
      "v": 107
    },
    {
      "midi": 89,
      "hit": false,
      "t": 130499.99999999997,
      "d": 375,
      "v": 107
    },
    {
      "midi": 49,
      "hit": false,
      "t": 130874.99999999996,
      "d": 125,
      "v": 64
    },
    {
      "midi": 61,
      "hit": false,
      "t": 130874.99999999996,
      "d": 125,
      "v": 64
    },
    {
      "midi": 73,
      "hit": false,
      "t": 130874.99999999997,
      "d": 125,
      "v": 107
    },
    {
      "midi": 85,
      "hit": false,
      "t": 130874.99999999997,
      "d": 125,
      "v": 107
    },
    {
      "midi": 49,
      "hit": false,
      "t": 130999.99999999996,
      "d": 249.99999999998545,
      "v": 64
    },
    {
      "midi": 61,
      "hit": false,
      "t": 130999.99999999996,
      "d": 249.99999999998545,
      "v": 64
    },
    {
      "midi": 73,
      "hit": false,
      "t": 130999.99999999997,
      "d": 250,
      "v": 107
    },
    {
      "midi": 85,
      "hit": false,
      "t": 130999.99999999997,
      "d": 250,
      "v": 107
    },
    {
      "midi": 49,
      "hit": false,
      "t": 131249.99999999994,
      "d": 125,
      "v": 64
    },
    {
      "midi": 61,
      "hit": false,
      "t": 131249.99999999994,
      "d": 125,
      "v": 64
    },
    {
      "midi": 73,
      "hit": false,
      "t": 131249.99999999997,
      "d": 125,
      "v": 107
    },
    {
      "midi": 85,
      "hit": false,
      "t": 131249.99999999997,
      "d": 125,
      "v": 107
    },
    {
      "midi": 49,
      "hit": false,
      "t": 131374.99999999994,
      "d": 125,
      "v": 64
    },
    {
      "midi": 61,
      "hit": false,
      "t": 131374.99999999994,
      "d": 125,
      "v": 64
    },
    {
      "midi": 73,
      "hit": false,
      "t": 131374.99999999997,
      "d": 125,
      "v": 107
    },
    {
      "midi": 85,
      "hit": false,
      "t": 131374.99999999997,
      "d": 125,
      "v": 107
    },
    {
      "midi": 49,
      "hit": false,
      "t": 131499.99999999994,
      "d": 125,
      "v": 64
    },
    {
      "midi": 61,
      "hit": false,
      "t": 131499.99999999994,
      "d": 125,
      "v": 64
    },
    {
      "midi": 73,
      "hit": false,
      "t": 131499.99999999997,
      "d": 125,
      "v": 107
    },
    {
      "midi": 85,
      "hit": false,
      "t": 131499.99999999997,
      "d": 125,
      "v": 107
    },
    {
      "midi": 49,
      "hit": false,
      "t": 131624.99999999994,
      "d": 125,
      "v": 64
    },
    {
      "midi": 61,
      "hit": false,
      "t": 131624.99999999994,
      "d": 125,
      "v": 64
    },
    {
      "midi": 73,
      "hit": false,
      "t": 131624.99999999997,
      "d": 125,
      "v": 107
    },
    {
      "midi": 85,
      "hit": false,
      "t": 131624.99999999997,
      "d": 125,
      "v": 107
    },
    {
      "midi": 49,
      "hit": false,
      "t": 131749.99999999994,
      "d": 125,
      "v": 64
    },
    {
      "midi": 61,
      "hit": false,
      "t": 131749.99999999994,
      "d": 125,
      "v": 64
    },
    {
      "midi": 73,
      "hit": false,
      "t": 131749.99999999997,
      "d": 125,
      "v": 107
    },
    {
      "midi": 85,
      "hit": false,
      "t": 131749.99999999997,
      "d": 125,
      "v": 107
    },
    {
      "midi": 49,
      "hit": false,
      "t": 131874.99999999994,
      "d": 125,
      "v": 64
    },
    {
      "midi": 61,
      "hit": false,
      "t": 131874.99999999994,
      "d": 125,
      "v": 64
    },
    {
      "midi": 73,
      "hit": false,
      "t": 131874.99999999997,
      "d": 125,
      "v": 107
    },
    {
      "midi": 85,
      "hit": false,
      "t": 131874.99999999997,
      "d": 125,
      "v": 107
    },
    {
      "midi": 49,
      "hit": false,
      "t": 131999.99999999994,
      "d": 250,
      "v": 64
    },
    {
      "midi": 61,
      "hit": false,
      "t": 131999.99999999994,
      "d": 250,
      "v": 64
    },
    {
      "midi": 73,
      "hit": false,
      "t": 131999.99999999997,
      "d": 250,
      "v": 107
    },
    {
      "midi": 85,
      "hit": false,
      "t": 131999.99999999997,
      "d": 250,
      "v": 107
    },
    {
      "midi": 50,
      "hit": false,
      "t": 132249.99999999994,
      "d": 187.5,
      "v": 64
    },
    {
      "midi": 54,
      "hit": false,
      "t": 132249.99999999994,
      "d": 187.5,
      "v": 64
    },
    {
      "midi": 59,
      "hit": false,
      "t": 132249.99999999994,
      "d": 187.5,
      "v": 64
    },
    {
      "midi": 71,
      "hit": false,
      "t": 132249.99999999997,
      "d": 187.5,
      "v": 107
    },
    {
      "midi": 78,
      "hit": false,
      "t": 132249.99999999997,
      "d": 187.5,
      "v": 107
    },
    {
      "midi": 83,
      "hit": false,
      "t": 132249.99999999997,
      "d": 187.5,
      "v": 107
    },
    {
      "midi": 50,
      "hit": false,
      "t": 132437.49999999994,
      "d": 62.5,
      "v": 64
    },
    {
      "midi": 54,
      "hit": false,
      "t": 132437.49999999994,
      "d": 62.5,
      "v": 64
    },
    {
      "midi": 59,
      "hit": false,
      "t": 132437.49999999994,
      "d": 62.5,
      "v": 64
    },
    {
      "midi": 71,
      "hit": false,
      "t": 132437.49999999997,
      "d": 62.5,
      "v": 107
    },
    {
      "midi": 78,
      "hit": false,
      "t": 132437.49999999997,
      "d": 62.5,
      "v": 107
    },
    {
      "midi": 83,
      "hit": false,
      "t": 132437.49999999997,
      "d": 62.5,
      "v": 107
    },
    {
      "midi": 50,
      "hit": false,
      "t": 132499.99999999994,
      "d": 250,
      "v": 64
    },
    {
      "midi": 54,
      "hit": false,
      "t": 132499.99999999994,
      "d": 250,
      "v": 64
    },
    {
      "midi": 59,
      "hit": false,
      "t": 132499.99999999994,
      "d": 250,
      "v": 64
    },
    {
      "midi": 71,
      "hit": false,
      "t": 132499.99999999997,
      "d": 250,
      "v": 107
    },
    {
      "midi": 78,
      "hit": false,
      "t": 132499.99999999997,
      "d": 250,
      "v": 107
    },
    {
      "midi": 83,
      "hit": false,
      "t": 132499.99999999997,
      "d": 250,
      "v": 107
    },
    {
      "midi": 52,
      "hit": false,
      "t": 132749.99999999994,
      "d": 250,
      "v": 64
    },
    {
      "midi": 56,
      "hit": false,
      "t": 132749.99999999994,
      "d": 250,
      "v": 64
    },
    {
      "midi": 61,
      "hit": false,
      "t": 132749.99999999994,
      "d": 250,
      "v": 64
    },
    {
      "midi": 73,
      "hit": false,
      "t": 132749.99999999997,
      "d": 250,
      "v": 107
    },
    {
      "midi": 85,
      "hit": false,
      "t": 132749.99999999997,
      "d": 250,
      "v": 107
    },
    {
      "midi": 54,
      "hit": false,
      "t": 132999.99999999994,
      "d": 500,
      "v": 64
    },
    {
      "midi": 57,
      "hit": false,
      "t": 132999.99999999994,
      "d": 500,
      "v": 64
    },
    {
      "midi": 76,
      "hit": false,
      "t": 132999.99999999997,
      "d": 250,
      "v": 107
    },
    {
      "midi": 81,
      "hit": false,
      "t": 132999.99999999997,
      "d": 250,
      "v": 107
    },
    {
      "midi": 88,
      "hit": false,
      "t": 132999.99999999997,
      "d": 250,
      "v": 107
    },
    {
      "midi": 64,
      "hit": false,
      "t": 133000,
      "d": 250,
      "v": 63
    },
    {
      "midi": 74,
      "hit": false,
      "t": 133249.99999999997,
      "d": 125,
      "v": 107
    },
    {
      "midi": 86,
      "hit": false,
      "t": 133249.99999999997,
      "d": 125,
      "v": 107
    },
    {
      "midi": 62,
      "hit": false,
      "t": 133250,
      "d": 250,
      "v": 63
    },
    {
      "midi": 73,
      "hit": false,
      "t": 133374.99999999997,
      "d": 125,
      "v": 107
    },
    {
      "midi": 85,
      "hit": false,
      "t": 133374.99999999997,
      "d": 125,
      "v": 107
    },
    {
      "midi": 52,
      "hit": false,
      "t": 133499.99999999994,
      "d": 250,
      "v": 64
    },
    {
      "midi": 56,
      "hit": false,
      "t": 133499.99999999994,
      "d": 250,
      "v": 64
    },
    {
      "midi": 62,
      "hit": false,
      "t": 133499.99999999994,
      "d": 250,
      "v": 64
    },
    {
      "midi": 71,
      "hit": false,
      "t": 133499.99999999997,
      "d": 250,
      "v": 107
    },
    {
      "midi": 83,
      "hit": false,
      "t": 133499.99999999997,
      "d": 250,
      "v": 107
    },
    {
      "midi": 52,
      "hit": false,
      "t": 133749.99999999994,
      "d": 250,
      "v": 64
    },
    {
      "midi": 56,
      "hit": false,
      "t": 133749.99999999994,
      "d": 250,
      "v": 64
    },
    {
      "midi": 62,
      "hit": false,
      "t": 133749.99999999994,
      "d": 250,
      "v": 64
    },
    {
      "midi": 64,
      "hit": false,
      "t": 133749.99999999994,
      "d": 250,
      "v": 64
    },
    {
      "midi": 71,
      "hit": false,
      "t": 133749.99999999997,
      "d": 187.5,
      "v": 107
    },
    {
      "midi": 76,
      "hit": false,
      "t": 133749.99999999997,
      "d": 187.5,
      "v": 107
    },
    {
      "midi": 83,
      "hit": false,
      "t": 133749.99999999997,
      "d": 187.5,
      "v": 107
    },
    {
      "midi": 73,
      "hit": false,
      "t": 133937.49999999997,
      "d": 62.5,
      "v": 107
    },
    {
      "midi": 85,
      "hit": false,
      "t": 133937.49999999997,
      "d": 62.5,
      "v": 107
    },
    {
      "midi": 52,
      "hit": false,
      "t": 133999.99999999994,
      "d": 500,
      "v": 64
    },
    {
      "midi": 56,
      "hit": false,
      "t": 133999.99999999994,
      "d": 500,
      "v": 64
    },
    {
      "midi": 62,
      "hit": false,
      "t": 133999.99999999994,
      "d": 500,
      "v": 64
    },
    {
      "midi": 64,
      "hit": false,
      "t": 133999.99999999994,
      "d": 500,
      "v": 64
    },
    {
      "midi": 71,
      "hit": false,
      "t": 133999.99999999997,
      "d": 500,
      "v": 107
    },
    {
      "midi": 76,
      "hit": false,
      "t": 133999.99999999997,
      "d": 500,
      "v": 107
    },
    {
      "midi": 83,
      "hit": false,
      "t": 133999.99999999997,
      "d": 500,
      "v": 107
    },
    {
      "midi": 57,
      "hit": false,
      "t": 134499.99999999994,
      "d": 250,
      "v": 64
    },
    {
      "midi": 61,
      "hit": false,
      "t": 134499.99999999994,
      "d": 250,
      "v": 64
    },
    {
      "midi": 64,
      "hit": false,
      "t": 134499.99999999994,
      "d": 250,
      "v": 64
    },
    {
      "midi": 69,
      "hit": false,
      "t": 134499.99999999997,
      "d": 250,
      "v": 107
    },
    {
      "midi": 81,
      "hit": false,
      "t": 134499.99999999997,
      "d": 250,
      "v": 107
    }
  ]
}