{
  "jsonPath": "Unknown/Unknown/Ike Reilly/farewell-to-the-good-times-part-two-solo.json",
  "path": "Unknown\\Unknown\\Ike Reilly\\Farewell To The Good Times Part Two (Solo).mid",
  "name": "Farewell To The Good Times Part Two (Solo)",
  "difficulty": "Advanced",
  "bpm": 103.0000480666891,
  "notes": [
    {
      "midi": 48,
      "hit": false,
      "t": 74563.072,
      "d": 225.72805000000517,
      "v": 87
    },
    {
      "midi": 36,
      "hit": false,
      "t": 74563.072,
      "d": 233.00960000000487,
      "v": 95
    },
    {
      "midi": 48,
      "hit": false,
      "t": 74854.334,
      "d": 178.39797499999986,
      "v": 91
    },
    {
      "midi": 36,
      "hit": false,
      "t": 74854.334,
      "d": 179.61156666667375,
      "v": 99
    },
    {
      "midi": 48,
      "hit": false,
      "t": 75145.596,
      "d": 452.6696916666697,
      "v": 93
    },
    {
      "midi": 36,
      "hit": false,
      "t": 75145.596,
      "d": 502.4269500000082,
      "v": 98
    },
    {
      "midi": 43,
      "hit": false,
      "t": 76893.16800000002,
      "d": 1999.9990666666708,
      "v": 66
    },
    {
      "midi": 59,
      "hit": false,
      "t": 76893.16800000002,
      "d": 2008.4942083333444,
      "v": 90
    },
    {
      "midi": 50,
      "hit": false,
      "t": 76893.16800000002,
      "d": 2044.901958333343,
      "v": 87
    },
    {
      "midi": 62,
      "hit": false,
      "t": 76893.16800000002,
      "d": 2044.901958333343,
      "v": 87
    },
    {
      "midi": 67,
      "hit": false,
      "t": 76893.16800000002,
      "d": 2141.989291666672,
      "v": 74
    },
    {
      "midi": 55,
      "hit": false,
      "t": 76893.16800000002,
      "d": 2200.24169166667,
      "v": 72
    },
    {
      "midi": 48,
      "hit": false,
      "t": 79223.26400000002,
      "d": 1877.4263083333353,
      "v": 57
    },
    {
      "midi": 67,
      "hit": false,
      "t": 79223.26400000002,
      "d": 1942.9602583333326,
      "v": 64
    },
    {
      "midi": 62,
      "hit": false,
      "t": 79223.26400000002,
      "d": 1999.9990666666708,
      "v": 77
    },
    {
      "midi": 60,
      "hit": false,
      "t": 79223.26400000002,
      "d": 2006.0670250000112,
      "v": 73
    },
    {
      "midi": 55,
      "hit": false,
      "t": 79223.26400000002,
      "d": 2218.4455666666763,
      "v": 66
    },
    {
      "midi": 59,
      "hit": false,
      "t": 81553.36000000003,
      "d": 1936.8923000000068,
      "v": 89
    },
    {
      "midi": 64,
      "hit": false,
      "t": 81553.36000000003,
      "d": 1978.1544166666718,
      "v": 77
    },
    {
      "midi": 55,
      "hit": false,
      "t": 81553.36000000003,
      "d": 2015.7757583333441,
      "v": 86
    },
    {
      "midi": 52,
      "hit": false,
      "t": 81553.36000000003,
      "d": 2168.688308333338,
      "v": 76
    },
    {
      "midi": 50,
      "hit": false,
      "t": 83883.45600000003,
      "d": 2124.9990083333396,
      "v": 63
    },
    {
      "midi": 57,
      "hit": false,
      "t": 83883.45600000003,
      "d": 2149.270841666672,
      "v": 85
    },
    {
      "midi": 62,
      "hit": false,
      "t": 83883.45600000003,
      "d": 2207.5232416666695,
      "v": 94
    },
    {
      "midi": 66,
      "hit": false,
      "t": 83883.45600000003,
      "d": 2222.086341666669,
      "v": 89
    },
    {
      "midi": 55,
      "hit": false,
      "t": 86213.55200000004,
      "d": 1790.047708333339,
      "v": 57
    },
    {
      "midi": 50,
      "hit": false,
      "t": 86213.55200000004,
      "d": 1856.7952500000101,
      "v": 68
    },
    {
      "midi": 43,
      "hit": false,
      "t": 86213.55200000004,
      "d": 1919.9020166666742,
      "v": 59
    },
    {
      "midi": 62,
      "hit": false,
      "t": 86213.55200000004,
      "d": 2080.0961166666675,
      "v": 80
    },
    {
      "midi": 67,
      "hit": false,
      "t": 86213.55200000004,
      "d": 2101.9407666666666,
      "v": 84
    },
    {
      "midi": 59,
      "hit": false,
      "t": 86213.55200000004,
      "d": 2120.144641666673,
      "v": 89
    },
    {
      "midi": 67,
      "hit": false,
      "t": 88543.64800000004,
      "d": 1952.6689916666655,
      "v": 65
    },
    {
      "midi": 48,
      "hit": false,
      "t": 88543.64800000004,
      "d": 2061.892241666661,
      "v": 81
    },
    {
      "midi": 64,
      "hit": false,
      "t": 88543.64800000004,
      "d": 2122.571824999992,
      "v": 81
    },
    {
      "midi": 60,
      "hit": false,
      "t": 88543.64800000004,
      "d": 2128.639783333332,
      "v": 87
    },
    {
      "midi": 55,
      "hit": false,
      "t": 88543.64800000004,
      "d": 2206.3096499999956,
      "v": 71
    },
    {
      "midi": 59,
      "hit": false,
      "t": 90873.74400000004,
      "d": 2021.84371666667,
      "v": 86
    },
    {
      "midi": 64,
      "hit": false,
      "t": 90873.74400000004,
      "d": 2042.4747750000097,
      "v": 87
    },
    {
      "midi": 52,
      "hit": false,
      "t": 90873.74400000004,
      "d": 2067.960200000016,
      "v": 81
    },
    {
      "midi": 55,
      "hit": false,
      "t": 90873.74400000004,
      "d": 2218.4455666666763,
      "v": 77
    },
    {
      "midi": 55,
      "hit": false,
      "t": 93203.84000000004,
      "d": 2216.0183833333285,
      "v": 74
    },
    {
      "midi": 48,
      "hit": false,
      "t": 93203.84000000004,
      "d": 2228.1542999999947,
      "v": 65
    },
    {
      "midi": 60,
      "hit": false,
      "t": 93203.84000000004,
      "d": 2235.4358499999944,
      "v": 87
    },
    {
      "midi": 64,
      "hit": false,
      "t": 93203.84000000004,
      "d": 2260.9212750000006,
      "v": 68
    },
    {
      "midi": 67,
      "hit": false,
      "t": 93203.84000000004,
      "d": 2287.620291666666,
      "v": 71
    },
    {
      "midi": 67,
      "hit": false,
      "t": 95533.93600000005,
      "d": 2166.2611250000045,
      "v": 67
    },
    {
      "midi": 43,
      "hit": false,
      "t": 95533.93600000005,
      "d": 2182.037816666678,
      "v": 57
    },
    {
      "midi": 59,
      "hit": false,
      "t": 95533.93600000005,
      "d": 2242.7174000000086,
      "v": 85
    },
    {
      "midi": 55,
      "hit": false,
      "t": 95533.93600000005,
      "d": 2246.3581750000158,
      "v": 66
    },
    {
      "midi": 62,
      "hit": false,
      "t": 95533.93600000005,
      "d": 2271.843600000022,
      "v": 67
    },
    {
      "midi": 50,
      "hit": false,
      "t": 95533.93600000005,
      "d": 2343.4455083333596,
      "v": 54
    },
    {
      "midi": 67,
      "hit": false,
      "t": 97864.03200000006,
      "d": 282.7668583333434,
      "v": 62
    },
    {
      "midi": 55,
      "hit": false,
      "t": 97864.03200000006,
      "d": 294.90277500000957,
      "v": 72
    },
    {
      "midi": 43,
      "hit": false,
      "t": 97864.03200000006,
      "d": 296.11636666668346,
      "v": 65
    },
    {
      "midi": 59,
      "hit": false,
      "t": 97864.03200000006,
      "d": 310.67946666668286,
      "v": 77
    },
    {
      "midi": 62,
      "hit": false,
      "t": 97864.03200000006,
      "d": 339.80566666668165,
      "v": 59
    },
    {
      "midi": 55,
      "hit": false,
      "t": 156116.4320000001,
      "d": 1417.475066666666,
      "v": 77
    },
    {
      "midi": 50,
      "hit": false,
      "t": 156116.4320000001,
      "d": 2055.8242833333206,
      "v": 87
    },
    {
      "midi": 59,
      "hit": false,
      "t": 156116.4320000001,
      "d": 2078.8825249999936,
      "v": 91
    },
    {
      "midi": 43,
      "hit": false,
      "t": 156116.4320000001,
      "d": 2100.7271750000073,
      "v": 68
    },
    {
      "midi": 62,
      "hit": false,
      "t": 156116.4320000001,
      "d": 2110.43590833334,
      "v": 92
    },
    {
      "midi": 67,
      "hit": false,
      "t": 156116.4320000001,
      "d": 2169.901899999997,
      "v": 87
    },
    {
      "midi": 55,
      "hit": false,
      "t": 157572.7420000001,
      "d": 746.3588750000054,
      "v": 66
    },
    {
      "midi": 67,
      "hit": false,
      "t": 158446.52800000008,
      "d": 1325.2421000000031,
      "v": 80
    },
    {
      "midi": 62,
      "hit": false,
      "t": 158446.52800000008,
      "d": 2109.2223166666517,
      "v": 87
    },
    {
      "midi": 60,
      "hit": false,
      "t": 158446.52800000008,
      "d": 2124.9990083333105,
      "v": 90
    },
    {
      "midi": 48,
      "hit": false,
      "t": 158446.52800000008,
      "d": 2225.727116666647,
      "v": 87
    },
    {
      "midi": 55,
      "hit": false,
      "t": 158446.52800000008,
      "d": 2225.727116666647,
      "v": 71
    },
    {
      "midi": 67,
      "hit": false,
      "t": 159902.83800000008,
      "d": 643.2035833333211,
      "v": 69
    },
    {
      "midi": 55,
      "hit": false,
      "t": 160776.62400000007,
      "d": 1148.0577166666626,
      "v": 84
    },
    {
      "midi": 64,
      "hit": false,
      "t": 160776.62400000007,
      "d": 1382.2809083333414,
      "v": 90
    },
    {
      "midi": 59,
      "hit": false,
      "t": 160776.62400000007,
      "d": 1974.51364166665,
      "v": 84
    },
    {
      "midi": 52,
      "hit": false,
      "t": 160776.62400000007,
      "d": 2294.901841666666,
      "v": 90
    },
    {
      "midi": 55,
      "hit": false,
      "t": 161941.67200000008,
      "d": 894.417058333318,
      "v": 52
    },
    {
      "midi": 64,
      "hit": false,
      "t": 162232.93400000007,
      "d": 621.3589333333366,
      "v": 77
    },
    {
      "midi": 50,
      "hit": false,
      "t": 163106.72000000006,
      "d": 1785.193341666687,
      "v": 67
    },
    {
      "midi": 66,
      "hit": false,
      "t": 163106.72000000006,
      "d": 2151.6980250000197,
      "v": 92
    },
    {
      "midi": 57,
      "hit": false,
      "t": 163106.72000000006,
      "d": 2175.969858333352,
      "v": 79
    },
    {
      "midi": 62,
      "hit": false,
      "t": 163106.72000000006,
      "d": 2236.6494416666974,
      "v": 82
    },
    {
      "midi": 69,
      "hit": false,
      "t": 164271.76800000007,
      "d": 949.0286833333375,
      "v": 63
    },
    {
      "midi": 55,
      "hit": false,
      "t": 165436.81600000008,
      "d": 1797.3292583333387,
      "v": 62
    },
    {
      "midi": 62,
      "hit": false,
      "t": 165436.81600000008,
      "d": 1923.5427916666667,
      "v": 90
    },
    {
      "midi": 50,
      "hit": false,
      "t": 165436.81600000008,
      "d": 1962.3777249999985,
      "v": 68
    },
    {
      "midi": 43,
      "hit": false,
      "t": 165436.81600000008,
      "d": 1976.9408249999979,
      "v": 68
    },
    {
      "midi": 59,
      "hit": false,
      "t": 165436.81600000008,
      "d": 2013.348575000011,
      "v": 87
    },
    {
      "midi": 67,
      "hit": false,
      "t": 165436.81600000008,
      "d": 2100.7271750000073,
      "v": 82
    },
    {
      "midi": 67,
      "hit": false,
      "t": 167766.9120000001,
      "d": 1998.7854750000115,
      "v": 77
    },
    {
      "midi": 62,
      "hit": false,
      "t": 167766.9120000001,
      "d": 2082.5233000000007,
      "v": 87
    },
    {
      "midi": 48,
      "hit": false,
      "t": 167766.9120000001,
      "d": 2083.73689166666,
      "v": 80
    },
    {
      "midi": 60,
      "hit": false,
      "t": 167766.9120000001,
      "d": 2165.0475333333306,
      "v": 87
    },
    {
      "midi": 55,
      "hit": false,
      "t": 167766.9120000001,
      "d": 2242.717399999994,
      "v": 77
    },
    {
      "midi": 64,
      "hit": false,
      "t": 170097.0080000001,
      "d": 1962.3777249999985,
      "v": 82
    },
    {
      "midi": 59,
      "hit": false,
      "t": 170097.0080000001,
      "d": 1980.581600000005,
      "v": 87
    },
    {
      "midi": 55,
      "hit": false,
      "t": 170097.0080000001,
      "d": 1987.8631500000192,
      "v": 86
    },
    {
      "midi": 52,
      "hit": false,
      "t": 170097.0080000001,
      "d": 2256.0669083333632,
      "v": 92
    },
    {
      "midi": 50,
      "hit": false,
      "t": 172427.1040000001,
      "d": 1879.8534916666686,
      "v": 69
    },
    {
      "midi": 62,
      "hit": false,
      "t": 172427.1040000001,
      "d": 2168.688308333338,
      "v": 86
    },
    {
      "midi": 66,
      "hit": false,
      "t": 172427.1040000001,
      "d": 2179.61063333333,
      "v": 79
    },
    {
      "midi": 57,
      "hit": false,
      "t": 172427.1040000001,
      "d": 2196.600916666677,
      "v": 84
    },
    {
      "midi": 69,
      "hit": false,
      "t": 173883.4140000001,
      "d": 690.5336583333265,
      "v": 66
    },
    {
      "midi": 55,
      "hit": false,
      "t": 174757.20000000013,
      "d": 1417.475066666666,
      "v": 77
    },
    {
      "midi": 50,
      "hit": false,
      "t": 174757.20000000013,
      "d": 2055.8242833333206,
      "v": 87
    },
    {
      "midi": 59,
      "hit": false,
      "t": 174757.20000000013,
      "d": 2078.8825249999936,
      "v": 91
    },
    {
      "midi": 43,
      "hit": false,
      "t": 174757.20000000013,
      "d": 2100.7271750000073,
      "v": 68
    },
    {
      "midi": 62,
      "hit": false,
      "t": 174757.20000000013,
      "d": 2110.43590833334,
      "v": 92
    },
    {
      "midi": 67,
      "hit": false,
      "t": 174757.20000000013,
      "d": 2169.901899999997,
      "v": 87
    },
    {
      "midi": 55,
      "hit": false,
      "t": 176213.51000000013,
      "d": 746.3588750000054,
      "v": 66
    },
    {
      "midi": 67,
      "hit": false,
      "t": 177087.29600000012,
      "d": 1325.2421000000031,
      "v": 80
    },
    {
      "midi": 62,
      "hit": false,
      "t": 177087.29600000012,
      "d": 2109.2223166666517,
      "v": 87
    },
    {
      "midi": 60,
      "hit": false,
      "t": 177087.29600000012,
      "d": 2124.9990083333105,
      "v": 90
    },
    {
      "midi": 48,
      "hit": false,
      "t": 177087.29600000012,
      "d": 2225.727116666647,
      "v": 87
    },
    {
      "midi": 55,
      "hit": false,
      "t": 177087.29600000012,
      "d": 2225.727116666647,
      "v": 71
    },
    {
      "midi": 67,
      "hit": false,
      "t": 178543.60600000012,
      "d": 643.2035833333211,
      "v": 69
    },
    {
      "midi": 55,
      "hit": false,
      "t": 179417.3920000001,
      "d": 1148.0577166666626,
      "v": 84
    },
    {
      "midi": 64,
      "hit": false,
      "t": 179417.3920000001,
      "d": 1382.2809083333414,
      "v": 90
    },
    {
      "midi": 59,
      "hit": false,
      "t": 179417.3920000001,
      "d": 1974.51364166665,
      "v": 84
    },
    {
      "midi": 52,
      "hit": false,
      "t": 179417.3920000001,
      "d": 2294.901841666666,
      "v": 90
    },
    {
      "midi": 55,
      "hit": false,
      "t": 180582.44000000012,
      "d": 894.417058333318,
      "v": 52
    },
    {
      "midi": 64,
      "hit": false,
      "t": 180873.7020000001,
      "d": 621.3589333333366,
      "v": 77
    },
    {
      "midi": 50,
      "hit": false,
      "t": 181747.4880000001,
      "d": 1785.193341666687,
      "v": 67
    },
    {
      "midi": 66,
      "hit": false,
      "t": 181747.4880000001,
      "d": 2151.6980250000197,
      "v": 92
    },
    {
      "midi": 57,
      "hit": false,
      "t": 181747.4880000001,
      "d": 2175.969858333352,
      "v": 79
    },
    {
      "midi": 62,
      "hit": false,
      "t": 181747.4880000001,
      "d": 2236.6494416666974,
      "v": 82
    },
    {
      "midi": 69,
      "hit": false,
      "t": 182912.5360000001,
      "d": 949.0286833333375,
      "v": 63
    },
    {
      "midi": 55,
      "hit": false,
      "t": 184077.58400000012,
      "d": 1797.3292583333387,
      "v": 62
    },
    {
      "midi": 62,
      "hit": false,
      "t": 184077.58400000012,
      "d": 1923.5427916666667,
      "v": 90
    },
    {
      "midi": 50,
      "hit": false,
      "t": 184077.58400000012,
      "d": 1962.3777249999985,
      "v": 68
    },
    {
      "midi": 43,
      "hit": false,
      "t": 184077.58400000012,
      "d": 1976.9408249999979,
      "v": 68
    },
    {
      "midi": 59,
      "hit": false,
      "t": 184077.58400000012,
      "d": 2013.348575000011,
      "v": 87
    },
    {
      "midi": 67,
      "hit": false,
      "t": 184077.58400000012,
      "d": 2100.7271750000073,
      "v": 82
    },
    {
      "midi": 67,
      "hit": false,
      "t": 186407.68000000014,
      "d": 1998.7854750000115,
      "v": 77
    },
    {
      "midi": 62,
      "hit": false,
      "t": 186407.68000000014,
      "d": 2082.5233000000007,
      "v": 87
    },
    {
      "midi": 48,
      "hit": false,
      "t": 186407.68000000014,
      "d": 2083.73689166666,
      "v": 80
    },
    {
      "midi": 60,
      "hit": false,
      "t": 186407.68000000014,
      "d": 2165.0475333333306,
      "v": 87
    },
    {
      "midi": 55,
      "hit": false,
      "t": 186407.68000000014,
      "d": 2242.717399999994,
      "v": 77
    },
    {
      "midi": 64,
      "hit": false,
      "t": 188737.77600000013,
      "d": 1962.3777249999985,
      "v": 82
    },
    {
      "midi": 59,
      "hit": false,
      "t": 188737.77600000013,
      "d": 1980.581600000005,
      "v": 87
    },
    {
      "midi": 55,
      "hit": false,
      "t": 188737.77600000013,
      "d": 1987.8631500000192,
      "v": 86
    },
    {
      "midi": 52,
      "hit": false,
      "t": 188737.77600000013,
      "d": 2256.0669083333632,
      "v": 92
    },
    {
      "midi": 48,
      "hit": false,
      "t": 191067.87200000015,
      "d": 2184.4649999999965,
      "v": 85
    },
    {
      "midi": 60,
      "hit": false,
      "t": 191067.87200000015,
      "d": 2184.4649999999965,
      "v": 76
    },
    {
      "midi": 64,
      "hit": false,
      "t": 191067.87200000015,
      "d": 2184.4649999999965,
      "v": 77
    },
    {
      "midi": 67,
      "hit": false,
      "t": 191067.87200000015,
      "d": 2184.4649999999965,
      "v": 66
    },
    {
      "midi": 55,
      "hit": false,
      "t": 191067.87200000015,
      "d": 2330.0959999999905,
      "v": 59
    },
    {
      "midi": 43,
      "hit": false,
      "t": 193397.96800000014,
      "d": 2330.0959999999905,
      "v": 41
    },
    {
      "midi": 50,
      "hit": false,
      "t": 193397.96800000014,
      "d": 2330.0959999999905,
      "v": 66
    },
    {
      "midi": 55,
      "hit": false,
      "t": 193397.96800000014,
      "d": 2330.0959999999905,
      "v": 66
    },
    {
      "midi": 59,
      "hit": false,
      "t": 193397.96800000014,
      "d": 2330.0959999999905,
      "v": 87
    },
    {
      "midi": 62,
      "hit": false,
      "t": 193397.96800000014,
      "d": 2330.0959999999905,
      "v": 82
    },
    {
      "midi": 67,
      "hit": false,
      "t": 193397.96800000014,
      "d": 2330.0959999999905,
      "v": 85
    },
    {
      "midi": 60,
      "hit": false,
      "t": 198058.16000000012,
      "d": 2038.8340000000026,
      "v": 94
    },
    {
      "midi": 64,
      "hit": false,
      "t": 198058.16000000012,
      "d": 2038.8340000000026,
      "v": 91
    },
    {
      "midi": 67,
      "hit": false,
      "t": 198058.16000000012,
      "d": 2038.8340000000026,
      "v": 84
    },
    {
      "midi": 48,
      "hit": false,
      "t": 198058.16000000012,
      "d": 2184.4649999999965,
      "v": 90
    },
    {
      "midi": 55,
      "hit": false,
      "t": 198058.16000000012,
      "d": 2330.0959999999905,
      "v": 71
    },
    {
      "midi": 52,
      "hit": false,
      "t": 200388.2560000001,
      "d": 1893.2030000000086,
      "v": 74
    },
    {
      "midi": 59,
      "hit": false,
      "t": 200388.2560000001,
      "d": 2038.8340000000026,
      "v": 76
    },
    {
      "midi": 64,
      "hit": false,
      "t": 200388.2560000001,
      "d": 2038.8340000000026,
      "v": 75
    },
    {
      "midi": 55,
      "hit": false,
      "t": 200388.2560000001,
      "d": 2184.4649999999965,
      "v": 76
    },
    {
      "midi": 67,
      "hit": false,
      "t": 202718.3520000001,
      "d": 2038.8340000000026,
      "v": 79
    },
    {
      "midi": 48,
      "hit": false,
      "t": 202718.3520000001,
      "d": 2184.4649999999965,
      "v": 94
    },
    {
      "midi": 55,
      "hit": false,
      "t": 202718.3520000001,
      "d": 2184.4649999999965,
      "v": 83
    },
    {
      "midi": 60,
      "hit": false,
      "t": 202718.3520000001,
      "d": 2184.4649999999965,
      "v": 90
    },
    {
      "midi": 64,
      "hit": false,
      "t": 202718.3520000001,
      "d": 2184.4649999999965,
      "v": 90
    },
    {
      "midi": 59,
      "hit": false,
      "t": 205048.4480000001,
      "d": 2038.8340000000026,
      "v": 92
    },
    {
      "midi": 64,
      "hit": false,
      "t": 205048.4480000001,
      "d": 2038.8340000000026,
      "v": 90
    },
    {
      "midi": 55,
      "hit": false,
      "t": 205048.4480000001,
      "d": 2184.4649999999965,
      "v": 87
    },
    {
      "midi": 52,
      "hit": false,
      "t": 205048.4480000001,
      "d": 2330.0959999999905,
      "v": 87
    },
    {
      "midi": 48,
      "hit": false,
      "t": 207378.54400000008,
      "d": 873.7859999999928,
      "v": 89
    },
    {
      "midi": 55,
      "hit": false,
      "t": 207378.54400000008,
      "d": 873.7859999999928,
      "v": 74
    },
    {
      "midi": 60,
      "hit": false,
      "t": 207378.54400000008,
      "d": 873.7859999999928,
      "v": 92
    },
    {
      "midi": 64,
      "hit": false,
      "t": 207378.54400000008,
      "d": 873.7859999999928,
      "v": 90
    },
    {
      "midi": 50,
      "hit": false,
      "t": 208252.33000000007,
      "d": 873.7859999999928,
      "v": 90
    },
    {
      "midi": 62,
      "hit": false,
      "t": 208252.33000000007,
      "d": 873.7859999999928,
      "v": 91
    },
    {
      "midi": 52,
      "hit": false,
      "t": 209126.11600000007,
      "d": 2621.3580000000075,
      "v": 80
    },
    {
      "midi": 55,
      "hit": false,
      "t": 209126.11600000007,
      "d": 2766.9890000000014,
      "v": 68
    },
    {
      "midi": 60,
      "hit": false,
      "t": 209126.11600000007,
      "d": 2766.9890000000014,
      "v": 91
    },
    {
      "midi": 64,
      "hit": false,
      "t": 209126.11600000007,
      "d": 2766.9890000000014,
      "v": 90
    },
    {
      "midi": 48,
      "hit": false,
      "t": 212038.73600000006,
      "d": 3640.774999999994,
      "v": 77
    },
    {
      "midi": 55,
      "hit": false,
      "t": 212038.73600000006,
      "d": 3640.774999999994,
      "v": 66
    },
    {
      "midi": 67,
      "hit": false,
      "t": 212038.73600000006,
      "d": 3640.774999999994,
      "v": 84
    },
    {
      "midi": 60,
      "hit": false,
      "t": 212038.73600000006,
      "d": 3786.405999999988,
      "v": 91
    },
    {
      "midi": 64,
      "hit": false,
      "t": 212038.73600000006,
      "d": 3786.405999999988,
      "v": 90
    },
    {
      "midi": 43,
      "hit": false,
      "t": 216698.92800000004,
      "d": 4592.230866666621,
      "v": 90
    },
    {
      "midi": 67,
      "hit": false,
      "t": 216990.19000000003,
      "d": 442.96095833330764,
      "v": 35
    },
    {
      "midi": 74,
      "hit": false,
      "t": 217281.45200000002,
      "d": 592.2327333333087,
      "v": 73
    },
    {
      "midi": 67,
      "hit": false,
      "t": 217572.714,
      "d": 489.0774416666536,
      "v": 66
    },
    {
      "midi": 71,
      "hit": false,
      "t": 217863.976,
      "d": 635.9220333333069,
      "v": 56
    },
    {
      "midi": 67,
      "hit": false,
      "t": 218155.23799999998,
      "d": 458.7376499999955,
      "v": 38
    },
    {
      "midi": 74,
      "hit": false,
      "t": 218446.49999999997,
      "d": 808.252049999981,
      "v": 74
    },
    {
      "midi": 67,
      "hit": false,
      "t": 218737.762,
      "d": 379.8541916666436,
      "v": 36
    },
    {
      "midi": 71,
      "hit": false,
      "t": 219029.02399999998,
      "d": 617.7181583333004,
      "v": 53
    },
    {
      "midi": 67,
      "hit": false,
      "t": 219320.28599999996,
      "d": 328.8833416666603,
      "v": 35
    },
    {
      "midi": 74,
      "hit": false,
      "t": 219611.54799999995,
      "d": 1748.7855916667322,
      "v": 75
    },
    {
      "midi": 67,
      "hit": false,
      "t": 219902.80999999997,
      "d": 401.69884166665724,
      "v": 56
    },
    {
      "midi": 69,
      "hit": false,
      "t": 220194.07199999996,
      "d": 473.300750000024,
      "v": 87
    },
    {
      "midi": 67,
      "hit": false,
      "t": 220485.33399999997,
      "d": 813.1064166667056,
      "v": 41
    },
    {
      "midi": 69,
      "hit": false,
      "t": 220776.596,
      "d": 572.8152666667011,
      "v": 51
    },
    {
      "midi": 48,
      "hit": false,
      "t": 221359.12000000002,
      "d": 2303.3969833333103,
      "v": 84
    },
    {
      "midi": 67,
      "hit": false,
      "t": 221650.382,
      "d": 538.8346999999776,
      "v": 52
    },
    {
      "midi": 74,
      "hit": false,
      "t": 221941.644,
      "d": 1025.4849583333125,
      "v": 66
    },
    {
      "midi": 67,
      "hit": false,
      "t": 222232.906,
      "d": 1088.5917250000057,
      "v": 57
    },
    {
      "midi": 74,
      "hit": false,
      "t": 223106.69199999998,
      "d": 1031.5529166666965,
      "v": 64
    },
    {
      "midi": 67,
      "hit": false,
      "t": 223397.954,
      "d": 999.99953333335,
      "v": 62
    },
    {
      "midi": 48,
      "hit": false,
      "t": 223689.21600000001,
      "d": 2350.7270583333448,
      "v": 48
    },
    {
      "midi": 74,
      "hit": false,
      "t": 224271.74000000002,
      "d": 1856.7952499999956,
      "v": 59
    },
    {
      "midi": 67,
      "hit": false,
      "t": 224563.002,
      "d": 407.76679999998305,
      "v": 45
    },
    {
      "midi": 69,
      "hit": false,
      "t": 224854.264,
      "d": 550.9706166666583,
      "v": 64
    },
    {
      "midi": 67,
      "hit": false,
      "t": 225145.52599999998,
      "d": 882.2811416666955,
      "v": 48
    },
    {
      "midi": 71,
      "hit": false,
      "t": 225436.788,
      "d": 623.7861166666844,
      "v": 62
    },
    {
      "midi": 52,
      "hit": false,
      "t": 226019.312,
      "d": 2098.2999916666304,
      "v": 85
    },
    {
      "midi": 59,
      "hit": false,
      "t": 226310.57400000002,
      "d": 2021.8437166666263,
      "v": 52
    },
    {
      "midi": 74,
      "hit": false,
      "t": 226601.836,
      "d": 930.8248083333019,
      "v": 75
    },
    {
      "midi": 67,
      "hit": false,
      "t": 226893.098,
      "d": 457.52405833330704,
      "v": 56
    },
    {
      "midi": 71,
      "hit": false,
      "t": 227184.36,
      "d": 633.4948500000173,
      "v": 64
    },
    {
      "midi": 67,
      "hit": false,
      "t": 227475.62199999997,
      "d": 445.38814166668453,
      "v": 38
    },
    {
      "midi": 74,
      "hit": false,
      "t": 227766.884,
      "d": 1009.7082666666829,
      "v": 71
    },
    {
      "midi": 67,
      "hit": false,
      "t": 228058.14599999998,
      "d": 376.2134166666947,
      "v": 59
    },
    {
      "midi": 69,
      "hit": false,
      "t": 228349.408,
      "d": 921.1160749999981,
      "v": 34
    },
    {
      "midi": 50,
      "hit": false,
      "t": 228349.408,
      "d": 2343.4455083333596,
      "v": 53
    },
    {
      "midi": 67,
      "hit": false,
      "t": 228640.67,
      "d": 432.0386333333154,
      "v": 37
    },
    {
      "midi": 74,
      "hit": false,
      "t": 228931.932,
      "d": 974.5141083333292,
      "v": 66
    },
    {
      "midi": 67,
      "hit": false,
      "t": 229223.194,
      "d": 430.82504166668514,
      "v": 54
    },
    {
      "midi": 69,
      "hit": false,
      "t": 229514.456,
      "d": 1202.6693416666822,
      "v": 64
    },
    {
      "midi": 67,
      "hit": false,
      "t": 229805.718,
      "d": 449.02891666669166,
      "v": 45
    },
    {
      "midi": 74,
      "hit": false,
      "t": 230096.98,
      "d": 639.5628083333431,
      "v": 63
    },
    {
      "midi": 67,
      "hit": false,
      "t": 230388.24200000003,
      "d": 332.5241166666674,
      "v": 51
    },
    {
      "midi": 48,
      "hit": false,
      "t": 230679.50400000002,
      "d": 2199.028099999967,
      "v": 83
    },
    {
      "midi": 67,
      "hit": false,
      "t": 230970.76600000003,
      "d": 398.0580666666501,
      "v": 52
    },
    {
      "midi": 74,
      "hit": false,
      "t": 231262.02800000002,
      "d": 542.4754749999847,
      "v": 84
    },
    {
      "midi": 67,
      "hit": false,
      "t": 231553.29,
      "d": 467.2327916666691,
      "v": 63
    },
    {
      "midi": 71,
      "hit": false,
      "t": 231844.552,
      "d": 1156.552858333307,
      "v": 72
    },
    {
      "midi": 67,
      "hit": false,
      "t": 232135.814,
      "d": 446.60173333331477,
      "v": 52
    },
    {
      "midi": 74,
      "hit": false,
      "t": 232427.076,
      "d": 981.7956583332852,
      "v": 72
    },
    {
      "midi": 67,
      "hit": false,
      "t": 232718.338,
      "d": 379.8541916666436,
      "v": 43
    },
    {
      "midi": 69,
      "hit": false,
      "t": 233009.59999999998,
      "d": 1063.106299999985,
      "v": 63
    },
    {
      "midi": 48,
      "hit": false,
      "t": 233009.59999999998,
      "d": 2300.9697999999626,
      "v": 54
    },
    {
      "midi": 67,
      "hit": false,
      "t": 233300.86199999996,
      "d": 429.6114499999967,
      "v": 45
    },
    {
      "midi": 74,
      "hit": false,
      "t": 233592.12399999995,
      "d": 1009.7082666666538,
      "v": 79
    },
    {
      "midi": 67,
      "hit": false,
      "t": 233883.38599999997,
      "d": 383.4949666666507,
      "v": 54
    },
    {
      "midi": 69,
      "hit": false,
      "t": 234174.64799999996,
      "d": 1122.5722916666418,
      "v": 68
    },
    {
      "midi": 67,
      "hit": false,
      "t": 234465.90999999995,
      "d": 452.6696916666406,
      "v": 54
    },
    {
      "midi": 74,
      "hit": false,
      "t": 234757.17199999993,
      "d": 575.2424500000197,
      "v": 83
    },
    {
      "midi": 67,
      "hit": false,
      "t": 235048.43399999992,
      "d": 235.4367833333381,
      "v": 65
    },
    {
      "midi": 55,
      "hit": false,
      "t": 235339.69599999997,
      "d": 2160.193166666635,
      "v": 92
    },
    {
      "midi": 71,
      "hit": false,
      "t": 235339.69599999997,
      "d": 2838.590908333281,
      "v": 94
    },
    {
      "midi": 62,
      "hit": false,
      "t": 235630.95799999996,
      "d": 1561.8924749999715,
      "v": 65
    },
    {
      "midi": 74,
      "hit": false,
      "t": 235922.21999999994,
      "d": 2157.7659833333164,
      "v": 68
    },
    {
      "midi": 69,
      "hit": false,
      "t": 236213.48199999993,
      "d": 2076.455341666646,
      "v": 87
    },
    {
      "midi": 67,
      "hit": false,
      "t": 236796.00599999994,
      "d": 1635.9215666666278,
      "v": 87
    },
    {
      "midi": 62,
      "hit": false,
      "t": 237378.52999999994,
      "d": 480.58229999998,
      "v": 90
    },
    {
      "midi": 55,
      "hit": false,
      "t": 237669.79199999993,
      "d": 2263.3484583333193,
      "v": 72
    },
    {
      "midi": 62,
      "hit": false,
      "t": 237961.05399999992,
      "d": 1959.9505416666507,
      "v": 56
    },
    {
      "midi": 74,
      "hit": false,
      "t": 238252.3159999999,
      "d": 688.1064749999787,
      "v": 79
    },
    {
      "midi": 69,
      "hit": false,
      "t": 238543.5779999999,
      "d": 1393.2032333333627,
      "v": 90
    },
    {
      "midi": 71,
      "hit": false,
      "t": 239126.1019999999,
      "d": 861.6500833333703,
      "v": 97
    },
    {
      "midi": 72,
      "hit": false,
      "t": 239999.88799999995,
      "d": 1998.7854749999824,
      "v": 91
    },
    {
      "midi": 60,
      "hit": false,
      "t": 239999.88799999995,
      "d": 2219.659158333321,
      "v": 62
    },
    {
      "midi": 71,
      "hit": false,
      "t": 240582.41199999995,
      "d": 370.14545833331067,
      "v": 56
    },
    {
      "midi": 69,
      "hit": false,
      "t": 240873.67399999994,
      "d": 1093.446091666643,
      "v": 90
    },
    {
      "midi": 67,
      "hit": false,
      "t": 241456.19799999992,
      "d": 1736.6496750000224,
      "v": 80
    },
    {
      "midi": 71,
      "hit": false,
      "t": 242038.72199999992,
      "d": 291.262000000017,
      "v": 75
    },
    {
      "midi": 60,
      "hit": false,
      "t": 242329.98399999994,
      "d": 2237.8630333333276,
      "v": 72
    },
    {
      "midi": 72,
      "hit": false,
      "t": 242329.98399999994,
      "d": 2265.775641666667,
      "v": 91
    },
    {
      "midi": 69,
      "hit": false,
      "t": 243203.76999999993,
      "d": 580.0968166666571,
      "v": 87
    },
    {
      "midi": 67,
      "hit": false,
      "t": 243786.29399999994,
      "d": 798.5433166666771,
      "v": 69
    },
    {
      "midi": 74,
      "hit": false,
      "t": 244368.81799999994,
      "d": 2179.610633333301,
      "v": 93
    },
    {
      "midi": 64,
      "hit": false,
      "t": 244660.07999999993,
      "d": 2327.6688166666427,
      "v": 47
    },
    {
      "midi": 67,
      "hit": false,
      "t": 245242.60399999993,
      "d": 1519.4167666666326,
      "v": 35
    },
    {
      "midi": 71,
      "hit": false,
      "t": 245533.86599999992,
      "d": 1144.4169416666555,
      "v": 29
    },
    {
      "midi": 74,
      "hit": false,
      "t": 246698.9139999999,
      "d": 2515.7755250000046,
      "v": 62
    },
    {
      "midi": 69,
      "hit": false,
      "t": 248446.48599999992,
      "d": 594.6599166666565,
      "v": 87
    },
    {
      "midi": 67,
      "hit": false,
      "t": 248737.7479999999,
      "d": 661.4074583333277,
      "v": 90
    },
    {
      "midi": 62,
      "hit": false,
      "t": 249029.0099999999,
      "d": 44.90289166668663,
      "v": 93
    },
    {
      "midi": 64,
      "hit": false,
      "t": 249320.2719999999,
      "d": 1597.0866333333252,
      "v": 101
    },
    {
      "midi": 62,
      "hit": false,
      "t": 250194.0579999999,
      "d": 866.5044500000076,
      "v": 91
    },
    {
      "midi": 67,
      "hit": false,
      "t": 250194.0579999999,
      "d": 1853.1544750000176,
      "v": 5
    },
    {
      "midi": 64,
      "hit": false,
      "t": 251067.84399999992,
      "d": 554.6113916666654,
      "v": 92
    },
    {
      "midi": 64,
      "hit": false,
      "t": 251650.36799999993,
      "d": 1597.0866333333252,
      "v": 101
    },
    {
      "midi": 62,
      "hit": false,
      "t": 252524.15399999992,
      "d": 866.5044500000076,
      "v": 91
    },
    {
      "midi": 64,
      "hit": false,
      "t": 253397.93999999994,
      "d": 554.6113916666654,
      "v": 92
    },
    {
      "midi": 67,
      "hit": false,
      "t": 253980.46399999995,
      "d": 396.8444749999908,
      "v": 66
    },
    {
      "midi": 48,
      "hit": false,
      "t": 253980.46399999995,
      "d": 728.1549999999988,
      "v": 99
    },
    {
      "midi": 55,
      "hit": false,
      "t": 253980.46399999995,
      "d": 873.7859999999928,
      "v": 76
    },
    {
      "midi": 60,
      "hit": false,
      "t": 253980.46399999995,
      "d": 873.7859999999928,
      "v": 93
    },
    {
      "midi": 62,
      "hit": false,
      "t": 254854.24999999994,
      "d": 728.1549999999988,
      "v": 90
    },
    {
      "midi": 48,
      "hit": false,
      "t": 254854.24999999994,
      "d": 873.7859999999928,
      "v": 96
    },
    {
      "midi": 55,
      "hit": false,
      "t": 254854.24999999994,
      "d": 873.7859999999928,
      "v": 77
    },
    {
      "midi": 60,
      "hit": false,
      "t": 254854.24999999994,
      "d": 873.7859999999928,
      "v": 91
    },
    {
      "midi": 63,
      "hit": false,
      "t": 255728.03599999993,
      "d": 145.63099999999395,
      "v": 68
    },
    {
      "midi": 55,
      "hit": false,
      "t": 255728.03599999993,
      "d": 873.7859999999928,
      "v": 87
    },
    {
      "midi": 60,
      "hit": false,
      "t": 255728.03599999993,
      "d": 1747.5719999999856,
      "v": 98
    },
    {
      "midi": 64,
      "hit": false,
      "t": 255728.03599999993,
      "d": 1747.5719999999856,
      "v": 94
    },
    {
      "midi": 48,
      "hit": false,
      "t": 255728.03599999993,
      "d": 2912.619999999937,
      "v": 92
    },
    {
      "midi": 55,
      "hit": false,
      "t": 256601.82199999993,
      "d": 873.7859999999928,
      "v": 74
    },
    {
      "midi": 55,
      "hit": false,
      "t": 257475.60799999992,
      "d": 873.7859999999637,
      "v": 74
    },
    {
      "midi": 60,
      "hit": false,
      "t": 257475.60799999992,
      "d": 1019.4169999999576,
      "v": 92
    },
    {
      "midi": 62,
      "hit": false,
      "t": 257766.8699999999,
      "d": 436.89299999998184,
      "v": 72
    },
    {
      "midi": 64,
      "hit": false,
      "t": 258058.1319999999,
      "d": 582.5239999999758,
      "v": 90
    },
    {
      "midi": 50,
      "hit": false,
      "t": 258640.65599999987,
      "d": 4368.929999999964,
      "v": 96
    },
    {
      "midi": 57,
      "hit": false,
      "t": 258640.65599999987,
      "d": 4514.560999999958,
      "v": 97
    },
    {
      "midi": 62,
      "hit": false,
      "t": 258640.65599999987,
      "d": 4514.560999999958,
      "v": 105
    },
    {
      "midi": 66,
      "hit": false,
      "t": 259514.44199999986,
      "d": 3640.774999999965,
      "v": 80
    },
    {
      "midi": 69,
      "hit": false,
      "t": 260388.22799999986,
      "d": 2621.3579999999783,
      "v": 85
    },
    {
      "midi": 55,
      "hit": false,
      "t": 272621.23199999984,
      "d": 1417.475066666666,
      "v": 77
    },
    {
      "midi": 50,
      "hit": false,
      "t": 272621.23199999984,
      "d": 2055.8242833333206,
      "v": 87
    },
    {
      "midi": 59,
      "hit": false,
      "t": 272621.23199999984,
      "d": 2078.8825249999645,
      "v": 91
    },
    {
      "midi": 43,
      "hit": false,
      "t": 272621.23199999984,
      "d": 2100.727174999949,
      "v": 68
    },
    {
      "midi": 62,
      "hit": false,
      "t": 272621.23199999984,
      "d": 2110.435908333282,
      "v": 92
    },
    {
      "midi": 67,
      "hit": false,
      "t": 272621.23199999984,
      "d": 2169.901899999939,
      "v": 87
    },
    {
      "midi": 55,
      "hit": false,
      "t": 274077.54199999984,
      "d": 746.358874999918,
      "v": 66
    },
    {
      "midi": 67,
      "hit": false,
      "t": 274951.32799999975,
      "d": 1325.242099999974,
      "v": 80
    },
    {
      "midi": 62,
      "hit": false,
      "t": 274951.32799999975,
      "d": 2109.222316666681,
      "v": 87
    },
    {
      "midi": 60,
      "hit": false,
      "t": 274951.32799999975,
      "d": 2124.9990083333687,
      "v": 90
    },
    {
      "midi": 48,
      "hit": false,
      "t": 274951.32799999975,
      "d": 2225.727116666676,
      "v": 87
    },
    {
      "midi": 55,
      "hit": false,
      "t": 274951.32799999975,
      "d": 2225.727116666676,
      "v": 71
    },
    {
      "midi": 67,
      "hit": false,
      "t": 276407.63799999974,
      "d": 643.2035833333503,
      "v": 69
    },
    {
      "midi": 55,
      "hit": false,
      "t": 277281.42399999977,
      "d": 1148.0577166666626,
      "v": 84
    },
    {
      "midi": 64,
      "hit": false,
      "t": 277281.42399999977,
      "d": 1382.2809083333705,
      "v": 90
    },
    {
      "midi": 59,
      "hit": false,
      "t": 277281.42399999977,
      "d": 1974.5136416667374,
      "v": 84
    },
    {
      "midi": 52,
      "hit": false,
      "t": 277281.42399999977,
      "d": 2294.9018416667823,
      "v": 90
    },
    {
      "midi": 55,
      "hit": false,
      "t": 278446.4719999998,
      "d": 894.4170583334053,
      "v": 52
    },
    {
      "midi": 64,
      "hit": false,
      "t": 278737.7339999998,
      "d": 621.3589333333657,
      "v": 77
    },
    {
      "midi": 50,
      "hit": false,
      "t": 279611.5199999999,
      "d": 1785.193341666658,
      "v": 67
    },
    {
      "midi": 66,
      "hit": false,
      "t": 279611.5199999999,
      "d": 2151.6980249999906,
      "v": 92
    },
    {
      "midi": 57,
      "hit": false,
      "t": 279611.5199999999,
      "d": 2175.969858333352,
      "v": 79
    },
    {
      "midi": 62,
      "hit": false,
      "t": 279611.5199999999,
      "d": 2236.6494416666683,
      "v": 82
    },
    {
      "midi": 69,
      "hit": false,
      "t": 280776.5679999999,
      "d": 949.0286833333084,
      "v": 63
    },
    {
      "midi": 55,
      "hit": false,
      "t": 281941.6159999999,
      "d": 1797.3292583333096,
      "v": 62
    },
    {
      "midi": 62,
      "hit": false,
      "t": 281941.6159999999,
      "d": 1923.5427916666376,
      "v": 90
    },
    {
      "midi": 50,
      "hit": false,
      "t": 281941.6159999999,
      "d": 1962.3777249999694,
      "v": 68
    },
    {
      "midi": 43,
      "hit": false,
      "t": 281941.6159999999,
      "d": 1976.9408249999979,
      "v": 68
    },
    {
      "midi": 59,
      "hit": false,
      "t": 281941.6159999999,
      "d": 2013.348575000011,
      "v": 87
    },
    {
      "midi": 67,
      "hit": false,
      "t": 281941.6159999999,
      "d": 2100.7271750000073,
      "v": 82
    },
    {
      "midi": 67,
      "hit": false,
      "t": 284271.71199999994,
      "d": 1998.7854749999824,
      "v": 77
    },
    {
      "midi": 62,
      "hit": false,
      "t": 284271.71199999994,
      "d": 2082.5233000000007,
      "v": 87
    },
    {
      "midi": 48,
      "hit": false,
      "t": 284271.71199999994,
      "d": 2083.73689166666,
      "v": 80
    },
    {
      "midi": 60,
      "hit": false,
      "t": 284271.71199999994,
      "d": 2165.0475333333015,
      "v": 87
    },
    {
      "midi": 55,
      "hit": false,
      "t": 284271.71199999994,
      "d": 2242.717399999965,
      "v": 77
    },
    {
      "midi": 64,
      "hit": false,
      "t": 286601.8079999999,
      "d": 1962.3777250000276,
      "v": 82
    },
    {
      "midi": 59,
      "hit": false,
      "t": 286601.8079999999,
      "d": 1980.581600000034,
      "v": 87
    },
    {
      "midi": 55,
      "hit": false,
      "t": 286601.8079999999,
      "d": 1987.8631500000483,
      "v": 86
    },
    {
      "midi": 52,
      "hit": false,
      "t": 286601.8079999999,
      "d": 2256.0669083333923,
      "v": 92
    },
    {
      "midi": 50,
      "hit": false,
      "t": 288931.904,
      "d": 1879.8534916666686,
      "v": 69
    },
    {
      "midi": 62,
      "hit": false,
      "t": 288931.904,
      "d": 2168.688308333338,
      "v": 86
    },
    {
      "midi": 66,
      "hit": false,
      "t": 288931.904,
      "d": 2179.61063333333,
      "v": 79
    },
    {
      "midi": 57,
      "hit": false,
      "t": 288931.904,
      "d": 2196.600916666677,
      "v": 84
    },
    {
      "midi": 69,
      "hit": false,
      "t": 290388.214,
      "d": 690.5336583333556,
      "v": 66
    },
    {
      "midi": 55,
      "hit": false,
      "t": 291262,
      "d": 1417.475066666666,
      "v": 77
    },
    {
      "midi": 50,
      "hit": false,
      "t": 291262,
      "d": 2055.8242833333206,
      "v": 87
    },
    {
      "midi": 59,
      "hit": false,
      "t": 291262,
      "d": 2078.8825249999645,
      "v": 91
    },
    {
      "midi": 43,
      "hit": false,
      "t": 291262,
      "d": 2100.727174999949,
      "v": 68
    },
    {
      "midi": 62,
      "hit": false,
      "t": 291262,
      "d": 2110.435908333282,
      "v": 92
    },
    {
      "midi": 67,
      "hit": false,
      "t": 291262,
      "d": 2169.901899999939,
      "v": 87
    },
    {
      "midi": 55,
      "hit": false,
      "t": 292718.31,
      "d": 746.358874999918,
      "v": 66
    },
    {
      "midi": 67,
      "hit": false,
      "t": 293592.0959999999,
      "d": 1325.242099999974,
      "v": 80
    },
    {
      "midi": 62,
      "hit": false,
      "t": 293592.0959999999,
      "d": 2109.222316666681,
      "v": 87
    },
    {
      "midi": 60,
      "hit": false,
      "t": 293592.0959999999,
      "d": 2124.9990083333687,
      "v": 90
    },
    {
      "midi": 48,
      "hit": false,
      "t": 293592.0959999999,
      "d": 2225.727116666676,
      "v": 87
    },
    {
      "midi": 55,
      "hit": false,
      "t": 293592.0959999999,
      "d": 2225.727116666676,
      "v": 71
    },
    {
      "midi": 67,
      "hit": false,
      "t": 295048.4059999999,
      "d": 643.2035833333503,
      "v": 69
    },
    {
      "midi": 55,
      "hit": false,
      "t": 295922.1919999999,
      "d": 1148.0577166666626,
      "v": 84
    },
    {
      "midi": 64,
      "hit": false,
      "t": 295922.1919999999,
      "d": 1382.2809083333705,
      "v": 90
    },
    {
      "midi": 59,
      "hit": false,
      "t": 295922.1919999999,
      "d": 1974.5136416667374,
      "v": 84
    },
    {
      "midi": 52,
      "hit": false,
      "t": 295922.1919999999,
      "d": 2294.9018416667823,
      "v": 90
    },
    {
      "midi": 55,
      "hit": false,
      "t": 297087.23999999993,
      "d": 894.4170583334053,
      "v": 52
    },
    {
      "midi": 64,
      "hit": false,
      "t": 297378.502,
      "d": 621.3589333333657,
      "v": 77
    },
    {
      "midi": 50,
      "hit": false,
      "t": 298252.28800000006,
      "d": 1785.193341666658,
      "v": 67
    },
    {
      "midi": 66,
      "hit": false,
      "t": 298252.28800000006,
      "d": 2151.6980249999906,
      "v": 92
    },
    {
      "midi": 57,
      "hit": false,
      "t": 298252.28800000006,
      "d": 2175.969858333352,
      "v": 79
    },
    {
      "midi": 62,
      "hit": false,
      "t": 298252.28800000006,
      "d": 2236.6494416666683,
      "v": 82
    },
    {
      "midi": 69,
      "hit": false,
      "t": 299417.33600000007,
      "d": 949.0286833333084,
      "v": 63
    },
    {
      "midi": 55,
      "hit": false,
      "t": 300582.3840000001,
      "d": 1797.3292583333096,
      "v": 62
    },
    {
      "midi": 62,
      "hit": false,
      "t": 300582.3840000001,
      "d": 1923.5427916666376,
      "v": 90
    },
    {
      "midi": 50,
      "hit": false,
      "t": 300582.3840000001,
      "d": 1962.3777249999694,
      "v": 68
    },
    {
      "midi": 43,
      "hit": false,
      "t": 300582.3840000001,
      "d": 1976.9408249999979,
      "v": 68
    },
    {
      "midi": 59,
      "hit": false,
      "t": 300582.3840000001,
      "d": 2013.348575000011,
      "v": 87
    },
    {
      "midi": 67,
      "hit": false,
      "t": 300582.3840000001,
      "d": 2100.7271750000073,
      "v": 82
    },
    {
      "midi": 67,
      "hit": false,
      "t": 302912.4800000001,
      "d": 1998.7854749999824,
      "v": 77
    },
    {
      "midi": 62,
      "hit": false,
      "t": 302912.4800000001,
      "d": 2082.5233000000007,
      "v": 87
    },
    {
      "midi": 48,
      "hit": false,
      "t": 302912.4800000001,
      "d": 2083.73689166666,
      "v": 80
    },
    {
      "midi": 60,
      "hit": false,
      "t": 302912.4800000001,
      "d": 2165.0475333333015,
      "v": 87
    },
    {
      "midi": 55,
      "hit": false,
      "t": 302912.4800000001,
      "d": 2242.717399999965,
      "v": 77
    },
    {
      "midi": 64,
      "hit": false,
      "t": 305242.57600000006,
      "d": 1962.3777250000276,
      "v": 82
    },
    {
      "midi": 59,
      "hit": false,
      "t": 305242.57600000006,
      "d": 1980.581600000034,
      "v": 87
    },
    {
      "midi": 55,
      "hit": false,
      "t": 305242.57600000006,
      "d": 1987.8631500000483,
      "v": 86
    },
    {
      "midi": 52,
      "hit": false,
      "t": 305242.57600000006,
      "d": 2256.0669083333923,
      "v": 92
    }
  ]
}