{
  "jsonPath": "Soundtracks/Classic Soundtrack/Carter Burwell/he-didnt-like-his-friends.json",
  "path": "Soundtracks\\Classic Soundtrack\\Carter Burwell\\He Didnt Like His Friends.mid",
  "name": "He Didnt Like His Friends",
  "difficulty": "Advanced",
  "bpm": 76.00006586672374,
  "notes": [
    {
      "midi": 41,
      "hit": false,
      "t": 4615.384,
      "d": 4465.143635416665,
      "v": 127
    },
    {
      "midi": 48,
      "hit": false,
      "t": 5186.297385416667,
      "d": 4164.662906249998,
      "v": 101
    },
    {
      "midi": 55,
      "hit": false,
      "t": 5769.23,
      "d": 3918.2687083333312,
      "v": 99
    },
    {
      "midi": 57,
      "hit": false,
      "t": 6346.152999999999,
      "d": 1225.9613749999999,
      "v": 107
    },
    {
      "midi": 60,
      "hit": false,
      "t": 7493.989385416666,
      "d": 673.0768333333335,
      "v": 84
    },
    {
      "midi": 64,
      "hit": false,
      "t": 8076.922,
      "d": 606.9710729166663,
      "v": 109
    },
    {
      "midi": 65,
      "hit": false,
      "t": 8653.845,
      "d": 618.9903020833317,
      "v": 89
    },
    {
      "midi": 41,
      "hit": false,
      "t": 9230.767999999998,
      "d": 3449.518770833334,
      "v": 112
    },
    {
      "midi": 50,
      "hit": false,
      "t": 9807.690999999997,
      "d": 2956.730375000001,
      "v": 93
    },
    {
      "midi": 53,
      "hit": false,
      "t": 10384.613999999998,
      "d": 1730.769000000002,
      "v": 91
    },
    {
      "midi": 58,
      "hit": false,
      "t": 10961.536999999998,
      "d": 2115.3843333333316,
      "v": 83
    },
    {
      "midi": 69,
      "hit": false,
      "t": 11538.46,
      "d": 697.115291666667,
      "v": 104
    },
    {
      "midi": 70,
      "hit": false,
      "t": 12115.383,
      "d": 691.1056770833311,
      "v": 82
    },
    {
      "midi": 67,
      "hit": false,
      "t": 12692.305999999999,
      "d": 679.0864479166648,
      "v": 99
    },
    {
      "midi": 52,
      "hit": false,
      "t": 12692.305999999999,
      "d": 1243.9902187499974,
      "v": 99
    },
    {
      "midi": 69,
      "hit": false,
      "t": 13269.228999999998,
      "d": 594.9518437499992,
      "v": 76
    },
    {
      "midi": 41,
      "hit": false,
      "t": 13846.151999999996,
      "d": 4290.864812499998,
      "v": 109
    },
    {
      "midi": 48,
      "hit": false,
      "t": 14423.074999999995,
      "d": 3972.3552395833303,
      "v": 99
    },
    {
      "midi": 55,
      "hit": false,
      "t": 14999.997999999996,
      "d": 3371.393781249997,
      "v": 101
    },
    {
      "midi": 57,
      "hit": false,
      "t": 15576.920999999997,
      "d": 1207.9325312499986,
      "v": 99
    },
    {
      "midi": 60,
      "hit": false,
      "t": 16724.757385416662,
      "d": 655.0479895833305,
      "v": 89
    },
    {
      "midi": 64,
      "hit": false,
      "t": 17301.68038541666,
      "d": 576.9229999999989,
      "v": 101
    },
    {
      "midi": 65,
      "hit": false,
      "t": 17872.593770833326,
      "d": 631.0095312500016,
      "v": 84
    },
    {
      "midi": 41,
      "hit": false,
      "t": 18449.516770833325,
      "d": 3557.691833333334,
      "v": 109
    },
    {
      "midi": 58,
      "hit": false,
      "t": 18461.535999999993,
      "d": 1442.307499999999,
      "v": 93
    },
    {
      "midi": 50,
      "hit": false,
      "t": 19032.44938541666,
      "d": 3034.855364583331,
      "v": 96
    },
    {
      "midi": 53,
      "hit": false,
      "t": 19609.37238541666,
      "d": 1153.8459999999977,
      "v": 94
    },
    {
      "midi": 58,
      "hit": false,
      "t": 20192.304999999993,
      "d": 1730.7690000000002,
      "v": 89
    },
    {
      "midi": 69,
      "hit": false,
      "t": 20763.218385416658,
      "d": 655.0479895833341,
      "v": 101
    },
    {
      "midi": 70,
      "hit": false,
      "t": 21346.15099999999,
      "d": 685.0960625000007,
      "v": 86
    },
    {
      "midi": 67,
      "hit": false,
      "t": 21923.073999999993,
      "d": 679.0864479166667,
      "v": 107
    },
    {
      "midi": 52,
      "hit": false,
      "t": 21923.073999999993,
      "d": 1063.7017812500017,
      "v": 93
    },
    {
      "midi": 69,
      "hit": false,
      "t": 22506.006614583326,
      "d": 516.8268541666694,
      "v": 93
    },
    {
      "midi": 57,
      "hit": false,
      "t": 23076.919999999995,
      "d": 1442.3075000000026,
      "v": 93
    },
    {
      "midi": 41,
      "hit": false,
      "t": 23076.919999999995,
      "d": 4465.143635416669,
      "v": 111
    },
    {
      "midi": 48,
      "hit": false,
      "t": 23647.833385416663,
      "d": 4164.66290625,
      "v": 101
    },
    {
      "midi": 55,
      "hit": false,
      "t": 24230.765999999996,
      "d": 3918.268708333333,
      "v": 99
    },
    {
      "midi": 57,
      "hit": false,
      "t": 24807.689,
      "d": 1225.961374999999,
      "v": 107
    },
    {
      "midi": 60,
      "hit": false,
      "t": 25955.525385416666,
      "d": 673.0768333333326,
      "v": 84
    },
    {
      "midi": 64,
      "hit": false,
      "t": 26538.458,
      "d": 606.9710729166654,
      "v": 109
    },
    {
      "midi": 65,
      "hit": false,
      "t": 27115.380999999998,
      "d": 618.9903020833335,
      "v": 89
    },
    {
      "midi": 58,
      "hit": false,
      "t": 27692.303999999996,
      "d": 1442.307499999999,
      "v": 93
    },
    {
      "midi": 41,
      "hit": false,
      "t": 27692.303999999996,
      "d": 3449.5187708333324,
      "v": 102
    },
    {
      "midi": 50,
      "hit": false,
      "t": 28269.226999999995,
      "d": 2956.730375000003,
      "v": 93
    },
    {
      "midi": 53,
      "hit": false,
      "t": 28846.149999999994,
      "d": 1153.8460000000014,
      "v": 91
    },
    {
      "midi": 58,
      "hit": false,
      "t": 29423.072999999997,
      "d": 1923.0766666666677,
      "v": 103
    },
    {
      "midi": 69,
      "hit": false,
      "t": 29999.995999999996,
      "d": 697.1152916666651,
      "v": 104
    },
    {
      "midi": 70,
      "hit": false,
      "t": 30576.918999999994,
      "d": 691.1056770833384,
      "v": 82
    },
    {
      "midi": 67,
      "hit": false,
      "t": 31153.841999999997,
      "d": 679.0864479166703,
      "v": 99
    },
    {
      "midi": 52,
      "hit": false,
      "t": 31153.841999999997,
      "d": 1243.9902187500047,
      "v": 99
    },
    {
      "midi": 69,
      "hit": false,
      "t": 31730.765,
      "d": 594.951843750001,
      "v": 86
    },
    {
      "midi": 57,
      "hit": false,
      "t": 32307.688000000002,
      "d": 1442.3075000000026,
      "v": 93
    },
    {
      "midi": 41,
      "hit": false,
      "t": 32307.688000000002,
      "d": 4290.864812499996,
      "v": 99
    },
    {
      "midi": 48,
      "hit": false,
      "t": 32884.611000000004,
      "d": 3972.355239583332,
      "v": 99
    },
    {
      "midi": 55,
      "hit": false,
      "t": 33461.53400000001,
      "d": 3371.3937812499935,
      "v": 101
    },
    {
      "midi": 57,
      "hit": false,
      "t": 34038.457,
      "d": 1207.9325312500005,
      "v": 99
    },
    {
      "midi": 60,
      "hit": false,
      "t": 35186.29338541667,
      "d": 655.0479895833341,
      "v": 89
    },
    {
      "midi": 64,
      "hit": false,
      "t": 35763.21638541667,
      "d": 576.9229999999952,
      "v": 101
    },
    {
      "midi": 65,
      "hit": false,
      "t": 36334.12977083334,
      "d": 631.0095312500052,
      "v": 84
    },
    {
      "midi": 41,
      "hit": false,
      "t": 36911.05277083334,
      "d": 3557.691833333338,
      "v": 99
    },
    {
      "midi": 58,
      "hit": false,
      "t": 36923.07200000001,
      "d": 1442.3075000000026,
      "v": 93
    },
    {
      "midi": 50,
      "hit": false,
      "t": 37493.98538541667,
      "d": 3034.855364583338,
      "v": 96
    },
    {
      "midi": 53,
      "hit": false,
      "t": 38070.908385416675,
      "d": 1153.8459999999977,
      "v": 84
    },
    {
      "midi": 58,
      "hit": false,
      "t": 38653.84100000001,
      "d": 1730.7690000000002,
      "v": 93
    },
    {
      "midi": 69,
      "hit": false,
      "t": 39224.75438541667,
      "d": 655.0479895833341,
      "v": 101
    },
    {
      "midi": 70,
      "hit": false,
      "t": 39807.687000000005,
      "d": 685.096062500008,
      "v": 86
    },
    {
      "midi": 67,
      "hit": false,
      "t": 40384.61000000001,
      "d": 679.086447916663,
      "v": 107
    },
    {
      "midi": 52,
      "hit": false,
      "t": 40384.61000000001,
      "d": 1063.701781249998,
      "v": 93
    },
    {
      "midi": 69,
      "hit": false,
      "t": 40967.54261458334,
      "d": 516.8268541666621,
      "v": 83
    },
    {
      "midi": 57,
      "hit": false,
      "t": 41538.456000000006,
      "d": 1442.3075000000026,
      "v": 93
    },
    {
      "midi": 41,
      "hit": false,
      "t": 41538.456000000006,
      "d": 3990.384083333345,
      "v": 102
    },
    {
      "midi": 48,
      "hit": false,
      "t": 42109.36938541667,
      "d": 3383.4130104166834,
      "v": 90
    },
    {
      "midi": 55,
      "hit": false,
      "t": 42686.29238541667,
      "d": 649.0383750000037,
      "v": 104
    },
    {
      "midi": 57,
      "hit": false,
      "t": 43263.215385416675,
      "d": 679.0864479166703,
      "v": 90
    },
    {
      "midi": 65,
      "hit": false,
      "t": 43840.13838541668,
      "d": 631.0095312500052,
      "v": 103
    },
    {
      "midi": 67,
      "hit": false,
      "t": 44417.06138541668,
      "d": 649.0383750000037,
      "v": 75
    },
    {
      "midi": 69,
      "hit": false,
      "t": 44993.98438541668,
      "d": 612.9806874999995,
      "v": 100
    },
    {
      "midi": 70,
      "hit": false,
      "t": 45570.907385416685,
      "d": 504.807624999994,
      "v": 74
    },
    {
      "midi": 48,
      "hit": false,
      "t": 45576.917000000016,
      "d": 492.7883958333332,
      "v": 89
    },
    {
      "midi": 45,
      "hit": false,
      "t": 46153.84000000001,
      "d": 4044.470614583326,
      "v": 86
    },
    {
      "midi": 67,
      "hit": false,
      "t": 46153.84000000001,
      "d": 4519.230166666661,
      "v": 93
    },
    {
      "midi": 72,
      "hit": false,
      "t": 46153.84000000001,
      "d": 4519.230166666661,
      "v": 96
    },
    {
      "midi": 55,
      "hit": false,
      "t": 46730.76300000001,
      "d": 522.8364687499998,
      "v": 90
    },
    {
      "midi": 53,
      "hit": false,
      "t": 47307.686000000016,
      "d": 655.0479895833341,
      "v": 86
    },
    {
      "midi": 55,
      "hit": false,
      "t": 47884.60900000002,
      "d": 655.0479895833269,
      "v": 83
    },
    {
      "midi": 60,
      "hit": false,
      "t": 48461.532000000014,
      "d": 1015.6248645833257,
      "v": 96
    },
    {
      "midi": 53,
      "hit": false,
      "t": 49038.45500000001,
      "d": 618.9903020833299,
      "v": 73
    },
    {
      "midi": 60,
      "hit": false,
      "t": 49615.378000000004,
      "d": 624.9999166666676,
      "v": 101
    },
    {
      "midi": 55,
      "hit": false,
      "t": 50192.30100000001,
      "d": 534.8556979166679,
      "v": 79
    },
    {
      "midi": 62,
      "hit": false,
      "t": 50769.22400000001,
      "d": 2205.528552083335,
      "v": 93
    },
    {
      "midi": 46,
      "hit": false,
      "t": 50769.22400000001,
      "d": 4615.383999999998,
      "v": 91
    },
    {
      "midi": 53,
      "hit": false,
      "t": 51340.137385416674,
      "d": 1009.6152500000026,
      "v": 76
    },
    {
      "midi": 58,
      "hit": false,
      "t": 51917.06038541668,
      "d": 1123.7979270833312,
      "v": 84
    },
    {
      "midi": 53,
      "hit": false,
      "t": 52499.99300000001,
      "d": 655.0479895833269,
      "v": 79
    },
    {
      "midi": 58,
      "hit": false,
      "t": 53076.916000000005,
      "d": 1099.7594687500023,
      "v": 101
    },
    {
      "midi": 62,
      "hit": false,
      "t": 53076.916000000005,
      "d": 2289.6631562500042,
      "v": 93
    },
    {
      "midi": 65,
      "hit": false,
      "t": 53076.916000000005,
      "d": 2289.6631562500042,
      "v": 107
    },
    {
      "midi": 53,
      "hit": false,
      "t": 53659.84861458334,
      "d": 991.5864062500041,
      "v": 74
    },
    {
      "midi": 58,
      "hit": false,
      "t": 54236.77161458334,
      "d": 1069.7113958333357,
      "v": 86
    },
    {
      "midi": 53,
      "hit": false,
      "t": 54813.69461458334,
      "d": 492.7883958333332,
      "v": 73
    },
    {
      "midi": 58,
      "hit": false,
      "t": 55384.60800000001,
      "d": 1033.6537083333315,
      "v": 101
    },
    {
      "midi": 62,
      "hit": false,
      "t": 55384.60800000001,
      "d": 2169.4708645833307,
      "v": 107
    },
    {
      "midi": 48,
      "hit": false,
      "t": 55384.60800000001,
      "d": 4615.383999999991,
      "v": 101
    },
    {
      "midi": 53,
      "hit": false,
      "t": 55955.52138541667,
      "d": 1670.672854166667,
      "v": 76
    },
    {
      "midi": 58,
      "hit": false,
      "t": 56532.444385416675,
      "d": 588.9422291666633,
      "v": 101
    },
    {
      "midi": 60,
      "hit": false,
      "t": 57115.37700000001,
      "d": 570.9133854166648,
      "v": 101
    },
    {
      "midi": 58,
      "hit": false,
      "t": 57692.3,
      "d": 1141.8267708333296,
      "v": 99
    },
    {
      "midi": 62,
      "hit": false,
      "t": 57692.3,
      "d": 1171.8748437499962,
      "v": 96
    },
    {
      "midi": 65,
      "hit": false,
      "t": 57692.3,
      "d": 1207.9325312499932,
      "v": 107
    },
    {
      "midi": 60,
      "hit": false,
      "t": 58846.146,
      "d": 1099.759468749995,
      "v": 99
    },
    {
      "midi": 64,
      "hit": false,
      "t": 58846.146,
      "d": 1111.778697916663,
      "v": 96
    },
    {
      "midi": 55,
      "hit": false,
      "t": 58852.15561458333,
      "d": 1069.7113958333284,
      "v": 96
    },
    {
      "midi": 57,
      "hit": false,
      "t": 59999.992,
      "d": 474.7595520833347,
      "v": 86
    },
    {
      "midi": 50,
      "hit": false,
      "t": 59999.992,
      "d": 2794.4707812500055,
      "v": 90
    },
    {
      "midi": 66,
      "hit": false,
      "t": 59999.992,
      "d": 4639.422458333334,
      "v": 99
    },
    {
      "midi": 57,
      "hit": false,
      "t": 60570.90538541666,
      "d": 739.1825937500034,
      "v": 70
    },
    {
      "midi": 54,
      "hit": false,
      "t": 61147.828385416666,
      "d": 1688.7016979166729,
      "v": 112
    },
    {
      "midi": 57,
      "hit": false,
      "t": 61724.75138541667,
      "d": 1868.990135416665,
      "v": 83
    },
    {
      "midi": 62,
      "hit": false,
      "t": 62307.684,
      "d": 1724.7593854166626,
      "v": 99
    },
    {
      "midi": 50,
      "hit": false,
      "t": 62884.607,
      "d": 1580.52863541666,
      "v": 93
    },
    {
      "midi": 54,
      "hit": false,
      "t": 63455.52038541667,
      "d": 955.5287187499925,
      "v": 96
    },
    {
      "midi": 57,
      "hit": false,
      "t": 64032.443385416664,
      "d": 570.9133854166648,
      "v": 93
    },
    {
      "midi": 59,
      "hit": false,
      "t": 64615.376,
      "d": 1694.711312499996,
      "v": 93
    },
    {
      "midi": 50,
      "hit": false,
      "t": 64615.376,
      "d": 3593.749520833335,
      "v": 86
    },
    {
      "midi": 67,
      "hit": false,
      "t": 64615.376,
      "d": 4609.37438541669,
      "v": 99
    },
    {
      "midi": 55,
      "hit": false,
      "t": 65192.299,
      "d": 1183.8940729166643,
      "v": 74
    },
    {
      "midi": 57,
      "hit": false,
      "t": 65769.222,
      "d": 739.1825937499962,
      "v": 107
    },
    {
      "midi": 62,
      "hit": false,
      "t": 66340.13538541667,
      "d": 600.9614583333314,
      "v": 86
    },
    {
      "midi": 61,
      "hit": false,
      "t": 66917.05838541666,
      "d": 829.3268125000031,
      "v": 101
    },
    {
      "midi": 57,
      "hit": false,
      "t": 67782.44288541666,
      "d": 667.0672187500168,
      "v": 93
    },
    {
      "midi": 50,
      "hit": false,
      "t": 68359.36588541667,
      "d": 570.9133854166721,
      "v": 78
    },
    {
      "midi": 45,
      "hit": false,
      "t": 68936.28888541668,
      "d": 282.4518854166672,
      "v": 90
    },
    {
      "midi": 66,
      "hit": false,
      "t": 69230.76000000002,
      "d": 1015.6248645833402,
      "v": 96
    },
    {
      "midi": 62,
      "hit": false,
      "t": 69230.76000000002,
      "d": 1045.672937500014,
      "v": 93
    },
    {
      "midi": 50,
      "hit": false,
      "t": 69230.76000000002,
      "d": 2217.5477812500176,
      "v": 83
    },
    {
      "midi": 57,
      "hit": false,
      "t": 69801.6733854167,
      "d": 745.1922083333484,
      "v": 65
    },
    {
      "midi": 66,
      "hit": false,
      "t": 70378.5963854167,
      "d": 1003.6056354166649,
      "v": 101
    },
    {
      "midi": 62,
      "hit": false,
      "t": 70384.60600000004,
      "d": 1033.6537083333242,
      "v": 101
    },
    {
      "midi": 57,
      "hit": false,
      "t": 70961.52900000004,
      "d": 667.0672187500168,
      "v": 70
    },
    {
      "midi": 62,
      "hit": false,
      "t": 71538.45200000005,
      "d": 991.5864062500041,
      "v": 101
    },
    {
      "midi": 66,
      "hit": false,
      "t": 71538.45200000005,
      "d": 991.5864062500041,
      "v": 101
    },
    {
      "midi": 50,
      "hit": false,
      "t": 71538.45200000005,
      "d": 1616.5863229166862,
      "v": 93
    },
    {
      "midi": 57,
      "hit": false,
      "t": 72115.37500000006,
      "d": 564.9037708333344,
      "v": 78
    },
    {
      "midi": 64,
      "hit": false,
      "t": 72686.28838541673,
      "d": 462.7403229166666,
      "v": 93
    },
    {
      "midi": 62,
      "hit": false,
      "t": 72686.28838541673,
      "d": 468.7499375000043,
      "v": 99
    },
    {
      "midi": 69,
      "hit": false,
      "t": 72686.28838541673,
      "d": 606.9710729166691,
      "v": 104
    },
    {
      "midi": 57,
      "hit": false,
      "t": 73269.22100000006,
      "d": 540.8653124999983,
      "v": 83
    },
    {
      "midi": 50,
      "hit": false,
      "t": 73269.22100000006,
      "d": 546.8749270833359,
      "v": 70
    },
    {
      "midi": 62,
      "hit": false,
      "t": 73269.22100000006,
      "d": 546.8749270833359,
      "v": 99
    },
    {
      "midi": 64,
      "hit": false,
      "t": 73269.22100000006,
      "d": 558.8941562499967,
      "v": 83
    },
    {
      "midi": 60,
      "hit": false,
      "t": 73846.14400000006,
      "d": 1021.6344791666634,
      "v": 99
    },
    {
      "midi": 62,
      "hit": false,
      "t": 73846.14400000006,
      "d": 1039.6633229166619,
      "v": 93
    },
    {
      "midi": 67,
      "hit": false,
      "t": 73846.14400000006,
      "d": 2061.29780208334,
      "v": 114
    },
    {
      "midi": 50,
      "hit": false,
      "t": 73846.14400000006,
      "d": 2139.4227916666714,
      "v": 107
    },
    {
      "midi": 55,
      "hit": false,
      "t": 74423.06700000005,
      "d": 570.9133854166721,
      "v": 93
    },
    {
      "midi": 60,
      "hit": false,
      "t": 74999.99000000006,
      "d": 1039.6633229166619,
      "v": 99
    },
    {
      "midi": 55,
      "hit": false,
      "t": 75570.90338541674,
      "d": 540.8653124999837,
      "v": 104
    },
    {
      "midi": 62,
      "hit": false,
      "t": 76153.83600000005,
      "d": 973.5575625000056,
      "v": 107
    },
    {
      "midi": 67,
      "hit": false,
      "t": 76153.83600000005,
      "d": 1003.6056354166794,
      "v": 99
    },
    {
      "midi": 60,
      "hit": false,
      "t": 76153.83600000005,
      "d": 1027.6440937500156,
      "v": 104
    },
    {
      "midi": 50,
      "hit": false,
      "t": 76153.83600000005,
      "d": 1123.7979270833457,
      "v": 99
    },
    {
      "midi": 57,
      "hit": false,
      "t": 77301.67238541674,
      "d": 1111.7786979166704,
      "v": 83
    },
    {
      "midi": 66,
      "hit": false,
      "t": 77301.67238541674,
      "d": 1123.7979270833312,
      "v": 86
    },
    {
      "midi": 54,
      "hit": false,
      "t": 77301.67238541674,
      "d": 1159.8556145833281,
      "v": 107
    },
    {
      "midi": 62,
      "hit": false,
      "t": 77307.68200000007,
      "d": 1099.759468749995,
      "v": 109
    },
    {
      "midi": 62,
      "hit": false,
      "t": 78461.52800000006,
      "d": 685.0960625000007,
      "v": 90
    },
    {
      "midi": 55,
      "hit": false,
      "t": 78461.52800000006,
      "d": 1850.961291666681,
      "v": 101
    },
    {
      "midi": 69,
      "hit": false,
      "t": 78461.52800000006,
      "d": 2163.461250000022,
      "v": 107
    },
    {
      "midi": 66,
      "hit": false,
      "t": 78461.52800000006,
      "d": 2193.509322916696,
      "v": 112
    },
    {
      "midi": 59,
      "hit": false,
      "t": 79038.45100000006,
      "d": 643.0287604166806,
      "v": 93
    },
    {
      "midi": 62,
      "hit": false,
      "t": 79615.37400000007,
      "d": 961.5383333333448,
      "v": 104
    },
    {
      "midi": 59,
      "hit": false,
      "t": 80192.29700000008,
      "d": 534.8556979166751,
      "v": 101
    },
    {
      "midi": 69,
      "hit": false,
      "t": 80769.22000000009,
      "d": 991.5864062500041,
      "v": 104
    },
    {
      "midi": 62,
      "hit": false,
      "t": 80769.22000000009,
      "d": 1003.6056354166649,
      "v": 101
    },
    {
      "midi": 66,
      "hit": false,
      "t": 80769.22000000009,
      "d": 1015.6248645833257,
      "v": 74
    },
    {
      "midi": 55,
      "hit": false,
      "t": 80769.22000000009,
      "d": 1165.8652291666513,
      "v": 83
    },
    {
      "midi": 69,
      "hit": false,
      "t": 81923.06600000008,
      "d": 955.5287187499925,
      "v": 104
    },
    {
      "midi": 61,
      "hit": false,
      "t": 81923.06600000008,
      "d": 1009.615249999988,
      "v": 102
    },
    {
      "midi": 54,
      "hit": false,
      "t": 81923.06600000008,
      "d": 1027.6440937499865,
      "v": 101
    },
    {
      "midi": 64,
      "hit": false,
      "t": 81923.06600000008,
      "d": 1069.7113958333211,
      "v": 107
    },
    {
      "midi": 59,
      "hit": false,
      "t": 83070.90238541673,
      "d": 2109.3747187499976,
      "v": 90
    },
    {
      "midi": 62,
      "hit": false,
      "t": 83070.90238541673,
      "d": 2151.442020833332,
      "v": 101
    },
    {
      "midi": 67,
      "hit": false,
      "t": 83070.90238541673,
      "d": 2199.5189375000045,
      "v": 109
    },
    {
      "midi": 52,
      "hit": false,
      "t": 83076.91200000007,
      "d": 2091.345874999999,
      "v": 93
    },
    {
      "midi": 62,
      "hit": false,
      "t": 85378.59438541674,
      "d": 979.5671770833287,
      "v": 107
    },
    {
      "midi": 57,
      "hit": false,
      "t": 85378.59438541674,
      "d": 997.5960208333272,
      "v": 99
    },
    {
      "midi": 66,
      "hit": false,
      "t": 85378.59438541674,
      "d": 1081.7306249999965,
      "v": 101
    },
    {
      "midi": 45,
      "hit": false,
      "t": 85378.59438541674,
      "d": 2307.6919999999955,
      "v": 101
    },
    {
      "midi": 33,
      "hit": false,
      "t": 86538.45000000007,
      "d": 1039.6633229166619,
      "v": 78
    },
    {
      "midi": 57,
      "hit": false,
      "t": 86538.45000000007,
      "d": 1039.6633229166619,
      "v": 86
    },
    {
      "midi": 61,
      "hit": false,
      "t": 86538.45000000007,
      "d": 1057.6921666666603,
      "v": 99
    },
    {
      "midi": 64,
      "hit": false,
      "t": 86538.45000000007,
      "d": 1057.6921666666603,
      "v": 101
    },
    {
      "midi": 50,
      "hit": false,
      "t": 87692.29600000007,
      "d": 1574.519020833337,
      "v": 83
    },
    {
      "midi": 66,
      "hit": false,
      "t": 87692.29600000007,
      "d": 4326.922500000001,
      "v": 101
    },
    {
      "midi": 62,
      "hit": false,
      "t": 87692.29600000007,
      "d": 5030.04740625,
      "v": 90
    },
    {
      "midi": 57,
      "hit": false,
      "t": 88840.13238541674,
      "d": 3461.5380000000005,
      "v": 114
    },
    {
      "midi": 50,
      "hit": false,
      "t": 89417.05538541675,
      "d": 4549.27823958332,
      "v": 114
    },
    {
      "midi": 78,
      "hit": false,
      "t": 89993.97838541675,
      "d": 522.8364687499998,
      "v": 104
    },
    {
      "midi": 69,
      "hit": false,
      "t": 89993.97838541675,
      "d": 534.8556979166606,
      "v": 99
    },
    {
      "midi": 71,
      "hit": false,
      "t": 90570.90138541674,
      "d": 624.9999166666676,
      "v": 93
    },
    {
      "midi": 79,
      "hit": false,
      "t": 90570.90138541674,
      "d": 715.1441354166745,
      "v": 109
    },
    {
      "midi": 67,
      "hit": false,
      "t": 91147.82438541674,
      "d": 570.9133854166721,
      "v": 86
    },
    {
      "midi": 76,
      "hit": false,
      "t": 91147.82438541674,
      "d": 618.9903020833444,
      "v": 109
    },
    {
      "midi": 69,
      "hit": false,
      "t": 91724.74738541675,
      "d": 570.9133854166575,
      "v": 90
    },
    {
      "midi": 78,
      "hit": false,
      "t": 91724.74738541675,
      "d": 624.9999166666676,
      "v": 107
    },
    {
      "midi": 66,
      "hit": false,
      "t": 92301.67038541674,
      "d": 3371.393781249979,
      "v": 96
    },
    {
      "midi": 74,
      "hit": false,
      "t": 92307.68000000008,
      "d": 4519.230166666646,
      "v": 99
    },
    {
      "midi": 62,
      "hit": false,
      "t": 92878.59338541674,
      "d": 1658.6536249999917,
      "v": 70
    },
    {
      "midi": 69,
      "hit": false,
      "t": 93461.52600000007,
      "d": 2127.4035624999815,
      "v": 114
    },
    {
      "midi": 50,
      "hit": false,
      "t": 94038.44900000007,
      "d": 2229.567010416664,
      "v": 94
    },
    {
      "midi": 62,
      "hit": false,
      "t": 94639.4104583334,
      "d": 637.0191458333284,
      "v": 109
    },
    {
      "midi": 64,
      "hit": false,
      "t": 95222.34307291673,
      "d": 715.14413541666,
      "v": 86
    },
    {
      "midi": 69,
      "hit": false,
      "t": 95769.21800000005,
      "d": 1057.692166666675,
      "v": 101
    },
    {
      "midi": 66,
      "hit": false,
      "t": 95793.25645833339,
      "d": 637.0191458333429,
      "v": 101
    },
    {
      "midi": 62,
      "hit": false,
      "t": 96346.14100000006,
      "d": 564.9037708333344,
      "v": 90
    },
    {
      "midi": 50,
      "hit": false,
      "t": 96346.14100000006,
      "d": 582.9326145833329,
      "v": 114
    },
    {
      "midi": 67,
      "hit": false,
      "t": 96382.19868750006,
      "d": 540.8653124999983,
      "v": 93
    },
    {
      "midi": 49,
      "hit": false,
      "t": 96923.06400000006,
      "d": 1664.6632395833294,
      "v": 112
    },
    {
      "midi": 64,
      "hit": false,
      "t": 96923.06400000006,
      "d": 3311.297635416675,
      "v": 101
    },
    {
      "midi": 69,
      "hit": false,
      "t": 96923.06400000006,
      "d": 3317.3072500000126,
      "v": 83
    },
    {
      "midi": 54,
      "hit": false,
      "t": 97493.97738541673,
      "d": 2217.547781250003,
      "v": 101
    },
    {
      "midi": 57,
      "hit": false,
      "t": 98070.90038541672,
      "d": 2199.518937500019,
      "v": 109
    },
    {
      "midi": 49,
      "hit": false,
      "t": 98653.83300000006,
      "d": 468.7499375000043,
      "v": 101
    },
    {
      "midi": 49,
      "hit": false,
      "t": 99224.74638541673,
      "d": 1580.5286354166892,
      "v": 101
    },
    {
      "midi": 54,
      "hit": false,
      "t": 99807.67900000006,
      "d": 1676.6824687500339,
      "v": 70
    },
    {
      "midi": 69,
      "hit": false,
      "t": 100378.59238541675,
      "d": 1063.7017812500126,
      "v": 93
    },
    {
      "midi": 64,
      "hit": false,
      "t": 100378.59238541675,
      "d": 1105.7690833333472,
      "v": 101
    },
    {
      "midi": 57,
      "hit": false,
      "t": 100384.60200000009,
      "d": 1153.8460000000196,
      "v": 101
    },
    {
      "midi": 49,
      "hit": false,
      "t": 100955.51538541676,
      "d": 528.8460833333374,
      "v": 99
    },
    {
      "midi": 50,
      "hit": false,
      "t": 101532.43838541677,
      "d": 1658.6536250000063,
      "v": 90
    },
    {
      "midi": 62,
      "hit": false,
      "t": 101538.4480000001,
      "d": 3281.2495624999865,
      "v": 78
    },
    {
      "midi": 69,
      "hit": false,
      "t": 101538.4480000001,
      "d": 3341.3457083333196,
      "v": 96
    },
    {
      "midi": 55,
      "hit": false,
      "t": 102109.36138541678,
      "d": 1965.1439687499806,
      "v": 90
    },
    {
      "midi": 59,
      "hit": false,
      "t": 102686.28438541677,
      "d": 2229.5670104166493,
      "v": 90
    },
    {
      "midi": 50,
      "hit": false,
      "t": 103269.2170000001,
      "d": 438.70186458333046,
      "v": 70
    },
    {
      "midi": 50,
      "hit": false,
      "t": 103840.13038541676,
      "d": 1634.6151666666556,
      "v": 96
    },
    {
      "midi": 55,
      "hit": false,
      "t": 104423.0630000001,
      "d": 1688.701697916651,
      "v": 86
    },
    {
      "midi": 69,
      "hit": false,
      "t": 104993.97638541675,
      "d": 1135.817156249992,
      "v": 101
    },
    {
      "midi": 62,
      "hit": false,
      "t": 104993.97638541675,
      "d": 1147.8363854166528,
      "v": 96
    },
    {
      "midi": 59,
      "hit": false,
      "t": 104999.98600000009,
      "d": 1147.8363854166528,
      "v": 99
    },
    {
      "midi": 50,
      "hit": false,
      "t": 105570.89938541675,
      "d": 582.9326145833329,
      "v": 74
    },
    {
      "midi": 49,
      "hit": false,
      "t": 106153.83200000008,
      "d": 1664.6632395833294,
      "v": 112
    },
    {
      "midi": 64,
      "hit": false,
      "t": 106153.83200000008,
      "d": 3311.297635416675,
      "v": 101
    },
    {
      "midi": 69,
      "hit": false,
      "t": 106153.83200000008,
      "d": 3317.3072500000126,
      "v": 83
    },
    {
      "midi": 54,
      "hit": false,
      "t": 106724.74538541675,
      "d": 2217.547781250003,
      "v": 101
    },
    {
      "midi": 57,
      "hit": false,
      "t": 107301.66838541675,
      "d": 2199.518937500019,
      "v": 109
    },
    {
      "midi": 49,
      "hit": false,
      "t": 107884.60100000008,
      "d": 468.7499375000043,
      "v": 101
    },
    {
      "midi": 49,
      "hit": false,
      "t": 108455.51438541675,
      "d": 1580.5286354166892,
      "v": 101
    },
    {
      "midi": 54,
      "hit": false,
      "t": 109038.44700000009,
      "d": 1676.6824687500339,
      "v": 70
    },
    {
      "midi": 69,
      "hit": false,
      "t": 109609.36038541677,
      "d": 1063.7017812500126,
      "v": 93
    },
    {
      "midi": 64,
      "hit": false,
      "t": 109609.36038541677,
      "d": 1105.7690833333472,
      "v": 101
    },
    {
      "midi": 57,
      "hit": false,
      "t": 109615.37000000011,
      "d": 1153.8460000000196,
      "v": 101
    },
    {
      "midi": 49,
      "hit": false,
      "t": 110186.28338541678,
      "d": 528.8460833333374,
      "v": 99
    },
    {
      "midi": 50,
      "hit": false,
      "t": 110763.2063854168,
      "d": 1658.6536250000063,
      "v": 90
    },
    {
      "midi": 62,
      "hit": false,
      "t": 110769.21600000013,
      "d": 3281.2495624999865,
      "v": 78
    },
    {
      "midi": 69,
      "hit": false,
      "t": 110769.21600000013,
      "d": 3341.3457083333196,
      "v": 96
    },
    {
      "midi": 55,
      "hit": false,
      "t": 111340.1293854168,
      "d": 1965.1439687499806,
      "v": 90
    },
    {
      "midi": 59,
      "hit": false,
      "t": 111917.0523854168,
      "d": 2229.5670104166493,
      "v": 90
    },
    {
      "midi": 50,
      "hit": false,
      "t": 112499.98500000013,
      "d": 438.70186458333046,
      "v": 70
    },
    {
      "midi": 50,
      "hit": false,
      "t": 113070.89838541679,
      "d": 1634.6151666666556,
      "v": 96
    },
    {
      "midi": 55,
      "hit": false,
      "t": 113653.83100000012,
      "d": 1688.701697916651,
      "v": 86
    },
    {
      "midi": 69,
      "hit": false,
      "t": 114224.74438541678,
      "d": 1135.817156249992,
      "v": 101
    },
    {
      "midi": 62,
      "hit": false,
      "t": 114224.74438541678,
      "d": 1147.8363854166528,
      "v": 96
    },
    {
      "midi": 59,
      "hit": false,
      "t": 114230.75400000012,
      "d": 1147.8363854166528,
      "v": 99
    },
    {
      "midi": 50,
      "hit": false,
      "t": 114801.66738541677,
      "d": 582.9326145833329,
      "v": 74
    },
    {
      "midi": 49,
      "hit": false,
      "t": 115384.60000000011,
      "d": 1628.605552083347,
      "v": 116
    },
    {
      "midi": 69,
      "hit": false,
      "t": 115384.60000000011,
      "d": 3305.2880208333663,
      "v": 101
    },
    {
      "midi": 64,
      "hit": false,
      "t": 115384.60000000011,
      "d": 3341.3457083333633,
      "v": 114
    },
    {
      "midi": 54,
      "hit": false,
      "t": 115955.51338541678,
      "d": 2223.5573958333553,
      "v": 90
    },
    {
      "midi": 57,
      "hit": false,
      "t": 116526.42677083345,
      "d": 2241.5862395833537,
      "v": 104
    },
    {
      "midi": 49,
      "hit": false,
      "t": 117115.36900000012,
      "d": 450.7210937500058,
      "v": 90
    },
    {
      "midi": 49,
      "hit": false,
      "t": 117686.2823854168,
      "d": 1556.4901770833385,
      "v": 101
    },
    {
      "midi": 54,
      "hit": false,
      "t": 118269.21500000014,
      "d": 1646.6343958333164,
      "v": 101
    },
    {
      "midi": 69,
      "hit": false,
      "t": 118840.1283854168,
      "d": 991.5864062499895,
      "v": 101
    },
    {
      "midi": 64,
      "hit": false,
      "t": 118840.1283854168,
      "d": 1105.7690833333327,
      "v": 104
    },
    {
      "midi": 57,
      "hit": false,
      "t": 118846.13800000014,
      "d": 1177.8844583333412,
      "v": 99
    },
    {
      "midi": 49,
      "hit": false,
      "t": 119417.0513854168,
      "d": 528.8460833333374,
      "v": 65
    },
    {
      "midi": 47,
      "hit": false,
      "t": 119993.9743854168,
      "d": 2157.4516354166844,
      "v": 107
    },
    {
      "midi": 62,
      "hit": false,
      "t": 119999.98400000014,
      "d": 1147.8363854166673,
      "v": 114
    },
    {
      "midi": 69,
      "hit": false,
      "t": 119999.98400000014,
      "d": 2271.634312500013,
      "v": 109
    },
    {
      "midi": 54,
      "hit": false,
      "t": 120570.89738541681,
      "d": 985.5767916666664,
      "v": 78
    },
    {
      "midi": 62,
      "hit": false,
      "t": 121147.82038541681,
      "d": 3467.5476145833964,
      "v": 90
    },
    {
      "midi": 54,
      "hit": false,
      "t": 121724.74338541682,
      "d": 2896.6342291667243,
      "v": 78
    },
    {
      "midi": 47,
      "hit": false,
      "t": 122301.66638541683,
      "d": 2313.701614583377,
      "v": 90
    },
    {
      "midi": 74,
      "hit": false,
      "t": 122307.67600000017,
      "d": 510.81723958333896,
      "v": 101
    },
    {
      "midi": 66,
      "hit": false,
      "t": 122307.67600000017,
      "d": 570.9133854166721,
      "v": 96
    },
    {
      "midi": 67,
      "hit": false,
      "t": 122878.58938541684,
      "d": 594.9518437500083,
      "v": 99
    },
    {
      "midi": 76,
      "hit": false,
      "t": 122878.58938541684,
      "d": 600.961458333346,
      "v": 86
    },
    {
      "midi": 78,
      "hit": false,
      "t": 123449.50277083351,
      "d": 624.9999166666821,
      "v": 112
    },
    {
      "midi": 69,
      "hit": false,
      "t": 123455.51238541685,
      "d": 612.9806875000068,
      "v": 107
    },
    {
      "midi": 74,
      "hit": false,
      "t": 124032.43538541686,
      "d": 534.8556979166751,
      "v": 93
    },
    {
      "midi": 66,
      "hit": false,
      "t": 124032.43538541686,
      "d": 552.8845416666736,
      "v": 114
    },
    {
      "midi": 48,
      "hit": false,
      "t": 124615.3680000002,
      "d": 2217.5477812500176,
      "v": 114
    },
    {
      "midi": 67,
      "hit": false,
      "t": 124615.3680000002,
      "d": 2331.7304583333607,
      "v": 119
    },
    {
      "midi": 76,
      "hit": false,
      "t": 124615.3680000002,
      "d": 2391.826604166694,
      "v": 109
    },
    {
      "midi": 55,
      "hit": false,
      "t": 125192.29100000022,
      "d": 949.5191041666694,
      "v": 86
    },
    {
      "midi": 60,
      "hit": false,
      "t": 125763.20438541689,
      "d": 1844.951677083358,
      "v": 101
    },
    {
      "midi": 55,
      "hit": false,
      "t": 126346.13700000022,
      "d": 1003.6056354166794,
      "v": 101
    },
    {
      "midi": 48,
      "hit": false,
      "t": 126917.0503854169,
      "d": 2121.3939479166875,
      "v": 93
    },
    {
      "midi": 71,
      "hit": false,
      "t": 126917.0503854169,
      "d": 2379.8073750000185,
      "v": 105
    },
    {
      "midi": 62,
      "hit": false,
      "t": 126923.06000000023,
      "d": 2313.7016145833477,
      "v": 96
    },
    {
      "midi": 55,
      "hit": false,
      "t": 127499.98300000024,
      "d": 811.2979687500047,
      "v": 99
    },
    {
      "midi": 59,
      "hit": false,
      "t": 128070.89638541691,
      "d": 606.9710729166691,
      "v": 107
    },
    {
      "midi": 55,
      "hit": false,
      "t": 128653.82900000025,
      "d": 1099.759468749995,
      "v": 96
    },
    {
      "midi": 45,
      "hit": false,
      "t": 129224.74238541692,
      "d": 2193.509322916667,
      "v": 114
    },
    {
      "midi": 59,
      "hit": false,
      "t": 129224.74238541692,
      "d": 2283.653541666674,
      "v": 114
    },
    {
      "midi": 67,
      "hit": false,
      "t": 129224.74238541692,
      "d": 2361.7785312500055,
      "v": 114
    },
    {
      "midi": 52,
      "hit": false,
      "t": 129807.67500000024,
      "d": 1003.6056354166649,
      "v": 83
    },
    {
      "midi": 57,
      "hit": false,
      "t": 130384.59800000023,
      "d": 2175.4804791666684,
      "v": 109
    },
    {
      "midi": 52,
      "hit": false,
      "t": 130961.52100000024,
      "d": 931.4902604166709,
      "v": 86
    },
    {
      "midi": 69,
      "hit": false,
      "t": 131532.4343854169,
      "d": 1069.7113958333211,
      "v": 101
    },
    {
      "midi": 45,
      "hit": false,
      "t": 131532.4343854169,
      "d": 1616.5863229166716,
      "v": 114
    },
    {
      "midi": 62,
      "hit": false,
      "t": 131538.44400000025,
      "d": 1111.7786979166558,
      "v": 101
    },
    {
      "midi": 52,
      "hit": false,
      "t": 132115.36700000023,
      "d": 1730.7690000000002,
      "v": 86
    },
    {
      "midi": 69,
      "hit": false,
      "t": 132692.29000000024,
      "d": 1081.7306249999965,
      "v": 104
    },
    {
      "midi": 61,
      "hit": false,
      "t": 132692.29000000024,
      "d": 1087.7402395833342,
      "v": 96
    },
    {
      "midi": 57,
      "hit": false,
      "t": 132692.29000000024,
      "d": 1153.8459999999905,
      "v": 99
    },
    {
      "midi": 45,
      "hit": false,
      "t": 133263.2033854169,
      "d": 582.9326145833184,
      "v": 107
    },
    {
      "midi": 62,
      "hit": false,
      "t": 133846.13600000023,
      "d": 1153.8460000000196,
      "v": 93
    },
    {
      "midi": 69,
      "hit": false,
      "t": 133846.13600000023,
      "d": 1622.5959375000384,
      "v": 114
    },
    {
      "midi": 50,
      "hit": false,
      "t": 133846.13600000023,
      "d": 2181.490093750035,
      "v": 109
    },
    {
      "midi": 57,
      "hit": false,
      "t": 134423.05900000024,
      "d": 1033.6537083333533,
      "v": 83
    },
    {
      "midi": 62,
      "hit": false,
      "t": 134999.98200000025,
      "d": 2175.4804791666975,
      "v": 93
    },
    {
      "midi": 69,
      "hit": false,
      "t": 135570.89538541692,
      "d": 492.7883958333405,
      "v": 93
    },
    {
      "midi": 57,
      "hit": false,
      "t": 135570.89538541692,
      "d": 955.5287187500217,
      "v": 104
    },
    {
      "midi": 69,
      "hit": false,
      "t": 136147.81838541693,
      "d": 1051.6825520833372,
      "v": 90
    },
    {
      "midi": 50,
      "hit": false,
      "t": 136147.81838541693,
      "d": 2199.51893749999,
      "v": 99
    },
    {
      "midi": 57,
      "hit": false,
      "t": 136724.74138541694,
      "d": 997.5960208333272,
      "v": 90
    },
    {
      "midi": 69,
      "hit": false,
      "t": 137301.66438541692,
      "d": 1274.0382916666567,
      "v": 99
    },
    {
      "midi": 62,
      "hit": false,
      "t": 137301.66438541692,
      "d": 1286.057520833332,
      "v": 101
    },
    {
      "midi": 57,
      "hit": false,
      "t": 137878.58738541693,
      "d": 667.0672187499877,
      "v": 99
    },
    {
      "midi": 67,
      "hit": false,
      "t": 138455.5103854169,
      "d": 1622.5959375000093,
      "v": 101
    },
    {
      "midi": 50,
      "hit": false,
      "t": 138455.5103854169,
      "d": 2241.5862395833246,
      "v": 93
    },
    {
      "midi": 55,
      "hit": false,
      "t": 139032.43338541692,
      "d": 919.4710312499956,
      "v": 83
    },
    {
      "midi": 59,
      "hit": false,
      "t": 139609.35638541693,
      "d": 2193.509322916623,
      "v": 107
    },
    {
      "midi": 62,
      "hit": false,
      "t": 140186.2793854169,
      "d": 474.75955208332743,
      "v": 93
    },
    {
      "midi": 67,
      "hit": false,
      "t": 140186.2793854169,
      "d": 486.7787812500028,
      "v": 104
    },
    {
      "midi": 55,
      "hit": false,
      "t": 140192.28900000025,
      "d": 799.2787395833002,
      "v": 90
    },
    {
      "midi": 62,
      "hit": false,
      "t": 140763.2023854169,
      "d": 1021.6344791666488,
      "v": 83
    },
    {
      "midi": 50,
      "hit": false,
      "t": 140763.2023854169,
      "d": 2223.5573958333116,
      "v": 104
    },
    {
      "midi": 67,
      "hit": false,
      "t": 140769.21200000023,
      "d": 1039.6633229166619,
      "v": 101
    },
    {
      "midi": 55,
      "hit": false,
      "t": 141346.1350000002,
      "d": 841.346041666664,
      "v": 90
    },
    {
      "midi": 59,
      "hit": false,
      "t": 141917.04838541689,
      "d": 1280.0479062499944,
      "v": 99
    },
    {
      "midi": 62,
      "hit": false,
      "t": 141923.05800000022,
      "d": 997.5960208333272,
      "v": 83
    },
    {
      "midi": 67,
      "hit": false,
      "t": 141923.05800000022,
      "d": 1063.7017812499835,
      "v": 101
    },
    {
      "midi": 55,
      "hit": false,
      "t": 142499.9810000002,
      "d": 643.028760416666,
      "v": 93
    },
    {
      "midi": 62,
      "hit": false,
      "t": 143070.89438541688,
      "d": 1153.8460000000196,
      "v": 93
    },
    {
      "midi": 50,
      "hit": false,
      "t": 143070.89438541688,
      "d": 2217.547781250032,
      "v": 90
    },
    {
      "midi": 69,
      "hit": false,
      "t": 143076.9040000002,
      "d": 1616.5863229167007,
      "v": 104
    },
    {
      "midi": 57,
      "hit": false,
      "t": 143647.81738541689,
      "d": 985.576791666681,
      "v": 74
    },
    {
      "midi": 62,
      "hit": false,
      "t": 144224.7403854169,
      "d": 2223.5573958333407,
      "v": 99
    },
    {
      "midi": 69,
      "hit": false,
      "t": 144801.6633854169,
      "d": 498.79801041667815,
      "v": 96
    },
    {
      "midi": 57,
      "hit": false,
      "t": 144801.6633854169,
      "d": 1009.6152500000026,
      "v": 83
    },
    {
      "midi": 69,
      "hit": false,
      "t": 145378.58638541691,
      "d": 1063.7017812499835,
      "v": 99
    },
    {
      "midi": 50,
      "hit": false,
      "t": 145378.58638541691,
      "d": 2211.5381666666653,
      "v": 90
    },
    {
      "midi": 57,
      "hit": false,
      "t": 145961.51900000023,
      "d": 907.4518020833493,
      "v": 90
    },
    {
      "midi": 62,
      "hit": false,
      "t": 146532.4323854169,
      "d": 1274.0382916666858,
      "v": 96
    },
    {
      "midi": 69,
      "hit": false,
      "t": 146538.44200000024,
      "d": 1129.8075416666688,
      "v": 107
    },
    {
      "midi": 57,
      "hit": false,
      "t": 147115.36500000025,
      "d": 691.1056770833384,
      "v": 86
    },
    {
      "midi": 50,
      "hit": false,
      "t": 147686.27838541692,
      "d": 2109.374718750012,
      "v": 90
    },
    {
      "midi": 67,
      "hit": false,
      "t": 147692.28800000026,
      "d": 1838.9420625000203,
      "v": 109
    },
    {
      "midi": 55,
      "hit": false,
      "t": 148263.20138541693,
      "d": 751.2018229166861,
      "v": 78
    },
    {
      "midi": 62,
      "hit": false,
      "t": 148269.21100000027,
      "d": 907.4518020833493,
      "v": 90
    },
    {
      "midi": 71,
      "hit": false,
      "t": 148557.67250000028,
      "d": 1478.3651874999923,
      "v": 109
    },
    {
      "midi": 59,
      "hit": false,
      "t": 148840.12438541694,
      "d": 2337.7400729166693,
      "v": 101
    },
    {
      "midi": 55,
      "hit": false,
      "t": 149417.04738541695,
      "d": 745.1922083333193,
      "v": 86
    },
    {
      "midi": 62,
      "hit": false,
      "t": 149417.04738541695,
      "d": 1616.5863229166716,
      "v": 101
    },
    {
      "midi": 67,
      "hit": false,
      "t": 149993.97038541693,
      "d": 1105.7690833333472,
      "v": 119
    },
    {
      "midi": 50,
      "hit": false,
      "t": 149993.97038541693,
      "d": 1147.8363854166819,
      "v": 104
    },
    {
      "midi": 55,
      "hit": false,
      "t": 150576.90300000028,
      "d": 631.0095312499907,
      "v": 86
    },
    {
      "midi": 54,
      "hit": false,
      "t": 151147.81638541695,
      "d": 1165.8652291666367,
      "v": 101
    },
    {
      "midi": 70,
      "hit": false,
      "t": 151153.8260000003,
      "d": 1003.6056354166358,
      "v": 86
    },
    {
      "midi": 61,
      "hit": false,
      "t": 151153.8260000003,
      "d": 1027.6440937499574,
      "v": 127
    },
    {
      "midi": 66,
      "hit": false,
      "t": 152307.67200000025,
      "d": 1622.5959375000093,
      "v": 121
    },
    {
      "midi": 74,
      "hit": false,
      "t": 152307.67200000025,
      "d": 1640.6247812500224,
      "v": 99
    },
    {
      "midi": 47,
      "hit": false,
      "t": 152307.67200000025,
      "d": 2163.461250000051,
      "v": 114
    },
    {
      "midi": 54,
      "hit": false,
      "t": 152884.59500000026,
      "d": 961.5383333333302,
      "v": 83
    },
    {
      "midi": 62,
      "hit": false,
      "t": 153455.50838541694,
      "d": 1562.4997916667198,
      "v": 93
    },
    {
      "midi": 54,
      "hit": false,
      "t": 154032.43138541694,
      "d": 865.3845000000438,
      "v": 83
    },
    {
      "midi": 66,
      "hit": false,
      "t": 154038.44100000028,
      "d": 366.5864895833365,
      "v": 126
    },
    {
      "midi": 74,
      "hit": false,
      "t": 154038.44100000028,
      "d": 384.61533333334955,
      "v": 96
    },
    {
      "midi": 74,
      "hit": false,
      "t": 154609.35438541698,
      "d": 997.5960208333563,
      "v": 96
    },
    {
      "midi": 66,
      "hit": false,
      "t": 154609.35438541698,
      "d": 1009.6152500000317,
      "v": 124
    },
    {
      "midi": 47,
      "hit": false,
      "t": 154615.36400000032,
      "d": 2301.6823854167305,
      "v": 104
    },
    {
      "midi": 54,
      "hit": false,
      "t": 155192.28700000033,
      "d": 907.4518020833493,
      "v": 93
    },
    {
      "midi": 62,
      "hit": false,
      "t": 155763.200385417,
      "d": 1189.9036875000456,
      "v": 104
    },
    {
      "midi": 74,
      "hit": false,
      "t": 155769.21000000034,
      "d": 943.5094895833463,
      "v": 99
    },
    {
      "midi": 66,
      "hit": false,
      "t": 155769.21000000034,
      "d": 1039.663322916691,
      "v": 116
    },
    {
      "midi": 54,
      "hit": false,
      "t": 156340.123385417,
      "d": 558.8941562500258,
      "v": 90
    },
    {
      "midi": 42,
      "hit": false,
      "t": 156917.04638541705,
      "d": 2001.201656249992,
      "v": 116
    },
    {
      "midi": 74,
      "hit": false,
      "t": 156923.0560000004,
      "d": 1592.547864583321,
      "v": 93
    },
    {
      "midi": 69,
      "hit": false,
      "t": 156923.0560000004,
      "d": 1628.605552083318,
      "v": 101
    },
    {
      "midi": 49,
      "hit": false,
      "t": 157499.97900000037,
      "d": 973.5575625000056,
      "v": 101
    },
    {
      "midi": 57,
      "hit": false,
      "t": 158070.89238541704,
      "d": 1448.3171145833621,
      "v": 104
    },
    {
      "midi": 49,
      "hit": false,
      "t": 158647.81538541705,
      "d": 709.1345208333514,
      "v": 107
    },
    {
      "midi": 74,
      "hit": false,
      "t": 158653.8250000004,
      "d": 420.6730208333174,
      "v": 104
    },
    {
      "midi": 69,
      "hit": false,
      "t": 158653.8250000004,
      "d": 480.7691666666651,
      "v": 101
    },
    {
      "midi": 73,
      "hit": false,
      "t": 159224.73838541706,
      "d": 1033.6537083333533,
      "v": 101
    },
    {
      "midi": 42,
      "hit": false,
      "t": 159224.73838541706,
      "d": 2187.4997083333437,
      "v": 124
    },
    {
      "midi": 69,
      "hit": false,
      "t": 159230.7480000004,
      "d": 985.576791666681,
      "v": 83
    },
    {
      "midi": 49,
      "hit": false,
      "t": 159801.66138541707,
      "d": 967.5479479166679,
      "v": 90
    },
    {
      "midi": 74,
      "hit": false,
      "t": 160378.58438541708,
      "d": 955.5287187499925,
      "v": 86
    },
    {
      "midi": 69,
      "hit": false,
      "t": 160378.58438541708,
      "d": 1093.7498541666719,
      "v": 114
    },
    {
      "midi": 57,
      "hit": false,
      "t": 160378.58438541708,
      "d": 1213.942145833309,
      "v": 104
    },
    {
      "midi": 49,
      "hit": false,
      "t": 160955.50738541706,
      "d": 612.9806875000068,
      "v": 112
    },
    {
      "midi": 74,
      "hit": false,
      "t": 161538.4400000004,
      "d": 1580.5286354166456,
      "v": 96
    },
    {
      "midi": 67,
      "hit": false,
      "t": 161538.4400000004,
      "d": 1586.5382499999832,
      "v": 99
    },
    {
      "midi": 43,
      "hit": false,
      "t": 161538.4400000004,
      "d": 1838.9420624999912,
      "v": 107
    },
    {
      "midi": 50,
      "hit": false,
      "t": 162109.35338541705,
      "d": 1075.721010416688,
      "v": 93
    },
    {
      "midi": 59,
      "hit": false,
      "t": 162686.27638541706,
      "d": 2037.2593437500182,
      "v": 86
    },
    {
      "midi": 50,
      "hit": false,
      "t": 163263.19938541707,
      "d": 739.1825937500107,
      "v": 70
    },
    {
      "midi": 74,
      "hit": false,
      "t": 163269.2090000004,
      "d": 444.71147916666814,
      "v": 104
    },
    {
      "midi": 67,
      "hit": false,
      "t": 163269.2090000004,
      "d": 480.7691666666651,
      "v": 114
    },
    {
      "midi": 43,
      "hit": false,
      "t": 163840.12238541708,
      "d": 2223.55739583337,
      "v": 109
    },
    {
      "midi": 74,
      "hit": false,
      "t": 163846.13200000042,
      "d": 931.4902604166709,
      "v": 104
    },
    {
      "midi": 67,
      "hit": false,
      "t": 163846.13200000042,
      "d": 967.5479479166679,
      "v": 109
    },
    {
      "midi": 50,
      "hit": false,
      "t": 164417.0453854171,
      "d": 1003.605635416694,
      "v": 99
    },
    {
      "midi": 74,
      "hit": false,
      "t": 164993.9683854171,
      "d": 877.40372916669,
      "v": 101
    },
    {
      "midi": 67,
      "hit": false,
      "t": 164993.9683854171,
      "d": 985.576791666681,
      "v": 109
    },
    {
      "midi": 59,
      "hit": false,
      "t": 164999.97800000044,
      "d": 1195.9133020833542,
      "v": 86
    },
    {
      "midi": 50,
      "hit": false,
      "t": 165576.90100000045,
      "d": 546.8749270833505,
      "v": 86
    },
    {
      "midi": 74,
      "hit": false,
      "t": 166147.81438541712,
      "d": 1646.634395833331,
      "v": 101
    },
    {
      "midi": 69,
      "hit": false,
      "t": 166147.81438541712,
      "d": 1700.720927083341,
      "v": 119
    },
    {
      "midi": 45,
      "hit": false,
      "t": 166147.81438541712,
      "d": 1838.9420624999912,
      "v": 119
    },
    {
      "midi": 52,
      "hit": false,
      "t": 166730.74700000047,
      "d": 913.4614166666579,
      "v": 104
    },
    {
      "midi": 57,
      "hit": false,
      "t": 167301.66038541714,
      "d": 1520.4324895832979,
      "v": 90
    },
    {
      "midi": 52,
      "hit": false,
      "t": 167878.58338541712,
      "d": 937.4998749999795,
      "v": 86
    },
    {
      "midi": 74,
      "hit": false,
      "t": 167884.59300000046,
      "d": 384.61533333332045,
      "v": 104
    },
    {
      "midi": 69,
      "hit": false,
      "t": 167884.59300000046,
      "d": 450.7210937499767,
      "v": 93
    },
    {
      "midi": 64,
      "hit": false,
      "t": 168455.5063854171,
      "d": 937.4998750000086,
      "v": 99
    },
    {
      "midi": 73,
      "hit": false,
      "t": 168455.5063854171,
      "d": 991.5864062500186,
      "v": 107
    },
    {
      "midi": 45,
      "hit": false,
      "t": 168455.5063854171,
      "d": 1177.8844583333703,
      "v": 114
    },
    {
      "midi": 57,
      "hit": false,
      "t": 169038.43900000045,
      "d": 679.0864479166921,
      "v": 96
    },
    {
      "midi": 71,
      "hit": false,
      "t": 169615.36200000046,
      "d": 1027.6440937500156,
      "v": 90
    },
    {
      "midi": 43,
      "hit": false,
      "t": 169615.36200000046,
      "d": 1045.6729375000286,
      "v": 109
    },
    {
      "midi": 62,
      "hit": false,
      "t": 169615.36200000046,
      "d": 1051.6825520833663,
      "v": 99
    },
    {
      "midi": 55,
      "hit": false,
      "t": 170192.28500000047,
      "d": 486.7787812500319,
      "v": 90
    },
    {
      "midi": 49,
      "hit": false,
      "t": 170769.2080000005,
      "d": 1664.663239583344,
      "v": 112
    },
    {
      "midi": 64,
      "hit": false,
      "t": 170769.2080000005,
      "d": 3311.297635416646,
      "v": 101
    },
    {
      "midi": 69,
      "hit": false,
      "t": 170769.2080000005,
      "d": 3317.3072499999835,
      "v": 83
    },
    {
      "midi": 54,
      "hit": false,
      "t": 171340.12138541718,
      "d": 2217.547781249974,
      "v": 101
    },
    {
      "midi": 57,
      "hit": false,
      "t": 171917.0443854172,
      "d": 2199.518937499961,
      "v": 109
    },
    {
      "midi": 49,
      "hit": false,
      "t": 172499.9770000005,
      "d": 468.74993749998976,
      "v": 101
    },
    {
      "midi": 49,
      "hit": false,
      "t": 173070.89038541715,
      "d": 1580.5286354166747,
      "v": 101
    },
    {
      "midi": 54,
      "hit": false,
      "t": 173653.8230000005,
      "d": 1676.6824687499902,
      "v": 70
    },
    {
      "midi": 69,
      "hit": false,
      "t": 174224.73638541714,
      "d": 1063.7017812500126,
      "v": 93
    },
    {
      "midi": 64,
      "hit": false,
      "t": 174224.73638541714,
      "d": 1105.7690833333472,
      "v": 101
    },
    {
      "midi": 57,
      "hit": false,
      "t": 174230.74600000048,
      "d": 1153.8460000000196,
      "v": 101
    },
    {
      "midi": 49,
      "hit": false,
      "t": 174801.65938541715,
      "d": 528.8460833333374,
      "v": 99
    },
    {
      "midi": 50,
      "hit": false,
      "t": 175378.58238541716,
      "d": 1658.6536250000063,
      "v": 90
    },
    {
      "midi": 62,
      "hit": false,
      "t": 175384.5920000005,
      "d": 3281.2495624999865,
      "v": 78
    },
    {
      "midi": 69,
      "hit": false,
      "t": 175384.5920000005,
      "d": 3341.345708333334,
      "v": 96
    },
    {
      "midi": 55,
      "hit": false,
      "t": 175955.50538541717,
      "d": 1965.143968749995,
      "v": 90
    },
    {
      "midi": 59,
      "hit": false,
      "t": 176532.42838541718,
      "d": 2229.5670104166493,
      "v": 90
    },
    {
      "midi": 50,
      "hit": false,
      "t": 177115.3610000005,
      "d": 438.70186458333046,
      "v": 70
    },
    {
      "midi": 50,
      "hit": false,
      "t": 177686.27438541717,
      "d": 1634.6151666666556,
      "v": 96
    },
    {
      "midi": 55,
      "hit": false,
      "t": 178269.2070000005,
      "d": 1688.7016979166947,
      "v": 86
    },
    {
      "midi": 69,
      "hit": false,
      "t": 178840.12038541716,
      "d": 1135.8171562500356,
      "v": 101
    },
    {
      "midi": 62,
      "hit": false,
      "t": 178840.12038541716,
      "d": 1147.836385416711,
      "v": 96
    },
    {
      "midi": 59,
      "hit": false,
      "t": 178846.1300000005,
      "d": 1147.836385416711,
      "v": 99
    },
    {
      "midi": 50,
      "hit": false,
      "t": 179417.04338541717,
      "d": 582.9326145833766,
      "v": 74
    },
    {
      "midi": 49,
      "hit": false,
      "t": 179999.97600000055,
      "d": 1664.663239583344,
      "v": 112
    },
    {
      "midi": 64,
      "hit": false,
      "t": 179999.97600000055,
      "d": 3311.297635416646,
      "v": 101
    },
    {
      "midi": 69,
      "hit": false,
      "t": 179999.97600000055,
      "d": 3317.3072499999835,
      "v": 83
    },
    {
      "midi": 54,
      "hit": false,
      "t": 180570.88938541722,
      "d": 2217.547781249974,
      "v": 101
    },
    {
      "midi": 57,
      "hit": false,
      "t": 181147.81238541723,
      "d": 2199.518937499961,
      "v": 109
    },
    {
      "midi": 49,
      "hit": false,
      "t": 181730.74500000055,
      "d": 468.74993749998976,
      "v": 101
    },
    {
      "midi": 49,
      "hit": false,
      "t": 182301.6583854172,
      "d": 1580.5286354166747,
      "v": 101
    },
    {
      "midi": 54,
      "hit": false,
      "t": 182884.59100000054,
      "d": 1676.6824687499902,
      "v": 70
    },
    {
      "midi": 69,
      "hit": false,
      "t": 183455.50438541718,
      "d": 1063.7017812500126,
      "v": 93
    },
    {
      "midi": 64,
      "hit": false,
      "t": 183455.50438541718,
      "d": 1105.7690833333472,
      "v": 101
    },
    {
      "midi": 57,
      "hit": false,
      "t": 183461.51400000052,
      "d": 1153.8460000000196,
      "v": 101
    },
    {
      "midi": 49,
      "hit": false,
      "t": 184032.4273854172,
      "d": 528.8460833333374,
      "v": 99
    },
    {
      "midi": 50,
      "hit": false,
      "t": 184609.3503854172,
      "d": 1658.6536250000063,
      "v": 90
    },
    {
      "midi": 62,
      "hit": false,
      "t": 184615.36000000054,
      "d": 3281.2495624999865,
      "v": 78
    },
    {
      "midi": 69,
      "hit": false,
      "t": 184615.36000000054,
      "d": 3341.345708333334,
      "v": 96
    },
    {
      "midi": 55,
      "hit": false,
      "t": 185186.2733854172,
      "d": 1965.143968749995,
      "v": 90
    },
    {
      "midi": 59,
      "hit": false,
      "t": 185763.19638541722,
      "d": 2229.5670104166493,
      "v": 90
    },
    {
      "midi": 50,
      "hit": false,
      "t": 186346.12900000054,
      "d": 438.70186458333046,
      "v": 70
    },
    {
      "midi": 50,
      "hit": false,
      "t": 186917.0423854172,
      "d": 1634.6151666666556,
      "v": 96
    },
    {
      "midi": 55,
      "hit": false,
      "t": 187499.97500000053,
      "d": 1688.7016979166947,
      "v": 86
    },
    {
      "midi": 69,
      "hit": false,
      "t": 188070.8883854172,
      "d": 1135.8171562500356,
      "v": 101
    },
    {
      "midi": 62,
      "hit": false,
      "t": 188070.8883854172,
      "d": 1147.836385416711,
      "v": 96
    },
    {
      "midi": 59,
      "hit": false,
      "t": 188076.89800000054,
      "d": 1147.836385416711,
      "v": 99
    },
    {
      "midi": 50,
      "hit": false,
      "t": 188647.8113854172,
      "d": 582.9326145833766,
      "v": 74
    },
    {
      "midi": 49,
      "hit": false,
      "t": 189230.7440000006,
      "d": 1628.605552083347,
      "v": 116
    },
    {
      "midi": 69,
      "hit": false,
      "t": 189230.7440000006,
      "d": 3305.2880208333663,
      "v": 101
    },
    {
      "midi": 64,
      "hit": false,
      "t": 189230.7440000006,
      "d": 3341.3457083333633,
      "v": 114
    },
    {
      "midi": 54,
      "hit": false,
      "t": 189801.65738541726,
      "d": 2223.5573958333407,
      "v": 90
    },
    {
      "midi": 57,
      "hit": false,
      "t": 190372.57077083393,
      "d": 2241.5862395833537,
      "v": 104
    },
    {
      "midi": 49,
      "hit": false,
      "t": 190961.5130000006,
      "d": 450.7210937500058,
      "v": 90
    },
    {
      "midi": 49,
      "hit": false,
      "t": 191532.42638541726,
      "d": 1556.490177083353,
      "v": 101
    },
    {
      "midi": 54,
      "hit": false,
      "t": 192115.3590000006,
      "d": 1646.63439583336,
      "v": 101
    },
    {
      "midi": 69,
      "hit": false,
      "t": 192686.27238541728,
      "d": 991.5864062500186,
      "v": 101
    },
    {
      "midi": 64,
      "hit": false,
      "t": 192686.27238541728,
      "d": 1105.7690833333472,
      "v": 104
    },
    {
      "midi": 57,
      "hit": false,
      "t": 192692.28200000062,
      "d": 1177.8844583333412,
      "v": 99
    },
    {
      "midi": 49,
      "hit": false,
      "t": 193263.1953854173,
      "d": 528.8460833333374,
      "v": 65
    },
    {
      "midi": 47,
      "hit": false,
      "t": 193840.1183854173,
      "d": 2157.4516354166553,
      "v": 107
    },
    {
      "midi": 62,
      "hit": false,
      "t": 193846.12800000064,
      "d": 1147.8363854166528,
      "v": 114
    },
    {
      "midi": 69,
      "hit": false,
      "t": 193846.12800000064,
      "d": 2271.634312499984,
      "v": 119
    },
    {
      "midi": 54,
      "hit": false,
      "t": 194417.04138541728,
      "d": 985.576791666681,
      "v": 78
    },
    {
      "midi": 62,
      "hit": false,
      "t": 194993.9643854173,
      "d": 3467.5476145833672,
      "v": 90
    },
    {
      "midi": 54,
      "hit": false,
      "t": 195570.8873854173,
      "d": 2896.634229166695,
      "v": 78
    },
    {
      "midi": 47,
      "hit": false,
      "t": 196147.81038541728,
      "d": 2313.701614583377,
      "v": 90
    },
    {
      "midi": 74,
      "hit": false,
      "t": 196153.82000000062,
      "d": 510.8172395833244,
      "v": 101
    },
    {
      "midi": 66,
      "hit": false,
      "t": 196153.82000000062,
      "d": 570.9133854166721,
      "v": 96
    },
    {
      "midi": 67,
      "hit": false,
      "t": 196724.7333854173,
      "d": 594.9518437500228,
      "v": 99
    },
    {
      "midi": 76,
      "hit": false,
      "t": 196724.7333854173,
      "d": 600.9614583333605,
      "v": 86
    },
    {
      "midi": 78,
      "hit": false,
      "t": 197295.64677083396,
      "d": 624.9999166666821,
      "v": 112
    },
    {
      "midi": 69,
      "hit": false,
      "t": 197301.6563854173,
      "d": 612.9806875000068,
      "v": 107
    },
    {
      "midi": 74,
      "hit": false,
      "t": 197878.5793854173,
      "d": 534.8556979166751,
      "v": 93
    },
    {
      "midi": 66,
      "hit": false,
      "t": 197878.5793854173,
      "d": 552.8845416666882,
      "v": 124
    },
    {
      "midi": 48,
      "hit": false,
      "t": 198461.51200000066,
      "d": 2151.4420208333468,
      "v": 107
    },
    {
      "midi": 76,
      "hit": false,
      "t": 198461.51200000066,
      "d": 2914.663072916679,
      "v": 104
    },
    {
      "midi": 67,
      "hit": false,
      "t": 198461.51200000066,
      "d": 2962.7399895833514,
      "v": 107
    },
    {
      "midi": 55,
      "hit": false,
      "t": 199032.42538541733,
      "d": 739.1825937500107,
      "v": 90
    },
    {
      "midi": 60,
      "hit": false,
      "t": 199609.34838541734,
      "d": 1862.9805208333419,
      "v": 99
    },
    {
      "midi": 55,
      "hit": false,
      "t": 200186.27138541735,
      "d": 1268.028677083319,
      "v": 107
    },
    {
      "midi": 48,
      "hit": false,
      "t": 200763.19438541733,
      "d": 781.2498958333454,
      "v": 107
    },
    {
      "midi": 55,
      "hit": false,
      "t": 201917.04038541735,
      "d": 1556.490177083324,
      "v": 114
    },
    {
      "midi": 60,
      "hit": false,
      "t": 201917.04038541735,
      "d": 1586.5382499999832,
      "v": 127
    },
    {
      "midi": 64,
      "hit": false,
      "t": 201917.04038541735,
      "d": 1598.5574791666586,
      "v": 114
    },
    {
      "midi": 46,
      "hit": false,
      "t": 201917.04038541735,
      "d": 1706.7305416666495,
      "v": 127
    },
    {
      "midi": 57,
      "hit": false,
      "t": 203653.81900000066,
      "d": 1418.2690416666737,
      "v": 107
    },
    {
      "midi": 60,
      "hit": false,
      "t": 203653.81900000066,
      "d": 1424.2786562500114,
      "v": 127
    },
    {
      "midi": 65,
      "hit": false,
      "t": 203653.81900000066,
      "d": 1442.3075000000244,
      "v": 127
    },
    {
      "midi": 45,
      "hit": false,
      "t": 203653.81900000066,
      "d": 1628.605552083347,
      "v": 116
    },
    {
      "midi": 64,
      "hit": false,
      "t": 205378.57838541735,
      "d": 841.346041666664,
      "v": 119
    },
    {
      "midi": 60,
      "hit": false,
      "t": 205378.57838541735,
      "d": 847.3556562500016,
      "v": 124
    },
    {
      "midi": 55,
      "hit": false,
      "t": 205378.57838541735,
      "d": 1069.7113958333211,
      "v": 107
    },
    {
      "midi": 50,
      "hit": false,
      "t": 205378.57838541735,
      "d": 1231.970989583322,
      "v": 124
    },
    {
      "midi": 62,
      "hit": false,
      "t": 206538.43400000068,
      "d": 252.40381250000792,
      "v": 114
    },
    {
      "midi": 54,
      "hit": false,
      "t": 206538.43400000068,
      "d": 264.4230416666833,
      "v": 127
    },
    {
      "midi": 57,
      "hit": false,
      "t": 206538.43400000068,
      "d": 294.47111458334257,
      "v": 112
    },
    {
      "midi": 38,
      "hit": false,
      "t": 206538.43400000068,
      "d": 306.4903437500179,
      "v": 101
    },
    {
      "midi": 62,
      "hit": false,
      "t": 206923.04933333403,
      "d": 264.42304166665417,
      "v": 104
    },
    {
      "midi": 54,
      "hit": false,
      "t": 206923.04933333403,
      "d": 276.44227083332953,
      "v": 112
    },
    {
      "midi": 57,
      "hit": false,
      "t": 206923.04933333403,
      "d": 294.47111458334257,
      "v": 101
    },
    {
      "midi": 38,
      "hit": false,
      "t": 206923.04933333403,
      "d": 300.48072916668025,
      "v": 107
    },
    {
      "midi": 54,
      "hit": false,
      "t": 207307.66466666738,
      "d": 324.51918750000186,
      "v": 107
    },
    {
      "midi": 38,
      "hit": false,
      "t": 207307.66466666738,
      "d": 336.5384166666772,
      "v": 107
    },
    {
      "midi": 62,
      "hit": false,
      "t": 207307.66466666738,
      "d": 336.5384166666772,
      "v": 101
    },
    {
      "midi": 57,
      "hit": false,
      "t": 207307.66466666738,
      "d": 348.5576458333526,
      "v": 99
    },
    {
      "midi": 62,
      "hit": false,
      "t": 207692.28000000073,
      "d": 1550.4805625000154,
      "v": 112
    },
    {
      "midi": 67,
      "hit": false,
      "t": 207692.28000000073,
      "d": 1953.1247395833489,
      "v": 109
    },
    {
      "midi": 43,
      "hit": false,
      "t": 207692.28000000073,
      "d": 2187.4997083333437,
      "v": 124
    },
    {
      "midi": 50,
      "hit": false,
      "t": 208269.20300000074,
      "d": 1063.7017812500126,
      "v": 70
    },
    {
      "midi": 59,
      "hit": false,
      "t": 208840.1163854174,
      "d": 2169.4708645833307,
      "v": 109
    },
    {
      "midi": 62,
      "hit": false,
      "t": 209417.03938541742,
      "d": 390.62494791665813,
      "v": 93
    },
    {
      "midi": 50,
      "hit": false,
      "t": 209423.04900000076,
      "d": 973.5575624999765,
      "v": 74
    },
    {
      "midi": 62,
      "hit": false,
      "t": 209993.9623854174,
      "d": 498.79801041667815,
      "v": 99
    },
    {
      "midi": 67,
      "hit": false,
      "t": 209993.9623854174,
      "d": 1219.9517604166758,
      "v": 104
    },
    {
      "midi": 43,
      "hit": false,
      "t": 209999.97200000074,
      "d": 2199.518937500019,
      "v": 107
    },
    {
      "midi": 50,
      "hit": false,
      "t": 210576.89500000075,
      "d": 979.5671770833142,
      "v": 78
    },
    {
      "midi": 62,
      "hit": false,
      "t": 210576.89500000075,
      "d": 1568.5094062499993,
      "v": 93
    },
    {
      "midi": 66,
      "hit": false,
      "t": 211147.80838541742,
      "d": 618.9903020833153,
      "v": 96
    },
    {
      "midi": 59,
      "hit": false,
      "t": 211147.80838541742,
      "d": 1231.970989583322,
      "v": 83
    },
    {
      "midi": 67,
      "hit": false,
      "t": 211724.7313854174,
      "d": 456.7307083333435,
      "v": 99
    },
    {
      "midi": 50,
      "hit": false,
      "t": 211724.7313854174,
      "d": 715.1441354166891,
      "v": 65
    },
    {
      "midi": 60,
      "hit": false,
      "t": 212301.6543854174,
      "d": 1574.519020833366,
      "v": 96
    },
    {
      "midi": 67,
      "hit": false,
      "t": 212301.6543854174,
      "d": 2145.432406250038,
      "v": 93
    },
    {
      "midi": 43,
      "hit": false,
      "t": 212301.6543854174,
      "d": 2163.461250000051,
      "v": 107
    },
    {
      "midi": 48,
      "hit": false,
      "t": 212884.58700000076,
      "d": 1021.6344791666779,
      "v": 70
    },
    {
      "midi": 55,
      "hit": false,
      "t": 213455.50038541743,
      "d": 2193.5093229166814,
      "v": 104
    },
    {
      "midi": 60,
      "hit": false,
      "t": 214038.43300000078,
      "d": 414.66340625000885,
      "v": 90
    },
    {
      "midi": 48,
      "hit": false,
      "t": 214038.43300000078,
      "d": 973.5575625000056,
      "v": 70
    },
    {
      "midi": 60,
      "hit": false,
      "t": 214609.34638541745,
      "d": 438.70186458333046,
      "v": 93
    },
    {
      "midi": 67,
      "hit": false,
      "t": 214609.34638541745,
      "d": 1183.8940729166497,
      "v": 101
    },
    {
      "midi": 43,
      "hit": false,
      "t": 214615.3560000008,
      "d": 2187.4997083332855,
      "v": 109
    },
    {
      "midi": 60,
      "hit": false,
      "t": 215186.26938541746,
      "d": 432.6922499999928,
      "v": 93
    },
    {
      "midi": 48,
      "hit": false,
      "t": 215186.26938541746,
      "d": 931.4902604166418,
      "v": 74
    },
    {
      "midi": 66,
      "hit": false,
      "t": 215763.19238541744,
      "d": 697.115291666647,
      "v": 90
    },
    {
      "midi": 60,
      "hit": false,
      "t": 215763.19238541744,
      "d": 1213.942145833309,
      "v": 74
    },
    {
      "midi": 55,
      "hit": false,
      "t": 215763.19238541744,
      "d": 1664.6632395833149,
      "v": 104
    },
    {
      "midi": 67,
      "hit": false,
      "t": 216340.11538541742,
      "d": 426.6826354166551,
      "v": 93
    },
    {
      "midi": 48,
      "hit": false,
      "t": 216340.11538541742,
      "d": 618.9903020833153,
      "v": 78
    },
    {
      "midi": 43,
      "hit": false,
      "t": 216917.0383854174,
      "d": 2217.547781250032,
      "v": 96
    },
    {
      "midi": 62,
      "hit": false,
      "t": 216923.04800000074,
      "d": 1556.490177083353,
      "v": 101
    },
    {
      "midi": 67,
      "hit": false,
      "t": 216923.04800000074,
      "d": 2127.403562500025,
      "v": 107
    },
    {
      "midi": 50,
      "hit": false,
      "t": 217499.97100000075,
      "d": 985.576791666681,
      "v": 49
    },
    {
      "midi": 59,
      "hit": false,
      "t": 218076.89400000076,
      "d": 2163.461249999993,
      "v": 86
    },
    {
      "midi": 62,
      "hit": false,
      "t": 218653.81700000077,
      "d": 384.61533333332045,
      "v": 101
    },
    {
      "midi": 50,
      "hit": false,
      "t": 218653.81700000077,
      "d": 1003.6056354166649,
      "v": 83
    },
    {
      "midi": 62,
      "hit": false,
      "t": 219224.73038541744,
      "d": 468.74993749998976,
      "v": 90
    },
    {
      "midi": 67,
      "hit": false,
      "t": 219224.73038541744,
      "d": 1256.0094479166728,
      "v": 90
    },
    {
      "midi": 43,
      "hit": false,
      "t": 219230.74000000078,
      "d": 2169.47086458336,
      "v": 109
    },
    {
      "midi": 62,
      "hit": false,
      "t": 219807.66300000076,
      "d": 450.7210937500058,
      "v": 101
    },
    {
      "midi": 50,
      "hit": false,
      "t": 219807.66300000076,
      "d": 991.5864062500186,
      "v": 70
    },
    {
      "midi": 66,
      "hit": false,
      "t": 220378.57638541743,
      "d": 643.0287604166951,
      "v": 93
    },
    {
      "midi": 59,
      "hit": false,
      "t": 220378.57638541743,
      "d": 1207.9325312500296,
      "v": 96
    },
    {
      "midi": 62,
      "hit": false,
      "t": 220384.58600000077,
      "d": 1051.6825520833663,
      "v": 83
    },
    {
      "midi": 50,
      "hit": false,
      "t": 220955.49938541744,
      "d": 835.3364270833554,
      "v": 65
    },
    {
      "midi": 67,
      "hit": false,
      "t": 220961.50900000078,
      "d": 504.80762500001583,
      "v": 101
    },
    {
      "midi": 43,
      "hit": false,
      "t": 221532.42238541745,
      "d": 2211.5381666666945,
      "v": 83
    },
    {
      "midi": 60,
      "hit": false,
      "t": 221538.4320000008,
      "d": 1604.5670937499963,
      "v": 90
    },
    {
      "midi": 67,
      "hit": false,
      "t": 221538.4320000008,
      "d": 2151.4420208333468,
      "v": 93
    },
    {
      "midi": 48,
      "hit": false,
      "t": 222109.34538541746,
      "d": 1009.6152500000026,
      "v": 57
    },
    {
      "midi": 55,
      "hit": false,
      "t": 222686.26838541747,
      "d": 2217.5477812500612,
      "v": 93
    },
    {
      "midi": 60,
      "hit": false,
      "t": 223269.2010000008,
      "d": 420.6730208333465,
      "v": 99
    },
    {
      "midi": 48,
      "hit": false,
      "t": 223269.2010000008,
      "d": 925.4806458333624,
      "v": 65
    },
    {
      "midi": 43,
      "hit": false,
      "t": 223840.1143854175,
      "d": 2205.528552083415,
      "v": 99
    },
    {
      "midi": 60,
      "hit": false,
      "t": 223846.12400000083,
      "d": 444.71147916666814,
      "v": 93
    },
    {
      "midi": 67,
      "hit": false,
      "t": 223846.12400000083,
      "d": 1213.9421458333672,
      "v": 99
    },
    {
      "midi": 60,
      "hit": false,
      "t": 224417.0373854175,
      "d": 468.74993750001886,
      "v": 96
    },
    {
      "midi": 48,
      "hit": false,
      "t": 224423.04700000084,
      "d": 967.547947916697,
      "v": 74
    },
    {
      "midi": 66,
      "hit": false,
      "t": 224993.96038541754,
      "d": 624.9999166666821,
      "v": 107
    },
    {
      "midi": 60,
      "hit": false,
      "t": 224993.96038541754,
      "d": 1003.605635416694,
      "v": 86
    },
    {
      "midi": 55,
      "hit": false,
      "t": 224993.96038541754,
      "d": 1159.8556145833863,
      "v": 109
    },
    {
      "midi": 67,
      "hit": false,
      "t": 225570.88338541755,
      "d": 480.7691666666942,
      "v": 101
    },
    {
      "midi": 48,
      "hit": false,
      "t": 225576.89300000088,
      "d": 564.9037708333635,
      "v": 86
    },
    {
      "midi": 67,
      "hit": false,
      "t": 226153.81600000092,
      "d": 1544.4709479166777,
      "v": 101
    },
    {
      "midi": 62,
      "hit": false,
      "t": 226153.81600000092,
      "d": 1586.5382500000123,
      "v": 119
    },
    {
      "midi": 43,
      "hit": false,
      "t": 226153.81600000092,
      "d": 2073.317031249986,
      "v": 104
    },
    {
      "midi": 50,
      "hit": false,
      "t": 226724.7293854176,
      "d": 1051.6825520833372,
      "v": 86
    },
    {
      "midi": 55,
      "hit": false,
      "t": 227301.6523854176,
      "d": 1388.2209687499562,
      "v": 112
    },
    {
      "midi": 67,
      "hit": false,
      "t": 227878.5753854176,
      "d": 414.66340624997974,
      "v": 114
    },
    {
      "midi": 62,
      "hit": false,
      "t": 227878.5753854176,
      "d": 456.7307083333144,
      "v": 124
    },
    {
      "midi": 50,
      "hit": false,
      "t": 227878.5753854176,
      "d": 1316.1055937499623,
      "v": 90
    },
    {
      "midi": 62,
      "hit": false,
      "t": 228455.49838541757,
      "d": 468.74993749998976,
      "v": 107
    },
    {
      "midi": 43,
      "hit": false,
      "t": 228455.49838541757,
      "d": 1063.7017812499835,
      "v": 114
    },
    {
      "midi": 67,
      "hit": false,
      "t": 228455.49838541757,
      "d": 1610.5767083333049,
      "v": 104
    },
    {
      "midi": 55,
      "hit": false,
      "t": 229032.42138541755,
      "d": 691.1056770833384,
      "v": 112
    },
    {
      "midi": 62,
      "hit": false,
      "t": 229032.42138541755,
      "d": 1874.999749999959,
      "v": 99
    },
    {
      "midi": 52,
      "hit": false,
      "t": 229609.34438541756,
      "d": 612.9806874999776,
      "v": 96
    },
    {
      "midi": 51,
      "hit": false,
      "t": 230186.26738541754,
      "d": 618.9903020833153,
      "v": 99
    },
    {
      "midi": 67,
      "hit": false,
      "t": 230186.26738541754,
      "d": 1015.6248645833111,
      "v": 119
    },
    {
      "midi": 50,
      "hit": false,
      "t": 230769.20000000086,
      "d": 1622.5959375000093,
      "v": 119
    },
    {
      "midi": 59,
      "hit": false,
      "t": 230769.20000000086,
      "d": 2121.3939479166584,
      "v": 124
    },
    {
      "midi": 62,
      "hit": false,
      "t": 231340.11338541753,
      "d": 486.7787812500028,
      "v": 104
    },
    {
      "midi": 67,
      "hit": false,
      "t": 231346.12300000087,
      "d": 408.65379166667117,
      "v": 99
    },
    {
      "midi": 67,
      "hit": false,
      "t": 231917.03638541754,
      "d": 991.5864062499895,
      "v": 114
    },
    {
      "midi": 62,
      "hit": false,
      "t": 231917.03638541754,
      "d": 1069.7113958333211,
      "v": 104
    },
    {
      "midi": 50,
      "hit": false,
      "t": 232499.96900000086,
      "d": 570.9133854166721,
      "v": 90
    },
    {
      "midi": 59,
      "hit": false,
      "t": 233070.88238541753,
      "d": 955.5287187499925,
      "v": 93
    },
    {
      "midi": 67,
      "hit": false,
      "t": 233070.88238541753,
      "d": 979.5671770833142,
      "v": 99
    },
    {
      "midi": 63,
      "hit": false,
      "t": 233070.88238541753,
      "d": 1003.6056354166358,
      "v": 99
    },
    {
      "midi": 47,
      "hit": false,
      "t": 233070.88238541753,
      "d": 1622.595937499951,
      "v": 104
    },
    {
      "midi": 59,
      "hit": false,
      "t": 234224.7283854175,
      "d": 1069.7113958333211,
      "v": 101
    },
    {
      "midi": 67,
      "hit": false,
      "t": 234224.7283854175,
      "d": 1075.7210104166588,
      "v": 114
    },
    {
      "midi": 63,
      "hit": false,
      "t": 234224.7283854175,
      "d": 1093.7498541666719,
      "v": 101
    },
    {
      "midi": 47,
      "hit": false,
      "t": 234801.65138541747,
      "d": 643.0287604167243,
      "v": 107
    },
    {
      "midi": 59,
      "hit": false,
      "t": 235378.5743854175,
      "d": 1574.519020833366,
      "v": 93
    },
    {
      "midi": 67,
      "hit": false,
      "t": 235384.58400000085,
      "d": 1556.490177083353,
      "v": 107
    },
    {
      "midi": 64,
      "hit": false,
      "t": 235384.58400000085,
      "d": 1574.519020833366,
      "v": 127
    },
    {
      "midi": 40,
      "hit": false,
      "t": 235384.58400000085,
      "d": 2127.403562500025,
      "v": 109
    },
    {
      "midi": 47,
      "hit": false,
      "t": 235961.50700000086,
      "d": 1484.374802083359,
      "v": 96
    },
    {
      "midi": 55,
      "hit": false,
      "t": 236532.42038541753,
      "d": 1141.8267708333442,
      "v": 124
    },
    {
      "midi": 59,
      "hit": false,
      "t": 237109.34338541754,
      "d": 516.8268541666621,
      "v": 107
    },
    {
      "midi": 67,
      "hit": false,
      "t": 237109.34338541754,
      "d": 1027.6440937500156,
      "v": 99
    },
    {
      "midi": 64,
      "hit": false,
      "t": 237109.34338541754,
      "d": 1057.692166666675,
      "v": 119
    },
    {
      "midi": 48,
      "hit": false,
      "t": 237686.26638541755,
      "d": 2163.461250000022,
      "v": 119
    },
    {
      "midi": 60,
      "hit": false,
      "t": 237686.26638541755,
      "d": 2169.47086458336,
      "v": 96
    },
    {
      "midi": 67,
      "hit": false,
      "t": 238263.18938541756,
      "d": 432.6922499999928,
      "v": 99
    },
    {
      "midi": 64,
      "hit": false,
      "t": 238263.18938541756,
      "d": 450.7210937500058,
      "v": 101
    },
    {
      "midi": 52,
      "hit": false,
      "t": 238263.18938541756,
      "d": 1688.7016979166947,
      "v": 101
    },
    {
      "midi": 67,
      "hit": false,
      "t": 238840.11238541757,
      "d": 991.5864062499895,
      "v": 114
    },
    {
      "midi": 64,
      "hit": false,
      "t": 238840.11238541757,
      "d": 1057.692166666675,
      "v": 114
    },
    {
      "midi": 55,
      "hit": false,
      "t": 238840.11238541757,
      "d": 1249.9998333333642,
      "v": 124
    },
    {
      "midi": 67,
      "hit": false,
      "t": 239993.9583854176,
      "d": 1550.4805625000154,
      "v": 93
    },
    {
      "midi": 64,
      "hit": false,
      "t": 239993.9583854176,
      "d": 1574.519020833337,
      "v": 104
    },
    {
      "midi": 60,
      "hit": false,
      "t": 239999.96800000092,
      "d": 1574.519020833337,
      "v": 104
    },
    {
      "midi": 50,
      "hit": false,
      "t": 239999.96800000092,
      "d": 2229.5670104166784,
      "v": 109
    },
    {
      "midi": 55,
      "hit": false,
      "t": 240570.8813854176,
      "d": 1039.6633229166619,
      "v": 124
    },
    {
      "midi": 64,
      "hit": false,
      "t": 241724.7273854176,
      "d": 414.66340625000885,
      "v": 101
    },
    {
      "midi": 67,
      "hit": false,
      "t": 241724.7273854176,
      "d": 420.6730208333465,
      "v": 96
    },
    {
      "midi": 60,
      "hit": false,
      "t": 241724.7273854176,
      "d": 456.7307083333435,
      "v": 107
    },
    {
      "midi": 55,
      "hit": false,
      "t": 241724.7273854176,
      "d": 943.5094895833463,
      "v": 109
    },
    {
      "midi": 57,
      "hit": false,
      "t": 242301.6503854176,
      "d": 576.9230000000098,
      "v": 99
    },
    {
      "midi": 66,
      "hit": false,
      "t": 242301.6503854176,
      "d": 997.5960208333563,
      "v": 104
    },
    {
      "midi": 62,
      "hit": false,
      "t": 242301.6503854176,
      "d": 1027.6440937500156,
      "v": 104
    },
    {
      "midi": 50,
      "hit": false,
      "t": 242301.6503854176,
      "d": 1670.6728541666816,
      "v": 93
    },
    {
      "midi": 57,
      "hit": false,
      "t": 242878.5733854176,
      "d": 1682.6920833332988,
      "v": 114
    },
    {
      "midi": 66,
      "hit": false,
      "t": 243455.49638541762,
      "d": 931.4902604166418,
      "v": 112
    },
    {
      "midi": 62,
      "hit": false,
      "t": 243455.49638541762,
      "d": 1033.653708333295,
      "v": 119
    },
    {
      "midi": 50,
      "hit": false,
      "t": 244038.42900000094,
      "d": 516.826854166633,
      "v": 93
    },
    {
      "midi": 59,
      "hit": false,
      "t": 244615.35200000092,
      "d": 474.75955208332743,
      "v": 86
    },
    {
      "midi": 52,
      "hit": false,
      "t": 244615.35200000092,
      "d": 2794.470781250042,
      "v": 90
    },
    {
      "midi": 68,
      "hit": false,
      "t": 244615.35200000092,
      "d": 4639.422458333429,
      "v": 99
    },
    {
      "midi": 59,
      "hit": false,
      "t": 245186.2653854176,
      "d": 739.1825937500107,
      "v": 70
    },
    {
      "midi": 56,
      "hit": false,
      "t": 245763.1883854176,
      "d": 1688.7016979166947,
      "v": 112
    },
    {
      "midi": 59,
      "hit": false,
      "t": 246340.1113854176,
      "d": 1868.9901354167087,
      "v": 83
    },
    {
      "midi": 64,
      "hit": false,
      "t": 246923.04400000095,
      "d": 1724.7593854166917,
      "v": 99
    },
    {
      "midi": 52,
      "hit": false,
      "t": 247499.96700000096,
      "d": 1580.5286354167038,
      "v": 93
    },
    {
      "midi": 56,
      "hit": false,
      "t": 248070.88038541764,
      "d": 955.5287187500217,
      "v": 96
    },
    {
      "midi": 59,
      "hit": false,
      "t": 248647.80338541765,
      "d": 570.9133854167012,
      "v": 93
    },
    {
      "midi": 61,
      "hit": false,
      "t": 249230.73600000102,
      "d": 1694.7113125000033,
      "v": 93
    },
    {
      "midi": 52,
      "hit": false,
      "t": 249230.73600000102,
      "d": 3593.749520833313,
      "v": 86
    },
    {
      "midi": 69,
      "hit": false,
      "t": 249230.73600000102,
      "d": 4609.374385416653,
      "v": 99
    },
    {
      "midi": 57,
      "hit": false,
      "t": 249807.659000001,
      "d": 1183.8940729166789,
      "v": 74
    },
    {
      "midi": 59,
      "hit": false,
      "t": 250384.582000001,
      "d": 739.1825937500107,
      "v": 107
    },
    {
      "midi": 64,
      "hit": false,
      "t": 250955.4953854177,
      "d": 600.9614583333314,
      "v": 86
    },
    {
      "midi": 63,
      "hit": false,
      "t": 251532.4183854177,
      "d": 829.3268124999886,
      "v": 101
    },
    {
      "midi": 59,
      "hit": false,
      "t": 252397.80288541768,
      "d": 667.0672187499877,
      "v": 93
    },
    {
      "midi": 52,
      "hit": false,
      "t": 252974.72588541766,
      "d": 570.9133854166721,
      "v": 78
    },
    {
      "midi": 47,
      "hit": false,
      "t": 253551.64888541767,
      "d": 282.4518854166672,
      "v": 90
    },
    {
      "midi": 68,
      "hit": false,
      "t": 253846.120000001,
      "d": 1015.6248645833402,
      "v": 96
    },
    {
      "midi": 64,
      "hit": false,
      "t": 253846.120000001,
      "d": 1045.6729374999995,
      "v": 93
    },
    {
      "midi": 52,
      "hit": false,
      "t": 253846.120000001,
      "d": 2217.547781250003,
      "v": 83
    },
    {
      "midi": 59,
      "hit": false,
      "t": 254417.0333854177,
      "d": 745.1922083333193,
      "v": 65
    },
    {
      "midi": 68,
      "hit": false,
      "t": 254993.95638541767,
      "d": 1003.605635416694,
      "v": 101
    },
    {
      "midi": 64,
      "hit": false,
      "t": 254999.966000001,
      "d": 1033.6537083333533,
      "v": 101
    },
    {
      "midi": 59,
      "hit": false,
      "t": 255576.889000001,
      "d": 667.0672187500168,
      "v": 70
    },
    {
      "midi": 64,
      "hit": false,
      "t": 256153.81200000102,
      "d": 991.5864062500186,
      "v": 101
    },
    {
      "midi": 68,
      "hit": false,
      "t": 256153.81200000102,
      "d": 991.5864062500186,
      "v": 101
    },
    {
      "midi": 52,
      "hit": false,
      "t": 256153.81200000102,
      "d": 1616.5863229167007,
      "v": 93
    },
    {
      "midi": 59,
      "hit": false,
      "t": 256730.73500000103,
      "d": 564.9037708333344,
      "v": 78
    },
    {
      "midi": 66,
      "hit": false,
      "t": 257301.6483854177,
      "d": 462.7403229166812,
      "v": 93
    },
    {
      "midi": 64,
      "hit": false,
      "t": 257301.6483854177,
      "d": 468.74993750001886,
      "v": 99
    },
    {
      "midi": 71,
      "hit": false,
      "t": 257301.6483854177,
      "d": 606.9710729166691,
      "v": 104
    },
    {
      "midi": 59,
      "hit": false,
      "t": 257884.58100000105,
      "d": 540.8653124999837,
      "v": 83
    },
    {
      "midi": 52,
      "hit": false,
      "t": 257884.58100000105,
      "d": 546.8749270833214,
      "v": 70
    },
    {
      "midi": 64,
      "hit": false,
      "t": 257884.58100000105,
      "d": 546.8749270833214,
      "v": 99
    },
    {
      "midi": 66,
      "hit": false,
      "t": 257884.58100000105,
      "d": 558.8941562499967,
      "v": 83
    },
    {
      "midi": 62,
      "hit": false,
      "t": 258461.50400000106,
      "d": 1021.6344791666779,
      "v": 99
    },
    {
      "midi": 64,
      "hit": false,
      "t": 258461.50400000106,
      "d": 1039.663322916691,
      "v": 93
    },
    {
      "midi": 69,
      "hit": false,
      "t": 258461.50400000106,
      "d": 2061.297802083369,
      "v": 114
    },
    {
      "midi": 52,
      "hit": false,
      "t": 258461.50400000106,
      "d": 2139.4227916667005,
      "v": 107
    },
    {
      "midi": 57,
      "hit": false,
      "t": 259038.42700000107,
      "d": 570.9133854166721,
      "v": 93
    },
    {
      "midi": 62,
      "hit": false,
      "t": 259615.35000000108,
      "d": 1039.663322916691,
      "v": 119
    },
    {
      "midi": 57,
      "hit": false,
      "t": 260186.26338541775,
      "d": 540.8653125000128,
      "v": 104
    },
    {
      "midi": 64,
      "hit": false,
      "t": 260769.1960000011,
      "d": 973.5575625000056,
      "v": 107
    },
    {
      "midi": 69,
      "hit": false,
      "t": 260769.1960000011,
      "d": 1003.6056354166649,
      "v": 109
    },
    {
      "midi": 62,
      "hit": false,
      "t": 260769.1960000011,
      "d": 1027.6440937499865,
      "v": 104
    },
    {
      "midi": 52,
      "hit": false,
      "t": 260769.1960000011,
      "d": 1123.7979270833312,
      "v": 99
    },
    {
      "midi": 59,
      "hit": false,
      "t": 261917.03238541775,
      "d": 1111.778697916685,
      "v": 83
    },
    {
      "midi": 68,
      "hit": false,
      "t": 261917.03238541775,
      "d": 1123.7979270833603,
      "v": 86
    },
    {
      "midi": 56,
      "hit": false,
      "t": 261917.03238541775,
      "d": 1159.8556145833863,
      "v": 127
    },
    {
      "midi": 64,
      "hit": false,
      "t": 261923.0420000011,
      "d": 1099.7594687500095,
      "v": 109
    },
    {
      "midi": 64,
      "hit": false,
      "t": 263076.88800000114,
      "d": 685.0960625000298,
      "v": 90
    },
    {
      "midi": 57,
      "hit": false,
      "t": 263076.88800000114,
      "d": 1850.9612916667247,
      "v": 101
    },
    {
      "midi": 71,
      "hit": false,
      "t": 263076.88800000114,
      "d": 2163.461250000051,
      "v": 107
    },
    {
      "midi": 68,
      "hit": false,
      "t": 263076.88800000114,
      "d": 2193.5093229167396,
      "v": 112
    },
    {
      "midi": 61,
      "hit": false,
      "t": 263653.81100000115,
      "d": 643.028760416666,
      "v": 93
    },
    {
      "midi": 64,
      "hit": false,
      "t": 264230.73400000116,
      "d": 961.5383333333884,
      "v": 114
    },
    {
      "midi": 61,
      "hit": false,
      "t": 264807.65700000117,
      "d": 534.8556979167042,
      "v": 101
    },
    {
      "midi": 71,
      "hit": false,
      "t": 265384.5800000012,
      "d": 991.5864062500186,
      "v": 104
    },
    {
      "midi": 64,
      "hit": false,
      "t": 265384.5800000012,
      "d": 1003.605635416694,
      "v": 101
    },
    {
      "midi": 68,
      "hit": false,
      "t": 265384.5800000012,
      "d": 1015.6248645833693,
      "v": 74
    },
    {
      "midi": 57,
      "hit": false,
      "t": 265384.5800000012,
      "d": 1165.865229166695,
      "v": 83
    },
    {
      "midi": 71,
      "hit": false,
      "t": 266538.4260000012,
      "d": 955.5287187499925,
      "v": 104
    },
    {
      "midi": 63,
      "hit": false,
      "t": 266538.4260000012,
      "d": 1009.6152499999735,
      "v": 112
    },
    {
      "midi": 56,
      "hit": false,
      "t": 266538.4260000012,
      "d": 1027.6440937499865,
      "v": 101
    },
    {
      "midi": 66,
      "hit": false,
      "t": 266538.4260000012,
      "d": 1069.711395833292,
      "v": 107
    },
    {
      "midi": 61,
      "hit": false,
      "t": 267686.2623854178,
      "d": 2109.374718750012,
      "v": 90
    },
    {
      "midi": 64,
      "hit": false,
      "t": 267686.2623854178,
      "d": 2151.4420208333177,
      "v": 101
    },
    {
      "midi": 69,
      "hit": false,
      "t": 267686.2623854178,
      "d": 2199.518937499961,
      "v": 109
    },
    {
      "midi": 54,
      "hit": false,
      "t": 267692.27200000116,
      "d": 2091.345874999999,
      "v": 93
    },
    {
      "midi": 71,
      "hit": false,
      "t": 269993.9543854178,
      "d": 522.8364687500289,
      "v": 86
    },
    {
      "midi": 80,
      "hit": false,
      "t": 269993.9543854178,
      "d": 534.8556979167042,
      "v": 101
    },
    {
      "midi": 64,
      "hit": false,
      "t": 269993.9543854178,
      "d": 979.5671770833433,
      "v": 107
    },
    {
      "midi": 59,
      "hit": false,
      "t": 269993.9543854178,
      "d": 997.5960208333563,
      "v": 99
    },
    {
      "midi": 68,
      "hit": false,
      "t": 269993.9543854178,
      "d": 1081.7306250000256,
      "v": 101
    },
    {
      "midi": 47,
      "hit": false,
      "t": 269993.9543854178,
      "d": 1105.7690833333763,
      "v": 101
    },
    {
      "midi": 73,
      "hit": false,
      "t": 270570.8773854178,
      "d": 618.9903020833735,
      "v": 86
    },
    {
      "midi": 81,
      "hit": false,
      "t": 270570.8773854178,
      "d": 661.0576041666791,
      "v": 70
    },
    {
      "midi": 69,
      "hit": false,
      "t": 271147.8003854178,
      "d": 594.9518437500228,
      "v": 93
    },
    {
      "midi": 78,
      "hit": false,
      "t": 271147.8003854178,
      "d": 673.0768333333544,
      "v": 112
    },
    {
      "midi": 35,
      "hit": false,
      "t": 271153.81000000116,
      "d": 1039.6633229166619,
      "v": 78
    },
    {
      "midi": 59,
      "hit": false,
      "t": 271153.81000000116,
      "d": 1039.6633229166619,
      "v": 86
    },
    {
      "midi": 63,
      "hit": false,
      "t": 271153.81000000116,
      "d": 1057.692166666675,
      "v": 99
    },
    {
      "midi": 66,
      "hit": false,
      "t": 271153.81000000116,
      "d": 1057.692166666675,
      "v": 101
    },
    {
      "midi": 80,
      "hit": false,
      "t": 271724.72338541783,
      "d": 588.9422291666851,
      "v": 101
    },
    {
      "midi": 71,
      "hit": false,
      "t": 271730.7330000012,
      "d": 546.8749270833214,
      "v": 93
    },
    {
      "midi": 52,
      "hit": false,
      "t": 272307.6560000012,
      "d": 1820.9132187500363,
      "v": 90
    },
    {
      "midi": 68,
      "hit": false,
      "t": 272307.6560000012,
      "d": 2193.5093229166814,
      "v": 101
    },
    {
      "midi": 76,
      "hit": false,
      "t": 272307.6560000012,
      "d": 2229.5670104167075,
      "v": 90
    },
    {
      "midi": 56,
      "hit": false,
      "t": 272878.56938541785,
      "d": 895.432572916674,
      "v": 61
    },
    {
      "midi": 59,
      "hit": false,
      "t": 273455.49238541786,
      "d": 1249.9998333333642,
      "v": 90
    },
    {
      "midi": 56,
      "hit": false,
      "t": 274032.4153854179,
      "d": 1730.7690000000293,
      "v": 74
    },
    {
      "midi": 68,
      "hit": false,
      "t": 274609.3383854179,
      "d": 637.0191458333284,
      "v": 101
    },
    {
      "midi": 52,
      "hit": false,
      "t": 274609.3383854179,
      "d": 967.5479479166679,
      "v": 74
    },
    {
      "midi": 64,
      "hit": false,
      "t": 274609.3383854179,
      "d": 1814.9036041666986,
      "v": 99
    },
    {
      "midi": 66,
      "hit": false,
      "t": 275186.2613854179,
      "d": 649.0383750000037,
      "v": 90
    },
    {
      "midi": 59,
      "hit": false,
      "t": 275186.2613854179,
      "d": 793.2691249999916,
      "v": 93
    },
    {
      "midi": 51,
      "hit": false,
      "t": 275763.1843854179,
      "d": 1123.7979270833894,
      "v": 90
    },
    {
      "midi": 68,
      "hit": false,
      "t": 275769.19400000124,
      "d": 691.1056770833675,
      "v": 96
    },
    {
      "midi": 59,
      "hit": false,
      "t": 276340.1073854179,
      "d": 967.5479479167261,
      "v": 78
    },
    {
      "midi": 71,
      "hit": false,
      "t": 276346.11700000125,
      "d": 649.0383750000619,
      "v": 101
    },
    {
      "midi": 61,
      "hit": false,
      "t": 276917.030385418,
      "d": 1941.1055104167317,
      "v": 86
    },
    {
      "midi": 49,
      "hit": false,
      "t": 276917.030385418,
      "d": 2253.605468750058,
      "v": 93
    },
    {
      "midi": 64,
      "hit": false,
      "t": 276923.0400000013,
      "d": 1844.951677083387,
      "v": 112
    },
    {
      "midi": 56,
      "hit": false,
      "t": 277499.9630000013,
      "d": 709.1345208333223,
      "v": 49
    },
    {
      "midi": 59,
      "hit": false,
      "t": 278070.876385418,
      "d": 2199.518937500019,
      "v": 93
    },
    {
      "midi": 56,
      "hit": false,
      "t": 278647.799385418,
      "d": 528.8460833333666,
      "v": 90
    },
    {
      "midi": 47,
      "hit": false,
      "t": 279224.722385418,
      "d": 2247.5958541667205,
      "v": 96
    },
    {
      "midi": 64,
      "hit": false,
      "t": 279230.73200000136,
      "d": 637.0191458333284,
      "v": 104
    },
    {
      "midi": 63,
      "hit": false,
      "t": 279801.645385418,
      "d": 895.432572916674,
      "v": 83
    },
    {
      "midi": 64,
      "hit": false,
      "t": 280378.56838541804,
      "d": 606.9710729166982,
      "v": 101
    },
    {
      "midi": 59,
      "hit": false,
      "t": 280384.5780000014,
      "d": 1099.7594687500386,
      "v": 93
    },
    {
      "midi": 68,
      "hit": false,
      "t": 280955.49138541805,
      "d": 588.9422291666851,
      "v": 112
    },
    {
      "midi": 57,
      "hit": false,
      "t": 281538.4240000014,
      "d": 1147.8363854166819,
      "v": 99
    },
    {
      "midi": 61,
      "hit": false,
      "t": 281538.4240000014,
      "d": 1604.5670937500545,
      "v": 121
    },
    {
      "midi": 45,
      "hit": false,
      "t": 281538.4240000014,
      "d": 2151.442020833376,
      "v": 119
    },
    {
      "midi": 52,
      "hit": false,
      "t": 282109.33738541807,
      "d": 775.2402812500368,
      "v": 70
    },
    {
      "midi": 57,
      "hit": false,
      "t": 282686.2603854181,
      "d": 1550.4805625000154,
      "v": 86
    },
    {
      "midi": 61,
      "hit": false,
      "t": 283263.18338541815,
      "d": 384.61533333332045,
      "v": 101
    },
    {
      "midi": 52,
      "hit": false,
      "t": 283263.18338541815,
      "d": 1298.0767499999492,
      "v": 83
    },
    {
      "midi": 61,
      "hit": false,
      "t": 283840.1063854181,
      "d": 1111.7786979166558,
      "v": 101
    },
    {
      "midi": 45,
      "hit": false,
      "t": 283840.1063854181,
      "d": 1183.8940729166497,
      "v": 93
    },
    {
      "midi": 57,
      "hit": false,
      "t": 284423.03900000144,
      "d": 456.7307083333144,
      "v": 78
    },
    {
      "midi": 56,
      "hit": false,
      "t": 284993.95238541806,
      "d": 576.9230000000098,
      "v": 86
    },
    {
      "midi": 64,
      "hit": false,
      "t": 284993.95238541806,
      "d": 1177.8844583333703,
      "v": 107
    },
    {
      "midi": 44,
      "hit": false,
      "t": 284993.95238541806,
      "d": 1219.9517604166758,
      "v": 93
    },
    {
      "midi": 56,
      "hit": false,
      "t": 285570.87538541807,
      "d": 510.8172395833535,
      "v": 70
    },
    {
      "midi": 57,
      "hit": false,
      "t": 286147.7983854181,
      "d": 1153.8460000000196,
      "v": 112
    },
    {
      "midi": 54,
      "hit": false,
      "t": 286147.7983854181,
      "d": 1718.749770833354,
      "v": 107
    },
    {
      "midi": 42,
      "hit": false,
      "t": 286147.7983854181,
      "d": 2277.6439270833507,
      "v": 99
    },
    {
      "midi": 49,
      "hit": false,
      "t": 286724.7213854181,
      "d": 691.1056770833675,
      "v": 65
    },
    {
      "midi": 57,
      "hit": false,
      "t": 287301.6443854181,
      "d": 618.9903020833153,
      "v": 65
    },
    {
      "midi": 49,
      "hit": false,
      "t": 287878.5673854181,
      "d": 588.9422291666851,
      "v": 74
    },
    {
      "midi": 68,
      "hit": false,
      "t": 288455.4903854181,
      "d": 643.028760416666,
      "v": 127
    },
    {
      "midi": 64,
      "hit": false,
      "t": 288455.4903854181,
      "d": 937.4998749999795,
      "v": 119
    },
    {
      "midi": 59,
      "hit": false,
      "t": 288455.4903854181,
      "d": 2307.691999999981,
      "v": 104
    },
    {
      "midi": 47,
      "hit": false,
      "t": 288455.4903854181,
      "d": 2313.7016145833186,
      "v": 99
    },
    {
      "midi": 69,
      "hit": false,
      "t": 289032.4133854181,
      "d": 618.9903020833153,
      "v": 99
    },
    {
      "midi": 66,
      "hit": false,
      "t": 289609.3363854181,
      "d": 588.9422291666851,
      "v": 101
    },
    {
      "midi": 63,
      "hit": false,
      "t": 289609.3363854181,
      "d": 1153.8460000000196,
      "v": 119
    },
    {
      "midi": 35,
      "hit": false,
      "t": 289615.3460000014,
      "d": 1135.8171562500065,
      "v": 86
    },
    {
      "midi": 68,
      "hit": false,
      "t": 290186.2593854181,
      "d": 558.8941562499967,
      "v": 90
    },
    {
      "midi": 52,
      "hit": false,
      "t": 290769.19200000144,
      "d": 2121.3939479166875,
      "v": 86
    },
    {
      "midi": 64,
      "hit": false,
      "t": 290769.19200000144,
      "d": 2145.432406250038,
      "v": 93
    },
    {
      "midi": 68,
      "hit": false,
      "t": 290769.19200000144,
      "d": 2163.461250000051,
      "v": 109
    },
    {
      "midi": 56,
      "hit": false,
      "t": 291340.1053854181,
      "d": 721.1537499999977,
      "v": 70
    },
    {
      "midi": 59,
      "hit": false,
      "t": 291917.0283854181,
      "d": 1646.63439583336,
      "v": 99
    },
    {
      "midi": 56,
      "hit": false,
      "t": 292493.9513854181,
      "d": 685.0960625000298,
      "v": 86
    },
    {
      "midi": 64,
      "hit": false,
      "t": 293076.8840000015,
      "d": 2091.345874999999,
      "v": 78
    },
    {
      "midi": 52,
      "hit": false,
      "t": 293076.8840000015,
      "d": 2133.4131770833046,
      "v": 86
    },
    {
      "midi": 68,
      "hit": false,
      "t": 293076.8840000015,
      "d": 2133.4131770833046,
      "v": 107
    },
    {
      "midi": 56,
      "hit": false,
      "t": 293647.79738541815,
      "d": 925.4806458333624,
      "v": 70
    },
    {
      "midi": 71,
      "hit": false,
      "t": 293653.8070000015,
      "d": 1706.7305416666204,
      "v": 70
    },
    {
      "midi": 75,
      "hit": false,
      "t": 294224.72038541816,
      "d": 552.8845416666591,
      "v": 83
    },
    {
      "midi": 59,
      "hit": false,
      "t": 294224.72038541816,
      "d": 1177.884458333312,
      "v": 99
    },
    {
      "midi": 76,
      "hit": false,
      "t": 294801.64338541817,
      "d": 612.9806874999776,
      "v": 83
    },
    {
      "midi": 56,
      "hit": false,
      "t": 294801.64338541817,
      "d": 618.9903020833153,
      "v": 86
    },
    {
      "midi": 52,
      "hit": false,
      "t": 295378.5663854181,
      "d": 1868.9901354166795,
      "v": 90
    },
    {
      "midi": 64,
      "hit": false,
      "t": 295378.5663854181,
      "d": 4429.085947916727,
      "v": 74
    },
    {
      "midi": 69,
      "hit": false,
      "t": 295384.57600000146,
      "d": 3846.153333333379,
      "v": 109
    },
    {
      "midi": 57,
      "hit": false,
      "t": 295955.4893854181,
      "d": 901.4421875000116,
      "v": 57
    },
    {
      "midi": 61,
      "hit": false,
      "t": 296532.41238541814,
      "d": 1850.9612916666665,
      "v": 101
    },
    {
      "midi": 76,
      "hit": false,
      "t": 297109.33538541815,
      "d": 510.8172395832953,
      "v": 86
    },
    {
      "midi": 57,
      "hit": false,
      "t": 297109.33538541815,
      "d": 727.1633645832771,
      "v": 96
    },
    {
      "midi": 75,
      "hit": false,
      "t": 297686.2583854181,
      "d": 877.4037291667191,
      "v": 86
    },
    {
      "midi": 52,
      "hit": false,
      "t": 297686.2583854181,
      "d": 2109.3747187500703,
      "v": 83
    },
    {
      "midi": 57,
      "hit": false,
      "t": 298263.1813854181,
      "d": 985.5767916667392,
      "v": 93
    },
    {
      "midi": 71,
      "hit": false,
      "t": 298545.6332708348,
      "d": 1268.0286770833773,
      "v": 93
    },
    {
      "midi": 61,
      "hit": false,
      "t": 298834.09477083484,
      "d": 1087.7402395833633,
      "v": 86
    },
    {
      "midi": 69,
      "hit": false,
      "t": 299417.0273854182,
      "d": 552.8845416666591,
      "v": 78
    },
    {
      "midi": 57,
      "hit": false,
      "t": 299417.0273854182,
      "d": 564.9037708333344,
      "v": 104
    },
    {
      "midi": 52,
      "hit": false,
      "t": 299993.9503854182,
      "d": 2001.2016562500503,
      "v": 83
    },
    {
      "midi": 64,
      "hit": false,
      "t": 299993.9503854182,
      "d": 2103.3651041667326,
      "v": 70
    },
    {
      "midi": 68,
      "hit": false,
      "t": 299993.9503854182,
      "d": 2133.413177083421,
      "v": 74
    },
    {
      "midi": 56,
      "hit": false,
      "t": 300570.8733854182,
      "d": 991.5864062500186,
      "v": 70
    },
    {
      "midi": 59,
      "hit": false,
      "t": 301147.7963854182,
      "d": 1298.0767500000657,
      "v": 93
    },
    {
      "midi": 56,
      "hit": false,
      "t": 301718.7097708349,
      "d": 745.1922083334066,
      "v": 70
    },
    {
      "midi": 52,
      "hit": false,
      "t": 302301.6423854183,
      "d": 2121.3939479166293,
      "v": 83
    },
    {
      "midi": 64,
      "hit": false,
      "t": 302301.6423854183,
      "d": 2157.4516354166553,
      "v": 78
    },
    {
      "midi": 68,
      "hit": false,
      "t": 302301.6423854183,
      "d": 2181.490093750006,
      "v": 93
    },
    {
      "midi": 56,
      "hit": false,
      "t": 302872.55577083497,
      "d": 1033.6537083333242,
      "v": 46
    },
    {
      "midi": 71,
      "hit": false,
      "t": 302878.5653854183,
      "d": 1712.7401562500163,
      "v": 70
    },
    {
      "midi": 75,
      "hit": false,
      "t": 303449.478770835,
      "d": 516.826854166633,
      "v": 99
    },
    {
      "midi": 59,
      "hit": false,
      "t": 303455.4883854183,
      "d": 1207.9325312500587,
      "v": 93
    },
    {
      "midi": 56,
      "hit": false,
      "t": 304026.4017708349,
      "d": 733.1729791667894,
      "v": 74
    },
    {
      "midi": 76,
      "hit": false,
      "t": 304032.41138541827,
      "d": 594.951843750081,
      "v": 70
    },
    {
      "midi": 52,
      "hit": false,
      "t": 304609.33438541833,
      "d": 1947.1151250000112,
      "v": 86
    },
    {
      "midi": 69,
      "hit": false,
      "t": 304609.33438541833,
      "d": 3906.2494791666395,
      "v": 109
    },
    {
      "midi": 64,
      "hit": false,
      "t": 304609.33438541833,
      "d": 4573.316697916656,
      "v": 93
    },
    {
      "midi": 57,
      "hit": false,
      "t": 305186.2573854184,
      "d": 865.3844999999856,
      "v": 53
    },
    {
      "midi": 61,
      "hit": false,
      "t": 305763.1803854184,
      "d": 1562.4997916665743,
      "v": 96
    },
    {
      "midi": 76,
      "hit": false,
      "t": 306340.10338541836,
      "d": 528.8460833333083,
      "v": 93
    },
    {
      "midi": 57,
      "hit": false,
      "t": 306340.10338541836,
      "d": 679.0864479166339,
      "v": 99
    },
    {
      "midi": 75,
      "hit": false,
      "t": 306917.0263854183,
      "d": 871.3941145833232,
      "v": 96
    },
    {
      "midi": 52,
      "hit": false,
      "t": 306917.0263854183,
      "d": 2205.5285520832986,
      "v": 86
    },
    {
      "midi": 57,
      "hit": false,
      "t": 307493.9493854183,
      "d": 949.5191041666549,
      "v": 83
    },
    {
      "midi": 71,
      "hit": false,
      "t": 307782.4108854183,
      "d": 1111.7786979166558,
      "v": 104
    },
    {
      "midi": 60,
      "hit": false,
      "t": 308064.862770835,
      "d": 588.9422291666269,
      "v": 83
    },
    {
      "midi": 57,
      "hit": false,
      "t": 308647.7953854183,
      "d": 498.79801041667815,
      "v": 90
    },
    {
      "midi": 69,
      "hit": false,
      "t": 308647.7953854183,
      "d": 534.8556979167042,
      "v": 83
    },
    {
      "midi": 59,
      "hit": false,
      "t": 309230.72800000163,
      "d": 558.8941562499967,
      "v": 101
    },
    {
      "midi": 52,
      "hit": false,
      "t": 309230.72800000163,
      "d": 1874.9997500000172,
      "v": 90
    },
    {
      "midi": 68,
      "hit": false,
      "t": 309230.72800000163,
      "d": 2139.4227916667005,
      "v": 70
    },
    {
      "midi": 64,
      "hit": false,
      "t": 309230.72800000163,
      "d": 2199.518937500019,
      "v": 107
    },
    {
      "midi": 59,
      "hit": false,
      "t": 309807.65100000164,
      "d": 769.2306666666991,
      "v": 74
    },
    {
      "midi": 56,
      "hit": false,
      "t": 310384.57400000165,
      "d": 1370.1921249999432,
      "v": 93
    },
    {
      "midi": 59,
      "hit": false,
      "t": 310961.49700000166,
      "d": 528.8460833333083,
      "v": 78
    },
    {
      "midi": 52,
      "hit": false,
      "t": 311538.4200000016,
      "d": 2596.153500000073,
      "v": 90
    },
    {
      "midi": 59,
      "hit": false,
      "t": 312115.3430000016,
      "d": 673.0768333333544,
      "v": 83
    },
    {
      "midi": 63,
      "hit": false,
      "t": 312692.26600000163,
      "d": 588.9422291666851,
      "v": 86
    },
    {
      "midi": 64,
      "hit": false,
      "t": 313269.18900000164,
      "d": 606.9710729166982,
      "v": 101
    },
    {
      "midi": 66,
      "hit": false,
      "t": 313840.1023854183,
      "d": 558.894156250055,
      "v": 90
    },
    {
      "midi": 61,
      "hit": false,
      "t": 313840.1023854183,
      "d": 1159.8556145834154,
      "v": 96
    },
    {
      "midi": 46,
      "hit": false,
      "t": 313846.11200000165,
      "d": 1159.8556145834154,
      "v": 107
    },
    {
      "midi": 68,
      "hit": false,
      "t": 314417.0253854184,
      "d": 637.0191458333284,
      "v": 86
    },
    {
      "midi": 64,
      "hit": false,
      "t": 314993.9483854184,
      "d": 582.9326145833475,
      "v": 104
    },
    {
      "midi": 45,
      "hit": false,
      "t": 314993.9483854184,
      "d": 1298.0767500000075,
      "v": 83
    },
    {
      "midi": 60,
      "hit": false,
      "t": 314999.95800000173,
      "d": 1201.9229166666628,
      "v": 101
    },
    {
      "midi": 63,
      "hit": false,
      "t": 315570.8713854184,
      "d": 703.1249062499846,
      "v": 74
    },
    {
      "midi": 64,
      "hit": false,
      "t": 316147.7943854184,
      "d": 624.999916666653,
      "v": 114
    },
    {
      "midi": 59,
      "hit": false,
      "t": 316153.80400000175,
      "d": 1069.711395833292,
      "v": 107
    },
    {
      "midi": 44,
      "hit": false,
      "t": 316153.80400000175,
      "d": 1274.0382916666567,
      "v": 90
    },
    {
      "midi": 66,
      "hit": false,
      "t": 316730.72700000176,
      "d": 661.0576041666209,
      "v": 101
    },
    {
      "midi": 63,
      "hit": false,
      "t": 317307.6500000017,
      "d": 1292.0671354166698,
      "v": 90
    },
    {
      "midi": 59,
      "hit": false,
      "t": 317307.6500000017,
      "d": 5733.172312500072,
      "v": 107
    },
    {
      "midi": 37,
      "hit": false,
      "t": 317313.65961458505,
      "d": 5697.114625000046,
      "v": 93
    },
    {
      "midi": 62,
      "hit": false,
      "t": 318467.50561458507,
      "d": 4519.230166666675,
      "v": 93
    },
    {
      "midi": 54,
      "hit": false,
      "t": 322866.54348958505,
      "d": 2463.9419791667606,
      "v": 59
    },
    {
      "midi": 57,
      "hit": false,
      "t": 322980.7261666684,
      "d": 600.9614583334187,
      "v": 86
    },
    {
      "midi": 61,
      "hit": false,
      "t": 323040.8223125018,
      "d": 1105.7690833333763,
      "v": 89
    },
    {
      "midi": 64,
      "hit": false,
      "t": 323076.8800000018,
      "d": 1646.63439583336,
      "v": 87
    },
    {
      "midi": 42,
      "hit": false,
      "t": 323082.88961458515,
      "d": 2265.6246979166754,
      "v": 93
    },
    {
      "midi": 57,
      "hit": false,
      "t": 323653.8030000018,
      "d": 1442.3074999999953,
      "v": 93
    },
    {
      "midi": 61,
      "hit": false,
      "t": 324230.7260000018,
      "d": 1153.8460000000196,
      "v": 93
    },
    {
      "midi": 64,
      "hit": false,
      "t": 324807.64900000184,
      "d": 1153.8460000000196,
      "v": 93
    },
    {
      "midi": 68,
      "hit": false,
      "t": 325384.57200000185,
      "d": 570.9133854166721,
      "v": 107
    },
    {
      "midi": 59,
      "hit": false,
      "t": 325384.57200000185,
      "d": 631.0095312499907,
      "v": 86
    },
    {
      "midi": 56,
      "hit": false,
      "t": 325384.57200000185,
      "d": 649.0383750000037,
      "v": 83
    },
    {
      "midi": 54,
      "hit": false,
      "t": 325961.49500000186,
      "d": 576.9230000000098,
      "v": 90
    },
    {
      "midi": 61,
      "hit": false,
      "t": 325961.49500000186,
      "d": 624.999916666653,
      "v": 70
    },
    {
      "midi": 69,
      "hit": false,
      "t": 325961.49500000186,
      "d": 679.0864479166339,
      "v": 86
    },
    {
      "midi": 52,
      "hit": false,
      "t": 326538.41800000187,
      "d": 468.74993749993155,
      "v": 86
    },
    {
      "midi": 66,
      "hit": false,
      "t": 326538.41800000187,
      "d": 612.9806874999776,
      "v": 74
    },
    {
      "midi": 57,
      "hit": false,
      "t": 326544.4276145852,
      "d": 570.9133854166139,
      "v": 90
    },
    {
      "midi": 51,
      "hit": false,
      "t": 327109.3313854185,
      "d": 643.028760416666,
      "v": 78
    },
    {
      "midi": 59,
      "hit": false,
      "t": 327115.3410000018,
      "d": 534.8556979167042,
      "v": 83
    },
    {
      "midi": 68,
      "hit": false,
      "t": 327121.35061458516,
      "d": 516.8268541666912,
      "v": 83
    },
    {
      "midi": 40,
      "hit": false,
      "t": 327692.26400000183,
      "d": 9188.700697916676,
      "v": 83
    },
    {
      "midi": 52,
      "hit": false,
      "t": 327692.26400000183,
      "d": 9230.767999999982,
      "v": 104
    },
    {
      "midi": 56,
      "hit": false,
      "t": 328263.1773854185,
      "d": 823.31719791668,
      "v": 57
    },
    {
      "midi": 59,
      "hit": false,
      "t": 328840.1003854185,
      "d": 1243.9902187500265,
      "v": 86
    },
    {
      "midi": 56,
      "hit": false,
      "t": 329417.0233854185,
      "d": 7506.00861458329,
      "v": 61
    },
    {
      "midi": 64,
      "hit": false,
      "t": 329993.94638541853,
      "d": 1430.28827083332,
      "v": 99
    },
    {
      "midi": 59,
      "hit": false,
      "t": 330570.86938541854,
      "d": 6352.162614583271,
      "v": 93
    },
    {
      "midi": 68,
      "hit": false,
      "t": 331141.7827708352,
      "d": 5781.2492291665985,
      "v": 93
    },
    {
      "midi": 64,
      "hit": false,
      "t": 331712.6961562518,
      "d": 5210.335843749985,
      "v": 70
    },
    {
      "midi": 76,
      "hit": false,
      "t": 332289.61915625184,
      "d": 4633.412843749975,
      "v": 90
    }
  ]
}