{
  "jsonPath": "Rock/Pub Rock/Dave Edmunds/classical-gas.json",
  "path": "Rock\\Pub Rock\\Dave Edmunds\\Classical Gas.mid",
  "name": "Classical Gas",
  "difficulty": "Intermediate",
  "bpm": 120,
  "notes": [
    {
      "midi": 60,
      "hit": false,
      "t": 0,
      "d": 333.3333333333333,
      "v": 79
    },
    {
      "midi": 45,
      "hit": false,
      "t": 0,
      "d": 989.5833333333333,
      "v": 79
    },
    {
      "midi": 57,
      "hit": false,
      "t": 500,
      "d": 333.33333333333326,
      "v": 79
    },
    {
      "midi": 60,
      "hit": false,
      "t": 999.9999999999999,
      "d": 333.33333333333337,
      "v": 79
    },
    {
      "midi": 43,
      "hit": false,
      "t": 1500,
      "d": 656.25,
      "v": 79
    },
    {
      "midi": 55,
      "hit": false,
      "t": 1500,
      "d": 989.5833333333335,
      "v": 79
    },
    {
      "midi": 59,
      "hit": false,
      "t": 1500,
      "d": 989.5833333333335,
      "v": 79
    },
    {
      "midi": 42,
      "hit": false,
      "t": 2500,
      "d": 166.66666666666652,
      "v": 79
    },
    {
      "midi": 40,
      "hit": false,
      "t": 2750,
      "d": 1750,
      "v": 79
    },
    {
      "midi": 55,
      "hit": false,
      "t": 3000,
      "d": 500,
      "v": 79
    },
    {
      "midi": 59,
      "hit": false,
      "t": 3000,
      "d": 500,
      "v": 79
    },
    {
      "midi": 57,
      "hit": false,
      "t": 3500,
      "d": 500,
      "v": 79
    },
    {
      "midi": 55,
      "hit": false,
      "t": 4000,
      "d": 500,
      "v": 79
    },
    {
      "midi": 45,
      "hit": false,
      "t": 4500,
      "d": 1500,
      "v": 79
    },
    {
      "midi": 52,
      "hit": false,
      "t": 4500,
      "d": 1500,
      "v": 79
    },
    {
      "midi": 57,
      "hit": false,
      "t": 4500,
      "d": 1500,
      "v": 79
    },
    {
      "midi": 57,
      "hit": false,
      "t": 6000,
      "d": 250,
      "v": 79
    },
    {
      "midi": 59,
      "hit": false,
      "t": 6000,
      "d": 250,
      "v": 79
    },
    {
      "midi": 45,
      "hit": false,
      "t": 6000,
      "d": 1500,
      "v": 79
    },
    {
      "midi": 60,
      "hit": false,
      "t": 6250,
      "d": 250,
      "v": 79
    },
    {
      "midi": 57,
      "hit": false,
      "t": 6500,
      "d": 250,
      "v": 79
    },
    {
      "midi": 59,
      "hit": false,
      "t": 6750,
      "d": 250,
      "v": 79
    },
    {
      "midi": 60,
      "hit": false,
      "t": 7000,
      "d": 500,
      "v": 79
    },
    {
      "midi": 43,
      "hit": false,
      "t": 7500,
      "d": 1500,
      "v": 79
    },
    {
      "midi": 55,
      "hit": false,
      "t": 7500,
      "d": 1500,
      "v": 79
    },
    {
      "midi": 59,
      "hit": false,
      "t": 7500,
      "d": 1500,
      "v": 79
    },
    {
      "midi": 42,
      "hit": false,
      "t": 8500,
      "d": 250,
      "v": 79
    },
    {
      "midi": 40,
      "hit": false,
      "t": 8750,
      "d": 2250,
      "v": 79
    },
    {
      "midi": 55,
      "hit": false,
      "t": 9000,
      "d": 500,
      "v": 79
    },
    {
      "midi": 59,
      "hit": false,
      "t": 9000,
      "d": 500,
      "v": 79
    },
    {
      "midi": 57,
      "hit": false,
      "t": 9500,
      "d": 500,
      "v": 79
    },
    {
      "midi": 55,
      "hit": false,
      "t": 10000,
      "d": 500,
      "v": 79
    },
    {
      "midi": 57,
      "hit": false,
      "t": 10250,
      "d": 250,
      "v": 79
    },
    {
      "midi": 59,
      "hit": false,
      "t": 10500,
      "d": 500,
      "v": 79
    },
    {
      "midi": 45,
      "hit": false,
      "t": 11000,
      "d": 1500,
      "v": 79
    },
    {
      "midi": 52,
      "hit": false,
      "t": 11000,
      "d": 1500,
      "v": 79
    },
    {
      "midi": 57,
      "hit": false,
      "t": 11000,
      "d": 1500,
      "v": 79
    },
    {
      "midi": 43,
      "hit": false,
      "t": 12500,
      "d": 499.9999999999982,
      "v": 79
    },
    {
      "midi": 55,
      "hit": false,
      "t": 12666.666666666666,
      "d": 166.66666666666606,
      "v": 79
    },
    {
      "midi": 59,
      "hit": false,
      "t": 12833.333333333332,
      "d": 166.66666666666606,
      "v": 79
    },
    {
      "midi": 45,
      "hit": false,
      "t": 12999.999999999998,
      "d": 499.9999999999982,
      "v": 79
    },
    {
      "midi": 57,
      "hit": false,
      "t": 13166.666666666664,
      "d": 166.66666666666606,
      "v": 79
    },
    {
      "midi": 60,
      "hit": false,
      "t": 13333.33333333333,
      "d": 166.66666666666606,
      "v": 79
    },
    {
      "midi": 47,
      "hit": false,
      "t": 13499.999999999996,
      "d": 499.9999999999982,
      "v": 79
    },
    {
      "midi": 55,
      "hit": false,
      "t": 13666.666666666662,
      "d": 166.66666666666606,
      "v": 79
    },
    {
      "midi": 62,
      "hit": false,
      "t": 13833.333333333328,
      "d": 166.66666666666606,
      "v": 79
    },
    {
      "midi": 48,
      "hit": false,
      "t": 13999.999999999995,
      "d": 500,
      "v": 79
    },
    {
      "midi": 64,
      "hit": false,
      "t": 13999.999999999995,
      "d": 750,
      "v": 79
    },
    {
      "midi": 55,
      "hit": false,
      "t": 14499.999999999995,
      "d": 500,
      "v": 79
    },
    {
      "midi": 62,
      "hit": false,
      "t": 14749.999999999995,
      "d": 250,
      "v": 79
    },
    {
      "midi": 60,
      "hit": false,
      "t": 14999.999999999995,
      "d": 500,
      "v": 79
    },
    {
      "midi": 57,
      "hit": false,
      "t": 14999.999999999995,
      "d": 1000,
      "v": 79
    },
    {
      "midi": 62,
      "hit": false,
      "t": 15499.999999999995,
      "d": 500,
      "v": 79
    },
    {
      "midi": 52,
      "hit": false,
      "t": 15999.999999999995,
      "d": 1999.9999999999982,
      "v": 79
    },
    {
      "midi": 60,
      "hit": false,
      "t": 16499.999999999993,
      "d": 500,
      "v": 79
    },
    {
      "midi": 59,
      "hit": false,
      "t": 16999.999999999993,
      "d": 1000,
      "v": 79
    }
  ]
}