{
  "jsonPath": "Rock/Folk Rock/The Young Rascals/groovin-single-version.json",
  "path": "Rock\\Folk Rock\\The Young Rascals\\Groovin  (Single Version).mid",
  "name": "Groovin  (Single Version)",
  "difficulty": "Advanced",
  "bpm": 107.00146235331883,
  "notes": [
    {
      "midi": 55,
      "hit": false,
      "t": 2242.96,
      "d": 93.45666666666648,
      "v": 88
    },
    {
      "midi": 58,
      "hit": false,
      "t": 2242.96,
      "d": 134.34395833333292,
      "v": 88
    },
    {
      "midi": 63,
      "hit": false,
      "t": 2242.96,
      "d": 144.56578124999942,
      "v": 88
    },
    {
      "midi": 60,
      "hit": false,
      "t": 2242.96,
      "d": 148.94656249999935,
      "v": 88
    },
    {
      "midi": 39,
      "hit": false,
      "t": 2242.96,
      "d": 810.4445312499993,
      "v": 99
    },
    {
      "midi": 55,
      "hit": false,
      "t": 2523.3299999999995,
      "d": 132.88369791666673,
      "v": 88
    },
    {
      "midi": 58,
      "hit": false,
      "t": 2523.3299999999995,
      "d": 141.6452604166666,
      "v": 88
    },
    {
      "midi": 60,
      "hit": false,
      "t": 2523.3299999999995,
      "d": 141.6452604166666,
      "v": 88
    },
    {
      "midi": 63,
      "hit": false,
      "t": 2523.3299999999995,
      "d": 141.6452604166666,
      "v": 88
    },
    {
      "midi": 55,
      "hit": false,
      "t": 2803.6999999999994,
      "d": 113.90031249999993,
      "v": 88
    },
    {
      "midi": 60,
      "hit": false,
      "t": 2803.6999999999994,
      "d": 113.90031249999993,
      "v": 88
    },
    {
      "midi": 58,
      "hit": false,
      "t": 2803.6999999999994,
      "d": 132.88369791666673,
      "v": 88
    },
    {
      "midi": 63,
      "hit": false,
      "t": 2803.6999999999994,
      "d": 132.88369791666673,
      "v": 88
    },
    {
      "midi": 55,
      "hit": false,
      "t": 3084.0699999999993,
      "d": 134.34395833333338,
      "v": 88
    },
    {
      "midi": 60,
      "hit": false,
      "t": 3084.0699999999993,
      "d": 134.34395833333338,
      "v": 88
    },
    {
      "midi": 63,
      "hit": false,
      "t": 3084.0699999999993,
      "d": 141.6452604166666,
      "v": 88
    },
    {
      "midi": 58,
      "hit": false,
      "t": 3084.0699999999993,
      "d": 151.86708333333308,
      "v": 88
    },
    {
      "midi": 46,
      "hit": false,
      "t": 3084.0699999999993,
      "d": 728.6699479166659,
      "v": 70
    },
    {
      "midi": 55,
      "hit": false,
      "t": 3364.439999999999,
      "d": 94.91692708333312,
      "v": 88
    },
    {
      "midi": 58,
      "hit": false,
      "t": 3364.439999999999,
      "d": 122.66187499999978,
      "v": 88
    },
    {
      "midi": 60,
      "hit": false,
      "t": 3364.439999999999,
      "d": 129.963177083333,
      "v": 88
    },
    {
      "midi": 63,
      "hit": false,
      "t": 3364.439999999999,
      "d": 129.963177083333,
      "v": 88
    },
    {
      "midi": 55,
      "hit": false,
      "t": 3644.8099999999986,
      "d": 86.15536458333327,
      "v": 88
    },
    {
      "midi": 63,
      "hit": false,
      "t": 3644.8099999999986,
      "d": 121.20161458333314,
      "v": 88
    },
    {
      "midi": 58,
      "hit": false,
      "t": 3644.8099999999986,
      "d": 141.6452604166666,
      "v": 88
    },
    {
      "midi": 60,
      "hit": false,
      "t": 3644.8099999999986,
      "d": 146.02604166666652,
      "v": 88
    },
    {
      "midi": 55,
      "hit": false,
      "t": 3925.1799999999985,
      "d": 99.2977083333335,
      "v": 88
    },
    {
      "midi": 58,
      "hit": false,
      "t": 3925.1799999999985,
      "d": 144.56578125000033,
      "v": 88
    },
    {
      "midi": 63,
      "hit": false,
      "t": 3925.1799999999985,
      "d": 144.56578125000033,
      "v": 88
    },
    {
      "midi": 60,
      "hit": false,
      "t": 3925.1799999999985,
      "d": 153.32734375000018,
      "v": 88
    },
    {
      "midi": 46,
      "hit": false,
      "t": 3925.1799999999985,
      "d": 537.3758333333335,
      "v": 77
    },
    {
      "midi": 58,
      "hit": false,
      "t": 4205.549999999998,
      "d": 87.61562500000036,
      "v": 88
    },
    {
      "midi": 55,
      "hit": false,
      "t": 4205.549999999998,
      "d": 97.83744791666686,
      "v": 88
    },
    {
      "midi": 60,
      "hit": false,
      "t": 4205.549999999998,
      "d": 128.50291666666726,
      "v": 88
    },
    {
      "midi": 63,
      "hit": false,
      "t": 4205.549999999998,
      "d": 137.26447916666712,
      "v": 88
    },
    {
      "midi": 53,
      "hit": false,
      "t": 4485.919999999998,
      "d": 122.66187499999978,
      "v": 88
    },
    {
      "midi": 60,
      "hit": false,
      "t": 4485.919999999998,
      "d": 122.66187499999978,
      "v": 88
    },
    {
      "midi": 56,
      "hit": false,
      "t": 4485.919999999998,
      "d": 129.963177083333,
      "v": 88
    },
    {
      "midi": 63,
      "hit": false,
      "t": 4485.919999999998,
      "d": 167.9299479166666,
      "v": 88
    },
    {
      "midi": 41,
      "hit": false,
      "t": 4485.919999999998,
      "d": 714.06734375,
      "v": 60
    },
    {
      "midi": 56,
      "hit": false,
      "t": 4766.289999999998,
      "d": 105.13875000000007,
      "v": 88
    },
    {
      "midi": 60,
      "hit": false,
      "t": 4766.289999999998,
      "d": 118.28109374999985,
      "v": 88
    },
    {
      "midi": 53,
      "hit": false,
      "t": 4766.289999999998,
      "d": 134.34395833333292,
      "v": 88
    },
    {
      "midi": 63,
      "hit": false,
      "t": 4766.289999999998,
      "d": 140.1849999999995,
      "v": 88
    },
    {
      "midi": 56,
      "hit": false,
      "t": 5046.659999999998,
      "d": 87.61562500000036,
      "v": 88
    },
    {
      "midi": 60,
      "hit": false,
      "t": 5046.659999999998,
      "d": 102.21822916666679,
      "v": 88
    },
    {
      "midi": 53,
      "hit": false,
      "t": 5046.659999999998,
      "d": 125.58239583333307,
      "v": 88
    },
    {
      "midi": 63,
      "hit": false,
      "t": 5046.659999999998,
      "d": 153.32734375000018,
      "v": 88
    },
    {
      "midi": 56,
      "hit": false,
      "t": 5327.029999999998,
      "d": 113.90031249999993,
      "v": 88
    },
    {
      "midi": 60,
      "hit": false,
      "t": 5327.029999999998,
      "d": 125.58239583333307,
      "v": 88
    },
    {
      "midi": 53,
      "hit": false,
      "t": 5327.029999999998,
      "d": 129.963177083333,
      "v": 88
    },
    {
      "midi": 63,
      "hit": false,
      "t": 5327.029999999998,
      "d": 156.24786458333256,
      "v": 88
    },
    {
      "midi": 46,
      "hit": false,
      "t": 5327.029999999998,
      "d": 838.1894791666655,
      "v": 86
    },
    {
      "midi": 60,
      "hit": false,
      "t": 5607.399999999997,
      "d": 102.21822916666679,
      "v": 88
    },
    {
      "midi": 56,
      "hit": false,
      "t": 5607.399999999997,
      "d": 106.59901041666672,
      "v": 88
    },
    {
      "midi": 53,
      "hit": false,
      "t": 5607.399999999997,
      "d": 116.82083333333321,
      "v": 88
    },
    {
      "midi": 63,
      "hit": false,
      "t": 5607.399999999997,
      "d": 141.64526041666613,
      "v": 88
    },
    {
      "midi": 63,
      "hit": false,
      "t": 5607.400000000001,
      "d": 576.8028645833328,
      "v": 99
    },
    {
      "midi": 75,
      "hit": false,
      "t": 5607.400000000001,
      "d": 576.8028645833328,
      "v": 99
    },
    {
      "midi": 87,
      "hit": false,
      "t": 5607.400000000001,
      "d": 576.8028645833328,
      "v": 99
    },
    {
      "midi": 56,
      "hit": false,
      "t": 5887.769999999997,
      "d": 105.13875000000007,
      "v": 88
    },
    {
      "midi": 60,
      "hit": false,
      "t": 5887.769999999997,
      "d": 116.82083333333321,
      "v": 88
    },
    {
      "midi": 53,
      "hit": false,
      "t": 5887.769999999997,
      "d": 122.66187499999978,
      "v": 88
    },
    {
      "midi": 63,
      "hit": false,
      "t": 5887.769999999997,
      "d": 151.86708333333354,
      "v": 88
    },
    {
      "midi": 60,
      "hit": false,
      "t": 6168.139999999997,
      "d": 113.90031249999993,
      "v": 88
    },
    {
      "midi": 53,
      "hit": false,
      "t": 6168.139999999997,
      "d": 128.50291666666635,
      "v": 88
    },
    {
      "midi": 56,
      "hit": false,
      "t": 6168.139999999997,
      "d": 128.50291666666635,
      "v": 88
    },
    {
      "midi": 63,
      "hit": false,
      "t": 6168.139999999997,
      "d": 163.54916666666668,
      "v": 88
    },
    {
      "midi": 34,
      "hit": false,
      "t": 6168.139999999997,
      "d": 420.5550000000003,
      "v": 70
    },
    {
      "midi": 60,
      "hit": false,
      "t": 6168.14,
      "d": 550.5181770833333,
      "v": 60
    },
    {
      "midi": 72,
      "hit": false,
      "t": 6168.14,
      "d": 550.5181770833333,
      "v": 60
    },
    {
      "midi": 84,
      "hit": false,
      "t": 6168.14,
      "d": 550.5181770833333,
      "v": 60
    },
    {
      "midi": 56,
      "hit": false,
      "t": 6448.509999999997,
      "d": 86.15536458333372,
      "v": 88
    },
    {
      "midi": 60,
      "hit": false,
      "t": 6448.509999999997,
      "d": 97.83744791666686,
      "v": 88
    },
    {
      "midi": 53,
      "hit": false,
      "t": 6448.509999999997,
      "d": 105.13875000000007,
      "v": 88
    },
    {
      "midi": 63,
      "hit": false,
      "t": 6448.509999999997,
      "d": 169.39020833333416,
      "v": 88
    },
    {
      "midi": 58,
      "hit": false,
      "t": 6728.879999999997,
      "d": 118.28109374999985,
      "v": 88
    },
    {
      "midi": 55,
      "hit": false,
      "t": 6728.879999999997,
      "d": 128.50291666666635,
      "v": 88
    },
    {
      "midi": 60,
      "hit": false,
      "t": 6728.879999999997,
      "d": 128.50291666666635,
      "v": 88
    },
    {
      "midi": 63,
      "hit": false,
      "t": 6728.879999999997,
      "d": 157.7081250000001,
      "v": 88
    },
    {
      "midi": 39,
      "hit": false,
      "t": 6728.879999999997,
      "d": 810.4445312499993,
      "v": 99
    },
    {
      "midi": 58,
      "hit": false,
      "t": 6728.88,
      "d": 2026.8414583333333,
      "v": 99
    },
    {
      "midi": 70,
      "hit": false,
      "t": 6728.88,
      "d": 2026.8414583333333,
      "v": 99
    },
    {
      "midi": 82,
      "hit": false,
      "t": 6728.88,
      "d": 2026.8414583333333,
      "v": 99
    },
    {
      "midi": 55,
      "hit": false,
      "t": 7009.249999999997,
      "d": 125.58239583333307,
      "v": 88
    },
    {
      "midi": 60,
      "hit": false,
      "t": 7009.249999999997,
      "d": 125.58239583333307,
      "v": 88
    },
    {
      "midi": 58,
      "hit": false,
      "t": 7009.249999999997,
      "d": 129.963177083333,
      "v": 88
    },
    {
      "midi": 63,
      "hit": false,
      "t": 7009.249999999997,
      "d": 144.56578124999942,
      "v": 88
    },
    {
      "midi": 55,
      "hit": false,
      "t": 7289.619999999997,
      "d": 106.59901041666672,
      "v": 88
    },
    {
      "midi": 58,
      "hit": false,
      "t": 7289.619999999997,
      "d": 125.58239583333307,
      "v": 88
    },
    {
      "midi": 60,
      "hit": false,
      "t": 7289.619999999997,
      "d": 125.58239583333307,
      "v": 88
    },
    {
      "midi": 63,
      "hit": false,
      "t": 7289.619999999997,
      "d": 125.58239583333307,
      "v": 88
    },
    {
      "midi": 55,
      "hit": false,
      "t": 7569.989999999997,
      "d": 99.2977083333335,
      "v": 88
    },
    {
      "midi": 58,
      "hit": false,
      "t": 7569.989999999997,
      "d": 129.9631770833339,
      "v": 88
    },
    {
      "midi": 63,
      "hit": false,
      "t": 7569.989999999997,
      "d": 129.9631770833339,
      "v": 88
    },
    {
      "midi": 60,
      "hit": false,
      "t": 7569.989999999997,
      "d": 134.34395833333383,
      "v": 88
    },
    {
      "midi": 46,
      "hit": false,
      "t": 7569.989999999997,
      "d": 728.6699479166664,
      "v": 70
    },
    {
      "midi": 55,
      "hit": false,
      "t": 7850.359999999998,
      "d": 109.51953125,
      "v": 88
    },
    {
      "midi": 58,
      "hit": false,
      "t": 7850.359999999998,
      "d": 116.82083333333321,
      "v": 88
    },
    {
      "midi": 60,
      "hit": false,
      "t": 7850.359999999998,
      "d": 125.58239583333307,
      "v": 88
    },
    {
      "midi": 63,
      "hit": false,
      "t": 7850.359999999998,
      "d": 140.1849999999995,
      "v": 88
    },
    {
      "midi": 55,
      "hit": false,
      "t": 8130.729999999998,
      "d": 105.13875000000007,
      "v": 88
    },
    {
      "midi": 63,
      "hit": false,
      "t": 8130.729999999998,
      "d": 118.28109374999985,
      "v": 88
    },
    {
      "midi": 60,
      "hit": false,
      "t": 8130.729999999998,
      "d": 122.66187499999978,
      "v": 88
    },
    {
      "midi": 58,
      "hit": false,
      "t": 8130.729999999998,
      "d": 132.88369791666628,
      "v": 88
    },
    {
      "midi": 55,
      "hit": false,
      "t": 8411.099999999997,
      "d": 106.59901041666672,
      "v": 88
    },
    {
      "midi": 63,
      "hit": false,
      "t": 8411.099999999997,
      "d": 118.28109374999985,
      "v": 88
    },
    {
      "midi": 58,
      "hit": false,
      "t": 8411.099999999997,
      "d": 128.50291666666635,
      "v": 88
    },
    {
      "midi": 60,
      "hit": false,
      "t": 8411.099999999997,
      "d": 132.88369791666628,
      "v": 88
    },
    {
      "midi": 46,
      "hit": false,
      "t": 8411.099999999997,
      "d": 537.3758333333317,
      "v": 77
    },
    {
      "midi": 55,
      "hit": false,
      "t": 8691.469999999996,
      "d": 81.7745833333338,
      "v": 88
    },
    {
      "midi": 58,
      "hit": false,
      "t": 8691.469999999996,
      "d": 121.20161458333314,
      "v": 88
    },
    {
      "midi": 60,
      "hit": false,
      "t": 8691.469999999996,
      "d": 121.20161458333314,
      "v": 88
    },
    {
      "midi": 63,
      "hit": false,
      "t": 8691.469999999996,
      "d": 144.56578124999942,
      "v": 88
    },
    {
      "midi": 53,
      "hit": false,
      "t": 8971.839999999995,
      "d": 128.50291666666635,
      "v": 88
    },
    {
      "midi": 60,
      "hit": false,
      "t": 8971.839999999995,
      "d": 128.50291666666635,
      "v": 88
    },
    {
      "midi": 56,
      "hit": false,
      "t": 8971.839999999995,
      "d": 144.56578124999942,
      "v": 88
    },
    {
      "midi": 63,
      "hit": false,
      "t": 8971.839999999995,
      "d": 172.31072916666562,
      "v": 88
    },
    {
      "midi": 41,
      "hit": false,
      "t": 8971.839999999995,
      "d": 714.0673437499972,
      "v": 60
    },
    {
      "midi": 60,
      "hit": false,
      "t": 9252.209999999994,
      "d": 99.2977083333335,
      "v": 88
    },
    {
      "midi": 56,
      "hit": false,
      "t": 9252.209999999994,
      "d": 106.59901041666672,
      "v": 88
    },
    {
      "midi": 53,
      "hit": false,
      "t": 9252.209999999994,
      "d": 134.34395833333292,
      "v": 88
    },
    {
      "midi": 63,
      "hit": false,
      "t": 9252.209999999994,
      "d": 141.64526041666613,
      "v": 88
    },
    {
      "midi": 60,
      "hit": false,
      "t": 9532.579999999993,
      "d": 93.45666666666693,
      "v": 88
    },
    {
      "midi": 56,
      "hit": false,
      "t": 9532.579999999993,
      "d": 110.97979166666664,
      "v": 88
    },
    {
      "midi": 53,
      "hit": false,
      "t": 9532.579999999993,
      "d": 134.34395833333292,
      "v": 88
    },
    {
      "midi": 63,
      "hit": false,
      "t": 9532.579999999993,
      "d": 148.94656249999935,
      "v": 88
    },
    {
      "midi": 56,
      "hit": false,
      "t": 9812.949999999992,
      "d": 116.82083333333321,
      "v": 88
    },
    {
      "midi": 60,
      "hit": false,
      "t": 9812.949999999992,
      "d": 125.58239583333307,
      "v": 88
    },
    {
      "midi": 63,
      "hit": false,
      "t": 9812.949999999992,
      "d": 141.64526041666613,
      "v": 88
    },
    {
      "midi": 53,
      "hit": false,
      "t": 9812.949999999992,
      "d": 146.02604166666606,
      "v": 88
    },
    {
      "midi": 46,
      "hit": false,
      "t": 9812.949999999992,
      "d": 838.1894791666637,
      "v": 86
    },
    {
      "midi": 56,
      "hit": false,
      "t": 10093.31999999999,
      "d": 90.53614583333365,
      "v": 88
    },
    {
      "midi": 60,
      "hit": false,
      "t": 10093.31999999999,
      "d": 122.66187499999978,
      "v": 88
    },
    {
      "midi": 63,
      "hit": false,
      "t": 10093.31999999999,
      "d": 129.963177083333,
      "v": 88
    },
    {
      "midi": 53,
      "hit": false,
      "t": 10093.31999999999,
      "d": 134.34395833333292,
      "v": 88
    },
    {
      "midi": 63,
      "hit": false,
      "t": 10093.32,
      "d": 554.8989583333332,
      "v": 99
    },
    {
      "midi": 75,
      "hit": false,
      "t": 10093.32,
      "d": 554.8989583333332,
      "v": 99
    },
    {
      "midi": 87,
      "hit": false,
      "t": 10093.32,
      "d": 554.8989583333332,
      "v": 99
    },
    {
      "midi": 56,
      "hit": false,
      "t": 10373.68999999999,
      "d": 109.51953125,
      "v": 88
    },
    {
      "midi": 60,
      "hit": false,
      "t": 10373.68999999999,
      "d": 116.82083333333321,
      "v": 88
    },
    {
      "midi": 53,
      "hit": false,
      "t": 10373.68999999999,
      "d": 125.58239583333307,
      "v": 88
    },
    {
      "midi": 63,
      "hit": false,
      "t": 10373.68999999999,
      "d": 146.02604166666606,
      "v": 88
    },
    {
      "midi": 56,
      "hit": false,
      "t": 10654.059999999989,
      "d": 94.91692708333358,
      "v": 88
    },
    {
      "midi": 60,
      "hit": false,
      "t": 10654.059999999989,
      "d": 102.21822916666679,
      "v": 88
    },
    {
      "midi": 53,
      "hit": false,
      "t": 10654.059999999989,
      "d": 129.963177083333,
      "v": 88
    },
    {
      "midi": 63,
      "hit": false,
      "t": 10654.059999999989,
      "d": 129.963177083333,
      "v": 88
    },
    {
      "midi": 34,
      "hit": false,
      "t": 10654.059999999989,
      "d": 420.5549999999985,
      "v": 70
    },
    {
      "midi": 60,
      "hit": false,
      "t": 10654.06,
      "d": 508.17062500000065,
      "v": 71
    },
    {
      "midi": 72,
      "hit": false,
      "t": 10654.06,
      "d": 508.17062500000065,
      "v": 71
    },
    {
      "midi": 84,
      "hit": false,
      "t": 10654.06,
      "d": 508.17062500000065,
      "v": 71
    },
    {
      "midi": 60,
      "hit": false,
      "t": 10934.429999999988,
      "d": 78.85406250000051,
      "v": 88
    },
    {
      "midi": 56,
      "hit": false,
      "t": 10934.429999999988,
      "d": 83.23484375000044,
      "v": 88
    },
    {
      "midi": 53,
      "hit": false,
      "t": 10934.429999999988,
      "d": 110.97979166666664,
      "v": 88
    },
    {
      "midi": 63,
      "hit": false,
      "t": 10934.429999999988,
      "d": 122.66187499999978,
      "v": 88
    },
    {
      "midi": 55,
      "hit": false,
      "t": 11214.799999999987,
      "d": 93.45666666666693,
      "v": 88
    },
    {
      "midi": 60,
      "hit": false,
      "t": 11214.799999999987,
      "d": 128.50291666666635,
      "v": 88
    },
    {
      "midi": 58,
      "hit": false,
      "t": 11214.799999999987,
      "d": 134.34395833333292,
      "v": 88
    },
    {
      "midi": 63,
      "hit": false,
      "t": 11214.799999999987,
      "d": 144.56578124999942,
      "v": 88
    },
    {
      "midi": 39,
      "hit": false,
      "t": 11214.799999999987,
      "d": 810.4445312499975,
      "v": 99
    },
    {
      "midi": 60,
      "hit": false,
      "t": 11495.169999999986,
      "d": 128.50291666666635,
      "v": 88
    },
    {
      "midi": 55,
      "hit": false,
      "t": 11495.169999999986,
      "d": 132.88369791666628,
      "v": 88
    },
    {
      "midi": 58,
      "hit": false,
      "t": 11495.169999999986,
      "d": 141.64526041666613,
      "v": 88
    },
    {
      "midi": 63,
      "hit": false,
      "t": 11495.169999999986,
      "d": 141.64526041666613,
      "v": 88
    },
    {
      "midi": 55,
      "hit": false,
      "t": 11775.539999999985,
      "d": 113.90031249999993,
      "v": 88
    },
    {
      "midi": 60,
      "hit": false,
      "t": 11775.539999999985,
      "d": 125.58239583333307,
      "v": 88
    },
    {
      "midi": 58,
      "hit": false,
      "t": 11775.539999999985,
      "d": 132.88369791666628,
      "v": 88
    },
    {
      "midi": 63,
      "hit": false,
      "t": 11775.539999999985,
      "d": 132.88369791666628,
      "v": 88
    },
    {
      "midi": 60,
      "hit": false,
      "t": 12055.909999999983,
      "d": 125.58239583333307,
      "v": 88
    },
    {
      "midi": 55,
      "hit": false,
      "t": 12055.909999999983,
      "d": 134.34395833333292,
      "v": 88
    },
    {
      "midi": 63,
      "hit": false,
      "t": 12055.909999999983,
      "d": 141.64526041666613,
      "v": 88
    },
    {
      "midi": 58,
      "hit": false,
      "t": 12055.909999999983,
      "d": 151.86708333333263,
      "v": 88
    },
    {
      "midi": 46,
      "hit": false,
      "t": 12055.909999999983,
      "d": 728.6699479166637,
      "v": 70
    },
    {
      "midi": 55,
      "hit": false,
      "t": 12336.279999999982,
      "d": 94.91692708333358,
      "v": 88
    },
    {
      "midi": 60,
      "hit": false,
      "t": 12336.279999999982,
      "d": 113.90031249999993,
      "v": 88
    },
    {
      "midi": 58,
      "hit": false,
      "t": 12336.279999999982,
      "d": 122.66187499999978,
      "v": 88
    },
    {
      "midi": 63,
      "hit": false,
      "t": 12336.279999999982,
      "d": 129.963177083333,
      "v": 88
    },
    {
      "midi": 55,
      "hit": false,
      "t": 12616.649999999981,
      "d": 86.15536458333372,
      "v": 88
    },
    {
      "midi": 60,
      "hit": false,
      "t": 12616.649999999981,
      "d": 116.82083333333321,
      "v": 88
    },
    {
      "midi": 63,
      "hit": false,
      "t": 12616.649999999981,
      "d": 121.20161458333314,
      "v": 88
    },
    {
      "midi": 58,
      "hit": false,
      "t": 12616.649999999981,
      "d": 141.64526041666613,
      "v": 88
    },
    {
      "midi": 55,
      "hit": false,
      "t": 12897.01999999998,
      "d": 99.2977083333335,
      "v": 88
    },
    {
      "midi": 60,
      "hit": false,
      "t": 12897.01999999998,
      "d": 118.28109374999985,
      "v": 88
    },
    {
      "midi": 58,
      "hit": false,
      "t": 12897.01999999998,
      "d": 144.56578124999942,
      "v": 88
    },
    {
      "midi": 63,
      "hit": false,
      "t": 12897.01999999998,
      "d": 144.56578124999942,
      "v": 88
    },
    {
      "midi": 46,
      "hit": false,
      "t": 12897.01999999998,
      "d": 537.3758333333317,
      "v": 77
    },
    {
      "midi": 58,
      "hit": false,
      "t": 13177.38999999998,
      "d": 87.61562500000036,
      "v": 88
    },
    {
      "midi": 55,
      "hit": false,
      "t": 13177.38999999998,
      "d": 97.83744791666686,
      "v": 88
    },
    {
      "midi": 60,
      "hit": false,
      "t": 13177.38999999998,
      "d": 110.97979166666664,
      "v": 88
    },
    {
      "midi": 63,
      "hit": false,
      "t": 13177.38999999998,
      "d": 137.2644791666662,
      "v": 88
    },
    {
      "midi": 53,
      "hit": false,
      "t": 13457.759999999978,
      "d": 121.20161458333314,
      "v": 88
    },
    {
      "midi": 60,
      "hit": false,
      "t": 13457.759999999978,
      "d": 125.58239583333307,
      "v": 88
    },
    {
      "midi": 56,
      "hit": false,
      "t": 13457.759999999978,
      "d": 129.963177083333,
      "v": 88
    },
    {
      "midi": 63,
      "hit": false,
      "t": 13457.759999999978,
      "d": 167.9299479166657,
      "v": 88
    },
    {
      "midi": 41,
      "hit": false,
      "t": 13457.759999999978,
      "d": 714.0673437499972,
      "v": 60
    },
    {
      "midi": 56,
      "hit": false,
      "t": 13738.129999999977,
      "d": 105.13875000000007,
      "v": 88
    },
    {
      "midi": 53,
      "hit": false,
      "t": 13738.129999999977,
      "d": 118.28109374999985,
      "v": 88
    },
    {
      "midi": 60,
      "hit": false,
      "t": 13738.129999999977,
      "d": 118.28109374999985,
      "v": 88
    },
    {
      "midi": 63,
      "hit": false,
      "t": 13738.129999999977,
      "d": 140.1849999999995,
      "v": 88
    },
    {
      "midi": 56,
      "hit": false,
      "t": 14018.499999999976,
      "d": 87.61562500000036,
      "v": 88
    },
    {
      "midi": 60,
      "hit": false,
      "t": 14018.499999999976,
      "d": 102.21822916666679,
      "v": 88
    },
    {
      "midi": 53,
      "hit": false,
      "t": 14018.499999999976,
      "d": 110.97979166666664,
      "v": 88
    },
    {
      "midi": 63,
      "hit": false,
      "t": 14018.499999999976,
      "d": 153.32734374999927,
      "v": 88
    },
    {
      "midi": 56,
      "hit": false,
      "t": 14298.869999999975,
      "d": 113.90031249999993,
      "v": 88
    },
    {
      "midi": 53,
      "hit": false,
      "t": 14298.869999999975,
      "d": 118.28109374999985,
      "v": 88
    },
    {
      "midi": 60,
      "hit": false,
      "t": 14298.869999999975,
      "d": 125.58239583333307,
      "v": 88
    },
    {
      "midi": 63,
      "hit": false,
      "t": 14298.869999999975,
      "d": 156.24786458333256,
      "v": 88
    },
    {
      "midi": 46,
      "hit": false,
      "t": 14298.869999999975,
      "d": 838.1894791666637,
      "v": 86
    },
    {
      "midi": 60,
      "hit": false,
      "t": 14579.239999999974,
      "d": 102.21822916666679,
      "v": 88
    },
    {
      "midi": 56,
      "hit": false,
      "t": 14579.239999999974,
      "d": 106.59901041666672,
      "v": 88
    },
    {
      "midi": 53,
      "hit": false,
      "t": 14579.239999999974,
      "d": 122.66187499999978,
      "v": 88
    },
    {
      "midi": 63,
      "hit": false,
      "t": 14579.239999999974,
      "d": 141.64526041666613,
      "v": 88
    },
    {
      "midi": 56,
      "hit": false,
      "t": 14859.609999999973,
      "d": 105.13875000000007,
      "v": 88
    },
    {
      "midi": 53,
      "hit": false,
      "t": 14859.609999999973,
      "d": 113.90031249999993,
      "v": 88
    },
    {
      "midi": 60,
      "hit": false,
      "t": 14859.609999999973,
      "d": 113.90031249999993,
      "v": 88
    },
    {
      "midi": 63,
      "hit": false,
      "t": 14859.609999999973,
      "d": 151.86708333333263,
      "v": 88
    },
    {
      "midi": 53,
      "hit": false,
      "t": 15139.979999999972,
      "d": 106.59901041666672,
      "v": 88
    },
    {
      "midi": 60,
      "hit": false,
      "t": 15139.979999999972,
      "d": 113.90031249999993,
      "v": 88
    },
    {
      "midi": 56,
      "hit": false,
      "t": 15139.979999999972,
      "d": 128.50291666666635,
      "v": 88
    },
    {
      "midi": 63,
      "hit": false,
      "t": 15139.979999999972,
      "d": 163.54916666666577,
      "v": 88
    },
    {
      "midi": 34,
      "hit": false,
      "t": 15139.979999999972,
      "d": 420.5549999999985,
      "v": 70
    },
    {
      "midi": 56,
      "hit": false,
      "t": 15420.349999999971,
      "d": 86.15536458333372,
      "v": 88
    },
    {
      "midi": 60,
      "hit": false,
      "t": 15420.349999999971,
      "d": 97.83744791666686,
      "v": 88
    },
    {
      "midi": 53,
      "hit": false,
      "t": 15420.349999999971,
      "d": 106.59901041666672,
      "v": 88
    },
    {
      "midi": 63,
      "hit": false,
      "t": 15420.349999999971,
      "d": 169.39020833333234,
      "v": 88
    },
    {
      "midi": 60,
      "hit": false,
      "t": 15700.71999999997,
      "d": 109.51953125,
      "v": 88
    },
    {
      "midi": 58,
      "hit": false,
      "t": 15700.71999999997,
      "d": 118.28109374999985,
      "v": 88
    },
    {
      "midi": 55,
      "hit": false,
      "t": 15700.71999999997,
      "d": 128.50291666666635,
      "v": 88
    },
    {
      "midi": 63,
      "hit": false,
      "t": 15700.71999999997,
      "d": 157.7081249999992,
      "v": 88
    },
    {
      "midi": 39,
      "hit": false,
      "t": 15700.71999999997,
      "d": 810.4445312499975,
      "v": 99
    },
    {
      "midi": 60,
      "hit": false,
      "t": 15981.08999999997,
      "d": 105.13875000000007,
      "v": 88
    },
    {
      "midi": 55,
      "hit": false,
      "t": 15981.08999999997,
      "d": 128.50291666666635,
      "v": 88
    },
    {
      "midi": 58,
      "hit": false,
      "t": 15981.08999999997,
      "d": 128.50291666666635,
      "v": 88
    },
    {
      "midi": 63,
      "hit": false,
      "t": 15981.08999999997,
      "d": 144.56578124999942,
      "v": 88
    },
    {
      "midi": 55,
      "hit": false,
      "t": 16261.459999999968,
      "d": 106.59901041666672,
      "v": 88
    },
    {
      "midi": 60,
      "hit": false,
      "t": 16261.459999999968,
      "d": 110.97979166666664,
      "v": 88
    },
    {
      "midi": 58,
      "hit": false,
      "t": 16261.459999999968,
      "d": 125.58239583333307,
      "v": 88
    },
    {
      "midi": 63,
      "hit": false,
      "t": 16261.459999999968,
      "d": 125.58239583333307,
      "v": 88
    },
    {
      "midi": 55,
      "hit": false,
      "t": 16541.82999999997,
      "d": 99.29770833333168,
      "v": 88
    },
    {
      "midi": 60,
      "hit": false,
      "t": 16541.82999999997,
      "d": 110.97979166666482,
      "v": 88
    },
    {
      "midi": 58,
      "hit": false,
      "t": 16541.82999999997,
      "d": 129.963177083333,
      "v": 88
    },
    {
      "midi": 63,
      "hit": false,
      "t": 16541.82999999997,
      "d": 129.963177083333,
      "v": 88
    },
    {
      "midi": 46,
      "hit": false,
      "t": 16541.82999999997,
      "d": 728.6699479166673,
      "v": 70
    },
    {
      "midi": 55,
      "hit": false,
      "t": 16822.199999999968,
      "d": 109.51953125,
      "v": 88
    },
    {
      "midi": 58,
      "hit": false,
      "t": 16822.199999999968,
      "d": 113.90031250000175,
      "v": 88
    },
    {
      "midi": 60,
      "hit": false,
      "t": 16822.199999999968,
      "d": 113.90031250000175,
      "v": 88
    },
    {
      "midi": 63,
      "hit": false,
      "t": 16822.199999999968,
      "d": 140.1850000000013,
      "v": 88
    },
    {
      "midi": 55,
      "hit": false,
      "t": 17102.56999999997,
      "d": 105.13874999999825,
      "v": 88
    },
    {
      "midi": 60,
      "hit": false,
      "t": 17102.56999999997,
      "d": 116.8208333333314,
      "v": 88
    },
    {
      "midi": 63,
      "hit": false,
      "t": 17102.56999999997,
      "d": 116.8208333333314,
      "v": 88
    },
    {
      "midi": 58,
      "hit": false,
      "t": 17102.56999999997,
      "d": 132.88369791666628,
      "v": 88
    },
    {
      "midi": 55,
      "hit": false,
      "t": 17382.93999999997,
      "d": 105.13874999999825,
      "v": 88
    },
    {
      "midi": 60,
      "hit": false,
      "t": 17382.93999999997,
      "d": 105.13874999999825,
      "v": 88
    },
    {
      "midi": 63,
      "hit": false,
      "t": 17382.93999999997,
      "d": 118.28109374999985,
      "v": 88
    },
    {
      "midi": 58,
      "hit": false,
      "t": 17382.93999999997,
      "d": 128.50291666666817,
      "v": 88
    },
    {
      "midi": 46,
      "hit": false,
      "t": 17382.93999999997,
      "d": 537.375833333339,
      "v": 77
    },
    {
      "midi": 55,
      "hit": false,
      "t": 17663.309999999972,
      "d": 81.77458333333198,
      "v": 88
    },
    {
      "midi": 60,
      "hit": false,
      "t": 17663.309999999972,
      "d": 106.59901041666672,
      "v": 88
    },
    {
      "midi": 58,
      "hit": false,
      "t": 17663.309999999972,
      "d": 122.6618750000016,
      "v": 88
    },
    {
      "midi": 63,
      "hit": false,
      "t": 17663.309999999972,
      "d": 144.56578125000306,
      "v": 88
    },
    {
      "midi": 53,
      "hit": false,
      "t": 17943.679999999975,
      "d": 113.90031250000175,
      "v": 88
    },
    {
      "midi": 60,
      "hit": false,
      "t": 17943.679999999975,
      "d": 129.96317708333663,
      "v": 88
    },
    {
      "midi": 56,
      "hit": false,
      "t": 17943.679999999975,
      "d": 144.56578125000306,
      "v": 88
    },
    {
      "midi": 63,
      "hit": false,
      "t": 17943.679999999975,
      "d": 172.31072916667108,
      "v": 88
    },
    {
      "midi": 41,
      "hit": false,
      "t": 17943.679999999975,
      "d": 714.0673437500009,
      "v": 60
    },
    {
      "midi": 60,
      "hit": false,
      "t": 18224.049999999977,
      "d": 99.29770833333168,
      "v": 88
    },
    {
      "midi": 56,
      "hit": false,
      "t": 18224.049999999977,
      "d": 106.59901041666672,
      "v": 88
    },
    {
      "midi": 53,
      "hit": false,
      "t": 18224.049999999977,
      "d": 118.28109374999985,
      "v": 88
    },
    {
      "midi": 63,
      "hit": false,
      "t": 18224.049999999977,
      "d": 141.64526041666613,
      "v": 88
    },
    {
      "midi": 60,
      "hit": false,
      "t": 18504.419999999976,
      "d": 93.45666666666511,
      "v": 88
    },
    {
      "midi": 56,
      "hit": false,
      "t": 18504.419999999976,
      "d": 110.97979166666482,
      "v": 88
    },
    {
      "midi": 53,
      "hit": false,
      "t": 18504.419999999976,
      "d": 128.50291666666453,
      "v": 88
    },
    {
      "midi": 63,
      "hit": false,
      "t": 18504.419999999976,
      "d": 148.94656249999753,
      "v": 88
    },
    {
      "midi": 53,
      "hit": false,
      "t": 18784.789999999975,
      "d": 110.97979166666846,
      "v": 88
    },
    {
      "midi": 56,
      "hit": false,
      "t": 18784.789999999975,
      "d": 116.82083333333503,
      "v": 88
    },
    {
      "midi": 60,
      "hit": false,
      "t": 18784.789999999975,
      "d": 125.58239583333489,
      "v": 88
    },
    {
      "midi": 63,
      "hit": false,
      "t": 18784.789999999975,
      "d": 141.64526041666977,
      "v": 88
    },
    {
      "midi": 46,
      "hit": false,
      "t": 18784.789999999975,
      "d": 838.1894791666709,
      "v": 86
    },
    {
      "midi": 56,
      "hit": false,
      "t": 19065.159999999978,
      "d": 90.53614583333183,
      "v": 88
    },
    {
      "midi": 53,
      "hit": false,
      "t": 19065.159999999978,
      "d": 116.8208333333314,
      "v": 88
    },
    {
      "midi": 60,
      "hit": false,
      "t": 19065.159999999978,
      "d": 122.66187499999796,
      "v": 88
    },
    {
      "midi": 63,
      "hit": false,
      "t": 19065.159999999978,
      "d": 129.963177083333,
      "v": 88
    },
    {
      "midi": 53,
      "hit": false,
      "t": 19345.529999999977,
      "d": 105.13874999999825,
      "v": 88
    },
    {
      "midi": 56,
      "hit": false,
      "t": 19345.529999999977,
      "d": 109.51953125,
      "v": 88
    },
    {
      "midi": 60,
      "hit": false,
      "t": 19345.529999999977,
      "d": 116.82083333333503,
      "v": 88
    },
    {
      "midi": 63,
      "hit": false,
      "t": 19345.529999999977,
      "d": 146.02604166666788,
      "v": 88
    },
    {
      "midi": 56,
      "hit": false,
      "t": 19625.89999999998,
      "d": 94.91692708333358,
      "v": 88
    },
    {
      "midi": 53,
      "hit": false,
      "t": 19625.89999999998,
      "d": 102.2182291666686,
      "v": 88
    },
    {
      "midi": 60,
      "hit": false,
      "t": 19625.89999999998,
      "d": 102.2182291666686,
      "v": 88
    },
    {
      "midi": 63,
      "hit": false,
      "t": 19625.89999999998,
      "d": 129.96317708333663,
      "v": 88
    },
    {
      "midi": 34,
      "hit": false,
      "t": 19625.89999999998,
      "d": 420.55500000000393,
      "v": 70
    },
    {
      "midi": 60,
      "hit": false,
      "t": 19906.269999999982,
      "d": 78.85406249999869,
      "v": 88
    },
    {
      "midi": 56,
      "hit": false,
      "t": 19906.269999999982,
      "d": 83.23484375000044,
      "v": 88
    },
    {
      "midi": 53,
      "hit": false,
      "t": 19906.269999999982,
      "d": 90.53614583333547,
      "v": 88
    },
    {
      "midi": 63,
      "hit": false,
      "t": 19906.269999999982,
      "d": 122.6618750000016,
      "v": 88
    },
    {
      "midi": 55,
      "hit": false,
      "t": 20186.639999999985,
      "d": 93.45666666666511,
      "v": 88
    },
    {
      "midi": 60,
      "hit": false,
      "t": 20186.639999999985,
      "d": 105.13874999999825,
      "v": 88
    },
    {
      "midi": 58,
      "hit": false,
      "t": 20186.639999999985,
      "d": 134.3439583333311,
      "v": 88
    },
    {
      "midi": 63,
      "hit": false,
      "t": 20186.639999999985,
      "d": 144.56578124999942,
      "v": 88
    },
    {
      "midi": 39,
      "hit": false,
      "t": 20186.639999999985,
      "d": 810.4445312500029,
      "v": 99
    },
    {
      "midi": 60,
      "hit": false,
      "t": 20467.009999999984,
      "d": 109.51953125,
      "v": 88
    },
    {
      "midi": 55,
      "hit": false,
      "t": 20467.009999999984,
      "d": 132.88369791666628,
      "v": 88
    },
    {
      "midi": 58,
      "hit": false,
      "t": 20467.009999999984,
      "d": 141.64526041666613,
      "v": 88
    },
    {
      "midi": 63,
      "hit": false,
      "t": 20467.009999999984,
      "d": 141.64526041666613,
      "v": 88
    },
    {
      "midi": 55,
      "hit": false,
      "t": 20747.379999999983,
      "d": 110.97979166666846,
      "v": 88
    },
    {
      "midi": 60,
      "hit": false,
      "t": 20747.379999999983,
      "d": 110.97979166666846,
      "v": 88
    },
    {
      "midi": 58,
      "hit": false,
      "t": 20747.379999999983,
      "d": 132.88369791666992,
      "v": 88
    },
    {
      "midi": 63,
      "hit": false,
      "t": 20747.379999999983,
      "d": 132.88369791666992,
      "v": 88
    },
    {
      "midi": 60,
      "hit": false,
      "t": 21027.74999999999,
      "d": 102.21822916666497,
      "v": 88
    },
    {
      "midi": 55,
      "hit": false,
      "t": 21027.74999999999,
      "d": 134.3439583333311,
      "v": 88
    },
    {
      "midi": 63,
      "hit": false,
      "t": 21027.74999999999,
      "d": 141.64526041666613,
      "v": 88
    },
    {
      "midi": 58,
      "hit": false,
      "t": 21027.74999999999,
      "d": 151.86708333333445,
      "v": 88
    },
    {
      "midi": 46,
      "hit": false,
      "t": 21027.74999999999,
      "d": 728.6699479166746,
      "v": 70
    },
    {
      "midi": 55,
      "hit": false,
      "t": 21308.11999999999,
      "d": 94.91692708333358,
      "v": 88
    },
    {
      "midi": 60,
      "hit": false,
      "t": 21308.11999999999,
      "d": 106.59901041666672,
      "v": 88
    },
    {
      "midi": 58,
      "hit": false,
      "t": 21308.11999999999,
      "d": 122.6618750000016,
      "v": 88
    },
    {
      "midi": 63,
      "hit": false,
      "t": 21308.11999999999,
      "d": 129.96317708333663,
      "v": 88
    },
    {
      "midi": 55,
      "hit": false,
      "t": 21588.489999999994,
      "d": 86.15536458333372,
      "v": 88
    },
    {
      "midi": 60,
      "hit": false,
      "t": 21588.489999999994,
      "d": 113.90031250000175,
      "v": 88
    },
    {
      "midi": 63,
      "hit": false,
      "t": 21588.489999999994,
      "d": 121.20161458333678,
      "v": 88
    },
    {
      "midi": 58,
      "hit": false,
      "t": 21588.489999999994,
      "d": 141.64526041666977,
      "v": 88
    },
    {
      "midi": 55,
      "hit": false,
      "t": 21868.859999999997,
      "d": 99.29770833333168,
      "v": 88
    },
    {
      "midi": 60,
      "hit": false,
      "t": 21868.859999999997,
      "d": 109.51953125,
      "v": 88
    },
    {
      "midi": 58,
      "hit": false,
      "t": 21868.859999999997,
      "d": 144.56578124999942,
      "v": 88
    },
    {
      "midi": 63,
      "hit": false,
      "t": 21868.859999999997,
      "d": 144.56578124999942,
      "v": 88
    },
    {
      "midi": 46,
      "hit": false,
      "t": 21868.859999999997,
      "d": 537.3758333333353,
      "v": 77
    },
    {
      "midi": 58,
      "hit": false,
      "t": 22149.229999999996,
      "d": 87.61562499999854,
      "v": 88
    },
    {
      "midi": 55,
      "hit": false,
      "t": 22149.229999999996,
      "d": 97.83744791666686,
      "v": 88
    },
    {
      "midi": 60,
      "hit": false,
      "t": 22149.229999999996,
      "d": 109.51953125,
      "v": 88
    },
    {
      "midi": 63,
      "hit": false,
      "t": 22149.229999999996,
      "d": 137.26447916666802,
      "v": 88
    },
    {
      "midi": 53,
      "hit": false,
      "t": 22429.6,
      "d": 118.28109374999985,
      "v": 88
    },
    {
      "midi": 60,
      "hit": false,
      "t": 22429.6,
      "d": 125.58239583333489,
      "v": 88
    },
    {
      "midi": 56,
      "hit": false,
      "t": 22429.6,
      "d": 129.96317708333663,
      "v": 88
    },
    {
      "midi": 63,
      "hit": false,
      "t": 22429.6,
      "d": 167.92994791666933,
      "v": 88
    },
    {
      "midi": 41,
      "hit": false,
      "t": 22429.6,
      "d": 714.0673437500045,
      "v": 60
    },
    {
      "midi": 56,
      "hit": false,
      "t": 22709.97,
      "d": 105.13874999999825,
      "v": 88
    },
    {
      "midi": 53,
      "hit": false,
      "t": 22709.97,
      "d": 109.51953125,
      "v": 88
    },
    {
      "midi": 60,
      "hit": false,
      "t": 22709.97,
      "d": 118.28109374999985,
      "v": 88
    },
    {
      "midi": 63,
      "hit": false,
      "t": 22709.97,
      "d": 140.1850000000013,
      "v": 88
    },
    {
      "midi": 56,
      "hit": false,
      "t": 22990.340000000004,
      "d": 87.61562499999854,
      "v": 88
    },
    {
      "midi": 60,
      "hit": false,
      "t": 22990.340000000004,
      "d": 102.21822916666497,
      "v": 88
    },
    {
      "midi": 53,
      "hit": false,
      "t": 22990.340000000004,
      "d": 110.97979166666482,
      "v": 88
    },
    {
      "midi": 63,
      "hit": false,
      "t": 22990.340000000004,
      "d": 153.32734374999927,
      "v": 88
    },
    {
      "midi": 53,
      "hit": false,
      "t": 23270.710000000003,
      "d": 110.97979166666846,
      "v": 88
    },
    {
      "midi": 56,
      "hit": false,
      "t": 23270.710000000003,
      "d": 110.97979166666846,
      "v": 88
    },
    {
      "midi": 60,
      "hit": false,
      "t": 23270.710000000003,
      "d": 125.58239583333489,
      "v": 88
    },
    {
      "midi": 63,
      "hit": false,
      "t": 23270.710000000003,
      "d": 156.2478645833362,
      "v": 88
    },
    {
      "midi": 46,
      "hit": false,
      "t": 23270.710000000003,
      "d": 838.1894791666673,
      "v": 86
    },
    {
      "midi": 60,
      "hit": false,
      "t": 23551.080000000005,
      "d": 102.21822916666497,
      "v": 88
    },
    {
      "midi": 53,
      "hit": false,
      "t": 23551.080000000005,
      "d": 106.59901041666672,
      "v": 88
    },
    {
      "midi": 56,
      "hit": false,
      "t": 23551.080000000005,
      "d": 106.59901041666672,
      "v": 88
    },
    {
      "midi": 63,
      "hit": false,
      "t": 23551.080000000005,
      "d": 141.64526041666613,
      "v": 88
    },
    {
      "midi": 53,
      "hit": false,
      "t": 23831.450000000004,
      "d": 99.29770833333168,
      "v": 88
    },
    {
      "midi": 56,
      "hit": false,
      "t": 23831.450000000004,
      "d": 105.13874999999825,
      "v": 88
    },
    {
      "midi": 60,
      "hit": false,
      "t": 23831.450000000004,
      "d": 116.8208333333314,
      "v": 88
    },
    {
      "midi": 63,
      "hit": false,
      "t": 23831.450000000004,
      "d": 151.8670833333308,
      "v": 88
    },
    {
      "midi": 53,
      "hit": false,
      "t": 24111.820000000003,
      "d": 99.29770833333168,
      "v": 88
    },
    {
      "midi": 60,
      "hit": false,
      "t": 24111.820000000003,
      "d": 113.90031249999811,
      "v": 88
    },
    {
      "midi": 56,
      "hit": false,
      "t": 24111.820000000003,
      "d": 128.50291666666453,
      "v": 88
    },
    {
      "midi": 63,
      "hit": false,
      "t": 24111.820000000003,
      "d": 163.54916666666395,
      "v": 88
    },
    {
      "midi": 34,
      "hit": false,
      "t": 24111.820000000003,
      "d": 420.5550000000003,
      "v": 70
    },
    {
      "midi": 56,
      "hit": false,
      "t": 24392.190000000002,
      "d": 86.15536458333372,
      "v": 88
    },
    {
      "midi": 53,
      "hit": false,
      "t": 24392.190000000002,
      "d": 97.83744791666686,
      "v": 88
    },
    {
      "midi": 60,
      "hit": false,
      "t": 24392.190000000002,
      "d": 97.83744791666686,
      "v": 88
    },
    {
      "midi": 63,
      "hit": false,
      "t": 24392.190000000002,
      "d": 169.39020833333416,
      "v": 88
    },
    {
      "midi": 60,
      "hit": false,
      "t": 24672.560000000005,
      "d": 99.29770833333168,
      "v": 88
    },
    {
      "midi": 58,
      "hit": false,
      "t": 24672.560000000005,
      "d": 118.28109374999985,
      "v": 88
    },
    {
      "midi": 55,
      "hit": false,
      "t": 24672.560000000005,
      "d": 128.50291666666817,
      "v": 88
    },
    {
      "midi": 63,
      "hit": false,
      "t": 24672.560000000005,
      "d": 157.70812500000102,
      "v": 88
    },
    {
      "midi": 39,
      "hit": false,
      "t": 24672.560000000005,
      "d": 810.4445312500029,
      "v": 99
    },
    {
      "midi": 60,
      "hit": false,
      "t": 24952.930000000008,
      "d": 102.21822916666497,
      "v": 88
    },
    {
      "midi": 55,
      "hit": false,
      "t": 24952.930000000008,
      "d": 128.50291666666453,
      "v": 88
    },
    {
      "midi": 58,
      "hit": false,
      "t": 24952.930000000008,
      "d": 128.50291666666453,
      "v": 88
    },
    {
      "midi": 63,
      "hit": false,
      "t": 24952.930000000008,
      "d": 144.56578124999942,
      "v": 88
    },
    {
      "midi": 55,
      "hit": false,
      "t": 25233.300000000007,
      "d": 106.59901041666672,
      "v": 88
    },
    {
      "midi": 60,
      "hit": false,
      "t": 25233.300000000007,
      "d": 106.59901041666672,
      "v": 88
    },
    {
      "midi": 58,
      "hit": false,
      "t": 25233.300000000007,
      "d": 125.58239583333489,
      "v": 88
    },
    {
      "midi": 63,
      "hit": false,
      "t": 25233.300000000007,
      "d": 125.58239583333489,
      "v": 88
    },
    {
      "midi": 55,
      "hit": false,
      "t": 25513.67000000001,
      "d": 99.29770833333168,
      "v": 88
    },
    {
      "midi": 60,
      "hit": false,
      "t": 25513.67000000001,
      "d": 109.51953125,
      "v": 88
    },
    {
      "midi": 58,
      "hit": false,
      "t": 25513.67000000001,
      "d": 129.963177083333,
      "v": 88
    },
    {
      "midi": 63,
      "hit": false,
      "t": 25513.67000000001,
      "d": 129.963177083333,
      "v": 88
    },
    {
      "midi": 46,
      "hit": false,
      "t": 25513.67000000001,
      "d": 728.6699479166673,
      "v": 70
    },
    {
      "midi": 55,
      "hit": false,
      "t": 25794.040000000008,
      "d": 109.51953125,
      "v": 88
    },
    {
      "midi": 58,
      "hit": false,
      "t": 25794.040000000008,
      "d": 116.82083333333503,
      "v": 88
    },
    {
      "midi": 60,
      "hit": false,
      "t": 25794.040000000008,
      "d": 116.82083333333503,
      "v": 88
    },
    {
      "midi": 63,
      "hit": false,
      "t": 25794.040000000008,
      "d": 140.1850000000013,
      "v": 88
    },
    {
      "midi": 55,
      "hit": false,
      "t": 26074.41000000001,
      "d": 105.13874999999825,
      "v": 88
    },
    {
      "midi": 60,
      "hit": false,
      "t": 26074.41000000001,
      "d": 113.90031249999811,
      "v": 88
    },
    {
      "midi": 63,
      "hit": false,
      "t": 26074.41000000001,
      "d": 118.28109374999985,
      "v": 88
    },
    {
      "midi": 58,
      "hit": false,
      "t": 26074.41000000001,
      "d": 132.88369791666628,
      "v": 88
    },
    {
      "midi": 55,
      "hit": false,
      "t": 26354.78000000001,
      "d": 106.59901041666672,
      "v": 88
    },
    {
      "midi": 63,
      "hit": false,
      "t": 26354.78000000001,
      "d": 118.28109374999985,
      "v": 88
    },
    {
      "midi": 60,
      "hit": false,
      "t": 26354.78000000001,
      "d": 122.6618750000016,
      "v": 88
    },
    {
      "midi": 58,
      "hit": false,
      "t": 26354.78000000001,
      "d": 128.50291666666817,
      "v": 88
    },
    {
      "midi": 46,
      "hit": false,
      "t": 26354.78000000001,
      "d": 537.375833333339,
      "v": 77
    },
    {
      "midi": 55,
      "hit": false,
      "t": 26635.150000000012,
      "d": 81.77458333333198,
      "v": 88
    },
    {
      "midi": 60,
      "hit": false,
      "t": 26635.150000000012,
      "d": 106.59901041666672,
      "v": 88
    },
    {
      "midi": 58,
      "hit": false,
      "t": 26635.150000000012,
      "d": 122.6618750000016,
      "v": 88
    },
    {
      "midi": 63,
      "hit": false,
      "t": 26635.150000000012,
      "d": 144.56578125000306,
      "v": 88
    },
    {
      "midi": 53,
      "hit": false,
      "t": 26915.520000000015,
      "d": 113.90031250000175,
      "v": 88
    },
    {
      "midi": 60,
      "hit": false,
      "t": 26915.520000000015,
      "d": 129.96317708333663,
      "v": 88
    },
    {
      "midi": 56,
      "hit": false,
      "t": 26915.520000000015,
      "d": 144.56578125000306,
      "v": 88
    },
    {
      "midi": 63,
      "hit": false,
      "t": 26915.520000000015,
      "d": 172.31072916667108,
      "v": 88
    },
    {
      "midi": 41,
      "hit": false,
      "t": 26915.520000000015,
      "d": 714.0673437500081,
      "v": 60
    },
    {
      "midi": 60,
      "hit": false,
      "t": 27195.890000000018,
      "d": 99.29770833333168,
      "v": 88
    },
    {
      "midi": 56,
      "hit": false,
      "t": 27195.890000000018,
      "d": 106.59901041666672,
      "v": 88
    },
    {
      "midi": 53,
      "hit": false,
      "t": 27195.890000000018,
      "d": 116.82083333333503,
      "v": 88
    },
    {
      "midi": 63,
      "hit": false,
      "t": 27195.890000000018,
      "d": 141.64526041666977,
      "v": 88
    },
    {
      "midi": 60,
      "hit": false,
      "t": 27476.26000000002,
      "d": 93.45666666666511,
      "v": 88
    },
    {
      "midi": 53,
      "hit": false,
      "t": 27476.26000000002,
      "d": 106.59901041666672,
      "v": 88
    },
    {
      "midi": 56,
      "hit": false,
      "t": 27476.26000000002,
      "d": 110.97979166666846,
      "v": 88
    },
    {
      "midi": 63,
      "hit": false,
      "t": 27476.26000000002,
      "d": 148.94656250000116,
      "v": 88
    },
    {
      "midi": 53,
      "hit": false,
      "t": 27756.630000000023,
      "d": 109.51953125,
      "v": 88
    },
    {
      "midi": 56,
      "hit": false,
      "t": 27756.630000000023,
      "d": 116.82083333333503,
      "v": 88
    },
    {
      "midi": 60,
      "hit": false,
      "t": 27756.630000000023,
      "d": 125.58239583333489,
      "v": 88
    },
    {
      "midi": 63,
      "hit": false,
      "t": 27756.630000000023,
      "d": 141.64526041666977,
      "v": 88
    },
    {
      "midi": 46,
      "hit": false,
      "t": 27756.630000000023,
      "d": 838.1894791666746,
      "v": 86
    },
    {
      "midi": 56,
      "hit": false,
      "t": 28037.000000000025,
      "d": 90.53614583333183,
      "v": 88
    },
    {
      "midi": 53,
      "hit": false,
      "t": 28037.000000000025,
      "d": 106.59901041666672,
      "v": 88
    },
    {
      "midi": 60,
      "hit": false,
      "t": 28037.000000000025,
      "d": 122.6618750000016,
      "v": 88
    },
    {
      "midi": 63,
      "hit": false,
      "t": 28037.000000000025,
      "d": 129.96317708333663,
      "v": 88
    },
    {
      "midi": 53,
      "hit": false,
      "t": 28317.370000000028,
      "d": 109.51953125,
      "v": 88
    },
    {
      "midi": 56,
      "hit": false,
      "t": 28317.370000000028,
      "d": 109.51953125,
      "v": 88
    },
    {
      "midi": 60,
      "hit": false,
      "t": 28317.370000000028,
      "d": 116.82083333333503,
      "v": 88
    },
    {
      "midi": 63,
      "hit": false,
      "t": 28317.370000000028,
      "d": 146.02604166666788,
      "v": 88
    },
    {
      "midi": 56,
      "hit": false,
      "t": 28597.74000000003,
      "d": 94.91692708333358,
      "v": 88
    },
    {
      "midi": 53,
      "hit": false,
      "t": 28597.74000000003,
      "d": 102.2182291666686,
      "v": 88
    },
    {
      "midi": 60,
      "hit": false,
      "t": 28597.74000000003,
      "d": 102.2182291666686,
      "v": 88
    },
    {
      "midi": 63,
      "hit": false,
      "t": 28597.74000000003,
      "d": 129.96317708333663,
      "v": 88
    },
    {
      "midi": 34,
      "hit": false,
      "t": 28597.74000000003,
      "d": 420.55500000000393,
      "v": 70
    },
    {
      "midi": 60,
      "hit": false,
      "t": 28878.110000000033,
      "d": 78.85406249999869,
      "v": 88
    },
    {
      "midi": 56,
      "hit": false,
      "t": 28878.110000000033,
      "d": 83.23484375000044,
      "v": 88
    },
    {
      "midi": 53,
      "hit": false,
      "t": 28878.110000000033,
      "d": 97.83744791666686,
      "v": 88
    },
    {
      "midi": 63,
      "hit": false,
      "t": 28878.110000000033,
      "d": 122.6618750000016,
      "v": 88
    },
    {
      "midi": 74,
      "hit": false,
      "t": 29158.480000000003,
      "d": 316.87651041666686,
      "v": 71
    },
    {
      "midi": 86,
      "hit": false,
      "t": 29158.480000000003,
      "d": 316.87651041666686,
      "v": 71
    },
    {
      "midi": 31,
      "hit": false,
      "t": 29158.480000000036,
      "d": 733.0507291666654,
      "v": 70
    },
    {
      "midi": 62,
      "hit": false,
      "t": 29158.480000000036,
      "d": 1826.785781249997,
      "v": 88
    },
    {
      "midi": 65,
      "hit": false,
      "t": 29158.480000000036,
      "d": 1838.46786458333,
      "v": 88
    },
    {
      "midi": 55,
      "hit": false,
      "t": 29158.480000000036,
      "d": 1858.911510416663,
      "v": 88
    },
    {
      "midi": 58,
      "hit": false,
      "t": 29158.480000000036,
      "d": 1904.1795833333308,
      "v": 88
    },
    {
      "midi": 77,
      "hit": false,
      "t": 29438.850000000002,
      "d": 289.1315625000025,
      "v": 56
    },
    {
      "midi": 89,
      "hit": false,
      "t": 29438.850000000002,
      "d": 289.1315625000025,
      "v": 56
    },
    {
      "midi": 79,
      "hit": false,
      "t": 29719.220000000005,
      "d": 340.24067708333314,
      "v": 64
    },
    {
      "midi": 91,
      "hit": false,
      "t": 29719.220000000005,
      "d": 340.24067708333314,
      "v": 64
    },
    {
      "midi": 77,
      "hit": false,
      "t": 29999.590000000004,
      "d": 309.57520833333547,
      "v": 71
    },
    {
      "midi": 89,
      "hit": false,
      "t": 29999.590000000004,
      "d": 309.57520833333547,
      "v": 71
    },
    {
      "midi": 31,
      "hit": false,
      "t": 29999.590000000033,
      "d": 971.0731770833336,
      "v": 60
    },
    {
      "midi": 74,
      "hit": false,
      "t": 30279.960000000006,
      "d": 280.369999999999,
      "v": 69
    },
    {
      "midi": 86,
      "hit": false,
      "t": 30279.960000000006,
      "d": 280.369999999999,
      "v": 69
    },
    {
      "midi": 77,
      "hit": false,
      "t": 30560.330000000005,
      "d": 274.5289583333324,
      "v": 64
    },
    {
      "midi": 89,
      "hit": false,
      "t": 30560.330000000005,
      "d": 274.5289583333324,
      "v": 64
    },
    {
      "midi": 79,
      "hit": false,
      "t": 30840.700000000004,
      "d": 347.54197916666453,
      "v": 56
    },
    {
      "midi": 91,
      "hit": false,
      "t": 30840.700000000004,
      "d": 347.54197916666453,
      "v": 56
    },
    {
      "midi": 77,
      "hit": false,
      "t": 31121.070000000003,
      "d": 321.25729166666497,
      "v": 52
    },
    {
      "midi": 89,
      "hit": false,
      "t": 31121.070000000003,
      "d": 321.25729166666497,
      "v": 52
    },
    {
      "midi": 31,
      "hit": false,
      "t": 31121.070000000032,
      "d": 227.80062499999985,
      "v": 70
    },
    {
      "midi": 72,
      "hit": false,
      "t": 31401.440000000002,
      "d": 305.1944270833337,
      "v": 56
    },
    {
      "midi": 84,
      "hit": false,
      "t": 31401.440000000002,
      "d": 305.1944270833337,
      "v": 56
    },
    {
      "midi": 29,
      "hit": false,
      "t": 31401.44000000003,
      "d": 660.0377083333333,
      "v": 61
    },
    {
      "midi": 56,
      "hit": false,
      "t": 31401.44000000003,
      "d": 1990.3349479166645,
      "v": 88
    },
    {
      "midi": 60,
      "hit": false,
      "t": 31401.44000000003,
      "d": 1999.096510416668,
      "v": 88
    },
    {
      "midi": 53,
      "hit": false,
      "t": 31401.44000000003,
      "d": 2006.3978124999994,
      "v": 88
    },
    {
      "midi": 63,
      "hit": false,
      "t": 31401.44000000003,
      "d": 2034.1427604166674,
      "v": 88
    },
    {
      "midi": 77,
      "hit": false,
      "t": 31681.81,
      "d": 262.8468750000029,
      "v": 56
    },
    {
      "midi": 89,
      "hit": false,
      "t": 31681.81,
      "d": 262.8468750000029,
      "v": 56
    },
    {
      "midi": 79,
      "hit": false,
      "t": 31962.180000000004,
      "d": 338.7804166666647,
      "v": 60
    },
    {
      "midi": 91,
      "hit": false,
      "t": 31962.180000000004,
      "d": 338.7804166666647,
      "v": 60
    },
    {
      "midi": 77,
      "hit": false,
      "t": 32242.550000000003,
      "d": 308.114947916667,
      "v": 56
    },
    {
      "midi": 89,
      "hit": false,
      "t": 32242.550000000003,
      "d": 308.114947916667,
      "v": 56
    },
    {
      "midi": 29,
      "hit": false,
      "t": 32242.550000000032,
      "d": 1193.0327604166669,
      "v": 56
    },
    {
      "midi": 72,
      "hit": false,
      "t": 32522.920000000002,
      "d": 324.1778125000019,
      "v": 60
    },
    {
      "midi": 84,
      "hit": false,
      "t": 32522.920000000002,
      "d": 324.1778125000019,
      "v": 60
    },
    {
      "midi": 77,
      "hit": false,
      "t": 32803.29,
      "d": 284.75078125000437,
      "v": 49
    },
    {
      "midi": 89,
      "hit": false,
      "t": 32803.29,
      "d": 284.75078125000437,
      "v": 49
    },
    {
      "midi": 79,
      "hit": false,
      "t": 33083.66,
      "d": 354.8432812500032,
      "v": 60
    },
    {
      "midi": 91,
      "hit": false,
      "t": 33083.66,
      "d": 354.8432812500032,
      "v": 60
    },
    {
      "midi": 77,
      "hit": false,
      "t": 33364.030000000006,
      "d": 277.4494791666657,
      "v": 64
    },
    {
      "midi": 89,
      "hit": false,
      "t": 33364.030000000006,
      "d": 277.4494791666657,
      "v": 64
    },
    {
      "midi": 74,
      "hit": false,
      "t": 33644.40000000001,
      "d": 297.8931250000023,
      "v": 71
    },
    {
      "midi": 86,
      "hit": false,
      "t": 33644.40000000001,
      "d": 297.8931250000023,
      "v": 71
    },
    {
      "midi": 31,
      "hit": false,
      "t": 33644.40000000003,
      "d": 677.5608333333366,
      "v": 77
    },
    {
      "midi": 55,
      "hit": false,
      "t": 33644.40000000003,
      "d": 1987.4144270833276,
      "v": 88
    },
    {
      "midi": 62,
      "hit": false,
      "t": 33644.40000000003,
      "d": 2026.8414583333288,
      "v": 88
    },
    {
      "midi": 65,
      "hit": false,
      "t": 33644.40000000003,
      "d": 2044.3645833333285,
      "v": 88
    },
    {
      "midi": 58,
      "hit": false,
      "t": 33644.40000000003,
      "d": 2064.808229166665,
      "v": 88
    },
    {
      "midi": 77,
      "hit": false,
      "t": 33924.77000000001,
      "d": 293.5123437500006,
      "v": 56
    },
    {
      "midi": 89,
      "hit": false,
      "t": 33924.77000000001,
      "d": 293.5123437500006,
      "v": 56
    },
    {
      "midi": 79,
      "hit": false,
      "t": 34205.140000000014,
      "d": 332.93937499999447,
      "v": 56
    },
    {
      "midi": 91,
      "hit": false,
      "t": 34205.140000000014,
      "d": 332.93937499999447,
      "v": 56
    },
    {
      "midi": 77,
      "hit": false,
      "t": 34485.51000000001,
      "d": 297.8931250000023,
      "v": 56
    },
    {
      "midi": 89,
      "hit": false,
      "t": 34485.51000000001,
      "d": 297.8931250000023,
      "v": 56
    },
    {
      "midi": 31,
      "hit": false,
      "t": 34485.51000000003,
      "d": 928.7256249999991,
      "v": 70
    },
    {
      "midi": 74,
      "hit": false,
      "t": 34765.88000000001,
      "d": 297.8931250000023,
      "v": 56
    },
    {
      "midi": 86,
      "hit": false,
      "t": 34765.88000000001,
      "d": 297.8931250000023,
      "v": 56
    },
    {
      "midi": 77,
      "hit": false,
      "t": 35046.250000000015,
      "d": 277.4494791666657,
      "v": 52
    },
    {
      "midi": 89,
      "hit": false,
      "t": 35046.250000000015,
      "d": 277.4494791666657,
      "v": 52
    },
    {
      "midi": 79,
      "hit": false,
      "t": 35326.62000000002,
      "d": 367.98562500000116,
      "v": 52
    },
    {
      "midi": 91,
      "hit": false,
      "t": 35326.62000000002,
      "d": 367.98562500000116,
      "v": 52
    },
    {
      "midi": 77,
      "hit": false,
      "t": 35606.99000000002,
      "d": 293.5123437499933,
      "v": 56
    },
    {
      "midi": 89,
      "hit": false,
      "t": 35606.99000000002,
      "d": 293.5123437499933,
      "v": 56
    },
    {
      "midi": 31,
      "hit": false,
      "t": 35606.99000000003,
      "d": 261.3866145833381,
      "v": 61
    },
    {
      "midi": 72,
      "hit": false,
      "t": 35887.360000000015,
      "d": 300.813645833332,
      "v": 56
    },
    {
      "midi": 84,
      "hit": false,
      "t": 35887.360000000015,
      "d": 300.813645833332,
      "v": 56
    },
    {
      "midi": 29,
      "hit": false,
      "t": 35887.36000000003,
      "d": 671.7197916666701,
      "v": 61
    },
    {
      "midi": 53,
      "hit": false,
      "t": 35887.36000000003,
      "d": 1964.0502604166686,
      "v": 88
    },
    {
      "midi": 60,
      "hit": false,
      "t": 35887.36000000003,
      "d": 1964.0502604166686,
      "v": 88
    },
    {
      "midi": 56,
      "hit": false,
      "t": 35887.36000000003,
      "d": 2006.3978124999994,
      "v": 88
    },
    {
      "midi": 63,
      "hit": false,
      "t": 35887.36000000003,
      "d": 2034.1427604166674,
      "v": 88
    },
    {
      "midi": 77,
      "hit": false,
      "t": 36167.73000000001,
      "d": 316.87651041666686,
      "v": 49
    },
    {
      "midi": 89,
      "hit": false,
      "t": 36167.73000000001,
      "d": 316.87651041666686,
      "v": 49
    },
    {
      "midi": 79,
      "hit": false,
      "t": 36448.10000000001,
      "d": 321.25729166666133,
      "v": 52
    },
    {
      "midi": 91,
      "hit": false,
      "t": 36448.10000000001,
      "d": 321.25729166666133,
      "v": 52
    },
    {
      "midi": 77,
      "hit": false,
      "t": 36728.47000000001,
      "d": 286.2110416666692,
      "v": 60
    },
    {
      "midi": 89,
      "hit": false,
      "t": 36728.47000000001,
      "d": 286.2110416666692,
      "v": 60
    },
    {
      "midi": 29,
      "hit": false,
      "t": 36728.47000000003,
      "d": 1203.2545833333352,
      "v": 61
    },
    {
      "midi": 72,
      "hit": false,
      "t": 37008.84000000001,
      "d": 315.41625000000204,
      "v": 46
    },
    {
      "midi": 84,
      "hit": false,
      "t": 37008.84000000001,
      "d": 315.41625000000204,
      "v": 46
    },
    {
      "midi": 77,
      "hit": false,
      "t": 37289.210000000014,
      "d": 265.76739583333256,
      "v": 49
    },
    {
      "midi": 89,
      "hit": false,
      "t": 37289.210000000014,
      "d": 265.76739583333256,
      "v": 49
    },
    {
      "midi": 79,
      "hit": false,
      "t": 37569.580000000016,
      "d": 373.82666666666773,
      "v": 46
    },
    {
      "midi": 91,
      "hit": false,
      "t": 37569.580000000016,
      "d": 373.82666666666773,
      "v": 46
    },
    {
      "midi": 77,
      "hit": false,
      "t": 37849.95000000002,
      "d": 284.7507812499971,
      "v": 56
    },
    {
      "midi": 89,
      "hit": false,
      "t": 37849.95000000002,
      "d": 284.7507812499971,
      "v": 56
    },
    {
      "midi": 74,
      "hit": false,
      "t": 38130.320000000014,
      "d": 315.41625000000204,
      "v": 69
    },
    {
      "midi": 86,
      "hit": false,
      "t": 38130.320000000014,
      "d": 315.41625000000204,
      "v": 69
    },
    {
      "midi": 31,
      "hit": false,
      "t": 38130.32000000003,
      "d": 642.5145833333299,
      "v": 77
    },
    {
      "midi": 62,
      "hit": false,
      "t": 38130.32000000003,
      "d": 1679.299479166657,
      "v": 88
    },
    {
      "midi": 58,
      "hit": false,
      "t": 38130.32000000003,
      "d": 1690.98156249999,
      "v": 88
    },
    {
      "midi": 65,
      "hit": false,
      "t": 38130.32000000003,
      "d": 1695.3623437499919,
      "v": 88
    },
    {
      "midi": 55,
      "hit": false,
      "t": 38130.32000000003,
      "d": 1699.7431249999936,
      "v": 88
    },
    {
      "midi": 77,
      "hit": false,
      "t": 38410.69000000002,
      "d": 277.4494791666657,
      "v": 60
    },
    {
      "midi": 89,
      "hit": false,
      "t": 38410.69000000002,
      "d": 277.4494791666657,
      "v": 60
    },
    {
      "midi": 79,
      "hit": false,
      "t": 38691.06000000002,
      "d": 389.8895312500026,
      "v": 56
    },
    {
      "midi": 91,
      "hit": false,
      "t": 38691.06000000002,
      "d": 389.8895312500026,
      "v": 56
    },
    {
      "midi": 31,
      "hit": false,
      "t": 38971.43000000002,
      "d": 1041.165677083336,
      "v": 77
    },
    {
      "midi": 77,
      "hit": false,
      "t": 38971.43000000002,
      "d": 300.81364583333925,
      "v": 52
    },
    {
      "midi": 89,
      "hit": false,
      "t": 38971.43000000002,
      "d": 300.81364583333925,
      "v": 52
    },
    {
      "midi": 74,
      "hit": false,
      "t": 39251.800000000025,
      "d": 305.1944270833337,
      "v": 69
    },
    {
      "midi": 86,
      "hit": false,
      "t": 39251.800000000025,
      "d": 305.1944270833337,
      "v": 69
    },
    {
      "midi": 77,
      "hit": false,
      "t": 39532.17000000003,
      "d": 293.5123437499933,
      "v": 52
    },
    {
      "midi": 89,
      "hit": false,
      "t": 39532.17000000003,
      "d": 293.5123437499933,
      "v": 52
    },
    {
      "midi": 79,
      "hit": false,
      "t": 39812.54000000002,
      "d": 478.965416666666,
      "v": 49
    },
    {
      "midi": 91,
      "hit": false,
      "t": 39812.54000000002,
      "d": 478.965416666666,
      "v": 49
    },
    {
      "midi": 77,
      "hit": false,
      "t": 40092.91000000002,
      "d": 148.94656250000116,
      "v": 46
    },
    {
      "midi": 89,
      "hit": false,
      "t": 40092.91000000002,
      "d": 148.94656250000116,
      "v": 46
    },
    {
      "midi": 80,
      "hit": false,
      "t": 40373.28000000002,
      "d": 814.8253124999974,
      "v": 71
    },
    {
      "midi": 92,
      "hit": false,
      "t": 40373.28000000002,
      "d": 814.8253124999974,
      "v": 71
    },
    {
      "midi": 56,
      "hit": false,
      "t": 40373.28000000003,
      "d": 188.37359375000233,
      "v": 88
    },
    {
      "midi": 60,
      "hit": false,
      "t": 40373.28000000003,
      "d": 195.67489583333372,
      "v": 88
    },
    {
      "midi": 63,
      "hit": false,
      "t": 40373.28000000003,
      "d": 216.11854166667035,
      "v": 88
    },
    {
      "midi": 44,
      "hit": false,
      "t": 40373.28000000003,
      "d": 303.7341666666689,
      "v": 77
    },
    {
      "midi": 56,
      "hit": false,
      "t": 40653.65000000003,
      "d": 192.7543749999968,
      "v": 88
    },
    {
      "midi": 60,
      "hit": false,
      "t": 40653.65000000003,
      "d": 207.35697916666686,
      "v": 88
    },
    {
      "midi": 63,
      "hit": false,
      "t": 40653.65000000003,
      "d": 223.41984375000175,
      "v": 88
    },
    {
      "midi": 32,
      "hit": false,
      "t": 40653.65000000003,
      "d": 249.70453125000495,
      "v": 86
    },
    {
      "midi": 79,
      "hit": false,
      "t": 41214.39000000002,
      "d": 530.0745312500003,
      "v": 69
    },
    {
      "midi": 91,
      "hit": false,
      "t": 41214.39000000002,
      "d": 530.0745312500003,
      "v": 69
    },
    {
      "midi": 56,
      "hit": false,
      "t": 41214.390000000036,
      "d": 163.54916666666395,
      "v": 88
    },
    {
      "midi": 60,
      "hit": false,
      "t": 41214.390000000036,
      "d": 163.54916666666395,
      "v": 88
    },
    {
      "midi": 63,
      "hit": false,
      "t": 41214.390000000036,
      "d": 195.67489583333372,
      "v": 88
    },
    {
      "midi": 46,
      "hit": false,
      "t": 41214.390000000036,
      "d": 331.4791145833369,
      "v": 86
    },
    {
      "midi": 77,
      "hit": false,
      "t": 41775.13000000002,
      "d": 525.6937499999985,
      "v": 60
    },
    {
      "midi": 89,
      "hit": false,
      "t": 41775.13000000002,
      "d": 525.6937499999985,
      "v": 60
    },
    {
      "midi": 46,
      "hit": false,
      "t": 41775.13000000004,
      "d": 296.4328645833375,
      "v": 86
    },
    {
      "midi": 58,
      "hit": false,
      "t": 41775.13000000004,
      "d": 398.6510937500061,
      "v": 88
    },
    {
      "midi": 62,
      "hit": false,
      "t": 41775.13000000004,
      "d": 405.9523958333375,
      "v": 88
    },
    {
      "midi": 65,
      "hit": false,
      "t": 41775.13000000004,
      "d": 432.2370833333407,
      "v": 88
    },
    {
      "midi": 34,
      "hit": false,
      "t": 42055.500000000044,
      "d": 459.98203125000146,
      "v": 86
    },
    {
      "midi": 55,
      "hit": false,
      "t": 42616.24000000004,
      "d": 93.45666666666511,
      "v": 88
    },
    {
      "midi": 60,
      "hit": false,
      "t": 42616.24000000004,
      "d": 128.50291666666453,
      "v": 88
    },
    {
      "midi": 58,
      "hit": false,
      "t": 42616.24000000004,
      "d": 134.3439583333311,
      "v": 88
    },
    {
      "midi": 63,
      "hit": false,
      "t": 42616.24000000004,
      "d": 144.56578124999942,
      "v": 88
    },
    {
      "midi": 39,
      "hit": false,
      "t": 42616.24000000004,
      "d": 810.4445312500029,
      "v": 99
    },
    {
      "midi": 60,
      "hit": false,
      "t": 42896.610000000044,
      "d": 128.50291666666453,
      "v": 88
    },
    {
      "midi": 55,
      "hit": false,
      "t": 42896.610000000044,
      "d": 132.88369791666628,
      "v": 88
    },
    {
      "midi": 58,
      "hit": false,
      "t": 42896.610000000044,
      "d": 141.64526041666977,
      "v": 88
    },
    {
      "midi": 63,
      "hit": false,
      "t": 42896.610000000044,
      "d": 141.64526041666977,
      "v": 88
    },
    {
      "midi": 55,
      "hit": false,
      "t": 43176.98000000005,
      "d": 113.90031250000175,
      "v": 88
    },
    {
      "midi": 60,
      "hit": false,
      "t": 43176.98000000005,
      "d": 125.58239583333489,
      "v": 88
    },
    {
      "midi": 58,
      "hit": false,
      "t": 43176.98000000005,
      "d": 132.88369791666628,
      "v": 88
    },
    {
      "midi": 63,
      "hit": false,
      "t": 43176.98000000005,
      "d": 132.88369791666628,
      "v": 88
    },
    {
      "midi": 60,
      "hit": false,
      "t": 43457.35000000004,
      "d": 125.58239583333489,
      "v": 88
    },
    {
      "midi": 55,
      "hit": false,
      "t": 43457.35000000004,
      "d": 134.34395833333838,
      "v": 88
    },
    {
      "midi": 63,
      "hit": false,
      "t": 43457.35000000004,
      "d": 141.64526041666977,
      "v": 88
    },
    {
      "midi": 58,
      "hit": false,
      "t": 43457.35000000004,
      "d": 151.8670833333381,
      "v": 88
    },
    {
      "midi": 46,
      "hit": false,
      "t": 43457.35000000004,
      "d": 728.6699479166709,
      "v": 70
    },
    {
      "midi": 55,
      "hit": false,
      "t": 43737.720000000045,
      "d": 94.91692708332994,
      "v": 88
    },
    {
      "midi": 60,
      "hit": false,
      "t": 43737.720000000045,
      "d": 113.90031249999447,
      "v": 88
    },
    {
      "midi": 58,
      "hit": false,
      "t": 43737.720000000045,
      "d": 122.66187499999796,
      "v": 88
    },
    {
      "midi": 63,
      "hit": false,
      "t": 43737.720000000045,
      "d": 129.96317708332936,
      "v": 88
    },
    {
      "midi": 55,
      "hit": false,
      "t": 44018.09000000004,
      "d": 86.15536458333372,
      "v": 88
    },
    {
      "midi": 60,
      "hit": false,
      "t": 44018.09000000004,
      "d": 116.8208333333314,
      "v": 88
    },
    {
      "midi": 63,
      "hit": false,
      "t": 44018.09000000004,
      "d": 121.20161458333314,
      "v": 88
    },
    {
      "midi": 58,
      "hit": false,
      "t": 44018.09000000004,
      "d": 141.64526041666977,
      "v": 88
    },
    {
      "midi": 55,
      "hit": false,
      "t": 44298.46000000005,
      "d": 99.29770833333168,
      "v": 88
    },
    {
      "midi": 60,
      "hit": false,
      "t": 44298.46000000005,
      "d": 118.28109374999622,
      "v": 88
    },
    {
      "midi": 58,
      "hit": false,
      "t": 44298.46000000005,
      "d": 144.56578124999942,
      "v": 88
    },
    {
      "midi": 63,
      "hit": false,
      "t": 44298.46000000005,
      "d": 144.56578124999942,
      "v": 88
    },
    {
      "midi": 46,
      "hit": false,
      "t": 44298.46000000005,
      "d": 537.375833333339,
      "v": 77
    },
    {
      "midi": 58,
      "hit": false,
      "t": 44578.83000000005,
      "d": 87.61562499999854,
      "v": 88
    },
    {
      "midi": 55,
      "hit": false,
      "t": 44578.83000000005,
      "d": 97.83744791666686,
      "v": 88
    },
    {
      "midi": 60,
      "hit": false,
      "t": 44578.83000000005,
      "d": 110.97979166666482,
      "v": 88
    },
    {
      "midi": 63,
      "hit": false,
      "t": 44578.83000000005,
      "d": 137.26447916666802,
      "v": 88
    },
    {
      "midi": 53,
      "hit": false,
      "t": 44859.200000000055,
      "d": 121.20161458333314,
      "v": 88
    },
    {
      "midi": 60,
      "hit": false,
      "t": 44859.200000000055,
      "d": 125.58239583333489,
      "v": 88
    },
    {
      "midi": 56,
      "hit": false,
      "t": 44859.200000000055,
      "d": 129.96317708333663,
      "v": 88
    },
    {
      "midi": 63,
      "hit": false,
      "t": 44859.200000000055,
      "d": 167.92994791667297,
      "v": 88
    },
    {
      "midi": 41,
      "hit": false,
      "t": 44859.200000000055,
      "d": 714.0673437500081,
      "v": 60
    },
    {
      "midi": 56,
      "hit": false,
      "t": 45139.570000000065,
      "d": 105.13874999999825,
      "v": 88
    },
    {
      "midi": 53,
      "hit": false,
      "t": 45139.570000000065,
      "d": 118.28109374999622,
      "v": 88
    },
    {
      "midi": 60,
      "hit": false,
      "t": 45139.570000000065,
      "d": 118.28109374999622,
      "v": 88
    },
    {
      "midi": 63,
      "hit": false,
      "t": 45139.570000000065,
      "d": 140.18499999999767,
      "v": 88
    },
    {
      "midi": 56,
      "hit": false,
      "t": 45419.94000000006,
      "d": 87.61562499999854,
      "v": 88
    },
    {
      "midi": 60,
      "hit": false,
      "t": 45419.94000000006,
      "d": 102.2182291666686,
      "v": 88
    },
    {
      "midi": 53,
      "hit": false,
      "t": 45419.94000000006,
      "d": 110.9797916666721,
      "v": 88
    },
    {
      "midi": 63,
      "hit": false,
      "t": 45419.94000000006,
      "d": 153.3273437500029,
      "v": 88
    },
    {
      "midi": 56,
      "hit": false,
      "t": 45700.31000000006,
      "d": 113.90031250000175,
      "v": 88
    },
    {
      "midi": 53,
      "hit": false,
      "t": 45700.31000000006,
      "d": 118.28109375000349,
      "v": 88
    },
    {
      "midi": 60,
      "hit": false,
      "t": 45700.31000000006,
      "d": 125.58239583333489,
      "v": 88
    },
    {
      "midi": 63,
      "hit": false,
      "t": 45700.31000000006,
      "d": 156.24786458333256,
      "v": 88
    },
    {
      "midi": 46,
      "hit": false,
      "t": 45700.31000000006,
      "d": 838.1894791666782,
      "v": 86
    },
    {
      "midi": 60,
      "hit": false,
      "t": 45980.680000000066,
      "d": 102.2182291666686,
      "v": 88
    },
    {
      "midi": 56,
      "hit": false,
      "t": 45980.680000000066,
      "d": 106.59901041667035,
      "v": 88
    },
    {
      "midi": 53,
      "hit": false,
      "t": 45980.680000000066,
      "d": 122.66187500000524,
      "v": 88
    },
    {
      "midi": 63,
      "hit": false,
      "t": 45980.680000000066,
      "d": 141.64526041666977,
      "v": 88
    },
    {
      "midi": 56,
      "hit": false,
      "t": 46261.05000000007,
      "d": 105.13874999999825,
      "v": 88
    },
    {
      "midi": 53,
      "hit": false,
      "t": 46261.05000000007,
      "d": 113.90031250000175,
      "v": 88
    },
    {
      "midi": 60,
      "hit": false,
      "t": 46261.05000000007,
      "d": 113.90031250000175,
      "v": 88
    },
    {
      "midi": 63,
      "hit": false,
      "t": 46261.05000000007,
      "d": 151.8670833333381,
      "v": 88
    },
    {
      "midi": 53,
      "hit": false,
      "t": 46541.42000000008,
      "d": 106.59901041666308,
      "v": 88
    },
    {
      "midi": 60,
      "hit": false,
      "t": 46541.42000000008,
      "d": 113.90031249999447,
      "v": 88
    },
    {
      "midi": 56,
      "hit": false,
      "t": 46541.42000000008,
      "d": 128.50291666666453,
      "v": 88
    },
    {
      "midi": 63,
      "hit": false,
      "t": 46541.42000000008,
      "d": 163.54916666666395,
      "v": 88
    },
    {
      "midi": 34,
      "hit": false,
      "t": 46541.42000000008,
      "d": 420.5550000000003,
      "v": 70
    },
    {
      "midi": 56,
      "hit": false,
      "t": 46821.79000000007,
      "d": 86.15536458333372,
      "v": 88
    },
    {
      "midi": 60,
      "hit": false,
      "t": 46821.79000000007,
      "d": 97.83744791666686,
      "v": 88
    },
    {
      "midi": 53,
      "hit": false,
      "t": 46821.79000000007,
      "d": 106.59901041667035,
      "v": 88
    },
    {
      "midi": 63,
      "hit": false,
      "t": 46821.79000000007,
      "d": 169.3902083333378,
      "v": 88
    },
    {
      "midi": 60,
      "hit": false,
      "t": 47102.160000000076,
      "d": 109.51953125,
      "v": 88
    },
    {
      "midi": 58,
      "hit": false,
      "t": 47102.160000000076,
      "d": 118.28109375000349,
      "v": 88
    },
    {
      "midi": 55,
      "hit": false,
      "t": 47102.160000000076,
      "d": 128.5029166666718,
      "v": 88
    },
    {
      "midi": 63,
      "hit": false,
      "t": 47102.160000000076,
      "d": 157.70812500000466,
      "v": 88
    },
    {
      "midi": 39,
      "hit": false,
      "t": 47102.160000000076,
      "d": 810.4445312500102,
      "v": 99
    },
    {
      "midi": 60,
      "hit": false,
      "t": 47382.53000000008,
      "d": 105.13874999999825,
      "v": 88
    },
    {
      "midi": 55,
      "hit": false,
      "t": 47382.53000000008,
      "d": 128.50291666666453,
      "v": 88
    },
    {
      "midi": 58,
      "hit": false,
      "t": 47382.53000000008,
      "d": 128.50291666666453,
      "v": 88
    },
    {
      "midi": 63,
      "hit": false,
      "t": 47382.53000000008,
      "d": 144.56578124999942,
      "v": 88
    },
    {
      "midi": 55,
      "hit": false,
      "t": 47662.90000000008,
      "d": 106.59901041666308,
      "v": 88
    },
    {
      "midi": 60,
      "hit": false,
      "t": 47662.90000000008,
      "d": 110.97979166666482,
      "v": 88
    },
    {
      "midi": 58,
      "hit": false,
      "t": 47662.90000000008,
      "d": 125.58239583333489,
      "v": 88
    },
    {
      "midi": 63,
      "hit": false,
      "t": 47662.90000000008,
      "d": 125.58239583333489,
      "v": 88
    },
    {
      "midi": 55,
      "hit": false,
      "t": 47943.270000000084,
      "d": 99.29770833333168,
      "v": 88
    },
    {
      "midi": 60,
      "hit": false,
      "t": 47943.270000000084,
      "d": 110.97979166666482,
      "v": 88
    },
    {
      "midi": 58,
      "hit": false,
      "t": 47943.270000000084,
      "d": 129.96317708332936,
      "v": 88
    },
    {
      "midi": 63,
      "hit": false,
      "t": 47943.270000000084,
      "d": 129.96317708332936,
      "v": 88
    },
    {
      "midi": 46,
      "hit": false,
      "t": 47943.270000000084,
      "d": 728.6699479166637,
      "v": 70
    },
    {
      "midi": 55,
      "hit": false,
      "t": 48223.64000000008,
      "d": 109.51953125,
      "v": 88
    },
    {
      "midi": 58,
      "hit": false,
      "t": 48223.64000000008,
      "d": 113.90031250000175,
      "v": 88
    },
    {
      "midi": 60,
      "hit": false,
      "t": 48223.64000000008,
      "d": 113.90031250000175,
      "v": 88
    },
    {
      "midi": 63,
      "hit": false,
      "t": 48223.64000000008,
      "d": 140.18500000000495,
      "v": 88
    },
    {
      "midi": 55,
      "hit": false,
      "t": 48504.01000000008,
      "d": 105.13874999999825,
      "v": 88
    },
    {
      "midi": 60,
      "hit": false,
      "t": 48504.01000000008,
      "d": 116.8208333333314,
      "v": 88
    },
    {
      "midi": 63,
      "hit": false,
      "t": 48504.01000000008,
      "d": 116.8208333333314,
      "v": 88
    },
    {
      "midi": 58,
      "hit": false,
      "t": 48504.01000000008,
      "d": 132.88369791666628,
      "v": 88
    },
    {
      "midi": 55,
      "hit": false,
      "t": 48784.380000000085,
      "d": 105.13874999999825,
      "v": 88
    },
    {
      "midi": 60,
      "hit": false,
      "t": 48784.380000000085,
      "d": 105.13874999999825,
      "v": 88
    },
    {
      "midi": 63,
      "hit": false,
      "t": 48784.380000000085,
      "d": 118.28109374999622,
      "v": 88
    },
    {
      "midi": 58,
      "hit": false,
      "t": 48784.380000000085,
      "d": 128.50291666666453,
      "v": 88
    },
    {
      "midi": 46,
      "hit": false,
      "t": 48784.380000000085,
      "d": 537.3758333333317,
      "v": 77
    },
    {
      "midi": 55,
      "hit": false,
      "t": 49064.75000000008,
      "d": 81.77458333333198,
      "v": 88
    },
    {
      "midi": 60,
      "hit": false,
      "t": 49064.75000000008,
      "d": 106.59901041666308,
      "v": 88
    },
    {
      "midi": 58,
      "hit": false,
      "t": 49064.75000000008,
      "d": 122.66187499999796,
      "v": 88
    },
    {
      "midi": 63,
      "hit": false,
      "t": 49064.75000000008,
      "d": 144.56578124999942,
      "v": 88
    },
    {
      "midi": 53,
      "hit": false,
      "t": 49345.12000000008,
      "d": 113.90031250000175,
      "v": 88
    },
    {
      "midi": 60,
      "hit": false,
      "t": 49345.12000000008,
      "d": 129.96317708333663,
      "v": 88
    },
    {
      "midi": 56,
      "hit": false,
      "t": 49345.12000000008,
      "d": 144.5657812500067,
      "v": 88
    },
    {
      "midi": 63,
      "hit": false,
      "t": 49345.12000000008,
      "d": 172.31072916667472,
      "v": 88
    },
    {
      "midi": 41,
      "hit": false,
      "t": 49345.12000000008,
      "d": 714.0673437500081,
      "v": 60
    },
    {
      "midi": 60,
      "hit": false,
      "t": 49625.49000000009,
      "d": 99.29770833333168,
      "v": 88
    },
    {
      "midi": 56,
      "hit": false,
      "t": 49625.49000000009,
      "d": 106.59901041666308,
      "v": 88
    },
    {
      "midi": 53,
      "hit": false,
      "t": 49625.49000000009,
      "d": 118.28109374999622,
      "v": 88
    },
    {
      "midi": 63,
      "hit": false,
      "t": 49625.49000000009,
      "d": 141.6452604166625,
      "v": 88
    },
    {
      "midi": 60,
      "hit": false,
      "t": 49905.86000000009,
      "d": 93.45666666666511,
      "v": 88
    },
    {
      "midi": 56,
      "hit": false,
      "t": 49905.86000000009,
      "d": 110.97979166666482,
      "v": 88
    },
    {
      "midi": 53,
      "hit": false,
      "t": 49905.86000000009,
      "d": 128.50291666666453,
      "v": 88
    },
    {
      "midi": 63,
      "hit": false,
      "t": 49905.86000000009,
      "d": 148.94656250000116,
      "v": 88
    },
    {
      "midi": 53,
      "hit": false,
      "t": 50186.23000000009,
      "d": 110.97979166666482,
      "v": 88
    },
    {
      "midi": 56,
      "hit": false,
      "t": 50186.23000000009,
      "d": 116.8208333333314,
      "v": 88
    },
    {
      "midi": 60,
      "hit": false,
      "t": 50186.23000000009,
      "d": 125.58239583333489,
      "v": 88
    },
    {
      "midi": 63,
      "hit": false,
      "t": 50186.23000000009,
      "d": 141.64526041666977,
      "v": 88
    },
    {
      "midi": 46,
      "hit": false,
      "t": 50186.23000000009,
      "d": 838.1894791666709,
      "v": 86
    },
    {
      "midi": 56,
      "hit": false,
      "t": 50466.60000000009,
      "d": 90.53614583333547,
      "v": 88
    },
    {
      "midi": 53,
      "hit": false,
      "t": 50466.60000000009,
      "d": 116.82083333333867,
      "v": 88
    },
    {
      "midi": 60,
      "hit": false,
      "t": 50466.60000000009,
      "d": 122.66187500000524,
      "v": 88
    },
    {
      "midi": 63,
      "hit": false,
      "t": 50466.60000000009,
      "d": 129.96317708333663,
      "v": 88
    },
    {
      "midi": 53,
      "hit": false,
      "t": 50746.970000000096,
      "d": 105.13874999999825,
      "v": 88
    },
    {
      "midi": 56,
      "hit": false,
      "t": 50746.970000000096,
      "d": 109.51953125,
      "v": 88
    },
    {
      "midi": 60,
      "hit": false,
      "t": 50746.970000000096,
      "d": 116.8208333333314,
      "v": 88
    },
    {
      "midi": 63,
      "hit": false,
      "t": 50746.970000000096,
      "d": 146.02604166666424,
      "v": 88
    },
    {
      "midi": 56,
      "hit": false,
      "t": 51027.3400000001,
      "d": 94.91692708332994,
      "v": 88
    },
    {
      "midi": 53,
      "hit": false,
      "t": 51027.3400000001,
      "d": 102.21822916666133,
      "v": 88
    },
    {
      "midi": 60,
      "hit": false,
      "t": 51027.3400000001,
      "d": 102.21822916666133,
      "v": 88
    },
    {
      "midi": 63,
      "hit": false,
      "t": 51027.3400000001,
      "d": 129.96317708332936,
      "v": 88
    },
    {
      "midi": 34,
      "hit": false,
      "t": 51027.3400000001,
      "d": 420.5550000000003,
      "v": 70
    },
    {
      "midi": 60,
      "hit": false,
      "t": 51307.710000000094,
      "d": 78.85406250000233,
      "v": 88
    },
    {
      "midi": 56,
      "hit": false,
      "t": 51307.710000000094,
      "d": 83.23484375000407,
      "v": 88
    },
    {
      "midi": 53,
      "hit": false,
      "t": 51307.710000000094,
      "d": 90.53614583333547,
      "v": 88
    },
    {
      "midi": 63,
      "hit": false,
      "t": 51307.710000000094,
      "d": 122.66187500000524,
      "v": 88
    },
    {
      "midi": 55,
      "hit": false,
      "t": 51588.080000000096,
      "d": 93.45666666666511,
      "v": 88
    },
    {
      "midi": 60,
      "hit": false,
      "t": 51588.080000000096,
      "d": 105.13874999999825,
      "v": 88
    },
    {
      "midi": 58,
      "hit": false,
      "t": 51588.080000000096,
      "d": 134.3439583333311,
      "v": 88
    },
    {
      "midi": 63,
      "hit": false,
      "t": 51588.080000000096,
      "d": 144.56578124999942,
      "v": 88
    },
    {
      "midi": 39,
      "hit": false,
      "t": 51588.080000000096,
      "d": 810.4445312500029,
      "v": 99
    },
    {
      "midi": 60,
      "hit": false,
      "t": 51868.4500000001,
      "d": 109.51953125,
      "v": 88
    },
    {
      "midi": 55,
      "hit": false,
      "t": 51868.4500000001,
      "d": 132.88369791666628,
      "v": 88
    },
    {
      "midi": 58,
      "hit": false,
      "t": 51868.4500000001,
      "d": 141.64526041666977,
      "v": 88
    },
    {
      "midi": 63,
      "hit": false,
      "t": 51868.4500000001,
      "d": 141.64526041666977,
      "v": 88
    },
    {
      "midi": 55,
      "hit": false,
      "t": 52148.8200000001,
      "d": 110.97979166666482,
      "v": 88
    },
    {
      "midi": 60,
      "hit": false,
      "t": 52148.8200000001,
      "d": 110.97979166666482,
      "v": 88
    },
    {
      "midi": 58,
      "hit": false,
      "t": 52148.8200000001,
      "d": 132.88369791666628,
      "v": 88
    },
    {
      "midi": 63,
      "hit": false,
      "t": 52148.8200000001,
      "d": 132.88369791666628,
      "v": 88
    },
    {
      "midi": 60,
      "hit": false,
      "t": 52429.1900000001,
      "d": 102.2182291666686,
      "v": 88
    },
    {
      "midi": 55,
      "hit": false,
      "t": 52429.1900000001,
      "d": 134.34395833333838,
      "v": 88
    },
    {
      "midi": 63,
      "hit": false,
      "t": 52429.1900000001,
      "d": 141.64526041666977,
      "v": 88
    },
    {
      "midi": 58,
      "hit": false,
      "t": 52429.1900000001,
      "d": 151.8670833333381,
      "v": 88
    },
    {
      "midi": 46,
      "hit": false,
      "t": 52429.1900000001,
      "d": 728.6699479166709,
      "v": 70
    },
    {
      "midi": 55,
      "hit": false,
      "t": 52709.5600000001,
      "d": 94.91692708332994,
      "v": 88
    },
    {
      "midi": 60,
      "hit": false,
      "t": 52709.5600000001,
      "d": 106.59901041666308,
      "v": 88
    },
    {
      "midi": 58,
      "hit": false,
      "t": 52709.5600000001,
      "d": 122.66187499999796,
      "v": 88
    },
    {
      "midi": 63,
      "hit": false,
      "t": 52709.5600000001,
      "d": 129.96317708332936,
      "v": 88
    },
    {
      "midi": 55,
      "hit": false,
      "t": 52989.930000000095,
      "d": 86.15536458333372,
      "v": 88
    },
    {
      "midi": 60,
      "hit": false,
      "t": 52989.930000000095,
      "d": 113.90031250000175,
      "v": 88
    },
    {
      "midi": 63,
      "hit": false,
      "t": 52989.930000000095,
      "d": 121.20161458333314,
      "v": 88
    },
    {
      "midi": 58,
      "hit": false,
      "t": 52989.930000000095,
      "d": 141.64526041666977,
      "v": 88
    },
    {
      "midi": 55,
      "hit": false,
      "t": 53270.300000000105,
      "d": 99.29770833333168,
      "v": 88
    },
    {
      "midi": 60,
      "hit": false,
      "t": 53270.300000000105,
      "d": 109.51953125,
      "v": 88
    },
    {
      "midi": 58,
      "hit": false,
      "t": 53270.300000000105,
      "d": 144.56578124999942,
      "v": 88
    },
    {
      "midi": 63,
      "hit": false,
      "t": 53270.300000000105,
      "d": 144.56578124999942,
      "v": 88
    },
    {
      "midi": 46,
      "hit": false,
      "t": 53270.300000000105,
      "d": 537.375833333339,
      "v": 77
    },
    {
      "midi": 58,
      "hit": false,
      "t": 53550.67000000011,
      "d": 87.61562499999854,
      "v": 88
    },
    {
      "midi": 55,
      "hit": false,
      "t": 53550.67000000011,
      "d": 97.83744791666686,
      "v": 88
    },
    {
      "midi": 60,
      "hit": false,
      "t": 53550.67000000011,
      "d": 109.51953125,
      "v": 88
    },
    {
      "midi": 63,
      "hit": false,
      "t": 53550.67000000011,
      "d": 137.26447916666802,
      "v": 88
    },
    {
      "midi": 53,
      "hit": false,
      "t": 53831.04000000011,
      "d": 118.28109375000349,
      "v": 88
    },
    {
      "midi": 60,
      "hit": false,
      "t": 53831.04000000011,
      "d": 125.58239583333489,
      "v": 88
    },
    {
      "midi": 56,
      "hit": false,
      "t": 53831.04000000011,
      "d": 129.96317708333663,
      "v": 88
    },
    {
      "midi": 63,
      "hit": false,
      "t": 53831.04000000011,
      "d": 167.92994791667297,
      "v": 88
    },
    {
      "midi": 41,
      "hit": false,
      "t": 53831.04000000011,
      "d": 714.0673437500154,
      "v": 60
    },
    {
      "midi": 56,
      "hit": false,
      "t": 54111.41000000012,
      "d": 105.13874999999825,
      "v": 88
    },
    {
      "midi": 53,
      "hit": false,
      "t": 54111.41000000012,
      "d": 109.51953125,
      "v": 88
    },
    {
      "midi": 60,
      "hit": false,
      "t": 54111.41000000012,
      "d": 118.28109375000349,
      "v": 88
    },
    {
      "midi": 63,
      "hit": false,
      "t": 54111.41000000012,
      "d": 140.18500000000495,
      "v": 88
    },
    {
      "midi": 56,
      "hit": false,
      "t": 54391.78000000012,
      "d": 87.61562499999854,
      "v": 88
    },
    {
      "midi": 60,
      "hit": false,
      "t": 54391.78000000012,
      "d": 102.2182291666686,
      "v": 88
    },
    {
      "midi": 53,
      "hit": false,
      "t": 54391.78000000012,
      "d": 110.9797916666721,
      "v": 88
    },
    {
      "midi": 63,
      "hit": false,
      "t": 54391.78000000012,
      "d": 153.3273437500029,
      "v": 88
    },
    {
      "midi": 53,
      "hit": false,
      "t": 54672.150000000125,
      "d": 110.97979166666482,
      "v": 88
    },
    {
      "midi": 56,
      "hit": false,
      "t": 54672.150000000125,
      "d": 110.97979166666482,
      "v": 88
    },
    {
      "midi": 60,
      "hit": false,
      "t": 54672.150000000125,
      "d": 125.58239583333489,
      "v": 88
    },
    {
      "midi": 63,
      "hit": false,
      "t": 54672.150000000125,
      "d": 156.24786458333256,
      "v": 88
    },
    {
      "midi": 46,
      "hit": false,
      "t": 54672.150000000125,
      "d": 838.1894791666709,
      "v": 86
    },
    {
      "midi": 60,
      "hit": false,
      "t": 54952.52000000013,
      "d": 102.2182291666686,
      "v": 88
    },
    {
      "midi": 53,
      "hit": false,
      "t": 54952.52000000013,
      "d": 106.59901041667035,
      "v": 88
    },
    {
      "midi": 56,
      "hit": false,
      "t": 54952.52000000013,
      "d": 106.59901041667035,
      "v": 88
    },
    {
      "midi": 63,
      "hit": false,
      "t": 54952.52000000013,
      "d": 141.64526041666977,
      "v": 88
    },
    {
      "midi": 53,
      "hit": false,
      "t": 55232.89000000013,
      "d": 99.29770833333168,
      "v": 88
    },
    {
      "midi": 56,
      "hit": false,
      "t": 55232.89000000013,
      "d": 105.13874999999825,
      "v": 88
    },
    {
      "midi": 60,
      "hit": false,
      "t": 55232.89000000013,
      "d": 116.8208333333314,
      "v": 88
    },
    {
      "midi": 63,
      "hit": false,
      "t": 55232.89000000013,
      "d": 151.8670833333308,
      "v": 88
    },
    {
      "midi": 53,
      "hit": false,
      "t": 55513.26000000013,
      "d": 99.29770833333168,
      "v": 88
    },
    {
      "midi": 60,
      "hit": false,
      "t": 55513.26000000013,
      "d": 113.90031250000175,
      "v": 88
    },
    {
      "midi": 56,
      "hit": false,
      "t": 55513.26000000013,
      "d": 128.5029166666718,
      "v": 88
    },
    {
      "midi": 63,
      "hit": false,
      "t": 55513.26000000013,
      "d": 163.54916666667123,
      "v": 88
    },
    {
      "midi": 34,
      "hit": false,
      "t": 55513.26000000013,
      "d": 420.5550000000003,
      "v": 70
    },
    {
      "midi": 56,
      "hit": false,
      "t": 55793.630000000136,
      "d": 86.15536458333372,
      "v": 88
    },
    {
      "midi": 53,
      "hit": false,
      "t": 55793.630000000136,
      "d": 97.83744791666686,
      "v": 88
    },
    {
      "midi": 60,
      "hit": false,
      "t": 55793.630000000136,
      "d": 97.83744791666686,
      "v": 88
    },
    {
      "midi": 63,
      "hit": false,
      "t": 55793.630000000136,
      "d": 169.39020833333052,
      "v": 88
    },
    {
      "midi": 60,
      "hit": false,
      "t": 56074.00000000013,
      "d": 99.29770833333168,
      "v": 88
    },
    {
      "midi": 58,
      "hit": false,
      "t": 56074.00000000013,
      "d": 118.28109374999622,
      "v": 88
    },
    {
      "midi": 55,
      "hit": false,
      "t": 56074.00000000013,
      "d": 128.50291666666453,
      "v": 88
    },
    {
      "midi": 63,
      "hit": false,
      "t": 56074.00000000013,
      "d": 157.70812499999738,
      "v": 88
    },
    {
      "midi": 39,
      "hit": false,
      "t": 56074.00000000013,
      "d": 810.4445312500029,
      "v": 99
    },
    {
      "midi": 60,
      "hit": false,
      "t": 56354.370000000126,
      "d": 102.2182291666686,
      "v": 88
    },
    {
      "midi": 55,
      "hit": false,
      "t": 56354.370000000126,
      "d": 128.5029166666718,
      "v": 88
    },
    {
      "midi": 58,
      "hit": false,
      "t": 56354.370000000126,
      "d": 128.5029166666718,
      "v": 88
    },
    {
      "midi": 63,
      "hit": false,
      "t": 56354.370000000126,
      "d": 144.5657812500067,
      "v": 88
    },
    {
      "midi": 55,
      "hit": false,
      "t": 56634.740000000136,
      "d": 106.59901041666308,
      "v": 88
    },
    {
      "midi": 60,
      "hit": false,
      "t": 56634.740000000136,
      "d": 106.59901041666308,
      "v": 88
    },
    {
      "midi": 58,
      "hit": false,
      "t": 56634.740000000136,
      "d": 125.58239583332761,
      "v": 88
    },
    {
      "midi": 63,
      "hit": false,
      "t": 56634.740000000136,
      "d": 125.58239583332761,
      "v": 88
    },
    {
      "midi": 55,
      "hit": false,
      "t": 56915.11000000013,
      "d": 99.29770833333168,
      "v": 88
    },
    {
      "midi": 60,
      "hit": false,
      "t": 56915.11000000013,
      "d": 109.51953125,
      "v": 88
    },
    {
      "midi": 58,
      "hit": false,
      "t": 56915.11000000013,
      "d": 129.96317708333663,
      "v": 88
    },
    {
      "midi": 63,
      "hit": false,
      "t": 56915.11000000013,
      "d": 129.96317708333663,
      "v": 88
    },
    {
      "midi": 46,
      "hit": false,
      "t": 56915.11000000013,
      "d": 728.6699479166709,
      "v": 70
    },
    {
      "midi": 55,
      "hit": false,
      "t": 57195.480000000134,
      "d": 109.51953125,
      "v": 88
    },
    {
      "midi": 58,
      "hit": false,
      "t": 57195.480000000134,
      "d": 116.8208333333314,
      "v": 88
    },
    {
      "midi": 60,
      "hit": false,
      "t": 57195.480000000134,
      "d": 116.8208333333314,
      "v": 88
    },
    {
      "midi": 63,
      "hit": false,
      "t": 57195.480000000134,
      "d": 140.18499999999767,
      "v": 88
    },
    {
      "midi": 55,
      "hit": false,
      "t": 57475.85000000013,
      "d": 105.13874999999825,
      "v": 88
    },
    {
      "midi": 60,
      "hit": false,
      "t": 57475.85000000013,
      "d": 113.90031250000175,
      "v": 88
    },
    {
      "midi": 63,
      "hit": false,
      "t": 57475.85000000013,
      "d": 118.28109375000349,
      "v": 88
    },
    {
      "midi": 58,
      "hit": false,
      "t": 57475.85000000013,
      "d": 132.88369791667355,
      "v": 88
    },
    {
      "midi": 55,
      "hit": false,
      "t": 57756.22000000014,
      "d": 106.59901041666308,
      "v": 88
    },
    {
      "midi": 63,
      "hit": false,
      "t": 57756.22000000014,
      "d": 118.28109374999622,
      "v": 88
    },
    {
      "midi": 60,
      "hit": false,
      "t": 57756.22000000014,
      "d": 122.66187499999796,
      "v": 88
    },
    {
      "midi": 58,
      "hit": false,
      "t": 57756.22000000014,
      "d": 128.50291666666453,
      "v": 88
    },
    {
      "midi": 46,
      "hit": false,
      "t": 57756.22000000014,
      "d": 537.3758333333317,
      "v": 77
    },
    {
      "midi": 55,
      "hit": false,
      "t": 58036.590000000135,
      "d": 81.77458333333198,
      "v": 88
    },
    {
      "midi": 60,
      "hit": false,
      "t": 58036.590000000135,
      "d": 106.59901041666308,
      "v": 88
    },
    {
      "midi": 58,
      "hit": false,
      "t": 58036.590000000135,
      "d": 122.66187499999796,
      "v": 88
    },
    {
      "midi": 63,
      "hit": false,
      "t": 58036.590000000135,
      "d": 144.56578124999942,
      "v": 88
    },
    {
      "midi": 53,
      "hit": false,
      "t": 58316.96000000014,
      "d": 113.90031250000175,
      "v": 88
    },
    {
      "midi": 60,
      "hit": false,
      "t": 58316.96000000014,
      "d": 129.96317708333663,
      "v": 88
    },
    {
      "midi": 56,
      "hit": false,
      "t": 58316.96000000014,
      "d": 144.5657812500067,
      "v": 88
    },
    {
      "midi": 63,
      "hit": false,
      "t": 58316.96000000014,
      "d": 172.31072916667472,
      "v": 88
    },
    {
      "midi": 41,
      "hit": false,
      "t": 58316.96000000014,
      "d": 714.0673437500081,
      "v": 60
    },
    {
      "midi": 60,
      "hit": false,
      "t": 58597.33000000015,
      "d": 99.29770833333168,
      "v": 88
    },
    {
      "midi": 56,
      "hit": false,
      "t": 58597.33000000015,
      "d": 106.59901041666308,
      "v": 88
    },
    {
      "midi": 53,
      "hit": false,
      "t": 58597.33000000015,
      "d": 116.8208333333314,
      "v": 88
    },
    {
      "midi": 63,
      "hit": false,
      "t": 58597.33000000015,
      "d": 141.6452604166625,
      "v": 88
    },
    {
      "midi": 60,
      "hit": false,
      "t": 58877.70000000014,
      "d": 93.45666666666511,
      "v": 88
    },
    {
      "midi": 53,
      "hit": false,
      "t": 58877.70000000014,
      "d": 106.59901041666308,
      "v": 88
    },
    {
      "midi": 56,
      "hit": false,
      "t": 58877.70000000014,
      "d": 110.97979166666482,
      "v": 88
    },
    {
      "midi": 63,
      "hit": false,
      "t": 58877.70000000014,
      "d": 148.94656250000116,
      "v": 88
    },
    {
      "midi": 53,
      "hit": false,
      "t": 59158.070000000145,
      "d": 109.51953125,
      "v": 88
    },
    {
      "midi": 56,
      "hit": false,
      "t": 59158.070000000145,
      "d": 116.8208333333314,
      "v": 88
    },
    {
      "midi": 60,
      "hit": false,
      "t": 59158.070000000145,
      "d": 125.58239583333489,
      "v": 88
    },
    {
      "midi": 63,
      "hit": false,
      "t": 59158.070000000145,
      "d": 141.64526041666977,
      "v": 88
    },
    {
      "midi": 46,
      "hit": false,
      "t": 59158.070000000145,
      "d": 838.1894791666709,
      "v": 86
    },
    {
      "midi": 56,
      "hit": false,
      "t": 59438.44000000015,
      "d": 90.53614583333547,
      "v": 88
    },
    {
      "midi": 53,
      "hit": false,
      "t": 59438.44000000015,
      "d": 106.59901041667035,
      "v": 88
    },
    {
      "midi": 60,
      "hit": false,
      "t": 59438.44000000015,
      "d": 122.66187500000524,
      "v": 88
    },
    {
      "midi": 63,
      "hit": false,
      "t": 59438.44000000015,
      "d": 129.96317708333663,
      "v": 88
    },
    {
      "midi": 53,
      "hit": false,
      "t": 59718.81000000015,
      "d": 109.51953125,
      "v": 88
    },
    {
      "midi": 56,
      "hit": false,
      "t": 59718.81000000015,
      "d": 109.51953125,
      "v": 88
    },
    {
      "midi": 60,
      "hit": false,
      "t": 59718.81000000015,
      "d": 116.8208333333314,
      "v": 88
    },
    {
      "midi": 63,
      "hit": false,
      "t": 59718.81000000015,
      "d": 146.02604166666424,
      "v": 88
    },
    {
      "midi": 56,
      "hit": false,
      "t": 59999.18000000015,
      "d": 94.91692708332994,
      "v": 88
    },
    {
      "midi": 53,
      "hit": false,
      "t": 59999.18000000015,
      "d": 102.21822916666133,
      "v": 88
    },
    {
      "midi": 60,
      "hit": false,
      "t": 59999.18000000015,
      "d": 102.21822916666133,
      "v": 88
    },
    {
      "midi": 63,
      "hit": false,
      "t": 59999.18000000015,
      "d": 129.96317708332936,
      "v": 88
    },
    {
      "midi": 34,
      "hit": false,
      "t": 59999.18000000015,
      "d": 420.5550000000003,
      "v": 70
    },
    {
      "midi": 60,
      "hit": false,
      "t": 60279.55000000015,
      "d": 78.85406250000233,
      "v": 88
    },
    {
      "midi": 56,
      "hit": false,
      "t": 60279.55000000015,
      "d": 83.23484375000407,
      "v": 88
    },
    {
      "midi": 53,
      "hit": false,
      "t": 60279.55000000015,
      "d": 97.83744791667414,
      "v": 88
    },
    {
      "midi": 63,
      "hit": false,
      "t": 60279.55000000015,
      "d": 122.66187500000524,
      "v": 88
    },
    {
      "midi": 74,
      "hit": false,
      "t": 60559.92000000002,
      "d": 316.87651041666686,
      "v": 71
    },
    {
      "midi": 86,
      "hit": false,
      "t": 60559.92000000002,
      "d": 316.87651041666686,
      "v": 71
    },
    {
      "midi": 31,
      "hit": false,
      "t": 60559.92000000015,
      "d": 733.0507291666654,
      "v": 70
    },
    {
      "midi": 62,
      "hit": false,
      "t": 60559.92000000015,
      "d": 1826.7857812500006,
      "v": 88
    },
    {
      "midi": 65,
      "hit": false,
      "t": 60559.92000000015,
      "d": 1838.4678645833337,
      "v": 88
    },
    {
      "midi": 55,
      "hit": false,
      "t": 60559.92000000015,
      "d": 1858.9115104166704,
      "v": 88
    },
    {
      "midi": 58,
      "hit": false,
      "t": 60559.92000000015,
      "d": 1904.179583333338,
      "v": 88
    },
    {
      "midi": 77,
      "hit": false,
      "t": 60840.29000000002,
      "d": 289.13156249999884,
      "v": 56
    },
    {
      "midi": 89,
      "hit": false,
      "t": 60840.29000000002,
      "d": 289.13156249999884,
      "v": 56
    },
    {
      "midi": 79,
      "hit": false,
      "t": 61120.66000000002,
      "d": 340.24067708333314,
      "v": 64
    },
    {
      "midi": 91,
      "hit": false,
      "t": 61120.66000000002,
      "d": 340.24067708333314,
      "v": 64
    },
    {
      "midi": 77,
      "hit": false,
      "t": 61401.03000000002,
      "d": 309.5752083333282,
      "v": 71
    },
    {
      "midi": 89,
      "hit": false,
      "t": 61401.03000000002,
      "d": 309.5752083333282,
      "v": 71
    },
    {
      "midi": 31,
      "hit": false,
      "t": 61401.03000000015,
      "d": 971.0731770833299,
      "v": 60
    },
    {
      "midi": 74,
      "hit": false,
      "t": 61681.400000000016,
      "d": 280.3700000000026,
      "v": 69
    },
    {
      "midi": 86,
      "hit": false,
      "t": 61681.400000000016,
      "d": 280.3700000000026,
      "v": 69
    },
    {
      "midi": 77,
      "hit": false,
      "t": 61961.77000000002,
      "d": 274.52895833333605,
      "v": 64
    },
    {
      "midi": 89,
      "hit": false,
      "t": 61961.77000000002,
      "d": 274.52895833333605,
      "v": 64
    },
    {
      "midi": 79,
      "hit": false,
      "t": 62242.14000000002,
      "d": 347.5419791666718,
      "v": 56
    },
    {
      "midi": 91,
      "hit": false,
      "t": 62242.14000000002,
      "d": 347.5419791666718,
      "v": 56
    },
    {
      "midi": 77,
      "hit": false,
      "t": 62522.510000000024,
      "d": 321.2572916666686,
      "v": 52
    },
    {
      "midi": 89,
      "hit": false,
      "t": 62522.510000000024,
      "d": 321.2572916666686,
      "v": 52
    },
    {
      "midi": 31,
      "hit": false,
      "t": 62522.510000000155,
      "d": 227.8006250000035,
      "v": 70
    },
    {
      "midi": 72,
      "hit": false,
      "t": 62802.88000000003,
      "d": 305.1944270833337,
      "v": 56
    },
    {
      "midi": 84,
      "hit": false,
      "t": 62802.88000000003,
      "d": 305.1944270833337,
      "v": 56
    },
    {
      "midi": 29,
      "hit": false,
      "t": 62802.88000000016,
      "d": 660.0377083333369,
      "v": 61
    },
    {
      "midi": 56,
      "hit": false,
      "t": 62802.88000000016,
      "d": 1990.3349479166645,
      "v": 88
    },
    {
      "midi": 60,
      "hit": false,
      "t": 62802.88000000016,
      "d": 1999.096510416668,
      "v": 88
    },
    {
      "midi": 53,
      "hit": false,
      "t": 62802.88000000016,
      "d": 2006.3978124999994,
      "v": 88
    },
    {
      "midi": 63,
      "hit": false,
      "t": 62802.88000000016,
      "d": 2034.1427604166674,
      "v": 88
    },
    {
      "midi": 77,
      "hit": false,
      "t": 63083.25000000003,
      "d": 262.84687499999563,
      "v": 56
    },
    {
      "midi": 89,
      "hit": false,
      "t": 63083.25000000003,
      "d": 262.84687499999563,
      "v": 56
    },
    {
      "midi": 79,
      "hit": false,
      "t": 63363.620000000024,
      "d": 338.7804166666683,
      "v": 60
    },
    {
      "midi": 91,
      "hit": false,
      "t": 63363.620000000024,
      "d": 338.7804166666683,
      "v": 60
    },
    {
      "midi": 77,
      "hit": false,
      "t": 63643.99000000003,
      "d": 308.11494791667064,
      "v": 56
    },
    {
      "midi": 89,
      "hit": false,
      "t": 63643.99000000003,
      "d": 308.11494791667064,
      "v": 56
    },
    {
      "midi": 29,
      "hit": false,
      "t": 63643.99000000016,
      "d": 1193.0327604166669,
      "v": 56
    },
    {
      "midi": 72,
      "hit": false,
      "t": 63924.36000000003,
      "d": 324.17781250000553,
      "v": 60
    },
    {
      "midi": 84,
      "hit": false,
      "t": 63924.36000000003,
      "d": 324.17781250000553,
      "v": 60
    },
    {
      "midi": 77,
      "hit": false,
      "t": 64204.73000000003,
      "d": 284.75078125000437,
      "v": 49
    },
    {
      "midi": 89,
      "hit": false,
      "t": 64204.73000000003,
      "d": 284.75078125000437,
      "v": 49
    },
    {
      "midi": 79,
      "hit": false,
      "t": 64485.100000000035,
      "d": 354.8432812500032,
      "v": 60
    },
    {
      "midi": 91,
      "hit": false,
      "t": 64485.100000000035,
      "d": 354.8432812500032,
      "v": 60
    },
    {
      "midi": 77,
      "hit": false,
      "t": 64765.47000000004,
      "d": 277.4494791666657,
      "v": 64
    },
    {
      "midi": 89,
      "hit": false,
      "t": 64765.47000000004,
      "d": 277.4494791666657,
      "v": 64
    },
    {
      "midi": 74,
      "hit": false,
      "t": 65045.84000000004,
      "d": 297.8931250000023,
      "v": 71
    },
    {
      "midi": 86,
      "hit": false,
      "t": 65045.84000000004,
      "d": 297.8931250000023,
      "v": 71
    },
    {
      "midi": 31,
      "hit": false,
      "t": 65045.84000000016,
      "d": 677.5608333333366,
      "v": 77
    },
    {
      "midi": 55,
      "hit": false,
      "t": 65045.84000000016,
      "d": 1987.4144270833494,
      "v": 88
    },
    {
      "midi": 62,
      "hit": false,
      "t": 65045.84000000016,
      "d": 2026.8414583333506,
      "v": 88
    },
    {
      "midi": 65,
      "hit": false,
      "t": 65045.84000000016,
      "d": 2044.3645833333576,
      "v": 88
    },
    {
      "midi": 58,
      "hit": false,
      "t": 65045.84000000016,
      "d": 2064.808229166694,
      "v": 88
    },
    {
      "midi": 77,
      "hit": false,
      "t": 65326.21000000004,
      "d": 293.51234375000786,
      "v": 56
    },
    {
      "midi": 89,
      "hit": false,
      "t": 65326.21000000004,
      "d": 293.51234375000786,
      "v": 56
    },
    {
      "midi": 79,
      "hit": false,
      "t": 65606.58000000005,
      "d": 332.9393750000163,
      "v": 56
    },
    {
      "midi": 91,
      "hit": false,
      "t": 65606.58000000005,
      "d": 332.9393750000163,
      "v": 56
    },
    {
      "midi": 77,
      "hit": false,
      "t": 65886.95000000006,
      "d": 297.8931250000169,
      "v": 56
    },
    {
      "midi": 89,
      "hit": false,
      "t": 65886.95000000006,
      "d": 297.8931250000169,
      "v": 56
    },
    {
      "midi": 31,
      "hit": false,
      "t": 65886.95000000016,
      "d": 928.7256250000064,
      "v": 70
    },
    {
      "midi": 74,
      "hit": false,
      "t": 66167.32000000007,
      "d": 297.8931250000169,
      "v": 56
    },
    {
      "midi": 86,
      "hit": false,
      "t": 66167.32000000007,
      "d": 297.8931250000169,
      "v": 56
    },
    {
      "midi": 77,
      "hit": false,
      "t": 66447.69000000008,
      "d": 277.44947916668025,
      "v": 52
    },
    {
      "midi": 89,
      "hit": false,
      "t": 66447.69000000008,
      "d": 277.44947916668025,
      "v": 52
    },
    {
      "midi": 79,
      "hit": false,
      "t": 66728.06000000008,
      "d": 367.98562500000116,
      "v": 52
    },
    {
      "midi": 91,
      "hit": false,
      "t": 66728.06000000008,
      "d": 367.98562500000116,
      "v": 52
    },
    {
      "midi": 77,
      "hit": false,
      "t": 67008.43000000008,
      "d": 293.51234375001513,
      "v": 56
    },
    {
      "midi": 89,
      "hit": false,
      "t": 67008.43000000008,
      "d": 293.51234375001513,
      "v": 56
    },
    {
      "midi": 31,
      "hit": false,
      "t": 67008.43000000017,
      "d": 261.38661458334536,
      "v": 61
    },
    {
      "midi": 72,
      "hit": false,
      "t": 67288.80000000009,
      "d": 300.8136458333465,
      "v": 56
    },
    {
      "midi": 84,
      "hit": false,
      "t": 67288.80000000009,
      "d": 300.8136458333465,
      "v": 56
    },
    {
      "midi": 29,
      "hit": false,
      "t": 67288.80000000018,
      "d": 671.7197916666628,
      "v": 61
    },
    {
      "midi": 53,
      "hit": false,
      "t": 67288.80000000018,
      "d": 1964.0502604166686,
      "v": 88
    },
    {
      "midi": 60,
      "hit": false,
      "t": 67288.80000000018,
      "d": 1964.0502604166686,
      "v": 88
    },
    {
      "midi": 56,
      "hit": false,
      "t": 67288.80000000018,
      "d": 2006.3978124999994,
      "v": 88
    },
    {
      "midi": 63,
      "hit": false,
      "t": 67288.80000000018,
      "d": 2034.1427604166674,
      "v": 88
    },
    {
      "midi": 77,
      "hit": false,
      "t": 67569.1700000001,
      "d": 316.8765104166814,
      "v": 49
    },
    {
      "midi": 89,
      "hit": false,
      "t": 67569.1700000001,
      "d": 316.8765104166814,
      "v": 49
    },
    {
      "midi": 79,
      "hit": false,
      "t": 67849.54000000011,
      "d": 321.25729166668316,
      "v": 52
    },
    {
      "midi": 91,
      "hit": false,
      "t": 67849.54000000011,
      "d": 321.25729166668316,
      "v": 52
    },
    {
      "midi": 77,
      "hit": false,
      "t": 68129.91000000012,
      "d": 286.21104166668374,
      "v": 60
    },
    {
      "midi": 89,
      "hit": false,
      "t": 68129.91000000012,
      "d": 286.21104166668374,
      "v": 60
    },
    {
      "midi": 29,
      "hit": false,
      "t": 68129.91000000018,
      "d": 1203.254583333328,
      "v": 61
    },
    {
      "midi": 72,
      "hit": false,
      "t": 68410.28000000013,
      "d": 315.4162500000093,
      "v": 46
    },
    {
      "midi": 84,
      "hit": false,
      "t": 68410.28000000013,
      "d": 315.4162500000093,
      "v": 46
    },
    {
      "midi": 77,
      "hit": false,
      "t": 68690.65000000014,
      "d": 265.76739583333256,
      "v": 49
    },
    {
      "midi": 89,
      "hit": false,
      "t": 68690.65000000014,
      "d": 265.76739583333256,
      "v": 49
    },
    {
      "midi": 79,
      "hit": false,
      "t": 68971.02000000014,
      "d": 373.82666666666046,
      "v": 46
    },
    {
      "midi": 91,
      "hit": false,
      "t": 68971.02000000014,
      "d": 373.82666666666046,
      "v": 46
    },
    {
      "midi": 77,
      "hit": false,
      "t": 69251.39000000013,
      "d": 284.7507812499971,
      "v": 56
    },
    {
      "midi": 89,
      "hit": false,
      "t": 69251.39000000013,
      "d": 284.7507812499971,
      "v": 56
    },
    {
      "midi": 74,
      "hit": false,
      "t": 69531.76000000013,
      "d": 315.41624999999476,
      "v": 69
    },
    {
      "midi": 86,
      "hit": false,
      "t": 69531.76000000013,
      "d": 315.41624999999476,
      "v": 69
    },
    {
      "midi": 31,
      "hit": false,
      "t": 69531.76000000017,
      "d": 642.5145833333372,
      "v": 77
    },
    {
      "midi": 62,
      "hit": false,
      "t": 69531.76000000017,
      "d": 1679.2994791666715,
      "v": 88
    },
    {
      "midi": 58,
      "hit": false,
      "t": 69531.76000000017,
      "d": 1690.9815625000047,
      "v": 88
    },
    {
      "midi": 65,
      "hit": false,
      "t": 69531.76000000017,
      "d": 1695.3623437500064,
      "v": 88
    },
    {
      "midi": 55,
      "hit": false,
      "t": 69531.76000000017,
      "d": 1699.7431250000081,
      "v": 88
    },
    {
      "midi": 77,
      "hit": false,
      "t": 69812.13000000012,
      "d": 277.4494791666657,
      "v": 60
    },
    {
      "midi": 89,
      "hit": false,
      "t": 69812.13000000012,
      "d": 277.4494791666657,
      "v": 60
    },
    {
      "midi": 79,
      "hit": false,
      "t": 70092.50000000012,
      "d": 389.88953124999534,
      "v": 56
    },
    {
      "midi": 91,
      "hit": false,
      "t": 70092.50000000012,
      "d": 389.88953124999534,
      "v": 56
    },
    {
      "midi": 77,
      "hit": false,
      "t": 70372.87000000011,
      "d": 300.813645833332,
      "v": 52
    },
    {
      "midi": 89,
      "hit": false,
      "t": 70372.87000000011,
      "d": 300.813645833332,
      "v": 52
    },
    {
      "midi": 31,
      "hit": false,
      "t": 70372.87000000017,
      "d": 1041.165677083336,
      "v": 77
    },
    {
      "midi": 74,
      "hit": false,
      "t": 70653.2400000001,
      "d": 305.1944270833483,
      "v": 69
    },
    {
      "midi": 86,
      "hit": false,
      "t": 70653.2400000001,
      "d": 305.1944270833483,
      "v": 69
    },
    {
      "midi": 77,
      "hit": false,
      "t": 70933.61000000012,
      "d": 293.51234375001513,
      "v": 52
    },
    {
      "midi": 89,
      "hit": false,
      "t": 70933.61000000012,
      "d": 293.51234375001513,
      "v": 52
    },
    {
      "midi": 79,
      "hit": false,
      "t": 71213.98000000013,
      "d": 478.96541666667326,
      "v": 49
    },
    {
      "midi": 91,
      "hit": false,
      "t": 71213.98000000013,
      "d": 478.96541666667326,
      "v": 49
    },
    {
      "midi": 77,
      "hit": false,
      "t": 71494.35000000014,
      "d": 148.94656250000116,
      "v": 46
    },
    {
      "midi": 89,
      "hit": false,
      "t": 71494.35000000014,
      "d": 148.94656250000116,
      "v": 46
    },
    {
      "midi": 80,
      "hit": false,
      "t": 71774.72000000013,
      "d": 814.8253125000047,
      "v": 71
    },
    {
      "midi": 92,
      "hit": false,
      "t": 71774.72000000013,
      "d": 814.8253125000047,
      "v": 71
    },
    {
      "midi": 56,
      "hit": false,
      "t": 71774.72000000018,
      "d": 188.37359375000233,
      "v": 88
    },
    {
      "midi": 60,
      "hit": false,
      "t": 71774.72000000018,
      "d": 195.67489583333372,
      "v": 88
    },
    {
      "midi": 63,
      "hit": false,
      "t": 71774.72000000018,
      "d": 216.11854166667035,
      "v": 88
    },
    {
      "midi": 44,
      "hit": false,
      "t": 71774.72000000018,
      "d": 303.7341666666762,
      "v": 77
    },
    {
      "midi": 56,
      "hit": false,
      "t": 72055.09000000019,
      "d": 192.75437500000407,
      "v": 88
    },
    {
      "midi": 60,
      "hit": false,
      "t": 72055.09000000019,
      "d": 207.35697916666686,
      "v": 88
    },
    {
      "midi": 63,
      "hit": false,
      "t": 72055.09000000019,
      "d": 223.41984375000175,
      "v": 88
    },
    {
      "midi": 32,
      "hit": false,
      "t": 72055.09000000019,
      "d": 249.70453124999767,
      "v": 86
    },
    {
      "midi": 79,
      "hit": false,
      "t": 72615.83000000013,
      "d": 530.074531249993,
      "v": 69
    },
    {
      "midi": 91,
      "hit": false,
      "t": 72615.83000000013,
      "d": 530.074531249993,
      "v": 69
    },
    {
      "midi": 56,
      "hit": false,
      "t": 72615.83000000018,
      "d": 163.54916666666395,
      "v": 88
    },
    {
      "midi": 60,
      "hit": false,
      "t": 72615.83000000018,
      "d": 163.54916666666395,
      "v": 88
    },
    {
      "midi": 63,
      "hit": false,
      "t": 72615.83000000018,
      "d": 195.67489583333372,
      "v": 88
    },
    {
      "midi": 46,
      "hit": false,
      "t": 72615.83000000018,
      "d": 331.47911458332965,
      "v": 86
    },
    {
      "midi": 77,
      "hit": false,
      "t": 73176.57000000012,
      "d": 525.6937500000058,
      "v": 60
    },
    {
      "midi": 89,
      "hit": false,
      "t": 73176.57000000012,
      "d": 525.6937500000058,
      "v": 60
    },
    {
      "midi": 46,
      "hit": false,
      "t": 73176.57000000017,
      "d": 296.43286458333023,
      "v": 86
    },
    {
      "midi": 58,
      "hit": false,
      "t": 73176.57000000017,
      "d": 398.65109374999884,
      "v": 88
    },
    {
      "midi": 62,
      "hit": false,
      "t": 73176.57000000017,
      "d": 405.95239583333023,
      "v": 88
    },
    {
      "midi": 65,
      "hit": false,
      "t": 73176.57000000017,
      "d": 432.23708333332615,
      "v": 88
    },
    {
      "midi": 34,
      "hit": false,
      "t": 73456.94000000016,
      "d": 459.9820312499942,
      "v": 86
    },
    {
      "midi": 55,
      "hit": false,
      "t": 74017.68000000015,
      "d": 93.45666666666511,
      "v": 88
    },
    {
      "midi": 60,
      "hit": false,
      "t": 74017.68000000015,
      "d": 128.50291666666453,
      "v": 88
    },
    {
      "midi": 58,
      "hit": false,
      "t": 74017.68000000015,
      "d": 134.34395833333838,
      "v": 88
    },
    {
      "midi": 63,
      "hit": false,
      "t": 74017.68000000015,
      "d": 144.56578124999942,
      "v": 88
    },
    {
      "midi": 39,
      "hit": false,
      "t": 74017.68000000015,
      "d": 810.4445312500029,
      "v": 99
    },
    {
      "midi": 60,
      "hit": false,
      "t": 74298.05000000015,
      "d": 128.50291666666453,
      "v": 88
    },
    {
      "midi": 55,
      "hit": false,
      "t": 74298.05000000015,
      "d": 132.88369791666628,
      "v": 88
    },
    {
      "midi": 58,
      "hit": false,
      "t": 74298.05000000015,
      "d": 141.64526041666977,
      "v": 88
    },
    {
      "midi": 63,
      "hit": false,
      "t": 74298.05000000015,
      "d": 141.64526041666977,
      "v": 88
    },
    {
      "midi": 55,
      "hit": false,
      "t": 74578.42000000016,
      "d": 113.90031250000175,
      "v": 88
    },
    {
      "midi": 60,
      "hit": false,
      "t": 74578.42000000016,
      "d": 125.58239583333489,
      "v": 88
    },
    {
      "midi": 58,
      "hit": false,
      "t": 74578.42000000016,
      "d": 132.88369791666628,
      "v": 88
    },
    {
      "midi": 63,
      "hit": false,
      "t": 74578.42000000016,
      "d": 132.88369791666628,
      "v": 88
    },
    {
      "midi": 60,
      "hit": false,
      "t": 74858.79000000015,
      "d": 125.58239583333489,
      "v": 88
    },
    {
      "midi": 55,
      "hit": false,
      "t": 74858.79000000015,
      "d": 134.34395833333838,
      "v": 88
    },
    {
      "midi": 63,
      "hit": false,
      "t": 74858.79000000015,
      "d": 141.64526041666977,
      "v": 88
    },
    {
      "midi": 58,
      "hit": false,
      "t": 74858.79000000015,
      "d": 151.8670833333308,
      "v": 88
    },
    {
      "midi": 46,
      "hit": false,
      "t": 74858.79000000015,
      "d": 728.6699479166709,
      "v": 70
    },
    {
      "midi": 55,
      "hit": false,
      "t": 75139.16000000015,
      "d": 94.91692708333721,
      "v": 88
    },
    {
      "midi": 60,
      "hit": false,
      "t": 75139.16000000015,
      "d": 113.90031250000175,
      "v": 88
    },
    {
      "midi": 58,
      "hit": false,
      "t": 75139.16000000015,
      "d": 122.66187500000524,
      "v": 88
    },
    {
      "midi": 63,
      "hit": false,
      "t": 75139.16000000015,
      "d": 129.96317708333663,
      "v": 88
    },
    {
      "midi": 55,
      "hit": false,
      "t": 75419.53000000016,
      "d": 86.15536458333372,
      "v": 88
    },
    {
      "midi": 60,
      "hit": false,
      "t": 75419.53000000016,
      "d": 116.8208333333314,
      "v": 88
    },
    {
      "midi": 63,
      "hit": false,
      "t": 75419.53000000016,
      "d": 121.20161458333314,
      "v": 88
    },
    {
      "midi": 58,
      "hit": false,
      "t": 75419.53000000016,
      "d": 141.64526041666977,
      "v": 88
    },
    {
      "midi": 55,
      "hit": false,
      "t": 75699.90000000015,
      "d": 99.29770833333896,
      "v": 88
    },
    {
      "midi": 60,
      "hit": false,
      "t": 75699.90000000015,
      "d": 118.28109375000349,
      "v": 88
    },
    {
      "midi": 58,
      "hit": false,
      "t": 75699.90000000015,
      "d": 144.56578124999942,
      "v": 88
    },
    {
      "midi": 63,
      "hit": false,
      "t": 75699.90000000015,
      "d": 144.56578124999942,
      "v": 88
    },
    {
      "midi": 46,
      "hit": false,
      "t": 75699.90000000015,
      "d": 537.3758333333244,
      "v": 77
    },
    {
      "midi": 58,
      "hit": false,
      "t": 75980.27000000015,
      "d": 87.61562500000582,
      "v": 88
    },
    {
      "midi": 55,
      "hit": false,
      "t": 75980.27000000015,
      "d": 97.83744791666686,
      "v": 88
    },
    {
      "midi": 60,
      "hit": false,
      "t": 75980.27000000015,
      "d": 110.9797916666721,
      "v": 88
    },
    {
      "midi": 63,
      "hit": false,
      "t": 75980.27000000015,
      "d": 137.26447916666802,
      "v": 88
    },
    {
      "midi": 53,
      "hit": false,
      "t": 76260.64000000014,
      "d": 121.20161458333314,
      "v": 88
    },
    {
      "midi": 60,
      "hit": false,
      "t": 76260.64000000014,
      "d": 125.58239583333489,
      "v": 88
    },
    {
      "midi": 56,
      "hit": false,
      "t": 76260.64000000014,
      "d": 129.96317708333663,
      "v": 88
    },
    {
      "midi": 63,
      "hit": false,
      "t": 76260.64000000014,
      "d": 167.9299479166657,
      "v": 88
    },
    {
      "midi": 41,
      "hit": false,
      "t": 76260.64000000014,
      "d": 714.0673437499936,
      "v": 60
    },
    {
      "midi": 56,
      "hit": false,
      "t": 76541.01000000014,
      "d": 105.13874999999825,
      "v": 88
    },
    {
      "midi": 53,
      "hit": false,
      "t": 76541.01000000014,
      "d": 118.28109375000349,
      "v": 88
    },
    {
      "midi": 60,
      "hit": false,
      "t": 76541.01000000014,
      "d": 118.28109375000349,
      "v": 88
    },
    {
      "midi": 63,
      "hit": false,
      "t": 76541.01000000014,
      "d": 140.18499999999767,
      "v": 88
    },
    {
      "midi": 56,
      "hit": false,
      "t": 76821.38000000014,
      "d": 87.61562500000582,
      "v": 88
    },
    {
      "midi": 60,
      "hit": false,
      "t": 76821.38000000014,
      "d": 102.2182291666686,
      "v": 88
    },
    {
      "midi": 53,
      "hit": false,
      "t": 76821.38000000014,
      "d": 110.9797916666721,
      "v": 88
    },
    {
      "midi": 63,
      "hit": false,
      "t": 76821.38000000014,
      "d": 153.3273437500029,
      "v": 88
    },
    {
      "midi": 56,
      "hit": false,
      "t": 77101.75000000015,
      "d": 113.90031250000175,
      "v": 88
    },
    {
      "midi": 53,
      "hit": false,
      "t": 77101.75000000015,
      "d": 118.28109375000349,
      "v": 88
    },
    {
      "midi": 60,
      "hit": false,
      "t": 77101.75000000015,
      "d": 125.58239583333489,
      "v": 88
    },
    {
      "midi": 63,
      "hit": false,
      "t": 77101.75000000015,
      "d": 156.24786458333256,
      "v": 88
    },
    {
      "midi": 46,
      "hit": false,
      "t": 77101.75000000015,
      "d": 838.1894791666709,
      "v": 86
    },
    {
      "midi": 60,
      "hit": false,
      "t": 77382.12000000014,
      "d": 102.2182291666686,
      "v": 88
    },
    {
      "midi": 56,
      "hit": false,
      "t": 77382.12000000014,
      "d": 106.59901041667035,
      "v": 88
    },
    {
      "midi": 53,
      "hit": false,
      "t": 77382.12000000014,
      "d": 122.66187500000524,
      "v": 88
    },
    {
      "midi": 63,
      "hit": false,
      "t": 77382.12000000014,
      "d": 141.64526041666977,
      "v": 88
    },
    {
      "midi": 56,
      "hit": false,
      "t": 77662.49000000015,
      "d": 105.13874999999825,
      "v": 88
    },
    {
      "midi": 53,
      "hit": false,
      "t": 77662.49000000015,
      "d": 113.90031250000175,
      "v": 88
    },
    {
      "midi": 60,
      "hit": false,
      "t": 77662.49000000015,
      "d": 113.90031250000175,
      "v": 88
    },
    {
      "midi": 63,
      "hit": false,
      "t": 77662.49000000015,
      "d": 151.8670833333308,
      "v": 88
    },
    {
      "midi": 53,
      "hit": false,
      "t": 77942.86000000015,
      "d": 106.59901041667035,
      "v": 88
    },
    {
      "midi": 60,
      "hit": false,
      "t": 77942.86000000015,
      "d": 113.90031250000175,
      "v": 88
    },
    {
      "midi": 56,
      "hit": false,
      "t": 77942.86000000015,
      "d": 128.50291666666453,
      "v": 88
    },
    {
      "midi": 63,
      "hit": false,
      "t": 77942.86000000015,
      "d": 163.54916666666395,
      "v": 88
    },
    {
      "midi": 34,
      "hit": false,
      "t": 77942.86000000015,
      "d": 420.554999999993,
      "v": 70
    },
    {
      "midi": 56,
      "hit": false,
      "t": 78223.23000000014,
      "d": 86.15536458333372,
      "v": 88
    },
    {
      "midi": 60,
      "hit": false,
      "t": 78223.23000000014,
      "d": 97.83744791666686,
      "v": 88
    },
    {
      "midi": 53,
      "hit": false,
      "t": 78223.23000000014,
      "d": 106.59901041667035,
      "v": 88
    },
    {
      "midi": 63,
      "hit": false,
      "t": 78223.23000000014,
      "d": 169.3902083333378,
      "v": 88
    },
    {
      "midi": 60,
      "hit": false,
      "t": 78503.60000000015,
      "d": 109.51953125,
      "v": 88
    },
    {
      "midi": 58,
      "hit": false,
      "t": 78503.60000000015,
      "d": 118.28109375000349,
      "v": 88
    },
    {
      "midi": 55,
      "hit": false,
      "t": 78503.60000000015,
      "d": 128.50291666666453,
      "v": 88
    },
    {
      "midi": 63,
      "hit": false,
      "t": 78503.60000000015,
      "d": 157.70812500000466,
      "v": 88
    },
    {
      "midi": 39,
      "hit": false,
      "t": 78503.60000000015,
      "d": 810.4445312500029,
      "v": 99
    },
    {
      "midi": 60,
      "hit": false,
      "t": 78783.97000000016,
      "d": 105.13874999999825,
      "v": 88
    },
    {
      "midi": 55,
      "hit": false,
      "t": 78783.97000000016,
      "d": 128.50291666666453,
      "v": 88
    },
    {
      "midi": 58,
      "hit": false,
      "t": 78783.97000000016,
      "d": 128.50291666666453,
      "v": 88
    },
    {
      "midi": 63,
      "hit": false,
      "t": 78783.97000000016,
      "d": 144.56578124999942,
      "v": 88
    },
    {
      "midi": 55,
      "hit": false,
      "t": 79064.34000000016,
      "d": 106.59901041667035,
      "v": 88
    },
    {
      "midi": 60,
      "hit": false,
      "t": 79064.34000000016,
      "d": 110.9797916666721,
      "v": 88
    },
    {
      "midi": 58,
      "hit": false,
      "t": 79064.34000000016,
      "d": 125.58239583333489,
      "v": 88
    },
    {
      "midi": 63,
      "hit": false,
      "t": 79064.34000000016,
      "d": 125.58239583333489,
      "v": 88
    },
    {
      "midi": 55,
      "hit": false,
      "t": 79344.71000000015,
      "d": 99.29770833333896,
      "v": 88
    },
    {
      "midi": 60,
      "hit": false,
      "t": 79344.71000000015,
      "d": 110.9797916666721,
      "v": 88
    },
    {
      "midi": 58,
      "hit": false,
      "t": 79344.71000000015,
      "d": 129.96317708333663,
      "v": 88
    },
    {
      "midi": 63,
      "hit": false,
      "t": 79344.71000000015,
      "d": 129.96317708333663,
      "v": 88
    },
    {
      "midi": 46,
      "hit": false,
      "t": 79344.71000000015,
      "d": 728.6699479166709,
      "v": 70
    },
    {
      "midi": 55,
      "hit": false,
      "t": 79625.08000000016,
      "d": 109.51953125,
      "v": 88
    },
    {
      "midi": 58,
      "hit": false,
      "t": 79625.08000000016,
      "d": 113.90031250000175,
      "v": 88
    },
    {
      "midi": 60,
      "hit": false,
      "t": 79625.08000000016,
      "d": 113.90031250000175,
      "v": 88
    },
    {
      "midi": 63,
      "hit": false,
      "t": 79625.08000000016,
      "d": 140.18499999999767,
      "v": 88
    },
    {
      "midi": 55,
      "hit": false,
      "t": 79905.45000000016,
      "d": 105.13874999999825,
      "v": 88
    },
    {
      "midi": 60,
      "hit": false,
      "t": 79905.45000000016,
      "d": 116.8208333333314,
      "v": 88
    },
    {
      "midi": 63,
      "hit": false,
      "t": 79905.45000000016,
      "d": 116.8208333333314,
      "v": 88
    },
    {
      "midi": 58,
      "hit": false,
      "t": 79905.45000000016,
      "d": 132.88369791666628,
      "v": 88
    },
    {
      "midi": 55,
      "hit": false,
      "t": 80185.82000000015,
      "d": 105.13874999999825,
      "v": 88
    },
    {
      "midi": 60,
      "hit": false,
      "t": 80185.82000000015,
      "d": 105.13874999999825,
      "v": 88
    },
    {
      "midi": 63,
      "hit": false,
      "t": 80185.82000000015,
      "d": 118.28109375000349,
      "v": 88
    },
    {
      "midi": 58,
      "hit": false,
      "t": 80185.82000000015,
      "d": 128.50291666666453,
      "v": 88
    },
    {
      "midi": 46,
      "hit": false,
      "t": 80185.82000000015,
      "d": 537.3758333333244,
      "v": 77
    },
    {
      "midi": 55,
      "hit": false,
      "t": 80466.19000000015,
      "d": 81.77458333333198,
      "v": 88
    },
    {
      "midi": 60,
      "hit": false,
      "t": 80466.19000000015,
      "d": 106.59901041667035,
      "v": 88
    },
    {
      "midi": 58,
      "hit": false,
      "t": 80466.19000000015,
      "d": 122.66187500000524,
      "v": 88
    },
    {
      "midi": 63,
      "hit": false,
      "t": 80466.19000000015,
      "d": 144.56578124999942,
      "v": 88
    },
    {
      "midi": 53,
      "hit": false,
      "t": 80746.56000000014,
      "d": 113.90031250000175,
      "v": 88
    },
    {
      "midi": 60,
      "hit": false,
      "t": 80746.56000000014,
      "d": 129.96317708333663,
      "v": 88
    },
    {
      "midi": 56,
      "hit": false,
      "t": 80746.56000000014,
      "d": 144.56578124999942,
      "v": 88
    },
    {
      "midi": 63,
      "hit": false,
      "t": 80746.56000000014,
      "d": 172.31072916666744,
      "v": 88
    },
    {
      "midi": 41,
      "hit": false,
      "t": 80746.56000000014,
      "d": 714.0673437500227,
      "v": 60
    },
    {
      "midi": 60,
      "hit": false,
      "t": 81026.93000000014,
      "d": 99.29770833333896,
      "v": 88
    },
    {
      "midi": 56,
      "hit": false,
      "t": 81026.93000000014,
      "d": 106.59901041667035,
      "v": 88
    },
    {
      "midi": 53,
      "hit": false,
      "t": 81026.93000000014,
      "d": 118.28109375000349,
      "v": 88
    },
    {
      "midi": 63,
      "hit": false,
      "t": 81026.93000000014,
      "d": 141.64526041666977,
      "v": 88
    },
    {
      "midi": 60,
      "hit": false,
      "t": 81307.30000000015,
      "d": 93.45666666666511,
      "v": 88
    },
    {
      "midi": 56,
      "hit": false,
      "t": 81307.30000000015,
      "d": 110.9797916666721,
      "v": 88
    },
    {
      "midi": 53,
      "hit": false,
      "t": 81307.30000000015,
      "d": 128.50291666667908,
      "v": 88
    },
    {
      "midi": 63,
      "hit": false,
      "t": 81307.30000000015,
      "d": 148.94656250001572,
      "v": 88
    },
    {
      "midi": 53,
      "hit": false,
      "t": 81587.67000000017,
      "d": 110.9797916666721,
      "v": 88
    },
    {
      "midi": 56,
      "hit": false,
      "t": 81587.67000000017,
      "d": 116.82083333334594,
      "v": 88
    },
    {
      "midi": 60,
      "hit": false,
      "t": 81587.67000000017,
      "d": 125.58239583334944,
      "v": 88
    },
    {
      "midi": 63,
      "hit": false,
      "t": 81587.67000000017,
      "d": 141.64526041668432,
      "v": 88
    },
    {
      "midi": 46,
      "hit": false,
      "t": 81587.67000000017,
      "d": 838.1894791667,
      "v": 86
    },
    {
      "midi": 56,
      "hit": false,
      "t": 81868.0400000002,
      "d": 90.53614583333547,
      "v": 88
    },
    {
      "midi": 53,
      "hit": false,
      "t": 81868.0400000002,
      "d": 116.8208333333314,
      "v": 88
    },
    {
      "midi": 60,
      "hit": false,
      "t": 81868.0400000002,
      "d": 122.66187500000524,
      "v": 88
    },
    {
      "midi": 63,
      "hit": false,
      "t": 81868.0400000002,
      "d": 129.96317708333663,
      "v": 88
    },
    {
      "midi": 53,
      "hit": false,
      "t": 82148.4100000002,
      "d": 105.13874999999825,
      "v": 88
    },
    {
      "midi": 56,
      "hit": false,
      "t": 82148.4100000002,
      "d": 109.51953125,
      "v": 88
    },
    {
      "midi": 60,
      "hit": false,
      "t": 82148.4100000002,
      "d": 116.8208333333314,
      "v": 88
    },
    {
      "midi": 63,
      "hit": false,
      "t": 82148.4100000002,
      "d": 146.02604166667152,
      "v": 88
    },
    {
      "midi": 56,
      "hit": false,
      "t": 82428.7800000002,
      "d": 94.91692708333721,
      "v": 88
    },
    {
      "midi": 53,
      "hit": false,
      "t": 82428.7800000002,
      "d": 102.2182291666686,
      "v": 88
    },
    {
      "midi": 60,
      "hit": false,
      "t": 82428.7800000002,
      "d": 102.2182291666686,
      "v": 88
    },
    {
      "midi": 63,
      "hit": false,
      "t": 82428.7800000002,
      "d": 129.96317708333663,
      "v": 88
    },
    {
      "midi": 34,
      "hit": false,
      "t": 82428.7800000002,
      "d": 420.5550000000221,
      "v": 70
    },
    {
      "midi": 60,
      "hit": false,
      "t": 82709.15000000021,
      "d": 78.85406250000233,
      "v": 88
    },
    {
      "midi": 56,
      "hit": false,
      "t": 82709.15000000021,
      "d": 83.23484375000407,
      "v": 88
    },
    {
      "midi": 53,
      "hit": false,
      "t": 82709.15000000021,
      "d": 90.53614583333547,
      "v": 88
    },
    {
      "midi": 63,
      "hit": false,
      "t": 82709.15000000021,
      "d": 122.66187500000524,
      "v": 88
    },
    {
      "midi": 55,
      "hit": false,
      "t": 82989.52000000022,
      "d": 93.45666666666511,
      "v": 88
    },
    {
      "midi": 60,
      "hit": false,
      "t": 82989.52000000022,
      "d": 105.13874999999825,
      "v": 88
    },
    {
      "midi": 58,
      "hit": false,
      "t": 82989.52000000022,
      "d": 134.34395833333838,
      "v": 88
    },
    {
      "midi": 63,
      "hit": false,
      "t": 82989.52000000022,
      "d": 144.56578124999942,
      "v": 88
    },
    {
      "midi": 39,
      "hit": false,
      "t": 82989.52000000022,
      "d": 810.4445312500029,
      "v": 99
    },
    {
      "midi": 60,
      "hit": false,
      "t": 83269.89000000022,
      "d": 109.51953125,
      "v": 88
    },
    {
      "midi": 55,
      "hit": false,
      "t": 83269.89000000022,
      "d": 132.88369791666628,
      "v": 88
    },
    {
      "midi": 58,
      "hit": false,
      "t": 83269.89000000022,
      "d": 141.64526041666977,
      "v": 88
    },
    {
      "midi": 63,
      "hit": false,
      "t": 83269.89000000022,
      "d": 141.64526041666977,
      "v": 88
    },
    {
      "midi": 55,
      "hit": false,
      "t": 83550.26000000023,
      "d": 110.9797916666721,
      "v": 88
    },
    {
      "midi": 60,
      "hit": false,
      "t": 83550.26000000023,
      "d": 110.9797916666721,
      "v": 88
    },
    {
      "midi": 58,
      "hit": false,
      "t": 83550.26000000023,
      "d": 132.88369791666628,
      "v": 88
    },
    {
      "midi": 63,
      "hit": false,
      "t": 83550.26000000023,
      "d": 132.88369791666628,
      "v": 88
    },
    {
      "midi": 60,
      "hit": false,
      "t": 83830.63000000022,
      "d": 102.2182291666686,
      "v": 88
    },
    {
      "midi": 55,
      "hit": false,
      "t": 83830.63000000022,
      "d": 134.34395833333838,
      "v": 88
    },
    {
      "midi": 63,
      "hit": false,
      "t": 83830.63000000022,
      "d": 141.64526041666977,
      "v": 88
    },
    {
      "midi": 58,
      "hit": false,
      "t": 83830.63000000022,
      "d": 151.8670833333308,
      "v": 88
    },
    {
      "midi": 46,
      "hit": false,
      "t": 83830.63000000022,
      "d": 728.6699479166709,
      "v": 70
    },
    {
      "midi": 55,
      "hit": false,
      "t": 84111.00000000022,
      "d": 94.91692708333721,
      "v": 88
    },
    {
      "midi": 60,
      "hit": false,
      "t": 84111.00000000022,
      "d": 106.59901041667035,
      "v": 88
    },
    {
      "midi": 58,
      "hit": false,
      "t": 84111.00000000022,
      "d": 122.66187500000524,
      "v": 88
    },
    {
      "midi": 63,
      "hit": false,
      "t": 84111.00000000022,
      "d": 129.96317708333663,
      "v": 88
    },
    {
      "midi": 55,
      "hit": false,
      "t": 84391.37000000023,
      "d": 86.15536458333372,
      "v": 88
    },
    {
      "midi": 60,
      "hit": false,
      "t": 84391.37000000023,
      "d": 113.90031250000175,
      "v": 88
    },
    {
      "midi": 63,
      "hit": false,
      "t": 84391.37000000023,
      "d": 121.20161458333314,
      "v": 88
    },
    {
      "midi": 58,
      "hit": false,
      "t": 84391.37000000023,
      "d": 141.64526041666977,
      "v": 88
    },
    {
      "midi": 55,
      "hit": false,
      "t": 84671.74000000022,
      "d": 99.29770833333896,
      "v": 88
    },
    {
      "midi": 60,
      "hit": false,
      "t": 84671.74000000022,
      "d": 109.51953125,
      "v": 88
    },
    {
      "midi": 58,
      "hit": false,
      "t": 84671.74000000022,
      "d": 144.56578124999942,
      "v": 88
    },
    {
      "midi": 63,
      "hit": false,
      "t": 84671.74000000022,
      "d": 144.56578124999942,
      "v": 88
    },
    {
      "midi": 46,
      "hit": false,
      "t": 84671.74000000022,
      "d": 537.3758333333244,
      "v": 77
    },
    {
      "midi": 58,
      "hit": false,
      "t": 84952.11000000022,
      "d": 87.61562500000582,
      "v": 88
    },
    {
      "midi": 55,
      "hit": false,
      "t": 84952.11000000022,
      "d": 97.83744791666686,
      "v": 88
    },
    {
      "midi": 60,
      "hit": false,
      "t": 84952.11000000022,
      "d": 109.51953125,
      "v": 88
    },
    {
      "midi": 63,
      "hit": false,
      "t": 84952.11000000022,
      "d": 137.26447916666802,
      "v": 88
    },
    {
      "midi": 53,
      "hit": false,
      "t": 85232.48000000021,
      "d": 118.28109375000349,
      "v": 88
    },
    {
      "midi": 60,
      "hit": false,
      "t": 85232.48000000021,
      "d": 125.58239583333489,
      "v": 88
    },
    {
      "midi": 56,
      "hit": false,
      "t": 85232.48000000021,
      "d": 129.96317708333663,
      "v": 88
    },
    {
      "midi": 63,
      "hit": false,
      "t": 85232.48000000021,
      "d": 167.9299479166657,
      "v": 88
    },
    {
      "midi": 41,
      "hit": false,
      "t": 85232.48000000021,
      "d": 714.0673437499936,
      "v": 60
    },
    {
      "midi": 56,
      "hit": false,
      "t": 85512.85000000021,
      "d": 105.13874999999825,
      "v": 88
    },
    {
      "midi": 53,
      "hit": false,
      "t": 85512.85000000021,
      "d": 109.51953125,
      "v": 88
    },
    {
      "midi": 60,
      "hit": false,
      "t": 85512.85000000021,
      "d": 118.28109375000349,
      "v": 88
    },
    {
      "midi": 63,
      "hit": false,
      "t": 85512.85000000021,
      "d": 140.18499999999767,
      "v": 88
    },
    {
      "midi": 56,
      "hit": false,
      "t": 85793.2200000002,
      "d": 87.61562500000582,
      "v": 88
    },
    {
      "midi": 60,
      "hit": false,
      "t": 85793.2200000002,
      "d": 102.2182291666686,
      "v": 88
    },
    {
      "midi": 53,
      "hit": false,
      "t": 85793.2200000002,
      "d": 110.9797916666721,
      "v": 88
    },
    {
      "midi": 63,
      "hit": false,
      "t": 85793.2200000002,
      "d": 153.3273437500029,
      "v": 88
    },
    {
      "midi": 53,
      "hit": false,
      "t": 86073.59000000021,
      "d": 110.9797916666721,
      "v": 88
    },
    {
      "midi": 56,
      "hit": false,
      "t": 86073.59000000021,
      "d": 110.9797916666721,
      "v": 88
    },
    {
      "midi": 60,
      "hit": false,
      "t": 86073.59000000021,
      "d": 125.58239583333489,
      "v": 88
    },
    {
      "midi": 63,
      "hit": false,
      "t": 86073.59000000021,
      "d": 156.24786458333256,
      "v": 88
    },
    {
      "midi": 46,
      "hit": false,
      "t": 86073.59000000021,
      "d": 838.1894791666855,
      "v": 86
    },
    {
      "midi": 60,
      "hit": false,
      "t": 86353.96000000021,
      "d": 102.2182291666686,
      "v": 88
    },
    {
      "midi": 53,
      "hit": false,
      "t": 86353.96000000021,
      "d": 106.59901041667035,
      "v": 88
    },
    {
      "midi": 56,
      "hit": false,
      "t": 86353.96000000021,
      "d": 106.59901041667035,
      "v": 88
    },
    {
      "midi": 63,
      "hit": false,
      "t": 86353.96000000021,
      "d": 141.64526041666977,
      "v": 88
    },
    {
      "midi": 53,
      "hit": false,
      "t": 86634.33000000022,
      "d": 99.29770833333896,
      "v": 88
    },
    {
      "midi": 56,
      "hit": false,
      "t": 86634.33000000022,
      "d": 105.1387500000128,
      "v": 88
    },
    {
      "midi": 60,
      "hit": false,
      "t": 86634.33000000022,
      "d": 116.82083333334594,
      "v": 88
    },
    {
      "midi": 63,
      "hit": false,
      "t": 86634.33000000022,
      "d": 151.86708333334536,
      "v": 88
    },
    {
      "midi": 53,
      "hit": false,
      "t": 86914.70000000023,
      "d": 99.29770833333896,
      "v": 88
    },
    {
      "midi": 60,
      "hit": false,
      "t": 86914.70000000023,
      "d": 113.90031250000175,
      "v": 88
    },
    {
      "midi": 56,
      "hit": false,
      "t": 86914.70000000023,
      "d": 128.50291666666453,
      "v": 88
    },
    {
      "midi": 63,
      "hit": false,
      "t": 86914.70000000023,
      "d": 163.54916666666395,
      "v": 88
    },
    {
      "midi": 34,
      "hit": false,
      "t": 86914.70000000023,
      "d": 420.554999999993,
      "v": 70
    },
    {
      "midi": 56,
      "hit": false,
      "t": 87195.07000000023,
      "d": 86.15536458333372,
      "v": 88
    },
    {
      "midi": 53,
      "hit": false,
      "t": 87195.07000000023,
      "d": 97.83744791666686,
      "v": 88
    },
    {
      "midi": 60,
      "hit": false,
      "t": 87195.07000000023,
      "d": 97.83744791666686,
      "v": 88
    },
    {
      "midi": 63,
      "hit": false,
      "t": 87195.07000000023,
      "d": 169.3902083333378,
      "v": 88
    },
    {
      "midi": 60,
      "hit": false,
      "t": 87475.44000000024,
      "d": 99.29770833333896,
      "v": 88
    },
    {
      "midi": 58,
      "hit": false,
      "t": 87475.44000000024,
      "d": 118.28109375000349,
      "v": 88
    },
    {
      "midi": 55,
      "hit": false,
      "t": 87475.44000000024,
      "d": 128.50291666666453,
      "v": 88
    },
    {
      "midi": 63,
      "hit": false,
      "t": 87475.44000000024,
      "d": 157.70812500000466,
      "v": 88
    },
    {
      "midi": 39,
      "hit": false,
      "t": 87475.44000000024,
      "d": 810.4445312500029,
      "v": 99
    },
    {
      "midi": 60,
      "hit": false,
      "t": 87755.81000000025,
      "d": 102.2182291666686,
      "v": 88
    },
    {
      "midi": 55,
      "hit": false,
      "t": 87755.81000000025,
      "d": 128.50291666666453,
      "v": 88
    },
    {
      "midi": 58,
      "hit": false,
      "t": 87755.81000000025,
      "d": 128.50291666666453,
      "v": 88
    },
    {
      "midi": 63,
      "hit": false,
      "t": 87755.81000000025,
      "d": 144.56578124999942,
      "v": 88
    },
    {
      "midi": 55,
      "hit": false,
      "t": 88036.18000000024,
      "d": 106.59901041667035,
      "v": 88
    },
    {
      "midi": 60,
      "hit": false,
      "t": 88036.18000000024,
      "d": 106.59901041667035,
      "v": 88
    },
    {
      "midi": 58,
      "hit": false,
      "t": 88036.18000000024,
      "d": 125.58239583333489,
      "v": 88
    },
    {
      "midi": 63,
      "hit": false,
      "t": 88036.18000000024,
      "d": 125.58239583333489,
      "v": 88
    },
    {
      "midi": 55,
      "hit": false,
      "t": 88316.55000000024,
      "d": 99.29770833333896,
      "v": 88
    },
    {
      "midi": 60,
      "hit": false,
      "t": 88316.55000000024,
      "d": 109.51953125,
      "v": 88
    },
    {
      "midi": 58,
      "hit": false,
      "t": 88316.55000000024,
      "d": 129.96317708333663,
      "v": 88
    },
    {
      "midi": 63,
      "hit": false,
      "t": 88316.55000000024,
      "d": 129.96317708333663,
      "v": 88
    },
    {
      "midi": 46,
      "hit": false,
      "t": 88316.55000000024,
      "d": 728.6699479166709,
      "v": 70
    },
    {
      "midi": 55,
      "hit": false,
      "t": 88596.92000000025,
      "d": 109.51953125,
      "v": 88
    },
    {
      "midi": 58,
      "hit": false,
      "t": 88596.92000000025,
      "d": 116.8208333333314,
      "v": 88
    },
    {
      "midi": 60,
      "hit": false,
      "t": 88596.92000000025,
      "d": 116.8208333333314,
      "v": 88
    },
    {
      "midi": 63,
      "hit": false,
      "t": 88596.92000000025,
      "d": 140.18499999999767,
      "v": 88
    },
    {
      "midi": 55,
      "hit": false,
      "t": 88877.29000000024,
      "d": 105.13874999999825,
      "v": 88
    },
    {
      "midi": 60,
      "hit": false,
      "t": 88877.29000000024,
      "d": 113.90031250000175,
      "v": 88
    },
    {
      "midi": 63,
      "hit": false,
      "t": 88877.29000000024,
      "d": 118.28109375000349,
      "v": 88
    },
    {
      "midi": 58,
      "hit": false,
      "t": 88877.29000000024,
      "d": 132.88369791666628,
      "v": 88
    },
    {
      "midi": 55,
      "hit": false,
      "t": 89157.66000000024,
      "d": 106.59901041667035,
      "v": 88
    },
    {
      "midi": 63,
      "hit": false,
      "t": 89157.66000000024,
      "d": 118.28109375000349,
      "v": 88
    },
    {
      "midi": 60,
      "hit": false,
      "t": 89157.66000000024,
      "d": 122.66187500000524,
      "v": 88
    },
    {
      "midi": 58,
      "hit": false,
      "t": 89157.66000000024,
      "d": 128.50291666667908,
      "v": 88
    },
    {
      "midi": 46,
      "hit": false,
      "t": 89157.66000000024,
      "d": 537.375833333339,
      "v": 77
    },
    {
      "midi": 55,
      "hit": false,
      "t": 89438.03000000025,
      "d": 81.77458333333198,
      "v": 88
    },
    {
      "midi": 60,
      "hit": false,
      "t": 89438.03000000025,
      "d": 106.59901041667035,
      "v": 88
    },
    {
      "midi": 58,
      "hit": false,
      "t": 89438.03000000025,
      "d": 122.66187500000524,
      "v": 88
    },
    {
      "midi": 63,
      "hit": false,
      "t": 89438.03000000025,
      "d": 144.56578124999942,
      "v": 88
    },
    {
      "midi": 53,
      "hit": false,
      "t": 89718.40000000024,
      "d": 113.90031250000175,
      "v": 88
    },
    {
      "midi": 60,
      "hit": false,
      "t": 89718.40000000024,
      "d": 129.96317708333663,
      "v": 88
    },
    {
      "midi": 56,
      "hit": false,
      "t": 89718.40000000024,
      "d": 144.56578124999942,
      "v": 88
    },
    {
      "midi": 63,
      "hit": false,
      "t": 89718.40000000024,
      "d": 172.31072916666744,
      "v": 88
    },
    {
      "midi": 41,
      "hit": false,
      "t": 89718.40000000024,
      "d": 714.0673437500081,
      "v": 60
    },
    {
      "midi": 60,
      "hit": false,
      "t": 89998.77000000024,
      "d": 99.29770833333896,
      "v": 88
    },
    {
      "midi": 56,
      "hit": false,
      "t": 89998.77000000024,
      "d": 106.59901041667035,
      "v": 88
    },
    {
      "midi": 53,
      "hit": false,
      "t": 89998.77000000024,
      "d": 116.8208333333314,
      "v": 88
    },
    {
      "midi": 63,
      "hit": false,
      "t": 89998.77000000024,
      "d": 141.64526041666977,
      "v": 88
    },
    {
      "midi": 60,
      "hit": false,
      "t": 90279.14000000025,
      "d": 93.45666666666511,
      "v": 88
    },
    {
      "midi": 53,
      "hit": false,
      "t": 90279.14000000025,
      "d": 106.59901041667035,
      "v": 88
    },
    {
      "midi": 56,
      "hit": false,
      "t": 90279.14000000025,
      "d": 110.9797916666721,
      "v": 88
    },
    {
      "midi": 63,
      "hit": false,
      "t": 90279.14000000025,
      "d": 148.94656250000116,
      "v": 88
    },
    {
      "midi": 53,
      "hit": false,
      "t": 90559.51000000026,
      "d": 109.51953125,
      "v": 88
    },
    {
      "midi": 56,
      "hit": false,
      "t": 90559.51000000026,
      "d": 116.8208333333314,
      "v": 88
    },
    {
      "midi": 60,
      "hit": false,
      "t": 90559.51000000026,
      "d": 125.58239583333489,
      "v": 88
    },
    {
      "midi": 63,
      "hit": false,
      "t": 90559.51000000026,
      "d": 141.64526041666977,
      "v": 88
    },
    {
      "midi": 46,
      "hit": false,
      "t": 90559.51000000026,
      "d": 838.1894791666709,
      "v": 86
    },
    {
      "midi": 56,
      "hit": false,
      "t": 90839.88000000027,
      "d": 90.53614583333547,
      "v": 110
    },
    {
      "midi": 53,
      "hit": false,
      "t": 90839.88000000027,
      "d": 106.59901041667035,
      "v": 110
    },
    {
      "midi": 60,
      "hit": false,
      "t": 90839.88000000027,
      "d": 122.66187500000524,
      "v": 110
    },
    {
      "midi": 63,
      "hit": false,
      "t": 90839.88000000027,
      "d": 129.96317708333663,
      "v": 110
    },
    {
      "midi": 65,
      "hit": false,
      "t": 90839.88000000027,
      "d": 195.67489583333372,
      "v": 110
    },
    {
      "midi": 67,
      "hit": false,
      "t": 90980.06500000026,
      "d": 165.00942708333605,
      "v": 110
    },
    {
      "midi": 53,
      "hit": false,
      "t": 91120.25000000026,
      "d": 109.51953125,
      "v": 110
    },
    {
      "midi": 56,
      "hit": false,
      "t": 91120.25000000026,
      "d": 109.51953125,
      "v": 110
    },
    {
      "midi": 60,
      "hit": false,
      "t": 91120.25000000026,
      "d": 116.8208333333314,
      "v": 110
    },
    {
      "midi": 63,
      "hit": false,
      "t": 91120.25000000026,
      "d": 146.02604166667152,
      "v": 110
    },
    {
      "midi": 70,
      "hit": false,
      "t": 91120.25000000026,
      "d": 214.65828124999825,
      "v": 110
    },
    {
      "midi": 56,
      "hit": false,
      "t": 91400.62000000026,
      "d": 94.91692708333721,
      "v": 110
    },
    {
      "midi": 53,
      "hit": false,
      "t": 91400.62000000026,
      "d": 102.2182291666686,
      "v": 110
    },
    {
      "midi": 60,
      "hit": false,
      "t": 91400.62000000026,
      "d": 102.2182291666686,
      "v": 110
    },
    {
      "midi": 63,
      "hit": false,
      "t": 91400.62000000026,
      "d": 129.96317708333663,
      "v": 110
    },
    {
      "midi": 75,
      "hit": false,
      "t": 91400.62000000026,
      "d": 146.02604166667152,
      "v": 110
    },
    {
      "midi": 34,
      "hit": false,
      "t": 91400.62000000026,
      "d": 420.5550000000221,
      "v": 70
    },
    {
      "midi": 60,
      "hit": false,
      "t": 91680.99000000027,
      "d": 78.85406250000233,
      "v": 110
    },
    {
      "midi": 56,
      "hit": false,
      "t": 91680.99000000027,
      "d": 83.23484375000407,
      "v": 110
    },
    {
      "midi": 53,
      "hit": false,
      "t": 91680.99000000027,
      "d": 97.83744791666686,
      "v": 110
    },
    {
      "midi": 75,
      "hit": false,
      "t": 91680.99000000027,
      "d": 110.9797916666721,
      "v": 110
    },
    {
      "midi": 63,
      "hit": false,
      "t": 91680.99000000027,
      "d": 122.66187500000524,
      "v": 110
    },
    {
      "midi": 77,
      "hit": false,
      "t": 91821.17500000028,
      "d": 140.18499999999767,
      "v": 110
    },
    {
      "midi": 39,
      "hit": false,
      "t": 91961.36000000028,
      "d": 810.4445312500029,
      "v": 99
    },
    {
      "midi": 75,
      "hit": false,
      "t": 91961.36000000028,
      "d": 1333.2177604166645,
      "v": 110
    },
    {
      "midi": 46,
      "hit": false,
      "t": 92802.47000000028,
      "d": 728.6699479166709,
      "v": 70
    },
    {
      "midi": 46,
      "hit": false,
      "t": 93643.58000000028,
      "d": 537.375833333339,
      "v": 77
    },
    {
      "midi": 41,
      "hit": false,
      "t": 94204.32000000028,
      "d": 714.0673437500081,
      "v": 60
    },
    {
      "midi": 70,
      "hit": false,
      "t": 94624.87500000028,
      "d": 52.5693750000064,
      "v": 110
    },
    {
      "midi": 75,
      "hit": false,
      "t": 94624.87500000028,
      "d": 52.5693750000064,
      "v": 110
    },
    {
      "midi": 58,
      "hit": false,
      "t": 94624.87500000028,
      "d": 58.41041666668025,
      "v": 110
    },
    {
      "midi": 79,
      "hit": false,
      "t": 94624.87500000028,
      "d": 58.41041666668025,
      "v": 110
    },
    {
      "midi": 63,
      "hit": false,
      "t": 94624.87500000028,
      "d": 62.791197916681995,
      "v": 110
    },
    {
      "midi": 67,
      "hit": false,
      "t": 94624.87500000028,
      "d": 62.791197916681995,
      "v": 110
    },
    {
      "midi": 63,
      "hit": false,
      "t": 94765.06000000029,
      "d": 270.1481770833343,
      "v": 110
    },
    {
      "midi": 58,
      "hit": false,
      "t": 94765.06000000029,
      "d": 293.5123437500006,
      "v": 110
    },
    {
      "midi": 70,
      "hit": false,
      "t": 94765.06000000029,
      "d": 293.5123437500006,
      "v": 110
    },
    {
      "midi": 67,
      "hit": false,
      "t": 94765.06000000029,
      "d": 308.11494791666337,
      "v": 110
    },
    {
      "midi": 75,
      "hit": false,
      "t": 94765.06000000029,
      "d": 308.11494791666337,
      "v": 110
    },
    {
      "midi": 79,
      "hit": false,
      "t": 94765.06000000029,
      "d": 332.93937500000175,
      "v": 110
    },
    {
      "midi": 46,
      "hit": false,
      "t": 95045.43000000028,
      "d": 838.1894791666709,
      "v": 86
    },
    {
      "midi": 63,
      "hit": false,
      "t": 95185.6150000003,
      "d": 59.870677083337796,
      "v": 110
    },
    {
      "midi": 68,
      "hit": false,
      "t": 95185.6150000003,
      "d": 59.870677083337796,
      "v": 110
    },
    {
      "midi": 80,
      "hit": false,
      "t": 95185.6150000003,
      "d": 59.870677083337796,
      "v": 110
    },
    {
      "midi": 72,
      "hit": false,
      "t": 95185.6150000003,
      "d": 67.17197916666919,
      "v": 110
    },
    {
      "midi": 60,
      "hit": false,
      "t": 95185.6150000003,
      "d": 78.85406250000233,
      "v": 110
    },
    {
      "midi": 75,
      "hit": false,
      "t": 95185.6150000003,
      "d": 78.85406250000233,
      "v": 110
    },
    {
      "midi": 63,
      "hit": false,
      "t": 95325.8000000003,
      "d": 297.8931250000023,
      "v": 110
    },
    {
      "midi": 60,
      "hit": false,
      "t": 95325.8000000003,
      "d": 312.4957291666651,
      "v": 110
    },
    {
      "midi": 72,
      "hit": false,
      "t": 95325.8000000003,
      "d": 312.4957291666651,
      "v": 110
    },
    {
      "midi": 68,
      "hit": false,
      "t": 95325.8000000003,
      "d": 327.0983333333279,
      "v": 110
    },
    {
      "midi": 75,
      "hit": false,
      "t": 95325.8000000003,
      "d": 327.0983333333279,
      "v": 110
    },
    {
      "midi": 80,
      "hit": false,
      "t": 95325.8000000003,
      "d": 327.0983333333279,
      "v": 110
    },
    {
      "midi": 68,
      "hit": false,
      "t": 95746.35500000029,
      "d": 55.48989583333605,
      "v": 110
    },
    {
      "midi": 72,
      "hit": false,
      "t": 95746.35500000029,
      "d": 55.48989583333605,
      "v": 110
    },
    {
      "midi": 75,
      "hit": false,
      "t": 95746.35500000029,
      "d": 55.48989583333605,
      "v": 110
    },
    {
      "midi": 60,
      "hit": false,
      "t": 95746.35500000029,
      "d": 59.870677083337796,
      "v": 110
    },
    {
      "midi": 80,
      "hit": false,
      "t": 95746.35500000029,
      "d": 59.870677083337796,
      "v": 110
    },
    {
      "midi": 63,
      "hit": false,
      "t": 95746.35500000029,
      "d": 70.09249999999884,
      "v": 110
    },
    {
      "midi": 34,
      "hit": false,
      "t": 95886.54000000028,
      "d": 420.554999999993,
      "v": 70
    },
    {
      "midi": 80,
      "hit": false,
      "t": 95886.54000000028,
      "d": 601.627291666664,
      "v": 110
    },
    {
      "midi": 72,
      "hit": false,
      "t": 95886.54000000028,
      "d": 620.6106770833285,
      "v": 110
    },
    {
      "midi": 75,
      "hit": false,
      "t": 95886.54000000028,
      "d": 630.8324999999895,
      "v": 110
    },
    {
      "midi": 60,
      "hit": false,
      "t": 95886.54000000028,
      "d": 747.6533333333209,
      "v": 110
    },
    {
      "midi": 63,
      "hit": false,
      "t": 95886.54000000028,
      "d": 747.6533333333209,
      "v": 110
    },
    {
      "midi": 68,
      "hit": false,
      "t": 95886.54000000028,
      "d": 747.6533333333209,
      "v": 110
    },
    {
      "midi": 39,
      "hit": false,
      "t": 96447.28000000028,
      "d": 810.4445312500029,
      "v": 99
    },
    {
      "midi": 46,
      "hit": false,
      "t": 97288.39000000028,
      "d": 728.6699479166709,
      "v": 70
    },
    {
      "midi": 46,
      "hit": false,
      "t": 98129.50000000028,
      "d": 537.375833333339,
      "v": 77
    },
    {
      "midi": 41,
      "hit": false,
      "t": 98690.24000000028,
      "d": 714.0673437500081,
      "v": 60
    },
    {
      "midi": 58,
      "hit": false,
      "t": 99110.79500000027,
      "d": 48.18859375000466,
      "v": 110
    },
    {
      "midi": 70,
      "hit": false,
      "t": 99110.79500000027,
      "d": 48.18859375000466,
      "v": 110
    },
    {
      "midi": 75,
      "hit": false,
      "t": 99110.79500000027,
      "d": 52.5693750000064,
      "v": 110
    },
    {
      "midi": 79,
      "hit": false,
      "t": 99110.79500000027,
      "d": 52.5693750000064,
      "v": 110
    },
    {
      "midi": 67,
      "hit": false,
      "t": 99110.79500000027,
      "d": 64.25145833333954,
      "v": 110
    },
    {
      "midi": 63,
      "hit": false,
      "t": 99110.79500000027,
      "d": 70.09250000001339,
      "v": 110
    },
    {
      "midi": 63,
      "hit": false,
      "t": 99250.98000000029,
      "d": 273.06869791666395,
      "v": 110
    },
    {
      "midi": 70,
      "hit": false,
      "t": 99250.98000000029,
      "d": 281.83026041666744,
      "v": 110
    },
    {
      "midi": 67,
      "hit": false,
      "t": 99250.98000000029,
      "d": 289.13156249999884,
      "v": 110
    },
    {
      "midi": 75,
      "hit": false,
      "t": 99250.98000000029,
      "d": 293.5123437500006,
      "v": 110
    },
    {
      "midi": 58,
      "hit": false,
      "t": 99250.98000000029,
      "d": 305.1944270833337,
      "v": 110
    },
    {
      "midi": 79,
      "hit": false,
      "t": 99250.98000000029,
      "d": 309.57520833333547,
      "v": 110
    },
    {
      "midi": 46,
      "hit": false,
      "t": 99531.35000000028,
      "d": 838.1894791666855,
      "v": 86
    },
    {
      "midi": 72,
      "hit": false,
      "t": 99671.5350000003,
      "d": 64.25145833333954,
      "v": 110
    },
    {
      "midi": 60,
      "hit": false,
      "t": 99671.5350000003,
      "d": 71.55276041667094,
      "v": 110
    },
    {
      "midi": 63,
      "hit": false,
      "t": 99671.5350000003,
      "d": 71.55276041667094,
      "v": 110
    },
    {
      "midi": 68,
      "hit": false,
      "t": 99671.5350000003,
      "d": 71.55276041667094,
      "v": 110
    },
    {
      "midi": 75,
      "hit": false,
      "t": 99671.5350000003,
      "d": 71.55276041667094,
      "v": 110
    },
    {
      "midi": 80,
      "hit": false,
      "t": 99671.5350000003,
      "d": 75.93354166667268,
      "v": 110
    },
    {
      "midi": 63,
      "hit": false,
      "t": 99811.7200000003,
      "d": 296.43286458333023,
      "v": 110
    },
    {
      "midi": 72,
      "hit": false,
      "t": 99811.7200000003,
      "d": 303.7341666666616,
      "v": 110
    },
    {
      "midi": 60,
      "hit": false,
      "t": 99811.7200000003,
      "d": 324.17781249999825,
      "v": 110
    },
    {
      "midi": 75,
      "hit": false,
      "t": 99811.7200000003,
      "d": 324.17781249999825,
      "v": 110
    },
    {
      "midi": 68,
      "hit": false,
      "t": 99811.7200000003,
      "d": 331.47911458332965,
      "v": 110
    },
    {
      "midi": 80,
      "hit": false,
      "t": 99811.7200000003,
      "d": 335.8598958333314,
      "v": 110
    },
    {
      "midi": 63,
      "hit": false,
      "t": 100232.2750000003,
      "d": 48.18859375000466,
      "v": 110
    },
    {
      "midi": 68,
      "hit": false,
      "t": 100232.2750000003,
      "d": 48.18859375000466,
      "v": 110
    },
    {
      "midi": 75,
      "hit": false,
      "t": 100232.2750000003,
      "d": 62.79119791666744,
      "v": 110
    },
    {
      "midi": 72,
      "hit": false,
      "t": 100232.2750000003,
      "d": 67.17197916666919,
      "v": 110
    },
    {
      "midi": 80,
      "hit": false,
      "t": 100232.2750000003,
      "d": 67.17197916666919,
      "v": 110
    },
    {
      "midi": 60,
      "hit": false,
      "t": 100232.2750000003,
      "d": 75.93354166667268,
      "v": 110
    },
    {
      "midi": 34,
      "hit": false,
      "t": 100372.4600000003,
      "d": 420.554999999993,
      "v": 70
    },
    {
      "midi": 63,
      "hit": false,
      "t": 100372.4600000003,
      "d": 449.76020833333314,
      "v": 110
    },
    {
      "midi": 60,
      "hit": false,
      "t": 100372.4600000003,
      "d": 490.6475000000064,
      "v": 110
    },
    {
      "midi": 72,
      "hit": false,
      "t": 100372.4600000003,
      "d": 490.6475000000064,
      "v": 110
    },
    {
      "midi": 80,
      "hit": false,
      "t": 100372.4600000003,
      "d": 490.6475000000064,
      "v": 110
    },
    {
      "midi": 75,
      "hit": false,
      "t": 100372.4600000003,
      "d": 495.02828125000815,
      "v": 110
    },
    {
      "midi": 68,
      "hit": false,
      "t": 100372.4600000003,
      "d": 531.5347916666797,
      "v": 110
    },
    {
      "midi": 39,
      "hit": false,
      "t": 100933.20000000032,
      "d": 810.4445312500029,
      "v": 99
    },
    {
      "midi": 46,
      "hit": false,
      "t": 101774.31000000032,
      "d": 728.6699479166709,
      "v": 70
    },
    {
      "midi": 46,
      "hit": false,
      "t": 102615.42000000032,
      "d": 537.375833333339,
      "v": 77
    },
    {
      "midi": 41,
      "hit": false,
      "t": 103176.16000000032,
      "d": 714.0673437500081,
      "v": 60
    },
    {
      "midi": 63,
      "hit": false,
      "t": 103596.71500000032,
      "d": 52.5693750000064,
      "v": 110
    },
    {
      "midi": 70,
      "hit": false,
      "t": 103596.71500000032,
      "d": 52.5693750000064,
      "v": 110
    },
    {
      "midi": 75,
      "hit": false,
      "t": 103596.71500000032,
      "d": 52.5693750000064,
      "v": 110
    },
    {
      "midi": 58,
      "hit": false,
      "t": 103596.71500000032,
      "d": 58.41041666668025,
      "v": 110
    },
    {
      "midi": 67,
      "hit": false,
      "t": 103596.71500000032,
      "d": 58.41041666668025,
      "v": 110
    },
    {
      "midi": 79,
      "hit": false,
      "t": 103596.71500000032,
      "d": 58.41041666668025,
      "v": 110
    },
    {
      "midi": 63,
      "hit": false,
      "t": 103736.90000000033,
      "d": 265.76739583333256,
      "v": 110
    },
    {
      "midi": 70,
      "hit": false,
      "t": 103736.90000000033,
      "d": 296.43286458333023,
      "v": 110
    },
    {
      "midi": 67,
      "hit": false,
      "t": 103736.90000000033,
      "d": 309.57520833333547,
      "v": 110
    },
    {
      "midi": 75,
      "hit": false,
      "t": 103736.90000000033,
      "d": 309.57520833333547,
      "v": 110
    },
    {
      "midi": 58,
      "hit": false,
      "t": 103736.90000000033,
      "d": 316.87651041666686,
      "v": 110
    },
    {
      "midi": 79,
      "hit": false,
      "t": 103736.90000000033,
      "d": 332.93937500000175,
      "v": 110
    },
    {
      "midi": 46,
      "hit": false,
      "t": 104017.27000000032,
      "d": 838.1894791666709,
      "v": 86
    },
    {
      "midi": 63,
      "hit": false,
      "t": 104157.45500000034,
      "d": 52.5693750000064,
      "v": 110
    },
    {
      "midi": 80,
      "hit": false,
      "t": 104157.45500000034,
      "d": 62.79119791666744,
      "v": 110
    },
    {
      "midi": 68,
      "hit": false,
      "t": 104157.45500000034,
      "d": 67.17197916666919,
      "v": 110
    },
    {
      "midi": 72,
      "hit": false,
      "t": 104157.45500000034,
      "d": 67.17197916666919,
      "v": 110
    },
    {
      "midi": 60,
      "hit": false,
      "t": 104157.45500000034,
      "d": 71.55276041667094,
      "v": 110
    },
    {
      "midi": 75,
      "hit": false,
      "t": 104157.45500000034,
      "d": 78.85406250000233,
      "v": 110
    },
    {
      "midi": 63,
      "hit": false,
      "t": 104297.64000000033,
      "d": 296.43286458333023,
      "v": 110
    },
    {
      "midi": 72,
      "hit": false,
      "t": 104297.64000000033,
      "d": 312.4957291666651,
      "v": 110
    },
    {
      "midi": 68,
      "hit": false,
      "t": 104297.64000000033,
      "d": 327.0983333333279,
      "v": 110
    },
    {
      "midi": 75,
      "hit": false,
      "t": 104297.64000000033,
      "d": 327.0983333333279,
      "v": 110
    },
    {
      "midi": 80,
      "hit": false,
      "t": 104297.64000000033,
      "d": 327.0983333333279,
      "v": 110
    },
    {
      "midi": 60,
      "hit": false,
      "t": 104297.64000000033,
      "d": 331.47911458332965,
      "v": 110
    },
    {
      "midi": 68,
      "hit": false,
      "t": 104718.19500000033,
      "d": 55.48989583333605,
      "v": 110
    },
    {
      "midi": 72,
      "hit": false,
      "t": 104718.19500000033,
      "d": 55.48989583333605,
      "v": 110
    },
    {
      "midi": 75,
      "hit": false,
      "t": 104718.19500000033,
      "d": 55.48989583333605,
      "v": 110
    },
    {
      "midi": 63,
      "hit": false,
      "t": 104718.19500000033,
      "d": 59.870677083337796,
      "v": 110
    },
    {
      "midi": 80,
      "hit": false,
      "t": 104718.19500000033,
      "d": 59.870677083337796,
      "v": 110
    },
    {
      "midi": 60,
      "hit": false,
      "t": 104718.19500000033,
      "d": 67.17197916666919,
      "v": 110
    },
    {
      "midi": 60,
      "hit": false,
      "t": 104858.38000000032,
      "d": 309.57520833333547,
      "v": 110
    },
    {
      "midi": 63,
      "hit": false,
      "t": 104858.38000000032,
      "d": 309.57520833333547,
      "v": 110
    },
    {
      "midi": 68,
      "hit": false,
      "t": 104858.38000000032,
      "d": 321.2572916666686,
      "v": 110
    },
    {
      "midi": 80,
      "hit": false,
      "t": 104858.38000000032,
      "d": 386.9690104166657,
      "v": 110
    },
    {
      "midi": 72,
      "hit": false,
      "t": 104858.38000000032,
      "d": 398.65109374999884,
      "v": 110
    },
    {
      "midi": 75,
      "hit": false,
      "t": 104858.38000000032,
      "d": 403.0318750000006,
      "v": 110
    },
    {
      "midi": 34,
      "hit": false,
      "t": 104858.38000000032,
      "d": 420.55500000000757,
      "v": 70
    },
    {
      "midi": 74,
      "hit": false,
      "t": 105419.12000000014,
      "d": 316.87651041666686,
      "v": 71
    },
    {
      "midi": 86,
      "hit": false,
      "t": 105419.12000000014,
      "d": 316.87651041666686,
      "v": 71
    },
    {
      "midi": 31,
      "hit": false,
      "t": 105419.12000000033,
      "d": 733.0507291666727,
      "v": 70
    },
    {
      "midi": 62,
      "hit": false,
      "t": 105419.12000000033,
      "d": 1826.7857812500006,
      "v": 88
    },
    {
      "midi": 65,
      "hit": false,
      "t": 105419.12000000033,
      "d": 1838.4678645833337,
      "v": 88
    },
    {
      "midi": 55,
      "hit": false,
      "t": 105419.12000000033,
      "d": 1858.9115104166704,
      "v": 88
    },
    {
      "midi": 58,
      "hit": false,
      "t": 105419.12000000033,
      "d": 1904.1795833333308,
      "v": 88
    },
    {
      "midi": 77,
      "hit": false,
      "t": 105699.49000000014,
      "d": 289.1315625000134,
      "v": 56
    },
    {
      "midi": 89,
      "hit": false,
      "t": 105699.49000000014,
      "d": 289.1315625000134,
      "v": 56
    },
    {
      "midi": 79,
      "hit": false,
      "t": 105979.86000000015,
      "d": 340.2406770833477,
      "v": 64
    },
    {
      "midi": 91,
      "hit": false,
      "t": 105979.86000000015,
      "d": 340.2406770833477,
      "v": 64
    },
    {
      "midi": 77,
      "hit": false,
      "t": 106260.23000000016,
      "d": 309.57520833335,
      "v": 71
    },
    {
      "midi": 89,
      "hit": false,
      "t": 106260.23000000016,
      "d": 309.57520833335,
      "v": 71
    },
    {
      "midi": 31,
      "hit": false,
      "t": 106260.23000000033,
      "d": 971.0731770833372,
      "v": 60
    },
    {
      "midi": 74,
      "hit": false,
      "t": 106540.60000000017,
      "d": 280.3700000000099,
      "v": 69
    },
    {
      "midi": 86,
      "hit": false,
      "t": 106540.60000000017,
      "d": 280.3700000000099,
      "v": 69
    },
    {
      "midi": 77,
      "hit": false,
      "t": 106820.97000000018,
      "d": 274.52895833333605,
      "v": 64
    },
    {
      "midi": 89,
      "hit": false,
      "t": 106820.97000000018,
      "d": 274.52895833333605,
      "v": 64
    },
    {
      "midi": 79,
      "hit": false,
      "t": 107101.34000000019,
      "d": 347.54197916666453,
      "v": 56
    },
    {
      "midi": 91,
      "hit": false,
      "t": 107101.34000000019,
      "d": 347.54197916666453,
      "v": 56
    },
    {
      "midi": 77,
      "hit": false,
      "t": 107381.71000000018,
      "d": 321.2572916666686,
      "v": 52
    },
    {
      "midi": 89,
      "hit": false,
      "t": 107381.71000000018,
      "d": 321.2572916666686,
      "v": 52
    },
    {
      "midi": 31,
      "hit": false,
      "t": 107381.71000000033,
      "d": 227.8006250000035,
      "v": 70
    },
    {
      "midi": 72,
      "hit": false,
      "t": 107662.08000000018,
      "d": 305.1944270833483,
      "v": 56
    },
    {
      "midi": 84,
      "hit": false,
      "t": 107662.08000000018,
      "d": 305.1944270833483,
      "v": 56
    },
    {
      "midi": 29,
      "hit": false,
      "t": 107662.08000000034,
      "d": 660.0377083333296,
      "v": 61
    },
    {
      "midi": 56,
      "hit": false,
      "t": 107662.08000000034,
      "d": 1990.3349479166645,
      "v": 88
    },
    {
      "midi": 60,
      "hit": false,
      "t": 107662.08000000034,
      "d": 1999.096510416668,
      "v": 88
    },
    {
      "midi": 53,
      "hit": false,
      "t": 107662.08000000034,
      "d": 2006.3978124999994,
      "v": 88
    },
    {
      "midi": 63,
      "hit": false,
      "t": 107662.08000000034,
      "d": 2034.1427604166674,
      "v": 88
    },
    {
      "midi": 77,
      "hit": false,
      "t": 107942.45000000019,
      "d": 262.8468750000029,
      "v": 56
    },
    {
      "midi": 89,
      "hit": false,
      "t": 107942.45000000019,
      "d": 262.8468750000029,
      "v": 56
    },
    {
      "midi": 79,
      "hit": false,
      "t": 108222.8200000002,
      "d": 338.78041666666104,
      "v": 60
    },
    {
      "midi": 91,
      "hit": false,
      "t": 108222.8200000002,
      "d": 338.78041666666104,
      "v": 60
    },
    {
      "midi": 77,
      "hit": false,
      "t": 108503.19000000019,
      "d": 308.11494791666337,
      "v": 56
    },
    {
      "midi": 89,
      "hit": false,
      "t": 108503.19000000019,
      "d": 308.11494791666337,
      "v": 56
    },
    {
      "midi": 29,
      "hit": false,
      "t": 108503.19000000034,
      "d": 1193.0327604166669,
      "v": 56
    },
    {
      "midi": 72,
      "hit": false,
      "t": 108783.56000000019,
      "d": 324.17781249999825,
      "v": 60
    },
    {
      "midi": 84,
      "hit": false,
      "t": 108783.56000000019,
      "d": 324.17781249999825,
      "v": 60
    },
    {
      "midi": 77,
      "hit": false,
      "t": 109063.93000000018,
      "d": 284.75078125001164,
      "v": 49
    },
    {
      "midi": 89,
      "hit": false,
      "t": 109063.93000000018,
      "d": 284.75078125001164,
      "v": 49
    },
    {
      "midi": 79,
      "hit": false,
      "t": 109344.30000000019,
      "d": 354.8432812499959,
      "v": 60
    },
    {
      "midi": 91,
      "hit": false,
      "t": 109344.30000000019,
      "d": 354.8432812499959,
      "v": 60
    },
    {
      "midi": 77,
      "hit": false,
      "t": 109624.67000000019,
      "d": 277.4494791666657,
      "v": 64
    },
    {
      "midi": 89,
      "hit": false,
      "t": 109624.67000000019,
      "d": 277.4494791666657,
      "v": 64
    },
    {
      "midi": 74,
      "hit": false,
      "t": 109905.04000000018,
      "d": 297.8931250000023,
      "v": 71
    },
    {
      "midi": 86,
      "hit": false,
      "t": 109905.04000000018,
      "d": 297.8931250000023,
      "v": 71
    },
    {
      "midi": 31,
      "hit": false,
      "t": 109905.04000000034,
      "d": 677.5608333333366,
      "v": 77
    },
    {
      "midi": 55,
      "hit": false,
      "t": 109905.04000000034,
      "d": 1987.4144270833494,
      "v": 88
    },
    {
      "midi": 62,
      "hit": false,
      "t": 109905.04000000034,
      "d": 2026.8414583333506,
      "v": 88
    },
    {
      "midi": 65,
      "hit": false,
      "t": 109905.04000000034,
      "d": 2044.3645833333576,
      "v": 88
    },
    {
      "midi": 58,
      "hit": false,
      "t": 109905.04000000034,
      "d": 2064.808229166694,
      "v": 88
    },
    {
      "midi": 77,
      "hit": false,
      "t": 110185.41000000018,
      "d": 293.51234375001513,
      "v": 56
    },
    {
      "midi": 89,
      "hit": false,
      "t": 110185.41000000018,
      "d": 293.51234375001513,
      "v": 56
    },
    {
      "midi": 79,
      "hit": false,
      "t": 110465.78000000019,
      "d": 332.9393750000163,
      "v": 56
    },
    {
      "midi": 91,
      "hit": false,
      "t": 110465.78000000019,
      "d": 332.9393750000163,
      "v": 56
    },
    {
      "midi": 77,
      "hit": false,
      "t": 110746.1500000002,
      "d": 297.8931250000169,
      "v": 56
    },
    {
      "midi": 89,
      "hit": false,
      "t": 110746.1500000002,
      "d": 297.8931250000169,
      "v": 56
    },
    {
      "midi": 31,
      "hit": false,
      "t": 110746.15000000034,
      "d": 928.7256250000064,
      "v": 70
    },
    {
      "midi": 74,
      "hit": false,
      "t": 111026.52000000021,
      "d": 297.8931250000169,
      "v": 56
    },
    {
      "midi": 86,
      "hit": false,
      "t": 111026.52000000021,
      "d": 297.8931250000169,
      "v": 56
    },
    {
      "midi": 77,
      "hit": false,
      "t": 111306.89000000022,
      "d": 277.44947916668025,
      "v": 52
    },
    {
      "midi": 89,
      "hit": false,
      "t": 111306.89000000022,
      "d": 277.44947916668025,
      "v": 52
    },
    {
      "midi": 79,
      "hit": false,
      "t": 111587.26000000023,
      "d": 367.98562500000116,
      "v": 52
    },
    {
      "midi": 91,
      "hit": false,
      "t": 111587.26000000023,
      "d": 367.98562500000116,
      "v": 52
    },
    {
      "midi": 77,
      "hit": false,
      "t": 111867.63000000022,
      "d": 293.51234375001513,
      "v": 56
    },
    {
      "midi": 89,
      "hit": false,
      "t": 111867.63000000022,
      "d": 293.51234375001513,
      "v": 56
    },
    {
      "midi": 31,
      "hit": false,
      "t": 111867.63000000035,
      "d": 261.38661458334536,
      "v": 61
    },
    {
      "midi": 72,
      "hit": false,
      "t": 112148.00000000023,
      "d": 300.8136458333465,
      "v": 56
    },
    {
      "midi": 84,
      "hit": false,
      "t": 112148.00000000023,
      "d": 300.8136458333465,
      "v": 56
    },
    {
      "midi": 29,
      "hit": false,
      "t": 112148.00000000036,
      "d": 671.7197916666628,
      "v": 61
    },
    {
      "midi": 53,
      "hit": false,
      "t": 112148.00000000036,
      "d": 1964.0502604166686,
      "v": 88
    },
    {
      "midi": 60,
      "hit": false,
      "t": 112148.00000000036,
      "d": 1964.0502604166686,
      "v": 88
    },
    {
      "midi": 56,
      "hit": false,
      "t": 112148.00000000036,
      "d": 2006.3978124999994,
      "v": 88
    },
    {
      "midi": 63,
      "hit": false,
      "t": 112148.00000000036,
      "d": 2034.1427604166674,
      "v": 88
    },
    {
      "midi": 77,
      "hit": false,
      "t": 112428.37000000024,
      "d": 316.8765104166814,
      "v": 49
    },
    {
      "midi": 89,
      "hit": false,
      "t": 112428.37000000024,
      "d": 316.8765104166814,
      "v": 49
    },
    {
      "midi": 79,
      "hit": false,
      "t": 112708.74000000025,
      "d": 321.25729166668316,
      "v": 52
    },
    {
      "midi": 91,
      "hit": false,
      "t": 112708.74000000025,
      "d": 321.25729166668316,
      "v": 52
    },
    {
      "midi": 77,
      "hit": false,
      "t": 112989.11000000026,
      "d": 286.21104166668374,
      "v": 60
    },
    {
      "midi": 89,
      "hit": false,
      "t": 112989.11000000026,
      "d": 286.21104166668374,
      "v": 60
    },
    {
      "midi": 29,
      "hit": false,
      "t": 112989.11000000036,
      "d": 1203.254583333328,
      "v": 61
    },
    {
      "midi": 72,
      "hit": false,
      "t": 113269.48000000027,
      "d": 315.4162500000093,
      "v": 46
    },
    {
      "midi": 84,
      "hit": false,
      "t": 113269.48000000027,
      "d": 315.4162500000093,
      "v": 46
    },
    {
      "midi": 77,
      "hit": false,
      "t": 113549.85000000028,
      "d": 265.76739583333256,
      "v": 49
    },
    {
      "midi": 89,
      "hit": false,
      "t": 113549.85000000028,
      "d": 265.76739583333256,
      "v": 49
    },
    {
      "midi": 79,
      "hit": false,
      "t": 113830.22000000028,
      "d": 373.82666666666046,
      "v": 46
    },
    {
      "midi": 91,
      "hit": false,
      "t": 113830.22000000028,
      "d": 373.82666666666046,
      "v": 46
    },
    {
      "midi": 77,
      "hit": false,
      "t": 114110.59000000027,
      "d": 284.7507812499971,
      "v": 56
    },
    {
      "midi": 89,
      "hit": false,
      "t": 114110.59000000027,
      "d": 284.7507812499971,
      "v": 56
    },
    {
      "midi": 74,
      "hit": false,
      "t": 114390.96000000027,
      "d": 315.41624999999476,
      "v": 69
    },
    {
      "midi": 86,
      "hit": false,
      "t": 114390.96000000027,
      "d": 315.41624999999476,
      "v": 69
    },
    {
      "midi": 31,
      "hit": false,
      "t": 114390.96000000036,
      "d": 642.5145833333372,
      "v": 77
    },
    {
      "midi": 62,
      "hit": false,
      "t": 114390.96000000036,
      "d": 1679.2994791666715,
      "v": 88
    },
    {
      "midi": 58,
      "hit": false,
      "t": 114390.96000000036,
      "d": 1690.9815625000047,
      "v": 88
    },
    {
      "midi": 65,
      "hit": false,
      "t": 114390.96000000036,
      "d": 1695.3623437500064,
      "v": 88
    },
    {
      "midi": 55,
      "hit": false,
      "t": 114390.96000000036,
      "d": 1699.7431250000081,
      "v": 88
    },
    {
      "midi": 77,
      "hit": false,
      "t": 114671.33000000026,
      "d": 277.4494791666657,
      "v": 60
    },
    {
      "midi": 89,
      "hit": false,
      "t": 114671.33000000026,
      "d": 277.4494791666657,
      "v": 60
    },
    {
      "midi": 79,
      "hit": false,
      "t": 114951.70000000026,
      "d": 389.88953124999534,
      "v": 56
    },
    {
      "midi": 91,
      "hit": false,
      "t": 114951.70000000026,
      "d": 389.88953124999534,
      "v": 56
    },
    {
      "midi": 77,
      "hit": false,
      "t": 115232.07000000025,
      "d": 300.813645833332,
      "v": 52
    },
    {
      "midi": 89,
      "hit": false,
      "t": 115232.07000000025,
      "d": 300.813645833332,
      "v": 52
    },
    {
      "midi": 31,
      "hit": false,
      "t": 115232.07000000036,
      "d": 1041.165677083336,
      "v": 77
    },
    {
      "midi": 74,
      "hit": false,
      "t": 115512.44000000025,
      "d": 305.1944270833483,
      "v": 69
    },
    {
      "midi": 86,
      "hit": false,
      "t": 115512.44000000025,
      "d": 305.1944270833483,
      "v": 69
    },
    {
      "midi": 77,
      "hit": false,
      "t": 115792.81000000026,
      "d": 293.51234375001513,
      "v": 52
    },
    {
      "midi": 89,
      "hit": false,
      "t": 115792.81000000026,
      "d": 293.51234375001513,
      "v": 52
    },
    {
      "midi": 79,
      "hit": false,
      "t": 116073.18000000027,
      "d": 478.96541666667326,
      "v": 49
    },
    {
      "midi": 91,
      "hit": false,
      "t": 116073.18000000027,
      "d": 478.96541666667326,
      "v": 49
    },
    {
      "midi": 77,
      "hit": false,
      "t": 116353.55000000028,
      "d": 148.94656250000116,
      "v": 46
    },
    {
      "midi": 89,
      "hit": false,
      "t": 116353.55000000028,
      "d": 148.94656250000116,
      "v": 46
    },
    {
      "midi": 77,
      "hit": false,
      "t": 116633.92000000027,
      "d": 13.142343750005239,
      "v": 56
    },
    {
      "midi": 89,
      "hit": false,
      "t": 116633.92000000027,
      "d": 13.142343750005239,
      "v": 56
    },
    {
      "midi": 72,
      "hit": false,
      "t": 116633.92000000027,
      "d": 300.8136458333465,
      "v": 56
    },
    {
      "midi": 84,
      "hit": false,
      "t": 116633.92000000027,
      "d": 300.8136458333465,
      "v": 56
    },
    {
      "midi": 29,
      "hit": false,
      "t": 116633.92000000036,
      "d": 671.7197916666628,
      "v": 61
    },
    {
      "midi": 56,
      "hit": false,
      "t": 116633.92000000036,
      "d": 1990.3349479166645,
      "v": 88
    },
    {
      "midi": 60,
      "hit": false,
      "t": 116633.92000000036,
      "d": 1999.096510416668,
      "v": 88
    },
    {
      "midi": 53,
      "hit": false,
      "t": 116633.92000000036,
      "d": 2006.3978124999994,
      "v": 88
    },
    {
      "midi": 63,
      "hit": false,
      "t": 116633.92000000036,
      "d": 2034.1427604166674,
      "v": 88
    },
    {
      "midi": 77,
      "hit": false,
      "t": 116914.29000000028,
      "d": 316.8765104166814,
      "v": 49
    },
    {
      "midi": 89,
      "hit": false,
      "t": 116914.29000000028,
      "d": 316.8765104166814,
      "v": 49
    },
    {
      "midi": 79,
      "hit": false,
      "t": 117194.6600000003,
      "d": 321.25729166668316,
      "v": 52
    },
    {
      "midi": 91,
      "hit": false,
      "t": 117194.6600000003,
      "d": 321.25729166668316,
      "v": 52
    },
    {
      "midi": 77,
      "hit": false,
      "t": 117475.0300000003,
      "d": 286.21104166668374,
      "v": 60
    },
    {
      "midi": 89,
      "hit": false,
      "t": 117475.0300000003,
      "d": 286.21104166668374,
      "v": 60
    },
    {
      "midi": 29,
      "hit": false,
      "t": 117475.03000000036,
      "d": 1203.254583333328,
      "v": 61
    },
    {
      "midi": 72,
      "hit": false,
      "t": 117755.40000000031,
      "d": 315.4162500000093,
      "v": 46
    },
    {
      "midi": 84,
      "hit": false,
      "t": 117755.40000000031,
      "d": 315.4162500000093,
      "v": 46
    },
    {
      "midi": 77,
      "hit": false,
      "t": 118035.77000000032,
      "d": 265.76739583333256,
      "v": 49
    },
    {
      "midi": 89,
      "hit": false,
      "t": 118035.77000000032,
      "d": 265.76739583333256,
      "v": 49
    },
    {
      "midi": 79,
      "hit": false,
      "t": 118316.14000000032,
      "d": 373.82666666666046,
      "v": 46
    },
    {
      "midi": 91,
      "hit": false,
      "t": 118316.14000000032,
      "d": 373.82666666666046,
      "v": 46
    },
    {
      "midi": 77,
      "hit": false,
      "t": 118596.51000000031,
      "d": 280.36999999999534,
      "v": 56
    },
    {
      "midi": 89,
      "hit": false,
      "t": 118596.51000000031,
      "d": 280.36999999999534,
      "v": 56
    },
    {
      "midi": 60,
      "hit": false,
      "t": 118876.88000000035,
      "d": 144.56578124999942,
      "v": 88
    },
    {
      "midi": 63,
      "hit": false,
      "t": 118876.88000000035,
      "d": 153.3273437500029,
      "v": 88
    },
    {
      "midi": 68,
      "hit": false,
      "t": 118876.88000000035,
      "d": 157.70812500000466,
      "v": 88
    },
    {
      "midi": 44,
      "hit": false,
      "t": 118876.88000000035,
      "d": 186.91333333334478,
      "v": 86
    },
    {
      "midi": 63,
      "hit": false,
      "t": 119157.25000000036,
      "d": 116.8208333333314,
      "v": 88
    },
    {
      "midi": 60,
      "hit": false,
      "t": 119157.25000000036,
      "d": 157.70812500000466,
      "v": 88
    },
    {
      "midi": 68,
      "hit": false,
      "t": 119157.25000000036,
      "d": 165.00942708333605,
      "v": 88
    },
    {
      "midi": 44,
      "hit": false,
      "t": 119157.25000000036,
      "d": 432.2370833333407,
      "v": 70
    },
    {
      "midi": 68,
      "hit": false,
      "t": 119437.62000000037,
      "d": 132.88369791666628,
      "v": 88
    },
    {
      "midi": 63,
      "hit": false,
      "t": 119437.62000000037,
      "d": 140.18499999999767,
      "v": 88
    },
    {
      "midi": 60,
      "hit": false,
      "t": 119437.62000000037,
      "d": 167.9299479166657,
      "v": 88
    },
    {
      "midi": 68,
      "hit": false,
      "t": 119717.99000000037,
      "d": 165.00942708333605,
      "v": 88
    },
    {
      "midi": 63,
      "hit": false,
      "t": 119717.99000000037,
      "d": 169.3902083333378,
      "v": 88
    },
    {
      "midi": 60,
      "hit": false,
      "t": 119717.99000000037,
      "d": 195.67489583333372,
      "v": 88
    },
    {
      "midi": 44,
      "hit": false,
      "t": 119717.99000000037,
      "d": 476.04489583332906,
      "v": 61
    },
    {
      "midi": 58,
      "hit": false,
      "t": 120278.73000000036,
      "d": 146.02604166667152,
      "v": 88
    },
    {
      "midi": 62,
      "hit": false,
      "t": 120278.73000000036,
      "d": 188.37359375000233,
      "v": 88
    },
    {
      "midi": 67,
      "hit": false,
      "t": 120278.73000000036,
      "d": 188.37359375000233,
      "v": 88
    },
    {
      "midi": 43,
      "hit": false,
      "t": 120278.73000000036,
      "d": 219.0390625,
      "v": 56
    },
    {
      "midi": 58,
      "hit": false,
      "t": 120559.10000000036,
      "d": 238.02244791666453,
      "v": 88
    },
    {
      "midi": 62,
      "hit": false,
      "t": 120559.10000000036,
      "d": 242.40322916666628,
      "v": 88
    },
    {
      "midi": 67,
      "hit": false,
      "t": 120559.10000000036,
      "d": 270.1481770833343,
      "v": 88
    },
    {
      "midi": 43,
      "hit": false,
      "t": 120559.10000000036,
      "d": 433.69734374999825,
      "v": 56
    },
    {
      "midi": 56,
      "hit": false,
      "t": 121119.84000000036,
      "d": 156.24786458333256,
      "v": 88
    },
    {
      "midi": 65,
      "hit": false,
      "t": 121119.84000000036,
      "d": 175.2312499999971,
      "v": 88
    },
    {
      "midi": 41,
      "hit": false,
      "t": 121119.84000000036,
      "d": 186.91333333333023,
      "v": 56
    },
    {
      "midi": 60,
      "hit": false,
      "t": 121119.84000000036,
      "d": 186.91333333333023,
      "v": 88
    },
    {
      "midi": 60,
      "hit": false,
      "t": 121400.21000000036,
      "d": 293.5123437500006,
      "v": 88
    },
    {
      "midi": 65,
      "hit": false,
      "t": 121400.21000000036,
      "d": 293.5123437500006,
      "v": 88
    },
    {
      "midi": 56,
      "hit": false,
      "t": 121400.21000000036,
      "d": 308.11494791666337,
      "v": 88
    },
    {
      "midi": 41,
      "hit": false,
      "t": 121400.21000000036,
      "d": 391.34979166666744,
      "v": 56
    },
    {
      "midi": 41,
      "hit": false,
      "t": 121960.95000000036,
      "d": 410.333177083332,
      "v": 60
    },
    {
      "midi": 46,
      "hit": false,
      "t": 122521.69000000037,
      "d": 300.813645833332,
      "v": 70
    },
    {
      "midi": 60,
      "hit": false,
      "t": 122521.69000000037,
      "d": 702.3852604166605,
      "v": 88
    },
    {
      "midi": 56,
      "hit": false,
      "t": 122521.69000000037,
      "d": 716.9878645833232,
      "v": 88
    },
    {
      "midi": 63,
      "hit": false,
      "t": 122521.69000000037,
      "d": 716.9878645833232,
      "v": 88
    },
    {
      "midi": 67,
      "hit": false,
      "t": 122521.69000000037,
      "d": 740.3520312499895,
      "v": 88
    },
    {
      "midi": 34,
      "hit": false,
      "t": 122802.06000000036,
      "d": 554.8989583333314,
      "v": 77
    },
    {
      "midi": 60,
      "hit": false,
      "t": 123362.80000000037,
      "d": 109.51953125,
      "v": 88
    },
    {
      "midi": 58,
      "hit": false,
      "t": 123362.80000000037,
      "d": 118.28109375000349,
      "v": 88
    },
    {
      "midi": 55,
      "hit": false,
      "t": 123362.80000000037,
      "d": 128.50291666666453,
      "v": 88
    },
    {
      "midi": 63,
      "hit": false,
      "t": 123362.80000000037,
      "d": 157.70812500000466,
      "v": 88
    },
    {
      "midi": 39,
      "hit": false,
      "t": 123362.80000000037,
      "d": 810.4445312500029,
      "v": 99
    },
    {
      "midi": 60,
      "hit": false,
      "t": 123643.17000000038,
      "d": 105.13874999999825,
      "v": 88
    },
    {
      "midi": 55,
      "hit": false,
      "t": 123643.17000000038,
      "d": 128.50291666666453,
      "v": 88
    },
    {
      "midi": 58,
      "hit": false,
      "t": 123643.17000000038,
      "d": 128.50291666666453,
      "v": 88
    },
    {
      "midi": 63,
      "hit": false,
      "t": 123643.17000000038,
      "d": 144.56578124999942,
      "v": 88
    },
    {
      "midi": 55,
      "hit": false,
      "t": 123923.54000000037,
      "d": 106.59901041667035,
      "v": 88
    },
    {
      "midi": 60,
      "hit": false,
      "t": 123923.54000000037,
      "d": 110.9797916666721,
      "v": 88
    },
    {
      "midi": 58,
      "hit": false,
      "t": 123923.54000000037,
      "d": 125.58239583333489,
      "v": 88
    },
    {
      "midi": 63,
      "hit": false,
      "t": 123923.54000000037,
      "d": 125.58239583333489,
      "v": 88
    },
    {
      "midi": 55,
      "hit": false,
      "t": 124203.91000000037,
      "d": 99.29770833333896,
      "v": 88
    },
    {
      "midi": 60,
      "hit": false,
      "t": 124203.91000000037,
      "d": 110.9797916666721,
      "v": 88
    },
    {
      "midi": 58,
      "hit": false,
      "t": 124203.91000000037,
      "d": 129.96317708333663,
      "v": 88
    },
    {
      "midi": 63,
      "hit": false,
      "t": 124203.91000000037,
      "d": 129.96317708333663,
      "v": 88
    },
    {
      "midi": 46,
      "hit": false,
      "t": 124203.91000000037,
      "d": 728.6699479166709,
      "v": 70
    },
    {
      "midi": 55,
      "hit": false,
      "t": 124484.28000000038,
      "d": 109.51953125,
      "v": 88
    },
    {
      "midi": 58,
      "hit": false,
      "t": 124484.28000000038,
      "d": 113.90031250000175,
      "v": 88
    },
    {
      "midi": 60,
      "hit": false,
      "t": 124484.28000000038,
      "d": 113.90031250000175,
      "v": 88
    },
    {
      "midi": 63,
      "hit": false,
      "t": 124484.28000000038,
      "d": 140.18499999999767,
      "v": 88
    },
    {
      "midi": 55,
      "hit": false,
      "t": 124764.65000000037,
      "d": 105.13874999999825,
      "v": 88
    },
    {
      "midi": 60,
      "hit": false,
      "t": 124764.65000000037,
      "d": 116.8208333333314,
      "v": 88
    },
    {
      "midi": 63,
      "hit": false,
      "t": 124764.65000000037,
      "d": 116.8208333333314,
      "v": 88
    },
    {
      "midi": 58,
      "hit": false,
      "t": 124764.65000000037,
      "d": 132.88369791666628,
      "v": 88
    },
    {
      "midi": 55,
      "hit": false,
      "t": 125045.02000000037,
      "d": 105.13874999999825,
      "v": 88
    },
    {
      "midi": 60,
      "hit": false,
      "t": 125045.02000000037,
      "d": 105.13874999999825,
      "v": 88
    },
    {
      "midi": 63,
      "hit": false,
      "t": 125045.02000000037,
      "d": 118.28109375000349,
      "v": 88
    },
    {
      "midi": 58,
      "hit": false,
      "t": 125045.02000000037,
      "d": 128.50291666666453,
      "v": 88
    },
    {
      "midi": 46,
      "hit": false,
      "t": 125045.02000000037,
      "d": 537.3758333333244,
      "v": 77
    },
    {
      "midi": 55,
      "hit": false,
      "t": 125325.39000000036,
      "d": 81.77458333333198,
      "v": 88
    },
    {
      "midi": 60,
      "hit": false,
      "t": 125325.39000000036,
      "d": 106.59901041667035,
      "v": 88
    },
    {
      "midi": 58,
      "hit": false,
      "t": 125325.39000000036,
      "d": 122.66187500000524,
      "v": 88
    },
    {
      "midi": 63,
      "hit": false,
      "t": 125325.39000000036,
      "d": 144.56578124999942,
      "v": 88
    },
    {
      "midi": 53,
      "hit": false,
      "t": 125605.76000000036,
      "d": 113.90031250000175,
      "v": 88
    },
    {
      "midi": 60,
      "hit": false,
      "t": 125605.76000000036,
      "d": 129.96317708333663,
      "v": 88
    },
    {
      "midi": 56,
      "hit": false,
      "t": 125605.76000000036,
      "d": 144.56578124999942,
      "v": 88
    },
    {
      "midi": 63,
      "hit": false,
      "t": 125605.76000000036,
      "d": 172.31072916666744,
      "v": 88
    },
    {
      "midi": 41,
      "hit": false,
      "t": 125605.76000000036,
      "d": 714.0673437500227,
      "v": 60
    },
    {
      "midi": 60,
      "hit": false,
      "t": 125886.13000000035,
      "d": 99.29770833333896,
      "v": 88
    },
    {
      "midi": 56,
      "hit": false,
      "t": 125886.13000000035,
      "d": 106.59901041667035,
      "v": 88
    },
    {
      "midi": 53,
      "hit": false,
      "t": 125886.13000000035,
      "d": 118.28109375000349,
      "v": 88
    },
    {
      "midi": 63,
      "hit": false,
      "t": 125886.13000000035,
      "d": 141.64526041666977,
      "v": 88
    },
    {
      "midi": 60,
      "hit": false,
      "t": 126166.50000000036,
      "d": 93.45666666666511,
      "v": 88
    },
    {
      "midi": 56,
      "hit": false,
      "t": 126166.50000000036,
      "d": 110.9797916666721,
      "v": 88
    },
    {
      "midi": 53,
      "hit": false,
      "t": 126166.50000000036,
      "d": 128.50291666667908,
      "v": 88
    },
    {
      "midi": 63,
      "hit": false,
      "t": 126166.50000000036,
      "d": 148.94656250001572,
      "v": 88
    },
    {
      "midi": 53,
      "hit": false,
      "t": 126446.87000000039,
      "d": 110.9797916666721,
      "v": 88
    },
    {
      "midi": 56,
      "hit": false,
      "t": 126446.87000000039,
      "d": 116.82083333334594,
      "v": 88
    },
    {
      "midi": 60,
      "hit": false,
      "t": 126446.87000000039,
      "d": 125.58239583334944,
      "v": 88
    },
    {
      "midi": 63,
      "hit": false,
      "t": 126446.87000000039,
      "d": 141.64526041668432,
      "v": 88
    },
    {
      "midi": 46,
      "hit": false,
      "t": 126446.87000000039,
      "d": 838.1894791667,
      "v": 86
    },
    {
      "midi": 56,
      "hit": false,
      "t": 126727.24000000041,
      "d": 90.53614583333547,
      "v": 88
    },
    {
      "midi": 53,
      "hit": false,
      "t": 126727.24000000041,
      "d": 116.8208333333314,
      "v": 88
    },
    {
      "midi": 60,
      "hit": false,
      "t": 126727.24000000041,
      "d": 122.66187500000524,
      "v": 88
    },
    {
      "midi": 63,
      "hit": false,
      "t": 126727.24000000041,
      "d": 129.96317708333663,
      "v": 88
    },
    {
      "midi": 53,
      "hit": false,
      "t": 127007.61000000042,
      "d": 105.13874999999825,
      "v": 88
    },
    {
      "midi": 56,
      "hit": false,
      "t": 127007.61000000042,
      "d": 109.51953125,
      "v": 88
    },
    {
      "midi": 60,
      "hit": false,
      "t": 127007.61000000042,
      "d": 116.8208333333314,
      "v": 88
    },
    {
      "midi": 63,
      "hit": false,
      "t": 127007.61000000042,
      "d": 146.02604166667152,
      "v": 88
    },
    {
      "midi": 56,
      "hit": false,
      "t": 127287.98000000042,
      "d": 94.91692708333721,
      "v": 88
    },
    {
      "midi": 53,
      "hit": false,
      "t": 127287.98000000042,
      "d": 102.2182291666686,
      "v": 88
    },
    {
      "midi": 60,
      "hit": false,
      "t": 127287.98000000042,
      "d": 102.2182291666686,
      "v": 88
    },
    {
      "midi": 63,
      "hit": false,
      "t": 127287.98000000042,
      "d": 129.96317708333663,
      "v": 88
    },
    {
      "midi": 34,
      "hit": false,
      "t": 127287.98000000042,
      "d": 420.5550000000221,
      "v": 70
    },
    {
      "midi": 60,
      "hit": false,
      "t": 127568.35000000043,
      "d": 78.85406250000233,
      "v": 88
    },
    {
      "midi": 56,
      "hit": false,
      "t": 127568.35000000043,
      "d": 83.23484375000407,
      "v": 88
    },
    {
      "midi": 53,
      "hit": false,
      "t": 127568.35000000043,
      "d": 90.53614583333547,
      "v": 88
    },
    {
      "midi": 63,
      "hit": false,
      "t": 127568.35000000043,
      "d": 122.66187500000524,
      "v": 88
    },
    {
      "midi": 55,
      "hit": false,
      "t": 127848.72000000044,
      "d": 93.45666666666511,
      "v": 88
    },
    {
      "midi": 60,
      "hit": false,
      "t": 127848.72000000044,
      "d": 105.13874999999825,
      "v": 88
    },
    {
      "midi": 58,
      "hit": false,
      "t": 127848.72000000044,
      "d": 134.34395833333838,
      "v": 88
    },
    {
      "midi": 63,
      "hit": false,
      "t": 127848.72000000044,
      "d": 144.56578124999942,
      "v": 88
    },
    {
      "midi": 39,
      "hit": false,
      "t": 127848.72000000044,
      "d": 639.5940625000076,
      "v": 99
    },
    {
      "midi": 60,
      "hit": false,
      "t": 128129.09000000043,
      "d": 109.51953125,
      "v": 88
    },
    {
      "midi": 55,
      "hit": false,
      "t": 128129.09000000043,
      "d": 132.88369791666628,
      "v": 88
    },
    {
      "midi": 58,
      "hit": false,
      "t": 128129.09000000043,
      "d": 141.64526041666977,
      "v": 88
    },
    {
      "midi": 63,
      "hit": false,
      "t": 128129.09000000043,
      "d": 141.64526041666977,
      "v": 88
    },
    {
      "midi": 55,
      "hit": false,
      "t": 128409.46000000044,
      "d": 110.9797916666721,
      "v": 88
    },
    {
      "midi": 60,
      "hit": false,
      "t": 128409.46000000044,
      "d": 110.9797916666721,
      "v": 88
    },
    {
      "midi": 58,
      "hit": false,
      "t": 128409.46000000044,
      "d": 132.88369791666628,
      "v": 88
    },
    {
      "midi": 63,
      "hit": false,
      "t": 128409.46000000044,
      "d": 132.88369791666628,
      "v": 88
    },
    {
      "midi": 60,
      "hit": false,
      "t": 128689.83000000044,
      "d": 102.2182291666686,
      "v": 88
    },
    {
      "midi": 55,
      "hit": false,
      "t": 128689.83000000044,
      "d": 134.34395833333838,
      "v": 88
    },
    {
      "midi": 63,
      "hit": false,
      "t": 128689.83000000044,
      "d": 141.64526041666977,
      "v": 88
    },
    {
      "midi": 58,
      "hit": false,
      "t": 128689.83000000044,
      "d": 151.8670833333308,
      "v": 88
    },
    {
      "midi": 39,
      "hit": false,
      "t": 128689.83000000044,
      "d": 262.8468750000029,
      "v": 99
    },
    {
      "midi": 55,
      "hit": false,
      "t": 128970.20000000045,
      "d": 94.91692708333721,
      "v": 88
    },
    {
      "midi": 60,
      "hit": false,
      "t": 128970.20000000045,
      "d": 106.59901041667035,
      "v": 88
    },
    {
      "midi": 58,
      "hit": false,
      "t": 128970.20000000045,
      "d": 122.66187500000524,
      "v": 88
    },
    {
      "midi": 63,
      "hit": false,
      "t": 128970.20000000045,
      "d": 129.96317708333663,
      "v": 88
    },
    {
      "midi": 43,
      "hit": false,
      "t": 128970.20000000045,
      "d": 296.4328645833448,
      "v": 45
    },
    {
      "midi": 55,
      "hit": false,
      "t": 129250.57000000046,
      "d": 86.15536458333372,
      "v": 88
    },
    {
      "midi": 60,
      "hit": false,
      "t": 129250.57000000046,
      "d": 113.90031250000175,
      "v": 88
    },
    {
      "midi": 63,
      "hit": false,
      "t": 129250.57000000046,
      "d": 121.20161458333314,
      "v": 88
    },
    {
      "midi": 58,
      "hit": false,
      "t": 129250.57000000046,
      "d": 141.64526041666977,
      "v": 88
    },
    {
      "midi": 44,
      "hit": false,
      "t": 129250.57000000046,
      "d": 292.05208333334303,
      "v": 70
    },
    {
      "midi": 55,
      "hit": false,
      "t": 129530.94000000047,
      "d": 99.29770833333896,
      "v": 88
    },
    {
      "midi": 60,
      "hit": false,
      "t": 129530.94000000047,
      "d": 109.51953125,
      "v": 88
    },
    {
      "midi": 58,
      "hit": false,
      "t": 129530.94000000047,
      "d": 144.56578124999942,
      "v": 88
    },
    {
      "midi": 63,
      "hit": false,
      "t": 129530.94000000047,
      "d": 144.56578124999942,
      "v": 88
    },
    {
      "midi": 45,
      "hit": false,
      "t": 129530.94000000047,
      "d": 321.2572916666686,
      "v": 48
    },
    {
      "midi": 58,
      "hit": false,
      "t": 129811.31000000046,
      "d": 87.61562500000582,
      "v": 88
    },
    {
      "midi": 55,
      "hit": false,
      "t": 129811.31000000046,
      "d": 97.83744791666686,
      "v": 88
    },
    {
      "midi": 60,
      "hit": false,
      "t": 129811.31000000046,
      "d": 109.51953125,
      "v": 88
    },
    {
      "midi": 63,
      "hit": false,
      "t": 129811.31000000046,
      "d": 137.26447916666802,
      "v": 88
    },
    {
      "midi": 46,
      "hit": false,
      "t": 129811.31000000046,
      "d": 398.65109374999884,
      "v": 60
    },
    {
      "midi": 53,
      "hit": false,
      "t": 130091.68000000046,
      "d": 118.28109375000349,
      "v": 88
    },
    {
      "midi": 60,
      "hit": false,
      "t": 130091.68000000046,
      "d": 125.58239583333489,
      "v": 88
    },
    {
      "midi": 56,
      "hit": false,
      "t": 130091.68000000046,
      "d": 129.96317708333663,
      "v": 88
    },
    {
      "midi": 63,
      "hit": false,
      "t": 130091.68000000046,
      "d": 167.9299479166657,
      "v": 88
    },
    {
      "midi": 56,
      "hit": false,
      "t": 130372.05000000045,
      "d": 105.13874999999825,
      "v": 88
    },
    {
      "midi": 53,
      "hit": false,
      "t": 130372.05000000045,
      "d": 109.51953125,
      "v": 88
    },
    {
      "midi": 60,
      "hit": false,
      "t": 130372.05000000045,
      "d": 118.28109375000349,
      "v": 88
    },
    {
      "midi": 63,
      "hit": false,
      "t": 130372.05000000045,
      "d": 140.18499999999767,
      "v": 88
    },
    {
      "midi": 46,
      "hit": false,
      "t": 130372.05000000045,
      "d": 331.47911458332965,
      "v": 39
    },
    {
      "midi": 56,
      "hit": false,
      "t": 130652.42000000045,
      "d": 87.61562500000582,
      "v": 88
    },
    {
      "midi": 60,
      "hit": false,
      "t": 130652.42000000045,
      "d": 102.2182291666686,
      "v": 88
    },
    {
      "midi": 53,
      "hit": false,
      "t": 130652.42000000045,
      "d": 110.9797916666721,
      "v": 88
    },
    {
      "midi": 63,
      "hit": false,
      "t": 130652.42000000045,
      "d": 153.3273437500029,
      "v": 88
    },
    {
      "midi": 53,
      "hit": false,
      "t": 130932.79000000046,
      "d": 110.9797916666721,
      "v": 88
    },
    {
      "midi": 56,
      "hit": false,
      "t": 130932.79000000046,
      "d": 110.9797916666721,
      "v": 88
    },
    {
      "midi": 60,
      "hit": false,
      "t": 130932.79000000046,
      "d": 125.58239583333489,
      "v": 88
    },
    {
      "midi": 63,
      "hit": false,
      "t": 130932.79000000046,
      "d": 156.2478645833471,
      "v": 88
    },
    {
      "midi": 46,
      "hit": false,
      "t": 130932.79000000046,
      "d": 340.24067708333314,
      "v": 61
    },
    {
      "midi": 60,
      "hit": false,
      "t": 131213.16000000047,
      "d": 102.2182291666686,
      "v": 88
    },
    {
      "midi": 53,
      "hit": false,
      "t": 131213.16000000047,
      "d": 106.5990104166558,
      "v": 88
    },
    {
      "midi": 56,
      "hit": false,
      "t": 131213.16000000047,
      "d": 106.5990104166558,
      "v": 88
    },
    {
      "midi": 63,
      "hit": false,
      "t": 131213.16000000047,
      "d": 141.64526041666977,
      "v": 88
    },
    {
      "midi": 53,
      "hit": false,
      "t": 131493.53000000046,
      "d": 99.29770833332441,
      "v": 88
    },
    {
      "midi": 56,
      "hit": false,
      "t": 131493.53000000046,
      "d": 105.1387499999837,
      "v": 88
    },
    {
      "midi": 60,
      "hit": false,
      "t": 131493.53000000046,
      "d": 116.8208333333314,
      "v": 88
    },
    {
      "midi": 63,
      "hit": false,
      "t": 131493.53000000046,
      "d": 151.86708333334536,
      "v": 88
    },
    {
      "midi": 46,
      "hit": false,
      "t": 131493.53000000046,
      "d": 169.39020833335235,
      "v": 70
    },
    {
      "midi": 53,
      "hit": false,
      "t": 131773.9000000005,
      "d": 99.29770833332441,
      "v": 88
    },
    {
      "midi": 60,
      "hit": false,
      "t": 131773.9000000005,
      "d": 113.9003124999872,
      "v": 88
    },
    {
      "midi": 56,
      "hit": false,
      "t": 131773.9000000005,
      "d": 128.50291666664998,
      "v": 88
    },
    {
      "midi": 46,
      "hit": false,
      "t": 131773.9000000005,
      "d": 146.02604166665697,
      "v": 56
    },
    {
      "midi": 63,
      "hit": false,
      "t": 131773.9000000005,
      "d": 163.54916666666395,
      "v": 88
    },
    {
      "midi": 48,
      "hit": false,
      "t": 131914.0850000005,
      "d": 148.94656250000116,
      "v": 56
    },
    {
      "midi": 56,
      "hit": false,
      "t": 132054.27000000048,
      "d": 86.15536458333372,
      "v": 88
    },
    {
      "midi": 53,
      "hit": false,
      "t": 132054.27000000048,
      "d": 97.83744791668141,
      "v": 88
    },
    {
      "midi": 60,
      "hit": false,
      "t": 132054.27000000048,
      "d": 97.83744791668141,
      "v": 88
    },
    {
      "midi": 63,
      "hit": false,
      "t": 132054.27000000048,
      "d": 169.39020833335235,
      "v": 88
    },
    {
      "midi": 51,
      "hit": false,
      "t": 132054.27000000048,
      "d": 273.06869791669305,
      "v": 52
    },
    {
      "midi": 60,
      "hit": false,
      "t": 132334.6400000005,
      "d": 99.29770833332441,
      "v": 88
    },
    {
      "midi": 58,
      "hit": false,
      "t": 132334.6400000005,
      "d": 118.28109375000349,
      "v": 88
    },
    {
      "midi": 55,
      "hit": false,
      "t": 132334.6400000005,
      "d": 128.50291666667908,
      "v": 88
    },
    {
      "midi": 63,
      "hit": false,
      "t": 132334.6400000005,
      "d": 157.70812500000466,
      "v": 88
    },
    {
      "midi": 39,
      "hit": false,
      "t": 132334.6400000005,
      "d": 595.7862500000338,
      "v": 70
    },
    {
      "midi": 60,
      "hit": false,
      "t": 132615.0100000005,
      "d": 102.2182291666686,
      "v": 88
    },
    {
      "midi": 55,
      "hit": false,
      "t": 132615.0100000005,
      "d": 128.50291666667908,
      "v": 88
    },
    {
      "midi": 58,
      "hit": false,
      "t": 132615.0100000005,
      "d": 128.50291666667908,
      "v": 88
    },
    {
      "midi": 63,
      "hit": false,
      "t": 132615.0100000005,
      "d": 144.56578125001397,
      "v": 88
    },
    {
      "midi": 55,
      "hit": false,
      "t": 132895.38000000053,
      "d": 106.5990104166849,
      "v": 88
    },
    {
      "midi": 60,
      "hit": false,
      "t": 132895.38000000053,
      "d": 106.5990104166849,
      "v": 88
    },
    {
      "midi": 58,
      "hit": false,
      "t": 132895.38000000053,
      "d": 125.58239583336399,
      "v": 88
    },
    {
      "midi": 63,
      "hit": false,
      "t": 132895.38000000053,
      "d": 125.58239583336399,
      "v": 88
    },
    {
      "midi": 55,
      "hit": false,
      "t": 133175.75000000055,
      "d": 99.29770833332441,
      "v": 88
    },
    {
      "midi": 60,
      "hit": false,
      "t": 133175.75000000055,
      "d": 109.51953125,
      "v": 88
    },
    {
      "midi": 58,
      "hit": false,
      "t": 133175.75000000055,
      "d": 129.96317708332208,
      "v": 88
    },
    {
      "midi": 63,
      "hit": false,
      "t": 133175.75000000055,
      "d": 129.96317708332208,
      "v": 88
    },
    {
      "midi": 39,
      "hit": false,
      "t": 133175.75000000055,
      "d": 223.4198437499872,
      "v": 70
    },
    {
      "midi": 55,
      "hit": false,
      "t": 133456.12000000055,
      "d": 109.51953125,
      "v": 88
    },
    {
      "midi": 58,
      "hit": false,
      "t": 133456.12000000055,
      "d": 116.8208333333314,
      "v": 88
    },
    {
      "midi": 60,
      "hit": false,
      "t": 133456.12000000055,
      "d": 116.8208333333314,
      "v": 88
    },
    {
      "midi": 63,
      "hit": false,
      "t": 133456.12000000055,
      "d": 140.18499999999767,
      "v": 88
    },
    {
      "midi": 43,
      "hit": false,
      "t": 133456.12000000055,
      "d": 293.51234374998603,
      "v": 48
    },
    {
      "midi": 55,
      "hit": false,
      "t": 133736.49000000054,
      "d": 105.1387499999837,
      "v": 88
    },
    {
      "midi": 60,
      "hit": false,
      "t": 133736.49000000054,
      "d": 113.9003124999872,
      "v": 88
    },
    {
      "midi": 63,
      "hit": false,
      "t": 133736.49000000054,
      "d": 118.28109374997439,
      "v": 88
    },
    {
      "midi": 58,
      "hit": false,
      "t": 133736.49000000054,
      "d": 132.88369791663717,
      "v": 88
    },
    {
      "midi": 44,
      "hit": false,
      "t": 133736.49000000054,
      "d": 327.0983333332988,
      "v": 61
    },
    {
      "midi": 55,
      "hit": false,
      "t": 134016.8600000005,
      "d": 106.5990104166558,
      "v": 88
    },
    {
      "midi": 63,
      "hit": false,
      "t": 134016.8600000005,
      "d": 118.28109375000349,
      "v": 88
    },
    {
      "midi": 60,
      "hit": false,
      "t": 134016.8600000005,
      "d": 122.66187499999069,
      "v": 88
    },
    {
      "midi": 58,
      "hit": false,
      "t": 134016.8600000005,
      "d": 128.50291666664998,
      "v": 88
    },
    {
      "midi": 45,
      "hit": false,
      "t": 134016.8600000005,
      "d": 274.52895833330695,
      "v": 56
    },
    {
      "midi": 55,
      "hit": false,
      "t": 134297.23000000048,
      "d": 81.77458333334653,
      "v": 88
    },
    {
      "midi": 60,
      "hit": false,
      "t": 134297.23000000048,
      "d": 106.5990104166849,
      "v": 88
    },
    {
      "midi": 58,
      "hit": false,
      "t": 134297.23000000048,
      "d": 122.66187500001979,
      "v": 88
    },
    {
      "midi": 63,
      "hit": false,
      "t": 134297.23000000048,
      "d": 144.56578125001397,
      "v": 88
    },
    {
      "midi": 46,
      "hit": false,
      "t": 134297.23000000048,
      "d": 344.621458333364,
      "v": 70
    },
    {
      "midi": 53,
      "hit": false,
      "t": 134577.6000000005,
      "d": 113.9003125000163,
      "v": 88
    },
    {
      "midi": 60,
      "hit": false,
      "t": 134577.6000000005,
      "d": 129.96317708335118,
      "v": 88
    },
    {
      "midi": 56,
      "hit": false,
      "t": 134577.6000000005,
      "d": 144.56578125001397,
      "v": 88
    },
    {
      "midi": 63,
      "hit": false,
      "t": 134577.6000000005,
      "d": 172.31072916666744,
      "v": 88
    },
    {
      "midi": 60,
      "hit": false,
      "t": 134857.9700000005,
      "d": 99.29770833332441,
      "v": 88
    },
    {
      "midi": 56,
      "hit": false,
      "t": 134857.9700000005,
      "d": 106.5990104166558,
      "v": 88
    },
    {
      "midi": 53,
      "hit": false,
      "t": 134857.9700000005,
      "d": 116.8208333333314,
      "v": 88
    },
    {
      "midi": 63,
      "hit": false,
      "t": 134857.9700000005,
      "d": 141.64526041666977,
      "v": 88
    },
    {
      "midi": 46,
      "hit": false,
      "t": 134857.9700000005,
      "d": 436.6178645832988,
      "v": 70
    },
    {
      "midi": 60,
      "hit": false,
      "t": 135138.3400000005,
      "d": 93.45666666666511,
      "v": 88
    },
    {
      "midi": 53,
      "hit": false,
      "t": 135138.3400000005,
      "d": 106.5990104166558,
      "v": 88
    },
    {
      "midi": 56,
      "hit": false,
      "t": 135138.3400000005,
      "d": 110.979791666643,
      "v": 88
    },
    {
      "midi": 63,
      "hit": false,
      "t": 135138.3400000005,
      "d": 148.94656249997206,
      "v": 88
    },
    {
      "midi": 53,
      "hit": false,
      "t": 135418.71000000046,
      "d": 109.51953125,
      "v": 88
    },
    {
      "midi": 56,
      "hit": false,
      "t": 135418.71000000046,
      "d": 116.8208333333314,
      "v": 88
    },
    {
      "midi": 60,
      "hit": false,
      "t": 135418.71000000046,
      "d": 125.58239583333489,
      "v": 88
    },
    {
      "midi": 63,
      "hit": false,
      "t": 135418.71000000046,
      "d": 141.64526041666977,
      "v": 88
    },
    {
      "midi": 46,
      "hit": false,
      "t": 135418.71000000046,
      "d": 397.19083333332674,
      "v": 52
    },
    {
      "midi": 56,
      "hit": false,
      "t": 135699.08000000045,
      "d": 90.53614583332092,
      "v": 88
    },
    {
      "midi": 53,
      "hit": false,
      "t": 135699.08000000045,
      "d": 106.5990104166558,
      "v": 88
    },
    {
      "midi": 60,
      "hit": false,
      "t": 135699.08000000045,
      "d": 122.66187499999069,
      "v": 88
    },
    {
      "midi": 63,
      "hit": false,
      "t": 135699.08000000045,
      "d": 129.96317708332208,
      "v": 88
    },
    {
      "midi": 53,
      "hit": false,
      "t": 135979.45000000045,
      "d": 109.51953125,
      "v": 88
    },
    {
      "midi": 56,
      "hit": false,
      "t": 135979.45000000045,
      "d": 109.51953125,
      "v": 88
    },
    {
      "midi": 60,
      "hit": false,
      "t": 135979.45000000045,
      "d": 116.8208333333314,
      "v": 88
    },
    {
      "midi": 63,
      "hit": false,
      "t": 135979.45000000045,
      "d": 146.02604166665697,
      "v": 88
    },
    {
      "midi": 46,
      "hit": false,
      "t": 135979.45000000045,
      "d": 151.86708333331626,
      "v": 61
    },
    {
      "midi": 56,
      "hit": false,
      "t": 136259.82000000044,
      "d": 94.91692708333721,
      "v": 88
    },
    {
      "midi": 53,
      "hit": false,
      "t": 136259.82000000044,
      "d": 102.2182291666686,
      "v": 88
    },
    {
      "midi": 60,
      "hit": false,
      "t": 136259.82000000044,
      "d": 102.2182291666686,
      "v": 88
    },
    {
      "midi": 63,
      "hit": false,
      "t": 136259.82000000044,
      "d": 129.96317708332208,
      "v": 88
    },
    {
      "midi": 46,
      "hit": false,
      "t": 136259.82000000044,
      "d": 165.00942708333605,
      "v": 37
    },
    {
      "midi": 48,
      "hit": false,
      "t": 136400.00500000044,
      "d": 188.37359375000233,
      "v": 56
    },
    {
      "midi": 60,
      "hit": false,
      "t": 136540.19000000044,
      "d": 78.85406250000233,
      "v": 88
    },
    {
      "midi": 56,
      "hit": false,
      "t": 136540.19000000044,
      "d": 83.23484374998952,
      "v": 88
    },
    {
      "midi": 53,
      "hit": false,
      "t": 136540.19000000044,
      "d": 97.83744791665231,
      "v": 88
    },
    {
      "midi": 63,
      "hit": false,
      "t": 136540.19000000044,
      "d": 122.66187499999069,
      "v": 88
    },
    {
      "midi": 51,
      "hit": false,
      "t": 136540.19000000044,
      "d": 281.83026041666744,
      "v": 48
    },
    {
      "midi": 60,
      "hit": false,
      "t": 136820.56000000043,
      "d": 109.51953125,
      "v": 88
    },
    {
      "midi": 58,
      "hit": false,
      "t": 136820.56000000043,
      "d": 118.28109375000349,
      "v": 88
    },
    {
      "midi": 55,
      "hit": false,
      "t": 136820.56000000043,
      "d": 128.50291666667908,
      "v": 88
    },
    {
      "midi": 63,
      "hit": false,
      "t": 136820.56000000043,
      "d": 157.70812500000466,
      "v": 88
    },
    {
      "midi": 39,
      "hit": false,
      "t": 136820.56000000043,
      "d": 595.7862500000338,
      "v": 99
    },
    {
      "midi": 60,
      "hit": false,
      "t": 137100.93000000043,
      "d": 105.1387500000128,
      "v": 88
    },
    {
      "midi": 55,
      "hit": false,
      "t": 137100.93000000043,
      "d": 128.50291666667908,
      "v": 88
    },
    {
      "midi": 58,
      "hit": false,
      "t": 137100.93000000043,
      "d": 128.50291666667908,
      "v": 88
    },
    {
      "midi": 63,
      "hit": false,
      "t": 137100.93000000043,
      "d": 144.56578125001397,
      "v": 88
    },
    {
      "midi": 55,
      "hit": false,
      "t": 137381.30000000045,
      "d": 106.5990104166849,
      "v": 88
    },
    {
      "midi": 60,
      "hit": false,
      "t": 137381.30000000045,
      "d": 110.9797916666721,
      "v": 88
    },
    {
      "midi": 58,
      "hit": false,
      "t": 137381.30000000045,
      "d": 125.58239583333489,
      "v": 88
    },
    {
      "midi": 63,
      "hit": false,
      "t": 137381.30000000045,
      "d": 125.58239583333489,
      "v": 88
    },
    {
      "midi": 55,
      "hit": false,
      "t": 137661.67000000045,
      "d": 99.29770833332441,
      "v": 88
    },
    {
      "midi": 60,
      "hit": false,
      "t": 137661.67000000045,
      "d": 110.9797916666721,
      "v": 88
    },
    {
      "midi": 58,
      "hit": false,
      "t": 137661.67000000045,
      "d": 129.96317708335118,
      "v": 88
    },
    {
      "midi": 63,
      "hit": false,
      "t": 137661.67000000045,
      "d": 129.96317708335118,
      "v": 88
    },
    {
      "midi": 39,
      "hit": false,
      "t": 137661.67000000045,
      "d": 251.16479166669887,
      "v": 86
    },
    {
      "midi": 55,
      "hit": false,
      "t": 137942.04000000047,
      "d": 109.51953125,
      "v": 88
    },
    {
      "midi": 58,
      "hit": false,
      "t": 137942.04000000047,
      "d": 113.9003124999872,
      "v": 88
    },
    {
      "midi": 60,
      "hit": false,
      "t": 137942.04000000047,
      "d": 113.9003124999872,
      "v": 88
    },
    {
      "midi": 63,
      "hit": false,
      "t": 137942.04000000047,
      "d": 140.18499999999767,
      "v": 88
    },
    {
      "midi": 43,
      "hit": false,
      "t": 137942.04000000047,
      "d": 297.8931250000023,
      "v": 48
    },
    {
      "midi": 55,
      "hit": false,
      "t": 138222.41000000047,
      "d": 105.1387500000128,
      "v": 88
    },
    {
      "midi": 60,
      "hit": false,
      "t": 138222.41000000047,
      "d": 116.8208333333605,
      "v": 88
    },
    {
      "midi": 63,
      "hit": false,
      "t": 138222.41000000047,
      "d": 116.8208333333605,
      "v": 88
    },
    {
      "midi": 58,
      "hit": false,
      "t": 138222.41000000047,
      "d": 132.88369791669538,
      "v": 88
    },
    {
      "midi": 44,
      "hit": false,
      "t": 138222.41000000047,
      "d": 292.05208333337214,
      "v": 70
    },
    {
      "midi": 55,
      "hit": false,
      "t": 138502.7800000005,
      "d": 105.1387500000128,
      "v": 88
    },
    {
      "midi": 60,
      "hit": false,
      "t": 138502.7800000005,
      "d": 105.1387500000128,
      "v": 88
    },
    {
      "midi": 63,
      "hit": false,
      "t": 138502.7800000005,
      "d": 118.28109375000349,
      "v": 88
    },
    {
      "midi": 58,
      "hit": false,
      "t": 138502.7800000005,
      "d": 128.50291666667908,
      "v": 88
    },
    {
      "midi": 45,
      "hit": false,
      "t": 138502.7800000005,
      "d": 338.7804166667047,
      "v": 42
    },
    {
      "midi": 55,
      "hit": false,
      "t": 138783.15000000052,
      "d": 81.77458333334653,
      "v": 88
    },
    {
      "midi": 60,
      "hit": false,
      "t": 138783.15000000052,
      "d": 106.5990104166849,
      "v": 88
    },
    {
      "midi": 58,
      "hit": false,
      "t": 138783.15000000052,
      "d": 122.66187500001979,
      "v": 88
    },
    {
      "midi": 63,
      "hit": false,
      "t": 138783.15000000052,
      "d": 144.56578125001397,
      "v": 88
    },
    {
      "midi": 46,
      "hit": false,
      "t": 138783.15000000052,
      "d": 378.20744791667676,
      "v": 77
    },
    {
      "midi": 53,
      "hit": false,
      "t": 139063.52000000054,
      "d": 113.9003124999872,
      "v": 88
    },
    {
      "midi": 60,
      "hit": false,
      "t": 139063.52000000054,
      "d": 129.96317708332208,
      "v": 88
    },
    {
      "midi": 56,
      "hit": false,
      "t": 139063.52000000054,
      "d": 144.56578124998487,
      "v": 88
    },
    {
      "midi": 63,
      "hit": false,
      "t": 139063.52000000054,
      "d": 172.31072916663834,
      "v": 88
    },
    {
      "midi": 60,
      "hit": false,
      "t": 139343.8900000005,
      "d": 99.29770833332441,
      "v": 88
    },
    {
      "midi": 56,
      "hit": false,
      "t": 139343.8900000005,
      "d": 106.5990104166558,
      "v": 88
    },
    {
      "midi": 53,
      "hit": false,
      "t": 139343.8900000005,
      "d": 118.28109375000349,
      "v": 88
    },
    {
      "midi": 63,
      "hit": false,
      "t": 139343.8900000005,
      "d": 141.64526041666977,
      "v": 88
    },
    {
      "midi": 46,
      "hit": false,
      "t": 139343.8900000005,
      "d": 319.7970312499965,
      "v": 70
    },
    {
      "midi": 60,
      "hit": false,
      "t": 139624.2600000005,
      "d": 93.45666666666511,
      "v": 88
    },
    {
      "midi": 56,
      "hit": false,
      "t": 139624.2600000005,
      "d": 110.9797916666721,
      "v": 88
    },
    {
      "midi": 53,
      "hit": false,
      "t": 139624.2600000005,
      "d": 128.50291666667908,
      "v": 88
    },
    {
      "midi": 63,
      "hit": false,
      "t": 139624.2600000005,
      "d": 148.94656250000116,
      "v": 88
    },
    {
      "midi": 53,
      "hit": false,
      "t": 139904.6300000005,
      "d": 110.9797916666721,
      "v": 88
    },
    {
      "midi": 56,
      "hit": false,
      "t": 139904.6300000005,
      "d": 116.8208333333314,
      "v": 88
    },
    {
      "midi": 60,
      "hit": false,
      "t": 139904.6300000005,
      "d": 125.58239583333489,
      "v": 88
    },
    {
      "midi": 63,
      "hit": false,
      "t": 139904.6300000005,
      "d": 141.64526041666977,
      "v": 88
    },
    {
      "midi": 46,
      "hit": false,
      "t": 139904.6300000005,
      "d": 335.8598958333314,
      "v": 48
    },
    {
      "midi": 56,
      "hit": false,
      "t": 140185.0000000005,
      "d": 90.53614583335002,
      "v": 88
    },
    {
      "midi": 53,
      "hit": false,
      "t": 140185.0000000005,
      "d": 116.8208333333605,
      "v": 88
    },
    {
      "midi": 60,
      "hit": false,
      "t": 140185.0000000005,
      "d": 122.66187500001979,
      "v": 88
    },
    {
      "midi": 63,
      "hit": false,
      "t": 140185.0000000005,
      "d": 129.96317708335118,
      "v": 88
    },
    {
      "midi": 53,
      "hit": false,
      "t": 140465.37000000052,
      "d": 105.1387500000128,
      "v": 88
    },
    {
      "midi": 56,
      "hit": false,
      "t": 140465.37000000052,
      "d": 109.51953125,
      "v": 88
    },
    {
      "midi": 60,
      "hit": false,
      "t": 140465.37000000052,
      "d": 116.8208333333314,
      "v": 88
    },
    {
      "midi": 46,
      "hit": false,
      "t": 140465.37000000052,
      "d": 146.02604166665697,
      "v": 70
    },
    {
      "midi": 63,
      "hit": false,
      "t": 140465.37000000052,
      "d": 146.02604166665697,
      "v": 88
    },
    {
      "midi": 56,
      "hit": false,
      "t": 140745.74000000051,
      "d": 94.91692708333721,
      "v": 88
    },
    {
      "midi": 53,
      "hit": false,
      "t": 140745.74000000051,
      "d": 102.2182291666686,
      "v": 88
    },
    {
      "midi": 60,
      "hit": false,
      "t": 140745.74000000051,
      "d": 102.2182291666686,
      "v": 88
    },
    {
      "midi": 63,
      "hit": false,
      "t": 140745.74000000051,
      "d": 129.96317708332208,
      "v": 88
    },
    {
      "midi": 46,
      "hit": false,
      "t": 140745.74000000051,
      "d": 160.62864583331975,
      "v": 60
    },
    {
      "midi": 48,
      "hit": false,
      "t": 140885.9250000005,
      "d": 144.56578124998487,
      "v": 48
    },
    {
      "midi": 60,
      "hit": false,
      "t": 141026.1100000005,
      "d": 78.85406249997322,
      "v": 88
    },
    {
      "midi": 56,
      "hit": false,
      "t": 141026.1100000005,
      "d": 83.23484374996042,
      "v": 88
    },
    {
      "midi": 53,
      "hit": false,
      "t": 141026.1100000005,
      "d": 90.53614583329181,
      "v": 88
    },
    {
      "midi": 63,
      "hit": false,
      "t": 141026.1100000005,
      "d": 122.66187499996158,
      "v": 88
    },
    {
      "midi": 51,
      "hit": false,
      "t": 141026.1100000005,
      "d": 179.61203124996973,
      "v": 52
    },
    {
      "midi": 55,
      "hit": false,
      "t": 141306.48000000048,
      "d": 93.45666666666511,
      "v": 88
    },
    {
      "midi": 60,
      "hit": false,
      "t": 141306.48000000048,
      "d": 105.1387500000128,
      "v": 88
    },
    {
      "midi": 58,
      "hit": false,
      "t": 141306.48000000048,
      "d": 134.34395833333838,
      "v": 88
    },
    {
      "midi": 63,
      "hit": false,
      "t": 141306.48000000048,
      "d": 144.56578125001397,
      "v": 88
    },
    {
      "midi": 39,
      "hit": false,
      "t": 141306.48000000048,
      "d": 639.5940625000221,
      "v": 99
    },
    {
      "midi": 60,
      "hit": false,
      "t": 141586.8500000005,
      "d": 109.51953125,
      "v": 88
    },
    {
      "midi": 55,
      "hit": false,
      "t": 141586.8500000005,
      "d": 132.88369791666628,
      "v": 88
    },
    {
      "midi": 58,
      "hit": false,
      "t": 141586.8500000005,
      "d": 141.64526041666977,
      "v": 88
    },
    {
      "midi": 63,
      "hit": false,
      "t": 141586.8500000005,
      "d": 141.64526041666977,
      "v": 88
    },
    {
      "midi": 55,
      "hit": false,
      "t": 141867.2200000005,
      "d": 110.9797916666721,
      "v": 88
    },
    {
      "midi": 60,
      "hit": false,
      "t": 141867.2200000005,
      "d": 110.9797916666721,
      "v": 88
    },
    {
      "midi": 58,
      "hit": false,
      "t": 141867.2200000005,
      "d": 132.88369791666628,
      "v": 88
    },
    {
      "midi": 63,
      "hit": false,
      "t": 141867.2200000005,
      "d": 132.88369791666628,
      "v": 88
    },
    {
      "midi": 60,
      "hit": false,
      "t": 142147.5900000005,
      "d": 102.2182291666686,
      "v": 88
    },
    {
      "midi": 55,
      "hit": false,
      "t": 142147.5900000005,
      "d": 134.34395833333838,
      "v": 88
    },
    {
      "midi": 63,
      "hit": false,
      "t": 142147.5900000005,
      "d": 141.64526041666977,
      "v": 88
    },
    {
      "midi": 58,
      "hit": false,
      "t": 142147.5900000005,
      "d": 151.86708333334536,
      "v": 88
    },
    {
      "midi": 39,
      "hit": false,
      "t": 142147.5900000005,
      "d": 262.84687500001746,
      "v": 99
    },
    {
      "midi": 55,
      "hit": false,
      "t": 142427.96000000052,
      "d": 94.91692708333721,
      "v": 88
    },
    {
      "midi": 60,
      "hit": false,
      "t": 142427.96000000052,
      "d": 106.5990104166849,
      "v": 88
    },
    {
      "midi": 58,
      "hit": false,
      "t": 142427.96000000052,
      "d": 122.66187500001979,
      "v": 88
    },
    {
      "midi": 63,
      "hit": false,
      "t": 142427.96000000052,
      "d": 129.96317708335118,
      "v": 88
    },
    {
      "midi": 43,
      "hit": false,
      "t": 142427.96000000052,
      "d": 296.43286458335933,
      "v": 45
    },
    {
      "midi": 55,
      "hit": false,
      "t": 142708.33000000054,
      "d": 86.15536458333372,
      "v": 88
    },
    {
      "midi": 60,
      "hit": false,
      "t": 142708.33000000054,
      "d": 113.9003124999872,
      "v": 88
    },
    {
      "midi": 63,
      "hit": false,
      "t": 142708.33000000054,
      "d": 121.20161458331859,
      "v": 88
    },
    {
      "midi": 58,
      "hit": false,
      "t": 142708.33000000054,
      "d": 141.64526041664067,
      "v": 88
    },
    {
      "midi": 44,
      "hit": false,
      "t": 142708.33000000054,
      "d": 292.05208333331393,
      "v": 70
    },
    {
      "midi": 55,
      "hit": false,
      "t": 142988.7000000005,
      "d": 99.29770833335351,
      "v": 88
    },
    {
      "midi": 60,
      "hit": false,
      "t": 142988.7000000005,
      "d": 109.5195312500291,
      "v": 88
    },
    {
      "midi": 58,
      "hit": false,
      "t": 142988.7000000005,
      "d": 144.56578125004307,
      "v": 88
    },
    {
      "midi": 63,
      "hit": false,
      "t": 142988.7000000005,
      "d": 144.56578125004307,
      "v": 88
    },
    {
      "midi": 45,
      "hit": false,
      "t": 142988.7000000005,
      "d": 321.2572916667268,
      "v": 48
    },
    {
      "midi": 58,
      "hit": false,
      "t": 143269.07000000056,
      "d": 87.61562500000582,
      "v": 88
    },
    {
      "midi": 55,
      "hit": false,
      "t": 143269.07000000056,
      "d": 97.83744791668141,
      "v": 88
    },
    {
      "midi": 60,
      "hit": false,
      "t": 143269.07000000056,
      "d": 109.5195312500291,
      "v": 88
    },
    {
      "midi": 63,
      "hit": false,
      "t": 143269.07000000056,
      "d": 137.26447916668258,
      "v": 88
    },
    {
      "midi": 46,
      "hit": false,
      "t": 143269.07000000056,
      "d": 398.65109375002794,
      "v": 60
    },
    {
      "midi": 53,
      "hit": false,
      "t": 143549.44000000058,
      "d": 118.28109375000349,
      "v": 88
    },
    {
      "midi": 60,
      "hit": false,
      "t": 143549.44000000058,
      "d": 125.58239583333489,
      "v": 88
    },
    {
      "midi": 56,
      "hit": false,
      "t": 143549.44000000058,
      "d": 129.96317708332208,
      "v": 88
    },
    {
      "midi": 63,
      "hit": false,
      "t": 143549.44000000058,
      "d": 167.92994791665114,
      "v": 88
    },
    {
      "midi": 56,
      "hit": false,
      "t": 143829.81000000058,
      "d": 105.1387500000128,
      "v": 88
    },
    {
      "midi": 53,
      "hit": false,
      "t": 143829.81000000058,
      "d": 109.51953125,
      "v": 88
    },
    {
      "midi": 60,
      "hit": false,
      "t": 143829.81000000058,
      "d": 118.28109375000349,
      "v": 88
    },
    {
      "midi": 63,
      "hit": false,
      "t": 143829.81000000058,
      "d": 140.18499999999767,
      "v": 88
    },
    {
      "midi": 46,
      "hit": false,
      "t": 143829.81000000058,
      "d": 331.4791145833151,
      "v": 39
    },
    {
      "midi": 56,
      "hit": false,
      "t": 144110.18000000058,
      "d": 87.61562499997672,
      "v": 88
    },
    {
      "midi": 60,
      "hit": false,
      "t": 144110.18000000058,
      "d": 102.2182291666395,
      "v": 88
    },
    {
      "midi": 53,
      "hit": false,
      "t": 144110.18000000058,
      "d": 110.979791666643,
      "v": 88
    },
    {
      "midi": 63,
      "hit": false,
      "t": 144110.18000000058,
      "d": 153.32734374998836,
      "v": 88
    },
    {
      "midi": 53,
      "hit": false,
      "t": 144390.55000000057,
      "d": 110.9797916666721,
      "v": 88
    },
    {
      "midi": 56,
      "hit": false,
      "t": 144390.55000000057,
      "d": 110.9797916666721,
      "v": 88
    },
    {
      "midi": 60,
      "hit": false,
      "t": 144390.55000000057,
      "d": 125.58239583333489,
      "v": 88
    },
    {
      "midi": 63,
      "hit": false,
      "t": 144390.55000000057,
      "d": 156.24786458333256,
      "v": 88
    },
    {
      "midi": 46,
      "hit": false,
      "t": 144390.55000000057,
      "d": 340.2406770833186,
      "v": 61
    },
    {
      "midi": 60,
      "hit": false,
      "t": 144670.92000000057,
      "d": 102.2182291666686,
      "v": 88
    },
    {
      "midi": 53,
      "hit": false,
      "t": 144670.92000000057,
      "d": 106.5990104166558,
      "v": 88
    },
    {
      "midi": 56,
      "hit": false,
      "t": 144670.92000000057,
      "d": 106.5990104166558,
      "v": 88
    },
    {
      "midi": 63,
      "hit": false,
      "t": 144670.92000000057,
      "d": 141.64526041666977,
      "v": 88
    },
    {
      "midi": 53,
      "hit": false,
      "t": 144951.29000000056,
      "d": 99.29770833332441,
      "v": 88
    },
    {
      "midi": 56,
      "hit": false,
      "t": 144951.29000000056,
      "d": 105.1387499999837,
      "v": 88
    },
    {
      "midi": 60,
      "hit": false,
      "t": 144951.29000000056,
      "d": 116.8208333333314,
      "v": 88
    },
    {
      "midi": 63,
      "hit": false,
      "t": 144951.29000000056,
      "d": 151.86708333334536,
      "v": 88
    },
    {
      "midi": 46,
      "hit": false,
      "t": 144951.29000000056,
      "d": 169.39020833335235,
      "v": 70
    },
    {
      "midi": 53,
      "hit": false,
      "t": 145231.6600000006,
      "d": 99.29770833332441,
      "v": 88
    },
    {
      "midi": 60,
      "hit": false,
      "t": 145231.6600000006,
      "d": 113.9003124999872,
      "v": 88
    },
    {
      "midi": 56,
      "hit": false,
      "t": 145231.6600000006,
      "d": 128.50291666664998,
      "v": 88
    },
    {
      "midi": 46,
      "hit": false,
      "t": 145231.6600000006,
      "d": 146.02604166665697,
      "v": 56
    },
    {
      "midi": 63,
      "hit": false,
      "t": 145231.6600000006,
      "d": 163.54916666666395,
      "v": 88
    },
    {
      "midi": 48,
      "hit": false,
      "t": 145371.84500000058,
      "d": 148.94656250000116,
      "v": 56
    },
    {
      "midi": 56,
      "hit": false,
      "t": 145512.03000000058,
      "d": 86.15536458333372,
      "v": 88
    },
    {
      "midi": 53,
      "hit": false,
      "t": 145512.03000000058,
      "d": 97.83744791668141,
      "v": 88
    },
    {
      "midi": 60,
      "hit": false,
      "t": 145512.03000000058,
      "d": 97.83744791668141,
      "v": 88
    },
    {
      "midi": 63,
      "hit": false,
      "t": 145512.03000000058,
      "d": 169.39020833335235,
      "v": 88
    },
    {
      "midi": 51,
      "hit": false,
      "t": 145512.03000000058,
      "d": 273.06869791669305,
      "v": 52
    },
    {
      "midi": 60,
      "hit": false,
      "t": 145792.4000000006,
      "d": 99.29770833332441,
      "v": 88
    },
    {
      "midi": 58,
      "hit": false,
      "t": 145792.4000000006,
      "d": 118.28109375000349,
      "v": 88
    },
    {
      "midi": 55,
      "hit": false,
      "t": 145792.4000000006,
      "d": 128.50291666667908,
      "v": 88
    },
    {
      "midi": 63,
      "hit": false,
      "t": 145792.4000000006,
      "d": 157.70812500000466,
      "v": 88
    },
    {
      "midi": 39,
      "hit": false,
      "t": 145792.4000000006,
      "d": 595.7862500000338,
      "v": 70
    },
    {
      "midi": 60,
      "hit": false,
      "t": 146072.7700000006,
      "d": 102.2182291666686,
      "v": 88
    },
    {
      "midi": 55,
      "hit": false,
      "t": 146072.7700000006,
      "d": 128.50291666667908,
      "v": 88
    },
    {
      "midi": 58,
      "hit": false,
      "t": 146072.7700000006,
      "d": 128.50291666667908,
      "v": 88
    },
    {
      "midi": 63,
      "hit": false,
      "t": 146072.7700000006,
      "d": 144.56578125001397,
      "v": 88
    },
    {
      "midi": 55,
      "hit": false,
      "t": 146353.14000000063,
      "d": 106.5990104166849,
      "v": 88
    },
    {
      "midi": 60,
      "hit": false,
      "t": 146353.14000000063,
      "d": 106.5990104166849,
      "v": 88
    },
    {
      "midi": 58,
      "hit": false,
      "t": 146353.14000000063,
      "d": 125.58239583336399,
      "v": 88
    },
    {
      "midi": 63,
      "hit": false,
      "t": 146353.14000000063,
      "d": 125.58239583336399,
      "v": 88
    },
    {
      "midi": 55,
      "hit": false,
      "t": 146633.51000000065,
      "d": 99.29770833332441,
      "v": 88
    },
    {
      "midi": 60,
      "hit": false,
      "t": 146633.51000000065,
      "d": 109.51953125,
      "v": 88
    },
    {
      "midi": 58,
      "hit": false,
      "t": 146633.51000000065,
      "d": 129.96317708332208,
      "v": 88
    },
    {
      "midi": 63,
      "hit": false,
      "t": 146633.51000000065,
      "d": 129.96317708332208,
      "v": 88
    },
    {
      "midi": 39,
      "hit": false,
      "t": 146633.51000000065,
      "d": 223.4198437499872,
      "v": 70
    },
    {
      "midi": 55,
      "hit": false,
      "t": 146913.88000000064,
      "d": 109.51953125,
      "v": 88
    },
    {
      "midi": 58,
      "hit": false,
      "t": 146913.88000000064,
      "d": 116.8208333333314,
      "v": 88
    },
    {
      "midi": 60,
      "hit": false,
      "t": 146913.88000000064,
      "d": 116.8208333333314,
      "v": 88
    },
    {
      "midi": 63,
      "hit": false,
      "t": 146913.88000000064,
      "d": 140.18499999999767,
      "v": 88
    },
    {
      "midi": 43,
      "hit": false,
      "t": 146913.88000000064,
      "d": 293.51234374998603,
      "v": 48
    },
    {
      "midi": 55,
      "hit": false,
      "t": 147194.25000000064,
      "d": 105.1387499999837,
      "v": 88
    },
    {
      "midi": 60,
      "hit": false,
      "t": 147194.25000000064,
      "d": 113.9003124999872,
      "v": 88
    },
    {
      "midi": 63,
      "hit": false,
      "t": 147194.25000000064,
      "d": 118.28109374997439,
      "v": 88
    },
    {
      "midi": 58,
      "hit": false,
      "t": 147194.25000000064,
      "d": 132.88369791663717,
      "v": 88
    },
    {
      "midi": 44,
      "hit": false,
      "t": 147194.25000000064,
      "d": 327.0983333332988,
      "v": 61
    },
    {
      "midi": 55,
      "hit": false,
      "t": 147474.6200000006,
      "d": 106.5990104166558,
      "v": 88
    },
    {
      "midi": 63,
      "hit": false,
      "t": 147474.6200000006,
      "d": 118.28109375000349,
      "v": 88
    },
    {
      "midi": 60,
      "hit": false,
      "t": 147474.6200000006,
      "d": 122.66187499999069,
      "v": 88
    },
    {
      "midi": 58,
      "hit": false,
      "t": 147474.6200000006,
      "d": 128.50291666664998,
      "v": 88
    },
    {
      "midi": 45,
      "hit": false,
      "t": 147474.6200000006,
      "d": 274.52895833330695,
      "v": 56
    },
    {
      "midi": 55,
      "hit": false,
      "t": 147754.99000000057,
      "d": 81.77458333334653,
      "v": 88
    },
    {
      "midi": 60,
      "hit": false,
      "t": 147754.99000000057,
      "d": 106.5990104166849,
      "v": 88
    },
    {
      "midi": 58,
      "hit": false,
      "t": 147754.99000000057,
      "d": 122.66187500001979,
      "v": 88
    },
    {
      "midi": 63,
      "hit": false,
      "t": 147754.99000000057,
      "d": 144.56578125001397,
      "v": 88
    },
    {
      "midi": 46,
      "hit": false,
      "t": 147754.99000000057,
      "d": 344.621458333364,
      "v": 70
    },
    {
      "midi": 53,
      "hit": false,
      "t": 148035.3600000006,
      "d": 113.9003125000163,
      "v": 88
    },
    {
      "midi": 60,
      "hit": false,
      "t": 148035.3600000006,
      "d": 129.96317708335118,
      "v": 88
    },
    {
      "midi": 56,
      "hit": false,
      "t": 148035.3600000006,
      "d": 144.56578125001397,
      "v": 88
    },
    {
      "midi": 63,
      "hit": false,
      "t": 148035.3600000006,
      "d": 172.31072916666744,
      "v": 88
    },
    {
      "midi": 60,
      "hit": false,
      "t": 148315.7300000006,
      "d": 99.29770833332441,
      "v": 88
    },
    {
      "midi": 56,
      "hit": false,
      "t": 148315.7300000006,
      "d": 106.5990104166558,
      "v": 88
    },
    {
      "midi": 53,
      "hit": false,
      "t": 148315.7300000006,
      "d": 116.8208333333314,
      "v": 88
    },
    {
      "midi": 63,
      "hit": false,
      "t": 148315.7300000006,
      "d": 141.64526041666977,
      "v": 88
    },
    {
      "midi": 46,
      "hit": false,
      "t": 148315.7300000006,
      "d": 436.6178645832988,
      "v": 70
    },
    {
      "midi": 60,
      "hit": false,
      "t": 148596.1000000006,
      "d": 93.45666666666511,
      "v": 88
    },
    {
      "midi": 53,
      "hit": false,
      "t": 148596.1000000006,
      "d": 106.5990104166558,
      "v": 88
    },
    {
      "midi": 56,
      "hit": false,
      "t": 148596.1000000006,
      "d": 110.979791666643,
      "v": 88
    },
    {
      "midi": 63,
      "hit": false,
      "t": 148596.1000000006,
      "d": 148.94656249997206,
      "v": 88
    },
    {
      "midi": 53,
      "hit": false,
      "t": 148876.47000000055,
      "d": 109.51953125,
      "v": 88
    },
    {
      "midi": 56,
      "hit": false,
      "t": 148876.47000000055,
      "d": 116.8208333333314,
      "v": 88
    },
    {
      "midi": 60,
      "hit": false,
      "t": 148876.47000000055,
      "d": 125.58239583333489,
      "v": 88
    },
    {
      "midi": 63,
      "hit": false,
      "t": 148876.47000000055,
      "d": 141.64526041666977,
      "v": 88
    },
    {
      "midi": 46,
      "hit": false,
      "t": 148876.47000000055,
      "d": 397.19083333332674,
      "v": 52
    },
    {
      "midi": 56,
      "hit": false,
      "t": 149156.84000000055,
      "d": 90.53614583332092,
      "v": 88
    },
    {
      "midi": 53,
      "hit": false,
      "t": 149156.84000000055,
      "d": 106.5990104166558,
      "v": 88
    },
    {
      "midi": 60,
      "hit": false,
      "t": 149156.84000000055,
      "d": 122.66187499999069,
      "v": 88
    },
    {
      "midi": 63,
      "hit": false,
      "t": 149156.84000000055,
      "d": 129.96317708332208,
      "v": 88
    },
    {
      "midi": 53,
      "hit": false,
      "t": 149437.21000000054,
      "d": 109.51953125,
      "v": 88
    },
    {
      "midi": 56,
      "hit": false,
      "t": 149437.21000000054,
      "d": 109.51953125,
      "v": 88
    },
    {
      "midi": 60,
      "hit": false,
      "t": 149437.21000000054,
      "d": 116.8208333333314,
      "v": 88
    },
    {
      "midi": 63,
      "hit": false,
      "t": 149437.21000000054,
      "d": 146.02604166665697,
      "v": 88
    },
    {
      "midi": 46,
      "hit": false,
      "t": 149437.21000000054,
      "d": 151.86708333331626,
      "v": 61
    },
    {
      "midi": 56,
      "hit": false,
      "t": 149717.58000000054,
      "d": 94.91692708333721,
      "v": 88
    },
    {
      "midi": 53,
      "hit": false,
      "t": 149717.58000000054,
      "d": 102.2182291666686,
      "v": 88
    },
    {
      "midi": 60,
      "hit": false,
      "t": 149717.58000000054,
      "d": 102.2182291666686,
      "v": 88
    },
    {
      "midi": 63,
      "hit": false,
      "t": 149717.58000000054,
      "d": 129.96317708332208,
      "v": 88
    },
    {
      "midi": 46,
      "hit": false,
      "t": 149717.58000000054,
      "d": 165.00942708333605,
      "v": 37
    },
    {
      "midi": 48,
      "hit": false,
      "t": 149857.76500000054,
      "d": 188.37359375000233,
      "v": 56
    },
    {
      "midi": 60,
      "hit": false,
      "t": 149997.95000000054,
      "d": 78.85406250000233,
      "v": 88
    },
    {
      "midi": 56,
      "hit": false,
      "t": 149997.95000000054,
      "d": 83.23484374998952,
      "v": 88
    },
    {
      "midi": 53,
      "hit": false,
      "t": 149997.95000000054,
      "d": 97.83744791665231,
      "v": 88
    },
    {
      "midi": 63,
      "hit": false,
      "t": 149997.95000000054,
      "d": 122.66187499999069,
      "v": 88
    },
    {
      "midi": 51,
      "hit": false,
      "t": 149997.95000000054,
      "d": 281.83026041666744,
      "v": 48
    },
    {
      "midi": 60,
      "hit": false,
      "t": 150278.32000000053,
      "d": 109.51953125,
      "v": 88
    },
    {
      "midi": 58,
      "hit": false,
      "t": 150278.32000000053,
      "d": 118.28109375000349,
      "v": 88
    },
    {
      "midi": 55,
      "hit": false,
      "t": 150278.32000000053,
      "d": 128.50291666667908,
      "v": 88
    },
    {
      "midi": 63,
      "hit": false,
      "t": 150278.32000000053,
      "d": 157.70812500000466,
      "v": 88
    },
    {
      "midi": 39,
      "hit": false,
      "t": 150278.32000000053,
      "d": 595.7862500000338,
      "v": 99
    },
    {
      "midi": 60,
      "hit": false,
      "t": 150558.69000000053,
      "d": 105.1387500000128,
      "v": 88
    },
    {
      "midi": 55,
      "hit": false,
      "t": 150558.69000000053,
      "d": 128.50291666667908,
      "v": 88
    },
    {
      "midi": 58,
      "hit": false,
      "t": 150558.69000000053,
      "d": 128.50291666667908,
      "v": 88
    },
    {
      "midi": 63,
      "hit": false,
      "t": 150558.69000000053,
      "d": 144.56578125001397,
      "v": 88
    },
    {
      "midi": 55,
      "hit": false,
      "t": 150839.06000000055,
      "d": 106.5990104166849,
      "v": 88
    },
    {
      "midi": 60,
      "hit": false,
      "t": 150839.06000000055,
      "d": 110.9797916666721,
      "v": 88
    },
    {
      "midi": 58,
      "hit": false,
      "t": 150839.06000000055,
      "d": 125.58239583333489,
      "v": 88
    },
    {
      "midi": 63,
      "hit": false,
      "t": 150839.06000000055,
      "d": 125.58239583333489,
      "v": 88
    },
    {
      "midi": 55,
      "hit": false,
      "t": 151119.43000000055,
      "d": 99.29770833332441,
      "v": 88
    },
    {
      "midi": 60,
      "hit": false,
      "t": 151119.43000000055,
      "d": 110.9797916666721,
      "v": 88
    },
    {
      "midi": 58,
      "hit": false,
      "t": 151119.43000000055,
      "d": 129.96317708335118,
      "v": 88
    },
    {
      "midi": 63,
      "hit": false,
      "t": 151119.43000000055,
      "d": 129.96317708335118,
      "v": 88
    },
    {
      "midi": 39,
      "hit": false,
      "t": 151119.43000000055,
      "d": 251.16479166669887,
      "v": 86
    },
    {
      "midi": 55,
      "hit": false,
      "t": 151399.80000000057,
      "d": 109.51953125,
      "v": 88
    },
    {
      "midi": 58,
      "hit": false,
      "t": 151399.80000000057,
      "d": 113.9003124999872,
      "v": 88
    },
    {
      "midi": 60,
      "hit": false,
      "t": 151399.80000000057,
      "d": 113.9003124999872,
      "v": 88
    },
    {
      "midi": 63,
      "hit": false,
      "t": 151399.80000000057,
      "d": 140.18499999999767,
      "v": 88
    },
    {
      "midi": 43,
      "hit": false,
      "t": 151399.80000000057,
      "d": 297.8931250000023,
      "v": 48
    },
    {
      "midi": 55,
      "hit": false,
      "t": 151680.17000000057,
      "d": 105.1387500000128,
      "v": 88
    },
    {
      "midi": 60,
      "hit": false,
      "t": 151680.17000000057,
      "d": 116.8208333333605,
      "v": 88
    },
    {
      "midi": 63,
      "hit": false,
      "t": 151680.17000000057,
      "d": 116.8208333333605,
      "v": 88
    },
    {
      "midi": 58,
      "hit": false,
      "t": 151680.17000000057,
      "d": 132.88369791669538,
      "v": 88
    },
    {
      "midi": 44,
      "hit": false,
      "t": 151680.17000000057,
      "d": 292.05208333337214,
      "v": 70
    },
    {
      "midi": 55,
      "hit": false,
      "t": 151960.5400000006,
      "d": 105.1387500000128,
      "v": 88
    },
    {
      "midi": 60,
      "hit": false,
      "t": 151960.5400000006,
      "d": 105.1387500000128,
      "v": 88
    },
    {
      "midi": 63,
      "hit": false,
      "t": 151960.5400000006,
      "d": 118.28109375000349,
      "v": 88
    },
    {
      "midi": 58,
      "hit": false,
      "t": 151960.5400000006,
      "d": 128.50291666667908,
      "v": 88
    },
    {
      "midi": 45,
      "hit": false,
      "t": 151960.5400000006,
      "d": 338.7804166667047,
      "v": 42
    },
    {
      "midi": 55,
      "hit": false,
      "t": 152240.91000000061,
      "d": 81.77458333334653,
      "v": 88
    },
    {
      "midi": 60,
      "hit": false,
      "t": 152240.91000000061,
      "d": 106.5990104166849,
      "v": 88
    },
    {
      "midi": 58,
      "hit": false,
      "t": 152240.91000000061,
      "d": 122.66187500001979,
      "v": 88
    },
    {
      "midi": 63,
      "hit": false,
      "t": 152240.91000000061,
      "d": 144.56578125001397,
      "v": 88
    },
    {
      "midi": 46,
      "hit": false,
      "t": 152240.91000000061,
      "d": 378.20744791667676,
      "v": 77
    },
    {
      "midi": 53,
      "hit": false,
      "t": 152521.28000000064,
      "d": 113.9003124999872,
      "v": 88
    },
    {
      "midi": 60,
      "hit": false,
      "t": 152521.28000000064,
      "d": 129.96317708332208,
      "v": 88
    },
    {
      "midi": 56,
      "hit": false,
      "t": 152521.28000000064,
      "d": 144.56578124998487,
      "v": 88
    },
    {
      "midi": 63,
      "hit": false,
      "t": 152521.28000000064,
      "d": 172.31072916663834,
      "v": 88
    },
    {
      "midi": 60,
      "hit": false,
      "t": 152801.6500000006,
      "d": 99.29770833332441,
      "v": 88
    },
    {
      "midi": 56,
      "hit": false,
      "t": 152801.6500000006,
      "d": 106.5990104166558,
      "v": 88
    },
    {
      "midi": 53,
      "hit": false,
      "t": 152801.6500000006,
      "d": 118.28109375000349,
      "v": 88
    },
    {
      "midi": 63,
      "hit": false,
      "t": 152801.6500000006,
      "d": 141.64526041666977,
      "v": 88
    },
    {
      "midi": 46,
      "hit": false,
      "t": 152801.6500000006,
      "d": 319.7970312499965,
      "v": 70
    },
    {
      "midi": 60,
      "hit": false,
      "t": 153082.0200000006,
      "d": 93.45666666666511,
      "v": 88
    },
    {
      "midi": 56,
      "hit": false,
      "t": 153082.0200000006,
      "d": 110.9797916666721,
      "v": 88
    },
    {
      "midi": 53,
      "hit": false,
      "t": 153082.0200000006,
      "d": 128.50291666667908,
      "v": 88
    },
    {
      "midi": 63,
      "hit": false,
      "t": 153082.0200000006,
      "d": 148.94656250000116,
      "v": 88
    },
    {
      "midi": 53,
      "hit": false,
      "t": 153362.3900000006,
      "d": 110.9797916666721,
      "v": 88
    },
    {
      "midi": 56,
      "hit": false,
      "t": 153362.3900000006,
      "d": 116.8208333333314,
      "v": 88
    },
    {
      "midi": 60,
      "hit": false,
      "t": 153362.3900000006,
      "d": 125.58239583333489,
      "v": 88
    },
    {
      "midi": 63,
      "hit": false,
      "t": 153362.3900000006,
      "d": 141.64526041666977,
      "v": 88
    },
    {
      "midi": 46,
      "hit": false,
      "t": 153362.3900000006,
      "d": 335.8598958333314,
      "v": 48
    },
    {
      "midi": 56,
      "hit": false,
      "t": 153642.7600000006,
      "d": 90.53614583335002,
      "v": 88
    },
    {
      "midi": 53,
      "hit": false,
      "t": 153642.7600000006,
      "d": 116.8208333333605,
      "v": 88
    },
    {
      "midi": 60,
      "hit": false,
      "t": 153642.7600000006,
      "d": 122.66187500001979,
      "v": 88
    },
    {
      "midi": 63,
      "hit": false,
      "t": 153642.7600000006,
      "d": 129.96317708335118,
      "v": 88
    },
    {
      "midi": 53,
      "hit": false,
      "t": 153923.13000000062,
      "d": 105.1387500000128,
      "v": 88
    },
    {
      "midi": 56,
      "hit": false,
      "t": 153923.13000000062,
      "d": 109.51953125,
      "v": 88
    },
    {
      "midi": 60,
      "hit": false,
      "t": 153923.13000000062,
      "d": 116.8208333333314,
      "v": 88
    },
    {
      "midi": 46,
      "hit": false,
      "t": 153923.13000000062,
      "d": 146.02604166665697,
      "v": 70
    },
    {
      "midi": 63,
      "hit": false,
      "t": 153923.13000000062,
      "d": 146.02604166665697,
      "v": 88
    },
    {
      "midi": 56,
      "hit": false,
      "t": 154203.5000000006,
      "d": 94.91692708333721,
      "v": 88
    },
    {
      "midi": 53,
      "hit": false,
      "t": 154203.5000000006,
      "d": 102.2182291666686,
      "v": 88
    },
    {
      "midi": 60,
      "hit": false,
      "t": 154203.5000000006,
      "d": 102.2182291666686,
      "v": 88
    },
    {
      "midi": 63,
      "hit": false,
      "t": 154203.5000000006,
      "d": 129.96317708332208,
      "v": 88
    },
    {
      "midi": 46,
      "hit": false,
      "t": 154203.5000000006,
      "d": 160.62864583331975,
      "v": 60
    },
    {
      "midi": 48,
      "hit": false,
      "t": 154343.6850000006,
      "d": 144.56578124998487,
      "v": 48
    },
    {
      "midi": 60,
      "hit": false,
      "t": 154483.8700000006,
      "d": 78.85406249997322,
      "v": 88
    },
    {
      "midi": 56,
      "hit": false,
      "t": 154483.8700000006,
      "d": 83.23484374996042,
      "v": 88
    },
    {
      "midi": 53,
      "hit": false,
      "t": 154483.8700000006,
      "d": 90.53614583329181,
      "v": 88
    },
    {
      "midi": 63,
      "hit": false,
      "t": 154483.8700000006,
      "d": 122.66187499996158,
      "v": 88
    },
    {
      "midi": 51,
      "hit": false,
      "t": 154483.8700000006,
      "d": 179.61203124996973,
      "v": 52
    },
    {
      "midi": 55,
      "hit": false,
      "t": 154764.24000000057,
      "d": 93.45666666666511,
      "v": 88
    },
    {
      "midi": 60,
      "hit": false,
      "t": 154764.24000000057,
      "d": 105.1387500000128,
      "v": 88
    },
    {
      "midi": 58,
      "hit": false,
      "t": 154764.24000000057,
      "d": 134.34395833333838,
      "v": 88
    },
    {
      "midi": 63,
      "hit": false,
      "t": 154764.24000000057,
      "d": 144.56578125001397,
      "v": 88
    },
    {
      "midi": 39,
      "hit": false,
      "t": 154764.24000000057,
      "d": 810.4445312500175,
      "v": 99
    },
    {
      "midi": 60,
      "hit": false,
      "t": 155044.6100000006,
      "d": 109.51953125,
      "v": 88
    },
    {
      "midi": 55,
      "hit": false,
      "t": 155044.6100000006,
      "d": 132.88369791666628,
      "v": 88
    },
    {
      "midi": 58,
      "hit": false,
      "t": 155044.6100000006,
      "d": 141.64526041666977,
      "v": 88
    },
    {
      "midi": 63,
      "hit": false,
      "t": 155044.6100000006,
      "d": 141.64526041666977,
      "v": 88
    },
    {
      "midi": 55,
      "hit": false,
      "t": 155324.9800000006,
      "d": 110.9797916666721,
      "v": 88
    },
    {
      "midi": 60,
      "hit": false,
      "t": 155324.9800000006,
      "d": 110.9797916666721,
      "v": 88
    },
    {
      "midi": 58,
      "hit": false,
      "t": 155324.9800000006,
      "d": 132.88369791666628,
      "v": 88
    },
    {
      "midi": 63,
      "hit": false,
      "t": 155324.9800000006,
      "d": 132.88369791666628,
      "v": 88
    },
    {
      "midi": 60,
      "hit": false,
      "t": 155605.3500000006,
      "d": 102.2182291666686,
      "v": 88
    },
    {
      "midi": 55,
      "hit": false,
      "t": 155605.3500000006,
      "d": 134.34395833333838,
      "v": 88
    },
    {
      "midi": 63,
      "hit": false,
      "t": 155605.3500000006,
      "d": 141.64526041666977,
      "v": 88
    },
    {
      "midi": 58,
      "hit": false,
      "t": 155605.3500000006,
      "d": 151.86708333334536,
      "v": 88
    },
    {
      "midi": 46,
      "hit": false,
      "t": 155605.3500000006,
      "d": 728.6699479167,
      "v": 70
    },
    {
      "midi": 55,
      "hit": false,
      "t": 155885.7200000006,
      "d": 94.91692708333721,
      "v": 88
    },
    {
      "midi": 60,
      "hit": false,
      "t": 155885.7200000006,
      "d": 106.5990104166849,
      "v": 88
    },
    {
      "midi": 58,
      "hit": false,
      "t": 155885.7200000006,
      "d": 122.66187500001979,
      "v": 88
    },
    {
      "midi": 63,
      "hit": false,
      "t": 155885.7200000006,
      "d": 129.96317708335118,
      "v": 88
    },
    {
      "midi": 55,
      "hit": false,
      "t": 156166.09000000064,
      "d": 86.15536458333372,
      "v": 88
    },
    {
      "midi": 60,
      "hit": false,
      "t": 156166.09000000064,
      "d": 113.9003124999872,
      "v": 88
    },
    {
      "midi": 63,
      "hit": false,
      "t": 156166.09000000064,
      "d": 121.20161458331859,
      "v": 88
    },
    {
      "midi": 58,
      "hit": false,
      "t": 156166.09000000064,
      "d": 141.64526041664067,
      "v": 88
    },
    {
      "midi": 55,
      "hit": false,
      "t": 156446.46000000063,
      "d": 99.29770833332441,
      "v": 88
    },
    {
      "midi": 60,
      "hit": false,
      "t": 156446.46000000063,
      "d": 109.51953125,
      "v": 88
    },
    {
      "midi": 58,
      "hit": false,
      "t": 156446.46000000063,
      "d": 144.56578125001397,
      "v": 88
    },
    {
      "midi": 63,
      "hit": false,
      "t": 156446.46000000063,
      "d": 144.56578125001397,
      "v": 88
    },
    {
      "midi": 46,
      "hit": false,
      "t": 156446.46000000063,
      "d": 537.3758333333826,
      "v": 77
    },
    {
      "midi": 58,
      "hit": false,
      "t": 156726.83000000066,
      "d": 87.61562500000582,
      "v": 88
    },
    {
      "midi": 55,
      "hit": false,
      "t": 156726.83000000066,
      "d": 97.83744791668141,
      "v": 88
    },
    {
      "midi": 60,
      "hit": false,
      "t": 156726.83000000066,
      "d": 109.5195312500291,
      "v": 88
    },
    {
      "midi": 63,
      "hit": false,
      "t": 156726.83000000066,
      "d": 137.26447916668258,
      "v": 88
    },
    {
      "midi": 53,
      "hit": false,
      "t": 157007.20000000068,
      "d": 118.28109375000349,
      "v": 88
    },
    {
      "midi": 60,
      "hit": false,
      "t": 157007.20000000068,
      "d": 125.58239583333489,
      "v": 88
    },
    {
      "midi": 56,
      "hit": false,
      "t": 157007.20000000068,
      "d": 129.96317708332208,
      "v": 88
    },
    {
      "midi": 63,
      "hit": false,
      "t": 157007.20000000068,
      "d": 167.92994791665114,
      "v": 88
    },
    {
      "midi": 41,
      "hit": false,
      "t": 157007.20000000068,
      "d": 714.0673437500081,
      "v": 60
    },
    {
      "midi": 56,
      "hit": false,
      "t": 157287.57000000068,
      "d": 105.1387500000128,
      "v": 88
    },
    {
      "midi": 53,
      "hit": false,
      "t": 157287.57000000068,
      "d": 109.51953125,
      "v": 88
    },
    {
      "midi": 60,
      "hit": false,
      "t": 157287.57000000068,
      "d": 118.28109375000349,
      "v": 88
    },
    {
      "midi": 63,
      "hit": false,
      "t": 157287.57000000068,
      "d": 140.18499999999767,
      "v": 88
    },
    {
      "midi": 56,
      "hit": false,
      "t": 157567.94000000067,
      "d": 87.61562500000582,
      "v": 88
    },
    {
      "midi": 60,
      "hit": false,
      "t": 157567.94000000067,
      "d": 102.2182291666686,
      "v": 88
    },
    {
      "midi": 53,
      "hit": false,
      "t": 157567.94000000067,
      "d": 110.9797916666721,
      "v": 88
    },
    {
      "midi": 63,
      "hit": false,
      "t": 157567.94000000067,
      "d": 153.32734375001746,
      "v": 88
    },
    {
      "midi": 53,
      "hit": false,
      "t": 157848.3100000007,
      "d": 110.9797916666721,
      "v": 88
    },
    {
      "midi": 56,
      "hit": false,
      "t": 157848.3100000007,
      "d": 110.9797916666721,
      "v": 88
    },
    {
      "midi": 60,
      "hit": false,
      "t": 157848.3100000007,
      "d": 125.58239583333489,
      "v": 88
    },
    {
      "midi": 63,
      "hit": false,
      "t": 157848.3100000007,
      "d": 156.24786458333256,
      "v": 88
    },
    {
      "midi": 46,
      "hit": false,
      "t": 157848.3100000007,
      "d": 838.1894791666709,
      "v": 86
    },
    {
      "midi": 60,
      "hit": false,
      "t": 158128.6800000007,
      "d": 102.2182291666686,
      "v": 88
    },
    {
      "midi": 53,
      "hit": false,
      "t": 158128.6800000007,
      "d": 106.5990104166558,
      "v": 88
    },
    {
      "midi": 56,
      "hit": false,
      "t": 158128.6800000007,
      "d": 106.5990104166558,
      "v": 88
    },
    {
      "midi": 63,
      "hit": false,
      "t": 158128.6800000007,
      "d": 141.64526041666977,
      "v": 88
    },
    {
      "midi": 53,
      "hit": false,
      "t": 158409.0500000007,
      "d": 99.29770833332441,
      "v": 88
    },
    {
      "midi": 56,
      "hit": false,
      "t": 158409.0500000007,
      "d": 105.1387499999837,
      "v": 88
    },
    {
      "midi": 60,
      "hit": false,
      "t": 158409.0500000007,
      "d": 116.8208333333314,
      "v": 88
    },
    {
      "midi": 63,
      "hit": false,
      "t": 158409.0500000007,
      "d": 151.86708333334536,
      "v": 88
    },
    {
      "midi": 53,
      "hit": false,
      "t": 158689.4200000007,
      "d": 99.29770833332441,
      "v": 88
    },
    {
      "midi": 60,
      "hit": false,
      "t": 158689.4200000007,
      "d": 113.9003124999872,
      "v": 88
    },
    {
      "midi": 56,
      "hit": false,
      "t": 158689.4200000007,
      "d": 128.50291666664998,
      "v": 88
    },
    {
      "midi": 63,
      "hit": false,
      "t": 158689.4200000007,
      "d": 163.54916666666395,
      "v": 88
    },
    {
      "midi": 34,
      "hit": false,
      "t": 158689.4200000007,
      "d": 420.5550000000221,
      "v": 70
    },
    {
      "midi": 56,
      "hit": false,
      "t": 158969.7900000007,
      "d": 86.15536458333372,
      "v": 88
    },
    {
      "midi": 53,
      "hit": false,
      "t": 158969.7900000007,
      "d": 97.83744791668141,
      "v": 88
    },
    {
      "midi": 60,
      "hit": false,
      "t": 158969.7900000007,
      "d": 97.83744791668141,
      "v": 88
    },
    {
      "midi": 63,
      "hit": false,
      "t": 158969.7900000007,
      "d": 169.39020833335235,
      "v": 88
    },
    {
      "midi": 51,
      "hit": false,
      "t": 159250.16000000073,
      "d": 4653.849947916664,
      "v": 88
    },
    {
      "midi": 55,
      "hit": false,
      "t": 159250.16000000073,
      "d": 4672.833333333343,
      "v": 88
    },
    {
      "midi": 58,
      "hit": false,
      "t": 159250.16000000073,
      "d": 4678.674375000002,
      "v": 88
    },
    {
      "midi": 39,
      "hit": false,
      "t": 159250.16000000073,
      "d": 4707.879583333328,
      "v": 88
    },
    {
      "midi": 62,
      "hit": false,
      "t": 159250.16000000073,
      "d": 4732.704010416666,
      "v": 88
    }
  ]
}