{
  "jsonPath": "Electronic/Deep House/DJ Gregory/tropical-soundclash.json",
  "path": "Electronic\\Deep House\\DJ Gregory\\Tropical Soundclash.mid",
  "name": "Tropical Soundclash",
  "difficulty": "Advanced",
  "bpm": 126.000126000126,
  "notes": [
    {
      "midi": 64,
      "hit": false,
      "t": 17142.84,
      "d": 95.2380000000012,
      "v": 76
    },
    {
      "midi": 67,
      "hit": false,
      "t": 17142.84,
      "d": 95.2380000000012,
      "v": 76
    },
    {
      "midi": 72,
      "hit": false,
      "t": 17142.84,
      "d": 95.2380000000012,
      "v": 76
    },
    {
      "midi": 72,
      "hit": false,
      "t": 17390.855625,
      "d": 154.76175000000148,
      "v": 89
    },
    {
      "midi": 64,
      "hit": false,
      "t": 17390.855625,
      "d": 171.62681250000242,
      "v": 89
    },
    {
      "midi": 67,
      "hit": false,
      "t": 17390.855625,
      "d": 171.62681250000242,
      "v": 89
    },
    {
      "midi": 64,
      "hit": false,
      "t": 17867.045625000002,
      "d": 105.15862500000003,
      "v": 74
    },
    {
      "midi": 67,
      "hit": false,
      "t": 17867.045625000002,
      "d": 105.15862500000003,
      "v": 74
    },
    {
      "midi": 72,
      "hit": false,
      "t": 17867.045625000002,
      "d": 110.11893749999945,
      "v": 74
    },
    {
      "midi": 71,
      "hit": false,
      "t": 18095.22,
      "d": 146.8252500000017,
      "v": 91
    },
    {
      "midi": 60,
      "hit": false,
      "t": 18095.22,
      "d": 166.666500000003,
      "v": 91
    },
    {
      "midi": 64,
      "hit": false,
      "t": 18095.22,
      "d": 166.666500000003,
      "v": 91
    },
    {
      "midi": 67,
      "hit": false,
      "t": 18095.22,
      "d": 166.666500000003,
      "v": 91
    },
    {
      "midi": 64,
      "hit": false,
      "t": 18452.362500000003,
      "d": 144.841124999999,
      "v": 74
    },
    {
      "midi": 67,
      "hit": false,
      "t": 18452.362500000003,
      "d": 144.841124999999,
      "v": 74
    },
    {
      "midi": 71,
      "hit": false,
      "t": 18452.362500000003,
      "d": 144.841124999999,
      "v": 74
    },
    {
      "midi": 60,
      "hit": false,
      "t": 18452.362500000003,
      "d": 164.68237500000032,
      "v": 74
    },
    {
      "midi": 60,
      "hit": false,
      "t": 18819.425625000003,
      "d": 80.3570624999993,
      "v": 105
    },
    {
      "midi": 64,
      "hit": false,
      "t": 18819.425625000003,
      "d": 85.31737499999872,
      "v": 105
    },
    {
      "midi": 71,
      "hit": false,
      "t": 18819.425625000003,
      "d": 85.31737499999872,
      "v": 105
    },
    {
      "midi": 67,
      "hit": false,
      "t": 18819.425625000003,
      "d": 92.26181249999718,
      "v": 105
    },
    {
      "midi": 62,
      "hit": false,
      "t": 19047.600000000002,
      "d": 102.18243749999965,
      "v": 87
    },
    {
      "midi": 72,
      "hit": false,
      "t": 19047.600000000002,
      "d": 102.18243749999965,
      "v": 87
    },
    {
      "midi": 65,
      "hit": false,
      "t": 19047.600000000002,
      "d": 107.14274999999907,
      "v": 87
    },
    {
      "midi": 69,
      "hit": false,
      "t": 19047.600000000002,
      "d": 122.02368749999732,
      "v": 87
    },
    {
      "midi": 69,
      "hit": false,
      "t": 19295.615625,
      "d": 154.76175000000148,
      "v": 105
    },
    {
      "midi": 65,
      "hit": false,
      "t": 19295.615625,
      "d": 161.70618749999994,
      "v": 105
    },
    {
      "midi": 62,
      "hit": false,
      "t": 19295.615625,
      "d": 171.62681249999878,
      "v": 105
    },
    {
      "midi": 72,
      "hit": false,
      "t": 19295.615625,
      "d": 191.4680625000001,
      "v": 105
    },
    {
      "midi": 62,
      "hit": false,
      "t": 19709.3056875,
      "d": 105.15862500000003,
      "v": 83
    },
    {
      "midi": 65,
      "hit": false,
      "t": 19709.3056875,
      "d": 105.15862500000003,
      "v": 83
    },
    {
      "midi": 69,
      "hit": false,
      "t": 19709.3056875,
      "d": 105.15862500000003,
      "v": 83
    },
    {
      "midi": 72,
      "hit": false,
      "t": 19709.3056875,
      "d": 117.06337500000154,
      "v": 83
    },
    {
      "midi": 65,
      "hit": false,
      "t": 19999.980000000003,
      "d": 124.99987500000134,
      "v": 98
    },
    {
      "midi": 69,
      "hit": false,
      "t": 19999.980000000003,
      "d": 124.99987500000134,
      "v": 98
    },
    {
      "midi": 62,
      "hit": false,
      "t": 19999.980000000003,
      "d": 141.86493750000227,
      "v": 98
    },
    {
      "midi": 72,
      "hit": false,
      "t": 19999.980000000003,
      "d": 164.68237500000396,
      "v": 98
    },
    {
      "midi": 62,
      "hit": false,
      "t": 20357.12250000001,
      "d": 124.99987500000134,
      "v": 94
    },
    {
      "midi": 65,
      "hit": false,
      "t": 20357.12250000001,
      "d": 124.99987500000134,
      "v": 94
    },
    {
      "midi": 69,
      "hit": false,
      "t": 20357.12250000001,
      "d": 124.99987500000134,
      "v": 94
    },
    {
      "midi": 72,
      "hit": false,
      "t": 20357.12250000001,
      "d": 124.99987500000134,
      "v": 94
    },
    {
      "midi": 65,
      "hit": false,
      "t": 20724.18562500001,
      "d": 105.15862500000003,
      "v": 112
    },
    {
      "midi": 69,
      "hit": false,
      "t": 20724.18562500001,
      "d": 105.15862500000003,
      "v": 112
    },
    {
      "midi": 72,
      "hit": false,
      "t": 20724.18562500001,
      "d": 110.11893749999945,
      "v": 112
    },
    {
      "midi": 62,
      "hit": false,
      "t": 20724.18562500001,
      "d": 124.9998749999977,
      "v": 112
    },
    {
      "midi": 64,
      "hit": false,
      "t": 20952.360000000008,
      "d": 110.11893749999945,
      "v": 77
    },
    {
      "midi": 67,
      "hit": false,
      "t": 20952.360000000008,
      "d": 110.11893749999945,
      "v": 77
    },
    {
      "midi": 72,
      "hit": false,
      "t": 20952.360000000008,
      "d": 110.11893749999945,
      "v": 77
    },
    {
      "midi": 72,
      "hit": false,
      "t": 21200.375625000008,
      "d": 154.76175000000148,
      "v": 98
    },
    {
      "midi": 64,
      "hit": false,
      "t": 21200.375625000008,
      "d": 171.62681250000242,
      "v": 98
    },
    {
      "midi": 67,
      "hit": false,
      "t": 21200.375625000008,
      "d": 171.62681250000242,
      "v": 98
    },
    {
      "midi": 64,
      "hit": false,
      "t": 21676.56562500001,
      "d": 105.15862500000003,
      "v": 74
    },
    {
      "midi": 67,
      "hit": false,
      "t": 21676.56562500001,
      "d": 105.15862500000003,
      "v": 74
    },
    {
      "midi": 72,
      "hit": false,
      "t": 21676.56562500001,
      "d": 110.11893749999945,
      "v": 74
    },
    {
      "midi": 71,
      "hit": false,
      "t": 21904.74000000001,
      "d": 146.8252500000017,
      "v": 98
    },
    {
      "midi": 60,
      "hit": false,
      "t": 21904.74000000001,
      "d": 166.666500000003,
      "v": 98
    },
    {
      "midi": 64,
      "hit": false,
      "t": 21904.74000000001,
      "d": 166.666500000003,
      "v": 98
    },
    {
      "midi": 67,
      "hit": false,
      "t": 21904.74000000001,
      "d": 166.666500000003,
      "v": 98
    },
    {
      "midi": 64,
      "hit": false,
      "t": 22261.88250000001,
      "d": 144.841124999999,
      "v": 74
    },
    {
      "midi": 67,
      "hit": false,
      "t": 22261.88250000001,
      "d": 144.841124999999,
      "v": 74
    },
    {
      "midi": 71,
      "hit": false,
      "t": 22261.88250000001,
      "d": 144.841124999999,
      "v": 74
    },
    {
      "midi": 60,
      "hit": false,
      "t": 22261.88250000001,
      "d": 164.68237500000032,
      "v": 74
    },
    {
      "midi": 60,
      "hit": false,
      "t": 22628.94562500001,
      "d": 80.3570624999993,
      "v": 74
    },
    {
      "midi": 64,
      "hit": false,
      "t": 22628.94562500001,
      "d": 85.31737499999872,
      "v": 74
    },
    {
      "midi": 71,
      "hit": false,
      "t": 22628.94562500001,
      "d": 85.31737499999872,
      "v": 74
    },
    {
      "midi": 67,
      "hit": false,
      "t": 22628.94562500001,
      "d": 92.26181249999718,
      "v": 74
    },
    {
      "midi": 72,
      "hit": false,
      "t": 22857.12000000001,
      "d": 117.06337500000154,
      "v": 79
    },
    {
      "midi": 62,
      "hit": false,
      "t": 22857.12000000001,
      "d": 120.03956250000192,
      "v": 79
    },
    {
      "midi": 65,
      "hit": false,
      "t": 22857.12000000001,
      "d": 124.99987500000134,
      "v": 79
    },
    {
      "midi": 69,
      "hit": false,
      "t": 22857.12000000001,
      "d": 139.8808124999996,
      "v": 79
    },
    {
      "midi": 69,
      "hit": false,
      "t": 23105.13562500001,
      "d": 154.76175000000148,
      "v": 101
    },
    {
      "midi": 65,
      "hit": false,
      "t": 23105.13562500001,
      "d": 161.70618749999994,
      "v": 101
    },
    {
      "midi": 62,
      "hit": false,
      "t": 23105.13562500001,
      "d": 171.62681249999878,
      "v": 101
    },
    {
      "midi": 72,
      "hit": false,
      "t": 23105.13562500001,
      "d": 191.4680625000001,
      "v": 101
    },
    {
      "midi": 72,
      "hit": false,
      "t": 23518.82568750001,
      "d": 100.19831250000061,
      "v": 74
    },
    {
      "midi": 62,
      "hit": false,
      "t": 23518.82568750001,
      "d": 105.15862500000003,
      "v": 74
    },
    {
      "midi": 65,
      "hit": false,
      "t": 23518.82568750001,
      "d": 105.15862500000003,
      "v": 74
    },
    {
      "midi": 69,
      "hit": false,
      "t": 23518.82568750001,
      "d": 105.15862500000003,
      "v": 74
    },
    {
      "midi": 65,
      "hit": false,
      "t": 23809.50000000001,
      "d": 124.99987500000134,
      "v": 90
    },
    {
      "midi": 69,
      "hit": false,
      "t": 23809.50000000001,
      "d": 124.99987500000134,
      "v": 90
    },
    {
      "midi": 62,
      "hit": false,
      "t": 23809.50000000001,
      "d": 141.86493750000227,
      "v": 90
    },
    {
      "midi": 72,
      "hit": false,
      "t": 23809.50000000001,
      "d": 164.68237500000396,
      "v": 90
    },
    {
      "midi": 62,
      "hit": false,
      "t": 24166.642500000016,
      "d": 124.99987500000134,
      "v": 74
    },
    {
      "midi": 65,
      "hit": false,
      "t": 24166.642500000016,
      "d": 124.99987500000134,
      "v": 74
    },
    {
      "midi": 69,
      "hit": false,
      "t": 24166.642500000016,
      "d": 124.99987500000134,
      "v": 74
    },
    {
      "midi": 72,
      "hit": false,
      "t": 24166.642500000016,
      "d": 124.99987500000134,
      "v": 74
    },
    {
      "midi": 65,
      "hit": false,
      "t": 24533.705625000017,
      "d": 105.15862500000003,
      "v": 98
    },
    {
      "midi": 69,
      "hit": false,
      "t": 24533.705625000017,
      "d": 105.15862500000003,
      "v": 98
    },
    {
      "midi": 72,
      "hit": false,
      "t": 24533.705625000017,
      "d": 110.11893749999945,
      "v": 98
    },
    {
      "midi": 62,
      "hit": false,
      "t": 24533.705625000017,
      "d": 124.9998749999977,
      "v": 98
    },
    {
      "midi": 64,
      "hit": false,
      "t": 24761.880000000016,
      "d": 95.2380000000012,
      "v": 76
    },
    {
      "midi": 67,
      "hit": false,
      "t": 24761.880000000016,
      "d": 95.2380000000012,
      "v": 76
    },
    {
      "midi": 72,
      "hit": false,
      "t": 24761.880000000016,
      "d": 95.2380000000012,
      "v": 76
    },
    {
      "midi": 72,
      "hit": false,
      "t": 25009.895625000016,
      "d": 154.76175000000148,
      "v": 89
    },
    {
      "midi": 64,
      "hit": false,
      "t": 25009.895625000016,
      "d": 171.62681250000242,
      "v": 89
    },
    {
      "midi": 67,
      "hit": false,
      "t": 25009.895625000016,
      "d": 171.62681250000242,
      "v": 89
    },
    {
      "midi": 64,
      "hit": false,
      "t": 25486.085625000018,
      "d": 105.15862500000003,
      "v": 74
    },
    {
      "midi": 67,
      "hit": false,
      "t": 25486.085625000018,
      "d": 105.15862500000003,
      "v": 74
    },
    {
      "midi": 72,
      "hit": false,
      "t": 25486.085625000018,
      "d": 110.11893749999945,
      "v": 74
    },
    {
      "midi": 71,
      "hit": false,
      "t": 25714.260000000017,
      "d": 146.8252500000017,
      "v": 91
    },
    {
      "midi": 60,
      "hit": false,
      "t": 25714.260000000017,
      "d": 166.666500000003,
      "v": 91
    },
    {
      "midi": 64,
      "hit": false,
      "t": 25714.260000000017,
      "d": 166.666500000003,
      "v": 91
    },
    {
      "midi": 67,
      "hit": false,
      "t": 25714.260000000017,
      "d": 166.666500000003,
      "v": 91
    },
    {
      "midi": 64,
      "hit": false,
      "t": 26071.40250000002,
      "d": 144.841124999999,
      "v": 74
    },
    {
      "midi": 67,
      "hit": false,
      "t": 26071.40250000002,
      "d": 144.841124999999,
      "v": 74
    },
    {
      "midi": 71,
      "hit": false,
      "t": 26071.40250000002,
      "d": 144.841124999999,
      "v": 74
    },
    {
      "midi": 60,
      "hit": false,
      "t": 26071.40250000002,
      "d": 164.68237500000032,
      "v": 74
    },
    {
      "midi": 60,
      "hit": false,
      "t": 26438.46562500002,
      "d": 80.3570624999993,
      "v": 105
    },
    {
      "midi": 64,
      "hit": false,
      "t": 26438.46562500002,
      "d": 85.31737499999872,
      "v": 105
    },
    {
      "midi": 71,
      "hit": false,
      "t": 26438.46562500002,
      "d": 85.31737499999872,
      "v": 105
    },
    {
      "midi": 67,
      "hit": false,
      "t": 26438.46562500002,
      "d": 92.26181249999718,
      "v": 105
    },
    {
      "midi": 62,
      "hit": false,
      "t": 26666.640000000018,
      "d": 102.18243749999965,
      "v": 87
    },
    {
      "midi": 72,
      "hit": false,
      "t": 26666.640000000018,
      "d": 102.18243749999965,
      "v": 87
    },
    {
      "midi": 65,
      "hit": false,
      "t": 26666.640000000018,
      "d": 107.14274999999907,
      "v": 87
    },
    {
      "midi": 69,
      "hit": false,
      "t": 26666.640000000018,
      "d": 122.02368749999732,
      "v": 87
    },
    {
      "midi": 69,
      "hit": false,
      "t": 26914.655625000014,
      "d": 154.76175000000148,
      "v": 105
    },
    {
      "midi": 65,
      "hit": false,
      "t": 26914.655625000014,
      "d": 161.70618749999994,
      "v": 105
    },
    {
      "midi": 62,
      "hit": false,
      "t": 26914.655625000014,
      "d": 171.62681249999878,
      "v": 105
    },
    {
      "midi": 72,
      "hit": false,
      "t": 26914.655625000014,
      "d": 191.4680625000001,
      "v": 105
    },
    {
      "midi": 62,
      "hit": false,
      "t": 27328.345687500016,
      "d": 105.15862500000003,
      "v": 83
    },
    {
      "midi": 65,
      "hit": false,
      "t": 27328.345687500016,
      "d": 105.15862500000003,
      "v": 83
    },
    {
      "midi": 69,
      "hit": false,
      "t": 27328.345687500016,
      "d": 105.15862500000003,
      "v": 83
    },
    {
      "midi": 72,
      "hit": false,
      "t": 27328.345687500016,
      "d": 117.06337500000154,
      "v": 83
    },
    {
      "midi": 65,
      "hit": false,
      "t": 27619.02000000002,
      "d": 124.99987500000134,
      "v": 98
    },
    {
      "midi": 69,
      "hit": false,
      "t": 27619.02000000002,
      "d": 124.99987500000134,
      "v": 98
    },
    {
      "midi": 62,
      "hit": false,
      "t": 27619.02000000002,
      "d": 141.86493750000227,
      "v": 98
    },
    {
      "midi": 72,
      "hit": false,
      "t": 27619.02000000002,
      "d": 164.68237500000396,
      "v": 98
    },
    {
      "midi": 62,
      "hit": false,
      "t": 27976.162500000024,
      "d": 124.99987500000134,
      "v": 94
    },
    {
      "midi": 65,
      "hit": false,
      "t": 27976.162500000024,
      "d": 124.99987500000134,
      "v": 94
    },
    {
      "midi": 69,
      "hit": false,
      "t": 27976.162500000024,
      "d": 124.99987500000134,
      "v": 94
    },
    {
      "midi": 72,
      "hit": false,
      "t": 27976.162500000024,
      "d": 124.99987500000134,
      "v": 94
    },
    {
      "midi": 65,
      "hit": false,
      "t": 28343.225625000025,
      "d": 105.15862500000003,
      "v": 112
    },
    {
      "midi": 69,
      "hit": false,
      "t": 28343.225625000025,
      "d": 105.15862500000003,
      "v": 112
    },
    {
      "midi": 72,
      "hit": false,
      "t": 28343.225625000025,
      "d": 110.11893749999945,
      "v": 112
    },
    {
      "midi": 62,
      "hit": false,
      "t": 28343.225625000025,
      "d": 124.9998749999977,
      "v": 112
    },
    {
      "midi": 64,
      "hit": false,
      "t": 28571.400000000023,
      "d": 110.11893749999945,
      "v": 77
    },
    {
      "midi": 67,
      "hit": false,
      "t": 28571.400000000023,
      "d": 110.11893749999945,
      "v": 77
    },
    {
      "midi": 72,
      "hit": false,
      "t": 28571.400000000023,
      "d": 110.11893749999945,
      "v": 77
    },
    {
      "midi": 72,
      "hit": false,
      "t": 28819.415625000023,
      "d": 154.76175000000148,
      "v": 98
    },
    {
      "midi": 64,
      "hit": false,
      "t": 28819.415625000023,
      "d": 171.62681250000242,
      "v": 98
    },
    {
      "midi": 67,
      "hit": false,
      "t": 28819.415625000023,
      "d": 171.62681250000242,
      "v": 98
    },
    {
      "midi": 64,
      "hit": false,
      "t": 29295.605625000026,
      "d": 105.15862500000003,
      "v": 74
    },
    {
      "midi": 67,
      "hit": false,
      "t": 29295.605625000026,
      "d": 105.15862500000003,
      "v": 74
    },
    {
      "midi": 72,
      "hit": false,
      "t": 29295.605625000026,
      "d": 110.11893749999945,
      "v": 74
    },
    {
      "midi": 71,
      "hit": false,
      "t": 29523.780000000024,
      "d": 146.8252500000017,
      "v": 98
    },
    {
      "midi": 60,
      "hit": false,
      "t": 29523.780000000024,
      "d": 166.666500000003,
      "v": 98
    },
    {
      "midi": 64,
      "hit": false,
      "t": 29523.780000000024,
      "d": 166.666500000003,
      "v": 98
    },
    {
      "midi": 67,
      "hit": false,
      "t": 29523.780000000024,
      "d": 166.666500000003,
      "v": 98
    },
    {
      "midi": 64,
      "hit": false,
      "t": 29880.922500000026,
      "d": 144.841124999999,
      "v": 74
    },
    {
      "midi": 67,
      "hit": false,
      "t": 29880.922500000026,
      "d": 144.841124999999,
      "v": 74
    },
    {
      "midi": 71,
      "hit": false,
      "t": 29880.922500000026,
      "d": 144.841124999999,
      "v": 74
    },
    {
      "midi": 60,
      "hit": false,
      "t": 29880.922500000026,
      "d": 164.68237500000032,
      "v": 74
    },
    {
      "midi": 60,
      "hit": false,
      "t": 30247.985625000027,
      "d": 80.3570624999993,
      "v": 74
    },
    {
      "midi": 64,
      "hit": false,
      "t": 30247.985625000027,
      "d": 85.31737499999872,
      "v": 74
    },
    {
      "midi": 71,
      "hit": false,
      "t": 30247.985625000027,
      "d": 85.31737499999872,
      "v": 74
    },
    {
      "midi": 67,
      "hit": false,
      "t": 30247.985625000027,
      "d": 92.26181249999718,
      "v": 74
    },
    {
      "midi": 72,
      "hit": false,
      "t": 30476.160000000025,
      "d": 117.06337500000154,
      "v": 79
    },
    {
      "midi": 62,
      "hit": false,
      "t": 30476.160000000025,
      "d": 120.03956250000192,
      "v": 79
    },
    {
      "midi": 65,
      "hit": false,
      "t": 30476.160000000025,
      "d": 124.99987500000134,
      "v": 79
    },
    {
      "midi": 69,
      "hit": false,
      "t": 30476.160000000025,
      "d": 139.8808124999996,
      "v": 79
    },
    {
      "midi": 69,
      "hit": false,
      "t": 30724.175625000025,
      "d": 154.76175000000148,
      "v": 101
    },
    {
      "midi": 65,
      "hit": false,
      "t": 30724.175625000025,
      "d": 161.70618749999994,
      "v": 101
    },
    {
      "midi": 62,
      "hit": false,
      "t": 30724.175625000025,
      "d": 171.62681249999878,
      "v": 101
    },
    {
      "midi": 72,
      "hit": false,
      "t": 30724.175625000025,
      "d": 191.4680625000001,
      "v": 101
    },
    {
      "midi": 72,
      "hit": false,
      "t": 31137.865687500027,
      "d": 100.19831250000061,
      "v": 74
    },
    {
      "midi": 62,
      "hit": false,
      "t": 31137.865687500027,
      "d": 105.15862500000003,
      "v": 74
    },
    {
      "midi": 65,
      "hit": false,
      "t": 31137.865687500027,
      "d": 105.15862500000003,
      "v": 74
    },
    {
      "midi": 69,
      "hit": false,
      "t": 31137.865687500027,
      "d": 105.15862500000003,
      "v": 74
    },
    {
      "midi": 65,
      "hit": false,
      "t": 31428.540000000026,
      "d": 124.99987500000134,
      "v": 90
    },
    {
      "midi": 69,
      "hit": false,
      "t": 31428.540000000026,
      "d": 124.99987500000134,
      "v": 90
    },
    {
      "midi": 62,
      "hit": false,
      "t": 31428.540000000026,
      "d": 141.86493750000227,
      "v": 90
    },
    {
      "midi": 72,
      "hit": false,
      "t": 31428.540000000026,
      "d": 164.68237500000396,
      "v": 90
    },
    {
      "midi": 62,
      "hit": false,
      "t": 31785.68250000003,
      "d": 124.99987500000134,
      "v": 74
    },
    {
      "midi": 65,
      "hit": false,
      "t": 31785.68250000003,
      "d": 124.99987500000134,
      "v": 74
    },
    {
      "midi": 69,
      "hit": false,
      "t": 31785.68250000003,
      "d": 124.99987500000134,
      "v": 74
    },
    {
      "midi": 72,
      "hit": false,
      "t": 31785.68250000003,
      "d": 124.99987500000134,
      "v": 74
    },
    {
      "midi": 65,
      "hit": false,
      "t": 32152.745625000032,
      "d": 105.15862500000003,
      "v": 98
    },
    {
      "midi": 69,
      "hit": false,
      "t": 32152.745625000032,
      "d": 105.15862500000003,
      "v": 98
    },
    {
      "midi": 72,
      "hit": false,
      "t": 32152.745625000032,
      "d": 110.11893749999945,
      "v": 98
    },
    {
      "midi": 62,
      "hit": false,
      "t": 32152.745625000032,
      "d": 124.9998749999977,
      "v": 98
    },
    {
      "midi": 65,
      "hit": false,
      "t": 97142.76000000004,
      "d": 115.07924999999523,
      "v": 93
    },
    {
      "midi": 62,
      "hit": false,
      "t": 97142.76000000004,
      "d": 129.96018749999348,
      "v": 93
    },
    {
      "midi": 69,
      "hit": false,
      "t": 97142.76000000004,
      "d": 129.96018749999348,
      "v": 93
    },
    {
      "midi": 72,
      "hit": false,
      "t": 97142.76000000004,
      "d": 129.96018749999348,
      "v": 93
    },
    {
      "midi": 65,
      "hit": false,
      "t": 97380.85500000003,
      "d": 115.07924999999523,
      "v": 93
    },
    {
      "midi": 72,
      "hit": false,
      "t": 97380.85500000003,
      "d": 144.84112499999173,
      "v": 93
    },
    {
      "midi": 62,
      "hit": false,
      "t": 97380.85500000003,
      "d": 159.72206249999,
      "v": 93
    },
    {
      "midi": 69,
      "hit": false,
      "t": 97380.85500000003,
      "d": 159.72206249999,
      "v": 93
    },
    {
      "midi": 50,
      "hit": false,
      "t": 98095.14000000001,
      "d": 17.857124999994994,
      "v": 93
    },
    {
      "midi": 65,
      "hit": false,
      "t": 98214.18750000001,
      "d": 32.73806249999325,
      "v": 83
    },
    {
      "midi": 69,
      "hit": false,
      "t": 98214.18750000001,
      "d": 72.42056249998859,
      "v": 93
    },
    {
      "midi": 72,
      "hit": false,
      "t": 98214.18750000001,
      "d": 87.30149999998685,
      "v": 93
    },
    {
      "midi": 62,
      "hit": false,
      "t": 98214.18750000001,
      "d": 102.1824374999851,
      "v": 93
    },
    {
      "midi": 69,
      "hit": false,
      "t": 98571.33,
      "d": 209.32518749999872,
      "v": 93
    },
    {
      "midi": 65,
      "hit": false,
      "t": 98571.33,
      "d": 221.22993750000023,
      "v": 93
    },
    {
      "midi": 72,
      "hit": false,
      "t": 98571.33,
      "d": 221.22993750000023,
      "v": 93
    },
    {
      "midi": 62,
      "hit": false,
      "t": 98571.33,
      "d": 268.8489375000063,
      "v": 93
    },
    {
      "midi": 65,
      "hit": false,
      "t": 99047.52,
      "d": 90.27768749999814,
      "v": 93
    },
    {
      "midi": 67,
      "hit": false,
      "t": 99047.52,
      "d": 105.15862499999639,
      "v": 93
    },
    {
      "midi": 71,
      "hit": false,
      "t": 99047.52,
      "d": 105.15862499999639,
      "v": 93
    },
    {
      "midi": 62,
      "hit": false,
      "t": 99047.52,
      "d": 131.94431249999616,
      "v": 93
    },
    {
      "midi": 65,
      "hit": false,
      "t": 99285.615,
      "d": 105.15862499999639,
      "v": 93
    },
    {
      "midi": 71,
      "hit": false,
      "t": 99285.615,
      "d": 105.15862499999639,
      "v": 93
    },
    {
      "midi": 62,
      "hit": false,
      "t": 99285.615,
      "d": 120.03956249999464,
      "v": 93
    },
    {
      "midi": 67,
      "hit": false,
      "t": 99285.615,
      "d": 131.94431249999616,
      "v": 93
    },
    {
      "midi": 55,
      "hit": false,
      "t": 99999.9,
      "d": 20.833312500006286,
      "v": 93
    },
    {
      "midi": 71,
      "hit": false,
      "t": 100118.9475,
      "d": 105.15862499999639,
      "v": 93
    },
    {
      "midi": 65,
      "hit": false,
      "t": 100118.9475,
      "d": 134.9204999999929,
      "v": 93
    },
    {
      "midi": 67,
      "hit": false,
      "t": 100118.9475,
      "d": 146.8252499999944,
      "v": 93
    },
    {
      "midi": 62,
      "hit": false,
      "t": 100118.9475,
      "d": 161.70618749999267,
      "v": 93
    },
    {
      "midi": 65,
      "hit": false,
      "t": 100476.08999999998,
      "d": 273.8092500000057,
      "v": 93
    },
    {
      "midi": 71,
      "hit": false,
      "t": 100476.08999999998,
      "d": 273.8092500000057,
      "v": 93
    },
    {
      "midi": 62,
      "hit": false,
      "t": 100476.08999999998,
      "d": 288.69018750000396,
      "v": 93
    },
    {
      "midi": 67,
      "hit": false,
      "t": 100476.08999999998,
      "d": 288.69018750000396,
      "v": 93
    },
    {
      "midi": 64,
      "hit": false,
      "t": 100952.27999999998,
      "d": 120.03956249999464,
      "v": 93
    },
    {
      "midi": 72,
      "hit": false,
      "t": 100952.27999999998,
      "d": 122.02368749999732,
      "v": 93
    },
    {
      "midi": 67,
      "hit": false,
      "t": 100952.27999999998,
      "d": 134.9204999999929,
      "v": 93
    },
    {
      "midi": 67,
      "hit": false,
      "t": 101190.37499999997,
      "d": 134.9204999999929,
      "v": 93
    },
    {
      "midi": 72,
      "hit": false,
      "t": 101190.37499999997,
      "d": 134.9204999999929,
      "v": 93
    },
    {
      "midi": 64,
      "hit": false,
      "t": 101190.37499999997,
      "d": 149.80143749999115,
      "v": 93
    },
    {
      "midi": 48,
      "hit": false,
      "t": 101904.65999999996,
      "d": 17.857124999994994,
      "v": 93
    },
    {
      "midi": 67,
      "hit": false,
      "t": 102023.70749999996,
      "d": 149.8014375000057,
      "v": 93
    },
    {
      "midi": 72,
      "hit": false,
      "t": 102023.70749999996,
      "d": 149.8014375000057,
      "v": 93
    },
    {
      "midi": 64,
      "hit": false,
      "t": 102023.70749999996,
      "d": 161.70618750000722,
      "v": 93
    },
    {
      "midi": 64,
      "hit": false,
      "t": 102380.84999999996,
      "d": 258.9283124999929,
      "v": 93
    },
    {
      "midi": 72,
      "hit": false,
      "t": 102380.84999999996,
      "d": 288.6901874999894,
      "v": 93
    },
    {
      "midi": 67,
      "hit": false,
      "t": 102380.84999999996,
      "d": 333.33299999998417,
      "v": 93
    },
    {
      "midi": 60,
      "hit": false,
      "t": 102857.03999999995,
      "d": 112.10306249999849,
      "v": 93
    },
    {
      "midi": 64,
      "hit": false,
      "t": 102857.03999999995,
      "d": 112.10306249999849,
      "v": 93
    },
    {
      "midi": 69,
      "hit": false,
      "t": 102857.03999999995,
      "d": 112.10306249999849,
      "v": 93
    },
    {
      "midi": 67,
      "hit": false,
      "t": 102857.03999999995,
      "d": 126.98399999999674,
      "v": 93
    },
    {
      "midi": 69,
      "hit": false,
      "t": 103095.13499999995,
      "d": 124.99987499999406,
      "v": 93
    },
    {
      "midi": 60,
      "hit": false,
      "t": 103095.13499999995,
      "d": 139.88081249999232,
      "v": 93
    },
    {
      "midi": 64,
      "hit": false,
      "t": 103095.13499999995,
      "d": 139.88081249999232,
      "v": 93
    },
    {
      "midi": 67,
      "hit": false,
      "t": 103095.13499999995,
      "d": 139.88081249999232,
      "v": 93
    },
    {
      "midi": 45,
      "hit": false,
      "t": 103809.41999999994,
      "d": 25.793625000005704,
      "v": 83
    },
    {
      "midi": 67,
      "hit": false,
      "t": 103928.46749999994,
      "d": 105.15862499999639,
      "v": 93
    },
    {
      "midi": 69,
      "hit": false,
      "t": 103928.46749999994,
      "d": 105.15862499999639,
      "v": 93
    },
    {
      "midi": 64,
      "hit": false,
      "t": 103928.46749999994,
      "d": 134.9204999999929,
      "v": 93
    },
    {
      "midi": 60,
      "hit": false,
      "t": 103928.46749999994,
      "d": 159.72206249999,
      "v": 93
    },
    {
      "midi": 64,
      "hit": false,
      "t": 104285.60999999993,
      "d": 325.39650000000256,
      "v": 93
    },
    {
      "midi": 67,
      "hit": false,
      "t": 104285.60999999993,
      "d": 340.2774375000008,
      "v": 93
    },
    {
      "midi": 60,
      "hit": false,
      "t": 104285.60999999993,
      "d": 353.1742499999964,
      "v": 93
    },
    {
      "midi": 69,
      "hit": false,
      "t": 104285.60999999993,
      "d": 353.1742499999964,
      "v": 93
    },
    {
      "midi": 65,
      "hit": false,
      "t": 104761.79999999993,
      "d": 115.07924999999523,
      "v": 93
    },
    {
      "midi": 62,
      "hit": false,
      "t": 104761.79999999993,
      "d": 129.96018749999348,
      "v": 93
    },
    {
      "midi": 69,
      "hit": false,
      "t": 104761.79999999993,
      "d": 129.96018749999348,
      "v": 93
    },
    {
      "midi": 72,
      "hit": false,
      "t": 104761.79999999993,
      "d": 129.96018749999348,
      "v": 93
    },
    {
      "midi": 65,
      "hit": false,
      "t": 104999.89499999992,
      "d": 115.07924999999523,
      "v": 93
    },
    {
      "midi": 72,
      "hit": false,
      "t": 104999.89499999992,
      "d": 144.84112499999173,
      "v": 93
    },
    {
      "midi": 62,
      "hit": false,
      "t": 104999.89499999992,
      "d": 159.72206249999,
      "v": 93
    },
    {
      "midi": 69,
      "hit": false,
      "t": 104999.89499999992,
      "d": 159.72206249999,
      "v": 93
    },
    {
      "midi": 50,
      "hit": false,
      "t": 105714.1799999999,
      "d": 17.857124999994994,
      "v": 93
    },
    {
      "midi": 65,
      "hit": false,
      "t": 105833.2274999999,
      "d": 32.73806249999325,
      "v": 83
    },
    {
      "midi": 69,
      "hit": false,
      "t": 105833.2274999999,
      "d": 72.42056249998859,
      "v": 93
    },
    {
      "midi": 72,
      "hit": false,
      "t": 105833.2274999999,
      "d": 87.30149999998685,
      "v": 93
    },
    {
      "midi": 62,
      "hit": false,
      "t": 105833.2274999999,
      "d": 102.1824374999851,
      "v": 93
    },
    {
      "midi": 69,
      "hit": false,
      "t": 106190.3699999999,
      "d": 209.32518749999872,
      "v": 93
    },
    {
      "midi": 65,
      "hit": false,
      "t": 106190.3699999999,
      "d": 221.22993750000023,
      "v": 93
    },
    {
      "midi": 72,
      "hit": false,
      "t": 106190.3699999999,
      "d": 221.22993750000023,
      "v": 93
    },
    {
      "midi": 62,
      "hit": false,
      "t": 106190.3699999999,
      "d": 268.8489375000063,
      "v": 93
    },
    {
      "midi": 65,
      "hit": false,
      "t": 106666.5599999999,
      "d": 90.27768749999814,
      "v": 93
    },
    {
      "midi": 67,
      "hit": false,
      "t": 106666.5599999999,
      "d": 105.15862499999639,
      "v": 93
    },
    {
      "midi": 71,
      "hit": false,
      "t": 106666.5599999999,
      "d": 105.15862499999639,
      "v": 93
    },
    {
      "midi": 62,
      "hit": false,
      "t": 106666.5599999999,
      "d": 131.94431249999616,
      "v": 93
    },
    {
      "midi": 65,
      "hit": false,
      "t": 106904.6549999999,
      "d": 105.15862499999639,
      "v": 93
    },
    {
      "midi": 71,
      "hit": false,
      "t": 106904.6549999999,
      "d": 105.15862499999639,
      "v": 93
    },
    {
      "midi": 62,
      "hit": false,
      "t": 106904.6549999999,
      "d": 120.03956249999464,
      "v": 93
    },
    {
      "midi": 67,
      "hit": false,
      "t": 106904.6549999999,
      "d": 131.94431249999616,
      "v": 93
    },
    {
      "midi": 55,
      "hit": false,
      "t": 107618.93999999989,
      "d": 20.833312500006286,
      "v": 93
    },
    {
      "midi": 71,
      "hit": false,
      "t": 107737.98749999989,
      "d": 105.15862499999639,
      "v": 93
    },
    {
      "midi": 65,
      "hit": false,
      "t": 107737.98749999989,
      "d": 134.9204999999929,
      "v": 93
    },
    {
      "midi": 67,
      "hit": false,
      "t": 107737.98749999989,
      "d": 146.8252499999944,
      "v": 93
    },
    {
      "midi": 62,
      "hit": false,
      "t": 107737.98749999989,
      "d": 161.70618749999267,
      "v": 93
    },
    {
      "midi": 65,
      "hit": false,
      "t": 108095.12999999987,
      "d": 273.8092500000057,
      "v": 93
    },
    {
      "midi": 71,
      "hit": false,
      "t": 108095.12999999987,
      "d": 273.8092500000057,
      "v": 93
    },
    {
      "midi": 62,
      "hit": false,
      "t": 108095.12999999987,
      "d": 288.69018750000396,
      "v": 93
    },
    {
      "midi": 67,
      "hit": false,
      "t": 108095.12999999987,
      "d": 288.69018750000396,
      "v": 93
    },
    {
      "midi": 64,
      "hit": false,
      "t": 108571.31999999988,
      "d": 120.03956249999464,
      "v": 93
    },
    {
      "midi": 72,
      "hit": false,
      "t": 108571.31999999988,
      "d": 122.02368749999732,
      "v": 93
    },
    {
      "midi": 67,
      "hit": false,
      "t": 108571.31999999988,
      "d": 134.9204999999929,
      "v": 93
    },
    {
      "midi": 67,
      "hit": false,
      "t": 108809.41499999986,
      "d": 134.9204999999929,
      "v": 93
    },
    {
      "midi": 72,
      "hit": false,
      "t": 108809.41499999986,
      "d": 134.9204999999929,
      "v": 93
    },
    {
      "midi": 64,
      "hit": false,
      "t": 108809.41499999986,
      "d": 149.80143749999115,
      "v": 93
    },
    {
      "midi": 48,
      "hit": false,
      "t": 109523.69999999985,
      "d": 17.857124999994994,
      "v": 93
    },
    {
      "midi": 67,
      "hit": false,
      "t": 109642.74749999985,
      "d": 149.8014375000057,
      "v": 93
    },
    {
      "midi": 72,
      "hit": false,
      "t": 109642.74749999985,
      "d": 149.8014375000057,
      "v": 93
    },
    {
      "midi": 64,
      "hit": false,
      "t": 109642.74749999985,
      "d": 161.70618750000722,
      "v": 93
    },
    {
      "midi": 64,
      "hit": false,
      "t": 109999.88999999985,
      "d": 258.9283124999929,
      "v": 93
    },
    {
      "midi": 72,
      "hit": false,
      "t": 109999.88999999985,
      "d": 288.6901874999894,
      "v": 93
    },
    {
      "midi": 67,
      "hit": false,
      "t": 109999.88999999985,
      "d": 333.33299999998417,
      "v": 93
    },
    {
      "midi": 64,
      "hit": false,
      "t": 110476.07999999984,
      "d": 120.03956249999464,
      "v": 93
    },
    {
      "midi": 72,
      "hit": false,
      "t": 110476.07999999984,
      "d": 122.02368749999732,
      "v": 93
    },
    {
      "midi": 67,
      "hit": false,
      "t": 110476.07999999984,
      "d": 134.9204999999929,
      "v": 93
    },
    {
      "midi": 67,
      "hit": false,
      "t": 110714.17499999983,
      "d": 134.9204999999929,
      "v": 93
    },
    {
      "midi": 72,
      "hit": false,
      "t": 110714.17499999983,
      "d": 134.9204999999929,
      "v": 93
    },
    {
      "midi": 64,
      "hit": false,
      "t": 110714.17499999983,
      "d": 149.80143749999115,
      "v": 93
    },
    {
      "midi": 48,
      "hit": false,
      "t": 111428.45999999982,
      "d": 17.857124999994994,
      "v": 93
    },
    {
      "midi": 67,
      "hit": false,
      "t": 111547.50749999982,
      "d": 149.8014375000057,
      "v": 93
    },
    {
      "midi": 72,
      "hit": false,
      "t": 111547.50749999982,
      "d": 149.8014375000057,
      "v": 93
    },
    {
      "midi": 64,
      "hit": false,
      "t": 111547.50749999982,
      "d": 161.70618750000722,
      "v": 93
    },
    {
      "midi": 64,
      "hit": false,
      "t": 111904.64999999982,
      "d": 258.9283124999929,
      "v": 93
    },
    {
      "midi": 72,
      "hit": false,
      "t": 111904.64999999982,
      "d": 288.6901874999894,
      "v": 93
    },
    {
      "midi": 67,
      "hit": false,
      "t": 111904.64999999982,
      "d": 333.33299999998417,
      "v": 93
    },
    {
      "midi": 65,
      "hit": false,
      "t": 112380.83999999981,
      "d": 115.07924999999523,
      "v": 93
    },
    {
      "midi": 62,
      "hit": false,
      "t": 112380.83999999981,
      "d": 129.96018749999348,
      "v": 93
    },
    {
      "midi": 69,
      "hit": false,
      "t": 112380.83999999981,
      "d": 129.96018749999348,
      "v": 93
    },
    {
      "midi": 72,
      "hit": false,
      "t": 112380.83999999981,
      "d": 129.96018749999348,
      "v": 93
    },
    {
      "midi": 65,
      "hit": false,
      "t": 112618.9349999998,
      "d": 115.07924999999523,
      "v": 93
    },
    {
      "midi": 72,
      "hit": false,
      "t": 112618.9349999998,
      "d": 144.84112499999173,
      "v": 93
    },
    {
      "midi": 62,
      "hit": false,
      "t": 112618.9349999998,
      "d": 159.72206249999,
      "v": 93
    },
    {
      "midi": 69,
      "hit": false,
      "t": 112618.9349999998,
      "d": 159.72206249999,
      "v": 93
    },
    {
      "midi": 50,
      "hit": false,
      "t": 113333.21999999978,
      "d": 17.857124999994994,
      "v": 93
    },
    {
      "midi": 65,
      "hit": false,
      "t": 113452.26749999978,
      "d": 32.73806249999325,
      "v": 83
    },
    {
      "midi": 69,
      "hit": false,
      "t": 113452.26749999978,
      "d": 72.42056249998859,
      "v": 93
    },
    {
      "midi": 72,
      "hit": false,
      "t": 113452.26749999978,
      "d": 87.30149999998685,
      "v": 93
    },
    {
      "midi": 62,
      "hit": false,
      "t": 113452.26749999978,
      "d": 102.1824374999851,
      "v": 93
    },
    {
      "midi": 69,
      "hit": false,
      "t": 113809.40999999977,
      "d": 209.32518749999872,
      "v": 93
    },
    {
      "midi": 65,
      "hit": false,
      "t": 113809.40999999977,
      "d": 221.22993750000023,
      "v": 93
    },
    {
      "midi": 72,
      "hit": false,
      "t": 113809.40999999977,
      "d": 221.22993750000023,
      "v": 93
    },
    {
      "midi": 62,
      "hit": false,
      "t": 113809.40999999977,
      "d": 268.8489375000063,
      "v": 93
    },
    {
      "midi": 65,
      "hit": false,
      "t": 114285.59999999977,
      "d": 90.27768749999814,
      "v": 93
    },
    {
      "midi": 67,
      "hit": false,
      "t": 114285.59999999977,
      "d": 105.15862499999639,
      "v": 93
    },
    {
      "midi": 71,
      "hit": false,
      "t": 114285.59999999977,
      "d": 105.15862499999639,
      "v": 93
    },
    {
      "midi": 62,
      "hit": false,
      "t": 114285.59999999977,
      "d": 131.94431249999616,
      "v": 93
    },
    {
      "midi": 65,
      "hit": false,
      "t": 114523.69499999977,
      "d": 105.15862499999639,
      "v": 93
    },
    {
      "midi": 71,
      "hit": false,
      "t": 114523.69499999977,
      "d": 105.15862499999639,
      "v": 93
    },
    {
      "midi": 62,
      "hit": false,
      "t": 114523.69499999977,
      "d": 120.03956249999464,
      "v": 93
    },
    {
      "midi": 67,
      "hit": false,
      "t": 114523.69499999977,
      "d": 131.94431249999616,
      "v": 93
    },
    {
      "midi": 55,
      "hit": false,
      "t": 115237.97999999978,
      "d": 20.833312500006286,
      "v": 93
    },
    {
      "midi": 71,
      "hit": false,
      "t": 115357.02749999978,
      "d": 105.15862499999639,
      "v": 93
    },
    {
      "midi": 65,
      "hit": false,
      "t": 115357.02749999978,
      "d": 134.9204999999929,
      "v": 93
    },
    {
      "midi": 67,
      "hit": false,
      "t": 115357.02749999978,
      "d": 146.8252499999944,
      "v": 93
    },
    {
      "midi": 62,
      "hit": false,
      "t": 115357.02749999978,
      "d": 161.70618749999267,
      "v": 93
    },
    {
      "midi": 65,
      "hit": false,
      "t": 115714.16999999977,
      "d": 273.8092500000057,
      "v": 93
    },
    {
      "midi": 71,
      "hit": false,
      "t": 115714.16999999977,
      "d": 273.8092500000057,
      "v": 93
    },
    {
      "midi": 62,
      "hit": false,
      "t": 115714.16999999977,
      "d": 288.69018750000396,
      "v": 93
    },
    {
      "midi": 67,
      "hit": false,
      "t": 115714.16999999977,
      "d": 288.69018750000396,
      "v": 93
    },
    {
      "midi": 64,
      "hit": false,
      "t": 116190.35999999977,
      "d": 120.03956249999464,
      "v": 93
    },
    {
      "midi": 72,
      "hit": false,
      "t": 116190.35999999977,
      "d": 122.02368749999732,
      "v": 93
    },
    {
      "midi": 67,
      "hit": false,
      "t": 116190.35999999977,
      "d": 134.9204999999929,
      "v": 93
    },
    {
      "midi": 67,
      "hit": false,
      "t": 116428.45499999975,
      "d": 134.9204999999929,
      "v": 93
    },
    {
      "midi": 72,
      "hit": false,
      "t": 116428.45499999975,
      "d": 134.9204999999929,
      "v": 93
    },
    {
      "midi": 64,
      "hit": false,
      "t": 116428.45499999975,
      "d": 149.80143749999115,
      "v": 93
    },
    {
      "midi": 48,
      "hit": false,
      "t": 117142.73999999974,
      "d": 17.857124999994994,
      "v": 93
    },
    {
      "midi": 67,
      "hit": false,
      "t": 117261.78749999974,
      "d": 149.8014375000057,
      "v": 93
    },
    {
      "midi": 72,
      "hit": false,
      "t": 117261.78749999974,
      "d": 149.8014375000057,
      "v": 93
    },
    {
      "midi": 64,
      "hit": false,
      "t": 117261.78749999974,
      "d": 161.70618750000722,
      "v": 93
    },
    {
      "midi": 64,
      "hit": false,
      "t": 117618.92999999975,
      "d": 258.9283124999929,
      "v": 93
    },
    {
      "midi": 72,
      "hit": false,
      "t": 117618.92999999975,
      "d": 288.6901874999894,
      "v": 93
    },
    {
      "midi": 67,
      "hit": false,
      "t": 117618.92999999975,
      "d": 333.33299999998417,
      "v": 93
    },
    {
      "midi": 60,
      "hit": false,
      "t": 118095.11999999973,
      "d": 112.10306249999849,
      "v": 93
    },
    {
      "midi": 64,
      "hit": false,
      "t": 118095.11999999973,
      "d": 112.10306249999849,
      "v": 93
    },
    {
      "midi": 69,
      "hit": false,
      "t": 118095.11999999973,
      "d": 112.10306249999849,
      "v": 93
    },
    {
      "midi": 67,
      "hit": false,
      "t": 118095.11999999973,
      "d": 126.98399999999674,
      "v": 93
    },
    {
      "midi": 69,
      "hit": false,
      "t": 118333.21499999973,
      "d": 124.99987499999406,
      "v": 93
    },
    {
      "midi": 60,
      "hit": false,
      "t": 118333.21499999973,
      "d": 139.88081249999232,
      "v": 93
    },
    {
      "midi": 64,
      "hit": false,
      "t": 118333.21499999973,
      "d": 139.88081249999232,
      "v": 93
    },
    {
      "midi": 67,
      "hit": false,
      "t": 118333.21499999973,
      "d": 139.88081249999232,
      "v": 93
    },
    {
      "midi": 45,
      "hit": false,
      "t": 119047.49999999972,
      "d": 25.793625000005704,
      "v": 83
    },
    {
      "midi": 67,
      "hit": false,
      "t": 119166.54749999972,
      "d": 105.15862499999639,
      "v": 93
    },
    {
      "midi": 69,
      "hit": false,
      "t": 119166.54749999972,
      "d": 105.15862499999639,
      "v": 93
    },
    {
      "midi": 64,
      "hit": false,
      "t": 119166.54749999972,
      "d": 134.9204999999929,
      "v": 93
    },
    {
      "midi": 60,
      "hit": false,
      "t": 119166.54749999972,
      "d": 159.72206249999,
      "v": 93
    },
    {
      "midi": 64,
      "hit": false,
      "t": 119523.68999999971,
      "d": 325.39650000000256,
      "v": 93
    },
    {
      "midi": 67,
      "hit": false,
      "t": 119523.68999999971,
      "d": 340.2774375000008,
      "v": 93
    },
    {
      "midi": 60,
      "hit": false,
      "t": 119523.68999999971,
      "d": 353.1742499999964,
      "v": 93
    },
    {
      "midi": 69,
      "hit": false,
      "t": 119523.68999999971,
      "d": 353.1742499999964,
      "v": 93
    },
    {
      "midi": 65,
      "hit": false,
      "t": 119999.87999999971,
      "d": 115.07924999999523,
      "v": 93
    },
    {
      "midi": 62,
      "hit": false,
      "t": 119999.87999999971,
      "d": 129.96018749999348,
      "v": 93
    },
    {
      "midi": 69,
      "hit": false,
      "t": 119999.87999999971,
      "d": 129.96018749999348,
      "v": 93
    },
    {
      "midi": 72,
      "hit": false,
      "t": 119999.87999999971,
      "d": 129.96018749999348,
      "v": 93
    },
    {
      "midi": 65,
      "hit": false,
      "t": 120237.9749999997,
      "d": 115.07924999999523,
      "v": 93
    },
    {
      "midi": 72,
      "hit": false,
      "t": 120237.9749999997,
      "d": 144.84112499999173,
      "v": 93
    },
    {
      "midi": 62,
      "hit": false,
      "t": 120237.9749999997,
      "d": 159.72206249999,
      "v": 93
    },
    {
      "midi": 69,
      "hit": false,
      "t": 120237.9749999997,
      "d": 159.72206249999,
      "v": 93
    },
    {
      "midi": 50,
      "hit": false,
      "t": 120952.25999999969,
      "d": 17.857124999994994,
      "v": 93
    },
    {
      "midi": 65,
      "hit": false,
      "t": 121071.30749999969,
      "d": 32.73806249999325,
      "v": 83
    },
    {
      "midi": 69,
      "hit": false,
      "t": 121071.30749999969,
      "d": 72.42056249998859,
      "v": 93
    },
    {
      "midi": 72,
      "hit": false,
      "t": 121071.30749999969,
      "d": 87.30149999998685,
      "v": 93
    },
    {
      "midi": 62,
      "hit": false,
      "t": 121071.30749999969,
      "d": 102.1824374999851,
      "v": 93
    },
    {
      "midi": 69,
      "hit": false,
      "t": 121428.44999999968,
      "d": 209.32518749999872,
      "v": 93
    },
    {
      "midi": 65,
      "hit": false,
      "t": 121428.44999999968,
      "d": 221.22993750000023,
      "v": 93
    },
    {
      "midi": 72,
      "hit": false,
      "t": 121428.44999999968,
      "d": 221.22993750000023,
      "v": 93
    },
    {
      "midi": 62,
      "hit": false,
      "t": 121428.44999999968,
      "d": 268.8489375000063,
      "v": 93
    },
    {
      "midi": 65,
      "hit": false,
      "t": 121904.63999999968,
      "d": 90.27768749999814,
      "v": 93
    },
    {
      "midi": 67,
      "hit": false,
      "t": 121904.63999999968,
      "d": 105.15862499999639,
      "v": 93
    },
    {
      "midi": 71,
      "hit": false,
      "t": 121904.63999999968,
      "d": 105.15862499999639,
      "v": 93
    },
    {
      "midi": 62,
      "hit": false,
      "t": 121904.63999999968,
      "d": 131.94431249999616,
      "v": 93
    },
    {
      "midi": 65,
      "hit": false,
      "t": 122142.73499999968,
      "d": 105.15862499999639,
      "v": 93
    },
    {
      "midi": 71,
      "hit": false,
      "t": 122142.73499999968,
      "d": 105.15862499999639,
      "v": 93
    },
    {
      "midi": 62,
      "hit": false,
      "t": 122142.73499999968,
      "d": 120.03956249999464,
      "v": 93
    },
    {
      "midi": 67,
      "hit": false,
      "t": 122142.73499999968,
      "d": 131.94431249999616,
      "v": 93
    },
    {
      "midi": 55,
      "hit": false,
      "t": 122857.01999999967,
      "d": 20.833312500006286,
      "v": 93
    },
    {
      "midi": 71,
      "hit": false,
      "t": 122976.06749999967,
      "d": 105.15862499999639,
      "v": 93
    },
    {
      "midi": 65,
      "hit": false,
      "t": 122976.06749999967,
      "d": 134.9204999999929,
      "v": 93
    },
    {
      "midi": 67,
      "hit": false,
      "t": 122976.06749999967,
      "d": 146.8252499999944,
      "v": 93
    },
    {
      "midi": 62,
      "hit": false,
      "t": 122976.06749999967,
      "d": 161.70618749999267,
      "v": 93
    },
    {
      "midi": 65,
      "hit": false,
      "t": 123333.20999999966,
      "d": 273.8092500000057,
      "v": 93
    },
    {
      "midi": 71,
      "hit": false,
      "t": 123333.20999999966,
      "d": 273.8092500000057,
      "v": 93
    },
    {
      "midi": 62,
      "hit": false,
      "t": 123333.20999999966,
      "d": 288.69018750000396,
      "v": 93
    },
    {
      "midi": 67,
      "hit": false,
      "t": 123333.20999999966,
      "d": 288.69018750000396,
      "v": 93
    },
    {
      "midi": 64,
      "hit": false,
      "t": 123809.39999999966,
      "d": 120.03956249999464,
      "v": 93
    },
    {
      "midi": 72,
      "hit": false,
      "t": 123809.39999999966,
      "d": 122.02368749999732,
      "v": 93
    },
    {
      "midi": 67,
      "hit": false,
      "t": 123809.39999999966,
      "d": 134.9204999999929,
      "v": 93
    },
    {
      "midi": 67,
      "hit": false,
      "t": 124047.49499999965,
      "d": 134.9204999999929,
      "v": 93
    },
    {
      "midi": 72,
      "hit": false,
      "t": 124047.49499999965,
      "d": 134.9204999999929,
      "v": 93
    },
    {
      "midi": 64,
      "hit": false,
      "t": 124047.49499999965,
      "d": 149.80143749999115,
      "v": 93
    },
    {
      "midi": 48,
      "hit": false,
      "t": 124761.77999999964,
      "d": 17.857124999994994,
      "v": 93
    },
    {
      "midi": 67,
      "hit": false,
      "t": 124880.82749999964,
      "d": 149.8014375000057,
      "v": 93
    },
    {
      "midi": 72,
      "hit": false,
      "t": 124880.82749999964,
      "d": 149.8014375000057,
      "v": 93
    },
    {
      "midi": 64,
      "hit": false,
      "t": 124880.82749999964,
      "d": 161.70618750000722,
      "v": 93
    },
    {
      "midi": 64,
      "hit": false,
      "t": 125237.96999999964,
      "d": 258.9283124999929,
      "v": 93
    },
    {
      "midi": 72,
      "hit": false,
      "t": 125237.96999999964,
      "d": 288.6901874999894,
      "v": 93
    },
    {
      "midi": 67,
      "hit": false,
      "t": 125237.96999999964,
      "d": 333.33299999998417,
      "v": 93
    },
    {
      "midi": 64,
      "hit": false,
      "t": 125714.15999999963,
      "d": 120.03956249999464,
      "v": 93
    },
    {
      "midi": 72,
      "hit": false,
      "t": 125714.15999999963,
      "d": 122.02368749999732,
      "v": 93
    },
    {
      "midi": 67,
      "hit": false,
      "t": 125714.15999999963,
      "d": 134.9204999999929,
      "v": 93
    },
    {
      "midi": 67,
      "hit": false,
      "t": 125952.25499999961,
      "d": 134.9204999999929,
      "v": 93
    },
    {
      "midi": 72,
      "hit": false,
      "t": 125952.25499999961,
      "d": 134.9204999999929,
      "v": 93
    },
    {
      "midi": 64,
      "hit": false,
      "t": 125952.25499999961,
      "d": 149.80143749999115,
      "v": 93
    },
    {
      "midi": 48,
      "hit": false,
      "t": 126666.5399999996,
      "d": 17.857124999994994,
      "v": 93
    },
    {
      "midi": 67,
      "hit": false,
      "t": 126785.5874999996,
      "d": 149.8014375000057,
      "v": 93
    },
    {
      "midi": 72,
      "hit": false,
      "t": 126785.5874999996,
      "d": 149.8014375000057,
      "v": 93
    },
    {
      "midi": 64,
      "hit": false,
      "t": 126785.5874999996,
      "d": 161.70618750000722,
      "v": 93
    },
    {
      "midi": 64,
      "hit": false,
      "t": 127142.7299999996,
      "d": 258.9283124999929,
      "v": 93
    },
    {
      "midi": 72,
      "hit": false,
      "t": 127142.7299999996,
      "d": 288.6901874999894,
      "v": 93
    },
    {
      "midi": 67,
      "hit": false,
      "t": 127142.7299999996,
      "d": 333.33299999998417,
      "v": 93
    },
    {
      "midi": 70,
      "hit": false,
      "t": 127618.91999999959,
      "d": 57.53962500000489,
      "v": 93
    },
    {
      "midi": 60,
      "hit": false,
      "t": 127618.91999999959,
      "d": 77.38087500000256,
      "v": 90
    },
    {
      "midi": 64,
      "hit": false,
      "t": 127618.91999999959,
      "d": 77.38087500000256,
      "v": 93
    },
    {
      "midi": 67,
      "hit": false,
      "t": 127618.91999999959,
      "d": 92.26181250000081,
      "v": 90
    },
    {
      "midi": 64,
      "hit": false,
      "t": 127857.01499999959,
      "d": 77.38087500000256,
      "v": 100
    },
    {
      "midi": 70,
      "hit": false,
      "t": 127857.01499999959,
      "d": 80.3570624999993,
      "v": 100
    },
    {
      "midi": 60,
      "hit": false,
      "t": 127857.01499999959,
      "d": 100.19831249999697,
      "v": 100
    },
    {
      "midi": 67,
      "hit": false,
      "t": 127857.01499999959,
      "d": 100.19831249999697,
      "v": 100
    },
    {
      "midi": 64,
      "hit": false,
      "t": 128095.1099999996,
      "d": 144.8411250000063,
      "v": 93
    },
    {
      "midi": 70,
      "hit": false,
      "t": 128095.1099999996,
      "d": 144.8411250000063,
      "v": 93
    },
    {
      "midi": 67,
      "hit": false,
      "t": 128095.1099999996,
      "d": 164.68237500000396,
      "v": 86
    },
    {
      "midi": 60,
      "hit": false,
      "t": 128095.1099999996,
      "d": 166.66650000000664,
      "v": 93
    },
    {
      "midi": 70,
      "hit": false,
      "t": 128452.2524999996,
      "d": 80.3570624999993,
      "v": 93
    },
    {
      "midi": 64,
      "hit": false,
      "t": 128452.2524999996,
      "d": 97.22212500000023,
      "v": 93
    },
    {
      "midi": 67,
      "hit": false,
      "t": 128452.2524999996,
      "d": 97.22212500000023,
      "v": 93
    },
    {
      "midi": 60,
      "hit": false,
      "t": 128452.2524999996,
      "d": 122.02368749999732,
      "v": 84
    },
    {
      "midi": 60,
      "hit": false,
      "t": 128809.3949999996,
      "d": 57.53962500000489,
      "v": 107
    },
    {
      "midi": 70,
      "hit": false,
      "t": 128809.3949999996,
      "d": 57.53962500000489,
      "v": 107
    },
    {
      "midi": 64,
      "hit": false,
      "t": 128809.3949999996,
      "d": 100.19831250001153,
      "v": 107
    },
    {
      "midi": 67,
      "hit": false,
      "t": 128809.3949999996,
      "d": 100.19831250001153,
      "v": 107
    },
    {
      "midi": 60,
      "hit": false,
      "t": 129047.48999999961,
      "d": 87.3015000000014,
      "v": 84
    },
    {
      "midi": 64,
      "hit": false,
      "t": 129047.48999999961,
      "d": 87.3015000000014,
      "v": 93
    },
    {
      "midi": 70,
      "hit": false,
      "t": 129047.48999999961,
      "d": 87.3015000000014,
      "v": 93
    },
    {
      "midi": 67,
      "hit": false,
      "t": 129047.48999999961,
      "d": 107.14274999999907,
      "v": 86
    },
    {
      "midi": 70,
      "hit": false,
      "t": 129285.58499999961,
      "d": 65.47612500000105,
      "v": 114
    },
    {
      "midi": 64,
      "hit": false,
      "t": 129285.58499999961,
      "d": 82.34118750000198,
      "v": 114
    },
    {
      "midi": 60,
      "hit": false,
      "t": 129285.58499999961,
      "d": 105.15862499999639,
      "v": 114
    },
    {
      "midi": 67,
      "hit": false,
      "t": 129285.58499999961,
      "d": 105.15862499999639,
      "v": 114
    },
    {
      "midi": 70,
      "hit": false,
      "t": 129523.67999999961,
      "d": 75.39674999999988,
      "v": 93
    },
    {
      "midi": 67,
      "hit": false,
      "t": 129523.67999999961,
      "d": 77.38087500000256,
      "v": 86
    },
    {
      "midi": 60,
      "hit": false,
      "t": 129523.67999999961,
      "d": 95.23799999999756,
      "v": 86
    },
    {
      "midi": 64,
      "hit": false,
      "t": 129523.67999999961,
      "d": 95.23799999999756,
      "v": 93
    },
    {
      "midi": 60,
      "hit": false,
      "t": 129761.77499999962,
      "d": 97.22212500000023,
      "v": 107
    },
    {
      "midi": 64,
      "hit": false,
      "t": 129761.77499999962,
      "d": 97.22212500000023,
      "v": 107
    },
    {
      "midi": 70,
      "hit": false,
      "t": 129761.77499999962,
      "d": 97.22212500000023,
      "v": 107
    },
    {
      "midi": 67,
      "hit": false,
      "t": 129761.77499999962,
      "d": 117.0633749999979,
      "v": 107
    },
    {
      "midi": 67,
      "hit": false,
      "t": 129999.86999999962,
      "d": 117.0633749999979,
      "v": 86
    },
    {
      "midi": 64,
      "hit": false,
      "t": 129999.86999999962,
      "d": 136.90462499999558,
      "v": 93
    },
    {
      "midi": 70,
      "hit": false,
      "t": 129999.86999999962,
      "d": 156.74587499999325,
      "v": 93
    },
    {
      "midi": 60,
      "hit": false,
      "t": 129999.86999999962,
      "d": 159.72206249999,
      "v": 86
    },
    {
      "midi": 70,
      "hit": false,
      "t": 130357.0124999996,
      "d": 80.3570624999993,
      "v": 93
    },
    {
      "midi": 60,
      "hit": false,
      "t": 130357.0124999996,
      "d": 100.19831249999697,
      "v": 86
    },
    {
      "midi": 64,
      "hit": false,
      "t": 130357.0124999996,
      "d": 100.19831249999697,
      "v": 93
    },
    {
      "midi": 67,
      "hit": false,
      "t": 130357.0124999996,
      "d": 100.19831249999697,
      "v": 93
    },
    {
      "midi": 64,
      "hit": false,
      "t": 130714.1549999996,
      "d": 77.38087500000256,
      "v": 114
    },
    {
      "midi": 70,
      "hit": false,
      "t": 130714.1549999996,
      "d": 77.38087500000256,
      "v": 114
    },
    {
      "midi": 67,
      "hit": false,
      "t": 130714.1549999996,
      "d": 97.22212500000023,
      "v": 114
    },
    {
      "midi": 60,
      "hit": false,
      "t": 130714.1549999996,
      "d": 117.0633749999979,
      "v": 114
    },
    {
      "midi": 70,
      "hit": false,
      "t": 130952.2499999996,
      "d": 65.47612500000105,
      "v": 93
    },
    {
      "midi": 60,
      "hit": false,
      "t": 130952.2499999996,
      "d": 85.31737499999872,
      "v": 84
    },
    {
      "midi": 64,
      "hit": false,
      "t": 130952.2499999996,
      "d": 85.31737499999872,
      "v": 93
    },
    {
      "midi": 67,
      "hit": false,
      "t": 130952.2499999996,
      "d": 85.31737499999872,
      "v": 90
    },
    {
      "midi": 60,
      "hit": false,
      "t": 131190.3449999996,
      "d": 57.53962500000489,
      "v": 114
    },
    {
      "midi": 64,
      "hit": false,
      "t": 131190.3449999996,
      "d": 57.53962500000489,
      "v": 114
    },
    {
      "midi": 70,
      "hit": false,
      "t": 131190.3449999996,
      "d": 57.53962500000489,
      "v": 114
    },
    {
      "midi": 67,
      "hit": false,
      "t": 131190.3449999996,
      "d": 82.34118750001653,
      "v": 114
    },
    {
      "midi": 65,
      "hit": false,
      "t": 131428.43999999962,
      "d": 62.499937499989755,
      "v": 93
    },
    {
      "midi": 69,
      "hit": false,
      "t": 131428.43999999962,
      "d": 62.499937499989755,
      "v": 93
    },
    {
      "midi": 60,
      "hit": false,
      "t": 131428.43999999962,
      "d": 82.34118749998743,
      "v": 93
    },
    {
      "midi": 60,
      "hit": false,
      "t": 131666.53499999963,
      "d": 77.38087500000256,
      "v": 107
    },
    {
      "midi": 65,
      "hit": false,
      "t": 131666.53499999963,
      "d": 77.38087500000256,
      "v": 107
    },
    {
      "midi": 69,
      "hit": false,
      "t": 131666.53499999963,
      "d": 77.38087500000256,
      "v": 107
    },
    {
      "midi": 69,
      "hit": false,
      "t": 131904.62999999963,
      "d": 134.92050000000745,
      "v": 93
    },
    {
      "midi": 65,
      "hit": false,
      "t": 131904.62999999963,
      "d": 156.74587499999325,
      "v": 93
    },
    {
      "midi": 60,
      "hit": false,
      "t": 131904.62999999963,
      "d": 176.58712499999092,
      "v": 90
    },
    {
      "midi": 65,
      "hit": false,
      "t": 132261.7724999996,
      "d": 55.55549999998766,
      "v": 93
    },
    {
      "midi": 60,
      "hit": false,
      "t": 132261.7724999996,
      "d": 75.39674999998533,
      "v": 93
    },
    {
      "midi": 69,
      "hit": false,
      "t": 132261.7724999996,
      "d": 75.39674999998533,
      "v": 93
    },
    {
      "midi": 69,
      "hit": false,
      "t": 132618.9149999996,
      "d": 55.55549999998766,
      "v": 110
    },
    {
      "midi": 60,
      "hit": false,
      "t": 132618.9149999996,
      "d": 75.39674999998533,
      "v": 110
    },
    {
      "midi": 65,
      "hit": false,
      "t": 132618.9149999996,
      "d": 92.26181249998626,
      "v": 110
    },
    {
      "midi": 60,
      "hit": false,
      "t": 132857.00999999957,
      "d": 75.39675000001444,
      "v": 93
    },
    {
      "midi": 69,
      "hit": false,
      "t": 132857.00999999957,
      "d": 77.38087500000256,
      "v": 93
    },
    {
      "midi": 65,
      "hit": false,
      "t": 132857.00999999957,
      "d": 97.22212500000023,
      "v": 93
    },
    {
      "midi": 60,
      "hit": false,
      "t": 133095.10499999957,
      "d": 57.53962500000489,
      "v": 110
    },
    {
      "midi": 65,
      "hit": false,
      "t": 133095.10499999957,
      "d": 57.53962500000489,
      "v": 110
    },
    {
      "midi": 69,
      "hit": false,
      "t": 133095.10499999957,
      "d": 57.53962500000489,
      "v": 110
    },
    {
      "midi": 69,
      "hit": false,
      "t": 133333.19999999958,
      "d": 60.51581250000163,
      "v": 93
    },
    {
      "midi": 60,
      "hit": false,
      "t": 133333.19999999958,
      "d": 77.38087500000256,
      "v": 93
    },
    {
      "midi": 65,
      "hit": false,
      "t": 133333.19999999958,
      "d": 77.38087500000256,
      "v": 93
    },
    {
      "midi": 69,
      "hit": false,
      "t": 133571.29499999958,
      "d": 37.69837500000722,
      "v": 104
    },
    {
      "midi": 60,
      "hit": false,
      "t": 133571.29499999958,
      "d": 57.53962500000489,
      "v": 104
    },
    {
      "midi": 65,
      "hit": false,
      "t": 133571.29499999958,
      "d": 57.53962500000489,
      "v": 104
    },
    {
      "midi": 69,
      "hit": false,
      "t": 133809.38999999958,
      "d": 136.90462499999558,
      "v": 93
    },
    {
      "midi": 65,
      "hit": false,
      "t": 133809.38999999958,
      "d": 156.74587499999325,
      "v": 93
    },
    {
      "midi": 60,
      "hit": false,
      "t": 133809.38999999958,
      "d": 161.70618750000722,
      "v": 93
    },
    {
      "midi": 60,
      "hit": false,
      "t": 134166.5324999996,
      "d": 126.98399999999674,
      "v": 84
    },
    {
      "midi": 65,
      "hit": false,
      "t": 134166.5324999996,
      "d": 126.98399999999674,
      "v": 93
    },
    {
      "midi": 69,
      "hit": false,
      "t": 134166.5324999996,
      "d": 126.98399999999674,
      "v": 84
    },
    {
      "midi": 65,
      "hit": false,
      "t": 134523.67499999958,
      "d": 80.3570624999993,
      "v": 107
    },
    {
      "midi": 69,
      "hit": false,
      "t": 134523.67499999958,
      "d": 80.3570624999993,
      "v": 107
    },
    {
      "midi": 60,
      "hit": false,
      "t": 134523.67499999958,
      "d": 124.99987500000861,
      "v": 107
    },
    {
      "midi": 60,
      "hit": false,
      "t": 134761.76999999958,
      "d": 67.46025000000373,
      "v": 86
    },
    {
      "midi": 65,
      "hit": false,
      "t": 134761.76999999958,
      "d": 67.46025000000373,
      "v": 93
    },
    {
      "midi": 69,
      "hit": false,
      "t": 134761.76999999958,
      "d": 67.46025000000373,
      "v": 86
    },
    {
      "midi": 65,
      "hit": false,
      "t": 134999.86499999958,
      "d": 37.69837500000722,
      "v": 107
    },
    {
      "midi": 60,
      "hit": false,
      "t": 134999.86499999958,
      "d": 40.67456250000396,
      "v": 107
    },
    {
      "midi": 69,
      "hit": false,
      "t": 134999.86499999958,
      "d": 57.53962500000489,
      "v": 107
    },
    {
      "midi": 71,
      "hit": false,
      "t": 135237.95999999958,
      "d": 102.1824375000142,
      "v": 93
    },
    {
      "midi": 66,
      "hit": false,
      "t": 135237.95999999958,
      "d": 120.03956250002375,
      "v": 93
    },
    {
      "midi": 60,
      "hit": false,
      "t": 135237.95999999958,
      "d": 139.88081250002142,
      "v": 86
    },
    {
      "midi": 66,
      "hit": false,
      "t": 135476.05499999961,
      "d": 97.22212500000023,
      "v": 107
    },
    {
      "midi": 71,
      "hit": false,
      "t": 135476.05499999961,
      "d": 97.22212500000023,
      "v": 107
    },
    {
      "midi": 60,
      "hit": false,
      "t": 135476.05499999961,
      "d": 117.0633749999979,
      "v": 107
    },
    {
      "midi": 66,
      "hit": false,
      "t": 135714.14999999962,
      "d": 201.38868750000256,
      "v": 93
    },
    {
      "midi": 60,
      "hit": false,
      "t": 135714.14999999962,
      "d": 221.22993750000023,
      "v": 90
    },
    {
      "midi": 71,
      "hit": false,
      "t": 135714.14999999962,
      "d": 221.22993750000023,
      "v": 93
    },
    {
      "midi": 71,
      "hit": false,
      "t": 136071.2924999996,
      "d": 95.23800000001211,
      "v": 93
    },
    {
      "midi": 60,
      "hit": false,
      "t": 136071.2924999996,
      "d": 117.0633749999979,
      "v": 90
    },
    {
      "midi": 66,
      "hit": false,
      "t": 136071.2924999996,
      "d": 117.0633749999979,
      "v": 93
    },
    {
      "midi": 60,
      "hit": false,
      "t": 136428.4349999996,
      "d": 47.619000000006054,
      "v": 107
    },
    {
      "midi": 71,
      "hit": false,
      "t": 136428.4349999996,
      "d": 47.619000000006054,
      "v": 107
    },
    {
      "midi": 66,
      "hit": false,
      "t": 136428.4349999996,
      "d": 97.22212500000023,
      "v": 107
    },
    {
      "midi": 71,
      "hit": false,
      "t": 136666.5299999996,
      "d": 85.31737500001327,
      "v": 91
    },
    {
      "midi": 60,
      "hit": false,
      "t": 136666.5299999996,
      "d": 100.19831250002608,
      "v": 84
    },
    {
      "midi": 66,
      "hit": false,
      "t": 136666.5299999996,
      "d": 100.19831250002608,
      "v": 93
    },
    {
      "midi": 71,
      "hit": false,
      "t": 136904.62499999962,
      "d": 77.38087500000256,
      "v": 114
    },
    {
      "midi": 60,
      "hit": false,
      "t": 136904.62499999962,
      "d": 117.0633749999979,
      "v": 114
    },
    {
      "midi": 66,
      "hit": false,
      "t": 136904.62499999962,
      "d": 117.0633749999979,
      "v": 114
    },
    {
      "midi": 71,
      "hit": false,
      "t": 137142.71999999962,
      "d": 77.38087500000256,
      "v": 93
    },
    {
      "midi": 66,
      "hit": false,
      "t": 137142.71999999962,
      "d": 97.22212500000023,
      "v": 93
    },
    {
      "midi": 60,
      "hit": false,
      "t": 137142.71999999962,
      "d": 117.0633749999979,
      "v": 86
    },
    {
      "midi": 71,
      "hit": false,
      "t": 137380.81499999962,
      "d": 77.38087500000256,
      "v": 114
    },
    {
      "midi": 60,
      "hit": false,
      "t": 137380.81499999962,
      "d": 97.22212500000023,
      "v": 114
    },
    {
      "midi": 66,
      "hit": false,
      "t": 137380.81499999962,
      "d": 97.22212500000023,
      "v": 114
    },
    {
      "midi": 66,
      "hit": false,
      "t": 137618.90999999963,
      "d": 176.58712499999092,
      "v": 93
    },
    {
      "midi": 60,
      "hit": false,
      "t": 137618.90999999963,
      "d": 216.26962499998626,
      "v": 90
    },
    {
      "midi": 71,
      "hit": false,
      "t": 137618.90999999963,
      "d": 219.245812499983,
      "v": 93
    },
    {
      "midi": 71,
      "hit": false,
      "t": 137976.0524999996,
      "d": 60.51581250000163,
      "v": 93
    },
    {
      "midi": 60,
      "hit": false,
      "t": 137976.0524999996,
      "d": 100.19831249999697,
      "v": 90
    },
    {
      "midi": 66,
      "hit": false,
      "t": 137976.0524999996,
      "d": 120.03956249999464,
      "v": 93
    },
    {
      "midi": 71,
      "hit": false,
      "t": 138333.1949999996,
      "d": 110.11893749999581,
      "v": 110
    },
    {
      "midi": 60,
      "hit": false,
      "t": 138333.1949999996,
      "d": 129.96018749999348,
      "v": 110
    },
    {
      "midi": 66,
      "hit": false,
      "t": 138333.1949999996,
      "d": 129.96018749999348,
      "v": 110
    },
    {
      "midi": 71,
      "hit": false,
      "t": 138571.2899999996,
      "d": 77.38087500000256,
      "v": 93
    },
    {
      "midi": 60,
      "hit": false,
      "t": 138571.2899999996,
      "d": 97.22212500000023,
      "v": 84
    },
    {
      "midi": 66,
      "hit": false,
      "t": 138571.2899999996,
      "d": 97.22212500000023,
      "v": 93
    },
    {
      "midi": 60,
      "hit": false,
      "t": 138809.3849999996,
      "d": 42.658687499992084,
      "v": 107
    },
    {
      "midi": 66,
      "hit": false,
      "t": 138809.3849999996,
      "d": 42.658687499992084,
      "v": 107
    },
    {
      "midi": 71,
      "hit": false,
      "t": 138809.3849999996,
      "d": 82.34118749998743,
      "v": 107
    },
    {
      "midi": 67,
      "hit": false,
      "t": 139047.4799999996,
      "d": 57.53962500000489,
      "v": 84
    },
    {
      "midi": 65,
      "hit": false,
      "t": 139047.4799999996,
      "d": 60.51581250000163,
      "v": 84
    },
    {
      "midi": 71,
      "hit": false,
      "t": 139047.4799999996,
      "d": 77.38087500000256,
      "v": 93
    },
    {
      "midi": 62,
      "hit": false,
      "t": 139047.4799999996,
      "d": 97.22212500000023,
      "v": 84
    },
    {
      "midi": 67,
      "hit": false,
      "t": 139285.5749999996,
      "d": 57.53962500000489,
      "v": 110
    },
    {
      "midi": 65,
      "hit": false,
      "t": 139285.5749999996,
      "d": 77.38087500000256,
      "v": 110
    },
    {
      "midi": 71,
      "hit": false,
      "t": 139285.5749999996,
      "d": 77.38087500000256,
      "v": 110
    },
    {
      "midi": 62,
      "hit": false,
      "t": 139285.5749999996,
      "d": 97.22212500000023,
      "v": 110
    },
    {
      "midi": 67,
      "hit": false,
      "t": 139523.6699999996,
      "d": 97.22212500000023,
      "v": 90
    },
    {
      "midi": 65,
      "hit": false,
      "t": 139523.6699999996,
      "d": 136.90462499999558,
      "v": 90
    },
    {
      "midi": 62,
      "hit": false,
      "t": 139523.6699999996,
      "d": 139.88081249999232,
      "v": 84
    },
    {
      "midi": 71,
      "hit": false,
      "t": 139523.6699999996,
      "d": 156.74587499999325,
      "v": 91
    },
    {
      "midi": 67,
      "hit": false,
      "t": 139880.8124999996,
      "d": 77.38087500000256,
      "v": 93
    },
    {
      "midi": 71,
      "hit": false,
      "t": 139880.8124999996,
      "d": 77.38087500000256,
      "v": 93
    },
    {
      "midi": 62,
      "hit": false,
      "t": 139880.8124999996,
      "d": 97.22212500000023,
      "v": 84
    },
    {
      "midi": 65,
      "hit": false,
      "t": 139880.8124999996,
      "d": 97.22212500000023,
      "v": 93
    },
    {
      "midi": 65,
      "hit": false,
      "t": 140237.95499999958,
      "d": 80.3570624999993,
      "v": 107
    },
    {
      "midi": 67,
      "hit": false,
      "t": 140237.95499999958,
      "d": 80.3570624999993,
      "v": 107
    },
    {
      "midi": 71,
      "hit": false,
      "t": 140237.95499999958,
      "d": 80.3570624999993,
      "v": 107
    },
    {
      "midi": 62,
      "hit": false,
      "t": 140237.95499999958,
      "d": 100.19831249999697,
      "v": 107
    },
    {
      "midi": 67,
      "hit": false,
      "t": 140476.04999999958,
      "d": 57.53962500000489,
      "v": 93
    },
    {
      "midi": 71,
      "hit": false,
      "t": 140476.04999999958,
      "d": 57.53962500000489,
      "v": 84
    },
    {
      "midi": 65,
      "hit": false,
      "t": 140476.04999999958,
      "d": 77.38087500000256,
      "v": 93
    },
    {
      "midi": 62,
      "hit": false,
      "t": 140476.04999999958,
      "d": 97.22212500000023,
      "v": 84
    },
    {
      "midi": 71,
      "hit": false,
      "t": 140714.14499999958,
      "d": 40.67456250000396,
      "v": 107
    },
    {
      "midi": 67,
      "hit": false,
      "t": 140714.14499999958,
      "d": 60.51581250000163,
      "v": 107
    },
    {
      "midi": 62,
      "hit": false,
      "t": 140714.14499999958,
      "d": 77.38087500000256,
      "v": 107
    },
    {
      "midi": 65,
      "hit": false,
      "t": 140714.14499999958,
      "d": 77.38087500000256,
      "v": 107
    },
    {
      "midi": 65,
      "hit": false,
      "t": 140952.23999999958,
      "d": 75.39675000001444,
      "v": 93
    },
    {
      "midi": 67,
      "hit": false,
      "t": 140952.23999999958,
      "d": 75.39675000001444,
      "v": 90
    },
    {
      "midi": 71,
      "hit": false,
      "t": 140952.23999999958,
      "d": 75.39675000001444,
      "v": 93
    },
    {
      "midi": 62,
      "hit": false,
      "t": 140952.23999999958,
      "d": 95.23800000001211,
      "v": 84
    },
    {
      "midi": 65,
      "hit": false,
      "t": 142856.9999999996,
      "d": 115.07925000000978,
      "v": 93
    },
    {
      "midi": 62,
      "hit": false,
      "t": 142856.9999999996,
      "d": 129.96018750002258,
      "v": 93
    },
    {
      "midi": 69,
      "hit": false,
      "t": 142856.9999999996,
      "d": 129.96018750002258,
      "v": 93
    },
    {
      "midi": 72,
      "hit": false,
      "t": 142856.9999999996,
      "d": 129.96018750002258,
      "v": 93
    },
    {
      "midi": 65,
      "hit": false,
      "t": 143095.09499999962,
      "d": 115.07925000000978,
      "v": 93
    },
    {
      "midi": 72,
      "hit": false,
      "t": 143095.09499999962,
      "d": 144.8411250000063,
      "v": 93
    },
    {
      "midi": 62,
      "hit": false,
      "t": 143095.09499999962,
      "d": 159.7220625000191,
      "v": 93
    },
    {
      "midi": 69,
      "hit": false,
      "t": 143095.09499999962,
      "d": 159.7220625000191,
      "v": 93
    },
    {
      "midi": 50,
      "hit": false,
      "t": 143809.37999999966,
      "d": 17.857125000009546,
      "v": 93
    },
    {
      "midi": 65,
      "hit": false,
      "t": 143928.42749999967,
      "d": 32.73806249999325,
      "v": 83
    },
    {
      "midi": 69,
      "hit": false,
      "t": 143928.42749999967,
      "d": 72.42056249998859,
      "v": 93
    },
    {
      "midi": 72,
      "hit": false,
      "t": 143928.42749999967,
      "d": 87.3015000000014,
      "v": 93
    },
    {
      "midi": 62,
      "hit": false,
      "t": 143928.42749999967,
      "d": 102.1824375000142,
      "v": 93
    },
    {
      "midi": 69,
      "hit": false,
      "t": 144285.5699999997,
      "d": 209.32518750001327,
      "v": 93
    },
    {
      "midi": 65,
      "hit": false,
      "t": 144285.5699999997,
      "d": 221.22993750000023,
      "v": 93
    },
    {
      "midi": 72,
      "hit": false,
      "t": 144285.5699999997,
      "d": 221.22993750000023,
      "v": 93
    },
    {
      "midi": 62,
      "hit": false,
      "t": 144285.5699999997,
      "d": 268.8489375000063,
      "v": 93
    },
    {
      "midi": 65,
      "hit": false,
      "t": 144761.7599999997,
      "d": 90.27768749999814,
      "v": 93
    },
    {
      "midi": 67,
      "hit": false,
      "t": 144761.7599999997,
      "d": 105.15862500001094,
      "v": 93
    },
    {
      "midi": 71,
      "hit": false,
      "t": 144761.7599999997,
      "d": 105.15862500001094,
      "v": 93
    },
    {
      "midi": 62,
      "hit": false,
      "t": 144761.7599999997,
      "d": 131.9443125000107,
      "v": 93
    },
    {
      "midi": 65,
      "hit": false,
      "t": 144999.8549999997,
      "d": 105.15862500001094,
      "v": 93
    },
    {
      "midi": 71,
      "hit": false,
      "t": 144999.8549999997,
      "d": 105.15862500001094,
      "v": 93
    },
    {
      "midi": 62,
      "hit": false,
      "t": 144999.8549999997,
      "d": 120.03956250002375,
      "v": 93
    },
    {
      "midi": 67,
      "hit": false,
      "t": 144999.8549999997,
      "d": 131.9443125000107,
      "v": 93
    },
    {
      "midi": 55,
      "hit": false,
      "t": 145714.1399999997,
      "d": 20.833312500006286,
      "v": 93
    },
    {
      "midi": 71,
      "hit": false,
      "t": 145833.1874999997,
      "d": 105.15862500001094,
      "v": 93
    },
    {
      "midi": 65,
      "hit": false,
      "t": 145833.1874999997,
      "d": 134.92050000000745,
      "v": 93
    },
    {
      "midi": 67,
      "hit": false,
      "t": 145833.1874999997,
      "d": 146.8252499999944,
      "v": 93
    },
    {
      "midi": 62,
      "hit": false,
      "t": 145833.1874999997,
      "d": 161.70618750000722,
      "v": 93
    },
    {
      "midi": 65,
      "hit": false,
      "t": 146190.32999999973,
      "d": 273.80924999999115,
      "v": 93
    },
    {
      "midi": 71,
      "hit": false,
      "t": 146190.32999999973,
      "d": 273.80924999999115,
      "v": 93
    },
    {
      "midi": 62,
      "hit": false,
      "t": 146190.32999999973,
      "d": 288.69018750000396,
      "v": 93
    },
    {
      "midi": 67,
      "hit": false,
      "t": 146190.32999999973,
      "d": 288.69018750000396,
      "v": 93
    },
    {
      "midi": 64,
      "hit": false,
      "t": 146666.51999999973,
      "d": 120.03956249999464,
      "v": 93
    },
    {
      "midi": 72,
      "hit": false,
      "t": 146666.51999999973,
      "d": 122.02368749998277,
      "v": 93
    },
    {
      "midi": 67,
      "hit": false,
      "t": 146666.51999999973,
      "d": 134.92049999997835,
      "v": 93
    },
    {
      "midi": 67,
      "hit": false,
      "t": 146904.6149999997,
      "d": 134.92050000000745,
      "v": 93
    },
    {
      "midi": 72,
      "hit": false,
      "t": 146904.6149999997,
      "d": 134.92050000000745,
      "v": 93
    },
    {
      "midi": 64,
      "hit": false,
      "t": 146904.6149999997,
      "d": 149.80143750002026,
      "v": 93
    },
    {
      "midi": 48,
      "hit": false,
      "t": 147618.89999999973,
      "d": 17.857125000009546,
      "v": 93
    },
    {
      "midi": 67,
      "hit": false,
      "t": 147737.94749999975,
      "d": 149.80143749999115,
      "v": 93
    },
    {
      "midi": 72,
      "hit": false,
      "t": 147737.94749999975,
      "d": 149.80143749999115,
      "v": 93
    },
    {
      "midi": 64,
      "hit": false,
      "t": 147737.94749999975,
      "d": 161.7061874999781,
      "v": 93
    },
    {
      "midi": 64,
      "hit": false,
      "t": 148095.08999999973,
      "d": 258.92831250000745,
      "v": 93
    },
    {
      "midi": 72,
      "hit": false,
      "t": 148095.08999999973,
      "d": 288.69018750000396,
      "v": 93
    },
    {
      "midi": 67,
      "hit": false,
      "t": 148095.08999999973,
      "d": 333.33300000001327,
      "v": 93
    },
    {
      "midi": 60,
      "hit": false,
      "t": 148571.27999999974,
      "d": 112.10306250001304,
      "v": 93
    },
    {
      "midi": 64,
      "hit": false,
      "t": 148571.27999999974,
      "d": 112.10306250001304,
      "v": 93
    },
    {
      "midi": 69,
      "hit": false,
      "t": 148571.27999999974,
      "d": 112.10306250001304,
      "v": 93
    },
    {
      "midi": 67,
      "hit": false,
      "t": 148571.27999999974,
      "d": 126.98400000002584,
      "v": 93
    },
    {
      "midi": 69,
      "hit": false,
      "t": 148809.37499999977,
      "d": 124.99987500000861,
      "v": 93
    },
    {
      "midi": 60,
      "hit": false,
      "t": 148809.37499999977,
      "d": 139.88081250002142,
      "v": 93
    },
    {
      "midi": 64,
      "hit": false,
      "t": 148809.37499999977,
      "d": 139.88081250002142,
      "v": 93
    },
    {
      "midi": 67,
      "hit": false,
      "t": 148809.37499999977,
      "d": 139.88081250002142,
      "v": 93
    },
    {
      "midi": 45,
      "hit": false,
      "t": 149523.6599999998,
      "d": 25.793624999991152,
      "v": 83
    },
    {
      "midi": 67,
      "hit": false,
      "t": 149642.7074999998,
      "d": 105.15862500001094,
      "v": 93
    },
    {
      "midi": 69,
      "hit": false,
      "t": 149642.7074999998,
      "d": 105.15862500001094,
      "v": 93
    },
    {
      "midi": 64,
      "hit": false,
      "t": 149642.7074999998,
      "d": 134.92050000000745,
      "v": 93
    },
    {
      "midi": 60,
      "hit": false,
      "t": 149642.7074999998,
      "d": 159.7220625000191,
      "v": 93
    },
    {
      "midi": 64,
      "hit": false,
      "t": 149999.8499999998,
      "d": 325.39650000000256,
      "v": 93
    },
    {
      "midi": 67,
      "hit": false,
      "t": 149999.8499999998,
      "d": 340.27743750001537,
      "v": 93
    },
    {
      "midi": 60,
      "hit": false,
      "t": 149999.8499999998,
      "d": 353.17425000001094,
      "v": 93
    },
    {
      "midi": 69,
      "hit": false,
      "t": 149999.8499999998,
      "d": 353.17425000001094,
      "v": 93
    },
    {
      "midi": 65,
      "hit": false,
      "t": 150476.0399999998,
      "d": 115.07925000000978,
      "v": 93
    },
    {
      "midi": 62,
      "hit": false,
      "t": 150476.0399999998,
      "d": 129.96018750002258,
      "v": 93
    },
    {
      "midi": 69,
      "hit": false,
      "t": 150476.0399999998,
      "d": 129.96018750002258,
      "v": 93
    },
    {
      "midi": 72,
      "hit": false,
      "t": 150476.0399999998,
      "d": 129.96018750002258,
      "v": 93
    },
    {
      "midi": 65,
      "hit": false,
      "t": 150714.13499999983,
      "d": 115.07925000000978,
      "v": 93
    },
    {
      "midi": 72,
      "hit": false,
      "t": 150714.13499999983,
      "d": 144.8411250000063,
      "v": 93
    },
    {
      "midi": 62,
      "hit": false,
      "t": 150714.13499999983,
      "d": 159.7220625000191,
      "v": 93
    },
    {
      "midi": 69,
      "hit": false,
      "t": 150714.13499999983,
      "d": 159.7220625000191,
      "v": 93
    },
    {
      "midi": 50,
      "hit": false,
      "t": 151428.41999999987,
      "d": 17.857125000009546,
      "v": 93
    },
    {
      "midi": 65,
      "hit": false,
      "t": 151547.46749999988,
      "d": 32.73806249999325,
      "v": 83
    },
    {
      "midi": 69,
      "hit": false,
      "t": 151547.46749999988,
      "d": 72.42056249998859,
      "v": 93
    },
    {
      "midi": 72,
      "hit": false,
      "t": 151547.46749999988,
      "d": 87.3015000000014,
      "v": 93
    },
    {
      "midi": 62,
      "hit": false,
      "t": 151547.46749999988,
      "d": 102.1824375000142,
      "v": 93
    },
    {
      "midi": 69,
      "hit": false,
      "t": 151904.6099999999,
      "d": 209.32518750001327,
      "v": 93
    },
    {
      "midi": 65,
      "hit": false,
      "t": 151904.6099999999,
      "d": 221.22993750000023,
      "v": 93
    },
    {
      "midi": 72,
      "hit": false,
      "t": 151904.6099999999,
      "d": 221.22993750000023,
      "v": 93
    },
    {
      "midi": 62,
      "hit": false,
      "t": 151904.6099999999,
      "d": 268.8489375000063,
      "v": 93
    },
    {
      "midi": 65,
      "hit": false,
      "t": 152380.7999999999,
      "d": 90.27768749999814,
      "v": 93
    },
    {
      "midi": 67,
      "hit": false,
      "t": 152380.7999999999,
      "d": 105.15862500001094,
      "v": 93
    },
    {
      "midi": 71,
      "hit": false,
      "t": 152380.7999999999,
      "d": 105.15862500001094,
      "v": 93
    },
    {
      "midi": 62,
      "hit": false,
      "t": 152380.7999999999,
      "d": 131.9443125000107,
      "v": 93
    },
    {
      "midi": 65,
      "hit": false,
      "t": 152618.8949999999,
      "d": 105.15862500001094,
      "v": 93
    },
    {
      "midi": 71,
      "hit": false,
      "t": 152618.8949999999,
      "d": 105.15862500001094,
      "v": 93
    },
    {
      "midi": 62,
      "hit": false,
      "t": 152618.8949999999,
      "d": 120.03956250002375,
      "v": 93
    },
    {
      "midi": 67,
      "hit": false,
      "t": 152618.8949999999,
      "d": 131.9443125000107,
      "v": 93
    },
    {
      "midi": 55,
      "hit": false,
      "t": 153333.1799999999,
      "d": 20.833312500006286,
      "v": 93
    },
    {
      "midi": 71,
      "hit": false,
      "t": 153452.22749999992,
      "d": 105.15862500001094,
      "v": 93
    },
    {
      "midi": 65,
      "hit": false,
      "t": 153452.22749999992,
      "d": 134.92050000000745,
      "v": 93
    },
    {
      "midi": 67,
      "hit": false,
      "t": 153452.22749999992,
      "d": 146.8252499999944,
      "v": 93
    },
    {
      "midi": 62,
      "hit": false,
      "t": 153452.22749999992,
      "d": 161.70618750000722,
      "v": 93
    },
    {
      "midi": 65,
      "hit": false,
      "t": 153809.36999999994,
      "d": 273.80924999999115,
      "v": 93
    },
    {
      "midi": 71,
      "hit": false,
      "t": 153809.36999999994,
      "d": 273.80924999999115,
      "v": 93
    },
    {
      "midi": 62,
      "hit": false,
      "t": 153809.36999999994,
      "d": 288.69018750000396,
      "v": 93
    },
    {
      "midi": 67,
      "hit": false,
      "t": 153809.36999999994,
      "d": 288.69018750000396,
      "v": 93
    },
    {
      "midi": 64,
      "hit": false,
      "t": 154285.55999999994,
      "d": 120.03956249999464,
      "v": 93
    },
    {
      "midi": 72,
      "hit": false,
      "t": 154285.55999999994,
      "d": 122.02368749998277,
      "v": 93
    },
    {
      "midi": 67,
      "hit": false,
      "t": 154285.55999999994,
      "d": 134.92049999997835,
      "v": 93
    },
    {
      "midi": 67,
      "hit": false,
      "t": 154523.6549999999,
      "d": 134.92050000000745,
      "v": 93
    },
    {
      "midi": 72,
      "hit": false,
      "t": 154523.6549999999,
      "d": 134.92050000000745,
      "v": 93
    },
    {
      "midi": 64,
      "hit": false,
      "t": 154523.6549999999,
      "d": 149.80143750002026,
      "v": 93
    },
    {
      "midi": 48,
      "hit": false,
      "t": 155237.93999999994,
      "d": 17.857125000009546,
      "v": 93
    },
    {
      "midi": 67,
      "hit": false,
      "t": 155356.98749999996,
      "d": 149.80143749999115,
      "v": 93
    },
    {
      "midi": 72,
      "hit": false,
      "t": 155356.98749999996,
      "d": 149.80143749999115,
      "v": 93
    },
    {
      "midi": 64,
      "hit": false,
      "t": 155356.98749999996,
      "d": 161.7061874999781,
      "v": 93
    },
    {
      "midi": 64,
      "hit": false,
      "t": 155714.12999999995,
      "d": 258.92831250000745,
      "v": 93
    },
    {
      "midi": 72,
      "hit": false,
      "t": 155714.12999999995,
      "d": 288.69018750000396,
      "v": 93
    },
    {
      "midi": 67,
      "hit": false,
      "t": 155714.12999999995,
      "d": 333.33300000001327,
      "v": 93
    },
    {
      "midi": 64,
      "hit": false,
      "t": 156190.31999999995,
      "d": 120.03956249999464,
      "v": 93
    },
    {
      "midi": 72,
      "hit": false,
      "t": 156190.31999999995,
      "d": 122.02368749998277,
      "v": 93
    },
    {
      "midi": 67,
      "hit": false,
      "t": 156190.31999999995,
      "d": 134.92049999997835,
      "v": 93
    },
    {
      "midi": 67,
      "hit": false,
      "t": 156428.41499999992,
      "d": 134.92050000000745,
      "v": 93
    },
    {
      "midi": 72,
      "hit": false,
      "t": 156428.41499999992,
      "d": 134.92050000000745,
      "v": 93
    },
    {
      "midi": 64,
      "hit": false,
      "t": 156428.41499999992,
      "d": 149.80143750002026,
      "v": 93
    },
    {
      "midi": 48,
      "hit": false,
      "t": 157142.69999999995,
      "d": 17.857125000009546,
      "v": 93
    },
    {
      "midi": 67,
      "hit": false,
      "t": 157261.74749999997,
      "d": 149.80143749999115,
      "v": 93
    },
    {
      "midi": 72,
      "hit": false,
      "t": 157261.74749999997,
      "d": 149.80143749999115,
      "v": 93
    },
    {
      "midi": 64,
      "hit": false,
      "t": 157261.74749999997,
      "d": 161.7061874999781,
      "v": 93
    },
    {
      "midi": 64,
      "hit": false,
      "t": 157618.88999999996,
      "d": 258.92831250000745,
      "v": 93
    },
    {
      "midi": 72,
      "hit": false,
      "t": 157618.88999999996,
      "d": 288.69018750000396,
      "v": 93
    },
    {
      "midi": 67,
      "hit": false,
      "t": 157618.88999999996,
      "d": 333.33300000001327,
      "v": 93
    },
    {
      "midi": 60,
      "hit": false,
      "t": 177142.67999999996,
      "d": 1325.3955000000133,
      "v": 90
    },
    {
      "midi": 64,
      "hit": false,
      "t": 177142.67999999996,
      "d": 1325.3955000000133,
      "v": 93
    },
    {
      "midi": 60,
      "hit": false,
      "t": 179047.43999999997,
      "d": 846.2293125000142,
      "v": 93
    },
    {
      "midi": 64,
      "hit": false,
      "t": 179047.43999999997,
      "d": 864.0864375000237,
      "v": 93
    },
    {
      "midi": 57,
      "hit": false,
      "t": 179047.43999999997,
      "d": 905.7530625000363,
      "v": 93
    },
    {
      "midi": 57,
      "hit": false,
      "t": 180237.915,
      "d": 229.16643750001094,
      "v": 114
    },
    {
      "midi": 60,
      "hit": false,
      "t": 180237.915,
      "d": 229.16643750001094,
      "v": 114
    },
    {
      "midi": 64,
      "hit": false,
      "t": 180237.915,
      "d": 249.00768750000861,
      "v": 114
    },
    {
      "midi": 57,
      "hit": false,
      "t": 180595.05750000002,
      "d": 129.96018749999348,
      "v": 106
    },
    {
      "midi": 60,
      "hit": false,
      "t": 180595.05750000002,
      "d": 129.96018749999348,
      "v": 106
    },
    {
      "midi": 64,
      "hit": false,
      "t": 180595.05750000002,
      "d": 129.96018749999348,
      "v": 106
    },
    {
      "midi": 60,
      "hit": false,
      "t": 180952.2,
      "d": 1246.0304999999935,
      "v": 93
    },
    {
      "midi": 62,
      "hit": false,
      "t": 180952.2,
      "d": 1246.0304999999935,
      "v": 83
    },
    {
      "midi": 65,
      "hit": false,
      "t": 180952.2,
      "d": 1246.0304999999935,
      "v": 93
    },
    {
      "midi": 57,
      "hit": false,
      "t": 180952.2,
      "d": 1325.3954999999842,
      "v": 93
    },
    {
      "midi": 62,
      "hit": false,
      "t": 182380.77,
      "d": 209.32518750001327,
      "v": 93
    },
    {
      "midi": 65,
      "hit": false,
      "t": 182380.77,
      "d": 209.32518750001327,
      "v": 93
    },
    {
      "midi": 60,
      "hit": false,
      "t": 182380.77,
      "d": 246.03150000001187,
      "v": 93
    },
    {
      "midi": 57,
      "hit": false,
      "t": 182380.77,
      "d": 288.69018750000396,
      "v": 90
    },
    {
      "midi": 62,
      "hit": false,
      "t": 182856.96,
      "d": 1022.8164375000051,
      "v": 83
    },
    {
      "midi": 59,
      "hit": false,
      "t": 182856.96,
      "d": 1107.1417500000098,
      "v": 93
    },
    {
      "midi": 65,
      "hit": false,
      "t": 182856.96,
      "d": 1146.8242500000051,
      "v": 90
    },
    {
      "midi": 55,
      "hit": false,
      "t": 182856.96,
      "d": 1166.6655000000028,
      "v": 93
    },
    {
      "midi": 62,
      "hit": false,
      "t": 184285.53,
      "d": 151.78556250000838,
      "v": 93
    },
    {
      "midi": 59,
      "hit": false,
      "t": 184285.53,
      "d": 171.62681250000605,
      "v": 93
    },
    {
      "midi": 55,
      "hit": false,
      "t": 184285.53,
      "d": 211.3093125000014,
      "v": 90
    },
    {
      "midi": 65,
      "hit": false,
      "t": 184285.53,
      "d": 214.28549999999814,
      "v": 86
    },
    {
      "midi": 60,
      "hit": false,
      "t": 184761.72,
      "d": 107.14274999999907,
      "v": 83
    },
    {
      "midi": 64,
      "hit": false,
      "t": 184761.72,
      "d": 126.98399999999674,
      "v": 116
    },
    {
      "midi": 55,
      "hit": false,
      "t": 184761.72,
      "d": 146.8252499999944,
      "v": 94
    },
    {
      "midi": 60,
      "hit": false,
      "t": 184999.815,
      "d": 110.11893749999581,
      "v": 90
    },
    {
      "midi": 64,
      "hit": false,
      "t": 184999.815,
      "d": 110.11893749999581,
      "v": 116
    },
    {
      "midi": 55,
      "hit": false,
      "t": 184999.815,
      "d": 129.96018749999348,
      "v": 86
    },
    {
      "midi": 60,
      "hit": false,
      "t": 185237.91,
      "d": 191.46806250000373,
      "v": 94
    },
    {
      "midi": 64,
      "hit": false,
      "t": 185237.91,
      "d": 191.46806250000373,
      "v": 120
    },
    {
      "midi": 55,
      "hit": false,
      "t": 185237.91,
      "d": 194.44425000000047,
      "v": 94
    },
    {
      "midi": 60,
      "hit": false,
      "t": 186666.48,
      "d": 154.76175000000512,
      "v": 94
    },
    {
      "midi": 64,
      "hit": false,
      "t": 186666.48,
      "d": 154.76175000000512,
      "v": 120
    },
    {
      "midi": 57,
      "hit": false,
      "t": 186666.48,
      "d": 176.58712499999092,
      "v": 98
    },
    {
      "midi": 64,
      "hit": false,
      "t": 186904.575,
      "d": 90.27768749999814,
      "v": 120
    },
    {
      "midi": 60,
      "hit": false,
      "t": 186904.575,
      "d": 110.11893749999581,
      "v": 90
    },
    {
      "midi": 57,
      "hit": false,
      "t": 186904.575,
      "d": 129.96018749999348,
      "v": 90
    },
    {
      "midi": 60,
      "hit": false,
      "t": 187142.67,
      "d": 146.8252499999944,
      "v": 90
    },
    {
      "midi": 64,
      "hit": false,
      "t": 187142.67,
      "d": 146.8252499999944,
      "v": 116
    },
    {
      "midi": 57,
      "hit": false,
      "t": 187142.67,
      "d": 169.64268749998882,
      "v": 94
    },
    {
      "midi": 59,
      "hit": false,
      "t": 188571.24,
      "d": 151.78556250000838,
      "v": 116
    },
    {
      "midi": 64,
      "hit": false,
      "t": 188571.24,
      "d": 151.78556250000838,
      "v": 120
    },
    {
      "midi": 55,
      "hit": false,
      "t": 188571.24,
      "d": 161.70618750000722,
      "v": 90
    },
    {
      "midi": 64,
      "hit": false,
      "t": 188809.335,
      "d": 112.10306250001304,
      "v": 111
    },
    {
      "midi": 59,
      "hit": false,
      "t": 188809.335,
      "d": 134.92050000000745,
      "v": 120
    },
    {
      "midi": 55,
      "hit": false,
      "t": 188809.335,
      "d": 151.78556250000838,
      "v": 86
    },
    {
      "midi": 64,
      "hit": false,
      "t": 189047.43,
      "d": 129.96018749999348,
      "v": 116
    },
    {
      "midi": 59,
      "hit": false,
      "t": 189047.43,
      "d": 149.80143749999115,
      "v": 120
    },
    {
      "midi": 55,
      "hit": false,
      "t": 189047.43,
      "d": 189.4839374999865,
      "v": 90
    },
    {
      "midi": 65,
      "hit": false,
      "t": 190475.99999999997,
      "d": 129.96018749999348,
      "v": 94
    },
    {
      "midi": 57,
      "hit": false,
      "t": 190475.99999999997,
      "d": 146.8252499999944,
      "v": 98
    },
    {
      "midi": 60,
      "hit": false,
      "t": 190475.99999999997,
      "d": 146.8252499999944,
      "v": 94
    },
    {
      "midi": 60,
      "hit": false,
      "t": 190714.09499999997,
      "d": 110.11893749999581,
      "v": 98
    },
    {
      "midi": 65,
      "hit": false,
      "t": 190714.09499999997,
      "d": 110.11893749999581,
      "v": 90
    },
    {
      "midi": 57,
      "hit": false,
      "t": 190714.09499999997,
      "d": 126.98399999999674,
      "v": 86
    },
    {
      "midi": 60,
      "hit": false,
      "t": 190952.18999999997,
      "d": 171.62681250000605,
      "v": 98
    },
    {
      "midi": 65,
      "hit": false,
      "t": 190952.18999999997,
      "d": 171.62681250000605,
      "v": 98
    },
    {
      "midi": 57,
      "hit": false,
      "t": 190952.18999999997,
      "d": 194.44425000000047,
      "v": 94
    },
    {
      "midi": 60,
      "hit": false,
      "t": 192380.75999999998,
      "d": 156.74587499999325,
      "v": 94
    },
    {
      "midi": 64,
      "hit": false,
      "t": 192380.75999999998,
      "d": 156.74587499999325,
      "v": 120
    },
    {
      "midi": 55,
      "hit": false,
      "t": 192380.75999999998,
      "d": 176.58712499999092,
      "v": 98
    },
    {
      "midi": 55,
      "hit": false,
      "t": 192618.85499999998,
      "d": 107.14274999999907,
      "v": 83
    },
    {
      "midi": 64,
      "hit": false,
      "t": 192618.85499999998,
      "d": 107.14274999999907,
      "v": 111
    },
    {
      "midi": 60,
      "hit": false,
      "t": 192618.85499999998,
      "d": 129.96018749999348,
      "v": 90
    },
    {
      "midi": 60,
      "hit": false,
      "t": 192856.94999999998,
      "d": 169.64268749998882,
      "v": 98
    },
    {
      "midi": 64,
      "hit": false,
      "t": 192856.94999999998,
      "d": 169.64268749998882,
      "v": 120
    },
    {
      "midi": 55,
      "hit": false,
      "t": 192856.94999999998,
      "d": 189.4839374999865,
      "v": 98
    },
    {
      "midi": 65,
      "hit": false,
      "t": 194285.51999999996,
      "d": 112.10306250001304,
      "v": 86
    },
    {
      "midi": 60,
      "hit": false,
      "t": 194285.51999999996,
      "d": 131.9443125000107,
      "v": 94
    },
    {
      "midi": 57,
      "hit": false,
      "t": 194285.51999999996,
      "d": 151.78556250000838,
      "v": 94
    },
    {
      "midi": 57,
      "hit": false,
      "t": 194523.61499999996,
      "d": 129.96018749999348,
      "v": 90
    },
    {
      "midi": 60,
      "hit": false,
      "t": 194523.61499999996,
      "d": 129.96018749999348,
      "v": 103
    },
    {
      "midi": 65,
      "hit": false,
      "t": 194523.61499999996,
      "d": 129.96018749999348,
      "v": 94
    },
    {
      "midi": 57,
      "hit": false,
      "t": 194761.70999999996,
      "d": 214.28549999999814,
      "v": 103
    },
    {
      "midi": 60,
      "hit": false,
      "t": 194761.70999999996,
      "d": 216.26962499998626,
      "v": 107
    },
    {
      "midi": 65,
      "hit": false,
      "t": 194761.70999999996,
      "d": 234.1267499999958,
      "v": 107
    },
    {
      "midi": 60,
      "hit": false,
      "t": 196190.27999999997,
      "d": 1325.3955000000133,
      "v": 90
    },
    {
      "midi": 64,
      "hit": false,
      "t": 196190.27999999997,
      "d": 1325.3955000000133,
      "v": 93
    },
    {
      "midi": 60,
      "hit": false,
      "t": 198095.03999999998,
      "d": 846.2293125000142,
      "v": 93
    },
    {
      "midi": 64,
      "hit": false,
      "t": 198095.03999999998,
      "d": 864.0864375000237,
      "v": 93
    },
    {
      "midi": 57,
      "hit": false,
      "t": 198095.03999999998,
      "d": 905.7530625000363,
      "v": 93
    },
    {
      "midi": 57,
      "hit": false,
      "t": 199285.515,
      "d": 229.16643750001094,
      "v": 114
    },
    {
      "midi": 60,
      "hit": false,
      "t": 199285.515,
      "d": 229.16643750001094,
      "v": 114
    },
    {
      "midi": 64,
      "hit": false,
      "t": 199285.515,
      "d": 249.00768750000861,
      "v": 114
    },
    {
      "midi": 57,
      "hit": false,
      "t": 199642.65750000003,
      "d": 129.96018749999348,
      "v": 106
    },
    {
      "midi": 60,
      "hit": false,
      "t": 199642.65750000003,
      "d": 129.96018749999348,
      "v": 106
    },
    {
      "midi": 64,
      "hit": false,
      "t": 199642.65750000003,
      "d": 129.96018749999348,
      "v": 106
    },
    {
      "midi": 60,
      "hit": false,
      "t": 199999.80000000002,
      "d": 1246.0304999999935,
      "v": 93
    },
    {
      "midi": 62,
      "hit": false,
      "t": 199999.80000000002,
      "d": 1246.0304999999935,
      "v": 83
    },
    {
      "midi": 65,
      "hit": false,
      "t": 199999.80000000002,
      "d": 1246.0304999999935,
      "v": 93
    },
    {
      "midi": 57,
      "hit": false,
      "t": 199999.80000000002,
      "d": 1325.3954999999842,
      "v": 93
    },
    {
      "midi": 62,
      "hit": false,
      "t": 201428.37,
      "d": 209.32518750001327,
      "v": 93
    },
    {
      "midi": 65,
      "hit": false,
      "t": 201428.37,
      "d": 209.32518750001327,
      "v": 93
    },
    {
      "midi": 60,
      "hit": false,
      "t": 201428.37,
      "d": 246.03150000001187,
      "v": 93
    },
    {
      "midi": 57,
      "hit": false,
      "t": 201428.37,
      "d": 288.69018750000396,
      "v": 90
    },
    {
      "midi": 62,
      "hit": false,
      "t": 201904.56,
      "d": 1022.8164375000051,
      "v": 83
    },
    {
      "midi": 59,
      "hit": false,
      "t": 201904.56,
      "d": 1107.1417500000098,
      "v": 93
    },
    {
      "midi": 65,
      "hit": false,
      "t": 201904.56,
      "d": 1146.8242500000051,
      "v": 90
    },
    {
      "midi": 55,
      "hit": false,
      "t": 201904.56,
      "d": 1166.6655000000028,
      "v": 93
    },
    {
      "midi": 62,
      "hit": false,
      "t": 203333.13,
      "d": 151.78556250000838,
      "v": 93
    },
    {
      "midi": 59,
      "hit": false,
      "t": 203333.13,
      "d": 171.62681250000605,
      "v": 93
    },
    {
      "midi": 55,
      "hit": false,
      "t": 203333.13,
      "d": 211.3093125000014,
      "v": 90
    },
    {
      "midi": 65,
      "hit": false,
      "t": 203333.13,
      "d": 214.28549999999814,
      "v": 86
    },
    {
      "midi": 55,
      "hit": false,
      "t": 203809.32,
      "d": 1141.8639374999912,
      "v": 103
    },
    {
      "midi": 60,
      "hit": false,
      "t": 203809.32,
      "d": 1141.8639374999912,
      "v": 103
    },
    {
      "midi": 52,
      "hit": false,
      "t": 203809.32,
      "d": 1163.689312499977,
      "v": 98
    },
    {
      "midi": 52,
      "hit": false,
      "t": 205237.88999999998,
      "d": 246.03150000001187,
      "v": 98
    },
    {
      "midi": 55,
      "hit": false,
      "t": 205237.88999999998,
      "d": 246.03150000001187,
      "v": 103
    },
    {
      "midi": 60,
      "hit": false,
      "t": 205237.88999999998,
      "d": 246.03150000001187,
      "v": 98
    },
    {
      "midi": 52,
      "hit": false,
      "t": 205714.08,
      "d": 1211.308312500012,
      "v": 103
    },
    {
      "midi": 55,
      "hit": false,
      "t": 205714.08,
      "d": 1211.308312500012,
      "v": 98
    },
    {
      "midi": 59,
      "hit": false,
      "t": 205714.08,
      "d": 1211.308312500012,
      "v": 103
    },
    {
      "midi": 52,
      "hit": false,
      "t": 207142.65,
      "d": 189.4839374999865,
      "v": 100
    },
    {
      "midi": 59,
      "hit": false,
      "t": 207142.65,
      "d": 189.4839374999865,
      "v": 103
    },
    {
      "midi": 55,
      "hit": false,
      "t": 207142.65,
      "d": 191.46806249997462,
      "v": 98
    },
    {
      "midi": 53,
      "hit": false,
      "t": 207618.83999999997,
      "d": 943.4514375000144,
      "v": 103
    },
    {
      "midi": 57,
      "hit": false,
      "t": 207618.83999999997,
      "d": 943.4514375000144,
      "v": 103
    },
    {
      "midi": 60,
      "hit": false,
      "t": 207618.83999999997,
      "d": 943.4514375000144,
      "v": 103
    },
    {
      "midi": 56,
      "hit": false,
      "t": 209047.40999999997,
      "d": 328.3726874999993,
      "v": 103
    },
    {
      "midi": 63,
      "hit": false,
      "t": 209047.40999999997,
      "d": 328.3726874999993,
      "v": 103
    },
    {
      "midi": 60,
      "hit": false,
      "t": 209047.40999999997,
      "d": 348.213937499997,
      "v": 98
    },
    {
      "midi": 60,
      "hit": false,
      "t": 209523.59999999998,
      "d": 1007.9354999999923,
      "v": 98
    },
    {
      "midi": 64,
      "hit": false,
      "t": 209523.59999999998,
      "d": 1027.77674999999,
      "v": 103
    },
    {
      "midi": 55,
      "hit": false,
      "t": 209523.59999999998,
      "d": 1087.300499999983,
      "v": 103
    },
    {
      "midi": 64,
      "hit": false,
      "t": 210952.16999999995,
      "d": 219.2458125000121,
      "v": 103
    },
    {
      "midi": 60,
      "hit": false,
      "t": 210952.16999999995,
      "d": 229.16643750001094,
      "v": 98
    },
    {
      "midi": 55,
      "hit": false,
      "t": 210952.16999999995,
      "d": 249.00768750000861,
      "v": 98
    },
    {
      "midi": 60,
      "hit": false,
      "t": 211428.35999999996,
      "d": 675.5945624999877,
      "v": 103
    },
    {
      "midi": 62,
      "hit": false,
      "t": 211428.35999999996,
      "d": 675.5945624999877,
      "v": 103
    },
    {
      "midi": 65,
      "hit": false,
      "t": 211428.35999999996,
      "d": 690.4755000000005,
      "v": 98
    },
    {
      "midi": 57,
      "hit": false,
      "t": 211428.35999999996,
      "d": 737.1024374999979,
      "v": 98
    },
    {
      "midi": 59,
      "hit": false,
      "t": 212380.73999999996,
      "d": 472.221749999997,
      "v": 103
    },
    {
      "midi": 55,
      "hit": false,
      "t": 212380.73999999996,
      "d": 573.4121250000026,
      "v": 103
    },
    {
      "midi": 65,
      "hit": false,
      "t": 212380.73999999996,
      "d": 573.4121250000026,
      "v": 98
    },
    {
      "midi": 62,
      "hit": false,
      "t": 212380.73999999996,
      "d": 593.2533750000002,
      "v": 103
    },
    {
      "midi": 64,
      "hit": false,
      "t": 213333.11999999997,
      "d": 503.9677500000107,
      "v": 103
    },
    {
      "midi": 55,
      "hit": false,
      "t": 213333.11999999997,
      "d": 523.8090000000084,
      "v": 103
    },
    {
      "midi": 60,
      "hit": false,
      "t": 213333.11999999997,
      "d": 523.8090000000084,
      "v": 103
    },
    {
      "midi": 52,
      "hit": false,
      "t": 214285.49999999997,
      "d": 472.221749999997,
      "v": 103
    },
    {
      "midi": 57,
      "hit": false,
      "t": 214285.49999999997,
      "d": 492.06299999999464,
      "v": 103
    },
    {
      "midi": 60,
      "hit": false,
      "t": 214285.49999999997,
      "d": 533.7296250000072,
      "v": 103
    },
    {
      "midi": 60,
      "hit": false,
      "t": 215237.87999999998,
      "d": 533.7296250000072,
      "v": 103
    },
    {
      "midi": 57,
      "hit": false,
      "t": 215237.87999999998,
      "d": 551.5867500000168,
      "v": 103
    },
    {
      "midi": 53,
      "hit": false,
      "t": 215237.87999999998,
      "d": 632.9358750000247,
      "v": 103
    },
    {
      "midi": 62,
      "hit": false,
      "t": 215237.87999999998,
      "d": 652.7771250000224,
      "v": 103
    },
    {
      "midi": 53,
      "hit": false,
      "t": 216190.26,
      "d": 469.24556250000023,
      "v": 98
    },
    {
      "midi": 59,
      "hit": false,
      "t": 216190.26,
      "d": 469.24556250000023,
      "v": 103
    },
    {
      "midi": 62,
      "hit": false,
      "t": 216190.26,
      "d": 489.0868124999979,
      "v": 98
    },
    {
      "midi": 55,
      "hit": false,
      "t": 217142.64,
      "d": 695.4358125000144,
      "v": 98
    },
    {
      "midi": 64,
      "hit": false,
      "t": 217142.64,
      "d": 695.4358125000144,
      "v": 103
    },
    {
      "midi": 60,
      "hit": false,
      "t": 217142.64,
      "d": 715.2770625000121,
      "v": 103
    },
    {
      "midi": 57,
      "hit": false,
      "t": 218095.02000000002,
      "d": 444.4439999999886,
      "v": 103
    },
    {
      "midi": 60,
      "hit": false,
      "t": 218095.02000000002,
      "d": 444.4439999999886,
      "v": 103
    },
    {
      "midi": 64,
      "hit": false,
      "t": 218095.02000000002,
      "d": 444.4439999999886,
      "v": 103
    },
    {
      "midi": 60,
      "hit": false,
      "t": 219047.4,
      "d": 1444.4429999999993,
      "v": 98
    },
    {
      "midi": 57,
      "hit": false,
      "t": 219047.4,
      "d": 1461.3080625000002,
      "v": 103
    },
    {
      "midi": 64,
      "hit": false,
      "t": 219047.4,
      "d": 1464.284249999997,
      "v": 103
    },
    {
      "midi": 67,
      "hit": false,
      "t": 219047.4,
      "d": 1484.1254999999946,
      "v": 103
    },
    {
      "midi": 59,
      "hit": false,
      "t": 220952.15999999997,
      "d": 229.16643750001094,
      "v": 103
    },
    {
      "midi": 62,
      "hit": false,
      "t": 220952.15999999997,
      "d": 229.16643750001094,
      "v": 103
    },
    {
      "midi": 65,
      "hit": false,
      "t": 220952.15999999997,
      "d": 229.16643750001094,
      "v": 103
    },
    {
      "midi": 67,
      "hit": false,
      "t": 220952.15999999997,
      "d": 229.16643750001094,
      "v": 103
    },
    {
      "midi": 60,
      "hit": false,
      "t": 222856.91999999998,
      "d": 107.14274999999907,
      "v": 83
    },
    {
      "midi": 64,
      "hit": false,
      "t": 222856.91999999998,
      "d": 126.98399999999674,
      "v": 116
    },
    {
      "midi": 55,
      "hit": false,
      "t": 222856.91999999998,
      "d": 146.8252499999944,
      "v": 94
    },
    {
      "midi": 60,
      "hit": false,
      "t": 223095.01499999998,
      "d": 110.11893749999581,
      "v": 90
    },
    {
      "midi": 64,
      "hit": false,
      "t": 223095.01499999998,
      "d": 110.11893749999581,
      "v": 116
    },
    {
      "midi": 55,
      "hit": false,
      "t": 223095.01499999998,
      "d": 129.96018749999348,
      "v": 86
    },
    {
      "midi": 60,
      "hit": false,
      "t": 223333.11,
      "d": 191.46806250000373,
      "v": 94
    },
    {
      "midi": 64,
      "hit": false,
      "t": 223333.11,
      "d": 191.46806250000373,
      "v": 120
    },
    {
      "midi": 55,
      "hit": false,
      "t": 223333.11,
      "d": 194.44425000000047,
      "v": 94
    },
    {
      "midi": 60,
      "hit": false,
      "t": 224761.68,
      "d": 154.76175000000512,
      "v": 94
    },
    {
      "midi": 64,
      "hit": false,
      "t": 224761.68,
      "d": 154.76175000000512,
      "v": 120
    },
    {
      "midi": 57,
      "hit": false,
      "t": 224761.68,
      "d": 176.58712499999092,
      "v": 98
    },
    {
      "midi": 64,
      "hit": false,
      "t": 224999.775,
      "d": 90.27768749999814,
      "v": 120
    },
    {
      "midi": 60,
      "hit": false,
      "t": 224999.775,
      "d": 110.11893749999581,
      "v": 90
    },
    {
      "midi": 57,
      "hit": false,
      "t": 224999.775,
      "d": 129.96018749999348,
      "v": 90
    },
    {
      "midi": 60,
      "hit": false,
      "t": 225237.87,
      "d": 146.8252499999944,
      "v": 90
    },
    {
      "midi": 64,
      "hit": false,
      "t": 225237.87,
      "d": 146.8252499999944,
      "v": 116
    },
    {
      "midi": 57,
      "hit": false,
      "t": 225237.87,
      "d": 169.64268749998882,
      "v": 94
    },
    {
      "midi": 59,
      "hit": false,
      "t": 226666.43999999997,
      "d": 151.78556250000838,
      "v": 116
    },
    {
      "midi": 64,
      "hit": false,
      "t": 226666.43999999997,
      "d": 151.78556250000838,
      "v": 120
    },
    {
      "midi": 55,
      "hit": false,
      "t": 226666.43999999997,
      "d": 161.70618750000722,
      "v": 90
    },
    {
      "midi": 64,
      "hit": false,
      "t": 226904.53499999997,
      "d": 112.10306250001304,
      "v": 111
    },
    {
      "midi": 59,
      "hit": false,
      "t": 226904.53499999997,
      "d": 134.92050000000745,
      "v": 120
    },
    {
      "midi": 55,
      "hit": false,
      "t": 226904.53499999997,
      "d": 151.78556250000838,
      "v": 86
    },
    {
      "midi": 64,
      "hit": false,
      "t": 227142.62999999998,
      "d": 129.96018749999348,
      "v": 116
    },
    {
      "midi": 59,
      "hit": false,
      "t": 227142.62999999998,
      "d": 149.80143749999115,
      "v": 120
    },
    {
      "midi": 55,
      "hit": false,
      "t": 227142.62999999998,
      "d": 189.4839374999865,
      "v": 90
    },
    {
      "midi": 65,
      "hit": false,
      "t": 228571.19999999995,
      "d": 129.96018749999348,
      "v": 94
    },
    {
      "midi": 57,
      "hit": false,
      "t": 228571.19999999995,
      "d": 146.8252499999944,
      "v": 98
    },
    {
      "midi": 60,
      "hit": false,
      "t": 228571.19999999995,
      "d": 146.8252499999944,
      "v": 94
    },
    {
      "midi": 60,
      "hit": false,
      "t": 228809.29499999995,
      "d": 110.11893749999581,
      "v": 98
    },
    {
      "midi": 65,
      "hit": false,
      "t": 228809.29499999995,
      "d": 110.11893749999581,
      "v": 90
    },
    {
      "midi": 57,
      "hit": false,
      "t": 228809.29499999995,
      "d": 126.98399999999674,
      "v": 86
    },
    {
      "midi": 60,
      "hit": false,
      "t": 229047.38999999996,
      "d": 171.62681250000605,
      "v": 98
    },
    {
      "midi": 65,
      "hit": false,
      "t": 229047.38999999996,
      "d": 171.62681250000605,
      "v": 98
    },
    {
      "midi": 57,
      "hit": false,
      "t": 229047.38999999996,
      "d": 194.44425000000047,
      "v": 94
    },
    {
      "midi": 60,
      "hit": false,
      "t": 230475.95999999996,
      "d": 156.74587499999325,
      "v": 94
    },
    {
      "midi": 64,
      "hit": false,
      "t": 230475.95999999996,
      "d": 156.74587499999325,
      "v": 120
    },
    {
      "midi": 55,
      "hit": false,
      "t": 230475.95999999996,
      "d": 176.58712499999092,
      "v": 98
    },
    {
      "midi": 55,
      "hit": false,
      "t": 230714.05499999996,
      "d": 107.14274999999907,
      "v": 83
    },
    {
      "midi": 64,
      "hit": false,
      "t": 230714.05499999996,
      "d": 107.14274999999907,
      "v": 111
    },
    {
      "midi": 60,
      "hit": false,
      "t": 230714.05499999996,
      "d": 129.96018749999348,
      "v": 90
    },
    {
      "midi": 60,
      "hit": false,
      "t": 230952.14999999997,
      "d": 169.64268749998882,
      "v": 98
    },
    {
      "midi": 64,
      "hit": false,
      "t": 230952.14999999997,
      "d": 169.64268749998882,
      "v": 120
    },
    {
      "midi": 55,
      "hit": false,
      "t": 230952.14999999997,
      "d": 189.4839374999865,
      "v": 98
    },
    {
      "midi": 65,
      "hit": false,
      "t": 232380.71999999994,
      "d": 112.10306250001304,
      "v": 86
    },
    {
      "midi": 60,
      "hit": false,
      "t": 232380.71999999994,
      "d": 131.9443125000107,
      "v": 94
    },
    {
      "midi": 57,
      "hit": false,
      "t": 232380.71999999994,
      "d": 151.78556250000838,
      "v": 94
    },
    {
      "midi": 57,
      "hit": false,
      "t": 232618.81499999994,
      "d": 129.96018749999348,
      "v": 90
    },
    {
      "midi": 60,
      "hit": false,
      "t": 232618.81499999994,
      "d": 129.96018749999348,
      "v": 103
    },
    {
      "midi": 65,
      "hit": false,
      "t": 232618.81499999994,
      "d": 129.96018749999348,
      "v": 94
    },
    {
      "midi": 57,
      "hit": false,
      "t": 232856.90999999995,
      "d": 214.28549999999814,
      "v": 103
    },
    {
      "midi": 60,
      "hit": false,
      "t": 232856.90999999995,
      "d": 216.26962499998626,
      "v": 107
    },
    {
      "midi": 65,
      "hit": false,
      "t": 232856.90999999995,
      "d": 234.1267499999958,
      "v": 107
    },
    {
      "midi": 60,
      "hit": false,
      "t": 234285.47999999995,
      "d": 1325.3955000000133,
      "v": 90
    },
    {
      "midi": 64,
      "hit": false,
      "t": 234285.47999999995,
      "d": 1325.3955000000133,
      "v": 93
    },
    {
      "midi": 52,
      "hit": false,
      "t": 245714.03999999998,
      "d": 92.26181249998626,
      "v": 83
    },
    {
      "midi": 60,
      "hit": false,
      "t": 245714.03999999998,
      "d": 110.11893749999581,
      "v": 83
    },
    {
      "midi": 55,
      "hit": false,
      "t": 245714.03999999998,
      "d": 112.10306249998393,
      "v": 83
    },
    {
      "midi": 48,
      "hit": false,
      "t": 245714.03999999998,
      "d": 754.9595624999492,
      "v": 76
    },
    {
      "midi": 36,
      "hit": false,
      "t": 245714.03999999998,
      "d": 1734.1252499999828,
      "v": 79
    },
    {
      "midi": 52,
      "hit": false,
      "t": 245952.13499999995,
      "d": 186.50774999998976,
      "v": 83
    },
    {
      "midi": 55,
      "hit": false,
      "t": 245952.13499999995,
      "d": 186.50774999998976,
      "v": 83
    },
    {
      "midi": 60,
      "hit": false,
      "t": 245952.13499999995,
      "d": 209.32518749998417,
      "v": 83
    },
    {
      "midi": 48,
      "hit": false,
      "t": 246666.41999999993,
      "d": 533.7296250000072,
      "v": 73
    },
    {
      "midi": 52,
      "hit": false,
      "t": 246904.51499999993,
      "d": 129.96018749999348,
      "v": 83
    },
    {
      "midi": 55,
      "hit": false,
      "t": 246904.51499999993,
      "d": 129.96018749999348,
      "v": 83
    },
    {
      "midi": 60,
      "hit": false,
      "t": 246904.51499999993,
      "d": 129.96018749999348,
      "v": 83
    },
    {
      "midi": 55,
      "hit": false,
      "t": 247142.60999999993,
      "d": 72.4205625000177,
      "v": 74
    },
    {
      "midi": 52,
      "hit": false,
      "t": 247142.60999999993,
      "d": 90.27768750002724,
      "v": 83
    },
    {
      "midi": 60,
      "hit": false,
      "t": 247142.60999999993,
      "d": 90.27768750002724,
      "v": 83
    },
    {
      "midi": 52,
      "hit": false,
      "t": 247380.70499999996,
      "d": 90.27768749999814,
      "v": 83
    },
    {
      "midi": 55,
      "hit": false,
      "t": 247380.70499999996,
      "d": 90.27768749999814,
      "v": 79
    },
    {
      "midi": 60,
      "hit": false,
      "t": 247380.70499999996,
      "d": 90.27768749999814,
      "v": 83
    },
    {
      "midi": 52,
      "hit": false,
      "t": 247618.79999999996,
      "d": 154.76175000000512,
      "v": 83
    },
    {
      "midi": 62,
      "hit": false,
      "t": 247618.79999999996,
      "d": 154.76175000000512,
      "v": 83
    },
    {
      "midi": 56,
      "hit": false,
      "t": 247618.79999999996,
      "d": 174.6030000000028,
      "v": 83
    },
    {
      "midi": 59,
      "hit": false,
      "t": 247618.79999999996,
      "d": 174.6030000000028,
      "v": 83
    },
    {
      "midi": 40,
      "hit": false,
      "t": 247618.79999999996,
      "d": 417.6583125000179,
      "v": 78
    },
    {
      "midi": 59,
      "hit": false,
      "t": 247856.89499999996,
      "d": 131.9443125000107,
      "v": 83
    },
    {
      "midi": 56,
      "hit": false,
      "t": 247856.89499999996,
      "d": 149.80143750002026,
      "v": 83
    },
    {
      "midi": 62,
      "hit": false,
      "t": 247856.89499999996,
      "d": 149.80143750002026,
      "v": 83
    },
    {
      "midi": 52,
      "hit": false,
      "t": 247856.89499999996,
      "d": 151.78556250000838,
      "v": 83
    },
    {
      "midi": 62,
      "hit": false,
      "t": 248809.27499999997,
      "d": 149.80143749999115,
      "v": 73
    },
    {
      "midi": 52,
      "hit": false,
      "t": 248809.27499999997,
      "d": 171.62681249997695,
      "v": 83
    },
    {
      "midi": 56,
      "hit": false,
      "t": 248809.27499999997,
      "d": 171.62681249997695,
      "v": 83
    },
    {
      "midi": 59,
      "hit": false,
      "t": 248809.27499999997,
      "d": 171.62681249997695,
      "v": 83
    },
    {
      "midi": 40,
      "hit": false,
      "t": 248809.27499999997,
      "d": 268.8489374999772,
      "v": 83
    },
    {
      "midi": 62,
      "hit": false,
      "t": 249047.36999999994,
      "d": 110.11893749999581,
      "v": 73
    },
    {
      "midi": 59,
      "hit": false,
      "t": 249047.36999999994,
      "d": 129.96018749999348,
      "v": 83
    },
    {
      "midi": 56,
      "hit": false,
      "t": 249047.36999999994,
      "d": 139.88081249999232,
      "v": 83
    },
    {
      "midi": 52,
      "hit": false,
      "t": 249047.36999999994,
      "d": 149.80143749999115,
      "v": 83
    },
    {
      "midi": 62,
      "hit": false,
      "t": 249285.46499999994,
      "d": 35.71424999998999,
      "v": 73
    },
    {
      "midi": 59,
      "hit": false,
      "t": 249285.46499999994,
      "d": 75.39674999998533,
      "v": 83
    },
    {
      "midi": 52,
      "hit": false,
      "t": 249285.46499999994,
      "d": 95.237999999983,
      "v": 80
    },
    {
      "midi": 56,
      "hit": false,
      "t": 249285.46499999994,
      "d": 115.07924999998068,
      "v": 83
    },
    {
      "midi": 52,
      "hit": false,
      "t": 249523.5599999999,
      "d": 171.62681250000605,
      "v": 83
    },
    {
      "midi": 60,
      "hit": false,
      "t": 249523.5599999999,
      "d": 171.62681250000605,
      "v": 83
    },
    {
      "midi": 57,
      "hit": false,
      "t": 249523.5599999999,
      "d": 176.58712500002002,
      "v": 83
    },
    {
      "midi": 45,
      "hit": false,
      "t": 249523.5599999999,
      "d": 660.7136250000331,
      "v": 83
    },
    {
      "midi": 52,
      "hit": false,
      "t": 249761.65499999994,
      "d": 211.3093125000014,
      "v": 83
    },
    {
      "midi": 57,
      "hit": false,
      "t": 249761.65499999994,
      "d": 211.3093125000014,
      "v": 83
    },
    {
      "midi": 60,
      "hit": false,
      "t": 249761.65499999994,
      "d": 211.3093125000014,
      "v": 83
    },
    {
      "midi": 45,
      "hit": false,
      "t": 250356.89249999993,
      "d": 447.4201874999562,
      "v": 73
    },
    {
      "midi": 60,
      "hit": false,
      "t": 250475.93999999992,
      "d": 189.4839374999865,
      "v": 83
    },
    {
      "midi": 52,
      "hit": false,
      "t": 250475.93999999992,
      "d": 209.32518749998417,
      "v": 83
    },
    {
      "midi": 57,
      "hit": false,
      "t": 250475.93999999992,
      "d": 209.32518749998417,
      "v": 83
    },
    {
      "midi": 60,
      "hit": false,
      "t": 250833.08249999987,
      "d": 115.07925000000978,
      "v": 79
    },
    {
      "midi": 52,
      "hit": false,
      "t": 250833.08249999987,
      "d": 134.92050000000745,
      "v": 83
    },
    {
      "midi": 57,
      "hit": false,
      "t": 250833.08249999987,
      "d": 134.92050000000745,
      "v": 79
    },
    {
      "midi": 52,
      "hit": false,
      "t": 251071.17749999987,
      "d": 92.26181249998626,
      "v": 83
    },
    {
      "midi": 60,
      "hit": false,
      "t": 251071.17749999987,
      "d": 95.237999999983,
      "v": 73
    },
    {
      "midi": 57,
      "hit": false,
      "t": 251071.17749999987,
      "d": 115.07924999998068,
      "v": 76
    },
    {
      "midi": 55,
      "hit": false,
      "t": 251428.31999999986,
      "d": 151.78556250000838,
      "v": 83
    },
    {
      "midi": 52,
      "hit": false,
      "t": 251428.31999999986,
      "d": 171.62681250000605,
      "v": 83
    },
    {
      "midi": 58,
      "hit": false,
      "t": 251428.31999999986,
      "d": 171.62681250000605,
      "v": 83
    },
    {
      "midi": 60,
      "hit": false,
      "t": 251428.31999999986,
      "d": 171.62681250000605,
      "v": 83
    },
    {
      "midi": 48,
      "hit": false,
      "t": 251428.31999999986,
      "d": 407.73768749999,
      "v": 73
    },
    {
      "midi": 36,
      "hit": false,
      "t": 251428.31999999986,
      "d": 1659.720562499977,
      "v": 83
    },
    {
      "midi": 52,
      "hit": false,
      "t": 251666.41499999986,
      "d": 169.64268749998882,
      "v": 83
    },
    {
      "midi": 55,
      "hit": false,
      "t": 251666.41499999986,
      "d": 169.64268749998882,
      "v": 83
    },
    {
      "midi": 58,
      "hit": false,
      "t": 251666.41499999986,
      "d": 169.64268749998882,
      "v": 83
    },
    {
      "midi": 60,
      "hit": false,
      "t": 251666.41499999986,
      "d": 169.64268749998882,
      "v": 83
    },
    {
      "midi": 60,
      "hit": false,
      "t": 252618.79499999984,
      "d": 87.3015000000014,
      "v": 73
    },
    {
      "midi": 55,
      "hit": false,
      "t": 252618.79499999984,
      "d": 105.15862500001094,
      "v": 73
    },
    {
      "midi": 58,
      "hit": false,
      "t": 252618.79499999984,
      "d": 105.15862500001094,
      "v": 73
    },
    {
      "midi": 52,
      "hit": false,
      "t": 252618.79499999984,
      "d": 124.99987500000861,
      "v": 73
    },
    {
      "midi": 52,
      "hit": false,
      "t": 252856.88999999984,
      "d": 154.76175000000512,
      "v": 83
    },
    {
      "midi": 60,
      "hit": false,
      "t": 252856.88999999984,
      "d": 154.76175000000512,
      "v": 83
    },
    {
      "midi": 55,
      "hit": false,
      "t": 252856.88999999984,
      "d": 174.6030000000028,
      "v": 83
    },
    {
      "midi": 58,
      "hit": false,
      "t": 252856.88999999984,
      "d": 174.6030000000028,
      "v": 83
    },
    {
      "midi": 52,
      "hit": false,
      "t": 253094.98499999984,
      "d": 95.23800000001211,
      "v": 83
    },
    {
      "midi": 55,
      "hit": false,
      "t": 253094.98499999984,
      "d": 95.23800000001211,
      "v": 79
    },
    {
      "midi": 58,
      "hit": false,
      "t": 253094.98499999984,
      "d": 95.23800000001211,
      "v": 83
    },
    {
      "midi": 60,
      "hit": false,
      "t": 253094.98499999984,
      "d": 134.92050000000745,
      "v": 79
    },
    {
      "midi": 57,
      "hit": false,
      "t": 253333.07999999984,
      "d": 149.80143749999115,
      "v": 79
    },
    {
      "midi": 60,
      "hit": false,
      "t": 253333.07999999984,
      "d": 166.66649999999208,
      "v": 83
    },
    {
      "midi": 53,
      "hit": false,
      "t": 253333.07999999984,
      "d": 186.50774999998976,
      "v": 83
    },
    {
      "midi": 41,
      "hit": false,
      "t": 253333.07999999984,
      "d": 506.94393750000745,
      "v": 79
    },
    {
      "midi": 60,
      "hit": false,
      "t": 253571.17499999984,
      "d": 211.3093125000014,
      "v": 83
    },
    {
      "midi": 53,
      "hit": false,
      "t": 253571.17499999984,
      "d": 229.16643750001094,
      "v": 83
    },
    {
      "midi": 57,
      "hit": false,
      "t": 253571.17499999984,
      "d": 231.15056249999907,
      "v": 83
    },
    {
      "midi": 60,
      "hit": false,
      "t": 254523.55499999985,
      "d": 151.78556250000838,
      "v": 83
    },
    {
      "midi": 53,
      "hit": false,
      "t": 254523.55499999985,
      "d": 171.62681250000605,
      "v": 83
    },
    {
      "midi": 57,
      "hit": false,
      "t": 254523.55499999985,
      "d": 171.62681250000605,
      "v": 83
    },
    {
      "midi": 41,
      "hit": false,
      "t": 254523.55499999985,
      "d": 432.5392499999725,
      "v": 83
    },
    {
      "midi": 57,
      "hit": false,
      "t": 254761.64999999985,
      "d": 92.26181249998626,
      "v": 83
    },
    {
      "midi": 53,
      "hit": false,
      "t": 254761.64999999985,
      "d": 112.10306249998393,
      "v": 83
    },
    {
      "midi": 60,
      "hit": false,
      "t": 254761.64999999985,
      "d": 112.10306249998393,
      "v": 83
    },
    {
      "midi": 57,
      "hit": false,
      "t": 254999.74499999982,
      "d": 67.46025000000373,
      "v": 83
    },
    {
      "midi": 53,
      "hit": false,
      "t": 254999.74499999982,
      "d": 87.3015000000014,
      "v": 79
    },
    {
      "midi": 60,
      "hit": false,
      "t": 254999.74499999982,
      "d": 87.3015000000014,
      "v": 83
    },
    {
      "midi": 53,
      "hit": false,
      "t": 255237.83999999982,
      "d": 151.78556250000838,
      "v": 83
    },
    {
      "midi": 62,
      "hit": false,
      "t": 255237.83999999982,
      "d": 151.78556250000838,
      "v": 83
    },
    {
      "midi": 59,
      "hit": false,
      "t": 255237.83999999982,
      "d": 169.64268750001793,
      "v": 83
    },
    {
      "midi": 43,
      "hit": false,
      "t": 255237.83999999982,
      "d": 350.1980625000433,
      "v": 79
    },
    {
      "midi": 59,
      "hit": false,
      "t": 255475.93499999985,
      "d": 186.50775000001886,
      "v": 83
    },
    {
      "midi": 53,
      "hit": false,
      "t": 255475.93499999985,
      "d": 194.44425000002957,
      "v": 83
    },
    {
      "midi": 62,
      "hit": false,
      "t": 255475.93499999985,
      "d": 204.3648750000284,
      "v": 83
    },
    {
      "midi": 62,
      "hit": false,
      "t": 256428.3149999999,
      "d": 189.4839374999865,
      "v": 83
    },
    {
      "midi": 53,
      "hit": false,
      "t": 256428.3149999999,
      "d": 229.16643749998184,
      "v": 83
    },
    {
      "midi": 59,
      "hit": false,
      "t": 256428.3149999999,
      "d": 229.16643749998184,
      "v": 83
    },
    {
      "midi": 43,
      "hit": false,
      "t": 256428.3149999999,
      "d": 591.2692499999539,
      "v": 73
    },
    {
      "midi": 62,
      "hit": false,
      "t": 256666.40999999986,
      "d": 129.96018749999348,
      "v": 83
    },
    {
      "midi": 59,
      "hit": false,
      "t": 256666.40999999986,
      "d": 151.78556249997928,
      "v": 83
    },
    {
      "midi": 53,
      "hit": false,
      "t": 256666.40999999986,
      "d": 171.62681249997695,
      "v": 83
    },
    {
      "midi": 62,
      "hit": false,
      "t": 256904.50499999983,
      "d": 122.02368750001187,
      "v": 83
    },
    {
      "midi": 53,
      "hit": false,
      "t": 256904.50499999983,
      "d": 131.9443125000107,
      "v": 83
    },
    {
      "midi": 59,
      "hit": false,
      "t": 256904.50499999983,
      "d": 131.9443125000107,
      "v": 83
    },
    {
      "midi": 52,
      "hit": false,
      "t": 257142.59999999983,
      "d": 164.68237500000396,
      "v": 83
    },
    {
      "midi": 55,
      "hit": false,
      "t": 257142.59999999983,
      "d": 164.68237500000396,
      "v": 83
    },
    {
      "midi": 60,
      "hit": false,
      "t": 257142.59999999983,
      "d": 164.68237500000396,
      "v": 83
    },
    {
      "midi": 48,
      "hit": false,
      "t": 257142.59999999983,
      "d": 340.27743750001537,
      "v": 73
    },
    {
      "midi": 36,
      "hit": false,
      "t": 257142.59999999983,
      "d": 1753.9665000000095,
      "v": 73
    },
    {
      "midi": 60,
      "hit": false,
      "t": 257380.69499999983,
      "d": 169.64268750001793,
      "v": 83
    },
    {
      "midi": 52,
      "hit": false,
      "t": 257380.69499999983,
      "d": 186.50775000001886,
      "v": 83
    },
    {
      "midi": 55,
      "hit": false,
      "t": 257380.69499999983,
      "d": 186.50775000001886,
      "v": 83
    },
    {
      "midi": 48,
      "hit": false,
      "t": 257737.83749999985,
      "d": 861.1102499999979,
      "v": 73
    },
    {
      "midi": 52,
      "hit": false,
      "t": 258333.07499999984,
      "d": 149.80143749999115,
      "v": 83
    },
    {
      "midi": 55,
      "hit": false,
      "t": 258333.07499999984,
      "d": 149.80143749999115,
      "v": 83
    },
    {
      "midi": 60,
      "hit": false,
      "t": 258333.07499999984,
      "d": 149.80143749999115,
      "v": 83
    },
    {
      "midi": 55,
      "hit": false,
      "t": 258571.16999999984,
      "d": 110.11893749999581,
      "v": 83
    },
    {
      "midi": 52,
      "hit": false,
      "t": 258571.16999999984,
      "d": 129.96018749999348,
      "v": 83
    },
    {
      "midi": 60,
      "hit": false,
      "t": 258571.16999999984,
      "d": 129.96018749999348,
      "v": 83
    },
    {
      "midi": 55,
      "hit": false,
      "t": 258809.26499999984,
      "d": 110.11893749999581,
      "v": 83
    },
    {
      "midi": 52,
      "hit": false,
      "t": 258809.26499999984,
      "d": 129.96018749999348,
      "v": 83
    },
    {
      "midi": 60,
      "hit": false,
      "t": 258809.26499999984,
      "d": 129.96018749999348,
      "v": 83
    },
    {
      "midi": 53,
      "hit": false,
      "t": 259047.35999999984,
      "d": 90.27768749999814,
      "v": 83
    },
    {
      "midi": 59,
      "hit": false,
      "t": 259047.35999999984,
      "d": 126.98399999999674,
      "v": 83
    },
    {
      "midi": 50,
      "hit": false,
      "t": 259047.35999999984,
      "d": 146.8252499999944,
      "v": 83
    },
    {
      "midi": 43,
      "hit": false,
      "t": 259047.35999999984,
      "d": 404.76149999999325,
      "v": 83
    },
    {
      "midi": 55,
      "hit": false,
      "t": 259285.45499999984,
      "d": 110.11893749999581,
      "v": 83
    },
    {
      "midi": 53,
      "hit": false,
      "t": 259285.45499999984,
      "d": 129.96018749999348,
      "v": 83
    },
    {
      "midi": 59,
      "hit": false,
      "t": 259285.45499999984,
      "d": 129.96018749999348,
      "v": 83
    },
    {
      "midi": 50,
      "hit": false,
      "t": 259285.45499999984,
      "d": 151.78556249997928,
      "v": 83
    },
    {
      "midi": 43,
      "hit": false,
      "t": 259761.64499999984,
      "d": 492.06299999999464,
      "v": 73
    },
    {
      "midi": 50,
      "hit": false,
      "t": 260237.83499999985,
      "d": 52.57931249999092,
      "v": 83
    },
    {
      "midi": 53,
      "hit": false,
      "t": 260237.83499999985,
      "d": 52.57931249999092,
      "v": 83
    },
    {
      "midi": 55,
      "hit": false,
      "t": 260237.83499999985,
      "d": 52.57931249999092,
      "v": 83
    },
    {
      "midi": 59,
      "hit": false,
      "t": 260237.83499999985,
      "d": 70.43643750000047,
      "v": 83
    },
    {
      "midi": 43,
      "hit": false,
      "t": 260475.92999999985,
      "d": 229.16643750001094,
      "v": 79
    },
    {
      "midi": 53,
      "hit": false,
      "t": 260714.02499999985,
      "d": 156.74587499999325,
      "v": 83
    },
    {
      "midi": 55,
      "hit": false,
      "t": 260714.02499999985,
      "d": 171.62681250000605,
      "v": 83
    },
    {
      "midi": 59,
      "hit": false,
      "t": 260714.02499999985,
      "d": 171.62681250000605,
      "v": 83
    },
    {
      "midi": 50,
      "hit": false,
      "t": 260714.02499999985,
      "d": 191.46806250000373,
      "v": 83
    },
    {
      "midi": 52,
      "hit": false,
      "t": 260952.11999999985,
      "d": 92.26181249998626,
      "v": 83
    },
    {
      "midi": 60,
      "hit": false,
      "t": 260952.11999999985,
      "d": 110.11893749999581,
      "v": 83
    },
    {
      "midi": 55,
      "hit": false,
      "t": 260952.11999999985,
      "d": 112.10306249998393,
      "v": 83
    },
    {
      "midi": 48,
      "hit": false,
      "t": 260952.11999999985,
      "d": 754.9595624999492,
      "v": 76
    },
    {
      "midi": 36,
      "hit": false,
      "t": 260952.11999999985,
      "d": 1734.1252499998373,
      "v": 79
    },
    {
      "midi": 52,
      "hit": false,
      "t": 261190.21499999982,
      "d": 186.50774999998976,
      "v": 83
    },
    {
      "midi": 55,
      "hit": false,
      "t": 261190.21499999982,
      "d": 186.50774999998976,
      "v": 83
    },
    {
      "midi": 60,
      "hit": false,
      "t": 261190.21499999982,
      "d": 209.32518749998417,
      "v": 83
    },
    {
      "midi": 48,
      "hit": false,
      "t": 261904.4999999998,
      "d": 533.729624999949,
      "v": 73
    },
    {
      "midi": 52,
      "hit": false,
      "t": 262142.5949999998,
      "d": 129.96018749999348,
      "v": 83
    },
    {
      "midi": 55,
      "hit": false,
      "t": 262142.5949999998,
      "d": 129.96018749999348,
      "v": 83
    },
    {
      "midi": 60,
      "hit": false,
      "t": 262142.5949999998,
      "d": 129.96018749999348,
      "v": 83
    },
    {
      "midi": 55,
      "hit": false,
      "t": 262380.68999999977,
      "d": 72.42056249995949,
      "v": 74
    },
    {
      "midi": 52,
      "hit": false,
      "t": 262380.68999999977,
      "d": 90.27768749993993,
      "v": 83
    },
    {
      "midi": 60,
      "hit": false,
      "t": 262380.68999999977,
      "d": 90.27768749993993,
      "v": 83
    },
    {
      "midi": 52,
      "hit": false,
      "t": 262618.7849999997,
      "d": 90.27768749999814,
      "v": 83
    },
    {
      "midi": 55,
      "hit": false,
      "t": 262618.7849999997,
      "d": 90.27768749999814,
      "v": 79
    },
    {
      "midi": 60,
      "hit": false,
      "t": 262618.7849999997,
      "d": 90.27768749999814,
      "v": 83
    },
    {
      "midi": 52,
      "hit": false,
      "t": 262856.87999999966,
      "d": 154.76175000000512,
      "v": 83
    },
    {
      "midi": 62,
      "hit": false,
      "t": 262856.87999999966,
      "d": 154.76175000000512,
      "v": 83
    },
    {
      "midi": 56,
      "hit": false,
      "t": 262856.87999999966,
      "d": 174.6030000000028,
      "v": 83
    },
    {
      "midi": 59,
      "hit": false,
      "t": 262856.87999999966,
      "d": 174.6030000000028,
      "v": 83
    },
    {
      "midi": 40,
      "hit": false,
      "t": 262856.87999999966,
      "d": 417.65831250004703,
      "v": 78
    },
    {
      "midi": 59,
      "hit": false,
      "t": 263094.9749999997,
      "d": 131.9443125000107,
      "v": 83
    },
    {
      "midi": 56,
      "hit": false,
      "t": 263094.9749999997,
      "d": 149.80143749999115,
      "v": 83
    },
    {
      "midi": 62,
      "hit": false,
      "t": 263094.9749999997,
      "d": 149.80143749999115,
      "v": 83
    },
    {
      "midi": 52,
      "hit": false,
      "t": 263094.9749999997,
      "d": 151.78556250000838,
      "v": 83
    },
    {
      "midi": 62,
      "hit": false,
      "t": 264047.3549999997,
      "d": 149.80143749999115,
      "v": 73
    },
    {
      "midi": 52,
      "hit": false,
      "t": 264047.3549999997,
      "d": 171.62681250000605,
      "v": 83
    },
    {
      "midi": 56,
      "hit": false,
      "t": 264047.3549999997,
      "d": 171.62681250000605,
      "v": 83
    },
    {
      "midi": 59,
      "hit": false,
      "t": 264047.3549999997,
      "d": 171.62681250000605,
      "v": 83
    },
    {
      "midi": 40,
      "hit": false,
      "t": 264047.3549999997,
      "d": 268.8489375000354,
      "v": 83
    },
    {
      "midi": 62,
      "hit": false,
      "t": 264285.4499999997,
      "d": 110.11893749999581,
      "v": 73
    },
    {
      "midi": 59,
      "hit": false,
      "t": 264285.4499999997,
      "d": 129.96018749999348,
      "v": 83
    },
    {
      "midi": 56,
      "hit": false,
      "t": 264285.4499999997,
      "d": 139.88081250002142,
      "v": 83
    },
    {
      "midi": 52,
      "hit": false,
      "t": 264285.4499999997,
      "d": 149.80143750004936,
      "v": 83
    },
    {
      "midi": 62,
      "hit": false,
      "t": 264523.54499999975,
      "d": 35.71425000001909,
      "v": 73
    },
    {
      "midi": 59,
      "hit": false,
      "t": 264523.54499999975,
      "d": 75.39675000001444,
      "v": 83
    },
    {
      "midi": 52,
      "hit": false,
      "t": 264523.54499999975,
      "d": 95.23800000001211,
      "v": 80
    },
    {
      "midi": 56,
      "hit": false,
      "t": 264523.54499999975,
      "d": 115.07925000000978,
      "v": 83
    },
    {
      "midi": 52,
      "hit": false,
      "t": 264761.6399999998,
      "d": 171.62681250000605,
      "v": 83
    },
    {
      "midi": 60,
      "hit": false,
      "t": 264761.6399999998,
      "d": 171.62681250000605,
      "v": 83
    },
    {
      "midi": 57,
      "hit": false,
      "t": 264761.6399999998,
      "d": 176.58712500002002,
      "v": 83
    },
    {
      "midi": 45,
      "hit": false,
      "t": 264761.6399999998,
      "d": 660.7136250000331,
      "v": 83
    },
    {
      "midi": 52,
      "hit": false,
      "t": 264999.7349999998,
      "d": 211.3093125000014,
      "v": 83
    },
    {
      "midi": 57,
      "hit": false,
      "t": 264999.7349999998,
      "d": 211.3093125000014,
      "v": 83
    },
    {
      "midi": 60,
      "hit": false,
      "t": 264999.7349999998,
      "d": 211.3093125000014,
      "v": 83
    },
    {
      "midi": 45,
      "hit": false,
      "t": 265594.9724999998,
      "d": 447.4201874999562,
      "v": 73
    },
    {
      "midi": 60,
      "hit": false,
      "t": 265714.0199999998,
      "d": 189.4839374999865,
      "v": 83
    },
    {
      "midi": 52,
      "hit": false,
      "t": 265714.0199999998,
      "d": 209.32518749998417,
      "v": 83
    },
    {
      "midi": 57,
      "hit": false,
      "t": 265714.0199999998,
      "d": 209.32518749998417,
      "v": 83
    },
    {
      "midi": 60,
      "hit": false,
      "t": 266071.16249999974,
      "d": 115.07925000000978,
      "v": 79
    },
    {
      "midi": 52,
      "hit": false,
      "t": 266071.16249999974,
      "d": 134.92050000000745,
      "v": 83
    },
    {
      "midi": 57,
      "hit": false,
      "t": 266071.16249999974,
      "d": 134.92050000000745,
      "v": 79
    },
    {
      "midi": 52,
      "hit": false,
      "t": 266309.2574999998,
      "d": 92.26181250001537,
      "v": 83
    },
    {
      "midi": 60,
      "hit": false,
      "t": 266309.2574999998,
      "d": 95.23800000001211,
      "v": 73
    },
    {
      "midi": 57,
      "hit": false,
      "t": 266309.2574999998,
      "d": 115.07925000000978,
      "v": 76
    },
    {
      "midi": 55,
      "hit": false,
      "t": 266666.3999999998,
      "d": 151.78556250000838,
      "v": 83
    },
    {
      "midi": 52,
      "hit": false,
      "t": 266666.3999999998,
      "d": 171.62681250000605,
      "v": 83
    },
    {
      "midi": 58,
      "hit": false,
      "t": 266666.3999999998,
      "d": 171.62681250000605,
      "v": 83
    },
    {
      "midi": 60,
      "hit": false,
      "t": 266666.3999999998,
      "d": 171.62681250000605,
      "v": 83
    },
    {
      "midi": 48,
      "hit": false,
      "t": 266666.3999999998,
      "d": 407.7376875000191,
      "v": 73
    },
    {
      "midi": 36,
      "hit": false,
      "t": 266666.3999999998,
      "d": 1659.720562500006,
      "v": 83
    },
    {
      "midi": 52,
      "hit": false,
      "t": 266904.4949999998,
      "d": 169.64268749998882,
      "v": 83
    },
    {
      "midi": 55,
      "hit": false,
      "t": 266904.4949999998,
      "d": 169.64268749998882,
      "v": 83
    },
    {
      "midi": 58,
      "hit": false,
      "t": 266904.4949999998,
      "d": 169.64268749998882,
      "v": 83
    },
    {
      "midi": 60,
      "hit": false,
      "t": 266904.4949999998,
      "d": 169.64268749998882,
      "v": 83
    },
    {
      "midi": 60,
      "hit": false,
      "t": 267856.8749999998,
      "d": 87.3015000000014,
      "v": 73
    },
    {
      "midi": 55,
      "hit": false,
      "t": 267856.8749999998,
      "d": 105.15862499998184,
      "v": 73
    },
    {
      "midi": 58,
      "hit": false,
      "t": 267856.8749999998,
      "d": 105.15862499998184,
      "v": 73
    },
    {
      "midi": 52,
      "hit": false,
      "t": 267856.8749999998,
      "d": 124.99987499997951,
      "v": 73
    },
    {
      "midi": 52,
      "hit": false,
      "t": 268094.9699999998,
      "d": 154.76175000000512,
      "v": 83
    },
    {
      "midi": 60,
      "hit": false,
      "t": 268094.9699999998,
      "d": 154.76175000000512,
      "v": 83
    },
    {
      "midi": 55,
      "hit": false,
      "t": 268094.9699999998,
      "d": 174.6030000000028,
      "v": 83
    },
    {
      "midi": 58,
      "hit": false,
      "t": 268094.9699999998,
      "d": 174.6030000000028,
      "v": 83
    },
    {
      "midi": 52,
      "hit": false,
      "t": 268333.06499999977,
      "d": 95.23800000001211,
      "v": 83
    },
    {
      "midi": 55,
      "hit": false,
      "t": 268333.06499999977,
      "d": 95.23800000001211,
      "v": 79
    },
    {
      "midi": 58,
      "hit": false,
      "t": 268333.06499999977,
      "d": 95.23800000001211,
      "v": 83
    },
    {
      "midi": 60,
      "hit": false,
      "t": 268333.06499999977,
      "d": 134.92050000000745,
      "v": 79
    },
    {
      "midi": 57,
      "hit": false,
      "t": 268571.1599999998,
      "d": 149.80143749999115,
      "v": 79
    },
    {
      "midi": 60,
      "hit": false,
      "t": 268571.1599999998,
      "d": 166.66649999999208,
      "v": 83
    },
    {
      "midi": 53,
      "hit": false,
      "t": 268571.1599999998,
      "d": 186.50774999998976,
      "v": 83
    },
    {
      "midi": 41,
      "hit": false,
      "t": 268571.1599999998,
      "d": 506.94393749994924,
      "v": 79
    },
    {
      "midi": 60,
      "hit": false,
      "t": 268809.2549999998,
      "d": 211.3093125000014,
      "v": 83
    },
    {
      "midi": 53,
      "hit": false,
      "t": 268809.2549999998,
      "d": 229.16643749998184,
      "v": 83
    },
    {
      "midi": 57,
      "hit": false,
      "t": 268809.2549999998,
      "d": 231.15056249999907,
      "v": 83
    },
    {
      "midi": 60,
      "hit": false,
      "t": 269761.6349999998,
      "d": 151.78556250000838,
      "v": 83
    },
    {
      "midi": 53,
      "hit": false,
      "t": 269761.6349999998,
      "d": 171.62681250000605,
      "v": 83
    },
    {
      "midi": 57,
      "hit": false,
      "t": 269761.6349999998,
      "d": 171.62681250000605,
      "v": 83
    },
    {
      "midi": 41,
      "hit": false,
      "t": 269761.6349999998,
      "d": 432.53925000003073,
      "v": 83
    },
    {
      "midi": 57,
      "hit": false,
      "t": 269999.7299999998,
      "d": 92.26181250001537,
      "v": 83
    },
    {
      "midi": 53,
      "hit": false,
      "t": 269999.7299999998,
      "d": 112.10306250001304,
      "v": 83
    },
    {
      "midi": 60,
      "hit": false,
      "t": 269999.7299999998,
      "d": 112.10306250001304,
      "v": 83
    },
    {
      "midi": 57,
      "hit": false,
      "t": 270237.8249999998,
      "d": 67.46025000000373,
      "v": 83
    },
    {
      "midi": 53,
      "hit": false,
      "t": 270237.8249999998,
      "d": 87.3015000000014,
      "v": 79
    },
    {
      "midi": 60,
      "hit": false,
      "t": 270237.8249999998,
      "d": 87.3015000000014,
      "v": 83
    },
    {
      "midi": 53,
      "hit": false,
      "t": 270475.9199999998,
      "d": 151.78556250000838,
      "v": 83
    },
    {
      "midi": 62,
      "hit": false,
      "t": 270475.9199999998,
      "d": 151.78556250000838,
      "v": 83
    },
    {
      "midi": 59,
      "hit": false,
      "t": 270475.9199999998,
      "d": 169.64268749998882,
      "v": 83
    },
    {
      "midi": 43,
      "hit": false,
      "t": 270475.9199999998,
      "d": 350.1980624999851,
      "v": 79
    },
    {
      "midi": 59,
      "hit": false,
      "t": 270714.0149999998,
      "d": 186.50774999998976,
      "v": 83
    },
    {
      "midi": 53,
      "hit": false,
      "t": 270714.0149999998,
      "d": 194.44425000000047,
      "v": 83
    },
    {
      "midi": 62,
      "hit": false,
      "t": 270714.0149999998,
      "d": 204.3648750000284,
      "v": 83
    },
    {
      "midi": 62,
      "hit": false,
      "t": 271666.3949999998,
      "d": 189.4839374999865,
      "v": 83
    },
    {
      "midi": 53,
      "hit": false,
      "t": 271666.3949999998,
      "d": 229.16643749998184,
      "v": 83
    },
    {
      "midi": 59,
      "hit": false,
      "t": 271666.3949999998,
      "d": 229.16643749998184,
      "v": 83
    },
    {
      "midi": 43,
      "hit": false,
      "t": 271666.3949999998,
      "d": 591.2692500000121,
      "v": 73
    },
    {
      "midi": 62,
      "hit": false,
      "t": 271904.48999999976,
      "d": 129.96018749999348,
      "v": 83
    },
    {
      "midi": 59,
      "hit": false,
      "t": 271904.48999999976,
      "d": 151.78556250000838,
      "v": 83
    },
    {
      "midi": 53,
      "hit": false,
      "t": 271904.48999999976,
      "d": 171.62681250000605,
      "v": 83
    },
    {
      "midi": 62,
      "hit": false,
      "t": 272142.5849999998,
      "d": 122.02368749998277,
      "v": 83
    },
    {
      "midi": 53,
      "hit": false,
      "t": 272142.5849999998,
      "d": 131.9443125000107,
      "v": 83
    },
    {
      "midi": 59,
      "hit": false,
      "t": 272142.5849999998,
      "d": 131.9443125000107,
      "v": 83
    },
    {
      "midi": 52,
      "hit": false,
      "t": 272380.6799999998,
      "d": 164.68237499997485,
      "v": 83
    },
    {
      "midi": 55,
      "hit": false,
      "t": 272380.6799999998,
      "d": 164.68237499997485,
      "v": 83
    },
    {
      "midi": 60,
      "hit": false,
      "t": 272380.6799999998,
      "d": 164.68237499997485,
      "v": 83
    },
    {
      "midi": 48,
      "hit": false,
      "t": 272380.6799999998,
      "d": 340.27743749995716,
      "v": 73
    },
    {
      "midi": 36,
      "hit": false,
      "t": 272380.6799999998,
      "d": 1753.9664999999222,
      "v": 73
    },
    {
      "midi": 60,
      "hit": false,
      "t": 272618.7749999998,
      "d": 169.64268749998882,
      "v": 83
    },
    {
      "midi": 52,
      "hit": false,
      "t": 272618.7749999998,
      "d": 186.50774999998976,
      "v": 83
    },
    {
      "midi": 55,
      "hit": false,
      "t": 272618.7749999998,
      "d": 186.50774999998976,
      "v": 83
    },
    {
      "midi": 48,
      "hit": false,
      "t": 272975.9174999998,
      "d": 861.1102499999688,
      "v": 73
    },
    {
      "midi": 52,
      "hit": false,
      "t": 273571.1549999998,
      "d": 149.80143749999115,
      "v": 83
    },
    {
      "midi": 55,
      "hit": false,
      "t": 273571.1549999998,
      "d": 149.80143749999115,
      "v": 83
    },
    {
      "midi": 60,
      "hit": false,
      "t": 273571.1549999998,
      "d": 149.80143749999115,
      "v": 83
    },
    {
      "midi": 55,
      "hit": false,
      "t": 273809.24999999977,
      "d": 110.11893749999581,
      "v": 83
    },
    {
      "midi": 52,
      "hit": false,
      "t": 273809.24999999977,
      "d": 129.96018749999348,
      "v": 83
    },
    {
      "midi": 60,
      "hit": false,
      "t": 273809.24999999977,
      "d": 129.96018749999348,
      "v": 83
    },
    {
      "midi": 55,
      "hit": false,
      "t": 274047.34499999974,
      "d": 110.11893749999581,
      "v": 83
    },
    {
      "midi": 52,
      "hit": false,
      "t": 274047.34499999974,
      "d": 129.96018749999348,
      "v": 83
    },
    {
      "midi": 60,
      "hit": false,
      "t": 274047.34499999974,
      "d": 129.96018749999348,
      "v": 83
    },
    {
      "midi": 53,
      "hit": false,
      "t": 275714.0099999997,
      "d": 166.66649999999208,
      "v": 90
    },
    {
      "midi": 55,
      "hit": false,
      "t": 275714.0099999997,
      "d": 166.66649999999208,
      "v": 86
    },
    {
      "midi": 59,
      "hit": false,
      "t": 275714.0099999997,
      "d": 166.66649999999208,
      "v": 111
    },
    {
      "midi": 50,
      "hit": false,
      "t": 275714.0099999997,
      "d": 189.4839374999865,
      "v": 86
    },
    {
      "midi": 50,
      "hit": false,
      "t": 275952.1049999997,
      "d": 189.4839374999865,
      "v": 94
    },
    {
      "midi": 53,
      "hit": false,
      "t": 275952.1049999997,
      "d": 189.4839374999865,
      "v": 98
    },
    {
      "midi": 55,
      "hit": false,
      "t": 275952.1049999997,
      "d": 189.4839374999865,
      "v": 94
    },
    {
      "midi": 59,
      "hit": false,
      "t": 275952.1049999997,
      "d": 189.4839374999865,
      "v": 120
    },
    {
      "midi": 64,
      "hit": false,
      "t": 283809.2399999997,
      "d": 120.03956250002375,
      "v": 93
    },
    {
      "midi": 67,
      "hit": false,
      "t": 283809.2399999997,
      "d": 120.03956250002375,
      "v": 93
    },
    {
      "midi": 72,
      "hit": false,
      "t": 283809.2399999997,
      "d": 129.9601875000517,
      "v": 93
    },
    {
      "midi": 64,
      "hit": false,
      "t": 284047.33499999973,
      "d": 92.26181250001537,
      "v": 93
    },
    {
      "midi": 67,
      "hit": false,
      "t": 284047.33499999973,
      "d": 112.10306250001304,
      "v": 88
    },
    {
      "midi": 72,
      "hit": false,
      "t": 284047.33499999973,
      "d": 112.10306250001304,
      "v": 90
    },
    {
      "midi": 64,
      "hit": false,
      "t": 284999.71499999973,
      "d": 107.14274999999907,
      "v": 93
    },
    {
      "midi": 67,
      "hit": false,
      "t": 284999.71499999973,
      "d": 107.14274999999907,
      "v": 93
    },
    {
      "midi": 72,
      "hit": false,
      "t": 284999.71499999973,
      "d": 126.98399999999674,
      "v": 93
    },
    {
      "midi": 64,
      "hit": false,
      "t": 285237.8099999997,
      "d": 110.11893749999581,
      "v": 93
    },
    {
      "midi": 67,
      "hit": false,
      "t": 285237.8099999997,
      "d": 110.11893749999581,
      "v": 93
    },
    {
      "midi": 72,
      "hit": false,
      "t": 285237.8099999997,
      "d": 110.11893749999581,
      "v": 93
    },
    {
      "midi": 64,
      "hit": false,
      "t": 285475.9049999997,
      "d": 90.27768749999814,
      "v": 93
    },
    {
      "midi": 67,
      "hit": false,
      "t": 285475.9049999997,
      "d": 90.27768749999814,
      "v": 90
    },
    {
      "midi": 72,
      "hit": false,
      "t": 285475.9049999997,
      "d": 90.27768749999814,
      "v": 93
    },
    {
      "midi": 64,
      "hit": false,
      "t": 285713.99999999965,
      "d": 126.98399999999674,
      "v": 93
    },
    {
      "midi": 67,
      "hit": false,
      "t": 285713.99999999965,
      "d": 126.98399999999674,
      "v": 93
    },
    {
      "midi": 72,
      "hit": false,
      "t": 285713.99999999965,
      "d": 126.98399999999674,
      "v": 93
    },
    {
      "midi": 72,
      "hit": false,
      "t": 285952.0949999996,
      "d": 129.96018749999348,
      "v": 93
    },
    {
      "midi": 67,
      "hit": false,
      "t": 285952.0949999996,
      "d": 146.8252499999944,
      "v": 93
    },
    {
      "midi": 64,
      "hit": false,
      "t": 285952.0949999996,
      "d": 166.66649999999208,
      "v": 93
    },
    {
      "midi": 64,
      "hit": false,
      "t": 287142.5699999996,
      "d": 249.0076874999795,
      "v": 93
    },
    {
      "midi": 67,
      "hit": false,
      "t": 287142.5699999996,
      "d": 249.0076874999795,
      "v": 93
    },
    {
      "midi": 72,
      "hit": false,
      "t": 287142.5699999996,
      "d": 249.0076874999795,
      "v": 93
    },
    {
      "midi": 64,
      "hit": false,
      "t": 287618.7599999996,
      "d": 107.14274999999907,
      "v": 93
    },
    {
      "midi": 69,
      "hit": false,
      "t": 287618.7599999996,
      "d": 107.14274999999907,
      "v": 93
    },
    {
      "midi": 72,
      "hit": false,
      "t": 287618.7599999996,
      "d": 107.14274999999907,
      "v": 93
    },
    {
      "midi": 72,
      "hit": false,
      "t": 287856.8549999996,
      "d": 110.11893749999581,
      "v": 93
    },
    {
      "midi": 64,
      "hit": false,
      "t": 287856.8549999996,
      "d": 151.78556250000838,
      "v": 93
    },
    {
      "midi": 69,
      "hit": false,
      "t": 287856.8549999996,
      "d": 156.74587500002235,
      "v": 93
    },
    {
      "midi": 64,
      "hit": false,
      "t": 288809.2349999996,
      "d": 92.26181250001537,
      "v": 93
    },
    {
      "midi": 69,
      "hit": false,
      "t": 288809.2349999996,
      "d": 110.11893749999581,
      "v": 93
    },
    {
      "midi": 72,
      "hit": false,
      "t": 288809.2349999996,
      "d": 110.11893749999581,
      "v": 93
    },
    {
      "midi": 64,
      "hit": false,
      "t": 289047.32999999955,
      "d": 87.3015000000014,
      "v": 93
    },
    {
      "midi": 69,
      "hit": false,
      "t": 289047.32999999955,
      "d": 87.3015000000014,
      "v": 93
    },
    {
      "midi": 72,
      "hit": false,
      "t": 289047.32999999955,
      "d": 87.3015000000014,
      "v": 93
    },
    {
      "midi": 64,
      "hit": false,
      "t": 289285.4249999996,
      "d": 70.43643750000047,
      "v": 93
    },
    {
      "midi": 72,
      "hit": false,
      "t": 289285.4249999996,
      "d": 70.43643750000047,
      "v": 93
    },
    {
      "midi": 69,
      "hit": false,
      "t": 289285.4249999996,
      "d": 90.27768749999814,
      "v": 93
    },
    {
      "midi": 64,
      "hit": false,
      "t": 289523.51999999955,
      "d": 90.27768749999814,
      "v": 93
    },
    {
      "midi": 69,
      "hit": false,
      "t": 289523.51999999955,
      "d": 90.27768749999814,
      "v": 93
    },
    {
      "midi": 72,
      "hit": false,
      "t": 289523.51999999955,
      "d": 90.27768749999814,
      "v": 93
    },
    {
      "midi": 69,
      "hit": false,
      "t": 289761.6149999995,
      "d": 90.27768749999814,
      "v": 93
    },
    {
      "midi": 72,
      "hit": false,
      "t": 289761.6149999995,
      "d": 90.27768749999814,
      "v": 93
    },
    {
      "midi": 64,
      "hit": false,
      "t": 289761.6149999995,
      "d": 107.14274999999907,
      "v": 93
    },
    {
      "midi": 72,
      "hit": false,
      "t": 290237.8049999995,
      "d": 50.595187500002794,
      "v": 93
    },
    {
      "midi": 64,
      "hit": false,
      "t": 290237.8049999995,
      "d": 67.46025000000373,
      "v": 93
    },
    {
      "midi": 69,
      "hit": false,
      "t": 290237.8049999995,
      "d": 70.43643750000047,
      "v": 90
    },
    {
      "midi": 72,
      "hit": false,
      "t": 290594.94749999954,
      "d": 363.0948750000098,
      "v": 93
    },
    {
      "midi": 64,
      "hit": false,
      "t": 290594.94749999954,
      "d": 389.88056250003865,
      "v": 93
    },
    {
      "midi": 69,
      "hit": false,
      "t": 290594.94749999954,
      "d": 389.88056250003865,
      "v": 93
    },
    {
      "midi": 65,
      "hit": false,
      "t": 291428.27999999956,
      "d": 50.595187500002794,
      "v": 88
    },
    {
      "midi": 62,
      "hit": false,
      "t": 291428.27999999956,
      "d": 70.43643750000047,
      "v": 93
    },
    {
      "midi": 72,
      "hit": false,
      "t": 291428.27999999956,
      "d": 70.43643750000047,
      "v": 93
    },
    {
      "midi": 69,
      "hit": false,
      "t": 291428.27999999956,
      "d": 72.4205625000177,
      "v": 90
    },
    {
      "midi": 62,
      "hit": false,
      "t": 291666.3749999996,
      "d": 129.96018749999348,
      "v": 93
    },
    {
      "midi": 65,
      "hit": false,
      "t": 291666.3749999996,
      "d": 129.96018749999348,
      "v": 93
    },
    {
      "midi": 69,
      "hit": false,
      "t": 291666.3749999996,
      "d": 129.96018749999348,
      "v": 93
    },
    {
      "midi": 72,
      "hit": false,
      "t": 291666.3749999996,
      "d": 149.80143749999115,
      "v": 93
    },
    {
      "midi": 72,
      "hit": false,
      "t": 292618.7549999996,
      "d": 92.26181250001537,
      "v": 93
    },
    {
      "midi": 62,
      "hit": false,
      "t": 292618.7549999996,
      "d": 110.11893749999581,
      "v": 93
    },
    {
      "midi": 65,
      "hit": false,
      "t": 292618.7549999996,
      "d": 110.11893749999581,
      "v": 93
    },
    {
      "midi": 69,
      "hit": false,
      "t": 292618.7549999996,
      "d": 110.11893749999581,
      "v": 93
    },
    {
      "midi": 65,
      "hit": false,
      "t": 292856.84999999957,
      "d": 70.43643750000047,
      "v": 93
    },
    {
      "midi": 62,
      "hit": false,
      "t": 292856.84999999957,
      "d": 90.27768749999814,
      "v": 93
    },
    {
      "midi": 69,
      "hit": false,
      "t": 292856.84999999957,
      "d": 90.27768749999814,
      "v": 93
    },
    {
      "midi": 72,
      "hit": false,
      "t": 292856.84999999957,
      "d": 90.27768749999814,
      "v": 93
    },
    {
      "midi": 65,
      "hit": false,
      "t": 293094.94499999954,
      "d": 67.46025000000373,
      "v": 93
    },
    {
      "midi": 72,
      "hit": false,
      "t": 293094.94499999954,
      "d": 67.46025000000373,
      "v": 88
    },
    {
      "midi": 69,
      "hit": false,
      "t": 293094.94499999954,
      "d": 87.3015000000014,
      "v": 90
    },
    {
      "midi": 62,
      "hit": false,
      "t": 293094.94499999954,
      "d": 90.27768749999814,
      "v": 93
    },
    {
      "midi": 65,
      "hit": false,
      "t": 293333.0399999995,
      "d": 80.3570625000284,
      "v": 93
    },
    {
      "midi": 62,
      "hit": false,
      "t": 293333.0399999995,
      "d": 100.19831250002608,
      "v": 93
    },
    {
      "midi": 69,
      "hit": false,
      "t": 293333.0399999995,
      "d": 100.19831250002608,
      "v": 93
    },
    {
      "midi": 72,
      "hit": false,
      "t": 293333.0399999995,
      "d": 100.19831250002608,
      "v": 93
    },
    {
      "midi": 65,
      "hit": false,
      "t": 293571.13499999954,
      "d": 90.27768749999814,
      "v": 93
    },
    {
      "midi": 69,
      "hit": false,
      "t": 293571.13499999954,
      "d": 110.11893749999581,
      "v": 93
    },
    {
      "midi": 72,
      "hit": false,
      "t": 293571.13499999954,
      "d": 110.11893749999581,
      "v": 93
    },
    {
      "midi": 62,
      "hit": false,
      "t": 293571.13499999954,
      "d": 149.80143749999115,
      "v": 93
    },
    {
      "midi": 65,
      "hit": false,
      "t": 294404.46749999956,
      "d": 67.46025000000373,
      "v": 93
    },
    {
      "midi": 62,
      "hit": false,
      "t": 294404.46749999956,
      "d": 87.3015000000014,
      "v": 93
    },
    {
      "midi": 69,
      "hit": false,
      "t": 294404.46749999956,
      "d": 87.3015000000014,
      "v": 93
    },
    {
      "midi": 72,
      "hit": false,
      "t": 294404.46749999956,
      "d": 87.3015000000014,
      "v": 93
    },
    {
      "midi": 69,
      "hit": false,
      "t": 294761.6099999996,
      "d": 95.23800000001211,
      "v": 93
    },
    {
      "midi": 65,
      "hit": false,
      "t": 294761.6099999996,
      "d": 110.11893749999581,
      "v": 93
    },
    {
      "midi": 72,
      "hit": false,
      "t": 294761.6099999996,
      "d": 115.07925000000978,
      "v": 93
    },
    {
      "midi": 62,
      "hit": false,
      "t": 294761.6099999996,
      "d": 129.96018749999348,
      "v": 93
    },
    {
      "midi": 71,
      "hit": false,
      "t": 295237.7999999996,
      "d": 107.14274999999907,
      "v": 93
    },
    {
      "midi": 65,
      "hit": false,
      "t": 295237.7999999996,
      "d": 129.96018749999348,
      "v": 88
    },
    {
      "midi": 62,
      "hit": false,
      "t": 295237.7999999996,
      "d": 149.80143749999115,
      "v": 93
    },
    {
      "midi": 67,
      "hit": false,
      "t": 295237.7999999996,
      "d": 149.80143749999115,
      "v": 90
    },
    {
      "midi": 71,
      "hit": false,
      "t": 295475.89499999955,
      "d": 92.26181250001537,
      "v": 93
    },
    {
      "midi": 65,
      "hit": false,
      "t": 295475.89499999955,
      "d": 129.96018749999348,
      "v": 93
    },
    {
      "midi": 67,
      "hit": false,
      "t": 295475.89499999955,
      "d": 131.9443125000107,
      "v": 93
    },
    {
      "midi": 62,
      "hit": false,
      "t": 295475.89499999955,
      "d": 151.78556250000838,
      "v": 93
    },
    {
      "midi": 65,
      "hit": false,
      "t": 296428.27499999956,
      "d": 95.23800000001211,
      "v": 93
    },
    {
      "midi": 71,
      "hit": false,
      "t": 296428.27499999956,
      "d": 95.23800000001211,
      "v": 93
    },
    {
      "midi": 62,
      "hit": false,
      "t": 296428.27499999956,
      "d": 112.10306250001304,
      "v": 93
    },
    {
      "midi": 67,
      "hit": false,
      "t": 296428.27499999956,
      "d": 115.07925000000978,
      "v": 93
    },
    {
      "midi": 65,
      "hit": false,
      "t": 296666.3699999996,
      "d": 72.4205625000177,
      "v": 90
    },
    {
      "midi": 71,
      "hit": false,
      "t": 296666.3699999996,
      "d": 72.4205625000177,
      "v": 93
    },
    {
      "midi": 62,
      "hit": false,
      "t": 296666.3699999996,
      "d": 95.23800000001211,
      "v": 93
    },
    {
      "midi": 67,
      "hit": false,
      "t": 296666.3699999996,
      "d": 115.07925000000978,
      "v": 90
    },
    {
      "midi": 65,
      "hit": false,
      "t": 296904.4649999996,
      "d": 72.4205625000177,
      "v": 93
    },
    {
      "midi": 71,
      "hit": false,
      "t": 296904.4649999996,
      "d": 72.4205625000177,
      "v": 93
    },
    {
      "midi": 62,
      "hit": false,
      "t": 296904.4649999996,
      "d": 92.26181250001537,
      "v": 93
    },
    {
      "midi": 67,
      "hit": false,
      "t": 296904.4649999996,
      "d": 92.26181250001537,
      "v": 90
    },
    {
      "midi": 65,
      "hit": false,
      "t": 297142.55999999965,
      "d": 90.27768749999814,
      "v": 93
    },
    {
      "midi": 67,
      "hit": false,
      "t": 297142.55999999965,
      "d": 90.27768749999814,
      "v": 93
    },
    {
      "midi": 71,
      "hit": false,
      "t": 297142.55999999965,
      "d": 90.27768749999814,
      "v": 93
    },
    {
      "midi": 62,
      "hit": false,
      "t": 297142.55999999965,
      "d": 107.14274999999907,
      "v": 93
    },
    {
      "midi": 67,
      "hit": false,
      "t": 297380.6549999996,
      "d": 70.43643750000047,
      "v": 93
    },
    {
      "midi": 65,
      "hit": false,
      "t": 297380.6549999996,
      "d": 90.27768749999814,
      "v": 93
    },
    {
      "midi": 71,
      "hit": false,
      "t": 297380.6549999996,
      "d": 90.27768749999814,
      "v": 93
    },
    {
      "midi": 62,
      "hit": false,
      "t": 297380.6549999996,
      "d": 107.14274999999907,
      "v": 93
    },
    {
      "midi": 71,
      "hit": false,
      "t": 298333.0349999996,
      "d": 280.75368750002235,
      "v": 93
    },
    {
      "midi": 62,
      "hit": false,
      "t": 298333.0349999996,
      "d": 310.51556250004796,
      "v": 93
    },
    {
      "midi": 65,
      "hit": false,
      "t": 298333.0349999996,
      "d": 310.51556250004796,
      "v": 93
    },
    {
      "midi": 67,
      "hit": false,
      "t": 298333.0349999996,
      "d": 310.51556250004796,
      "v": 93
    },
    {
      "midi": 64,
      "hit": false,
      "t": 299047.31999999966,
      "d": 120.03956250002375,
      "v": 93
    },
    {
      "midi": 67,
      "hit": false,
      "t": 299047.31999999966,
      "d": 120.03956250002375,
      "v": 93
    },
    {
      "midi": 72,
      "hit": false,
      "t": 299047.31999999966,
      "d": 129.9601875000517,
      "v": 93
    },
    {
      "midi": 64,
      "hit": false,
      "t": 299285.4149999997,
      "d": 92.26181250001537,
      "v": 93
    },
    {
      "midi": 67,
      "hit": false,
      "t": 299285.4149999997,
      "d": 112.10306250001304,
      "v": 88
    },
    {
      "midi": 72,
      "hit": false,
      "t": 299285.4149999997,
      "d": 112.10306250001304,
      "v": 90
    },
    {
      "midi": 64,
      "hit": false,
      "t": 300237.7949999997,
      "d": 107.14274999999907,
      "v": 93
    },
    {
      "midi": 67,
      "hit": false,
      "t": 300237.7949999997,
      "d": 107.14274999999907,
      "v": 93
    },
    {
      "midi": 72,
      "hit": false,
      "t": 300237.7949999997,
      "d": 126.98399999999674,
      "v": 93
    },
    {
      "midi": 64,
      "hit": false,
      "t": 300475.88999999966,
      "d": 110.11893749999581,
      "v": 93
    },
    {
      "midi": 67,
      "hit": false,
      "t": 300475.88999999966,
      "d": 110.11893749999581,
      "v": 93
    },
    {
      "midi": 72,
      "hit": false,
      "t": 300475.88999999966,
      "d": 110.11893749999581,
      "v": 93
    },
    {
      "midi": 64,
      "hit": false,
      "t": 300713.98499999964,
      "d": 90.27768749999814,
      "v": 93
    },
    {
      "midi": 67,
      "hit": false,
      "t": 300713.98499999964,
      "d": 90.27768749999814,
      "v": 90
    },
    {
      "midi": 72,
      "hit": false,
      "t": 300713.98499999964,
      "d": 90.27768749999814,
      "v": 93
    },
    {
      "midi": 64,
      "hit": false,
      "t": 300952.0799999996,
      "d": 126.98399999999674,
      "v": 93
    },
    {
      "midi": 67,
      "hit": false,
      "t": 300952.0799999996,
      "d": 126.98399999999674,
      "v": 93
    },
    {
      "midi": 72,
      "hit": false,
      "t": 300952.0799999996,
      "d": 126.98399999999674,
      "v": 93
    },
    {
      "midi": 72,
      "hit": false,
      "t": 301190.1749999996,
      "d": 129.96018749999348,
      "v": 93
    },
    {
      "midi": 67,
      "hit": false,
      "t": 301190.1749999996,
      "d": 146.8252499999944,
      "v": 93
    },
    {
      "midi": 64,
      "hit": false,
      "t": 301190.1749999996,
      "d": 166.66649999999208,
      "v": 93
    },
    {
      "midi": 64,
      "hit": false,
      "t": 302380.64999999956,
      "d": 249.0076874999795,
      "v": 93
    },
    {
      "midi": 67,
      "hit": false,
      "t": 302380.64999999956,
      "d": 249.0076874999795,
      "v": 93
    },
    {
      "midi": 72,
      "hit": false,
      "t": 302380.64999999956,
      "d": 249.0076874999795,
      "v": 93
    },
    {
      "midi": 64,
      "hit": false,
      "t": 302856.83999999956,
      "d": 107.14274999999907,
      "v": 93
    },
    {
      "midi": 69,
      "hit": false,
      "t": 302856.83999999956,
      "d": 107.14274999999907,
      "v": 93
    },
    {
      "midi": 72,
      "hit": false,
      "t": 302856.83999999956,
      "d": 107.14274999999907,
      "v": 93
    },
    {
      "midi": 72,
      "hit": false,
      "t": 303094.93499999953,
      "d": 110.11893749999581,
      "v": 93
    },
    {
      "midi": 64,
      "hit": false,
      "t": 303094.93499999953,
      "d": 151.78556250000838,
      "v": 93
    },
    {
      "midi": 69,
      "hit": false,
      "t": 303094.93499999953,
      "d": 156.74587500002235,
      "v": 93
    },
    {
      "midi": 64,
      "hit": false,
      "t": 304047.31499999954,
      "d": 92.26181250001537,
      "v": 93
    },
    {
      "midi": 69,
      "hit": false,
      "t": 304047.31499999954,
      "d": 110.11893749999581,
      "v": 93
    },
    {
      "midi": 72,
      "hit": false,
      "t": 304047.31499999954,
      "d": 110.11893749999581,
      "v": 93
    },
    {
      "midi": 64,
      "hit": false,
      "t": 304285.4099999995,
      "d": 87.3015000000014,
      "v": 93
    },
    {
      "midi": 69,
      "hit": false,
      "t": 304285.4099999995,
      "d": 87.3015000000014,
      "v": 93
    },
    {
      "midi": 72,
      "hit": false,
      "t": 304285.4099999995,
      "d": 87.3015000000014,
      "v": 93
    },
    {
      "midi": 64,
      "hit": false,
      "t": 304523.50499999954,
      "d": 70.43643750000047,
      "v": 93
    },
    {
      "midi": 72,
      "hit": false,
      "t": 304523.50499999954,
      "d": 70.43643750000047,
      "v": 93
    },
    {
      "midi": 69,
      "hit": false,
      "t": 304523.50499999954,
      "d": 90.27768749999814,
      "v": 93
    },
    {
      "midi": 64,
      "hit": false,
      "t": 304761.5999999995,
      "d": 90.27768749999814,
      "v": 93
    },
    {
      "midi": 69,
      "hit": false,
      "t": 304761.5999999995,
      "d": 90.27768749999814,
      "v": 93
    },
    {
      "midi": 72,
      "hit": false,
      "t": 304761.5999999995,
      "d": 90.27768749999814,
      "v": 93
    },
    {
      "midi": 69,
      "hit": false,
      "t": 304999.6949999995,
      "d": 90.27768749999814,
      "v": 93
    },
    {
      "midi": 72,
      "hit": false,
      "t": 304999.6949999995,
      "d": 90.27768749999814,
      "v": 93
    },
    {
      "midi": 64,
      "hit": false,
      "t": 304999.6949999995,
      "d": 107.14274999999907,
      "v": 93
    },
    {
      "midi": 72,
      "hit": false,
      "t": 305475.8849999995,
      "d": 50.595187500002794,
      "v": 93
    },
    {
      "midi": 64,
      "hit": false,
      "t": 305475.8849999995,
      "d": 67.46025000000373,
      "v": 93
    },
    {
      "midi": 69,
      "hit": false,
      "t": 305475.8849999995,
      "d": 70.43643750000047,
      "v": 90
    },
    {
      "midi": 72,
      "hit": false,
      "t": 305833.0274999995,
      "d": 363.0948750000098,
      "v": 93
    },
    {
      "midi": 64,
      "hit": false,
      "t": 305833.0274999995,
      "d": 389.88056250003865,
      "v": 93
    },
    {
      "midi": 69,
      "hit": false,
      "t": 305833.0274999995,
      "d": 389.88056250003865,
      "v": 93
    },
    {
      "midi": 65,
      "hit": false,
      "t": 306666.3599999995,
      "d": 50.595187500002794,
      "v": 88
    },
    {
      "midi": 62,
      "hit": false,
      "t": 306666.3599999995,
      "d": 70.43643750000047,
      "v": 93
    },
    {
      "midi": 72,
      "hit": false,
      "t": 306666.3599999995,
      "d": 70.43643750000047,
      "v": 93
    },
    {
      "midi": 69,
      "hit": false,
      "t": 306666.3599999995,
      "d": 72.4205625000177,
      "v": 90
    },
    {
      "midi": 62,
      "hit": false,
      "t": 306904.45499999955,
      "d": 129.96018749999348,
      "v": 93
    },
    {
      "midi": 65,
      "hit": false,
      "t": 306904.45499999955,
      "d": 129.96018749999348,
      "v": 93
    },
    {
      "midi": 69,
      "hit": false,
      "t": 306904.45499999955,
      "d": 129.96018749999348,
      "v": 93
    },
    {
      "midi": 72,
      "hit": false,
      "t": 306904.45499999955,
      "d": 149.80143749999115,
      "v": 93
    },
    {
      "midi": 72,
      "hit": false,
      "t": 307856.83499999956,
      "d": 92.26181250001537,
      "v": 93
    },
    {
      "midi": 62,
      "hit": false,
      "t": 307856.83499999956,
      "d": 110.11893749999581,
      "v": 93
    },
    {
      "midi": 65,
      "hit": false,
      "t": 307856.83499999956,
      "d": 110.11893749999581,
      "v": 93
    },
    {
      "midi": 69,
      "hit": false,
      "t": 307856.83499999956,
      "d": 110.11893749999581,
      "v": 93
    },
    {
      "midi": 65,
      "hit": false,
      "t": 308094.9299999995,
      "d": 70.43643750000047,
      "v": 93
    },
    {
      "midi": 62,
      "hit": false,
      "t": 308094.9299999995,
      "d": 90.27768749999814,
      "v": 93
    },
    {
      "midi": 69,
      "hit": false,
      "t": 308094.9299999995,
      "d": 90.27768749999814,
      "v": 93
    },
    {
      "midi": 72,
      "hit": false,
      "t": 308094.9299999995,
      "d": 90.27768749999814,
      "v": 93
    },
    {
      "midi": 65,
      "hit": false,
      "t": 308333.0249999995,
      "d": 67.46025000000373,
      "v": 93
    },
    {
      "midi": 72,
      "hit": false,
      "t": 308333.0249999995,
      "d": 67.46025000000373,
      "v": 88
    },
    {
      "midi": 69,
      "hit": false,
      "t": 308333.0249999995,
      "d": 87.3015000000014,
      "v": 90
    },
    {
      "midi": 62,
      "hit": false,
      "t": 308333.0249999995,
      "d": 90.27768749999814,
      "v": 93
    },
    {
      "midi": 65,
      "hit": false,
      "t": 308571.1199999995,
      "d": 80.3570625000284,
      "v": 93
    },
    {
      "midi": 62,
      "hit": false,
      "t": 308571.1199999995,
      "d": 100.19831250002608,
      "v": 93
    },
    {
      "midi": 69,
      "hit": false,
      "t": 308571.1199999995,
      "d": 100.19831250002608,
      "v": 93
    },
    {
      "midi": 72,
      "hit": false,
      "t": 308571.1199999995,
      "d": 100.19831250002608,
      "v": 93
    },
    {
      "midi": 65,
      "hit": false,
      "t": 308809.2149999995,
      "d": 90.27768749999814,
      "v": 93
    },
    {
      "midi": 69,
      "hit": false,
      "t": 308809.2149999995,
      "d": 110.11893749999581,
      "v": 93
    },
    {
      "midi": 72,
      "hit": false,
      "t": 308809.2149999995,
      "d": 110.11893749999581,
      "v": 93
    },
    {
      "midi": 62,
      "hit": false,
      "t": 308809.2149999995,
      "d": 149.80143749999115,
      "v": 93
    },
    {
      "midi": 65,
      "hit": false,
      "t": 309642.5474999995,
      "d": 67.46025000000373,
      "v": 93
    },
    {
      "midi": 62,
      "hit": false,
      "t": 309642.5474999995,
      "d": 87.3015000000014,
      "v": 93
    },
    {
      "midi": 69,
      "hit": false,
      "t": 309642.5474999995,
      "d": 87.3015000000014,
      "v": 93
    },
    {
      "midi": 72,
      "hit": false,
      "t": 309642.5474999995,
      "d": 87.3015000000014,
      "v": 93
    },
    {
      "midi": 69,
      "hit": false,
      "t": 309999.68999999954,
      "d": 95.23800000001211,
      "v": 93
    },
    {
      "midi": 65,
      "hit": false,
      "t": 309999.68999999954,
      "d": 110.11893749999581,
      "v": 93
    },
    {
      "midi": 72,
      "hit": false,
      "t": 309999.68999999954,
      "d": 115.07925000000978,
      "v": 93
    },
    {
      "midi": 62,
      "hit": false,
      "t": 309999.68999999954,
      "d": 129.96018749999348,
      "v": 93
    },
    {
      "midi": 71,
      "hit": false,
      "t": 310475.87999999954,
      "d": 107.14274999999907,
      "v": 93
    },
    {
      "midi": 65,
      "hit": false,
      "t": 310475.87999999954,
      "d": 129.96018749999348,
      "v": 88
    },
    {
      "midi": 62,
      "hit": false,
      "t": 310475.87999999954,
      "d": 149.80143749999115,
      "v": 93
    },
    {
      "midi": 67,
      "hit": false,
      "t": 310475.87999999954,
      "d": 149.80143749999115,
      "v": 90
    },
    {
      "midi": 71,
      "hit": false,
      "t": 310713.9749999995,
      "d": 92.26181250001537,
      "v": 93
    },
    {
      "midi": 65,
      "hit": false,
      "t": 310713.9749999995,
      "d": 129.96018749999348,
      "v": 93
    },
    {
      "midi": 67,
      "hit": false,
      "t": 310713.9749999995,
      "d": 131.9443125000107,
      "v": 93
    },
    {
      "midi": 62,
      "hit": false,
      "t": 310713.9749999995,
      "d": 151.78556250000838,
      "v": 93
    },
    {
      "midi": 65,
      "hit": false,
      "t": 311666.3549999995,
      "d": 95.23800000001211,
      "v": 93
    },
    {
      "midi": 71,
      "hit": false,
      "t": 311666.3549999995,
      "d": 95.23800000001211,
      "v": 93
    },
    {
      "midi": 62,
      "hit": false,
      "t": 311666.3549999995,
      "d": 112.10306250001304,
      "v": 93
    },
    {
      "midi": 67,
      "hit": false,
      "t": 311666.3549999995,
      "d": 115.07925000000978,
      "v": 93
    },
    {
      "midi": 65,
      "hit": false,
      "t": 311904.44999999955,
      "d": 72.4205625000177,
      "v": 90
    },
    {
      "midi": 71,
      "hit": false,
      "t": 311904.44999999955,
      "d": 72.4205625000177,
      "v": 93
    },
    {
      "midi": 62,
      "hit": false,
      "t": 311904.44999999955,
      "d": 95.23800000001211,
      "v": 93
    },
    {
      "midi": 67,
      "hit": false,
      "t": 311904.44999999955,
      "d": 115.07925000000978,
      "v": 90
    },
    {
      "midi": 65,
      "hit": false,
      "t": 312142.5449999996,
      "d": 72.4205625000177,
      "v": 93
    },
    {
      "midi": 71,
      "hit": false,
      "t": 312142.5449999996,
      "d": 72.4205625000177,
      "v": 93
    },
    {
      "midi": 62,
      "hit": false,
      "t": 312142.5449999996,
      "d": 92.26181250001537,
      "v": 93
    },
    {
      "midi": 67,
      "hit": false,
      "t": 312142.5449999996,
      "d": 92.26181250001537,
      "v": 90
    },
    {
      "midi": 65,
      "hit": false,
      "t": 312380.6399999996,
      "d": 90.27768749999814,
      "v": 93
    },
    {
      "midi": 67,
      "hit": false,
      "t": 312380.6399999996,
      "d": 90.27768749999814,
      "v": 93
    },
    {
      "midi": 71,
      "hit": false,
      "t": 312380.6399999996,
      "d": 90.27768749999814,
      "v": 93
    },
    {
      "midi": 62,
      "hit": false,
      "t": 312380.6399999996,
      "d": 107.14274999999907,
      "v": 93
    },
    {
      "midi": 67,
      "hit": false,
      "t": 312618.7349999996,
      "d": 70.43643750000047,
      "v": 93
    },
    {
      "midi": 65,
      "hit": false,
      "t": 312618.7349999996,
      "d": 90.27768749999814,
      "v": 93
    },
    {
      "midi": 71,
      "hit": false,
      "t": 312618.7349999996,
      "d": 90.27768749999814,
      "v": 93
    },
    {
      "midi": 62,
      "hit": false,
      "t": 312618.7349999996,
      "d": 107.14274999999907,
      "v": 93
    },
    {
      "midi": 71,
      "hit": false,
      "t": 313571.1149999996,
      "d": 280.75368750002235,
      "v": 93
    },
    {
      "midi": 62,
      "hit": false,
      "t": 313571.1149999996,
      "d": 310.51556250004796,
      "v": 93
    },
    {
      "midi": 65,
      "hit": false,
      "t": 313571.1149999996,
      "d": 310.51556250004796,
      "v": 93
    },
    {
      "midi": 67,
      "hit": false,
      "t": 313571.1149999996,
      "d": 310.51556250004796,
      "v": 93
    }
  ]
}