{
  "jsonPath": "Rap/Pop Rap/Blackstreet/the-lord-is-real-time-will-reveal.json",
  "path": "Rap\\Pop Rap\\Blackstreet\\The Lord Is Real (Time Will Reveal).mid",
  "name": "The Lord Is Real (Time Will Reveal)",
  "difficulty": "Advanced",
  "bpm": 68.0000725334107,
  "notes": [
    {
      "midi": 84,
      "hit": false,
      "t": 6191.169866666667,
      "d": 867.6461333333336,
      "v": 122
    },
    {
      "midi": 36,
      "hit": false,
      "t": 7073.521866666667,
      "d": 1154.4105333333328,
      "v": 122
    },
    {
      "midi": 80,
      "hit": false,
      "t": 7955.873866666667,
      "d": 213.23506666666708,
      "v": 122
    },
    {
      "midi": 79,
      "hit": false,
      "t": 8183.8148,
      "d": 286.7644,
      "v": 122
    },
    {
      "midi": 77,
      "hit": false,
      "t": 8397.049866666666,
      "d": 330.8819999999996,
      "v": 122
    },
    {
      "midi": 79,
      "hit": false,
      "t": 8624.9908,
      "d": 514.7053333333333,
      "v": 122
    },
    {
      "midi": 76,
      "hit": false,
      "t": 9066.166799999999,
      "d": 558.8229333333347,
      "v": 122
    },
    {
      "midi": 72,
      "hit": false,
      "t": 9507.3428,
      "d": 330.8819999999996,
      "v": 122
    },
    {
      "midi": 84,
      "hit": false,
      "t": 9720.577866666667,
      "d": 757.352133333332,
      "v": 122
    },
    {
      "midi": 79,
      "hit": false,
      "t": 10389.6948,
      "d": 308.8231999999989,
      "v": 122
    },
    {
      "midi": 80,
      "hit": false,
      "t": 10602.929866666665,
      "d": 544.1170666666658,
      "v": 122
    },
    {
      "midi": 36,
      "hit": false,
      "t": 10602.929866666665,
      "d": 1066.1753333333327,
      "v": 122
    },
    {
      "midi": 79,
      "hit": false,
      "t": 11044.105866666665,
      "d": 404.41133333333346,
      "v": 122
    },
    {
      "midi": 77,
      "hit": false,
      "t": 11272.046799999998,
      "d": 580.8817333333336,
      "v": 122
    },
    {
      "midi": 79,
      "hit": false,
      "t": 11713.222799999998,
      "d": 558.8229333333347,
      "v": 122
    },
    {
      "midi": 36,
      "hit": false,
      "t": 12154.398799999999,
      "d": 205.8821333333326,
      "v": 122
    },
    {
      "midi": 76,
      "hit": false,
      "t": 12154.398799999999,
      "d": 580.8817333333336,
      "v": 122
    },
    {
      "midi": 36,
      "hit": false,
      "t": 12367.633866666665,
      "d": 1183.8222666666697,
      "v": 122
    },
    {
      "midi": 72,
      "hit": false,
      "t": 12595.574799999999,
      "d": 580.8817333333354,
      "v": 122
    },
    {
      "midi": 67,
      "hit": false,
      "t": 13036.7508,
      "d": 330.8820000000014,
      "v": 122
    },
    {
      "midi": 79,
      "hit": false,
      "t": 13249.985866666668,
      "d": 874.9990666666672,
      "v": 122
    },
    {
      "midi": 31,
      "hit": false,
      "t": 13477.926800000001,
      "d": 205.88213333333442,
      "v": 122
    },
    {
      "midi": 33,
      "hit": false,
      "t": 13691.161866666669,
      "d": 213.23506666666617,
      "v": 122
    },
    {
      "midi": 31,
      "hit": false,
      "t": 13919.102800000002,
      "d": 205.8821333333326,
      "v": 122
    },
    {
      "midi": 36,
      "hit": false,
      "t": 14132.337866666669,
      "d": 1272.057466666667,
      "v": 122
    },
    {
      "midi": 60,
      "hit": false,
      "t": 14132.337866666669,
      "d": 1911.7626666666656,
      "v": 122
    },
    {
      "midi": 56,
      "hit": false,
      "t": 14132.337866666669,
      "d": 1933.8214666666663,
      "v": 122
    },
    {
      "midi": 62,
      "hit": false,
      "t": 15014.68986666667,
      "d": 213.23506666666617,
      "v": 122
    },
    {
      "midi": 64,
      "hit": false,
      "t": 15242.630800000003,
      "d": 205.8821333333326,
      "v": 122
    },
    {
      "midi": 65,
      "hit": false,
      "t": 15455.865866666669,
      "d": 213.23506666666617,
      "v": 122
    },
    {
      "midi": 36,
      "hit": false,
      "t": 15683.806800000002,
      "d": 205.8821333333326,
      "v": 122
    },
    {
      "midi": 64,
      "hit": false,
      "t": 15683.806800000002,
      "d": 2102.938933333331,
      "v": 122
    },
    {
      "midi": 36,
      "hit": false,
      "t": 15897.041866666668,
      "d": 1727.9393333333337,
      "v": 122
    },
    {
      "midi": 62,
      "hit": false,
      "t": 15897.041866666668,
      "d": 1867.645066666666,
      "v": 122
    },
    {
      "midi": 55,
      "hit": false,
      "t": 15897.041866666668,
      "d": 1911.7626666666638,
      "v": 122
    },
    {
      "midi": 59,
      "hit": false,
      "t": 15897.041866666668,
      "d": 1911.7626666666638,
      "v": 122
    },
    {
      "midi": 36,
      "hit": false,
      "t": 17661.745866666668,
      "d": 867.6461333333318,
      "v": 122
    },
    {
      "midi": 60,
      "hit": false,
      "t": 17661.745866666668,
      "d": 1845.5862666666653,
      "v": 122
    },
    {
      "midi": 56,
      "hit": false,
      "t": 17661.745866666668,
      "d": 1911.7626666666656,
      "v": 122
    },
    {
      "midi": 62,
      "hit": false,
      "t": 18544.097866666667,
      "d": 213.235066666668,
      "v": 122
    },
    {
      "midi": 64,
      "hit": false,
      "t": 18772.038800000002,
      "d": 205.8821333333326,
      "v": 122
    },
    {
      "midi": 65,
      "hit": false,
      "t": 18985.273866666666,
      "d": 213.235066666668,
      "v": 122
    },
    {
      "midi": 36,
      "hit": false,
      "t": 19213.2148,
      "d": 205.8821333333326,
      "v": 122
    },
    {
      "midi": 64,
      "hit": false,
      "t": 19213.2148,
      "d": 558.8229333333329,
      "v": 122
    },
    {
      "midi": 36,
      "hit": false,
      "t": 19426.449866666666,
      "d": 1183.822266666666,
      "v": 122
    },
    {
      "midi": 62,
      "hit": false,
      "t": 19426.449866666666,
      "d": 1749.9981333333308,
      "v": 122
    },
    {
      "midi": 59,
      "hit": false,
      "t": 19426.449866666666,
      "d": 1772.056933333326,
      "v": 122
    },
    {
      "midi": 69,
      "hit": false,
      "t": 19654.3908,
      "d": 536.764133333334,
      "v": 122
    },
    {
      "midi": 67,
      "hit": false,
      "t": 20095.5668,
      "d": 1058.8223999999973,
      "v": 122
    },
    {
      "midi": 31,
      "hit": false,
      "t": 20536.7428,
      "d": 205.8821333333326,
      "v": 122
    },
    {
      "midi": 33,
      "hit": false,
      "t": 20749.977866666664,
      "d": 213.235066666668,
      "v": 122
    },
    {
      "midi": 31,
      "hit": false,
      "t": 20977.9188,
      "d": 205.88213333332897,
      "v": 122
    },
    {
      "midi": 60,
      "hit": false,
      "t": 21191.15386666666,
      "d": 772.0579999999973,
      "v": 122
    },
    {
      "midi": 57,
      "hit": false,
      "t": 21191.15386666666,
      "d": 794.1167999999961,
      "v": 122
    },
    {
      "midi": 36,
      "hit": false,
      "t": 21191.15386666666,
      "d": 1382.3514666666597,
      "v": 122
    },
    {
      "midi": 55,
      "hit": false,
      "t": 21860.27079999999,
      "d": 323.52906666666604,
      "v": 122
    },
    {
      "midi": 62,
      "hit": false,
      "t": 22073.505866666655,
      "d": 213.235066666668,
      "v": 122
    },
    {
      "midi": 64,
      "hit": false,
      "t": 22301.44679999999,
      "d": 205.8821333333326,
      "v": 122
    },
    {
      "midi": 65,
      "hit": false,
      "t": 22514.681866666655,
      "d": 301.4702666666635,
      "v": 122
    },
    {
      "midi": 36,
      "hit": false,
      "t": 22742.622799999986,
      "d": 205.8821333333326,
      "v": 122
    },
    {
      "midi": 64,
      "hit": false,
      "t": 22742.622799999986,
      "d": 323.52906666666604,
      "v": 122
    },
    {
      "midi": 36,
      "hit": false,
      "t": 22955.85786666665,
      "d": 1727.9393333333355,
      "v": 122
    },
    {
      "midi": 55,
      "hit": false,
      "t": 22955.85786666665,
      "d": 1727.9393333333355,
      "v": 122
    },
    {
      "midi": 59,
      "hit": false,
      "t": 22955.85786666665,
      "d": 1727.9393333333355,
      "v": 122
    },
    {
      "midi": 62,
      "hit": false,
      "t": 22955.85786666665,
      "d": 1727.9393333333355,
      "v": 122
    },
    {
      "midi": 60,
      "hit": false,
      "t": 24720.561866666652,
      "d": 301.47026666666716,
      "v": 122
    },
    {
      "midi": 56,
      "hit": false,
      "t": 24720.561866666652,
      "d": 338.2349333333332,
      "v": 122
    },
    {
      "midi": 36,
      "hit": false,
      "t": 24720.561866666652,
      "d": 1816.174533333331,
      "v": 122
    },
    {
      "midi": 62,
      "hit": false,
      "t": 24764.679466666654,
      "d": 286.7644,
      "v": 122
    },
    {
      "midi": 64,
      "hit": false,
      "t": 24948.502799999987,
      "d": 301.4702666666635,
      "v": 122
    },
    {
      "midi": 65,
      "hit": false,
      "t": 25161.737866666652,
      "d": 301.47026666666716,
      "v": 122
    },
    {
      "midi": 56,
      "hit": false,
      "t": 25389.678799999983,
      "d": 735.2933333333349,
      "v": 122
    },
    {
      "midi": 60,
      "hit": false,
      "t": 25389.678799999983,
      "d": 757.3521333333338,
      "v": 122
    },
    {
      "midi": 67,
      "hit": false,
      "t": 25389.678799999983,
      "d": 772.0580000000009,
      "v": 122
    },
    {
      "midi": 62,
      "hit": false,
      "t": 25433.796399999985,
      "d": 713.2345333333324,
      "v": 122
    },
    {
      "midi": 65,
      "hit": false,
      "t": 26044.08986666665,
      "d": 301.47026666666716,
      "v": 122
    },
    {
      "midi": 64,
      "hit": false,
      "t": 26272.030799999986,
      "d": 323.5290666666624,
      "v": 122
    },
    {
      "midi": 57,
      "hit": false,
      "t": 26485.26586666665,
      "d": 433.8230666666641,
      "v": 122
    },
    {
      "midi": 62,
      "hit": false,
      "t": 26485.26586666665,
      "d": 529.411199999995,
      "v": 122
    },
    {
      "midi": 35,
      "hit": false,
      "t": 26485.26586666665,
      "d": 1022.0577333333276,
      "v": 122
    },
    {
      "midi": 64,
      "hit": false,
      "t": 26926.441866666646,
      "d": 301.4702666666635,
      "v": 122
    },
    {
      "midi": 67,
      "hit": false,
      "t": 27154.382799999978,
      "d": 757.3521333333301,
      "v": 122
    },
    {
      "midi": 56,
      "hit": false,
      "t": 27323.500266666644,
      "d": 477.9406666666655,
      "v": 122
    },
    {
      "midi": 58,
      "hit": false,
      "t": 27367.617866666646,
      "d": 433.8230666666641,
      "v": 122
    },
    {
      "midi": 62,
      "hit": false,
      "t": 27367.617866666646,
      "d": 588.2346666666635,
      "v": 122
    },
    {
      "midi": 40,
      "hit": false,
      "t": 27367.617866666646,
      "d": 926.4695999999967,
      "v": 122
    },
    {
      "midi": 64,
      "hit": false,
      "t": 27808.79386666664,
      "d": 213.235066666668,
      "v": 122
    },
    {
      "midi": 62,
      "hit": false,
      "t": 28036.734799999977,
      "d": 205.8821333333326,
      "v": 122
    },
    {
      "midi": 55,
      "hit": false,
      "t": 28249.96986666664,
      "d": 433.8230666666677,
      "v": 122
    },
    {
      "midi": 60,
      "hit": false,
      "t": 28249.96986666664,
      "d": 433.8230666666677,
      "v": 122
    },
    {
      "midi": 33,
      "hit": false,
      "t": 28249.96986666664,
      "d": 999.9989333333324,
      "v": 122
    },
    {
      "midi": 62,
      "hit": false,
      "t": 28691.14586666664,
      "d": 301.47026666666716,
      "v": 122
    },
    {
      "midi": 74,
      "hit": false,
      "t": 28919.086799999975,
      "d": 794.1167999999961,
      "v": 122
    },
    {
      "midi": 65,
      "hit": false,
      "t": 29132.32186666664,
      "d": 529.4111999999986,
      "v": 122
    },
    {
      "midi": 60,
      "hit": false,
      "t": 29132.32186666664,
      "d": 566.1758666666647,
      "v": 122
    },
    {
      "midi": 38,
      "hit": false,
      "t": 29132.32186666664,
      "d": 1022.0577333333313,
      "v": 122
    },
    {
      "midi": 62,
      "hit": false,
      "t": 29176.43946666664,
      "d": 455.881866666663,
      "v": 122
    },
    {
      "midi": 72,
      "hit": false,
      "t": 29573.49786666664,
      "d": 323.52906666666604,
      "v": 122
    },
    {
      "midi": 71,
      "hit": false,
      "t": 29801.43879999997,
      "d": 558.8229333333293,
      "v": 122
    },
    {
      "midi": 43,
      "hit": false,
      "t": 30014.67386666664,
      "d": 286.7643999999964,
      "v": 122
    },
    {
      "midi": 50,
      "hit": false,
      "t": 30242.61479999997,
      "d": 257.35266666666575,
      "v": 122
    },
    {
      "midi": 59,
      "hit": false,
      "t": 30242.61479999997,
      "d": 301.47026666666716,
      "v": 122
    },
    {
      "midi": 67,
      "hit": false,
      "t": 30242.61479999997,
      "d": 1426.469066666661,
      "v": 122
    },
    {
      "midi": 48,
      "hit": false,
      "t": 30455.849866666635,
      "d": 286.7644,
      "v": 122
    },
    {
      "midi": 57,
      "hit": false,
      "t": 30455.849866666635,
      "d": 323.52906666666604,
      "v": 122
    },
    {
      "midi": 52,
      "hit": false,
      "t": 30683.79079999997,
      "d": 522.0582666666633,
      "v": 122
    },
    {
      "midi": 60,
      "hit": false,
      "t": 30683.79079999997,
      "d": 522.0582666666633,
      "v": 122
    },
    {
      "midi": 59,
      "hit": false,
      "t": 31124.966799999966,
      "d": 558.8229333333329,
      "v": 122
    },
    {
      "midi": 50,
      "hit": false,
      "t": 31124.966799999966,
      "d": 580.8817333333318,
      "v": 122
    },
    {
      "midi": 62,
      "hit": false,
      "t": 31566.142799999965,
      "d": 205.8821333333326,
      "v": 122
    },
    {
      "midi": 60,
      "hit": false,
      "t": 31779.37786666663,
      "d": 566.1758666666647,
      "v": 122
    },
    {
      "midi": 55,
      "hit": false,
      "t": 31779.37786666663,
      "d": 588.2346666666635,
      "v": 122
    },
    {
      "midi": 33,
      "hit": false,
      "t": 31779.37786666663,
      "d": 1022.0577333333313,
      "v": 122
    },
    {
      "midi": 62,
      "hit": false,
      "t": 31823.49546666663,
      "d": 389.7054666666663,
      "v": 122
    },
    {
      "midi": 62,
      "hit": false,
      "t": 32220.55386666663,
      "d": 213.23506666666435,
      "v": 122
    },
    {
      "midi": 74,
      "hit": false,
      "t": 32448.49479999996,
      "d": 374.9995999999992,
      "v": 122
    },
    {
      "midi": 60,
      "hit": false,
      "t": 32661.72986666663,
      "d": 529.4111999999986,
      "v": 122
    },
    {
      "midi": 66,
      "hit": false,
      "t": 32661.72986666663,
      "d": 551.4699999999975,
      "v": 122
    },
    {
      "midi": 38,
      "hit": false,
      "t": 32661.72986666663,
      "d": 1058.8223999999936,
      "v": 122
    },
    {
      "midi": 62,
      "hit": false,
      "t": 32705.84746666663,
      "d": 492.6465333333326,
      "v": 122
    },
    {
      "midi": 72,
      "hit": false,
      "t": 33102.905866666624,
      "d": 338.2349333333332,
      "v": 122
    },
    {
      "midi": 71,
      "hit": false,
      "t": 33330.846799999956,
      "d": 1992.6449333333294,
      "v": 122
    },
    {
      "midi": 57,
      "hit": false,
      "t": 33544.081866666624,
      "d": 5191.170933333327,
      "v": 122
    },
    {
      "midi": 66,
      "hit": false,
      "t": 33544.081866666624,
      "d": 5191.170933333327,
      "v": 122
    },
    {
      "midi": 36,
      "hit": false,
      "t": 35308.78586666662,
      "d": 1272.0574666666653,
      "v": 122
    },
    {
      "midi": 60,
      "hit": false,
      "t": 35308.78586666662,
      "d": 1911.762666666662,
      "v": 122
    },
    {
      "midi": 56,
      "hit": false,
      "t": 35308.78586666662,
      "d": 1933.8214666666609,
      "v": 122
    },
    {
      "midi": 62,
      "hit": false,
      "t": 36191.13786666662,
      "d": 213.235066666668,
      "v": 122
    },
    {
      "midi": 64,
      "hit": false,
      "t": 36419.07879999995,
      "d": 205.8821333333326,
      "v": 122
    },
    {
      "midi": 65,
      "hit": false,
      "t": 36632.31386666662,
      "d": 213.235066666668,
      "v": 122
    },
    {
      "midi": 36,
      "hit": false,
      "t": 36860.25479999995,
      "d": 205.8821333333326,
      "v": 122
    },
    {
      "midi": 64,
      "hit": false,
      "t": 36860.25479999995,
      "d": 2102.938933333331,
      "v": 122
    },
    {
      "midi": 36,
      "hit": false,
      "t": 37073.48986666662,
      "d": 1661.7629333333316,
      "v": 122
    },
    {
      "midi": 62,
      "hit": false,
      "t": 37073.48986666662,
      "d": 1661.7629333333316,
      "v": 122
    },
    {
      "midi": 55,
      "hit": false,
      "t": 37073.48986666662,
      "d": 1911.762666666662,
      "v": 122
    },
    {
      "midi": 59,
      "hit": false,
      "t": 37073.48986666662,
      "d": 1911.762666666662,
      "v": 122
    },
    {
      "midi": 36,
      "hit": false,
      "t": 38838.19386666662,
      "d": 867.6461333333282,
      "v": 122
    },
    {
      "midi": 60,
      "hit": false,
      "t": 38838.19386666662,
      "d": 1845.586266666658,
      "v": 122
    },
    {
      "midi": 56,
      "hit": false,
      "t": 38838.19386666662,
      "d": 1911.7626666666547,
      "v": 122
    },
    {
      "midi": 62,
      "hit": false,
      "t": 39720.54586666661,
      "d": 213.235066666668,
      "v": 122
    },
    {
      "midi": 64,
      "hit": false,
      "t": 39948.48679999994,
      "d": 205.8821333333326,
      "v": 122
    },
    {
      "midi": 65,
      "hit": false,
      "t": 40161.72186666661,
      "d": 213.235066666668,
      "v": 122
    },
    {
      "midi": 36,
      "hit": false,
      "t": 40389.66279999994,
      "d": 205.8821333333326,
      "v": 122
    },
    {
      "midi": 64,
      "hit": false,
      "t": 40389.66279999994,
      "d": 558.8229333333293,
      "v": 122
    },
    {
      "midi": 36,
      "hit": false,
      "t": 40602.89786666661,
      "d": 1183.8222666666625,
      "v": 122
    },
    {
      "midi": 62,
      "hit": false,
      "t": 40602.89786666661,
      "d": 1749.9981333333271,
      "v": 122
    },
    {
      "midi": 59,
      "hit": false,
      "t": 40602.89786666661,
      "d": 1772.0569333333333,
      "v": 122
    },
    {
      "midi": 69,
      "hit": false,
      "t": 40830.83879999994,
      "d": 536.7641333333304,
      "v": 122
    },
    {
      "midi": 67,
      "hit": false,
      "t": 41272.01479999994,
      "d": 1058.8223999999973,
      "v": 122
    },
    {
      "midi": 31,
      "hit": false,
      "t": 41713.19079999994,
      "d": 205.8821333333326,
      "v": 122
    },
    {
      "midi": 33,
      "hit": false,
      "t": 41926.42586666661,
      "d": 213.235066666668,
      "v": 122
    },
    {
      "midi": 31,
      "hit": false,
      "t": 42154.36679999994,
      "d": 205.8821333333326,
      "v": 122
    },
    {
      "midi": 60,
      "hit": false,
      "t": 42367.601866666606,
      "d": 772.0580000000045,
      "v": 122
    },
    {
      "midi": 57,
      "hit": false,
      "t": 42367.601866666606,
      "d": 794.1168000000034,
      "v": 122
    },
    {
      "midi": 36,
      "hit": false,
      "t": 42367.601866666606,
      "d": 1382.3514666666742,
      "v": 122
    },
    {
      "midi": 55,
      "hit": false,
      "t": 43036.718799999944,
      "d": 323.5290666666697,
      "v": 122
    },
    {
      "midi": 62,
      "hit": false,
      "t": 43249.95386666661,
      "d": 213.235066666668,
      "v": 122
    },
    {
      "midi": 64,
      "hit": false,
      "t": 43477.894799999944,
      "d": 205.8821333333326,
      "v": 122
    },
    {
      "midi": 65,
      "hit": false,
      "t": 43691.12986666661,
      "d": 301.4702666666708,
      "v": 122
    },
    {
      "midi": 36,
      "hit": false,
      "t": 43919.07079999995,
      "d": 205.8821333333326,
      "v": 122
    },
    {
      "midi": 64,
      "hit": false,
      "t": 43919.07079999995,
      "d": 323.5290666666697,
      "v": 122
    },
    {
      "midi": 36,
      "hit": false,
      "t": 44132.30586666662,
      "d": 1727.9393333333355,
      "v": 122
    },
    {
      "midi": 55,
      "hit": false,
      "t": 44132.30586666662,
      "d": 1727.9393333333355,
      "v": 122
    },
    {
      "midi": 59,
      "hit": false,
      "t": 44132.30586666662,
      "d": 1727.9393333333355,
      "v": 122
    },
    {
      "midi": 62,
      "hit": false,
      "t": 44132.30586666662,
      "d": 1727.9393333333355,
      "v": 122
    },
    {
      "midi": 60,
      "hit": false,
      "t": 45897.00986666662,
      "d": 301.4702666666635,
      "v": 122
    },
    {
      "midi": 56,
      "hit": false,
      "t": 45897.00986666662,
      "d": 338.2349333333332,
      "v": 122
    },
    {
      "midi": 36,
      "hit": false,
      "t": 45897.00986666662,
      "d": 1816.1745333333383,
      "v": 122
    },
    {
      "midi": 62,
      "hit": false,
      "t": 45941.12746666662,
      "d": 286.7644,
      "v": 122
    },
    {
      "midi": 64,
      "hit": false,
      "t": 46124.950799999955,
      "d": 301.4702666666708,
      "v": 122
    },
    {
      "midi": 65,
      "hit": false,
      "t": 46338.18586666662,
      "d": 301.4702666666708,
      "v": 122
    },
    {
      "midi": 56,
      "hit": false,
      "t": 46566.12679999996,
      "d": 735.2933333333349,
      "v": 122
    },
    {
      "midi": 60,
      "hit": false,
      "t": 46566.12679999996,
      "d": 757.3521333333338,
      "v": 122
    },
    {
      "midi": 67,
      "hit": false,
      "t": 46566.12679999996,
      "d": 772.0579999999973,
      "v": 122
    },
    {
      "midi": 62,
      "hit": false,
      "t": 46610.24439999996,
      "d": 713.234533333336,
      "v": 122
    },
    {
      "midi": 65,
      "hit": false,
      "t": 47220.53786666663,
      "d": 301.4702666666635,
      "v": 122
    },
    {
      "midi": 64,
      "hit": false,
      "t": 47448.47879999996,
      "d": 323.5290666666697,
      "v": 122
    },
    {
      "midi": 57,
      "hit": false,
      "t": 47661.71386666663,
      "d": 433.82306666667137,
      "v": 122
    },
    {
      "midi": 62,
      "hit": false,
      "t": 47661.71386666663,
      "d": 529.4112000000096,
      "v": 122
    },
    {
      "midi": 35,
      "hit": false,
      "t": 47661.71386666663,
      "d": 1022.0577333333422,
      "v": 122
    },
    {
      "midi": 64,
      "hit": false,
      "t": 48102.889866666635,
      "d": 301.4702666666708,
      "v": 122
    },
    {
      "midi": 67,
      "hit": false,
      "t": 48330.830799999974,
      "d": 757.3521333333338,
      "v": 122
    },
    {
      "midi": 56,
      "hit": false,
      "t": 48499.94826666664,
      "d": 477.94066666666913,
      "v": 122
    },
    {
      "midi": 58,
      "hit": false,
      "t": 48544.065866666635,
      "d": 433.82306666667137,
      "v": 122
    },
    {
      "midi": 62,
      "hit": false,
      "t": 48544.065866666635,
      "d": 588.2346666666708,
      "v": 122
    },
    {
      "midi": 40,
      "hit": false,
      "t": 48544.065866666635,
      "d": 926.4695999999967,
      "v": 122
    },
    {
      "midi": 64,
      "hit": false,
      "t": 48985.24186666664,
      "d": 213.2350666666607,
      "v": 122
    },
    {
      "midi": 62,
      "hit": false,
      "t": 49213.182799999966,
      "d": 205.8821333333326,
      "v": 122
    },
    {
      "midi": 55,
      "hit": false,
      "t": 49426.417866666634,
      "d": 433.8230666666641,
      "v": 122
    },
    {
      "midi": 60,
      "hit": false,
      "t": 49426.417866666634,
      "d": 433.8230666666641,
      "v": 122
    },
    {
      "midi": 33,
      "hit": false,
      "t": 49426.417866666634,
      "d": 999.9989333333288,
      "v": 122
    },
    {
      "midi": 62,
      "hit": false,
      "t": 49867.59386666663,
      "d": 301.4702666666635,
      "v": 122
    },
    {
      "midi": 74,
      "hit": false,
      "t": 50095.534799999965,
      "d": 794.1168000000034,
      "v": 122
    },
    {
      "midi": 65,
      "hit": false,
      "t": 50308.76986666663,
      "d": 529.4112000000023,
      "v": 122
    },
    {
      "midi": 60,
      "hit": false,
      "t": 50308.76986666663,
      "d": 566.1758666666719,
      "v": 122
    },
    {
      "midi": 38,
      "hit": false,
      "t": 50308.76986666663,
      "d": 1022.0577333333349,
      "v": 122
    },
    {
      "midi": 62,
      "hit": false,
      "t": 50352.88746666663,
      "d": 455.88186666667025,
      "v": 122
    },
    {
      "midi": 72,
      "hit": false,
      "t": 50749.94586666663,
      "d": 323.5290666666697,
      "v": 122
    },
    {
      "midi": 71,
      "hit": false,
      "t": 50977.88679999997,
      "d": 558.8229333333366,
      "v": 122
    },
    {
      "midi": 43,
      "hit": false,
      "t": 51191.12186666663,
      "d": 286.7644000000073,
      "v": 122
    },
    {
      "midi": 50,
      "hit": false,
      "t": 51419.06279999997,
      "d": 257.35266666666575,
      "v": 122
    },
    {
      "midi": 59,
      "hit": false,
      "t": 51419.06279999997,
      "d": 301.4702666666635,
      "v": 122
    },
    {
      "midi": 67,
      "hit": false,
      "t": 51419.06279999997,
      "d": 1426.469066666672,
      "v": 122
    },
    {
      "midi": 48,
      "hit": false,
      "t": 51632.29786666664,
      "d": 286.7644,
      "v": 122
    },
    {
      "midi": 57,
      "hit": false,
      "t": 51632.29786666664,
      "d": 323.5290666666697,
      "v": 122
    },
    {
      "midi": 52,
      "hit": false,
      "t": 51860.23879999997,
      "d": 522.0582666666742,
      "v": 122
    },
    {
      "midi": 60,
      "hit": false,
      "t": 51860.23879999997,
      "d": 522.0582666666742,
      "v": 122
    },
    {
      "midi": 59,
      "hit": false,
      "t": 52301.41479999998,
      "d": 558.8229333333293,
      "v": 122
    },
    {
      "midi": 50,
      "hit": false,
      "t": 52301.41479999998,
      "d": 580.8817333333282,
      "v": 122
    },
    {
      "midi": 62,
      "hit": false,
      "t": 52742.590799999976,
      "d": 205.88213333332533,
      "v": 122
    },
    {
      "midi": 55,
      "hit": false,
      "t": 52955.82586666664,
      "d": 433.8230666666641,
      "v": 122
    },
    {
      "midi": 60,
      "hit": false,
      "t": 52955.82586666664,
      "d": 529.4112000000023,
      "v": 122
    },
    {
      "midi": 33,
      "hit": false,
      "t": 52955.82586666664,
      "d": 1058.8223999999973,
      "v": 122
    },
    {
      "midi": 62,
      "hit": false,
      "t": 52999.943466666635,
      "d": 389.7054666666663,
      "v": 122
    },
    {
      "midi": 62,
      "hit": false,
      "t": 53397.00186666664,
      "d": 213.235066666668,
      "v": 122
    },
    {
      "midi": 74,
      "hit": false,
      "t": 53624.94279999997,
      "d": 360.29373333333206,
      "v": 122
    },
    {
      "midi": 60,
      "hit": false,
      "t": 53838.177866666636,
      "d": 551.4700000000012,
      "v": 122
    },
    {
      "midi": 66,
      "hit": false,
      "t": 53838.177866666636,
      "d": 551.4700000000012,
      "v": 122
    },
    {
      "midi": 38,
      "hit": false,
      "t": 53838.177866666636,
      "d": 1036.7635999999984,
      "v": 122
    },
    {
      "midi": 62,
      "hit": false,
      "t": 53882.295466666634,
      "d": 529.4112000000023,
      "v": 122
    },
    {
      "midi": 72,
      "hit": false,
      "t": 54279.353866666635,
      "d": 338.2349333333332,
      "v": 122
    },
    {
      "midi": 71,
      "hit": false,
      "t": 54507.29479999997,
      "d": 1904.4097333333339,
      "v": 122
    },
    {
      "midi": 43,
      "hit": false,
      "t": 54720.529866666635,
      "d": 1816.174533333331,
      "v": 122
    },
    {
      "midi": 60,
      "hit": false,
      "t": 55389.646799999966,
      "d": 522.0582666666669,
      "v": 122
    },
    {
      "midi": 52,
      "hit": false,
      "t": 55389.646799999966,
      "d": 544.1170666666658,
      "v": 122
    },
    {
      "midi": 59,
      "hit": false,
      "t": 55830.822799999965,
      "d": 595.5875999999989,
      "v": 122
    },
    {
      "midi": 50,
      "hit": false,
      "t": 55830.822799999965,
      "d": 632.3522666666686,
      "v": 122
    },
    {
      "midi": 62,
      "hit": false,
      "t": 56271.998799999965,
      "d": 205.8821333333326,
      "v": 122
    },
    {
      "midi": 60,
      "hit": false,
      "t": 56485.23386666663,
      "d": 602.9405333333343,
      "v": 122
    },
    {
      "midi": 55,
      "hit": false,
      "t": 56485.23386666663,
      "d": 624.9993333333332,
      "v": 122
    },
    {
      "midi": 33,
      "hit": false,
      "t": 56485.23386666663,
      "d": 1022.0577333333276,
      "v": 122
    },
    {
      "midi": 62,
      "hit": false,
      "t": 56529.35146666663,
      "d": 389.7054666666663,
      "v": 122
    },
    {
      "midi": 62,
      "hit": false,
      "t": 56926.40986666663,
      "d": 301.4702666666635,
      "v": 122
    },
    {
      "midi": 74,
      "hit": false,
      "t": 57154.350799999964,
      "d": 323.5290666666624,
      "v": 122
    },
    {
      "midi": 66,
      "hit": false,
      "t": 57367.58586666663,
      "d": 566.1758666666574,
      "v": 122
    },
    {
      "midi": 60,
      "hit": false,
      "t": 57367.58586666663,
      "d": 624.9993333333259,
      "v": 122
    },
    {
      "midi": 38,
      "hit": false,
      "t": 57367.58586666663,
      "d": 1095.5870666666597,
      "v": 122
    },
    {
      "midi": 62,
      "hit": false,
      "t": 57411.70346666663,
      "d": 529.411199999995,
      "v": 122
    },
    {
      "midi": 72,
      "hit": false,
      "t": 57808.761866666624,
      "d": 286.7644,
      "v": 122
    },
    {
      "midi": 71,
      "hit": false,
      "t": 58036.702799999955,
      "d": 301.4702666666708,
      "v": 122
    },
    {
      "midi": 62,
      "hit": false,
      "t": 58249.93786666662,
      "d": 529.4112000000023,
      "v": 122
    },
    {
      "midi": 66,
      "hit": false,
      "t": 58249.93786666662,
      "d": 551.4700000000012,
      "v": 122
    },
    {
      "midi": 43,
      "hit": false,
      "t": 58249.93786666662,
      "d": 1132.3517333333293,
      "v": 122
    },
    {
      "midi": 69,
      "hit": false,
      "t": 58691.11386666662,
      "d": 286.7644,
      "v": 122
    },
    {
      "midi": 74,
      "hit": false,
      "t": 58919.054799999954,
      "d": 360.29373333333206,
      "v": 122
    },
    {
      "midi": 36,
      "hit": false,
      "t": 59132.28986666662,
      "d": 433.8230666666641,
      "v": 122
    },
    {
      "midi": 70,
      "hit": false,
      "t": 59132.28986666662,
      "d": 507.3523999999961,
      "v": 122
    },
    {
      "midi": 65,
      "hit": false,
      "t": 59132.28986666662,
      "d": 529.411199999995,
      "v": 122
    },
    {
      "midi": 62,
      "hit": false,
      "t": 59132.28986666662,
      "d": 551.4699999999939,
      "v": 122
    },
    {
      "midi": 72,
      "hit": false,
      "t": 59573.46586666662,
      "d": 301.47026666665624,
      "v": 122
    },
    {
      "midi": 69,
      "hit": false,
      "t": 59801.406799999946,
      "d": 757.3521333333338,
      "v": 122
    },
    {
      "midi": 64,
      "hit": false,
      "t": 60014.641866666614,
      "d": 794.1167999999961,
      "v": 122
    },
    {
      "midi": 60,
      "hit": false,
      "t": 60014.641866666614,
      "d": 999.9989333333288,
      "v": 122
    },
    {
      "midi": 41,
      "hit": false,
      "t": 60014.641866666614,
      "d": 1022.0577333333276,
      "v": 122
    },
    {
      "midi": 67,
      "hit": false,
      "t": 60455.81786666661,
      "d": 286.7644,
      "v": 122
    },
    {
      "midi": 72,
      "hit": false,
      "t": 60683.758799999945,
      "d": 205.8821333333326,
      "v": 122
    },
    {
      "midi": 68,
      "hit": false,
      "t": 60896.99386666661,
      "d": 433.8230666666641,
      "v": 122
    },
    {
      "midi": 63,
      "hit": false,
      "t": 60896.99386666661,
      "d": 999.998933333336,
      "v": 122
    },
    {
      "midi": 34,
      "hit": false,
      "t": 60896.99386666661,
      "d": 1058.8224000000046,
      "v": 122
    },
    {
      "midi": 71,
      "hit": false,
      "t": 61338.16986666661,
      "d": 338.2349333333332,
      "v": 122
    },
    {
      "midi": 69,
      "hit": false,
      "t": 61566.110799999944,
      "d": 301.4702666666708,
      "v": 122
    },
    {
      "midi": 38,
      "hit": false,
      "t": 61779.34586666661,
      "d": 867.6461333333355,
      "v": 122
    },
    {
      "midi": 65,
      "hit": false,
      "t": 61779.34586666661,
      "d": 963.2342666666664,
      "v": 122
    },
    {
      "midi": 60,
      "hit": false,
      "t": 61779.34586666661,
      "d": 985.2930666666653,
      "v": 122
    },
    {
      "midi": 67,
      "hit": false,
      "t": 62661.69786666661,
      "d": 213.235066666668,
      "v": 122
    },
    {
      "midi": 62,
      "hit": false,
      "t": 62661.69786666661,
      "d": 323.5290666666624,
      "v": 122
    },
    {
      "midi": 40,
      "hit": false,
      "t": 62661.69786666661,
      "d": 926.4695999999894,
      "v": 122
    },
    {
      "midi": 67,
      "hit": false,
      "t": 62889.63879999994,
      "d": 338.2349333333259,
      "v": 122
    },
    {
      "midi": 69,
      "hit": false,
      "t": 63102.8738666666,
      "d": 323.5290666666624,
      "v": 122
    },
    {
      "midi": 72,
      "hit": false,
      "t": 63330.814799999935,
      "d": 205.8821333333326,
      "v": 122
    },
    {
      "midi": 77,
      "hit": false,
      "t": 63544.0498666666,
      "d": 433.8230666666641,
      "v": 122
    },
    {
      "midi": 69,
      "hit": false,
      "t": 63544.0498666666,
      "d": 794.1167999999961,
      "v": 122
    },
    {
      "midi": 72,
      "hit": false,
      "t": 63544.0498666666,
      "d": 955.881333333331,
      "v": 122
    },
    {
      "midi": 41,
      "hit": false,
      "t": 63544.0498666666,
      "d": 992.6460000000006,
      "v": 122
    },
    {
      "midi": 64,
      "hit": false,
      "t": 63544.0498666666,
      "d": 992.6460000000006,
      "v": 122
    },
    {
      "midi": 76,
      "hit": false,
      "t": 63985.2258666666,
      "d": 213.235066666668,
      "v": 122
    },
    {
      "midi": 74,
      "hit": false,
      "t": 64213.16679999993,
      "d": 757.3521333333338,
      "v": 122
    },
    {
      "midi": 43,
      "hit": false,
      "t": 64426.4018666666,
      "d": 874.9990666666636,
      "v": 122
    },
    {
      "midi": 65,
      "hit": false,
      "t": 64426.4018666666,
      "d": 874.9990666666636,
      "v": 122
    },
    {
      "midi": 69,
      "hit": false,
      "t": 64426.4018666666,
      "d": 992.6460000000006,
      "v": 122
    },
    {
      "midi": 72,
      "hit": false,
      "t": 64867.5778666666,
      "d": 213.235066666668,
      "v": 122
    },
    {
      "midi": 72,
      "hit": false,
      "t": 65095.51879999993,
      "d": 316.1761333333343,
      "v": 122
    },
    {
      "midi": 65,
      "hit": false,
      "t": 65308.7538666666,
      "d": 279.4114666666792,
      "v": 122
    },
    {
      "midi": 38,
      "hit": false,
      "t": 65308.7538666666,
      "d": 1088.2341333333534,
      "v": 122
    },
    {
      "midi": 64,
      "hit": false,
      "t": 65536.69479999994,
      "d": 272.0585333333438,
      "v": 122
    },
    {
      "midi": 62,
      "hit": false,
      "t": 65749.92986666661,
      "d": 279.4114666666719,
      "v": 122
    },
    {
      "midi": 65,
      "hit": false,
      "t": 65977.87079999995,
      "d": 205.88213333334716,
      "v": 122
    },
    {
      "midi": 65,
      "hit": false,
      "t": 66191.10586666662,
      "d": 294.11733333332813,
      "v": 122
    },
    {
      "midi": 64,
      "hit": false,
      "t": 66419.04679999995,
      "d": 448.5289333333203,
      "v": 122
    },
    {
      "midi": 40,
      "hit": false,
      "t": 66860.22279999994,
      "d": 205.8821333333326,
      "v": 122
    },
    {
      "midi": 62,
      "hit": false,
      "t": 67073.4578666666,
      "d": 492.6465333333472,
      "v": 122
    },
    {
      "midi": 67,
      "hit": false,
      "t": 67073.4578666666,
      "d": 492.6465333333472,
      "v": 122
    },
    {
      "midi": 71,
      "hit": false,
      "t": 67073.4578666666,
      "d": 558.8229333333438,
      "v": 122
    },
    {
      "midi": 40,
      "hit": false,
      "t": 67073.4578666666,
      "d": 1007.3518666666641,
      "v": 122
    },
    {
      "midi": 72,
      "hit": false,
      "t": 67514.63386666661,
      "d": 330.8819999999978,
      "v": 122
    },
    {
      "midi": 55,
      "hit": false,
      "t": 67742.57479999994,
      "d": 639.7051999999967,
      "v": 122
    },
    {
      "midi": 62,
      "hit": false,
      "t": 67742.57479999994,
      "d": 727.9404000000068,
      "v": 122
    },
    {
      "midi": 67,
      "hit": false,
      "t": 67742.57479999994,
      "d": 742.6462666666775,
      "v": 122
    },
    {
      "midi": 64,
      "hit": false,
      "t": 68396.98586666661,
      "d": 213.23506666667527,
      "v": 122
    },
    {
      "midi": 40,
      "hit": false,
      "t": 68624.92679999996,
      "d": 205.8821333333326,
      "v": 122
    },
    {
      "midi": 64,
      "hit": false,
      "t": 68624.92679999996,
      "d": 1036.7636000000057,
      "v": 122
    },
    {
      "midi": 69,
      "hit": false,
      "t": 68624.92679999996,
      "d": 1897.0568000000058,
      "v": 122
    },
    {
      "midi": 41,
      "hit": false,
      "t": 68838.16186666662,
      "d": 1044.1165333333483,
      "v": 122
    },
    {
      "midi": 62,
      "hit": false,
      "t": 69507.27879999996,
      "d": 573.5288,
      "v": 122
    },
    {
      "midi": 64,
      "hit": false,
      "t": 69948.45479999996,
      "d": 536.7641333333304,
      "v": 122
    },
    {
      "midi": 60,
      "hit": false,
      "t": 70389.63079999996,
      "d": 205.88213333334716,
      "v": 122
    },
    {
      "midi": 41,
      "hit": false,
      "t": 70389.63079999996,
      "d": 330.88200000001234,
      "v": 122
    },
    {
      "midi": 65,
      "hit": false,
      "t": 70602.86586666663,
      "d": 558.8229333333438,
      "v": 122
    },
    {
      "midi": 43,
      "hit": false,
      "t": 70602.86586666663,
      "d": 779.4109333333327,
      "v": 122
    },
    {
      "midi": 60,
      "hit": false,
      "t": 70602.86586666663,
      "d": 926.4695999999967,
      "v": 122
    },
    {
      "midi": 57,
      "hit": false,
      "t": 70602.86586666663,
      "d": 1022.0577333333349,
      "v": 122
    },
    {
      "midi": 64,
      "hit": false,
      "t": 71044.04186666664,
      "d": 345.587866666654,
      "v": 122
    },
    {
      "midi": 62,
      "hit": false,
      "t": 71271.98279999997,
      "d": 779.4109333333327,
      "v": 122
    },
    {
      "midi": 44,
      "hit": false,
      "t": 71485.21786666663,
      "d": 1007.3518666666641,
      "v": 122
    },
    {
      "midi": 53,
      "hit": false,
      "t": 71485.21786666663,
      "d": 1022.0577333333349,
      "v": 122
    },
    {
      "midi": 59,
      "hit": false,
      "t": 71485.21786666663,
      "d": 1022.0577333333349,
      "v": 122
    },
    {
      "midi": 60,
      "hit": false,
      "t": 71926.39386666664,
      "d": 213.2350666666607,
      "v": 122
    },
    {
      "midi": 60,
      "hit": false,
      "t": 72154.33479999997,
      "d": 1191.1751999999979,
      "v": 122
    },
    {
      "midi": 55,
      "hit": false,
      "t": 72367.56986666663,
      "d": 1007.3518666666641,
      "v": 122
    },
    {
      "midi": 45,
      "hit": false,
      "t": 72367.56986666663,
      "d": 1044.1165333333338,
      "v": 122
    },
    {
      "midi": 72,
      "hit": false,
      "t": 73249.92186666663,
      "d": 1007.3518666666641,
      "v": 122
    },
    {
      "midi": 64,
      "hit": false,
      "t": 73249.92186666663,
      "d": 1058.8224000000046,
      "v": 122
    },
    {
      "midi": 38,
      "hit": false,
      "t": 73919.03879999997,
      "d": 205.8821333333326,
      "v": 122
    },
    {
      "midi": 71,
      "hit": false,
      "t": 74132.27386666663,
      "d": 529.4112000000023,
      "v": 122
    },
    {
      "midi": 62,
      "hit": false,
      "t": 74132.27386666663,
      "d": 544.117066666673,
      "v": 122
    },
    {
      "midi": 40,
      "hit": false,
      "t": 74132.27386666663,
      "d": 1044.1165333333338,
      "v": 122
    },
    {
      "midi": 72,
      "hit": false,
      "t": 74573.44986666663,
      "d": 316.176133333327,
      "v": 122
    },
    {
      "midi": 64,
      "hit": false,
      "t": 74573.44986666663,
      "d": 360.2937333333248,
      "v": 122
    },
    {
      "midi": 67,
      "hit": false,
      "t": 74801.39079999996,
      "d": 727.9404000000068,
      "v": 122
    },
    {
      "midi": 62,
      "hit": false,
      "t": 74801.39079999996,
      "d": 757.3521333333338,
      "v": 122
    },
    {
      "midi": 64,
      "hit": false,
      "t": 75455.80186666663,
      "d": 213.2350666666607,
      "v": 122
    },
    {
      "midi": 40,
      "hit": false,
      "t": 75683.74279999996,
      "d": 205.8821333333326,
      "v": 122
    },
    {
      "midi": 61,
      "hit": false,
      "t": 75683.74279999996,
      "d": 205.8821333333326,
      "v": 122
    },
    {
      "midi": 64,
      "hit": false,
      "t": 75683.74279999996,
      "d": 205.8821333333326,
      "v": 122
    },
    {
      "midi": 69,
      "hit": false,
      "t": 75683.74279999996,
      "d": 205.8821333333326,
      "v": 122
    },
    {
      "midi": 42,
      "hit": false,
      "t": 75896.97786666662,
      "d": 1911.7626666666765,
      "v": 122
    },
    {
      "midi": 69,
      "hit": false,
      "t": 76338.15386666663,
      "d": 213.2350666666607,
      "v": 122
    },
    {
      "midi": 69,
      "hit": false,
      "t": 76566.09479999996,
      "d": 639.7051999999967,
      "v": 122
    },
    {
      "midi": 61,
      "hit": false,
      "t": 76566.09479999996,
      "d": 735.2933333333349,
      "v": 122
    },
    {
      "midi": 64,
      "hit": false,
      "t": 76566.09479999996,
      "d": 830.8814666666731,
      "v": 122
    },
    {
      "midi": 69,
      "hit": false,
      "t": 77220.50586666663,
      "d": 213.23506666667527,
      "v": 122
    },
    {
      "midi": 69,
      "hit": false,
      "t": 77448.44679999998,
      "d": 323.5290666666551,
      "v": 122
    },
    {
      "midi": 59,
      "hit": false,
      "t": 77661.68186666664,
      "d": 794.1167999999889,
      "v": 122
    },
    {
      "midi": 63,
      "hit": false,
      "t": 77661.68186666664,
      "d": 999.9989333333215,
      "v": 122
    },
    {
      "midi": 35,
      "hit": false,
      "t": 77661.68186666664,
      "d": 1058.82239999999,
      "v": 122
    },
    {
      "midi": 69,
      "hit": false,
      "t": 78102.85786666663,
      "d": 213.2350666666607,
      "v": 122
    },
    {
      "midi": 71,
      "hit": false,
      "t": 78330.79879999996,
      "d": 757.3521333333338,
      "v": 122
    },
    {
      "midi": 59,
      "hit": false,
      "t": 78544.03386666662,
      "d": 867.6461333333427,
      "v": 122
    },
    {
      "midi": 66,
      "hit": false,
      "t": 78544.03386666662,
      "d": 889.7049333333416,
      "v": 122
    },
    {
      "midi": 39,
      "hit": false,
      "t": 78544.03386666662,
      "d": 985.2930666666798,
      "v": 122
    },
    {
      "midi": 69,
      "hit": false,
      "t": 78985.20986666663,
      "d": 323.5290666666697,
      "v": 122
    },
    {
      "midi": 67,
      "hit": false,
      "t": 79213.15079999996,
      "d": 360.29373333333933,
      "v": 122
    },
    {
      "midi": 62,
      "hit": false,
      "t": 79426.38586666663,
      "d": 948.528399999981,
      "v": 122
    },
    {
      "midi": 47,
      "hit": false,
      "t": 79426.38586666663,
      "d": 1058.8223999999755,
      "v": 122
    },
    {
      "midi": 40,
      "hit": false,
      "t": 79426.38586666663,
      "d": 1095.5870666666451,
      "v": 122
    },
    {
      "midi": 72,
      "hit": false,
      "t": 79867.56186666663,
      "d": 360.2937333333248,
      "v": 122
    },
    {
      "midi": 60,
      "hit": false,
      "t": 80095.50279999996,
      "d": 772.05799999999,
      "v": 122
    },
    {
      "midi": 55,
      "hit": false,
      "t": 80308.73786666662,
      "d": 647.0581333333248,
      "v": 122
    },
    {
      "midi": 45,
      "hit": false,
      "t": 80308.73786666662,
      "d": 963.2342666666518,
      "v": 122
    },
    {
      "midi": 52,
      "hit": false,
      "t": 80308.73786666662,
      "d": 1022.0577333333204,
      "v": 122
    },
    {
      "midi": 60,
      "hit": false,
      "t": 80977.85479999994,
      "d": 205.8821333333326,
      "v": 122
    },
    {
      "midi": 65,
      "hit": false,
      "t": 81191.0898666666,
      "d": 566.1758666666719,
      "v": 122
    },
    {
      "midi": 60,
      "hit": false,
      "t": 81191.0898666666,
      "d": 985.2930666666653,
      "v": 122
    },
    {
      "midi": 57,
      "hit": false,
      "t": 81191.0898666666,
      "d": 1036.7636000000057,
      "v": 122
    },
    {
      "midi": 38,
      "hit": false,
      "t": 81191.0898666666,
      "d": 1095.5870666666742,
      "v": 122
    },
    {
      "midi": 64,
      "hit": false,
      "t": 81632.26586666661,
      "d": 360.2937333333248,
      "v": 122
    },
    {
      "midi": 62,
      "hit": false,
      "t": 81860.20679999994,
      "d": 852.940266666672,
      "v": 122
    },
    {
      "midi": 59,
      "hit": false,
      "t": 82073.4418666666,
      "d": 1058.8224000000046,
      "v": 122
    },
    {
      "midi": 43,
      "hit": false,
      "t": 82073.4418666666,
      "d": 1073.5282666666753,
      "v": 122
    },
    {
      "midi": 53,
      "hit": false,
      "t": 82073.4418666666,
      "d": 1073.5282666666753,
      "v": 122
    },
    {
      "midi": 60,
      "hit": false,
      "t": 82514.61786666661,
      "d": 433.8230666666641,
      "v": 122
    },
    {
      "midi": 57,
      "hit": false,
      "t": 82955.7938666666,
      "d": 867.6461333333427,
      "v": 122
    },
    {
      "midi": 60,
      "hit": false,
      "t": 82955.7938666666,
      "d": 867.6461333333427,
      "v": 122
    },
    {
      "midi": 52,
      "hit": false,
      "t": 82955.7938666666,
      "d": 999.9989333333506,
      "v": 122
    },
    {
      "midi": 36,
      "hit": false,
      "t": 82955.7938666666,
      "d": 1323.5280000000203,
      "v": 122
    },
    {
      "midi": 60,
      "hit": false,
      "t": 83838.14586666661,
      "d": 985.2930666666653,
      "v": 122
    },
    {
      "midi": 56,
      "hit": false,
      "t": 83838.14586666661,
      "d": 1036.7636000000057,
      "v": 122
    },
    {
      "midi": 65,
      "hit": false,
      "t": 83838.14586666661,
      "d": 1095.5870666666742,
      "v": 122
    },
    {
      "midi": 62,
      "hit": false,
      "t": 83882.26346666661,
      "d": 720.5874666666787,
      "v": 122
    },
    {
      "midi": 36,
      "hit": false,
      "t": 84507.26279999995,
      "d": 205.8821333333326,
      "v": 122
    },
    {
      "midi": 36,
      "hit": false,
      "t": 84720.49786666661,
      "d": 1727.9393333333428,
      "v": 122
    },
    {
      "midi": 62,
      "hit": false,
      "t": 84720.49786666661,
      "d": 1727.9393333333428,
      "v": 122
    },
    {
      "midi": 55,
      "hit": false,
      "t": 84720.49786666661,
      "d": 1889.7038666666776,
      "v": 122
    },
    {
      "midi": 59,
      "hit": false,
      "t": 84720.49786666661,
      "d": 1911.7626666666765,
      "v": 122
    },
    {
      "midi": 64,
      "hit": false,
      "t": 84764.61546666661,
      "d": 1683.821733333345,
      "v": 122
    },
    {
      "midi": 65,
      "hit": false,
      "t": 86485.20186666663,
      "d": 1022.0577333333349,
      "v": 122
    },
    {
      "midi": 56,
      "hit": false,
      "t": 86485.20186666663,
      "d": 1058.8224000000046,
      "v": 122
    },
    {
      "midi": 60,
      "hit": false,
      "t": 86485.20186666663,
      "d": 1058.8224000000046,
      "v": 122
    },
    {
      "midi": 36,
      "hit": false,
      "t": 86485.20186666663,
      "d": 1382.3514666666742,
      "v": 122
    },
    {
      "midi": 62,
      "hit": false,
      "t": 86529.31946666662,
      "d": 926.4695999999967,
      "v": 122
    },
    {
      "midi": 68,
      "hit": false,
      "t": 87367.55386666663,
      "d": 1022.0577333333349,
      "v": 122
    },
    {
      "midi": 36,
      "hit": false,
      "t": 88036.67079999996,
      "d": 1522.0571999999956,
      "v": 122
    },
    {
      "midi": 59,
      "hit": false,
      "t": 88249.90586666662,
      "d": 1735.292266666671,
      "v": 122
    },
    {
      "midi": 67,
      "hit": false,
      "t": 88249.90586666662,
      "d": 1735.292266666671,
      "v": 122
    },
    {
      "midi": 62,
      "hit": false,
      "t": 88249.90586666662,
      "d": 1757.3510666666698,
      "v": 122
    },
    {
      "midi": 64,
      "hit": false,
      "t": 88294.02346666662,
      "d": 1661.7629333333462,
      "v": 122
    },
    {
      "midi": 43,
      "hit": false,
      "t": 89360.19879999995,
      "d": 419.11720000000787,
      "v": 122
    },
    {
      "midi": 45,
      "hit": false,
      "t": 89573.43386666663,
      "d": 3889.701733333306,
      "v": 122
    },
    {
      "midi": 36,
      "hit": false,
      "t": 90014.60986666662,
      "d": 1272.0574666666653,
      "v": 122
    },
    {
      "midi": 60,
      "hit": false,
      "t": 90014.60986666662,
      "d": 1911.7626666666474,
      "v": 122
    },
    {
      "midi": 56,
      "hit": false,
      "t": 90014.60986666662,
      "d": 1933.8214666666463,
      "v": 122
    },
    {
      "midi": 62,
      "hit": false,
      "t": 90896.96186666662,
      "d": 213.2350666666607,
      "v": 122
    },
    {
      "midi": 64,
      "hit": false,
      "t": 91124.90279999995,
      "d": 205.8821333333326,
      "v": 122
    },
    {
      "midi": 65,
      "hit": false,
      "t": 91338.13786666661,
      "d": 213.2350666666607,
      "v": 122
    },
    {
      "midi": 36,
      "hit": false,
      "t": 91566.07879999994,
      "d": 205.8821333333326,
      "v": 122
    },
    {
      "midi": 64,
      "hit": false,
      "t": 91566.07879999994,
      "d": 2102.938933333324,
      "v": 122
    },
    {
      "midi": 36,
      "hit": false,
      "t": 91779.3138666666,
      "d": 1727.9393333333282,
      "v": 122
    },
    {
      "midi": 62,
      "hit": false,
      "t": 91779.3138666666,
      "d": 1867.6450666666642,
      "v": 122
    },
    {
      "midi": 55,
      "hit": false,
      "t": 91779.3138666666,
      "d": 1911.762666666662,
      "v": 122
    },
    {
      "midi": 59,
      "hit": false,
      "t": 91779.3138666666,
      "d": 1911.762666666662,
      "v": 122
    },
    {
      "midi": 36,
      "hit": false,
      "t": 93544.0178666666,
      "d": 867.6461333333282,
      "v": 122
    },
    {
      "midi": 60,
      "hit": false,
      "t": 93544.0178666666,
      "d": 1845.5862666666508,
      "v": 122
    },
    {
      "midi": 56,
      "hit": false,
      "t": 93544.0178666666,
      "d": 1911.7626666666474,
      "v": 122
    },
    {
      "midi": 62,
      "hit": false,
      "t": 94426.3698666666,
      "d": 213.2350666666607,
      "v": 122
    },
    {
      "midi": 64,
      "hit": false,
      "t": 94654.31079999993,
      "d": 205.8821333333326,
      "v": 122
    },
    {
      "midi": 65,
      "hit": false,
      "t": 94867.5458666666,
      "d": 213.2350666666607,
      "v": 122
    },
    {
      "midi": 36,
      "hit": false,
      "t": 95095.48679999993,
      "d": 205.8821333333326,
      "v": 122
    },
    {
      "midi": 64,
      "hit": false,
      "t": 95095.48679999993,
      "d": 558.8229333333293,
      "v": 122
    },
    {
      "midi": 36,
      "hit": false,
      "t": 95308.72186666659,
      "d": 1183.8222666666843,
      "v": 122
    },
    {
      "midi": 62,
      "hit": false,
      "t": 95308.72186666659,
      "d": 1749.9981333333417,
      "v": 122
    },
    {
      "midi": 59,
      "hit": false,
      "t": 95308.72186666659,
      "d": 1772.056933333326,
      "v": 122
    },
    {
      "midi": 69,
      "hit": false,
      "t": 95536.66279999992,
      "d": 536.764133333345,
      "v": 122
    },
    {
      "midi": 67,
      "hit": false,
      "t": 95977.83879999992,
      "d": 1058.8224000000046,
      "v": 122
    },
    {
      "midi": 31,
      "hit": false,
      "t": 96419.01479999993,
      "d": 205.8821333333326,
      "v": 122
    },
    {
      "midi": 33,
      "hit": false,
      "t": 96632.24986666659,
      "d": 213.2350666666607,
      "v": 122
    },
    {
      "midi": 31,
      "hit": false,
      "t": 96860.19079999992,
      "d": 205.8821333333326,
      "v": 122
    },
    {
      "midi": 60,
      "hit": false,
      "t": 97073.42586666658,
      "d": 772.05799999999,
      "v": 122
    },
    {
      "midi": 57,
      "hit": false,
      "t": 97073.42586666658,
      "d": 794.1167999999889,
      "v": 122
    },
    {
      "midi": 36,
      "hit": false,
      "t": 97073.42586666658,
      "d": 1382.3514666666451,
      "v": 122
    },
    {
      "midi": 55,
      "hit": false,
      "t": 97742.54279999991,
      "d": 323.5290666666551,
      "v": 122
    },
    {
      "midi": 62,
      "hit": false,
      "t": 97955.77786666657,
      "d": 213.2350666666607,
      "v": 122
    },
    {
      "midi": 64,
      "hit": false,
      "t": 98183.7187999999,
      "d": 205.8821333333326,
      "v": 122
    },
    {
      "midi": 65,
      "hit": false,
      "t": 98396.95386666656,
      "d": 301.4702666666708,
      "v": 122
    },
    {
      "midi": 36,
      "hit": false,
      "t": 98624.89479999989,
      "d": 205.8821333333326,
      "v": 122
    },
    {
      "midi": 64,
      "hit": false,
      "t": 98624.89479999989,
      "d": 323.5290666666551,
      "v": 122
    },
    {
      "midi": 36,
      "hit": false,
      "t": 98838.12986666655,
      "d": 1727.9393333333282,
      "v": 122
    },
    {
      "midi": 55,
      "hit": false,
      "t": 98838.12986666655,
      "d": 1727.9393333333282,
      "v": 122
    },
    {
      "midi": 59,
      "hit": false,
      "t": 98838.12986666655,
      "d": 1727.9393333333282,
      "v": 122
    },
    {
      "midi": 62,
      "hit": false,
      "t": 98838.12986666655,
      "d": 1727.9393333333282,
      "v": 122
    },
    {
      "midi": 60,
      "hit": false,
      "t": 100602.83386666655,
      "d": 301.4702666666708,
      "v": 122
    },
    {
      "midi": 56,
      "hit": false,
      "t": 100602.83386666655,
      "d": 338.2349333333259,
      "v": 122
    },
    {
      "midi": 36,
      "hit": false,
      "t": 100602.83386666655,
      "d": 1816.1745333333238,
      "v": 122
    },
    {
      "midi": 62,
      "hit": false,
      "t": 100646.95146666655,
      "d": 286.7644,
      "v": 122
    },
    {
      "midi": 64,
      "hit": false,
      "t": 100830.77479999988,
      "d": 301.47026666665624,
      "v": 122
    },
    {
      "midi": 65,
      "hit": false,
      "t": 101044.00986666654,
      "d": 301.47026666665624,
      "v": 122
    },
    {
      "midi": 56,
      "hit": false,
      "t": 101271.95079999988,
      "d": 735.2933333333203,
      "v": 122
    },
    {
      "midi": 60,
      "hit": false,
      "t": 101271.95079999988,
      "d": 757.3521333333192,
      "v": 122
    },
    {
      "midi": 67,
      "hit": false,
      "t": 101271.95079999988,
      "d": 772.05799999999,
      "v": 122
    },
    {
      "midi": 62,
      "hit": false,
      "t": 101316.06839999987,
      "d": 713.2345333333215,
      "v": 122
    },
    {
      "midi": 65,
      "hit": false,
      "t": 101926.36186666653,
      "d": 301.4702666666708,
      "v": 122
    },
    {
      "midi": 64,
      "hit": false,
      "t": 102154.30279999986,
      "d": 323.52906666668423,
      "v": 122
    },
    {
      "midi": 57,
      "hit": false,
      "t": 102367.53786666653,
      "d": 433.82306666667864,
      "v": 122
    },
    {
      "midi": 62,
      "hit": false,
      "t": 102367.53786666653,
      "d": 529.4112000000023,
      "v": 122
    },
    {
      "midi": 35,
      "hit": false,
      "t": 102367.53786666653,
      "d": 1022.0577333333495,
      "v": 122
    },
    {
      "midi": 64,
      "hit": false,
      "t": 102808.71386666654,
      "d": 301.4702666666708,
      "v": 122
    },
    {
      "midi": 67,
      "hit": false,
      "t": 103036.65479999987,
      "d": 757.3521333333338,
      "v": 122
    },
    {
      "midi": 56,
      "hit": false,
      "t": 103205.77226666655,
      "d": 477.94066666666185,
      "v": 122
    },
    {
      "midi": 58,
      "hit": false,
      "t": 103249.88986666655,
      "d": 433.8230666666641,
      "v": 122
    },
    {
      "midi": 62,
      "hit": false,
      "t": 103249.88986666655,
      "d": 588.2346666666563,
      "v": 122
    },
    {
      "midi": 40,
      "hit": false,
      "t": 103249.88986666655,
      "d": 926.4695999999822,
      "v": 122
    },
    {
      "midi": 64,
      "hit": false,
      "t": 103691.06586666654,
      "d": 213.2350666666607,
      "v": 122
    },
    {
      "midi": 62,
      "hit": false,
      "t": 103919.00679999987,
      "d": 205.8821333333326,
      "v": 122
    },
    {
      "midi": 55,
      "hit": false,
      "t": 104132.24186666653,
      "d": 433.8230666666641,
      "v": 122
    },
    {
      "midi": 60,
      "hit": false,
      "t": 104132.24186666653,
      "d": 433.8230666666641,
      "v": 122
    },
    {
      "midi": 33,
      "hit": false,
      "t": 104132.24186666653,
      "d": 999.998933333336,
      "v": 122
    },
    {
      "midi": 62,
      "hit": false,
      "t": 104573.41786666652,
      "d": 301.4702666666708,
      "v": 122
    },
    {
      "midi": 74,
      "hit": false,
      "t": 104801.35879999986,
      "d": 794.116800000018,
      "v": 122
    },
    {
      "midi": 65,
      "hit": false,
      "t": 105014.59386666653,
      "d": 529.4112000000023,
      "v": 122
    },
    {
      "midi": 60,
      "hit": false,
      "t": 105014.59386666653,
      "d": 566.1758666666719,
      "v": 122
    },
    {
      "midi": 38,
      "hit": false,
      "t": 105014.59386666653,
      "d": 1022.0577333333495,
      "v": 122
    },
    {
      "midi": 62,
      "hit": false,
      "t": 105058.71146666653,
      "d": 455.8818666666775,
      "v": 122
    },
    {
      "midi": 72,
      "hit": false,
      "t": 105455.76986666654,
      "d": 323.5290666666697,
      "v": 122
    },
    {
      "midi": 71,
      "hit": false,
      "t": 105683.71079999987,
      "d": 558.8229333333438,
      "v": 122
    },
    {
      "midi": 43,
      "hit": false,
      "t": 105896.94586666655,
      "d": 286.7644,
      "v": 122
    },
    {
      "midi": 50,
      "hit": false,
      "t": 106124.88679999988,
      "d": 257.35266666667303,
      "v": 122
    },
    {
      "midi": 59,
      "hit": false,
      "t": 106124.88679999988,
      "d": 301.4702666666708,
      "v": 122
    },
    {
      "midi": 67,
      "hit": false,
      "t": 106124.88679999988,
      "d": 1426.4690666666866,
      "v": 122
    },
    {
      "midi": 48,
      "hit": false,
      "t": 106338.12186666655,
      "d": 286.7644,
      "v": 122
    },
    {
      "midi": 57,
      "hit": false,
      "t": 106338.12186666655,
      "d": 323.5290666666697,
      "v": 122
    },
    {
      "midi": 52,
      "hit": false,
      "t": 106566.06279999988,
      "d": 522.0582666666742,
      "v": 122
    },
    {
      "midi": 60,
      "hit": false,
      "t": 106566.06279999988,
      "d": 522.0582666666742,
      "v": 122
    },
    {
      "midi": 59,
      "hit": false,
      "t": 107007.23879999989,
      "d": 558.8229333333438,
      "v": 122
    },
    {
      "midi": 50,
      "hit": false,
      "t": 107007.23879999989,
      "d": 580.8817333333427,
      "v": 122
    },
    {
      "midi": 62,
      "hit": false,
      "t": 107448.4147999999,
      "d": 205.8821333333326,
      "v": 122
    },
    {
      "midi": 55,
      "hit": false,
      "t": 107661.64986666656,
      "d": 433.8230666666641,
      "v": 122
    },
    {
      "midi": 60,
      "hit": false,
      "t": 107661.64986666656,
      "d": 433.8230666666641,
      "v": 122
    },
    {
      "midi": 33,
      "hit": false,
      "t": 107661.64986666656,
      "d": 999.998933333336,
      "v": 122
    },
    {
      "midi": 62,
      "hit": false,
      "t": 108102.82586666655,
      "d": 301.4702666666708,
      "v": 122
    },
    {
      "midi": 74,
      "hit": false,
      "t": 108330.76679999988,
      "d": 794.116800000018,
      "v": 122
    },
    {
      "midi": 65,
      "hit": false,
      "t": 108544.00186666656,
      "d": 529.4112000000023,
      "v": 122
    },
    {
      "midi": 60,
      "hit": false,
      "t": 108544.00186666656,
      "d": 566.1758666666719,
      "v": 122
    },
    {
      "midi": 38,
      "hit": false,
      "t": 108544.00186666656,
      "d": 1022.0577333333495,
      "v": 122
    },
    {
      "midi": 62,
      "hit": false,
      "t": 108588.11946666655,
      "d": 455.8818666666775,
      "v": 122
    },
    {
      "midi": 72,
      "hit": false,
      "t": 108985.17786666656,
      "d": 323.5290666666697,
      "v": 122
    },
    {
      "midi": 71,
      "hit": false,
      "t": 109213.1187999999,
      "d": 558.8229333333438,
      "v": 122
    },
    {
      "midi": 43,
      "hit": false,
      "t": 109426.35386666657,
      "d": 286.7644,
      "v": 122
    },
    {
      "midi": 50,
      "hit": false,
      "t": 109654.2947999999,
      "d": 257.35266666667303,
      "v": 122
    },
    {
      "midi": 59,
      "hit": false,
      "t": 109654.2947999999,
      "d": 301.4702666666708,
      "v": 122
    },
    {
      "midi": 67,
      "hit": false,
      "t": 109654.2947999999,
      "d": 1426.4690666666866,
      "v": 122
    },
    {
      "midi": 48,
      "hit": false,
      "t": 109867.52986666658,
      "d": 286.7644,
      "v": 122
    },
    {
      "midi": 57,
      "hit": false,
      "t": 109867.52986666658,
      "d": 323.5290666666697,
      "v": 122
    },
    {
      "midi": 52,
      "hit": false,
      "t": 110095.47079999991,
      "d": 522.0582666666742,
      "v": 122
    },
    {
      "midi": 60,
      "hit": false,
      "t": 110095.47079999991,
      "d": 522.0582666666742,
      "v": 122
    },
    {
      "midi": 59,
      "hit": false,
      "t": 110536.64679999991,
      "d": 558.8229333333438,
      "v": 122
    },
    {
      "midi": 50,
      "hit": false,
      "t": 110536.64679999991,
      "d": 580.8817333333427,
      "v": 122
    },
    {
      "midi": 62,
      "hit": false,
      "t": 110977.82279999992,
      "d": 205.8821333333326,
      "v": 122
    },
    {
      "midi": 55,
      "hit": false,
      "t": 111191.05786666658,
      "d": 433.8230666666641,
      "v": 122
    },
    {
      "midi": 60,
      "hit": false,
      "t": 111191.05786666658,
      "d": 529.4111999999877,
      "v": 122
    },
    {
      "midi": 33,
      "hit": false,
      "t": 111191.05786666658,
      "d": 1058.8223999999755,
      "v": 122
    },
    {
      "midi": 62,
      "hit": false,
      "t": 111235.17546666658,
      "d": 389.7054666666663,
      "v": 122
    },
    {
      "midi": 62,
      "hit": false,
      "t": 111632.23386666657,
      "d": 213.2350666666607,
      "v": 122
    },
    {
      "midi": 74,
      "hit": false,
      "t": 111860.1747999999,
      "d": 360.2937333333248,
      "v": 122
    },
    {
      "midi": 60,
      "hit": false,
      "t": 112073.40986666657,
      "d": 551.4699999999866,
      "v": 122
    },
    {
      "midi": 66,
      "hit": false,
      "t": 112073.40986666657,
      "d": 551.4699999999866,
      "v": 122
    },
    {
      "midi": 38,
      "hit": false,
      "t": 112073.40986666657,
      "d": 1036.7635999999911,
      "v": 122
    },
    {
      "midi": 62,
      "hit": false,
      "t": 112117.52746666656,
      "d": 529.4111999999877,
      "v": 122
    },
    {
      "midi": 72,
      "hit": false,
      "t": 112514.58586666656,
      "d": 338.2349333333259,
      "v": 122
    },
    {
      "midi": 71,
      "hit": false,
      "t": 112742.52679999989,
      "d": 1904.4097333333484,
      "v": 122
    },
    {
      "midi": 43,
      "hit": false,
      "t": 112955.76186666655,
      "d": 1816.1745333333529,
      "v": 122
    },
    {
      "midi": 60,
      "hit": false,
      "t": 113624.87879999989,
      "d": 522.0582666666742,
      "v": 122
    },
    {
      "midi": 52,
      "hit": false,
      "t": 113624.87879999989,
      "d": 544.117066666673,
      "v": 122
    },
    {
      "midi": 59,
      "hit": false,
      "t": 114066.0547999999,
      "d": 595.5876000000135,
      "v": 122
    },
    {
      "midi": 50,
      "hit": false,
      "t": 114066.0547999999,
      "d": 632.3522666666831,
      "v": 122
    },
    {
      "midi": 62,
      "hit": false,
      "t": 114507.2307999999,
      "d": 205.88213333334716,
      "v": 122
    },
    {
      "midi": 60,
      "hit": false,
      "t": 114720.46586666658,
      "d": 602.940533333327,
      "v": 122
    },
    {
      "midi": 55,
      "hit": false,
      "t": 114720.46586666658,
      "d": 624.9993333333259,
      "v": 122
    },
    {
      "midi": 33,
      "hit": false,
      "t": 114720.46586666658,
      "d": 1022.0577333333204,
      "v": 122
    },
    {
      "midi": 62,
      "hit": false,
      "t": 114764.58346666658,
      "d": 389.7054666666663,
      "v": 122
    },
    {
      "midi": 62,
      "hit": false,
      "t": 115161.64186666657,
      "d": 301.4702666666708,
      "v": 122
    },
    {
      "midi": 74,
      "hit": false,
      "t": 115389.5827999999,
      "d": 323.5290666666697,
      "v": 122
    },
    {
      "midi": 66,
      "hit": false,
      "t": 115602.81786666658,
      "d": 566.1758666666574,
      "v": 122
    },
    {
      "midi": 60,
      "hit": false,
      "t": 115602.81786666658,
      "d": 624.9993333333259,
      "v": 122
    },
    {
      "midi": 38,
      "hit": false,
      "t": 115602.81786666658,
      "d": 1095.5870666666597,
      "v": 122
    },
    {
      "midi": 62,
      "hit": false,
      "t": 115646.93546666657,
      "d": 529.4111999999877,
      "v": 122
    },
    {
      "midi": 72,
      "hit": false,
      "t": 116043.99386666657,
      "d": 286.7644,
      "v": 122
    },
    {
      "midi": 71,
      "hit": false,
      "t": 116271.9347999999,
      "d": 301.4702666666708,
      "v": 122
    },
    {
      "midi": 62,
      "hit": false,
      "t": 116485.16986666658,
      "d": 529.4111999999877,
      "v": 122
    },
    {
      "midi": 66,
      "hit": false,
      "t": 116485.16986666658,
      "d": 551.4699999999866,
      "v": 122
    },
    {
      "midi": 43,
      "hit": false,
      "t": 116485.16986666658,
      "d": 1132.3517333333293,
      "v": 122
    },
    {
      "midi": 69,
      "hit": false,
      "t": 116926.34586666657,
      "d": 286.7644,
      "v": 122
    },
    {
      "midi": 74,
      "hit": false,
      "t": 117154.2867999999,
      "d": 360.29373333333933,
      "v": 122
    },
    {
      "midi": 36,
      "hit": false,
      "t": 117367.52186666658,
      "d": 433.8230666666641,
      "v": 122
    },
    {
      "midi": 70,
      "hit": false,
      "t": 117367.52186666658,
      "d": 507.35239999998885,
      "v": 122
    },
    {
      "midi": 65,
      "hit": false,
      "t": 117367.52186666658,
      "d": 529.4111999999877,
      "v": 122
    },
    {
      "midi": 62,
      "hit": false,
      "t": 117367.52186666658,
      "d": 551.4699999999866,
      "v": 122
    },
    {
      "midi": 72,
      "hit": false,
      "t": 117808.69786666657,
      "d": 301.4702666666708,
      "v": 122
    },
    {
      "midi": 69,
      "hit": false,
      "t": 118036.6387999999,
      "d": 757.3521333333483,
      "v": 122
    },
    {
      "midi": 64,
      "hit": false,
      "t": 118249.87386666657,
      "d": 794.1168000000034,
      "v": 122
    },
    {
      "midi": 60,
      "hit": false,
      "t": 118249.87386666657,
      "d": 999.998933333336,
      "v": 122
    },
    {
      "midi": 41,
      "hit": false,
      "t": 118249.87386666657,
      "d": 1022.0577333333349,
      "v": 122
    },
    {
      "midi": 67,
      "hit": false,
      "t": 118691.04986666658,
      "d": 286.7644,
      "v": 122
    },
    {
      "midi": 72,
      "hit": false,
      "t": 118918.99079999991,
      "d": 205.8821333333326,
      "v": 122
    },
    {
      "midi": 68,
      "hit": false,
      "t": 119132.22586666657,
      "d": 433.8230666666641,
      "v": 122
    },
    {
      "midi": 63,
      "hit": false,
      "t": 119132.22586666657,
      "d": 999.9989333333069,
      "v": 122
    },
    {
      "midi": 34,
      "hit": false,
      "t": 119132.22586666657,
      "d": 1058.8223999999755,
      "v": 122
    },
    {
      "midi": 71,
      "hit": false,
      "t": 119573.40186666657,
      "d": 338.2349333333259,
      "v": 122
    },
    {
      "midi": 69,
      "hit": false,
      "t": 119801.3427999999,
      "d": 301.47026666665624,
      "v": 122
    },
    {
      "midi": 38,
      "hit": false,
      "t": 120014.57786666656,
      "d": 867.6461333333282,
      "v": 122
    },
    {
      "midi": 65,
      "hit": false,
      "t": 120014.57786666656,
      "d": 963.2342666666664,
      "v": 122
    },
    {
      "midi": 60,
      "hit": false,
      "t": 120014.57786666656,
      "d": 985.2930666666653,
      "v": 122
    },
    {
      "midi": 67,
      "hit": false,
      "t": 120896.92986666656,
      "d": 213.2350666666607,
      "v": 122
    },
    {
      "midi": 62,
      "hit": false,
      "t": 120896.92986666656,
      "d": 323.5290666666697,
      "v": 122
    },
    {
      "midi": 40,
      "hit": false,
      "t": 120896.92986666656,
      "d": 926.4695999999967,
      "v": 122
    },
    {
      "midi": 67,
      "hit": false,
      "t": 121124.87079999989,
      "d": 338.23493333334045,
      "v": 122
    },
    {
      "midi": 69,
      "hit": false,
      "t": 121338.10586666656,
      "d": 323.5290666666697,
      "v": 122
    },
    {
      "midi": 72,
      "hit": false,
      "t": 121566.0467999999,
      "d": 205.8821333333326,
      "v": 122
    },
    {
      "midi": 77,
      "hit": false,
      "t": 121779.28186666656,
      "d": 433.8230666666641,
      "v": 122
    },
    {
      "midi": 69,
      "hit": false,
      "t": 121779.28186666656,
      "d": 794.1167999999889,
      "v": 122
    },
    {
      "midi": 72,
      "hit": false,
      "t": 121779.28186666656,
      "d": 955.8813333333237,
      "v": 122
    },
    {
      "midi": 41,
      "hit": false,
      "t": 121779.28186666656,
      "d": 992.6459999999934,
      "v": 122
    },
    {
      "midi": 64,
      "hit": false,
      "t": 121779.28186666656,
      "d": 992.6459999999934,
      "v": 122
    },
    {
      "midi": 76,
      "hit": false,
      "t": 122220.45786666655,
      "d": 213.2350666666607,
      "v": 122
    },
    {
      "midi": 74,
      "hit": false,
      "t": 122448.39879999988,
      "d": 757.3521333333338,
      "v": 122
    },
    {
      "midi": 43,
      "hit": false,
      "t": 122661.63386666654,
      "d": 874.9990666666708,
      "v": 122
    },
    {
      "midi": 65,
      "hit": false,
      "t": 122661.63386666654,
      "d": 874.9990666666708,
      "v": 122
    },
    {
      "midi": 69,
      "hit": false,
      "t": 122661.63386666654,
      "d": 992.6459999999934,
      "v": 122
    },
    {
      "midi": 72,
      "hit": false,
      "t": 123102.80986666655,
      "d": 213.2350666666607,
      "v": 122
    },
    {
      "midi": 72,
      "hit": false,
      "t": 123330.75079999988,
      "d": 316.176133333327,
      "v": 122
    },
    {
      "midi": 65,
      "hit": false,
      "t": 123543.98586666654,
      "d": 279.4114666666719,
      "v": 122
    },
    {
      "midi": 38,
      "hit": false,
      "t": 123543.98586666654,
      "d": 1088.234133333346,
      "v": 122
    },
    {
      "midi": 64,
      "hit": false,
      "t": 123771.92679999987,
      "d": 272.0585333333438,
      "v": 122
    },
    {
      "midi": 62,
      "hit": false,
      "t": 123985.16186666655,
      "d": 279.4114666666719,
      "v": 122
    },
    {
      "midi": 65,
      "hit": false,
      "t": 124213.10279999988,
      "d": 205.88213333334716,
      "v": 122
    },
    {
      "midi": 65,
      "hit": false,
      "t": 124426.33786666655,
      "d": 294.11733333332813,
      "v": 122
    },
    {
      "midi": 64,
      "hit": false,
      "t": 124654.27879999988,
      "d": 448.5289333333203,
      "v": 122
    },
    {
      "midi": 40,
      "hit": false,
      "t": 125095.45479999988,
      "d": 205.8821333333326,
      "v": 122
    },
    {
      "midi": 62,
      "hit": false,
      "t": 125308.68986666654,
      "d": 492.6465333333472,
      "v": 122
    },
    {
      "midi": 67,
      "hit": false,
      "t": 125308.68986666654,
      "d": 492.6465333333472,
      "v": 122
    },
    {
      "midi": 71,
      "hit": false,
      "t": 125308.68986666654,
      "d": 558.8229333333438,
      "v": 122
    },
    {
      "midi": 40,
      "hit": false,
      "t": 125308.68986666654,
      "d": 1007.3518666666641,
      "v": 122
    },
    {
      "midi": 72,
      "hit": false,
      "t": 125749.86586666654,
      "d": 330.8819999999978,
      "v": 122
    },
    {
      "midi": 55,
      "hit": false,
      "t": 125977.80679999987,
      "d": 639.7051999999967,
      "v": 122
    },
    {
      "midi": 62,
      "hit": false,
      "t": 125977.80679999987,
      "d": 727.9404000000068,
      "v": 122
    },
    {
      "midi": 67,
      "hit": false,
      "t": 125977.80679999987,
      "d": 742.6462666666775,
      "v": 122
    },
    {
      "midi": 64,
      "hit": false,
      "t": 126632.21786666654,
      "d": 213.23506666667527,
      "v": 122
    },
    {
      "midi": 40,
      "hit": false,
      "t": 126860.15879999989,
      "d": 205.8821333333326,
      "v": 122
    },
    {
      "midi": 64,
      "hit": false,
      "t": 126860.15879999989,
      "d": 1036.7636000000057,
      "v": 122
    },
    {
      "midi": 69,
      "hit": false,
      "t": 126860.15879999989,
      "d": 1897.0568000000058,
      "v": 122
    },
    {
      "midi": 41,
      "hit": false,
      "t": 127073.39386666655,
      "d": 1044.1165333333483,
      "v": 122
    },
    {
      "midi": 62,
      "hit": false,
      "t": 127742.51079999989,
      "d": 573.5288,
      "v": 122
    },
    {
      "midi": 64,
      "hit": false,
      "t": 128183.6867999999,
      "d": 536.7641333333304,
      "v": 122
    },
    {
      "midi": 60,
      "hit": false,
      "t": 128624.86279999989,
      "d": 205.88213333334716,
      "v": 122
    },
    {
      "midi": 41,
      "hit": false,
      "t": 128624.86279999989,
      "d": 330.88200000001234,
      "v": 122
    },
    {
      "midi": 65,
      "hit": false,
      "t": 128838.09786666656,
      "d": 558.8229333333438,
      "v": 122
    },
    {
      "midi": 43,
      "hit": false,
      "t": 128838.09786666656,
      "d": 779.4109333333327,
      "v": 122
    },
    {
      "midi": 60,
      "hit": false,
      "t": 128838.09786666656,
      "d": 926.4695999999967,
      "v": 122
    },
    {
      "midi": 57,
      "hit": false,
      "t": 128838.09786666656,
      "d": 1022.0577333333349,
      "v": 122
    },
    {
      "midi": 64,
      "hit": false,
      "t": 129279.27386666657,
      "d": 345.587866666654,
      "v": 122
    },
    {
      "midi": 62,
      "hit": false,
      "t": 129507.2147999999,
      "d": 779.4109333333327,
      "v": 122
    },
    {
      "midi": 44,
      "hit": false,
      "t": 129720.44986666656,
      "d": 1007.3518666666641,
      "v": 122
    },
    {
      "midi": 53,
      "hit": false,
      "t": 129720.44986666656,
      "d": 1022.0577333333349,
      "v": 122
    },
    {
      "midi": 59,
      "hit": false,
      "t": 129720.44986666656,
      "d": 1022.0577333333349,
      "v": 122
    },
    {
      "midi": 60,
      "hit": false,
      "t": 130161.62586666657,
      "d": 213.2350666666607,
      "v": 122
    },
    {
      "midi": 60,
      "hit": false,
      "t": 130389.5667999999,
      "d": 1191.1752000000124,
      "v": 122
    },
    {
      "midi": 55,
      "hit": false,
      "t": 130602.80186666656,
      "d": 1007.3518666666932,
      "v": 122
    },
    {
      "midi": 45,
      "hit": false,
      "t": 130602.80186666656,
      "d": 1044.1165333333483,
      "v": 122
    },
    {
      "midi": 72,
      "hit": false,
      "t": 131485.15386666657,
      "d": 1007.3518666666932,
      "v": 122
    },
    {
      "midi": 64,
      "hit": false,
      "t": 131485.15386666657,
      "d": 1058.8224000000337,
      "v": 122
    },
    {
      "midi": 38,
      "hit": false,
      "t": 132154.2707999999,
      "d": 205.8821333333326,
      "v": 122
    },
    {
      "midi": 71,
      "hit": false,
      "t": 132367.5058666666,
      "d": 529.4112000000023,
      "v": 122
    },
    {
      "midi": 62,
      "hit": false,
      "t": 132367.5058666666,
      "d": 544.1170666666585,
      "v": 122
    },
    {
      "midi": 40,
      "hit": false,
      "t": 132367.5058666666,
      "d": 1044.1165333333192,
      "v": 122
    },
    {
      "midi": 72,
      "hit": false,
      "t": 132808.6818666666,
      "d": 316.176133333327,
      "v": 122
    },
    {
      "midi": 64,
      "hit": false,
      "t": 132808.6818666666,
      "d": 360.2937333333248,
      "v": 122
    },
    {
      "midi": 67,
      "hit": false,
      "t": 133036.62279999992,
      "d": 727.9403999999922,
      "v": 122
    },
    {
      "midi": 62,
      "hit": false,
      "t": 133036.62279999992,
      "d": 757.3521333333338,
      "v": 122
    },
    {
      "midi": 64,
      "hit": false,
      "t": 133691.03386666658,
      "d": 213.23506666667527,
      "v": 122
    },
    {
      "midi": 40,
      "hit": false,
      "t": 133918.9747999999,
      "d": 360.2937333333539,
      "v": 122
    },
    {
      "midi": 69,
      "hit": false,
      "t": 133918.9747999999,
      "d": 558.8229333333438,
      "v": 122
    },
    {
      "midi": 61,
      "hit": false,
      "t": 133918.9747999999,
      "d": 654.411066666682,
      "v": 122
    },
    {
      "midi": 64,
      "hit": false,
      "t": 133918.9747999999,
      "d": 691.1757333333371,
      "v": 122
    },
    {
      "midi": 42,
      "hit": false,
      "t": 134132.20986666658,
      "d": 1911.7626666665892,
      "v": 122
    },
    {
      "midi": 69,
      "hit": false,
      "t": 134573.3858666666,
      "d": 213.23506666664616,
      "v": 122
    },
    {
      "midi": 69,
      "hit": false,
      "t": 134801.3267999999,
      "d": 639.7051999999967,
      "v": 122
    },
    {
      "midi": 61,
      "hit": false,
      "t": 134801.3267999999,
      "d": 735.2933333333058,
      "v": 122
    },
    {
      "midi": 64,
      "hit": false,
      "t": 134801.3267999999,
      "d": 830.881466666644,
      "v": 122
    },
    {
      "midi": 69,
      "hit": false,
      "t": 135455.73786666655,
      "d": 213.23506666664616,
      "v": 122
    },
    {
      "midi": 69,
      "hit": false,
      "t": 135683.67879999985,
      "d": 323.5290666666697,
      "v": 122
    },
    {
      "midi": 59,
      "hit": false,
      "t": 135896.91386666652,
      "d": 794.1167999999889,
      "v": 122
    },
    {
      "midi": 63,
      "hit": false,
      "t": 135896.91386666652,
      "d": 999.9989333333215,
      "v": 122
    },
    {
      "midi": 35,
      "hit": false,
      "t": 135896.91386666652,
      "d": 1058.8223999999755,
      "v": 122
    },
    {
      "midi": 69,
      "hit": false,
      "t": 136338.0898666665,
      "d": 213.23506666667527,
      "v": 122
    },
    {
      "midi": 71,
      "hit": false,
      "t": 136566.03079999983,
      "d": 757.3521333333338,
      "v": 122
    },
    {
      "midi": 66,
      "hit": false,
      "t": 136779.2658666665,
      "d": 889.7049333333562,
      "v": 122
    },
    {
      "midi": 39,
      "hit": false,
      "t": 136779.2658666665,
      "d": 985.2930666666944,
      "v": 122
    },
    {
      "midi": 59,
      "hit": false,
      "t": 136779.2658666665,
      "d": 1022.0577333333495,
      "v": 122
    },
    {
      "midi": 69,
      "hit": false,
      "t": 137220.4418666665,
      "d": 323.5290666666988,
      "v": 122
    },
    {
      "midi": 67,
      "hit": false,
      "t": 137448.38279999985,
      "d": 816.1756000000169,
      "v": 122
    },
    {
      "midi": 62,
      "hit": false,
      "t": 137661.61786666652,
      "d": 551.4700000000012,
      "v": 122
    },
    {
      "midi": 40,
      "hit": false,
      "t": 137661.61786666652,
      "d": 999.9989333333506,
      "v": 122
    },
    {
      "midi": 47,
      "hit": false,
      "t": 137661.61786666652,
      "d": 1022.0577333333495,
      "v": 122
    },
    {
      "midi": 72,
      "hit": false,
      "t": 138102.79386666653,
      "d": 338.2349333333259,
      "v": 122
    },
    {
      "midi": 60,
      "hit": false,
      "t": 138330.73479999986,
      "d": 772.0580000000191,
      "v": 122
    },
    {
      "midi": 55,
      "hit": false,
      "t": 138543.96986666654,
      "d": 985.2930666666944,
      "v": 122
    },
    {
      "midi": 52,
      "hit": false,
      "t": 138543.96986666654,
      "d": 1022.0577333333495,
      "v": 122
    },
    {
      "midi": 45,
      "hit": false,
      "t": 138543.96986666654,
      "d": 1095.5870666666888,
      "v": 122
    },
    {
      "midi": 60,
      "hit": false,
      "t": 139213.08679999987,
      "d": 205.8821333333326,
      "v": 122
    },
    {
      "midi": 60,
      "hit": false,
      "t": 139426.32186666655,
      "d": 507.3524000000034,
      "v": 122
    },
    {
      "midi": 65,
      "hit": false,
      "t": 139426.32186666655,
      "d": 588.2346666666563,
      "v": 122
    },
    {
      "midi": 57,
      "hit": false,
      "t": 139426.32186666655,
      "d": 1022.0577333333204,
      "v": 122
    },
    {
      "midi": 38,
      "hit": false,
      "t": 139426.32186666655,
      "d": 1036.7635999999766,
      "v": 122
    },
    {
      "midi": 64,
      "hit": false,
      "t": 139867.49786666656,
      "d": 397.0583999999799,
      "v": 122
    },
    {
      "midi": 62,
      "hit": false,
      "t": 140095.43879999986,
      "d": 794.116800000018,
      "v": 122
    },
    {
      "midi": 59,
      "hit": false,
      "t": 140308.67386666653,
      "d": 507.3524000000034,
      "v": 122
    },
    {
      "midi": 53,
      "hit": false,
      "t": 140308.67386666653,
      "d": 867.6461333333573,
      "v": 122
    },
    {
      "midi": 43,
      "hit": false,
      "t": 140308.67386666653,
      "d": 985.2930666666653,
      "v": 122
    },
    {
      "midi": 60,
      "hit": false,
      "t": 140749.84986666654,
      "d": 529.4112000000023,
      "v": 122
    },
    {
      "midi": 65,
      "hit": false,
      "t": 141191.02586666655,
      "d": 279.4114666666719,
      "v": 122
    },
    {
      "midi": 38,
      "hit": false,
      "t": 141191.02586666655,
      "d": 1088.234133333346,
      "v": 122
    },
    {
      "midi": 64,
      "hit": false,
      "t": 141418.96679999988,
      "d": 272.05853333332925,
      "v": 122
    },
    {
      "midi": 62,
      "hit": false,
      "t": 141632.20186666655,
      "d": 279.4114666666719,
      "v": 122
    },
    {
      "midi": 65,
      "hit": false,
      "t": 141860.14279999989,
      "d": 205.8821333333326,
      "v": 122
    },
    {
      "midi": 65,
      "hit": false,
      "t": 142073.37786666656,
      "d": 294.11733333332813,
      "v": 122
    },
    {
      "midi": 64,
      "hit": false,
      "t": 142301.3187999999,
      "d": 448.5289333333494,
      "v": 122
    },
    {
      "midi": 40,
      "hit": false,
      "t": 142742.4947999999,
      "d": 205.8821333333326,
      "v": 122
    },
    {
      "midi": 62,
      "hit": false,
      "t": 142955.72986666657,
      "d": 492.6465333333472,
      "v": 122
    },
    {
      "midi": 67,
      "hit": false,
      "t": 142955.72986666657,
      "d": 492.6465333333472,
      "v": 122
    },
    {
      "midi": 71,
      "hit": false,
      "t": 142955.72986666657,
      "d": 558.8229333333438,
      "v": 122
    },
    {
      "midi": 40,
      "hit": false,
      "t": 142955.72986666657,
      "d": 1007.3518666666932,
      "v": 122
    },
    {
      "midi": 72,
      "hit": false,
      "t": 143396.90586666658,
      "d": 330.88200000001234,
      "v": 122
    },
    {
      "midi": 55,
      "hit": false,
      "t": 143624.8467999999,
      "d": 639.7052000000258,
      "v": 122
    },
    {
      "midi": 62,
      "hit": false,
      "t": 143624.8467999999,
      "d": 727.9404000000213,
      "v": 122
    },
    {
      "midi": 67,
      "hit": false,
      "t": 143624.8467999999,
      "d": 742.6462666666775,
      "v": 122
    },
    {
      "midi": 64,
      "hit": false,
      "t": 144279.2578666666,
      "d": 213.23506666667527,
      "v": 122
    },
    {
      "midi": 40,
      "hit": false,
      "t": 144507.19879999993,
      "d": 205.8821333333326,
      "v": 122
    },
    {
      "midi": 64,
      "hit": false,
      "t": 144507.19879999993,
      "d": 1036.7636000000057,
      "v": 122
    },
    {
      "midi": 69,
      "hit": false,
      "t": 144507.19879999993,
      "d": 1897.0567999999912,
      "v": 122
    },
    {
      "midi": 41,
      "hit": false,
      "t": 144720.4338666666,
      "d": 1044.1165333333192,
      "v": 122
    },
    {
      "midi": 62,
      "hit": false,
      "t": 145389.55079999994,
      "d": 573.5287999999709,
      "v": 122
    },
    {
      "midi": 64,
      "hit": false,
      "t": 145830.72679999992,
      "d": 536.764133333345,
      "v": 122
    },
    {
      "midi": 60,
      "hit": false,
      "t": 146271.90279999992,
      "d": 205.8821333333326,
      "v": 122
    },
    {
      "midi": 41,
      "hit": false,
      "t": 146271.90279999992,
      "d": 330.88200000001234,
      "v": 122
    },
    {
      "midi": 65,
      "hit": false,
      "t": 146485.1378666666,
      "d": 558.8229333333438,
      "v": 122
    },
    {
      "midi": 43,
      "hit": false,
      "t": 146485.1378666666,
      "d": 779.4109333333327,
      "v": 122
    },
    {
      "midi": 60,
      "hit": false,
      "t": 146485.1378666666,
      "d": 926.4696000000113,
      "v": 122
    },
    {
      "midi": 57,
      "hit": false,
      "t": 146485.1378666666,
      "d": 1022.0577333333495,
      "v": 122
    },
    {
      "midi": 64,
      "hit": false,
      "t": 146926.3138666666,
      "d": 345.58786666666856,
      "v": 122
    },
    {
      "midi": 62,
      "hit": false,
      "t": 147154.25479999994,
      "d": 779.4109333333618,
      "v": 122
    },
    {
      "midi": 44,
      "hit": false,
      "t": 147367.4898666666,
      "d": 1007.3518666666932,
      "v": 122
    },
    {
      "midi": 53,
      "hit": false,
      "t": 147367.4898666666,
      "d": 1022.0577333333495,
      "v": 122
    },
    {
      "midi": 59,
      "hit": false,
      "t": 147367.4898666666,
      "d": 1022.0577333333495,
      "v": 122
    },
    {
      "midi": 60,
      "hit": false,
      "t": 147808.66586666662,
      "d": 213.23506666667527,
      "v": 122
    },
    {
      "midi": 60,
      "hit": false,
      "t": 148036.60679999995,
      "d": 1191.175200000027,
      "v": 122
    },
    {
      "midi": 55,
      "hit": false,
      "t": 148249.84186666663,
      "d": 1007.3518666666932,
      "v": 122
    },
    {
      "midi": 45,
      "hit": false,
      "t": 148249.84186666663,
      "d": 1044.1165333333483,
      "v": 122
    },
    {
      "midi": 72,
      "hit": false,
      "t": 149132.19386666664,
      "d": 1007.3518666666932,
      "v": 122
    },
    {
      "midi": 64,
      "hit": false,
      "t": 149132.19386666664,
      "d": 1058.8224000000337,
      "v": 122
    },
    {
      "midi": 38,
      "hit": false,
      "t": 149801.31079999998,
      "d": 205.8821333333326,
      "v": 122
    },
    {
      "midi": 71,
      "hit": false,
      "t": 150014.54586666665,
      "d": 529.4112000000023,
      "v": 122
    },
    {
      "midi": 62,
      "hit": false,
      "t": 150014.54586666665,
      "d": 544.1170666666585,
      "v": 122
    },
    {
      "midi": 40,
      "hit": false,
      "t": 150014.54586666665,
      "d": 1044.1165333333192,
      "v": 122
    },
    {
      "midi": 72,
      "hit": false,
      "t": 150455.72186666666,
      "d": 316.176133333327,
      "v": 122
    },
    {
      "midi": 64,
      "hit": false,
      "t": 150455.72186666666,
      "d": 360.2937333333248,
      "v": 122
    },
    {
      "midi": 67,
      "hit": false,
      "t": 150683.6628,
      "d": 727.9403999999922,
      "v": 122
    },
    {
      "midi": 62,
      "hit": false,
      "t": 150683.6628,
      "d": 757.3521333333338,
      "v": 122
    },
    {
      "midi": 64,
      "hit": false,
      "t": 151338.07386666664,
      "d": 213.23506666667527,
      "v": 122
    },
    {
      "midi": 40,
      "hit": false,
      "t": 151566.01479999998,
      "d": 205.8821333333326,
      "v": 122
    },
    {
      "midi": 61,
      "hit": false,
      "t": 151566.01479999998,
      "d": 205.8821333333326,
      "v": 122
    },
    {
      "midi": 64,
      "hit": false,
      "t": 151566.01479999998,
      "d": 205.8821333333326,
      "v": 122
    },
    {
      "midi": 69,
      "hit": false,
      "t": 151566.01479999998,
      "d": 205.8821333333326,
      "v": 122
    },
    {
      "midi": 42,
      "hit": false,
      "t": 151779.24986666665,
      "d": 1911.7626666666183,
      "v": 122
    },
    {
      "midi": 69,
      "hit": false,
      "t": 152220.42586666666,
      "d": 213.23506666667527,
      "v": 122
    },
    {
      "midi": 69,
      "hit": false,
      "t": 152448.3668,
      "d": 639.7051999999967,
      "v": 122
    },
    {
      "midi": 61,
      "hit": false,
      "t": 152448.3668,
      "d": 735.2933333333058,
      "v": 122
    },
    {
      "midi": 64,
      "hit": false,
      "t": 152448.3668,
      "d": 830.881466666644,
      "v": 122
    },
    {
      "midi": 69,
      "hit": false,
      "t": 153102.77786666664,
      "d": 213.23506666664616,
      "v": 122
    },
    {
      "midi": 69,
      "hit": false,
      "t": 153330.71879999994,
      "d": 323.5290666666697,
      "v": 122
    },
    {
      "midi": 59,
      "hit": false,
      "t": 153543.95386666662,
      "d": 794.1167999999889,
      "v": 122
    },
    {
      "midi": 63,
      "hit": false,
      "t": 153543.95386666662,
      "d": 999.9989333333215,
      "v": 122
    },
    {
      "midi": 35,
      "hit": false,
      "t": 153543.95386666662,
      "d": 1058.8223999999755,
      "v": 122
    },
    {
      "midi": 69,
      "hit": false,
      "t": 153985.1298666666,
      "d": 213.23506666667527,
      "v": 122
    },
    {
      "midi": 71,
      "hit": false,
      "t": 154213.07079999993,
      "d": 757.3521333333338,
      "v": 122
    },
    {
      "midi": 59,
      "hit": false,
      "t": 154426.3058666666,
      "d": 867.6461333333573,
      "v": 122
    },
    {
      "midi": 66,
      "hit": false,
      "t": 154426.3058666666,
      "d": 889.7049333333562,
      "v": 122
    },
    {
      "midi": 39,
      "hit": false,
      "t": 154426.3058666666,
      "d": 985.2930666666944,
      "v": 122
    },
    {
      "midi": 69,
      "hit": false,
      "t": 154867.48186666658,
      "d": 323.5290666666988,
      "v": 122
    },
    {
      "midi": 67,
      "hit": false,
      "t": 155095.42279999994,
      "d": 360.2937333333539,
      "v": 122
    },
    {
      "midi": 62,
      "hit": false,
      "t": 155308.65786666662,
      "d": 948.528399999981,
      "v": 122
    },
    {
      "midi": 47,
      "hit": false,
      "t": 155308.65786666662,
      "d": 1058.8223999999755,
      "v": 122
    },
    {
      "midi": 40,
      "hit": false,
      "t": 155308.65786666662,
      "d": 1095.5870666666306,
      "v": 122
    },
    {
      "midi": 72,
      "hit": false,
      "t": 155749.83386666662,
      "d": 360.2937333333248,
      "v": 122
    },
    {
      "midi": 60,
      "hit": false,
      "t": 155977.77479999996,
      "d": 772.0579999999609,
      "v": 122
    },
    {
      "midi": 55,
      "hit": false,
      "t": 156191.0098666666,
      "d": 647.0581333333103,
      "v": 122
    },
    {
      "midi": 45,
      "hit": false,
      "t": 156191.0098666666,
      "d": 963.2342666666373,
      "v": 122
    },
    {
      "midi": 52,
      "hit": false,
      "t": 156191.0098666666,
      "d": 1022.0577333332913,
      "v": 122
    },
    {
      "midi": 60,
      "hit": false,
      "t": 156860.1267999999,
      "d": 205.8821333333326,
      "v": 122
    },
    {
      "midi": 65,
      "hit": false,
      "t": 157073.3618666666,
      "d": 566.1758666666574,
      "v": 122
    },
    {
      "midi": 60,
      "hit": false,
      "t": 157073.3618666666,
      "d": 985.2930666666653,
      "v": 122
    },
    {
      "midi": 57,
      "hit": false,
      "t": 157073.3618666666,
      "d": 1036.7636000000057,
      "v": 122
    },
    {
      "midi": 38,
      "hit": false,
      "t": 157073.3618666666,
      "d": 1095.5870666666597,
      "v": 122
    },
    {
      "midi": 64,
      "hit": false,
      "t": 157514.53786666656,
      "d": 360.2937333333539,
      "v": 122
    },
    {
      "midi": 62,
      "hit": false,
      "t": 157742.47879999992,
      "d": 852.9402666666429,
      "v": 122
    },
    {
      "midi": 59,
      "hit": false,
      "t": 157955.71386666657,
      "d": 1058.8224000000046,
      "v": 122
    },
    {
      "midi": 43,
      "hit": false,
      "t": 157955.71386666657,
      "d": 1073.5282666666608,
      "v": 122
    },
    {
      "midi": 53,
      "hit": false,
      "t": 157955.71386666657,
      "d": 1073.5282666666608,
      "v": 122
    },
    {
      "midi": 60,
      "hit": false,
      "t": 158396.88986666658,
      "d": 433.8230666666641,
      "v": 122
    },
    {
      "midi": 57,
      "hit": false,
      "t": 158838.06586666658,
      "d": 867.6461333333282,
      "v": 122
    },
    {
      "midi": 60,
      "hit": false,
      "t": 158838.06586666658,
      "d": 867.6461333333282,
      "v": 122
    },
    {
      "midi": 52,
      "hit": false,
      "t": 158838.06586666658,
      "d": 999.9989333333215,
      "v": 122
    },
    {
      "midi": 36,
      "hit": false,
      "t": 158838.06586666658,
      "d": 1323.5279999999912,
      "v": 122
    },
    {
      "midi": 60,
      "hit": false,
      "t": 159720.41786666657,
      "d": 985.2930666666653,
      "v": 122
    },
    {
      "midi": 56,
      "hit": false,
      "t": 159720.41786666657,
      "d": 1036.7636000000057,
      "v": 122
    },
    {
      "midi": 65,
      "hit": false,
      "t": 159720.41786666657,
      "d": 1095.5870666666597,
      "v": 122
    },
    {
      "midi": 62,
      "hit": false,
      "t": 159764.53546666657,
      "d": 720.5874666666787,
      "v": 122
    },
    {
      "midi": 36,
      "hit": false,
      "t": 160389.5347999999,
      "d": 205.8821333333326,
      "v": 122
    },
    {
      "midi": 36,
      "hit": false,
      "t": 160602.76986666658,
      "d": 1727.9393333333137,
      "v": 122
    },
    {
      "midi": 62,
      "hit": false,
      "t": 160602.76986666658,
      "d": 1727.9393333333137,
      "v": 122
    },
    {
      "midi": 55,
      "hit": false,
      "t": 160602.76986666658,
      "d": 1889.7038666666194,
      "v": 122
    },
    {
      "midi": 59,
      "hit": false,
      "t": 160602.76986666658,
      "d": 1911.7626666666183,
      "v": 122
    },
    {
      "midi": 64,
      "hit": false,
      "t": 160646.88746666658,
      "d": 1683.821733333316,
      "v": 122
    },
    {
      "midi": 65,
      "hit": false,
      "t": 162367.47386666655,
      "d": 1022.0577333333204,
      "v": 122
    },
    {
      "midi": 56,
      "hit": false,
      "t": 162367.47386666655,
      "d": 1058.8223999999755,
      "v": 122
    },
    {
      "midi": 60,
      "hit": false,
      "t": 162367.47386666655,
      "d": 1058.8223999999755,
      "v": 122
    },
    {
      "midi": 36,
      "hit": false,
      "t": 162367.47386666655,
      "d": 1382.3514666666451,
      "v": 122
    },
    {
      "midi": 62,
      "hit": false,
      "t": 162411.59146666655,
      "d": 926.4695999999822,
      "v": 122
    },
    {
      "midi": 68,
      "hit": false,
      "t": 163249.82586666654,
      "d": 1022.0577333333495,
      "v": 122
    },
    {
      "midi": 36,
      "hit": false,
      "t": 163918.94279999987,
      "d": 1522.0572000000102,
      "v": 122
    },
    {
      "midi": 59,
      "hit": false,
      "t": 164132.17786666655,
      "d": 1735.2922666666564,
      "v": 122
    },
    {
      "midi": 67,
      "hit": false,
      "t": 164132.17786666655,
      "d": 1735.2922666666564,
      "v": 122
    },
    {
      "midi": 62,
      "hit": false,
      "t": 164132.17786666655,
      "d": 1757.3510666666552,
      "v": 122
    },
    {
      "midi": 64,
      "hit": false,
      "t": 164176.29546666655,
      "d": 1661.762933333317,
      "v": 122
    },
    {
      "midi": 43,
      "hit": false,
      "t": 165242.4707999999,
      "d": 419.11719999997877,
      "v": 122
    },
    {
      "midi": 45,
      "hit": false,
      "t": 165455.70586666654,
      "d": 3889.701733333379,
      "v": 122
    },
    {
      "midi": 36,
      "hit": false,
      "t": 165896.88186666655,
      "d": 1272.0574666666798,
      "v": 122
    },
    {
      "midi": 60,
      "hit": false,
      "t": 165896.88186666655,
      "d": 1911.7626666667056,
      "v": 122
    },
    {
      "midi": 56,
      "hit": false,
      "t": 165896.88186666655,
      "d": 1933.8214666667045,
      "v": 122
    },
    {
      "midi": 62,
      "hit": false,
      "t": 166779.23386666656,
      "d": 213.23506666667527,
      "v": 122
    },
    {
      "midi": 64,
      "hit": false,
      "t": 167007.1747999999,
      "d": 205.8821333333326,
      "v": 122
    },
    {
      "midi": 65,
      "hit": false,
      "t": 167220.40986666657,
      "d": 213.23506666667527,
      "v": 122
    },
    {
      "midi": 36,
      "hit": false,
      "t": 167448.3507999999,
      "d": 205.8821333333326,
      "v": 122
    },
    {
      "midi": 64,
      "hit": false,
      "t": 167448.3507999999,
      "d": 2102.938933333353,
      "v": 122
    },
    {
      "midi": 36,
      "hit": false,
      "t": 167661.58586666657,
      "d": 1727.9393333333428,
      "v": 122
    },
    {
      "midi": 62,
      "hit": false,
      "t": 167661.58586666657,
      "d": 1867.6450666666788,
      "v": 122
    },
    {
      "midi": 55,
      "hit": false,
      "t": 167661.58586666657,
      "d": 1911.7626666666765,
      "v": 122
    },
    {
      "midi": 59,
      "hit": false,
      "t": 167661.58586666657,
      "d": 1911.7626666666765,
      "v": 122
    },
    {
      "midi": 36,
      "hit": false,
      "t": 169426.28986666657,
      "d": 867.6461333333573,
      "v": 122
    },
    {
      "midi": 60,
      "hit": false,
      "t": 169426.28986666657,
      "d": 1845.5862666666799,
      "v": 122
    },
    {
      "midi": 56,
      "hit": false,
      "t": 169426.28986666657,
      "d": 1911.7626666666765,
      "v": 122
    },
    {
      "midi": 62,
      "hit": false,
      "t": 170308.64186666658,
      "d": 213.23506666667527,
      "v": 122
    },
    {
      "midi": 64,
      "hit": false,
      "t": 170536.58279999992,
      "d": 205.8821333333326,
      "v": 122
    },
    {
      "midi": 65,
      "hit": false,
      "t": 170749.8178666666,
      "d": 213.23506666667527,
      "v": 122
    },
    {
      "midi": 36,
      "hit": false,
      "t": 170977.75879999992,
      "d": 205.8821333333326,
      "v": 122
    },
    {
      "midi": 64,
      "hit": false,
      "t": 170977.75879999992,
      "d": 558.8229333333147,
      "v": 122
    },
    {
      "midi": 36,
      "hit": false,
      "t": 171190.9938666666,
      "d": 1183.8222666666552,
      "v": 122
    },
    {
      "midi": 62,
      "hit": false,
      "t": 171190.9938666666,
      "d": 1749.9981333333126,
      "v": 122
    },
    {
      "midi": 59,
      "hit": false,
      "t": 171190.9938666666,
      "d": 1772.0569333333406,
      "v": 122
    },
    {
      "midi": 69,
      "hit": false,
      "t": 171418.9347999999,
      "d": 536.764133333345,
      "v": 122
    },
    {
      "midi": 67,
      "hit": false,
      "t": 171860.1107999999,
      "d": 1058.8224000000046,
      "v": 122
    },
    {
      "midi": 31,
      "hit": false,
      "t": 172301.2867999999,
      "d": 205.8821333333326,
      "v": 122
    },
    {
      "midi": 33,
      "hit": false,
      "t": 172514.5218666666,
      "d": 213.23506666667527,
      "v": 122
    },
    {
      "midi": 31,
      "hit": false,
      "t": 172742.46279999992,
      "d": 205.8821333333326,
      "v": 122
    },
    {
      "midi": 60,
      "hit": false,
      "t": 172955.6978666666,
      "d": 772.0580000000191,
      "v": 122
    },
    {
      "midi": 57,
      "hit": false,
      "t": 172955.6978666666,
      "d": 794.116800000018,
      "v": 122
    },
    {
      "midi": 36,
      "hit": false,
      "t": 172955.6978666666,
      "d": 1382.3514666666742,
      "v": 122
    },
    {
      "midi": 55,
      "hit": false,
      "t": 173624.81479999993,
      "d": 323.5290666666697,
      "v": 122
    },
    {
      "midi": 62,
      "hit": false,
      "t": 173838.0498666666,
      "d": 213.23506666667527,
      "v": 122
    },
    {
      "midi": 64,
      "hit": false,
      "t": 174065.99079999994,
      "d": 205.8821333333326,
      "v": 122
    },
    {
      "midi": 65,
      "hit": false,
      "t": 174279.22586666662,
      "d": 301.4702666666708,
      "v": 122
    },
    {
      "midi": 36,
      "hit": false,
      "t": 174507.16679999995,
      "d": 205.8821333333326,
      "v": 122
    },
    {
      "midi": 64,
      "hit": false,
      "t": 174507.16679999995,
      "d": 323.5290666666697,
      "v": 122
    },
    {
      "midi": 36,
      "hit": false,
      "t": 174720.40186666662,
      "d": 1727.9393333333137,
      "v": 122
    },
    {
      "midi": 55,
      "hit": false,
      "t": 174720.40186666662,
      "d": 1727.9393333333137,
      "v": 122
    },
    {
      "midi": 59,
      "hit": false,
      "t": 174720.40186666662,
      "d": 1727.9393333333137,
      "v": 122
    },
    {
      "midi": 62,
      "hit": false,
      "t": 174720.40186666662,
      "d": 1727.9393333333137,
      "v": 122
    },
    {
      "midi": 60,
      "hit": false,
      "t": 176485.1058666666,
      "d": 301.4702666666708,
      "v": 122
    },
    {
      "midi": 56,
      "hit": false,
      "t": 176485.1058666666,
      "d": 338.234933333355,
      "v": 122
    },
    {
      "midi": 36,
      "hit": false,
      "t": 176485.1058666666,
      "d": 1816.1745333333674,
      "v": 122
    },
    {
      "midi": 62,
      "hit": false,
      "t": 176529.2234666666,
      "d": 286.7644000000146,
      "v": 122
    },
    {
      "midi": 64,
      "hit": false,
      "t": 176713.04679999992,
      "d": 301.4702666666999,
      "v": 122
    },
    {
      "midi": 65,
      "hit": false,
      "t": 176926.28186666663,
      "d": 301.4702666666708,
      "v": 122
    },
    {
      "midi": 56,
      "hit": false,
      "t": 177154.22279999996,
      "d": 735.2933333333349,
      "v": 122
    },
    {
      "midi": 60,
      "hit": false,
      "t": 177154.22279999996,
      "d": 757.3521333333338,
      "v": 122
    },
    {
      "midi": 67,
      "hit": false,
      "t": 177154.22279999996,
      "d": 772.05799999999,
      "v": 122
    },
    {
      "midi": 62,
      "hit": false,
      "t": 177198.34039999996,
      "d": 713.234533333336,
      "v": 122
    },
    {
      "midi": 65,
      "hit": false,
      "t": 177808.63386666664,
      "d": 301.4702666666417,
      "v": 122
    },
    {
      "midi": 64,
      "hit": false,
      "t": 178036.57479999994,
      "d": 323.5290666666697,
      "v": 122
    },
    {
      "midi": 57,
      "hit": false,
      "t": 178249.80986666662,
      "d": 433.8230666666641,
      "v": 122
    },
    {
      "midi": 62,
      "hit": false,
      "t": 178249.80986666662,
      "d": 529.4112000000023,
      "v": 122
    },
    {
      "midi": 35,
      "hit": false,
      "t": 178249.80986666662,
      "d": 1022.0577333333495,
      "v": 122
    },
    {
      "midi": 64,
      "hit": false,
      "t": 178690.98586666663,
      "d": 301.4702666666708,
      "v": 122
    },
    {
      "midi": 67,
      "hit": false,
      "t": 178918.92679999996,
      "d": 757.3521333333629,
      "v": 122
    },
    {
      "midi": 56,
      "hit": false,
      "t": 179088.04426666663,
      "d": 477.94066666666185,
      "v": 122
    },
    {
      "midi": 58,
      "hit": false,
      "t": 179132.16186666663,
      "d": 433.8230666666641,
      "v": 122
    },
    {
      "midi": 62,
      "hit": false,
      "t": 179132.16186666663,
      "d": 588.2346666666854,
      "v": 122
    },
    {
      "midi": 40,
      "hit": false,
      "t": 179132.16186666663,
      "d": 926.4696000000113,
      "v": 122
    },
    {
      "midi": 64,
      "hit": false,
      "t": 179573.33786666664,
      "d": 213.23506666667527,
      "v": 122
    },
    {
      "midi": 62,
      "hit": false,
      "t": 179801.27879999997,
      "d": 205.8821333333326,
      "v": 122
    },
    {
      "midi": 55,
      "hit": false,
      "t": 180014.51386666665,
      "d": 433.8230666666641,
      "v": 122
    },
    {
      "midi": 60,
      "hit": false,
      "t": 180014.51386666665,
      "d": 433.8230666666641,
      "v": 122
    },
    {
      "midi": 33,
      "hit": false,
      "t": 180014.51386666665,
      "d": 999.9989333333506,
      "v": 122
    },
    {
      "midi": 62,
      "hit": false,
      "t": 180455.68986666665,
      "d": 301.4702666666708,
      "v": 122
    },
    {
      "midi": 74,
      "hit": false,
      "t": 180683.63079999998,
      "d": 794.1167999999889,
      "v": 122
    },
    {
      "midi": 65,
      "hit": false,
      "t": 180896.86586666666,
      "d": 529.4112000000023,
      "v": 122
    },
    {
      "midi": 60,
      "hit": false,
      "t": 180896.86586666666,
      "d": 566.1758666666574,
      "v": 122
    },
    {
      "midi": 38,
      "hit": false,
      "t": 180896.86586666666,
      "d": 1022.0577333333204,
      "v": 122
    },
    {
      "midi": 62,
      "hit": false,
      "t": 180940.98346666666,
      "d": 455.881866666663,
      "v": 122
    },
    {
      "midi": 72,
      "hit": false,
      "t": 181338.04186666667,
      "d": 323.5290666666406,
      "v": 122
    },
    {
      "midi": 71,
      "hit": false,
      "t": 181565.98279999997,
      "d": 558.8229333333147,
      "v": 122
    },
    {
      "midi": 43,
      "hit": false,
      "t": 181779.21786666664,
      "d": 286.76439999998547,
      "v": 122
    },
    {
      "midi": 50,
      "hit": false,
      "t": 182007.15879999998,
      "d": 257.3526666666439,
      "v": 122
    },
    {
      "midi": 59,
      "hit": false,
      "t": 182007.15879999998,
      "d": 301.4702666666417,
      "v": 122
    },
    {
      "midi": 67,
      "hit": false,
      "t": 182007.15879999998,
      "d": 1426.4690666666138,
      "v": 122
    },
    {
      "midi": 48,
      "hit": false,
      "t": 182220.39386666662,
      "d": 286.76439999998547,
      "v": 122
    },
    {
      "midi": 57,
      "hit": false,
      "t": 182220.39386666662,
      "d": 323.5290666666406,
      "v": 122
    },
    {
      "midi": 52,
      "hit": false,
      "t": 182448.33479999995,
      "d": 522.0582666666305,
      "v": 122
    },
    {
      "midi": 60,
      "hit": false,
      "t": 182448.33479999995,
      "d": 522.0582666666305,
      "v": 122
    },
    {
      "midi": 59,
      "hit": false,
      "t": 182889.51079999993,
      "d": 558.8229333333147,
      "v": 122
    },
    {
      "midi": 50,
      "hit": false,
      "t": 182889.51079999993,
      "d": 580.8817333333136,
      "v": 122
    },
    {
      "midi": 62,
      "hit": false,
      "t": 183330.6867999999,
      "d": 205.8821333333326,
      "v": 122
    },
    {
      "midi": 55,
      "hit": false,
      "t": 183543.92186666658,
      "d": 433.8230666666641,
      "v": 122
    },
    {
      "midi": 60,
      "hit": false,
      "t": 183543.92186666658,
      "d": 529.4112000000023,
      "v": 122
    },
    {
      "midi": 33,
      "hit": false,
      "t": 183543.92186666658,
      "d": 1058.8224000000337,
      "v": 122
    },
    {
      "midi": 62,
      "hit": false,
      "t": 183588.03946666658,
      "d": 389.7054666666663,
      "v": 122
    },
    {
      "midi": 62,
      "hit": false,
      "t": 183985.0978666666,
      "d": 213.23506666667527,
      "v": 122
    },
    {
      "midi": 74,
      "hit": false,
      "t": 184213.03879999992,
      "d": 360.2937333333539,
      "v": 122
    },
    {
      "midi": 60,
      "hit": false,
      "t": 184426.2738666666,
      "d": 551.4700000000012,
      "v": 122
    },
    {
      "midi": 66,
      "hit": false,
      "t": 184426.2738666666,
      "d": 551.4700000000012,
      "v": 122
    },
    {
      "midi": 38,
      "hit": false,
      "t": 184426.2738666666,
      "d": 1036.7636000000057,
      "v": 122
    },
    {
      "midi": 62,
      "hit": false,
      "t": 184470.3914666666,
      "d": 529.4112000000023,
      "v": 122
    },
    {
      "midi": 72,
      "hit": false,
      "t": 184867.4498666666,
      "d": 338.2349333333259,
      "v": 122
    },
    {
      "midi": 71,
      "hit": false,
      "t": 185095.39079999994,
      "d": 1904.4097333333339,
      "v": 122
    },
    {
      "midi": 43,
      "hit": false,
      "t": 185308.6258666666,
      "d": 1816.1745333333092,
      "v": 122
    },
    {
      "midi": 60,
      "hit": false,
      "t": 185977.74279999995,
      "d": 522.0582666666596,
      "v": 122
    },
    {
      "midi": 52,
      "hit": false,
      "t": 185977.74279999995,
      "d": 544.1170666666585,
      "v": 122
    },
    {
      "midi": 59,
      "hit": false,
      "t": 186418.91879999996,
      "d": 595.5875999999698,
      "v": 122
    },
    {
      "midi": 50,
      "hit": false,
      "t": 186418.91879999996,
      "d": 632.3522666666249,
      "v": 122
    },
    {
      "midi": 62,
      "hit": false,
      "t": 186860.09479999993,
      "d": 205.8821333333035,
      "v": 122
    },
    {
      "midi": 60,
      "hit": false,
      "t": 187073.32986666658,
      "d": 602.9405333333416,
      "v": 122
    },
    {
      "midi": 55,
      "hit": false,
      "t": 187073.32986666658,
      "d": 624.9993333333405,
      "v": 122
    },
    {
      "midi": 33,
      "hit": false,
      "t": 187073.32986666658,
      "d": 1022.0577333333495,
      "v": 122
    },
    {
      "midi": 62,
      "hit": false,
      "t": 187117.44746666658,
      "d": 389.7054666666663,
      "v": 122
    },
    {
      "midi": 62,
      "hit": false,
      "t": 187514.5058666666,
      "d": 301.4702666666708,
      "v": 122
    },
    {
      "midi": 74,
      "hit": false,
      "t": 187742.44679999992,
      "d": 323.5290666666697,
      "v": 122
    },
    {
      "midi": 66,
      "hit": false,
      "t": 187955.6818666666,
      "d": 566.1758666666865,
      "v": 122
    },
    {
      "midi": 60,
      "hit": false,
      "t": 187955.6818666666,
      "d": 624.9993333333696,
      "v": 122
    },
    {
      "midi": 38,
      "hit": false,
      "t": 187955.6818666666,
      "d": 1095.5870666666888,
      "v": 122
    },
    {
      "midi": 62,
      "hit": false,
      "t": 187999.7994666666,
      "d": 529.4112000000314,
      "v": 122
    },
    {
      "midi": 72,
      "hit": false,
      "t": 188396.8578666666,
      "d": 286.7644000000146,
      "v": 122
    },
    {
      "midi": 71,
      "hit": false,
      "t": 188624.79879999996,
      "d": 301.4702666666417,
      "v": 122
    },
    {
      "midi": 62,
      "hit": false,
      "t": 188838.0338666666,
      "d": 529.4112000000023,
      "v": 122
    },
    {
      "midi": 66,
      "hit": false,
      "t": 188838.0338666666,
      "d": 551.4700000000012,
      "v": 122
    },
    {
      "midi": 43,
      "hit": false,
      "t": 188838.0338666666,
      "d": 1132.3517333333439,
      "v": 122
    },
    {
      "midi": 69,
      "hit": false,
      "t": 189279.2098666666,
      "d": 286.76439999998547,
      "v": 122
    },
    {
      "midi": 74,
      "hit": false,
      "t": 189507.15079999994,
      "d": 360.2937333333248,
      "v": 122
    },
    {
      "midi": 36,
      "hit": false,
      "t": 189720.3858666666,
      "d": 433.8230666666932,
      "v": 122
    },
    {
      "midi": 70,
      "hit": false,
      "t": 189720.3858666666,
      "d": 507.3524000000325,
      "v": 122
    },
    {
      "midi": 65,
      "hit": false,
      "t": 189720.3858666666,
      "d": 529.4112000000314,
      "v": 122
    },
    {
      "midi": 62,
      "hit": false,
      "t": 189720.3858666666,
      "d": 551.4700000000303,
      "v": 122
    },
    {
      "midi": 72,
      "hit": false,
      "t": 190161.56186666663,
      "d": 301.4702666666708,
      "v": 122
    },
    {
      "midi": 69,
      "hit": false,
      "t": 190389.50279999996,
      "d": 757.3521333333629,
      "v": 122
    },
    {
      "midi": 64,
      "hit": false,
      "t": 190602.73786666663,
      "d": 794.116800000018,
      "v": 122
    },
    {
      "midi": 60,
      "hit": false,
      "t": 190602.73786666663,
      "d": 999.9989333333506,
      "v": 122
    },
    {
      "midi": 41,
      "hit": false,
      "t": 190602.73786666663,
      "d": 1022.0577333333495,
      "v": 122
    },
    {
      "midi": 67,
      "hit": false,
      "t": 191043.91386666664,
      "d": 286.7644000000146,
      "v": 122
    },
    {
      "midi": 72,
      "hit": false,
      "t": 191271.8548,
      "d": 205.8821333333035,
      "v": 122
    },
    {
      "midi": 68,
      "hit": false,
      "t": 191485.08986666665,
      "d": 433.8230666666641,
      "v": 122
    },
    {
      "midi": 63,
      "hit": false,
      "t": 191485.08986666665,
      "d": 999.9989333333506,
      "v": 122
    },
    {
      "midi": 34,
      "hit": false,
      "t": 191485.08986666665,
      "d": 1058.8224000000046,
      "v": 122
    },
    {
      "midi": 71,
      "hit": false,
      "t": 191926.26586666665,
      "d": 338.2349333333259,
      "v": 122
    },
    {
      "midi": 69,
      "hit": false,
      "t": 192154.20679999999,
      "d": 301.4702666666708,
      "v": 122
    },
    {
      "midi": 38,
      "hit": false,
      "t": 192367.44186666666,
      "d": 867.6461333333282,
      "v": 122
    },
    {
      "midi": 65,
      "hit": false,
      "t": 192367.44186666666,
      "d": 963.2342666666373,
      "v": 122
    },
    {
      "midi": 60,
      "hit": false,
      "t": 192367.44186666666,
      "d": 985.2930666666362,
      "v": 122
    },
    {
      "midi": 67,
      "hit": false,
      "t": 193249.79386666665,
      "d": 213.23506666664616,
      "v": 122
    },
    {
      "midi": 62,
      "hit": false,
      "t": 193249.79386666665,
      "d": 323.5290666666406,
      "v": 122
    },
    {
      "midi": 40,
      "hit": false,
      "t": 193249.79386666665,
      "d": 926.4696000000113,
      "v": 122
    },
    {
      "midi": 67,
      "hit": false,
      "t": 193477.73479999995,
      "d": 338.234933333355,
      "v": 122
    },
    {
      "midi": 69,
      "hit": false,
      "t": 193690.96986666662,
      "d": 323.5290666666988,
      "v": 122
    },
    {
      "midi": 72,
      "hit": false,
      "t": 193918.91079999998,
      "d": 205.8821333333326,
      "v": 122
    },
    {
      "midi": 77,
      "hit": false,
      "t": 194132.14586666666,
      "d": 433.8230666666641,
      "v": 122
    },
    {
      "midi": 69,
      "hit": false,
      "t": 194132.14586666666,
      "d": 794.116800000018,
      "v": 122
    },
    {
      "midi": 72,
      "hit": false,
      "t": 194132.14586666666,
      "d": 955.8813333333528,
      "v": 122
    },
    {
      "midi": 41,
      "hit": false,
      "t": 194132.14586666666,
      "d": 992.6460000000079,
      "v": 122
    },
    {
      "midi": 64,
      "hit": false,
      "t": 194132.14586666666,
      "d": 992.6460000000079,
      "v": 122
    },
    {
      "midi": 76,
      "hit": false,
      "t": 194573.32186666667,
      "d": 213.23506666667527,
      "v": 122
    },
    {
      "midi": 74,
      "hit": false,
      "t": 194801.2628,
      "d": 757.3521333333629,
      "v": 122
    },
    {
      "midi": 43,
      "hit": false,
      "t": 195014.49786666667,
      "d": 874.9990666666708,
      "v": 122
    },
    {
      "midi": 65,
      "hit": false,
      "t": 195014.49786666667,
      "d": 874.9990666666708,
      "v": 122
    },
    {
      "midi": 69,
      "hit": false,
      "t": 195014.49786666667,
      "d": 992.646000000037,
      "v": 122
    },
    {
      "midi": 72,
      "hit": false,
      "t": 195455.67386666668,
      "d": 213.23506666667527,
      "v": 122
    },
    {
      "midi": 72,
      "hit": false,
      "t": 195683.6148,
      "d": 316.1761333333561,
      "v": 122
    },
    {
      "midi": 65,
      "hit": false,
      "t": 195896.8498666667,
      "d": 279.411466666701,
      "v": 122
    },
    {
      "midi": 38,
      "hit": false,
      "t": 195896.8498666667,
      "d": 1088.2341333333752,
      "v": 122
    },
    {
      "midi": 64,
      "hit": false,
      "t": 196124.79080000005,
      "d": 272.05853333332925,
      "v": 122
    },
    {
      "midi": 62,
      "hit": false,
      "t": 196338.02586666672,
      "d": 279.4114666666719,
      "v": 122
    },
    {
      "midi": 65,
      "hit": false,
      "t": 196565.96680000005,
      "d": 205.8821333333326,
      "v": 122
    },
    {
      "midi": 65,
      "hit": false,
      "t": 196779.20186666673,
      "d": 294.11733333332813,
      "v": 122
    },
    {
      "midi": 64,
      "hit": false,
      "t": 197007.14280000006,
      "d": 448.5289333333494,
      "v": 122
    },
    {
      "midi": 40,
      "hit": false,
      "t": 197448.31880000007,
      "d": 205.8821333333326,
      "v": 122
    },
    {
      "midi": 62,
      "hit": false,
      "t": 197661.55386666674,
      "d": 492.6465333333472,
      "v": 122
    },
    {
      "midi": 67,
      "hit": false,
      "t": 197661.55386666674,
      "d": 492.6465333333472,
      "v": 122
    },
    {
      "midi": 71,
      "hit": false,
      "t": 197661.55386666674,
      "d": 558.8229333333438,
      "v": 122
    },
    {
      "midi": 40,
      "hit": false,
      "t": 197661.55386666674,
      "d": 1007.3518666666932,
      "v": 122
    },
    {
      "midi": 72,
      "hit": false,
      "t": 198102.72986666675,
      "d": 330.88200000001234,
      "v": 122
    },
    {
      "midi": 55,
      "hit": false,
      "t": 198330.67080000008,
      "d": 639.7052000000258,
      "v": 122
    },
    {
      "midi": 62,
      "hit": false,
      "t": 198330.67080000008,
      "d": 727.9404000000213,
      "v": 122
    },
    {
      "midi": 67,
      "hit": false,
      "t": 198330.67080000008,
      "d": 742.6462666666775,
      "v": 122
    },
    {
      "midi": 64,
      "hit": false,
      "t": 198985.08186666676,
      "d": 213.23506666667527,
      "v": 122
    },
    {
      "midi": 40,
      "hit": false,
      "t": 199213.0228000001,
      "d": 205.8821333333326,
      "v": 122
    },
    {
      "midi": 64,
      "hit": false,
      "t": 199213.0228000001,
      "d": 1036.7636000000057,
      "v": 122
    },
    {
      "midi": 69,
      "hit": false,
      "t": 199213.0228000001,
      "d": 1897.0567999999912,
      "v": 122
    },
    {
      "midi": 41,
      "hit": false,
      "t": 199426.25786666677,
      "d": 1044.1165333333192,
      "v": 122
    },
    {
      "midi": 62,
      "hit": false,
      "t": 200095.3748000001,
      "d": 573.5287999999709,
      "v": 122
    },
    {
      "midi": 64,
      "hit": false,
      "t": 200536.55080000008,
      "d": 536.764133333345,
      "v": 122
    },
    {
      "midi": 60,
      "hit": false,
      "t": 200977.7268000001,
      "d": 205.8821333333326,
      "v": 122
    },
    {
      "midi": 41,
      "hit": false,
      "t": 200977.7268000001,
      "d": 330.88200000001234,
      "v": 122
    },
    {
      "midi": 65,
      "hit": false,
      "t": 201190.96186666677,
      "d": 558.8229333333438,
      "v": 122
    },
    {
      "midi": 43,
      "hit": false,
      "t": 201190.96186666677,
      "d": 779.4109333333327,
      "v": 122
    },
    {
      "midi": 60,
      "hit": false,
      "t": 201190.96186666677,
      "d": 926.4696000000113,
      "v": 122
    },
    {
      "midi": 57,
      "hit": false,
      "t": 201190.96186666677,
      "d": 1022.0577333333495,
      "v": 122
    },
    {
      "midi": 64,
      "hit": false,
      "t": 201632.13786666677,
      "d": 345.58786666666856,
      "v": 122
    },
    {
      "midi": 62,
      "hit": false,
      "t": 201860.0788000001,
      "d": 779.4109333333618,
      "v": 122
    },
    {
      "midi": 44,
      "hit": false,
      "t": 202073.31386666678,
      "d": 1007.3518666666932,
      "v": 122
    },
    {
      "midi": 53,
      "hit": false,
      "t": 202073.31386666678,
      "d": 1022.0577333333495,
      "v": 122
    },
    {
      "midi": 59,
      "hit": false,
      "t": 202073.31386666678,
      "d": 1022.0577333333495,
      "v": 122
    },
    {
      "midi": 60,
      "hit": false,
      "t": 202514.4898666668,
      "d": 213.23506666667527,
      "v": 122
    },
    {
      "midi": 60,
      "hit": false,
      "t": 202742.43080000012,
      "d": 1191.175200000027,
      "v": 122
    },
    {
      "midi": 55,
      "hit": false,
      "t": 202955.6658666668,
      "d": 1007.3518666666932,
      "v": 122
    },
    {
      "midi": 45,
      "hit": false,
      "t": 202955.6658666668,
      "d": 1044.1165333333483,
      "v": 122
    },
    {
      "midi": 72,
      "hit": false,
      "t": 203838.0178666668,
      "d": 1007.3518666666932,
      "v": 122
    },
    {
      "midi": 64,
      "hit": false,
      "t": 203838.0178666668,
      "d": 1058.8224000000337,
      "v": 122
    },
    {
      "midi": 38,
      "hit": false,
      "t": 204507.13480000015,
      "d": 205.8821333333326,
      "v": 122
    },
    {
      "midi": 71,
      "hit": false,
      "t": 204720.36986666682,
      "d": 529.4112000000023,
      "v": 122
    },
    {
      "midi": 62,
      "hit": false,
      "t": 204720.36986666682,
      "d": 544.1170666666585,
      "v": 122
    },
    {
      "midi": 40,
      "hit": false,
      "t": 204720.36986666682,
      "d": 1044.1165333333192,
      "v": 122
    },
    {
      "midi": 72,
      "hit": false,
      "t": 205161.54586666683,
      "d": 316.176133333327,
      "v": 122
    },
    {
      "midi": 64,
      "hit": false,
      "t": 205161.54586666683,
      "d": 360.2937333333248,
      "v": 122
    },
    {
      "midi": 67,
      "hit": false,
      "t": 205389.48680000016,
      "d": 727.9403999999922,
      "v": 122
    },
    {
      "midi": 62,
      "hit": false,
      "t": 205389.48680000016,
      "d": 757.3521333333338,
      "v": 122
    },
    {
      "midi": 64,
      "hit": false,
      "t": 206043.8978666668,
      "d": 213.23506666667527,
      "v": 122
    },
    {
      "midi": 40,
      "hit": false,
      "t": 206271.83880000014,
      "d": 205.8821333333326,
      "v": 122
    },
    {
      "midi": 69,
      "hit": false,
      "t": 206271.83880000014,
      "d": 580.8817333333427,
      "v": 122
    },
    {
      "midi": 64,
      "hit": false,
      "t": 206271.83880000014,
      "d": 691.1757333333371,
      "v": 122
    },
    {
      "midi": 61,
      "hit": false,
      "t": 206271.83880000014,
      "d": 735.2933333333349,
      "v": 122
    },
    {
      "midi": 42,
      "hit": false,
      "t": 206485.07386666682,
      "d": 1911.7626666665892,
      "v": 122
    },
    {
      "midi": 69,
      "hit": false,
      "t": 206926.24986666683,
      "d": 213.23506666664616,
      "v": 122
    },
    {
      "midi": 69,
      "hit": false,
      "t": 207154.19080000013,
      "d": 639.7051999999967,
      "v": 122
    },
    {
      "midi": 61,
      "hit": false,
      "t": 207154.19080000013,
      "d": 735.2933333333058,
      "v": 122
    },
    {
      "midi": 64,
      "hit": false,
      "t": 207154.19080000013,
      "d": 830.881466666644,
      "v": 122
    },
    {
      "midi": 69,
      "hit": false,
      "t": 207808.60186666678,
      "d": 213.23506666664616,
      "v": 122
    },
    {
      "midi": 69,
      "hit": false,
      "t": 208036.54280000008,
      "d": 323.5290666666697,
      "v": 122
    },
    {
      "midi": 59,
      "hit": false,
      "t": 208249.77786666676,
      "d": 794.1167999999889,
      "v": 122
    },
    {
      "midi": 63,
      "hit": false,
      "t": 208249.77786666676,
      "d": 999.9989333333215,
      "v": 122
    },
    {
      "midi": 35,
      "hit": false,
      "t": 208249.77786666676,
      "d": 1058.8223999999755,
      "v": 122
    },
    {
      "midi": 69,
      "hit": false,
      "t": 208690.95386666674,
      "d": 213.23506666667527,
      "v": 122
    },
    {
      "midi": 71,
      "hit": false,
      "t": 208918.89480000007,
      "d": 757.3521333333338,
      "v": 122
    },
    {
      "midi": 66,
      "hit": false,
      "t": 209132.12986666674,
      "d": 889.7049333333562,
      "v": 122
    },
    {
      "midi": 39,
      "hit": false,
      "t": 209132.12986666674,
      "d": 985.2930666666944,
      "v": 122
    },
    {
      "midi": 59,
      "hit": false,
      "t": 209132.12986666674,
      "d": 985.2930666666944,
      "v": 122
    },
    {
      "midi": 69,
      "hit": false,
      "t": 209573.30586666672,
      "d": 323.5290666666988,
      "v": 122
    },
    {
      "midi": 67,
      "hit": false,
      "t": 209801.24680000008,
      "d": 772.0580000000191,
      "v": 122
    },
    {
      "midi": 62,
      "hit": false,
      "t": 210014.48186666676,
      "d": 551.4700000000012,
      "v": 122
    },
    {
      "midi": 40,
      "hit": false,
      "t": 210014.48186666676,
      "d": 948.5284000000102,
      "v": 122
    },
    {
      "midi": 47,
      "hit": false,
      "t": 210014.48186666676,
      "d": 1058.8224000000046,
      "v": 122
    },
    {
      "midi": 71,
      "hit": false,
      "t": 210455.65786666676,
      "d": 338.2349333333259,
      "v": 122
    },
    {
      "midi": 60,
      "hit": false,
      "t": 210683.5988000001,
      "d": 772.05799999999,
      "v": 122
    },
    {
      "midi": 45,
      "hit": false,
      "t": 210896.83386666677,
      "d": 985.2930666666653,
      "v": 122
    },
    {
      "midi": 52,
      "hit": false,
      "t": 210896.83386666677,
      "d": 1022.0577333333204,
      "v": 122
    },
    {
      "midi": 55,
      "hit": false,
      "t": 210896.83386666677,
      "d": 1073.5282666666608,
      "v": 122
    },
    {
      "midi": 60,
      "hit": false,
      "t": 211565.95080000008,
      "d": 205.8821333333326,
      "v": 122
    },
    {
      "midi": 60,
      "hit": false,
      "t": 211779.18586666675,
      "d": 551.4700000000012,
      "v": 122
    },
    {
      "midi": 65,
      "hit": false,
      "t": 211779.18586666675,
      "d": 602.9405333333416,
      "v": 122
    },
    {
      "midi": 38,
      "hit": false,
      "t": 211779.18586666675,
      "d": 963.2342666666664,
      "v": 122
    },
    {
      "midi": 57,
      "hit": false,
      "t": 211779.18586666675,
      "d": 1058.8224000000046,
      "v": 122
    },
    {
      "midi": 64,
      "hit": false,
      "t": 212220.36186666676,
      "d": 338.2349333333259,
      "v": 122
    },
    {
      "midi": 62,
      "hit": false,
      "t": 212448.3028000001,
      "d": 772.05799999999,
      "v": 122
    },
    {
      "midi": 43,
      "hit": false,
      "t": 212661.53786666677,
      "d": 867.6461333333282,
      "v": 122
    },
    {
      "midi": 53,
      "hit": false,
      "t": 212661.53786666677,
      "d": 889.7049333333271,
      "v": 122
    },
    {
      "midi": 59,
      "hit": false,
      "t": 212661.53786666677,
      "d": 889.7049333333271,
      "v": 122
    },
    {
      "midi": 57,
      "hit": false,
      "t": 213543.88986666675,
      "d": 867.6461333333282,
      "v": 122
    },
    {
      "midi": 60,
      "hit": false,
      "t": 213543.88986666675,
      "d": 867.6461333333282,
      "v": 122
    },
    {
      "midi": 52,
      "hit": false,
      "t": 213543.88986666675,
      "d": 999.9989333333215,
      "v": 122
    },
    {
      "midi": 36,
      "hit": false,
      "t": 213543.88986666675,
      "d": 1323.5279999999912,
      "v": 122
    },
    {
      "midi": 60,
      "hit": false,
      "t": 214426.24186666674,
      "d": 985.2930666666653,
      "v": 122
    },
    {
      "midi": 56,
      "hit": false,
      "t": 214426.24186666674,
      "d": 1036.7636000000057,
      "v": 122
    },
    {
      "midi": 65,
      "hit": false,
      "t": 214426.24186666674,
      "d": 1095.5870666666597,
      "v": 122
    },
    {
      "midi": 62,
      "hit": false,
      "t": 214470.35946666673,
      "d": 720.5874666666787,
      "v": 122
    },
    {
      "midi": 36,
      "hit": false,
      "t": 215095.35880000007,
      "d": 205.8821333333326,
      "v": 122
    },
    {
      "midi": 36,
      "hit": false,
      "t": 215308.59386666675,
      "d": 1727.9393333333137,
      "v": 122
    },
    {
      "midi": 62,
      "hit": false,
      "t": 215308.59386666675,
      "d": 1727.9393333333137,
      "v": 122
    },
    {
      "midi": 55,
      "hit": false,
      "t": 215308.59386666675,
      "d": 1889.7038666666194,
      "v": 122
    },
    {
      "midi": 59,
      "hit": false,
      "t": 215308.59386666675,
      "d": 1911.7626666666183,
      "v": 122
    },
    {
      "midi": 64,
      "hit": false,
      "t": 215352.71146666675,
      "d": 1683.821733333316,
      "v": 122
    },
    {
      "midi": 65,
      "hit": false,
      "t": 217073.29786666672,
      "d": 1022.0577333333204,
      "v": 122
    },
    {
      "midi": 56,
      "hit": false,
      "t": 217073.29786666672,
      "d": 1058.8223999999755,
      "v": 122
    },
    {
      "midi": 60,
      "hit": false,
      "t": 217073.29786666672,
      "d": 1058.8223999999755,
      "v": 122
    },
    {
      "midi": 36,
      "hit": false,
      "t": 217073.29786666672,
      "d": 1382.3514666666451,
      "v": 122
    },
    {
      "midi": 62,
      "hit": false,
      "t": 217117.41546666672,
      "d": 926.4695999999822,
      "v": 122
    },
    {
      "midi": 68,
      "hit": false,
      "t": 217955.6498666667,
      "d": 1022.0577333333495,
      "v": 122
    },
    {
      "midi": 36,
      "hit": false,
      "t": 218624.76680000004,
      "d": 1522.0572000000102,
      "v": 122
    },
    {
      "midi": 59,
      "hit": false,
      "t": 218838.00186666672,
      "d": 1735.2922666666855,
      "v": 122
    },
    {
      "midi": 67,
      "hit": false,
      "t": 218838.00186666672,
      "d": 1735.2922666666855,
      "v": 122
    },
    {
      "midi": 62,
      "hit": false,
      "t": 218838.00186666672,
      "d": 1757.3510666666843,
      "v": 122
    },
    {
      "midi": 64,
      "hit": false,
      "t": 218882.1194666667,
      "d": 1661.7629333333462,
      "v": 122
    }
  ]
}