{
  "jsonPath": "Rap/Rap Cristiano/Lara/baila-mi-ritmo.json",
  "path": "Rap\\Rap Cristiano\\Lara\\Baila Mi Ritmo.mid",
  "name": "Baila Mi Ritmo",
  "difficulty": "Advanced",
  "bpm": 120,
  "notes": [
    {
      "midi": 39,
      "hit": false,
      "t": 4000,
      "d": 4000,
      "v": 113
    },
    {
      "midi": 58,
      "hit": false,
      "t": 4000,
      "d": 4000,
      "v": 113
    },
    {
      "midi": 61,
      "hit": false,
      "t": 4000,
      "d": 4000,
      "v": 113
    },
    {
      "midi": 63,
      "hit": false,
      "t": 4000,
      "d": 4000,
      "v": 113
    },
    {
      "midi": 66,
      "hit": false,
      "t": 4000,
      "d": 4000,
      "v": 113
    },
    {
      "midi": 39,
      "hit": false,
      "t": 8000,
      "d": 2000,
      "v": 113
    },
    {
      "midi": 58,
      "hit": false,
      "t": 8000,
      "d": 2000,
      "v": 113
    },
    {
      "midi": 61,
      "hit": false,
      "t": 8000,
      "d": 2000,
      "v": 113
    },
    {
      "midi": 63,
      "hit": false,
      "t": 8000,
      "d": 2000,
      "v": 113
    },
    {
      "midi": 66,
      "hit": false,
      "t": 8000,
      "d": 2000,
      "v": 113
    },
    {
      "midi": 37,
      "hit": false,
      "t": 10000,
      "d": 2000,
      "v": 113
    },
    {
      "midi": 59,
      "hit": false,
      "t": 10000,
      "d": 2000,
      "v": 113
    },
    {
      "midi": 61,
      "hit": false,
      "t": 10000,
      "d": 2000,
      "v": 113
    },
    {
      "midi": 63,
      "hit": false,
      "t": 10000,
      "d": 2000,
      "v": 113
    },
    {
      "midi": 65,
      "hit": false,
      "t": 10000,
      "d": 2000,
      "v": 113
    },
    {
      "midi": 44,
      "hit": false,
      "t": 12000,
      "d": 4000,
      "v": 113
    },
    {
      "midi": 56,
      "hit": false,
      "t": 12000,
      "d": 4000,
      "v": 113
    },
    {
      "midi": 59,
      "hit": false,
      "t": 12000,
      "d": 4000,
      "v": 113
    },
    {
      "midi": 63,
      "hit": false,
      "t": 12000,
      "d": 4000,
      "v": 113
    },
    {
      "midi": 68,
      "hit": false,
      "t": 12000,
      "d": 4000,
      "v": 113
    },
    {
      "midi": 46,
      "hit": false,
      "t": 16000,
      "d": 2000,
      "v": 113
    },
    {
      "midi": 58,
      "hit": false,
      "t": 16000,
      "d": 2000,
      "v": 113
    },
    {
      "midi": 62,
      "hit": false,
      "t": 16000,
      "d": 2000,
      "v": 113
    },
    {
      "midi": 65,
      "hit": false,
      "t": 16000,
      "d": 2000,
      "v": 113
    },
    {
      "midi": 70,
      "hit": false,
      "t": 16000,
      "d": 2000,
      "v": 113
    },
    {
      "midi": 39,
      "hit": false,
      "t": 18000,
      "d": 2000,
      "v": 113
    },
    {
      "midi": 58,
      "hit": false,
      "t": 18000,
      "d": 2000,
      "v": 113
    },
    {
      "midi": 61,
      "hit": false,
      "t": 18000,
      "d": 2000,
      "v": 113
    },
    {
      "midi": 63,
      "hit": false,
      "t": 18000,
      "d": 2000,
      "v": 113
    },
    {
      "midi": 66,
      "hit": false,
      "t": 18000,
      "d": 2000,
      "v": 113
    },
    {
      "midi": 39,
      "hit": false,
      "t": 20000,
      "d": 4000,
      "v": 113
    },
    {
      "midi": 58,
      "hit": false,
      "t": 20000,
      "d": 4000,
      "v": 113
    },
    {
      "midi": 61,
      "hit": false,
      "t": 20000,
      "d": 4000,
      "v": 113
    },
    {
      "midi": 63,
      "hit": false,
      "t": 20000,
      "d": 4000,
      "v": 113
    },
    {
      "midi": 66,
      "hit": false,
      "t": 20000,
      "d": 4000,
      "v": 113
    },
    {
      "midi": 39,
      "hit": false,
      "t": 24000,
      "d": 2000,
      "v": 113
    },
    {
      "midi": 58,
      "hit": false,
      "t": 24000,
      "d": 2000,
      "v": 113
    },
    {
      "midi": 61,
      "hit": false,
      "t": 24000,
      "d": 2000,
      "v": 113
    },
    {
      "midi": 63,
      "hit": false,
      "t": 24000,
      "d": 2000,
      "v": 113
    },
    {
      "midi": 66,
      "hit": false,
      "t": 24000,
      "d": 2000,
      "v": 113
    },
    {
      "midi": 37,
      "hit": false,
      "t": 26000,
      "d": 2000,
      "v": 113
    },
    {
      "midi": 59,
      "hit": false,
      "t": 26000,
      "d": 2000,
      "v": 113
    },
    {
      "midi": 61,
      "hit": false,
      "t": 26000,
      "d": 2000,
      "v": 113
    },
    {
      "midi": 63,
      "hit": false,
      "t": 26000,
      "d": 2000,
      "v": 113
    },
    {
      "midi": 65,
      "hit": false,
      "t": 26000,
      "d": 2000,
      "v": 113
    },
    {
      "midi": 44,
      "hit": false,
      "t": 28000,
      "d": 4000,
      "v": 113
    },
    {
      "midi": 56,
      "hit": false,
      "t": 28000,
      "d": 4000,
      "v": 113
    },
    {
      "midi": 59,
      "hit": false,
      "t": 28000,
      "d": 4000,
      "v": 113
    },
    {
      "midi": 63,
      "hit": false,
      "t": 28000,
      "d": 4000,
      "v": 113
    },
    {
      "midi": 68,
      "hit": false,
      "t": 28000,
      "d": 4000,
      "v": 113
    },
    {
      "midi": 46,
      "hit": false,
      "t": 32000,
      "d": 2000,
      "v": 113
    },
    {
      "midi": 58,
      "hit": false,
      "t": 32000,
      "d": 2000,
      "v": 113
    },
    {
      "midi": 62,
      "hit": false,
      "t": 32000,
      "d": 2000,
      "v": 113
    },
    {
      "midi": 65,
      "hit": false,
      "t": 32000,
      "d": 2000,
      "v": 113
    },
    {
      "midi": 70,
      "hit": false,
      "t": 32000,
      "d": 2000,
      "v": 113
    },
    {
      "midi": 39,
      "hit": false,
      "t": 34000,
      "d": 2000,
      "v": 113
    },
    {
      "midi": 58,
      "hit": false,
      "t": 34000,
      "d": 2000,
      "v": 113
    },
    {
      "midi": 61,
      "hit": false,
      "t": 34000,
      "d": 2000,
      "v": 113
    },
    {
      "midi": 63,
      "hit": false,
      "t": 34000,
      "d": 2000,
      "v": 113
    },
    {
      "midi": 66,
      "hit": false,
      "t": 34000,
      "d": 2000,
      "v": 113
    },
    {
      "midi": 59,
      "hit": false,
      "t": 36000,
      "d": 2000,
      "v": 113
    },
    {
      "midi": 61,
      "hit": false,
      "t": 36000,
      "d": 2000,
      "v": 113
    },
    {
      "midi": 63,
      "hit": false,
      "t": 36000,
      "d": 2000,
      "v": 113
    },
    {
      "midi": 66,
      "hit": false,
      "t": 36000,
      "d": 2000,
      "v": 113
    },
    {
      "midi": 61,
      "hit": false,
      "t": 38000,
      "d": 2000,
      "v": 113
    },
    {
      "midi": 63,
      "hit": false,
      "t": 38000,
      "d": 2000,
      "v": 113
    },
    {
      "midi": 65,
      "hit": false,
      "t": 38000,
      "d": 2000,
      "v": 113
    },
    {
      "midi": 68,
      "hit": false,
      "t": 38000,
      "d": 2000,
      "v": 113
    },
    {
      "midi": 63,
      "hit": false,
      "t": 40000,
      "d": 2000,
      "v": 113
    },
    {
      "midi": 66,
      "hit": false,
      "t": 40000,
      "d": 2000,
      "v": 113
    },
    {
      "midi": 70,
      "hit": false,
      "t": 40000,
      "d": 2000,
      "v": 113
    },
    {
      "midi": 61,
      "hit": false,
      "t": 42000,
      "d": 2000,
      "v": 113
    },
    {
      "midi": 65,
      "hit": false,
      "t": 42000,
      "d": 2000,
      "v": 113
    },
    {
      "midi": 68,
      "hit": false,
      "t": 42000,
      "d": 2000,
      "v": 113
    },
    {
      "midi": 73,
      "hit": false,
      "t": 42000,
      "d": 2000,
      "v": 113
    },
    {
      "midi": 59,
      "hit": false,
      "t": 44000,
      "d": 2000,
      "v": 113
    },
    {
      "midi": 61,
      "hit": false,
      "t": 44000,
      "d": 2000,
      "v": 113
    },
    {
      "midi": 63,
      "hit": false,
      "t": 44000,
      "d": 2000,
      "v": 113
    },
    {
      "midi": 66,
      "hit": false,
      "t": 44000,
      "d": 2000,
      "v": 113
    },
    {
      "midi": 61,
      "hit": false,
      "t": 46000,
      "d": 2000,
      "v": 113
    },
    {
      "midi": 63,
      "hit": false,
      "t": 46000,
      "d": 2000,
      "v": 113
    },
    {
      "midi": 65,
      "hit": false,
      "t": 46000,
      "d": 2000,
      "v": 113
    },
    {
      "midi": 68,
      "hit": false,
      "t": 46000,
      "d": 2000,
      "v": 113
    },
    {
      "midi": 63,
      "hit": false,
      "t": 48000,
      "d": 2000,
      "v": 113
    },
    {
      "midi": 66,
      "hit": false,
      "t": 48000,
      "d": 2000,
      "v": 113
    },
    {
      "midi": 70,
      "hit": false,
      "t": 48000,
      "d": 2000,
      "v": 113
    },
    {
      "midi": 61,
      "hit": false,
      "t": 50000,
      "d": 4000,
      "v": 113
    },
    {
      "midi": 65,
      "hit": false,
      "t": 50000,
      "d": 4000,
      "v": 113
    },
    {
      "midi": 68,
      "hit": false,
      "t": 50000,
      "d": 4000,
      "v": 113
    },
    {
      "midi": 73,
      "hit": false,
      "t": 50000,
      "d": 4000,
      "v": 113
    },
    {
      "midi": 61,
      "hit": false,
      "t": 54000,
      "d": 2000,
      "v": 111
    },
    {
      "midi": 63,
      "hit": false,
      "t": 54000,
      "d": 2000,
      "v": 111
    },
    {
      "midi": 66,
      "hit": false,
      "t": 54000,
      "d": 2000,
      "v": 111
    },
    {
      "midi": 70,
      "hit": false,
      "t": 54000,
      "d": 2000,
      "v": 111
    },
    {
      "midi": 58,
      "hit": false,
      "t": 56000,
      "d": 2000,
      "v": 111
    },
    {
      "midi": 61,
      "hit": false,
      "t": 56000,
      "d": 2000,
      "v": 111
    },
    {
      "midi": 65,
      "hit": false,
      "t": 56000,
      "d": 2000,
      "v": 111
    },
    {
      "midi": 68,
      "hit": false,
      "t": 56000,
      "d": 2000,
      "v": 111
    },
    {
      "midi": 59,
      "hit": false,
      "t": 58000,
      "d": 2000,
      "v": 111
    },
    {
      "midi": 61,
      "hit": false,
      "t": 58000,
      "d": 2000,
      "v": 111
    },
    {
      "midi": 63,
      "hit": false,
      "t": 58000,
      "d": 2000,
      "v": 111
    },
    {
      "midi": 66,
      "hit": false,
      "t": 58000,
      "d": 2000,
      "v": 111
    },
    {
      "midi": 56,
      "hit": false,
      "t": 60000,
      "d": 1500,
      "v": 111
    },
    {
      "midi": 58,
      "hit": false,
      "t": 60000,
      "d": 1500,
      "v": 111
    },
    {
      "midi": 62,
      "hit": false,
      "t": 60000,
      "d": 1500,
      "v": 111
    },
    {
      "midi": 65,
      "hit": false,
      "t": 60000,
      "d": 1500,
      "v": 111
    },
    {
      "midi": 56,
      "hit": false,
      "t": 61500,
      "d": 500,
      "v": 111
    },
    {
      "midi": 58,
      "hit": false,
      "t": 61500,
      "d": 500,
      "v": 111
    },
    {
      "midi": 62,
      "hit": false,
      "t": 61500,
      "d": 500,
      "v": 111
    },
    {
      "midi": 65,
      "hit": false,
      "t": 61500,
      "d": 500,
      "v": 111
    },
    {
      "midi": 61,
      "hit": false,
      "t": 62000,
      "d": 2000,
      "v": 111
    },
    {
      "midi": 63,
      "hit": false,
      "t": 62000,
      "d": 2000,
      "v": 111
    },
    {
      "midi": 66,
      "hit": false,
      "t": 62000,
      "d": 2000,
      "v": 111
    },
    {
      "midi": 70,
      "hit": false,
      "t": 62000,
      "d": 2000,
      "v": 111
    },
    {
      "midi": 58,
      "hit": false,
      "t": 64000,
      "d": 2000,
      "v": 111
    },
    {
      "midi": 61,
      "hit": false,
      "t": 64000,
      "d": 2000,
      "v": 111
    },
    {
      "midi": 65,
      "hit": false,
      "t": 64000,
      "d": 2000,
      "v": 111
    },
    {
      "midi": 68,
      "hit": false,
      "t": 64000,
      "d": 2000,
      "v": 111
    },
    {
      "midi": 59,
      "hit": false,
      "t": 66000,
      "d": 2000,
      "v": 111
    },
    {
      "midi": 61,
      "hit": false,
      "t": 66000,
      "d": 2000,
      "v": 111
    },
    {
      "midi": 63,
      "hit": false,
      "t": 66000,
      "d": 2000,
      "v": 111
    },
    {
      "midi": 66,
      "hit": false,
      "t": 66000,
      "d": 2000,
      "v": 111
    },
    {
      "midi": 56,
      "hit": false,
      "t": 68000,
      "d": 2000,
      "v": 111
    },
    {
      "midi": 61,
      "hit": false,
      "t": 68000,
      "d": 2000,
      "v": 111
    },
    {
      "midi": 65,
      "hit": false,
      "t": 68000,
      "d": 2000,
      "v": 111
    },
    {
      "midi": 68,
      "hit": false,
      "t": 68000,
      "d": 2000,
      "v": 111
    },
    {
      "midi": 61,
      "hit": false,
      "t": 70000,
      "d": 2000,
      "v": 111
    },
    {
      "midi": 63,
      "hit": false,
      "t": 70000,
      "d": 2000,
      "v": 111
    },
    {
      "midi": 66,
      "hit": false,
      "t": 70000,
      "d": 2000,
      "v": 111
    },
    {
      "midi": 70,
      "hit": false,
      "t": 70000,
      "d": 2000,
      "v": 111
    },
    {
      "midi": 58,
      "hit": false,
      "t": 72000,
      "d": 2000,
      "v": 111
    },
    {
      "midi": 61,
      "hit": false,
      "t": 72000,
      "d": 2000,
      "v": 111
    },
    {
      "midi": 65,
      "hit": false,
      "t": 72000,
      "d": 2000,
      "v": 111
    },
    {
      "midi": 68,
      "hit": false,
      "t": 72000,
      "d": 2000,
      "v": 111
    },
    {
      "midi": 59,
      "hit": false,
      "t": 74000,
      "d": 2000,
      "v": 111
    },
    {
      "midi": 61,
      "hit": false,
      "t": 74000,
      "d": 2000,
      "v": 111
    },
    {
      "midi": 63,
      "hit": false,
      "t": 74000,
      "d": 2000,
      "v": 111
    },
    {
      "midi": 66,
      "hit": false,
      "t": 74000,
      "d": 2000,
      "v": 111
    },
    {
      "midi": 56,
      "hit": false,
      "t": 76000,
      "d": 1500,
      "v": 111
    },
    {
      "midi": 58,
      "hit": false,
      "t": 76000,
      "d": 1500,
      "v": 111
    },
    {
      "midi": 62,
      "hit": false,
      "t": 76000,
      "d": 1500,
      "v": 111
    },
    {
      "midi": 65,
      "hit": false,
      "t": 76000,
      "d": 1500,
      "v": 111
    },
    {
      "midi": 56,
      "hit": false,
      "t": 77500,
      "d": 500,
      "v": 111
    },
    {
      "midi": 58,
      "hit": false,
      "t": 77500,
      "d": 500,
      "v": 111
    },
    {
      "midi": 62,
      "hit": false,
      "t": 77500,
      "d": 500,
      "v": 111
    },
    {
      "midi": 65,
      "hit": false,
      "t": 77500,
      "d": 500,
      "v": 111
    },
    {
      "midi": 61,
      "hit": false,
      "t": 78000,
      "d": 2000,
      "v": 111
    },
    {
      "midi": 63,
      "hit": false,
      "t": 78000,
      "d": 2000,
      "v": 111
    },
    {
      "midi": 66,
      "hit": false,
      "t": 78000,
      "d": 2000,
      "v": 111
    },
    {
      "midi": 70,
      "hit": false,
      "t": 78000,
      "d": 2000,
      "v": 111
    },
    {
      "midi": 58,
      "hit": false,
      "t": 80000,
      "d": 2000,
      "v": 111
    },
    {
      "midi": 61,
      "hit": false,
      "t": 80000,
      "d": 2000,
      "v": 111
    },
    {
      "midi": 65,
      "hit": false,
      "t": 80000,
      "d": 2000,
      "v": 111
    },
    {
      "midi": 68,
      "hit": false,
      "t": 80000,
      "d": 2000,
      "v": 111
    },
    {
      "midi": 59,
      "hit": false,
      "t": 82000,
      "d": 2000,
      "v": 111
    },
    {
      "midi": 61,
      "hit": false,
      "t": 82000,
      "d": 2000,
      "v": 111
    },
    {
      "midi": 63,
      "hit": false,
      "t": 82000,
      "d": 2000,
      "v": 111
    },
    {
      "midi": 66,
      "hit": false,
      "t": 82000,
      "d": 2000,
      "v": 111
    },
    {
      "midi": 56,
      "hit": false,
      "t": 84000,
      "d": 2000,
      "v": 111
    },
    {
      "midi": 61,
      "hit": false,
      "t": 84000,
      "d": 2000,
      "v": 111
    },
    {
      "midi": 65,
      "hit": false,
      "t": 84000,
      "d": 2000,
      "v": 111
    },
    {
      "midi": 68,
      "hit": false,
      "t": 84000,
      "d": 2000,
      "v": 111
    },
    {
      "midi": 58,
      "hit": false,
      "t": 88000,
      "d": 4000,
      "v": 113
    },
    {
      "midi": 61,
      "hit": false,
      "t": 88000,
      "d": 4000,
      "v": 113
    },
    {
      "midi": 63,
      "hit": false,
      "t": 88000,
      "d": 4000,
      "v": 113
    },
    {
      "midi": 66,
      "hit": false,
      "t": 88000,
      "d": 4000,
      "v": 113
    },
    {
      "midi": 58,
      "hit": false,
      "t": 92000,
      "d": 2000,
      "v": 113
    },
    {
      "midi": 61,
      "hit": false,
      "t": 92000,
      "d": 2000,
      "v": 113
    },
    {
      "midi": 63,
      "hit": false,
      "t": 92000,
      "d": 2000,
      "v": 113
    },
    {
      "midi": 66,
      "hit": false,
      "t": 92000,
      "d": 2000,
      "v": 113
    },
    {
      "midi": 59,
      "hit": false,
      "t": 94000,
      "d": 2000,
      "v": 113
    },
    {
      "midi": 61,
      "hit": false,
      "t": 94000,
      "d": 2000,
      "v": 113
    },
    {
      "midi": 63,
      "hit": false,
      "t": 94000,
      "d": 2000,
      "v": 113
    },
    {
      "midi": 65,
      "hit": false,
      "t": 94000,
      "d": 2000,
      "v": 113
    },
    {
      "midi": 56,
      "hit": false,
      "t": 96000,
      "d": 4000,
      "v": 113
    },
    {
      "midi": 59,
      "hit": false,
      "t": 96000,
      "d": 4000,
      "v": 113
    },
    {
      "midi": 63,
      "hit": false,
      "t": 96000,
      "d": 4000,
      "v": 113
    },
    {
      "midi": 68,
      "hit": false,
      "t": 96000,
      "d": 4000,
      "v": 113
    },
    {
      "midi": 58,
      "hit": false,
      "t": 100000,
      "d": 2000,
      "v": 113
    },
    {
      "midi": 62,
      "hit": false,
      "t": 100000,
      "d": 2000,
      "v": 113
    },
    {
      "midi": 65,
      "hit": false,
      "t": 100000,
      "d": 2000,
      "v": 113
    },
    {
      "midi": 70,
      "hit": false,
      "t": 100000,
      "d": 2000,
      "v": 113
    },
    {
      "midi": 58,
      "hit": false,
      "t": 102000,
      "d": 2000,
      "v": 113
    },
    {
      "midi": 61,
      "hit": false,
      "t": 102000,
      "d": 2000,
      "v": 113
    },
    {
      "midi": 63,
      "hit": false,
      "t": 102000,
      "d": 2000,
      "v": 113
    },
    {
      "midi": 66,
      "hit": false,
      "t": 102000,
      "d": 2000,
      "v": 113
    },
    {
      "midi": 58,
      "hit": false,
      "t": 104000,
      "d": 4000,
      "v": 113
    },
    {
      "midi": 61,
      "hit": false,
      "t": 104000,
      "d": 4000,
      "v": 113
    },
    {
      "midi": 63,
      "hit": false,
      "t": 104000,
      "d": 4000,
      "v": 113
    },
    {
      "midi": 66,
      "hit": false,
      "t": 104000,
      "d": 4000,
      "v": 113
    },
    {
      "midi": 58,
      "hit": false,
      "t": 108000,
      "d": 2000,
      "v": 113
    },
    {
      "midi": 61,
      "hit": false,
      "t": 108000,
      "d": 2000,
      "v": 113
    },
    {
      "midi": 63,
      "hit": false,
      "t": 108000,
      "d": 2000,
      "v": 113
    },
    {
      "midi": 66,
      "hit": false,
      "t": 108000,
      "d": 2000,
      "v": 113
    },
    {
      "midi": 59,
      "hit": false,
      "t": 110000,
      "d": 2000,
      "v": 113
    },
    {
      "midi": 61,
      "hit": false,
      "t": 110000,
      "d": 2000,
      "v": 113
    },
    {
      "midi": 63,
      "hit": false,
      "t": 110000,
      "d": 2000,
      "v": 113
    },
    {
      "midi": 65,
      "hit": false,
      "t": 110000,
      "d": 2000,
      "v": 113
    },
    {
      "midi": 56,
      "hit": false,
      "t": 112000,
      "d": 4000,
      "v": 113
    },
    {
      "midi": 59,
      "hit": false,
      "t": 112000,
      "d": 4000,
      "v": 113
    },
    {
      "midi": 63,
      "hit": false,
      "t": 112000,
      "d": 4000,
      "v": 113
    },
    {
      "midi": 68,
      "hit": false,
      "t": 112000,
      "d": 4000,
      "v": 113
    },
    {
      "midi": 58,
      "hit": false,
      "t": 116000,
      "d": 2000,
      "v": 113
    },
    {
      "midi": 62,
      "hit": false,
      "t": 116000,
      "d": 2000,
      "v": 113
    },
    {
      "midi": 65,
      "hit": false,
      "t": 116000,
      "d": 2000,
      "v": 113
    },
    {
      "midi": 70,
      "hit": false,
      "t": 116000,
      "d": 2000,
      "v": 113
    },
    {
      "midi": 58,
      "hit": false,
      "t": 118000,
      "d": 2000,
      "v": 113
    },
    {
      "midi": 61,
      "hit": false,
      "t": 118000,
      "d": 2000,
      "v": 113
    },
    {
      "midi": 63,
      "hit": false,
      "t": 118000,
      "d": 2000,
      "v": 113
    },
    {
      "midi": 66,
      "hit": false,
      "t": 118000,
      "d": 2000,
      "v": 113
    },
    {
      "midi": 59,
      "hit": false,
      "t": 120000,
      "d": 2000,
      "v": 113
    },
    {
      "midi": 61,
      "hit": false,
      "t": 120000,
      "d": 2000,
      "v": 113
    },
    {
      "midi": 63,
      "hit": false,
      "t": 120000,
      "d": 2000,
      "v": 113
    },
    {
      "midi": 66,
      "hit": false,
      "t": 120000,
      "d": 2000,
      "v": 113
    },
    {
      "midi": 61,
      "hit": false,
      "t": 122000,
      "d": 2000,
      "v": 113
    },
    {
      "midi": 63,
      "hit": false,
      "t": 122000,
      "d": 2000,
      "v": 113
    },
    {
      "midi": 65,
      "hit": false,
      "t": 122000,
      "d": 2000,
      "v": 113
    },
    {
      "midi": 68,
      "hit": false,
      "t": 122000,
      "d": 2000,
      "v": 113
    },
    {
      "midi": 63,
      "hit": false,
      "t": 124000,
      "d": 2000,
      "v": 113
    },
    {
      "midi": 66,
      "hit": false,
      "t": 124000,
      "d": 2000,
      "v": 113
    },
    {
      "midi": 70,
      "hit": false,
      "t": 124000,
      "d": 2000,
      "v": 113
    },
    {
      "midi": 61,
      "hit": false,
      "t": 126000,
      "d": 2000,
      "v": 113
    },
    {
      "midi": 65,
      "hit": false,
      "t": 126000,
      "d": 2000,
      "v": 113
    },
    {
      "midi": 68,
      "hit": false,
      "t": 126000,
      "d": 2000,
      "v": 113
    },
    {
      "midi": 73,
      "hit": false,
      "t": 126000,
      "d": 2000,
      "v": 113
    },
    {
      "midi": 59,
      "hit": false,
      "t": 128000,
      "d": 2000,
      "v": 113
    },
    {
      "midi": 61,
      "hit": false,
      "t": 128000,
      "d": 2000,
      "v": 113
    },
    {
      "midi": 63,
      "hit": false,
      "t": 128000,
      "d": 2000,
      "v": 113
    },
    {
      "midi": 66,
      "hit": false,
      "t": 128000,
      "d": 2000,
      "v": 113
    },
    {
      "midi": 61,
      "hit": false,
      "t": 130000,
      "d": 2000,
      "v": 113
    },
    {
      "midi": 63,
      "hit": false,
      "t": 130000,
      "d": 2000,
      "v": 113
    },
    {
      "midi": 65,
      "hit": false,
      "t": 130000,
      "d": 2000,
      "v": 113
    },
    {
      "midi": 68,
      "hit": false,
      "t": 130000,
      "d": 2000,
      "v": 113
    },
    {
      "midi": 63,
      "hit": false,
      "t": 132000,
      "d": 2000,
      "v": 113
    },
    {
      "midi": 66,
      "hit": false,
      "t": 132000,
      "d": 2000,
      "v": 113
    },
    {
      "midi": 70,
      "hit": false,
      "t": 132000,
      "d": 2000,
      "v": 113
    },
    {
      "midi": 61,
      "hit": false,
      "t": 134000,
      "d": 4000,
      "v": 113
    },
    {
      "midi": 65,
      "hit": false,
      "t": 134000,
      "d": 4000,
      "v": 113
    },
    {
      "midi": 68,
      "hit": false,
      "t": 134000,
      "d": 4000,
      "v": 113
    },
    {
      "midi": 73,
      "hit": false,
      "t": 134000,
      "d": 4000,
      "v": 113
    },
    {
      "midi": 61,
      "hit": false,
      "t": 138000,
      "d": 2000,
      "v": 111
    },
    {
      "midi": 63,
      "hit": false,
      "t": 138000,
      "d": 2000,
      "v": 111
    },
    {
      "midi": 66,
      "hit": false,
      "t": 138000,
      "d": 2000,
      "v": 111
    },
    {
      "midi": 70,
      "hit": false,
      "t": 138000,
      "d": 2000,
      "v": 111
    },
    {
      "midi": 58,
      "hit": false,
      "t": 140000,
      "d": 2000,
      "v": 111
    },
    {
      "midi": 61,
      "hit": false,
      "t": 140000,
      "d": 2000,
      "v": 111
    },
    {
      "midi": 65,
      "hit": false,
      "t": 140000,
      "d": 2000,
      "v": 111
    },
    {
      "midi": 68,
      "hit": false,
      "t": 140000,
      "d": 2000,
      "v": 111
    },
    {
      "midi": 59,
      "hit": false,
      "t": 142000,
      "d": 2000,
      "v": 111
    },
    {
      "midi": 61,
      "hit": false,
      "t": 142000,
      "d": 2000,
      "v": 111
    },
    {
      "midi": 63,
      "hit": false,
      "t": 142000,
      "d": 2000,
      "v": 111
    },
    {
      "midi": 66,
      "hit": false,
      "t": 142000,
      "d": 2000,
      "v": 111
    },
    {
      "midi": 56,
      "hit": false,
      "t": 144000,
      "d": 1500,
      "v": 111
    },
    {
      "midi": 58,
      "hit": false,
      "t": 144000,
      "d": 1500,
      "v": 111
    },
    {
      "midi": 62,
      "hit": false,
      "t": 144000,
      "d": 1500,
      "v": 111
    },
    {
      "midi": 65,
      "hit": false,
      "t": 144000,
      "d": 1500,
      "v": 111
    },
    {
      "midi": 56,
      "hit": false,
      "t": 145500,
      "d": 500,
      "v": 111
    },
    {
      "midi": 58,
      "hit": false,
      "t": 145500,
      "d": 500,
      "v": 111
    },
    {
      "midi": 62,
      "hit": false,
      "t": 145500,
      "d": 500,
      "v": 111
    },
    {
      "midi": 65,
      "hit": false,
      "t": 145500,
      "d": 500,
      "v": 111
    },
    {
      "midi": 61,
      "hit": false,
      "t": 146000,
      "d": 2000,
      "v": 111
    },
    {
      "midi": 63,
      "hit": false,
      "t": 146000,
      "d": 2000,
      "v": 111
    },
    {
      "midi": 66,
      "hit": false,
      "t": 146000,
      "d": 2000,
      "v": 111
    },
    {
      "midi": 70,
      "hit": false,
      "t": 146000,
      "d": 2000,
      "v": 111
    },
    {
      "midi": 58,
      "hit": false,
      "t": 148000,
      "d": 2000,
      "v": 111
    },
    {
      "midi": 61,
      "hit": false,
      "t": 148000,
      "d": 2000,
      "v": 111
    },
    {
      "midi": 65,
      "hit": false,
      "t": 148000,
      "d": 2000,
      "v": 111
    },
    {
      "midi": 68,
      "hit": false,
      "t": 148000,
      "d": 2000,
      "v": 111
    },
    {
      "midi": 59,
      "hit": false,
      "t": 150000,
      "d": 2000,
      "v": 111
    },
    {
      "midi": 61,
      "hit": false,
      "t": 150000,
      "d": 2000,
      "v": 111
    },
    {
      "midi": 63,
      "hit": false,
      "t": 150000,
      "d": 2000,
      "v": 111
    },
    {
      "midi": 66,
      "hit": false,
      "t": 150000,
      "d": 2000,
      "v": 111
    },
    {
      "midi": 56,
      "hit": false,
      "t": 152000,
      "d": 2000,
      "v": 111
    },
    {
      "midi": 61,
      "hit": false,
      "t": 152000,
      "d": 2000,
      "v": 111
    },
    {
      "midi": 65,
      "hit": false,
      "t": 152000,
      "d": 2000,
      "v": 111
    },
    {
      "midi": 68,
      "hit": false,
      "t": 152000,
      "d": 2000,
      "v": 111
    },
    {
      "midi": 61,
      "hit": false,
      "t": 154000,
      "d": 2000,
      "v": 111
    },
    {
      "midi": 63,
      "hit": false,
      "t": 154000,
      "d": 2000,
      "v": 111
    },
    {
      "midi": 66,
      "hit": false,
      "t": 154000,
      "d": 2000,
      "v": 111
    },
    {
      "midi": 70,
      "hit": false,
      "t": 154000,
      "d": 2000,
      "v": 111
    },
    {
      "midi": 58,
      "hit": false,
      "t": 156000,
      "d": 2000,
      "v": 111
    },
    {
      "midi": 61,
      "hit": false,
      "t": 156000,
      "d": 2000,
      "v": 111
    },
    {
      "midi": 65,
      "hit": false,
      "t": 156000,
      "d": 2000,
      "v": 111
    },
    {
      "midi": 68,
      "hit": false,
      "t": 156000,
      "d": 2000,
      "v": 111
    },
    {
      "midi": 59,
      "hit": false,
      "t": 158000,
      "d": 2000,
      "v": 111
    },
    {
      "midi": 61,
      "hit": false,
      "t": 158000,
      "d": 2000,
      "v": 111
    },
    {
      "midi": 63,
      "hit": false,
      "t": 158000,
      "d": 2000,
      "v": 111
    },
    {
      "midi": 66,
      "hit": false,
      "t": 158000,
      "d": 2000,
      "v": 111
    },
    {
      "midi": 56,
      "hit": false,
      "t": 160000,
      "d": 1500,
      "v": 111
    },
    {
      "midi": 58,
      "hit": false,
      "t": 160000,
      "d": 1500,
      "v": 111
    },
    {
      "midi": 62,
      "hit": false,
      "t": 160000,
      "d": 1500,
      "v": 111
    },
    {
      "midi": 65,
      "hit": false,
      "t": 160000,
      "d": 1500,
      "v": 111
    },
    {
      "midi": 56,
      "hit": false,
      "t": 161500,
      "d": 500,
      "v": 111
    },
    {
      "midi": 58,
      "hit": false,
      "t": 161500,
      "d": 500,
      "v": 111
    },
    {
      "midi": 62,
      "hit": false,
      "t": 161500,
      "d": 500,
      "v": 111
    },
    {
      "midi": 65,
      "hit": false,
      "t": 161500,
      "d": 500,
      "v": 111
    },
    {
      "midi": 61,
      "hit": false,
      "t": 162000,
      "d": 2000,
      "v": 111
    },
    {
      "midi": 63,
      "hit": false,
      "t": 162000,
      "d": 2000,
      "v": 111
    },
    {
      "midi": 66,
      "hit": false,
      "t": 162000,
      "d": 2000,
      "v": 111
    },
    {
      "midi": 70,
      "hit": false,
      "t": 162000,
      "d": 2000,
      "v": 111
    },
    {
      "midi": 58,
      "hit": false,
      "t": 164000,
      "d": 2000,
      "v": 111
    },
    {
      "midi": 61,
      "hit": false,
      "t": 164000,
      "d": 2000,
      "v": 111
    },
    {
      "midi": 65,
      "hit": false,
      "t": 164000,
      "d": 2000,
      "v": 111
    },
    {
      "midi": 68,
      "hit": false,
      "t": 164000,
      "d": 2000,
      "v": 111
    },
    {
      "midi": 59,
      "hit": false,
      "t": 166000,
      "d": 2000,
      "v": 111
    },
    {
      "midi": 61,
      "hit": false,
      "t": 166000,
      "d": 2000,
      "v": 111
    },
    {
      "midi": 63,
      "hit": false,
      "t": 166000,
      "d": 2000,
      "v": 111
    },
    {
      "midi": 66,
      "hit": false,
      "t": 166000,
      "d": 2000,
      "v": 111
    },
    {
      "midi": 56,
      "hit": false,
      "t": 168000,
      "d": 2000,
      "v": 111
    },
    {
      "midi": 61,
      "hit": false,
      "t": 168000,
      "d": 2000,
      "v": 111
    },
    {
      "midi": 65,
      "hit": false,
      "t": 168000,
      "d": 2000,
      "v": 111
    },
    {
      "midi": 68,
      "hit": false,
      "t": 168000,
      "d": 2000,
      "v": 111
    },
    {
      "midi": 59,
      "hit": false,
      "t": 186000,
      "d": 2000,
      "v": 113
    },
    {
      "midi": 61,
      "hit": false,
      "t": 186000,
      "d": 2000,
      "v": 113
    },
    {
      "midi": 63,
      "hit": false,
      "t": 186000,
      "d": 2000,
      "v": 113
    },
    {
      "midi": 66,
      "hit": false,
      "t": 186000,
      "d": 2000,
      "v": 113
    },
    {
      "midi": 61,
      "hit": false,
      "t": 188000,
      "d": 2000,
      "v": 113
    },
    {
      "midi": 63,
      "hit": false,
      "t": 188000,
      "d": 2000,
      "v": 113
    },
    {
      "midi": 65,
      "hit": false,
      "t": 188000,
      "d": 2000,
      "v": 113
    },
    {
      "midi": 68,
      "hit": false,
      "t": 188000,
      "d": 2000,
      "v": 113
    },
    {
      "midi": 63,
      "hit": false,
      "t": 190000,
      "d": 2000,
      "v": 113
    },
    {
      "midi": 66,
      "hit": false,
      "t": 190000,
      "d": 2000,
      "v": 113
    },
    {
      "midi": 70,
      "hit": false,
      "t": 190000,
      "d": 2000,
      "v": 113
    },
    {
      "midi": 61,
      "hit": false,
      "t": 192000,
      "d": 2000,
      "v": 113
    },
    {
      "midi": 65,
      "hit": false,
      "t": 192000,
      "d": 2000,
      "v": 113
    },
    {
      "midi": 68,
      "hit": false,
      "t": 192000,
      "d": 2000,
      "v": 113
    },
    {
      "midi": 73,
      "hit": false,
      "t": 192000,
      "d": 2000,
      "v": 113
    },
    {
      "midi": 59,
      "hit": false,
      "t": 194000,
      "d": 2000,
      "v": 113
    },
    {
      "midi": 61,
      "hit": false,
      "t": 194000,
      "d": 2000,
      "v": 113
    },
    {
      "midi": 63,
      "hit": false,
      "t": 194000,
      "d": 2000,
      "v": 113
    },
    {
      "midi": 66,
      "hit": false,
      "t": 194000,
      "d": 2000,
      "v": 113
    },
    {
      "midi": 61,
      "hit": false,
      "t": 196000,
      "d": 2000,
      "v": 113
    },
    {
      "midi": 63,
      "hit": false,
      "t": 196000,
      "d": 2000,
      "v": 113
    },
    {
      "midi": 65,
      "hit": false,
      "t": 196000,
      "d": 2000,
      "v": 113
    },
    {
      "midi": 68,
      "hit": false,
      "t": 196000,
      "d": 2000,
      "v": 113
    },
    {
      "midi": 63,
      "hit": false,
      "t": 198000,
      "d": 2000,
      "v": 113
    },
    {
      "midi": 66,
      "hit": false,
      "t": 198000,
      "d": 2000,
      "v": 113
    },
    {
      "midi": 70,
      "hit": false,
      "t": 198000,
      "d": 2000,
      "v": 113
    },
    {
      "midi": 61,
      "hit": false,
      "t": 200000,
      "d": 4000,
      "v": 113
    },
    {
      "midi": 65,
      "hit": false,
      "t": 200000,
      "d": 4000,
      "v": 113
    },
    {
      "midi": 68,
      "hit": false,
      "t": 200000,
      "d": 4000,
      "v": 113
    },
    {
      "midi": 73,
      "hit": false,
      "t": 200000,
      "d": 4000,
      "v": 113
    },
    {
      "midi": 61,
      "hit": false,
      "t": 202000,
      "d": 2000,
      "v": 111
    },
    {
      "midi": 63,
      "hit": false,
      "t": 202000,
      "d": 2000,
      "v": 111
    },
    {
      "midi": 66,
      "hit": false,
      "t": 202000,
      "d": 2000,
      "v": 111
    },
    {
      "midi": 70,
      "hit": false,
      "t": 202000,
      "d": 2000,
      "v": 111
    },
    {
      "midi": 58,
      "hit": false,
      "t": 204000,
      "d": 2000,
      "v": 111
    },
    {
      "midi": 61,
      "hit": false,
      "t": 204000,
      "d": 2000,
      "v": 111
    },
    {
      "midi": 65,
      "hit": false,
      "t": 204000,
      "d": 2000,
      "v": 111
    },
    {
      "midi": 68,
      "hit": false,
      "t": 204000,
      "d": 2000,
      "v": 111
    },
    {
      "midi": 59,
      "hit": false,
      "t": 206000,
      "d": 2000,
      "v": 111
    },
    {
      "midi": 61,
      "hit": false,
      "t": 206000,
      "d": 2000,
      "v": 111
    },
    {
      "midi": 63,
      "hit": false,
      "t": 206000,
      "d": 2000,
      "v": 111
    },
    {
      "midi": 66,
      "hit": false,
      "t": 206000,
      "d": 2000,
      "v": 111
    },
    {
      "midi": 56,
      "hit": false,
      "t": 208000,
      "d": 1500,
      "v": 111
    },
    {
      "midi": 58,
      "hit": false,
      "t": 208000,
      "d": 1500,
      "v": 111
    },
    {
      "midi": 62,
      "hit": false,
      "t": 208000,
      "d": 1500,
      "v": 111
    },
    {
      "midi": 65,
      "hit": false,
      "t": 208000,
      "d": 1500,
      "v": 111
    },
    {
      "midi": 56,
      "hit": false,
      "t": 209500,
      "d": 500,
      "v": 111
    },
    {
      "midi": 58,
      "hit": false,
      "t": 209500,
      "d": 500,
      "v": 111
    },
    {
      "midi": 62,
      "hit": false,
      "t": 209500,
      "d": 500,
      "v": 111
    },
    {
      "midi": 65,
      "hit": false,
      "t": 209500,
      "d": 500,
      "v": 111
    },
    {
      "midi": 61,
      "hit": false,
      "t": 210000,
      "d": 2000,
      "v": 111
    },
    {
      "midi": 63,
      "hit": false,
      "t": 210000,
      "d": 2000,
      "v": 111
    },
    {
      "midi": 66,
      "hit": false,
      "t": 210000,
      "d": 2000,
      "v": 111
    },
    {
      "midi": 70,
      "hit": false,
      "t": 210000,
      "d": 2000,
      "v": 111
    },
    {
      "midi": 58,
      "hit": false,
      "t": 212000,
      "d": 2000,
      "v": 111
    },
    {
      "midi": 61,
      "hit": false,
      "t": 212000,
      "d": 2000,
      "v": 111
    },
    {
      "midi": 65,
      "hit": false,
      "t": 212000,
      "d": 2000,
      "v": 111
    },
    {
      "midi": 68,
      "hit": false,
      "t": 212000,
      "d": 2000,
      "v": 111
    },
    {
      "midi": 59,
      "hit": false,
      "t": 214000,
      "d": 2000,
      "v": 111
    },
    {
      "midi": 61,
      "hit": false,
      "t": 214000,
      "d": 2000,
      "v": 111
    },
    {
      "midi": 63,
      "hit": false,
      "t": 214000,
      "d": 2000,
      "v": 111
    },
    {
      "midi": 66,
      "hit": false,
      "t": 214000,
      "d": 2000,
      "v": 111
    },
    {
      "midi": 56,
      "hit": false,
      "t": 216000,
      "d": 2000,
      "v": 111
    },
    {
      "midi": 61,
      "hit": false,
      "t": 216000,
      "d": 2000,
      "v": 111
    },
    {
      "midi": 65,
      "hit": false,
      "t": 216000,
      "d": 2000,
      "v": 111
    },
    {
      "midi": 68,
      "hit": false,
      "t": 216000,
      "d": 2000,
      "v": 111
    },
    {
      "midi": 61,
      "hit": false,
      "t": 218000,
      "d": 2000,
      "v": 111
    },
    {
      "midi": 63,
      "hit": false,
      "t": 218000,
      "d": 2000,
      "v": 111
    },
    {
      "midi": 66,
      "hit": false,
      "t": 218000,
      "d": 2000,
      "v": 111
    },
    {
      "midi": 70,
      "hit": false,
      "t": 218000,
      "d": 2000,
      "v": 111
    },
    {
      "midi": 58,
      "hit": false,
      "t": 220000,
      "d": 2000,
      "v": 111
    },
    {
      "midi": 61,
      "hit": false,
      "t": 220000,
      "d": 2000,
      "v": 111
    },
    {
      "midi": 65,
      "hit": false,
      "t": 220000,
      "d": 2000,
      "v": 111
    },
    {
      "midi": 68,
      "hit": false,
      "t": 220000,
      "d": 2000,
      "v": 111
    },
    {
      "midi": 59,
      "hit": false,
      "t": 222000,
      "d": 2000,
      "v": 111
    },
    {
      "midi": 61,
      "hit": false,
      "t": 222000,
      "d": 2000,
      "v": 111
    },
    {
      "midi": 63,
      "hit": false,
      "t": 222000,
      "d": 2000,
      "v": 111
    },
    {
      "midi": 66,
      "hit": false,
      "t": 222000,
      "d": 2000,
      "v": 111
    },
    {
      "midi": 56,
      "hit": false,
      "t": 224000,
      "d": 1500,
      "v": 111
    },
    {
      "midi": 58,
      "hit": false,
      "t": 224000,
      "d": 1500,
      "v": 111
    },
    {
      "midi": 62,
      "hit": false,
      "t": 224000,
      "d": 1500,
      "v": 111
    },
    {
      "midi": 65,
      "hit": false,
      "t": 224000,
      "d": 1500,
      "v": 111
    },
    {
      "midi": 56,
      "hit": false,
      "t": 225500,
      "d": 500,
      "v": 111
    },
    {
      "midi": 58,
      "hit": false,
      "t": 225500,
      "d": 500,
      "v": 111
    },
    {
      "midi": 62,
      "hit": false,
      "t": 225500,
      "d": 500,
      "v": 111
    },
    {
      "midi": 65,
      "hit": false,
      "t": 225500,
      "d": 500,
      "v": 111
    },
    {
      "midi": 61,
      "hit": false,
      "t": 226000,
      "d": 2000,
      "v": 111
    },
    {
      "midi": 63,
      "hit": false,
      "t": 226000,
      "d": 2000,
      "v": 111
    },
    {
      "midi": 66,
      "hit": false,
      "t": 226000,
      "d": 2000,
      "v": 111
    },
    {
      "midi": 70,
      "hit": false,
      "t": 226000,
      "d": 2000,
      "v": 111
    },
    {
      "midi": 58,
      "hit": false,
      "t": 228000,
      "d": 2000,
      "v": 111
    },
    {
      "midi": 61,
      "hit": false,
      "t": 228000,
      "d": 2000,
      "v": 111
    },
    {
      "midi": 65,
      "hit": false,
      "t": 228000,
      "d": 2000,
      "v": 111
    },
    {
      "midi": 68,
      "hit": false,
      "t": 228000,
      "d": 2000,
      "v": 111
    },
    {
      "midi": 59,
      "hit": false,
      "t": 230000,
      "d": 2000,
      "v": 111
    },
    {
      "midi": 61,
      "hit": false,
      "t": 230000,
      "d": 2000,
      "v": 111
    },
    {
      "midi": 63,
      "hit": false,
      "t": 230000,
      "d": 2000,
      "v": 111
    },
    {
      "midi": 66,
      "hit": false,
      "t": 230000,
      "d": 2000,
      "v": 111
    },
    {
      "midi": 56,
      "hit": false,
      "t": 232000,
      "d": 2000,
      "v": 111
    },
    {
      "midi": 61,
      "hit": false,
      "t": 232000,
      "d": 2000,
      "v": 111
    },
    {
      "midi": 65,
      "hit": false,
      "t": 232000,
      "d": 2000,
      "v": 111
    },
    {
      "midi": 68,
      "hit": false,
      "t": 232000,
      "d": 2000,
      "v": 111
    }
  ]
}