{
  "jsonPath": "Soundtracks/Video Game Music/Monkey Island 1/monkey-island-1-the-secret-of-monkey-island-cave-by-w3sp.json",
  "path": "Soundtracks\\Video Game Music\\Monkey Island 1\\Monkey_Island_1_-_The_Secret_of_Monkey_Island_-_Cave_by_w3sp.mid",
  "name": "Monkey_Island_1_-_The_Secret_of_Monkey_Island_-_Cave_by_w3sp",
  "difficulty": "Advanced",
  "bpm": 130.00013000013,
  "notes": [
    {
      "midi": 33,
      "hit": false,
      "t": 0.9615374999999998,
      "d": 225.96131249999996,
      "v": 90
    },
    {
      "midi": 72,
      "hit": false,
      "t": 474.99952499999995,
      "d": 158.65368749999993,
      "v": 90
    },
    {
      "midi": 69,
      "hit": false,
      "t": 474.99952499999995,
      "d": 158.65368749999993,
      "v": 80
    },
    {
      "midi": 36,
      "hit": false,
      "t": 474.99952499999995,
      "d": 208.65363749999995,
      "v": 88
    },
    {
      "midi": 72,
      "hit": false,
      "t": 776.9222999999998,
      "d": 160.57676249999997,
      "v": 89
    },
    {
      "midi": 69,
      "hit": false,
      "t": 776.9222999999998,
      "d": 160.57676249999997,
      "v": 79
    },
    {
      "midi": 39,
      "hit": false,
      "t": 931.7298374999998,
      "d": 457.69184999999993,
      "v": 90
    },
    {
      "midi": 72,
      "hit": false,
      "t": 1389.4216874999997,
      "d": 158.65368749999993,
      "v": 90
    },
    {
      "midi": 69,
      "hit": false,
      "t": 1389.4216874999997,
      "d": 158.65368749999993,
      "v": 80
    },
    {
      "midi": 72,
      "hit": false,
      "t": 1691.3444624999997,
      "d": 154.80753749999985,
      "v": 89
    },
    {
      "midi": 69,
      "hit": false,
      "t": 1691.3444624999997,
      "d": 154.80753749999985,
      "v": 79
    },
    {
      "midi": 79,
      "hit": false,
      "t": 1846.1519999999996,
      "d": 929.8067624999999,
      "v": 70
    },
    {
      "midi": 75,
      "hit": false,
      "t": 1846.1519999999996,
      "d": 929.8067624999999,
      "v": 46
    },
    {
      "midi": 72,
      "hit": false,
      "t": 2321.1515249999993,
      "d": 156.7306125,
      "v": 90
    },
    {
      "midi": 69,
      "hit": false,
      "t": 2321.1515249999993,
      "d": 156.7306125,
      "v": 80
    },
    {
      "midi": 72,
      "hit": false,
      "t": 2623.0742999999993,
      "d": 154.8075375000003,
      "v": 89
    },
    {
      "midi": 69,
      "hit": false,
      "t": 2623.0742999999993,
      "d": 154.8075375000003,
      "v": 79
    },
    {
      "midi": 39,
      "hit": false,
      "t": 3082.6892249999996,
      "d": 140.38447499999984,
      "v": 88
    },
    {
      "midi": 72,
      "hit": false,
      "t": 3235.5736874999993,
      "d": 158.65368750000016,
      "v": 90
    },
    {
      "midi": 69,
      "hit": false,
      "t": 3235.5736874999993,
      "d": 158.65368750000016,
      "v": 80
    },
    {
      "midi": 40,
      "hit": false,
      "t": 3235.5736874999993,
      "d": 209.61517500000036,
      "v": 90
    },
    {
      "midi": 72,
      "hit": false,
      "t": 3537.4964625,
      "d": 159.615225,
      "v": 93
    },
    {
      "midi": 69,
      "hit": false,
      "t": 3537.4964625,
      "d": 159.615225,
      "v": 79
    },
    {
      "midi": 29,
      "hit": false,
      "t": 3693.2655375,
      "d": 225.96131249999962,
      "v": 88
    },
    {
      "midi": 71,
      "hit": false,
      "t": 4167.303524999999,
      "d": 158.65368750000016,
      "v": 94
    },
    {
      "midi": 68,
      "hit": false,
      "t": 4167.303524999999,
      "d": 158.65368750000016,
      "v": 80
    },
    {
      "midi": 29,
      "hit": false,
      "t": 4167.303524999999,
      "d": 276.9228000000003,
      "v": 84
    },
    {
      "midi": 28,
      "hit": false,
      "t": 4469.226299999999,
      "d": 142.30755000000045,
      "v": 83
    },
    {
      "midi": 71,
      "hit": false,
      "t": 4469.226299999999,
      "d": 160.57676250000077,
      "v": 89
    },
    {
      "midi": 68,
      "hit": false,
      "t": 4469.226299999999,
      "d": 160.57676250000077,
      "v": 79
    },
    {
      "midi": 71,
      "hit": false,
      "t": 5081.7256875,
      "d": 158.65368750000016,
      "v": 90
    },
    {
      "midi": 68,
      "hit": false,
      "t": 5081.7256875,
      "d": 158.65368750000016,
      "v": 80
    },
    {
      "midi": 71,
      "hit": false,
      "t": 5383.6484625,
      "d": 154.80753749999985,
      "v": 89
    },
    {
      "midi": 68,
      "hit": false,
      "t": 5383.6484625,
      "d": 159.61522500000046,
      "v": 79
    },
    {
      "midi": 80,
      "hit": false,
      "t": 5539.4175375,
      "d": 930.7682999999997,
      "v": 70
    },
    {
      "midi": 76,
      "hit": false,
      "t": 5539.4175375,
      "d": 930.7682999999997,
      "v": 60
    },
    {
      "midi": 74,
      "hit": false,
      "t": 5539.4175375,
      "d": 930.7682999999997,
      "v": 60
    },
    {
      "midi": 68,
      "hit": false,
      "t": 6013.455525,
      "d": 158.65368750000016,
      "v": 80
    },
    {
      "midi": 71,
      "hit": false,
      "t": 6013.455525,
      "d": 158.65368750000016,
      "v": 90
    },
    {
      "midi": 71,
      "hit": false,
      "t": 6315.3783,
      "d": 154.80753749999985,
      "v": 89
    },
    {
      "midi": 68,
      "hit": false,
      "t": 6315.3783,
      "d": 160.57676249999986,
      "v": 79
    },
    {
      "midi": 71,
      "hit": false,
      "t": 6927.8776875,
      "d": 158.65368750000016,
      "v": 90
    },
    {
      "midi": 68,
      "hit": false,
      "t": 6927.8776875,
      "d": 158.65368750000016,
      "v": 80
    },
    {
      "midi": 71,
      "hit": false,
      "t": 7229.8004625,
      "d": 159.61522500000046,
      "v": 93
    },
    {
      "midi": 68,
      "hit": false,
      "t": 7229.8004625,
      "d": 159.61522500000046,
      "v": 79
    },
    {
      "midi": 33,
      "hit": false,
      "t": 7385.5695375000005,
      "d": 225.96131250000053,
      "v": 90
    },
    {
      "midi": 72,
      "hit": false,
      "t": 7859.607525000001,
      "d": 158.65368750000016,
      "v": 94
    },
    {
      "midi": 69,
      "hit": false,
      "t": 7859.607525000001,
      "d": 158.65368750000016,
      "v": 80
    },
    {
      "midi": 36,
      "hit": false,
      "t": 7859.607525000001,
      "d": 208.6536375000005,
      "v": 88
    },
    {
      "midi": 72,
      "hit": false,
      "t": 8161.530300000002,
      "d": 160.57676250000077,
      "v": 89
    },
    {
      "midi": 69,
      "hit": false,
      "t": 8161.530300000002,
      "d": 160.57676250000077,
      "v": 79
    },
    {
      "midi": 39,
      "hit": false,
      "t": 8316.337837500003,
      "d": 457.69184999999925,
      "v": 90
    },
    {
      "midi": 72,
      "hit": false,
      "t": 8774.029687500002,
      "d": 158.65368750000016,
      "v": 90
    },
    {
      "midi": 69,
      "hit": false,
      "t": 8774.029687500002,
      "d": 158.65368750000016,
      "v": 80
    },
    {
      "midi": 72,
      "hit": false,
      "t": 9075.952462500003,
      "d": 159.61522499999955,
      "v": 89
    },
    {
      "midi": 69,
      "hit": false,
      "t": 9075.952462500003,
      "d": 159.61522499999955,
      "v": 79
    },
    {
      "midi": 72,
      "hit": false,
      "t": 9705.759525000003,
      "d": 158.65368750000016,
      "v": 90
    },
    {
      "midi": 69,
      "hit": false,
      "t": 9705.759525000003,
      "d": 158.65368750000016,
      "v": 80
    },
    {
      "midi": 72,
      "hit": false,
      "t": 10007.682300000004,
      "d": 160.57676250000077,
      "v": 89
    },
    {
      "midi": 69,
      "hit": false,
      "t": 10007.682300000004,
      "d": 160.57676250000077,
      "v": 79
    },
    {
      "midi": 39,
      "hit": false,
      "t": 10467.297225000004,
      "d": 140.38447500000075,
      "v": 88
    },
    {
      "midi": 72,
      "hit": false,
      "t": 10620.181687500004,
      "d": 158.65368750000016,
      "v": 90
    },
    {
      "midi": 69,
      "hit": false,
      "t": 10620.181687500004,
      "d": 158.65368750000016,
      "v": 80
    },
    {
      "midi": 40,
      "hit": false,
      "t": 10620.181687500004,
      "d": 209.61517500000082,
      "v": 90
    },
    {
      "midi": 72,
      "hit": false,
      "t": 10922.104462500005,
      "d": 159.61522499999955,
      "v": 89
    },
    {
      "midi": 69,
      "hit": false,
      "t": 10922.104462500005,
      "d": 159.61522499999955,
      "v": 79
    },
    {
      "midi": 36,
      "hit": false,
      "t": 11077.873537500005,
      "d": 225.96131249999962,
      "v": 91
    },
    {
      "midi": 72,
      "hit": false,
      "t": 11551.911525000005,
      "d": 158.65368750000016,
      "v": 90
    },
    {
      "midi": 69,
      "hit": false,
      "t": 11551.911525000005,
      "d": 158.65368750000016,
      "v": 80
    },
    {
      "midi": 36,
      "hit": false,
      "t": 11551.911525000005,
      "d": 276.9228000000003,
      "v": 88
    },
    {
      "midi": 33,
      "hit": false,
      "t": 11853.834300000006,
      "d": 142.30754999999954,
      "v": 85
    },
    {
      "midi": 72,
      "hit": false,
      "t": 11853.834300000006,
      "d": 160.57676249999895,
      "v": 89
    },
    {
      "midi": 69,
      "hit": false,
      "t": 11853.834300000006,
      "d": 160.57676249999895,
      "v": 79
    },
    {
      "midi": 72,
      "hit": false,
      "t": 12468.704112500005,
      "d": 160.99653749999925,
      "v": 90
    },
    {
      "midi": 69,
      "hit": false,
      "t": 12468.704112500005,
      "d": 160.99653749999925,
      "v": 80
    },
    {
      "midi": 72,
      "hit": false,
      "t": 12775.208462500004,
      "d": 158.16443749999962,
      "v": 89
    },
    {
      "midi": 69,
      "hit": false,
      "t": 12775.208462500004,
      "d": 158.16443749999962,
      "v": 79
    },
    {
      "midi": 81,
      "hit": false,
      "t": 12934.334437500003,
      "d": 930.7683000000015,
      "v": 70
    },
    {
      "midi": 76,
      "hit": false,
      "t": 12934.334437500003,
      "d": 930.7683000000015,
      "v": 60
    },
    {
      "midi": 72,
      "hit": false,
      "t": 13408.372425000003,
      "d": 158.65368750000016,
      "v": 90
    },
    {
      "midi": 69,
      "hit": false,
      "t": 13408.372425000003,
      "d": 158.65368750000016,
      "v": 80
    },
    {
      "midi": 72,
      "hit": false,
      "t": 13710.295200000004,
      "d": 154.80753750000076,
      "v": 80
    },
    {
      "midi": 69,
      "hit": false,
      "t": 13710.295200000004,
      "d": 154.80753750000076,
      "v": 79
    },
    {
      "midi": 39,
      "hit": false,
      "t": 14171.095337500006,
      "d": 141.4727833333327,
      "v": 88
    },
    {
      "midi": 72,
      "hit": false,
      "t": 14325.165012500005,
      "d": 160.99653749999925,
      "v": 90
    },
    {
      "midi": 69,
      "hit": false,
      "t": 14325.165012500005,
      "d": 160.99653749999925,
      "v": 80
    },
    {
      "midi": 40,
      "hit": false,
      "t": 14325.165012500005,
      "d": 463.68453749999935,
      "v": 90
    },
    {
      "midi": 72,
      "hit": false,
      "t": 14631.669362500004,
      "d": 163.08568750000086,
      "v": 89
    },
    {
      "midi": 69,
      "hit": false,
      "t": 14631.669362500004,
      "d": 163.08568750000086,
      "v": 79
    },
    {
      "midi": 33,
      "hit": false,
      "t": 14790.818050000005,
      "d": 228.66409999999996,
      "v": 90
    },
    {
      "midi": 72,
      "hit": false,
      "t": 15267.558825000006,
      "d": 158.65368750000016,
      "v": 90
    },
    {
      "midi": 69,
      "hit": false,
      "t": 15267.558825000006,
      "d": 158.65368750000016,
      "v": 80
    },
    {
      "midi": 36,
      "hit": false,
      "t": 15267.558825000006,
      "d": 208.6536374999996,
      "v": 88
    },
    {
      "midi": 72,
      "hit": false,
      "t": 15569.481600000005,
      "d": 160.57676250000077,
      "v": 89
    },
    {
      "midi": 69,
      "hit": false,
      "t": 15569.481600000005,
      "d": 160.57676250000077,
      "v": 79
    },
    {
      "midi": 39,
      "hit": false,
      "t": 15724.289137500005,
      "d": 457.69184999999925,
      "v": 90
    },
    {
      "midi": 69,
      "hit": false,
      "t": 16029.096525000004,
      "d": 140.38447500000075,
      "v": 127
    },
    {
      "midi": 72,
      "hit": false,
      "t": 16181.980987500005,
      "d": 140.38447500000075,
      "v": 127
    },
    {
      "midi": 69,
      "hit": false,
      "t": 16181.980987500005,
      "d": 158.65368750000016,
      "v": 80
    },
    {
      "midi": 72,
      "hit": false,
      "t": 16483.903762500006,
      "d": 159.61522500000137,
      "v": 89
    },
    {
      "midi": 69,
      "hit": false,
      "t": 16483.903762500006,
      "d": 159.61522500000137,
      "v": 79
    },
    {
      "midi": 75,
      "hit": false,
      "t": 16483.903762500006,
      "d": 1544.2292249999991,
      "v": 127
    },
    {
      "midi": 72,
      "hit": false,
      "t": 17113.710825000006,
      "d": 158.65368749999834,
      "v": 90
    },
    {
      "midi": 69,
      "hit": false,
      "t": 17113.710825000006,
      "d": 158.65368749999834,
      "v": 80
    },
    {
      "midi": 72,
      "hit": false,
      "t": 17415.633600000005,
      "d": 160.57676250000077,
      "v": 89
    },
    {
      "midi": 69,
      "hit": false,
      "t": 17415.633600000005,
      "d": 160.57676250000077,
      "v": 79
    },
    {
      "midi": 39,
      "hit": false,
      "t": 17875.248525000006,
      "d": 140.38447499999893,
      "v": 88
    },
    {
      "midi": 72,
      "hit": false,
      "t": 18028.132987500005,
      "d": 158.65368749999834,
      "v": 90
    },
    {
      "midi": 69,
      "hit": false,
      "t": 18028.132987500005,
      "d": 158.65368749999834,
      "v": 80
    },
    {
      "midi": 40,
      "hit": false,
      "t": 18028.132987500005,
      "d": 209.615174999999,
      "v": 90
    },
    {
      "midi": 76,
      "hit": false,
      "t": 18028.132987500005,
      "d": 455.76877500000046,
      "v": 127
    },
    {
      "midi": 72,
      "hit": false,
      "t": 18330.055762500004,
      "d": 159.61522500000137,
      "v": 93
    },
    {
      "midi": 69,
      "hit": false,
      "t": 18330.055762500004,
      "d": 159.61522500000137,
      "v": 79
    },
    {
      "midi": 29,
      "hit": false,
      "t": 18485.824837500004,
      "d": 225.96131249999962,
      "v": 88
    },
    {
      "midi": 76,
      "hit": false,
      "t": 18485.824837500004,
      "d": 3234.6121499999936,
      "v": 127
    },
    {
      "midi": 71,
      "hit": false,
      "t": 18959.862825000004,
      "d": 158.65368749999834,
      "v": 94
    },
    {
      "midi": 68,
      "hit": false,
      "t": 18959.862825000004,
      "d": 158.65368749999834,
      "v": 80
    },
    {
      "midi": 29,
      "hit": false,
      "t": 18959.862825000004,
      "d": 276.92279999999664,
      "v": 84
    },
    {
      "midi": 28,
      "hit": false,
      "t": 19261.7856,
      "d": 142.30755000000136,
      "v": 83
    },
    {
      "midi": 71,
      "hit": false,
      "t": 19261.7856,
      "d": 160.57676250000077,
      "v": 89
    },
    {
      "midi": 68,
      "hit": false,
      "t": 19261.7856,
      "d": 160.57676250000077,
      "v": 79
    },
    {
      "midi": 71,
      "hit": false,
      "t": 19874.2849875,
      "d": 158.65368749999834,
      "v": 90
    },
    {
      "midi": 68,
      "hit": false,
      "t": 19874.2849875,
      "d": 158.65368749999834,
      "v": 80
    },
    {
      "midi": 71,
      "hit": false,
      "t": 20176.2077625,
      "d": 159.61522500000137,
      "v": 89
    },
    {
      "midi": 68,
      "hit": false,
      "t": 20176.2077625,
      "d": 159.61522500000137,
      "v": 79
    },
    {
      "midi": 71,
      "hit": false,
      "t": 20806.014825,
      "d": 158.65368749999834,
      "v": 90
    },
    {
      "midi": 68,
      "hit": false,
      "t": 20806.014825,
      "d": 158.65368749999834,
      "v": 80
    },
    {
      "midi": 71,
      "hit": false,
      "t": 21107.937599999997,
      "d": 160.57676250000077,
      "v": 89
    },
    {
      "midi": 68,
      "hit": false,
      "t": 21107.937599999997,
      "d": 160.57676250000077,
      "v": 79
    },
    {
      "midi": 71,
      "hit": false,
      "t": 21720.436987499997,
      "d": 158.65368749999834,
      "v": 90
    },
    {
      "midi": 68,
      "hit": false,
      "t": 21720.436987499997,
      "d": 158.65368749999834,
      "v": 80
    },
    {
      "midi": 71,
      "hit": false,
      "t": 22022.359762499997,
      "d": 159.61522500000137,
      "v": 93
    },
    {
      "midi": 68,
      "hit": false,
      "t": 22022.359762499997,
      "d": 159.61522500000137,
      "v": 79
    },
    {
      "midi": 33,
      "hit": false,
      "t": 22178.128837499997,
      "d": 225.96131249999962,
      "v": 90
    },
    {
      "midi": 72,
      "hit": false,
      "t": 22652.166824999997,
      "d": 158.65368749999834,
      "v": 94
    },
    {
      "midi": 69,
      "hit": false,
      "t": 22652.166824999997,
      "d": 158.65368749999834,
      "v": 80
    },
    {
      "midi": 36,
      "hit": false,
      "t": 22652.166824999997,
      "d": 208.6536374999996,
      "v": 88
    },
    {
      "midi": 72,
      "hit": false,
      "t": 22954.089599999996,
      "d": 160.57676250000077,
      "v": 89
    },
    {
      "midi": 69,
      "hit": false,
      "t": 22954.089599999996,
      "d": 160.57676250000077,
      "v": 79
    },
    {
      "midi": 39,
      "hit": false,
      "t": 23108.897137499996,
      "d": 457.69184999999925,
      "v": 90
    },
    {
      "midi": 69,
      "hit": false,
      "t": 23413.704524999997,
      "d": 140.38447499999893,
      "v": 127
    },
    {
      "midi": 72,
      "hit": false,
      "t": 23566.588987499996,
      "d": 140.38447499999893,
      "v": 127
    },
    {
      "midi": 69,
      "hit": false,
      "t": 23566.588987499996,
      "d": 158.65368749999834,
      "v": 80
    },
    {
      "midi": 72,
      "hit": false,
      "t": 23868.511762499995,
      "d": 154.80753750000076,
      "v": 89
    },
    {
      "midi": 69,
      "hit": false,
      "t": 23868.511762499995,
      "d": 154.80753750000076,
      "v": 79
    },
    {
      "midi": 79,
      "hit": false,
      "t": 24024.280837499995,
      "d": 930.7682999999997,
      "v": 70
    },
    {
      "midi": 75,
      "hit": false,
      "t": 24024.280837499995,
      "d": 930.7682999999997,
      "v": 60
    },
    {
      "midi": 72,
      "hit": false,
      "t": 24498.318824999995,
      "d": 158.65368749999834,
      "v": 90
    },
    {
      "midi": 69,
      "hit": false,
      "t": 24498.318824999995,
      "d": 158.65368749999834,
      "v": 80
    },
    {
      "midi": 72,
      "hit": false,
      "t": 24800.241599999994,
      "d": 154.80753750000076,
      "v": 89
    },
    {
      "midi": 69,
      "hit": false,
      "t": 24800.241599999994,
      "d": 154.80753750000076,
      "v": 79
    },
    {
      "midi": 39,
      "hit": false,
      "t": 25259.856524999996,
      "d": 140.38447499999893,
      "v": 88
    },
    {
      "midi": 72,
      "hit": false,
      "t": 25412.740987499994,
      "d": 158.65368749999834,
      "v": 90
    },
    {
      "midi": 69,
      "hit": false,
      "t": 25412.740987499994,
      "d": 158.65368749999834,
      "v": 80
    },
    {
      "midi": 40,
      "hit": false,
      "t": 25412.740987499994,
      "d": 209.615174999999,
      "v": 90
    },
    {
      "midi": 76,
      "hit": false,
      "t": 25412.740987499994,
      "d": 455.76877500000046,
      "v": 127
    },
    {
      "midi": 72,
      "hit": false,
      "t": 25714.663762499993,
      "d": 159.61522500000137,
      "v": 89
    },
    {
      "midi": 69,
      "hit": false,
      "t": 25714.663762499993,
      "d": 159.61522500000137,
      "v": 79
    },
    {
      "midi": 36,
      "hit": false,
      "t": 25870.432837499993,
      "d": 225.96131249999962,
      "v": 91
    },
    {
      "midi": 76,
      "hit": false,
      "t": 25870.432837499993,
      "d": 3234.6121499999936,
      "v": 127
    },
    {
      "midi": 72,
      "hit": false,
      "t": 26344.470824999993,
      "d": 158.65368749999834,
      "v": 90
    },
    {
      "midi": 69,
      "hit": false,
      "t": 26344.470824999993,
      "d": 158.65368749999834,
      "v": 80
    },
    {
      "midi": 36,
      "hit": false,
      "t": 26344.470824999993,
      "d": 276.92279999999664,
      "v": 88
    },
    {
      "midi": 33,
      "hit": false,
      "t": 26646.39359999999,
      "d": 142.30755000000136,
      "v": 85
    },
    {
      "midi": 72,
      "hit": false,
      "t": 26646.39359999999,
      "d": 160.57676250000077,
      "v": 89
    },
    {
      "midi": 69,
      "hit": false,
      "t": 26646.39359999999,
      "d": 160.57676250000077,
      "v": 79
    },
    {
      "midi": 72,
      "hit": false,
      "t": 27258.89298749999,
      "d": 158.65368749999834,
      "v": 90
    },
    {
      "midi": 69,
      "hit": false,
      "t": 27258.89298749999,
      "d": 158.65368749999834,
      "v": 80
    },
    {
      "midi": 72,
      "hit": false,
      "t": 27560.815762499988,
      "d": 159.61522500000137,
      "v": 89
    },
    {
      "midi": 69,
      "hit": false,
      "t": 27560.815762499988,
      "d": 159.61522500000137,
      "v": 79
    },
    {
      "midi": 72,
      "hit": false,
      "t": 28190.622824999988,
      "d": 158.65368749999834,
      "v": 90
    },
    {
      "midi": 69,
      "hit": false,
      "t": 28190.622824999988,
      "d": 158.65368749999834,
      "v": 80
    },
    {
      "midi": 72,
      "hit": false,
      "t": 28492.545599999987,
      "d": 160.57676250000077,
      "v": 89
    },
    {
      "midi": 69,
      "hit": false,
      "t": 28492.545599999987,
      "d": 160.57676250000077,
      "v": 79
    },
    {
      "midi": 39,
      "hit": false,
      "t": 28952.16052499999,
      "d": 140.38447499999893,
      "v": 88
    },
    {
      "midi": 72,
      "hit": false,
      "t": 29105.044987499987,
      "d": 158.65368749999834,
      "v": 90
    },
    {
      "midi": 69,
      "hit": false,
      "t": 29105.044987499987,
      "d": 158.65368749999834,
      "v": 80
    },
    {
      "midi": 40,
      "hit": false,
      "t": 29105.044987499987,
      "d": 455.76877500000046,
      "v": 90
    },
    {
      "midi": 72,
      "hit": false,
      "t": 29406.967762499986,
      "d": 159.61522500000137,
      "v": 89
    },
    {
      "midi": 69,
      "hit": false,
      "t": 29406.967762499986,
      "d": 159.61522500000137,
      "v": 79
    }
  ]
}