{
  "jsonPath": "Soundtracks/Video Game Music/Monkey Island 1/monkey-island-1-the-secret-of-monkey-island-forest-by-w3sp.json",
  "path": "Soundtracks\\Video Game Music\\Monkey Island 1\\Monkey_Island_1_-_The_Secret_of_Monkey_Island_-_Forest_by_w3sp.mid",
  "name": "Monkey_Island_1_-_The_Secret_of_Monkey_Island_-_Forest_by_w3sp",
  "difficulty": "Advanced",
  "bpm": 140.00014000014,
  "notes": [
    {
      "midi": 68,
      "hit": false,
      "t": 3.5714250000000005,
      "d": 1709.8197187500002,
      "v": 114
    },
    {
      "midi": 59,
      "hit": false,
      "t": 3.5714250000000005,
      "d": 1709.8197187500002,
      "v": 100
    },
    {
      "midi": 74,
      "hit": false,
      "t": 441.07098750000006,
      "d": 198.21408750000006,
      "v": 70
    },
    {
      "midi": 65,
      "hit": false,
      "t": 441.07098750000006,
      "d": 198.21408750000006,
      "v": 90
    },
    {
      "midi": 62,
      "hit": false,
      "t": 441.07098750000006,
      "d": 198.21408750000006,
      "v": 90
    },
    {
      "midi": 38,
      "hit": false,
      "t": 721.4278500000001,
      "d": 135.71415000000002,
      "v": 127
    },
    {
      "midi": 43,
      "hit": false,
      "t": 865.1777062500001,
      "d": 252.67831875000013,
      "v": 119
    },
    {
      "midi": 43,
      "hit": false,
      "t": 1148.2131375000004,
      "d": 300.89255624999987,
      "v": 119
    },
    {
      "midi": 74,
      "hit": false,
      "t": 1290.1772812500003,
      "d": 198.2140875,
      "v": 66
    },
    {
      "midi": 65,
      "hit": false,
      "t": 1290.1772812500003,
      "d": 198.2140875,
      "v": 101
    },
    {
      "midi": 62,
      "hit": false,
      "t": 1290.1772812500003,
      "d": 198.2140875,
      "v": 101
    },
    {
      "midi": 60,
      "hit": false,
      "t": 1715.1768562500004,
      "d": 1712.4982875000003,
      "v": 100
    },
    {
      "midi": 74,
      "hit": false,
      "t": 2155.3549875000003,
      "d": 198.2140875,
      "v": 66
    },
    {
      "midi": 67,
      "hit": false,
      "t": 2155.3549875000003,
      "d": 198.2140875,
      "v": 101
    },
    {
      "midi": 63,
      "hit": false,
      "t": 2155.3549875000003,
      "d": 198.2140875,
      "v": 101
    },
    {
      "midi": 55,
      "hit": false,
      "t": 2435.71185,
      "d": 135.71415000000025,
      "v": 127
    },
    {
      "midi": 48,
      "hit": false,
      "t": 2579.4617062500006,
      "d": 266.0711624999999,
      "v": 127
    },
    {
      "midi": 50,
      "hit": false,
      "t": 2862.4971375000005,
      "d": 266.9640187499999,
      "v": 127
    },
    {
      "midi": 74,
      "hit": false,
      "t": 3004.4612812500004,
      "d": 198.2140875,
      "v": 66
    },
    {
      "midi": 67,
      "hit": false,
      "t": 3004.4612812500004,
      "d": 198.2140875,
      "v": 101
    },
    {
      "midi": 63,
      "hit": false,
      "t": 3004.4612812500004,
      "d": 198.2140875,
      "v": 101
    },
    {
      "midi": 51,
      "hit": false,
      "t": 3147.3182812500004,
      "d": 263.3925937500003,
      "v": 127
    },
    {
      "midi": 50,
      "hit": false,
      "t": 3429.4608562500007,
      "d": 439.2852750000002,
      "v": 127
    },
    {
      "midi": 70,
      "hit": false,
      "t": 3429.4608562500007,
      "d": 1712.4982875000014,
      "v": 114
    },
    {
      "midi": 74,
      "hit": false,
      "t": 3869.638987500001,
      "d": 198.2140875,
      "v": 66
    },
    {
      "midi": 65,
      "hit": false,
      "t": 3869.638987500001,
      "d": 198.2140875,
      "v": 101
    },
    {
      "midi": 62,
      "hit": false,
      "t": 3869.638987500001,
      "d": 198.2140875,
      "v": 101
    },
    {
      "midi": 46,
      "hit": false,
      "t": 3869.638987500001,
      "d": 249.10689374999993,
      "v": 119
    },
    {
      "midi": 46,
      "hit": false,
      "t": 4149.995850000001,
      "d": 305.35683750000044,
      "v": 119
    },
    {
      "midi": 74,
      "hit": false,
      "t": 4718.745281250001,
      "d": 198.21408750000046,
      "v": 66
    },
    {
      "midi": 65,
      "hit": false,
      "t": 4718.745281250001,
      "d": 198.21408750000046,
      "v": 101
    },
    {
      "midi": 62,
      "hit": false,
      "t": 4718.745281250001,
      "d": 198.21408750000046,
      "v": 101
    },
    {
      "midi": 60,
      "hit": false,
      "t": 5143.744856250002,
      "d": 1712.4982875000014,
      "v": 100
    },
    {
      "midi": 39,
      "hit": false,
      "t": 5583.922987500002,
      "d": 149.99985000000015,
      "v": 119
    },
    {
      "midi": 74,
      "hit": false,
      "t": 5583.922987500002,
      "d": 198.21408750000046,
      "v": 66
    },
    {
      "midi": 68,
      "hit": false,
      "t": 5583.922987500002,
      "d": 198.21408750000046,
      "v": 101
    },
    {
      "midi": 63,
      "hit": false,
      "t": 5583.922987500002,
      "d": 198.21408750000046,
      "v": 101
    },
    {
      "midi": 39,
      "hit": false,
      "t": 5864.279850000003,
      "d": 151.7855625000002,
      "v": 119
    },
    {
      "midi": 44,
      "hit": false,
      "t": 6008.029706250003,
      "d": 252.67831874999956,
      "v": 119
    },
    {
      "midi": 44,
      "hit": false,
      "t": 6291.0651375000025,
      "d": 300.8925562500008,
      "v": 119
    },
    {
      "midi": 74,
      "hit": false,
      "t": 6433.029281250003,
      "d": 198.21408750000046,
      "v": 66
    },
    {
      "midi": 68,
      "hit": false,
      "t": 6433.029281250003,
      "d": 198.21408750000046,
      "v": 101
    },
    {
      "midi": 63,
      "hit": false,
      "t": 6433.029281250003,
      "d": 198.21408750000046,
      "v": 101
    },
    {
      "midi": 59,
      "hit": false,
      "t": 6858.028856250004,
      "d": 3426.782287500003,
      "v": 100
    },
    {
      "midi": 38,
      "hit": false,
      "t": 7154.457131250004,
      "d": 133.92843749999975,
      "v": 127
    },
    {
      "midi": 74,
      "hit": false,
      "t": 7298.206987500003,
      "d": 198.21408750000046,
      "v": 66
    },
    {
      "midi": 67,
      "hit": false,
      "t": 7298.206987500003,
      "d": 198.21408750000046,
      "v": 101
    },
    {
      "midi": 62,
      "hit": false,
      "t": 7298.206987500003,
      "d": 198.21408750000046,
      "v": 101
    },
    {
      "midi": 43,
      "hit": false,
      "t": 7298.206987500003,
      "d": 249.10689375000038,
      "v": 119
    },
    {
      "midi": 43,
      "hit": false,
      "t": 7578.563850000004,
      "d": 305.35683750000044,
      "v": 119
    },
    {
      "midi": 74,
      "hit": false,
      "t": 8147.313281250004,
      "d": 198.21408750000046,
      "v": 70
    },
    {
      "midi": 67,
      "hit": false,
      "t": 8147.313281250004,
      "d": 198.21408750000046,
      "v": 90
    },
    {
      "midi": 62,
      "hit": false,
      "t": 8147.313281250004,
      "d": 198.21408750000046,
      "v": 90
    },
    {
      "midi": 74,
      "hit": false,
      "t": 9012.490987500005,
      "d": 198.21408750000046,
      "v": 70
    },
    {
      "midi": 67,
      "hit": false,
      "t": 9012.490987500005,
      "d": 198.21408750000046,
      "v": 90
    },
    {
      "midi": 62,
      "hit": false,
      "t": 9012.490987500005,
      "d": 198.21408750000046,
      "v": 90
    },
    {
      "midi": 74,
      "hit": false,
      "t": 9861.597281250006,
      "d": 198.21408750000046,
      "v": 66
    },
    {
      "midi": 67,
      "hit": false,
      "t": 9861.597281250006,
      "d": 198.21408750000046,
      "v": 101
    },
    {
      "midi": 62,
      "hit": false,
      "t": 9861.597281250006,
      "d": 198.21408750000046,
      "v": 90
    },
    {
      "midi": 68,
      "hit": false,
      "t": 10286.596856250007,
      "d": 1712.4982875000005,
      "v": 114
    },
    {
      "midi": 59,
      "hit": false,
      "t": 10286.596856250007,
      "d": 1712.4982875000005,
      "v": 100
    },
    {
      "midi": 74,
      "hit": false,
      "t": 10726.774987500008,
      "d": 198.21408750000046,
      "v": 66
    },
    {
      "midi": 65,
      "hit": false,
      "t": 10726.774987500008,
      "d": 198.21408750000046,
      "v": 101
    },
    {
      "midi": 62,
      "hit": false,
      "t": 10726.774987500008,
      "d": 198.21408750000046,
      "v": 90
    },
    {
      "midi": 38,
      "hit": false,
      "t": 11007.131850000009,
      "d": 135.7141499999998,
      "v": 127
    },
    {
      "midi": 50,
      "hit": false,
      "t": 11150.88170625001,
      "d": 200.89265625000007,
      "v": 127
    },
    {
      "midi": 43,
      "hit": false,
      "t": 11364.274350000009,
      "d": 199.10694374999912,
      "v": 127
    },
    {
      "midi": 74,
      "hit": false,
      "t": 11575.881281250007,
      "d": 198.21408750000046,
      "v": 66
    },
    {
      "midi": 65,
      "hit": false,
      "t": 11575.881281250007,
      "d": 198.21408750000046,
      "v": 101
    },
    {
      "midi": 62,
      "hit": false,
      "t": 11575.881281250007,
      "d": 198.21408750000046,
      "v": 101
    },
    {
      "midi": 47,
      "hit": false,
      "t": 11856.238143750008,
      "d": 134.8212937499993,
      "v": 127
    },
    {
      "midi": 48,
      "hit": false,
      "t": 12000.880856250007,
      "d": 148.2141374999992,
      "v": 127
    },
    {
      "midi": 60,
      "hit": false,
      "t": 12000.880856250007,
      "d": 1712.4982875000005,
      "v": 100
    },
    {
      "midi": 36,
      "hit": false,
      "t": 12297.309131250006,
      "d": 133.92843750000065,
      "v": 126
    },
    {
      "midi": 74,
      "hit": false,
      "t": 12441.058987500006,
      "d": 198.21408750000046,
      "v": 66
    },
    {
      "midi": 67,
      "hit": false,
      "t": 12441.058987500006,
      "d": 198.21408750000046,
      "v": 100
    },
    {
      "midi": 63,
      "hit": false,
      "t": 12441.058987500006,
      "d": 198.21408750000046,
      "v": 100
    },
    {
      "midi": 39,
      "hit": false,
      "t": 12441.058987500006,
      "d": 424.10671875000116,
      "v": 127
    },
    {
      "midi": 74,
      "hit": false,
      "t": 13290.165281250007,
      "d": 198.21408750000046,
      "v": 66
    },
    {
      "midi": 67,
      "hit": false,
      "t": 13290.165281250007,
      "d": 198.21408750000046,
      "v": 100
    },
    {
      "midi": 63,
      "hit": false,
      "t": 13290.165281250007,
      "d": 198.21408750000046,
      "v": 100
    },
    {
      "midi": 70,
      "hit": false,
      "t": 13715.164856250009,
      "d": 1712.4982875000023,
      "v": 114
    },
    {
      "midi": 74,
      "hit": false,
      "t": 14155.34298750001,
      "d": 198.21408750000046,
      "v": 66
    },
    {
      "midi": 65,
      "hit": false,
      "t": 14155.34298750001,
      "d": 198.21408750000046,
      "v": 100
    },
    {
      "midi": 62,
      "hit": false,
      "t": 14155.34298750001,
      "d": 198.21408750000046,
      "v": 100
    },
    {
      "midi": 58,
      "hit": false,
      "t": 14435.69985000001,
      "d": 135.7141499999998,
      "v": 127
    },
    {
      "midi": 50,
      "hit": false,
      "t": 14579.44970625001,
      "d": 266.07116250000036,
      "v": 127
    },
    {
      "midi": 51,
      "hit": false,
      "t": 14862.48513750001,
      "d": 266.964018749999,
      "v": 127
    },
    {
      "midi": 74,
      "hit": false,
      "t": 15004.44928125001,
      "d": 198.21408750000046,
      "v": 66
    },
    {
      "midi": 65,
      "hit": false,
      "t": 15004.44928125001,
      "d": 198.21408750000046,
      "v": 100
    },
    {
      "midi": 62,
      "hit": false,
      "t": 15004.44928125001,
      "d": 198.21408750000046,
      "v": 100
    },
    {
      "midi": 53,
      "hit": false,
      "t": 15147.30628125001,
      "d": 263.39259375000074,
      "v": 127
    },
    {
      "midi": 56,
      "hit": false,
      "t": 15429.44885625001,
      "d": 213.39264374999948,
      "v": 127
    },
    {
      "midi": 60,
      "hit": false,
      "t": 15429.44885625001,
      "d": 1712.4982875000005,
      "v": 100
    },
    {
      "midi": 74,
      "hit": false,
      "t": 15869.626987500009,
      "d": 198.21408750000046,
      "v": 66
    },
    {
      "midi": 68,
      "hit": false,
      "t": 15869.626987500009,
      "d": 198.21408750000046,
      "v": 100
    },
    {
      "midi": 63,
      "hit": false,
      "t": 15869.626987500009,
      "d": 198.21408750000046,
      "v": 100
    },
    {
      "midi": 48,
      "hit": false,
      "t": 15869.626987500009,
      "d": 262.49973750000026,
      "v": 127
    },
    {
      "midi": 51,
      "hit": false,
      "t": 16149.98385000001,
      "d": 271.4283000000014,
      "v": 127
    },
    {
      "midi": 74,
      "hit": false,
      "t": 16718.73328125001,
      "d": 198.21408750000046,
      "v": 66
    },
    {
      "midi": 68,
      "hit": false,
      "t": 16718.73328125001,
      "d": 198.21408750000046,
      "v": 100
    },
    {
      "midi": 63,
      "hit": false,
      "t": 16718.73328125001,
      "d": 198.21408750000046,
      "v": 100
    },
    {
      "midi": 56,
      "hit": false,
      "t": 16999.09014375001,
      "d": 134.8212937499993,
      "v": 127
    },
    {
      "midi": 55,
      "hit": false,
      "t": 17143.73285625001,
      "d": 148.2141374999992,
      "v": 127
    },
    {
      "midi": 59,
      "hit": false,
      "t": 17143.73285625001,
      "d": 3426.782287500002,
      "v": 100
    },
    {
      "midi": 50,
      "hit": false,
      "t": 17440.16113125001,
      "d": 133.92843749999884,
      "v": 127
    },
    {
      "midi": 74,
      "hit": false,
      "t": 17583.91098750001,
      "d": 198.21408750000046,
      "v": 66
    },
    {
      "midi": 67,
      "hit": false,
      "t": 17583.91098750001,
      "d": 198.21408750000046,
      "v": 100
    },
    {
      "midi": 62,
      "hit": false,
      "t": 17583.91098750001,
      "d": 198.21408750000046,
      "v": 100
    },
    {
      "midi": 47,
      "hit": false,
      "t": 17725.87513125001,
      "d": 129.4641562500001,
      "v": 127
    },
    {
      "midi": 43,
      "hit": false,
      "t": 18008.01770625001,
      "d": 424.99957500000164,
      "v": 127
    },
    {
      "midi": 74,
      "hit": false,
      "t": 18433.017281250013,
      "d": 198.21408750000046,
      "v": 70
    },
    {
      "midi": 67,
      "hit": false,
      "t": 18433.017281250013,
      "d": 198.21408750000046,
      "v": 89
    },
    {
      "midi": 62,
      "hit": false,
      "t": 18433.017281250013,
      "d": 198.21408750000046,
      "v": 89
    },
    {
      "midi": 74,
      "hit": false,
      "t": 19298.194987500014,
      "d": 198.21408750000046,
      "v": 70
    },
    {
      "midi": 67,
      "hit": false,
      "t": 19298.194987500014,
      "d": 198.21408750000046,
      "v": 89
    },
    {
      "midi": 62,
      "hit": false,
      "t": 19298.194987500014,
      "d": 198.21408750000046,
      "v": 89
    },
    {
      "midi": 38,
      "hit": false,
      "t": 19578.551850000014,
      "d": 135.7141499999998,
      "v": 127
    },
    {
      "midi": 43,
      "hit": false,
      "t": 19722.301706250015,
      "d": 135.7141499999998,
      "v": 127
    },
    {
      "midi": 43,
      "hit": false,
      "t": 20005.337137500013,
      "d": 133.03558124999836,
      "v": 127
    },
    {
      "midi": 74,
      "hit": false,
      "t": 20147.301281250013,
      "d": 198.21408750000046,
      "v": 66
    },
    {
      "midi": 67,
      "hit": false,
      "t": 20147.301281250013,
      "d": 198.21408750000046,
      "v": 100
    },
    {
      "midi": 62,
      "hit": false,
      "t": 20147.301281250013,
      "d": 198.21408750000046,
      "v": 89
    },
    {
      "midi": 47,
      "hit": false,
      "t": 20427.658143750014,
      "d": 134.8212937499993,
      "v": 127
    },
    {
      "midi": 50,
      "hit": false,
      "t": 20572.300856250014,
      "d": 148.2141374999992,
      "v": 127
    },
    {
      "midi": 66,
      "hit": false,
      "t": 20572.300856250014,
      "d": 3426.7822874999983,
      "v": 114
    },
    {
      "midi": 57,
      "hit": false,
      "t": 20572.300856250014,
      "d": 3426.7822874999983,
      "v": 100
    },
    {
      "midi": 38,
      "hit": false,
      "t": 20868.729131250013,
      "d": 133.92843749999884,
      "v": 127
    },
    {
      "midi": 74,
      "hit": false,
      "t": 21012.478987500013,
      "d": 198.21408750000046,
      "v": 66
    },
    {
      "midi": 69,
      "hit": false,
      "t": 21012.478987500013,
      "d": 198.21408750000046,
      "v": 13
    },
    {
      "midi": 62,
      "hit": false,
      "t": 21012.478987500013,
      "d": 198.21408750000046,
      "v": 89
    },
    {
      "midi": 74,
      "hit": false,
      "t": 21861.585281250012,
      "d": 198.21408750000046,
      "v": 70
    },
    {
      "midi": 69,
      "hit": false,
      "t": 21861.585281250012,
      "d": 198.21408750000046,
      "v": 2
    },
    {
      "midi": 62,
      "hit": false,
      "t": 21861.585281250012,
      "d": 198.21408750000046,
      "v": 89
    },
    {
      "midi": 74,
      "hit": false,
      "t": 22726.762987500013,
      "d": 198.21408750000046,
      "v": 70
    },
    {
      "midi": 69,
      "hit": false,
      "t": 22726.762987500013,
      "d": 198.21408750000046,
      "v": 2
    },
    {
      "midi": 62,
      "hit": false,
      "t": 22726.762987500013,
      "d": 198.21408750000046,
      "v": 89
    },
    {
      "midi": 37,
      "hit": false,
      "t": 23007.119850000014,
      "d": 135.7141499999998,
      "v": 127
    },
    {
      "midi": 38,
      "hit": false,
      "t": 23150.869706250014,
      "d": 135.7141499999998,
      "v": 127
    },
    {
      "midi": 42,
      "hit": false,
      "t": 23433.905137500013,
      "d": 133.03558124999836,
      "v": 127
    },
    {
      "midi": 74,
      "hit": false,
      "t": 23575.869281250012,
      "d": 198.21408750000046,
      "v": 66
    },
    {
      "midi": 69,
      "hit": false,
      "t": 23575.869281250012,
      "d": 198.21408750000046,
      "v": 13
    },
    {
      "midi": 62,
      "hit": false,
      "t": 23575.869281250012,
      "d": 198.21408750000046,
      "v": 100
    },
    {
      "midi": 42,
      "hit": false,
      "t": 23856.226143750013,
      "d": 134.8212937499993,
      "v": 127
    },
    {
      "midi": 43,
      "hit": false,
      "t": 24000.868856250014,
      "d": 148.2141374999992,
      "v": 127
    },
    {
      "midi": 58,
      "hit": false,
      "t": 24000.868856250014,
      "d": 1712.498287499995,
      "v": 100
    },
    {
      "midi": 51,
      "hit": false,
      "t": 24297.297131250012,
      "d": 133.92843749999884,
      "v": 127
    },
    {
      "midi": 46,
      "hit": false,
      "t": 24441.046987500013,
      "d": 133.03558124999836,
      "v": 127
    },
    {
      "midi": 74,
      "hit": false,
      "t": 24441.046987500013,
      "d": 198.21408749999682,
      "v": 66
    },
    {
      "midi": 67,
      "hit": false,
      "t": 24441.046987500013,
      "d": 198.21408749999682,
      "v": 100
    },
    {
      "midi": 63,
      "hit": false,
      "t": 24441.046987500013,
      "d": 198.21408749999682,
      "v": 100
    },
    {
      "midi": 74,
      "hit": false,
      "t": 25290.153281250008,
      "d": 198.21408750000046,
      "v": 66
    },
    {
      "midi": 67,
      "hit": false,
      "t": 25290.153281250008,
      "d": 198.21408750000046,
      "v": 100
    },
    {
      "midi": 63,
      "hit": false,
      "t": 25290.153281250008,
      "d": 198.21408750000046,
      "v": 100
    },
    {
      "midi": 45,
      "hit": false,
      "t": 25570.51014375001,
      "d": 134.8212937499993,
      "v": 127
    },
    {
      "midi": 46,
      "hit": false,
      "t": 25714.26000000001,
      "d": 146.42842499999824,
      "v": 127
    },
    {
      "midi": 58,
      "hit": false,
      "t": 25714.26000000001,
      "d": 864.9235104166655,
      "v": 100
    },
    {
      "midi": 50,
      "hit": false,
      "t": 26008.902562500007,
      "d": 133.92843749999884,
      "v": 127
    },
    {
      "midi": 53,
      "hit": false,
      "t": 26151.759562500007,
      "d": 198.11575625000114,
      "v": 127
    },
    {
      "midi": 74,
      "hit": false,
      "t": 26151.759562500007,
      "d": 198.11575625000114,
      "v": 68
    },
    {
      "midi": 65,
      "hit": false,
      "t": 26151.759562500007,
      "d": 198.11575625000114,
      "v": 102
    },
    {
      "midi": 62,
      "hit": false,
      "t": 26151.759562500007,
      "d": 198.11575625000114,
      "v": 102
    },
    {
      "midi": 57,
      "hit": false,
      "t": 26363.561443750008,
      "d": 202.6591166666658,
      "v": 127
    },
    {
      "midi": 60,
      "hit": false,
      "t": 26581.035360416674,
      "d": 1716.433468750005,
      "v": 100
    },
    {
      "midi": 41,
      "hit": false,
      "t": 26881.398816666675,
      "d": 150.89270625000063,
      "v": 119
    },
    {
      "midi": 74,
      "hit": false,
      "t": 27025.148672916675,
      "d": 198.21408750000046,
      "v": 66
    },
    {
      "midi": 69,
      "hit": false,
      "t": 27025.148672916675,
      "d": 198.21408750000046,
      "v": 100
    },
    {
      "midi": 65,
      "hit": false,
      "t": 27025.148672916675,
      "d": 198.21408750000046,
      "v": 89
    },
    {
      "midi": 41,
      "hit": false,
      "t": 27305.505535416676,
      "d": 151.7855625000011,
      "v": 119
    },
    {
      "midi": 74,
      "hit": false,
      "t": 27874.25496666668,
      "d": 198.21408750000046,
      "v": 66
    },
    {
      "midi": 69,
      "hit": false,
      "t": 27874.25496666668,
      "d": 198.21408750000046,
      "v": 89
    },
    {
      "midi": 65,
      "hit": false,
      "t": 27874.25496666668,
      "d": 198.21408750000046,
      "v": 100
    },
    {
      "midi": 41,
      "hit": false,
      "t": 28154.61182916668,
      "d": 134.8212937499993,
      "v": 127
    },
    {
      "midi": 42,
      "hit": false,
      "t": 28299.25454166668,
      "d": 148.2141374999992,
      "v": 127
    },
    {
      "midi": 66,
      "hit": false,
      "t": 28299.25454166668,
      "d": 3426.782287500002,
      "v": 111
    },
    {
      "midi": 50,
      "hit": false,
      "t": 28595.68281666668,
      "d": 133.92843749999884,
      "v": 127
    },
    {
      "midi": 74,
      "hit": false,
      "t": 28739.43267291668,
      "d": 198.21408750000046,
      "v": 66
    },
    {
      "midi": 69,
      "hit": false,
      "t": 28739.43267291668,
      "d": 198.21408750000046,
      "v": 89
    },
    {
      "midi": 62,
      "hit": false,
      "t": 28739.43267291668,
      "d": 198.21408750000046,
      "v": 100
    },
    {
      "midi": 38,
      "hit": false,
      "t": 28739.43267291668,
      "d": 424.10671875000116,
      "v": 127
    },
    {
      "midi": 38,
      "hit": false,
      "t": 29588.53896666668,
      "d": 149.99985000000015,
      "v": 119
    },
    {
      "midi": 74,
      "hit": false,
      "t": 29588.53896666668,
      "d": 198.21408750000046,
      "v": 70
    },
    {
      "midi": 69,
      "hit": false,
      "t": 29588.53896666668,
      "d": 198.21408750000046,
      "v": 89
    },
    {
      "midi": 62,
      "hit": false,
      "t": 29588.53896666668,
      "d": 198.21408750000046,
      "v": 89
    },
    {
      "midi": 38,
      "hit": false,
      "t": 29868.895829166682,
      "d": 150.89270625000063,
      "v": 119
    },
    {
      "midi": 74,
      "hit": false,
      "t": 30453.716672916682,
      "d": 198.21408750000046,
      "v": 70
    },
    {
      "midi": 69,
      "hit": false,
      "t": 30453.716672916682,
      "d": 198.21408750000046,
      "v": 89
    },
    {
      "midi": 62,
      "hit": false,
      "t": 30453.716672916682,
      "d": 198.21408750000046,
      "v": 89
    },
    {
      "midi": 74,
      "hit": false,
      "t": 31302.82296666668,
      "d": 198.21408750000046,
      "v": 66
    },
    {
      "midi": 69,
      "hit": false,
      "t": 31302.82296666668,
      "d": 198.21408750000046,
      "v": 100
    },
    {
      "midi": 62,
      "hit": false,
      "t": 31302.82296666668,
      "d": 198.21408750000046,
      "v": 100
    },
    {
      "midi": 58,
      "hit": false,
      "t": 31727.822541666683,
      "d": 1712.4982874999841,
      "v": 100
    },
    {
      "midi": 38,
      "hit": false,
      "t": 32024.25081666668,
      "d": 133.92843749999884,
      "v": 127
    },
    {
      "midi": 39,
      "hit": false,
      "t": 32168.00067291668,
      "d": 133.03558124999836,
      "v": 127
    },
    {
      "midi": 74,
      "hit": false,
      "t": 32168.00067291668,
      "d": 198.21408749999682,
      "v": 66
    },
    {
      "midi": 67,
      "hit": false,
      "t": 32168.00067291668,
      "d": 198.21408749999682,
      "v": 100
    },
    {
      "midi": 63,
      "hit": false,
      "t": 32168.00067291668,
      "d": 198.21408749999682,
      "v": 100
    },
    {
      "midi": 39,
      "hit": false,
      "t": 32448.35753541668,
      "d": 135.7141499999998,
      "v": 127
    },
    {
      "midi": 43,
      "hit": false,
      "t": 32875.14282291668,
      "d": 133.03558124999836,
      "v": 127
    },
    {
      "midi": 74,
      "hit": false,
      "t": 33017.10696666667,
      "d": 198.21408749999682,
      "v": 66
    },
    {
      "midi": 67,
      "hit": false,
      "t": 33017.10696666667,
      "d": 198.21408749999682,
      "v": 100
    },
    {
      "midi": 63,
      "hit": false,
      "t": 33017.10696666667,
      "d": 198.21408749999682,
      "v": 100
    },
    {
      "midi": 46,
      "hit": false,
      "t": 33297.46382916667,
      "d": 134.8212937499993,
      "v": 127
    },
    {
      "midi": 58,
      "hit": false,
      "t": 33441.21368541667,
      "d": 856.2491437499993,
      "v": 100
    },
    {
      "midi": 74,
      "hit": false,
      "t": 33878.71324791667,
      "d": 196.42837500000314,
      "v": 68
    },
    {
      "midi": 65,
      "hit": false,
      "t": 33878.71324791667,
      "d": 196.42837500000314,
      "v": 102
    },
    {
      "midi": 62,
      "hit": false,
      "t": 33878.71324791667,
      "d": 196.42837500000314,
      "v": 102
    },
    {
      "midi": 46,
      "hit": false,
      "t": 34155.49868541667,
      "d": 133.92843749999884,
      "v": 127
    },
    {
      "midi": 45,
      "hit": false,
      "t": 34299.24854166667,
      "d": 148.2141374999992,
      "v": 127
    },
    {
      "midi": 60,
      "hit": false,
      "t": 34299.24854166667,
      "d": 1727.4227458333262,
      "v": 100
    },
    {
      "midi": 48,
      "hit": false,
      "t": 34595.676816666666,
      "d": 133.92843749999884,
      "v": 127
    },
    {
      "midi": 53,
      "hit": false,
      "t": 34739.42667291666,
      "d": 133.03558124999836,
      "v": 127
    },
    {
      "midi": 74,
      "hit": false,
      "t": 34739.42667291666,
      "d": 198.21408749999682,
      "v": 66
    },
    {
      "midi": 69,
      "hit": false,
      "t": 34739.42667291666,
      "d": 198.21408749999682,
      "v": 100
    },
    {
      "midi": 65,
      "hit": false,
      "t": 34739.42667291666,
      "d": 198.21408749999682,
      "v": 89
    },
    {
      "midi": 57,
      "hit": false,
      "t": 35019.78353541666,
      "d": 135.7141499999998,
      "v": 127
    },
    {
      "midi": 74,
      "hit": false,
      "t": 35591.55295416666,
      "d": 202.6771249999947,
      "v": 66
    },
    {
      "midi": 69,
      "hit": false,
      "t": 35591.55295416666,
      "d": 202.6771249999947,
      "v": 89
    },
    {
      "midi": 65,
      "hit": false,
      "t": 35591.55295416666,
      "d": 202.6771249999947,
      "v": 100
    },
    {
      "midi": 66,
      "hit": false,
      "t": 36028.52313749999,
      "d": 1716.4334687499868,
      "v": 100
    },
    {
      "midi": 38,
      "hit": false,
      "t": 36328.886593749994,
      "d": 150.89270624999335,
      "v": 119
    },
    {
      "midi": 74,
      "hit": false,
      "t": 36472.63644999999,
      "d": 198.21408749999682,
      "v": 66
    },
    {
      "midi": 69,
      "hit": false,
      "t": 36472.63644999999,
      "d": 198.21408749999682,
      "v": 89
    },
    {
      "midi": 62,
      "hit": false,
      "t": 36472.63644999999,
      "d": 198.21408749999682,
      "v": 100
    },
    {
      "midi": 38,
      "hit": false,
      "t": 36752.99331249999,
      "d": 151.7855625000011,
      "v": 119
    },
    {
      "midi": 74,
      "hit": false,
      "t": 37321.74274374999,
      "d": 198.21408749999682,
      "v": 66
    },
    {
      "midi": 69,
      "hit": false,
      "t": 37321.74274374999,
      "d": 198.21408749999682,
      "v": 100
    },
    {
      "midi": 62,
      "hit": false,
      "t": 37321.74274374999,
      "d": 198.21408749999682,
      "v": 89
    },
    {
      "midi": 42,
      "hit": false,
      "t": 37602.09960624998,
      "d": 134.8212937499993,
      "v": 127
    },
    {
      "midi": 43,
      "hit": false,
      "t": 37746.74231874998,
      "d": 148.2141374999992,
      "v": 127
    },
    {
      "midi": 59,
      "hit": false,
      "t": 37746.74231874998,
      "d": 3426.7822874999765,
      "v": 100
    },
    {
      "midi": 47,
      "hit": false,
      "t": 38043.17059374998,
      "d": 133.92843749999884,
      "v": 127
    },
    {
      "midi": 50,
      "hit": false,
      "t": 38186.920449999976,
      "d": 198.21408749999682,
      "v": 127
    },
    {
      "midi": 74,
      "hit": false,
      "t": 38186.920449999976,
      "d": 198.21408749999682,
      "v": 66
    },
    {
      "midi": 67,
      "hit": false,
      "t": 38186.920449999976,
      "d": 198.21408749999682,
      "v": 100
    },
    {
      "midi": 62,
      "hit": false,
      "t": 38186.920449999976,
      "d": 198.21408749999682,
      "v": 89
    },
    {
      "midi": 74,
      "hit": false,
      "t": 39036.02674374997,
      "d": 198.21408749999682,
      "v": 70
    },
    {
      "midi": 67,
      "hit": false,
      "t": 39036.02674374997,
      "d": 198.21408749999682,
      "v": 89
    },
    {
      "midi": 62,
      "hit": false,
      "t": 39036.02674374997,
      "d": 198.21408749999682,
      "v": 89
    },
    {
      "midi": 74,
      "hit": false,
      "t": 39901.20444999997,
      "d": 198.21408749999682,
      "v": 70
    },
    {
      "midi": 67,
      "hit": false,
      "t": 39901.20444999997,
      "d": 198.21408749999682,
      "v": 89
    },
    {
      "midi": 62,
      "hit": false,
      "t": 39901.20444999997,
      "d": 198.21408749999682,
      "v": 89
    },
    {
      "midi": 74,
      "hit": false,
      "t": 40750.310743749964,
      "d": 198.21408749999682,
      "v": 74
    },
    {
      "midi": 67,
      "hit": false,
      "t": 40750.310743749964,
      "d": 198.21408749999682,
      "v": 89
    },
    {
      "midi": 62,
      "hit": false,
      "t": 40750.310743749964,
      "d": 198.21408749999682,
      "v": 89
    }
  ]
}