{
  "jsonPath": "Classical/Classical/Vladimir Horowitz/kinderszenen-op-15-scenes-from-childhood4-bittendes-kind.json",
  "path": "Classical\\Classical\\Vladimir Horowitz\\Kinderszenen_ Op 15 Scenes from Childhood4 Bittendes Kind.mid",
  "name": "Kinderszenen_ Op 15 Scenes from Childhood4 Bittendes Kind",
  "difficulty": "Advanced",
  "bpm": 120,
  "notes": [
    {
      "midi": 71,
      "hit": false,
      "t": 5.208333333333333,
      "d": 546.875,
      "v": 64
    },
    {
      "midi": 67,
      "hit": false,
      "t": 20.833333333333332,
      "d": 260.4166666666667,
      "v": 27
    },
    {
      "midi": 57,
      "hit": false,
      "t": 31.25,
      "d": 109.375,
      "v": 17
    },
    {
      "midi": 64,
      "hit": false,
      "t": 484.375,
      "d": 67.70833333333337,
      "v": 20
    },
    {
      "midi": 79,
      "hit": false,
      "t": 880.2083333333334,
      "d": 729.1666666666669,
      "v": 89
    },
    {
      "midi": 71,
      "hit": false,
      "t": 906.25,
      "d": 140.625,
      "v": 35
    },
    {
      "midi": 67,
      "hit": false,
      "t": 1229.1666666666667,
      "d": 93.75,
      "v": 13
    },
    {
      "midi": 78,
      "hit": false,
      "t": 1473.9583333333335,
      "d": 671.875,
      "v": 79
    },
    {
      "midi": 70,
      "hit": false,
      "t": 1479.1666666666667,
      "d": 427.0833333333335,
      "v": 31
    },
    {
      "midi": 61,
      "hit": false,
      "t": 1505.2083333333335,
      "d": 760.416666666667,
      "v": 21
    },
    {
      "midi": 67,
      "hit": false,
      "t": 1781.2500000000002,
      "d": 119.79166666666674,
      "v": 34
    },
    {
      "midi": 69,
      "hit": false,
      "t": 2062.5,
      "d": 145.83333333333348,
      "v": 30
    },
    {
      "midi": 76,
      "hit": false,
      "t": 2067.7083333333335,
      "d": 161.45833333333348,
      "v": 64
    },
    {
      "midi": 67,
      "hit": false,
      "t": 2312.5000000000005,
      "d": 88.54166666666652,
      "v": 38
    },
    {
      "midi": 74,
      "hit": false,
      "t": 2583.3333333333335,
      "d": 322.91666666666606,
      "v": 68
    },
    {
      "midi": 69,
      "hit": false,
      "t": 2593.75,
      "d": 291.6666666666665,
      "v": 39
    },
    {
      "midi": 62,
      "hit": false,
      "t": 2609.375,
      "d": 536.458333333333,
      "v": 36
    },
    {
      "midi": 66,
      "hit": false,
      "t": 2895.833333333333,
      "d": 270.8333333333335,
      "v": 41
    },
    {
      "midi": 71,
      "hit": false,
      "t": 3135.416666666666,
      "d": 364.58333333333394,
      "v": 78
    },
    {
      "midi": 68,
      "hit": false,
      "t": 3140.6249999999995,
      "d": 156.25000000000045,
      "v": 42
    },
    {
      "midi": 65,
      "hit": false,
      "t": 3166.6666666666665,
      "d": 239.58333333333348,
      "v": 59
    },
    {
      "midi": 62,
      "hit": false,
      "t": 3437.5,
      "d": 192.70833333333348,
      "v": 47
    },
    {
      "midi": 73,
      "hit": false,
      "t": 3708.3333333333335,
      "d": 1598.9583333333335,
      "v": 54
    },
    {
      "midi": 69,
      "hit": false,
      "t": 3723.9583333333335,
      "d": 697.9166666666674,
      "v": 40
    },
    {
      "midi": 57,
      "hit": false,
      "t": 3744.791666666667,
      "d": 401.04166666666697,
      "v": 19
    },
    {
      "midi": 64,
      "hit": false,
      "t": 4057.291666666667,
      "d": 234.375,
      "v": 42
    },
    {
      "midi": 61,
      "hit": false,
      "t": 4380.208333333334,
      "d": 125,
      "v": 35
    },
    {
      "midi": 57,
      "hit": false,
      "t": 4697.916666666667,
      "d": 83.33333333333303,
      "v": 27
    },
    {
      "midi": 71,
      "hit": false,
      "t": 5203.125,
      "d": 463.54166666666606,
      "v": 59
    },
    {
      "midi": 45,
      "hit": false,
      "t": 5229.166666666667,
      "d": 333.33333333333303,
      "v": 20
    },
    {
      "midi": 67,
      "hit": false,
      "t": 5239.583333333334,
      "d": 343.7499999999991,
      "v": 13
    },
    {
      "midi": 64,
      "hit": false,
      "t": 5614.583333333333,
      "d": 62.5,
      "v": 32
    },
    {
      "midi": 79,
      "hit": false,
      "t": 5947.916666666666,
      "d": 812.5,
      "v": 62
    },
    {
      "midi": 71,
      "hit": false,
      "t": 5984.374999999999,
      "d": 114.58333333333303,
      "v": 27
    },
    {
      "midi": 67,
      "hit": false,
      "t": 6281.249999999999,
      "d": 72.91666666666697,
      "v": 34
    },
    {
      "midi": 78,
      "hit": false,
      "t": 6656.249999999999,
      "d": 671.875,
      "v": 40
    },
    {
      "midi": 70,
      "hit": false,
      "t": 6671.874999999999,
      "d": 380.20833333333303,
      "v": 24
    },
    {
      "midi": 61,
      "hit": false,
      "t": 6697.916666666666,
      "d": 869.791666666667,
      "v": 15
    },
    {
      "midi": 67,
      "hit": false,
      "t": 7078.124999999999,
      "d": 62.5,
      "v": 4
    },
    {
      "midi": 69,
      "hit": false,
      "t": 7302.083333333332,
      "d": 135.41666666666697,
      "v": 23
    },
    {
      "midi": 76,
      "hit": false,
      "t": 7302.083333333332,
      "d": 192.70833333333394,
      "v": 40
    },
    {
      "midi": 67,
      "hit": false,
      "t": 7625,
      "d": 83.33333333333303,
      "v": 20
    },
    {
      "midi": 74,
      "hit": false,
      "t": 7937.5,
      "d": 625,
      "v": 36
    },
    {
      "midi": 69,
      "hit": false,
      "t": 7947.916666666667,
      "d": 359.3749999999991,
      "v": 21
    },
    {
      "midi": 62,
      "hit": false,
      "t": 7947.916666666667,
      "d": 442.70833333333303,
      "v": 19
    },
    {
      "midi": 66,
      "hit": false,
      "t": 8213.541666666666,
      "d": 192.70833333333394,
      "v": 22
    },
    {
      "midi": 68,
      "hit": false,
      "t": 8510.416666666666,
      "d": 281.2500000000018,
      "v": 25
    },
    {
      "midi": 71,
      "hit": false,
      "t": 8515.625,
      "d": 713.5416666666679,
      "v": 48
    },
    {
      "midi": 65,
      "hit": false,
      "t": 8531.25,
      "d": 177.08333333333394,
      "v": 23
    },
    {
      "midi": 62,
      "hit": false,
      "t": 8822.916666666668,
      "d": 93.75,
      "v": 29
    },
    {
      "midi": 57,
      "hit": false,
      "t": 9182.291666666668,
      "d": 447.9166666666679,
      "v": 17
    },
    {
      "midi": 73,
      "hit": false,
      "t": 9182.291666666668,
      "d": 802.0833333333339,
      "v": 24
    },
    {
      "midi": 69,
      "hit": false,
      "t": 9197.916666666668,
      "d": 796.875,
      "v": 15
    },
    {
      "midi": 64,
      "hit": false,
      "t": 9531.250000000002,
      "d": 328.125,
      "v": 27
    },
    {
      "midi": 61,
      "hit": false,
      "t": 9895.833333333336,
      "d": 98.95833333333212,
      "v": 23
    },
    {
      "midi": 57,
      "hit": false,
      "t": 10296.875000000002,
      "d": 98.95833333333394,
      "v": 15
    },
    {
      "midi": 72,
      "hit": false,
      "t": 10869.79166666667,
      "d": 744.7916666666661,
      "v": 56
    },
    {
      "midi": 69,
      "hit": false,
      "t": 10885.41666666667,
      "d": 343.75,
      "v": 19
    },
    {
      "midi": 50,
      "hit": false,
      "t": 10885.41666666667,
      "d": 927.0833333333339,
      "v": 31
    },
    {
      "midi": 64,
      "hit": false,
      "t": 11208.333333333336,
      "d": 239.58333333333394,
      "v": 44
    },
    {
      "midi": 66,
      "hit": false,
      "t": 11479.16666666667,
      "d": 635.4166666666679,
      "v": 36
    },
    {
      "midi": 69,
      "hit": false,
      "t": 11479.16666666667,
      "d": 666.6666666666679,
      "v": 71
    },
    {
      "midi": 63,
      "hit": false,
      "t": 11760.41666666667,
      "d": 135.41666666666788,
      "v": 51
    },
    {
      "midi": 71,
      "hit": false,
      "t": 12062.500000000004,
      "d": 671.8750000000036,
      "v": 78
    },
    {
      "midi": 67,
      "hit": false,
      "t": 12067.708333333338,
      "d": 317.70833333333394,
      "v": 51
    },
    {
      "midi": 50,
      "hit": false,
      "t": 12125.000000000004,
      "d": 791.6666666666715,
      "v": 33
    },
    {
      "midi": 62,
      "hit": false,
      "t": 12364.583333333338,
      "d": 255.20833333333576,
      "v": 57
    },
    {
      "midi": 66,
      "hit": false,
      "t": 12609.375000000005,
      "d": 619.7916666666679,
      "v": 68
    },
    {
      "midi": 63,
      "hit": false,
      "t": 12614.58333333334,
      "d": 364.58333333333576,
      "v": 57
    },
    {
      "midi": 60,
      "hit": false,
      "t": 12880.208333333341,
      "d": 156.25,
      "v": 46
    },
    {
      "midi": 67,
      "hit": false,
      "t": 13140.625000000007,
      "d": 651.0416666666661,
      "v": 59
    },
    {
      "midi": 62,
      "hit": false,
      "t": 13151.041666666673,
      "d": 296.875,
      "v": 43
    },
    {
      "midi": 50,
      "hit": false,
      "t": 13177.08333333334,
      "d": 786.4583333333339,
      "v": 38
    },
    {
      "midi": 59,
      "hit": false,
      "t": 13421.875000000007,
      "d": 223.95833333333212,
      "v": 48
    },
    {
      "midi": 61,
      "hit": false,
      "t": 13677.08333333334,
      "d": 656.2500000000018,
      "v": 53
    },
    {
      "midi": 64,
      "hit": false,
      "t": 13677.08333333334,
      "d": 656.2500000000018,
      "v": 60
    },
    {
      "midi": 58,
      "hit": false,
      "t": 13937.500000000007,
      "d": 255.20833333333394,
      "v": 35
    },
    {
      "midi": 66,
      "hit": false,
      "t": 14229.166666666675,
      "d": 838.5416666666679,
      "v": 34
    },
    {
      "midi": 62,
      "hit": false,
      "t": 14239.583333333341,
      "d": 734.3750000000018,
      "v": 41
    },
    {
      "midi": 50,
      "hit": false,
      "t": 14286.458333333341,
      "d": 468.75,
      "v": 29
    },
    {
      "midi": 57,
      "hit": false,
      "t": 14536.458333333341,
      "d": 255.20833333333394,
      "v": 34
    },
    {
      "midi": 54,
      "hit": false,
      "t": 14843.75000000001,
      "d": 218.75,
      "v": 30
    },
    {
      "midi": 50,
      "hit": false,
      "t": 15130.208333333343,
      "d": 260.41666666666606,
      "v": 36
    },
    {
      "midi": 72,
      "hit": false,
      "t": 15479.166666666675,
      "d": 859.3750000000018,
      "v": 45
    },
    {
      "midi": 69,
      "hit": false,
      "t": 15500.00000000001,
      "d": 343.7500000000018,
      "v": 14
    },
    {
      "midi": 38,
      "hit": false,
      "t": 15500.00000000001,
      "d": 359.3750000000018,
      "v": 38
    },
    {
      "midi": 64,
      "hit": false,
      "t": 15854.166666666677,
      "d": 286.45833333333394,
      "v": 42
    },
    {
      "midi": 69,
      "hit": false,
      "t": 16161.458333333345,
      "d": 562.5000000000018,
      "v": 44
    },
    {
      "midi": 66,
      "hit": false,
      "t": 16171.875000000011,
      "d": 536.4583333333358,
      "v": 31
    },
    {
      "midi": 63,
      "hit": false,
      "t": 16401.04166666668,
      "d": 135.41666666666788,
      "v": 53
    },
    {
      "midi": 71,
      "hit": false,
      "t": 16677.083333333347,
      "d": 609.3750000000073,
      "v": 59
    },
    {
      "midi": 67,
      "hit": false,
      "t": 16692.708333333347,
      "d": 255.20833333333576,
      "v": 40
    },
    {
      "midi": 50,
      "hit": false,
      "t": 16708.333333333347,
      "d": 739.5833333333394,
      "v": 35
    },
    {
      "midi": 62,
      "hit": false,
      "t": 16937.500000000015,
      "d": 239.58333333333576,
      "v": 40
    },
    {
      "midi": 66,
      "hit": false,
      "t": 17203.12500000002,
      "d": 651.0416666666642,
      "v": 44
    },
    {
      "midi": 63,
      "hit": false,
      "t": 17213.541666666686,
      "d": 307.29166666666424,
      "v": 44
    },
    {
      "midi": 60,
      "hit": false,
      "t": 17468.75000000002,
      "d": 125,
      "v": 33
    },
    {
      "midi": 67,
      "hit": false,
      "t": 17781.25000000002,
      "d": 755.2083333333285,
      "v": 35
    },
    {
      "midi": 62,
      "hit": false,
      "t": 17796.87500000002,
      "d": 307.2916666666606,
      "v": 37
    },
    {
      "midi": 50,
      "hit": false,
      "t": 17833.33333333335,
      "d": 890.6249999999964,
      "v": 21
    },
    {
      "midi": 59,
      "hit": false,
      "t": 18083.333333333347,
      "d": 250,
      "v": 33
    },
    {
      "midi": 61,
      "hit": false,
      "t": 18385.41666666668,
      "d": 640.625,
      "v": 25
    },
    {
      "midi": 64,
      "hit": false,
      "t": 18385.41666666668,
      "d": 687.5,
      "v": 40
    },
    {
      "midi": 58,
      "hit": false,
      "t": 18677.083333333347,
      "d": 203.125,
      "v": 24
    },
    {
      "midi": 66,
      "hit": false,
      "t": 19020.833333333347,
      "d": 817.7083333333358,
      "v": 24
    },
    {
      "midi": 62,
      "hit": false,
      "t": 19041.66666666668,
      "d": 765.6250000000036,
      "v": 23
    },
    {
      "midi": 50,
      "hit": false,
      "t": 19062.50000000001,
      "d": 536.4583333333358,
      "v": 23
    },
    {
      "midi": 57,
      "hit": false,
      "t": 19364.583333333347,
      "d": 333.33333333333576,
      "v": 27
    },
    {
      "midi": 54,
      "hit": false,
      "t": 19687.500000000015,
      "d": 239.58333333333576,
      "v": 29
    },
    {
      "midi": 50,
      "hit": false,
      "t": 20072.916666666682,
      "d": 489.5833333333321,
      "v": 30
    },
    {
      "midi": 66,
      "hit": false,
      "t": 20562.500000000015,
      "d": 958.3333333333285,
      "v": 56
    },
    {
      "midi": 62,
      "hit": false,
      "t": 20578.125000000015,
      "d": 536.4583333333321,
      "v": 19
    },
    {
      "midi": 47,
      "hit": false,
      "t": 20583.333333333347,
      "d": 1010.4166666666642,
      "v": 24
    },
    {
      "midi": 59,
      "hit": false,
      "t": 20932.29166666668,
      "d": 312.5,
      "v": 42
    },
    {
      "midi": 68,
      "hit": false,
      "t": 21281.25000000001,
      "d": 671.875,
      "v": 75
    },
    {
      "midi": 57,
      "hit": false,
      "t": 21302.083333333343,
      "d": 270.8333333333321,
      "v": 31
    },
    {
      "midi": 56,
      "hit": false,
      "t": 21583.333333333343,
      "d": 135.41666666666788,
      "v": 56
    },
    {
      "midi": 69,
      "hit": false,
      "t": 21859.37500000001,
      "d": 614.5833333333321,
      "v": 80
    },
    {
      "midi": 54,
      "hit": false,
      "t": 21869.79166666668,
      "d": 614.5833333333321,
      "v": 53
    },
    {
      "midi": 49,
      "hit": false,
      "t": 21885.41666666668,
      "d": 614.5833333333321,
      "v": 36
    },
    {
      "midi": 52,
      "hit": false,
      "t": 22145.833333333343,
      "d": 208.33333333333212,
      "v": 59
    },
    {
      "midi": 71,
      "hit": false,
      "t": 22427.083333333343,
      "d": 697.9166666666679,
      "v": 90
    },
    {
      "midi": 50,
      "hit": false,
      "t": 22447.916666666675,
      "d": 635.4166666666679,
      "v": 60
    },
    {
      "midi": 66,
      "hit": false,
      "t": 22729.166666666675,
      "d": 583.3333333333358,
      "v": 58
    },
    {
      "midi": 57,
      "hit": false,
      "t": 22744.791666666675,
      "d": 250,
      "v": 48
    },
    {
      "midi": 73,
      "hit": false,
      "t": 23020.833333333343,
      "d": 791.6666666666642,
      "v": 75
    },
    {
      "midi": 52,
      "hit": false,
      "t": 23046.87500000001,
      "d": 1536.4583333333285,
      "v": 65
    },
    {
      "midi": 64,
      "hit": false,
      "t": 23328.12500000001,
      "d": 385.41666666666424,
      "v": 66
    },
    {
      "midi": 63,
      "hit": false,
      "t": 23666.666666666675,
      "d": 369.79166666666424,
      "v": 46
    },
    {
      "midi": 71,
      "hit": false,
      "t": 23677.083333333343,
      "d": 843.7499999999964,
      "v": 81
    },
    {
      "midi": 68,
      "hit": false,
      "t": 23692.708333333343,
      "d": 807.2916666666642,
      "v": 35
    },
    {
      "midi": 62,
      "hit": false,
      "t": 24052.08333333334,
      "d": 359.375,
      "v": 44
    },
    {
      "midi": 69,
      "hit": false,
      "t": 24427.08333333334,
      "d": 874.9999999999964,
      "v": 44
    },
    {
      "midi": 57,
      "hit": false,
      "t": 24468.750000000007,
      "d": 1302.0833333333285,
      "v": 25
    },
    {
      "midi": 61,
      "hit": false,
      "t": 24817.70833333334,
      "d": 374.99999999999636,
      "v": 35
    },
    {
      "midi": 52,
      "hit": false,
      "t": 25156.250000000004,
      "d": 276.04166666666424,
      "v": 35
    },
    {
      "midi": 49,
      "hit": false,
      "t": 25442.708333333336,
      "d": 296.875,
      "v": 39
    },
    {
      "midi": 66,
      "hit": false,
      "t": 25713.541666666668,
      "d": 671.8750000000036,
      "v": 55
    },
    {
      "midi": 62,
      "hit": false,
      "t": 25729.166666666668,
      "d": 567.7083333333358,
      "v": 42
    },
    {
      "midi": 47,
      "hit": false,
      "t": 25744.791666666668,
      "d": 697.9166666666715,
      "v": 28
    },
    {
      "midi": 59,
      "hit": false,
      "t": 26000.000000000004,
      "d": 307.2916666666679,
      "v": 44
    },
    {
      "midi": 68,
      "hit": false,
      "t": 26281.250000000004,
      "d": 348.95833333333576,
      "v": 49
    },
    {
      "midi": 57,
      "hit": false,
      "t": 26286.458333333336,
      "d": 250.00000000000364,
      "v": 25
    },
    {
      "midi": 56,
      "hit": false,
      "t": 26552.08333333334,
      "d": 151.04166666666788,
      "v": 38
    },
    {
      "midi": 69,
      "hit": false,
      "t": 26833.33333333334,
      "d": 718.75,
      "v": 39
    },
    {
      "midi": 54,
      "hit": false,
      "t": 26843.750000000007,
      "d": 364.5833333333321,
      "v": 33
    },
    {
      "midi": 49,
      "hit": false,
      "t": 26859.375000000007,
      "d": 578.1249999999964,
      "v": 16
    },
    {
      "midi": 52,
      "hit": false,
      "t": 27156.250000000007,
      "d": 229.16666666666424,
      "v": 36
    },
    {
      "midi": 50,
      "hit": false,
      "t": 27447.91666666667,
      "d": 447.9166666666679,
      "v": 28
    },
    {
      "midi": 71,
      "hit": false,
      "t": 27458.33333333334,
      "d": 614.5833333333321,
      "v": 40
    },
    {
      "midi": 66,
      "hit": false,
      "t": 27750.000000000007,
      "d": 270.8333333333321,
      "v": 25
    },
    {
      "midi": 73,
      "hit": false,
      "t": 28031.250000000007,
      "d": 765.6249999999927,
      "v": 35
    },
    {
      "midi": 52,
      "hit": false,
      "t": 28057.29166666667,
      "d": 1437.5000000000036,
      "v": 29
    },
    {
      "midi": 64,
      "hit": false,
      "t": 28359.375000000004,
      "d": 255.20833333333212,
      "v": 22
    },
    {
      "midi": 63,
      "hit": false,
      "t": 28697.916666666668,
      "d": 322.9166666666679,
      "v": 25
    },
    {
      "midi": 71,
      "hit": false,
      "t": 28697.916666666668,
      "d": 1052.0833333333394,
      "v": 36
    },
    {
      "midi": 68,
      "hit": false,
      "t": 28703.125,
      "d": 687.5000000000073,
      "v": 8
    },
    {
      "midi": 62,
      "hit": false,
      "t": 29166.66666666667,
      "d": 255.20833333333576,
      "v": 19
    },
    {
      "midi": 69,
      "hit": false,
      "t": 29562.500000000007,
      "d": 1046.875,
      "v": 24
    },
    {
      "midi": 57,
      "hit": false,
      "t": 29588.541666666675,
      "d": 697.9166666666642,
      "v": 11
    },
    {
      "midi": 61,
      "hit": false,
      "t": 29911.45833333334,
      "d": 447.9166666666679,
      "v": 23
    },
    {
      "midi": 52,
      "hit": false,
      "t": 30333.33333333334,
      "d": 114.58333333333576,
      "v": 18
    },
    {
      "midi": 49,
      "hit": false,
      "t": 30729.166666666675,
      "d": 234.375,
      "v": 19
    },
    {
      "midi": 71,
      "hit": false,
      "t": 31375.000000000007,
      "d": 583.3333333333321,
      "v": 58
    },
    {
      "midi": 67,
      "hit": false,
      "t": 31406.250000000007,
      "d": 354.1666666666679,
      "v": 17
    },
    {
      "midi": 45,
      "hit": false,
      "t": 31406.250000000007,
      "d": 375,
      "v": 19
    },
    {
      "midi": 64,
      "hit": false,
      "t": 31833.33333333334,
      "d": 62.5,
      "v": 34
    },
    {
      "midi": 79,
      "hit": false,
      "t": 32307.29166666667,
      "d": 802.083333333343,
      "v": 77
    },
    {
      "midi": 67,
      "hit": false,
      "t": 32656.250000000004,
      "d": 88.54166666666788,
      "v": 22
    },
    {
      "midi": 61,
      "hit": false,
      "t": 32953.12500000001,
      "d": 869.7916666666715,
      "v": 25
    },
    {
      "midi": 70,
      "hit": false,
      "t": 32958.33333333334,
      "d": 395.83333333334303,
      "v": 22
    },
    {
      "midi": 78,
      "hit": false,
      "t": 32979.16666666668,
      "d": 630.2083333333358,
      "v": 57
    },
    {
      "midi": 67,
      "hit": false,
      "t": 33317.70833333335,
      "d": 93.75,
      "v": 13
    },
    {
      "midi": 69,
      "hit": false,
      "t": 33546.875000000015,
      "d": 197.91666666666424,
      "v": 18
    },
    {
      "midi": 76,
      "hit": false,
      "t": 33546.875000000015,
      "d": 203.125,
      "v": 65
    },
    {
      "midi": 67,
      "hit": false,
      "t": 33843.750000000015,
      "d": 88.54166666666424,
      "v": 24
    },
    {
      "midi": 74,
      "hit": false,
      "t": 34098.95833333334,
      "d": 302.08333333333576,
      "v": 68
    },
    {
      "midi": 69,
      "hit": false,
      "t": 34109.37500000001,
      "d": 234.37500000000728,
      "v": 11
    },
    {
      "midi": 62,
      "hit": false,
      "t": 34114.58333333334,
      "d": 395.83333333333576,
      "v": 24
    },
    {
      "midi": 66,
      "hit": false,
      "t": 34390.625000000015,
      "d": 135.41666666666424,
      "v": 34
    },
    {
      "midi": 71,
      "hit": false,
      "t": 34630.20833333334,
      "d": 307.29166666666424,
      "v": 72
    },
    {
      "midi": 68,
      "hit": false,
      "t": 34656.25000000001,
      "d": 98.95833333333576,
      "v": 34
    },
    {
      "midi": 65,
      "hit": false,
      "t": 34661.45833333334,
      "d": 119.79166666666424,
      "v": 31
    },
    {
      "midi": 62,
      "hit": false,
      "t": 34895.83333333334,
      "d": 140.625,
      "v": 57
    },
    {
      "midi": 69,
      "hit": false,
      "t": 35182.29166666668,
      "d": 427.08333333333576,
      "v": 34
    },
    {
      "midi": 73,
      "hit": false,
      "t": 35182.29166666668,
      "d": 651.0416666666715,
      "v": 50
    },
    {
      "midi": 57,
      "hit": false,
      "t": 35187.500000000015,
      "d": 401.04166666666424,
      "v": 21
    },
    {
      "midi": 64,
      "hit": false,
      "t": 35468.750000000015,
      "d": 135.41666666666424,
      "v": 48
    },
    {
      "midi": 61,
      "hit": false,
      "t": 35744.79166666668,
      "d": 67.70833333333576,
      "v": 43
    },
    {
      "midi": 57,
      "hit": false,
      "t": 36020.83333333335,
      "d": 72.91666666666424,
      "v": 45
    },
    {
      "midi": 45,
      "hit": false,
      "t": 36343.750000000015,
      "d": 291.66666666666424,
      "v": 22
    },
    {
      "midi": 67,
      "hit": false,
      "t": 36354.16666666668,
      "d": 296.875,
      "v": 23
    },
    {
      "midi": 71,
      "hit": false,
      "t": 36354.16666666668,
      "d": 505.20833333333576,
      "v": 75
    },
    {
      "midi": 64,
      "hit": false,
      "t": 36718.750000000015,
      "d": 52.08333333333576,
      "v": 38
    },
    {
      "midi": 71,
      "hit": false,
      "t": 37208.33333333335,
      "d": 130.20833333332848,
      "v": 36
    },
    {
      "midi": 79,
      "hit": false,
      "t": 37218.750000000015,
      "d": 807.2916666666715,
      "v": 64
    },
    {
      "midi": 67,
      "hit": false,
      "t": 37578.125000000015,
      "d": 109.375,
      "v": 23
    },
    {
      "midi": 70,
      "hit": false,
      "t": 37968.750000000015,
      "d": 468.7500000000073,
      "v": 27
    },
    {
      "midi": 78,
      "hit": false,
      "t": 37968.750000000015,
      "d": 687.5000000000073,
      "v": 44
    },
    {
      "midi": 61,
      "hit": false,
      "t": 37973.95833333335,
      "d": 953.125,
      "v": 17
    },
    {
      "midi": 67,
      "hit": false,
      "t": 38328.12500000002,
      "d": 83.33333333333576,
      "v": 22
    },
    {
      "midi": 69,
      "hit": false,
      "t": 38604.166666666686,
      "d": 348.9583333333285,
      "v": 16
    },
    {
      "midi": 76,
      "hit": false,
      "t": 38609.37500000002,
      "d": 234.375,
      "v": 47
    },
    {
      "midi": 67,
      "hit": false,
      "t": 38901.041666666686,
      "d": 98.95833333332848,
      "v": 24
    },
    {
      "midi": 74,
      "hit": false,
      "t": 39218.750000000015,
      "d": 864.583333333343,
      "v": 43
    },
    {
      "midi": 62,
      "hit": false,
      "t": 39223.95833333335,
      "d": 463.5416666666715,
      "v": 23
    },
    {
      "midi": 69,
      "hit": false,
      "t": 39239.58333333335,
      "d": 307.2916666666715,
      "v": 10
    },
    {
      "midi": 66,
      "hit": false,
      "t": 39572.916666666686,
      "d": 182.29166666667152,
      "v": 21
    },
    {
      "midi": 71,
      "hit": false,
      "t": 39916.66666666669,
      "d": 802.0833333333285,
      "v": 39
    },
    {
      "midi": 68,
      "hit": false,
      "t": 39927.08333333336,
      "d": 713.5416666666642,
      "v": 18
    },
    {
      "midi": 65,
      "hit": false,
      "t": 39932.29166666669,
      "d": 380.2083333333285,
      "v": 15
    },
    {
      "midi": 62,
      "hit": false,
      "t": 40291.666666666686,
      "d": 229.16666666667152,
      "v": 23
    },
    {
      "midi": 57,
      "hit": false,
      "t": 40687.50000000002,
      "d": 572.9166666666642,
      "v": 14
    },
    {
      "midi": 73,
      "hit": false,
      "t": 40687.50000000002,
      "d": 1885.4166666666715,
      "v": 26
    },
    {
      "midi": 69,
      "hit": false,
      "t": 40692.70833333336,
      "d": 1776.0416666666715,
      "v": 13
    },
    {
      "midi": 64,
      "hit": false,
      "t": 41104.166666666686,
      "d": 1166.6666666666715,
      "v": 23
    },
    {
      "midi": 61,
      "hit": false,
      "t": 41562.50000000002,
      "d": 255.20833333333576,
      "v": 17
    },
    {
      "midi": 57,
      "hit": false,
      "t": 42177.08333333336,
      "d": 286.45833333333576,
      "v": 12
    },
    {
      "midi": 79,
      "hit": false,
      "t": 43484.37500000003,
      "d": 3838.5416666666715,
      "v": 22
    },
    {
      "midi": 45,
      "hit": false,
      "t": 43489.583333333365,
      "d": 3822.9166666666715,
      "v": 11
    }
  ]
}