{
  "jsonPath": "Classical/Classical/Vladimir Horowitz/sonata-in-d-major-k-96-l-465.json",
  "path": "Classical\\Classical\\Vladimir Horowitz\\Sonata in D Major_ K 96 (L 465).mid",
  "name": "Sonata in D Major_ K 96 (L 465)",
  "difficulty": "Advanced",
  "bpm": 145.00003625000906,
  "notes": [
    {
      "midi": 78,
      "hit": false,
      "t": 0,
      "d": 155.17237500000002,
      "v": 47
    },
    {
      "midi": 81,
      "hit": false,
      "t": 0,
      "d": 155.17237500000002,
      "v": 47
    },
    {
      "midi": 74,
      "hit": false,
      "t": 206.8965,
      "d": 155.17237500000005,
      "v": 47
    },
    {
      "midi": 78,
      "hit": false,
      "t": 206.8965,
      "d": 155.17237500000005,
      "v": 50
    },
    {
      "midi": 69,
      "hit": false,
      "t": 413.79300000000006,
      "d": 155.17237500000005,
      "v": 56
    },
    {
      "midi": 76,
      "hit": false,
      "t": 413.79300000000006,
      "d": 155.17237500000005,
      "v": 50
    },
    {
      "midi": 66,
      "hit": false,
      "t": 620.6895000000001,
      "d": 155.172375,
      "v": 44
    },
    {
      "midi": 74,
      "hit": false,
      "t": 620.6895000000001,
      "d": 155.172375,
      "v": 44
    },
    {
      "midi": 66,
      "hit": false,
      "t": 827.586,
      "d": 155.172375,
      "v": 47
    },
    {
      "midi": 74,
      "hit": false,
      "t": 827.586,
      "d": 155.172375,
      "v": 47
    },
    {
      "midi": 69,
      "hit": false,
      "t": 1034.4825,
      "d": 155.1723750000001,
      "v": 44
    },
    {
      "midi": 76,
      "hit": false,
      "t": 1034.4825,
      "d": 155.1723750000001,
      "v": 39
    },
    {
      "midi": 66,
      "hit": false,
      "t": 1241.3790000000001,
      "d": 155.1723750000001,
      "v": 44
    },
    {
      "midi": 74,
      "hit": false,
      "t": 1241.3790000000001,
      "d": 155.1723750000001,
      "v": 50
    },
    {
      "midi": 66,
      "hit": false,
      "t": 1448.2755000000002,
      "d": 155.1723750000001,
      "v": 38
    },
    {
      "midi": 74,
      "hit": false,
      "t": 1448.2755000000002,
      "d": 155.1723750000001,
      "v": 50
    },
    {
      "midi": 69,
      "hit": false,
      "t": 1655.1720000000003,
      "d": 155.1723750000001,
      "v": 34
    },
    {
      "midi": 76,
      "hit": false,
      "t": 1655.1720000000003,
      "d": 155.1723750000001,
      "v": 47
    },
    {
      "midi": 66,
      "hit": false,
      "t": 1862.0685000000003,
      "d": 155.1723750000001,
      "v": 38
    },
    {
      "midi": 74,
      "hit": false,
      "t": 1862.0685000000003,
      "d": 155.1723750000001,
      "v": 62
    },
    {
      "midi": 66,
      "hit": false,
      "t": 2068.9650000000006,
      "d": 155.1723750000001,
      "v": 40
    },
    {
      "midi": 74,
      "hit": false,
      "t": 2068.9650000000006,
      "d": 155.1723750000001,
      "v": 59
    },
    {
      "midi": 69,
      "hit": false,
      "t": 2275.861500000001,
      "d": 155.1723750000001,
      "v": 44
    },
    {
      "midi": 76,
      "hit": false,
      "t": 2275.861500000001,
      "d": 155.1723750000001,
      "v": 62
    },
    {
      "midi": 74,
      "hit": false,
      "t": 2482.758000000001,
      "d": 155.1723750000001,
      "v": 50
    },
    {
      "midi": 78,
      "hit": false,
      "t": 2482.758000000001,
      "d": 155.1723750000001,
      "v": 58
    },
    {
      "midi": 76,
      "hit": false,
      "t": 2689.6545000000015,
      "d": 155.1723750000001,
      "v": 52
    },
    {
      "midi": 79,
      "hit": false,
      "t": 2689.6545000000015,
      "d": 155.1723750000001,
      "v": 59
    },
    {
      "midi": 78,
      "hit": false,
      "t": 2896.5510000000017,
      "d": 155.1723750000001,
      "v": 24
    },
    {
      "midi": 81,
      "hit": false,
      "t": 2896.5510000000017,
      "d": 155.1723750000001,
      "v": 50
    },
    {
      "midi": 76,
      "hit": false,
      "t": 3103.447500000002,
      "d": 37.93102499999986,
      "v": 29
    },
    {
      "midi": 69,
      "hit": false,
      "t": 3103.447500000002,
      "d": 620.6894999999968,
      "v": 59
    },
    {
      "midi": 78,
      "hit": false,
      "t": 3155.1716250000018,
      "d": 37.93102499999986,
      "v": 17
    },
    {
      "midi": 76,
      "hit": false,
      "t": 3206.8957500000015,
      "d": 37.93102499999986,
      "v": 29
    },
    {
      "midi": 78,
      "hit": false,
      "t": 3258.6198750000012,
      "d": 37.93102499999986,
      "v": 22
    },
    {
      "midi": 76,
      "hit": false,
      "t": 3310.344000000001,
      "d": 37.93102499999986,
      "v": 15
    },
    {
      "midi": 78,
      "hit": false,
      "t": 3362.0681250000007,
      "d": 37.93102499999986,
      "v": 27
    },
    {
      "midi": 76,
      "hit": false,
      "t": 3413.7922500000004,
      "d": 37.93102499999986,
      "v": 13
    },
    {
      "midi": 78,
      "hit": false,
      "t": 3465.516375,
      "d": 37.93102499999986,
      "v": 27
    },
    {
      "midi": 76,
      "hit": false,
      "t": 3517.2405,
      "d": 37.93102499999986,
      "v": 26
    },
    {
      "midi": 78,
      "hit": false,
      "t": 3568.9646249999996,
      "d": 37.93102499999986,
      "v": 24
    },
    {
      "midi": 76,
      "hit": false,
      "t": 3620.6887499999993,
      "d": 37.93102499999986,
      "v": 14
    },
    {
      "midi": 78,
      "hit": false,
      "t": 3672.412874999999,
      "d": 37.93102499999986,
      "v": 17
    },
    {
      "midi": 74,
      "hit": false,
      "t": 3724.136999999999,
      "d": 155.1723750000001,
      "v": 50
    },
    {
      "midi": 78,
      "hit": false,
      "t": 3724.136999999999,
      "d": 155.1723750000001,
      "v": 58
    },
    {
      "midi": 76,
      "hit": false,
      "t": 3931.033499999999,
      "d": 155.1723750000001,
      "v": 52
    },
    {
      "midi": 79,
      "hit": false,
      "t": 3931.033499999999,
      "d": 155.1723750000001,
      "v": 59
    },
    {
      "midi": 78,
      "hit": false,
      "t": 4137.929999999999,
      "d": 155.1723750000001,
      "v": 24
    },
    {
      "midi": 81,
      "hit": false,
      "t": 4137.929999999999,
      "d": 155.1723750000001,
      "v": 50
    },
    {
      "midi": 76,
      "hit": false,
      "t": 4344.826499999999,
      "d": 37.93102499999986,
      "v": 29
    },
    {
      "midi": 69,
      "hit": false,
      "t": 4344.826499999999,
      "d": 620.6894999999968,
      "v": 59
    },
    {
      "midi": 78,
      "hit": false,
      "t": 4396.550624999999,
      "d": 37.93102499999986,
      "v": 17
    },
    {
      "midi": 76,
      "hit": false,
      "t": 4448.274749999999,
      "d": 37.93102499999986,
      "v": 29
    },
    {
      "midi": 78,
      "hit": false,
      "t": 4499.998874999998,
      "d": 37.93102499999986,
      "v": 22
    },
    {
      "midi": 76,
      "hit": false,
      "t": 4551.722999999998,
      "d": 37.93102499999986,
      "v": 15
    },
    {
      "midi": 78,
      "hit": false,
      "t": 4603.447124999998,
      "d": 37.93102499999986,
      "v": 27
    },
    {
      "midi": 76,
      "hit": false,
      "t": 4655.171249999998,
      "d": 37.93102499999986,
      "v": 13
    },
    {
      "midi": 78,
      "hit": false,
      "t": 4706.895374999997,
      "d": 37.93102499999986,
      "v": 27
    },
    {
      "midi": 76,
      "hit": false,
      "t": 4758.619499999997,
      "d": 37.93102499999986,
      "v": 26
    },
    {
      "midi": 78,
      "hit": false,
      "t": 4810.343624999997,
      "d": 37.93102499999986,
      "v": 24
    },
    {
      "midi": 76,
      "hit": false,
      "t": 4862.0677499999965,
      "d": 37.93102499999986,
      "v": 14
    },
    {
      "midi": 78,
      "hit": false,
      "t": 4913.791874999996,
      "d": 37.93102499999986,
      "v": 17
    },
    {
      "midi": 74,
      "hit": false,
      "t": 4965.515999999996,
      "d": 155.1723750000001,
      "v": 50
    },
    {
      "midi": 78,
      "hit": false,
      "t": 4965.515999999996,
      "d": 155.1723750000001,
      "v": 58
    },
    {
      "midi": 76,
      "hit": false,
      "t": 5172.412499999996,
      "d": 155.1723750000001,
      "v": 52
    },
    {
      "midi": 79,
      "hit": false,
      "t": 5172.412499999996,
      "d": 155.1723750000001,
      "v": 59
    },
    {
      "midi": 78,
      "hit": false,
      "t": 5379.308999999996,
      "d": 155.1723750000001,
      "v": 24
    },
    {
      "midi": 81,
      "hit": false,
      "t": 5379.308999999996,
      "d": 155.1723750000001,
      "v": 50
    },
    {
      "midi": 76,
      "hit": false,
      "t": 5586.2054999999955,
      "d": 37.93102499999986,
      "v": 29
    },
    {
      "midi": 69,
      "hit": false,
      "t": 5586.2054999999955,
      "d": 620.6894999999968,
      "v": 59
    },
    {
      "midi": 78,
      "hit": false,
      "t": 5637.929624999995,
      "d": 37.93102499999986,
      "v": 17
    },
    {
      "midi": 76,
      "hit": false,
      "t": 5689.653749999995,
      "d": 37.93102499999986,
      "v": 29
    },
    {
      "midi": 78,
      "hit": false,
      "t": 5741.377874999995,
      "d": 37.93102499999986,
      "v": 22
    },
    {
      "midi": 76,
      "hit": false,
      "t": 5793.101999999994,
      "d": 37.93102499999986,
      "v": 15
    },
    {
      "midi": 78,
      "hit": false,
      "t": 5844.826124999994,
      "d": 37.93102499999986,
      "v": 27
    },
    {
      "midi": 76,
      "hit": false,
      "t": 5896.550249999994,
      "d": 37.93102499999986,
      "v": 13
    },
    {
      "midi": 78,
      "hit": false,
      "t": 5948.274374999994,
      "d": 37.93102499999986,
      "v": 27
    },
    {
      "midi": 76,
      "hit": false,
      "t": 5999.998499999993,
      "d": 37.93102499999986,
      "v": 26
    },
    {
      "midi": 78,
      "hit": false,
      "t": 6051.722624999993,
      "d": 37.93102499999986,
      "v": 24
    },
    {
      "midi": 76,
      "hit": false,
      "t": 6103.446749999993,
      "d": 37.93102499999986,
      "v": 14
    },
    {
      "midi": 78,
      "hit": false,
      "t": 6155.1708749999925,
      "d": 37.93102499999986,
      "v": 17
    },
    {
      "midi": 50,
      "hit": false,
      "t": 6206.894999999992,
      "d": 155.1723750000001,
      "v": 34
    },
    {
      "midi": 74,
      "hit": false,
      "t": 6413.791499999992,
      "d": 37.93102499999986,
      "v": 29
    },
    {
      "midi": 62,
      "hit": false,
      "t": 6413.791499999992,
      "d": 155.1723749999992,
      "v": 34
    },
    {
      "midi": 76,
      "hit": false,
      "t": 6465.515624999992,
      "d": 37.93102499999986,
      "v": 39
    },
    {
      "midi": 74,
      "hit": false,
      "t": 6517.239749999992,
      "d": 37.93102499999986,
      "v": 29
    },
    {
      "midi": 76,
      "hit": false,
      "t": 6568.963874999991,
      "d": 37.93102499999986,
      "v": 34
    },
    {
      "midi": 74,
      "hit": false,
      "t": 6620.687999999991,
      "d": 37.93102499999986,
      "v": 26
    },
    {
      "midi": 55,
      "hit": false,
      "t": 6620.687999999991,
      "d": 155.1723749999992,
      "v": 36
    },
    {
      "midi": 59,
      "hit": false,
      "t": 6620.687999999991,
      "d": 155.1723749999992,
      "v": 45
    },
    {
      "midi": 76,
      "hit": false,
      "t": 6672.412124999991,
      "d": 37.93102499999986,
      "v": 13
    },
    {
      "midi": 74,
      "hit": false,
      "t": 6724.1362499999905,
      "d": 37.93102499999986,
      "v": 32
    },
    {
      "midi": 76,
      "hit": false,
      "t": 6775.86037499999,
      "d": 37.93102499999986,
      "v": 12
    },
    {
      "midi": 74,
      "hit": false,
      "t": 6827.58449999999,
      "d": 37.93102499999986,
      "v": 34
    },
    {
      "midi": 57,
      "hit": false,
      "t": 6827.58449999999,
      "d": 155.1723749999992,
      "v": 47
    },
    {
      "midi": 54,
      "hit": false,
      "t": 6827.58449999999,
      "d": 310.3447499999984,
      "v": 50
    },
    {
      "midi": 76,
      "hit": false,
      "t": 6879.30862499999,
      "d": 37.93102499999986,
      "v": 31
    },
    {
      "midi": 74,
      "hit": false,
      "t": 6931.032749999989,
      "d": 37.93102499999986,
      "v": 34
    },
    {
      "midi": 76,
      "hit": false,
      "t": 6982.756874999989,
      "d": 37.93102499999986,
      "v": 16
    },
    {
      "midi": 74,
      "hit": false,
      "t": 7034.480999999989,
      "d": 37.93102499999986,
      "v": 34
    },
    {
      "midi": 62,
      "hit": false,
      "t": 7034.480999999989,
      "d": 155.1723749999992,
      "v": 47
    },
    {
      "midi": 76,
      "hit": false,
      "t": 7086.205124999989,
      "d": 37.93102499999986,
      "v": 32
    },
    {
      "midi": 74,
      "hit": false,
      "t": 7137.929249999988,
      "d": 37.93102499999986,
      "v": 36
    },
    {
      "midi": 76,
      "hit": false,
      "t": 7189.653374999988,
      "d": 37.93102499999986,
      "v": 31
    },
    {
      "midi": 74,
      "hit": false,
      "t": 7241.377499999988,
      "d": 37.93102499999986,
      "v": 39
    },
    {
      "midi": 52,
      "hit": false,
      "t": 7241.377499999988,
      "d": 155.1723749999992,
      "v": 32
    },
    {
      "midi": 55,
      "hit": false,
      "t": 7241.377499999988,
      "d": 155.1723749999992,
      "v": 52
    },
    {
      "midi": 76,
      "hit": false,
      "t": 7293.1016249999875,
      "d": 37.93102499999986,
      "v": 23
    },
    {
      "midi": 74,
      "hit": false,
      "t": 7344.825749999987,
      "d": 37.93102499999986,
      "v": 21
    },
    {
      "midi": 76,
      "hit": false,
      "t": 7396.549874999987,
      "d": 37.93102499999986,
      "v": 26
    },
    {
      "midi": 74,
      "hit": false,
      "t": 7448.273999999987,
      "d": 37.93102499999986,
      "v": 34
    },
    {
      "midi": 54,
      "hit": false,
      "t": 7448.273999999987,
      "d": 155.1723749999992,
      "v": 47
    },
    {
      "midi": 50,
      "hit": false,
      "t": 7448.273999999987,
      "d": 310.3447499999984,
      "v": 34
    },
    {
      "midi": 76,
      "hit": false,
      "t": 7499.998124999986,
      "d": 37.93102499999986,
      "v": 25
    },
    {
      "midi": 74,
      "hit": false,
      "t": 7551.722249999986,
      "d": 37.93102499999986,
      "v": 25
    },
    {
      "midi": 76,
      "hit": false,
      "t": 7603.446374999986,
      "d": 37.93102499999986,
      "v": 23
    },
    {
      "midi": 74,
      "hit": false,
      "t": 7655.170499999986,
      "d": 37.93102499999986,
      "v": 36
    },
    {
      "midi": 62,
      "hit": false,
      "t": 7655.170499999986,
      "d": 155.1723749999992,
      "v": 36
    },
    {
      "midi": 78,
      "hit": false,
      "t": 7655.170499999986,
      "d": 1165.5169500000047,
      "v": 55
    },
    {
      "midi": 76,
      "hit": false,
      "t": 7706.894624999985,
      "d": 37.93102499999986,
      "v": 23
    },
    {
      "midi": 74,
      "hit": false,
      "t": 7758.618749999985,
      "d": 37.93102499999986,
      "v": 31
    },
    {
      "midi": 76,
      "hit": false,
      "t": 7810.342874999985,
      "d": 37.93102499999986,
      "v": 25
    },
    {
      "midi": 74,
      "hit": false,
      "t": 7862.066999999985,
      "d": 37.93102499999986,
      "v": 32
    },
    {
      "midi": 55,
      "hit": false,
      "t": 7862.066999999985,
      "d": 155.1723749999992,
      "v": 41
    },
    {
      "midi": 59,
      "hit": false,
      "t": 7862.066999999985,
      "d": 155.1723749999992,
      "v": 54
    },
    {
      "midi": 76,
      "hit": false,
      "t": 7913.791124999984,
      "d": 37.93102499999986,
      "v": 14
    },
    {
      "midi": 74,
      "hit": false,
      "t": 7965.515249999984,
      "d": 37.93102499999986,
      "v": 26
    },
    {
      "midi": 76,
      "hit": false,
      "t": 8017.239374999984,
      "d": 37.93102499999986,
      "v": 12
    },
    {
      "midi": 74,
      "hit": false,
      "t": 8068.9634999999835,
      "d": 37.93102499999986,
      "v": 21
    },
    {
      "midi": 57,
      "hit": false,
      "t": 8068.9634999999835,
      "d": 155.1723750000001,
      "v": 52
    },
    {
      "midi": 54,
      "hit": false,
      "t": 8068.9634999999835,
      "d": 310.344750000002,
      "v": 35
    },
    {
      "midi": 76,
      "hit": false,
      "t": 8120.687624999983,
      "d": 37.93102499999986,
      "v": 25
    },
    {
      "midi": 74,
      "hit": false,
      "t": 8172.411749999983,
      "d": 37.93102499999986,
      "v": 26
    },
    {
      "midi": 76,
      "hit": false,
      "t": 8224.135874999984,
      "d": 37.93102499999986,
      "v": 16
    },
    {
      "midi": 74,
      "hit": false,
      "t": 8275.859999999984,
      "d": 37.93102499999986,
      "v": 21
    },
    {
      "midi": 62,
      "hit": false,
      "t": 8275.859999999984,
      "d": 155.17237500000192,
      "v": 44
    },
    {
      "midi": 76,
      "hit": false,
      "t": 8327.584124999985,
      "d": 37.93102499999986,
      "v": 23
    },
    {
      "midi": 74,
      "hit": false,
      "t": 8379.308249999985,
      "d": 37.93102499999986,
      "v": 26
    },
    {
      "midi": 76,
      "hit": false,
      "t": 8431.032374999986,
      "d": 37.93102499999986,
      "v": 15
    },
    {
      "midi": 74,
      "hit": false,
      "t": 8482.756499999987,
      "d": 37.93102499999986,
      "v": 29
    },
    {
      "midi": 52,
      "hit": false,
      "t": 8482.756499999987,
      "d": 155.17237500000192,
      "v": 32
    },
    {
      "midi": 55,
      "hit": false,
      "t": 8482.756499999987,
      "d": 155.17237500000192,
      "v": 39
    },
    {
      "midi": 76,
      "hit": false,
      "t": 8534.480624999987,
      "d": 37.93102499999986,
      "v": 21
    },
    {
      "midi": 74,
      "hit": false,
      "t": 8586.204749999988,
      "d": 37.93102499999986,
      "v": 29
    },
    {
      "midi": 76,
      "hit": false,
      "t": 8637.928874999989,
      "d": 37.93102499999986,
      "v": 13
    },
    {
      "midi": 74,
      "hit": false,
      "t": 8689.65299999999,
      "d": 37.93102499999986,
      "v": 32
    },
    {
      "midi": 54,
      "hit": false,
      "t": 8689.65299999999,
      "d": 155.17237500000192,
      "v": 55
    },
    {
      "midi": 50,
      "hit": false,
      "t": 8689.65299999999,
      "d": 310.344750000002,
      "v": 44
    },
    {
      "midi": 76,
      "hit": false,
      "t": 8741.37712499999,
      "d": 37.93102499999986,
      "v": 31
    },
    {
      "midi": 74,
      "hit": false,
      "t": 8793.10124999999,
      "d": 37.93102499999986,
      "v": 23
    },
    {
      "midi": 76,
      "hit": false,
      "t": 8844.825374999991,
      "d": 37.93102499999986,
      "v": 16
    },
    {
      "midi": 78,
      "hit": false,
      "t": 8889.65294999999,
      "d": 1151.723850000013,
      "v": 44
    },
    {
      "midi": 74,
      "hit": false,
      "t": 8896.54949999999,
      "d": 37.93102499999986,
      "v": 23
    },
    {
      "midi": 62,
      "hit": false,
      "t": 8896.54949999999,
      "d": 155.17237500000192,
      "v": 44
    },
    {
      "midi": 81,
      "hit": false,
      "t": 8896.54949999999,
      "d": 1179.3100500000128,
      "v": 56
    },
    {
      "midi": 76,
      "hit": false,
      "t": 8948.27362499999,
      "d": 37.93102499999986,
      "v": 16
    },
    {
      "midi": 74,
      "hit": false,
      "t": 8999.997749999991,
      "d": 37.93102499999986,
      "v": 21
    },
    {
      "midi": 76,
      "hit": false,
      "t": 9051.721874999992,
      "d": 37.93102499999986,
      "v": 10
    },
    {
      "midi": 74,
      "hit": false,
      "t": 9103.445999999993,
      "d": 37.93102499999986,
      "v": 20
    },
    {
      "midi": 55,
      "hit": false,
      "t": 9103.445999999993,
      "d": 155.17237500000192,
      "v": 34
    },
    {
      "midi": 59,
      "hit": false,
      "t": 9103.445999999993,
      "d": 155.17237500000192,
      "v": 45
    },
    {
      "midi": 76,
      "hit": false,
      "t": 9155.170124999993,
      "d": 37.93102499999986,
      "v": 15
    },
    {
      "midi": 74,
      "hit": false,
      "t": 9206.894249999994,
      "d": 37.93102499999986,
      "v": 26
    },
    {
      "midi": 76,
      "hit": false,
      "t": 9258.618374999995,
      "d": 37.93102499999986,
      "v": 15
    },
    {
      "midi": 74,
      "hit": false,
      "t": 9310.342499999995,
      "d": 37.93102499999986,
      "v": 25
    },
    {
      "midi": 57,
      "hit": false,
      "t": 9310.342499999995,
      "d": 155.17237500000192,
      "v": 47
    },
    {
      "midi": 54,
      "hit": false,
      "t": 9310.342499999995,
      "d": 310.34475000000384,
      "v": 44
    },
    {
      "midi": 76,
      "hit": false,
      "t": 9362.066624999996,
      "d": 37.93102499999986,
      "v": 14
    },
    {
      "midi": 74,
      "hit": false,
      "t": 9413.790749999996,
      "d": 37.93102499999986,
      "v": 29
    },
    {
      "midi": 76,
      "hit": false,
      "t": 9465.514874999997,
      "d": 37.93102499999986,
      "v": 32
    },
    {
      "midi": 74,
      "hit": false,
      "t": 9517.238999999998,
      "d": 37.93102499999986,
      "v": 31
    },
    {
      "midi": 62,
      "hit": false,
      "t": 9517.238999999998,
      "d": 155.17237500000192,
      "v": 47
    },
    {
      "midi": 76,
      "hit": false,
      "t": 9568.963124999998,
      "d": 37.93102499999986,
      "v": 23
    },
    {
      "midi": 74,
      "hit": false,
      "t": 9620.687249999999,
      "d": 37.93102499999986,
      "v": 26
    },
    {
      "midi": 76,
      "hit": false,
      "t": 9672.411375,
      "d": 37.93102499999986,
      "v": 10
    },
    {
      "midi": 74,
      "hit": false,
      "t": 9724.1355,
      "d": 37.93102499999986,
      "v": 15
    },
    {
      "midi": 52,
      "hit": false,
      "t": 9724.1355,
      "d": 155.17237500000192,
      "v": 29
    },
    {
      "midi": 55,
      "hit": false,
      "t": 9724.1355,
      "d": 155.17237500000192,
      "v": 41
    },
    {
      "midi": 76,
      "hit": false,
      "t": 9775.859625000001,
      "d": 37.93102499999986,
      "v": 12
    },
    {
      "midi": 74,
      "hit": false,
      "t": 9827.583750000002,
      "d": 37.93102499999986,
      "v": 25
    },
    {
      "midi": 76,
      "hit": false,
      "t": 9879.307875000002,
      "d": 37.93102499999986,
      "v": 12
    },
    {
      "midi": 50,
      "hit": false,
      "t": 9931.032000000003,
      "d": 310.3447500000002,
      "v": 62
    },
    {
      "midi": 76,
      "hit": false,
      "t": 10137.928500000004,
      "d": 155.1723750000001,
      "v": 44
    },
    {
      "midi": 79,
      "hit": false,
      "t": 10137.928500000004,
      "d": 155.1723750000001,
      "v": 47
    },
    {
      "midi": 62,
      "hit": false,
      "t": 10344.825000000004,
      "d": 155.1723750000001,
      "v": 50
    },
    {
      "midi": 74,
      "hit": false,
      "t": 10344.825000000004,
      "d": 155.1723750000001,
      "v": 32
    },
    {
      "midi": 78,
      "hit": false,
      "t": 10344.825000000004,
      "d": 155.1723750000001,
      "v": 44
    },
    {
      "midi": 76,
      "hit": false,
      "t": 10551.721500000005,
      "d": 155.1723750000001,
      "v": 47
    },
    {
      "midi": 79,
      "hit": false,
      "t": 10551.721500000005,
      "d": 155.1723750000001,
      "v": 52
    },
    {
      "midi": 61,
      "hit": false,
      "t": 10551.721500000005,
      "d": 310.3447500000002,
      "v": 54
    },
    {
      "midi": 76,
      "hit": false,
      "t": 10758.618000000006,
      "d": 155.1723750000001,
      "v": 50
    },
    {
      "midi": 79,
      "hit": false,
      "t": 10758.618000000006,
      "d": 155.1723750000001,
      "v": 52
    },
    {
      "midi": 62,
      "hit": false,
      "t": 10965.514500000007,
      "d": 155.1723750000001,
      "v": 31
    },
    {
      "midi": 74,
      "hit": false,
      "t": 10965.514500000007,
      "d": 155.1723750000001,
      "v": 41
    },
    {
      "midi": 78,
      "hit": false,
      "t": 10965.514500000007,
      "d": 155.1723750000001,
      "v": 50
    },
    {
      "midi": 69,
      "hit": false,
      "t": 11172.411000000007,
      "d": 108.62066249999953,
      "v": 59
    },
    {
      "midi": 76,
      "hit": false,
      "t": 11172.411000000007,
      "d": 120.68962499999907,
      "v": 62
    },
    {
      "midi": 81,
      "hit": false,
      "t": 11172.411000000007,
      "d": 136.20686249999926,
      "v": 70
    },
    {
      "midi": 57,
      "hit": false,
      "t": 11172.411000000007,
      "d": 237.9309749999993,
      "v": 59
    },
    {
      "midi": 45,
      "hit": false,
      "t": 11172.411000000007,
      "d": 253.4482124999995,
      "v": 62
    },
    {
      "midi": 81,
      "hit": false,
      "t": 11367.238537500007,
      "d": 55.17239999999947,
      "v": 20
    },
    {
      "midi": 76,
      "hit": false,
      "t": 11377.583362500007,
      "d": 34.482749999999214,
      "v": 50
    },
    {
      "midi": 69,
      "hit": false,
      "t": 11377.583362500007,
      "d": 39.65516249999928,
      "v": 36
    },
    {
      "midi": 81,
      "hit": false,
      "t": 11584.479862500008,
      "d": 43.10343749999993,
      "v": 70
    },
    {
      "midi": 74,
      "hit": false,
      "t": 11591.376412500007,
      "d": 17.241374999999607,
      "v": 59
    },
    {
      "midi": 69,
      "hit": false,
      "t": 11591.376412500007,
      "d": 31.034475000000384,
      "v": 62
    },
    {
      "midi": 42,
      "hit": false,
      "t": 11601.721237500007,
      "d": 12.068962499999543,
      "v": 63
    },
    {
      "midi": 54,
      "hit": false,
      "t": 11601.721237500007,
      "d": 20.689650000000256,
      "v": 55
    },
    {
      "midi": 69,
      "hit": false,
      "t": 11784.479812500007,
      "d": 132.75858750000043,
      "v": 59
    },
    {
      "midi": 81,
      "hit": false,
      "t": 11784.479812500007,
      "d": 156.89651250000134,
      "v": 70
    },
    {
      "midi": 76,
      "hit": false,
      "t": 11794.824637500007,
      "d": 122.4137625000003,
      "v": 70
    },
    {
      "midi": 45,
      "hit": false,
      "t": 11794.824637500007,
      "d": 182.75857500000166,
      "v": 67
    },
    {
      "midi": 57,
      "hit": false,
      "t": 11794.824637500007,
      "d": 196.55167500000243,
      "v": 70
    },
    {
      "midi": 76,
      "hit": false,
      "t": 11986.20390000001,
      "d": 37.93102499999986,
      "v": 59
    },
    {
      "midi": 81,
      "hit": false,
      "t": 11991.37631250001,
      "d": 43.10343749999993,
      "v": 52
    },
    {
      "midi": 69,
      "hit": false,
      "t": 11993.100450000009,
      "d": 36.20688750000045,
      "v": 56
    },
    {
      "midi": 69,
      "hit": false,
      "t": 12193.10040000001,
      "d": 34.48275000000103,
      "v": 62
    },
    {
      "midi": 81,
      "hit": false,
      "t": 12193.10040000001,
      "d": 44.82757500000116,
      "v": 67
    },
    {
      "midi": 62,
      "hit": false,
      "t": 12203.44522500001,
      "d": 15.517237500000192,
      "v": 59
    },
    {
      "midi": 78,
      "hit": false,
      "t": 12203.44522500001,
      "d": 29.31033750000097,
      "v": 68
    },
    {
      "midi": 50,
      "hit": false,
      "t": 12213.79005000001,
      "d": 27.586200000001554,
      "v": 62
    },
    {
      "midi": 57,
      "hit": false,
      "t": 12389.652075000013,
      "d": 68.96549999999843,
      "v": 67
    },
    {
      "midi": 81,
      "hit": false,
      "t": 12389.652075000013,
      "d": 86.20687499999985,
      "v": 70
    },
    {
      "midi": 76,
      "hit": false,
      "t": 12396.548625000012,
      "d": 62.06894999999895,
      "v": 67
    },
    {
      "midi": 45,
      "hit": false,
      "t": 12396.548625000012,
      "d": 75.86204999999973,
      "v": 59
    },
    {
      "midi": 69,
      "hit": false,
      "t": 12398.272762500012,
      "d": 82.75860000000102,
      "v": 59
    },
    {
      "midi": 81,
      "hit": false,
      "t": 12584.479612500012,
      "d": 48.27584999999999,
      "v": 67
    },
    {
      "midi": 74,
      "hit": false,
      "t": 12591.376162500012,
      "d": 20.689650000000256,
      "v": 52
    },
    {
      "midi": 69,
      "hit": false,
      "t": 12591.376162500012,
      "d": 31.034475000000384,
      "v": 52
    },
    {
      "midi": 54,
      "hit": false,
      "t": 12601.720987500012,
      "d": 20.689650000000256,
      "v": 50
    },
    {
      "midi": 42,
      "hit": false,
      "t": 12603.445125000011,
      "d": 15.517237500000192,
      "v": 55
    },
    {
      "midi": 69,
      "hit": false,
      "t": 12794.824387500012,
      "d": 31.034475000000384,
      "v": 59
    },
    {
      "midi": 76,
      "hit": false,
      "t": 12796.548525000011,
      "d": 34.48275000000103,
      "v": 70
    },
    {
      "midi": 81,
      "hit": false,
      "t": 12805.169212500012,
      "d": 34.48275000000103,
      "v": 70
    },
    {
      "midi": 45,
      "hit": false,
      "t": 12806.893350000011,
      "d": 8.620687500000713,
      "v": 59
    },
    {
      "midi": 57,
      "hit": false,
      "t": 12815.514037500012,
      "d": 15.517237500000192,
      "v": 41
    },
    {
      "midi": 81,
      "hit": false,
      "t": 12989.651925000013,
      "d": 122.4137625000003,
      "v": 70
    },
    {
      "midi": 69,
      "hit": false,
      "t": 12994.824337500013,
      "d": 110.34480000000076,
      "v": 67
    },
    {
      "midi": 78,
      "hit": false,
      "t": 12994.824337500013,
      "d": 131.03445000000102,
      "v": 68
    },
    {
      "midi": 62,
      "hit": false,
      "t": 13006.893300000012,
      "d": 89.6551500000005,
      "v": 67
    },
    {
      "midi": 50,
      "hit": false,
      "t": 13006.893300000012,
      "d": 105.1723875000007,
      "v": 70
    },
    {
      "midi": 45,
      "hit": false,
      "t": 13196.548425000014,
      "d": 53.448262500001874,
      "v": 39
    },
    {
      "midi": 57,
      "hit": false,
      "t": 13201.720837500014,
      "d": 39.6551625000011,
      "v": 47
    },
    {
      "midi": 81,
      "hit": false,
      "t": 13201.720837500014,
      "d": 48.27585000000181,
      "v": 70
    },
    {
      "midi": 76,
      "hit": false,
      "t": 13210.341525000014,
      "d": 25.86206250000032,
      "v": 62
    },
    {
      "midi": 69,
      "hit": false,
      "t": 13210.341525000014,
      "d": 31.034475000000384,
      "v": 56
    },
    {
      "midi": 81,
      "hit": false,
      "t": 13398.272512500016,
      "d": 37.93102499999986,
      "v": 67
    },
    {
      "midi": 74,
      "hit": false,
      "t": 13399.996650000016,
      "d": 20.689650000000256,
      "v": 59
    },
    {
      "midi": 42,
      "hit": false,
      "t": 13399.996650000016,
      "d": 29.31033750000097,
      "v": 63
    },
    {
      "midi": 69,
      "hit": false,
      "t": 13399.996650000016,
      "d": 29.31033750000097,
      "v": 59
    },
    {
      "midi": 54,
      "hit": false,
      "t": 13415.513887500016,
      "d": 10.344825000000128,
      "v": 58
    },
    {
      "midi": 81,
      "hit": false,
      "t": 13589.651775000017,
      "d": 55.17239999999765,
      "v": 67
    },
    {
      "midi": 57,
      "hit": false,
      "t": 13596.548325000016,
      "d": 34.482749999999214,
      "v": 59
    },
    {
      "midi": 76,
      "hit": false,
      "t": 13596.548325000016,
      "d": 34.482749999999214,
      "v": 67
    },
    {
      "midi": 69,
      "hit": false,
      "t": 13596.548325000016,
      "d": 41.37929999999869,
      "v": 59
    },
    {
      "midi": 45,
      "hit": false,
      "t": 13598.272462500016,
      "d": 39.65516249999928,
      "v": 59
    },
    {
      "midi": 69,
      "hit": false,
      "t": 13808.617237500015,
      "d": 37.93102500000168,
      "v": 56
    },
    {
      "midi": 74,
      "hit": false,
      "t": 13817.237925000016,
      "d": 24.137925000000905,
      "v": 62
    },
    {
      "midi": 42,
      "hit": false,
      "t": 13817.237925000016,
      "d": 29.31033750000097,
      "v": 63
    },
    {
      "midi": 81,
      "hit": false,
      "t": 13817.237925000016,
      "d": 39.6551625000011,
      "v": 59
    },
    {
      "midi": 54,
      "hit": false,
      "t": 13827.582750000016,
      "d": 18.96551250000084,
      "v": 55
    },
    {
      "midi": 76,
      "hit": false,
      "t": 14027.582700000017,
      "d": 41.37929999999869,
      "v": 67
    },
    {
      "midi": 69,
      "hit": false,
      "t": 14034.479250000017,
      "d": 27.586199999999735,
      "v": 59
    },
    {
      "midi": 81,
      "hit": false,
      "t": 14034.479250000017,
      "d": 37.93102499999986,
      "v": 67
    },
    {
      "midi": 45,
      "hit": false,
      "t": 14046.548212500016,
      "d": 6.896549999999479,
      "v": 52
    },
    {
      "midi": 57,
      "hit": false,
      "t": 14046.548212500016,
      "d": 15.517237500000192,
      "v": 41
    },
    {
      "midi": 81,
      "hit": false,
      "t": 14244.824025000016,
      "d": 48.27585000000181,
      "v": 70
    },
    {
      "midi": 69,
      "hit": false,
      "t": 14253.444712500017,
      "d": 31.034475000000384,
      "v": 59
    },
    {
      "midi": 78,
      "hit": false,
      "t": 14253.444712500017,
      "d": 44.82757500000116,
      "v": 68
    },
    {
      "midi": 62,
      "hit": false,
      "t": 14263.789537500017,
      "d": 12.068962499999543,
      "v": 52
    },
    {
      "midi": 50,
      "hit": false,
      "t": 14263.789537500017,
      "d": 34.48275000000103,
      "v": 59
    },
    {
      "midi": 45,
      "hit": false,
      "t": 14470.686037500018,
      "d": 39.65516249999928,
      "v": 67
    },
    {
      "midi": 57,
      "hit": false,
      "t": 14475.858450000018,
      "d": 18.965512499999022,
      "v": 52
    },
    {
      "midi": 69,
      "hit": false,
      "t": 14475.858450000018,
      "d": 37.93102499999986,
      "v": 67
    },
    {
      "midi": 81,
      "hit": false,
      "t": 14475.858450000018,
      "d": 44.82757499999934,
      "v": 70
    },
    {
      "midi": 76,
      "hit": false,
      "t": 14487.927412500017,
      "d": 17.241374999999607,
      "v": 67
    },
    {
      "midi": 37,
      "hit": false,
      "t": 14579.306700000017,
      "d": 18.96551250000084,
      "v": 24
    },
    {
      "midi": 81,
      "hit": false,
      "t": 14698.272187500019,
      "d": 55.17240000000129,
      "v": 67
    },
    {
      "midi": 69,
      "hit": false,
      "t": 14705.168737500018,
      "d": 29.31033750000097,
      "v": 62
    },
    {
      "midi": 74,
      "hit": false,
      "t": 14705.168737500018,
      "d": 34.48275000000103,
      "v": 70
    },
    {
      "midi": 50,
      "hit": false,
      "t": 14715.513562500018,
      "d": 15.517237500000192,
      "v": 59
    },
    {
      "midi": 38,
      "hit": false,
      "t": 14715.513562500018,
      "d": 32.75861250000162,
      "v": 62
    },
    {
      "midi": 76,
      "hit": false,
      "t": 14896.54800000002,
      "d": 37.93102499999986,
      "v": 31
    },
    {
      "midi": 33,
      "hit": false,
      "t": 14896.54800000002,
      "d": 586.2067500000067,
      "v": 59
    },
    {
      "midi": 45,
      "hit": false,
      "t": 14896.54800000002,
      "d": 586.2067500000067,
      "v": 62
    },
    {
      "midi": 78,
      "hit": false,
      "t": 14948.272125000021,
      "d": 37.93102499999986,
      "v": 27
    },
    {
      "midi": 76,
      "hit": false,
      "t": 14999.996250000022,
      "d": 37.93102499999986,
      "v": 20
    },
    {
      "midi": 78,
      "hit": false,
      "t": 15051.720375000023,
      "d": 37.93102499999986,
      "v": 24
    },
    {
      "midi": 76,
      "hit": false,
      "t": 15103.444500000023,
      "d": 37.93102499999986,
      "v": 34
    },
    {
      "midi": 78,
      "hit": false,
      "t": 15155.168625000024,
      "d": 37.93102499999986,
      "v": 38
    },
    {
      "midi": 76,
      "hit": false,
      "t": 15206.892750000025,
      "d": 37.93102499999986,
      "v": 44
    },
    {
      "midi": 78,
      "hit": false,
      "t": 15258.616875000025,
      "d": 37.93102499999986,
      "v": 27
    },
    {
      "midi": 76,
      "hit": false,
      "t": 15310.341000000026,
      "d": 37.93102499999986,
      "v": 34
    },
    {
      "midi": 78,
      "hit": false,
      "t": 15362.065125000026,
      "d": 37.93102499999986,
      "v": 27
    },
    {
      "midi": 76,
      "hit": false,
      "t": 15413.789250000027,
      "d": 37.93102499999986,
      "v": 21
    },
    {
      "midi": 78,
      "hit": false,
      "t": 15465.513375000028,
      "d": 37.93102499999986,
      "v": 22
    },
    {
      "midi": 69,
      "hit": false,
      "t": 15517.237500000028,
      "d": 37.93102499999986,
      "v": 26
    },
    {
      "midi": 57,
      "hit": false,
      "t": 15529.306462500028,
      "d": 179.31030000000283,
      "v": 30
    },
    {
      "midi": 61,
      "hit": false,
      "t": 15529.306462500028,
      "d": 184.4827125000029,
      "v": 40
    },
    {
      "midi": 71,
      "hit": false,
      "t": 15568.961625000029,
      "d": 37.93102499999986,
      "v": 29
    },
    {
      "midi": 69,
      "hit": false,
      "t": 15620.68575000003,
      "d": 37.93102499999986,
      "v": 36
    },
    {
      "midi": 71,
      "hit": false,
      "t": 15672.40987500003,
      "d": 37.93102499999986,
      "v": 31
    },
    {
      "midi": 62,
      "hit": false,
      "t": 15720.68572500003,
      "d": 168.96547500000088,
      "v": 34
    },
    {
      "midi": 69,
      "hit": false,
      "t": 15724.134000000031,
      "d": 37.93102499999986,
      "v": 29
    },
    {
      "midi": 59,
      "hit": false,
      "t": 15727.582275000032,
      "d": 227.58615000000282,
      "v": 29
    },
    {
      "midi": 71,
      "hit": false,
      "t": 15827.58225000003,
      "d": 37.93102499999986,
      "v": 44
    },
    {
      "midi": 73,
      "hit": false,
      "t": 15879.306375000031,
      "d": 37.93102500000168,
      "v": 47
    },
    {
      "midi": 64,
      "hit": false,
      "t": 15889.651200000031,
      "d": 75.86205000000336,
      "v": 34
    },
    {
      "midi": 61,
      "hit": false,
      "t": 15898.271887500032,
      "d": 163.79306250000263,
      "v": 43
    },
    {
      "midi": 74,
      "hit": false,
      "t": 15931.030500000033,
      "d": 77.58618750000096,
      "v": 39
    },
    {
      "midi": 76,
      "hit": false,
      "t": 16034.478750000035,
      "d": 77.58618749999914,
      "v": 62
    },
    {
      "midi": 62,
      "hit": false,
      "t": 16084.478737500034,
      "d": 446.55161249999946,
      "v": 33
    },
    {
      "midi": 66,
      "hit": false,
      "t": 16084.478737500034,
      "d": 506.896424999999,
      "v": 42
    },
    {
      "midi": 78,
      "hit": false,
      "t": 16137.927000000034,
      "d": 155.1723750000001,
      "v": 58
    },
    {
      "midi": 74,
      "hit": false,
      "t": 16344.823500000035,
      "d": 155.17237499999828,
      "v": 47
    },
    {
      "midi": 71,
      "hit": false,
      "t": 16551.720000000034,
      "d": 155.17237499999828,
      "v": 44
    },
    {
      "midi": 68,
      "hit": false,
      "t": 16758.616500000033,
      "d": 37.93102500000168,
      "v": 50
    },
    {
      "midi": 59,
      "hit": false,
      "t": 16763.788912500033,
      "d": 199.99995000000126,
      "v": 18
    },
    {
      "midi": 62,
      "hit": false,
      "t": 16765.513050000034,
      "d": 222.41373749999912,
      "v": 39
    },
    {
      "midi": 69,
      "hit": false,
      "t": 16810.340625000033,
      "d": 37.93102500000168,
      "v": 44
    },
    {
      "midi": 68,
      "hit": false,
      "t": 16862.064750000034,
      "d": 37.93102500000168,
      "v": 35
    },
    {
      "midi": 69,
      "hit": false,
      "t": 16913.788875000035,
      "d": 37.931024999998044,
      "v": 32
    },
    {
      "midi": 68,
      "hit": false,
      "t": 16965.513000000035,
      "d": 37.931024999998044,
      "v": 27
    },
    {
      "midi": 61,
      "hit": false,
      "t": 16979.306100000034,
      "d": 187.9309874999999,
      "v": 37
    },
    {
      "midi": 64,
      "hit": false,
      "t": 16987.926787500033,
      "d": 222.41373750000275,
      "v": 34
    },
    {
      "midi": 69,
      "hit": false,
      "t": 17068.961250000033,
      "d": 37.93102500000168,
      "v": 50
    },
    {
      "midi": 71,
      "hit": false,
      "t": 17120.685375000034,
      "d": 37.93102500000168,
      "v": 50
    },
    {
      "midi": 73,
      "hit": false,
      "t": 17172.409500000034,
      "d": 77.58618750000096,
      "v": 55
    },
    {
      "midi": 62,
      "hit": false,
      "t": 17194.823287500036,
      "d": 196.55167500000243,
      "v": 39
    },
    {
      "midi": 66,
      "hit": false,
      "t": 17194.823287500036,
      "d": 217.2413250000027,
      "v": 34
    },
    {
      "midi": 74,
      "hit": false,
      "t": 17275.857750000036,
      "d": 77.58618750000096,
      "v": 52
    },
    {
      "midi": 76,
      "hit": false,
      "t": 17379.306000000037,
      "d": 155.17237500000192,
      "v": 59
    },
    {
      "midi": 64,
      "hit": false,
      "t": 17396.54737500004,
      "d": 317.2413000000015,
      "v": 51
    },
    {
      "midi": 61,
      "hit": false,
      "t": 17398.27151250004,
      "d": 374.1378375000022,
      "v": 43
    },
    {
      "midi": 73,
      "hit": false,
      "t": 17586.20250000004,
      "d": 155.17237500000192,
      "v": 55
    },
    {
      "midi": 69,
      "hit": false,
      "t": 17793.099000000042,
      "d": 155.17237499999828,
      "v": 56
    },
    {
      "midi": 66,
      "hit": false,
      "t": 17999.99550000004,
      "d": 37.93102500000168,
      "v": 35
    },
    {
      "midi": 61,
      "hit": false,
      "t": 18020.68515000004,
      "d": 208.62063750000016,
      "v": 43
    },
    {
      "midi": 57,
      "hit": false,
      "t": 18022.409287500042,
      "d": 187.9309874999999,
      "v": 33
    },
    {
      "midi": 68,
      "hit": false,
      "t": 18051.71962500004,
      "d": 37.93102500000168,
      "v": 40
    },
    {
      "midi": 66,
      "hit": false,
      "t": 18103.443750000042,
      "d": 37.93102500000168,
      "v": 32
    },
    {
      "midi": 68,
      "hit": false,
      "t": 18155.167875000043,
      "d": 37.93102500000168,
      "v": 29
    },
    {
      "midi": 66,
      "hit": false,
      "t": 18206.892000000043,
      "d": 37.931024999998044,
      "v": 13
    },
    {
      "midi": 62,
      "hit": false,
      "t": 18218.96096250004,
      "d": 187.93098750000354,
      "v": 39
    },
    {
      "midi": 59,
      "hit": false,
      "t": 18229.30578750004,
      "d": 199.9999500000049,
      "v": 40
    },
    {
      "midi": 68,
      "hit": false,
      "t": 18310.34025000004,
      "d": 37.93102500000168,
      "v": 38
    },
    {
      "midi": 69,
      "hit": false,
      "t": 18362.06437500004,
      "d": 37.93102500000168,
      "v": 50
    },
    {
      "midi": 71,
      "hit": false,
      "t": 18413.788500000046,
      "d": 77.58618750000096,
      "v": 41
    },
    {
      "midi": 64,
      "hit": false,
      "t": 18413.788500000046,
      "d": 239.65511250000418,
      "v": 44
    },
    {
      "midi": 61,
      "hit": false,
      "t": 18429.305737500046,
      "d": 203.44822500000373,
      "v": 52
    },
    {
      "midi": 73,
      "hit": false,
      "t": 18517.236750000047,
      "d": 77.58618750000096,
      "v": 47
    },
    {
      "midi": 74,
      "hit": false,
      "t": 18620.68500000005,
      "d": 155.17237500000192,
      "v": 59
    },
    {
      "midi": 62,
      "hit": false,
      "t": 18639.65051250005,
      "d": 332.75853749999806,
      "v": 44
    },
    {
      "midi": 59,
      "hit": false,
      "t": 18653.44361250005,
      "d": 329.3102624999992,
      "v": 47
    },
    {
      "midi": 71,
      "hit": false,
      "t": 18827.58150000005,
      "d": 155.17237499999828,
      "v": 50
    },
    {
      "midi": 68,
      "hit": false,
      "t": 19034.47800000005,
      "d": 155.17237499999828,
      "v": 55
    },
    {
      "midi": 64,
      "hit": false,
      "t": 19241.37450000005,
      "d": 37.93102500000168,
      "v": 11
    },
    {
      "midi": 56,
      "hit": false,
      "t": 19248.27105000005,
      "d": 186.2068500000023,
      "v": 45
    },
    {
      "midi": 59,
      "hit": false,
      "t": 19248.27105000005,
      "d": 210.3447750000014,
      "v": 45
    },
    {
      "midi": 66,
      "hit": false,
      "t": 19293.09862500005,
      "d": 37.93102500000168,
      "v": 15
    },
    {
      "midi": 64,
      "hit": false,
      "t": 19344.82275000005,
      "d": 37.93102500000168,
      "v": 17
    },
    {
      "midi": 66,
      "hit": false,
      "t": 19396.54687500005,
      "d": 37.93102500000168,
      "v": 14
    },
    {
      "midi": 64,
      "hit": false,
      "t": 19448.27100000005,
      "d": 37.931024999998044,
      "v": 24
    },
    {
      "midi": 61,
      "hit": false,
      "t": 19449.995137500053,
      "d": 220.68959999999788,
      "v": 50
    },
    {
      "midi": 57,
      "hit": false,
      "t": 19458.61582500005,
      "d": 212.068912499999,
      "v": 37
    },
    {
      "midi": 66,
      "hit": false,
      "t": 19551.71925000005,
      "d": 37.93102500000168,
      "v": 47
    },
    {
      "midi": 68,
      "hit": false,
      "t": 19603.44337500005,
      "d": 37.93102500000168,
      "v": 44
    },
    {
      "midi": 69,
      "hit": false,
      "t": 19655.16750000005,
      "d": 77.58618750000096,
      "v": 56
    },
    {
      "midi": 62,
      "hit": false,
      "t": 19655.16750000005,
      "d": 229.31028750000405,
      "v": 37
    },
    {
      "midi": 59,
      "hit": false,
      "t": 19672.408875000052,
      "d": 175.86202500000218,
      "v": 53
    },
    {
      "midi": 71,
      "hit": false,
      "t": 19758.61575000005,
      "d": 77.58618750000096,
      "v": 50
    },
    {
      "midi": 73,
      "hit": false,
      "t": 19862.064000000057,
      "d": 77.58618749999732,
      "v": 38
    },
    {
      "midi": 61,
      "hit": false,
      "t": 19884.477787500055,
      "d": 208.6206375000038,
      "v": 43
    },
    {
      "midi": 57,
      "hit": false,
      "t": 19899.995025000055,
      "d": 112.06893750000017,
      "v": 39
    },
    {
      "midi": 73,
      "hit": false,
      "t": 19965.512250000054,
      "d": 77.58618750000096,
      "v": 47
    },
    {
      "midi": 73,
      "hit": false,
      "t": 20068.960500000056,
      "d": 77.58618750000096,
      "v": 38
    },
    {
      "midi": 57,
      "hit": false,
      "t": 20093.09842500006,
      "d": 170.68961249999847,
      "v": 6
    },
    {
      "midi": 73,
      "hit": false,
      "t": 20172.408750000057,
      "d": 77.58618750000096,
      "v": 32
    },
    {
      "midi": 73,
      "hit": false,
      "t": 20275.857000000058,
      "d": 77.58618750000096,
      "v": 22
    },
    {
      "midi": 56,
      "hit": false,
      "t": 20289.650100000057,
      "d": 62.06895000000077,
      "v": 45
    },
    {
      "midi": 73,
      "hit": false,
      "t": 20379.30525000006,
      "d": 77.58618750000096,
      "v": 32
    },
    {
      "midi": 73,
      "hit": false,
      "t": 20482.75350000006,
      "d": 77.58618749999732,
      "v": 38
    },
    {
      "midi": 54,
      "hit": false,
      "t": 20506.89142500006,
      "d": 24.137924999999086,
      "v": 49
    },
    {
      "midi": 73,
      "hit": false,
      "t": 20586.20175000006,
      "d": 77.58618750000096,
      "v": 38
    },
    {
      "midi": 73,
      "hit": false,
      "t": 20689.65000000006,
      "d": 77.58618750000096,
      "v": 38
    },
    {
      "midi": 69,
      "hit": false,
      "t": 20703.44310000006,
      "d": 213.79305000000386,
      "v": 42
    },
    {
      "midi": 73,
      "hit": false,
      "t": 20793.09825000006,
      "d": 77.58618750000096,
      "v": 19
    },
    {
      "midi": 73,
      "hit": false,
      "t": 20896.546500000062,
      "d": 77.58618750000096,
      "v": 20
    },
    {
      "midi": 64,
      "hit": false,
      "t": 20908.615462500064,
      "d": 182.75857500000347,
      "v": 39
    },
    {
      "midi": 73,
      "hit": false,
      "t": 20999.994750000064,
      "d": 77.58618750000096,
      "v": 27
    },
    {
      "midi": 78,
      "hit": false,
      "t": 21103.44300000007,
      "d": 155.17237500000192,
      "v": 58
    },
    {
      "midi": 63,
      "hit": false,
      "t": 21105.16713750007,
      "d": 474.137812500001,
      "v": 49
    },
    {
      "midi": 71,
      "hit": false,
      "t": 21310.33950000007,
      "d": 155.17237499999828,
      "v": 36
    },
    {
      "midi": 69,
      "hit": false,
      "t": 21517.23600000007,
      "d": 155.17237500000192,
      "v": 39
    },
    {
      "midi": 59,
      "hit": false,
      "t": 21522.40841250007,
      "d": 124.13790000000154,
      "v": 40
    },
    {
      "midi": 71,
      "hit": false,
      "t": 21724.132500000072,
      "d": 77.58618750000096,
      "v": 20
    },
    {
      "midi": 71,
      "hit": false,
      "t": 21827.580750000074,
      "d": 77.58618750000096,
      "v": 31
    },
    {
      "midi": 71,
      "hit": false,
      "t": 21931.029000000075,
      "d": 77.58618750000096,
      "v": 23
    },
    {
      "midi": 68,
      "hit": false,
      "t": 21946.546237500075,
      "d": 232.75856250000288,
      "v": 49
    },
    {
      "midi": 71,
      "hit": false,
      "t": 22034.477250000076,
      "d": 77.58618750000096,
      "v": 26
    },
    {
      "midi": 71,
      "hit": false,
      "t": 22137.925500000078,
      "d": 77.58618750000096,
      "v": 21
    },
    {
      "midi": 66,
      "hit": false,
      "t": 22155.16687500008,
      "d": 199.99995000000126,
      "v": 49
    },
    {
      "midi": 71,
      "hit": false,
      "t": 22241.37375000008,
      "d": 77.58618750000096,
      "v": 29
    },
    {
      "midi": 71,
      "hit": false,
      "t": 22344.82200000008,
      "d": 77.58618750000096,
      "v": 41
    },
    {
      "midi": 64,
      "hit": false,
      "t": 22355.16682500008,
      "d": 208.6206375000038,
      "v": 51
    },
    {
      "midi": 71,
      "hit": false,
      "t": 22448.27025000008,
      "d": 77.58618750000096,
      "v": 26
    },
    {
      "midi": 71,
      "hit": false,
      "t": 22551.718500000083,
      "d": 77.58618750000096,
      "v": 34
    },
    {
      "midi": 68,
      "hit": false,
      "t": 22568.959875000084,
      "d": 222.41373749999912,
      "v": 37
    },
    {
      "midi": 71,
      "hit": false,
      "t": 22655.166750000084,
      "d": 77.58618750000096,
      "v": 29
    },
    {
      "midi": 71,
      "hit": false,
      "t": 22758.615000000085,
      "d": 77.58618749999732,
      "v": 32
    },
    {
      "midi": 62,
      "hit": false,
      "t": 22772.408100000084,
      "d": 125.86203749999913,
      "v": 39
    },
    {
      "midi": 71,
      "hit": false,
      "t": 22862.063250000083,
      "d": 77.58618750000096,
      "v": 25
    },
    {
      "midi": 80,
      "hit": false,
      "t": 22965.511500000084,
      "d": 155.17237499999828,
      "v": 50
    },
    {
      "midi": 73,
      "hit": false,
      "t": 23172.408000000083,
      "d": 155.17237499999828,
      "v": 44
    },
    {
      "midi": 61,
      "hit": false,
      "t": 23177.580412500083,
      "d": 246.5516624999982,
      "v": 45
    },
    {
      "midi": 71,
      "hit": false,
      "t": 23379.304500000082,
      "d": 155.17237500000192,
      "v": 21
    },
    {
      "midi": 65,
      "hit": false,
      "t": 23384.476912500082,
      "d": 117.24135000000024,
      "v": 47
    },
    {
      "midi": 69,
      "hit": false,
      "t": 23586.201000000085,
      "d": 77.58618750000096,
      "v": 36
    },
    {
      "midi": 69,
      "hit": false,
      "t": 23689.649250000086,
      "d": 77.58618750000096,
      "v": 34
    },
    {
      "midi": 69,
      "hit": false,
      "t": 23793.097500000087,
      "d": 77.58618750000096,
      "v": 34
    },
    {
      "midi": 66,
      "hit": false,
      "t": 23803.442325000087,
      "d": 218.96546250000029,
      "v": 42
    },
    {
      "midi": 69,
      "hit": false,
      "t": 23896.54575000009,
      "d": 77.58618750000096,
      "v": 26
    },
    {
      "midi": 69,
      "hit": false,
      "t": 23999.99400000009,
      "d": 77.58618749999732,
      "v": 29
    },
    {
      "midi": 64,
      "hit": false,
      "t": 24013.78710000009,
      "d": 215.51718750000146,
      "v": 44
    },
    {
      "midi": 69,
      "hit": false,
      "t": 24103.442250000087,
      "d": 77.58618750000096,
      "v": 20
    },
    {
      "midi": 69,
      "hit": false,
      "t": 24206.89050000009,
      "d": 77.58618750000096,
      "v": 44
    },
    {
      "midi": 63,
      "hit": false,
      "t": 24218.95946250009,
      "d": 206.89650000000256,
      "v": 53
    },
    {
      "midi": 69,
      "hit": false,
      "t": 24310.33875000009,
      "d": 77.58618750000096,
      "v": 29
    },
    {
      "midi": 69,
      "hit": false,
      "t": 24413.78700000009,
      "d": 77.58618750000096,
      "v": 29
    },
    {
      "midi": 66,
      "hit": false,
      "t": 24425.855962500093,
      "d": 218.96546250000029,
      "v": 34
    },
    {
      "midi": 69,
      "hit": false,
      "t": 24517.235250000092,
      "d": 77.58618750000096,
      "v": 26
    },
    {
      "midi": 61,
      "hit": false,
      "t": 24618.959362500093,
      "d": 101.72411250000005,
      "v": 50
    },
    {
      "midi": 69,
      "hit": false,
      "t": 24620.683500000094,
      "d": 77.58618749999732,
      "v": 31
    },
    {
      "midi": 69,
      "hit": false,
      "t": 24724.13175000009,
      "d": 77.58618750000096,
      "v": 32
    },
    {
      "midi": 78,
      "hit": false,
      "t": 24827.580000000093,
      "d": 155.17237499999828,
      "v": 63
    },
    {
      "midi": 71,
      "hit": false,
      "t": 25034.47650000009,
      "d": 155.17237499999828,
      "v": 34
    },
    {
      "midi": 59,
      "hit": false,
      "t": 25039.64891250009,
      "d": 289.65509999999995,
      "v": 51
    },
    {
      "midi": 69,
      "hit": false,
      "t": 25241.37300000009,
      "d": 155.17237500000192,
      "v": 47
    },
    {
      "midi": 63,
      "hit": false,
      "t": 25251.71782500009,
      "d": 186.2068500000023,
      "v": 42
    },
    {
      "midi": 68,
      "hit": false,
      "t": 25448.269500000093,
      "d": 77.58618750000096,
      "v": 47
    },
    {
      "midi": 64,
      "hit": false,
      "t": 25458.614325000093,
      "d": 398.27576250000493,
      "v": 51
    },
    {
      "midi": 71,
      "hit": false,
      "t": 25551.717750000094,
      "d": 77.58618750000096,
      "v": 50
    },
    {
      "midi": 69,
      "hit": false,
      "t": 25655.166000000096,
      "d": 77.58618750000096,
      "v": 47
    },
    {
      "midi": 68,
      "hit": false,
      "t": 25758.614250000097,
      "d": 77.58618750000096,
      "v": 44
    },
    {
      "midi": 56,
      "hit": false,
      "t": 25849.993537500097,
      "d": 63.793087500002,
      "v": 45
    },
    {
      "midi": 66,
      "hit": false,
      "t": 25862.0625000001,
      "d": 77.58618750000096,
      "v": 32
    },
    {
      "midi": 64,
      "hit": false,
      "t": 25965.5107500001,
      "d": 77.58618750000096,
      "v": 33
    },
    {
      "midi": 73,
      "hit": false,
      "t": 26068.9590000001,
      "d": 77.58618750000096,
      "v": 50
    },
    {
      "midi": 64,
      "hit": false,
      "t": 26068.9590000001,
      "d": 429.3102375000053,
      "v": 51
    },
    {
      "midi": 57,
      "hit": false,
      "t": 26068.9590000001,
      "d": 444.8274750000055,
      "v": 44
    },
    {
      "midi": 73,
      "hit": false,
      "t": 26172.407250000102,
      "d": 77.58618750000096,
      "v": 50
    },
    {
      "midi": 71,
      "hit": false,
      "t": 26275.855500000103,
      "d": 77.58618750000096,
      "v": 26
    },
    {
      "midi": 69,
      "hit": false,
      "t": 26379.303750000105,
      "d": 77.58618750000096,
      "v": 50
    },
    {
      "midi": 68,
      "hit": false,
      "t": 26482.752000000106,
      "d": 77.58618750000096,
      "v": 40
    },
    {
      "midi": 54,
      "hit": false,
      "t": 26505.165787500107,
      "d": 44.82757499999934,
      "v": 49
    },
    {
      "midi": 66,
      "hit": false,
      "t": 26586.200250000107,
      "d": 77.58618750000096,
      "v": 40
    },
    {
      "midi": 71,
      "hit": false,
      "t": 26689.64850000011,
      "d": 77.58618750000096,
      "v": 52
    },
    {
      "midi": 56,
      "hit": false,
      "t": 26705.16573750011,
      "d": 203.44822500000373,
      "v": 52
    },
    {
      "midi": 64,
      "hit": false,
      "t": 26705.16573750011,
      "d": 213.79305000000386,
      "v": 46
    },
    {
      "midi": 71,
      "hit": false,
      "t": 26793.09675000011,
      "d": 77.58618750000096,
      "v": 50
    },
    {
      "midi": 69,
      "hit": false,
      "t": 26896.54500000011,
      "d": 77.58618750000096,
      "v": 50
    },
    {
      "midi": 68,
      "hit": false,
      "t": 26999.993250000112,
      "d": 77.58618750000096,
      "v": 38
    },
    {
      "midi": 66,
      "hit": false,
      "t": 27103.441500000114,
      "d": 77.58618749999732,
      "v": 44
    },
    {
      "midi": 52,
      "hit": false,
      "t": 27131.02770000011,
      "d": 63.793087499998364,
      "v": 59
    },
    {
      "midi": 64,
      "hit": false,
      "t": 27206.88975000011,
      "d": 77.58618750000096,
      "v": 34
    },
    {
      "midi": 73,
      "hit": false,
      "t": 27310.338000000113,
      "d": 77.58618750000096,
      "v": 55
    },
    {
      "midi": 57,
      "hit": false,
      "t": 27329.30351250011,
      "d": 220.68960000000516,
      "v": 47
    },
    {
      "midi": 64,
      "hit": false,
      "t": 27339.64833750011,
      "d": 177.5861625000034,
      "v": 49
    },
    {
      "midi": 73,
      "hit": false,
      "t": 27413.786250000114,
      "d": 77.58618750000096,
      "v": 63
    },
    {
      "midi": 71,
      "hit": false,
      "t": 27517.234500000115,
      "d": 77.58618750000096,
      "v": 47
    },
    {
      "midi": 69,
      "hit": false,
      "t": 27620.682750000116,
      "d": 77.58618750000096,
      "v": 44
    },
    {
      "midi": 68,
      "hit": false,
      "t": 27724.131000000118,
      "d": 77.58618750000096,
      "v": 40
    },
    {
      "midi": 54,
      "hit": false,
      "t": 27765.510300000118,
      "d": 53.448262499998236,
      "v": 62
    },
    {
      "midi": 66,
      "hit": false,
      "t": 27827.579250000115,
      "d": 77.58618750000096,
      "v": 50
    },
    {
      "midi": 76,
      "hit": false,
      "t": 27931.027500000117,
      "d": 77.5861875000046,
      "v": 56
    },
    {
      "midi": 56,
      "hit": false,
      "t": 27953.441287500118,
      "d": 249.9999375000043,
      "v": 56
    },
    {
      "midi": 64,
      "hit": false,
      "t": 27958.613700000118,
      "d": 401.72403750001104,
      "v": 46
    },
    {
      "midi": 76,
      "hit": false,
      "t": 28034.47575000012,
      "d": 77.58618750000096,
      "v": 59
    },
    {
      "midi": 75,
      "hit": false,
      "t": 28137.924000000123,
      "d": 77.58618750000096,
      "v": 55
    },
    {
      "midi": 73,
      "hit": false,
      "t": 28241.372250000124,
      "d": 77.58618750000096,
      "v": 50
    },
    {
      "midi": 71,
      "hit": false,
      "t": 28344.82050000013,
      "d": 77.58618750000096,
      "v": 36
    },
    {
      "midi": 57,
      "hit": false,
      "t": 28360.33773750013,
      "d": 203.44822500000373,
      "v": 59
    },
    {
      "midi": 69,
      "hit": false,
      "t": 28448.26875000013,
      "d": 77.58618750000096,
      "v": 44
    },
    {
      "midi": 68,
      "hit": false,
      "t": 28551.71700000013,
      "d": 77.58618750000096,
      "v": 40
    },
    {
      "midi": 59,
      "hit": false,
      "t": 28551.71700000013,
      "d": 436.2067875000066,
      "v": 53
    },
    {
      "midi": 69,
      "hit": false,
      "t": 28655.165250000133,
      "d": 77.58618750000096,
      "v": 52
    },
    {
      "midi": 71,
      "hit": false,
      "t": 28758.613500000134,
      "d": 77.58618750000096,
      "v": 47
    },
    {
      "midi": 64,
      "hit": false,
      "t": 28862.061750000135,
      "d": 77.58618750000096,
      "v": 44
    },
    {
      "midi": 66,
      "hit": false,
      "t": 28965.510000000137,
      "d": 77.58618750000096,
      "v": 40
    },
    {
      "midi": 47,
      "hit": false,
      "t": 28987.923787500138,
      "d": 131.0344499999992,
      "v": 44
    },
    {
      "midi": 63,
      "hit": false,
      "t": 29068.958250000138,
      "d": 77.58618750000096,
      "v": 44
    },
    {
      "midi": 40,
      "hit": false,
      "t": 29177.57891250014,
      "d": 455.172300000002,
      "v": 50
    },
    {
      "midi": 64,
      "hit": false,
      "t": 29184.47546250014,
      "d": 199.99995000000126,
      "v": 60
    },
    {
      "midi": 76,
      "hit": false,
      "t": 29593.096050000142,
      "d": 46.551712500000576,
      "v": 62
    },
    {
      "midi": 76,
      "hit": false,
      "t": 29803.44082500014,
      "d": 205.17236250000133,
      "v": 56
    },
    {
      "midi": 40,
      "hit": false,
      "t": 29803.44082500014,
      "d": 465.5171250000021,
      "v": 56
    },
    {
      "midi": 77,
      "hit": false,
      "t": 29810.33737500014,
      "d": 189.65512500000114,
      "v": 62
    },
    {
      "midi": 74,
      "hit": false,
      "t": 30020.682150000142,
      "d": 87.93101250000109,
      "v": 47
    },
    {
      "midi": 76,
      "hit": false,
      "t": 30224.130375000143,
      "d": 60.344812499999534,
      "v": 56
    },
    {
      "midi": 72,
      "hit": false,
      "t": 30232.75106250014,
      "d": 36.20688750000045,
      "v": 50
    },
    {
      "midi": 72,
      "hit": false,
      "t": 30429.302737500144,
      "d": 196.5516749999988,
      "v": 56
    },
    {
      "midi": 40,
      "hit": false,
      "t": 30429.302737500144,
      "d": 472.4136749999998,
      "v": 59
    },
    {
      "midi": 74,
      "hit": false,
      "t": 30437.923425000143,
      "d": 179.310300000001,
      "v": 67
    },
    {
      "midi": 71,
      "hit": false,
      "t": 30641.371650000143,
      "d": 87.93101250000109,
      "v": 41
    },
    {
      "midi": 72,
      "hit": false,
      "t": 30849.992287500143,
      "d": 93.10342500000115,
      "v": 52
    },
    {
      "midi": 69,
      "hit": false,
      "t": 30865.509525000143,
      "d": 36.20688750000045,
      "v": 44
    },
    {
      "midi": 71,
      "hit": false,
      "t": 31055.164650000144,
      "d": 179.310300000001,
      "v": 52
    },
    {
      "midi": 69,
      "hit": false,
      "t": 31055.164650000144,
      "d": 187.9309874999999,
      "v": 56
    },
    {
      "midi": 40,
      "hit": false,
      "t": 31055.164650000144,
      "d": 431.0343749999993,
      "v": 56
    },
    {
      "midi": 67,
      "hit": false,
      "t": 31256.888737500143,
      "d": 112.06893750000017,
      "v": 50
    },
    {
      "midi": 65,
      "hit": false,
      "t": 31448.268000000142,
      "d": 174.13788750000094,
      "v": 50
    },
    {
      "midi": 69,
      "hit": false,
      "t": 31448.268000000142,
      "d": 186.2068500000023,
      "v": 50
    },
    {
      "midi": 40,
      "hit": false,
      "t": 31649.992087500144,
      "d": 446.55161249999946,
      "v": 47
    },
    {
      "midi": 64,
      "hit": false,
      "t": 31655.164500000144,
      "d": 210.34477499999775,
      "v": 64
    },
    {
      "midi": 68,
      "hit": false,
      "t": 31870.681687500142,
      "d": 184.48271250000107,
      "v": 55
    },
    {
      "midi": 64,
      "hit": false,
      "t": 32075.854050000144,
      "d": 25.86206250000032,
      "v": 47
    },
    {
      "midi": 65,
      "hit": false,
      "t": 32277.578137500142,
      "d": 201.72408749999886,
      "v": 56
    },
    {
      "midi": 64,
      "hit": false,
      "t": 32277.578137500142,
      "d": 208.62063750000016,
      "v": 55
    },
    {
      "midi": 40,
      "hit": false,
      "t": 32277.578137500142,
      "d": 441.37920000000304,
      "v": 62
    },
    {
      "midi": 62,
      "hit": false,
      "t": 32496.543600000143,
      "d": 124.13790000000154,
      "v": 44
    },
    {
      "midi": 64,
      "hit": false,
      "t": 32689.647000000143,
      "d": 56.89653750000434,
      "v": 60
    },
    {
      "midi": 60,
      "hit": false,
      "t": 32696.543550000144,
      "d": 44.82757500000298,
      "v": 52
    },
    {
      "midi": 40,
      "hit": false,
      "t": 32896.54350000015,
      "d": 449.99988750000193,
      "v": 52
    },
    {
      "midi": 62,
      "hit": false,
      "t": 32903.44005000015,
      "d": 160.34478750000562,
      "v": 62
    },
    {
      "midi": 60,
      "hit": false,
      "t": 32903.44005000015,
      "d": 175.86202500000218,
      "v": 47
    },
    {
      "midi": 59,
      "hit": false,
      "t": 33093.095175000155,
      "d": 113.79307500000141,
      "v": 54
    },
    {
      "midi": 57,
      "hit": false,
      "t": 33305.164087500154,
      "d": 49.999987499999406,
      "v": 56
    },
    {
      "midi": 60,
      "hit": false,
      "t": 33306.888225000155,
      "d": 62.06895000000077,
      "v": 52
    },
    {
      "midi": 59,
      "hit": false,
      "t": 33508.612312500154,
      "d": 213.79305000000022,
      "v": 51
    },
    {
      "midi": 57,
      "hit": false,
      "t": 33517.23300000015,
      "d": 44.82757500000298,
      "v": 52
    },
    {
      "midi": 40,
      "hit": false,
      "t": 33517.23300000015,
      "d": 455.17229999999836,
      "v": 56
    },
    {
      "midi": 56,
      "hit": false,
      "t": 33722.405362500154,
      "d": 201.72408749999886,
      "v": 59
    },
    {
      "midi": 53,
      "hit": false,
      "t": 33932.75013750015,
      "d": 56.896537499997066,
      "v": 60
    },
    {
      "midi": 52,
      "hit": false,
      "t": 34136.19836250015,
      "d": 241.37924999999086,
      "v": 62
    },
    {
      "midi": 40,
      "hit": false,
      "t": 34141.37077500015,
      "d": 263.79303749999235,
      "v": 44
    },
    {
      "midi": 56,
      "hit": false,
      "t": 34360.336237500145,
      "d": 181.0344374999986,
      "v": 62
    },
    {
      "midi": 64,
      "hit": false,
      "t": 34560.33618750014,
      "d": 18.965512499999022,
      "v": 55
    },
    {
      "midi": 65,
      "hit": false,
      "t": 34737.922350000146,
      "d": 43.10343749999447,
      "v": 52
    },
    {
      "midi": 50,
      "hit": false,
      "t": 34755.163725000144,
      "d": 610.344674999993,
      "v": 47
    },
    {
      "midi": 57,
      "hit": false,
      "t": 34760.33613750014,
      "d": 272.4137249999985,
      "v": 41
    },
    {
      "midi": 67,
      "hit": false,
      "t": 34770.68096250014,
      "d": 48.27584999999817,
      "v": 70
    },
    {
      "midi": 65,
      "hit": false,
      "t": 34812.06026250014,
      "d": 172.4137499999997,
      "v": 62
    },
    {
      "midi": 64,
      "hit": false,
      "t": 34989.64642500014,
      "d": 193.10339999999997,
      "v": 64
    },
    {
      "midi": 69,
      "hit": false,
      "t": 35189.646375000135,
      "d": 187.93098750000354,
      "v": 50
    },
    {
      "midi": 65,
      "hit": false,
      "t": 35203.43947500014,
      "d": 186.2068500000023,
      "v": 56
    },
    {
      "midi": 59,
      "hit": false,
      "t": 35389.64632500014,
      "d": 377.58611249999376,
      "v": 35
    },
    {
      "midi": 64,
      "hit": false,
      "t": 35396.54287500014,
      "d": 220.68959999999788,
      "v": 58
    },
    {
      "midi": 52,
      "hit": false,
      "t": 35396.54287500014,
      "d": 384.4826624999914,
      "v": 39
    },
    {
      "midi": 68,
      "hit": false,
      "t": 35594.818687500134,
      "d": 172.4137499999997,
      "v": 50
    },
    {
      "midi": 76,
      "hit": false,
      "t": 35774.12898750013,
      "d": 22.413787499994214,
      "v": 34
    },
    {
      "midi": 77,
      "hit": false,
      "t": 35939.646187500126,
      "d": 55.17239999999583,
      "v": 50
    },
    {
      "midi": 57,
      "hit": false,
      "t": 35968.956525000125,
      "d": 451.72402500000317,
      "v": 52
    },
    {
      "midi": 50,
      "hit": false,
      "t": 35968.956525000125,
      "d": 556.8964125000057,
      "v": 50
    },
    {
      "midi": 79,
      "hit": false,
      "t": 35994.81858750012,
      "d": 122.4137625000003,
      "v": 67
    },
    {
      "midi": 77,
      "hit": false,
      "t": 36046.54271250012,
      "d": 131.0344499999992,
      "v": 15
    },
    {
      "midi": 76,
      "hit": false,
      "t": 36181.025437500124,
      "d": 22.41378750000149,
      "v": 52
    },
    {
      "midi": 77,
      "hit": false,
      "t": 36405.16331250013,
      "d": 187.93098749999626,
      "v": 59
    },
    {
      "midi": 69,
      "hit": false,
      "t": 36405.16331250013,
      "d": 351.7240499999971,
      "v": 50
    },
    {
      "midi": 59,
      "hit": false,
      "t": 36603.43912500013,
      "d": 406.8964500000002,
      "v": 43
    },
    {
      "midi": 52,
      "hit": false,
      "t": 36613.78395000013,
      "d": 406.8964499999929,
      "v": 41
    },
    {
      "midi": 76,
      "hit": false,
      "t": 36820.68045000013,
      "d": 56.896537499997066,
      "v": 41
    },
    {
      "midi": 68,
      "hit": false,
      "t": 36827.57700000013,
      "d": 187.93098749999626,
      "v": 40
    },
    {
      "midi": 64,
      "hit": false,
      "t": 37029.30108750012,
      "d": 53.448262500001874,
      "v": 40
    },
    {
      "midi": 65,
      "hit": false,
      "t": 37229.30103750012,
      "d": 39.65516249999928,
      "v": 39
    },
    {
      "midi": 57,
      "hit": false,
      "t": 37229.30103750012,
      "d": 431.03437499998836,
      "v": 23
    },
    {
      "midi": 50,
      "hit": false,
      "t": 37229.30103750012,
      "d": 512.0688374999881,
      "v": 34
    },
    {
      "midi": 67,
      "hit": false,
      "t": 37277.576887500116,
      "d": 41.37930000000051,
      "v": 50
    },
    {
      "midi": 65,
      "hit": false,
      "t": 37325.852737500114,
      "d": 105.17238749999524,
      "v": 11
    },
    {
      "midi": 64,
      "hit": false,
      "t": 37432.74926250011,
      "d": 181.0344374999986,
      "v": 44
    },
    {
      "midi": 69,
      "hit": false,
      "t": 37644.81817500011,
      "d": 199.99994999999763,
      "v": 36
    },
    {
      "midi": 65,
      "hit": false,
      "t": 37653.43886250011,
      "d": 196.55167499999516,
      "v": 44
    },
    {
      "midi": 59,
      "hit": false,
      "t": 37858.6112250001,
      "d": 431.0343750000029,
      "v": 27
    },
    {
      "midi": 52,
      "hit": false,
      "t": 37858.6112250001,
      "d": 443.1033375000043,
      "v": 34
    },
    {
      "midi": 64,
      "hit": false,
      "t": 37870.680187500104,
      "d": 199.99994999999763,
      "v": 42
    },
    {
      "midi": 68,
      "hit": false,
      "t": 38060.3353125001,
      "d": 177.5861625000034,
      "v": 47
    },
    {
      "midi": 76,
      "hit": false,
      "t": 38260.335262500106,
      "d": 20.689650000000256,
      "v": 31
    },
    {
      "midi": 77,
      "hit": false,
      "t": 38455.16280000011,
      "d": 55.17240000000311,
      "v": 47
    },
    {
      "midi": 57,
      "hit": false,
      "t": 38468.95590000011,
      "d": 439.6550625000018,
      "v": 47
    },
    {
      "midi": 50,
      "hit": false,
      "t": 38468.95590000011,
      "d": 574.1377875000035,
      "v": 36
    },
    {
      "midi": 79,
      "hit": false,
      "t": 38501.71451250011,
      "d": 39.65516249999928,
      "v": 59
    },
    {
      "midi": 77,
      "hit": false,
      "t": 38534.47312500011,
      "d": 132.75858750000043,
      "v": 34
    },
    {
      "midi": 76,
      "hit": false,
      "t": 38672.40412500011,
      "d": 24.137925000002724,
      "v": 52
    },
    {
      "midi": 77,
      "hit": false,
      "t": 38893.09372500011,
      "d": 162.06892500000686,
      "v": 59
    },
    {
      "midi": 69,
      "hit": false,
      "t": 38893.09372500011,
      "d": 281.0344125000047,
      "v": 47
    },
    {
      "midi": 59,
      "hit": false,
      "t": 39103.43850000011,
      "d": 268.96544999999605,
      "v": 40
    },
    {
      "midi": 52,
      "hit": false,
      "t": 39113.78332500011,
      "d": 236.20683749999444,
      "v": 36
    },
    {
      "midi": 76,
      "hit": false,
      "t": 39312.05913750011,
      "d": 65.51722499999596,
      "v": 56
    },
    {
      "midi": 68,
      "hit": false,
      "t": 39331.02465000011,
      "d": 175.8620249999949,
      "v": 29
    },
    {
      "midi": 64,
      "hit": false,
      "t": 39522.4039125001,
      "d": 118.96548749999783,
      "v": 47
    },
    {
      "midi": 67,
      "hit": false,
      "t": 39710.334900000096,
      "d": 224.13787500000035,
      "v": 62
    },
    {
      "midi": 50,
      "hit": false,
      "t": 39722.4038625001,
      "d": 358.620600000002,
      "v": 39
    },
    {
      "midi": 59,
      "hit": false,
      "t": 39722.4038625001,
      "d": 439.65506249999453,
      "v": 29
    },
    {
      "midi": 57,
      "hit": false,
      "t": 39729.300412500095,
      "d": 427.58610000000044,
      "v": 34
    },
    {
      "midi": 65,
      "hit": false,
      "t": 39922.403812500095,
      "d": 198.27581250000367,
      "v": 36
    },
    {
      "midi": 64,
      "hit": false,
      "t": 40139.6451375001,
      "d": 27.58619999999064,
      "v": 52
    },
    {
      "midi": 74,
      "hit": false,
      "t": 40336.196812500086,
      "d": 253.4482124999995,
      "v": 67
    },
    {
      "midi": 65,
      "hit": false,
      "t": 40346.541637500086,
      "d": 225.86201250000158,
      "v": 56
    },
    {
      "midi": 50,
      "hit": false,
      "t": 40355.162325000085,
      "d": 334.4826749999993,
      "v": 26
    },
    {
      "midi": 59,
      "hit": false,
      "t": 40355.162325000085,
      "d": 413.79299999999785,
      "v": 18
    },
    {
      "midi": 57,
      "hit": false,
      "t": 40367.231287500086,
      "d": 401.7240374999965,
      "v": 21
    },
    {
      "midi": 72,
      "hit": false,
      "t": 40551.71400000009,
      "d": 212.068912499999,
      "v": 62
    },
    {
      "midi": 71,
      "hit": false,
      "t": 40755.16222500009,
      "d": 25.862062499996682,
      "v": 56
    },
    {
      "midi": 79,
      "hit": false,
      "t": 40968.95527500009,
      "d": 253.4482124999995,
      "v": 70
    },
    {
      "midi": 69,
      "hit": false,
      "t": 40975.851825000085,
      "d": 237.93097500000295,
      "v": 44
    },
    {
      "midi": 59,
      "hit": false,
      "t": 40975.851825000085,
      "d": 396.55162500000733,
      "v": 19
    },
    {
      "midi": 50,
      "hit": false,
      "t": 40986.196650000085,
      "d": 312.0688875000051,
      "v": 29
    },
    {
      "midi": 57,
      "hit": false,
      "t": 40986.196650000085,
      "d": 386.2068000000072,
      "v": 21
    },
    {
      "midi": 77,
      "hit": false,
      "t": 41189.644875000085,
      "d": 205.1723625000086,
      "v": 62
    },
    {
      "midi": 76,
      "hit": false,
      "t": 41372.40345000009,
      "d": 27.586199999997916,
      "v": 59
    },
    {
      "midi": 84,
      "hit": false,
      "t": 41589.644775000095,
      "d": 246.55166249999456,
      "v": 70
    },
    {
      "midi": 74,
      "hit": false,
      "t": 41596.54132500009,
      "d": 282.75854999999865,
      "v": 39
    },
    {
      "midi": 59,
      "hit": false,
      "t": 41608.610287500094,
      "d": 339.6550874999957,
      "v": 22
    },
    {
      "midi": 57,
      "hit": false,
      "t": 41615.50683750009,
      "d": 327.58612500000163,
      "v": 20
    },
    {
      "midi": 50,
      "hit": false,
      "t": 41615.50683750009,
      "d": 332.75853749999806,
      "v": 20
    },
    {
      "midi": 82,
      "hit": false,
      "t": 41815.50678750009,
      "d": 175.86202500000218,
      "v": 63
    },
    {
      "midi": 80,
      "hit": false,
      "t": 42001.71363750009,
      "d": 198.27581250000367,
      "v": 55
    },
    {
      "midi": 48,
      "hit": false,
      "t": 42205.16186250009,
      "d": 179.31029999999737,
      "v": 26
    },
    {
      "midi": 57,
      "hit": false,
      "t": 42205.16186250009,
      "d": 213.79305000000022,
      "v": 18
    },
    {
      "midi": 81,
      "hit": false,
      "t": 42213.78255000009,
      "d": 220.68959999999788,
      "v": 62
    },
    {
      "midi": 76,
      "hit": false,
      "t": 42427.57560000009,
      "d": 174.13788749999367,
      "v": 50
    },
    {
      "midi": 74,
      "hit": false,
      "t": 42606.88590000008,
      "d": 203.44822499999282,
      "v": 50
    },
    {
      "midi": 50,
      "hit": false,
      "t": 42613.78245000008,
      "d": 43.10343749999447,
      "v": 39
    },
    {
      "midi": 59,
      "hit": false,
      "t": 42618.954862500075,
      "d": 37.931024999998044,
      "v": 24
    },
    {
      "midi": 60,
      "hit": false,
      "t": 42810.334125000074,
      "d": 17.241374999997788,
      "v": 34
    },
    {
      "midi": 52,
      "hit": false,
      "t": 42817.23067500007,
      "d": 10.344825000000128,
      "v": 31
    },
    {
      "midi": 72,
      "hit": false,
      "t": 42824.12722500007,
      "d": 3.448275000002468,
      "v": 52
    },
    {
      "midi": 72,
      "hit": false,
      "t": 42839.64446250007,
      "d": 189.6551249999975,
      "v": 47
    },
    {
      "midi": 60,
      "hit": false,
      "t": 42839.64446250007,
      "d": 317.2413000000015,
      "v": 23
    },
    {
      "midi": 52,
      "hit": false,
      "t": 42851.713425000074,
      "d": 282.75854999999865,
      "v": 26
    },
    {
      "midi": 57,
      "hit": false,
      "t": 42858.60997500007,
      "d": 306.8964750000014,
      "v": 21
    },
    {
      "midi": 71,
      "hit": false,
      "t": 43051.71337500007,
      "d": 129.31031249999796,
      "v": 56
    },
    {
      "midi": 69,
      "hit": false,
      "t": 43158.609900000076,
      "d": 94.82756249999511,
      "v": 47
    },
    {
      "midi": 59,
      "hit": false,
      "t": 43258.60987500007,
      "d": 29.31033749999915,
      "v": 33
    },
    {
      "midi": 52,
      "hit": false,
      "t": 43258.60987500007,
      "d": 44.827574999995704,
      "v": 50
    },
    {
      "midi": 71,
      "hit": false,
      "t": 43258.60987500007,
      "d": 93.10342499999388,
      "v": 50
    },
    {
      "midi": 68,
      "hit": false,
      "t": 43336.196062500065,
      "d": 37.931024999998044,
      "v": 55
    },
    {
      "midi": 57,
      "hit": false,
      "t": 43431.02362500006,
      "d": 441.3791999999885,
      "v": 50
    },
    {
      "midi": 68,
      "hit": false,
      "t": 43446.54086250006,
      "d": 208.62063749999652,
      "v": 63
    },
    {
      "midi": 45,
      "hit": false,
      "t": 43618.954612500056,
      "d": 224.13787500000035,
      "v": 1
    },
    {
      "midi": 69,
      "hit": false,
      "t": 43649.98908750006,
      "d": 198.2758124999964,
      "v": 50
    },
    {
      "midi": 64,
      "hit": false,
      "t": 43867.23041250005,
      "d": 174.13788750000094,
      "v": 47
    },
    {
      "midi": 67,
      "hit": false,
      "t": 44053.437262500054,
      "d": 249.99993749998976,
      "v": 56
    },
    {
      "midi": 59,
      "hit": false,
      "t": 44062.05795000005,
      "d": 467.2412624999779,
      "v": 33
    },
    {
      "midi": 57,
      "hit": false,
      "t": 44072.40277500005,
      "d": 446.5516124999849,
      "v": 29
    },
    {
      "midi": 50,
      "hit": false,
      "t": 44077.57518750005,
      "d": 422.41368749998946,
      "v": 32
    },
    {
      "midi": 65,
      "hit": false,
      "t": 44286.195825000046,
      "d": 174.13788750000094,
      "v": 36
    },
    {
      "midi": 64,
      "hit": false,
      "t": 44493.09232500004,
      "d": 31.034474999993108,
      "v": 47
    },
    {
      "midi": 74,
      "hit": false,
      "t": 44693.092275000025,
      "d": 255.17234999999346,
      "v": 70
    },
    {
      "midi": 65,
      "hit": false,
      "t": 44698.26468750002,
      "d": 218.96546249999665,
      "v": 47
    },
    {
      "midi": 59,
      "hit": false,
      "t": 44699.98882500002,
      "d": 422.41368749999674,
      "v": 35
    },
    {
      "midi": 50,
      "hit": false,
      "t": 44712.057787500016,
      "d": 339.655087500003,
      "v": 31
    },
    {
      "midi": 57,
      "hit": false,
      "t": 44712.057787500016,
      "d": 401.72403750000376,
      "v": 29
    },
    {
      "midi": 72,
      "hit": false,
      "t": 44905.161187500016,
      "d": 198.27581250000367,
      "v": 52
    },
    {
      "midi": 71,
      "hit": false,
      "t": 45096.54045000002,
      "d": 29.31033749999915,
      "v": 56
    },
    {
      "midi": 79,
      "hit": false,
      "t": 45306.88522500002,
      "d": 308.6206125000099,
      "v": 67
    },
    {
      "midi": 59,
      "hit": false,
      "t": 45306.88522500002,
      "d": 422.413687500004,
      "v": 25
    },
    {
      "midi": 69,
      "hit": false,
      "t": 45322.402462500024,
      "d": 343.10336250000546,
      "v": 41
    },
    {
      "midi": 50,
      "hit": false,
      "t": 45322.402462500024,
      "d": 365.51715000000695,
      "v": 32
    },
    {
      "midi": 57,
      "hit": false,
      "t": 45322.402462500024,
      "d": 406.8964500000002,
      "v": 26
    },
    {
      "midi": 77,
      "hit": false,
      "t": 45522.40241250003,
      "d": 199.99994999999763,
      "v": 59
    },
    {
      "midi": 76,
      "hit": false,
      "t": 45706.88512500003,
      "d": 15.517237499996554,
      "v": 50
    },
    {
      "midi": 84,
      "hit": false,
      "t": 45917.22990000002,
      "d": 236.2068375000017,
      "v": 70
    },
    {
      "midi": 74,
      "hit": false,
      "t": 45937.91955000002,
      "d": 243.10338749999937,
      "v": 34
    },
    {
      "midi": 50,
      "hit": false,
      "t": 45937.91955000002,
      "d": 348.2757750000019,
      "v": 39
    },
    {
      "midi": 59,
      "hit": false,
      "t": 45937.91955000002,
      "d": 362.0688750000045,
      "v": 24
    },
    {
      "midi": 57,
      "hit": false,
      "t": 45949.98851250002,
      "d": 339.655087500003,
      "v": 25
    },
    {
      "midi": 82,
      "hit": false,
      "t": 46129.29881250002,
      "d": 189.65512500000477,
      "v": 68
    },
    {
      "midi": 80,
      "hit": false,
      "t": 46329.298762500024,
      "d": 201.72408749999886,
      "v": 58
    },
    {
      "midi": 57,
      "hit": false,
      "t": 46539.64353750002,
      "d": 227.58614999999554,
      "v": 23
    },
    {
      "midi": 48,
      "hit": false,
      "t": 46546.54008750002,
      "d": 189.6551249999975,
      "v": 34
    },
    {
      "midi": 81,
      "hit": false,
      "t": 46546.54008750002,
      "d": 229.31028749999678,
      "v": 70
    },
    {
      "midi": 76,
      "hit": false,
      "t": 46755.160725000016,
      "d": 198.2758124999964,
      "v": 62
    },
    {
      "midi": 59,
      "hit": false,
      "t": 46943.09171250001,
      "d": 29.310337500006426,
      "v": 43
    },
    {
      "midi": 74,
      "hit": false,
      "t": 46943.09171250001,
      "d": 196.55167500000243,
      "v": 59
    },
    {
      "midi": 50,
      "hit": false,
      "t": 46953.43653750001,
      "d": 15.51723750000383,
      "v": 36
    },
    {
      "midi": 60,
      "hit": false,
      "t": 47139.643387500015,
      "d": 362.0688750000045,
      "v": 44
    },
    {
      "midi": 52,
      "hit": false,
      "t": 47153.43648750002,
      "d": 282.75854999999865,
      "v": 31
    },
    {
      "midi": 72,
      "hit": false,
      "t": 47158.608900000014,
      "d": 239.65511250000418,
      "v": 52
    },
    {
      "midi": 71,
      "hit": false,
      "t": 47374.126087500015,
      "d": 113.79307500000141,
      "v": 59
    },
    {
      "midi": 69,
      "hit": false,
      "t": 47481.02261250002,
      "d": 98.27583749999758,
      "v": 62
    },
    {
      "midi": 60,
      "hit": false,
      "t": 47568.95362500002,
      "d": 24.137924999995448,
      "v": 9
    },
    {
      "midi": 52,
      "hit": false,
      "t": 47579.29845000002,
      "d": 29.310337499991874,
      "v": 36
    },
    {
      "midi": 71,
      "hit": false,
      "t": 47586.195000000014,
      "d": 87.93101249999745,
      "v": 56
    },
    {
      "midi": 68,
      "hit": false,
      "t": 47682.74670000001,
      "d": 93.10342499999388,
      "v": 50
    },
    {
      "midi": 69,
      "hit": false,
      "t": 47801.7121875,
      "d": 222.41373749999912,
      "v": 44
    },
    {
      "midi": 45,
      "hit": false,
      "t": 47808.6087375,
      "d": 208.6206375000038,
      "v": 34
    },
    {
      "midi": 73,
      "hit": false,
      "t": 48010.332825000005,
      "d": 184.48271250000107,
      "v": 40
    },
    {
      "midi": 57,
      "hit": false,
      "t": 48034.47075,
      "d": 44.82757500000298,
      "v": 18
    },
    {
      "midi": 76,
      "hit": false,
      "t": 48213.781050000005,
      "d": 165.51719999999477,
      "v": 39
    },
    {
      "midi": 61,
      "hit": false,
      "t": 48224.125875000005,
      "d": 15.517237499996554,
      "v": 17
    },
    {
      "midi": 64,
      "hit": false,
      "t": 48425.849962500004,
      "d": 205.17236249999405,
      "v": 34
    },
    {
      "midi": 40,
      "hit": false,
      "t": 48432.7465125,
      "d": 237.93097499999567,
      "v": 31
    },
    {
      "midi": 74,
      "hit": false,
      "t": 48637.918874999996,
      "d": 117.2413499999966,
      "v": 50
    },
    {
      "midi": 73,
      "hit": false,
      "t": 48718.953337499996,
      "d": 122.4137625000003,
      "v": 58
    },
    {
      "midi": 71,
      "hit": false,
      "t": 48831.022274999996,
      "d": 96.55169999999634,
      "v": 56
    },
    {
      "midi": 74,
      "hit": false,
      "t": 48920.677424999994,
      "d": 129.3103124999907,
      "v": 59
    },
    {
      "midi": 73,
      "hit": false,
      "t": 49031.022224999986,
      "d": 118.96548749999783,
      "v": 55
    },
    {
      "midi": 45,
      "hit": false,
      "t": 49041.367049999986,
      "d": 198.2758124999964,
      "v": 41
    },
    {
      "midi": 69,
      "hit": false,
      "t": 49141.367024999985,
      "d": 89.65514999999868,
      "v": 47
    },
    {
      "midi": 74,
      "hit": false,
      "t": 49239.64286249998,
      "d": 105.17238750000251,
      "v": 59
    },
    {
      "midi": 57,
      "hit": false,
      "t": 49256.88423749998,
      "d": 112.06893750000745,
      "v": 44
    },
    {
      "midi": 71,
      "hit": false,
      "t": 49332.746287499984,
      "d": 120.68962500000634,
      "v": 67
    },
    {
      "midi": 76,
      "hit": false,
      "t": 49453.43591249999,
      "d": 275.862000000001,
      "v": 59
    },
    {
      "midi": 61,
      "hit": false,
      "t": 49462.05659999999,
      "d": 18.965512499999022,
      "v": 28
    },
    {
      "midi": 64,
      "hit": false,
      "t": 49684.47033749999,
      "d": 179.31030000000464,
      "v": 31
    },
    {
      "midi": 40,
      "hit": false,
      "t": 49698.26343749999,
      "d": 212.06891250000626,
      "v": 36
    },
    {
      "midi": 74,
      "hit": false,
      "t": 49875.849599999994,
      "d": 113.79307500000141,
      "v": 50
    },
    {
      "midi": 73,
      "hit": false,
      "t": 49968.953024999995,
      "d": 117.24135000000388,
      "v": 58
    },
    {
      "midi": 71,
      "hit": false,
      "t": 50075.84955,
      "d": 82.75860000000102,
      "v": 47
    },
    {
      "midi": 74,
      "hit": false,
      "t": 50162.056425,
      "d": 125.8620374999955,
      "v": 47
    },
    {
      "midi": 45,
      "hit": false,
      "t": 50263.7805375,
      "d": 208.62063749999652,
      "v": 34
    },
    {
      "midi": 73,
      "hit": false,
      "t": 50268.95295,
      "d": 113.79307500000141,
      "v": 58
    },
    {
      "midi": 69,
      "hit": false,
      "t": 50382.746025,
      "d": 89.65514999999868,
      "v": 29
    },
    {
      "midi": 74,
      "hit": false,
      "t": 50472.401175,
      "d": 105.17238750000251,
      "v": 56
    },
    {
      "midi": 57,
      "hit": false,
      "t": 50494.8149625,
      "d": 106.89652500000375,
      "v": 34
    },
    {
      "midi": 71,
      "hit": false,
      "t": 50567.2287375,
      "d": 122.4137625000003,
      "v": 52
    },
    {
      "midi": 61,
      "hit": false,
      "t": 50674.125262500005,
      "d": 15.517237499996554,
      "v": 48
    },
    {
      "midi": 76,
      "hit": false,
      "t": 50682.745950000004,
      "d": 237.9309749999884,
      "v": 59
    },
    {
      "midi": 64,
      "hit": false,
      "t": 50898.2631375,
      "d": 199.99994999999035,
      "v": 34
    },
    {
      "midi": 40,
      "hit": false,
      "t": 50915.504512499996,
      "d": 229.3102874999895,
      "v": 34
    },
    {
      "midi": 74,
      "hit": false,
      "t": 51091.36653749999,
      "d": 137.93099999998958,
      "v": 50
    },
    {
      "midi": 73,
      "hit": false,
      "t": 51193.090649999984,
      "d": 131.03444999999192,
      "v": 55
    },
    {
      "midi": 71,
      "hit": false,
      "t": 51306.88372499998,
      "d": 110.34479999999894,
      "v": 47
    },
    {
      "midi": 74,
      "hit": false,
      "t": 51410.33197499998,
      "d": 125.86203750000277,
      "v": 47
    },
    {
      "midi": 73,
      "hit": false,
      "t": 51512.05608749998,
      "d": 106.89652500000375,
      "v": 47
    },
    {
      "midi": 45,
      "hit": false,
      "t": 51512.05608749998,
      "d": 375.8619749999925,
      "v": 36
    },
    {
      "midi": 69,
      "hit": false,
      "t": 51627.57329999998,
      "d": 122.41376249999303,
      "v": 59
    },
    {
      "midi": 57,
      "hit": false,
      "t": 51717.22844999998,
      "d": 213.79304999998567,
      "v": 32
    },
    {
      "midi": 73,
      "hit": false,
      "t": 51724.12499999998,
      "d": 115.51721249999537,
      "v": 63
    },
    {
      "midi": 76,
      "hit": false,
      "t": 51813.78014999998,
      "d": 98.2758374999903,
      "v": 70
    },
    {
      "midi": 81,
      "hit": false,
      "t": 51918.952537499965,
      "d": 131.0344499999992,
      "v": 62
    },
    {
      "midi": 49,
      "hit": false,
      "t": 51931.021499999966,
      "d": 229.31028750000405,
      "v": 47
    },
    {
      "midi": 78,
      "hit": false,
      "t": 52022.400787499966,
      "d": 125.86203750000277,
      "v": 63
    },
    {
      "midi": 76,
      "hit": false,
      "t": 52120.676624999964,
      "d": 103.44825000000856,
      "v": 67
    },
    {
      "midi": 50,
      "hit": false,
      "t": 52134.469724999966,
      "d": 208.62063750001107,
      "v": 39
    },
    {
      "midi": 74,
      "hit": false,
      "t": 52227.573149999975,
      "d": 129.31031250000524,
      "v": 50
    },
    {
      "midi": 73,
      "hit": false,
      "t": 52329.297262499975,
      "d": 131.03445000000647,
      "v": 63
    },
    {
      "midi": 52,
      "hit": false,
      "t": 52346.53863749998,
      "d": 127.586175000004,
      "v": 32
    },
    {
      "midi": 71,
      "hit": false,
      "t": 52441.36619999998,
      "d": 81.03446249999979,
      "v": 52
    },
    {
      "midi": 69,
      "hit": false,
      "t": 52541.36617499998,
      "d": 87.93101249999745,
      "v": 44
    },
    {
      "midi": 40,
      "hit": false,
      "t": 52549.98686249998,
      "d": 20.689650000000256,
      "v": 36
    },
    {
      "midi": 68,
      "hit": false,
      "t": 52639.64201249998,
      "d": 84.48273750000226,
      "v": 40
    },
    {
      "midi": 69,
      "hit": false,
      "t": 52758.607499999984,
      "d": 263.7930375000069,
      "v": 13
    },
    {
      "midi": 45,
      "hit": false,
      "t": 52768.952324999984,
      "d": 224.13787500000035,
      "v": 15
    },
    {
      "midi": 73,
      "hit": false,
      "t": 52963.779862499985,
      "d": 186.20685000000958,
      "v": 24
    },
    {
      "midi": 57,
      "hit": false,
      "t": 52998.26261249999,
      "d": 67.24136250000447,
      "v": 7
    },
    {
      "midi": 76,
      "hit": false,
      "t": 53179.297049999994,
      "d": 170.68961249999847,
      "v": 21
    },
    {
      "midi": 61,
      "hit": false,
      "t": 53186.19359999999,
      "d": 10.344825000000128,
      "v": 15
    },
    {
      "midi": 64,
      "hit": false,
      "t": 53396.538375,
      "d": 212.0689124999917,
      "v": 20
    },
    {
      "midi": 40,
      "hit": false,
      "t": 53413.779749999994,
      "d": 206.89649999999529,
      "v": 19
    },
    {
      "midi": 74,
      "hit": false,
      "t": 53601.71073749999,
      "d": 99.99997499999881,
      "v": 24
    },
    {
      "midi": 73,
      "hit": false,
      "t": 53686.19347499999,
      "d": 110.34479999999894,
      "v": 30
    },
    {
      "midi": 71,
      "hit": false,
      "t": 53798.26241249999,
      "d": 89.65514999999868,
      "v": 26
    },
    {
      "midi": 74,
      "hit": false,
      "t": 53887.91756249999,
      "d": 124.13790000000154,
      "v": 30
    },
    {
      "midi": 73,
      "hit": false,
      "t": 53991.36581249999,
      "d": 115.51721250000264,
      "v": 33
    },
    {
      "midi": 45,
      "hit": false,
      "t": 53991.36581249999,
      "d": 199.9999500000049,
      "v": 21
    },
    {
      "midi": 69,
      "hit": false,
      "t": 54096.538199999995,
      "d": 106.89652499999647,
      "v": 24
    },
    {
      "midi": 74,
      "hit": false,
      "t": 54196.538174999994,
      "d": 96.55169999999634,
      "v": 33
    },
    {
      "midi": 57,
      "hit": false,
      "t": 54218.95196249999,
      "d": 96.55170000000362,
      "v": 15
    },
    {
      "midi": 71,
      "hit": false,
      "t": 54282.74504999999,
      "d": 110.34479999999894,
      "v": 33
    },
    {
      "midi": 76,
      "hit": false,
      "t": 54398.262262499986,
      "d": 229.31028749999678,
      "v": 35
    },
    {
      "midi": 61,
      "hit": false,
      "t": 54405.15881249998,
      "d": 15.517237499996554,
      "v": 26
    },
    {
      "midi": 64,
      "hit": false,
      "t": 54613.77944999998,
      "d": 206.89649999999529,
      "v": 19
    },
    {
      "midi": 40,
      "hit": false,
      "t": 54634.46909999998,
      "d": 249.99993749999703,
      "v": 19
    },
    {
      "midi": 74,
      "hit": false,
      "t": 54813.77939999998,
      "d": 124.13790000000154,
      "v": 31
    },
    {
      "midi": 73,
      "hit": false,
      "t": 54908.60696249998,
      "d": 117.2413499999966,
      "v": 34
    },
    {
      "midi": 71,
      "hit": false,
      "t": 55017.22762499998,
      "d": 105.17238749999524,
      "v": 30
    },
    {
      "midi": 74,
      "hit": false,
      "t": 55113.779324999974,
      "d": 131.03444999999192,
      "v": 30
    },
    {
      "midi": 73,
      "hit": false,
      "t": 55213.779299999966,
      "d": 124.13790000000154,
      "v": 26
    },
    {
      "midi": 45,
      "hit": false,
      "t": 55213.779299999966,
      "d": 224.13787500000035,
      "v": 23
    },
    {
      "midi": 69,
      "hit": false,
      "t": 55327.57237499997,
      "d": 87.93101249999745,
      "v": 28
    },
    {
      "midi": 74,
      "hit": false,
      "t": 55418.95166249997,
      "d": 110.34479999999166,
      "v": 35
    },
    {
      "midi": 57,
      "hit": false,
      "t": 55460.33096249996,
      "d": 168.96547499999724,
      "v": 20
    },
    {
      "midi": 71,
      "hit": false,
      "t": 55513.77922499996,
      "d": 115.51721249999537,
      "v": 37
    },
    {
      "midi": 76,
      "hit": false,
      "t": 55620.67574999996,
      "d": 231.034424999998,
      "v": 37
    },
    {
      "midi": 61,
      "hit": false,
      "t": 55637.917124999956,
      "d": 13.793100000002596,
      "v": 23
    },
    {
      "midi": 64,
      "hit": false,
      "t": 55844.81362499996,
      "d": 212.068912499999,
      "v": 19
    },
    {
      "midi": 40,
      "hit": false,
      "t": 55862.05499999996,
      "d": 234.48270000000048,
      "v": 21
    },
    {
      "midi": 74,
      "hit": false,
      "t": 56056.88253749996,
      "d": 134.48272500000166,
      "v": 26
    },
    {
      "midi": 73,
      "hit": false,
      "t": 56162.05492499996,
      "d": 118.96548749999783,
      "v": 33
    },
    {
      "midi": 71,
      "hit": false,
      "t": 56270.67558749996,
      "d": 112.06893750000017,
      "v": 28
    },
    {
      "midi": 74,
      "hit": false,
      "t": 56370.67556249996,
      "d": 131.0344499999992,
      "v": 28
    },
    {
      "midi": 45,
      "hit": false,
      "t": 56477.57208749996,
      "d": 403.44817499999044,
      "v": 19
    },
    {
      "midi": 73,
      "hit": false,
      "t": 56482.74449999996,
      "d": 103.44825000000128,
      "v": 33
    },
    {
      "midi": 69,
      "hit": false,
      "t": 56603.434124999956,
      "d": 125.8620374999955,
      "v": 33
    },
    {
      "midi": 57,
      "hit": false,
      "t": 56687.91686249995,
      "d": 205.17236249999405,
      "v": 21
    },
    {
      "midi": 73,
      "hit": false,
      "t": 56703.43409999995,
      "d": 115.51721250000264,
      "v": 37
    },
    {
      "midi": 76,
      "hit": false,
      "t": 56791.36511249995,
      "d": 86.20687499999622,
      "v": 40
    },
    {
      "midi": 81,
      "hit": false,
      "t": 56886.19267499995,
      "d": 134.48272500000166,
      "v": 35
    },
    {
      "midi": 49,
      "hit": false,
      "t": 56894.81336249995,
      "d": 231.03442500000529,
      "v": 28
    },
    {
      "midi": 78,
      "hit": false,
      "t": 56991.36506249995,
      "d": 122.4137625000003,
      "v": 37
    },
    {
      "midi": 76,
      "hit": false,
      "t": 57089.64089999995,
      "d": 99.99997500000609,
      "v": 37
    },
    {
      "midi": 50,
      "hit": false,
      "t": 57099.98572499995,
      "d": 208.6206375000038,
      "v": 23
    },
    {
      "midi": 74,
      "hit": false,
      "t": 57198.26156249995,
      "d": 131.03444999999192,
      "v": 30
    },
    {
      "midi": 73,
      "hit": false,
      "t": 57301.709812499954,
      "d": 108.62066249999043,
      "v": 33
    },
    {
      "midi": 52,
      "hit": false,
      "t": 57313.77877499995,
      "d": 125.8620374999955,
      "v": 19
    },
    {
      "midi": 71,
      "hit": false,
      "t": 57403.43392499995,
      "d": 77.58618749999732,
      "v": 33
    },
    {
      "midi": 69,
      "hit": false,
      "t": 57499.98562499994,
      "d": 94.82756250000239,
      "v": 28
    },
    {
      "midi": 40,
      "hit": false,
      "t": 57510.33044999994,
      "d": 193.10339999999997,
      "v": 21
    },
    {
      "midi": 68,
      "hit": false,
      "t": 57603.433874999944,
      "d": 106.89652499999647,
      "v": 28
    },
    {
      "midi": 69,
      "hit": false,
      "t": 57720.67522499994,
      "d": 22.413787499994214,
      "v": 37
    },
    {
      "midi": 45,
      "hit": false,
      "t": 57736.19246249994,
      "d": 6.89654999999766,
      "v": 21
    },
    {
      "midi": 69,
      "hit": false,
      "t": 57936.192412499935,
      "d": 46.55171249999694,
      "v": 44
    },
    {
      "midi": 72,
      "hit": false,
      "t": 57943.08896249993,
      "d": 439.65506249998725,
      "v": 52
    },
    {
      "midi": 84,
      "hit": false,
      "t": 57943.08896249993,
      "d": 453.44816249998985,
      "v": 62
    },
    {
      "midi": 67,
      "hit": false,
      "t": 58141.36477499993,
      "d": 206.89649999999529,
      "v": 50
    },
    {
      "midi": 65,
      "hit": false,
      "t": 58353.43368749992,
      "d": 181.03443750000588,
      "v": 59
    },
    {
      "midi": 84,
      "hit": false,
      "t": 58548.26122499993,
      "d": 417.2412750000003,
      "v": 70
    },
    {
      "midi": 72,
      "hit": false,
      "t": 58549.98536249993,
      "d": 398.2757625000013,
      "v": 52
    },
    {
      "midi": 69,
      "hit": false,
      "t": 58558.60604999993,
      "d": 406.8964500000002,
      "v": 52
    },
    {
      "midi": 64,
      "hit": false,
      "t": 58755.15772499993,
      "d": 210.34477499999775,
      "v": 47
    },
    {
      "midi": 62,
      "hit": false,
      "t": 58977.57146249993,
      "d": 432.75851249999687,
      "v": 56
    },
    {
      "midi": 86,
      "hit": false,
      "t": 59177.571412499936,
      "d": 22.413787499994214,
      "v": 59
    },
    {
      "midi": 74,
      "hit": false,
      "t": 59184.46796249993,
      "d": 22.413787499994214,
      "v": 47
    },
    {
      "midi": 83,
      "hit": false,
      "t": 59382.74377499993,
      "d": 36.20688749999681,
      "v": 62
    },
    {
      "midi": 71,
      "hit": false,
      "t": 59391.36446249993,
      "d": 24.137924999995448,
      "v": 29
    },
    {
      "midi": 65,
      "hit": false,
      "t": 59403.43342499993,
      "d": 153.4482374999934,
      "v": 50
    },
    {
      "midi": 81,
      "hit": false,
      "t": 59584.46786249992,
      "d": 55.17239999999583,
      "v": 62
    },
    {
      "midi": 69,
      "hit": false,
      "t": 59596.53682499992,
      "d": 32.75861250000162,
      "v": 56
    },
    {
      "midi": 64,
      "hit": false,
      "t": 59596.53682499992,
      "d": 441.3791999999885,
      "v": 55
    },
    {
      "midi": 81,
      "hit": false,
      "t": 59796.53677499991,
      "d": 49.999987499999406,
      "v": 59
    },
    {
      "midi": 69,
      "hit": false,
      "t": 59803.43332499991,
      "d": 32.75861250000162,
      "v": 44
    },
    {
      "midi": 80,
      "hit": false,
      "t": 60010.32982499991,
      "d": 37.93102499999077,
      "v": 58
    },
    {
      "midi": 68,
      "hit": false,
      "t": 60017.22637499991,
      "d": 25.862062499996682,
      "v": 44
    },
    {
      "midi": 52,
      "hit": false,
      "t": 60018.95051249991,
      "d": 29.310337499991874,
      "v": 47
    },
    {
      "midi": 69,
      "hit": false,
      "t": 60208.6056374999,
      "d": 24.137924999995448,
      "v": 39
    },
    {
      "midi": 81,
      "hit": false,
      "t": 60215.5021874999,
      "d": 34.482749999995576,
      "v": 39
    },
    {
      "midi": 57,
      "hit": false,
      "t": 60227.5711499999,
      "d": 194.82753749999392,
      "v": 37
    },
    {
      "midi": 85,
      "hit": false,
      "t": 60431.019374999894,
      "d": 444.82747499999095,
      "v": 42
    },
    {
      "midi": 73,
      "hit": false,
      "t": 60436.19178749989,
      "d": 431.03437499999563,
      "v": 34
    },
    {
      "midi": 69,
      "hit": false,
      "t": 60444.81247499989,
      "d": 193.10339999999997,
      "v": 31
    },
    {
      "midi": 68,
      "hit": false,
      "t": 60631.01932499989,
      "d": 210.34477499999775,
      "v": 29
    },
    {
      "midi": 66,
      "hit": false,
      "t": 60849.98478749989,
      "d": 184.4827124999938,
      "v": 37
    },
    {
      "midi": 85,
      "hit": false,
      "t": 61025.84681249988,
      "d": 386.20679999999993,
      "v": 45
    },
    {
      "midi": 73,
      "hit": false,
      "t": 61034.46749999988,
      "d": 363.79301249999844,
      "v": 34
    },
    {
      "midi": 69,
      "hit": false,
      "t": 61043.08818749988,
      "d": 384.4826624999987,
      "v": 31
    },
    {
      "midi": 64,
      "hit": false,
      "t": 61217.22607499988,
      "d": 213.79305000000022,
      "v": 28
    },
    {
      "midi": 62,
      "hit": false,
      "t": 61431.01912499988,
      "d": 434.4826500000054,
      "v": 37
    },
    {
      "midi": 86,
      "hit": false,
      "t": 61624.12252499988,
      "d": 29.31033749999915,
      "v": 39
    },
    {
      "midi": 74,
      "hit": false,
      "t": 61634.46734999988,
      "d": 22.41378750000149,
      "v": 26
    },
    {
      "midi": 83,
      "hit": false,
      "t": 61825.84661249988,
      "d": 39.655162500006554,
      "v": 39
    },
    {
      "midi": 71,
      "hit": false,
      "t": 61837.91557499988,
      "d": 24.137925000002724,
      "v": 17
    },
    {
      "midi": 66,
      "hit": false,
      "t": 61837.91557499988,
      "d": 143.10341250000783,
      "v": 27
    },
    {
      "midi": 81,
      "hit": false,
      "t": 62029.29483749989,
      "d": 74.13791249999485,
      "v": 41
    },
    {
      "midi": 69,
      "hit": false,
      "t": 62036.191387499886,
      "d": 46.55171249999694,
      "v": 39
    },
    {
      "midi": 64,
      "hit": false,
      "t": 62036.191387499886,
      "d": 422.41368749999674,
      "v": 39
    },
    {
      "midi": 69,
      "hit": false,
      "t": 62246.536162499884,
      "d": 37.931024999998044,
      "v": 29
    },
    {
      "midi": 81,
      "hit": false,
      "t": 62246.536162499884,
      "d": 46.55171249999694,
      "v": 37
    },
    {
      "midi": 68,
      "hit": false,
      "t": 62463.77748749988,
      "d": 36.20688749999681,
      "v": 27
    },
    {
      "midi": 80,
      "hit": false,
      "t": 62463.77748749988,
      "d": 36.20688749999681,
      "v": 31
    },
    {
      "midi": 52,
      "hit": false,
      "t": 62475.84644999988,
      "d": 15.517237499996554,
      "v": 31
    },
    {
      "midi": 81,
      "hit": false,
      "t": 62689.63949999988,
      "d": 39.655162499992,
      "v": 59
    },
    {
      "midi": 69,
      "hit": false,
      "t": 62696.53604999988,
      "d": 27.586199999997916,
      "v": 34
    },
    {
      "midi": 45,
      "hit": false,
      "t": 62712.053287499875,
      "d": 406.8964499999929,
      "v": 41
    },
    {
      "midi": 64,
      "hit": false,
      "t": 62905.156687499875,
      "d": 39.655162499992,
      "v": 44
    },
    {
      "midi": 76,
      "hit": false,
      "t": 62912.05323749987,
      "d": 24.137924999995448,
      "v": 50
    },
    {
      "midi": 57,
      "hit": false,
      "t": 62918.94978749987,
      "d": 199.99994999999763,
      "v": 21
    },
    {
      "midi": 61,
      "hit": false,
      "t": 63108.60491249987,
      "d": 17.241374999997788,
      "v": 44
    },
    {
      "midi": 73,
      "hit": false,
      "t": 63108.60491249987,
      "d": 27.586199999997916,
      "v": 58
    },
    {
      "midi": 49,
      "hit": false,
      "t": 63118.94973749987,
      "d": 13.79309999999532,
      "v": 35
    },
    {
      "midi": 78,
      "hit": false,
      "t": 63301.70831249986,
      "d": 44.827574999995704,
      "v": 63
    },
    {
      "midi": 66,
      "hit": false,
      "t": 63310.32899999986,
      "d": 31.034475000000384,
      "v": 50
    },
    {
      "midi": 50,
      "hit": false,
      "t": 63310.32899999986,
      "d": 60.344812499999534,
      "v": 50
    },
    {
      "midi": 57,
      "hit": false,
      "t": 63318.94968749986,
      "d": 439.65506249999453,
      "v": 44
    },
    {
      "midi": 62,
      "hit": false,
      "t": 63506.88067499986,
      "d": 22.413787499994214,
      "v": 56
    },
    {
      "midi": 74,
      "hit": false,
      "t": 63506.88067499986,
      "d": 41.379299999993236,
      "v": 67
    },
    {
      "midi": 47,
      "hit": false,
      "t": 63524.12204999986,
      "d": 187.93098749999626,
      "v": 56
    },
    {
      "midi": 68,
      "hit": false,
      "t": 63698.25993749985,
      "d": 27.586200000005192,
      "v": 68
    },
    {
      "midi": 80,
      "hit": false,
      "t": 63698.25993749985,
      "d": 34.48275000000285,
      "v": 74
    },
    {
      "midi": 52,
      "hit": false,
      "t": 63715.50131249986,
      "d": 122.41376249999303,
      "v": 59
    },
    {
      "midi": 81,
      "hit": false,
      "t": 63905.15643749985,
      "d": 44.827574999995704,
      "v": 70
    },
    {
      "midi": 69,
      "hit": false,
      "t": 63912.05298749985,
      "d": 37.931024999998044,
      "v": 56
    },
    {
      "midi": 49,
      "hit": false,
      "t": 63912.05298749985,
      "d": 239.6551124999969,
      "v": 50
    },
    {
      "midi": 57,
      "hit": false,
      "t": 63912.05298749985,
      "d": 401.7240374999965,
      "v": 41
    },
    {
      "midi": 76,
      "hit": false,
      "t": 64134.466724999846,
      "d": 39.65516249999928,
      "v": 59
    },
    {
      "midi": 64,
      "hit": false,
      "t": 64141.36327499984,
      "d": 32.75861250000162,
      "v": 49
    },
    {
      "midi": 45,
      "hit": false,
      "t": 64153.432237499845,
      "d": 191.37926249999873,
      "v": 44
    },
    {
      "midi": 61,
      "hit": false,
      "t": 64325.845987499844,
      "d": 20.689650000000256,
      "v": 54
    },
    {
      "midi": 73,
      "hit": false,
      "t": 64325.845987499844,
      "d": 31.034475000000384,
      "v": 68
    },
    {
      "midi": 78,
      "hit": false,
      "t": 64537.91489999984,
      "d": 32.75861249999434,
      "v": 58
    },
    {
      "midi": 66,
      "hit": false,
      "t": 64544.81144999984,
      "d": 20.689650000000256,
      "v": 35
    },
    {
      "midi": 50,
      "hit": false,
      "t": 64544.81144999984,
      "d": 191.37926249999146,
      "v": 44
    },
    {
      "midi": 57,
      "hit": false,
      "t": 64544.81144999984,
      "d": 229.3102874999895,
      "v": 39
    },
    {
      "midi": 62,
      "hit": false,
      "t": 64722.39761249984,
      "d": 22.413787499994214,
      "v": 59
    },
    {
      "midi": 74,
      "hit": false,
      "t": 64729.294162499835,
      "d": 32.75861249999434,
      "v": 67
    },
    {
      "midi": 47,
      "hit": false,
      "t": 64744.81139999983,
      "d": 218.96546249999665,
      "v": 50
    },
    {
      "midi": 68,
      "hit": false,
      "t": 64925.84583749983,
      "d": 25.862062499996682,
      "v": 63
    },
    {
      "midi": 80,
      "hit": false,
      "t": 64925.84583749983,
      "d": 37.931024999998044,
      "v": 74
    },
    {
      "midi": 52,
      "hit": false,
      "t": 64934.46652499983,
      "d": 120.68962499999907,
      "v": 52
    },
    {
      "midi": 81,
      "hit": false,
      "t": 65132.742337499825,
      "d": 49.99998749999213,
      "v": 70
    },
    {
      "midi": 49,
      "hit": false,
      "t": 65132.742337499825,
      "d": 236.20683749999444,
      "v": 50
    },
    {
      "midi": 69,
      "hit": false,
      "t": 65141.363024999824,
      "d": 37.93102499999077,
      "v": 59
    },
    {
      "midi": 57,
      "hit": false,
      "t": 65148.25957499982,
      "d": 75.86204999999609,
      "v": 34
    },
    {
      "midi": 64,
      "hit": false,
      "t": 65349.98366249982,
      "d": 34.482749999995576,
      "v": 55
    },
    {
      "midi": 76,
      "hit": false,
      "t": 65349.98366249982,
      "d": 34.482749999995576,
      "v": 67
    },
    {
      "midi": 45,
      "hit": false,
      "t": 65360.32848749982,
      "d": 196.55167499999516,
      "v": 39
    },
    {
      "midi": 61,
      "hit": false,
      "t": 65541.36292499982,
      "d": 20.689650000000256,
      "v": 54
    },
    {
      "midi": 73,
      "hit": false,
      "t": 65546.53533749982,
      "d": 29.310337499991874,
      "v": 63
    },
    {
      "midi": 57,
      "hit": false,
      "t": 65748.25942499981,
      "d": 422.41368750002584,
      "v": 41
    },
    {
      "midi": 50,
      "hit": false,
      "t": 65753.43183749981,
      "d": 220.68960000001243,
      "v": 44
    },
    {
      "midi": 66,
      "hit": false,
      "t": 65755.15597499981,
      "d": 24.137925000002724,
      "v": 44
    },
    {
      "midi": 78,
      "hit": false,
      "t": 65755.15597499981,
      "d": 34.48275000001013,
      "v": 50
    },
    {
      "midi": 62,
      "hit": false,
      "t": 65956.88006249983,
      "d": 24.137925000002724,
      "v": 52
    },
    {
      "midi": 74,
      "hit": false,
      "t": 65956.88006249983,
      "d": 43.103437500001746,
      "v": 62
    },
    {
      "midi": 47,
      "hit": false,
      "t": 65986.19039999983,
      "d": 203.4482250000001,
      "v": 52
    },
    {
      "midi": 80,
      "hit": false,
      "t": 66170.67311249983,
      "d": 43.103437499987194,
      "v": 68
    },
    {
      "midi": 68,
      "hit": false,
      "t": 66177.56966249984,
      "d": 12.068962499994086,
      "v": 47
    },
    {
      "midi": 52,
      "hit": false,
      "t": 66177.56966249984,
      "d": 24.137924999988172,
      "v": 50
    },
    {
      "midi": 81,
      "hit": false,
      "t": 66387.91443749981,
      "d": 208.6206375000038,
      "v": 70
    },
    {
      "midi": 69,
      "hit": false,
      "t": 66394.81098749982,
      "d": 224.1378750000149,
      "v": 52
    },
    {
      "midi": 49,
      "hit": false,
      "t": 66399.98339999982,
      "d": 239.65511250001146,
      "v": 63
    },
    {
      "midi": 57,
      "hit": false,
      "t": 66399.98339999982,
      "d": 515.5171125000052,
      "v": 52
    },
    {
      "midi": 73,
      "hit": false,
      "t": 66603.43162499982,
      "d": 20.689650000014808,
      "v": 47
    },
    {
      "midi": 76,
      "hit": false,
      "t": 66612.05231249983,
      "d": 17.24137500001234,
      "v": 21
    },
    {
      "midi": 50,
      "hit": false,
      "t": 66629.29368749984,
      "d": 410.3447249999881,
      "v": 62
    },
    {
      "midi": 74,
      "hit": false,
      "t": 66813.77639999983,
      "d": 163.79306250000081,
      "v": 67
    },
    {
      "midi": 66,
      "hit": false,
      "t": 66820.67294999983,
      "d": 31.034474999993108,
      "v": 55
    },
    {
      "midi": 73,
      "hit": false,
      "t": 67022.39703749982,
      "d": 87.93101250001928,
      "v": 68
    },
    {
      "midi": 64,
      "hit": false,
      "t": 67027.56944999982,
      "d": 55.172400000010384,
      "v": 60
    },
    {
      "midi": 52,
      "hit": false,
      "t": 67034.46599999983,
      "d": 493.10332500001823,
      "v": 67
    },
    {
      "midi": 73,
      "hit": false,
      "t": 67227.56939999983,
      "d": 79.31032500001311,
      "v": 58
    },
    {
      "midi": 69,
      "hit": false,
      "t": 67232.74181249984,
      "d": 74.1379125000094,
      "v": 47
    },
    {
      "midi": 64,
      "hit": false,
      "t": 67239.63836249984,
      "d": 99.99997499999881,
      "v": 34
    },
    {
      "midi": 71,
      "hit": false,
      "t": 67458.60382499984,
      "d": 139.65513750001264,
      "v": 67
    },
    {
      "midi": 62,
      "hit": false,
      "t": 67468.94864999985,
      "d": 37.931024999998044,
      "v": 50
    },
    {
      "midi": 40,
      "hit": false,
      "t": 67468.94864999985,
      "d": 201.7240875000134,
      "v": 56
    },
    {
      "midi": 61,
      "hit": false,
      "t": 67662.05204999985,
      "d": 74.1379125000094,
      "v": 54
    },
    {
      "midi": 69,
      "hit": false,
      "t": 67662.05204999985,
      "d": 124.13790000000154,
      "v": 62
    },
    {
      "midi": 45,
      "hit": false,
      "t": 67670.67273749986,
      "d": 396.55162500000733,
      "v": 67
    },
    {
      "midi": 61,
      "hit": false,
      "t": 67882.74164999985,
      "d": 29.310337500006426,
      "v": 39
    },
    {
      "midi": 69,
      "hit": false,
      "t": 67889.63819999986,
      "d": 93.10342500000843,
      "v": 39
    },
    {
      "midi": 71,
      "hit": false,
      "t": 68072.39677499987,
      "d": 106.8965249999892,
      "v": 52
    },
    {
      "midi": 64,
      "hit": false,
      "t": 68082.74159999986,
      "d": 182.75857499999984,
      "v": 47
    },
    {
      "midi": 61,
      "hit": false,
      "t": 68268.94844999987,
      "d": 51.724125000007916,
      "v": 48
    },
    {
      "midi": 69,
      "hit": false,
      "t": 68268.94844999987,
      "d": 89.65515000002051,
      "v": 56
    },
    {
      "midi": 45,
      "hit": false,
      "t": 68284.46568749986,
      "d": 391.37921250003274,
      "v": 50
    },
    {
      "midi": 61,
      "hit": false,
      "t": 68487.91391249989,
      "d": 31.03447500000766,
      "v": 44
    },
    {
      "midi": 69,
      "hit": false,
      "t": 68494.8104624999,
      "d": 96.55169999999634,
      "v": 47
    },
    {
      "midi": 71,
      "hit": false,
      "t": 68675.8448999999,
      "d": 117.2413499999966,
      "v": 52
    },
    {
      "midi": 64,
      "hit": false,
      "t": 68687.91386249989,
      "d": 179.31030000001192,
      "v": 44
    },
    {
      "midi": 45,
      "hit": false,
      "t": 68884.4655374999,
      "d": 537.9309000000212,
      "v": 39
    },
    {
      "midi": 61,
      "hit": false,
      "t": 68889.6379499999,
      "d": 24.137925000002724,
      "v": 42
    },
    {
      "midi": 69,
      "hit": false,
      "t": 68889.6379499999,
      "d": 79.31032500001311,
      "v": 56
    },
    {
      "midi": 71,
      "hit": false,
      "t": 68996.53447499992,
      "d": 103.44825000000128,
      "v": 47
    },
    {
      "midi": 64,
      "hit": false,
      "t": 69010.32757499992,
      "d": 108.62066250000498,
      "v": 34
    },
    {
      "midi": 69,
      "hit": false,
      "t": 69112.05168749992,
      "d": 89.65515000000596,
      "v": 56
    },
    {
      "midi": 61,
      "hit": false,
      "t": 69118.94823749992,
      "d": 27.586200000005192,
      "v": 44
    },
    {
      "midi": 71,
      "hit": false,
      "t": 69225.84476249992,
      "d": 103.44824999998673,
      "v": 50
    },
    {
      "midi": 64,
      "hit": false,
      "t": 69236.18958749992,
      "d": 101.72411250000005,
      "v": 49
    },
    {
      "midi": 69,
      "hit": false,
      "t": 69337.91369999992,
      "d": 87.93101250000473,
      "v": 56
    },
    {
      "midi": 61,
      "hit": false,
      "t": 69344.81024999992,
      "d": 34.482749999995576,
      "v": 42
    },
    {
      "midi": 71,
      "hit": false,
      "t": 69425.84471249992,
      "d": 98.27583750001213,
      "v": 52
    },
    {
      "midi": 64,
      "hit": false,
      "t": 69451.70677499993,
      "d": 87.93101250000473,
      "v": 42
    },
    {
      "midi": 69,
      "hit": false,
      "t": 69539.63778749993,
      "d": 15.517237499996554,
      "v": 52
    },
    {
      "midi": 61,
      "hit": false,
      "t": 69544.81019999993,
      "d": 196.5516749999806,
      "v": 44
    },
    {
      "midi": 45,
      "hit": false,
      "t": 69560.32743749993,
      "d": 189.65512499999022,
      "v": 34
    },
    {
      "midi": 71,
      "hit": false,
      "t": 69568.94812499994,
      "d": 37.931024999998044,
      "v": 39
    },
    {
      "midi": 69,
      "hit": false,
      "t": 69620.67224999993,
      "d": 37.931024999998044,
      "v": 31
    },
    {
      "midi": 71,
      "hit": false,
      "t": 69672.39637499992,
      "d": 37.931024999998044,
      "v": 39
    },
    {
      "midi": 69,
      "hit": false,
      "t": 69724.12049999992,
      "d": 34.48275000001013,
      "v": 31
    },
    {
      "midi": 71,
      "hit": false,
      "t": 69775.84462499993,
      "d": 37.931024999998044,
      "v": 31
    },
    {
      "midi": 69,
      "hit": false,
      "t": 69827.56874999992,
      "d": 37.931024999998044,
      "v": 26
    },
    {
      "midi": 71,
      "hit": false,
      "t": 69879.29287499991,
      "d": 37.931024999998044,
      "v": 32
    },
    {
      "midi": 69,
      "hit": false,
      "t": 69931.0169999999,
      "d": 37.931024999998044,
      "v": 16
    },
    {
      "midi": 71,
      "hit": false,
      "t": 69982.7411249999,
      "d": 37.931024999998044,
      "v": 31
    },
    {
      "midi": 69,
      "hit": false,
      "t": 70034.46524999989,
      "d": 37.931024999998044,
      "v": 25
    },
    {
      "midi": 71,
      "hit": false,
      "t": 70086.18937499989,
      "d": 62.06895000000077,
      "v": 10
    },
    {
      "midi": 78,
      "hit": false,
      "t": 70758.60299999989,
      "d": 155.17237499999464,
      "v": 47
    },
    {
      "midi": 81,
      "hit": false,
      "t": 70758.60299999989,
      "d": 155.17237499999464,
      "v": 47
    },
    {
      "midi": 74,
      "hit": false,
      "t": 70965.49949999987,
      "d": 155.17237499999464,
      "v": 47
    },
    {
      "midi": 78,
      "hit": false,
      "t": 70965.49949999987,
      "d": 155.17237499999464,
      "v": 50
    },
    {
      "midi": 69,
      "hit": false,
      "t": 71172.39599999986,
      "d": 155.17237499999464,
      "v": 56
    },
    {
      "midi": 76,
      "hit": false,
      "t": 71172.39599999986,
      "d": 155.17237499999464,
      "v": 50
    },
    {
      "midi": 66,
      "hit": false,
      "t": 71379.29249999985,
      "d": 155.17237499999464,
      "v": 44
    },
    {
      "midi": 74,
      "hit": false,
      "t": 71379.29249999985,
      "d": 155.17237499999464,
      "v": 44
    },
    {
      "midi": 66,
      "hit": false,
      "t": 71586.18899999984,
      "d": 155.17237499999464,
      "v": 47
    },
    {
      "midi": 74,
      "hit": false,
      "t": 71586.18899999984,
      "d": 155.17237499999464,
      "v": 47
    },
    {
      "midi": 69,
      "hit": false,
      "t": 71793.08549999983,
      "d": 155.17237499999464,
      "v": 44
    },
    {
      "midi": 76,
      "hit": false,
      "t": 71793.08549999983,
      "d": 155.17237499999464,
      "v": 39
    },
    {
      "midi": 66,
      "hit": false,
      "t": 71999.98199999981,
      "d": 155.17237499999464,
      "v": 44
    },
    {
      "midi": 74,
      "hit": false,
      "t": 71999.98199999981,
      "d": 155.17237499999464,
      "v": 50
    },
    {
      "midi": 66,
      "hit": false,
      "t": 72206.8784999998,
      "d": 155.17237499999464,
      "v": 38
    },
    {
      "midi": 74,
      "hit": false,
      "t": 72206.8784999998,
      "d": 155.17237499999464,
      "v": 50
    },
    {
      "midi": 69,
      "hit": false,
      "t": 72413.77499999979,
      "d": 155.17237499999464,
      "v": 34
    },
    {
      "midi": 76,
      "hit": false,
      "t": 72413.77499999979,
      "d": 155.17237499999464,
      "v": 47
    },
    {
      "midi": 66,
      "hit": false,
      "t": 72620.67149999978,
      "d": 155.17237499999464,
      "v": 38
    },
    {
      "midi": 74,
      "hit": false,
      "t": 72620.67149999978,
      "d": 155.17237499999464,
      "v": 62
    },
    {
      "midi": 66,
      "hit": false,
      "t": 72827.56799999977,
      "d": 155.17237499999464,
      "v": 40
    },
    {
      "midi": 74,
      "hit": false,
      "t": 72827.56799999977,
      "d": 155.17237499999464,
      "v": 59
    },
    {
      "midi": 69,
      "hit": false,
      "t": 73034.46449999975,
      "d": 155.17237499999464,
      "v": 44
    },
    {
      "midi": 76,
      "hit": false,
      "t": 73034.46449999975,
      "d": 155.17237499999464,
      "v": 62
    },
    {
      "midi": 74,
      "hit": false,
      "t": 73241.36099999974,
      "d": 155.17237499999464,
      "v": 50
    },
    {
      "midi": 78,
      "hit": false,
      "t": 73241.36099999974,
      "d": 155.17237499999464,
      "v": 58
    },
    {
      "midi": 76,
      "hit": false,
      "t": 73448.25749999973,
      "d": 155.17237499999464,
      "v": 52
    },
    {
      "midi": 79,
      "hit": false,
      "t": 73448.25749999973,
      "d": 155.17237499999464,
      "v": 59
    },
    {
      "midi": 78,
      "hit": false,
      "t": 73655.15399999972,
      "d": 155.17237499999464,
      "v": 24
    },
    {
      "midi": 81,
      "hit": false,
      "t": 73655.15399999972,
      "d": 155.17237499999464,
      "v": 50
    },
    {
      "midi": 76,
      "hit": false,
      "t": 73862.0504999997,
      "d": 37.931024999998044,
      "v": 29
    },
    {
      "midi": 69,
      "hit": false,
      "t": 73862.0504999997,
      "d": 620.6894999999204,
      "v": 59
    },
    {
      "midi": 78,
      "hit": false,
      "t": 73913.7746249997,
      "d": 37.931024999998044,
      "v": 17
    },
    {
      "midi": 76,
      "hit": false,
      "t": 73965.4987499997,
      "d": 37.931024999998044,
      "v": 29
    },
    {
      "midi": 78,
      "hit": false,
      "t": 74017.22287499969,
      "d": 37.931024999998044,
      "v": 22
    },
    {
      "midi": 76,
      "hit": false,
      "t": 74068.94699999968,
      "d": 37.931024999998044,
      "v": 15
    },
    {
      "midi": 78,
      "hit": false,
      "t": 74120.67112499967,
      "d": 37.931024999998044,
      "v": 27
    },
    {
      "midi": 76,
      "hit": false,
      "t": 74172.39524999967,
      "d": 37.931024999998044,
      "v": 13
    },
    {
      "midi": 78,
      "hit": false,
      "t": 74224.11937499966,
      "d": 37.931024999998044,
      "v": 27
    },
    {
      "midi": 76,
      "hit": false,
      "t": 74275.84349999965,
      "d": 37.931024999998044,
      "v": 26
    },
    {
      "midi": 78,
      "hit": false,
      "t": 74327.56762499965,
      "d": 37.931024999998044,
      "v": 24
    },
    {
      "midi": 76,
      "hit": false,
      "t": 74379.29174999964,
      "d": 37.931024999998044,
      "v": 14
    },
    {
      "midi": 78,
      "hit": false,
      "t": 74431.01587499963,
      "d": 37.931024999998044,
      "v": 17
    },
    {
      "midi": 74,
      "hit": false,
      "t": 74482.73999999963,
      "d": 155.17237499999464,
      "v": 50
    },
    {
      "midi": 78,
      "hit": false,
      "t": 74482.73999999963,
      "d": 155.17237499999464,
      "v": 58
    },
    {
      "midi": 76,
      "hit": false,
      "t": 74689.63649999961,
      "d": 155.17237499999464,
      "v": 52
    },
    {
      "midi": 79,
      "hit": false,
      "t": 74689.63649999961,
      "d": 155.17237499999464,
      "v": 59
    },
    {
      "midi": 78,
      "hit": false,
      "t": 74896.5329999996,
      "d": 155.17237499999464,
      "v": 24
    },
    {
      "midi": 81,
      "hit": false,
      "t": 74896.5329999996,
      "d": 155.17237499999464,
      "v": 50
    },
    {
      "midi": 76,
      "hit": false,
      "t": 75103.42949999959,
      "d": 37.931024999998044,
      "v": 29
    },
    {
      "midi": 69,
      "hit": false,
      "t": 75103.42949999959,
      "d": 620.6894999999204,
      "v": 59
    },
    {
      "midi": 78,
      "hit": false,
      "t": 75155.15362499958,
      "d": 37.931024999998044,
      "v": 17
    },
    {
      "midi": 76,
      "hit": false,
      "t": 75206.87774999958,
      "d": 37.931024999998044,
      "v": 29
    },
    {
      "midi": 78,
      "hit": false,
      "t": 75258.60187499957,
      "d": 37.931024999998044,
      "v": 22
    },
    {
      "midi": 76,
      "hit": false,
      "t": 75310.32599999956,
      "d": 37.931024999998044,
      "v": 15
    },
    {
      "midi": 78,
      "hit": false,
      "t": 75362.05012499956,
      "d": 37.931024999998044,
      "v": 27
    },
    {
      "midi": 76,
      "hit": false,
      "t": 75413.77424999955,
      "d": 37.931024999998044,
      "v": 13
    },
    {
      "midi": 78,
      "hit": false,
      "t": 75465.49837499954,
      "d": 37.931024999998044,
      "v": 27
    },
    {
      "midi": 76,
      "hit": false,
      "t": 75517.22249999954,
      "d": 37.931024999998044,
      "v": 26
    },
    {
      "midi": 78,
      "hit": false,
      "t": 75568.94662499953,
      "d": 37.931024999998044,
      "v": 24
    },
    {
      "midi": 76,
      "hit": false,
      "t": 75620.67074999952,
      "d": 37.931024999998044,
      "v": 14
    },
    {
      "midi": 78,
      "hit": false,
      "t": 75672.39487499952,
      "d": 37.931024999998044,
      "v": 17
    },
    {
      "midi": 74,
      "hit": false,
      "t": 75724.11899999951,
      "d": 155.17237499999464,
      "v": 50
    },
    {
      "midi": 78,
      "hit": false,
      "t": 75724.11899999951,
      "d": 155.17237499999464,
      "v": 58
    },
    {
      "midi": 76,
      "hit": false,
      "t": 75931.0154999995,
      "d": 155.17237499999464,
      "v": 52
    },
    {
      "midi": 79,
      "hit": false,
      "t": 75931.0154999995,
      "d": 155.17237499999464,
      "v": 59
    },
    {
      "midi": 78,
      "hit": false,
      "t": 76137.91199999949,
      "d": 155.17237499999464,
      "v": 24
    },
    {
      "midi": 81,
      "hit": false,
      "t": 76137.91199999949,
      "d": 155.17237499999464,
      "v": 50
    },
    {
      "midi": 76,
      "hit": false,
      "t": 76344.80849999948,
      "d": 37.931024999998044,
      "v": 29
    },
    {
      "midi": 69,
      "hit": false,
      "t": 76344.80849999948,
      "d": 620.6894999999204,
      "v": 59
    },
    {
      "midi": 78,
      "hit": false,
      "t": 76396.53262499947,
      "d": 37.931024999998044,
      "v": 17
    },
    {
      "midi": 76,
      "hit": false,
      "t": 76448.25674999946,
      "d": 37.931024999998044,
      "v": 29
    },
    {
      "midi": 78,
      "hit": false,
      "t": 76499.98087499946,
      "d": 37.931024999998044,
      "v": 22
    },
    {
      "midi": 76,
      "hit": false,
      "t": 76551.70499999945,
      "d": 37.931024999998044,
      "v": 15
    },
    {
      "midi": 78,
      "hit": false,
      "t": 76603.42912499944,
      "d": 37.931024999998044,
      "v": 27
    },
    {
      "midi": 76,
      "hit": false,
      "t": 76655.15324999944,
      "d": 37.931024999998044,
      "v": 13
    },
    {
      "midi": 78,
      "hit": false,
      "t": 76706.87737499943,
      "d": 37.931024999998044,
      "v": 27
    },
    {
      "midi": 76,
      "hit": false,
      "t": 76758.60149999942,
      "d": 37.931024999998044,
      "v": 26
    },
    {
      "midi": 78,
      "hit": false,
      "t": 76810.32562499942,
      "d": 37.931024999998044,
      "v": 24
    },
    {
      "midi": 76,
      "hit": false,
      "t": 76862.04974999941,
      "d": 37.931024999998044,
      "v": 14
    },
    {
      "midi": 78,
      "hit": false,
      "t": 76913.7738749994,
      "d": 37.931024999998044,
      "v": 17
    },
    {
      "midi": 50,
      "hit": false,
      "t": 76965.4979999994,
      "d": 155.17237499999464,
      "v": 34
    },
    {
      "midi": 74,
      "hit": false,
      "t": 77172.39449999938,
      "d": 37.931024999998044,
      "v": 29
    },
    {
      "midi": 62,
      "hit": false,
      "t": 77172.39449999938,
      "d": 155.1723749999801,
      "v": 34
    },
    {
      "midi": 76,
      "hit": false,
      "t": 77224.11862499938,
      "d": 37.931024999998044,
      "v": 39
    },
    {
      "midi": 74,
      "hit": false,
      "t": 77275.84274999937,
      "d": 37.931024999998044,
      "v": 29
    },
    {
      "midi": 76,
      "hit": false,
      "t": 77327.56687499936,
      "d": 37.931024999998044,
      "v": 34
    },
    {
      "midi": 74,
      "hit": false,
      "t": 77379.29099999936,
      "d": 37.931024999998044,
      "v": 26
    },
    {
      "midi": 55,
      "hit": false,
      "t": 77379.29099999936,
      "d": 155.1723749999801,
      "v": 36
    },
    {
      "midi": 59,
      "hit": false,
      "t": 77379.29099999936,
      "d": 155.1723749999801,
      "v": 45
    },
    {
      "midi": 76,
      "hit": false,
      "t": 77431.01512499935,
      "d": 37.931024999998044,
      "v": 13
    },
    {
      "midi": 74,
      "hit": false,
      "t": 77482.73924999934,
      "d": 37.931024999998044,
      "v": 32
    },
    {
      "midi": 76,
      "hit": false,
      "t": 77534.46337499934,
      "d": 37.931024999998044,
      "v": 12
    },
    {
      "midi": 74,
      "hit": false,
      "t": 77586.18749999933,
      "d": 37.931024999998044,
      "v": 34
    },
    {
      "midi": 57,
      "hit": false,
      "t": 77586.18749999933,
      "d": 155.1723749999801,
      "v": 47
    },
    {
      "midi": 54,
      "hit": false,
      "t": 77586.18749999933,
      "d": 310.3447499999602,
      "v": 50
    },
    {
      "midi": 76,
      "hit": false,
      "t": 77637.91162499932,
      "d": 37.931024999998044,
      "v": 31
    },
    {
      "midi": 74,
      "hit": false,
      "t": 77689.63574999932,
      "d": 37.931024999998044,
      "v": 34
    },
    {
      "midi": 76,
      "hit": false,
      "t": 77741.35987499931,
      "d": 37.931024999998044,
      "v": 16
    },
    {
      "midi": 74,
      "hit": false,
      "t": 77793.0839999993,
      "d": 37.931024999998044,
      "v": 34
    },
    {
      "midi": 62,
      "hit": false,
      "t": 77793.0839999993,
      "d": 155.1723749999801,
      "v": 47
    },
    {
      "midi": 76,
      "hit": false,
      "t": 77844.8081249993,
      "d": 37.931024999998044,
      "v": 32
    },
    {
      "midi": 74,
      "hit": false,
      "t": 77896.53224999929,
      "d": 37.931024999998044,
      "v": 36
    },
    {
      "midi": 76,
      "hit": false,
      "t": 77948.25637499928,
      "d": 37.931024999998044,
      "v": 31
    },
    {
      "midi": 74,
      "hit": false,
      "t": 77999.98049999928,
      "d": 37.931024999998044,
      "v": 39
    },
    {
      "midi": 52,
      "hit": false,
      "t": 77999.98049999928,
      "d": 155.1723749999801,
      "v": 32
    },
    {
      "midi": 55,
      "hit": false,
      "t": 77999.98049999928,
      "d": 155.1723749999801,
      "v": 52
    },
    {
      "midi": 76,
      "hit": false,
      "t": 78051.70462499927,
      "d": 37.931024999998044,
      "v": 23
    },
    {
      "midi": 74,
      "hit": false,
      "t": 78103.42874999926,
      "d": 37.931024999998044,
      "v": 21
    },
    {
      "midi": 76,
      "hit": false,
      "t": 78155.15287499926,
      "d": 37.931024999998044,
      "v": 26
    },
    {
      "midi": 74,
      "hit": false,
      "t": 78206.87699999925,
      "d": 37.931024999998044,
      "v": 34
    },
    {
      "midi": 54,
      "hit": false,
      "t": 78206.87699999925,
      "d": 155.1723749999801,
      "v": 47
    },
    {
      "midi": 50,
      "hit": false,
      "t": 78206.87699999925,
      "d": 310.3447499999602,
      "v": 34
    },
    {
      "midi": 76,
      "hit": false,
      "t": 78258.60112499924,
      "d": 37.931024999998044,
      "v": 25
    },
    {
      "midi": 74,
      "hit": false,
      "t": 78310.32524999924,
      "d": 37.931024999998044,
      "v": 25
    },
    {
      "midi": 76,
      "hit": false,
      "t": 78362.04937499923,
      "d": 37.931024999998044,
      "v": 23
    },
    {
      "midi": 74,
      "hit": false,
      "t": 78413.77349999922,
      "d": 37.931024999998044,
      "v": 36
    },
    {
      "midi": 62,
      "hit": false,
      "t": 78413.77349999922,
      "d": 155.1723749999801,
      "v": 36
    },
    {
      "midi": 78,
      "hit": false,
      "t": 78413.77349999922,
      "d": 1165.5169499998592,
      "v": 55
    },
    {
      "midi": 76,
      "hit": false,
      "t": 78465.49762499922,
      "d": 37.931024999998044,
      "v": 23
    },
    {
      "midi": 74,
      "hit": false,
      "t": 78517.22174999921,
      "d": 37.931024999998044,
      "v": 31
    },
    {
      "midi": 76,
      "hit": false,
      "t": 78568.9458749992,
      "d": 37.931024999998044,
      "v": 25
    },
    {
      "midi": 74,
      "hit": false,
      "t": 78620.6699999992,
      "d": 37.931024999998044,
      "v": 32
    },
    {
      "midi": 55,
      "hit": false,
      "t": 78620.6699999992,
      "d": 155.1723749999801,
      "v": 41
    },
    {
      "midi": 59,
      "hit": false,
      "t": 78620.6699999992,
      "d": 155.1723749999801,
      "v": 54
    },
    {
      "midi": 76,
      "hit": false,
      "t": 78672.39412499919,
      "d": 37.931024999998044,
      "v": 14
    },
    {
      "midi": 74,
      "hit": false,
      "t": 78724.11824999918,
      "d": 37.931024999998044,
      "v": 26
    },
    {
      "midi": 76,
      "hit": false,
      "t": 78775.84237499918,
      "d": 37.931024999998044,
      "v": 12
    },
    {
      "midi": 74,
      "hit": false,
      "t": 78827.56649999917,
      "d": 37.931024999998044,
      "v": 21
    },
    {
      "midi": 57,
      "hit": false,
      "t": 78827.56649999917,
      "d": 155.1723749999801,
      "v": 52
    },
    {
      "midi": 54,
      "hit": false,
      "t": 78827.56649999917,
      "d": 310.3447499999602,
      "v": 35
    },
    {
      "midi": 76,
      "hit": false,
      "t": 78879.29062499916,
      "d": 37.931024999998044,
      "v": 25
    },
    {
      "midi": 74,
      "hit": false,
      "t": 78931.01474999916,
      "d": 37.931024999998044,
      "v": 26
    },
    {
      "midi": 76,
      "hit": false,
      "t": 78982.73887499915,
      "d": 37.931024999998044,
      "v": 16
    },
    {
      "midi": 74,
      "hit": false,
      "t": 79034.46299999914,
      "d": 37.931024999998044,
      "v": 21
    },
    {
      "midi": 62,
      "hit": false,
      "t": 79034.46299999914,
      "d": 155.1723749999801,
      "v": 44
    },
    {
      "midi": 76,
      "hit": false,
      "t": 79086.18712499914,
      "d": 37.931024999998044,
      "v": 23
    },
    {
      "midi": 74,
      "hit": false,
      "t": 79137.91124999913,
      "d": 37.931024999998044,
      "v": 26
    },
    {
      "midi": 76,
      "hit": false,
      "t": 79189.63537499912,
      "d": 37.931024999998044,
      "v": 15
    },
    {
      "midi": 74,
      "hit": false,
      "t": 79241.35949999912,
      "d": 37.931024999998044,
      "v": 29
    },
    {
      "midi": 52,
      "hit": false,
      "t": 79241.35949999912,
      "d": 155.1723749999801,
      "v": 32
    },
    {
      "midi": 55,
      "hit": false,
      "t": 79241.35949999912,
      "d": 155.1723749999801,
      "v": 39
    },
    {
      "midi": 76,
      "hit": false,
      "t": 79293.08362499911,
      "d": 37.931024999998044,
      "v": 21
    },
    {
      "midi": 74,
      "hit": false,
      "t": 79344.8077499991,
      "d": 37.931024999998044,
      "v": 29
    },
    {
      "midi": 76,
      "hit": false,
      "t": 79396.5318749991,
      "d": 37.931024999998044,
      "v": 13
    },
    {
      "midi": 74,
      "hit": false,
      "t": 79448.25599999909,
      "d": 37.931024999998044,
      "v": 32
    },
    {
      "midi": 54,
      "hit": false,
      "t": 79448.25599999909,
      "d": 155.1723749999801,
      "v": 55
    },
    {
      "midi": 50,
      "hit": false,
      "t": 79448.25599999909,
      "d": 310.34474999997474,
      "v": 44
    },
    {
      "midi": 76,
      "hit": false,
      "t": 79499.98012499909,
      "d": 37.931024999998044,
      "v": 31
    },
    {
      "midi": 74,
      "hit": false,
      "t": 79551.70424999908,
      "d": 37.931024999998044,
      "v": 23
    },
    {
      "midi": 76,
      "hit": false,
      "t": 79603.42837499907,
      "d": 37.931024999998044,
      "v": 16
    },
    {
      "midi": 78,
      "hit": false,
      "t": 79648.25594999907,
      "d": 1151.7238499998784,
      "v": 44
    },
    {
      "midi": 74,
      "hit": false,
      "t": 79655.15249999908,
      "d": 37.931024999998044,
      "v": 23
    },
    {
      "midi": 62,
      "hit": false,
      "t": 79655.15249999908,
      "d": 155.1723749999801,
      "v": 44
    },
    {
      "midi": 81,
      "hit": false,
      "t": 79655.15249999908,
      "d": 1179.310049999869,
      "v": 56
    },
    {
      "midi": 76,
      "hit": false,
      "t": 79706.87662499907,
      "d": 37.931024999998044,
      "v": 16
    },
    {
      "midi": 74,
      "hit": false,
      "t": 79758.60074999907,
      "d": 37.931024999998044,
      "v": 21
    },
    {
      "midi": 76,
      "hit": false,
      "t": 79810.32487499906,
      "d": 37.931024999998044,
      "v": 10
    },
    {
      "midi": 74,
      "hit": false,
      "t": 79862.04899999905,
      "d": 37.931024999998044,
      "v": 20
    },
    {
      "midi": 55,
      "hit": false,
      "t": 79862.04899999905,
      "d": 155.1723749999801,
      "v": 34
    },
    {
      "midi": 59,
      "hit": false,
      "t": 79862.04899999905,
      "d": 155.1723749999801,
      "v": 45
    },
    {
      "midi": 76,
      "hit": false,
      "t": 79913.77312499905,
      "d": 37.931024999998044,
      "v": 15
    },
    {
      "midi": 74,
      "hit": false,
      "t": 79965.49724999904,
      "d": 37.931024999998044,
      "v": 26
    },
    {
      "midi": 76,
      "hit": false,
      "t": 80017.22137499903,
      "d": 37.931024999998044,
      "v": 15
    },
    {
      "midi": 74,
      "hit": false,
      "t": 80068.94549999903,
      "d": 37.931024999998044,
      "v": 25
    },
    {
      "midi": 57,
      "hit": false,
      "t": 80068.94549999903,
      "d": 155.1723749999801,
      "v": 47
    },
    {
      "midi": 54,
      "hit": false,
      "t": 80068.94549999903,
      "d": 310.3447499999602,
      "v": 44
    },
    {
      "midi": 76,
      "hit": false,
      "t": 80120.66962499902,
      "d": 37.931024999998044,
      "v": 14
    },
    {
      "midi": 74,
      "hit": false,
      "t": 80172.39374999901,
      "d": 37.931024999998044,
      "v": 29
    },
    {
      "midi": 76,
      "hit": false,
      "t": 80224.117874999,
      "d": 37.931024999998044,
      "v": 32
    },
    {
      "midi": 74,
      "hit": false,
      "t": 80275.841999999,
      "d": 37.931024999998044,
      "v": 31
    },
    {
      "midi": 62,
      "hit": false,
      "t": 80275.841999999,
      "d": 155.1723749999801,
      "v": 47
    },
    {
      "midi": 76,
      "hit": false,
      "t": 80327.566124999,
      "d": 37.931024999998044,
      "v": 23
    },
    {
      "midi": 74,
      "hit": false,
      "t": 80379.29024999899,
      "d": 37.931024999998044,
      "v": 26
    },
    {
      "midi": 76,
      "hit": false,
      "t": 80431.01437499898,
      "d": 37.931024999998044,
      "v": 10
    },
    {
      "midi": 74,
      "hit": false,
      "t": 80482.73849999897,
      "d": 37.931024999998044,
      "v": 15
    },
    {
      "midi": 52,
      "hit": false,
      "t": 80482.73849999897,
      "d": 155.1723749999801,
      "v": 29
    },
    {
      "midi": 55,
      "hit": false,
      "t": 80482.73849999897,
      "d": 155.1723749999801,
      "v": 41
    },
    {
      "midi": 76,
      "hit": false,
      "t": 80534.46262499897,
      "d": 37.931024999998044,
      "v": 12
    },
    {
      "midi": 74,
      "hit": false,
      "t": 80586.18674999896,
      "d": 37.931024999998044,
      "v": 25
    },
    {
      "midi": 76,
      "hit": false,
      "t": 80637.91087499895,
      "d": 37.931024999998044,
      "v": 12
    },
    {
      "midi": 50,
      "hit": false,
      "t": 80689.63499999895,
      "d": 310.34475000000384,
      "v": 62
    },
    {
      "midi": 76,
      "hit": false,
      "t": 80896.53149999895,
      "d": 155.17237499999464,
      "v": 44
    },
    {
      "midi": 79,
      "hit": false,
      "t": 80896.53149999895,
      "d": 155.17237499999464,
      "v": 47
    },
    {
      "midi": 62,
      "hit": false,
      "t": 81103.42799999894,
      "d": 155.17237499999464,
      "v": 50
    },
    {
      "midi": 74,
      "hit": false,
      "t": 81103.42799999894,
      "d": 155.17237499999464,
      "v": 32
    },
    {
      "midi": 78,
      "hit": false,
      "t": 81103.42799999894,
      "d": 155.17237499999464,
      "v": 44
    },
    {
      "midi": 76,
      "hit": false,
      "t": 81310.32449999893,
      "d": 155.17237499999464,
      "v": 47
    },
    {
      "midi": 79,
      "hit": false,
      "t": 81310.32449999893,
      "d": 155.17237499999464,
      "v": 52
    },
    {
      "midi": 61,
      "hit": false,
      "t": 81310.32449999893,
      "d": 310.3447499999893,
      "v": 54
    },
    {
      "midi": 76,
      "hit": false,
      "t": 81517.22099999891,
      "d": 155.17237499999464,
      "v": 50
    },
    {
      "midi": 79,
      "hit": false,
      "t": 81517.22099999891,
      "d": 155.17237499999464,
      "v": 52
    },
    {
      "midi": 62,
      "hit": false,
      "t": 81724.1174999989,
      "d": 155.17237499999464,
      "v": 31
    },
    {
      "midi": 74,
      "hit": false,
      "t": 81724.1174999989,
      "d": 155.17237499999464,
      "v": 41
    },
    {
      "midi": 78,
      "hit": false,
      "t": 81724.1174999989,
      "d": 155.17237499999464,
      "v": 50
    },
    {
      "midi": 69,
      "hit": false,
      "t": 81931.01399999889,
      "d": 108.62066250000498,
      "v": 59
    },
    {
      "midi": 76,
      "hit": false,
      "t": 81931.01399999889,
      "d": 120.68962499999907,
      "v": 62
    },
    {
      "midi": 81,
      "hit": false,
      "t": 81931.01399999889,
      "d": 136.20686249999562,
      "v": 70
    },
    {
      "midi": 57,
      "hit": false,
      "t": 81931.01399999889,
      "d": 237.93097499998112,
      "v": 59
    },
    {
      "midi": 45,
      "hit": false,
      "t": 81931.01399999889,
      "d": 253.44821249999222,
      "v": 62
    },
    {
      "midi": 81,
      "hit": false,
      "t": 82125.84153749888,
      "d": 55.17239999999583,
      "v": 20
    },
    {
      "midi": 76,
      "hit": false,
      "t": 82136.18636249888,
      "d": 34.482749999995576,
      "v": 50
    },
    {
      "midi": 69,
      "hit": false,
      "t": 82136.18636249888,
      "d": 39.65516249999928,
      "v": 36
    },
    {
      "midi": 81,
      "hit": false,
      "t": 82343.08286249888,
      "d": 43.1034375000163,
      "v": 70
    },
    {
      "midi": 74,
      "hit": false,
      "t": 82349.97941249888,
      "d": 17.241374999997788,
      "v": 59
    },
    {
      "midi": 69,
      "hit": false,
      "t": 82349.97941249888,
      "d": 31.03447500000766,
      "v": 62
    },
    {
      "midi": 42,
      "hit": false,
      "t": 82360.32423749888,
      "d": 12.068962500008638,
      "v": 63
    },
    {
      "midi": 54,
      "hit": false,
      "t": 82360.32423749888,
      "d": 20.689650000014808,
      "v": 55
    },
    {
      "midi": 69,
      "hit": false,
      "t": 82543.08281249889,
      "d": 132.75858749999315,
      "v": 59
    },
    {
      "midi": 81,
      "hit": false,
      "t": 82543.08281249889,
      "d": 156.89651249999588,
      "v": 70
    },
    {
      "midi": 76,
      "hit": false,
      "t": 82553.42763749888,
      "d": 122.4137625000003,
      "v": 70
    },
    {
      "midi": 45,
      "hit": false,
      "t": 82553.42763749888,
      "d": 182.75857499999984,
      "v": 67
    },
    {
      "midi": 57,
      "hit": false,
      "t": 82553.42763749888,
      "d": 196.5516750000097,
      "v": 70
    },
    {
      "midi": 76,
      "hit": false,
      "t": 82744.80689999889,
      "d": 37.931024999998044,
      "v": 59
    },
    {
      "midi": 81,
      "hit": false,
      "t": 82749.9793124989,
      "d": 43.103437500001746,
      "v": 52
    },
    {
      "midi": 69,
      "hit": false,
      "t": 82751.7034499989,
      "d": 36.20688749999681,
      "v": 56
    },
    {
      "midi": 69,
      "hit": false,
      "t": 82951.70339999889,
      "d": 34.482749999995576,
      "v": 62
    },
    {
      "midi": 81,
      "hit": false,
      "t": 82951.70339999889,
      "d": 44.82757500000298,
      "v": 67
    },
    {
      "midi": 62,
      "hit": false,
      "t": 82962.04822499889,
      "d": 15.517237499996554,
      "v": 59
    },
    {
      "midi": 78,
      "hit": false,
      "t": 82962.04822499889,
      "d": 29.310337500006426,
      "v": 68
    },
    {
      "midi": 50,
      "hit": false,
      "t": 82972.39304999888,
      "d": 27.586200000019744,
      "v": 62
    },
    {
      "midi": 57,
      "hit": false,
      "t": 83148.2550749989,
      "d": 68.9655000000057,
      "v": 67
    },
    {
      "midi": 81,
      "hit": false,
      "t": 83148.2550749989,
      "d": 86.20687500000349,
      "v": 70
    },
    {
      "midi": 76,
      "hit": false,
      "t": 83155.1516249989,
      "d": 62.06895000000077,
      "v": 67
    },
    {
      "midi": 45,
      "hit": false,
      "t": 83155.1516249989,
      "d": 75.86204999999609,
      "v": 59
    },
    {
      "midi": 69,
      "hit": false,
      "t": 83156.87576249891,
      "d": 82.75860000000102,
      "v": 59
    },
    {
      "midi": 81,
      "hit": false,
      "t": 83343.08261249891,
      "d": 48.27585000000545,
      "v": 67
    },
    {
      "midi": 74,
      "hit": false,
      "t": 83349.97916249892,
      "d": 20.689650000000256,
      "v": 52
    },
    {
      "midi": 69,
      "hit": false,
      "t": 83349.97916249892,
      "d": 31.03447500000766,
      "v": 52
    },
    {
      "midi": 54,
      "hit": false,
      "t": 83360.32398749891,
      "d": 20.689650000014808,
      "v": 50
    },
    {
      "midi": 42,
      "hit": false,
      "t": 83362.04812499891,
      "d": 15.517237500011106,
      "v": 55
    },
    {
      "midi": 69,
      "hit": false,
      "t": 83553.42738749892,
      "d": 31.03447500000766,
      "v": 59
    },
    {
      "midi": 76,
      "hit": false,
      "t": 83555.15152499892,
      "d": 34.48275000001013,
      "v": 70
    },
    {
      "midi": 81,
      "hit": false,
      "t": 83563.77221249892,
      "d": 34.48275000001013,
      "v": 70
    },
    {
      "midi": 45,
      "hit": false,
      "t": 83565.49634999892,
      "d": 8.62068750000617,
      "v": 59
    },
    {
      "midi": 57,
      "hit": false,
      "t": 83574.11703749893,
      "d": 15.517237499996554,
      "v": 41
    },
    {
      "midi": 81,
      "hit": false,
      "t": 83748.25492499894,
      "d": 122.41376250001485,
      "v": 70
    },
    {
      "midi": 69,
      "hit": false,
      "t": 83753.42733749894,
      "d": 110.34480000000622,
      "v": 67
    },
    {
      "midi": 78,
      "hit": false,
      "t": 83753.42733749894,
      "d": 131.03445000000647,
      "v": 68
    },
    {
      "midi": 62,
      "hit": false,
      "t": 83765.49629999894,
      "d": 89.65515000000596,
      "v": 67
    },
    {
      "midi": 50,
      "hit": false,
      "t": 83765.49629999894,
      "d": 105.17238750001707,
      "v": 70
    },
    {
      "midi": 45,
      "hit": false,
      "t": 83955.15142499896,
      "d": 53.4482625000237,
      "v": 39
    },
    {
      "midi": 57,
      "hit": false,
      "t": 83960.32383749896,
      "d": 39.65516250001383,
      "v": 47
    },
    {
      "midi": 81,
      "hit": false,
      "t": 83960.32383749896,
      "d": 48.27585000002,
      "v": 70
    },
    {
      "midi": 76,
      "hit": false,
      "t": 83968.94452499897,
      "d": 25.862062500003958,
      "v": 62
    },
    {
      "midi": 69,
      "hit": false,
      "t": 83968.94452499897,
      "d": 31.03447500000766,
      "v": 56
    },
    {
      "midi": 81,
      "hit": false,
      "t": 84156.87551249898,
      "d": 37.931025000012596,
      "v": 67
    },
    {
      "midi": 74,
      "hit": false,
      "t": 84158.59964999899,
      "d": 20.689650000000256,
      "v": 59
    },
    {
      "midi": 42,
      "hit": false,
      "t": 84158.59964999899,
      "d": 29.310337500006426,
      "v": 63
    },
    {
      "midi": 69,
      "hit": false,
      "t": 84158.59964999899,
      "d": 29.310337500006426,
      "v": 59
    },
    {
      "midi": 54,
      "hit": false,
      "t": 84174.11688749898,
      "d": 10.344825000007404,
      "v": 58
    },
    {
      "midi": 81,
      "hit": false,
      "t": 84348.25477499899,
      "d": 55.172400000010384,
      "v": 67
    },
    {
      "midi": 57,
      "hit": false,
      "t": 84355.151324999,
      "d": 34.482749999995576,
      "v": 59
    },
    {
      "midi": 76,
      "hit": false,
      "t": 84355.151324999,
      "d": 34.482749999995576,
      "v": 67
    },
    {
      "midi": 69,
      "hit": false,
      "t": 84355.151324999,
      "d": 41.37930000000051,
      "v": 59
    },
    {
      "midi": 45,
      "hit": false,
      "t": 84356.875462499,
      "d": 39.65516249999928,
      "v": 59
    },
    {
      "midi": 69,
      "hit": false,
      "t": 84567.220237499,
      "d": 37.931024999998044,
      "v": 56
    },
    {
      "midi": 74,
      "hit": false,
      "t": 84575.840924999,
      "d": 24.137924999988172,
      "v": 62
    },
    {
      "midi": 42,
      "hit": false,
      "t": 84575.840924999,
      "d": 29.310337499991874,
      "v": 63
    },
    {
      "midi": 81,
      "hit": false,
      "t": 84575.840924999,
      "d": 39.655162499984726,
      "v": 59
    },
    {
      "midi": 54,
      "hit": false,
      "t": 84586.185749999,
      "d": 18.965512499999022,
      "v": 55
    },
    {
      "midi": 76,
      "hit": false,
      "t": 84786.185699999,
      "d": 41.379300000015064,
      "v": 67
    },
    {
      "midi": 69,
      "hit": false,
      "t": 84793.082249999,
      "d": 27.586200000005192,
      "v": 59
    },
    {
      "midi": 81,
      "hit": false,
      "t": 84793.082249999,
      "d": 37.931025000012596,
      "v": 67
    },
    {
      "midi": 45,
      "hit": false,
      "t": 84805.151212499,
      "d": 6.896550000004936,
      "v": 52
    },
    {
      "midi": 57,
      "hit": false,
      "t": 84805.151212499,
      "d": 15.517237500011106,
      "v": 41
    },
    {
      "midi": 81,
      "hit": false,
      "t": 85003.42702499902,
      "d": 48.27585000000545,
      "v": 70
    },
    {
      "midi": 69,
      "hit": false,
      "t": 85012.04771249903,
      "d": 31.034474999993108,
      "v": 59
    },
    {
      "midi": 78,
      "hit": false,
      "t": 85012.04771249903,
      "d": 44.82757500000298,
      "v": 68
    },
    {
      "midi": 62,
      "hit": false,
      "t": 85022.39253749902,
      "d": 12.068962499994086,
      "v": 52
    },
    {
      "midi": 50,
      "hit": false,
      "t": 85022.39253749902,
      "d": 34.48275000001013,
      "v": 59
    },
    {
      "midi": 45,
      "hit": false,
      "t": 85229.28903749904,
      "d": 39.65516249999928,
      "v": 67
    },
    {
      "midi": 57,
      "hit": false,
      "t": 85234.46144999904,
      "d": 18.965512499999022,
      "v": 52
    },
    {
      "midi": 69,
      "hit": false,
      "t": 85234.46144999904,
      "d": 37.931024999998044,
      "v": 67
    },
    {
      "midi": 81,
      "hit": false,
      "t": 85234.46144999904,
      "d": 44.82757500000298,
      "v": 70
    },
    {
      "midi": 76,
      "hit": false,
      "t": 85246.53041249904,
      "d": 17.241374999997788,
      "v": 67
    },
    {
      "midi": 37,
      "hit": false,
      "t": 85337.90969999904,
      "d": 18.965512499999022,
      "v": 24
    },
    {
      "midi": 81,
      "hit": false,
      "t": 85456.87518749904,
      "d": 55.172400000010384,
      "v": 67
    },
    {
      "midi": 69,
      "hit": false,
      "t": 85463.77173749905,
      "d": 29.310337499991874,
      "v": 62
    },
    {
      "midi": 74,
      "hit": false,
      "t": 85463.77173749905,
      "d": 34.482749999995576,
      "v": 70
    },
    {
      "midi": 50,
      "hit": false,
      "t": 85474.11656249904,
      "d": 15.517237499996554,
      "v": 59
    },
    {
      "midi": 38,
      "hit": false,
      "t": 85474.11656249904,
      "d": 32.758612500008894,
      "v": 62
    },
    {
      "midi": 76,
      "hit": false,
      "t": 85655.15099999905,
      "d": 37.931024999998044,
      "v": 31
    },
    {
      "midi": 33,
      "hit": false,
      "t": 85655.15099999905,
      "d": 586.2067499999248,
      "v": 59
    },
    {
      "midi": 45,
      "hit": false,
      "t": 85655.15099999905,
      "d": 586.2067499999248,
      "v": 62
    },
    {
      "midi": 78,
      "hit": false,
      "t": 85706.87512499905,
      "d": 37.931024999998044,
      "v": 27
    },
    {
      "midi": 76,
      "hit": false,
      "t": 85758.59924999904,
      "d": 37.931024999998044,
      "v": 20
    },
    {
      "midi": 78,
      "hit": false,
      "t": 85810.32337499903,
      "d": 37.931024999998044,
      "v": 24
    },
    {
      "midi": 76,
      "hit": false,
      "t": 85862.04749999903,
      "d": 37.931024999998044,
      "v": 34
    },
    {
      "midi": 78,
      "hit": false,
      "t": 85913.77162499902,
      "d": 37.931024999998044,
      "v": 38
    },
    {
      "midi": 76,
      "hit": false,
      "t": 85965.49574999901,
      "d": 37.931024999998044,
      "v": 44
    },
    {
      "midi": 78,
      "hit": false,
      "t": 86017.219874999,
      "d": 37.931024999998044,
      "v": 27
    },
    {
      "midi": 76,
      "hit": false,
      "t": 86068.943999999,
      "d": 37.931024999998044,
      "v": 34
    },
    {
      "midi": 78,
      "hit": false,
      "t": 86120.66812499899,
      "d": 37.931024999998044,
      "v": 27
    },
    {
      "midi": 76,
      "hit": false,
      "t": 86172.39224999899,
      "d": 37.931024999998044,
      "v": 21
    },
    {
      "midi": 78,
      "hit": false,
      "t": 86224.11637499898,
      "d": 37.931024999998044,
      "v": 22
    },
    {
      "midi": 69,
      "hit": false,
      "t": 86275.84049999897,
      "d": 232.75856250000652,
      "v": 47
    },
    {
      "midi": 57,
      "hit": false,
      "t": 86287.90946249897,
      "d": 179.31029999999737,
      "v": 30
    },
    {
      "midi": 61,
      "hit": false,
      "t": 86287.90946249897,
      "d": 184.48271250000107,
      "v": 40
    },
    {
      "midi": 62,
      "hit": false,
      "t": 86479.28872499897,
      "d": 168.96547499998996,
      "v": 34
    },
    {
      "midi": 59,
      "hit": false,
      "t": 86486.18527499898,
      "d": 227.58614999998827,
      "v": 29
    },
    {
      "midi": 71,
      "hit": false,
      "t": 86586.18524999898,
      "d": 37.931024999998044,
      "v": 44
    },
    {
      "midi": 73,
      "hit": false,
      "t": 86637.90937499897,
      "d": 37.931024999998044,
      "v": 47
    },
    {
      "midi": 64,
      "hit": false,
      "t": 86648.25419999896,
      "d": 75.86204999999609,
      "v": 34
    },
    {
      "midi": 61,
      "hit": false,
      "t": 86656.87488749897,
      "d": 163.79306250000081,
      "v": 43
    },
    {
      "midi": 74,
      "hit": false,
      "t": 86689.63349999896,
      "d": 77.58618749999732,
      "v": 39
    },
    {
      "midi": 76,
      "hit": false,
      "t": 86793.08174999896,
      "d": 77.58618750001187,
      "v": 62
    },
    {
      "midi": 62,
      "hit": false,
      "t": 86843.08173749897,
      "d": 446.55161249999946,
      "v": 33
    },
    {
      "midi": 66,
      "hit": false,
      "t": 86843.08173749897,
      "d": 506.896424999999,
      "v": 42
    },
    {
      "midi": 78,
      "hit": false,
      "t": 86896.52999999898,
      "d": 155.17237499999464,
      "v": 58
    },
    {
      "midi": 74,
      "hit": false,
      "t": 87103.42649999897,
      "d": 155.1723750000092,
      "v": 47
    },
    {
      "midi": 71,
      "hit": false,
      "t": 87310.32299999897,
      "d": 155.17237499999464,
      "v": 44
    },
    {
      "midi": 68,
      "hit": false,
      "t": 87517.21949999896,
      "d": 232.75856250000652,
      "v": 47
    },
    {
      "midi": 59,
      "hit": false,
      "t": 87522.39191249896,
      "d": 199.99994999999763,
      "v": 18
    },
    {
      "midi": 62,
      "hit": false,
      "t": 87524.11604999896,
      "d": 222.41373749999912,
      "v": 39
    },
    {
      "midi": 61,
      "hit": false,
      "t": 87737.90909999896,
      "d": 187.93098750000354,
      "v": 37
    },
    {
      "midi": 64,
      "hit": false,
      "t": 87746.52978749896,
      "d": 222.41373749999912,
      "v": 34
    },
    {
      "midi": 69,
      "hit": false,
      "t": 87827.56424999896,
      "d": 37.931024999998044,
      "v": 50
    },
    {
      "midi": 71,
      "hit": false,
      "t": 87879.28837499896,
      "d": 37.931024999998044,
      "v": 50
    },
    {
      "midi": 73,
      "hit": false,
      "t": 87931.01249999896,
      "d": 77.58618749999732,
      "v": 55
    },
    {
      "midi": 62,
      "hit": false,
      "t": 87953.42628749897,
      "d": 196.55167499999516,
      "v": 39
    },
    {
      "midi": 66,
      "hit": false,
      "t": 87953.42628749897,
      "d": 217.2413249999954,
      "v": 34
    },
    {
      "midi": 74,
      "hit": false,
      "t": 88034.46074999897,
      "d": 77.58618749999732,
      "v": 52
    },
    {
      "midi": 76,
      "hit": false,
      "t": 88137.90899999897,
      "d": 155.17237499999464,
      "v": 59
    },
    {
      "midi": 64,
      "hit": false,
      "t": 88155.15037499896,
      "d": 317.2412999999942,
      "v": 51
    },
    {
      "midi": 61,
      "hit": false,
      "t": 88156.87451249897,
      "d": 374.1378374999913,
      "v": 43
    },
    {
      "midi": 73,
      "hit": false,
      "t": 88344.80549999895,
      "d": 155.1723750000092,
      "v": 55
    },
    {
      "midi": 69,
      "hit": false,
      "t": 88551.70199999896,
      "d": 155.17237499999464,
      "v": 56
    },
    {
      "midi": 66,
      "hit": false,
      "t": 88758.59849999896,
      "d": 232.75856250000652,
      "v": 44
    },
    {
      "midi": 61,
      "hit": false,
      "t": 88779.28814999896,
      "d": 208.6206375000038,
      "v": 43
    },
    {
      "midi": 57,
      "hit": false,
      "t": 88781.01228749896,
      "d": 187.93098750000354,
      "v": 33
    },
    {
      "midi": 62,
      "hit": false,
      "t": 88977.56396249897,
      "d": 187.930987499989,
      "v": 39
    },
    {
      "midi": 59,
      "hit": false,
      "t": 88987.90878749896,
      "d": 199.99994999999763,
      "v": 40
    },
    {
      "midi": 68,
      "hit": false,
      "t": 89068.94324999896,
      "d": 37.931024999998044,
      "v": 38
    },
    {
      "midi": 69,
      "hit": false,
      "t": 89120.66737499896,
      "d": 37.931024999998044,
      "v": 50
    },
    {
      "midi": 71,
      "hit": false,
      "t": 89172.39149999896,
      "d": 77.58618749999732,
      "v": 41
    },
    {
      "midi": 64,
      "hit": false,
      "t": 89172.39149999896,
      "d": 239.6551124999969,
      "v": 44
    },
    {
      "midi": 61,
      "hit": false,
      "t": 89187.90873749896,
      "d": 203.4482250000001,
      "v": 52
    },
    {
      "midi": 73,
      "hit": false,
      "t": 89275.83974999897,
      "d": 77.58618749999732,
      "v": 47
    },
    {
      "midi": 74,
      "hit": false,
      "t": 89379.28799999897,
      "d": 155.17237499999464,
      "v": 59
    },
    {
      "midi": 62,
      "hit": false,
      "t": 89398.25351249897,
      "d": 332.7585374999908,
      "v": 44
    },
    {
      "midi": 59,
      "hit": false,
      "t": 89412.04661249896,
      "d": 329.3102624999883,
      "v": 47
    },
    {
      "midi": 71,
      "hit": false,
      "t": 89586.18449999896,
      "d": 155.17237499999464,
      "v": 50
    },
    {
      "midi": 68,
      "hit": false,
      "t": 89793.08099999894,
      "d": 155.17237499999464,
      "v": 55
    },
    {
      "midi": 64,
      "hit": false,
      "t": 89999.97749999895,
      "d": 232.75856250000652,
      "v": 39
    },
    {
      "midi": 56,
      "hit": false,
      "t": 90006.87404999895,
      "d": 186.2068500000023,
      "v": 45
    },
    {
      "midi": 59,
      "hit": false,
      "t": 90006.87404999895,
      "d": 210.34477500000503,
      "v": 45
    },
    {
      "midi": 61,
      "hit": false,
      "t": 90208.59813749895,
      "d": 220.68959999998333,
      "v": 50
    },
    {
      "midi": 57,
      "hit": false,
      "t": 90217.21882499896,
      "d": 212.06891249997716,
      "v": 37
    },
    {
      "midi": 66,
      "hit": false,
      "t": 90310.32224999895,
      "d": 37.931024999998044,
      "v": 47
    },
    {
      "midi": 68,
      "hit": false,
      "t": 90362.04637499894,
      "d": 37.931024999998044,
      "v": 44
    },
    {
      "midi": 69,
      "hit": false,
      "t": 90413.77049999894,
      "d": 77.58618749999732,
      "v": 56
    },
    {
      "midi": 62,
      "hit": false,
      "t": 90413.77049999894,
      "d": 229.3102874999895,
      "v": 37
    },
    {
      "midi": 59,
      "hit": false,
      "t": 90431.01187499893,
      "d": 175.8620249999949,
      "v": 53
    },
    {
      "midi": 71,
      "hit": false,
      "t": 90517.21874999894,
      "d": 77.58618749999732,
      "v": 50
    },
    {
      "midi": 73,
      "hit": false,
      "t": 90620.66699999892,
      "d": 77.58618749999732,
      "v": 38
    },
    {
      "midi": 61,
      "hit": false,
      "t": 90643.08078749893,
      "d": 208.6206375000038,
      "v": 43
    },
    {
      "midi": 57,
      "hit": false,
      "t": 90658.59802499892,
      "d": 112.06893750000745,
      "v": 39
    },
    {
      "midi": 73,
      "hit": false,
      "t": 90724.11524999893,
      "d": 77.58618749999732,
      "v": 47
    },
    {
      "midi": 73,
      "hit": false,
      "t": 90827.56349999893,
      "d": 77.58618749999732,
      "v": 38
    },
    {
      "midi": 57,
      "hit": false,
      "t": 90851.70142499893,
      "d": 170.6896124999912,
      "v": 6
    },
    {
      "midi": 73,
      "hit": false,
      "t": 90931.01174999893,
      "d": 77.58618749999732,
      "v": 32
    },
    {
      "midi": 73,
      "hit": false,
      "t": 91034.45999999892,
      "d": 77.58618749999732,
      "v": 22
    },
    {
      "midi": 56,
      "hit": false,
      "t": 91048.25309999891,
      "d": 62.06895000000077,
      "v": 45
    },
    {
      "midi": 73,
      "hit": false,
      "t": 91137.90824999892,
      "d": 77.58618750001187,
      "v": 32
    },
    {
      "midi": 73,
      "hit": false,
      "t": 91241.35649999893,
      "d": 77.58618750001187,
      "v": 38
    },
    {
      "midi": 54,
      "hit": false,
      "t": 91265.49442499893,
      "d": 24.137925000002724,
      "v": 49
    },
    {
      "midi": 73,
      "hit": false,
      "t": 91344.80474999895,
      "d": 77.58618749999732,
      "v": 38
    },
    {
      "midi": 73,
      "hit": false,
      "t": 91448.25299999895,
      "d": 77.58618749999732,
      "v": 38
    },
    {
      "midi": 69,
      "hit": false,
      "t": 91462.04609999894,
      "d": 213.79304999999295,
      "v": 42
    },
    {
      "midi": 73,
      "hit": false,
      "t": 91551.70124999894,
      "d": 77.58618749999732,
      "v": 19
    },
    {
      "midi": 73,
      "hit": false,
      "t": 91655.14949999894,
      "d": 77.58618749999732,
      "v": 20
    },
    {
      "midi": 64,
      "hit": false,
      "t": 91667.21846249893,
      "d": 182.7585750000144,
      "v": 39
    },
    {
      "midi": 73,
      "hit": false,
      "t": 91758.59774999894,
      "d": 77.58618749999732,
      "v": 27
    },
    {
      "midi": 78,
      "hit": false,
      "t": 91862.04599999894,
      "d": 155.17237499999464,
      "v": 58
    },
    {
      "midi": 63,
      "hit": false,
      "t": 91863.77013749894,
      "d": 474.13781249997555,
      "v": 49
    },
    {
      "midi": 71,
      "hit": false,
      "t": 92068.94249999893,
      "d": 155.17237499999464,
      "v": 36
    },
    {
      "midi": 69,
      "hit": false,
      "t": 92275.83899999892,
      "d": 155.17237499999464,
      "v": 39
    },
    {
      "midi": 59,
      "hit": false,
      "t": 92281.01141249892,
      "d": 124.13789999998698,
      "v": 40
    },
    {
      "midi": 71,
      "hit": false,
      "t": 92482.7354999989,
      "d": 77.58618749999732,
      "v": 20
    },
    {
      "midi": 71,
      "hit": false,
      "t": 92586.1837499989,
      "d": 77.58618749999732,
      "v": 31
    },
    {
      "midi": 71,
      "hit": false,
      "t": 92689.6319999989,
      "d": 77.58618749999732,
      "v": 23
    },
    {
      "midi": 68,
      "hit": false,
      "t": 92705.1492374989,
      "d": 232.75856250000652,
      "v": 49
    },
    {
      "midi": 71,
      "hit": false,
      "t": 92793.08024999891,
      "d": 77.58618749999732,
      "v": 26
    },
    {
      "midi": 71,
      "hit": false,
      "t": 92896.52849999891,
      "d": 77.58618749999732,
      "v": 21
    },
    {
      "midi": 66,
      "hit": false,
      "t": 92913.7698749989,
      "d": 199.99994999999763,
      "v": 49
    },
    {
      "midi": 71,
      "hit": false,
      "t": 92999.97674999891,
      "d": 77.58618749999732,
      "v": 29
    },
    {
      "midi": 71,
      "hit": false,
      "t": 93103.42499999891,
      "d": 77.58618749999732,
      "v": 41
    },
    {
      "midi": 64,
      "hit": false,
      "t": 93113.7698249989,
      "d": 208.6206375000038,
      "v": 51
    },
    {
      "midi": 71,
      "hit": false,
      "t": 93206.87324999891,
      "d": 77.58618749999732,
      "v": 26
    },
    {
      "midi": 71,
      "hit": false,
      "t": 93310.32149999891,
      "d": 77.58618749999732,
      "v": 34
    },
    {
      "midi": 68,
      "hit": false,
      "t": 93327.56287499891,
      "d": 222.41373749999912,
      "v": 37
    },
    {
      "midi": 71,
      "hit": false,
      "t": 93413.76974999892,
      "d": 77.58618749999732,
      "v": 29
    },
    {
      "midi": 71,
      "hit": false,
      "t": 93517.21799999892,
      "d": 77.58618749999732,
      "v": 32
    },
    {
      "midi": 62,
      "hit": false,
      "t": 93531.01109999891,
      "d": 125.86203750000277,
      "v": 39
    },
    {
      "midi": 71,
      "hit": false,
      "t": 93620.66624999892,
      "d": 77.58618749999732,
      "v": 25
    },
    {
      "midi": 80,
      "hit": false,
      "t": 93724.11449999892,
      "d": 155.17237499999464,
      "v": 50
    },
    {
      "midi": 73,
      "hit": false,
      "t": 93931.0109999989,
      "d": 155.1723750000092,
      "v": 44
    },
    {
      "midi": 61,
      "hit": false,
      "t": 93936.18341249891,
      "d": 246.55166250000184,
      "v": 45
    },
    {
      "midi": 71,
      "hit": false,
      "t": 94137.90749999891,
      "d": 155.17237499999464,
      "v": 21
    },
    {
      "midi": 65,
      "hit": false,
      "t": 94143.07991249891,
      "d": 117.2413499999966,
      "v": 47
    },
    {
      "midi": 69,
      "hit": false,
      "t": 94344.80399999891,
      "d": 77.58618749999732,
      "v": 36
    },
    {
      "midi": 69,
      "hit": false,
      "t": 94448.25224999891,
      "d": 77.58618749999732,
      "v": 34
    },
    {
      "midi": 69,
      "hit": false,
      "t": 94551.70049999891,
      "d": 77.58618749999732,
      "v": 34
    },
    {
      "midi": 66,
      "hit": false,
      "t": 94562.04532499891,
      "d": 218.9654625000112,
      "v": 42
    },
    {
      "midi": 69,
      "hit": false,
      "t": 94655.14874999892,
      "d": 77.58618749999732,
      "v": 26
    },
    {
      "midi": 69,
      "hit": false,
      "t": 94758.59699999892,
      "d": 77.58618749999732,
      "v": 29
    },
    {
      "midi": 64,
      "hit": false,
      "t": 94772.39009999891,
      "d": 215.51718749999418,
      "v": 44
    },
    {
      "midi": 69,
      "hit": false,
      "t": 94862.04524999892,
      "d": 77.58618749999732,
      "v": 20
    },
    {
      "midi": 69,
      "hit": false,
      "t": 94965.49349999892,
      "d": 77.58618749998277,
      "v": 44
    },
    {
      "midi": 63,
      "hit": false,
      "t": 94977.56246249891,
      "d": 206.896499999988,
      "v": 53
    },
    {
      "midi": 69,
      "hit": false,
      "t": 95068.9417499989,
      "d": 77.58618749999732,
      "v": 29
    },
    {
      "midi": 69,
      "hit": false,
      "t": 95172.38999999891,
      "d": 77.58618749999732,
      "v": 29
    },
    {
      "midi": 66,
      "hit": false,
      "t": 95184.4589624989,
      "d": 218.9654625000112,
      "v": 34
    },
    {
      "midi": 69,
      "hit": false,
      "t": 95275.83824999891,
      "d": 77.58618749999732,
      "v": 26
    },
    {
      "midi": 61,
      "hit": false,
      "t": 95377.56236249891,
      "d": 101.72411250000005,
      "v": 50
    },
    {
      "midi": 69,
      "hit": false,
      "t": 95379.28649999891,
      "d": 77.58618749999732,
      "v": 31
    },
    {
      "midi": 69,
      "hit": false,
      "t": 95482.73474999891,
      "d": 77.58618750001187,
      "v": 32
    },
    {
      "midi": 78,
      "hit": false,
      "t": 95586.18299999893,
      "d": 155.17237499999464,
      "v": 63
    },
    {
      "midi": 71,
      "hit": false,
      "t": 95793.07949999892,
      "d": 155.1723750000092,
      "v": 34
    },
    {
      "midi": 59,
      "hit": false,
      "t": 95798.25191249892,
      "d": 289.65509999998903,
      "v": 51
    },
    {
      "midi": 69,
      "hit": false,
      "t": 95999.97599999892,
      "d": 155.17237499999464,
      "v": 47
    },
    {
      "midi": 63,
      "hit": false,
      "t": 96010.32082499891,
      "d": 186.2068500000023,
      "v": 42
    },
    {
      "midi": 68,
      "hit": false,
      "t": 96206.8724999989,
      "d": 77.58618749999732,
      "v": 47
    },
    {
      "midi": 64,
      "hit": false,
      "t": 96217.2173249989,
      "d": 398.27576250000857,
      "v": 51
    },
    {
      "midi": 71,
      "hit": false,
      "t": 96310.32074999891,
      "d": 77.58618749999732,
      "v": 50
    },
    {
      "midi": 69,
      "hit": false,
      "t": 96413.76899999891,
      "d": 77.58618749999732,
      "v": 47
    },
    {
      "midi": 68,
      "hit": false,
      "t": 96517.21724999891,
      "d": 77.58618749999732,
      "v": 44
    },
    {
      "midi": 56,
      "hit": false,
      "t": 96608.5965374989,
      "d": 63.793087500002,
      "v": 45
    },
    {
      "midi": 66,
      "hit": false,
      "t": 96620.66549999891,
      "d": 77.58618749999732,
      "v": 32
    },
    {
      "midi": 64,
      "hit": false,
      "t": 96724.11374999891,
      "d": 77.58618749999732,
      "v": 33
    },
    {
      "midi": 73,
      "hit": false,
      "t": 96827.56199999891,
      "d": 77.58618749999732,
      "v": 50
    },
    {
      "midi": 64,
      "hit": false,
      "t": 96827.56199999891,
      "d": 429.3102375000017,
      "v": 51
    },
    {
      "midi": 57,
      "hit": false,
      "t": 96827.56199999891,
      "d": 444.8274750000128,
      "v": 44
    },
    {
      "midi": 73,
      "hit": false,
      "t": 96931.01024999892,
      "d": 77.58618749999732,
      "v": 50
    },
    {
      "midi": 71,
      "hit": false,
      "t": 97034.45849999892,
      "d": 77.58618749999732,
      "v": 26
    },
    {
      "midi": 69,
      "hit": false,
      "t": 97137.90674999892,
      "d": 77.58618749999732,
      "v": 50
    },
    {
      "midi": 68,
      "hit": false,
      "t": 97241.35499999892,
      "d": 77.58618749999732,
      "v": 40
    },
    {
      "midi": 54,
      "hit": false,
      "t": 97263.76878749892,
      "d": 44.82757500000298,
      "v": 49
    },
    {
      "midi": 66,
      "hit": false,
      "t": 97344.80324999892,
      "d": 77.58618749999732,
      "v": 40
    },
    {
      "midi": 71,
      "hit": false,
      "t": 97448.25149999892,
      "d": 77.58618749999732,
      "v": 52
    },
    {
      "midi": 56,
      "hit": false,
      "t": 97463.76873749892,
      "d": 203.44822499998554,
      "v": 52
    },
    {
      "midi": 64,
      "hit": false,
      "t": 97463.76873749892,
      "d": 213.7930499999784,
      "v": 46
    },
    {
      "midi": 71,
      "hit": false,
      "t": 97551.69974999892,
      "d": 77.58618749998277,
      "v": 50
    },
    {
      "midi": 69,
      "hit": false,
      "t": 97655.14799999891,
      "d": 77.58618749998277,
      "v": 50
    },
    {
      "midi": 68,
      "hit": false,
      "t": 97758.5962499989,
      "d": 77.58618749999732,
      "v": 38
    },
    {
      "midi": 66,
      "hit": false,
      "t": 97862.0444999989,
      "d": 77.58618749999732,
      "v": 44
    },
    {
      "midi": 52,
      "hit": false,
      "t": 97889.6306999989,
      "d": 63.79308749998745,
      "v": 59
    },
    {
      "midi": 64,
      "hit": false,
      "t": 97965.49274999888,
      "d": 77.58618749999732,
      "v": 34
    },
    {
      "midi": 73,
      "hit": false,
      "t": 98068.94099999889,
      "d": 77.58618750001187,
      "v": 55
    },
    {
      "midi": 57,
      "hit": false,
      "t": 98087.90651249888,
      "d": 220.68960000001243,
      "v": 47
    },
    {
      "midi": 64,
      "hit": false,
      "t": 98098.25133749889,
      "d": 177.5861625000107,
      "v": 49
    },
    {
      "midi": 73,
      "hit": false,
      "t": 98172.3892499989,
      "d": 77.58618749999732,
      "v": 63
    },
    {
      "midi": 71,
      "hit": false,
      "t": 98275.8374999989,
      "d": 77.58618749999732,
      "v": 47
    },
    {
      "midi": 69,
      "hit": false,
      "t": 98379.2857499989,
      "d": 77.58618749999732,
      "v": 44
    },
    {
      "midi": 68,
      "hit": false,
      "t": 98482.7339999989,
      "d": 77.58618749999732,
      "v": 40
    },
    {
      "midi": 54,
      "hit": false,
      "t": 98524.11329999889,
      "d": 53.4482625000237,
      "v": 62
    },
    {
      "midi": 66,
      "hit": false,
      "t": 98586.18224999892,
      "d": 77.58618749999732,
      "v": 50
    },
    {
      "midi": 76,
      "hit": false,
      "t": 98689.63049999892,
      "d": 77.58618749999732,
      "v": 56
    },
    {
      "midi": 56,
      "hit": false,
      "t": 98712.04428749892,
      "d": 249.9999375000043,
      "v": 56
    },
    {
      "midi": 64,
      "hit": false,
      "t": 98717.21669999893,
      "d": 401.72403750001104,
      "v": 46
    },
    {
      "midi": 76,
      "hit": false,
      "t": 98793.07874999892,
      "d": 77.58618749999732,
      "v": 59
    },
    {
      "midi": 75,
      "hit": false,
      "t": 98896.52699999893,
      "d": 77.58618749999732,
      "v": 55
    },
    {
      "midi": 73,
      "hit": false,
      "t": 98999.97524999893,
      "d": 77.58618749999732,
      "v": 50
    },
    {
      "midi": 71,
      "hit": false,
      "t": 99103.42349999893,
      "d": 77.58618750001187,
      "v": 36
    },
    {
      "midi": 57,
      "hit": false,
      "t": 99118.94073749894,
      "d": 203.4482250000001,
      "v": 59
    },
    {
      "midi": 69,
      "hit": false,
      "t": 99206.87174999894,
      "d": 77.58618749999732,
      "v": 44
    },
    {
      "midi": 68,
      "hit": false,
      "t": 99310.31999999894,
      "d": 77.58618749999732,
      "v": 40
    },
    {
      "midi": 59,
      "hit": false,
      "t": 99310.31999999894,
      "d": 436.2067875000066,
      "v": 53
    },
    {
      "midi": 69,
      "hit": false,
      "t": 99413.76824999895,
      "d": 77.58618749999732,
      "v": 52
    },
    {
      "midi": 71,
      "hit": false,
      "t": 99517.21649999895,
      "d": 77.58618749999732,
      "v": 47
    },
    {
      "midi": 64,
      "hit": false,
      "t": 99620.66474999895,
      "d": 77.58618749999732,
      "v": 44
    },
    {
      "midi": 66,
      "hit": false,
      "t": 99724.11299999895,
      "d": 77.58618749999732,
      "v": 40
    },
    {
      "midi": 47,
      "hit": false,
      "t": 99746.52678749895,
      "d": 131.03445000000647,
      "v": 44
    },
    {
      "midi": 63,
      "hit": false,
      "t": 99827.56124999895,
      "d": 77.58618750001187,
      "v": 44
    },
    {
      "midi": 40,
      "hit": false,
      "t": 99936.18191249896,
      "d": 455.17230000000563,
      "v": 50
    },
    {
      "midi": 64,
      "hit": false,
      "t": 99943.07846249896,
      "d": 199.99994999999763,
      "v": 60
    },
    {
      "midi": 76,
      "hit": false,
      "t": 100351.69904999896,
      "d": 46.551712500004214,
      "v": 62
    },
    {
      "midi": 76,
      "hit": false,
      "t": 100562.04382499897,
      "d": 205.17236250001588,
      "v": 56
    },
    {
      "midi": 40,
      "hit": false,
      "t": 100562.04382499897,
      "d": 465.51712500001304,
      "v": 56
    },
    {
      "midi": 77,
      "hit": false,
      "t": 100568.94037499897,
      "d": 189.65512500000477,
      "v": 62
    },
    {
      "midi": 74,
      "hit": false,
      "t": 100779.28514999898,
      "d": 87.93101250000473,
      "v": 47
    },
    {
      "midi": 76,
      "hit": false,
      "t": 100982.73337499898,
      "d": 60.344812499999534,
      "v": 56
    },
    {
      "midi": 72,
      "hit": false,
      "t": 100991.35406249898,
      "d": 36.20688749999681,
      "v": 50
    },
    {
      "midi": 72,
      "hit": false,
      "t": 101187.90573749898,
      "d": 196.5516750000097,
      "v": 56
    },
    {
      "midi": 40,
      "hit": false,
      "t": 101187.90573749898,
      "d": 472.4136750000034,
      "v": 59
    },
    {
      "midi": 74,
      "hit": false,
      "t": 101196.52642499899,
      "d": 179.31029999999737,
      "v": 67
    },
    {
      "midi": 71,
      "hit": false,
      "t": 101399.97464999899,
      "d": 87.93101250000473,
      "v": 41
    },
    {
      "midi": 72,
      "hit": false,
      "t": 101608.59528749899,
      "d": 93.10342499999388,
      "v": 52
    },
    {
      "midi": 69,
      "hit": false,
      "t": 101624.11252499899,
      "d": 36.20688749999681,
      "v": 44
    },
    {
      "midi": 71,
      "hit": false,
      "t": 101813.76764999899,
      "d": 179.31029999998282,
      "v": 52
    },
    {
      "midi": 69,
      "hit": false,
      "t": 101813.76764999899,
      "d": 187.930987499989,
      "v": 56
    },
    {
      "midi": 40,
      "hit": false,
      "t": 101813.76764999899,
      "d": 431.0343749999738,
      "v": 56
    },
    {
      "midi": 67,
      "hit": false,
      "t": 102015.49173749897,
      "d": 112.0689374999929,
      "v": 50
    },
    {
      "midi": 65,
      "hit": false,
      "t": 102206.87099999897,
      "d": 174.13788749999367,
      "v": 50
    },
    {
      "midi": 69,
      "hit": false,
      "t": 102206.87099999897,
      "d": 186.20684999998775,
      "v": 50
    },
    {
      "midi": 40,
      "hit": false,
      "t": 102408.59508749895,
      "d": 446.55161249999946,
      "v": 47
    },
    {
      "midi": 64,
      "hit": false,
      "t": 102413.76749999895,
      "d": 210.34477499999048,
      "v": 64
    },
    {
      "midi": 68,
      "hit": false,
      "t": 102629.28468749895,
      "d": 184.48271250000107,
      "v": 55
    },
    {
      "midi": 64,
      "hit": false,
      "t": 102834.45704999895,
      "d": 25.862062500003958,
      "v": 47
    },
    {
      "midi": 65,
      "hit": false,
      "t": 103036.18113749896,
      "d": 201.72408749999886,
      "v": 56
    },
    {
      "midi": 64,
      "hit": false,
      "t": 103036.18113749896,
      "d": 208.6206375000038,
      "v": 55
    },
    {
      "midi": 40,
      "hit": false,
      "t": 103036.18113749896,
      "d": 441.3792000000103,
      "v": 62
    },
    {
      "midi": 62,
      "hit": false,
      "t": 103255.14659999896,
      "d": 124.13790000000154,
      "v": 44
    },
    {
      "midi": 64,
      "hit": false,
      "t": 103448.24999999897,
      "d": 56.89653750001162,
      "v": 60
    },
    {
      "midi": 60,
      "hit": false,
      "t": 103455.14654999897,
      "d": 44.82757500000298,
      "v": 52
    },
    {
      "midi": 40,
      "hit": false,
      "t": 103655.14649999898,
      "d": 449.99988749997283,
      "v": 52
    },
    {
      "midi": 62,
      "hit": false,
      "t": 103662.04304999899,
      "d": 160.3447874999838,
      "v": 62
    },
    {
      "midi": 60,
      "hit": false,
      "t": 103662.04304999899,
      "d": 175.86202499998035,
      "v": 47
    },
    {
      "midi": 59,
      "hit": false,
      "t": 103851.69817499896,
      "d": 113.79307499999413,
      "v": 54
    },
    {
      "midi": 57,
      "hit": false,
      "t": 104063.76708749896,
      "d": 49.99998750000668,
      "v": 56
    },
    {
      "midi": 60,
      "hit": false,
      "t": 104065.49122499896,
      "d": 62.06895000000077,
      "v": 52
    },
    {
      "midi": 59,
      "hit": false,
      "t": 104267.21531249896,
      "d": 213.79304999999295,
      "v": 51
    },
    {
      "midi": 57,
      "hit": false,
      "t": 104275.83599999896,
      "d": 44.82757499998843,
      "v": 52
    },
    {
      "midi": 40,
      "hit": false,
      "t": 104275.83599999896,
      "d": 455.1722999999911,
      "v": 56
    },
    {
      "midi": 56,
      "hit": false,
      "t": 104481.00836249895,
      "d": 201.72408749999886,
      "v": 59
    },
    {
      "midi": 53,
      "hit": false,
      "t": 104691.35313749895,
      "d": 56.896537499997066,
      "v": 60
    },
    {
      "midi": 52,
      "hit": false,
      "t": 104894.80136249895,
      "d": 241.37924999998359,
      "v": 62
    },
    {
      "midi": 40,
      "hit": false,
      "t": 104899.97377499896,
      "d": 263.7930374999851,
      "v": 44
    },
    {
      "midi": 56,
      "hit": false,
      "t": 105118.93923749894,
      "d": 181.0344374999986,
      "v": 62
    },
    {
      "midi": 64,
      "hit": false,
      "t": 105318.93918749894,
      "d": 18.965512499999022,
      "v": 55
    },
    {
      "midi": 65,
      "hit": false,
      "t": 105496.52534999893,
      "d": 43.103437499987194,
      "v": 52
    },
    {
      "midi": 50,
      "hit": false,
      "t": 105513.76672499893,
      "d": 610.3446749999857,
      "v": 47
    },
    {
      "midi": 57,
      "hit": false,
      "t": 105518.93913749894,
      "d": 272.4137249999767,
      "v": 41
    },
    {
      "midi": 67,
      "hit": false,
      "t": 105529.28396249893,
      "d": 48.275849999990896,
      "v": 70
    },
    {
      "midi": 65,
      "hit": false,
      "t": 105570.66326249891,
      "d": 172.41374999999243,
      "v": 62
    },
    {
      "midi": 64,
      "hit": false,
      "t": 105748.24942499891,
      "d": 193.10340000000724,
      "v": 64
    },
    {
      "midi": 69,
      "hit": false,
      "t": 105948.24937499892,
      "d": 187.93098750000354,
      "v": 50
    },
    {
      "midi": 65,
      "hit": false,
      "t": 105962.04247499892,
      "d": 186.20685000001686,
      "v": 56
    },
    {
      "midi": 59,
      "hit": false,
      "t": 106148.24932499893,
      "d": 377.5861125000083,
      "v": 35
    },
    {
      "midi": 64,
      "hit": false,
      "t": 106155.14587499894,
      "d": 220.68959999999788,
      "v": 58
    },
    {
      "midi": 52,
      "hit": false,
      "t": 106155.14587499894,
      "d": 384.48266250001325,
      "v": 39
    },
    {
      "midi": 68,
      "hit": false,
      "t": 106353.42168749894,
      "d": 172.41375000000698,
      "v": 50
    },
    {
      "midi": 76,
      "hit": false,
      "t": 106532.73198749895,
      "d": 22.41378750000149,
      "v": 34
    },
    {
      "midi": 77,
      "hit": false,
      "t": 106698.24918749895,
      "d": 55.17239999999583,
      "v": 50
    },
    {
      "midi": 57,
      "hit": false,
      "t": 106727.55952499894,
      "d": 451.72402500000317,
      "v": 52
    },
    {
      "midi": 50,
      "hit": false,
      "t": 106727.55952499894,
      "d": 556.8964124999911,
      "v": 50
    },
    {
      "midi": 79,
      "hit": false,
      "t": 106753.42158749895,
      "d": 122.4137625000003,
      "v": 67
    },
    {
      "midi": 77,
      "hit": false,
      "t": 106805.14571249894,
      "d": 131.03445000000647,
      "v": 15
    },
    {
      "midi": 76,
      "hit": false,
      "t": 106939.62843749895,
      "d": 22.41378750000149,
      "v": 52
    },
    {
      "midi": 77,
      "hit": false,
      "t": 107163.76631249895,
      "d": 187.930987499989,
      "v": 59
    },
    {
      "midi": 69,
      "hit": false,
      "t": 107163.76631249895,
      "d": 351.7240499999607,
      "v": 50
    },
    {
      "midi": 59,
      "hit": false,
      "t": 107362.04212499893,
      "d": 406.89644999998563,
      "v": 43
    },
    {
      "midi": 52,
      "hit": false,
      "t": 107372.38694999894,
      "d": 406.89644999998563,
      "v": 41
    },
    {
      "midi": 76,
      "hit": false,
      "t": 107579.28344999891,
      "d": 56.89653750001162,
      "v": 41
    },
    {
      "midi": 68,
      "hit": false,
      "t": 107586.17999999892,
      "d": 187.93098750000354,
      "v": 40
    },
    {
      "midi": 64,
      "hit": false,
      "t": 107787.90408749893,
      "d": 53.4482624999946,
      "v": 40
    },
    {
      "midi": 65,
      "hit": false,
      "t": 107987.90403749893,
      "d": 39.65516249999928,
      "v": 39
    },
    {
      "midi": 57,
      "hit": false,
      "t": 107987.90403749893,
      "d": 431.03437500001746,
      "v": 23
    },
    {
      "midi": 50,
      "hit": false,
      "t": 107987.90403749893,
      "d": 512.0688375000173,
      "v": 34
    },
    {
      "midi": 67,
      "hit": false,
      "t": 108036.17988749893,
      "d": 41.37930000000051,
      "v": 50
    },
    {
      "midi": 65,
      "hit": false,
      "t": 108084.45573749894,
      "d": 105.17238750000251,
      "v": 11
    },
    {
      "midi": 64,
      "hit": false,
      "t": 108191.35226249894,
      "d": 181.0344374999986,
      "v": 44
    },
    {
      "midi": 69,
      "hit": false,
      "t": 108403.42117499893,
      "d": 199.99995000001218,
      "v": 36
    },
    {
      "midi": 65,
      "hit": false,
      "t": 108412.04186249894,
      "d": 196.5516750000097,
      "v": 44
    },
    {
      "midi": 59,
      "hit": false,
      "t": 108617.21422499896,
      "d": 431.03437499998836,
      "v": 27
    },
    {
      "midi": 52,
      "hit": false,
      "t": 108617.21422499896,
      "d": 443.10333749998244,
      "v": 34
    },
    {
      "midi": 64,
      "hit": false,
      "t": 108629.28318749895,
      "d": 199.99994999998307,
      "v": 42
    },
    {
      "midi": 68,
      "hit": false,
      "t": 108818.93831249894,
      "d": 177.58616249999614,
      "v": 47
    },
    {
      "midi": 76,
      "hit": false,
      "t": 109018.93826249894,
      "d": 20.689650000000256,
      "v": 31
    },
    {
      "midi": 77,
      "hit": false,
      "t": 109213.76579999895,
      "d": 55.17239999999583,
      "v": 47
    },
    {
      "midi": 57,
      "hit": false,
      "t": 109227.55889999894,
      "d": 439.65506250002363,
      "v": 47
    },
    {
      "midi": 50,
      "hit": false,
      "t": 109227.55889999894,
      "d": 574.1377875000035,
      "v": 36
    },
    {
      "midi": 79,
      "hit": false,
      "t": 109260.31751249894,
      "d": 39.65516250001383,
      "v": 59
    },
    {
      "midi": 77,
      "hit": false,
      "t": 109293.07612499894,
      "d": 132.7585875000077,
      "v": 34
    },
    {
      "midi": 76,
      "hit": false,
      "t": 109431.00712499896,
      "d": 24.137925000002724,
      "v": 52
    },
    {
      "midi": 77,
      "hit": false,
      "t": 109651.69672499897,
      "d": 162.06892499997048,
      "v": 59
    },
    {
      "midi": 69,
      "hit": false,
      "t": 109651.69672499897,
      "d": 281.0344124999683,
      "v": 47
    },
    {
      "midi": 59,
      "hit": false,
      "t": 109862.04149999894,
      "d": 268.9654499999888,
      "v": 40
    },
    {
      "midi": 52,
      "hit": false,
      "t": 109872.38632499895,
      "d": 236.20683749997988,
      "v": 36
    },
    {
      "midi": 76,
      "hit": false,
      "t": 110070.66213749893,
      "d": 65.51722500000324,
      "v": 56
    },
    {
      "midi": 68,
      "hit": false,
      "t": 110089.62764999893,
      "d": 175.86202500000945,
      "v": 29
    },
    {
      "midi": 64,
      "hit": false,
      "t": 110281.00691249894,
      "d": 118.96548749999783,
      "v": 47
    },
    {
      "midi": 67,
      "hit": false,
      "t": 110468.93789999893,
      "d": 224.13787499997125,
      "v": 62
    },
    {
      "midi": 50,
      "hit": false,
      "t": 110481.00686249892,
      "d": 358.6205999999802,
      "v": 39
    },
    {
      "midi": 59,
      "hit": false,
      "t": 110481.00686249892,
      "d": 439.65506249998,
      "v": 29
    },
    {
      "midi": 57,
      "hit": false,
      "t": 110487.90341249893,
      "d": 427.58609999997134,
      "v": 34
    },
    {
      "midi": 65,
      "hit": false,
      "t": 110681.0068124989,
      "d": 198.2758124999964,
      "v": 36
    },
    {
      "midi": 64,
      "hit": false,
      "t": 110898.2481374989,
      "d": 27.586200000005192,
      "v": 52
    },
    {
      "midi": 74,
      "hit": false,
      "t": 111094.79981249891,
      "d": 253.44821250000678,
      "v": 67
    },
    {
      "midi": 65,
      "hit": false,
      "t": 111105.14463749892,
      "d": 225.86201250000158,
      "v": 56
    },
    {
      "midi": 50,
      "hit": false,
      "t": 111113.76532499892,
      "d": 334.482674999992,
      "v": 26
    },
    {
      "midi": 59,
      "hit": false,
      "t": 111113.76532499892,
      "d": 413.7930000000051,
      "v": 18
    },
    {
      "midi": 57,
      "hit": false,
      "t": 111125.83428749892,
      "d": 401.72403750001104,
      "v": 21
    },
    {
      "midi": 72,
      "hit": false,
      "t": 111310.31699999892,
      "d": 212.06891250000626,
      "v": 62
    },
    {
      "midi": 71,
      "hit": false,
      "t": 111513.76522499892,
      "d": 25.862062500003958,
      "v": 56
    },
    {
      "midi": 79,
      "hit": false,
      "t": 111727.55827499891,
      "d": 253.44821249999222,
      "v": 70
    },
    {
      "midi": 69,
      "hit": false,
      "t": 111734.45482499892,
      "d": 237.93097499998112,
      "v": 44
    },
    {
      "midi": 59,
      "hit": false,
      "t": 111734.45482499892,
      "d": 396.55162499997823,
      "v": 19
    },
    {
      "midi": 50,
      "hit": false,
      "t": 111744.79964999891,
      "d": 312.0688874999905,
      "v": 29
    },
    {
      "midi": 57,
      "hit": false,
      "t": 111744.79964999891,
      "d": 386.2067999999854,
      "v": 21
    },
    {
      "midi": 77,
      "hit": false,
      "t": 111948.2478749989,
      "d": 205.17236250000133,
      "v": 62
    },
    {
      "midi": 76,
      "hit": false,
      "t": 112131.0064499989,
      "d": 27.586200000005192,
      "v": 59
    },
    {
      "midi": 84,
      "hit": false,
      "t": 112348.2477749989,
      "d": 246.5516625000164,
      "v": 70
    },
    {
      "midi": 74,
      "hit": false,
      "t": 112355.14432499891,
      "d": 282.7585500000132,
      "v": 39
    },
    {
      "midi": 59,
      "hit": false,
      "t": 112367.21328749892,
      "d": 339.65508750001027,
      "v": 22
    },
    {
      "midi": 57,
      "hit": false,
      "t": 112374.10983749892,
      "d": 327.58612500000163,
      "v": 20
    },
    {
      "midi": 50,
      "hit": false,
      "t": 112374.10983749892,
      "d": 332.75853750000533,
      "v": 20
    },
    {
      "midi": 82,
      "hit": false,
      "t": 112574.10978749892,
      "d": 175.86202500000945,
      "v": 63
    },
    {
      "midi": 80,
      "hit": false,
      "t": 112760.31663749892,
      "d": 198.2758124999964,
      "v": 55
    },
    {
      "midi": 48,
      "hit": false,
      "t": 112963.76486249892,
      "d": 179.31029999999737,
      "v": 26
    },
    {
      "midi": 57,
      "hit": false,
      "t": 112963.76486249892,
      "d": 213.79304999999295,
      "v": 18
    },
    {
      "midi": 81,
      "hit": false,
      "t": 112972.38554999893,
      "d": 220.68959999999788,
      "v": 62
    },
    {
      "midi": 76,
      "hit": false,
      "t": 113186.17859999892,
      "d": 174.13788750000822,
      "v": 50
    },
    {
      "midi": 74,
      "hit": false,
      "t": 113365.48889999893,
      "d": 203.4482250000001,
      "v": 50
    },
    {
      "midi": 50,
      "hit": false,
      "t": 113372.38544999894,
      "d": 43.103437500001746,
      "v": 39
    },
    {
      "midi": 59,
      "hit": false,
      "t": 113377.55786249894,
      "d": 37.931024999998044,
      "v": 24
    },
    {
      "midi": 60,
      "hit": false,
      "t": 113568.93712499893,
      "d": 17.24137500001234,
      "v": 34
    },
    {
      "midi": 52,
      "hit": false,
      "t": 113575.83367499894,
      "d": 10.344825000007404,
      "v": 31
    },
    {
      "midi": 72,
      "hit": false,
      "t": 113582.73022499894,
      "d": 3.448275000002468,
      "v": 52
    },
    {
      "midi": 72,
      "hit": false,
      "t": 113598.24746249894,
      "d": 189.65512500000477,
      "v": 47
    },
    {
      "midi": 60,
      "hit": false,
      "t": 113598.24746249894,
      "d": 317.2413000000088,
      "v": 23
    },
    {
      "midi": 52,
      "hit": false,
      "t": 113610.31642499893,
      "d": 282.7585500000132,
      "v": 26
    },
    {
      "midi": 57,
      "hit": false,
      "t": 113617.21297499894,
      "d": 306.8964750000159,
      "v": 21
    },
    {
      "midi": 71,
      "hit": false,
      "t": 113810.31637499895,
      "d": 129.31031250000524,
      "v": 56
    },
    {
      "midi": 69,
      "hit": false,
      "t": 113917.21289999895,
      "d": 94.82756249999511,
      "v": 47
    },
    {
      "midi": 59,
      "hit": false,
      "t": 114017.21287499895,
      "d": 29.310337500006426,
      "v": 33
    },
    {
      "midi": 52,
      "hit": false,
      "t": 114017.21287499895,
      "d": 44.82757500000298,
      "v": 50
    },
    {
      "midi": 71,
      "hit": false,
      "t": 114017.21287499895,
      "d": 93.10342499999388,
      "v": 50
    },
    {
      "midi": 68,
      "hit": false,
      "t": 114094.79906249895,
      "d": 37.931024999998044,
      "v": 55
    },
    {
      "midi": 57,
      "hit": false,
      "t": 114189.62662499894,
      "d": 441.3792000000103,
      "v": 50
    },
    {
      "midi": 68,
      "hit": false,
      "t": 114205.14386249894,
      "d": 208.6206375000038,
      "v": 63
    },
    {
      "midi": 45,
      "hit": false,
      "t": 114377.55761249895,
      "d": 224.13787500000035,
      "v": 1
    },
    {
      "midi": 69,
      "hit": false,
      "t": 114408.59208749894,
      "d": 198.27581250001094,
      "v": 50
    },
    {
      "midi": 64,
      "hit": false,
      "t": 114625.83341249895,
      "d": 174.13788750000822,
      "v": 47
    },
    {
      "midi": 67,
      "hit": false,
      "t": 114812.04026249895,
      "d": 249.9999375000043,
      "v": 56
    },
    {
      "midi": 59,
      "hit": false,
      "t": 114820.66094999896,
      "d": 467.2412624999997,
      "v": 33
    },
    {
      "midi": 57,
      "hit": false,
      "t": 114831.00577499895,
      "d": 446.55161249999946,
      "v": 29
    },
    {
      "midi": 50,
      "hit": false,
      "t": 114836.17818749895,
      "d": 422.41368749999674,
      "v": 32
    },
    {
      "midi": 65,
      "hit": false,
      "t": 115044.79882499896,
      "d": 174.13788749997912,
      "v": 36
    },
    {
      "midi": 64,
      "hit": false,
      "t": 115251.69532499895,
      "d": 31.03447500000766,
      "v": 47
    },
    {
      "midi": 74,
      "hit": false,
      "t": 115451.69527499896,
      "d": 255.17234999999346,
      "v": 70
    },
    {
      "midi": 65,
      "hit": false,
      "t": 115456.86768749896,
      "d": 218.96546249999665,
      "v": 47
    },
    {
      "midi": 59,
      "hit": false,
      "t": 115458.59182499896,
      "d": 422.41368749999674,
      "v": 35
    },
    {
      "midi": 50,
      "hit": false,
      "t": 115470.66078749897,
      "d": 339.65508749998116,
      "v": 31
    },
    {
      "midi": 57,
      "hit": false,
      "t": 115470.66078749897,
      "d": 401.72403749998193,
      "v": 29
    },
    {
      "midi": 72,
      "hit": false,
      "t": 115663.76418749896,
      "d": 198.2758124999964,
      "v": 52
    },
    {
      "midi": 71,
      "hit": false,
      "t": 115855.14344999896,
      "d": 29.310337500006426,
      "v": 56
    },
    {
      "midi": 79,
      "hit": false,
      "t": 116065.48822499896,
      "d": 308.62061249998806,
      "v": 67
    },
    {
      "midi": 59,
      "hit": false,
      "t": 116065.48822499896,
      "d": 422.41368749999674,
      "v": 25
    },
    {
      "midi": 69,
      "hit": false,
      "t": 116081.00546249896,
      "d": 343.1033624999982,
      "v": 41
    },
    {
      "midi": 50,
      "hit": false,
      "t": 116081.00546249896,
      "d": 365.5171499999997,
      "v": 32
    },
    {
      "midi": 57,
      "hit": false,
      "t": 116081.00546249896,
      "d": 406.8964500000002,
      "v": 26
    },
    {
      "midi": 77,
      "hit": false,
      "t": 116281.00541249895,
      "d": 199.99994999999763,
      "v": 59
    },
    {
      "midi": 76,
      "hit": false,
      "t": 116465.48812499896,
      "d": 15.517237499996554,
      "v": 50
    },
    {
      "midi": 84,
      "hit": false,
      "t": 116675.83289999896,
      "d": 236.20683749999444,
      "v": 70
    },
    {
      "midi": 74,
      "hit": false,
      "t": 116696.52254999896,
      "d": 243.10338749999937,
      "v": 34
    },
    {
      "midi": 50,
      "hit": false,
      "t": 116696.52254999896,
      "d": 348.2757750000019,
      "v": 39
    },
    {
      "midi": 59,
      "hit": false,
      "t": 116696.52254999896,
      "d": 362.0688749999972,
      "v": 24
    },
    {
      "midi": 57,
      "hit": false,
      "t": 116708.59151249896,
      "d": 339.65508750001027,
      "v": 25
    },
    {
      "midi": 82,
      "hit": false,
      "t": 116887.90181249895,
      "d": 189.65512500000477,
      "v": 68
    },
    {
      "midi": 80,
      "hit": false,
      "t": 117087.90176249895,
      "d": 201.72408749999886,
      "v": 58
    },
    {
      "midi": 57,
      "hit": false,
      "t": 117298.24653749896,
      "d": 227.58614999998827,
      "v": 23
    },
    {
      "midi": 48,
      "hit": false,
      "t": 117305.14308749896,
      "d": 189.65512499999022,
      "v": 34
    },
    {
      "midi": 81,
      "hit": false,
      "t": 117305.14308749896,
      "d": 229.3102874999895,
      "v": 70
    },
    {
      "midi": 76,
      "hit": false,
      "t": 117513.76372499895,
      "d": 198.2758124999964,
      "v": 62
    },
    {
      "midi": 59,
      "hit": false,
      "t": 117701.69471249895,
      "d": 29.310337499991874,
      "v": 43
    },
    {
      "midi": 74,
      "hit": false,
      "t": 117701.69471249895,
      "d": 196.5516749999806,
      "v": 59
    },
    {
      "midi": 50,
      "hit": false,
      "t": 117712.03953749895,
      "d": 15.517237499996554,
      "v": 36
    },
    {
      "midi": 60,
      "hit": false,
      "t": 117898.24638749893,
      "d": 362.06887500001176,
      "v": 44
    },
    {
      "midi": 52,
      "hit": false,
      "t": 117912.03948749893,
      "d": 282.7585500000132,
      "v": 31
    },
    {
      "midi": 72,
      "hit": false,
      "t": 117917.21189999893,
      "d": 239.65511250001146,
      "v": 52
    },
    {
      "midi": 71,
      "hit": false,
      "t": 118132.72908749894,
      "d": 113.79307500000868,
      "v": 59
    },
    {
      "midi": 69,
      "hit": false,
      "t": 118239.62561249894,
      "d": 98.27583749999758,
      "v": 62
    },
    {
      "midi": 60,
      "hit": false,
      "t": 118327.55662499895,
      "d": 24.137925000002724,
      "v": 9
    },
    {
      "midi": 52,
      "hit": false,
      "t": 118337.90144999894,
      "d": 29.310337500006426,
      "v": 36
    },
    {
      "midi": 71,
      "hit": false,
      "t": 118344.79799999895,
      "d": 87.93101250000473,
      "v": 56
    },
    {
      "midi": 68,
      "hit": false,
      "t": 118441.34969999896,
      "d": 93.10342500000843,
      "v": 50
    },
    {
      "midi": 69,
      "hit": false,
      "t": 118560.31518749897,
      "d": 222.41373750001367,
      "v": 44
    },
    {
      "midi": 45,
      "hit": false,
      "t": 118567.21173749898,
      "d": 208.6206375000038,
      "v": 34
    },
    {
      "midi": 73,
      "hit": false,
      "t": 118768.93582499897,
      "d": 184.48271250000107,
      "v": 40
    },
    {
      "midi": 57,
      "hit": false,
      "t": 118793.07374999898,
      "d": 44.82757500000298,
      "v": 18
    },
    {
      "midi": 76,
      "hit": false,
      "t": 118972.38404999897,
      "d": 165.5171999999875,
      "v": 39
    },
    {
      "midi": 61,
      "hit": false,
      "t": 118982.72887499897,
      "d": 15.517237499996554,
      "v": 17
    },
    {
      "midi": 64,
      "hit": false,
      "t": 119184.45296249895,
      "d": 205.17236250000133,
      "v": 34
    },
    {
      "midi": 40,
      "hit": false,
      "t": 119191.34951249896,
      "d": 237.93097499999567,
      "v": 31
    },
    {
      "midi": 74,
      "hit": false,
      "t": 119396.52187499896,
      "d": 117.2413499999966,
      "v": 50
    },
    {
      "midi": 73,
      "hit": false,
      "t": 119477.55633749896,
      "d": 122.41376249998575,
      "v": 58
    },
    {
      "midi": 71,
      "hit": false,
      "t": 119589.62527499895,
      "d": 96.55169999999634,
      "v": 56
    },
    {
      "midi": 74,
      "hit": false,
      "t": 119679.28042499894,
      "d": 129.3103124999907,
      "v": 59
    },
    {
      "midi": 73,
      "hit": false,
      "t": 119789.62522499893,
      "d": 118.96548750001239,
      "v": 55
    },
    {
      "midi": 45,
      "hit": false,
      "t": 119799.97004999893,
      "d": 198.2758125000255,
      "v": 41
    },
    {
      "midi": 69,
      "hit": false,
      "t": 119899.97002499894,
      "d": 89.65515000000596,
      "v": 47
    },
    {
      "midi": 74,
      "hit": false,
      "t": 119998.24586249895,
      "d": 105.17238749998796,
      "v": 59
    },
    {
      "midi": 57,
      "hit": false,
      "t": 120015.48723749895,
      "d": 112.0689374999929,
      "v": 44
    },
    {
      "midi": 71,
      "hit": false,
      "t": 120091.34928749895,
      "d": 120.68962499999907,
      "v": 67
    },
    {
      "midi": 76,
      "hit": false,
      "t": 120212.03891249895,
      "d": 275.8619999999937,
      "v": 59
    },
    {
      "midi": 61,
      "hit": false,
      "t": 120220.65959999895,
      "d": 18.965512499999022,
      "v": 28
    },
    {
      "midi": 64,
      "hit": false,
      "t": 120443.07333749895,
      "d": 179.31029999999737,
      "v": 31
    },
    {
      "midi": 40,
      "hit": false,
      "t": 120456.86643749895,
      "d": 212.0689124999917,
      "v": 36
    },
    {
      "midi": 74,
      "hit": false,
      "t": 120634.45259999894,
      "d": 113.79307499999413,
      "v": 50
    },
    {
      "midi": 73,
      "hit": false,
      "t": 120727.55602499894,
      "d": 117.2413499999966,
      "v": 58
    },
    {
      "midi": 71,
      "hit": false,
      "t": 120834.45254999894,
      "d": 82.75859999998647,
      "v": 47
    },
    {
      "midi": 74,
      "hit": false,
      "t": 120920.65942499893,
      "d": 125.86203750000277,
      "v": 47
    },
    {
      "midi": 45,
      "hit": false,
      "t": 121022.38353749893,
      "d": 208.6206375000038,
      "v": 34
    },
    {
      "midi": 73,
      "hit": false,
      "t": 121027.55594999893,
      "d": 113.79307499999413,
      "v": 58
    },
    {
      "midi": 69,
      "hit": false,
      "t": 121141.34902499893,
      "d": 89.65515000000596,
      "v": 29
    },
    {
      "midi": 74,
      "hit": false,
      "t": 121231.00417499893,
      "d": 105.17238749998796,
      "v": 56
    },
    {
      "midi": 57,
      "hit": false,
      "t": 121253.41796249893,
      "d": 106.8965249999892,
      "v": 34
    },
    {
      "midi": 71,
      "hit": false,
      "t": 121325.83173749893,
      "d": 122.4137625000003,
      "v": 52
    },
    {
      "midi": 61,
      "hit": false,
      "t": 121432.72826249892,
      "d": 15.517237500011106,
      "v": 48
    },
    {
      "midi": 76,
      "hit": false,
      "t": 121441.34894999892,
      "d": 237.93097500001022,
      "v": 59
    },
    {
      "midi": 64,
      "hit": false,
      "t": 121656.86613749893,
      "d": 199.99994999999763,
      "v": 34
    },
    {
      "midi": 40,
      "hit": false,
      "t": 121674.10751249893,
      "d": 229.31028750000405,
      "v": 34
    },
    {
      "midi": 74,
      "hit": false,
      "t": 121849.96953749892,
      "d": 137.9310000000114,
      "v": 50
    },
    {
      "midi": 73,
      "hit": false,
      "t": 121951.69364999894,
      "d": 131.03444999999192,
      "v": 55
    },
    {
      "midi": 71,
      "hit": false,
      "t": 122065.48672499893,
      "d": 110.34480000000622,
      "v": 47
    },
    {
      "midi": 74,
      "hit": false,
      "t": 122168.93497499893,
      "d": 125.86203750000277,
      "v": 47
    },
    {
      "midi": 73,
      "hit": false,
      "t": 122270.65908749893,
      "d": 106.89652500000375,
      "v": 47
    },
    {
      "midi": 45,
      "hit": false,
      "t": 122270.65908749893,
      "d": 375.8619750000362,
      "v": 36
    },
    {
      "midi": 69,
      "hit": false,
      "t": 122386.17629999894,
      "d": 122.41376250001485,
      "v": 59
    },
    {
      "midi": 57,
      "hit": false,
      "t": 122475.83144999895,
      "d": 213.7930500000366,
      "v": 32
    },
    {
      "midi": 73,
      "hit": false,
      "t": 122482.72799999896,
      "d": 115.51721250000992,
      "v": 63
    },
    {
      "midi": 76,
      "hit": false,
      "t": 122572.38314999896,
      "d": 98.27583750001213,
      "v": 70
    },
    {
      "midi": 81,
      "hit": false,
      "t": 122677.55553749898,
      "d": 131.03445000002102,
      "v": 62
    },
    {
      "midi": 49,
      "hit": false,
      "t": 122689.62449999899,
      "d": 229.31028750000405,
      "v": 47
    },
    {
      "midi": 78,
      "hit": false,
      "t": 122781.003787499,
      "d": 125.86203750000277,
      "v": 63
    },
    {
      "midi": 76,
      "hit": false,
      "t": 122879.279624999,
      "d": 103.44824999998673,
      "v": 67
    },
    {
      "midi": 50,
      "hit": false,
      "t": 122893.072724999,
      "d": 208.62063749998924,
      "v": 39
    },
    {
      "midi": 74,
      "hit": false,
      "t": 122986.176149999,
      "d": 129.3103124999907,
      "v": 50
    },
    {
      "midi": 73,
      "hit": false,
      "t": 123087.900262499,
      "d": 131.03444999999192,
      "v": 63
    },
    {
      "midi": 52,
      "hit": false,
      "t": 123105.141637499,
      "d": 127.58617499998945,
      "v": 32
    },
    {
      "midi": 71,
      "hit": false,
      "t": 123199.96919999899,
      "d": 81.03446249999979,
      "v": 52
    },
    {
      "midi": 69,
      "hit": false,
      "t": 123299.96917499899,
      "d": 87.93101250000473,
      "v": 44
    },
    {
      "midi": 40,
      "hit": false,
      "t": 123308.589862499,
      "d": 20.689650000000256,
      "v": 36
    },
    {
      "midi": 68,
      "hit": false,
      "t": 123398.24501249898,
      "d": 84.48273750000226,
      "v": 40
    },
    {
      "midi": 69,
      "hit": false,
      "t": 123517.21049999898,
      "d": 263.7930374999996,
      "v": 13
    },
    {
      "midi": 45,
      "hit": false,
      "t": 123527.55532499898,
      "d": 224.13787500000035,
      "v": 15
    },
    {
      "midi": 73,
      "hit": false,
      "t": 123722.38286249897,
      "d": 186.20685000001686,
      "v": 24
    },
    {
      "midi": 57,
      "hit": false,
      "t": 123756.86561249898,
      "d": 67.24136250000447,
      "v": 7
    },
    {
      "midi": 76,
      "hit": false,
      "t": 123937.90004999899,
      "d": 170.6896124999912,
      "v": 21
    },
    {
      "midi": 61,
      "hit": false,
      "t": 123944.796599999,
      "d": 10.344824999992852,
      "v": 15
    },
    {
      "midi": 64,
      "hit": false,
      "t": 124155.14137499897,
      "d": 212.06891250000626,
      "v": 20
    },
    {
      "midi": 40,
      "hit": false,
      "t": 124172.38274999897,
      "d": 206.89650000000256,
      "v": 19
    },
    {
      "midi": 74,
      "hit": false,
      "t": 124360.31373749897,
      "d": 99.99997499999881,
      "v": 24
    },
    {
      "midi": 73,
      "hit": false,
      "t": 124444.79647499898,
      "d": 110.34479999999166,
      "v": 30
    },
    {
      "midi": 71,
      "hit": false,
      "t": 124556.86541249897,
      "d": 89.65515000000596,
      "v": 26
    },
    {
      "midi": 74,
      "hit": false,
      "t": 124646.52056249898,
      "d": 124.13789999998698,
      "v": 30
    },
    {
      "midi": 73,
      "hit": false,
      "t": 124749.96881249896,
      "d": 115.51721249999537,
      "v": 33
    },
    {
      "midi": 45,
      "hit": false,
      "t": 124749.96881249896,
      "d": 199.99994999999763,
      "v": 21
    },
    {
      "midi": 69,
      "hit": false,
      "t": 124855.14119999897,
      "d": 106.89652500000375,
      "v": 24
    },
    {
      "midi": 74,
      "hit": false,
      "t": 124955.14117499896,
      "d": 96.55169999999634,
      "v": 33
    },
    {
      "midi": 57,
      "hit": false,
      "t": 124977.55496249897,
      "d": 96.55169999999634,
      "v": 15
    },
    {
      "midi": 71,
      "hit": false,
      "t": 125041.34804999897,
      "d": 110.34479999999166,
      "v": 33
    },
    {
      "midi": 76,
      "hit": false,
      "t": 125156.86526249896,
      "d": 229.31028750000405,
      "v": 35
    },
    {
      "midi": 61,
      "hit": false,
      "t": 125163.76181249897,
      "d": 15.517237499996554,
      "v": 26
    },
    {
      "midi": 64,
      "hit": false,
      "t": 125372.38244999897,
      "d": 206.896499999988,
      "v": 19
    },
    {
      "midi": 40,
      "hit": false,
      "t": 125393.07209999897,
      "d": 249.99993749998976,
      "v": 19
    },
    {
      "midi": 74,
      "hit": false,
      "t": 125572.38239999895,
      "d": 124.13790000001609,
      "v": 31
    },
    {
      "midi": 73,
      "hit": false,
      "t": 125667.20996249896,
      "d": 117.24135000001115,
      "v": 34
    },
    {
      "midi": 71,
      "hit": false,
      "t": 125775.83062499897,
      "d": 105.17238750001707,
      "v": 30
    },
    {
      "midi": 74,
      "hit": false,
      "t": 125872.38232499898,
      "d": 131.03445000000647,
      "v": 30
    },
    {
      "midi": 73,
      "hit": false,
      "t": 125972.382299999,
      "d": 124.13790000000154,
      "v": 26
    },
    {
      "midi": 45,
      "hit": false,
      "t": 125972.382299999,
      "d": 224.1378749999858,
      "v": 23
    },
    {
      "midi": 69,
      "hit": false,
      "t": 126086.175374999,
      "d": 87.93101249997562,
      "v": 28
    },
    {
      "midi": 74,
      "hit": false,
      "t": 126177.55466249898,
      "d": 110.34479999999166,
      "v": 35
    },
    {
      "midi": 57,
      "hit": false,
      "t": 126218.93396249898,
      "d": 168.96547500000452,
      "v": 20
    },
    {
      "midi": 71,
      "hit": false,
      "t": 126272.38222499898,
      "d": 115.51721250000992,
      "v": 37
    },
    {
      "midi": 76,
      "hit": false,
      "t": 126379.27874999898,
      "d": 231.03442500001984,
      "v": 37
    },
    {
      "midi": 61,
      "hit": false,
      "t": 126396.52012499899,
      "d": 13.79309999999532,
      "v": 23
    },
    {
      "midi": 64,
      "hit": false,
      "t": 126603.416624999,
      "d": 212.06891250000626,
      "v": 19
    },
    {
      "midi": 40,
      "hit": false,
      "t": 126620.65799999899,
      "d": 234.48270000000775,
      "v": 21
    },
    {
      "midi": 74,
      "hit": false,
      "t": 126815.485537499,
      "d": 134.48272500000894,
      "v": 26
    },
    {
      "midi": 73,
      "hit": false,
      "t": 126920.657924999,
      "d": 118.96548749999783,
      "v": 33
    },
    {
      "midi": 71,
      "hit": false,
      "t": 127029.27858749901,
      "d": 112.0689374999929,
      "v": 28
    },
    {
      "midi": 74,
      "hit": false,
      "t": 127129.278562499,
      "d": 131.03444999999192,
      "v": 28
    },
    {
      "midi": 45,
      "hit": false,
      "t": 127236.175087499,
      "d": 403.4481750000268,
      "v": 19
    },
    {
      "midi": 73,
      "hit": false,
      "t": 127241.347499999,
      "d": 103.44825000000128,
      "v": 33
    },
    {
      "midi": 69,
      "hit": false,
      "t": 127362.037124999,
      "d": 125.86203750000277,
      "v": 33
    },
    {
      "midi": 57,
      "hit": false,
      "t": 127446.519862499,
      "d": 205.17236250003043,
      "v": 21
    },
    {
      "midi": 73,
      "hit": false,
      "t": 127462.037099999,
      "d": 115.51721250000992,
      "v": 37
    },
    {
      "midi": 76,
      "hit": false,
      "t": 127549.968112499,
      "d": 86.20687500001804,
      "v": 40
    },
    {
      "midi": 81,
      "hit": false,
      "t": 127644.79567499903,
      "d": 134.48272500000894,
      "v": 35
    },
    {
      "midi": 49,
      "hit": false,
      "t": 127653.41636249903,
      "d": 231.03442499999073,
      "v": 28
    },
    {
      "midi": 78,
      "hit": false,
      "t": 127749.96806249903,
      "d": 122.4137625000003,
      "v": 37
    },
    {
      "midi": 76,
      "hit": false,
      "t": 127848.24389999904,
      "d": 99.99997499998426,
      "v": 37
    },
    {
      "midi": 50,
      "hit": false,
      "t": 127858.58872499903,
      "d": 208.6206375000038,
      "v": 23
    },
    {
      "midi": 74,
      "hit": false,
      "t": 127956.86456249903,
      "d": 131.03445000000647,
      "v": 30
    },
    {
      "midi": 73,
      "hit": false,
      "t": 128060.31281249903,
      "d": 108.62066250000498,
      "v": 33
    },
    {
      "midi": 52,
      "hit": false,
      "t": 128072.38177499904,
      "d": 125.86203750000277,
      "v": 19
    },
    {
      "midi": 71,
      "hit": false,
      "t": 128162.03692499903,
      "d": 77.58618750001187,
      "v": 33
    },
    {
      "midi": 69,
      "hit": false,
      "t": 128258.58862499904,
      "d": 94.82756249999511,
      "v": 28
    },
    {
      "midi": 40,
      "hit": false,
      "t": 128268.93344999904,
      "d": 193.10340000000724,
      "v": 21
    },
    {
      "midi": 68,
      "hit": false,
      "t": 128362.03687499904,
      "d": 106.89652500000375,
      "v": 28
    },
    {
      "midi": 69,
      "hit": false,
      "t": 128479.27822499906,
      "d": 22.41378750000149,
      "v": 37
    },
    {
      "midi": 45,
      "hit": false,
      "t": 128494.79546249905,
      "d": 6.896550000004936,
      "v": 21
    },
    {
      "midi": 69,
      "hit": false,
      "t": 128694.79541249905,
      "d": 46.551712500004214,
      "v": 44
    },
    {
      "midi": 72,
      "hit": false,
      "t": 128701.69196249906,
      "d": 439.65506250002363,
      "v": 52
    },
    {
      "midi": 84,
      "hit": false,
      "t": 128701.69196249906,
      "d": 453.44816250001895,
      "v": 62
    },
    {
      "midi": 67,
      "hit": false,
      "t": 128899.96777499905,
      "d": 206.8965000000171,
      "v": 50
    },
    {
      "midi": 65,
      "hit": false,
      "t": 129112.03668749907,
      "d": 181.03443749998405,
      "v": 59
    },
    {
      "midi": 84,
      "hit": false,
      "t": 129306.86422499905,
      "d": 417.2412750000076,
      "v": 70
    },
    {
      "midi": 72,
      "hit": false,
      "t": 129308.58836249905,
      "d": 398.27576250000857,
      "v": 52
    },
    {
      "midi": 69,
      "hit": false,
      "t": 129317.20904999906,
      "d": 406.8964500000002,
      "v": 52
    },
    {
      "midi": 64,
      "hit": false,
      "t": 129513.76072499905,
      "d": 210.34477500000503,
      "v": 47
    },
    {
      "midi": 62,
      "hit": false,
      "t": 129736.17446249905,
      "d": 432.7585124999896,
      "v": 56
    },
    {
      "midi": 86,
      "hit": false,
      "t": 129936.17441249904,
      "d": 22.41378750000149,
      "v": 59
    },
    {
      "midi": 74,
      "hit": false,
      "t": 129943.07096249904,
      "d": 22.41378750000149,
      "v": 47
    },
    {
      "midi": 83,
      "hit": false,
      "t": 130141.34677499904,
      "d": 36.20688750001136,
      "v": 62
    },
    {
      "midi": 71,
      "hit": false,
      "t": 130149.96746249904,
      "d": 24.137925000002724,
      "v": 29
    },
    {
      "midi": 65,
      "hit": false,
      "t": 130162.03642499904,
      "d": 153.44823750000796,
      "v": 50
    },
    {
      "midi": 81,
      "hit": false,
      "t": 130343.07086249904,
      "d": 55.172400000010384,
      "v": 62
    },
    {
      "midi": 69,
      "hit": false,
      "t": 130355.13982499905,
      "d": 32.75861249999434,
      "v": 56
    },
    {
      "midi": 64,
      "hit": false,
      "t": 130355.13982499905,
      "d": 441.37919999999576,
      "v": 55
    },
    {
      "midi": 81,
      "hit": false,
      "t": 130555.13977499904,
      "d": 49.99998749999213,
      "v": 59
    },
    {
      "midi": 69,
      "hit": false,
      "t": 130562.03632499905,
      "d": 32.75861249999434,
      "v": 44
    },
    {
      "midi": 80,
      "hit": false,
      "t": 130768.93282499904,
      "d": 37.931025000012596,
      "v": 58
    },
    {
      "midi": 68,
      "hit": false,
      "t": 130775.82937499904,
      "d": 25.862062500003958,
      "v": 44
    },
    {
      "midi": 52,
      "hit": false,
      "t": 130777.55351249904,
      "d": 29.310337500006426,
      "v": 47
    },
    {
      "midi": 69,
      "hit": false,
      "t": 130967.20863749903,
      "d": 24.137925000002724,
      "v": 39
    },
    {
      "midi": 81,
      "hit": false,
      "t": 130974.10518749904,
      "d": 34.482749999995576,
      "v": 39
    },
    {
      "midi": 57,
      "hit": false,
      "t": 130986.17414999903,
      "d": 194.82753749999392,
      "v": 37
    },
    {
      "midi": 85,
      "hit": false,
      "t": 131189.62237499902,
      "d": 444.8274749999691,
      "v": 42
    },
    {
      "midi": 73,
      "hit": false,
      "t": 131194.794787499,
      "d": 431.03437499998836,
      "v": 34
    },
    {
      "midi": 69,
      "hit": false,
      "t": 131203.415474999,
      "d": 193.1033999999927,
      "v": 31
    },
    {
      "midi": 68,
      "hit": false,
      "t": 131389.62232499899,
      "d": 210.34477500000503,
      "v": 29
    },
    {
      "midi": 66,
      "hit": false,
      "t": 131608.58778749898,
      "d": 184.48271250000107,
      "v": 37
    },
    {
      "midi": 85,
      "hit": false,
      "t": 131784.449812499,
      "d": 386.2067999999854,
      "v": 45
    },
    {
      "midi": 73,
      "hit": false,
      "t": 131793.07049999898,
      "d": 363.7930124999839,
      "v": 34
    },
    {
      "midi": 69,
      "hit": false,
      "t": 131801.69118749897,
      "d": 384.4826624999987,
      "v": 31
    },
    {
      "midi": 64,
      "hit": false,
      "t": 131975.82907499897,
      "d": 213.7930500000075,
      "v": 28
    },
    {
      "midi": 62,
      "hit": false,
      "t": 132189.62212499898,
      "d": 434.4826499999908,
      "v": 37
    },
    {
      "midi": 86,
      "hit": false,
      "t": 132382.72552499897,
      "d": 29.310337500006426,
      "v": 39
    },
    {
      "midi": 74,
      "hit": false,
      "t": 132393.07034999898,
      "d": 22.41378750000149,
      "v": 26
    },
    {
      "midi": 83,
      "hit": false,
      "t": 132584.44961249898,
      "d": 39.655162499984726,
      "v": 39
    },
    {
      "midi": 71,
      "hit": false,
      "t": 132596.51857499898,
      "d": 24.137924999988172,
      "v": 17
    },
    {
      "midi": 66,
      "hit": false,
      "t": 132596.51857499898,
      "d": 143.10341250000056,
      "v": 27
    },
    {
      "midi": 81,
      "hit": false,
      "t": 132787.89783749898,
      "d": 74.1379125000094,
      "v": 41
    },
    {
      "midi": 69,
      "hit": false,
      "t": 132794.794387499,
      "d": 46.551712500018766,
      "v": 39
    },
    {
      "midi": 64,
      "hit": false,
      "t": 132794.794387499,
      "d": 422.41368749999674,
      "v": 39
    },
    {
      "midi": 69,
      "hit": false,
      "t": 133005.139162499,
      "d": 37.931024999998044,
      "v": 29
    },
    {
      "midi": 81,
      "hit": false,
      "t": 133005.139162499,
      "d": 46.55171249998966,
      "v": 37
    },
    {
      "midi": 68,
      "hit": false,
      "t": 133222.38048749897,
      "d": 36.20688749998226,
      "v": 27
    },
    {
      "midi": 80,
      "hit": false,
      "t": 133222.38048749897,
      "d": 36.20688749998226,
      "v": 31
    },
    {
      "midi": 52,
      "hit": false,
      "t": 133234.44944999897,
      "d": 15.517237499996554,
      "v": 31
    },
    {
      "midi": 81,
      "hit": false,
      "t": 133448.24249999897,
      "d": 39.655162499984726,
      "v": 59
    },
    {
      "midi": 69,
      "hit": false,
      "t": 133455.13904999898,
      "d": 27.58619999999064,
      "v": 34
    },
    {
      "midi": 45,
      "hit": false,
      "t": 133470.65628749898,
      "d": 406.8964500000002,
      "v": 41
    },
    {
      "midi": 64,
      "hit": false,
      "t": 133663.75968749897,
      "d": 39.65516250001383,
      "v": 44
    },
    {
      "midi": 76,
      "hit": false,
      "t": 133670.65623749897,
      "d": 24.137925000017276,
      "v": 50
    },
    {
      "midi": 57,
      "hit": false,
      "t": 133677.55278749898,
      "d": 199.99994999999763,
      "v": 21
    },
    {
      "midi": 61,
      "hit": false,
      "t": 133867.20791249897,
      "d": 17.24137500001234,
      "v": 44
    },
    {
      "midi": 73,
      "hit": false,
      "t": 133867.20791249897,
      "d": 27.586200000019744,
      "v": 58
    },
    {
      "midi": 49,
      "hit": false,
      "t": 133877.55273749898,
      "d": 13.793100000009872,
      "v": 35
    },
    {
      "midi": 78,
      "hit": false,
      "t": 134060.311312499,
      "d": 44.827574999973876,
      "v": 63
    },
    {
      "midi": 66,
      "hit": false,
      "t": 134068.93199999898,
      "d": 31.034474999993108,
      "v": 50
    },
    {
      "midi": 50,
      "hit": false,
      "t": 134068.93199999898,
      "d": 60.34481249997043,
      "v": 50
    },
    {
      "midi": 57,
      "hit": false,
      "t": 134077.55268749897,
      "d": 439.6550625000091,
      "v": 44
    },
    {
      "midi": 62,
      "hit": false,
      "t": 134265.48367499895,
      "d": 22.41378750000149,
      "v": 56
    },
    {
      "midi": 74,
      "hit": false,
      "t": 134265.48367499895,
      "d": 41.37930000000051,
      "v": 67
    },
    {
      "midi": 47,
      "hit": false,
      "t": 134282.72504999896,
      "d": 187.93098750000354,
      "v": 56
    },
    {
      "midi": 68,
      "hit": false,
      "t": 134456.86293749895,
      "d": 27.586200000019744,
      "v": 68
    },
    {
      "midi": 80,
      "hit": false,
      "t": 134456.86293749895,
      "d": 34.48275000002468,
      "v": 74
    },
    {
      "midi": 52,
      "hit": false,
      "t": 134474.10431249897,
      "d": 122.41376250001485,
      "v": 59
    },
    {
      "midi": 81,
      "hit": false,
      "t": 134663.759437499,
      "d": 44.82757500000298,
      "v": 70
    },
    {
      "midi": 69,
      "hit": false,
      "t": 134670.655987499,
      "d": 37.931024999998044,
      "v": 56
    },
    {
      "midi": 49,
      "hit": false,
      "t": 134670.655987499,
      "d": 239.65511250001146,
      "v": 50
    },
    {
      "midi": 57,
      "hit": false,
      "t": 134670.655987499,
      "d": 401.72403749998193,
      "v": 41
    },
    {
      "midi": 76,
      "hit": false,
      "t": 134893.069724999,
      "d": 39.655162499984726,
      "v": 59
    },
    {
      "midi": 64,
      "hit": false,
      "t": 134899.966274999,
      "d": 32.75861249997979,
      "v": 49
    },
    {
      "midi": 45,
      "hit": false,
      "t": 134912.035237499,
      "d": 191.3792624999769,
      "v": 44
    },
    {
      "midi": 61,
      "hit": false,
      "t": 135084.44898749897,
      "d": 20.689649999985704,
      "v": 54
    },
    {
      "midi": 73,
      "hit": false,
      "t": 135084.44898749897,
      "d": 31.034474999993108,
      "v": 68
    },
    {
      "midi": 78,
      "hit": false,
      "t": 135296.51789999896,
      "d": 32.758612500008894,
      "v": 58
    },
    {
      "midi": 66,
      "hit": false,
      "t": 135303.41444999896,
      "d": 20.689650000014808,
      "v": 35
    },
    {
      "midi": 50,
      "hit": false,
      "t": 135303.41444999896,
      "d": 191.379262500006,
      "v": 44
    },
    {
      "midi": 57,
      "hit": false,
      "t": 135303.41444999896,
      "d": 229.31028750000405,
      "v": 39
    },
    {
      "midi": 62,
      "hit": false,
      "t": 135481.00061249896,
      "d": 22.41378750000149,
      "v": 59
    },
    {
      "midi": 74,
      "hit": false,
      "t": 135487.89716249896,
      "d": 32.758612500008894,
      "v": 67
    },
    {
      "midi": 47,
      "hit": false,
      "t": 135503.41439999896,
      "d": 218.96546249999665,
      "v": 50
    },
    {
      "midi": 68,
      "hit": false,
      "t": 135684.44883749896,
      "d": 25.862062500003958,
      "v": 63
    },
    {
      "midi": 80,
      "hit": false,
      "t": 135684.44883749896,
      "d": 37.931024999998044,
      "v": 74
    },
    {
      "midi": 52,
      "hit": false,
      "t": 135693.06952499895,
      "d": 120.68962499999907,
      "v": 52
    },
    {
      "midi": 81,
      "hit": false,
      "t": 135891.34533749896,
      "d": 49.99998749999213,
      "v": 70
    },
    {
      "midi": 49,
      "hit": false,
      "t": 135891.34533749896,
      "d": 236.20683749997988,
      "v": 50
    },
    {
      "midi": 69,
      "hit": false,
      "t": 135899.96602499895,
      "d": 37.931024999998044,
      "v": 59
    },
    {
      "midi": 57,
      "hit": false,
      "t": 135906.86257499896,
      "d": 75.86204999999609,
      "v": 34
    },
    {
      "midi": 64,
      "hit": false,
      "t": 136108.58666249894,
      "d": 34.482749999995576,
      "v": 55
    },
    {
      "midi": 76,
      "hit": false,
      "t": 136108.58666249894,
      "d": 34.482749999995576,
      "v": 67
    },
    {
      "midi": 45,
      "hit": false,
      "t": 136118.93148749895,
      "d": 196.55167499999516,
      "v": 39
    },
    {
      "midi": 61,
      "hit": false,
      "t": 136299.96592499895,
      "d": 20.689649999985704,
      "v": 54
    },
    {
      "midi": 73,
      "hit": false,
      "t": 136305.13833749894,
      "d": 29.310337500006426,
      "v": 63
    },
    {
      "midi": 57,
      "hit": false,
      "t": 136506.86242499895,
      "d": 422.41368749996764,
      "v": 41
    },
    {
      "midi": 50,
      "hit": false,
      "t": 136512.03483749894,
      "d": 220.68959999998333,
      "v": 44
    },
    {
      "midi": 66,
      "hit": false,
      "t": 136513.75897499893,
      "d": 24.137924999988172,
      "v": 44
    },
    {
      "midi": 78,
      "hit": false,
      "t": 136513.75897499893,
      "d": 34.482749999995576,
      "v": 50
    },
    {
      "midi": 62,
      "hit": false,
      "t": 136715.4830624989,
      "d": 24.137925000017276,
      "v": 52
    },
    {
      "midi": 74,
      "hit": false,
      "t": 136715.4830624989,
      "d": 43.1034375000163,
      "v": 62
    },
    {
      "midi": 47,
      "hit": false,
      "t": 136744.79339999892,
      "d": 203.4482250000001,
      "v": 52
    },
    {
      "midi": 80,
      "hit": false,
      "t": 136929.27611249892,
      "d": 43.103437499987194,
      "v": 68
    },
    {
      "midi": 68,
      "hit": false,
      "t": 136936.17266249892,
      "d": 12.068962499994086,
      "v": 47
    },
    {
      "midi": 52,
      "hit": false,
      "t": 136936.17266249892,
      "d": 24.137924999988172,
      "v": 50
    },
    {
      "midi": 81,
      "hit": false,
      "t": 137146.5174374989,
      "d": 208.62063750001835,
      "v": 70
    },
    {
      "midi": 69,
      "hit": false,
      "t": 137153.4139874989,
      "d": 224.1378750000149,
      "v": 52
    },
    {
      "midi": 49,
      "hit": false,
      "t": 137158.5863999989,
      "d": 239.65511250001146,
      "v": 63
    },
    {
      "midi": 57,
      "hit": false,
      "t": 137158.5863999989,
      "d": 515.5171125000052,
      "v": 52
    },
    {
      "midi": 73,
      "hit": false,
      "t": 137362.03462499892,
      "d": 20.689649999985704,
      "v": 47
    },
    {
      "midi": 76,
      "hit": false,
      "t": 137370.65531249892,
      "d": 17.241374999983236,
      "v": 21
    },
    {
      "midi": 50,
      "hit": false,
      "t": 137387.8966874989,
      "d": 410.34472499997355,
      "v": 62
    },
    {
      "midi": 74,
      "hit": false,
      "t": 137572.3793999989,
      "d": 163.79306249998626,
      "v": 67
    },
    {
      "midi": 66,
      "hit": false,
      "t": 137579.2759499989,
      "d": 31.034474999993108,
      "v": 55
    },
    {
      "midi": 73,
      "hit": false,
      "t": 137781.0000374989,
      "d": 87.93101249999017,
      "v": 68
    },
    {
      "midi": 64,
      "hit": false,
      "t": 137786.17244999888,
      "d": 55.172400000010384,
      "v": 60
    },
    {
      "midi": 52,
      "hit": false,
      "t": 137793.06899999888,
      "d": 493.1033250000037,
      "v": 67
    },
    {
      "midi": 73,
      "hit": false,
      "t": 137986.17239999888,
      "d": 79.31032499999856,
      "v": 58
    },
    {
      "midi": 69,
      "hit": false,
      "t": 137991.34481249886,
      "d": 74.1379125000094,
      "v": 47
    },
    {
      "midi": 64,
      "hit": false,
      "t": 137998.24136249887,
      "d": 99.99997500001336,
      "v": 34
    },
    {
      "midi": 71,
      "hit": false,
      "t": 138217.2068249989,
      "d": 139.6551374999981,
      "v": 67
    },
    {
      "midi": 62,
      "hit": false,
      "t": 138227.5516499989,
      "d": 37.931024999998044,
      "v": 50
    },
    {
      "midi": 40,
      "hit": false,
      "t": 138227.5516499989,
      "d": 201.7240874999843,
      "v": 56
    },
    {
      "midi": 61,
      "hit": false,
      "t": 138420.6550499989,
      "d": 74.1379124999803,
      "v": 54
    },
    {
      "midi": 69,
      "hit": false,
      "t": 138420.6550499989,
      "d": 124.13790000000154,
      "v": 62
    },
    {
      "midi": 45,
      "hit": false,
      "t": 138429.2757374989,
      "d": 396.5516250000219,
      "v": 67
    },
    {
      "midi": 61,
      "hit": false,
      "t": 138641.3446499989,
      "d": 29.310337500006426,
      "v": 39
    },
    {
      "midi": 69,
      "hit": false,
      "t": 138648.2411999989,
      "d": 93.10342500000843,
      "v": 39
    },
    {
      "midi": 71,
      "hit": false,
      "t": 138830.9997749989,
      "d": 106.8965250000183,
      "v": 52
    },
    {
      "midi": 64,
      "hit": false,
      "t": 138841.3445999989,
      "d": 182.7585750000144,
      "v": 47
    },
    {
      "midi": 61,
      "hit": false,
      "t": 139027.55144999892,
      "d": 51.724125000007916,
      "v": 48
    },
    {
      "midi": 69,
      "hit": false,
      "t": 139027.55144999892,
      "d": 89.65514999997686,
      "v": 56
    },
    {
      "midi": 45,
      "hit": false,
      "t": 139043.06868749892,
      "d": 391.3792124999454,
      "v": 50
    },
    {
      "midi": 61,
      "hit": false,
      "t": 139246.5169124989,
      "d": 31.034474999993108,
      "v": 44
    },
    {
      "midi": 69,
      "hit": false,
      "t": 139253.4134624989,
      "d": 96.55169999998179,
      "v": 47
    },
    {
      "midi": 71,
      "hit": false,
      "t": 139434.44789999886,
      "d": 117.2413499999966,
      "v": 52
    },
    {
      "midi": 64,
      "hit": false,
      "t": 139446.51686249886,
      "d": 179.31030000001192,
      "v": 44
    },
    {
      "midi": 45,
      "hit": false,
      "t": 139643.06853749888,
      "d": 537.9308999999485,
      "v": 39
    },
    {
      "midi": 61,
      "hit": false,
      "t": 139648.24094999887,
      "d": 24.137924999988172,
      "v": 42
    },
    {
      "midi": 69,
      "hit": false,
      "t": 139648.24094999887,
      "d": 79.31032499996945,
      "v": 56
    },
    {
      "midi": 71,
      "hit": false,
      "t": 139755.13747499883,
      "d": 103.44825000001583,
      "v": 47
    },
    {
      "midi": 64,
      "hit": false,
      "t": 139768.93057499884,
      "d": 108.62066250000498,
      "v": 34
    },
    {
      "midi": 69,
      "hit": false,
      "t": 139870.65468749884,
      "d": 89.65515000000596,
      "v": 56
    },
    {
      "midi": 61,
      "hit": false,
      "t": 139877.55123749885,
      "d": 27.58619999999064,
      "v": 44
    },
    {
      "midi": 71,
      "hit": false,
      "t": 139984.44776249884,
      "d": 103.44825000001583,
      "v": 50
    },
    {
      "midi": 64,
      "hit": false,
      "t": 139994.79258749884,
      "d": 101.72411250000005,
      "v": 49
    },
    {
      "midi": 69,
      "hit": false,
      "t": 140096.51669999884,
      "d": 87.93101249999017,
      "v": 56
    },
    {
      "midi": 61,
      "hit": false,
      "t": 140103.41324999885,
      "d": 34.482749999995576,
      "v": 42
    },
    {
      "midi": 71,
      "hit": false,
      "t": 140184.44771249883,
      "d": 98.27583749999758,
      "v": 52
    },
    {
      "midi": 64,
      "hit": false,
      "t": 140210.30977499884,
      "d": 87.93101249999017,
      "v": 42
    },
    {
      "midi": 69,
      "hit": false,
      "t": 140298.24078749883,
      "d": 15.517237499996554,
      "v": 52
    },
    {
      "midi": 61,
      "hit": false,
      "t": 140303.41319999882,
      "d": 196.55167500002426,
      "v": 44
    },
    {
      "midi": 45,
      "hit": false,
      "t": 140318.9304374988,
      "d": 189.65512500001932,
      "v": 34
    },
    {
      "midi": 71,
      "hit": false,
      "t": 140327.5511249988,
      "d": 37.931024999998044,
      "v": 39
    },
    {
      "midi": 69,
      "hit": false,
      "t": 140379.2752499988,
      "d": 37.931024999998044,
      "v": 31
    },
    {
      "midi": 71,
      "hit": false,
      "t": 140430.99937499882,
      "d": 37.931024999998044,
      "v": 39
    },
    {
      "midi": 69,
      "hit": false,
      "t": 140482.72349999883,
      "d": 34.482749999995576,
      "v": 31
    },
    {
      "midi": 71,
      "hit": false,
      "t": 140534.44762499884,
      "d": 37.931024999998044,
      "v": 31
    },
    {
      "midi": 69,
      "hit": false,
      "t": 140586.17174999884,
      "d": 37.931024999998044,
      "v": 26
    },
    {
      "midi": 71,
      "hit": false,
      "t": 140637.89587499885,
      "d": 37.931024999998044,
      "v": 32
    },
    {
      "midi": 69,
      "hit": false,
      "t": 140689.61999999886,
      "d": 37.931024999998044,
      "v": 16
    },
    {
      "midi": 71,
      "hit": false,
      "t": 140741.34412499887,
      "d": 37.931024999998044,
      "v": 31
    },
    {
      "midi": 69,
      "hit": false,
      "t": 140793.06824999888,
      "d": 37.931024999998044,
      "v": 25
    },
    {
      "midi": 71,
      "hit": false,
      "t": 140844.79237499888,
      "d": 62.068949999986216,
      "v": 10
    },
    {
      "midi": 45,
      "hit": false,
      "t": 141517.20599999887,
      "d": 155.17237499999464,
      "v": 22
    },
    {
      "midi": 69,
      "hit": false,
      "t": 141724.10249999887,
      "d": 155.17237499999464,
      "v": 28
    },
    {
      "midi": 73,
      "hit": false,
      "t": 141724.10249999887,
      "d": 155.17237499999464,
      "v": 25
    },
    {
      "midi": 71,
      "hit": false,
      "t": 141930.99899999888,
      "d": 155.17237499999464,
      "v": 28
    },
    {
      "midi": 74,
      "hit": false,
      "t": 141930.99899999888,
      "d": 155.17237499999464,
      "v": 32
    },
    {
      "midi": 69,
      "hit": false,
      "t": 142134.44722499888,
      "d": 224.1378750000149,
      "v": 25
    },
    {
      "midi": 73,
      "hit": false,
      "t": 142137.89549999888,
      "d": 155.17237499999464,
      "v": 28
    },
    {
      "midi": 76,
      "hit": false,
      "t": 142137.89549999888,
      "d": 155.17237499999464,
      "v": 32
    },
    {
      "midi": 73,
      "hit": false,
      "t": 142344.79199999888,
      "d": 155.17237500002375,
      "v": 32
    },
    {
      "midi": 76,
      "hit": false,
      "t": 142344.79199999888,
      "d": 155.17237500002375,
      "v": 32
    },
    {
      "midi": 67,
      "hit": false,
      "t": 142358.5850999989,
      "d": 206.89650000003166,
      "v": 25
    },
    {
      "midi": 74,
      "hit": false,
      "t": 142551.6884999989,
      "d": 155.17237500002375,
      "v": 24
    },
    {
      "midi": 78,
      "hit": false,
      "t": 142551.6884999989,
      "d": 155.17237500002375,
      "v": 29
    },
    {
      "midi": 66,
      "hit": false,
      "t": 142565.48159999892,
      "d": 189.65512500001932,
      "v": 28
    },
    {
      "midi": 64,
      "hit": false,
      "t": 142755.13672499894,
      "d": 606.8963999999978,
      "v": 32
    },
    {
      "midi": 76,
      "hit": false,
      "t": 142758.58499999894,
      "d": 155.17237499999464,
      "v": 35
    },
    {
      "midi": 79,
      "hit": false,
      "t": 142758.58499999894,
      "d": 155.17237499999464,
      "v": 32
    },
    {
      "midi": 71,
      "hit": false,
      "t": 142965.48149999895,
      "d": 155.17237499999464,
      "v": 16
    },
    {
      "midi": 74,
      "hit": false,
      "t": 142965.48149999895,
      "d": 155.17237499999464,
      "v": 28
    },
    {
      "midi": 73,
      "hit": false,
      "t": 143172.37799999895,
      "d": 155.17237499999464,
      "v": 29
    },
    {
      "midi": 76,
      "hit": false,
      "t": 143172.37799999895,
      "d": 155.17237499999464,
      "v": 32
    },
    {
      "midi": 71,
      "hit": false,
      "t": 143365.48139999894,
      "d": 244.8275250000006,
      "v": 29
    },
    {
      "midi": 74,
      "hit": false,
      "t": 143379.27449999895,
      "d": 155.17237499999464,
      "v": 25
    },
    {
      "midi": 78,
      "hit": false,
      "t": 143379.27449999895,
      "d": 155.17237499999464,
      "v": 35
    },
    {
      "midi": 74,
      "hit": false,
      "t": 143586.17099999895,
      "d": 155.17237499999464,
      "v": 25
    },
    {
      "midi": 78,
      "hit": false,
      "t": 143586.17099999895,
      "d": 155.17237499999464,
      "v": 29
    },
    {
      "midi": 69,
      "hit": false,
      "t": 143591.34341249894,
      "d": 218.96546250002575,
      "v": 25
    },
    {
      "midi": 76,
      "hit": false,
      "t": 143793.06749999896,
      "d": 155.17237500002375,
      "v": 19
    },
    {
      "midi": 79,
      "hit": false,
      "t": 143793.06749999896,
      "d": 155.17237500002375,
      "v": 29
    },
    {
      "midi": 67,
      "hit": false,
      "t": 143796.51577499896,
      "d": 193.1034000000218,
      "v": 29
    },
    {
      "midi": 81,
      "hit": false,
      "t": 143999.963999999,
      "d": 737.9308499999752,
      "v": 32
    },
    {
      "midi": 66,
      "hit": false,
      "t": 144010.308824999,
      "d": 241.37924999999814,
      "v": 22
    },
    {
      "midi": 69,
      "hit": false,
      "t": 144017.205374999,
      "d": 181.0344374999986,
      "v": 24
    },
    {
      "midi": 71,
      "hit": false,
      "t": 144205.136362499,
      "d": 41.37930000000051,
      "v": 28
    },
    {
      "midi": 72,
      "hit": false,
      "t": 144406.860449999,
      "d": 31.034474999993108,
      "v": 29
    },
    {
      "midi": 64,
      "hit": false,
      "t": 144413.756999999,
      "d": 36.20688749998226,
      "v": 26
    },
    {
      "midi": 63,
      "hit": false,
      "t": 144606.860399999,
      "d": 182.75857499998529,
      "v": 35
    },
    {
      "midi": 71,
      "hit": false,
      "t": 144620.65349999897,
      "d": 237.93097499999567,
      "v": 23
    },
    {
      "midi": 83,
      "hit": false,
      "t": 144620.65349999897,
      "d": 465.51712500001304,
      "v": 44
    },
    {
      "midi": 64,
      "hit": false,
      "t": 144825.82586249898,
      "d": 205.17236249998678,
      "v": 21
    },
    {
      "midi": 79,
      "hit": false,
      "t": 144827.54999999897,
      "d": 155.17237499999464,
      "v": 25
    },
    {
      "midi": 63,
      "hit": false,
      "t": 145030.99822499897,
      "d": 193.1033999999927,
      "v": 29
    },
    {
      "midi": 78,
      "hit": false,
      "t": 145034.44649999897,
      "d": 155.17237499999464,
      "v": 28
    },
    {
      "midi": 64,
      "hit": false,
      "t": 145224.10162499896,
      "d": 232.75856249997742,
      "v": 32
    },
    {
      "midi": 79,
      "hit": false,
      "t": 145241.34299999897,
      "d": 155.17237499999464,
      "v": 29
    },
    {
      "midi": 66,
      "hit": false,
      "t": 145443.06708749896,
      "d": 196.55167499999516,
      "v": 29
    },
    {
      "midi": 81,
      "hit": false,
      "t": 145448.23949999895,
      "d": 155.17237499999464,
      "v": 32
    },
    {
      "midi": 67,
      "hit": false,
      "t": 145655.13599999895,
      "d": 194.82753750000848,
      "v": 32
    },
    {
      "midi": 83,
      "hit": false,
      "t": 145655.13599999895,
      "d": 317.2412999999942,
      "v": 32
    },
    {
      "midi": 84,
      "hit": false,
      "t": 145862.03249999895,
      "d": 155.17237499999464,
      "v": 32
    },
    {
      "midi": 57,
      "hit": false,
      "t": 145870.65318749895,
      "d": 337.93095000000903,
      "v": 29
    },
    {
      "midi": 81,
      "hit": false,
      "t": 146068.92899999896,
      "d": 155.17237499999464,
      "v": 32
    },
    {
      "midi": 84,
      "hit": false,
      "t": 146068.92899999896,
      "d": 155.17237499999464,
      "v": 35
    },
    {
      "midi": 83,
      "hit": false,
      "t": 146275.82549999896,
      "d": 155.17237499999464,
      "v": 24
    },
    {
      "midi": 79,
      "hit": false,
      "t": 146275.82549999896,
      "d": 317.2412999999942,
      "v": 19
    },
    {
      "midi": 81,
      "hit": false,
      "t": 146482.72199999896,
      "d": 155.17237499999464,
      "v": 35
    },
    {
      "midi": 69,
      "hit": false,
      "t": 146491.34268749895,
      "d": 598.2757125000062,
      "v": 32
    },
    {
      "midi": 78,
      "hit": false,
      "t": 146689.61849999896,
      "d": 155.17237499999464,
      "v": 29
    },
    {
      "midi": 81,
      "hit": false,
      "t": 146689.61849999896,
      "d": 155.17237499999464,
      "v": 29
    },
    {
      "midi": 79,
      "hit": false,
      "t": 146896.51499999897,
      "d": 155.17237499999464,
      "v": 24
    },
    {
      "midi": 76,
      "hit": false,
      "t": 146896.51499999897,
      "d": 337.93094999997993,
      "v": 24
    },
    {
      "midi": 77,
      "hit": false,
      "t": 147103.41149999897,
      "d": 155.17237499996554,
      "v": 28
    },
    {
      "midi": 59,
      "hit": false,
      "t": 147113.75632499898,
      "d": 194.82753749995027,
      "v": 34
    },
    {
      "midi": 80,
      "hit": false,
      "t": 147310.3079999989,
      "d": 155.17237499999464,
      "v": 35
    },
    {
      "midi": 74,
      "hit": false,
      "t": 147310.3079999989,
      "d": 379.31025000000955,
      "v": 24
    },
    {
      "midi": 71,
      "hit": false,
      "t": 147324.10109999892,
      "d": 215.51718749999418,
      "v": 28
    },
    {
      "midi": 81,
      "hit": false,
      "t": 147517.20449999892,
      "d": 155.17237499999464,
      "v": 29
    },
    {
      "midi": 69,
      "hit": false,
      "t": 147530.99759999893,
      "d": 201.7240874999843,
      "v": 21
    },
    {
      "midi": 83,
      "hit": false,
      "t": 147724.10099999892,
      "d": 155.17237499999464,
      "v": 50
    },
    {
      "midi": 68,
      "hit": false,
      "t": 147741.3423749989,
      "d": 201.7240875000134,
      "v": 32
    },
    {
      "midi": 76,
      "hit": false,
      "t": 147930.99749999892,
      "d": 558.6205499999633,
      "v": 52
    },
    {
      "midi": 64,
      "hit": false,
      "t": 147932.7216374989,
      "d": 186.20685000001686,
      "v": 33
    },
    {
      "midi": 68,
      "hit": false,
      "t": 148124.1008999989,
      "d": 17.24137500001234,
      "v": 47
    },
    {
      "midi": 74,
      "hit": false,
      "t": 148137.89399999892,
      "d": 331.034399999975,
      "v": 47
    },
    {
      "midi": 57,
      "hit": false,
      "t": 148334.44567499892,
      "d": 443.10333749998244,
      "v": 52
    },
    {
      "midi": 73,
      "hit": false,
      "t": 148551.6869999989,
      "d": 155.17237499999464,
      "v": 50
    },
    {
      "midi": 69,
      "hit": false,
      "t": 148755.1352249989,
      "d": 24.137924999988172,
      "v": 44
    },
    {
      "midi": 81,
      "hit": false,
      "t": 148758.5834999989,
      "d": 344.82749999995576,
      "v": 47
    },
    {
      "midi": 57,
      "hit": false,
      "t": 148962.03172499887,
      "d": 431.03437500001746,
      "v": 47
    },
    {
      "midi": 82,
      "hit": false,
      "t": 148965.47999999888,
      "d": 155.17237499999464,
      "v": 58
    },
    {
      "midi": 67,
      "hit": false,
      "t": 148968.92827499888,
      "d": 218.96546249999665,
      "v": 50
    },
    {
      "midi": 79,
      "hit": false,
      "t": 149172.37649999888,
      "d": 155.17237499999464,
      "v": 50
    },
    {
      "midi": 82,
      "hit": false,
      "t": 149172.37649999888,
      "d": 155.17237499999464,
      "v": 50
    },
    {
      "midi": 81,
      "hit": false,
      "t": 149379.27299999888,
      "d": 155.17237500002375,
      "v": 47
    },
    {
      "midi": 77,
      "hit": false,
      "t": 149379.27299999888,
      "d": 344.82750000001397,
      "v": 44
    },
    {
      "midi": 65,
      "hit": false,
      "t": 149393.0660999989,
      "d": 39.65516250001383,
      "v": 56
    },
    {
      "midi": 79,
      "hit": false,
      "t": 149586.1694999989,
      "d": 155.17237499999464,
      "v": 56
    },
    {
      "midi": 57,
      "hit": false,
      "t": 149587.8936374989,
      "d": 408.620587500016,
      "v": 44
    },
    {
      "midi": 64,
      "hit": false,
      "t": 149587.8936374989,
      "d": 425.8619625000283,
      "v": 44
    },
    {
      "midi": 76,
      "hit": false,
      "t": 149793.06599999891,
      "d": 155.17237499999464,
      "v": 41
    },
    {
      "midi": 79,
      "hit": false,
      "t": 149793.06599999891,
      "d": 155.17237499999464,
      "v": 52
    },
    {
      "midi": 77,
      "hit": false,
      "t": 149999.96249999892,
      "d": 155.17237499999464,
      "v": 47
    },
    {
      "midi": 62,
      "hit": false,
      "t": 149999.96249999892,
      "d": 181.0344374999986,
      "v": 39
    },
    {
      "midi": 74,
      "hit": false,
      "t": 149999.96249999892,
      "d": 337.93094999997993,
      "v": 31
    },
    {
      "midi": 57,
      "hit": false,
      "t": 150205.1348624989,
      "d": 205.17236249998678,
      "v": 44
    },
    {
      "midi": 75,
      "hit": false,
      "t": 150206.8589999989,
      "d": 155.17237499999464,
      "v": 50
    },
    {
      "midi": 78,
      "hit": false,
      "t": 150413.7554999989,
      "d": 155.17237499999464,
      "v": 55
    },
    {
      "midi": 69,
      "hit": false,
      "t": 150413.7554999989,
      "d": 210.34477500000503,
      "v": 47
    },
    {
      "midi": 72,
      "hit": false,
      "t": 150413.7554999989,
      "d": 531.0343500000017,
      "v": 41
    },
    {
      "midi": 79,
      "hit": false,
      "t": 150620.6519999989,
      "d": 155.17237499999464,
      "v": 47
    },
    {
      "midi": 67,
      "hit": false,
      "t": 150630.9968249989,
      "d": 205.17236249998678,
      "v": 26
    },
    {
      "midi": 81,
      "hit": false,
      "t": 150827.5484999989,
      "d": 572.413649999944,
      "v": 52
    },
    {
      "midi": 66,
      "hit": false,
      "t": 150836.1691874989,
      "d": 201.7240874999843,
      "v": 29
    },
    {
      "midi": 62,
      "hit": false,
      "t": 151029.27258749888,
      "d": 224.1378749999567,
      "v": 39
    },
    {
      "midi": 74,
      "hit": false,
      "t": 151034.44499999887,
      "d": 155.17237499996554,
      "v": 44
    },
    {
      "midi": 72,
      "hit": false,
      "t": 151241.34149999885,
      "d": 155.17237499999464,
      "v": 47
    },
    {
      "midi": 66,
      "hit": false,
      "t": 151241.34149999885,
      "d": 220.68959999998333,
      "v": 47
    },
    {
      "midi": 71,
      "hit": false,
      "t": 151448.23799999882,
      "d": 155.17237500002375,
      "v": 39
    },
    {
      "midi": 79,
      "hit": false,
      "t": 151448.23799999882,
      "d": 155.17237500002375,
      "v": 50
    },
    {
      "midi": 67,
      "hit": false,
      "t": 151462.03109999883,
      "d": 193.1034000000218,
      "v": 47
    },
    {
      "midi": 64,
      "hit": false,
      "t": 151648.23794999885,
      "d": 213.7930500000075,
      "v": 37
    },
    {
      "midi": 73,
      "hit": false,
      "t": 151655.13449999885,
      "d": 155.17237499999464,
      "v": 47
    },
    {
      "midi": 69,
      "hit": false,
      "t": 151862.03099999885,
      "d": 22.41378750000149,
      "v": 34
    },
    {
      "midi": 74,
      "hit": false,
      "t": 151862.03099999885,
      "d": 155.17237499999464,
      "v": 44
    },
    {
      "midi": 66,
      "hit": false,
      "t": 151872.37582499886,
      "d": 12.068962499994086,
      "v": 55
    },
    {
      "midi": 76,
      "hit": false,
      "t": 152068.92749999886,
      "d": 155.17237499999464,
      "v": 44
    },
    {
      "midi": 61,
      "hit": false,
      "t": 152068.92749999886,
      "d": 193.1033999999927,
      "v": 51
    },
    {
      "midi": 62,
      "hit": false,
      "t": 152265.47917499885,
      "d": 187.93098750000354,
      "v": 50
    },
    {
      "midi": 78,
      "hit": false,
      "t": 152275.82399999886,
      "d": 155.17237499999464,
      "v": 47
    },
    {
      "midi": 59,
      "hit": false,
      "t": 152458.58257499884,
      "d": 27.58619999999064,
      "v": 36
    },
    {
      "midi": 80,
      "hit": false,
      "t": 152482.72049999883,
      "d": 155.17237499999464,
      "v": 47
    },
    {
      "midi": 69,
      "hit": false,
      "t": 152672.37562499882,
      "d": 27.586200000019744,
      "v": 56
    },
    {
      "midi": 57,
      "hit": false,
      "t": 152679.27217499883,
      "d": 32.758612500008894,
      "v": 52
    },
    {
      "midi": 81,
      "hit": false,
      "t": 152689.61699999883,
      "d": 155.17237499999464,
      "v": 56
    },
    {
      "midi": 55,
      "hit": false,
      "t": 152867.20316249883,
      "d": 27.58619999999064,
      "v": 56
    },
    {
      "midi": 67,
      "hit": false,
      "t": 152872.37557499882,
      "d": 15.517237499996554,
      "v": 47
    },
    {
      "midi": 73,
      "hit": false,
      "t": 152896.5134999988,
      "d": 155.17237499999464,
      "v": 58
    },
    {
      "midi": 66,
      "hit": false,
      "t": 153077.5479374988,
      "d": 25.862062500003958,
      "v": 58
    },
    {
      "midi": 54,
      "hit": false,
      "t": 153084.4444874988,
      "d": 29.310337500006426,
      "v": 58
    },
    {
      "midi": 74,
      "hit": false,
      "t": 153103.4099999988,
      "d": 155.17237499999464,
      "v": 62
    },
    {
      "midi": 61,
      "hit": false,
      "t": 153284.44443749878,
      "d": 106.8965250000183,
      "v": 62
    },
    {
      "midi": 49,
      "hit": false,
      "t": 153293.06512499877,
      "d": 84.48273750001681,
      "v": 63
    },
    {
      "midi": 76,
      "hit": false,
      "t": 153310.30649999878,
      "d": 155.17237500002375,
      "v": 62
    },
    {
      "midi": 62,
      "hit": false,
      "t": 153498.23748749882,
      "d": 18.965512499999022,
      "v": 59
    },
    {
      "midi": 50,
      "hit": false,
      "t": 153505.13403749882,
      "d": 29.310337500006426,
      "v": 59
    },
    {
      "midi": 78,
      "hit": false,
      "t": 153517.20299999882,
      "d": 155.17237500002375,
      "v": 68
    },
    {
      "midi": 59,
      "hit": false,
      "t": 153698.23743749884,
      "d": 36.20688750001136,
      "v": 71
    },
    {
      "midi": 47,
      "hit": false,
      "t": 153698.23743749884,
      "d": 44.82757500000298,
      "v": 62
    },
    {
      "midi": 80,
      "hit": false,
      "t": 153724.09949999885,
      "d": 155.17237499999464,
      "v": 63
    },
    {
      "midi": 57,
      "hit": false,
      "t": 153910.30634999883,
      "d": 39.65516250001383,
      "v": 70
    },
    {
      "midi": 45,
      "hit": false,
      "t": 153913.75462499884,
      "d": 43.1034375000163,
      "v": 62
    },
    {
      "midi": 81,
      "hit": false,
      "t": 153930.99599999885,
      "d": 155.17237499999464,
      "v": 62
    },
    {
      "midi": 55,
      "hit": false,
      "t": 154113.75457499883,
      "d": 37.93102500002715,
      "v": 67
    },
    {
      "midi": 43,
      "hit": false,
      "t": 154120.65112499884,
      "d": 36.20688750001136,
      "v": 67
    },
    {
      "midi": 73,
      "hit": false,
      "t": 154137.89249999885,
      "d": 155.17237499999464,
      "v": 58
    },
    {
      "midi": 54,
      "hit": false,
      "t": 154324.09934999884,
      "d": 29.310337500006426,
      "v": 68
    },
    {
      "midi": 42,
      "hit": false,
      "t": 154324.09934999884,
      "d": 37.931024999998044,
      "v": 68
    },
    {
      "midi": 74,
      "hit": false,
      "t": 154344.78899999885,
      "d": 155.17237499999464,
      "v": 67
    },
    {
      "midi": 37,
      "hit": false,
      "t": 154529.27171249886,
      "d": 82.75860000000102,
      "v": 68
    },
    {
      "midi": 49,
      "hit": false,
      "t": 154529.27171249886,
      "d": 134.48272500000894,
      "v": 74
    },
    {
      "midi": 76,
      "hit": false,
      "t": 154551.68549999886,
      "d": 155.17237499999464,
      "v": 67
    },
    {
      "midi": 50,
      "hit": false,
      "t": 154743.06476249886,
      "d": 37.931024999998044,
      "v": 70
    },
    {
      "midi": 38,
      "hit": false,
      "t": 154751.68544999885,
      "d": 39.655162499984726,
      "v": 67
    },
    {
      "midi": 78,
      "hit": false,
      "t": 154758.58199999886,
      "d": 155.17237499996554,
      "v": 55
    },
    {
      "midi": 47,
      "hit": false,
      "t": 154965.47849999883,
      "d": 43.1034375000163,
      "v": 67
    },
    {
      "midi": 80,
      "hit": false,
      "t": 154965.47849999883,
      "d": 358.62059999999474,
      "v": 50
    },
    {
      "midi": 35,
      "hit": false,
      "t": 154975.82332499884,
      "d": 39.65516250001383,
      "v": 62
    },
    {
      "midi": 33,
      "hit": false,
      "t": 155172.37499999884,
      "d": 1186.206600000005,
      "v": 70
    },
    {
      "midi": 45,
      "hit": false,
      "t": 155172.37499999884,
      "d": 1199.9997000000149,
      "v": 62
    },
    {
      "midi": 81,
      "hit": false,
      "t": 155379.27149999884,
      "d": 986.2066500000074,
      "v": 65
    },
    {
      "midi": 74,
      "hit": false,
      "t": 156413.75399999885,
      "d": 37.931024999998044,
      "v": 44
    },
    {
      "midi": 69,
      "hit": false,
      "t": 156422.37468749884,
      "d": 89.65515000000596,
      "v": 39
    },
    {
      "midi": 66,
      "hit": false,
      "t": 156422.37468749884,
      "d": 210.34477499997593,
      "v": 35
    },
    {
      "midi": 76,
      "hit": false,
      "t": 156465.47812499886,
      "d": 37.931024999998044,
      "v": 34
    },
    {
      "midi": 74,
      "hit": false,
      "t": 156517.20224999884,
      "d": 37.931024999998044,
      "v": 32
    },
    {
      "midi": 76,
      "hit": false,
      "t": 156568.92637499885,
      "d": 37.931024999998044,
      "v": 39
    },
    {
      "midi": 67,
      "hit": false,
      "t": 156618.92636249884,
      "d": 167.24133750001783,
      "v": 26
    },
    {
      "midi": 74,
      "hit": false,
      "t": 156620.65049999882,
      "d": 37.931024999998044,
      "v": 32
    },
    {
      "midi": 64,
      "hit": false,
      "t": 156625.8229124988,
      "d": 165.51720000003115,
      "v": 44
    },
    {
      "midi": 76,
      "hit": false,
      "t": 156672.37462499883,
      "d": 37.931024999998044,
      "v": 26
    },
    {
      "midi": 76,
      "hit": false,
      "t": 156724.09874999884,
      "d": 37.931024999998044,
      "v": 52
    },
    {
      "midi": 78,
      "hit": false,
      "t": 156775.82287499885,
      "d": 37.931024999998044,
      "v": 47
    },
    {
      "midi": 66,
      "hit": false,
      "t": 156820.65044999885,
      "d": 127.586175000004,
      "v": 38
    },
    {
      "midi": 62,
      "hit": false,
      "t": 156825.82286249884,
      "d": 201.7240875000134,
      "v": 39
    },
    {
      "midi": 79,
      "hit": false,
      "t": 156827.54699999883,
      "d": 77.58618750001187,
      "v": 52
    },
    {
      "midi": 81,
      "hit": false,
      "t": 156930.99524999884,
      "d": 77.58618750001187,
      "v": 52
    },
    {
      "midi": 71,
      "hit": false,
      "t": 157032.71936249884,
      "d": 425.8619624999992,
      "v": 50
    },
    {
      "midi": 83,
      "hit": false,
      "t": 157034.44349999883,
      "d": 155.17237499999464,
      "v": 52
    },
    {
      "midi": 67,
      "hit": false,
      "t": 157043.06418749882,
      "d": 415.5171375000209,
      "v": 56
    },
    {
      "midi": 79,
      "hit": false,
      "t": 157241.33999999883,
      "d": 155.17237499999464,
      "v": 44
    },
    {
      "midi": 76,
      "hit": false,
      "t": 157448.23649999883,
      "d": 155.17237499999464,
      "v": 47
    },
    {
      "midi": 67,
      "hit": false,
      "t": 157651.68472499884,
      "d": 179.31030000001192,
      "v": 47
    },
    {
      "midi": 73,
      "hit": false,
      "t": 157655.13299999884,
      "d": 37.931024999998044,
      "v": 29
    },
    {
      "midi": 64,
      "hit": false,
      "t": 157658.58127499884,
      "d": 244.8275250000006,
      "v": 26
    },
    {
      "midi": 74,
      "hit": false,
      "t": 157706.85712499885,
      "d": 37.931024999998044,
      "v": 36
    },
    {
      "midi": 73,
      "hit": false,
      "t": 157758.58124999885,
      "d": 37.931024999998044,
      "v": 40
    },
    {
      "midi": 74,
      "hit": false,
      "t": 157810.30537499886,
      "d": 37.93102499996894,
      "v": 34
    },
    {
      "midi": 69,
      "hit": false,
      "t": 157839.61571249884,
      "d": 113.79307499999413,
      "v": 41
    },
    {
      "midi": 73,
      "hit": false,
      "t": 157862.02949999884,
      "d": 37.931024999998044,
      "v": 35
    },
    {
      "midi": 66,
      "hit": false,
      "t": 157862.02949999884,
      "d": 208.62063749996014,
      "v": 32
    },
    {
      "midi": 74,
      "hit": false,
      "t": 157913.75362499885,
      "d": 37.931024999998044,
      "v": 31
    },
    {
      "midi": 74,
      "hit": false,
      "t": 157965.47774999883,
      "d": 37.931024999998044,
      "v": 50
    },
    {
      "midi": 76,
      "hit": false,
      "t": 158017.20187499883,
      "d": 37.931024999998044,
      "v": 59
    },
    {
      "midi": 67,
      "hit": false,
      "t": 158053.40876249885,
      "d": 198.27581249995274,
      "v": 47
    },
    {
      "midi": 71,
      "hit": false,
      "t": 158063.75358749882,
      "d": 60.34481249997043,
      "v": 41
    },
    {
      "midi": 78,
      "hit": false,
      "t": 158068.9259999988,
      "d": 77.58618749998277,
      "v": 50
    },
    {
      "midi": 79,
      "hit": false,
      "t": 158172.3742499988,
      "d": 77.58618750001187,
      "v": 50
    },
    {
      "midi": 66,
      "hit": false,
      "t": 158258.5811249988,
      "d": 415.5171375000209,
      "v": 47
    },
    {
      "midi": 69,
      "hit": false,
      "t": 158258.5811249988,
      "d": 418.9654125000234,
      "v": 34
    },
    {
      "midi": 81,
      "hit": false,
      "t": 158275.82249999882,
      "d": 155.17237499999464,
      "v": 62
    },
    {
      "midi": 78,
      "hit": false,
      "t": 158482.71899999882,
      "d": 155.17237499999464,
      "v": 58
    },
    {
      "midi": 74,
      "hit": false,
      "t": 158689.61549999882,
      "d": 155.17237499999464,
      "v": 59
    },
    {
      "midi": 66,
      "hit": false,
      "t": 158894.7878624988,
      "d": 198.27581250001094,
      "v": 40
    },
    {
      "midi": 71,
      "hit": false,
      "t": 158896.5119999988,
      "d": 37.931024999998044,
      "v": 41
    },
    {
      "midi": 62,
      "hit": false,
      "t": 158905.1326874988,
      "d": 187.93098750003264,
      "v": 32
    },
    {
      "midi": 73,
      "hit": false,
      "t": 158948.2361249988,
      "d": 37.931024999998044,
      "v": 47
    },
    {
      "midi": 71,
      "hit": false,
      "t": 158999.9602499988,
      "d": 37.931024999998044,
      "v": 34
    },
    {
      "midi": 73,
      "hit": false,
      "t": 159051.68437499882,
      "d": 37.931024999998044,
      "v": 47
    },
    {
      "midi": 64,
      "hit": false,
      "t": 159093.06367499882,
      "d": 220.68960000004154,
      "v": 49
    },
    {
      "midi": 71,
      "hit": false,
      "t": 159103.40849999883,
      "d": 37.931024999998044,
      "v": 32
    },
    {
      "midi": 67,
      "hit": false,
      "t": 159105.1326374988,
      "d": 194.82753750003758,
      "v": 41
    },
    {
      "midi": 73,
      "hit": false,
      "t": 159155.13262499883,
      "d": 37.931024999998044,
      "v": 40
    },
    {
      "midi": 73,
      "hit": false,
      "t": 159206.85674999884,
      "d": 37.931024999998044,
      "v": 58
    },
    {
      "midi": 74,
      "hit": false,
      "t": 159258.58087499885,
      "d": 37.931024999998044,
      "v": 59
    },
    {
      "midi": 69,
      "hit": false,
      "t": 159291.33948749886,
      "d": 208.62063750001835,
      "v": 39
    },
    {
      "midi": 66,
      "hit": false,
      "t": 159299.96017499885,
      "d": 184.48271250003017,
      "v": 50
    },
    {
      "midi": 76,
      "hit": false,
      "t": 159310.30499999886,
      "d": 77.58618750001187,
      "v": 52
    },
    {
      "midi": 78,
      "hit": false,
      "t": 159413.75324999887,
      "d": 77.58618750001187,
      "v": 58
    },
    {
      "midi": 67,
      "hit": false,
      "t": 159508.58081249887,
      "d": 384.4826624999987,
      "v": 36
    },
    {
      "midi": 64,
      "hit": false,
      "t": 159508.58081249887,
      "d": 389.65507499998785,
      "v": 40
    },
    {
      "midi": 79,
      "hit": false,
      "t": 159517.20149999886,
      "d": 155.17237499999464,
      "v": 67
    },
    {
      "midi": 76,
      "hit": false,
      "t": 159724.09799999886,
      "d": 155.17237499999464,
      "v": 50
    },
    {
      "midi": 73,
      "hit": false,
      "t": 159930.99449999887,
      "d": 155.17237499999464,
      "v": 40
    },
    {
      "midi": 61,
      "hit": false,
      "t": 160127.54617499886,
      "d": 198.27581250001094,
      "v": 44
    },
    {
      "midi": 64,
      "hit": false,
      "t": 160136.16686249885,
      "d": 208.62063750001835,
      "v": 34
    },
    {
      "midi": 69,
      "hit": false,
      "t": 160137.89099999884,
      "d": 37.931024999998044,
      "v": 41
    },
    {
      "midi": 71,
      "hit": false,
      "t": 160189.61512499885,
      "d": 37.931024999998044,
      "v": 32
    },
    {
      "midi": 69,
      "hit": false,
      "t": 160241.33924999885,
      "d": 37.931024999998044,
      "v": 32
    },
    {
      "midi": 71,
      "hit": false,
      "t": 160293.06337499886,
      "d": 37.931024999998044,
      "v": 29
    },
    {
      "midi": 69,
      "hit": false,
      "t": 160344.78749999887,
      "d": 37.931024999998044,
      "v": 25
    },
    {
      "midi": 62,
      "hit": false,
      "t": 160349.95991249886,
      "d": 194.82753750003758,
      "v": 39
    },
    {
      "midi": 66,
      "hit": false,
      "t": 160349.95991249886,
      "d": 222.41373750002822,
      "v": 44
    },
    {
      "midi": 71,
      "hit": false,
      "t": 160396.51162499888,
      "d": 37.931024999998044,
      "v": 20
    },
    {
      "midi": 71,
      "hit": false,
      "t": 160448.2357499989,
      "d": 37.931024999998044,
      "v": 50
    },
    {
      "midi": 73,
      "hit": false,
      "t": 160499.9598749989,
      "d": 37.931024999998044,
      "v": 63
    },
    {
      "midi": 67,
      "hit": false,
      "t": 160544.7874499989,
      "d": 44.82757500000298,
      "v": 32
    },
    {
      "midi": 64,
      "hit": false,
      "t": 160551.6839999989,
      "d": 46.55171249998966,
      "v": 44
    },
    {
      "midi": 74,
      "hit": false,
      "t": 160551.6839999989,
      "d": 77.58618749998277,
      "v": 52
    },
    {
      "midi": 76,
      "hit": false,
      "t": 160655.1322499989,
      "d": 77.58618750001187,
      "v": 56
    },
    {
      "midi": 78,
      "hit": false,
      "t": 160758.5804999989,
      "d": 155.17237499999464,
      "v": 50
    },
    {
      "midi": 50,
      "hit": false,
      "t": 160770.6494624989,
      "d": 205.17236250001588,
      "v": 50
    },
    {
      "midi": 66,
      "hit": false,
      "t": 160965.4769999989,
      "d": 77.58618750001187,
      "v": 40
    },
    {
      "midi": 62,
      "hit": false,
      "t": 160975.82182499891,
      "d": 218.96546250002575,
      "v": 52
    },
    {
      "midi": 66,
      "hit": false,
      "t": 161068.92524999892,
      "d": 77.58618750001187,
      "v": 40
    },
    {
      "midi": 66,
      "hit": false,
      "t": 161172.37349999894,
      "d": 77.58618750001187,
      "v": 32
    },
    {
      "midi": 61,
      "hit": false,
      "t": 161182.71832499895,
      "d": 196.55167499999516,
      "v": 44
    },
    {
      "midi": 66,
      "hit": false,
      "t": 161275.82174999896,
      "d": 77.58618750001187,
      "v": 19
    },
    {
      "midi": 66,
      "hit": false,
      "t": 161379.26999999894,
      "d": 77.58618749998277,
      "v": 44
    },
    {
      "midi": 59,
      "hit": false,
      "t": 161387.89068749893,
      "d": 181.0344374999986,
      "v": 51
    },
    {
      "midi": 66,
      "hit": false,
      "t": 161482.71824999893,
      "d": 77.58618750001187,
      "v": 38
    },
    {
      "midi": 66,
      "hit": false,
      "t": 161586.16649999894,
      "d": 77.58618750001187,
      "v": 44
    },
    {
      "midi": 62,
      "hit": false,
      "t": 161586.16649999894,
      "d": 201.72408750004251,
      "v": 44
    },
    {
      "midi": 66,
      "hit": false,
      "t": 161689.61474999896,
      "d": 77.58618750001187,
      "v": 29
    },
    {
      "midi": 57,
      "hit": false,
      "t": 161774.09748749898,
      "d": 217.24132500003907,
      "v": 52
    },
    {
      "midi": 66,
      "hit": false,
      "t": 161793.06299999898,
      "d": 77.58618750001187,
      "v": 35
    },
    {
      "midi": 66,
      "hit": false,
      "t": 161896.511249999,
      "d": 77.58618750001187,
      "v": 47
    },
    {
      "midi": 55,
      "hit": false,
      "t": 161991.33881249902,
      "d": 205.17236250001588,
      "v": 52
    },
    {
      "midi": 71,
      "hit": false,
      "t": 161999.959499999,
      "d": 77.58618750001187,
      "v": 41
    },
    {
      "midi": 71,
      "hit": false,
      "t": 162103.40774999902,
      "d": 77.58618750001187,
      "v": 39
    },
    {
      "midi": 71,
      "hit": false,
      "t": 162206.85599999904,
      "d": 77.58618750001187,
      "v": 41
    },
    {
      "midi": 62,
      "hit": false,
      "t": 162206.85599999904,
      "d": 215.51718750002328,
      "v": 32
    },
    {
      "midi": 71,
      "hit": false,
      "t": 162310.30424999906,
      "d": 77.58618750001187,
      "v": 39
    },
    {
      "midi": 71,
      "hit": false,
      "t": 162413.75249999907,
      "d": 77.58618749998277,
      "v": 36
    },
    {
      "midi": 54,
      "hit": false,
      "t": 162413.75249999907,
      "d": 206.89650000000256,
      "v": 38
    },
    {
      "midi": 71,
      "hit": false,
      "t": 162517.20074999906,
      "d": 77.58618750001187,
      "v": 34
    },
    {
      "midi": 71,
      "hit": false,
      "t": 162620.64899999907,
      "d": 77.58618749998277,
      "v": 39
    },
    {
      "midi": 52,
      "hit": false,
      "t": 162632.71796249907,
      "d": 196.55167499999516,
      "v": 59
    },
    {
      "midi": 71,
      "hit": false,
      "t": 162724.09724999906,
      "d": 77.58618750001187,
      "v": 34
    },
    {
      "midi": 71,
      "hit": false,
      "t": 162827.54549999908,
      "d": 77.58618749998277,
      "v": 39
    },
    {
      "midi": 64,
      "hit": false,
      "t": 162841.33859999906,
      "d": 65.51722499998868,
      "v": 40
    },
    {
      "midi": 71,
      "hit": false,
      "t": 162930.99374999903,
      "d": 77.58618750001187,
      "v": 34
    },
    {
      "midi": 50,
      "hit": false,
      "t": 163024.09717499904,
      "d": 39.65516250001383,
      "v": 47
    },
    {
      "midi": 71,
      "hit": false,
      "t": 163034.44199999905,
      "d": 77.58618750001187,
      "v": 39
    },
    {
      "midi": 71,
      "hit": false,
      "t": 163137.89024999907,
      "d": 77.58618749998277,
      "v": 41
    },
    {
      "midi": 49,
      "hit": false,
      "t": 163229.26953749906,
      "d": 199.99994999999763,
      "v": 63
    },
    {
      "midi": 76,
      "hit": false,
      "t": 163241.33849999905,
      "d": 77.58618749998277,
      "v": 47
    },
    {
      "midi": 76,
      "hit": false,
      "t": 163344.78674999904,
      "d": 77.58618750001187,
      "v": 41
    },
    {
      "midi": 61,
      "hit": false,
      "t": 163429.26948749906,
      "d": 234.4826999999932,
      "v": 54
    },
    {
      "midi": 76,
      "hit": false,
      "t": 163448.23499999905,
      "d": 77.58618750001187,
      "v": 41
    },
    {
      "midi": 76,
      "hit": false,
      "t": 163551.68324999907,
      "d": 77.58618750001187,
      "v": 34
    },
    {
      "midi": 59,
      "hit": false,
      "t": 163653.40736249907,
      "d": 220.68959999995423,
      "v": 48
    },
    {
      "midi": 76,
      "hit": false,
      "t": 163655.13149999906,
      "d": 77.58618749998277,
      "v": 50
    },
    {
      "midi": 76,
      "hit": false,
      "t": 163758.57974999904,
      "d": 77.58618749998277,
      "v": 34
    },
    {
      "midi": 76,
      "hit": false,
      "t": 163862.02799999903,
      "d": 77.58618749998277,
      "v": 36
    },
    {
      "midi": 57,
      "hit": false,
      "t": 163863.75213749902,
      "d": 199.99994999999763,
      "v": 52
    },
    {
      "midi": 76,
      "hit": false,
      "t": 163965.47624999902,
      "d": 77.58618750001187,
      "v": 41
    },
    {
      "midi": 76,
      "hit": false,
      "t": 164068.924499999,
      "d": 77.58618749998277,
      "v": 34
    },
    {
      "midi": 64,
      "hit": false,
      "t": 164080.993462499,
      "d": 225.86201250000158,
      "v": 44
    },
    {
      "midi": 76,
      "hit": false,
      "t": 164172.372749999,
      "d": 77.58618750001187,
      "v": 34
    },
    {
      "midi": 76,
      "hit": false,
      "t": 164275.820999999,
      "d": 77.58618749998277,
      "v": 34
    },
    {
      "midi": 55,
      "hit": false,
      "t": 164275.820999999,
      "d": 193.1033999999927,
      "v": 47
    },
    {
      "midi": 76,
      "hit": false,
      "t": 164379.269249999,
      "d": 77.58618750001187,
      "v": 32
    },
    {
      "midi": 54,
      "hit": false,
      "t": 164475.820949999,
      "d": 48.27585000000545,
      "v": 63
    },
    {
      "midi": 81,
      "hit": false,
      "t": 164482.717499999,
      "d": 77.58618749998277,
      "v": 52
    },
    {
      "midi": 81,
      "hit": false,
      "t": 164586.165749999,
      "d": 77.58618750001187,
      "v": 44
    },
    {
      "midi": 66,
      "hit": false,
      "t": 164670.648487499,
      "d": 36.20688750001136,
      "v": 44
    },
    {
      "midi": 54,
      "hit": false,
      "t": 164670.648487499,
      "d": 51.724125000007916,
      "v": 63
    },
    {
      "midi": 81,
      "hit": false,
      "t": 164689.613999999,
      "d": 77.58618750001187,
      "v": 44
    },
    {
      "midi": 81,
      "hit": false,
      "t": 164793.06224999903,
      "d": 77.58618750001187,
      "v": 41
    },
    {
      "midi": 64,
      "hit": false,
      "t": 164877.54498749904,
      "d": 39.655162499984726,
      "v": 60
    },
    {
      "midi": 52,
      "hit": false,
      "t": 164884.44153749905,
      "d": 36.20688749998226,
      "v": 59
    },
    {
      "midi": 81,
      "hit": false,
      "t": 164896.51049999904,
      "d": 77.58618749998277,
      "v": 41
    },
    {
      "midi": 81,
      "hit": false,
      "t": 164999.95874999903,
      "d": 77.58618749998277,
      "v": 44
    },
    {
      "midi": 62,
      "hit": false,
      "t": 165082.717349999,
      "d": 53.4482625000237,
      "v": 56
    },
    {
      "midi": 50,
      "hit": false,
      "t": 165089.613899999,
      "d": 65.51722499998868,
      "v": 56
    },
    {
      "midi": 81,
      "hit": false,
      "t": 165103.40699999902,
      "d": 77.58618749998277,
      "v": 47
    },
    {
      "midi": 81,
      "hit": false,
      "t": 165206.855249999,
      "d": 77.58618750001187,
      "v": 50
    },
    {
      "midi": 62,
      "hit": false,
      "t": 165294.78626249902,
      "d": 39.655162499984726,
      "v": 59
    },
    {
      "midi": 50,
      "hit": false,
      "t": 165294.78626249902,
      "d": 49.99998749999213,
      "v": 62
    },
    {
      "midi": 81,
      "hit": false,
      "t": 165310.30349999902,
      "d": 77.58618749998277,
      "v": 39
    },
    {
      "midi": 81,
      "hit": false,
      "t": 165413.751749999,
      "d": 77.58618750001187,
      "v": 41
    },
    {
      "midi": 61,
      "hit": false,
      "t": 165499.958624999,
      "d": 37.93102499996894,
      "v": 67
    },
    {
      "midi": 49,
      "hit": false,
      "t": 165505.131037499,
      "d": 41.37929999997141,
      "v": 63
    },
    {
      "midi": 81,
      "hit": false,
      "t": 165517.199999999,
      "d": 77.58618749998277,
      "v": 36
    },
    {
      "midi": 81,
      "hit": false,
      "t": 165620.64824999898,
      "d": 77.58618750001187,
      "v": 44
    },
    {
      "midi": 59,
      "hit": false,
      "t": 165703.40684999898,
      "d": 39.655162499984726,
      "v": 66
    },
    {
      "midi": 47,
      "hit": false,
      "t": 165703.40684999898,
      "d": 53.4482624999946,
      "v": 62
    },
    {
      "midi": 86,
      "hit": false,
      "t": 165724.09649999897,
      "d": 77.58618750001187,
      "v": 62
    },
    {
      "midi": 85,
      "hit": false,
      "t": 165827.54474999898,
      "d": 77.58618749998277,
      "v": 52
    },
    {
      "midi": 43,
      "hit": false,
      "t": 165908.57921249897,
      "d": 37.93102499996894,
      "v": 70
    },
    {
      "midi": 55,
      "hit": false,
      "t": 165915.47576249897,
      "d": 36.206887499953154,
      "v": 67
    },
    {
      "midi": 83,
      "hit": false,
      "t": 165924.09644999896,
      "d": 77.58618749995367,
      "v": 55
    },
    {
      "midi": 81,
      "hit": false,
      "t": 166034.44124999893,
      "d": 77.58618750001187,
      "v": 47
    },
    {
      "midi": 59,
      "hit": false,
      "t": 166118.92398749894,
      "d": 46.55171249998966,
      "v": 66
    },
    {
      "midi": 47,
      "hit": false,
      "t": 166118.92398749894,
      "d": 51.72412499997881,
      "v": 59
    },
    {
      "midi": 79,
      "hit": false,
      "t": 166137.88949999894,
      "d": 77.58618749998277,
      "v": 44
    },
    {
      "midi": 78,
      "hit": false,
      "t": 166241.33774999893,
      "d": 77.58618749998277,
      "v": 35
    },
    {
      "midi": 61,
      "hit": false,
      "t": 166334.4411749989,
      "d": 44.82757500000298,
      "v": 62
    },
    {
      "midi": 49,
      "hit": false,
      "t": 166341.3377249989,
      "d": 49.99998749999213,
      "v": 58
    },
    {
      "midi": 76,
      "hit": false,
      "t": 166344.78599999892,
      "d": 77.58618749998277,
      "v": 50
    },
    {
      "midi": 74,
      "hit": false,
      "t": 166448.2342499989,
      "d": 77.58618750001187,
      "v": 52
    },
    {
      "midi": 45,
      "hit": false,
      "t": 166544.7859499989,
      "d": 36.20688749998226,
      "v": 67
    },
    {
      "midi": 57,
      "hit": false,
      "t": 166549.9583624989,
      "d": 37.931024999998044,
      "v": 59
    },
    {
      "midi": 73,
      "hit": false,
      "t": 166551.6824999989,
      "d": 77.58618750001187,
      "v": 50
    },
    {
      "midi": 71,
      "hit": false,
      "t": 166655.1307499989,
      "d": 77.58618750001187,
      "v": 44
    },
    {
      "midi": 61,
      "hit": false,
      "t": 166749.95831249893,
      "d": 41.37930000000051,
      "v": 62
    },
    {
      "midi": 49,
      "hit": false,
      "t": 166749.95831249893,
      "d": 46.55171249998966,
      "v": 68
    },
    {
      "midi": 69,
      "hit": false,
      "t": 166758.57899999892,
      "d": 77.58618750001187,
      "v": 41
    },
    {
      "midi": 67,
      "hit": false,
      "t": 166862.02724999894,
      "d": 77.58618750001187,
      "v": 41
    },
    {
      "midi": 66,
      "hit": false,
      "t": 166965.47549999892,
      "d": 77.58618750001187,
      "v": 55
    },
    {
      "midi": 62,
      "hit": false,
      "t": 166965.47549999892,
      "d": 384.4826625000278,
      "v": 56
    },
    {
      "midi": 50,
      "hit": false,
      "t": 166975.82032499893,
      "d": 431.03437499998836,
      "v": 62
    },
    {
      "midi": 67,
      "hit": false,
      "t": 167068.92374999894,
      "d": 77.58618750001187,
      "v": 50
    },
    {
      "midi": 69,
      "hit": false,
      "t": 167172.37199999893,
      "d": 77.58618750001187,
      "v": 56
    },
    {
      "midi": 66,
      "hit": false,
      "t": 167275.82024999894,
      "d": 77.58618750001187,
      "v": 55
    },
    {
      "midi": 64,
      "hit": false,
      "t": 167379.26849999893,
      "d": 77.58618749998277,
      "v": 47
    },
    {
      "midi": 54,
      "hit": false,
      "t": 167379.26849999893,
      "d": 232.75856249997742,
      "v": 55
    },
    {
      "midi": 62,
      "hit": false,
      "t": 167482.71674999892,
      "d": 77.58618750001187,
      "v": 44
    },
    {
      "midi": 64,
      "hit": false,
      "t": 167586.16499999893,
      "d": 77.58618749998277,
      "v": 49
    },
    {
      "midi": 55,
      "hit": false,
      "t": 167591.33741249892,
      "d": 182.7585750000144,
      "v": 59
    },
    {
      "midi": 67,
      "hit": false,
      "t": 167689.61324999892,
      "d": 77.58618750001187,
      "v": 50
    },
    {
      "midi": 57,
      "hit": false,
      "t": 167786.16494999893,
      "d": 217.24132500000997,
      "v": 56
    },
    {
      "midi": 66,
      "hit": false,
      "t": 167793.06149999893,
      "d": 77.58618750001187,
      "v": 44
    },
    {
      "midi": 64,
      "hit": false,
      "t": 167896.50974999895,
      "d": 77.58618750001187,
      "v": 47
    },
    {
      "midi": 45,
      "hit": false,
      "t": 167994.78558749895,
      "d": 227.58614999998827,
      "v": 52
    },
    {
      "midi": 62,
      "hit": false,
      "t": 167999.95799999894,
      "d": 77.58618750001187,
      "v": 50
    },
    {
      "midi": 61,
      "hit": false,
      "t": 168103.40624999895,
      "d": 77.58618750001187,
      "v": 44
    },
    {
      "midi": 62,
      "hit": false,
      "t": 168217.19932499895,
      "d": 72.41377499996452,
      "v": 70
    },
    {
      "midi": 50,
      "hit": false,
      "t": 168230.99242499893,
      "d": 160.3447874999838,
      "v": 56
    },
    {
      "midi": 62,
      "hit": false,
      "t": 168420.64754999892,
      "d": 193.1033999999927,
      "v": 52
    },
    {
      "midi": 50,
      "hit": false,
      "t": 168613.7509499989,
      "d": 20.689650000014808,
      "v": 52
    },
    {
      "midi": 78,
      "hit": false,
      "t": 168620.64749999892,
      "d": 29.310337500006426,
      "v": 63
    },
    {
      "midi": 74,
      "hit": false,
      "t": 168620.64749999892,
      "d": 32.758612500008894,
      "v": 59
    },
    {
      "midi": 76,
      "hit": false,
      "t": 168820.6474499989,
      "d": 43.103437499987194,
      "v": 80
    },
    {
      "midi": 45,
      "hit": false,
      "t": 168820.6474499989,
      "d": 194.82753749997937,
      "v": 70
    },
    {
      "midi": 69,
      "hit": false,
      "t": 168829.2681374989,
      "d": 24.137924999988172,
      "v": 70
    },
    {
      "midi": 76,
      "hit": false,
      "t": 169015.4749874989,
      "d": 86.20687499997439,
      "v": 67
    },
    {
      "midi": 69,
      "hit": false,
      "t": 169024.09567499888,
      "d": 20.689649999985704,
      "v": 47
    },
    {
      "midi": 57,
      "hit": false,
      "t": 169032.71636249888,
      "d": 199.99994999999763,
      "v": 39
    },
    {
      "midi": 66,
      "hit": false,
      "t": 169225.81976249887,
      "d": 24.137924999988172,
      "v": 44
    },
    {
      "midi": 74,
      "hit": false,
      "t": 169232.71631249887,
      "d": 67.24136249997537,
      "v": 59
    },
    {
      "midi": 50,
      "hit": false,
      "t": 169234.44044999886,
      "d": 196.55167499996605,
      "v": 41
    },
    {
      "midi": 69,
      "hit": false,
      "t": 169430.99212499883,
      "d": 25.862062500003958,
      "v": 62
    },
    {
      "midi": 76,
      "hit": false,
      "t": 169430.99212499883,
      "d": 39.65516250001383,
      "v": 70
    },
    {
      "midi": 45,
      "hit": false,
      "t": 169444.78522499884,
      "d": 344.82750000001397,
      "v": 56
    },
    {
      "midi": 78,
      "hit": false,
      "t": 169639.61276249884,
      "d": 49.99998749999213,
      "v": 74
    },
    {
      "midi": 57,
      "hit": false,
      "t": 169639.61276249884,
      "d": 198.27581250001094,
      "v": 41
    },
    {
      "midi": 74,
      "hit": false,
      "t": 169648.23344999884,
      "d": 17.24137500001234,
      "v": 62
    },
    {
      "midi": 76,
      "hit": false,
      "t": 169830.99202499885,
      "d": 46.551712500018766,
      "v": 67
    },
    {
      "midi": 50,
      "hit": false,
      "t": 169837.88857499885,
      "d": 13.793100000009872,
      "v": 52
    },
    {
      "midi": 79,
      "hit": false,
      "t": 169837.88857499885,
      "d": 193.1033999999927,
      "v": 67
    },
    {
      "midi": 78,
      "hit": false,
      "t": 170037.88852499885,
      "d": 37.93102499996894,
      "v": 80
    },
    {
      "midi": 74,
      "hit": false,
      "t": 170046.50921249884,
      "d": 24.137924999988172,
      "v": 67
    },
    {
      "midi": 50,
      "hit": false,
      "t": 170046.50921249884,
      "d": 210.34477499997593,
      "v": 70
    },
    {
      "midi": 78,
      "hit": false,
      "t": 170249.95743749882,
      "d": 60.344812499999534,
      "v": 68
    },
    {
      "midi": 74,
      "hit": false,
      "t": 170258.5781249988,
      "d": 34.482749999995576,
      "v": 50
    },
    {
      "midi": 62,
      "hit": false,
      "t": 170262.0263999988,
      "d": 222.41373749999912,
      "v": 34
    },
    {
      "midi": 76,
      "hit": false,
      "t": 170458.5780749988,
      "d": 46.55171249998966,
      "v": 75
    },
    {
      "midi": 69,
      "hit": false,
      "t": 170465.4746249988,
      "d": 24.137924999988172,
      "v": 67
    },
    {
      "midi": 57,
      "hit": false,
      "t": 170465.4746249988,
      "d": 201.7240874999843,
      "v": 47
    },
    {
      "midi": 66,
      "hit": false,
      "t": 170677.54353749877,
      "d": 24.137925000017276,
      "v": 55
    },
    {
      "midi": 74,
      "hit": false,
      "t": 170677.54353749877,
      "d": 98.27583750002668,
      "v": 56
    },
    {
      "midi": 50,
      "hit": false,
      "t": 170677.54353749877,
      "d": 199.99995000002673,
      "v": 56
    },
    {
      "midi": 76,
      "hit": false,
      "t": 170872.3710749988,
      "d": 37.93102499996894,
      "v": 70
    },
    {
      "midi": 69,
      "hit": false,
      "t": 170877.5434874988,
      "d": 20.689649999985704,
      "v": 56
    },
    {
      "midi": 57,
      "hit": false,
      "t": 170893.0607249988,
      "d": 187.93098749997444,
      "v": 52
    },
    {
      "midi": 78,
      "hit": false,
      "t": 171074.09516249876,
      "d": 41.37930000000051,
      "v": 68
    },
    {
      "midi": 74,
      "hit": false,
      "t": 171080.99171249877,
      "d": 25.862062500003958,
      "v": 50
    },
    {
      "midi": 50,
      "hit": false,
      "t": 171087.88826249877,
      "d": 8.620687499991618,
      "v": 56
    },
    {
      "midi": 76,
      "hit": false,
      "t": 171279.26752499878,
      "d": 44.827574999973876,
      "v": 80
    },
    {
      "midi": 69,
      "hit": false,
      "t": 171284.43993749877,
      "d": 27.58619999999064,
      "v": 70
    },
    {
      "midi": 45,
      "hit": false,
      "t": 171284.43993749877,
      "d": 217.24132499998086,
      "v": 75
    },
    {
      "midi": 69,
      "hit": false,
      "t": 171494.78471249875,
      "d": 24.137925000017276,
      "v": 47
    },
    {
      "midi": 76,
      "hit": false,
      "t": 171494.78471249875,
      "d": 93.10342500000843,
      "v": 67
    },
    {
      "midi": 57,
      "hit": false,
      "t": 171501.68126249875,
      "d": 210.34477500000503,
      "v": 47
    },
    {
      "midi": 66,
      "hit": false,
      "t": 171689.61224999875,
      "d": 39.65516250001383,
      "v": 50
    },
    {
      "midi": 74,
      "hit": false,
      "t": 171696.50879999876,
      "d": 75.86204999999609,
      "v": 62
    },
    {
      "midi": 50,
      "hit": false,
      "t": 171703.40534999876,
      "d": 203.448224999971,
      "v": 52
    },
    {
      "midi": 76,
      "hit": false,
      "t": 171906.85357499873,
      "d": 63.793087500002,
      "v": 70
    },
    {
      "midi": 69,
      "hit": false,
      "t": 171915.47426249873,
      "d": 37.931024999998044,
      "v": 56
    },
    {
      "midi": 45,
      "hit": false,
      "t": 171915.47426249873,
      "d": 205.17236250001588,
      "v": 62
    },
    {
      "midi": 74,
      "hit": false,
      "t": 172106.85352499873,
      "d": 55.172400000010384,
      "v": 52
    },
    {
      "midi": 78,
      "hit": false,
      "t": 172113.75007499874,
      "d": 55.172400000010384,
      "v": 63
    },
    {
      "midi": 57,
      "hit": false,
      "t": 172113.75007499874,
      "d": 199.99994999999763,
      "v": 36
    },
    {
      "midi": 50,
      "hit": false,
      "t": 172318.92243749872,
      "d": 17.24137500001234,
      "v": 56
    },
    {
      "midi": 76,
      "hit": false,
      "t": 172318.92243749872,
      "d": 125.86203750001732,
      "v": 59
    },
    {
      "midi": 79,
      "hit": false,
      "t": 172318.92243749872,
      "d": 208.62063750001835,
      "v": 59
    },
    {
      "midi": 78,
      "hit": false,
      "t": 172534.43962499875,
      "d": 34.482749999995576,
      "v": 74
    },
    {
      "midi": 74,
      "hit": false,
      "t": 172539.61203749874,
      "d": 29.310337500006426,
      "v": 56
    },
    {
      "midi": 38,
      "hit": false,
      "t": 172546.50858749874,
      "d": 217.24132499998086,
      "v": 70
    },
    {
      "midi": 74,
      "hit": false,
      "t": 172755.12922499873,
      "d": 41.37930000000051,
      "v": 59
    },
    {
      "midi": 50,
      "hit": false,
      "t": 172755.12922499873,
      "d": 224.1378749999858,
      "v": 44
    },
    {
      "midi": 78,
      "hit": false,
      "t": 172763.74991249872,
      "d": 37.931024999998044,
      "v": 68
    },
    {
      "midi": 76,
      "hit": false,
      "t": 172956.85331249872,
      "d": 91.37928750002175,
      "v": 70
    },
    {
      "midi": 69,
      "hit": false,
      "t": 172963.74986249872,
      "d": 25.862062500003958,
      "v": 50
    },
    {
      "midi": 45,
      "hit": false,
      "t": 172970.64641249873,
      "d": 103.44825000001583,
      "v": 41
    },
    {
      "midi": 74,
      "hit": false,
      "t": 173172.37049999877,
      "d": 115.51721249998081,
      "v": 70
    },
    {
      "midi": 38,
      "hit": false,
      "t": 173177.54291249876,
      "d": 618.9653624999919,
      "v": 59
    },
    {
      "midi": 69,
      "hit": false,
      "t": 173279.26702499876,
      "d": 139.6551374999981,
      "v": 56
    },
    {
      "midi": 66,
      "hit": false,
      "t": 173377.54286249875,
      "d": 110.34479999999166,
      "v": 47
    },
    {
      "midi": 62,
      "hit": false,
      "t": 173480.99111249874,
      "d": 205.17236250001588,
      "v": 39
    },
    {
      "midi": 81,
      "hit": false,
      "t": 173586.16349999874,
      "d": 155.17237499999464,
      "v": 67
    },
    {
      "midi": 66,
      "hit": false,
      "t": 173599.95659999875,
      "d": 99.99997499998426,
      "v": 47
    },
    {
      "midi": 74,
      "hit": false,
      "t": 173691.33588749875,
      "d": 32.75861249997979,
      "v": 56
    },
    {
      "midi": 76,
      "hit": false,
      "t": 173789.61172499874,
      "d": 120.68962499996996,
      "v": 67
    },
    {
      "midi": 45,
      "hit": false,
      "t": 173789.61172499874,
      "d": 627.5860499999835,
      "v": 67
    },
    {
      "midi": 73,
      "hit": false,
      "t": 173894.78411249872,
      "d": 122.41376250001485,
      "v": 58
    },
    {
      "midi": 67,
      "hit": false,
      "t": 174006.85304999872,
      "d": 105.17238750000251,
      "v": 56
    },
    {
      "midi": 64,
      "hit": false,
      "t": 174103.40474999874,
      "d": 122.41376249998575,
      "v": 52
    },
    {
      "midi": 67,
      "hit": false,
      "t": 174205.12886249874,
      "d": 110.34479999999166,
      "v": 62
    },
    {
      "midi": 81,
      "hit": false,
      "t": 174206.85299999872,
      "d": 155.17237499999464,
      "v": 70
    },
    {
      "midi": 73,
      "hit": false,
      "t": 174298.23228749871,
      "d": 58.62067500001285,
      "v": 63
    },
    {
      "midi": 74,
      "hit": false,
      "t": 174406.85294999872,
      "d": 125.86203749998822,
      "v": 67
    },
    {
      "midi": 38,
      "hit": false,
      "t": 174417.19777499873,
      "d": 622.4136374999362,
      "v": 67
    },
    {
      "midi": 69,
      "hit": false,
      "t": 174510.3011999987,
      "d": 158.6206499999971,
      "v": 59
    },
    {
      "midi": 66,
      "hit": false,
      "t": 174618.9218624987,
      "d": 112.06893749997835,
      "v": 58
    },
    {
      "midi": 62,
      "hit": false,
      "t": 174722.3701124987,
      "d": 134.48272499997984,
      "v": 34
    },
    {
      "midi": 66,
      "hit": false,
      "t": 174825.81836249869,
      "d": 120.68962499999907,
      "v": 58
    },
    {
      "midi": 81,
      "hit": false,
      "t": 174827.54249999867,
      "d": 155.17237499999464,
      "v": 70
    },
    {
      "midi": 74,
      "hit": false,
      "t": 174929.26661249867,
      "d": 41.37930000000051,
      "v": 56
    },
    {
      "midi": 45,
      "hit": false,
      "t": 175025.81831249865,
      "d": 636.2067375000333,
      "v": 59
    },
    {
      "midi": 76,
      "hit": false,
      "t": 175032.71486249866,
      "d": 143.10341250000056,
      "v": 67
    },
    {
      "midi": 73,
      "hit": false,
      "t": 175148.23207499867,
      "d": 115.51721250000992,
      "v": 63
    },
    {
      "midi": 67,
      "hit": false,
      "t": 175249.95618749867,
      "d": 106.8965250000183,
      "v": 56
    },
    {
      "midi": 64,
      "hit": false,
      "t": 175346.50788749868,
      "d": 143.10341250000056,
      "v": 52
    },
    {
      "midi": 81,
      "hit": false,
      "t": 175448.23199999868,
      "d": 155.17237500002375,
      "v": 75
    },
    {
      "midi": 67,
      "hit": false,
      "t": 175455.12854999868,
      "d": 112.06893750000745,
      "v": 62
    },
    {
      "midi": 73,
      "hit": false,
      "t": 175549.95611249868,
      "d": 46.551712500018766,
      "v": 68
    },
    {
      "midi": 74,
      "hit": false,
      "t": 175653.4043624987,
      "d": 127.586175000004,
      "v": 67
    },
    {
      "midi": 38,
      "hit": false,
      "t": 175662.0250499987,
      "d": 618.9653624999628,
      "v": 59
    },
    {
      "midi": 69,
      "hit": false,
      "t": 175762.0250249987,
      "d": 144.82755000001634,
      "v": 59
    },
    {
      "midi": 66,
      "hit": false,
      "t": 175867.1974124987,
      "d": 103.44825000001583,
      "v": 58
    },
    {
      "midi": 62,
      "hit": false,
      "t": 175970.64566249872,
      "d": 141.37927499998477,
      "v": 52
    },
    {
      "midi": 66,
      "hit": false,
      "t": 176065.4732249987,
      "d": 117.2413499999675,
      "v": 63
    },
    {
      "midi": 81,
      "hit": false,
      "t": 176068.92149999872,
      "d": 155.17237499993644,
      "v": 70
    },
    {
      "midi": 74,
      "hit": false,
      "t": 176162.0249249987,
      "d": 41.37929999997141,
      "v": 52
    },
    {
      "midi": 45,
      "hit": false,
      "t": 176265.47317499865,
      "d": 637.93087500002,
      "v": 56
    },
    {
      "midi": 76,
      "hit": false,
      "t": 176270.64558749864,
      "d": 124.13790000000154,
      "v": 62
    },
    {
      "midi": 73,
      "hit": false,
      "t": 176374.09383749866,
      "d": 122.41376249998575,
      "v": 63
    },
    {
      "midi": 67,
      "hit": false,
      "t": 176482.71449999863,
      "d": 101.72411250002915,
      "v": 62
    },
    {
      "midi": 64,
      "hit": false,
      "t": 176577.54206249866,
      "d": 129.3103125000198,
      "v": 52
    },
    {
      "midi": 67,
      "hit": false,
      "t": 176677.54203749867,
      "d": 120.68962499999907,
      "v": 59
    },
    {
      "midi": 81,
      "hit": false,
      "t": 176689.61099999867,
      "d": 155.17237499999464,
      "v": 75
    },
    {
      "midi": 73,
      "hit": false,
      "t": 176786.16269999868,
      "d": 98.27583749999758,
      "v": 63
    },
    {
      "midi": 74,
      "hit": false,
      "t": 176894.78336249868,
      "d": 32.75861249997979,
      "v": 67
    },
    {
      "midi": 38,
      "hit": false,
      "t": 176894.78336249868,
      "d": 455.17230000000563,
      "v": 50
    },
    {
      "midi": 74,
      "hit": false,
      "t": 177001.67988749867,
      "d": 99.99997500001336,
      "v": 56
    },
    {
      "midi": 73,
      "hit": false,
      "t": 177091.33503749868,
      "d": 136.20686249999562,
      "v": 58
    },
    {
      "midi": 71,
      "hit": false,
      "t": 177189.61087499867,
      "d": 127.586175000004,
      "v": 52
    },
    {
      "midi": 69,
      "hit": false,
      "t": 177299.95567499867,
      "d": 110.34480000002077,
      "v": 56
    },
    {
      "midi": 71,
      "hit": false,
      "t": 177399.95564999868,
      "d": 106.8965250000183,
      "v": 52
    },
    {
      "midi": 69,
      "hit": false,
      "t": 177501.6797624987,
      "d": 86.20687499997439,
      "v": 62
    },
    {
      "midi": 67,
      "hit": false,
      "t": 177606.85214999868,
      "d": 124.13790000000154,
      "v": 56
    },
    {
      "midi": 66,
      "hit": false,
      "t": 177713.74867499867,
      "d": 134.48272500000894,
      "v": 58
    },
    {
      "midi": 64,
      "hit": false,
      "t": 177827.5417499987,
      "d": 105.17238750000251,
      "v": 34
    },
    {
      "midi": 62,
      "hit": false,
      "t": 177922.3693124987,
      "d": 68.96550000002026,
      "v": 50
    },
    {
      "midi": 61,
      "hit": false,
      "t": 178022.3692874987,
      "d": 13.793100000009872,
      "v": 33
    },
    {
      "midi": 74,
      "hit": false,
      "t": 178137.8864999987,
      "d": 115.51721249998081,
      "v": 44
    },
    {
      "midi": 38,
      "hit": false,
      "t": 178143.0589124987,
      "d": 618.9653624999919,
      "v": 37
    },
    {
      "midi": 69,
      "hit": false,
      "t": 178244.7830249987,
      "d": 139.6551374999981,
      "v": 35
    },
    {
      "midi": 66,
      "hit": false,
      "t": 178343.0588624987,
      "d": 110.34479999999166,
      "v": 29
    },
    {
      "midi": 62,
      "hit": false,
      "t": 178446.5071124987,
      "d": 205.17236250001588,
      "v": 24
    },
    {
      "midi": 81,
      "hit": false,
      "t": 178551.6794999987,
      "d": 155.17237499999464,
      "v": 56
    },
    {
      "midi": 66,
      "hit": false,
      "t": 178565.4725999987,
      "d": 99.99997499998426,
      "v": 29
    },
    {
      "midi": 74,
      "hit": false,
      "t": 178656.8518874987,
      "d": 32.75861249997979,
      "v": 35
    },
    {
      "midi": 76,
      "hit": false,
      "t": 178755.1277249987,
      "d": 120.68962499996996,
      "v": 42
    },
    {
      "midi": 45,
      "hit": false,
      "t": 178755.1277249987,
      "d": 627.5860499999835,
      "v": 42
    },
    {
      "midi": 73,
      "hit": false,
      "t": 178860.30011249866,
      "d": 122.41376250001485,
      "v": 36
    },
    {
      "midi": 67,
      "hit": false,
      "t": 178972.36904999867,
      "d": 105.17238750000251,
      "v": 35
    },
    {
      "midi": 64,
      "hit": false,
      "t": 179068.92074999868,
      "d": 122.41376249998575,
      "v": 32
    },
    {
      "midi": 67,
      "hit": false,
      "t": 179170.64486249868,
      "d": 110.34479999999166,
      "v": 39
    },
    {
      "midi": 81,
      "hit": false,
      "t": 179172.36899999867,
      "d": 155.17237499999464,
      "v": 56
    },
    {
      "midi": 73,
      "hit": false,
      "t": 179263.74828749866,
      "d": 58.62067500001285,
      "v": 40
    },
    {
      "midi": 74,
      "hit": false,
      "t": 179372.36894999866,
      "d": 125.86203749998822,
      "v": 42
    },
    {
      "midi": 38,
      "hit": false,
      "t": 179382.71377499867,
      "d": 622.4136374999362,
      "v": 42
    },
    {
      "midi": 69,
      "hit": false,
      "t": 179475.81719999865,
      "d": 158.6206499999971,
      "v": 37
    },
    {
      "midi": 66,
      "hit": false,
      "t": 179584.43786249866,
      "d": 112.06893749997835,
      "v": 36
    },
    {
      "midi": 62,
      "hit": false,
      "t": 179687.88611249864,
      "d": 134.48272499997984,
      "v": 21
    },
    {
      "midi": 66,
      "hit": false,
      "t": 179791.33436249863,
      "d": 120.68962499999907,
      "v": 36
    },
    {
      "midi": 81,
      "hit": false,
      "t": 179793.05849999862,
      "d": 155.17237499999464,
      "v": 52
    },
    {
      "midi": 74,
      "hit": false,
      "t": 179894.78261249862,
      "d": 41.37930000000051,
      "v": 35
    },
    {
      "midi": 45,
      "hit": false,
      "t": 179991.3343124986,
      "d": 636.2067375000333,
      "v": 37
    },
    {
      "midi": 76,
      "hit": false,
      "t": 179998.2308624986,
      "d": 143.10341250000056,
      "v": 42
    },
    {
      "midi": 73,
      "hit": false,
      "t": 180113.7480749986,
      "d": 115.51721250000992,
      "v": 40
    },
    {
      "midi": 67,
      "hit": false,
      "t": 180215.4721874986,
      "d": 106.8965250000183,
      "v": 35
    },
    {
      "midi": 64,
      "hit": false,
      "t": 180312.02388749862,
      "d": 143.10341250000056,
      "v": 32
    },
    {
      "midi": 81,
      "hit": false,
      "t": 180413.74799999862,
      "d": 155.17237500002375,
      "v": 50
    },
    {
      "midi": 67,
      "hit": false,
      "t": 180420.64454999863,
      "d": 112.06893750000745,
      "v": 39
    },
    {
      "midi": 73,
      "hit": false,
      "t": 180515.47211249862,
      "d": 46.551712500018766,
      "v": 43
    },
    {
      "midi": 74,
      "hit": false,
      "t": 180618.92036249864,
      "d": 127.586175000004,
      "v": 42
    },
    {
      "midi": 38,
      "hit": false,
      "t": 180627.54104999863,
      "d": 618.9653624999628,
      "v": 37
    },
    {
      "midi": 69,
      "hit": false,
      "t": 180727.54102499865,
      "d": 144.82755000001634,
      "v": 37
    },
    {
      "midi": 66,
      "hit": false,
      "t": 180832.71341249865,
      "d": 103.44825000001583,
      "v": 36
    },
    {
      "midi": 62,
      "hit": false,
      "t": 180936.16166249866,
      "d": 141.37927499998477,
      "v": 32
    },
    {
      "midi": 66,
      "hit": false,
      "t": 181030.98922499866,
      "d": 117.2413499999675,
      "v": 40
    },
    {
      "midi": 81,
      "hit": false,
      "t": 181034.43749999866,
      "d": 155.17237499993644,
      "v": 52
    },
    {
      "midi": 74,
      "hit": false,
      "t": 181127.54092499864,
      "d": 41.37929999997141,
      "v": 32
    },
    {
      "midi": 45,
      "hit": false,
      "t": 181230.9891749986,
      "d": 637.93087500002,
      "v": 35
    },
    {
      "midi": 76,
      "hit": false,
      "t": 181236.1615874986,
      "d": 124.13790000000154,
      "v": 39
    },
    {
      "midi": 73,
      "hit": false,
      "t": 181339.6098374986,
      "d": 122.41376249998575,
      "v": 40
    },
    {
      "midi": 67,
      "hit": false,
      "t": 181448.23049999858,
      "d": 101.72411250002915,
      "v": 39
    },
    {
      "midi": 64,
      "hit": false,
      "t": 181543.0580624986,
      "d": 129.3103125000198,
      "v": 32
    },
    {
      "midi": 67,
      "hit": false,
      "t": 181643.05803749862,
      "d": 120.68962499999907,
      "v": 37
    },
    {
      "midi": 81,
      "hit": false,
      "t": 181655.1269999986,
      "d": 155.17237499999464,
      "v": 44
    },
    {
      "midi": 73,
      "hit": false,
      "t": 181751.67869999862,
      "d": 98.27583749999758,
      "v": 40
    },
    {
      "midi": 74,
      "hit": false,
      "t": 181860.29936249863,
      "d": 32.75861249997979,
      "v": 42
    },
    {
      "midi": 38,
      "hit": false,
      "t": 181860.29936249863,
      "d": 455.17230000000563,
      "v": 32
    },
    {
      "midi": 74,
      "hit": false,
      "t": 181967.19588749862,
      "d": 99.99997500001336,
      "v": 35
    },
    {
      "midi": 73,
      "hit": false,
      "t": 182056.85103749862,
      "d": 136.20686249999562,
      "v": 36
    },
    {
      "midi": 71,
      "hit": false,
      "t": 182155.12687499862,
      "d": 127.586175000004,
      "v": 32
    },
    {
      "midi": 69,
      "hit": false,
      "t": 182265.4716749986,
      "d": 110.34480000002077,
      "v": 35
    },
    {
      "midi": 71,
      "hit": false,
      "t": 182365.47164999862,
      "d": 106.8965250000183,
      "v": 32
    },
    {
      "midi": 69,
      "hit": false,
      "t": 182467.19576249865,
      "d": 86.20687499997439,
      "v": 39
    },
    {
      "midi": 67,
      "hit": false,
      "t": 182572.36814999863,
      "d": 124.13790000000154,
      "v": 56
    },
    {
      "midi": 66,
      "hit": false,
      "t": 182679.26467499862,
      "d": 134.48272500000894,
      "v": 58
    },
    {
      "midi": 64,
      "hit": false,
      "t": 182793.05774999864,
      "d": 105.17238750000251,
      "v": 34
    },
    {
      "midi": 62,
      "hit": false,
      "t": 182887.88531249863,
      "d": 68.96550000002026,
      "v": 50
    },
    {
      "midi": 61,
      "hit": false,
      "t": 182987.88528749865,
      "d": 13.793100000009872,
      "v": 33
    },
    {
      "midi": 62,
      "hit": false,
      "t": 183099.95422499866,
      "d": 13.793100000009872,
      "v": 56
    },
    {
      "midi": 50,
      "hit": false,
      "t": 183113.74732499867,
      "d": 194.82753750000848,
      "v": 56
    },
    {
      "midi": 77,
      "hit": false,
      "t": 183301.67831249867,
      "d": 474.13781250000466,
      "v": 59
    },
    {
      "midi": 62,
      "hit": false,
      "t": 183308.57486249867,
      "d": 213.7930499999784,
      "v": 44
    },
    {
      "midi": 65,
      "hit": false,
      "t": 183308.57486249867,
      "d": 456.8964374999923,
      "v": 52
    },
    {
      "midi": 60,
      "hit": false,
      "t": 183517.19549999866,
      "d": 203.4482250000001,
      "v": 39
    },
    {
      "midi": 58,
      "hit": false,
      "t": 183727.54027499867,
      "d": 198.27581249998184,
      "v": 40
    },
    {
      "midi": 77,
      "hit": false,
      "t": 183920.64367499866,
      "d": 432.75851250000414,
      "v": 67
    },
    {
      "midi": 65,
      "hit": false,
      "t": 183925.81608749865,
      "d": 415.5171375000209,
      "v": 59
    },
    {
      "midi": 62,
      "hit": false,
      "t": 183936.16091249866,
      "d": 215.51718750002328,
      "v": 44
    },
    {
      "midi": 57,
      "hit": false,
      "t": 184137.88499999867,
      "d": 218.96546249999665,
      "v": 44
    },
    {
      "midi": 55,
      "hit": false,
      "t": 184348.22977499868,
      "d": 403.4481749999686,
      "v": 52
    },
    {
      "midi": 79,
      "hit": false,
      "t": 184549.95386249866,
      "d": 31.034474999993108,
      "v": 62
    },
    {
      "midi": 67,
      "hit": false,
      "t": 184556.85041249866,
      "d": 24.137924999988172,
      "v": 47
    },
    {
      "midi": 76,
      "hit": false,
      "t": 184746.50553749866,
      "d": 32.75861249997979,
      "v": 62
    },
    {
      "midi": 43,
      "hit": false,
      "t": 184751.67794999864,
      "d": 12.068962499994086,
      "v": 50
    },
    {
      "midi": 64,
      "hit": false,
      "t": 184751.67794999864,
      "d": 27.58619999999064,
      "v": 42
    },
    {
      "midi": 74,
      "hit": false,
      "t": 184951.67789999864,
      "d": 124.13789999997243,
      "v": 59
    },
    {
      "midi": 62,
      "hit": false,
      "t": 184956.85031249863,
      "d": 98.27583749999758,
      "v": 47
    },
    {
      "midi": 45,
      "hit": false,
      "t": 184963.74686249864,
      "d": 408.62058749995776,
      "v": 62
    },
    {
      "midi": 62,
      "hit": false,
      "t": 185167.1950874986,
      "d": 41.37930000000051,
      "v": 34
    },
    {
      "midi": 74,
      "hit": false,
      "t": 185167.1950874986,
      "d": 46.55171249998966,
      "v": 52
    },
    {
      "midi": 73,
      "hit": false,
      "t": 185372.3674499986,
      "d": 34.482749999995576,
      "v": 63
    },
    {
      "midi": 61,
      "hit": false,
      "t": 185379.2639999986,
      "d": 20.689649999985704,
      "v": 39
    },
    {
      "midi": 57,
      "hit": false,
      "t": 185391.3329624986,
      "d": 15.517237499996554,
      "v": 50
    },
    {
      "midi": 74,
      "hit": false,
      "t": 185574.09153749858,
      "d": 43.1034375000163,
      "v": 62
    },
    {
      "midi": 62,
      "hit": false,
      "t": 185580.98808749858,
      "d": 18.965512499999022,
      "v": 44
    },
    {
      "midi": 50,
      "hit": false,
      "t": 185587.8846374986,
      "d": 187.93098750000354,
      "v": 35
    },
    {
      "midi": 78,
      "hit": false,
      "t": 185775.8156249986,
      "d": 481.0343624999514,
      "v": 47
    },
    {
      "midi": 62,
      "hit": false,
      "t": 185782.7121749986,
      "d": 218.96546249996754,
      "v": 32
    },
    {
      "midi": 66,
      "hit": false,
      "t": 185782.7121749986,
      "d": 467.2412624999415,
      "v": 35
    },
    {
      "midi": 61,
      "hit": false,
      "t": 185994.78108749856,
      "d": 198.27581249998184,
      "v": 24
    },
    {
      "midi": 59,
      "hit": false,
      "t": 186199.95344999855,
      "d": 198.27581249998184,
      "v": 32
    },
    {
      "midi": 78,
      "hit": false,
      "t": 186389.60857499854,
      "d": 443.10333749995334,
      "v": 43
    },
    {
      "midi": 66,
      "hit": false,
      "t": 186398.22926249853,
      "d": 427.5860999999568,
      "v": 32
    },
    {
      "midi": 62,
      "hit": false,
      "t": 186412.0223624985,
      "d": 210.34477499997593,
      "v": 28
    },
    {
      "midi": 57,
      "hit": false,
      "t": 186613.7464499985,
      "d": 208.62063749998924,
      "v": 28
    },
    {
      "midi": 55,
      "hit": false,
      "t": 186817.1946749985,
      "d": 434.4826499999617,
      "v": 32
    },
    {
      "midi": 79,
      "hit": false,
      "t": 187025.81531249848,
      "d": 29.310337499977322,
      "v": 37
    },
    {
      "midi": 67,
      "hit": false,
      "t": 187030.98772499847,
      "d": 29.310337499977322,
      "v": 28
    },
    {
      "midi": 43,
      "hit": false,
      "t": 187236.16008749846,
      "d": 15.517237499996554,
      "v": 29
    },
    {
      "midi": 76,
      "hit": false,
      "t": 187236.16008749846,
      "d": 32.758612500008894,
      "v": 39
    },
    {
      "midi": 64,
      "hit": false,
      "t": 187244.78077499845,
      "d": 27.586200000019744,
      "v": 26
    },
    {
      "midi": 74,
      "hit": false,
      "t": 187439.60831249846,
      "d": 67.24136249997537,
      "v": 42
    },
    {
      "midi": 62,
      "hit": false,
      "t": 187446.50486249846,
      "d": 46.55171249998966,
      "v": 32
    },
    {
      "midi": 45,
      "hit": false,
      "t": 187446.50486249846,
      "d": 410.34472499997355,
      "v": 35
    },
    {
      "midi": 74,
      "hit": false,
      "t": 187643.05653749843,
      "d": 51.724125000007916,
      "v": 39
    },
    {
      "midi": 62,
      "hit": false,
      "t": 187649.95308749843,
      "d": 31.034474999993108,
      "v": 28
    },
    {
      "midi": 61,
      "hit": false,
      "t": 187848.22889999844,
      "d": 27.58619999999064,
      "v": 32
    },
    {
      "midi": 73,
      "hit": false,
      "t": 187848.22889999844,
      "d": 32.75861249997979,
      "v": 36
    },
    {
      "midi": 57,
      "hit": false,
      "t": 187868.91854999843,
      "d": 18.965512499999022,
      "v": 22
    },
    {
      "midi": 62,
      "hit": false,
      "t": 188049.9529874984,
      "d": 22.41378750000149,
      "v": 24
    },
    {
      "midi": 74,
      "hit": false,
      "t": 188049.9529874984,
      "d": 32.75861249997979,
      "v": 39
    },
    {
      "midi": 50,
      "hit": false,
      "t": 188063.7460874984,
      "d": 399.99989999993704,
      "v": 32
    },
    {
      "midi": 74,
      "hit": false,
      "t": 188256.84948749837,
      "d": 18.965512499999022,
      "v": 56
    },
    {
      "midi": 86,
      "hit": false,
      "t": 188256.84948749837,
      "d": 18.965512499999022,
      "v": 67
    },
    {
      "midi": 83,
      "hit": false,
      "t": 188453.40116249834,
      "d": 212.0689124999917,
      "v": 70
    },
    {
      "midi": 71,
      "hit": false,
      "t": 188453.40116249834,
      "d": 218.96546249999665,
      "v": 56
    },
    {
      "midi": 62,
      "hit": false,
      "t": 188463.74598749835,
      "d": 201.7240874999843,
      "v": 56
    },
    {
      "midi": 61,
      "hit": false,
      "t": 188658.57352499833,
      "d": 446.5516124999849,
      "v": 62
    },
    {
      "midi": 81,
      "hit": false,
      "t": 188867.19416249832,
      "d": 37.931024999998044,
      "v": 62
    },
    {
      "midi": 69,
      "hit": false,
      "t": 188874.09071249832,
      "d": 25.862062500003958,
      "v": 47
    },
    {
      "midi": 79,
      "hit": false,
      "t": 189077.53893749832,
      "d": 37.931024999998044,
      "v": 59
    },
    {
      "midi": 67,
      "hit": false,
      "t": 189084.43548749833,
      "d": 24.137924999988172,
      "v": 47
    },
    {
      "midi": 59,
      "hit": false,
      "t": 189089.60789999831,
      "d": 25.862062500003958,
      "v": 45
    },
    {
      "midi": 66,
      "hit": false,
      "t": 189272.36647499833,
      "d": 17.24137500001234,
      "v": 47
    },
    {
      "midi": 78,
      "hit": false,
      "t": 189279.26302499833,
      "d": 29.310337500006426,
      "v": 58
    },
    {
      "midi": 50,
      "hit": false,
      "t": 189296.50439999835,
      "d": 410.34472499997355,
      "v": 41
    },
    {
      "midi": 86,
      "hit": false,
      "t": 189482.71124999833,
      "d": 25.862062499974854,
      "v": 39
    },
    {
      "midi": 74,
      "hit": false,
      "t": 189487.88366249832,
      "d": 20.689649999985704,
      "v": 28
    },
    {
      "midi": 82,
      "hit": false,
      "t": 189687.88361249832,
      "d": 210.34477499997593,
      "v": 47
    },
    {
      "midi": 55,
      "hit": false,
      "t": 189694.78016249833,
      "d": 217.24132499998086,
      "v": 37
    },
    {
      "midi": 70,
      "hit": false,
      "t": 189694.78016249833,
      "d": 231.03442499999073,
      "v": 32
    },
    {
      "midi": 57,
      "hit": false,
      "t": 189894.7801124983,
      "d": 462.0688500000397,
      "v": 35
    },
    {
      "midi": 81,
      "hit": false,
      "t": 190099.9524749983,
      "d": 37.931024999998044,
      "v": 37
    },
    {
      "midi": 69,
      "hit": false,
      "t": 190105.1248874983,
      "d": 32.758612500008894,
      "v": 32
    },
    {
      "midi": 67,
      "hit": false,
      "t": 190332.71103749832,
      "d": 37.931024999998044,
      "v": 21
    },
    {
      "midi": 79,
      "hit": false,
      "t": 190332.71103749832,
      "d": 41.37930000000051,
      "v": 29
    },
    {
      "midi": 45,
      "hit": false,
      "t": 190343.05586249832,
      "d": 18.965512499999022,
      "v": 20
    },
    {
      "midi": 65,
      "hit": false,
      "t": 190548.22822499834,
      "d": 20.689649999985704,
      "v": 32
    },
    {
      "midi": 77,
      "hit": false,
      "t": 190553.40063749833,
      "d": 37.931024999998044,
      "v": 36
    },
    {
      "midi": 50,
      "hit": false,
      "t": 190563.74546249834,
      "d": 398.27576250000857,
      "v": 52
    },
    {
      "midi": 86,
      "hit": false,
      "t": 190755.12472499834,
      "d": 32.758612500008894,
      "v": 67
    },
    {
      "midi": 74,
      "hit": false,
      "t": 190760.29713749833,
      "d": 13.793100000009872,
      "v": 52
    },
    {
      "midi": 83,
      "hit": false,
      "t": 190956.84881249836,
      "d": 217.24132500000997,
      "v": 70
    },
    {
      "midi": 71,
      "hit": false,
      "t": 190962.02122499835,
      "d": 222.41373750002822,
      "v": 50
    },
    {
      "midi": 62,
      "hit": false,
      "t": 190974.09018749834,
      "d": 196.55167500002426,
      "v": 50
    },
    {
      "midi": 61,
      "hit": false,
      "t": 191163.74531249836,
      "d": 446.551612500014,
      "v": 48
    },
    {
      "midi": 81,
      "hit": false,
      "t": 191370.64181249836,
      "d": 32.758612500008894,
      "v": 62
    },
    {
      "midi": 69,
      "hit": false,
      "t": 191377.53836249837,
      "d": 25.862062500003958,
      "v": 44
    },
    {
      "midi": 79,
      "hit": false,
      "t": 191584.43486249837,
      "d": 36.20688749998226,
      "v": 52
    },
    {
      "midi": 67,
      "hit": false,
      "t": 191591.33141249837,
      "d": 24.137924999988172,
      "v": 36
    },
    {
      "midi": 59,
      "hit": false,
      "t": 191598.22796249838,
      "d": 27.586199999961536,
      "v": 43
    },
    {
      "midi": 66,
      "hit": false,
      "t": 191777.5382624983,
      "d": 12.068962499994086,
      "v": 44
    },
    {
      "midi": 78,
      "hit": false,
      "t": 191782.7106749983,
      "d": 27.58619999999064,
      "v": 55
    },
    {
      "midi": 50,
      "hit": false,
      "t": 191793.0554999983,
      "d": 399.99989999993704,
      "v": 29
    },
    {
      "midi": 86,
      "hit": false,
      "t": 191980.98648749827,
      "d": 32.75861249997979,
      "v": 42
    },
    {
      "midi": 74,
      "hit": false,
      "t": 191986.15889999826,
      "d": 20.689649999985704,
      "v": 20
    },
    {
      "midi": 82,
      "hit": false,
      "t": 192175.81402499825,
      "d": 255.1723499998916,
      "v": 47
    },
    {
      "midi": 55,
      "hit": false,
      "t": 192184.43471249825,
      "d": 222.4137374999118,
      "v": 32
    },
    {
      "midi": 70,
      "hit": false,
      "t": 192184.43471249825,
      "d": 284.482687499898,
      "v": 28
    },
    {
      "midi": 57,
      "hit": false,
      "t": 192391.3312124982,
      "d": 463.79298749993904,
      "v": 32
    },
    {
      "midi": 81,
      "hit": false,
      "t": 192601.67598749814,
      "d": 34.482749999995576,
      "v": 39
    },
    {
      "midi": 69,
      "hit": false,
      "t": 192606.84839999813,
      "d": 25.862062500003958,
      "v": 32
    },
    {
      "midi": 79,
      "hit": false,
      "t": 192818.91731249815,
      "d": 48.275849999976344,
      "v": 28
    },
    {
      "midi": 67,
      "hit": false,
      "t": 192824.08972499814,
      "d": 39.655162499984726,
      "v": 12
    },
    {
      "midi": 45,
      "hit": false,
      "t": 192830.98627499814,
      "d": 46.55171249998966,
      "v": 18
    },
    {
      "midi": 77,
      "hit": false,
      "t": 193030.98622499817,
      "d": 53.4482624999946,
      "v": 47
    },
    {
      "midi": 50,
      "hit": false,
      "t": 193032.71036249815,
      "d": 198.27581250001094,
      "v": 36
    },
    {
      "midi": 65,
      "hit": false,
      "t": 193049.95173749817,
      "d": 34.482749999995576,
      "v": 14
    },
    {
      "midi": 76,
      "hit": false,
      "t": 193239.60686249816,
      "d": 48.275849999976344,
      "v": 50
    },
    {
      "midi": 52,
      "hit": false,
      "t": 193244.77927499815,
      "d": 201.7240874999843,
      "v": 34
    },
    {
      "midi": 62,
      "hit": false,
      "t": 193434.43439999814,
      "d": 18.965512499999022,
      "v": 41
    },
    {
      "midi": 74,
      "hit": false,
      "t": 193439.60681249812,
      "d": 31.034475000022212,
      "v": 52
    },
    {
      "midi": 53,
      "hit": false,
      "t": 193446.50336249813,
      "d": 210.34477500000503,
      "v": 45
    },
    {
      "midi": 67,
      "hit": false,
      "t": 193648.22744999814,
      "d": 36.206887499953154,
      "v": 47
    },
    {
      "midi": 79,
      "hit": false,
      "t": 193648.22744999814,
      "d": 44.82757499994477,
      "v": 59
    },
    {
      "midi": 55,
      "hit": false,
      "t": 193658.57227499812,
      "d": 181.0344374999695,
      "v": 41
    },
    {
      "midi": 77,
      "hit": false,
      "t": 193839.6067124981,
      "d": 51.724125000007916,
      "v": 67
    },
    {
      "midi": 65,
      "hit": false,
      "t": 193846.5032624981,
      "d": 31.034474999993108,
      "v": 50
    },
    {
      "midi": 57,
      "hit": false,
      "t": 193856.8480874981,
      "d": 205.17236249998678,
      "v": 36
    },
    {
      "midi": 45,
      "hit": false,
      "t": 194044.7790749981,
      "d": 22.413787499972386,
      "v": 50
    },
    {
      "midi": 76,
      "hit": false,
      "t": 194049.9514874981,
      "d": 31.034474999993108,
      "v": 67
    },
    {
      "midi": 64,
      "hit": false,
      "t": 194055.12389999809,
      "d": 22.41378750000149,
      "v": 40
    },
    {
      "midi": 62,
      "hit": false,
      "t": 194241.33074999807,
      "d": 15.51723749996745,
      "v": 56
    },
    {
      "midi": 74,
      "hit": false,
      "t": 194246.50316249806,
      "d": 32.75861249995069,
      "v": 62
    },
    {
      "midi": 50,
      "hit": false,
      "t": 194251.67557499805,
      "d": 270.68958749994636,
      "v": 62
    },
    {
      "midi": 69,
      "hit": false,
      "t": 194455.12379999802,
      "d": 34.482749999995576,
      "v": 52
    },
    {
      "midi": 81,
      "hit": false,
      "t": 194456.847937498,
      "d": 34.482749999995576,
      "v": 62
    },
    {
      "midi": 66,
      "hit": false,
      "t": 194658.572024998,
      "d": 20.689649999985704,
      "v": 55
    },
    {
      "midi": 78,
      "hit": false,
      "t": 194658.572024998,
      "d": 34.482749999995576,
      "v": 74
    },
    {
      "midi": 50,
      "hit": false,
      "t": 194670.640987498,
      "d": 184.48271250000107,
      "v": 59
    },
    {
      "midi": 83,
      "hit": false,
      "t": 194865.468524998,
      "d": 36.20688749998226,
      "v": 67
    },
    {
      "midi": 71,
      "hit": false,
      "t": 194867.19266249798,
      "d": 34.482749999995576,
      "v": 59
    },
    {
      "midi": 55,
      "hit": false,
      "t": 194867.19266249798,
      "d": 205.17236249998678,
      "v": 62
    },
    {
      "midi": 67,
      "hit": false,
      "t": 195058.571924998,
      "d": 24.137924999988172,
      "v": 62
    },
    {
      "midi": 79,
      "hit": false,
      "t": 195060.29606249798,
      "d": 41.37930000000051,
      "v": 67
    },
    {
      "midi": 52,
      "hit": false,
      "t": 195067.19261249798,
      "d": 217.24132500000997,
      "v": 67
    },
    {
      "midi": 73,
      "hit": false,
      "t": 195267.19256249798,
      "d": 31.034475000022212,
      "v": 55
    },
    {
      "midi": 85,
      "hit": false,
      "t": 195267.19256249798,
      "d": 37.93102500002715,
      "v": 80
    },
    {
      "midi": 57,
      "hit": false,
      "t": 195274.08911249798,
      "d": 31.034475000022212,
      "v": 52
    },
    {
      "midi": 86,
      "hit": false,
      "t": 195489.60629999803,
      "d": 31.034474999964004,
      "v": 70
    },
    {
      "midi": 74,
      "hit": false,
      "t": 195494.77871249802,
      "d": 31.034474999964004,
      "v": 62
    },
    {
      "midi": 62,
      "hit": false,
      "t": 195499.951124998,
      "d": 186.20684999998775,
      "v": 50
    },
    {
      "midi": 54,
      "hit": false,
      "t": 195499.951124998,
      "d": 215.51718749999418,
      "v": 63
    },
    {
      "midi": 69,
      "hit": false,
      "t": 195699.951074998,
      "d": 32.758612500008894,
      "v": 52
    },
    {
      "midi": 81,
      "hit": false,
      "t": 195699.951074998,
      "d": 36.20688750001136,
      "v": 62
    },
    {
      "midi": 50,
      "hit": false,
      "t": 195718.916587498,
      "d": 217.24132500000997,
      "v": 52
    },
    {
      "midi": 66,
      "hit": false,
      "t": 195913.74412499802,
      "d": 13.793100000009872,
      "v": 40
    },
    {
      "midi": 78,
      "hit": false,
      "t": 195913.74412499802,
      "d": 29.310337500006426,
      "v": 55
    },
    {
      "midi": 54,
      "hit": false,
      "t": 195927.53722499803,
      "d": 91.37928749999264,
      "v": 47
    },
    {
      "midi": 83,
      "hit": false,
      "t": 196127.53717499803,
      "d": 41.37929999997141,
      "v": 67
    },
    {
      "midi": 71,
      "hit": false,
      "t": 196132.70958749802,
      "d": 32.75861249997979,
      "v": 52
    },
    {
      "midi": 55,
      "hit": false,
      "t": 196137.881999998,
      "d": 196.55167499999516,
      "v": 47
    },
    {
      "midi": 62,
      "hit": false,
      "t": 196137.881999998,
      "d": 387.93093750000116,
      "v": 31
    },
    {
      "midi": 67,
      "hit": false,
      "t": 196327.537124998,
      "d": 22.41378750000149,
      "v": 52
    },
    {
      "midi": 79,
      "hit": false,
      "t": 196334.433674998,
      "d": 29.310337500006426,
      "v": 62
    },
    {
      "midi": 52,
      "hit": false,
      "t": 196334.433674998,
      "d": 215.51718749999418,
      "v": 52
    },
    {
      "midi": 85,
      "hit": false,
      "t": 196537.881899998,
      "d": 36.20688750001136,
      "v": 80
    },
    {
      "midi": 73,
      "hit": false,
      "t": 196544.778449998,
      "d": 15.517237499996554,
      "v": 55
    },
    {
      "midi": 57,
      "hit": false,
      "t": 196549.950862498,
      "d": 24.137925000017276,
      "v": 50
    },
    {
      "midi": 86,
      "hit": false,
      "t": 196737.88184999803,
      "d": 37.931024999998044,
      "v": 70
    },
    {
      "midi": 74,
      "hit": false,
      "t": 196743.05426249802,
      "d": 32.758612500008894,
      "v": 62
    },
    {
      "midi": 62,
      "hit": false,
      "t": 196749.95081249802,
      "d": 115.51721250000992,
      "v": 29
    },
    {
      "midi": 54,
      "hit": false,
      "t": 196749.95081249802,
      "d": 213.7930500000075,
      "v": 47
    },
    {
      "midi": 81,
      "hit": false,
      "t": 196951.67489999803,
      "d": 39.655162499984726,
      "v": 56
    },
    {
      "midi": 69,
      "hit": false,
      "t": 196958.57144999804,
      "d": 18.96551249996992,
      "v": 47
    },
    {
      "midi": 50,
      "hit": false,
      "t": 196968.91627499802,
      "d": 172.41375000000698,
      "v": 44
    },
    {
      "midi": 66,
      "hit": false,
      "t": 197151.67484999803,
      "d": 13.793099999980768,
      "v": 44
    },
    {
      "midi": 78,
      "hit": false,
      "t": 197151.67484999803,
      "d": 27.58619999999064,
      "v": 63
    },
    {
      "midi": 54,
      "hit": false,
      "t": 197160.29553749802,
      "d": 74.1379125000094,
      "v": 32
    },
    {
      "midi": 71,
      "hit": false,
      "t": 197356.84721249802,
      "d": 32.758612500008894,
      "v": 41
    },
    {
      "midi": 83,
      "hit": false,
      "t": 197356.84721249802,
      "d": 32.758612500008894,
      "v": 59
    },
    {
      "midi": 55,
      "hit": false,
      "t": 197367.19203749803,
      "d": 194.82753750000848,
      "v": 50
    },
    {
      "midi": 62,
      "hit": false,
      "t": 197372.36444999801,
      "d": 210.34477500000503,
      "v": 21
    },
    {
      "midi": 67,
      "hit": false,
      "t": 197553.39888749804,
      "d": 22.413787499972386,
      "v": 50
    },
    {
      "midi": 79,
      "hit": false,
      "t": 197553.39888749804,
      "d": 37.93102499996894,
      "v": 62
    },
    {
      "midi": 52,
      "hit": false,
      "t": 197567.19198749802,
      "d": 205.17236249998678,
      "v": 50
    },
    {
      "midi": 73,
      "hit": false,
      "t": 197753.398837498,
      "d": 22.41378750000149,
      "v": 50
    },
    {
      "midi": 85,
      "hit": false,
      "t": 197755.122974998,
      "d": 34.48275000002468,
      "v": 68
    },
    {
      "midi": 57,
      "hit": false,
      "t": 197765.467799998,
      "d": 143.10341250002966,
      "v": 41
    },
    {
      "midi": 86,
      "hit": false,
      "t": 197953.39878749804,
      "d": 34.48274999996647,
      "v": 67
    },
    {
      "midi": 74,
      "hit": false,
      "t": 197958.57119999803,
      "d": 29.310337499977322,
      "v": 56
    },
    {
      "midi": 62,
      "hit": false,
      "t": 197958.57119999803,
      "d": 210.34477499997593,
      "v": 41
    },
    {
      "midi": 54,
      "hit": false,
      "t": 197970.64016249802,
      "d": 198.27581249998184,
      "v": 50
    },
    {
      "midi": 81,
      "hit": false,
      "t": 198163.743562498,
      "d": 206.89649999997346,
      "v": 62
    },
    {
      "midi": 50,
      "hit": false,
      "t": 198174.088387498,
      "d": 212.0689124999917,
      "v": 41
    },
    {
      "midi": 78,
      "hit": false,
      "t": 198179.26079999798,
      "d": 158.6206499999971,
      "v": 50
    },
    {
      "midi": 79,
      "hit": false,
      "t": 198379.26074999798,
      "d": 225.86201250000158,
      "v": 50
    },
    {
      "midi": 55,
      "hit": false,
      "t": 198387.88143749797,
      "d": 208.62063750001835,
      "v": 47
    },
    {
      "midi": 76,
      "hit": false,
      "t": 198387.88143749797,
      "d": 208.62063750001835,
      "v": 52
    },
    {
      "midi": 78,
      "hit": false,
      "t": 198596.502074998,
      "d": 29.310337499977322,
      "v": 68
    },
    {
      "midi": 74,
      "hit": false,
      "t": 198596.502074998,
      "d": 36.20688749998226,
      "v": 52
    },
    {
      "midi": 57,
      "hit": false,
      "t": 198606.84689999797,
      "d": 424.1378249999834,
      "v": 50
    },
    {
      "midi": 78,
      "hit": false,
      "t": 198813.74339999797,
      "d": 217.24132499998086,
      "v": 50
    },
    {
      "midi": 74,
      "hit": false,
      "t": 198822.36408749796,
      "d": 149.9999625000055,
      "v": 29
    },
    {
      "midi": 76,
      "hit": false,
      "t": 199022.36403749796,
      "d": 34.482749999995576,
      "v": 59
    },
    {
      "midi": 45,
      "hit": false,
      "t": 199030.98472499795,
      "d": 17.24137500001234,
      "v": 41
    },
    {
      "midi": 69,
      "hit": false,
      "t": 199030.98472499795,
      "d": 20.689650000014808,
      "v": 47
    },
    {
      "midi": 38,
      "hit": false,
      "t": 199243.05363749794,
      "d": 415.5171374999918,
      "v": 67
    },
    {
      "midi": 66,
      "hit": false,
      "t": 199248.22604999793,
      "d": 31.034474999993108,
      "v": 55
    },
    {
      "midi": 74,
      "hit": false,
      "t": 199248.22604999793,
      "d": 37.931024999998044,
      "v": 59
    },
    {
      "midi": 66,
      "hit": false,
      "t": 199448.22599999793,
      "d": 25.862062500003958,
      "v": 35
    },
    {
      "midi": 74,
      "hit": false,
      "t": 199455.12254999793,
      "d": 79.31032499999856,
      "v": 50
    },
    {
      "midi": 76,
      "hit": false,
      "t": 199658.57077499793,
      "d": 72.41377499999362,
      "v": 56
    },
    {
      "midi": 69,
      "hit": false,
      "t": 199668.91559999794,
      "d": 160.3447874999838,
      "v": 47
    },
    {
      "midi": 66,
      "hit": false,
      "t": 199851.67417499793,
      "d": 32.75861249997979,
      "v": 55
    },
    {
      "midi": 74,
      "hit": false,
      "t": 199856.84658749792,
      "d": 34.482749999995576,
      "v": 62
    },
    {
      "midi": 38,
      "hit": false,
      "t": 199856.84658749792,
      "d": 406.8964500000002,
      "v": 59
    },
    {
      "midi": 66,
      "hit": false,
      "t": 200056.8465374979,
      "d": 25.862062500003958,
      "v": 40
    },
    {
      "midi": 74,
      "hit": false,
      "t": 200063.74308749792,
      "d": 89.65515000000596,
      "v": 52
    },
    {
      "midi": 76,
      "hit": false,
      "t": 200263.74303749792,
      "d": 53.4482624999946,
      "v": 59
    },
    {
      "midi": 69,
      "hit": false,
      "t": 200274.08786249792,
      "d": 151.72409999999218,
      "v": 41
    },
    {
      "midi": 66,
      "hit": false,
      "t": 200474.08781249786,
      "d": 8.620687499991618,
      "v": 47
    },
    {
      "midi": 38,
      "hit": false,
      "t": 200479.26022499785,
      "d": 3.448275000002468,
      "v": 41
    },
    {
      "midi": 74,
      "hit": false,
      "t": 200479.26022499785,
      "d": 3.448275000002468,
      "v": 59
    },
    {
      "midi": 76,
      "hit": false,
      "t": 200663.74293749785,
      "d": 165.51720000000205,
      "v": 59
    },
    {
      "midi": 69,
      "hit": false,
      "t": 200668.91534999784,
      "d": 32.758612500008894,
      "v": 44
    },
    {
      "midi": 74,
      "hit": false,
      "t": 200879.26012499785,
      "d": 193.1033999999927,
      "v": 59
    },
    {
      "midi": 66,
      "hit": false,
      "t": 200884.43253749784,
      "d": 37.931024999998044,
      "v": 44
    },
    {
      "midi": 38,
      "hit": false,
      "t": 200889.60494999783,
      "d": 236.206837500009,
      "v": 52
    },
    {
      "midi": 69,
      "hit": false,
      "t": 201096.50144999783,
      "d": 41.37930000000051,
      "v": 44
    },
    {
      "midi": 76,
      "hit": false,
      "t": 201096.50144999783,
      "d": 191.379262500006,
      "v": 62
    },
    {
      "midi": 74,
      "hit": false,
      "t": 201303.39794999783,
      "d": 177.58616249996703,
      "v": 47
    },
    {
      "midi": 66,
      "hit": false,
      "t": 201305.12208749782,
      "d": 36.20688749998226,
      "v": 50
    },
    {
      "midi": 38,
      "hit": false,
      "t": 201310.2944999978,
      "d": 256.8964874999947,
      "v": 44
    },
    {
      "midi": 69,
      "hit": false,
      "t": 201510.2944499978,
      "d": 34.482749999995576,
      "v": 34
    },
    {
      "midi": 76,
      "hit": false,
      "t": 201515.4668624978,
      "d": 184.48271250000107,
      "v": 62
    },
    {
      "midi": 74,
      "hit": false,
      "t": 201724.08749999778,
      "d": 37.931024999998044,
      "v": 56
    },
    {
      "midi": 66,
      "hit": false,
      "t": 201734.4323249978,
      "d": 365.5171500000579,
      "v": 50
    },
    {
      "midi": 38,
      "hit": false,
      "t": 201739.60473749778,
      "d": 353.4481875000638,
      "v": 56
    },
    {
      "midi": 76,
      "hit": false,
      "t": 201775.8116249978,
      "d": 37.931024999998044,
      "v": 34
    },
    {
      "midi": 74,
      "hit": false,
      "t": 201827.5357499978,
      "d": 37.931024999998044,
      "v": 34
    },
    {
      "midi": 76,
      "hit": false,
      "t": 201879.2598749978,
      "d": 37.931024999998044,
      "v": 34
    },
    {
      "midi": 74,
      "hit": false,
      "t": 201930.9839999978,
      "d": 37.931024999998044,
      "v": 32
    },
    {
      "midi": 76,
      "hit": false,
      "t": 201982.70812499782,
      "d": 37.931024999998044,
      "v": 34
    },
    {
      "midi": 74,
      "hit": false,
      "t": 202034.43224999783,
      "d": 37.931024999998044,
      "v": 36
    },
    {
      "midi": 76,
      "hit": false,
      "t": 202086.15637499784,
      "d": 37.931024999998044,
      "v": 36
    },
    {
      "midi": 74,
      "hit": false,
      "t": 202137.88049999785,
      "d": 31.034474999993108,
      "v": 36
    },
    {
      "midi": 76,
      "hit": false,
      "t": 202189.60462499782,
      "d": 37.931024999998044,
      "v": 34
    },
    {
      "midi": 74,
      "hit": false,
      "t": 202241.32874999783,
      "d": 37.931024999998044,
      "v": 32
    },
    {
      "midi": 76,
      "hit": false,
      "t": 202293.05287499784,
      "d": 37.931024999998044,
      "v": 36
    },
    {
      "midi": 74,
      "hit": false,
      "t": 202344.77699999785,
      "d": 572.4136500000022,
      "v": 41
    },
    {
      "midi": 45,
      "hit": false,
      "t": 202965.46649999786,
      "d": 155.17237499999464,
      "v": 22
    },
    {
      "midi": 69,
      "hit": false,
      "t": 203172.36299999786,
      "d": 155.17237499999464,
      "v": 28
    },
    {
      "midi": 73,
      "hit": false,
      "t": 203172.36299999786,
      "d": 155.17237499999464,
      "v": 25
    },
    {
      "midi": 71,
      "hit": false,
      "t": 203379.25949999786,
      "d": 155.17237499999464,
      "v": 28
    },
    {
      "midi": 74,
      "hit": false,
      "t": 203379.25949999786,
      "d": 155.17237499999464,
      "v": 32
    },
    {
      "midi": 69,
      "hit": false,
      "t": 203582.70772499786,
      "d": 224.1378750000149,
      "v": 25
    },
    {
      "midi": 73,
      "hit": false,
      "t": 203586.15599999786,
      "d": 155.17237499999464,
      "v": 28
    },
    {
      "midi": 76,
      "hit": false,
      "t": 203586.15599999786,
      "d": 155.17237499999464,
      "v": 32
    },
    {
      "midi": 73,
      "hit": false,
      "t": 203793.05249999787,
      "d": 155.17237500002375,
      "v": 32
    },
    {
      "midi": 76,
      "hit": false,
      "t": 203793.05249999787,
      "d": 155.17237500002375,
      "v": 32
    },
    {
      "midi": 67,
      "hit": false,
      "t": 203806.84559999788,
      "d": 206.89650000003166,
      "v": 25
    },
    {
      "midi": 74,
      "hit": false,
      "t": 203999.9489999979,
      "d": 155.17237500002375,
      "v": 24
    },
    {
      "midi": 78,
      "hit": false,
      "t": 203999.9489999979,
      "d": 155.17237500002375,
      "v": 29
    },
    {
      "midi": 66,
      "hit": false,
      "t": 204013.7420999979,
      "d": 189.65512500001932,
      "v": 28
    },
    {
      "midi": 64,
      "hit": false,
      "t": 204203.39722499793,
      "d": 606.8963999999978,
      "v": 32
    },
    {
      "midi": 76,
      "hit": false,
      "t": 204206.84549999793,
      "d": 155.17237499999464,
      "v": 35
    },
    {
      "midi": 79,
      "hit": false,
      "t": 204206.84549999793,
      "d": 155.17237499999464,
      "v": 32
    },
    {
      "midi": 71,
      "hit": false,
      "t": 204413.74199999793,
      "d": 155.17237499999464,
      "v": 16
    },
    {
      "midi": 74,
      "hit": false,
      "t": 204413.74199999793,
      "d": 155.17237499999464,
      "v": 28
    },
    {
      "midi": 73,
      "hit": false,
      "t": 204620.63849999793,
      "d": 155.17237499999464,
      "v": 29
    },
    {
      "midi": 76,
      "hit": false,
      "t": 204620.63849999793,
      "d": 155.17237499999464,
      "v": 32
    },
    {
      "midi": 71,
      "hit": false,
      "t": 204813.74189999793,
      "d": 244.8275250000006,
      "v": 29
    },
    {
      "midi": 74,
      "hit": false,
      "t": 204827.53499999794,
      "d": 155.17237499999464,
      "v": 25
    },
    {
      "midi": 78,
      "hit": false,
      "t": 204827.53499999794,
      "d": 155.17237499999464,
      "v": 35
    },
    {
      "midi": 74,
      "hit": false,
      "t": 205034.43149999794,
      "d": 155.17237499999464,
      "v": 25
    },
    {
      "midi": 78,
      "hit": false,
      "t": 205034.43149999794,
      "d": 155.17237499999464,
      "v": 29
    },
    {
      "midi": 69,
      "hit": false,
      "t": 205039.60391249793,
      "d": 218.96546250002575,
      "v": 25
    },
    {
      "midi": 76,
      "hit": false,
      "t": 205241.32799999794,
      "d": 155.17237500002375,
      "v": 19
    },
    {
      "midi": 79,
      "hit": false,
      "t": 205241.32799999794,
      "d": 155.17237500002375,
      "v": 29
    },
    {
      "midi": 67,
      "hit": false,
      "t": 205244.77627499794,
      "d": 193.1034000000218,
      "v": 29
    },
    {
      "midi": 81,
      "hit": false,
      "t": 205448.22449999797,
      "d": 737.9308499999752,
      "v": 32
    },
    {
      "midi": 66,
      "hit": false,
      "t": 205458.56932499798,
      "d": 241.37924999999814,
      "v": 22
    },
    {
      "midi": 69,
      "hit": false,
      "t": 205465.465874998,
      "d": 181.0344374999986,
      "v": 24
    },
    {
      "midi": 71,
      "hit": false,
      "t": 205653.396862498,
      "d": 41.37930000000051,
      "v": 28
    },
    {
      "midi": 72,
      "hit": false,
      "t": 205855.12094999797,
      "d": 31.034474999993108,
      "v": 29
    },
    {
      "midi": 64,
      "hit": false,
      "t": 205862.01749999798,
      "d": 36.20688749998226,
      "v": 26
    },
    {
      "midi": 63,
      "hit": false,
      "t": 206055.12089999797,
      "d": 182.75857499998529,
      "v": 35
    },
    {
      "midi": 71,
      "hit": false,
      "t": 206068.91399999795,
      "d": 237.93097499999567,
      "v": 23
    },
    {
      "midi": 83,
      "hit": false,
      "t": 206068.91399999795,
      "d": 465.51712500001304,
      "v": 44
    },
    {
      "midi": 64,
      "hit": false,
      "t": 206274.08636249797,
      "d": 205.17236249998678,
      "v": 21
    },
    {
      "midi": 79,
      "hit": false,
      "t": 206275.81049999796,
      "d": 155.17237499999464,
      "v": 25
    },
    {
      "midi": 63,
      "hit": false,
      "t": 206479.25872499796,
      "d": 193.1033999999927,
      "v": 29
    },
    {
      "midi": 78,
      "hit": false,
      "t": 206482.70699999796,
      "d": 155.17237499999464,
      "v": 28
    },
    {
      "midi": 64,
      "hit": false,
      "t": 206672.36212499795,
      "d": 232.75856249997742,
      "v": 32
    },
    {
      "midi": 79,
      "hit": false,
      "t": 206689.60349999796,
      "d": 155.17237499999464,
      "v": 29
    },
    {
      "midi": 66,
      "hit": false,
      "t": 206891.32758749794,
      "d": 196.55167499999516,
      "v": 29
    },
    {
      "midi": 81,
      "hit": false,
      "t": 206896.49999999793,
      "d": 155.17237499999464,
      "v": 32
    },
    {
      "midi": 67,
      "hit": false,
      "t": 207103.39649999794,
      "d": 194.82753750000848,
      "v": 32
    },
    {
      "midi": 83,
      "hit": false,
      "t": 207103.39649999794,
      "d": 317.2412999999942,
      "v": 32
    },
    {
      "midi": 84,
      "hit": false,
      "t": 207310.29299999794,
      "d": 155.17237499999464,
      "v": 32
    },
    {
      "midi": 57,
      "hit": false,
      "t": 207318.91368749793,
      "d": 337.93095000000903,
      "v": 29
    },
    {
      "midi": 81,
      "hit": false,
      "t": 207517.18949999794,
      "d": 155.17237499999464,
      "v": 32
    },
    {
      "midi": 84,
      "hit": false,
      "t": 207517.18949999794,
      "d": 155.17237499999464,
      "v": 35
    },
    {
      "midi": 83,
      "hit": false,
      "t": 207724.08599999794,
      "d": 155.17237499999464,
      "v": 24
    },
    {
      "midi": 79,
      "hit": false,
      "t": 207724.08599999794,
      "d": 317.2412999999942,
      "v": 19
    },
    {
      "midi": 81,
      "hit": false,
      "t": 207930.98249999795,
      "d": 155.17237499999464,
      "v": 35
    },
    {
      "midi": 69,
      "hit": false,
      "t": 207939.60318749794,
      "d": 598.2757125000062,
      "v": 32
    },
    {
      "midi": 78,
      "hit": false,
      "t": 208137.87899999795,
      "d": 155.17237499999464,
      "v": 29
    },
    {
      "midi": 81,
      "hit": false,
      "t": 208137.87899999795,
      "d": 155.17237499999464,
      "v": 29
    },
    {
      "midi": 79,
      "hit": false,
      "t": 208344.77549999795,
      "d": 155.17237499999464,
      "v": 24
    },
    {
      "midi": 76,
      "hit": false,
      "t": 208344.77549999795,
      "d": 337.93094999997993,
      "v": 24
    },
    {
      "midi": 77,
      "hit": false,
      "t": 208551.67199999795,
      "d": 155.17237499996554,
      "v": 28
    },
    {
      "midi": 59,
      "hit": false,
      "t": 208562.01682499796,
      "d": 194.82753749995027,
      "v": 34
    },
    {
      "midi": 80,
      "hit": false,
      "t": 208758.5684999979,
      "d": 155.17237499999464,
      "v": 35
    },
    {
      "midi": 74,
      "hit": false,
      "t": 208758.5684999979,
      "d": 379.31025000000955,
      "v": 24
    },
    {
      "midi": 71,
      "hit": false,
      "t": 208772.3615999979,
      "d": 215.51718749999418,
      "v": 28
    },
    {
      "midi": 81,
      "hit": false,
      "t": 208965.4649999979,
      "d": 155.17237499999464,
      "v": 29
    },
    {
      "midi": 69,
      "hit": false,
      "t": 208979.2580999979,
      "d": 201.7240874999843,
      "v": 21
    },
    {
      "midi": 83,
      "hit": false,
      "t": 209172.3614999979,
      "d": 155.17237499999464,
      "v": 50
    },
    {
      "midi": 68,
      "hit": false,
      "t": 209189.6028749979,
      "d": 201.7240875000134,
      "v": 32
    },
    {
      "midi": 76,
      "hit": false,
      "t": 209379.2579999979,
      "d": 558.6205499999633,
      "v": 52
    },
    {
      "midi": 64,
      "hit": false,
      "t": 209380.9821374979,
      "d": 186.20685000001686,
      "v": 33
    },
    {
      "midi": 68,
      "hit": false,
      "t": 209572.3613999979,
      "d": 17.24137500001234,
      "v": 47
    },
    {
      "midi": 74,
      "hit": false,
      "t": 209586.1544999979,
      "d": 331.034399999975,
      "v": 47
    },
    {
      "midi": 57,
      "hit": false,
      "t": 209782.7061749979,
      "d": 443.10333749998244,
      "v": 52
    },
    {
      "midi": 73,
      "hit": false,
      "t": 209999.94749999788,
      "d": 155.17237499999464,
      "v": 50
    },
    {
      "midi": 69,
      "hit": false,
      "t": 210203.39572499788,
      "d": 24.137924999988172,
      "v": 44
    },
    {
      "midi": 81,
      "hit": false,
      "t": 210206.8439999979,
      "d": 344.82749999995576,
      "v": 47
    },
    {
      "midi": 57,
      "hit": false,
      "t": 210410.29222499786,
      "d": 431.03437500001746,
      "v": 47
    },
    {
      "midi": 82,
      "hit": false,
      "t": 210413.74049999786,
      "d": 155.17237499999464,
      "v": 58
    },
    {
      "midi": 67,
      "hit": false,
      "t": 210417.18877499786,
      "d": 218.96546249999665,
      "v": 50
    },
    {
      "midi": 79,
      "hit": false,
      "t": 210620.63699999786,
      "d": 155.17237499999464,
      "v": 50
    },
    {
      "midi": 82,
      "hit": false,
      "t": 210620.63699999786,
      "d": 155.17237499999464,
      "v": 50
    },
    {
      "midi": 81,
      "hit": false,
      "t": 210827.53349999787,
      "d": 155.17237500002375,
      "v": 47
    },
    {
      "midi": 77,
      "hit": false,
      "t": 210827.53349999787,
      "d": 344.82750000001397,
      "v": 44
    },
    {
      "midi": 65,
      "hit": false,
      "t": 210841.32659999788,
      "d": 39.65516250001383,
      "v": 56
    },
    {
      "midi": 79,
      "hit": false,
      "t": 211034.4299999979,
      "d": 155.17237499999464,
      "v": 56
    },
    {
      "midi": 57,
      "hit": false,
      "t": 211036.15413749788,
      "d": 408.620587500016,
      "v": 44
    },
    {
      "midi": 64,
      "hit": false,
      "t": 211036.15413749788,
      "d": 425.8619625000283,
      "v": 44
    },
    {
      "midi": 76,
      "hit": false,
      "t": 211241.3264999979,
      "d": 155.17237499999464,
      "v": 41
    },
    {
      "midi": 79,
      "hit": false,
      "t": 211241.3264999979,
      "d": 155.17237499999464,
      "v": 52
    },
    {
      "midi": 77,
      "hit": false,
      "t": 211448.2229999979,
      "d": 155.17237499999464,
      "v": 47
    },
    {
      "midi": 62,
      "hit": false,
      "t": 211448.2229999979,
      "d": 181.0344374999986,
      "v": 39
    },
    {
      "midi": 74,
      "hit": false,
      "t": 211448.2229999979,
      "d": 337.93094999997993,
      "v": 31
    },
    {
      "midi": 57,
      "hit": false,
      "t": 211653.3953624979,
      "d": 205.17236249998678,
      "v": 44
    },
    {
      "midi": 75,
      "hit": false,
      "t": 211655.11949999788,
      "d": 155.17237499999464,
      "v": 50
    },
    {
      "midi": 78,
      "hit": false,
      "t": 211862.01599999788,
      "d": 155.17237499999464,
      "v": 55
    },
    {
      "midi": 69,
      "hit": false,
      "t": 211862.01599999788,
      "d": 210.34477500000503,
      "v": 47
    },
    {
      "midi": 72,
      "hit": false,
      "t": 211862.01599999788,
      "d": 531.0343500000017,
      "v": 41
    },
    {
      "midi": 79,
      "hit": false,
      "t": 212068.91249999788,
      "d": 155.17237499999464,
      "v": 47
    },
    {
      "midi": 67,
      "hit": false,
      "t": 212079.2573249979,
      "d": 205.17236249998678,
      "v": 26
    },
    {
      "midi": 81,
      "hit": false,
      "t": 212275.80899999788,
      "d": 572.413649999944,
      "v": 52
    },
    {
      "midi": 66,
      "hit": false,
      "t": 212284.42968749788,
      "d": 201.7240874999843,
      "v": 29
    },
    {
      "midi": 62,
      "hit": false,
      "t": 212477.53308749787,
      "d": 224.1378749999567,
      "v": 39
    },
    {
      "midi": 74,
      "hit": false,
      "t": 212482.70549999786,
      "d": 155.17237499996554,
      "v": 44
    },
    {
      "midi": 72,
      "hit": false,
      "t": 212689.60199999783,
      "d": 155.17237499999464,
      "v": 47
    },
    {
      "midi": 66,
      "hit": false,
      "t": 212689.60199999783,
      "d": 220.68959999998333,
      "v": 47
    },
    {
      "midi": 71,
      "hit": false,
      "t": 212896.4984999978,
      "d": 155.17237500002375,
      "v": 39
    },
    {
      "midi": 79,
      "hit": false,
      "t": 212896.4984999978,
      "d": 155.17237500002375,
      "v": 50
    },
    {
      "midi": 67,
      "hit": false,
      "t": 212910.2915999978,
      "d": 193.1034000000218,
      "v": 47
    },
    {
      "midi": 64,
      "hit": false,
      "t": 213096.49844999783,
      "d": 213.7930500000075,
      "v": 37
    },
    {
      "midi": 73,
      "hit": false,
      "t": 213103.39499999784,
      "d": 155.17237499999464,
      "v": 47
    },
    {
      "midi": 69,
      "hit": false,
      "t": 213310.29149999784,
      "d": 22.41378750000149,
      "v": 34
    },
    {
      "midi": 74,
      "hit": false,
      "t": 213310.29149999784,
      "d": 155.17237499999464,
      "v": 44
    },
    {
      "midi": 66,
      "hit": false,
      "t": 213320.63632499785,
      "d": 12.068962499994086,
      "v": 55
    },
    {
      "midi": 76,
      "hit": false,
      "t": 213517.18799999784,
      "d": 155.17237499999464,
      "v": 44
    },
    {
      "midi": 61,
      "hit": false,
      "t": 213517.18799999784,
      "d": 193.1033999999927,
      "v": 51
    },
    {
      "midi": 62,
      "hit": false,
      "t": 213713.73967499784,
      "d": 187.93098750000354,
      "v": 50
    },
    {
      "midi": 78,
      "hit": false,
      "t": 213724.08449999784,
      "d": 155.17237499999464,
      "v": 47
    },
    {
      "midi": 59,
      "hit": false,
      "t": 213906.84307499783,
      "d": 27.58619999999064,
      "v": 36
    },
    {
      "midi": 80,
      "hit": false,
      "t": 213930.98099999782,
      "d": 155.17237499999464,
      "v": 47
    },
    {
      "midi": 69,
      "hit": false,
      "t": 214120.6361249978,
      "d": 27.586200000019744,
      "v": 56
    },
    {
      "midi": 57,
      "hit": false,
      "t": 214127.5326749978,
      "d": 32.758612500008894,
      "v": 52
    },
    {
      "midi": 81,
      "hit": false,
      "t": 214137.87749999782,
      "d": 155.17237499999464,
      "v": 56
    },
    {
      "midi": 55,
      "hit": false,
      "t": 214315.46366249782,
      "d": 27.58619999999064,
      "v": 56
    },
    {
      "midi": 67,
      "hit": false,
      "t": 214320.6360749978,
      "d": 15.517237499996554,
      "v": 47
    },
    {
      "midi": 73,
      "hit": false,
      "t": 214344.7739999978,
      "d": 155.17237499999464,
      "v": 58
    },
    {
      "midi": 66,
      "hit": false,
      "t": 214525.8084374978,
      "d": 25.862062500003958,
      "v": 58
    },
    {
      "midi": 54,
      "hit": false,
      "t": 214532.7049874978,
      "d": 29.310337500006426,
      "v": 58
    },
    {
      "midi": 74,
      "hit": false,
      "t": 214551.6704999978,
      "d": 155.17237499999464,
      "v": 62
    },
    {
      "midi": 61,
      "hit": false,
      "t": 214732.70493749777,
      "d": 106.8965250000183,
      "v": 62
    },
    {
      "midi": 49,
      "hit": false,
      "t": 214741.32562499776,
      "d": 84.48273750001681,
      "v": 63
    },
    {
      "midi": 76,
      "hit": false,
      "t": 214758.56699999777,
      "d": 155.17237500002375,
      "v": 62
    },
    {
      "midi": 62,
      "hit": false,
      "t": 214946.4979874978,
      "d": 18.965512499999022,
      "v": 59
    },
    {
      "midi": 50,
      "hit": false,
      "t": 214953.3945374978,
      "d": 29.310337500006426,
      "v": 59
    },
    {
      "midi": 78,
      "hit": false,
      "t": 214965.4634999978,
      "d": 155.17237500002375,
      "v": 68
    },
    {
      "midi": 59,
      "hit": false,
      "t": 215146.49793749783,
      "d": 36.20688750001136,
      "v": 71
    },
    {
      "midi": 47,
      "hit": false,
      "t": 215146.49793749783,
      "d": 44.82757500000298,
      "v": 62
    },
    {
      "midi": 80,
      "hit": false,
      "t": 215172.35999999783,
      "d": 155.17237499999464,
      "v": 63
    },
    {
      "midi": 57,
      "hit": false,
      "t": 215358.56684999782,
      "d": 39.65516250001383,
      "v": 70
    },
    {
      "midi": 45,
      "hit": false,
      "t": 215362.01512499782,
      "d": 43.1034375000163,
      "v": 62
    },
    {
      "midi": 81,
      "hit": false,
      "t": 215379.25649999783,
      "d": 155.17237499999464,
      "v": 62
    },
    {
      "midi": 55,
      "hit": false,
      "t": 215562.01507499782,
      "d": 37.93102500002715,
      "v": 67
    },
    {
      "midi": 43,
      "hit": false,
      "t": 215568.91162499783,
      "d": 36.20688750001136,
      "v": 67
    },
    {
      "midi": 73,
      "hit": false,
      "t": 215586.15299999784,
      "d": 155.17237499999464,
      "v": 58
    },
    {
      "midi": 54,
      "hit": false,
      "t": 215772.35984999783,
      "d": 29.310337500006426,
      "v": 68
    },
    {
      "midi": 42,
      "hit": false,
      "t": 215772.35984999783,
      "d": 37.931024999998044,
      "v": 68
    },
    {
      "midi": 74,
      "hit": false,
      "t": 215793.04949999784,
      "d": 155.17237499999464,
      "v": 67
    },
    {
      "midi": 37,
      "hit": false,
      "t": 215977.53221249784,
      "d": 82.75860000000102,
      "v": 68
    },
    {
      "midi": 49,
      "hit": false,
      "t": 215977.53221249784,
      "d": 134.48272500000894,
      "v": 74
    },
    {
      "midi": 76,
      "hit": false,
      "t": 215999.94599999784,
      "d": 155.17237499999464,
      "v": 67
    },
    {
      "midi": 50,
      "hit": false,
      "t": 216191.32526249785,
      "d": 37.931024999998044,
      "v": 70
    },
    {
      "midi": 38,
      "hit": false,
      "t": 216199.94594999784,
      "d": 39.655162499984726,
      "v": 67
    },
    {
      "midi": 78,
      "hit": false,
      "t": 216206.84249999785,
      "d": 155.17237499996554,
      "v": 55
    },
    {
      "midi": 47,
      "hit": false,
      "t": 216413.73899999782,
      "d": 43.1034375000163,
      "v": 67
    },
    {
      "midi": 80,
      "hit": false,
      "t": 216413.73899999782,
      "d": 358.62059999999474,
      "v": 50
    },
    {
      "midi": 35,
      "hit": false,
      "t": 216424.08382499783,
      "d": 39.65516250001383,
      "v": 62
    },
    {
      "midi": 33,
      "hit": false,
      "t": 216620.63549999782,
      "d": 1186.206600000005,
      "v": 70
    },
    {
      "midi": 45,
      "hit": false,
      "t": 216620.63549999782,
      "d": 1199.9997000000149,
      "v": 62
    },
    {
      "midi": 81,
      "hit": false,
      "t": 216827.53199999782,
      "d": 986.2066500000074,
      "v": 65
    },
    {
      "midi": 74,
      "hit": false,
      "t": 217862.01449999784,
      "d": 37.931024999998044,
      "v": 44
    },
    {
      "midi": 69,
      "hit": false,
      "t": 217870.63518749783,
      "d": 89.65515000000596,
      "v": 39
    },
    {
      "midi": 66,
      "hit": false,
      "t": 217870.63518749783,
      "d": 210.34477499997593,
      "v": 35
    },
    {
      "midi": 76,
      "hit": false,
      "t": 217913.73862499784,
      "d": 37.931024999998044,
      "v": 34
    },
    {
      "midi": 74,
      "hit": false,
      "t": 217965.46274999782,
      "d": 37.931024999998044,
      "v": 32
    },
    {
      "midi": 76,
      "hit": false,
      "t": 218017.18687499783,
      "d": 37.931024999998044,
      "v": 39
    },
    {
      "midi": 67,
      "hit": false,
      "t": 218067.18686249782,
      "d": 167.24133750001783,
      "v": 26
    },
    {
      "midi": 74,
      "hit": false,
      "t": 218068.9109999978,
      "d": 37.931024999998044,
      "v": 32
    },
    {
      "midi": 64,
      "hit": false,
      "t": 218074.0834124978,
      "d": 165.51720000003115,
      "v": 44
    },
    {
      "midi": 76,
      "hit": false,
      "t": 218120.63512499782,
      "d": 37.931024999998044,
      "v": 26
    },
    {
      "midi": 76,
      "hit": false,
      "t": 218172.35924999783,
      "d": 37.931024999998044,
      "v": 52
    },
    {
      "midi": 78,
      "hit": false,
      "t": 218224.08337499783,
      "d": 37.931024999998044,
      "v": 47
    },
    {
      "midi": 66,
      "hit": false,
      "t": 218268.91094999784,
      "d": 127.586175000004,
      "v": 38
    },
    {
      "midi": 62,
      "hit": false,
      "t": 218274.08336249783,
      "d": 201.7240875000134,
      "v": 39
    },
    {
      "midi": 79,
      "hit": false,
      "t": 218275.8074999978,
      "d": 77.58618750001187,
      "v": 52
    },
    {
      "midi": 81,
      "hit": false,
      "t": 218379.25574999783,
      "d": 77.58618750001187,
      "v": 52
    },
    {
      "midi": 71,
      "hit": false,
      "t": 218480.97986249783,
      "d": 425.8619624999992,
      "v": 50
    },
    {
      "midi": 83,
      "hit": false,
      "t": 218482.70399999782,
      "d": 155.17237499999464,
      "v": 52
    },
    {
      "midi": 67,
      "hit": false,
      "t": 218491.3246874978,
      "d": 415.5171375000209,
      "v": 56
    },
    {
      "midi": 79,
      "hit": false,
      "t": 218689.60049999782,
      "d": 155.17237499999464,
      "v": 44
    },
    {
      "midi": 76,
      "hit": false,
      "t": 218896.49699999782,
      "d": 155.17237499999464,
      "v": 47
    },
    {
      "midi": 67,
      "hit": false,
      "t": 219099.94522499782,
      "d": 179.31030000001192,
      "v": 47
    },
    {
      "midi": 73,
      "hit": false,
      "t": 219103.39349999782,
      "d": 37.931024999998044,
      "v": 29
    },
    {
      "midi": 64,
      "hit": false,
      "t": 219106.84177499783,
      "d": 244.8275250000006,
      "v": 26
    },
    {
      "midi": 74,
      "hit": false,
      "t": 219155.11762499783,
      "d": 37.931024999998044,
      "v": 36
    },
    {
      "midi": 73,
      "hit": false,
      "t": 219206.84174999784,
      "d": 37.931024999998044,
      "v": 40
    },
    {
      "midi": 74,
      "hit": false,
      "t": 219258.56587499785,
      "d": 37.93102499996894,
      "v": 34
    },
    {
      "midi": 69,
      "hit": false,
      "t": 219287.87621249782,
      "d": 113.79307499999413,
      "v": 41
    },
    {
      "midi": 73,
      "hit": false,
      "t": 219310.28999999783,
      "d": 37.931024999998044,
      "v": 35
    },
    {
      "midi": 66,
      "hit": false,
      "t": 219310.28999999783,
      "d": 208.62063749996014,
      "v": 32
    },
    {
      "midi": 74,
      "hit": false,
      "t": 219362.01412499783,
      "d": 37.931024999998044,
      "v": 31
    },
    {
      "midi": 74,
      "hit": false,
      "t": 219413.7382499978,
      "d": 37.931024999998044,
      "v": 50
    },
    {
      "midi": 76,
      "hit": false,
      "t": 219465.46237499782,
      "d": 37.931024999998044,
      "v": 59
    },
    {
      "midi": 67,
      "hit": false,
      "t": 219501.66926249783,
      "d": 198.27581249995274,
      "v": 47
    },
    {
      "midi": 71,
      "hit": false,
      "t": 219512.0140874978,
      "d": 60.34481249997043,
      "v": 41
    },
    {
      "midi": 78,
      "hit": false,
      "t": 219517.1864999978,
      "d": 77.58618749998277,
      "v": 50
    },
    {
      "midi": 79,
      "hit": false,
      "t": 219620.6347499978,
      "d": 77.58618750001187,
      "v": 50
    },
    {
      "midi": 66,
      "hit": false,
      "t": 219706.8416249978,
      "d": 415.5171375000209,
      "v": 47
    },
    {
      "midi": 69,
      "hit": false,
      "t": 219706.8416249978,
      "d": 418.9654125000234,
      "v": 34
    },
    {
      "midi": 81,
      "hit": false,
      "t": 219724.0829999978,
      "d": 155.17237499999464,
      "v": 62
    },
    {
      "midi": 78,
      "hit": false,
      "t": 219930.9794999978,
      "d": 155.17237499999464,
      "v": 58
    },
    {
      "midi": 74,
      "hit": false,
      "t": 220137.8759999978,
      "d": 155.17237499999464,
      "v": 59
    },
    {
      "midi": 66,
      "hit": false,
      "t": 220343.0483624978,
      "d": 198.27581250001094,
      "v": 40
    },
    {
      "midi": 71,
      "hit": false,
      "t": 220344.77249999778,
      "d": 37.931024999998044,
      "v": 41
    },
    {
      "midi": 62,
      "hit": false,
      "t": 220353.39318749777,
      "d": 187.93098750003264,
      "v": 32
    },
    {
      "midi": 73,
      "hit": false,
      "t": 220396.4966249978,
      "d": 37.931024999998044,
      "v": 47
    },
    {
      "midi": 71,
      "hit": false,
      "t": 220448.2207499978,
      "d": 37.931024999998044,
      "v": 34
    },
    {
      "midi": 73,
      "hit": false,
      "t": 220499.9448749978,
      "d": 37.931024999998044,
      "v": 47
    },
    {
      "midi": 64,
      "hit": false,
      "t": 220541.3241749978,
      "d": 220.68960000004154,
      "v": 49
    },
    {
      "midi": 71,
      "hit": false,
      "t": 220551.6689999978,
      "d": 37.931024999998044,
      "v": 32
    },
    {
      "midi": 67,
      "hit": false,
      "t": 220553.3931374978,
      "d": 194.82753750003758,
      "v": 41
    },
    {
      "midi": 73,
      "hit": false,
      "t": 220603.39312499782,
      "d": 37.931024999998044,
      "v": 40
    },
    {
      "midi": 73,
      "hit": false,
      "t": 220655.11724999783,
      "d": 37.931024999998044,
      "v": 58
    },
    {
      "midi": 74,
      "hit": false,
      "t": 220706.84137499784,
      "d": 37.931024999998044,
      "v": 59
    },
    {
      "midi": 69,
      "hit": false,
      "t": 220739.59998749784,
      "d": 208.62063750001835,
      "v": 39
    },
    {
      "midi": 66,
      "hit": false,
      "t": 220748.22067499784,
      "d": 184.48271250003017,
      "v": 50
    },
    {
      "midi": 76,
      "hit": false,
      "t": 220758.56549999784,
      "d": 77.58618750001187,
      "v": 52
    },
    {
      "midi": 78,
      "hit": false,
      "t": 220862.01374999786,
      "d": 77.58618750001187,
      "v": 58
    },
    {
      "midi": 67,
      "hit": false,
      "t": 220956.84131249785,
      "d": 384.4826624999987,
      "v": 36
    },
    {
      "midi": 64,
      "hit": false,
      "t": 220956.84131249785,
      "d": 389.65507499998785,
      "v": 40
    },
    {
      "midi": 79,
      "hit": false,
      "t": 220965.46199999785,
      "d": 155.17237499999464,
      "v": 67
    },
    {
      "midi": 76,
      "hit": false,
      "t": 221172.35849999785,
      "d": 155.17237499999464,
      "v": 50
    },
    {
      "midi": 73,
      "hit": false,
      "t": 221379.25499999785,
      "d": 155.17237499999464,
      "v": 40
    },
    {
      "midi": 61,
      "hit": false,
      "t": 221575.80667499785,
      "d": 198.27581250001094,
      "v": 44
    },
    {
      "midi": 64,
      "hit": false,
      "t": 221584.42736249784,
      "d": 208.62063750001835,
      "v": 34
    },
    {
      "midi": 69,
      "hit": false,
      "t": 221586.15149999782,
      "d": 37.931024999998044,
      "v": 41
    },
    {
      "midi": 71,
      "hit": false,
      "t": 221637.87562499783,
      "d": 37.931024999998044,
      "v": 32
    },
    {
      "midi": 69,
      "hit": false,
      "t": 221689.59974999784,
      "d": 37.931024999998044,
      "v": 32
    },
    {
      "midi": 71,
      "hit": false,
      "t": 221741.32387499785,
      "d": 37.931024999998044,
      "v": 29
    },
    {
      "midi": 69,
      "hit": false,
      "t": 221793.04799999786,
      "d": 37.931024999998044,
      "v": 25
    },
    {
      "midi": 62,
      "hit": false,
      "t": 221798.22041249785,
      "d": 194.82753750003758,
      "v": 39
    },
    {
      "midi": 66,
      "hit": false,
      "t": 221798.22041249785,
      "d": 222.41373750002822,
      "v": 44
    },
    {
      "midi": 71,
      "hit": false,
      "t": 221844.77212499786,
      "d": 37.931024999998044,
      "v": 20
    },
    {
      "midi": 71,
      "hit": false,
      "t": 221896.49624999787,
      "d": 37.931024999998044,
      "v": 50
    },
    {
      "midi": 73,
      "hit": false,
      "t": 221948.22037499788,
      "d": 37.931024999998044,
      "v": 63
    },
    {
      "midi": 67,
      "hit": false,
      "t": 221993.04794999788,
      "d": 44.82757500000298,
      "v": 32
    },
    {
      "midi": 64,
      "hit": false,
      "t": 221999.9444999979,
      "d": 46.55171249998966,
      "v": 44
    },
    {
      "midi": 74,
      "hit": false,
      "t": 221999.9444999979,
      "d": 77.58618749998277,
      "v": 52
    },
    {
      "midi": 76,
      "hit": false,
      "t": 222103.39274999787,
      "d": 77.58618750001187,
      "v": 56
    },
    {
      "midi": 78,
      "hit": false,
      "t": 222206.8409999979,
      "d": 155.17237499999464,
      "v": 50
    },
    {
      "midi": 50,
      "hit": false,
      "t": 222218.90996249788,
      "d": 205.17236250001588,
      "v": 50
    },
    {
      "midi": 66,
      "hit": false,
      "t": 222413.7374999979,
      "d": 77.58618750001187,
      "v": 40
    },
    {
      "midi": 62,
      "hit": false,
      "t": 222424.0823249979,
      "d": 218.96546250002575,
      "v": 52
    },
    {
      "midi": 66,
      "hit": false,
      "t": 222517.1857499979,
      "d": 77.58618750001187,
      "v": 40
    },
    {
      "midi": 66,
      "hit": false,
      "t": 222620.63399999792,
      "d": 77.58618750001187,
      "v": 32
    },
    {
      "midi": 61,
      "hit": false,
      "t": 222630.97882499793,
      "d": 196.55167499999516,
      "v": 44
    },
    {
      "midi": 66,
      "hit": false,
      "t": 222724.08224999794,
      "d": 77.58618750001187,
      "v": 19
    },
    {
      "midi": 66,
      "hit": false,
      "t": 222827.53049999793,
      "d": 77.58618749998277,
      "v": 44
    },
    {
      "midi": 59,
      "hit": false,
      "t": 222836.15118749792,
      "d": 181.0344374999986,
      "v": 51
    },
    {
      "midi": 66,
      "hit": false,
      "t": 222930.9787499979,
      "d": 77.58618750001187,
      "v": 38
    },
    {
      "midi": 66,
      "hit": false,
      "t": 223034.42699999793,
      "d": 77.58618750001187,
      "v": 44
    },
    {
      "midi": 62,
      "hit": false,
      "t": 223034.42699999793,
      "d": 201.72408750004251,
      "v": 44
    },
    {
      "midi": 66,
      "hit": false,
      "t": 223137.87524999795,
      "d": 77.58618750001187,
      "v": 29
    },
    {
      "midi": 57,
      "hit": false,
      "t": 223222.35798749796,
      "d": 217.24132500003907,
      "v": 52
    },
    {
      "midi": 66,
      "hit": false,
      "t": 223241.32349999796,
      "d": 77.58618750001187,
      "v": 35
    },
    {
      "midi": 66,
      "hit": false,
      "t": 223344.77174999798,
      "d": 77.58618750001187,
      "v": 47
    },
    {
      "midi": 55,
      "hit": false,
      "t": 223439.599312498,
      "d": 205.17236250001588,
      "v": 52
    },
    {
      "midi": 71,
      "hit": false,
      "t": 223448.219999998,
      "d": 77.58618750001187,
      "v": 41
    },
    {
      "midi": 71,
      "hit": false,
      "t": 223551.668249998,
      "d": 77.58618750001187,
      "v": 39
    },
    {
      "midi": 71,
      "hit": false,
      "t": 223655.11649999802,
      "d": 77.58618750001187,
      "v": 41
    },
    {
      "midi": 62,
      "hit": false,
      "t": 223655.11649999802,
      "d": 215.51718750002328,
      "v": 32
    },
    {
      "midi": 71,
      "hit": false,
      "t": 223758.56474999804,
      "d": 77.58618750001187,
      "v": 39
    },
    {
      "midi": 71,
      "hit": false,
      "t": 223862.01299999806,
      "d": 77.58618749998277,
      "v": 36
    },
    {
      "midi": 54,
      "hit": false,
      "t": 223862.01299999806,
      "d": 206.89650000000256,
      "v": 38
    },
    {
      "midi": 71,
      "hit": false,
      "t": 223965.46124999804,
      "d": 77.58618750001187,
      "v": 34
    },
    {
      "midi": 71,
      "hit": false,
      "t": 224068.90949999806,
      "d": 77.58618749998277,
      "v": 39
    },
    {
      "midi": 52,
      "hit": false,
      "t": 224080.97846249805,
      "d": 196.55167499999516,
      "v": 59
    },
    {
      "midi": 71,
      "hit": false,
      "t": 224172.35774999805,
      "d": 77.58618750001187,
      "v": 34
    },
    {
      "midi": 71,
      "hit": false,
      "t": 224275.80599999806,
      "d": 77.58618749998277,
      "v": 39
    },
    {
      "midi": 64,
      "hit": false,
      "t": 224289.59909999804,
      "d": 65.51722499998868,
      "v": 40
    },
    {
      "midi": 71,
      "hit": false,
      "t": 224379.25424999802,
      "d": 77.58618750001187,
      "v": 34
    },
    {
      "midi": 50,
      "hit": false,
      "t": 224472.35767499803,
      "d": 39.65516250001383,
      "v": 47
    },
    {
      "midi": 71,
      "hit": false,
      "t": 224482.70249999803,
      "d": 77.58618750001187,
      "v": 39
    },
    {
      "midi": 71,
      "hit": false,
      "t": 224586.15074999805,
      "d": 77.58618749998277,
      "v": 41
    },
    {
      "midi": 49,
      "hit": false,
      "t": 224677.53003749804,
      "d": 199.99994999999763,
      "v": 63
    },
    {
      "midi": 76,
      "hit": false,
      "t": 224689.59899999804,
      "d": 77.58618749998277,
      "v": 47
    },
    {
      "midi": 76,
      "hit": false,
      "t": 224793.04724999802,
      "d": 77.58618750001187,
      "v": 41
    },
    {
      "midi": 61,
      "hit": false,
      "t": 224877.52998749804,
      "d": 234.4826999999932,
      "v": 54
    },
    {
      "midi": 76,
      "hit": false,
      "t": 224896.49549999804,
      "d": 77.58618750001187,
      "v": 41
    },
    {
      "midi": 76,
      "hit": false,
      "t": 224999.94374999806,
      "d": 77.58618750001187,
      "v": 34
    },
    {
      "midi": 59,
      "hit": false,
      "t": 225101.66786249806,
      "d": 220.68959999995423,
      "v": 48
    },
    {
      "midi": 76,
      "hit": false,
      "t": 225103.39199999804,
      "d": 77.58618749998277,
      "v": 50
    },
    {
      "midi": 76,
      "hit": false,
      "t": 225206.84024999803,
      "d": 77.58618749998277,
      "v": 34
    },
    {
      "midi": 76,
      "hit": false,
      "t": 225310.28849999802,
      "d": 77.58618749998277,
      "v": 36
    },
    {
      "midi": 57,
      "hit": false,
      "t": 225312.012637498,
      "d": 199.99994999999763,
      "v": 52
    },
    {
      "midi": 76,
      "hit": false,
      "t": 225413.736749998,
      "d": 77.58618750001187,
      "v": 41
    },
    {
      "midi": 76,
      "hit": false,
      "t": 225517.184999998,
      "d": 77.58618749998277,
      "v": 34
    },
    {
      "midi": 64,
      "hit": false,
      "t": 225529.25396249798,
      "d": 225.86201250000158,
      "v": 44
    },
    {
      "midi": 76,
      "hit": false,
      "t": 225620.63324999798,
      "d": 77.58618750001187,
      "v": 34
    },
    {
      "midi": 76,
      "hit": false,
      "t": 225724.081499998,
      "d": 77.58618749998277,
      "v": 34
    },
    {
      "midi": 55,
      "hit": false,
      "t": 225724.081499998,
      "d": 193.1033999999927,
      "v": 47
    },
    {
      "midi": 76,
      "hit": false,
      "t": 225827.52974999798,
      "d": 77.58618750001187,
      "v": 32
    },
    {
      "midi": 54,
      "hit": false,
      "t": 225924.081449998,
      "d": 48.27585000000545,
      "v": 63
    },
    {
      "midi": 81,
      "hit": false,
      "t": 225930.977999998,
      "d": 77.58618749998277,
      "v": 52
    },
    {
      "midi": 81,
      "hit": false,
      "t": 226034.42624999798,
      "d": 77.58618750001187,
      "v": 44
    },
    {
      "midi": 66,
      "hit": false,
      "t": 226118.908987498,
      "d": 36.20688750001136,
      "v": 44
    },
    {
      "midi": 54,
      "hit": false,
      "t": 226118.908987498,
      "d": 51.724125000007916,
      "v": 63
    },
    {
      "midi": 81,
      "hit": false,
      "t": 226137.874499998,
      "d": 77.58618750001187,
      "v": 44
    },
    {
      "midi": 81,
      "hit": false,
      "t": 226241.322749998,
      "d": 77.58618750001187,
      "v": 41
    },
    {
      "midi": 64,
      "hit": false,
      "t": 226325.80548749803,
      "d": 39.655162499984726,
      "v": 60
    },
    {
      "midi": 52,
      "hit": false,
      "t": 226332.70203749803,
      "d": 36.20688749998226,
      "v": 59
    },
    {
      "midi": 81,
      "hit": false,
      "t": 226344.77099999803,
      "d": 77.58618749998277,
      "v": 41
    },
    {
      "midi": 81,
      "hit": false,
      "t": 226448.21924999802,
      "d": 77.58618749998277,
      "v": 44
    },
    {
      "midi": 62,
      "hit": false,
      "t": 226530.977849998,
      "d": 53.4482625000237,
      "v": 56
    },
    {
      "midi": 50,
      "hit": false,
      "t": 226537.874399998,
      "d": 65.51722499998868,
      "v": 56
    },
    {
      "midi": 81,
      "hit": false,
      "t": 226551.667499998,
      "d": 77.58618749998277,
      "v": 47
    },
    {
      "midi": 81,
      "hit": false,
      "t": 226655.115749998,
      "d": 77.58618750001187,
      "v": 50
    },
    {
      "midi": 62,
      "hit": false,
      "t": 226743.046762498,
      "d": 39.655162499984726,
      "v": 59
    },
    {
      "midi": 50,
      "hit": false,
      "t": 226743.046762498,
      "d": 49.99998749999213,
      "v": 62
    },
    {
      "midi": 81,
      "hit": false,
      "t": 226758.563999998,
      "d": 77.58618749998277,
      "v": 39
    },
    {
      "midi": 81,
      "hit": false,
      "t": 226862.012249998,
      "d": 77.58618750001187,
      "v": 41
    },
    {
      "midi": 61,
      "hit": false,
      "t": 226948.219124998,
      "d": 37.93102499996894,
      "v": 67
    },
    {
      "midi": 49,
      "hit": false,
      "t": 226953.39153749798,
      "d": 41.37929999997141,
      "v": 63
    },
    {
      "midi": 81,
      "hit": false,
      "t": 226965.46049999798,
      "d": 77.58618749998277,
      "v": 36
    },
    {
      "midi": 81,
      "hit": false,
      "t": 227068.90874999797,
      "d": 77.58618750001187,
      "v": 44
    },
    {
      "midi": 59,
      "hit": false,
      "t": 227151.66734999797,
      "d": 39.655162499984726,
      "v": 66
    },
    {
      "midi": 47,
      "hit": false,
      "t": 227151.66734999797,
      "d": 53.4482624999946,
      "v": 62
    },
    {
      "midi": 86,
      "hit": false,
      "t": 227172.35699999795,
      "d": 77.58618750001187,
      "v": 62
    },
    {
      "midi": 85,
      "hit": false,
      "t": 227275.80524999797,
      "d": 77.58618749998277,
      "v": 52
    },
    {
      "midi": 43,
      "hit": false,
      "t": 227356.83971249795,
      "d": 37.93102499996894,
      "v": 70
    },
    {
      "midi": 55,
      "hit": false,
      "t": 227363.73626249796,
      "d": 36.206887499953154,
      "v": 67
    },
    {
      "midi": 83,
      "hit": false,
      "t": 227372.35694999795,
      "d": 77.58618749995367,
      "v": 55
    },
    {
      "midi": 81,
      "hit": false,
      "t": 227482.7017499979,
      "d": 77.58618750001187,
      "v": 47
    },
    {
      "midi": 59,
      "hit": false,
      "t": 227567.18448749793,
      "d": 46.55171249998966,
      "v": 66
    },
    {
      "midi": 47,
      "hit": false,
      "t": 227567.18448749793,
      "d": 51.72412499997881,
      "v": 59
    },
    {
      "midi": 79,
      "hit": false,
      "t": 227586.14999999793,
      "d": 77.58618749998277,
      "v": 44
    },
    {
      "midi": 78,
      "hit": false,
      "t": 227689.5982499979,
      "d": 77.58618749998277,
      "v": 35
    },
    {
      "midi": 61,
      "hit": false,
      "t": 227782.7016749979,
      "d": 44.82757500000298,
      "v": 62
    },
    {
      "midi": 49,
      "hit": false,
      "t": 227789.5982249979,
      "d": 49.99998749999213,
      "v": 58
    },
    {
      "midi": 76,
      "hit": false,
      "t": 227793.0464999979,
      "d": 77.58618749998277,
      "v": 50
    },
    {
      "midi": 74,
      "hit": false,
      "t": 227896.4947499979,
      "d": 77.58618750001187,
      "v": 52
    },
    {
      "midi": 45,
      "hit": false,
      "t": 227993.0464499979,
      "d": 36.20688749998226,
      "v": 67
    },
    {
      "midi": 57,
      "hit": false,
      "t": 227998.2188624979,
      "d": 37.931024999998044,
      "v": 59
    },
    {
      "midi": 73,
      "hit": false,
      "t": 227999.94299999787,
      "d": 77.58618750001187,
      "v": 50
    },
    {
      "midi": 71,
      "hit": false,
      "t": 228103.3912499979,
      "d": 77.58618750001187,
      "v": 44
    },
    {
      "midi": 61,
      "hit": false,
      "t": 228198.21881249791,
      "d": 41.37930000000051,
      "v": 62
    },
    {
      "midi": 49,
      "hit": false,
      "t": 228198.21881249791,
      "d": 46.55171249998966,
      "v": 68
    },
    {
      "midi": 69,
      "hit": false,
      "t": 228206.8394999979,
      "d": 77.58618750001187,
      "v": 41
    },
    {
      "midi": 67,
      "hit": false,
      "t": 228310.28774999792,
      "d": 77.58618750001187,
      "v": 41
    },
    {
      "midi": 66,
      "hit": false,
      "t": 228413.7359999979,
      "d": 77.58618750001187,
      "v": 55
    },
    {
      "midi": 62,
      "hit": false,
      "t": 228413.7359999979,
      "d": 384.4826625000278,
      "v": 56
    },
    {
      "midi": 50,
      "hit": false,
      "t": 228424.08082499792,
      "d": 431.03437499998836,
      "v": 62
    },
    {
      "midi": 67,
      "hit": false,
      "t": 228517.18424999792,
      "d": 77.58618750001187,
      "v": 50
    },
    {
      "midi": 69,
      "hit": false,
      "t": 228620.6324999979,
      "d": 77.58618750001187,
      "v": 56
    },
    {
      "midi": 66,
      "hit": false,
      "t": 228724.08074999793,
      "d": 77.58618750001187,
      "v": 55
    },
    {
      "midi": 64,
      "hit": false,
      "t": 228827.5289999979,
      "d": 77.58618749998277,
      "v": 47
    },
    {
      "midi": 54,
      "hit": false,
      "t": 228827.5289999979,
      "d": 232.75856249997742,
      "v": 55
    },
    {
      "midi": 62,
      "hit": false,
      "t": 228930.9772499979,
      "d": 77.58618750001187,
      "v": 44
    },
    {
      "midi": 64,
      "hit": false,
      "t": 229034.42549999792,
      "d": 77.58618749998277,
      "v": 49
    },
    {
      "midi": 55,
      "hit": false,
      "t": 229039.5979124979,
      "d": 182.7585750000144,
      "v": 59
    },
    {
      "midi": 67,
      "hit": false,
      "t": 229137.8737499979,
      "d": 77.58618750001187,
      "v": 50
    },
    {
      "midi": 57,
      "hit": false,
      "t": 229234.4254499979,
      "d": 217.24132500000997,
      "v": 56
    },
    {
      "midi": 66,
      "hit": false,
      "t": 229241.32199999792,
      "d": 77.58618750001187,
      "v": 44
    },
    {
      "midi": 64,
      "hit": false,
      "t": 229344.77024999794,
      "d": 77.58618750001187,
      "v": 47
    },
    {
      "midi": 45,
      "hit": false,
      "t": 229443.04608749793,
      "d": 227.58614999998827,
      "v": 52
    },
    {
      "midi": 62,
      "hit": false,
      "t": 229448.21849999792,
      "d": 77.58618750001187,
      "v": 50
    },
    {
      "midi": 61,
      "hit": false,
      "t": 229551.66674999794,
      "d": 77.58618750001187,
      "v": 44
    },
    {
      "midi": 62,
      "hit": false,
      "t": 229665.45982499793,
      "d": 72.41377499996452,
      "v": 70
    },
    {
      "midi": 50,
      "hit": false,
      "t": 229679.2529249979,
      "d": 160.3447874999838,
      "v": 56
    },
    {
      "midi": 62,
      "hit": false,
      "t": 229868.9080499979,
      "d": 193.1033999999927,
      "v": 52
    },
    {
      "midi": 50,
      "hit": false,
      "t": 230062.0114499979,
      "d": 20.689650000014808,
      "v": 52
    },
    {
      "midi": 78,
      "hit": false,
      "t": 230068.9079999979,
      "d": 29.310337500006426,
      "v": 63
    },
    {
      "midi": 74,
      "hit": false,
      "t": 230068.9079999979,
      "d": 32.758612500008894,
      "v": 59
    },
    {
      "midi": 76,
      "hit": false,
      "t": 230268.9079499979,
      "d": 43.103437499987194,
      "v": 80
    },
    {
      "midi": 45,
      "hit": false,
      "t": 230268.9079499979,
      "d": 194.82753749997937,
      "v": 70
    },
    {
      "midi": 69,
      "hit": false,
      "t": 230277.5286374979,
      "d": 24.137924999988172,
      "v": 70
    },
    {
      "midi": 76,
      "hit": false,
      "t": 230463.73548749788,
      "d": 86.20687499997439,
      "v": 67
    },
    {
      "midi": 69,
      "hit": false,
      "t": 230472.35617499787,
      "d": 20.689649999985704,
      "v": 47
    },
    {
      "midi": 57,
      "hit": false,
      "t": 230480.97686249786,
      "d": 199.99994999999763,
      "v": 39
    },
    {
      "midi": 66,
      "hit": false,
      "t": 230674.08026249785,
      "d": 24.137924999988172,
      "v": 44
    },
    {
      "midi": 74,
      "hit": false,
      "t": 230680.97681249786,
      "d": 67.24136249997537,
      "v": 59
    },
    {
      "midi": 50,
      "hit": false,
      "t": 230682.70094999784,
      "d": 196.55167499996605,
      "v": 41
    },
    {
      "midi": 69,
      "hit": false,
      "t": 230879.2526249978,
      "d": 25.862062500003958,
      "v": 62
    },
    {
      "midi": 76,
      "hit": false,
      "t": 230879.2526249978,
      "d": 39.65516250001383,
      "v": 70
    },
    {
      "midi": 45,
      "hit": false,
      "t": 230893.04572499782,
      "d": 344.82750000001397,
      "v": 56
    },
    {
      "midi": 78,
      "hit": false,
      "t": 231087.87326249783,
      "d": 49.99998749999213,
      "v": 74
    },
    {
      "midi": 57,
      "hit": false,
      "t": 231087.87326249783,
      "d": 198.27581250001094,
      "v": 41
    },
    {
      "midi": 74,
      "hit": false,
      "t": 231096.49394999782,
      "d": 17.24137500001234,
      "v": 62
    },
    {
      "midi": 76,
      "hit": false,
      "t": 231279.25252499784,
      "d": 46.551712500018766,
      "v": 67
    },
    {
      "midi": 50,
      "hit": false,
      "t": 231286.14907499784,
      "d": 13.793100000009872,
      "v": 52
    },
    {
      "midi": 79,
      "hit": false,
      "t": 231286.14907499784,
      "d": 193.1033999999927,
      "v": 67
    },
    {
      "midi": 78,
      "hit": false,
      "t": 231486.14902499784,
      "d": 37.93102499996894,
      "v": 80
    },
    {
      "midi": 74,
      "hit": false,
      "t": 231494.76971249783,
      "d": 24.137924999988172,
      "v": 67
    },
    {
      "midi": 50,
      "hit": false,
      "t": 231494.76971249783,
      "d": 210.34477499997593,
      "v": 70
    },
    {
      "midi": 78,
      "hit": false,
      "t": 231698.2179374978,
      "d": 60.344812499999534,
      "v": 68
    },
    {
      "midi": 74,
      "hit": false,
      "t": 231706.8386249978,
      "d": 34.482749999995576,
      "v": 50
    },
    {
      "midi": 62,
      "hit": false,
      "t": 231710.2868999978,
      "d": 222.41373749999912,
      "v": 34
    },
    {
      "midi": 76,
      "hit": false,
      "t": 231906.8385749978,
      "d": 46.55171249998966,
      "v": 75
    },
    {
      "midi": 69,
      "hit": false,
      "t": 231913.7351249978,
      "d": 24.137924999988172,
      "v": 67
    },
    {
      "midi": 57,
      "hit": false,
      "t": 231913.7351249978,
      "d": 201.7240874999843,
      "v": 47
    },
    {
      "midi": 66,
      "hit": false,
      "t": 232125.80403749776,
      "d": 24.137925000017276,
      "v": 55
    },
    {
      "midi": 74,
      "hit": false,
      "t": 232125.80403749776,
      "d": 98.27583750002668,
      "v": 56
    },
    {
      "midi": 50,
      "hit": false,
      "t": 232125.80403749776,
      "d": 199.99995000002673,
      "v": 56
    },
    {
      "midi": 76,
      "hit": false,
      "t": 232320.6315749978,
      "d": 37.93102499996894,
      "v": 70
    },
    {
      "midi": 69,
      "hit": false,
      "t": 232325.80398749778,
      "d": 20.689649999985704,
      "v": 56
    },
    {
      "midi": 57,
      "hit": false,
      "t": 232341.32122499778,
      "d": 187.93098749997444,
      "v": 52
    },
    {
      "midi": 78,
      "hit": false,
      "t": 232522.35566249775,
      "d": 41.37930000000051,
      "v": 68
    },
    {
      "midi": 74,
      "hit": false,
      "t": 232529.25221249775,
      "d": 25.862062500003958,
      "v": 50
    },
    {
      "midi": 50,
      "hit": false,
      "t": 232536.14876249776,
      "d": 8.620687499991618,
      "v": 56
    },
    {
      "midi": 76,
      "hit": false,
      "t": 232727.52802499777,
      "d": 44.827574999973876,
      "v": 80
    },
    {
      "midi": 69,
      "hit": false,
      "t": 232732.70043749776,
      "d": 27.58619999999064,
      "v": 70
    },
    {
      "midi": 45,
      "hit": false,
      "t": 232732.70043749776,
      "d": 217.24132499998086,
      "v": 75
    },
    {
      "midi": 69,
      "hit": false,
      "t": 232943.04521249773,
      "d": 24.137925000017276,
      "v": 47
    },
    {
      "midi": 76,
      "hit": false,
      "t": 232943.04521249773,
      "d": 93.10342500000843,
      "v": 67
    },
    {
      "midi": 57,
      "hit": false,
      "t": 232949.94176249774,
      "d": 210.34477500000503,
      "v": 47
    },
    {
      "midi": 66,
      "hit": false,
      "t": 233137.87274999774,
      "d": 39.65516250001383,
      "v": 50
    },
    {
      "midi": 74,
      "hit": false,
      "t": 233144.76929999774,
      "d": 75.86204999999609,
      "v": 62
    },
    {
      "midi": 50,
      "hit": false,
      "t": 233151.66584999775,
      "d": 203.448224999971,
      "v": 52
    },
    {
      "midi": 76,
      "hit": false,
      "t": 233355.11407499772,
      "d": 63.793087500002,
      "v": 70
    },
    {
      "midi": 69,
      "hit": false,
      "t": 233363.7347624977,
      "d": 37.931024999998044,
      "v": 56
    },
    {
      "midi": 45,
      "hit": false,
      "t": 233363.7347624977,
      "d": 205.17236250001588,
      "v": 62
    },
    {
      "midi": 74,
      "hit": false,
      "t": 233555.11402499772,
      "d": 55.172400000010384,
      "v": 52
    },
    {
      "midi": 78,
      "hit": false,
      "t": 233562.01057499772,
      "d": 55.172400000010384,
      "v": 63
    },
    {
      "midi": 57,
      "hit": false,
      "t": 233562.01057499772,
      "d": 199.99994999999763,
      "v": 36
    },
    {
      "midi": 50,
      "hit": false,
      "t": 233767.1829374977,
      "d": 17.24137500001234,
      "v": 56
    },
    {
      "midi": 76,
      "hit": false,
      "t": 233767.1829374977,
      "d": 125.86203750001732,
      "v": 59
    },
    {
      "midi": 79,
      "hit": false,
      "t": 233767.1829374977,
      "d": 208.62063750001835,
      "v": 59
    },
    {
      "midi": 78,
      "hit": false,
      "t": 233982.70012499773,
      "d": 34.482749999995576,
      "v": 74
    },
    {
      "midi": 74,
      "hit": false,
      "t": 233987.87253749772,
      "d": 29.310337500006426,
      "v": 56
    },
    {
      "midi": 38,
      "hit": false,
      "t": 233994.76908749773,
      "d": 217.24132499998086,
      "v": 70
    },
    {
      "midi": 74,
      "hit": false,
      "t": 234203.38972499772,
      "d": 41.37930000000051,
      "v": 59
    },
    {
      "midi": 50,
      "hit": false,
      "t": 234203.38972499772,
      "d": 224.1378749999858,
      "v": 44
    },
    {
      "midi": 78,
      "hit": false,
      "t": 234212.0104124977,
      "d": 37.931024999998044,
      "v": 68
    },
    {
      "midi": 76,
      "hit": false,
      "t": 234405.1138124977,
      "d": 91.37928750002175,
      "v": 70
    },
    {
      "midi": 69,
      "hit": false,
      "t": 234412.0103624977,
      "d": 25.862062500003958,
      "v": 50
    },
    {
      "midi": 45,
      "hit": false,
      "t": 234418.9069124977,
      "d": 103.44825000001583,
      "v": 41
    },
    {
      "midi": 74,
      "hit": false,
      "t": 234620.63099999775,
      "d": 115.51721249998081,
      "v": 70
    },
    {
      "midi": 38,
      "hit": false,
      "t": 234625.80341249774,
      "d": 618.9653624999919,
      "v": 59
    },
    {
      "midi": 69,
      "hit": false,
      "t": 234727.52752499774,
      "d": 139.6551374999981,
      "v": 56
    },
    {
      "midi": 66,
      "hit": false,
      "t": 234825.80336249774,
      "d": 110.34479999999166,
      "v": 47
    },
    {
      "midi": 62,
      "hit": false,
      "t": 234929.25161249773,
      "d": 205.17236250001588,
      "v": 39
    },
    {
      "midi": 81,
      "hit": false,
      "t": 235034.42399999773,
      "d": 155.17237499999464,
      "v": 67
    },
    {
      "midi": 66,
      "hit": false,
      "t": 235048.21709999774,
      "d": 99.99997499998426,
      "v": 47
    },
    {
      "midi": 74,
      "hit": false,
      "t": 235139.59638749773,
      "d": 32.75861249997979,
      "v": 56
    },
    {
      "midi": 76,
      "hit": false,
      "t": 235237.87222499773,
      "d": 120.68962499996996,
      "v": 67
    },
    {
      "midi": 45,
      "hit": false,
      "t": 235237.87222499773,
      "d": 627.5860499999835,
      "v": 67
    },
    {
      "midi": 73,
      "hit": false,
      "t": 235343.0446124977,
      "d": 122.41376250001485,
      "v": 58
    },
    {
      "midi": 67,
      "hit": false,
      "t": 235455.1135499977,
      "d": 105.17238750000251,
      "v": 56
    },
    {
      "midi": 64,
      "hit": false,
      "t": 235551.66524999772,
      "d": 122.41376249998575,
      "v": 52
    },
    {
      "midi": 67,
      "hit": false,
      "t": 235653.38936249772,
      "d": 110.34479999999166,
      "v": 62
    },
    {
      "midi": 81,
      "hit": false,
      "t": 235655.1134999977,
      "d": 155.17237499999464,
      "v": 70
    },
    {
      "midi": 73,
      "hit": false,
      "t": 235746.4927874977,
      "d": 58.62067500001285,
      "v": 63
    },
    {
      "midi": 74,
      "hit": false,
      "t": 235855.1134499977,
      "d": 125.86203749998822,
      "v": 67
    },
    {
      "midi": 38,
      "hit": false,
      "t": 235865.4582749977,
      "d": 622.4136374999362,
      "v": 67
    },
    {
      "midi": 69,
      "hit": false,
      "t": 235958.5616999977,
      "d": 158.6206499999971,
      "v": 59
    },
    {
      "midi": 66,
      "hit": false,
      "t": 236067.1823624977,
      "d": 112.06893749997835,
      "v": 58
    },
    {
      "midi": 62,
      "hit": false,
      "t": 236170.63061249768,
      "d": 134.48272499997984,
      "v": 34
    },
    {
      "midi": 66,
      "hit": false,
      "t": 236274.07886249767,
      "d": 120.68962499999907,
      "v": 58
    },
    {
      "midi": 81,
      "hit": false,
      "t": 236275.80299999766,
      "d": 155.17237499999464,
      "v": 70
    },
    {
      "midi": 74,
      "hit": false,
      "t": 236377.52711249766,
      "d": 41.37930000000051,
      "v": 56
    },
    {
      "midi": 45,
      "hit": false,
      "t": 236474.07881249764,
      "d": 636.2067375000333,
      "v": 59
    },
    {
      "midi": 76,
      "hit": false,
      "t": 236480.97536249764,
      "d": 143.10341250000056,
      "v": 67
    },
    {
      "midi": 73,
      "hit": false,
      "t": 236596.49257499765,
      "d": 115.51721250000992,
      "v": 63
    },
    {
      "midi": 67,
      "hit": false,
      "t": 236698.21668749765,
      "d": 106.8965250000183,
      "v": 56
    },
    {
      "midi": 64,
      "hit": false,
      "t": 236794.76838749766,
      "d": 143.10341250000056,
      "v": 52
    },
    {
      "midi": 81,
      "hit": false,
      "t": 236896.49249999766,
      "d": 155.17237500002375,
      "v": 75
    },
    {
      "midi": 67,
      "hit": false,
      "t": 236903.38904999767,
      "d": 112.06893750000745,
      "v": 62
    },
    {
      "midi": 73,
      "hit": false,
      "t": 236998.21661249766,
      "d": 46.551712500018766,
      "v": 68
    },
    {
      "midi": 74,
      "hit": false,
      "t": 237101.66486249768,
      "d": 127.586175000004,
      "v": 67
    },
    {
      "midi": 38,
      "hit": false,
      "t": 237110.28554999767,
      "d": 618.9653624999628,
      "v": 59
    },
    {
      "midi": 69,
      "hit": false,
      "t": 237210.2855249977,
      "d": 144.82755000001634,
      "v": 59
    },
    {
      "midi": 66,
      "hit": false,
      "t": 237315.4579124977,
      "d": 103.44825000001583,
      "v": 58
    },
    {
      "midi": 62,
      "hit": false,
      "t": 237418.9061624977,
      "d": 141.37927499998477,
      "v": 52
    },
    {
      "midi": 66,
      "hit": false,
      "t": 237513.7337249977,
      "d": 117.2413499999675,
      "v": 63
    },
    {
      "midi": 81,
      "hit": false,
      "t": 237517.1819999977,
      "d": 155.17237499993644,
      "v": 70
    },
    {
      "midi": 74,
      "hit": false,
      "t": 237610.28542499768,
      "d": 41.37929999997141,
      "v": 52
    },
    {
      "midi": 45,
      "hit": false,
      "t": 237713.73367499764,
      "d": 637.93087500002,
      "v": 56
    },
    {
      "midi": 76,
      "hit": false,
      "t": 237718.90608749763,
      "d": 124.13790000000154,
      "v": 62
    },
    {
      "midi": 73,
      "hit": false,
      "t": 237822.35433749764,
      "d": 122.41376249998575,
      "v": 63
    },
    {
      "midi": 67,
      "hit": false,
      "t": 237930.97499999762,
      "d": 101.72411250002915,
      "v": 62
    },
    {
      "midi": 64,
      "hit": false,
      "t": 238025.80256249764,
      "d": 129.3103125000198,
      "v": 52
    },
    {
      "midi": 67,
      "hit": false,
      "t": 238125.80253749766,
      "d": 120.68962499999907,
      "v": 59
    },
    {
      "midi": 81,
      "hit": false,
      "t": 238137.87149999765,
      "d": 155.17237499999464,
      "v": 75
    },
    {
      "midi": 73,
      "hit": false,
      "t": 238234.42319999766,
      "d": 98.27583749999758,
      "v": 63
    },
    {
      "midi": 74,
      "hit": false,
      "t": 238343.04386249767,
      "d": 32.75861249997979,
      "v": 67
    },
    {
      "midi": 38,
      "hit": false,
      "t": 238343.04386249767,
      "d": 455.17230000000563,
      "v": 50
    },
    {
      "midi": 74,
      "hit": false,
      "t": 238449.94038749766,
      "d": 99.99997500001336,
      "v": 56
    },
    {
      "midi": 73,
      "hit": false,
      "t": 238539.59553749766,
      "d": 136.20686249999562,
      "v": 58
    },
    {
      "midi": 71,
      "hit": false,
      "t": 238637.87137499766,
      "d": 127.586175000004,
      "v": 52
    },
    {
      "midi": 69,
      "hit": false,
      "t": 238748.21617499765,
      "d": 110.34480000002077,
      "v": 56
    },
    {
      "midi": 71,
      "hit": false,
      "t": 238848.21614999766,
      "d": 106.8965250000183,
      "v": 52
    },
    {
      "midi": 69,
      "hit": false,
      "t": 238949.9402624977,
      "d": 86.20687499997439,
      "v": 62
    },
    {
      "midi": 67,
      "hit": false,
      "t": 239055.11264999767,
      "d": 124.13790000000154,
      "v": 56
    },
    {
      "midi": 66,
      "hit": false,
      "t": 239162.00917499766,
      "d": 134.48272500000894,
      "v": 58
    },
    {
      "midi": 64,
      "hit": false,
      "t": 239275.80224999768,
      "d": 105.17238750000251,
      "v": 34
    },
    {
      "midi": 62,
      "hit": false,
      "t": 239370.62981249767,
      "d": 68.96550000002026,
      "v": 50
    },
    {
      "midi": 61,
      "hit": false,
      "t": 239470.6297874977,
      "d": 13.793100000009872,
      "v": 33
    },
    {
      "midi": 74,
      "hit": false,
      "t": 239586.1469999977,
      "d": 115.51721249998081,
      "v": 44
    },
    {
      "midi": 38,
      "hit": false,
      "t": 239591.3194124977,
      "d": 618.9653624999919,
      "v": 37
    },
    {
      "midi": 69,
      "hit": false,
      "t": 239693.0435249977,
      "d": 139.6551374999981,
      "v": 35
    },
    {
      "midi": 66,
      "hit": false,
      "t": 239791.31936249768,
      "d": 110.34479999999166,
      "v": 29
    },
    {
      "midi": 62,
      "hit": false,
      "t": 239894.76761249767,
      "d": 205.17236250001588,
      "v": 24
    },
    {
      "midi": 81,
      "hit": false,
      "t": 239999.93999999767,
      "d": 155.17237499999464,
      "v": 56
    },
    {
      "midi": 66,
      "hit": false,
      "t": 240013.73309999768,
      "d": 99.99997499998426,
      "v": 29
    },
    {
      "midi": 74,
      "hit": false,
      "t": 240105.11238749768,
      "d": 32.75861249997979,
      "v": 35
    },
    {
      "midi": 76,
      "hit": false,
      "t": 240203.38822499767,
      "d": 120.68962499996996,
      "v": 42
    },
    {
      "midi": 45,
      "hit": false,
      "t": 240203.38822499767,
      "d": 627.5860499999835,
      "v": 42
    },
    {
      "midi": 73,
      "hit": false,
      "t": 240308.56061249765,
      "d": 122.41376250001485,
      "v": 36
    },
    {
      "midi": 67,
      "hit": false,
      "t": 240420.62954999765,
      "d": 105.17238750000251,
      "v": 35
    },
    {
      "midi": 64,
      "hit": false,
      "t": 240517.18124999767,
      "d": 122.41376249998575,
      "v": 32
    },
    {
      "midi": 67,
      "hit": false,
      "t": 240618.90536249767,
      "d": 110.34479999999166,
      "v": 39
    },
    {
      "midi": 81,
      "hit": false,
      "t": 240620.62949999765,
      "d": 155.17237499999464,
      "v": 56
    },
    {
      "midi": 73,
      "hit": false,
      "t": 240712.00878749765,
      "d": 58.62067500001285,
      "v": 40
    },
    {
      "midi": 74,
      "hit": false,
      "t": 240820.62944999765,
      "d": 125.86203749998822,
      "v": 42
    },
    {
      "midi": 38,
      "hit": false,
      "t": 240830.97427499766,
      "d": 622.4136374999362,
      "v": 42
    },
    {
      "midi": 69,
      "hit": false,
      "t": 240924.07769999764,
      "d": 158.6206499999971,
      "v": 37
    },
    {
      "midi": 66,
      "hit": false,
      "t": 241032.69836249764,
      "d": 112.06893749997835,
      "v": 36
    },
    {
      "midi": 62,
      "hit": false,
      "t": 241136.14661249763,
      "d": 134.48272499997984,
      "v": 21
    },
    {
      "midi": 66,
      "hit": false,
      "t": 241239.59486249762,
      "d": 120.68962499999907,
      "v": 36
    },
    {
      "midi": 81,
      "hit": false,
      "t": 241241.3189999976,
      "d": 155.17237499999464,
      "v": 52
    },
    {
      "midi": 74,
      "hit": false,
      "t": 241343.0431124976,
      "d": 41.37930000000051,
      "v": 35
    },
    {
      "midi": 45,
      "hit": false,
      "t": 241439.59481249758,
      "d": 636.2067375000333,
      "v": 37
    },
    {
      "midi": 76,
      "hit": false,
      "t": 241446.4913624976,
      "d": 143.10341250000056,
      "v": 42
    },
    {
      "midi": 73,
      "hit": false,
      "t": 241562.0085749976,
      "d": 115.51721250000992,
      "v": 40
    },
    {
      "midi": 67,
      "hit": false,
      "t": 241663.7326874976,
      "d": 106.8965250000183,
      "v": 35
    },
    {
      "midi": 64,
      "hit": false,
      "t": 241760.2843874976,
      "d": 143.10341250000056,
      "v": 32
    },
    {
      "midi": 81,
      "hit": false,
      "t": 241862.0084999976,
      "d": 155.17237500002375,
      "v": 50
    },
    {
      "midi": 67,
      "hit": false,
      "t": 241868.90504999761,
      "d": 112.06893750000745,
      "v": 39
    },
    {
      "midi": 73,
      "hit": false,
      "t": 241963.7326124976,
      "d": 46.551712500018766,
      "v": 43
    },
    {
      "midi": 74,
      "hit": false,
      "t": 242067.18086249763,
      "d": 127.586175000004,
      "v": 42
    },
    {
      "midi": 38,
      "hit": false,
      "t": 242075.80154999762,
      "d": 618.9653624999628,
      "v": 37
    },
    {
      "midi": 69,
      "hit": false,
      "t": 242175.80152499763,
      "d": 144.82755000001634,
      "v": 37
    },
    {
      "midi": 66,
      "hit": false,
      "t": 242280.97391249763,
      "d": 103.44825000001583,
      "v": 36
    },
    {
      "midi": 62,
      "hit": false,
      "t": 242384.42216249765,
      "d": 141.37927499998477,
      "v": 32
    },
    {
      "midi": 66,
      "hit": false,
      "t": 242479.24972499764,
      "d": 117.2413499999675,
      "v": 40
    },
    {
      "midi": 81,
      "hit": false,
      "t": 242482.69799999765,
      "d": 155.17237499993644,
      "v": 52
    },
    {
      "midi": 74,
      "hit": false,
      "t": 242575.80142499763,
      "d": 41.37929999997141,
      "v": 32
    },
    {
      "midi": 45,
      "hit": false,
      "t": 242679.24967499758,
      "d": 637.93087500002,
      "v": 35
    },
    {
      "midi": 76,
      "hit": false,
      "t": 242684.42208749757,
      "d": 124.13790000000154,
      "v": 39
    },
    {
      "midi": 73,
      "hit": false,
      "t": 242787.8703374976,
      "d": 122.41376249998575,
      "v": 40
    },
    {
      "midi": 67,
      "hit": false,
      "t": 242896.49099999756,
      "d": 101.72411250002915,
      "v": 39
    },
    {
      "midi": 64,
      "hit": false,
      "t": 242991.3185624976,
      "d": 129.3103125000198,
      "v": 32
    },
    {
      "midi": 67,
      "hit": false,
      "t": 243091.3185374976,
      "d": 120.68962499999907,
      "v": 37
    },
    {
      "midi": 81,
      "hit": false,
      "t": 243103.3874999976,
      "d": 155.17237499999464,
      "v": 44
    },
    {
      "midi": 73,
      "hit": false,
      "t": 243199.9391999976,
      "d": 98.27583749999758,
      "v": 40
    },
    {
      "midi": 74,
      "hit": false,
      "t": 243308.5598624976,
      "d": 32.75861249997979,
      "v": 42
    },
    {
      "midi": 38,
      "hit": false,
      "t": 243308.5598624976,
      "d": 455.17230000000563,
      "v": 32
    },
    {
      "midi": 74,
      "hit": false,
      "t": 243415.4563874976,
      "d": 99.99997500001336,
      "v": 35
    },
    {
      "midi": 73,
      "hit": false,
      "t": 243505.1115374976,
      "d": 136.20686249999562,
      "v": 36
    },
    {
      "midi": 71,
      "hit": false,
      "t": 243603.3873749976,
      "d": 127.586175000004,
      "v": 32
    },
    {
      "midi": 69,
      "hit": false,
      "t": 243713.7321749976,
      "d": 110.34480000002077,
      "v": 35
    },
    {
      "midi": 71,
      "hit": false,
      "t": 243813.7321499976,
      "d": 106.8965250000183,
      "v": 32
    },
    {
      "midi": 69,
      "hit": false,
      "t": 243915.45626249764,
      "d": 86.20687499997439,
      "v": 39
    },
    {
      "midi": 67,
      "hit": false,
      "t": 244020.6286499976,
      "d": 124.13790000000154,
      "v": 56
    },
    {
      "midi": 66,
      "hit": false,
      "t": 244127.5251749976,
      "d": 134.48272500000894,
      "v": 58
    },
    {
      "midi": 64,
      "hit": false,
      "t": 244241.31824999762,
      "d": 105.17238750000251,
      "v": 34
    },
    {
      "midi": 62,
      "hit": false,
      "t": 244336.14581249762,
      "d": 68.96550000002026,
      "v": 50
    },
    {
      "midi": 61,
      "hit": false,
      "t": 244436.14578749763,
      "d": 13.793100000009872,
      "v": 33
    },
    {
      "midi": 62,
      "hit": false,
      "t": 244548.21472499764,
      "d": 13.793100000009872,
      "v": 56
    },
    {
      "midi": 50,
      "hit": false,
      "t": 244562.00782499765,
      "d": 194.82753750000848,
      "v": 56
    },
    {
      "midi": 77,
      "hit": false,
      "t": 244749.93881249765,
      "d": 474.13781250000466,
      "v": 59
    },
    {
      "midi": 62,
      "hit": false,
      "t": 244756.83536249766,
      "d": 213.7930499999784,
      "v": 44
    },
    {
      "midi": 65,
      "hit": false,
      "t": 244756.83536249766,
      "d": 456.8964374999923,
      "v": 52
    },
    {
      "midi": 60,
      "hit": false,
      "t": 244965.45599999765,
      "d": 203.4482250000001,
      "v": 39
    },
    {
      "midi": 58,
      "hit": false,
      "t": 245175.80077499765,
      "d": 198.27581249998184,
      "v": 40
    },
    {
      "midi": 77,
      "hit": false,
      "t": 245368.90417499765,
      "d": 432.75851250000414,
      "v": 67
    },
    {
      "midi": 65,
      "hit": false,
      "t": 245374.07658749764,
      "d": 415.5171375000209,
      "v": 59
    },
    {
      "midi": 62,
      "hit": false,
      "t": 245384.42141249764,
      "d": 215.51718750002328,
      "v": 44
    },
    {
      "midi": 57,
      "hit": false,
      "t": 245586.14549999766,
      "d": 218.96546249999665,
      "v": 44
    },
    {
      "midi": 55,
      "hit": false,
      "t": 245796.49027499766,
      "d": 403.4481749999686,
      "v": 52
    },
    {
      "midi": 79,
      "hit": false,
      "t": 245998.21436249765,
      "d": 31.034474999993108,
      "v": 62
    },
    {
      "midi": 67,
      "hit": false,
      "t": 246005.11091249765,
      "d": 24.137924999988172,
      "v": 47
    },
    {
      "midi": 76,
      "hit": false,
      "t": 246194.76603749764,
      "d": 32.75861249997979,
      "v": 62
    },
    {
      "midi": 43,
      "hit": false,
      "t": 246199.93844999763,
      "d": 12.068962499994086,
      "v": 50
    },
    {
      "midi": 64,
      "hit": false,
      "t": 246199.93844999763,
      "d": 27.58619999999064,
      "v": 42
    },
    {
      "midi": 74,
      "hit": false,
      "t": 246399.93839999763,
      "d": 124.13789999997243,
      "v": 59
    },
    {
      "midi": 62,
      "hit": false,
      "t": 246405.11081249762,
      "d": 98.27583749999758,
      "v": 47
    },
    {
      "midi": 45,
      "hit": false,
      "t": 246412.00736249762,
      "d": 408.62058749995776,
      "v": 62
    },
    {
      "midi": 62,
      "hit": false,
      "t": 246615.4555874976,
      "d": 41.37930000000051,
      "v": 34
    },
    {
      "midi": 74,
      "hit": false,
      "t": 246615.4555874976,
      "d": 46.55171249998966,
      "v": 52
    },
    {
      "midi": 73,
      "hit": false,
      "t": 246820.62794999758,
      "d": 34.482749999995576,
      "v": 63
    },
    {
      "midi": 61,
      "hit": false,
      "t": 246827.52449999758,
      "d": 20.689649999985704,
      "v": 39
    },
    {
      "midi": 57,
      "hit": false,
      "t": 246839.59346249758,
      "d": 15.517237499996554,
      "v": 50
    },
    {
      "midi": 74,
      "hit": false,
      "t": 247022.35203749756,
      "d": 43.1034375000163,
      "v": 62
    },
    {
      "midi": 62,
      "hit": false,
      "t": 247029.24858749757,
      "d": 18.965512499999022,
      "v": 44
    },
    {
      "midi": 50,
      "hit": false,
      "t": 247036.14513749757,
      "d": 187.93098750000354,
      "v": 35
    },
    {
      "midi": 78,
      "hit": false,
      "t": 247224.07612499758,
      "d": 481.0343624999514,
      "v": 47
    },
    {
      "midi": 62,
      "hit": false,
      "t": 247230.97267499758,
      "d": 218.96546249996754,
      "v": 32
    },
    {
      "midi": 66,
      "hit": false,
      "t": 247230.97267499758,
      "d": 467.2412624999415,
      "v": 35
    },
    {
      "midi": 61,
      "hit": false,
      "t": 247443.04158749754,
      "d": 198.27581249998184,
      "v": 24
    },
    {
      "midi": 59,
      "hit": false,
      "t": 247648.21394999753,
      "d": 198.27581249998184,
      "v": 32
    },
    {
      "midi": 78,
      "hit": false,
      "t": 247837.86907499752,
      "d": 443.10333749995334,
      "v": 43
    },
    {
      "midi": 66,
      "hit": false,
      "t": 247846.4897624975,
      "d": 427.5860999999568,
      "v": 32
    },
    {
      "midi": 62,
      "hit": false,
      "t": 247860.2828624975,
      "d": 210.34477499997593,
      "v": 28
    },
    {
      "midi": 57,
      "hit": false,
      "t": 248062.00694999748,
      "d": 208.62063749998924,
      "v": 28
    },
    {
      "midi": 55,
      "hit": false,
      "t": 248265.45517499748,
      "d": 434.4826499999617,
      "v": 32
    },
    {
      "midi": 79,
      "hit": false,
      "t": 248474.07581249747,
      "d": 29.310337499977322,
      "v": 37
    },
    {
      "midi": 67,
      "hit": false,
      "t": 248479.24822499746,
      "d": 29.310337499977322,
      "v": 28
    },
    {
      "midi": 43,
      "hit": false,
      "t": 248684.42058749744,
      "d": 15.517237499996554,
      "v": 29
    },
    {
      "midi": 76,
      "hit": false,
      "t": 248684.42058749744,
      "d": 32.758612500008894,
      "v": 39
    },
    {
      "midi": 64,
      "hit": false,
      "t": 248693.04127499743,
      "d": 27.586200000019744,
      "v": 26
    },
    {
      "midi": 74,
      "hit": false,
      "t": 248887.86881249744,
      "d": 67.24136249997537,
      "v": 42
    },
    {
      "midi": 62,
      "hit": false,
      "t": 248894.76536249745,
      "d": 46.55171249998966,
      "v": 32
    },
    {
      "midi": 45,
      "hit": false,
      "t": 248894.76536249745,
      "d": 410.34472499997355,
      "v": 35
    },
    {
      "midi": 74,
      "hit": false,
      "t": 249091.3170374974,
      "d": 51.724125000007916,
      "v": 39
    },
    {
      "midi": 62,
      "hit": false,
      "t": 249098.21358749742,
      "d": 31.034474999993108,
      "v": 28
    },
    {
      "midi": 61,
      "hit": false,
      "t": 249296.48939999743,
      "d": 27.58619999999064,
      "v": 32
    },
    {
      "midi": 73,
      "hit": false,
      "t": 249296.48939999743,
      "d": 32.75861249997979,
      "v": 36
    },
    {
      "midi": 57,
      "hit": false,
      "t": 249317.17904999742,
      "d": 18.965512499999022,
      "v": 22
    },
    {
      "midi": 62,
      "hit": false,
      "t": 249498.21348749739,
      "d": 22.41378750000149,
      "v": 24
    },
    {
      "midi": 74,
      "hit": false,
      "t": 249498.21348749739,
      "d": 32.75861249997979,
      "v": 39
    },
    {
      "midi": 50,
      "hit": false,
      "t": 249512.0065874974,
      "d": 399.99989999993704,
      "v": 32
    },
    {
      "midi": 74,
      "hit": false,
      "t": 249705.10998749736,
      "d": 18.965512499999022,
      "v": 56
    },
    {
      "midi": 86,
      "hit": false,
      "t": 249705.10998749736,
      "d": 18.965512499999022,
      "v": 67
    },
    {
      "midi": 83,
      "hit": false,
      "t": 249901.66166249732,
      "d": 212.0689124999917,
      "v": 70
    },
    {
      "midi": 71,
      "hit": false,
      "t": 249901.66166249732,
      "d": 218.96546249999665,
      "v": 56
    },
    {
      "midi": 62,
      "hit": false,
      "t": 249912.00648749733,
      "d": 201.7240874999843,
      "v": 56
    },
    {
      "midi": 61,
      "hit": false,
      "t": 250106.8340249973,
      "d": 446.5516124999849,
      "v": 62
    },
    {
      "midi": 81,
      "hit": false,
      "t": 250315.4546624973,
      "d": 37.931024999998044,
      "v": 62
    },
    {
      "midi": 69,
      "hit": false,
      "t": 250322.3512124973,
      "d": 25.862062500003958,
      "v": 47
    },
    {
      "midi": 79,
      "hit": false,
      "t": 250525.7994374973,
      "d": 37.931024999998044,
      "v": 59
    },
    {
      "midi": 67,
      "hit": false,
      "t": 250532.6959874973,
      "d": 24.137924999988172,
      "v": 47
    },
    {
      "midi": 59,
      "hit": false,
      "t": 250537.8683999973,
      "d": 25.862062500003958,
      "v": 45
    },
    {
      "midi": 66,
      "hit": false,
      "t": 250720.6269749973,
      "d": 17.24137500001234,
      "v": 47
    },
    {
      "midi": 78,
      "hit": false,
      "t": 250727.52352499732,
      "d": 29.310337500006426,
      "v": 58
    },
    {
      "midi": 50,
      "hit": false,
      "t": 250744.76489999733,
      "d": 410.34472499997355,
      "v": 41
    },
    {
      "midi": 86,
      "hit": false,
      "t": 250930.97174999732,
      "d": 25.862062499974854,
      "v": 39
    },
    {
      "midi": 74,
      "hit": false,
      "t": 250936.1441624973,
      "d": 20.689649999985704,
      "v": 28
    },
    {
      "midi": 82,
      "hit": false,
      "t": 251136.1441124973,
      "d": 210.34477499997593,
      "v": 47
    },
    {
      "midi": 55,
      "hit": false,
      "t": 251143.0406624973,
      "d": 217.24132499998086,
      "v": 37
    },
    {
      "midi": 70,
      "hit": false,
      "t": 251143.0406624973,
      "d": 231.03442499999073,
      "v": 32
    },
    {
      "midi": 57,
      "hit": false,
      "t": 251343.04061249728,
      "d": 462.0688500000397,
      "v": 35
    },
    {
      "midi": 81,
      "hit": false,
      "t": 251548.2129749973,
      "d": 37.931024999998044,
      "v": 37
    },
    {
      "midi": 69,
      "hit": false,
      "t": 251553.38538749728,
      "d": 32.758612500008894,
      "v": 32
    },
    {
      "midi": 67,
      "hit": false,
      "t": 251780.9715374973,
      "d": 37.931024999998044,
      "v": 21
    },
    {
      "midi": 79,
      "hit": false,
      "t": 251780.9715374973,
      "d": 41.37930000000051,
      "v": 29
    },
    {
      "midi": 45,
      "hit": false,
      "t": 251791.3163624973,
      "d": 18.965512499999022,
      "v": 20
    },
    {
      "midi": 65,
      "hit": false,
      "t": 251996.48872499733,
      "d": 20.689649999985704,
      "v": 32
    },
    {
      "midi": 77,
      "hit": false,
      "t": 252001.6611374973,
      "d": 37.931024999998044,
      "v": 36
    },
    {
      "midi": 50,
      "hit": false,
      "t": 252012.00596249732,
      "d": 398.27576250000857,
      "v": 52
    },
    {
      "midi": 86,
      "hit": false,
      "t": 252203.38522499733,
      "d": 32.758612500008894,
      "v": 67
    },
    {
      "midi": 74,
      "hit": false,
      "t": 252208.55763749732,
      "d": 13.793100000009872,
      "v": 52
    },
    {
      "midi": 83,
      "hit": false,
      "t": 252405.10931249734,
      "d": 217.24132500000997,
      "v": 70
    },
    {
      "midi": 71,
      "hit": false,
      "t": 252410.28172499733,
      "d": 222.41373750002822,
      "v": 50
    },
    {
      "midi": 62,
      "hit": false,
      "t": 252422.35068749732,
      "d": 196.55167500002426,
      "v": 50
    },
    {
      "midi": 61,
      "hit": false,
      "t": 252612.00581249734,
      "d": 446.551612500014,
      "v": 48
    },
    {
      "midi": 81,
      "hit": false,
      "t": 252818.90231249735,
      "d": 32.758612500008894,
      "v": 62
    },
    {
      "midi": 69,
      "hit": false,
      "t": 252825.79886249735,
      "d": 25.862062500003958,
      "v": 44
    },
    {
      "midi": 79,
      "hit": false,
      "t": 253032.69536249735,
      "d": 36.20688749998226,
      "v": 52
    },
    {
      "midi": 67,
      "hit": false,
      "t": 253039.59191249736,
      "d": 24.137924999988172,
      "v": 36
    },
    {
      "midi": 59,
      "hit": false,
      "t": 253046.48846249736,
      "d": 27.586199999961536,
      "v": 43
    },
    {
      "midi": 66,
      "hit": false,
      "t": 253225.7987624973,
      "d": 12.068962499994086,
      "v": 44
    },
    {
      "midi": 78,
      "hit": false,
      "t": 253230.97117499728,
      "d": 27.58619999999064,
      "v": 55
    },
    {
      "midi": 50,
      "hit": false,
      "t": 253241.31599999728,
      "d": 399.99989999993704,
      "v": 29
    },
    {
      "midi": 86,
      "hit": false,
      "t": 253429.24698749726,
      "d": 32.75861249997979,
      "v": 42
    },
    {
      "midi": 74,
      "hit": false,
      "t": 253434.41939999725,
      "d": 20.689649999985704,
      "v": 20
    },
    {
      "midi": 82,
      "hit": false,
      "t": 253624.07452499724,
      "d": 255.1723499998916,
      "v": 47
    },
    {
      "midi": 55,
      "hit": false,
      "t": 253632.69521249723,
      "d": 222.4137374999118,
      "v": 32
    },
    {
      "midi": 70,
      "hit": false,
      "t": 253632.69521249723,
      "d": 284.482687499898,
      "v": 28
    },
    {
      "midi": 57,
      "hit": false,
      "t": 253839.59171249717,
      "d": 463.79298749993904,
      "v": 32
    },
    {
      "midi": 81,
      "hit": false,
      "t": 254049.93648749712,
      "d": 34.482749999995576,
      "v": 39
    },
    {
      "midi": 69,
      "hit": false,
      "t": 254055.1088999971,
      "d": 25.862062500003958,
      "v": 32
    },
    {
      "midi": 79,
      "hit": false,
      "t": 254267.17781249713,
      "d": 48.275849999976344,
      "v": 28
    },
    {
      "midi": 67,
      "hit": false,
      "t": 254272.35022499712,
      "d": 39.655162499984726,
      "v": 12
    },
    {
      "midi": 45,
      "hit": false,
      "t": 254279.24677499713,
      "d": 46.55171249998966,
      "v": 18
    },
    {
      "midi": 77,
      "hit": false,
      "t": 254479.24672499715,
      "d": 53.4482624999946,
      "v": 47
    },
    {
      "midi": 50,
      "hit": false,
      "t": 254480.97086249714,
      "d": 198.27581250001094,
      "v": 36
    },
    {
      "midi": 65,
      "hit": false,
      "t": 254498.21223749715,
      "d": 34.482749999995576,
      "v": 14
    },
    {
      "midi": 76,
      "hit": false,
      "t": 254687.86736249714,
      "d": 48.275849999976344,
      "v": 50
    },
    {
      "midi": 52,
      "hit": false,
      "t": 254693.03977499713,
      "d": 201.7240874999843,
      "v": 34
    },
    {
      "midi": 62,
      "hit": false,
      "t": 254882.69489999712,
      "d": 18.965512499999022,
      "v": 41
    },
    {
      "midi": 74,
      "hit": false,
      "t": 254887.8673124971,
      "d": 31.034475000022212,
      "v": 52
    },
    {
      "midi": 53,
      "hit": false,
      "t": 254894.76386249712,
      "d": 210.34477500000503,
      "v": 45
    },
    {
      "midi": 67,
      "hit": false,
      "t": 255096.48794999713,
      "d": 36.206887499953154,
      "v": 47
    },
    {
      "midi": 79,
      "hit": false,
      "t": 255096.48794999713,
      "d": 44.82757499994477,
      "v": 59
    },
    {
      "midi": 55,
      "hit": false,
      "t": 255106.8327749971,
      "d": 181.0344374999695,
      "v": 41
    },
    {
      "midi": 77,
      "hit": false,
      "t": 255287.86721249708,
      "d": 51.724125000007916,
      "v": 67
    },
    {
      "midi": 65,
      "hit": false,
      "t": 255294.76376249708,
      "d": 31.034474999993108,
      "v": 50
    },
    {
      "midi": 57,
      "hit": false,
      "t": 255305.1085874971,
      "d": 205.17236249998678,
      "v": 36
    },
    {
      "midi": 45,
      "hit": false,
      "t": 255493.0395749971,
      "d": 22.413787499972386,
      "v": 50
    },
    {
      "midi": 76,
      "hit": false,
      "t": 255498.21198749708,
      "d": 31.034474999993108,
      "v": 67
    },
    {
      "midi": 64,
      "hit": false,
      "t": 255503.38439999707,
      "d": 22.41378750000149,
      "v": 40
    },
    {
      "midi": 62,
      "hit": false,
      "t": 255689.59124999706,
      "d": 15.51723749996745,
      "v": 56
    },
    {
      "midi": 74,
      "hit": false,
      "t": 255694.76366249705,
      "d": 32.75861249995069,
      "v": 62
    },
    {
      "midi": 50,
      "hit": false,
      "t": 255699.93607499704,
      "d": 270.68958749994636,
      "v": 62
    },
    {
      "midi": 69,
      "hit": false,
      "t": 255903.384299997,
      "d": 34.482749999995576,
      "v": 52
    },
    {
      "midi": 81,
      "hit": false,
      "t": 255905.108437497,
      "d": 34.482749999995576,
      "v": 62
    },
    {
      "midi": 66,
      "hit": false,
      "t": 256106.83252499698,
      "d": 20.689649999985704,
      "v": 55
    },
    {
      "midi": 78,
      "hit": false,
      "t": 256106.83252499698,
      "d": 34.482749999995576,
      "v": 74
    },
    {
      "midi": 50,
      "hit": false,
      "t": 256118.90148749697,
      "d": 184.48271250000107,
      "v": 59
    },
    {
      "midi": 83,
      "hit": false,
      "t": 256313.72902499698,
      "d": 36.20688749998226,
      "v": 67
    },
    {
      "midi": 71,
      "hit": false,
      "t": 256315.45316249697,
      "d": 34.482749999995576,
      "v": 59
    },
    {
      "midi": 55,
      "hit": false,
      "t": 256315.45316249697,
      "d": 205.17236249998678,
      "v": 62
    },
    {
      "midi": 67,
      "hit": false,
      "t": 256506.83242499697,
      "d": 24.137924999988172,
      "v": 62
    },
    {
      "midi": 79,
      "hit": false,
      "t": 256508.55656249696,
      "d": 41.37930000000051,
      "v": 67
    },
    {
      "midi": 52,
      "hit": false,
      "t": 256515.45311249697,
      "d": 217.24132500000997,
      "v": 67
    },
    {
      "midi": 73,
      "hit": false,
      "t": 256715.45306249696,
      "d": 31.034475000022212,
      "v": 55
    },
    {
      "midi": 85,
      "hit": false,
      "t": 256715.45306249696,
      "d": 37.93102500002715,
      "v": 80
    },
    {
      "midi": 57,
      "hit": false,
      "t": 256722.34961249697,
      "d": 31.034475000022212,
      "v": 52
    },
    {
      "midi": 86,
      "hit": false,
      "t": 256937.86679999702,
      "d": 31.034474999964004,
      "v": 70
    },
    {
      "midi": 74,
      "hit": false,
      "t": 256943.039212497,
      "d": 31.034474999964004,
      "v": 62
    },
    {
      "midi": 62,
      "hit": false,
      "t": 256948.211624997,
      "d": 186.20684999998775,
      "v": 50
    },
    {
      "midi": 54,
      "hit": false,
      "t": 256948.211624997,
      "d": 215.51718749999418,
      "v": 63
    },
    {
      "midi": 69,
      "hit": false,
      "t": 257148.211574997,
      "d": 32.758612500008894,
      "v": 52
    },
    {
      "midi": 81,
      "hit": false,
      "t": 257148.211574997,
      "d": 36.20688750001136,
      "v": 62
    },
    {
      "midi": 50,
      "hit": false,
      "t": 257167.177087497,
      "d": 217.24132500000997,
      "v": 52
    },
    {
      "midi": 66,
      "hit": false,
      "t": 257362.004624997,
      "d": 13.793100000009872,
      "v": 40
    },
    {
      "midi": 78,
      "hit": false,
      "t": 257362.004624997,
      "d": 29.310337500006426,
      "v": 55
    },
    {
      "midi": 54,
      "hit": false,
      "t": 257375.797724997,
      "d": 91.37928749999264,
      "v": 47
    },
    {
      "midi": 83,
      "hit": false,
      "t": 257575.797674997,
      "d": 41.37929999997141,
      "v": 67
    },
    {
      "midi": 71,
      "hit": false,
      "t": 257580.970087497,
      "d": 32.75861249997979,
      "v": 52
    },
    {
      "midi": 55,
      "hit": false,
      "t": 257586.142499997,
      "d": 196.55167499999516,
      "v": 47
    },
    {
      "midi": 62,
      "hit": false,
      "t": 257586.142499997,
      "d": 387.93093750000116,
      "v": 31
    },
    {
      "midi": 67,
      "hit": false,
      "t": 257775.79762499698,
      "d": 22.41378750000149,
      "v": 52
    },
    {
      "midi": 79,
      "hit": false,
      "t": 257782.69417499698,
      "d": 29.310337500006426,
      "v": 62
    },
    {
      "midi": 52,
      "hit": false,
      "t": 257782.69417499698,
      "d": 215.51718749999418,
      "v": 52
    },
    {
      "midi": 85,
      "hit": false,
      "t": 257986.14239999698,
      "d": 36.20688750001136,
      "v": 80
    },
    {
      "midi": 73,
      "hit": false,
      "t": 257993.038949997,
      "d": 15.517237499996554,
      "v": 55
    },
    {
      "midi": 57,
      "hit": false,
      "t": 257998.21136249698,
      "d": 24.137925000017276,
      "v": 50
    },
    {
      "midi": 86,
      "hit": false,
      "t": 258186.142349997,
      "d": 37.931024999998044,
      "v": 70
    },
    {
      "midi": 74,
      "hit": false,
      "t": 258191.314762497,
      "d": 32.758612500008894,
      "v": 62
    },
    {
      "midi": 62,
      "hit": false,
      "t": 258198.211312497,
      "d": 115.51721250000992,
      "v": 29
    },
    {
      "midi": 54,
      "hit": false,
      "t": 258198.211312497,
      "d": 213.7930500000075,
      "v": 47
    },
    {
      "midi": 81,
      "hit": false,
      "t": 258399.93539999702,
      "d": 39.655162499984726,
      "v": 56
    },
    {
      "midi": 69,
      "hit": false,
      "t": 258406.83194999702,
      "d": 18.96551249996992,
      "v": 47
    },
    {
      "midi": 50,
      "hit": false,
      "t": 258417.176774997,
      "d": 172.41375000000698,
      "v": 44
    },
    {
      "midi": 66,
      "hit": false,
      "t": 258599.93534999702,
      "d": 13.793099999980768,
      "v": 44
    },
    {
      "midi": 78,
      "hit": false,
      "t": 258599.93534999702,
      "d": 27.58619999999064,
      "v": 63
    },
    {
      "midi": 54,
      "hit": false,
      "t": 258608.556037497,
      "d": 74.1379125000094,
      "v": 32
    },
    {
      "midi": 71,
      "hit": false,
      "t": 258805.107712497,
      "d": 32.758612500008894,
      "v": 41
    },
    {
      "midi": 83,
      "hit": false,
      "t": 258805.107712497,
      "d": 32.758612500008894,
      "v": 59
    },
    {
      "midi": 55,
      "hit": false,
      "t": 258815.452537497,
      "d": 194.82753750000848,
      "v": 50
    },
    {
      "midi": 62,
      "hit": false,
      "t": 258820.624949997,
      "d": 210.34477500000503,
      "v": 21
    },
    {
      "midi": 67,
      "hit": false,
      "t": 259001.65938749703,
      "d": 22.413787499972386,
      "v": 50
    },
    {
      "midi": 79,
      "hit": false,
      "t": 259001.65938749703,
      "d": 37.93102499996894,
      "v": 62
    },
    {
      "midi": 52,
      "hit": false,
      "t": 259015.452487497,
      "d": 205.17236249998678,
      "v": 50
    },
    {
      "midi": 73,
      "hit": false,
      "t": 259201.659337497,
      "d": 22.41378750000149,
      "v": 50
    },
    {
      "midi": 85,
      "hit": false,
      "t": 259203.38347499698,
      "d": 34.48275000002468,
      "v": 68
    },
    {
      "midi": 57,
      "hit": false,
      "t": 259213.728299997,
      "d": 143.10341250002966,
      "v": 41
    },
    {
      "midi": 86,
      "hit": false,
      "t": 259401.65928749702,
      "d": 34.48274999996647,
      "v": 67
    },
    {
      "midi": 74,
      "hit": false,
      "t": 259406.831699997,
      "d": 29.310337499977322,
      "v": 56
    },
    {
      "midi": 62,
      "hit": false,
      "t": 259406.831699997,
      "d": 210.34477499997593,
      "v": 41
    },
    {
      "midi": 54,
      "hit": false,
      "t": 259418.900662497,
      "d": 198.27581249998184,
      "v": 50
    },
    {
      "midi": 81,
      "hit": false,
      "t": 259612.004062497,
      "d": 206.89649999997346,
      "v": 62
    },
    {
      "midi": 50,
      "hit": false,
      "t": 259622.34888749698,
      "d": 212.0689124999917,
      "v": 41
    },
    {
      "midi": 78,
      "hit": false,
      "t": 259627.52129999697,
      "d": 158.6206499999971,
      "v": 50
    },
    {
      "midi": 79,
      "hit": false,
      "t": 259827.52124999696,
      "d": 225.86201250000158,
      "v": 50
    },
    {
      "midi": 55,
      "hit": false,
      "t": 259836.14193749696,
      "d": 208.62063750001835,
      "v": 47
    },
    {
      "midi": 76,
      "hit": false,
      "t": 259836.14193749696,
      "d": 208.62063750001835,
      "v": 52
    },
    {
      "midi": 78,
      "hit": false,
      "t": 260044.76257499697,
      "d": 29.310337499977322,
      "v": 68
    },
    {
      "midi": 74,
      "hit": false,
      "t": 260044.76257499697,
      "d": 36.20688749998226,
      "v": 52
    },
    {
      "midi": 57,
      "hit": false,
      "t": 260055.10739999695,
      "d": 424.1378249999834,
      "v": 50
    },
    {
      "midi": 78,
      "hit": false,
      "t": 260262.00389999695,
      "d": 217.24132499998086,
      "v": 50
    },
    {
      "midi": 74,
      "hit": false,
      "t": 260270.62458749695,
      "d": 149.9999625000055,
      "v": 29
    },
    {
      "midi": 76,
      "hit": false,
      "t": 260470.62453749694,
      "d": 34.482749999995576,
      "v": 59
    },
    {
      "midi": 45,
      "hit": false,
      "t": 260479.24522499694,
      "d": 17.24137500001234,
      "v": 41
    },
    {
      "midi": 69,
      "hit": false,
      "t": 260479.24522499694,
      "d": 20.689650000014808,
      "v": 47
    },
    {
      "midi": 38,
      "hit": false,
      "t": 260691.31413749693,
      "d": 415.5171374999918,
      "v": 67
    },
    {
      "midi": 66,
      "hit": false,
      "t": 260696.48654999692,
      "d": 31.034474999993108,
      "v": 55
    },
    {
      "midi": 74,
      "hit": false,
      "t": 260696.48654999692,
      "d": 37.931024999998044,
      "v": 59
    },
    {
      "midi": 66,
      "hit": false,
      "t": 260896.4864999969,
      "d": 25.862062500003958,
      "v": 35
    },
    {
      "midi": 74,
      "hit": false,
      "t": 260903.38304999692,
      "d": 79.31032499999856,
      "v": 50
    },
    {
      "midi": 76,
      "hit": false,
      "t": 261106.83127499692,
      "d": 72.41377499999362,
      "v": 56
    },
    {
      "midi": 69,
      "hit": false,
      "t": 261117.17609999693,
      "d": 160.3447874999838,
      "v": 47
    },
    {
      "midi": 66,
      "hit": false,
      "t": 261299.9346749969,
      "d": 32.75861249997979,
      "v": 55
    },
    {
      "midi": 74,
      "hit": false,
      "t": 261305.1070874969,
      "d": 34.482749999995576,
      "v": 62
    },
    {
      "midi": 38,
      "hit": false,
      "t": 261305.1070874969,
      "d": 406.8964500000002,
      "v": 59
    },
    {
      "midi": 66,
      "hit": false,
      "t": 261505.1070374969,
      "d": 25.862062500003958,
      "v": 40
    },
    {
      "midi": 74,
      "hit": false,
      "t": 261512.0035874969,
      "d": 89.65515000000596,
      "v": 52
    },
    {
      "midi": 76,
      "hit": false,
      "t": 261712.0035374969,
      "d": 53.4482624999946,
      "v": 59
    },
    {
      "midi": 69,
      "hit": false,
      "t": 261722.3483624969,
      "d": 151.72409999999218,
      "v": 41
    },
    {
      "midi": 66,
      "hit": false,
      "t": 261922.34831249685,
      "d": 8.620687499991618,
      "v": 47
    },
    {
      "midi": 38,
      "hit": false,
      "t": 261927.52072499684,
      "d": 3.448275000002468,
      "v": 41
    },
    {
      "midi": 74,
      "hit": false,
      "t": 261927.52072499684,
      "d": 3.448275000002468,
      "v": 59
    },
    {
      "midi": 76,
      "hit": false,
      "t": 262112.00343749684,
      "d": 165.51720000000205,
      "v": 59
    },
    {
      "midi": 69,
      "hit": false,
      "t": 262117.17584999683,
      "d": 32.758612500008894,
      "v": 44
    },
    {
      "midi": 74,
      "hit": false,
      "t": 262327.52062499686,
      "d": 193.1034000000218,
      "v": 59
    },
    {
      "midi": 66,
      "hit": false,
      "t": 262332.6930374969,
      "d": 37.931024999998044,
      "v": 44
    },
    {
      "midi": 38,
      "hit": false,
      "t": 262337.8654499969,
      "d": 236.20683749997988,
      "v": 52
    },
    {
      "midi": 69,
      "hit": false,
      "t": 262544.7619499969,
      "d": 41.379300000029616,
      "v": 44
    },
    {
      "midi": 76,
      "hit": false,
      "t": 262544.7619499969,
      "d": 191.3792625000351,
      "v": 62
    },
    {
      "midi": 74,
      "hit": false,
      "t": 262751.6584499969,
      "d": 177.58616250002524,
      "v": 47
    },
    {
      "midi": 66,
      "hit": false,
      "t": 262753.3825874969,
      "d": 36.20688750001136,
      "v": 50
    },
    {
      "midi": 38,
      "hit": false,
      "t": 262758.5549999969,
      "d": 256.8964875000529,
      "v": 44
    },
    {
      "midi": 69,
      "hit": false,
      "t": 262958.55494999693,
      "d": 34.48275000002468,
      "v": 34
    },
    {
      "midi": 76,
      "hit": false,
      "t": 262963.72736249695,
      "d": 184.48271250003017,
      "v": 62
    },
    {
      "midi": 74,
      "hit": false,
      "t": 263172.347999997,
      "d": 37.931024999998044,
      "v": 56
    },
    {
      "midi": 66,
      "hit": false,
      "t": 263182.69282499695,
      "d": 365.517150000087,
      "v": 50
    },
    {
      "midi": 38,
      "hit": false,
      "t": 263187.86523749697,
      "d": 353.4481875000638,
      "v": 56
    },
    {
      "midi": 76,
      "hit": false,
      "t": 263224.072124997,
      "d": 37.931024999998044,
      "v": 34
    },
    {
      "midi": 74,
      "hit": false,
      "t": 263275.796249997,
      "d": 37.931024999998044,
      "v": 34
    },
    {
      "midi": 76,
      "hit": false,
      "t": 263327.520374997,
      "d": 37.931024999998044,
      "v": 34
    },
    {
      "midi": 74,
      "hit": false,
      "t": 263379.244499997,
      "d": 37.931024999998044,
      "v": 32
    },
    {
      "midi": 76,
      "hit": false,
      "t": 263430.968624997,
      "d": 37.931024999998044,
      "v": 34
    },
    {
      "midi": 74,
      "hit": false,
      "t": 263482.692749997,
      "d": 37.931024999998044,
      "v": 36
    },
    {
      "midi": 76,
      "hit": false,
      "t": 263534.416874997,
      "d": 37.931024999998044,
      "v": 36
    },
    {
      "midi": 74,
      "hit": false,
      "t": 263586.14099999703,
      "d": 31.034474999993108,
      "v": 36
    },
    {
      "midi": 76,
      "hit": false,
      "t": 263637.86512499704,
      "d": 37.931024999998044,
      "v": 34
    },
    {
      "midi": 74,
      "hit": false,
      "t": 263689.58924999705,
      "d": 37.931024999998044,
      "v": 32
    },
    {
      "midi": 76,
      "hit": false,
      "t": 263741.31337499706,
      "d": 37.931024999998044,
      "v": 36
    },
    {
      "midi": 74,
      "hit": false,
      "t": 263793.03749999707,
      "d": 572.4136500000022,
      "v": 41
    }
  ]
}