{
  "jsonPath": "Unknown/Unknown/The Carpenters/make-believe-its-your-first-time.json",
  "path": "Unknown\\Unknown\\The Carpenters\\Make Believe Its Your First Time.mid",
  "name": "Make Believe Its Your First Time",
  "difficulty": "Advanced",
  "bpm": 120,
  "notes": [
    {
      "midi": 57,
      "hit": false,
      "t": 9646.304,
      "d": 2210.611333333334,
      "v": 67
    },
    {
      "midi": 69,
      "hit": false,
      "t": 10249.198,
      "d": 602.8940000000002,
      "v": 61
    },
    {
      "midi": 45,
      "hit": false,
      "t": 10249.198,
      "d": 2210.611333333334,
      "v": 67
    },
    {
      "midi": 73,
      "hit": false,
      "t": 10852.092,
      "d": 562.7010666666665,
      "v": 71
    },
    {
      "midi": 69,
      "hit": false,
      "t": 11454.986,
      "d": 2059.887833333334,
      "v": 81
    },
    {
      "midi": 57,
      "hit": false,
      "t": 12057.880000000001,
      "d": 1728.2961333333333,
      "v": 67
    },
    {
      "midi": 59,
      "hit": false,
      "t": 12660.774000000001,
      "d": 602.8940000000002,
      "v": 65
    },
    {
      "midi": 64,
      "hit": false,
      "t": 13263.668000000001,
      "d": 954.582166666667,
      "v": 65
    },
    {
      "midi": 68,
      "hit": false,
      "t": 13866.562000000002,
      "d": 602.8940000000002,
      "v": 56
    },
    {
      "midi": 45,
      "hit": false,
      "t": 13866.562000000002,
      "d": 2210.611333333334,
      "v": 67
    },
    {
      "midi": 57,
      "hit": false,
      "t": 14469.456000000002,
      "d": 1879.0196333333333,
      "v": 71
    },
    {
      "midi": 62,
      "hit": false,
      "t": 15072.350000000002,
      "d": 1366.5597333333317,
      "v": 72
    },
    {
      "midi": 66,
      "hit": false,
      "t": 15675.244000000002,
      "d": 1758.4408333333304,
      "v": 62
    },
    {
      "midi": 69,
      "hit": false,
      "t": 16278.138000000003,
      "d": 2059.8878333333305,
      "v": 71
    },
    {
      "midi": 57,
      "hit": false,
      "t": 16881.032,
      "d": 1858.9231666666674,
      "v": 78
    },
    {
      "midi": 62,
      "hit": false,
      "t": 17483.926,
      "d": 1366.5597333333353,
      "v": 72
    },
    {
      "midi": 45,
      "hit": false,
      "t": 17483.926,
      "d": 1607.717333333334,
      "v": 67
    },
    {
      "midi": 65,
      "hit": false,
      "t": 18086.82,
      "d": 1467.042066666665,
      "v": 70
    },
    {
      "midi": 69,
      "hit": false,
      "t": 18689.714,
      "d": 693.3280999999988,
      "v": 62
    },
    {
      "midi": 57,
      "hit": false,
      "t": 19292.608,
      "d": 2110.128999999997,
      "v": 69
    },
    {
      "midi": 61,
      "hit": false,
      "t": 19895.501999999997,
      "d": 1205.7880000000005,
      "v": 72
    },
    {
      "midi": 64,
      "hit": false,
      "t": 20498.395999999997,
      "d": 904.3410000000003,
      "v": 68
    },
    {
      "midi": 69,
      "hit": false,
      "t": 21101.289999999997,
      "d": 1256.0291666666672,
      "v": 81
    },
    {
      "midi": 71,
      "hit": false,
      "t": 21704.183999999997,
      "d": 1004.8233333333337,
      "v": 73
    },
    {
      "midi": 61,
      "hit": false,
      "t": 21704.183999999997,
      "d": 2713.023000000001,
      "v": 68
    },
    {
      "midi": 73,
      "hit": false,
      "t": 22307.077999999998,
      "d": 602.8940000000002,
      "v": 72
    },
    {
      "midi": 71,
      "hit": false,
      "t": 22909.971999999998,
      "d": 602.8940000000002,
      "v": 74
    },
    {
      "midi": 69,
      "hit": false,
      "t": 23512.865999999998,
      "d": 602.8940000000002,
      "v": 75
    },
    {
      "midi": 57,
      "hit": false,
      "t": 24115.76,
      "d": 2411.576000000001,
      "v": 64
    },
    {
      "midi": 47,
      "hit": false,
      "t": 24115.76,
      "d": 2713.023000000001,
      "v": 65
    },
    {
      "midi": 62,
      "hit": false,
      "t": 24718.654,
      "d": 1205.7880000000005,
      "v": 75
    },
    {
      "midi": 66,
      "hit": false,
      "t": 25321.548,
      "d": 602.8940000000002,
      "v": 78
    },
    {
      "midi": 69,
      "hit": false,
      "t": 25924.442,
      "d": 602.8940000000002,
      "v": 69
    },
    {
      "midi": 68,
      "hit": false,
      "t": 26567.52893333333,
      "d": 4280.5473999999995,
      "v": 71
    },
    {
      "midi": 52,
      "hit": false,
      "t": 26567.52893333333,
      "d": 4370.981499999998,
      "v": 67
    },
    {
      "midi": 71,
      "hit": false,
      "t": 26577.577166666666,
      "d": 4270.499166666665,
      "v": 60
    },
    {
      "midi": 59,
      "hit": false,
      "t": 31350.487999999998,
      "d": 4823.152000000002,
      "v": 70
    },
    {
      "midi": 66,
      "hit": false,
      "t": 31953.381999999998,
      "d": 904.3410000000003,
      "v": 81
    },
    {
      "midi": 69,
      "hit": false,
      "t": 32556.275999999998,
      "d": 602.8940000000002,
      "v": 70
    },
    {
      "midi": 57,
      "hit": false,
      "t": 33159.17,
      "d": 1205.7880000000005,
      "v": 66
    },
    {
      "midi": 81,
      "hit": false,
      "t": 33762.064,
      "d": 602.8940000000002,
      "v": 68
    },
    {
      "midi": 74,
      "hit": false,
      "t": 34364.958,
      "d": 753.6175000000003,
      "v": 78
    },
    {
      "midi": 78,
      "hit": false,
      "t": 34967.852,
      "d": 552.6528333333335,
      "v": 76
    },
    {
      "midi": 57,
      "hit": false,
      "t": 34997.996699999996,
      "d": 1205.7880000000005,
      "v": 66
    },
    {
      "midi": 78,
      "hit": false,
      "t": 35570.746,
      "d": 602.8940000000002,
      "v": 69
    },
    {
      "midi": 69,
      "hit": false,
      "t": 36173.64,
      "d": 803.858666666667,
      "v": 77
    },
    {
      "midi": 52,
      "hit": false,
      "t": 36173.64,
      "d": 4823.152000000002,
      "v": 66
    },
    {
      "midi": 62,
      "hit": false,
      "t": 36776.534,
      "d": 954.582166666667,
      "v": 76
    },
    {
      "midi": 66,
      "hit": false,
      "t": 37379.428,
      "d": 803.858666666667,
      "v": 74
    },
    {
      "midi": 64,
      "hit": false,
      "t": 37982.322,
      "d": 954.582166666667,
      "v": 80
    },
    {
      "midi": 68,
      "hit": false,
      "t": 38585.216,
      "d": 1205.7880000000005,
      "v": 73
    },
    {
      "midi": 64,
      "hit": false,
      "t": 39188.11,
      "d": 803.858666666667,
      "v": 65
    },
    {
      "midi": 71,
      "hit": false,
      "t": 39791.004,
      "d": 602.8940000000002,
      "v": 71
    },
    {
      "midi": 64,
      "hit": false,
      "t": 40393.898,
      "d": 602.8940000000002,
      "v": 62
    },
    {
      "midi": 57,
      "hit": false,
      "t": 40996.792,
      "d": 2079.9843000000037,
      "v": 73
    },
    {
      "midi": 64,
      "hit": false,
      "t": 41599.686,
      "d": 1125.4021333333367,
      "v": 72
    },
    {
      "midi": 69,
      "hit": false,
      "t": 42202.58,
      "d": 562.7010666666683,
      "v": 82
    },
    {
      "midi": 73,
      "hit": false,
      "t": 42805.474,
      "d": 1055.0645000000004,
      "v": 78
    },
    {
      "midi": 57,
      "hit": false,
      "t": 43408.368,
      "d": 1205.7880000000005,
      "v": 69
    },
    {
      "midi": 64,
      "hit": false,
      "t": 44011.262,
      "d": 612.942233333335,
      "v": 66
    },
    {
      "midi": 71,
      "hit": false,
      "t": 44614.156,
      "d": 612.942233333335,
      "v": 74
    },
    {
      "midi": 56,
      "hit": false,
      "t": 44614.156,
      "d": 1085.2092000000048,
      "v": 74
    },
    {
      "midi": 68,
      "hit": false,
      "t": 45217.05,
      "d": 622.9904666666771,
      "v": 65
    },
    {
      "midi": 54,
      "hit": false,
      "t": 45819.94400000001,
      "d": 4441.319133333331,
      "v": 79
    },
    {
      "midi": 69,
      "hit": false,
      "t": 45840.04046666668,
      "d": 1256.0291666666672,
      "v": 61
    },
    {
      "midi": 57,
      "hit": false,
      "t": 46422.83800000001,
      "d": 1235.9326999999976,
      "v": 69
    },
    {
      "midi": 61,
      "hit": false,
      "t": 47025.73200000001,
      "d": 834.0033666666641,
      "v": 76
    },
    {
      "midi": 66,
      "hit": false,
      "t": 47628.62600000001,
      "d": 834.0033666666641,
      "v": 72
    },
    {
      "midi": 64,
      "hit": false,
      "t": 48231.52000000001,
      "d": 1738.3443666666644,
      "v": 69
    },
    {
      "midi": 61,
      "hit": false,
      "t": 48834.41400000001,
      "d": 562.7010666666683,
      "v": 65
    },
    {
      "midi": 57,
      "hit": false,
      "t": 49437.30800000001,
      "d": 733.5210333333307,
      "v": 72
    },
    {
      "midi": 61,
      "hit": false,
      "t": 50040.20200000001,
      "d": 612.9422333333277,
      "v": 65
    },
    {
      "midi": 47,
      "hit": false,
      "t": 50643.096000000005,
      "d": 4441.319133333345,
      "v": 68
    },
    {
      "midi": 66,
      "hit": false,
      "t": 51245.990000000005,
      "d": 1135.4503666666642,
      "v": 72
    },
    {
      "midi": 69,
      "hit": false,
      "t": 51848.884000000005,
      "d": 1929.2608000000037,
      "v": 68
    },
    {
      "midi": 62,
      "hit": false,
      "t": 52451.778000000006,
      "d": 1135.4503666666642,
      "v": 72
    },
    {
      "midi": 54,
      "hit": false,
      "t": 53054.672000000006,
      "d": 1135.4503666666715,
      "v": 72
    },
    {
      "midi": 78,
      "hit": false,
      "t": 53657.566000000006,
      "d": 622.9904666666771,
      "v": 79
    },
    {
      "midi": 81,
      "hit": false,
      "t": 54260.460000000014,
      "d": 773.7139666666699,
      "v": 85
    },
    {
      "midi": 74,
      "hit": false,
      "t": 54863.354000000014,
      "d": 683.279866666664,
      "v": 78
    },
    {
      "midi": 78,
      "hit": false,
      "t": 55466.248000000014,
      "d": 1245.9809333333324,
      "v": 88
    },
    {
      "midi": 52,
      "hit": false,
      "t": 55466.248000000014,
      "d": 4441.319133333338,
      "v": 68
    },
    {
      "midi": 66,
      "hit": false,
      "t": 56069.142000000014,
      "d": 1155.5468333333338,
      "v": 72
    },
    {
      "midi": 69,
      "hit": false,
      "t": 56672.036000000015,
      "d": 924.4374666666699,
      "v": 71
    },
    {
      "midi": 74,
      "hit": false,
      "t": 57274.930000000015,
      "d": 743.5692666666655,
      "v": 72
    },
    {
      "midi": 76,
      "hit": false,
      "t": 57877.824000000015,
      "d": 964.6304000000018,
      "v": 71
    },
    {
      "midi": 69,
      "hit": false,
      "t": 58480.718000000015,
      "d": 612.942233333335,
      "v": 78
    },
    {
      "midi": 71,
      "hit": false,
      "t": 59083.612000000016,
      "d": 562.7010666666683,
      "v": 81
    },
    {
      "midi": 68,
      "hit": false,
      "t": 59686.506000000016,
      "d": 582.7975333333379,
      "v": 77
    },
    {
      "midi": 69,
      "hit": false,
      "t": 60289.40000000002,
      "d": 1256.0291666666672,
      "v": 61
    },
    {
      "midi": 57,
      "hit": false,
      "t": 60289.40000000002,
      "d": 2049.8395999999993,
      "v": 70
    },
    {
      "midi": 61,
      "hit": false,
      "t": 60892.29400000002,
      "d": 1175.6433000000034,
      "v": 74
    },
    {
      "midi": 64,
      "hit": false,
      "t": 61495.188000000024,
      "d": 994.7750999999989,
      "v": 68
    },
    {
      "midi": 69,
      "hit": false,
      "t": 62098.082000000024,
      "d": 2361.3348333333342,
      "v": 81
    },
    {
      "midi": 57,
      "hit": false,
      "t": 62700.976000000024,
      "d": 2039.7913666666645,
      "v": 71
    },
    {
      "midi": 59,
      "hit": false,
      "t": 63303.870000000024,
      "d": 1818.7302333333355,
      "v": 78
    },
    {
      "midi": 64,
      "hit": false,
      "t": 63906.764000000025,
      "d": 854.0998333333337,
      "v": 68
    },
    {
      "midi": 68,
      "hit": false,
      "t": 64509.658000000025,
      "d": 633.0387000000046,
      "v": 76
    },
    {
      "midi": 57,
      "hit": false,
      "t": 65112.552000000025,
      "d": 2039.7913666666718,
      "v": 82
    },
    {
      "midi": 71,
      "hit": false,
      "t": 65112.552000000025,
      "d": 2532.154800000004,
      "v": 80
    },
    {
      "midi": 59,
      "hit": false,
      "t": 65715.44600000003,
      "d": 2642.685366666672,
      "v": 67
    },
    {
      "midi": 62,
      "hit": false,
      "t": 66318.34000000003,
      "d": 1848.8749333333399,
      "v": 75
    },
    {
      "midi": 67,
      "hit": false,
      "t": 66921.23400000003,
      "d": 1999.5984333333327,
      "v": 64
    },
    {
      "midi": 69,
      "hit": false,
      "t": 67524.12800000003,
      "d": 1446.9455999999918,
      "v": 71
    },
    {
      "midi": 57,
      "hit": false,
      "t": 67524.12800000003,
      "d": 2280.9489666666486,
      "v": 74
    },
    {
      "midi": 76,
      "hit": false,
      "t": 68127.02200000003,
      "d": 633.0387000000046,
      "v": 75
    },
    {
      "midi": 73,
      "hit": false,
      "t": 68729.91600000003,
      "d": 753.6174999999785,
      "v": 82
    },
    {
      "midi": 69,
      "hit": false,
      "t": 69332.81000000001,
      "d": 653.1351666666596,
      "v": 74
    },
    {
      "midi": 62,
      "hit": false,
      "t": 69935.70400000001,
      "d": 3114.95233333332,
      "v": 73
    },
    {
      "midi": 69,
      "hit": false,
      "t": 70538.598,
      "d": 974.6786333333293,
      "v": 67
    },
    {
      "midi": 66,
      "hit": false,
      "t": 71141.492,
      "d": 1205.7880000000005,
      "v": 72
    },
    {
      "midi": 69,
      "hit": false,
      "t": 71744.386,
      "d": 2461.8171666666603,
      "v": 68
    },
    {
      "midi": 74,
      "hit": false,
      "t": 72347.28,
      "d": 562.7010666666611,
      "v": 83
    },
    {
      "midi": 76,
      "hit": false,
      "t": 72950.174,
      "d": 663.1833999999944,
      "v": 81
    },
    {
      "midi": 78,
      "hit": false,
      "t": 73553.068,
      "d": 703.376333333319,
      "v": 79
    },
    {
      "midi": 62,
      "hit": false,
      "t": 73553.068,
      "d": 1105.3056666666525,
      "v": 73
    },
    {
      "midi": 74,
      "hit": false,
      "t": 74155.962,
      "d": 582.7975333333161,
      "v": 72
    },
    {
      "midi": 71,
      "hit": false,
      "t": 74758.85599999999,
      "d": 1858.92316666666,
      "v": 72
    },
    {
      "midi": 52,
      "hit": false,
      "t": 74758.85599999999,
      "d": 4571.9461666666175,
      "v": 73
    },
    {
      "midi": 56,
      "hit": false,
      "t": 75361.74999999999,
      "d": 1537.3796999999904,
      "v": 67
    },
    {
      "midi": 59,
      "hit": false,
      "t": 75964.64399999999,
      "d": 673.2316333333292,
      "v": 67
    },
    {
      "midi": 64,
      "hit": false,
      "t": 76567.53799999999,
      "d": 1356.5114999999787,
      "v": 67
    },
    {
      "midi": 59,
      "hit": false,
      "t": 77170.43199999997,
      "d": 1356.5114999999787,
      "v": 67
    },
    {
      "midi": 68,
      "hit": false,
      "t": 77773.32599999997,
      "d": 1256.0291666666308,
      "v": 74
    },
    {
      "midi": 71,
      "hit": false,
      "t": 78376.21999999996,
      "d": 552.6528333333263,
      "v": 73
    },
    {
      "midi": 76,
      "hit": false,
      "t": 78979.11399999994,
      "d": 522.5081333333219,
      "v": 69
    },
    {
      "midi": 61,
      "hit": false,
      "t": 79582.00799999993,
      "d": 2260.852499999979,
      "v": 67
    },
    {
      "midi": 76,
      "hit": false,
      "t": 79602.1044666666,
      "d": 1356.5114999999932,
      "v": 69
    },
    {
      "midi": 56,
      "hit": false,
      "t": 80184.90199999993,
      "d": 854.0998333333264,
      "v": 66
    },
    {
      "midi": 59,
      "hit": false,
      "t": 80787.79599999993,
      "d": 703.376333333319,
      "v": 61
    },
    {
      "midi": 64,
      "hit": false,
      "t": 81390.68999999992,
      "d": 1868.9713999999803,
      "v": 65
    },
    {
      "midi": 61,
      "hit": false,
      "t": 81993.5839999999,
      "d": 2260.852499999979,
      "v": 67
    },
    {
      "midi": 76,
      "hit": false,
      "t": 82596.4779999999,
      "d": 954.5821666666598,
      "v": 85
    },
    {
      "midi": 68,
      "hit": false,
      "t": 83199.3719999999,
      "d": 683.2798666666495,
      "v": 77
    },
    {
      "midi": 71,
      "hit": false,
      "t": 83802.26599999989,
      "d": 703.376333333319,
      "v": 78
    },
    {
      "midi": 54,
      "hit": false,
      "t": 84405.15999999987,
      "d": 2260.8524999999936,
      "v": 67
    },
    {
      "midi": 73,
      "hit": false,
      "t": 84425.25646666654,
      "d": 1004.8233333333337,
      "v": 57
    },
    {
      "midi": 69,
      "hit": false,
      "t": 85008.05399999987,
      "d": 864.1480666666612,
      "v": 77
    },
    {
      "midi": 73,
      "hit": false,
      "t": 85610.94799999987,
      "d": 854.0998333333264,
      "v": 66
    },
    {
      "midi": 78,
      "hit": false,
      "t": 86213.84199999987,
      "d": 1155.546833333312,
      "v": 75
    },
    {
      "midi": 76,
      "hit": false,
      "t": 86816.73599999986,
      "d": 582.7975333333306,
      "v": 88
    },
    {
      "midi": 73,
      "hit": false,
      "t": 87419.62999999986,
      "d": 834.0033666666714,
      "v": 72
    },
    {
      "midi": 66,
      "hit": false,
      "t": 87419.62999999986,
      "d": 1848.8749333333399,
      "v": 72
    },
    {
      "midi": 78,
      "hit": false,
      "t": 88022.52399999986,
      "d": 924.4374666666699,
      "v": 67
    },
    {
      "midi": 73,
      "hit": false,
      "t": 88625.41799999986,
      "d": 552.6528333333408,
      "v": 67
    },
    {
      "midi": 74,
      "hit": false,
      "t": 89228.31199999986,
      "d": 2612.5406666666677,
      "v": 67
    },
    {
      "midi": 47,
      "hit": false,
      "t": 89228.31199999986,
      "d": 4491.560299999997,
      "v": 73
    },
    {
      "midi": 54,
      "hit": false,
      "t": 89831.20599999986,
      "d": 904.3410000000003,
      "v": 73
    },
    {
      "midi": 59,
      "hit": false,
      "t": 90434.09999999986,
      "d": 1416.800900000002,
      "v": 77
    },
    {
      "midi": 54,
      "hit": false,
      "t": 91036.99399999986,
      "d": 803.858666666667,
      "v": 62
    },
    {
      "midi": 58,
      "hit": false,
      "t": 91639.88799999986,
      "d": 1778.5372999999963,
      "v": 74
    },
    {
      "midi": 78,
      "hit": false,
      "t": 92242.78199999986,
      "d": 582.7975333333306,
      "v": 84
    },
    {
      "midi": 74,
      "hit": false,
      "t": 92845.67599999986,
      "d": 693.3280999999988,
      "v": 69
    },
    {
      "midi": 66,
      "hit": false,
      "t": 93448.56999999986,
      "d": 592.8457666666654,
      "v": 64
    },
    {
      "midi": 57,
      "hit": false,
      "t": 94051.46399999986,
      "d": 2009.6466666666674,
      "v": 75
    },
    {
      "midi": 69,
      "hit": false,
      "t": 94654.35799999986,
      "d": 1286.1738666666643,
      "v": 73
    },
    {
      "midi": 66,
      "hit": false,
      "t": 95257.25199999986,
      "d": 602.8940000000002,
      "v": 72
    },
    {
      "midi": 74,
      "hit": false,
      "t": 95860.14599999986,
      "d": 592.8457666666654,
      "v": 75
    },
    {
      "midi": 57,
      "hit": false,
      "t": 96463.03999999986,
      "d": 2280.948966666663,
      "v": 76
    },
    {
      "midi": 73,
      "hit": false,
      "t": 96463.03999999986,
      "d": 2361.334833333327,
      "v": 81
    },
    {
      "midi": 62,
      "hit": false,
      "t": 97065.93399999986,
      "d": 1416.800900000002,
      "v": 82
    },
    {
      "midi": 66,
      "hit": false,
      "t": 97668.82799999986,
      "d": 733.521033333338,
      "v": 67
    },
    {
      "midi": 69,
      "hit": false,
      "t": 98271.72199999986,
      "d": 713.4245666666538,
      "v": 74
    },
    {
      "midi": 55,
      "hit": false,
      "t": 98874.61599999985,
      "d": 2280.948966666663,
      "v": 76
    },
    {
      "midi": 67,
      "hit": false,
      "t": 99477.50999999985,
      "d": 1306.2703333333338,
      "v": 67
    },
    {
      "midi": 62,
      "hit": false,
      "t": 100080.40399999985,
      "d": 823.9551333333366,
      "v": 77
    },
    {
      "midi": 71,
      "hit": false,
      "t": 100683.29799999985,
      "d": 894.2927666666656,
      "v": 74
    },
    {
      "midi": 69,
      "hit": false,
      "t": 101286.19199999985,
      "d": 1296.222099999999,
      "v": 75
    },
    {
      "midi": 54,
      "hit": false,
      "t": 101286.19199999985,
      "d": 2280.9489666666777,
      "v": 76
    },
    {
      "midi": 57,
      "hit": false,
      "t": 101889.08599999985,
      "d": 1256.0291666666744,
      "v": 68
    },
    {
      "midi": 62,
      "hit": false,
      "t": 102491.97999999985,
      "d": 643.0869333333394,
      "v": 83
    },
    {
      "midi": 69,
      "hit": false,
      "t": 103094.87399999985,
      "d": 834.0033666666859,
      "v": 70
    },
    {
      "midi": 68,
      "hit": false,
      "t": 103697.76799999987,
      "d": 2170.4184000000096,
      "v": 72
    },
    {
      "midi": 64,
      "hit": false,
      "t": 103697.76799999987,
      "d": 2190.514866666679,
      "v": 66
    },
    {
      "midi": 52,
      "hit": false,
      "t": 103697.76799999987,
      "d": 2280.9489666666777,
      "v": 76
    },
    {
      "midi": 62,
      "hit": false,
      "t": 106109.34399999988,
      "d": 2029.743133333337,
      "v": 70
    },
    {
      "midi": 68,
      "hit": false,
      "t": 106109.34399999988,
      "d": 2049.8396000000066,
      "v": 68
    },
    {
      "midi": 52,
      "hit": false,
      "t": 106109.34399999988,
      "d": 2280.9489666666777,
      "v": 64
    },
    {
      "midi": 57,
      "hit": false,
      "t": 108520.9199999999,
      "d": 2341.2383666666574,
      "v": 74
    },
    {
      "midi": 61,
      "hit": false,
      "t": 109123.8139999999,
      "d": 1024.9198000000033,
      "v": 73
    },
    {
      "midi": 64,
      "hit": false,
      "t": 109726.7079999999,
      "d": 653.1351666666596,
      "v": 68
    },
    {
      "midi": 69,
      "hit": false,
      "t": 110329.6019999999,
      "d": 602.8939999999857,
      "v": 82
    },
    {
      "midi": 68,
      "hit": false,
      "t": 110932.49599999988,
      "d": 723.4728000000032,
      "v": 68
    },
    {
      "midi": 56,
      "hit": false,
      "t": 110932.49599999988,
      "d": 2421.624233333321,
      "v": 72
    },
    {
      "midi": 64,
      "hit": false,
      "t": 111535.38999999988,
      "d": 753.617499999993,
      "v": 64
    },
    {
      "midi": 61,
      "hit": false,
      "t": 112138.28399999988,
      "d": 753.6174999999785,
      "v": 71
    },
    {
      "midi": 64,
      "hit": false,
      "t": 112741.17799999987,
      "d": 592.8457666666654,
      "v": 56
    },
    {
      "midi": 54,
      "hit": false,
      "t": 113344.07199999987,
      "d": 2532.1547999999893,
      "v": 75
    },
    {
      "midi": 57,
      "hit": false,
      "t": 113946.96599999987,
      "d": 1165.5950666666613,
      "v": 62
    },
    {
      "midi": 62,
      "hit": false,
      "t": 114549.85999999987,
      "d": 653.1351666666596,
      "v": 74
    },
    {
      "midi": 69,
      "hit": false,
      "t": 115152.75399999987,
      "d": 1095.2574333333177,
      "v": 67
    },
    {
      "midi": 56,
      "hit": false,
      "t": 115755.64799999986,
      "d": 2391.4795333333313,
      "v": 76
    },
    {
      "midi": 68,
      "hit": false,
      "t": 116358.54199999986,
      "d": 1266.0773999999947,
      "v": 75
    },
    {
      "midi": 59,
      "hit": false,
      "t": 116961.43599999986,
      "d": 954.5821666666598,
      "v": 64
    },
    {
      "midi": 64,
      "hit": false,
      "t": 117564.32999999986,
      "d": 622.9904666666698,
      "v": 73
    },
    {
      "midi": 57,
      "hit": false,
      "t": 118167.22399999986,
      "d": 2341.2383666666574,
      "v": 74
    },
    {
      "midi": 61,
      "hit": false,
      "t": 118770.11799999986,
      "d": 1024.9198000000033,
      "v": 73
    },
    {
      "midi": 64,
      "hit": false,
      "t": 119373.01199999986,
      "d": 653.1351666666596,
      "v": 68
    },
    {
      "midi": 69,
      "hit": false,
      "t": 119975.90599999986,
      "d": 602.8939999999857,
      "v": 82
    },
    {
      "midi": 68,
      "hit": false,
      "t": 120578.79999999984,
      "d": 723.4728000000032,
      "v": 68
    },
    {
      "midi": 56,
      "hit": false,
      "t": 120578.79999999984,
      "d": 2421.624233333321,
      "v": 72
    },
    {
      "midi": 64,
      "hit": false,
      "t": 121181.69399999984,
      "d": 753.617499999993,
      "v": 64
    },
    {
      "midi": 61,
      "hit": false,
      "t": 121784.58799999984,
      "d": 753.6174999999785,
      "v": 71
    },
    {
      "midi": 64,
      "hit": false,
      "t": 122387.48199999983,
      "d": 592.8457666666654,
      "v": 56
    },
    {
      "midi": 54,
      "hit": false,
      "t": 122990.37599999983,
      "d": 2532.154800000004,
      "v": 75
    },
    {
      "midi": 57,
      "hit": false,
      "t": 123593.26999999983,
      "d": 1165.5950666666613,
      "v": 62
    },
    {
      "midi": 61,
      "hit": false,
      "t": 124196.16399999983,
      "d": 1205.7880000000005,
      "v": 74
    },
    {
      "midi": 69,
      "hit": false,
      "t": 124799.05799999983,
      "d": 1095.2574333333323,
      "v": 67
    },
    {
      "midi": 52,
      "hit": false,
      "t": 125401.95199999983,
      "d": 2391.4795333333313,
      "v": 76
    },
    {
      "midi": 57,
      "hit": false,
      "t": 126004.84599999983,
      "d": 1266.0773999999947,
      "v": 75
    },
    {
      "midi": 61,
      "hit": false,
      "t": 126607.73999999983,
      "d": 954.5821666666598,
      "v": 64
    },
    {
      "midi": 64,
      "hit": false,
      "t": 127210.63399999983,
      "d": 622.9904666666698,
      "v": 73
    },
    {
      "midi": 50,
      "hit": false,
      "t": 127813.52799999983,
      "d": 2391.4795333333313,
      "v": 76
    },
    {
      "midi": 66,
      "hit": false,
      "t": 128416.42199999983,
      "d": 713.4245666666684,
      "v": 79
    },
    {
      "midi": 69,
      "hit": false,
      "t": 129019.31599999983,
      "d": 1266.0773999999947,
      "v": 78
    },
    {
      "midi": 62,
      "hit": false,
      "t": 129622.20999999983,
      "d": 1487.138533333331,
      "v": 73
    },
    {
      "midi": 49,
      "hit": false,
      "t": 130225.10399999983,
      "d": 2391.4795333332877,
      "v": 76
    },
    {
      "midi": 69,
      "hit": false,
      "t": 130827.99799999983,
      "d": 703.3763333333045,
      "v": 75
    },
    {
      "midi": 76,
      "hit": false,
      "t": 131430.89199999982,
      "d": 673.2316333333147,
      "v": 81
    },
    {
      "midi": 69,
      "hit": false,
      "t": 132033.7859999998,
      "d": 622.9904666666698,
      "v": 67
    },
    {
      "midi": 47,
      "hit": false,
      "t": 132636.6799999998,
      "d": 2391.4795333333605,
      "v": 76
    },
    {
      "midi": 78,
      "hit": false,
      "t": 133239.5739999998,
      "d": 1517.28323333335,
      "v": 82
    },
    {
      "midi": 71,
      "hit": false,
      "t": 133842.4679999998,
      "d": 673.2316333333438,
      "v": 91
    },
    {
      "midi": 69,
      "hit": false,
      "t": 134445.3619999998,
      "d": 1256.0291666667035,
      "v": 73
    },
    {
      "midi": 52,
      "hit": false,
      "t": 135048.25599999982,
      "d": 2391.4795333333313,
      "v": 76
    },
    {
      "midi": 76,
      "hit": false,
      "t": 135651.14999999982,
      "d": 813.9069000000018,
      "v": 69
    },
    {
      "midi": 68,
      "hit": false,
      "t": 136254.04399999982,
      "d": 602.8940000000002,
      "v": 94
    },
    {
      "midi": 71,
      "hit": false,
      "t": 136856.93799999982,
      "d": 803.858666666667,
      "v": 73
    },
    {
      "midi": 45,
      "hit": false,
      "t": 137459.83199999982,
      "d": 9143.892333333322,
      "v": 76
    },
    {
      "midi": 64,
      "hit": false,
      "t": 138062.72599999982,
      "d": 2461.817166666675,
      "v": 72
    },
    {
      "midi": 69,
      "hit": false,
      "t": 138665.61999999982,
      "d": 1055.0645000000077,
      "v": 86
    },
    {
      "midi": 73,
      "hit": false,
      "t": 139268.51399999982,
      "d": 693.3281000000134,
      "v": 75
    },
    {
      "midi": 71,
      "hit": false,
      "t": 139871.40799999982,
      "d": 1446.9456000000064,
      "v": 84
    },
    {
      "midi": 59,
      "hit": false,
      "t": 140474.30199999982,
      "d": 1828.7784666666703,
      "v": 69
    },
    {
      "midi": 64,
      "hit": false,
      "t": 141077.19599999982,
      "d": 1276.125633333344,
      "v": 70
    },
    {
      "midi": 71,
      "hit": false,
      "t": 141680.08999999982,
      "d": 894.2927666666801,
      "v": 79
    },
    {
      "midi": 57,
      "hit": false,
      "t": 142282.98399999982,
      "d": 2572.3477333333285,
      "v": 76
    },
    {
      "midi": 62,
      "hit": false,
      "t": 142885.87799999982,
      "d": 1979.501966666663,
      "v": 74
    },
    {
      "midi": 66,
      "hit": false,
      "t": 143488.77199999982,
      "d": 1406.7526666666672,
      "v": 67
    },
    {
      "midi": 74,
      "hit": false,
      "t": 144091.66599999982,
      "d": 1245.9809333333396,
      "v": 84
    },
    {
      "midi": 65,
      "hit": false,
      "t": 144694.55999999982,
      "d": 2471.8654000000097,
      "v": 68
    },
    {
      "midi": 62,
      "hit": false,
      "t": 145297.45399999982,
      "d": 1899.1161000000138,
      "v": 79
    },
    {
      "midi": 57,
      "hit": false,
      "t": 145850.10683333315,
      "d": 1004.8233333333337,
      "v": 62
    },
    {
      "midi": 69,
      "hit": false,
      "t": 146503.24199999982,
      "d": 582.7975333333306,
      "v": 61
    },
    {
      "midi": 73,
      "hit": false,
      "t": 147106.13599999982,
      "d": 1708.1996666666528,
      "v": 61
    },
    {
      "midi": 57,
      "hit": false,
      "t": 147106.13599999982,
      "d": 2110.128999999957,
      "v": 69
    },
    {
      "midi": 61,
      "hit": false,
      "t": 147709.02999999982,
      "d": 1205.7879999999714,
      "v": 72
    },
    {
      "midi": 64,
      "hit": false,
      "t": 148311.92399999982,
      "d": 904.3409999999567,
      "v": 68
    },
    {
      "midi": 69,
      "hit": false,
      "t": 148914.8179999998,
      "d": 1256.0291666666453,
      "v": 81
    },
    {
      "midi": 71,
      "hit": false,
      "t": 149517.71199999977,
      "d": 1004.8233333333337,
      "v": 73
    },
    {
      "midi": 61,
      "hit": false,
      "t": 149517.71199999977,
      "d": 2713.0229999999865,
      "v": 68
    },
    {
      "midi": 73,
      "hit": false,
      "t": 150120.60599999977,
      "d": 602.8940000000002,
      "v": 72
    },
    {
      "midi": 71,
      "hit": false,
      "t": 150723.49999999977,
      "d": 602.8940000000002,
      "v": 74
    },
    {
      "midi": 68,
      "hit": false,
      "t": 151326.39399999977,
      "d": 703.376333333319,
      "v": 75
    },
    {
      "midi": 69,
      "hit": false,
      "t": 151929.28799999977,
      "d": 703.37633333329,
      "v": 61
    },
    {
      "midi": 57,
      "hit": false,
      "t": 151929.28799999977,
      "d": 2411.5759999999427,
      "v": 64
    },
    {
      "midi": 47,
      "hit": false,
      "t": 151929.28799999977,
      "d": 2713.0229999999574,
      "v": 65
    },
    {
      "midi": 62,
      "hit": false,
      "t": 152532.18199999974,
      "d": 1205.7879999999714,
      "v": 75
    },
    {
      "midi": 66,
      "hit": false,
      "t": 153135.0759999997,
      "d": 602.8940000000002,
      "v": 78
    },
    {
      "midi": 69,
      "hit": false,
      "t": 153737.9699999997,
      "d": 602.8940000000002,
      "v": 69
    },
    {
      "midi": 68,
      "hit": false,
      "t": 154381.05693333305,
      "d": 4280.54740000001,
      "v": 71
    },
    {
      "midi": 52,
      "hit": false,
      "t": 154381.05693333305,
      "d": 4370.9815000000235,
      "v": 67
    },
    {
      "midi": 71,
      "hit": false,
      "t": 154391.10516666638,
      "d": 4270.499166666676,
      "v": 60
    },
    {
      "midi": 59,
      "hit": false,
      "t": 159164.01599999974,
      "d": 4823.151999999973,
      "v": 70
    },
    {
      "midi": 66,
      "hit": false,
      "t": 159766.90999999974,
      "d": 904.3409999999858,
      "v": 81
    },
    {
      "midi": 69,
      "hit": false,
      "t": 160369.80399999974,
      "d": 602.8939999999711,
      "v": 70
    },
    {
      "midi": 57,
      "hit": false,
      "t": 160972.6979999997,
      "d": 1205.7880000000005,
      "v": 66
    },
    {
      "midi": 81,
      "hit": false,
      "t": 161575.5919999997,
      "d": 602.8940000000002,
      "v": 68
    },
    {
      "midi": 74,
      "hit": false,
      "t": 162178.4859999997,
      "d": 602.8940000000002,
      "v": 78
    },
    {
      "midi": 78,
      "hit": false,
      "t": 162781.3799999997,
      "d": 552.6528333333263,
      "v": 76
    },
    {
      "midi": 57,
      "hit": false,
      "t": 162811.52469999972,
      "d": 1205.7880000000005,
      "v": 66
    },
    {
      "midi": 78,
      "hit": false,
      "t": 163384.2739999997,
      "d": 602.8940000000002,
      "v": 69
    },
    {
      "midi": 69,
      "hit": false,
      "t": 163987.1679999997,
      "d": 803.858666666667,
      "v": 77
    },
    {
      "midi": 52,
      "hit": false,
      "t": 163987.1679999997,
      "d": 4823.152000000002,
      "v": 66
    },
    {
      "midi": 62,
      "hit": false,
      "t": 164590.0619999997,
      "d": 602.8940000000002,
      "v": 76
    },
    {
      "midi": 66,
      "hit": false,
      "t": 165192.9559999997,
      "d": 602.8940000000002,
      "v": 74
    },
    {
      "midi": 64,
      "hit": false,
      "t": 165795.84999999971,
      "d": 602.8940000000002,
      "v": 80
    },
    {
      "midi": 68,
      "hit": false,
      "t": 166398.74399999972,
      "d": 1205.7880000000005,
      "v": 73
    },
    {
      "midi": 64,
      "hit": false,
      "t": 167001.63799999972,
      "d": 602.8940000000002,
      "v": 65
    },
    {
      "midi": 71,
      "hit": false,
      "t": 167604.53199999972,
      "d": 602.8940000000002,
      "v": 71
    },
    {
      "midi": 64,
      "hit": false,
      "t": 168207.42599999972,
      "d": 602.8940000000002,
      "v": 62
    },
    {
      "midi": 57,
      "hit": false,
      "t": 168810.31999999972,
      "d": 2079.984300000011,
      "v": 73
    },
    {
      "midi": 64,
      "hit": false,
      "t": 169413.21399999972,
      "d": 1125.4021333333221,
      "v": 72
    },
    {
      "midi": 69,
      "hit": false,
      "t": 170016.10799999972,
      "d": 562.7010666666611,
      "v": 82
    },
    {
      "midi": 73,
      "hit": false,
      "t": 170619.00199999972,
      "d": 1055.0645000000077,
      "v": 78
    },
    {
      "midi": 57,
      "hit": false,
      "t": 171221.89599999972,
      "d": 1205.7880000000005,
      "v": 69
    },
    {
      "midi": 64,
      "hit": false,
      "t": 171824.78999999972,
      "d": 612.942233333335,
      "v": 66
    },
    {
      "midi": 71,
      "hit": false,
      "t": 172427.68399999972,
      "d": 612.942233333335,
      "v": 74
    },
    {
      "midi": 56,
      "hit": false,
      "t": 172427.68399999972,
      "d": 1085.209200000012,
      "v": 74
    },
    {
      "midi": 68,
      "hit": false,
      "t": 173030.57799999972,
      "d": 622.9904666666698,
      "v": 65
    },
    {
      "midi": 54,
      "hit": false,
      "t": 173633.47199999972,
      "d": 4441.319133333338,
      "v": 79
    },
    {
      "midi": 69,
      "hit": false,
      "t": 173653.5684666664,
      "d": 1256.0291666666744,
      "v": 61
    },
    {
      "midi": 57,
      "hit": false,
      "t": 174236.36599999972,
      "d": 1235.9327000000048,
      "v": 69
    },
    {
      "midi": 61,
      "hit": false,
      "t": 174839.25999999972,
      "d": 834.0033666666714,
      "v": 76
    },
    {
      "midi": 66,
      "hit": false,
      "t": 175442.15399999972,
      "d": 834.0033666666714,
      "v": 72
    },
    {
      "midi": 64,
      "hit": false,
      "t": 176045.04799999972,
      "d": 1738.3443666666572,
      "v": 69
    },
    {
      "midi": 61,
      "hit": false,
      "t": 176647.94199999972,
      "d": 562.7010666666611,
      "v": 65
    },
    {
      "midi": 57,
      "hit": false,
      "t": 177250.83599999972,
      "d": 733.5210333333234,
      "v": 72
    },
    {
      "midi": 61,
      "hit": false,
      "t": 177853.72999999972,
      "d": 612.942233333335,
      "v": 65
    },
    {
      "midi": 47,
      "hit": false,
      "t": 178456.62399999972,
      "d": 4441.319133333338,
      "v": 68
    },
    {
      "midi": 66,
      "hit": false,
      "t": 179059.51799999972,
      "d": 1135.450366666657,
      "v": 72
    },
    {
      "midi": 69,
      "hit": false,
      "t": 179662.41199999972,
      "d": 1929.260799999989,
      "v": 68
    },
    {
      "midi": 62,
      "hit": false,
      "t": 180265.30599999972,
      "d": 1135.450366666657,
      "v": 72
    },
    {
      "midi": 54,
      "hit": false,
      "t": 180868.19999999972,
      "d": 1135.450366666657,
      "v": 72
    },
    {
      "midi": 78,
      "hit": false,
      "t": 181471.09399999972,
      "d": 622.9904666666698,
      "v": 79
    },
    {
      "midi": 81,
      "hit": false,
      "t": 182073.98799999972,
      "d": 773.7139666666626,
      "v": 85
    },
    {
      "midi": 74,
      "hit": false,
      "t": 182676.88199999972,
      "d": 683.2798666666786,
      "v": 78
    },
    {
      "midi": 78,
      "hit": false,
      "t": 183279.77599999972,
      "d": 1245.9809333333396,
      "v": 88
    },
    {
      "midi": 52,
      "hit": false,
      "t": 183279.77599999972,
      "d": 4441.319133333338,
      "v": 68
    },
    {
      "midi": 66,
      "hit": false,
      "t": 183882.66999999972,
      "d": 1155.5468333333265,
      "v": 72
    },
    {
      "midi": 69,
      "hit": false,
      "t": 184485.56399999972,
      "d": 924.4374666666554,
      "v": 71
    },
    {
      "midi": 74,
      "hit": false,
      "t": 185088.45799999972,
      "d": 743.5692666666582,
      "v": 72
    },
    {
      "midi": 76,
      "hit": false,
      "t": 185691.35199999972,
      "d": 964.6303999999946,
      "v": 71
    },
    {
      "midi": 69,
      "hit": false,
      "t": 186294.24599999972,
      "d": 612.942233333335,
      "v": 78
    },
    {
      "midi": 71,
      "hit": false,
      "t": 186897.13999999972,
      "d": 562.7010666666611,
      "v": 81
    },
    {
      "midi": 68,
      "hit": false,
      "t": 187500.03399999972,
      "d": 582.7975333333306,
      "v": 77
    },
    {
      "midi": 69,
      "hit": false,
      "t": 188102.92799999972,
      "d": 1256.0291666666744,
      "v": 61
    },
    {
      "midi": 57,
      "hit": false,
      "t": 188102.92799999972,
      "d": 2049.8396000000066,
      "v": 70
    },
    {
      "midi": 61,
      "hit": false,
      "t": 188705.82199999972,
      "d": 1175.643299999996,
      "v": 74
    },
    {
      "midi": 64,
      "hit": false,
      "t": 189308.71599999972,
      "d": 994.7750999999989,
      "v": 68
    },
    {
      "midi": 69,
      "hit": false,
      "t": 189911.60999999972,
      "d": 2361.334833333327,
      "v": 81
    },
    {
      "midi": 57,
      "hit": false,
      "t": 190514.50399999972,
      "d": 2039.7913666666718,
      "v": 71
    },
    {
      "midi": 59,
      "hit": false,
      "t": 191117.39799999972,
      "d": 1818.7302333333355,
      "v": 78
    },
    {
      "midi": 64,
      "hit": false,
      "t": 191720.29199999972,
      "d": 854.0998333333409,
      "v": 68
    },
    {
      "midi": 68,
      "hit": false,
      "t": 192323.18599999973,
      "d": 633.0387000000046,
      "v": 76
    },
    {
      "midi": 55,
      "hit": false,
      "t": 192926.07999999973,
      "d": 2039.7913666666718,
      "v": 82
    },
    {
      "midi": 71,
      "hit": false,
      "t": 192926.07999999973,
      "d": 2532.1547999999893,
      "v": 80
    },
    {
      "midi": 59,
      "hit": false,
      "t": 193528.97399999973,
      "d": 2642.685366666672,
      "v": 67
    },
    {
      "midi": 62,
      "hit": false,
      "t": 194131.86799999973,
      "d": 1848.8749333333399,
      "v": 75
    },
    {
      "midi": 67,
      "hit": false,
      "t": 194734.76199999973,
      "d": 1999.5984333333327,
      "v": 64
    },
    {
      "midi": 69,
      "hit": false,
      "t": 195337.65599999973,
      "d": 1446.9456000000064,
      "v": 71
    },
    {
      "midi": 57,
      "hit": false,
      "t": 195337.65599999973,
      "d": 2280.9489666666486,
      "v": 74
    },
    {
      "midi": 76,
      "hit": false,
      "t": 195940.54999999973,
      "d": 633.0387000000046,
      "v": 75
    },
    {
      "midi": 73,
      "hit": false,
      "t": 196543.44399999973,
      "d": 753.617499999993,
      "v": 82
    },
    {
      "midi": 69,
      "hit": false,
      "t": 197146.33799999973,
      "d": 653.1351666666451,
      "v": 74
    },
    {
      "midi": 62,
      "hit": false,
      "t": 197749.2319999997,
      "d": 3114.952333333349,
      "v": 73
    },
    {
      "midi": 69,
      "hit": false,
      "t": 198352.1259999997,
      "d": 974.6786333333293,
      "v": 67
    },
    {
      "midi": 66,
      "hit": false,
      "t": 198955.0199999997,
      "d": 1205.7880000000005,
      "v": 72
    },
    {
      "midi": 69,
      "hit": false,
      "t": 199557.9139999997,
      "d": 2461.817166666675,
      "v": 68
    },
    {
      "midi": 74,
      "hit": false,
      "t": 200160.8079999997,
      "d": 653.1351666666742,
      "v": 83
    },
    {
      "midi": 76,
      "hit": false,
      "t": 200763.7019999997,
      "d": 663.183400000009,
      "v": 81
    },
    {
      "midi": 78,
      "hit": false,
      "t": 201366.5959999997,
      "d": 703.3763333333482,
      "v": 79
    },
    {
      "midi": 62,
      "hit": false,
      "t": 201366.5959999997,
      "d": 1105.3056666666816,
      "v": 73
    },
    {
      "midi": 74,
      "hit": false,
      "t": 201969.4899999997,
      "d": 582.7975333333598,
      "v": 72
    },
    {
      "midi": 71,
      "hit": false,
      "t": 202572.38399999973,
      "d": 1858.9231666666747,
      "v": 72
    },
    {
      "midi": 52,
      "hit": false,
      "t": 202572.38399999973,
      "d": 4571.94616666669,
      "v": 73
    },
    {
      "midi": 56,
      "hit": false,
      "t": 203175.27799999973,
      "d": 1537.3797000000195,
      "v": 67
    },
    {
      "midi": 59,
      "hit": false,
      "t": 203778.17199999973,
      "d": 673.2316333333438,
      "v": 67
    },
    {
      "midi": 64,
      "hit": false,
      "t": 204381.06599999973,
      "d": 1356.5115000000224,
      "v": 67
    },
    {
      "midi": 59,
      "hit": false,
      "t": 204983.95999999976,
      "d": 1356.5114999999932,
      "v": 67
    },
    {
      "midi": 68,
      "hit": false,
      "t": 205586.85399999976,
      "d": 1256.0291666666744,
      "v": 74
    },
    {
      "midi": 71,
      "hit": false,
      "t": 206189.74799999976,
      "d": 552.6528333333263,
      "v": 73
    },
    {
      "midi": 76,
      "hit": false,
      "t": 206792.64199999976,
      "d": 522.5081333333219,
      "v": 69
    },
    {
      "midi": 61,
      "hit": false,
      "t": 207395.53599999976,
      "d": 2260.852499999979,
      "v": 67
    },
    {
      "midi": 76,
      "hit": false,
      "t": 207415.63246666643,
      "d": 1356.5114999999932,
      "v": 69
    },
    {
      "midi": 56,
      "hit": false,
      "t": 207998.42999999976,
      "d": 854.0998333333409,
      "v": 66
    },
    {
      "midi": 59,
      "hit": false,
      "t": 208601.32399999976,
      "d": 703.376333333319,
      "v": 61
    },
    {
      "midi": 64,
      "hit": false,
      "t": 209204.21799999976,
      "d": 1868.9713999999803,
      "v": 65
    },
    {
      "midi": 61,
      "hit": false,
      "t": 209807.11199999973,
      "d": 2260.8525000000373,
      "v": 67
    },
    {
      "midi": 76,
      "hit": false,
      "t": 210410.00599999973,
      "d": 954.5821666666889,
      "v": 85
    },
    {
      "midi": 68,
      "hit": false,
      "t": 211012.89999999973,
      "d": 683.2798666667077,
      "v": 77
    },
    {
      "midi": 71,
      "hit": false,
      "t": 211615.79399999976,
      "d": 703.3763333333482,
      "v": 78
    },
    {
      "midi": 54,
      "hit": false,
      "t": 212218.68799999976,
      "d": 2260.852500000008,
      "v": 67
    },
    {
      "midi": 73,
      "hit": false,
      "t": 212238.78446666643,
      "d": 1004.8233333333337,
      "v": 57
    },
    {
      "midi": 69,
      "hit": false,
      "t": 212821.58199999976,
      "d": 864.1480666666757,
      "v": 77
    },
    {
      "midi": 73,
      "hit": false,
      "t": 213424.47599999976,
      "d": 854.0998333333409,
      "v": 66
    },
    {
      "midi": 78,
      "hit": false,
      "t": 214027.36999999976,
      "d": 1155.5468333333265,
      "v": 75
    },
    {
      "midi": 76,
      "hit": false,
      "t": 214630.26399999976,
      "d": 582.7975333333306,
      "v": 88
    },
    {
      "midi": 52,
      "hit": false,
      "t": 214680.50516666644,
      "d": 2260.852499999979,
      "v": 67
    },
    {
      "midi": 73,
      "hit": false,
      "t": 215233.15799999976,
      "d": 834.0033666666714,
      "v": 72
    },
    {
      "midi": 66,
      "hit": false,
      "t": 215233.15799999976,
      "d": 1848.8749333333399,
      "v": 72
    },
    {
      "midi": 78,
      "hit": false,
      "t": 215836.05199999976,
      "d": 924.4374666666554,
      "v": 67
    },
    {
      "midi": 73,
      "hit": false,
      "t": 216438.94599999976,
      "d": 552.6528333333263,
      "v": 67
    },
    {
      "midi": 62,
      "hit": false,
      "t": 217041.83999999976,
      "d": 2361.334833333298,
      "v": 73
    },
    {
      "midi": 74,
      "hit": false,
      "t": 217041.83999999976,
      "d": 2612.5406666666386,
      "v": 67
    },
    {
      "midi": 54,
      "hit": false,
      "t": 217644.73399999976,
      "d": 904.3409999999858,
      "v": 67
    },
    {
      "midi": 57,
      "hit": false,
      "t": 218247.62799999976,
      "d": 1416.800899999973,
      "v": 77
    },
    {
      "midi": 54,
      "hit": false,
      "t": 218850.52199999974,
      "d": 803.858666666667,
      "v": 62
    },
    {
      "midi": 61,
      "hit": false,
      "t": 219453.41599999974,
      "d": 1778.5372999999963,
      "v": 74
    },
    {
      "midi": 76,
      "hit": false,
      "t": 220056.30999999974,
      "d": 954.5821666666598,
      "v": 84
    },
    {
      "midi": 73,
      "hit": false,
      "t": 220659.20399999974,
      "d": 693.3281000000134,
      "v": 69
    },
    {
      "midi": 64,
      "hit": false,
      "t": 221262.09799999974,
      "d": 592.8457666666654,
      "v": 64
    },
    {
      "midi": 59,
      "hit": false,
      "t": 221864.99199999974,
      "d": 2009.6466666666674,
      "v": 75
    },
    {
      "midi": 69,
      "hit": false,
      "t": 222467.88599999974,
      "d": 1286.1738666666788,
      "v": 73
    },
    {
      "midi": 66,
      "hit": false,
      "t": 223070.77999999974,
      "d": 602.8940000000002,
      "v": 72
    },
    {
      "midi": 74,
      "hit": false,
      "t": 223673.67399999974,
      "d": 592.8457666666654,
      "v": 75
    },
    {
      "midi": 57,
      "hit": false,
      "t": 224276.56799999974,
      "d": 2280.9489666666777,
      "v": 76
    },
    {
      "midi": 73,
      "hit": false,
      "t": 224276.56799999974,
      "d": 2361.334833333356,
      "v": 81
    },
    {
      "midi": 62,
      "hit": false,
      "t": 224879.46199999974,
      "d": 1416.800900000002,
      "v": 82
    },
    {
      "midi": 66,
      "hit": false,
      "t": 225482.35599999974,
      "d": 733.5210333333234,
      "v": 67
    },
    {
      "midi": 69,
      "hit": false,
      "t": 226085.24999999974,
      "d": 713.424566666683,
      "v": 74
    },
    {
      "midi": 55,
      "hit": false,
      "t": 226688.14399999977,
      "d": 2280.9489666666486,
      "v": 76
    },
    {
      "midi": 67,
      "hit": false,
      "t": 227291.03799999977,
      "d": 1306.2703333333193,
      "v": 67
    },
    {
      "midi": 62,
      "hit": false,
      "t": 227893.93199999977,
      "d": 823.9551333333075,
      "v": 77
    },
    {
      "midi": 71,
      "hit": false,
      "t": 228496.82599999977,
      "d": 894.292766666651,
      "v": 74
    },
    {
      "midi": 69,
      "hit": false,
      "t": 229099.71999999974,
      "d": 1296.2221000000136,
      "v": 75
    },
    {
      "midi": 54,
      "hit": false,
      "t": 229099.71999999974,
      "d": 2280.9489666666777,
      "v": 76
    },
    {
      "midi": 57,
      "hit": false,
      "t": 229702.61399999974,
      "d": 1256.0291666666744,
      "v": 68
    },
    {
      "midi": 62,
      "hit": false,
      "t": 230305.50799999974,
      "d": 643.0869333333394,
      "v": 83
    },
    {
      "midi": 69,
      "hit": false,
      "t": 230908.40199999974,
      "d": 834.0033666666714,
      "v": 70
    },
    {
      "midi": 64,
      "hit": false,
      "t": 231511.29599999974,
      "d": 4019.293333333335,
      "v": 66
    },
    {
      "midi": 52,
      "hit": false,
      "t": 231511.29599999974,
      "d": 4170.016833333328,
      "v": 76
    },
    {
      "midi": 68,
      "hit": false,
      "t": 231511.29599999974,
      "d": 4170.016833333328,
      "v": 72
    },
    {
      "midi": 57,
      "hit": false,
      "t": 236334.44799999974,
      "d": 2341.2383666666865,
      "v": 74
    },
    {
      "midi": 61,
      "hit": false,
      "t": 236937.34199999974,
      "d": 1024.9198000000033,
      "v": 73
    },
    {
      "midi": 64,
      "hit": false,
      "t": 237540.23599999974,
      "d": 653.1351666666742,
      "v": 68
    },
    {
      "midi": 69,
      "hit": false,
      "t": 238143.12999999974,
      "d": 602.8940000000293,
      "v": 82
    },
    {
      "midi": 68,
      "hit": false,
      "t": 238746.02399999977,
      "d": 723.4727999999886,
      "v": 68
    },
    {
      "midi": 56,
      "hit": false,
      "t": 238746.02399999977,
      "d": 2421.6242333333357,
      "v": 72
    },
    {
      "midi": 64,
      "hit": false,
      "t": 239348.91799999977,
      "d": 753.617499999993,
      "v": 64
    },
    {
      "midi": 61,
      "hit": false,
      "t": 239951.81199999977,
      "d": 753.617499999993,
      "v": 71
    },
    {
      "midi": 64,
      "hit": false,
      "t": 240554.70599999977,
      "d": 592.8457666666654,
      "v": 56
    },
    {
      "midi": 54,
      "hit": false,
      "t": 241157.59999999977,
      "d": 2532.1547999999893,
      "v": 75
    },
    {
      "midi": 57,
      "hit": false,
      "t": 241760.49399999977,
      "d": 1165.5950666666613,
      "v": 62
    },
    {
      "midi": 62,
      "hit": false,
      "t": 242363.38799999977,
      "d": 653.1351666666742,
      "v": 74
    },
    {
      "midi": 69,
      "hit": false,
      "t": 242966.28199999977,
      "d": 1095.2574333333177,
      "v": 67
    },
    {
      "midi": 56,
      "hit": false,
      "t": 243569.17599999977,
      "d": 2391.4795333333313,
      "v": 76
    },
    {
      "midi": 68,
      "hit": false,
      "t": 244172.06999999975,
      "d": 1266.0774000000092,
      "v": 75
    },
    {
      "midi": 59,
      "hit": false,
      "t": 244774.96399999975,
      "d": 954.5821666666889,
      "v": 64
    },
    {
      "midi": 64,
      "hit": false,
      "t": 245377.85799999975,
      "d": 622.9904666666989,
      "v": 73
    },
    {
      "midi": 57,
      "hit": false,
      "t": 245980.75199999977,
      "d": 2341.2383666666865,
      "v": 74
    },
    {
      "midi": 61,
      "hit": false,
      "t": 246583.64599999978,
      "d": 1024.9198000000033,
      "v": 73
    },
    {
      "midi": 64,
      "hit": false,
      "t": 247186.53999999978,
      "d": 653.1351666666742,
      "v": 68
    },
    {
      "midi": 69,
      "hit": false,
      "t": 247789.43399999978,
      "d": 602.8940000000293,
      "v": 82
    },
    {
      "midi": 68,
      "hit": false,
      "t": 248392.3279999998,
      "d": 723.4727999999886,
      "v": 68
    },
    {
      "midi": 56,
      "hit": false,
      "t": 248392.3279999998,
      "d": 2421.6242333333357,
      "v": 72
    },
    {
      "midi": 64,
      "hit": false,
      "t": 248995.2219999998,
      "d": 753.617499999993,
      "v": 64
    },
    {
      "midi": 61,
      "hit": false,
      "t": 249598.1159999998,
      "d": 753.617499999993,
      "v": 71
    },
    {
      "midi": 64,
      "hit": false,
      "t": 250201.0099999998,
      "d": 592.8457666666654,
      "v": 56
    },
    {
      "midi": 54,
      "hit": false,
      "t": 250803.9039999998,
      "d": 2532.1547999999893,
      "v": 75
    },
    {
      "midi": 57,
      "hit": false,
      "t": 251406.7979999998,
      "d": 1165.5950666666613,
      "v": 62
    },
    {
      "midi": 61,
      "hit": false,
      "t": 252009.6919999998,
      "d": 1205.7880000000005,
      "v": 74
    },
    {
      "midi": 69,
      "hit": false,
      "t": 252612.5859999998,
      "d": 1095.2574333333177,
      "v": 67
    },
    {
      "midi": 52,
      "hit": false,
      "t": 253215.4799999998,
      "d": 2391.4795333333313,
      "v": 76
    },
    {
      "midi": 57,
      "hit": false,
      "t": 253818.37399999978,
      "d": 1266.0774000000092,
      "v": 75
    },
    {
      "midi": 61,
      "hit": false,
      "t": 254421.26799999978,
      "d": 954.5821666666889,
      "v": 64
    },
    {
      "midi": 64,
      "hit": false,
      "t": 255024.16199999978,
      "d": 622.9904666666989,
      "v": 73
    },
    {
      "midi": 50,
      "hit": false,
      "t": 255627.0559999998,
      "d": 2391.4795333333313,
      "v": 76
    },
    {
      "midi": 66,
      "hit": false,
      "t": 256229.9499999998,
      "d": 713.4245666666538,
      "v": 79
    },
    {
      "midi": 69,
      "hit": false,
      "t": 256832.8439999998,
      "d": 1266.0774000000092,
      "v": 78
    },
    {
      "midi": 62,
      "hit": false,
      "t": 257435.7379999998,
      "d": 1487.1385333333455,
      "v": 73
    },
    {
      "midi": 49,
      "hit": false,
      "t": 258038.6319999998,
      "d": 2391.4795333333022,
      "v": 76
    },
    {
      "midi": 69,
      "hit": false,
      "t": 258641.5259999998,
      "d": 703.376333333319,
      "v": 75
    },
    {
      "midi": 76,
      "hit": false,
      "t": 259244.4199999998,
      "d": 673.2316333333147,
      "v": 81
    },
    {
      "midi": 69,
      "hit": false,
      "t": 259847.31399999978,
      "d": 622.9904666666698,
      "v": 67
    },
    {
      "midi": 47,
      "hit": false,
      "t": 260450.20799999978,
      "d": 2391.4795333333022,
      "v": 76
    },
    {
      "midi": 78,
      "hit": false,
      "t": 261053.10199999978,
      "d": 1517.2832333333208,
      "v": 82
    },
    {
      "midi": 71,
      "hit": false,
      "t": 261655.99599999978,
      "d": 673.2316333333438,
      "v": 91
    },
    {
      "midi": 69,
      "hit": false,
      "t": 262258.8899999998,
      "d": 1256.0291666666162,
      "v": 73
    },
    {
      "midi": 52,
      "hit": false,
      "t": 262861.78399999975,
      "d": 2391.4795333333313,
      "v": 76
    },
    {
      "midi": 76,
      "hit": false,
      "t": 263464.6779999997,
      "d": 813.9069000000018,
      "v": 69
    },
    {
      "midi": 68,
      "hit": false,
      "t": 264067.57199999975,
      "d": 602.8939999999711,
      "v": 94
    },
    {
      "midi": 71,
      "hit": false,
      "t": 264670.4659999997,
      "d": 803.858666666667,
      "v": 73
    },
    {
      "midi": 45,
      "hit": false,
      "t": 265273.35999999975,
      "d": 2361.3348333332688,
      "v": 76
    },
    {
      "midi": 64,
      "hit": false,
      "t": 265876.2539999997,
      "d": 1858.9231666666456,
      "v": 72
    },
    {
      "midi": 69,
      "hit": false,
      "t": 266479.1479999997,
      "d": 1055.0644999999786,
      "v": 86
    },
    {
      "midi": 73,
      "hit": false,
      "t": 267082.04199999967,
      "d": 693.3281000000425,
      "v": 75
    },
    {
      "midi": 50,
      "hit": false,
      "t": 267684.9359999997,
      "d": 1205.7880000000005,
      "v": 76
    },
    {
      "midi": 66,
      "hit": false,
      "t": 267684.9359999997,
      "d": 1446.9455999999773,
      "v": 84
    },
    {
      "midi": 62,
      "hit": false,
      "t": 268287.8299999997,
      "d": 1828.778466666583,
      "v": 69
    },
    {
      "midi": 52,
      "hit": false,
      "t": 268890.7239999997,
      "d": 1205.7879999999423,
      "v": 76
    },
    {
      "midi": 64,
      "hit": false,
      "t": 268890.7239999997,
      "d": 1276.1256333332858,
      "v": 70
    },
    {
      "midi": 71,
      "hit": false,
      "t": 269493.61799999967,
      "d": 653.1351666666451,
      "v": 79
    },
    {
      "midi": 73,
      "hit": false,
      "t": 270096.51199999964,
      "d": 1828.7784666666412,
      "v": 69
    },
    {
      "midi": 57,
      "hit": false,
      "t": 270096.51199999964,
      "d": 2009.6466666666674,
      "v": 76
    },
    {
      "midi": 61,
      "hit": false,
      "t": 270699.40599999967,
      "d": 1979.501966666663,
      "v": 74
    },
    {
      "midi": 64,
      "hit": false,
      "t": 271302.29999999964,
      "d": 1406.7526666666963,
      "v": 67
    },
    {
      "midi": 76,
      "hit": false,
      "t": 271905.1939999996,
      "d": 1245.9809333333978,
      "v": 84
    },
    {
      "midi": 57,
      "hit": false,
      "t": 272508.08799999964,
      "d": 954.5821666666889,
      "v": 76
    },
    {
      "midi": 61,
      "hit": false,
      "t": 273110.98199999967,
      "d": 1899.1160999999265,
      "v": 79
    },
    {
      "midi": 57,
      "hit": false,
      "t": 273663.63483333297,
      "d": 1004.8233333333046,
      "v": 62
    },
    {
      "midi": 64,
      "hit": false,
      "t": 274316.7699999996,
      "d": 582.7975333333015,
      "v": 74
    },
    {
      "midi": 69,
      "hit": false,
      "t": 274919.6639999996,
      "d": 1708.1996666666819,
      "v": 61
    },
    {
      "midi": 50,
      "hit": false,
      "t": 274919.6639999996,
      "d": 2110.1290000000154,
      "v": 69
    },
    {
      "midi": 62,
      "hit": false,
      "t": 275522.5579999996,
      "d": 1205.7880000000005,
      "v": 72
    },
    {
      "midi": 66,
      "hit": false,
      "t": 276125.4519999996,
      "d": 904.3410000000149,
      "v": 68
    },
    {
      "midi": 69,
      "hit": false,
      "t": 276728.3459999996,
      "d": 1256.0291666666162,
      "v": 81
    },
    {
      "midi": 76,
      "hit": false,
      "t": 277331.2399999996,
      "d": 1004.8233333333046,
      "v": 73
    },
    {
      "midi": 62,
      "hit": false,
      "t": 277331.2399999996,
      "d": 2713.0229999999283,
      "v": 68
    },
    {
      "midi": 78,
      "hit": false,
      "t": 277934.13399999955,
      "d": 602.8939999999711,
      "v": 72
    },
    {
      "midi": 76,
      "hit": false,
      "t": 278537.0279999995,
      "d": 602.8939999999711,
      "v": 74
    },
    {
      "midi": 50,
      "hit": false,
      "t": 278537.0279999995,
      "d": 1055.0644999999786,
      "v": 75
    },
    {
      "midi": 74,
      "hit": false,
      "t": 279139.9219999995,
      "d": 703.3763333333773,
      "v": 75
    },
    {
      "midi": 73,
      "hit": false,
      "t": 279742.8159999995,
      "d": 2160.370166666573,
      "v": 61
    },
    {
      "midi": 49,
      "hit": false,
      "t": 279742.8159999995,
      "d": 2713.02299999987,
      "v": 65
    },
    {
      "midi": 61,
      "hit": false,
      "t": 280345.7099999995,
      "d": 1205.7879999999423,
      "v": 75
    },
    {
      "midi": 64,
      "hit": false,
      "t": 280948.60399999947,
      "d": 602.8939999999711,
      "v": 78
    },
    {
      "midi": 56,
      "hit": false,
      "t": 281551.49799999944,
      "d": 2260.852499999921,
      "v": 69
    },
    {
      "midi": 52,
      "hit": false,
      "t": 282194.58493333275,
      "d": 2220.65956666664,
      "v": 67
    },
    {
      "midi": 68,
      "hit": false,
      "t": 282757.2859999994,
      "d": 1567.5243999999948,
      "v": 71
    },
    {
      "midi": 61,
      "hit": false,
      "t": 283360.17999999935,
      "d": 753.6175000000512,
      "v": 69
    },
    {
      "midi": 64,
      "hit": false,
      "t": 283963.0739999994,
      "d": 602.8940000000293,
      "v": 69
    },
    {
      "midi": 57,
      "hit": false,
      "t": 284565.9679999994,
      "d": 2411.5759999998845,
      "v": 64
    },
    {
      "midi": 47,
      "hit": false,
      "t": 284565.9679999994,
      "d": 2713.02299999987,
      "v": 65
    },
    {
      "midi": 62,
      "hit": false,
      "t": 285168.8619999994,
      "d": 1205.7879999999423,
      "v": 75
    },
    {
      "midi": 66,
      "hit": false,
      "t": 285771.75599999935,
      "d": 602.8939999999711,
      "v": 78
    },
    {
      "midi": 69,
      "hit": false,
      "t": 286374.6499999993,
      "d": 602.8939999999711,
      "v": 69
    },
    {
      "midi": 52,
      "hit": false,
      "t": 286977.5439999993,
      "d": 2220.6595666665817,
      "v": 67
    },
    {
      "midi": 71,
      "hit": false,
      "t": 287580.43799999927,
      "d": 1256.0291666666162,
      "v": 60
    },
    {
      "midi": 59,
      "hit": false,
      "t": 288183.33199999924,
      "d": 954.5821666666307,
      "v": 64
    },
    {
      "midi": 68,
      "hit": false,
      "t": 288786.2259999992,
      "d": 663.1834000000381,
      "v": 71
    },
    {
      "midi": 57,
      "hit": false,
      "t": 289389.11999999924,
      "d": 2079.984300000011,
      "v": 73
    },
    {
      "midi": 64,
      "hit": false,
      "t": 289992.01399999927,
      "d": 1125.4021333333221,
      "v": 72
    },
    {
      "midi": 69,
      "hit": false,
      "t": 290594.90799999924,
      "d": 562.7010666666902,
      "v": 82
    },
    {
      "midi": 73,
      "hit": false,
      "t": 291197.80199999927,
      "d": 1055.0644999999786,
      "v": 78
    },
    {
      "midi": 57,
      "hit": false,
      "t": 291800.69599999924,
      "d": 1205.7880000000005,
      "v": 69
    },
    {
      "midi": 64,
      "hit": false,
      "t": 292403.58999999927,
      "d": 612.9422333333059,
      "v": 66
    },
    {
      "midi": 71,
      "hit": false,
      "t": 293006.48399999924,
      "d": 612.9422333333641,
      "v": 74
    },
    {
      "midi": 56,
      "hit": false,
      "t": 293006.48399999924,
      "d": 1085.2092000000412,
      "v": 74
    },
    {
      "midi": 68,
      "hit": false,
      "t": 293609.37799999927,
      "d": 622.9904666666989,
      "v": 65
    },
    {
      "midi": 54,
      "hit": false,
      "t": 294212.2719999993,
      "d": 4441.319133333338,
      "v": 79
    },
    {
      "midi": 69,
      "hit": false,
      "t": 294232.36846666597,
      "d": 1256.0291666666744,
      "v": 61
    },
    {
      "midi": 57,
      "hit": false,
      "t": 294815.1659999993,
      "d": 1235.9327000000048,
      "v": 69
    },
    {
      "midi": 61,
      "hit": false,
      "t": 295418.0599999993,
      "d": 834.0033666666714,
      "v": 76
    },
    {
      "midi": 66,
      "hit": false,
      "t": 296020.9539999993,
      "d": 834.0033666666131,
      "v": 72
    },
    {
      "midi": 69,
      "hit": false,
      "t": 296623.8479999993,
      "d": 1738.344366666628,
      "v": 69
    },
    {
      "midi": 61,
      "hit": false,
      "t": 297226.74199999927,
      "d": 1004.8233333333046,
      "v": 65
    },
    {
      "midi": 57,
      "hit": false,
      "t": 297829.63599999924,
      "d": 733.5210333333816,
      "v": 72
    },
    {
      "midi": 61,
      "hit": false,
      "t": 298432.5299999993,
      "d": 612.9422333333641,
      "v": 65
    },
    {
      "midi": 49,
      "hit": false,
      "t": 299035.4239999993,
      "d": 2713.0229999999865,
      "v": 65
    },
    {
      "midi": 61,
      "hit": false,
      "t": 299638.31799999933,
      "d": 1205.7880000000005,
      "v": 75
    },
    {
      "midi": 64,
      "hit": false,
      "t": 300241.2119999993,
      "d": 1708.1996666666237,
      "v": 78
    },
    {
      "midi": 73,
      "hit": false,
      "t": 300291.453166666,
      "d": 2160.370166666631,
      "v": 61
    },
    {
      "midi": 56,
      "hit": false,
      "t": 300844.10599999933,
      "d": 2260.852499999921,
      "v": 69
    },
    {
      "midi": 52,
      "hit": false,
      "t": 301487.19293333264,
      "d": 2220.65956666664,
      "v": 67
    },
    {
      "midi": 68,
      "hit": false,
      "t": 302049.8939999993,
      "d": 1567.5243999999948,
      "v": 71
    },
    {
      "midi": 61,
      "hit": false,
      "t": 302652.78799999924,
      "d": 753.6175000000512,
      "v": 69
    },
    {
      "midi": 64,
      "hit": false,
      "t": 303255.6819999993,
      "d": 602.8940000000293,
      "v": 69
    },
    {
      "midi": 50,
      "hit": false,
      "t": 303858.5759999993,
      "d": 2009.6466666666092,
      "v": 75
    },
    {
      "midi": 69,
      "hit": false,
      "t": 304461.4699999993,
      "d": 1286.1738666666206,
      "v": 73
    },
    {
      "midi": 66,
      "hit": false,
      "t": 305064.36399999924,
      "d": 1075.1609666666482,
      "v": 72
    },
    {
      "midi": 74,
      "hit": false,
      "t": 305667.2579999992,
      "d": 1175.6433000000543,
      "v": 75
    },
    {
      "midi": 54,
      "hit": false,
      "t": 306270.15199999925,
      "d": 2280.9489666666486,
      "v": 76
    },
    {
      "midi": 71,
      "hit": false,
      "t": 306270.15199999925,
      "d": 2361.334833333327,
      "v": 81
    },
    {
      "midi": 62,
      "hit": false,
      "t": 306873.0459999993,
      "d": 1416.800899999973,
      "v": 82
    },
    {
      "midi": 66,
      "hit": false,
      "t": 307475.93999999925,
      "d": 733.5210333333234,
      "v": 67
    },
    {
      "midi": 69,
      "hit": false,
      "t": 308078.8339999992,
      "d": 713.424566666712,
      "v": 74
    },
    {
      "midi": 55,
      "hit": false,
      "t": 308681.72799999925,
      "d": 2280.9489666666486,
      "v": 76
    },
    {
      "midi": 67,
      "hit": false,
      "t": 309284.6219999993,
      "d": 1306.2703333332902,
      "v": 67
    },
    {
      "midi": 62,
      "hit": false,
      "t": 309887.51599999925,
      "d": 823.9551333333366,
      "v": 77
    },
    {
      "midi": 71,
      "hit": false,
      "t": 310490.4099999992,
      "d": 894.2927666666801,
      "v": 74
    },
    {
      "midi": 69,
      "hit": false,
      "t": 311093.30399999925,
      "d": 1296.2220999999554,
      "v": 75
    },
    {
      "midi": 54,
      "hit": false,
      "t": 311093.30399999925,
      "d": 2280.9489666666486,
      "v": 76
    },
    {
      "midi": 57,
      "hit": false,
      "t": 311696.1979999992,
      "d": 1256.0291666666744,
      "v": 68
    },
    {
      "midi": 62,
      "hit": false,
      "t": 312299.0919999992,
      "d": 643.0869333333685,
      "v": 83
    },
    {
      "midi": 69,
      "hit": false,
      "t": 312901.9859999992,
      "d": 834.0033666666714,
      "v": 70
    },
    {
      "midi": 68,
      "hit": false,
      "t": 313504.87999999925,
      "d": 2170.418399999966,
      "v": 72
    },
    {
      "midi": 64,
      "hit": false,
      "t": 313504.87999999925,
      "d": 2190.5148666666355,
      "v": 66
    },
    {
      "midi": 52,
      "hit": false,
      "t": 313504.87999999925,
      "d": 2280.9489666666486,
      "v": 76
    },
    {
      "midi": 63,
      "hit": false,
      "t": 315916.45599999925,
      "d": 2029.743133333337,
      "v": 70
    },
    {
      "midi": 69,
      "hit": false,
      "t": 315916.45599999925,
      "d": 2049.8396000000066,
      "v": 68
    },
    {
      "midi": 53,
      "hit": false,
      "t": 315916.45599999925,
      "d": 2280.9489666666486,
      "v": 64
    },
    {
      "midi": 58,
      "hit": false,
      "t": 318328.03199999925,
      "d": 2341.2383666666574,
      "v": 74
    },
    {
      "midi": 62,
      "hit": false,
      "t": 318930.9259999992,
      "d": 1024.9197999999742,
      "v": 73
    },
    {
      "midi": 65,
      "hit": false,
      "t": 319533.8199999992,
      "d": 653.1351666667033,
      "v": 68
    },
    {
      "midi": 70,
      "hit": false,
      "t": 320136.7139999992,
      "d": 602.8940000000293,
      "v": 82
    },
    {
      "midi": 69,
      "hit": false,
      "t": 320739.60799999925,
      "d": 723.4727999999886,
      "v": 68
    },
    {
      "midi": 57,
      "hit": false,
      "t": 320739.60799999925,
      "d": 2421.624233333394,
      "v": 72
    },
    {
      "midi": 65,
      "hit": false,
      "t": 321342.5019999992,
      "d": 753.6175000000512,
      "v": 64
    },
    {
      "midi": 62,
      "hit": false,
      "t": 321945.39599999925,
      "d": 753.6175000000512,
      "v": 71
    },
    {
      "midi": 65,
      "hit": false,
      "t": 322548.2899999993,
      "d": 592.8457666666945,
      "v": 56
    },
    {
      "midi": 55,
      "hit": false,
      "t": 323151.1839999993,
      "d": 2532.1548000000766,
      "v": 75
    },
    {
      "midi": 58,
      "hit": false,
      "t": 323754.07799999934,
      "d": 1165.5950666666613,
      "v": 62
    },
    {
      "midi": 63,
      "hit": false,
      "t": 324356.9719999993,
      "d": 653.1351666667033,
      "v": 74
    },
    {
      "midi": 70,
      "hit": false,
      "t": 324959.86599999934,
      "d": 1095.257433333376,
      "v": 67
    },
    {
      "midi": 57,
      "hit": false,
      "t": 325562.75999999937,
      "d": 2391.479533333273,
      "v": 76
    },
    {
      "midi": 69,
      "hit": false,
      "t": 326165.6539999994,
      "d": 1266.077399999951,
      "v": 75
    },
    {
      "midi": 60,
      "hit": false,
      "t": 326768.54799999937,
      "d": 954.5821666666307,
      "v": 64
    },
    {
      "midi": 65,
      "hit": false,
      "t": 327371.44199999934,
      "d": 622.9904666666407,
      "v": 73
    },
    {
      "midi": 58,
      "hit": false,
      "t": 327974.3359999993,
      "d": 2341.2383666667156,
      "v": 74
    },
    {
      "midi": 62,
      "hit": false,
      "t": 328577.22999999934,
      "d": 1024.9197999999742,
      "v": 73
    },
    {
      "midi": 65,
      "hit": false,
      "t": 329180.1239999993,
      "d": 653.1351666667033,
      "v": 68
    },
    {
      "midi": 70,
      "hit": false,
      "t": 329783.01799999934,
      "d": 602.8940000000293,
      "v": 82
    },
    {
      "midi": 69,
      "hit": false,
      "t": 330385.91199999937,
      "d": 723.4727999999886,
      "v": 68
    },
    {
      "midi": 57,
      "hit": false,
      "t": 330385.91199999937,
      "d": 2421.624233333394,
      "v": 72
    },
    {
      "midi": 65,
      "hit": false,
      "t": 330988.80599999934,
      "d": 753.6175000000512,
      "v": 64
    },
    {
      "midi": 62,
      "hit": false,
      "t": 331591.6999999994,
      "d": 753.6175000000512,
      "v": 71
    },
    {
      "midi": 65,
      "hit": false,
      "t": 332194.5939999994,
      "d": 592.8457666666945,
      "v": 56
    },
    {
      "midi": 55,
      "hit": false,
      "t": 332797.48799999943,
      "d": 2532.1548000000184,
      "v": 75
    },
    {
      "midi": 58,
      "hit": false,
      "t": 333400.38199999946,
      "d": 1165.5950666666613,
      "v": 62
    },
    {
      "midi": 62,
      "hit": false,
      "t": 334003.27599999943,
      "d": 1205.7880000000005,
      "v": 74
    },
    {
      "midi": 70,
      "hit": false,
      "t": 334606.16999999946,
      "d": 1095.2574333333177,
      "v": 67
    },
    {
      "midi": 53,
      "hit": false,
      "t": 335209.06399999943,
      "d": 2391.479533333273,
      "v": 76
    },
    {
      "midi": 58,
      "hit": false,
      "t": 335811.95799999946,
      "d": 1266.077399999951,
      "v": 75
    },
    {
      "midi": 62,
      "hit": false,
      "t": 336414.85199999943,
      "d": 954.5821666666307,
      "v": 64
    },
    {
      "midi": 65,
      "hit": false,
      "t": 337017.7459999994,
      "d": 622.9904666666407,
      "v": 73
    },
    {
      "midi": 51,
      "hit": false,
      "t": 337620.6399999994,
      "d": 2391.4795333333896,
      "v": 76
    },
    {
      "midi": 67,
      "hit": false,
      "t": 338223.5339999994,
      "d": 713.4245666666538,
      "v": 79
    },
    {
      "midi": 70,
      "hit": false,
      "t": 338826.4279999994,
      "d": 1266.0774000000674,
      "v": 78
    },
    {
      "midi": 63,
      "hit": false,
      "t": 339429.3219999994,
      "d": 1175.6433000000543,
      "v": 73
    },
    {
      "midi": 50,
      "hit": false,
      "t": 340032.21599999943,
      "d": 2391.4795333334478,
      "v": 76
    },
    {
      "midi": 65,
      "hit": false,
      "t": 340052.3124666661,
      "d": 1175.6433000000543,
      "v": 73
    },
    {
      "midi": 70,
      "hit": false,
      "t": 340635.10999999946,
      "d": 703.3763333333773,
      "v": 75
    },
    {
      "midi": 77,
      "hit": false,
      "t": 341238.0039999995,
      "d": 673.2316333333729,
      "v": 81
    },
    {
      "midi": 70,
      "hit": false,
      "t": 341840.8979999995,
      "d": 1728.2961333333515,
      "v": 67
    },
    {
      "midi": 48,
      "hit": false,
      "t": 342443.79199999955,
      "d": 2391.479533333273,
      "v": 76
    },
    {
      "midi": 79,
      "hit": false,
      "t": 343046.6859999995,
      "d": 1517.2832333333208,
      "v": 82
    },
    {
      "midi": 72,
      "hit": false,
      "t": 343649.57999999955,
      "d": 673.2316333333147,
      "v": 91
    },
    {
      "midi": 70,
      "hit": false,
      "t": 344252.4739999995,
      "d": 1256.0291666666162,
      "v": 73
    },
    {
      "midi": 53,
      "hit": false,
      "t": 344855.3679999995,
      "d": 2391.4795333333313,
      "v": 76
    },
    {
      "midi": 77,
      "hit": false,
      "t": 345458.26199999946,
      "d": 813.9069000000018,
      "v": 69
    },
    {
      "midi": 69,
      "hit": false,
      "t": 346061.1559999995,
      "d": 602.8939999999711,
      "v": 94
    },
    {
      "midi": 72,
      "hit": false,
      "t": 346664.04999999946,
      "d": 803.858666666667,
      "v": 73
    },
    {
      "midi": 65,
      "hit": false,
      "t": 347216.7028333328,
      "d": 2461.8171666666167,
      "v": 72
    },
    {
      "midi": 74,
      "hit": false,
      "t": 347266.9439999995,
      "d": 2632.63713333325,
      "v": 75
    },
    {
      "midi": 46,
      "hit": false,
      "t": 347266.9439999995,
      "d": 4692.524966666533,
      "v": 76
    },
    {
      "midi": 62,
      "hit": false,
      "t": 350281.4139999994,
      "d": 1828.7784666666412,
      "v": 59
    },
    {
      "midi": 65,
      "hit": false,
      "t": 350884.3079999994,
      "d": 1276.125633333344,
      "v": 70
    },
    {
      "midi": 70,
      "hit": false,
      "t": 351487.20199999935,
      "d": 723.4728000000468,
      "v": 62
    },
    {
      "midi": 58,
      "hit": false,
      "t": 352090.0959999994,
      "d": 1979.501966666663,
      "v": 74
    },
    {
      "midi": 67,
      "hit": false,
      "t": 352090.0959999994,
      "d": 2331.1901333333226,
      "v": 67
    },
    {
      "midi": 51,
      "hit": false,
      "t": 352090.0959999994,
      "d": 2572.3477333333576,
      "v": 76
    },
    {
      "midi": 65,
      "hit": false,
      "t": 354501.6719999994,
      "d": 1899.116100000043,
      "v": 79
    },
    {
      "midi": 57,
      "hit": false,
      "t": 354501.6719999994,
      "d": 2130.225466666685,
      "v": 62
    },
    {
      "midi": 50,
      "hit": false,
      "t": 354501.6719999994,
      "d": 2471.8654000000097,
      "v": 68
    },
    {
      "midi": 67,
      "hit": false,
      "t": 356913.2479999994,
      "d": 4240.3544666667,
      "v": 61
    },
    {
      "midi": 48,
      "hit": false,
      "t": 356913.2479999994,
      "d": 4441.319133333338,
      "v": 69
    },
    {
      "midi": 60,
      "hit": false,
      "t": 356963.48916666606,
      "d": 4190.113300000026,
      "v": 72
    },
    {
      "midi": 63,
      "hit": false,
      "t": 356963.48916666606,
      "d": 4441.319133333338,
      "v": 68
    },
    {
      "midi": 48,
      "hit": false,
      "t": 361736.3999999994,
      "d": 2110.1290000000154,
      "v": 69
    },
    {
      "midi": 67,
      "hit": false,
      "t": 361736.3999999994,
      "d": 2130.225466666685,
      "v": 61
    },
    {
      "midi": 63,
      "hit": false,
      "t": 361786.64116666606,
      "d": 2029.743133333337,
      "v": 68
    },
    {
      "midi": 60,
      "hit": false,
      "t": 361786.64116666606,
      "d": 2280.9489666666486,
      "v": 72
    },
    {
      "midi": 57,
      "hit": false,
      "t": 364147.9759999994,
      "d": 2280.948966666707,
      "v": 73
    },
    {
      "midi": 53,
      "hit": false,
      "t": 364147.9759999994,
      "d": 2331.190133333381,
      "v": 68
    },
    {
      "midi": 60,
      "hit": false,
      "t": 364198.21716666606,
      "d": 2180.466633333359,
      "v": 72
    },
    {
      "midi": 53,
      "hit": false,
      "t": 366559.55199999944,
      "d": 3969.052166666661,
      "v": 68
    },
    {
      "midi": 62,
      "hit": false,
      "t": 366609.7931666661,
      "d": 3818.328666666639,
      "v": 65
    },
    {
      "midi": 58,
      "hit": false,
      "t": 371382.70399999944,
      "d": 2210.611333333305,
      "v": 67
    },
    {
      "midi": 70,
      "hit": false,
      "t": 371985.5979999994,
      "d": 602.8939999999711,
      "v": 61
    },
    {
      "midi": 46,
      "hit": false,
      "t": 371985.5979999994,
      "d": 2210.611333333305,
      "v": 67
    },
    {
      "midi": 74,
      "hit": false,
      "t": 372588.4919999994,
      "d": 562.7010666666902,
      "v": 71
    },
    {
      "midi": 70,
      "hit": false,
      "t": 373191.3859999994,
      "d": 2059.887833333225,
      "v": 81
    },
    {
      "midi": 58,
      "hit": false,
      "t": 373794.2799999994,
      "d": 1728.296133333235,
      "v": 67
    },
    {
      "midi": 60,
      "hit": false,
      "t": 374397.17399999936,
      "d": 602.8939999999711,
      "v": 65
    },
    {
      "midi": 65,
      "hit": false,
      "t": 375000.06799999933,
      "d": 954.5821666666307,
      "v": 65
    },
    {
      "midi": 69,
      "hit": false,
      "t": 375602.9619999993,
      "d": 602.8939999999711,
      "v": 56
    },
    {
      "midi": 58,
      "hit": false,
      "t": 376205.8559999993,
      "d": 1879.019633333257,
      "v": 71
    },
    {
      "midi": 51,
      "hit": false,
      "t": 376205.8559999993,
      "d": 2210.611333333247,
      "v": 67
    },
    {
      "midi": 63,
      "hit": false,
      "t": 376808.74999999924,
      "d": 1366.559733333299,
      "v": 72
    },
    {
      "midi": 67,
      "hit": false,
      "t": 377411.6439999992,
      "d": 1758.4408333332976,
      "v": 62
    },
    {
      "midi": 70,
      "hit": false,
      "t": 378014.5379999992,
      "d": 2059.887833333283,
      "v": 71
    },
    {
      "midi": 54,
      "hit": false,
      "t": 378617.43199999916,
      "d": 1858.9231666666456,
      "v": 67
    },
    {
      "midi": 63,
      "hit": false,
      "t": 379220.3259999992,
      "d": 1366.559733333299,
      "v": 72
    },
    {
      "midi": 51,
      "hit": false,
      "t": 379823.21999999916,
      "d": 1155.5468333333265,
      "v": 67
    },
    {
      "midi": 66,
      "hit": false,
      "t": 379823.21999999916,
      "d": 1467.042066666705,
      "v": 70
    },
    {
      "midi": 70,
      "hit": false,
      "t": 380426.1139999991,
      "d": 693.3281000000425,
      "v": 62
    },
    {
      "midi": 58,
      "hit": false,
      "t": 381029.00799999916,
      "d": 2110.128999999957,
      "v": 69
    },
    {
      "midi": 62,
      "hit": false,
      "t": 381631.9019999992,
      "d": 1205.7879999999423,
      "v": 72
    },
    {
      "midi": 65,
      "hit": false,
      "t": 382234.79599999916,
      "d": 904.3409999999567,
      "v": 68
    },
    {
      "midi": 70,
      "hit": false,
      "t": 382837.68999999913,
      "d": 1256.0291666666162,
      "v": 81
    },
    {
      "midi": 72,
      "hit": false,
      "t": 383440.5839999991,
      "d": 1004.8233333333046,
      "v": 73
    },
    {
      "midi": 62,
      "hit": false,
      "t": 383440.5839999991,
      "d": 2713.02299999987,
      "v": 68
    },
    {
      "midi": 74,
      "hit": false,
      "t": 384043.4779999991,
      "d": 602.8939999999711,
      "v": 72
    },
    {
      "midi": 72,
      "hit": false,
      "t": 384646.37199999904,
      "d": 602.8939999999711,
      "v": 74
    },
    {
      "midi": 70,
      "hit": false,
      "t": 385249.265999999,
      "d": 602.8939999999711,
      "v": 75
    },
    {
      "midi": 58,
      "hit": false,
      "t": 385852.159999999,
      "d": 2411.5759999998845,
      "v": 64
    },
    {
      "midi": 48,
      "hit": false,
      "t": 385852.159999999,
      "d": 2713.02299999987,
      "v": 65
    },
    {
      "midi": 63,
      "hit": false,
      "t": 386455.05399999896,
      "d": 1205.7879999999423,
      "v": 75
    },
    {
      "midi": 67,
      "hit": false,
      "t": 387057.9479999989,
      "d": 602.8939999999711,
      "v": 78
    },
    {
      "midi": 70,
      "hit": false,
      "t": 387660.8419999989,
      "d": 602.8939999999711,
      "v": 69
    },
    {
      "midi": 69,
      "hit": false,
      "t": 388303.9289333322,
      "d": 914.3892333332915,
      "v": 71
    },
    {
      "midi": 53,
      "hit": false,
      "t": 388303.9289333322,
      "d": 1014.8715666666394,
      "v": 67
    },
    {
      "midi": 72,
      "hit": false,
      "t": 388313.97716666554,
      "d": 2260.852499999921,
      "v": 60
    },
    {
      "midi": 53,
      "hit": false,
      "t": 389519.7651666655,
      "d": 1014.8715666666394,
      "v": 67
    },
    {
      "midi": 69,
      "hit": false,
      "t": 389519.7651666655,
      "d": 1205.7880000000005,
      "v": 71
    },
    {
      "midi": 62,
      "hit": false,
      "t": 390675.3119999988,
      "d": 2059.8878333333414,
      "v": 72
    },
    {
      "midi": 65,
      "hit": false,
      "t": 390675.3119999988,
      "d": 2260.852499999979,
      "v": 65
    },
    {
      "midi": 58,
      "hit": false,
      "t": 390675.3119999988,
      "d": 7988.345500000054,
      "v": 71
    },
    {
      "midi": 46,
      "hit": false,
      "t": 390675.3119999988,
      "d": 8440.516000000061,
      "v": 67
    },
    {
      "midi": 62,
      "hit": false,
      "t": 392996.4538999988,
      "d": 6219.856433333422,
      "v": 79
    },
    {
      "midi": 65,
      "hit": false,
      "t": 393559.1549666655,
      "d": 5576.769500000053,
      "v": 69
    },
    {
      "midi": 70,
      "hit": false,
      "t": 394001.27723333216,
      "d": 5315.515433333407,
      "v": 87
    },
    {
      "midi": 74,
      "hit": false,
      "t": 394493.6406666655,
      "d": 904.3410000000149,
      "v": 68
    },
    {
      "midi": 77,
      "hit": false,
      "t": 395076.43819999887,
      "d": 4843.248466666671,
      "v": 76
    },
    {
      "midi": 74,
      "hit": false,
      "t": 395629.09103333217,
      "d": 4340.836800000048,
      "v": 68
    },
    {
      "midi": 82,
      "hit": false,
      "t": 396473.1426333322,
      "d": 3547.026366666716,
      "v": 72
    }
  ]
}