{
  "jsonPath": "Electronic/Electronica/Agoria/organic.json",
  "path": "Electronic\\Electronica\\Agoria\\Organic.mid",
  "name": "Organic",
  "difficulty": "Advanced",
  "bpm": 127.00025400050801,
  "notes": [
    {
      "midi": 59,
      "hit": false,
      "t": 86928.95999999999,
      "d": 2594.7290625000023,
      "v": 100
    },
    {
      "midi": 62,
      "hit": false,
      "t": 86928.95999999999,
      "d": 2594.7290625000023,
      "v": 100
    },
    {
      "midi": 66,
      "hit": false,
      "t": 86928.95999999999,
      "d": 2594.7290625000023,
      "v": 100
    },
    {
      "midi": 69,
      "hit": false,
      "t": 86928.95999999999,
      "d": 2594.7290625000023,
      "v": 100
    },
    {
      "midi": 76,
      "hit": false,
      "t": 89763.59999999999,
      "d": 941.1890624999942,
      "v": 110
    },
    {
      "midi": 61,
      "hit": false,
      "t": 90708.47999999998,
      "d": 3421.4990625000064,
      "v": 100
    },
    {
      "midi": 64,
      "hit": false,
      "t": 90708.47999999998,
      "d": 3421.4990625000064,
      "v": 100
    },
    {
      "midi": 68,
      "hit": false,
      "t": 90708.47999999998,
      "d": 3421.4990625000064,
      "v": 100
    },
    {
      "midi": 71,
      "hit": false,
      "t": 90708.47999999998,
      "d": 3421.4990625000064,
      "v": 100
    },
    {
      "midi": 59,
      "hit": false,
      "t": 94487.99999999999,
      "d": 2594.7290625000023,
      "v": 100
    },
    {
      "midi": 62,
      "hit": false,
      "t": 94487.99999999999,
      "d": 2594.7290625000023,
      "v": 100
    },
    {
      "midi": 66,
      "hit": false,
      "t": 94487.99999999999,
      "d": 2594.7290625000023,
      "v": 100
    },
    {
      "midi": 69,
      "hit": false,
      "t": 94487.99999999999,
      "d": 2594.7290625000023,
      "v": 100
    },
    {
      "midi": 76,
      "hit": false,
      "t": 97322.63999999998,
      "d": 941.1890624999942,
      "v": 110
    },
    {
      "midi": 61,
      "hit": false,
      "t": 98267.51999999997,
      "d": 3421.4990625000064,
      "v": 100
    },
    {
      "midi": 64,
      "hit": false,
      "t": 98267.51999999997,
      "d": 3421.4990625000064,
      "v": 100
    },
    {
      "midi": 68,
      "hit": false,
      "t": 98267.51999999997,
      "d": 3421.4990625000064,
      "v": 100
    },
    {
      "midi": 71,
      "hit": false,
      "t": 98267.51999999997,
      "d": 3421.4990625000064,
      "v": 100
    },
    {
      "midi": 59,
      "hit": false,
      "t": 102047.03999999998,
      "d": 2594.7290625000023,
      "v": 100
    },
    {
      "midi": 62,
      "hit": false,
      "t": 102047.03999999998,
      "d": 2594.7290625000023,
      "v": 100
    },
    {
      "midi": 66,
      "hit": false,
      "t": 102047.03999999998,
      "d": 2594.7290625000023,
      "v": 100
    },
    {
      "midi": 69,
      "hit": false,
      "t": 102047.03999999998,
      "d": 2594.7290625000023,
      "v": 100
    },
    {
      "midi": 76,
      "hit": false,
      "t": 104881.67999999998,
      "d": 941.1890624999942,
      "v": 110
    },
    {
      "midi": 61,
      "hit": false,
      "t": 105826.55999999997,
      "d": 3421.4990625000064,
      "v": 100
    },
    {
      "midi": 64,
      "hit": false,
      "t": 105826.55999999997,
      "d": 3421.4990625000064,
      "v": 100
    },
    {
      "midi": 68,
      "hit": false,
      "t": 105826.55999999997,
      "d": 3421.4990625000064,
      "v": 100
    },
    {
      "midi": 71,
      "hit": false,
      "t": 105826.55999999997,
      "d": 3421.4990625000064,
      "v": 100
    },
    {
      "midi": 59,
      "hit": false,
      "t": 109606.07999999997,
      "d": 2594.7290625000023,
      "v": 100
    },
    {
      "midi": 62,
      "hit": false,
      "t": 109606.07999999997,
      "d": 2594.7290625000023,
      "v": 100
    },
    {
      "midi": 66,
      "hit": false,
      "t": 109606.07999999997,
      "d": 2594.7290625000023,
      "v": 100
    },
    {
      "midi": 69,
      "hit": false,
      "t": 109606.07999999997,
      "d": 2594.7290625000023,
      "v": 100
    },
    {
      "midi": 76,
      "hit": false,
      "t": 112440.71999999997,
      "d": 941.1890624999942,
      "v": 110
    },
    {
      "midi": 61,
      "hit": false,
      "t": 113385.59999999996,
      "d": 3421.4990625000064,
      "v": 100
    },
    {
      "midi": 64,
      "hit": false,
      "t": 113385.59999999996,
      "d": 3421.4990625000064,
      "v": 100
    },
    {
      "midi": 68,
      "hit": false,
      "t": 113385.59999999996,
      "d": 3421.4990625000064,
      "v": 100
    },
    {
      "midi": 71,
      "hit": false,
      "t": 113385.59999999996,
      "d": 3421.4990625000064,
      "v": 100
    },
    {
      "midi": 59,
      "hit": false,
      "t": 117165.11999999997,
      "d": 2594.7290625000023,
      "v": 100
    },
    {
      "midi": 62,
      "hit": false,
      "t": 117165.11999999997,
      "d": 2594.7290625000023,
      "v": 100
    },
    {
      "midi": 66,
      "hit": false,
      "t": 117165.11999999997,
      "d": 2594.7290625000023,
      "v": 100
    },
    {
      "midi": 69,
      "hit": false,
      "t": 117165.11999999997,
      "d": 2594.7290625000023,
      "v": 100
    },
    {
      "midi": 76,
      "hit": false,
      "t": 119999.75999999997,
      "d": 941.1890624999942,
      "v": 110
    },
    {
      "midi": 61,
      "hit": false,
      "t": 120944.63999999996,
      "d": 3421.4990625000064,
      "v": 100
    },
    {
      "midi": 64,
      "hit": false,
      "t": 120944.63999999996,
      "d": 3421.4990625000064,
      "v": 100
    },
    {
      "midi": 68,
      "hit": false,
      "t": 120944.63999999996,
      "d": 3421.4990625000064,
      "v": 100
    },
    {
      "midi": 71,
      "hit": false,
      "t": 120944.63999999996,
      "d": 3421.4990625000064,
      "v": 100
    },
    {
      "midi": 59,
      "hit": false,
      "t": 124724.15999999996,
      "d": 2594.7290625000023,
      "v": 100
    },
    {
      "midi": 62,
      "hit": false,
      "t": 124724.15999999996,
      "d": 2594.7290625000023,
      "v": 100
    },
    {
      "midi": 66,
      "hit": false,
      "t": 124724.15999999996,
      "d": 2594.7290625000023,
      "v": 100
    },
    {
      "midi": 69,
      "hit": false,
      "t": 124724.15999999996,
      "d": 2594.7290625000023,
      "v": 100
    },
    {
      "midi": 76,
      "hit": false,
      "t": 127558.79999999996,
      "d": 941.1890624999942,
      "v": 110
    },
    {
      "midi": 61,
      "hit": false,
      "t": 128503.67999999995,
      "d": 3421.4990625000064,
      "v": 100
    },
    {
      "midi": 64,
      "hit": false,
      "t": 128503.67999999995,
      "d": 3421.4990625000064,
      "v": 100
    },
    {
      "midi": 68,
      "hit": false,
      "t": 128503.67999999995,
      "d": 3421.4990625000064,
      "v": 100
    },
    {
      "midi": 71,
      "hit": false,
      "t": 128503.67999999995,
      "d": 3421.4990625000064,
      "v": 100
    },
    {
      "midi": 59,
      "hit": false,
      "t": 132283.19999999995,
      "d": 2594.7290625000023,
      "v": 100
    },
    {
      "midi": 62,
      "hit": false,
      "t": 132283.19999999995,
      "d": 2594.7290625000023,
      "v": 100
    },
    {
      "midi": 66,
      "hit": false,
      "t": 132283.19999999995,
      "d": 2594.7290625000023,
      "v": 100
    },
    {
      "midi": 69,
      "hit": false,
      "t": 132283.19999999995,
      "d": 2594.7290625000023,
      "v": 100
    },
    {
      "midi": 76,
      "hit": false,
      "t": 135117.83999999997,
      "d": 941.1890624999942,
      "v": 110
    },
    {
      "midi": 61,
      "hit": false,
      "t": 136062.71999999997,
      "d": 3421.499062499992,
      "v": 100
    },
    {
      "midi": 64,
      "hit": false,
      "t": 136062.71999999997,
      "d": 3421.499062499992,
      "v": 100
    },
    {
      "midi": 68,
      "hit": false,
      "t": 136062.71999999997,
      "d": 3421.499062499992,
      "v": 100
    },
    {
      "midi": 71,
      "hit": false,
      "t": 136062.71999999997,
      "d": 3421.499062499992,
      "v": 100
    },
    {
      "midi": 59,
      "hit": false,
      "t": 139842.23999999996,
      "d": 2594.7290625000023,
      "v": 100
    },
    {
      "midi": 62,
      "hit": false,
      "t": 139842.23999999996,
      "d": 2594.7290625000023,
      "v": 100
    },
    {
      "midi": 66,
      "hit": false,
      "t": 139842.23999999996,
      "d": 2594.7290625000023,
      "v": 100
    },
    {
      "midi": 69,
      "hit": false,
      "t": 139842.23999999996,
      "d": 2594.7290625000023,
      "v": 100
    },
    {
      "midi": 76,
      "hit": false,
      "t": 142676.87999999998,
      "d": 941.1890624999942,
      "v": 110
    },
    {
      "midi": 71,
      "hit": false,
      "t": 143621.75999999998,
      "d": 2122.2890625,
      "v": 100
    },
    {
      "midi": 68,
      "hit": false,
      "t": 143621.75999999998,
      "d": 2830.9490625000035,
      "v": 100
    },
    {
      "midi": 64,
      "hit": false,
      "t": 143621.75999999998,
      "d": 3185.279062500049,
      "v": 100
    },
    {
      "midi": 61,
      "hit": false,
      "t": 143621.75999999998,
      "d": 3657.719062500051,
      "v": 100
    },
    {
      "midi": 80,
      "hit": false,
      "t": 145747.74,
      "d": 348.17843749999884,
      "v": 100
    },
    {
      "midi": 76,
      "hit": false,
      "t": 146102.06999999998,
      "d": 358.0209375000268,
      "v": 100
    },
    {
      "midi": 73,
      "hit": false,
      "t": 146456.4,
      "d": 345.71781250002095,
      "v": 100
    },
    {
      "midi": 69,
      "hit": false,
      "t": 146810.73000000004,
      "d": 468.74906249999185,
      "v": 100
    },
    {
      "midi": 59,
      "hit": false,
      "t": 147401.28000000003,
      "d": 2594.7290625000023,
      "v": 100
    },
    {
      "midi": 62,
      "hit": false,
      "t": 147401.28000000003,
      "d": 2594.7290625000023,
      "v": 100
    },
    {
      "midi": 66,
      "hit": false,
      "t": 147401.28000000003,
      "d": 2594.7290625000023,
      "v": 100
    },
    {
      "midi": 69,
      "hit": false,
      "t": 147401.28000000003,
      "d": 2594.7290625000023,
      "v": 100
    },
    {
      "midi": 76,
      "hit": false,
      "t": 150235.92000000004,
      "d": 941.1890624999942,
      "v": 110
    },
    {
      "midi": 61,
      "hit": false,
      "t": 151180.80000000005,
      "d": 3421.499062499992,
      "v": 100
    },
    {
      "midi": 64,
      "hit": false,
      "t": 151180.80000000005,
      "d": 3421.499062499992,
      "v": 100
    },
    {
      "midi": 68,
      "hit": false,
      "t": 151180.80000000005,
      "d": 3421.499062499992,
      "v": 100
    },
    {
      "midi": 71,
      "hit": false,
      "t": 151180.80000000005,
      "d": 3421.499062499992,
      "v": 100
    },
    {
      "midi": 59,
      "hit": false,
      "t": 154960.32000000004,
      "d": 2594.7290625000023,
      "v": 100
    },
    {
      "midi": 62,
      "hit": false,
      "t": 154960.32000000004,
      "d": 2594.7290625000023,
      "v": 100
    },
    {
      "midi": 66,
      "hit": false,
      "t": 154960.32000000004,
      "d": 2594.7290625000023,
      "v": 100
    },
    {
      "midi": 69,
      "hit": false,
      "t": 154960.32000000004,
      "d": 2594.7290625000023,
      "v": 100
    },
    {
      "midi": 76,
      "hit": false,
      "t": 157794.96000000005,
      "d": 941.1890624999942,
      "v": 110
    },
    {
      "midi": 71,
      "hit": false,
      "t": 158739.84000000005,
      "d": 2122.2890625,
      "v": 100
    },
    {
      "midi": 68,
      "hit": false,
      "t": 158739.84000000005,
      "d": 2830.9490625000035,
      "v": 100
    },
    {
      "midi": 64,
      "hit": false,
      "t": 158739.84000000005,
      "d": 3185.279062500049,
      "v": 100
    },
    {
      "midi": 61,
      "hit": false,
      "t": 158739.84000000005,
      "d": 3657.719062500051,
      "v": 100
    },
    {
      "midi": 80,
      "hit": false,
      "t": 160865.82000000007,
      "d": 348.17843749999884,
      "v": 100
    },
    {
      "midi": 105,
      "hit": false,
      "t": 161168.476875,
      "d": 20.915312500001164,
      "v": 65
    },
    {
      "midi": 103,
      "hit": false,
      "t": 161179.5496875,
      "d": 27.066874999989523,
      "v": 65
    },
    {
      "midi": 101,
      "hit": false,
      "t": 161209.0771875,
      "d": 27.066874999989523,
      "v": 65
    },
    {
      "midi": 76,
      "hit": false,
      "t": 161220.15000000005,
      "d": 358.0209375000268,
      "v": 100
    },
    {
      "midi": 100,
      "hit": false,
      "t": 161239.835,
      "d": 23.37593750000815,
      "v": 65
    },
    {
      "midi": 98,
      "hit": false,
      "t": 161271.823125,
      "d": 27.066874999989523,
      "v": 65
    },
    {
      "midi": 96,
      "hit": false,
      "t": 161302.5809375,
      "d": 27.066874999989523,
      "v": 65
    },
    {
      "midi": 95,
      "hit": false,
      "t": 161328.41749999998,
      "d": 22.145625000004657,
      "v": 65
    },
    {
      "midi": 93,
      "hit": false,
      "t": 161351.7934375,
      "d": 31.988125000003492,
      "v": 65
    },
    {
      "midi": 91,
      "hit": false,
      "t": 161389.93312499998,
      "d": 30.7578125,
      "v": 65
    },
    {
      "midi": 105,
      "hit": false,
      "t": 161557.255625,
      "d": 27.066874999989523,
      "v": 65
    },
    {
      "midi": 103,
      "hit": false,
      "t": 161557.255625,
      "d": 67.66718749998836,
      "v": 65
    },
    {
      "midi": 73,
      "hit": false,
      "t": 161574.48000000007,
      "d": 345.71781250002095,
      "v": 100
    },
    {
      "midi": 101,
      "hit": false,
      "t": 161606.46812499998,
      "d": 40.600312499998836,
      "v": 65
    },
    {
      "midi": 100,
      "hit": false,
      "t": 161642.14718749997,
      "d": 29.52750000002561,
      "v": 65
    },
    {
      "midi": 98,
      "hit": false,
      "t": 161676.5959375,
      "d": 24.60625000001164,
      "v": 65
    },
    {
      "midi": 96,
      "hit": false,
      "t": 161709.81437500002,
      "d": 25.83656249998603,
      "v": 65
    },
    {
      "midi": 95,
      "hit": false,
      "t": 161740.57218750002,
      "d": 25.83656249998603,
      "v": 65
    },
    {
      "midi": 93,
      "hit": false,
      "t": 161770.0996875,
      "d": 24.60625000001164,
      "v": 65
    },
    {
      "midi": 91,
      "hit": false,
      "t": 161795.93625000003,
      "d": 25.83656249998603,
      "v": 65
    },
    {
      "midi": 89,
      "hit": false,
      "t": 161824.23343750002,
      "d": 20.915312500001164,
      "v": 65
    },
    {
      "midi": 88,
      "hit": false,
      "t": 161861.1428125,
      "d": 31.988125000003492,
      "v": 65
    },
    {
      "midi": 69,
      "hit": false,
      "t": 161928.8100000001,
      "d": 468.74906249999185,
      "v": 100
    },
    {
      "midi": 103,
      "hit": false,
      "t": 162060.45343750002,
      "d": 55.36406249998254,
      "v": 65
    },
    {
      "midi": 101,
      "hit": false,
      "t": 162097.3628125,
      "d": 29.527499999996508,
      "v": 65
    },
    {
      "midi": 100,
      "hit": false,
      "t": 162133.041875,
      "d": 23.37593750000815,
      "v": 65
    },
    {
      "midi": 98,
      "hit": false,
      "t": 162165.03,
      "d": 27.066874999989523,
      "v": 65
    },
    {
      "midi": 96,
      "hit": false,
      "t": 162200.70906249998,
      "d": 31.988125000003492,
      "v": 65
    },
    {
      "midi": 95,
      "hit": false,
      "t": 162232.6971875,
      "d": 27.066874999989523,
      "v": 65
    },
    {
      "midi": 93,
      "hit": false,
      "t": 162253.6125,
      "d": 28.297187499993015,
      "v": 65
    },
    {
      "midi": 91,
      "hit": false,
      "t": 162280.67937499998,
      "d": 27.066874999989523,
      "v": 65
    },
    {
      "midi": 89,
      "hit": false,
      "t": 162307.74624999997,
      "d": 28.297187499993015,
      "v": 65
    },
    {
      "midi": 88,
      "hit": false,
      "t": 162333.58281249995,
      "d": 31.988125000003492,
      "v": 65
    },
    {
      "midi": 59,
      "hit": false,
      "t": 162519.3600000001,
      "d": 2594.7290625000023,
      "v": 100
    },
    {
      "midi": 62,
      "hit": false,
      "t": 162519.3600000001,
      "d": 2594.7290625000023,
      "v": 100
    },
    {
      "midi": 66,
      "hit": false,
      "t": 162519.3600000001,
      "d": 2594.7290625000023,
      "v": 100
    },
    {
      "midi": 69,
      "hit": false,
      "t": 162519.3600000001,
      "d": 2594.7290625000023,
      "v": 100
    },
    {
      "midi": 76,
      "hit": false,
      "t": 165354.00000000012,
      "d": 941.1890624999942,
      "v": 110
    },
    {
      "midi": 61,
      "hit": false,
      "t": 166298.88000000012,
      "d": 3421.499062499992,
      "v": 100
    },
    {
      "midi": 64,
      "hit": false,
      "t": 166298.88000000012,
      "d": 3421.499062499992,
      "v": 100
    },
    {
      "midi": 68,
      "hit": false,
      "t": 166298.88000000012,
      "d": 3421.499062499992,
      "v": 100
    },
    {
      "midi": 71,
      "hit": false,
      "t": 166298.88000000012,
      "d": 3421.499062499992,
      "v": 100
    },
    {
      "midi": 59,
      "hit": false,
      "t": 170078.4000000001,
      "d": 2594.7290625000023,
      "v": 100
    },
    {
      "midi": 62,
      "hit": false,
      "t": 170078.4000000001,
      "d": 2594.7290625000023,
      "v": 100
    },
    {
      "midi": 66,
      "hit": false,
      "t": 170078.4000000001,
      "d": 2594.7290625000023,
      "v": 100
    },
    {
      "midi": 69,
      "hit": false,
      "t": 170078.4000000001,
      "d": 2594.7290625000023,
      "v": 100
    },
    {
      "midi": 76,
      "hit": false,
      "t": 172913.04000000012,
      "d": 941.1890624999942,
      "v": 110
    },
    {
      "midi": 61,
      "hit": false,
      "t": 173857.92000000013,
      "d": 3421.499062499992,
      "v": 100
    },
    {
      "midi": 64,
      "hit": false,
      "t": 173857.92000000013,
      "d": 3421.499062499992,
      "v": 100
    },
    {
      "midi": 68,
      "hit": false,
      "t": 173857.92000000013,
      "d": 3421.499062499992,
      "v": 100
    },
    {
      "midi": 71,
      "hit": false,
      "t": 173857.92000000013,
      "d": 3421.499062499992,
      "v": 100
    },
    {
      "midi": 59,
      "hit": false,
      "t": 177637.44000000012,
      "d": 2594.7290625000023,
      "v": 100
    },
    {
      "midi": 62,
      "hit": false,
      "t": 177637.44000000012,
      "d": 2594.7290625000023,
      "v": 100
    },
    {
      "midi": 66,
      "hit": false,
      "t": 177637.44000000012,
      "d": 2594.7290625000023,
      "v": 100
    },
    {
      "midi": 69,
      "hit": false,
      "t": 177637.44000000012,
      "d": 2594.7290625000023,
      "v": 100
    },
    {
      "midi": 76,
      "hit": false,
      "t": 180472.08000000013,
      "d": 941.1890624999942,
      "v": 110
    },
    {
      "midi": 61,
      "hit": false,
      "t": 181416.96000000014,
      "d": 3421.499062499992,
      "v": 100
    },
    {
      "midi": 64,
      "hit": false,
      "t": 181416.96000000014,
      "d": 3421.499062499992,
      "v": 100
    },
    {
      "midi": 68,
      "hit": false,
      "t": 181416.96000000014,
      "d": 3421.499062499992,
      "v": 100
    },
    {
      "midi": 71,
      "hit": false,
      "t": 181416.96000000014,
      "d": 3421.499062499992,
      "v": 100
    },
    {
      "midi": 59,
      "hit": false,
      "t": 185196.48000000013,
      "d": 2594.7290625000023,
      "v": 100
    },
    {
      "midi": 62,
      "hit": false,
      "t": 185196.48000000013,
      "d": 2594.7290625000023,
      "v": 100
    },
    {
      "midi": 66,
      "hit": false,
      "t": 185196.48000000013,
      "d": 2594.7290625000023,
      "v": 100
    },
    {
      "midi": 69,
      "hit": false,
      "t": 185196.48000000013,
      "d": 2594.7290625000023,
      "v": 100
    },
    {
      "midi": 76,
      "hit": false,
      "t": 188031.12000000014,
      "d": 941.1890624999942,
      "v": 110
    },
    {
      "midi": 61,
      "hit": false,
      "t": 188976.00000000015,
      "d": 3421.499062499992,
      "v": 100
    },
    {
      "midi": 64,
      "hit": false,
      "t": 188976.00000000015,
      "d": 3421.499062499992,
      "v": 100
    },
    {
      "midi": 68,
      "hit": false,
      "t": 188976.00000000015,
      "d": 3421.499062499992,
      "v": 100
    },
    {
      "midi": 71,
      "hit": false,
      "t": 188976.00000000015,
      "d": 3421.499062499992,
      "v": 100
    },
    {
      "midi": 105,
      "hit": false,
      "t": 191404.63687499997,
      "d": 20.915312500001164,
      "v": 65
    },
    {
      "midi": 103,
      "hit": false,
      "t": 191415.70968749997,
      "d": 27.066874999989523,
      "v": 65
    },
    {
      "midi": 101,
      "hit": false,
      "t": 191445.23718749997,
      "d": 27.066874999989523,
      "v": 65
    },
    {
      "midi": 100,
      "hit": false,
      "t": 191475.99499999997,
      "d": 23.37593750000815,
      "v": 65
    },
    {
      "midi": 98,
      "hit": false,
      "t": 191507.98312499997,
      "d": 27.066874999989523,
      "v": 65
    },
    {
      "midi": 96,
      "hit": false,
      "t": 191538.74093749997,
      "d": 27.066874999989523,
      "v": 65
    },
    {
      "midi": 95,
      "hit": false,
      "t": 191564.57749999996,
      "d": 22.145625000004657,
      "v": 65
    },
    {
      "midi": 93,
      "hit": false,
      "t": 191587.95343749996,
      "d": 31.988125000003492,
      "v": 65
    },
    {
      "midi": 91,
      "hit": false,
      "t": 191626.09312499996,
      "d": 30.7578125,
      "v": 65
    },
    {
      "midi": 105,
      "hit": false,
      "t": 191793.41562499997,
      "d": 27.066874999989523,
      "v": 65
    },
    {
      "midi": 103,
      "hit": false,
      "t": 191793.41562499997,
      "d": 67.66718749998836,
      "v": 65
    },
    {
      "midi": 101,
      "hit": false,
      "t": 191842.62812499996,
      "d": 40.600312499998836,
      "v": 65
    },
    {
      "midi": 100,
      "hit": false,
      "t": 191878.30718749994,
      "d": 29.52750000002561,
      "v": 65
    },
    {
      "midi": 98,
      "hit": false,
      "t": 191912.75593749998,
      "d": 24.60625000001164,
      "v": 65
    },
    {
      "midi": 96,
      "hit": false,
      "t": 191945.974375,
      "d": 25.83656249998603,
      "v": 65
    },
    {
      "midi": 95,
      "hit": false,
      "t": 191976.7321875,
      "d": 25.83656249998603,
      "v": 65
    },
    {
      "midi": 93,
      "hit": false,
      "t": 192006.2596875,
      "d": 24.60625000001164,
      "v": 65
    },
    {
      "midi": 91,
      "hit": false,
      "t": 192032.09625,
      "d": 25.83656249998603,
      "v": 65
    },
    {
      "midi": 89,
      "hit": false,
      "t": 192060.3934375,
      "d": 20.915312500001164,
      "v": 65
    },
    {
      "midi": 88,
      "hit": false,
      "t": 192097.30281249998,
      "d": 31.988125000003492,
      "v": 65
    },
    {
      "midi": 103,
      "hit": false,
      "t": 192296.6134375,
      "d": 55.36406249998254,
      "v": 65
    },
    {
      "midi": 101,
      "hit": false,
      "t": 192333.52281249998,
      "d": 29.527499999996508,
      "v": 65
    },
    {
      "midi": 100,
      "hit": false,
      "t": 192369.20187499997,
      "d": 23.37593750000815,
      "v": 65
    },
    {
      "midi": 98,
      "hit": false,
      "t": 192401.18999999997,
      "d": 27.066874999989523,
      "v": 65
    },
    {
      "midi": 96,
      "hit": false,
      "t": 192436.86906249996,
      "d": 31.988125000003492,
      "v": 65
    },
    {
      "midi": 95,
      "hit": false,
      "t": 192468.85718749996,
      "d": 27.066874999989523,
      "v": 65
    },
    {
      "midi": 93,
      "hit": false,
      "t": 192489.77249999996,
      "d": 28.297187499993015,
      "v": 65
    },
    {
      "midi": 91,
      "hit": false,
      "t": 192516.83937499995,
      "d": 27.066874999989523,
      "v": 65
    },
    {
      "midi": 89,
      "hit": false,
      "t": 192543.90624999994,
      "d": 28.297187499993015,
      "v": 65
    },
    {
      "midi": 88,
      "hit": false,
      "t": 192569.74281249993,
      "d": 31.988125000003492,
      "v": 65
    },
    {
      "midi": 59,
      "hit": false,
      "t": 192755.52000000014,
      "d": 2594.7290625000023,
      "v": 100
    },
    {
      "midi": 62,
      "hit": false,
      "t": 192755.52000000014,
      "d": 2594.7290625000023,
      "v": 100
    },
    {
      "midi": 66,
      "hit": false,
      "t": 192755.52000000014,
      "d": 2594.7290625000023,
      "v": 100
    },
    {
      "midi": 69,
      "hit": false,
      "t": 192755.52000000014,
      "d": 2594.7290625000023,
      "v": 100
    },
    {
      "midi": 59,
      "hit": false,
      "t": 193464.17999999993,
      "d": 114.41906250000466,
      "v": 85
    },
    {
      "midi": 62,
      "hit": false,
      "t": 193464.17999999993,
      "d": 114.41906250000466,
      "v": 85
    },
    {
      "midi": 66,
      "hit": false,
      "t": 193464.17999999993,
      "d": 114.41906250000466,
      "v": 85
    },
    {
      "midi": 69,
      "hit": false,
      "t": 193464.17999999993,
      "d": 114.41906250000466,
      "v": 85
    },
    {
      "midi": 59,
      "hit": false,
      "t": 193700.39999999994,
      "d": 114.41906250000466,
      "v": 85
    },
    {
      "midi": 62,
      "hit": false,
      "t": 193700.39999999994,
      "d": 114.41906250000466,
      "v": 85
    },
    {
      "midi": 66,
      "hit": false,
      "t": 193700.39999999994,
      "d": 114.41906250000466,
      "v": 85
    },
    {
      "midi": 69,
      "hit": false,
      "t": 193700.39999999994,
      "d": 114.41906250000466,
      "v": 85
    },
    {
      "midi": 59,
      "hit": false,
      "t": 194054.72999999995,
      "d": 114.41906250000466,
      "v": 85
    },
    {
      "midi": 62,
      "hit": false,
      "t": 194054.72999999995,
      "d": 114.41906250000466,
      "v": 85
    },
    {
      "midi": 66,
      "hit": false,
      "t": 194054.72999999995,
      "d": 114.41906250000466,
      "v": 85
    },
    {
      "midi": 69,
      "hit": false,
      "t": 194054.72999999995,
      "d": 114.41906250000466,
      "v": 85
    },
    {
      "midi": 59,
      "hit": false,
      "t": 194409.05999999997,
      "d": 114.41906250000466,
      "v": 85
    },
    {
      "midi": 62,
      "hit": false,
      "t": 194409.05999999997,
      "d": 114.41906250000466,
      "v": 85
    },
    {
      "midi": 66,
      "hit": false,
      "t": 194409.05999999997,
      "d": 114.41906250000466,
      "v": 85
    },
    {
      "midi": 69,
      "hit": false,
      "t": 194409.05999999997,
      "d": 114.41906250000466,
      "v": 85
    },
    {
      "midi": 59,
      "hit": false,
      "t": 195353.93999999997,
      "d": 114.41906250000466,
      "v": 85
    },
    {
      "midi": 62,
      "hit": false,
      "t": 195353.93999999997,
      "d": 114.41906250000466,
      "v": 85
    },
    {
      "midi": 66,
      "hit": false,
      "t": 195353.93999999997,
      "d": 114.41906250000466,
      "v": 85
    },
    {
      "midi": 69,
      "hit": false,
      "t": 195353.93999999997,
      "d": 114.41906250000466,
      "v": 85
    },
    {
      "midi": 59,
      "hit": false,
      "t": 195590.15999999997,
      "d": 114.41906250000466,
      "v": 85
    },
    {
      "midi": 62,
      "hit": false,
      "t": 195590.15999999997,
      "d": 114.41906250000466,
      "v": 85
    },
    {
      "midi": 66,
      "hit": false,
      "t": 195590.15999999997,
      "d": 114.41906250000466,
      "v": 85
    },
    {
      "midi": 69,
      "hit": false,
      "t": 195590.15999999997,
      "d": 114.41906250000466,
      "v": 85
    },
    {
      "midi": 76,
      "hit": false,
      "t": 195590.16000000015,
      "d": 941.1890624999942,
      "v": 110
    },
    {
      "midi": 59,
      "hit": false,
      "t": 195944.49,
      "d": 114.41906250000466,
      "v": 85
    },
    {
      "midi": 62,
      "hit": false,
      "t": 195944.49,
      "d": 114.41906250000466,
      "v": 85
    },
    {
      "midi": 66,
      "hit": false,
      "t": 195944.49,
      "d": 114.41906250000466,
      "v": 85
    },
    {
      "midi": 69,
      "hit": false,
      "t": 195944.49,
      "d": 114.41906250000466,
      "v": 85
    },
    {
      "midi": 59,
      "hit": false,
      "t": 196298.82,
      "d": 114.41906250000466,
      "v": 85
    },
    {
      "midi": 62,
      "hit": false,
      "t": 196298.82,
      "d": 114.41906250000466,
      "v": 85
    },
    {
      "midi": 66,
      "hit": false,
      "t": 196298.82,
      "d": 114.41906250000466,
      "v": 85
    },
    {
      "midi": 69,
      "hit": false,
      "t": 196298.82,
      "d": 114.41906250000466,
      "v": 85
    },
    {
      "midi": 61,
      "hit": false,
      "t": 196535.04000000015,
      "d": 3421.499062499992,
      "v": 100
    },
    {
      "midi": 64,
      "hit": false,
      "t": 196535.04000000015,
      "d": 3421.499062499992,
      "v": 100
    },
    {
      "midi": 68,
      "hit": false,
      "t": 196535.04000000015,
      "d": 3421.499062499992,
      "v": 100
    },
    {
      "midi": 71,
      "hit": false,
      "t": 196535.04000000015,
      "d": 3421.499062499992,
      "v": 100
    },
    {
      "midi": 61,
      "hit": false,
      "t": 197243.7,
      "d": 114.41906250000466,
      "v": 85
    },
    {
      "midi": 64,
      "hit": false,
      "t": 197243.7,
      "d": 114.41906250000466,
      "v": 85
    },
    {
      "midi": 68,
      "hit": false,
      "t": 197243.7,
      "d": 114.41906250000466,
      "v": 85
    },
    {
      "midi": 71,
      "hit": false,
      "t": 197243.7,
      "d": 114.41906250000466,
      "v": 85
    },
    {
      "midi": 61,
      "hit": false,
      "t": 197479.92,
      "d": 114.41906250000466,
      "v": 85
    },
    {
      "midi": 64,
      "hit": false,
      "t": 197479.92,
      "d": 114.41906250000466,
      "v": 85
    },
    {
      "midi": 68,
      "hit": false,
      "t": 197479.92,
      "d": 114.41906250000466,
      "v": 85
    },
    {
      "midi": 71,
      "hit": false,
      "t": 197479.92,
      "d": 114.41906250000466,
      "v": 85
    },
    {
      "midi": 61,
      "hit": false,
      "t": 197834.25000000003,
      "d": 114.41906250000466,
      "v": 85
    },
    {
      "midi": 64,
      "hit": false,
      "t": 197834.25000000003,
      "d": 114.41906250000466,
      "v": 85
    },
    {
      "midi": 68,
      "hit": false,
      "t": 197834.25000000003,
      "d": 114.41906250000466,
      "v": 85
    },
    {
      "midi": 71,
      "hit": false,
      "t": 197834.25000000003,
      "d": 114.41906250000466,
      "v": 85
    },
    {
      "midi": 61,
      "hit": false,
      "t": 198188.58000000005,
      "d": 114.41906250000466,
      "v": 85
    },
    {
      "midi": 64,
      "hit": false,
      "t": 198188.58000000005,
      "d": 114.41906250000466,
      "v": 85
    },
    {
      "midi": 68,
      "hit": false,
      "t": 198188.58000000005,
      "d": 114.41906250000466,
      "v": 85
    },
    {
      "midi": 71,
      "hit": false,
      "t": 198188.58000000005,
      "d": 114.41906250000466,
      "v": 85
    },
    {
      "midi": 61,
      "hit": false,
      "t": 199133.46000000005,
      "d": 114.41906250000466,
      "v": 85
    },
    {
      "midi": 64,
      "hit": false,
      "t": 199133.46000000005,
      "d": 114.41906250000466,
      "v": 85
    },
    {
      "midi": 68,
      "hit": false,
      "t": 199133.46000000005,
      "d": 114.41906250000466,
      "v": 85
    },
    {
      "midi": 71,
      "hit": false,
      "t": 199133.46000000005,
      "d": 114.41906250000466,
      "v": 85
    },
    {
      "midi": 61,
      "hit": false,
      "t": 199369.68000000005,
      "d": 114.41906250000466,
      "v": 85
    },
    {
      "midi": 64,
      "hit": false,
      "t": 199369.68000000005,
      "d": 114.41906250000466,
      "v": 85
    },
    {
      "midi": 68,
      "hit": false,
      "t": 199369.68000000005,
      "d": 114.41906250000466,
      "v": 85
    },
    {
      "midi": 71,
      "hit": false,
      "t": 199369.68000000005,
      "d": 114.41906250000466,
      "v": 85
    },
    {
      "midi": 61,
      "hit": false,
      "t": 199724.01000000007,
      "d": 114.41906250000466,
      "v": 85
    },
    {
      "midi": 64,
      "hit": false,
      "t": 199724.01000000007,
      "d": 114.41906250000466,
      "v": 85
    },
    {
      "midi": 68,
      "hit": false,
      "t": 199724.01000000007,
      "d": 114.41906250000466,
      "v": 85
    },
    {
      "midi": 71,
      "hit": false,
      "t": 199724.01000000007,
      "d": 114.41906250000466,
      "v": 85
    },
    {
      "midi": 61,
      "hit": false,
      "t": 200078.34000000008,
      "d": 114.41906250000466,
      "v": 85
    },
    {
      "midi": 64,
      "hit": false,
      "t": 200078.34000000008,
      "d": 114.41906250000466,
      "v": 85
    },
    {
      "midi": 68,
      "hit": false,
      "t": 200078.34000000008,
      "d": 114.41906250000466,
      "v": 85
    },
    {
      "midi": 71,
      "hit": false,
      "t": 200078.34000000008,
      "d": 114.41906250000466,
      "v": 85
    },
    {
      "midi": 59,
      "hit": false,
      "t": 200314.56000000014,
      "d": 2594.7290625000023,
      "v": 100
    },
    {
      "midi": 62,
      "hit": false,
      "t": 200314.56000000014,
      "d": 2594.7290625000023,
      "v": 100
    },
    {
      "midi": 66,
      "hit": false,
      "t": 200314.56000000014,
      "d": 2594.7290625000023,
      "v": 100
    },
    {
      "midi": 69,
      "hit": false,
      "t": 200314.56000000014,
      "d": 2594.7290625000023,
      "v": 100
    },
    {
      "midi": 59,
      "hit": false,
      "t": 201023.2200000001,
      "d": 114.41906250000466,
      "v": 85
    },
    {
      "midi": 62,
      "hit": false,
      "t": 201023.2200000001,
      "d": 114.41906250000466,
      "v": 85
    },
    {
      "midi": 66,
      "hit": false,
      "t": 201023.2200000001,
      "d": 114.41906250000466,
      "v": 85
    },
    {
      "midi": 69,
      "hit": false,
      "t": 201023.2200000001,
      "d": 114.41906250000466,
      "v": 85
    },
    {
      "midi": 59,
      "hit": false,
      "t": 201259.4400000001,
      "d": 114.41906250000466,
      "v": 85
    },
    {
      "midi": 62,
      "hit": false,
      "t": 201259.4400000001,
      "d": 114.41906250000466,
      "v": 85
    },
    {
      "midi": 66,
      "hit": false,
      "t": 201259.4400000001,
      "d": 114.41906250000466,
      "v": 85
    },
    {
      "midi": 69,
      "hit": false,
      "t": 201259.4400000001,
      "d": 114.41906250000466,
      "v": 85
    },
    {
      "midi": 59,
      "hit": false,
      "t": 201613.7700000001,
      "d": 114.41906250000466,
      "v": 85
    },
    {
      "midi": 62,
      "hit": false,
      "t": 201613.7700000001,
      "d": 114.41906250000466,
      "v": 85
    },
    {
      "midi": 66,
      "hit": false,
      "t": 201613.7700000001,
      "d": 114.41906250000466,
      "v": 85
    },
    {
      "midi": 69,
      "hit": false,
      "t": 201613.7700000001,
      "d": 114.41906250000466,
      "v": 85
    },
    {
      "midi": 59,
      "hit": false,
      "t": 201968.10000000012,
      "d": 114.41906250000466,
      "v": 85
    },
    {
      "midi": 62,
      "hit": false,
      "t": 201968.10000000012,
      "d": 114.41906250000466,
      "v": 85
    },
    {
      "midi": 66,
      "hit": false,
      "t": 201968.10000000012,
      "d": 114.41906250000466,
      "v": 85
    },
    {
      "midi": 69,
      "hit": false,
      "t": 201968.10000000012,
      "d": 114.41906250000466,
      "v": 85
    },
    {
      "midi": 59,
      "hit": false,
      "t": 202912.98000000013,
      "d": 114.41906250000466,
      "v": 85
    },
    {
      "midi": 62,
      "hit": false,
      "t": 202912.98000000013,
      "d": 114.41906250000466,
      "v": 85
    },
    {
      "midi": 66,
      "hit": false,
      "t": 202912.98000000013,
      "d": 114.41906250000466,
      "v": 85
    },
    {
      "midi": 69,
      "hit": false,
      "t": 202912.98000000013,
      "d": 114.41906250000466,
      "v": 85
    },
    {
      "midi": 59,
      "hit": false,
      "t": 203149.20000000013,
      "d": 114.41906250000466,
      "v": 85
    },
    {
      "midi": 62,
      "hit": false,
      "t": 203149.20000000013,
      "d": 114.41906250000466,
      "v": 85
    },
    {
      "midi": 66,
      "hit": false,
      "t": 203149.20000000013,
      "d": 114.41906250000466,
      "v": 85
    },
    {
      "midi": 69,
      "hit": false,
      "t": 203149.20000000013,
      "d": 114.41906250000466,
      "v": 85
    },
    {
      "midi": 76,
      "hit": false,
      "t": 203149.20000000016,
      "d": 941.1890624999942,
      "v": 110
    },
    {
      "midi": 59,
      "hit": false,
      "t": 203503.53000000014,
      "d": 114.41906250000466,
      "v": 85
    },
    {
      "midi": 62,
      "hit": false,
      "t": 203503.53000000014,
      "d": 114.41906250000466,
      "v": 85
    },
    {
      "midi": 66,
      "hit": false,
      "t": 203503.53000000014,
      "d": 114.41906250000466,
      "v": 85
    },
    {
      "midi": 69,
      "hit": false,
      "t": 203503.53000000014,
      "d": 114.41906250000466,
      "v": 85
    },
    {
      "midi": 59,
      "hit": false,
      "t": 203857.86000000016,
      "d": 114.41906250000466,
      "v": 85
    },
    {
      "midi": 62,
      "hit": false,
      "t": 203857.86000000016,
      "d": 114.41906250000466,
      "v": 85
    },
    {
      "midi": 66,
      "hit": false,
      "t": 203857.86000000016,
      "d": 114.41906250000466,
      "v": 85
    },
    {
      "midi": 69,
      "hit": false,
      "t": 203857.86000000016,
      "d": 114.41906250000466,
      "v": 85
    },
    {
      "midi": 61,
      "hit": false,
      "t": 204094.08000000016,
      "d": 3421.499062499992,
      "v": 100
    },
    {
      "midi": 64,
      "hit": false,
      "t": 204094.08000000016,
      "d": 3421.499062499992,
      "v": 100
    },
    {
      "midi": 68,
      "hit": false,
      "t": 204094.08000000016,
      "d": 3421.499062499992,
      "v": 100
    },
    {
      "midi": 71,
      "hit": false,
      "t": 204094.08000000016,
      "d": 3421.499062499992,
      "v": 100
    },
    {
      "midi": 61,
      "hit": false,
      "t": 204802.74000000017,
      "d": 114.41906250000466,
      "v": 85
    },
    {
      "midi": 64,
      "hit": false,
      "t": 204802.74000000017,
      "d": 114.41906250000466,
      "v": 85
    },
    {
      "midi": 68,
      "hit": false,
      "t": 204802.74000000017,
      "d": 114.41906250000466,
      "v": 85
    },
    {
      "midi": 71,
      "hit": false,
      "t": 204802.74000000017,
      "d": 114.41906250000466,
      "v": 85
    },
    {
      "midi": 61,
      "hit": false,
      "t": 205038.96000000017,
      "d": 114.41906250000466,
      "v": 85
    },
    {
      "midi": 64,
      "hit": false,
      "t": 205038.96000000017,
      "d": 114.41906250000466,
      "v": 85
    },
    {
      "midi": 68,
      "hit": false,
      "t": 205038.96000000017,
      "d": 114.41906250000466,
      "v": 85
    },
    {
      "midi": 71,
      "hit": false,
      "t": 205038.96000000017,
      "d": 114.41906250000466,
      "v": 85
    },
    {
      "midi": 61,
      "hit": false,
      "t": 205393.29000000018,
      "d": 114.41906250000466,
      "v": 85
    },
    {
      "midi": 64,
      "hit": false,
      "t": 205393.29000000018,
      "d": 114.41906250000466,
      "v": 85
    },
    {
      "midi": 68,
      "hit": false,
      "t": 205393.29000000018,
      "d": 114.41906250000466,
      "v": 85
    },
    {
      "midi": 71,
      "hit": false,
      "t": 205393.29000000018,
      "d": 114.41906250000466,
      "v": 85
    },
    {
      "midi": 61,
      "hit": false,
      "t": 205747.6200000002,
      "d": 114.41906250000466,
      "v": 85
    },
    {
      "midi": 64,
      "hit": false,
      "t": 205747.6200000002,
      "d": 114.41906250000466,
      "v": 85
    },
    {
      "midi": 68,
      "hit": false,
      "t": 205747.6200000002,
      "d": 114.41906250000466,
      "v": 85
    },
    {
      "midi": 71,
      "hit": false,
      "t": 205747.6200000002,
      "d": 114.41906250000466,
      "v": 85
    },
    {
      "midi": 78,
      "hit": false,
      "t": 206220.0600000002,
      "d": 67.66718749998836,
      "v": 85
    },
    {
      "midi": 90,
      "hit": false,
      "t": 206220.0600000002,
      "d": 71.35812499999884,
      "v": 85
    },
    {
      "midi": 78,
      "hit": false,
      "t": 206338.1700000002,
      "d": 71.35812499999884,
      "v": 85
    },
    {
      "midi": 90,
      "hit": false,
      "t": 206338.1700000002,
      "d": 84.89156250000815,
      "v": 85
    },
    {
      "midi": 78,
      "hit": false,
      "t": 206574.3900000002,
      "d": 73.81875000000582,
      "v": 85
    },
    {
      "midi": 90,
      "hit": false,
      "t": 206574.3900000002,
      "d": 89.81281249999302,
      "v": 85
    },
    {
      "midi": 61,
      "hit": false,
      "t": 206692.50000000017,
      "d": 114.41906250000466,
      "v": 85
    },
    {
      "midi": 64,
      "hit": false,
      "t": 206692.50000000017,
      "d": 114.41906250000466,
      "v": 85
    },
    {
      "midi": 68,
      "hit": false,
      "t": 206692.50000000017,
      "d": 114.41906250000466,
      "v": 85
    },
    {
      "midi": 71,
      "hit": false,
      "t": 206692.50000000017,
      "d": 114.41906250000466,
      "v": 85
    },
    {
      "midi": 78,
      "hit": false,
      "t": 206810.6100000002,
      "d": 47.98218749999069,
      "v": 85
    },
    {
      "midi": 90,
      "hit": false,
      "t": 206810.6100000002,
      "d": 50.44281249999767,
      "v": 85
    },
    {
      "midi": 90,
      "hit": false,
      "t": 206928.72000000018,
      "d": 88.58249999998952,
      "v": 85
    },
    {
      "midi": 78,
      "hit": false,
      "t": 206928.72000000018,
      "d": 94.73406249997788,
      "v": 85
    },
    {
      "midi": 61,
      "hit": false,
      "t": 206928.72000000018,
      "d": 114.41906249997555,
      "v": 85
    },
    {
      "midi": 64,
      "hit": false,
      "t": 206928.72000000018,
      "d": 114.41906249997555,
      "v": 85
    },
    {
      "midi": 68,
      "hit": false,
      "t": 206928.72000000018,
      "d": 114.41906249997555,
      "v": 85
    },
    {
      "midi": 71,
      "hit": false,
      "t": 206928.72000000018,
      "d": 114.41906249997555,
      "v": 85
    },
    {
      "midi": 78,
      "hit": false,
      "t": 207283.05000000016,
      "d": 79.97031249999418,
      "v": 85
    },
    {
      "midi": 90,
      "hit": false,
      "t": 207283.05000000016,
      "d": 86.12187499998254,
      "v": 85
    },
    {
      "midi": 61,
      "hit": false,
      "t": 207283.05000000016,
      "d": 114.41906249997555,
      "v": 85
    },
    {
      "midi": 64,
      "hit": false,
      "t": 207283.05000000016,
      "d": 114.41906249997555,
      "v": 85
    },
    {
      "midi": 68,
      "hit": false,
      "t": 207283.05000000016,
      "d": 114.41906249997555,
      "v": 85
    },
    {
      "midi": 71,
      "hit": false,
      "t": 207283.05000000016,
      "d": 114.41906249997555,
      "v": 85
    },
    {
      "midi": 78,
      "hit": false,
      "t": 207519.27000000014,
      "d": 76.2793750000128,
      "v": 85
    },
    {
      "midi": 90,
      "hit": false,
      "t": 207519.27000000014,
      "d": 76.2793750000128,
      "v": 85
    },
    {
      "midi": 61,
      "hit": false,
      "t": 207637.38000000015,
      "d": 114.41906250000466,
      "v": 85
    },
    {
      "midi": 64,
      "hit": false,
      "t": 207637.38000000015,
      "d": 114.41906250000466,
      "v": 85
    },
    {
      "midi": 68,
      "hit": false,
      "t": 207637.38000000015,
      "d": 114.41906250000466,
      "v": 85
    },
    {
      "midi": 71,
      "hit": false,
      "t": 207637.38000000015,
      "d": 114.41906250000466,
      "v": 85
    },
    {
      "midi": 59,
      "hit": false,
      "t": 207873.60000000015,
      "d": 2594.7290625000023,
      "v": 100
    },
    {
      "midi": 62,
      "hit": false,
      "t": 207873.60000000015,
      "d": 2594.7290625000023,
      "v": 100
    },
    {
      "midi": 66,
      "hit": false,
      "t": 207873.60000000015,
      "d": 2594.7290625000023,
      "v": 100
    },
    {
      "midi": 69,
      "hit": false,
      "t": 207873.60000000015,
      "d": 2594.7290625000023,
      "v": 100
    },
    {
      "midi": 59,
      "hit": false,
      "t": 208582.26000000015,
      "d": 114.41906250000466,
      "v": 85
    },
    {
      "midi": 62,
      "hit": false,
      "t": 208582.26000000015,
      "d": 114.41906250000466,
      "v": 85
    },
    {
      "midi": 66,
      "hit": false,
      "t": 208582.26000000015,
      "d": 114.41906250000466,
      "v": 85
    },
    {
      "midi": 69,
      "hit": false,
      "t": 208582.26000000015,
      "d": 114.41906250000466,
      "v": 85
    },
    {
      "midi": 59,
      "hit": false,
      "t": 208818.48000000016,
      "d": 114.41906250000466,
      "v": 85
    },
    {
      "midi": 62,
      "hit": false,
      "t": 208818.48000000016,
      "d": 114.41906250000466,
      "v": 85
    },
    {
      "midi": 66,
      "hit": false,
      "t": 208818.48000000016,
      "d": 114.41906250000466,
      "v": 85
    },
    {
      "midi": 69,
      "hit": false,
      "t": 208818.48000000016,
      "d": 114.41906250000466,
      "v": 85
    },
    {
      "midi": 59,
      "hit": false,
      "t": 209172.81000000017,
      "d": 114.41906250000466,
      "v": 85
    },
    {
      "midi": 62,
      "hit": false,
      "t": 209172.81000000017,
      "d": 114.41906250000466,
      "v": 85
    },
    {
      "midi": 66,
      "hit": false,
      "t": 209172.81000000017,
      "d": 114.41906250000466,
      "v": 85
    },
    {
      "midi": 69,
      "hit": false,
      "t": 209172.81000000017,
      "d": 114.41906250000466,
      "v": 85
    },
    {
      "midi": 59,
      "hit": false,
      "t": 209527.1400000002,
      "d": 114.41906250000466,
      "v": 85
    },
    {
      "midi": 62,
      "hit": false,
      "t": 209527.1400000002,
      "d": 114.41906250000466,
      "v": 85
    },
    {
      "midi": 66,
      "hit": false,
      "t": 209527.1400000002,
      "d": 114.41906250000466,
      "v": 85
    },
    {
      "midi": 69,
      "hit": false,
      "t": 209527.1400000002,
      "d": 114.41906250000466,
      "v": 85
    },
    {
      "midi": 59,
      "hit": false,
      "t": 210472.0200000002,
      "d": 114.41906250000466,
      "v": 85
    },
    {
      "midi": 62,
      "hit": false,
      "t": 210472.0200000002,
      "d": 114.41906250000466,
      "v": 85
    },
    {
      "midi": 66,
      "hit": false,
      "t": 210472.0200000002,
      "d": 114.41906250000466,
      "v": 85
    },
    {
      "midi": 69,
      "hit": false,
      "t": 210472.0200000002,
      "d": 114.41906250000466,
      "v": 85
    },
    {
      "midi": 76,
      "hit": false,
      "t": 210708.24000000017,
      "d": 941.1890624999942,
      "v": 110
    },
    {
      "midi": 59,
      "hit": false,
      "t": 210708.2400000002,
      "d": 114.41906250000466,
      "v": 85
    },
    {
      "midi": 62,
      "hit": false,
      "t": 210708.2400000002,
      "d": 114.41906250000466,
      "v": 85
    },
    {
      "midi": 66,
      "hit": false,
      "t": 210708.2400000002,
      "d": 114.41906250000466,
      "v": 85
    },
    {
      "midi": 69,
      "hit": false,
      "t": 210708.2400000002,
      "d": 114.41906250000466,
      "v": 85
    },
    {
      "midi": 59,
      "hit": false,
      "t": 211062.5700000002,
      "d": 114.41906250000466,
      "v": 85
    },
    {
      "midi": 62,
      "hit": false,
      "t": 211062.5700000002,
      "d": 114.41906250000466,
      "v": 85
    },
    {
      "midi": 66,
      "hit": false,
      "t": 211062.5700000002,
      "d": 114.41906250000466,
      "v": 85
    },
    {
      "midi": 69,
      "hit": false,
      "t": 211062.5700000002,
      "d": 114.41906250000466,
      "v": 85
    },
    {
      "midi": 59,
      "hit": false,
      "t": 211416.90000000023,
      "d": 114.41906250000466,
      "v": 85
    },
    {
      "midi": 62,
      "hit": false,
      "t": 211416.90000000023,
      "d": 114.41906250000466,
      "v": 85
    },
    {
      "midi": 66,
      "hit": false,
      "t": 211416.90000000023,
      "d": 114.41906250000466,
      "v": 85
    },
    {
      "midi": 69,
      "hit": false,
      "t": 211416.90000000023,
      "d": 114.41906250000466,
      "v": 85
    },
    {
      "midi": 61,
      "hit": false,
      "t": 211653.12000000017,
      "d": 3421.499062499992,
      "v": 100
    },
    {
      "midi": 64,
      "hit": false,
      "t": 211653.12000000017,
      "d": 3421.499062499992,
      "v": 100
    },
    {
      "midi": 68,
      "hit": false,
      "t": 211653.12000000017,
      "d": 3421.499062499992,
      "v": 100
    },
    {
      "midi": 71,
      "hit": false,
      "t": 211653.12000000017,
      "d": 3421.499062499992,
      "v": 100
    },
    {
      "midi": 61,
      "hit": false,
      "t": 212361.78000000023,
      "d": 114.41906250000466,
      "v": 85
    },
    {
      "midi": 64,
      "hit": false,
      "t": 212361.78000000023,
      "d": 114.41906250000466,
      "v": 85
    },
    {
      "midi": 68,
      "hit": false,
      "t": 212361.78000000023,
      "d": 114.41906250000466,
      "v": 85
    },
    {
      "midi": 71,
      "hit": false,
      "t": 212361.78000000023,
      "d": 114.41906250000466,
      "v": 85
    },
    {
      "midi": 61,
      "hit": false,
      "t": 212598.00000000023,
      "d": 114.41906250000466,
      "v": 85
    },
    {
      "midi": 64,
      "hit": false,
      "t": 212598.00000000023,
      "d": 114.41906250000466,
      "v": 85
    },
    {
      "midi": 68,
      "hit": false,
      "t": 212598.00000000023,
      "d": 114.41906250000466,
      "v": 85
    },
    {
      "midi": 71,
      "hit": false,
      "t": 212598.00000000023,
      "d": 114.41906250000466,
      "v": 85
    },
    {
      "midi": 61,
      "hit": false,
      "t": 212952.33000000025,
      "d": 114.41906250000466,
      "v": 85
    },
    {
      "midi": 64,
      "hit": false,
      "t": 212952.33000000025,
      "d": 114.41906250000466,
      "v": 85
    },
    {
      "midi": 68,
      "hit": false,
      "t": 212952.33000000025,
      "d": 114.41906250000466,
      "v": 85
    },
    {
      "midi": 71,
      "hit": false,
      "t": 212952.33000000025,
      "d": 114.41906250000466,
      "v": 85
    },
    {
      "midi": 61,
      "hit": false,
      "t": 213306.66000000027,
      "d": 114.41906250000466,
      "v": 85
    },
    {
      "midi": 64,
      "hit": false,
      "t": 213306.66000000027,
      "d": 114.41906250000466,
      "v": 85
    },
    {
      "midi": 68,
      "hit": false,
      "t": 213306.66000000027,
      "d": 114.41906250000466,
      "v": 85
    },
    {
      "midi": 71,
      "hit": false,
      "t": 213306.66000000027,
      "d": 114.41906250000466,
      "v": 85
    },
    {
      "midi": 61,
      "hit": false,
      "t": 214251.54000000027,
      "d": 114.41906250000466,
      "v": 85
    },
    {
      "midi": 64,
      "hit": false,
      "t": 214251.54000000027,
      "d": 114.41906250000466,
      "v": 85
    },
    {
      "midi": 68,
      "hit": false,
      "t": 214251.54000000027,
      "d": 114.41906250000466,
      "v": 85
    },
    {
      "midi": 71,
      "hit": false,
      "t": 214251.54000000027,
      "d": 114.41906250000466,
      "v": 85
    },
    {
      "midi": 61,
      "hit": false,
      "t": 214487.76000000027,
      "d": 114.41906250000466,
      "v": 85
    },
    {
      "midi": 64,
      "hit": false,
      "t": 214487.76000000027,
      "d": 114.41906250000466,
      "v": 85
    },
    {
      "midi": 68,
      "hit": false,
      "t": 214487.76000000027,
      "d": 114.41906250000466,
      "v": 85
    },
    {
      "midi": 71,
      "hit": false,
      "t": 214487.76000000027,
      "d": 114.41906250000466,
      "v": 85
    },
    {
      "midi": 61,
      "hit": false,
      "t": 214842.0900000003,
      "d": 114.41906250000466,
      "v": 85
    },
    {
      "midi": 64,
      "hit": false,
      "t": 214842.0900000003,
      "d": 114.41906250000466,
      "v": 85
    },
    {
      "midi": 68,
      "hit": false,
      "t": 214842.0900000003,
      "d": 114.41906250000466,
      "v": 85
    },
    {
      "midi": 71,
      "hit": false,
      "t": 214842.0900000003,
      "d": 114.41906250000466,
      "v": 85
    },
    {
      "midi": 61,
      "hit": false,
      "t": 215196.4200000003,
      "d": 114.41906250000466,
      "v": 85
    },
    {
      "midi": 64,
      "hit": false,
      "t": 215196.4200000003,
      "d": 114.41906250000466,
      "v": 85
    },
    {
      "midi": 68,
      "hit": false,
      "t": 215196.4200000003,
      "d": 114.41906250000466,
      "v": 85
    },
    {
      "midi": 71,
      "hit": false,
      "t": 215196.4200000003,
      "d": 114.41906250000466,
      "v": 85
    },
    {
      "midi": 59,
      "hit": false,
      "t": 215432.64000000016,
      "d": 2594.7290625000023,
      "v": 100
    },
    {
      "midi": 62,
      "hit": false,
      "t": 215432.64000000016,
      "d": 2594.7290625000023,
      "v": 100
    },
    {
      "midi": 66,
      "hit": false,
      "t": 215432.64000000016,
      "d": 2594.7290625000023,
      "v": 100
    },
    {
      "midi": 69,
      "hit": false,
      "t": 215432.64000000016,
      "d": 2594.7290625000023,
      "v": 100
    },
    {
      "midi": 59,
      "hit": false,
      "t": 216141.3000000003,
      "d": 114.41906250000466,
      "v": 85
    },
    {
      "midi": 62,
      "hit": false,
      "t": 216141.3000000003,
      "d": 114.41906250000466,
      "v": 85
    },
    {
      "midi": 66,
      "hit": false,
      "t": 216141.3000000003,
      "d": 114.41906250000466,
      "v": 85
    },
    {
      "midi": 69,
      "hit": false,
      "t": 216141.3000000003,
      "d": 114.41906250000466,
      "v": 85
    },
    {
      "midi": 59,
      "hit": false,
      "t": 216377.5200000003,
      "d": 114.41906250000466,
      "v": 85
    },
    {
      "midi": 62,
      "hit": false,
      "t": 216377.5200000003,
      "d": 114.41906250000466,
      "v": 85
    },
    {
      "midi": 66,
      "hit": false,
      "t": 216377.5200000003,
      "d": 114.41906250000466,
      "v": 85
    },
    {
      "midi": 69,
      "hit": false,
      "t": 216377.5200000003,
      "d": 114.41906250000466,
      "v": 85
    },
    {
      "midi": 59,
      "hit": false,
      "t": 216731.85000000033,
      "d": 114.41906250000466,
      "v": 85
    },
    {
      "midi": 62,
      "hit": false,
      "t": 216731.85000000033,
      "d": 114.41906250000466,
      "v": 85
    },
    {
      "midi": 66,
      "hit": false,
      "t": 216731.85000000033,
      "d": 114.41906250000466,
      "v": 85
    },
    {
      "midi": 69,
      "hit": false,
      "t": 216731.85000000033,
      "d": 114.41906250000466,
      "v": 85
    },
    {
      "midi": 59,
      "hit": false,
      "t": 217086.18000000034,
      "d": 114.41906250000466,
      "v": 85
    },
    {
      "midi": 62,
      "hit": false,
      "t": 217086.18000000034,
      "d": 114.41906250000466,
      "v": 85
    },
    {
      "midi": 66,
      "hit": false,
      "t": 217086.18000000034,
      "d": 114.41906250000466,
      "v": 85
    },
    {
      "midi": 69,
      "hit": false,
      "t": 217086.18000000034,
      "d": 114.41906250000466,
      "v": 85
    },
    {
      "midi": 59,
      "hit": false,
      "t": 218031.06000000035,
      "d": 114.41906250000466,
      "v": 85
    },
    {
      "midi": 62,
      "hit": false,
      "t": 218031.06000000035,
      "d": 114.41906250000466,
      "v": 85
    },
    {
      "midi": 66,
      "hit": false,
      "t": 218031.06000000035,
      "d": 114.41906250000466,
      "v": 85
    },
    {
      "midi": 69,
      "hit": false,
      "t": 218031.06000000035,
      "d": 114.41906250000466,
      "v": 85
    },
    {
      "midi": 76,
      "hit": false,
      "t": 218267.28000000017,
      "d": 941.1890624999942,
      "v": 110
    },
    {
      "midi": 59,
      "hit": false,
      "t": 218267.28000000035,
      "d": 114.41906250000466,
      "v": 85
    },
    {
      "midi": 62,
      "hit": false,
      "t": 218267.28000000035,
      "d": 114.41906250000466,
      "v": 85
    },
    {
      "midi": 66,
      "hit": false,
      "t": 218267.28000000035,
      "d": 114.41906250000466,
      "v": 85
    },
    {
      "midi": 69,
      "hit": false,
      "t": 218267.28000000035,
      "d": 114.41906250000466,
      "v": 85
    },
    {
      "midi": 59,
      "hit": false,
      "t": 218621.61000000036,
      "d": 114.41906250000466,
      "v": 85
    },
    {
      "midi": 62,
      "hit": false,
      "t": 218621.61000000036,
      "d": 114.41906250000466,
      "v": 85
    },
    {
      "midi": 66,
      "hit": false,
      "t": 218621.61000000036,
      "d": 114.41906250000466,
      "v": 85
    },
    {
      "midi": 69,
      "hit": false,
      "t": 218621.61000000036,
      "d": 114.41906250000466,
      "v": 85
    },
    {
      "midi": 59,
      "hit": false,
      "t": 218975.94000000038,
      "d": 114.41906250000466,
      "v": 85
    },
    {
      "midi": 62,
      "hit": false,
      "t": 218975.94000000038,
      "d": 114.41906250000466,
      "v": 85
    },
    {
      "midi": 66,
      "hit": false,
      "t": 218975.94000000038,
      "d": 114.41906250000466,
      "v": 85
    },
    {
      "midi": 69,
      "hit": false,
      "t": 218975.94000000038,
      "d": 114.41906250000466,
      "v": 85
    },
    {
      "midi": 61,
      "hit": false,
      "t": 219212.16000000018,
      "d": 3421.499062499992,
      "v": 100
    },
    {
      "midi": 64,
      "hit": false,
      "t": 219212.16000000018,
      "d": 3421.499062499992,
      "v": 100
    },
    {
      "midi": 68,
      "hit": false,
      "t": 219212.16000000018,
      "d": 3421.499062499992,
      "v": 100
    },
    {
      "midi": 71,
      "hit": false,
      "t": 219212.16000000018,
      "d": 3421.499062499992,
      "v": 100
    },
    {
      "midi": 61,
      "hit": false,
      "t": 219920.82000000039,
      "d": 114.41906250000466,
      "v": 85
    },
    {
      "midi": 64,
      "hit": false,
      "t": 219920.82000000039,
      "d": 114.41906250000466,
      "v": 85
    },
    {
      "midi": 68,
      "hit": false,
      "t": 219920.82000000039,
      "d": 114.41906250000466,
      "v": 85
    },
    {
      "midi": 71,
      "hit": false,
      "t": 219920.82000000039,
      "d": 114.41906250000466,
      "v": 85
    },
    {
      "midi": 61,
      "hit": false,
      "t": 220157.0400000004,
      "d": 114.41906250000466,
      "v": 85
    },
    {
      "midi": 64,
      "hit": false,
      "t": 220157.0400000004,
      "d": 114.41906250000466,
      "v": 85
    },
    {
      "midi": 68,
      "hit": false,
      "t": 220157.0400000004,
      "d": 114.41906250000466,
      "v": 85
    },
    {
      "midi": 71,
      "hit": false,
      "t": 220157.0400000004,
      "d": 114.41906250000466,
      "v": 85
    },
    {
      "midi": 61,
      "hit": false,
      "t": 220511.3700000004,
      "d": 114.41906250000466,
      "v": 85
    },
    {
      "midi": 64,
      "hit": false,
      "t": 220511.3700000004,
      "d": 114.41906250000466,
      "v": 85
    },
    {
      "midi": 68,
      "hit": false,
      "t": 220511.3700000004,
      "d": 114.41906250000466,
      "v": 85
    },
    {
      "midi": 71,
      "hit": false,
      "t": 220511.3700000004,
      "d": 114.41906250000466,
      "v": 85
    },
    {
      "midi": 61,
      "hit": false,
      "t": 220865.70000000042,
      "d": 114.41906250000466,
      "v": 85
    },
    {
      "midi": 64,
      "hit": false,
      "t": 220865.70000000042,
      "d": 114.41906250000466,
      "v": 85
    },
    {
      "midi": 68,
      "hit": false,
      "t": 220865.70000000042,
      "d": 114.41906250000466,
      "v": 85
    },
    {
      "midi": 71,
      "hit": false,
      "t": 220865.70000000042,
      "d": 114.41906250000466,
      "v": 85
    },
    {
      "midi": 61,
      "hit": false,
      "t": 221810.58000000042,
      "d": 114.41906250000466,
      "v": 85
    },
    {
      "midi": 64,
      "hit": false,
      "t": 221810.58000000042,
      "d": 114.41906250000466,
      "v": 85
    },
    {
      "midi": 68,
      "hit": false,
      "t": 221810.58000000042,
      "d": 114.41906250000466,
      "v": 85
    },
    {
      "midi": 71,
      "hit": false,
      "t": 221810.58000000042,
      "d": 114.41906250000466,
      "v": 85
    },
    {
      "midi": 61,
      "hit": false,
      "t": 222046.80000000042,
      "d": 114.41906250000466,
      "v": 85
    },
    {
      "midi": 64,
      "hit": false,
      "t": 222046.80000000042,
      "d": 114.41906250000466,
      "v": 85
    },
    {
      "midi": 68,
      "hit": false,
      "t": 222046.80000000042,
      "d": 114.41906250000466,
      "v": 85
    },
    {
      "midi": 71,
      "hit": false,
      "t": 222046.80000000042,
      "d": 114.41906250000466,
      "v": 85
    },
    {
      "midi": 61,
      "hit": false,
      "t": 222401.13000000044,
      "d": 114.41906250000466,
      "v": 85
    },
    {
      "midi": 64,
      "hit": false,
      "t": 222401.13000000044,
      "d": 114.41906250000466,
      "v": 85
    },
    {
      "midi": 68,
      "hit": false,
      "t": 222401.13000000044,
      "d": 114.41906250000466,
      "v": 85
    },
    {
      "midi": 71,
      "hit": false,
      "t": 222401.13000000044,
      "d": 114.41906250000466,
      "v": 85
    },
    {
      "midi": 61,
      "hit": false,
      "t": 222755.46000000046,
      "d": 114.41906250000466,
      "v": 85
    },
    {
      "midi": 64,
      "hit": false,
      "t": 222755.46000000046,
      "d": 114.41906250000466,
      "v": 85
    },
    {
      "midi": 68,
      "hit": false,
      "t": 222755.46000000046,
      "d": 114.41906250000466,
      "v": 85
    },
    {
      "midi": 71,
      "hit": false,
      "t": 222755.46000000046,
      "d": 114.41906250000466,
      "v": 85
    },
    {
      "midi": 59,
      "hit": false,
      "t": 222991.68000000017,
      "d": 2594.7290625000023,
      "v": 100
    },
    {
      "midi": 62,
      "hit": false,
      "t": 222991.68000000017,
      "d": 2594.7290625000023,
      "v": 100
    },
    {
      "midi": 66,
      "hit": false,
      "t": 222991.68000000017,
      "d": 2594.7290625000023,
      "v": 100
    },
    {
      "midi": 69,
      "hit": false,
      "t": 222991.68000000017,
      "d": 2594.7290625000023,
      "v": 100
    },
    {
      "midi": 76,
      "hit": false,
      "t": 225826.32000000018,
      "d": 941.1890624999942,
      "v": 110
    },
    {
      "midi": 61,
      "hit": false,
      "t": 226771.2000000002,
      "d": 3421.499062499992,
      "v": 100
    },
    {
      "midi": 64,
      "hit": false,
      "t": 226771.2000000002,
      "d": 3421.499062499992,
      "v": 100
    },
    {
      "midi": 68,
      "hit": false,
      "t": 226771.2000000002,
      "d": 3421.499062499992,
      "v": 100
    },
    {
      "midi": 71,
      "hit": false,
      "t": 226771.2000000002,
      "d": 3421.499062499992,
      "v": 100
    },
    {
      "midi": 59,
      "hit": false,
      "t": 230550.72000000018,
      "d": 2594.7290625000023,
      "v": 100
    },
    {
      "midi": 62,
      "hit": false,
      "t": 230550.72000000018,
      "d": 2594.7290625000023,
      "v": 100
    },
    {
      "midi": 66,
      "hit": false,
      "t": 230550.72000000018,
      "d": 2594.7290625000023,
      "v": 100
    },
    {
      "midi": 69,
      "hit": false,
      "t": 230550.72000000018,
      "d": 2594.7290625000023,
      "v": 100
    },
    {
      "midi": 76,
      "hit": false,
      "t": 233385.3600000002,
      "d": 941.1890624999942,
      "v": 110
    },
    {
      "midi": 61,
      "hit": false,
      "t": 234330.2400000002,
      "d": 3421.499062499992,
      "v": 100
    },
    {
      "midi": 64,
      "hit": false,
      "t": 234330.2400000002,
      "d": 3421.499062499992,
      "v": 100
    },
    {
      "midi": 68,
      "hit": false,
      "t": 234330.2400000002,
      "d": 3421.499062499992,
      "v": 100
    },
    {
      "midi": 71,
      "hit": false,
      "t": 234330.2400000002,
      "d": 3421.499062499992,
      "v": 100
    },
    {
      "midi": 59,
      "hit": false,
      "t": 238109.76000000018,
      "d": 2594.7290625000023,
      "v": 100
    },
    {
      "midi": 62,
      "hit": false,
      "t": 238109.76000000018,
      "d": 2594.7290625000023,
      "v": 100
    },
    {
      "midi": 66,
      "hit": false,
      "t": 238109.76000000018,
      "d": 2594.7290625000023,
      "v": 100
    },
    {
      "midi": 69,
      "hit": false,
      "t": 238109.76000000018,
      "d": 2594.7290625000023,
      "v": 100
    },
    {
      "midi": 76,
      "hit": false,
      "t": 240944.4000000002,
      "d": 941.1890624999942,
      "v": 110
    },
    {
      "midi": 61,
      "hit": false,
      "t": 241889.2800000002,
      "d": 3421.499062500021,
      "v": 100
    },
    {
      "midi": 64,
      "hit": false,
      "t": 241889.2800000002,
      "d": 3421.499062500021,
      "v": 100
    },
    {
      "midi": 68,
      "hit": false,
      "t": 241889.2800000002,
      "d": 3421.499062500021,
      "v": 100
    },
    {
      "midi": 71,
      "hit": false,
      "t": 241889.2800000002,
      "d": 3421.499062500021,
      "v": 100
    },
    {
      "midi": 59,
      "hit": false,
      "t": 245668.80000000022,
      "d": 2594.7290625000023,
      "v": 100
    },
    {
      "midi": 62,
      "hit": false,
      "t": 245668.80000000022,
      "d": 2594.7290625000023,
      "v": 100
    },
    {
      "midi": 66,
      "hit": false,
      "t": 245668.80000000022,
      "d": 2594.7290625000023,
      "v": 100
    },
    {
      "midi": 69,
      "hit": false,
      "t": 245668.80000000022,
      "d": 2594.7290625000023,
      "v": 100
    },
    {
      "midi": 76,
      "hit": false,
      "t": 248503.44000000024,
      "d": 941.1890624999942,
      "v": 110
    },
    {
      "midi": 61,
      "hit": false,
      "t": 249448.32000000024,
      "d": 3421.499062500021,
      "v": 100
    },
    {
      "midi": 64,
      "hit": false,
      "t": 249448.32000000024,
      "d": 3421.499062500021,
      "v": 100
    },
    {
      "midi": 68,
      "hit": false,
      "t": 249448.32000000024,
      "d": 3421.499062500021,
      "v": 100
    },
    {
      "midi": 71,
      "hit": false,
      "t": 249448.32000000024,
      "d": 3421.499062500021,
      "v": 100
    }
  ]
}