{
  "jsonPath": "Soundtracks/Video Game Music/Pokemon Gold Silver/pokemon-gold-silver-route42.json",
  "path": "Soundtracks\\Video Game Music\\Pokemon Gold Silver\\Pokemon_Gold_Silver_Route42.mid",
  "name": "Pokemon_Gold_Silver_Route42",
  "difficulty": "Advanced",
  "bpm": 120,
  "notes": [
    {
      "midi": 55,
      "hit": false,
      "t": 0,
      "d": 373.1341666666667,
      "v": 110
    },
    {
      "midi": 62,
      "hit": false,
      "t": 0,
      "d": 597.0146666666667,
      "v": 110
    },
    {
      "midi": 67,
      "hit": false,
      "t": 0,
      "d": 1679.10375,
      "v": 110
    },
    {
      "midi": 62,
      "hit": false,
      "t": 671.6415000000001,
      "d": 597.0146666666666,
      "v": 110
    },
    {
      "midi": 55,
      "hit": false,
      "t": 671.6415000000001,
      "d": 597.0146666666666,
      "v": 110
    },
    {
      "midi": 54,
      "hit": false,
      "t": 1791.044,
      "d": 373.1341666666665,
      "v": 110
    },
    {
      "midi": 62,
      "hit": false,
      "t": 1791.044,
      "d": 597.0146666666667,
      "v": 110
    },
    {
      "midi": 69,
      "hit": false,
      "t": 1791.044,
      "d": 1679.1037499999995,
      "v": 110
    },
    {
      "midi": 62,
      "hit": false,
      "t": 2462.6855,
      "d": 597.0146666666665,
      "v": 110
    },
    {
      "midi": 54,
      "hit": false,
      "t": 2462.6855,
      "d": 597.0146666666665,
      "v": 110
    },
    {
      "midi": 64,
      "hit": false,
      "t": 3134.3269999999998,
      "d": 373.1341666666667,
      "v": 110
    },
    {
      "midi": 52,
      "hit": false,
      "t": 3134.3269999999998,
      "d": 373.1341666666667,
      "v": 110
    },
    {
      "midi": 50,
      "hit": false,
      "t": 3582.0879999999997,
      "d": 373.1341666666667,
      "v": 110
    },
    {
      "midi": 66,
      "hit": false,
      "t": 3582.0879999999997,
      "d": 597.0146666666669,
      "v": 110
    },
    {
      "midi": 74,
      "hit": false,
      "t": 3582.0879999999997,
      "d": 1226.6785729166659,
      "v": 110
    },
    {
      "midi": 45,
      "hit": false,
      "t": 4029.8489999999997,
      "d": 219.21632291666674,
      "v": 110
    },
    {
      "midi": 50,
      "hit": false,
      "t": 4253.7294999999995,
      "d": 443.0968229166665,
      "v": 110
    },
    {
      "midi": 64,
      "hit": false,
      "t": 4253.7294999999995,
      "d": 597.014666666666,
      "v": 110
    },
    {
      "midi": 45,
      "hit": false,
      "t": 4701.490499999999,
      "d": 219.2163229166663,
      "v": 110
    },
    {
      "midi": 69,
      "hit": false,
      "t": 4813.430749999999,
      "d": 275.1864479166661,
      "v": 110
    },
    {
      "midi": 50,
      "hit": false,
      "t": 4925.370999999998,
      "d": 219.2163229166663,
      "v": 110
    },
    {
      "midi": 62,
      "hit": false,
      "t": 4925.370999999998,
      "d": 373.1341666666658,
      "v": 110
    },
    {
      "midi": 74,
      "hit": false,
      "t": 5093.281374999998,
      "d": 275.1864479166661,
      "v": 110
    },
    {
      "midi": 52,
      "hit": false,
      "t": 5149.251499999998,
      "d": 219.2163229166663,
      "v": 110
    },
    {
      "midi": 53,
      "hit": false,
      "t": 5373.131999999997,
      "d": 373.1341666666667,
      "v": 110
    },
    {
      "midi": 74,
      "hit": false,
      "t": 5373.131999999997,
      "d": 597.0146666666669,
      "v": 110
    },
    {
      "midi": 81,
      "hit": false,
      "t": 5373.131999999997,
      "d": 1226.6785729166659,
      "v": 110
    },
    {
      "midi": 48,
      "hit": false,
      "t": 5820.892999999997,
      "d": 219.2163229166663,
      "v": 110
    },
    {
      "midi": 72,
      "hit": false,
      "t": 6044.773499999997,
      "d": 443.0968229166665,
      "v": 110
    },
    {
      "midi": 53,
      "hit": false,
      "t": 6044.773499999997,
      "d": 443.0968229166665,
      "v": 110
    },
    {
      "midi": 76,
      "hit": false,
      "t": 6492.534499999996,
      "d": 219.2163229166663,
      "v": 110
    },
    {
      "midi": 48,
      "hit": false,
      "t": 6492.534499999996,
      "d": 219.2163229166663,
      "v": 110
    },
    {
      "midi": 84,
      "hit": false,
      "t": 6604.474749999996,
      "d": 275.1864479166661,
      "v": 110
    },
    {
      "midi": 53,
      "hit": false,
      "t": 6716.414999999995,
      "d": 219.2163229166663,
      "v": 110
    },
    {
      "midi": 74,
      "hit": false,
      "t": 6716.414999999995,
      "d": 373.1341666666658,
      "v": 110
    },
    {
      "midi": 83,
      "hit": false,
      "t": 6884.325374999995,
      "d": 275.1864479166661,
      "v": 110
    },
    {
      "midi": 54,
      "hit": false,
      "t": 6940.295499999995,
      "d": 219.2163229166663,
      "v": 110
    },
    {
      "midi": 55,
      "hit": false,
      "t": 7164.175999999994,
      "d": 373.1341666666667,
      "v": 110
    },
    {
      "midi": 71,
      "hit": false,
      "t": 7164.175999999994,
      "d": 597.0146666666669,
      "v": 110
    },
    {
      "midi": 79,
      "hit": false,
      "t": 7164.175999999994,
      "d": 1231.3427500000016,
      "v": 110
    },
    {
      "midi": 50,
      "hit": false,
      "t": 7611.936999999994,
      "d": 219.2163229166663,
      "v": 110
    },
    {
      "midi": 67,
      "hit": false,
      "t": 7835.817499999994,
      "d": 219.2163229166663,
      "v": 110
    },
    {
      "midi": 55,
      "hit": false,
      "t": 7835.817499999994,
      "d": 443.0968229166665,
      "v": 110
    },
    {
      "midi": 62,
      "hit": false,
      "t": 8059.697999999993,
      "d": 331.15657291666867,
      "v": 110
    },
    {
      "midi": 50,
      "hit": false,
      "t": 8283.578499999994,
      "d": 219.21632291666901,
      "v": 110
    },
    {
      "midi": 67,
      "hit": false,
      "t": 8395.518749999996,
      "d": 275.18644791666884,
      "v": 110
    },
    {
      "midi": 55,
      "hit": false,
      "t": 8507.458999999997,
      "d": 219.2163229166672,
      "v": 110
    },
    {
      "midi": 83,
      "hit": false,
      "t": 8507.458999999997,
      "d": 373.13416666666853,
      "v": 110
    },
    {
      "midi": 71,
      "hit": false,
      "t": 8675.369374999998,
      "d": 275.186447916667,
      "v": 110
    },
    {
      "midi": 59,
      "hit": false,
      "t": 8731.339499999998,
      "d": 219.2163229166672,
      "v": 110
    },
    {
      "midi": 57,
      "hit": false,
      "t": 8955.22,
      "d": 219.2163229166672,
      "v": 110
    },
    {
      "midi": 62,
      "hit": false,
      "t": 8955.22,
      "d": 331.15657291666867,
      "v": 110
    },
    {
      "midi": 81,
      "hit": false,
      "t": 8955.22,
      "d": 331.15657291666867,
      "v": 110
    },
    {
      "midi": 50,
      "hit": false,
      "t": 9179.1005,
      "d": 219.21632291666901,
      "v": 110
    },
    {
      "midi": 66,
      "hit": false,
      "t": 9291.040750000002,
      "d": 107.27607291666754,
      "v": 110
    },
    {
      "midi": 79,
      "hit": false,
      "t": 9291.040750000002,
      "d": 107.27607291666754,
      "v": 110
    },
    {
      "midi": 54,
      "hit": false,
      "t": 9402.981000000003,
      "d": 219.2163229166672,
      "v": 110
    },
    {
      "midi": 69,
      "hit": false,
      "t": 9402.981000000003,
      "d": 783.5817500000012,
      "v": 110
    },
    {
      "midi": 78,
      "hit": false,
      "t": 9402.981000000003,
      "d": 3022.3867500000124,
      "v": 110
    },
    {
      "midi": 57,
      "hit": false,
      "t": 9626.861500000005,
      "d": 443.0968229166665,
      "v": 110
    },
    {
      "midi": 50,
      "hit": false,
      "t": 10074.622500000005,
      "d": 219.2163229166672,
      "v": 110
    },
    {
      "midi": 52,
      "hit": false,
      "t": 10298.503000000006,
      "d": 219.2163229166672,
      "v": 110
    },
    {
      "midi": 66,
      "hit": false,
      "t": 10298.503000000006,
      "d": 373.13416666666853,
      "v": 110
    },
    {
      "midi": 54,
      "hit": false,
      "t": 10522.383500000007,
      "d": 219.2163229166672,
      "v": 110
    },
    {
      "midi": 57,
      "hit": false,
      "t": 10746.264000000008,
      "d": 219.2163229166672,
      "v": 110
    },
    {
      "midi": 69,
      "hit": false,
      "t": 10746.264000000008,
      "d": 331.15657291666867,
      "v": 110
    },
    {
      "midi": 54,
      "hit": false,
      "t": 10970.14450000001,
      "d": 219.21632291666901,
      "v": 110
    },
    {
      "midi": 73,
      "hit": false,
      "t": 11082.08475000001,
      "d": 107.27607291666754,
      "v": 110
    },
    {
      "midi": 57,
      "hit": false,
      "t": 11194.025000000012,
      "d": 219.2163229166672,
      "v": 110
    },
    {
      "midi": 74,
      "hit": false,
      "t": 11194.025000000012,
      "d": 1231.3427500000034,
      "v": 110
    },
    {
      "midi": 62,
      "hit": false,
      "t": 11417.905500000013,
      "d": 443.0968229166665,
      "v": 110
    },
    {
      "midi": 57,
      "hit": false,
      "t": 11865.666500000014,
      "d": 219.2163229166672,
      "v": 110
    },
    {
      "midi": 62,
      "hit": false,
      "t": 12089.547000000015,
      "d": 219.2163229166672,
      "v": 110
    },
    {
      "midi": 66,
      "hit": false,
      "t": 12313.427500000016,
      "d": 219.2163229166672,
      "v": 110
    },
    {
      "midi": 60,
      "hit": false,
      "t": 12537.308000000017,
      "d": 331.15657291666685,
      "v": 110
    },
    {
      "midi": 67,
      "hit": false,
      "t": 12537.308000000017,
      "d": 331.15657291666685,
      "v": 110
    },
    {
      "midi": 52,
      "hit": false,
      "t": 12537.308000000017,
      "d": 373.1341666666667,
      "v": 110
    },
    {
      "midi": 59,
      "hit": false,
      "t": 12873.128750000018,
      "d": 275.186447916667,
      "v": 110
    },
    {
      "midi": 66,
      "hit": false,
      "t": 12873.128750000018,
      "d": 275.186447916667,
      "v": 110
    },
    {
      "midi": 48,
      "hit": false,
      "t": 12985.069000000018,
      "d": 219.2163229166672,
      "v": 110
    },
    {
      "midi": 57,
      "hit": false,
      "t": 13152.979375000019,
      "d": 275.186447916667,
      "v": 110
    },
    {
      "midi": 64,
      "hit": false,
      "t": 13152.979375000019,
      "d": 275.186447916667,
      "v": 110
    },
    {
      "midi": 52,
      "hit": false,
      "t": 13208.949500000019,
      "d": 443.0968229166683,
      "v": 110
    },
    {
      "midi": 60,
      "hit": false,
      "t": 13432.83000000002,
      "d": 373.13416666666853,
      "v": 110
    },
    {
      "midi": 57,
      "hit": false,
      "t": 13432.83000000002,
      "d": 783.581750000003,
      "v": 110
    },
    {
      "midi": 48,
      "hit": false,
      "t": 13656.710500000021,
      "d": 219.2163229166672,
      "v": 110
    },
    {
      "midi": 52,
      "hit": false,
      "t": 13880.591000000022,
      "d": 219.2163229166672,
      "v": 110
    },
    {
      "midi": 48,
      "hit": false,
      "t": 14104.471500000023,
      "d": 219.2163229166672,
      "v": 110
    },
    {
      "midi": 55,
      "hit": false,
      "t": 14328.352000000024,
      "d": 373.1341666666667,
      "v": 110
    },
    {
      "midi": 60,
      "hit": false,
      "t": 14328.352000000024,
      "d": 1231.3427500000053,
      "v": 110
    },
    {
      "midi": 72,
      "hit": false,
      "t": 14552.232500000024,
      "d": 107.27607291666754,
      "v": 110
    },
    {
      "midi": 76,
      "hit": false,
      "t": 14664.172750000025,
      "d": 107.27607291666573,
      "v": 110
    },
    {
      "midi": 79,
      "hit": false,
      "t": 14776.113000000025,
      "d": 219.2163229166672,
      "v": 110
    },
    {
      "midi": 48,
      "hit": false,
      "t": 14776.113000000025,
      "d": 219.2163229166672,
      "v": 110
    },
    {
      "midi": 76,
      "hit": false,
      "t": 14999.993500000026,
      "d": 107.27607291666754,
      "v": 110
    },
    {
      "midi": 55,
      "hit": false,
      "t": 14999.993500000026,
      "d": 443.09682291667013,
      "v": 110
    },
    {
      "midi": 79,
      "hit": false,
      "t": 15111.933750000027,
      "d": 107.27607291666754,
      "v": 110
    },
    {
      "midi": 84,
      "hit": false,
      "t": 15223.874000000029,
      "d": 783.581750000003,
      "v": 110
    },
    {
      "midi": 48,
      "hit": false,
      "t": 15447.75450000003,
      "d": 219.2163229166672,
      "v": 110
    },
    {
      "midi": 55,
      "hit": false,
      "t": 15671.635000000031,
      "d": 219.2163229166672,
      "v": 110
    },
    {
      "midi": 64,
      "hit": false,
      "t": 15671.635000000031,
      "d": 373.1341666666667,
      "v": 110
    },
    {
      "midi": 48,
      "hit": false,
      "t": 15895.515500000032,
      "d": 219.21632291666538,
      "v": 110
    },
    {
      "midi": 62,
      "hit": false,
      "t": 16119.396000000032,
      "d": 219.2163229166672,
      "v": 110
    },
    {
      "midi": 54,
      "hit": false,
      "t": 16119.396000000032,
      "d": 373.13416666666853,
      "v": 110
    },
    {
      "midi": 81,
      "hit": false,
      "t": 16343.276500000033,
      "d": 443.0968229166647,
      "v": 110
    },
    {
      "midi": 57,
      "hit": false,
      "t": 16343.276500000033,
      "d": 1007.4622500000005,
      "v": 110
    },
    {
      "midi": 50,
      "hit": false,
      "t": 16567.157000000032,
      "d": 219.21632291666538,
      "v": 110
    },
    {
      "midi": 79,
      "hit": false,
      "t": 16791.03750000003,
      "d": 443.0968229166683,
      "v": 110
    },
    {
      "midi": 54,
      "hit": false,
      "t": 16791.03750000003,
      "d": 443.0968229166683,
      "v": 110
    },
    {
      "midi": 50,
      "hit": false,
      "t": 17238.798500000034,
      "d": 219.21632291666538,
      "v": 110
    },
    {
      "midi": 78,
      "hit": false,
      "t": 17238.798500000034,
      "d": 443.0968229166647,
      "v": 110
    },
    {
      "midi": 54,
      "hit": false,
      "t": 17462.679000000033,
      "d": 219.21632291666538,
      "v": 110
    },
    {
      "midi": 64,
      "hit": false,
      "t": 17462.679000000033,
      "d": 373.1341666666667,
      "v": 110
    },
    {
      "midi": 76,
      "hit": false,
      "t": 17686.559500000032,
      "d": 219.21632291666901,
      "v": 110
    },
    {
      "midi": 50,
      "hit": false,
      "t": 17686.559500000032,
      "d": 219.21632291666901,
      "v": 110
    },
    {
      "midi": 57,
      "hit": false,
      "t": 17910.440000000035,
      "d": 219.21632291666538,
      "v": 110
    },
    {
      "midi": 62,
      "hit": false,
      "t": 17910.440000000035,
      "d": 331.156572916665,
      "v": 110
    },
    {
      "midi": 74,
      "hit": false,
      "t": 17910.440000000035,
      "d": 331.156572916665,
      "v": 110
    },
    {
      "midi": 50,
      "hit": false,
      "t": 18134.320500000034,
      "d": 219.21632291666538,
      "v": 110
    },
    {
      "midi": 64,
      "hit": false,
      "t": 18246.260750000034,
      "d": 107.27607291666573,
      "v": 110
    },
    {
      "midi": 76,
      "hit": false,
      "t": 18246.260750000034,
      "d": 275.1864479166652,
      "v": 110
    },
    {
      "midi": 54,
      "hit": false,
      "t": 18358.201000000034,
      "d": 219.21632291666538,
      "v": 110
    },
    {
      "midi": 66,
      "hit": false,
      "t": 18358.201000000034,
      "d": 783.5817499999976,
      "v": 110
    },
    {
      "midi": 78,
      "hit": false,
      "t": 18526.111375000033,
      "d": 275.1864479166652,
      "v": 110
    },
    {
      "midi": 62,
      "hit": false,
      "t": 18582.081500000033,
      "d": 443.0968229166647,
      "v": 110
    },
    {
      "midi": 81,
      "hit": false,
      "t": 18805.962000000032,
      "d": 783.5817499999976,
      "v": 110
    },
    {
      "midi": 50,
      "hit": false,
      "t": 19029.84250000003,
      "d": 219.21632291666538,
      "v": 110
    },
    {
      "midi": 52,
      "hit": false,
      "t": 19253.72300000003,
      "d": 219.21632291666538,
      "v": 110
    },
    {
      "midi": 62,
      "hit": false,
      "t": 19253.72300000003,
      "d": 666.977322916664,
      "v": 110
    },
    {
      "midi": 54,
      "hit": false,
      "t": 19477.60350000003,
      "d": 219.21632291666538,
      "v": 110
    },
    {
      "midi": 67,
      "hit": false,
      "t": 19701.48400000003,
      "d": 331.156572916665,
      "v": 110
    },
    {
      "midi": 55,
      "hit": false,
      "t": 19701.48400000003,
      "d": 373.1341666666667,
      "v": 110
    },
    {
      "midi": 60,
      "hit": false,
      "t": 19925.36450000003,
      "d": 107.27607291666573,
      "v": 110
    },
    {
      "midi": 64,
      "hit": false,
      "t": 20037.30475000003,
      "d": 107.27607291666936,
      "v": 110
    },
    {
      "midi": 66,
      "hit": false,
      "t": 20037.30475000003,
      "d": 275.18644791666884,
      "v": 110
    },
    {
      "midi": 48,
      "hit": false,
      "t": 20149.24500000003,
      "d": 219.21632291666538,
      "v": 110
    },
    {
      "midi": 60,
      "hit": false,
      "t": 20149.24500000003,
      "d": 783.5817499999976,
      "v": 110
    },
    {
      "midi": 64,
      "hit": false,
      "t": 20317.15537500003,
      "d": 275.1864479166652,
      "v": 110
    },
    {
      "midi": 55,
      "hit": false,
      "t": 20373.12550000003,
      "d": 443.0968229166647,
      "v": 110
    },
    {
      "midi": 72,
      "hit": false,
      "t": 20597.00600000003,
      "d": 331.156572916665,
      "v": 110
    },
    {
      "midi": 48,
      "hit": false,
      "t": 20820.88650000003,
      "d": 219.21632291666538,
      "v": 110
    },
    {
      "midi": 71,
      "hit": false,
      "t": 20932.82675000003,
      "d": 275.1864479166652,
      "v": 110
    },
    {
      "midi": 55,
      "hit": false,
      "t": 21044.76700000003,
      "d": 219.21632291666538,
      "v": 110
    },
    {
      "midi": 64,
      "hit": false,
      "t": 21044.76700000003,
      "d": 666.977322916664,
      "v": 110
    },
    {
      "midi": 69,
      "hit": false,
      "t": 21212.67737500003,
      "d": 275.1864479166652,
      "v": 110
    },
    {
      "midi": 48,
      "hit": false,
      "t": 21268.64750000003,
      "d": 219.21632291666538,
      "v": 110
    },
    {
      "midi": 76,
      "hit": false,
      "t": 21492.528000000028,
      "d": 331.156572916665,
      "v": 110
    },
    {
      "midi": 55,
      "hit": false,
      "t": 21492.528000000028,
      "d": 373.1341666666667,
      "v": 110
    },
    {
      "midi": 64,
      "hit": false,
      "t": 21716.408500000027,
      "d": 107.27607291666573,
      "v": 110
    },
    {
      "midi": 67,
      "hit": false,
      "t": 21828.348750000026,
      "d": 107.27607291666936,
      "v": 110
    },
    {
      "midi": 74,
      "hit": false,
      "t": 21828.348750000026,
      "d": 275.18644791666884,
      "v": 110
    },
    {
      "midi": 48,
      "hit": false,
      "t": 21940.28900000003,
      "d": 219.21632291666538,
      "v": 110
    },
    {
      "midi": 64,
      "hit": false,
      "t": 21940.28900000003,
      "d": 783.5817499999976,
      "v": 110
    },
    {
      "midi": 72,
      "hit": false,
      "t": 22108.19937500003,
      "d": 275.1864479166652,
      "v": 110
    },
    {
      "midi": 55,
      "hit": false,
      "t": 22164.16950000003,
      "d": 443.0968229166647,
      "v": 110
    },
    {
      "midi": 79,
      "hit": false,
      "t": 22388.05000000003,
      "d": 331.156572916665,
      "v": 110
    },
    {
      "midi": 48,
      "hit": false,
      "t": 22611.930500000028,
      "d": 219.21632291666538,
      "v": 110
    },
    {
      "midi": 78,
      "hit": false,
      "t": 22723.870750000027,
      "d": 275.1864479166652,
      "v": 110
    },
    {
      "midi": 55,
      "hit": false,
      "t": 22835.811000000027,
      "d": 219.21632291666538,
      "v": 110
    },
    {
      "midi": 67,
      "hit": false,
      "t": 22835.811000000027,
      "d": 666.977322916664,
      "v": 110
    },
    {
      "midi": 76,
      "hit": false,
      "t": 23003.721375000026,
      "d": 275.1864479166652,
      "v": 110
    },
    {
      "midi": 48,
      "hit": false,
      "t": 23059.691500000026,
      "d": 219.21632291666538,
      "v": 110
    },
    {
      "midi": 54,
      "hit": false,
      "t": 23283.572000000026,
      "d": 373.1341666666667,
      "v": 110
    },
    {
      "midi": 78,
      "hit": false,
      "t": 23283.572000000026,
      "d": 1226.6785729166695,
      "v": 110
    },
    {
      "midi": 66,
      "hit": false,
      "t": 23507.452500000025,
      "d": 107.27607291666573,
      "v": 110
    },
    {
      "midi": 67,
      "hit": false,
      "t": 23619.392750000025,
      "d": 107.27607291666936,
      "v": 110
    },
    {
      "midi": 50,
      "hit": false,
      "t": 23731.333000000028,
      "d": 219.21632291666538,
      "v": 110
    },
    {
      "midi": 69,
      "hit": false,
      "t": 23731.333000000028,
      "d": 1562.4993229166648,
      "v": 110
    },
    {
      "midi": 54,
      "hit": false,
      "t": 23955.213500000027,
      "d": 443.0968229166683,
      "v": 110
    },
    {
      "midi": 50,
      "hit": false,
      "t": 24402.97450000003,
      "d": 219.21632291666538,
      "v": 110
    },
    {
      "midi": 74,
      "hit": false,
      "t": 24514.91475000003,
      "d": 275.1864479166652,
      "v": 110
    },
    {
      "midi": 54,
      "hit": false,
      "t": 24626.85500000003,
      "d": 219.21632291666538,
      "v": 110
    },
    {
      "midi": 78,
      "hit": false,
      "t": 24794.765375000028,
      "d": 275.1864479166652,
      "v": 110
    },
    {
      "midi": 50,
      "hit": false,
      "t": 24850.735500000028,
      "d": 219.21632291666538,
      "v": 110
    },
    {
      "midi": 50,
      "hit": false,
      "t": 25074.616000000027,
      "d": 373.1341666666667,
      "v": 110
    },
    {
      "midi": 81,
      "hit": false,
      "t": 25074.616000000027,
      "d": 1679.103750000002,
      "v": 110
    },
    {
      "midi": 69,
      "hit": false,
      "t": 25298.496500000027,
      "d": 107.27607291666573,
      "v": 110
    },
    {
      "midi": 72,
      "hit": false,
      "t": 25410.436750000026,
      "d": 107.27607291666936,
      "v": 110
    },
    {
      "midi": 45,
      "hit": false,
      "t": 25522.37700000003,
      "d": 219.21632291666538,
      "v": 110
    },
    {
      "midi": 74,
      "hit": false,
      "t": 25522.37700000003,
      "d": 1231.3427499999998,
      "v": 110
    },
    {
      "midi": 50,
      "hit": false,
      "t": 25746.25750000003,
      "d": 443.0968229166683,
      "v": 110
    },
    {
      "midi": 45,
      "hit": false,
      "t": 26194.01850000003,
      "d": 219.21632291666538,
      "v": 110
    },
    {
      "midi": 50,
      "hit": false,
      "t": 26417.89900000003,
      "d": 219.21632291666538,
      "v": 110
    },
    {
      "midi": 45,
      "hit": false,
      "t": 26641.77950000003,
      "d": 219.21632291666538,
      "v": 110
    },
    {
      "midi": 50,
      "hit": false,
      "t": 26865.66000000003,
      "d": 373.1341666666667,
      "v": 110
    },
    {
      "midi": 78,
      "hit": false,
      "t": 26865.66000000003,
      "d": 597.014666666666,
      "v": 110
    },
    {
      "midi": 74,
      "hit": false,
      "t": 26865.66000000003,
      "d": 1226.6785729166695,
      "v": 110
    },
    {
      "midi": 45,
      "hit": false,
      "t": 27313.421000000028,
      "d": 219.21632291666901,
      "v": 110
    },
    {
      "midi": 50,
      "hit": false,
      "t": 27537.30150000003,
      "d": 443.0968229166683,
      "v": 110
    },
    {
      "midi": 76,
      "hit": false,
      "t": 27537.30150000003,
      "d": 597.0146666666697,
      "v": 110
    },
    {
      "midi": 45,
      "hit": false,
      "t": 27985.062500000033,
      "d": 219.21632291666901,
      "v": 110
    },
    {
      "midi": 69,
      "hit": false,
      "t": 28097.002750000032,
      "d": 275.18644791666884,
      "v": 110
    },
    {
      "midi": 50,
      "hit": false,
      "t": 28208.943000000036,
      "d": 219.21632291666538,
      "v": 110
    },
    {
      "midi": 74,
      "hit": false,
      "t": 28376.853375000035,
      "d": 205.22379166666724,
      "v": 110
    },
    {
      "midi": 52,
      "hit": false,
      "t": 28432.823500000035,
      "d": 219.21632291666901,
      "v": 110
    },
    {
      "midi": 53,
      "hit": false,
      "t": 28656.704000000038,
      "d": 373.1341666666667,
      "v": 110
    },
    {
      "midi": 74,
      "hit": false,
      "t": 28656.704000000038,
      "d": 597.014666666666,
      "v": 110
    },
    {
      "midi": 81,
      "hit": false,
      "t": 28656.704000000038,
      "d": 1226.6785729166695,
      "v": 110
    },
    {
      "midi": 48,
      "hit": false,
      "t": 29104.465000000037,
      "d": 219.21632291666901,
      "v": 110
    },
    {
      "midi": 72,
      "hit": false,
      "t": 29328.34550000004,
      "d": 443.0968229166683,
      "v": 110
    },
    {
      "midi": 53,
      "hit": false,
      "t": 29328.34550000004,
      "d": 443.0968229166683,
      "v": 110
    },
    {
      "midi": 76,
      "hit": false,
      "t": 29776.10650000004,
      "d": 219.21632291666538,
      "v": 110
    },
    {
      "midi": 48,
      "hit": false,
      "t": 29776.10650000004,
      "d": 219.21632291666538,
      "v": 110
    },
    {
      "midi": 84,
      "hit": false,
      "t": 29888.04675000004,
      "d": 275.1864479166652,
      "v": 110
    },
    {
      "midi": 53,
      "hit": false,
      "t": 29999.98700000004,
      "d": 219.21632291666538,
      "v": 110
    },
    {
      "midi": 74,
      "hit": false,
      "t": 29999.98700000004,
      "d": 373.1341666666667,
      "v": 110
    },
    {
      "midi": 83,
      "hit": false,
      "t": 30167.89737500004,
      "d": 275.18644791666884,
      "v": 110
    },
    {
      "midi": 54,
      "hit": false,
      "t": 30223.86750000004,
      "d": 219.21632291666901,
      "v": 110
    },
    {
      "midi": 55,
      "hit": false,
      "t": 30447.748000000043,
      "d": 373.1341666666667,
      "v": 110
    },
    {
      "midi": 71,
      "hit": false,
      "t": 30447.748000000043,
      "d": 597.014666666666,
      "v": 110
    },
    {
      "midi": 79,
      "hit": false,
      "t": 30447.748000000043,
      "d": 1231.3427499999998,
      "v": 110
    },
    {
      "midi": 50,
      "hit": false,
      "t": 30895.509000000042,
      "d": 219.21632291666901,
      "v": 110
    },
    {
      "midi": 67,
      "hit": false,
      "t": 31119.389500000045,
      "d": 219.21632291666538,
      "v": 110
    },
    {
      "midi": 55,
      "hit": false,
      "t": 31119.389500000045,
      "d": 443.0968229166647,
      "v": 110
    },
    {
      "midi": 62,
      "hit": false,
      "t": 31343.270000000044,
      "d": 331.156572916665,
      "v": 110
    },
    {
      "midi": 50,
      "hit": false,
      "t": 31567.150500000043,
      "d": 219.21632291666538,
      "v": 110
    },
    {
      "midi": 67,
      "hit": false,
      "t": 31679.090750000043,
      "d": 275.1864479166652,
      "v": 110
    },
    {
      "midi": 55,
      "hit": false,
      "t": 31791.031000000043,
      "d": 219.21632291666538,
      "v": 110
    },
    {
      "midi": 83,
      "hit": false,
      "t": 31791.031000000043,
      "d": 373.1341666666667,
      "v": 110
    },
    {
      "midi": 71,
      "hit": false,
      "t": 31958.941375000042,
      "d": 275.18644791666884,
      "v": 110
    },
    {
      "midi": 59,
      "hit": false,
      "t": 32014.911500000042,
      "d": 219.21632291666901,
      "v": 110
    },
    {
      "midi": 57,
      "hit": false,
      "t": 32238.792000000045,
      "d": 219.21632291666538,
      "v": 110
    },
    {
      "midi": 62,
      "hit": false,
      "t": 32238.792000000045,
      "d": 331.156572916665,
      "v": 110
    },
    {
      "midi": 81,
      "hit": false,
      "t": 32238.792000000045,
      "d": 331.156572916665,
      "v": 110
    },
    {
      "midi": 50,
      "hit": false,
      "t": 32462.672500000044,
      "d": 219.21632291666538,
      "v": 110
    },
    {
      "midi": 66,
      "hit": false,
      "t": 32574.612750000044,
      "d": 107.27607291666573,
      "v": 110
    },
    {
      "midi": 79,
      "hit": false,
      "t": 32574.612750000044,
      "d": 107.27607291666573,
      "v": 110
    },
    {
      "midi": 54,
      "hit": false,
      "t": 32686.553000000044,
      "d": 219.21632291666901,
      "v": 110
    },
    {
      "midi": 69,
      "hit": false,
      "t": 32686.553000000044,
      "d": 783.5817499999976,
      "v": 110
    },
    {
      "midi": 78,
      "hit": false,
      "t": 32686.553000000044,
      "d": 3022.3867499999833,
      "v": 110
    },
    {
      "midi": 57,
      "hit": false,
      "t": 32910.43350000004,
      "d": 443.0968229166683,
      "v": 110
    },
    {
      "midi": 50,
      "hit": false,
      "t": 33358.19450000004,
      "d": 219.21632291666901,
      "v": 110
    },
    {
      "midi": 52,
      "hit": false,
      "t": 33582.07500000004,
      "d": 219.21632291666901,
      "v": 110
    },
    {
      "midi": 66,
      "hit": false,
      "t": 33582.07500000004,
      "d": 373.1341666666631,
      "v": 110
    },
    {
      "midi": 54,
      "hit": false,
      "t": 33805.95550000004,
      "d": 219.21632291666174,
      "v": 110
    },
    {
      "midi": 57,
      "hit": false,
      "t": 34029.83600000003,
      "d": 219.21632291666901,
      "v": 110
    },
    {
      "midi": 69,
      "hit": false,
      "t": 34029.83600000003,
      "d": 331.15657291666867,
      "v": 110
    },
    {
      "midi": 54,
      "hit": false,
      "t": 34253.71650000003,
      "d": 219.21632291666901,
      "v": 110
    },
    {
      "midi": 73,
      "hit": false,
      "t": 34365.65675000003,
      "d": 107.27607291666936,
      "v": 110
    },
    {
      "midi": 57,
      "hit": false,
      "t": 34477.59700000003,
      "d": 219.21632291666901,
      "v": 110
    },
    {
      "midi": 74,
      "hit": false,
      "t": 34477.59700000003,
      "d": 1231.3427499999962,
      "v": 110
    },
    {
      "midi": 62,
      "hit": false,
      "t": 34701.47750000003,
      "d": 443.0968229166683,
      "v": 110
    },
    {
      "midi": 57,
      "hit": false,
      "t": 35149.23850000003,
      "d": 219.21632291666901,
      "v": 110
    },
    {
      "midi": 62,
      "hit": false,
      "t": 35373.11900000003,
      "d": 219.21632291666901,
      "v": 110
    },
    {
      "midi": 66,
      "hit": false,
      "t": 35596.99950000003,
      "d": 219.21632291666901,
      "v": 110
    },
    {
      "midi": 60,
      "hit": false,
      "t": 35820.88000000003,
      "d": 331.15657291666867,
      "v": 110
    },
    {
      "midi": 67,
      "hit": false,
      "t": 35820.88000000003,
      "d": 331.15657291666867,
      "v": 110
    },
    {
      "midi": 52,
      "hit": false,
      "t": 35820.88000000003,
      "d": 373.1341666666631,
      "v": 110
    },
    {
      "midi": 59,
      "hit": false,
      "t": 36156.700750000025,
      "d": 275.18644791666884,
      "v": 110
    },
    {
      "midi": 66,
      "hit": false,
      "t": 36156.700750000025,
      "d": 275.18644791666884,
      "v": 110
    },
    {
      "midi": 48,
      "hit": false,
      "t": 36268.641000000025,
      "d": 219.21632291666901,
      "v": 110
    },
    {
      "midi": 57,
      "hit": false,
      "t": 36436.551375000025,
      "d": 275.18644791666884,
      "v": 110
    },
    {
      "midi": 64,
      "hit": false,
      "t": 36436.551375000025,
      "d": 275.18644791666884,
      "v": 110
    },
    {
      "midi": 52,
      "hit": false,
      "t": 36492.521500000024,
      "d": 443.0968229166683,
      "v": 110
    },
    {
      "midi": 60,
      "hit": false,
      "t": 36716.402000000024,
      "d": 373.1341666666631,
      "v": 110
    },
    {
      "midi": 57,
      "hit": false,
      "t": 36716.402000000024,
      "d": 783.5817499999903,
      "v": 110
    },
    {
      "midi": 48,
      "hit": false,
      "t": 36940.28250000002,
      "d": 219.21632291666174,
      "v": 110
    },
    {
      "midi": 52,
      "hit": false,
      "t": 37164.163000000015,
      "d": 219.21632291666901,
      "v": 110
    },
    {
      "midi": 48,
      "hit": false,
      "t": 37388.043500000014,
      "d": 219.21632291666901,
      "v": 110
    },
    {
      "midi": 55,
      "hit": false,
      "t": 37611.92400000001,
      "d": 373.1341666666631,
      "v": 110
    },
    {
      "midi": 60,
      "hit": false,
      "t": 37611.92400000001,
      "d": 1231.3427499999889,
      "v": 110
    },
    {
      "midi": 72,
      "hit": false,
      "t": 37835.80450000001,
      "d": 107.27607291666936,
      "v": 110
    },
    {
      "midi": 76,
      "hit": false,
      "t": 37947.74475000001,
      "d": 107.27607291666209,
      "v": 110
    },
    {
      "midi": 79,
      "hit": false,
      "t": 38059.685000000005,
      "d": 219.21632291666901,
      "v": 110
    },
    {
      "midi": 48,
      "hit": false,
      "t": 38059.685000000005,
      "d": 219.21632291666901,
      "v": 110
    },
    {
      "midi": 76,
      "hit": false,
      "t": 38283.565500000004,
      "d": 107.27607291666936,
      "v": 110
    },
    {
      "midi": 55,
      "hit": false,
      "t": 38283.565500000004,
      "d": 443.0968229166683,
      "v": 110
    },
    {
      "midi": 79,
      "hit": false,
      "t": 38395.505750000004,
      "d": 107.27607291666936,
      "v": 110
    },
    {
      "midi": 84,
      "hit": false,
      "t": 38507.446,
      "d": 783.5817499999976,
      "v": 110
    },
    {
      "midi": 48,
      "hit": false,
      "t": 38731.3265,
      "d": 219.21632291666901,
      "v": 110
    },
    {
      "midi": 55,
      "hit": false,
      "t": 38955.207,
      "d": 219.21632291666901,
      "v": 110
    },
    {
      "midi": 64,
      "hit": false,
      "t": 38955.207,
      "d": 373.1341666666631,
      "v": 110
    },
    {
      "midi": 48,
      "hit": false,
      "t": 39179.0875,
      "d": 219.21632291666174,
      "v": 110
    },
    {
      "midi": 62,
      "hit": false,
      "t": 39402.96799999999,
      "d": 219.21632291666901,
      "v": 110
    },
    {
      "midi": 54,
      "hit": false,
      "t": 39402.96799999999,
      "d": 373.1341666666631,
      "v": 110
    },
    {
      "midi": 81,
      "hit": false,
      "t": 39626.84849999999,
      "d": 443.0968229166683,
      "v": 110
    },
    {
      "midi": 57,
      "hit": false,
      "t": 39626.84849999999,
      "d": 1007.4622499999969,
      "v": 110
    },
    {
      "midi": 50,
      "hit": false,
      "t": 39850.72899999999,
      "d": 219.21632291666901,
      "v": 110
    },
    {
      "midi": 79,
      "hit": false,
      "t": 40074.60949999999,
      "d": 443.0968229166683,
      "v": 110
    },
    {
      "midi": 54,
      "hit": false,
      "t": 40074.60949999999,
      "d": 443.0968229166683,
      "v": 110
    },
    {
      "midi": 50,
      "hit": false,
      "t": 40522.37049999999,
      "d": 219.21632291666901,
      "v": 110
    },
    {
      "midi": 78,
      "hit": false,
      "t": 40522.37049999999,
      "d": 443.0968229166683,
      "v": 110
    },
    {
      "midi": 54,
      "hit": false,
      "t": 40746.25099999999,
      "d": 219.21632291666901,
      "v": 110
    },
    {
      "midi": 64,
      "hit": false,
      "t": 40746.25099999999,
      "d": 373.1341666666631,
      "v": 110
    },
    {
      "midi": 76,
      "hit": false,
      "t": 40970.13149999999,
      "d": 219.21632291666174,
      "v": 110
    },
    {
      "midi": 50,
      "hit": false,
      "t": 40970.13149999999,
      "d": 219.21632291666174,
      "v": 110
    },
    {
      "midi": 57,
      "hit": false,
      "t": 41194.01199999998,
      "d": 219.21632291666901,
      "v": 110
    },
    {
      "midi": 62,
      "hit": false,
      "t": 41194.01199999998,
      "d": 331.15657291666867,
      "v": 110
    },
    {
      "midi": 74,
      "hit": false,
      "t": 41194.01199999998,
      "d": 331.15657291666867,
      "v": 110
    },
    {
      "midi": 50,
      "hit": false,
      "t": 41417.89249999998,
      "d": 219.21632291666901,
      "v": 110
    },
    {
      "midi": 64,
      "hit": false,
      "t": 41529.83274999998,
      "d": 107.27607291666936,
      "v": 110
    },
    {
      "midi": 76,
      "hit": false,
      "t": 41529.83274999998,
      "d": 275.18644791666884,
      "v": 110
    },
    {
      "midi": 54,
      "hit": false,
      "t": 41641.77299999998,
      "d": 219.21632291666901,
      "v": 110
    },
    {
      "midi": 66,
      "hit": false,
      "t": 41641.77299999998,
      "d": 783.5817499999976,
      "v": 110
    },
    {
      "midi": 78,
      "hit": false,
      "t": 41809.68337499998,
      "d": 275.18644791666884,
      "v": 110
    },
    {
      "midi": 62,
      "hit": false,
      "t": 41865.65349999998,
      "d": 443.0968229166683,
      "v": 110
    },
    {
      "midi": 81,
      "hit": false,
      "t": 42089.53399999998,
      "d": 783.5817499999976,
      "v": 110
    },
    {
      "midi": 50,
      "hit": false,
      "t": 42313.41449999998,
      "d": 219.21632291666901,
      "v": 110
    },
    {
      "midi": 52,
      "hit": false,
      "t": 42537.29499999998,
      "d": 219.21632291666901,
      "v": 110
    },
    {
      "midi": 62,
      "hit": false,
      "t": 42537.29499999998,
      "d": 666.9773229166676,
      "v": 110
    },
    {
      "midi": 54,
      "hit": false,
      "t": 42761.175499999976,
      "d": 219.21632291666901,
      "v": 110
    },
    {
      "midi": 67,
      "hit": false,
      "t": 42985.055999999975,
      "d": 331.15657291666867,
      "v": 110
    },
    {
      "midi": 55,
      "hit": false,
      "t": 42985.055999999975,
      "d": 373.1341666666631,
      "v": 110
    },
    {
      "midi": 60,
      "hit": false,
      "t": 43208.936499999974,
      "d": 107.27607291666936,
      "v": 110
    },
    {
      "midi": 64,
      "hit": false,
      "t": 43320.876749999974,
      "d": 107.27607291666209,
      "v": 110
    },
    {
      "midi": 66,
      "hit": false,
      "t": 43320.876749999974,
      "d": 275.18644791666156,
      "v": 110
    },
    {
      "midi": 48,
      "hit": false,
      "t": 43432.816999999966,
      "d": 219.21632291666901,
      "v": 110
    },
    {
      "midi": 60,
      "hit": false,
      "t": 43432.816999999966,
      "d": 783.5817499999976,
      "v": 110
    },
    {
      "midi": 64,
      "hit": false,
      "t": 43600.727374999966,
      "d": 275.18644791666884,
      "v": 110
    },
    {
      "midi": 55,
      "hit": false,
      "t": 43656.697499999966,
      "d": 443.0968229166683,
      "v": 110
    },
    {
      "midi": 72,
      "hit": false,
      "t": 43880.577999999965,
      "d": 331.15657291666867,
      "v": 110
    },
    {
      "midi": 48,
      "hit": false,
      "t": 44104.458499999964,
      "d": 219.21632291666901,
      "v": 110
    },
    {
      "midi": 71,
      "hit": false,
      "t": 44216.398749999964,
      "d": 275.18644791666884,
      "v": 110
    },
    {
      "midi": 55,
      "hit": false,
      "t": 44328.33899999996,
      "d": 219.21632291666901,
      "v": 110
    },
    {
      "midi": 64,
      "hit": false,
      "t": 44328.33899999996,
      "d": 666.9773229166676,
      "v": 110
    },
    {
      "midi": 69,
      "hit": false,
      "t": 44496.24937499996,
      "d": 275.18644791666884,
      "v": 110
    },
    {
      "midi": 48,
      "hit": false,
      "t": 44552.21949999996,
      "d": 219.21632291666901,
      "v": 110
    },
    {
      "midi": 76,
      "hit": false,
      "t": 44776.09999999996,
      "d": 331.15657291666867,
      "v": 110
    },
    {
      "midi": 55,
      "hit": false,
      "t": 44776.09999999996,
      "d": 373.1341666666631,
      "v": 110
    },
    {
      "midi": 64,
      "hit": false,
      "t": 44999.98049999996,
      "d": 107.27607291666936,
      "v": 110
    },
    {
      "midi": 67,
      "hit": false,
      "t": 45111.92074999996,
      "d": 107.27607291666209,
      "v": 110
    },
    {
      "midi": 74,
      "hit": false,
      "t": 45111.92074999996,
      "d": 275.18644791666156,
      "v": 110
    },
    {
      "midi": 48,
      "hit": false,
      "t": 45223.86099999995,
      "d": 219.21632291666901,
      "v": 110
    },
    {
      "midi": 64,
      "hit": false,
      "t": 45223.86099999995,
      "d": 783.5817499999976,
      "v": 110
    },
    {
      "midi": 72,
      "hit": false,
      "t": 45391.77137499995,
      "d": 275.18644791666884,
      "v": 110
    },
    {
      "midi": 55,
      "hit": false,
      "t": 45447.74149999995,
      "d": 443.0968229166683,
      "v": 110
    },
    {
      "midi": 79,
      "hit": false,
      "t": 45671.62199999995,
      "d": 331.15657291666867,
      "v": 110
    },
    {
      "midi": 48,
      "hit": false,
      "t": 45895.50249999995,
      "d": 219.21632291666901,
      "v": 110
    },
    {
      "midi": 78,
      "hit": false,
      "t": 46007.44274999995,
      "d": 275.18644791666884,
      "v": 110
    },
    {
      "midi": 55,
      "hit": false,
      "t": 46119.38299999995,
      "d": 219.21632291666901,
      "v": 110
    },
    {
      "midi": 67,
      "hit": false,
      "t": 46119.38299999995,
      "d": 666.9773229166676,
      "v": 110
    },
    {
      "midi": 76,
      "hit": false,
      "t": 46287.29337499995,
      "d": 275.18644791666884,
      "v": 110
    },
    {
      "midi": 48,
      "hit": false,
      "t": 46343.26349999995,
      "d": 219.21632291666901,
      "v": 110
    },
    {
      "midi": 54,
      "hit": false,
      "t": 46567.14399999995,
      "d": 373.1341666666631,
      "v": 110
    },
    {
      "midi": 78,
      "hit": false,
      "t": 46567.14399999995,
      "d": 1226.6785729166586,
      "v": 110
    },
    {
      "midi": 66,
      "hit": false,
      "t": 46791.02449999995,
      "d": 107.27607291666936,
      "v": 110
    },
    {
      "midi": 67,
      "hit": false,
      "t": 46902.96474999995,
      "d": 107.27607291666209,
      "v": 110
    },
    {
      "midi": 50,
      "hit": false,
      "t": 47014.90499999994,
      "d": 219.21632291666901,
      "v": 110
    },
    {
      "midi": 69,
      "hit": false,
      "t": 47014.90499999994,
      "d": 1562.4993229166648,
      "v": 110
    },
    {
      "midi": 54,
      "hit": false,
      "t": 47238.78549999994,
      "d": 443.0968229166683,
      "v": 110
    },
    {
      "midi": 50,
      "hit": false,
      "t": 47686.54649999994,
      "d": 219.21632291666901,
      "v": 110
    },
    {
      "midi": 74,
      "hit": false,
      "t": 47798.48674999994,
      "d": 275.18644791666884,
      "v": 110
    },
    {
      "midi": 54,
      "hit": false,
      "t": 47910.42699999994,
      "d": 219.21632291666901,
      "v": 110
    },
    {
      "midi": 78,
      "hit": false,
      "t": 48078.33737499994,
      "d": 275.18644791666884,
      "v": 110
    },
    {
      "midi": 50,
      "hit": false,
      "t": 48134.30749999994,
      "d": 219.21632291666901,
      "v": 110
    },
    {
      "midi": 50,
      "hit": false,
      "t": 48358.18799999994,
      "d": 373.1341666666631,
      "v": 110
    },
    {
      "midi": 81,
      "hit": false,
      "t": 48358.18799999994,
      "d": 1679.1037499999875,
      "v": 110
    },
    {
      "midi": 69,
      "hit": false,
      "t": 48582.068499999936,
      "d": 107.27607291666936,
      "v": 110
    },
    {
      "midi": 72,
      "hit": false,
      "t": 48694.008749999935,
      "d": 107.27607291666209,
      "v": 110
    },
    {
      "midi": 45,
      "hit": false,
      "t": 48805.94899999993,
      "d": 219.21632291666901,
      "v": 110
    },
    {
      "midi": 74,
      "hit": false,
      "t": 48805.94899999993,
      "d": 1231.3427499999962,
      "v": 110
    },
    {
      "midi": 50,
      "hit": false,
      "t": 49029.82949999993,
      "d": 443.0968229166683,
      "v": 110
    },
    {
      "midi": 45,
      "hit": false,
      "t": 49477.590499999926,
      "d": 219.21632291666901,
      "v": 110
    },
    {
      "midi": 50,
      "hit": false,
      "t": 49701.470999999925,
      "d": 219.21632291666901,
      "v": 110
    },
    {
      "midi": 45,
      "hit": false,
      "t": 49925.351499999924,
      "d": 219.21632291666901,
      "v": 110
    },
    {
      "midi": 50,
      "hit": false,
      "t": 50149.23199999992,
      "d": 373.1341666666631,
      "v": 110
    },
    {
      "midi": 78,
      "hit": false,
      "t": 50149.23199999992,
      "d": 597.0146666666624,
      "v": 110
    },
    {
      "midi": 74,
      "hit": false,
      "t": 50149.23199999992,
      "d": 1226.6785729166586,
      "v": 110
    },
    {
      "midi": 45,
      "hit": false,
      "t": 50596.99299999992,
      "d": 219.21632291666174,
      "v": 110
    },
    {
      "midi": 50,
      "hit": false,
      "t": 50820.873499999914,
      "d": 443.0968229166683,
      "v": 110
    },
    {
      "midi": 76,
      "hit": false,
      "t": 50820.873499999914,
      "d": 597.0146666666624,
      "v": 110
    },
    {
      "midi": 45,
      "hit": false,
      "t": 51268.63449999991,
      "d": 219.21632291666174,
      "v": 110
    },
    {
      "midi": 69,
      "hit": false,
      "t": 51380.57474999991,
      "d": 275.18644791666156,
      "v": 110
    },
    {
      "midi": 50,
      "hit": false,
      "t": 51492.514999999905,
      "d": 219.21632291666901,
      "v": 110
    },
    {
      "midi": 74,
      "hit": false,
      "t": 51660.425374999904,
      "d": 205.2237916666636,
      "v": 110
    },
    {
      "midi": 52,
      "hit": false,
      "t": 51716.395499999904,
      "d": 219.21632291666174,
      "v": 110
    },
    {
      "midi": 53,
      "hit": false,
      "t": 51940.275999999896,
      "d": 373.13416666667035,
      "v": 110
    },
    {
      "midi": 74,
      "hit": false,
      "t": 51940.275999999896,
      "d": 597.0146666666697,
      "v": 110
    },
    {
      "midi": 81,
      "hit": false,
      "t": 51940.275999999896,
      "d": 1226.6785729166659,
      "v": 110
    },
    {
      "midi": 48,
      "hit": false,
      "t": 52388.0369999999,
      "d": 219.21632291666174,
      "v": 110
    },
    {
      "midi": 72,
      "hit": false,
      "t": 52611.917499999894,
      "d": 443.0968229166683,
      "v": 110
    },
    {
      "midi": 53,
      "hit": false,
      "t": 52611.917499999894,
      "d": 443.0968229166683,
      "v": 110
    },
    {
      "midi": 76,
      "hit": false,
      "t": 53059.67849999989,
      "d": 219.21632291666901,
      "v": 110
    },
    {
      "midi": 48,
      "hit": false,
      "t": 53059.67849999989,
      "d": 219.21632291666901,
      "v": 110
    },
    {
      "midi": 84,
      "hit": false,
      "t": 53171.61874999989,
      "d": 275.18644791666884,
      "v": 110
    },
    {
      "midi": 53,
      "hit": false,
      "t": 53283.55899999989,
      "d": 219.21632291666901,
      "v": 110
    },
    {
      "midi": 74,
      "hit": false,
      "t": 53283.55899999989,
      "d": 373.1341666666631,
      "v": 110
    },
    {
      "midi": 83,
      "hit": false,
      "t": 53451.46937499989,
      "d": 275.18644791666156,
      "v": 110
    },
    {
      "midi": 54,
      "hit": false,
      "t": 53507.43949999989,
      "d": 219.21632291666174,
      "v": 110
    },
    {
      "midi": 55,
      "hit": false,
      "t": 53731.31999999988,
      "d": 373.1341666666631,
      "v": 110
    },
    {
      "midi": 71,
      "hit": false,
      "t": 53731.31999999988,
      "d": 597.0146666666624,
      "v": 110
    },
    {
      "midi": 79,
      "hit": false,
      "t": 53731.31999999988,
      "d": 1231.3427499999889,
      "v": 110
    },
    {
      "midi": 50,
      "hit": false,
      "t": 54179.08099999988,
      "d": 219.21632291666174,
      "v": 110
    },
    {
      "midi": 67,
      "hit": false,
      "t": 54402.961499999874,
      "d": 219.21632291666901,
      "v": 110
    },
    {
      "midi": 55,
      "hit": false,
      "t": 54402.961499999874,
      "d": 443.0968229166683,
      "v": 110
    },
    {
      "midi": 62,
      "hit": false,
      "t": 54626.84199999987,
      "d": 331.15657291666867,
      "v": 110
    },
    {
      "midi": 50,
      "hit": false,
      "t": 54850.72249999987,
      "d": 219.21632291666901,
      "v": 110
    },
    {
      "midi": 67,
      "hit": false,
      "t": 54962.66274999987,
      "d": 275.18644791666884,
      "v": 110
    },
    {
      "midi": 55,
      "hit": false,
      "t": 55074.60299999987,
      "d": 219.21632291666901,
      "v": 110
    },
    {
      "midi": 83,
      "hit": false,
      "t": 55074.60299999987,
      "d": 373.1341666666631,
      "v": 110
    },
    {
      "midi": 71,
      "hit": false,
      "t": 55242.51337499987,
      "d": 275.18644791666156,
      "v": 110
    },
    {
      "midi": 59,
      "hit": false,
      "t": 55298.48349999987,
      "d": 219.21632291666174,
      "v": 110
    },
    {
      "midi": 57,
      "hit": false,
      "t": 55522.36399999986,
      "d": 219.21632291666901,
      "v": 110
    },
    {
      "midi": 62,
      "hit": false,
      "t": 55522.36399999986,
      "d": 331.15657291666867,
      "v": 110
    },
    {
      "midi": 81,
      "hit": false,
      "t": 55522.36399999986,
      "d": 331.15657291666867,
      "v": 110
    },
    {
      "midi": 50,
      "hit": false,
      "t": 55746.24449999986,
      "d": 219.21632291666901,
      "v": 110
    },
    {
      "midi": 66,
      "hit": false,
      "t": 55858.18474999986,
      "d": 107.27607291666936,
      "v": 110
    },
    {
      "midi": 79,
      "hit": false,
      "t": 55858.18474999986,
      "d": 107.27607291666936,
      "v": 110
    },
    {
      "midi": 54,
      "hit": false,
      "t": 55970.12499999986,
      "d": 219.21632291666901,
      "v": 110
    },
    {
      "midi": 69,
      "hit": false,
      "t": 55970.12499999986,
      "d": 783.5817499999976,
      "v": 110
    },
    {
      "midi": 78,
      "hit": false,
      "t": 55970.12499999986,
      "d": 3022.3867499999833,
      "v": 110
    },
    {
      "midi": 57,
      "hit": false,
      "t": 56194.00549999986,
      "d": 443.0968229166683,
      "v": 110
    },
    {
      "midi": 50,
      "hit": false,
      "t": 56641.76649999986,
      "d": 219.21632291666901,
      "v": 110
    },
    {
      "midi": 52,
      "hit": false,
      "t": 56865.64699999986,
      "d": 219.21632291666901,
      "v": 110
    },
    {
      "midi": 66,
      "hit": false,
      "t": 56865.64699999986,
      "d": 373.1341666666631,
      "v": 110
    },
    {
      "midi": 54,
      "hit": false,
      "t": 57089.52749999986,
      "d": 219.21632291666174,
      "v": 110
    },
    {
      "midi": 57,
      "hit": false,
      "t": 57313.40799999985,
      "d": 219.21632291666901,
      "v": 110
    },
    {
      "midi": 69,
      "hit": false,
      "t": 57313.40799999985,
      "d": 331.15657291666867,
      "v": 110
    },
    {
      "midi": 54,
      "hit": false,
      "t": 57537.28849999985,
      "d": 219.21632291666901,
      "v": 110
    },
    {
      "midi": 73,
      "hit": false,
      "t": 57649.22874999985,
      "d": 107.27607291666936,
      "v": 110
    },
    {
      "midi": 57,
      "hit": false,
      "t": 57761.16899999985,
      "d": 219.21632291666901,
      "v": 110
    },
    {
      "midi": 74,
      "hit": false,
      "t": 57761.16899999985,
      "d": 1231.3427499999962,
      "v": 110
    },
    {
      "midi": 62,
      "hit": false,
      "t": 57985.04949999985,
      "d": 443.0968229166683,
      "v": 110
    },
    {
      "midi": 57,
      "hit": false,
      "t": 58432.81049999985,
      "d": 219.21632291666901,
      "v": 110
    },
    {
      "midi": 62,
      "hit": false,
      "t": 58656.690999999846,
      "d": 219.21632291666901,
      "v": 110
    },
    {
      "midi": 66,
      "hit": false,
      "t": 58880.571499999845,
      "d": 219.21632291666901,
      "v": 110
    },
    {
      "midi": 60,
      "hit": false,
      "t": 59104.451999999845,
      "d": 331.15657291666867,
      "v": 110
    },
    {
      "midi": 67,
      "hit": false,
      "t": 59104.451999999845,
      "d": 331.15657291666867,
      "v": 110
    },
    {
      "midi": 52,
      "hit": false,
      "t": 59104.451999999845,
      "d": 373.1341666666631,
      "v": 110
    },
    {
      "midi": 59,
      "hit": false,
      "t": 59440.272749999844,
      "d": 275.18644791666884,
      "v": 110
    },
    {
      "midi": 66,
      "hit": false,
      "t": 59440.272749999844,
      "d": 275.18644791666884,
      "v": 110
    },
    {
      "midi": 48,
      "hit": false,
      "t": 59552.21299999984,
      "d": 219.21632291666901,
      "v": 110
    },
    {
      "midi": 57,
      "hit": false,
      "t": 59720.12337499984,
      "d": 275.18644791666884,
      "v": 110
    },
    {
      "midi": 64,
      "hit": false,
      "t": 59720.12337499984,
      "d": 275.18644791666884,
      "v": 110
    },
    {
      "midi": 52,
      "hit": false,
      "t": 59776.09349999984,
      "d": 443.0968229166683,
      "v": 110
    },
    {
      "midi": 60,
      "hit": false,
      "t": 59999.97399999984,
      "d": 373.1341666666631,
      "v": 110
    },
    {
      "midi": 57,
      "hit": false,
      "t": 59999.97399999984,
      "d": 783.5817499999903,
      "v": 110
    },
    {
      "midi": 48,
      "hit": false,
      "t": 60223.85449999984,
      "d": 219.21632291666174,
      "v": 110
    },
    {
      "midi": 52,
      "hit": false,
      "t": 60447.73499999983,
      "d": 219.21632291666901,
      "v": 110
    },
    {
      "midi": 48,
      "hit": false,
      "t": 60671.61549999983,
      "d": 219.21632291666901,
      "v": 110
    },
    {
      "midi": 55,
      "hit": false,
      "t": 60895.49599999983,
      "d": 373.1341666666631,
      "v": 110
    },
    {
      "midi": 60,
      "hit": false,
      "t": 60895.49599999983,
      "d": 1231.3427499999889,
      "v": 110
    },
    {
      "midi": 72,
      "hit": false,
      "t": 61119.37649999983,
      "d": 107.27607291666936,
      "v": 110
    },
    {
      "midi": 76,
      "hit": false,
      "t": 61231.31674999983,
      "d": 107.27607291666209,
      "v": 110
    },
    {
      "midi": 79,
      "hit": false,
      "t": 61343.25699999982,
      "d": 219.21632291666901,
      "v": 110
    },
    {
      "midi": 48,
      "hit": false,
      "t": 61343.25699999982,
      "d": 219.21632291666901,
      "v": 110
    },
    {
      "midi": 76,
      "hit": false,
      "t": 61567.13749999982,
      "d": 107.27607291666936,
      "v": 110
    },
    {
      "midi": 55,
      "hit": false,
      "t": 61567.13749999982,
      "d": 443.0968229166683,
      "v": 110
    },
    {
      "midi": 79,
      "hit": false,
      "t": 61679.07774999982,
      "d": 107.27607291666936,
      "v": 110
    },
    {
      "midi": 84,
      "hit": false,
      "t": 61791.01799999982,
      "d": 783.5817499999976,
      "v": 110
    },
    {
      "midi": 48,
      "hit": false,
      "t": 62014.89849999982,
      "d": 219.21632291666901,
      "v": 110
    },
    {
      "midi": 55,
      "hit": false,
      "t": 62238.77899999982,
      "d": 219.21632291666901,
      "v": 110
    },
    {
      "midi": 64,
      "hit": false,
      "t": 62238.77899999982,
      "d": 373.1341666666631,
      "v": 110
    },
    {
      "midi": 48,
      "hit": false,
      "t": 62462.65949999982,
      "d": 219.21632291666174,
      "v": 110
    },
    {
      "midi": 62,
      "hit": false,
      "t": 62686.53999999981,
      "d": 219.21632291666901,
      "v": 110
    },
    {
      "midi": 54,
      "hit": false,
      "t": 62686.53999999981,
      "d": 373.1341666666631,
      "v": 110
    },
    {
      "midi": 81,
      "hit": false,
      "t": 62910.42049999981,
      "d": 443.0968229166683,
      "v": 110
    },
    {
      "midi": 57,
      "hit": false,
      "t": 62910.42049999981,
      "d": 1007.4622499999969,
      "v": 110
    },
    {
      "midi": 50,
      "hit": false,
      "t": 63134.30099999981,
      "d": 219.21632291666901,
      "v": 110
    },
    {
      "midi": 79,
      "hit": false,
      "t": 63358.18149999981,
      "d": 443.0968229166683,
      "v": 110
    },
    {
      "midi": 54,
      "hit": false,
      "t": 63358.18149999981,
      "d": 443.0968229166683,
      "v": 110
    },
    {
      "midi": 50,
      "hit": false,
      "t": 63805.94249999981,
      "d": 219.21632291666901,
      "v": 110
    },
    {
      "midi": 78,
      "hit": false,
      "t": 63805.94249999981,
      "d": 443.0968229166683,
      "v": 110
    },
    {
      "midi": 54,
      "hit": false,
      "t": 64029.82299999981,
      "d": 219.21632291666901,
      "v": 110
    },
    {
      "midi": 64,
      "hit": false,
      "t": 64029.82299999981,
      "d": 373.1341666666631,
      "v": 110
    },
    {
      "midi": 76,
      "hit": false,
      "t": 64253.70349999981,
      "d": 219.21632291666174,
      "v": 110
    },
    {
      "midi": 50,
      "hit": false,
      "t": 64253.70349999981,
      "d": 219.21632291666174,
      "v": 110
    },
    {
      "midi": 57,
      "hit": false,
      "t": 64477.5839999998,
      "d": 219.21632291666901,
      "v": 110
    },
    {
      "midi": 62,
      "hit": false,
      "t": 64477.5839999998,
      "d": 331.15657291666867,
      "v": 110
    },
    {
      "midi": 74,
      "hit": false,
      "t": 64477.5839999998,
      "d": 331.15657291666867,
      "v": 110
    },
    {
      "midi": 50,
      "hit": false,
      "t": 64701.4644999998,
      "d": 219.21632291666901,
      "v": 110
    },
    {
      "midi": 64,
      "hit": false,
      "t": 64813.4047499998,
      "d": 107.27607291666936,
      "v": 110
    },
    {
      "midi": 76,
      "hit": false,
      "t": 64813.4047499998,
      "d": 275.18644791666884,
      "v": 110
    },
    {
      "midi": 54,
      "hit": false,
      "t": 64925.3449999998,
      "d": 219.21632291666901,
      "v": 110
    },
    {
      "midi": 66,
      "hit": false,
      "t": 64925.3449999998,
      "d": 783.5817499999976,
      "v": 110
    },
    {
      "midi": 78,
      "hit": false,
      "t": 65093.2553749998,
      "d": 275.18644791666884,
      "v": 110
    },
    {
      "midi": 62,
      "hit": false,
      "t": 65149.2254999998,
      "d": 443.09682291666104,
      "v": 110
    },
    {
      "midi": 81,
      "hit": false,
      "t": 65373.105999999796,
      "d": 783.5817499999976,
      "v": 110
    },
    {
      "midi": 50,
      "hit": false,
      "t": 65596.9864999998,
      "d": 219.21632291666174,
      "v": 110
    },
    {
      "midi": 52,
      "hit": false,
      "t": 65820.8669999998,
      "d": 219.21632291666174,
      "v": 110
    },
    {
      "midi": 62,
      "hit": false,
      "t": 65820.8669999998,
      "d": 666.9773229166603,
      "v": 110
    },
    {
      "midi": 54,
      "hit": false,
      "t": 66044.7474999998,
      "d": 219.21632291666174,
      "v": 110
    },
    {
      "midi": 67,
      "hit": false,
      "t": 66268.6279999998,
      "d": 331.1565729166614,
      "v": 110
    },
    {
      "midi": 55,
      "hit": false,
      "t": 66268.6279999998,
      "d": 373.13416666667035,
      "v": 110
    },
    {
      "midi": 60,
      "hit": false,
      "t": 66492.50849999979,
      "d": 107.27607291666209,
      "v": 110
    },
    {
      "midi": 64,
      "hit": false,
      "t": 66604.44874999979,
      "d": 107.27607291667664,
      "v": 110
    },
    {
      "midi": 66,
      "hit": false,
      "t": 66604.44874999979,
      "d": 275.1864479166834,
      "v": 110
    },
    {
      "midi": 48,
      "hit": false,
      "t": 66716.3889999998,
      "d": 219.2163229166763,
      "v": 110
    },
    {
      "midi": 60,
      "hit": false,
      "t": 66716.3889999998,
      "d": 783.5817500000121,
      "v": 110
    },
    {
      "midi": 64,
      "hit": false,
      "t": 66884.29937499981,
      "d": 275.18644791666884,
      "v": 110
    },
    {
      "midi": 55,
      "hit": false,
      "t": 66940.26949999982,
      "d": 443.09682291666104,
      "v": 110
    },
    {
      "midi": 72,
      "hit": false,
      "t": 67164.14999999982,
      "d": 331.1565729166614,
      "v": 110
    },
    {
      "midi": 48,
      "hit": false,
      "t": 67388.03049999982,
      "d": 219.21632291666174,
      "v": 110
    },
    {
      "midi": 71,
      "hit": false,
      "t": 67499.97074999982,
      "d": 275.18644791666884,
      "v": 110
    },
    {
      "midi": 55,
      "hit": false,
      "t": 67611.91099999982,
      "d": 219.2163229166763,
      "v": 110
    },
    {
      "midi": 64,
      "hit": false,
      "t": 67611.91099999982,
      "d": 666.9773229166749,
      "v": 110
    },
    {
      "midi": 69,
      "hit": false,
      "t": 67779.82137499982,
      "d": 275.18644791666884,
      "v": 110
    },
    {
      "midi": 48,
      "hit": false,
      "t": 67835.79149999983,
      "d": 219.21632291666174,
      "v": 110
    },
    {
      "midi": 76,
      "hit": false,
      "t": 68059.67199999983,
      "d": 331.1565729166614,
      "v": 110
    },
    {
      "midi": 55,
      "hit": false,
      "t": 68059.67199999983,
      "d": 373.13416666667035,
      "v": 110
    },
    {
      "midi": 64,
      "hit": false,
      "t": 68283.55249999983,
      "d": 107.27607291666209,
      "v": 110
    },
    {
      "midi": 67,
      "hit": false,
      "t": 68395.49274999983,
      "d": 107.27607291667664,
      "v": 110
    },
    {
      "midi": 74,
      "hit": false,
      "t": 68395.49274999983,
      "d": 275.1864479166834,
      "v": 110
    },
    {
      "midi": 48,
      "hit": false,
      "t": 68507.43299999984,
      "d": 219.2163229166763,
      "v": 110
    },
    {
      "midi": 64,
      "hit": false,
      "t": 68507.43299999984,
      "d": 783.5817500000121,
      "v": 110
    },
    {
      "midi": 72,
      "hit": false,
      "t": 68675.34337499985,
      "d": 275.18644791666884,
      "v": 110
    },
    {
      "midi": 55,
      "hit": false,
      "t": 68731.31349999986,
      "d": 443.09682291666104,
      "v": 110
    },
    {
      "midi": 79,
      "hit": false,
      "t": 68955.19399999986,
      "d": 331.1565729166614,
      "v": 110
    },
    {
      "midi": 48,
      "hit": false,
      "t": 69179.07449999986,
      "d": 219.21632291666174,
      "v": 110
    },
    {
      "midi": 78,
      "hit": false,
      "t": 69291.01474999986,
      "d": 275.18644791666884,
      "v": 110
    },
    {
      "midi": 55,
      "hit": false,
      "t": 69402.95499999986,
      "d": 219.2163229166763,
      "v": 110
    },
    {
      "midi": 67,
      "hit": false,
      "t": 69402.95499999986,
      "d": 666.9773229166749,
      "v": 110
    },
    {
      "midi": 76,
      "hit": false,
      "t": 69570.86537499986,
      "d": 275.18644791666884,
      "v": 110
    },
    {
      "midi": 48,
      "hit": false,
      "t": 69626.83549999987,
      "d": 219.21632291666174,
      "v": 110
    },
    {
      "midi": 54,
      "hit": false,
      "t": 69850.71599999987,
      "d": 373.13416666667035,
      "v": 110
    },
    {
      "midi": 78,
      "hit": false,
      "t": 69850.71599999987,
      "d": 1226.6785729166731,
      "v": 110
    },
    {
      "midi": 66,
      "hit": false,
      "t": 70074.59649999987,
      "d": 107.27607291666209,
      "v": 110
    },
    {
      "midi": 67,
      "hit": false,
      "t": 70186.53674999987,
      "d": 107.27607291667664,
      "v": 110
    },
    {
      "midi": 50,
      "hit": false,
      "t": 70298.47699999988,
      "d": 219.21632291666174,
      "v": 110
    },
    {
      "midi": 69,
      "hit": false,
      "t": 70298.47699999988,
      "d": 1562.499322916672,
      "v": 110
    },
    {
      "midi": 54,
      "hit": false,
      "t": 70522.35749999988,
      "d": 443.09682291666104,
      "v": 110
    },
    {
      "midi": 50,
      "hit": false,
      "t": 70970.11849999988,
      "d": 219.21632291666174,
      "v": 110
    },
    {
      "midi": 74,
      "hit": false,
      "t": 71082.05874999988,
      "d": 275.18644791666884,
      "v": 110
    },
    {
      "midi": 54,
      "hit": false,
      "t": 71193.99899999988,
      "d": 219.2163229166763,
      "v": 110
    },
    {
      "midi": 78,
      "hit": false,
      "t": 71361.90937499989,
      "d": 275.18644791666884,
      "v": 110
    },
    {
      "midi": 50,
      "hit": false,
      "t": 71417.8794999999,
      "d": 219.21632291666174,
      "v": 110
    },
    {
      "midi": 50,
      "hit": false,
      "t": 71641.7599999999,
      "d": 373.13416666667035,
      "v": 110
    },
    {
      "midi": 81,
      "hit": false,
      "t": 71641.7599999999,
      "d": 1679.1037500000093,
      "v": 110
    },
    {
      "midi": 69,
      "hit": false,
      "t": 71865.64049999989,
      "d": 107.27607291666209,
      "v": 110
    },
    {
      "midi": 72,
      "hit": false,
      "t": 71977.58074999989,
      "d": 107.27607291667664,
      "v": 110
    },
    {
      "midi": 45,
      "hit": false,
      "t": 72089.5209999999,
      "d": 219.21632291666174,
      "v": 110
    },
    {
      "midi": 74,
      "hit": false,
      "t": 72089.5209999999,
      "d": 1231.3427499999962,
      "v": 110
    },
    {
      "midi": 50,
      "hit": false,
      "t": 72313.4014999999,
      "d": 443.09682291666104,
      "v": 110
    },
    {
      "midi": 45,
      "hit": false,
      "t": 72761.1624999999,
      "d": 219.21632291666174,
      "v": 110
    },
    {
      "midi": 50,
      "hit": false,
      "t": 72985.0429999999,
      "d": 219.21632291666174,
      "v": 110
    },
    {
      "midi": 45,
      "hit": false,
      "t": 73208.9234999999,
      "d": 219.21632291666174,
      "v": 110
    },
    {
      "midi": 50,
      "hit": false,
      "t": 73432.8039999999,
      "d": 373.13416666667035,
      "v": 110
    },
    {
      "midi": 78,
      "hit": false,
      "t": 73432.8039999999,
      "d": 597.0146666666697,
      "v": 110
    },
    {
      "midi": 74,
      "hit": false,
      "t": 73432.8039999999,
      "d": 1226.6785729166731,
      "v": 110
    },
    {
      "midi": 45,
      "hit": false,
      "t": 73880.5649999999,
      "d": 219.2163229166763,
      "v": 110
    },
    {
      "midi": 50,
      "hit": false,
      "t": 74104.44549999991,
      "d": 443.09682291666104,
      "v": 110
    },
    {
      "midi": 76,
      "hit": false,
      "t": 74104.44549999991,
      "d": 597.0146666666697,
      "v": 110
    },
    {
      "midi": 45,
      "hit": false,
      "t": 74552.20649999991,
      "d": 219.2163229166763,
      "v": 110
    },
    {
      "midi": 69,
      "hit": false,
      "t": 74664.14674999991,
      "d": 275.1864479166834,
      "v": 110
    },
    {
      "midi": 50,
      "hit": false,
      "t": 74776.08699999993,
      "d": 219.2163229166763,
      "v": 110
    },
    {
      "midi": 74,
      "hit": false,
      "t": 74943.99737499993,
      "d": 205.22379166667815,
      "v": 110
    },
    {
      "midi": 52,
      "hit": false,
      "t": 74999.96749999994,
      "d": 219.2163229166763,
      "v": 110
    },
    {
      "midi": 53,
      "hit": false,
      "t": 75223.84799999995,
      "d": 373.13416666667035,
      "v": 110
    },
    {
      "midi": 74,
      "hit": false,
      "t": 75223.84799999995,
      "d": 597.0146666666697,
      "v": 110
    },
    {
      "midi": 81,
      "hit": false,
      "t": 75223.84799999995,
      "d": 1226.6785729166731,
      "v": 110
    },
    {
      "midi": 48,
      "hit": false,
      "t": 75671.60899999995,
      "d": 219.2163229166763,
      "v": 110
    },
    {
      "midi": 72,
      "hit": false,
      "t": 75895.48949999997,
      "d": 443.09682291666104,
      "v": 110
    },
    {
      "midi": 53,
      "hit": false,
      "t": 75895.48949999997,
      "d": 443.09682291666104,
      "v": 110
    },
    {
      "midi": 76,
      "hit": false,
      "t": 76343.25049999997,
      "d": 219.21632291666174,
      "v": 110
    },
    {
      "midi": 48,
      "hit": false,
      "t": 76343.25049999997,
      "d": 219.21632291666174,
      "v": 110
    },
    {
      "midi": 84,
      "hit": false,
      "t": 76455.19074999997,
      "d": 275.18644791666884,
      "v": 110
    },
    {
      "midi": 53,
      "hit": false,
      "t": 76567.13099999996,
      "d": 219.2163229166763,
      "v": 110
    },
    {
      "midi": 74,
      "hit": false,
      "t": 76567.13099999996,
      "d": 373.1341666666849,
      "v": 110
    },
    {
      "midi": 83,
      "hit": false,
      "t": 76735.04137499997,
      "d": 275.1864479166834,
      "v": 110
    },
    {
      "midi": 54,
      "hit": false,
      "t": 76791.01149999998,
      "d": 219.2163229166763,
      "v": 110
    },
    {
      "midi": 55,
      "hit": false,
      "t": 77014.89199999999,
      "d": 373.13416666667035,
      "v": 110
    },
    {
      "midi": 71,
      "hit": false,
      "t": 77014.89199999999,
      "d": 597.0146666666697,
      "v": 110
    },
    {
      "midi": 79,
      "hit": false,
      "t": 77014.89199999999,
      "d": 1231.3427500000107,
      "v": 110
    },
    {
      "midi": 50,
      "hit": false,
      "t": 77462.65299999999,
      "d": 219.2163229166763,
      "v": 110
    },
    {
      "midi": 67,
      "hit": false,
      "t": 77686.5335,
      "d": 219.21632291666174,
      "v": 110
    },
    {
      "midi": 55,
      "hit": false,
      "t": 77686.5335,
      "d": 443.09682291666104,
      "v": 110
    },
    {
      "midi": 62,
      "hit": false,
      "t": 77910.414,
      "d": 331.1565729166614,
      "v": 110
    },
    {
      "midi": 50,
      "hit": false,
      "t": 78134.2945,
      "d": 219.21632291666174,
      "v": 110
    },
    {
      "midi": 67,
      "hit": false,
      "t": 78246.23475,
      "d": 275.18644791666884,
      "v": 110
    },
    {
      "midi": 55,
      "hit": false,
      "t": 78358.175,
      "d": 219.2163229166763,
      "v": 110
    },
    {
      "midi": 83,
      "hit": false,
      "t": 78358.175,
      "d": 373.1341666666849,
      "v": 110
    },
    {
      "midi": 71,
      "hit": false,
      "t": 78526.08537500001,
      "d": 275.1864479166834,
      "v": 110
    },
    {
      "midi": 59,
      "hit": false,
      "t": 78582.05550000002,
      "d": 219.2163229166763,
      "v": 110
    },
    {
      "midi": 57,
      "hit": false,
      "t": 78805.93600000003,
      "d": 219.21632291666174,
      "v": 110
    },
    {
      "midi": 62,
      "hit": false,
      "t": 78805.93600000003,
      "d": 331.1565729166614,
      "v": 110
    },
    {
      "midi": 81,
      "hit": false,
      "t": 78805.93600000003,
      "d": 331.1565729166614,
      "v": 110
    },
    {
      "midi": 50,
      "hit": false,
      "t": 79029.81650000003,
      "d": 219.21632291666174,
      "v": 110
    },
    {
      "midi": 66,
      "hit": false,
      "t": 79141.75675000003,
      "d": 107.27607291666209,
      "v": 110
    },
    {
      "midi": 79,
      "hit": false,
      "t": 79141.75675000003,
      "d": 107.27607291666209,
      "v": 110
    },
    {
      "midi": 54,
      "hit": false,
      "t": 79253.69700000003,
      "d": 219.21632291666174,
      "v": 110
    },
    {
      "midi": 69,
      "hit": false,
      "t": 79253.69700000003,
      "d": 783.5817499999976,
      "v": 110
    },
    {
      "midi": 78,
      "hit": false,
      "t": 79253.69700000003,
      "d": 3022.386750000005,
      "v": 110
    },
    {
      "midi": 57,
      "hit": false,
      "t": 79477.57750000003,
      "d": 443.09682291666104,
      "v": 110
    },
    {
      "midi": 50,
      "hit": false,
      "t": 79925.33850000003,
      "d": 219.21632291666174,
      "v": 110
    },
    {
      "midi": 52,
      "hit": false,
      "t": 80149.21900000003,
      "d": 219.21632291666174,
      "v": 110
    },
    {
      "midi": 66,
      "hit": false,
      "t": 80149.21900000003,
      "d": 373.13416666667035,
      "v": 110
    },
    {
      "midi": 54,
      "hit": false,
      "t": 80373.09950000003,
      "d": 219.2163229166763,
      "v": 110
    },
    {
      "midi": 57,
      "hit": false,
      "t": 80596.98000000004,
      "d": 219.21632291666174,
      "v": 110
    },
    {
      "midi": 69,
      "hit": false,
      "t": 80596.98000000004,
      "d": 331.1565729166614,
      "v": 110
    },
    {
      "midi": 54,
      "hit": false,
      "t": 80820.86050000004,
      "d": 219.21632291666174,
      "v": 110
    },
    {
      "midi": 73,
      "hit": false,
      "t": 80932.80075000004,
      "d": 107.27607291666209,
      "v": 110
    },
    {
      "midi": 57,
      "hit": false,
      "t": 81044.74100000004,
      "d": 219.21632291666174,
      "v": 110
    },
    {
      "midi": 74,
      "hit": false,
      "t": 81044.74100000004,
      "d": 1231.3427499999962,
      "v": 110
    },
    {
      "midi": 62,
      "hit": false,
      "t": 81268.62150000004,
      "d": 443.09682291666104,
      "v": 110
    },
    {
      "midi": 57,
      "hit": false,
      "t": 81716.38250000004,
      "d": 219.21632291666174,
      "v": 110
    },
    {
      "midi": 62,
      "hit": false,
      "t": 81940.26300000004,
      "d": 219.21632291666174,
      "v": 110
    },
    {
      "midi": 66,
      "hit": false,
      "t": 82164.14350000003,
      "d": 219.21632291666174,
      "v": 110
    },
    {
      "midi": 60,
      "hit": false,
      "t": 82388.02400000003,
      "d": 331.1565729166614,
      "v": 110
    },
    {
      "midi": 67,
      "hit": false,
      "t": 82388.02400000003,
      "d": 331.1565729166614,
      "v": 110
    },
    {
      "midi": 52,
      "hit": false,
      "t": 82388.02400000003,
      "d": 373.13416666667035,
      "v": 110
    },
    {
      "midi": 59,
      "hit": false,
      "t": 82723.84475000003,
      "d": 275.18644791666884,
      "v": 110
    },
    {
      "midi": 66,
      "hit": false,
      "t": 82723.84475000003,
      "d": 275.18644791666884,
      "v": 110
    },
    {
      "midi": 48,
      "hit": false,
      "t": 82835.78500000003,
      "d": 219.2163229166763,
      "v": 110
    },
    {
      "midi": 57,
      "hit": false,
      "t": 83003.69537500004,
      "d": 275.18644791666884,
      "v": 110
    },
    {
      "midi": 64,
      "hit": false,
      "t": 83003.69537500004,
      "d": 275.18644791666884,
      "v": 110
    },
    {
      "midi": 52,
      "hit": false,
      "t": 83059.66550000005,
      "d": 443.09682291666104,
      "v": 110
    },
    {
      "midi": 60,
      "hit": false,
      "t": 83283.54600000005,
      "d": 373.13416666667035,
      "v": 110
    },
    {
      "midi": 57,
      "hit": false,
      "t": 83283.54600000005,
      "d": 783.5817500000121,
      "v": 110
    },
    {
      "midi": 48,
      "hit": false,
      "t": 83507.42650000005,
      "d": 219.2163229166763,
      "v": 110
    },
    {
      "midi": 52,
      "hit": false,
      "t": 83731.30700000006,
      "d": 219.21632291666174,
      "v": 110
    },
    {
      "midi": 48,
      "hit": false,
      "t": 83955.18750000006,
      "d": 219.21632291666174,
      "v": 110
    },
    {
      "midi": 55,
      "hit": false,
      "t": 84179.06800000006,
      "d": 373.13416666667035,
      "v": 110
    },
    {
      "midi": 60,
      "hit": false,
      "t": 84179.06800000006,
      "d": 1231.3427500000107,
      "v": 110
    },
    {
      "midi": 72,
      "hit": false,
      "t": 84402.94850000006,
      "d": 107.27607291666209,
      "v": 110
    },
    {
      "midi": 76,
      "hit": false,
      "t": 84514.88875000006,
      "d": 107.27607291667664,
      "v": 110
    },
    {
      "midi": 79,
      "hit": false,
      "t": 84626.82900000007,
      "d": 219.21632291666174,
      "v": 110
    },
    {
      "midi": 48,
      "hit": false,
      "t": 84626.82900000007,
      "d": 219.21632291666174,
      "v": 110
    },
    {
      "midi": 76,
      "hit": false,
      "t": 84850.70950000007,
      "d": 107.27607291666209,
      "v": 110
    },
    {
      "midi": 55,
      "hit": false,
      "t": 84850.70950000007,
      "d": 443.09682291666104,
      "v": 110
    },
    {
      "midi": 79,
      "hit": false,
      "t": 84962.64975000007,
      "d": 107.27607291666209,
      "v": 110
    },
    {
      "midi": 84,
      "hit": false,
      "t": 85074.59000000007,
      "d": 783.5817499999976,
      "v": 110
    },
    {
      "midi": 48,
      "hit": false,
      "t": 85298.47050000007,
      "d": 219.21632291666174,
      "v": 110
    },
    {
      "midi": 55,
      "hit": false,
      "t": 85522.35100000007,
      "d": 219.21632291666174,
      "v": 110
    },
    {
      "midi": 64,
      "hit": false,
      "t": 85522.35100000007,
      "d": 373.13416666667035,
      "v": 110
    },
    {
      "midi": 48,
      "hit": false,
      "t": 85746.23150000007,
      "d": 219.2163229166763,
      "v": 110
    },
    {
      "midi": 62,
      "hit": false,
      "t": 85970.11200000008,
      "d": 219.21632291666174,
      "v": 110
    },
    {
      "midi": 54,
      "hit": false,
      "t": 85970.11200000008,
      "d": 373.13416666667035,
      "v": 110
    },
    {
      "midi": 81,
      "hit": false,
      "t": 86193.99250000008,
      "d": 443.09682291666104,
      "v": 110
    },
    {
      "midi": 57,
      "hit": false,
      "t": 86193.99250000008,
      "d": 1007.4622499999969,
      "v": 110
    },
    {
      "midi": 50,
      "hit": false,
      "t": 86417.87300000008,
      "d": 219.21632291666174,
      "v": 110
    },
    {
      "midi": 79,
      "hit": false,
      "t": 86641.75350000008,
      "d": 443.09682291666104,
      "v": 110
    },
    {
      "midi": 54,
      "hit": false,
      "t": 86641.75350000008,
      "d": 443.09682291666104,
      "v": 110
    },
    {
      "midi": 50,
      "hit": false,
      "t": 87089.51450000008,
      "d": 219.21632291666174,
      "v": 110
    },
    {
      "midi": 78,
      "hit": false,
      "t": 87089.51450000008,
      "d": 443.09682291666104,
      "v": 110
    },
    {
      "midi": 54,
      "hit": false,
      "t": 87313.39500000008,
      "d": 219.21632291666174,
      "v": 110
    },
    {
      "midi": 64,
      "hit": false,
      "t": 87313.39500000008,
      "d": 373.13416666667035,
      "v": 110
    },
    {
      "midi": 76,
      "hit": false,
      "t": 87537.27550000008,
      "d": 219.2163229166763,
      "v": 110
    },
    {
      "midi": 50,
      "hit": false,
      "t": 87537.27550000008,
      "d": 219.2163229166763,
      "v": 110
    },
    {
      "midi": 57,
      "hit": false,
      "t": 87761.15600000009,
      "d": 219.21632291666174,
      "v": 110
    },
    {
      "midi": 62,
      "hit": false,
      "t": 87761.15600000009,
      "d": 331.1565729166614,
      "v": 110
    },
    {
      "midi": 74,
      "hit": false,
      "t": 87761.15600000009,
      "d": 331.1565729166614,
      "v": 110
    },
    {
      "midi": 50,
      "hit": false,
      "t": 87985.03650000009,
      "d": 219.21632291666174,
      "v": 110
    },
    {
      "midi": 64,
      "hit": false,
      "t": 88096.97675000009,
      "d": 107.27607291666209,
      "v": 110
    },
    {
      "midi": 76,
      "hit": false,
      "t": 88096.97675000009,
      "d": 275.18644791666884,
      "v": 110
    },
    {
      "midi": 54,
      "hit": false,
      "t": 88208.91700000009,
      "d": 219.2163229166763,
      "v": 110
    },
    {
      "midi": 66,
      "hit": false,
      "t": 88208.91700000009,
      "d": 783.5817500000121,
      "v": 110
    },
    {
      "midi": 78,
      "hit": false,
      "t": 88376.8273750001,
      "d": 275.18644791666884,
      "v": 110
    },
    {
      "midi": 62,
      "hit": false,
      "t": 88432.7975000001,
      "d": 443.09682291666104,
      "v": 110
    },
    {
      "midi": 81,
      "hit": false,
      "t": 88656.6780000001,
      "d": 783.5817499999976,
      "v": 110
    },
    {
      "midi": 50,
      "hit": false,
      "t": 88880.5585000001,
      "d": 219.21632291666174,
      "v": 110
    },
    {
      "midi": 52,
      "hit": false,
      "t": 89104.4390000001,
      "d": 219.21632291666174,
      "v": 110
    },
    {
      "midi": 62,
      "hit": false,
      "t": 89104.4390000001,
      "d": 666.9773229166603,
      "v": 110
    },
    {
      "midi": 54,
      "hit": false,
      "t": 89328.3195000001,
      "d": 219.21632291666174,
      "v": 110
    },
    {
      "midi": 67,
      "hit": false,
      "t": 89552.2000000001,
      "d": 331.1565729166614,
      "v": 110
    },
    {
      "midi": 55,
      "hit": false,
      "t": 89552.2000000001,
      "d": 373.13416666667035,
      "v": 110
    },
    {
      "midi": 60,
      "hit": false,
      "t": 89776.0805000001,
      "d": 107.27607291666209,
      "v": 110
    },
    {
      "midi": 64,
      "hit": false,
      "t": 89888.0207500001,
      "d": 107.27607291667664,
      "v": 110
    },
    {
      "midi": 66,
      "hit": false,
      "t": 89888.0207500001,
      "d": 275.1864479166834,
      "v": 110
    },
    {
      "midi": 48,
      "hit": false,
      "t": 89999.96100000011,
      "d": 219.2163229166763,
      "v": 110
    },
    {
      "midi": 60,
      "hit": false,
      "t": 89999.96100000011,
      "d": 783.5817500000121,
      "v": 110
    },
    {
      "midi": 64,
      "hit": false,
      "t": 90167.87137500012,
      "d": 275.18644791666884,
      "v": 110
    },
    {
      "midi": 55,
      "hit": false,
      "t": 90223.84150000013,
      "d": 443.09682291666104,
      "v": 110
    },
    {
      "midi": 72,
      "hit": false,
      "t": 90447.72200000013,
      "d": 331.1565729166614,
      "v": 110
    },
    {
      "midi": 48,
      "hit": false,
      "t": 90671.60250000012,
      "d": 219.21632291666174,
      "v": 110
    },
    {
      "midi": 71,
      "hit": false,
      "t": 90783.54275000012,
      "d": 275.18644791666884,
      "v": 110
    },
    {
      "midi": 55,
      "hit": false,
      "t": 90895.48300000012,
      "d": 219.2163229166763,
      "v": 110
    },
    {
      "midi": 64,
      "hit": false,
      "t": 90895.48300000012,
      "d": 666.9773229166749,
      "v": 110
    },
    {
      "midi": 69,
      "hit": false,
      "t": 91063.39337500013,
      "d": 275.18644791666884,
      "v": 110
    },
    {
      "midi": 48,
      "hit": false,
      "t": 91119.36350000014,
      "d": 219.21632291666174,
      "v": 110
    },
    {
      "midi": 76,
      "hit": false,
      "t": 91343.24400000014,
      "d": 331.1565729166614,
      "v": 110
    },
    {
      "midi": 55,
      "hit": false,
      "t": 91343.24400000014,
      "d": 373.13416666667035,
      "v": 110
    },
    {
      "midi": 64,
      "hit": false,
      "t": 91567.12450000014,
      "d": 107.27607291666209,
      "v": 110
    },
    {
      "midi": 67,
      "hit": false,
      "t": 91679.06475000014,
      "d": 107.27607291667664,
      "v": 110
    },
    {
      "midi": 74,
      "hit": false,
      "t": 91679.06475000014,
      "d": 275.1864479166834,
      "v": 110
    },
    {
      "midi": 48,
      "hit": false,
      "t": 91791.00500000015,
      "d": 219.2163229166763,
      "v": 110
    },
    {
      "midi": 64,
      "hit": false,
      "t": 91791.00500000015,
      "d": 783.5817500000121,
      "v": 110
    },
    {
      "midi": 72,
      "hit": false,
      "t": 91958.91537500016,
      "d": 275.18644791666884,
      "v": 110
    },
    {
      "midi": 55,
      "hit": false,
      "t": 92014.88550000016,
      "d": 443.09682291666104,
      "v": 110
    },
    {
      "midi": 79,
      "hit": false,
      "t": 92238.76600000016,
      "d": 331.1565729166614,
      "v": 110
    },
    {
      "midi": 48,
      "hit": false,
      "t": 92462.64650000016,
      "d": 219.21632291666174,
      "v": 110
    },
    {
      "midi": 78,
      "hit": false,
      "t": 92574.58675000016,
      "d": 275.18644791666884,
      "v": 110
    },
    {
      "midi": 55,
      "hit": false,
      "t": 92686.52700000016,
      "d": 219.2163229166763,
      "v": 110
    },
    {
      "midi": 67,
      "hit": false,
      "t": 92686.52700000016,
      "d": 666.9773229166749,
      "v": 110
    },
    {
      "midi": 76,
      "hit": false,
      "t": 92854.43737500017,
      "d": 275.18644791666884,
      "v": 110
    },
    {
      "midi": 48,
      "hit": false,
      "t": 92910.40750000018,
      "d": 219.21632291666174,
      "v": 110
    },
    {
      "midi": 54,
      "hit": false,
      "t": 93134.28800000018,
      "d": 373.13416666667035,
      "v": 110
    },
    {
      "midi": 78,
      "hit": false,
      "t": 93134.28800000018,
      "d": 1226.6785729166731,
      "v": 110
    },
    {
      "midi": 66,
      "hit": false,
      "t": 93358.16850000017,
      "d": 107.27607291666209,
      "v": 110
    },
    {
      "midi": 67,
      "hit": false,
      "t": 93470.10875000017,
      "d": 107.27607291667664,
      "v": 110
    },
    {
      "midi": 50,
      "hit": false,
      "t": 93582.04900000019,
      "d": 219.21632291666174,
      "v": 110
    },
    {
      "midi": 69,
      "hit": false,
      "t": 93582.04900000019,
      "d": 1562.499322916672,
      "v": 110
    },
    {
      "midi": 54,
      "hit": false,
      "t": 93805.92950000019,
      "d": 443.09682291666104,
      "v": 110
    },
    {
      "midi": 50,
      "hit": false,
      "t": 94253.69050000019,
      "d": 219.21632291666174,
      "v": 110
    },
    {
      "midi": 74,
      "hit": false,
      "t": 94365.63075000019,
      "d": 275.18644791666884,
      "v": 110
    },
    {
      "midi": 54,
      "hit": false,
      "t": 94477.57100000019,
      "d": 219.2163229166763,
      "v": 110
    },
    {
      "midi": 78,
      "hit": false,
      "t": 94645.48137500019,
      "d": 275.18644791666884,
      "v": 110
    },
    {
      "midi": 50,
      "hit": false,
      "t": 94701.4515000002,
      "d": 219.21632291666174,
      "v": 110
    },
    {
      "midi": 50,
      "hit": false,
      "t": 94925.3320000002,
      "d": 373.13416666667035,
      "v": 110
    },
    {
      "midi": 81,
      "hit": false,
      "t": 94925.3320000002,
      "d": 1679.1037500000093,
      "v": 110
    },
    {
      "midi": 69,
      "hit": false,
      "t": 95149.2125000002,
      "d": 107.27607291666209,
      "v": 110
    },
    {
      "midi": 72,
      "hit": false,
      "t": 95261.1527500002,
      "d": 107.27607291667664,
      "v": 110
    },
    {
      "midi": 45,
      "hit": false,
      "t": 95373.09300000021,
      "d": 219.21632291666174,
      "v": 110
    },
    {
      "midi": 74,
      "hit": false,
      "t": 95373.09300000021,
      "d": 1231.3427499999962,
      "v": 110
    },
    {
      "midi": 50,
      "hit": false,
      "t": 95596.97350000021,
      "d": 443.09682291666104,
      "v": 110
    },
    {
      "midi": 45,
      "hit": false,
      "t": 96044.73450000021,
      "d": 219.21632291666174,
      "v": 110
    },
    {
      "midi": 50,
      "hit": false,
      "t": 96268.61500000021,
      "d": 219.21632291666174,
      "v": 110
    },
    {
      "midi": 45,
      "hit": false,
      "t": 96492.49550000021,
      "d": 219.21632291666174,
      "v": 110
    },
    {
      "midi": 50,
      "hit": false,
      "t": 96716.37600000021,
      "d": 373.13416666667035,
      "v": 110
    },
    {
      "midi": 78,
      "hit": false,
      "t": 96716.37600000021,
      "d": 597.0146666666697,
      "v": 110
    },
    {
      "midi": 74,
      "hit": false,
      "t": 96716.37600000021,
      "d": 1226.6785729166731,
      "v": 110
    },
    {
      "midi": 45,
      "hit": false,
      "t": 97164.1370000002,
      "d": 219.2163229166763,
      "v": 110
    },
    {
      "midi": 50,
      "hit": false,
      "t": 97388.01750000022,
      "d": 443.09682291666104,
      "v": 110
    },
    {
      "midi": 76,
      "hit": false,
      "t": 97388.01750000022,
      "d": 597.0146666666697,
      "v": 110
    },
    {
      "midi": 45,
      "hit": false,
      "t": 97835.77850000022,
      "d": 219.2163229166763,
      "v": 110
    },
    {
      "midi": 69,
      "hit": false,
      "t": 97947.71875000022,
      "d": 275.1864479166834,
      "v": 110
    },
    {
      "midi": 50,
      "hit": false,
      "t": 98059.65900000023,
      "d": 219.2163229166763,
      "v": 110
    },
    {
      "midi": 74,
      "hit": false,
      "t": 98227.56937500024,
      "d": 205.22379166667815,
      "v": 110
    },
    {
      "midi": 52,
      "hit": false,
      "t": 98283.53950000025,
      "d": 219.2163229166763,
      "v": 110
    }
  ]
}