{
  "jsonPath": "Unknown/Unknown/CDM Project/tears-dont-lie.json",
  "path": "Unknown\\Unknown\\CDM Project\\Tears Dont Lie.mid",
  "name": "Tears Dont Lie",
  "difficulty": "Advanced",
  "bpm": 166.00035966744593,
  "notes": [
    {
      "midi": 55,
      "hit": false,
      "t": 2891.56,
      "d": 1402.4819010416682,
      "v": 65
    },
    {
      "midi": 67,
      "hit": false,
      "t": 3072.2825,
      "d": 267.3186979166667,
      "v": 66
    },
    {
      "midi": 71,
      "hit": false,
      "t": 3253.0049999999997,
      "d": 267.31869791666713,
      "v": 79
    },
    {
      "midi": 74,
      "hit": false,
      "t": 3433.7275,
      "d": 267.31869791666713,
      "v": 69
    },
    {
      "midi": 79,
      "hit": false,
      "t": 3614.4500000000003,
      "d": 267.31869791666713,
      "v": 79
    },
    {
      "midi": 74,
      "hit": false,
      "t": 3795.1725000000006,
      "d": 267.31869791666713,
      "v": 65
    },
    {
      "midi": 71,
      "hit": false,
      "t": 3975.895000000001,
      "d": 267.31869791666713,
      "v": 79
    },
    {
      "midi": 67,
      "hit": false,
      "t": 4156.617500000001,
      "d": 267.3186979166667,
      "v": 69
    },
    {
      "midi": 54,
      "hit": false,
      "t": 4337.340000000001,
      "d": 1413.777057291666,
      "v": 71
    },
    {
      "midi": 62,
      "hit": false,
      "t": 4518.062500000001,
      "d": 267.3186979166667,
      "v": 66
    },
    {
      "midi": 66,
      "hit": false,
      "t": 4698.785000000001,
      "d": 267.3186979166667,
      "v": 79
    },
    {
      "midi": 69,
      "hit": false,
      "t": 4879.507500000001,
      "d": 267.3186979166667,
      "v": 69
    },
    {
      "midi": 74,
      "hit": false,
      "t": 5060.2300000000005,
      "d": 267.3186979166667,
      "v": 79
    },
    {
      "midi": 69,
      "hit": false,
      "t": 5240.9525,
      "d": 267.3186979166667,
      "v": 65
    },
    {
      "midi": 66,
      "hit": false,
      "t": 5421.675,
      "d": 267.3186979166667,
      "v": 79
    },
    {
      "midi": 62,
      "hit": false,
      "t": 5602.3975,
      "d": 267.3186979166676,
      "v": 69
    },
    {
      "midi": 55,
      "hit": false,
      "t": 5783.120000000001,
      "d": 1413.777057291666,
      "v": 79
    },
    {
      "midi": 67,
      "hit": false,
      "t": 5963.842500000001,
      "d": 267.3186979166667,
      "v": 66
    },
    {
      "midi": 71,
      "hit": false,
      "t": 6144.5650000000005,
      "d": 267.3186979166667,
      "v": 79
    },
    {
      "midi": 74,
      "hit": false,
      "t": 6325.2875,
      "d": 267.3186979166667,
      "v": 62
    },
    {
      "midi": 79,
      "hit": false,
      "t": 6506.01,
      "d": 267.3186979166667,
      "v": 79
    },
    {
      "midi": 74,
      "hit": false,
      "t": 6686.7325,
      "d": 267.3186979166667,
      "v": 65
    },
    {
      "midi": 71,
      "hit": false,
      "t": 6867.455,
      "d": 267.3186979166667,
      "v": 79
    },
    {
      "midi": 67,
      "hit": false,
      "t": 7048.1775,
      "d": 267.3186979166676,
      "v": 69
    },
    {
      "midi": 55,
      "hit": false,
      "t": 7228.900000000001,
      "d": 1419.4246354166653,
      "v": 79
    },
    {
      "midi": 67,
      "hit": false,
      "t": 7409.6225,
      "d": 267.3186979166667,
      "v": 66
    },
    {
      "midi": 71,
      "hit": false,
      "t": 7590.345,
      "d": 267.3186979166667,
      "v": 79
    },
    {
      "midi": 74,
      "hit": false,
      "t": 7771.0675,
      "d": 267.3186979166667,
      "v": 62
    },
    {
      "midi": 79,
      "hit": false,
      "t": 7951.79,
      "d": 267.3186979166667,
      "v": 79
    },
    {
      "midi": 74,
      "hit": false,
      "t": 8132.5125,
      "d": 267.3186979166667,
      "v": 65
    },
    {
      "midi": 71,
      "hit": false,
      "t": 8313.235,
      "d": 267.31869791666577,
      "v": 79
    },
    {
      "midi": 67,
      "hit": false,
      "t": 8493.9575,
      "d": 267.31869791666395,
      "v": 69
    },
    {
      "midi": 54,
      "hit": false,
      "t": 8674.679999999998,
      "d": 1425.0722135416654,
      "v": 65
    },
    {
      "midi": 71,
      "hit": false,
      "t": 8855.402499999998,
      "d": 267.31869791666577,
      "v": 54
    },
    {
      "midi": 74,
      "hit": false,
      "t": 9036.124999999998,
      "d": 267.31869791666577,
      "v": 71
    },
    {
      "midi": 78,
      "hit": false,
      "t": 9216.847499999998,
      "d": 267.31869791666577,
      "v": 54
    },
    {
      "midi": 83,
      "hit": false,
      "t": 9397.569999999998,
      "d": 267.31869791666577,
      "v": 79
    },
    {
      "midi": 78,
      "hit": false,
      "t": 9578.292499999998,
      "d": 267.31869791666577,
      "v": 54
    },
    {
      "midi": 74,
      "hit": false,
      "t": 9759.014999999998,
      "d": 267.31869791666577,
      "v": 65
    },
    {
      "midi": 71,
      "hit": false,
      "t": 9939.737499999997,
      "d": 267.31869791666577,
      "v": 54
    },
    {
      "midi": 55,
      "hit": false,
      "t": 10120.459999999997,
      "d": 1413.7770572916652,
      "v": 71
    },
    {
      "midi": 72,
      "hit": false,
      "t": 10301.182499999997,
      "d": 267.31869791666577,
      "v": 66
    },
    {
      "midi": 76,
      "hit": false,
      "t": 10481.904999999997,
      "d": 267.31869791666577,
      "v": 79
    },
    {
      "midi": 79,
      "hit": false,
      "t": 10662.627499999997,
      "d": 267.31869791666577,
      "v": 54
    },
    {
      "midi": 84,
      "hit": false,
      "t": 10843.349999999997,
      "d": 267.31869791666577,
      "v": 79
    },
    {
      "midi": 79,
      "hit": false,
      "t": 11024.072499999997,
      "d": 267.31869791666577,
      "v": 65
    },
    {
      "midi": 76,
      "hit": false,
      "t": 11204.794999999996,
      "d": 267.31869791666577,
      "v": 71
    },
    {
      "midi": 72,
      "hit": false,
      "t": 11385.517499999996,
      "d": 267.31869791666577,
      "v": 54
    },
    {
      "midi": 57,
      "hit": false,
      "t": 11566.239999999996,
      "d": 1396.8343229166658,
      "v": 71
    },
    {
      "midi": 74,
      "hit": false,
      "t": 11746.962499999996,
      "d": 267.31869791666577,
      "v": 54
    },
    {
      "midi": 78,
      "hit": false,
      "t": 11927.684999999996,
      "d": 267.31869791666577,
      "v": 71
    },
    {
      "midi": 81,
      "hit": false,
      "t": 12108.407499999996,
      "d": 267.31869791666577,
      "v": 54
    },
    {
      "midi": 86,
      "hit": false,
      "t": 12289.129999999996,
      "d": 267.31869791666577,
      "v": 79
    },
    {
      "midi": 81,
      "hit": false,
      "t": 12469.852499999995,
      "d": 267.31869791666577,
      "v": 65
    },
    {
      "midi": 90,
      "hit": false,
      "t": 12650.574999999995,
      "d": 267.31869791666577,
      "v": 79
    },
    {
      "midi": 81,
      "hit": false,
      "t": 12831.297499999995,
      "d": 267.31869791666577,
      "v": 54
    },
    {
      "midi": 57,
      "hit": false,
      "t": 13012.019999999995,
      "d": 1396.8343229166658,
      "v": 79
    },
    {
      "midi": 74,
      "hit": false,
      "t": 13192.742499999995,
      "d": 267.31869791666577,
      "v": 66
    },
    {
      "midi": 78,
      "hit": false,
      "t": 13373.464999999995,
      "d": 267.31869791666577,
      "v": 79
    },
    {
      "midi": 81,
      "hit": false,
      "t": 13554.187499999995,
      "d": 267.31869791666577,
      "v": 54
    },
    {
      "midi": 86,
      "hit": false,
      "t": 13734.909999999994,
      "d": 267.31869791666577,
      "v": 79
    },
    {
      "midi": 81,
      "hit": false,
      "t": 13915.632499999994,
      "d": 267.31869791666577,
      "v": 65
    },
    {
      "midi": 90,
      "hit": false,
      "t": 14096.354999999994,
      "d": 267.31869791666577,
      "v": 65
    },
    {
      "midi": 81,
      "hit": false,
      "t": 14277.077499999994,
      "d": 267.31869791666577,
      "v": 69
    },
    {
      "midi": 60,
      "hit": false,
      "t": 14457.799999999994,
      "d": 1408.1294791666642,
      "v": 79
    },
    {
      "midi": 72,
      "hit": false,
      "t": 14638.522499999994,
      "d": 267.31869791666577,
      "v": 66
    },
    {
      "midi": 76,
      "hit": false,
      "t": 14819.244999999994,
      "d": 267.31869791666577,
      "v": 79
    },
    {
      "midi": 84,
      "hit": false,
      "t": 14999.967499999993,
      "d": 267.31869791666577,
      "v": 62
    },
    {
      "midi": 79,
      "hit": false,
      "t": 15180.689999999993,
      "d": 267.31869791666577,
      "v": 79
    },
    {
      "midi": 76,
      "hit": false,
      "t": 15361.412499999993,
      "d": 267.31869791666577,
      "v": 62
    },
    {
      "midi": 72,
      "hit": false,
      "t": 15542.134999999993,
      "d": 267.31869791666577,
      "v": 79
    },
    {
      "midi": 76,
      "hit": false,
      "t": 15722.857499999993,
      "d": 267.31869791666395,
      "v": 54
    },
    {
      "midi": 62,
      "hit": false,
      "t": 15903.57999999999,
      "d": 1419.424635416668,
      "v": 79
    },
    {
      "midi": 74,
      "hit": false,
      "t": 16084.30249999999,
      "d": 267.31869791666577,
      "v": 54
    },
    {
      "midi": 78,
      "hit": false,
      "t": 16265.02499999999,
      "d": 267.3186979166676,
      "v": 65
    },
    {
      "midi": 86,
      "hit": false,
      "t": 16445.74749999999,
      "d": 267.3186979166676,
      "v": 54
    },
    {
      "midi": 81,
      "hit": false,
      "t": 16626.46999999999,
      "d": 267.3186979166676,
      "v": 71
    },
    {
      "midi": 78,
      "hit": false,
      "t": 16807.19249999999,
      "d": 267.3186979166676,
      "v": 65
    },
    {
      "midi": 74,
      "hit": false,
      "t": 16987.91499999999,
      "d": 267.3186979166676,
      "v": 71
    },
    {
      "midi": 78,
      "hit": false,
      "t": 17168.63749999999,
      "d": 267.3186979166712,
      "v": 62
    },
    {
      "midi": 59,
      "hit": false,
      "t": 17349.359999999993,
      "d": 1425.0722135416654,
      "v": 71
    },
    {
      "midi": 71,
      "hit": false,
      "t": 17530.082499999993,
      "d": 267.3186979166676,
      "v": 66
    },
    {
      "midi": 74,
      "hit": false,
      "t": 17710.804999999993,
      "d": 267.3186979166676,
      "v": 79
    },
    {
      "midi": 83,
      "hit": false,
      "t": 17891.527499999993,
      "d": 267.3186979166676,
      "v": 62
    },
    {
      "midi": 78,
      "hit": false,
      "t": 18072.249999999993,
      "d": 267.3186979166676,
      "v": 79
    },
    {
      "midi": 74,
      "hit": false,
      "t": 18252.972499999993,
      "d": 267.3186979166676,
      "v": 65
    },
    {
      "midi": 71,
      "hit": false,
      "t": 18433.694999999992,
      "d": 267.3186979166676,
      "v": 79
    },
    {
      "midi": 74,
      "hit": false,
      "t": 18614.417499999992,
      "d": 267.3186979166676,
      "v": 69
    },
    {
      "midi": 64,
      "hit": false,
      "t": 18795.139999999992,
      "d": 1425.0722135416654,
      "v": 79
    },
    {
      "midi": 76,
      "hit": false,
      "t": 18975.862499999992,
      "d": 267.3186979166676,
      "v": 66
    },
    {
      "midi": 83,
      "hit": false,
      "t": 19156.584999999992,
      "d": 267.3186979166676,
      "v": 79
    },
    {
      "midi": 79,
      "hit": false,
      "t": 19337.30749999999,
      "d": 267.3186979166676,
      "v": 62
    },
    {
      "midi": 88,
      "hit": false,
      "t": 19518.02999999999,
      "d": 267.3186979166676,
      "v": 79
    },
    {
      "midi": 83,
      "hit": false,
      "t": 19698.75249999999,
      "d": 267.3186979166676,
      "v": 65
    },
    {
      "midi": 88,
      "hit": false,
      "t": 19879.47499999999,
      "d": 267.3186979166676,
      "v": 79
    },
    {
      "midi": 91,
      "hit": false,
      "t": 20060.19749999999,
      "d": 267.3186979166676,
      "v": 62
    },
    {
      "midi": 93,
      "hit": false,
      "t": 20240.91999999999,
      "d": 267.3186979166676,
      "v": 79
    },
    {
      "midi": 62,
      "hit": false,
      "t": 20240.91999999999,
      "d": 1402.481901041665,
      "v": 79
    },
    {
      "midi": 78,
      "hit": false,
      "t": 20421.64249999999,
      "d": 267.3186979166676,
      "v": 66
    },
    {
      "midi": 81,
      "hit": false,
      "t": 20602.36499999999,
      "d": 267.3186979166676,
      "v": 71
    },
    {
      "midi": 86,
      "hit": false,
      "t": 20783.08749999999,
      "d": 267.3186979166676,
      "v": 54
    },
    {
      "midi": 81,
      "hit": false,
      "t": 20963.80999999999,
      "d": 267.3186979166676,
      "v": 79
    },
    {
      "midi": 78,
      "hit": false,
      "t": 21144.53249999999,
      "d": 267.3186979166676,
      "v": 65
    },
    {
      "midi": 74,
      "hit": false,
      "t": 21325.25499999999,
      "d": 267.3186979166676,
      "v": 79
    },
    {
      "midi": 78,
      "hit": false,
      "t": 21505.97749999999,
      "d": 267.3186979166676,
      "v": 54
    },
    {
      "midi": 57,
      "hit": false,
      "t": 21686.69999999999,
      "d": 1413.777057291667,
      "v": 79
    },
    {
      "midi": 69,
      "hit": false,
      "t": 21867.42249999999,
      "d": 267.3186979166676,
      "v": 66
    },
    {
      "midi": 76,
      "hit": false,
      "t": 22048.14499999999,
      "d": 267.3186979166676,
      "v": 71
    },
    {
      "midi": 84,
      "hit": false,
      "t": 22228.86749999999,
      "d": 267.3186979166676,
      "v": 62
    },
    {
      "midi": 81,
      "hit": false,
      "t": 22409.58999999999,
      "d": 267.3186979166676,
      "v": 79
    },
    {
      "midi": 76,
      "hit": false,
      "t": 22590.31249999999,
      "d": 267.3186979166676,
      "v": 54
    },
    {
      "midi": 72,
      "hit": false,
      "t": 22771.03499999999,
      "d": 267.3186979166676,
      "v": 71
    },
    {
      "midi": 76,
      "hit": false,
      "t": 22951.75749999999,
      "d": 267.3186979166676,
      "v": 54
    },
    {
      "midi": 55,
      "hit": false,
      "t": 23132.47999999999,
      "d": 1402.481901041665,
      "v": 71
    },
    {
      "midi": 67,
      "hit": false,
      "t": 23313.20249999999,
      "d": 267.3186979166676,
      "v": 66
    },
    {
      "midi": 74,
      "hit": false,
      "t": 23493.92499999999,
      "d": 267.3186979166676,
      "v": 79
    },
    {
      "midi": 79,
      "hit": false,
      "t": 23674.64749999999,
      "d": 267.3186979166676,
      "v": 62
    },
    {
      "midi": 74,
      "hit": false,
      "t": 23855.369999999988,
      "d": 267.3186979166676,
      "v": 79
    },
    {
      "midi": 71,
      "hit": false,
      "t": 24036.092499999988,
      "d": 267.3186979166676,
      "v": 65
    },
    {
      "midi": 67,
      "hit": false,
      "t": 24216.814999999988,
      "d": 267.3186979166676,
      "v": 79
    },
    {
      "midi": 71,
      "hit": false,
      "t": 24397.537499999988,
      "d": 267.3186979166676,
      "v": 54
    },
    {
      "midi": 59,
      "hit": false,
      "t": 24578.259999999987,
      "d": 131.7768229166686,
      "v": 53
    },
    {
      "midi": 50,
      "hit": false,
      "t": 24578.259999999987,
      "d": 1082.452473958354,
      "v": 69
    },
    {
      "midi": 47,
      "hit": false,
      "t": 24578.259999999987,
      "d": 2249.618619791694,
      "v": 69
    },
    {
      "midi": 55,
      "hit": false,
      "t": 24668.62124999999,
      "d": 133.6593489583356,
      "v": 39
    },
    {
      "midi": 62,
      "hit": false,
      "t": 24758.98249999999,
      "d": 135.54187500000262,
      "v": 56
    },
    {
      "midi": 59,
      "hit": false,
      "t": 24849.343749999993,
      "d": 133.6593489583356,
      "v": 56
    },
    {
      "midi": 67,
      "hit": false,
      "t": 24939.704999999994,
      "d": 133.6593489583356,
      "v": 64
    },
    {
      "midi": 62,
      "hit": false,
      "t": 25030.066249999996,
      "d": 137.42440104166963,
      "v": 56
    },
    {
      "midi": 71,
      "hit": false,
      "t": 25120.427499999998,
      "d": 133.6593489583356,
      "v": 64
    },
    {
      "midi": 67,
      "hit": false,
      "t": 25210.78875,
      "d": 135.54187500000262,
      "v": 69
    },
    {
      "midi": 74,
      "hit": false,
      "t": 25301.15,
      "d": 133.6593489583356,
      "v": 56
    },
    {
      "midi": 71,
      "hit": false,
      "t": 25391.511250000003,
      "d": 133.6593489583356,
      "v": 60
    },
    {
      "midi": 79,
      "hit": false,
      "t": 25481.872500000005,
      "d": 133.6593489583356,
      "v": 64
    },
    {
      "midi": 74,
      "hit": false,
      "t": 25572.233750000007,
      "d": 139.30692708333663,
      "v": 56
    },
    {
      "midi": 50,
      "hit": false,
      "t": 25662.59500000001,
      "d": 133.6593489583356,
      "v": 69
    },
    {
      "midi": 83,
      "hit": false,
      "t": 25662.59500000001,
      "d": 133.6593489583356,
      "v": 69
    },
    {
      "midi": 79,
      "hit": false,
      "t": 25752.95625000001,
      "d": 131.7768229166686,
      "v": 60
    },
    {
      "midi": 86,
      "hit": false,
      "t": 25843.317500000012,
      "d": 131.7768229166686,
      "v": 73
    },
    {
      "midi": 91,
      "hit": false,
      "t": 25933.678750000014,
      "d": 346.3847916666673,
      "v": 79
    },
    {
      "midi": 55,
      "hit": false,
      "t": 27469.820000000014,
      "d": 1402.481901041665,
      "v": 65
    },
    {
      "midi": 67,
      "hit": false,
      "t": 27650.542500000014,
      "d": 267.3186979166676,
      "v": 66
    },
    {
      "midi": 71,
      "hit": false,
      "t": 27831.265000000014,
      "d": 267.3186979166676,
      "v": 79
    },
    {
      "midi": 74,
      "hit": false,
      "t": 28011.987500000014,
      "d": 267.3186979166676,
      "v": 69
    },
    {
      "midi": 79,
      "hit": false,
      "t": 28192.710000000014,
      "d": 267.3186979166676,
      "v": 79
    },
    {
      "midi": 74,
      "hit": false,
      "t": 28373.432500000014,
      "d": 267.3186979166676,
      "v": 65
    },
    {
      "midi": 71,
      "hit": false,
      "t": 28554.155000000013,
      "d": 267.3186979166676,
      "v": 79
    },
    {
      "midi": 67,
      "hit": false,
      "t": 28734.877500000013,
      "d": 267.3186979166676,
      "v": 69
    },
    {
      "midi": 54,
      "hit": false,
      "t": 28915.600000000013,
      "d": 1413.777057291667,
      "v": 71
    },
    {
      "midi": 62,
      "hit": false,
      "t": 29096.322500000013,
      "d": 267.3186979166676,
      "v": 66
    },
    {
      "midi": 66,
      "hit": false,
      "t": 29277.045000000013,
      "d": 267.3186979166676,
      "v": 79
    },
    {
      "midi": 69,
      "hit": false,
      "t": 29457.767500000013,
      "d": 267.3186979166676,
      "v": 69
    },
    {
      "midi": 74,
      "hit": false,
      "t": 29638.490000000013,
      "d": 267.3186979166676,
      "v": 79
    },
    {
      "midi": 69,
      "hit": false,
      "t": 29819.212500000012,
      "d": 267.3186979166676,
      "v": 65
    },
    {
      "midi": 66,
      "hit": false,
      "t": 29999.935000000012,
      "d": 267.3186979166676,
      "v": 79
    },
    {
      "midi": 62,
      "hit": false,
      "t": 30180.657500000012,
      "d": 267.3186979166676,
      "v": 69
    },
    {
      "midi": 55,
      "hit": false,
      "t": 30361.380000000012,
      "d": 1413.777057291667,
      "v": 79
    },
    {
      "midi": 67,
      "hit": false,
      "t": 30542.10250000001,
      "d": 267.3186979166676,
      "v": 66
    },
    {
      "midi": 71,
      "hit": false,
      "t": 30722.82500000001,
      "d": 267.3186979166676,
      "v": 79
    },
    {
      "midi": 74,
      "hit": false,
      "t": 30903.54750000001,
      "d": 267.3186979166676,
      "v": 62
    },
    {
      "midi": 79,
      "hit": false,
      "t": 31084.27000000001,
      "d": 267.3186979166676,
      "v": 79
    },
    {
      "midi": 74,
      "hit": false,
      "t": 31264.99250000001,
      "d": 267.3186979166676,
      "v": 65
    },
    {
      "midi": 71,
      "hit": false,
      "t": 31445.71500000001,
      "d": 267.3186979166676,
      "v": 79
    },
    {
      "midi": 67,
      "hit": false,
      "t": 31626.43750000001,
      "d": 267.3186979166676,
      "v": 69
    },
    {
      "midi": 55,
      "hit": false,
      "t": 31807.16000000001,
      "d": 1419.424635416668,
      "v": 79
    },
    {
      "midi": 67,
      "hit": false,
      "t": 31987.88250000001,
      "d": 267.3186979166676,
      "v": 66
    },
    {
      "midi": 71,
      "hit": false,
      "t": 32168.60500000001,
      "d": 267.3186979166676,
      "v": 79
    },
    {
      "midi": 74,
      "hit": false,
      "t": 32349.32750000001,
      "d": 267.3186979166676,
      "v": 62
    },
    {
      "midi": 79,
      "hit": false,
      "t": 32530.05000000001,
      "d": 267.31869791666395,
      "v": 79
    },
    {
      "midi": 74,
      "hit": false,
      "t": 32710.77250000001,
      "d": 267.3186979166676,
      "v": 65
    },
    {
      "midi": 71,
      "hit": false,
      "t": 32891.49500000001,
      "d": 267.3186979166712,
      "v": 79
    },
    {
      "midi": 67,
      "hit": false,
      "t": 33072.21750000001,
      "d": 267.31869791666395,
      "v": 69
    },
    {
      "midi": 54,
      "hit": false,
      "t": 33252.94000000001,
      "d": 1425.0722135416945,
      "v": 65
    },
    {
      "midi": 71,
      "hit": false,
      "t": 33433.66250000001,
      "d": 267.3186979166712,
      "v": 54
    },
    {
      "midi": 74,
      "hit": false,
      "t": 33614.38500000002,
      "d": 267.3186979166712,
      "v": 71
    },
    {
      "midi": 78,
      "hit": false,
      "t": 33795.10750000002,
      "d": 267.3186979166712,
      "v": 54
    },
    {
      "midi": 83,
      "hit": false,
      "t": 33975.83000000002,
      "d": 267.3186979166712,
      "v": 79
    },
    {
      "midi": 78,
      "hit": false,
      "t": 34156.55250000003,
      "d": 267.3186979166712,
      "v": 54
    },
    {
      "midi": 74,
      "hit": false,
      "t": 34337.27500000003,
      "d": 267.3186979166712,
      "v": 65
    },
    {
      "midi": 71,
      "hit": false,
      "t": 34517.997500000034,
      "d": 267.3186979166712,
      "v": 54
    },
    {
      "midi": 55,
      "hit": false,
      "t": 34698.72000000004,
      "d": 1413.7770572916925,
      "v": 71
    },
    {
      "midi": 72,
      "hit": false,
      "t": 34879.44250000004,
      "d": 267.3186979166712,
      "v": 66
    },
    {
      "midi": 76,
      "hit": false,
      "t": 35060.165000000045,
      "d": 267.3186979166712,
      "v": 79
    },
    {
      "midi": 79,
      "hit": false,
      "t": 35240.88750000005,
      "d": 267.3186979166712,
      "v": 54
    },
    {
      "midi": 84,
      "hit": false,
      "t": 35421.61000000005,
      "d": 267.3186979166712,
      "v": 79
    },
    {
      "midi": 79,
      "hit": false,
      "t": 35602.332500000055,
      "d": 267.3186979166712,
      "v": 65
    },
    {
      "midi": 76,
      "hit": false,
      "t": 35783.05500000006,
      "d": 267.3186979166712,
      "v": 71
    },
    {
      "midi": 72,
      "hit": false,
      "t": 35963.77750000006,
      "d": 267.3186979166712,
      "v": 54
    },
    {
      "midi": 57,
      "hit": false,
      "t": 36144.500000000065,
      "d": 1396.834322916693,
      "v": 71
    },
    {
      "midi": 74,
      "hit": false,
      "t": 36325.22250000007,
      "d": 267.3186979166712,
      "v": 54
    },
    {
      "midi": 78,
      "hit": false,
      "t": 36505.94500000007,
      "d": 267.3186979166712,
      "v": 71
    },
    {
      "midi": 81,
      "hit": false,
      "t": 36686.667500000076,
      "d": 267.3186979166712,
      "v": 54
    },
    {
      "midi": 86,
      "hit": false,
      "t": 36867.39000000008,
      "d": 267.3186979166712,
      "v": 79
    },
    {
      "midi": 81,
      "hit": false,
      "t": 37048.11250000008,
      "d": 267.3186979166712,
      "v": 65
    },
    {
      "midi": 90,
      "hit": false,
      "t": 37228.83500000009,
      "d": 267.3186979166712,
      "v": 79
    },
    {
      "midi": 81,
      "hit": false,
      "t": 37409.55750000009,
      "d": 267.3186979166712,
      "v": 54
    },
    {
      "midi": 57,
      "hit": false,
      "t": 37590.28000000009,
      "d": 1396.834322916693,
      "v": 79
    },
    {
      "midi": 74,
      "hit": false,
      "t": 37771.0025000001,
      "d": 267.3186979166712,
      "v": 66
    },
    {
      "midi": 78,
      "hit": false,
      "t": 37951.7250000001,
      "d": 267.3186979166712,
      "v": 79
    },
    {
      "midi": 81,
      "hit": false,
      "t": 38132.447500000104,
      "d": 267.3186979166712,
      "v": 54
    },
    {
      "midi": 86,
      "hit": false,
      "t": 38313.17000000011,
      "d": 267.3186979166712,
      "v": 79
    },
    {
      "midi": 81,
      "hit": false,
      "t": 38493.89250000011,
      "d": 267.3186979166712,
      "v": 65
    },
    {
      "midi": 90,
      "hit": false,
      "t": 38674.615000000114,
      "d": 267.3186979166712,
      "v": 65
    },
    {
      "midi": 81,
      "hit": false,
      "t": 38855.33750000012,
      "d": 267.3186979166712,
      "v": 69
    },
    {
      "midi": 60,
      "hit": false,
      "t": 39036.06000000012,
      "d": 1408.129479166695,
      "v": 79
    },
    {
      "midi": 72,
      "hit": false,
      "t": 39216.782500000125,
      "d": 267.3186979166712,
      "v": 66
    },
    {
      "midi": 76,
      "hit": false,
      "t": 39397.50500000013,
      "d": 267.3186979166712,
      "v": 79
    },
    {
      "midi": 84,
      "hit": false,
      "t": 39578.22750000013,
      "d": 267.3186979166712,
      "v": 62
    },
    {
      "midi": 79,
      "hit": false,
      "t": 39758.950000000135,
      "d": 267.3186979166712,
      "v": 79
    },
    {
      "midi": 76,
      "hit": false,
      "t": 39939.67250000014,
      "d": 267.3186979166712,
      "v": 62
    },
    {
      "midi": 72,
      "hit": false,
      "t": 40120.39500000014,
      "d": 267.3186979166712,
      "v": 79
    },
    {
      "midi": 76,
      "hit": false,
      "t": 40301.117500000146,
      "d": 267.3186979166712,
      "v": 54
    },
    {
      "midi": 62,
      "hit": false,
      "t": 40481.84000000015,
      "d": 1419.4246354166899,
      "v": 79
    },
    {
      "midi": 74,
      "hit": false,
      "t": 40662.56250000015,
      "d": 267.3186979166712,
      "v": 54
    },
    {
      "midi": 78,
      "hit": false,
      "t": 40843.285000000156,
      "d": 267.3186979166712,
      "v": 65
    },
    {
      "midi": 86,
      "hit": false,
      "t": 41024.00750000016,
      "d": 267.3186979166712,
      "v": 54
    },
    {
      "midi": 81,
      "hit": false,
      "t": 41204.73000000016,
      "d": 267.3186979166712,
      "v": 71
    },
    {
      "midi": 78,
      "hit": false,
      "t": 41385.45250000017,
      "d": 267.3186979166712,
      "v": 65
    },
    {
      "midi": 74,
      "hit": false,
      "t": 41566.17500000017,
      "d": 267.3186979166712,
      "v": 71
    },
    {
      "midi": 78,
      "hit": false,
      "t": 41746.897500000174,
      "d": 267.31869791666395,
      "v": 62
    },
    {
      "midi": 59,
      "hit": false,
      "t": 41927.62000000017,
      "d": 1425.0722135416945,
      "v": 71
    },
    {
      "midi": 71,
      "hit": false,
      "t": 42108.34250000017,
      "d": 267.3186979166712,
      "v": 66
    },
    {
      "midi": 74,
      "hit": false,
      "t": 42289.06500000018,
      "d": 267.3186979166712,
      "v": 79
    },
    {
      "midi": 83,
      "hit": false,
      "t": 42469.78750000018,
      "d": 267.3186979166712,
      "v": 62
    },
    {
      "midi": 78,
      "hit": false,
      "t": 42650.510000000184,
      "d": 267.3186979166712,
      "v": 79
    },
    {
      "midi": 74,
      "hit": false,
      "t": 42831.23250000019,
      "d": 267.3186979166712,
      "v": 65
    },
    {
      "midi": 71,
      "hit": false,
      "t": 43011.95500000019,
      "d": 267.3186979166712,
      "v": 79
    },
    {
      "midi": 74,
      "hit": false,
      "t": 43192.677500000194,
      "d": 267.3186979166712,
      "v": 69
    },
    {
      "midi": 64,
      "hit": false,
      "t": 43373.4000000002,
      "d": 1425.0722135416945,
      "v": 79
    },
    {
      "midi": 76,
      "hit": false,
      "t": 43554.1225000002,
      "d": 267.3186979166712,
      "v": 66
    },
    {
      "midi": 83,
      "hit": false,
      "t": 43734.845000000205,
      "d": 267.3186979166712,
      "v": 79
    },
    {
      "midi": 79,
      "hit": false,
      "t": 43915.56750000021,
      "d": 267.3186979166712,
      "v": 62
    },
    {
      "midi": 88,
      "hit": false,
      "t": 44096.29000000021,
      "d": 267.3186979166712,
      "v": 79
    },
    {
      "midi": 83,
      "hit": false,
      "t": 44277.012500000215,
      "d": 267.3186979166712,
      "v": 65
    },
    {
      "midi": 88,
      "hit": false,
      "t": 44457.73500000022,
      "d": 267.3186979166712,
      "v": 79
    },
    {
      "midi": 91,
      "hit": false,
      "t": 44638.45750000022,
      "d": 267.3186979166712,
      "v": 62
    },
    {
      "midi": 93,
      "hit": false,
      "t": 44819.180000000226,
      "d": 267.3186979166712,
      "v": 79
    },
    {
      "midi": 62,
      "hit": false,
      "t": 44819.180000000226,
      "d": 1402.4819010416904,
      "v": 79
    },
    {
      "midi": 78,
      "hit": false,
      "t": 44999.90250000023,
      "d": 267.3186979166712,
      "v": 66
    },
    {
      "midi": 81,
      "hit": false,
      "t": 45180.62500000023,
      "d": 267.3186979166712,
      "v": 71
    },
    {
      "midi": 86,
      "hit": false,
      "t": 45361.347500000236,
      "d": 267.3186979166712,
      "v": 54
    },
    {
      "midi": 81,
      "hit": false,
      "t": 45542.07000000024,
      "d": 267.3186979166712,
      "v": 79
    },
    {
      "midi": 78,
      "hit": false,
      "t": 45722.79250000024,
      "d": 267.3186979166712,
      "v": 65
    },
    {
      "midi": 74,
      "hit": false,
      "t": 45903.51500000025,
      "d": 267.3186979166712,
      "v": 79
    },
    {
      "midi": 78,
      "hit": false,
      "t": 46084.23750000025,
      "d": 267.31869791666395,
      "v": 54
    },
    {
      "midi": 57,
      "hit": false,
      "t": 46264.96000000025,
      "d": 1413.7770572916925,
      "v": 79
    },
    {
      "midi": 69,
      "hit": false,
      "t": 46445.68250000025,
      "d": 267.3186979166712,
      "v": 66
    },
    {
      "midi": 76,
      "hit": false,
      "t": 46626.40500000025,
      "d": 267.3186979166712,
      "v": 71
    },
    {
      "midi": 84,
      "hit": false,
      "t": 46807.12750000026,
      "d": 267.3186979166712,
      "v": 62
    },
    {
      "midi": 81,
      "hit": false,
      "t": 46987.85000000026,
      "d": 267.3186979166712,
      "v": 79
    },
    {
      "midi": 76,
      "hit": false,
      "t": 47168.572500000264,
      "d": 267.3186979166712,
      "v": 54
    },
    {
      "midi": 72,
      "hit": false,
      "t": 47349.29500000027,
      "d": 267.3186979166712,
      "v": 71
    },
    {
      "midi": 76,
      "hit": false,
      "t": 47530.01750000027,
      "d": 267.3186979166712,
      "v": 54
    },
    {
      "midi": 55,
      "hit": false,
      "t": 47710.740000000274,
      "d": 1402.4819010416904,
      "v": 71
    },
    {
      "midi": 67,
      "hit": false,
      "t": 47891.46250000028,
      "d": 267.3186979166712,
      "v": 66
    },
    {
      "midi": 74,
      "hit": false,
      "t": 48072.18500000028,
      "d": 267.3186979166712,
      "v": 79
    },
    {
      "midi": 79,
      "hit": false,
      "t": 48252.907500000285,
      "d": 267.3186979166712,
      "v": 62
    },
    {
      "midi": 74,
      "hit": false,
      "t": 48433.63000000029,
      "d": 267.3186979166712,
      "v": 79
    },
    {
      "midi": 71,
      "hit": false,
      "t": 48614.35250000029,
      "d": 267.3186979166712,
      "v": 65
    },
    {
      "midi": 67,
      "hit": false,
      "t": 48795.075000000295,
      "d": 267.3186979166712,
      "v": 79
    },
    {
      "midi": 71,
      "hit": false,
      "t": 48975.7975000003,
      "d": 267.31869791666395,
      "v": 54
    },
    {
      "midi": 59,
      "hit": false,
      "t": 49156.520000000295,
      "d": 131.7768229166686,
      "v": 53
    },
    {
      "midi": 50,
      "hit": false,
      "t": 49156.520000000295,
      "d": 1082.4524739582994,
      "v": 69
    },
    {
      "midi": 47,
      "hit": false,
      "t": 49156.520000000295,
      "d": 2249.618619791625,
      "v": 69
    },
    {
      "midi": 55,
      "hit": false,
      "t": 49246.8812500003,
      "d": 133.65934895833198,
      "v": 39
    },
    {
      "midi": 62,
      "hit": false,
      "t": 49337.2425000003,
      "d": 135.54187499999534,
      "v": 56
    },
    {
      "midi": 59,
      "hit": false,
      "t": 49427.60375000029,
      "d": 133.65934895833198,
      "v": 56
    },
    {
      "midi": 67,
      "hit": false,
      "t": 49517.965000000295,
      "d": 133.6593489583247,
      "v": 64
    },
    {
      "midi": 62,
      "hit": false,
      "t": 49608.32625000029,
      "d": 137.4244010416587,
      "v": 56
    },
    {
      "midi": 71,
      "hit": false,
      "t": 49698.687500000284,
      "d": 133.6593489583247,
      "v": 64
    },
    {
      "midi": 67,
      "hit": false,
      "t": 49789.04875000028,
      "d": 135.54187499999534,
      "v": 69
    },
    {
      "midi": 74,
      "hit": false,
      "t": 49879.41000000027,
      "d": 133.65934895833198,
      "v": 56
    },
    {
      "midi": 71,
      "hit": false,
      "t": 49969.771250000274,
      "d": 133.6593489583247,
      "v": 60
    },
    {
      "midi": 79,
      "hit": false,
      "t": 50060.13250000027,
      "d": 133.6593489583247,
      "v": 64
    },
    {
      "midi": 74,
      "hit": false,
      "t": 50150.49375000026,
      "d": 139.30692708332936,
      "v": 56
    },
    {
      "midi": 50,
      "hit": false,
      "t": 50240.85500000026,
      "d": 133.65934895833198,
      "v": 69
    },
    {
      "midi": 83,
      "hit": false,
      "t": 50240.85500000026,
      "d": 133.65934895833198,
      "v": 69
    },
    {
      "midi": 79,
      "hit": false,
      "t": 50331.21625000026,
      "d": 131.77682291666133,
      "v": 60
    },
    {
      "midi": 86,
      "hit": false,
      "t": 50421.577500000254,
      "d": 131.7768229166686,
      "v": 73
    },
    {
      "midi": 91,
      "hit": false,
      "t": 50511.938750000256,
      "d": 346.38479166666366,
      "v": 79
    },
    {
      "midi": 55,
      "hit": false,
      "t": 119999.74000000025,
      "d": 1402.4819010416104,
      "v": 65
    },
    {
      "midi": 67,
      "hit": false,
      "t": 120180.46250000026,
      "d": 267.31869791666395,
      "v": 66
    },
    {
      "midi": 71,
      "hit": false,
      "t": 120361.18500000026,
      "d": 267.3186979166494,
      "v": 79
    },
    {
      "midi": 74,
      "hit": false,
      "t": 120541.90750000025,
      "d": 267.3186979166494,
      "v": 69
    },
    {
      "midi": 79,
      "hit": false,
      "t": 120722.63000000024,
      "d": 267.3186979166494,
      "v": 79
    },
    {
      "midi": 74,
      "hit": false,
      "t": 120903.35250000023,
      "d": 267.3186979166494,
      "v": 65
    },
    {
      "midi": 71,
      "hit": false,
      "t": 121084.07500000022,
      "d": 267.3186979166494,
      "v": 79
    },
    {
      "midi": 67,
      "hit": false,
      "t": 121264.7975000002,
      "d": 267.3186979166494,
      "v": 69
    },
    {
      "midi": 54,
      "hit": false,
      "t": 121445.5200000002,
      "d": 1413.7770572915906,
      "v": 71
    },
    {
      "midi": 62,
      "hit": false,
      "t": 121626.24250000018,
      "d": 267.31869791666395,
      "v": 66
    },
    {
      "midi": 66,
      "hit": false,
      "t": 121806.96500000019,
      "d": 267.3186979166494,
      "v": 79
    },
    {
      "midi": 69,
      "hit": false,
      "t": 121987.68750000017,
      "d": 267.3186979166494,
      "v": 69
    },
    {
      "midi": 74,
      "hit": false,
      "t": 122168.41000000016,
      "d": 267.3186979166494,
      "v": 79
    },
    {
      "midi": 69,
      "hit": false,
      "t": 122349.13250000015,
      "d": 267.3186979166494,
      "v": 65
    },
    {
      "midi": 66,
      "hit": false,
      "t": 122529.85500000014,
      "d": 267.3186979166494,
      "v": 79
    },
    {
      "midi": 62,
      "hit": false,
      "t": 122710.57750000013,
      "d": 267.3186979166494,
      "v": 69
    },
    {
      "midi": 55,
      "hit": false,
      "t": 122891.30000000012,
      "d": 1413.7770572915906,
      "v": 79
    },
    {
      "midi": 67,
      "hit": false,
      "t": 123072.02250000011,
      "d": 267.31869791666395,
      "v": 66
    },
    {
      "midi": 71,
      "hit": false,
      "t": 123252.74500000011,
      "d": 267.3186979166494,
      "v": 79
    },
    {
      "midi": 74,
      "hit": false,
      "t": 123433.4675000001,
      "d": 267.3186979166494,
      "v": 62
    },
    {
      "midi": 79,
      "hit": false,
      "t": 123614.19000000009,
      "d": 267.3186979166494,
      "v": 79
    },
    {
      "midi": 74,
      "hit": false,
      "t": 123794.91250000008,
      "d": 267.3186979166494,
      "v": 65
    },
    {
      "midi": 71,
      "hit": false,
      "t": 123975.63500000007,
      "d": 267.3186979166494,
      "v": 79
    },
    {
      "midi": 67,
      "hit": false,
      "t": 124156.35750000006,
      "d": 267.3186979166494,
      "v": 69
    },
    {
      "midi": 55,
      "hit": false,
      "t": 124337.08000000005,
      "d": 1419.4246354165953,
      "v": 79
    },
    {
      "midi": 67,
      "hit": false,
      "t": 124517.80250000003,
      "d": 267.31869791666395,
      "v": 66
    },
    {
      "midi": 71,
      "hit": false,
      "t": 124698.52500000004,
      "d": 267.3186979166494,
      "v": 79
    },
    {
      "midi": 74,
      "hit": false,
      "t": 124879.24750000003,
      "d": 267.3186979166494,
      "v": 62
    },
    {
      "midi": 79,
      "hit": false,
      "t": 125059.97000000002,
      "d": 267.3186979166494,
      "v": 79
    },
    {
      "midi": 74,
      "hit": false,
      "t": 125240.6925,
      "d": 267.3186979166494,
      "v": 65
    },
    {
      "midi": 71,
      "hit": false,
      "t": 125421.415,
      "d": 267.3186979166494,
      "v": 79
    },
    {
      "midi": 67,
      "hit": false,
      "t": 125602.13749999998,
      "d": 267.3186979166494,
      "v": 69
    },
    {
      "midi": 54,
      "hit": false,
      "t": 125782.85999999997,
      "d": 1425.0722135416,
      "v": 65
    },
    {
      "midi": 71,
      "hit": false,
      "t": 125963.58249999996,
      "d": 267.31869791666395,
      "v": 54
    },
    {
      "midi": 74,
      "hit": false,
      "t": 126144.30499999996,
      "d": 267.3186979166494,
      "v": 71
    },
    {
      "midi": 78,
      "hit": false,
      "t": 126325.02749999995,
      "d": 267.3186979166494,
      "v": 54
    },
    {
      "midi": 83,
      "hit": false,
      "t": 126505.74999999994,
      "d": 267.3186979166494,
      "v": 79
    },
    {
      "midi": 78,
      "hit": false,
      "t": 126686.47249999993,
      "d": 267.3186979166494,
      "v": 54
    },
    {
      "midi": 74,
      "hit": false,
      "t": 126867.19499999992,
      "d": 267.3186979166494,
      "v": 65
    },
    {
      "midi": 71,
      "hit": false,
      "t": 127047.91749999991,
      "d": 267.3186979166494,
      "v": 54
    },
    {
      "midi": 55,
      "hit": false,
      "t": 127228.6399999999,
      "d": 1413.7770572915906,
      "v": 71
    },
    {
      "midi": 72,
      "hit": false,
      "t": 127409.36249999989,
      "d": 267.31869791666395,
      "v": 66
    },
    {
      "midi": 76,
      "hit": false,
      "t": 127590.08499999989,
      "d": 267.3186979166494,
      "v": 79
    },
    {
      "midi": 79,
      "hit": false,
      "t": 127770.80749999988,
      "d": 267.3186979166494,
      "v": 54
    },
    {
      "midi": 84,
      "hit": false,
      "t": 127951.52999999987,
      "d": 267.3186979166494,
      "v": 79
    },
    {
      "midi": 79,
      "hit": false,
      "t": 128132.25249999986,
      "d": 267.3186979166494,
      "v": 65
    },
    {
      "midi": 76,
      "hit": false,
      "t": 128312.97499999985,
      "d": 267.3186979166494,
      "v": 71
    },
    {
      "midi": 72,
      "hit": false,
      "t": 128493.69749999983,
      "d": 267.3186979166494,
      "v": 54
    },
    {
      "midi": 57,
      "hit": false,
      "t": 128674.41999999982,
      "d": 1396.8343229165912,
      "v": 71
    },
    {
      "midi": 74,
      "hit": false,
      "t": 128855.14249999981,
      "d": 267.31869791666395,
      "v": 54
    },
    {
      "midi": 78,
      "hit": false,
      "t": 129035.86499999982,
      "d": 267.3186979166494,
      "v": 71
    },
    {
      "midi": 81,
      "hit": false,
      "t": 129216.5874999998,
      "d": 267.3186979166494,
      "v": 54
    },
    {
      "midi": 86,
      "hit": false,
      "t": 129397.3099999998,
      "d": 267.3186979166494,
      "v": 79
    },
    {
      "midi": 81,
      "hit": false,
      "t": 129578.03249999978,
      "d": 267.3186979166494,
      "v": 65
    },
    {
      "midi": 90,
      "hit": false,
      "t": 129758.75499999977,
      "d": 267.3186979166494,
      "v": 79
    },
    {
      "midi": 81,
      "hit": false,
      "t": 129939.47749999976,
      "d": 267.3186979166494,
      "v": 54
    },
    {
      "midi": 57,
      "hit": false,
      "t": 130120.19999999975,
      "d": 1396.8343229166348,
      "v": 79
    },
    {
      "midi": 74,
      "hit": false,
      "t": 130300.92249999974,
      "d": 267.31869791666395,
      "v": 66
    },
    {
      "midi": 78,
      "hit": false,
      "t": 130481.64499999974,
      "d": 267.3186979166494,
      "v": 79
    },
    {
      "midi": 81,
      "hit": false,
      "t": 130662.36749999973,
      "d": 267.3186979166494,
      "v": 54
    },
    {
      "midi": 86,
      "hit": false,
      "t": 130843.08999999972,
      "d": 267.3186979166494,
      "v": 79
    },
    {
      "midi": 81,
      "hit": false,
      "t": 131023.81249999971,
      "d": 267.31869791666395,
      "v": 65
    },
    {
      "midi": 90,
      "hit": false,
      "t": 131204.5349999997,
      "d": 267.31869791666395,
      "v": 65
    },
    {
      "midi": 81,
      "hit": false,
      "t": 131385.25749999972,
      "d": 267.31869791666395,
      "v": 69
    },
    {
      "midi": 60,
      "hit": false,
      "t": 131565.97999999972,
      "d": 1408.1294791666733,
      "v": 79
    },
    {
      "midi": 72,
      "hit": false,
      "t": 131746.70249999972,
      "d": 267.31869791666395,
      "v": 66
    },
    {
      "midi": 76,
      "hit": false,
      "t": 131927.42499999973,
      "d": 267.31869791666395,
      "v": 79
    },
    {
      "midi": 84,
      "hit": false,
      "t": 132108.14749999973,
      "d": 267.31869791666395,
      "v": 62
    },
    {
      "midi": 79,
      "hit": false,
      "t": 132288.86999999973,
      "d": 267.31869791666395,
      "v": 79
    },
    {
      "midi": 76,
      "hit": false,
      "t": 132469.59249999974,
      "d": 267.31869791666395,
      "v": 62
    },
    {
      "midi": 72,
      "hit": false,
      "t": 132650.31499999974,
      "d": 267.31869791666395,
      "v": 79
    },
    {
      "midi": 76,
      "hit": false,
      "t": 132831.03749999974,
      "d": 267.31869791663485,
      "v": 54
    },
    {
      "midi": 62,
      "hit": false,
      "t": 133011.75999999972,
      "d": 1419.4246354166826,
      "v": 79
    },
    {
      "midi": 74,
      "hit": false,
      "t": 133192.48249999972,
      "d": 267.31869791666395,
      "v": 54
    },
    {
      "midi": 78,
      "hit": false,
      "t": 133373.20499999973,
      "d": 267.31869791666395,
      "v": 65
    },
    {
      "midi": 86,
      "hit": false,
      "t": 133553.92749999973,
      "d": 267.31869791666395,
      "v": 54
    },
    {
      "midi": 81,
      "hit": false,
      "t": 133734.64999999973,
      "d": 267.31869791666395,
      "v": 71
    },
    {
      "midi": 78,
      "hit": false,
      "t": 133915.37249999974,
      "d": 267.31869791666395,
      "v": 65
    },
    {
      "midi": 74,
      "hit": false,
      "t": 134096.09499999974,
      "d": 267.31869791666395,
      "v": 71
    },
    {
      "midi": 78,
      "hit": false,
      "t": 134276.81749999974,
      "d": 267.31869791666395,
      "v": 62
    },
    {
      "midi": 59,
      "hit": false,
      "t": 134457.53999999975,
      "d": 1425.0722135416872,
      "v": 71
    },
    {
      "midi": 71,
      "hit": false,
      "t": 134638.26249999975,
      "d": 267.31869791666395,
      "v": 66
    },
    {
      "midi": 74,
      "hit": false,
      "t": 134818.98499999975,
      "d": 267.31869791666395,
      "v": 79
    },
    {
      "midi": 83,
      "hit": false,
      "t": 134999.70749999976,
      "d": 267.31869791666395,
      "v": 62
    },
    {
      "midi": 78,
      "hit": false,
      "t": 135180.42999999976,
      "d": 267.31869791666395,
      "v": 79
    },
    {
      "midi": 74,
      "hit": false,
      "t": 135361.15249999976,
      "d": 267.31869791666395,
      "v": 65
    },
    {
      "midi": 71,
      "hit": false,
      "t": 135541.87499999977,
      "d": 267.31869791666395,
      "v": 79
    },
    {
      "midi": 74,
      "hit": false,
      "t": 135722.59749999977,
      "d": 267.31869791666395,
      "v": 69
    },
    {
      "midi": 64,
      "hit": false,
      "t": 135903.31999999977,
      "d": 1425.0722135416872,
      "v": 79
    },
    {
      "midi": 76,
      "hit": false,
      "t": 136084.04249999978,
      "d": 267.31869791666395,
      "v": 66
    },
    {
      "midi": 83,
      "hit": false,
      "t": 136264.76499999978,
      "d": 267.31869791666395,
      "v": 79
    },
    {
      "midi": 79,
      "hit": false,
      "t": 136445.48749999978,
      "d": 267.31869791666395,
      "v": 62
    },
    {
      "midi": 88,
      "hit": false,
      "t": 136626.2099999998,
      "d": 267.31869791666395,
      "v": 79
    },
    {
      "midi": 83,
      "hit": false,
      "t": 136806.9324999998,
      "d": 267.31869791666395,
      "v": 65
    },
    {
      "midi": 88,
      "hit": false,
      "t": 136987.6549999998,
      "d": 267.31869791666395,
      "v": 79
    },
    {
      "midi": 91,
      "hit": false,
      "t": 137168.3774999998,
      "d": 267.31869791666395,
      "v": 62
    },
    {
      "midi": 93,
      "hit": false,
      "t": 137349.0999999998,
      "d": 267.31869791666395,
      "v": 79
    },
    {
      "midi": 62,
      "hit": false,
      "t": 137349.0999999998,
      "d": 1402.4819010416977,
      "v": 79
    },
    {
      "midi": 78,
      "hit": false,
      "t": 137529.8224999998,
      "d": 267.31869791666395,
      "v": 66
    },
    {
      "midi": 81,
      "hit": false,
      "t": 137710.5449999998,
      "d": 267.31869791666395,
      "v": 71
    },
    {
      "midi": 86,
      "hit": false,
      "t": 137891.2674999998,
      "d": 267.31869791666395,
      "v": 54
    },
    {
      "midi": 81,
      "hit": false,
      "t": 138071.98999999982,
      "d": 267.31869791666395,
      "v": 79
    },
    {
      "midi": 78,
      "hit": false,
      "t": 138252.71249999982,
      "d": 267.31869791666395,
      "v": 65
    },
    {
      "midi": 74,
      "hit": false,
      "t": 138433.43499999982,
      "d": 267.31869791666395,
      "v": 79
    },
    {
      "midi": 78,
      "hit": false,
      "t": 138614.15749999983,
      "d": 267.31869791666395,
      "v": 54
    },
    {
      "midi": 57,
      "hit": false,
      "t": 138794.87999999983,
      "d": 1413.777057291678,
      "v": 79
    },
    {
      "midi": 69,
      "hit": false,
      "t": 138975.60249999983,
      "d": 267.31869791666395,
      "v": 66
    },
    {
      "midi": 76,
      "hit": false,
      "t": 139156.32499999984,
      "d": 267.31869791666395,
      "v": 71
    },
    {
      "midi": 84,
      "hit": false,
      "t": 139337.04749999984,
      "d": 267.31869791666395,
      "v": 62
    },
    {
      "midi": 81,
      "hit": false,
      "t": 139517.76999999984,
      "d": 267.31869791666395,
      "v": 79
    },
    {
      "midi": 76,
      "hit": false,
      "t": 139698.49249999985,
      "d": 267.31869791666395,
      "v": 54
    },
    {
      "midi": 72,
      "hit": false,
      "t": 139879.21499999985,
      "d": 267.31869791666395,
      "v": 71
    },
    {
      "midi": 76,
      "hit": false,
      "t": 140059.93749999985,
      "d": 267.31869791663485,
      "v": 54
    },
    {
      "midi": 55,
      "hit": false,
      "t": 140240.65999999983,
      "d": 1402.4819010416977,
      "v": 71
    },
    {
      "midi": 67,
      "hit": false,
      "t": 140421.38249999983,
      "d": 267.31869791666395,
      "v": 66
    },
    {
      "midi": 74,
      "hit": false,
      "t": 140602.10499999984,
      "d": 267.31869791666395,
      "v": 79
    },
    {
      "midi": 79,
      "hit": false,
      "t": 140782.82749999984,
      "d": 267.31869791666395,
      "v": 62
    },
    {
      "midi": 74,
      "hit": false,
      "t": 140963.54999999984,
      "d": 267.31869791666395,
      "v": 79
    },
    {
      "midi": 71,
      "hit": false,
      "t": 141144.27249999985,
      "d": 267.31869791666395,
      "v": 65
    },
    {
      "midi": 67,
      "hit": false,
      "t": 141324.99499999985,
      "d": 267.31869791666395,
      "v": 79
    },
    {
      "midi": 71,
      "hit": false,
      "t": 141505.71749999985,
      "d": 267.31869791666395,
      "v": 54
    },
    {
      "midi": 59,
      "hit": false,
      "t": 141686.43999999986,
      "d": 131.7768229166395,
      "v": 53
    },
    {
      "midi": 50,
      "hit": false,
      "t": 141686.43999999986,
      "d": 1082.4524739582557,
      "v": 69
    },
    {
      "midi": 47,
      "hit": false,
      "t": 141686.43999999986,
      "d": 2249.618619791523,
      "v": 69
    },
    {
      "midi": 55,
      "hit": false,
      "t": 141776.80124999984,
      "d": 133.65934895831742,
      "v": 39
    },
    {
      "midi": 62,
      "hit": false,
      "t": 141867.16249999983,
      "d": 135.54187499999534,
      "v": 56
    },
    {
      "midi": 59,
      "hit": false,
      "t": 141957.52374999982,
      "d": 133.65934895834653,
      "v": 56
    },
    {
      "midi": 67,
      "hit": false,
      "t": 142047.88499999983,
      "d": 133.65934895831742,
      "v": 64
    },
    {
      "midi": 62,
      "hit": false,
      "t": 142138.24624999982,
      "d": 137.42440104164416,
      "v": 56
    },
    {
      "midi": 71,
      "hit": false,
      "t": 142228.6074999998,
      "d": 133.65934895831742,
      "v": 64
    },
    {
      "midi": 67,
      "hit": false,
      "t": 142318.9687499998,
      "d": 135.54187499999534,
      "v": 69
    },
    {
      "midi": 74,
      "hit": false,
      "t": 142409.32999999978,
      "d": 133.65934895834653,
      "v": 56
    },
    {
      "midi": 71,
      "hit": false,
      "t": 142499.6912499998,
      "d": 133.65934895831742,
      "v": 60
    },
    {
      "midi": 79,
      "hit": false,
      "t": 142590.0524999998,
      "d": 133.65934895831742,
      "v": 64
    },
    {
      "midi": 74,
      "hit": false,
      "t": 142680.41374999977,
      "d": 139.30692708335118,
      "v": 56
    },
    {
      "midi": 50,
      "hit": false,
      "t": 142770.7749999998,
      "d": 133.65934895831742,
      "v": 69
    },
    {
      "midi": 83,
      "hit": false,
      "t": 142770.7749999998,
      "d": 133.65934895831742,
      "v": 69
    },
    {
      "midi": 79,
      "hit": false,
      "t": 142861.13624999978,
      "d": 131.7768229166395,
      "v": 60
    },
    {
      "midi": 86,
      "hit": false,
      "t": 142951.49749999976,
      "d": 131.7768229166395,
      "v": 73
    },
    {
      "midi": 91,
      "hit": false,
      "t": 143041.85874999975,
      "d": 346.38479166664183,
      "v": 79
    },
    {
      "midi": 55,
      "hit": false,
      "t": 167710.47999999972,
      "d": 1402.4819010416977,
      "v": 65
    },
    {
      "midi": 67,
      "hit": false,
      "t": 167891.20249999972,
      "d": 267.31869791666395,
      "v": 66
    },
    {
      "midi": 71,
      "hit": false,
      "t": 168071.92499999973,
      "d": 267.31869791666395,
      "v": 79
    },
    {
      "midi": 74,
      "hit": false,
      "t": 168252.64749999973,
      "d": 267.31869791666395,
      "v": 69
    },
    {
      "midi": 79,
      "hit": false,
      "t": 168433.36999999973,
      "d": 267.31869791666395,
      "v": 79
    },
    {
      "midi": 74,
      "hit": false,
      "t": 168614.09249999974,
      "d": 267.31869791666395,
      "v": 65
    },
    {
      "midi": 71,
      "hit": false,
      "t": 168794.81499999974,
      "d": 267.31869791666395,
      "v": 79
    },
    {
      "midi": 67,
      "hit": false,
      "t": 168975.53749999974,
      "d": 267.31869791666395,
      "v": 69
    },
    {
      "midi": 54,
      "hit": false,
      "t": 169156.25999999975,
      "d": 1413.777057291678,
      "v": 71
    },
    {
      "midi": 62,
      "hit": false,
      "t": 169336.98249999975,
      "d": 267.31869791666395,
      "v": 66
    },
    {
      "midi": 66,
      "hit": false,
      "t": 169517.70499999975,
      "d": 267.31869791666395,
      "v": 79
    },
    {
      "midi": 69,
      "hit": false,
      "t": 169698.42749999976,
      "d": 267.31869791666395,
      "v": 69
    },
    {
      "midi": 74,
      "hit": false,
      "t": 169879.14999999976,
      "d": 267.31869791666395,
      "v": 79
    },
    {
      "midi": 69,
      "hit": false,
      "t": 170059.87249999976,
      "d": 267.31869791666395,
      "v": 65
    },
    {
      "midi": 66,
      "hit": false,
      "t": 170240.59499999977,
      "d": 267.31869791666395,
      "v": 79
    },
    {
      "midi": 62,
      "hit": false,
      "t": 170421.31749999977,
      "d": 267.31869791663485,
      "v": 69
    },
    {
      "midi": 55,
      "hit": false,
      "t": 170602.03999999975,
      "d": 1413.777057291678,
      "v": 79
    },
    {
      "midi": 67,
      "hit": false,
      "t": 170782.76249999975,
      "d": 267.31869791666395,
      "v": 66
    },
    {
      "midi": 71,
      "hit": false,
      "t": 170963.48499999975,
      "d": 267.31869791666395,
      "v": 79
    },
    {
      "midi": 74,
      "hit": false,
      "t": 171144.20749999976,
      "d": 267.31869791666395,
      "v": 62
    },
    {
      "midi": 79,
      "hit": false,
      "t": 171324.92999999976,
      "d": 267.31869791666395,
      "v": 79
    },
    {
      "midi": 74,
      "hit": false,
      "t": 171505.65249999976,
      "d": 267.31869791666395,
      "v": 65
    },
    {
      "midi": 71,
      "hit": false,
      "t": 171686.37499999977,
      "d": 267.31869791666395,
      "v": 79
    },
    {
      "midi": 67,
      "hit": false,
      "t": 171867.09749999977,
      "d": 267.31869791663485,
      "v": 69
    },
    {
      "midi": 55,
      "hit": false,
      "t": 172047.81999999975,
      "d": 1419.4246354166826,
      "v": 79
    },
    {
      "midi": 67,
      "hit": false,
      "t": 172228.54249999975,
      "d": 267.31869791666395,
      "v": 66
    },
    {
      "midi": 71,
      "hit": false,
      "t": 172409.26499999975,
      "d": 267.31869791666395,
      "v": 79
    },
    {
      "midi": 74,
      "hit": false,
      "t": 172589.98749999976,
      "d": 267.31869791666395,
      "v": 62
    },
    {
      "midi": 79,
      "hit": false,
      "t": 172770.70999999976,
      "d": 267.31869791666395,
      "v": 79
    },
    {
      "midi": 74,
      "hit": false,
      "t": 172951.43249999976,
      "d": 267.31869791666395,
      "v": 65
    },
    {
      "midi": 71,
      "hit": false,
      "t": 173132.15499999977,
      "d": 267.31869791666395,
      "v": 79
    },
    {
      "midi": 67,
      "hit": false,
      "t": 173312.87749999977,
      "d": 267.31869791666395,
      "v": 69
    },
    {
      "midi": 54,
      "hit": false,
      "t": 173493.59999999977,
      "d": 1425.0722135416872,
      "v": 65
    },
    {
      "midi": 71,
      "hit": false,
      "t": 173674.32249999978,
      "d": 267.31869791666395,
      "v": 54
    },
    {
      "midi": 74,
      "hit": false,
      "t": 173855.04499999978,
      "d": 267.31869791666395,
      "v": 71
    },
    {
      "midi": 78,
      "hit": false,
      "t": 174035.76749999978,
      "d": 267.31869791666395,
      "v": 54
    },
    {
      "midi": 83,
      "hit": false,
      "t": 174216.4899999998,
      "d": 267.31869791666395,
      "v": 79
    },
    {
      "midi": 78,
      "hit": false,
      "t": 174397.2124999998,
      "d": 267.31869791666395,
      "v": 54
    },
    {
      "midi": 74,
      "hit": false,
      "t": 174577.9349999998,
      "d": 267.31869791666395,
      "v": 65
    },
    {
      "midi": 71,
      "hit": false,
      "t": 174758.6574999998,
      "d": 267.31869791666395,
      "v": 54
    },
    {
      "midi": 55,
      "hit": false,
      "t": 174939.3799999998,
      "d": 1413.777057291678,
      "v": 71
    },
    {
      "midi": 72,
      "hit": false,
      "t": 175120.1024999998,
      "d": 267.31869791666395,
      "v": 66
    },
    {
      "midi": 76,
      "hit": false,
      "t": 175300.8249999998,
      "d": 267.31869791666395,
      "v": 79
    },
    {
      "midi": 79,
      "hit": false,
      "t": 175481.5474999998,
      "d": 267.31869791666395,
      "v": 54
    },
    {
      "midi": 84,
      "hit": false,
      "t": 175662.26999999981,
      "d": 267.31869791666395,
      "v": 79
    },
    {
      "midi": 79,
      "hit": false,
      "t": 175842.99249999982,
      "d": 267.31869791666395,
      "v": 65
    },
    {
      "midi": 76,
      "hit": false,
      "t": 176023.71499999982,
      "d": 267.31869791666395,
      "v": 71
    },
    {
      "midi": 72,
      "hit": false,
      "t": 176204.43749999983,
      "d": 267.31869791663485,
      "v": 54
    },
    {
      "midi": 57,
      "hit": false,
      "t": 176385.1599999998,
      "d": 1396.834322916693,
      "v": 71
    },
    {
      "midi": 74,
      "hit": false,
      "t": 176565.8824999998,
      "d": 267.31869791666395,
      "v": 54
    },
    {
      "midi": 78,
      "hit": false,
      "t": 176746.6049999998,
      "d": 267.31869791666395,
      "v": 71
    },
    {
      "midi": 81,
      "hit": false,
      "t": 176927.3274999998,
      "d": 267.31869791666395,
      "v": 54
    },
    {
      "midi": 86,
      "hit": false,
      "t": 177108.0499999998,
      "d": 267.31869791666395,
      "v": 79
    },
    {
      "midi": 81,
      "hit": false,
      "t": 177288.77249999982,
      "d": 267.31869791666395,
      "v": 65
    },
    {
      "midi": 90,
      "hit": false,
      "t": 177469.49499999982,
      "d": 267.31869791666395,
      "v": 79
    },
    {
      "midi": 81,
      "hit": false,
      "t": 177650.21749999982,
      "d": 267.31869791666395,
      "v": 54
    },
    {
      "midi": 57,
      "hit": false,
      "t": 177830.93999999983,
      "d": 1396.834322916693,
      "v": 79
    },
    {
      "midi": 74,
      "hit": false,
      "t": 178011.66249999983,
      "d": 267.31869791666395,
      "v": 66
    },
    {
      "midi": 78,
      "hit": false,
      "t": 178192.38499999983,
      "d": 267.31869791666395,
      "v": 79
    },
    {
      "midi": 81,
      "hit": false,
      "t": 178373.10749999984,
      "d": 267.31869791666395,
      "v": 54
    },
    {
      "midi": 86,
      "hit": false,
      "t": 178553.82999999984,
      "d": 267.31869791666395,
      "v": 79
    },
    {
      "midi": 81,
      "hit": false,
      "t": 178734.55249999985,
      "d": 267.31869791666395,
      "v": 65
    },
    {
      "midi": 90,
      "hit": false,
      "t": 178915.27499999985,
      "d": 267.31869791666395,
      "v": 65
    },
    {
      "midi": 81,
      "hit": false,
      "t": 179095.99749999985,
      "d": 267.31869791666395,
      "v": 69
    },
    {
      "midi": 60,
      "hit": false,
      "t": 179276.71999999986,
      "d": 1408.1294791666733,
      "v": 79
    },
    {
      "midi": 72,
      "hit": false,
      "t": 179457.44249999986,
      "d": 267.31869791666395,
      "v": 66
    },
    {
      "midi": 76,
      "hit": false,
      "t": 179638.16499999986,
      "d": 267.31869791666395,
      "v": 79
    },
    {
      "midi": 84,
      "hit": false,
      "t": 179818.88749999987,
      "d": 267.31869791666395,
      "v": 62
    },
    {
      "midi": 79,
      "hit": false,
      "t": 179999.60999999987,
      "d": 267.31869791666395,
      "v": 79
    },
    {
      "midi": 76,
      "hit": false,
      "t": 180180.33249999987,
      "d": 267.31869791666395,
      "v": 62
    },
    {
      "midi": 72,
      "hit": false,
      "t": 180361.05499999988,
      "d": 267.31869791666395,
      "v": 79
    },
    {
      "midi": 76,
      "hit": false,
      "t": 180541.77749999988,
      "d": 267.31869791663485,
      "v": 54
    },
    {
      "midi": 62,
      "hit": false,
      "t": 180722.49999999985,
      "d": 1419.4246354166826,
      "v": 79
    },
    {
      "midi": 74,
      "hit": false,
      "t": 180903.22249999986,
      "d": 267.31869791666395,
      "v": 54
    },
    {
      "midi": 78,
      "hit": false,
      "t": 181083.94499999986,
      "d": 267.31869791666395,
      "v": 65
    },
    {
      "midi": 86,
      "hit": false,
      "t": 181264.66749999986,
      "d": 267.31869791666395,
      "v": 54
    },
    {
      "midi": 81,
      "hit": false,
      "t": 181445.38999999987,
      "d": 267.31869791666395,
      "v": 71
    },
    {
      "midi": 78,
      "hit": false,
      "t": 181626.11249999987,
      "d": 267.31869791666395,
      "v": 65
    },
    {
      "midi": 74,
      "hit": false,
      "t": 181806.83499999988,
      "d": 267.31869791666395,
      "v": 71
    },
    {
      "midi": 78,
      "hit": false,
      "t": 181987.55749999988,
      "d": 267.31869791666395,
      "v": 62
    },
    {
      "midi": 59,
      "hit": false,
      "t": 182168.27999999988,
      "d": 1425.0722135416872,
      "v": 71
    },
    {
      "midi": 71,
      "hit": false,
      "t": 182349.0024999999,
      "d": 267.31869791666395,
      "v": 66
    },
    {
      "midi": 74,
      "hit": false,
      "t": 182529.7249999999,
      "d": 267.31869791666395,
      "v": 79
    },
    {
      "midi": 83,
      "hit": false,
      "t": 182710.4474999999,
      "d": 267.31869791666395,
      "v": 62
    },
    {
      "midi": 78,
      "hit": false,
      "t": 182891.1699999999,
      "d": 267.31869791666395,
      "v": 79
    },
    {
      "midi": 74,
      "hit": false,
      "t": 183071.8924999999,
      "d": 267.31869791666395,
      "v": 65
    },
    {
      "midi": 71,
      "hit": false,
      "t": 183252.6149999999,
      "d": 267.31869791666395,
      "v": 79
    },
    {
      "midi": 74,
      "hit": false,
      "t": 183433.3374999999,
      "d": 267.31869791666395,
      "v": 69
    },
    {
      "midi": 64,
      "hit": false,
      "t": 183614.0599999999,
      "d": 1425.0722135416872,
      "v": 79
    },
    {
      "midi": 76,
      "hit": false,
      "t": 183794.7824999999,
      "d": 267.31869791666395,
      "v": 66
    },
    {
      "midi": 83,
      "hit": false,
      "t": 183975.50499999992,
      "d": 267.31869791666395,
      "v": 79
    },
    {
      "midi": 79,
      "hit": false,
      "t": 184156.22749999992,
      "d": 267.31869791666395,
      "v": 62
    },
    {
      "midi": 88,
      "hit": false,
      "t": 184336.94999999992,
      "d": 267.31869791666395,
      "v": 79
    },
    {
      "midi": 83,
      "hit": false,
      "t": 184517.67249999993,
      "d": 267.31869791666395,
      "v": 65
    },
    {
      "midi": 88,
      "hit": false,
      "t": 184698.39499999993,
      "d": 267.31869791666395,
      "v": 79
    },
    {
      "midi": 91,
      "hit": false,
      "t": 184879.11749999993,
      "d": 267.31869791666395,
      "v": 62
    },
    {
      "midi": 93,
      "hit": false,
      "t": 185059.83999999994,
      "d": 267.31869791666395,
      "v": 79
    },
    {
      "midi": 62,
      "hit": false,
      "t": 185059.83999999994,
      "d": 1402.4819010416977,
      "v": 79
    },
    {
      "midi": 78,
      "hit": false,
      "t": 185240.56249999994,
      "d": 267.31869791666395,
      "v": 66
    },
    {
      "midi": 81,
      "hit": false,
      "t": 185421.28499999995,
      "d": 267.31869791666395,
      "v": 71
    },
    {
      "midi": 86,
      "hit": false,
      "t": 185602.00749999995,
      "d": 267.31869791666395,
      "v": 54
    },
    {
      "midi": 81,
      "hit": false,
      "t": 185782.72999999995,
      "d": 267.31869791666395,
      "v": 79
    },
    {
      "midi": 78,
      "hit": false,
      "t": 185963.45249999996,
      "d": 267.31869791666395,
      "v": 65
    },
    {
      "midi": 74,
      "hit": false,
      "t": 186144.17499999996,
      "d": 267.31869791666395,
      "v": 79
    },
    {
      "midi": 78,
      "hit": false,
      "t": 186324.89749999996,
      "d": 267.31869791666395,
      "v": 54
    },
    {
      "midi": 57,
      "hit": false,
      "t": 186505.61999999997,
      "d": 1413.777057291678,
      "v": 79
    },
    {
      "midi": 69,
      "hit": false,
      "t": 186686.34249999997,
      "d": 267.31869791666395,
      "v": 66
    },
    {
      "midi": 76,
      "hit": false,
      "t": 186867.06499999997,
      "d": 267.31869791666395,
      "v": 71
    },
    {
      "midi": 84,
      "hit": false,
      "t": 187047.78749999998,
      "d": 267.31869791666395,
      "v": 62
    },
    {
      "midi": 81,
      "hit": false,
      "t": 187228.50999999998,
      "d": 267.31869791666395,
      "v": 79
    },
    {
      "midi": 76,
      "hit": false,
      "t": 187409.23249999998,
      "d": 267.31869791666395,
      "v": 54
    },
    {
      "midi": 72,
      "hit": false,
      "t": 187589.955,
      "d": 267.31869791666395,
      "v": 71
    },
    {
      "midi": 76,
      "hit": false,
      "t": 187770.6775,
      "d": 267.31869791663485,
      "v": 54
    },
    {
      "midi": 55,
      "hit": false,
      "t": 187951.39999999997,
      "d": 1402.4819010416977,
      "v": 71
    },
    {
      "midi": 67,
      "hit": false,
      "t": 188132.12249999997,
      "d": 267.31869791666395,
      "v": 66
    },
    {
      "midi": 74,
      "hit": false,
      "t": 188312.84499999997,
      "d": 267.31869791666395,
      "v": 79
    },
    {
      "midi": 79,
      "hit": false,
      "t": 188493.56749999998,
      "d": 267.31869791666395,
      "v": 62
    },
    {
      "midi": 74,
      "hit": false,
      "t": 188674.28999999998,
      "d": 267.31869791666395,
      "v": 79
    },
    {
      "midi": 71,
      "hit": false,
      "t": 188855.01249999998,
      "d": 267.31869791666395,
      "v": 65
    },
    {
      "midi": 67,
      "hit": false,
      "t": 189035.735,
      "d": 267.31869791666395,
      "v": 79
    },
    {
      "midi": 71,
      "hit": false,
      "t": 189216.4575,
      "d": 267.31869791666395,
      "v": 54
    },
    {
      "midi": 59,
      "hit": false,
      "t": 189397.18,
      "d": 131.7768229166395,
      "v": 53
    },
    {
      "midi": 50,
      "hit": false,
      "t": 189397.18,
      "d": 1082.4524739582557,
      "v": 69
    },
    {
      "midi": 47,
      "hit": false,
      "t": 189397.18,
      "d": 2249.618619791523,
      "v": 69
    },
    {
      "midi": 55,
      "hit": false,
      "t": 189487.54124999998,
      "d": 133.65934895831742,
      "v": 39
    },
    {
      "midi": 62,
      "hit": false,
      "t": 189577.90249999997,
      "d": 135.54187499999534,
      "v": 56
    },
    {
      "midi": 59,
      "hit": false,
      "t": 189668.26374999995,
      "d": 133.65934895834653,
      "v": 56
    },
    {
      "midi": 67,
      "hit": false,
      "t": 189758.62499999997,
      "d": 133.65934895831742,
      "v": 64
    },
    {
      "midi": 62,
      "hit": false,
      "t": 189848.98624999996,
      "d": 137.42440104164416,
      "v": 56
    },
    {
      "midi": 71,
      "hit": false,
      "t": 189939.34749999995,
      "d": 133.65934895831742,
      "v": 64
    },
    {
      "midi": 67,
      "hit": false,
      "t": 190029.70874999993,
      "d": 135.54187499999534,
      "v": 69
    },
    {
      "midi": 74,
      "hit": false,
      "t": 190120.06999999992,
      "d": 133.65934895834653,
      "v": 56
    },
    {
      "midi": 71,
      "hit": false,
      "t": 190210.43124999994,
      "d": 133.65934895831742,
      "v": 60
    },
    {
      "midi": 79,
      "hit": false,
      "t": 190300.79249999992,
      "d": 133.65934895831742,
      "v": 64
    },
    {
      "midi": 74,
      "hit": false,
      "t": 190391.1537499999,
      "d": 139.30692708335118,
      "v": 56
    },
    {
      "midi": 50,
      "hit": false,
      "t": 190481.51499999993,
      "d": 133.65934895831742,
      "v": 69
    },
    {
      "midi": 83,
      "hit": false,
      "t": 190481.51499999993,
      "d": 133.65934895831742,
      "v": 69
    },
    {
      "midi": 79,
      "hit": false,
      "t": 190571.8762499999,
      "d": 131.7768229166395,
      "v": 60
    },
    {
      "midi": 86,
      "hit": false,
      "t": 190662.2374999999,
      "d": 131.7768229166395,
      "v": 73
    },
    {
      "midi": 91,
      "hit": false,
      "t": 190752.5987499999,
      "d": 346.38479166664183,
      "v": 79
    }
  ]
}