{
  "jsonPath": "Rock/Classic Rock/The Charlie Daniels Band/the-devil-went-down-to-georgia.json",
  "path": "Rock\\Classic Rock\\The Charlie Daniels Band\\The Devil Went Down To Georgia.mid",
  "name": "The Devil Went Down To Georgia",
  "difficulty": "Advanced",
  "bpm": 130.00041166797027,
  "notes": [
    {
      "midi": 50,
      "hit": false,
      "t": 2307.685,
      "d": 298.0759791666669,
      "v": 93
    },
    {
      "midi": 38,
      "hit": false,
      "t": 2307.685,
      "d": 332.691254166667,
      "v": 100
    },
    {
      "midi": 62,
      "hit": false,
      "t": 2538.4535,
      "d": 245.19153125000003,
      "v": 102
    },
    {
      "midi": 65,
      "hit": false,
      "t": 2538.4535,
      "d": 245.19153125000003,
      "v": 100
    },
    {
      "midi": 33,
      "hit": false,
      "t": 2769.222,
      "d": 19.23070833333304,
      "v": 90
    },
    {
      "midi": 45,
      "hit": false,
      "t": 2769.222,
      "d": 332.69125416666657,
      "v": 98
    },
    {
      "midi": 57,
      "hit": false,
      "t": 2999.9905,
      "d": 105.76889583333377,
      "v": 101
    },
    {
      "midi": 65,
      "hit": false,
      "t": 2999.9905,
      "d": 240.38385416666733,
      "v": 106
    },
    {
      "midi": 50,
      "hit": false,
      "t": 3230.7590000000005,
      "d": 28.846062500000244,
      "v": 96
    },
    {
      "midi": 38,
      "hit": false,
      "t": 3230.7590000000005,
      "d": 332.69125416666657,
      "v": 97
    },
    {
      "midi": 62,
      "hit": false,
      "t": 3461.5275000000006,
      "d": 61.53826666666646,
      "v": 108
    },
    {
      "midi": 57,
      "hit": false,
      "t": 3461.5275000000006,
      "d": 215.38393333333306,
      "v": 100
    },
    {
      "midi": 65,
      "hit": false,
      "t": 3461.5275000000006,
      "d": 225.96082291666653,
      "v": 105
    },
    {
      "midi": 45,
      "hit": false,
      "t": 3692.2960000000003,
      "d": 134.61495833333356,
      "v": 93
    },
    {
      "midi": 33,
      "hit": false,
      "t": 3692.2960000000003,
      "d": 211.5377916666671,
      "v": 98
    },
    {
      "midi": 57,
      "hit": false,
      "t": 3807.6802500000003,
      "d": 134.61495833333402,
      "v": 105
    },
    {
      "midi": 62,
      "hit": false,
      "t": 3807.6802500000003,
      "d": 292.3067666666675,
      "v": 104
    },
    {
      "midi": 65,
      "hit": false,
      "t": 3807.6802500000003,
      "d": 311.537475000001,
      "v": 112
    },
    {
      "midi": 50,
      "hit": false,
      "t": 3923.064500000001,
      "d": 129.80728124999996,
      "v": 98
    },
    {
      "midi": 38,
      "hit": false,
      "t": 3923.064500000001,
      "d": 198.07629583333392,
      "v": 97
    },
    {
      "midi": 55,
      "hit": false,
      "t": 4038.448750000001,
      "d": 101.92275416666735,
      "v": 103
    },
    {
      "midi": 48,
      "hit": false,
      "t": 4153.833000000001,
      "d": 322.11436458333355,
      "v": 102
    },
    {
      "midi": 36,
      "hit": false,
      "t": 4153.833000000001,
      "d": 336.5373958333339,
      "v": 98
    },
    {
      "midi": 60,
      "hit": false,
      "t": 4384.601500000002,
      "d": 230.76850000000013,
      "v": 112
    },
    {
      "midi": 64,
      "hit": false,
      "t": 4384.601500000002,
      "d": 230.76850000000013,
      "v": 105
    },
    {
      "midi": 31,
      "hit": false,
      "t": 4615.370000000002,
      "d": 317.3066875000004,
      "v": 106
    },
    {
      "midi": 55,
      "hit": false,
      "t": 4846.138500000002,
      "d": 91.34586458333342,
      "v": 102
    },
    {
      "midi": 64,
      "hit": false,
      "t": 4846.138500000002,
      "d": 292.3067666666666,
      "v": 103
    },
    {
      "midi": 48,
      "hit": false,
      "t": 5076.907000000002,
      "d": 46.153699999999844,
      "v": 99
    },
    {
      "midi": 36,
      "hit": false,
      "t": 5076.907000000002,
      "d": 332.691254166667,
      "v": 100
    },
    {
      "midi": 60,
      "hit": false,
      "t": 5307.675500000002,
      "d": 105.76889583333377,
      "v": 111
    },
    {
      "midi": 55,
      "hit": false,
      "t": 5307.675500000002,
      "d": 326.9220416666667,
      "v": 111
    },
    {
      "midi": 64,
      "hit": false,
      "t": 5307.675500000002,
      "d": 701.9208541666667,
      "v": 103
    },
    {
      "midi": 31,
      "hit": false,
      "t": 5538.444000000002,
      "d": 211.53779166666664,
      "v": 105
    },
    {
      "midi": 55,
      "hit": false,
      "t": 5653.828250000002,
      "d": 115.38425000000007,
      "v": 102
    },
    {
      "midi": 60,
      "hit": false,
      "t": 5653.828250000002,
      "d": 330.7681833333336,
      "v": 96
    },
    {
      "midi": 36,
      "hit": false,
      "t": 5769.212500000002,
      "d": 198.07629583333346,
      "v": 108
    },
    {
      "midi": 55,
      "hit": false,
      "t": 5884.596750000002,
      "d": 67.30747916666678,
      "v": 93
    },
    {
      "midi": 57,
      "hit": false,
      "t": 5999.9810000000025,
      "d": 353.84503333333305,
      "v": 100
    },
    {
      "midi": 38,
      "hit": false,
      "t": 5999.9810000000025,
      "d": 379.80648958333313,
      "v": 104
    },
    {
      "midi": 65,
      "hit": false,
      "t": 5999.9810000000025,
      "d": 379.80648958333313,
      "v": 111
    },
    {
      "midi": 50,
      "hit": false,
      "t": 5999.9810000000025,
      "d": 409.6140875000001,
      "v": 98
    },
    {
      "midi": 62,
      "hit": false,
      "t": 5999.9810000000025,
      "d": 413.460229166667,
      "v": 104
    },
    {
      "midi": 55,
      "hit": false,
      "t": 6461.518000000003,
      "d": 317.3066875000004,
      "v": 100
    },
    {
      "midi": 36,
      "hit": false,
      "t": 6461.518000000003,
      "d": 336.5373958333339,
      "v": 105
    },
    {
      "midi": 60,
      "hit": false,
      "t": 6461.518000000003,
      "d": 373.07574166666745,
      "v": 111
    },
    {
      "midi": 48,
      "hit": false,
      "t": 6461.518000000003,
      "d": 384.6141666666672,
      "v": 96
    },
    {
      "midi": 64,
      "hit": false,
      "t": 6461.518000000003,
      "d": 399.03719791666754,
      "v": 104
    },
    {
      "midi": 53,
      "hit": false,
      "t": 6923.055000000004,
      "d": 332.691254166667,
      "v": 95
    },
    {
      "midi": 58,
      "hit": false,
      "t": 6923.055000000004,
      "d": 365.3834583333337,
      "v": 101
    },
    {
      "midi": 62,
      "hit": false,
      "t": 6923.055000000004,
      "d": 365.3834583333337,
      "v": 103
    },
    {
      "midi": 34,
      "hit": false,
      "t": 6923.055000000004,
      "d": 379.80648958333404,
      "v": 100
    },
    {
      "midi": 46,
      "hit": false,
      "t": 6923.055000000004,
      "d": 423.0755833333342,
      "v": 100
    },
    {
      "midi": 52,
      "hit": false,
      "t": 7384.592000000005,
      "d": 298.0759791666669,
      "v": 98
    },
    {
      "midi": 33,
      "hit": false,
      "t": 7384.592000000005,
      "d": 373.07574166666654,
      "v": 105
    },
    {
      "midi": 45,
      "hit": false,
      "t": 7384.592000000005,
      "d": 394.2295208333335,
      "v": 96
    },
    {
      "midi": 60,
      "hit": false,
      "t": 7384.592000000005,
      "d": 407.69101666666666,
      "v": 113
    },
    {
      "midi": 57,
      "hit": false,
      "t": 7384.592000000005,
      "d": 409.6140875000001,
      "v": 103
    },
    {
      "midi": 55,
      "hit": false,
      "t": 7846.129000000005,
      "d": 388.46030833333407,
      "v": 107
    },
    {
      "midi": 62,
      "hit": false,
      "t": 7846.129000000005,
      "d": 407.69101666666666,
      "v": 109
    },
    {
      "midi": 31,
      "hit": false,
      "t": 7846.129000000005,
      "d": 413.46022916666607,
      "v": 112
    },
    {
      "midi": 59,
      "hit": false,
      "t": 7846.129000000005,
      "d": 426.92172499999924,
      "v": 113
    },
    {
      "midi": 43,
      "hit": false,
      "t": 7846.129000000005,
      "d": 503.8445583333332,
      "v": 98
    },
    {
      "midi": 57,
      "hit": false,
      "t": 8307.666000000005,
      "d": 283.6529479166675,
      "v": 102
    },
    {
      "midi": 64,
      "hit": false,
      "t": 8307.666000000005,
      "d": 349.998891666668,
      "v": 116
    },
    {
      "midi": 60,
      "hit": false,
      "t": 8307.666000000005,
      "d": 353.84503333333487,
      "v": 117
    },
    {
      "midi": 33,
      "hit": false,
      "t": 8307.666000000005,
      "d": 392.30645000000186,
      "v": 107
    },
    {
      "midi": 45,
      "hit": false,
      "t": 8307.666000000005,
      "d": 446.15243333333456,
      "v": 98
    },
    {
      "midi": 57,
      "hit": false,
      "t": 8653.818750000006,
      "d": 176.92251666666743,
      "v": 102
    },
    {
      "midi": 65,
      "hit": false,
      "t": 8769.203000000007,
      "d": 115.38424999999916,
      "v": 112
    },
    {
      "midi": 50,
      "hit": false,
      "t": 8769.203000000007,
      "d": 138.46109999999862,
      "v": 97
    },
    {
      "midi": 62,
      "hit": false,
      "t": 8769.203000000007,
      "d": 142.3072416666655,
      "v": 100
    },
    {
      "midi": 38,
      "hit": false,
      "t": 8769.203000000007,
      "d": 168.26869791666468,
      "v": 103
    },
    {
      "midi": 33,
      "hit": false,
      "t": 8999.971500000005,
      "d": 230.76850000000013,
      "v": 106
    },
    {
      "midi": 64,
      "hit": false,
      "t": 8999.971500000005,
      "d": 298.075979166666,
      "v": 113
    },
    {
      "midi": 60,
      "hit": false,
      "t": 8999.971500000005,
      "d": 313.4605458333335,
      "v": 119
    },
    {
      "midi": 45,
      "hit": false,
      "t": 8999.971500000005,
      "d": 317.3066875000004,
      "v": 106
    },
    {
      "midi": 57,
      "hit": false,
      "t": 8999.971500000005,
      "d": 317.3066875000004,
      "v": 107
    },
    {
      "midi": 55,
      "hit": false,
      "t": 9346.124250000006,
      "d": 196.15322500000002,
      "v": 108
    },
    {
      "midi": 36,
      "hit": false,
      "t": 9346.124250000006,
      "d": 253.8453499999996,
      "v": 108
    },
    {
      "midi": 60,
      "hit": false,
      "t": 9346.124250000006,
      "d": 253.8453499999996,
      "v": 103
    },
    {
      "midi": 64,
      "hit": false,
      "t": 9346.124250000006,
      "d": 264.42223958333307,
      "v": 103
    },
    {
      "midi": 48,
      "hit": false,
      "t": 9346.124250000006,
      "d": 276.92219999999907,
      "v": 103
    },
    {
      "midi": 38,
      "hit": false,
      "t": 9692.277000000006,
      "d": 2764.4143229166657,
      "v": 101
    },
    {
      "midi": 57,
      "hit": false,
      "t": 9692.277000000006,
      "d": 2836.5294791666656,
      "v": 103
    },
    {
      "midi": 50,
      "hit": false,
      "t": 9692.277000000006,
      "d": 2860.5678645833323,
      "v": 104
    },
    {
      "midi": 62,
      "hit": false,
      "t": 9692.277000000006,
      "d": 2860.5678645833323,
      "v": 103
    },
    {
      "midi": 65,
      "hit": false,
      "t": 9692.277000000006,
      "d": 2869.2216833333314,
      "v": 109
    },
    {
      "midi": 55,
      "hit": false,
      "t": 12692.267500000004,
      "d": 211.53779166666754,
      "v": 109
    },
    {
      "midi": 60,
      "hit": false,
      "t": 12692.267500000004,
      "d": 298.0759791666678,
      "v": 114
    },
    {
      "midi": 36,
      "hit": false,
      "t": 12692.267500000004,
      "d": 302.8836562500019,
      "v": 113
    },
    {
      "midi": 64,
      "hit": false,
      "t": 12692.267500000004,
      "d": 313.46054583333535,
      "v": 109
    },
    {
      "midi": 48,
      "hit": false,
      "t": 12692.267500000004,
      "d": 326.9220416666685,
      "v": 107
    },
    {
      "midi": 45,
      "hit": false,
      "t": 13038.420250000005,
      "d": 259.61456250000083,
      "v": 102
    },
    {
      "midi": 57,
      "hit": false,
      "t": 13038.420250000005,
      "d": 273.076058333334,
      "v": 113
    },
    {
      "midi": 64,
      "hit": false,
      "t": 13038.420250000005,
      "d": 283.6529479166675,
      "v": 108
    },
    {
      "midi": 60,
      "hit": false,
      "t": 13038.420250000005,
      "d": 288.4606250000015,
      "v": 117
    },
    {
      "midi": 33,
      "hit": false,
      "t": 13038.420250000005,
      "d": 292.3067666666684,
      "v": 102
    },
    {
      "midi": 38,
      "hit": false,
      "t": 13384.573000000006,
      "d": 3619.219308333335,
      "v": 107
    },
    {
      "midi": 57,
      "hit": false,
      "t": 13384.573000000006,
      "d": 3634.6038750000025,
      "v": 109
    },
    {
      "midi": 50,
      "hit": false,
      "t": 13384.573000000006,
      "d": 3653.834583333335,
      "v": 102
    },
    {
      "midi": 62,
      "hit": false,
      "t": 13384.573000000006,
      "d": 3653.834583333335,
      "v": 105
    },
    {
      "midi": 65,
      "hit": false,
      "t": 13384.573000000006,
      "d": 3668.2576145833355,
      "v": 104
    },
    {
      "midi": 38,
      "hit": false,
      "t": 17076.86900000001,
      "d": 13830.725433333337,
      "v": 119
    },
    {
      "midi": 50,
      "hit": false,
      "t": 17076.86900000001,
      "d": 13849.95614166667,
      "v": 124
    },
    {
      "midi": 86,
      "hit": false,
      "t": 17076.86900000001,
      "d": 13849.95614166667,
      "v": 127
    },
    {
      "midi": 74,
      "hit": false,
      "t": 17076.86900000001,
      "d": 13873.03299166667,
      "v": 109
    },
    {
      "midi": 52,
      "hit": false,
      "t": 31153.747500000012,
      "d": 198.07629583333255,
      "v": 122
    },
    {
      "midi": 33,
      "hit": false,
      "t": 31153.747500000012,
      "d": 215.3839333333308,
      "v": 116
    },
    {
      "midi": 45,
      "hit": false,
      "t": 31153.747500000012,
      "d": 217.30700416666514,
      "v": 127
    },
    {
      "midi": 57,
      "hit": false,
      "t": 31153.747500000012,
      "d": 230.7684999999983,
      "v": 122
    },
    {
      "midi": 60,
      "hit": false,
      "t": 31153.747500000012,
      "d": 230.7684999999983,
      "v": 127
    },
    {
      "midi": 36,
      "hit": false,
      "t": 31499.90025000001,
      "d": 234.614641666667,
      "v": 120
    },
    {
      "midi": 48,
      "hit": false,
      "t": 31499.90025000001,
      "d": 234.614641666667,
      "v": 126
    },
    {
      "midi": 55,
      "hit": false,
      "t": 31499.90025000001,
      "d": 234.614641666667,
      "v": 119
    },
    {
      "midi": 64,
      "hit": false,
      "t": 31499.90025000001,
      "d": 240.38385416666642,
      "v": 124
    },
    {
      "midi": 60,
      "hit": false,
      "t": 31499.90025000001,
      "d": 259.614562499999,
      "v": 114
    },
    {
      "midi": 38,
      "hit": false,
      "t": 31846.05300000001,
      "d": 12461.499,
      "v": 119
    },
    {
      "midi": 50,
      "hit": false,
      "t": 31846.05300000001,
      "d": 12461.499,
      "v": 127
    },
    {
      "midi": 62,
      "hit": false,
      "t": 31846.05300000001,
      "d": 12519.191125000001,
      "v": 119
    },
    {
      "midi": 57,
      "hit": false,
      "t": 31846.05300000001,
      "d": 12533.614156250002,
      "v": 116
    },
    {
      "midi": 65,
      "hit": false,
      "t": 31846.05300000001,
      "d": 12538.421833333337,
      "v": 127
    },
    {
      "midi": 52,
      "hit": false,
      "t": 45922.93150000001,
      "d": 198.0762958333289,
      "v": 122
    },
    {
      "midi": 33,
      "hit": false,
      "t": 45922.93150000001,
      "d": 215.3839333333308,
      "v": 116
    },
    {
      "midi": 45,
      "hit": false,
      "t": 45922.93150000001,
      "d": 217.30700416666514,
      "v": 127
    },
    {
      "midi": 57,
      "hit": false,
      "t": 45922.93150000001,
      "d": 230.7684999999983,
      "v": 122
    },
    {
      "midi": 60,
      "hit": false,
      "t": 45922.93150000001,
      "d": 230.7684999999983,
      "v": 127
    },
    {
      "midi": 36,
      "hit": false,
      "t": 46269.084250000014,
      "d": 234.614641666667,
      "v": 120
    },
    {
      "midi": 48,
      "hit": false,
      "t": 46269.084250000014,
      "d": 234.614641666667,
      "v": 126
    },
    {
      "midi": 55,
      "hit": false,
      "t": 46269.084250000014,
      "d": 234.614641666667,
      "v": 119
    },
    {
      "midi": 64,
      "hit": false,
      "t": 46269.084250000014,
      "d": 240.38385416667006,
      "v": 124
    },
    {
      "midi": 60,
      "hit": false,
      "t": 46269.084250000014,
      "d": 259.6145625000063,
      "v": 114
    },
    {
      "midi": 74,
      "hit": false,
      "t": 46615.23700000002,
      "d": 6076.90383333333,
      "v": 127
    },
    {
      "midi": 57,
      "hit": false,
      "t": 46615.23700000002,
      "d": 6134.5959583333315,
      "v": 116
    },
    {
      "midi": 38,
      "hit": false,
      "t": 46615.23700000002,
      "d": 6153.826666666668,
      "v": 119
    },
    {
      "midi": 50,
      "hit": false,
      "t": 46615.23700000002,
      "d": 6157.672808333336,
      "v": 127
    },
    {
      "midi": 62,
      "hit": false,
      "t": 46615.23700000002,
      "d": 6173.057375000004,
      "v": 119
    },
    {
      "midi": 57,
      "hit": false,
      "t": 53076.75500000003,
      "d": 80.76897499999905,
      "v": 92
    },
    {
      "midi": 45,
      "hit": false,
      "t": 53076.75500000003,
      "d": 101.92275416666234,
      "v": 92
    },
    {
      "midi": 33,
      "hit": false,
      "t": 53076.75500000003,
      "d": 119.23039166666422,
      "v": 92
    },
    {
      "midi": 52,
      "hit": false,
      "t": 53076.75500000003,
      "d": 153.8456666666607,
      "v": 92
    },
    {
      "midi": 35,
      "hit": false,
      "t": 53307.52350000002,
      "d": 82.6920458333334,
      "v": 105
    },
    {
      "midi": 47,
      "hit": false,
      "t": 53307.52350000002,
      "d": 115.3842500000028,
      "v": 104
    },
    {
      "midi": 54,
      "hit": false,
      "t": 53307.52350000002,
      "d": 168.26869791666832,
      "v": 105
    },
    {
      "midi": 59,
      "hit": false,
      "t": 53307.52350000002,
      "d": 176.92251666666562,
      "v": 103
    },
    {
      "midi": 36,
      "hit": false,
      "t": 53538.292000000016,
      "d": 99.99968333333527,
      "v": 117
    },
    {
      "midi": 48,
      "hit": false,
      "t": 53538.292000000016,
      "d": 101.92275416666962,
      "v": 117
    },
    {
      "midi": 55,
      "hit": false,
      "t": 53538.292000000016,
      "d": 153.84566666666797,
      "v": 117
    },
    {
      "midi": 60,
      "hit": false,
      "t": 53538.292000000016,
      "d": 176.92251666666562,
      "v": 116
    },
    {
      "midi": 56,
      "hit": false,
      "t": 53769.060500000014,
      "d": 163.46102083333244,
      "v": 127
    },
    {
      "midi": 49,
      "hit": false,
      "t": 53769.060500000014,
      "d": 182.69172916666867,
      "v": 127
    },
    {
      "midi": 37,
      "hit": false,
      "t": 53769.060500000014,
      "d": 198.0762958333362,
      "v": 127
    },
    {
      "midi": 61,
      "hit": false,
      "t": 53769.060500000014,
      "d": 198.0762958333362,
      "v": 127
    },
    {
      "midi": 38,
      "hit": false,
      "t": 53999.82900000002,
      "d": 373.07574166666745,
      "v": 92
    },
    {
      "midi": 50,
      "hit": false,
      "t": 53999.82900000002,
      "d": 373.07574166666745,
      "v": 92
    },
    {
      "midi": 62,
      "hit": false,
      "t": 54230.59750000002,
      "d": 57.6921250000014,
      "v": 92
    },
    {
      "midi": 65,
      "hit": false,
      "t": 54230.59750000002,
      "d": 57.6921250000014,
      "v": 92
    },
    {
      "midi": 57,
      "hit": false,
      "t": 54230.59750000002,
      "d": 63.46133750000445,
      "v": 91
    },
    {
      "midi": 57,
      "hit": false,
      "t": 54345.98175000002,
      "d": 264.4222395833349,
      "v": 79
    },
    {
      "midi": 65,
      "hit": false,
      "t": 54345.98175000002,
      "d": 269.22991666667076,
      "v": 96
    },
    {
      "midi": 62,
      "hit": false,
      "t": 54345.98175000002,
      "d": 278.84527083333523,
      "v": 89
    },
    {
      "midi": 33,
      "hit": false,
      "t": 54461.36600000002,
      "d": 332.69125416666793,
      "v": 91
    },
    {
      "midi": 45,
      "hit": false,
      "t": 54461.36600000002,
      "d": 336.53739583333663,
      "v": 91
    },
    {
      "midi": 57,
      "hit": false,
      "t": 54692.13450000002,
      "d": 355.76810416667286,
      "v": 92
    },
    {
      "midi": 62,
      "hit": false,
      "t": 54692.13450000002,
      "d": 355.76810416667286,
      "v": 99
    },
    {
      "midi": 65,
      "hit": false,
      "t": 54692.13450000002,
      "d": 355.76810416667286,
      "v": 95
    },
    {
      "midi": 38,
      "hit": false,
      "t": 54922.90300000003,
      "d": 317.3066875000004,
      "v": 91
    },
    {
      "midi": 50,
      "hit": false,
      "t": 54922.90300000003,
      "d": 317.3066875000004,
      "v": 91
    },
    {
      "midi": 62,
      "hit": false,
      "t": 55153.671500000026,
      "d": 46.15370000000257,
      "v": 88
    },
    {
      "midi": 57,
      "hit": false,
      "t": 55153.671500000026,
      "d": 57.6921250000014,
      "v": 84
    },
    {
      "midi": 65,
      "hit": false,
      "t": 55153.671500000026,
      "d": 57.6921250000014,
      "v": 87
    },
    {
      "midi": 57,
      "hit": false,
      "t": 55269.05575000003,
      "d": 288.4606249999997,
      "v": 87
    },
    {
      "midi": 62,
      "hit": false,
      "t": 55269.05575000003,
      "d": 298.0759791666642,
      "v": 96
    },
    {
      "midi": 65,
      "hit": false,
      "t": 55269.05575000003,
      "d": 298.0759791666642,
      "v": 92
    },
    {
      "midi": 45,
      "hit": false,
      "t": 55384.44000000003,
      "d": 330.7681833333336,
      "v": 91
    },
    {
      "midi": 33,
      "hit": false,
      "t": 55384.44000000003,
      "d": 332.69125416666793,
      "v": 91
    },
    {
      "midi": 57,
      "hit": false,
      "t": 55615.20850000003,
      "d": 278.8452708333425,
      "v": 98
    },
    {
      "midi": 62,
      "hit": false,
      "t": 55615.20850000003,
      "d": 283.6529479166784,
      "v": 101
    },
    {
      "midi": 65,
      "hit": false,
      "t": 55615.20850000003,
      "d": 432.6909375000105,
      "v": 104
    },
    {
      "midi": 36,
      "hit": false,
      "t": 55845.977000000035,
      "d": 349.9988916666698,
      "v": 92
    },
    {
      "midi": 48,
      "hit": false,
      "t": 55845.977000000035,
      "d": 349.9988916666698,
      "v": 92
    },
    {
      "midi": 64,
      "hit": false,
      "t": 56076.74550000004,
      "d": 52.88444791666552,
      "v": 93
    },
    {
      "midi": 55,
      "hit": false,
      "t": 56076.74550000004,
      "d": 76.92283333333035,
      "v": 99
    },
    {
      "midi": 60,
      "hit": false,
      "t": 56076.74550000004,
      "d": 76.92283333333035,
      "v": 101
    },
    {
      "midi": 55,
      "hit": false,
      "t": 56192.12975000004,
      "d": 273.07605833333946,
      "v": 82
    },
    {
      "midi": 60,
      "hit": false,
      "t": 56192.12975000004,
      "d": 298.07597916667146,
      "v": 100
    },
    {
      "midi": 64,
      "hit": false,
      "t": 56192.12975000004,
      "d": 298.07597916667146,
      "v": 92
    },
    {
      "midi": 31,
      "hit": false,
      "t": 56307.51400000004,
      "d": 360.57578125000873,
      "v": 93
    },
    {
      "midi": 43,
      "hit": false,
      "t": 56307.51400000004,
      "d": 360.57578125000873,
      "v": 93
    },
    {
      "midi": 55,
      "hit": false,
      "t": 56538.282500000045,
      "d": 407.6910166666712,
      "v": 96
    },
    {
      "midi": 60,
      "hit": false,
      "t": 56538.282500000045,
      "d": 407.6910166666712,
      "v": 107
    },
    {
      "midi": 64,
      "hit": false,
      "t": 56538.282500000045,
      "d": 409.61408750000555,
      "v": 93
    },
    {
      "midi": 36,
      "hit": false,
      "t": 56769.05100000005,
      "d": 388.4603083333277,
      "v": 92
    },
    {
      "midi": 48,
      "hit": false,
      "t": 56769.05100000005,
      "d": 388.4603083333277,
      "v": 92
    },
    {
      "midi": 64,
      "hit": false,
      "t": 56999.81950000005,
      "d": 52.88444791666552,
      "v": 95
    },
    {
      "midi": 55,
      "hit": false,
      "t": 56999.81950000005,
      "d": 80.76897499999905,
      "v": 90
    },
    {
      "midi": 60,
      "hit": false,
      "t": 56999.81950000005,
      "d": 91.3458645833307,
      "v": 100
    },
    {
      "midi": 55,
      "hit": false,
      "t": 57115.203750000044,
      "d": 283.6529479166711,
      "v": 86
    },
    {
      "midi": 60,
      "hit": false,
      "t": 57115.203750000044,
      "d": 294.22983750000276,
      "v": 92
    },
    {
      "midi": 64,
      "hit": false,
      "t": 57115.203750000044,
      "d": 298.07597916667146,
      "v": 98
    },
    {
      "midi": 46,
      "hit": false,
      "t": 57230.58800000005,
      "d": 245.19153125000594,
      "v": 92
    },
    {
      "midi": 34,
      "hit": false,
      "t": 57230.58800000005,
      "d": 249.9992083333418,
      "v": 92
    },
    {
      "midi": 33,
      "hit": false,
      "t": 57461.35650000005,
      "d": 264.42223958334216,
      "v": 91
    },
    {
      "midi": 45,
      "hit": false,
      "t": 57461.35650000005,
      "d": 269.22991666667804,
      "v": 91
    },
    {
      "midi": 55,
      "hit": false,
      "t": 57461.35650000005,
      "d": 311.5374750000119,
      "v": 98
    },
    {
      "midi": 60,
      "hit": false,
      "t": 57461.35650000005,
      "d": 322.11436458334356,
      "v": 102
    },
    {
      "midi": 64,
      "hit": false,
      "t": 57461.35650000005,
      "d": 355.76810416668013,
      "v": 96
    },
    {
      "midi": 31,
      "hit": false,
      "t": 57692.12500000006,
      "d": 388.460308333335,
      "v": 93
    },
    {
      "midi": 43,
      "hit": false,
      "t": 57692.12500000006,
      "d": 392.3064500000037,
      "v": 93
    },
    {
      "midi": 58,
      "hit": false,
      "t": 57922.893500000064,
      "d": 52.88444791666552,
      "v": 91
    },
    {
      "midi": 62,
      "hit": false,
      "t": 57922.893500000064,
      "d": 63.46133749999717,
      "v": 101
    },
    {
      "midi": 55,
      "hit": false,
      "t": 57922.893500000064,
      "d": 72.11515624999447,
      "v": 92
    },
    {
      "midi": 62,
      "hit": false,
      "t": 58038.27775000006,
      "d": 178.84558749999997,
      "v": 92
    },
    {
      "midi": 58,
      "hit": false,
      "t": 58038.27775000006,
      "d": 182.69172916666867,
      "v": 83
    },
    {
      "midi": 55,
      "hit": false,
      "t": 58038.27775000006,
      "d": 192.30708333333314,
      "v": 81
    },
    {
      "midi": 26,
      "hit": false,
      "t": 58153.66200000006,
      "d": 360.57578125000146,
      "v": 92
    },
    {
      "midi": 38,
      "hit": false,
      "t": 58153.66200000006,
      "d": 365.38345833333733,
      "v": 92
    },
    {
      "midi": 62,
      "hit": false,
      "t": 58384.43050000006,
      "d": 369.22960000000603,
      "v": 96
    },
    {
      "midi": 55,
      "hit": false,
      "t": 58384.43050000006,
      "d": 374.9988125000091,
      "v": 89
    },
    {
      "midi": 58,
      "hit": false,
      "t": 58384.43050000006,
      "d": 379.80648958334496,
      "v": 83
    },
    {
      "midi": 43,
      "hit": false,
      "t": 58615.199000000066,
      "d": 456.729322916668,
      "v": 92
    },
    {
      "midi": 31,
      "hit": false,
      "t": 58615.199000000066,
      "d": 461.5370000000039,
      "v": 92
    },
    {
      "midi": 58,
      "hit": false,
      "t": 58845.96750000007,
      "d": 52.88444791666552,
      "v": 82
    },
    {
      "midi": 62,
      "hit": false,
      "t": 58845.96750000007,
      "d": 63.46133749999717,
      "v": 95
    },
    {
      "midi": 55,
      "hit": false,
      "t": 58845.96750000007,
      "d": 355.7681041666656,
      "v": 86
    },
    {
      "midi": 58,
      "hit": false,
      "t": 58961.35175000007,
      "d": 253.84535000000324,
      "v": 85
    },
    {
      "midi": 62,
      "hit": false,
      "t": 58961.35175000007,
      "d": 269.22991666667076,
      "v": 99
    },
    {
      "midi": 29,
      "hit": false,
      "t": 59076.73600000007,
      "d": 264.4222395833349,
      "v": 92
    },
    {
      "midi": 41,
      "hit": false,
      "t": 59076.73600000007,
      "d": 264.4222395833349,
      "v": 92
    },
    {
      "midi": 40,
      "hit": false,
      "t": 59307.50450000007,
      "d": 238.4607833333357,
      "v": 91
    },
    {
      "midi": 28,
      "hit": false,
      "t": 59307.50450000007,
      "d": 240.38385416667006,
      "v": 91
    },
    {
      "midi": 55,
      "hit": false,
      "t": 59307.50450000007,
      "d": 249.99920833333454,
      "v": 95
    },
    {
      "midi": 58,
      "hit": false,
      "t": 59307.50450000007,
      "d": 264.4222395833349,
      "v": 91
    },
    {
      "midi": 62,
      "hit": false,
      "t": 59307.50450000007,
      "d": 283.6529479166711,
      "v": 100
    },
    {
      "midi": 26,
      "hit": false,
      "t": 59538.273000000074,
      "d": 360.5757812499942,
      "v": 92
    },
    {
      "midi": 38,
      "hit": false,
      "t": 59538.273000000074,
      "d": 365.38345833333005,
      "v": 92
    },
    {
      "midi": 62,
      "hit": false,
      "t": 59769.04150000007,
      "d": 52.88444791666552,
      "v": 96
    },
    {
      "midi": 65,
      "hit": false,
      "t": 59769.04150000007,
      "d": 76.92283333333035,
      "v": 93
    },
    {
      "midi": 57,
      "hit": false,
      "t": 59769.04150000007,
      "d": 307.69133333332866,
      "v": 90
    },
    {
      "midi": 62,
      "hit": false,
      "t": 59884.42575000007,
      "d": 192.30708333333314,
      "v": 100
    },
    {
      "midi": 65,
      "hit": false,
      "t": 59884.42575000007,
      "d": 192.30708333333314,
      "v": 78
    },
    {
      "midi": 33,
      "hit": false,
      "t": 59999.81000000007,
      "d": 360.57578125000146,
      "v": 92
    },
    {
      "midi": 45,
      "hit": false,
      "t": 59999.81000000007,
      "d": 360.57578125000146,
      "v": 92
    },
    {
      "midi": 57,
      "hit": false,
      "t": 60230.57850000007,
      "d": 374.9988125000091,
      "v": 90
    },
    {
      "midi": 65,
      "hit": false,
      "t": 60230.57850000007,
      "d": 379.80648958334496,
      "v": 93
    },
    {
      "midi": 62,
      "hit": false,
      "t": 60230.57850000007,
      "d": 388.46030833334225,
      "v": 100
    },
    {
      "midi": 50,
      "hit": false,
      "t": 60461.347000000074,
      "d": 373.07574166666745,
      "v": 91
    },
    {
      "midi": 38,
      "hit": false,
      "t": 60461.347000000074,
      "d": 374.9988125000018,
      "v": 91
    },
    {
      "midi": 57,
      "hit": false,
      "t": 60692.11550000008,
      "d": 76.92283333333035,
      "v": 85
    },
    {
      "midi": 62,
      "hit": false,
      "t": 60692.11550000008,
      "d": 86.53818749999482,
      "v": 96
    },
    {
      "midi": 65,
      "hit": false,
      "t": 60692.11550000008,
      "d": 86.53818749999482,
      "v": 92
    },
    {
      "midi": 57,
      "hit": false,
      "t": 60807.499750000075,
      "d": 115.3842500000028,
      "v": 81
    },
    {
      "midi": 62,
      "hit": false,
      "t": 60807.499750000075,
      "d": 115.3842500000028,
      "v": 92
    },
    {
      "midi": 65,
      "hit": false,
      "t": 60807.499750000075,
      "d": 115.3842500000028,
      "v": 82
    },
    {
      "midi": 33,
      "hit": false,
      "t": 60922.88400000008,
      "d": 206.7301145833335,
      "v": 94
    },
    {
      "midi": 45,
      "hit": false,
      "t": 60922.88400000008,
      "d": 211.53779166666936,
      "v": 94
    },
    {
      "midi": 65,
      "hit": false,
      "t": 61038.26825000008,
      "d": 161.53795000000537,
      "v": 98
    },
    {
      "midi": 57,
      "hit": false,
      "t": 61038.26825000008,
      "d": 176.9225166666729,
      "v": 93
    },
    {
      "midi": 62,
      "hit": false,
      "t": 61038.26825000008,
      "d": 176.9225166666729,
      "v": 100
    },
    {
      "midi": 36,
      "hit": false,
      "t": 61153.652500000084,
      "d": 264.42223958334216,
      "v": 93
    },
    {
      "midi": 48,
      "hit": false,
      "t": 61153.652500000084,
      "d": 269.22991666667804,
      "v": 93
    },
    {
      "midi": 57,
      "hit": false,
      "t": 61269.03675000009,
      "d": 142.30724166666914,
      "v": 93
    },
    {
      "midi": 62,
      "hit": false,
      "t": 61269.03675000009,
      "d": 142.30724166666914,
      "v": 100
    },
    {
      "midi": 65,
      "hit": false,
      "t": 61269.03675000009,
      "d": 142.30724166666914,
      "v": 97
    },
    {
      "midi": 38,
      "hit": false,
      "t": 61384.42100000009,
      "d": 392.3064500000037,
      "v": 92
    },
    {
      "midi": 50,
      "hit": false,
      "t": 61384.42100000009,
      "d": 394.22952083333803,
      "v": 92
    },
    {
      "midi": 62,
      "hit": false,
      "t": 61615.189500000095,
      "d": 63.46133749999717,
      "v": 92
    },
    {
      "midi": 57,
      "hit": false,
      "t": 61615.189500000095,
      "d": 76.92283333333035,
      "v": 85
    },
    {
      "midi": 65,
      "hit": false,
      "t": 61615.189500000095,
      "d": 413.460229166667,
      "v": 90
    },
    {
      "midi": 62,
      "hit": false,
      "t": 61730.57375000009,
      "d": 294.22983750000276,
      "v": 90
    },
    {
      "midi": 57,
      "hit": false,
      "t": 61730.57375000009,
      "d": 311.53747500000463,
      "v": 80
    },
    {
      "midi": 33,
      "hit": false,
      "t": 61845.95800000009,
      "d": 392.3064499999964,
      "v": 91
    },
    {
      "midi": 45,
      "hit": false,
      "t": 61845.95800000009,
      "d": 392.3064499999964,
      "v": 91
    },
    {
      "midi": 57,
      "hit": false,
      "t": 62076.72650000009,
      "d": 384.6141666666663,
      "v": 96
    },
    {
      "midi": 62,
      "hit": false,
      "t": 62076.72650000009,
      "d": 394.22952083333075,
      "v": 100
    },
    {
      "midi": 65,
      "hit": false,
      "t": 62076.72650000009,
      "d": 399.0371979166666,
      "v": 92
    },
    {
      "midi": 38,
      "hit": false,
      "t": 62307.49500000009,
      "d": 418.2679062500101,
      "v": 91
    },
    {
      "midi": 50,
      "hit": false,
      "t": 62307.49500000009,
      "d": 418.2679062500101,
      "v": 91
    },
    {
      "midi": 65,
      "hit": false,
      "t": 62538.26350000009,
      "d": 61.5382666666701,
      "v": 93
    },
    {
      "midi": 62,
      "hit": false,
      "t": 62538.26350000009,
      "d": 63.46133750000445,
      "v": 97
    },
    {
      "midi": 57,
      "hit": false,
      "t": 62538.26350000009,
      "d": 82.69204583334067,
      "v": 89
    },
    {
      "midi": 57,
      "hit": false,
      "t": 62653.6477500001,
      "d": 307.69133333333593,
      "v": 83
    },
    {
      "midi": 62,
      "hit": false,
      "t": 62653.6477500001,
      "d": 307.69133333333593,
      "v": 98
    },
    {
      "midi": 65,
      "hit": false,
      "t": 62653.6477500001,
      "d": 311.53747500000463,
      "v": 89
    },
    {
      "midi": 28,
      "hit": false,
      "t": 62769.0320000001,
      "d": 278.84527083333523,
      "v": 90
    },
    {
      "midi": 40,
      "hit": false,
      "t": 62769.0320000001,
      "d": 278.84527083333523,
      "v": 90
    },
    {
      "midi": 29,
      "hit": false,
      "t": 62999.8005000001,
      "d": 230.7685000000056,
      "v": 92
    },
    {
      "midi": 41,
      "hit": false,
      "t": 62999.8005000001,
      "d": 230.7685000000056,
      "v": 92
    },
    {
      "midi": 57,
      "hit": false,
      "t": 62999.8005000001,
      "d": 234.6146416666743,
      "v": 95
    },
    {
      "midi": 62,
      "hit": false,
      "t": 62999.8005000001,
      "d": 294.22983750001004,
      "v": 97
    },
    {
      "midi": 65,
      "hit": false,
      "t": 62999.8005000001,
      "d": 409.61408750001283,
      "v": 100
    },
    {
      "midi": 31,
      "hit": false,
      "t": 63230.569000000105,
      "d": 428.8447958333418,
      "v": 92
    },
    {
      "midi": 43,
      "hit": false,
      "t": 63230.569000000105,
      "d": 428.8447958333418,
      "v": 92
    },
    {
      "midi": 58,
      "hit": false,
      "t": 63461.33750000011,
      "d": 57.6921250000014,
      "v": 85
    },
    {
      "midi": 55,
      "hit": false,
      "t": 63461.33750000011,
      "d": 63.46133750000445,
      "v": 96
    },
    {
      "midi": 62,
      "hit": false,
      "t": 63461.33750000011,
      "d": 63.46133750000445,
      "v": 100
    },
    {
      "midi": 58,
      "hit": false,
      "t": 63576.72175000011,
      "d": 273.07605833333946,
      "v": 87
    },
    {
      "midi": 55,
      "hit": false,
      "t": 63576.72175000011,
      "d": 288.460625000007,
      "v": 79
    },
    {
      "midi": 62,
      "hit": false,
      "t": 63576.72175000011,
      "d": 288.460625000007,
      "v": 98
    },
    {
      "midi": 38,
      "hit": false,
      "t": 63692.106000000116,
      "d": 392.3064500000037,
      "v": 89
    },
    {
      "midi": 50,
      "hit": false,
      "t": 63692.106000000116,
      "d": 392.3064500000037,
      "v": 89
    },
    {
      "midi": 58,
      "hit": false,
      "t": 63922.87450000012,
      "d": 311.53747499999736,
      "v": 88
    },
    {
      "midi": 62,
      "hit": false,
      "t": 63922.87450000012,
      "d": 322.114364583329,
      "v": 104
    },
    {
      "midi": 55,
      "hit": false,
      "t": 63922.87450000012,
      "d": 374.99881249999453,
      "v": 98
    },
    {
      "midi": 43,
      "hit": false,
      "t": 64153.64300000012,
      "d": 442.3062916666677,
      "v": 90
    },
    {
      "midi": 31,
      "hit": false,
      "t": 64153.64300000012,
      "d": 446.1524333333364,
      "v": 90
    },
    {
      "midi": 58,
      "hit": false,
      "t": 64384.41150000012,
      "d": 57.6921250000014,
      "v": 87
    },
    {
      "midi": 62,
      "hit": false,
      "t": 64384.41150000012,
      "d": 76.92283333333762,
      "v": 98
    },
    {
      "midi": 55,
      "hit": false,
      "t": 64384.41150000012,
      "d": 80.76897500000632,
      "v": 89
    },
    {
      "midi": 58,
      "hit": false,
      "t": 64499.79575000012,
      "d": 273.07605833333946,
      "v": 88
    },
    {
      "midi": 55,
      "hit": false,
      "t": 64499.79575000012,
      "d": 288.460625000007,
      "v": 71
    },
    {
      "midi": 62,
      "hit": false,
      "t": 64499.79575000012,
      "d": 288.460625000007,
      "v": 97
    },
    {
      "midi": 38,
      "hit": false,
      "t": 64615.180000000124,
      "d": 211.53779166666936,
      "v": 90
    },
    {
      "midi": 50,
      "hit": false,
      "t": 64615.180000000124,
      "d": 211.53779166666936,
      "v": 90
    },
    {
      "midi": 58,
      "hit": false,
      "t": 64845.94850000013,
      "d": 138.46110000000044,
      "v": 89
    },
    {
      "midi": 55,
      "hit": false,
      "t": 64845.94850000013,
      "d": 153.84566666666797,
      "v": 93
    },
    {
      "midi": 32,
      "hit": false,
      "t": 64845.94850000013,
      "d": 238.46078333332844,
      "v": 90
    },
    {
      "midi": 44,
      "hit": false,
      "t": 64845.94850000013,
      "d": 238.46078333332844,
      "v": 90
    },
    {
      "midi": 62,
      "hit": false,
      "t": 64845.94850000013,
      "d": 259.61456249999173,
      "v": 96
    },
    {
      "midi": 61,
      "hit": false,
      "t": 65076.71700000013,
      "d": 1619.2256416666569,
      "v": 106
    },
    {
      "midi": 64,
      "hit": false,
      "t": 65076.71700000013,
      "d": 1663.4562708333178,
      "v": 96
    },
    {
      "midi": 57,
      "hit": false,
      "t": 65076.71700000013,
      "d": 1676.9177666666583,
      "v": 100
    },
    {
      "midi": 33,
      "hit": false,
      "t": 65076.71700000013,
      "d": 1721.1483958333192,
      "v": 96
    },
    {
      "midi": 45,
      "hit": false,
      "t": 65076.71700000013,
      "d": 1734.6098916666597,
      "v": 96
    },
    {
      "midi": 57,
      "hit": false,
      "t": 66922.86500000012,
      "d": 374.99881249999453,
      "v": 105
    },
    {
      "midi": 69,
      "hit": false,
      "t": 66922.86500000012,
      "d": 388.460308333335,
      "v": 109
    },
    {
      "midi": 64,
      "hit": false,
      "t": 66922.86500000012,
      "d": 418.2679062499956,
      "v": 101
    },
    {
      "midi": 33,
      "hit": false,
      "t": 66922.86500000012,
      "d": 499.9984166666691,
      "v": 91
    },
    {
      "midi": 45,
      "hit": false,
      "t": 66922.86500000012,
      "d": 499.9984166666691,
      "v": 91
    },
    {
      "midi": 55,
      "hit": false,
      "t": 67384.40200000012,
      "d": 388.460308333335,
      "v": 102
    },
    {
      "midi": 62,
      "hit": false,
      "t": 67384.40200000012,
      "d": 394.22952083333803,
      "v": 104
    },
    {
      "midi": 67,
      "hit": false,
      "t": 67384.40200000012,
      "d": 409.6140874999983,
      "v": 103
    },
    {
      "midi": 31,
      "hit": false,
      "t": 67384.40200000012,
      "d": 471.1523541666684,
      "v": 95
    },
    {
      "midi": 43,
      "hit": false,
      "t": 67384.40200000012,
      "d": 471.1523541666684,
      "v": 95
    },
    {
      "midi": 65,
      "hit": false,
      "t": 67845.93900000011,
      "d": 369.22960000000603,
      "v": 109
    },
    {
      "midi": 53,
      "hit": false,
      "t": 67845.93900000011,
      "d": 392.3064500000037,
      "v": 104
    },
    {
      "midi": 60,
      "hit": false,
      "t": 67845.93900000011,
      "d": 399.0371979166666,
      "v": 109
    },
    {
      "midi": 29,
      "hit": false,
      "t": 67845.93900000011,
      "d": 461.5369999999966,
      "v": 93
    },
    {
      "midi": 41,
      "hit": false,
      "t": 67845.93900000011,
      "d": 461.5369999999966,
      "v": 93
    },
    {
      "midi": 64,
      "hit": false,
      "t": 68307.47600000011,
      "d": 115.3842500000028,
      "v": 105
    },
    {
      "midi": 52,
      "hit": false,
      "t": 68307.47600000011,
      "d": 418.2679062499956,
      "v": 111
    },
    {
      "midi": 59,
      "hit": false,
      "t": 68307.47600000011,
      "d": 428.8447958333272,
      "v": 105
    },
    {
      "midi": 40,
      "hit": false,
      "t": 68307.47600000011,
      "d": 480.7677083333256,
      "v": 93
    },
    {
      "midi": 28,
      "hit": false,
      "t": 68307.47600000011,
      "d": 484.6138499999943,
      "v": 93
    },
    {
      "midi": 50,
      "hit": false,
      "t": 68769.01300000011,
      "d": 298.0759791666642,
      "v": 93
    },
    {
      "midi": 38,
      "hit": false,
      "t": 68769.01300000011,
      "d": 332.69125416666793,
      "v": 100
    },
    {
      "midi": 62,
      "hit": false,
      "t": 68999.7815000001,
      "d": 245.19153125000594,
      "v": 102
    },
    {
      "midi": 65,
      "hit": false,
      "t": 68999.7815000001,
      "d": 245.19153125000594,
      "v": 100
    },
    {
      "midi": 33,
      "hit": false,
      "t": 69230.5500000001,
      "d": 19.23070833332895,
      "v": 90
    },
    {
      "midi": 45,
      "hit": false,
      "t": 69230.5500000001,
      "d": 332.6912541666534,
      "v": 98
    },
    {
      "midi": 57,
      "hit": false,
      "t": 69461.3185000001,
      "d": 105.76889583333104,
      "v": 101
    },
    {
      "midi": 65,
      "hit": false,
      "t": 69461.3185000001,
      "d": 240.3838541666628,
      "v": 106
    },
    {
      "midi": 50,
      "hit": false,
      "t": 69692.08700000009,
      "d": 28.8460625000007,
      "v": 96
    },
    {
      "midi": 38,
      "hit": false,
      "t": 69692.08700000009,
      "d": 332.6912541666825,
      "v": 97
    },
    {
      "midi": 62,
      "hit": false,
      "t": 69922.85550000009,
      "d": 61.5382666666701,
      "v": 108
    },
    {
      "midi": 57,
      "hit": false,
      "t": 69922.85550000009,
      "d": 215.38393333334534,
      "v": 100
    },
    {
      "midi": 65,
      "hit": false,
      "t": 69922.85550000009,
      "d": 225.960822916677,
      "v": 105
    },
    {
      "midi": 45,
      "hit": false,
      "t": 70153.6240000001,
      "d": 134.61495833333174,
      "v": 93
    },
    {
      "midi": 33,
      "hit": false,
      "t": 70153.6240000001,
      "d": 211.5377916666621,
      "v": 98
    },
    {
      "midi": 57,
      "hit": false,
      "t": 70269.0082500001,
      "d": 134.6149583333172,
      "v": 105
    },
    {
      "midi": 62,
      "hit": false,
      "t": 70269.0082500001,
      "d": 292.30676666666113,
      "v": 104
    },
    {
      "midi": 65,
      "hit": false,
      "t": 70269.0082500001,
      "d": 311.5374749999901,
      "v": 112
    },
    {
      "midi": 50,
      "hit": false,
      "t": 70384.39250000009,
      "d": 129.80728125000314,
      "v": 98
    },
    {
      "midi": 38,
      "hit": false,
      "t": 70384.39250000009,
      "d": 198.0762958333362,
      "v": 97
    },
    {
      "midi": 55,
      "hit": false,
      "t": 70499.77675000009,
      "d": 101.92275416666234,
      "v": 103
    },
    {
      "midi": 48,
      "hit": false,
      "t": 70615.1610000001,
      "d": 322.1143645833363,
      "v": 102
    },
    {
      "midi": 36,
      "hit": false,
      "t": 70615.1610000001,
      "d": 336.53739583333663,
      "v": 98
    },
    {
      "midi": 60,
      "hit": false,
      "t": 70845.9295000001,
      "d": 230.76849999999104,
      "v": 112
    },
    {
      "midi": 64,
      "hit": false,
      "t": 70845.9295000001,
      "d": 230.76849999999104,
      "v": 105
    },
    {
      "midi": 31,
      "hit": false,
      "t": 71076.69800000009,
      "d": 317.3066875000077,
      "v": 106
    },
    {
      "midi": 55,
      "hit": false,
      "t": 71307.4665000001,
      "d": 91.3458645833307,
      "v": 102
    },
    {
      "midi": 64,
      "hit": false,
      "t": 71307.4665000001,
      "d": 292.3067666666466,
      "v": 103
    },
    {
      "midi": 48,
      "hit": false,
      "t": 71538.23500000009,
      "d": 46.1536999999953,
      "v": 99
    },
    {
      "midi": 36,
      "hit": false,
      "t": 71538.23500000009,
      "d": 332.6912541666534,
      "v": 100
    },
    {
      "midi": 60,
      "hit": false,
      "t": 71769.00350000008,
      "d": 105.76889583333104,
      "v": 111
    },
    {
      "midi": 55,
      "hit": false,
      "t": 71769.00350000008,
      "d": 326.9220416666649,
      "v": 111
    },
    {
      "midi": 64,
      "hit": false,
      "t": 71769.00350000008,
      "d": 701.9208541666594,
      "v": 103
    },
    {
      "midi": 31,
      "hit": false,
      "t": 71999.77200000007,
      "d": 211.53779166667664,
      "v": 105
    },
    {
      "midi": 55,
      "hit": false,
      "t": 72115.15625000007,
      "d": 115.3842500000028,
      "v": 102
    },
    {
      "midi": 60,
      "hit": false,
      "t": 72115.15625000007,
      "d": 330.7681833333336,
      "v": 96
    },
    {
      "midi": 36,
      "hit": false,
      "t": 72230.54050000008,
      "d": 198.0762958333362,
      "v": 108
    },
    {
      "midi": 55,
      "hit": false,
      "t": 72345.92475000008,
      "d": 67.30747916667315,
      "v": 93
    },
    {
      "midi": 57,
      "hit": false,
      "t": 72461.30900000007,
      "d": 353.84503333333123,
      "v": 100
    },
    {
      "midi": 38,
      "hit": false,
      "t": 72461.30900000007,
      "d": 379.8064895833377,
      "v": 104
    },
    {
      "midi": 65,
      "hit": false,
      "t": 72461.30900000007,
      "d": 379.8064895833377,
      "v": 111
    },
    {
      "midi": 50,
      "hit": false,
      "t": 72461.30900000007,
      "d": 409.6140874999983,
      "v": 98
    },
    {
      "midi": 62,
      "hit": false,
      "t": 72461.30900000007,
      "d": 413.460229166667,
      "v": 104
    },
    {
      "midi": 55,
      "hit": false,
      "t": 72922.84600000006,
      "d": 317.30668749999313,
      "v": 100
    },
    {
      "midi": 36,
      "hit": false,
      "t": 72922.84600000006,
      "d": 336.5373958333221,
      "v": 105
    },
    {
      "midi": 60,
      "hit": false,
      "t": 72922.84600000006,
      "d": 373.0757416666602,
      "v": 111
    },
    {
      "midi": 48,
      "hit": false,
      "t": 72922.84600000006,
      "d": 384.6141666666663,
      "v": 96
    },
    {
      "midi": 64,
      "hit": false,
      "t": 72922.84600000006,
      "d": 399.0371979166666,
      "v": 104
    },
    {
      "midi": 53,
      "hit": false,
      "t": 73384.38300000006,
      "d": 332.69125416666793,
      "v": 95
    },
    {
      "midi": 58,
      "hit": false,
      "t": 73384.38300000006,
      "d": 365.38345833333733,
      "v": 101
    },
    {
      "midi": 62,
      "hit": false,
      "t": 73384.38300000006,
      "d": 365.38345833333733,
      "v": 103
    },
    {
      "midi": 34,
      "hit": false,
      "t": 73384.38300000006,
      "d": 379.8064895833377,
      "v": 100
    },
    {
      "midi": 46,
      "hit": false,
      "t": 73384.38300000006,
      "d": 423.0755833333387,
      "v": 100
    },
    {
      "midi": 52,
      "hit": false,
      "t": 73845.92000000007,
      "d": 298.0759791666642,
      "v": 98
    },
    {
      "midi": 33,
      "hit": false,
      "t": 73845.92000000007,
      "d": 373.0757416666602,
      "v": 105
    },
    {
      "midi": 45,
      "hit": false,
      "t": 73845.92000000007,
      "d": 394.2295208333235,
      "v": 96
    },
    {
      "midi": 60,
      "hit": false,
      "t": 73845.92000000007,
      "d": 407.6910166666639,
      "v": 113
    },
    {
      "midi": 57,
      "hit": false,
      "t": 73845.92000000007,
      "d": 409.6140874999983,
      "v": 103
    },
    {
      "midi": 55,
      "hit": false,
      "t": 74307.45700000007,
      "d": 388.460308333335,
      "v": 107
    },
    {
      "midi": 62,
      "hit": false,
      "t": 74307.45700000007,
      "d": 407.6910166666639,
      "v": 109
    },
    {
      "midi": 31,
      "hit": false,
      "t": 74307.45700000007,
      "d": 413.460229166667,
      "v": 112
    },
    {
      "midi": 59,
      "hit": false,
      "t": 74307.45700000007,
      "d": 426.9217250000074,
      "v": 113
    },
    {
      "midi": 43,
      "hit": false,
      "t": 74307.45700000007,
      "d": 503.8445583333378,
      "v": 98
    },
    {
      "midi": 57,
      "hit": false,
      "t": 74768.99400000008,
      "d": 283.65294791666383,
      "v": 102
    },
    {
      "midi": 64,
      "hit": false,
      "t": 74768.99400000008,
      "d": 349.99889166666253,
      "v": 116
    },
    {
      "midi": 60,
      "hit": false,
      "t": 74768.99400000008,
      "d": 353.84503333333123,
      "v": 117
    },
    {
      "midi": 33,
      "hit": false,
      "t": 74768.99400000008,
      "d": 392.3064500000037,
      "v": 107
    },
    {
      "midi": 45,
      "hit": false,
      "t": 74768.99400000008,
      "d": 446.1524333333364,
      "v": 98
    },
    {
      "midi": 57,
      "hit": false,
      "t": 75115.14675000007,
      "d": 176.9225166666729,
      "v": 102
    },
    {
      "midi": 65,
      "hit": false,
      "t": 75230.53100000008,
      "d": 115.3842500000028,
      "v": 112
    },
    {
      "midi": 50,
      "hit": false,
      "t": 75230.53100000008,
      "d": 138.46110000000044,
      "v": 97
    },
    {
      "midi": 62,
      "hit": false,
      "t": 75230.53100000008,
      "d": 142.30724166666914,
      "v": 100
    },
    {
      "midi": 38,
      "hit": false,
      "t": 75230.53100000008,
      "d": 168.2686979166756,
      "v": 103
    },
    {
      "midi": 33,
      "hit": false,
      "t": 75461.29950000008,
      "d": 230.7685000000056,
      "v": 106
    },
    {
      "midi": 64,
      "hit": false,
      "t": 75461.29950000008,
      "d": 298.07597916667874,
      "v": 113
    },
    {
      "midi": 60,
      "hit": false,
      "t": 75461.29950000008,
      "d": 313.460545833339,
      "v": 119
    },
    {
      "midi": 45,
      "hit": false,
      "t": 75461.29950000008,
      "d": 317.3066875000077,
      "v": 106
    },
    {
      "midi": 57,
      "hit": false,
      "t": 75461.29950000008,
      "d": 317.3066875000077,
      "v": 107
    },
    {
      "midi": 55,
      "hit": false,
      "t": 75807.45225000009,
      "d": 196.15322500000184,
      "v": 108
    },
    {
      "midi": 36,
      "hit": false,
      "t": 75807.45225000009,
      "d": 253.84535000000324,
      "v": 108
    },
    {
      "midi": 60,
      "hit": false,
      "t": 75807.45225000009,
      "d": 253.84535000000324,
      "v": 103
    },
    {
      "midi": 64,
      "hit": false,
      "t": 75807.45225000009,
      "d": 264.4222395833349,
      "v": 103
    },
    {
      "midi": 48,
      "hit": false,
      "t": 75807.45225000009,
      "d": 276.9222000000009,
      "v": 103
    },
    {
      "midi": 38,
      "hit": false,
      "t": 76153.60500000008,
      "d": 13830.72543333334,
      "v": 119
    },
    {
      "midi": 50,
      "hit": false,
      "t": 76153.60500000008,
      "d": 13849.95614166667,
      "v": 124
    },
    {
      "midi": 86,
      "hit": false,
      "t": 76153.60500000008,
      "d": 13849.95614166667,
      "v": 127
    },
    {
      "midi": 74,
      "hit": false,
      "t": 76153.60500000008,
      "d": 13873.032991666667,
      "v": 109
    },
    {
      "midi": 52,
      "hit": false,
      "t": 90230.48350000009,
      "d": 198.0762958333362,
      "v": 122
    },
    {
      "midi": 33,
      "hit": false,
      "t": 90230.48350000009,
      "d": 215.3839333333308,
      "v": 116
    },
    {
      "midi": 45,
      "hit": false,
      "t": 90230.48350000009,
      "d": 217.30700416666514,
      "v": 127
    },
    {
      "midi": 57,
      "hit": false,
      "t": 90230.48350000009,
      "d": 230.7685000000056,
      "v": 122
    },
    {
      "midi": 60,
      "hit": false,
      "t": 90230.48350000009,
      "d": 230.7685000000056,
      "v": 127
    },
    {
      "midi": 36,
      "hit": false,
      "t": 90576.6362500001,
      "d": 234.6146416666743,
      "v": 120
    },
    {
      "midi": 48,
      "hit": false,
      "t": 90576.6362500001,
      "d": 234.6146416666743,
      "v": 126
    },
    {
      "midi": 55,
      "hit": false,
      "t": 90576.6362500001,
      "d": 234.6146416666743,
      "v": 119
    },
    {
      "midi": 64,
      "hit": false,
      "t": 90576.6362500001,
      "d": 240.38385416667734,
      "v": 124
    },
    {
      "midi": 60,
      "hit": false,
      "t": 90576.6362500001,
      "d": 259.6145625000063,
      "v": 114
    },
    {
      "midi": 50,
      "hit": false,
      "t": 90922.78900000009,
      "d": 5855.750687499996,
      "v": 127
    },
    {
      "midi": 38,
      "hit": false,
      "t": 90922.78900000009,
      "d": 5871.1352541666565,
      "v": 119
    },
    {
      "midi": 62,
      "hit": false,
      "t": 90922.78900000009,
      "d": 5892.28903333332,
      "v": 119
    },
    {
      "midi": 57,
      "hit": false,
      "t": 90922.78900000009,
      "d": 12533.614156249998,
      "v": 116
    },
    {
      "midi": 26,
      "hit": false,
      "t": 98307.38100000001,
      "d": 257.69149166667194,
      "v": 118
    },
    {
      "midi": 38,
      "hit": false,
      "t": 98307.38100000001,
      "d": 257.69149166667194,
      "v": 127
    },
    {
      "midi": 65,
      "hit": false,
      "t": 98307.38100000008,
      "d": 1888.4555583333276,
      "v": 127
    },
    {
      "midi": 69,
      "hit": false,
      "t": 98307.38100000008,
      "d": 1888.4555583333276,
      "v": 127
    },
    {
      "midi": 76,
      "hit": false,
      "t": 98307.38100000008,
      "d": 1894.2247708333307,
      "v": 127
    },
    {
      "midi": 29,
      "hit": false,
      "t": 98538.14950000001,
      "d": 240.38385416667734,
      "v": 118
    },
    {
      "midi": 41,
      "hit": false,
      "t": 98538.14950000001,
      "d": 245.19153125000594,
      "v": 117
    },
    {
      "midi": 31,
      "hit": false,
      "t": 98768.91800000002,
      "d": 225.96082291666244,
      "v": 112
    },
    {
      "midi": 43,
      "hit": false,
      "t": 98768.91800000002,
      "d": 253.84534999998868,
      "v": 119
    },
    {
      "midi": 44,
      "hit": false,
      "t": 98999.68650000001,
      "d": 196.15322500000184,
      "v": 120
    },
    {
      "midi": 32,
      "hit": false,
      "t": 98999.68650000001,
      "d": 317.3066875000077,
      "v": 120
    },
    {
      "midi": 33,
      "hit": false,
      "t": 99230.45500000002,
      "d": 215.3839333333308,
      "v": 111
    },
    {
      "midi": 45,
      "hit": false,
      "t": 99230.45500000002,
      "d": 230.76849999999104,
      "v": 117
    },
    {
      "midi": 38,
      "hit": false,
      "t": 99461.22350000001,
      "d": 196.15322500000184,
      "v": 106
    },
    {
      "midi": 50,
      "hit": false,
      "t": 99461.22350000001,
      "d": 230.7685000000056,
      "v": 112
    },
    {
      "midi": 45,
      "hit": false,
      "t": 99691.99200000001,
      "d": 230.7685000000056,
      "v": 116
    },
    {
      "midi": 33,
      "hit": false,
      "t": 99691.99200000001,
      "d": 249.99920833333454,
      "v": 111
    },
    {
      "midi": 32,
      "hit": false,
      "t": 99922.76050000002,
      "d": 198.0762958333362,
      "v": 102
    },
    {
      "midi": 44,
      "hit": false,
      "t": 99922.76050000002,
      "d": 264.4222395833349,
      "v": 108
    },
    {
      "midi": 31,
      "hit": false,
      "t": 100153.52900000002,
      "d": 225.96082291666244,
      "v": 102
    },
    {
      "midi": 43,
      "hit": false,
      "t": 100153.52900000002,
      "d": 253.84534999998868,
      "v": 109
    },
    {
      "midi": 29,
      "hit": false,
      "t": 100384.29750000002,
      "d": 225.96082291666244,
      "v": 114
    },
    {
      "midi": 41,
      "hit": false,
      "t": 100384.29750000002,
      "d": 225.96082291666244,
      "v": 117
    },
    {
      "midi": 31,
      "hit": false,
      "t": 100615.066,
      "d": 225.96082291666244,
      "v": 109
    },
    {
      "midi": 43,
      "hit": false,
      "t": 100615.066,
      "d": 230.76849999999104,
      "v": 116
    },
    {
      "midi": 32,
      "hit": false,
      "t": 100845.8345,
      "d": 215.3839333333308,
      "v": 106
    },
    {
      "midi": 44,
      "hit": false,
      "t": 100845.8345,
      "d": 253.84534999998868,
      "v": 117
    },
    {
      "midi": 33,
      "hit": false,
      "t": 101076.60299999999,
      "d": 245.19153124999139,
      "v": 107
    },
    {
      "midi": 45,
      "hit": false,
      "t": 101076.60299999999,
      "d": 259.61456249999173,
      "v": 110
    },
    {
      "midi": 29,
      "hit": false,
      "t": 101307.37149999998,
      "d": 198.0762958333362,
      "v": 110
    },
    {
      "midi": 41,
      "hit": false,
      "t": 101307.37149999998,
      "d": 230.7685000000056,
      "v": 122
    },
    {
      "midi": 31,
      "hit": false,
      "t": 101538.13999999998,
      "d": 211.5377916666621,
      "v": 101
    },
    {
      "midi": 43,
      "hit": false,
      "t": 101538.13999999998,
      "d": 249.99920833331998,
      "v": 121
    },
    {
      "midi": 29,
      "hit": false,
      "t": 101768.90849999998,
      "d": 225.96082291666244,
      "v": 109
    },
    {
      "midi": 41,
      "hit": false,
      "t": 101768.90849999998,
      "d": 230.76849999999104,
      "v": 119
    },
    {
      "midi": 26,
      "hit": false,
      "t": 101999.67699999997,
      "d": 257.69149166667194,
      "v": 118
    },
    {
      "midi": 38,
      "hit": false,
      "t": 101999.67699999997,
      "d": 257.69149166667194,
      "v": 127
    },
    {
      "midi": 65,
      "hit": false,
      "t": 101999.67700000008,
      "d": 1461.5338333333348,
      "v": 127
    },
    {
      "midi": 69,
      "hit": false,
      "t": 101999.67700000008,
      "d": 2346.14641666667,
      "v": 125
    },
    {
      "midi": 76,
      "hit": false,
      "t": 101999.67700000008,
      "d": 2353.8387000000075,
      "v": 127
    },
    {
      "midi": 29,
      "hit": false,
      "t": 102230.44549999997,
      "d": 240.38385416667734,
      "v": 118
    },
    {
      "midi": 41,
      "hit": false,
      "t": 102230.44549999997,
      "d": 245.19153125000594,
      "v": 117
    },
    {
      "midi": 31,
      "hit": false,
      "t": 102461.21399999998,
      "d": 225.96082291666244,
      "v": 112
    },
    {
      "midi": 43,
      "hit": false,
      "t": 102461.21399999998,
      "d": 253.84534999998868,
      "v": 119
    },
    {
      "midi": 44,
      "hit": false,
      "t": 102691.98249999997,
      "d": 196.15322500000184,
      "v": 120
    },
    {
      "midi": 32,
      "hit": false,
      "t": 102691.98249999997,
      "d": 317.3066875000077,
      "v": 120
    },
    {
      "midi": 33,
      "hit": false,
      "t": 102922.75099999997,
      "d": 215.3839333333308,
      "v": 111
    },
    {
      "midi": 45,
      "hit": false,
      "t": 102922.75099999997,
      "d": 230.76849999999104,
      "v": 117
    },
    {
      "midi": 38,
      "hit": false,
      "t": 103153.51949999997,
      "d": 196.15322500000184,
      "v": 106
    },
    {
      "midi": 50,
      "hit": false,
      "t": 103153.51949999997,
      "d": 230.7685000000056,
      "v": 112
    },
    {
      "midi": 45,
      "hit": false,
      "t": 103384.28799999997,
      "d": 230.7685000000056,
      "v": 116
    },
    {
      "midi": 33,
      "hit": false,
      "t": 103384.28799999997,
      "d": 249.99920833333454,
      "v": 111
    },
    {
      "midi": 32,
      "hit": false,
      "t": 103615.05649999998,
      "d": 198.0762958333362,
      "v": 102
    },
    {
      "midi": 44,
      "hit": false,
      "t": 103615.05649999998,
      "d": 264.4222395833349,
      "v": 108
    },
    {
      "midi": 31,
      "hit": false,
      "t": 103845.82499999998,
      "d": 225.96082291666244,
      "v": 102
    },
    {
      "midi": 43,
      "hit": false,
      "t": 103845.82499999998,
      "d": 253.84534999998868,
      "v": 109
    },
    {
      "midi": 29,
      "hit": false,
      "t": 104076.59349999997,
      "d": 225.96082291666244,
      "v": 114
    },
    {
      "midi": 41,
      "hit": false,
      "t": 104076.59349999997,
      "d": 225.96082291666244,
      "v": 117
    },
    {
      "midi": 31,
      "hit": false,
      "t": 104307.36199999996,
      "d": 225.96082291666244,
      "v": 109
    },
    {
      "midi": 43,
      "hit": false,
      "t": 104307.36199999996,
      "d": 230.76849999999104,
      "v": 116
    },
    {
      "midi": 32,
      "hit": false,
      "t": 104538.13049999996,
      "d": 215.3839333333308,
      "v": 106
    },
    {
      "midi": 44,
      "hit": false,
      "t": 104538.13049999996,
      "d": 253.84534999998868,
      "v": 117
    },
    {
      "midi": 33,
      "hit": false,
      "t": 104768.89899999995,
      "d": 245.19153124999139,
      "v": 107
    },
    {
      "midi": 45,
      "hit": false,
      "t": 104768.89899999995,
      "d": 259.61456249999173,
      "v": 110
    },
    {
      "midi": 29,
      "hit": false,
      "t": 104999.66749999994,
      "d": 198.0762958333362,
      "v": 110
    },
    {
      "midi": 41,
      "hit": false,
      "t": 104999.66749999994,
      "d": 230.7685000000056,
      "v": 122
    },
    {
      "midi": 31,
      "hit": false,
      "t": 105230.43599999994,
      "d": 211.5377916666621,
      "v": 101
    },
    {
      "midi": 43,
      "hit": false,
      "t": 105230.43599999994,
      "d": 249.99920833331998,
      "v": 121
    },
    {
      "midi": 29,
      "hit": false,
      "t": 105461.20449999993,
      "d": 225.96082291666244,
      "v": 109
    },
    {
      "midi": 41,
      "hit": false,
      "t": 105461.20449999993,
      "d": 230.76849999999104,
      "v": 119
    },
    {
      "midi": 26,
      "hit": false,
      "t": 105691.97299999993,
      "d": 257.69149166667194,
      "v": 118
    },
    {
      "midi": 38,
      "hit": false,
      "t": 105691.97299999993,
      "d": 257.69149166667194,
      "v": 127
    },
    {
      "midi": 65,
      "hit": false,
      "t": 105691.97300000009,
      "d": 2355.7617708333273,
      "v": 126
    },
    {
      "midi": 69,
      "hit": false,
      "t": 105691.97300000009,
      "d": 2360.569447916656,
      "v": 124
    },
    {
      "midi": 76,
      "hit": false,
      "t": 105691.97300000009,
      "d": 2365.3771249999845,
      "v": 122
    },
    {
      "midi": 29,
      "hit": false,
      "t": 105922.74149999993,
      "d": 240.38385416667734,
      "v": 118
    },
    {
      "midi": 41,
      "hit": false,
      "t": 105922.74149999993,
      "d": 245.19153125000594,
      "v": 117
    },
    {
      "midi": 31,
      "hit": false,
      "t": 106153.50999999994,
      "d": 225.96082291666244,
      "v": 112
    },
    {
      "midi": 43,
      "hit": false,
      "t": 106153.50999999994,
      "d": 253.84534999998868,
      "v": 119
    },
    {
      "midi": 44,
      "hit": false,
      "t": 106384.27849999993,
      "d": 196.15322500000184,
      "v": 120
    },
    {
      "midi": 32,
      "hit": false,
      "t": 106384.27849999993,
      "d": 317.3066875000077,
      "v": 120
    },
    {
      "midi": 33,
      "hit": false,
      "t": 106615.04699999993,
      "d": 215.3839333333308,
      "v": 111
    },
    {
      "midi": 45,
      "hit": false,
      "t": 106615.04699999993,
      "d": 230.76849999999104,
      "v": 117
    },
    {
      "midi": 38,
      "hit": false,
      "t": 106845.81549999992,
      "d": 196.15322500000184,
      "v": 106
    },
    {
      "midi": 50,
      "hit": false,
      "t": 106845.81549999992,
      "d": 230.7685000000056,
      "v": 112
    },
    {
      "midi": 45,
      "hit": false,
      "t": 107076.58399999993,
      "d": 230.7685000000056,
      "v": 116
    },
    {
      "midi": 33,
      "hit": false,
      "t": 107076.58399999993,
      "d": 249.99920833333454,
      "v": 111
    },
    {
      "midi": 32,
      "hit": false,
      "t": 107307.35249999994,
      "d": 198.0762958333362,
      "v": 102
    },
    {
      "midi": 44,
      "hit": false,
      "t": 107307.35249999994,
      "d": 264.4222395833349,
      "v": 108
    },
    {
      "midi": 31,
      "hit": false,
      "t": 107538.12099999994,
      "d": 225.96082291666244,
      "v": 102
    },
    {
      "midi": 43,
      "hit": false,
      "t": 107538.12099999994,
      "d": 253.84534999998868,
      "v": 109
    },
    {
      "midi": 29,
      "hit": false,
      "t": 107768.88949999993,
      "d": 225.96082291666244,
      "v": 114
    },
    {
      "midi": 41,
      "hit": false,
      "t": 107768.88949999993,
      "d": 225.96082291666244,
      "v": 117
    },
    {
      "midi": 31,
      "hit": false,
      "t": 107999.65799999992,
      "d": 225.96082291666244,
      "v": 109
    },
    {
      "midi": 43,
      "hit": false,
      "t": 107999.65799999992,
      "d": 230.76849999999104,
      "v": 116
    },
    {
      "midi": 32,
      "hit": false,
      "t": 108230.42649999991,
      "d": 215.3839333333308,
      "v": 106
    },
    {
      "midi": 44,
      "hit": false,
      "t": 108230.42649999991,
      "d": 253.84534999998868,
      "v": 117
    },
    {
      "midi": 33,
      "hit": false,
      "t": 108461.1949999999,
      "d": 245.19153124999139,
      "v": 107
    },
    {
      "midi": 45,
      "hit": false,
      "t": 108461.1949999999,
      "d": 259.61456249999173,
      "v": 110
    },
    {
      "midi": 29,
      "hit": false,
      "t": 108691.9634999999,
      "d": 198.0762958333362,
      "v": 110
    },
    {
      "midi": 41,
      "hit": false,
      "t": 108691.9634999999,
      "d": 230.7685000000056,
      "v": 122
    },
    {
      "midi": 31,
      "hit": false,
      "t": 108922.7319999999,
      "d": 211.5377916666621,
      "v": 101
    },
    {
      "midi": 43,
      "hit": false,
      "t": 108922.7319999999,
      "d": 249.99920833331998,
      "v": 121
    },
    {
      "midi": 29,
      "hit": false,
      "t": 109153.5004999999,
      "d": 225.96082291666244,
      "v": 109
    },
    {
      "midi": 41,
      "hit": false,
      "t": 109153.5004999999,
      "d": 230.76849999999104,
      "v": 119
    },
    {
      "midi": 26,
      "hit": false,
      "t": 109384.26899999988,
      "d": 257.69149166667194,
      "v": 118
    },
    {
      "midi": 38,
      "hit": false,
      "t": 109384.26899999988,
      "d": 257.69149166667194,
      "v": 127
    },
    {
      "midi": 29,
      "hit": false,
      "t": 109615.03749999989,
      "d": 240.38385416667734,
      "v": 118
    },
    {
      "midi": 41,
      "hit": false,
      "t": 109615.03749999989,
      "d": 245.19153125000594,
      "v": 117
    },
    {
      "midi": 31,
      "hit": false,
      "t": 109845.8059999999,
      "d": 225.96082291666244,
      "v": 112
    },
    {
      "midi": 43,
      "hit": false,
      "t": 109845.8059999999,
      "d": 253.84534999998868,
      "v": 119
    },
    {
      "midi": 44,
      "hit": false,
      "t": 110076.57449999989,
      "d": 196.15322500000184,
      "v": 120
    },
    {
      "midi": 32,
      "hit": false,
      "t": 110076.57449999989,
      "d": 317.3066875000077,
      "v": 120
    },
    {
      "midi": 33,
      "hit": false,
      "t": 110307.34299999989,
      "d": 215.3839333333308,
      "v": 111
    },
    {
      "midi": 45,
      "hit": false,
      "t": 110307.34299999989,
      "d": 230.76849999999104,
      "v": 117
    },
    {
      "midi": 38,
      "hit": false,
      "t": 110538.11149999988,
      "d": 196.15322500000184,
      "v": 106
    },
    {
      "midi": 50,
      "hit": false,
      "t": 110538.11149999988,
      "d": 230.7685000000056,
      "v": 112
    },
    {
      "midi": 45,
      "hit": false,
      "t": 110768.87999999989,
      "d": 230.7685000000056,
      "v": 116
    },
    {
      "midi": 33,
      "hit": false,
      "t": 110768.87999999989,
      "d": 249.99920833333454,
      "v": 111
    },
    {
      "midi": 32,
      "hit": false,
      "t": 110999.6484999999,
      "d": 198.0762958333362,
      "v": 102
    },
    {
      "midi": 44,
      "hit": false,
      "t": 110999.6484999999,
      "d": 264.4222395833349,
      "v": 108
    },
    {
      "midi": 31,
      "hit": false,
      "t": 111230.4169999999,
      "d": 225.96082291666244,
      "v": 102
    },
    {
      "midi": 43,
      "hit": false,
      "t": 111230.4169999999,
      "d": 253.84534999998868,
      "v": 109
    },
    {
      "midi": 29,
      "hit": false,
      "t": 111461.18549999989,
      "d": 225.96082291666244,
      "v": 114
    },
    {
      "midi": 41,
      "hit": false,
      "t": 111461.18549999989,
      "d": 225.96082291666244,
      "v": 117
    },
    {
      "midi": 31,
      "hit": false,
      "t": 111691.95399999988,
      "d": 225.96082291666244,
      "v": 109
    },
    {
      "midi": 43,
      "hit": false,
      "t": 111691.95399999988,
      "d": 230.76849999999104,
      "v": 116
    },
    {
      "midi": 32,
      "hit": false,
      "t": 111922.72249999987,
      "d": 215.3839333333308,
      "v": 106
    },
    {
      "midi": 44,
      "hit": false,
      "t": 111922.72249999987,
      "d": 253.84534999998868,
      "v": 117
    },
    {
      "midi": 33,
      "hit": false,
      "t": 112153.49099999986,
      "d": 245.19153124999139,
      "v": 107
    },
    {
      "midi": 45,
      "hit": false,
      "t": 112153.49099999986,
      "d": 259.61456249999173,
      "v": 110
    },
    {
      "midi": 29,
      "hit": false,
      "t": 112384.25949999985,
      "d": 198.0762958333362,
      "v": 110
    },
    {
      "midi": 41,
      "hit": false,
      "t": 112384.25949999985,
      "d": 230.7685000000056,
      "v": 122
    },
    {
      "midi": 31,
      "hit": false,
      "t": 112615.02799999986,
      "d": 211.5377916666621,
      "v": 101
    },
    {
      "midi": 43,
      "hit": false,
      "t": 112615.02799999986,
      "d": 249.99920833331998,
      "v": 121
    },
    {
      "midi": 29,
      "hit": false,
      "t": 112845.79649999985,
      "d": 225.96082291666244,
      "v": 109
    },
    {
      "midi": 41,
      "hit": false,
      "t": 112845.79649999985,
      "d": 230.76849999999104,
      "v": 119
    },
    {
      "midi": 26,
      "hit": false,
      "t": 113076.56499999984,
      "d": 257.69149166667194,
      "v": 118
    },
    {
      "midi": 38,
      "hit": false,
      "t": 113076.56499999984,
      "d": 257.69149166667194,
      "v": 127
    },
    {
      "midi": 29,
      "hit": false,
      "t": 113307.33349999985,
      "d": 240.38385416667734,
      "v": 118
    },
    {
      "midi": 41,
      "hit": false,
      "t": 113307.33349999985,
      "d": 245.19153125000594,
      "v": 117
    },
    {
      "midi": 31,
      "hit": false,
      "t": 113538.10199999985,
      "d": 225.96082291666244,
      "v": 112
    },
    {
      "midi": 43,
      "hit": false,
      "t": 113538.10199999985,
      "d": 253.84534999998868,
      "v": 119
    },
    {
      "midi": 44,
      "hit": false,
      "t": 113768.87049999984,
      "d": 196.15322500000184,
      "v": 120
    },
    {
      "midi": 32,
      "hit": false,
      "t": 113768.87049999984,
      "d": 317.3066875000077,
      "v": 120
    },
    {
      "midi": 33,
      "hit": false,
      "t": 113999.63899999985,
      "d": 215.3839333333308,
      "v": 111
    },
    {
      "midi": 45,
      "hit": false,
      "t": 113999.63899999985,
      "d": 230.76849999999104,
      "v": 117
    },
    {
      "midi": 38,
      "hit": false,
      "t": 114230.40749999984,
      "d": 196.15322500000184,
      "v": 106
    },
    {
      "midi": 50,
      "hit": false,
      "t": 114230.40749999984,
      "d": 230.7685000000056,
      "v": 112
    },
    {
      "midi": 45,
      "hit": false,
      "t": 114461.17599999985,
      "d": 230.7685000000056,
      "v": 116
    },
    {
      "midi": 33,
      "hit": false,
      "t": 114461.17599999985,
      "d": 249.99920833333454,
      "v": 111
    },
    {
      "midi": 32,
      "hit": false,
      "t": 114691.94449999985,
      "d": 198.0762958333362,
      "v": 102
    },
    {
      "midi": 44,
      "hit": false,
      "t": 114691.94449999985,
      "d": 264.4222395833349,
      "v": 108
    },
    {
      "midi": 31,
      "hit": false,
      "t": 114922.71299999986,
      "d": 225.96082291666244,
      "v": 102
    },
    {
      "midi": 43,
      "hit": false,
      "t": 114922.71299999986,
      "d": 253.84534999998868,
      "v": 109
    },
    {
      "midi": 29,
      "hit": false,
      "t": 115153.48149999985,
      "d": 225.96082291666244,
      "v": 114
    },
    {
      "midi": 41,
      "hit": false,
      "t": 115153.48149999985,
      "d": 225.96082291666244,
      "v": 117
    },
    {
      "midi": 31,
      "hit": false,
      "t": 115384.24999999984,
      "d": 225.96082291666244,
      "v": 109
    },
    {
      "midi": 43,
      "hit": false,
      "t": 115384.24999999984,
      "d": 230.76849999999104,
      "v": 116
    },
    {
      "midi": 32,
      "hit": false,
      "t": 115615.01849999983,
      "d": 215.3839333333308,
      "v": 106
    },
    {
      "midi": 44,
      "hit": false,
      "t": 115615.01849999983,
      "d": 253.84534999998868,
      "v": 117
    },
    {
      "midi": 33,
      "hit": false,
      "t": 115845.78699999982,
      "d": 245.19153124999139,
      "v": 107
    },
    {
      "midi": 45,
      "hit": false,
      "t": 115845.78699999982,
      "d": 259.61456249999173,
      "v": 110
    },
    {
      "midi": 28,
      "hit": false,
      "t": 116076.55549999981,
      "d": 198.0762958333362,
      "v": 110
    },
    {
      "midi": 40,
      "hit": false,
      "t": 116076.55549999981,
      "d": 230.7685000000056,
      "v": 122
    },
    {
      "midi": 29,
      "hit": false,
      "t": 116307.32399999982,
      "d": 211.5377916666621,
      "v": 101
    },
    {
      "midi": 41,
      "hit": false,
      "t": 116307.32399999982,
      "d": 230.76849999999104,
      "v": 121
    },
    {
      "midi": 30,
      "hit": false,
      "t": 116538.09249999981,
      "d": 225.96082291666244,
      "v": 109
    },
    {
      "midi": 42,
      "hit": false,
      "t": 116538.09249999981,
      "d": 249.99920833331998,
      "v": 119
    },
    {
      "midi": 31,
      "hit": false,
      "t": 116768.8609999998,
      "d": 182.6917291666614,
      "v": 119
    },
    {
      "midi": 43,
      "hit": false,
      "t": 116768.8609999998,
      "d": 238.46078333332844,
      "v": 118
    },
    {
      "midi": 33,
      "hit": false,
      "t": 116999.62949999979,
      "d": 253.84535000000324,
      "v": 118
    },
    {
      "midi": 45,
      "hit": false,
      "t": 116999.62949999979,
      "d": 288.460625000007,
      "v": 114
    },
    {
      "midi": 46,
      "hit": false,
      "t": 117230.3979999998,
      "d": 196.15322500000184,
      "v": 111
    },
    {
      "midi": 34,
      "hit": false,
      "t": 117230.3979999998,
      "d": 245.19153125000594,
      "v": 127
    },
    {
      "midi": 36,
      "hit": false,
      "t": 117461.1664999998,
      "d": 238.460783333343,
      "v": 114
    },
    {
      "midi": 48,
      "hit": false,
      "t": 117461.1664999998,
      "d": 269.22991666667804,
      "v": 105
    },
    {
      "midi": 38,
      "hit": false,
      "t": 117691.93499999981,
      "d": 240.38385416667734,
      "v": 117
    },
    {
      "midi": 50,
      "hit": false,
      "t": 117691.93499999981,
      "d": 240.38385416667734,
      "v": 117
    },
    {
      "midi": 52,
      "hit": false,
      "t": 117922.70349999981,
      "d": 225.960822916677,
      "v": 113
    },
    {
      "midi": 40,
      "hit": false,
      "t": 117922.70349999981,
      "d": 230.7685000000056,
      "v": 117
    },
    {
      "midi": 41,
      "hit": false,
      "t": 118153.47199999982,
      "d": 225.96082291666244,
      "v": 108
    },
    {
      "midi": 53,
      "hit": false,
      "t": 118153.47199999982,
      "d": 240.3838541666628,
      "v": 114
    },
    {
      "midi": 42,
      "hit": false,
      "t": 118384.24049999981,
      "d": 198.0762958333362,
      "v": 113
    },
    {
      "midi": 54,
      "hit": false,
      "t": 118384.24049999981,
      "d": 257.69149166667194,
      "v": 125
    },
    {
      "midi": 43,
      "hit": false,
      "t": 118615.00899999982,
      "d": 437.4986145833391,
      "v": 122
    },
    {
      "midi": 31,
      "hit": false,
      "t": 118615.00899999982,
      "d": 475.9600312500115,
      "v": 117
    },
    {
      "midi": 67,
      "hit": false,
      "t": 118615.00900000008,
      "d": 369.22960000000603,
      "v": 109
    },
    {
      "midi": 55,
      "hit": false,
      "t": 118615.00900000008,
      "d": 384.6141666666663,
      "v": 105
    },
    {
      "midi": 43,
      "hit": false,
      "t": 118615.00900000008,
      "d": 471.1523541666684,
      "v": 99
    },
    {
      "midi": 50,
      "hit": false,
      "t": 118615.00900000008,
      "d": 488.459991666663,
      "v": 100
    },
    {
      "midi": 62,
      "hit": false,
      "t": 118615.00900000008,
      "d": 490.3830624999973,
      "v": 105
    },
    {
      "midi": 45,
      "hit": false,
      "t": 119076.54599999983,
      "d": 437.4986145833391,
      "v": 122
    },
    {
      "midi": 33,
      "hit": false,
      "t": 119076.54599999983,
      "d": 480.7677083333401,
      "v": 124
    },
    {
      "midi": 57,
      "hit": false,
      "t": 119076.54600000007,
      "d": 278.84527083333523,
      "v": 108
    },
    {
      "midi": 64,
      "hit": false,
      "t": 119076.54600000007,
      "d": 288.460625000007,
      "v": 96
    },
    {
      "midi": 69,
      "hit": false,
      "t": 119076.54600000007,
      "d": 332.69125416666793,
      "v": 112
    },
    {
      "midi": 52,
      "hit": false,
      "t": 119076.54600000007,
      "d": 341.34507291666523,
      "v": 98
    },
    {
      "midi": 45,
      "hit": false,
      "t": 119076.54600000007,
      "d": 407.6910166666639,
      "v": 96
    },
    {
      "midi": 34,
      "hit": false,
      "t": 119538.08299999984,
      "d": 322.11436458332173,
      "v": 127
    },
    {
      "midi": 46,
      "hit": false,
      "t": 119538.08299999984,
      "d": 330.76818333331903,
      "v": 127
    },
    {
      "midi": 58,
      "hit": false,
      "t": 119538.08300000007,
      "d": 215.3839333333308,
      "v": 105
    },
    {
      "midi": 46,
      "hit": false,
      "t": 119538.08300000007,
      "d": 230.76849999999104,
      "v": 84
    },
    {
      "midi": 53,
      "hit": false,
      "t": 119538.08300000007,
      "d": 273.07605833331763,
      "v": 95
    },
    {
      "midi": 70,
      "hit": false,
      "t": 119538.08300000007,
      "d": 311.5374749999901,
      "v": 105
    },
    {
      "midi": 65,
      "hit": false,
      "t": 119538.08300000007,
      "d": 326.92204166665033,
      "v": 105
    },
    {
      "midi": 36,
      "hit": false,
      "t": 119884.23574999982,
      "d": 253.84535000000324,
      "v": 124
    },
    {
      "midi": 48,
      "hit": false,
      "t": 119884.23574999982,
      "d": 257.69149166667194,
      "v": 127
    },
    {
      "midi": 55,
      "hit": false,
      "t": 119884.23575000005,
      "d": 115.3842500000028,
      "v": 85
    },
    {
      "midi": 72,
      "hit": false,
      "t": 119884.23575000005,
      "d": 176.9225166666729,
      "v": 117
    },
    {
      "midi": 48,
      "hit": false,
      "t": 119884.23575000005,
      "d": 192.30708333333314,
      "v": 85
    },
    {
      "midi": 60,
      "hit": false,
      "t": 119884.23575000005,
      "d": 196.15322500000184,
      "v": 106
    },
    {
      "midi": 67,
      "hit": false,
      "t": 119884.23575000005,
      "d": 211.5377916666621,
      "v": 92
    },
    {
      "midi": 36,
      "hit": false,
      "t": 120230.38849999983,
      "d": 211.5377916666621,
      "v": 127
    },
    {
      "midi": 48,
      "hit": false,
      "t": 120230.38849999983,
      "d": 225.96082291666244,
      "v": 127
    },
    {
      "midi": 55,
      "hit": false,
      "t": 120230.38850000004,
      "d": 173.0763750000042,
      "v": 83
    },
    {
      "midi": 72,
      "hit": false,
      "t": 120230.38850000004,
      "d": 173.0763750000042,
      "v": 120
    },
    {
      "midi": 60,
      "hit": false,
      "t": 120230.38850000004,
      "d": 187.49940625000454,
      "v": 112
    },
    {
      "midi": 67,
      "hit": false,
      "t": 120230.38850000004,
      "d": 187.49940625000454,
      "v": 102
    },
    {
      "midi": 48,
      "hit": false,
      "t": 120230.38850000004,
      "d": 206.7301145833335,
      "v": 88
    },
    {
      "midi": 38,
      "hit": false,
      "t": 120461.15699999982,
      "d": 1384.6110000000044,
      "v": 127
    },
    {
      "midi": 50,
      "hit": false,
      "t": 120461.15700000005,
      "d": 2759.606645833337,
      "v": 101
    },
    {
      "midi": 69,
      "hit": false,
      "t": 120461.15700000005,
      "d": 2830.7602666666644,
      "v": 103
    },
    {
      "midi": 62,
      "hit": false,
      "t": 120461.15700000005,
      "d": 2855.7601874999964,
      "v": 104
    },
    {
      "midi": 74,
      "hit": false,
      "t": 120461.15700000005,
      "d": 2855.7601874999964,
      "v": 103
    },
    {
      "midi": 77,
      "hit": false,
      "t": 120461.15700000005,
      "d": 2865.375541666668,
      "v": 109
    },
    {
      "midi": 67,
      "hit": false,
      "t": 123461.14750000005,
      "d": 211.5377916666621,
      "v": 109
    },
    {
      "midi": 60,
      "hit": false,
      "t": 123461.14750000005,
      "d": 292.30676666666113,
      "v": 107
    },
    {
      "midi": 72,
      "hit": false,
      "t": 123461.14750000005,
      "d": 292.30676666666113,
      "v": 114
    },
    {
      "midi": 76,
      "hit": false,
      "t": 123461.14750000005,
      "d": 311.5374749999901,
      "v": 109
    },
    {
      "midi": 48,
      "hit": false,
      "t": 123461.14750000005,
      "d": 326.92204166665033,
      "v": 113
    },
    {
      "midi": 57,
      "hit": false,
      "t": 123807.30025000003,
      "d": 264.4222395833349,
      "v": 102
    },
    {
      "midi": 69,
      "hit": false,
      "t": 123807.30025000003,
      "d": 269.2299166666635,
      "v": 113
    },
    {
      "midi": 76,
      "hit": false,
      "t": 123807.30025000003,
      "d": 283.65294791666383,
      "v": 108
    },
    {
      "midi": 72,
      "hit": false,
      "t": 123807.30025000003,
      "d": 288.46062499999243,
      "v": 117
    },
    {
      "midi": 45,
      "hit": false,
      "t": 123807.30025000003,
      "d": 292.30676666666113,
      "v": 102
    },
    {
      "midi": 50,
      "hit": false,
      "t": 124153.45300000002,
      "d": 3615.3731666666718,
      "v": 107
    },
    {
      "midi": 69,
      "hit": false,
      "t": 124153.45300000002,
      "d": 3624.9885208333435,
      "v": 109
    },
    {
      "midi": 62,
      "hit": false,
      "t": 124153.45300000002,
      "d": 3649.0269062500156,
      "v": 102
    },
    {
      "midi": 74,
      "hit": false,
      "t": 124153.45300000002,
      "d": 3649.0269062500156,
      "v": 105
    },
    {
      "midi": 77,
      "hit": false,
      "t": 124153.45300000002,
      "d": 3663.449937500016,
      "v": 104
    },
    {
      "midi": 38,
      "hit": false,
      "t": 127845.74900000004,
      "d": 6475.941031249997,
      "v": 119
    },
    {
      "midi": 50,
      "hit": false,
      "t": 127845.74900000004,
      "d": 6480.748708333325,
      "v": 124
    },
    {
      "midi": 74,
      "hit": false,
      "t": 127845.74900000004,
      "d": 6488.440991666663,
      "v": 109
    },
    {
      "midi": 86,
      "hit": false,
      "t": 127845.74900000004,
      "d": 6499.979416666669,
      "v": 127
    },
    {
      "midi": 57,
      "hit": false,
      "t": 135230.34100000004,
      "d": 294.2298374999955,
      "v": 108
    },
    {
      "midi": 62,
      "hit": false,
      "t": 135230.34100000004,
      "d": 294.2298374999955,
      "v": 111
    },
    {
      "midi": 66,
      "hit": false,
      "t": 135230.34100000004,
      "d": 317.3066875000077,
      "v": 103
    },
    {
      "midi": 50,
      "hit": false,
      "t": 135230.34100000004,
      "d": 413.460229166667,
      "v": 109
    },
    {
      "midi": 38,
      "hit": false,
      "t": 135230.34100000004,
      "d": 1283.6497812499874,
      "v": 99
    },
    {
      "midi": 57,
      "hit": false,
      "t": 135576.49375000005,
      "d": 176.9225166666729,
      "v": 103
    },
    {
      "midi": 62,
      "hit": false,
      "t": 135576.49375000005,
      "d": 176.9225166666729,
      "v": 111
    },
    {
      "midi": 66,
      "hit": false,
      "t": 135576.49375000005,
      "d": 182.6917291666614,
      "v": 95
    },
    {
      "midi": 57,
      "hit": false,
      "t": 135807.26225000006,
      "d": 201.9224375000049,
      "v": 102
    },
    {
      "midi": 66,
      "hit": false,
      "t": 135807.26225000006,
      "d": 245.19153124999139,
      "v": 101
    },
    {
      "midi": 50,
      "hit": false,
      "t": 135922.64650000006,
      "d": 63.461337499989895,
      "v": 103
    },
    {
      "midi": 67,
      "hit": false,
      "t": 136153.41500000004,
      "d": 153.8456666666607,
      "v": 109
    },
    {
      "midi": 59,
      "hit": false,
      "t": 136153.41500000004,
      "d": 173.0763750000042,
      "v": 111
    },
    {
      "midi": 62,
      "hit": false,
      "t": 136153.41500000004,
      "d": 178.8455874999927,
      "v": 111
    },
    {
      "midi": 59,
      "hit": false,
      "t": 136384.18350000004,
      "d": 163.4610208333179,
      "v": 103
    },
    {
      "midi": 67,
      "hit": false,
      "t": 136384.18350000004,
      "d": 176.9225166666438,
      "v": 117
    },
    {
      "midi": 62,
      "hit": false,
      "t": 136384.18350000004,
      "d": 178.84558749996359,
      "v": 101
    },
    {
      "midi": 62,
      "hit": false,
      "t": 136614.95200000002,
      "d": 80.7689750000136,
      "v": 101
    },
    {
      "midi": 57,
      "hit": false,
      "t": 136614.95200000002,
      "d": 365.3834583333519,
      "v": 112
    },
    {
      "midi": 66,
      "hit": false,
      "t": 136614.95200000002,
      "d": 384.6141666666954,
      "v": 108
    },
    {
      "midi": 50,
      "hit": false,
      "t": 136845.72050000002,
      "d": 123.0765333333402,
      "v": 87
    },
    {
      "midi": 38,
      "hit": false,
      "t": 137076.48900000006,
      "d": 57.6921250000014,
      "v": 94
    },
    {
      "midi": 50,
      "hit": false,
      "t": 137076.48900000006,
      "d": 57.6921250000014,
      "v": 96
    },
    {
      "midi": 57,
      "hit": false,
      "t": 137076.48900000006,
      "d": 76.9228333333449,
      "v": 106
    },
    {
      "midi": 62,
      "hit": false,
      "t": 137076.48900000006,
      "d": 76.9228333333449,
      "v": 101
    },
    {
      "midi": 66,
      "hit": false,
      "t": 137076.48900000006,
      "d": 76.9228333333449,
      "v": 96
    },
    {
      "midi": 38,
      "hit": false,
      "t": 137307.25750000007,
      "d": 676.920933333342,
      "v": 92
    },
    {
      "midi": 50,
      "hit": false,
      "t": 137307.25750000007,
      "d": 696.1516416666855,
      "v": 108
    },
    {
      "midi": 66,
      "hit": false,
      "t": 137307.25750000007,
      "d": 1086.5350208333402,
      "v": 105
    },
    {
      "midi": 57,
      "hit": false,
      "t": 137307.25750000007,
      "d": 1099.9965166666661,
      "v": 106
    },
    {
      "midi": 62,
      "hit": false,
      "t": 137307.25750000007,
      "d": 1099.9965166666661,
      "v": 104
    },
    {
      "midi": 57,
      "hit": false,
      "t": 138461.10000000006,
      "d": 215.3839333333308,
      "v": 111
    },
    {
      "midi": 50,
      "hit": false,
      "t": 138461.10000000006,
      "d": 230.7685000000056,
      "v": 97
    },
    {
      "midi": 38,
      "hit": false,
      "t": 138461.10000000006,
      "d": 238.460783333343,
      "v": 101
    },
    {
      "midi": 66,
      "hit": false,
      "t": 138461.10000000006,
      "d": 253.8453500000178,
      "v": 108
    },
    {
      "midi": 62,
      "hit": false,
      "t": 138461.10000000006,
      "d": 269.2299166666926,
      "v": 110
    },
    {
      "midi": 37,
      "hit": false,
      "t": 138691.86850000007,
      "d": 163.461020833347,
      "v": 87
    },
    {
      "midi": 61,
      "hit": false,
      "t": 138691.86850000007,
      "d": 178.8455875000218,
      "v": 93
    },
    {
      "midi": 56,
      "hit": false,
      "t": 138691.86850000007,
      "d": 196.1532250000164,
      "v": 92
    },
    {
      "midi": 49,
      "hit": false,
      "t": 138691.86850000007,
      "d": 198.0762958333362,
      "v": 85
    },
    {
      "midi": 65,
      "hit": false,
      "t": 138691.86850000007,
      "d": 349.9988916666771,
      "v": 100
    },
    {
      "midi": 55,
      "hit": false,
      "t": 138922.63700000008,
      "d": 178.8455874999927,
      "v": 96
    },
    {
      "midi": 60,
      "hit": false,
      "t": 138922.63700000008,
      "d": 292.3067666666757,
      "v": 103
    },
    {
      "midi": 64,
      "hit": false,
      "t": 138922.63700000008,
      "d": 322.1143645833363,
      "v": 90
    },
    {
      "midi": 36,
      "hit": false,
      "t": 138922.63700000008,
      "d": 399.0371979166812,
      "v": 104
    },
    {
      "midi": 55,
      "hit": false,
      "t": 139153.40550000008,
      "d": 67.3074791666586,
      "v": 89
    },
    {
      "midi": 55,
      "hit": false,
      "t": 139268.78975000008,
      "d": 168.2686979166756,
      "v": 98
    },
    {
      "midi": 64,
      "hit": false,
      "t": 139268.78975000008,
      "d": 201.9224375000049,
      "v": 102
    },
    {
      "midi": 48,
      "hit": false,
      "t": 139384.1740000001,
      "d": 48.0767708333442,
      "v": 104
    },
    {
      "midi": 60,
      "hit": false,
      "t": 139499.5582500001,
      "d": 23.0768500000122,
      "v": 102
    },
    {
      "midi": 55,
      "hit": false,
      "t": 139499.5582500001,
      "d": 161.5379499999981,
      "v": 111
    },
    {
      "midi": 64,
      "hit": false,
      "t": 139499.5582500001,
      "d": 292.3067666666757,
      "v": 92
    },
    {
      "midi": 48,
      "hit": false,
      "t": 139614.9425000001,
      "d": 134.6149583333463,
      "v": 114
    },
    {
      "midi": 57,
      "hit": false,
      "t": 139730.3267500001,
      "d": 61.5382666666701,
      "v": 116
    },
    {
      "midi": 65,
      "hit": false,
      "t": 139845.7110000001,
      "d": 163.461020833347,
      "v": 114
    },
    {
      "midi": 57,
      "hit": false,
      "t": 139845.7110000001,
      "d": 182.6917291666905,
      "v": 101
    },
    {
      "midi": 60,
      "hit": false,
      "t": 139845.7110000001,
      "d": 192.3070833333477,
      "v": 114
    },
    {
      "midi": 57,
      "hit": false,
      "t": 140076.4795000001,
      "d": 163.461020833347,
      "v": 112
    },
    {
      "midi": 65,
      "hit": false,
      "t": 140076.4795000001,
      "d": 178.8455875000218,
      "v": 119
    },
    {
      "midi": 60,
      "hit": false,
      "t": 140076.4795000001,
      "d": 215.3839333333599,
      "v": 108
    },
    {
      "midi": 55,
      "hit": false,
      "t": 140307.24800000014,
      "d": 369.2295999999915,
      "v": 101
    },
    {
      "midi": 64,
      "hit": false,
      "t": 140307.24800000014,
      "d": 392.3064500000037,
      "v": 112
    },
    {
      "midi": 48,
      "hit": false,
      "t": 140538.01650000014,
      "d": 138.4610999999859,
      "v": 105
    },
    {
      "midi": 55,
      "hit": false,
      "t": 140768.78500000015,
      "d": 110.5765729166742,
      "v": 113
    },
    {
      "midi": 48,
      "hit": false,
      "t": 140768.78500000015,
      "d": 134.6149583333463,
      "v": 98
    },
    {
      "midi": 36,
      "hit": false,
      "t": 140768.78500000015,
      "d": 138.461100000015,
      "v": 101
    },
    {
      "midi": 60,
      "hit": false,
      "t": 140768.78500000015,
      "d": 153.8456666666898,
      "v": 109
    },
    {
      "midi": 64,
      "hit": false,
      "t": 140768.78500000015,
      "d": 157.6918083333585,
      "v": 107
    },
    {
      "midi": 36,
      "hit": false,
      "t": 140999.55350000018,
      "d": 1028.8428958333388,
      "v": 99
    },
    {
      "midi": 48,
      "hit": false,
      "t": 140999.55350000018,
      "d": 1046.1505333333334,
      "v": 92
    },
    {
      "midi": 55,
      "hit": false,
      "t": 140999.55350000018,
      "d": 1067.3043124999967,
      "v": 100
    },
    {
      "midi": 64,
      "hit": false,
      "t": 140999.55350000018,
      "d": 1072.1119895833253,
      "v": 96
    },
    {
      "midi": 60,
      "hit": false,
      "t": 140999.55350000018,
      "d": 1080.7658083333226,
      "v": 104
    },
    {
      "midi": 36,
      "hit": false,
      "t": 142153.39600000018,
      "d": 80.7689750000136,
      "v": 99
    },
    {
      "midi": 48,
      "hit": false,
      "t": 142153.39600000018,
      "d": 105.7688958333456,
      "v": 96
    },
    {
      "midi": 60,
      "hit": false,
      "t": 142153.39600000018,
      "d": 129.8072812500177,
      "v": 111
    },
    {
      "midi": 55,
      "hit": false,
      "t": 142153.39600000018,
      "d": 217.3070041666797,
      "v": 114
    },
    {
      "midi": 64,
      "hit": false,
      "t": 142153.39600000018,
      "d": 253.8453500000178,
      "v": 111
    },
    {
      "midi": 37,
      "hit": false,
      "t": 142384.1645000002,
      "d": 178.8455875000218,
      "v": 84
    },
    {
      "midi": 49,
      "hit": false,
      "t": 142384.1645000002,
      "d": 178.8455875000218,
      "v": 97
    },
    {
      "midi": 61,
      "hit": false,
      "t": 142384.1645000002,
      "d": 230.7685000000347,
      "v": 110
    },
    {
      "midi": 37,
      "hit": false,
      "t": 142614.93300000022,
      "d": 52.8844479166728,
      "v": 83
    },
    {
      "midi": 48,
      "hit": false,
      "t": 142614.93300000022,
      "d": 115.3842500000028,
      "v": 85
    },
    {
      "midi": 38,
      "hit": false,
      "t": 142614.93300000022,
      "d": 201.9224375000049,
      "v": 93
    },
    {
      "midi": 66,
      "hit": false,
      "t": 142614.93300000022,
      "d": 317.3066875000077,
      "v": 98
    },
    {
      "midi": 57,
      "hit": false,
      "t": 142614.93300000022,
      "d": 322.1143645833363,
      "v": 100
    },
    {
      "midi": 62,
      "hit": false,
      "t": 142845.70150000023,
      "d": 46.1536999999953,
      "v": 98
    },
    {
      "midi": 62,
      "hit": false,
      "t": 142961.08575000023,
      "d": 80.7689750000136,
      "v": 109
    },
    {
      "midi": 57,
      "hit": false,
      "t": 142961.08575000023,
      "d": 168.2686979166756,
      "v": 104
    },
    {
      "midi": 66,
      "hit": false,
      "t": 142961.08575000023,
      "d": 173.0763750000042,
      "v": 93
    },
    {
      "midi": 50,
      "hit": false,
      "t": 143076.47000000023,
      "d": 33.6537395833293,
      "v": 96
    },
    {
      "midi": 57,
      "hit": false,
      "t": 143191.85425000024,
      "d": 129.8072812499886,
      "v": 101
    },
    {
      "midi": 66,
      "hit": false,
      "t": 143191.85425000024,
      "d": 278.8452708333207,
      "v": 93
    },
    {
      "midi": 50,
      "hit": false,
      "t": 143307.23850000024,
      "d": 115.38424999997369,
      "v": 105
    },
    {
      "midi": 59,
      "hit": false,
      "t": 143422.6227500002,
      "d": 288.460625000007,
      "v": 102
    },
    {
      "midi": 67,
      "hit": false,
      "t": 143538.00700000022,
      "d": 178.8455874999927,
      "v": 108
    },
    {
      "midi": 62,
      "hit": false,
      "t": 143538.00700000022,
      "d": 192.3070833333186,
      "v": 111
    },
    {
      "midi": 59,
      "hit": false,
      "t": 143768.7755000002,
      "d": 168.2686979166756,
      "v": 107
    },
    {
      "midi": 62,
      "hit": false,
      "t": 143768.7755000002,
      "d": 178.8455875000218,
      "v": 100
    },
    {
      "midi": 67,
      "hit": false,
      "t": 143768.7755000002,
      "d": 192.3070833333477,
      "v": 114
    },
    {
      "midi": 62,
      "hit": false,
      "t": 143999.5440000002,
      "d": 142.3072416666546,
      "v": 105
    },
    {
      "midi": 57,
      "hit": false,
      "t": 143999.5440000002,
      "d": 269.2299166666344,
      "v": 116
    },
    {
      "midi": 66,
      "hit": false,
      "t": 143999.5440000002,
      "d": 294.2298374999664,
      "v": 100
    },
    {
      "midi": 50,
      "hit": false,
      "t": 144230.31250000017,
      "d": 3.8461416666687,
      "v": 96
    },
    {
      "midi": 66,
      "hit": false,
      "t": 144345.69675000018,
      "d": 67.3074791666586,
      "v": 56
    },
    {
      "midi": 50,
      "hit": false,
      "t": 144461.08100000018,
      "d": 80.7689750000136,
      "v": 105
    },
    {
      "midi": 38,
      "hit": false,
      "t": 144461.08100000018,
      "d": 96.1535416666884,
      "v": 95
    },
    {
      "midi": 66,
      "hit": false,
      "t": 144461.08100000018,
      "d": 101.9227541666769,
      "v": 88
    },
    {
      "midi": 62,
      "hit": false,
      "t": 144461.08100000018,
      "d": 105.7688958333456,
      "v": 106
    },
    {
      "midi": 69,
      "hit": false,
      "t": 144461.08100000018,
      "d": 105.7688958333456,
      "v": 112
    },
    {
      "midi": 66,
      "hit": false,
      "t": 144691.8495000002,
      "d": 1067.3043124999967,
      "v": 93
    },
    {
      "midi": 38,
      "hit": false,
      "t": 144691.8495000002,
      "d": 1091.3426979166688,
      "v": 93
    },
    {
      "midi": 50,
      "hit": false,
      "t": 144691.8495000002,
      "d": 1101.919587500015,
      "v": 97
    },
    {
      "midi": 69,
      "hit": false,
      "t": 144691.8495000002,
      "d": 1105.7657291666837,
      "v": 102
    },
    {
      "midi": 62,
      "hit": false,
      "t": 144691.8495000002,
      "d": 1119.2272250000096,
      "v": 99
    },
    {
      "midi": 38,
      "hit": false,
      "t": 145845.69200000018,
      "d": 123.0765333333402,
      "v": 103
    },
    {
      "midi": 50,
      "hit": false,
      "t": 145845.69200000018,
      "d": 149.0379895833321,
      "v": 103
    },
    {
      "midi": 62,
      "hit": false,
      "t": 145845.69200000018,
      "d": 157.6918083333294,
      "v": 102
    },
    {
      "midi": 57,
      "hit": false,
      "t": 145845.69200000018,
      "d": 178.8455874999927,
      "v": 113
    },
    {
      "midi": 66,
      "hit": false,
      "t": 145845.69200000018,
      "d": 253.8453500000178,
      "v": 117
    },
    {
      "midi": 65,
      "hit": false,
      "t": 146076.4605000002,
      "d": 178.8455875000218,
      "v": 120
    },
    {
      "midi": 49,
      "hit": false,
      "t": 146076.4605000002,
      "d": 187.4994062500191,
      "v": 92
    },
    {
      "midi": 37,
      "hit": false,
      "t": 146076.4605000002,
      "d": 206.7301145833626,
      "v": 92
    },
    {
      "midi": 56,
      "hit": false,
      "t": 146076.4605000002,
      "d": 211.5377916666912,
      "v": 112
    },
    {
      "midi": 61,
      "hit": false,
      "t": 146076.4605000002,
      "d": 234.6146416667034,
      "v": 108
    },
    {
      "midi": 55,
      "hit": false,
      "t": 146307.22900000022,
      "d": 173.0763750000042,
      "v": 97
    },
    {
      "midi": 64,
      "hit": false,
      "t": 146307.22900000022,
      "d": 238.460783333343,
      "v": 86
    },
    {
      "midi": 60,
      "hit": false,
      "t": 146307.22900000022,
      "d": 278.8452708333498,
      "v": 104
    },
    {
      "midi": 36,
      "hit": false,
      "t": 146307.22900000022,
      "d": 394.2295208333526,
      "v": 107
    },
    {
      "midi": 55,
      "hit": false,
      "t": 146537.99750000023,
      "d": 57.6921250000014,
      "v": 104
    },
    {
      "midi": 55,
      "hit": false,
      "t": 146653.38175000023,
      "d": 182.6917291666614,
      "v": 96
    },
    {
      "midi": 64,
      "hit": false,
      "t": 146653.38175000023,
      "d": 196.1532249999873,
      "v": 105
    },
    {
      "midi": 48,
      "hit": false,
      "t": 146768.76600000024,
      "d": 61.5382666666701,
      "v": 107
    },
    {
      "midi": 60,
      "hit": false,
      "t": 146884.1502500002,
      "d": 9.615354166657198,
      "v": 103
    },
    {
      "midi": 55,
      "hit": false,
      "t": 146884.1502500002,
      "d": 134.6149583333463,
      "v": 107
    },
    {
      "midi": 64,
      "hit": false,
      "t": 146884.1502500002,
      "d": 283.6529479167075,
      "v": 96
    },
    {
      "midi": 48,
      "hit": false,
      "t": 146999.5345000002,
      "d": 99.9996833333571,
      "v": 109
    },
    {
      "midi": 57,
      "hit": false,
      "t": 147114.91875000024,
      "d": 42.3075583333266,
      "v": 105
    },
    {
      "midi": 65,
      "hit": false,
      "t": 147230.30300000025,
      "d": 153.8456666666607,
      "v": 111
    },
    {
      "midi": 57,
      "hit": false,
      "t": 147230.30300000025,
      "d": 178.8455874999927,
      "v": 103
    },
    {
      "midi": 60,
      "hit": false,
      "t": 147230.30300000025,
      "d": 178.8455874999927,
      "v": 116
    },
    {
      "midi": 57,
      "hit": false,
      "t": 147461.07150000025,
      "d": 134.6149583333463,
      "v": 112
    },
    {
      "midi": 65,
      "hit": false,
      "t": 147461.07150000025,
      "d": 163.461020833347,
      "v": 113
    },
    {
      "midi": 60,
      "hit": false,
      "t": 147461.07150000025,
      "d": 168.2686979166756,
      "v": 119
    },
    {
      "midi": 60,
      "hit": false,
      "t": 147691.84000000026,
      "d": 153.8456666666607,
      "v": 112
    },
    {
      "midi": 55,
      "hit": false,
      "t": 147691.84000000026,
      "d": 176.9225166666729,
      "v": 114
    },
    {
      "midi": 64,
      "hit": false,
      "t": 147691.84000000026,
      "d": 225.960822916677,
      "v": 107
    },
    {
      "midi": 48,
      "hit": false,
      "t": 147922.60850000026,
      "d": 99.999683333328,
      "v": 96
    },
    {
      "midi": 48,
      "hit": false,
      "t": 148153.37700000027,
      "d": 80.7689750000136,
      "v": 103
    },
    {
      "midi": 36,
      "hit": false,
      "t": 148153.37700000027,
      "d": 91.3458645833598,
      "v": 100
    },
    {
      "midi": 60,
      "hit": false,
      "t": 148153.37700000027,
      "d": 105.7688958333456,
      "v": 102
    },
    {
      "midi": 64,
      "hit": false,
      "t": 148153.37700000027,
      "d": 105.7688958333456,
      "v": 103
    },
    {
      "midi": 67,
      "hit": false,
      "t": 148153.37700000027,
      "d": 105.7688958333456,
      "v": 104
    },
    {
      "midi": 67,
      "hit": false,
      "t": 148384.14550000028,
      "d": 298.0759791666642,
      "v": 114
    },
    {
      "midi": 60,
      "hit": false,
      "t": 148384.14550000028,
      "d": 332.6912541666534,
      "v": 112
    },
    {
      "midi": 64,
      "hit": false,
      "t": 148384.14550000028,
      "d": 373.0757416666602,
      "v": 109
    },
    {
      "midi": 48,
      "hit": false,
      "t": 148384.14550000028,
      "d": 1503.8413916667341,
      "v": 108
    },
    {
      "midi": 36,
      "hit": false,
      "t": 148384.14550000028,
      "d": 1519.225958333409,
      "v": 97
    },
    {
      "midi": 62,
      "hit": false,
      "t": 148730.29825000025,
      "d": 138.461100000015,
      "v": 102
    },
    {
      "midi": 67,
      "hit": false,
      "t": 148730.29825000025,
      "d": 173.0763750000042,
      "v": 100
    },
    {
      "midi": 64,
      "hit": false,
      "t": 148845.68250000026,
      "d": 168.2686979166756,
      "v": 96
    },
    {
      "midi": 60,
      "hit": false,
      "t": 148961.06675000026,
      "d": 63.461337500019,
      "v": 92
    },
    {
      "midi": 62,
      "hit": false,
      "t": 149076.4510000003,
      "d": 157.6918083333294,
      "v": 106
    },
    {
      "midi": 67,
      "hit": false,
      "t": 149076.4510000003,
      "d": 157.6918083333294,
      "v": 111
    },
    {
      "midi": 64,
      "hit": false,
      "t": 149191.8352500003,
      "d": 138.461100000015,
      "v": 97
    },
    {
      "midi": 60,
      "hit": false,
      "t": 149307.2195000003,
      "d": 57.6921250000014,
      "v": 95
    },
    {
      "midi": 62,
      "hit": false,
      "t": 149422.6037500003,
      "d": 110.5765729166742,
      "v": 112
    },
    {
      "midi": 67,
      "hit": false,
      "t": 149422.6037500003,
      "d": 115.3842500000028,
      "v": 114
    },
    {
      "midi": 64,
      "hit": false,
      "t": 149537.9880000003,
      "d": 134.6149583333463,
      "v": 90
    },
    {
      "midi": 60,
      "hit": false,
      "t": 149653.3722500003,
      "d": 46.1537000000244,
      "v": 95
    },
    {
      "midi": 62,
      "hit": false,
      "t": 149768.75650000034,
      "d": 110.5765729166742,
      "v": 108
    },
    {
      "midi": 67,
      "hit": false,
      "t": 149768.75650000034,
      "d": 225.960822916677,
      "v": 111
    },
    {
      "midi": 64,
      "hit": false,
      "t": 149884.14075000034,
      "d": 115.3842500000028,
      "v": 100
    },
    {
      "midi": 50,
      "hit": false,
      "t": 149999.52500000034,
      "d": 298.0759791666642,
      "v": 93
    },
    {
      "midi": 38,
      "hit": false,
      "t": 149999.52500000034,
      "d": 332.6912541666534,
      "v": 100
    },
    {
      "midi": 62,
      "hit": false,
      "t": 150230.29350000035,
      "d": 245.19153124996228,
      "v": 102
    },
    {
      "midi": 65,
      "hit": false,
      "t": 150230.29350000035,
      "d": 245.19153124996228,
      "v": 100
    },
    {
      "midi": 33,
      "hit": false,
      "t": 150461.06200000033,
      "d": 19.230708333314396,
      "v": 90
    },
    {
      "midi": 45,
      "hit": false,
      "t": 150461.06200000033,
      "d": 332.6912541666534,
      "v": 98
    },
    {
      "midi": 57,
      "hit": false,
      "t": 150691.8305000003,
      "d": 105.7688958333456,
      "v": 101
    },
    {
      "midi": 65,
      "hit": false,
      "t": 150691.8305000003,
      "d": 240.3838541666628,
      "v": 106
    },
    {
      "midi": 50,
      "hit": false,
      "t": 150922.5990000003,
      "d": 28.8460625000007,
      "v": 96
    },
    {
      "midi": 38,
      "hit": false,
      "t": 150922.5990000003,
      "d": 332.6912541666825,
      "v": 97
    },
    {
      "midi": 62,
      "hit": false,
      "t": 151153.3675000003,
      "d": 61.5382666666701,
      "v": 108
    },
    {
      "midi": 57,
      "hit": false,
      "t": 151153.3675000003,
      "d": 215.3839333333308,
      "v": 100
    },
    {
      "midi": 65,
      "hit": false,
      "t": 151153.3675000003,
      "d": 225.960822916677,
      "v": 105
    },
    {
      "midi": 45,
      "hit": false,
      "t": 151384.13600000032,
      "d": 134.6149583333463,
      "v": 93
    },
    {
      "midi": 33,
      "hit": false,
      "t": 151384.13600000032,
      "d": 211.5377916666912,
      "v": 98
    },
    {
      "midi": 57,
      "hit": false,
      "t": 151499.52025000032,
      "d": 134.6149583333754,
      "v": 105
    },
    {
      "midi": 62,
      "hit": false,
      "t": 151499.52025000032,
      "d": 292.3067666666757,
      "v": 104
    },
    {
      "midi": 65,
      "hit": false,
      "t": 151499.52025000032,
      "d": 311.5374750000192,
      "v": 112
    },
    {
      "midi": 50,
      "hit": false,
      "t": 151614.90450000035,
      "d": 129.8072812499886,
      "v": 98
    },
    {
      "midi": 38,
      "hit": false,
      "t": 151614.90450000035,
      "d": 198.07629583330709,
      "v": 97
    },
    {
      "midi": 55,
      "hit": false,
      "t": 151730.28875000036,
      "d": 101.92275416664779,
      "v": 103
    },
    {
      "midi": 48,
      "hit": false,
      "t": 151845.67300000033,
      "d": 322.1143645833363,
      "v": 102
    },
    {
      "midi": 36,
      "hit": false,
      "t": 151845.67300000033,
      "d": 336.5373958333221,
      "v": 98
    },
    {
      "midi": 60,
      "hit": false,
      "t": 152076.44150000034,
      "d": 230.76849999997648,
      "v": 112
    },
    {
      "midi": 64,
      "hit": false,
      "t": 152076.44150000034,
      "d": 230.76849999997648,
      "v": 105
    },
    {
      "midi": 31,
      "hit": false,
      "t": 152307.2100000003,
      "d": 317.3066875000077,
      "v": 106
    },
    {
      "midi": 55,
      "hit": false,
      "t": 152537.97850000032,
      "d": 91.3458645833307,
      "v": 102
    },
    {
      "midi": 64,
      "hit": false,
      "t": 152537.97850000032,
      "d": 292.3067666666757,
      "v": 103
    },
    {
      "midi": 48,
      "hit": false,
      "t": 152768.74700000032,
      "d": 46.1536999999953,
      "v": 99
    },
    {
      "midi": 36,
      "hit": false,
      "t": 152768.74700000032,
      "d": 332.6912541666825,
      "v": 100
    },
    {
      "midi": 60,
      "hit": false,
      "t": 152999.51550000033,
      "d": 105.7688958333456,
      "v": 111
    },
    {
      "midi": 55,
      "hit": false,
      "t": 152999.51550000033,
      "d": 326.9220416666649,
      "v": 111
    },
    {
      "midi": 64,
      "hit": false,
      "t": 152999.51550000033,
      "d": 701.920854166674,
      "v": 103
    },
    {
      "midi": 31,
      "hit": false,
      "t": 153230.28400000033,
      "d": 211.5377916666621,
      "v": 105
    },
    {
      "midi": 55,
      "hit": false,
      "t": 153345.66825000034,
      "d": 115.3842500000028,
      "v": 102
    },
    {
      "midi": 60,
      "hit": false,
      "t": 153345.66825000034,
      "d": 330.7681833333336,
      "v": 96
    },
    {
      "midi": 36,
      "hit": false,
      "t": 153461.05250000034,
      "d": 198.0762958333362,
      "v": 108
    },
    {
      "midi": 55,
      "hit": false,
      "t": 153576.43675000034,
      "d": 67.3074791666586,
      "v": 93
    },
    {
      "midi": 50,
      "hit": false,
      "t": 153691.82100000035,
      "d": 298.0759791666351,
      "v": 98
    },
    {
      "midi": 38,
      "hit": false,
      "t": 153691.82100000035,
      "d": 332.6912541666243,
      "v": 100
    },
    {
      "midi": 62,
      "hit": false,
      "t": 153922.58950000032,
      "d": 110.57657291664509,
      "v": 104
    },
    {
      "midi": 65,
      "hit": false,
      "t": 153922.58950000032,
      "d": 142.3072416666546,
      "v": 102
    },
    {
      "midi": 33,
      "hit": false,
      "t": 154153.3580000003,
      "d": 19.2307083333435,
      "v": 90
    },
    {
      "midi": 45,
      "hit": false,
      "t": 154153.3580000003,
      "d": 332.6912541666825,
      "v": 98
    },
    {
      "midi": 57,
      "hit": false,
      "t": 154384.1265000003,
      "d": 105.7688958333456,
      "v": 101
    },
    {
      "midi": 65,
      "hit": false,
      "t": 154384.1265000003,
      "d": 253.8453500000178,
      "v": 106
    },
    {
      "midi": 50,
      "hit": false,
      "t": 154614.8950000003,
      "d": 28.8460625000007,
      "v": 96
    },
    {
      "midi": 38,
      "hit": false,
      "t": 154614.8950000003,
      "d": 332.6912541666825,
      "v": 97
    },
    {
      "midi": 62,
      "hit": false,
      "t": 154845.66350000032,
      "d": 61.5382666666701,
      "v": 108
    },
    {
      "midi": 57,
      "hit": false,
      "t": 154845.66350000032,
      "d": 215.3839333333308,
      "v": 100
    },
    {
      "midi": 65,
      "hit": false,
      "t": 154845.66350000032,
      "d": 225.960822916677,
      "v": 105
    },
    {
      "midi": 45,
      "hit": false,
      "t": 155076.43200000032,
      "d": 134.6149583333463,
      "v": 93
    },
    {
      "midi": 33,
      "hit": false,
      "t": 155076.43200000032,
      "d": 211.5377916666912,
      "v": 98
    },
    {
      "midi": 57,
      "hit": false,
      "t": 155191.81625000032,
      "d": 134.6149583333754,
      "v": 105
    },
    {
      "midi": 62,
      "hit": false,
      "t": 155191.81625000032,
      "d": 292.3067666666757,
      "v": 104
    },
    {
      "midi": 65,
      "hit": false,
      "t": 155191.81625000032,
      "d": 311.5374750000192,
      "v": 112
    },
    {
      "midi": 50,
      "hit": false,
      "t": 155307.20050000036,
      "d": 129.8072812499886,
      "v": 98
    },
    {
      "midi": 38,
      "hit": false,
      "t": 155307.20050000036,
      "d": 198.07629583330709,
      "v": 97
    },
    {
      "midi": 55,
      "hit": false,
      "t": 155422.58475000036,
      "d": 101.92275416664779,
      "v": 103
    },
    {
      "midi": 48,
      "hit": false,
      "t": 155537.96900000033,
      "d": 322.1143645833363,
      "v": 102
    },
    {
      "midi": 36,
      "hit": false,
      "t": 155537.96900000033,
      "d": 336.5373958333221,
      "v": 98
    },
    {
      "midi": 60,
      "hit": false,
      "t": 155768.73750000034,
      "d": 230.76849999997648,
      "v": 112
    },
    {
      "midi": 64,
      "hit": false,
      "t": 155768.73750000034,
      "d": 230.76849999997648,
      "v": 105
    },
    {
      "midi": 31,
      "hit": false,
      "t": 155999.5060000003,
      "d": 317.3066875000077,
      "v": 106
    },
    {
      "midi": 55,
      "hit": false,
      "t": 156230.27450000032,
      "d": 91.3458645833307,
      "v": 102
    },
    {
      "midi": 64,
      "hit": false,
      "t": 156230.27450000032,
      "d": 292.3067666666757,
      "v": 103
    },
    {
      "midi": 48,
      "hit": false,
      "t": 156461.04300000033,
      "d": 46.1536999999953,
      "v": 99
    },
    {
      "midi": 36,
      "hit": false,
      "t": 156461.04300000033,
      "d": 332.6912541666825,
      "v": 100
    },
    {
      "midi": 60,
      "hit": false,
      "t": 156691.81150000033,
      "d": 105.7688958333456,
      "v": 111
    },
    {
      "midi": 55,
      "hit": false,
      "t": 156691.81150000033,
      "d": 326.9220416666649,
      "v": 111
    },
    {
      "midi": 64,
      "hit": false,
      "t": 156691.81150000033,
      "d": 701.920854166674,
      "v": 103
    },
    {
      "midi": 31,
      "hit": false,
      "t": 156922.58000000034,
      "d": 211.5377916666621,
      "v": 105
    },
    {
      "midi": 55,
      "hit": false,
      "t": 157037.96425000034,
      "d": 115.3842500000028,
      "v": 102
    },
    {
      "midi": 60,
      "hit": false,
      "t": 157037.96425000034,
      "d": 330.7681833333336,
      "v": 96
    },
    {
      "midi": 36,
      "hit": false,
      "t": 157153.34850000034,
      "d": 198.0762958333362,
      "v": 108
    },
    {
      "midi": 55,
      "hit": false,
      "t": 157268.73275000034,
      "d": 67.3074791666586,
      "v": 93
    },
    {
      "midi": 50,
      "hit": false,
      "t": 157384.11700000035,
      "d": 298.0759791666351,
      "v": 98
    },
    {
      "midi": 38,
      "hit": false,
      "t": 157384.11700000035,
      "d": 332.6912541666243,
      "v": 100
    },
    {
      "midi": 62,
      "hit": false,
      "t": 157614.88550000032,
      "d": 149.037989583303,
      "v": 104
    },
    {
      "midi": 65,
      "hit": false,
      "t": 157730.2697500003,
      "d": 80.7689749999845,
      "v": 111
    },
    {
      "midi": 33,
      "hit": false,
      "t": 157845.65400000027,
      "d": 19.2307083333435,
      "v": 90
    },
    {
      "midi": 45,
      "hit": false,
      "t": 157845.65400000027,
      "d": 332.6912541666825,
      "v": 98
    },
    {
      "midi": 65,
      "hit": false,
      "t": 158076.42250000028,
      "d": 3.8461416666687,
      "v": 106
    },
    {
      "midi": 57,
      "hit": false,
      "t": 158076.42250000028,
      "d": 105.7688958333456,
      "v": 101
    },
    {
      "midi": 50,
      "hit": false,
      "t": 158307.19100000028,
      "d": 28.8460625000007,
      "v": 96
    },
    {
      "midi": 38,
      "hit": false,
      "t": 158307.19100000028,
      "d": 332.6912541666825,
      "v": 97
    },
    {
      "midi": 62,
      "hit": false,
      "t": 158537.9595000003,
      "d": 61.5382666666701,
      "v": 108
    },
    {
      "midi": 57,
      "hit": false,
      "t": 158537.9595000003,
      "d": 215.3839333333308,
      "v": 100
    },
    {
      "midi": 65,
      "hit": false,
      "t": 158537.9595000003,
      "d": 225.960822916677,
      "v": 105
    },
    {
      "midi": 45,
      "hit": false,
      "t": 158768.7280000003,
      "d": 134.6149583333463,
      "v": 93
    },
    {
      "midi": 33,
      "hit": false,
      "t": 158768.7280000003,
      "d": 211.5377916666912,
      "v": 98
    },
    {
      "midi": 57,
      "hit": false,
      "t": 158884.1122500003,
      "d": 134.6149583333754,
      "v": 105
    },
    {
      "midi": 62,
      "hit": false,
      "t": 158884.1122500003,
      "d": 292.3067666666757,
      "v": 104
    },
    {
      "midi": 65,
      "hit": false,
      "t": 158884.1122500003,
      "d": 311.5374750000192,
      "v": 112
    },
    {
      "midi": 50,
      "hit": false,
      "t": 158999.49650000033,
      "d": 129.8072812499886,
      "v": 98
    },
    {
      "midi": 38,
      "hit": false,
      "t": 158999.49650000033,
      "d": 198.07629583330709,
      "v": 97
    },
    {
      "midi": 55,
      "hit": false,
      "t": 159114.88075000033,
      "d": 101.92275416664779,
      "v": 103
    },
    {
      "midi": 48,
      "hit": false,
      "t": 159230.2650000003,
      "d": 322.1143645833363,
      "v": 102
    },
    {
      "midi": 36,
      "hit": false,
      "t": 159230.2650000003,
      "d": 336.5373958333221,
      "v": 98
    },
    {
      "midi": 60,
      "hit": false,
      "t": 159461.0335000003,
      "d": 230.76849999997648,
      "v": 112
    },
    {
      "midi": 64,
      "hit": false,
      "t": 159461.0335000003,
      "d": 230.76849999997648,
      "v": 105
    },
    {
      "midi": 31,
      "hit": false,
      "t": 159691.8020000003,
      "d": 317.3066875000077,
      "v": 106
    },
    {
      "midi": 55,
      "hit": false,
      "t": 159922.5705000003,
      "d": 91.3458645833307,
      "v": 102
    },
    {
      "midi": 64,
      "hit": false,
      "t": 159922.5705000003,
      "d": 292.3067666666757,
      "v": 103
    },
    {
      "midi": 48,
      "hit": false,
      "t": 160153.3390000003,
      "d": 46.1536999999953,
      "v": 99
    },
    {
      "midi": 36,
      "hit": false,
      "t": 160153.3390000003,
      "d": 332.6912541666825,
      "v": 100
    },
    {
      "midi": 60,
      "hit": false,
      "t": 160384.1075000003,
      "d": 105.7688958333456,
      "v": 111
    },
    {
      "midi": 55,
      "hit": false,
      "t": 160384.1075000003,
      "d": 326.9220416666649,
      "v": 111
    },
    {
      "midi": 31,
      "hit": false,
      "t": 160614.8760000003,
      "d": 211.5377916666621,
      "v": 105
    },
    {
      "midi": 55,
      "hit": false,
      "t": 160730.2602500003,
      "d": 115.3842500000028,
      "v": 102
    },
    {
      "midi": 60,
      "hit": false,
      "t": 160730.2602500003,
      "d": 330.7681833333336,
      "v": 96
    },
    {
      "midi": 36,
      "hit": false,
      "t": 160845.64450000032,
      "d": 198.0762958333362,
      "v": 108
    },
    {
      "midi": 55,
      "hit": false,
      "t": 160961.02875000032,
      "d": 67.3074791666586,
      "v": 93
    },
    {
      "midi": 64,
      "hit": false,
      "t": 161076.41300000032,
      "d": 26.9229916666809,
      "v": 117
    },
    {
      "midi": 69,
      "hit": false,
      "t": 161076.41300000032,
      "d": 1698.0715458333434,
      "v": 114
    },
    {
      "midi": 33,
      "hit": false,
      "t": 161076.41300000032,
      "d": 1711.5330416666693,
      "v": 116
    },
    {
      "midi": 45,
      "hit": false,
      "t": 161076.41300000032,
      "d": 1715.379183333338,
      "v": 126
    },
    {
      "midi": 57,
      "hit": false,
      "t": 161076.41300000032,
      "d": 1730.7637500000128,
      "v": 116
    },
    {
      "midi": 33,
      "hit": false,
      "t": 162922.56100000034,
      "d": 1778.840520833328,
      "v": 117
    },
    {
      "midi": 45,
      "hit": false,
      "t": 162922.56100000034,
      "d": 1783.6481979166565,
      "v": 127
    },
    {
      "midi": 57,
      "hit": false,
      "t": 162922.56100000034,
      "d": 1811.5327249999973,
      "v": 120
    },
    {
      "midi": 64,
      "hit": false,
      "t": 162922.56100000034,
      "d": 1817.3019374999858,
      "v": 119
    },
    {
      "midi": 69,
      "hit": false,
      "t": 162922.56100000034,
      "d": 1817.3019374999858,
      "v": 119
    },
    {
      "midi": 33,
      "hit": false,
      "t": 164768.70900000032,
      "d": 980.7661249999946,
      "v": 124
    },
    {
      "midi": 45,
      "hit": false,
      "t": 164768.70900000032,
      "d": 980.7661249999946,
      "v": 120
    },
    {
      "midi": 67,
      "hit": false,
      "t": 164768.70900000032,
      "d": 980.7661249999946,
      "v": 126
    },
    {
      "midi": 72,
      "hit": false,
      "t": 164768.70900000032,
      "d": 984.6122666666633,
      "v": 127
    },
    {
      "midi": 64,
      "hit": false,
      "t": 164768.70900000032,
      "d": 990.3814791666518,
      "v": 124
    },
    {
      "midi": 33,
      "hit": false,
      "t": 165922.55150000032,
      "d": 230.7685000000056,
      "v": 114
    },
    {
      "midi": 57,
      "hit": false,
      "t": 165922.55150000032,
      "d": 230.7685000000056,
      "v": 114
    },
    {
      "midi": 45,
      "hit": false,
      "t": 165922.55150000032,
      "d": 298.0759791666642,
      "v": 120
    },
    {
      "midi": 69,
      "hit": false,
      "t": 165922.55150000032,
      "d": 313.460545833339,
      "v": 119
    },
    {
      "midi": 48,
      "hit": false,
      "t": 166268.70425000033,
      "d": 269.2299166666635,
      "v": 127
    },
    {
      "midi": 60,
      "hit": false,
      "t": 166268.70425000033,
      "d": 278.8452708333207,
      "v": 102
    },
    {
      "midi": 72,
      "hit": false,
      "t": 166268.70425000033,
      "d": 278.8452708333207,
      "v": 126
    },
    {
      "midi": 36,
      "hit": false,
      "t": 166268.70425000033,
      "d": 283.6529479166493,
      "v": 119
    },
    {
      "midi": 50,
      "hit": false,
      "t": 166614.8570000003,
      "d": 1802.87890625,
      "v": 112
    },
    {
      "midi": 62,
      "hit": false,
      "t": 166614.8570000003,
      "d": 1802.87890625,
      "v": 103
    },
    {
      "midi": 65,
      "hit": false,
      "t": 166614.8570000003,
      "d": 1802.87890625,
      "v": 116
    },
    {
      "midi": 69,
      "hit": false,
      "t": 166614.8570000003,
      "d": 1802.87890625,
      "v": 114
    },
    {
      "midi": 74,
      "hit": false,
      "t": 166614.8570000003,
      "d": 1802.87890625,
      "v": 113
    },
    {
      "midi": 38,
      "hit": false,
      "t": 168461.0050000003,
      "d": 13830.72543333334,
      "v": 119
    },
    {
      "midi": 50,
      "hit": false,
      "t": 168461.0050000003,
      "d": 13849.956141666684,
      "v": 124
    },
    {
      "midi": 86,
      "hit": false,
      "t": 168461.0050000003,
      "d": 13849.956141666684,
      "v": 127
    },
    {
      "midi": 74,
      "hit": false,
      "t": 168461.0050000003,
      "d": 13873.032991666696,
      "v": 109
    },
    {
      "midi": 57,
      "hit": false,
      "t": 185076.33700000032,
      "d": 294.2298374999955,
      "v": 108
    },
    {
      "midi": 62,
      "hit": false,
      "t": 185076.33700000032,
      "d": 294.2298374999955,
      "v": 111
    },
    {
      "midi": 66,
      "hit": false,
      "t": 185076.33700000032,
      "d": 317.3066875000077,
      "v": 103
    },
    {
      "midi": 50,
      "hit": false,
      "t": 185076.33700000032,
      "d": 413.460229166667,
      "v": 109
    },
    {
      "midi": 38,
      "hit": false,
      "t": 185076.33700000032,
      "d": 1283.6497812499874,
      "v": 99
    },
    {
      "midi": 57,
      "hit": false,
      "t": 185422.48975000033,
      "d": 176.9225166666729,
      "v": 103
    },
    {
      "midi": 62,
      "hit": false,
      "t": 185422.48975000033,
      "d": 176.9225166666729,
      "v": 111
    },
    {
      "midi": 66,
      "hit": false,
      "t": 185422.48975000033,
      "d": 182.6917291666614,
      "v": 95
    },
    {
      "midi": 57,
      "hit": false,
      "t": 185653.25825000033,
      "d": 201.9224375000049,
      "v": 102
    },
    {
      "midi": 66,
      "hit": false,
      "t": 185653.25825000033,
      "d": 245.19153124999139,
      "v": 101
    },
    {
      "midi": 50,
      "hit": false,
      "t": 185768.64250000034,
      "d": 63.461337499989895,
      "v": 103
    },
    {
      "midi": 67,
      "hit": false,
      "t": 185999.4110000003,
      "d": 153.8456666666607,
      "v": 109
    },
    {
      "midi": 59,
      "hit": false,
      "t": 185999.4110000003,
      "d": 173.0763750000042,
      "v": 111
    },
    {
      "midi": 62,
      "hit": false,
      "t": 185999.4110000003,
      "d": 178.8455874999927,
      "v": 111
    },
    {
      "midi": 59,
      "hit": false,
      "t": 186230.17950000032,
      "d": 163.4610208333179,
      "v": 103
    },
    {
      "midi": 67,
      "hit": false,
      "t": 186230.17950000032,
      "d": 176.9225166666438,
      "v": 117
    },
    {
      "midi": 62,
      "hit": false,
      "t": 186230.17950000032,
      "d": 178.84558749996359,
      "v": 101
    },
    {
      "midi": 62,
      "hit": false,
      "t": 186460.9480000003,
      "d": 80.7689750000136,
      "v": 101
    },
    {
      "midi": 57,
      "hit": false,
      "t": 186460.9480000003,
      "d": 365.3834583333519,
      "v": 112
    },
    {
      "midi": 66,
      "hit": false,
      "t": 186460.9480000003,
      "d": 384.6141666666954,
      "v": 108
    },
    {
      "midi": 50,
      "hit": false,
      "t": 186691.7165000003,
      "d": 123.0765333333402,
      "v": 87
    },
    {
      "midi": 38,
      "hit": false,
      "t": 186922.48500000034,
      "d": 57.6921250000014,
      "v": 94
    },
    {
      "midi": 50,
      "hit": false,
      "t": 186922.48500000034,
      "d": 57.6921250000014,
      "v": 96
    },
    {
      "midi": 57,
      "hit": false,
      "t": 186922.48500000034,
      "d": 76.9228333333449,
      "v": 106
    },
    {
      "midi": 62,
      "hit": false,
      "t": 186922.48500000034,
      "d": 76.9228333333449,
      "v": 101
    },
    {
      "midi": 66,
      "hit": false,
      "t": 186922.48500000034,
      "d": 76.9228333333449,
      "v": 96
    },
    {
      "midi": 38,
      "hit": false,
      "t": 187153.25350000034,
      "d": 676.920933333342,
      "v": 92
    },
    {
      "midi": 50,
      "hit": false,
      "t": 187153.25350000034,
      "d": 696.1516416666855,
      "v": 108
    },
    {
      "midi": 66,
      "hit": false,
      "t": 187153.25350000034,
      "d": 1086.5350208333402,
      "v": 105
    },
    {
      "midi": 57,
      "hit": false,
      "t": 187153.25350000034,
      "d": 1099.9965166666661,
      "v": 106
    },
    {
      "midi": 62,
      "hit": false,
      "t": 187153.25350000034,
      "d": 1099.9965166666661,
      "v": 104
    },
    {
      "midi": 57,
      "hit": false,
      "t": 188307.09600000034,
      "d": 215.3839333333308,
      "v": 111
    },
    {
      "midi": 50,
      "hit": false,
      "t": 188307.09600000034,
      "d": 230.7685000000056,
      "v": 97
    },
    {
      "midi": 38,
      "hit": false,
      "t": 188307.09600000034,
      "d": 238.460783333343,
      "v": 101
    },
    {
      "midi": 66,
      "hit": false,
      "t": 188307.09600000034,
      "d": 253.8453500000178,
      "v": 108
    },
    {
      "midi": 62,
      "hit": false,
      "t": 188307.09600000034,
      "d": 269.2299166666926,
      "v": 110
    },
    {
      "midi": 37,
      "hit": false,
      "t": 188537.86450000035,
      "d": 163.461020833347,
      "v": 87
    },
    {
      "midi": 61,
      "hit": false,
      "t": 188537.86450000035,
      "d": 178.8455875000218,
      "v": 93
    },
    {
      "midi": 56,
      "hit": false,
      "t": 188537.86450000035,
      "d": 196.1532250000164,
      "v": 92
    },
    {
      "midi": 49,
      "hit": false,
      "t": 188537.86450000035,
      "d": 198.0762958333362,
      "v": 85
    },
    {
      "midi": 65,
      "hit": false,
      "t": 188537.86450000035,
      "d": 349.9988916666771,
      "v": 100
    },
    {
      "midi": 55,
      "hit": false,
      "t": 188768.63300000035,
      "d": 178.8455874999927,
      "v": 96
    },
    {
      "midi": 60,
      "hit": false,
      "t": 188768.63300000035,
      "d": 292.3067666666757,
      "v": 103
    },
    {
      "midi": 64,
      "hit": false,
      "t": 188768.63300000035,
      "d": 322.1143645833363,
      "v": 90
    },
    {
      "midi": 36,
      "hit": false,
      "t": 188768.63300000035,
      "d": 399.0371979166812,
      "v": 104
    },
    {
      "midi": 55,
      "hit": false,
      "t": 188999.40150000036,
      "d": 67.3074791666586,
      "v": 89
    },
    {
      "midi": 55,
      "hit": false,
      "t": 189114.78575000036,
      "d": 168.2686979166756,
      "v": 98
    },
    {
      "midi": 64,
      "hit": false,
      "t": 189114.78575000036,
      "d": 201.9224375000049,
      "v": 102
    },
    {
      "midi": 48,
      "hit": false,
      "t": 189230.17000000036,
      "d": 48.0767708333442,
      "v": 104
    },
    {
      "midi": 60,
      "hit": false,
      "t": 189345.55425000036,
      "d": 23.0768500000122,
      "v": 102
    },
    {
      "midi": 55,
      "hit": false,
      "t": 189345.55425000036,
      "d": 161.5379499999981,
      "v": 111
    },
    {
      "midi": 64,
      "hit": false,
      "t": 189345.55425000036,
      "d": 292.3067666666757,
      "v": 92
    },
    {
      "midi": 48,
      "hit": false,
      "t": 189460.93850000037,
      "d": 134.6149583333463,
      "v": 114
    },
    {
      "midi": 57,
      "hit": false,
      "t": 189576.32275000037,
      "d": 61.5382666666701,
      "v": 116
    },
    {
      "midi": 65,
      "hit": false,
      "t": 189691.70700000037,
      "d": 163.461020833347,
      "v": 114
    },
    {
      "midi": 57,
      "hit": false,
      "t": 189691.70700000037,
      "d": 182.6917291666905,
      "v": 101
    },
    {
      "midi": 60,
      "hit": false,
      "t": 189691.70700000037,
      "d": 192.3070833333477,
      "v": 114
    },
    {
      "midi": 57,
      "hit": false,
      "t": 189922.47550000038,
      "d": 163.461020833347,
      "v": 112
    },
    {
      "midi": 65,
      "hit": false,
      "t": 189922.47550000038,
      "d": 178.8455875000218,
      "v": 119
    },
    {
      "midi": 60,
      "hit": false,
      "t": 189922.47550000038,
      "d": 215.3839333333599,
      "v": 108
    },
    {
      "midi": 55,
      "hit": false,
      "t": 190153.2440000004,
      "d": 369.2295999999915,
      "v": 101
    },
    {
      "midi": 64,
      "hit": false,
      "t": 190153.2440000004,
      "d": 392.3064500000037,
      "v": 112
    },
    {
      "midi": 48,
      "hit": false,
      "t": 190384.01250000042,
      "d": 138.4610999999859,
      "v": 105
    },
    {
      "midi": 55,
      "hit": false,
      "t": 190614.78100000042,
      "d": 110.5765729166742,
      "v": 113
    },
    {
      "midi": 48,
      "hit": false,
      "t": 190614.78100000042,
      "d": 134.6149583333463,
      "v": 98
    },
    {
      "midi": 36,
      "hit": false,
      "t": 190614.78100000042,
      "d": 138.461100000015,
      "v": 101
    },
    {
      "midi": 60,
      "hit": false,
      "t": 190614.78100000042,
      "d": 153.8456666666898,
      "v": 109
    },
    {
      "midi": 64,
      "hit": false,
      "t": 190614.78100000042,
      "d": 157.6918083333585,
      "v": 107
    },
    {
      "midi": 36,
      "hit": false,
      "t": 190845.54950000046,
      "d": 1028.8428958333388,
      "v": 99
    },
    {
      "midi": 48,
      "hit": false,
      "t": 190845.54950000046,
      "d": 1046.1505333333334,
      "v": 92
    },
    {
      "midi": 55,
      "hit": false,
      "t": 190845.54950000046,
      "d": 1067.3043124999967,
      "v": 100
    },
    {
      "midi": 64,
      "hit": false,
      "t": 190845.54950000046,
      "d": 1072.1119895833253,
      "v": 96
    },
    {
      "midi": 60,
      "hit": false,
      "t": 190845.54950000046,
      "d": 1080.7658083333226,
      "v": 104
    },
    {
      "midi": 36,
      "hit": false,
      "t": 191999.39200000046,
      "d": 80.7689750000136,
      "v": 99
    },
    {
      "midi": 48,
      "hit": false,
      "t": 191999.39200000046,
      "d": 105.7688958333456,
      "v": 96
    },
    {
      "midi": 60,
      "hit": false,
      "t": 191999.39200000046,
      "d": 129.8072812500177,
      "v": 111
    },
    {
      "midi": 55,
      "hit": false,
      "t": 191999.39200000046,
      "d": 217.3070041666797,
      "v": 114
    },
    {
      "midi": 64,
      "hit": false,
      "t": 191999.39200000046,
      "d": 253.8453500000178,
      "v": 111
    },
    {
      "midi": 37,
      "hit": false,
      "t": 192230.16050000046,
      "d": 178.8455875000218,
      "v": 84
    },
    {
      "midi": 49,
      "hit": false,
      "t": 192230.16050000046,
      "d": 178.8455875000218,
      "v": 97
    },
    {
      "midi": 61,
      "hit": false,
      "t": 192230.16050000046,
      "d": 230.7685000000347,
      "v": 110
    },
    {
      "midi": 37,
      "hit": false,
      "t": 192460.9290000005,
      "d": 52.8844479166728,
      "v": 83
    },
    {
      "midi": 48,
      "hit": false,
      "t": 192460.9290000005,
      "d": 115.3842500000028,
      "v": 85
    },
    {
      "midi": 38,
      "hit": false,
      "t": 192460.9290000005,
      "d": 201.9224375000049,
      "v": 93
    },
    {
      "midi": 66,
      "hit": false,
      "t": 192460.9290000005,
      "d": 317.3066875000077,
      "v": 98
    },
    {
      "midi": 57,
      "hit": false,
      "t": 192460.9290000005,
      "d": 322.1143645833363,
      "v": 100
    },
    {
      "midi": 62,
      "hit": false,
      "t": 192691.6975000005,
      "d": 46.1536999999953,
      "v": 98
    },
    {
      "midi": 62,
      "hit": false,
      "t": 192807.0817500005,
      "d": 80.7689750000136,
      "v": 109
    },
    {
      "midi": 57,
      "hit": false,
      "t": 192807.0817500005,
      "d": 168.2686979166756,
      "v": 104
    },
    {
      "midi": 66,
      "hit": false,
      "t": 192807.0817500005,
      "d": 173.0763750000042,
      "v": 93
    },
    {
      "midi": 50,
      "hit": false,
      "t": 192922.4660000005,
      "d": 33.6537395833293,
      "v": 96
    },
    {
      "midi": 57,
      "hit": false,
      "t": 193037.8502500005,
      "d": 129.8072812499886,
      "v": 101
    },
    {
      "midi": 66,
      "hit": false,
      "t": 193037.8502500005,
      "d": 278.8452708333207,
      "v": 93
    },
    {
      "midi": 50,
      "hit": false,
      "t": 193153.23450000052,
      "d": 115.38424999997369,
      "v": 105
    },
    {
      "midi": 59,
      "hit": false,
      "t": 193268.6187500005,
      "d": 288.460625000007,
      "v": 102
    },
    {
      "midi": 67,
      "hit": false,
      "t": 193384.0030000005,
      "d": 178.8455874999927,
      "v": 108
    },
    {
      "midi": 62,
      "hit": false,
      "t": 193384.0030000005,
      "d": 192.3070833333186,
      "v": 111
    },
    {
      "midi": 59,
      "hit": false,
      "t": 193614.77150000047,
      "d": 168.2686979166756,
      "v": 107
    },
    {
      "midi": 62,
      "hit": false,
      "t": 193614.77150000047,
      "d": 178.8455875000218,
      "v": 100
    },
    {
      "midi": 67,
      "hit": false,
      "t": 193614.77150000047,
      "d": 192.3070833333477,
      "v": 114
    },
    {
      "midi": 62,
      "hit": false,
      "t": 193845.54000000047,
      "d": 142.3072416666546,
      "v": 105
    },
    {
      "midi": 57,
      "hit": false,
      "t": 193845.54000000047,
      "d": 269.2299166666344,
      "v": 116
    },
    {
      "midi": 66,
      "hit": false,
      "t": 193845.54000000047,
      "d": 294.2298374999664,
      "v": 100
    },
    {
      "midi": 50,
      "hit": false,
      "t": 194076.30850000045,
      "d": 3.8461416666687,
      "v": 96
    },
    {
      "midi": 66,
      "hit": false,
      "t": 194191.69275000045,
      "d": 67.3074791666586,
      "v": 56
    },
    {
      "midi": 50,
      "hit": false,
      "t": 194307.07700000046,
      "d": 80.7689750000136,
      "v": 105
    },
    {
      "midi": 38,
      "hit": false,
      "t": 194307.07700000046,
      "d": 96.1535416666884,
      "v": 95
    },
    {
      "midi": 66,
      "hit": false,
      "t": 194307.07700000046,
      "d": 101.9227541666769,
      "v": 88
    },
    {
      "midi": 62,
      "hit": false,
      "t": 194307.07700000046,
      "d": 105.7688958333456,
      "v": 106
    },
    {
      "midi": 69,
      "hit": false,
      "t": 194307.07700000046,
      "d": 105.7688958333456,
      "v": 112
    },
    {
      "midi": 66,
      "hit": false,
      "t": 194537.84550000046,
      "d": 1067.3043124999967,
      "v": 93
    },
    {
      "midi": 38,
      "hit": false,
      "t": 194537.84550000046,
      "d": 1091.3426979166688,
      "v": 93
    },
    {
      "midi": 50,
      "hit": false,
      "t": 194537.84550000046,
      "d": 1101.919587500015,
      "v": 97
    },
    {
      "midi": 69,
      "hit": false,
      "t": 194537.84550000046,
      "d": 1105.7657291666837,
      "v": 102
    },
    {
      "midi": 62,
      "hit": false,
      "t": 194537.84550000046,
      "d": 1119.2272250000096,
      "v": 99
    },
    {
      "midi": 38,
      "hit": false,
      "t": 195691.68800000046,
      "d": 123.0765333333402,
      "v": 103
    },
    {
      "midi": 50,
      "hit": false,
      "t": 195691.68800000046,
      "d": 149.0379895833321,
      "v": 103
    },
    {
      "midi": 62,
      "hit": false,
      "t": 195691.68800000046,
      "d": 157.6918083333294,
      "v": 102
    },
    {
      "midi": 57,
      "hit": false,
      "t": 195691.68800000046,
      "d": 178.8455874999927,
      "v": 113
    },
    {
      "midi": 66,
      "hit": false,
      "t": 195691.68800000046,
      "d": 253.8453500000178,
      "v": 117
    },
    {
      "midi": 65,
      "hit": false,
      "t": 195922.45650000047,
      "d": 178.8455875000218,
      "v": 120
    },
    {
      "midi": 49,
      "hit": false,
      "t": 195922.45650000047,
      "d": 187.4994062500191,
      "v": 92
    },
    {
      "midi": 37,
      "hit": false,
      "t": 195922.45650000047,
      "d": 206.7301145833626,
      "v": 92
    },
    {
      "midi": 56,
      "hit": false,
      "t": 195922.45650000047,
      "d": 211.5377916666912,
      "v": 112
    },
    {
      "midi": 61,
      "hit": false,
      "t": 195922.45650000047,
      "d": 234.6146416667034,
      "v": 108
    },
    {
      "midi": 55,
      "hit": false,
      "t": 196153.2250000005,
      "d": 173.0763750000042,
      "v": 97
    },
    {
      "midi": 64,
      "hit": false,
      "t": 196153.2250000005,
      "d": 238.460783333343,
      "v": 86
    },
    {
      "midi": 60,
      "hit": false,
      "t": 196153.2250000005,
      "d": 278.8452708333498,
      "v": 104
    },
    {
      "midi": 36,
      "hit": false,
      "t": 196153.2250000005,
      "d": 394.2295208333526,
      "v": 107
    },
    {
      "midi": 55,
      "hit": false,
      "t": 196383.9935000005,
      "d": 57.6921250000014,
      "v": 104
    },
    {
      "midi": 55,
      "hit": false,
      "t": 196499.3777500005,
      "d": 182.6917291666614,
      "v": 96
    },
    {
      "midi": 64,
      "hit": false,
      "t": 196499.3777500005,
      "d": 196.1532249999873,
      "v": 105
    },
    {
      "midi": 48,
      "hit": false,
      "t": 196614.7620000005,
      "d": 61.5382666666701,
      "v": 107
    },
    {
      "midi": 60,
      "hit": false,
      "t": 196730.1462500005,
      "d": 9.615354166657198,
      "v": 103
    },
    {
      "midi": 55,
      "hit": false,
      "t": 196730.1462500005,
      "d": 134.6149583333463,
      "v": 107
    },
    {
      "midi": 64,
      "hit": false,
      "t": 196730.1462500005,
      "d": 283.6529479167075,
      "v": 96
    },
    {
      "midi": 48,
      "hit": false,
      "t": 196845.5305000005,
      "d": 99.9996833333571,
      "v": 109
    },
    {
      "midi": 57,
      "hit": false,
      "t": 196960.91475000052,
      "d": 42.3075583333266,
      "v": 105
    },
    {
      "midi": 65,
      "hit": false,
      "t": 197076.29900000052,
      "d": 153.8456666666607,
      "v": 111
    },
    {
      "midi": 57,
      "hit": false,
      "t": 197076.29900000052,
      "d": 178.8455874999927,
      "v": 103
    },
    {
      "midi": 60,
      "hit": false,
      "t": 197076.29900000052,
      "d": 178.8455874999927,
      "v": 116
    },
    {
      "midi": 57,
      "hit": false,
      "t": 197307.06750000053,
      "d": 134.6149583333463,
      "v": 112
    },
    {
      "midi": 65,
      "hit": false,
      "t": 197307.06750000053,
      "d": 163.461020833347,
      "v": 113
    },
    {
      "midi": 60,
      "hit": false,
      "t": 197307.06750000053,
      "d": 168.2686979166756,
      "v": 119
    },
    {
      "midi": 60,
      "hit": false,
      "t": 197537.83600000053,
      "d": 153.8456666666607,
      "v": 112
    },
    {
      "midi": 55,
      "hit": false,
      "t": 197537.83600000053,
      "d": 176.9225166666729,
      "v": 114
    },
    {
      "midi": 64,
      "hit": false,
      "t": 197537.83600000053,
      "d": 225.960822916677,
      "v": 107
    },
    {
      "midi": 48,
      "hit": false,
      "t": 197768.60450000054,
      "d": 99.999683333328,
      "v": 96
    },
    {
      "midi": 48,
      "hit": false,
      "t": 197999.37300000055,
      "d": 80.7689750000136,
      "v": 103
    },
    {
      "midi": 36,
      "hit": false,
      "t": 197999.37300000055,
      "d": 91.3458645833598,
      "v": 100
    },
    {
      "midi": 60,
      "hit": false,
      "t": 197999.37300000055,
      "d": 105.7688958333456,
      "v": 102
    },
    {
      "midi": 64,
      "hit": false,
      "t": 197999.37300000055,
      "d": 105.7688958333456,
      "v": 103
    },
    {
      "midi": 67,
      "hit": false,
      "t": 197999.37300000055,
      "d": 105.7688958333456,
      "v": 104
    },
    {
      "midi": 67,
      "hit": false,
      "t": 198230.14150000055,
      "d": 298.0759791666642,
      "v": 114
    },
    {
      "midi": 60,
      "hit": false,
      "t": 198230.14150000055,
      "d": 332.6912541666534,
      "v": 112
    },
    {
      "midi": 64,
      "hit": false,
      "t": 198230.14150000055,
      "d": 373.0757416666602,
      "v": 109
    },
    {
      "midi": 48,
      "hit": false,
      "t": 198230.14150000055,
      "d": 1503.8413916667341,
      "v": 108
    },
    {
      "midi": 36,
      "hit": false,
      "t": 198230.14150000055,
      "d": 1519.225958333409,
      "v": 97
    },
    {
      "midi": 62,
      "hit": false,
      "t": 198576.29425000053,
      "d": 138.461100000015,
      "v": 102
    },
    {
      "midi": 67,
      "hit": false,
      "t": 198576.29425000053,
      "d": 173.0763750000042,
      "v": 100
    },
    {
      "midi": 64,
      "hit": false,
      "t": 198691.67850000053,
      "d": 168.2686979166756,
      "v": 96
    },
    {
      "midi": 60,
      "hit": false,
      "t": 198807.06275000054,
      "d": 63.461337500019,
      "v": 92
    },
    {
      "midi": 62,
      "hit": false,
      "t": 198922.44700000057,
      "d": 157.6918083333294,
      "v": 106
    },
    {
      "midi": 67,
      "hit": false,
      "t": 198922.44700000057,
      "d": 157.6918083333294,
      "v": 111
    },
    {
      "midi": 64,
      "hit": false,
      "t": 199037.83125000057,
      "d": 138.461100000015,
      "v": 97
    },
    {
      "midi": 60,
      "hit": false,
      "t": 199153.21550000057,
      "d": 57.6921250000014,
      "v": 95
    },
    {
      "midi": 62,
      "hit": false,
      "t": 199268.59975000058,
      "d": 110.5765729166742,
      "v": 112
    },
    {
      "midi": 67,
      "hit": false,
      "t": 199268.59975000058,
      "d": 115.3842500000028,
      "v": 114
    },
    {
      "midi": 64,
      "hit": false,
      "t": 199383.98400000058,
      "d": 134.6149583333463,
      "v": 90
    },
    {
      "midi": 60,
      "hit": false,
      "t": 199499.36825000058,
      "d": 46.1537000000244,
      "v": 95
    },
    {
      "midi": 62,
      "hit": false,
      "t": 199614.7525000006,
      "d": 110.5765729166742,
      "v": 108
    },
    {
      "midi": 67,
      "hit": false,
      "t": 199614.7525000006,
      "d": 225.960822916677,
      "v": 111
    },
    {
      "midi": 64,
      "hit": false,
      "t": 199730.13675000062,
      "d": 115.3842500000028,
      "v": 100
    },
    {
      "midi": 50,
      "hit": false,
      "t": 199845.52100000062,
      "d": 298.0759791666642,
      "v": 93
    },
    {
      "midi": 38,
      "hit": false,
      "t": 199845.52100000062,
      "d": 332.6912541666534,
      "v": 100
    },
    {
      "midi": 62,
      "hit": false,
      "t": 200076.28950000062,
      "d": 245.19153124996228,
      "v": 102
    },
    {
      "midi": 65,
      "hit": false,
      "t": 200076.28950000062,
      "d": 245.19153124996228,
      "v": 100
    },
    {
      "midi": 33,
      "hit": false,
      "t": 200307.0580000006,
      "d": 19.230708333314396,
      "v": 90
    },
    {
      "midi": 45,
      "hit": false,
      "t": 200307.0580000006,
      "d": 332.6912541666534,
      "v": 98
    },
    {
      "midi": 57,
      "hit": false,
      "t": 200537.82650000058,
      "d": 105.7688958333456,
      "v": 101
    },
    {
      "midi": 65,
      "hit": false,
      "t": 200537.82650000058,
      "d": 240.3838541666628,
      "v": 106
    },
    {
      "midi": 50,
      "hit": false,
      "t": 200768.59500000058,
      "d": 28.8460625000007,
      "v": 96
    },
    {
      "midi": 38,
      "hit": false,
      "t": 200768.59500000058,
      "d": 332.6912541666825,
      "v": 97
    },
    {
      "midi": 62,
      "hit": false,
      "t": 200999.3635000006,
      "d": 61.5382666666701,
      "v": 108
    },
    {
      "midi": 57,
      "hit": false,
      "t": 200999.3635000006,
      "d": 215.3839333333308,
      "v": 100
    },
    {
      "midi": 65,
      "hit": false,
      "t": 200999.3635000006,
      "d": 225.960822916677,
      "v": 105
    },
    {
      "midi": 45,
      "hit": false,
      "t": 201230.1320000006,
      "d": 134.6149583333463,
      "v": 93
    },
    {
      "midi": 33,
      "hit": false,
      "t": 201230.1320000006,
      "d": 211.5377916666912,
      "v": 98
    },
    {
      "midi": 57,
      "hit": false,
      "t": 201345.5162500006,
      "d": 134.6149583333754,
      "v": 105
    },
    {
      "midi": 62,
      "hit": false,
      "t": 201345.5162500006,
      "d": 292.3067666666757,
      "v": 104
    },
    {
      "midi": 65,
      "hit": false,
      "t": 201345.5162500006,
      "d": 311.5374750000192,
      "v": 112
    },
    {
      "midi": 50,
      "hit": false,
      "t": 201460.90050000063,
      "d": 129.8072812499886,
      "v": 98
    },
    {
      "midi": 38,
      "hit": false,
      "t": 201460.90050000063,
      "d": 198.07629583330709,
      "v": 97
    },
    {
      "midi": 55,
      "hit": false,
      "t": 201576.28475000063,
      "d": 101.92275416664779,
      "v": 103
    },
    {
      "midi": 48,
      "hit": false,
      "t": 201691.6690000006,
      "d": 322.1143645833363,
      "v": 102
    },
    {
      "midi": 36,
      "hit": false,
      "t": 201691.6690000006,
      "d": 336.5373958333221,
      "v": 98
    },
    {
      "midi": 60,
      "hit": false,
      "t": 201922.4375000006,
      "d": 230.76849999997648,
      "v": 112
    },
    {
      "midi": 64,
      "hit": false,
      "t": 201922.4375000006,
      "d": 230.76849999997648,
      "v": 105
    },
    {
      "midi": 31,
      "hit": false,
      "t": 202153.2060000006,
      "d": 317.3066875000077,
      "v": 106
    },
    {
      "midi": 55,
      "hit": false,
      "t": 202383.9745000006,
      "d": 91.3458645833307,
      "v": 102
    },
    {
      "midi": 64,
      "hit": false,
      "t": 202383.9745000006,
      "d": 292.3067666666757,
      "v": 103
    },
    {
      "midi": 48,
      "hit": false,
      "t": 202614.7430000006,
      "d": 46.1536999999953,
      "v": 99
    },
    {
      "midi": 36,
      "hit": false,
      "t": 202614.7430000006,
      "d": 332.6912541666825,
      "v": 100
    },
    {
      "midi": 60,
      "hit": false,
      "t": 202845.5115000006,
      "d": 105.7688958333456,
      "v": 111
    },
    {
      "midi": 55,
      "hit": false,
      "t": 202845.5115000006,
      "d": 326.9220416666649,
      "v": 111
    },
    {
      "midi": 64,
      "hit": false,
      "t": 202845.5115000006,
      "d": 701.920854166674,
      "v": 103
    },
    {
      "midi": 31,
      "hit": false,
      "t": 203076.2800000006,
      "d": 211.5377916666621,
      "v": 105
    },
    {
      "midi": 55,
      "hit": false,
      "t": 203191.6642500006,
      "d": 115.3842500000028,
      "v": 102
    },
    {
      "midi": 60,
      "hit": false,
      "t": 203191.6642500006,
      "d": 330.7681833333336,
      "v": 96
    },
    {
      "midi": 36,
      "hit": false,
      "t": 203307.04850000062,
      "d": 198.0762958333362,
      "v": 108
    },
    {
      "midi": 55,
      "hit": false,
      "t": 203422.43275000062,
      "d": 67.3074791666586,
      "v": 93
    },
    {
      "midi": 50,
      "hit": false,
      "t": 203537.81700000062,
      "d": 298.0759791666351,
      "v": 98
    },
    {
      "midi": 38,
      "hit": false,
      "t": 203537.81700000062,
      "d": 332.6912541666243,
      "v": 100
    },
    {
      "midi": 62,
      "hit": false,
      "t": 203768.5855000006,
      "d": 110.57657291664509,
      "v": 104
    },
    {
      "midi": 65,
      "hit": false,
      "t": 203768.5855000006,
      "d": 142.3072416666546,
      "v": 102
    },
    {
      "midi": 33,
      "hit": false,
      "t": 203999.35400000057,
      "d": 19.2307083333435,
      "v": 90
    },
    {
      "midi": 45,
      "hit": false,
      "t": 203999.35400000057,
      "d": 332.6912541666825,
      "v": 98
    },
    {
      "midi": 57,
      "hit": false,
      "t": 204230.12250000058,
      "d": 105.7688958333456,
      "v": 101
    },
    {
      "midi": 65,
      "hit": false,
      "t": 204230.12250000058,
      "d": 253.8453500000178,
      "v": 106
    },
    {
      "midi": 50,
      "hit": false,
      "t": 204460.89100000059,
      "d": 28.8460625000007,
      "v": 96
    },
    {
      "midi": 38,
      "hit": false,
      "t": 204460.89100000059,
      "d": 332.6912541666825,
      "v": 97
    },
    {
      "midi": 62,
      "hit": false,
      "t": 204691.6595000006,
      "d": 61.5382666666701,
      "v": 108
    },
    {
      "midi": 57,
      "hit": false,
      "t": 204691.6595000006,
      "d": 215.3839333333308,
      "v": 100
    },
    {
      "midi": 65,
      "hit": false,
      "t": 204691.6595000006,
      "d": 225.960822916677,
      "v": 105
    },
    {
      "midi": 45,
      "hit": false,
      "t": 204922.4280000006,
      "d": 134.6149583333463,
      "v": 93
    },
    {
      "midi": 33,
      "hit": false,
      "t": 204922.4280000006,
      "d": 211.5377916666912,
      "v": 98
    },
    {
      "midi": 57,
      "hit": false,
      "t": 205037.8122500006,
      "d": 134.6149583333754,
      "v": 105
    },
    {
      "midi": 62,
      "hit": false,
      "t": 205037.8122500006,
      "d": 292.3067666666757,
      "v": 104
    },
    {
      "midi": 65,
      "hit": false,
      "t": 205037.8122500006,
      "d": 311.5374750000192,
      "v": 112
    },
    {
      "midi": 50,
      "hit": false,
      "t": 205153.19650000063,
      "d": 129.8072812499886,
      "v": 98
    },
    {
      "midi": 38,
      "hit": false,
      "t": 205153.19650000063,
      "d": 198.07629583330709,
      "v": 97
    },
    {
      "midi": 55,
      "hit": false,
      "t": 205268.58075000063,
      "d": 101.92275416664779,
      "v": 103
    },
    {
      "midi": 48,
      "hit": false,
      "t": 205383.9650000006,
      "d": 322.1143645833363,
      "v": 102
    },
    {
      "midi": 36,
      "hit": false,
      "t": 205383.9650000006,
      "d": 336.5373958333221,
      "v": 98
    },
    {
      "midi": 60,
      "hit": false,
      "t": 205614.7335000006,
      "d": 230.76849999997648,
      "v": 112
    },
    {
      "midi": 64,
      "hit": false,
      "t": 205614.7335000006,
      "d": 230.76849999997648,
      "v": 105
    },
    {
      "midi": 31,
      "hit": false,
      "t": 205845.5020000006,
      "d": 317.3066875000077,
      "v": 106
    },
    {
      "midi": 55,
      "hit": false,
      "t": 206076.2705000006,
      "d": 91.3458645833307,
      "v": 102
    },
    {
      "midi": 64,
      "hit": false,
      "t": 206076.2705000006,
      "d": 292.3067666666757,
      "v": 103
    },
    {
      "midi": 48,
      "hit": false,
      "t": 206307.0390000006,
      "d": 46.1536999999953,
      "v": 99
    },
    {
      "midi": 36,
      "hit": false,
      "t": 206307.0390000006,
      "d": 332.6912541666825,
      "v": 100
    },
    {
      "midi": 60,
      "hit": false,
      "t": 206537.8075000006,
      "d": 105.7688958333456,
      "v": 111
    },
    {
      "midi": 55,
      "hit": false,
      "t": 206537.8075000006,
      "d": 326.9220416666649,
      "v": 111
    },
    {
      "midi": 64,
      "hit": false,
      "t": 206537.8075000006,
      "d": 701.920854166674,
      "v": 103
    },
    {
      "midi": 31,
      "hit": false,
      "t": 206768.5760000006,
      "d": 211.5377916666621,
      "v": 105
    },
    {
      "midi": 55,
      "hit": false,
      "t": 206883.96025000061,
      "d": 115.3842500000028,
      "v": 102
    },
    {
      "midi": 60,
      "hit": false,
      "t": 206883.96025000061,
      "d": 330.7681833333336,
      "v": 96
    },
    {
      "midi": 36,
      "hit": false,
      "t": 206999.34450000062,
      "d": 198.0762958333362,
      "v": 108
    },
    {
      "midi": 55,
      "hit": false,
      "t": 207114.72875000062,
      "d": 67.3074791666586,
      "v": 93
    },
    {
      "midi": 50,
      "hit": false,
      "t": 207230.11300000062,
      "d": 298.0759791666351,
      "v": 98
    },
    {
      "midi": 38,
      "hit": false,
      "t": 207230.11300000062,
      "d": 332.6912541666243,
      "v": 100
    },
    {
      "midi": 62,
      "hit": false,
      "t": 207460.8815000006,
      "d": 149.037989583303,
      "v": 104
    },
    {
      "midi": 65,
      "hit": false,
      "t": 207576.26575000057,
      "d": 80.7689749999845,
      "v": 111
    },
    {
      "midi": 33,
      "hit": false,
      "t": 207691.65000000055,
      "d": 19.2307083333435,
      "v": 90
    },
    {
      "midi": 45,
      "hit": false,
      "t": 207691.65000000055,
      "d": 332.6912541666825,
      "v": 98
    },
    {
      "midi": 65,
      "hit": false,
      "t": 207922.41850000055,
      "d": 3.8461416666687,
      "v": 106
    },
    {
      "midi": 57,
      "hit": false,
      "t": 207922.41850000055,
      "d": 105.7688958333456,
      "v": 101
    },
    {
      "midi": 50,
      "hit": false,
      "t": 208153.18700000056,
      "d": 28.8460625000007,
      "v": 96
    },
    {
      "midi": 38,
      "hit": false,
      "t": 208153.18700000056,
      "d": 332.6912541666825,
      "v": 97
    },
    {
      "midi": 62,
      "hit": false,
      "t": 208383.95550000056,
      "d": 61.5382666666701,
      "v": 108
    },
    {
      "midi": 57,
      "hit": false,
      "t": 208383.95550000056,
      "d": 215.3839333333308,
      "v": 100
    },
    {
      "midi": 65,
      "hit": false,
      "t": 208383.95550000056,
      "d": 225.960822916677,
      "v": 105
    },
    {
      "midi": 45,
      "hit": false,
      "t": 208614.72400000057,
      "d": 134.6149583333463,
      "v": 93
    },
    {
      "midi": 33,
      "hit": false,
      "t": 208614.72400000057,
      "d": 211.5377916666912,
      "v": 98
    },
    {
      "midi": 57,
      "hit": false,
      "t": 208730.10825000057,
      "d": 134.6149583333754,
      "v": 105
    },
    {
      "midi": 62,
      "hit": false,
      "t": 208730.10825000057,
      "d": 292.3067666666757,
      "v": 104
    },
    {
      "midi": 65,
      "hit": false,
      "t": 208730.10825000057,
      "d": 311.5374750000192,
      "v": 112
    },
    {
      "midi": 50,
      "hit": false,
      "t": 208845.4925000006,
      "d": 129.8072812499886,
      "v": 98
    },
    {
      "midi": 38,
      "hit": false,
      "t": 208845.4925000006,
      "d": 198.07629583330709,
      "v": 97
    },
    {
      "midi": 55,
      "hit": false,
      "t": 208960.8767500006,
      "d": 101.92275416664779,
      "v": 103
    },
    {
      "midi": 60,
      "hit": false,
      "t": 209076.26100000058,
      "d": 192.3070833333477,
      "v": 126
    },
    {
      "midi": 55,
      "hit": false,
      "t": 209076.26100000058,
      "d": 238.460783333343,
      "v": 114
    },
    {
      "midi": 36,
      "hit": false,
      "t": 209076.26100000058,
      "d": 264.4222395833349,
      "v": 98
    },
    {
      "midi": 48,
      "hit": false,
      "t": 209076.26100000058,
      "d": 273.0760583333322,
      "v": 119
    },
    {
      "midi": 50,
      "hit": false,
      "t": 209537.7980000006,
      "d": 245.1915312500205,
      "v": 120
    },
    {
      "midi": 57,
      "hit": false,
      "t": 209537.7980000006,
      "d": 269.2299166666926,
      "v": 122
    },
    {
      "midi": 62,
      "hit": false,
      "t": 209537.7980000006,
      "d": 292.3067666667048,
      "v": 120
    },
    {
      "midi": 38,
      "hit": false,
      "t": 209537.7980000006,
      "d": 298.0759791666933,
      "v": 109
    },
    {
      "midi": 59,
      "hit": false,
      "t": 209999.33500000063,
      "d": 215.3839333333308,
      "v": 122
    },
    {
      "midi": 52,
      "hit": false,
      "t": 209999.33500000063,
      "d": 217.3070041666506,
      "v": 119
    },
    {
      "midi": 40,
      "hit": false,
      "t": 209999.33500000063,
      "d": 240.3838541666628,
      "v": 109
    },
    {
      "midi": 64,
      "hit": false,
      "t": 209999.33500000063,
      "d": 264.4222395833349,
      "v": 119
    },
    {
      "midi": 43,
      "hit": false,
      "t": 210460.87200000064,
      "d": 238.460783333343,
      "v": 111
    },
    {
      "midi": 67,
      "hit": false,
      "t": 210460.87200000064,
      "d": 446.1524333333364,
      "v": 117
    },
    {
      "midi": 55,
      "hit": false,
      "t": 210460.87200000064,
      "d": 451.9216458333249,
      "v": 114
    },
    {
      "midi": 62,
      "hit": false,
      "t": 210922.40900000063,
      "d": 3.8461416666687,
      "v": 113
    },
    {
      "midi": 69,
      "hit": false,
      "t": 210922.40900000063,
      "d": 221.1531458333484,
      "v": 122
    },
    {
      "midi": 65,
      "hit": false,
      "t": 210922.40900000063,
      "d": 238.460783333343,
      "v": 113
    },
    {
      "midi": 50,
      "hit": false,
      "t": 210922.40900000063,
      "d": 253.8453500000178,
      "v": 120
    },
    {
      "midi": 38,
      "hit": false,
      "t": 210922.40900000063,
      "d": 336.5373958333512,
      "v": 102
    },
    {
      "midi": 64,
      "hit": false,
      "t": 211383.94600000064,
      "d": 273.0760583333322,
      "v": 117
    },
    {
      "midi": 36,
      "hit": false,
      "t": 211383.94600000064,
      "d": 283.6529479166784,
      "v": 114
    },
    {
      "midi": 60,
      "hit": false,
      "t": 211383.94600000064,
      "d": 302.8836562500219,
      "v": 113
    },
    {
      "midi": 48,
      "hit": false,
      "t": 211383.94600000064,
      "d": 307.6913333333505,
      "v": 109
    },
    {
      "midi": 67,
      "hit": false,
      "t": 211383.94600000064,
      "d": 353.8450333333458,
      "v": 119
    },
    {
      "midi": 58,
      "hit": false,
      "t": 211845.48300000065,
      "d": 249.99920833331998,
      "v": 115
    },
    {
      "midi": 62,
      "hit": false,
      "t": 211845.48300000065,
      "d": 311.5374749999901,
      "v": 109
    },
    {
      "midi": 46,
      "hit": false,
      "t": 211845.48300000065,
      "d": 313.4605458333099,
      "v": 115
    },
    {
      "midi": 34,
      "hit": false,
      "t": 211845.48300000065,
      "d": 332.6912541666534,
      "v": 96
    },
    {
      "midi": 65,
      "hit": false,
      "t": 211845.48300000065,
      "d": 384.6141666666663,
      "v": 114
    },
    {
      "midi": 33,
      "hit": false,
      "t": 212307.02000000066,
      "d": 283.6529479166493,
      "v": 113
    },
    {
      "midi": 45,
      "hit": false,
      "t": 212307.02000000066,
      "d": 313.4605458333099,
      "v": 104
    },
    {
      "midi": 57,
      "hit": false,
      "t": 212307.02000000066,
      "d": 326.9220416666358,
      "v": 111
    },
    {
      "midi": 60,
      "hit": false,
      "t": 212307.02000000066,
      "d": 353.8450333333167,
      "v": 127
    },
    {
      "midi": 64,
      "hit": false,
      "t": 212307.02000000066,
      "d": 369.2295999999915,
      "v": 112
    },
    {
      "midi": 69,
      "hit": false,
      "t": 212999.32550000065,
      "d": 176.9225166666438,
      "v": 122
    },
    {
      "midi": 50,
      "hit": false,
      "t": 212999.32550000065,
      "d": 182.69172916663229,
      "v": 126
    },
    {
      "midi": 65,
      "hit": false,
      "t": 212999.32550000065,
      "d": 211.53779166663298,
      "v": 124
    },
    {
      "midi": 38,
      "hit": false,
      "t": 212999.32550000065,
      "d": 217.30700416662148,
      "v": 109
    },
    {
      "midi": 62,
      "hit": false,
      "t": 212999.32550000065,
      "d": 230.76849999994738,
      "v": 120
    },
    {
      "midi": 48,
      "hit": false,
      "t": 213345.4782500006,
      "d": 182.6917291666614,
      "v": 100
    },
    {
      "midi": 36,
      "hit": false,
      "t": 213345.4782500006,
      "d": 198.0762958333362,
      "v": 116
    },
    {
      "midi": 60,
      "hit": false,
      "t": 213345.4782500006,
      "d": 225.960822916677,
      "v": 109
    },
    {
      "midi": 64,
      "hit": false,
      "t": 213345.4782500006,
      "d": 238.460783333343,
      "v": 106
    },
    {
      "midi": 67,
      "hit": false,
      "t": 213345.4782500006,
      "d": 278.8452708333498,
      "v": 122
    },
    {
      "midi": 58,
      "hit": false,
      "t": 213691.6310000006,
      "d": 349.998891666648,
      "v": 120
    },
    {
      "midi": 62,
      "hit": false,
      "t": 213691.6310000006,
      "d": 384.6141666666372,
      "v": 111
    },
    {
      "midi": 34,
      "hit": false,
      "t": 213691.6310000006,
      "d": 423.07558333329507,
      "v": 98
    },
    {
      "midi": 65,
      "hit": false,
      "t": 213691.6310000006,
      "d": 423.07558333329507,
      "v": 113
    },
    {
      "midi": 46,
      "hit": false,
      "t": 213691.6310000006,
      "d": 461.53699999995297,
      "v": 106
    },
    {
      "midi": 57,
      "hit": false,
      "t": 214153.16800000056,
      "d": 221.1531458333193,
      "v": 109
    },
    {
      "midi": 33,
      "hit": false,
      "t": 214153.16800000056,
      "d": 225.96082291664788,
      "v": 99
    },
    {
      "midi": 60,
      "hit": false,
      "t": 214153.16800000056,
      "d": 240.38385416663368,
      "v": 126
    },
    {
      "midi": 45,
      "hit": false,
      "t": 214153.16800000056,
      "d": 245.19153124996228,
      "v": 93
    },
    {
      "midi": 64,
      "hit": false,
      "t": 214153.16800000056,
      "d": 302.8836562499637,
      "v": 109
    },
    {
      "midi": 69,
      "hit": false,
      "t": 214845.47350000052,
      "d": 173.0763750000042,
      "v": 114
    },
    {
      "midi": 38,
      "hit": false,
      "t": 214845.47350000052,
      "d": 178.8455874999927,
      "v": 111
    },
    {
      "midi": 50,
      "hit": false,
      "t": 214845.47350000052,
      "d": 187.49940624999,
      "v": 117
    },
    {
      "midi": 65,
      "hit": false,
      "t": 214845.47350000052,
      "d": 217.3070041666506,
      "v": 117
    },
    {
      "midi": 62,
      "hit": false,
      "t": 214845.47350000052,
      "d": 221.1531458333193,
      "v": 119
    },
    {
      "midi": 36,
      "hit": false,
      "t": 215191.62625000053,
      "d": 168.2686979166465,
      "v": 113
    },
    {
      "midi": 48,
      "hit": false,
      "t": 215191.62625000053,
      "d": 173.0763749999751,
      "v": 97
    },
    {
      "midi": 60,
      "hit": false,
      "t": 215191.62625000053,
      "d": 201.92243749997579,
      "v": 108
    },
    {
      "midi": 64,
      "hit": false,
      "t": 215191.62625000053,
      "d": 211.53779166663298,
      "v": 107
    },
    {
      "midi": 67,
      "hit": false,
      "t": 215191.62625000053,
      "d": 230.76849999997648,
      "v": 117
    },
    {
      "midi": 58,
      "hit": false,
      "t": 215537.7790000005,
      "d": 394.2295208333235,
      "v": 112
    },
    {
      "midi": 62,
      "hit": false,
      "t": 215537.7790000005,
      "d": 409.6140874999983,
      "v": 108
    },
    {
      "midi": 34,
      "hit": false,
      "t": 215537.7790000005,
      "d": 428.8447958333418,
      "v": 95
    },
    {
      "midi": 46,
      "hit": false,
      "t": 215537.7790000005,
      "d": 456.7293229166826,
      "v": 97
    },
    {
      "midi": 65,
      "hit": false,
      "t": 215537.7790000005,
      "d": 461.5370000000112,
      "v": 99
    },
    {
      "midi": 33,
      "hit": false,
      "t": 215999.31600000052,
      "d": 176.9225166666729,
      "v": 112
    },
    {
      "midi": 45,
      "hit": false,
      "t": 215999.31600000052,
      "d": 230.7685000000056,
      "v": 93
    },
    {
      "midi": 57,
      "hit": false,
      "t": 215999.31600000052,
      "d": 257.6914916666865,
      "v": 106
    },
    {
      "midi": 60,
      "hit": false,
      "t": 215999.31600000052,
      "d": 273.0760583333613,
      "v": 116
    },
    {
      "midi": 64,
      "hit": false,
      "t": 215999.31600000052,
      "d": 322.1143645833654,
      "v": 106
    },
    {
      "midi": 38,
      "hit": false,
      "t": 216460.85300000056,
      "d": 240.3838541666628,
      "v": 109
    },
    {
      "midi": 50,
      "hit": false,
      "t": 216460.85300000056,
      "d": 253.84534999998868,
      "v": 108
    },
    {
      "midi": 74,
      "hit": false,
      "t": 216691.62150000056,
      "d": 72.1151562499872,
      "v": 105
    },
    {
      "midi": 65,
      "hit": false,
      "t": 216691.62150000056,
      "d": 76.9228333333158,
      "v": 114
    },
    {
      "midi": 69,
      "hit": false,
      "t": 216691.62150000056,
      "d": 76.9228333333158,
      "v": 107
    },
    {
      "midi": 62,
      "hit": false,
      "t": 216691.62150000056,
      "d": 110.57657291664509,
      "v": 116
    },
    {
      "midi": 48,
      "hit": false,
      "t": 216922.39000000054,
      "d": 253.8453500000178,
      "v": 108
    },
    {
      "midi": 36,
      "hit": false,
      "t": 216922.39000000054,
      "d": 273.0760583333613,
      "v": 116
    },
    {
      "midi": 67,
      "hit": false,
      "t": 217153.15850000054,
      "d": 72.1151562500163,
      "v": 114
    },
    {
      "midi": 72,
      "hit": false,
      "t": 217153.15850000054,
      "d": 86.5381875000021,
      "v": 122
    },
    {
      "midi": 64,
      "hit": false,
      "t": 217153.15850000054,
      "d": 91.3458645833307,
      "v": 119
    },
    {
      "midi": 60,
      "hit": false,
      "t": 217153.15850000054,
      "d": 105.76889583331649,
      "v": 119
    },
    {
      "midi": 46,
      "hit": false,
      "t": 217383.92700000052,
      "d": 269.2299166666635,
      "v": 93
    },
    {
      "midi": 34,
      "hit": false,
      "t": 217383.92700000052,
      "d": 288.460625000007,
      "v": 86
    },
    {
      "midi": 62,
      "hit": false,
      "t": 217614.69550000053,
      "d": 101.9227541666769,
      "v": 117
    },
    {
      "midi": 65,
      "hit": false,
      "t": 217614.69550000053,
      "d": 101.9227541666769,
      "v": 104
    },
    {
      "midi": 70,
      "hit": false,
      "t": 217614.69550000053,
      "d": 119.2303916666715,
      "v": 105
    },
    {
      "midi": 58,
      "hit": false,
      "t": 217614.69550000053,
      "d": 123.0765333333402,
      "v": 115
    },
    {
      "midi": 45,
      "hit": false,
      "t": 217845.46400000053,
      "d": 269.2299166666635,
      "v": 100
    },
    {
      "midi": 33,
      "hit": false,
      "t": 217845.46400000053,
      "d": 298.0759791666642,
      "v": 102
    },
    {
      "midi": 69,
      "hit": false,
      "t": 218076.23250000054,
      "d": 115.3842500000028,
      "v": 117
    },
    {
      "midi": 64,
      "hit": false,
      "t": 218076.23250000054,
      "d": 119.2303916666715,
      "v": 111
    },
    {
      "midi": 60,
      "hit": false,
      "t": 218076.23250000054,
      "d": 138.461100000015,
      "v": 126
    },
    {
      "midi": 57,
      "hit": false,
      "t": 218076.23250000054,
      "d": 153.8456666666898,
      "v": 109
    },
    {
      "midi": 43,
      "hit": false,
      "t": 218307.00100000057,
      "d": 269.2299166666635,
      "v": 95
    },
    {
      "midi": 31,
      "hit": false,
      "t": 218307.00100000057,
      "d": 317.3066875000077,
      "v": 104
    },
    {
      "midi": 62,
      "hit": false,
      "t": 218537.76950000058,
      "d": 124.99960416665999,
      "v": 111
    },
    {
      "midi": 67,
      "hit": false,
      "t": 218537.76950000058,
      "d": 124.99960416665999,
      "v": 109
    },
    {
      "midi": 58,
      "hit": false,
      "t": 218537.76950000058,
      "d": 149.0379895833321,
      "v": 110
    },
    {
      "midi": 55,
      "hit": false,
      "t": 218537.76950000058,
      "d": 153.8456666666607,
      "v": 107
    },
    {
      "midi": 29,
      "hit": false,
      "t": 218768.53800000058,
      "d": 221.1531458333193,
      "v": 100
    },
    {
      "midi": 41,
      "hit": false,
      "t": 218768.53800000058,
      "d": 257.6914916666574,
      "v": 91
    },
    {
      "midi": 53,
      "hit": false,
      "t": 218999.30650000056,
      "d": 86.5381875000021,
      "v": 119
    },
    {
      "midi": 57,
      "hit": false,
      "t": 218999.30650000056,
      "d": 134.6149583333463,
      "v": 119
    },
    {
      "midi": 60,
      "hit": false,
      "t": 218999.30650000056,
      "d": 134.6149583333463,
      "v": 116
    },
    {
      "midi": 65,
      "hit": false,
      "t": 218999.30650000056,
      "d": 142.3072416666837,
      "v": 113
    },
    {
      "midi": 50,
      "hit": false,
      "t": 219460.84350000057,
      "d": 110.5765729166742,
      "v": 114
    },
    {
      "midi": 38,
      "hit": false,
      "t": 219460.84350000057,
      "d": 134.6149583333463,
      "v": 106
    },
    {
      "midi": 62,
      "hit": false,
      "t": 219460.84350000057,
      "d": 144.2303125000035,
      "v": 94
    },
    {
      "midi": 69,
      "hit": false,
      "t": 219460.84350000057,
      "d": 149.0379895833321,
      "v": 98
    },
    {
      "midi": 74,
      "hit": false,
      "t": 219460.84350000057,
      "d": 157.6918083333294,
      "v": 107
    },
    {
      "midi": 86,
      "hit": false,
      "t": 219460.84350000057,
      "d": 173.0763750000042,
      "v": 100
    },
    {
      "midi": 74,
      "hit": false,
      "t": 219691.61200000058,
      "d": 138.4610999999859,
      "v": 127
    },
    {
      "midi": 50,
      "hit": false,
      "t": 219691.61200000058,
      "d": 144.2303124999744,
      "v": 127
    },
    {
      "midi": 62,
      "hit": false,
      "t": 219691.61200000058,
      "d": 161.537949999969,
      "v": 127
    },
    {
      "midi": 86,
      "hit": false,
      "t": 219691.61200000058,
      "d": 161.537949999969,
      "v": 120
    },
    {
      "midi": 38,
      "hit": false,
      "t": 219691.61200000058,
      "d": 176.9225166666438,
      "v": 127
    },
    {
      "midi": 69,
      "hit": false,
      "t": 219691.61200000058,
      "d": 182.69172916663229,
      "v": 127
    }
  ]
}