{
  "jsonPath": "Rock/Classic Rock/The Charlie Daniels Band/willie-jones.json",
  "path": "Rock\\Classic Rock\\The Charlie Daniels Band\\Willie Jones.mid",
  "name": "Willie Jones",
  "difficulty": "Advanced",
  "bpm": 120,
  "notes": [
    {
      "midi": 66,
      "hit": false,
      "t": 23207.558,
      "d": 386.79263333333074,
      "v": 63
    },
    {
      "midi": 62,
      "hit": false,
      "t": 23207.558,
      "d": 405.66056666666555,
      "v": 57
    },
    {
      "midi": 57,
      "hit": false,
      "t": 23212.274983333333,
      "d": 391.50961666666626,
      "v": 71
    },
    {
      "midi": 57,
      "hit": false,
      "t": 23768.879016666666,
      "d": 514.1511833333279,
      "v": 80
    },
    {
      "midi": 62,
      "hit": false,
      "t": 23773.595999999998,
      "d": 476.4153166666656,
      "v": 62
    },
    {
      "midi": 66,
      "hit": false,
      "t": 23773.595999999998,
      "d": 481.1322999999975,
      "v": 63
    },
    {
      "midi": 74,
      "hit": false,
      "t": 24047.18103333333,
      "d": 316.03788333332704,
      "v": 53
    },
    {
      "midi": 81,
      "hit": false,
      "t": 24334.91701666666,
      "d": 320.7548666666662,
      "v": 76
    },
    {
      "midi": 78,
      "hit": false,
      "t": 24617.93601666666,
      "d": 283.01900000000023,
      "v": 81
    },
    {
      "midi": 74,
      "hit": false,
      "t": 24905.67199999999,
      "d": 367.9246999999996,
      "v": 71
    },
    {
      "midi": 67,
      "hit": false,
      "t": 25471.709999999992,
      "d": 330.1888333333336,
      "v": 63
    },
    {
      "midi": 62,
      "hit": false,
      "t": 25471.709999999992,
      "d": 353.7737500000003,
      "v": 44
    },
    {
      "midi": 59,
      "hit": false,
      "t": 25476.426983333324,
      "d": 339.622800000001,
      "v": 47
    },
    {
      "midi": 59,
      "hit": false,
      "t": 26028.314033333325,
      "d": 528.3021333333309,
      "v": 56
    },
    {
      "midi": 62,
      "hit": false,
      "t": 26033.031016666657,
      "d": 523.585149999999,
      "v": 48
    },
    {
      "midi": 67,
      "hit": false,
      "t": 26033.031016666657,
      "d": 551.8870499999975,
      "v": 56
    },
    {
      "midi": 55,
      "hit": false,
      "t": 26608.50298333332,
      "d": 311.3208999999988,
      "v": 67
    },
    {
      "midi": 79,
      "hit": false,
      "t": 26882.088016666654,
      "d": 160.37743333333492,
      "v": 80
    },
    {
      "midi": 81,
      "hit": false,
      "t": 27023.597516666654,
      "d": 363.2077166666677,
      "v": 93
    },
    {
      "midi": 83,
      "hit": false,
      "t": 27316.05048333332,
      "d": 339.622800000001,
      "v": 77
    },
    {
      "midi": 64,
      "hit": false,
      "t": 27740.578983333322,
      "d": 136.7925166666646,
      "v": 57
    },
    {
      "midi": 59,
      "hit": false,
      "t": 27745.295966666654,
      "d": 188.6793333333335,
      "v": 56
    },
    {
      "midi": 64,
      "hit": false,
      "t": 28023.597983333322,
      "d": 127.35855000000083,
      "v": 43
    },
    {
      "midi": 59,
      "hit": false,
      "t": 28023.597983333322,
      "d": 132.07553333333271,
      "v": 46
    },
    {
      "midi": 64,
      "hit": false,
      "t": 28297.183016666655,
      "d": 448.11341666666704,
      "v": 67
    },
    {
      "midi": 59,
      "hit": false,
      "t": 28306.616983333322,
      "d": 433.96246666666775,
      "v": 59
    },
    {
      "midi": 64,
      "hit": false,
      "t": 28867.937999999987,
      "d": 429.24548333333223,
      "v": 48
    },
    {
      "midi": 59,
      "hit": false,
      "t": 28872.65498333332,
      "d": 405.66056666666555,
      "v": 65
    },
    {
      "midi": 59,
      "hit": false,
      "t": 29438.69298333332,
      "d": 429.24548333333223,
      "v": 60
    },
    {
      "midi": 64,
      "hit": false,
      "t": 29438.69298333332,
      "d": 452.8303999999989,
      "v": 38
    },
    {
      "midi": 76,
      "hit": false,
      "t": 29702.844049999985,
      "d": 245.28313333333426,
      "v": 66
    },
    {
      "midi": 79,
      "hit": false,
      "t": 29707.561033333317,
      "d": 254.71710000000166,
      "v": 84
    },
    {
      "midi": 61,
      "hit": false,
      "t": 29995.297016666653,
      "d": 462.2643666666663,
      "v": 67
    },
    {
      "midi": 69,
      "hit": false,
      "t": 30273.59903333332,
      "d": 202.83028333333277,
      "v": 53
    },
    {
      "midi": 64,
      "hit": false,
      "t": 30278.316016666653,
      "d": 169.81139999999868,
      "v": 50
    },
    {
      "midi": 61,
      "hit": false,
      "t": 30561.335016666653,
      "d": 221.69821666666758,
      "v": 39
    },
    {
      "midi": 69,
      "hit": false,
      "t": 30561.335016666653,
      "d": 466.98135000000184,
      "v": 71
    },
    {
      "midi": 64,
      "hit": false,
      "t": 30570.76898333332,
      "d": 490.5662666666685,
      "v": 69
    },
    {
      "midi": 61,
      "hit": false,
      "t": 30853.78798333332,
      "d": 127.35855000000083,
      "v": 52
    },
    {
      "midi": 69,
      "hit": false,
      "t": 31127.373016666657,
      "d": 165.0944166666668,
      "v": 41
    },
    {
      "midi": 61,
      "hit": false,
      "t": 31127.373016666657,
      "d": 188.6793333333335,
      "v": 64
    },
    {
      "midi": 61,
      "hit": false,
      "t": 31410.392016666658,
      "d": 150.94346666666752,
      "v": 60
    },
    {
      "midi": 64,
      "hit": false,
      "t": 31410.392016666658,
      "d": 169.81140000000232,
      "v": 75
    },
    {
      "midi": 76,
      "hit": false,
      "t": 31688.694033333326,
      "d": 278.30201666666835,
      "v": 71
    },
    {
      "midi": 81,
      "hit": false,
      "t": 31698.127999999993,
      "d": 245.28313333333426,
      "v": 89
    },
    {
      "midi": 66,
      "hit": false,
      "t": 32264.165999999994,
      "d": 386.79263333333074,
      "v": 63
    },
    {
      "midi": 62,
      "hit": false,
      "t": 32264.165999999994,
      "d": 405.66056666666555,
      "v": 57
    },
    {
      "midi": 57,
      "hit": false,
      "t": 32268.882983333326,
      "d": 391.50961666666626,
      "v": 71
    },
    {
      "midi": 57,
      "hit": false,
      "t": 32825.48701666666,
      "d": 514.1511833333352,
      "v": 80
    },
    {
      "midi": 62,
      "hit": false,
      "t": 32830.20399999999,
      "d": 476.4153166666729,
      "v": 62
    },
    {
      "midi": 66,
      "hit": false,
      "t": 32830.20399999999,
      "d": 481.13230000000476,
      "v": 63
    },
    {
      "midi": 74,
      "hit": false,
      "t": 33103.78903333333,
      "d": 316.0378833333307,
      "v": 53
    },
    {
      "midi": 81,
      "hit": false,
      "t": 33391.52501666666,
      "d": 320.75486666666256,
      "v": 76
    },
    {
      "midi": 74,
      "hit": false,
      "t": 33962.27999999999,
      "d": 367.9247000000032,
      "v": 62
    },
    {
      "midi": 69,
      "hit": false,
      "t": 33962.27999999999,
      "d": 396.2266000000018,
      "v": 63
    },
    {
      "midi": 62,
      "hit": false,
      "t": 34528.31799999999,
      "d": 198.11329999999725,
      "v": 44
    },
    {
      "midi": 67,
      "hit": false,
      "t": 34528.31799999999,
      "d": 330.1888333333336,
      "v": 63
    },
    {
      "midi": 59,
      "hit": false,
      "t": 34533.034983333324,
      "d": 339.62280000000464,
      "v": 47
    },
    {
      "midi": 62,
      "hit": false,
      "t": 34811.33699999999,
      "d": 198.11330000000453,
      "v": 62
    },
    {
      "midi": 59,
      "hit": false,
      "t": 35084.92203333333,
      "d": 528.3021333333309,
      "v": 56
    },
    {
      "midi": 62,
      "hit": false,
      "t": 35089.63901666666,
      "d": 523.585149999999,
      "v": 48
    },
    {
      "midi": 67,
      "hit": false,
      "t": 35089.63901666666,
      "d": 551.8870499999975,
      "v": 56
    },
    {
      "midi": 79,
      "hit": false,
      "t": 35665.110983333325,
      "d": 382.07564999999886,
      "v": 61
    },
    {
      "midi": 83,
      "hit": false,
      "t": 35665.110983333325,
      "d": 523.585149999999,
      "v": 77
    },
    {
      "midi": 86,
      "hit": false,
      "t": 36226.43199999999,
      "d": 273.58503333333647,
      "v": 77
    },
    {
      "midi": 79,
      "hit": false,
      "t": 36226.43199999999,
      "d": 476.4153166666656,
      "v": 65
    },
    {
      "midi": 83,
      "hit": false,
      "t": 36504.73401666666,
      "d": 250.0001166666625,
      "v": 77
    },
    {
      "midi": 59,
      "hit": false,
      "t": 36792.469999999994,
      "d": 150.94346666666388,
      "v": 58
    },
    {
      "midi": 67,
      "hit": false,
      "t": 36797.186983333326,
      "d": 400.9435833333264,
      "v": 71
    },
    {
      "midi": 64,
      "hit": false,
      "t": 36797.186983333326,
      "d": 405.66056666665827,
      "v": 52
    },
    {
      "midi": 79,
      "hit": false,
      "t": 36797.186983333326,
      "d": 853.773983333318,
      "v": 87
    },
    {
      "midi": 59,
      "hit": false,
      "t": 37070.772016666655,
      "d": 132.07553333332908,
      "v": 61
    },
    {
      "midi": 59,
      "hit": false,
      "t": 37353.79101666665,
      "d": 509.43419999999605,
      "v": 61
    },
    {
      "midi": 64,
      "hit": false,
      "t": 37363.22498333331,
      "d": 481.1322999999975,
      "v": 55
    },
    {
      "midi": 67,
      "hit": false,
      "t": 37363.22498333331,
      "d": 481.1322999999975,
      "v": 75
    },
    {
      "midi": 61,
      "hit": false,
      "t": 37919.82901666664,
      "d": 169.81139999999868,
      "v": 60
    },
    {
      "midi": 64,
      "hit": false,
      "t": 37924.54599999997,
      "d": 481.1322999999975,
      "v": 55
    },
    {
      "midi": 81,
      "hit": false,
      "t": 37924.54599999997,
      "d": 768.8682833333223,
      "v": 87
    },
    {
      "midi": 57,
      "hit": false,
      "t": 37929.262983333305,
      "d": 141.50950000000012,
      "v": 56
    },
    {
      "midi": 61,
      "hit": false,
      "t": 38202.84801666664,
      "d": 750.0003499999875,
      "v": 55
    },
    {
      "midi": 57,
      "hit": false,
      "t": 38212.281983333305,
      "d": 127.3585499999972,
      "v": 61
    },
    {
      "midi": 57,
      "hit": false,
      "t": 38485.867016666634,
      "d": 509.43419999999605,
      "v": 78
    },
    {
      "midi": 64,
      "hit": false,
      "t": 38495.3009833333,
      "d": 481.1322999999975,
      "v": 55
    },
    {
      "midi": 66,
      "hit": false,
      "t": 39056.62199999997,
      "d": 386.79263333333074,
      "v": 63
    },
    {
      "midi": 62,
      "hit": false,
      "t": 39056.62199999997,
      "d": 405.66056666665827,
      "v": 57
    },
    {
      "midi": 57,
      "hit": false,
      "t": 39061.3389833333,
      "d": 391.5096166666626,
      "v": 71
    },
    {
      "midi": 57,
      "hit": false,
      "t": 39617.94301666663,
      "d": 514.1511833333279,
      "v": 80
    },
    {
      "midi": 62,
      "hit": false,
      "t": 39622.65999999996,
      "d": 476.4153166666656,
      "v": 62
    },
    {
      "midi": 66,
      "hit": false,
      "t": 39622.65999999996,
      "d": 481.1322999999975,
      "v": 63
    },
    {
      "midi": 74,
      "hit": false,
      "t": 39900.96201666663,
      "d": 316.0378833333234,
      "v": 53
    },
    {
      "midi": 81,
      "hit": false,
      "t": 40183.98101666662,
      "d": 320.75486666666256,
      "v": 76
    },
    {
      "midi": 62,
      "hit": false,
      "t": 40193.414983333285,
      "d": 132.07553333333635,
      "v": 53
    },
    {
      "midi": 66,
      "hit": false,
      "t": 40193.414983333285,
      "d": 136.79251666666823,
      "v": 46
    },
    {
      "midi": 66,
      "hit": false,
      "t": 40467.00001666662,
      "d": 136.79251666666096,
      "v": 68
    },
    {
      "midi": 62,
      "hit": false,
      "t": 40471.71699999995,
      "d": 127.3585499999972,
      "v": 67
    },
    {
      "midi": 66,
      "hit": false,
      "t": 40750.019016666614,
      "d": 537.7360999999946,
      "v": 60
    },
    {
      "midi": 74,
      "hit": false,
      "t": 40754.735999999946,
      "d": 367.92469999999594,
      "v": 62
    },
    {
      "midi": 69,
      "hit": false,
      "t": 40754.735999999946,
      "d": 396.2265999999945,
      "v": 63
    },
    {
      "midi": 62,
      "hit": false,
      "t": 40759.45298333328,
      "d": 537.7360999999946,
      "v": 65
    },
    {
      "midi": 64,
      "hit": false,
      "t": 41325.49098333327,
      "d": 132.07553333332908,
      "v": 49
    },
    {
      "midi": 72,
      "hit": false,
      "t": 41330.2079666666,
      "d": 136.79251666666096,
      "v": 65
    },
    {
      "midi": 67,
      "hit": false,
      "t": 41330.2079666666,
      "d": 141.50949999999284,
      "v": 72
    },
    {
      "midi": 64,
      "hit": false,
      "t": 41603.79299999993,
      "d": 193.39631666667265,
      "v": 33
    },
    {
      "midi": 72,
      "hit": false,
      "t": 41608.509983333264,
      "d": 132.07553333333635,
      "v": 62
    },
    {
      "midi": 67,
      "hit": false,
      "t": 41608.509983333264,
      "d": 146.22648333333927,
      "v": 47
    },
    {
      "midi": 64,
      "hit": false,
      "t": 41882.09501666661,
      "d": 448.11341666666704,
      "v": 62
    },
    {
      "midi": 72,
      "hit": false,
      "t": 41882.09501666661,
      "d": 448.11341666666704,
      "v": 62
    },
    {
      "midi": 67,
      "hit": false,
      "t": 41882.09501666661,
      "d": 462.26436666666996,
      "v": 73
    },
    {
      "midi": 72,
      "hit": false,
      "t": 42448.13301666661,
      "d": 122.64156666666531,
      "v": 67
    },
    {
      "midi": 64,
      "hit": false,
      "t": 42448.13301666661,
      "d": 127.3585499999972,
      "v": 67
    },
    {
      "midi": 67,
      "hit": false,
      "t": 42452.84999999994,
      "d": 127.3585499999972,
      "v": 67
    },
    {
      "midi": 64,
      "hit": false,
      "t": 42731.1520166666,
      "d": 108.49061666666967,
      "v": 64
    },
    {
      "midi": 72,
      "hit": false,
      "t": 42731.1520166666,
      "d": 117.92458333333343,
      "v": 64
    },
    {
      "midi": 67,
      "hit": false,
      "t": 42731.1520166666,
      "d": 122.64156666666531,
      "v": 64
    },
    {
      "midi": 64,
      "hit": false,
      "t": 43014.1710166666,
      "d": 433.9624666666641,
      "v": 51
    },
    {
      "midi": 72,
      "hit": false,
      "t": 43014.1710166666,
      "d": 452.8303999999989,
      "v": 59
    },
    {
      "midi": 67,
      "hit": false,
      "t": 43018.88799999993,
      "d": 429.24548333333223,
      "v": 65
    },
    {
      "midi": 62,
      "hit": false,
      "t": 43580.2090166666,
      "d": 283.01899999999296,
      "v": 77
    },
    {
      "midi": 71,
      "hit": false,
      "t": 43589.642983333266,
      "d": 264.15106666666543,
      "v": 77
    },
    {
      "midi": 67,
      "hit": false,
      "t": 43589.642983333266,
      "d": 283.01899999999296,
      "v": 77
    },
    {
      "midi": 67,
      "hit": false,
      "t": 44014.17148333326,
      "d": 259.43408333333355,
      "v": 69
    },
    {
      "midi": 71,
      "hit": false,
      "t": 44014.17148333326,
      "d": 259.43408333333355,
      "v": 54
    },
    {
      "midi": 62,
      "hit": false,
      "t": 44014.17148333326,
      "d": 316.0378833333307,
      "v": 64
    },
    {
      "midi": 62,
      "hit": false,
      "t": 44419.832049999924,
      "d": 1287.7364499999967,
      "v": 69
    },
    {
      "midi": 71,
      "hit": false,
      "t": 44424.54903333326,
      "d": 1250.0005833333344,
      "v": 70
    },
    {
      "midi": 67,
      "hit": false,
      "t": 44429.26601666659,
      "d": 1278.302483333333,
      "v": 77
    },
    {
      "midi": 64,
      "hit": false,
      "t": 45849.07799999992,
      "d": 150.94346666666388,
      "v": 68
    },
    {
      "midi": 68,
      "hit": false,
      "t": 45853.79498333325,
      "d": 150.94346666666388,
      "v": 67
    },
    {
      "midi": 71,
      "hit": false,
      "t": 45853.79498333325,
      "d": 160.37743333332764,
      "v": 67
    },
    {
      "midi": 71,
      "hit": false,
      "t": 46127.38001666658,
      "d": 103.77363333333051,
      "v": 65
    },
    {
      "midi": 68,
      "hit": false,
      "t": 46136.813983333246,
      "d": 99.05664999999863,
      "v": 68
    },
    {
      "midi": 64,
      "hit": false,
      "t": 46136.813983333246,
      "d": 113.20760000000155,
      "v": 45
    },
    {
      "midi": 64,
      "hit": false,
      "t": 46419.83298333325,
      "d": 438.67945000000327,
      "v": 60
    },
    {
      "midi": 71,
      "hit": false,
      "t": 46424.54996666658,
      "d": 419.81151666666847,
      "v": 40
    },
    {
      "midi": 68,
      "hit": false,
      "t": 46424.54996666658,
      "d": 433.9624666666714,
      "v": 63
    },
    {
      "midi": 71,
      "hit": false,
      "t": 46990.587966666586,
      "d": 122.64156666666531,
      "v": 48
    },
    {
      "midi": 68,
      "hit": false,
      "t": 46990.587966666586,
      "d": 127.3585499999972,
      "v": 64
    },
    {
      "midi": 64,
      "hit": false,
      "t": 46990.587966666586,
      "d": 141.50950000000012,
      "v": 44
    },
    {
      "midi": 64,
      "hit": false,
      "t": 47268.889983333254,
      "d": 113.20760000000155,
      "v": 47
    },
    {
      "midi": 68,
      "hit": false,
      "t": 47268.889983333254,
      "d": 117.92458333333343,
      "v": 77
    },
    {
      "midi": 71,
      "hit": false,
      "t": 47273.606966666586,
      "d": 113.20760000000155,
      "v": 59
    },
    {
      "midi": 71,
      "hit": false,
      "t": 47542.47501666659,
      "d": 481.1322999999975,
      "v": 63
    },
    {
      "midi": 68,
      "hit": false,
      "t": 47551.908983333255,
      "d": 481.1322999999975,
      "v": 78
    },
    {
      "midi": 64,
      "hit": false,
      "t": 47551.908983333255,
      "d": 485.84928333332937,
      "v": 58
    },
    {
      "midi": 57,
      "hit": false,
      "t": 48117.94698333325,
      "d": 410.3775499999974,
      "v": 57
    },
    {
      "midi": 64,
      "hit": false,
      "t": 48117.94698333325,
      "d": 410.3775499999974,
      "v": 63
    },
    {
      "midi": 61,
      "hit": false,
      "t": 48117.94698333325,
      "d": 1042.4533166666588,
      "v": 65
    },
    {
      "midi": 64,
      "hit": false,
      "t": 48683.98498333325,
      "d": 410.3775499999974,
      "v": 59
    },
    {
      "midi": 57,
      "hit": false,
      "t": 48683.98498333325,
      "d": 466.98134999999456,
      "v": 76
    },
    {
      "midi": 64,
      "hit": false,
      "t": 49240.58901666657,
      "d": 410.3775499999974,
      "v": 59
    },
    {
      "midi": 57,
      "hit": false,
      "t": 49250.022983333234,
      "d": 136.79251666666823,
      "v": 68
    },
    {
      "midi": 61,
      "hit": false,
      "t": 49250.022983333234,
      "d": 155.66045000000304,
      "v": 41
    },
    {
      "midi": 81,
      "hit": false,
      "t": 49250.022983333234,
      "d": 155.66045000000304,
      "v": 64
    },
    {
      "midi": 85,
      "hit": false,
      "t": 49382.09851666657,
      "d": 136.79251666666823,
      "v": 69
    },
    {
      "midi": 81,
      "hit": false,
      "t": 49523.60801666657,
      "d": 117.92458333333343,
      "v": 54
    },
    {
      "midi": 57,
      "hit": false,
      "t": 49533.041983333234,
      "d": 113.20760000000155,
      "v": 62
    },
    {
      "midi": 61,
      "hit": false,
      "t": 49533.041983333234,
      "d": 165.0944166666668,
      "v": 62
    },
    {
      "midi": 85,
      "hit": false,
      "t": 49665.11751666657,
      "d": 155.66044999999576,
      "v": 80
    },
    {
      "midi": 81,
      "hit": false,
      "t": 49806.62701666657,
      "d": 132.07553333332908,
      "v": 86
    },
    {
      "midi": 64,
      "hit": false,
      "t": 49806.62701666657,
      "d": 551.8870500000048,
      "v": 59
    },
    {
      "midi": 57,
      "hit": false,
      "t": 49816.060983333235,
      "d": 500.00023333333957,
      "v": 60
    },
    {
      "midi": 61,
      "hit": false,
      "t": 49816.060983333235,
      "d": 500.00023333333957,
      "v": 60
    },
    {
      "midi": 85,
      "hit": false,
      "t": 49957.570483333235,
      "d": 254.71710000000166,
      "v": 74
    },
    {
      "midi": 81,
      "hit": false,
      "t": 50103.79696666657,
      "d": 198.11330000000453,
      "v": 63
    },
    {
      "midi": 62,
      "hit": false,
      "t": 50386.815966666574,
      "d": 382.07564999999886,
      "v": 58
    },
    {
      "midi": 69,
      "hit": false,
      "t": 50391.532949999906,
      "d": 358.4907333333322,
      "v": 61
    },
    {
      "midi": 66,
      "hit": false,
      "t": 50391.532949999906,
      "d": 363.20771666666406,
      "v": 44
    },
    {
      "midi": 62,
      "hit": false,
      "t": 50948.13698333324,
      "d": 391.5096166666626,
      "v": 59
    },
    {
      "midi": 69,
      "hit": false,
      "t": 50948.13698333324,
      "d": 400.9435833333264,
      "v": 70
    },
    {
      "midi": 66,
      "hit": false,
      "t": 50952.853966666575,
      "d": 391.5096166666626,
      "v": 48
    },
    {
      "midi": 62,
      "hit": false,
      "t": 51504.74101666657,
      "d": 155.66044999999576,
      "v": 48
    },
    {
      "midi": 69,
      "hit": false,
      "t": 51504.74101666657,
      "d": 160.37743333332764,
      "v": 53
    },
    {
      "midi": 66,
      "hit": false,
      "t": 51509.457999999904,
      "d": 155.66044999999576,
      "v": 57
    },
    {
      "midi": 69,
      "hit": false,
      "t": 51787.760016666565,
      "d": 146.226483333332,
      "v": 48
    },
    {
      "midi": 62,
      "hit": false,
      "t": 51787.760016666565,
      "d": 155.66044999999576,
      "v": 43
    },
    {
      "midi": 66,
      "hit": false,
      "t": 51787.760016666565,
      "d": 155.66044999999576,
      "v": 66
    },
    {
      "midi": 66,
      "hit": false,
      "t": 52080.21298333323,
      "d": 424.52850000000035,
      "v": 64
    },
    {
      "midi": 62,
      "hit": false,
      "t": 52080.21298333323,
      "d": 448.11341666666704,
      "v": 64
    },
    {
      "midi": 69,
      "hit": false,
      "t": 52080.21298333323,
      "d": 448.11341666666704,
      "v": 64
    },
    {
      "midi": 59,
      "hit": false,
      "t": 52646.25098333323,
      "d": 367.9247000000032,
      "v": 66
    },
    {
      "midi": 62,
      "hit": false,
      "t": 52646.25098333323,
      "d": 372.6416833333351,
      "v": 66
    },
    {
      "midi": 59,
      "hit": false,
      "t": 53207.5719999999,
      "d": 424.52850000000035,
      "v": 63
    },
    {
      "midi": 62,
      "hit": false,
      "t": 53207.5719999999,
      "d": 424.52850000000035,
      "v": 50
    },
    {
      "midi": 83,
      "hit": false,
      "t": 53768.89301666657,
      "d": 344.3397833333365,
      "v": 91
    },
    {
      "midi": 62,
      "hit": false,
      "t": 53778.32698333323,
      "d": 433.9624666666714,
      "v": 34
    },
    {
      "midi": 59,
      "hit": false,
      "t": 53778.32698333323,
      "d": 438.67945000000327,
      "v": 50
    },
    {
      "midi": 81,
      "hit": false,
      "t": 54051.91201666657,
      "d": 292.452966666664,
      "v": 73
    },
    {
      "midi": 79,
      "hit": false,
      "t": 54344.36498333323,
      "d": 259.43408333333355,
      "v": 91
    },
    {
      "midi": 59,
      "hit": false,
      "t": 54349.08196666656,
      "d": 424.5285000000076,
      "v": 58
    },
    {
      "midi": 62,
      "hit": false,
      "t": 54349.08196666656,
      "d": 424.5285000000076,
      "v": 47
    },
    {
      "midi": 81,
      "hit": false,
      "t": 54617.95001666657,
      "d": 268.8680500000046,
      "v": 84
    },
    {
      "midi": 76,
      "hit": false,
      "t": 54900.969016666575,
      "d": 495.28324999999313,
      "v": 91
    },
    {
      "midi": 64,
      "hit": false,
      "t": 54910.40298333324,
      "d": 429.24548333333223,
      "v": 65
    },
    {
      "midi": 59,
      "hit": false,
      "t": 54915.11996666657,
      "d": 419.81151666666847,
      "v": 71
    },
    {
      "midi": 64,
      "hit": false,
      "t": 55476.44098333323,
      "d": 424.52850000000035,
      "v": 72
    },
    {
      "midi": 59,
      "hit": false,
      "t": 55476.44098333323,
      "d": 481.1322999999975,
      "v": 71
    },
    {
      "midi": 61,
      "hit": false,
      "t": 56033.04501666656,
      "d": 457.5473833333381,
      "v": 73
    },
    {
      "midi": 64,
      "hit": false,
      "t": 56042.478983333225,
      "d": 433.9624666666714,
      "v": 67
    },
    {
      "midi": 57,
      "hit": false,
      "t": 56320.78099999989,
      "d": 693.3965500000049,
      "v": 66
    },
    {
      "midi": 61,
      "hit": false,
      "t": 56608.51698333323,
      "d": 429.24548333333223,
      "v": 71
    },
    {
      "midi": 64,
      "hit": false,
      "t": 56608.51698333323,
      "d": 476.4153166666656,
      "v": 60
    },
    {
      "midi": 66,
      "hit": false,
      "t": 66226.4459999999,
      "d": 386.79263333333074,
      "v": 63
    },
    {
      "midi": 62,
      "hit": false,
      "t": 66226.4459999999,
      "d": 405.66056666665827,
      "v": 57
    },
    {
      "midi": 57,
      "hit": false,
      "t": 66231.16298333323,
      "d": 391.5096166666626,
      "v": 71
    },
    {
      "midi": 57,
      "hit": false,
      "t": 66787.76701666655,
      "d": 514.1511833333352,
      "v": 80
    },
    {
      "midi": 62,
      "hit": false,
      "t": 66792.48399999988,
      "d": 476.4153166666656,
      "v": 62
    },
    {
      "midi": 66,
      "hit": false,
      "t": 66792.48399999988,
      "d": 481.1322999999975,
      "v": 63
    },
    {
      "midi": 74,
      "hit": false,
      "t": 67066.06903333322,
      "d": 316.03788333333796,
      "v": 53
    },
    {
      "midi": 66,
      "hit": false,
      "t": 67353.80501666655,
      "d": 320.75486666666984,
      "v": 76
    },
    {
      "midi": 62,
      "hit": false,
      "t": 67636.82401666655,
      "d": 320.75486666666984,
      "v": 81
    },
    {
      "midi": 74,
      "hit": false,
      "t": 67924.55999999988,
      "d": 367.9247000000032,
      "v": 71
    },
    {
      "midi": 66,
      "hit": false,
      "t": 67929.27698333321,
      "d": 481.1322999999975,
      "v": 63
    },
    {
      "midi": 57,
      "hit": false,
      "t": 67929.27698333321,
      "d": 514.1511833333352,
      "v": 80
    },
    {
      "midi": 67,
      "hit": false,
      "t": 68490.59799999988,
      "d": 330.1888333333336,
      "v": 63
    },
    {
      "midi": 62,
      "hit": false,
      "t": 68490.59799999988,
      "d": 353.773749999993,
      "v": 44
    },
    {
      "midi": 59,
      "hit": false,
      "t": 68495.31498333321,
      "d": 339.62279999999737,
      "v": 47
    },
    {
      "midi": 59,
      "hit": false,
      "t": 69047.2020333332,
      "d": 528.3021333333309,
      "v": 56
    },
    {
      "midi": 62,
      "hit": false,
      "t": 69051.91901666654,
      "d": 523.585149999999,
      "v": 48
    },
    {
      "midi": 67,
      "hit": false,
      "t": 69051.91901666654,
      "d": 551.8870500000048,
      "v": 56
    },
    {
      "midi": 59,
      "hit": false,
      "t": 69627.3909833332,
      "d": 509.43420000000333,
      "v": 67
    },
    {
      "midi": 62,
      "hit": false,
      "t": 69627.3909833332,
      "d": 509.43420000000333,
      "v": 67
    },
    {
      "midi": 74,
      "hit": false,
      "t": 69900.97601666654,
      "d": 160.37743333332764,
      "v": 63
    },
    {
      "midi": 79,
      "hit": false,
      "t": 70042.48551666654,
      "d": 363.2077166666568,
      "v": 65
    },
    {
      "midi": 59,
      "hit": false,
      "t": 70193.4289833332,
      "d": 509.43420000000333,
      "v": 67
    },
    {
      "midi": 67,
      "hit": false,
      "t": 70193.4289833332,
      "d": 509.43420000000333,
      "v": 67
    },
    {
      "midi": 83,
      "hit": false,
      "t": 70334.9384833332,
      "d": 339.62279999999737,
      "v": 54
    },
    {
      "midi": 64,
      "hit": false,
      "t": 70759.4669833332,
      "d": 183.9623500000016,
      "v": 57
    },
    {
      "midi": 59,
      "hit": false,
      "t": 70764.18396666653,
      "d": 188.6793333333335,
      "v": 56
    },
    {
      "midi": 59,
      "hit": false,
      "t": 71042.4859833332,
      "d": 132.07553333333635,
      "v": 46
    },
    {
      "midi": 64,
      "hit": false,
      "t": 71042.4859833332,
      "d": 155.66044999999576,
      "v": 43
    },
    {
      "midi": 64,
      "hit": false,
      "t": 71316.07101666652,
      "d": 448.11341666665976,
      "v": 67
    },
    {
      "midi": 59,
      "hit": false,
      "t": 71325.50498333319,
      "d": 433.9624666666641,
      "v": 59
    },
    {
      "midi": 64,
      "hit": false,
      "t": 71886.82599999986,
      "d": 429.24548333333223,
      "v": 48
    },
    {
      "midi": 59,
      "hit": false,
      "t": 71891.54298333319,
      "d": 466.98135000000184,
      "v": 65
    },
    {
      "midi": 76,
      "hit": false,
      "t": 72169.84499999986,
      "d": 245.28313333333062,
      "v": 66
    },
    {
      "midi": 79,
      "hit": false,
      "t": 72174.56198333319,
      "d": 254.7170999999944,
      "v": 84
    },
    {
      "midi": 59,
      "hit": false,
      "t": 72457.58098333319,
      "d": 429.24548333333223,
      "v": 60
    },
    {
      "midi": 64,
      "hit": false,
      "t": 72457.58098333319,
      "d": 452.83039999999164,
      "v": 38
    },
    {
      "midi": 61,
      "hit": false,
      "t": 73014.18501666651,
      "d": 462.26436666666996,
      "v": 67
    },
    {
      "midi": 69,
      "hit": false,
      "t": 73292.48703333318,
      "d": 202.83028333332913,
      "v": 53
    },
    {
      "midi": 64,
      "hit": false,
      "t": 73297.20401666651,
      "d": 169.81140000000596,
      "v": 50
    },
    {
      "midi": 61,
      "hit": false,
      "t": 73580.22301666651,
      "d": 221.69821666665666,
      "v": 39
    },
    {
      "midi": 69,
      "hit": false,
      "t": 73580.22301666651,
      "d": 466.9813499999873,
      "v": 71
    },
    {
      "midi": 64,
      "hit": false,
      "t": 73589.65698333317,
      "d": 490.56626666666125,
      "v": 69
    },
    {
      "midi": 61,
      "hit": false,
      "t": 73872.67598333316,
      "d": 127.35855000000447,
      "v": 52
    },
    {
      "midi": 69,
      "hit": false,
      "t": 74146.2610166665,
      "d": 165.09441666665953,
      "v": 41
    },
    {
      "midi": 61,
      "hit": false,
      "t": 74146.2610166665,
      "d": 188.67933333331894,
      "v": 64
    },
    {
      "midi": 61,
      "hit": false,
      "t": 74429.28001666648,
      "d": 226.4152000000031,
      "v": 60
    },
    {
      "midi": 64,
      "hit": false,
      "t": 74429.28001666648,
      "d": 240.56614999999874,
      "v": 75
    },
    {
      "midi": 76,
      "hit": false,
      "t": 74707.58203333315,
      "d": 278.3020166666538,
      "v": 71
    },
    {
      "midi": 81,
      "hit": false,
      "t": 74717.01599999981,
      "d": 245.28313333333062,
      "v": 89
    },
    {
      "midi": 66,
      "hit": false,
      "t": 75283.0539999998,
      "d": 386.79263333333074,
      "v": 63
    },
    {
      "midi": 62,
      "hit": false,
      "t": 75283.0539999998,
      "d": 405.66056666665827,
      "v": 57
    },
    {
      "midi": 57,
      "hit": false,
      "t": 75287.77098333313,
      "d": 391.5096166666626,
      "v": 71
    },
    {
      "midi": 57,
      "hit": false,
      "t": 75844.37501666645,
      "d": 514.1511833333352,
      "v": 80
    },
    {
      "midi": 62,
      "hit": false,
      "t": 75849.09199999979,
      "d": 476.4153166666656,
      "v": 62
    },
    {
      "midi": 66,
      "hit": false,
      "t": 75849.09199999979,
      "d": 481.1322999999975,
      "v": 63
    },
    {
      "midi": 74,
      "hit": false,
      "t": 76122.67703333312,
      "d": 316.03788333333796,
      "v": 53
    },
    {
      "midi": 66,
      "hit": false,
      "t": 76410.41301666645,
      "d": 438.679449999996,
      "v": 76
    },
    {
      "midi": 62,
      "hit": false,
      "t": 76693.43201666645,
      "d": 476.4153166666656,
      "v": 62
    },
    {
      "midi": 74,
      "hit": false,
      "t": 76981.16799999979,
      "d": 367.9247000000032,
      "v": 62
    },
    {
      "midi": 66,
      "hit": false,
      "t": 76981.16799999979,
      "d": 396.22660000000906,
      "v": 63
    },
    {
      "midi": 62,
      "hit": false,
      "t": 77547.2059999998,
      "d": 198.11329999999725,
      "v": 44
    },
    {
      "midi": 67,
      "hit": false,
      "t": 77547.2059999998,
      "d": 330.1888333333336,
      "v": 63
    },
    {
      "midi": 59,
      "hit": false,
      "t": 77551.92298333313,
      "d": 339.62279999999737,
      "v": 47
    },
    {
      "midi": 62,
      "hit": false,
      "t": 77830.2249999998,
      "d": 198.11329999999725,
      "v": 62
    },
    {
      "midi": 59,
      "hit": false,
      "t": 78103.81003333314,
      "d": 528.3021333333309,
      "v": 56
    },
    {
      "midi": 62,
      "hit": false,
      "t": 78108.52701666647,
      "d": 523.585149999999,
      "v": 48
    },
    {
      "midi": 67,
      "hit": false,
      "t": 78108.52701666647,
      "d": 551.8870500000048,
      "v": 56
    },
    {
      "midi": 79,
      "hit": false,
      "t": 78683.99898333313,
      "d": 382.07564999999886,
      "v": 61
    },
    {
      "midi": 83,
      "hit": false,
      "t": 78683.99898333313,
      "d": 523.585149999999,
      "v": 77
    },
    {
      "midi": 86,
      "hit": false,
      "t": 79245.3199999998,
      "d": 273.58503333333647,
      "v": 77
    },
    {
      "midi": 79,
      "hit": false,
      "t": 79245.3199999998,
      "d": 476.4153166666656,
      "v": 65
    },
    {
      "midi": 83,
      "hit": false,
      "t": 79523.62201666647,
      "d": 250.0001166666625,
      "v": 77
    },
    {
      "midi": 59,
      "hit": false,
      "t": 79811.3579999998,
      "d": 150.94346666666388,
      "v": 58
    },
    {
      "midi": 67,
      "hit": false,
      "t": 79816.07498333314,
      "d": 400.94358333334094,
      "v": 71
    },
    {
      "midi": 64,
      "hit": false,
      "t": 79816.07498333314,
      "d": 405.6605666666728,
      "v": 52
    },
    {
      "midi": 79,
      "hit": false,
      "t": 79816.07498333314,
      "d": 853.7739833333326,
      "v": 87
    },
    {
      "midi": 59,
      "hit": false,
      "t": 80089.66001666647,
      "d": 132.07553333333635,
      "v": 61
    },
    {
      "midi": 59,
      "hit": false,
      "t": 80372.67901666647,
      "d": 509.4341999999888,
      "v": 61
    },
    {
      "midi": 64,
      "hit": false,
      "t": 80382.11298333314,
      "d": 481.1322999999975,
      "v": 55
    },
    {
      "midi": 67,
      "hit": false,
      "t": 80382.11298333314,
      "d": 481.1322999999975,
      "v": 75
    },
    {
      "midi": 61,
      "hit": false,
      "t": 80938.71701666646,
      "d": 169.8113999999914,
      "v": 60
    },
    {
      "midi": 64,
      "hit": false,
      "t": 80943.43399999979,
      "d": 481.13229999998293,
      "v": 76
    },
    {
      "midi": 57,
      "hit": false,
      "t": 80948.15098333312,
      "d": 141.50950000000012,
      "v": 56
    },
    {
      "midi": 61,
      "hit": false,
      "t": 81221.73601666644,
      "d": 750.0003500000021,
      "v": 55
    },
    {
      "midi": 57,
      "hit": false,
      "t": 81231.16998333311,
      "d": 127.35855000000447,
      "v": 61
    },
    {
      "midi": 57,
      "hit": false,
      "t": 81504.75501666644,
      "d": 509.4341999999888,
      "v": 78
    },
    {
      "midi": 64,
      "hit": false,
      "t": 81514.18898333311,
      "d": 481.1322999999975,
      "v": 55
    },
    {
      "midi": 66,
      "hit": false,
      "t": 82075.50999999976,
      "d": 386.79263333333074,
      "v": 63
    },
    {
      "midi": 62,
      "hit": false,
      "t": 82075.50999999976,
      "d": 405.66056666665827,
      "v": 57
    },
    {
      "midi": 57,
      "hit": false,
      "t": 82080.2269833331,
      "d": 391.5096166666626,
      "v": 71
    },
    {
      "midi": 57,
      "hit": false,
      "t": 82636.83101666642,
      "d": 514.1511833333352,
      "v": 80
    },
    {
      "midi": 62,
      "hit": false,
      "t": 82641.54799999975,
      "d": 476.4153166666656,
      "v": 62
    },
    {
      "midi": 66,
      "hit": false,
      "t": 82641.54799999975,
      "d": 481.1322999999975,
      "v": 63
    },
    {
      "midi": 57,
      "hit": false,
      "t": 83202.86901666642,
      "d": 476.41531666665105,
      "v": 76
    },
    {
      "midi": 62,
      "hit": false,
      "t": 83212.30298333308,
      "d": 212.2642499999929,
      "v": 53
    },
    {
      "midi": 66,
      "hit": false,
      "t": 83212.30298333308,
      "d": 212.2642499999929,
      "v": 46
    },
    {
      "midi": 66,
      "hit": false,
      "t": 83485.8880166664,
      "d": 207.54726666666102,
      "v": 68
    },
    {
      "midi": 62,
      "hit": false,
      "t": 83490.60499999973,
      "d": 202.83028333332913,
      "v": 67
    },
    {
      "midi": 66,
      "hit": false,
      "t": 83768.9070166664,
      "d": 537.7360999999946,
      "v": 60
    },
    {
      "midi": 69,
      "hit": false,
      "t": 83773.62399999973,
      "d": 396.2265999999945,
      "v": 63
    },
    {
      "midi": 57,
      "hit": false,
      "t": 83778.34098333307,
      "d": 476.4153166666656,
      "v": 76
    },
    {
      "midi": 62,
      "hit": false,
      "t": 83778.34098333307,
      "d": 537.7360999999946,
      "v": 65
    },
    {
      "midi": 66,
      "hit": false,
      "t": 84339.66199999972,
      "d": 386.79263333333074,
      "v": 63
    },
    {
      "midi": 62,
      "hit": false,
      "t": 84339.66199999972,
      "d": 405.66056666665827,
      "v": 57
    },
    {
      "midi": 57,
      "hit": false,
      "t": 84344.37898333305,
      "d": 391.5096166666626,
      "v": 71
    },
    {
      "midi": 57,
      "hit": false,
      "t": 84900.98301666637,
      "d": 514.1511833333352,
      "v": 80
    },
    {
      "midi": 62,
      "hit": false,
      "t": 84905.6999999997,
      "d": 476.4153166666656,
      "v": 62
    },
    {
      "midi": 66,
      "hit": false,
      "t": 84905.6999999997,
      "d": 481.1322999999975,
      "v": 63
    },
    {
      "midi": 74,
      "hit": false,
      "t": 85179.28503333304,
      "d": 316.03788333333796,
      "v": 53
    },
    {
      "midi": 81,
      "hit": false,
      "t": 85467.02101666637,
      "d": 320.75486666666984,
      "v": 76
    },
    {
      "midi": 78,
      "hit": false,
      "t": 85750.04001666637,
      "d": 283.01900000000023,
      "v": 81
    },
    {
      "midi": 74,
      "hit": false,
      "t": 86037.7759999997,
      "d": 367.9247000000032,
      "v": 71
    },
    {
      "midi": 67,
      "hit": false,
      "t": 86603.81399999971,
      "d": 330.1888333333336,
      "v": 63
    },
    {
      "midi": 62,
      "hit": false,
      "t": 86603.81399999971,
      "d": 353.773749999993,
      "v": 44
    },
    {
      "midi": 59,
      "hit": false,
      "t": 86608.53098333304,
      "d": 339.62279999999737,
      "v": 47
    },
    {
      "midi": 59,
      "hit": false,
      "t": 87160.41803333303,
      "d": 528.3021333333309,
      "v": 56
    },
    {
      "midi": 62,
      "hit": false,
      "t": 87165.13501666636,
      "d": 523.585149999999,
      "v": 48
    },
    {
      "midi": 67,
      "hit": false,
      "t": 87165.13501666636,
      "d": 551.8870500000048,
      "v": 56
    },
    {
      "midi": 55,
      "hit": false,
      "t": 87740.60698333303,
      "d": 311.3209000000061,
      "v": 67
    },
    {
      "midi": 79,
      "hit": false,
      "t": 88014.19201666636,
      "d": 160.37743333332764,
      "v": 80
    },
    {
      "midi": 81,
      "hit": false,
      "t": 88155.70151666636,
      "d": 363.2077166666568,
      "v": 93
    },
    {
      "midi": 83,
      "hit": false,
      "t": 88448.15448333303,
      "d": 339.62279999999737,
      "v": 77
    },
    {
      "midi": 64,
      "hit": false,
      "t": 88872.68298333303,
      "d": 136.79251666666823,
      "v": 57
    },
    {
      "midi": 59,
      "hit": false,
      "t": 88877.39996666636,
      "d": 188.6793333333335,
      "v": 56
    },
    {
      "midi": 64,
      "hit": false,
      "t": 89155.70198333303,
      "d": 127.35855000000447,
      "v": 43
    },
    {
      "midi": 59,
      "hit": false,
      "t": 89155.70198333303,
      "d": 132.07553333333635,
      "v": 46
    },
    {
      "midi": 64,
      "hit": false,
      "t": 89429.28701666636,
      "d": 448.11341666665976,
      "v": 67
    },
    {
      "midi": 59,
      "hit": false,
      "t": 89438.72098333303,
      "d": 433.9624666666641,
      "v": 59
    },
    {
      "midi": 64,
      "hit": false,
      "t": 90000.0419999997,
      "d": 429.24548333333223,
      "v": 48
    },
    {
      "midi": 59,
      "hit": false,
      "t": 90004.75898333303,
      "d": 405.6605666666728,
      "v": 65
    },
    {
      "midi": 59,
      "hit": false,
      "t": 90570.79698333303,
      "d": 429.24548333333223,
      "v": 60
    },
    {
      "midi": 64,
      "hit": false,
      "t": 90570.79698333303,
      "d": 452.83039999999164,
      "v": 38
    },
    {
      "midi": 76,
      "hit": false,
      "t": 90834.9480499997,
      "d": 245.28313333331607,
      "v": 66
    },
    {
      "midi": 79,
      "hit": false,
      "t": 90839.66503333303,
      "d": 254.71709999997984,
      "v": 84
    },
    {
      "midi": 61,
      "hit": false,
      "t": 91127.40101666635,
      "d": 462.26436666666996,
      "v": 67
    },
    {
      "midi": 69,
      "hit": false,
      "t": 91405.70303333302,
      "d": 202.83028333332913,
      "v": 53
    },
    {
      "midi": 64,
      "hit": false,
      "t": 91410.42001666635,
      "d": 169.81140000000596,
      "v": 50
    },
    {
      "midi": 61,
      "hit": false,
      "t": 91693.43901666635,
      "d": 221.69821666665666,
      "v": 39
    },
    {
      "midi": 69,
      "hit": false,
      "t": 91693.43901666635,
      "d": 466.9813499999873,
      "v": 71
    },
    {
      "midi": 64,
      "hit": false,
      "t": 91702.87298333301,
      "d": 490.56626666666125,
      "v": 69
    },
    {
      "midi": 61,
      "hit": false,
      "t": 91985.891983333,
      "d": 127.35855000000447,
      "v": 52
    },
    {
      "midi": 69,
      "hit": false,
      "t": 92259.47701666634,
      "d": 165.09441666665953,
      "v": 41
    },
    {
      "midi": 61,
      "hit": false,
      "t": 92259.47701666634,
      "d": 188.67933333331894,
      "v": 64
    },
    {
      "midi": 61,
      "hit": false,
      "t": 92542.49601666632,
      "d": 150.94346666666388,
      "v": 60
    },
    {
      "midi": 64,
      "hit": false,
      "t": 92542.49601666632,
      "d": 169.8113999999914,
      "v": 75
    },
    {
      "midi": 76,
      "hit": false,
      "t": 92820.79803333298,
      "d": 278.3020166666538,
      "v": 71
    },
    {
      "midi": 81,
      "hit": false,
      "t": 92830.23199999964,
      "d": 245.28313333333062,
      "v": 89
    },
    {
      "midi": 66,
      "hit": false,
      "t": 93396.26999999963,
      "d": 386.79263333333074,
      "v": 63
    },
    {
      "midi": 62,
      "hit": false,
      "t": 93396.26999999963,
      "d": 405.66056666665827,
      "v": 57
    },
    {
      "midi": 57,
      "hit": false,
      "t": 93400.98698333296,
      "d": 391.5096166666626,
      "v": 71
    },
    {
      "midi": 57,
      "hit": false,
      "t": 93957.59101666628,
      "d": 514.1511833333352,
      "v": 80
    },
    {
      "midi": 62,
      "hit": false,
      "t": 93962.30799999961,
      "d": 476.4153166666656,
      "v": 62
    },
    {
      "midi": 66,
      "hit": false,
      "t": 93962.30799999961,
      "d": 481.1322999999975,
      "v": 63
    },
    {
      "midi": 74,
      "hit": false,
      "t": 94235.89303333295,
      "d": 316.03788333333796,
      "v": 53
    },
    {
      "midi": 81,
      "hit": false,
      "t": 94523.62901666628,
      "d": 320.75486666666984,
      "v": 76
    },
    {
      "midi": 74,
      "hit": false,
      "t": 95094.38399999961,
      "d": 367.9247000000032,
      "v": 62
    },
    {
      "midi": 69,
      "hit": false,
      "t": 95094.38399999961,
      "d": 396.22660000000906,
      "v": 63
    },
    {
      "midi": 62,
      "hit": false,
      "t": 95660.42199999963,
      "d": 198.11329999999725,
      "v": 44
    },
    {
      "midi": 67,
      "hit": false,
      "t": 95660.42199999963,
      "d": 330.1888333333336,
      "v": 63
    },
    {
      "midi": 59,
      "hit": false,
      "t": 95665.13898333296,
      "d": 339.62279999999737,
      "v": 47
    },
    {
      "midi": 62,
      "hit": false,
      "t": 95943.44099999963,
      "d": 198.11329999999725,
      "v": 62
    },
    {
      "midi": 59,
      "hit": false,
      "t": 96217.02603333296,
      "d": 528.3021333333309,
      "v": 56
    },
    {
      "midi": 62,
      "hit": false,
      "t": 96221.7430166663,
      "d": 523.585149999999,
      "v": 48
    },
    {
      "midi": 67,
      "hit": false,
      "t": 96221.7430166663,
      "d": 551.8870500000048,
      "v": 56
    },
    {
      "midi": 79,
      "hit": false,
      "t": 96797.21498333296,
      "d": 382.07564999999886,
      "v": 61
    },
    {
      "midi": 83,
      "hit": false,
      "t": 96797.21498333296,
      "d": 523.585149999999,
      "v": 77
    },
    {
      "midi": 86,
      "hit": false,
      "t": 97358.53599999963,
      "d": 273.58503333333647,
      "v": 77
    },
    {
      "midi": 79,
      "hit": false,
      "t": 97358.53599999963,
      "d": 476.4153166666656,
      "v": 65
    },
    {
      "midi": 83,
      "hit": false,
      "t": 97636.8380166663,
      "d": 250.0001166666625,
      "v": 77
    },
    {
      "midi": 59,
      "hit": false,
      "t": 97924.57399999963,
      "d": 150.94346666666388,
      "v": 58
    },
    {
      "midi": 67,
      "hit": false,
      "t": 97929.29098333296,
      "d": 400.94358333334094,
      "v": 71
    },
    {
      "midi": 64,
      "hit": false,
      "t": 97929.29098333296,
      "d": 405.6605666666728,
      "v": 52
    },
    {
      "midi": 79,
      "hit": false,
      "t": 97929.29098333296,
      "d": 853.7739833333326,
      "v": 87
    },
    {
      "midi": 59,
      "hit": false,
      "t": 98202.8760166663,
      "d": 132.07553333333635,
      "v": 61
    },
    {
      "midi": 59,
      "hit": false,
      "t": 98485.8950166663,
      "d": 509.4341999999888,
      "v": 61
    },
    {
      "midi": 64,
      "hit": false,
      "t": 98495.32898333296,
      "d": 481.1322999999975,
      "v": 55
    },
    {
      "midi": 67,
      "hit": false,
      "t": 98495.32898333296,
      "d": 481.1322999999975,
      "v": 75
    },
    {
      "midi": 61,
      "hit": false,
      "t": 99051.93301666628,
      "d": 169.8113999999914,
      "v": 60
    },
    {
      "midi": 64,
      "hit": false,
      "t": 99056.64999999962,
      "d": 481.13229999998293,
      "v": 55
    },
    {
      "midi": 81,
      "hit": false,
      "t": 99056.64999999962,
      "d": 768.868283333315,
      "v": 87
    },
    {
      "midi": 57,
      "hit": false,
      "t": 99061.36698333295,
      "d": 141.50950000000012,
      "v": 56
    },
    {
      "midi": 61,
      "hit": false,
      "t": 99334.95201666627,
      "d": 750.0003499999875,
      "v": 55
    },
    {
      "midi": 57,
      "hit": false,
      "t": 99344.38598333293,
      "d": 127.35855000000447,
      "v": 61
    },
    {
      "midi": 57,
      "hit": false,
      "t": 99617.97101666627,
      "d": 509.4341999999742,
      "v": 78
    },
    {
      "midi": 64,
      "hit": false,
      "t": 99627.40498333293,
      "d": 481.13229999998293,
      "v": 55
    },
    {
      "midi": 66,
      "hit": false,
      "t": 100188.72599999957,
      "d": 386.79263333333074,
      "v": 63
    },
    {
      "midi": 62,
      "hit": false,
      "t": 100188.72599999957,
      "d": 405.66056666665827,
      "v": 57
    },
    {
      "midi": 57,
      "hit": false,
      "t": 100193.4429833329,
      "d": 391.5096166666626,
      "v": 71
    },
    {
      "midi": 57,
      "hit": false,
      "t": 100750.04701666623,
      "d": 514.1511833333352,
      "v": 80
    },
    {
      "midi": 62,
      "hit": false,
      "t": 100754.76399999956,
      "d": 476.4153166666656,
      "v": 62
    },
    {
      "midi": 66,
      "hit": false,
      "t": 100754.76399999956,
      "d": 481.1322999999975,
      "v": 63
    },
    {
      "midi": 74,
      "hit": false,
      "t": 101033.06601666623,
      "d": 316.0378833333234,
      "v": 53
    },
    {
      "midi": 81,
      "hit": false,
      "t": 101316.08501666623,
      "d": 320.7548666666553,
      "v": 76
    },
    {
      "midi": 62,
      "hit": false,
      "t": 101325.51898333289,
      "d": 132.0755333333218,
      "v": 53
    },
    {
      "midi": 66,
      "hit": false,
      "t": 101325.51898333289,
      "d": 136.79251666665368,
      "v": 46
    },
    {
      "midi": 66,
      "hit": false,
      "t": 101599.10401666621,
      "d": 136.79251666666823,
      "v": 68
    },
    {
      "midi": 62,
      "hit": false,
      "t": 101603.82099999955,
      "d": 127.35855000000447,
      "v": 67
    },
    {
      "midi": 66,
      "hit": false,
      "t": 101882.12301666621,
      "d": 537.7361000000092,
      "v": 60
    },
    {
      "midi": 74,
      "hit": false,
      "t": 101886.83999999955,
      "d": 367.9247000000032,
      "v": 62
    },
    {
      "midi": 69,
      "hit": false,
      "t": 101886.83999999955,
      "d": 396.22660000000906,
      "v": 63
    },
    {
      "midi": 62,
      "hit": false,
      "t": 101891.55698333288,
      "d": 537.7361000000092,
      "v": 65
    },
    {
      "midi": 64,
      "hit": false,
      "t": 102457.59498333289,
      "d": 132.07553333333635,
      "v": 49
    },
    {
      "midi": 72,
      "hit": false,
      "t": 102462.31196666622,
      "d": 136.79251666666823,
      "v": 65
    },
    {
      "midi": 67,
      "hit": false,
      "t": 102462.31196666622,
      "d": 141.50950000000012,
      "v": 72
    },
    {
      "midi": 64,
      "hit": false,
      "t": 102735.89699999956,
      "d": 193.39631666666537,
      "v": 33
    },
    {
      "midi": 72,
      "hit": false,
      "t": 102740.61398333289,
      "d": 132.07553333333635,
      "v": 62
    },
    {
      "midi": 67,
      "hit": false,
      "t": 102740.61398333289,
      "d": 146.226483333332,
      "v": 47
    },
    {
      "midi": 64,
      "hit": false,
      "t": 103014.19901666623,
      "d": 448.11341666665976,
      "v": 62
    },
    {
      "midi": 72,
      "hit": false,
      "t": 103014.19901666623,
      "d": 448.11341666665976,
      "v": 62
    },
    {
      "midi": 67,
      "hit": false,
      "t": 103014.19901666623,
      "d": 462.2643666666554,
      "v": 73
    },
    {
      "midi": 72,
      "hit": false,
      "t": 103580.23701666621,
      "d": 122.64156666665804,
      "v": 67
    },
    {
      "midi": 64,
      "hit": false,
      "t": 103580.23701666621,
      "d": 127.35854999998992,
      "v": 67
    },
    {
      "midi": 67,
      "hit": false,
      "t": 103584.95399999955,
      "d": 127.35854999998992,
      "v": 67
    },
    {
      "midi": 64,
      "hit": false,
      "t": 103863.2560166662,
      "d": 108.49061666666239,
      "v": 64
    },
    {
      "midi": 72,
      "hit": false,
      "t": 103863.2560166662,
      "d": 117.92458333332615,
      "v": 64
    },
    {
      "midi": 67,
      "hit": false,
      "t": 103863.2560166662,
      "d": 122.64156666665804,
      "v": 64
    },
    {
      "midi": 64,
      "hit": false,
      "t": 104146.27501666619,
      "d": 433.9624666666641,
      "v": 51
    },
    {
      "midi": 72,
      "hit": false,
      "t": 104146.27501666619,
      "d": 452.83039999999164,
      "v": 59
    },
    {
      "midi": 67,
      "hit": false,
      "t": 104150.99199999952,
      "d": 429.24548333333223,
      "v": 65
    },
    {
      "midi": 62,
      "hit": false,
      "t": 104712.31301666617,
      "d": 283.01900000000023,
      "v": 77
    },
    {
      "midi": 71,
      "hit": false,
      "t": 104721.74698333284,
      "d": 264.1510666666727,
      "v": 77
    },
    {
      "midi": 67,
      "hit": false,
      "t": 104721.74698333284,
      "d": 283.01900000000023,
      "v": 77
    },
    {
      "midi": 67,
      "hit": false,
      "t": 105146.27548333284,
      "d": 259.43408333332627,
      "v": 69
    },
    {
      "midi": 71,
      "hit": false,
      "t": 105146.27548333284,
      "d": 259.43408333332627,
      "v": 54
    },
    {
      "midi": 62,
      "hit": false,
      "t": 105146.27548333284,
      "d": 316.0378833333234,
      "v": 64
    },
    {
      "midi": 62,
      "hit": false,
      "t": 105551.9360499995,
      "d": 1287.7364499999967,
      "v": 69
    },
    {
      "midi": 71,
      "hit": false,
      "t": 105556.65303333283,
      "d": 1250.000583333327,
      "v": 70
    },
    {
      "midi": 67,
      "hit": false,
      "t": 105561.37001666616,
      "d": 1278.302483333333,
      "v": 77
    },
    {
      "midi": 64,
      "hit": false,
      "t": 106981.18199999949,
      "d": 150.94346666666388,
      "v": 68
    },
    {
      "midi": 68,
      "hit": false,
      "t": 106985.89898333282,
      "d": 150.94346666666388,
      "v": 67
    },
    {
      "midi": 71,
      "hit": false,
      "t": 106985.89898333282,
      "d": 160.37743333332764,
      "v": 67
    },
    {
      "midi": 71,
      "hit": false,
      "t": 107259.48401666615,
      "d": 103.77363333333051,
      "v": 65
    },
    {
      "midi": 68,
      "hit": false,
      "t": 107268.91798333281,
      "d": 99.05664999999863,
      "v": 68
    },
    {
      "midi": 64,
      "hit": false,
      "t": 107268.91798333281,
      "d": 113.20759999999427,
      "v": 45
    },
    {
      "midi": 64,
      "hit": false,
      "t": 107551.93698333281,
      "d": 438.679449999996,
      "v": 60
    },
    {
      "midi": 71,
      "hit": false,
      "t": 107556.65396666614,
      "d": 419.81151666666847,
      "v": 40
    },
    {
      "midi": 68,
      "hit": false,
      "t": 107556.65396666614,
      "d": 433.9624666666641,
      "v": 63
    },
    {
      "midi": 71,
      "hit": false,
      "t": 108122.69196666614,
      "d": 122.64156666667259,
      "v": 48
    },
    {
      "midi": 68,
      "hit": false,
      "t": 108122.69196666614,
      "d": 127.35855000000447,
      "v": 64
    },
    {
      "midi": 64,
      "hit": false,
      "t": 108122.69196666614,
      "d": 141.50950000000012,
      "v": 44
    },
    {
      "midi": 64,
      "hit": false,
      "t": 108400.99398333281,
      "d": 113.20759999999427,
      "v": 47
    },
    {
      "midi": 68,
      "hit": false,
      "t": 108400.99398333281,
      "d": 117.92458333332615,
      "v": 77
    },
    {
      "midi": 71,
      "hit": false,
      "t": 108405.71096666614,
      "d": 113.20759999999427,
      "v": 59
    },
    {
      "midi": 71,
      "hit": false,
      "t": 108674.57901666613,
      "d": 481.1322999999975,
      "v": 63
    },
    {
      "midi": 68,
      "hit": false,
      "t": 108684.0129833328,
      "d": 481.1322999999975,
      "v": 78
    },
    {
      "midi": 64,
      "hit": false,
      "t": 108684.0129833328,
      "d": 485.84928333332937,
      "v": 58
    },
    {
      "midi": 57,
      "hit": false,
      "t": 109250.0509833328,
      "d": 410.3775500000047,
      "v": 57
    },
    {
      "midi": 64,
      "hit": false,
      "t": 109250.0509833328,
      "d": 410.3775500000047,
      "v": 63
    },
    {
      "midi": 61,
      "hit": false,
      "t": 109250.0509833328,
      "d": 1042.453316666666,
      "v": 65
    },
    {
      "midi": 64,
      "hit": false,
      "t": 109816.0889833328,
      "d": 410.3775500000047,
      "v": 59
    },
    {
      "midi": 57,
      "hit": false,
      "t": 109816.0889833328,
      "d": 466.98135000000184,
      "v": 76
    },
    {
      "midi": 64,
      "hit": false,
      "t": 110372.69301666613,
      "d": 410.3775499999756,
      "v": 59
    },
    {
      "midi": 57,
      "hit": false,
      "t": 110382.1269833328,
      "d": 136.79251666666823,
      "v": 68
    },
    {
      "midi": 61,
      "hit": false,
      "t": 110382.1269833328,
      "d": 155.66044999999576,
      "v": 41
    },
    {
      "midi": 81,
      "hit": false,
      "t": 110382.1269833328,
      "d": 155.66044999999576,
      "v": 64
    },
    {
      "midi": 85,
      "hit": false,
      "t": 110514.20251666613,
      "d": 136.79251666665368,
      "v": 69
    },
    {
      "midi": 81,
      "hit": false,
      "t": 110655.71201666612,
      "d": 117.92458333332615,
      "v": 54
    },
    {
      "midi": 57,
      "hit": false,
      "t": 110665.14598333278,
      "d": 113.20759999999427,
      "v": 62
    },
    {
      "midi": 61,
      "hit": false,
      "t": 110665.14598333278,
      "d": 165.09441666665953,
      "v": 62
    },
    {
      "midi": 85,
      "hit": false,
      "t": 110797.2215166661,
      "d": 155.66044999999576,
      "v": 80
    },
    {
      "midi": 81,
      "hit": false,
      "t": 110938.7310166661,
      "d": 132.0755333333218,
      "v": 86
    },
    {
      "midi": 64,
      "hit": false,
      "t": 110938.7310166661,
      "d": 551.8870499999757,
      "v": 59
    },
    {
      "midi": 57,
      "hit": false,
      "t": 110948.16498333277,
      "d": 500.00023333331046,
      "v": 60
    },
    {
      "midi": 61,
      "hit": false,
      "t": 110948.16498333277,
      "d": 500.00023333331046,
      "v": 60
    },
    {
      "midi": 85,
      "hit": false,
      "t": 111089.67448333275,
      "d": 254.7170999999944,
      "v": 74
    },
    {
      "midi": 81,
      "hit": false,
      "t": 111235.90096666609,
      "d": 198.11329999999725,
      "v": 63
    },
    {
      "midi": 62,
      "hit": false,
      "t": 111518.91996666609,
      "d": 382.07564999999886,
      "v": 58
    },
    {
      "midi": 69,
      "hit": false,
      "t": 111523.63694999942,
      "d": 358.49073333333945,
      "v": 61
    },
    {
      "midi": 66,
      "hit": false,
      "t": 111523.63694999942,
      "d": 363.20771666667133,
      "v": 44
    },
    {
      "midi": 62,
      "hit": false,
      "t": 112080.24098333275,
      "d": 391.5096166666626,
      "v": 59
    },
    {
      "midi": 69,
      "hit": false,
      "t": 112080.24098333275,
      "d": 400.9435833333264,
      "v": 70
    },
    {
      "midi": 66,
      "hit": false,
      "t": 112084.95796666609,
      "d": 391.5096166666626,
      "v": 48
    },
    {
      "midi": 62,
      "hit": false,
      "t": 112636.84501666608,
      "d": 155.66044999999576,
      "v": 48
    },
    {
      "midi": 69,
      "hit": false,
      "t": 112636.84501666608,
      "d": 160.37743333332764,
      "v": 53
    },
    {
      "midi": 66,
      "hit": false,
      "t": 112641.56199999941,
      "d": 155.66044999999576,
      "v": 57
    },
    {
      "midi": 69,
      "hit": false,
      "t": 112919.86401666608,
      "d": 146.226483333332,
      "v": 48
    },
    {
      "midi": 62,
      "hit": false,
      "t": 112919.86401666608,
      "d": 155.66044999999576,
      "v": 43
    },
    {
      "midi": 66,
      "hit": false,
      "t": 112919.86401666608,
      "d": 155.66044999999576,
      "v": 66
    },
    {
      "midi": 66,
      "hit": false,
      "t": 113212.31698333274,
      "d": 424.52850000000035,
      "v": 64
    },
    {
      "midi": 62,
      "hit": false,
      "t": 113212.31698333274,
      "d": 448.11341666665976,
      "v": 64
    },
    {
      "midi": 69,
      "hit": false,
      "t": 113212.31698333274,
      "d": 448.11341666665976,
      "v": 64
    },
    {
      "midi": 59,
      "hit": false,
      "t": 113778.35498333273,
      "d": 367.9247000000032,
      "v": 66
    },
    {
      "midi": 62,
      "hit": false,
      "t": 113778.35498333273,
      "d": 372.6416833333351,
      "v": 66
    },
    {
      "midi": 59,
      "hit": false,
      "t": 114339.6759999994,
      "d": 424.52850000000035,
      "v": 63
    },
    {
      "midi": 62,
      "hit": false,
      "t": 114339.6759999994,
      "d": 424.52850000000035,
      "v": 50
    },
    {
      "midi": 83,
      "hit": false,
      "t": 114900.99701666606,
      "d": 344.33978333332925,
      "v": 91
    },
    {
      "midi": 62,
      "hit": false,
      "t": 114910.43098333273,
      "d": 433.9624666666641,
      "v": 34
    },
    {
      "midi": 59,
      "hit": false,
      "t": 114910.43098333273,
      "d": 438.679449999996,
      "v": 50
    },
    {
      "midi": 81,
      "hit": false,
      "t": 115184.01601666606,
      "d": 292.452966666664,
      "v": 73
    },
    {
      "midi": 79,
      "hit": false,
      "t": 115476.46898333273,
      "d": 259.43408333332627,
      "v": 91
    },
    {
      "midi": 59,
      "hit": false,
      "t": 115481.18596666606,
      "d": 424.5284999999858,
      "v": 58
    },
    {
      "midi": 62,
      "hit": false,
      "t": 115481.18596666606,
      "d": 424.5284999999858,
      "v": 47
    },
    {
      "midi": 81,
      "hit": false,
      "t": 115750.05401666605,
      "d": 268.86804999999003,
      "v": 84
    },
    {
      "midi": 76,
      "hit": false,
      "t": 116033.07301666604,
      "d": 495.28324999999313,
      "v": 91
    },
    {
      "midi": 64,
      "hit": false,
      "t": 116042.5069833327,
      "d": 429.24548333333223,
      "v": 65
    },
    {
      "midi": 59,
      "hit": false,
      "t": 116047.22396666603,
      "d": 419.81151666666847,
      "v": 71
    },
    {
      "midi": 64,
      "hit": false,
      "t": 116608.5449833327,
      "d": 424.52850000000035,
      "v": 72
    },
    {
      "midi": 59,
      "hit": false,
      "t": 116608.5449833327,
      "d": 481.1322999999975,
      "v": 71
    },
    {
      "midi": 61,
      "hit": false,
      "t": 117165.14901666604,
      "d": 457.5473833333235,
      "v": 73
    },
    {
      "midi": 64,
      "hit": false,
      "t": 117174.5829833327,
      "d": 433.9624666666641,
      "v": 67
    },
    {
      "midi": 57,
      "hit": false,
      "t": 117452.88499999937,
      "d": 693.3965499999904,
      "v": 66
    },
    {
      "midi": 61,
      "hit": false,
      "t": 117740.62098333269,
      "d": 429.24548333333223,
      "v": 71
    },
    {
      "midi": 64,
      "hit": false,
      "t": 117740.62098333269,
      "d": 476.4153166666656,
      "v": 60
    },
    {
      "midi": 66,
      "hit": false,
      "t": 136415.15799999936,
      "d": 386.79263333335984,
      "v": 63
    },
    {
      "midi": 62,
      "hit": false,
      "t": 136415.15799999936,
      "d": 405.6605666666874,
      "v": 57
    },
    {
      "midi": 57,
      "hit": false,
      "t": 136419.8749833327,
      "d": 391.5096166666772,
      "v": 71
    },
    {
      "midi": 57,
      "hit": false,
      "t": 136976.47901666604,
      "d": 514.1511833333643,
      "v": 80
    },
    {
      "midi": 62,
      "hit": false,
      "t": 136981.19599999939,
      "d": 476.41531666668016,
      "v": 62
    },
    {
      "midi": 66,
      "hit": false,
      "t": 136981.19599999939,
      "d": 481.1323000000266,
      "v": 63
    },
    {
      "midi": 74,
      "hit": false,
      "t": 137254.78103333272,
      "d": 316.03788333333796,
      "v": 53
    },
    {
      "midi": 66,
      "hit": false,
      "t": 137542.51701666607,
      "d": 320.7548666666553,
      "v": 76
    },
    {
      "midi": 62,
      "hit": false,
      "t": 137825.53601666607,
      "d": 320.7548666666553,
      "v": 81
    },
    {
      "midi": 74,
      "hit": false,
      "t": 138113.2719999994,
      "d": 367.9247000000032,
      "v": 71
    },
    {
      "midi": 66,
      "hit": false,
      "t": 138117.98898333273,
      "d": 481.1322999999975,
      "v": 63
    },
    {
      "midi": 57,
      "hit": false,
      "t": 138117.98898333273,
      "d": 514.1511833333352,
      "v": 80
    },
    {
      "midi": 67,
      "hit": false,
      "t": 138679.3099999994,
      "d": 330.18883333334816,
      "v": 63
    },
    {
      "midi": 62,
      "hit": false,
      "t": 138679.3099999994,
      "d": 353.7737500000221,
      "v": 44
    },
    {
      "midi": 59,
      "hit": false,
      "t": 138684.02698333273,
      "d": 339.6228000000119,
      "v": 47
    },
    {
      "midi": 59,
      "hit": false,
      "t": 139235.91403333275,
      "d": 528.3021333333454,
      "v": 56
    },
    {
      "midi": 62,
      "hit": false,
      "t": 139240.6310166661,
      "d": 523.585149999999,
      "v": 48
    },
    {
      "midi": 67,
      "hit": false,
      "t": 139240.6310166661,
      "d": 551.8870499999903,
      "v": 56
    },
    {
      "midi": 59,
      "hit": false,
      "t": 139816.10298333276,
      "d": 509.4341999999888,
      "v": 67
    },
    {
      "midi": 62,
      "hit": false,
      "t": 139816.10298333276,
      "d": 509.4341999999888,
      "v": 67
    },
    {
      "midi": 74,
      "hit": false,
      "t": 140089.6880166661,
      "d": 160.3774333333131,
      "v": 63
    },
    {
      "midi": 79,
      "hit": false,
      "t": 140231.19751666608,
      "d": 363.2077166666568,
      "v": 65
    },
    {
      "midi": 59,
      "hit": false,
      "t": 140382.14098333276,
      "d": 509.4341999999597,
      "v": 67
    },
    {
      "midi": 67,
      "hit": false,
      "t": 140382.14098333276,
      "d": 509.4341999999597,
      "v": 67
    },
    {
      "midi": 83,
      "hit": false,
      "t": 140523.65048333275,
      "d": 339.6227999999828,
      "v": 54
    },
    {
      "midi": 64,
      "hit": false,
      "t": 140948.17898333273,
      "d": 183.96235000001616,
      "v": 57
    },
    {
      "midi": 59,
      "hit": false,
      "t": 140952.89596666608,
      "d": 188.6793333333335,
      "v": 56
    },
    {
      "midi": 59,
      "hit": false,
      "t": 141231.19798333274,
      "d": 132.0755333333218,
      "v": 46
    },
    {
      "midi": 64,
      "hit": false,
      "t": 141231.19798333274,
      "d": 155.66044999999576,
      "v": 43
    },
    {
      "midi": 64,
      "hit": false,
      "t": 141504.78301666607,
      "d": 448.11341666668886,
      "v": 67
    },
    {
      "midi": 59,
      "hit": false,
      "t": 141514.21698333274,
      "d": 433.96246666667867,
      "v": 59
    },
    {
      "midi": 64,
      "hit": false,
      "t": 142075.53799999942,
      "d": 429.24548333333223,
      "v": 48
    },
    {
      "midi": 59,
      "hit": false,
      "t": 142080.25498333276,
      "d": 466.9813499999873,
      "v": 65
    },
    {
      "midi": 76,
      "hit": false,
      "t": 142358.55699999942,
      "d": 245.28313333334518,
      "v": 66
    },
    {
      "midi": 79,
      "hit": false,
      "t": 142363.27398333277,
      "d": 254.71710000000894,
      "v": 84
    },
    {
      "midi": 59,
      "hit": false,
      "t": 142646.29298333277,
      "d": 429.24548333333223,
      "v": 60
    },
    {
      "midi": 64,
      "hit": false,
      "t": 142646.29298333277,
      "d": 452.8304000000062,
      "v": 38
    },
    {
      "midi": 61,
      "hit": false,
      "t": 143202.8970166661,
      "d": 462.26436666666996,
      "v": 67
    },
    {
      "midi": 69,
      "hit": false,
      "t": 143481.19903333276,
      "d": 202.8302833333437,
      "v": 53
    },
    {
      "midi": 64,
      "hit": false,
      "t": 143485.9160166661,
      "d": 169.81140000000596,
      "v": 50
    },
    {
      "midi": 61,
      "hit": false,
      "t": 143768.9350166661,
      "d": 221.69821666667121,
      "v": 39
    },
    {
      "midi": 69,
      "hit": false,
      "t": 143768.9350166661,
      "d": 466.9813499999873,
      "v": 71
    },
    {
      "midi": 64,
      "hit": false,
      "t": 143778.36898333277,
      "d": 490.56626666666125,
      "v": 69
    },
    {
      "midi": 61,
      "hit": false,
      "t": 144061.38798333277,
      "d": 127.35855000000447,
      "v": 52
    },
    {
      "midi": 69,
      "hit": false,
      "t": 144334.9730166661,
      "d": 165.09441666665953,
      "v": 41
    },
    {
      "midi": 61,
      "hit": false,
      "t": 144334.9730166661,
      "d": 188.6793333333335,
      "v": 64
    },
    {
      "midi": 61,
      "hit": false,
      "t": 144617.9920166661,
      "d": 226.41519999998854,
      "v": 60
    },
    {
      "midi": 64,
      "hit": false,
      "t": 144617.9920166661,
      "d": 240.56614999999874,
      "v": 75
    },
    {
      "midi": 76,
      "hit": false,
      "t": 144896.29403333276,
      "d": 278.3020166666829,
      "v": 71
    },
    {
      "midi": 81,
      "hit": false,
      "t": 144905.72799999942,
      "d": 245.28313333334518,
      "v": 89
    },
    {
      "midi": 66,
      "hit": false,
      "t": 145471.76599999945,
      "d": 386.79263333335984,
      "v": 63
    },
    {
      "midi": 62,
      "hit": false,
      "t": 145471.76599999945,
      "d": 405.6605666666874,
      "v": 57
    },
    {
      "midi": 57,
      "hit": false,
      "t": 145476.4829833328,
      "d": 391.5096166666772,
      "v": 71
    },
    {
      "midi": 57,
      "hit": false,
      "t": 146033.08701666613,
      "d": 514.1511833333643,
      "v": 80
    },
    {
      "midi": 62,
      "hit": false,
      "t": 146037.80399999948,
      "d": 476.41531666668016,
      "v": 62
    },
    {
      "midi": 66,
      "hit": false,
      "t": 146037.80399999948,
      "d": 481.1323000000266,
      "v": 63
    },
    {
      "midi": 74,
      "hit": false,
      "t": 146311.38903333282,
      "d": 316.03788333333796,
      "v": 53
    },
    {
      "midi": 66,
      "hit": false,
      "t": 146599.12501666616,
      "d": 438.679449999996,
      "v": 76
    },
    {
      "midi": 62,
      "hit": false,
      "t": 146882.14401666616,
      "d": 476.41531666665105,
      "v": 62
    },
    {
      "midi": 74,
      "hit": false,
      "t": 147169.87999999948,
      "d": 367.9247000000032,
      "v": 62
    },
    {
      "midi": 66,
      "hit": false,
      "t": 147169.87999999948,
      "d": 396.2265999999945,
      "v": 63
    },
    {
      "midi": 62,
      "hit": false,
      "t": 147735.91799999948,
      "d": 198.11330000002636,
      "v": 44
    },
    {
      "midi": 67,
      "hit": false,
      "t": 147735.91799999948,
      "d": 330.18883333334816,
      "v": 63
    },
    {
      "midi": 59,
      "hit": false,
      "t": 147740.63498333283,
      "d": 339.6228000000119,
      "v": 47
    },
    {
      "midi": 62,
      "hit": false,
      "t": 148018.9369999995,
      "d": 198.11329999999725,
      "v": 62
    },
    {
      "midi": 59,
      "hit": false,
      "t": 148292.52203333285,
      "d": 528.3021333333454,
      "v": 56
    },
    {
      "midi": 62,
      "hit": false,
      "t": 148297.2390166662,
      "d": 523.585149999999,
      "v": 48
    },
    {
      "midi": 67,
      "hit": false,
      "t": 148297.2390166662,
      "d": 551.8870499999903,
      "v": 56
    },
    {
      "midi": 79,
      "hit": false,
      "t": 148872.71098333286,
      "d": 382.0756500000134,
      "v": 61
    },
    {
      "midi": 83,
      "hit": false,
      "t": 148872.71098333286,
      "d": 523.585149999999,
      "v": 77
    },
    {
      "midi": 86,
      "hit": false,
      "t": 149434.0319999995,
      "d": 273.58503333333647,
      "v": 77
    },
    {
      "midi": 79,
      "hit": false,
      "t": 149434.0319999995,
      "d": 476.41531666668016,
      "v": 65
    },
    {
      "midi": 83,
      "hit": false,
      "t": 149712.3340166662,
      "d": 250.0001166666625,
      "v": 77
    },
    {
      "midi": 59,
      "hit": false,
      "t": 150000.0699999995,
      "d": 150.94346666667843,
      "v": 58
    },
    {
      "midi": 67,
      "hit": false,
      "t": 150004.78698333286,
      "d": 400.94358333334094,
      "v": 71
    },
    {
      "midi": 64,
      "hit": false,
      "t": 150004.78698333286,
      "d": 405.6605666666874,
      "v": 52
    },
    {
      "midi": 79,
      "hit": false,
      "t": 150004.78698333286,
      "d": 853.7739833333762,
      "v": 87
    },
    {
      "midi": 59,
      "hit": false,
      "t": 150278.3720166662,
      "d": 132.0755333333509,
      "v": 61
    },
    {
      "midi": 59,
      "hit": false,
      "t": 150561.39101666622,
      "d": 509.4342000000179,
      "v": 61
    },
    {
      "midi": 64,
      "hit": false,
      "t": 150570.8249833329,
      "d": 481.1323000000266,
      "v": 55
    },
    {
      "midi": 67,
      "hit": false,
      "t": 150570.8249833329,
      "d": 481.1323000000266,
      "v": 75
    },
    {
      "midi": 61,
      "hit": false,
      "t": 151127.42901666625,
      "d": 169.81140000000596,
      "v": 60
    },
    {
      "midi": 64,
      "hit": false,
      "t": 151132.1459999996,
      "d": 481.1322999999975,
      "v": 76
    },
    {
      "midi": 57,
      "hit": false,
      "t": 151136.86298333295,
      "d": 141.50949999998556,
      "v": 56
    },
    {
      "midi": 61,
      "hit": false,
      "t": 151410.44801666625,
      "d": 750.0003499999875,
      "v": 55
    },
    {
      "midi": 57,
      "hit": false,
      "t": 151419.88198333292,
      "d": 127.35855000000447,
      "v": 61
    },
    {
      "midi": 57,
      "hit": false,
      "t": 151693.46701666625,
      "d": 509.4341999999888,
      "v": 78
    },
    {
      "midi": 64,
      "hit": false,
      "t": 151702.90098333292,
      "d": 481.1322999999975,
      "v": 55
    },
    {
      "midi": 66,
      "hit": false,
      "t": 152264.22199999957,
      "d": 386.79263333335984,
      "v": 63
    },
    {
      "midi": 62,
      "hit": false,
      "t": 152264.22199999957,
      "d": 405.6605666666874,
      "v": 57
    },
    {
      "midi": 57,
      "hit": false,
      "t": 152268.93898333292,
      "d": 391.5096166666772,
      "v": 71
    },
    {
      "midi": 57,
      "hit": false,
      "t": 152825.54301666626,
      "d": 514.1511833333643,
      "v": 80
    },
    {
      "midi": 62,
      "hit": false,
      "t": 152830.2599999996,
      "d": 476.41531666668016,
      "v": 62
    },
    {
      "midi": 66,
      "hit": false,
      "t": 152830.2599999996,
      "d": 481.1323000000266,
      "v": 63
    },
    {
      "midi": 57,
      "hit": false,
      "t": 153391.58101666628,
      "d": 476.41531666668016,
      "v": 76
    },
    {
      "midi": 62,
      "hit": false,
      "t": 153401.01498333295,
      "d": 212.26425000000745,
      "v": 53
    },
    {
      "midi": 66,
      "hit": false,
      "t": 153401.01498333295,
      "d": 212.26425000000745,
      "v": 46
    },
    {
      "midi": 66,
      "hit": false,
      "t": 153674.60001666629,
      "d": 207.54726666669012,
      "v": 68
    },
    {
      "midi": 62,
      "hit": false,
      "t": 153679.31699999963,
      "d": 202.8302833333437,
      "v": 67
    },
    {
      "midi": 66,
      "hit": false,
      "t": 153957.61901666631,
      "d": 537.7361000000383,
      "v": 60
    },
    {
      "midi": 69,
      "hit": false,
      "t": 153962.33599999966,
      "d": 396.2266000000236,
      "v": 63
    },
    {
      "midi": 57,
      "hit": false,
      "t": 153967.052983333,
      "d": 476.41531666668016,
      "v": 76
    },
    {
      "midi": 62,
      "hit": false,
      "t": 153967.052983333,
      "d": 537.7361000000092,
      "v": 65
    },
    {
      "midi": 66,
      "hit": false,
      "t": 154528.3739999997,
      "d": 386.79263333335984,
      "v": 63
    },
    {
      "midi": 62,
      "hit": false,
      "t": 154528.3739999997,
      "d": 405.6605666666874,
      "v": 57
    },
    {
      "midi": 57,
      "hit": false,
      "t": 154533.09098333304,
      "d": 391.5096166666772,
      "v": 71
    },
    {
      "midi": 57,
      "hit": false,
      "t": 155089.69501666637,
      "d": 514.1511833333643,
      "v": 80
    },
    {
      "midi": 62,
      "hit": false,
      "t": 155094.41199999972,
      "d": 476.41531666668016,
      "v": 62
    },
    {
      "midi": 66,
      "hit": false,
      "t": 155094.41199999972,
      "d": 481.1323000000266,
      "v": 63
    },
    {
      "midi": 74,
      "hit": false,
      "t": 155367.99703333306,
      "d": 316.03788333333796,
      "v": 53
    },
    {
      "midi": 81,
      "hit": false,
      "t": 155655.7330166664,
      "d": 320.7548666666553,
      "v": 76
    },
    {
      "midi": 78,
      "hit": false,
      "t": 155938.7520166664,
      "d": 283.01900000000023,
      "v": 81
    },
    {
      "midi": 74,
      "hit": false,
      "t": 156226.48799999975,
      "d": 367.9247000000032,
      "v": 71
    },
    {
      "midi": 67,
      "hit": false,
      "t": 156792.52599999975,
      "d": 330.18883333334816,
      "v": 63
    },
    {
      "midi": 62,
      "hit": false,
      "t": 156792.52599999975,
      "d": 353.7737500000221,
      "v": 44
    },
    {
      "midi": 59,
      "hit": false,
      "t": 156797.2429833331,
      "d": 339.6228000000119,
      "v": 47
    },
    {
      "midi": 59,
      "hit": false,
      "t": 157349.13003333312,
      "d": 528.3021333333454,
      "v": 56
    },
    {
      "midi": 62,
      "hit": false,
      "t": 157353.84701666646,
      "d": 523.585149999999,
      "v": 48
    },
    {
      "midi": 67,
      "hit": false,
      "t": 157353.84701666646,
      "d": 551.8870499999903,
      "v": 56
    },
    {
      "midi": 55,
      "hit": false,
      "t": 157929.31898333313,
      "d": 311.3208999999915,
      "v": 67
    },
    {
      "midi": 79,
      "hit": false,
      "t": 158202.90401666646,
      "d": 160.3774333333131,
      "v": 80
    },
    {
      "midi": 81,
      "hit": false,
      "t": 158344.41351666645,
      "d": 363.2077166666568,
      "v": 93
    },
    {
      "midi": 83,
      "hit": false,
      "t": 158636.8664833331,
      "d": 339.6227999999828,
      "v": 77
    },
    {
      "midi": 64,
      "hit": false,
      "t": 159061.3949833331,
      "d": 136.79251666666823,
      "v": 57
    },
    {
      "midi": 59,
      "hit": false,
      "t": 159066.11196666645,
      "d": 188.6793333333335,
      "v": 56
    },
    {
      "midi": 64,
      "hit": false,
      "t": 159344.4139833331,
      "d": 127.35855000000447,
      "v": 43
    },
    {
      "midi": 59,
      "hit": false,
      "t": 159344.4139833331,
      "d": 132.0755333333509,
      "v": 46
    },
    {
      "midi": 64,
      "hit": false,
      "t": 159617.99901666644,
      "d": 448.11341666668886,
      "v": 67
    },
    {
      "midi": 59,
      "hit": false,
      "t": 159627.4329833331,
      "d": 433.96246666667867,
      "v": 59
    },
    {
      "midi": 64,
      "hit": false,
      "t": 160188.75399999978,
      "d": 429.24548333333223,
      "v": 48
    },
    {
      "midi": 59,
      "hit": false,
      "t": 160193.47098333313,
      "d": 405.66056666665827,
      "v": 65
    },
    {
      "midi": 59,
      "hit": false,
      "t": 160759.5089833331,
      "d": 429.24548333336134,
      "v": 60
    },
    {
      "midi": 64,
      "hit": false,
      "t": 160759.5089833331,
      "d": 452.8304000000353,
      "v": 38
    },
    {
      "midi": 76,
      "hit": false,
      "t": 161023.66004999977,
      "d": 245.28313333337428,
      "v": 66
    },
    {
      "midi": 79,
      "hit": false,
      "t": 161028.37703333312,
      "d": 254.71710000003804,
      "v": 84
    },
    {
      "midi": 61,
      "hit": false,
      "t": 161316.1130166665,
      "d": 462.26436666666996,
      "v": 67
    },
    {
      "midi": 69,
      "hit": false,
      "t": 161594.41503333315,
      "d": 202.8302833333437,
      "v": 53
    },
    {
      "midi": 64,
      "hit": false,
      "t": 161599.1320166665,
      "d": 169.81140000000596,
      "v": 50
    },
    {
      "midi": 61,
      "hit": false,
      "t": 161882.1510166665,
      "d": 221.69821666667121,
      "v": 39
    },
    {
      "midi": 69,
      "hit": false,
      "t": 161882.1510166665,
      "d": 466.9813499999873,
      "v": 71
    },
    {
      "midi": 64,
      "hit": false,
      "t": 161891.58498333316,
      "d": 490.56626666666125,
      "v": 69
    },
    {
      "midi": 61,
      "hit": false,
      "t": 162174.60398333316,
      "d": 127.35855000000447,
      "v": 52
    },
    {
      "midi": 69,
      "hit": false,
      "t": 162448.1890166665,
      "d": 165.09441666665953,
      "v": 41
    },
    {
      "midi": 61,
      "hit": false,
      "t": 162448.1890166665,
      "d": 188.6793333333335,
      "v": 64
    },
    {
      "midi": 61,
      "hit": false,
      "t": 162731.2080166665,
      "d": 150.94346666667843,
      "v": 60
    },
    {
      "midi": 64,
      "hit": false,
      "t": 162731.2080166665,
      "d": 169.81140000000596,
      "v": 75
    },
    {
      "midi": 76,
      "hit": false,
      "t": 163009.51003333318,
      "d": 278.3020166666829,
      "v": 71
    },
    {
      "midi": 81,
      "hit": false,
      "t": 163018.94399999984,
      "d": 245.28313333334518,
      "v": 89
    },
    {
      "midi": 66,
      "hit": false,
      "t": 163584.98199999987,
      "d": 386.79263333335984,
      "v": 63
    },
    {
      "midi": 62,
      "hit": false,
      "t": 163584.98199999987,
      "d": 405.6605666666874,
      "v": 57
    },
    {
      "midi": 57,
      "hit": false,
      "t": 163589.69898333322,
      "d": 391.5096166666772,
      "v": 71
    },
    {
      "midi": 57,
      "hit": false,
      "t": 164146.30301666656,
      "d": 514.1511833333643,
      "v": 80
    },
    {
      "midi": 62,
      "hit": false,
      "t": 164151.0199999999,
      "d": 476.41531666668016,
      "v": 62
    },
    {
      "midi": 66,
      "hit": false,
      "t": 164151.0199999999,
      "d": 481.1323000000266,
      "v": 63
    },
    {
      "midi": 74,
      "hit": false,
      "t": 164424.60503333324,
      "d": 316.03788333333796,
      "v": 53
    },
    {
      "midi": 81,
      "hit": false,
      "t": 164712.34101666659,
      "d": 320.7548666666553,
      "v": 76
    },
    {
      "midi": 74,
      "hit": false,
      "t": 165283.0959999999,
      "d": 367.9247000000032,
      "v": 62
    },
    {
      "midi": 69,
      "hit": false,
      "t": 165283.0959999999,
      "d": 396.2265999999945,
      "v": 63
    },
    {
      "midi": 62,
      "hit": false,
      "t": 165849.1339999999,
      "d": 198.11330000002636,
      "v": 44
    },
    {
      "midi": 67,
      "hit": false,
      "t": 165849.1339999999,
      "d": 330.18883333334816,
      "v": 63
    },
    {
      "midi": 59,
      "hit": false,
      "t": 165853.85098333325,
      "d": 339.6228000000119,
      "v": 47
    },
    {
      "midi": 62,
      "hit": false,
      "t": 166132.15299999993,
      "d": 198.11329999999725,
      "v": 62
    },
    {
      "midi": 59,
      "hit": false,
      "t": 166405.73803333327,
      "d": 528.3021333333454,
      "v": 56
    },
    {
      "midi": 62,
      "hit": false,
      "t": 166410.45501666662,
      "d": 523.585149999999,
      "v": 48
    },
    {
      "midi": 67,
      "hit": false,
      "t": 166410.45501666662,
      "d": 551.8870499999903,
      "v": 56
    },
    {
      "midi": 79,
      "hit": false,
      "t": 166985.92698333328,
      "d": 382.0756500000134,
      "v": 61
    },
    {
      "midi": 83,
      "hit": false,
      "t": 166985.92698333328,
      "d": 523.585149999999,
      "v": 77
    },
    {
      "midi": 86,
      "hit": false,
      "t": 167547.24799999993,
      "d": 273.58503333333647,
      "v": 77
    },
    {
      "midi": 79,
      "hit": false,
      "t": 167547.24799999993,
      "d": 476.41531666668016,
      "v": 65
    },
    {
      "midi": 83,
      "hit": false,
      "t": 167825.55001666662,
      "d": 250.0001166666625,
      "v": 77
    },
    {
      "midi": 59,
      "hit": false,
      "t": 168113.28599999993,
      "d": 150.94346666667843,
      "v": 58
    },
    {
      "midi": 67,
      "hit": false,
      "t": 168118.00298333328,
      "d": 400.94358333334094,
      "v": 71
    },
    {
      "midi": 64,
      "hit": false,
      "t": 168118.00298333328,
      "d": 405.6605666666874,
      "v": 52
    },
    {
      "midi": 79,
      "hit": false,
      "t": 168118.00298333328,
      "d": 853.7739833333762,
      "v": 87
    },
    {
      "midi": 59,
      "hit": false,
      "t": 168391.58801666662,
      "d": 132.0755333333509,
      "v": 61
    },
    {
      "midi": 59,
      "hit": false,
      "t": 168674.60701666665,
      "d": 509.4342000000179,
      "v": 61
    },
    {
      "midi": 64,
      "hit": false,
      "t": 168684.0409833333,
      "d": 481.1323000000266,
      "v": 55
    },
    {
      "midi": 67,
      "hit": false,
      "t": 168684.0409833333,
      "d": 481.1323000000266,
      "v": 75
    },
    {
      "midi": 61,
      "hit": false,
      "t": 169240.64501666668,
      "d": 169.81140000000596,
      "v": 60
    },
    {
      "midi": 64,
      "hit": false,
      "t": 169245.36200000002,
      "d": 481.1322999999975,
      "v": 55
    },
    {
      "midi": 81,
      "hit": false,
      "t": 169245.36200000002,
      "d": 768.868283333315,
      "v": 87
    },
    {
      "midi": 57,
      "hit": false,
      "t": 169250.07898333337,
      "d": 141.50949999998556,
      "v": 56
    },
    {
      "midi": 61,
      "hit": false,
      "t": 169523.66401666668,
      "d": 750.0003499999875,
      "v": 55
    },
    {
      "midi": 57,
      "hit": false,
      "t": 169533.09798333334,
      "d": 127.35855000000447,
      "v": 61
    },
    {
      "midi": 57,
      "hit": false,
      "t": 169806.68301666668,
      "d": 509.4341999999888,
      "v": 78
    },
    {
      "midi": 64,
      "hit": false,
      "t": 169816.11698333334,
      "d": 481.1322999999975,
      "v": 55
    },
    {
      "midi": 66,
      "hit": false,
      "t": 170377.438,
      "d": 386.79263333335984,
      "v": 63
    },
    {
      "midi": 62,
      "hit": false,
      "t": 170377.438,
      "d": 405.6605666666874,
      "v": 57
    },
    {
      "midi": 57,
      "hit": false,
      "t": 170382.15498333334,
      "d": 391.5096166666772,
      "v": 71
    },
    {
      "midi": 57,
      "hit": false,
      "t": 170938.75901666668,
      "d": 514.1511833333352,
      "v": 80
    },
    {
      "midi": 62,
      "hit": false,
      "t": 170943.47600000002,
      "d": 476.41531666665105,
      "v": 62
    },
    {
      "midi": 66,
      "hit": false,
      "t": 170943.47600000002,
      "d": 481.1322999999975,
      "v": 63
    },
    {
      "midi": 74,
      "hit": false,
      "t": 171221.77801666668,
      "d": 316.03788333333796,
      "v": 53
    },
    {
      "midi": 81,
      "hit": false,
      "t": 171504.79701666668,
      "d": 320.7548666667135,
      "v": 76
    },
    {
      "midi": 62,
      "hit": false,
      "t": 171514.23098333334,
      "d": 132.0755333333509,
      "v": 53
    },
    {
      "midi": 66,
      "hit": false,
      "t": 171514.23098333334,
      "d": 136.79251666669734,
      "v": 46
    },
    {
      "midi": 66,
      "hit": false,
      "t": 171787.8160166667,
      "d": 136.79251666669734,
      "v": 68
    },
    {
      "midi": 62,
      "hit": false,
      "t": 171792.53300000005,
      "d": 127.35855000000447,
      "v": 67
    },
    {
      "midi": 66,
      "hit": false,
      "t": 172070.83501666674,
      "d": 537.7361000000092,
      "v": 60
    },
    {
      "midi": 74,
      "hit": false,
      "t": 172075.55200000008,
      "d": 367.9247000000032,
      "v": 62
    },
    {
      "midi": 69,
      "hit": false,
      "t": 172075.55200000008,
      "d": 396.2265999999945,
      "v": 63
    },
    {
      "midi": 62,
      "hit": false,
      "t": 172080.26898333343,
      "d": 537.7360999999801,
      "v": 65
    },
    {
      "midi": 64,
      "hit": false,
      "t": 172646.3069833334,
      "d": 132.0755333333509,
      "v": 49
    },
    {
      "midi": 72,
      "hit": false,
      "t": 172651.02396666675,
      "d": 136.79251666666823,
      "v": 65
    },
    {
      "midi": 67,
      "hit": false,
      "t": 172651.02396666675,
      "d": 141.50950000001467,
      "v": 72
    },
    {
      "midi": 64,
      "hit": false,
      "t": 172924.60900000008,
      "d": 193.39631666667992,
      "v": 33
    },
    {
      "midi": 72,
      "hit": false,
      "t": 172929.32598333343,
      "d": 132.0755333333218,
      "v": 62
    },
    {
      "midi": 67,
      "hit": false,
      "t": 172929.32598333343,
      "d": 146.226483333332,
      "v": 47
    },
    {
      "midi": 64,
      "hit": false,
      "t": 173202.91101666677,
      "d": 448.11341666665976,
      "v": 62
    },
    {
      "midi": 72,
      "hit": false,
      "t": 173202.91101666677,
      "d": 448.11341666665976,
      "v": 62
    },
    {
      "midi": 67,
      "hit": false,
      "t": 173202.91101666677,
      "d": 462.26436666666996,
      "v": 73
    },
    {
      "midi": 72,
      "hit": false,
      "t": 173768.94901666677,
      "d": 122.64156666668714,
      "v": 67
    },
    {
      "midi": 64,
      "hit": false,
      "t": 173768.94901666677,
      "d": 127.35855000003357,
      "v": 67
    },
    {
      "midi": 67,
      "hit": false,
      "t": 173773.6660000001,
      "d": 127.35855000003357,
      "v": 67
    },
    {
      "midi": 64,
      "hit": false,
      "t": 174051.96801666683,
      "d": 108.49061666667694,
      "v": 64
    },
    {
      "midi": 72,
      "hit": false,
      "t": 174051.96801666683,
      "d": 117.9245833333407,
      "v": 64
    },
    {
      "midi": 67,
      "hit": false,
      "t": 174051.96801666683,
      "d": 122.64156666668714,
      "v": 64
    },
    {
      "midi": 64,
      "hit": false,
      "t": 174334.98701666686,
      "d": 433.96246666667867,
      "v": 51
    },
    {
      "midi": 72,
      "hit": false,
      "t": 174334.98701666686,
      "d": 452.8304000000062,
      "v": 59
    },
    {
      "midi": 67,
      "hit": false,
      "t": 174339.7040000002,
      "d": 429.24548333333223,
      "v": 65
    },
    {
      "midi": 62,
      "hit": false,
      "t": 174901.02501666686,
      "d": 283.01900000000023,
      "v": 77
    },
    {
      "midi": 71,
      "hit": false,
      "t": 174910.45898333352,
      "d": 264.1510666666727,
      "v": 77
    },
    {
      "midi": 67,
      "hit": false,
      "t": 174910.45898333352,
      "d": 283.01900000000023,
      "v": 77
    },
    {
      "midi": 67,
      "hit": false,
      "t": 175334.9874833335,
      "d": 259.43408333332627,
      "v": 69
    },
    {
      "midi": 71,
      "hit": false,
      "t": 175334.9874833335,
      "d": 259.43408333332627,
      "v": 54
    },
    {
      "midi": 62,
      "hit": false,
      "t": 175334.9874833335,
      "d": 316.03788333333796,
      "v": 64
    },
    {
      "midi": 62,
      "hit": false,
      "t": 175740.64805000016,
      "d": 1287.7364500000258,
      "v": 69
    },
    {
      "midi": 71,
      "hit": false,
      "t": 175745.3650333335,
      "d": 1250.0005833333416,
      "v": 70
    },
    {
      "midi": 67,
      "hit": false,
      "t": 175750.08201666686,
      "d": 1278.302483333333,
      "v": 77
    },
    {
      "midi": 64,
      "hit": false,
      "t": 177169.89400000017,
      "d": 150.94346666667843,
      "v": 68
    },
    {
      "midi": 68,
      "hit": false,
      "t": 177174.61098333352,
      "d": 150.94346666667843,
      "v": 67
    },
    {
      "midi": 71,
      "hit": false,
      "t": 177174.61098333352,
      "d": 160.3774333333422,
      "v": 67
    },
    {
      "midi": 71,
      "hit": false,
      "t": 177448.19601666686,
      "d": 103.77363333333051,
      "v": 65
    },
    {
      "midi": 68,
      "hit": false,
      "t": 177457.62998333352,
      "d": 99.05665000001318,
      "v": 68
    },
    {
      "midi": 64,
      "hit": false,
      "t": 177457.62998333352,
      "d": 113.20760000002338,
      "v": 45
    },
    {
      "midi": 64,
      "hit": false,
      "t": 177740.64898333355,
      "d": 438.6794500000251,
      "v": 60
    },
    {
      "midi": 71,
      "hit": false,
      "t": 177745.3659666669,
      "d": 419.81151666666847,
      "v": 40
    },
    {
      "midi": 68,
      "hit": false,
      "t": 177745.3659666669,
      "d": 433.96246666667867,
      "v": 63
    },
    {
      "midi": 71,
      "hit": false,
      "t": 178311.4039666669,
      "d": 122.64156666665804,
      "v": 48
    },
    {
      "midi": 68,
      "hit": false,
      "t": 178311.4039666669,
      "d": 127.35855000000447,
      "v": 64
    },
    {
      "midi": 64,
      "hit": false,
      "t": 178311.4039666669,
      "d": 141.50950000001467,
      "v": 44
    },
    {
      "midi": 64,
      "hit": false,
      "t": 178589.70598333358,
      "d": 113.20760000002338,
      "v": 47
    },
    {
      "midi": 68,
      "hit": false,
      "t": 178589.70598333358,
      "d": 117.92458333336981,
      "v": 77
    },
    {
      "midi": 71,
      "hit": false,
      "t": 178594.42296666693,
      "d": 113.20760000002338,
      "v": 59
    },
    {
      "midi": 71,
      "hit": false,
      "t": 178863.29101666695,
      "d": 481.1322999999975,
      "v": 63
    },
    {
      "midi": 68,
      "hit": false,
      "t": 178872.7249833336,
      "d": 481.1322999999975,
      "v": 78
    },
    {
      "midi": 64,
      "hit": false,
      "t": 178872.7249833336,
      "d": 485.8492833333439,
      "v": 58
    },
    {
      "midi": 57,
      "hit": false,
      "t": 179438.7629833336,
      "d": 410.3775500000047,
      "v": 57
    },
    {
      "midi": 64,
      "hit": false,
      "t": 179438.7629833336,
      "d": 410.3775500000047,
      "v": 63
    },
    {
      "midi": 61,
      "hit": false,
      "t": 179438.7629833336,
      "d": 1042.4533166666806,
      "v": 65
    },
    {
      "midi": 64,
      "hit": false,
      "t": 180004.8009833336,
      "d": 410.3775500000047,
      "v": 59
    },
    {
      "midi": 57,
      "hit": false,
      "t": 180004.8009833336,
      "d": 466.9813500000164,
      "v": 76
    },
    {
      "midi": 64,
      "hit": false,
      "t": 180561.40501666695,
      "d": 410.3775500000338,
      "v": 59
    },
    {
      "midi": 57,
      "hit": false,
      "t": 180570.8389833336,
      "d": 136.79251666666823,
      "v": 68
    },
    {
      "midi": 61,
      "hit": false,
      "t": 180570.8389833336,
      "d": 155.66044999999576,
      "v": 41
    },
    {
      "midi": 81,
      "hit": false,
      "t": 180570.8389833336,
      "d": 155.66044999999576,
      "v": 64
    },
    {
      "midi": 85,
      "hit": false,
      "t": 180702.91451666693,
      "d": 136.79251666666823,
      "v": 69
    },
    {
      "midi": 81,
      "hit": false,
      "t": 180844.42401666695,
      "d": 117.9245833333407,
      "v": 54
    },
    {
      "midi": 57,
      "hit": false,
      "t": 180853.8579833336,
      "d": 113.20760000002338,
      "v": 62
    },
    {
      "midi": 61,
      "hit": false,
      "t": 180853.8579833336,
      "d": 165.09441666671773,
      "v": 62
    },
    {
      "midi": 85,
      "hit": false,
      "t": 180985.933516667,
      "d": 155.66045000002487,
      "v": 80
    },
    {
      "midi": 81,
      "hit": false,
      "t": 181127.443016667,
      "d": 132.0755333333509,
      "v": 86
    },
    {
      "midi": 64,
      "hit": false,
      "t": 181127.443016667,
      "d": 551.8870500000194,
      "v": 59
    },
    {
      "midi": 57,
      "hit": false,
      "t": 181136.87698333367,
      "d": 500.0002333333541,
      "v": 60
    },
    {
      "midi": 61,
      "hit": false,
      "t": 181136.87698333367,
      "d": 500.0002333333541,
      "v": 60
    },
    {
      "midi": 85,
      "hit": false,
      "t": 181278.38648333368,
      "d": 254.71710000000894,
      "v": 74
    },
    {
      "midi": 81,
      "hit": false,
      "t": 181424.61296666702,
      "d": 198.11329999999725,
      "v": 63
    },
    {
      "midi": 62,
      "hit": false,
      "t": 181707.63196666702,
      "d": 382.0756500000425,
      "v": 58
    },
    {
      "midi": 69,
      "hit": false,
      "t": 181712.34895000036,
      "d": 358.49073333333945,
      "v": 61
    },
    {
      "midi": 66,
      "hit": false,
      "t": 181712.34895000036,
      "d": 363.2077166666859,
      "v": 44
    },
    {
      "midi": 62,
      "hit": false,
      "t": 182268.95298333373,
      "d": 391.5096166666772,
      "v": 59
    },
    {
      "midi": 69,
      "hit": false,
      "t": 182268.95298333373,
      "d": 400.94358333337004,
      "v": 70
    },
    {
      "midi": 66,
      "hit": false,
      "t": 182273.66996666708,
      "d": 391.5096166666772,
      "v": 48
    },
    {
      "midi": 62,
      "hit": false,
      "t": 182825.5570166671,
      "d": 155.66045000002487,
      "v": 48
    },
    {
      "midi": 69,
      "hit": false,
      "t": 182825.5570166671,
      "d": 160.3774333333713,
      "v": 53
    },
    {
      "midi": 66,
      "hit": false,
      "t": 182830.27400000044,
      "d": 155.66045000002487,
      "v": 57
    },
    {
      "midi": 69,
      "hit": false,
      "t": 183108.57601666712,
      "d": 146.226483333332,
      "v": 48
    },
    {
      "midi": 62,
      "hit": false,
      "t": 183108.57601666712,
      "d": 155.66044999999576,
      "v": 43
    },
    {
      "midi": 66,
      "hit": false,
      "t": 183108.57601666712,
      "d": 155.66044999999576,
      "v": 66
    },
    {
      "midi": 66,
      "hit": false,
      "t": 183401.0289833338,
      "d": 424.5284999999858,
      "v": 64
    },
    {
      "midi": 62,
      "hit": false,
      "t": 183401.0289833338,
      "d": 448.11341666665976,
      "v": 64
    },
    {
      "midi": 69,
      "hit": false,
      "t": 183401.0289833338,
      "d": 448.11341666665976,
      "v": 64
    },
    {
      "midi": 59,
      "hit": false,
      "t": 183967.0669833338,
      "d": 367.9247000000032,
      "v": 66
    },
    {
      "midi": 62,
      "hit": false,
      "t": 183967.0669833338,
      "d": 372.64168333334965,
      "v": 66
    },
    {
      "midi": 59,
      "hit": false,
      "t": 184528.38800000047,
      "d": 424.5284999999858,
      "v": 63
    },
    {
      "midi": 62,
      "hit": false,
      "t": 184528.38800000047,
      "d": 424.5284999999858,
      "v": 50
    },
    {
      "midi": 83,
      "hit": false,
      "t": 185089.70901666713,
      "d": 344.33978333332925,
      "v": 91
    },
    {
      "midi": 62,
      "hit": false,
      "t": 185099.1429833338,
      "d": 433.96246666667867,
      "v": 34
    },
    {
      "midi": 59,
      "hit": false,
      "t": 185099.1429833338,
      "d": 438.6794500000251,
      "v": 50
    },
    {
      "midi": 81,
      "hit": false,
      "t": 185372.72801666713,
      "d": 292.4529666666931,
      "v": 73
    },
    {
      "midi": 79,
      "hit": false,
      "t": 185665.18098333382,
      "d": 259.4340833333554,
      "v": 91
    },
    {
      "midi": 59,
      "hit": false,
      "t": 185669.89796666717,
      "d": 424.5285000000149,
      "v": 58
    },
    {
      "midi": 62,
      "hit": false,
      "t": 185669.89796666717,
      "d": 424.5285000000149,
      "v": 47
    },
    {
      "midi": 81,
      "hit": false,
      "t": 185938.76601666718,
      "d": 268.86804999999003,
      "v": 84
    },
    {
      "midi": 76,
      "hit": false,
      "t": 186221.78501666719,
      "d": 495.2832500000368,
      "v": 91
    },
    {
      "midi": 64,
      "hit": false,
      "t": 186231.21898333385,
      "d": 429.24548333336134,
      "v": 65
    },
    {
      "midi": 59,
      "hit": false,
      "t": 186235.9359666672,
      "d": 419.81151666666847,
      "v": 71
    },
    {
      "midi": 64,
      "hit": false,
      "t": 186797.25698333388,
      "d": 424.5284999999858,
      "v": 72
    },
    {
      "midi": 59,
      "hit": false,
      "t": 186797.25698333388,
      "d": 481.1322999999975,
      "v": 71
    },
    {
      "midi": 61,
      "hit": false,
      "t": 187353.86101666722,
      "d": 457.5473833333235,
      "v": 73
    },
    {
      "midi": 64,
      "hit": false,
      "t": 187363.29498333388,
      "d": 433.96246666664956,
      "v": 67
    },
    {
      "midi": 57,
      "hit": false,
      "t": 187641.59700000053,
      "d": 693.3965500000049,
      "v": 66
    },
    {
      "midi": 61,
      "hit": false,
      "t": 187929.33298333388,
      "d": 429.24548333333223,
      "v": 71
    },
    {
      "midi": 64,
      "hit": false,
      "t": 187929.33298333388,
      "d": 476.41531666665105,
      "v": 60
    }
  ]
}