{
  "jsonPath": "Unknown/Unknown/Colm Wilkinson  Terrence Mann  Robert Billig  Various Artists/confrontation.json",
  "path": "Unknown\\Unknown\\Colm Wilkinson  Terrence Mann  Robert Billig  Various Artists\\Confrontation.mid",
  "name": "Confrontation",
  "difficulty": "Advanced",
  "bpm": 75.99996960001216,
  "notes": [
    {
      "midi": 41,
      "hit": false,
      "t": 0,
      "d": 3000.0012,
      "v": 80
    },
    {
      "midi": 53,
      "hit": false,
      "t": 0,
      "d": 3000.0012,
      "v": 80
    },
    {
      "midi": 56,
      "hit": false,
      "t": 0,
      "d": 3000.0012,
      "v": 80
    },
    {
      "midi": 60,
      "hit": false,
      "t": 0,
      "d": 3000.0012,
      "v": 80
    },
    {
      "midi": 65,
      "hit": false,
      "t": 0,
      "d": 3000.0012,
      "v": 80
    },
    {
      "midi": 53,
      "hit": false,
      "t": 3157.896,
      "d": 750.0003000000002,
      "v": 80
    },
    {
      "midi": 56,
      "hit": false,
      "t": 3157.896,
      "d": 750.0003000000002,
      "v": 80
    },
    {
      "midi": 60,
      "hit": false,
      "t": 3157.896,
      "d": 750.0003000000002,
      "v": 80
    },
    {
      "midi": 65,
      "hit": false,
      "t": 3157.896,
      "d": 750.0003000000002,
      "v": 80
    },
    {
      "midi": 41,
      "hit": false,
      "t": 3157.896,
      "d": 1125.00045,
      "v": 80
    },
    {
      "midi": 53,
      "hit": false,
      "t": 3947.3700000000003,
      "d": 335.52644999999984,
      "v": 80
    },
    {
      "midi": 56,
      "hit": false,
      "t": 3947.3700000000003,
      "d": 750.0002999999992,
      "v": 80
    },
    {
      "midi": 60,
      "hit": false,
      "t": 3947.3700000000003,
      "d": 750.0002999999992,
      "v": 80
    },
    {
      "midi": 65,
      "hit": false,
      "t": 3947.3700000000003,
      "d": 750.0002999999992,
      "v": 80
    },
    {
      "midi": 53,
      "hit": false,
      "t": 4342.107,
      "d": 355.2632999999996,
      "v": 80
    },
    {
      "midi": 41,
      "hit": false,
      "t": 4342.107,
      "d": 375.00014999999985,
      "v": 80
    },
    {
      "midi": 53,
      "hit": false,
      "t": 4736.844,
      "d": 750.0002999999997,
      "v": 80
    },
    {
      "midi": 56,
      "hit": false,
      "t": 4736.844,
      "d": 750.0002999999997,
      "v": 80
    },
    {
      "midi": 60,
      "hit": false,
      "t": 4736.844,
      "d": 750.0002999999997,
      "v": 80
    },
    {
      "midi": 65,
      "hit": false,
      "t": 4736.844,
      "d": 750.0002999999997,
      "v": 80
    },
    {
      "midi": 41,
      "hit": false,
      "t": 4736.844,
      "d": 1125.0004499999995,
      "v": 80
    },
    {
      "midi": 53,
      "hit": false,
      "t": 5526.317999999999,
      "d": 335.5264500000003,
      "v": 80
    },
    {
      "midi": 56,
      "hit": false,
      "t": 5526.317999999999,
      "d": 750.0002999999997,
      "v": 80
    },
    {
      "midi": 60,
      "hit": false,
      "t": 5526.317999999999,
      "d": 750.0002999999997,
      "v": 80
    },
    {
      "midi": 65,
      "hit": false,
      "t": 5526.317999999999,
      "d": 750.0002999999997,
      "v": 80
    },
    {
      "midi": 53,
      "hit": false,
      "t": 5921.054999999999,
      "d": 355.2632999999996,
      "v": 80
    },
    {
      "midi": 41,
      "hit": false,
      "t": 5921.054999999999,
      "d": 375.00014999999985,
      "v": 80
    },
    {
      "midi": 55,
      "hit": false,
      "t": 6315.7919999999995,
      "d": 750.0002999999997,
      "v": 80
    },
    {
      "midi": 58,
      "hit": false,
      "t": 6315.7919999999995,
      "d": 750.0002999999997,
      "v": 80
    },
    {
      "midi": 63,
      "hit": false,
      "t": 6315.7919999999995,
      "d": 750.0002999999997,
      "v": 80
    },
    {
      "midi": 65,
      "hit": false,
      "t": 6315.7919999999995,
      "d": 750.0002999999997,
      "v": 80
    },
    {
      "midi": 41,
      "hit": false,
      "t": 6315.7919999999995,
      "d": 1125.0004499999995,
      "v": 80
    },
    {
      "midi": 53,
      "hit": false,
      "t": 6315.7919999999995,
      "d": 1125.0004499999995,
      "v": 80
    },
    {
      "midi": 55,
      "hit": false,
      "t": 7105.265999999999,
      "d": 750.0002999999997,
      "v": 80
    },
    {
      "midi": 58,
      "hit": false,
      "t": 7105.265999999999,
      "d": 750.0002999999997,
      "v": 80
    },
    {
      "midi": 63,
      "hit": false,
      "t": 7105.265999999999,
      "d": 750.0002999999997,
      "v": 80
    },
    {
      "midi": 65,
      "hit": false,
      "t": 7105.265999999999,
      "d": 750.0002999999997,
      "v": 80
    },
    {
      "midi": 41,
      "hit": false,
      "t": 7500.002999999999,
      "d": 375.00014999999985,
      "v": 80
    },
    {
      "midi": 53,
      "hit": false,
      "t": 7500.002999999999,
      "d": 375.00014999999985,
      "v": 80
    },
    {
      "midi": 55,
      "hit": false,
      "t": 7894.739999999999,
      "d": 750.0003000000006,
      "v": 80
    },
    {
      "midi": 58,
      "hit": false,
      "t": 7894.739999999999,
      "d": 750.0003000000006,
      "v": 80
    },
    {
      "midi": 63,
      "hit": false,
      "t": 7894.739999999999,
      "d": 750.0003000000006,
      "v": 80
    },
    {
      "midi": 65,
      "hit": false,
      "t": 7894.739999999999,
      "d": 750.0003000000006,
      "v": 80
    },
    {
      "midi": 41,
      "hit": false,
      "t": 7894.739999999999,
      "d": 1125.0004500000005,
      "v": 80
    },
    {
      "midi": 53,
      "hit": false,
      "t": 7894.739999999999,
      "d": 1125.0004500000005,
      "v": 80
    },
    {
      "midi": 55,
      "hit": false,
      "t": 8684.214,
      "d": 750.0002999999997,
      "v": 80
    },
    {
      "midi": 58,
      "hit": false,
      "t": 8684.214,
      "d": 750.0002999999997,
      "v": 80
    },
    {
      "midi": 63,
      "hit": false,
      "t": 8684.214,
      "d": 750.0002999999997,
      "v": 80
    },
    {
      "midi": 65,
      "hit": false,
      "t": 8684.214,
      "d": 750.0002999999997,
      "v": 80
    },
    {
      "midi": 41,
      "hit": false,
      "t": 9078.951,
      "d": 375.00014999999985,
      "v": 80
    },
    {
      "midi": 53,
      "hit": false,
      "t": 9078.951,
      "d": 375.00014999999985,
      "v": 80
    },
    {
      "midi": 53,
      "hit": false,
      "t": 9473.687999999998,
      "d": 750.0002999999997,
      "v": 80
    },
    {
      "midi": 56,
      "hit": false,
      "t": 9473.687999999998,
      "d": 750.0002999999997,
      "v": 80
    },
    {
      "midi": 60,
      "hit": false,
      "t": 9473.687999999998,
      "d": 750.0002999999997,
      "v": 80
    },
    {
      "midi": 63,
      "hit": false,
      "t": 9473.687999999998,
      "d": 750.0002999999997,
      "v": 80
    },
    {
      "midi": 65,
      "hit": false,
      "t": 9473.687999999998,
      "d": 750.0002999999997,
      "v": 80
    },
    {
      "midi": 41,
      "hit": false,
      "t": 9473.687999999998,
      "d": 1125.0004499999995,
      "v": 80
    },
    {
      "midi": 53,
      "hit": false,
      "t": 10263.161999999998,
      "d": 335.5264499999994,
      "v": 80
    },
    {
      "midi": 56,
      "hit": false,
      "t": 10263.161999999998,
      "d": 750.0002999999997,
      "v": 80
    },
    {
      "midi": 60,
      "hit": false,
      "t": 10263.161999999998,
      "d": 750.0002999999997,
      "v": 80
    },
    {
      "midi": 63,
      "hit": false,
      "t": 10263.161999999998,
      "d": 750.0002999999997,
      "v": 80
    },
    {
      "midi": 65,
      "hit": false,
      "t": 10263.161999999998,
      "d": 750.0002999999997,
      "v": 80
    },
    {
      "midi": 53,
      "hit": false,
      "t": 10657.898999999998,
      "d": 355.2633000000005,
      "v": 80
    },
    {
      "midi": 41,
      "hit": false,
      "t": 10657.898999999998,
      "d": 375.00014999999985,
      "v": 80
    },
    {
      "midi": 53,
      "hit": false,
      "t": 11052.635999999997,
      "d": 750.0002999999997,
      "v": 80
    },
    {
      "midi": 56,
      "hit": false,
      "t": 11052.635999999997,
      "d": 750.0002999999997,
      "v": 80
    },
    {
      "midi": 60,
      "hit": false,
      "t": 11052.635999999997,
      "d": 750.0002999999997,
      "v": 80
    },
    {
      "midi": 63,
      "hit": false,
      "t": 11052.635999999997,
      "d": 750.0002999999997,
      "v": 80
    },
    {
      "midi": 65,
      "hit": false,
      "t": 11052.635999999997,
      "d": 750.0002999999997,
      "v": 80
    },
    {
      "midi": 41,
      "hit": false,
      "t": 11052.635999999997,
      "d": 1125.0004499999995,
      "v": 80
    },
    {
      "midi": 53,
      "hit": false,
      "t": 11842.109999999997,
      "d": 335.5264499999994,
      "v": 80
    },
    {
      "midi": 56,
      "hit": false,
      "t": 11842.109999999997,
      "d": 750.0002999999997,
      "v": 80
    },
    {
      "midi": 60,
      "hit": false,
      "t": 11842.109999999997,
      "d": 750.0002999999997,
      "v": 80
    },
    {
      "midi": 63,
      "hit": false,
      "t": 11842.109999999997,
      "d": 750.0002999999997,
      "v": 80
    },
    {
      "midi": 65,
      "hit": false,
      "t": 11842.109999999997,
      "d": 750.0002999999997,
      "v": 80
    },
    {
      "midi": 53,
      "hit": false,
      "t": 12236.846999999996,
      "d": 355.2633000000005,
      "v": 80
    },
    {
      "midi": 41,
      "hit": false,
      "t": 12236.846999999996,
      "d": 375.00014999999985,
      "v": 80
    },
    {
      "midi": 53,
      "hit": false,
      "t": 12631.583999999995,
      "d": 750.0002999999997,
      "v": 80
    },
    {
      "midi": 58,
      "hit": false,
      "t": 12631.583999999995,
      "d": 750.0002999999997,
      "v": 80
    },
    {
      "midi": 62,
      "hit": false,
      "t": 12631.583999999995,
      "d": 750.0002999999997,
      "v": 80
    },
    {
      "midi": 65,
      "hit": false,
      "t": 12631.583999999995,
      "d": 750.0002999999997,
      "v": 80
    },
    {
      "midi": 41,
      "hit": false,
      "t": 12631.583999999995,
      "d": 1125.0004499999995,
      "v": 80
    },
    {
      "midi": 53,
      "hit": false,
      "t": 13421.057999999995,
      "d": 335.5264499999994,
      "v": 80
    },
    {
      "midi": 58,
      "hit": false,
      "t": 13421.057999999995,
      "d": 750.0002999999997,
      "v": 80
    },
    {
      "midi": 62,
      "hit": false,
      "t": 13421.057999999995,
      "d": 750.0002999999997,
      "v": 80
    },
    {
      "midi": 65,
      "hit": false,
      "t": 13421.057999999995,
      "d": 750.0002999999997,
      "v": 80
    },
    {
      "midi": 53,
      "hit": false,
      "t": 13815.794999999995,
      "d": 355.2633000000005,
      "v": 80
    },
    {
      "midi": 41,
      "hit": false,
      "t": 13815.794999999995,
      "d": 375.00014999999985,
      "v": 80
    },
    {
      "midi": 53,
      "hit": false,
      "t": 14210.531999999994,
      "d": 750.0002999999997,
      "v": 80
    },
    {
      "midi": 58,
      "hit": false,
      "t": 14210.531999999994,
      "d": 750.0002999999997,
      "v": 80
    },
    {
      "midi": 62,
      "hit": false,
      "t": 14210.531999999994,
      "d": 750.0002999999997,
      "v": 80
    },
    {
      "midi": 65,
      "hit": false,
      "t": 14210.531999999994,
      "d": 750.0002999999997,
      "v": 80
    },
    {
      "midi": 41,
      "hit": false,
      "t": 14210.531999999994,
      "d": 1125.0004499999995,
      "v": 80
    },
    {
      "midi": 53,
      "hit": false,
      "t": 15000.005999999994,
      "d": 335.5264499999994,
      "v": 80
    },
    {
      "midi": 58,
      "hit": false,
      "t": 15000.005999999994,
      "d": 750.0002999999997,
      "v": 80
    },
    {
      "midi": 62,
      "hit": false,
      "t": 15000.005999999994,
      "d": 750.0002999999997,
      "v": 80
    },
    {
      "midi": 65,
      "hit": false,
      "t": 15000.005999999994,
      "d": 750.0002999999997,
      "v": 80
    },
    {
      "midi": 53,
      "hit": false,
      "t": 15394.742999999993,
      "d": 355.2633000000005,
      "v": 80
    },
    {
      "midi": 41,
      "hit": false,
      "t": 15394.742999999993,
      "d": 375.00014999999985,
      "v": 80
    },
    {
      "midi": 53,
      "hit": false,
      "t": 15789.479999999992,
      "d": 750.0002999999997,
      "v": 80
    },
    {
      "midi": 56,
      "hit": false,
      "t": 15789.479999999992,
      "d": 750.0002999999997,
      "v": 80
    },
    {
      "midi": 60,
      "hit": false,
      "t": 15789.479999999992,
      "d": 750.0002999999997,
      "v": 80
    },
    {
      "midi": 65,
      "hit": false,
      "t": 15789.479999999992,
      "d": 750.0002999999997,
      "v": 80
    },
    {
      "midi": 41,
      "hit": false,
      "t": 15789.479999999992,
      "d": 1125.0004499999995,
      "v": 80
    },
    {
      "midi": 53,
      "hit": false,
      "t": 16578.95399999999,
      "d": 335.5264500000012,
      "v": 80
    },
    {
      "midi": 56,
      "hit": false,
      "t": 16578.95399999999,
      "d": 750.0002999999997,
      "v": 80
    },
    {
      "midi": 60,
      "hit": false,
      "t": 16578.95399999999,
      "d": 750.0002999999997,
      "v": 80
    },
    {
      "midi": 65,
      "hit": false,
      "t": 16578.95399999999,
      "d": 750.0002999999997,
      "v": 80
    },
    {
      "midi": 53,
      "hit": false,
      "t": 16973.69099999999,
      "d": 355.2632999999987,
      "v": 80
    },
    {
      "midi": 41,
      "hit": false,
      "t": 16973.69099999999,
      "d": 375.00014999999985,
      "v": 80
    },
    {
      "midi": 53,
      "hit": false,
      "t": 17368.427999999993,
      "d": 750.0002999999997,
      "v": 80
    },
    {
      "midi": 56,
      "hit": false,
      "t": 17368.427999999993,
      "d": 750.0002999999997,
      "v": 80
    },
    {
      "midi": 60,
      "hit": false,
      "t": 17368.427999999993,
      "d": 750.0002999999997,
      "v": 80
    },
    {
      "midi": 65,
      "hit": false,
      "t": 17368.427999999993,
      "d": 750.0002999999997,
      "v": 80
    },
    {
      "midi": 41,
      "hit": false,
      "t": 17368.427999999993,
      "d": 1125.0004499999995,
      "v": 80
    },
    {
      "midi": 53,
      "hit": false,
      "t": 18157.90199999999,
      "d": 335.5264500000012,
      "v": 80
    },
    {
      "midi": 56,
      "hit": false,
      "t": 18157.90199999999,
      "d": 750.0002999999997,
      "v": 80
    },
    {
      "midi": 60,
      "hit": false,
      "t": 18157.90199999999,
      "d": 750.0002999999997,
      "v": 80
    },
    {
      "midi": 65,
      "hit": false,
      "t": 18157.90199999999,
      "d": 750.0002999999997,
      "v": 80
    },
    {
      "midi": 53,
      "hit": false,
      "t": 18552.638999999992,
      "d": 355.2632999999987,
      "v": 80
    },
    {
      "midi": 41,
      "hit": false,
      "t": 18552.638999999992,
      "d": 375.00014999999985,
      "v": 80
    },
    {
      "midi": 55,
      "hit": false,
      "t": 18947.375999999993,
      "d": 750.0002999999997,
      "v": 80
    },
    {
      "midi": 58,
      "hit": false,
      "t": 18947.375999999993,
      "d": 750.0002999999997,
      "v": 80
    },
    {
      "midi": 63,
      "hit": false,
      "t": 18947.375999999993,
      "d": 750.0002999999997,
      "v": 80
    },
    {
      "midi": 65,
      "hit": false,
      "t": 18947.375999999993,
      "d": 750.0002999999997,
      "v": 80
    },
    {
      "midi": 41,
      "hit": false,
      "t": 18947.375999999993,
      "d": 1125.0004499999995,
      "v": 80
    },
    {
      "midi": 53,
      "hit": false,
      "t": 18947.375999999993,
      "d": 1125.0004499999995,
      "v": 80
    },
    {
      "midi": 55,
      "hit": false,
      "t": 19736.84999999999,
      "d": 750.0002999999997,
      "v": 80
    },
    {
      "midi": 58,
      "hit": false,
      "t": 19736.84999999999,
      "d": 750.0002999999997,
      "v": 80
    },
    {
      "midi": 63,
      "hit": false,
      "t": 19736.84999999999,
      "d": 750.0002999999997,
      "v": 80
    },
    {
      "midi": 65,
      "hit": false,
      "t": 19736.84999999999,
      "d": 750.0002999999997,
      "v": 80
    },
    {
      "midi": 41,
      "hit": false,
      "t": 20131.586999999992,
      "d": 375.00014999999985,
      "v": 80
    },
    {
      "midi": 53,
      "hit": false,
      "t": 20131.586999999992,
      "d": 375.00014999999985,
      "v": 80
    },
    {
      "midi": 55,
      "hit": false,
      "t": 20526.323999999993,
      "d": 750.0002999999997,
      "v": 80
    },
    {
      "midi": 58,
      "hit": false,
      "t": 20526.323999999993,
      "d": 750.0002999999997,
      "v": 80
    },
    {
      "midi": 63,
      "hit": false,
      "t": 20526.323999999993,
      "d": 750.0002999999997,
      "v": 80
    },
    {
      "midi": 65,
      "hit": false,
      "t": 20526.323999999993,
      "d": 750.0002999999997,
      "v": 80
    },
    {
      "midi": 41,
      "hit": false,
      "t": 20526.323999999993,
      "d": 1125.0004499999995,
      "v": 80
    },
    {
      "midi": 53,
      "hit": false,
      "t": 20526.323999999993,
      "d": 1125.0004499999995,
      "v": 80
    },
    {
      "midi": 55,
      "hit": false,
      "t": 21315.79799999999,
      "d": 750.0002999999997,
      "v": 80
    },
    {
      "midi": 58,
      "hit": false,
      "t": 21315.79799999999,
      "d": 750.0002999999997,
      "v": 80
    },
    {
      "midi": 63,
      "hit": false,
      "t": 21315.79799999999,
      "d": 750.0002999999997,
      "v": 80
    },
    {
      "midi": 65,
      "hit": false,
      "t": 21315.79799999999,
      "d": 750.0002999999997,
      "v": 80
    },
    {
      "midi": 41,
      "hit": false,
      "t": 21710.534999999993,
      "d": 375.00014999999985,
      "v": 80
    },
    {
      "midi": 53,
      "hit": false,
      "t": 21710.534999999993,
      "d": 375.00014999999985,
      "v": 80
    },
    {
      "midi": 53,
      "hit": false,
      "t": 22105.271999999994,
      "d": 750.0002999999997,
      "v": 80
    },
    {
      "midi": 56,
      "hit": false,
      "t": 22105.271999999994,
      "d": 750.0002999999997,
      "v": 80
    },
    {
      "midi": 60,
      "hit": false,
      "t": 22105.271999999994,
      "d": 750.0002999999997,
      "v": 80
    },
    {
      "midi": 63,
      "hit": false,
      "t": 22105.271999999994,
      "d": 750.0002999999997,
      "v": 80
    },
    {
      "midi": 65,
      "hit": false,
      "t": 22105.271999999994,
      "d": 750.0002999999997,
      "v": 80
    },
    {
      "midi": 41,
      "hit": false,
      "t": 22105.271999999994,
      "d": 1125.0004499999995,
      "v": 80
    },
    {
      "midi": 53,
      "hit": false,
      "t": 22894.745999999992,
      "d": 335.5264500000012,
      "v": 80
    },
    {
      "midi": 56,
      "hit": false,
      "t": 22894.745999999992,
      "d": 750.0002999999997,
      "v": 80
    },
    {
      "midi": 60,
      "hit": false,
      "t": 22894.745999999992,
      "d": 750.0002999999997,
      "v": 80
    },
    {
      "midi": 63,
      "hit": false,
      "t": 22894.745999999992,
      "d": 750.0002999999997,
      "v": 80
    },
    {
      "midi": 65,
      "hit": false,
      "t": 22894.745999999992,
      "d": 750.0002999999997,
      "v": 80
    },
    {
      "midi": 53,
      "hit": false,
      "t": 23289.482999999993,
      "d": 355.2632999999987,
      "v": 80
    },
    {
      "midi": 41,
      "hit": false,
      "t": 23289.482999999993,
      "d": 375.00014999999985,
      "v": 80
    },
    {
      "midi": 53,
      "hit": false,
      "t": 23684.219999999994,
      "d": 750.0002999999997,
      "v": 80
    },
    {
      "midi": 56,
      "hit": false,
      "t": 23684.219999999994,
      "d": 750.0002999999997,
      "v": 80
    },
    {
      "midi": 60,
      "hit": false,
      "t": 23684.219999999994,
      "d": 750.0002999999997,
      "v": 80
    },
    {
      "midi": 63,
      "hit": false,
      "t": 23684.219999999994,
      "d": 750.0002999999997,
      "v": 80
    },
    {
      "midi": 65,
      "hit": false,
      "t": 23684.219999999994,
      "d": 750.0002999999997,
      "v": 80
    },
    {
      "midi": 41,
      "hit": false,
      "t": 23684.219999999994,
      "d": 1125.0004499999995,
      "v": 80
    },
    {
      "midi": 53,
      "hit": false,
      "t": 24473.693999999992,
      "d": 335.5264500000012,
      "v": 80
    },
    {
      "midi": 56,
      "hit": false,
      "t": 24473.693999999992,
      "d": 750.0002999999997,
      "v": 80
    },
    {
      "midi": 60,
      "hit": false,
      "t": 24473.693999999992,
      "d": 750.0002999999997,
      "v": 80
    },
    {
      "midi": 63,
      "hit": false,
      "t": 24473.693999999992,
      "d": 750.0002999999997,
      "v": 80
    },
    {
      "midi": 65,
      "hit": false,
      "t": 24473.693999999992,
      "d": 750.0002999999997,
      "v": 80
    },
    {
      "midi": 53,
      "hit": false,
      "t": 24868.430999999993,
      "d": 355.2632999999987,
      "v": 80
    },
    {
      "midi": 41,
      "hit": false,
      "t": 24868.430999999993,
      "d": 375.00014999999985,
      "v": 80
    },
    {
      "midi": 53,
      "hit": false,
      "t": 25263.167999999994,
      "d": 750.0002999999997,
      "v": 80
    },
    {
      "midi": 58,
      "hit": false,
      "t": 25263.167999999994,
      "d": 750.0002999999997,
      "v": 80
    },
    {
      "midi": 62,
      "hit": false,
      "t": 25263.167999999994,
      "d": 750.0002999999997,
      "v": 80
    },
    {
      "midi": 65,
      "hit": false,
      "t": 25263.167999999994,
      "d": 750.0002999999997,
      "v": 80
    },
    {
      "midi": 41,
      "hit": false,
      "t": 25263.167999999994,
      "d": 1125.0004499999995,
      "v": 80
    },
    {
      "midi": 53,
      "hit": false,
      "t": 26052.641999999993,
      "d": 335.5264500000012,
      "v": 80
    },
    {
      "midi": 58,
      "hit": false,
      "t": 26052.641999999993,
      "d": 750.0002999999997,
      "v": 80
    },
    {
      "midi": 62,
      "hit": false,
      "t": 26052.641999999993,
      "d": 750.0002999999997,
      "v": 80
    },
    {
      "midi": 65,
      "hit": false,
      "t": 26052.641999999993,
      "d": 750.0002999999997,
      "v": 80
    },
    {
      "midi": 53,
      "hit": false,
      "t": 26447.378999999994,
      "d": 355.2632999999987,
      "v": 80
    },
    {
      "midi": 41,
      "hit": false,
      "t": 26447.378999999994,
      "d": 375.00014999999985,
      "v": 80
    },
    {
      "midi": 53,
      "hit": false,
      "t": 26842.115999999995,
      "d": 750.0002999999997,
      "v": 80
    },
    {
      "midi": 58,
      "hit": false,
      "t": 26842.115999999995,
      "d": 750.0002999999997,
      "v": 80
    },
    {
      "midi": 62,
      "hit": false,
      "t": 26842.115999999995,
      "d": 750.0002999999997,
      "v": 80
    },
    {
      "midi": 65,
      "hit": false,
      "t": 26842.115999999995,
      "d": 750.0002999999997,
      "v": 80
    },
    {
      "midi": 41,
      "hit": false,
      "t": 26842.115999999995,
      "d": 1125.0004499999995,
      "v": 80
    },
    {
      "midi": 53,
      "hit": false,
      "t": 27631.589999999993,
      "d": 335.5264500000012,
      "v": 80
    },
    {
      "midi": 58,
      "hit": false,
      "t": 27631.589999999993,
      "d": 750.0002999999997,
      "v": 80
    },
    {
      "midi": 62,
      "hit": false,
      "t": 27631.589999999993,
      "d": 750.0002999999997,
      "v": 80
    },
    {
      "midi": 65,
      "hit": false,
      "t": 27631.589999999993,
      "d": 750.0002999999997,
      "v": 80
    },
    {
      "midi": 53,
      "hit": false,
      "t": 28026.326999999994,
      "d": 355.2632999999987,
      "v": 80
    },
    {
      "midi": 41,
      "hit": false,
      "t": 28026.326999999994,
      "d": 375.00014999999985,
      "v": 80
    },
    {
      "midi": 56,
      "hit": false,
      "t": 28421.063999999995,
      "d": 631.5792000000001,
      "v": 80
    },
    {
      "midi": 60,
      "hit": false,
      "t": 28421.063999999995,
      "d": 631.5792000000001,
      "v": 80
    },
    {
      "midi": 63,
      "hit": false,
      "t": 28421.063999999995,
      "d": 631.5792000000001,
      "v": 80
    },
    {
      "midi": 68,
      "hit": false,
      "t": 28421.063999999995,
      "d": 631.5792000000001,
      "v": 80
    },
    {
      "midi": 44,
      "hit": false,
      "t": 28421.063999999995,
      "d": 947.3687999999966,
      "v": 80
    },
    {
      "midi": 56,
      "hit": false,
      "t": 29210.537999999993,
      "d": 157.8947999999982,
      "v": 80
    },
    {
      "midi": 60,
      "hit": false,
      "t": 29210.537999999993,
      "d": 631.5791999999965,
      "v": 80
    },
    {
      "midi": 63,
      "hit": false,
      "t": 29210.537999999993,
      "d": 631.5791999999965,
      "v": 80
    },
    {
      "midi": 68,
      "hit": false,
      "t": 29210.537999999993,
      "d": 631.5791999999965,
      "v": 80
    },
    {
      "midi": 56,
      "hit": false,
      "t": 29605.27499999999,
      "d": 236.84219999999914,
      "v": 80
    },
    {
      "midi": 44,
      "hit": false,
      "t": 29605.27499999999,
      "d": 315.78960000000006,
      "v": 80
    },
    {
      "midi": 56,
      "hit": false,
      "t": 30000.01199999999,
      "d": 631.5792000000001,
      "v": 80
    },
    {
      "midi": 60,
      "hit": false,
      "t": 30000.01199999999,
      "d": 631.5792000000001,
      "v": 80
    },
    {
      "midi": 63,
      "hit": false,
      "t": 30000.01199999999,
      "d": 631.5792000000001,
      "v": 80
    },
    {
      "midi": 68,
      "hit": false,
      "t": 30000.01199999999,
      "d": 631.5792000000001,
      "v": 80
    },
    {
      "midi": 44,
      "hit": false,
      "t": 30000.01199999999,
      "d": 947.3687999999966,
      "v": 80
    },
    {
      "midi": 56,
      "hit": false,
      "t": 30789.48599999999,
      "d": 157.8947999999982,
      "v": 80
    },
    {
      "midi": 60,
      "hit": false,
      "t": 30789.48599999999,
      "d": 631.5791999999965,
      "v": 80
    },
    {
      "midi": 63,
      "hit": false,
      "t": 30789.48599999999,
      "d": 631.5791999999965,
      "v": 80
    },
    {
      "midi": 68,
      "hit": false,
      "t": 30789.48599999999,
      "d": 631.5791999999965,
      "v": 80
    },
    {
      "midi": 56,
      "hit": false,
      "t": 31184.222999999987,
      "d": 236.84219999999914,
      "v": 80
    },
    {
      "midi": 44,
      "hit": false,
      "t": 31184.222999999987,
      "d": 315.78960000000006,
      "v": 80
    },
    {
      "midi": 58,
      "hit": false,
      "t": 31578.95999999999,
      "d": 631.5792000000001,
      "v": 80
    },
    {
      "midi": 63,
      "hit": false,
      "t": 31578.95999999999,
      "d": 631.5792000000001,
      "v": 80
    },
    {
      "midi": 67,
      "hit": false,
      "t": 31578.95999999999,
      "d": 631.5792000000001,
      "v": 80
    },
    {
      "midi": 70,
      "hit": false,
      "t": 31578.95999999999,
      "d": 631.5792000000001,
      "v": 80
    },
    {
      "midi": 39,
      "hit": false,
      "t": 31578.95999999999,
      "d": 947.3687999999966,
      "v": 80
    },
    {
      "midi": 51,
      "hit": false,
      "t": 31578.95999999999,
      "d": 947.3687999999966,
      "v": 80
    },
    {
      "midi": 58,
      "hit": false,
      "t": 32368.433999999987,
      "d": 631.5792000000001,
      "v": 80
    },
    {
      "midi": 63,
      "hit": false,
      "t": 32368.433999999987,
      "d": 631.5792000000001,
      "v": 80
    },
    {
      "midi": 67,
      "hit": false,
      "t": 32368.433999999987,
      "d": 631.5792000000001,
      "v": 80
    },
    {
      "midi": 70,
      "hit": false,
      "t": 32368.433999999987,
      "d": 631.5792000000001,
      "v": 80
    },
    {
      "midi": 39,
      "hit": false,
      "t": 32763.170999999984,
      "d": 315.78960000000006,
      "v": 80
    },
    {
      "midi": 51,
      "hit": false,
      "t": 32763.170999999984,
      "d": 315.78960000000006,
      "v": 80
    },
    {
      "midi": 58,
      "hit": false,
      "t": 33157.90799999998,
      "d": 631.5792000000001,
      "v": 80
    },
    {
      "midi": 63,
      "hit": false,
      "t": 33157.90799999998,
      "d": 631.5792000000001,
      "v": 80
    },
    {
      "midi": 67,
      "hit": false,
      "t": 33157.90799999998,
      "d": 631.5792000000001,
      "v": 80
    },
    {
      "midi": 70,
      "hit": false,
      "t": 33157.90799999998,
      "d": 631.5792000000001,
      "v": 80
    },
    {
      "midi": 39,
      "hit": false,
      "t": 33157.90799999998,
      "d": 947.3688000000038,
      "v": 80
    },
    {
      "midi": 51,
      "hit": false,
      "t": 33157.90799999998,
      "d": 947.3688000000038,
      "v": 80
    },
    {
      "midi": 58,
      "hit": false,
      "t": 33947.38199999998,
      "d": 631.5792000000001,
      "v": 80
    },
    {
      "midi": 63,
      "hit": false,
      "t": 33947.38199999998,
      "d": 631.5792000000001,
      "v": 80
    },
    {
      "midi": 67,
      "hit": false,
      "t": 33947.38199999998,
      "d": 631.5792000000001,
      "v": 80
    },
    {
      "midi": 70,
      "hit": false,
      "t": 33947.38199999998,
      "d": 631.5792000000001,
      "v": 80
    },
    {
      "midi": 41,
      "hit": false,
      "t": 34342.118999999984,
      "d": 315.7895999999964,
      "v": 80
    },
    {
      "midi": 53,
      "hit": false,
      "t": 34342.118999999984,
      "d": 315.7895999999964,
      "v": 80
    },
    {
      "midi": 58,
      "hit": false,
      "t": 34736.85599999998,
      "d": 631.5792000000001,
      "v": 80
    },
    {
      "midi": 61,
      "hit": false,
      "t": 34736.85599999998,
      "d": 631.5792000000001,
      "v": 80
    },
    {
      "midi": 66,
      "hit": false,
      "t": 34736.85599999998,
      "d": 631.5792000000001,
      "v": 80
    },
    {
      "midi": 70,
      "hit": false,
      "t": 34736.85599999998,
      "d": 631.5792000000001,
      "v": 80
    },
    {
      "midi": 42,
      "hit": false,
      "t": 34736.85599999998,
      "d": 947.3688000000038,
      "v": 80
    },
    {
      "midi": 54,
      "hit": false,
      "t": 34736.85599999998,
      "d": 947.3688000000038,
      "v": 80
    },
    {
      "midi": 58,
      "hit": false,
      "t": 35526.32999999998,
      "d": 631.5792000000001,
      "v": 80
    },
    {
      "midi": 61,
      "hit": false,
      "t": 35526.32999999998,
      "d": 631.5792000000001,
      "v": 80
    },
    {
      "midi": 66,
      "hit": false,
      "t": 35526.32999999998,
      "d": 631.5792000000001,
      "v": 80
    },
    {
      "midi": 70,
      "hit": false,
      "t": 35526.32999999998,
      "d": 631.5792000000001,
      "v": 80
    },
    {
      "midi": 42,
      "hit": false,
      "t": 35921.06699999998,
      "d": 315.7895999999964,
      "v": 80
    },
    {
      "midi": 54,
      "hit": false,
      "t": 35921.06699999998,
      "d": 315.7895999999964,
      "v": 80
    },
    {
      "midi": 58,
      "hit": false,
      "t": 36315.803999999975,
      "d": 631.5792000000001,
      "v": 80
    },
    {
      "midi": 61,
      "hit": false,
      "t": 36315.803999999975,
      "d": 631.5792000000001,
      "v": 80
    },
    {
      "midi": 66,
      "hit": false,
      "t": 36315.803999999975,
      "d": 631.5792000000001,
      "v": 80
    },
    {
      "midi": 70,
      "hit": false,
      "t": 36315.803999999975,
      "d": 631.5792000000001,
      "v": 80
    },
    {
      "midi": 42,
      "hit": false,
      "t": 36315.803999999975,
      "d": 947.3688000000038,
      "v": 80
    },
    {
      "midi": 54,
      "hit": false,
      "t": 36315.803999999975,
      "d": 947.3688000000038,
      "v": 80
    },
    {
      "midi": 58,
      "hit": false,
      "t": 37105.27799999998,
      "d": 631.5792000000001,
      "v": 80
    },
    {
      "midi": 61,
      "hit": false,
      "t": 37105.27799999998,
      "d": 631.5792000000001,
      "v": 80
    },
    {
      "midi": 66,
      "hit": false,
      "t": 37105.27799999998,
      "d": 631.5792000000001,
      "v": 80
    },
    {
      "midi": 70,
      "hit": false,
      "t": 37105.27799999998,
      "d": 631.5792000000001,
      "v": 80
    },
    {
      "midi": 42,
      "hit": false,
      "t": 37500.01499999998,
      "d": 315.7895999999964,
      "v": 80
    },
    {
      "midi": 54,
      "hit": false,
      "t": 37500.01499999998,
      "d": 315.7895999999964,
      "v": 80
    },
    {
      "midi": 61,
      "hit": false,
      "t": 37894.75199999997,
      "d": 631.5792000000001,
      "v": 80
    },
    {
      "midi": 65,
      "hit": false,
      "t": 37894.75199999997,
      "d": 631.5792000000001,
      "v": 80
    },
    {
      "midi": 68,
      "hit": false,
      "t": 37894.75199999997,
      "d": 631.5792000000001,
      "v": 80
    },
    {
      "midi": 37,
      "hit": false,
      "t": 37894.75199999997,
      "d": 947.3688000000038,
      "v": 80
    },
    {
      "midi": 49,
      "hit": false,
      "t": 37894.75199999997,
      "d": 947.3688000000038,
      "v": 80
    },
    {
      "midi": 61,
      "hit": false,
      "t": 38684.22599999997,
      "d": 631.5792000000001,
      "v": 80
    },
    {
      "midi": 65,
      "hit": false,
      "t": 38684.22599999997,
      "d": 631.5792000000001,
      "v": 80
    },
    {
      "midi": 68,
      "hit": false,
      "t": 38684.22599999997,
      "d": 631.5792000000001,
      "v": 80
    },
    {
      "midi": 37,
      "hit": false,
      "t": 39078.962999999974,
      "d": 315.7895999999964,
      "v": 80
    },
    {
      "midi": 49,
      "hit": false,
      "t": 39078.962999999974,
      "d": 315.7895999999964,
      "v": 80
    },
    {
      "midi": 61,
      "hit": false,
      "t": 39473.69999999997,
      "d": 631.5792000000001,
      "v": 80
    },
    {
      "midi": 65,
      "hit": false,
      "t": 39473.69999999997,
      "d": 631.5792000000001,
      "v": 80
    },
    {
      "midi": 68,
      "hit": false,
      "t": 39473.69999999997,
      "d": 631.5792000000001,
      "v": 80
    },
    {
      "midi": 37,
      "hit": false,
      "t": 39473.69999999997,
      "d": 947.3688000000038,
      "v": 80
    },
    {
      "midi": 49,
      "hit": false,
      "t": 39473.69999999997,
      "d": 947.3688000000038,
      "v": 80
    },
    {
      "midi": 61,
      "hit": false,
      "t": 40263.17399999997,
      "d": 631.5792000000001,
      "v": 80
    },
    {
      "midi": 65,
      "hit": false,
      "t": 40263.17399999997,
      "d": 631.5792000000001,
      "v": 80
    },
    {
      "midi": 68,
      "hit": false,
      "t": 40263.17399999997,
      "d": 631.5792000000001,
      "v": 80
    },
    {
      "midi": 37,
      "hit": false,
      "t": 40657.91099999997,
      "d": 315.7895999999964,
      "v": 80
    },
    {
      "midi": 49,
      "hit": false,
      "t": 40657.91099999997,
      "d": 315.7895999999964,
      "v": 80
    },
    {
      "midi": 61,
      "hit": false,
      "t": 41052.647999999965,
      "d": 631.5792000000001,
      "v": 80
    },
    {
      "midi": 65,
      "hit": false,
      "t": 41052.647999999965,
      "d": 631.5792000000001,
      "v": 80
    },
    {
      "midi": 68,
      "hit": false,
      "t": 41052.647999999965,
      "d": 631.5792000000001,
      "v": 80
    },
    {
      "midi": 37,
      "hit": false,
      "t": 41052.647999999965,
      "d": 947.3688000000038,
      "v": 80
    },
    {
      "midi": 49,
      "hit": false,
      "t": 41052.647999999965,
      "d": 947.3688000000038,
      "v": 80
    },
    {
      "midi": 61,
      "hit": false,
      "t": 41842.12199999997,
      "d": 631.5792000000001,
      "v": 80
    },
    {
      "midi": 65,
      "hit": false,
      "t": 41842.12199999997,
      "d": 631.5792000000001,
      "v": 80
    },
    {
      "midi": 68,
      "hit": false,
      "t": 41842.12199999997,
      "d": 631.5792000000001,
      "v": 80
    },
    {
      "midi": 37,
      "hit": false,
      "t": 42236.85899999997,
      "d": 315.7895999999964,
      "v": 80
    },
    {
      "midi": 49,
      "hit": false,
      "t": 42236.85899999997,
      "d": 315.7895999999964,
      "v": 80
    },
    {
      "midi": 61,
      "hit": false,
      "t": 42631.59599999996,
      "d": 631.5792000000001,
      "v": 80
    },
    {
      "midi": 65,
      "hit": false,
      "t": 42631.59599999996,
      "d": 631.5792000000001,
      "v": 80
    },
    {
      "midi": 68,
      "hit": false,
      "t": 42631.59599999996,
      "d": 631.5792000000001,
      "v": 80
    },
    {
      "midi": 37,
      "hit": false,
      "t": 42631.59599999996,
      "d": 947.3688000000038,
      "v": 80
    },
    {
      "midi": 49,
      "hit": false,
      "t": 42631.59599999996,
      "d": 947.3688000000038,
      "v": 80
    },
    {
      "midi": 61,
      "hit": false,
      "t": 43421.06999999996,
      "d": 631.5792000000001,
      "v": 80
    },
    {
      "midi": 65,
      "hit": false,
      "t": 43421.06999999996,
      "d": 631.5792000000001,
      "v": 80
    },
    {
      "midi": 68,
      "hit": false,
      "t": 43421.06999999996,
      "d": 631.5792000000001,
      "v": 80
    },
    {
      "midi": 37,
      "hit": false,
      "t": 43815.806999999964,
      "d": 315.7895999999964,
      "v": 80
    },
    {
      "midi": 49,
      "hit": false,
      "t": 43815.806999999964,
      "d": 315.7895999999964,
      "v": 80
    },
    {
      "midi": 58,
      "hit": false,
      "t": 44210.54399999996,
      "d": 631.5792000000001,
      "v": 80
    },
    {
      "midi": 60,
      "hit": false,
      "t": 44210.54399999996,
      "d": 631.5792000000001,
      "v": 80
    },
    {
      "midi": 65,
      "hit": false,
      "t": 44210.54399999996,
      "d": 631.5792000000001,
      "v": 80
    },
    {
      "midi": 67,
      "hit": false,
      "t": 44210.54399999996,
      "d": 631.5792000000001,
      "v": 80
    },
    {
      "midi": 36,
      "hit": false,
      "t": 44210.54399999996,
      "d": 947.3688000000038,
      "v": 80
    },
    {
      "midi": 48,
      "hit": false,
      "t": 44210.54399999996,
      "d": 947.3688000000038,
      "v": 80
    },
    {
      "midi": 58,
      "hit": false,
      "t": 45000.01799999996,
      "d": 631.5792000000001,
      "v": 80
    },
    {
      "midi": 60,
      "hit": false,
      "t": 45000.01799999996,
      "d": 631.5792000000001,
      "v": 80
    },
    {
      "midi": 65,
      "hit": false,
      "t": 45000.01799999996,
      "d": 631.5792000000001,
      "v": 80
    },
    {
      "midi": 67,
      "hit": false,
      "t": 45000.01799999996,
      "d": 631.5792000000001,
      "v": 80
    },
    {
      "midi": 36,
      "hit": false,
      "t": 45394.75499999996,
      "d": 315.7895999999964,
      "v": 80
    },
    {
      "midi": 48,
      "hit": false,
      "t": 45394.75499999996,
      "d": 315.7895999999964,
      "v": 80
    },
    {
      "midi": 58,
      "hit": false,
      "t": 45789.491999999955,
      "d": 631.5792000000001,
      "v": 80
    },
    {
      "midi": 60,
      "hit": false,
      "t": 45789.491999999955,
      "d": 631.5792000000001,
      "v": 80
    },
    {
      "midi": 64,
      "hit": false,
      "t": 45789.491999999955,
      "d": 631.5792000000001,
      "v": 80
    },
    {
      "midi": 67,
      "hit": false,
      "t": 45789.491999999955,
      "d": 631.5792000000001,
      "v": 80
    },
    {
      "midi": 36,
      "hit": false,
      "t": 45789.491999999955,
      "d": 947.3688000000038,
      "v": 80
    },
    {
      "midi": 48,
      "hit": false,
      "t": 45789.491999999955,
      "d": 947.3688000000038,
      "v": 80
    },
    {
      "midi": 58,
      "hit": false,
      "t": 46578.96599999996,
      "d": 631.5792000000001,
      "v": 80
    },
    {
      "midi": 60,
      "hit": false,
      "t": 46578.96599999996,
      "d": 631.5792000000001,
      "v": 80
    },
    {
      "midi": 64,
      "hit": false,
      "t": 46578.96599999996,
      "d": 631.5792000000001,
      "v": 80
    },
    {
      "midi": 67,
      "hit": false,
      "t": 46578.96599999996,
      "d": 631.5792000000001,
      "v": 80
    },
    {
      "midi": 36,
      "hit": false,
      "t": 46973.70299999996,
      "d": 315.7895999999964,
      "v": 80
    },
    {
      "midi": 48,
      "hit": false,
      "t": 46973.70299999996,
      "d": 315.7895999999964,
      "v": 80
    },
    {
      "midi": 53,
      "hit": false,
      "t": 47368.43999999995,
      "d": 750.0002999999997,
      "v": 80
    },
    {
      "midi": 56,
      "hit": false,
      "t": 47368.43999999995,
      "d": 750.0002999999997,
      "v": 80
    },
    {
      "midi": 60,
      "hit": false,
      "t": 47368.43999999995,
      "d": 750.0002999999997,
      "v": 80
    },
    {
      "midi": 65,
      "hit": false,
      "t": 47368.43999999995,
      "d": 750.0002999999997,
      "v": 80
    },
    {
      "midi": 41,
      "hit": false,
      "t": 47368.43999999995,
      "d": 1125.0004499999995,
      "v": 80
    },
    {
      "midi": 53,
      "hit": false,
      "t": 48157.91399999995,
      "d": 335.52644999999757,
      "v": 80
    },
    {
      "midi": 56,
      "hit": false,
      "t": 48157.91399999995,
      "d": 750.0002999999997,
      "v": 80
    },
    {
      "midi": 60,
      "hit": false,
      "t": 48157.91399999995,
      "d": 750.0002999999997,
      "v": 80
    },
    {
      "midi": 65,
      "hit": false,
      "t": 48157.91399999995,
      "d": 750.0002999999997,
      "v": 80
    },
    {
      "midi": 53,
      "hit": false,
      "t": 48552.650999999954,
      "d": 355.2632999999987,
      "v": 80
    },
    {
      "midi": 41,
      "hit": false,
      "t": 48552.650999999954,
      "d": 375.00014999999985,
      "v": 80
    },
    {
      "midi": 53,
      "hit": false,
      "t": 48947.387999999955,
      "d": 750.0002999999997,
      "v": 80
    },
    {
      "midi": 56,
      "hit": false,
      "t": 48947.387999999955,
      "d": 750.0002999999997,
      "v": 80
    },
    {
      "midi": 60,
      "hit": false,
      "t": 48947.387999999955,
      "d": 750.0002999999997,
      "v": 80
    },
    {
      "midi": 65,
      "hit": false,
      "t": 48947.387999999955,
      "d": 750.0002999999997,
      "v": 80
    },
    {
      "midi": 41,
      "hit": false,
      "t": 48947.387999999955,
      "d": 1125.0004499999995,
      "v": 80
    },
    {
      "midi": 53,
      "hit": false,
      "t": 49736.86199999996,
      "d": 335.52644999999757,
      "v": 80
    },
    {
      "midi": 56,
      "hit": false,
      "t": 49736.86199999996,
      "d": 750.0002999999997,
      "v": 80
    },
    {
      "midi": 60,
      "hit": false,
      "t": 49736.86199999996,
      "d": 750.0002999999997,
      "v": 80
    },
    {
      "midi": 65,
      "hit": false,
      "t": 49736.86199999996,
      "d": 750.0002999999997,
      "v": 80
    },
    {
      "midi": 53,
      "hit": false,
      "t": 50131.59899999996,
      "d": 355.2632999999987,
      "v": 80
    },
    {
      "midi": 41,
      "hit": false,
      "t": 50131.59899999996,
      "d": 375.00014999999985,
      "v": 80
    },
    {
      "midi": 55,
      "hit": false,
      "t": 50526.33599999996,
      "d": 750.0002999999997,
      "v": 80
    },
    {
      "midi": 58,
      "hit": false,
      "t": 50526.33599999996,
      "d": 750.0002999999997,
      "v": 80
    },
    {
      "midi": 63,
      "hit": false,
      "t": 50526.33599999996,
      "d": 750.0002999999997,
      "v": 80
    },
    {
      "midi": 65,
      "hit": false,
      "t": 50526.33599999996,
      "d": 750.0002999999997,
      "v": 80
    },
    {
      "midi": 41,
      "hit": false,
      "t": 50526.33599999996,
      "d": 1125.0004499999995,
      "v": 80
    },
    {
      "midi": 53,
      "hit": false,
      "t": 50526.33599999996,
      "d": 1125.0004499999995,
      "v": 80
    },
    {
      "midi": 55,
      "hit": false,
      "t": 51315.80999999996,
      "d": 750.0002999999997,
      "v": 80
    },
    {
      "midi": 58,
      "hit": false,
      "t": 51315.80999999996,
      "d": 750.0002999999997,
      "v": 80
    },
    {
      "midi": 63,
      "hit": false,
      "t": 51315.80999999996,
      "d": 750.0002999999997,
      "v": 80
    },
    {
      "midi": 65,
      "hit": false,
      "t": 51315.80999999996,
      "d": 750.0002999999997,
      "v": 80
    },
    {
      "midi": 41,
      "hit": false,
      "t": 51710.54699999996,
      "d": 375.00014999999985,
      "v": 80
    },
    {
      "midi": 53,
      "hit": false,
      "t": 51710.54699999996,
      "d": 375.00014999999985,
      "v": 80
    },
    {
      "midi": 55,
      "hit": false,
      "t": 52105.28399999996,
      "d": 750.0002999999997,
      "v": 80
    },
    {
      "midi": 58,
      "hit": false,
      "t": 52105.28399999996,
      "d": 750.0002999999997,
      "v": 80
    },
    {
      "midi": 63,
      "hit": false,
      "t": 52105.28399999996,
      "d": 750.0002999999997,
      "v": 80
    },
    {
      "midi": 65,
      "hit": false,
      "t": 52105.28399999996,
      "d": 750.0002999999997,
      "v": 80
    },
    {
      "midi": 41,
      "hit": false,
      "t": 52105.28399999996,
      "d": 1125.0004499999995,
      "v": 80
    },
    {
      "midi": 53,
      "hit": false,
      "t": 52105.28399999996,
      "d": 1125.0004499999995,
      "v": 80
    },
    {
      "midi": 55,
      "hit": false,
      "t": 52894.757999999965,
      "d": 750.0002999999997,
      "v": 80
    },
    {
      "midi": 58,
      "hit": false,
      "t": 52894.757999999965,
      "d": 750.0002999999997,
      "v": 80
    },
    {
      "midi": 63,
      "hit": false,
      "t": 52894.757999999965,
      "d": 750.0002999999997,
      "v": 80
    },
    {
      "midi": 65,
      "hit": false,
      "t": 52894.757999999965,
      "d": 750.0002999999997,
      "v": 80
    },
    {
      "midi": 41,
      "hit": false,
      "t": 53289.494999999966,
      "d": 375.00014999999985,
      "v": 80
    },
    {
      "midi": 53,
      "hit": false,
      "t": 53289.494999999966,
      "d": 375.00014999999985,
      "v": 80
    },
    {
      "midi": 53,
      "hit": false,
      "t": 53684.23199999997,
      "d": 750.0002999999997,
      "v": 80
    },
    {
      "midi": 56,
      "hit": false,
      "t": 53684.23199999997,
      "d": 750.0002999999997,
      "v": 80
    },
    {
      "midi": 60,
      "hit": false,
      "t": 53684.23199999997,
      "d": 750.0002999999997,
      "v": 80
    },
    {
      "midi": 63,
      "hit": false,
      "t": 53684.23199999997,
      "d": 750.0002999999997,
      "v": 80
    },
    {
      "midi": 65,
      "hit": false,
      "t": 53684.23199999997,
      "d": 750.0002999999997,
      "v": 80
    },
    {
      "midi": 41,
      "hit": false,
      "t": 53684.23199999997,
      "d": 1125.0004499999995,
      "v": 80
    },
    {
      "midi": 53,
      "hit": false,
      "t": 54473.70599999997,
      "d": 335.52644999999757,
      "v": 80
    },
    {
      "midi": 56,
      "hit": false,
      "t": 54473.70599999997,
      "d": 750.0002999999997,
      "v": 80
    },
    {
      "midi": 60,
      "hit": false,
      "t": 54473.70599999997,
      "d": 750.0002999999997,
      "v": 80
    },
    {
      "midi": 63,
      "hit": false,
      "t": 54473.70599999997,
      "d": 750.0002999999997,
      "v": 80
    },
    {
      "midi": 65,
      "hit": false,
      "t": 54473.70599999997,
      "d": 750.0002999999997,
      "v": 80
    },
    {
      "midi": 53,
      "hit": false,
      "t": 54868.44299999997,
      "d": 355.2632999999987,
      "v": 80
    },
    {
      "midi": 41,
      "hit": false,
      "t": 54868.44299999997,
      "d": 375.00014999999985,
      "v": 80
    },
    {
      "midi": 53,
      "hit": false,
      "t": 55263.17999999997,
      "d": 750.0002999999997,
      "v": 80
    },
    {
      "midi": 56,
      "hit": false,
      "t": 55263.17999999997,
      "d": 750.0002999999997,
      "v": 80
    },
    {
      "midi": 60,
      "hit": false,
      "t": 55263.17999999997,
      "d": 750.0002999999997,
      "v": 80
    },
    {
      "midi": 63,
      "hit": false,
      "t": 55263.17999999997,
      "d": 750.0002999999997,
      "v": 80
    },
    {
      "midi": 65,
      "hit": false,
      "t": 55263.17999999997,
      "d": 750.0002999999997,
      "v": 80
    },
    {
      "midi": 41,
      "hit": false,
      "t": 55263.17999999997,
      "d": 1125.0004499999995,
      "v": 80
    },
    {
      "midi": 53,
      "hit": false,
      "t": 56052.65399999997,
      "d": 335.52644999999757,
      "v": 80
    },
    {
      "midi": 56,
      "hit": false,
      "t": 56052.65399999997,
      "d": 750.0002999999997,
      "v": 80
    },
    {
      "midi": 60,
      "hit": false,
      "t": 56052.65399999997,
      "d": 750.0002999999997,
      "v": 80
    },
    {
      "midi": 63,
      "hit": false,
      "t": 56052.65399999997,
      "d": 750.0002999999997,
      "v": 80
    },
    {
      "midi": 65,
      "hit": false,
      "t": 56052.65399999997,
      "d": 750.0002999999997,
      "v": 80
    },
    {
      "midi": 53,
      "hit": false,
      "t": 56447.390999999974,
      "d": 355.2632999999987,
      "v": 80
    },
    {
      "midi": 41,
      "hit": false,
      "t": 56447.390999999974,
      "d": 375.00014999999985,
      "v": 80
    },
    {
      "midi": 53,
      "hit": false,
      "t": 56842.127999999975,
      "d": 750.0002999999997,
      "v": 80
    },
    {
      "midi": 58,
      "hit": false,
      "t": 56842.127999999975,
      "d": 750.0002999999997,
      "v": 80
    },
    {
      "midi": 62,
      "hit": false,
      "t": 56842.127999999975,
      "d": 750.0002999999997,
      "v": 80
    },
    {
      "midi": 65,
      "hit": false,
      "t": 56842.127999999975,
      "d": 750.0002999999997,
      "v": 80
    },
    {
      "midi": 41,
      "hit": false,
      "t": 56842.127999999975,
      "d": 1125.0004499999995,
      "v": 80
    },
    {
      "midi": 53,
      "hit": false,
      "t": 57631.60199999998,
      "d": 335.52644999999757,
      "v": 80
    },
    {
      "midi": 58,
      "hit": false,
      "t": 57631.60199999998,
      "d": 750.0002999999997,
      "v": 80
    },
    {
      "midi": 62,
      "hit": false,
      "t": 57631.60199999998,
      "d": 750.0002999999997,
      "v": 80
    },
    {
      "midi": 65,
      "hit": false,
      "t": 57631.60199999998,
      "d": 750.0002999999997,
      "v": 80
    },
    {
      "midi": 53,
      "hit": false,
      "t": 58026.33899999998,
      "d": 355.2632999999987,
      "v": 80
    },
    {
      "midi": 41,
      "hit": false,
      "t": 58026.33899999998,
      "d": 375.00014999999985,
      "v": 80
    },
    {
      "midi": 53,
      "hit": false,
      "t": 58421.07599999998,
      "d": 750.0002999999997,
      "v": 80
    },
    {
      "midi": 58,
      "hit": false,
      "t": 58421.07599999998,
      "d": 750.0002999999997,
      "v": 80
    },
    {
      "midi": 62,
      "hit": false,
      "t": 58421.07599999998,
      "d": 750.0002999999997,
      "v": 80
    },
    {
      "midi": 65,
      "hit": false,
      "t": 58421.07599999998,
      "d": 750.0002999999997,
      "v": 80
    },
    {
      "midi": 41,
      "hit": false,
      "t": 58421.07599999998,
      "d": 1125.0004499999995,
      "v": 80
    },
    {
      "midi": 53,
      "hit": false,
      "t": 59210.54999999998,
      "d": 335.52644999999757,
      "v": 80
    },
    {
      "midi": 58,
      "hit": false,
      "t": 59210.54999999998,
      "d": 750.0002999999997,
      "v": 80
    },
    {
      "midi": 62,
      "hit": false,
      "t": 59210.54999999998,
      "d": 750.0002999999997,
      "v": 80
    },
    {
      "midi": 65,
      "hit": false,
      "t": 59210.54999999998,
      "d": 750.0002999999997,
      "v": 80
    },
    {
      "midi": 53,
      "hit": false,
      "t": 59605.28699999998,
      "d": 355.2632999999987,
      "v": 80
    },
    {
      "midi": 41,
      "hit": false,
      "t": 59605.28699999998,
      "d": 375.00014999999985,
      "v": 80
    },
    {
      "midi": 53,
      "hit": false,
      "t": 60000.02399999998,
      "d": 750.0002999999997,
      "v": 80
    },
    {
      "midi": 56,
      "hit": false,
      "t": 60000.02399999998,
      "d": 750.0002999999997,
      "v": 80
    },
    {
      "midi": 60,
      "hit": false,
      "t": 60000.02399999998,
      "d": 750.0002999999997,
      "v": 80
    },
    {
      "midi": 65,
      "hit": false,
      "t": 60000.02399999998,
      "d": 750.0002999999997,
      "v": 80
    },
    {
      "midi": 41,
      "hit": false,
      "t": 60000.02399999998,
      "d": 1125.0004499999995,
      "v": 80
    },
    {
      "midi": 53,
      "hit": false,
      "t": 60789.497999999985,
      "d": 335.52644999999757,
      "v": 80
    },
    {
      "midi": 56,
      "hit": false,
      "t": 60789.497999999985,
      "d": 750.0002999999997,
      "v": 80
    },
    {
      "midi": 60,
      "hit": false,
      "t": 60789.497999999985,
      "d": 750.0002999999997,
      "v": 80
    },
    {
      "midi": 65,
      "hit": false,
      "t": 60789.497999999985,
      "d": 750.0002999999997,
      "v": 80
    },
    {
      "midi": 53,
      "hit": false,
      "t": 61184.234999999986,
      "d": 355.2632999999987,
      "v": 80
    },
    {
      "midi": 41,
      "hit": false,
      "t": 61184.234999999986,
      "d": 375.00014999999985,
      "v": 80
    },
    {
      "midi": 53,
      "hit": false,
      "t": 61578.97199999999,
      "d": 750.0002999999997,
      "v": 80
    },
    {
      "midi": 56,
      "hit": false,
      "t": 61578.97199999999,
      "d": 750.0002999999997,
      "v": 80
    },
    {
      "midi": 60,
      "hit": false,
      "t": 61578.97199999999,
      "d": 750.0002999999997,
      "v": 80
    },
    {
      "midi": 65,
      "hit": false,
      "t": 61578.97199999999,
      "d": 750.0002999999997,
      "v": 80
    },
    {
      "midi": 41,
      "hit": false,
      "t": 61578.97199999999,
      "d": 1125.0004499999995,
      "v": 80
    },
    {
      "midi": 53,
      "hit": false,
      "t": 62368.44599999999,
      "d": 335.52644999999757,
      "v": 80
    },
    {
      "midi": 56,
      "hit": false,
      "t": 62368.44599999999,
      "d": 750.0002999999997,
      "v": 80
    },
    {
      "midi": 60,
      "hit": false,
      "t": 62368.44599999999,
      "d": 750.0002999999997,
      "v": 80
    },
    {
      "midi": 65,
      "hit": false,
      "t": 62368.44599999999,
      "d": 750.0002999999997,
      "v": 80
    },
    {
      "midi": 53,
      "hit": false,
      "t": 62763.18299999999,
      "d": 355.2632999999987,
      "v": 80
    },
    {
      "midi": 41,
      "hit": false,
      "t": 62763.18299999999,
      "d": 375.00014999999985,
      "v": 80
    },
    {
      "midi": 55,
      "hit": false,
      "t": 63157.91999999999,
      "d": 750.0002999999997,
      "v": 80
    },
    {
      "midi": 58,
      "hit": false,
      "t": 63157.91999999999,
      "d": 750.0002999999997,
      "v": 80
    },
    {
      "midi": 63,
      "hit": false,
      "t": 63157.91999999999,
      "d": 750.0002999999997,
      "v": 80
    },
    {
      "midi": 65,
      "hit": false,
      "t": 63157.91999999999,
      "d": 750.0002999999997,
      "v": 80
    },
    {
      "midi": 41,
      "hit": false,
      "t": 63157.91999999999,
      "d": 1125.0004499999995,
      "v": 80
    },
    {
      "midi": 53,
      "hit": false,
      "t": 63157.91999999999,
      "d": 1125.0004499999995,
      "v": 80
    },
    {
      "midi": 55,
      "hit": false,
      "t": 63947.39399999999,
      "d": 750.0002999999997,
      "v": 80
    },
    {
      "midi": 58,
      "hit": false,
      "t": 63947.39399999999,
      "d": 750.0002999999997,
      "v": 80
    },
    {
      "midi": 63,
      "hit": false,
      "t": 63947.39399999999,
      "d": 750.0002999999997,
      "v": 80
    },
    {
      "midi": 65,
      "hit": false,
      "t": 63947.39399999999,
      "d": 750.0002999999997,
      "v": 80
    },
    {
      "midi": 41,
      "hit": false,
      "t": 64342.130999999994,
      "d": 375.00014999999985,
      "v": 80
    },
    {
      "midi": 53,
      "hit": false,
      "t": 64342.130999999994,
      "d": 375.00014999999985,
      "v": 80
    },
    {
      "midi": 55,
      "hit": false,
      "t": 64736.867999999995,
      "d": 750.0002999999997,
      "v": 80
    },
    {
      "midi": 58,
      "hit": false,
      "t": 64736.867999999995,
      "d": 750.0002999999997,
      "v": 80
    },
    {
      "midi": 63,
      "hit": false,
      "t": 64736.867999999995,
      "d": 750.0002999999997,
      "v": 80
    },
    {
      "midi": 65,
      "hit": false,
      "t": 64736.867999999995,
      "d": 750.0002999999997,
      "v": 80
    },
    {
      "midi": 41,
      "hit": false,
      "t": 64736.867999999995,
      "d": 1125.0004499999995,
      "v": 80
    },
    {
      "midi": 53,
      "hit": false,
      "t": 64736.867999999995,
      "d": 1125.0004499999995,
      "v": 80
    },
    {
      "midi": 55,
      "hit": false,
      "t": 65526.342,
      "d": 750.000300000007,
      "v": 80
    },
    {
      "midi": 58,
      "hit": false,
      "t": 65526.342,
      "d": 750.000300000007,
      "v": 80
    },
    {
      "midi": 63,
      "hit": false,
      "t": 65526.342,
      "d": 750.000300000007,
      "v": 80
    },
    {
      "midi": 65,
      "hit": false,
      "t": 65526.342,
      "d": 750.000300000007,
      "v": 80
    },
    {
      "midi": 41,
      "hit": false,
      "t": 65921.079,
      "d": 375.0001500000071,
      "v": 80
    },
    {
      "midi": 53,
      "hit": false,
      "t": 65921.079,
      "d": 375.0001500000071,
      "v": 80
    },
    {
      "midi": 53,
      "hit": false,
      "t": 66315.816,
      "d": 750.0002999999997,
      "v": 80
    },
    {
      "midi": 56,
      "hit": false,
      "t": 66315.816,
      "d": 750.0002999999997,
      "v": 80
    },
    {
      "midi": 60,
      "hit": false,
      "t": 66315.816,
      "d": 750.0002999999997,
      "v": 80
    },
    {
      "midi": 63,
      "hit": false,
      "t": 66315.816,
      "d": 750.0002999999997,
      "v": 80
    },
    {
      "midi": 65,
      "hit": false,
      "t": 66315.816,
      "d": 750.0002999999997,
      "v": 80
    },
    {
      "midi": 41,
      "hit": false,
      "t": 66315.816,
      "d": 1125.0004500000068,
      "v": 80
    },
    {
      "midi": 53,
      "hit": false,
      "t": 67105.29000000001,
      "d": 335.52645000000484,
      "v": 80
    },
    {
      "midi": 56,
      "hit": false,
      "t": 67105.29000000001,
      "d": 750.0003000000142,
      "v": 80
    },
    {
      "midi": 60,
      "hit": false,
      "t": 67105.29000000001,
      "d": 750.0003000000142,
      "v": 80
    },
    {
      "midi": 63,
      "hit": false,
      "t": 67105.29000000001,
      "d": 750.0003000000142,
      "v": 80
    },
    {
      "midi": 65,
      "hit": false,
      "t": 67105.29000000001,
      "d": 750.0003000000142,
      "v": 80
    },
    {
      "midi": 53,
      "hit": false,
      "t": 67500.02700000002,
      "d": 355.263300000006,
      "v": 80
    },
    {
      "midi": 41,
      "hit": false,
      "t": 67500.02700000002,
      "d": 375.0001500000071,
      "v": 80
    },
    {
      "midi": 53,
      "hit": false,
      "t": 67894.76400000002,
      "d": 750.0002999999997,
      "v": 80
    },
    {
      "midi": 56,
      "hit": false,
      "t": 67894.76400000002,
      "d": 750.0002999999997,
      "v": 80
    },
    {
      "midi": 60,
      "hit": false,
      "t": 67894.76400000002,
      "d": 750.0002999999997,
      "v": 80
    },
    {
      "midi": 63,
      "hit": false,
      "t": 67894.76400000002,
      "d": 750.0002999999997,
      "v": 80
    },
    {
      "midi": 65,
      "hit": false,
      "t": 67894.76400000002,
      "d": 750.0002999999997,
      "v": 80
    },
    {
      "midi": 41,
      "hit": false,
      "t": 67894.76400000002,
      "d": 1125.0004500000068,
      "v": 80
    },
    {
      "midi": 53,
      "hit": false,
      "t": 68684.23800000003,
      "d": 335.52645000000484,
      "v": 80
    },
    {
      "midi": 56,
      "hit": false,
      "t": 68684.23800000003,
      "d": 750.0003000000142,
      "v": 80
    },
    {
      "midi": 60,
      "hit": false,
      "t": 68684.23800000003,
      "d": 750.0003000000142,
      "v": 80
    },
    {
      "midi": 63,
      "hit": false,
      "t": 68684.23800000003,
      "d": 750.0003000000142,
      "v": 80
    },
    {
      "midi": 65,
      "hit": false,
      "t": 68684.23800000003,
      "d": 750.0003000000142,
      "v": 80
    },
    {
      "midi": 53,
      "hit": false,
      "t": 69078.97500000003,
      "d": 355.263300000006,
      "v": 80
    },
    {
      "midi": 41,
      "hit": false,
      "t": 69078.97500000003,
      "d": 375.0001500000071,
      "v": 80
    },
    {
      "midi": 53,
      "hit": false,
      "t": 69473.71200000004,
      "d": 750.0002999999997,
      "v": 80
    },
    {
      "midi": 58,
      "hit": false,
      "t": 69473.71200000004,
      "d": 750.0002999999997,
      "v": 80
    },
    {
      "midi": 62,
      "hit": false,
      "t": 69473.71200000004,
      "d": 750.0002999999997,
      "v": 80
    },
    {
      "midi": 65,
      "hit": false,
      "t": 69473.71200000004,
      "d": 750.0002999999997,
      "v": 80
    },
    {
      "midi": 41,
      "hit": false,
      "t": 69473.71200000004,
      "d": 1125.0004500000068,
      "v": 80
    },
    {
      "midi": 53,
      "hit": false,
      "t": 70263.18600000005,
      "d": 335.52645000000484,
      "v": 80
    },
    {
      "midi": 58,
      "hit": false,
      "t": 70263.18600000005,
      "d": 750.0003000000142,
      "v": 80
    },
    {
      "midi": 62,
      "hit": false,
      "t": 70263.18600000005,
      "d": 750.0003000000142,
      "v": 80
    },
    {
      "midi": 65,
      "hit": false,
      "t": 70263.18600000005,
      "d": 750.0003000000142,
      "v": 80
    },
    {
      "midi": 53,
      "hit": false,
      "t": 70657.92300000005,
      "d": 355.263300000006,
      "v": 80
    },
    {
      "midi": 41,
      "hit": false,
      "t": 70657.92300000005,
      "d": 375.0001500000071,
      "v": 80
    },
    {
      "midi": 53,
      "hit": false,
      "t": 71052.66000000006,
      "d": 750.0002999999997,
      "v": 80
    },
    {
      "midi": 58,
      "hit": false,
      "t": 71052.66000000006,
      "d": 750.0002999999997,
      "v": 80
    },
    {
      "midi": 62,
      "hit": false,
      "t": 71052.66000000006,
      "d": 750.0002999999997,
      "v": 80
    },
    {
      "midi": 65,
      "hit": false,
      "t": 71052.66000000006,
      "d": 750.0002999999997,
      "v": 80
    },
    {
      "midi": 41,
      "hit": false,
      "t": 71052.66000000006,
      "d": 1125.0004500000068,
      "v": 80
    },
    {
      "midi": 53,
      "hit": false,
      "t": 71842.13400000006,
      "d": 335.52645000000484,
      "v": 80
    },
    {
      "midi": 58,
      "hit": false,
      "t": 71842.13400000006,
      "d": 750.0003000000142,
      "v": 80
    },
    {
      "midi": 62,
      "hit": false,
      "t": 71842.13400000006,
      "d": 750.0003000000142,
      "v": 80
    },
    {
      "midi": 65,
      "hit": false,
      "t": 71842.13400000006,
      "d": 750.0003000000142,
      "v": 80
    },
    {
      "midi": 53,
      "hit": false,
      "t": 72236.87100000007,
      "d": 355.263300000006,
      "v": 80
    },
    {
      "midi": 41,
      "hit": false,
      "t": 72236.87100000007,
      "d": 375.0001500000071,
      "v": 80
    },
    {
      "midi": 37,
      "hit": false,
      "t": 72631.60800000008,
      "d": 157.89479999999458,
      "v": 80
    },
    {
      "midi": 49,
      "hit": false,
      "t": 72631.60800000008,
      "d": 157.89479999999458,
      "v": 80
    },
    {
      "midi": 56,
      "hit": false,
      "t": 72631.60800000008,
      "d": 157.89479999999458,
      "v": 80
    },
    {
      "midi": 61,
      "hit": false,
      "t": 72631.60800000008,
      "d": 157.89479999999458,
      "v": 80
    },
    {
      "midi": 65,
      "hit": false,
      "t": 72631.60800000008,
      "d": 157.89479999999458,
      "v": 80
    },
    {
      "midi": 68,
      "hit": false,
      "t": 72631.60800000008,
      "d": 157.89479999999458,
      "v": 80
    },
    {
      "midi": 37,
      "hit": false,
      "t": 72828.97650000008,
      "d": 1894.737599999993,
      "v": 80
    },
    {
      "midi": 49,
      "hit": false,
      "t": 72828.97650000008,
      "d": 1894.737599999993,
      "v": 80
    },
    {
      "midi": 56,
      "hit": false,
      "t": 72828.97650000008,
      "d": 1894.737599999993,
      "v": 80
    },
    {
      "midi": 61,
      "hit": false,
      "t": 72828.97650000008,
      "d": 1894.737599999993,
      "v": 80
    },
    {
      "midi": 65,
      "hit": false,
      "t": 72828.97650000008,
      "d": 1894.737599999993,
      "v": 80
    },
    {
      "midi": 68,
      "hit": false,
      "t": 72828.97650000008,
      "d": 1894.737599999993,
      "v": 80
    }
  ]
}