{
  "jsonPath": "World/Nuevo Tango/Supervielle/miles-de-pasajeros.json",
  "path": "World\\Nuevo Tango\\Supervielle\\Miles De Pasajeros.mid",
  "name": "Miles De Pasajeros",
  "difficulty": "Advanced",
  "bpm": 129.00035475097556,
  "notes": [
    {
      "midi": 63,
      "hit": false,
      "t": 29767.36,
      "d": 186.04599999999846,
      "v": 80
    },
    {
      "midi": 67,
      "hit": false,
      "t": 29767.36,
      "d": 186.04599999999846,
      "v": 80
    },
    {
      "midi": 72,
      "hit": false,
      "t": 29767.36,
      "d": 186.04599999999846,
      "v": 80
    },
    {
      "midi": 67,
      "hit": false,
      "t": 31162.704999999998,
      "d": 186.04599999999846,
      "v": 80
    },
    {
      "midi": 70,
      "hit": false,
      "t": 31162.704999999998,
      "d": 186.04599999999846,
      "v": 80
    },
    {
      "midi": 75,
      "hit": false,
      "t": 31162.704999999998,
      "d": 186.04599999999846,
      "v": 80
    },
    {
      "midi": 67,
      "hit": false,
      "t": 31395.262499999997,
      "d": 93.02300000000105,
      "v": 80
    },
    {
      "midi": 70,
      "hit": false,
      "t": 31395.262499999997,
      "d": 93.02300000000105,
      "v": 80
    },
    {
      "midi": 75,
      "hit": false,
      "t": 31395.262499999997,
      "d": 93.02300000000105,
      "v": 80
    },
    {
      "midi": 67,
      "hit": false,
      "t": 31511.54125,
      "d": 93.02300000000105,
      "v": 80
    },
    {
      "midi": 70,
      "hit": false,
      "t": 31511.54125,
      "d": 93.02300000000105,
      "v": 80
    },
    {
      "midi": 75,
      "hit": false,
      "t": 31511.54125,
      "d": 93.02300000000105,
      "v": 80
    },
    {
      "midi": 63,
      "hit": false,
      "t": 31627.82,
      "d": 186.04599999999846,
      "v": 80
    },
    {
      "midi": 67,
      "hit": false,
      "t": 31627.82,
      "d": 186.04599999999846,
      "v": 80
    },
    {
      "midi": 72,
      "hit": false,
      "t": 31627.82,
      "d": 186.04599999999846,
      "v": 80
    },
    {
      "midi": 68,
      "hit": false,
      "t": 32790.6075,
      "d": 186.0460000000021,
      "v": 80
    },
    {
      "midi": 63,
      "hit": false,
      "t": 32790.6075,
      "d": 418.6035000000047,
      "v": 80
    },
    {
      "midi": 70,
      "hit": false,
      "t": 32790.6075,
      "d": 418.6035000000047,
      "v": 80
    },
    {
      "midi": 67,
      "hit": false,
      "t": 33023.165,
      "d": 418.6035000000047,
      "v": 80
    },
    {
      "midi": 62,
      "hit": false,
      "t": 33255.7225,
      "d": 186.0460000000021,
      "v": 80
    },
    {
      "midi": 71,
      "hit": false,
      "t": 33255.7225,
      "d": 186.0460000000021,
      "v": 80
    },
    {
      "midi": 63,
      "hit": false,
      "t": 33488.280000000006,
      "d": 186.0460000000021,
      "v": 80
    },
    {
      "midi": 67,
      "hit": false,
      "t": 33488.280000000006,
      "d": 186.0460000000021,
      "v": 80
    },
    {
      "midi": 72,
      "hit": false,
      "t": 33488.280000000006,
      "d": 186.0460000000021,
      "v": 80
    },
    {
      "midi": 67,
      "hit": false,
      "t": 34883.62500000001,
      "d": 186.0460000000021,
      "v": 80
    },
    {
      "midi": 70,
      "hit": false,
      "t": 34883.62500000001,
      "d": 186.0460000000021,
      "v": 80
    },
    {
      "midi": 75,
      "hit": false,
      "t": 34883.62500000001,
      "d": 186.0460000000021,
      "v": 80
    },
    {
      "midi": 67,
      "hit": false,
      "t": 35116.18250000001,
      "d": 93.02300000000105,
      "v": 80
    },
    {
      "midi": 70,
      "hit": false,
      "t": 35116.18250000001,
      "d": 93.02300000000105,
      "v": 80
    },
    {
      "midi": 75,
      "hit": false,
      "t": 35116.18250000001,
      "d": 93.02300000000105,
      "v": 80
    },
    {
      "midi": 67,
      "hit": false,
      "t": 35232.46125000001,
      "d": 93.02300000000105,
      "v": 80
    },
    {
      "midi": 70,
      "hit": false,
      "t": 35232.46125000001,
      "d": 93.02300000000105,
      "v": 80
    },
    {
      "midi": 75,
      "hit": false,
      "t": 35232.46125000001,
      "d": 93.02300000000105,
      "v": 80
    },
    {
      "midi": 63,
      "hit": false,
      "t": 35348.740000000005,
      "d": 186.0460000000021,
      "v": 80
    },
    {
      "midi": 67,
      "hit": false,
      "t": 35348.740000000005,
      "d": 186.0460000000021,
      "v": 80
    },
    {
      "midi": 72,
      "hit": false,
      "t": 35348.740000000005,
      "d": 186.0460000000021,
      "v": 80
    },
    {
      "midi": 68,
      "hit": false,
      "t": 36511.527500000004,
      "d": 186.0460000000021,
      "v": 80
    },
    {
      "midi": 63,
      "hit": false,
      "t": 36511.527500000004,
      "d": 418.6035000000047,
      "v": 80
    },
    {
      "midi": 70,
      "hit": false,
      "t": 36511.527500000004,
      "d": 418.6035000000047,
      "v": 80
    },
    {
      "midi": 67,
      "hit": false,
      "t": 36744.08500000001,
      "d": 418.6035000000047,
      "v": 80
    },
    {
      "midi": 62,
      "hit": false,
      "t": 36976.64250000001,
      "d": 186.0460000000021,
      "v": 80
    },
    {
      "midi": 71,
      "hit": false,
      "t": 36976.64250000001,
      "d": 186.0460000000021,
      "v": 80
    },
    {
      "midi": 63,
      "hit": false,
      "t": 37209.20000000001,
      "d": 186.0460000000021,
      "v": 80
    },
    {
      "midi": 67,
      "hit": false,
      "t": 37209.20000000001,
      "d": 186.0460000000021,
      "v": 80
    },
    {
      "midi": 72,
      "hit": false,
      "t": 37209.20000000001,
      "d": 186.0460000000021,
      "v": 80
    },
    {
      "midi": 67,
      "hit": false,
      "t": 38604.54500000001,
      "d": 186.0460000000021,
      "v": 80
    },
    {
      "midi": 70,
      "hit": false,
      "t": 38604.54500000001,
      "d": 186.0460000000021,
      "v": 80
    },
    {
      "midi": 75,
      "hit": false,
      "t": 38604.54500000001,
      "d": 186.0460000000021,
      "v": 80
    },
    {
      "midi": 67,
      "hit": false,
      "t": 38837.102500000015,
      "d": 93.02300000000105,
      "v": 80
    },
    {
      "midi": 70,
      "hit": false,
      "t": 38837.102500000015,
      "d": 93.02300000000105,
      "v": 80
    },
    {
      "midi": 75,
      "hit": false,
      "t": 38837.102500000015,
      "d": 93.02300000000105,
      "v": 80
    },
    {
      "midi": 67,
      "hit": false,
      "t": 38953.38125000001,
      "d": 93.02300000000105,
      "v": 80
    },
    {
      "midi": 70,
      "hit": false,
      "t": 38953.38125000001,
      "d": 93.02300000000105,
      "v": 80
    },
    {
      "midi": 75,
      "hit": false,
      "t": 38953.38125000001,
      "d": 93.02300000000105,
      "v": 80
    },
    {
      "midi": 63,
      "hit": false,
      "t": 39069.66000000001,
      "d": 186.0460000000021,
      "v": 80
    },
    {
      "midi": 67,
      "hit": false,
      "t": 39069.66000000001,
      "d": 186.0460000000021,
      "v": 80
    },
    {
      "midi": 72,
      "hit": false,
      "t": 39069.66000000001,
      "d": 186.0460000000021,
      "v": 80
    },
    {
      "midi": 63,
      "hit": false,
      "t": 40232.44750000001,
      "d": 186.0460000000021,
      "v": 80
    },
    {
      "midi": 70,
      "hit": false,
      "t": 40232.44750000001,
      "d": 418.6035000000047,
      "v": 80
    },
    {
      "midi": 67,
      "hit": false,
      "t": 40232.44750000001,
      "d": 651.1610000000073,
      "v": 80
    },
    {
      "midi": 62,
      "hit": false,
      "t": 40465.00500000001,
      "d": 186.0460000000021,
      "v": 80
    },
    {
      "midi": 62,
      "hit": false,
      "t": 40697.562500000015,
      "d": 186.0460000000021,
      "v": 80
    },
    {
      "midi": 71,
      "hit": false,
      "t": 40697.562500000015,
      "d": 186.0460000000021,
      "v": 80
    },
    {
      "midi": 63,
      "hit": false,
      "t": 40930.12000000002,
      "d": 186.0460000000021,
      "v": 80
    },
    {
      "midi": 67,
      "hit": false,
      "t": 40930.12000000002,
      "d": 186.0460000000021,
      "v": 80
    },
    {
      "midi": 72,
      "hit": false,
      "t": 40930.12000000002,
      "d": 186.0460000000021,
      "v": 80
    },
    {
      "midi": 67,
      "hit": false,
      "t": 42325.46500000002,
      "d": 186.0460000000021,
      "v": 80
    },
    {
      "midi": 70,
      "hit": false,
      "t": 42325.46500000002,
      "d": 186.0460000000021,
      "v": 80
    },
    {
      "midi": 75,
      "hit": false,
      "t": 42325.46500000002,
      "d": 186.0460000000021,
      "v": 80
    },
    {
      "midi": 67,
      "hit": false,
      "t": 42558.02250000002,
      "d": 93.02300000000105,
      "v": 80
    },
    {
      "midi": 70,
      "hit": false,
      "t": 42558.02250000002,
      "d": 93.02300000000105,
      "v": 80
    },
    {
      "midi": 75,
      "hit": false,
      "t": 42558.02250000002,
      "d": 93.02300000000105,
      "v": 80
    },
    {
      "midi": 67,
      "hit": false,
      "t": 42674.30125000002,
      "d": 93.02300000000105,
      "v": 80
    },
    {
      "midi": 70,
      "hit": false,
      "t": 42674.30125000002,
      "d": 93.02300000000105,
      "v": 80
    },
    {
      "midi": 75,
      "hit": false,
      "t": 42674.30125000002,
      "d": 93.02300000000105,
      "v": 80
    },
    {
      "midi": 63,
      "hit": false,
      "t": 42790.580000000016,
      "d": 186.0460000000021,
      "v": 80
    },
    {
      "midi": 67,
      "hit": false,
      "t": 42790.580000000016,
      "d": 186.0460000000021,
      "v": 80
    },
    {
      "midi": 72,
      "hit": false,
      "t": 42790.580000000016,
      "d": 186.0460000000021,
      "v": 80
    },
    {
      "midi": 63,
      "hit": false,
      "t": 43953.367500000015,
      "d": 186.0460000000021,
      "v": 80
    },
    {
      "midi": 70,
      "hit": false,
      "t": 43953.367500000015,
      "d": 418.6035000000047,
      "v": 80
    },
    {
      "midi": 67,
      "hit": false,
      "t": 43953.367500000015,
      "d": 651.1610000000073,
      "v": 80
    },
    {
      "midi": 62,
      "hit": false,
      "t": 44185.92500000002,
      "d": 186.0460000000021,
      "v": 80
    },
    {
      "midi": 62,
      "hit": false,
      "t": 44418.48250000002,
      "d": 186.0460000000021,
      "v": 80
    },
    {
      "midi": 71,
      "hit": false,
      "t": 44418.48250000002,
      "d": 186.0460000000021,
      "v": 80
    },
    {
      "midi": 63,
      "hit": false,
      "t": 44651.04000000002,
      "d": 186.0460000000021,
      "v": 80
    },
    {
      "midi": 67,
      "hit": false,
      "t": 44651.04000000002,
      "d": 186.0460000000021,
      "v": 80
    },
    {
      "midi": 72,
      "hit": false,
      "t": 44651.04000000002,
      "d": 186.0460000000021,
      "v": 80
    },
    {
      "midi": 67,
      "hit": false,
      "t": 46046.385000000024,
      "d": 186.0460000000021,
      "v": 80
    },
    {
      "midi": 70,
      "hit": false,
      "t": 46046.385000000024,
      "d": 186.0460000000021,
      "v": 80
    },
    {
      "midi": 75,
      "hit": false,
      "t": 46046.385000000024,
      "d": 186.0460000000021,
      "v": 80
    },
    {
      "midi": 67,
      "hit": false,
      "t": 46278.94250000003,
      "d": 93.02300000000105,
      "v": 80
    },
    {
      "midi": 70,
      "hit": false,
      "t": 46278.94250000003,
      "d": 93.02300000000105,
      "v": 80
    },
    {
      "midi": 75,
      "hit": false,
      "t": 46278.94250000003,
      "d": 93.02300000000105,
      "v": 80
    },
    {
      "midi": 67,
      "hit": false,
      "t": 46395.221250000024,
      "d": 93.02300000000105,
      "v": 80
    },
    {
      "midi": 70,
      "hit": false,
      "t": 46395.221250000024,
      "d": 93.02300000000105,
      "v": 80
    },
    {
      "midi": 75,
      "hit": false,
      "t": 46395.221250000024,
      "d": 93.02300000000105,
      "v": 80
    },
    {
      "midi": 63,
      "hit": false,
      "t": 46627.77875000003,
      "d": 186.0460000000021,
      "v": 80
    },
    {
      "midi": 68,
      "hit": false,
      "t": 46627.77875000003,
      "d": 186.0460000000021,
      "v": 80
    },
    {
      "midi": 72,
      "hit": false,
      "t": 46627.77875000003,
      "d": 186.0460000000021,
      "v": 80
    },
    {
      "midi": 63,
      "hit": false,
      "t": 47209.17250000003,
      "d": 604.6494999999995,
      "v": 80
    },
    {
      "midi": 68,
      "hit": false,
      "t": 47209.17250000003,
      "d": 604.6494999999995,
      "v": 80
    },
    {
      "midi": 72,
      "hit": false,
      "t": 47209.17250000003,
      "d": 604.6494999999995,
      "v": 80
    },
    {
      "midi": 62,
      "hit": false,
      "t": 48371.96000000003,
      "d": 186.0460000000021,
      "v": 80
    },
    {
      "midi": 65,
      "hit": false,
      "t": 48371.96000000003,
      "d": 186.0460000000021,
      "v": 80
    },
    {
      "midi": 70,
      "hit": false,
      "t": 48371.96000000003,
      "d": 186.0460000000021,
      "v": 80
    },
    {
      "midi": 62,
      "hit": false,
      "t": 48837.07500000003,
      "d": 372.0919999999969,
      "v": 80
    },
    {
      "midi": 65,
      "hit": false,
      "t": 48837.07500000003,
      "d": 372.0919999999969,
      "v": 80
    },
    {
      "midi": 70,
      "hit": false,
      "t": 48837.07500000003,
      "d": 372.0919999999969,
      "v": 80
    },
    {
      "midi": 65,
      "hit": false,
      "t": 50232.42000000003,
      "d": 744.1840000000011,
      "v": 80
    },
    {
      "midi": 67,
      "hit": false,
      "t": 50232.42000000003,
      "d": 744.1840000000011,
      "v": 80
    },
    {
      "midi": 74,
      "hit": false,
      "t": 50232.42000000003,
      "d": 744.1840000000011,
      "v": 80
    },
    {
      "midi": 67,
      "hit": false,
      "t": 51511.48625000003,
      "d": 93.02300000000105,
      "v": 80
    },
    {
      "midi": 62,
      "hit": false,
      "t": 51627.76500000003,
      "d": 186.0460000000021,
      "v": 80
    },
    {
      "midi": 67,
      "hit": false,
      "t": 51627.76500000003,
      "d": 186.0460000000021,
      "v": 80
    },
    {
      "midi": 72,
      "hit": false,
      "t": 51627.76500000003,
      "d": 186.0460000000021,
      "v": 80
    },
    {
      "midi": 75,
      "hit": false,
      "t": 51627.76500000003,
      "d": 186.0460000000021,
      "v": 80
    },
    {
      "midi": 62,
      "hit": false,
      "t": 51860.32250000003,
      "d": 186.0460000000021,
      "v": 80
    },
    {
      "midi": 67,
      "hit": false,
      "t": 51860.32250000003,
      "d": 186.0460000000021,
      "v": 80
    },
    {
      "midi": 71,
      "hit": false,
      "t": 51860.32250000003,
      "d": 186.0460000000021,
      "v": 80
    },
    {
      "midi": 74,
      "hit": false,
      "t": 51860.32250000003,
      "d": 186.0460000000021,
      "v": 80
    },
    {
      "midi": 63,
      "hit": false,
      "t": 52092.880000000034,
      "d": 744.1840000000011,
      "v": 80
    },
    {
      "midi": 67,
      "hit": false,
      "t": 52092.880000000034,
      "d": 744.1840000000011,
      "v": 80
    },
    {
      "midi": 72,
      "hit": false,
      "t": 52092.880000000034,
      "d": 744.1840000000011,
      "v": 80
    },
    {
      "midi": 75,
      "hit": false,
      "t": 52092.880000000034,
      "d": 744.1840000000011,
      "v": 80
    },
    {
      "midi": 67,
      "hit": false,
      "t": 53953.34000000003,
      "d": 744.1840000000011,
      "v": 80
    },
    {
      "midi": 70,
      "hit": false,
      "t": 53953.34000000003,
      "d": 744.1840000000011,
      "v": 80
    },
    {
      "midi": 74,
      "hit": false,
      "t": 53953.34000000003,
      "d": 744.1840000000011,
      "v": 80
    },
    {
      "midi": 77,
      "hit": false,
      "t": 53953.34000000003,
      "d": 744.1840000000011,
      "v": 80
    },
    {
      "midi": 65,
      "hit": false,
      "t": 54883.570000000036,
      "d": 744.1840000000011,
      "v": 80
    },
    {
      "midi": 68,
      "hit": false,
      "t": 54883.570000000036,
      "d": 744.1840000000011,
      "v": 80
    },
    {
      "midi": 72,
      "hit": false,
      "t": 54883.570000000036,
      "d": 744.1840000000011,
      "v": 80
    },
    {
      "midi": 75,
      "hit": false,
      "t": 54883.570000000036,
      "d": 744.1840000000011,
      "v": 80
    },
    {
      "midi": 63,
      "hit": false,
      "t": 55813.80000000004,
      "d": 186.0460000000021,
      "v": 80
    },
    {
      "midi": 67,
      "hit": false,
      "t": 55813.80000000004,
      "d": 186.0460000000021,
      "v": 80
    },
    {
      "midi": 72,
      "hit": false,
      "t": 55813.80000000004,
      "d": 186.0460000000021,
      "v": 80
    },
    {
      "midi": 67,
      "hit": false,
      "t": 57209.14500000004,
      "d": 186.0460000000021,
      "v": 80
    },
    {
      "midi": 70,
      "hit": false,
      "t": 57209.14500000004,
      "d": 186.0460000000021,
      "v": 80
    },
    {
      "midi": 75,
      "hit": false,
      "t": 57209.14500000004,
      "d": 186.0460000000021,
      "v": 80
    },
    {
      "midi": 67,
      "hit": false,
      "t": 57441.70250000004,
      "d": 93.02300000000105,
      "v": 80
    },
    {
      "midi": 70,
      "hit": false,
      "t": 57441.70250000004,
      "d": 93.02300000000105,
      "v": 80
    },
    {
      "midi": 75,
      "hit": false,
      "t": 57441.70250000004,
      "d": 93.02300000000105,
      "v": 80
    },
    {
      "midi": 67,
      "hit": false,
      "t": 57557.98125000004,
      "d": 93.02300000000105,
      "v": 80
    },
    {
      "midi": 70,
      "hit": false,
      "t": 57557.98125000004,
      "d": 93.02300000000105,
      "v": 80
    },
    {
      "midi": 75,
      "hit": false,
      "t": 57557.98125000004,
      "d": 93.02300000000105,
      "v": 80
    },
    {
      "midi": 63,
      "hit": false,
      "t": 57790.53875000004,
      "d": 186.0460000000021,
      "v": 80
    },
    {
      "midi": 68,
      "hit": false,
      "t": 57790.53875000004,
      "d": 186.0460000000021,
      "v": 80
    },
    {
      "midi": 72,
      "hit": false,
      "t": 57790.53875000004,
      "d": 186.0460000000021,
      "v": 80
    },
    {
      "midi": 63,
      "hit": false,
      "t": 58371.932500000046,
      "d": 604.6494999999995,
      "v": 80
    },
    {
      "midi": 68,
      "hit": false,
      "t": 58371.932500000046,
      "d": 604.6494999999995,
      "v": 80
    },
    {
      "midi": 72,
      "hit": false,
      "t": 58371.932500000046,
      "d": 604.6494999999995,
      "v": 80
    },
    {
      "midi": 62,
      "hit": false,
      "t": 59534.720000000045,
      "d": 186.0460000000021,
      "v": 80
    },
    {
      "midi": 65,
      "hit": false,
      "t": 59534.720000000045,
      "d": 186.0460000000021,
      "v": 80
    },
    {
      "midi": 70,
      "hit": false,
      "t": 59534.720000000045,
      "d": 186.0460000000021,
      "v": 80
    },
    {
      "midi": 62,
      "hit": false,
      "t": 59999.83500000005,
      "d": 372.0919999999969,
      "v": 80
    },
    {
      "midi": 65,
      "hit": false,
      "t": 59999.83500000005,
      "d": 372.0919999999969,
      "v": 80
    },
    {
      "midi": 70,
      "hit": false,
      "t": 59999.83500000005,
      "d": 372.0919999999969,
      "v": 80
    },
    {
      "midi": 65,
      "hit": false,
      "t": 61395.180000000044,
      "d": 744.1840000000011,
      "v": 80
    },
    {
      "midi": 67,
      "hit": false,
      "t": 61395.180000000044,
      "d": 744.1840000000011,
      "v": 80
    },
    {
      "midi": 74,
      "hit": false,
      "t": 61395.180000000044,
      "d": 744.1840000000011,
      "v": 80
    },
    {
      "midi": 67,
      "hit": false,
      "t": 62674.24625000005,
      "d": 93.02300000000105,
      "v": 80
    },
    {
      "midi": 62,
      "hit": false,
      "t": 62790.525000000045,
      "d": 186.0460000000021,
      "v": 80
    },
    {
      "midi": 67,
      "hit": false,
      "t": 62790.525000000045,
      "d": 186.0460000000021,
      "v": 80
    },
    {
      "midi": 72,
      "hit": false,
      "t": 62790.525000000045,
      "d": 186.0460000000021,
      "v": 80
    },
    {
      "midi": 75,
      "hit": false,
      "t": 62790.525000000045,
      "d": 186.0460000000021,
      "v": 80
    },
    {
      "midi": 62,
      "hit": false,
      "t": 63023.08250000005,
      "d": 186.0460000000021,
      "v": 80
    },
    {
      "midi": 67,
      "hit": false,
      "t": 63023.08250000005,
      "d": 186.0460000000021,
      "v": 80
    },
    {
      "midi": 71,
      "hit": false,
      "t": 63023.08250000005,
      "d": 186.0460000000021,
      "v": 80
    },
    {
      "midi": 74,
      "hit": false,
      "t": 63023.08250000005,
      "d": 186.0460000000021,
      "v": 80
    },
    {
      "midi": 63,
      "hit": false,
      "t": 63255.64000000005,
      "d": 744.1840000000011,
      "v": 80
    },
    {
      "midi": 67,
      "hit": false,
      "t": 63255.64000000005,
      "d": 744.1840000000011,
      "v": 80
    },
    {
      "midi": 72,
      "hit": false,
      "t": 63255.64000000005,
      "d": 744.1840000000011,
      "v": 80
    },
    {
      "midi": 75,
      "hit": false,
      "t": 63255.64000000005,
      "d": 744.1840000000011,
      "v": 80
    },
    {
      "midi": 67,
      "hit": false,
      "t": 65116.10000000005,
      "d": 744.1839999999938,
      "v": 80
    },
    {
      "midi": 70,
      "hit": false,
      "t": 65116.10000000005,
      "d": 744.1839999999938,
      "v": 80
    },
    {
      "midi": 74,
      "hit": false,
      "t": 65116.10000000005,
      "d": 744.1839999999938,
      "v": 80
    },
    {
      "midi": 77,
      "hit": false,
      "t": 65116.10000000005,
      "d": 744.1839999999938,
      "v": 80
    },
    {
      "midi": 65,
      "hit": false,
      "t": 66046.33000000005,
      "d": 744.1839999999938,
      "v": 80
    },
    {
      "midi": 68,
      "hit": false,
      "t": 66046.33000000005,
      "d": 744.1839999999938,
      "v": 80
    },
    {
      "midi": 72,
      "hit": false,
      "t": 66046.33000000005,
      "d": 744.1839999999938,
      "v": 80
    },
    {
      "midi": 75,
      "hit": false,
      "t": 66046.33000000005,
      "d": 744.1839999999938,
      "v": 80
    },
    {
      "midi": 63,
      "hit": false,
      "t": 66976.56000000004,
      "d": 372.0920000000042,
      "v": 80
    },
    {
      "midi": 74,
      "hit": false,
      "t": 66976.56000000004,
      "d": 372.0920000000042,
      "v": 80
    },
    {
      "midi": 62,
      "hit": false,
      "t": 67441.67500000005,
      "d": 372.0920000000042,
      "v": 80
    },
    {
      "midi": 72,
      "hit": false,
      "t": 67441.67500000005,
      "d": 372.0920000000042,
      "v": 80
    },
    {
      "midi": 60,
      "hit": false,
      "t": 67906.79000000005,
      "d": 372.0920000000042,
      "v": 80
    },
    {
      "midi": 70,
      "hit": false,
      "t": 67906.79000000005,
      "d": 372.0920000000042,
      "v": 80
    },
    {
      "midi": 58,
      "hit": false,
      "t": 68371.90500000006,
      "d": 372.0920000000042,
      "v": 80
    },
    {
      "midi": 68,
      "hit": false,
      "t": 68371.90500000006,
      "d": 372.0920000000042,
      "v": 80
    },
    {
      "midi": 60,
      "hit": false,
      "t": 68837.02000000006,
      "d": 744.1839999999938,
      "v": 80
    },
    {
      "midi": 67,
      "hit": false,
      "t": 68837.02000000006,
      "d": 744.1839999999938,
      "v": 80
    },
    {
      "midi": 72,
      "hit": false,
      "t": 68837.02000000006,
      "d": 744.1839999999938,
      "v": 80
    },
    {
      "midi": 75,
      "hit": false,
      "t": 68837.02000000006,
      "d": 744.1839999999938,
      "v": 80
    },
    {
      "midi": 60,
      "hit": false,
      "t": 70232.36500000005,
      "d": 372.0920000000042,
      "v": 80
    },
    {
      "midi": 67,
      "hit": false,
      "t": 70232.36500000005,
      "d": 372.0920000000042,
      "v": 80
    },
    {
      "midi": 72,
      "hit": false,
      "t": 70232.36500000005,
      "d": 372.0920000000042,
      "v": 80
    },
    {
      "midi": 75,
      "hit": false,
      "t": 70232.36500000005,
      "d": 372.0920000000042,
      "v": 80
    },
    {
      "midi": 62,
      "hit": false,
      "t": 70697.48000000005,
      "d": 744.1839999999938,
      "v": 80
    },
    {
      "midi": 67,
      "hit": false,
      "t": 70697.48000000005,
      "d": 744.1839999999938,
      "v": 80
    },
    {
      "midi": 70,
      "hit": false,
      "t": 70697.48000000005,
      "d": 744.1839999999938,
      "v": 80
    },
    {
      "midi": 74,
      "hit": false,
      "t": 70697.48000000005,
      "d": 744.1839999999938,
      "v": 80
    },
    {
      "midi": 62,
      "hit": false,
      "t": 72092.82500000004,
      "d": 372.0920000000042,
      "v": 80
    },
    {
      "midi": 65,
      "hit": false,
      "t": 72092.82500000004,
      "d": 372.0920000000042,
      "v": 80
    },
    {
      "midi": 70,
      "hit": false,
      "t": 72092.82500000004,
      "d": 372.0920000000042,
      "v": 80
    },
    {
      "midi": 74,
      "hit": false,
      "t": 72092.82500000004,
      "d": 372.0920000000042,
      "v": 80
    },
    {
      "midi": 60,
      "hit": false,
      "t": 72557.94000000005,
      "d": 744.1839999999938,
      "v": 80
    },
    {
      "midi": 67,
      "hit": false,
      "t": 72557.94000000005,
      "d": 744.1839999999938,
      "v": 80
    },
    {
      "midi": 72,
      "hit": false,
      "t": 72557.94000000005,
      "d": 744.1839999999938,
      "v": 80
    },
    {
      "midi": 75,
      "hit": false,
      "t": 72557.94000000005,
      "d": 744.1839999999938,
      "v": 80
    },
    {
      "midi": 60,
      "hit": false,
      "t": 73953.28500000003,
      "d": 372.0920000000042,
      "v": 80
    },
    {
      "midi": 67,
      "hit": false,
      "t": 73953.28500000003,
      "d": 372.0920000000042,
      "v": 80
    },
    {
      "midi": 72,
      "hit": false,
      "t": 73953.28500000003,
      "d": 372.0920000000042,
      "v": 80
    },
    {
      "midi": 75,
      "hit": false,
      "t": 73953.28500000003,
      "d": 372.0920000000042,
      "v": 80
    },
    {
      "midi": 62,
      "hit": false,
      "t": 74418.40000000004,
      "d": 744.1839999999938,
      "v": 80
    },
    {
      "midi": 67,
      "hit": false,
      "t": 74418.40000000004,
      "d": 744.1839999999938,
      "v": 80
    },
    {
      "midi": 70,
      "hit": false,
      "t": 74418.40000000004,
      "d": 744.1839999999938,
      "v": 80
    },
    {
      "midi": 74,
      "hit": false,
      "t": 74418.40000000004,
      "d": 744.1839999999938,
      "v": 80
    },
    {
      "midi": 62,
      "hit": false,
      "t": 75813.74500000002,
      "d": 372.0920000000042,
      "v": 80
    },
    {
      "midi": 65,
      "hit": false,
      "t": 75813.74500000002,
      "d": 372.0920000000042,
      "v": 80
    },
    {
      "midi": 70,
      "hit": false,
      "t": 75813.74500000002,
      "d": 372.0920000000042,
      "v": 80
    },
    {
      "midi": 74,
      "hit": false,
      "t": 75813.74500000002,
      "d": 372.0920000000042,
      "v": 80
    },
    {
      "midi": 60,
      "hit": false,
      "t": 76278.86000000003,
      "d": 1116.275999999998,
      "v": 80
    },
    {
      "midi": 67,
      "hit": false,
      "t": 76278.86000000003,
      "d": 1116.275999999998,
      "v": 80
    },
    {
      "midi": 72,
      "hit": false,
      "t": 76278.86000000003,
      "d": 1116.275999999998,
      "v": 80
    },
    {
      "midi": 75,
      "hit": false,
      "t": 76278.86000000003,
      "d": 1116.275999999998,
      "v": 80
    },
    {
      "midi": 67,
      "hit": false,
      "t": 77674.20500000003,
      "d": 372.0920000000042,
      "v": 80
    },
    {
      "midi": 68,
      "hit": false,
      "t": 77674.20500000003,
      "d": 372.0920000000042,
      "v": 80
    },
    {
      "midi": 72,
      "hit": false,
      "t": 77674.20500000003,
      "d": 372.0920000000042,
      "v": 80
    },
    {
      "midi": 74,
      "hit": false,
      "t": 77674.20500000003,
      "d": 372.0920000000042,
      "v": 80
    },
    {
      "midi": 65,
      "hit": false,
      "t": 78139.32000000004,
      "d": 1116.275999999998,
      "v": 80
    },
    {
      "midi": 67,
      "hit": false,
      "t": 78139.32000000004,
      "d": 1116.275999999998,
      "v": 80
    },
    {
      "midi": 70,
      "hit": false,
      "t": 78139.32000000004,
      "d": 1116.275999999998,
      "v": 80
    },
    {
      "midi": 72,
      "hit": false,
      "t": 78139.32000000004,
      "d": 1116.275999999998,
      "v": 80
    },
    {
      "midi": 67,
      "hit": false,
      "t": 79534.66500000004,
      "d": 372.0920000000042,
      "v": 80
    },
    {
      "midi": 68,
      "hit": false,
      "t": 79534.66500000004,
      "d": 372.0920000000042,
      "v": 80
    },
    {
      "midi": 74,
      "hit": false,
      "t": 79534.66500000004,
      "d": 372.0920000000042,
      "v": 80
    },
    {
      "midi": 60,
      "hit": false,
      "t": 79999.78000000004,
      "d": 7069.748000000007,
      "v": 80
    },
    {
      "midi": 67,
      "hit": false,
      "t": 79999.78000000004,
      "d": 7069.748000000007,
      "v": 80
    },
    {
      "midi": 72,
      "hit": false,
      "t": 79999.78000000004,
      "d": 7069.748000000007,
      "v": 80
    },
    {
      "midi": 75,
      "hit": false,
      "t": 79999.78000000004,
      "d": 7069.748000000007,
      "v": 80
    },
    {
      "midi": 63,
      "hit": false,
      "t": 87441.62000000005,
      "d": 1116.275999999998,
      "v": 80
    },
    {
      "midi": 67,
      "hit": false,
      "t": 87441.62000000005,
      "d": 1116.275999999998,
      "v": 80
    },
    {
      "midi": 72,
      "hit": false,
      "t": 87441.62000000005,
      "d": 1116.275999999998,
      "v": 80
    },
    {
      "midi": 63,
      "hit": false,
      "t": 89069.52250000005,
      "d": 186.0460000000021,
      "v": 80
    },
    {
      "midi": 67,
      "hit": false,
      "t": 89069.52250000005,
      "d": 186.0460000000021,
      "v": 80
    },
    {
      "midi": 72,
      "hit": false,
      "t": 89069.52250000005,
      "d": 186.0460000000021,
      "v": 80
    },
    {
      "midi": 62,
      "hit": false,
      "t": 89302.08000000005,
      "d": 1116.275999999998,
      "v": 80
    },
    {
      "midi": 67,
      "hit": false,
      "t": 89302.08000000005,
      "d": 1116.275999999998,
      "v": 80
    },
    {
      "midi": 71,
      "hit": false,
      "t": 89302.08000000005,
      "d": 1116.275999999998,
      "v": 80
    },
    {
      "midi": 62,
      "hit": false,
      "t": 90929.98250000004,
      "d": 186.0460000000021,
      "v": 80
    },
    {
      "midi": 67,
      "hit": false,
      "t": 90929.98250000004,
      "d": 186.0460000000021,
      "v": 80
    },
    {
      "midi": 71,
      "hit": false,
      "t": 90929.98250000004,
      "d": 186.0460000000021,
      "v": 80
    },
    {
      "midi": 60,
      "hit": false,
      "t": 91162.54000000004,
      "d": 372.0920000000042,
      "v": 80
    },
    {
      "midi": 72,
      "hit": false,
      "t": 91162.54000000004,
      "d": 372.0920000000042,
      "v": 80
    },
    {
      "midi": 63,
      "hit": false,
      "t": 91627.65500000004,
      "d": 372.0920000000042,
      "v": 80
    },
    {
      "midi": 75,
      "hit": false,
      "t": 91627.65500000004,
      "d": 372.0920000000042,
      "v": 80
    },
    {
      "midi": 67,
      "hit": false,
      "t": 92092.77000000005,
      "d": 186.0460000000021,
      "v": 80
    },
    {
      "midi": 79,
      "hit": false,
      "t": 92092.77000000005,
      "d": 186.0460000000021,
      "v": 80
    },
    {
      "midi": 68,
      "hit": false,
      "t": 92325.32750000004,
      "d": 372.0920000000042,
      "v": 80
    },
    {
      "midi": 80,
      "hit": false,
      "t": 92325.32750000004,
      "d": 372.0920000000042,
      "v": 80
    },
    {
      "midi": 67,
      "hit": false,
      "t": 92790.44250000005,
      "d": 186.0460000000021,
      "v": 80
    },
    {
      "midi": 79,
      "hit": false,
      "t": 92790.44250000005,
      "d": 186.0460000000021,
      "v": 80
    },
    {
      "midi": 59,
      "hit": false,
      "t": 93023.00000000004,
      "d": 372.0920000000042,
      "v": 80
    },
    {
      "midi": 71,
      "hit": false,
      "t": 93023.00000000004,
      "d": 372.0920000000042,
      "v": 80
    },
    {
      "midi": 62,
      "hit": false,
      "t": 93488.11500000005,
      "d": 372.0920000000042,
      "v": 80
    },
    {
      "midi": 74,
      "hit": false,
      "t": 93488.11500000005,
      "d": 372.0920000000042,
      "v": 80
    },
    {
      "midi": 67,
      "hit": false,
      "t": 93953.23000000005,
      "d": 186.0460000000021,
      "v": 80
    },
    {
      "midi": 79,
      "hit": false,
      "t": 93953.23000000005,
      "d": 186.0460000000021,
      "v": 80
    },
    {
      "midi": 68,
      "hit": false,
      "t": 94185.78750000005,
      "d": 372.0920000000042,
      "v": 80
    },
    {
      "midi": 80,
      "hit": false,
      "t": 94185.78750000005,
      "d": 372.0920000000042,
      "v": 80
    },
    {
      "midi": 67,
      "hit": false,
      "t": 94650.90250000005,
      "d": 186.0460000000021,
      "v": 80
    },
    {
      "midi": 79,
      "hit": false,
      "t": 94650.90250000005,
      "d": 186.0460000000021,
      "v": 80
    },
    {
      "midi": 63,
      "hit": false,
      "t": 94883.46000000005,
      "d": 744.1839999999938,
      "v": 80
    },
    {
      "midi": 75,
      "hit": false,
      "t": 94883.46000000005,
      "d": 744.1839999999938,
      "v": 80
    },
    {
      "midi": 60,
      "hit": false,
      "t": 95813.69000000005,
      "d": 744.1839999999938,
      "v": 80
    },
    {
      "midi": 72,
      "hit": false,
      "t": 95813.69000000005,
      "d": 744.1839999999938,
      "v": 80
    },
    {
      "midi": 59,
      "hit": false,
      "t": 96743.92000000004,
      "d": 744.1839999999938,
      "v": 80
    },
    {
      "midi": 71,
      "hit": false,
      "t": 96743.92000000004,
      "d": 744.1839999999938,
      "v": 80
    },
    {
      "midi": 55,
      "hit": false,
      "t": 97674.15000000004,
      "d": 744.1839999999938,
      "v": 80
    },
    {
      "midi": 67,
      "hit": false,
      "t": 97674.15000000004,
      "d": 744.1839999999938,
      "v": 80
    },
    {
      "midi": 60,
      "hit": false,
      "t": 98604.38000000003,
      "d": 372.0920000000042,
      "v": 80
    },
    {
      "midi": 72,
      "hit": false,
      "t": 98604.38000000003,
      "d": 372.0920000000042,
      "v": 80
    },
    {
      "midi": 63,
      "hit": false,
      "t": 99069.49500000004,
      "d": 372.0920000000042,
      "v": 80
    },
    {
      "midi": 75,
      "hit": false,
      "t": 99069.49500000004,
      "d": 372.0920000000042,
      "v": 80
    },
    {
      "midi": 67,
      "hit": false,
      "t": 99534.61000000004,
      "d": 186.0460000000021,
      "v": 80
    },
    {
      "midi": 79,
      "hit": false,
      "t": 99534.61000000004,
      "d": 186.0460000000021,
      "v": 80
    },
    {
      "midi": 68,
      "hit": false,
      "t": 99767.16750000004,
      "d": 372.0920000000042,
      "v": 80
    },
    {
      "midi": 80,
      "hit": false,
      "t": 99767.16750000004,
      "d": 372.0920000000042,
      "v": 80
    },
    {
      "midi": 67,
      "hit": false,
      "t": 100232.28250000004,
      "d": 186.0460000000021,
      "v": 80
    },
    {
      "midi": 79,
      "hit": false,
      "t": 100232.28250000004,
      "d": 186.0460000000021,
      "v": 80
    },
    {
      "midi": 59,
      "hit": false,
      "t": 100464.84000000004,
      "d": 372.0920000000042,
      "v": 80
    },
    {
      "midi": 71,
      "hit": false,
      "t": 100464.84000000004,
      "d": 372.0920000000042,
      "v": 80
    },
    {
      "midi": 62,
      "hit": false,
      "t": 100929.95500000005,
      "d": 372.0920000000042,
      "v": 80
    },
    {
      "midi": 74,
      "hit": false,
      "t": 100929.95500000005,
      "d": 372.0920000000042,
      "v": 80
    },
    {
      "midi": 67,
      "hit": false,
      "t": 101395.07000000005,
      "d": 186.0460000000021,
      "v": 80
    },
    {
      "midi": 79,
      "hit": false,
      "t": 101395.07000000005,
      "d": 186.0460000000021,
      "v": 80
    },
    {
      "midi": 68,
      "hit": false,
      "t": 101627.62750000005,
      "d": 372.0920000000042,
      "v": 80
    },
    {
      "midi": 80,
      "hit": false,
      "t": 101627.62750000005,
      "d": 372.0920000000042,
      "v": 80
    },
    {
      "midi": 67,
      "hit": false,
      "t": 102092.74250000005,
      "d": 186.0460000000021,
      "v": 80
    },
    {
      "midi": 79,
      "hit": false,
      "t": 102092.74250000005,
      "d": 186.0460000000021,
      "v": 80
    },
    {
      "midi": 63,
      "hit": false,
      "t": 102325.30000000005,
      "d": 186.0460000000021,
      "v": 80
    },
    {
      "midi": 75,
      "hit": false,
      "t": 102325.30000000005,
      "d": 186.0460000000021,
      "v": 80
    },
    {
      "midi": 60,
      "hit": false,
      "t": 102557.85750000004,
      "d": 186.0460000000021,
      "v": 80
    },
    {
      "midi": 72,
      "hit": false,
      "t": 102557.85750000004,
      "d": 186.0460000000021,
      "v": 80
    },
    {
      "midi": 67,
      "hit": false,
      "t": 102790.41500000004,
      "d": 186.0460000000021,
      "v": 80
    },
    {
      "midi": 79,
      "hit": false,
      "t": 102790.41500000004,
      "d": 186.0460000000021,
      "v": 80
    },
    {
      "midi": 60,
      "hit": false,
      "t": 103022.97250000003,
      "d": 186.0460000000021,
      "v": 80
    },
    {
      "midi": 72,
      "hit": false,
      "t": 103022.97250000003,
      "d": 186.0460000000021,
      "v": 80
    },
    {
      "midi": 63,
      "hit": false,
      "t": 103255.53000000003,
      "d": 186.0460000000021,
      "v": 80
    },
    {
      "midi": 75,
      "hit": false,
      "t": 103255.53000000003,
      "d": 186.0460000000021,
      "v": 80
    },
    {
      "midi": 62,
      "hit": false,
      "t": 103488.08750000002,
      "d": 186.0460000000021,
      "v": 80
    },
    {
      "midi": 74,
      "hit": false,
      "t": 103488.08750000002,
      "d": 186.0460000000021,
      "v": 80
    },
    {
      "midi": 60,
      "hit": false,
      "t": 103720.64500000002,
      "d": 186.0460000000021,
      "v": 80
    },
    {
      "midi": 72,
      "hit": false,
      "t": 103720.64500000002,
      "d": 186.0460000000021,
      "v": 80
    },
    {
      "midi": 67,
      "hit": false,
      "t": 103953.20250000001,
      "d": 186.0460000000021,
      "v": 80
    },
    {
      "midi": 79,
      "hit": false,
      "t": 103953.20250000001,
      "d": 186.0460000000021,
      "v": 80
    },
    {
      "midi": 62,
      "hit": false,
      "t": 104185.76000000001,
      "d": 186.0460000000021,
      "v": 80
    },
    {
      "midi": 74,
      "hit": false,
      "t": 104185.76000000001,
      "d": 186.0460000000021,
      "v": 80
    },
    {
      "midi": 59,
      "hit": false,
      "t": 104418.3175,
      "d": 186.0460000000021,
      "v": 80
    },
    {
      "midi": 71,
      "hit": false,
      "t": 104418.3175,
      "d": 186.0460000000021,
      "v": 80
    },
    {
      "midi": 62,
      "hit": false,
      "t": 104650.875,
      "d": 186.0460000000021,
      "v": 80
    },
    {
      "midi": 74,
      "hit": false,
      "t": 104650.875,
      "d": 186.0460000000021,
      "v": 80
    },
    {
      "midi": 67,
      "hit": false,
      "t": 104883.4325,
      "d": 186.0460000000021,
      "v": 80
    },
    {
      "midi": 79,
      "hit": false,
      "t": 104883.4325,
      "d": 186.0460000000021,
      "v": 80
    },
    {
      "midi": 59,
      "hit": false,
      "t": 105115.98999999999,
      "d": 186.0460000000021,
      "v": 80
    },
    {
      "midi": 71,
      "hit": false,
      "t": 105115.98999999999,
      "d": 186.0460000000021,
      "v": 80
    },
    {
      "midi": 62,
      "hit": false,
      "t": 105348.54749999999,
      "d": 186.0460000000021,
      "v": 80
    },
    {
      "midi": 74,
      "hit": false,
      "t": 105348.54749999999,
      "d": 186.0460000000021,
      "v": 80
    },
    {
      "midi": 60,
      "hit": false,
      "t": 105581.10499999998,
      "d": 186.0460000000021,
      "v": 80
    },
    {
      "midi": 72,
      "hit": false,
      "t": 105581.10499999998,
      "d": 186.0460000000021,
      "v": 80
    },
    {
      "midi": 59,
      "hit": false,
      "t": 105813.66249999998,
      "d": 186.0460000000021,
      "v": 80
    },
    {
      "midi": 71,
      "hit": false,
      "t": 105813.66249999998,
      "d": 186.0460000000021,
      "v": 80
    },
    {
      "midi": 60,
      "hit": false,
      "t": 106046.21999999997,
      "d": 372.0920000000042,
      "v": 80
    },
    {
      "midi": 72,
      "hit": false,
      "t": 106046.21999999997,
      "d": 372.0920000000042,
      "v": 80
    },
    {
      "midi": 63,
      "hit": false,
      "t": 106511.33499999998,
      "d": 372.0920000000042,
      "v": 80
    },
    {
      "midi": 75,
      "hit": false,
      "t": 106511.33499999998,
      "d": 372.0920000000042,
      "v": 80
    },
    {
      "midi": 63,
      "hit": false,
      "t": 106976.44999999998,
      "d": 186.0460000000021,
      "v": 80
    },
    {
      "midi": 67,
      "hit": false,
      "t": 106976.44999999998,
      "d": 186.0460000000021,
      "v": 80
    },
    {
      "midi": 79,
      "hit": false,
      "t": 106976.44999999998,
      "d": 186.0460000000021,
      "v": 80
    },
    {
      "midi": 63,
      "hit": false,
      "t": 107209.00749999998,
      "d": 372.0920000000042,
      "v": 80
    },
    {
      "midi": 68,
      "hit": false,
      "t": 107209.00749999998,
      "d": 372.0920000000042,
      "v": 80
    },
    {
      "midi": 80,
      "hit": false,
      "t": 107209.00749999998,
      "d": 372.0920000000042,
      "v": 80
    },
    {
      "midi": 62,
      "hit": false,
      "t": 107674.12249999998,
      "d": 186.0460000000021,
      "v": 80
    },
    {
      "midi": 67,
      "hit": false,
      "t": 107674.12249999998,
      "d": 186.0460000000021,
      "v": 80
    },
    {
      "midi": 79,
      "hit": false,
      "t": 107674.12249999998,
      "d": 186.0460000000021,
      "v": 80
    },
    {
      "midi": 59,
      "hit": false,
      "t": 107906.67999999998,
      "d": 372.0920000000042,
      "v": 80
    },
    {
      "midi": 71,
      "hit": false,
      "t": 107906.67999999998,
      "d": 372.0920000000042,
      "v": 80
    },
    {
      "midi": 62,
      "hit": false,
      "t": 108371.79499999998,
      "d": 372.0920000000042,
      "v": 80
    },
    {
      "midi": 74,
      "hit": false,
      "t": 108371.79499999998,
      "d": 372.0920000000042,
      "v": 80
    },
    {
      "midi": 67,
      "hit": false,
      "t": 108836.90999999999,
      "d": 186.0460000000021,
      "v": 80
    },
    {
      "midi": 79,
      "hit": false,
      "t": 108836.90999999999,
      "d": 186.0460000000021,
      "v": 80
    },
    {
      "midi": 69,
      "hit": false,
      "t": 109069.46749999998,
      "d": 372.0920000000042,
      "v": 80
    },
    {
      "midi": 81,
      "hit": false,
      "t": 109069.46749999998,
      "d": 372.0920000000042,
      "v": 80
    },
    {
      "midi": 60,
      "hit": false,
      "t": 109534.58249999999,
      "d": 186.0460000000021,
      "v": 80
    },
    {
      "midi": 72,
      "hit": false,
      "t": 109534.58249999999,
      "d": 186.0460000000021,
      "v": 80
    },
    {
      "midi": 57,
      "hit": false,
      "t": 109767.13999999998,
      "d": 1488.3680000000022,
      "v": 80
    },
    {
      "midi": 62,
      "hit": false,
      "t": 109767.13999999998,
      "d": 1488.3680000000022,
      "v": 80
    },
    {
      "midi": 67,
      "hit": false,
      "t": 109767.13999999998,
      "d": 1488.3680000000022,
      "v": 80
    },
    {
      "midi": 69,
      "hit": false,
      "t": 109767.13999999998,
      "d": 1488.3680000000022,
      "v": 80
    },
    {
      "midi": 74,
      "hit": false,
      "t": 109767.13999999998,
      "d": 1488.3680000000022,
      "v": 80
    },
    {
      "midi": 57,
      "hit": false,
      "t": 111627.59999999999,
      "d": 1488.3680000000022,
      "v": 80
    },
    {
      "midi": 62,
      "hit": false,
      "t": 111627.59999999999,
      "d": 1488.3680000000022,
      "v": 80
    },
    {
      "midi": 65,
      "hit": false,
      "t": 111627.59999999999,
      "d": 1488.3680000000022,
      "v": 80
    },
    {
      "midi": 69,
      "hit": false,
      "t": 111627.59999999999,
      "d": 1488.3680000000022,
      "v": 80
    },
    {
      "midi": 74,
      "hit": false,
      "t": 111627.59999999999,
      "d": 1488.3680000000022,
      "v": 80
    },
    {
      "midi": 57,
      "hit": false,
      "t": 113488.06,
      "d": 1488.3680000000022,
      "v": 80
    },
    {
      "midi": 62,
      "hit": false,
      "t": 113488.06,
      "d": 1488.3680000000022,
      "v": 80
    },
    {
      "midi": 65,
      "hit": false,
      "t": 113488.06,
      "d": 1488.3680000000022,
      "v": 80
    },
    {
      "midi": 67,
      "hit": false,
      "t": 113488.06,
      "d": 1488.3680000000022,
      "v": 80
    },
    {
      "midi": 74,
      "hit": false,
      "t": 113488.06,
      "d": 1488.3680000000022,
      "v": 80
    },
    {
      "midi": 60,
      "hit": false,
      "t": 115348.52,
      "d": 186.0460000000021,
      "v": 80
    },
    {
      "midi": 63,
      "hit": false,
      "t": 115348.52,
      "d": 186.0460000000021,
      "v": 80
    },
    {
      "midi": 67,
      "hit": false,
      "t": 115348.52,
      "d": 186.0460000000021,
      "v": 80
    },
    {
      "midi": 72,
      "hit": false,
      "t": 115348.52,
      "d": 186.0460000000021,
      "v": 80
    },
    {
      "midi": 63,
      "hit": false,
      "t": 116278.75,
      "d": 93.02300000000105,
      "v": 80
    },
    {
      "midi": 67,
      "hit": false,
      "t": 116278.75,
      "d": 93.02300000000105,
      "v": 80
    },
    {
      "midi": 72,
      "hit": false,
      "t": 116278.75,
      "d": 93.02300000000105,
      "v": 80
    },
    {
      "midi": 75,
      "hit": false,
      "t": 116278.75,
      "d": 93.02300000000105,
      "v": 80
    },
    {
      "midi": 62,
      "hit": false,
      "t": 116395.02875,
      "d": 93.02300000000105,
      "v": 80
    },
    {
      "midi": 67,
      "hit": false,
      "t": 116395.02875,
      "d": 93.02300000000105,
      "v": 80
    },
    {
      "midi": 72,
      "hit": false,
      "t": 116395.02875,
      "d": 93.02300000000105,
      "v": 80
    },
    {
      "midi": 74,
      "hit": false,
      "t": 116395.02875,
      "d": 93.02300000000105,
      "v": 80
    },
    {
      "midi": 63,
      "hit": false,
      "t": 116511.3075,
      "d": 186.0460000000021,
      "v": 80
    },
    {
      "midi": 67,
      "hit": false,
      "t": 116511.3075,
      "d": 186.0460000000021,
      "v": 80
    },
    {
      "midi": 72,
      "hit": false,
      "t": 116511.3075,
      "d": 186.0460000000021,
      "v": 80
    },
    {
      "midi": 63,
      "hit": false,
      "t": 117208.98,
      "d": 186.0460000000021,
      "v": 80
    },
    {
      "midi": 67,
      "hit": false,
      "t": 117208.98,
      "d": 186.0460000000021,
      "v": 80
    },
    {
      "midi": 72,
      "hit": false,
      "t": 117208.98,
      "d": 186.0460000000021,
      "v": 80
    },
    {
      "midi": 67,
      "hit": false,
      "t": 118604.325,
      "d": 186.0460000000021,
      "v": 80
    },
    {
      "midi": 70,
      "hit": false,
      "t": 118604.325,
      "d": 186.0460000000021,
      "v": 80
    },
    {
      "midi": 75,
      "hit": false,
      "t": 118604.325,
      "d": 186.0460000000021,
      "v": 80
    },
    {
      "midi": 67,
      "hit": false,
      "t": 118836.88249999999,
      "d": 93.02300000000105,
      "v": 80
    },
    {
      "midi": 70,
      "hit": false,
      "t": 118836.88249999999,
      "d": 93.02300000000105,
      "v": 80
    },
    {
      "midi": 75,
      "hit": false,
      "t": 118836.88249999999,
      "d": 93.02300000000105,
      "v": 80
    },
    {
      "midi": 67,
      "hit": false,
      "t": 118953.16124999999,
      "d": 93.02300000000105,
      "v": 80
    },
    {
      "midi": 70,
      "hit": false,
      "t": 118953.16124999999,
      "d": 93.02300000000105,
      "v": 80
    },
    {
      "midi": 75,
      "hit": false,
      "t": 118953.16124999999,
      "d": 93.02300000000105,
      "v": 80
    },
    {
      "midi": 63,
      "hit": false,
      "t": 119069.43999999999,
      "d": 186.0460000000021,
      "v": 80
    },
    {
      "midi": 67,
      "hit": false,
      "t": 119069.43999999999,
      "d": 186.0460000000021,
      "v": 80
    },
    {
      "midi": 72,
      "hit": false,
      "t": 119069.43999999999,
      "d": 186.0460000000021,
      "v": 80
    },
    {
      "midi": 63,
      "hit": false,
      "t": 120232.2275,
      "d": 186.0460000000021,
      "v": 80
    },
    {
      "midi": 70,
      "hit": false,
      "t": 120232.2275,
      "d": 418.60349999999744,
      "v": 80
    },
    {
      "midi": 67,
      "hit": false,
      "t": 120232.2275,
      "d": 651.1609999999928,
      "v": 80
    },
    {
      "midi": 62,
      "hit": false,
      "t": 120464.78499999999,
      "d": 186.0460000000021,
      "v": 80
    },
    {
      "midi": 62,
      "hit": false,
      "t": 120697.34249999998,
      "d": 186.0460000000021,
      "v": 80
    },
    {
      "midi": 71,
      "hit": false,
      "t": 120697.34249999998,
      "d": 186.0460000000021,
      "v": 80
    },
    {
      "midi": 63,
      "hit": false,
      "t": 120929.89999999998,
      "d": 186.0460000000021,
      "v": 80
    },
    {
      "midi": 67,
      "hit": false,
      "t": 120929.89999999998,
      "d": 186.0460000000021,
      "v": 80
    },
    {
      "midi": 72,
      "hit": false,
      "t": 120929.89999999998,
      "d": 186.0460000000021,
      "v": 80
    },
    {
      "midi": 67,
      "hit": false,
      "t": 122325.24499999998,
      "d": 186.0460000000021,
      "v": 80
    },
    {
      "midi": 70,
      "hit": false,
      "t": 122325.24499999998,
      "d": 186.0460000000021,
      "v": 80
    },
    {
      "midi": 75,
      "hit": false,
      "t": 122325.24499999998,
      "d": 186.0460000000021,
      "v": 80
    },
    {
      "midi": 67,
      "hit": false,
      "t": 122557.80249999998,
      "d": 93.02300000000105,
      "v": 80
    },
    {
      "midi": 70,
      "hit": false,
      "t": 122557.80249999998,
      "d": 93.02300000000105,
      "v": 80
    },
    {
      "midi": 75,
      "hit": false,
      "t": 122557.80249999998,
      "d": 93.02300000000105,
      "v": 80
    },
    {
      "midi": 67,
      "hit": false,
      "t": 122674.08124999997,
      "d": 93.02300000000105,
      "v": 80
    },
    {
      "midi": 70,
      "hit": false,
      "t": 122674.08124999997,
      "d": 93.02300000000105,
      "v": 80
    },
    {
      "midi": 75,
      "hit": false,
      "t": 122674.08124999997,
      "d": 93.02300000000105,
      "v": 80
    },
    {
      "midi": 63,
      "hit": false,
      "t": 122790.35999999997,
      "d": 186.0460000000021,
      "v": 80
    },
    {
      "midi": 67,
      "hit": false,
      "t": 122790.35999999997,
      "d": 186.0460000000021,
      "v": 80
    },
    {
      "midi": 72,
      "hit": false,
      "t": 122790.35999999997,
      "d": 186.0460000000021,
      "v": 80
    },
    {
      "midi": 63,
      "hit": false,
      "t": 123953.14749999998,
      "d": 186.0460000000021,
      "v": 80
    },
    {
      "midi": 70,
      "hit": false,
      "t": 123953.14749999998,
      "d": 418.60349999999744,
      "v": 80
    },
    {
      "midi": 67,
      "hit": false,
      "t": 123953.14749999998,
      "d": 651.1609999999928,
      "v": 80
    },
    {
      "midi": 62,
      "hit": false,
      "t": 124185.70499999997,
      "d": 186.0460000000021,
      "v": 80
    },
    {
      "midi": 62,
      "hit": false,
      "t": 124418.26249999997,
      "d": 186.0460000000021,
      "v": 80
    },
    {
      "midi": 71,
      "hit": false,
      "t": 124418.26249999997,
      "d": 186.0460000000021,
      "v": 80
    },
    {
      "midi": 63,
      "hit": false,
      "t": 124650.81999999996,
      "d": 186.0460000000021,
      "v": 80
    },
    {
      "midi": 67,
      "hit": false,
      "t": 124650.81999999996,
      "d": 186.0460000000021,
      "v": 80
    },
    {
      "midi": 72,
      "hit": false,
      "t": 124650.81999999996,
      "d": 186.0460000000021,
      "v": 80
    },
    {
      "midi": 67,
      "hit": false,
      "t": 126046.16499999996,
      "d": 186.0460000000021,
      "v": 80
    },
    {
      "midi": 70,
      "hit": false,
      "t": 126046.16499999996,
      "d": 186.0460000000021,
      "v": 80
    },
    {
      "midi": 75,
      "hit": false,
      "t": 126046.16499999996,
      "d": 186.0460000000021,
      "v": 80
    },
    {
      "midi": 67,
      "hit": false,
      "t": 126278.72249999996,
      "d": 93.02300000000105,
      "v": 80
    },
    {
      "midi": 70,
      "hit": false,
      "t": 126278.72249999996,
      "d": 93.02300000000105,
      "v": 80
    },
    {
      "midi": 75,
      "hit": false,
      "t": 126278.72249999996,
      "d": 93.02300000000105,
      "v": 80
    },
    {
      "midi": 67,
      "hit": false,
      "t": 126395.00124999996,
      "d": 93.02300000000105,
      "v": 80
    },
    {
      "midi": 70,
      "hit": false,
      "t": 126395.00124999996,
      "d": 93.02300000000105,
      "v": 80
    },
    {
      "midi": 75,
      "hit": false,
      "t": 126395.00124999996,
      "d": 93.02300000000105,
      "v": 80
    },
    {
      "midi": 63,
      "hit": false,
      "t": 126511.27999999996,
      "d": 186.0460000000021,
      "v": 80
    },
    {
      "midi": 67,
      "hit": false,
      "t": 126511.27999999996,
      "d": 186.0460000000021,
      "v": 80
    },
    {
      "midi": 72,
      "hit": false,
      "t": 126511.27999999996,
      "d": 186.0460000000021,
      "v": 80
    },
    {
      "midi": 63,
      "hit": false,
      "t": 127674.06749999996,
      "d": 186.0460000000021,
      "v": 80
    },
    {
      "midi": 70,
      "hit": false,
      "t": 127674.06749999996,
      "d": 418.60349999999744,
      "v": 80
    },
    {
      "midi": 67,
      "hit": false,
      "t": 127674.06749999996,
      "d": 651.1609999999928,
      "v": 80
    },
    {
      "midi": 62,
      "hit": false,
      "t": 127906.62499999996,
      "d": 186.0460000000021,
      "v": 80
    },
    {
      "midi": 62,
      "hit": false,
      "t": 128139.18249999995,
      "d": 186.0460000000021,
      "v": 80
    },
    {
      "midi": 71,
      "hit": false,
      "t": 128139.18249999995,
      "d": 186.0460000000021,
      "v": 80
    },
    {
      "midi": 63,
      "hit": false,
      "t": 128371.73999999995,
      "d": 186.0460000000021,
      "v": 80
    },
    {
      "midi": 67,
      "hit": false,
      "t": 128371.73999999995,
      "d": 186.0460000000021,
      "v": 80
    },
    {
      "midi": 72,
      "hit": false,
      "t": 128371.73999999995,
      "d": 186.0460000000021,
      "v": 80
    },
    {
      "midi": 67,
      "hit": false,
      "t": 129767.08499999995,
      "d": 186.0460000000021,
      "v": 80
    },
    {
      "midi": 70,
      "hit": false,
      "t": 129767.08499999995,
      "d": 186.0460000000021,
      "v": 80
    },
    {
      "midi": 75,
      "hit": false,
      "t": 129767.08499999995,
      "d": 186.0460000000021,
      "v": 80
    },
    {
      "midi": 67,
      "hit": false,
      "t": 129999.64249999994,
      "d": 93.02300000000105,
      "v": 80
    },
    {
      "midi": 70,
      "hit": false,
      "t": 129999.64249999994,
      "d": 93.02300000000105,
      "v": 80
    },
    {
      "midi": 75,
      "hit": false,
      "t": 129999.64249999994,
      "d": 93.02300000000105,
      "v": 80
    },
    {
      "midi": 67,
      "hit": false,
      "t": 130115.92124999994,
      "d": 93.02300000000105,
      "v": 80
    },
    {
      "midi": 70,
      "hit": false,
      "t": 130115.92124999994,
      "d": 93.02300000000105,
      "v": 80
    },
    {
      "midi": 75,
      "hit": false,
      "t": 130115.92124999994,
      "d": 93.02300000000105,
      "v": 80
    },
    {
      "midi": 63,
      "hit": false,
      "t": 130232.19999999994,
      "d": 186.0460000000021,
      "v": 80
    },
    {
      "midi": 67,
      "hit": false,
      "t": 130232.19999999994,
      "d": 186.0460000000021,
      "v": 80
    },
    {
      "midi": 72,
      "hit": false,
      "t": 130232.19999999994,
      "d": 186.0460000000021,
      "v": 80
    },
    {
      "midi": 63,
      "hit": false,
      "t": 131394.98749999993,
      "d": 186.0460000000021,
      "v": 80
    },
    {
      "midi": 70,
      "hit": false,
      "t": 131394.98749999993,
      "d": 418.60349999999744,
      "v": 80
    },
    {
      "midi": 67,
      "hit": false,
      "t": 131394.98749999993,
      "d": 651.1609999999928,
      "v": 80
    },
    {
      "midi": 62,
      "hit": false,
      "t": 131627.54499999993,
      "d": 186.0460000000021,
      "v": 80
    },
    {
      "midi": 62,
      "hit": false,
      "t": 131860.10249999992,
      "d": 186.0460000000021,
      "v": 80
    },
    {
      "midi": 71,
      "hit": false,
      "t": 131860.10249999992,
      "d": 186.0460000000021,
      "v": 80
    }
  ]
}