{
  "jsonPath": "Rock/Album Rock/Pretenders/hymn-to-her-re-mastered-for-pirate-radio.json",
  "path": "Rock\\Album Rock\\Pretenders\\Hymn To Her (Re-mastered for Pirate Radio).mid",
  "name": "Hymn To Her (Re-mastered for Pirate Radio)",
  "difficulty": "Advanced",
  "bpm": 96,
  "notes": [
    {
      "midi": 57,
      "hit": false,
      "t": 2500,
      "d": 2268.880208333333,
      "v": 91
    },
    {
      "midi": 53,
      "hit": false,
      "t": 2500,
      "d": 2460.937499999999,
      "v": 95
    },
    {
      "midi": 60,
      "hit": false,
      "t": 2812.5,
      "d": 2057.291666666666,
      "v": 77
    },
    {
      "midi": 65,
      "hit": false,
      "t": 3125,
      "d": 397.1354166666665,
      "v": 100
    },
    {
      "midi": 64,
      "hit": false,
      "t": 3437.5,
      "d": 641.2760416666665,
      "v": 93
    },
    {
      "midi": 67,
      "hit": false,
      "t": 3437.5,
      "d": 641.2760416666665,
      "v": 104
    },
    {
      "midi": 65,
      "hit": false,
      "t": 4062.5,
      "d": 917.9687499999991,
      "v": 81
    },
    {
      "midi": 69,
      "hit": false,
      "t": 4062.5,
      "d": 917.9687499999991,
      "v": 92
    },
    {
      "midi": 55,
      "hit": false,
      "t": 4999.999999999999,
      "d": 2252.604166666668,
      "v": 100
    },
    {
      "midi": 52,
      "hit": false,
      "t": 4999.999999999999,
      "d": 2408.854166666668,
      "v": 94
    },
    {
      "midi": 60,
      "hit": false,
      "t": 5312.499999999999,
      "d": 608.723958333333,
      "v": 91
    },
    {
      "midi": 64,
      "hit": false,
      "t": 5624.999999999999,
      "d": 302.734375,
      "v": 101
    },
    {
      "midi": 67,
      "hit": false,
      "t": 5624.999999999999,
      "d": 553.385416666667,
      "v": 99
    },
    {
      "midi": 59,
      "hit": false,
      "t": 5937.499999999999,
      "d": 618.4895833333339,
      "v": 82
    },
    {
      "midi": 62,
      "hit": false,
      "t": 5937.499999999999,
      "d": 618.4895833333339,
      "v": 96
    },
    {
      "midi": 60,
      "hit": false,
      "t": 6562.5,
      "d": 901.6927083333339,
      "v": 84
    },
    {
      "midi": 64,
      "hit": false,
      "t": 6562.5,
      "d": 901.6927083333339,
      "v": 98
    },
    {
      "midi": 55,
      "hit": false,
      "t": 7500.000000000001,
      "d": 2480.468749999999,
      "v": 89
    },
    {
      "midi": 59,
      "hit": false,
      "t": 7500.000000000001,
      "d": 2480.468749999999,
      "v": 94
    },
    {
      "midi": 62,
      "hit": false,
      "t": 7812.500000000001,
      "d": 1998.6979166666652,
      "v": 91
    },
    {
      "midi": 71,
      "hit": false,
      "t": 8125.000000000001,
      "d": 292.9687499999991,
      "v": 98
    },
    {
      "midi": 67,
      "hit": false,
      "t": 8125.000000000001,
      "d": 302.7343749999991,
      "v": 88
    },
    {
      "midi": 67,
      "hit": false,
      "t": 8437.5,
      "d": 608.7239583333339,
      "v": 79
    },
    {
      "midi": 69,
      "hit": false,
      "t": 8437.5,
      "d": 644.53125,
      "v": 100
    },
    {
      "midi": 67,
      "hit": false,
      "t": 9062.5,
      "d": 904.9479166666661,
      "v": 79
    },
    {
      "midi": 71,
      "hit": false,
      "t": 9062.5,
      "d": 904.9479166666661,
      "v": 89
    },
    {
      "midi": 55,
      "hit": false,
      "t": 10000,
      "d": 2252.6041666666642,
      "v": 100
    },
    {
      "midi": 52,
      "hit": false,
      "t": 10000,
      "d": 2408.8541666666642,
      "v": 94
    },
    {
      "midi": 60,
      "hit": false,
      "t": 10312.5,
      "d": 608.7239583333339,
      "v": 91
    },
    {
      "midi": 64,
      "hit": false,
      "t": 10625,
      "d": 302.734375,
      "v": 101
    },
    {
      "midi": 67,
      "hit": false,
      "t": 10625,
      "d": 553.3854166666661,
      "v": 99
    },
    {
      "midi": 59,
      "hit": false,
      "t": 10937.5,
      "d": 618.4895833333321,
      "v": 82
    },
    {
      "midi": 62,
      "hit": false,
      "t": 10937.5,
      "d": 618.4895833333321,
      "v": 96
    },
    {
      "midi": 60,
      "hit": false,
      "t": 11562.499999999998,
      "d": 901.6927083333321,
      "v": 84
    },
    {
      "midi": 64,
      "hit": false,
      "t": 11562.499999999998,
      "d": 901.6927083333321,
      "v": 98
    },
    {
      "midi": 57,
      "hit": false,
      "t": 12499.999999999996,
      "d": 2268.880208333332,
      "v": 91
    },
    {
      "midi": 53,
      "hit": false,
      "t": 12499.999999999996,
      "d": 2460.9375,
      "v": 95
    },
    {
      "midi": 60,
      "hit": false,
      "t": 12812.499999999996,
      "d": 2057.291666666666,
      "v": 77
    },
    {
      "midi": 65,
      "hit": false,
      "t": 13124.999999999996,
      "d": 397.13541666666606,
      "v": 100
    },
    {
      "midi": 64,
      "hit": false,
      "t": 13437.499999999996,
      "d": 641.2760416666661,
      "v": 93
    },
    {
      "midi": 67,
      "hit": false,
      "t": 13437.499999999996,
      "d": 641.2760416666661,
      "v": 104
    },
    {
      "midi": 65,
      "hit": false,
      "t": 14062.499999999996,
      "d": 917.96875,
      "v": 81
    },
    {
      "midi": 69,
      "hit": false,
      "t": 14062.499999999996,
      "d": 917.96875,
      "v": 92
    },
    {
      "midi": 55,
      "hit": false,
      "t": 14999.999999999996,
      "d": 2252.604166666668,
      "v": 100
    },
    {
      "midi": 52,
      "hit": false,
      "t": 14999.999999999996,
      "d": 2408.854166666668,
      "v": 94
    },
    {
      "midi": 60,
      "hit": false,
      "t": 15312.499999999996,
      "d": 608.7239583333339,
      "v": 91
    },
    {
      "midi": 64,
      "hit": false,
      "t": 15624.999999999996,
      "d": 302.734375,
      "v": 101
    },
    {
      "midi": 67,
      "hit": false,
      "t": 15624.999999999996,
      "d": 553.3854166666661,
      "v": 99
    },
    {
      "midi": 59,
      "hit": false,
      "t": 15937.499999999996,
      "d": 618.4895833333321,
      "v": 82
    },
    {
      "midi": 62,
      "hit": false,
      "t": 15937.499999999996,
      "d": 618.4895833333321,
      "v": 96
    },
    {
      "midi": 60,
      "hit": false,
      "t": 16562.499999999996,
      "d": 901.6927083333358,
      "v": 84
    },
    {
      "midi": 64,
      "hit": false,
      "t": 16562.499999999996,
      "d": 901.6927083333358,
      "v": 98
    },
    {
      "midi": 55,
      "hit": false,
      "t": 17500,
      "d": 299.4791666666679,
      "v": 89
    },
    {
      "midi": 59,
      "hit": false,
      "t": 17500,
      "d": 4814.453125000004,
      "v": 89
    },
    {
      "midi": 55,
      "hit": false,
      "t": 17812.5,
      "d": 2379.557291666668,
      "v": 92
    },
    {
      "midi": 62,
      "hit": false,
      "t": 18125,
      "d": 2395.8333333333358,
      "v": 96
    },
    {
      "midi": 67,
      "hit": false,
      "t": 18437.5,
      "d": 2037.7604166666679,
      "v": 105
    },
    {
      "midi": 55,
      "hit": false,
      "t": 20312.5,
      "d": 2148.4375000000036,
      "v": 95
    },
    {
      "midi": 62,
      "hit": false,
      "t": 20625.000000000004,
      "d": 1819.6614583333321,
      "v": 96
    },
    {
      "midi": 67,
      "hit": false,
      "t": 20937.500000000004,
      "d": 1507.1614583333321,
      "v": 99
    },
    {
      "midi": 60,
      "hit": false,
      "t": 22500.000000000004,
      "d": 4824.21875,
      "v": 76
    },
    {
      "midi": 55,
      "hit": false,
      "t": 22503.255208333336,
      "d": 4781.901041666668,
      "v": 83
    },
    {
      "midi": 64,
      "hit": false,
      "t": 22503.255208333336,
      "d": 4814.453125,
      "v": 91
    },
    {
      "midi": 60,
      "hit": false,
      "t": 27493.489583333336,
      "d": 2395.833333333332,
      "v": 72
    },
    {
      "midi": 64,
      "hit": false,
      "t": 27496.744791666668,
      "d": 2360.026041666668,
      "v": 81
    },
    {
      "midi": 55,
      "hit": false,
      "t": 27503.255208333336,
      "d": 2347.005208333332,
      "v": 81
    },
    {
      "midi": 55,
      "hit": false,
      "t": 29993.489583333336,
      "d": 2486.9791666666606,
      "v": 76
    },
    {
      "midi": 59,
      "hit": false,
      "t": 29996.744791666668,
      "d": 2477.2135416666606,
      "v": 86
    },
    {
      "midi": 62,
      "hit": false,
      "t": 30000,
      "d": 2486.9791666666642,
      "v": 84
    },
    {
      "midi": 71,
      "hit": false,
      "t": 30618.489583333332,
      "d": 253.90625,
      "v": 95
    },
    {
      "midi": 74,
      "hit": false,
      "t": 30628.255208333332,
      "d": 253.90625,
      "v": 90
    },
    {
      "midi": 72,
      "hit": false,
      "t": 30937.5,
      "d": 286.4583333333321,
      "v": 98
    },
    {
      "midi": 69,
      "hit": false,
      "t": 30940.755208333332,
      "d": 286.4583333333321,
      "v": 89
    },
    {
      "midi": 71,
      "hit": false,
      "t": 31559.244791666664,
      "d": 885.4166666666642,
      "v": 95
    },
    {
      "midi": 74,
      "hit": false,
      "t": 31562.499999999996,
      "d": 888.671875,
      "v": 88
    },
    {
      "midi": 59,
      "hit": false,
      "t": 32496.744791666664,
      "d": 4964.192708333336,
      "v": 86
    },
    {
      "midi": 62,
      "hit": false,
      "t": 32496.744791666664,
      "d": 4964.192708333336,
      "v": 84
    },
    {
      "midi": 55,
      "hit": false,
      "t": 32499.999999999996,
      "d": 4964.192708333339,
      "v": 76
    },
    {
      "midi": 62,
      "hit": false,
      "t": 37496.74479166667,
      "d": 2360.0260416666642,
      "v": 81
    },
    {
      "midi": 59,
      "hit": false,
      "t": 37496.74479166667,
      "d": 2395.8333333333285,
      "v": 72
    },
    {
      "midi": 55,
      "hit": false,
      "t": 37503.255208333336,
      "d": 2347.0052083333358,
      "v": 81
    },
    {
      "midi": 60,
      "hit": false,
      "t": 39996.744791666664,
      "d": 2477.213541666679,
      "v": 86
    },
    {
      "midi": 64,
      "hit": false,
      "t": 39996.744791666664,
      "d": 2486.979166666679,
      "v": 84
    },
    {
      "midi": 55,
      "hit": false,
      "t": 40003.25520833333,
      "d": 2486.979166666679,
      "v": 76
    },
    {
      "midi": 76,
      "hit": false,
      "t": 40621.744791666664,
      "d": 253.90625,
      "v": 90
    },
    {
      "midi": 72,
      "hit": false,
      "t": 40625,
      "d": 253.90625,
      "v": 95
    },
    {
      "midi": 71,
      "hit": false,
      "t": 40930.989583333336,
      "d": 286.45833333333576,
      "v": 89
    },
    {
      "midi": 74,
      "hit": false,
      "t": 40934.24479166667,
      "d": 286.45833333333576,
      "v": 98
    },
    {
      "midi": 76,
      "hit": false,
      "t": 41555.98958333334,
      "d": 888.671875,
      "v": 88
    },
    {
      "midi": 72,
      "hit": false,
      "t": 41559.24479166668,
      "d": 885.4166666666642,
      "v": 95
    },
    {
      "midi": 57,
      "hit": false,
      "t": 42496.74479166667,
      "d": 3.2552083333357587,
      "v": 85
    },
    {
      "midi": 57,
      "hit": false,
      "t": 42503.25520833334,
      "d": 2268.8802083333285,
      "v": 87
    },
    {
      "midi": 53,
      "hit": false,
      "t": 42503.25520833334,
      "d": 2460.9374999999927,
      "v": 91
    },
    {
      "midi": 60,
      "hit": false,
      "t": 42812.50000000001,
      "d": 2057.2916666666642,
      "v": 73
    },
    {
      "midi": 65,
      "hit": false,
      "t": 43121.74479166667,
      "d": 397.13541666666424,
      "v": 96
    },
    {
      "midi": 67,
      "hit": false,
      "t": 43430.989583333336,
      "d": 641.2760416666715,
      "v": 100
    },
    {
      "midi": 64,
      "hit": false,
      "t": 43440.755208333336,
      "d": 641.2760416666715,
      "v": 89
    },
    {
      "midi": 65,
      "hit": false,
      "t": 44059.24479166667,
      "d": 917.96875,
      "v": 77
    },
    {
      "midi": 69,
      "hit": false,
      "t": 44062.50000000001,
      "d": 917.96875,
      "v": 88
    },
    {
      "midi": 55,
      "hit": false,
      "t": 45003.25520833334,
      "d": 2252.6041666666715,
      "v": 96
    },
    {
      "midi": 52,
      "hit": false,
      "t": 45003.25520833334,
      "d": 2408.8541666666715,
      "v": 90
    },
    {
      "midi": 60,
      "hit": false,
      "t": 45312.50000000001,
      "d": 608.7239583333358,
      "v": 87
    },
    {
      "midi": 64,
      "hit": false,
      "t": 45618.48958333334,
      "d": 302.734375,
      "v": 97
    },
    {
      "midi": 67,
      "hit": false,
      "t": 45625.00000000001,
      "d": 553.3854166666715,
      "v": 95
    },
    {
      "midi": 62,
      "hit": false,
      "t": 45934.24479166668,
      "d": 618.4895833333358,
      "v": 92
    },
    {
      "midi": 59,
      "hit": false,
      "t": 45937.500000000015,
      "d": 618.4895833333358,
      "v": 78
    },
    {
      "midi": 60,
      "hit": false,
      "t": 46555.98958333335,
      "d": 901.6927083333285,
      "v": 80
    },
    {
      "midi": 64,
      "hit": false,
      "t": 46555.98958333335,
      "d": 901.6927083333285,
      "v": 94
    },
    {
      "midi": 55,
      "hit": false,
      "t": 47493.48958333334,
      "d": 2480.4687499999854,
      "v": 85
    },
    {
      "midi": 59,
      "hit": false,
      "t": 47500.00000000001,
      "d": 2480.4687499999854,
      "v": 90
    },
    {
      "midi": 62,
      "hit": false,
      "t": 47812.50000000001,
      "d": 1998.6979166666497,
      "v": 87
    },
    {
      "midi": 71,
      "hit": false,
      "t": 48125.00000000001,
      "d": 292.96875,
      "v": 94
    },
    {
      "midi": 67,
      "hit": false,
      "t": 48128.25520833334,
      "d": 296.2239583333285,
      "v": 84
    },
    {
      "midi": 67,
      "hit": false,
      "t": 48430.989583333336,
      "d": 608.7239583333285,
      "v": 75
    },
    {
      "midi": 69,
      "hit": false,
      "t": 48437.5,
      "d": 644.5312499999927,
      "v": 96
    },
    {
      "midi": 71,
      "hit": false,
      "t": 49055.98958333333,
      "d": 904.9479166666642,
      "v": 85
    },
    {
      "midi": 67,
      "hit": false,
      "t": 49065.75520833333,
      "d": 904.9479166666642,
      "v": 75
    },
    {
      "midi": 64,
      "hit": false,
      "t": 49996.74479166666,
      "d": 2486.9791666666715,
      "v": 84
    },
    {
      "midi": 60,
      "hit": false,
      "t": 50003.25520833332,
      "d": 2477.2135416666715,
      "v": 86
    },
    {
      "midi": 55,
      "hit": false,
      "t": 50003.25520833332,
      "d": 2483.723958333343,
      "v": 76
    },
    {
      "midi": 72,
      "hit": false,
      "t": 50621.74479166666,
      "d": 253.90625,
      "v": 95
    },
    {
      "midi": 76,
      "hit": false,
      "t": 50628.25520833332,
      "d": 253.90625,
      "v": 90
    },
    {
      "midi": 67,
      "hit": false,
      "t": 50628.25520833332,
      "d": 895.1822916666642,
      "v": 86
    },
    {
      "midi": 71,
      "hit": false,
      "t": 50930.98958333332,
      "d": 328.77604166666424,
      "v": 89
    },
    {
      "midi": 74,
      "hit": false,
      "t": 50940.75520833332,
      "d": 328.77604166666424,
      "v": 98
    },
    {
      "midi": 76,
      "hit": false,
      "t": 51559.24479166665,
      "d": 888.6718750000073,
      "v": 88
    },
    {
      "midi": 67,
      "hit": false,
      "t": 51562.499999999985,
      "d": 901.692708333343,
      "v": 86
    },
    {
      "midi": 72,
      "hit": false,
      "t": 51565.75520833332,
      "d": 885.4166666666715,
      "v": 95
    },
    {
      "midi": 55,
      "hit": false,
      "t": 52493.48958333333,
      "d": 299.47916666666424,
      "v": 89
    },
    {
      "midi": 59,
      "hit": false,
      "t": 52503.25520833333,
      "d": 4814.453125,
      "v": 89
    },
    {
      "midi": 55,
      "hit": false,
      "t": 52812.49999999999,
      "d": 2379.5572916666715,
      "v": 92
    },
    {
      "midi": 62,
      "hit": false,
      "t": 53118.48958333333,
      "d": 2395.8333333333358,
      "v": 94
    },
    {
      "midi": 67,
      "hit": false,
      "t": 53434.244791666664,
      "d": 2037.7604166666642,
      "v": 103
    },
    {
      "midi": 55,
      "hit": false,
      "t": 55315.75520833333,
      "d": 2148.4374999999927,
      "v": 95
    },
    {
      "midi": 62,
      "hit": false,
      "t": 55628.25520833333,
      "d": 1819.6614583333285,
      "v": 94
    },
    {
      "midi": 67,
      "hit": false,
      "t": 55934.244791666664,
      "d": 1507.1614583333285,
      "v": 97
    },
    {
      "midi": 55,
      "hit": false,
      "t": 57503.25520833332,
      "d": 299.47916666666424,
      "v": 89
    },
    {
      "midi": 59,
      "hit": false,
      "t": 57503.25520833332,
      "d": 4814.453125,
      "v": 89
    },
    {
      "midi": 55,
      "hit": false,
      "t": 57812.499999999985,
      "d": 2379.5572916666715,
      "v": 92
    },
    {
      "midi": 62,
      "hit": false,
      "t": 58128.25520833332,
      "d": 2395.8333333333358,
      "v": 94
    },
    {
      "midi": 67,
      "hit": false,
      "t": 58430.98958333332,
      "d": 2037.7604166666715,
      "v": 103
    },
    {
      "midi": 55,
      "hit": false,
      "t": 60312.49999999999,
      "d": 2148.4375,
      "v": 95
    },
    {
      "midi": 62,
      "hit": false,
      "t": 60628.25520833332,
      "d": 1819.6614583333358,
      "v": 94
    },
    {
      "midi": 67,
      "hit": false,
      "t": 60937.499999999985,
      "d": 1507.1614583333358,
      "v": 97
    },
    {
      "midi": 53,
      "hit": false,
      "t": 62499.99999999999,
      "d": 2460.9375,
      "v": 98
    },
    {
      "midi": 57,
      "hit": false,
      "t": 62499.99999999999,
      "d": 2460.9375,
      "v": 94
    },
    {
      "midi": 60,
      "hit": false,
      "t": 62499.99999999999,
      "d": 2460.9375,
      "v": 80
    },
    {
      "midi": 65,
      "hit": false,
      "t": 62499.99999999999,
      "d": 2460.9375,
      "v": 103
    },
    {
      "midi": 52,
      "hit": false,
      "t": 64999.99999999999,
      "d": 2460.9375000000073,
      "v": 97
    },
    {
      "midi": 55,
      "hit": false,
      "t": 64999.99999999999,
      "d": 2460.9375000000073,
      "v": 103
    },
    {
      "midi": 60,
      "hit": false,
      "t": 64999.99999999999,
      "d": 2460.9375000000073,
      "v": 94
    },
    {
      "midi": 64,
      "hit": false,
      "t": 64999.99999999999,
      "d": 2460.9375000000073,
      "v": 104
    },
    {
      "midi": 55,
      "hit": false,
      "t": 67500,
      "d": 2460.9375,
      "v": 92
    },
    {
      "midi": 59,
      "hit": false,
      "t": 67500,
      "d": 2460.9375,
      "v": 97
    },
    {
      "midi": 62,
      "hit": false,
      "t": 67500,
      "d": 2460.9375,
      "v": 94
    },
    {
      "midi": 67,
      "hit": false,
      "t": 67500,
      "d": 2460.9375,
      "v": 91
    },
    {
      "midi": 55,
      "hit": false,
      "t": 70000,
      "d": 2252.604166666686,
      "v": 103
    },
    {
      "midi": 52,
      "hit": false,
      "t": 70000,
      "d": 2408.854166666686,
      "v": 97
    },
    {
      "midi": 60,
      "hit": false,
      "t": 70312.5,
      "d": 608.7239583333285,
      "v": 94
    },
    {
      "midi": 64,
      "hit": false,
      "t": 70625,
      "d": 302.734375,
      "v": 104
    },
    {
      "midi": 67,
      "hit": false,
      "t": 70625,
      "d": 553.3854166666715,
      "v": 102
    },
    {
      "midi": 59,
      "hit": false,
      "t": 70937.5,
      "d": 618.489583333343,
      "v": 85
    },
    {
      "midi": 62,
      "hit": false,
      "t": 70937.5,
      "d": 618.489583333343,
      "v": 99
    },
    {
      "midi": 60,
      "hit": false,
      "t": 71562.50000000001,
      "d": 901.692708333343,
      "v": 87
    },
    {
      "midi": 64,
      "hit": false,
      "t": 71562.50000000001,
      "d": 901.692708333343,
      "v": 101
    },
    {
      "midi": 53,
      "hit": false,
      "t": 72500.00000000003,
      "d": 2460.9375,
      "v": 98
    },
    {
      "midi": 57,
      "hit": false,
      "t": 72500.00000000003,
      "d": 2460.9375,
      "v": 94
    },
    {
      "midi": 60,
      "hit": false,
      "t": 72500.00000000003,
      "d": 2460.9375,
      "v": 80
    },
    {
      "midi": 65,
      "hit": false,
      "t": 72500.00000000003,
      "d": 2460.9375,
      "v": 103
    },
    {
      "midi": 52,
      "hit": false,
      "t": 75000.00000000003,
      "d": 2460.9375,
      "v": 97
    },
    {
      "midi": 55,
      "hit": false,
      "t": 75000.00000000003,
      "d": 2460.9375,
      "v": 103
    },
    {
      "midi": 60,
      "hit": false,
      "t": 75000.00000000003,
      "d": 2460.9375,
      "v": 94
    },
    {
      "midi": 64,
      "hit": false,
      "t": 75000.00000000003,
      "d": 2460.9375,
      "v": 104
    },
    {
      "midi": 59,
      "hit": false,
      "t": 77500.00000000003,
      "d": 2460.9375,
      "v": 92
    },
    {
      "midi": 67,
      "hit": false,
      "t": 77500.00000000003,
      "d": 2460.9375,
      "v": 92
    },
    {
      "midi": 55,
      "hit": false,
      "t": 77500.00000000003,
      "d": 4960.9375,
      "v": 92
    },
    {
      "midi": 71,
      "hit": false,
      "t": 80000.00000000003,
      "d": 2460.9375,
      "v": 92
    },
    {
      "midi": 74,
      "hit": false,
      "t": 80000.00000000003,
      "d": 2460.9375,
      "v": 95
    },
    {
      "midi": 79,
      "hit": false,
      "t": 80000.00000000003,
      "d": 2460.9375,
      "v": 95
    },
    {
      "midi": 55,
      "hit": false,
      "t": 82500.00000000003,
      "d": 2252.604166666686,
      "v": 102
    },
    {
      "midi": 52,
      "hit": false,
      "t": 82500.00000000003,
      "d": 2408.854166666686,
      "v": 96
    },
    {
      "midi": 60,
      "hit": false,
      "t": 82812.50000000003,
      "d": 608.7239583333285,
      "v": 93
    },
    {
      "midi": 64,
      "hit": false,
      "t": 83125.00000000003,
      "d": 302.734375,
      "v": 103
    },
    {
      "midi": 67,
      "hit": false,
      "t": 83125.00000000003,
      "d": 553.3854166666715,
      "v": 101
    },
    {
      "midi": 59,
      "hit": false,
      "t": 83437.50000000003,
      "d": 618.489583333343,
      "v": 84
    },
    {
      "midi": 62,
      "hit": false,
      "t": 83437.50000000003,
      "d": 618.489583333343,
      "v": 98
    },
    {
      "midi": 60,
      "hit": false,
      "t": 84062.50000000004,
      "d": 901.692708333343,
      "v": 86
    },
    {
      "midi": 64,
      "hit": false,
      "t": 84062.50000000004,
      "d": 901.692708333343,
      "v": 100
    },
    {
      "midi": 55,
      "hit": false,
      "t": 85000.00000000006,
      "d": 2252.604166666686,
      "v": 102
    },
    {
      "midi": 52,
      "hit": false,
      "t": 85000.00000000006,
      "d": 2408.854166666686,
      "v": 96
    },
    {
      "midi": 60,
      "hit": false,
      "t": 85312.50000000006,
      "d": 608.7239583333285,
      "v": 93
    },
    {
      "midi": 64,
      "hit": false,
      "t": 85625.00000000006,
      "d": 302.734375,
      "v": 103
    },
    {
      "midi": 67,
      "hit": false,
      "t": 85625.00000000006,
      "d": 553.3854166666715,
      "v": 101
    },
    {
      "midi": 59,
      "hit": false,
      "t": 85937.50000000006,
      "d": 618.489583333343,
      "v": 84
    },
    {
      "midi": 62,
      "hit": false,
      "t": 85937.50000000006,
      "d": 618.489583333343,
      "v": 98
    },
    {
      "midi": 60,
      "hit": false,
      "t": 86562.50000000007,
      "d": 901.692708333343,
      "v": 86
    },
    {
      "midi": 64,
      "hit": false,
      "t": 86562.50000000007,
      "d": 901.692708333343,
      "v": 100
    },
    {
      "midi": 60,
      "hit": false,
      "t": 87500.00000000009,
      "d": 4824.21875,
      "v": 76
    },
    {
      "midi": 55,
      "hit": false,
      "t": 87503.25520833342,
      "d": 4781.9010416666715,
      "v": 83
    },
    {
      "midi": 64,
      "hit": false,
      "t": 87503.25520833342,
      "d": 4814.453125,
      "v": 91
    },
    {
      "midi": 60,
      "hit": false,
      "t": 92493.48958333342,
      "d": 2395.8333333333285,
      "v": 72
    },
    {
      "midi": 64,
      "hit": false,
      "t": 92496.74479166674,
      "d": 2360.0260416666715,
      "v": 81
    },
    {
      "midi": 55,
      "hit": false,
      "t": 92503.25520833342,
      "d": 2347.0052083333285,
      "v": 81
    },
    {
      "midi": 55,
      "hit": false,
      "t": 94993.48958333342,
      "d": 2467.4479166666424,
      "v": 76
    },
    {
      "midi": 59,
      "hit": false,
      "t": 94996.74479166674,
      "d": 2477.2135416666424,
      "v": 86
    },
    {
      "midi": 62,
      "hit": false,
      "t": 95000.00000000007,
      "d": 2486.979166666657,
      "v": 84
    },
    {
      "midi": 71,
      "hit": false,
      "t": 95618.4895833334,
      "d": 253.90625,
      "v": 95
    },
    {
      "midi": 74,
      "hit": false,
      "t": 95628.2552083334,
      "d": 253.90625,
      "v": 90
    },
    {
      "midi": 72,
      "hit": false,
      "t": 95937.50000000007,
      "d": 286.4583333333285,
      "v": 98
    },
    {
      "midi": 69,
      "hit": false,
      "t": 95940.7552083334,
      "d": 286.4583333333285,
      "v": 89
    },
    {
      "midi": 71,
      "hit": false,
      "t": 96559.24479166673,
      "d": 885.416666666657,
      "v": 95
    },
    {
      "midi": 74,
      "hit": false,
      "t": 96562.50000000006,
      "d": 888.671875,
      "v": 88
    },
    {
      "midi": 55,
      "hit": false,
      "t": 97480.46875000006,
      "d": 4980.468750000015,
      "v": 76
    },
    {
      "midi": 59,
      "hit": false,
      "t": 97500.00000000006,
      "d": 4954.427083333343,
      "v": 86
    },
    {
      "midi": 62,
      "hit": false,
      "t": 97519.53125000006,
      "d": 4934.895833333343,
      "v": 84
    },
    {
      "midi": 67,
      "hit": false,
      "t": 100312.50000000006,
      "d": 1839.1927083333285,
      "v": 102
    },
    {
      "midi": 74,
      "hit": false,
      "t": 100625.00000000006,
      "d": 1542.96875,
      "v": 102
    },
    {
      "midi": 79,
      "hit": false,
      "t": 100937.50000000006,
      "d": 1266.2760416666715,
      "v": 107
    },
    {
      "midi": 62,
      "hit": false,
      "t": 102496.74479166674,
      "d": 2360.0260416666715,
      "v": 81
    },
    {
      "midi": 59,
      "hit": false,
      "t": 102496.74479166674,
      "d": 2395.833333333343,
      "v": 72
    },
    {
      "midi": 55,
      "hit": false,
      "t": 102503.25520833342,
      "d": 2347.0052083333285,
      "v": 81
    },
    {
      "midi": 60,
      "hit": false,
      "t": 104996.74479166676,
      "d": 2477.2135416666424,
      "v": 86
    },
    {
      "midi": 64,
      "hit": false,
      "t": 104996.74479166676,
      "d": 2486.9791666666424,
      "v": 84
    },
    {
      "midi": 55,
      "hit": false,
      "t": 105003.25520833343,
      "d": 2486.9791666666424,
      "v": 76
    },
    {
      "midi": 76,
      "hit": false,
      "t": 105621.74479166676,
      "d": 253.90625,
      "v": 90
    },
    {
      "midi": 72,
      "hit": false,
      "t": 105625.00000000009,
      "d": 253.90625,
      "v": 95
    },
    {
      "midi": 71,
      "hit": false,
      "t": 105930.98958333342,
      "d": 286.4583333333285,
      "v": 89
    },
    {
      "midi": 74,
      "hit": false,
      "t": 105934.24479166674,
      "d": 286.4583333333285,
      "v": 98
    },
    {
      "midi": 76,
      "hit": false,
      "t": 106555.9895833334,
      "d": 888.671875,
      "v": 88
    },
    {
      "midi": 72,
      "hit": false,
      "t": 106559.24479166673,
      "d": 885.4166666666715,
      "v": 95
    },
    {
      "midi": 57,
      "hit": false,
      "t": 107496.74479166674,
      "d": 3.2552083333284827,
      "v": 85
    },
    {
      "midi": 57,
      "hit": false,
      "t": 107503.2552083334,
      "d": 2268.880208333343,
      "v": 87
    },
    {
      "midi": 53,
      "hit": false,
      "t": 107503.2552083334,
      "d": 2460.9375000000146,
      "v": 91
    },
    {
      "midi": 60,
      "hit": false,
      "t": 107812.50000000007,
      "d": 2057.2916666666715,
      "v": 73
    },
    {
      "midi": 65,
      "hit": false,
      "t": 108121.74479166674,
      "d": 397.1354166666715,
      "v": 96
    },
    {
      "midi": 67,
      "hit": false,
      "t": 108430.98958333342,
      "d": 641.276041666657,
      "v": 100
    },
    {
      "midi": 64,
      "hit": false,
      "t": 108440.75520833342,
      "d": 641.276041666657,
      "v": 89
    },
    {
      "midi": 65,
      "hit": false,
      "t": 109059.24479166674,
      "d": 917.96875,
      "v": 77
    },
    {
      "midi": 69,
      "hit": false,
      "t": 109062.50000000007,
      "d": 917.96875,
      "v": 88
    },
    {
      "midi": 55,
      "hit": false,
      "t": 110003.2552083334,
      "d": 2252.604166666657,
      "v": 96
    },
    {
      "midi": 52,
      "hit": false,
      "t": 110003.2552083334,
      "d": 2408.854166666657,
      "v": 90
    },
    {
      "midi": 60,
      "hit": false,
      "t": 110312.50000000007,
      "d": 608.7239583333285,
      "v": 87
    },
    {
      "midi": 64,
      "hit": false,
      "t": 110618.4895833334,
      "d": 302.734375,
      "v": 97
    },
    {
      "midi": 67,
      "hit": false,
      "t": 110625.00000000007,
      "d": 553.385416666657,
      "v": 95
    },
    {
      "midi": 62,
      "hit": false,
      "t": 110934.24479166673,
      "d": 618.4895833333285,
      "v": 92
    },
    {
      "midi": 59,
      "hit": false,
      "t": 110937.50000000006,
      "d": 618.4895833333285,
      "v": 78
    },
    {
      "midi": 60,
      "hit": false,
      "t": 111555.98958333339,
      "d": 901.692708333343,
      "v": 80
    },
    {
      "midi": 64,
      "hit": false,
      "t": 111555.98958333339,
      "d": 901.692708333343,
      "v": 94
    },
    {
      "midi": 55,
      "hit": false,
      "t": 112493.4895833334,
      "d": 2480.468750000029,
      "v": 85
    },
    {
      "midi": 59,
      "hit": false,
      "t": 112500.00000000007,
      "d": 2480.468750000029,
      "v": 90
    },
    {
      "midi": 62,
      "hit": false,
      "t": 112812.50000000007,
      "d": 1998.6979166667006,
      "v": 87
    },
    {
      "midi": 71,
      "hit": false,
      "t": 113125.00000000007,
      "d": 292.96875,
      "v": 94
    },
    {
      "midi": 67,
      "hit": false,
      "t": 113128.2552083334,
      "d": 296.22395833334303,
      "v": 84
    },
    {
      "midi": 67,
      "hit": false,
      "t": 113430.98958333342,
      "d": 608.723958333343,
      "v": 75
    },
    {
      "midi": 69,
      "hit": false,
      "t": 113437.50000000009,
      "d": 644.5312500000146,
      "v": 96
    },
    {
      "midi": 71,
      "hit": false,
      "t": 114055.98958333343,
      "d": 904.9479166666715,
      "v": 85
    },
    {
      "midi": 67,
      "hit": false,
      "t": 114065.75520833343,
      "d": 904.9479166666715,
      "v": 75
    },
    {
      "midi": 64,
      "hit": false,
      "t": 114996.74479166677,
      "d": 2486.979166666657,
      "v": 84
    },
    {
      "midi": 60,
      "hit": false,
      "t": 115003.25520833344,
      "d": 2477.213541666657,
      "v": 86
    },
    {
      "midi": 55,
      "hit": false,
      "t": 115003.25520833344,
      "d": 2483.723958333314,
      "v": 76
    },
    {
      "midi": 72,
      "hit": false,
      "t": 115621.74479166677,
      "d": 253.90625,
      "v": 95
    },
    {
      "midi": 76,
      "hit": false,
      "t": 115628.25520833344,
      "d": 253.90625,
      "v": 90
    },
    {
      "midi": 67,
      "hit": false,
      "t": 115628.25520833344,
      "d": 895.1822916666715,
      "v": 86
    },
    {
      "midi": 71,
      "hit": false,
      "t": 115930.98958333344,
      "d": 328.7760416666715,
      "v": 89
    },
    {
      "midi": 74,
      "hit": false,
      "t": 115940.75520833344,
      "d": 328.7760416666715,
      "v": 98
    },
    {
      "midi": 76,
      "hit": false,
      "t": 116559.24479166679,
      "d": 888.6718749999854,
      "v": 88
    },
    {
      "midi": 67,
      "hit": false,
      "t": 116562.50000000012,
      "d": 901.6927083333139,
      "v": 86
    },
    {
      "midi": 72,
      "hit": false,
      "t": 116565.75520833344,
      "d": 885.416666666657,
      "v": 95
    },
    {
      "midi": 55,
      "hit": false,
      "t": 117493.48958333343,
      "d": 299.4791666666715,
      "v": 89
    },
    {
      "midi": 59,
      "hit": false,
      "t": 117503.25520833343,
      "d": 4814.453125,
      "v": 89
    },
    {
      "midi": 55,
      "hit": false,
      "t": 117812.5000000001,
      "d": 2379.557291666657,
      "v": 92
    },
    {
      "midi": 62,
      "hit": false,
      "t": 118118.48958333343,
      "d": 2395.8333333333285,
      "v": 94
    },
    {
      "midi": 67,
      "hit": false,
      "t": 118434.24479166676,
      "d": 1845.703125,
      "v": 103
    },
    {
      "midi": 67,
      "hit": false,
      "t": 120315.75520833343,
      "d": 615.234375,
      "v": 108
    },
    {
      "midi": 55,
      "hit": false,
      "t": 120315.75520833343,
      "d": 2148.4375000000146,
      "v": 80
    },
    {
      "midi": 62,
      "hit": false,
      "t": 120628.25520833343,
      "d": 1819.661458333343,
      "v": 79
    },
    {
      "midi": 74,
      "hit": false,
      "t": 120628.25520833343,
      "d": 1819.661458333343,
      "v": 107
    },
    {
      "midi": 67,
      "hit": false,
      "t": 120934.24479166676,
      "d": 1507.161458333343,
      "v": 82
    },
    {
      "midi": 79,
      "hit": false,
      "t": 120934.24479166676,
      "d": 1507.161458333343,
      "v": 104
    },
    {
      "midi": 55,
      "hit": false,
      "t": 122503.25520833344,
      "d": 299.4791666666715,
      "v": 89
    },
    {
      "midi": 59,
      "hit": false,
      "t": 122503.25520833344,
      "d": 4814.453125,
      "v": 89
    },
    {
      "midi": 55,
      "hit": false,
      "t": 122812.50000000012,
      "d": 2379.557291666657,
      "v": 92
    },
    {
      "midi": 62,
      "hit": false,
      "t": 123128.25520833344,
      "d": 2395.8333333333285,
      "v": 94
    },
    {
      "midi": 67,
      "hit": false,
      "t": 123430.98958333344,
      "d": 1878.2552083333285,
      "v": 103
    },
    {
      "midi": 67,
      "hit": false,
      "t": 125312.5000000001,
      "d": 156.25,
      "v": 87
    },
    {
      "midi": 55,
      "hit": false,
      "t": 125312.5000000001,
      "d": 2148.4375,
      "v": 95
    },
    {
      "midi": 62,
      "hit": false,
      "t": 125628.25520833344,
      "d": 1819.6614583333285,
      "v": 94
    },
    {
      "midi": 74,
      "hit": false,
      "t": 125628.25520833344,
      "d": 1819.6614583333285,
      "v": 89
    },
    {
      "midi": 67,
      "hit": false,
      "t": 125937.50000000012,
      "d": 1507.1614583333285,
      "v": 97
    },
    {
      "midi": 79,
      "hit": false,
      "t": 125937.50000000012,
      "d": 1507.1614583333285,
      "v": 90
    },
    {
      "midi": 53,
      "hit": false,
      "t": 127500.0000000001,
      "d": 2460.9375,
      "v": 98
    },
    {
      "midi": 57,
      "hit": false,
      "t": 127500.0000000001,
      "d": 2460.9375,
      "v": 94
    },
    {
      "midi": 60,
      "hit": false,
      "t": 127500.0000000001,
      "d": 2460.9375,
      "v": 80
    },
    {
      "midi": 65,
      "hit": false,
      "t": 127500.0000000001,
      "d": 2460.9375,
      "v": 103
    },
    {
      "midi": 52,
      "hit": false,
      "t": 130000.0000000001,
      "d": 2460.9375000000146,
      "v": 97
    },
    {
      "midi": 55,
      "hit": false,
      "t": 130000.0000000001,
      "d": 2460.9375000000146,
      "v": 103
    },
    {
      "midi": 60,
      "hit": false,
      "t": 130000.0000000001,
      "d": 2460.9375000000146,
      "v": 94
    },
    {
      "midi": 64,
      "hit": false,
      "t": 130000.0000000001,
      "d": 2460.9375000000146,
      "v": 104
    },
    {
      "midi": 55,
      "hit": false,
      "t": 132500.00000000012,
      "d": 2460.9375,
      "v": 92
    },
    {
      "midi": 59,
      "hit": false,
      "t": 132500.00000000012,
      "d": 2460.9375,
      "v": 97
    },
    {
      "midi": 62,
      "hit": false,
      "t": 132500.00000000012,
      "d": 2460.9375,
      "v": 94
    },
    {
      "midi": 67,
      "hit": false,
      "t": 132500.00000000012,
      "d": 2460.9375,
      "v": 91
    },
    {
      "midi": 55,
      "hit": false,
      "t": 135000.00000000012,
      "d": 2252.604166666628,
      "v": 103
    },
    {
      "midi": 52,
      "hit": false,
      "t": 135000.00000000012,
      "d": 2408.854166666628,
      "v": 97
    },
    {
      "midi": 60,
      "hit": false,
      "t": 135312.50000000012,
      "d": 608.723958333343,
      "v": 94
    },
    {
      "midi": 64,
      "hit": false,
      "t": 135625.00000000012,
      "d": 302.734375,
      "v": 104
    },
    {
      "midi": 67,
      "hit": false,
      "t": 135625.00000000012,
      "d": 553.385416666657,
      "v": 102
    },
    {
      "midi": 59,
      "hit": false,
      "t": 135937.50000000012,
      "d": 618.4895833333139,
      "v": 85
    },
    {
      "midi": 62,
      "hit": false,
      "t": 135937.50000000012,
      "d": 618.4895833333139,
      "v": 99
    },
    {
      "midi": 60,
      "hit": false,
      "t": 136562.5000000001,
      "d": 901.6927083333139,
      "v": 87
    },
    {
      "midi": 64,
      "hit": false,
      "t": 136562.5000000001,
      "d": 901.6927083333139,
      "v": 101
    },
    {
      "midi": 53,
      "hit": false,
      "t": 137500.00000000006,
      "d": 2460.9375,
      "v": 98
    },
    {
      "midi": 57,
      "hit": false,
      "t": 137500.00000000006,
      "d": 2460.9375,
      "v": 94
    },
    {
      "midi": 60,
      "hit": false,
      "t": 137500.00000000006,
      "d": 2460.9375,
      "v": 80
    },
    {
      "midi": 65,
      "hit": false,
      "t": 137500.00000000006,
      "d": 2460.9375,
      "v": 103
    },
    {
      "midi": 52,
      "hit": false,
      "t": 140000.00000000006,
      "d": 2460.9375,
      "v": 97
    },
    {
      "midi": 55,
      "hit": false,
      "t": 140000.00000000006,
      "d": 2460.9375,
      "v": 103
    },
    {
      "midi": 60,
      "hit": false,
      "t": 140000.00000000006,
      "d": 2460.9375,
      "v": 94
    },
    {
      "midi": 64,
      "hit": false,
      "t": 140000.00000000006,
      "d": 2460.9375,
      "v": 104
    },
    {
      "midi": 59,
      "hit": false,
      "t": 142500.00000000006,
      "d": 2460.9375,
      "v": 92
    },
    {
      "midi": 67,
      "hit": false,
      "t": 142500.00000000006,
      "d": 2460.9375,
      "v": 92
    },
    {
      "midi": 55,
      "hit": false,
      "t": 142500.00000000006,
      "d": 4960.9375,
      "v": 92
    },
    {
      "midi": 71,
      "hit": false,
      "t": 145000.00000000006,
      "d": 2460.9375,
      "v": 92
    },
    {
      "midi": 74,
      "hit": false,
      "t": 145000.00000000006,
      "d": 2460.9375,
      "v": 95
    },
    {
      "midi": 79,
      "hit": false,
      "t": 145000.00000000006,
      "d": 2460.9375,
      "v": 95
    },
    {
      "midi": 60,
      "hit": false,
      "t": 147509.76562500006,
      "d": 615.2343750000291,
      "v": 81
    },
    {
      "midi": 64,
      "hit": false,
      "t": 147513.0208333334,
      "d": 628.255208333343,
      "v": 85
    },
    {
      "midi": 48,
      "hit": false,
      "t": 147513.0208333334,
      "d": 2473.958333333372,
      "v": 79
    },
    {
      "midi": 55,
      "hit": false,
      "t": 147819.01041666674,
      "d": 2161.458333333372,
      "v": 66
    },
    {
      "midi": 60,
      "hit": false,
      "t": 148141.27604166674,
      "d": 566.40625,
      "v": 89
    },
    {
      "midi": 72,
      "hit": false,
      "t": 148141.27604166674,
      "d": 566.40625,
      "v": 99
    },
    {
      "midi": 64,
      "hit": false,
      "t": 148144.5312500001,
      "d": 566.40625,
      "v": 87
    },
    {
      "midi": 76,
      "hit": false,
      "t": 148144.5312500001,
      "d": 566.40625,
      "v": 97
    },
    {
      "midi": 62,
      "hit": false,
      "t": 148750.0000000001,
      "d": 263.671875,
      "v": 87
    },
    {
      "midi": 74,
      "hit": false,
      "t": 148750.0000000001,
      "d": 263.671875,
      "v": 97
    },
    {
      "midi": 65,
      "hit": false,
      "t": 148750.0000000001,
      "d": 312.5,
      "v": 87
    },
    {
      "midi": 77,
      "hit": false,
      "t": 148750.0000000001,
      "d": 312.5,
      "v": 97
    },
    {
      "midi": 60,
      "hit": false,
      "t": 149062.5000000001,
      "d": 260.41666666665697,
      "v": 86
    },
    {
      "midi": 72,
      "hit": false,
      "t": 149062.5000000001,
      "d": 260.41666666665697,
      "v": 96
    },
    {
      "midi": 64,
      "hit": false,
      "t": 149062.5000000001,
      "d": 263.671875,
      "v": 85
    },
    {
      "midi": 76,
      "hit": false,
      "t": 149062.5000000001,
      "d": 263.671875,
      "v": 95
    },
    {
      "midi": 59,
      "hit": false,
      "t": 149375.0000000001,
      "d": 227.86458333334303,
      "v": 87
    },
    {
      "midi": 71,
      "hit": false,
      "t": 149375.0000000001,
      "d": 227.86458333334303,
      "v": 97
    },
    {
      "midi": 62,
      "hit": false,
      "t": 149375.0000000001,
      "d": 237.63020833334303,
      "v": 83
    },
    {
      "midi": 74,
      "hit": false,
      "t": 149375.0000000001,
      "d": 237.63020833334303,
      "v": 93
    },
    {
      "midi": 64,
      "hit": false,
      "t": 149684.24479166677,
      "d": 859.375,
      "v": 83
    },
    {
      "midi": 76,
      "hit": false,
      "t": 149684.24479166677,
      "d": 859.375,
      "v": 93
    },
    {
      "midi": 60,
      "hit": false,
      "t": 149687.50000000012,
      "d": 849.609375,
      "v": 86
    },
    {
      "midi": 72,
      "hit": false,
      "t": 149687.50000000012,
      "d": 849.609375,
      "v": 96
    },
    {
      "midi": 48,
      "hit": false,
      "t": 150013.02083333343,
      "d": 2473.958333333314,
      "v": 79
    },
    {
      "midi": 55,
      "hit": false,
      "t": 150319.01041666677,
      "d": 2161.458333333314,
      "v": 66
    },
    {
      "midi": 60,
      "hit": false,
      "t": 150625.00000000012,
      "d": 507.8125,
      "v": 86
    },
    {
      "midi": 72,
      "hit": false,
      "t": 150625.00000000012,
      "d": 507.8125,
      "v": 96
    },
    {
      "midi": 64,
      "hit": false,
      "t": 150625.00000000012,
      "d": 543.619791666657,
      "v": 88
    },
    {
      "midi": 76,
      "hit": false,
      "t": 150625.00000000012,
      "d": 543.619791666657,
      "v": 98
    },
    {
      "midi": 62,
      "hit": false,
      "t": 151250.00000000012,
      "d": 289.71354166665697,
      "v": 85
    },
    {
      "midi": 74,
      "hit": false,
      "t": 151250.00000000012,
      "d": 289.71354166665697,
      "v": 95
    },
    {
      "midi": 65,
      "hit": false,
      "t": 151250.00000000012,
      "d": 367.83854166665697,
      "v": 85
    },
    {
      "midi": 77,
      "hit": false,
      "t": 151250.00000000012,
      "d": 367.83854166665697,
      "v": 95
    },
    {
      "midi": 64,
      "hit": false,
      "t": 151565.75520833343,
      "d": 273.4375,
      "v": 82
    },
    {
      "midi": 76,
      "hit": false,
      "t": 151565.75520833343,
      "d": 273.4375,
      "v": 92
    },
    {
      "midi": 60,
      "hit": false,
      "t": 151565.75520833343,
      "d": 276.69270833334303,
      "v": 81
    },
    {
      "midi": 72,
      "hit": false,
      "t": 151565.75520833343,
      "d": 276.69270833334303,
      "v": 91
    },
    {
      "midi": 62,
      "hit": false,
      "t": 151875.00000000012,
      "d": 250.65104166665697,
      "v": 86
    },
    {
      "midi": 74,
      "hit": false,
      "t": 151875.00000000012,
      "d": 250.65104166665697,
      "v": 96
    },
    {
      "midi": 59,
      "hit": false,
      "t": 151875.00000000012,
      "d": 266.92708333331393,
      "v": 85
    },
    {
      "midi": 71,
      "hit": false,
      "t": 151875.00000000012,
      "d": 266.92708333331393,
      "v": 95
    },
    {
      "midi": 60,
      "hit": false,
      "t": 152187.5000000001,
      "d": 826.822916666657,
      "v": 87
    },
    {
      "midi": 72,
      "hit": false,
      "t": 152187.5000000001,
      "d": 826.822916666657,
      "v": 97
    },
    {
      "midi": 64,
      "hit": false,
      "t": 152187.5000000001,
      "d": 830.078125,
      "v": 82
    },
    {
      "midi": 76,
      "hit": false,
      "t": 152187.5000000001,
      "d": 830.078125,
      "v": 92
    },
    {
      "midi": 48,
      "hit": false,
      "t": 152513.0208333334,
      "d": 2473.958333333372,
      "v": 79
    },
    {
      "midi": 55,
      "hit": false,
      "t": 152819.01041666674,
      "d": 2161.458333333372,
      "v": 66
    },
    {
      "midi": 60,
      "hit": false,
      "t": 153121.74479166674,
      "d": 625,
      "v": 87
    },
    {
      "midi": 72,
      "hit": false,
      "t": 153121.74479166674,
      "d": 625,
      "v": 97
    },
    {
      "midi": 64,
      "hit": false,
      "t": 153121.74479166674,
      "d": 647.786458333343,
      "v": 85
    },
    {
      "midi": 76,
      "hit": false,
      "t": 153121.74479166674,
      "d": 647.786458333343,
      "v": 95
    },
    {
      "midi": 62,
      "hit": false,
      "t": 153750.0000000001,
      "d": 305.98958333334303,
      "v": 84
    },
    {
      "midi": 74,
      "hit": false,
      "t": 153750.0000000001,
      "d": 305.98958333334303,
      "v": 94
    },
    {
      "midi": 65,
      "hit": false,
      "t": 153753.25520833343,
      "d": 358.07291666665697,
      "v": 85
    },
    {
      "midi": 77,
      "hit": false,
      "t": 153753.25520833343,
      "d": 358.07291666665697,
      "v": 95
    },
    {
      "midi": 64,
      "hit": false,
      "t": 154062.5000000001,
      "d": 305.98958333334303,
      "v": 85
    },
    {
      "midi": 76,
      "hit": false,
      "t": 154062.5000000001,
      "d": 305.98958333334303,
      "v": 95
    },
    {
      "midi": 60,
      "hit": false,
      "t": 154072.2656250001,
      "d": 292.96875,
      "v": 75
    },
    {
      "midi": 72,
      "hit": false,
      "t": 154072.2656250001,
      "d": 292.96875,
      "v": 85
    },
    {
      "midi": 60,
      "hit": false,
      "t": 154378.25520833343,
      "d": 305.98958333331393,
      "v": 80
    },
    {
      "midi": 72,
      "hit": false,
      "t": 154378.25520833343,
      "d": 305.98958333331393,
      "v": 90
    },
    {
      "midi": 57,
      "hit": false,
      "t": 154384.7656250001,
      "d": 302.734375,
      "v": 97
    },
    {
      "midi": 69,
      "hit": false,
      "t": 154384.7656250001,
      "d": 302.734375,
      "v": 87
    },
    {
      "midi": 62,
      "hit": false,
      "t": 154690.75520833343,
      "d": 738.9322916666861,
      "v": 82
    },
    {
      "midi": 74,
      "hit": false,
      "t": 154690.75520833343,
      "d": 738.9322916666861,
      "v": 92
    },
    {
      "midi": 59,
      "hit": false,
      "t": 154694.01041666677,
      "d": 732.421875,
      "v": 86
    },
    {
      "midi": 71,
      "hit": false,
      "t": 154694.01041666677,
      "d": 732.421875,
      "v": 96
    },
    {
      "midi": 43,
      "hit": false,
      "t": 155013.02083333343,
      "d": 2473.958333333372,
      "v": 79
    },
    {
      "midi": 55,
      "hit": false,
      "t": 155319.01041666677,
      "d": 2473.958333333343,
      "v": 66
    },
    {
      "midi": 59,
      "hit": false,
      "t": 155621.74479166677,
      "d": 625,
      "v": 87
    },
    {
      "midi": 71,
      "hit": false,
      "t": 155621.74479166677,
      "d": 625,
      "v": 97
    },
    {
      "midi": 62,
      "hit": false,
      "t": 155621.74479166677,
      "d": 934.2447916666861,
      "v": 85
    },
    {
      "midi": 74,
      "hit": false,
      "t": 155621.74479166677,
      "d": 934.2447916666861,
      "v": 95
    },
    {
      "midi": 60,
      "hit": false,
      "t": 156250.00000000012,
      "d": 296.22395833334303,
      "v": 84
    },
    {
      "midi": 72,
      "hit": false,
      "t": 156250.00000000012,
      "d": 296.22395833334303,
      "v": 94
    },
    {
      "midi": 64,
      "hit": false,
      "t": 156253.25520833346,
      "d": 296.22395833334303,
      "v": 85
    },
    {
      "midi": 76,
      "hit": false,
      "t": 156253.25520833346,
      "d": 296.22395833334303,
      "v": 95
    },
    {
      "midi": 62,
      "hit": false,
      "t": 156562.50000000012,
      "d": 286.45833333334303,
      "v": 85
    },
    {
      "midi": 74,
      "hit": false,
      "t": 156562.50000000012,
      "d": 286.45833333334303,
      "v": 95
    },
    {
      "midi": 59,
      "hit": false,
      "t": 156572.26562500012,
      "d": 292.96875,
      "v": 75
    },
    {
      "midi": 71,
      "hit": false,
      "t": 156572.26562500012,
      "d": 292.96875,
      "v": 85
    },
    {
      "midi": 60,
      "hit": false,
      "t": 156878.25520833346,
      "d": 305.98958333331393,
      "v": 80
    },
    {
      "midi": 72,
      "hit": false,
      "t": 156878.25520833346,
      "d": 305.98958333331393,
      "v": 90
    },
    {
      "midi": 57,
      "hit": false,
      "t": 156884.76562500012,
      "d": 302.734375,
      "v": 97
    },
    {
      "midi": 69,
      "hit": false,
      "t": 156884.76562500012,
      "d": 302.734375,
      "v": 87
    },
    {
      "midi": 62,
      "hit": false,
      "t": 157190.75520833346,
      "d": 738.932291666657,
      "v": 82
    },
    {
      "midi": 74,
      "hit": false,
      "t": 157190.75520833346,
      "d": 738.932291666657,
      "v": 92
    },
    {
      "midi": 59,
      "hit": false,
      "t": 157194.0104166668,
      "d": 732.4218749999709,
      "v": 86
    },
    {
      "midi": 71,
      "hit": false,
      "t": 157194.0104166668,
      "d": 732.4218749999709,
      "v": 96
    },
    {
      "midi": 43,
      "hit": false,
      "t": 157513.02083333346,
      "d": 2473.958333333343,
      "v": 79
    },
    {
      "midi": 55,
      "hit": false,
      "t": 157819.01041666677,
      "d": 2473.958333333343,
      "v": 66
    },
    {
      "midi": 59,
      "hit": false,
      "t": 158121.74479166677,
      "d": 625,
      "v": 87
    },
    {
      "midi": 71,
      "hit": false,
      "t": 158121.74479166677,
      "d": 625,
      "v": 97
    },
    {
      "midi": 62,
      "hit": false,
      "t": 158121.74479166677,
      "d": 934.2447916666861,
      "v": 85
    },
    {
      "midi": 74,
      "hit": false,
      "t": 158121.74479166677,
      "d": 934.2447916666861,
      "v": 95
    },
    {
      "midi": 60,
      "hit": false,
      "t": 158750.00000000012,
      "d": 296.22395833334303,
      "v": 84
    },
    {
      "midi": 72,
      "hit": false,
      "t": 158750.00000000012,
      "d": 296.22395833334303,
      "v": 94
    },
    {
      "midi": 64,
      "hit": false,
      "t": 158753.25520833346,
      "d": 296.22395833334303,
      "v": 85
    },
    {
      "midi": 76,
      "hit": false,
      "t": 158753.25520833346,
      "d": 296.22395833334303,
      "v": 95
    },
    {
      "midi": 62,
      "hit": false,
      "t": 159062.50000000012,
      "d": 286.45833333334303,
      "v": 85
    },
    {
      "midi": 74,
      "hit": false,
      "t": 159062.50000000012,
      "d": 286.45833333334303,
      "v": 95
    },
    {
      "midi": 59,
      "hit": false,
      "t": 159072.26562500012,
      "d": 292.96875,
      "v": 75
    },
    {
      "midi": 71,
      "hit": false,
      "t": 159072.26562500012,
      "d": 292.96875,
      "v": 85
    },
    {
      "midi": 60,
      "hit": false,
      "t": 159378.25520833346,
      "d": 305.98958333331393,
      "v": 80
    },
    {
      "midi": 72,
      "hit": false,
      "t": 159378.25520833346,
      "d": 305.98958333331393,
      "v": 90
    },
    {
      "midi": 57,
      "hit": false,
      "t": 159384.76562500012,
      "d": 302.734375,
      "v": 97
    },
    {
      "midi": 69,
      "hit": false,
      "t": 159384.76562500012,
      "d": 302.734375,
      "v": 97
    },
    {
      "midi": 62,
      "hit": false,
      "t": 159690.75520833346,
      "d": 738.932291666657,
      "v": 82
    },
    {
      "midi": 74,
      "hit": false,
      "t": 159690.75520833346,
      "d": 738.932291666657,
      "v": 92
    },
    {
      "midi": 59,
      "hit": false,
      "t": 159694.0104166668,
      "d": 732.4218749999709,
      "v": 86
    },
    {
      "midi": 71,
      "hit": false,
      "t": 159694.0104166668,
      "d": 732.4218749999709,
      "v": 96
    },
    {
      "midi": 43,
      "hit": false,
      "t": 160013.02083333346,
      "d": 2473.958333333343,
      "v": 79
    },
    {
      "midi": 55,
      "hit": false,
      "t": 160319.01041666677,
      "d": 2486.979166666686,
      "v": 66
    },
    {
      "midi": 59,
      "hit": false,
      "t": 160621.74479166677,
      "d": 625,
      "v": 87
    },
    {
      "midi": 71,
      "hit": false,
      "t": 160621.74479166677,
      "d": 625,
      "v": 97
    },
    {
      "midi": 62,
      "hit": false,
      "t": 160621.74479166677,
      "d": 934.2447916666861,
      "v": 85
    },
    {
      "midi": 74,
      "hit": false,
      "t": 160621.74479166677,
      "d": 934.2447916666861,
      "v": 95
    },
    {
      "midi": 60,
      "hit": false,
      "t": 161250.00000000012,
      "d": 296.22395833334303,
      "v": 84
    },
    {
      "midi": 72,
      "hit": false,
      "t": 161250.00000000012,
      "d": 296.22395833334303,
      "v": 94
    },
    {
      "midi": 64,
      "hit": false,
      "t": 161253.25520833346,
      "d": 296.22395833334303,
      "v": 85
    },
    {
      "midi": 76,
      "hit": false,
      "t": 161253.25520833346,
      "d": 296.22395833334303,
      "v": 95
    },
    {
      "midi": 62,
      "hit": false,
      "t": 161562.50000000012,
      "d": 286.45833333334303,
      "v": 85
    },
    {
      "midi": 74,
      "hit": false,
      "t": 161562.50000000012,
      "d": 286.45833333334303,
      "v": 95
    },
    {
      "midi": 59,
      "hit": false,
      "t": 161572.26562500012,
      "d": 292.96875,
      "v": 75
    },
    {
      "midi": 71,
      "hit": false,
      "t": 161572.26562500012,
      "d": 292.96875,
      "v": 85
    },
    {
      "midi": 60,
      "hit": false,
      "t": 161878.25520833346,
      "d": 305.98958333331393,
      "v": 80
    },
    {
      "midi": 72,
      "hit": false,
      "t": 161878.25520833346,
      "d": 305.98958333331393,
      "v": 90
    },
    {
      "midi": 57,
      "hit": false,
      "t": 161884.76562500012,
      "d": 302.734375,
      "v": 97
    },
    {
      "midi": 69,
      "hit": false,
      "t": 161884.76562500012,
      "d": 302.734375,
      "v": 97
    },
    {
      "midi": 62,
      "hit": false,
      "t": 162190.75520833346,
      "d": 738.9322916666861,
      "v": 82
    },
    {
      "midi": 74,
      "hit": false,
      "t": 162190.75520833346,
      "d": 738.9322916666861,
      "v": 92
    },
    {
      "midi": 59,
      "hit": false,
      "t": 162194.0104166668,
      "d": 732.421875,
      "v": 86
    },
    {
      "midi": 71,
      "hit": false,
      "t": 162194.0104166668,
      "d": 732.421875,
      "v": 96
    },
    {
      "midi": 43,
      "hit": false,
      "t": 162513.02083333346,
      "d": 2473.958333333372,
      "v": 79
    },
    {
      "midi": 55,
      "hit": false,
      "t": 162819.0104166668,
      "d": 2473.958333333343,
      "v": 66
    },
    {
      "midi": 59,
      "hit": false,
      "t": 163121.7447916668,
      "d": 625,
      "v": 87
    },
    {
      "midi": 71,
      "hit": false,
      "t": 163121.7447916668,
      "d": 625,
      "v": 97
    },
    {
      "midi": 62,
      "hit": false,
      "t": 163121.7447916668,
      "d": 934.2447916666861,
      "v": 85
    },
    {
      "midi": 74,
      "hit": false,
      "t": 163121.7447916668,
      "d": 934.2447916666861,
      "v": 95
    },
    {
      "midi": 60,
      "hit": false,
      "t": 163750.00000000015,
      "d": 296.22395833334303,
      "v": 84
    },
    {
      "midi": 72,
      "hit": false,
      "t": 163750.00000000015,
      "d": 296.22395833334303,
      "v": 94
    },
    {
      "midi": 64,
      "hit": false,
      "t": 163753.2552083335,
      "d": 296.22395833334303,
      "v": 85
    },
    {
      "midi": 76,
      "hit": false,
      "t": 163753.2552083335,
      "d": 296.22395833334303,
      "v": 95
    },
    {
      "midi": 62,
      "hit": false,
      "t": 164062.50000000015,
      "d": 286.45833333334303,
      "v": 85
    },
    {
      "midi": 74,
      "hit": false,
      "t": 164062.50000000015,
      "d": 286.45833333334303,
      "v": 95
    },
    {
      "midi": 59,
      "hit": false,
      "t": 164072.26562500015,
      "d": 292.96875,
      "v": 75
    },
    {
      "midi": 71,
      "hit": false,
      "t": 164072.26562500015,
      "d": 292.96875,
      "v": 85
    },
    {
      "midi": 65,
      "hit": false,
      "t": 164378.2552083335,
      "d": 305.98958333331393,
      "v": 80
    },
    {
      "midi": 77,
      "hit": false,
      "t": 164378.2552083335,
      "d": 305.98958333331393,
      "v": 90
    },
    {
      "midi": 62,
      "hit": false,
      "t": 164384.76562500015,
      "d": 302.734375,
      "v": 87
    },
    {
      "midi": 74,
      "hit": false,
      "t": 164384.76562500015,
      "d": 302.734375,
      "v": 97
    },
    {
      "midi": 64,
      "hit": false,
      "t": 164690.7552083335,
      "d": 738.932291666657,
      "v": 82
    },
    {
      "midi": 76,
      "hit": false,
      "t": 164690.7552083335,
      "d": 738.932291666657,
      "v": 92
    },
    {
      "midi": 60,
      "hit": false,
      "t": 164694.01041666683,
      "d": 732.4218749999709,
      "v": 86
    },
    {
      "midi": 72,
      "hit": false,
      "t": 164694.01041666683,
      "d": 732.4218749999709,
      "v": 96
    },
    {
      "midi": 48,
      "hit": false,
      "t": 165013.0208333335,
      "d": 2473.958333333314,
      "v": 79
    },
    {
      "midi": 55,
      "hit": false,
      "t": 165319.0104166668,
      "d": 2161.458333333343,
      "v": 66
    },
    {
      "midi": 60,
      "hit": false,
      "t": 165621.7447916668,
      "d": 625,
      "v": 87
    },
    {
      "midi": 72,
      "hit": false,
      "t": 165621.7447916668,
      "d": 625,
      "v": 97
    },
    {
      "midi": 64,
      "hit": false,
      "t": 165621.7447916668,
      "d": 934.2447916666861,
      "v": 85
    },
    {
      "midi": 76,
      "hit": false,
      "t": 165621.7447916668,
      "d": 934.2447916666861,
      "v": 95
    },
    {
      "midi": 62,
      "hit": false,
      "t": 166250.00000000015,
      "d": 296.22395833334303,
      "v": 84
    },
    {
      "midi": 74,
      "hit": false,
      "t": 166250.00000000015,
      "d": 296.22395833334303,
      "v": 94
    },
    {
      "midi": 65,
      "hit": false,
      "t": 166253.2552083335,
      "d": 296.22395833334303,
      "v": 85
    },
    {
      "midi": 77,
      "hit": false,
      "t": 166253.2552083335,
      "d": 296.22395833334303,
      "v": 95
    },
    {
      "midi": 64,
      "hit": false,
      "t": 166562.50000000015,
      "d": 911.458333333343,
      "v": 85
    },
    {
      "midi": 76,
      "hit": false,
      "t": 166562.50000000015,
      "d": 911.458333333343,
      "v": 95
    },
    {
      "midi": 60,
      "hit": false,
      "t": 166572.26562500015,
      "d": 917.96875,
      "v": 75
    },
    {
      "midi": 72,
      "hit": false,
      "t": 166572.26562500015,
      "d": 917.96875,
      "v": 85
    },
    {
      "midi": 57,
      "hit": false,
      "t": 167496.7447916668,
      "d": 3.2552083333430346,
      "v": 87
    },
    {
      "midi": 57,
      "hit": false,
      "t": 167503.2552083335,
      "d": 2268.880208333314,
      "v": 89
    },
    {
      "midi": 53,
      "hit": false,
      "t": 167503.2552083335,
      "d": 2460.937499999971,
      "v": 93
    },
    {
      "midi": 60,
      "hit": false,
      "t": 167812.50000000015,
      "d": 2057.291666666657,
      "v": 75
    },
    {
      "midi": 65,
      "hit": false,
      "t": 168121.7447916668,
      "d": 397.13541666665697,
      "v": 98
    },
    {
      "midi": 67,
      "hit": false,
      "t": 168430.98958333346,
      "d": 641.2760416666861,
      "v": 102
    },
    {
      "midi": 64,
      "hit": false,
      "t": 168440.75520833346,
      "d": 641.2760416666861,
      "v": 91
    },
    {
      "midi": 65,
      "hit": false,
      "t": 169059.2447916668,
      "d": 917.96875,
      "v": 79
    },
    {
      "midi": 69,
      "hit": false,
      "t": 169062.50000000015,
      "d": 917.96875,
      "v": 90
    },
    {
      "midi": 55,
      "hit": false,
      "t": 170003.2552083335,
      "d": 2252.604166666686,
      "v": 98
    },
    {
      "midi": 52,
      "hit": false,
      "t": 170003.2552083335,
      "d": 2408.854166666686,
      "v": 92
    },
    {
      "midi": 60,
      "hit": false,
      "t": 170312.50000000015,
      "d": 608.723958333343,
      "v": 89
    },
    {
      "midi": 64,
      "hit": false,
      "t": 170618.4895833335,
      "d": 302.734375,
      "v": 99
    },
    {
      "midi": 67,
      "hit": false,
      "t": 170625.00000000015,
      "d": 553.3854166666861,
      "v": 97
    },
    {
      "midi": 62,
      "hit": false,
      "t": 170934.24479166683,
      "d": 618.489583333343,
      "v": 94
    },
    {
      "midi": 59,
      "hit": false,
      "t": 170937.50000000017,
      "d": 618.489583333343,
      "v": 80
    },
    {
      "midi": 60,
      "hit": false,
      "t": 171555.98958333352,
      "d": 901.6927083333139,
      "v": 82
    },
    {
      "midi": 64,
      "hit": false,
      "t": 171555.98958333352,
      "d": 901.6927083333139,
      "v": 96
    },
    {
      "midi": 55,
      "hit": false,
      "t": 172493.4895833335,
      "d": 2480.468749999942,
      "v": 87
    },
    {
      "midi": 59,
      "hit": false,
      "t": 172500.00000000015,
      "d": 2480.468749999942,
      "v": 92
    },
    {
      "midi": 62,
      "hit": false,
      "t": 172812.50000000015,
      "d": 1998.6979166665988,
      "v": 89
    },
    {
      "midi": 71,
      "hit": false,
      "t": 173125.00000000015,
      "d": 292.96875,
      "v": 96
    },
    {
      "midi": 67,
      "hit": false,
      "t": 173128.2552083335,
      "d": 296.22395833331393,
      "v": 86
    },
    {
      "midi": 67,
      "hit": false,
      "t": 173430.98958333346,
      "d": 608.7239583333139,
      "v": 77
    },
    {
      "midi": 69,
      "hit": false,
      "t": 173437.50000000012,
      "d": 644.5312499999709,
      "v": 98
    },
    {
      "midi": 71,
      "hit": false,
      "t": 174055.98958333343,
      "d": 904.947916666657,
      "v": 87
    },
    {
      "midi": 67,
      "hit": false,
      "t": 174065.75520833343,
      "d": 904.947916666657,
      "v": 77
    },
    {
      "midi": 64,
      "hit": false,
      "t": 174996.74479166674,
      "d": 2486.979166666686,
      "v": 86
    },
    {
      "midi": 60,
      "hit": false,
      "t": 175003.2552083334,
      "d": 2477.213541666686,
      "v": 88
    },
    {
      "midi": 55,
      "hit": false,
      "t": 175003.2552083334,
      "d": 2483.723958333372,
      "v": 78
    },
    {
      "midi": 72,
      "hit": false,
      "t": 175621.74479166674,
      "d": 253.90625,
      "v": 97
    },
    {
      "midi": 76,
      "hit": false,
      "t": 175628.2552083334,
      "d": 253.90625,
      "v": 92
    },
    {
      "midi": 67,
      "hit": false,
      "t": 175628.2552083334,
      "d": 895.182291666657,
      "v": 88
    },
    {
      "midi": 71,
      "hit": false,
      "t": 175930.9895833334,
      "d": 328.77604166665697,
      "v": 91
    },
    {
      "midi": 74,
      "hit": false,
      "t": 175940.7552083334,
      "d": 328.77604166665697,
      "v": 100
    },
    {
      "midi": 76,
      "hit": false,
      "t": 176559.24479166672,
      "d": 888.6718750000291,
      "v": 90
    },
    {
      "midi": 67,
      "hit": false,
      "t": 176562.50000000006,
      "d": 901.6927083333721,
      "v": 88
    },
    {
      "midi": 72,
      "hit": false,
      "t": 176565.7552083334,
      "d": 885.4166666666861,
      "v": 97
    },
    {
      "midi": 55,
      "hit": false,
      "t": 177493.48958333343,
      "d": 299.47916666665697,
      "v": 91
    },
    {
      "midi": 59,
      "hit": false,
      "t": 177503.25520833343,
      "d": 4814.453125,
      "v": 91
    },
    {
      "midi": 55,
      "hit": false,
      "t": 177812.5000000001,
      "d": 2379.557291666686,
      "v": 94
    },
    {
      "midi": 62,
      "hit": false,
      "t": 178118.48958333343,
      "d": 2395.833333333343,
      "v": 96
    },
    {
      "midi": 67,
      "hit": false,
      "t": 178434.24479166677,
      "d": 1845.703125,
      "v": 105
    },
    {
      "midi": 67,
      "hit": false,
      "t": 180315.75520833343,
      "d": 615.234375,
      "v": 110
    },
    {
      "midi": 55,
      "hit": false,
      "t": 180315.75520833343,
      "d": 2148.437499999971,
      "v": 82
    },
    {
      "midi": 62,
      "hit": false,
      "t": 180628.25520833343,
      "d": 1819.661458333314,
      "v": 81
    },
    {
      "midi": 74,
      "hit": false,
      "t": 180628.25520833343,
      "d": 1819.661458333314,
      "v": 109
    },
    {
      "midi": 67,
      "hit": false,
      "t": 180934.24479166677,
      "d": 1507.161458333314,
      "v": 84
    },
    {
      "midi": 79,
      "hit": false,
      "t": 180934.24479166677,
      "d": 1507.161458333314,
      "v": 106
    },
    {
      "midi": 55,
      "hit": false,
      "t": 182503.2552083334,
      "d": 299.47916666665697,
      "v": 91
    },
    {
      "midi": 59,
      "hit": false,
      "t": 182503.2552083334,
      "d": 4814.453125,
      "v": 91
    },
    {
      "midi": 55,
      "hit": false,
      "t": 182812.50000000006,
      "d": 2379.557291666686,
      "v": 94
    },
    {
      "midi": 62,
      "hit": false,
      "t": 183128.2552083334,
      "d": 2395.833333333343,
      "v": 96
    },
    {
      "midi": 67,
      "hit": false,
      "t": 183430.9895833334,
      "d": 1878.255208333343,
      "v": 105
    },
    {
      "midi": 67,
      "hit": false,
      "t": 185312.5000000001,
      "d": 156.25,
      "v": 89
    },
    {
      "midi": 55,
      "hit": false,
      "t": 185312.5000000001,
      "d": 2148.4375,
      "v": 97
    },
    {
      "midi": 62,
      "hit": false,
      "t": 185628.2552083334,
      "d": 1819.661458333343,
      "v": 96
    },
    {
      "midi": 74,
      "hit": false,
      "t": 185628.2552083334,
      "d": 1819.661458333343,
      "v": 91
    },
    {
      "midi": 67,
      "hit": false,
      "t": 185937.50000000006,
      "d": 1507.161458333343,
      "v": 99
    },
    {
      "midi": 79,
      "hit": false,
      "t": 185937.50000000006,
      "d": 1507.161458333343,
      "v": 92
    },
    {
      "midi": 53,
      "hit": false,
      "t": 187500.0000000001,
      "d": 2460.9375,
      "v": 100
    },
    {
      "midi": 57,
      "hit": false,
      "t": 187500.0000000001,
      "d": 2460.9375,
      "v": 96
    },
    {
      "midi": 60,
      "hit": false,
      "t": 187500.0000000001,
      "d": 2460.9375,
      "v": 82
    },
    {
      "midi": 65,
      "hit": false,
      "t": 187500.0000000001,
      "d": 2460.9375,
      "v": 105
    },
    {
      "midi": 55,
      "hit": false,
      "t": 190000.0000000001,
      "d": 1523.4375,
      "v": 105
    },
    {
      "midi": 60,
      "hit": false,
      "t": 190000.0000000001,
      "d": 1523.4375,
      "v": 96
    },
    {
      "midi": 64,
      "hit": false,
      "t": 190000.0000000001,
      "d": 1523.4375,
      "v": 106
    },
    {
      "midi": 52,
      "hit": false,
      "t": 190000.0000000001,
      "d": 2460.9375,
      "v": 99
    },
    {
      "midi": 55,
      "hit": false,
      "t": 191562.5000000001,
      "d": 579.427083333343,
      "v": 105
    },
    {
      "midi": 60,
      "hit": false,
      "t": 191562.5000000001,
      "d": 579.427083333343,
      "v": 105
    },
    {
      "midi": 64,
      "hit": false,
      "t": 191562.5000000001,
      "d": 579.427083333343,
      "v": 105
    },
    {
      "midi": 55,
      "hit": false,
      "t": 192500.0000000001,
      "d": 2460.9375,
      "v": 94
    },
    {
      "midi": 59,
      "hit": false,
      "t": 192500.0000000001,
      "d": 2460.9375,
      "v": 99
    },
    {
      "midi": 62,
      "hit": false,
      "t": 192500.0000000001,
      "d": 2460.9375,
      "v": 96
    },
    {
      "midi": 67,
      "hit": false,
      "t": 192500.0000000001,
      "d": 2460.9375,
      "v": 93
    },
    {
      "midi": 55,
      "hit": false,
      "t": 195000.0000000001,
      "d": 2252.604166666628,
      "v": 105
    },
    {
      "midi": 52,
      "hit": false,
      "t": 195000.0000000001,
      "d": 2408.854166666628,
      "v": 99
    },
    {
      "midi": 60,
      "hit": false,
      "t": 195312.5000000001,
      "d": 608.723958333343,
      "v": 96
    },
    {
      "midi": 64,
      "hit": false,
      "t": 195625.0000000001,
      "d": 302.734375,
      "v": 106
    },
    {
      "midi": 67,
      "hit": false,
      "t": 195625.0000000001,
      "d": 553.385416666657,
      "v": 104
    },
    {
      "midi": 59,
      "hit": false,
      "t": 195937.5000000001,
      "d": 618.4895833333139,
      "v": 87
    },
    {
      "midi": 62,
      "hit": false,
      "t": 195937.5000000001,
      "d": 618.4895833333139,
      "v": 101
    },
    {
      "midi": 60,
      "hit": false,
      "t": 196562.50000000006,
      "d": 901.6927083333139,
      "v": 89
    },
    {
      "midi": 64,
      "hit": false,
      "t": 196562.50000000006,
      "d": 901.6927083333139,
      "v": 103
    },
    {
      "midi": 53,
      "hit": false,
      "t": 197500.00000000003,
      "d": 2460.9375,
      "v": 100
    },
    {
      "midi": 57,
      "hit": false,
      "t": 197500.00000000003,
      "d": 2460.9375,
      "v": 96
    },
    {
      "midi": 60,
      "hit": false,
      "t": 197500.00000000003,
      "d": 2460.9375,
      "v": 82
    },
    {
      "midi": 65,
      "hit": false,
      "t": 197500.00000000003,
      "d": 2460.9375,
      "v": 105
    },
    {
      "midi": 55,
      "hit": false,
      "t": 200000.00000000003,
      "d": 1523.4375,
      "v": 105
    },
    {
      "midi": 60,
      "hit": false,
      "t": 200000.00000000003,
      "d": 1523.4375,
      "v": 96
    },
    {
      "midi": 64,
      "hit": false,
      "t": 200000.00000000003,
      "d": 1523.4375,
      "v": 106
    },
    {
      "midi": 52,
      "hit": false,
      "t": 200000.00000000003,
      "d": 2460.9375,
      "v": 99
    },
    {
      "midi": 55,
      "hit": false,
      "t": 201562.50000000003,
      "d": 579.427083333343,
      "v": 105
    },
    {
      "midi": 60,
      "hit": false,
      "t": 201562.50000000003,
      "d": 579.427083333343,
      "v": 105
    },
    {
      "midi": 64,
      "hit": false,
      "t": 201562.50000000003,
      "d": 579.427083333343,
      "v": 105
    },
    {
      "midi": 59,
      "hit": false,
      "t": 202500.00000000003,
      "d": 2460.9375,
      "v": 94
    },
    {
      "midi": 67,
      "hit": false,
      "t": 202500.00000000003,
      "d": 2460.9375,
      "v": 94
    },
    {
      "midi": 55,
      "hit": false,
      "t": 202500.00000000003,
      "d": 4960.9375,
      "v": 94
    },
    {
      "midi": 71,
      "hit": false,
      "t": 205000.00000000003,
      "d": 2460.9375,
      "v": 94
    },
    {
      "midi": 74,
      "hit": false,
      "t": 205000.00000000003,
      "d": 2460.9375,
      "v": 97
    },
    {
      "midi": 79,
      "hit": false,
      "t": 205000.00000000003,
      "d": 2460.9375,
      "v": 97
    },
    {
      "midi": 55,
      "hit": false,
      "t": 207500.00000000003,
      "d": 2252.604166666628,
      "v": 105
    },
    {
      "midi": 52,
      "hit": false,
      "t": 207500.00000000003,
      "d": 2408.854166666628,
      "v": 99
    },
    {
      "midi": 60,
      "hit": false,
      "t": 207812.50000000003,
      "d": 608.723958333343,
      "v": 96
    },
    {
      "midi": 64,
      "hit": false,
      "t": 208125.00000000003,
      "d": 302.734375,
      "v": 106
    },
    {
      "midi": 67,
      "hit": false,
      "t": 208125.00000000003,
      "d": 553.385416666657,
      "v": 104
    },
    {
      "midi": 59,
      "hit": false,
      "t": 208437.50000000003,
      "d": 618.4895833333139,
      "v": 87
    },
    {
      "midi": 62,
      "hit": false,
      "t": 208437.50000000003,
      "d": 618.4895833333139,
      "v": 101
    },
    {
      "midi": 60,
      "hit": false,
      "t": 209062.5,
      "d": 901.6927083333139,
      "v": 89
    },
    {
      "midi": 64,
      "hit": false,
      "t": 209062.5,
      "d": 901.6927083333139,
      "v": 103
    },
    {
      "midi": 53,
      "hit": false,
      "t": 209999.99999999997,
      "d": 2460.9375,
      "v": 101
    },
    {
      "midi": 57,
      "hit": false,
      "t": 209999.99999999997,
      "d": 2460.9375,
      "v": 97
    },
    {
      "midi": 60,
      "hit": false,
      "t": 209999.99999999997,
      "d": 2460.9375,
      "v": 83
    },
    {
      "midi": 65,
      "hit": false,
      "t": 209999.99999999997,
      "d": 2460.9375,
      "v": 106
    },
    {
      "midi": 55,
      "hit": false,
      "t": 212499.99999999997,
      "d": 1523.4375,
      "v": 106
    },
    {
      "midi": 60,
      "hit": false,
      "t": 212499.99999999997,
      "d": 1523.4375,
      "v": 97
    },
    {
      "midi": 64,
      "hit": false,
      "t": 212499.99999999997,
      "d": 1523.4375,
      "v": 107
    },
    {
      "midi": 52,
      "hit": false,
      "t": 212499.99999999997,
      "d": 2460.9375,
      "v": 100
    },
    {
      "midi": 55,
      "hit": false,
      "t": 214062.49999999997,
      "d": 579.427083333343,
      "v": 106
    },
    {
      "midi": 60,
      "hit": false,
      "t": 214062.49999999997,
      "d": 579.427083333343,
      "v": 106
    },
    {
      "midi": 64,
      "hit": false,
      "t": 214062.49999999997,
      "d": 579.427083333343,
      "v": 106
    },
    {
      "midi": 55,
      "hit": false,
      "t": 214999.99999999997,
      "d": 2460.9375,
      "v": 95
    },
    {
      "midi": 59,
      "hit": false,
      "t": 214999.99999999997,
      "d": 2460.9375,
      "v": 100
    },
    {
      "midi": 62,
      "hit": false,
      "t": 214999.99999999997,
      "d": 2460.9375,
      "v": 97
    },
    {
      "midi": 67,
      "hit": false,
      "t": 214999.99999999997,
      "d": 2460.9375,
      "v": 94
    },
    {
      "midi": 55,
      "hit": false,
      "t": 217499.99999999997,
      "d": 2252.604166666628,
      "v": 106
    },
    {
      "midi": 52,
      "hit": false,
      "t": 217499.99999999997,
      "d": 2408.854166666628,
      "v": 100
    },
    {
      "midi": 60,
      "hit": false,
      "t": 217812.49999999997,
      "d": 608.723958333343,
      "v": 97
    },
    {
      "midi": 64,
      "hit": false,
      "t": 218124.99999999997,
      "d": 302.734375,
      "v": 107
    },
    {
      "midi": 67,
      "hit": false,
      "t": 218124.99999999997,
      "d": 553.385416666657,
      "v": 105
    },
    {
      "midi": 59,
      "hit": false,
      "t": 218437.49999999997,
      "d": 618.4895833333139,
      "v": 88
    },
    {
      "midi": 62,
      "hit": false,
      "t": 218437.49999999997,
      "d": 618.4895833333139,
      "v": 102
    },
    {
      "midi": 60,
      "hit": false,
      "t": 219062.49999999994,
      "d": 901.6927083333139,
      "v": 90
    },
    {
      "midi": 64,
      "hit": false,
      "t": 219062.49999999994,
      "d": 901.6927083333139,
      "v": 104
    },
    {
      "midi": 53,
      "hit": false,
      "t": 219999.9999999999,
      "d": 2460.9375,
      "v": 101
    },
    {
      "midi": 57,
      "hit": false,
      "t": 219999.9999999999,
      "d": 2460.9375,
      "v": 97
    },
    {
      "midi": 60,
      "hit": false,
      "t": 219999.9999999999,
      "d": 2460.9375,
      "v": 83
    },
    {
      "midi": 65,
      "hit": false,
      "t": 219999.9999999999,
      "d": 2460.9375,
      "v": 106
    },
    {
      "midi": 55,
      "hit": false,
      "t": 222499.9999999999,
      "d": 1523.4375,
      "v": 106
    },
    {
      "midi": 60,
      "hit": false,
      "t": 222499.9999999999,
      "d": 1523.4375,
      "v": 97
    },
    {
      "midi": 64,
      "hit": false,
      "t": 222499.9999999999,
      "d": 1523.4375,
      "v": 107
    },
    {
      "midi": 52,
      "hit": false,
      "t": 222499.9999999999,
      "d": 2460.9375,
      "v": 100
    },
    {
      "midi": 55,
      "hit": false,
      "t": 224062.4999999999,
      "d": 579.427083333343,
      "v": 106
    },
    {
      "midi": 60,
      "hit": false,
      "t": 224062.4999999999,
      "d": 579.427083333343,
      "v": 106
    },
    {
      "midi": 64,
      "hit": false,
      "t": 224062.4999999999,
      "d": 579.427083333343,
      "v": 106
    },
    {
      "midi": 59,
      "hit": false,
      "t": 224999.9999999999,
      "d": 2460.9375,
      "v": 95
    },
    {
      "midi": 67,
      "hit": false,
      "t": 224999.9999999999,
      "d": 2460.9375,
      "v": 95
    },
    {
      "midi": 55,
      "hit": false,
      "t": 224999.9999999999,
      "d": 4960.9375,
      "v": 95
    },
    {
      "midi": 71,
      "hit": false,
      "t": 227499.9999999999,
      "d": 2460.9375,
      "v": 95
    },
    {
      "midi": 74,
      "hit": false,
      "t": 227499.9999999999,
      "d": 2460.9375,
      "v": 98
    },
    {
      "midi": 79,
      "hit": false,
      "t": 227499.9999999999,
      "d": 2460.9375,
      "v": 98
    },
    {
      "midi": 48,
      "hit": false,
      "t": 229999.9999999999,
      "d": 2460.9375,
      "v": 94
    },
    {
      "midi": 55,
      "hit": false,
      "t": 229999.9999999999,
      "d": 2460.9375,
      "v": 88
    },
    {
      "midi": 60,
      "hit": false,
      "t": 229999.9999999999,
      "d": 2460.9375,
      "v": 90
    },
    {
      "midi": 64,
      "hit": false,
      "t": 229999.9999999999,
      "d": 2460.9375,
      "v": 76
    },
    {
      "midi": 72,
      "hit": false,
      "t": 229999.9999999999,
      "d": 2460.9375,
      "v": 99
    }
  ]
}