{
  "jsonPath": "Religious/Christian Music/David Phelps/your-love-album.json",
  "path": "Religious\\Christian Music\\David Phelps\\Your Love (Album).mid",
  "name": "Your Love (Album)",
  "difficulty": "Advanced",
  "bpm": 64,
  "notes": [
    {
      "midi": 72,
      "hit": false,
      "t": 12631.576,
      "d": 2236.841583333333,
      "v": 50
    },
    {
      "midi": 60,
      "hit": false,
      "t": 12631.576,
      "d": 2615.1309687499997,
      "v": 50
    },
    {
      "midi": 79,
      "hit": false,
      "t": 12631.576,
      "d": 4169.406921875003,
      "v": 50
    },
    {
      "midi": 76,
      "hit": false,
      "t": 12631.576,
      "d": 4218.749015625004,
      "v": 50
    },
    {
      "midi": 72,
      "hit": false,
      "t": 12672.694411458333,
      "d": 320.7236093749998,
      "v": 85
    },
    {
      "midi": 60,
      "hit": false,
      "t": 12689.141776041666,
      "d": 2417.7625937500015,
      "v": 44
    },
    {
      "midi": 67,
      "hit": false,
      "t": 13026.31275,
      "d": 345.3946562500005,
      "v": 69
    },
    {
      "midi": 74,
      "hit": false,
      "t": 13404.602135416666,
      "d": 312.4999270833341,
      "v": 94
    },
    {
      "midi": 67,
      "hit": false,
      "t": 13749.996791666666,
      "d": 345.3946562500005,
      "v": 81
    },
    {
      "midi": 76,
      "hit": false,
      "t": 14144.733541666666,
      "d": 361.84202083333366,
      "v": 104
    },
    {
      "midi": 67,
      "hit": false,
      "t": 14564.141338541667,
      "d": 312.4999270833341,
      "v": 52
    },
    {
      "midi": 74,
      "hit": false,
      "t": 14925.983359375,
      "d": 287.82888020833343,
      "v": 81
    },
    {
      "midi": 67,
      "hit": false,
      "t": 15304.272744791668,
      "d": 287.82888020833343,
      "v": 60
    },
    {
      "midi": 74,
      "hit": false,
      "t": 15608.548989583333,
      "d": 978.6181927083362,
      "v": 50
    },
    {
      "midi": 70,
      "hit": false,
      "t": 15608.548989583333,
      "d": 1167.7628854166705,
      "v": 50
    },
    {
      "midi": 58,
      "hit": false,
      "t": 15616.772671875,
      "d": 1472.0391302083353,
      "v": 50
    },
    {
      "midi": 74,
      "hit": false,
      "t": 15682.562130208335,
      "d": 304.2762447916666,
      "v": 85
    },
    {
      "midi": 58,
      "hit": false,
      "t": 15682.562130208335,
      "d": 1488.4864947916649,
      "v": 44
    },
    {
      "midi": 64,
      "hit": false,
      "t": 16036.18046875,
      "d": 345.3946562500005,
      "v": 65
    },
    {
      "midi": 70,
      "hit": false,
      "t": 16455.588265625,
      "d": 361.84202083333366,
      "v": 60
    },
    {
      "midi": 74,
      "hit": false,
      "t": 16776.311875,
      "d": 460.52620833333276,
      "v": 85
    },
    {
      "midi": 73,
      "hit": false,
      "t": 17113.482848958334,
      "d": 1759.8680104166706,
      "v": 50
    },
    {
      "midi": 81,
      "hit": false,
      "t": 17154.601260416668,
      "d": 1348.6838958333356,
      "v": 50
    },
    {
      "midi": 69,
      "hit": false,
      "t": 17154.601260416668,
      "d": 1365.1312604166706,
      "v": 50
    },
    {
      "midi": 76,
      "hit": false,
      "t": 17162.824942708336,
      "d": 1373.354942708338,
      "v": 50
    },
    {
      "midi": 57,
      "hit": false,
      "t": 17171.048625000003,
      "d": 1743.4206458333392,
      "v": 50
    },
    {
      "midi": 57,
      "hit": false,
      "t": 17203.943354166666,
      "d": 1537.8285885416662,
      "v": 73
    },
    {
      "midi": 73,
      "hit": false,
      "t": 17228.614401041665,
      "d": 312.4999270833323,
      "v": 94
    },
    {
      "midi": 69,
      "hit": false,
      "t": 17639.798515624996,
      "d": 353.61833854166616,
      "v": 52
    },
    {
      "midi": 74,
      "hit": false,
      "t": 18034.535265624996,
      "d": 320.7236093749998,
      "v": 78
    },
    {
      "midi": 76,
      "hit": false,
      "t": 18371.70623958333,
      "d": 353.61833854166616,
      "v": 94
    },
    {
      "midi": 77,
      "hit": false,
      "t": 18774.666671875,
      "d": 337.1709739583348,
      "v": 69
    },
    {
      "midi": 50,
      "hit": false,
      "t": 18807.561401041665,
      "d": 2590.459921875008,
      "v": 48
    },
    {
      "midi": 62,
      "hit": false,
      "t": 18881.574541666672,
      "d": 3042.7624479166698,
      "v": 50
    },
    {
      "midi": 74,
      "hit": false,
      "t": 18889.79822395834,
      "d": 2804.275661458334,
      "v": 50
    },
    {
      "midi": 69,
      "hit": false,
      "t": 18898.021906250007,
      "d": 2648.025697916666,
      "v": 50
    },
    {
      "midi": 77,
      "hit": false,
      "t": 18898.021906250007,
      "d": 6217.103812500001,
      "v": 50
    },
    {
      "midi": 69,
      "hit": false,
      "t": 19161.179739583335,
      "d": 304.27624479166843,
      "v": 69
    },
    {
      "midi": 74,
      "hit": false,
      "t": 19514.798078125004,
      "d": 296.05256250000093,
      "v": 88
    },
    {
      "midi": 69,
      "hit": false,
      "t": 19893.087463541673,
      "d": 386.5130677083325,
      "v": 78
    },
    {
      "midi": 77,
      "hit": false,
      "t": 20304.271578125004,
      "d": 748.3550885416662,
      "v": 88
    },
    {
      "midi": 72,
      "hit": false,
      "t": 21134.86348958334,
      "d": 115.1315520833341,
      "v": 81
    },
    {
      "midi": 68,
      "hit": false,
      "t": 21965.455401041676,
      "d": 2483.5520520833343,
      "v": 50
    },
    {
      "midi": 72,
      "hit": false,
      "t": 21973.679083333343,
      "d": 2722.0388385416663,
      "v": 50
    },
    {
      "midi": 68,
      "hit": false,
      "t": 22006.573812500006,
      "d": 1611.8417291666665,
      "v": 65
    },
    {
      "midi": 53,
      "hit": false,
      "t": 22006.57381250001,
      "d": 3166.1176822916677,
      "v": 50
    },
    {
      "midi": 72,
      "hit": false,
      "t": 22014.797494791674,
      "d": 1472.0391302083335,
      "v": 69
    },
    {
      "midi": 65,
      "hit": false,
      "t": 22023.02117708334,
      "d": 1562.4996354166651,
      "v": 56
    },
    {
      "midi": 53,
      "hit": false,
      "t": 22031.24485937501,
      "d": 1866.7758802083335,
      "v": 52
    },
    {
      "midi": 74,
      "hit": false,
      "t": 23634.862906250008,
      "d": 180.92101041666683,
      "v": 60
    },
    {
      "midi": 79,
      "hit": false,
      "t": 25172.691494791678,
      "d": 4531.248942708338,
      "v": 50
    },
    {
      "midi": 76,
      "hit": false,
      "t": 25180.915177083345,
      "d": 2713.815156249999,
      "v": 50
    },
    {
      "midi": 72,
      "hit": false,
      "t": 25189.138859375013,
      "d": 2343.7494531249977,
      "v": 50
    },
    {
      "midi": 60,
      "hit": false,
      "t": 25213.80990625001,
      "d": 2656.2493802083336,
      "v": 50
    },
    {
      "midi": 48,
      "hit": false,
      "t": 25263.152,
      "d": 3157.8940000000002,
      "v": 32
    },
    {
      "midi": 60,
      "hit": false,
      "t": 25263.15200000001,
      "d": 304.27624479166843,
      "v": 73
    },
    {
      "midi": 48,
      "hit": false,
      "t": 25279.599364583344,
      "d": 2730.262520833334,
      "v": 44
    },
    {
      "midi": 55,
      "hit": false,
      "t": 25633.21770312501,
      "d": 320.7236093749998,
      "v": 85
    },
    {
      "midi": 62,
      "hit": false,
      "t": 25986.836041666676,
      "d": 370.06570312500116,
      "v": 88
    },
    {
      "midi": 55,
      "hit": false,
      "t": 26365.125427083345,
      "d": 370.06570312500116,
      "v": 85
    },
    {
      "midi": 64,
      "hit": false,
      "t": 26784.533223958348,
      "d": 328.9472916666673,
      "v": 96
    },
    {
      "midi": 55,
      "hit": false,
      "t": 27146.37524479168,
      "d": 345.39465624999866,
      "v": 69
    },
    {
      "midi": 62,
      "hit": false,
      "t": 27549.335677083345,
      "d": 287.82888020833343,
      "v": 81
    },
    {
      "midi": 55,
      "hit": false,
      "t": 27935.848744791678,
      "d": 394.73675000000003,
      "v": 69
    },
    {
      "midi": 74,
      "hit": false,
      "t": 28273.019718750013,
      "d": 995.0655572916694,
      "v": 50
    },
    {
      "midi": 76,
      "hit": false,
      "t": 28273.019718750013,
      "d": 1036.1839687500033,
      "v": 50
    },
    {
      "midi": 70,
      "hit": false,
      "t": 28281.24340104168,
      "d": 1069.0786979166696,
      "v": 50
    },
    {
      "midi": 58,
      "hit": false,
      "t": 28289.467083333348,
      "d": 1578.9470000000038,
      "v": 50
    },
    {
      "midi": 62,
      "hit": false,
      "t": 28388.151270833343,
      "d": 296.05256250000093,
      "v": 81
    },
    {
      "midi": 46,
      "hit": false,
      "t": 28388.151270833343,
      "d": 1480.262812500001,
      "v": 31
    },
    {
      "midi": 46,
      "hit": false,
      "t": 28421.046,
      "d": 1578.9470000000001,
      "v": 32
    },
    {
      "midi": 52,
      "hit": false,
      "t": 28766.44065625001,
      "d": 320.7236093749998,
      "v": 52
    },
    {
      "midi": 58,
      "hit": false,
      "t": 29136.506359375013,
      "d": 378.289385416665,
      "v": 65
    },
    {
      "midi": 62,
      "hit": false,
      "t": 29547.690473958344,
      "d": 271.3815156249984,
      "v": 88
    },
    {
      "midi": 76,
      "hit": false,
      "t": 29794.400942708347,
      "d": 1669.407505208339,
      "v": 50
    },
    {
      "midi": 69,
      "hit": false,
      "t": 29802.624625000015,
      "d": 1537.82858854167,
      "v": 50
    },
    {
      "midi": 73,
      "hit": false,
      "t": 29810.848307291682,
      "d": 1685.8548697916704,
      "v": 50
    },
    {
      "midi": 57,
      "hit": false,
      "t": 29819.07198958335,
      "d": 1768.0916927083417,
      "v": 50
    },
    {
      "midi": 61,
      "hit": false,
      "t": 29909.532494791678,
      "d": 361.8420208333373,
      "v": 73
    },
    {
      "midi": 45,
      "hit": false,
      "t": 29958.87458854168,
      "d": 1455.5917656250094,
      "v": 52
    },
    {
      "midi": 45,
      "hit": false,
      "t": 29999.993,
      "d": 1578.9470000000001,
      "v": 32
    },
    {
      "midi": 70,
      "hit": false,
      "t": 30320.716609375017,
      "d": 337.1709739583348,
      "v": 96
    },
    {
      "midi": 69,
      "hit": false,
      "t": 30707.229677083353,
      "d": 370.06570312500116,
      "v": 78
    },
    {
      "midi": 67,
      "hit": false,
      "t": 31093.74274479169,
      "d": 345.39465624999866,
      "v": 91
    },
    {
      "midi": 65,
      "hit": false,
      "t": 31504.92685937502,
      "d": 254.93415104166706,
      "v": 99
    },
    {
      "midi": 62,
      "hit": false,
      "t": 31513.150541666688,
      "d": 3075.657177083336,
      "v": 50
    },
    {
      "midi": 74,
      "hit": false,
      "t": 31521.374223958355,
      "d": 2590.4599218750045,
      "v": 50
    },
    {
      "midi": 38,
      "hit": false,
      "t": 31529.59790625002,
      "d": 2565.788874999991,
      "v": 44
    },
    {
      "midi": 69,
      "hit": false,
      "t": 31529.597906250023,
      "d": 2409.538911458334,
      "v": 50
    },
    {
      "midi": 77,
      "hit": false,
      "t": 31537.82158854169,
      "d": 2968.749307291666,
      "v": 50
    },
    {
      "midi": 38,
      "hit": false,
      "t": 31578.94,
      "d": 3157.8939999999966,
      "v": 32
    },
    {
      "midi": 57,
      "hit": false,
      "t": 31874.99256250002,
      "d": 394.73675000000003,
      "v": 81
    },
    {
      "midi": 62,
      "hit": false,
      "t": 32261.505630208354,
      "d": 320.7236093749998,
      "v": 85
    },
    {
      "midi": 57,
      "hit": false,
      "t": 32639.79501562502,
      "d": 394.73675000000003,
      "v": 81
    },
    {
      "midi": 65,
      "hit": false,
      "t": 33083.87385937502,
      "d": 682.5656302083298,
      "v": 88
    },
    {
      "midi": 60,
      "hit": false,
      "t": 33922.689453125015,
      "d": 123.35523437499796,
      "v": 78
    },
    {
      "midi": 58,
      "hit": false,
      "t": 34629.926130208354,
      "d": 3018.0914010416745,
      "v": 50
    },
    {
      "midi": 68,
      "hit": false,
      "t": 34638.14981250002,
      "d": 2705.5914739583386,
      "v": 50
    },
    {
      "midi": 72,
      "hit": false,
      "t": 34646.37349479169,
      "d": 2754.9335677083363,
      "v": 50
    },
    {
      "midi": 77,
      "hit": false,
      "t": 34654.59717708336,
      "d": 2771.3809322916713,
      "v": 50
    },
    {
      "midi": 46,
      "hit": false,
      "t": 34720.386635416675,
      "d": 2771.3809322916713,
      "v": 73
    },
    {
      "midi": 46,
      "hit": false,
      "t": 34736.833999999995,
      "d": 3157.8940000000002,
      "v": 32
    },
    {
      "midi": 60,
      "hit": false,
      "t": 34753.281364583345,
      "d": 1842.104833333331,
      "v": 81
    },
    {
      "midi": 56,
      "hit": false,
      "t": 34777.95241145835,
      "d": 2574.012557291666,
      "v": 65
    },
    {
      "midi": 53,
      "hit": false,
      "t": 35032.88656250001,
      "d": 2286.1836770833324,
      "v": 33
    },
    {
      "midi": 62,
      "hit": false,
      "t": 36315.78100000001,
      "d": 781.2498177083326,
      "v": 102
    },
    {
      "midi": 76,
      "hit": false,
      "t": 37886.504317708364,
      "d": 3042.7624479166625,
      "v": 50
    },
    {
      "midi": 64,
      "hit": false,
      "t": 37894.72800000001,
      "d": 1200.6576145833387,
      "v": 65
    },
    {
      "midi": 72,
      "hit": false,
      "t": 37902.9516822917,
      "d": 2672.6967447916613,
      "v": 50
    },
    {
      "midi": 60,
      "hit": false,
      "t": 37911.175364583345,
      "d": 1866.7758802083408,
      "v": 73
    },
    {
      "midi": 60,
      "hit": false,
      "t": 37911.17536458337,
      "d": 3141.4466354166652,
      "v": 50
    },
    {
      "midi": 67,
      "hit": false,
      "t": 37911.17536458337,
      "d": 5575.656593749998,
      "v": 50
    },
    {
      "midi": 55,
      "hit": false,
      "t": 37919.39904687501,
      "d": 2228.6179010416745,
      "v": 48
    },
    {
      "midi": 48,
      "hit": false,
      "t": 37968.74114062501,
      "d": 2516.446781250008,
      "v": 38
    },
    {
      "midi": 64,
      "hit": false,
      "t": 39621.70128125002,
      "d": 674.3419479166696,
      "v": 73
    },
    {
      "midi": 71,
      "hit": false,
      "t": 40986.83254166669,
      "d": 2532.894145833343,
      "v": 50
    },
    {
      "midi": 74,
      "hit": false,
      "t": 41003.27990625003,
      "d": 3034.5387656250095,
      "v": 50
    },
    {
      "midi": 59,
      "hit": false,
      "t": 41019.72727083336,
      "d": 3149.6703177083473,
      "v": 50
    },
    {
      "midi": 59,
      "hit": false,
      "t": 41069.06936458335,
      "d": 1504.9338593750072,
      "v": 85
    },
    {
      "midi": 62,
      "hit": false,
      "t": 41077.29304687502,
      "d": 1307.565484375009,
      "v": 81
    },
    {
      "midi": 55,
      "hit": false,
      "t": 41093.740411458355,
      "d": 1472.0391302083372,
      "v": 48
    },
    {
      "midi": 47,
      "hit": false,
      "t": 41101.96409375002,
      "d": 2113.4863489583367,
      "v": 38
    },
    {
      "midi": 67,
      "hit": false,
      "t": 42598.67427083336,
      "d": 131.57891666666546,
      "v": 78
    },
    {
      "midi": 76,
      "hit": false,
      "t": 44111.83181250004,
      "d": 6282.893270833338,
      "v": 50
    },
    {
      "midi": 72,
      "hit": false,
      "t": 44120.055494791704,
      "d": 5797.696015625006,
      "v": 50
    },
    {
      "midi": 57,
      "hit": false,
      "t": 44128.27917708336,
      "d": 328.94729166667094,
      "v": 56
    },
    {
      "midi": 60,
      "hit": false,
      "t": 44128.27917708336,
      "d": 444.0788437500014,
      "v": 65
    },
    {
      "midi": 69,
      "hit": false,
      "t": 44128.27917708337,
      "d": 5838.814427083336,
      "v": 50
    },
    {
      "midi": 45,
      "hit": false,
      "t": 44144.72654166669,
      "d": 2598.683604166661,
      "v": 48
    },
    {
      "midi": 57,
      "hit": false,
      "t": 44161.17390625004,
      "d": 3174.3413645833352,
      "v": 50
    },
    {
      "midi": 52,
      "hit": false,
      "t": 44169.397588541695,
      "d": 246.7104687500032,
      "v": 44
    },
    {
      "midi": 60,
      "hit": false,
      "t": 44983.54213541669,
      "d": 740.131406249995,
      "v": 44
    },
    {
      "midi": 64,
      "hit": false,
      "t": 45386.502567708354,
      "d": 361.84202083333366,
      "v": 65
    },
    {
      "midi": 69,
      "hit": false,
      "t": 45789.46300000002,
      "d": 707.2366770833323,
      "v": 94
    },
    {
      "midi": 64,
      "hit": false,
      "t": 46504.92335937502,
      "d": 205.5920572916657,
      "v": 78
    },
    {
      "midi": 60,
      "hit": false,
      "t": 47129.92321354169,
      "d": 1398.025989583337,
      "v": 60
    },
    {
      "midi": 64,
      "hit": false,
      "t": 47187.488989583355,
      "d": 2442.4336406250077,
      "v": 48
    },
    {
      "midi": 43,
      "hit": false,
      "t": 47261.502130208355,
      "d": 2277.959994791672,
      "v": 44
    },
    {
      "midi": 69,
      "hit": false,
      "t": 47286.17317708336,
      "d": 2269.7363125000047,
      "v": 88
    },
    {
      "midi": 55,
      "hit": false,
      "t": 47286.17317708338,
      "d": 3174.341364583328,
      "v": 50
    },
    {
      "midi": 72,
      "hit": false,
      "t": 47343.73895312502,
      "d": 2335.5257708333374,
      "v": 85
    },
    {
      "midi": 60,
      "hit": false,
      "t": 48898.01490625003,
      "d": 1101.973427083336,
      "v": 44
    },
    {
      "midi": 68,
      "hit": false,
      "t": 50444.06717708337,
      "d": 5731.906557291673,
      "v": 50
    },
    {
      "midi": 53,
      "hit": false,
      "t": 50452.29085937504,
      "d": 6249.998541666675,
      "v": 50
    },
    {
      "midi": 77,
      "hit": false,
      "t": 50452.29085937504,
      "d": 6266.44590625001,
      "v": 50
    },
    {
      "midi": 72,
      "hit": false,
      "t": 50460.51454166671,
      "d": 3174.3413645833352,
      "v": 50
    },
    {
      "midi": 68,
      "hit": false,
      "t": 50476.96190625003,
      "d": 2351.9731354166797,
      "v": 78
    },
    {
      "midi": 65,
      "hit": false,
      "t": 50493.40927083336,
      "d": 2310.854723958342,
      "v": 78
    },
    {
      "midi": 60,
      "hit": false,
      "t": 50501.63295312503,
      "d": 1414.473354166672,
      "v": 44
    },
    {
      "midi": 41,
      "hit": false,
      "t": 50542.75136458337,
      "d": 5246.709302083327,
      "v": 41
    },
    {
      "midi": 53,
      "hit": false,
      "t": 52072.35627083337,
      "d": 2261.51263020833,
      "v": 38
    },
    {
      "midi": 60,
      "hit": false,
      "t": 52902.94818229171,
      "d": 328.94729166666366,
      "v": 60
    },
    {
      "midi": 74,
      "hit": false,
      "t": 53634.85590625004,
      "d": 2532.8941458333356,
      "v": 50
    },
    {
      "midi": 65,
      "hit": false,
      "t": 53643.07958854171,
      "d": 2541.117828125003,
      "v": 50
    },
    {
      "midi": 68,
      "hit": false,
      "t": 53717.0927291667,
      "d": 2097.0389843749945,
      "v": 85
    },
    {
      "midi": 62,
      "hit": false,
      "t": 53725.31641145837,
      "d": 2162.828442708327,
      "v": 48
    },
    {
      "midi": 65,
      "hit": false,
      "t": 53741.763776041706,
      "d": 1990.1311145833242,
      "v": 81
    },
    {
      "midi": 53,
      "hit": false,
      "t": 55180.908177083365,
      "d": 641.4472187499996,
      "v": 65
    },
    {
      "midi": 71,
      "hit": false,
      "t": 56776.302541666715,
      "d": 5419.406630208337,
      "v": 50
    },
    {
      "midi": 74,
      "hit": false,
      "t": 56776.302541666715,
      "d": 5674.340781250001,
      "v": 50
    },
    {
      "midi": 67,
      "hit": false,
      "t": 56784.52622395838,
      "d": 5624.998687500003,
      "v": 50
    },
    {
      "midi": 55,
      "hit": false,
      "t": 56784.52622395838,
      "d": 5773.024968750004,
      "v": 50
    },
    {
      "midi": 43,
      "hit": false,
      "t": 56842.09200000003,
      "d": 5501.643453124998,
      "v": 52
    },
    {
      "midi": 79,
      "hit": false,
      "t": 57014.78932812505,
      "d": 222.0394218750007,
      "v": 50
    },
    {
      "midi": 77,
      "hit": false,
      "t": 57014.78932812505,
      "d": 5633.222369791671,
      "v": 50
    },
    {
      "midi": 55,
      "hit": false,
      "t": 57245.0524322917,
      "d": 353.61833854166616,
      "v": 78
    },
    {
      "midi": 60,
      "hit": false,
      "t": 57615.1181354167,
      "d": 320.72360937500343,
      "v": 88
    },
    {
      "midi": 62,
      "hit": false,
      "t": 57968.73647395837,
      "d": 139.80259895833296,
      "v": 78
    },
    {
      "midi": 67,
      "hit": false,
      "t": 58379.9205885417,
      "d": 2541.117828124996,
      "v": 81
    },
    {
      "midi": 55,
      "hit": false,
      "t": 58396.36795312504,
      "d": 1266.4470729166642,
      "v": 44
    },
    {
      "midi": 72,
      "hit": false,
      "t": 58749.986291666704,
      "d": 3404.604468749996,
      "v": 102
    },
    {
      "midi": 74,
      "hit": false,
      "t": 59136.49935937504,
      "d": 279.60519791666593,
      "v": 99
    },
    {
      "midi": 79,
      "hit": false,
      "t": 59539.459791666704,
      "d": 2549.3415104166634,
      "v": 123
    },
    {
      "midi": 55,
      "hit": false,
      "t": 61554.26195312503,
      "d": 641.4472187499996,
      "v": 44
    },
    {
      "midi": 67,
      "hit": false,
      "t": 61628.27509375003,
      "d": 583.8814427083344,
      "v": 48
    },
    {
      "midi": 72,
      "hit": false,
      "t": 62944.06426041672,
      "d": 2763.157250000004,
      "v": 50
    },
    {
      "midi": 67,
      "hit": false,
      "t": 62960.51162500006,
      "d": 2837.170390625004,
      "v": 50
    },
    {
      "midi": 76,
      "hit": false,
      "t": 62976.95898958339,
      "d": 3149.67031770834,
      "v": 50
    },
    {
      "midi": 60,
      "hit": false,
      "t": 63009.85371875006,
      "d": 3248.354505208321,
      "v": 50
    },
    {
      "midi": 64,
      "hit": false,
      "t": 63157.880000000034,
      "d": 1151.3155208333264,
      "v": 78
    },
    {
      "midi": 48,
      "hit": false,
      "t": 63157.880000000034,
      "d": 2360.1968177083254,
      "v": 38
    },
    {
      "midi": 60,
      "hit": false,
      "t": 63198.998411458364,
      "d": 1965.460067708329,
      "v": 81
    },
    {
      "midi": 55,
      "hit": false,
      "t": 63207.22209375003,
      "d": 2179.275807291662,
      "v": 48
    },
    {
      "midi": 64,
      "hit": false,
      "t": 64794.39277604169,
      "d": 814.1445468749953,
      "v": 88
    },
    {
      "midi": 74,
      "hit": false,
      "t": 66159.52403645839,
      "d": 3108.551906249995,
      "v": 50
    },
    {
      "midi": 71,
      "hit": false,
      "t": 66184.19508333338,
      "d": 2606.907286458343,
      "v": 50
    },
    {
      "midi": 67,
      "hit": false,
      "t": 66208.86613020838,
      "d": 2458.8810052083427,
      "v": 50
    },
    {
      "midi": 59,
      "hit": false,
      "t": 66208.86613020838,
      "d": 3124.999270833345,
      "v": 50
    },
    {
      "midi": 62,
      "hit": false,
      "t": 66348.66872916669,
      "d": 1578.9469999999856,
      "v": 73
    },
    {
      "midi": 59,
      "hit": false,
      "t": 66356.89241145835,
      "d": 1603.6180468749808,
      "v": 69
    },
    {
      "midi": 47,
      "hit": false,
      "t": 66356.89241145835,
      "d": 2483.5520520833234,
      "v": 38
    },
    {
      "midi": 55,
      "hit": false,
      "t": 66365.11609375001,
      "d": 1661.1838229166606,
      "v": 44
    },
    {
      "midi": 67,
      "hit": false,
      "t": 67952.28677604167,
      "d": 345.39465625000594,
      "v": 48
    },
    {
      "midi": 69,
      "hit": false,
      "t": 69333.86540104172,
      "d": 5715.459192708295,
      "v": 50
    },
    {
      "midi": 57,
      "hit": false,
      "t": 69342.08908333338,
      "d": 3248.354505208321,
      "v": 50
    },
    {
      "midi": 72,
      "hit": false,
      "t": 69342.08908333338,
      "d": 9547.695140624986,
      "v": 50
    },
    {
      "midi": 76,
      "hit": false,
      "t": 69350.31276562504,
      "d": 5616.775005208314,
      "v": 50
    },
    {
      "midi": 60,
      "hit": false,
      "t": 69523.01009375001,
      "d": 378.2893854166614,
      "v": 60
    },
    {
      "midi": 45,
      "hit": false,
      "t": 69523.01009375001,
      "d": 2598.683604166654,
      "v": 38
    },
    {
      "midi": 60,
      "hit": false,
      "t": 70254.91781770834,
      "d": 1562.4996354166651,
      "v": 60
    },
    {
      "midi": 64,
      "hit": false,
      "t": 70641.43088541667,
      "d": 633.2235364583321,
      "v": 78
    },
    {
      "midi": 69,
      "hit": false,
      "t": 71069.06236458334,
      "d": 797.697182291653,
      "v": 96
    },
    {
      "midi": 64,
      "hit": false,
      "t": 71842.0885,
      "d": 279.60519791666593,
      "v": 69
    },
    {
      "midi": 60,
      "hit": false,
      "t": 72532.8778125,
      "d": 1184.2102500000037,
      "v": 56
    },
    {
      "midi": 81,
      "hit": false,
      "t": 72582.21990625004,
      "d": 2294.407359374978,
      "v": 50
    },
    {
      "midi": 55,
      "hit": false,
      "t": 72598.66727083336,
      "d": 3050.98613020833,
      "v": 50
    },
    {
      "midi": 64,
      "hit": false,
      "t": 72606.890953125,
      "d": 2146.3810781250213,
      "v": 73
    },
    {
      "midi": 43,
      "hit": false,
      "t": 72615.11463541666,
      "d": 2425.986276041702,
      "v": 38
    },
    {
      "midi": 69,
      "hit": false,
      "t": 72639.78568229165,
      "d": 1916.1179739583604,
      "v": 96
    },
    {
      "midi": 72,
      "hit": false,
      "t": 72672.68041145832,
      "d": 2245.0652656250313,
      "v": 107
    },
    {
      "midi": 60,
      "hit": false,
      "t": 74210.509,
      "d": 953.9471458333574,
      "v": 44
    },
    {
      "midi": 68,
      "hit": false,
      "t": 75674.32444791669,
      "d": 5509.867135416673,
      "v": 50
    },
    {
      "midi": 77,
      "hit": false,
      "t": 75690.77181250002,
      "d": 9095.39261458334,
      "v": 50
    },
    {
      "midi": 53,
      "hit": false,
      "t": 75707.21917708336,
      "d": 6027.959119791674,
      "v": 50
    },
    {
      "midi": 41,
      "hit": false,
      "t": 75781.23231770836,
      "d": 5189.143526041633,
      "v": 41
    },
    {
      "midi": 68,
      "hit": false,
      "t": 75789.45600000002,
      "d": 2286.1836770833324,
      "v": 78
    },
    {
      "midi": 65,
      "hit": false,
      "t": 75797.67968229168,
      "d": 2245.065265625002,
      "v": 78
    },
    {
      "midi": 60,
      "hit": false,
      "t": 75814.12704687502,
      "d": 995.065557291673,
      "v": 48
    },
    {
      "midi": 53,
      "hit": false,
      "t": 77294.38985937502,
      "d": 2310.854723958313,
      "v": 56
    },
    {
      "midi": 60,
      "hit": false,
      "t": 78133.20545312502,
      "d": 378.2893854166614,
      "v": 65
    },
    {
      "midi": 74,
      "hit": false,
      "t": 78840.44213020836,
      "d": 2434.209958333333,
      "v": 50
    },
    {
      "midi": 65,
      "hit": false,
      "t": 78873.33685937503,
      "d": 1883.2232447916613,
      "v": 50
    },
    {
      "midi": 62,
      "hit": false,
      "t": 78914.45527083335,
      "d": 2179.2758072916477,
      "v": 48
    },
    {
      "midi": 68,
      "hit": false,
      "t": 78922.67895312501,
      "d": 2055.9205729166424,
      "v": 85
    },
    {
      "midi": 65,
      "hit": false,
      "t": 78930.90263541667,
      "d": 2097.038984374987,
      "v": 94
    },
    {
      "midi": 53,
      "hit": false,
      "t": 80485.17858854166,
      "d": 838.8155937499978,
      "v": 73
    },
    {
      "midi": 74,
      "hit": false,
      "t": 81948.99403645837,
      "d": 5230.261937499978,
      "v": 50
    },
    {
      "midi": 71,
      "hit": false,
      "t": 81957.21771875003,
      "d": 5526.314499999979,
      "v": 50
    },
    {
      "midi": 55,
      "hit": false,
      "t": 81957.21771875003,
      "d": 5575.656593749984,
      "v": 50
    },
    {
      "midi": 67,
      "hit": false,
      "t": 81965.4414010417,
      "d": 5312.498760416653,
      "v": 50
    },
    {
      "midi": 43,
      "hit": false,
      "t": 82129.915046875,
      "d": 5542.761864583314,
      "v": 56
    },
    {
      "midi": 55,
      "hit": false,
      "t": 82499.98075,
      "d": 287.82888020832615,
      "v": 73
    },
    {
      "midi": 60,
      "hit": false,
      "t": 82878.27013541666,
      "d": 279.60519791666593,
      "v": 65
    },
    {
      "midi": 62,
      "hit": false,
      "t": 83256.55952083333,
      "d": 164.47364583333547,
      "v": 65
    },
    {
      "midi": 67,
      "hit": false,
      "t": 83618.40154166667,
      "d": 3503.288656249977,
      "v": 102
    },
    {
      "midi": 55,
      "hit": false,
      "t": 83651.29627083334,
      "d": 1266.4470729166496,
      "v": 56
    },
    {
      "midi": 72,
      "hit": false,
      "t": 84029.58565625,
      "d": 3083.8808593749854,
      "v": 109
    },
    {
      "midi": 74,
      "hit": false,
      "t": 84407.87504166666,
      "d": 296.05256250000093,
      "v": 102
    },
    {
      "midi": 74,
      "hit": false,
      "t": 84777.94074479166,
      "d": 2327.3020885416627,
      "v": 48
    },
    {
      "midi": 79,
      "hit": false,
      "t": 84802.61179166666,
      "d": 2804.2756614583195,
      "v": 127
    },
    {
      "midi": 79,
      "hit": false,
      "t": 85123.3354010417,
      "d": 2680.920427083329,
      "v": 50
    },
    {
      "midi": 55,
      "hit": false,
      "t": 86833.86131770832,
      "d": 723.6840416666528,
      "v": 44
    },
    {
      "midi": 76,
      "hit": false,
      "t": 88190.76889583336,
      "d": 2713.815156249999,
      "v": 50
    },
    {
      "midi": 72,
      "hit": false,
      "t": 88198.99257812502,
      "d": 2639.8020156249986,
      "v": 50
    },
    {
      "midi": 60,
      "hit": false,
      "t": 88215.43994270836,
      "d": 3281.2492343750055,
      "v": 50
    },
    {
      "midi": 79,
      "hit": false,
      "t": 88240.11098958335,
      "d": 6192.432765625024,
      "v": 50
    },
    {
      "midi": 76,
      "hit": false,
      "t": 88363.46622395831,
      "d": 1735.1969635416608,
      "v": 91
    },
    {
      "midi": 72,
      "hit": false,
      "t": 88371.68990624997,
      "d": 2458.881005208328,
      "v": 85
    },
    {
      "midi": 67,
      "hit": false,
      "t": 88371.68990624997,
      "d": 2639.8020156249986,
      "v": 56
    },
    {
      "midi": 48,
      "hit": false,
      "t": 88371.68990624997,
      "d": 2861.8414374999993,
      "v": 48
    },
    {
      "midi": 60,
      "hit": false,
      "t": 88421.03199999999,
      "d": 2368.420499999993,
      "v": 66
    },
    {
      "midi": 60,
      "hit": false,
      "t": 90789.45249999998,
      "d": 690.7893124999973,
      "v": 74
    },
    {
      "midi": 76,
      "hit": false,
      "t": 90805.8998645833,
      "d": 460.5262083333364,
      "v": 94
    },
    {
      "midi": 74,
      "hit": false,
      "t": 91414.4523541667,
      "d": 2212.170536458332,
      "v": 50
    },
    {
      "midi": 71,
      "hit": false,
      "t": 91414.4523541667,
      "d": 2541.117828125003,
      "v": 50
    },
    {
      "midi": 59,
      "hit": false,
      "t": 91439.1234010417,
      "d": 3133.2229531250196,
      "v": 50
    },
    {
      "midi": 59,
      "hit": false,
      "t": 91578.92599999998,
      "d": 3157.8940000000002,
      "v": 89
    },
    {
      "midi": 71,
      "hit": false,
      "t": 91620.04441145831,
      "d": 2236.841583333313,
      "v": 78
    },
    {
      "midi": 67,
      "hit": false,
      "t": 91620.04441145831,
      "d": 2442.4336406249786,
      "v": 56
    },
    {
      "midi": 74,
      "hit": false,
      "t": 91628.26809374997,
      "d": 1603.6180468749808,
      "v": 88
    },
    {
      "midi": 47,
      "hit": false,
      "t": 91636.49177604163,
      "d": 2491.775734374998,
      "v": 44
    },
    {
      "midi": 74,
      "hit": false,
      "t": 93922.67545312496,
      "d": 131.57891666666546,
      "v": 78
    },
    {
      "midi": 69,
      "hit": false,
      "t": 94646.35949479172,
      "d": 2911.1835312499898,
      "v": 50
    },
    {
      "midi": 72,
      "hit": false,
      "t": 94646.35949479172,
      "d": 11225.326328124982,
      "v": 50
    },
    {
      "midi": 57,
      "hit": false,
      "t": 94671.03054166671,
      "d": 3190.7887291666557,
      "v": 50
    },
    {
      "midi": 76,
      "hit": false,
      "t": 94671.03054166671,
      "d": 6200.656447916655,
      "v": 50
    },
    {
      "midi": 57,
      "hit": false,
      "t": 94736.81999999998,
      "d": 2080.5916197916667,
      "v": 58
    },
    {
      "midi": 72,
      "hit": false,
      "t": 94761.49104687496,
      "d": 1940.789020833312,
      "v": 85
    },
    {
      "midi": 45,
      "hit": false,
      "t": 94794.38577604161,
      "d": 2837.1703906249895,
      "v": 48
    },
    {
      "midi": 69,
      "hit": false,
      "t": 96718.7274322916,
      "d": 427.6314791666664,
      "v": 88
    },
    {
      "midi": 64,
      "hit": false,
      "t": 97088.7931354166,
      "d": 312.49992708333593,
      "v": 78
    },
    {
      "midi": 57,
      "hit": false,
      "t": 97105.24049999997,
      "d": 838.8155937499978,
      "v": 64
    },
    {
      "midi": 60,
      "hit": false,
      "t": 97409.5167447916,
      "d": 1751.6443281250104,
      "v": 88
    },
    {
      "midi": 55,
      "hit": false,
      "t": 97828.92454166671,
      "d": 3108.551906249995,
      "v": 50
    },
    {
      "midi": 67,
      "hit": false,
      "t": 97845.37190625005,
      "d": 2516.4467812499934,
      "v": 50
    },
    {
      "midi": 69,
      "hit": false,
      "t": 97870.04295312494,
      "d": 1332.2365312500042,
      "v": 85
    },
    {
      "midi": 72,
      "hit": false,
      "t": 97870.04295312494,
      "d": 1981.9074322916713,
      "v": 88
    },
    {
      "midi": 64,
      "hit": false,
      "t": 97878.2666354166,
      "d": 1504.9338593750144,
      "v": 78
    },
    {
      "midi": 43,
      "hit": false,
      "t": 97878.2666354166,
      "d": 2952.3019427083345,
      "v": 44
    },
    {
      "midi": 55,
      "hit": false,
      "t": 97894.71399999996,
      "d": 1883.2232447916758,
      "v": 79
    },
    {
      "midi": 69,
      "hit": false,
      "t": 99843.72670312495,
      "d": 493.42093749999185,
      "v": 38
    },
    {
      "midi": 64,
      "hit": false,
      "t": 100238.46345312495,
      "d": 287.82888020832615,
      "v": 78
    },
    {
      "midi": 55,
      "hit": false,
      "t": 100263.13449999997,
      "d": 740.1314062500023,
      "v": 69
    },
    {
      "midi": 60,
      "hit": false,
      "t": 100600.30547395827,
      "d": 394.7367499999964,
      "v": 73
    },
    {
      "midi": 68,
      "hit": false,
      "t": 100962.1474947917,
      "d": 6044.406484374995,
      "v": 50
    },
    {
      "midi": 77,
      "hit": false,
      "t": 100962.1474947917,
      "d": 6299.3406354166655,
      "v": 50
    },
    {
      "midi": 53,
      "hit": false,
      "t": 100978.59485937504,
      "d": 3149.67031770834,
      "v": 50
    },
    {
      "midi": 72,
      "hit": false,
      "t": 100995.04222395827,
      "d": 493.4209375000064,
      "v": 99
    },
    {
      "midi": 41,
      "hit": false,
      "t": 101019.71327083326,
      "d": 5320.722442708327,
      "v": 65
    },
    {
      "midi": 53,
      "hit": false,
      "t": 101052.60799999998,
      "d": 1825.657468749996,
      "v": 66
    },
    {
      "midi": 60,
      "hit": false,
      "t": 101365.10792708327,
      "d": 1299.3418020833342,
      "v": 73
    },
    {
      "midi": 65,
      "hit": false,
      "t": 101751.6209947916,
      "d": 1587.1706822916603,
      "v": 91
    },
    {
      "midi": 68,
      "hit": false,
      "t": 101751.6209947916,
      "d": 1652.9601406250003,
      "v": 88
    },
    {
      "midi": 60,
      "hit": false,
      "t": 103371.68640624994,
      "d": 254.9341510416707,
      "v": 48
    },
    {
      "midi": 53,
      "hit": false,
      "t": 103421.02849999997,
      "d": 337.17097395833116,
      "v": 66
    },
    {
      "midi": 65,
      "hit": false,
      "t": 104111.81781250004,
      "d": 2985.19667187499,
      "v": 50
    },
    {
      "midi": 53,
      "hit": false,
      "t": 104210.50199999996,
      "d": 3133.222953125005,
      "v": 58
    },
    {
      "midi": 68,
      "hit": false,
      "t": 104218.72568229161,
      "d": 1784.5390572916513,
      "v": 78
    },
    {
      "midi": 62,
      "hit": false,
      "t": 104226.94936458327,
      "d": 912.8287343749835,
      "v": 65
    },
    {
      "midi": 53,
      "hit": false,
      "t": 104226.94936458327,
      "d": 2327.3020885416627,
      "v": 48
    },
    {
      "midi": 65,
      "hit": false,
      "t": 104235.17304687493,
      "d": 1661.1838229166606,
      "v": 81
    },
    {
      "midi": 74,
      "hit": false,
      "t": 105698.9884947917,
      "d": 1414.4733541666646,
      "v": 50
    },
    {
      "midi": 62,
      "hit": false,
      "t": 105822.34372916659,
      "d": 699.0129947916721,
      "v": 38
    },
    {
      "midi": 72,
      "hit": false,
      "t": 107335.50127083327,
      "d": 361.84202083334094,
      "v": 85
    },
    {
      "midi": 43,
      "hit": false,
      "t": 107351.9486354166,
      "d": 5781.248651041649,
      "v": 48
    },
    {
      "midi": 55,
      "hit": false,
      "t": 107368.39599999996,
      "d": 1817.4337864583358,
      "v": 79
    },
    {
      "midi": 74,
      "hit": false,
      "t": 107376.6196822917,
      "d": 5838.814427083329,
      "v": 50
    },
    {
      "midi": 71,
      "hit": false,
      "t": 107401.29072916669,
      "d": 5468.748723958328,
      "v": 50
    },
    {
      "midi": 67,
      "hit": false,
      "t": 107417.73809375003,
      "d": 5657.893416666659,
      "v": 50
    },
    {
      "midi": 55,
      "hit": false,
      "t": 107417.73809375003,
      "d": 6077.301213541665,
      "v": 50
    },
    {
      "midi": 62,
      "hit": false,
      "t": 107738.46170312494,
      "d": 1628.2890937499906,
      "v": 69
    },
    {
      "midi": 67,
      "hit": false,
      "t": 108092.0800416666,
      "d": 1249.9997083333292,
      "v": 88
    },
    {
      "midi": 72,
      "hit": false,
      "t": 109235.17188020828,
      "d": 452.30252604164707,
      "v": 65
    },
    {
      "midi": 55,
      "hit": false,
      "t": 109243.39556249994,
      "d": 2590.459921874979,
      "v": 65
    },
    {
      "midi": 55,
      "hit": false,
      "t": 109736.81649999997,
      "d": 254.9341510416707,
      "v": 84
    },
    {
      "midi": 79,
      "hit": false,
      "t": 110444.05317708336,
      "d": 2919.4072135416645,
      "v": 50
    },
    {
      "midi": 55,
      "hit": false,
      "t": 110526.28999999998,
      "d": 1307.5654843749944,
      "v": 66
    },
    {
      "midi": 67,
      "hit": false,
      "t": 110559.18472916659,
      "d": 2565.7888749999984,
      "v": 99
    },
    {
      "midi": 74,
      "hit": false,
      "t": 110937.47411458325,
      "d": 2245.065265625002,
      "v": 65
    },
    {
      "midi": 79,
      "hit": false,
      "t": 111307.53981770825,
      "d": 1800.9864218750008,
      "v": 114
    },
    {
      "midi": 43,
      "hit": false,
      "t": 112105.23699999998,
      "d": 1463.8154479166697,
      "v": 79
    },
    {
      "midi": 55,
      "hit": false,
      "t": 112516.42111458325,
      "d": 476.9735729166714,
      "v": 60
    },
    {
      "midi": 67,
      "hit": false,
      "t": 113495.03930729169,
      "d": 2771.380932291664,
      "v": 50
    },
    {
      "midi": 72,
      "hit": false,
      "t": 113511.48667187503,
      "d": 2952.3019427083345,
      "v": 50
    },
    {
      "midi": 76,
      "hit": false,
      "t": 113536.15771875002,
      "d": 3207.2360937500052,
      "v": 50
    },
    {
      "midi": 60,
      "hit": false,
      "t": 113544.38140104168,
      "d": 3330.591328124996,
      "v": 50
    },
    {
      "midi": 76,
      "hit": false,
      "t": 113634.84190624992,
      "d": 2302.631041666653,
      "v": 109
    },
    {
      "midi": 67,
      "hit": false,
      "t": 113634.84190624992,
      "d": 2648.0256979166734,
      "v": 78
    },
    {
      "midi": 48,
      "hit": false,
      "t": 113643.06558854158,
      "d": 2450.657322916668,
      "v": 48
    },
    {
      "midi": 72,
      "hit": false,
      "t": 113651.28927083324,
      "d": 2376.6441822916677,
      "v": 102
    },
    {
      "midi": 48,
      "hit": false,
      "t": 113684.18399999998,
      "d": 1998.3547968750063,
      "v": 74
    },
    {
      "midi": 60,
      "hit": false,
      "t": 115230.23627083324,
      "d": 912.8287343750126,
      "v": 38
    },
    {
      "midi": 79,
      "hit": false,
      "t": 116027.9334531249,
      "d": 501.6446197916812,
      "v": 88
    },
    {
      "midi": 48,
      "hit": false,
      "t": 116052.60449999999,
      "d": 789.4734999999928,
      "v": 74
    },
    {
      "midi": 71,
      "hit": false,
      "t": 116784.51222395836,
      "d": 2582.236239583319,
      "v": 50
    },
    {
      "midi": 74,
      "hit": false,
      "t": 116800.9595885417,
      "d": 3075.6571770833107,
      "v": 50
    },
    {
      "midi": 74,
      "hit": false,
      "t": 116817.40695312491,
      "d": 1652.960140625015,
      "v": 94
    },
    {
      "midi": 67,
      "hit": false,
      "t": 116825.63063541669,
      "d": 2582.236239583319,
      "v": 50
    },
    {
      "midi": 71,
      "hit": false,
      "t": 116833.85431770825,
      "d": 1636.51277604168,
      "v": 94
    },
    {
      "midi": 47,
      "hit": false,
      "t": 116833.85431770825,
      "d": 2245.065265625002,
      "v": 38
    },
    {
      "midi": 59,
      "hit": false,
      "t": 116833.85431770835,
      "d": 3100.3282239583205,
      "v": 50
    },
    {
      "midi": 47,
      "hit": false,
      "t": 116842.07799999998,
      "d": 3157.8940000000002,
      "v": 89
    },
    {
      "midi": 67,
      "hit": false,
      "t": 116866.74904687492,
      "d": 1620.065411458345,
      "v": 52
    },
    {
      "midi": 79,
      "hit": false,
      "t": 118404.57763541659,
      "d": 238.4867864583357,
      "v": 85
    },
    {
      "midi": 59,
      "hit": false,
      "t": 118437.47236458326,
      "d": 649.6709010416525,
      "v": 44
    },
    {
      "midi": 72,
      "hit": false,
      "t": 119917.73517708333,
      "d": 2598.6836041666684,
      "v": 50
    },
    {
      "midi": 76,
      "hit": false,
      "t": 119917.73517708333,
      "d": 6480.261645833321,
      "v": 50
    },
    {
      "midi": 64,
      "hit": false,
      "t": 119934.18254166658,
      "d": 929.2760989583185,
      "v": 65
    },
    {
      "midi": 69,
      "hit": false,
      "t": 119934.18254166667,
      "d": 2812.4993437499943,
      "v": 50
    },
    {
      "midi": 57,
      "hit": false,
      "t": 119934.18254166667,
      "d": 3141.4466354166652,
      "v": 50
    },
    {
      "midi": 69,
      "hit": false,
      "t": 119942.40622395824,
      "d": 2368.420499999993,
      "v": 88
    },
    {
      "midi": 72,
      "hit": false,
      "t": 119942.40622395824,
      "d": 2532.894145833314,
      "v": 73
    },
    {
      "midi": 45,
      "hit": false,
      "t": 119950.6299062499,
      "d": 2483.5520520833234,
      "v": 48
    },
    {
      "midi": 45,
      "hit": false,
      "t": 119999.97199999998,
      "d": 1825.657468749996,
      "v": 58
    },
    {
      "midi": 57,
      "hit": false,
      "t": 121603.5900468749,
      "d": 789.4734999999928,
      "v": 33
    },
    {
      "midi": 64,
      "hit": false,
      "t": 122335.49777083323,
      "d": 460.52620833332185,
      "v": 78
    },
    {
      "midi": 45,
      "hit": false,
      "t": 122368.39249999997,
      "d": 888.1576874999882,
      "v": 64
    },
    {
      "midi": 70,
      "hit": false,
      "t": 123116.74758854155,
      "d": 2014.8021614583267,
      "v": 91
    },
    {
      "midi": 43,
      "hit": false,
      "t": 123124.97127083321,
      "d": 2467.104687500003,
      "v": 60
    },
    {
      "midi": 64,
      "hit": false,
      "t": 123141.41863541654,
      "d": 1069.0786979166733,
      "v": 60
    },
    {
      "midi": 67,
      "hit": false,
      "t": 123141.41863541654,
      "d": 2023.0258437500015,
      "v": 94
    },
    {
      "midi": 43,
      "hit": false,
      "t": 123157.86599999997,
      "d": 3157.8940000000002,
      "v": 66
    },
    {
      "midi": 70,
      "hit": false,
      "t": 123207.20809375,
      "d": 2705.591473958324,
      "v": 50
    },
    {
      "midi": 67,
      "hit": false,
      "t": 123223.65545833333,
      "d": 2837.1703906249895,
      "v": 50
    },
    {
      "midi": 55,
      "hit": false,
      "t": 124695.69458854155,
      "d": 863.486640624993,
      "v": 48
    },
    {
      "midi": 65,
      "hit": false,
      "t": 126282.86527083321,
      "d": 1060.8550156249694,
      "v": 65
    },
    {
      "midi": 60,
      "hit": false,
      "t": 126299.31263541653,
      "d": 797.697182291653,
      "v": 78
    },
    {
      "midi": 57,
      "hit": false,
      "t": 126307.53631770819,
      "d": 748.3550885416626,
      "v": 38
    },
    {
      "midi": 41,
      "hit": false,
      "t": 126315.75999999997,
      "d": 1866.7758802083263,
      "v": 72
    },
    {
      "midi": 41,
      "hit": false,
      "t": 126323.98368229152,
      "d": 5526.3144999999495,
      "v": 56
    },
    {
      "midi": 53,
      "hit": false,
      "t": 126603.58888020832,
      "d": 5641.446052083309,
      "v": 50
    },
    {
      "midi": 77,
      "hit": false,
      "t": 126628.25992708332,
      "d": 5476.972406249974,
      "v": 50
    },
    {
      "midi": 72,
      "hit": false,
      "t": 126636.48360937498,
      "d": 5156.248796874992,
      "v": 50
    },
    {
      "midi": 69,
      "hit": false,
      "t": 126644.70729166664,
      "d": 5411.182947916663,
      "v": 50
    },
    {
      "midi": 41,
      "hit": false,
      "t": 128684.18049999996,
      "d": 254.9341510416707,
      "v": 74
    },
    {
      "midi": 53,
      "hit": false,
      "t": 128717.07522916651,
      "d": 2532.8941458332993,
      "v": 44
    },
    {
      "midi": 65,
      "hit": false,
      "t": 129325.62771874997,
      "d": 2483.5520520833234,
      "v": 50
    },
    {
      "midi": 41,
      "hit": false,
      "t": 129473.65399999997,
      "d": 3157.8939999999857,
      "v": 77
    },
    {
      "midi": 60,
      "hit": false,
      "t": 129506.5487291665,
      "d": 1315.7891666666546,
      "v": 48
    },
    {
      "midi": 69,
      "hit": false,
      "t": 129506.5487291665,
      "d": 1504.9338593749853,
      "v": 81
    },
    {
      "midi": 65,
      "hit": false,
      "t": 129514.77241145817,
      "d": 1463.815447916655,
      "v": 99
    },
    {
      "midi": 60,
      "hit": false,
      "t": 132598.65327083314,
      "d": 1850.3285156250058,
      "v": 78
    },
    {
      "midi": 55,
      "hit": false,
      "t": 132606.8769531248,
      "d": 1768.0916927083454,
      "v": 78
    },
    {
      "midi": 64,
      "hit": false,
      "t": 132606.8769531248,
      "d": 1899.6706093750254,
      "v": 73
    },
    {
      "midi": 43,
      "hit": false,
      "t": 132631.5479999998,
      "d": 5575.656593749998,
      "v": 52
    },
    {
      "midi": 67,
      "hit": false,
      "t": 132631.54799999995,
      "d": 5592.103958333319,
      "v": 50
    },
    {
      "midi": 55,
      "hit": false,
      "t": 132631.54799999995,
      "d": 5624.998687499989,
      "v": 50
    },
    {
      "midi": 43,
      "hit": false,
      "t": 132631.54799999995,
      "d": 2368.4205000000075,
      "v": 66
    },
    {
      "midi": 76,
      "hit": false,
      "t": 132647.99536458327,
      "d": 2763.1572499999893,
      "v": 50
    },
    {
      "midi": 72,
      "hit": false,
      "t": 132656.21904687493,
      "d": 2417.762593749998,
      "v": 50
    },
    {
      "midi": 55,
      "hit": false,
      "t": 134958.85008854148,
      "d": 1726.973281249986,
      "v": 60
    },
    {
      "midi": 43,
      "hit": false,
      "t": 134999.96849999996,
      "d": 238.48678645832115,
      "v": 64
    },
    {
      "midi": 77,
      "hit": false,
      "t": 135641.41571874992,
      "d": 2853.617755208339,
      "v": 50
    },
    {
      "midi": 65,
      "hit": false,
      "t": 135707.20517708315,
      "d": 2129.933713541657,
      "v": 88
    },
    {
      "midi": 60,
      "hit": false,
      "t": 135707.20517708315,
      "d": 2187.499489583337,
      "v": 88
    },
    {
      "midi": 57,
      "hit": false,
      "t": 135715.4288593748,
      "d": 1776.3153750000056,
      "v": 81
    },
    {
      "midi": 72,
      "hit": false,
      "t": 135789.44199999992,
      "d": 1069.0786979166733,
      "v": 50
    },
    {
      "midi": 69,
      "hit": false,
      "t": 135789.44199999992,
      "d": 3157.8940000000002,
      "v": 50
    },
    {
      "midi": 43,
      "hit": false,
      "t": 135789.44199999995,
      "d": 3157.8940000000002,
      "v": 89
    },
    {
      "midi": 55,
      "hit": false,
      "t": 137277.92849479147,
      "d": 1085.5260624999937,
      "v": 60
    },
    {
      "midi": 74,
      "hit": false,
      "t": 138733.52026041658,
      "d": 2598.6836041666684,
      "v": 50
    },
    {
      "midi": 71,
      "hit": false,
      "t": 138733.52026041658,
      "d": 2697.3677916666784,
      "v": 50
    },
    {
      "midi": 79,
      "hit": false,
      "t": 138741.74394270824,
      "d": 2664.4730625000084,
      "v": 50
    },
    {
      "midi": 55,
      "hit": false,
      "t": 138741.74394270824,
      "d": 5937.498614583339,
      "v": 50
    },
    {
      "midi": 43,
      "hit": false,
      "t": 138930.88863541646,
      "d": 5452.301359375007,
      "v": 61
    },
    {
      "midi": 62,
      "hit": false,
      "t": 138947.33599999978,
      "d": 2450.657322916668,
      "v": 99
    },
    {
      "midi": 59,
      "hit": false,
      "t": 138947.33599999978,
      "d": 2557.565192708338,
      "v": 65
    },
    {
      "midi": 67,
      "hit": false,
      "t": 138947.33599999978,
      "d": 2828.9467083333293,
      "v": 94
    },
    {
      "midi": 43,
      "hit": false,
      "t": 138947.33599999995,
      "d": 1784.5390572916658,
      "v": 77
    },
    {
      "midi": 67,
      "hit": false,
      "t": 140353.58567187493,
      "d": 4555.919989583344,
      "v": 50
    },
    {
      "midi": 55,
      "hit": false,
      "t": 140509.83563541644,
      "d": 2105.2626666666765,
      "v": 65
    },
    {
      "midi": 43,
      "hit": false,
      "t": 141315.75649999996,
      "d": 254.9341510416707,
      "v": 66
    },
    {
      "midi": 72,
      "hit": false,
      "t": 142014.7694947916,
      "d": 2664.4730624999793,
      "v": 50
    },
    {
      "midi": 77,
      "hit": false,
      "t": 142014.7694947916,
      "d": 3026.3150833333493,
      "v": 50
    },
    {
      "midi": 69,
      "hit": false,
      "t": 142031.21685937492,
      "d": 2705.5914739583386,
      "v": 50
    },
    {
      "midi": 43,
      "hit": false,
      "t": 142105.22999999995,
      "d": 3157.8940000000002,
      "v": 74
    },
    {
      "midi": 57,
      "hit": false,
      "t": 142113.45368229144,
      "d": 2491.7757343750272,
      "v": 78
    },
    {
      "midi": 60,
      "hit": false,
      "t": 142121.6773645831,
      "d": 2434.2099583333766,
      "v": 96
    },
    {
      "midi": 65,
      "hit": false,
      "t": 142121.6773645831,
      "d": 2565.7888750000275,
      "v": 99
    },
    {
      "midi": 55,
      "hit": false,
      "t": 143758.1901406248,
      "d": 616.7761718750116,
      "v": 81
    },
    {
      "midi": 67,
      "hit": false,
      "t": 145139.76876562496,
      "d": 2763.1572499999893,
      "v": 50
    },
    {
      "midi": 76,
      "hit": false,
      "t": 145139.76876562496,
      "d": 3108.5519062499807,
      "v": 50
    },
    {
      "midi": 55,
      "hit": false,
      "t": 145147.99244791662,
      "d": 5583.8802760416875,
      "v": 50
    },
    {
      "midi": 72,
      "hit": false,
      "t": 145156.21613020828,
      "d": 5386.511901041667,
      "v": 50
    },
    {
      "midi": 55,
      "hit": false,
      "t": 145263.12399999978,
      "d": 1060.855015624984,
      "v": 65
    },
    {
      "midi": 43,
      "hit": false,
      "t": 145263.12399999995,
      "d": 1817.4337864583358,
      "v": 66
    },
    {
      "midi": 60,
      "hit": false,
      "t": 145279.5713645831,
      "d": 2574.0125572916586,
      "v": 94
    },
    {
      "midi": 64,
      "hit": false,
      "t": 145287.79504687476,
      "d": 2705.5914739583386,
      "v": 91
    },
    {
      "midi": 43,
      "hit": false,
      "t": 145296.01872916642,
      "d": 5353.617171874968,
      "v": 59
    },
    {
      "midi": 55,
      "hit": false,
      "t": 146858.51836458308,
      "d": 2154.604760416667,
      "v": 73
    },
    {
      "midi": 43,
      "hit": false,
      "t": 147631.54449999996,
      "d": 279.6051979166805,
      "v": 84
    },
    {
      "midi": 77,
      "hit": false,
      "t": 148264.76803645826,
      "d": 2335.5257708333666,
      "v": 50
    },
    {
      "midi": 69,
      "hit": false,
      "t": 148264.76803645826,
      "d": 2491.7757343750563,
      "v": 50
    },
    {
      "midi": 60,
      "hit": false,
      "t": 148371.67590624976,
      "d": 2097.038984374987,
      "v": 91
    },
    {
      "midi": 57,
      "hit": false,
      "t": 148379.89958854142,
      "d": 1907.8942916666565,
      "v": 94
    },
    {
      "midi": 65,
      "hit": false,
      "t": 148379.89958854142,
      "d": 2179.2758072916477,
      "v": 104
    },
    {
      "midi": 43,
      "hit": false,
      "t": 148421.01799999998,
      "d": 3157.8940000000002,
      "v": 72
    },
    {
      "midi": 55,
      "hit": false,
      "t": 149942.39922395808,
      "d": 797.6971822916239,
      "v": 60
    },
    {
      "midi": 67,
      "hit": false,
      "t": 149942.3992239583,
      "d": 855.2629583333619,
      "v": 50
    },
    {
      "midi": 74,
      "hit": false,
      "t": 151430.88571874998,
      "d": 2360.196817708318,
      "v": 50
    },
    {
      "midi": 71,
      "hit": false,
      "t": 151430.88571874998,
      "d": 2475.3283697916486,
      "v": 50
    },
    {
      "midi": 79,
      "hit": false,
      "t": 151439.10940104164,
      "d": 2483.552052083309,
      "v": 50
    },
    {
      "midi": 55,
      "hit": false,
      "t": 151463.78044791665,
      "d": 2565.7888749999693,
      "v": 50
    },
    {
      "midi": 67,
      "hit": false,
      "t": 151472.0041302083,
      "d": 2516.446781249979,
      "v": 50
    },
    {
      "midi": 43,
      "hit": false,
      "t": 151488.4514947914,
      "d": 2639.8020156249695,
      "v": 85
    },
    {
      "midi": 67,
      "hit": false,
      "t": 151496.67517708306,
      "d": 2401.3152291666484,
      "v": 91
    },
    {
      "midi": 59,
      "hit": false,
      "t": 151504.89885937472,
      "d": 2376.6441822916677,
      "v": 73
    },
    {
      "midi": 62,
      "hit": false,
      "t": 151504.89885937472,
      "d": 2434.2099583333184,
      "v": 96
    },
    {
      "midi": 43,
      "hit": false,
      "t": 151578.91199999998,
      "d": 3157.8940000000002,
      "v": 102
    },
    {
      "midi": 55,
      "hit": false,
      "t": 153141.41163541639,
      "d": 995.0655572916439,
      "v": 56
    },
    {
      "midi": 72,
      "hit": false,
      "t": 154654.5691770833,
      "d": 855.2629583333037,
      "v": 50
    },
    {
      "midi": 55,
      "hit": false,
      "t": 154654.5691770833,
      "d": 1036.1839687499742,
      "v": 50
    },
    {
      "midi": 77,
      "hit": false,
      "t": 154662.79285937495,
      "d": 888.1576874999737,
      "v": 50
    },
    {
      "midi": 69,
      "hit": false,
      "t": 154662.79285937495,
      "d": 1019.7366041666537,
      "v": 50
    },
    {
      "midi": 67,
      "hit": false,
      "t": 154662.79285937495,
      "d": 1036.1839687499742,
      "v": 50
    },
    {
      "midi": 65,
      "hit": false,
      "t": 154679.24022395804,
      "d": 1118.4207916666637,
      "v": 91
    },
    {
      "midi": 60,
      "hit": false,
      "t": 154687.4639062497,
      "d": 814.1445468750026,
      "v": 96
    },
    {
      "midi": 57,
      "hit": false,
      "t": 154687.4639062497,
      "d": 863.486640624993,
      "v": 81
    },
    {
      "midi": 43,
      "hit": false,
      "t": 154695.68758854136,
      "d": 2828.9467083333293,
      "v": 81
    },
    {
      "midi": 41,
      "hit": false,
      "t": 154736.80599999998,
      "d": 139.80259895834024,
      "v": 79
    },
    {
      "midi": 41,
      "hit": false,
      "t": 155131.54275,
      "d": 501.6446197916812,
      "v": 79
    },
    {
      "midi": 67,
      "hit": false,
      "t": 155888.12152083302,
      "d": 1661.1838229166751,
      "v": 104
    },
    {
      "midi": 55,
      "hit": false,
      "t": 155896.34520312469,
      "d": 740.1314062500023,
      "v": 88
    },
    {
      "midi": 59,
      "hit": false,
      "t": 155904.56888541635,
      "d": 1315.7891666666837,
      "v": 88
    },
    {
      "midi": 62,
      "hit": false,
      "t": 155904.56888541635,
      "d": 1463.8154479166842,
      "v": 94
    },
    {
      "midi": 43,
      "hit": false,
      "t": 155921.01625000002,
      "d": 1184.2102500000037,
      "v": 93
    },
    {
      "midi": 71,
      "hit": false,
      "t": 156151.2793541666,
      "d": 912.8287343749835,
      "v": 50
    },
    {
      "midi": 74,
      "hit": false,
      "t": 156151.2793541666,
      "d": 995.0655572916439,
      "v": 50
    },
    {
      "midi": 79,
      "hit": false,
      "t": 156159.50303645825,
      "d": 1019.7366041666246,
      "v": 50
    },
    {
      "midi": 67,
      "hit": false,
      "t": 156175.95040104157,
      "d": 830.591911458323,
      "v": 50
    },
    {
      "midi": 55,
      "hit": false,
      "t": 156184.17408333323,
      "d": 978.6181927083235,
      "v": 50
    },
    {
      "midi": 43,
      "hit": false,
      "t": 157105.22650000002,
      "d": 690.7893125000119,
      "v": 89
    },
    {
      "midi": 55,
      "hit": false,
      "t": 157195.68700520802,
      "d": 205.59205729168025,
      "v": 85
    },
    {
      "midi": 76,
      "hit": false,
      "t": 157631.54216666654,
      "d": 1225.328661458334,
      "v": 50
    },
    {
      "midi": 72,
      "hit": false,
      "t": 157647.98953124986,
      "d": 1143.0918385416735,
      "v": 50
    },
    {
      "midi": 60,
      "hit": false,
      "t": 157647.98953124986,
      "d": 1546.0522708333447,
      "v": 50
    },
    {
      "midi": 79,
      "hit": false,
      "t": 157647.98953124986,
      "d": 3042.7624479166698,
      "v": 50
    },
    {
      "midi": 48,
      "hit": false,
      "t": 157894.70000000004,
      "d": 1554.275953125005,
      "v": 89
    },
    {
      "midi": 64,
      "hit": false,
      "t": 157935.81841145802,
      "d": 814.1445468749735,
      "v": 78
    },
    {
      "midi": 48,
      "hit": false,
      "t": 157935.81841145802,
      "d": 1225.328661458334,
      "v": 60
    },
    {
      "midi": 60,
      "hit": false,
      "t": 157952.26577604134,
      "d": 822.3682291666628,
      "v": 65
    },
    {
      "midi": 67,
      "hit": false,
      "t": 157952.26577604134,
      "d": 995.065557291673,
      "v": 65
    },
    {
      "midi": 71,
      "hit": false,
      "t": 159120.0286614582,
      "d": 1266.4470729166642,
      "v": 50
    },
    {
      "midi": 74,
      "hit": false,
      "t": 159128.25234374986,
      "d": 1101.9734270833433,
      "v": 50
    },
    {
      "midi": 59,
      "hit": false,
      "t": 159136.47602604152,
      "d": 1570.7233177083253,
      "v": 50
    },
    {
      "midi": 62,
      "hit": false,
      "t": 159448.9759531247,
      "d": 608.5524895833223,
      "v": 91
    },
    {
      "midi": 67,
      "hit": false,
      "t": 159448.9759531247,
      "d": 814.1445468750026,
      "v": 85
    },
    {
      "midi": 47,
      "hit": false,
      "t": 159448.9759531247,
      "d": 1546.0522708333156,
      "v": 65
    },
    {
      "midi": 59,
      "hit": false,
      "t": 159465.42331770802,
      "d": 740.1314062500023,
      "v": 56
    },
    {
      "midi": 47,
      "hit": false,
      "t": 159473.64700000006,
      "d": 1578.9469999999856,
      "v": 86
    },
    {
      "midi": 72,
      "hit": false,
      "t": 160838.77826041653,
      "d": 2796.0519791666593,
      "v": 50
    },
    {
      "midi": 69,
      "hit": false,
      "t": 160838.77826041653,
      "d": 2812.4993437499797,
      "v": 50
    },
    {
      "midi": 57,
      "hit": false,
      "t": 160855.22562499985,
      "d": 1874.9995624999865,
      "v": 50
    },
    {
      "midi": 76,
      "hit": false,
      "t": 160855.22562499985,
      "d": 6496.709010416671,
      "v": 50
    },
    {
      "midi": 60,
      "hit": false,
      "t": 160978.5808593747,
      "d": 1587.1706822916458,
      "v": 85
    },
    {
      "midi": 57,
      "hit": false,
      "t": 161003.25190624967,
      "d": 1101.9734270833433,
      "v": 60
    },
    {
      "midi": 64,
      "hit": false,
      "t": 161003.25190624967,
      "d": 3050.98613020833,
      "v": 85
    },
    {
      "midi": 45,
      "hit": false,
      "t": 161027.92295312468,
      "d": 2327.302088541648,
      "v": 52
    },
    {
      "midi": 57,
      "hit": false,
      "t": 162582.19890624966,
      "d": 1324.012848958344,
      "v": 69
    },
    {
      "midi": 57,
      "hit": false,
      "t": 162796.01464583317,
      "d": 1258.223390625004,
      "v": 50
    },
    {
      "midi": 60,
      "hit": false,
      "t": 163396.34345312466,
      "d": 674.3419479166623,
      "v": 44
    },
    {
      "midi": 45,
      "hit": false,
      "t": 163421.01450000005,
      "d": 148.02628125000047,
      "v": 89
    },
    {
      "midi": 71,
      "hit": false,
      "t": 164120.02749479152,
      "d": 2524.670463541668,
      "v": 50
    },
    {
      "midi": 52,
      "hit": false,
      "t": 164128.25117708318,
      "d": 2886.512484375009,
      "v": 50
    },
    {
      "midi": 67,
      "hit": false,
      "t": 164136.47485937484,
      "d": 2689.144109375018,
      "v": 50
    },
    {
      "midi": 40,
      "hit": false,
      "t": 164161.14590624964,
      "d": 2557.565192708338,
      "v": 65
    },
    {
      "midi": 52,
      "hit": false,
      "t": 164210.48800000004,
      "d": 1891.446927083336,
      "v": 125
    },
    {
      "midi": 55,
      "hit": false,
      "t": 164958.84308854133,
      "d": 1858.552197916637,
      "v": 69
    },
    {
      "midi": 64,
      "hit": false,
      "t": 165641.40871874985,
      "d": 863.486640624993,
      "v": 50
    },
    {
      "midi": 52,
      "hit": false,
      "t": 165764.76395312467,
      "d": 805.9208645833132,
      "v": 52
    },
    {
      "midi": 64,
      "hit": false,
      "t": 166554.23745312466,
      "d": 246.71046874998137,
      "v": 85
    },
    {
      "midi": 52,
      "hit": false,
      "t": 166578.90850000005,
      "d": 690.7893125000119,
      "v": 89
    },
    {
      "midi": 59,
      "hit": false,
      "t": 166611.8032291663,
      "d": 337.17097395833116,
      "v": 56
    },
    {
      "midi": 65,
      "hit": false,
      "t": 167310.81622395798,
      "d": 3108.5519062499807,
      "v": 69
    },
    {
      "midi": 62,
      "hit": false,
      "t": 167327.2635885413,
      "d": 2401.3152291666484,
      "v": 88
    },
    {
      "midi": 57,
      "hit": false,
      "t": 167335.48727083296,
      "d": 1134.8681562499842,
      "v": 38
    },
    {
      "midi": 38,
      "hit": false,
      "t": 167335.48727083296,
      "d": 2549.341510416649,
      "v": 78
    },
    {
      "midi": 50,
      "hit": false,
      "t": 167368.38200000007,
      "d": 2138.1573958333465,
      "v": 96
    },
    {
      "midi": 69,
      "hit": false,
      "t": 167409.5004114582,
      "d": 2228.617901041638,
      "v": 50
    },
    {
      "midi": 62,
      "hit": false,
      "t": 167417.72409374986,
      "d": 2878.2888020833198,
      "v": 50
    },
    {
      "midi": 65,
      "hit": false,
      "t": 167425.94777604152,
      "d": 2171.0521249999874,
      "v": 50
    },
    {
      "midi": 74,
      "hit": false,
      "t": 167434.17145833318,
      "d": 2508.2230989583186,
      "v": 50
    },
    {
      "midi": 50,
      "hit": false,
      "t": 168889.76322395794,
      "d": 805.9208645833423,
      "v": 65
    },
    {
      "midi": 57,
      "hit": false,
      "t": 169736.8024999996,
      "d": 657.8945833333419,
      "v": 60
    },
    {
      "midi": 50,
      "hit": false,
      "t": 169736.80250000008,
      "d": 690.7893125000119,
      "v": 35
    },
    {
      "midi": 74,
      "hit": false,
      "t": 170394.6970833332,
      "d": 2277.9599947916286,
      "v": 50
    },
    {
      "midi": 79,
      "hit": false,
      "t": 170402.92076562485,
      "d": 2368.4204999999783,
      "v": 50
    },
    {
      "midi": 71,
      "hit": false,
      "t": 170411.1444479165,
      "d": 2220.394218749978,
      "v": 50
    },
    {
      "midi": 55,
      "hit": false,
      "t": 170419.36813020817,
      "d": 2656.249380208319,
      "v": 50
    },
    {
      "midi": 43,
      "hit": false,
      "t": 170501.60495312462,
      "d": 2623.354651041649,
      "v": 56
    },
    {
      "midi": 55,
      "hit": false,
      "t": 170526.2760000001,
      "d": 1924.341656250006,
      "v": 79
    },
    {
      "midi": 55,
      "hit": false,
      "t": 171307.52581770797,
      "d": 781.2498177083326,
      "v": 65
    },
    {
      "midi": 67,
      "hit": false,
      "t": 172088.7756354163,
      "d": 888.1576874999737,
      "v": 78
    },
    {
      "midi": 59,
      "hit": false,
      "t": 172121.67036458297,
      "d": 805.9208645833132,
      "v": 73
    },
    {
      "midi": 62,
      "hit": false,
      "t": 172129.89404687463,
      "d": 674.3419479166623,
      "v": 104
    },
    {
      "midi": 55,
      "hit": false,
      "t": 172894.6965000001,
      "d": 731.9077239583421,
      "v": 69
    },
    {
      "midi": 76,
      "hit": false,
      "t": 173519.6963541665,
      "d": 1167.7628854166542,
      "v": 50
    },
    {
      "midi": 60,
      "hit": false,
      "t": 173519.6963541665,
      "d": 1480.2628124999756,
      "v": 50
    },
    {
      "midi": 72,
      "hit": false,
      "t": 173527.92003645815,
      "d": 1027.960286458314,
      "v": 50
    },
    {
      "midi": 79,
      "hit": false,
      "t": 173527.92003645815,
      "d": 2754.9335677083,
      "v": 50
    },
    {
      "midi": 64,
      "hit": false,
      "t": 173634.82790624961,
      "d": 879.9340052083426,
      "v": 88
    },
    {
      "midi": 60,
      "hit": false,
      "t": 173634.82790624961,
      "d": 995.065557291673,
      "v": 69
    },
    {
      "midi": 67,
      "hit": false,
      "t": 173634.82790624961,
      "d": 1085.5260624999937,
      "v": 78
    },
    {
      "midi": 48,
      "hit": false,
      "t": 173634.82790624961,
      "d": 1126.644473958324,
      "v": 81
    },
    {
      "midi": 48,
      "hit": false,
      "t": 173684.17000000013,
      "d": 1726.973281249986,
      "v": 102
    },
    {
      "midi": 74,
      "hit": false,
      "t": 174925.94602604146,
      "d": 1093.749744791654,
      "v": 50
    },
    {
      "midi": 71,
      "hit": false,
      "t": 174934.16970833312,
      "d": 1241.7760260416544,
      "v": 50
    },
    {
      "midi": 59,
      "hit": false,
      "t": 174942.39339062478,
      "d": 1496.710177083325,
      "v": 50
    },
    {
      "midi": 62,
      "hit": false,
      "t": 175172.65649479127,
      "d": 723.6840416666528,
      "v": 85
    },
    {
      "midi": 67,
      "hit": false,
      "t": 175172.65649479127,
      "d": 871.7103229166532,
      "v": 85
    },
    {
      "midi": 59,
      "hit": false,
      "t": 175180.88017708293,
      "d": 855.2629583333328,
      "v": 69
    },
    {
      "midi": 47,
      "hit": false,
      "t": 175189.1038593746,
      "d": 1085.5260624999937,
      "v": 73
    },
    {
      "midi": 47,
      "hit": false,
      "t": 175263.11700000011,
      "d": 1529.604906249995,
      "v": 84
    },
    {
      "midi": 72,
      "hit": false,
      "t": 176562.4588020831,
      "d": 2746.709885416669,
      "v": 50
    },
    {
      "midi": 57,
      "hit": false,
      "t": 176562.4588020831,
      "d": 3240.13082291669,
      "v": 50
    },
    {
      "midi": 69,
      "hit": false,
      "t": 176578.90616666642,
      "d": 2861.8414375000284,
      "v": 50
    },
    {
      "midi": 76,
      "hit": false,
      "t": 176578.90616666642,
      "d": 6241.774859375029,
      "v": 50
    },
    {
      "midi": 57,
      "hit": false,
      "t": 176800.94558854125,
      "d": 1184.2102500000037,
      "v": 60
    },
    {
      "midi": 60,
      "hit": false,
      "t": 176809.1692708329,
      "d": 2927.6308958333393,
      "v": 94
    },
    {
      "midi": 64,
      "hit": false,
      "t": 176809.1692708329,
      "d": 3034.5387656250095,
      "v": 85
    },
    {
      "midi": 45,
      "hit": false,
      "t": 176825.61663541623,
      "d": 2294.407359375007,
      "v": 48
    },
    {
      "midi": 45,
      "hit": false,
      "t": 176842.0640000001,
      "d": 1825.657468749996,
      "v": 66
    },
    {
      "midi": 57,
      "hit": false,
      "t": 178437.4583645829,
      "d": 1233.5523437499942,
      "v": 44
    },
    {
      "midi": 45,
      "hit": false,
      "t": 179210.4845000001,
      "d": 682.5656302083225,
      "v": 58
    },
    {
      "midi": 71,
      "hit": false,
      "t": 179794.36594270813,
      "d": 3338.8150104166416,
      "v": 50
    },
    {
      "midi": 67,
      "hit": false,
      "t": 179819.0369895831,
      "d": 2787.828296874999,
      "v": 50
    },
    {
      "midi": 52,
      "hit": false,
      "t": 179819.0369895831,
      "d": 2902.9598489583295,
      "v": 50
    },
    {
      "midi": 40,
      "hit": false,
      "t": 179967.0632708329,
      "d": 2491.775734374969,
      "v": 56
    },
    {
      "midi": 52,
      "hit": false,
      "t": 179999.9580000001,
      "d": 2368.4205000000075,
      "v": 117
    },
    {
      "midi": 55,
      "hit": false,
      "t": 180723.64204166623,
      "d": 822.3682291666628,
      "v": 65
    },
    {
      "midi": 64,
      "hit": false,
      "t": 180723.64204166623,
      "d": 1694.078552083316,
      "v": 73
    },
    {
      "midi": 59,
      "hit": false,
      "t": 180764.76045312456,
      "d": 1578.9469999999856,
      "v": 65
    },
    {
      "midi": 52,
      "hit": false,
      "t": 181537.78658854123,
      "d": 929.2760989583039,
      "v": 73
    },
    {
      "midi": 52,
      "hit": false,
      "t": 182368.3785000001,
      "d": 682.5656302083225,
      "v": 58
    },
    {
      "midi": 55,
      "hit": false,
      "t": 182384.82586458288,
      "d": 238.48678645832115,
      "v": 52
    },
    {
      "midi": 65,
      "hit": false,
      "t": 183141.4046354162,
      "d": 2047.6968906249967,
      "v": 88
    },
    {
      "midi": 38,
      "hit": false,
      "t": 183149.62831770786,
      "d": 5205.590890624997,
      "v": 56
    },
    {
      "midi": 62,
      "hit": false,
      "t": 183157.85199999952,
      "d": 1677.6311874999956,
      "v": 88
    },
    {
      "midi": 57,
      "hit": false,
      "t": 183157.85199999952,
      "d": 1858.552197916666,
      "v": 56
    },
    {
      "midi": 50,
      "hit": false,
      "t": 183157.8520000001,
      "d": 1850.3285156250058,
      "v": 58
    },
    {
      "midi": 74,
      "hit": false,
      "t": 183174.2993645831,
      "d": 5575.656593749969,
      "v": 50
    },
    {
      "midi": 77,
      "hit": false,
      "t": 183182.52304687476,
      "d": 5460.525041666639,
      "v": 50
    },
    {
      "midi": 69,
      "hit": false,
      "t": 183190.74672916642,
      "d": 5180.919843749987,
      "v": 50
    },
    {
      "midi": 50,
      "hit": false,
      "t": 183190.74672916642,
      "d": 5222.038255208317,
      "v": 50
    },
    {
      "midi": 50,
      "hit": false,
      "t": 184745.0226822912,
      "d": 1620.065411458345,
      "v": 65
    },
    {
      "midi": 57,
      "hit": false,
      "t": 185526.27249999953,
      "d": 1628.2890937500051,
      "v": 48
    },
    {
      "midi": 50,
      "hit": false,
      "t": 185526.2725000001,
      "d": 485.1972552083316,
      "v": 43
    },
    {
      "midi": 62,
      "hit": false,
      "t": 186225.2854947914,
      "d": 2203.9468541666574,
      "v": 50
    },
    {
      "midi": 50,
      "hit": false,
      "t": 186315.7460000001,
      "d": 3157.8940000000002,
      "v": 84
    },
    {
      "midi": 50,
      "hit": false,
      "t": 187121.66686458286,
      "d": 1513.1575416666456,
      "v": 69
    },
    {
      "midi": 65,
      "hit": false,
      "t": 187894.69299999953,
      "d": 896.3813697916048,
      "v": 81
    },
    {
      "midi": 57,
      "hit": false,
      "t": 187911.14036458285,
      "d": 814.1445468749735,
      "v": 56
    },
    {
      "midi": 62,
      "hit": false,
      "t": 187911.14036458285,
      "d": 838.8155937499541,
      "v": 88
    },
    {
      "midi": 38,
      "hit": false,
      "t": 188618.3770416662,
      "d": 115.13155208330136,
      "v": 85
    },
    {
      "midi": 69,
      "hit": false,
      "t": 189317.3900364581,
      "d": 9218.7478489583,
      "v": 50
    },
    {
      "midi": 72,
      "hit": false,
      "t": 189317.3900364581,
      "d": 9268.089942708291,
      "v": 50
    },
    {
      "midi": 77,
      "hit": false,
      "t": 189325.61371874975,
      "d": 9300.984671874961,
      "v": 50
    },
    {
      "midi": 55,
      "hit": false,
      "t": 189333.8374010414,
      "d": 9276.31362499998,
      "v": 50
    },
    {
      "midi": 67,
      "hit": false,
      "t": 189342.06108333307,
      "d": 9276.31362499998,
      "v": 50
    },
    {
      "midi": 57,
      "hit": false,
      "t": 189440.7452708328,
      "d": 7976.9718229166465,
      "v": 81
    },
    {
      "midi": 65,
      "hit": false,
      "t": 189440.7452708328,
      "d": 8059.208645833307,
      "v": 91
    },
    {
      "midi": 60,
      "hit": false,
      "t": 189448.96895312445,
      "d": 7976.9718229166465,
      "v": 109
    },
    {
      "midi": 43,
      "hit": false,
      "t": 189448.96895312445,
      "d": 8404.603302083327,
      "v": 94
    },
    {
      "midi": 43,
      "hit": false,
      "t": 189473.6400000001,
      "d": 9473.682,
      "v": 69
    },
    {
      "midi": 55,
      "hit": false,
      "t": 192582.19190624944,
      "d": 4884.867281249986,
      "v": 73
    },
    {
      "midi": 72,
      "hit": false,
      "t": 198947.32199999972,
      "d": 2162.828442708327,
      "v": 50
    },
    {
      "midi": 60,
      "hit": false,
      "t": 198947.32199999972,
      "d": 2376.6441822916677,
      "v": 50
    },
    {
      "midi": 76,
      "hit": false,
      "t": 198947.32199999972,
      "d": 2458.881005208328,
      "v": 50
    },
    {
      "midi": 79,
      "hit": false,
      "t": 198947.32199999972,
      "d": 4243.420062499936,
      "v": 50
    },
    {
      "midi": 48,
      "hit": false,
      "t": 198947.3220000001,
      "d": 1866.7758802083263,
      "v": 74
    },
    {
      "midi": 60,
      "hit": false,
      "t": 198963.76936458334,
      "d": 3009.867718750058,
      "v": 49
    },
    {
      "midi": 48,
      "hit": false,
      "t": 198980.2167291661,
      "d": 2351.973135416629,
      "v": 38
    },
    {
      "midi": 67,
      "hit": false,
      "t": 198980.2167291661,
      "d": 2615.1309687499597,
      "v": 56
    },
    {
      "midi": 64,
      "hit": false,
      "t": 198988.44041145776,
      "d": 2031.2495260416472,
      "v": 65
    },
    {
      "midi": 60,
      "hit": false,
      "t": 198996.66409374942,
      "d": 2360.196817708318,
      "v": 52
    },
    {
      "midi": 67,
      "hit": false,
      "t": 199325.61138541668,
      "d": 328.94729166667094,
      "v": 45
    },
    {
      "midi": 71,
      "hit": false,
      "t": 199720.3481354167,
      "d": 328.94729166667094,
      "v": 89
    },
    {
      "midi": 67,
      "hit": false,
      "t": 200115.0848854167,
      "d": 386.5130677083216,
      "v": 86
    },
    {
      "midi": 76,
      "hit": false,
      "t": 200501.59795312502,
      "d": 337.17097395833116,
      "v": 89
    },
    {
      "midi": 67,
      "hit": false,
      "t": 200896.33470312503,
      "d": 337.17097395833116,
      "v": 66
    },
    {
      "midi": 71,
      "hit": false,
      "t": 201299.2951354167,
      "d": 394.73675000001094,
      "v": 79
    },
    {
      "midi": 48,
      "hit": false,
      "t": 201315.7425000001,
      "d": 756.5787708333228,
      "v": 64
    },
    {
      "midi": 67,
      "hit": false,
      "t": 201694.0318854167,
      "d": 328.94729166667094,
      "v": 74
    },
    {
      "midi": 76,
      "hit": false,
      "t": 201858.5055312497,
      "d": 995.0655572916148,
      "v": 50
    },
    {
      "midi": 70,
      "hit": false,
      "t": 201883.1765781247,
      "d": 995.0655572916439,
      "v": 50
    },
    {
      "midi": 74,
      "hit": false,
      "t": 201899.623942708,
      "d": 863.486640624993,
      "v": 50
    },
    {
      "midi": 58,
      "hit": false,
      "t": 201899.623942708,
      "d": 1356.9075781249849,
      "v": 50
    },
    {
      "midi": 58,
      "hit": false,
      "t": 202088.76863541672,
      "d": 1636.5127760416945,
      "v": 49
    },
    {
      "midi": 46,
      "hit": false,
      "t": 202105.2159999994,
      "d": 986.8418750000128,
      "v": 38
    },
    {
      "midi": 46,
      "hit": false,
      "t": 202105.2160000001,
      "d": 1504.9338593749853,
      "v": 55
    },
    {
      "midi": 67,
      "hit": false,
      "t": 202113.43968229106,
      "d": 1019.7366041666828,
      "v": 88
    },
    {
      "midi": 62,
      "hit": false,
      "t": 202121.66336458272,
      "d": 641.4472187500214,
      "v": 85
    },
    {
      "midi": 58,
      "hit": false,
      "t": 202154.5580937494,
      "d": 830.5919114583521,
      "v": 44
    },
    {
      "midi": 64,
      "hit": false,
      "t": 202483.50538541673,
      "d": 394.73675000001094,
      "v": 70
    },
    {
      "midi": 67,
      "hit": false,
      "t": 202878.24213541675,
      "d": 386.5130677083216,
      "v": 92
    },
    {
      "midi": 74,
      "hit": false,
      "t": 203256.5315208334,
      "d": 345.3946562499914,
      "v": 95
    },
    {
      "midi": 69,
      "hit": false,
      "t": 203462.12357812468,
      "d": 1439.1444010416453,
      "v": 50
    },
    {
      "midi": 73,
      "hit": false,
      "t": 203470.34726041634,
      "d": 1644.7364583333256,
      "v": 50
    },
    {
      "midi": 76,
      "hit": false,
      "t": 203495.01830729132,
      "d": 1562.4996354166651,
      "v": 50
    },
    {
      "midi": 57,
      "hit": false,
      "t": 203495.01830729132,
      "d": 1735.1969635416754,
      "v": 50
    },
    {
      "midi": 61,
      "hit": false,
      "t": 203651.26827083275,
      "d": 1060.8550156249548,
      "v": 65
    },
    {
      "midi": 57,
      "hit": false,
      "t": 203659.4919531244,
      "d": 970.3945104166341,
      "v": 60
    },
    {
      "midi": 73,
      "hit": false,
      "t": 203659.49195312508,
      "d": 929.276098958333,
      "v": 45
    },
    {
      "midi": 57,
      "hit": false,
      "t": 203659.49195312508,
      "d": 1578.9469999999856,
      "v": 45
    },
    {
      "midi": 64,
      "hit": false,
      "t": 203675.93931770773,
      "d": 1126.6444739582948,
      "v": 78
    },
    {
      "midi": 45,
      "hit": false,
      "t": 203684.1629999994,
      "d": 1529.604906249966,
      "v": 48
    },
    {
      "midi": 45,
      "hit": false,
      "t": 203684.1630000001,
      "d": 1480.2628125000047,
      "v": 72
    },
    {
      "midi": 76,
      "hit": false,
      "t": 204448.96545312507,
      "d": 468.7498906250112,
      "v": 92
    },
    {
      "midi": 81,
      "hit": false,
      "t": 204851.92588541674,
      "d": 263.1578333333309,
      "v": 86
    },
    {
      "midi": 69,
      "hit": false,
      "t": 205189.09685937467,
      "d": 2294.407359374978,
      "v": 50
    },
    {
      "midi": 77,
      "hit": false,
      "t": 205197.32054166633,
      "d": 5435.8539947916,
      "v": 50
    },
    {
      "midi": 74,
      "hit": false,
      "t": 205205.544223958,
      "d": 2335.5257708333374,
      "v": 50
    },
    {
      "midi": 62,
      "hit": false,
      "t": 205205.544223958,
      "d": 2425.986276041658,
      "v": 50
    },
    {
      "midi": 65,
      "hit": false,
      "t": 205221.99158854102,
      "d": 2919.40721354165,
      "v": 65
    },
    {
      "midi": 57,
      "hit": false,
      "t": 205230.21527083268,
      "d": 1439.1444010416453,
      "v": 44
    },
    {
      "midi": 62,
      "hit": false,
      "t": 205238.43895312434,
      "d": 1842.1048333333165,
      "v": 78
    },
    {
      "midi": 50,
      "hit": false,
      "t": 205238.43895312506,
      "d": 2968.7493072917277,
      "v": 49
    },
    {
      "midi": 50,
      "hit": false,
      "t": 205263.10999999932,
      "d": 1800.9864218750154,
      "v": 48
    },
    {
      "midi": 50,
      "hit": false,
      "t": 205263.1100000001,
      "d": 3116.77558854167,
      "v": 66
    },
    {
      "midi": 65,
      "hit": false,
      "t": 205641.39938541673,
      "d": 394.73675000001094,
      "v": 53
    },
    {
      "midi": 74,
      "hit": false,
      "t": 206036.13613541675,
      "d": 263.1578333333309,
      "v": 86
    },
    {
      "midi": 69,
      "hit": false,
      "t": 206430.87288541676,
      "d": 328.94729166667094,
      "v": 61
    },
    {
      "midi": 79,
      "hit": false,
      "t": 206825.60963541677,
      "d": 337.17097395833116,
      "v": 61
    },
    {
      "midi": 74,
      "hit": false,
      "t": 206833.83331770843,
      "d": 320.7236093750107,
      "v": 86
    },
    {
      "midi": 38,
      "hit": false,
      "t": 206842.05699999933,
      "d": 608.5524895833223,
      "v": 48
    },
    {
      "midi": 77,
      "hit": false,
      "t": 207212.1227031251,
      "d": 402.96043229167117,
      "v": 82
    },
    {
      "midi": 74,
      "hit": false,
      "t": 207615.08313541676,
      "d": 328.94729166667094,
      "v": 82
    },
    {
      "midi": 57,
      "hit": false,
      "t": 207623.30681770766,
      "d": 624.9998541666719,
      "v": 78
    },
    {
      "midi": 69,
      "hit": false,
      "t": 208001.5962031251,
      "d": 263.15783333336003,
      "v": 39
    },
    {
      "midi": 72,
      "hit": false,
      "t": 208223.63562499965,
      "d": 2360.196817708289,
      "v": 50
    },
    {
      "midi": 68,
      "hit": false,
      "t": 208231.8593072913,
      "d": 2286.183677083318,
      "v": 50
    },
    {
      "midi": 53,
      "hit": false,
      "t": 208231.8593072913,
      "d": 2368.4204999999492,
      "v": 50
    },
    {
      "midi": 65,
      "hit": false,
      "t": 208240.08298958297,
      "d": 2327.302088541648,
      "v": 50
    },
    {
      "midi": 41,
      "hit": false,
      "t": 208371.66190624933,
      "d": 2565.7888749999693,
      "v": 91
    },
    {
      "midi": 53,
      "hit": false,
      "t": 208404.5566354168,
      "d": 2631.5783333333675,
      "v": 92
    },
    {
      "midi": 41,
      "hit": false,
      "t": 208421.0040000001,
      "d": 2976.9729895833298,
      "v": 74
    },
    {
      "midi": 68,
      "hit": false,
      "t": 208799.29338541682,
      "d": 263.1578333333309,
      "v": 49
    },
    {
      "midi": 56,
      "hit": false,
      "t": 209169.35908854098,
      "d": 896.381369791663,
      "v": 85
    },
    {
      "midi": 72,
      "hit": false,
      "t": 209194.03013541683,
      "d": 320.7236093750107,
      "v": 89
    },
    {
      "midi": 65,
      "hit": false,
      "t": 209588.76688541684,
      "d": 1184.2102500000037,
      "v": 66
    },
    {
      "midi": 65,
      "hit": false,
      "t": 209967.05627083263,
      "d": 879.9340052083426,
      "v": 88
    },
    {
      "midi": 77,
      "hit": false,
      "t": 209983.50363541686,
      "d": 789.4734999999928,
      "v": 74
    },
    {
      "midi": 53,
      "hit": false,
      "t": 209991.72731770764,
      "d": 830.591911458323,
      "v": 60
    },
    {
      "midi": 60,
      "hit": false,
      "t": 209999.9509999993,
      "d": 748.3550885416626,
      "v": 85
    },
    {
      "midi": 56,
      "hit": false,
      "t": 210748.30608854096,
      "d": 189.1446927083307,
      "v": 52
    },
    {
      "midi": 72,
      "hit": false,
      "t": 211266.39807291626,
      "d": 2590.459921874979,
      "v": 50
    },
    {
      "midi": 76,
      "hit": false,
      "t": 211291.06911979127,
      "d": 2820.72302604164,
      "v": 50
    },
    {
      "midi": 60,
      "hit": false,
      "t": 211307.5164843746,
      "d": 3050.98613020833,
      "v": 50
    },
    {
      "midi": 79,
      "hit": false,
      "t": 211315.74016666625,
      "d": 4342.104249999917,
      "v": 50
    },
    {
      "midi": 60,
      "hit": false,
      "t": 211562.45063541684,
      "d": 2828.9467083334166,
      "v": 82
    },
    {
      "midi": 48,
      "hit": false,
      "t": 211578.8980000001,
      "d": 1842.1048333333456,
      "v": 69
    },
    {
      "midi": 64,
      "hit": false,
      "t": 211595.3453645826,
      "d": 1480.2628125000047,
      "v": 56
    },
    {
      "midi": 67,
      "hit": false,
      "t": 211595.3453645826,
      "d": 2434.2099583333475,
      "v": 56
    },
    {
      "midi": 48,
      "hit": false,
      "t": 211595.3453645826,
      "d": 2532.8941458333575,
      "v": 38
    },
    {
      "midi": 60,
      "hit": false,
      "t": 211603.56904687427,
      "d": 970.3945104166633,
      "v": 44
    },
    {
      "midi": 67,
      "hit": false,
      "t": 211957.18738541685,
      "d": 328.94729166667094,
      "v": 70
    },
    {
      "midi": 71,
      "hit": false,
      "t": 212351.92413541686,
      "d": 328.94729166667094,
      "v": 100
    },
    {
      "midi": 67,
      "hit": false,
      "t": 212746.66088541687,
      "d": 394.73675000001094,
      "v": 82
    },
    {
      "midi": 76,
      "hit": false,
      "t": 213141.39763541688,
      "d": 328.94729166667094,
      "v": 82
    },
    {
      "midi": 60,
      "hit": false,
      "t": 213215.41077604095,
      "d": 871.7103229166823,
      "v": 56
    },
    {
      "midi": 67,
      "hit": false,
      "t": 213527.91070312524,
      "d": 337.17097395833116,
      "v": 79
    },
    {
      "midi": 64,
      "hit": false,
      "t": 213906.20008854097,
      "d": 246.71046875001048,
      "v": 52
    },
    {
      "midi": 71,
      "hit": false,
      "t": 213939.09481770857,
      "d": 320.7236093750107,
      "v": 86
    },
    {
      "midi": 48,
      "hit": false,
      "t": 213947.3185000001,
      "d": 805.9208645833132,
      "v": 64
    },
    {
      "midi": 67,
      "hit": false,
      "t": 214325.60788541692,
      "d": 263.1578333333309,
      "v": 79
    },
    {
      "midi": 76,
      "hit": false,
      "t": 214522.97626041624,
      "d": 1019.7366041665955,
      "v": 50
    },
    {
      "midi": 74,
      "hit": false,
      "t": 214539.42362499956,
      "d": 929.2760989582748,
      "v": 50
    },
    {
      "midi": 70,
      "hit": false,
      "t": 214564.09467187454,
      "d": 1093.7497447916248,
      "v": 50
    },
    {
      "midi": 58,
      "hit": false,
      "t": 214580.54203645786,
      "d": 1455.5917656249658,
      "v": 50
    },
    {
      "midi": 58,
      "hit": false,
      "t": 214695.67358854096,
      "d": 871.7103229166532,
      "v": 48
    },
    {
      "midi": 46,
      "hit": false,
      "t": 214695.67358854096,
      "d": 1118.4207916666346,
      "v": 44
    },
    {
      "midi": 67,
      "hit": false,
      "t": 214703.89727083262,
      "d": 945.7234635416535,
      "v": 94
    },
    {
      "midi": 62,
      "hit": false,
      "t": 214712.12095312428,
      "d": 682.5656302083225,
      "v": 94
    },
    {
      "midi": 58,
      "hit": false,
      "t": 214720.34463541693,
      "d": 1513.1575416666747,
      "v": 61
    },
    {
      "midi": 46,
      "hit": false,
      "t": 214736.7920000001,
      "d": 1595.394364583306,
      "v": 96
    },
    {
      "midi": 64,
      "hit": false,
      "t": 215106.85770312525,
      "d": 411.1841145833314,
      "v": 70
    },
    {
      "midi": 67,
      "hit": false,
      "t": 215509.81813541692,
      "d": 328.94729166667094,
      "v": 97
    },
    {
      "midi": 74,
      "hit": false,
      "t": 215904.55488541693,
      "d": 271.38151562499115,
      "v": 110
    },
    {
      "midi": 73,
      "hit": false,
      "t": 216126.59430729115,
      "d": 1496.7101770833542,
      "v": 50
    },
    {
      "midi": 81,
      "hit": false,
      "t": 216134.8179895828,
      "d": 1101.9734270833433,
      "v": 50
    },
    {
      "midi": 76,
      "hit": false,
      "t": 216143.04167187447,
      "d": 1118.4207916666928,
      "v": 50
    },
    {
      "midi": 69,
      "hit": false,
      "t": 216143.04167187447,
      "d": 1291.118119791703,
      "v": 50
    },
    {
      "midi": 57,
      "hit": false,
      "t": 216151.26535416613,
      "d": 1562.4996354166942,
      "v": 50
    },
    {
      "midi": 61,
      "hit": false,
      "t": 216282.8442708326,
      "d": 1406.2496718749753,
      "v": 78
    },
    {
      "midi": 64,
      "hit": false,
      "t": 216299.29163541592,
      "d": 1439.1444010416453,
      "v": 69
    },
    {
      "midi": 73,
      "hit": false,
      "t": 216299.29163541694,
      "d": 797.697182291653,
      "v": 79
    },
    {
      "midi": 57,
      "hit": false,
      "t": 216299.29163541694,
      "d": 1373.3549427083053,
      "v": 45
    },
    {
      "midi": 57,
      "hit": false,
      "t": 216315.73899999924,
      "d": 1274.6707552083244,
      "v": 48
    },
    {
      "midi": 45,
      "hit": false,
      "t": 216315.7390000001,
      "d": 1447.3680833333347,
      "v": 61
    },
    {
      "midi": 45,
      "hit": false,
      "t": 216332.18636458257,
      "d": 1036.1839687500033,
      "v": 44
    },
    {
      "midi": 76,
      "hit": false,
      "t": 217088.76513541694,
      "d": 394.73674999998184,
      "v": 103
    },
    {
      "midi": 81,
      "hit": false,
      "t": 217483.50188541692,
      "d": 246.71046875001048,
      "v": 95
    },
    {
      "midi": 74,
      "hit": false,
      "t": 217697.3176249995,
      "d": 1940.7890208332974,
      "v": 50
    },
    {
      "midi": 69,
      "hit": false,
      "t": 217713.76498958282,
      "d": 1694.078552083316,
      "v": 50
    },
    {
      "midi": 62,
      "hit": false,
      "t": 217713.76498958282,
      "d": 1990.131114583317,
      "v": 50
    },
    {
      "midi": 77,
      "hit": false,
      "t": 217713.76498958282,
      "d": 2738.4862031249795,
      "v": 50
    },
    {
      "midi": 50,
      "hit": false,
      "t": 217878.23863541693,
      "d": 2894.7361666666984,
      "v": 61
    },
    {
      "midi": 65,
      "hit": false,
      "t": 217886.46231770757,
      "d": 2425.986276041658,
      "v": 73
    },
    {
      "midi": 50,
      "hit": false,
      "t": 217894.6860000001,
      "d": 3157.8940000000002,
      "v": 66
    },
    {
      "midi": 62,
      "hit": false,
      "t": 217902.9096822909,
      "d": 2310.8547239583568,
      "v": 88
    },
    {
      "midi": 57,
      "hit": false,
      "t": 217919.3570468742,
      "d": 1110.1971093750326,
      "v": 38
    },
    {
      "midi": 38,
      "hit": false,
      "t": 218108.50173958257,
      "d": 2121.710031249997,
      "v": 33
    },
    {
      "midi": 65,
      "hit": false,
      "t": 218281.1990677086,
      "d": 320.7236093750107,
      "v": 66
    },
    {
      "midi": 72,
      "hit": false,
      "t": 218659.4884531253,
      "d": 600.3288072916912,
      "v": 110
    },
    {
      "midi": 81,
      "hit": false,
      "t": 219062.44888541696,
      "d": 65.78945833334001,
      "v": 57
    },
    {
      "midi": 77,
      "hit": false,
      "t": 219448.9619531253,
      "d": 731.907723958313,
      "v": 74
    },
    {
      "midi": 50,
      "hit": false,
      "t": 219473.63299999924,
      "d": 805.9208645833132,
      "v": 52
    },
    {
      "midi": 74,
      "hit": false,
      "t": 220246.65913541697,
      "d": 197.36837499999092,
      "v": 70
    },
    {
      "midi": 57,
      "hit": false,
      "t": 220287.77754687422,
      "d": 189.1446927083307,
      "v": 52
    },
    {
      "midi": 58,
      "hit": false,
      "t": 220855.21162499947,
      "d": 2203.9468541666574,
      "v": 50
    },
    {
      "midi": 68,
      "hit": false,
      "t": 220855.21162499947,
      "d": 2269.7363124999974,
      "v": 50
    },
    {
      "midi": 72,
      "hit": false,
      "t": 220863.43530729113,
      "d": 2294.407359375007,
      "v": 50
    },
    {
      "midi": 70,
      "hit": false,
      "t": 220871.6589895828,
      "d": 2088.815302083327,
      "v": 50
    },
    {
      "midi": 77,
      "hit": false,
      "t": 220879.88267187445,
      "d": 2269.7363125000265,
      "v": 50
    },
    {
      "midi": 53,
      "hit": false,
      "t": 221027.9089531253,
      "d": 2779.604614583397,
      "v": 61
    },
    {
      "midi": 56,
      "hit": false,
      "t": 221044.35631770754,
      "d": 1258.2233906249749,
      "v": 44
    },
    {
      "midi": 46,
      "hit": false,
      "t": 221052.5800000001,
      "d": 3157.8940000000002,
      "v": 86
    },
    {
      "midi": 60,
      "hit": false,
      "t": 221060.80368229086,
      "d": 2105.2626666666474,
      "v": 94
    },
    {
      "midi": 41,
      "hit": false,
      "t": 221060.80368229086,
      "d": 2541.1178281249595,
      "v": 48
    },
    {
      "midi": 65,
      "hit": false,
      "t": 221077.25104687418,
      "d": 2425.986276041658,
      "v": 69
    },
    {
      "midi": 72,
      "hit": false,
      "t": 221430.86938541697,
      "d": 394.73675000001094,
      "v": 86
    },
    {
      "midi": 75,
      "hit": false,
      "t": 221825.60613541698,
      "d": 320.7236093750107,
      "v": 92
    },
    {
      "midi": 68,
      "hit": false,
      "t": 222220.342885417,
      "d": 328.94729166667094,
      "v": 70
    },
    {
      "midi": 72,
      "hit": false,
      "t": 222615.079635417,
      "d": 131.57891666668002,
      "v": 89
    },
    {
      "midi": 53,
      "hit": false,
      "t": 222647.9743645825,
      "d": 814.1445468750026,
      "v": 44
    },
    {
      "midi": 56,
      "hit": false,
      "t": 223396.32945312417,
      "d": 115.13155208333046,
      "v": 41
    },
    {
      "midi": 65,
      "hit": false,
      "t": 223404.55313541702,
      "d": 402.96043229167117,
      "v": 59
    },
    {
      "midi": 68,
      "hit": false,
      "t": 223404.55313541702,
      "d": 452.3025260416616,
      "v": 62
    },
    {
      "midi": 62,
      "hit": false,
      "t": 223404.55313541702,
      "d": 526.3156666666619,
      "v": 15
    },
    {
      "midi": 64,
      "hit": false,
      "t": 224210.47399999914,
      "d": 1184.2102500000328,
      "v": 69
    },
    {
      "midi": 48,
      "hit": false,
      "t": 224210.4740000001,
      "d": 3289.4729166666802,
      "v": 74
    },
    {
      "midi": 60,
      "hit": false,
      "t": 224218.6976822908,
      "d": 2212.170536458376,
      "v": 85
    },
    {
      "midi": 64,
      "hit": false,
      "t": 224218.69768229203,
      "d": 123.35523437499069,
      "v": 40
    },
    {
      "midi": 67,
      "hit": false,
      "t": 224218.69768229203,
      "d": 131.5789166666509,
      "v": 40
    },
    {
      "midi": 60,
      "hit": false,
      "t": 224235.14504687535,
      "d": 115.13155208333046,
      "v": 40
    },
    {
      "midi": 55,
      "hit": false,
      "t": 224243.3687291658,
      "d": 2532.8941458333575,
      "v": 44
    },
    {
      "midi": 48,
      "hit": false,
      "t": 224276.26345833248,
      "d": 2582.236239583348,
      "v": 44
    },
    {
      "midi": 67,
      "hit": false,
      "t": 224605.21075000035,
      "d": 98.68418749998091,
      "v": 40
    },
    {
      "midi": 60,
      "hit": false,
      "t": 224605.21075000035,
      "d": 106.90786979164113,
      "v": 40
    },
    {
      "midi": 64,
      "hit": false,
      "t": 224613.434432292,
      "d": 90.46050520832068,
      "v": 40
    },
    {
      "midi": 67,
      "hit": false,
      "t": 225024.6185468753,
      "d": 65.78945833334001,
      "v": 40
    },
    {
      "midi": 64,
      "hit": false,
      "t": 225024.6185468753,
      "d": 82.23682291666046,
      "v": 40
    },
    {
      "midi": 60,
      "hit": false,
      "t": 225032.84222916697,
      "d": 65.78945833334001,
      "v": 40
    },
    {
      "midi": 64,
      "hit": false,
      "t": 225402.90793229197,
      "d": 98.68418749998091,
      "v": 40
    },
    {
      "midi": 60,
      "hit": false,
      "t": 225402.90793229197,
      "d": 106.90786979164113,
      "v": 40
    },
    {
      "midi": 67,
      "hit": false,
      "t": 225419.3552968753,
      "d": 65.78945833334001,
      "v": 40
    },
    {
      "midi": 60,
      "hit": false,
      "t": 225805.8683645836,
      "d": 106.90786979164113,
      "v": 40
    },
    {
      "midi": 64,
      "hit": false,
      "t": 225805.8683645836,
      "d": 106.90786979164113,
      "v": 40
    },
    {
      "midi": 67,
      "hit": false,
      "t": 225846.98677604194,
      "d": 49.342093749990454,
      "v": 40
    },
    {
      "midi": 64,
      "hit": false,
      "t": 225896.32886979086,
      "d": 995.0655572916439,
      "v": 69
    },
    {
      "midi": 60,
      "hit": false,
      "t": 226192.38143229194,
      "d": 98.68418749998091,
      "v": 40
    },
    {
      "midi": 64,
      "hit": false,
      "t": 226192.38143229194,
      "d": 98.68418749998091,
      "v": 40
    },
    {
      "midi": 67,
      "hit": false,
      "t": 226208.82879687526,
      "d": 74.01314062500023,
      "v": 40
    },
    {
      "midi": 64,
      "hit": false,
      "t": 226578.89450000026,
      "d": 98.68418749998091,
      "v": 40
    },
    {
      "midi": 60,
      "hit": false,
      "t": 226578.89450000026,
      "d": 115.13155208330136,
      "v": 40
    },
    {
      "midi": 67,
      "hit": false,
      "t": 226595.34186458358,
      "d": 65.78945833334001,
      "v": 40
    },
    {
      "midi": 64,
      "hit": false,
      "t": 226965.40756770855,
      "d": 131.5789166666509,
      "v": 40
    },
    {
      "midi": 60,
      "hit": false,
      "t": 226965.40756770855,
      "d": 139.80259895831114,
      "v": 40
    },
    {
      "midi": 67,
      "hit": false,
      "t": 226981.85493229187,
      "d": 98.68418750001001,
      "v": 40
    },
    {
      "midi": 62,
      "hit": false,
      "t": 227343.69695312416,
      "d": 1677.6311874999956,
      "v": 65
    },
    {
      "midi": 59,
      "hit": false,
      "t": 227343.69695312416,
      "d": 1825.657468749996,
      "v": 60
    },
    {
      "midi": 62,
      "hit": false,
      "t": 227343.69695312518,
      "d": 139.80259895834024,
      "v": 40
    },
    {
      "midi": 59,
      "hit": false,
      "t": 227343.69695312518,
      "d": 148.02628125000047,
      "v": 40
    },
    {
      "midi": 67,
      "hit": false,
      "t": 227351.92063541684,
      "d": 131.57891666668002,
      "v": 40
    },
    {
      "midi": 55,
      "hit": false,
      "t": 227360.14431770748,
      "d": 1916.1179739583458,
      "v": 38
    },
    {
      "midi": 47,
      "hit": false,
      "t": 227360.14431770748,
      "d": 2549.341510416678,
      "v": 44
    },
    {
      "midi": 47,
      "hit": false,
      "t": 227368.3680000001,
      "d": 2689.144109375018,
      "v": 126
    },
    {
      "midi": 62,
      "hit": false,
      "t": 227730.21002083353,
      "d": 139.80259895831114,
      "v": 40
    },
    {
      "midi": 67,
      "hit": false,
      "t": 227746.65738541685,
      "d": 115.13155208333046,
      "v": 40
    },
    {
      "midi": 59,
      "hit": false,
      "t": 227746.65738541685,
      "d": 123.35523437499069,
      "v": 40
    },
    {
      "midi": 62,
      "hit": false,
      "t": 228100.2757239585,
      "d": 131.5789166666509,
      "v": 40
    },
    {
      "midi": 67,
      "hit": false,
      "t": 228108.49940625016,
      "d": 131.5789166666509,
      "v": 40
    },
    {
      "midi": 59,
      "hit": false,
      "t": 228116.72308854182,
      "d": 115.13155208333046,
      "v": 40
    },
    {
      "midi": 62,
      "hit": false,
      "t": 228486.78879166683,
      "d": 115.13155208333046,
      "v": 40
    },
    {
      "midi": 59,
      "hit": false,
      "t": 228486.78879166683,
      "d": 123.35523437499069,
      "v": 40
    },
    {
      "midi": 67,
      "hit": false,
      "t": 228495.0124739585,
      "d": 115.13155208333046,
      "v": 40
    },
    {
      "midi": 67,
      "hit": false,
      "t": 228889.74922395748,
      "d": 386.5130677083507,
      "v": 38
    },
    {
      "midi": 62,
      "hit": false,
      "t": 228897.97290625016,
      "d": 106.90786979167024,
      "v": 40
    },
    {
      "midi": 59,
      "hit": false,
      "t": 228897.97290625016,
      "d": 115.13155208333046,
      "v": 40
    },
    {
      "midi": 67,
      "hit": false,
      "t": 228897.97290625016,
      "d": 115.13155208333046,
      "v": 40
    },
    {
      "midi": 67,
      "hit": false,
      "t": 229292.70965625017,
      "d": 115.13155208333046,
      "v": 40
    },
    {
      "midi": 62,
      "hit": false,
      "t": 229292.70965625017,
      "d": 123.35523437499069,
      "v": 40
    },
    {
      "midi": 59,
      "hit": false,
      "t": 229317.38070312518,
      "d": 74.01314062500023,
      "v": 40
    },
    {
      "midi": 62,
      "hit": false,
      "t": 229703.8937708335,
      "d": 106.90786979164113,
      "v": 40
    },
    {
      "midi": 59,
      "hit": false,
      "t": 229712.11745312516,
      "d": 90.46050520832068,
      "v": 40
    },
    {
      "midi": 67,
      "hit": false,
      "t": 229712.11745312516,
      "d": 106.90786979164113,
      "v": 40
    },
    {
      "midi": 62,
      "hit": false,
      "t": 230098.63052083348,
      "d": 115.13155208333046,
      "v": 40
    },
    {
      "midi": 67,
      "hit": false,
      "t": 230098.63052083348,
      "d": 131.5789166666509,
      "v": 40
    },
    {
      "midi": 59,
      "hit": false,
      "t": 230123.3015677085,
      "d": 90.46050520832068,
      "v": 40
    },
    {
      "midi": 60,
      "hit": false,
      "t": 230509.81463541582,
      "d": 435.8551614583412,
      "v": 48
    },
    {
      "midi": 60,
      "hit": false,
      "t": 230509.8146354168,
      "d": 106.90786979164113,
      "v": 40
    },
    {
      "midi": 57,
      "hit": false,
      "t": 230509.8146354168,
      "d": 115.13155208330136,
      "v": 40
    },
    {
      "midi": 69,
      "hit": false,
      "t": 230518.03831770847,
      "d": 90.46050520832068,
      "v": 40
    },
    {
      "midi": 57,
      "hit": false,
      "t": 230526.26199999914,
      "d": 304.27624479169026,
      "v": 73
    },
    {
      "midi": 45,
      "hit": false,
      "t": 230526.26200000013,
      "d": 2680.920427083329,
      "v": 74
    },
    {
      "midi": 64,
      "hit": false,
      "t": 230534.4856822918,
      "d": 65.78945833334001,
      "v": 40
    },
    {
      "midi": 45,
      "hit": false,
      "t": 230567.38041145747,
      "d": 2754.933567708358,
      "v": 41
    },
    {
      "midi": 52,
      "hit": false,
      "t": 230575.60409374913,
      "d": 189.1446927083598,
      "v": 48
    },
    {
      "midi": 60,
      "hit": false,
      "t": 230838.76192708345,
      "d": 139.80259895828203,
      "v": 40
    },
    {
      "midi": 64,
      "hit": false,
      "t": 230846.98560937512,
      "d": 131.5789166666218,
      "v": 40
    },
    {
      "midi": 57,
      "hit": false,
      "t": 230855.20929166678,
      "d": 106.90786979164113,
      "v": 40
    },
    {
      "midi": 69,
      "hit": false,
      "t": 230871.6566562501,
      "d": 106.90786979164113,
      "v": 40
    },
    {
      "midi": 60,
      "hit": false,
      "t": 231258.16972395842,
      "d": 123.35523437496158,
      "v": 40
    },
    {
      "midi": 69,
      "hit": false,
      "t": 231266.39340625008,
      "d": 98.68418749998091,
      "v": 40
    },
    {
      "midi": 57,
      "hit": false,
      "t": 231266.39340625008,
      "d": 106.90786979164113,
      "v": 40
    },
    {
      "midi": 64,
      "hit": false,
      "t": 231274.61708854174,
      "d": 98.68418749998091,
      "v": 40
    },
    {
      "midi": 60,
      "hit": false,
      "t": 231299.28813541585,
      "d": 953.9471458333428,
      "v": 65
    },
    {
      "midi": 57,
      "hit": false,
      "t": 231652.90647395837,
      "d": 106.90786979164113,
      "v": 40
    },
    {
      "midi": 60,
      "hit": false,
      "t": 231652.90647395837,
      "d": 106.90786979164113,
      "v": 40
    },
    {
      "midi": 64,
      "hit": false,
      "t": 231661.13015625003,
      "d": 90.46050520832068,
      "v": 40
    },
    {
      "midi": 69,
      "hit": false,
      "t": 231669.3538385417,
      "d": 82.23682291666046,
      "v": 40
    },
    {
      "midi": 64,
      "hit": false,
      "t": 231726.91961458253,
      "d": 649.6709010416525,
      "v": 69
    },
    {
      "midi": 60,
      "hit": false,
      "t": 232047.64322395835,
      "d": 115.13155208330136,
      "v": 40
    },
    {
      "midi": 69,
      "hit": false,
      "t": 232055.86690625,
      "d": 90.46050520832068,
      "v": 40
    },
    {
      "midi": 57,
      "hit": false,
      "t": 232055.86690625,
      "d": 98.68418749998091,
      "v": 40
    },
    {
      "midi": 64,
      "hit": false,
      "t": 232064.09058854167,
      "d": 90.46050520832068,
      "v": 40
    },
    {
      "midi": 69,
      "hit": false,
      "t": 232105.2089999992,
      "d": 740.1314062499732,
      "v": 88
    },
    {
      "midi": 60,
      "hit": false,
      "t": 232442.37997395833,
      "d": 115.13155208330136,
      "v": 40
    },
    {
      "midi": 64,
      "hit": false,
      "t": 232450.60365625,
      "d": 90.46050520832068,
      "v": 40
    },
    {
      "midi": 57,
      "hit": false,
      "t": 232458.82733854165,
      "d": 82.23682291666046,
      "v": 40
    },
    {
      "midi": 69,
      "hit": false,
      "t": 232467.0510208333,
      "d": 74.01314062500023,
      "v": 40
    },
    {
      "midi": 60,
      "hit": false,
      "t": 232837.1167239575,
      "d": 427.63147916665184,
      "v": 69
    },
    {
      "midi": 60,
      "hit": false,
      "t": 232853.56408854164,
      "d": 106.90786979164113,
      "v": 40
    },
    {
      "midi": 57,
      "hit": false,
      "t": 232861.7877708333,
      "d": 82.23682291666046,
      "v": 40
    },
    {
      "midi": 69,
      "hit": false,
      "t": 232861.7877708333,
      "d": 90.46050520832068,
      "v": 40
    },
    {
      "midi": 64,
      "hit": false,
      "t": 232870.01145312496,
      "d": 82.23682291666046,
      "v": 40
    },
    {
      "midi": 60,
      "hit": false,
      "t": 233223.6297916666,
      "d": 123.35523437496158,
      "v": 40
    },
    {
      "midi": 57,
      "hit": false,
      "t": 233231.85347395827,
      "d": 106.90786979164113,
      "v": 40
    },
    {
      "midi": 64,
      "hit": false,
      "t": 233240.07715624993,
      "d": 90.46050520832068,
      "v": 40
    },
    {
      "midi": 69,
      "hit": false,
      "t": 233248.3008385416,
      "d": 90.46050520832068,
      "v": 40
    },
    {
      "midi": 60,
      "hit": false,
      "t": 233618.36654166583,
      "d": 707.2366770833032,
      "v": 48
    },
    {
      "midi": 64,
      "hit": false,
      "t": 233618.36654166583,
      "d": 2467.1046874999593,
      "v": 60
    },
    {
      "midi": 64,
      "hit": false,
      "t": 233618.36654166656,
      "d": 106.90786979167024,
      "v": 40
    },
    {
      "midi": 57,
      "hit": false,
      "t": 233618.36654166656,
      "d": 115.13155208333046,
      "v": 40
    },
    {
      "midi": 60,
      "hit": false,
      "t": 233618.36654166656,
      "d": 115.13155208333046,
      "v": 40
    },
    {
      "midi": 69,
      "hit": false,
      "t": 233626.59022395822,
      "d": 98.68418750001001,
      "v": 40
    },
    {
      "midi": 43,
      "hit": false,
      "t": 233643.0375885408,
      "d": 2450.657322916639,
      "v": 41
    },
    {
      "midi": 69,
      "hit": false,
      "t": 233643.0375885408,
      "d": 2491.775734374969,
      "v": 81
    },
    {
      "midi": 72,
      "hit": false,
      "t": 233651.26127083247,
      "d": 2524.670463541639,
      "v": 109
    },
    {
      "midi": 43,
      "hit": false,
      "t": 233684.15600000013,
      "d": 2705.5914739583386,
      "v": 84
    },
    {
      "midi": 57,
      "hit": false,
      "t": 234004.87960937488,
      "d": 106.90786979164113,
      "v": 40
    },
    {
      "midi": 60,
      "hit": false,
      "t": 234004.87960937488,
      "d": 106.90786979164113,
      "v": 40
    },
    {
      "midi": 64,
      "hit": false,
      "t": 234013.10329166654,
      "d": 90.46050520832068,
      "v": 40
    },
    {
      "midi": 69,
      "hit": false,
      "t": 234013.10329166654,
      "d": 98.68418749998091,
      "v": 40
    },
    {
      "midi": 60,
      "hit": false,
      "t": 234407.84004166652,
      "d": 90.46050520832068,
      "v": 40
    },
    {
      "midi": 57,
      "hit": false,
      "t": 234416.06372395818,
      "d": 82.23682291666046,
      "v": 40
    },
    {
      "midi": 69,
      "hit": false,
      "t": 234416.06372395818,
      "d": 82.23682291666046,
      "v": 40
    },
    {
      "midi": 64,
      "hit": false,
      "t": 234424.28740624984,
      "d": 74.01314062500023,
      "v": 40
    },
    {
      "midi": 57,
      "hit": false,
      "t": 234794.35310937485,
      "d": 90.46050520832068,
      "v": 40
    },
    {
      "midi": 60,
      "hit": false,
      "t": 234794.35310937485,
      "d": 98.68418749998091,
      "v": 40
    },
    {
      "midi": 64,
      "hit": false,
      "t": 234810.80047395817,
      "d": 74.01314062500023,
      "v": 40
    },
    {
      "midi": 69,
      "hit": false,
      "t": 234810.80047395817,
      "d": 74.01314062500023,
      "v": 40
    },
    {
      "midi": 60,
      "hit": false,
      "t": 235180.86617708247,
      "d": 575.6577604166523,
      "v": 38
    },
    {
      "midi": 69,
      "hit": false,
      "t": 235213.76090624984,
      "d": 98.68418749998091,
      "v": 40
    },
    {
      "midi": 57,
      "hit": false,
      "t": 235221.9845885415,
      "d": 90.46050520832068,
      "v": 40
    },
    {
      "midi": 60,
      "hit": false,
      "t": 235221.9845885415,
      "d": 90.46050520832068,
      "v": 40
    },
    {
      "midi": 64,
      "hit": false,
      "t": 235221.9845885415,
      "d": 90.46050520832068,
      "v": 40
    },
    {
      "midi": 60,
      "hit": false,
      "t": 235616.72133854148,
      "d": 90.46050520832068,
      "v": 40
    },
    {
      "midi": 57,
      "hit": false,
      "t": 235624.94502083314,
      "d": 74.01314062500023,
      "v": 40
    },
    {
      "midi": 69,
      "hit": false,
      "t": 235624.94502083314,
      "d": 74.01314062500023,
      "v": 40
    },
    {
      "midi": 64,
      "hit": false,
      "t": 235624.94502083314,
      "d": 82.23682291666046,
      "v": 40
    },
    {
      "midi": 57,
      "hit": false,
      "t": 236019.68177083312,
      "d": 90.46050520832068,
      "v": 40
    },
    {
      "midi": 60,
      "hit": false,
      "t": 236019.68177083312,
      "d": 98.68418749998091,
      "v": 40
    },
    {
      "midi": 69,
      "hit": false,
      "t": 236019.68177083312,
      "d": 98.68418749998091,
      "v": 40
    },
    {
      "midi": 64,
      "hit": false,
      "t": 236027.90545312478,
      "d": 90.46050520832068,
      "v": 40
    },
    {
      "midi": 57,
      "hit": false,
      "t": 236389.7474739581,
      "d": 106.90786979164113,
      "v": 40
    },
    {
      "midi": 69,
      "hit": false,
      "t": 236389.7474739581,
      "d": 106.90786979164113,
      "v": 40
    },
    {
      "midi": 60,
      "hit": false,
      "t": 236397.97115624975,
      "d": 90.46050520832068,
      "v": 40
    },
    {
      "midi": 64,
      "hit": false,
      "t": 236406.1948385414,
      "d": 65.78945833334001,
      "v": 40
    },
    {
      "midi": 65,
      "hit": false,
      "t": 236792.70790624912,
      "d": 2376.6441822916677,
      "v": 78
    },
    {
      "midi": 60,
      "hit": false,
      "t": 236809.15527083245,
      "d": 1208.8812968750135,
      "v": 48
    },
    {
      "midi": 68,
      "hit": false,
      "t": 236809.15527083245,
      "d": 2417.762593750027,
      "v": 69
    },
    {
      "midi": 60,
      "hit": false,
      "t": 236809.15527083306,
      "d": 123.35523437499069,
      "v": 40
    },
    {
      "midi": 65,
      "hit": false,
      "t": 236825.60263541638,
      "d": 98.68418750001001,
      "v": 40
    },
    {
      "midi": 41,
      "hit": false,
      "t": 236842.04999999912,
      "d": 5427.630312500056,
      "v": 38
    },
    {
      "midi": 41,
      "hit": false,
      "t": 236842.05000000013,
      "d": 2368.4205000000075,
      "v": 69
    },
    {
      "midi": 65,
      "hit": false,
      "t": 237187.44465624972,
      "d": 106.90786979169934,
      "v": 40
    },
    {
      "midi": 60,
      "hit": false,
      "t": 237187.44465624972,
      "d": 115.13155208335957,
      "v": 40
    },
    {
      "midi": 68,
      "hit": false,
      "t": 237212.11570312473,
      "d": 57.56577604167978,
      "v": 40
    },
    {
      "midi": 60,
      "hit": false,
      "t": 237549.2866770831,
      "d": 123.35523437501979,
      "v": 40
    },
    {
      "midi": 65,
      "hit": false,
      "t": 237549.2866770831,
      "d": 139.80259895834024,
      "v": 40
    },
    {
      "midi": 68,
      "hit": false,
      "t": 237573.9577239581,
      "d": 74.01314062500023,
      "v": 40
    },
    {
      "midi": 60,
      "hit": false,
      "t": 237952.24710937476,
      "d": 106.90786979164113,
      "v": 40
    },
    {
      "midi": 65,
      "hit": false,
      "t": 237952.24710937476,
      "d": 123.35523437496158,
      "v": 40
    },
    {
      "midi": 68,
      "hit": false,
      "t": 237968.69447395808,
      "d": 82.23682291666046,
      "v": 40
    },
    {
      "midi": 60,
      "hit": false,
      "t": 238363.43122395806,
      "d": 106.90786979164113,
      "v": 40
    },
    {
      "midi": 65,
      "hit": false,
      "t": 238363.43122395806,
      "d": 123.35523437496158,
      "v": 40
    },
    {
      "midi": 68,
      "hit": false,
      "t": 238379.87858854138,
      "d": 82.23682291666046,
      "v": 40
    },
    {
      "midi": 53,
      "hit": false,
      "t": 238429.2206822908,
      "d": 3659.5386197917105,
      "v": 52
    },
    {
      "midi": 60,
      "hit": false,
      "t": 238766.3916562497,
      "d": 115.13155208330136,
      "v": 40
    },
    {
      "midi": 65,
      "hit": false,
      "t": 238766.3916562497,
      "d": 131.5789166666218,
      "v": 40
    },
    {
      "midi": 68,
      "hit": false,
      "t": 238774.61533854136,
      "d": 90.46050520832068,
      "v": 40
    },
    {
      "midi": 60,
      "hit": false,
      "t": 239161.12840624966,
      "d": 106.90786979167024,
      "v": 40
    },
    {
      "midi": 65,
      "hit": false,
      "t": 239169.35208854132,
      "d": 131.57891666668002,
      "v": 40
    },
    {
      "midi": 68,
      "hit": false,
      "t": 239202.246817708,
      "d": 57.56577604167978,
      "v": 40
    },
    {
      "midi": 41,
      "hit": false,
      "t": 239210.47050000014,
      "d": 230.26310416666092,
      "v": 51
    },
    {
      "midi": 60,
      "hit": false,
      "t": 239226.91786458247,
      "d": 444.0788437500014,
      "v": 48
    },
    {
      "midi": 60,
      "hit": false,
      "t": 239555.86515624967,
      "d": 131.5789166666509,
      "v": 40
    },
    {
      "midi": 65,
      "hit": false,
      "t": 239555.86515624967,
      "d": 156.2499635416607,
      "v": 40
    },
    {
      "midi": 68,
      "hit": false,
      "t": 239572.312520833,
      "d": 98.68418750001001,
      "v": 40
    },
    {
      "midi": 65,
      "hit": false,
      "t": 239958.82558854134,
      "d": 156.2499635416316,
      "v": 40
    },
    {
      "midi": 62,
      "hit": false,
      "t": 239975.27295312466,
      "d": 123.35523437499069,
      "v": 40
    },
    {
      "midi": 68,
      "hit": false,
      "t": 239975.27295312466,
      "d": 123.35523437499069,
      "v": 40
    },
    {
      "midi": 41,
      "hit": false,
      "t": 239999.94400000013,
      "d": 3157.8940000000002,
      "v": 64
    },
    {
      "midi": 68,
      "hit": false,
      "t": 240032.83872916581,
      "d": 2162.8284427083563,
      "v": 69
    },
    {
      "midi": 65,
      "hit": false,
      "t": 240041.06241145747,
      "d": 2023.025843750016,
      "v": 91
    },
    {
      "midi": 62,
      "hit": false,
      "t": 240057.5097760408,
      "d": 986.8418750000128,
      "v": 52
    },
    {
      "midi": 65,
      "hit": false,
      "t": 240353.5623385413,
      "d": 115.13155208330136,
      "v": 40
    },
    {
      "midi": 68,
      "hit": false,
      "t": 240361.78602083295,
      "d": 90.46050520832068,
      "v": 40
    },
    {
      "midi": 62,
      "hit": false,
      "t": 240361.78602083295,
      "d": 98.68418749998091,
      "v": 40
    },
    {
      "midi": 62,
      "hit": false,
      "t": 240748.29908854127,
      "d": 115.13155208330136,
      "v": 40
    },
    {
      "midi": 68,
      "hit": false,
      "t": 240756.52277083293,
      "d": 90.46050520832068,
      "v": 40
    },
    {
      "midi": 65,
      "hit": false,
      "t": 240756.52277083293,
      "d": 115.13155208330136,
      "v": 40
    },
    {
      "midi": 62,
      "hit": false,
      "t": 241151.25952083291,
      "d": 106.90786979164113,
      "v": 40
    },
    {
      "midi": 68,
      "hit": false,
      "t": 241159.48320312458,
      "d": 82.23682291666046,
      "v": 40
    },
    {
      "midi": 65,
      "hit": false,
      "t": 241167.70688541624,
      "d": 98.68418749998091,
      "v": 40
    },
    {
      "midi": 62,
      "hit": false,
      "t": 241562.44363541622,
      "d": 106.90786979164113,
      "v": 40
    },
    {
      "midi": 65,
      "hit": false,
      "t": 241562.44363541622,
      "d": 106.90786979164113,
      "v": 40
    },
    {
      "midi": 68,
      "hit": false,
      "t": 241570.66731770788,
      "d": 90.46050520832068,
      "v": 40
    },
    {
      "midi": 62,
      "hit": false,
      "t": 241669.35150520748,
      "d": 592.105125000031,
      "v": 38
    },
    {
      "midi": 62,
      "hit": false,
      "t": 241973.62774999952,
      "d": 98.68418749998091,
      "v": 40
    },
    {
      "midi": 65,
      "hit": false,
      "t": 241973.62774999952,
      "d": 106.90786979164113,
      "v": 40
    },
    {
      "midi": 68,
      "hit": false,
      "t": 241981.85143229118,
      "d": 82.23682291666046,
      "v": 40
    },
    {
      "midi": 68,
      "hit": false,
      "t": 242360.14081770784,
      "d": 106.90786979164113,
      "v": 40
    },
    {
      "midi": 62,
      "hit": false,
      "t": 242368.3644999995,
      "d": 98.68418749998091,
      "v": 40
    },
    {
      "midi": 65,
      "hit": false,
      "t": 242376.58818229116,
      "d": 106.90786979164113,
      "v": 40
    },
    {
      "midi": 68,
      "hit": false,
      "t": 242754.8775677078,
      "d": 115.13155208333046,
      "v": 40
    },
    {
      "midi": 62,
      "hit": false,
      "t": 242763.10124999945,
      "d": 115.13155208333046,
      "v": 40
    },
    {
      "midi": 65,
      "hit": false,
      "t": 242763.10124999945,
      "d": 123.35523437499069,
      "v": 40
    },
    {
      "midi": 43,
      "hit": false,
      "t": 243157.83799999917,
      "d": 5699.011828124989,
      "v": 41
    },
    {
      "midi": 43,
      "hit": false,
      "t": 243157.83800000013,
      "d": 1817.4337864583358,
      "v": 66
    },
    {
      "midi": 62,
      "hit": false,
      "t": 243174.28536458279,
      "d": 131.5789166666509,
      "v": 40
    },
    {
      "midi": 67,
      "hit": false,
      "t": 243182.50904687445,
      "d": 115.13155208333046,
      "v": 40
    },
    {
      "midi": 60,
      "hit": false,
      "t": 243190.7327291661,
      "d": 98.68418750001001,
      "v": 40
    },
    {
      "midi": 55,
      "hit": false,
      "t": 243527.90370312418,
      "d": 279.6051979166805,
      "v": 60
    },
    {
      "midi": 62,
      "hit": false,
      "t": 243527.90370312444,
      "d": 131.5789166666509,
      "v": 40
    },
    {
      "midi": 60,
      "hit": false,
      "t": 243544.35106770776,
      "d": 115.13155208333046,
      "v": 40
    },
    {
      "midi": 67,
      "hit": false,
      "t": 243552.57474999942,
      "d": 82.23682291666046,
      "v": 40
    },
    {
      "midi": 60,
      "hit": false,
      "t": 243865.07467708254,
      "d": 287.8288802083407,
      "v": 85
    },
    {
      "midi": 62,
      "hit": false,
      "t": 243930.86413541608,
      "d": 106.90786979164113,
      "v": 40
    },
    {
      "midi": 60,
      "hit": false,
      "t": 243947.3114999994,
      "d": 90.46050520832068,
      "v": 40
    },
    {
      "midi": 67,
      "hit": false,
      "t": 243955.53518229106,
      "d": 74.01314062500023,
      "v": 40
    },
    {
      "midi": 62,
      "hit": false,
      "t": 244268.0351093742,
      "d": 156.2499635416607,
      "v": 65
    },
    {
      "midi": 62,
      "hit": false,
      "t": 244325.60088541606,
      "d": 123.35523437496158,
      "v": 40
    },
    {
      "midi": 67,
      "hit": false,
      "t": 244342.04824999938,
      "d": 90.46050520832068,
      "v": 40
    },
    {
      "midi": 60,
      "hit": false,
      "t": 244342.04824999938,
      "d": 98.68418749998091,
      "v": 40
    },
    {
      "midi": 67,
      "hit": false,
      "t": 244654.54817708253,
      "d": 3207.2360937499616,
      "v": 88
    },
    {
      "midi": 55,
      "hit": false,
      "t": 244670.99554166585,
      "d": 1258.2233906249749,
      "v": 48
    },
    {
      "midi": 62,
      "hit": false,
      "t": 244720.337635416,
      "d": 106.90786979164113,
      "v": 40
    },
    {
      "midi": 60,
      "hit": false,
      "t": 244720.337635416,
      "d": 115.13155208330136,
      "v": 40
    },
    {
      "midi": 67,
      "hit": false,
      "t": 244736.78499999933,
      "d": 82.23682291666046,
      "v": 40
    },
    {
      "midi": 72,
      "hit": false,
      "t": 245016.39019791584,
      "d": 3643.0912552083028,
      "v": 94
    },
    {
      "midi": 62,
      "hit": false,
      "t": 245090.403338541,
      "d": 115.13155208330136,
      "v": 40
    },
    {
      "midi": 60,
      "hit": false,
      "t": 245090.403338541,
      "d": 123.35523437496158,
      "v": 40
    },
    {
      "midi": 67,
      "hit": false,
      "t": 245106.8507031243,
      "d": 90.46050520832068,
      "v": 40
    },
    {
      "midi": 74,
      "hit": false,
      "t": 245402.90326562416,
      "d": 287.8288802083407,
      "v": 94
    },
    {
      "midi": 62,
      "hit": false,
      "t": 245493.36377083263,
      "d": 106.90786979167024,
      "v": 40
    },
    {
      "midi": 60,
      "hit": false,
      "t": 245501.5874531243,
      "d": 106.90786979167024,
      "v": 40
    },
    {
      "midi": 43,
      "hit": false,
      "t": 245526.25850000014,
      "d": 238.48678645832115,
      "v": 74
    },
    {
      "midi": 74,
      "hit": false,
      "t": 245797.64001562417,
      "d": 2861.84143749997,
      "v": 94
    },
    {
      "midi": 79,
      "hit": false,
      "t": 245805.86369791583,
      "d": 2993.42035416665,
      "v": 114
    },
    {
      "midi": 62,
      "hit": false,
      "t": 245863.42947395763,
      "d": 131.5789166666509,
      "v": 40
    },
    {
      "midi": 60,
      "hit": false,
      "t": 245871.6531562493,
      "d": 115.13155208333046,
      "v": 40
    },
    {
      "midi": 67,
      "hit": false,
      "t": 245871.6531562493,
      "d": 115.13155208333046,
      "v": 40
    },
    {
      "midi": 62,
      "hit": false,
      "t": 246249.94254166595,
      "d": 148.02628125000047,
      "v": 40
    },
    {
      "midi": 59,
      "hit": false,
      "t": 246274.61358854096,
      "d": 106.90786979167024,
      "v": 40
    },
    {
      "midi": 67,
      "hit": false,
      "t": 246274.61358854096,
      "d": 115.13155208333046,
      "v": 40
    },
    {
      "midi": 43,
      "hit": false,
      "t": 246315.73200000013,
      "d": 3157.8940000000002,
      "v": 74
    },
    {
      "midi": 62,
      "hit": false,
      "t": 246644.67929166596,
      "d": 123.35523437496158,
      "v": 40
    },
    {
      "midi": 59,
      "hit": false,
      "t": 246661.12665624928,
      "d": 98.68418749998091,
      "v": 40
    },
    {
      "midi": 67,
      "hit": false,
      "t": 246669.35033854094,
      "d": 74.01314062500023,
      "v": 40
    },
    {
      "midi": 62,
      "hit": false,
      "t": 247031.19235937425,
      "d": 115.13155208330136,
      "v": 40
    },
    {
      "midi": 59,
      "hit": false,
      "t": 247047.63972395757,
      "d": 90.46050520832068,
      "v": 40
    },
    {
      "midi": 67,
      "hit": false,
      "t": 247047.63972395757,
      "d": 90.46050520832068,
      "v": 40
    },
    {
      "midi": 62,
      "hit": false,
      "t": 247434.1527916659,
      "d": 106.90786979164113,
      "v": 40
    },
    {
      "midi": 67,
      "hit": false,
      "t": 247442.37647395756,
      "d": 90.46050520832068,
      "v": 40
    },
    {
      "midi": 59,
      "hit": false,
      "t": 247450.60015624922,
      "d": 82.23682291666046,
      "v": 40
    },
    {
      "midi": 62,
      "hit": false,
      "t": 247845.3369062492,
      "d": 98.68418749998091,
      "v": 40
    },
    {
      "midi": 67,
      "hit": false,
      "t": 247853.56058854086,
      "d": 90.46050520832068,
      "v": 40
    },
    {
      "midi": 59,
      "hit": false,
      "t": 247870.00795312418,
      "d": 74.01314062500023,
      "v": 40
    },
    {
      "midi": 55,
      "hit": false,
      "t": 247911.12636458248,
      "d": 797.6971822916821,
      "v": 48
    },
    {
      "midi": 62,
      "hit": false,
      "t": 248240.07365624918,
      "d": 98.68418749998091,
      "v": 40
    },
    {
      "midi": 67,
      "hit": false,
      "t": 248240.07365624918,
      "d": 98.68418749998091,
      "v": 40
    },
    {
      "midi": 59,
      "hit": false,
      "t": 248256.5210208325,
      "d": 74.01314062500023,
      "v": 40
    },
    {
      "midi": 62,
      "hit": false,
      "t": 248626.5867239575,
      "d": 123.35523437499069,
      "v": 40
    },
    {
      "midi": 67,
      "hit": false,
      "t": 248634.81040624916,
      "d": 106.90786979167024,
      "v": 40
    },
    {
      "midi": 59,
      "hit": false,
      "t": 248643.03408854082,
      "d": 98.68418750001001,
      "v": 40
    },
    {
      "midi": 67,
      "hit": false,
      "t": 248684.15249999915,
      "d": 271.38151562502026,
      "v": 44
    },
    {
      "midi": 62,
      "hit": false,
      "t": 249029.54715624917,
      "d": 123.35523437496158,
      "v": 40
    },
    {
      "midi": 67,
      "hit": false,
      "t": 249037.77083854083,
      "d": 98.68418749998091,
      "v": 40
    },
    {
      "midi": 59,
      "hit": false,
      "t": 249045.9945208325,
      "d": 74.01314062500023,
      "v": 40
    },
    {
      "midi": 64,
      "hit": false,
      "t": 249424.28390624913,
      "d": 115.13155208333046,
      "v": 40
    },
    {
      "midi": 67,
      "hit": false,
      "t": 249424.28390624913,
      "d": 115.13155208333046,
      "v": 40
    },
    {
      "midi": 60,
      "hit": false,
      "t": 249424.28390624913,
      "d": 123.35523437499069,
      "v": 40
    },
    {
      "midi": 48,
      "hit": false,
      "t": 249473.62600000013,
      "d": 1784.5390572916658,
      "v": 84
    },
    {
      "midi": 76,
      "hit": false,
      "t": 249506.52072916584,
      "d": 616.7761718749825,
      "v": 85
    },
    {
      "midi": 48,
      "hit": false,
      "t": 249506.52072916584,
      "d": 2853.61775520831,
      "v": 48
    },
    {
      "midi": 72,
      "hit": false,
      "t": 249514.7444114575,
      "d": 616.7761718749825,
      "v": 85
    },
    {
      "midi": 67,
      "hit": false,
      "t": 249531.19177604083,
      "d": 633.2235364583321,
      "v": 44
    },
    {
      "midi": 64,
      "hit": false,
      "t": 249810.79697395745,
      "d": 98.68418749998091,
      "v": 40
    },
    {
      "midi": 67,
      "hit": false,
      "t": 249810.79697395745,
      "d": 98.68418749998091,
      "v": 40
    },
    {
      "midi": 60,
      "hit": false,
      "t": 249819.0206562491,
      "d": 98.68418749998091,
      "v": 40
    },
    {
      "midi": 64,
      "hit": false,
      "t": 250213.7574062491,
      "d": 90.46050520832068,
      "v": 40
    },
    {
      "midi": 60,
      "hit": false,
      "t": 250221.98108854075,
      "d": 82.23682291666046,
      "v": 40
    },
    {
      "midi": 67,
      "hit": false,
      "t": 250221.98108854075,
      "d": 82.23682291666046,
      "v": 40
    },
    {
      "midi": 60,
      "hit": false,
      "t": 250633.16520312408,
      "d": 90.46050520834979,
      "v": 40
    },
    {
      "midi": 64,
      "hit": false,
      "t": 250633.16520312408,
      "d": 90.46050520834979,
      "v": 40
    },
    {
      "midi": 67,
      "hit": false,
      "t": 250657.8362499991,
      "d": 57.56577604167978,
      "v": 40
    },
    {
      "midi": 64,
      "hit": false,
      "t": 251036.12563541575,
      "d": 90.46050520832068,
      "v": 40
    },
    {
      "midi": 67,
      "hit": false,
      "t": 251036.12563541575,
      "d": 98.68418749998091,
      "v": 40
    },
    {
      "midi": 60,
      "hit": false,
      "t": 251036.12563541575,
      "d": 106.90786979164113,
      "v": 40
    },
    {
      "midi": 60,
      "hit": false,
      "t": 251052.57299999916,
      "d": 781.2498177083326,
      "v": 60
    },
    {
      "midi": 64,
      "hit": false,
      "t": 251052.57299999916,
      "d": 1184.2102500000037,
      "v": 78
    },
    {
      "midi": 55,
      "hit": false,
      "t": 251085.46772916583,
      "d": 361.84202083334094,
      "v": 44
    },
    {
      "midi": 60,
      "hit": false,
      "t": 251439.0860677074,
      "d": 98.68418749998091,
      "v": 40
    },
    {
      "midi": 64,
      "hit": false,
      "t": 251447.30974999905,
      "d": 74.01314062500023,
      "v": 40
    },
    {
      "midi": 64,
      "hit": false,
      "t": 251842.04649999904,
      "d": 98.68418749998091,
      "v": 40
    },
    {
      "midi": 60,
      "hit": false,
      "t": 251842.04649999904,
      "d": 106.90786979164113,
      "v": 40
    },
    {
      "midi": 48,
      "hit": false,
      "t": 251842.04650000014,
      "d": 378.2893854166614,
      "v": 79
    },
    {
      "midi": 67,
      "hit": false,
      "t": 251850.2701822907,
      "d": 98.68418749998091,
      "v": 40
    },
    {
      "midi": 55,
      "hit": false,
      "t": 251866.71754687416,
      "d": 411.1841145833314,
      "v": 88
    },
    {
      "midi": 60,
      "hit": false,
      "t": 252236.78324999902,
      "d": 123.35523437496158,
      "v": 40
    },
    {
      "midi": 67,
      "hit": false,
      "t": 252253.23061458234,
      "d": 82.23682291666046,
      "v": 40
    },
    {
      "midi": 64,
      "hit": false,
      "t": 252253.23061458234,
      "d": 90.46050520832068,
      "v": 40
    },
    {
      "midi": 47,
      "hit": false,
      "t": 252606.84895312416,
      "d": 2886.512484375009,
      "v": 44
    },
    {
      "midi": 62,
      "hit": false,
      "t": 252631.51999999917,
      "d": 1356.9075781249849,
      "v": 85
    },
    {
      "midi": 59,
      "hit": false,
      "t": 252631.51999999917,
      "d": 2220.394218750007,
      "v": 81
    },
    {
      "midi": 47,
      "hit": false,
      "t": 252631.52000000014,
      "d": 3083.880859375,
      "v": 69
    },
    {
      "midi": 59,
      "hit": false,
      "t": 252639.74368229066,
      "d": 106.90786979164113,
      "v": 40
    },
    {
      "midi": 67,
      "hit": false,
      "t": 252639.74368229066,
      "d": 106.90786979164113,
      "v": 40
    },
    {
      "midi": 55,
      "hit": false,
      "t": 252639.74368229083,
      "d": 2409.5389114583377,
      "v": 60
    },
    {
      "midi": 62,
      "hit": false,
      "t": 252647.96736458232,
      "d": 90.46050520832068,
      "v": 40
    },
    {
      "midi": 62,
      "hit": false,
      "t": 253009.80938541563,
      "d": 115.13155208330136,
      "v": 40
    },
    {
      "midi": 59,
      "hit": false,
      "t": 253026.25674999895,
      "d": 90.46050520832068,
      "v": 40
    },
    {
      "midi": 67,
      "hit": false,
      "t": 253042.70411458227,
      "d": 65.78945833334001,
      "v": 40
    },
    {
      "midi": 62,
      "hit": false,
      "t": 253420.99349999893,
      "d": 115.13155208330136,
      "v": 40
    },
    {
      "midi": 59,
      "hit": false,
      "t": 253437.44086458226,
      "d": 90.46050520832068,
      "v": 40
    },
    {
      "midi": 67,
      "hit": false,
      "t": 253437.44086458226,
      "d": 90.46050520832068,
      "v": 40
    },
    {
      "midi": 62,
      "hit": false,
      "t": 253807.50656770723,
      "d": 115.13155208333046,
      "v": 40
    },
    {
      "midi": 67,
      "hit": false,
      "t": 253815.7302499989,
      "d": 106.90786979167024,
      "v": 40
    },
    {
      "midi": 59,
      "hit": false,
      "t": 253823.95393229055,
      "d": 98.68418750001001,
      "v": 40
    },
    {
      "midi": 62,
      "hit": false,
      "t": 254144.67754166582,
      "d": 723.6840416666819,
      "v": 78
    },
    {
      "midi": 67,
      "hit": false,
      "t": 254169.34858854083,
      "d": 657.8945833333419,
      "v": 94
    },
    {
      "midi": 62,
      "hit": false,
      "t": 254210.4669999989,
      "d": 115.13155208333046,
      "v": 40
    },
    {
      "midi": 67,
      "hit": false,
      "t": 254218.69068229056,
      "d": 106.90786979167024,
      "v": 40
    },
    {
      "midi": 59,
      "hit": false,
      "t": 254226.91436458222,
      "d": 98.68418750001001,
      "v": 40
    },
    {
      "midi": 62,
      "hit": false,
      "t": 254613.42743229057,
      "d": 106.90786979167024,
      "v": 40
    },
    {
      "midi": 67,
      "hit": false,
      "t": 254613.42743229057,
      "d": 106.90786979167024,
      "v": 40
    },
    {
      "midi": 59,
      "hit": false,
      "t": 254621.65111458223,
      "d": 98.68418750001001,
      "v": 40
    },
    {
      "midi": 62,
      "hit": false,
      "t": 254999.94049999892,
      "d": 106.90786979167024,
      "v": 40
    },
    {
      "midi": 67,
      "hit": false,
      "t": 254999.94049999892,
      "d": 123.35523437499069,
      "v": 40
    },
    {
      "midi": 59,
      "hit": false,
      "t": 255024.61154687393,
      "d": 74.01314062500023,
      "v": 40
    },
    {
      "midi": 62,
      "hit": false,
      "t": 255402.9009322906,
      "d": 98.68418750001001,
      "v": 40
    },
    {
      "midi": 67,
      "hit": false,
      "t": 255402.9009322906,
      "d": 106.90786979167024,
      "v": 40
    },
    {
      "midi": 59,
      "hit": false,
      "t": 255402.9009322906,
      "d": 115.13155208333046,
      "v": 40
    },
    {
      "midi": 45,
      "hit": false,
      "t": 255731.84822395752,
      "d": 2944.0782604166016,
      "v": 44
    },
    {
      "midi": 52,
      "hit": false,
      "t": 255748.29558854084,
      "d": 279.6051979166514,
      "v": 48
    },
    {
      "midi": 57,
      "hit": false,
      "t": 255748.29558854084,
      "d": 361.84202083331184,
      "v": 73
    },
    {
      "midi": 60,
      "hit": false,
      "t": 255748.29558854084,
      "d": 452.3025260416325,
      "v": 65
    },
    {
      "midi": 45,
      "hit": false,
      "t": 255789.41400000014,
      "d": 1940.7890208333265,
      "v": 72
    },
    {
      "midi": 69,
      "hit": false,
      "t": 255797.6376822906,
      "d": 98.6841874999518,
      "v": 40
    },
    {
      "midi": 57,
      "hit": false,
      "t": 255805.86136458226,
      "d": 74.01314062497113,
      "v": 40
    },
    {
      "midi": 60,
      "hit": false,
      "t": 255822.30872916558,
      "d": 65.7894583333109,
      "v": 40
    },
    {
      "midi": 64,
      "hit": false,
      "t": 255830.53241145724,
      "d": 49.342093749990454,
      "v": 40
    },
    {
      "midi": 60,
      "hit": false,
      "t": 256126.58497395721,
      "d": 106.90786979164113,
      "v": 40
    },
    {
      "midi": 69,
      "hit": false,
      "t": 256126.58497395721,
      "d": 115.13155208330136,
      "v": 40
    },
    {
      "midi": 64,
      "hit": false,
      "t": 256134.80865624888,
      "d": 98.68418749998091,
      "v": 40
    },
    {
      "midi": 57,
      "hit": false,
      "t": 256151.2560208322,
      "d": 65.78945833334001,
      "v": 40
    },
    {
      "midi": 60,
      "hit": false,
      "t": 256513.0980416658,
      "d": 1175.9865677083435,
      "v": 60
    },
    {
      "midi": 60,
      "hit": false,
      "t": 256537.76908854052,
      "d": 98.68418749998091,
      "v": 40
    },
    {
      "midi": 69,
      "hit": false,
      "t": 256537.76908854052,
      "d": 98.68418749998091,
      "v": 40
    },
    {
      "midi": 57,
      "hit": false,
      "t": 256537.76908854052,
      "d": 106.90786979164113,
      "v": 40
    },
    {
      "midi": 64,
      "hit": false,
      "t": 256545.99277083218,
      "d": 82.23682291666046,
      "v": 40
    },
    {
      "midi": 57,
      "hit": false,
      "t": 256924.28215624884,
      "d": 106.90786979164113,
      "v": 40
    },
    {
      "midi": 64,
      "hit": false,
      "t": 256924.28215624913,
      "d": 855.2629583333328,
      "v": 65
    },
    {
      "midi": 69,
      "hit": false,
      "t": 256932.5058385405,
      "d": 90.46050520832068,
      "v": 40
    },
    {
      "midi": 60,
      "hit": false,
      "t": 256932.5058385405,
      "d": 98.68418749998091,
      "v": 40
    },
    {
      "midi": 64,
      "hit": false,
      "t": 256940.72952083216,
      "d": 82.23682291666046,
      "v": 40
    },
    {
      "midi": 57,
      "hit": false,
      "t": 257310.79522395716,
      "d": 106.90786979164113,
      "v": 40
    },
    {
      "midi": 60,
      "hit": false,
      "t": 257310.79522395716,
      "d": 106.90786979164113,
      "v": 40
    },
    {
      "midi": 69,
      "hit": false,
      "t": 257319.01890624882,
      "d": 90.46050520832068,
      "v": 40
    },
    {
      "midi": 64,
      "hit": false,
      "t": 257327.24258854048,
      "d": 82.23682291666046,
      "v": 40
    },
    {
      "midi": 69,
      "hit": false,
      "t": 257335.46627083246,
      "d": 805.9208645833423,
      "v": 88
    },
    {
      "midi": 57,
      "hit": false,
      "t": 257697.30829166548,
      "d": 115.13155208330136,
      "v": 40
    },
    {
      "midi": 60,
      "hit": false,
      "t": 257705.53197395714,
      "d": 98.68418749998091,
      "v": 40
    },
    {
      "midi": 69,
      "hit": false,
      "t": 257705.53197395714,
      "d": 98.68418749998091,
      "v": 40
    },
    {
      "midi": 64,
      "hit": false,
      "t": 257721.97933854046,
      "d": 74.01314062500023,
      "v": 40
    },
    {
      "midi": 64,
      "hit": false,
      "t": 258067.3739947908,
      "d": 156.2499635416607,
      "v": 44
    },
    {
      "midi": 60,
      "hit": false,
      "t": 258083.82135937412,
      "d": 296.05256250000093,
      "v": 60
    },
    {
      "midi": 69,
      "hit": false,
      "t": 258100.26872395712,
      "d": 90.46050520832068,
      "v": 40
    },
    {
      "midi": 57,
      "hit": false,
      "t": 258108.49240624878,
      "d": 90.46050520832068,
      "v": 40
    },
    {
      "midi": 60,
      "hit": false,
      "t": 258108.49240624878,
      "d": 90.46050520832068,
      "v": 40
    },
    {
      "midi": 64,
      "hit": false,
      "t": 258116.71608854044,
      "d": 74.01314062500023,
      "v": 40
    },
    {
      "midi": 45,
      "hit": false,
      "t": 258157.83450000014,
      "d": 378.2893854166614,
      "v": 64
    },
    {
      "midi": 57,
      "hit": false,
      "t": 258486.78179166545,
      "d": 90.46050520832068,
      "v": 40
    },
    {
      "midi": 60,
      "hit": false,
      "t": 258486.78179166545,
      "d": 98.68418749998091,
      "v": 40
    },
    {
      "midi": 69,
      "hit": false,
      "t": 258486.78179166545,
      "d": 98.68418749998091,
      "v": 40
    },
    {
      "midi": 64,
      "hit": false,
      "t": 258495.0054739571,
      "d": 82.23682291666046,
      "v": 40
    },
    {
      "midi": 60,
      "hit": false,
      "t": 258791.05803645746,
      "d": 1110.1971093750035,
      "v": 73
    },
    {
      "midi": 64,
      "hit": false,
      "t": 258856.8474947908,
      "d": 2582.236239583319,
      "v": 69
    },
    {
      "midi": 43,
      "hit": false,
      "t": 258873.29485937412,
      "d": 2582.236239583319,
      "v": 56
    },
    {
      "midi": 57,
      "hit": false,
      "t": 258889.7422239571,
      "d": 106.90786979164113,
      "v": 40
    },
    {
      "midi": 60,
      "hit": false,
      "t": 258889.7422239571,
      "d": 106.90786979164113,
      "v": 40
    },
    {
      "midi": 69,
      "hit": false,
      "t": 258889.74222395744,
      "d": 2393.0915468750172,
      "v": 102
    },
    {
      "midi": 69,
      "hit": false,
      "t": 258897.96590624875,
      "d": 90.46050520832068,
      "v": 40
    },
    {
      "midi": 64,
      "hit": false,
      "t": 258897.96590624875,
      "d": 98.68418749998091,
      "v": 40
    },
    {
      "midi": 72,
      "hit": false,
      "t": 258922.6369531241,
      "d": 2508.2230989583477,
      "v": 96
    },
    {
      "midi": 43,
      "hit": false,
      "t": 258947.30800000014,
      "d": 1784.5390572916658,
      "v": 77
    },
    {
      "midi": 57,
      "hit": false,
      "t": 259268.03160937375,
      "d": 106.90786979161203,
      "v": 40
    },
    {
      "midi": 60,
      "hit": false,
      "t": 259268.03160937375,
      "d": 106.90786979161203,
      "v": 40
    },
    {
      "midi": 64,
      "hit": false,
      "t": 259284.47897395707,
      "d": 82.23682291663135,
      "v": 40
    },
    {
      "midi": 69,
      "hit": false,
      "t": 259300.9263385404,
      "d": 49.342093749990454,
      "v": 40
    },
    {
      "midi": 57,
      "hit": false,
      "t": 259662.7683593737,
      "d": 98.68418749998091,
      "v": 40
    },
    {
      "midi": 60,
      "hit": false,
      "t": 259662.7683593737,
      "d": 106.90786979164113,
      "v": 40
    },
    {
      "midi": 64,
      "hit": false,
      "t": 259670.99204166536,
      "d": 90.46050520832068,
      "v": 40
    },
    {
      "midi": 69,
      "hit": false,
      "t": 259679.21572395702,
      "d": 74.01314062500023,
      "v": 40
    },
    {
      "midi": 57,
      "hit": false,
      "t": 260049.28142708202,
      "d": 106.90786979164113,
      "v": 40
    },
    {
      "midi": 60,
      "hit": false,
      "t": 260057.50510937368,
      "d": 90.46050520832068,
      "v": 40
    },
    {
      "midi": 69,
      "hit": false,
      "t": 260057.50510937368,
      "d": 90.46050520832068,
      "v": 40
    },
    {
      "midi": 64,
      "hit": false,
      "t": 260065.72879166534,
      "d": 82.23682291666046,
      "v": 40
    },
    {
      "midi": 69,
      "hit": false,
      "t": 260435.79449479035,
      "d": 98.68418749998091,
      "v": 40
    },
    {
      "midi": 57,
      "hit": false,
      "t": 260435.79449479035,
      "d": 106.90786979164113,
      "v": 40
    },
    {
      "midi": 60,
      "hit": false,
      "t": 260444.018177082,
      "d": 98.68418749998091,
      "v": 40
    },
    {
      "midi": 64,
      "hit": false,
      "t": 260452.24185937367,
      "d": 90.46050520832068,
      "v": 40
    },
    {
      "midi": 60,
      "hit": false,
      "t": 260509.80763541578,
      "d": 1175.9865677083144,
      "v": 38
    },
    {
      "midi": 57,
      "hit": false,
      "t": 260846.97860937365,
      "d": 115.13155208330136,
      "v": 40
    },
    {
      "midi": 60,
      "hit": false,
      "t": 260855.2022916653,
      "d": 98.68418749998091,
      "v": 40
    },
    {
      "midi": 64,
      "hit": false,
      "t": 260863.42597395697,
      "d": 90.46050520832068,
      "v": 40
    },
    {
      "midi": 69,
      "hit": false,
      "t": 260863.42597395697,
      "d": 90.46050520832068,
      "v": 40
    },
    {
      "midi": 57,
      "hit": false,
      "t": 261266.3864062486,
      "d": 90.46050520832068,
      "v": 40
    },
    {
      "midi": 64,
      "hit": false,
      "t": 261274.61008854027,
      "d": 82.23682291666046,
      "v": 40
    },
    {
      "midi": 69,
      "hit": false,
      "t": 261274.61008854027,
      "d": 82.23682291666046,
      "v": 40
    },
    {
      "midi": 60,
      "hit": false,
      "t": 261274.61008854027,
      "d": 90.46050520832068,
      "v": 40
    },
    {
      "midi": 43,
      "hit": false,
      "t": 261315.72850000014,
      "d": 254.9341510416707,
      "v": 64
    },
    {
      "midi": 69,
      "hit": false,
      "t": 261636.45210937358,
      "d": 106.90786979164113,
      "v": 40
    },
    {
      "midi": 57,
      "hit": false,
      "t": 261644.67579166524,
      "d": 90.46050520832068,
      "v": 40
    },
    {
      "midi": 60,
      "hit": false,
      "t": 261652.8994739569,
      "d": 74.01314062500023,
      "v": 40
    },
    {
      "midi": 64,
      "hit": false,
      "t": 261661.12315624856,
      "d": 65.78945833334001,
      "v": 40
    },
    {
      "midi": 60,
      "hit": false,
      "t": 262047.63622395688,
      "d": 131.5789166666218,
      "v": 40
    },
    {
      "midi": 65,
      "hit": false,
      "t": 262055.85990624854,
      "d": 106.90786979164113,
      "v": 40
    },
    {
      "midi": 65,
      "hit": false,
      "t": 262072.30727083242,
      "d": 2277.9599947916577,
      "v": 78
    },
    {
      "midi": 68,
      "hit": false,
      "t": 262080.53095312408,
      "d": 2450.657322916639,
      "v": 78
    },
    {
      "midi": 60,
      "hit": false,
      "t": 262096.9783177074,
      "d": 1620.065411458345,
      "v": 48
    },
    {
      "midi": 41,
      "hit": false,
      "t": 262105.20200000014,
      "d": 2368.4204999999783,
      "v": 74
    },
    {
      "midi": 41,
      "hit": false,
      "t": 262129.87304687407,
      "d": 5320.722442708386,
      "v": 56
    },
    {
      "midi": 60,
      "hit": false,
      "t": 262442.37297395687,
      "d": 98.68418749998091,
      "v": 40
    },
    {
      "midi": 65,
      "hit": false,
      "t": 262442.37297395687,
      "d": 106.90786979167024,
      "v": 40
    },
    {
      "midi": 68,
      "hit": false,
      "t": 262450.59665624856,
      "d": 74.01314062497113,
      "v": 40
    },
    {
      "midi": 60,
      "hit": false,
      "t": 262837.10972395685,
      "d": 106.90786979167024,
      "v": 40
    },
    {
      "midi": 65,
      "hit": false,
      "t": 262837.10972395685,
      "d": 106.90786979167024,
      "v": 40
    },
    {
      "midi": 68,
      "hit": false,
      "t": 262845.33340624854,
      "d": 82.23682291666046,
      "v": 40
    },
    {
      "midi": 60,
      "hit": false,
      "t": 263231.84647395683,
      "d": 106.90786979167024,
      "v": 40
    },
    {
      "midi": 65,
      "hit": false,
      "t": 263231.84647395683,
      "d": 123.35523437499069,
      "v": 40
    },
    {
      "midi": 68,
      "hit": false,
      "t": 263240.0701562485,
      "d": 98.68418749998091,
      "v": 40
    },
    {
      "midi": 68,
      "hit": false,
      "t": 263626.5832239568,
      "d": 98.68418749998091,
      "v": 40
    },
    {
      "midi": 60,
      "hit": false,
      "t": 263626.5832239568,
      "d": 106.90786979167024,
      "v": 40
    },
    {
      "midi": 65,
      "hit": false,
      "t": 263626.5832239568,
      "d": 123.35523437499069,
      "v": 40
    },
    {
      "midi": 53,
      "hit": false,
      "t": 263675.9253177074,
      "d": 3297.6965989583405,
      "v": 52
    },
    {
      "midi": 60,
      "hit": false,
      "t": 264029.5436562485,
      "d": 123.3552343750489,
      "v": 40
    },
    {
      "midi": 65,
      "hit": false,
      "t": 264029.5436562485,
      "d": 131.57891666673822,
      "v": 40
    },
    {
      "midi": 68,
      "hit": false,
      "t": 264037.7673385402,
      "d": 106.90786979167024,
      "v": 40
    },
    {
      "midi": 68,
      "hit": false,
      "t": 264440.7277708319,
      "d": 106.90786979167024,
      "v": 40
    },
    {
      "midi": 60,
      "hit": false,
      "t": 264440.7277708319,
      "d": 115.13155208335957,
      "v": 40
    },
    {
      "midi": 65,
      "hit": false,
      "t": 264440.7277708319,
      "d": 123.3552343750489,
      "v": 40
    },
    {
      "midi": 41,
      "hit": false,
      "t": 264473.6225000001,
      "d": 205.59205729165114,
      "v": 61
    },
    {
      "midi": 60,
      "hit": false,
      "t": 264514.7409114574,
      "d": 238.48678645829204,
      "v": 56
    },
    {
      "midi": 68,
      "hit": false,
      "t": 264819.0171562486,
      "d": 115.13155208335957,
      "v": 40
    },
    {
      "midi": 60,
      "hit": false,
      "t": 264827.2408385403,
      "d": 106.90786979167024,
      "v": 40
    },
    {
      "midi": 65,
      "hit": false,
      "t": 264827.2408385403,
      "d": 123.35523437499069,
      "v": 40
    },
    {
      "midi": 68,
      "hit": false,
      "t": 265238.4249531236,
      "d": 90.46050520834979,
      "v": 40
    },
    {
      "midi": 60,
      "hit": false,
      "t": 265238.4249531236,
      "d": 106.90786979167024,
      "v": 40
    },
    {
      "midi": 65,
      "hit": false,
      "t": 265246.6486354153,
      "d": 106.90786979167024,
      "v": 40
    },
    {
      "midi": 68,
      "hit": false,
      "t": 265246.6486354157,
      "d": 2064.1442552083754,
      "v": 85
    },
    {
      "midi": 62,
      "hit": false,
      "t": 265254.8723177074,
      "d": 995.065557291673,
      "v": 60
    },
    {
      "midi": 65,
      "hit": false,
      "t": 265263.0959999991,
      "d": 2055.920572916686,
      "v": 85
    },
    {
      "midi": 41,
      "hit": false,
      "t": 265263.0960000001,
      "d": 3157.893999999971,
      "v": 72
    },
    {
      "midi": 68,
      "hit": false,
      "t": 265600.266973957,
      "d": 106.90786979167024,
      "v": 40
    },
    {
      "midi": 60,
      "hit": false,
      "t": 265600.266973957,
      "d": 115.13155208335957,
      "v": 40
    },
    {
      "midi": 65,
      "hit": false,
      "t": 265600.266973957,
      "d": 131.57891666668002,
      "v": 40
    },
    {
      "midi": 60,
      "hit": false,
      "t": 266003.2274062487,
      "d": 106.90786979167024,
      "v": 40
    },
    {
      "midi": 65,
      "hit": false,
      "t": 266003.2274062487,
      "d": 123.35523437499069,
      "v": 40
    },
    {
      "midi": 68,
      "hit": false,
      "t": 266011.4510885404,
      "d": 82.23682291666046,
      "v": 40
    },
    {
      "midi": 60,
      "hit": false,
      "t": 266406.18783854035,
      "d": 98.68418750003912,
      "v": 40
    },
    {
      "midi": 65,
      "hit": false,
      "t": 266406.18783854035,
      "d": 106.90786979172844,
      "v": 40
    },
    {
      "midi": 68,
      "hit": false,
      "t": 266430.85888541536,
      "d": 65.78945833334001,
      "v": 40
    },
    {
      "midi": 60,
      "hit": false,
      "t": 266817.3719531238,
      "d": 106.90786979167024,
      "v": 40
    },
    {
      "midi": 65,
      "hit": false,
      "t": 266817.3719531238,
      "d": 115.13155208335957,
      "v": 40
    },
    {
      "midi": 68,
      "hit": false,
      "t": 266825.59563541546,
      "d": 82.23682291666046,
      "v": 40
    },
    {
      "midi": 60,
      "hit": false,
      "t": 267212.1087031238,
      "d": 115.13155208330136,
      "v": 40
    },
    {
      "midi": 68,
      "hit": false,
      "t": 267228.55606770713,
      "d": 98.68418749998091,
      "v": 40
    },
    {
      "midi": 65,
      "hit": false,
      "t": 267228.55606770713,
      "d": 115.13155208330136,
      "v": 40
    },
    {
      "midi": 65,
      "hit": false,
      "t": 267590.3980885404,
      "d": 131.57891666668002,
      "v": 40
    },
    {
      "midi": 60,
      "hit": false,
      "t": 267598.6217708321,
      "d": 98.68418749998091,
      "v": 40
    },
    {
      "midi": 68,
      "hit": false,
      "t": 267598.6217708321,
      "d": 115.13155208330136,
      "v": 40
    },
    {
      "midi": 68,
      "hit": false,
      "t": 267993.3585208321,
      "d": 131.57891666673822,
      "v": 40
    },
    {
      "midi": 60,
      "hit": false,
      "t": 268001.5822031238,
      "d": 131.57891666673822,
      "v": 40
    },
    {
      "midi": 65,
      "hit": false,
      "t": 268009.80588541547,
      "d": 106.90786979167024,
      "v": 40
    },
    {
      "midi": 43,
      "hit": false,
      "t": 268396.3189531241,
      "d": 5797.696015625028,
      "v": 52
    },
    {
      "midi": 43,
      "hit": false,
      "t": 268420.99000000005,
      "d": 2368.4205000000075,
      "v": 74
    },
    {
      "midi": 62,
      "hit": false,
      "t": 268437.43736458215,
      "d": 131.57891666673822,
      "v": 40
    },
    {
      "midi": 59,
      "hit": false,
      "t": 268486.77945833217,
      "d": 49.34209375001956,
      "v": 40
    },
    {
      "midi": 67,
      "hit": false,
      "t": 268495.00314062386,
      "d": 57.56577604170889,
      "v": 40
    },
    {
      "midi": 55,
      "hit": false,
      "t": 268749.93729166576,
      "d": 378.2893854166614,
      "v": 73
    },
    {
      "midi": 62,
      "hit": false,
      "t": 268791.05570312386,
      "d": 123.3552343750489,
      "v": 40
    },
    {
      "midi": 67,
      "hit": false,
      "t": 268799.27938541555,
      "d": 106.90786979167024,
      "v": 40
    },
    {
      "midi": 59,
      "hit": false,
      "t": 268815.72674999887,
      "d": 82.23682291666046,
      "v": 40
    },
    {
      "midi": 60,
      "hit": false,
      "t": 269152.89772395743,
      "d": 263.15783333336003,
      "v": 78
    },
    {
      "midi": 62,
      "hit": false,
      "t": 269169.3450885406,
      "d": 123.3552343750489,
      "v": 40
    },
    {
      "midi": 59,
      "hit": false,
      "t": 269177.56877083227,
      "d": 106.90786979167024,
      "v": 40
    },
    {
      "midi": 67,
      "hit": false,
      "t": 269194.0161354156,
      "d": 82.23682291666046,
      "v": 40
    },
    {
      "midi": 62,
      "hit": false,
      "t": 269539.4107916658,
      "d": 123.35523437499069,
      "v": 73
    },
    {
      "midi": 62,
      "hit": false,
      "t": 269547.6344739573,
      "d": 115.13155208335957,
      "v": 40
    },
    {
      "midi": 59,
      "hit": false,
      "t": 269564.0818385406,
      "d": 90.46050520834979,
      "v": 40
    },
    {
      "midi": 67,
      "hit": false,
      "t": 269572.3055208323,
      "d": 82.23682291666046,
      "v": 40
    },
    {
      "midi": 67,
      "hit": false,
      "t": 269901.2528124991,
      "d": 3815.788583333313,
      "v": 81
    },
    {
      "midi": 55,
      "hit": false,
      "t": 269925.92385937413,
      "d": 1291.1181197916158,
      "v": 60
    },
    {
      "midi": 62,
      "hit": false,
      "t": 269950.59490624897,
      "d": 115.13155208341777,
      "v": 40
    },
    {
      "midi": 67,
      "hit": false,
      "t": 269958.81858854066,
      "d": 98.68418750003912,
      "v": 40
    },
    {
      "midi": 59,
      "hit": false,
      "t": 269967.04227083235,
      "d": 90.46050520834979,
      "v": 40
    },
    {
      "midi": 72,
      "hit": false,
      "t": 270295.9895624991,
      "d": 3700.6570312500116,
      "v": 78
    },
    {
      "midi": 67,
      "hit": false,
      "t": 270337.1079739574,
      "d": 98.68418750003912,
      "v": 40
    },
    {
      "midi": 62,
      "hit": false,
      "t": 270337.1079739574,
      "d": 106.90786979172844,
      "v": 40
    },
    {
      "midi": 59,
      "hit": false,
      "t": 270345.33165624907,
      "d": 90.46050520834979,
      "v": 40
    },
    {
      "midi": 74,
      "hit": false,
      "t": 270690.7263124991,
      "d": 304.27624479169026,
      "v": 99
    },
    {
      "midi": 62,
      "hit": false,
      "t": 270756.5157708324,
      "d": 98.68418749998091,
      "v": 40
    },
    {
      "midi": 59,
      "hit": false,
      "t": 270764.7394531241,
      "d": 74.01314062497113,
      "v": 40
    },
    {
      "midi": 67,
      "hit": false,
      "t": 270764.7394531241,
      "d": 90.46050520829158,
      "v": 40
    },
    {
      "midi": 43,
      "hit": false,
      "t": 270789.41050000006,
      "d": 271.38151562499115,
      "v": 74
    },
    {
      "midi": 74,
      "hit": false,
      "t": 271060.7920156241,
      "d": 2985.196671875019,
      "v": 65
    },
    {
      "midi": 79,
      "hit": false,
      "t": 271093.68674479076,
      "d": 3124.9992708333884,
      "v": 109
    },
    {
      "midi": 62,
      "hit": false,
      "t": 271126.5814739574,
      "d": 115.13155208335957,
      "v": 40
    },
    {
      "midi": 67,
      "hit": false,
      "t": 271134.8051562491,
      "d": 90.46050520834979,
      "v": 40
    },
    {
      "midi": 59,
      "hit": false,
      "t": 271143.0288385408,
      "d": 82.23682291666046,
      "v": 40
    },
    {
      "midi": 67,
      "hit": false,
      "t": 271513.09454166575,
      "d": 115.13155208335957,
      "v": 40
    },
    {
      "midi": 62,
      "hit": false,
      "t": 271513.09454166575,
      "d": 123.3552343750489,
      "v": 40
    },
    {
      "midi": 59,
      "hit": false,
      "t": 271521.31822395744,
      "d": 115.13155208335957,
      "v": 40
    },
    {
      "midi": 43,
      "hit": false,
      "t": 271578.884,
      "d": 2631.5783333333093,
      "v": 77
    },
    {
      "midi": 62,
      "hit": false,
      "t": 271899.60760937416,
      "d": 123.35523437499069,
      "v": 40
    },
    {
      "midi": 67,
      "hit": false,
      "t": 271916.0549739575,
      "d": 90.46050520834979,
      "v": 40
    },
    {
      "midi": 59,
      "hit": false,
      "t": 271924.27865624917,
      "d": 82.23682291666046,
      "v": 40
    },
    {
      "midi": 62,
      "hit": false,
      "t": 272302.5680416658,
      "d": 115.13155208330136,
      "v": 40
    },
    {
      "midi": 59,
      "hit": false,
      "t": 272319.01540624915,
      "d": 82.23682291666046,
      "v": 40
    },
    {
      "midi": 67,
      "hit": false,
      "t": 272319.01540624915,
      "d": 82.23682291666046,
      "v": 40
    },
    {
      "midi": 62,
      "hit": false,
      "t": 272697.3047916658,
      "d": 123.3552343750489,
      "v": 40
    },
    {
      "midi": 67,
      "hit": false,
      "t": 272713.75215624913,
      "d": 90.46050520834979,
      "v": 40
    },
    {
      "midi": 59,
      "hit": false,
      "t": 272713.75215624913,
      "d": 98.68418750003912,
      "v": 40
    },
    {
      "midi": 62,
      "hit": false,
      "t": 273116.71258854086,
      "d": 90.46050520834979,
      "v": 40
    },
    {
      "midi": 59,
      "hit": false,
      "t": 273124.93627083255,
      "d": 82.23682291666046,
      "v": 40
    },
    {
      "midi": 67,
      "hit": false,
      "t": 273124.93627083255,
      "d": 82.23682291666046,
      "v": 40
    },
    {
      "midi": 55,
      "hit": false,
      "t": 273157.8309999991,
      "d": 953.947145833401,
      "v": 60
    },
    {
      "midi": 62,
      "hit": false,
      "t": 273503.2256562492,
      "d": 106.90786979167024,
      "v": 40
    },
    {
      "midi": 59,
      "hit": false,
      "t": 273519.67302083253,
      "d": 82.23682291666046,
      "v": 40
    },
    {
      "midi": 67,
      "hit": false,
      "t": 273519.67302083253,
      "d": 82.23682291666046,
      "v": 40
    },
    {
      "midi": 62,
      "hit": false,
      "t": 273906.1860885409,
      "d": 98.68418750003912,
      "v": 40
    },
    {
      "midi": 59,
      "hit": false,
      "t": 273914.4097708326,
      "d": 74.01314062502934,
      "v": 40
    },
    {
      "midi": 67,
      "hit": false,
      "t": 273922.63345312426,
      "d": 65.78945833334001,
      "v": 40
    },
    {
      "midi": 67,
      "hit": false,
      "t": 273980.1992291658,
      "d": 287.8288802083698,
      "v": 44
    },
    {
      "midi": 67,
      "hit": false,
      "t": 274276.2517916659,
      "d": 115.13155208335957,
      "v": 40
    },
    {
      "midi": 62,
      "hit": false,
      "t": 274276.2517916659,
      "d": 131.57891666668002,
      "v": 40
    },
    {
      "midi": 59,
      "hit": false,
      "t": 274284.4754739576,
      "d": 106.90786979167024,
      "v": 40
    },
    {
      "midi": 60,
      "hit": false,
      "t": 274695.6595885409,
      "d": 123.35523437499069,
      "v": 40
    },
    {
      "midi": 64,
      "hit": false,
      "t": 274703.8832708326,
      "d": 90.46050520829158,
      "v": 40
    },
    {
      "midi": 67,
      "hit": false,
      "t": 274703.8832708326,
      "d": 106.90786979161203,
      "v": 40
    },
    {
      "midi": 76,
      "hit": false,
      "t": 274720.33063541586,
      "d": 1151.3155208333046,
      "v": 99
    },
    {
      "midi": 72,
      "hit": false,
      "t": 274736.7779999992,
      "d": 2467.1046874999884,
      "v": 85
    },
    {
      "midi": 67,
      "hit": false,
      "t": 274736.7779999992,
      "d": 2713.8151562499697,
      "v": 73
    },
    {
      "midi": 48,
      "hit": false,
      "t": 274736.7779999992,
      "d": 3034.5387656249804,
      "v": 52
    },
    {
      "midi": 48,
      "hit": false,
      "t": 274736.778,
      "d": 2368.4205000000075,
      "v": 69
    },
    {
      "midi": 64,
      "hit": false,
      "t": 275082.17265624925,
      "d": 90.46050520834979,
      "v": 40
    },
    {
      "midi": 67,
      "hit": false,
      "t": 275082.17265624925,
      "d": 90.46050520834979,
      "v": 40
    },
    {
      "midi": 60,
      "hit": false,
      "t": 275090.39633854094,
      "d": 82.23682291666046,
      "v": 40
    },
    {
      "midi": 64,
      "hit": false,
      "t": 275452.2383593743,
      "d": 98.68418750003912,
      "v": 40
    },
    {
      "midi": 67,
      "hit": false,
      "t": 275460.462041666,
      "d": 98.68418750003912,
      "v": 40
    },
    {
      "midi": 60,
      "hit": false,
      "t": 275468.68572395766,
      "d": 90.46050520834979,
      "v": 40
    },
    {
      "midi": 64,
      "hit": false,
      "t": 275871.64615624934,
      "d": 98.68418750003912,
      "v": 40
    },
    {
      "midi": 60,
      "hit": false,
      "t": 275871.64615624934,
      "d": 106.90786979172844,
      "v": 40
    },
    {
      "midi": 67,
      "hit": false,
      "t": 275879.869838541,
      "d": 90.46050520834979,
      "v": 40
    },
    {
      "midi": 76,
      "hit": false,
      "t": 276274.60658854083,
      "d": 1430.920718749985,
      "v": 104
    },
    {
      "midi": 64,
      "hit": false,
      "t": 276274.60658854106,
      "d": 98.68418750003912,
      "v": 40
    },
    {
      "midi": 60,
      "hit": false,
      "t": 276274.60658854106,
      "d": 106.90786979172844,
      "v": 40
    },
    {
      "midi": 67,
      "hit": false,
      "t": 276282.83027083275,
      "d": 90.46050520834979,
      "v": 40
    },
    {
      "midi": 60,
      "hit": false,
      "t": 276669.3433385411,
      "d": 115.13155208341777,
      "v": 40
    },
    {
      "midi": 64,
      "hit": false,
      "t": 276677.5670208328,
      "d": 98.68418750003912,
      "v": 40
    },
    {
      "midi": 67,
      "hit": false,
      "t": 276685.7907031245,
      "d": 90.46050520834979,
      "v": 40
    },
    {
      "midi": 64,
      "hit": false,
      "t": 277080.5274531245,
      "d": 98.68418750003912,
      "v": 40
    },
    {
      "midi": 60,
      "hit": false,
      "t": 277080.5274531245,
      "d": 115.13155208335957,
      "v": 40
    },
    {
      "midi": 67,
      "hit": false,
      "t": 277088.7511354162,
      "d": 90.46050520834979,
      "v": 40
    },
    {
      "midi": 48,
      "hit": false,
      "t": 277105.1985,
      "d": 740.1314062500023,
      "v": 58
    },
    {
      "midi": 60,
      "hit": false,
      "t": 277458.81683854124,
      "d": 131.57891666673822,
      "v": 40
    },
    {
      "midi": 64,
      "hit": false,
      "t": 277467.04052083293,
      "d": 98.68418750003912,
      "v": 40
    },
    {
      "midi": 67,
      "hit": false,
      "t": 277475.2642031246,
      "d": 98.68418750003912,
      "v": 40
    },
    {
      "midi": 62,
      "hit": false,
      "t": 277853.5535885413,
      "d": 115.13155208335957,
      "v": 40
    },
    {
      "midi": 67,
      "hit": false,
      "t": 277861.777270833,
      "d": 106.90786979167024,
      "v": 40
    },
    {
      "midi": 59,
      "hit": false,
      "t": 277870.00095312466,
      "d": 98.68418749998091,
      "v": 40
    },
    {
      "midi": 74,
      "hit": false,
      "t": 277878.2246354158,
      "d": 1677.6311874999665,
      "v": 88
    },
    {
      "midi": 71,
      "hit": false,
      "t": 277878.2246354158,
      "d": 2335.5257708333083,
      "v": 102
    },
    {
      "midi": 67,
      "hit": false,
      "t": 277894.67199999915,
      "d": 2409.5389114583377,
      "v": 48
    },
    {
      "midi": 47,
      "hit": false,
      "t": 277894.672,
      "d": 1858.552197916666,
      "v": 102
    },
    {
      "midi": 47,
      "hit": false,
      "t": 277911.11936458247,
      "d": 2574.0125572916586,
      "v": 60
    },
    {
      "midi": 62,
      "hit": false,
      "t": 278215.3956093746,
      "d": 131.57891666668002,
      "v": 40
    },
    {
      "midi": 67,
      "hit": false,
      "t": 278231.84297395794,
      "d": 106.90786979167024,
      "v": 40
    },
    {
      "midi": 59,
      "hit": false,
      "t": 278248.29033854126,
      "d": 82.23682291666046,
      "v": 40
    },
    {
      "midi": 62,
      "hit": false,
      "t": 278643.0270885413,
      "d": 115.13155208341777,
      "v": 40
    },
    {
      "midi": 67,
      "hit": false,
      "t": 278651.250770833,
      "d": 98.68418750003912,
      "v": 40
    },
    {
      "midi": 59,
      "hit": false,
      "t": 278659.4744531247,
      "d": 90.46050520834979,
      "v": 40
    },
    {
      "midi": 62,
      "hit": false,
      "t": 279037.7638385414,
      "d": 123.3552343750489,
      "v": 40
    },
    {
      "midi": 67,
      "hit": false,
      "t": 279054.2112031247,
      "d": 90.46050520834979,
      "v": 40
    },
    {
      "midi": 59,
      "hit": false,
      "t": 279062.4348854164,
      "d": 90.46050520834979,
      "v": 40
    },
    {
      "midi": 62,
      "hit": false,
      "t": 279440.72427083313,
      "d": 115.13155208341777,
      "v": 40
    },
    {
      "midi": 67,
      "hit": false,
      "t": 279448.9479531248,
      "d": 98.68418750003912,
      "v": 40
    },
    {
      "midi": 59,
      "hit": false,
      "t": 279457.1716354165,
      "d": 98.68418750003912,
      "v": 40
    },
    {
      "midi": 62,
      "hit": false,
      "t": 279835.46102083323,
      "d": 115.13155208335957,
      "v": 40
    },
    {
      "midi": 67,
      "hit": false,
      "t": 279843.6847031249,
      "d": 115.13155208335957,
      "v": 40
    },
    {
      "midi": 59,
      "hit": false,
      "t": 279860.13206770824,
      "d": 90.46050520834979,
      "v": 40
    },
    {
      "midi": 74,
      "hit": false,
      "t": 280221.9740885408,
      "d": 123.35523437499069,
      "v": 73
    },
    {
      "midi": 67,
      "hit": false,
      "t": 280238.42145312496,
      "d": 123.3552343750489,
      "v": 40
    },
    {
      "midi": 62,
      "hit": false,
      "t": 280246.64513541665,
      "d": 98.68418749998091,
      "v": 40
    },
    {
      "midi": 59,
      "hit": false,
      "t": 280246.64513541665,
      "d": 106.90786979167024,
      "v": 40
    },
    {
      "midi": 47,
      "hit": false,
      "t": 280263.0925,
      "d": 690.7893124999828,
      "v": 35
    },
    {
      "midi": 67,
      "hit": false,
      "t": 280624.93452083337,
      "d": 123.3552343751071,
      "v": 40
    },
    {
      "midi": 62,
      "hit": false,
      "t": 280633.15820312506,
      "d": 98.68418750003912,
      "v": 40
    },
    {
      "midi": 59,
      "hit": false,
      "t": 280641.38188541675,
      "d": 98.68418750003912,
      "v": 40
    },
    {
      "midi": 69,
      "hit": false,
      "t": 281036.1186354168,
      "d": 106.90786979172844,
      "v": 40
    },
    {
      "midi": 57,
      "hit": false,
      "t": 281044.3423177085,
      "d": 98.68418750003912,
      "v": 40
    },
    {
      "midi": 45,
      "hit": false,
      "t": 281052.566,
      "d": 1850.3285156249767,
      "v": 79
    },
    {
      "midi": 69,
      "hit": false,
      "t": 281060.78968229075,
      "d": 542.7630312500405,
      "v": 73
    },
    {
      "midi": 72,
      "hit": false,
      "t": 281060.78968229075,
      "d": 1891.4469270833652,
      "v": 78
    },
    {
      "midi": 60,
      "hit": false,
      "t": 281060.7896822918,
      "d": 65.78945833339822,
      "v": 40
    },
    {
      "midi": 64,
      "hit": false,
      "t": 281069.01336458244,
      "d": 1759.8680104166851,
      "v": 65
    },
    {
      "midi": 45,
      "hit": false,
      "t": 281069.01336458244,
      "d": 2894.7361666666693,
      "v": 69
    },
    {
      "midi": 64,
      "hit": false,
      "t": 281069.0133645835,
      "d": 49.34209375001956,
      "v": 40
    },
    {
      "midi": 57,
      "hit": false,
      "t": 281381.51329166687,
      "d": 98.68418749998091,
      "v": 40
    },
    {
      "midi": 60,
      "hit": false,
      "t": 281389.73697395856,
      "d": 90.46050520829158,
      "v": 40
    },
    {
      "midi": 69,
      "hit": false,
      "t": 281389.73697395856,
      "d": 90.46050520829158,
      "v": 40
    },
    {
      "midi": 64,
      "hit": false,
      "t": 281406.1843385419,
      "d": 57.56577604165068,
      "v": 40
    },
    {
      "midi": 57,
      "hit": false,
      "t": 281792.69740625017,
      "d": 106.90786979172844,
      "v": 40
    },
    {
      "midi": 69,
      "hit": false,
      "t": 281800.92108854186,
      "d": 90.46050520834979,
      "v": 40
    },
    {
      "midi": 60,
      "hit": false,
      "t": 281809.14477083355,
      "d": 82.23682291666046,
      "v": 40
    },
    {
      "midi": 64,
      "hit": false,
      "t": 281809.14477083355,
      "d": 82.23682291666046,
      "v": 40
    },
    {
      "midi": 57,
      "hit": false,
      "t": 282179.2104739586,
      "d": 123.3552343750489,
      "v": 40
    },
    {
      "midi": 60,
      "hit": false,
      "t": 282195.6578385419,
      "d": 98.68418750003912,
      "v": 40
    },
    {
      "midi": 69,
      "hit": false,
      "t": 282203.8815208336,
      "d": 74.01314062497113,
      "v": 40
    },
    {
      "midi": 64,
      "hit": false,
      "t": 282203.8815208336,
      "d": 82.23682291666046,
      "v": 40
    },
    {
      "midi": 57,
      "hit": false,
      "t": 282582.1709062503,
      "d": 106.90786979172844,
      "v": 40
    },
    {
      "midi": 60,
      "hit": false,
      "t": 282590.394588542,
      "d": 98.68418750003912,
      "v": 40
    },
    {
      "midi": 64,
      "hit": false,
      "t": 282606.8419531253,
      "d": 74.01314062502934,
      "v": 40
    },
    {
      "midi": 69,
      "hit": false,
      "t": 282615.065635417,
      "d": 57.56577604165068,
      "v": 40
    },
    {
      "midi": 57,
      "hit": false,
      "t": 282985.13133854204,
      "d": 115.13155208341777,
      "v": 40
    },
    {
      "midi": 60,
      "hit": false,
      "t": 282993.3550208337,
      "d": 98.68418750003912,
      "v": 40
    },
    {
      "midi": 64,
      "hit": false,
      "t": 283001.5787031254,
      "d": 82.23682291666046,
      "v": 40
    },
    {
      "midi": 69,
      "hit": false,
      "t": 283009.8023854171,
      "d": 74.01314062497113,
      "v": 40
    },
    {
      "midi": 69,
      "hit": false,
      "t": 283018.02606770745,
      "d": 361.84202083334094,
      "v": 69
    },
    {
      "midi": 57,
      "hit": false,
      "t": 283379.86808854213,
      "d": 90.460505208408,
      "v": 40
    },
    {
      "midi": 60,
      "hit": false,
      "t": 283388.0917708338,
      "d": 82.23682291671867,
      "v": 40
    },
    {
      "midi": 64,
      "hit": false,
      "t": 283396.3154531241,
      "d": 320.7236093750107,
      "v": 60
    },
    {
      "midi": 64,
      "hit": false,
      "t": 283396.3154531255,
      "d": 65.78945833334001,
      "v": 40
    },
    {
      "midi": 45,
      "hit": false,
      "t": 283420.98649999994,
      "d": 361.84202083334094,
      "v": 55
    },
    {
      "midi": 69,
      "hit": false,
      "t": 283429.21018229215,
      "d": 24.67104687500978,
      "v": 40
    },
    {
      "midi": 60,
      "hit": false,
      "t": 283741.71010937414,
      "d": 2171.0521249999874,
      "v": 69
    },
    {
      "midi": 57,
      "hit": false,
      "t": 283749.9337916672,
      "d": 98.68418750003912,
      "v": 40
    },
    {
      "midi": 60,
      "hit": false,
      "t": 283749.9337916672,
      "d": 106.90786979172844,
      "v": 40
    },
    {
      "midi": 64,
      "hit": false,
      "t": 283758.1574739589,
      "d": 82.23682291666046,
      "v": 40
    },
    {
      "midi": 69,
      "hit": false,
      "t": 283774.60483854223,
      "d": 65.78945833334001,
      "v": 40
    },
    {
      "midi": 69,
      "hit": false,
      "t": 284136.4468593741,
      "d": 1455.5917656249949,
      "v": 102
    },
    {
      "midi": 72,
      "hit": false,
      "t": 284152.89422395744,
      "d": 1636.5127760416945,
      "v": 85
    },
    {
      "midi": 69,
      "hit": false,
      "t": 284152.89422395895,
      "d": 90.46050520834979,
      "v": 40
    },
    {
      "midi": 57,
      "hit": false,
      "t": 284152.89422395895,
      "d": 98.68418750003912,
      "v": 40
    },
    {
      "midi": 60,
      "hit": false,
      "t": 284152.89422395895,
      "d": 98.68418750003912,
      "v": 40
    },
    {
      "midi": 64,
      "hit": false,
      "t": 284152.89422395895,
      "d": 98.68418750003912,
      "v": 40
    },
    {
      "midi": 64,
      "hit": false,
      "t": 284161.1179062491,
      "d": 1792.762739583326,
      "v": 88
    },
    {
      "midi": 43,
      "hit": false,
      "t": 284169.3415885408,
      "d": 2878.288802083349,
      "v": 41
    },
    {
      "midi": 43,
      "hit": false,
      "t": 284210.45999999996,
      "d": 2722.038838541659,
      "v": 69
    },
    {
      "midi": 57,
      "hit": false,
      "t": 284531.1836093757,
      "d": 106.90786979172844,
      "v": 40
    },
    {
      "midi": 60,
      "hit": false,
      "t": 284539.40729166736,
      "d": 82.23682291666046,
      "v": 40
    },
    {
      "midi": 69,
      "hit": false,
      "t": 284539.40729166736,
      "d": 90.46050520834979,
      "v": 40
    },
    {
      "midi": 64,
      "hit": false,
      "t": 284555.8546562507,
      "d": 65.78945833334001,
      "v": 40
    },
    {
      "midi": 57,
      "hit": false,
      "t": 284917.6966770841,
      "d": 106.90786979167024,
      "v": 40
    },
    {
      "midi": 60,
      "hit": false,
      "t": 284917.6966770841,
      "d": 106.90786979167024,
      "v": 40
    },
    {
      "midi": 64,
      "hit": false,
      "t": 284934.1440416674,
      "d": 82.23682291666046,
      "v": 40
    },
    {
      "midi": 69,
      "hit": false,
      "t": 284934.1440416674,
      "d": 90.46050520834979,
      "v": 40
    },
    {
      "midi": 57,
      "hit": false,
      "t": 285312.43342708406,
      "d": 106.90786979172844,
      "v": 40
    },
    {
      "midi": 60,
      "hit": false,
      "t": 285320.65710937575,
      "d": 90.46050520834979,
      "v": 40
    },
    {
      "midi": 69,
      "hit": false,
      "t": 285320.65710937575,
      "d": 90.46050520834979,
      "v": 40
    },
    {
      "midi": 64,
      "hit": false,
      "t": 285328.88079166744,
      "d": 82.23682291666046,
      "v": 40
    },
    {
      "midi": 57,
      "hit": false,
      "t": 285723.6175416675,
      "d": 106.90786979172844,
      "v": 40
    },
    {
      "midi": 69,
      "hit": false,
      "t": 285731.84122395917,
      "d": 98.68418750003912,
      "v": 40
    },
    {
      "midi": 60,
      "hit": false,
      "t": 285740.06490625086,
      "d": 82.23682291666046,
      "v": 40
    },
    {
      "midi": 64,
      "hit": false,
      "t": 285740.06490625086,
      "d": 82.23682291666046,
      "v": 40
    },
    {
      "midi": 57,
      "hit": false,
      "t": 286118.3542916675,
      "d": 106.90786979172844,
      "v": 40
    },
    {
      "midi": 60,
      "hit": false,
      "t": 286126.5779739592,
      "d": 90.46050520834979,
      "v": 40
    },
    {
      "midi": 69,
      "hit": false,
      "t": 286126.5779739592,
      "d": 90.46050520834979,
      "v": 40
    },
    {
      "midi": 64,
      "hit": false,
      "t": 286134.8016562509,
      "d": 82.23682291666046,
      "v": 40
    },
    {
      "midi": 69,
      "hit": false,
      "t": 286184.1437499991,
      "d": 386.5130677083507,
      "v": 69
    },
    {
      "midi": 57,
      "hit": false,
      "t": 286537.7620885426,
      "d": 90.46050520834979,
      "v": 40
    },
    {
      "midi": 69,
      "hit": false,
      "t": 286537.7620885426,
      "d": 90.46050520834979,
      "v": 40
    },
    {
      "midi": 64,
      "hit": false,
      "t": 286545.98577083246,
      "d": 304.27624479169026,
      "v": 56
    },
    {
      "midi": 60,
      "hit": false,
      "t": 286545.98577083426,
      "d": 82.23682291666046,
      "v": 40
    },
    {
      "midi": 64,
      "hit": false,
      "t": 286545.98577083426,
      "d": 82.23682291666046,
      "v": 40
    },
    {
      "midi": 57,
      "hit": false,
      "t": 286907.8277916676,
      "d": 131.57891666679643,
      "v": 40
    },
    {
      "midi": 69,
      "hit": false,
      "t": 286916.0514739593,
      "d": 115.13155208341777,
      "v": 40
    },
    {
      "midi": 60,
      "hit": false,
      "t": 286924.275156251,
      "d": 74.01314062502934,
      "v": 40
    },
    {
      "midi": 64,
      "hit": false,
      "t": 286932.49883854267,
      "d": 74.01314062502934,
      "v": 40
    },
    {
      "midi": 60,
      "hit": false,
      "t": 286965.3935677075,
      "d": 312.4999270833214,
      "v": 60
    },
    {
      "midi": 72,
      "hit": false,
      "t": 287294.34085937415,
      "d": 386.5130677083507,
      "v": 114
    },
    {
      "midi": 41,
      "hit": false,
      "t": 287302.56454166584,
      "d": 5452.301359374949,
      "v": 48
    },
    {
      "midi": 60,
      "hit": false,
      "t": 287335.4592708344,
      "d": 123.3552343750489,
      "v": 40
    },
    {
      "midi": 65,
      "hit": false,
      "t": 287343.6829531261,
      "d": 115.13155208335957,
      "v": 40
    },
    {
      "midi": 41,
      "hit": false,
      "t": 287368.35399999993,
      "d": 2368.4205000000075,
      "v": 69
    },
    {
      "midi": 68,
      "hit": false,
      "t": 287384.8013645844,
      "d": 49.34209375001956,
      "v": 40
    },
    {
      "midi": 60,
      "hit": false,
      "t": 287697.3012916658,
      "d": 1365.131260416645,
      "v": 65
    },
    {
      "midi": 65,
      "hit": false,
      "t": 287697.3012916678,
      "d": 115.13155208335957,
      "v": 40
    },
    {
      "midi": 68,
      "hit": false,
      "t": 287705.5249739595,
      "d": 82.23682291666046,
      "v": 40
    },
    {
      "midi": 60,
      "hit": false,
      "t": 287705.5249739595,
      "d": 98.68418749998091,
      "v": 40
    },
    {
      "midi": 68,
      "hit": false,
      "t": 288050.91963020747,
      "d": 1661.183822916646,
      "v": 107
    },
    {
      "midi": 65,
      "hit": false,
      "t": 288083.8143593741,
      "d": 1562.4996354166651,
      "v": 99
    },
    {
      "midi": 60,
      "hit": false,
      "t": 288083.81435937615,
      "d": 106.90786979172844,
      "v": 40
    },
    {
      "midi": 65,
      "hit": false,
      "t": 288083.81435937615,
      "d": 115.13155208341777,
      "v": 40
    },
    {
      "midi": 68,
      "hit": false,
      "t": 288092.03804166784,
      "d": 90.46050520834979,
      "v": 40
    },
    {
      "midi": 60,
      "hit": false,
      "t": 288462.1037447929,
      "d": 98.68418750003912,
      "v": 40
    },
    {
      "midi": 65,
      "hit": false,
      "t": 288462.1037447929,
      "d": 115.13155208335957,
      "v": 40
    },
    {
      "midi": 68,
      "hit": false,
      "t": 288470.3274270846,
      "d": 82.23682291666046,
      "v": 40
    },
    {
      "midi": 60,
      "hit": false,
      "t": 288848.6168125013,
      "d": 115.13155208335957,
      "v": 40
    },
    {
      "midi": 65,
      "hit": false,
      "t": 288848.6168125013,
      "d": 123.3552343750489,
      "v": 40
    },
    {
      "midi": 68,
      "hit": false,
      "t": 288856.84049479297,
      "d": 90.46050520834979,
      "v": 40
    },
    {
      "midi": 53,
      "hit": false,
      "t": 288955.5246822908,
      "d": 4111.841145833314,
      "v": 81
    },
    {
      "midi": 60,
      "hit": false,
      "t": 289251.577244793,
      "d": 115.13155208335957,
      "v": 40
    },
    {
      "midi": 65,
      "hit": false,
      "t": 289251.577244793,
      "d": 123.3552343750489,
      "v": 40
    },
    {
      "midi": 68,
      "hit": false,
      "t": 289268.0246093763,
      "d": 90.46050520834979,
      "v": 40
    },
    {
      "midi": 60,
      "hit": false,
      "t": 289695.65608854307,
      "d": 123.3552343750489,
      "v": 40
    },
    {
      "midi": 60,
      "hit": false,
      "t": 289703.8797708324,
      "d": 353.6183385417098,
      "v": 65
    },
    {
      "midi": 68,
      "hit": false,
      "t": 289703.87977083476,
      "d": 90.46050520834979,
      "v": 40
    },
    {
      "midi": 65,
      "hit": false,
      "t": 289703.87977083476,
      "d": 115.13155208335957,
      "v": 40
    },
    {
      "midi": 41,
      "hit": false,
      "t": 289736.77449999994,
      "d": 222.0394218749716,
      "v": 69
    },
    {
      "midi": 60,
      "hit": false,
      "t": 290065.7217916681,
      "d": 131.57891666668002,
      "v": 40
    },
    {
      "midi": 65,
      "hit": false,
      "t": 290073.9454739598,
      "d": 131.57891666668002,
      "v": 40
    },
    {
      "midi": 68,
      "hit": false,
      "t": 290106.8402031264,
      "d": 65.78945833334001,
      "v": 40
    },
    {
      "midi": 68,
      "hit": false,
      "t": 290468.68222395744,
      "d": 2154.604760416667,
      "v": 88
    },
    {
      "midi": 62,
      "hit": false,
      "t": 290476.9059062491,
      "d": 937.4997812499641,
      "v": 56
    },
    {
      "midi": 65,
      "hit": false,
      "t": 290476.9059062491,
      "d": 1825.657468749967,
      "v": 99
    },
    {
      "midi": 62,
      "hit": false,
      "t": 290476.9059062515,
      "d": 139.80259895836934,
      "v": 40
    },
    {
      "midi": 65,
      "hit": false,
      "t": 290485.1295885432,
      "d": 131.57891666668002,
      "v": 40
    },
    {
      "midi": 68,
      "hit": false,
      "t": 290509.8006354182,
      "d": 74.01314062502934,
      "v": 40
    },
    {
      "midi": 41,
      "hit": false,
      "t": 290526.2479999999,
      "d": 3157.893999999971,
      "v": 72
    },
    {
      "midi": 62,
      "hit": false,
      "t": 290871.64265625156,
      "d": 115.13155208335957,
      "v": 40
    },
    {
      "midi": 65,
      "hit": false,
      "t": 290879.86633854324,
      "d": 98.68418749998091,
      "v": 40
    },
    {
      "midi": 68,
      "hit": false,
      "t": 290904.53738541825,
      "d": 57.56577604165068,
      "v": 40
    },
    {
      "midi": 62,
      "hit": false,
      "t": 291266.3794062516,
      "d": 123.3552343751071,
      "v": 40
    },
    {
      "midi": 65,
      "hit": false,
      "t": 291274.6030885433,
      "d": 106.90786979172844,
      "v": 40
    },
    {
      "midi": 68,
      "hit": false,
      "t": 291282.826770835,
      "d": 90.46050520834979,
      "v": 40
    },
    {
      "midi": 68,
      "hit": false,
      "t": 291661.1161562517,
      "d": 106.90786979167024,
      "v": 40
    },
    {
      "midi": 62,
      "hit": false,
      "t": 291661.1161562517,
      "d": 115.13155208335957,
      "v": 40
    },
    {
      "midi": 65,
      "hit": false,
      "t": 291677.563520835,
      "d": 98.68418750003912,
      "v": 40
    },
    {
      "midi": 62,
      "hit": false,
      "t": 292080.52395312674,
      "d": 115.13155208330136,
      "v": 40
    },
    {
      "midi": 68,
      "hit": false,
      "t": 292080.52395312674,
      "d": 115.13155208330136,
      "v": 40
    },
    {
      "midi": 65,
      "hit": false,
      "t": 292096.97131771006,
      "d": 106.90786979167024,
      "v": 40
    },
    {
      "midi": 62,
      "hit": false,
      "t": 292138.0897291658,
      "d": 1118.4207916666637,
      "v": 52
    },
    {
      "midi": 68,
      "hit": false,
      "t": 292467.0370208351,
      "d": 115.13155208330136,
      "v": 40
    },
    {
      "midi": 62,
      "hit": false,
      "t": 292467.0370208351,
      "d": 131.57891666668002,
      "v": 40
    },
    {
      "midi": 65,
      "hit": false,
      "t": 292483.4843854184,
      "d": 106.90786979167024,
      "v": 40
    },
    {
      "midi": 68,
      "hit": false,
      "t": 292861.77377083513,
      "d": 148.02628125000047,
      "v": 40
    },
    {
      "midi": 62,
      "hit": false,
      "t": 292878.22113541845,
      "d": 131.57891666668002,
      "v": 40
    },
    {
      "midi": 65,
      "hit": false,
      "t": 292886.44481771014,
      "d": 123.35523437499069,
      "v": 40
    },
    {
      "midi": 65,
      "hit": false,
      "t": 293272.9578854185,
      "d": 148.02628125000047,
      "v": 40
    },
    {
      "midi": 68,
      "hit": false,
      "t": 293272.9578854185,
      "d": 148.02628125000047,
      "v": 40
    },
    {
      "midi": 62,
      "hit": false,
      "t": 293281.1815677102,
      "d": 123.35523437499069,
      "v": 40
    },
    {
      "midi": 72,
      "hit": false,
      "t": 293626.57622395747,
      "d": 394.73675000004005,
      "v": 102
    },
    {
      "midi": 62,
      "hit": false,
      "t": 293634.7999062518,
      "d": 156.2499635416316,
      "v": 40
    },
    {
      "midi": 59,
      "hit": false,
      "t": 293643.02358854347,
      "d": 131.5789166666218,
      "v": 40
    },
    {
      "midi": 43,
      "hit": false,
      "t": 293651.2472708325,
      "d": 5682.564463541727,
      "v": 41
    },
    {
      "midi": 67,
      "hit": false,
      "t": 293659.4709531268,
      "d": 115.13155208330136,
      "v": 40
    },
    {
      "midi": 43,
      "hit": false,
      "t": 293684.1419999999,
      "d": 1842.1048333333456,
      "v": 74
    },
    {
      "midi": 62,
      "hit": false,
      "t": 294029.53665625176,
      "d": 139.80259895831114,
      "v": 40
    },
    {
      "midi": 62,
      "hit": false,
      "t": 294037.76033854083,
      "d": 2006.5784791667247,
      "v": 65
    },
    {
      "midi": 67,
      "hit": false,
      "t": 294037.76033854345,
      "d": 123.35523437493248,
      "v": 40
    },
    {
      "midi": 59,
      "hit": false,
      "t": 294070.6550677101,
      "d": 74.01314062497113,
      "v": 40
    },
    {
      "midi": 67,
      "hit": false,
      "t": 294424.2734062492,
      "d": 1578.9470000000438,
      "v": 88
    },
    {
      "midi": 62,
      "hit": false,
      "t": 294424.27340625174,
      "d": 131.57891666673822,
      "v": 40
    },
    {
      "midi": 67,
      "hit": false,
      "t": 294432.49708854343,
      "d": 115.13155208335957,
      "v": 40
    },
    {
      "midi": 59,
      "hit": false,
      "t": 294448.94445312675,
      "d": 90.46050520834979,
      "v": 40
    },
    {
      "midi": 62,
      "hit": false,
      "t": 294810.78647396015,
      "d": 131.57891666673822,
      "v": 40
    },
    {
      "midi": 67,
      "hit": false,
      "t": 294819.01015625184,
      "d": 115.13155208335957,
      "v": 40
    },
    {
      "midi": 59,
      "hit": false,
      "t": 294835.45752083516,
      "d": 90.46050520834979,
      "v": 40
    },
    {
      "midi": 62,
      "hit": false,
      "t": 295213.7469062519,
      "d": 115.13155208335957,
      "v": 40
    },
    {
      "midi": 67,
      "hit": false,
      "t": 295221.97058854357,
      "d": 98.68418749998091,
      "v": 40
    },
    {
      "midi": 59,
      "hit": false,
      "t": 295238.4179531269,
      "d": 74.01314062497113,
      "v": 40
    },
    {
      "midi": 55,
      "hit": false,
      "t": 295279.53636458254,
      "d": 2450.657322916668,
      "v": 44
    },
    {
      "midi": 62,
      "hit": false,
      "t": 295616.70733854355,
      "d": 106.90786979167024,
      "v": 40
    },
    {
      "midi": 67,
      "hit": false,
      "t": 295616.70733854355,
      "d": 106.90786979167024,
      "v": 40
    },
    {
      "midi": 59,
      "hit": false,
      "t": 295641.37838541856,
      "d": 65.78945833334001,
      "v": 40
    },
    {
      "midi": 62,
      "hit": false,
      "t": 296011.44408854353,
      "d": 115.13155208335957,
      "v": 40
    },
    {
      "midi": 67,
      "hit": false,
      "t": 296019.6677708352,
      "d": 90.46050520834979,
      "v": 40
    },
    {
      "midi": 72,
      "hit": false,
      "t": 296027.89145312423,
      "d": 518.0919843749725,
      "v": 73
    },
    {
      "midi": 59,
      "hit": false,
      "t": 296027.8914531269,
      "d": 82.23682291666046,
      "v": 40
    },
    {
      "midi": 43,
      "hit": false,
      "t": 296052.5624999999,
      "d": 263.15783333336003,
      "v": 72
    },
    {
      "midi": 62,
      "hit": false,
      "t": 296397.9571562519,
      "d": 131.57891666673822,
      "v": 40
    },
    {
      "midi": 67,
      "hit": false,
      "t": 296406.1808385436,
      "d": 115.13155208335957,
      "v": 40
    },
    {
      "midi": 59,
      "hit": false,
      "t": 296414.40452083526,
      "d": 106.90786979167024,
      "v": 40
    },
    {
      "midi": 67,
      "hit": false,
      "t": 296800.9175885409,
      "d": 1636.5127760416362,
      "v": 85
    },
    {
      "midi": 62,
      "hit": false,
      "t": 296800.9175885436,
      "d": 131.57891666673822,
      "v": 40
    },
    {
      "midi": 67,
      "hit": false,
      "t": 296809.1412708353,
      "d": 115.13155208335957,
      "v": 40
    },
    {
      "midi": 59,
      "hit": false,
      "t": 296817.364953127,
      "d": 106.90786979167024,
      "v": 40
    },
    {
      "midi": 43,
      "hit": false,
      "t": 296842.0359999999,
      "d": 3157.893999999971,
      "v": 61
    },
    {
      "midi": 62,
      "hit": false,
      "t": 297170.9832916687,
      "d": 131.57891666668002,
      "v": 40
    },
    {
      "midi": 67,
      "hit": false,
      "t": 297187.430656252,
      "d": 98.68418750003912,
      "v": 40
    },
    {
      "midi": 59,
      "hit": false,
      "t": 297195.6543385437,
      "d": 90.46050520834979,
      "v": 40
    },
    {
      "midi": 74,
      "hit": false,
      "t": 297220.32538541587,
      "d": 1924.341656250006,
      "v": 78
    },
    {
      "midi": 79,
      "hit": false,
      "t": 297565.7200416659,
      "d": 1570.7233177082962,
      "v": 94
    },
    {
      "midi": 62,
      "hit": false,
      "t": 297565.72004166874,
      "d": 106.90786979167024,
      "v": 40
    },
    {
      "midi": 59,
      "hit": false,
      "t": 297582.16740625206,
      "d": 82.23682291666046,
      "v": 40
    },
    {
      "midi": 67,
      "hit": false,
      "t": 297590.39108854375,
      "d": 82.23682291666046,
      "v": 40
    },
    {
      "midi": 62,
      "hit": false,
      "t": 297952.2331093771,
      "d": 115.13155208335957,
      "v": 40
    },
    {
      "midi": 59,
      "hit": false,
      "t": 297976.9041562521,
      "d": 82.23682291666046,
      "v": 40
    },
    {
      "midi": 67,
      "hit": false,
      "t": 297976.9041562521,
      "d": 82.23682291666046,
      "v": 40
    },
    {
      "midi": 62,
      "hit": false,
      "t": 298371.64090625214,
      "d": 106.90786979167024,
      "v": 40
    },
    {
      "midi": 59,
      "hit": false,
      "t": 298388.08827083546,
      "d": 90.46050520834979,
      "v": 40
    },
    {
      "midi": 67,
      "hit": false,
      "t": 298388.08827083546,
      "d": 90.46050520834979,
      "v": 40
    },
    {
      "midi": 55,
      "hit": false,
      "t": 298420.9829999992,
      "d": 781.2498177083326,
      "v": 65
    },
    {
      "midi": 62,
      "hit": false,
      "t": 298758.1539739605,
      "d": 123.35523437499069,
      "v": 40
    },
    {
      "midi": 59,
      "hit": false,
      "t": 298774.6013385438,
      "d": 98.68418749998091,
      "v": 40
    },
    {
      "midi": 67,
      "hit": false,
      "t": 298774.6013385438,
      "d": 98.68418749998091,
      "v": 40
    },
    {
      "midi": 62,
      "hit": false,
      "t": 299169.3380885438,
      "d": 106.90786979172844,
      "v": 40
    },
    {
      "midi": 59,
      "hit": false,
      "t": 299177.5617708355,
      "d": 90.46050520834979,
      "v": 40
    },
    {
      "midi": 67,
      "hit": false,
      "t": 299185.7854531242,
      "d": 394.73674999998184,
      "v": 69
    },
    {
      "midi": 67,
      "hit": false,
      "t": 299185.7854531272,
      "d": 74.01314062497113,
      "v": 40
    },
    {
      "midi": 62,
      "hit": false,
      "t": 299539.4037916689,
      "d": 123.3552343750489,
      "v": 40
    },
    {
      "midi": 59,
      "hit": false,
      "t": 299547.6274739606,
      "d": 90.46050520834979,
      "v": 40
    },
    {
      "midi": 67,
      "hit": false,
      "t": 299555.85115625226,
      "d": 90.46050520834979,
      "v": 40
    },
    {
      "midi": 64,
      "hit": false,
      "t": 299934.1405416689,
      "d": 115.13155208335957,
      "v": 40
    },
    {
      "midi": 60,
      "hit": false,
      "t": 299934.1405416689,
      "d": 123.3552343750489,
      "v": 40
    },
    {
      "midi": 48,
      "hit": false,
      "t": 299950.58790624916,
      "d": 2845.3940729166497,
      "v": 48
    },
    {
      "midi": 67,
      "hit": false,
      "t": 299950.58790625224,
      "d": 98.68418750003912,
      "v": 40
    },
    {
      "midi": 76,
      "hit": false,
      "t": 299967.0352708325,
      "d": 2294.4073593750363,
      "v": 94
    },
    {
      "midi": 67,
      "hit": false,
      "t": 299967.0352708325,
      "d": 2771.3809322916786,
      "v": 52
    },
    {
      "midi": 72,
      "hit": false,
      "t": 299975.25895312417,
      "d": 2409.5389114583377,
      "v": 88
    },
    {
      "midi": 48,
      "hit": false,
      "t": 299999.9299999999,
      "d": 2368.4205000000075,
      "v": 124
    },
    {
      "midi": 64,
      "hit": false,
      "t": 300328.87729166896,
      "d": 115.13155208335957,
      "v": 40
    },
    {
      "midi": 67,
      "hit": false,
      "t": 300337.10097396065,
      "d": 106.90786979167024,
      "v": 40
    },
    {
      "midi": 60,
      "hit": false,
      "t": 300345.32465625234,
      "d": 98.68418749998091,
      "v": 40
    },
    {
      "midi": 64,
      "hit": false,
      "t": 300715.3903593773,
      "d": 115.13155208335957,
      "v": 40
    },
    {
      "midi": 67,
      "hit": false,
      "t": 300731.83772396063,
      "d": 90.46050520834979,
      "v": 40
    },
    {
      "midi": 60,
      "hit": false,
      "t": 300731.83772396063,
      "d": 98.68418750003912,
      "v": 40
    },
    {
      "midi": 64,
      "hit": false,
      "t": 301118.350791669,
      "d": 106.90786979167024,
      "v": 40
    },
    {
      "midi": 60,
      "hit": false,
      "t": 301118.350791669,
      "d": 115.13155208335957,
      "v": 40
    },
    {
      "midi": 67,
      "hit": false,
      "t": 301143.021838544,
      "d": 74.01314062497113,
      "v": 40
    },
    {
      "midi": 60,
      "hit": false,
      "t": 301537.75858854403,
      "d": 106.90786979167024,
      "v": 40
    },
    {
      "midi": 64,
      "hit": false,
      "t": 301545.9822708357,
      "d": 82.23682291666046,
      "v": 40
    },
    {
      "midi": 67,
      "hit": false,
      "t": 301554.2059531274,
      "d": 74.01314062497113,
      "v": 40
    },
    {
      "midi": 60,
      "hit": false,
      "t": 301916.0479739607,
      "d": 98.68418750003912,
      "v": 40
    },
    {
      "midi": 64,
      "hit": false,
      "t": 301924.2716562524,
      "d": 82.23682291666046,
      "v": 40
    },
    {
      "midi": 67,
      "hit": false,
      "t": 301924.2716562524,
      "d": 90.46050520834979,
      "v": 40
    },
    {
      "midi": 64,
      "hit": false,
      "t": 302327.23208854406,
      "d": 90.46050520834979,
      "v": 40
    },
    {
      "midi": 60,
      "hit": false,
      "t": 302327.23208854406,
      "d": 98.68418750003912,
      "v": 40
    },
    {
      "midi": 67,
      "hit": false,
      "t": 302335.45577083575,
      "d": 74.01314062497113,
      "v": 40
    },
    {
      "midi": 79,
      "hit": false,
      "t": 302351.90313541587,
      "d": 550.9867135416134,
      "v": 73
    },
    {
      "midi": 48,
      "hit": false,
      "t": 302368.3504999999,
      "d": 361.84202083334094,
      "v": 69
    },
    {
      "midi": 64,
      "hit": false,
      "t": 302697.2977916691,
      "d": 98.68418749998091,
      "v": 40
    },
    {
      "midi": 60,
      "hit": false,
      "t": 302697.2977916691,
      "d": 115.13155208330136,
      "v": 40
    },
    {
      "midi": 67,
      "hit": false,
      "t": 302713.7451562524,
      "d": 82.23682291666046,
      "v": 40
    },
    {
      "midi": 62,
      "hit": false,
      "t": 303083.8108593774,
      "d": 123.3552343750489,
      "v": 40
    },
    {
      "midi": 59,
      "hit": false,
      "t": 303092.03454166907,
      "d": 115.13155208335957,
      "v": 40
    },
    {
      "midi": 67,
      "hit": false,
      "t": 303100.25822396076,
      "d": 98.68418749998091,
      "v": 40
    },
    {
      "midi": 47,
      "hit": false,
      "t": 303157.8239999999,
      "d": 2672.6967447916395,
      "v": 89
    },
    {
      "midi": 71,
      "hit": false,
      "t": 303166.0476822908,
      "d": 2310.8547239583568,
      "v": 73
    },
    {
      "midi": 47,
      "hit": false,
      "t": 303166.0476822908,
      "d": 2508.223098958377,
      "v": 38
    },
    {
      "midi": 74,
      "hit": false,
      "t": 303174.27136458247,
      "d": 2351.973135416687,
      "v": 85
    },
    {
      "midi": 67,
      "hit": false,
      "t": 303190.7187291658,
      "d": 2327.302088541677,
      "v": 48
    },
    {
      "midi": 62,
      "hit": false,
      "t": 303470.3239270858,
      "d": 115.13155208335957,
      "v": 40
    },
    {
      "midi": 67,
      "hit": false,
      "t": 303478.5476093775,
      "d": 98.68418749998091,
      "v": 40
    },
    {
      "midi": 59,
      "hit": false,
      "t": 303478.5476093775,
      "d": 106.90786979167024,
      "v": 40
    },
    {
      "midi": 62,
      "hit": false,
      "t": 303873.28435937746,
      "d": 106.90786979172844,
      "v": 40
    },
    {
      "midi": 59,
      "hit": false,
      "t": 303881.50804166915,
      "d": 98.68418750003912,
      "v": 40
    },
    {
      "midi": 67,
      "hit": false,
      "t": 303889.73172396084,
      "d": 98.68418750003912,
      "v": 40
    },
    {
      "midi": 62,
      "hit": false,
      "t": 304292.69215625257,
      "d": 106.90786979172844,
      "v": 40
    },
    {
      "midi": 67,
      "hit": false,
      "t": 304300.91583854426,
      "d": 98.68418750003912,
      "v": 40
    },
    {
      "midi": 59,
      "hit": false,
      "t": 304309.13952083595,
      "d": 82.23682291666046,
      "v": 40
    },
    {
      "midi": 62,
      "hit": false,
      "t": 304695.6525885443,
      "d": 106.90786979172844,
      "v": 40
    },
    {
      "midi": 67,
      "hit": false,
      "t": 304703.876270836,
      "d": 98.68418750003912,
      "v": 40
    },
    {
      "midi": 59,
      "hit": false,
      "t": 304712.0999531277,
      "d": 82.23682291666046,
      "v": 40
    },
    {
      "midi": 62,
      "hit": false,
      "t": 305098.613020836,
      "d": 106.90786979172844,
      "v": 40
    },
    {
      "midi": 67,
      "hit": false,
      "t": 305115.06038541935,
      "d": 82.23682291671867,
      "v": 40
    },
    {
      "midi": 59,
      "hit": false,
      "t": 305123.28406771104,
      "d": 65.78945833334001,
      "v": 40
    },
    {
      "midi": 67,
      "hit": false,
      "t": 305493.34977083607,
      "d": 115.13155208335957,
      "v": 40
    },
    {
      "midi": 62,
      "hit": false,
      "t": 305501.57345312776,
      "d": 98.68418749998091,
      "v": 40
    },
    {
      "midi": 79,
      "hit": false,
      "t": 305509.7971354158,
      "d": 139.80259895836934,
      "v": 85
    },
    {
      "midi": 59,
      "hit": false,
      "t": 305518.0208177111,
      "d": 74.01314062497113,
      "v": 40
    },
    {
      "midi": 62,
      "hit": false,
      "t": 305904.5338854194,
      "d": 90.46050520834979,
      "v": 40
    },
    {
      "midi": 59,
      "hit": false,
      "t": 305904.5338854194,
      "d": 98.68418750003912,
      "v": 40
    },
    {
      "midi": 67,
      "hit": false,
      "t": 305904.5338854194,
      "d": 115.13155208335957,
      "v": 40
    },
    {
      "midi": 60,
      "hit": false,
      "t": 306291.0469531278,
      "d": 98.68418749998091,
      "v": 40
    },
    {
      "midi": 57,
      "hit": false,
      "t": 306291.0469531278,
      "d": 106.90786979167024,
      "v": 40
    },
    {
      "midi": 45,
      "hit": false,
      "t": 306315.7179999999,
      "d": 1842.1048333333456,
      "v": 72
    },
    {
      "midi": 64,
      "hit": false,
      "t": 306323.9416822944,
      "d": 49.34209375001956,
      "v": 40
    },
    {
      "midi": 69,
      "hit": false,
      "t": 306356.8364114575,
      "d": 847.0392760417308,
      "v": 78
    },
    {
      "midi": 45,
      "hit": false,
      "t": 306356.8364114575,
      "d": 2960.5256250000675,
      "v": 44
    },
    {
      "midi": 72,
      "hit": false,
      "t": 306365.0600937492,
      "d": 748.3550885416917,
      "v": 88
    },
    {
      "midi": 60,
      "hit": false,
      "t": 306652.8889739611,
      "d": 106.90786979172844,
      "v": 40
    },
    {
      "midi": 57,
      "hit": false,
      "t": 306661.1126562528,
      "d": 90.46050520834979,
      "v": 40
    },
    {
      "midi": 64,
      "hit": false,
      "t": 306661.1126562528,
      "d": 90.46050520834979,
      "v": 40
    },
    {
      "midi": 69,
      "hit": false,
      "t": 306694.00738541945,
      "d": 49.34209375001956,
      "v": 40
    },
    {
      "midi": 57,
      "hit": false,
      "t": 307064.07308854454,
      "d": 98.68418749998091,
      "v": 40
    },
    {
      "midi": 60,
      "hit": false,
      "t": 307064.07308854454,
      "d": 106.90786979167024,
      "v": 40
    },
    {
      "midi": 64,
      "hit": false,
      "t": 307080.52045312786,
      "d": 90.46050520834979,
      "v": 40
    },
    {
      "midi": 69,
      "hit": false,
      "t": 307096.9678177112,
      "d": 57.56577604165068,
      "v": 40
    },
    {
      "midi": 60,
      "hit": false,
      "t": 307105.1914999992,
      "d": 789.4735000000219,
      "v": 60
    },
    {
      "midi": 57,
      "hit": false,
      "t": 307458.8098385445,
      "d": 90.46050520834979,
      "v": 40
    },
    {
      "midi": 60,
      "hit": false,
      "t": 307458.8098385445,
      "d": 98.68418750003912,
      "v": 40
    },
    {
      "midi": 64,
      "hit": false,
      "t": 307467.0335208362,
      "d": 82.23682291666046,
      "v": 40
    },
    {
      "midi": 69,
      "hit": false,
      "t": 307467.0335208362,
      "d": 82.23682291666046,
      "v": 40
    },
    {
      "midi": 60,
      "hit": false,
      "t": 307853.54658854456,
      "d": 90.46050520834979,
      "v": 40
    },
    {
      "midi": 57,
      "hit": false,
      "t": 307861.77027083625,
      "d": 82.23682291666046,
      "v": 40
    },
    {
      "midi": 64,
      "hit": false,
      "t": 307861.77027083625,
      "d": 82.23682291666046,
      "v": 40
    },
    {
      "midi": 69,
      "hit": false,
      "t": 307861.77027083625,
      "d": 82.23682291666046,
      "v": 40
    },
    {
      "midi": 69,
      "hit": false,
      "t": 307869.9939531242,
      "d": 748.3550885416917,
      "v": 99
    },
    {
      "midi": 64,
      "hit": false,
      "t": 307869.9939531242,
      "d": 781.2498177083326,
      "v": 78
    },
    {
      "midi": 57,
      "hit": false,
      "t": 308256.50702083623,
      "d": 98.68418750003912,
      "v": 40
    },
    {
      "midi": 60,
      "hit": false,
      "t": 308256.50702083623,
      "d": 98.68418750003912,
      "v": 40
    },
    {
      "midi": 69,
      "hit": false,
      "t": 308256.50702083623,
      "d": 98.68418750003912,
      "v": 40
    },
    {
      "midi": 64,
      "hit": false,
      "t": 308264.7307031279,
      "d": 90.46050520834979,
      "v": 40
    },
    {
      "midi": 60,
      "hit": false,
      "t": 308651.24377083255,
      "d": 263.15783333336003,
      "v": 73
    },
    {
      "midi": 60,
      "hit": false,
      "t": 308659.46745312796,
      "d": 90.46050520834979,
      "v": 40
    },
    {
      "midi": 69,
      "hit": false,
      "t": 308659.46745312796,
      "d": 90.46050520834979,
      "v": 40
    },
    {
      "midi": 57,
      "hit": false,
      "t": 308667.69113541965,
      "d": 74.01314062497113,
      "v": 40
    },
    {
      "midi": 64,
      "hit": false,
      "t": 308667.69113541965,
      "d": 82.23682291666046,
      "v": 40
    },
    {
      "midi": 45,
      "hit": false,
      "t": 308684.1384999999,
      "d": 394.73674999998184,
      "v": 66
    },
    {
      "midi": 57,
      "hit": false,
      "t": 309037.7568385446,
      "d": 82.23682291666046,
      "v": 40
    },
    {
      "midi": 60,
      "hit": false,
      "t": 309037.7568385446,
      "d": 123.35523437499069,
      "v": 40
    },
    {
      "midi": 64,
      "hit": false,
      "t": 309054.20420312794,
      "d": 74.01314062502934,
      "v": 40
    },
    {
      "midi": 70,
      "hit": false,
      "t": 309383.1514947909,
      "d": 2310.8547239583568,
      "v": 60
    },
    {
      "midi": 67,
      "hit": false,
      "t": 309416.0462239576,
      "d": 2121.710031249968,
      "v": 94
    },
    {
      "midi": 43,
      "hit": false,
      "t": 309432.49358854094,
      "d": 2516.446781250008,
      "v": 48
    },
    {
      "midi": 58,
      "hit": false,
      "t": 309440.7172708363,
      "d": 123.3552343750489,
      "v": 40
    },
    {
      "midi": 62,
      "hit": false,
      "t": 309448.94095312426,
      "d": 139.80259895831114,
      "v": 56
    },
    {
      "midi": 64,
      "hit": false,
      "t": 309448.94095312426,
      "d": 1587.170682291675,
      "v": 56
    },
    {
      "midi": 64,
      "hit": false,
      "t": 309448.940953128,
      "d": 106.90786979167024,
      "v": 40
    },
    {
      "midi": 43,
      "hit": false,
      "t": 309473.61199999985,
      "d": 2730.2625208333484,
      "v": 84
    },
    {
      "midi": 67,
      "hit": false,
      "t": 309473.612000003,
      "d": 82.23682291666046,
      "v": 40
    },
    {
      "midi": 58,
      "hit": false,
      "t": 309819.006656253,
      "d": 98.68418749998091,
      "v": 40
    },
    {
      "midi": 64,
      "hit": false,
      "t": 309819.006656253,
      "d": 115.13155208335957,
      "v": 40
    },
    {
      "midi": 67,
      "hit": false,
      "t": 309835.45402083633,
      "d": 90.46050520834979,
      "v": 40
    },
    {
      "midi": 58,
      "hit": false,
      "t": 310213.74340625305,
      "d": 90.46050520829158,
      "v": 40
    },
    {
      "midi": 64,
      "hit": false,
      "t": 310213.74340625305,
      "d": 106.90786979161203,
      "v": 40
    },
    {
      "midi": 67,
      "hit": false,
      "t": 310230.1907708364,
      "d": 74.01314062497113,
      "v": 40
    },
    {
      "midi": 58,
      "hit": false,
      "t": 310592.03279166966,
      "d": 106.90786979167024,
      "v": 40
    },
    {
      "midi": 64,
      "hit": false,
      "t": 310608.480156253,
      "d": 98.68418750003912,
      "v": 40
    },
    {
      "midi": 67,
      "hit": false,
      "t": 310616.70383854466,
      "d": 74.01314062497113,
      "v": 40
    },
    {
      "midi": 58,
      "hit": false,
      "t": 310986.7695416697,
      "d": 106.90786979167024,
      "v": 40
    },
    {
      "midi": 64,
      "hit": false,
      "t": 310994.9932239614,
      "d": 115.13155208330136,
      "v": 40
    },
    {
      "midi": 67,
      "hit": false,
      "t": 311011.4405885447,
      "d": 74.01314062497113,
      "v": 40
    },
    {
      "midi": 55,
      "hit": false,
      "t": 311027.88795312424,
      "d": 921.0524166667019,
      "v": 73
    },
    {
      "midi": 58,
      "hit": false,
      "t": 311365.05892708636,
      "d": 106.90786979167024,
      "v": 40
    },
    {
      "midi": 64,
      "hit": false,
      "t": 311373.28260937805,
      "d": 123.35523437499069,
      "v": 40
    },
    {
      "midi": 67,
      "hit": false,
      "t": 311389.72997396137,
      "d": 106.90786979167024,
      "v": 40
    },
    {
      "midi": 58,
      "hit": false,
      "t": 311759.7956770864,
      "d": 139.80259895836934,
      "v": 40
    },
    {
      "midi": 64,
      "hit": false,
      "t": 311776.2430416697,
      "d": 148.02628125005867,
      "v": 40
    },
    {
      "midi": 67,
      "hit": false,
      "t": 311784.4667239614,
      "d": 115.13155208335957,
      "v": 40
    },
    {
      "midi": 64,
      "hit": false,
      "t": 311842.0324999993,
      "d": 222.0394218750298,
      "v": 48
    },
    {
      "midi": 58,
      "hit": false,
      "t": 312146.30874479475,
      "d": 123.35523437493248,
      "v": 40
    },
    {
      "midi": 64,
      "hit": false,
      "t": 312162.75610937807,
      "d": 139.80259895831114,
      "v": 40
    },
    {
      "midi": 67,
      "hit": false,
      "t": 312195.6508385447,
      "d": 82.23682291666046,
      "v": 40
    },
    {
      "midi": 57,
      "hit": false,
      "t": 312557.492859378,
      "d": 123.3552343750489,
      "v": 40
    },
    {
      "midi": 65,
      "hit": false,
      "t": 312557.492859378,
      "d": 156.249963541748,
      "v": 40
    },
    {
      "midi": 60,
      "hit": false,
      "t": 312565.7165416697,
      "d": 139.80259895836934,
      "v": 40
    },
    {
      "midi": 69,
      "hit": false,
      "t": 312590.38758854097,
      "d": 1110.1971093750326,
      "v": 88
    },
    {
      "midi": 65,
      "hit": false,
      "t": 312590.38758854097,
      "d": 1200.6576145833824,
      "v": 104
    },
    {
      "midi": 41,
      "hit": false,
      "t": 312590.38758854097,
      "d": 2804.2756614583777,
      "v": 85
    },
    {
      "midi": 60,
      "hit": false,
      "t": 312598.61127083265,
      "d": 1274.6707552083535,
      "v": 52
    },
    {
      "midi": 41,
      "hit": false,
      "t": 312631.5059999999,
      "d": 2368.4205000000075,
      "v": 72
    },
    {
      "midi": 65,
      "hit": false,
      "t": 312952.2296093781,
      "d": 115.13155208335957,
      "v": 40
    },
    {
      "midi": 60,
      "hit": false,
      "t": 312952.2296093781,
      "d": 123.3552343750489,
      "v": 40
    },
    {
      "midi": 57,
      "hit": false,
      "t": 312968.6769739614,
      "d": 90.46050520834979,
      "v": 40
    },
    {
      "midi": 60,
      "hit": false,
      "t": 313363.41372396145,
      "d": 98.68418750003912,
      "v": 40
    },
    {
      "midi": 65,
      "hit": false,
      "t": 313371.63740625314,
      "d": 82.23682291666046,
      "v": 40
    },
    {
      "midi": 57,
      "hit": false,
      "t": 313388.08477083646,
      "d": 57.56577604165068,
      "v": 40
    },
    {
      "midi": 60,
      "hit": false,
      "t": 313749.9267916698,
      "d": 98.68418750003912,
      "v": 40
    },
    {
      "midi": 65,
      "hit": false,
      "t": 313758.1504739615,
      "d": 90.46050520834979,
      "v": 40
    },
    {
      "midi": 57,
      "hit": false,
      "t": 313774.5978385448,
      "d": 65.78945833334001,
      "v": 40
    },
    {
      "midi": 60,
      "hit": false,
      "t": 314161.11090625316,
      "d": 106.90786979161203,
      "v": 40
    },
    {
      "midi": 65,
      "hit": false,
      "t": 314161.11090625316,
      "d": 106.90786979161203,
      "v": 40
    },
    {
      "midi": 57,
      "hit": false,
      "t": 314177.5582708365,
      "d": 74.01314062497113,
      "v": 40
    },
    {
      "midi": 53,
      "hit": false,
      "t": 314226.90036458266,
      "d": 1414.4733541666646,
      "v": 60
    },
    {
      "midi": 60,
      "hit": false,
      "t": 314555.8476562531,
      "d": 123.35523437499069,
      "v": 40
    },
    {
      "midi": 65,
      "hit": false,
      "t": 314564.0713385448,
      "d": 106.90786979161203,
      "v": 40
    },
    {
      "midi": 57,
      "hit": false,
      "t": 314580.5187031281,
      "d": 74.01314062497113,
      "v": 40
    },
    {
      "midi": 60,
      "hit": false,
      "t": 314975.2554531281,
      "d": 98.68418750009732,
      "v": 40
    },
    {
      "midi": 57,
      "hit": false,
      "t": 314983.47913541977,
      "d": 74.01314062502934,
      "v": 40
    },
    {
      "midi": 65,
      "hit": false,
      "t": 314991.70281771146,
      "d": 74.01314062502934,
      "v": 40
    },
    {
      "midi": 41,
      "hit": false,
      "t": 314999.9264999999,
      "d": 263.15783333336003,
      "v": 77
    },
    {
      "midi": 60,
      "hit": false,
      "t": 315378.21588541986,
      "d": 123.35523437499069,
      "v": 40
    },
    {
      "midi": 65,
      "hit": false,
      "t": 315378.21588541986,
      "d": 139.80259895831114,
      "v": 40
    },
    {
      "midi": 57,
      "hit": false,
      "t": 315394.6632500032,
      "d": 82.23682291666046,
      "v": 40
    },
    {
      "midi": 67,
      "hit": false,
      "t": 315781.17631770764,
      "d": 2138.1573958334047,
      "v": 56
    },
    {
      "midi": 62,
      "hit": false,
      "t": 315781.17631771154,
      "d": 123.35523437493248,
      "v": 40
    },
    {
      "midi": 59,
      "hit": false,
      "t": 315789.3999999993,
      "d": 1143.0918385416735,
      "v": 78
    },
    {
      "midi": 62,
      "hit": false,
      "t": 315789.3999999993,
      "d": 1480.2628125000047,
      "v": 91
    },
    {
      "midi": 43,
      "hit": false,
      "t": 315789.3999999999,
      "d": 2574.0125572916586,
      "v": 84
    },
    {
      "midi": 43,
      "hit": false,
      "t": 315797.623682291,
      "d": 2499.9994166666875,
      "v": 69
    },
    {
      "midi": 59,
      "hit": false,
      "t": 315797.62368229486,
      "d": 90.46050520829158,
      "v": 40
    },
    {
      "midi": 67,
      "hit": false,
      "t": 315797.62368229486,
      "d": 106.90786979161203,
      "v": 40
    },
    {
      "midi": 62,
      "hit": false,
      "t": 316134.7946562531,
      "d": 139.80259895836934,
      "v": 40
    },
    {
      "midi": 67,
      "hit": false,
      "t": 316151.24202083645,
      "d": 115.13155208335957,
      "v": 40
    },
    {
      "midi": 59,
      "hit": false,
      "t": 316175.91306771146,
      "d": 82.23682291666046,
      "v": 40
    },
    {
      "midi": 62,
      "hit": false,
      "t": 316562.4261354198,
      "d": 115.13155208335957,
      "v": 40
    },
    {
      "midi": 67,
      "hit": false,
      "t": 316562.4261354198,
      "d": 123.3552343750489,
      "v": 40
    },
    {
      "midi": 59,
      "hit": false,
      "t": 316570.6498177115,
      "d": 98.68418749998091,
      "v": 40
    },
    {
      "midi": 62,
      "hit": false,
      "t": 316957.16288541985,
      "d": 123.3552343750489,
      "v": 40
    },
    {
      "midi": 59,
      "hit": false,
      "t": 316965.38656771154,
      "d": 106.90786979167024,
      "v": 40
    },
    {
      "midi": 67,
      "hit": false,
      "t": 316965.38656771154,
      "d": 115.13155208335957,
      "v": 40
    },
    {
      "midi": 62,
      "hit": false,
      "t": 317368.3470000032,
      "d": 115.13155208330136,
      "v": 40
    },
    {
      "midi": 67,
      "hit": false,
      "t": 317368.3470000032,
      "d": 123.35523437499069,
      "v": 40
    },
    {
      "midi": 55,
      "hit": false,
      "t": 317384.7943645827,
      "d": 764.8024531250121,
      "v": 78
    },
    {
      "midi": 59,
      "hit": false,
      "t": 317384.79436458653,
      "d": 98.68418749998091,
      "v": 40
    },
    {
      "midi": 62,
      "hit": false,
      "t": 317754.86006771156,
      "d": 123.35523437499069,
      "v": 40
    },
    {
      "midi": 67,
      "hit": false,
      "t": 317754.86006771156,
      "d": 123.35523437499069,
      "v": 40
    },
    {
      "midi": 59,
      "hit": false,
      "t": 317771.3074322949,
      "d": 90.46050520834979,
      "v": 40
    },
    {
      "midi": 60,
      "hit": false,
      "t": 318166.044182291,
      "d": 41.11841145833023,
      "v": 33
    },
    {
      "midi": 62,
      "hit": false,
      "t": 318166.04418229486,
      "d": 98.68418749998091,
      "v": 40
    },
    {
      "midi": 67,
      "hit": false,
      "t": 318166.04418229486,
      "d": 98.68418749998091,
      "v": 40
    },
    {
      "midi": 59,
      "hit": false,
      "t": 318166.04418229486,
      "d": 106.90786979167024,
      "v": 40
    },
    {
      "midi": 62,
      "hit": false,
      "t": 318527.8862031282,
      "d": 139.80259895842755,
      "v": 40
    },
    {
      "midi": 59,
      "hit": false,
      "t": 318536.1098854199,
      "d": 115.13155208335957,
      "v": 40
    },
    {
      "midi": 67,
      "hit": false,
      "t": 318536.1098854199,
      "d": 123.3552343750489,
      "v": 40
    },
    {
      "midi": 48,
      "hit": false,
      "t": 318914.3992708327,
      "d": 3092.1045416666893,
      "v": 69
    },
    {
      "midi": 76,
      "hit": false,
      "t": 318922.6229531244,
      "d": 1480.2628125000629,
      "v": 114
    },
    {
      "midi": 67,
      "hit": false,
      "t": 318922.6229531244,
      "d": 1620.065411458374,
      "v": 78
    },
    {
      "midi": 72,
      "hit": false,
      "t": 318930.8466354161,
      "d": 1356.907578125014,
      "v": 109
    },
    {
      "midi": 64,
      "hit": false,
      "t": 318930.84663541993,
      "d": 123.35523437499069,
      "v": 40
    },
    {
      "midi": 60,
      "hit": false,
      "t": 318930.84663541993,
      "d": 131.57891666668002,
      "v": 40
    },
    {
      "midi": 67,
      "hit": false,
      "t": 318939.0703177116,
      "d": 115.13155208330136,
      "v": 40
    },
    {
      "midi": 48,
      "hit": false,
      "t": 318947.2939999999,
      "d": 1907.8942916666856,
      "v": 79
    },
    {
      "midi": 64,
      "hit": false,
      "t": 319317.3597031283,
      "d": 106.90786979167024,
      "v": 40
    },
    {
      "midi": 60,
      "hit": false,
      "t": 319333.8070677116,
      "d": 98.68418750003912,
      "v": 40
    },
    {
      "midi": 67,
      "hit": false,
      "t": 319342.0307500033,
      "d": 65.78945833334001,
      "v": 40
    },
    {
      "midi": 60,
      "hit": false,
      "t": 319712.0964531283,
      "d": 115.13155208341777,
      "v": 40
    },
    {
      "midi": 64,
      "hit": false,
      "t": 319720.32013542,
      "d": 98.68418750003912,
      "v": 40
    },
    {
      "midi": 67,
      "hit": false,
      "t": 319728.5438177117,
      "d": 90.46050520834979,
      "v": 40
    },
    {
      "midi": 60,
      "hit": false,
      "t": 320106.8332031284,
      "d": 115.13155208341777,
      "v": 40
    },
    {
      "midi": 64,
      "hit": false,
      "t": 320115.0568854201,
      "d": 90.46050520834979,
      "v": 40
    },
    {
      "midi": 67,
      "hit": false,
      "t": 320123.2805677118,
      "d": 90.46050520834979,
      "v": 40
    },
    {
      "midi": 60,
      "hit": false,
      "t": 320501.5699531285,
      "d": 106.90786979167024,
      "v": 40
    },
    {
      "midi": 64,
      "hit": false,
      "t": 320518.01731771184,
      "d": 65.78945833334001,
      "v": 40
    },
    {
      "midi": 67,
      "hit": false,
      "t": 320518.01731771184,
      "d": 74.01314062502934,
      "v": 40
    },
    {
      "midi": 64,
      "hit": false,
      "t": 320896.3067031285,
      "d": 74.01314062502934,
      "v": 40
    },
    {
      "midi": 60,
      "hit": false,
      "t": 320896.3067031285,
      "d": 90.460505208408,
      "v": 40
    },
    {
      "midi": 67,
      "hit": false,
      "t": 320904.5303854202,
      "d": 74.01314062502934,
      "v": 40
    },
    {
      "midi": 79,
      "hit": false,
      "t": 321266.37240624946,
      "d": 435.85516145831207,
      "v": 78
    },
    {
      "midi": 60,
      "hit": false,
      "t": 321291.0434531286,
      "d": 106.90786979172844,
      "v": 40
    },
    {
      "midi": 64,
      "hit": false,
      "t": 321299.2671354203,
      "d": 82.23682291666046,
      "v": 40
    },
    {
      "midi": 67,
      "hit": false,
      "t": 321299.2671354203,
      "d": 90.46050520834979,
      "v": 40
    },
    {
      "midi": 48,
      "hit": false,
      "t": 321315.7144999999,
      "d": 353.6183385416516,
      "v": 72
    },
    {
      "midi": 60,
      "hit": false,
      "t": 321661.1091562537,
      "d": 123.3552343751071,
      "v": 40
    },
    {
      "midi": 67,
      "hit": false,
      "t": 321669.3328385454,
      "d": 106.90786979172844,
      "v": 40
    },
    {
      "midi": 64,
      "hit": false,
      "t": 321677.55652083707,
      "d": 90.46050520834979,
      "v": 40
    },
    {
      "midi": 47,
      "hit": false,
      "t": 322047.62222395773,
      "d": 3108.551906250068,
      "v": 48
    },
    {
      "midi": 62,
      "hit": false,
      "t": 322047.62222396216,
      "d": 115.13155208335957,
      "v": 40
    },
    {
      "midi": 59,
      "hit": false,
      "t": 322047.62222396216,
      "d": 123.3552343750489,
      "v": 40
    },
    {
      "midi": 74,
      "hit": false,
      "t": 322055.8459062494,
      "d": 1537.8285885417135,
      "v": 96
    },
    {
      "midi": 67,
      "hit": false,
      "t": 322055.8459062494,
      "d": 1587.170682291733,
      "v": 65
    },
    {
      "midi": 67,
      "hit": false,
      "t": 322055.84590625385,
      "d": 106.90786979167024,
      "v": 40
    },
    {
      "midi": 71,
      "hit": false,
      "t": 322064.0695885411,
      "d": 1472.0391302083735,
      "v": 99
    },
    {
      "midi": 47,
      "hit": false,
      "t": 322105.18799999985,
      "d": 1850.3285156249767,
      "v": 91
    },
    {
      "midi": 62,
      "hit": false,
      "t": 322425.9116093789,
      "d": 106.90786979172844,
      "v": 40
    },
    {
      "midi": 59,
      "hit": false,
      "t": 322434.13529167057,
      "d": 82.23682291666046,
      "v": 40
    },
    {
      "midi": 67,
      "hit": false,
      "t": 322442.35897396225,
      "d": 82.23682291666046,
      "v": 40
    },
    {
      "midi": 62,
      "hit": false,
      "t": 322828.8720416706,
      "d": 106.90786979172844,
      "v": 40
    },
    {
      "midi": 67,
      "hit": false,
      "t": 322837.0957239623,
      "d": 106.90786979172844,
      "v": 40
    },
    {
      "midi": 59,
      "hit": false,
      "t": 322845.319406254,
      "d": 90.46050520834979,
      "v": 40
    },
    {
      "midi": 62,
      "hit": false,
      "t": 323215.385109379,
      "d": 98.68418749998091,
      "v": 40
    },
    {
      "midi": 59,
      "hit": false,
      "t": 323231.83247396233,
      "d": 82.23682291666046,
      "v": 40
    },
    {
      "midi": 67,
      "hit": false,
      "t": 323231.83247396233,
      "d": 90.46050520834979,
      "v": 40
    },
    {
      "midi": 59,
      "hit": false,
      "t": 323618.3455416707,
      "d": 82.23682291671867,
      "v": 40
    },
    {
      "midi": 67,
      "hit": false,
      "t": 323618.3455416707,
      "d": 98.68418750003912,
      "v": 40
    },
    {
      "midi": 62,
      "hit": false,
      "t": 323626.5692239624,
      "d": 65.78945833334001,
      "v": 40
    },
    {
      "midi": 79,
      "hit": false,
      "t": 323700.5823645828,
      "d": 131.57891666668002,
      "v": 60
    },
    {
      "midi": 62,
      "hit": false,
      "t": 324021.3059739624,
      "d": 98.68418750003912,
      "v": 40
    },
    {
      "midi": 59,
      "hit": false,
      "t": 324029.5296562541,
      "d": 90.46050520834979,
      "v": 40
    },
    {
      "midi": 67,
      "hit": false,
      "t": 324029.5296562541,
      "d": 98.68418750003912,
      "v": 40
    },
    {
      "midi": 62,
      "hit": false,
      "t": 324432.49008854583,
      "d": 90.46050520834979,
      "v": 40
    },
    {
      "midi": 67,
      "hit": false,
      "t": 324432.49008854583,
      "d": 98.68418750003912,
      "v": 40
    },
    {
      "midi": 59,
      "hit": false,
      "t": 324440.7137708375,
      "d": 82.23682291666046,
      "v": 40
    },
    {
      "midi": 47,
      "hit": false,
      "t": 324473.6084999998,
      "d": 370.06570312497206,
      "v": 61
    },
    {
      "midi": 62,
      "hit": false,
      "t": 324802.55579167086,
      "d": 98.68418750003912,
      "v": 40
    },
    {
      "midi": 67,
      "hit": false,
      "t": 324810.77947396255,
      "d": 123.3552343750489,
      "v": 40
    },
    {
      "midi": 59,
      "hit": false,
      "t": 324819.00315625424,
      "d": 106.90786979167024,
      "v": 40
    },
    {
      "midi": 57,
      "hit": false,
      "t": 325205.5162239626,
      "d": 98.68418749998091,
      "v": 40
    },
    {
      "midi": 45,
      "hit": false,
      "t": 325238.41095312446,
      "d": 2516.446781250008,
      "v": 44
    },
    {
      "midi": 72,
      "hit": false,
      "t": 325238.41095312446,
      "d": 2713.815156250028,
      "v": 88
    },
    {
      "midi": 60,
      "hit": false,
      "t": 325238.41095312923,
      "d": 49.34209375001956,
      "v": 40
    },
    {
      "midi": 69,
      "hit": false,
      "t": 325246.63463541615,
      "d": 1356.9075781249558,
      "v": 94
    },
    {
      "midi": 45,
      "hit": false,
      "t": 325263.08199999976,
      "d": 1842.1048333333456,
      "v": 77
    },
    {
      "midi": 64,
      "hit": false,
      "t": 325271.30568229116,
      "d": 411.1841145833023,
      "v": 48
    },
    {
      "midi": 60,
      "hit": false,
      "t": 325550.91088021256,
      "d": 106.90786979172844,
      "v": 40
    },
    {
      "midi": 57,
      "hit": false,
      "t": 325559.13456250424,
      "d": 90.46050520834979,
      "v": 40
    },
    {
      "midi": 64,
      "hit": false,
      "t": 325559.13456250424,
      "d": 90.46050520834979,
      "v": 40
    },
    {
      "midi": 69,
      "hit": false,
      "t": 325583.80560937925,
      "d": 57.56577604165068,
      "v": 40
    },
    {
      "midi": 57,
      "hit": false,
      "t": 325986.7660416709,
      "d": 82.23682291666046,
      "v": 40
    },
    {
      "midi": 60,
      "hit": false,
      "t": 325986.7660416709,
      "d": 82.23682291666046,
      "v": 40
    },
    {
      "midi": 64,
      "hit": false,
      "t": 325986.7660416709,
      "d": 90.46050520834979,
      "v": 40
    },
    {
      "midi": 69,
      "hit": false,
      "t": 325986.7660416709,
      "d": 90.46050520834979,
      "v": 40
    },
    {
      "midi": 57,
      "hit": false,
      "t": 326373.2791093793,
      "d": 90.46050520834979,
      "v": 40
    },
    {
      "midi": 60,
      "hit": false,
      "t": 326373.2791093793,
      "d": 90.46050520834979,
      "v": 40
    },
    {
      "midi": 69,
      "hit": false,
      "t": 326381.50279167097,
      "d": 74.01314062497113,
      "v": 40
    },
    {
      "midi": 64,
      "hit": false,
      "t": 326381.50279167097,
      "d": 82.23682291666046,
      "v": 40
    },
    {
      "midi": 57,
      "hit": false,
      "t": 326768.0158593793,
      "d": 98.68418750009732,
      "v": 40
    },
    {
      "midi": 60,
      "hit": false,
      "t": 326776.239541671,
      "d": 82.23682291671867,
      "v": 40
    },
    {
      "midi": 69,
      "hit": false,
      "t": 326784.4632239627,
      "d": 74.01314062502934,
      "v": 40
    },
    {
      "midi": 57,
      "hit": false,
      "t": 326792.68690624944,
      "d": 953.9471458333428,
      "v": 69
    },
    {
      "midi": 64,
      "hit": false,
      "t": 326792.6869062544,
      "d": 65.78945833334001,
      "v": 40
    },
    {
      "midi": 57,
      "hit": false,
      "t": 327170.9762916711,
      "d": 106.90786979172844,
      "v": 40
    },
    {
      "midi": 69,
      "hit": false,
      "t": 327170.9762916711,
      "d": 115.13155208341777,
      "v": 40
    },
    {
      "midi": 60,
      "hit": false,
      "t": 327179.1999739628,
      "d": 90.46050520834979,
      "v": 40
    },
    {
      "midi": 64,
      "hit": false,
      "t": 327187.4236562545,
      "d": 90.46050520834979,
      "v": 40
    },
    {
      "midi": 69,
      "hit": false,
      "t": 327565.7130416712,
      "d": 106.90786979172844,
      "v": 40
    },
    {
      "midi": 57,
      "hit": false,
      "t": 327573.9367239629,
      "d": 98.68418750003912,
      "v": 40
    },
    {
      "midi": 60,
      "hit": false,
      "t": 327582.1604062546,
      "d": 90.46050520834979,
      "v": 40
    },
    {
      "midi": 64,
      "hit": false,
      "t": 327590.38408854627,
      "d": 74.01314062497113,
      "v": 40
    },
    {
      "midi": 64,
      "hit": false,
      "t": 327615.0551354161,
      "d": 526.3156666667201,
      "v": 56
    },
    {
      "midi": 45,
      "hit": false,
      "t": 327631.50249999977,
      "d": 304.27624479169026,
      "v": 69
    },
    {
      "midi": 57,
      "hit": false,
      "t": 327960.44979167124,
      "d": 123.3552343750489,
      "v": 40
    },
    {
      "midi": 69,
      "hit": false,
      "t": 327968.67347396293,
      "d": 74.01314062502934,
      "v": 40
    },
    {
      "midi": 64,
      "hit": false,
      "t": 327976.8971562546,
      "d": 90.46050520834979,
      "v": 40
    },
    {
      "midi": 60,
      "hit": false,
      "t": 327985.1208385463,
      "d": 74.01314062497113,
      "v": 40
    },
    {
      "midi": 70,
      "hit": false,
      "t": 328371.6339062495,
      "d": 1817.4337864583358,
      "v": 111
    },
    {
      "midi": 58,
      "hit": false,
      "t": 328371.6339062546,
      "d": 115.13155208330136,
      "v": 40
    },
    {
      "midi": 64,
      "hit": false,
      "t": 328371.6339062546,
      "d": 115.13155208330136,
      "v": 40
    },
    {
      "midi": 64,
      "hit": false,
      "t": 328388.0812708328,
      "d": 1644.7364583333256,
      "v": 65
    },
    {
      "midi": 67,
      "hit": false,
      "t": 328396.3049531245,
      "d": 1751.6443281249958,
      "v": 102
    },
    {
      "midi": 43,
      "hit": false,
      "t": 328396.3049531245,
      "d": 2499.9994166666875,
      "v": 85
    },
    {
      "midi": 67,
      "hit": false,
      "t": 328404.52863542124,
      "d": 90.46050520834979,
      "v": 40
    },
    {
      "midi": 43,
      "hit": false,
      "t": 328420.9759999998,
      "d": 1924.341656250006,
      "v": 79
    },
    {
      "midi": 58,
      "hit": false,
      "t": 328749.92329167126,
      "d": 106.90786979172844,
      "v": 40
    },
    {
      "midi": 67,
      "hit": false,
      "t": 328758.14697396295,
      "d": 98.68418750003912,
      "v": 40
    },
    {
      "midi": 64,
      "hit": false,
      "t": 328766.37065625464,
      "d": 98.68418750003912,
      "v": 40
    },
    {
      "midi": 58,
      "hit": false,
      "t": 329144.66004167136,
      "d": 98.68418750003912,
      "v": 40
    },
    {
      "midi": 64,
      "hit": false,
      "t": 329152.88372396305,
      "d": 106.90786979167024,
      "v": 40
    },
    {
      "midi": 67,
      "hit": false,
      "t": 329161.10740625474,
      "d": 82.23682291666046,
      "v": 40
    },
    {
      "midi": 58,
      "hit": false,
      "t": 329522.9494270881,
      "d": 98.68418749998091,
      "v": 40
    },
    {
      "midi": 64,
      "hit": false,
      "t": 329539.3967916714,
      "d": 98.68418749998091,
      "v": 40
    },
    {
      "midi": 67,
      "hit": false,
      "t": 329547.6204739631,
      "d": 74.01314062497113,
      "v": 40
    },
    {
      "midi": 58,
      "hit": false,
      "t": 329925.9098593797,
      "d": 106.90786979172844,
      "v": 40
    },
    {
      "midi": 64,
      "hit": false,
      "t": 329934.1335416714,
      "d": 106.90786979172844,
      "v": 40
    },
    {
      "midi": 67,
      "hit": false,
      "t": 329942.3572239631,
      "d": 90.46050520834979,
      "v": 40
    },
    {
      "midi": 55,
      "hit": false,
      "t": 329967.0282708328,
      "d": 921.0524166667019,
      "v": 65
    },
    {
      "midi": 58,
      "hit": false,
      "t": 330320.6466093798,
      "d": 106.90786979167024,
      "v": 40
    },
    {
      "midi": 64,
      "hit": false,
      "t": 330337.0939739631,
      "d": 98.68418750003912,
      "v": 40
    },
    {
      "midi": 67,
      "hit": false,
      "t": 330345.3176562548,
      "d": 90.46050520834979,
      "v": 40
    },
    {
      "midi": 58,
      "hit": false,
      "t": 330723.60704167146,
      "d": 106.90786979167024,
      "v": 40
    },
    {
      "midi": 64,
      "hit": false,
      "t": 330740.0544062548,
      "d": 106.90786979172844,
      "v": 40
    },
    {
      "midi": 67,
      "hit": false,
      "t": 330748.2780885465,
      "d": 90.46050520834979,
      "v": 40
    },
    {
      "midi": 64,
      "hit": false,
      "t": 330781.1728177078,
      "d": 189.1446927083307,
      "v": 65
    },
    {
      "midi": 43,
      "hit": false,
      "t": 330789.3964999998,
      "d": 337.17097395833116,
      "v": 69
    },
    {
      "midi": 58,
      "hit": false,
      "t": 331118.3437916715,
      "d": 106.90786979167024,
      "v": 40
    },
    {
      "midi": 64,
      "hit": false,
      "t": 331126.5674739632,
      "d": 156.2499635416316,
      "v": 40
    },
    {
      "midi": 67,
      "hit": false,
      "t": 331126.5674739632,
      "d": 189.1446927082725,
      "v": 40
    },
    {
      "midi": 60,
      "hit": false,
      "t": 331504.8568593798,
      "d": 148.02628125005867,
      "v": 40
    },
    {
      "midi": 57,
      "hit": false,
      "t": 331521.3042239631,
      "d": 123.3552343750489,
      "v": 40
    },
    {
      "midi": 65,
      "hit": false,
      "t": 331529.5279062548,
      "d": 156.2499635416898,
      "v": 40
    },
    {
      "midi": 69,
      "hit": false,
      "t": 331578.8699999995,
      "d": 2162.8284427083563,
      "v": 85
    },
    {
      "midi": 41,
      "hit": false,
      "t": 331578.8699999998,
      "d": 2368.4205000000075,
      "v": 66
    },
    {
      "midi": 65,
      "hit": false,
      "t": 331587.09368229116,
      "d": 2105.2626666666474,
      "v": 104
    },
    {
      "midi": 60,
      "hit": false,
      "t": 331587.09368229116,
      "d": 2162.8284427083563,
      "v": 69
    },
    {
      "midi": 41,
      "hit": false,
      "t": 331595.31736458285,
      "d": 5682.56446354161,
      "v": 73
    },
    {
      "midi": 65,
      "hit": false,
      "t": 331891.36992708815,
      "d": 139.80259895831114,
      "v": 40
    },
    {
      "midi": 60,
      "hit": false,
      "t": 331907.81729167147,
      "d": 98.68418749998091,
      "v": 40
    },
    {
      "midi": 57,
      "hit": false,
      "t": 331924.2646562548,
      "d": 74.01314062497113,
      "v": 40
    },
    {
      "midi": 65,
      "hit": false,
      "t": 332319.00140625477,
      "d": 106.90786979167024,
      "v": 40
    },
    {
      "midi": 57,
      "hit": false,
      "t": 332327.22508854646,
      "d": 82.23682291666046,
      "v": 40
    },
    {
      "midi": 60,
      "hit": false,
      "t": 332327.22508854646,
      "d": 82.23682291666046,
      "v": 40
    },
    {
      "midi": 60,
      "hit": false,
      "t": 332697.29079167143,
      "d": 106.90786979172844,
      "v": 40
    },
    {
      "midi": 65,
      "hit": false,
      "t": 332697.29079167143,
      "d": 115.13155208341777,
      "v": 40
    },
    {
      "midi": 57,
      "hit": false,
      "t": 332705.5144739631,
      "d": 90.46050520834979,
      "v": 40
    },
    {
      "midi": 65,
      "hit": false,
      "t": 333092.02754167153,
      "d": 115.13155208335957,
      "v": 40
    },
    {
      "midi": 60,
      "hit": false,
      "t": 333100.2512239632,
      "d": 90.46050520834979,
      "v": 40
    },
    {
      "midi": 57,
      "hit": false,
      "t": 333108.4749062549,
      "d": 74.01314062497113,
      "v": 40
    },
    {
      "midi": 53,
      "hit": false,
      "t": 333174.26436458284,
      "d": 3552.630750000011,
      "v": 65
    },
    {
      "midi": 60,
      "hit": false,
      "t": 333470.31692708825,
      "d": 98.68418750003912,
      "v": 40
    },
    {
      "midi": 57,
      "hit": false,
      "t": 333478.54060937994,
      "d": 82.23682291666046,
      "v": 40
    },
    {
      "midi": 65,
      "hit": false,
      "t": 333478.54060937994,
      "d": 98.68418750003912,
      "v": 40
    },
    {
      "midi": 57,
      "hit": false,
      "t": 333881.50104167167,
      "d": 90.46050520834979,
      "v": 40
    },
    {
      "midi": 60,
      "hit": false,
      "t": 333881.50104167167,
      "d": 98.68418750003912,
      "v": 40
    },
    {
      "midi": 65,
      "hit": false,
      "t": 333881.50104167167,
      "d": 106.90786979172844,
      "v": 40
    },
    {
      "midi": 41,
      "hit": false,
      "t": 333947.2904999998,
      "d": 230.26310416666092,
      "v": 66
    },
    {
      "midi": 65,
      "hit": false,
      "t": 334292.6851562551,
      "d": 115.13155208335957,
      "v": 40
    },
    {
      "midi": 60,
      "hit": false,
      "t": 334300.9088385468,
      "d": 90.46050520834979,
      "v": 40
    },
    {
      "midi": 57,
      "hit": false,
      "t": 334309.13252083847,
      "d": 74.01314062497113,
      "v": 40
    },
    {
      "midi": 65,
      "hit": false,
      "t": 334695.64558854676,
      "d": 115.13155208335957,
      "v": 40
    },
    {
      "midi": 57,
      "hit": false,
      "t": 334703.86927083845,
      "d": 90.46050520829158,
      "v": 40
    },
    {
      "midi": 60,
      "hit": false,
      "t": 334703.86927083845,
      "d": 98.68418749998091,
      "v": 40
    },
    {
      "midi": 41,
      "hit": false,
      "t": 334736.76399999985,
      "d": 3157.893999999971,
      "v": 64
    },
    {
      "midi": 69,
      "hit": false,
      "t": 334744.9876822912,
      "d": 1776.3153750000056,
      "v": 56
    },
    {
      "midi": 60,
      "hit": false,
      "t": 334753.2113645829,
      "d": 1003.2892395833624,
      "v": 48
    },
    {
      "midi": 65,
      "hit": false,
      "t": 334761.43504687457,
      "d": 1726.973281249986,
      "v": 78
    },
    {
      "midi": 65,
      "hit": false,
      "t": 335057.4876093801,
      "d": 115.13155208341777,
      "v": 40
    },
    {
      "midi": 60,
      "hit": false,
      "t": 335065.7112916718,
      "d": 98.68418750003912,
      "v": 40
    },
    {
      "midi": 57,
      "hit": false,
      "t": 335073.9349739635,
      "d": 82.23682291666046,
      "v": 40
    },
    {
      "midi": 65,
      "hit": false,
      "t": 335444.0006770885,
      "d": 123.3552343750489,
      "v": 40
    },
    {
      "midi": 57,
      "hit": false,
      "t": 335452.2243593802,
      "d": 98.68418749998091,
      "v": 40
    },
    {
      "midi": 60,
      "hit": false,
      "t": 335452.2243593802,
      "d": 106.90786979167024,
      "v": 40
    },
    {
      "midi": 65,
      "hit": false,
      "t": 335863.40847396356,
      "d": 106.90786979172844,
      "v": 40
    },
    {
      "midi": 57,
      "hit": false,
      "t": 335871.63215625525,
      "d": 82.23682291666046,
      "v": 40
    },
    {
      "midi": 60,
      "hit": false,
      "t": 335871.63215625525,
      "d": 90.46050520834979,
      "v": 40
    },
    {
      "midi": 60,
      "hit": false,
      "t": 336291.0399531303,
      "d": 98.68418750003912,
      "v": 40
    },
    {
      "midi": 65,
      "hit": false,
      "t": 336291.0399531303,
      "d": 98.68418750003912,
      "v": 40
    },
    {
      "midi": 57,
      "hit": false,
      "t": 336299.263635422,
      "d": 82.23682291666046,
      "v": 40
    },
    {
      "midi": 60,
      "hit": false,
      "t": 336652.8819739579,
      "d": 148.02628124994226,
      "v": 33
    },
    {
      "midi": 60,
      "hit": false,
      "t": 336685.77670313034,
      "d": 98.68418750003912,
      "v": 40
    },
    {
      "midi": 65,
      "hit": false,
      "t": 336702.22406771366,
      "d": 74.01314062502934,
      "v": 40
    },
    {
      "midi": 57,
      "hit": false,
      "t": 336710.44775000535,
      "d": 57.56577604165068,
      "v": 40
    },
    {
      "midi": 60,
      "hit": false,
      "t": 337072.2897708387,
      "d": 98.68418750003912,
      "v": 40
    },
    {
      "midi": 57,
      "hit": false,
      "t": 337080.5134531304,
      "d": 82.23682291666046,
      "v": 40
    },
    {
      "midi": 65,
      "hit": false,
      "t": 337080.5134531304,
      "d": 98.68418750003912,
      "v": 40
    },
    {
      "midi": 60,
      "hit": false,
      "t": 337475.2502031304,
      "d": 123.35523437499069,
      "v": 40
    },
    {
      "midi": 65,
      "hit": false,
      "t": 337475.2502031304,
      "d": 156.2499635416316,
      "v": 40
    },
    {
      "midi": 57,
      "hit": false,
      "t": 337491.69756771374,
      "d": 98.68418749998091,
      "v": 40
    },
    {
      "midi": 76,
      "hit": false,
      "t": 337820.6448593745,
      "d": 2277.9599947916577,
      "v": 50
    },
    {
      "midi": 72,
      "hit": false,
      "t": 337828.8685416662,
      "d": 2269.7363124999683,
      "v": 50
    },
    {
      "midi": 55,
      "hit": false,
      "t": 337828.8685416662,
      "d": 5493.419770833338,
      "v": 50
    },
    {
      "midi": 55,
      "hit": false,
      "t": 337845.31590624945,
      "d": 1299.3418020833633,
      "v": 81
    },
    {
      "midi": 64,
      "hit": false,
      "t": 337845.31590624945,
      "d": 1685.8548697916558,
      "v": 88
    },
    {
      "midi": 67,
      "hit": false,
      "t": 337845.3159062495,
      "d": 5468.748723958328,
      "v": 50
    },
    {
      "midi": 60,
      "hit": false,
      "t": 337853.53958854114,
      "d": 1587.170682291675,
      "v": 91
    },
    {
      "midi": 43,
      "hit": false,
      "t": 337869.98695312446,
      "d": 5526.31449999992,
      "v": 60
    },
    {
      "midi": 64,
      "hit": false,
      "t": 337869.9869531304,
      "d": 156.2499635416898,
      "v": 40
    },
    {
      "midi": 43,
      "hit": false,
      "t": 337894.6579999998,
      "d": 2368.4205000000075,
      "v": 77
    },
    {
      "midi": 55,
      "hit": false,
      "t": 339457.15763541614,
      "d": 1324.0128489582567,
      "v": 69
    },
    {
      "midi": 60,
      "hit": false,
      "t": 340263.0784999994,
      "d": 657.8945833332837,
      "v": 65
    },
    {
      "midi": 64,
      "hit": false,
      "t": 340263.0784999994,
      "d": 657.8945833332837,
      "v": 69
    },
    {
      "midi": 43,
      "hit": false,
      "t": 340263.0784999998,
      "d": 197.36837500002002,
      "v": 89
    },
    {
      "midi": 72,
      "hit": false,
      "t": 340986.76254166616,
      "d": 2220.394218750007,
      "v": 50
    },
    {
      "midi": 77,
      "hit": false,
      "t": 340994.98622395785,
      "d": 2212.1705364583177,
      "v": 50
    },
    {
      "midi": 65,
      "hit": false,
      "t": 341036.104635416,
      "d": 2236.8415833333274,
      "v": 94
    },
    {
      "midi": 60,
      "hit": false,
      "t": 341036.104635416,
      "d": 2351.973135416687,
      "v": 85
    },
    {
      "midi": 57,
      "hit": false,
      "t": 341052.5519999993,
      "d": 2080.591619791696,
      "v": 69
    },
    {
      "midi": 43,
      "hit": false,
      "t": 341052.55199999985,
      "d": 3157.893999999971,
      "v": 72
    },
    {
      "midi": 69,
      "hit": false,
      "t": 341340.3808802078,
      "d": 1866.7758802083554,
      "v": 50
    },
    {
      "midi": 55,
      "hit": false,
      "t": 342631.49899999937,
      "d": 707.2366770833032,
      "v": 65
    },
    {
      "midi": 74,
      "hit": false,
      "t": 344021.3013072912,
      "d": 2097.0389843750745,
      "v": 50
    },
    {
      "midi": 79,
      "hit": false,
      "t": 344029.5249895829,
      "d": 2195.7231718750554,
      "v": 50
    },
    {
      "midi": 67,
      "hit": false,
      "t": 344029.5249895829,
      "d": 5649.669734374969,
      "v": 50
    },
    {
      "midi": 71,
      "hit": false,
      "t": 344037.7486718746,
      "d": 2129.9337135417154,
      "v": 50
    },
    {
      "midi": 55,
      "hit": false,
      "t": 344037.7486718746,
      "d": 5567.432911458309,
      "v": 50
    },
    {
      "midi": 67,
      "hit": false,
      "t": 344144.656541666,
      "d": 3092.1045416666893,
      "v": 85
    },
    {
      "midi": 62,
      "hit": false,
      "t": 344152.8802239577,
      "d": 2606.9072864583577,
      "v": 73
    },
    {
      "midi": 59,
      "hit": false,
      "t": 344152.8802239577,
      "d": 2705.5914739583386,
      "v": 73
    },
    {
      "midi": 43,
      "hit": false,
      "t": 344161.1039062494,
      "d": 4449.012119791703,
      "v": 69
    },
    {
      "midi": 43,
      "hit": false,
      "t": 344210.4459999998,
      "d": 2368.4205000000075,
      "v": 93
    },
    {
      "midi": 55,
      "hit": false,
      "t": 345756.4982708327,
      "d": 3947.367500000051,
      "v": 56
    },
    {
      "midi": 43,
      "hit": false,
      "t": 346578.8664999998,
      "d": 205.59205729165114,
      "v": 89
    },
    {
      "midi": 72,
      "hit": false,
      "t": 347162.7479427079,
      "d": 2384.867864583328,
      "v": 50
    },
    {
      "midi": 77,
      "hit": false,
      "t": 347162.7479427079,
      "d": 2549.3415104165906,
      "v": 50
    },
    {
      "midi": 69,
      "hit": false,
      "t": 347170.9716249996,
      "d": 2491.77573437494,
      "v": 50
    },
    {
      "midi": 43,
      "hit": false,
      "t": 347368.3399999998,
      "d": 3157.893999999971,
      "v": 74
    },
    {
      "midi": 57,
      "hit": false,
      "t": 347393.0110468744,
      "d": 2532.8941458333866,
      "v": 73
    },
    {
      "midi": 65,
      "hit": false,
      "t": 347393.0110468744,
      "d": 2713.815156250028,
      "v": 88
    },
    {
      "midi": 60,
      "hit": false,
      "t": 347401.2347291661,
      "d": 2524.6704635416972,
      "v": 94
    },
    {
      "midi": 43,
      "hit": false,
      "t": 349712.08945312444,
      "d": 156.2499635416898,
      "v": 65
    },
    {
      "midi": 72,
      "hit": false,
      "t": 350328.8656249995,
      "d": 1899.6706093750545,
      "v": 50
    },
    {
      "midi": 76,
      "hit": false,
      "t": 350328.8656249995,
      "d": 1916.117973958375,
      "v": 50
    },
    {
      "midi": 67,
      "hit": false,
      "t": 350328.8656249995,
      "d": 5542.761864583357,
      "v": 50
    },
    {
      "midi": 55,
      "hit": false,
      "t": 350337.0893072912,
      "d": 5501.643453125027,
      "v": 50
    },
    {
      "midi": 55,
      "hit": false,
      "t": 350526.2339999994,
      "d": 1365.131260416645,
      "v": 78
    },
    {
      "midi": 60,
      "hit": false,
      "t": 350526.2339999994,
      "d": 2598.6836041666684,
      "v": 107
    },
    {
      "midi": 64,
      "hit": false,
      "t": 350526.2339999994,
      "d": 3026.3150833333493,
      "v": 104
    },
    {
      "midi": 43,
      "hit": false,
      "t": 350526.2339999994,
      "d": 5657.893416666775,
      "v": 94
    },
    {
      "midi": 43,
      "hit": false,
      "t": 350526.23399999976,
      "d": 1776.3153750000056,
      "v": 81
    },
    {
      "midi": 55,
      "hit": false,
      "t": 352195.64150520775,
      "d": 2154.604760416725,
      "v": 94
    },
    {
      "midi": 43,
      "hit": false,
      "t": 352894.6544999998,
      "d": 197.36837500002002,
      "v": 66
    },
    {
      "midi": 72,
      "hit": false,
      "t": 353560.7727656245,
      "d": 2129.9337135417154,
      "v": 50
    },
    {
      "midi": 77,
      "hit": false,
      "t": 353560.7727656245,
      "d": 2187.499489583366,
      "v": 50
    },
    {
      "midi": 69,
      "hit": false,
      "t": 353568.9964479162,
      "d": 2055.920572916686,
      "v": 50
    },
    {
      "midi": 65,
      "hit": false,
      "t": 353659.45695312443,
      "d": 2606.907286458416,
      "v": 88
    },
    {
      "midi": 60,
      "hit": false,
      "t": 353667.6806354161,
      "d": 2253.288947916706,
      "v": 81
    },
    {
      "midi": 57,
      "hit": false,
      "t": 353675.9043177078,
      "d": 2417.762593750027,
      "v": 73
    },
    {
      "midi": 43,
      "hit": false,
      "t": 353684.1279999998,
      "d": 3157.893999999971,
      "v": 79
    },
    {
      "midi": 55,
      "hit": false,
      "t": 355238.4039531245,
      "d": 879.9340052083717,
      "v": 69
    },
    {
      "midi": 74,
      "hit": false,
      "t": 356751.5614947912,
      "d": 2368.4205000000657,
      "v": 50
    },
    {
      "midi": 79,
      "hit": false,
      "t": 356759.7851770829,
      "d": 2368.4205000000657,
      "v": 50
    },
    {
      "midi": 71,
      "hit": false,
      "t": 356759.7851770829,
      "d": 2393.0915468750754,
      "v": 50
    },
    {
      "midi": 67,
      "hit": false,
      "t": 356768.00885937456,
      "d": 2475.328369791736,
      "v": 50
    },
    {
      "midi": 55,
      "hit": false,
      "t": 356768.00885937456,
      "d": 2491.7757343750563,
      "v": 50
    },
    {
      "midi": 67,
      "hit": false,
      "t": 356842.02199999953,
      "d": 2055.9205729167443,
      "v": 91
    },
    {
      "midi": 43,
      "hit": false,
      "t": 356842.02199999976,
      "d": 1998.3547968749772,
      "v": 74
    },
    {
      "midi": 59,
      "hit": false,
      "t": 356850.2456822912,
      "d": 1932.5653385416954,
      "v": 69
    },
    {
      "midi": 62,
      "hit": false,
      "t": 356850.2456822912,
      "d": 2047.696890625055,
      "v": 94
    },
    {
      "midi": 43,
      "hit": false,
      "t": 356866.69304687454,
      "d": 5649.669734375086,
      "v": 60
    },
    {
      "midi": 55,
      "hit": false,
      "t": 358445.6400468746,
      "d": 2138.1573958333465,
      "v": 85
    },
    {
      "midi": 43,
      "hit": false,
      "t": 359210.4424999997,
      "d": 263.15783333336003,
      "v": 74
    },
    {
      "midi": 72,
      "hit": false,
      "t": 359843.66603645793,
      "d": 962.1708281249739,
      "v": 50
    },
    {
      "midi": 77,
      "hit": false,
      "t": 359843.66603645793,
      "d": 995.0655572916148,
      "v": 50
    },
    {
      "midi": 69,
      "hit": false,
      "t": 359851.8897187496,
      "d": 1069.078697916586,
      "v": 50
    },
    {
      "midi": 55,
      "hit": false,
      "t": 359851.8897187496,
      "d": 1110.1971093749162,
      "v": 50
    },
    {
      "midi": 67,
      "hit": false,
      "t": 359851.8897187496,
      "d": 1110.1971093749162,
      "v": 50
    },
    {
      "midi": 65,
      "hit": false,
      "t": 359934.1265416663,
      "d": 1085.5260625000228,
      "v": 99
    },
    {
      "midi": 60,
      "hit": false,
      "t": 359950.5739062496,
      "d": 682.5656302083516,
      "v": 88
    },
    {
      "midi": 57,
      "hit": false,
      "t": 359958.7975885413,
      "d": 723.6840416666819,
      "v": 73
    },
    {
      "midi": 41,
      "hit": false,
      "t": 360394.6527499997,
      "d": 254.9341510416707,
      "v": 89
    },
    {
      "midi": 41,
      "hit": false,
      "t": 360789.3894999997,
      "d": 789.4735000000219,
      "v": 32
    },
    {
      "midi": 55,
      "hit": false,
      "t": 361093.6657447913,
      "d": 592.1051250001183,
      "v": 85
    },
    {
      "midi": 67,
      "hit": false,
      "t": 361101.88942708296,
      "d": 1496.710177083325,
      "v": 91
    },
    {
      "midi": 59,
      "hit": false,
      "t": 361118.33679166634,
      "d": 1027.9602864583721,
      "v": 69
    },
    {
      "midi": 62,
      "hit": false,
      "t": 361118.33679166634,
      "d": 1266.4470729166642,
      "v": 78
    },
    {
      "midi": 71,
      "hit": false,
      "t": 361397.9419895829,
      "d": 1027.9602864583721,
      "v": 50
    },
    {
      "midi": 74,
      "hit": false,
      "t": 361406.1656718746,
      "d": 1052.6313333333237,
      "v": 50
    },
    {
      "midi": 79,
      "hit": false,
      "t": 361406.1656718746,
      "d": 1052.6313333333237,
      "v": 50
    },
    {
      "midi": 67,
      "hit": false,
      "t": 361414.3893541663,
      "d": 995.065557291673,
      "v": 50
    },
    {
      "midi": 55,
      "hit": false,
      "t": 361414.3893541663,
      "d": 1027.960286458314,
      "v": 50
    },
    {
      "midi": 43,
      "hit": false,
      "t": 361578.8629999997,
      "d": 394.73674999998184,
      "v": 32
    },
    {
      "midi": 43,
      "hit": false,
      "t": 361973.5997499997,
      "d": 394.73674999998184,
      "v": 32
    },
    {
      "midi": 55,
      "hit": false,
      "t": 362368.3364999997,
      "d": 180.92101041658316,
      "v": 88
    },
    {
      "midi": 43,
      "hit": false,
      "t": 362368.3364999997,
      "d": 526.3156666666619,
      "v": 74
    },
    {
      "midi": 59,
      "hit": false,
      "t": 362417.67859374965,
      "d": 197.36837499996182,
      "v": 69
    },
    {
      "midi": 76,
      "hit": false,
      "t": 362935.77057812456,
      "d": 1307.5654843750526,
      "v": 50
    },
    {
      "midi": 72,
      "hit": false,
      "t": 362943.99426041625,
      "d": 1093.7497447917121,
      "v": 50
    },
    {
      "midi": 79,
      "hit": false,
      "t": 362943.99426041625,
      "d": 3083.880859375058,
      "v": 50
    },
    {
      "midi": 60,
      "hit": false,
      "t": 362952.21794270794,
      "d": 1496.710177083325,
      "v": 50
    },
    {
      "midi": 67,
      "hit": false,
      "t": 363133.1389531246,
      "d": 1439.1444010417326,
      "v": 78
    },
    {
      "midi": 64,
      "hit": false,
      "t": 363141.36263541627,
      "d": 1093.7497447917121,
      "v": 94
    },
    {
      "midi": 60,
      "hit": false,
      "t": 363149.58631770796,
      "d": 1085.5260625000228,
      "v": 65
    },
    {
      "midi": 48,
      "hit": false,
      "t": 363149.58631770796,
      "d": 1266.4470729166642,
      "v": 56
    },
    {
      "midi": 48,
      "hit": false,
      "t": 363157.8099999997,
      "d": 1578.9469999999856,
      "v": 84
    },
    {
      "midi": 59,
      "hit": false,
      "t": 364457.15180208295,
      "d": 1702.3022343750345,
      "v": 50
    },
    {
      "midi": 74,
      "hit": false,
      "t": 364465.37548437464,
      "d": 1052.6313333333237,
      "v": 50
    },
    {
      "midi": 71,
      "hit": false,
      "t": 364465.37548437464,
      "d": 1217.1049791666446,
      "v": 50
    },
    {
      "midi": 67,
      "hit": false,
      "t": 364703.862270833,
      "d": 937.4997812500806,
      "v": 56
    },
    {
      "midi": 62,
      "hit": false,
      "t": 364712.0859531247,
      "d": 756.578770833381,
      "v": 88
    },
    {
      "midi": 59,
      "hit": false,
      "t": 364720.3096354164,
      "d": 1011.5129218750517,
      "v": 65
    },
    {
      "midi": 47,
      "hit": false,
      "t": 364720.3096354164,
      "d": 1603.6180468750536,
      "v": 56
    },
    {
      "midi": 47,
      "hit": false,
      "t": 364736.7569999997,
      "d": 1192.433932291693,
      "v": 93
    },
    {
      "midi": 69,
      "hit": false,
      "t": 366167.6777187497,
      "d": 2828.9467083333293,
      "v": 50
    },
    {
      "midi": 57,
      "hit": false,
      "t": 366167.6777187497,
      "d": 3108.55190625001,
      "v": 50
    },
    {
      "midi": 72,
      "hit": false,
      "t": 366167.6777187497,
      "d": 3149.67031770834,
      "v": 50
    },
    {
      "midi": 76,
      "hit": false,
      "t": 366167.6777187497,
      "d": 6324.01168229169,
      "v": 50
    },
    {
      "midi": 57,
      "hit": false,
      "t": 366299.2566354164,
      "d": 1101.9734270833433,
      "v": 48
    },
    {
      "midi": 60,
      "hit": false,
      "t": 366299.2566354164,
      "d": 1620.0654114583158,
      "v": 85
    },
    {
      "midi": 64,
      "hit": false,
      "t": 366299.2566354164,
      "d": 3034.5387656249222,
      "v": 78
    },
    {
      "midi": 45,
      "hit": false,
      "t": 366315.70399999974,
      "d": 2368.4205000000075,
      "v": 84
    },
    {
      "midi": 45,
      "hit": false,
      "t": 366340.37504687475,
      "d": 2393.091546874959,
      "v": 44
    },
    {
      "midi": 57,
      "hit": false,
      "t": 367935.76941145805,
      "d": 1299.341802083305,
      "v": 65
    },
    {
      "midi": 60,
      "hit": false,
      "t": 368675.90081770805,
      "d": 690.7893124999246,
      "v": 48
    },
    {
      "midi": 45,
      "hit": false,
      "t": 368684.12449999974,
      "d": 460.52620833332185,
      "v": 66
    },
    {
      "midi": 52,
      "hit": false,
      "t": 369391.36117708305,
      "d": 2919.407213541679,
      "v": 50
    },
    {
      "midi": 64,
      "hit": false,
      "t": 369399.58485937474,
      "d": 2393.0915468750172,
      "v": 50
    },
    {
      "midi": 71,
      "hit": false,
      "t": 369399.58485937474,
      "d": 2458.8810052083572,
      "v": 50
    },
    {
      "midi": 67,
      "hit": false,
      "t": 369399.58485937474,
      "d": 2623.354651041678,
      "v": 50
    },
    {
      "midi": 40,
      "hit": false,
      "t": 369416.032223958,
      "d": 2532.89414583327,
      "v": 102
    },
    {
      "midi": 52,
      "hit": false,
      "t": 369473.5979999997,
      "d": 1784.539057291695,
      "v": 127
    },
    {
      "midi": 55,
      "hit": false,
      "t": 370238.40045312466,
      "d": 1003.2892395833042,
      "v": 78
    },
    {
      "midi": 52,
      "hit": false,
      "t": 371060.7686822913,
      "d": 912.8287343749544,
      "v": 65
    },
    {
      "midi": 64,
      "hit": false,
      "t": 371825.5711354163,
      "d": 189.1446927083307,
      "v": 73
    },
    {
      "midi": 52,
      "hit": false,
      "t": 371842.0184999997,
      "d": 402.96043229167117,
      "v": 81
    },
    {
      "midi": 55,
      "hit": false,
      "t": 371850.2421822913,
      "d": 320.7236093750107,
      "v": 56
    },
    {
      "midi": 59,
      "hit": false,
      "t": 371883.1369114579,
      "d": 567.4340781250503,
      "v": 65
    },
    {
      "midi": 69,
      "hit": false,
      "t": 372573.926223958,
      "d": 2343.7494531249977,
      "v": 50
    },
    {
      "midi": 74,
      "hit": false,
      "t": 372573.926223958,
      "d": 2532.8941458333284,
      "v": 50
    },
    {
      "midi": 65,
      "hit": false,
      "t": 372582.1499062497,
      "d": 2261.512630208337,
      "v": 50
    },
    {
      "midi": 65,
      "hit": false,
      "t": 372590.3735885413,
      "d": 2434.2099583332893,
      "v": 78
    },
    {
      "midi": 57,
      "hit": false,
      "t": 372598.597270833,
      "d": 1611.8417291666265,
      "v": 60
    },
    {
      "midi": 62,
      "hit": false,
      "t": 372598.59727083304,
      "d": 2475.3283697916777,
      "v": 50
    },
    {
      "midi": 38,
      "hit": false,
      "t": 372606.82095312467,
      "d": 2615.1309687499306,
      "v": 60
    },
    {
      "midi": 62,
      "hit": false,
      "t": 372623.268317708,
      "d": 1661.1838229165878,
      "v": 85
    },
    {
      "midi": 50,
      "hit": false,
      "t": 372631.49199999974,
      "d": 2368.4205000000075,
      "v": 89
    },
    {
      "midi": 77,
      "hit": false,
      "t": 374193.9916354164,
      "d": 921.0524166666437,
      "v": 50
    },
    {
      "midi": 50,
      "hit": false,
      "t": 374226.8863645829,
      "d": 773.0261354166432,
      "v": 69
    },
    {
      "midi": 50,
      "hit": false,
      "t": 374999.91249999974,
      "d": 427.63147916668095,
      "v": 55
    },
    {
      "midi": 57,
      "hit": false,
      "t": 375016.3598645829,
      "d": 526.3156666667201,
      "v": 65
    },
    {
      "midi": 71,
      "hit": false,
      "t": 375583.79394270806,
      "d": 2606.9072864583577,
      "v": 50
    },
    {
      "midi": 55,
      "hit": false,
      "t": 375583.79394270806,
      "d": 2631.5783333333675,
      "v": 50
    },
    {
      "midi": 74,
      "hit": false,
      "t": 375583.79394270806,
      "d": 2631.5783333333675,
      "v": 50
    },
    {
      "midi": 79,
      "hit": false,
      "t": 375583.79394270806,
      "d": 2812.499343750009,
      "v": 50
    },
    {
      "midi": 55,
      "hit": false,
      "t": 375789.38599999977,
      "d": 2014.8021614583558,
      "v": 102
    },
    {
      "midi": 43,
      "hit": false,
      "t": 375822.2807291663,
      "d": 2508.223098958377,
      "v": 88
    },
    {
      "midi": 60,
      "hit": false,
      "t": 376562.4121354163,
      "d": 674.3419479166623,
      "v": 88
    },
    {
      "midi": 62,
      "hit": false,
      "t": 376562.4121354163,
      "d": 830.5919114583521,
      "v": 88
    },
    {
      "midi": 67,
      "hit": false,
      "t": 376562.4121354163,
      "d": 1652.960140625015,
      "v": 85
    },
    {
      "midi": 55,
      "hit": false,
      "t": 376578.8594999996,
      "d": 682.5656302083516,
      "v": 56
    },
    {
      "midi": 67,
      "hit": false,
      "t": 377179.1883072914,
      "d": 912.8287343750126,
      "v": 50
    },
    {
      "midi": 55,
      "hit": false,
      "t": 377458.793505208,
      "d": 624.9998541666428,
      "v": 94
    },
    {
      "midi": 59,
      "hit": false,
      "t": 377754.846067708,
      "d": 312.4999270833214,
      "v": 94
    },
    {
      "midi": 62,
      "hit": false,
      "t": 377754.846067708,
      "d": 312.4999270833214,
      "v": 94
    },
    {
      "midi": 55,
      "hit": false,
      "t": 378157.8064999998,
      "d": 427.63147916668095,
      "v": 72
    },
    {
      "midi": 76,
      "hit": false,
      "t": 378832.1484479164,
      "d": 1175.9865677083726,
      "v": 50
    },
    {
      "midi": 72,
      "hit": false,
      "t": 378840.37213020807,
      "d": 945.7234635417117,
      "v": 50
    },
    {
      "midi": 60,
      "hit": false,
      "t": 378840.37213020807,
      "d": 1447.3680833333638,
      "v": 50
    },
    {
      "midi": 79,
      "hit": false,
      "t": 378840.37213020807,
      "d": 2574.0125572916586,
      "v": 50
    },
    {
      "midi": 48,
      "hit": false,
      "t": 378947.2799999998,
      "d": 1677.6311874999665,
      "v": 102
    },
    {
      "midi": 48,
      "hit": false,
      "t": 378980.1747291663,
      "d": 1019.7366041666246,
      "v": 56
    },
    {
      "midi": 60,
      "hit": false,
      "t": 378996.62209374964,
      "d": 847.0392760416726,
      "v": 69
    },
    {
      "midi": 64,
      "hit": false,
      "t": 378996.62209374964,
      "d": 863.486640624993,
      "v": 65
    },
    {
      "midi": 67,
      "hit": false,
      "t": 379004.84577604133,
      "d": 1060.8550156249548,
      "v": 85
    },
    {
      "midi": 74,
      "hit": false,
      "t": 380246.6218020831,
      "d": 888.1576875000028,
      "v": 50
    },
    {
      "midi": 71,
      "hit": false,
      "t": 380246.6218020831,
      "d": 986.8418749999837,
      "v": 50
    },
    {
      "midi": 59,
      "hit": false,
      "t": 380254.8454843748,
      "d": 1611.8417291666265,
      "v": 50
    },
    {
      "midi": 62,
      "hit": false,
      "t": 380501.5559531246,
      "d": 641.4472187500214,
      "v": 85
    },
    {
      "midi": 47,
      "hit": false,
      "t": 380509.7796354163,
      "d": 822.3682291666628,
      "v": 65
    },
    {
      "midi": 59,
      "hit": false,
      "t": 380526.2269999996,
      "d": 690.7893124999828,
      "v": 65
    },
    {
      "midi": 47,
      "hit": false,
      "t": 380526.2269999998,
      "d": 1694.0785520833451,
      "v": 123
    },
    {
      "midi": 72,
      "hit": false,
      "t": 381800.8977552081,
      "d": 2458.881005208299,
      "v": 50
    },
    {
      "midi": 69,
      "hit": false,
      "t": 381800.8977552081,
      "d": 2648.0256979166297,
      "v": 50
    },
    {
      "midi": 76,
      "hit": false,
      "t": 381809.12143749977,
      "d": 82.23682291666046,
      "v": 50
    },
    {
      "midi": 57,
      "hit": false,
      "t": 381833.7924843748,
      "d": 2615.1309687499306,
      "v": 50
    },
    {
      "midi": 75,
      "hit": false,
      "t": 381907.80562499975,
      "d": 164.47364583332092,
      "v": 50
    },
    {
      "midi": 76,
      "hit": false,
      "t": 381924.25298958307,
      "d": 312.4999270833214,
      "v": 50
    },
    {
      "midi": 57,
      "hit": false,
      "t": 382080.50295312464,
      "d": 937.4997812500806,
      "v": 56
    },
    {
      "midi": 64,
      "hit": false,
      "t": 382080.50295312464,
      "d": 3034.5387656250386,
      "v": 78
    },
    {
      "midi": 60,
      "hit": false,
      "t": 382088.72663541633,
      "d": 3059.20981249999,
      "v": 85
    },
    {
      "midi": 45,
      "hit": false,
      "t": 382096.950317708,
      "d": 2286.183677083347,
      "v": 52
    },
    {
      "midi": 45,
      "hit": false,
      "t": 382105.17399999977,
      "d": 2368.4205000000075,
      "v": 66
    },
    {
      "midi": 76,
      "hit": false,
      "t": 382318.98973958305,
      "d": 5699.011828125105,
      "v": 50
    },
    {
      "midi": 57,
      "hit": false,
      "t": 383692.3446822914,
      "d": 1356.9075781249558,
      "v": 60
    },
    {
      "midi": 45,
      "hit": false,
      "t": 384473.5944999998,
      "d": 279.6051979166805,
      "v": 72
    },
    {
      "midi": 52,
      "hit": false,
      "t": 385090.3706718747,
      "d": 3067.4334947917378,
      "v": 50
    },
    {
      "midi": 71,
      "hit": false,
      "t": 385090.3706718747,
      "d": 3223.6834583334276,
      "v": 50
    },
    {
      "midi": 67,
      "hit": false,
      "t": 385098.5943541664,
      "d": 2606.907286458416,
      "v": 50
    },
    {
      "midi": 40,
      "hit": false,
      "t": 385221.9495885413,
      "d": 2442.433640625037,
      "v": 81
    },
    {
      "midi": 52,
      "hit": false,
      "t": 385263.0679999998,
      "d": 1998.3547968749772,
      "v": 117
    },
    {
      "midi": 64,
      "hit": false,
      "t": 385994.97572395793,
      "d": 1595.3943645833642,
      "v": 69
    },
    {
      "midi": 55,
      "hit": false,
      "t": 386003.1994062496,
      "d": 822.3682291666628,
      "v": 78
    },
    {
      "midi": 59,
      "hit": false,
      "t": 386003.1994062496,
      "d": 1504.9338593750144,
      "v": 85
    },
    {
      "midi": 64,
      "hit": false,
      "t": 386710.43608333316,
      "d": 855.2629583333619,
      "v": 50
    },
    {
      "midi": 52,
      "hit": false,
      "t": 386809.12027083297,
      "d": 847.0392760416726,
      "v": 52
    },
    {
      "midi": 55,
      "hit": false,
      "t": 387615.0411354163,
      "d": 189.1446927083307,
      "v": 44
    },
    {
      "midi": 52,
      "hit": false,
      "t": 387631.48849999974,
      "d": 394.73674999998184,
      "v": 84
    },
    {
      "midi": 62,
      "hit": false,
      "t": 388256.48835416645,
      "d": 2944.078260416747,
      "v": 50
    },
    {
      "midi": 74,
      "hit": false,
      "t": 388264.71203645814,
      "d": 2894.7361666667275,
      "v": 50
    },
    {
      "midi": 77,
      "hit": false,
      "t": 388264.71203645814,
      "d": 3083.880859375058,
      "v": 50
    },
    {
      "midi": 69,
      "hit": false,
      "t": 388272.9357187498,
      "d": 2837.1703906250186,
      "v": 50
    },
    {
      "midi": 62,
      "hit": false,
      "t": 388396.29095312464,
      "d": 1949.012703125074,
      "v": 96
    },
    {
      "midi": 65,
      "hit": false,
      "t": 388404.51463541633,
      "d": 2310.8547239583568,
      "v": 91
    },
    {
      "midi": 57,
      "hit": false,
      "t": 388412.738317708,
      "d": 1899.6706093750545,
      "v": 78
    },
    {
      "midi": 38,
      "hit": false,
      "t": 388412.738317708,
      "d": 4070.722734375042,
      "v": 85
    },
    {
      "midi": 50,
      "hit": false,
      "t": 388420.9619999997,
      "d": 2368.4205000000075,
      "v": 58
    },
    {
      "midi": 50,
      "hit": false,
      "t": 390032.8037291665,
      "d": 3865.1306770833908,
      "v": 50
    },
    {
      "midi": 50,
      "hit": false,
      "t": 390049.2510937497,
      "d": 3083.880859375,
      "v": 73
    },
    {
      "midi": 57,
      "hit": false,
      "t": 390781.158817708,
      "d": 287.8288802083116,
      "v": 56
    },
    {
      "midi": 50,
      "hit": false,
      "t": 390789.3824999997,
      "d": 213.81573958334047,
      "v": 55
    },
    {
      "midi": 62,
      "hit": false,
      "t": 391521.2902239582,
      "d": 2425.9862760417163,
      "v": 50
    },
    {
      "midi": 74,
      "hit": false,
      "t": 391529.5139062499,
      "d": 2656.2493802083773,
      "v": 50
    },
    {
      "midi": 69,
      "hit": false,
      "t": 391529.5139062499,
      "d": 2713.815156250028,
      "v": 50
    },
    {
      "midi": 77,
      "hit": false,
      "t": 391529.5139062499,
      "d": 2738.4862031250377,
      "v": 50
    },
    {
      "midi": 62,
      "hit": false,
      "t": 391562.40863541636,
      "d": 2072.3679375000065,
      "v": 85
    },
    {
      "midi": 65,
      "hit": false,
      "t": 391562.40863541636,
      "d": 2179.2758072916768,
      "v": 88
    },
    {
      "midi": 57,
      "hit": false,
      "t": 391570.63231770805,
      "d": 2121.710031249968,
      "v": 78
    },
    {
      "midi": 50,
      "hit": false,
      "t": 391578.85599999974,
      "d": 3157.893999999971,
      "v": 72
    },
    {
      "midi": 38,
      "hit": false,
      "t": 393116.6845885414,
      "d": 238.48678645829204,
      "v": 81
    },
    {
      "midi": 72,
      "hit": false,
      "t": 394629.8421302082,
      "d": 2368.4205000000075,
      "v": 50
    },
    {
      "midi": 77,
      "hit": false,
      "t": 394629.8421302082,
      "d": 3083.880859375,
      "v": 50
    },
    {
      "midi": 67,
      "hit": false,
      "t": 394629.8421302082,
      "d": 4958.880421875045,
      "v": 50
    },
    {
      "midi": 69,
      "hit": false,
      "t": 394638.0658124999,
      "d": 2639.8020156249986,
      "v": 50
    },
    {
      "midi": 55,
      "hit": false,
      "t": 394638.0658124999,
      "d": 5616.775005208328,
      "v": 50
    },
    {
      "midi": 57,
      "hit": false,
      "t": 394695.6315885414,
      "d": 1949.0127031249576,
      "v": 88
    },
    {
      "midi": 60,
      "hit": false,
      "t": 394695.6315885414,
      "d": 2384.8678645832697,
      "v": 114
    },
    {
      "midi": 65,
      "hit": false,
      "t": 394695.6315885414,
      "d": 2499.9994166666293,
      "v": 99
    },
    {
      "midi": 43,
      "hit": false,
      "t": 394712.0789531247,
      "d": 5674.340781249979,
      "v": 81
    },
    {
      "midi": 43,
      "hit": false,
      "t": 394736.7499999997,
      "d": 3157.893999999971,
      "v": 72
    },
    {
      "midi": 55,
      "hit": false,
      "t": 396315.6969999997,
      "d": 1924.341656250006,
      "v": 65
    },
    {
      "midi": 57,
      "hit": false,
      "t": 397129.84154687467,
      "d": 230.26310416666092,
      "v": 60
    },
    {
      "midi": 74,
      "hit": false,
      "t": 397771.28876562486,
      "d": 2220.394218750065,
      "v": 50
    },
    {
      "midi": 79,
      "hit": false,
      "t": 397779.51244791655,
      "d": 2269.7363125000265,
      "v": 50
    },
    {
      "midi": 71,
      "hit": false,
      "t": 397787.73613020824,
      "d": 2286.183677083347,
      "v": 50
    },
    {
      "midi": 67,
      "hit": false,
      "t": 397837.078223958,
      "d": 2376.644182291755,
      "v": 94
    },
    {
      "midi": 59,
      "hit": false,
      "t": 397845.30190624966,
      "d": 1537.8285885417135,
      "v": 69
    },
    {
      "midi": 62,
      "hit": false,
      "t": 397845.30190624966,
      "d": 1874.9995625000447,
      "v": 88
    },
    {
      "midi": 55,
      "hit": false,
      "t": 397894.6439999997,
      "d": 1578.9469999999856,
      "v": 93
    },
    {
      "midi": 43,
      "hit": false,
      "t": 399473.59099999967,
      "d": 1578.9469999999856,
      "v": 93
    },
    {
      "midi": 55,
      "hit": false,
      "t": 399490.03836458304,
      "d": 740.1314062500023,
      "v": 94
    },
    {
      "midi": 59,
      "hit": false,
      "t": 400246.61713541637,
      "d": 164.47364583332092,
      "v": 81
    },
    {
      "midi": 76,
      "hit": false,
      "t": 400920.95908333326,
      "d": 1504.9338593750144,
      "v": 50
    },
    {
      "midi": 67,
      "hit": false,
      "t": 400937.4064479166,
      "d": 1167.7628854166833,
      "v": 50
    },
    {
      "midi": 72,
      "hit": false,
      "t": 400937.4064479166,
      "d": 1447.3680833333638,
      "v": 50
    },
    {
      "midi": 60,
      "hit": false,
      "t": 400945.6301302083,
      "d": 1620.065411458374,
      "v": 50
    },
    {
      "midi": 48,
      "hit": false,
      "t": 400978.52485937474,
      "d": 1217.104979166761,
      "v": 78
    },
    {
      "midi": 60,
      "hit": false,
      "t": 400986.7485416664,
      "d": 855.2629583333619,
      "v": 85
    },
    {
      "midi": 64,
      "hit": false,
      "t": 400994.9722239581,
      "d": 1044.4076510416926,
      "v": 96
    },
    {
      "midi": 67,
      "hit": false,
      "t": 400994.9722239581,
      "d": 1175.9865677083726,
      "v": 102
    },
    {
      "midi": 48,
      "hit": false,
      "t": 401052.53799999965,
      "d": 1776.3153750000056,
      "v": 93
    },
    {
      "midi": 74,
      "hit": false,
      "t": 402491.6824010416,
      "d": 1529.6049062500242,
      "v": 50
    },
    {
      "midi": 67,
      "hit": false,
      "t": 402499.9060833333,
      "d": 1036.1839687500033,
      "v": 50
    },
    {
      "midi": 71,
      "hit": false,
      "t": 402499.9060833333,
      "d": 1496.710177083325,
      "v": 50
    },
    {
      "midi": 59,
      "hit": false,
      "t": 402499.9060833333,
      "d": 1620.0654114583158,
      "v": 50
    },
    {
      "midi": 67,
      "hit": false,
      "t": 402590.3665885415,
      "d": 764.8024531250121,
      "v": 91
    },
    {
      "midi": 47,
      "hit": false,
      "t": 402590.3665885415,
      "d": 1069.0786979167024,
      "v": 73
    },
    {
      "midi": 62,
      "hit": false,
      "t": 402598.59027083317,
      "d": 657.8945833333419,
      "v": 94
    },
    {
      "midi": 59,
      "hit": false,
      "t": 402606.81395312486,
      "d": 707.2366770833032,
      "v": 60
    },
    {
      "midi": 47,
      "hit": false,
      "t": 402631.48499999964,
      "d": 1661.1838229167042,
      "v": 114
    },
    {
      "midi": 76,
      "hit": false,
      "t": 404021.28730729164,
      "d": 6356.906411458331,
      "v": 50
    },
    {
      "midi": 69,
      "hit": false,
      "t": 404045.95835416665,
      "d": 1381.5786249999655,
      "v": 50
    },
    {
      "midi": 72,
      "hit": false,
      "t": 404045.95835416665,
      "d": 3166.1176822916605,
      "v": 50
    },
    {
      "midi": 57,
      "hit": false,
      "t": 404062.40571875,
      "d": 2623.354651041678,
      "v": 50
    },
    {
      "midi": 57,
      "hit": false,
      "t": 404185.76095312485,
      "d": 1282.8944375000428,
      "v": 69
    },
    {
      "midi": 64,
      "hit": false,
      "t": 404193.98463541653,
      "d": 3116.775588541699,
      "v": 78
    },
    {
      "midi": 60,
      "hit": false,
      "t": 404202.2083177082,
      "d": 1529.6049062500242,
      "v": 94
    },
    {
      "midi": 45,
      "hit": false,
      "t": 404210.4319999997,
      "d": 2006.5784791666665,
      "v": 72
    },
    {
      "midi": 45,
      "hit": false,
      "t": 404210.4319999999,
      "d": 2343.7494531249977,
      "v": 69
    },
    {
      "midi": 69,
      "hit": false,
      "t": 405600.2343072916,
      "d": 1274.6707552083535,
      "v": 50
    },
    {
      "midi": 57,
      "hit": false,
      "t": 405838.7210937499,
      "d": 1389.8023072916549,
      "v": 56
    },
    {
      "midi": 45,
      "hit": false,
      "t": 406578.8524999997,
      "d": 328.94729166664183,
      "v": 58
    },
    {
      "midi": 60,
      "hit": false,
      "t": 406644.64195833326,
      "d": 682.5656302082934,
      "v": 44
    },
    {
      "midi": 71,
      "hit": false,
      "t": 407236.7470833333,
      "d": 2664.47306249995,
      "v": 50
    },
    {
      "midi": 67,
      "hit": false,
      "t": 407244.970765625,
      "d": 2746.7098854166106,
      "v": 50
    },
    {
      "midi": 52,
      "hit": false,
      "t": 407261.41813020833,
      "d": 3231.9071406250005,
      "v": 50
    },
    {
      "midi": 52,
      "hit": false,
      "t": 407368.32599999965,
      "d": 2006.5784791666665,
      "v": 72
    },
    {
      "midi": 40,
      "hit": false,
      "t": 407376.5496822916,
      "d": 2475.3283697915613,
      "v": 91
    },
    {
      "midi": 55,
      "hit": false,
      "t": 407878.1943020833,
      "d": 1356.9075781248976,
      "v": 38
    },
    {
      "midi": 59,
      "hit": false,
      "t": 408207.1415937499,
      "d": 296.05256250000093,
      "v": 56
    },
    {
      "midi": 59,
      "hit": false,
      "t": 408577.2072968749,
      "d": 1217.1049791665864,
      "v": 60
    },
    {
      "midi": 64,
      "hit": false,
      "t": 408577.2072968749,
      "d": 1241.7760260415962,
      "v": 81
    },
    {
      "midi": 64,
      "hit": false,
      "t": 408749.90462499997,
      "d": 1110.1971093749744,
      "v": 50
    },
    {
      "midi": 52,
      "hit": false,
      "t": 409013.0624583332,
      "d": 822.3682291666046,
      "v": 81
    },
    {
      "midi": 55,
      "hit": false,
      "t": 409720.2991354165,
      "d": 246.71046874998137,
      "v": 60
    },
    {
      "midi": 52,
      "hit": false,
      "t": 409736.74649999966,
      "d": 328.94729166664183,
      "v": 58
    },
    {
      "midi": 74,
      "hit": false,
      "t": 410460.43054166663,
      "d": 4605.262083333335,
      "v": 50
    },
    {
      "midi": 69,
      "hit": false,
      "t": 410468.6542239583,
      "d": 2615.130968749989,
      "v": 50
    },
    {
      "midi": 65,
      "hit": false,
      "t": 410476.87790625,
      "d": 2656.249380208319,
      "v": 50
    },
    {
      "midi": 62,
      "hit": false,
      "t": 410493.32527083333,
      "d": 2664.4730625000084,
      "v": 50
    },
    {
      "midi": 57,
      "hit": false,
      "t": 410509.7726354165,
      "d": 1603.6180468749953,
      "v": 60
    },
    {
      "midi": 38,
      "hit": false,
      "t": 410509.7726354165,
      "d": 2582.236239583348,
      "v": 88
    },
    {
      "midi": 65,
      "hit": false,
      "t": 410509.7726354165,
      "d": 3001.6440364583395,
      "v": 88
    },
    {
      "midi": 50,
      "hit": false,
      "t": 410526.2199999996,
      "d": 2261.512630208337,
      "v": 64
    },
    {
      "midi": 62,
      "hit": false,
      "t": 410526.2199999998,
      "d": 1562.4996354166651,
      "v": 99
    },
    {
      "midi": 50,
      "hit": false,
      "t": 412113.3906822915,
      "d": 789.4735000000219,
      "v": 65
    },
    {
      "midi": 50,
      "hit": false,
      "t": 412894.64049999963,
      "d": 748.3550885416917,
      "v": 51
    },
    {
      "midi": 57,
      "hit": false,
      "t": 412952.2062760415,
      "d": 509.8683020832832,
      "v": 52
    },
    {
      "midi": 55,
      "hit": false,
      "t": 413511.416671875,
      "d": 2820.72302604164,
      "v": 50
    },
    {
      "midi": 71,
      "hit": false,
      "t": 413527.8640364583,
      "d": 2623.354651041678,
      "v": 50
    },
    {
      "midi": 67,
      "hit": false,
      "t": 413536.08771875,
      "d": 2409.5389114583377,
      "v": 50
    },
    {
      "midi": 55,
      "hit": false,
      "t": 413684.11399999965,
      "d": 2261.512630208337,
      "v": 64
    },
    {
      "midi": 43,
      "hit": false,
      "t": 413725.2324114581,
      "d": 2351.973135416687,
      "v": 85
    },
    {
      "midi": 62,
      "hit": false,
      "t": 414432.4690885414,
      "d": 666.1182656250894,
      "v": 114
    },
    {
      "midi": 60,
      "hit": false,
      "t": 414440.6927708331,
      "d": 657.8945833334001,
      "v": 99
    },
    {
      "midi": 67,
      "hit": false,
      "t": 414440.6927708331,
      "d": 929.2760989583912,
      "v": 99
    },
    {
      "midi": 55,
      "hit": false,
      "t": 414448.9164531248,
      "d": 559.210395833361,
      "v": 81
    },
    {
      "midi": 79,
      "hit": false,
      "t": 415115.03471875,
      "d": 4613.485765625082,
      "v": 50
    },
    {
      "midi": 55,
      "hit": false,
      "t": 415164.37681249983,
      "d": 773.0261354166432,
      "v": 78
    },
    {
      "midi": 67,
      "hit": false,
      "t": 415550.8898802081,
      "d": 386.5130677083507,
      "v": 88
    },
    {
      "midi": 59,
      "hit": false,
      "t": 415567.33724479144,
      "d": 304.27624479169026,
      "v": 99
    },
    {
      "midi": 62,
      "hit": false,
      "t": 415575.56092708313,
      "d": 304.27624479169026,
      "v": 107
    },
    {
      "midi": 55,
      "hit": false,
      "t": 416052.53449999966,
      "d": 748.3550885416917,
      "v": 51
    },
    {
      "midi": 76,
      "hit": false,
      "t": 416636.4159427083,
      "d": 1208.8812968750717,
      "v": 50
    },
    {
      "midi": 72,
      "hit": false,
      "t": 416644.639625,
      "d": 1151.3155208333628,
      "v": 50
    },
    {
      "midi": 60,
      "hit": false,
      "t": 416644.639625,
      "d": 1628.2890937500633,
      "v": 50
    },
    {
      "midi": 64,
      "hit": false,
      "t": 416759.77117708314,
      "d": 1003.2892395833624,
      "v": 91
    },
    {
      "midi": 48,
      "hit": false,
      "t": 416759.77117708314,
      "d": 1069.0786979167024,
      "v": 85
    },
    {
      "midi": 67,
      "hit": false,
      "t": 416767.9948593748,
      "d": 1019.7366041666828,
      "v": 88
    },
    {
      "midi": 60,
      "hit": false,
      "t": 416776.2185416665,
      "d": 970.3945104166633,
      "v": 78
    },
    {
      "midi": 48,
      "hit": false,
      "t": 416842.0079999997,
      "d": 1776.3153750000056,
      "v": 93
    },
    {
      "midi": 71,
      "hit": false,
      "t": 418190.6918958334,
      "d": 1184.2102500000037,
      "v": 50
    },
    {
      "midi": 74,
      "hit": false,
      "t": 418198.9155781251,
      "d": 1069.0786979166442,
      "v": 50
    },
    {
      "midi": 59,
      "hit": false,
      "t": 418198.9155781251,
      "d": 1496.710177083325,
      "v": 50
    },
    {
      "midi": 62,
      "hit": false,
      "t": 418388.0602708332,
      "d": 814.1445468750317,
      "v": 91
    },
    {
      "midi": 47,
      "hit": false,
      "t": 418388.0602708332,
      "d": 986.8418749999837,
      "v": 78
    },
    {
      "midi": 67,
      "hit": false,
      "t": 418396.2839531249,
      "d": 822.3682291666628,
      "v": 94
    },
    {
      "midi": 59,
      "hit": false,
      "t": 418404.5076354166,
      "d": 830.5919114582939,
      "v": 65
    },
    {
      "midi": 47,
      "hit": false,
      "t": 418420.95499999967,
      "d": 1661.1838229167042,
      "v": 114
    },
    {
      "midi": 72,
      "hit": false,
      "t": 419827.20467187505,
      "d": 2442.433640625037,
      "v": 50
    },
    {
      "midi": 76,
      "hit": false,
      "t": 419827.20467187505,
      "d": 6274.669588541787,
      "v": 50
    },
    {
      "midi": 57,
      "hit": false,
      "t": 419835.42835416674,
      "d": 3149.670317708398,
      "v": 50
    },
    {
      "midi": 69,
      "hit": false,
      "t": 419860.09940104175,
      "d": 2565.7888750000275,
      "v": 50
    },
    {
      "midi": 70,
      "hit": false,
      "t": 419868.32308333344,
      "d": 57.56577604165068,
      "v": 50
    },
    {
      "midi": 45,
      "hit": false,
      "t": 419999.9019999997,
      "d": 2006.5784791666665,
      "v": 72
    },
    {
      "midi": 57,
      "hit": false,
      "t": 420008.1256822915,
      "d": 1027.9602864583721,
      "v": 78
    },
    {
      "midi": 60,
      "hit": false,
      "t": 420016.3493645832,
      "d": 1578.9470000000438,
      "v": 99
    },
    {
      "midi": 64,
      "hit": false,
      "t": 420016.3493645832,
      "d": 3026.3150833333493,
      "v": 88
    },
    {
      "midi": 45,
      "hit": false,
      "t": 420024.5730468749,
      "d": 2434.2099583333475,
      "v": 69
    },
    {
      "midi": 57,
      "hit": false,
      "t": 421587.07268229156,
      "d": 1381.5786250000237,
      "v": 65
    },
    {
      "midi": 45,
      "hit": false,
      "t": 422368.3224999997,
      "d": 328.94729166664183,
      "v": 58
    },
    {
      "midi": 60,
      "hit": false,
      "t": 422368.3224999999,
      "d": 699.0129947916721,
      "v": 60
    },
    {
      "midi": 52,
      "hit": false,
      "t": 422993.3223541668,
      "d": 3133.2229531250196,
      "v": 50
    },
    {
      "midi": 71,
      "hit": false,
      "t": 423001.5460364585,
      "d": 2458.881005208299,
      "v": 50
    },
    {
      "midi": 67,
      "hit": false,
      "t": 423017.99340104184,
      "d": 2532.8941458333284,
      "v": 50
    },
    {
      "midi": 40,
      "hit": false,
      "t": 423141.34863541654,
      "d": 1949.0127031248994,
      "v": 73
    },
    {
      "midi": 52,
      "hit": false,
      "t": 423157.7959999997,
      "d": 2006.5784791666665,
      "v": 72
    },
    {
      "midi": 55,
      "hit": false,
      "t": 423568.98011458316,
      "d": 230.26310416666092,
      "v": 65
    },
    {
      "midi": 59,
      "hit": false,
      "t": 423922.5984531248,
      "d": 172.69732812501024,
      "v": 65
    },
    {
      "midi": 52,
      "hit": false,
      "t": 424300.8878385415,
      "d": 1266.4470729166642,
      "v": 94
    },
    {
      "midi": 64,
      "hit": false,
      "t": 424300.8878385415,
      "d": 1513.1575416666456,
      "v": 104
    },
    {
      "midi": 55,
      "hit": false,
      "t": 424317.3352031248,
      "d": 1282.8944374999846,
      "v": 81
    },
    {
      "midi": 59,
      "hit": false,
      "t": 424317.3352031248,
      "d": 1365.131260416645,
      "v": 104
    },
    {
      "midi": 64,
      "hit": false,
      "t": 424679.1772239585,
      "d": 690.7893124999828,
      "v": 50
    },
    {
      "midi": 52,
      "hit": false,
      "t": 425526.2164999997,
      "d": 328.94729166664183,
      "v": 58
    },
    {
      "midi": 40,
      "hit": false,
      "t": 425559.11122916645,
      "d": 115.13155208330136,
      "v": 48
    },
    {
      "midi": 69,
      "hit": false,
      "t": 426142.99267187517,
      "d": 5263.156666666735,
      "v": 50
    },
    {
      "midi": 65,
      "hit": false,
      "t": 426151.21635416686,
      "d": 5123.354067708366,
      "v": 50
    },
    {
      "midi": 74,
      "hit": false,
      "t": 426159.44003645855,
      "d": 5485.196088541707,
      "v": 50
    },
    {
      "midi": 62,
      "hit": false,
      "t": 426167.66371875023,
      "d": 5460.525041666639,
      "v": 50
    },
    {
      "midi": 50,
      "hit": false,
      "t": 426315.68999999965,
      "d": 2261.512630208337,
      "v": 64
    },
    {
      "midi": 38,
      "hit": false,
      "t": 426315.68999999977,
      "d": 5041.117244791647,
      "v": 81
    },
    {
      "midi": 65,
      "hit": false,
      "t": 426323.91368229146,
      "d": 1981.9074322916567,
      "v": 96
    },
    {
      "midi": 57,
      "hit": false,
      "t": 426332.13736458315,
      "d": 1776.3153750000056,
      "v": 65
    },
    {
      "midi": 62,
      "hit": false,
      "t": 426332.13736458315,
      "d": 1833.8811510416563,
      "v": 94
    },
    {
      "midi": 50,
      "hit": false,
      "t": 427952.20277604146,
      "d": 3815.788583333313,
      "v": 69
    },
    {
      "midi": 57,
      "hit": false,
      "t": 428667.66313541646,
      "d": 180.92101041664137,
      "v": 52
    },
    {
      "midi": 50,
      "hit": false,
      "t": 428684.11049999966,
      "d": 748.3550885416917,
      "v": 51
    },
    {
      "midi": 50,
      "hit": false,
      "t": 429366.67613020854,
      "d": 2269.7363125000265,
      "v": 50
    },
    {
      "midi": 65,
      "hit": false,
      "t": 429448.91295312473,
      "d": 2458.881005208299,
      "v": 88
    },
    {
      "midi": 62,
      "hit": false,
      "t": 429457.1366354164,
      "d": 2376.6441822916386,
      "v": 85
    },
    {
      "midi": 57,
      "hit": false,
      "t": 429465.3603177081,
      "d": 962.1708281249739,
      "v": 85
    },
    {
      "midi": 60,
      "hit": false,
      "t": 429465.3603177081,
      "d": 2319.078406249988,
      "v": 91
    },
    {
      "midi": 50,
      "hit": false,
      "t": 429473.5839999997,
      "d": 3157.893999999971,
      "v": 74
    },
    {
      "midi": 57,
      "hit": false,
      "t": 431044.3073177081,
      "d": 847.0392760416144,
      "v": 60
    },
    {
      "midi": 38,
      "hit": false,
      "t": 431817.33345312474,
      "d": 106.90786979161203,
      "v": 60
    },
    {
      "midi": 72,
      "hit": false,
      "t": 432483.45171875024,
      "d": 5657.893416666659,
      "v": 50
    },
    {
      "midi": 77,
      "hit": false,
      "t": 432491.6754010419,
      "d": 5797.69601562497,
      "v": 50
    },
    {
      "midi": 69,
      "hit": false,
      "t": 432499.8990833336,
      "d": 5666.11709895829,
      "v": 50
    },
    {
      "midi": 65,
      "hit": false,
      "t": 432582.1359062497,
      "d": 2960.5256250000675,
      "v": 104
    },
    {
      "midi": 43,
      "hit": false,
      "t": 432582.1359062497,
      "d": 5444.0776770834345,
      "v": 88
    },
    {
      "midi": 57,
      "hit": false,
      "t": 432590.3595885414,
      "d": 2574.012557291717,
      "v": 96
    },
    {
      "midi": 60,
      "hit": false,
      "t": 432598.58327083307,
      "d": 2582.236239583348,
      "v": 126
    },
    {
      "midi": 43,
      "hit": false,
      "t": 432631.47799999965,
      "d": 6315.7880000000005,
      "v": 74
    },
    {
      "midi": 55,
      "hit": false,
      "t": 432631.4780000003,
      "d": 2417.762593749969,
      "v": 50
    },
    {
      "midi": 67,
      "hit": false,
      "t": 432631.4780000003,
      "d": 2442.4336406249786,
      "v": 50
    },
    {
      "midi": 55,
      "hit": false,
      "t": 434177.5302708331,
      "d": 3634.8675729166716,
      "v": 69
    },
    {
      "midi": 67,
      "hit": false,
      "t": 435690.6878125002,
      "d": 2565.7888750000275,
      "v": 50
    },
    {
      "midi": 55,
      "hit": false,
      "t": 435698.9114947919,
      "d": 2606.9072864582995,
      "v": 50
    },
    {
      "midi": 65,
      "hit": false,
      "t": 435814.04304687475,
      "d": 2779.604614583368,
      "v": 65
    },
    {
      "midi": 57,
      "hit": false,
      "t": 435822.26672916644,
      "d": 2253.288947916706,
      "v": 38
    },
    {
      "midi": 60,
      "hit": false,
      "t": 435830.49041145813,
      "d": 2582.236239583348,
      "v": 56
    },
    {
      "midi": 48,
      "hit": false,
      "t": 438930.81863541645,
      "d": 2952.301942708262,
      "v": 60
    },
    {
      "midi": 60,
      "hit": false,
      "t": 438947.26599999965,
      "d": 3157.893999999971,
      "v": 74
    },
    {
      "midi": 76,
      "hit": false,
      "t": 438947.26600000024,
      "d": 2837.1703906250186,
      "v": 50
    },
    {
      "midi": 72,
      "hit": false,
      "t": 438947.26600000024,
      "d": 2927.6308958333684,
      "v": 50
    },
    {
      "midi": 60,
      "hit": false,
      "t": 438947.26600000024,
      "d": 3199.012411458418,
      "v": 50
    },
    {
      "midi": 79,
      "hit": false,
      "t": 438947.26600000024,
      "d": 6373.353776041768,
      "v": 50
    },
    {
      "midi": 60,
      "hit": false,
      "t": 439054.17386979144,
      "d": 2384.8678645832697,
      "v": 78
    },
    {
      "midi": 67,
      "hit": false,
      "t": 439761.41054687474,
      "d": 1480.2628125000047,
      "v": 73
    },
    {
      "midi": 72,
      "hit": false,
      "t": 440501.54195312475,
      "d": 641.4472187500214,
      "v": 102
    },
    {
      "midi": 76,
      "hit": false,
      "t": 441241.67335937475,
      "d": 164.47364583332092,
      "v": 81
    },
    {
      "midi": 74,
      "hit": false,
      "t": 442047.5942239581,
      "d": 608.5524895833223,
      "v": 73
    },
    {
      "midi": 59,
      "hit": false,
      "t": 442055.8179062498,
      "d": 2623.3546510415617,
      "v": 56
    },
    {
      "midi": 59,
      "hit": false,
      "t": 442105.1599999996,
      "d": 3157.893999999971,
      "v": 74
    },
    {
      "midi": 74,
      "hit": false,
      "t": 442105.16000000027,
      "d": 2680.920427083387,
      "v": 50
    },
    {
      "midi": 71,
      "hit": false,
      "t": 442113.38368229195,
      "d": 2870.0651197917177,
      "v": 50
    },
    {
      "midi": 59,
      "hit": false,
      "t": 442121.60736458364,
      "d": 3264.8018697916996,
      "v": 50
    },
    {
      "midi": 62,
      "hit": false,
      "t": 442754.8309010414,
      "d": 781.2498177083326,
      "v": 73
    },
    {
      "midi": 67,
      "hit": false,
      "t": 443552.52808333305,
      "d": 797.697182291653,
      "v": 96
    },
    {
      "midi": 74,
      "hit": false,
      "t": 444366.672630208,
      "d": 172.69732812501024,
      "v": 78
    },
    {
      "midi": 72,
      "hit": false,
      "t": 445254.830317708,
      "d": 608.5524895833223,
      "v": 78
    },
    {
      "midi": 57,
      "hit": false,
      "t": 445263.0539999996,
      "d": 3157.893999999971,
      "v": 74
    },
    {
      "midi": 57,
      "hit": false,
      "t": 445271.27768229134,
      "d": 2590.4599218750373,
      "v": 56
    },
    {
      "midi": 76,
      "hit": false,
      "t": 445337.0671406253,
      "d": 3009.867718750029,
      "v": 50
    },
    {
      "midi": 57,
      "hit": false,
      "t": 445337.0671406253,
      "d": 3026.3150833334075,
      "v": 50
    },
    {
      "midi": 72,
      "hit": false,
      "t": 445345.290822917,
      "d": 5518.0908177083475,
      "v": 50
    },
    {
      "midi": 69,
      "hit": false,
      "t": 445361.73818750033,
      "d": 2499.9994166666875,
      "v": 50
    },
    {
      "midi": 60,
      "hit": false,
      "t": 445970.290677083,
      "d": 1776.3153750000056,
      "v": 65
    },
    {
      "midi": 64,
      "hit": false,
      "t": 446800.88258854137,
      "d": 773.0261354166432,
      "v": 69
    },
    {
      "midi": 69,
      "hit": false,
      "t": 447615.02713541634,
      "d": 674.3419479167205,
      "v": 78
    },
    {
      "midi": 68,
      "hit": false,
      "t": 448355.15854166704,
      "d": 2631.5783333333093,
      "v": 50
    },
    {
      "midi": 53,
      "hit": false,
      "t": 448355.15854166704,
      "d": 9605.260916666535,
      "v": 50
    },
    {
      "midi": 77,
      "hit": false,
      "t": 448379.82958854205,
      "d": 2730.26252083329,
      "v": 50
    },
    {
      "midi": 53,
      "hit": false,
      "t": 448420.94799999957,
      "d": 3157.893999999971,
      "v": 74
    },
    {
      "midi": 72,
      "hit": false,
      "t": 448429.17168229143,
      "d": 666.118265624973,
      "v": 94
    },
    {
      "midi": 53,
      "hit": false,
      "t": 448445.61904687475,
      "d": 2524.670463541639,
      "v": 65
    },
    {
      "midi": 60,
      "hit": false,
      "t": 449169.3030885414,
      "d": 1110.1971093749744,
      "v": 60
    },
    {
      "midi": 65,
      "hit": false,
      "t": 449827.19767187536,
      "d": 7779.6034479166265,
      "v": 50
    },
    {
      "midi": 65,
      "hit": false,
      "t": 449991.67131770804,
      "d": 740.1314062500023,
      "v": 94
    },
    {
      "midi": 68,
      "hit": false,
      "t": 450781.14481770806,
      "d": 180.92101041664137,
      "v": 69
    },
    {
      "midi": 71,
      "hit": false,
      "t": 451348.5788958337,
      "d": 6225.327494791651,
      "v": 50
    },
    {
      "midi": 67,
      "hit": false,
      "t": 451365.026260417,
      "d": 12845.391739583807,
      "v": 50
    },
    {
      "midi": 74,
      "hit": false,
      "t": 451381.47362500033,
      "d": 6472.037963541632,
      "v": 50
    },
    {
      "midi": 55,
      "hit": false,
      "t": 451578.84199999954,
      "d": 3157.893999999971,
      "v": 93
    },
    {
      "midi": 67,
      "hit": false,
      "t": 451652.8551406247,
      "d": 320.7236093749525,
      "v": 56
    },
    {
      "midi": 55,
      "hit": false,
      "t": 451685.7498697913,
      "d": 5197.367208333337,
      "v": 56
    },
    {
      "midi": 59,
      "hit": false,
      "t": 452368.3154999996,
      "d": 378.2893854166614,
      "v": 73
    },
    {
      "midi": 62,
      "hit": false,
      "t": 453157.78899999964,
      "d": 419.4077968749916,
      "v": 85
    },
    {
      "midi": 79,
      "hit": false,
      "t": 453157.78900000034,
      "d": 4736.840999999957,
      "v": 50
    },
    {
      "midi": 67,
      "hit": false,
      "t": 453947.2624999996,
      "d": 98.68418749998091,
      "v": 60
    },
    {
      "midi": 43,
      "hit": false,
      "t": 454736.7359999995,
      "d": 3157.893999999971,
      "v": 93
    },
    {
      "midi": 71,
      "hit": false,
      "t": 454736.73599999957,
      "d": 485.1972552083316,
      "v": 88
    },
    {
      "midi": 74,
      "hit": false,
      "t": 455526.2094999996,
      "d": 337.17097395833116,
      "v": 99
    },
    {
      "midi": 79,
      "hit": false,
      "t": 456315.6829999996,
      "d": 115.13155208335957,
      "v": 99
    },
    {
      "midi": 91,
      "hit": false,
      "t": 457105.15649999963,
      "d": 1184.210250000062,
      "v": 119
    },
    {
      "midi": 60,
      "hit": false,
      "t": 457828.8405416663,
      "d": 16356.904078125022,
      "v": 33
    },
    {
      "midi": 48,
      "hit": false,
      "t": 457894.6299999995,
      "d": 12853.615421874973,
      "v": 74
    },
    {
      "midi": 76,
      "hit": false,
      "t": 457894.6300000003,
      "d": 6315.788000000524,
      "v": 50
    },
    {
      "midi": 84,
      "hit": false,
      "t": 457894.6300000003,
      "d": 6315.788000000524,
      "v": 50
    },
    {
      "midi": 72,
      "hit": false,
      "t": 457911.0773645836,
      "d": 6299.340635417204,
      "v": 50
    },
    {
      "midi": 60,
      "hit": false,
      "t": 457927.52472916694,
      "d": 6282.893270833883,
      "v": 50
    },
    {
      "midi": 64,
      "hit": false,
      "t": 457935.748411458,
      "d": 16266.44357291673,
      "v": 56
    },
    {
      "midi": 48,
      "hit": false,
      "t": 457952.1957760413,
      "d": 16249.99620833341,
      "v": 44
    },
    {
      "midi": 67,
      "hit": false,
      "t": 457960.419458333,
      "d": 16233.548843750032,
      "v": 65
    },
    {
      "midi": 72,
      "hit": false,
      "t": 457985.090505208,
      "d": 16208.877796875022,
      "v": 85
    }
  ]
}