{
  "jsonPath": "Latin/Tejano/La Fiebre/labios-de-cereza.json",
  "path": "Latin\\Tejano\\La Fiebre\\Labios de Cereza.mid",
  "name": "Labios de Cereza",
  "difficulty": "Advanced",
  "bpm": 90.00009000009,
  "notes": [
    {
      "midi": 64,
      "hit": false,
      "t": 2624.997375,
      "d": 361.1107499999998,
      "v": 18
    },
    {
      "midi": 76,
      "hit": false,
      "t": 2624.997375,
      "d": 409.72181249999994,
      "v": 19
    },
    {
      "midi": 69,
      "hit": false,
      "t": 2986.1081249999997,
      "d": 215.27756250000039,
      "v": 21
    },
    {
      "midi": 73,
      "hit": false,
      "t": 3187.4968125,
      "d": 333.3330000000001,
      "v": 16
    },
    {
      "midi": 78,
      "hit": false,
      "t": 3541.663125,
      "d": 131.9443124999998,
      "v": 19
    },
    {
      "midi": 66,
      "hit": false,
      "t": 3541.663125,
      "d": 145.8331874999999,
      "v": 16
    },
    {
      "midi": 71,
      "hit": false,
      "t": 3847.218375,
      "d": 409.7218125000004,
      "v": 17
    },
    {
      "midi": 59,
      "hit": false,
      "t": 3861.10725,
      "d": 312.4996874999997,
      "v": 14
    },
    {
      "midi": 64,
      "hit": false,
      "t": 4201.3846875,
      "d": 159.7220625,
      "v": 15
    },
    {
      "midi": 68,
      "hit": false,
      "t": 4361.10675,
      "d": 166.66650000000027,
      "v": 18
    },
    {
      "midi": 73,
      "hit": false,
      "t": 4527.77325,
      "d": 305.55525000000034,
      "v": 17
    },
    {
      "midi": 61,
      "hit": false,
      "t": 4534.7176875000005,
      "d": 291.6663749999998,
      "v": 15
    },
    {
      "midi": 64,
      "hit": false,
      "t": 4826.3840625,
      "d": 131.9443125000007,
      "v": 17
    },
    {
      "midi": 68,
      "hit": false,
      "t": 4979.161687500001,
      "d": 124.99987500000043,
      "v": 17
    },
    {
      "midi": 73,
      "hit": false,
      "t": 5124.994875000001,
      "d": 97.22212500000023,
      "v": 13
    },
    {
      "midi": 61,
      "hit": false,
      "t": 5152.772625000001,
      "d": 76.38881250000031,
      "v": 12
    },
    {
      "midi": 71,
      "hit": false,
      "t": 5340.272437500002,
      "d": 361.1107499999998,
      "v": 19
    },
    {
      "midi": 59,
      "hit": false,
      "t": 5347.216875000002,
      "d": 298.61081250000007,
      "v": 16
    },
    {
      "midi": 64,
      "hit": false,
      "t": 5659.716562500002,
      "d": 187.4998125000002,
      "v": 18
    },
    {
      "midi": 68,
      "hit": false,
      "t": 5840.2719375000015,
      "d": 312.4996875000006,
      "v": 20
    },
    {
      "midi": 61,
      "hit": false,
      "t": 6173.604937500002,
      "d": 159.7220625,
      "v": 15
    },
    {
      "midi": 73,
      "hit": false,
      "t": 6173.604937500002,
      "d": 180.5553749999999,
      "v": 16
    },
    {
      "midi": 76,
      "hit": false,
      "t": 6493.049062500002,
      "d": 402.77737499999967,
      "v": 16
    },
    {
      "midi": 64,
      "hit": false,
      "t": 6506.937937500002,
      "d": 347.2218750000002,
      "v": 13
    },
    {
      "midi": 69,
      "hit": false,
      "t": 6861.104250000002,
      "d": 152.77762499999972,
      "v": 21
    },
    {
      "midi": 73,
      "hit": false,
      "t": 7013.881875000002,
      "d": 166.66650000000027,
      "v": 18
    },
    {
      "midi": 66,
      "hit": false,
      "t": 7180.548375000002,
      "d": 340.2774374999999,
      "v": 17
    },
    {
      "midi": 78,
      "hit": false,
      "t": 7180.548375000002,
      "d": 354.16631249999955,
      "v": 17
    },
    {
      "midi": 69,
      "hit": false,
      "t": 7520.825812500002,
      "d": 152.77762499999972,
      "v": 22
    },
    {
      "midi": 73,
      "hit": false,
      "t": 7673.603437500002,
      "d": 159.7220625,
      "v": 17
    },
    {
      "midi": 78,
      "hit": false,
      "t": 7833.325500000002,
      "d": 83.33325000000059,
      "v": 16
    },
    {
      "midi": 66,
      "hit": false,
      "t": 7861.103250000002,
      "d": 69.44437500000004,
      "v": 16
    },
    {
      "midi": 64,
      "hit": false,
      "t": 8027.769750000002,
      "d": 312.4996875000006,
      "v": 16
    },
    {
      "midi": 76,
      "hit": false,
      "t": 8027.769750000002,
      "d": 361.11075000000073,
      "v": 22
    },
    {
      "midi": 69,
      "hit": false,
      "t": 8340.269437500003,
      "d": 159.7220625000009,
      "v": 21
    },
    {
      "midi": 73,
      "hit": false,
      "t": 8506.935937500004,
      "d": 312.4996874999997,
      "v": 19
    },
    {
      "midi": 78,
      "hit": false,
      "t": 8840.268937500005,
      "d": 180.5553749999999,
      "v": 18
    },
    {
      "midi": 66,
      "hit": false,
      "t": 8847.213375000005,
      "d": 180.5553749999999,
      "v": 17
    },
    {
      "midi": 59,
      "hit": false,
      "t": 9159.713062500005,
      "d": 326.38856250000026,
      "v": 19
    },
    {
      "midi": 71,
      "hit": false,
      "t": 9166.657500000005,
      "d": 388.8884999999991,
      "v": 21
    },
    {
      "midi": 64,
      "hit": false,
      "t": 9513.879375000004,
      "d": 159.72206249999908,
      "v": 18
    },
    {
      "midi": 68,
      "hit": false,
      "t": 9673.601437500003,
      "d": 111.11100000000079,
      "v": 17
    },
    {
      "midi": 61,
      "hit": false,
      "t": 9819.434625000004,
      "d": 104.16656250000051,
      "v": 9
    },
    {
      "midi": 73,
      "hit": false,
      "t": 9840.267937500004,
      "d": 90.27768749999996,
      "v": 11
    },
    {
      "midi": 59,
      "hit": false,
      "t": 10006.934437500004,
      "d": 173.61093749999964,
      "v": 15
    },
    {
      "midi": 71,
      "hit": false,
      "t": 10006.934437500004,
      "d": 215.27756249999948,
      "v": 20
    },
    {
      "midi": 64,
      "hit": false,
      "t": 10173.600937500003,
      "d": 145.83318750000035,
      "v": 18
    },
    {
      "midi": 68,
      "hit": false,
      "t": 10340.267437500004,
      "d": 124.99987499999952,
      "v": 19
    },
    {
      "midi": 73,
      "hit": false,
      "t": 10486.100625000005,
      "d": 104.16656250000051,
      "v": 14
    },
    {
      "midi": 61,
      "hit": false,
      "t": 10506.933937500005,
      "d": 97.22212500000023,
      "v": 11
    },
    {
      "midi": 59,
      "hit": false,
      "t": 10680.544875000005,
      "d": 319.444125,
      "v": 19
    },
    {
      "midi": 71,
      "hit": false,
      "t": 10680.544875000005,
      "d": 361.1107499999998,
      "v": 19
    },
    {
      "midi": 64,
      "hit": false,
      "t": 10999.989000000005,
      "d": 159.72206249999908,
      "v": 19
    },
    {
      "midi": 68,
      "hit": false,
      "t": 11180.544375000005,
      "d": 354.16631250000137,
      "v": 19
    },
    {
      "midi": 61,
      "hit": false,
      "t": 11520.821812500006,
      "d": 180.5553749999999,
      "v": 15
    },
    {
      "midi": 73,
      "hit": false,
      "t": 11534.710687500006,
      "d": 173.61093749999964,
      "v": 16
    },
    {
      "midi": 64,
      "hit": false,
      "t": 11833.321500000005,
      "d": 312.4996874999997,
      "v": 15
    },
    {
      "midi": 76,
      "hit": false,
      "t": 11840.265937500006,
      "d": 374.99962499999856,
      "v": 20
    },
    {
      "midi": 69,
      "hit": false,
      "t": 12187.487812500005,
      "d": 138.88875000000007,
      "v": 21
    },
    {
      "midi": 73,
      "hit": false,
      "t": 12340.265437500006,
      "d": 166.66650000000118,
      "v": 17
    },
    {
      "midi": 66,
      "hit": false,
      "t": 12499.987500000007,
      "d": 340.2774375000008,
      "v": 16
    },
    {
      "midi": 78,
      "hit": false,
      "t": 12513.876375000007,
      "d": 333.33300000000054,
      "v": 16
    },
    {
      "midi": 40,
      "hit": false,
      "t": 12659.7095625,
      "d": 340.2774375000008,
      "v": 84
    },
    {
      "midi": 69,
      "hit": false,
      "t": 12840.264937500007,
      "d": 138.88875000000007,
      "v": 22
    },
    {
      "midi": 42,
      "hit": false,
      "t": 12999.987000000001,
      "d": 145.83318750000035,
      "v": 90
    },
    {
      "midi": 73,
      "hit": false,
      "t": 12999.987000000008,
      "d": 131.9443124999998,
      "v": 17
    },
    {
      "midi": 44,
      "hit": false,
      "t": 13152.764625000002,
      "d": 173.61093749999964,
      "v": 89
    },
    {
      "midi": 78,
      "hit": false,
      "t": 13166.653500000008,
      "d": 76.38881250000122,
      "v": 16
    },
    {
      "midi": 66,
      "hit": false,
      "t": 13187.486812500008,
      "d": 55.55550000000039,
      "v": 9
    },
    {
      "midi": 45,
      "hit": false,
      "t": 13340.264437500002,
      "d": 722.2214999999997,
      "v": 81
    },
    {
      "midi": 76,
      "hit": false,
      "t": 13340.264437500009,
      "d": 340.2774375000008,
      "v": 21
    },
    {
      "midi": 64,
      "hit": false,
      "t": 13347.20887500001,
      "d": 284.7219375000004,
      "v": 18
    },
    {
      "midi": 69,
      "hit": false,
      "t": 13645.81968750001,
      "d": 166.66649999999936,
      "v": 19
    },
    {
      "midi": 73,
      "hit": false,
      "t": 13833.31950000001,
      "d": 291.6663750000007,
      "v": 17
    },
    {
      "midi": 78,
      "hit": false,
      "t": 14138.874750000012,
      "d": 166.66650000000118,
      "v": 17
    },
    {
      "midi": 66,
      "hit": false,
      "t": 14152.763625000012,
      "d": 166.66650000000118,
      "v": 15
    },
    {
      "midi": 59,
      "hit": false,
      "t": 14493.041062500013,
      "d": 319.444125,
      "v": 14
    },
    {
      "midi": 71,
      "hit": false,
      "t": 14493.041062500013,
      "d": 374.9996250000004,
      "v": 18
    },
    {
      "midi": 64,
      "hit": false,
      "t": 14826.374062500014,
      "d": 166.66649999999936,
      "v": 18
    },
    {
      "midi": 68,
      "hit": false,
      "t": 14986.096125000013,
      "d": 166.66650000000118,
      "v": 19
    },
    {
      "midi": 61,
      "hit": false,
      "t": 15131.929312500013,
      "d": 388.88850000000275,
      "v": 12
    },
    {
      "midi": 73,
      "hit": false,
      "t": 15152.762625000014,
      "d": 354.16631250000137,
      "v": 16
    },
    {
      "midi": 64,
      "hit": false,
      "t": 15486.095625000014,
      "d": 145.83318750000217,
      "v": 18
    },
    {
      "midi": 68,
      "hit": false,
      "t": 15638.873250000017,
      "d": 166.66649999999936,
      "v": 18
    },
    {
      "midi": 73,
      "hit": false,
      "t": 15798.595312500016,
      "d": 90.27768749999996,
      "v": 14
    },
    {
      "midi": 61,
      "hit": false,
      "t": 15819.428625000017,
      "d": 83.33324999999968,
      "v": 14
    },
    {
      "midi": 71,
      "hit": false,
      "t": 15999.984000000017,
      "d": 333.33300000000054,
      "v": 17
    },
    {
      "midi": 59,
      "hit": false,
      "t": 16006.928437500017,
      "d": 298.61081249999916,
      "v": 16
    },
    {
      "midi": 64,
      "hit": false,
      "t": 16312.483687500016,
      "d": 166.66650000000118,
      "v": 19
    },
    {
      "midi": 68,
      "hit": false,
      "t": 16493.03906250002,
      "d": 340.2774375000008,
      "v": 18
    },
    {
      "midi": 61,
      "hit": false,
      "t": 16840.260937500017,
      "d": 180.5553749999999,
      "v": 15
    },
    {
      "midi": 73,
      "hit": false,
      "t": 16840.260937500017,
      "d": 208.33312500000102,
      "v": 16
    },
    {
      "midi": 64,
      "hit": false,
      "t": 17159.70506250002,
      "d": 312.4996874999997,
      "v": 17
    },
    {
      "midi": 76,
      "hit": false,
      "t": 17159.70506250002,
      "d": 361.1107499999998,
      "v": 20
    },
    {
      "midi": 69,
      "hit": false,
      "t": 17493.038062500018,
      "d": 145.83318750000035,
      "v": 19
    },
    {
      "midi": 73,
      "hit": false,
      "t": 17652.76012500002,
      "d": 173.61093750000146,
      "v": 17
    },
    {
      "midi": 66,
      "hit": false,
      "t": 17833.31550000002,
      "d": 319.4441250000018,
      "v": 17
    },
    {
      "midi": 78,
      "hit": false,
      "t": 17833.31550000002,
      "d": 354.16631250000137,
      "v": 15
    },
    {
      "midi": 69,
      "hit": false,
      "t": 18152.75962500002,
      "d": 138.88874999999825,
      "v": 19
    },
    {
      "midi": 73,
      "hit": false,
      "t": 18312.481687500018,
      "d": 138.88874999999825,
      "v": 15
    },
    {
      "midi": 78,
      "hit": false,
      "t": 18479.148187500017,
      "d": 90.27768750000178,
      "v": 17
    },
    {
      "midi": 66,
      "hit": false,
      "t": 18493.037062500018,
      "d": 83.33324999999968,
      "v": 11
    },
    {
      "midi": 64,
      "hit": false,
      "t": 18666.64800000002,
      "d": 333.33300000000236,
      "v": 13
    },
    {
      "midi": 76,
      "hit": false,
      "t": 18680.53687500002,
      "d": 340.2774375000008,
      "v": 17
    },
    {
      "midi": 69,
      "hit": false,
      "t": 18999.98100000002,
      "d": 138.88874999999825,
      "v": 21
    },
    {
      "midi": 73,
      "hit": false,
      "t": 19173.59193750002,
      "d": 312.4996874999997,
      "v": 16
    },
    {
      "midi": 78,
      "hit": false,
      "t": 19513.86937500002,
      "d": 180.5553749999999,
      "v": 16
    },
    {
      "midi": 66,
      "hit": false,
      "t": 19513.86937500002,
      "d": 187.49981249999837,
      "v": 15
    },
    {
      "midi": 59,
      "hit": false,
      "t": 19861.09125000002,
      "d": 319.44412499999817,
      "v": 18
    },
    {
      "midi": 71,
      "hit": false,
      "t": 19868.035687500018,
      "d": 361.1107499999998,
      "v": 19
    },
    {
      "midi": 64,
      "hit": false,
      "t": 20201.368687500017,
      "d": 138.8887500000019,
      "v": 18
    },
    {
      "midi": 68,
      "hit": false,
      "t": 20347.201875000017,
      "d": 145.83318750000035,
      "v": 19
    },
    {
      "midi": 61,
      "hit": false,
      "t": 20499.979500000016,
      "d": 395.8329374999994,
      "v": 17
    },
    {
      "midi": 73,
      "hit": false,
      "t": 20513.868375000016,
      "d": 340.2774375000008,
      "v": 17
    },
    {
      "midi": 64,
      "hit": false,
      "t": 20861.090250000016,
      "d": 131.9443124999998,
      "v": 18
    },
    {
      "midi": 68,
      "hit": false,
      "t": 21006.923437500016,
      "d": 118.05543749999924,
      "v": 16
    },
    {
      "midi": 73,
      "hit": false,
      "t": 21131.923312500014,
      "d": 104.16656250000233,
      "v": 16
    },
    {
      "midi": 61,
      "hit": false,
      "t": 21159.701062500015,
      "d": 83.33324999999968,
      "v": 9
    },
    {
      "midi": 59,
      "hit": false,
      "t": 21340.256437500015,
      "d": 284.7219374999986,
      "v": 17
    },
    {
      "midi": 71,
      "hit": false,
      "t": 21340.256437500015,
      "d": 361.1107499999998,
      "v": 20
    },
    {
      "midi": 64,
      "hit": false,
      "t": 21666.645000000015,
      "d": 166.66649999999936,
      "v": 17
    },
    {
      "midi": 68,
      "hit": false,
      "t": 21847.200375000015,
      "d": 326.38856250000026,
      "v": 18
    },
    {
      "midi": 61,
      "hit": false,
      "t": 22180.533375000014,
      "d": 159.7220625000009,
      "v": 14
    },
    {
      "midi": 73,
      "hit": false,
      "t": 22180.533375000014,
      "d": 187.499812500002,
      "v": 15
    },
    {
      "midi": 76,
      "hit": false,
      "t": 22499.977500000015,
      "d": 361.1107499999962,
      "v": 19
    },
    {
      "midi": 64,
      "hit": false,
      "t": 22506.921937500014,
      "d": 326.38856250000026,
      "v": 17
    },
    {
      "midi": 69,
      "hit": false,
      "t": 22840.254937500013,
      "d": 145.83318750000035,
      "v": 20
    },
    {
      "midi": 73,
      "hit": false,
      "t": 22986.088125000013,
      "d": 159.7220625000009,
      "v": 17
    },
    {
      "midi": 66,
      "hit": false,
      "t": 23166.643500000013,
      "d": 326.38856250000026,
      "v": 16
    },
    {
      "midi": 78,
      "hit": false,
      "t": 23166.643500000013,
      "d": 347.2218749999993,
      "v": 20
    },
    {
      "midi": 69,
      "hit": false,
      "t": 23520.80981250001,
      "d": 111.11100000000079,
      "v": 18
    },
    {
      "midi": 73,
      "hit": false,
      "t": 23666.64300000001,
      "d": 138.8887500000019,
      "v": 16
    },
    {
      "midi": 78,
      "hit": false,
      "t": 23791.642875000012,
      "d": 118.05543750000288,
      "v": 13
    },
    {
      "midi": 66,
      "hit": false,
      "t": 23847.198375000014,
      "d": 76.38881250000122,
      "v": 13
    },
    {
      "midi": 76,
      "hit": false,
      "t": 24006.920437500015,
      "d": 340.2774375000008,
      "v": 18
    },
    {
      "midi": 64,
      "hit": false,
      "t": 24020.809312500016,
      "d": 263.8886249999996,
      "v": 13
    },
    {
      "midi": 69,
      "hit": false,
      "t": 24326.364562500017,
      "d": 152.7776249999988,
      "v": 20
    },
    {
      "midi": 73,
      "hit": false,
      "t": 24520.808812500018,
      "d": 298.61081249999916,
      "v": 17
    },
    {
      "midi": 78,
      "hit": false,
      "t": 24833.308500000017,
      "d": 166.66649999999936,
      "v": 18
    },
    {
      "midi": 66,
      "hit": false,
      "t": 24840.252937500016,
      "d": 173.61093750000146,
      "v": 16
    },
    {
      "midi": 59,
      "hit": false,
      "t": 25166.641500000016,
      "d": 319.44412499999817,
      "v": 17
    },
    {
      "midi": 71,
      "hit": false,
      "t": 25166.641500000016,
      "d": 374.9996250000004,
      "v": 19
    },
    {
      "midi": 64,
      "hit": false,
      "t": 25499.974500000015,
      "d": 145.83318750000035,
      "v": 19
    },
    {
      "midi": 68,
      "hit": false,
      "t": 25652.752125000014,
      "d": 145.83318750000035,
      "v": 18
    },
    {
      "midi": 61,
      "hit": false,
      "t": 25812.474187500015,
      "d": 298.61081249999916,
      "v": 15
    },
    {
      "midi": 73,
      "hit": false,
      "t": 25833.307500000014,
      "d": 270.8330625000017,
      "v": 15
    },
    {
      "midi": 64,
      "hit": false,
      "t": 26145.807187500013,
      "d": 138.88874999999825,
      "v": 18
    },
    {
      "midi": 68,
      "hit": false,
      "t": 26305.52925000001,
      "d": 131.9443124999998,
      "v": 18
    },
    {
      "midi": 73,
      "hit": false,
      "t": 26465.25131250001,
      "d": 83.33324999999968,
      "v": 15
    },
    {
      "midi": 61,
      "hit": false,
      "t": 26465.25131250001,
      "d": 104.16656249999869,
      "v": 12
    },
    {
      "midi": 59,
      "hit": false,
      "t": 26659.695562500012,
      "d": 305.55525000000125,
      "v": 15
    },
    {
      "midi": 71,
      "hit": false,
      "t": 26659.695562500012,
      "d": 347.2218749999993,
      "v": 19
    },
    {
      "midi": 64,
      "hit": false,
      "t": 26986.084125000012,
      "d": 159.72206249999726,
      "v": 18
    },
    {
      "midi": 68,
      "hit": false,
      "t": 27166.63950000001,
      "d": 298.61081249999916,
      "v": 19
    },
    {
      "midi": 61,
      "hit": false,
      "t": 27486.083625000007,
      "d": 187.49981249999837,
      "v": 14
    },
    {
      "midi": 73,
      "hit": false,
      "t": 27486.083625000007,
      "d": 215.27756249999948,
      "v": 15
    },
    {
      "midi": 76,
      "hit": false,
      "t": 27819.416625000005,
      "d": 388.8884999999973,
      "v": 18
    },
    {
      "midi": 64,
      "hit": false,
      "t": 27826.361062500004,
      "d": 312.4996874999997,
      "v": 15
    },
    {
      "midi": 69,
      "hit": false,
      "t": 28173.582937500003,
      "d": 131.9443124999998,
      "v": 18
    },
    {
      "midi": 73,
      "hit": false,
      "t": 28319.416125000003,
      "d": 166.66649999999936,
      "v": 15
    },
    {
      "midi": 66,
      "hit": false,
      "t": 28513.860375000004,
      "d": 319.44412499999817,
      "v": 15
    },
    {
      "midi": 78,
      "hit": false,
      "t": 28520.804812500002,
      "d": 361.1107499999998,
      "v": 16
    },
    {
      "midi": 69,
      "hit": false,
      "t": 28847.193375000003,
      "d": 152.7776249999988,
      "v": 19
    },
    {
      "midi": 73,
      "hit": false,
      "t": 29027.748750000002,
      "d": 118.05543749999924,
      "v": 13
    },
    {
      "midi": 78,
      "hit": false,
      "t": 29173.581937500003,
      "d": 76.38881249999758,
      "v": 16
    },
    {
      "midi": 66,
      "hit": false,
      "t": 29180.526375,
      "d": 83.33324999999968,
      "v": 13
    },
    {
      "midi": 64,
      "hit": false,
      "t": 29354.137312500003,
      "d": 284.7219374999986,
      "v": 15
    },
    {
      "midi": 76,
      "hit": false,
      "t": 29354.137312500003,
      "d": 347.2218749999993,
      "v": 19
    },
    {
      "midi": 69,
      "hit": false,
      "t": 29680.525875000003,
      "d": 145.83318750000035,
      "v": 21
    },
    {
      "midi": 73,
      "hit": false,
      "t": 29840.247937500004,
      "d": 326.38856250000026,
      "v": 17
    },
    {
      "midi": 78,
      "hit": false,
      "t": 30180.525375000005,
      "d": 145.8331874999967,
      "v": 17
    },
    {
      "midi": 66,
      "hit": false,
      "t": 30187.469812500003,
      "d": 152.7776249999988,
      "v": 16
    },
    {
      "midi": 59,
      "hit": false,
      "t": 30493.0250625,
      "d": 319.44412499999817,
      "v": 17
    },
    {
      "midi": 71,
      "hit": false,
      "t": 30499.9695,
      "d": 374.99962499999674,
      "v": 19
    },
    {
      "midi": 64,
      "hit": false,
      "t": 30819.413624999997,
      "d": 159.72206249999726,
      "v": 19
    },
    {
      "midi": 68,
      "hit": false,
      "t": 30972.191249999996,
      "d": 173.61093749999782,
      "v": 19
    },
    {
      "midi": 61,
      "hit": false,
      "t": 31152.746624999992,
      "d": 374.99962499999674,
      "v": 15
    },
    {
      "midi": 73,
      "hit": false,
      "t": 31159.69106249999,
      "d": 368.0551874999983,
      "v": 14
    },
    {
      "midi": 64,
      "hit": false,
      "t": 31506.91293749999,
      "d": 131.9443124999998,
      "v": 18
    },
    {
      "midi": 68,
      "hit": false,
      "t": 31645.80168749999,
      "d": 138.88874999999825,
      "v": 18
    },
    {
      "midi": 73,
      "hit": false,
      "t": 31812.468187499988,
      "d": 83.33324999999968,
      "v": 16
    },
    {
      "midi": 61,
      "hit": false,
      "t": 31812.468187499988,
      "d": 90.27768749999814,
      "v": 13
    },
    {
      "midi": 59,
      "hit": false,
      "t": 32006.912437499985,
      "d": 312.4996874999997,
      "v": 16
    },
    {
      "midi": 71,
      "hit": false,
      "t": 32006.912437499985,
      "d": 333.3329999999987,
      "v": 19
    },
    {
      "midi": 64,
      "hit": false,
      "t": 32333.300999999985,
      "d": 159.72206249999726,
      "v": 19
    },
    {
      "midi": 68,
      "hit": false,
      "t": 32520.800812499983,
      "d": 326.3885624999966,
      "v": 19
    },
    {
      "midi": 61,
      "hit": false,
      "t": 32861.07824999998,
      "d": 180.55537500000355,
      "v": 15
    },
    {
      "midi": 73,
      "hit": false,
      "t": 32861.07824999998,
      "d": 201.38868750000256,
      "v": 16
    },
    {
      "midi": 64,
      "hit": false,
      "t": 33180.52237499998,
      "d": 319.4441250000018,
      "v": 16
    },
    {
      "midi": 76,
      "hit": false,
      "t": 33180.52237499998,
      "d": 361.1107499999998,
      "v": 20
    },
    {
      "midi": 69,
      "hit": false,
      "t": 33513.85537499998,
      "d": 145.83318750000035,
      "v": 21
    },
    {
      "midi": 73,
      "hit": false,
      "t": 33659.68856249998,
      "d": 194.44425000000047,
      "v": 17
    },
    {
      "midi": 78,
      "hit": false,
      "t": 33847.188374999976,
      "d": 361.1107500000071,
      "v": 20
    },
    {
      "midi": 66,
      "hit": false,
      "t": 33854.13281249998,
      "d": 319.4441250000018,
      "v": 16
    },
    {
      "midi": 69,
      "hit": false,
      "t": 34180.52137499998,
      "d": 159.72206250000454,
      "v": 19
    },
    {
      "midi": 73,
      "hit": false,
      "t": 34347.18787499999,
      "d": 145.83318750000035,
      "v": 17
    },
    {
      "midi": 78,
      "hit": false,
      "t": 34506.909937499986,
      "d": 90.27768749999814,
      "v": 16
    },
    {
      "midi": 66,
      "hit": false,
      "t": 34520.79881249998,
      "d": 69.44437499999913,
      "v": 13
    },
    {
      "midi": 76,
      "hit": false,
      "t": 34680.52087499999,
      "d": 347.2218750000029,
      "v": 17
    },
    {
      "midi": 64,
      "hit": false,
      "t": 34687.46531249999,
      "d": 277.7774999999965,
      "v": 15
    },
    {
      "midi": 69,
      "hit": false,
      "t": 34999.96499999999,
      "d": 159.72206250000454,
      "v": 16
    },
    {
      "midi": 73,
      "hit": false,
      "t": 35166.631499999996,
      "d": 312.4996874999997,
      "v": 19
    },
    {
      "midi": 66,
      "hit": false,
      "t": 35499.964499999995,
      "d": 166.66649999999936,
      "v": 15
    },
    {
      "midi": 78,
      "hit": false,
      "t": 35499.964499999995,
      "d": 166.66649999999936,
      "v": 17
    },
    {
      "midi": 59,
      "hit": false,
      "t": 35819.408625,
      "d": 305.5552499999976,
      "v": 16
    },
    {
      "midi": 71,
      "hit": false,
      "t": 35833.29749999999,
      "d": 347.2218750000029,
      "v": 18
    },
    {
      "midi": 64,
      "hit": false,
      "t": 36152.741624999995,
      "d": 180.55537499999627,
      "v": 18
    },
    {
      "midi": 68,
      "hit": false,
      "t": 36319.408124999994,
      "d": 166.66649999999936,
      "v": 20
    },
    {
      "midi": 61,
      "hit": false,
      "t": 36493.019062499996,
      "d": 354.166312500005,
      "v": 12
    },
    {
      "midi": 73,
      "hit": false,
      "t": 36499.9635,
      "d": 368.0551875000019,
      "v": 15
    },
    {
      "midi": 64,
      "hit": false,
      "t": 36840.2409375,
      "d": 131.94431250000343,
      "v": 17
    },
    {
      "midi": 68,
      "hit": false,
      "t": 36993.0185625,
      "d": 152.77762500000244,
      "v": 17
    },
    {
      "midi": 73,
      "hit": false,
      "t": 37166.6295,
      "d": 83.33325000000332,
      "v": 14
    },
    {
      "midi": 61,
      "hit": false,
      "t": 37166.6295,
      "d": 97.22212500000023,
      "v": 13
    },
    {
      "midi": 71,
      "hit": false,
      "t": 37347.184875000006,
      "d": 340.2774375000008,
      "v": 19
    },
    {
      "midi": 59,
      "hit": false,
      "t": 37354.12931250001,
      "d": 291.6663750000007,
      "v": 16
    },
    {
      "midi": 64,
      "hit": false,
      "t": 37666.62900000001,
      "d": 152.77762500000244,
      "v": 18
    },
    {
      "midi": 68,
      "hit": false,
      "t": 37819.40662500001,
      "d": 326.3885624999966,
      "v": 19
    },
    {
      "midi": 61,
      "hit": false,
      "t": 38152.73962500001,
      "d": 166.66649999999936,
      "v": 15
    },
    {
      "midi": 73,
      "hit": false,
      "t": 38159.68406250001,
      "d": 173.61093749999418,
      "v": 15
    },
    {
      "midi": 64,
      "hit": false,
      "t": 38479.128187500006,
      "d": 333.3329999999987,
      "v": 16
    },
    {
      "midi": 76,
      "hit": false,
      "t": 38479.128187500006,
      "d": 388.88850000000093,
      "v": 19
    },
    {
      "midi": 69,
      "hit": false,
      "t": 38833.2945,
      "d": 145.83318750000035,
      "v": 19
    },
    {
      "midi": 73,
      "hit": false,
      "t": 38986.072125000006,
      "d": 166.66649999999936,
      "v": 17
    },
    {
      "midi": 66,
      "hit": false,
      "t": 39159.68306250001,
      "d": 354.16631249999773,
      "v": 15
    },
    {
      "midi": 78,
      "hit": false,
      "t": 39166.62750000001,
      "d": 361.11074999999255,
      "v": 15
    },
    {
      "midi": 69,
      "hit": false,
      "t": 39493.016062500006,
      "d": 159.72206249999726,
      "v": 22
    },
    {
      "midi": 73,
      "hit": false,
      "t": 39652.738125,
      "d": 145.83318750000035,
      "v": 17
    },
    {
      "midi": 78,
      "hit": false,
      "t": 39812.4601875,
      "d": 90.27768749999814,
      "v": 15
    },
    {
      "midi": 66,
      "hit": false,
      "t": 39826.3490625,
      "d": 90.27768749999814,
      "v": 14
    },
    {
      "midi": 64,
      "hit": false,
      "t": 40006.904437499994,
      "d": 298.6108125000028,
      "v": 15
    },
    {
      "midi": 76,
      "hit": false,
      "t": 40006.904437499994,
      "d": 347.2218750000029,
      "v": 18
    },
    {
      "midi": 69,
      "hit": false,
      "t": 40319.404124999994,
      "d": 152.77762500000244,
      "v": 18
    },
    {
      "midi": 73,
      "hit": false,
      "t": 40493.015062499995,
      "d": 312.4996874999997,
      "v": 16
    },
    {
      "midi": 66,
      "hit": false,
      "t": 40826.348062499994,
      "d": 159.72206249999726,
      "v": 15
    },
    {
      "midi": 78,
      "hit": false,
      "t": 40826.348062499994,
      "d": 159.72206249999726,
      "v": 16
    },
    {
      "midi": 59,
      "hit": false,
      "t": 41166.625499999995,
      "d": 312.4996874999997,
      "v": 16
    },
    {
      "midi": 71,
      "hit": false,
      "t": 41166.625499999995,
      "d": 361.1107499999998,
      "v": 19
    },
    {
      "midi": 64,
      "hit": false,
      "t": 41493.01406249999,
      "d": 152.77762500000244,
      "v": 18
    },
    {
      "midi": 68,
      "hit": false,
      "t": 41638.84724999999,
      "d": 166.66649999999936,
      "v": 19
    },
    {
      "midi": 61,
      "hit": false,
      "t": 41819.40262499999,
      "d": 361.1107499999998,
      "v": 14
    },
    {
      "midi": 73,
      "hit": false,
      "t": 41826.34706249999,
      "d": 381.94406249999884,
      "v": 17
    },
    {
      "midi": 64,
      "hit": false,
      "t": 42180.51337499999,
      "d": 138.88874999999825,
      "v": 18
    },
    {
      "midi": 68,
      "hit": false,
      "t": 42340.235437499985,
      "d": 118.05543749999924,
      "v": 17
    },
    {
      "midi": 73,
      "hit": false,
      "t": 42472.17974999998,
      "d": 111.11100000000442,
      "v": 14
    },
    {
      "midi": 61,
      "hit": false,
      "t": 42499.95749999998,
      "d": 104.16656250000233,
      "v": 13
    },
    {
      "midi": 59,
      "hit": false,
      "t": 42680.512874999986,
      "d": 291.6663750000007,
      "v": 15
    },
    {
      "midi": 71,
      "hit": false,
      "t": 42687.45731249999,
      "d": 333.3329999999987,
      "v": 18
    },
    {
      "midi": 64,
      "hit": false,
      "t": 42986.06812499998,
      "d": 152.77762500000244,
      "v": 17
    },
    {
      "midi": 68,
      "hit": false,
      "t": 43152.73462499998,
      "d": 312.4996874999997,
      "v": 18
    },
    {
      "midi": 61,
      "hit": false,
      "t": 43479.12318749998,
      "d": 166.66649999999936,
      "v": 14
    },
    {
      "midi": 73,
      "hit": false,
      "t": 43486.06762499998,
      "d": 194.44425000000047,
      "v": 15
    },
    {
      "midi": 76,
      "hit": false,
      "t": 43812.456187499985,
      "d": 388.88850000000093,
      "v": 17
    },
    {
      "midi": 64,
      "hit": false,
      "t": 43819.40062499999,
      "d": 312.4996874999997,
      "v": 14
    },
    {
      "midi": 69,
      "hit": false,
      "t": 44145.789187499984,
      "d": 152.77762500000244,
      "v": 20
    },
    {
      "midi": 73,
      "hit": false,
      "t": 44291.622374999984,
      "d": 187.49981250000565,
      "v": 18
    },
    {
      "midi": 66,
      "hit": false,
      "t": 44486.06662499999,
      "d": 368.0551875000019,
      "v": 17
    },
    {
      "midi": 78,
      "hit": false,
      "t": 44486.06662499999,
      "d": 395.832937500003,
      "v": 17
    },
    {
      "midi": 69,
      "hit": false,
      "t": 44847.17737499999,
      "d": 152.77762500000244,
      "v": 20
    },
    {
      "midi": 73,
      "hit": false,
      "t": 44986.066125,
      "d": 152.77762500000244,
      "v": 76
    },
    {
      "midi": 69,
      "hit": false,
      "t": 44986.066125,
      "d": 430.5551250000062,
      "v": 80
    },
    {
      "midi": 73,
      "hit": false,
      "t": 44999.954999999994,
      "d": 159.72206249999726,
      "v": 17
    },
    {
      "midi": 78,
      "hit": false,
      "t": 45173.56593749999,
      "d": 69.44437499999913,
      "v": 13
    },
    {
      "midi": 66,
      "hit": false,
      "t": 45173.56593749999,
      "d": 83.33324999999604,
      "v": 15
    },
    {
      "midi": 76,
      "hit": false,
      "t": 45201.3436875,
      "d": 222.22200000000885,
      "v": 84
    },
    {
      "midi": 73,
      "hit": false,
      "t": 45208.288125,
      "d": 201.38868750000256,
      "v": 89
    },
    {
      "midi": 64,
      "hit": false,
      "t": 45354.121312499985,
      "d": 312.4996874999997,
      "v": 15
    },
    {
      "midi": 76,
      "hit": false,
      "t": 45354.121312499985,
      "d": 347.22187499999563,
      "v": 20
    },
    {
      "midi": 69,
      "hit": false,
      "t": 45506.89893750001,
      "d": 208.33312499999738,
      "v": 94
    },
    {
      "midi": 73,
      "hit": false,
      "t": 45506.89893750001,
      "d": 215.27756249999948,
      "v": 84
    },
    {
      "midi": 76,
      "hit": false,
      "t": 45506.89893750001,
      "d": 215.27756249999948,
      "v": 95
    },
    {
      "midi": 69,
      "hit": false,
      "t": 45680.50987499998,
      "d": 187.49981249999837,
      "v": 17
    },
    {
      "midi": 76,
      "hit": false,
      "t": 45819.39862500001,
      "d": 48.611062500000116,
      "v": 81
    },
    {
      "midi": 73,
      "hit": false,
      "t": 45819.39862500001,
      "d": 62.49993749999703,
      "v": 72
    },
    {
      "midi": 69,
      "hit": false,
      "t": 45826.34306250001,
      "d": 69.44437499999185,
      "v": 84
    },
    {
      "midi": 73,
      "hit": false,
      "t": 45874.95412499998,
      "d": 374.99962499999674,
      "v": 16
    },
    {
      "midi": 69,
      "hit": false,
      "t": 45999.954000000005,
      "d": 236.1108749999985,
      "v": 89
    },
    {
      "midi": 78,
      "hit": false,
      "t": 45999.954000000005,
      "d": 249.9997499999954,
      "v": 80
    },
    {
      "midi": 73,
      "hit": false,
      "t": 46006.89843750001,
      "d": 256.9441874999902,
      "v": 65
    },
    {
      "midi": 78,
      "hit": false,
      "t": 46229.12043749998,
      "d": 159.72206249999726,
      "v": 13
    },
    {
      "midi": 66,
      "hit": false,
      "t": 46236.06487499998,
      "d": 166.66649999999208,
      "v": 12
    },
    {
      "midi": 69,
      "hit": false,
      "t": 46326.342562499995,
      "d": 48.611062500000116,
      "v": 85
    },
    {
      "midi": 73,
      "hit": false,
      "t": 46326.342562499995,
      "d": 62.49993749999703,
      "v": 77
    },
    {
      "midi": 78,
      "hit": false,
      "t": 46326.342562499995,
      "d": 62.49993749999703,
      "v": 84
    },
    {
      "midi": 76,
      "hit": false,
      "t": 46499.95349999999,
      "d": 1006.9434374999983,
      "v": 90
    },
    {
      "midi": 71,
      "hit": false,
      "t": 46499.95349999999,
      "d": 1055.5544999999984,
      "v": 70
    },
    {
      "midi": 80,
      "hit": false,
      "t": 46513.842374999986,
      "d": 1048.6100625000036,
      "v": 73
    },
    {
      "midi": 59,
      "hit": false,
      "t": 46555.50899999998,
      "d": 256.9441874999975,
      "v": 17
    },
    {
      "midi": 71,
      "hit": false,
      "t": 46555.50899999998,
      "d": 326.3885624999966,
      "v": 18
    },
    {
      "midi": 64,
      "hit": false,
      "t": 46854.11981249997,
      "d": 166.66649999999936,
      "v": 13
    },
    {
      "midi": 68,
      "hit": false,
      "t": 47020.78631249997,
      "d": 159.72206249999726,
      "v": 18
    },
    {
      "midi": 61,
      "hit": false,
      "t": 47180.50837499997,
      "d": 312.4996874999997,
      "v": 14
    },
    {
      "midi": 73,
      "hit": false,
      "t": 47187.45281249997,
      "d": 333.33299999999144,
      "v": 18
    },
    {
      "midi": 64,
      "hit": false,
      "t": 47506.896937499965,
      "d": 145.83318750000035,
      "v": 18
    },
    {
      "midi": 71,
      "hit": false,
      "t": 47652.73012499999,
      "d": 152.77762500000244,
      "v": 86
    },
    {
      "midi": 68,
      "hit": false,
      "t": 47673.563437499964,
      "d": 118.05543749999924,
      "v": 17
    },
    {
      "midi": 74,
      "hit": false,
      "t": 47673.563437499986,
      "d": 104.16656250000233,
      "v": 85
    },
    {
      "midi": 73,
      "hit": false,
      "t": 47812.45218749996,
      "d": 90.27768749999814,
      "v": 15
    },
    {
      "midi": 61,
      "hit": false,
      "t": 47833.28549999996,
      "d": 76.38881250000122,
      "v": 14
    },
    {
      "midi": 71,
      "hit": false,
      "t": 47861.06324999999,
      "d": 208.33312500000466,
      "v": 89
    },
    {
      "midi": 74,
      "hit": false,
      "t": 47868.007687499994,
      "d": 194.44425000000047,
      "v": 93
    },
    {
      "midi": 78,
      "hit": false,
      "t": 47868.007687499994,
      "d": 215.27756249999948,
      "v": 84
    },
    {
      "midi": 71,
      "hit": false,
      "t": 48013.840874999965,
      "d": 354.16631249999773,
      "v": 19
    },
    {
      "midi": 59,
      "hit": false,
      "t": 48020.78531249997,
      "d": 312.4996874999997,
      "v": 15
    },
    {
      "midi": 74,
      "hit": false,
      "t": 48173.56293749999,
      "d": 180.55537500000355,
      "v": 99
    },
    {
      "midi": 71,
      "hit": false,
      "t": 48173.56293749999,
      "d": 194.44425000000047,
      "v": 86
    },
    {
      "midi": 78,
      "hit": false,
      "t": 48173.56293749999,
      "d": 201.38868750000256,
      "v": 86
    },
    {
      "midi": 64,
      "hit": false,
      "t": 48354.118312499966,
      "d": 187.49981249999837,
      "v": 17
    },
    {
      "midi": 78,
      "hit": false,
      "t": 48472.173749999994,
      "d": 97.22212500000751,
      "v": 76
    },
    {
      "midi": 74,
      "hit": false,
      "t": 48479.1181875,
      "d": 76.38881250000122,
      "v": 89
    },
    {
      "midi": 71,
      "hit": false,
      "t": 48479.1181875,
      "d": 83.33325000000332,
      "v": 77
    },
    {
      "midi": 68,
      "hit": false,
      "t": 48548.56256249997,
      "d": 312.4996874999997,
      "v": 19
    },
    {
      "midi": 80,
      "hit": false,
      "t": 48659.6735625,
      "d": 243.05531250000786,
      "v": 76
    },
    {
      "midi": 71,
      "hit": false,
      "t": 48666.618,
      "d": 208.33312500000466,
      "v": 93
    },
    {
      "midi": 74,
      "hit": false,
      "t": 48673.562437500004,
      "d": 201.38868750000256,
      "v": 98
    },
    {
      "midi": 61,
      "hit": false,
      "t": 48874.95112499996,
      "d": 180.55537500000355,
      "v": 14
    },
    {
      "midi": 73,
      "hit": false,
      "t": 48881.895562499965,
      "d": 180.55537500000355,
      "v": 15
    },
    {
      "midi": 80,
      "hit": false,
      "t": 48972.17325000001,
      "d": 69.4443750000064,
      "v": 80
    },
    {
      "midi": 71,
      "hit": false,
      "t": 48979.11768750001,
      "d": 62.49993750000431,
      "v": 85
    },
    {
      "midi": 74,
      "hit": false,
      "t": 48986.06212500001,
      "d": 34.7221875000032,
      "v": 99
    },
    {
      "midi": 76,
      "hit": false,
      "t": 49159.67306249997,
      "d": 354.166312500005,
      "v": 20
    },
    {
      "midi": 76,
      "hit": false,
      "t": 49159.67306250001,
      "d": 1020.8323125000024,
      "v": 95
    },
    {
      "midi": 64,
      "hit": false,
      "t": 49166.61749999997,
      "d": 291.6663750000007,
      "v": 15
    },
    {
      "midi": 81,
      "hit": false,
      "t": 49166.617500000015,
      "d": 1006.9434374999983,
      "v": 99
    },
    {
      "midi": 73,
      "hit": false,
      "t": 49166.617500000015,
      "d": 1020.8323125000024,
      "v": 73
    },
    {
      "midi": 69,
      "hit": false,
      "t": 49486.06162499997,
      "d": 152.77762500000244,
      "v": 18
    },
    {
      "midi": 73,
      "hit": false,
      "t": 49659.672562499974,
      "d": 173.61093750000146,
      "v": 15
    },
    {
      "midi": 66,
      "hit": false,
      "t": 49840.22793749998,
      "d": 298.6108125000028,
      "v": 16
    },
    {
      "midi": 78,
      "hit": false,
      "t": 49847.17237499998,
      "d": 361.1107499999998,
      "v": 18
    },
    {
      "midi": 69,
      "hit": false,
      "t": 50187.44981249998,
      "d": 131.94431249999616,
      "v": 19
    },
    {
      "midi": 73,
      "hit": false,
      "t": 50312.44968750002,
      "d": 423.61068750000413,
      "v": 72
    },
    {
      "midi": 69,
      "hit": false,
      "t": 50319.39412500002,
      "d": 368.0551875000019,
      "v": 84
    },
    {
      "midi": 73,
      "hit": false,
      "t": 50354.11631249998,
      "d": 111.11099999999715,
      "v": 16
    },
    {
      "midi": 78,
      "hit": false,
      "t": 50506.893937499975,
      "d": 76.38881250000122,
      "v": 18
    },
    {
      "midi": 76,
      "hit": false,
      "t": 50506.89393750002,
      "d": 194.44425000000047,
      "v": 80
    },
    {
      "midi": 66,
      "hit": false,
      "t": 50513.83837499998,
      "d": 83.33324999999604,
      "v": 15
    },
    {
      "midi": 76,
      "hit": false,
      "t": 50680.50487499998,
      "d": 340.2774375000008,
      "v": 19
    },
    {
      "midi": 64,
      "hit": false,
      "t": 50687.44931249998,
      "d": 263.8886249999996,
      "v": 15
    },
    {
      "midi": 76,
      "hit": false,
      "t": 50812.449187500024,
      "d": 208.33312500000466,
      "v": 81
    },
    {
      "midi": 73,
      "hit": false,
      "t": 50812.449187500024,
      "d": 222.22200000000885,
      "v": 70
    },
    {
      "midi": 69,
      "hit": false,
      "t": 50819.393625000026,
      "d": 208.33312500000466,
      "v": 77
    },
    {
      "midi": 69,
      "hit": false,
      "t": 50993.00456249998,
      "d": 138.88874999999825,
      "v": 20
    },
    {
      "midi": 69,
      "hit": false,
      "t": 51124.94887500003,
      "d": 76.38881250000122,
      "v": 80
    },
    {
      "midi": 73,
      "hit": false,
      "t": 51131.89331250003,
      "d": 69.44437499999913,
      "v": 70
    },
    {
      "midi": 76,
      "hit": false,
      "t": 51138.837750000035,
      "d": 41.66662499999802,
      "v": 76
    },
    {
      "midi": 73,
      "hit": false,
      "t": 51166.61549999998,
      "d": 319.4441250000018,
      "v": 18
    },
    {
      "midi": 69,
      "hit": false,
      "t": 51298.55981250003,
      "d": 236.11087500000576,
      "v": 93
    },
    {
      "midi": 78,
      "hit": false,
      "t": 51305.504250000035,
      "d": 243.05531250000786,
      "v": 76
    },
    {
      "midi": 73,
      "hit": false,
      "t": 51312.44868750004,
      "d": 229.16643750000367,
      "v": 71
    },
    {
      "midi": 78,
      "hit": false,
      "t": 51513.83737499998,
      "d": 152.77762500000244,
      "v": 17
    },
    {
      "midi": 66,
      "hit": false,
      "t": 51513.83737499998,
      "d": 166.66649999999936,
      "v": 16
    },
    {
      "midi": 69,
      "hit": false,
      "t": 51645.78168750004,
      "d": 48.611062500000116,
      "v": 73
    },
    {
      "midi": 73,
      "hit": false,
      "t": 51645.78168750004,
      "d": 62.49993749999703,
      "v": 72
    },
    {
      "midi": 78,
      "hit": false,
      "t": 51652.726125000045,
      "d": 55.555499999994936,
      "v": 80
    },
    {
      "midi": 71,
      "hit": false,
      "t": 51826.33706250004,
      "d": 986.1101249999992,
      "v": 65
    },
    {
      "midi": 76,
      "hit": false,
      "t": 51826.33706250004,
      "d": 993.0545625000013,
      "v": 81
    },
    {
      "midi": 80,
      "hit": false,
      "t": 51826.33706250004,
      "d": 999.9990000000034,
      "v": 82
    },
    {
      "midi": 59,
      "hit": false,
      "t": 51833.28149999998,
      "d": 312.4996874999997,
      "v": 16
    },
    {
      "midi": 71,
      "hit": false,
      "t": 51833.28149999998,
      "d": 368.0551875000019,
      "v": 20
    },
    {
      "midi": 64,
      "hit": false,
      "t": 52166.61449999998,
      "d": 159.72206250000454,
      "v": 15
    },
    {
      "midi": 68,
      "hit": false,
      "t": 52333.28099999999,
      "d": 159.72206249999726,
      "v": 19
    },
    {
      "midi": 61,
      "hit": false,
      "t": 52499.94749999999,
      "d": 319.4441250000018,
      "v": 14
    },
    {
      "midi": 73,
      "hit": false,
      "t": 52499.94749999999,
      "d": 354.16631249999773,
      "v": 17
    },
    {
      "midi": 64,
      "hit": false,
      "t": 52833.280499999986,
      "d": 131.94431249999616,
      "v": 17
    },
    {
      "midi": 68,
      "hit": false,
      "t": 52979.11368749998,
      "d": 118.05543749999924,
      "v": 18
    },
    {
      "midi": 80,
      "hit": false,
      "t": 52986.05812500004,
      "d": 97.22212500000023,
      "v": 77
    },
    {
      "midi": 71,
      "hit": false,
      "t": 52993.00256250004,
      "d": 104.16656249999505,
      "v": 76
    },
    {
      "midi": 73,
      "hit": false,
      "t": 53124.94687499998,
      "d": 90.27768750000541,
      "v": 15
    },
    {
      "midi": 61,
      "hit": false,
      "t": 53131.89131249998,
      "d": 97.22212500000023,
      "v": 10
    },
    {
      "midi": 83,
      "hit": false,
      "t": 53180.50237500004,
      "d": 222.22200000000157,
      "v": 69
    },
    {
      "midi": 71,
      "hit": false,
      "t": 53180.50237500004,
      "d": 236.1108749999985,
      "v": 62
    },
    {
      "midi": 59,
      "hit": false,
      "t": 53326.33556249998,
      "d": 305.5552499999976,
      "v": 16
    },
    {
      "midi": 71,
      "hit": false,
      "t": 53326.33556249998,
      "d": 354.16631249999773,
      "v": 19
    },
    {
      "midi": 78,
      "hit": false,
      "t": 53506.89093750004,
      "d": 208.33312500000466,
      "v": 89
    },
    {
      "midi": 71,
      "hit": false,
      "t": 53513.83537500004,
      "d": 201.38868750000256,
      "v": 89
    },
    {
      "midi": 64,
      "hit": false,
      "t": 53673.55743749998,
      "d": 159.72206250000454,
      "v": 19
    },
    {
      "midi": 71,
      "hit": false,
      "t": 53812.44618750004,
      "d": 104.16656250000233,
      "v": 82
    },
    {
      "midi": 78,
      "hit": false,
      "t": 53819.390625000044,
      "d": 90.27768749999814,
      "v": 84
    },
    {
      "midi": 68,
      "hit": false,
      "t": 53847.16837499998,
      "d": 333.3329999999987,
      "v": 18
    },
    {
      "midi": 80,
      "hit": false,
      "t": 53999.94600000005,
      "d": 194.44425000000047,
      "v": 73
    },
    {
      "midi": 71,
      "hit": false,
      "t": 53999.94600000005,
      "d": 208.33312499999738,
      "v": 84
    },
    {
      "midi": 61,
      "hit": false,
      "t": 54187.44581249998,
      "d": 159.72206249999726,
      "v": 15
    },
    {
      "midi": 73,
      "hit": false,
      "t": 54187.44581249998,
      "d": 194.44425000000047,
      "v": 15
    },
    {
      "midi": 80,
      "hit": false,
      "t": 54326.334562500044,
      "d": 69.44437499999913,
      "v": 72
    },
    {
      "midi": 71,
      "hit": false,
      "t": 54333.279000000046,
      "d": 48.611062500000116,
      "v": 65
    },
    {
      "midi": 76,
      "hit": false,
      "t": 54479.11218749998,
      "d": 444.44400000000314,
      "v": 21
    },
    {
      "midi": 64,
      "hit": false,
      "t": 54486.05662499998,
      "d": 326.3885624999966,
      "v": 14
    },
    {
      "midi": 76,
      "hit": false,
      "t": 54506.88993750004,
      "d": 708.3326249999955,
      "v": 82
    },
    {
      "midi": 81,
      "hit": false,
      "t": 54520.77881250004,
      "d": 708.3326249999955,
      "v": 84
    },
    {
      "midi": 73,
      "hit": false,
      "t": 54520.77881250004,
      "d": 729.1659374999945,
      "v": 46
    },
    {
      "midi": 69,
      "hit": false,
      "t": 54840.22293749998,
      "d": 145.83318750000035,
      "v": 19
    },
    {
      "midi": 73,
      "hit": false,
      "t": 54993.00056249998,
      "d": 124.99987500000134,
      "v": 16
    },
    {
      "midi": 66,
      "hit": false,
      "t": 55173.55593749999,
      "d": 76.38881250000122,
      "v": 15
    },
    {
      "midi": 78,
      "hit": false,
      "t": 55173.55593749999,
      "d": 76.38881250000122,
      "v": 17
    },
    {
      "midi": 78,
      "hit": false,
      "t": 55326.33356250003,
      "d": 249.9997499999954,
      "v": 81
    },
    {
      "midi": 64,
      "hit": false,
      "t": 55340.222437499986,
      "d": 180.55537500000355,
      "v": 17
    },
    {
      "midi": 73,
      "hit": false,
      "t": 55340.22243750003,
      "d": 243.05531250000058,
      "v": 68
    },
    {
      "midi": 76,
      "hit": false,
      "t": 55347.16687499999,
      "d": 222.22200000000157,
      "v": 19
    },
    {
      "midi": 69,
      "hit": false,
      "t": 55513.83337499999,
      "d": 118.05543749999924,
      "v": 21
    },
    {
      "midi": 73,
      "hit": false,
      "t": 55666.61099999999,
      "d": 118.05543749999924,
      "v": 17
    },
    {
      "midi": 73,
      "hit": false,
      "t": 55666.61100000003,
      "d": 270.8330625000017,
      "v": 81
    },
    {
      "midi": 78,
      "hit": false,
      "t": 55673.555437500036,
      "d": 243.05531250000058,
      "v": 86
    },
    {
      "midi": 78,
      "hit": false,
      "t": 55840.22193749999,
      "d": 76.38881249999395,
      "v": 16
    },
    {
      "midi": 66,
      "hit": false,
      "t": 55854.11081249999,
      "d": 62.49993749999703,
      "v": 18
    },
    {
      "midi": 78,
      "hit": false,
      "t": 55992.99956250004,
      "d": 416.66625000000204,
      "v": 84
    },
    {
      "midi": 73,
      "hit": false,
      "t": 55999.94400000004,
      "d": 409.72181249999994,
      "v": 76
    },
    {
      "midi": 76,
      "hit": false,
      "t": 56013.832874999986,
      "d": 368.0551875000019,
      "v": 19
    },
    {
      "midi": 64,
      "hit": false,
      "t": 56020.77731249999,
      "d": 312.4996874999997,
      "v": 16
    },
    {
      "midi": 69,
      "hit": false,
      "t": 56340.22143749999,
      "d": 138.88874999999825,
      "v": 20
    },
    {
      "midi": 76,
      "hit": false,
      "t": 56486.05462500004,
      "d": 69.44437499999913,
      "v": 93
    },
    {
      "midi": 73,
      "hit": false,
      "t": 56486.05462500004,
      "d": 97.22212500000023,
      "v": 59
    },
    {
      "midi": 73,
      "hit": false,
      "t": 56499.94349999999,
      "d": 319.4441250000018,
      "v": 14
    },
    {
      "midi": 73,
      "hit": false,
      "t": 56659.66556250004,
      "d": 249.99975000000268,
      "v": 72
    },
    {
      "midi": 80,
      "hit": false,
      "t": 56666.610000000044,
      "d": 243.05531250000058,
      "v": 76
    },
    {
      "midi": 78,
      "hit": false,
      "t": 56833.276499999985,
      "d": 166.66649999999936,
      "v": 19
    },
    {
      "midi": 66,
      "hit": false,
      "t": 56833.276499999985,
      "d": 180.55537499999627,
      "v": 16
    },
    {
      "midi": 78,
      "hit": false,
      "t": 56986.054125000046,
      "d": 76.38881250000122,
      "v": 86
    },
    {
      "midi": 73,
      "hit": false,
      "t": 56992.99856250005,
      "d": 97.22212500000023,
      "v": 68
    },
    {
      "midi": 73,
      "hit": false,
      "t": 57159.66506250005,
      "d": 215.27756250000675,
      "v": 78
    },
    {
      "midi": 76,
      "hit": false,
      "t": 57166.60950000005,
      "d": 201.38868750000256,
      "v": 95
    },
    {
      "midi": 59,
      "hit": false,
      "t": 57173.55393749998,
      "d": 277.7775000000038,
      "v": 15
    },
    {
      "midi": 71,
      "hit": false,
      "t": 57180.49837499998,
      "d": 361.1107499999998,
      "v": 18
    },
    {
      "midi": 71,
      "hit": false,
      "t": 57499.942500000056,
      "d": 694.4437499999985,
      "v": 94
    },
    {
      "midi": 74,
      "hit": false,
      "t": 57499.942500000056,
      "d": 694.4437499999985,
      "v": 94
    },
    {
      "midi": 64,
      "hit": false,
      "t": 57520.77581249998,
      "d": 145.83318750000035,
      "v": 9
    },
    {
      "midi": 68,
      "hit": false,
      "t": 57666.60899999998,
      "d": 145.83318750000035,
      "v": 17
    },
    {
      "midi": 61,
      "hit": false,
      "t": 57826.33106249998,
      "d": 340.2774375000008,
      "v": 12
    },
    {
      "midi": 73,
      "hit": false,
      "t": 57826.33106249998,
      "d": 354.16631249999773,
      "v": 17
    },
    {
      "midi": 64,
      "hit": false,
      "t": 58159.66406249998,
      "d": 138.88874999999825,
      "v": 19
    },
    {
      "midi": 76,
      "hit": false,
      "t": 58298.55281250006,
      "d": 118.05543749999924,
      "v": 80
    },
    {
      "midi": 68,
      "hit": false,
      "t": 58326.33056249998,
      "d": 131.94431250000343,
      "v": 17
    },
    {
      "midi": 73,
      "hit": false,
      "t": 58472.16374999998,
      "d": 90.27768750000541,
      "v": 12
    },
    {
      "midi": 61,
      "hit": false,
      "t": 58479.10818749998,
      "d": 90.27768750000541,
      "v": 11
    },
    {
      "midi": 76,
      "hit": false,
      "t": 58499.94150000006,
      "d": 222.22200000000157,
      "v": 86
    },
    {
      "midi": 71,
      "hit": false,
      "t": 58499.94150000006,
      "d": 236.1108749999985,
      "v": 84
    },
    {
      "midi": 80,
      "hit": false,
      "t": 58506.88593750006,
      "d": 229.1664374999964,
      "v": 69
    },
    {
      "midi": 71,
      "hit": false,
      "t": 58666.607999999986,
      "d": 340.2774375000008,
      "v": 19
    },
    {
      "midi": 59,
      "hit": false,
      "t": 58673.55243749999,
      "d": 270.8330625000017,
      "v": 16
    },
    {
      "midi": 71,
      "hit": false,
      "t": 58826.330062500056,
      "d": 229.16643750000367,
      "v": 86
    },
    {
      "midi": 76,
      "hit": false,
      "t": 58833.27450000006,
      "d": 215.27756249999948,
      "v": 94
    },
    {
      "midi": 80,
      "hit": false,
      "t": 58833.27450000006,
      "d": 229.16643750000367,
      "v": 80
    },
    {
      "midi": 64,
      "hit": false,
      "t": 58992.99656249999,
      "d": 152.77762499999517,
      "v": 18
    },
    {
      "midi": 68,
      "hit": false,
      "t": 59152.71862499999,
      "d": 326.3885624999966,
      "v": 19
    },
    {
      "midi": 80,
      "hit": false,
      "t": 59152.71862500006,
      "d": 97.22212500000751,
      "v": 81
    },
    {
      "midi": 71,
      "hit": false,
      "t": 59152.71862500006,
      "d": 111.11100000000442,
      "v": 86
    },
    {
      "midi": 76,
      "hit": false,
      "t": 59159.66306250006,
      "d": 83.33325000000332,
      "v": 94
    },
    {
      "midi": 71,
      "hit": false,
      "t": 59326.32956250006,
      "d": 243.05531250000058,
      "v": 81
    },
    {
      "midi": 76,
      "hit": false,
      "t": 59333.27400000006,
      "d": 229.1664374999964,
      "v": 93
    },
    {
      "midi": 80,
      "hit": false,
      "t": 59333.27400000006,
      "d": 243.05531250000058,
      "v": 76
    },
    {
      "midi": 73,
      "hit": false,
      "t": 59499.94049999998,
      "d": 229.16643750000367,
      "v": 15
    },
    {
      "midi": 61,
      "hit": false,
      "t": 59506.884937499985,
      "d": 194.44425000000047,
      "v": 14
    },
    {
      "midi": 71,
      "hit": false,
      "t": 59666.60700000006,
      "d": 90.27768749999814,
      "v": 80
    },
    {
      "midi": 78,
      "hit": false,
      "t": 59666.60700000006,
      "d": 90.27768749999814,
      "v": 66
    },
    {
      "midi": 64,
      "hit": false,
      "t": 59833.27349999999,
      "d": 298.6108125000028,
      "v": 16
    },
    {
      "midi": 76,
      "hit": false,
      "t": 59833.27349999999,
      "d": 354.16631249999773,
      "v": 21
    },
    {
      "midi": 78,
      "hit": false,
      "t": 59840.21793750006,
      "d": 187.49981249999837,
      "v": 86
    },
    {
      "midi": 71,
      "hit": false,
      "t": 59840.21793750006,
      "d": 222.22200000000157,
      "v": 90
    },
    {
      "midi": 69,
      "hit": false,
      "t": 60166.60650000007,
      "d": 319.44412499999453,
      "v": 89
    },
    {
      "midi": 76,
      "hit": false,
      "t": 60166.60650000007,
      "d": 354.16631249999045,
      "v": 84
    },
    {
      "midi": 69,
      "hit": false,
      "t": 60173.55093749999,
      "d": 138.88874999999825,
      "v": 19
    },
    {
      "midi": 73,
      "hit": false,
      "t": 60180.495375000064,
      "d": 319.44412499999453,
      "v": 80
    },
    {
      "midi": 73,
      "hit": false,
      "t": 60326.328562499984,
      "d": 138.88874999999825,
      "v": 16
    },
    {
      "midi": 66,
      "hit": false,
      "t": 60486.05062499998,
      "d": 354.16631249999773,
      "v": 15
    },
    {
      "midi": 78,
      "hit": false,
      "t": 60486.05062499998,
      "d": 368.05518749999464,
      "v": 18
    },
    {
      "midi": 73,
      "hit": false,
      "t": 60680.494875000055,
      "d": 236.1108749999985,
      "v": 80
    },
    {
      "midi": 78,
      "hit": false,
      "t": 60687.43931250006,
      "d": 229.1664374999964,
      "v": 94
    },
    {
      "midi": 69,
      "hit": false,
      "t": 60854.105812499976,
      "d": 131.94431250000343,
      "v": 18
    },
    {
      "midi": 78,
      "hit": false,
      "t": 61020.772312500056,
      "d": 215.27756249999948,
      "v": 86
    },
    {
      "midi": 73,
      "hit": false,
      "t": 61020.772312500056,
      "d": 243.05531250000058,
      "v": 77
    },
    {
      "midi": 78,
      "hit": false,
      "t": 61145.77218749998,
      "d": 83.33325000000332,
      "v": 14
    },
    {
      "midi": 73,
      "hit": false,
      "t": 61319.38312500006,
      "d": 402.77737499999785,
      "v": 76
    },
    {
      "midi": 78,
      "hit": false,
      "t": 61319.38312500006,
      "d": 409.72181249999994,
      "v": 89
    },
    {
      "midi": 76,
      "hit": false,
      "t": 61333.27199999998,
      "d": 374.999625000004,
      "v": 19
    },
    {
      "midi": 64,
      "hit": false,
      "t": 61340.216437499985,
      "d": 326.3885624999966,
      "v": 15
    },
    {
      "midi": 69,
      "hit": false,
      "t": 61673.54943749998,
      "d": 152.77762500000244,
      "v": 20
    },
    {
      "midi": 76,
      "hit": false,
      "t": 61812.43818750006,
      "d": 76.38881250000122,
      "v": 93
    },
    {
      "midi": 73,
      "hit": false,
      "t": 61819.382625000064,
      "d": 90.27768749999814,
      "v": 66
    },
    {
      "midi": 73,
      "hit": false,
      "t": 61840.21593749998,
      "d": 312.4996874999997,
      "v": 17
    },
    {
      "midi": 80,
      "hit": false,
      "t": 61979.10468750006,
      "d": 249.9997499999954,
      "v": 82
    },
    {
      "midi": 73,
      "hit": false,
      "t": 61992.99356250006,
      "d": 215.27756249999948,
      "v": 78
    },
    {
      "midi": 78,
      "hit": false,
      "t": 62173.54893749998,
      "d": 173.61093750000146,
      "v": 18
    },
    {
      "midi": 66,
      "hit": false,
      "t": 62180.493374999984,
      "d": 173.61093750000146,
      "v": 16
    },
    {
      "midi": 78,
      "hit": false,
      "t": 62305.49325000006,
      "d": 90.27768749999814,
      "v": 84
    },
    {
      "midi": 76,
      "hit": false,
      "t": 62486.048625000054,
      "d": 201.38868750000256,
      "v": 94
    },
    {
      "midi": 73,
      "hit": false,
      "t": 62486.048625000054,
      "d": 215.27756249999948,
      "v": 72
    },
    {
      "midi": 59,
      "hit": false,
      "t": 62506.88193749999,
      "d": 319.4441250000018,
      "v": 13
    },
    {
      "midi": 72,
      "hit": false,
      "t": 62520.770812499984,
      "d": 83.33325000000332,
      "v": 17
    },
    {
      "midi": 71,
      "hit": false,
      "t": 62520.770812499984,
      "d": 354.166312500005,
      "v": 17
    },
    {
      "midi": 71,
      "hit": false,
      "t": 62819.38162500005,
      "d": 722.2214999999997,
      "v": 89
    },
    {
      "midi": 64,
      "hit": false,
      "t": 62826.32606249999,
      "d": 159.72206249999726,
      "v": 19
    },
    {
      "midi": 74,
      "hit": false,
      "t": 62826.326062500055,
      "d": 694.4437499999985,
      "v": 94
    },
    {
      "midi": 68,
      "hit": false,
      "t": 62992.99256249999,
      "d": 159.72206249999726,
      "v": 19
    },
    {
      "midi": 61,
      "hit": false,
      "t": 63159.65906249999,
      "d": 347.2218750000029,
      "v": 15
    },
    {
      "midi": 73,
      "hit": false,
      "t": 63166.60349999999,
      "d": 361.1107499999998,
      "v": 15
    },
    {
      "midi": 64,
      "hit": false,
      "t": 63486.04762499999,
      "d": 145.83318750000035,
      "v": 18
    },
    {
      "midi": 68,
      "hit": false,
      "t": 63638.825249999994,
      "d": 159.72206249999726,
      "v": 18
    },
    {
      "midi": 76,
      "hit": false,
      "t": 63645.769687500055,
      "d": 111.11099999999715,
      "v": 76
    },
    {
      "midi": 71,
      "hit": false,
      "t": 63652.71412500006,
      "d": 90.27768749999814,
      "v": 66
    },
    {
      "midi": 73,
      "hit": false,
      "t": 63812.43618749999,
      "d": 83.33325000000332,
      "v": 14
    },
    {
      "midi": 61,
      "hit": false,
      "t": 63819.38062499999,
      "d": 76.38881250000122,
      "v": 13
    },
    {
      "midi": 76,
      "hit": false,
      "t": 63840.213937500055,
      "d": 208.33312500000466,
      "v": 89
    },
    {
      "midi": 71,
      "hit": false,
      "t": 63840.213937500055,
      "d": 222.22200000000157,
      "v": 82
    },
    {
      "midi": 80,
      "hit": false,
      "t": 63847.15837500006,
      "d": 215.27756249999948,
      "v": 72
    },
    {
      "midi": 59,
      "hit": false,
      "t": 63999.935999999994,
      "d": 305.5552499999976,
      "v": 15
    },
    {
      "midi": 71,
      "hit": false,
      "t": 63999.935999999994,
      "d": 347.22187499999563,
      "v": 19
    },
    {
      "midi": 71,
      "hit": false,
      "t": 64152.713625000055,
      "d": 208.33312500000466,
      "v": 89
    },
    {
      "midi": 80,
      "hit": false,
      "t": 64152.713625000055,
      "d": 236.1108749999985,
      "v": 76
    },
    {
      "midi": 76,
      "hit": false,
      "t": 64159.65806250006,
      "d": 215.27756249999948,
      "v": 89
    },
    {
      "midi": 64,
      "hit": false,
      "t": 64333.26899999999,
      "d": 159.72206249999726,
      "v": 15
    },
    {
      "midi": 80,
      "hit": false,
      "t": 64479.10218750005,
      "d": 97.22212500000751,
      "v": 76
    },
    {
      "midi": 76,
      "hit": false,
      "t": 64486.04662500005,
      "d": 90.27768750000541,
      "v": 85
    },
    {
      "midi": 71,
      "hit": false,
      "t": 64492.991062500056,
      "d": 76.38881250000122,
      "v": 72
    },
    {
      "midi": 68,
      "hit": false,
      "t": 64499.93549999999,
      "d": 340.2774375000008,
      "v": 19
    },
    {
      "midi": 76,
      "hit": false,
      "t": 64652.71312500006,
      "d": 208.33312500000466,
      "v": 86
    },
    {
      "midi": 71,
      "hit": false,
      "t": 64659.65756250006,
      "d": 208.33312500000466,
      "v": 84
    },
    {
      "midi": 80,
      "hit": false,
      "t": 64666.602000000064,
      "d": 201.38868750000256,
      "v": 76
    },
    {
      "midi": 73,
      "hit": false,
      "t": 64840.21293749999,
      "d": 201.38868750000256,
      "v": 16
    },
    {
      "midi": 61,
      "hit": false,
      "t": 64847.157374999995,
      "d": 166.66649999999936,
      "v": 14
    },
    {
      "midi": 78,
      "hit": false,
      "t": 64965.21281250007,
      "d": 90.27768749999814,
      "v": 81
    },
    {
      "midi": 71,
      "hit": false,
      "t": 64965.21281250007,
      "d": 111.11099999999715,
      "v": 80
    },
    {
      "midi": 64,
      "hit": false,
      "t": 65159.657062499995,
      "d": 326.3885624999966,
      "v": 16
    },
    {
      "midi": 76,
      "hit": false,
      "t": 65159.657062499995,
      "d": 368.05518749999464,
      "v": 19
    },
    {
      "midi": 78,
      "hit": false,
      "t": 65159.65706250007,
      "d": 180.55537500000355,
      "v": 84
    },
    {
      "midi": 71,
      "hit": false,
      "t": 65159.65706250007,
      "d": 222.22200000000157,
      "v": 89
    },
    {
      "midi": 73,
      "hit": false,
      "t": 65492.99006250007,
      "d": 854.1658125000031,
      "v": 77
    },
    {
      "midi": 76,
      "hit": false,
      "t": 65492.99006250007,
      "d": 854.1658125000031,
      "v": 84
    },
    {
      "midi": 69,
      "hit": false,
      "t": 65499.93449999999,
      "d": 145.83318750000035,
      "v": 20
    },
    {
      "midi": 69,
      "hit": false,
      "t": 65499.93450000007,
      "d": 854.1658125000031,
      "v": 82
    },
    {
      "midi": 73,
      "hit": false,
      "t": 65652.71212499999,
      "d": 138.88874999999825,
      "v": 17
    },
    {
      "midi": 66,
      "hit": false,
      "t": 65819.37862499998,
      "d": 319.44412499999453,
      "v": 17
    },
    {
      "midi": 78,
      "hit": false,
      "t": 65819.37862499998,
      "d": 381.94406249999884,
      "v": 17
    },
    {
      "midi": 69,
      "hit": false,
      "t": 66145.76718749998,
      "d": 152.77762500000244,
      "v": 21
    },
    {
      "midi": 73,
      "hit": false,
      "t": 66326.32256249998,
      "d": 131.94431249999616,
      "v": 15
    },
    {
      "midi": 73,
      "hit": false,
      "t": 66465.21131250008,
      "d": 104.16656250000233,
      "v": 67
    },
    {
      "midi": 69,
      "hit": false,
      "t": 66472.15575000008,
      "d": 97.22212500000023,
      "v": 80
    },
    {
      "midi": 78,
      "hit": false,
      "t": 66486.04462499997,
      "d": 69.4443750000064,
      "v": 16
    },
    {
      "midi": 66,
      "hit": false,
      "t": 66492.98906249997,
      "d": 69.4443750000064,
      "v": 15
    },
    {
      "midi": 64,
      "hit": false,
      "t": 66659.65556249997,
      "d": 319.44412499999453,
      "v": 15
    },
    {
      "midi": 76,
      "hit": false,
      "t": 66659.65556249997,
      "d": 368.05518749999464,
      "v": 20
    },
    {
      "midi": 69,
      "hit": false,
      "t": 66673.54443750008,
      "d": 159.72206250000454,
      "v": 85
    },
    {
      "midi": 73,
      "hit": false,
      "t": 66673.54443750008,
      "d": 180.55537500001083,
      "v": 73
    },
    {
      "midi": 76,
      "hit": false,
      "t": 66673.54443750008,
      "d": 187.49981250001292,
      "v": 82
    },
    {
      "midi": 69,
      "hit": false,
      "t": 66909.6553125001,
      "d": 138.88874999999825,
      "v": 85
    },
    {
      "midi": 73,
      "hit": false,
      "t": 66909.6553125001,
      "d": 159.72206250000454,
      "v": 73
    },
    {
      "midi": 76,
      "hit": false,
      "t": 66909.6553125001,
      "d": 173.61093750000873,
      "v": 82
    },
    {
      "midi": 69,
      "hit": false,
      "t": 66992.98856249997,
      "d": 173.61093749999418,
      "v": 20
    },
    {
      "midi": 73,
      "hit": false,
      "t": 67173.54393749997,
      "d": 361.1107500000071,
      "v": 17
    },
    {
      "midi": 73,
      "hit": false,
      "t": 67201.32168750011,
      "d": 55.55550000000221,
      "v": 68
    },
    {
      "midi": 69,
      "hit": false,
      "t": 67201.32168750011,
      "d": 69.4443750000064,
      "v": 80
    },
    {
      "midi": 76,
      "hit": false,
      "t": 67208.26612500011,
      "d": 34.722187499995925,
      "v": 64
    },
    {
      "midi": 69,
      "hit": false,
      "t": 67347.15487500011,
      "d": 222.22200000000885,
      "v": 72
    },
    {
      "midi": 78,
      "hit": false,
      "t": 67354.09931250011,
      "d": 229.16643750001094,
      "v": 77
    },
    {
      "midi": 73,
      "hit": false,
      "t": 67354.09931250011,
      "d": 236.11087500001304,
      "v": 71
    },
    {
      "midi": 66,
      "hit": false,
      "t": 67569.37687499997,
      "d": 180.55537500001083,
      "v": 14
    },
    {
      "midi": 78,
      "hit": false,
      "t": 67576.32131249997,
      "d": 152.77762500000244,
      "v": 15
    },
    {
      "midi": 73,
      "hit": false,
      "t": 67666.59900000012,
      "d": 62.49993750000431,
      "v": 69
    },
    {
      "midi": 78,
      "hit": false,
      "t": 67673.54343750012,
      "d": 62.49993750000431,
      "v": 85
    },
    {
      "midi": 69,
      "hit": false,
      "t": 67687.43231250012,
      "d": 27.77774999999383,
      "v": 62
    },
    {
      "midi": 76,
      "hit": false,
      "t": 67854.09881250013,
      "d": 979.1656875000044,
      "v": 93
    },
    {
      "midi": 80,
      "hit": false,
      "t": 67854.09881250013,
      "d": 1013.8878750000003,
      "v": 94
    },
    {
      "midi": 71,
      "hit": false,
      "t": 67854.09881250013,
      "d": 1020.8323125000024,
      "v": 78
    },
    {
      "midi": 59,
      "hit": false,
      "t": 67909.65431249999,
      "d": 291.6663750000007,
      "v": 17
    },
    {
      "midi": 71,
      "hit": false,
      "t": 67909.65431249999,
      "d": 326.3885624999966,
      "v": 20
    },
    {
      "midi": 64,
      "hit": false,
      "t": 68187.43181249998,
      "d": 187.49981250001292,
      "v": 18
    },
    {
      "midi": 68,
      "hit": false,
      "t": 68354.09831249999,
      "d": 173.61093750000873,
      "v": 19
    },
    {
      "midi": 61,
      "hit": false,
      "t": 68513.820375,
      "d": 374.9996250000113,
      "v": 17
    },
    {
      "midi": 73,
      "hit": false,
      "t": 68534.6536875,
      "d": 333.3329999999987,
      "v": 17
    },
    {
      "midi": 64,
      "hit": false,
      "t": 68861.04225,
      "d": 124.99987500000861,
      "v": 19
    },
    {
      "midi": 74,
      "hit": false,
      "t": 68979.09768750014,
      "d": 138.88874999999825,
      "v": 90
    },
    {
      "midi": 71,
      "hit": false,
      "t": 68979.09768750014,
      "d": 152.77762500000244,
      "v": 82
    },
    {
      "midi": 68,
      "hit": false,
      "t": 69006.87543750001,
      "d": 152.77762500000244,
      "v": 18
    },
    {
      "midi": 61,
      "hit": false,
      "t": 69145.76418750001,
      "d": 83.3332500000106,
      "v": 9
    },
    {
      "midi": 74,
      "hit": false,
      "t": 69194.37525000014,
      "d": 187.49981249999837,
      "v": 101
    },
    {
      "midi": 78,
      "hit": false,
      "t": 69194.37525000014,
      "d": 222.2219999999943,
      "v": 85
    },
    {
      "midi": 71,
      "hit": false,
      "t": 69201.31968750014,
      "d": 187.49981249999837,
      "v": 77
    },
    {
      "midi": 59,
      "hit": false,
      "t": 69347.15287500003,
      "d": 284.7219374999986,
      "v": 16
    },
    {
      "midi": 71,
      "hit": false,
      "t": 69347.15287500003,
      "d": 347.22187499998836,
      "v": 18
    },
    {
      "midi": 71,
      "hit": false,
      "t": 69513.81937500014,
      "d": 173.61093750000873,
      "v": 93
    },
    {
      "midi": 78,
      "hit": false,
      "t": 69513.81937500014,
      "d": 201.38868750000256,
      "v": 89
    },
    {
      "midi": 74,
      "hit": false,
      "t": 69520.76381250014,
      "d": 166.66650000000664,
      "v": 99
    },
    {
      "midi": 64,
      "hit": false,
      "t": 69659.65256250002,
      "d": 159.72206249999,
      "v": 18
    },
    {
      "midi": 74,
      "hit": false,
      "t": 69812.43018750014,
      "d": 69.4443750000064,
      "v": 93
    },
    {
      "midi": 71,
      "hit": false,
      "t": 69812.43018750014,
      "d": 83.3332500000106,
      "v": 82
    },
    {
      "midi": 78,
      "hit": false,
      "t": 69812.43018750014,
      "d": 83.3332500000106,
      "v": 80
    },
    {
      "midi": 68,
      "hit": false,
      "t": 69847.152375,
      "d": 305.5552500000049,
      "v": 17
    },
    {
      "midi": 71,
      "hit": false,
      "t": 69986.04112500015,
      "d": 222.2219999999943,
      "v": 89
    },
    {
      "midi": 80,
      "hit": false,
      "t": 69986.04112500015,
      "d": 236.1108749999985,
      "v": 72
    },
    {
      "midi": 74,
      "hit": false,
      "t": 69999.93000000015,
      "d": 180.55537499999627,
      "v": 101
    },
    {
      "midi": 61,
      "hit": false,
      "t": 70166.59650000001,
      "d": 180.55537499999627,
      "v": 13
    },
    {
      "midi": 73,
      "hit": false,
      "t": 70173.54093750002,
      "d": 187.49981249999837,
      "v": 15
    },
    {
      "midi": 71,
      "hit": false,
      "t": 70312.42968750015,
      "d": 55.55550000000221,
      "v": 89
    },
    {
      "midi": 80,
      "hit": false,
      "t": 70312.42968750015,
      "d": 55.55550000000221,
      "v": 70
    },
    {
      "midi": 74,
      "hit": false,
      "t": 70319.37412500015,
      "d": 34.722187499995925,
      "v": 94
    },
    {
      "midi": 64,
      "hit": false,
      "t": 70472.15175000002,
      "d": 326.3885624999966,
      "v": 15
    },
    {
      "midi": 76,
      "hit": false,
      "t": 70479.09618750002,
      "d": 361.1107500000071,
      "v": 19
    },
    {
      "midi": 73,
      "hit": false,
      "t": 70499.92950000014,
      "d": 972.2212500000023,
      "v": 76
    },
    {
      "midi": 76,
      "hit": false,
      "t": 70499.92950000014,
      "d": 972.2212500000023,
      "v": 95
    },
    {
      "midi": 81,
      "hit": false,
      "t": 70506.87393750015,
      "d": 965.2768125000002,
      "v": 94
    },
    {
      "midi": 69,
      "hit": false,
      "t": 70819.37362500002,
      "d": 152.77762500000244,
      "v": 21
    },
    {
      "midi": 73,
      "hit": false,
      "t": 70972.15125000002,
      "d": 173.61093749999418,
      "v": 15
    },
    {
      "midi": 66,
      "hit": false,
      "t": 71166.59550000002,
      "d": 368.05518749999464,
      "v": 16
    },
    {
      "midi": 78,
      "hit": false,
      "t": 71166.59550000002,
      "d": 368.05518749999464,
      "v": 14
    },
    {
      "midi": 69,
      "hit": false,
      "t": 71506.87293750003,
      "d": 145.83318750000035,
      "v": 22
    },
    {
      "midi": 69,
      "hit": false,
      "t": 71631.87281250015,
      "d": 138.88874999999825,
      "v": 90
    },
    {
      "midi": 73,
      "hit": false,
      "t": 71631.87281250015,
      "d": 145.83318750000035,
      "v": 76
    },
    {
      "midi": 73,
      "hit": false,
      "t": 71666.59500000003,
      "d": 138.88874999999825,
      "v": 17
    },
    {
      "midi": 78,
      "hit": false,
      "t": 71812.42818750003,
      "d": 97.22212500000023,
      "v": 17
    },
    {
      "midi": 66,
      "hit": false,
      "t": 71826.31706250003,
      "d": 90.27768749999814,
      "v": 12
    },
    {
      "midi": 76,
      "hit": false,
      "t": 71826.31706250015,
      "d": 222.22200000000885,
      "v": 76
    },
    {
      "midi": 69,
      "hit": false,
      "t": 71840.20593750016,
      "d": 173.61093749999418,
      "v": 89
    },
    {
      "midi": 73,
      "hit": false,
      "t": 71840.20593750016,
      "d": 194.44425000000047,
      "v": 73
    },
    {
      "midi": 64,
      "hit": false,
      "t": 72013.81687500003,
      "d": 263.88862500000687,
      "v": 17
    },
    {
      "midi": 76,
      "hit": false,
      "t": 72013.81687500003,
      "d": 340.2774375000008,
      "v": 19
    },
    {
      "midi": 69,
      "hit": false,
      "t": 72159.65006250016,
      "d": 201.38868750000256,
      "v": 94
    },
    {
      "midi": 76,
      "hit": false,
      "t": 72159.65006250016,
      "d": 201.38868750000256,
      "v": 85
    },
    {
      "midi": 73,
      "hit": false,
      "t": 72166.59450000017,
      "d": 201.38868750000256,
      "v": 80
    },
    {
      "midi": 69,
      "hit": false,
      "t": 72312.42768750004,
      "d": 159.72206250000454,
      "v": 19
    },
    {
      "midi": 76,
      "hit": false,
      "t": 72465.20531250017,
      "d": 62.49993750000431,
      "v": 78
    },
    {
      "midi": 69,
      "hit": false,
      "t": 72472.14975000017,
      "d": 62.49993750000431,
      "v": 70
    },
    {
      "midi": 73,
      "hit": false,
      "t": 72472.14975000017,
      "d": 69.4443750000064,
      "v": 64
    },
    {
      "midi": 73,
      "hit": false,
      "t": 72499.92750000003,
      "d": 298.6108125000028,
      "v": 17
    },
    {
      "midi": 69,
      "hit": false,
      "t": 72659.64956250018,
      "d": 215.27756250000675,
      "v": 94
    },
    {
      "midi": 78,
      "hit": false,
      "t": 72659.64956250018,
      "d": 229.16643750001094,
      "v": 84
    },
    {
      "midi": 73,
      "hit": false,
      "t": 72659.64956250018,
      "d": 236.11087500001304,
      "v": 85
    },
    {
      "midi": 78,
      "hit": false,
      "t": 72819.37162500004,
      "d": 180.55537499999627,
      "v": 17
    },
    {
      "midi": 66,
      "hit": false,
      "t": 72826.31606250005,
      "d": 180.55537499999627,
      "v": 15
    },
    {
      "midi": 73,
      "hit": false,
      "t": 72999.9270000002,
      "d": 62.49993750000431,
      "v": 72
    },
    {
      "midi": 78,
      "hit": false,
      "t": 73006.8714375002,
      "d": 55.55550000000221,
      "v": 74
    },
    {
      "midi": 69,
      "hit": false,
      "t": 73013.8158750002,
      "d": 27.77774999999383,
      "v": 60
    },
    {
      "midi": 59,
      "hit": false,
      "t": 73152.70462500004,
      "d": 277.7774999999965,
      "v": 17
    },
    {
      "midi": 71,
      "hit": false,
      "t": 73152.70462500004,
      "d": 395.8329374999885,
      "v": 19
    },
    {
      "midi": 76,
      "hit": false,
      "t": 73180.48237500021,
      "d": 951.387937499996,
      "v": 93
    },
    {
      "midi": 71,
      "hit": false,
      "t": 73180.48237500021,
      "d": 993.0545624999941,
      "v": 68
    },
    {
      "midi": 80,
      "hit": false,
      "t": 73187.42681250021,
      "d": 993.0545624999941,
      "v": 98
    },
    {
      "midi": 64,
      "hit": false,
      "t": 73506.87093750003,
      "d": 152.77762500000244,
      "v": 18
    },
    {
      "midi": 68,
      "hit": false,
      "t": 73680.48187500004,
      "d": 152.77762500000244,
      "v": 17
    },
    {
      "midi": 61,
      "hit": false,
      "t": 73840.20393750005,
      "d": 319.4441250000091,
      "v": 14
    },
    {
      "midi": 73,
      "hit": false,
      "t": 73847.14837500005,
      "d": 340.2774375000008,
      "v": 16
    },
    {
      "midi": 64,
      "hit": false,
      "t": 74187.42581250005,
      "d": 111.11100000000442,
      "v": 17
    },
    {
      "midi": 80,
      "hit": false,
      "t": 74305.4812500002,
      "d": 111.11100000000442,
      "v": 74
    },
    {
      "midi": 71,
      "hit": false,
      "t": 74319.3701250002,
      "d": 97.22212500000023,
      "v": 76
    },
    {
      "midi": 68,
      "hit": false,
      "t": 74333.25900000005,
      "d": 124.99987499999406,
      "v": 17
    },
    {
      "midi": 73,
      "hit": false,
      "t": 74479.09218750005,
      "d": 76.3888125000085,
      "v": 15
    },
    {
      "midi": 61,
      "hit": false,
      "t": 74486.03662500005,
      "d": 83.3332500000106,
      "v": 12
    },
    {
      "midi": 83,
      "hit": false,
      "t": 74513.8143750002,
      "d": 222.22200000000885,
      "v": 85
    },
    {
      "midi": 71,
      "hit": false,
      "t": 74520.75881250021,
      "d": 201.38868750000256,
      "v": 80
    },
    {
      "midi": 71,
      "hit": false,
      "t": 74673.53643750006,
      "d": 354.16631250001956,
      "v": 19
    },
    {
      "midi": 59,
      "hit": false,
      "t": 74680.48087500007,
      "d": 305.5552500000049,
      "v": 13
    },
    {
      "midi": 78,
      "hit": false,
      "t": 74840.20293750022,
      "d": 194.44425000000047,
      "v": 86
    },
    {
      "midi": 71,
      "hit": false,
      "t": 74840.20293750022,
      "d": 201.38868750000256,
      "v": 81
    },
    {
      "midi": 64,
      "hit": false,
      "t": 75006.86943750008,
      "d": 166.66650000000664,
      "v": 18
    },
    {
      "midi": 78,
      "hit": false,
      "t": 75145.75818750022,
      "d": 83.33324999999604,
      "v": 85
    },
    {
      "midi": 71,
      "hit": false,
      "t": 75152.70262500022,
      "d": 97.22212500000023,
      "v": 85
    },
    {
      "midi": 68,
      "hit": false,
      "t": 75180.48037500009,
      "d": 333.3329999999987,
      "v": 17
    },
    {
      "midi": 80,
      "hit": false,
      "t": 75326.31356250022,
      "d": 201.38868750000256,
      "v": 72
    },
    {
      "midi": 71,
      "hit": false,
      "t": 75333.25800000022,
      "d": 201.38868750000256,
      "v": 85
    },
    {
      "midi": 61,
      "hit": false,
      "t": 75513.81337500009,
      "d": 166.66650000000664,
      "v": 14
    },
    {
      "midi": 73,
      "hit": false,
      "t": 75520.75781250009,
      "d": 180.55537500001083,
      "v": 16
    },
    {
      "midi": 80,
      "hit": false,
      "t": 75645.75768750023,
      "d": 76.3888125000085,
      "v": 77
    },
    {
      "midi": 71,
      "hit": false,
      "t": 75652.70212500023,
      "d": 55.55550000000221,
      "v": 80
    },
    {
      "midi": 64,
      "hit": false,
      "t": 75812.4241875001,
      "d": 319.4441250000091,
      "v": 17
    },
    {
      "midi": 76,
      "hit": false,
      "t": 75819.3686250001,
      "d": 368.05518749999464,
      "v": 19
    },
    {
      "midi": 76,
      "hit": false,
      "t": 75826.31306250024,
      "d": 736.1103750000038,
      "v": 73
    },
    {
      "midi": 81,
      "hit": false,
      "t": 75833.25750000024,
      "d": 736.1103750000038,
      "v": 89
    },
    {
      "midi": 73,
      "hit": false,
      "t": 75840.20193750024,
      "d": 736.1103750000038,
      "v": 58
    },
    {
      "midi": 69,
      "hit": false,
      "t": 76159.6460625001,
      "d": 138.88874999999825,
      "v": 20
    },
    {
      "midi": 73,
      "hit": false,
      "t": 76312.42368750011,
      "d": 152.77762500000244,
      "v": 17
    },
    {
      "midi": 66,
      "hit": false,
      "t": 76492.9790625001,
      "d": 305.5552500000049,
      "v": 17
    },
    {
      "midi": 78,
      "hit": false,
      "t": 76492.9790625001,
      "d": 354.166312500005,
      "v": 17
    },
    {
      "midi": 78,
      "hit": false,
      "t": 76666.59000000024,
      "d": 243.05531250000058,
      "v": 84
    },
    {
      "midi": 73,
      "hit": false,
      "t": 76687.42331250025,
      "d": 222.2219999999943,
      "v": 72
    },
    {
      "midi": 69,
      "hit": false,
      "t": 76812.42318750011,
      "d": 131.94431249999616,
      "v": 19
    },
    {
      "midi": 73,
      "hit": false,
      "t": 76979.0896875001,
      "d": 124.99987499999406,
      "v": 16
    },
    {
      "midi": 73,
      "hit": false,
      "t": 76999.92300000024,
      "d": 249.99975000000268,
      "v": 78
    },
    {
      "midi": 78,
      "hit": false,
      "t": 76999.92300000024,
      "d": 249.99975000000268,
      "v": 89
    },
    {
      "midi": 78,
      "hit": false,
      "t": 77152.7006250001,
      "d": 76.3888125000085,
      "v": 14
    },
    {
      "midi": 66,
      "hit": false,
      "t": 77166.5895000001,
      "d": 76.3888125000085,
      "v": 12
    },
    {
      "midi": 78,
      "hit": false,
      "t": 77326.31156250024,
      "d": 444.44400000000314,
      "v": 94
    },
    {
      "midi": 73,
      "hit": false,
      "t": 77333.25600000024,
      "d": 423.61068749999686,
      "v": 81
    },
    {
      "midi": 76,
      "hit": false,
      "t": 77340.20043750011,
      "d": 340.2774375000008,
      "v": 18
    },
    {
      "midi": 64,
      "hit": false,
      "t": 77347.14487500011,
      "d": 291.6663750000007,
      "v": 16
    },
    {
      "midi": 69,
      "hit": false,
      "t": 77666.58900000011,
      "d": 124.99987500000861,
      "v": 20
    },
    {
      "midi": 73,
      "hit": false,
      "t": 77833.25550000012,
      "d": 298.6108125000028,
      "v": 16
    },
    {
      "midi": 76,
      "hit": false,
      "t": 77833.25550000025,
      "d": 69.4443750000064,
      "v": 89
    },
    {
      "midi": 73,
      "hit": false,
      "t": 77847.14437500025,
      "d": 83.33324999999604,
      "v": 52
    },
    {
      "midi": 73,
      "hit": false,
      "t": 78006.86643750024,
      "d": 243.05531250000058,
      "v": 74
    },
    {
      "midi": 80,
      "hit": false,
      "t": 78006.86643750024,
      "d": 243.05531250000058,
      "v": 85
    },
    {
      "midi": 78,
      "hit": false,
      "t": 78152.69962500012,
      "d": 166.66650000000664,
      "v": 17
    },
    {
      "midi": 66,
      "hit": false,
      "t": 78159.64406250013,
      "d": 173.61093750000873,
      "v": 15
    },
    {
      "midi": 78,
      "hit": false,
      "t": 78326.31056250024,
      "d": 76.38881249999395,
      "v": 81
    },
    {
      "midi": 73,
      "hit": false,
      "t": 78326.31056250024,
      "d": 118.05543749999197,
      "v": 70
    },
    {
      "midi": 71,
      "hit": false,
      "t": 78472.14375000013,
      "d": 388.8884999999864,
      "v": 18
    },
    {
      "midi": 59,
      "hit": false,
      "t": 78479.08818750014,
      "d": 319.44412499999453,
      "v": 17
    },
    {
      "midi": 73,
      "hit": false,
      "t": 78479.08818750022,
      "d": 236.1108749999985,
      "v": 69
    },
    {
      "midi": 76,
      "hit": false,
      "t": 78486.03262500023,
      "d": 201.38868750000256,
      "v": 98
    },
    {
      "midi": 64,
      "hit": false,
      "t": 78826.31006250012,
      "d": 145.83318750000035,
      "v": 19
    },
    {
      "midi": 71,
      "hit": false,
      "t": 78826.31006250023,
      "d": 659.7215624999953,
      "v": 85
    },
    {
      "midi": 74,
      "hit": false,
      "t": 78826.31006250023,
      "d": 666.6659999999974,
      "v": 89
    },
    {
      "midi": 68,
      "hit": false,
      "t": 78972.14325000012,
      "d": 166.66650000000664,
      "v": 19
    },
    {
      "midi": 61,
      "hit": false,
      "t": 79152.69862500014,
      "d": 340.2774375000008,
      "v": 14
    },
    {
      "midi": 73,
      "hit": false,
      "t": 79159.64306250014,
      "d": 361.1107500000071,
      "v": 18
    },
    {
      "midi": 64,
      "hit": false,
      "t": 79506.86493750014,
      "d": 131.9443125000107,
      "v": 18
    },
    {
      "midi": 76,
      "hit": false,
      "t": 79617.97593750022,
      "d": 118.05543750000652,
      "v": 84
    },
    {
      "midi": 71,
      "hit": false,
      "t": 79631.86481250022,
      "d": 97.22212500000023,
      "v": 68
    },
    {
      "midi": 68,
      "hit": false,
      "t": 79659.64256250016,
      "d": 138.88874999999825,
      "v": 18
    },
    {
      "midi": 61,
      "hit": false,
      "t": 79819.36462500016,
      "d": 83.3332500000106,
      "v": 13
    },
    {
      "midi": 76,
      "hit": false,
      "t": 79819.36462500022,
      "d": 236.1108749999985,
      "v": 89
    },
    {
      "midi": 73,
      "hit": false,
      "t": 79826.30906250016,
      "d": 69.4443750000064,
      "v": 15
    },
    {
      "midi": 71,
      "hit": false,
      "t": 79826.30906250022,
      "d": 236.1108749999985,
      "v": 80
    },
    {
      "midi": 80,
      "hit": false,
      "t": 79826.30906250022,
      "d": 236.1108749999985,
      "v": 64
    },
    {
      "midi": 59,
      "hit": false,
      "t": 80006.86443750017,
      "d": 298.6108125000028,
      "v": 16
    },
    {
      "midi": 71,
      "hit": false,
      "t": 80006.86443750017,
      "d": 347.2218750000029,
      "v": 20
    },
    {
      "midi": 80,
      "hit": false,
      "t": 80152.69762500022,
      "d": 263.88862500000687,
      "v": 80
    },
    {
      "midi": 76,
      "hit": false,
      "t": 80159.64206250022,
      "d": 236.1108749999985,
      "v": 89
    },
    {
      "midi": 71,
      "hit": false,
      "t": 80159.64206250022,
      "d": 243.05531250000058,
      "v": 81
    },
    {
      "midi": 64,
      "hit": false,
      "t": 80340.19743750017,
      "d": 159.72206250000454,
      "v": 18
    },
    {
      "midi": 76,
      "hit": false,
      "t": 80479.08618750023,
      "d": 104.16656250000233,
      "v": 93
    },
    {
      "midi": 80,
      "hit": false,
      "t": 80479.08618750023,
      "d": 111.11100000000442,
      "v": 66
    },
    {
      "midi": 71,
      "hit": false,
      "t": 80479.08618750023,
      "d": 118.05543750000652,
      "v": 76
    },
    {
      "midi": 68,
      "hit": false,
      "t": 80513.80837500018,
      "d": 333.3329999999987,
      "v": 20
    },
    {
      "midi": 71,
      "hit": false,
      "t": 80659.64156250024,
      "d": 256.9441875000048,
      "v": 81
    },
    {
      "midi": 80,
      "hit": false,
      "t": 80659.64156250024,
      "d": 256.9441875000048,
      "v": 84
    },
    {
      "midi": 76,
      "hit": false,
      "t": 80666.58600000024,
      "d": 243.05531250000058,
      "v": 95
    },
    {
      "midi": 61,
      "hit": false,
      "t": 80854.08581250018,
      "d": 173.61093749999418,
      "v": 15
    },
    {
      "midi": 73,
      "hit": false,
      "t": 80854.08581250018,
      "d": 201.388687499988,
      "v": 16
    },
    {
      "midi": 78,
      "hit": false,
      "t": 80992.97456250024,
      "d": 83.3332500000106,
      "v": 78
    },
    {
      "midi": 71,
      "hit": false,
      "t": 81006.86343750024,
      "d": 90.27768750001269,
      "v": 70
    },
    {
      "midi": 76,
      "hit": false,
      "t": 81159.64106250017,
      "d": 374.99962499999674,
      "v": 20
    },
    {
      "midi": 78,
      "hit": false,
      "t": 81159.64106250026,
      "d": 215.27756250000675,
      "v": 84
    },
    {
      "midi": 64,
      "hit": false,
      "t": 81166.58550000018,
      "d": 291.6663750000007,
      "v": 17
    },
    {
      "midi": 71,
      "hit": false,
      "t": 81166.58550000026,
      "d": 236.1108749999985,
      "v": 84
    },
    {
      "midi": 69,
      "hit": false,
      "t": 81499.91850000017,
      "d": 152.77762500000244,
      "v": 20
    },
    {
      "midi": 76,
      "hit": false,
      "t": 81506.86293750026,
      "d": 402.7773750000197,
      "v": 84
    },
    {
      "midi": 69,
      "hit": false,
      "t": 81513.80737500027,
      "d": 354.166312500005,
      "v": 89
    },
    {
      "midi": 73,
      "hit": false,
      "t": 81513.80737500027,
      "d": 374.9996250000113,
      "v": 86
    },
    {
      "midi": 73,
      "hit": false,
      "t": 81652.69612500018,
      "d": 159.72206250000454,
      "v": 18
    },
    {
      "midi": 66,
      "hit": false,
      "t": 81833.25150000019,
      "d": 312.499687500007,
      "v": 17
    },
    {
      "midi": 78,
      "hit": false,
      "t": 81833.25150000019,
      "d": 368.05518749999464,
      "v": 18
    },
    {
      "midi": 78,
      "hit": false,
      "t": 82020.75131250029,
      "d": 243.05531250000058,
      "v": 110
    },
    {
      "midi": 69,
      "hit": false,
      "t": 82173.52893750019,
      "d": 138.88874999999825,
      "v": 18
    },
    {
      "midi": 73,
      "hit": false,
      "t": 82326.30656250019,
      "d": 131.94431249999616,
      "v": 15
    },
    {
      "midi": 78,
      "hit": false,
      "t": 82340.19543750028,
      "d": 263.88862500000687,
      "v": 89
    },
    {
      "midi": 73,
      "hit": false,
      "t": 82340.19543750028,
      "d": 277.77750000001106,
      "v": 74
    },
    {
      "midi": 78,
      "hit": false,
      "t": 82486.02862500018,
      "d": 69.4443750000064,
      "v": 17
    },
    {
      "midi": 66,
      "hit": false,
      "t": 82492.97306250018,
      "d": 69.4443750000064,
      "v": 15
    },
    {
      "midi": 64,
      "hit": false,
      "t": 82659.63956250019,
      "d": 291.6663750000007,
      "v": 16
    },
    {
      "midi": 76,
      "hit": false,
      "t": 82659.63956250019,
      "d": 361.11074999999255,
      "v": 19
    },
    {
      "midi": 73,
      "hit": false,
      "t": 82687.4173125003,
      "d": 562.4994375000097,
      "v": 81
    },
    {
      "midi": 78,
      "hit": false,
      "t": 82694.3617500003,
      "d": 395.832937500003,
      "v": 93
    },
    {
      "midi": 69,
      "hit": false,
      "t": 82979.08368750018,
      "d": 166.66649999999208,
      "v": 18
    },
    {
      "midi": 73,
      "hit": false,
      "t": 83152.69462500018,
      "d": 305.5552500000049,
      "v": 17
    },
    {
      "midi": 76,
      "hit": false,
      "t": 83152.69462500031,
      "d": 83.33324999999604,
      "v": 93
    },
    {
      "midi": 80,
      "hit": false,
      "t": 83326.3055625003,
      "d": 249.99975000000268,
      "v": 84
    },
    {
      "midi": 73,
      "hit": false,
      "t": 83326.3055625003,
      "d": 263.88862500000687,
      "v": 76
    },
    {
      "midi": 78,
      "hit": false,
      "t": 83472.13875000019,
      "d": 152.77762500000244,
      "v": 18
    },
    {
      "midi": 66,
      "hit": false,
      "t": 83479.08318750019,
      "d": 159.72206250000454,
      "v": 17
    },
    {
      "midi": 78,
      "hit": false,
      "t": 83645.74968750031,
      "d": 83.3332500000106,
      "v": 84
    },
    {
      "midi": 73,
      "hit": false,
      "t": 83666.58300000032,
      "d": 69.4443750000064,
      "v": 44
    },
    {
      "midi": 71,
      "hit": false,
      "t": 83805.4717500002,
      "d": 416.6662500000093,
      "v": 13
    },
    {
      "midi": 76,
      "hit": false,
      "t": 83812.41618750032,
      "d": 222.2219999999943,
      "v": 95
    },
    {
      "midi": 73,
      "hit": false,
      "t": 83812.41618750032,
      "d": 249.99974999998813,
      "v": 72
    },
    {
      "midi": 57,
      "hit": false,
      "t": 83819.3606250002,
      "d": 236.1108749999985,
      "v": 12
    },
    {
      "midi": 59,
      "hit": false,
      "t": 83826.3050625002,
      "d": 326.3885624999966,
      "v": 11
    },
    {
      "midi": 64,
      "hit": false,
      "t": 84152.6936250002,
      "d": 166.66650000000664,
      "v": 17
    },
    {
      "midi": 71,
      "hit": false,
      "t": 84159.63806250031,
      "d": 701.3881875000079,
      "v": 89
    },
    {
      "midi": 74,
      "hit": false,
      "t": 84166.58250000031,
      "d": 701.3881875000079,
      "v": 94
    },
    {
      "midi": 68,
      "hit": false,
      "t": 84326.30456250021,
      "d": 159.72206250000454,
      "v": 18
    },
    {
      "midi": 61,
      "hit": false,
      "t": 84479.08218750021,
      "d": 368.0551875000092,
      "v": 15
    },
    {
      "midi": 73,
      "hit": false,
      "t": 84492.97106250022,
      "d": 381.94406249999884,
      "v": 16
    },
    {
      "midi": 64,
      "hit": false,
      "t": 84826.30406250022,
      "d": 145.83318750000035,
      "v": 18
    },
    {
      "midi": 76,
      "hit": false,
      "t": 84965.19281250032,
      "d": 131.9443125000107,
      "v": 84
    },
    {
      "midi": 68,
      "hit": false,
      "t": 84979.08168750022,
      "d": 159.72206250000454,
      "v": 17
    },
    {
      "midi": 71,
      "hit": false,
      "t": 84979.08168750032,
      "d": 111.11100000000442,
      "v": 72
    },
    {
      "midi": 73,
      "hit": false,
      "t": 85159.63706250023,
      "d": 69.4443750000064,
      "v": 13
    },
    {
      "midi": 61,
      "hit": false,
      "t": 85159.63706250023,
      "d": 76.3888125000085,
      "v": 15
    },
    {
      "midi": 76,
      "hit": false,
      "t": 85173.52593750032,
      "d": 215.27756250000675,
      "v": 84
    },
    {
      "midi": 71,
      "hit": false,
      "t": 85173.52593750032,
      "d": 229.16643750001094,
      "v": 82
    },
    {
      "midi": 80,
      "hit": false,
      "t": 85180.47037500032,
      "d": 222.22200000000885,
      "v": 76
    },
    {
      "midi": 59,
      "hit": false,
      "t": 85333.24800000024,
      "d": 305.5552500000049,
      "v": 15
    },
    {
      "midi": 71,
      "hit": false,
      "t": 85333.24800000024,
      "d": 368.05518749999464,
      "v": 20
    },
    {
      "midi": 76,
      "hit": false,
      "t": 85486.02562500033,
      "d": 236.1108749999985,
      "v": 94
    },
    {
      "midi": 71,
      "hit": false,
      "t": 85492.97006250033,
      "d": 236.1108749999985,
      "v": 90
    },
    {
      "midi": 80,
      "hit": false,
      "t": 85492.97006250033,
      "d": 249.99975000000268,
      "v": 80
    },
    {
      "midi": 64,
      "hit": false,
      "t": 85666.58100000024,
      "d": 138.88874999999825,
      "v": 19
    },
    {
      "midi": 68,
      "hit": false,
      "t": 85819.35862500024,
      "d": 333.3329999999987,
      "v": 18
    },
    {
      "midi": 76,
      "hit": false,
      "t": 85819.35862500033,
      "d": 83.33324999999604,
      "v": 84
    },
    {
      "midi": 80,
      "hit": false,
      "t": 85819.35862500033,
      "d": 90.27768749999814,
      "v": 76
    },
    {
      "midi": 71,
      "hit": false,
      "t": 85826.30306250033,
      "d": 90.27768749999814,
      "v": 78
    },
    {
      "midi": 76,
      "hit": false,
      "t": 85992.96956250032,
      "d": 201.38868750000256,
      "v": 90
    },
    {
      "midi": 71,
      "hit": false,
      "t": 85992.96956250032,
      "d": 236.11087500001304,
      "v": 84
    },
    {
      "midi": 80,
      "hit": false,
      "t": 85999.91400000032,
      "d": 215.27756250000675,
      "v": 74
    },
    {
      "midi": 61,
      "hit": false,
      "t": 86173.52493750025,
      "d": 138.88874999999825,
      "v": 15
    },
    {
      "midi": 73,
      "hit": false,
      "t": 86173.52493750025,
      "d": 173.61093749999418,
      "v": 16
    },
    {
      "midi": 71,
      "hit": false,
      "t": 86312.41368750033,
      "d": 124.99987499999406,
      "v": 77
    },
    {
      "midi": 78,
      "hit": false,
      "t": 86319.35812500033,
      "d": 90.27768749999814,
      "v": 81
    },
    {
      "midi": 76,
      "hit": false,
      "t": 86479.08018750024,
      "d": 395.8329374999885,
      "v": 19
    },
    {
      "midi": 64,
      "hit": false,
      "t": 86486.02462500024,
      "d": 319.44412499999453,
      "v": 16
    },
    {
      "midi": 78,
      "hit": false,
      "t": 86492.96906250033,
      "d": 187.49981249999837,
      "v": 84
    },
    {
      "midi": 71,
      "hit": false,
      "t": 86499.91350000033,
      "d": 215.2775624999922,
      "v": 89
    },
    {
      "midi": 69,
      "hit": false,
      "t": 86826.30206250033,
      "d": 312.499687500007,
      "v": 80
    },
    {
      "midi": 76,
      "hit": false,
      "t": 86826.30206250033,
      "d": 493.05506250000326,
      "v": 81
    },
    {
      "midi": 69,
      "hit": false,
      "t": 86833.24650000023,
      "d": 145.83318750000035,
      "v": 20
    },
    {
      "midi": 73,
      "hit": false,
      "t": 86833.24650000033,
      "d": 312.499687500007,
      "v": 80
    },
    {
      "midi": 73,
      "hit": false,
      "t": 86986.02412500023,
      "d": 152.77762500000244,
      "v": 18
    },
    {
      "midi": 69,
      "hit": false,
      "t": 87138.80175000033,
      "d": 180.55537499999627,
      "v": 93
    },
    {
      "midi": 73,
      "hit": false,
      "t": 87145.74618750034,
      "d": 180.55537499999627,
      "v": 74
    },
    {
      "midi": 66,
      "hit": false,
      "t": 87159.63506250024,
      "d": 333.3329999999987,
      "v": 15
    },
    {
      "midi": 78,
      "hit": false,
      "t": 87166.57950000024,
      "d": 347.2218750000029,
      "v": 16
    },
    {
      "midi": 76,
      "hit": false,
      "t": 87319.35712500033,
      "d": 326.3885624999966,
      "v": 84
    },
    {
      "midi": 69,
      "hit": false,
      "t": 87319.35712500033,
      "d": 333.3329999999987,
      "v": 84
    },
    {
      "midi": 73,
      "hit": false,
      "t": 87326.30156250033,
      "d": 326.3885624999966,
      "v": 73
    },
    {
      "midi": 69,
      "hit": false,
      "t": 87492.96806250024,
      "d": 138.8887500000128,
      "v": 22
    },
    {
      "midi": 76,
      "hit": false,
      "t": 87645.74568750033,
      "d": 645.8326874999912,
      "v": 94
    },
    {
      "midi": 73,
      "hit": false,
      "t": 87652.69012500026,
      "d": 131.94431249999616,
      "v": 15
    },
    {
      "midi": 69,
      "hit": false,
      "t": 87652.69012500033,
      "d": 319.44412499999453,
      "v": 94
    },
    {
      "midi": 73,
      "hit": false,
      "t": 87652.69012500033,
      "d": 319.44412499999453,
      "v": 78
    },
    {
      "midi": 78,
      "hit": false,
      "t": 87812.41218750025,
      "d": 90.27768749999814,
      "v": 17
    },
    {
      "midi": 66,
      "hit": false,
      "t": 87826.30106250025,
      "d": 83.33324999999604,
      "v": 13
    },
    {
      "midi": 69,
      "hit": false,
      "t": 87972.13425000032,
      "d": 388.88850000000093,
      "v": 94
    },
    {
      "midi": 73,
      "hit": false,
      "t": 87972.13425000032,
      "d": 402.7773750000051,
      "v": 77
    },
    {
      "midi": 78,
      "hit": false,
      "t": 87972.13425000032,
      "d": 402.7773750000051,
      "v": 76
    },
    {
      "midi": 64,
      "hit": false,
      "t": 88006.85643750025,
      "d": 256.9441875000048,
      "v": 16
    },
    {
      "midi": 76,
      "hit": false,
      "t": 88006.85643750025,
      "d": 319.44412499999453,
      "v": 18
    },
    {
      "midi": 69,
      "hit": false,
      "t": 88298.52281250025,
      "d": 138.88874999999825,
      "v": 21
    },
    {
      "midi": 73,
      "hit": false,
      "t": 88479.07818750024,
      "d": 326.3885624999966,
      "v": 17
    },
    {
      "midi": 73,
      "hit": false,
      "t": 88479.07818750033,
      "d": 83.33324999999604,
      "v": 71
    },
    {
      "midi": 69,
      "hit": false,
      "t": 88479.07818750033,
      "d": 97.22212500000023,
      "v": 81
    },
    {
      "midi": 69,
      "hit": false,
      "t": 88659.63356250033,
      "d": 236.1108749999985,
      "v": 93
    },
    {
      "midi": 76,
      "hit": false,
      "t": 88659.63356250033,
      "d": 249.99975000000268,
      "v": 85
    },
    {
      "midi": 73,
      "hit": false,
      "t": 88666.57800000033,
      "d": 229.1664374999964,
      "v": 80
    },
    {
      "midi": 78,
      "hit": false,
      "t": 88833.24450000023,
      "d": 180.55537499999627,
      "v": 16
    },
    {
      "midi": 66,
      "hit": false,
      "t": 88840.18893750024,
      "d": 180.55537499999627,
      "v": 15
    },
    {
      "midi": 76,
      "hit": false,
      "t": 88992.96656250033,
      "d": 166.66650000000664,
      "v": 89
    },
    {
      "midi": 73,
      "hit": false,
      "t": 88992.96656250033,
      "d": 173.61093750000873,
      "v": 80
    },
    {
      "midi": 69,
      "hit": false,
      "t": 88992.96656250033,
      "d": 194.44425000001502,
      "v": 94
    },
    {
      "midi": 59,
      "hit": false,
      "t": 89180.46637500024,
      "d": 319.44412499999453,
      "v": 17
    },
    {
      "midi": 71,
      "hit": false,
      "t": 89180.46637500024,
      "d": 374.99962499999674,
      "v": 19
    },
    {
      "midi": 71,
      "hit": false,
      "t": 89312.41068750033,
      "d": 826.388062500002,
      "v": 93
    },
    {
      "midi": 74,
      "hit": false,
      "t": 89312.41068750033,
      "d": 833.3325000000041,
      "v": 94
    },
    {
      "midi": 64,
      "hit": false,
      "t": 89506.85493750023,
      "d": 159.72206250000454,
      "v": 19
    },
    {
      "midi": 68,
      "hit": false,
      "t": 89680.46587500024,
      "d": 159.72206250000454,
      "v": 16
    },
    {
      "midi": 61,
      "hit": false,
      "t": 89840.18793750025,
      "d": 326.3885624999966,
      "v": 15
    },
    {
      "midi": 73,
      "hit": false,
      "t": 89847.13237500025,
      "d": 361.11074999999255,
      "v": 17
    },
    {
      "midi": 64,
      "hit": false,
      "t": 90173.52093750025,
      "d": 118.05543749999197,
      "v": 18
    },
    {
      "midi": 76,
      "hit": false,
      "t": 90305.46525000034,
      "d": 118.05543750000652,
      "v": 85
    },
    {
      "midi": 68,
      "hit": false,
      "t": 90319.35412500023,
      "d": 118.05543750000652,
      "v": 16
    },
    {
      "midi": 71,
      "hit": false,
      "t": 90319.35412500035,
      "d": 111.11100000000442,
      "v": 61
    },
    {
      "midi": 73,
      "hit": false,
      "t": 90479.07618750024,
      "d": 62.49993750000431,
      "v": 12
    },
    {
      "midi": 61,
      "hit": false,
      "t": 90479.07618750024,
      "d": 69.4443750000064,
      "v": 13
    },
    {
      "midi": 71,
      "hit": false,
      "t": 90499.90950000036,
      "d": 270.8330624999944,
      "v": 78
    },
    {
      "midi": 80,
      "hit": false,
      "t": 90506.85393750036,
      "d": 270.8330624999944,
      "v": 76
    },
    {
      "midi": 76,
      "hit": false,
      "t": 90534.63168750035,
      "d": 222.2219999999943,
      "v": 93
    },
    {
      "midi": 71,
      "hit": false,
      "t": 90652.68712500024,
      "d": 361.11074999999255,
      "v": 19
    },
    {
      "midi": 59,
      "hit": false,
      "t": 90659.63156250025,
      "d": 284.7219374999986,
      "v": 15
    },
    {
      "midi": 76,
      "hit": false,
      "t": 90854.07581250035,
      "d": 201.38868750000256,
      "v": 89
    },
    {
      "midi": 71,
      "hit": false,
      "t": 90854.07581250035,
      "d": 208.33312500000466,
      "v": 78
    },
    {
      "midi": 80,
      "hit": false,
      "t": 90854.07581250035,
      "d": 215.27756250000675,
      "v": 81
    },
    {
      "midi": 64,
      "hit": false,
      "t": 90972.13125000024,
      "d": 180.55537499999627,
      "v": 18
    },
    {
      "midi": 68,
      "hit": false,
      "t": 91152.68662500023,
      "d": 340.2774375000008,
      "v": 19
    },
    {
      "midi": 76,
      "hit": false,
      "t": 91152.68662500035,
      "d": 83.33324999999604,
      "v": 84
    },
    {
      "midi": 80,
      "hit": false,
      "t": 91152.68662500035,
      "d": 97.22212500000023,
      "v": 76
    },
    {
      "midi": 71,
      "hit": false,
      "t": 91159.63106250035,
      "d": 83.33324999999604,
      "v": 70
    },
    {
      "midi": 71,
      "hit": false,
      "t": 91340.18643750035,
      "d": 215.27756250000675,
      "v": 78
    },
    {
      "midi": 76,
      "hit": false,
      "t": 91347.13087500035,
      "d": 215.27756250000675,
      "v": 86
    },
    {
      "midi": 80,
      "hit": false,
      "t": 91347.13087500035,
      "d": 215.27756250000675,
      "v": 74
    },
    {
      "midi": 61,
      "hit": false,
      "t": 91499.90850000024,
      "d": 152.77762500000244,
      "v": 13
    },
    {
      "midi": 73,
      "hit": false,
      "t": 91506.85293750024,
      "d": 166.66650000000664,
      "v": 16
    },
    {
      "midi": 78,
      "hit": false,
      "t": 91652.68612500036,
      "d": 104.16656250000233,
      "v": 72
    },
    {
      "midi": 71,
      "hit": false,
      "t": 91666.57500000036,
      "d": 104.16656250000233,
      "v": 74
    },
    {
      "midi": 76,
      "hit": false,
      "t": 91819.35262500025,
      "d": 381.9440625000134,
      "v": 18
    },
    {
      "midi": 64,
      "hit": false,
      "t": 91826.29706250025,
      "d": 305.5552500000049,
      "v": 17
    },
    {
      "midi": 78,
      "hit": false,
      "t": 91840.18593750037,
      "d": 180.55537499999627,
      "v": 77
    },
    {
      "midi": 71,
      "hit": false,
      "t": 91847.13037500037,
      "d": 201.388687499988,
      "v": 85
    },
    {
      "midi": 69,
      "hit": false,
      "t": 92152.68562500026,
      "d": 166.66650000000664,
      "v": 20
    },
    {
      "midi": 73,
      "hit": false,
      "t": 92166.57450000037,
      "d": 222.22200000000885,
      "v": 76
    },
    {
      "midi": 76,
      "hit": false,
      "t": 92166.57450000037,
      "d": 222.22200000000885,
      "v": 72
    },
    {
      "midi": 69,
      "hit": false,
      "t": 92173.51893750037,
      "d": 208.33312500000466,
      "v": 78
    },
    {
      "midi": 73,
      "hit": false,
      "t": 92326.29656250027,
      "d": 145.83318750000035,
      "v": 17
    },
    {
      "midi": 66,
      "hit": false,
      "t": 92492.96306250028,
      "d": 354.166312500005,
      "v": 17
    },
    {
      "midi": 78,
      "hit": false,
      "t": 92492.96306250028,
      "d": 374.9996250000113,
      "v": 15
    },
    {
      "midi": 69,
      "hit": false,
      "t": 92492.96306250038,
      "d": 97.22212500000023,
      "v": 90
    },
    {
      "midi": 73,
      "hit": false,
      "t": 92499.90750000038,
      "d": 83.33324999999604,
      "v": 72
    },
    {
      "midi": 76,
      "hit": false,
      "t": 92673.51843750037,
      "d": 201.38868750000256,
      "v": 93
    },
    {
      "midi": 73,
      "hit": false,
      "t": 92680.46287500038,
      "d": 201.38868750000256,
      "v": 73
    },
    {
      "midi": 69,
      "hit": false,
      "t": 92687.40731250038,
      "d": 208.33312500000466,
      "v": 84
    },
    {
      "midi": 69,
      "hit": false,
      "t": 92840.18493750028,
      "d": 138.8887500000128,
      "v": 20
    },
    {
      "midi": 73,
      "hit": false,
      "t": 92979.07368750038,
      "d": 201.38868750000256,
      "v": 76
    },
    {
      "midi": 69,
      "hit": false,
      "t": 92979.07368750038,
      "d": 215.27756250000675,
      "v": 86
    },
    {
      "midi": 76,
      "hit": false,
      "t": 92986.01812500038,
      "d": 187.49981249999837,
      "v": 86
    },
    {
      "midi": 73,
      "hit": false,
      "t": 93006.85143750029,
      "d": 138.88874999999825,
      "v": 14
    },
    {
      "midi": 78,
      "hit": false,
      "t": 93152.68462500029,
      "d": 83.33324999999604,
      "v": 16
    },
    {
      "midi": 66,
      "hit": false,
      "t": 93152.68462500029,
      "d": 90.27768749999814,
      "v": 16
    },
    {
      "midi": 69,
      "hit": false,
      "t": 93319.35112500038,
      "d": 368.05518749999464,
      "v": 85
    },
    {
      "midi": 78,
      "hit": false,
      "t": 93319.35112500038,
      "d": 368.05518749999464,
      "v": 93
    },
    {
      "midi": 73,
      "hit": false,
      "t": 93319.35112500038,
      "d": 374.99962499999674,
      "v": 76
    },
    {
      "midi": 64,
      "hit": false,
      "t": 93347.12887500029,
      "d": 326.3885625000112,
      "v": 15
    },
    {
      "midi": 76,
      "hit": false,
      "t": 93347.12887500029,
      "d": 347.22187500001746,
      "v": 19
    },
    {
      "midi": 69,
      "hit": false,
      "t": 93659.6285625003,
      "d": 166.66650000000664,
      "v": 20
    },
    {
      "midi": 69,
      "hit": false,
      "t": 93826.29506250037,
      "d": 97.22212500000023,
      "v": 80
    },
    {
      "midi": 73,
      "hit": false,
      "t": 93826.29506250037,
      "d": 104.16656250000233,
      "v": 77
    },
    {
      "midi": 73,
      "hit": false,
      "t": 93840.1839375003,
      "d": 319.44412499999453,
      "v": 18
    },
    {
      "midi": 76,
      "hit": false,
      "t": 93999.90600000038,
      "d": 194.44425000000047,
      "v": 89
    },
    {
      "midi": 69,
      "hit": false,
      "t": 93999.90600000038,
      "d": 215.27756250000675,
      "v": 86
    },
    {
      "midi": 73,
      "hit": false,
      "t": 94006.85043750038,
      "d": 194.44425000000047,
      "v": 76
    },
    {
      "midi": 78,
      "hit": false,
      "t": 94173.5169375003,
      "d": 166.66650000000664,
      "v": 17
    },
    {
      "midi": 66,
      "hit": false,
      "t": 94187.4058125003,
      "d": 159.72206250000454,
      "v": 17
    },
    {
      "midi": 69,
      "hit": false,
      "t": 94312.40568750039,
      "d": 187.49981250001292,
      "v": 93
    },
    {
      "midi": 76,
      "hit": false,
      "t": 94319.35012500039,
      "d": 159.72206250000454,
      "v": 93
    },
    {
      "midi": 73,
      "hit": false,
      "t": 94319.35012500039,
      "d": 180.55537500001083,
      "v": 77
    },
    {
      "midi": 59,
      "hit": false,
      "t": 94513.79437500032,
      "d": 333.3329999999987,
      "v": 17
    },
    {
      "midi": 71,
      "hit": false,
      "t": 94520.73881250032,
      "d": 395.832937500003,
      "v": 19
    },
    {
      "midi": 74,
      "hit": false,
      "t": 94638.7942500004,
      "d": 756.9436874999956,
      "v": 105
    },
    {
      "midi": 68,
      "hit": false,
      "t": 94645.7386875004,
      "d": 701.3881874999934,
      "v": 89
    },
    {
      "midi": 71,
      "hit": false,
      "t": 94645.7386875004,
      "d": 722.2214999999997,
      "v": 99
    },
    {
      "midi": 64,
      "hit": false,
      "t": 94840.18293750031,
      "d": 173.61093750000873,
      "v": 19
    },
    {
      "midi": 68,
      "hit": false,
      "t": 94999.90500000032,
      "d": 138.88874999999825,
      "v": 17
    },
    {
      "midi": 61,
      "hit": false,
      "t": 95166.57150000031,
      "d": 326.3885624999966,
      "v": 17
    },
    {
      "midi": 73,
      "hit": false,
      "t": 95166.57150000031,
      "d": 354.16631249999045,
      "v": 15
    },
    {
      "midi": 64,
      "hit": false,
      "t": 95492.96006250031,
      "d": 145.83318750000035,
      "v": 18
    },
    {
      "midi": 68,
      "hit": false,
      "t": 95652.68212500031,
      "d": 118.05543750000652,
      "v": 18
    },
    {
      "midi": 71,
      "hit": false,
      "t": 95659.6265625004,
      "d": 97.22212500000023,
      "v": 65
    },
    {
      "midi": 76,
      "hit": false,
      "t": 95659.6265625004,
      "d": 104.16656250000233,
      "v": 84
    },
    {
      "midi": 61,
      "hit": false,
      "t": 95798.51531250031,
      "d": 90.27768750001269,
      "v": 13
    },
    {
      "midi": 73,
      "hit": false,
      "t": 95812.40418750032,
      "d": 69.4443750000064,
      "v": 14
    },
    {
      "midi": 76,
      "hit": false,
      "t": 95847.1263750004,
      "d": 208.33312500000466,
      "v": 86
    },
    {
      "midi": 71,
      "hit": false,
      "t": 95861.0152500004,
      "d": 194.44425000000047,
      "v": 78
    },
    {
      "midi": 80,
      "hit": false,
      "t": 95861.0152500004,
      "d": 201.38868750000256,
      "v": 72
    },
    {
      "midi": 59,
      "hit": false,
      "t": 95999.90400000033,
      "d": 326.3885624999966,
      "v": 15
    },
    {
      "midi": 71,
      "hit": false,
      "t": 95999.90400000033,
      "d": 381.94406249999884,
      "v": 20
    },
    {
      "midi": 80,
      "hit": false,
      "t": 96159.6260625004,
      "d": 243.05531250001513,
      "v": 84
    },
    {
      "midi": 76,
      "hit": false,
      "t": 96166.57050000041,
      "d": 215.27756250000675,
      "v": 94
    },
    {
      "midi": 71,
      "hit": false,
      "t": 96173.51493750041,
      "d": 222.22200000000885,
      "v": 80
    },
    {
      "midi": 64,
      "hit": false,
      "t": 96340.18143750033,
      "d": 187.49981249999837,
      "v": 17
    },
    {
      "midi": 80,
      "hit": false,
      "t": 96472.12575000043,
      "d": 97.22212500000023,
      "v": 77
    },
    {
      "midi": 76,
      "hit": false,
      "t": 96479.07018750043,
      "d": 90.27768749999814,
      "v": 89
    },
    {
      "midi": 71,
      "hit": false,
      "t": 96479.07018750043,
      "d": 97.22212500000023,
      "v": 76
    },
    {
      "midi": 68,
      "hit": false,
      "t": 96534.62568750033,
      "d": 354.166312500005,
      "v": 17
    },
    {
      "midi": 76,
      "hit": false,
      "t": 96659.62556250043,
      "d": 208.33312500000466,
      "v": 94
    },
    {
      "midi": 71,
      "hit": false,
      "t": 96659.62556250043,
      "d": 236.1108749999985,
      "v": 80
    },
    {
      "midi": 80,
      "hit": false,
      "t": 96659.62556250043,
      "d": 243.05531250000058,
      "v": 85
    },
    {
      "midi": 61,
      "hit": false,
      "t": 96888.79200000034,
      "d": 173.61093750000873,
      "v": 14
    },
    {
      "midi": 73,
      "hit": false,
      "t": 96895.73643750034,
      "d": 180.55537500001083,
      "v": 14
    },
    {
      "midi": 78,
      "hit": false,
      "t": 96965.18081250043,
      "d": 118.05543750000652,
      "v": 81
    },
    {
      "midi": 71,
      "hit": false,
      "t": 96979.06968750044,
      "d": 118.05543750000652,
      "v": 70
    },
    {
      "midi": 78,
      "hit": false,
      "t": 97159.62506250045,
      "d": 187.49981249999837,
      "v": 86
    },
    {
      "midi": 64,
      "hit": false,
      "t": 97166.56950000035,
      "d": 291.6663750000007,
      "v": 15
    },
    {
      "midi": 71,
      "hit": false,
      "t": 97166.56950000045,
      "d": 222.2219999999943,
      "v": 89
    },
    {
      "midi": 76,
      "hit": false,
      "t": 97173.51393750035,
      "d": 381.94406249999884,
      "v": 21
    },
    {
      "midi": 69,
      "hit": false,
      "t": 97486.01362500044,
      "d": 236.11087500001304,
      "v": 80
    },
    {
      "midi": 73,
      "hit": false,
      "t": 97499.90250000045,
      "d": 208.33312500000466,
      "v": 85
    },
    {
      "midi": 76,
      "hit": false,
      "t": 97499.90250000045,
      "d": 215.27756250000675,
      "v": 86
    },
    {
      "midi": 69,
      "hit": false,
      "t": 97506.84693750035,
      "d": 152.77762500000244,
      "v": 21
    },
    {
      "midi": 73,
      "hit": false,
      "t": 97659.62456250035,
      "d": 145.83318750000035,
      "v": 19
    },
    {
      "midi": 73,
      "hit": false,
      "t": 97819.34662500046,
      "d": 97.22212500000023,
      "v": 73
    },
    {
      "midi": 66,
      "hit": false,
      "t": 97826.29106250036,
      "d": 354.166312500005,
      "v": 18
    },
    {
      "midi": 69,
      "hit": false,
      "t": 97826.29106250046,
      "d": 76.38881249999395,
      "v": 80
    },
    {
      "midi": 78,
      "hit": false,
      "t": 97833.23550000036,
      "d": 354.166312500005,
      "v": 18
    },
    {
      "midi": 73,
      "hit": false,
      "t": 97999.90200000045,
      "d": 215.27756250000675,
      "v": 76
    },
    {
      "midi": 76,
      "hit": false,
      "t": 97999.90200000045,
      "d": 215.27756250000675,
      "v": 84
    },
    {
      "midi": 69,
      "hit": false,
      "t": 97999.90200000045,
      "d": 229.16643750001094,
      "v": 86
    },
    {
      "midi": 69,
      "hit": false,
      "t": 98138.79075000036,
      "d": 138.88874999999825,
      "v": 20
    },
    {
      "midi": 73,
      "hit": false,
      "t": 98319.34612500036,
      "d": 118.05543750000652,
      "v": 16
    },
    {
      "midi": 76,
      "hit": false,
      "t": 98319.34612500046,
      "d": 208.33312500000466,
      "v": 86
    },
    {
      "midi": 69,
      "hit": false,
      "t": 98319.34612500046,
      "d": 215.27756250000675,
      "v": 89
    },
    {
      "midi": 73,
      "hit": false,
      "t": 98326.29056250046,
      "d": 208.33312500000466,
      "v": 77
    },
    {
      "midi": 78,
      "hit": false,
      "t": 98451.29043750037,
      "d": 111.11099999998987,
      "v": 12
    },
    {
      "midi": 66,
      "hit": false,
      "t": 98486.01262500037,
      "d": 90.27768749999814,
      "v": 15
    },
    {
      "midi": 78,
      "hit": false,
      "t": 98652.67912500048,
      "d": 374.9996250000113,
      "v": 86
    },
    {
      "midi": 69,
      "hit": false,
      "t": 98659.62356250048,
      "d": 361.1107500000071,
      "v": 94
    },
    {
      "midi": 73,
      "hit": false,
      "t": 98659.62356250048,
      "d": 381.9440625000134,
      "v": 81
    },
    {
      "midi": 76,
      "hit": false,
      "t": 98666.56800000036,
      "d": 368.05518749999464,
      "v": 19
    },
    {
      "midi": 64,
      "hit": false,
      "t": 98673.51243750037,
      "d": 284.7219374999986,
      "v": 17
    },
    {
      "midi": 69,
      "hit": false,
      "t": 99006.84543750036,
      "d": 152.7776249999879,
      "v": 21
    },
    {
      "midi": 73,
      "hit": false,
      "t": 99152.6786250005,
      "d": 97.22212500000023,
      "v": 74
    },
    {
      "midi": 69,
      "hit": false,
      "t": 99159.6230625005,
      "d": 90.27768749999814,
      "v": 80
    },
    {
      "midi": 73,
      "hit": false,
      "t": 99166.56750000035,
      "d": 291.6663750000007,
      "v": 18
    },
    {
      "midi": 76,
      "hit": false,
      "t": 99326.28956250049,
      "d": 236.11087500001304,
      "v": 93
    },
    {
      "midi": 73,
      "hit": false,
      "t": 99333.23400000049,
      "d": 208.33312500000466,
      "v": 76
    },
    {
      "midi": 69,
      "hit": false,
      "t": 99333.23400000049,
      "d": 222.22200000000885,
      "v": 89
    },
    {
      "midi": 66,
      "hit": false,
      "t": 99479.06718750036,
      "d": 166.66650000000664,
      "v": 16
    },
    {
      "midi": 78,
      "hit": false,
      "t": 99486.01162500036,
      "d": 145.83318750000035,
      "v": 15
    },
    {
      "midi": 76,
      "hit": false,
      "t": 99645.7336875005,
      "d": 118.05543750000652,
      "v": 89
    },
    {
      "midi": 69,
      "hit": false,
      "t": 99645.7336875005,
      "d": 138.8887500000128,
      "v": 93
    },
    {
      "midi": 73,
      "hit": false,
      "t": 99652.6781250005,
      "d": 131.9443125000107,
      "v": 80
    },
    {
      "midi": 72,
      "hit": false,
      "t": 99812.40018750037,
      "d": 187.49981249999837,
      "v": 17
    },
    {
      "midi": 59,
      "hit": false,
      "t": 99812.40018750037,
      "d": 347.2218750000029,
      "v": 9
    },
    {
      "midi": 71,
      "hit": false,
      "t": 99812.40018750037,
      "d": 416.6662500000093,
      "v": 18
    },
    {
      "midi": 68,
      "hit": false,
      "t": 99972.12225000051,
      "d": 736.1103749999893,
      "v": 85
    },
    {
      "midi": 74,
      "hit": false,
      "t": 99972.12225000051,
      "d": 784.7214374999894,
      "v": 90
    },
    {
      "midi": 71,
      "hit": false,
      "t": 99999.9000000005,
      "d": 749.9992499999935,
      "v": 56
    },
    {
      "midi": 64,
      "hit": false,
      "t": 100173.51093750038,
      "d": 145.83318750000035,
      "v": 18
    },
    {
      "midi": 68,
      "hit": false,
      "t": 100326.28856250038,
      "d": 118.05543750000652,
      "v": 15
    },
    {
      "midi": 61,
      "hit": false,
      "t": 100472.12175000038,
      "d": 76.3888125000085,
      "v": 15
    },
    {
      "midi": 73,
      "hit": false,
      "t": 100492.95506250039,
      "d": 48.611062500000116,
      "v": 14
    },
    {
      "midi": 59,
      "hit": false,
      "t": 100652.6771250004,
      "d": 166.66650000000664,
      "v": 16
    },
    {
      "midi": 71,
      "hit": false,
      "t": 100659.6215625004,
      "d": 215.27756250000675,
      "v": 19
    },
    {
      "midi": 64,
      "hit": false,
      "t": 100819.3436250004,
      "d": 138.88874999999825,
      "v": 18
    },
    {
      "midi": 68,
      "hit": false,
      "t": 100965.1768125004,
      "d": 118.05543750000652,
      "v": 18
    },
    {
      "midi": 76,
      "hit": false,
      "t": 100986.0101250005,
      "d": 97.22212500000023,
      "v": 89
    },
    {
      "midi": 71,
      "hit": false,
      "t": 100992.9545625005,
      "d": 97.22212500000023,
      "v": 80
    },
    {
      "midi": 73,
      "hit": false,
      "t": 101145.73218750041,
      "d": 62.49993750000431,
      "v": 15
    },
    {
      "midi": 61,
      "hit": false,
      "t": 101145.73218750041,
      "d": 76.3888125000085,
      "v": 13
    },
    {
      "midi": 76,
      "hit": false,
      "t": 101166.56550000049,
      "d": 194.44425000000047,
      "v": 94
    },
    {
      "midi": 71,
      "hit": false,
      "t": 101173.5099375005,
      "d": 215.2775624999922,
      "v": 76
    },
    {
      "midi": 80,
      "hit": false,
      "t": 101173.5099375005,
      "d": 222.2219999999943,
      "v": 72
    },
    {
      "midi": 71,
      "hit": false,
      "t": 101312.39868750042,
      "d": 423.61068749999686,
      "v": 19
    },
    {
      "midi": 59,
      "hit": false,
      "t": 101319.34312500042,
      "d": 347.2218750000029,
      "v": 16
    },
    {
      "midi": 71,
      "hit": false,
      "t": 101492.95406250049,
      "d": 229.16643750001094,
      "v": 82
    },
    {
      "midi": 80,
      "hit": false,
      "t": 101492.95406250049,
      "d": 236.11087500001304,
      "v": 80
    },
    {
      "midi": 76,
      "hit": false,
      "t": 101499.89850000049,
      "d": 208.33312500000466,
      "v": 94
    },
    {
      "midi": 64,
      "hit": false,
      "t": 101694.34275000042,
      "d": 187.49981249999837,
      "v": 18
    },
    {
      "midi": 80,
      "hit": false,
      "t": 101805.4537500005,
      "d": 118.05543750002107,
      "v": 82
    },
    {
      "midi": 71,
      "hit": false,
      "t": 101812.3981875005,
      "d": 90.27768750001269,
      "v": 81
    },
    {
      "midi": 76,
      "hit": false,
      "t": 101819.3426250005,
      "d": 69.4443750000064,
      "v": 89
    },
    {
      "midi": 68,
      "hit": false,
      "t": 101888.78700000042,
      "d": 305.5552500000049,
      "v": 18
    },
    {
      "midi": 71,
      "hit": false,
      "t": 101979.06468750052,
      "d": 243.05531250000058,
      "v": 68
    },
    {
      "midi": 80,
      "hit": false,
      "t": 101979.06468750052,
      "d": 249.99975000000268,
      "v": 72
    },
    {
      "midi": 76,
      "hit": false,
      "t": 101986.00912500052,
      "d": 243.05531250000058,
      "v": 84
    },
    {
      "midi": 61,
      "hit": false,
      "t": 102201.28668750043,
      "d": 166.66650000000664,
      "v": 15
    },
    {
      "midi": 73,
      "hit": false,
      "t": 102208.23112500043,
      "d": 173.61093750000873,
      "v": 17
    },
    {
      "midi": 71,
      "hit": false,
      "t": 102333.23100000052,
      "d": 104.16656250000233,
      "v": 71
    },
    {
      "midi": 78,
      "hit": false,
      "t": 102347.11987500053,
      "d": 83.33324999999604,
      "v": 73
    },
    {
      "midi": 76,
      "hit": false,
      "t": 102492.95306250044,
      "d": 368.0551875000092,
      "v": 20
    },
    {
      "midi": 64,
      "hit": false,
      "t": 102499.89750000044,
      "d": 298.6108125000028,
      "v": 16
    },
    {
      "midi": 78,
      "hit": false,
      "t": 102506.84193750053,
      "d": 194.44425000000047,
      "v": 89
    },
    {
      "midi": 71,
      "hit": false,
      "t": 102506.84193750053,
      "d": 229.1664374999964,
      "v": 81
    },
    {
      "midi": 69,
      "hit": false,
      "t": 102819.34162500045,
      "d": 138.88874999999825,
      "v": 19
    },
    {
      "midi": 69,
      "hit": false,
      "t": 102840.17493750053,
      "d": 222.22200000000885,
      "v": 78
    },
    {
      "midi": 76,
      "hit": false,
      "t": 102847.11937500053,
      "d": 194.44425000000047,
      "v": 93
    },
    {
      "midi": 73,
      "hit": false,
      "t": 102847.11937500053,
      "d": 208.33312500000466,
      "v": 85
    },
    {
      "midi": 73,
      "hit": false,
      "t": 102972.11925000045,
      "d": 145.83318750000035,
      "v": 16
    },
    {
      "midi": 66,
      "hit": false,
      "t": 103138.78575000046,
      "d": 305.5552500000049,
      "v": 17
    },
    {
      "midi": 78,
      "hit": false,
      "t": 103138.78575000046,
      "d": 333.3329999999987,
      "v": 18
    },
    {
      "midi": 73,
      "hit": false,
      "t": 103145.73018750054,
      "d": 97.22212500000023,
      "v": 76
    },
    {
      "midi": 69,
      "hit": false,
      "t": 103152.67462500054,
      "d": 104.16656250000233,
      "v": 80
    },
    {
      "midi": 69,
      "hit": false,
      "t": 103326.28556250055,
      "d": 222.22200000000885,
      "v": 89
    },
    {
      "midi": 73,
      "hit": false,
      "t": 103333.23000000055,
      "d": 201.38868750000256,
      "v": 82
    },
    {
      "midi": 76,
      "hit": false,
      "t": 103333.23000000055,
      "d": 201.38868750000256,
      "v": 85
    },
    {
      "midi": 69,
      "hit": false,
      "t": 103444.34100000047,
      "d": 131.94431249999616,
      "v": 20
    },
    {
      "midi": 73,
      "hit": false,
      "t": 103624.89637500046,
      "d": 90.27768749999814,
      "v": 15
    },
    {
      "midi": 69,
      "hit": false,
      "t": 103645.72968750056,
      "d": 222.22200000000885,
      "v": 89
    },
    {
      "midi": 76,
      "hit": false,
      "t": 103652.67412500056,
      "d": 187.49981249999837,
      "v": 89
    },
    {
      "midi": 73,
      "hit": false,
      "t": 103659.61856250056,
      "d": 194.44425000000047,
      "v": 78
    },
    {
      "midi": 78,
      "hit": false,
      "t": 103763.78512500046,
      "d": 111.11100000000442,
      "v": 14
    },
    {
      "midi": 66,
      "hit": false,
      "t": 103777.67400000046,
      "d": 124.99987499999406,
      "v": 12
    },
    {
      "midi": 69,
      "hit": false,
      "t": 103986.00712500057,
      "d": 340.2774375000008,
      "v": 94
    },
    {
      "midi": 73,
      "hit": false,
      "t": 103986.00712500057,
      "d": 347.2218750000029,
      "v": 84
    },
    {
      "midi": 76,
      "hit": false,
      "t": 103992.95156250046,
      "d": 354.166312500005,
      "v": 19
    },
    {
      "midi": 78,
      "hit": false,
      "t": 103992.95156250057,
      "d": 347.2218750000029,
      "v": 84
    },
    {
      "midi": 64,
      "hit": false,
      "t": 103999.89600000046,
      "d": 284.7219374999986,
      "v": 15
    },
    {
      "midi": 69,
      "hit": false,
      "t": 104333.22900000046,
      "d": 145.83318750000035,
      "v": 20
    },
    {
      "midi": 69,
      "hit": false,
      "t": 104486.00662500058,
      "d": 48.611062500000116,
      "v": 62
    },
    {
      "midi": 73,
      "hit": false,
      "t": 104486.00662500058,
      "d": 69.4443750000064,
      "v": 55
    },
    {
      "midi": 73,
      "hit": false,
      "t": 104499.89550000046,
      "d": 291.6663750000007,
      "v": 18
    },
    {
      "midi": 76,
      "hit": false,
      "t": 104631.83981250058,
      "d": 249.99975000000268,
      "v": 76
    },
    {
      "midi": 69,
      "hit": false,
      "t": 104645.72868750058,
      "d": 208.33312500000466,
      "v": 77
    },
    {
      "midi": 73,
      "hit": false,
      "t": 104645.72868750058,
      "d": 236.1108749999985,
      "v": 67
    },
    {
      "midi": 78,
      "hit": false,
      "t": 104819.33962500046,
      "d": 166.66650000000664,
      "v": 16
    },
    {
      "midi": 66,
      "hit": false,
      "t": 104826.28406250046,
      "d": 180.55537500001083,
      "v": 15
    },
    {
      "midi": 73,
      "hit": false,
      "t": 104979.06168750058,
      "d": 194.44425000000047,
      "v": 78
    },
    {
      "midi": 69,
      "hit": false,
      "t": 104979.06168750058,
      "d": 236.1108749999985,
      "v": 93
    },
    {
      "midi": 76,
      "hit": false,
      "t": 104986.00612500058,
      "d": 194.44425000000047,
      "v": 89
    },
    {
      "midi": 59,
      "hit": false,
      "t": 105152.67262500047,
      "d": 340.2774375000008,
      "v": 14
    },
    {
      "midi": 71,
      "hit": false,
      "t": 105152.67262500047,
      "d": 409.72181249999267,
      "v": 19
    },
    {
      "midi": 71,
      "hit": false,
      "t": 105319.33912500058,
      "d": 791.665875000006,
      "v": 95
    },
    {
      "midi": 74,
      "hit": false,
      "t": 105326.28356250058,
      "d": 805.5547500000102,
      "v": 94
    },
    {
      "midi": 64,
      "hit": false,
      "t": 105520.72781250047,
      "d": 145.83318750000035,
      "v": 17
    },
    {
      "midi": 68,
      "hit": false,
      "t": 105666.56100000047,
      "d": 152.77762500000244,
      "v": 17
    },
    {
      "midi": 61,
      "hit": false,
      "t": 105833.22750000047,
      "d": 319.4441250000091,
      "v": 18
    },
    {
      "midi": 73,
      "hit": false,
      "t": 105840.17193750048,
      "d": 368.0551875000092,
      "v": 17
    },
    {
      "midi": 64,
      "hit": false,
      "t": 106159.61606250048,
      "d": 138.88874999999825,
      "v": 15
    },
    {
      "midi": 71,
      "hit": false,
      "t": 106291.5603750006,
      "d": 104.16656250000233,
      "v": 89
    },
    {
      "midi": 76,
      "hit": false,
      "t": 106291.5603750006,
      "d": 104.16656250000233,
      "v": 86
    },
    {
      "midi": 68,
      "hit": false,
      "t": 106326.28256250048,
      "d": 104.16656250000233,
      "v": 17
    },
    {
      "midi": 73,
      "hit": false,
      "t": 106465.17131250048,
      "d": 90.27768749999814,
      "v": 15
    },
    {
      "midi": 61,
      "hit": false,
      "t": 106479.06018750048,
      "d": 76.38881249999395,
      "v": 9
    },
    {
      "midi": 80,
      "hit": false,
      "t": 106486.0046250006,
      "d": 236.1108749999985,
      "v": 78
    },
    {
      "midi": 71,
      "hit": false,
      "t": 106492.9490625006,
      "d": 222.2219999999943,
      "v": 76
    },
    {
      "midi": 76,
      "hit": false,
      "t": 106492.9490625006,
      "d": 222.2219999999943,
      "v": 95
    },
    {
      "midi": 71,
      "hit": false,
      "t": 106659.61556250048,
      "d": 368.0551875000092,
      "v": 19
    },
    {
      "midi": 59,
      "hit": false,
      "t": 106666.56000000048,
      "d": 305.5552500000049,
      "v": 13
    },
    {
      "midi": 71,
      "hit": false,
      "t": 106826.2820625006,
      "d": 194.44425000000047,
      "v": 84
    },
    {
      "midi": 76,
      "hit": false,
      "t": 106826.2820625006,
      "d": 201.38868750000256,
      "v": 85
    },
    {
      "midi": 80,
      "hit": false,
      "t": 106826.2820625006,
      "d": 201.38868750000256,
      "v": 89
    },
    {
      "midi": 64,
      "hit": false,
      "t": 106992.94856250049,
      "d": 173.61093749999418,
      "v": 19
    },
    {
      "midi": 76,
      "hit": false,
      "t": 107138.7817500006,
      "d": 90.27768749999814,
      "v": 89
    },
    {
      "midi": 80,
      "hit": false,
      "t": 107138.7817500006,
      "d": 90.27768749999814,
      "v": 84
    },
    {
      "midi": 71,
      "hit": false,
      "t": 107145.72618750061,
      "d": 90.27768749999814,
      "v": 82
    },
    {
      "midi": 68,
      "hit": false,
      "t": 107173.50393750049,
      "d": 305.5552500000049,
      "v": 19
    },
    {
      "midi": 71,
      "hit": false,
      "t": 107319.3371250006,
      "d": 243.05531250000058,
      "v": 85
    },
    {
      "midi": 76,
      "hit": false,
      "t": 107326.2815625006,
      "d": 222.2219999999943,
      "v": 94
    },
    {
      "midi": 80,
      "hit": false,
      "t": 107326.2815625006,
      "d": 229.1664374999964,
      "v": 82
    },
    {
      "midi": 61,
      "hit": false,
      "t": 107506.83693750048,
      "d": 166.66650000000664,
      "v": 14
    },
    {
      "midi": 73,
      "hit": false,
      "t": 107506.83693750048,
      "d": 180.55537500001083,
      "v": 15
    },
    {
      "midi": 78,
      "hit": false,
      "t": 107652.6701250006,
      "d": 90.27768749999814,
      "v": 77
    },
    {
      "midi": 71,
      "hit": false,
      "t": 107659.6145625006,
      "d": 111.11099999998987,
      "v": 80
    },
    {
      "midi": 76,
      "hit": false,
      "t": 107819.33662500049,
      "d": 354.166312500005,
      "v": 18
    },
    {
      "midi": 64,
      "hit": false,
      "t": 107826.2810625005,
      "d": 319.44412499999453,
      "v": 14
    },
    {
      "midi": 78,
      "hit": false,
      "t": 107840.1699375006,
      "d": 201.38868750000256,
      "v": 89
    },
    {
      "midi": 71,
      "hit": false,
      "t": 107840.1699375006,
      "d": 222.22200000000885,
      "v": 89
    },
    {
      "midi": 69,
      "hit": false,
      "t": 108159.61406250049,
      "d": 145.83318750000035,
      "v": 21
    },
    {
      "midi": 76,
      "hit": false,
      "t": 108166.55850000061,
      "d": 2006.9424374999944,
      "v": 94
    },
    {
      "midi": 69,
      "hit": false,
      "t": 108173.50293750061,
      "d": 1958.3313749999943,
      "v": 80
    },
    {
      "midi": 73,
      "hit": false,
      "t": 108173.50293750061,
      "d": 1972.2202499999985,
      "v": 89
    },
    {
      "midi": 73,
      "hit": false,
      "t": 108305.44725000049,
      "d": 173.61093749999418,
      "v": 17
    },
    {
      "midi": 66,
      "hit": false,
      "t": 108499.89150000049,
      "d": 326.3885624999966,
      "v": 16
    },
    {
      "midi": 78,
      "hit": false,
      "t": 108499.89150000049,
      "d": 354.166312500005,
      "v": 18
    },
    {
      "midi": 69,
      "hit": false,
      "t": 108833.22450000049,
      "d": 131.9443125000107,
      "v": 20
    },
    {
      "midi": 73,
      "hit": false,
      "t": 108992.9465625005,
      "d": 124.99987499999406,
      "v": 15
    },
    {
      "midi": 78,
      "hit": false,
      "t": 109145.72418750048,
      "d": 83.33324999999604,
      "v": 17
    },
    {
      "midi": 66,
      "hit": false,
      "t": 109145.72418750048,
      "d": 90.27768749999814,
      "v": 14
    },
    {
      "midi": 76,
      "hit": false,
      "t": 109326.27956250048,
      "d": 347.22187499998836,
      "v": 19
    },
    {
      "midi": 64,
      "hit": false,
      "t": 109333.22400000048,
      "d": 270.8330624999944,
      "v": 16
    },
    {
      "midi": 69,
      "hit": false,
      "t": 109638.77925000047,
      "d": 180.55537499999627,
      "v": 20
    },
    {
      "midi": 73,
      "hit": false,
      "t": 109833.22350000047,
      "d": 319.44412499999453,
      "v": 17
    },
    {
      "midi": 78,
      "hit": false,
      "t": 110166.55650000047,
      "d": 180.55537499999627,
      "v": 15
    },
    {
      "midi": 66,
      "hit": false,
      "t": 110166.55650000047,
      "d": 194.44425000000047,
      "v": 14
    },
    {
      "midi": 59,
      "hit": false,
      "t": 110492.94506250047,
      "d": 354.16631250001956,
      "v": 19
    },
    {
      "midi": 72,
      "hit": false,
      "t": 110506.83393750047,
      "d": 215.27756250000675,
      "v": 18
    },
    {
      "midi": 71,
      "hit": false,
      "t": 110506.83393750047,
      "d": 354.16631250001956,
      "v": 18
    },
    {
      "midi": 64,
      "hit": false,
      "t": 110826.27806250048,
      "d": 159.72206250000454,
      "v": 19
    },
    {
      "midi": 68,
      "hit": false,
      "t": 110992.94456250049,
      "d": 152.77762500000244,
      "v": 19
    },
    {
      "midi": 61,
      "hit": false,
      "t": 111166.5555000005,
      "d": 83.3332500000106,
      "v": 14
    },
    {
      "midi": 73,
      "hit": false,
      "t": 111173.4999375005,
      "d": 62.49993750000431,
      "v": 15
    },
    {
      "midi": 71,
      "hit": false,
      "t": 111340.1664375005,
      "d": 201.38868750000256,
      "v": 18
    },
    {
      "midi": 59,
      "hit": false,
      "t": 111347.11087500051,
      "d": 159.72206250000454,
      "v": 15
    },
    {
      "midi": 64,
      "hit": false,
      "t": 111492.94406250051,
      "d": 159.72206250000454,
      "v": 18
    },
    {
      "midi": 68,
      "hit": false,
      "t": 111659.61056250051,
      "d": 111.11100000000442,
      "v": 18
    },
    {
      "midi": 61,
      "hit": false,
      "t": 111826.27706250052,
      "d": 97.22212500000023,
      "v": 13
    },
    {
      "midi": 73,
      "hit": false,
      "t": 111833.22150000052,
      "d": 76.38881249999395,
      "v": 15
    },
    {
      "midi": 71,
      "hit": false,
      "t": 112006.83243750052,
      "d": 347.22187499998836,
      "v": 20
    },
    {
      "midi": 59,
      "hit": false,
      "t": 112013.77687500052,
      "d": 270.8330624999944,
      "v": 16
    },
    {
      "midi": 64,
      "hit": false,
      "t": 112319.33212500051,
      "d": 152.77762500000244,
      "v": 17
    },
    {
      "midi": 68,
      "hit": false,
      "t": 112499.8875000005,
      "d": 312.499687500007,
      "v": 18
    },
    {
      "midi": 61,
      "hit": false,
      "t": 112819.33162500052,
      "d": 159.72206250000454,
      "v": 14
    },
    {
      "midi": 73,
      "hit": false,
      "t": 112826.27606250052,
      "d": 194.44425000000047,
      "v": 16
    },
    {
      "midi": 76,
      "hit": false,
      "t": 113131.83131250052,
      "d": 388.88850000000093,
      "v": 19
    },
    {
      "midi": 64,
      "hit": false,
      "t": 113145.72018750053,
      "d": 319.44412499999453,
      "v": 15
    },
    {
      "midi": 69,
      "hit": false,
      "t": 113472.10875000052,
      "d": 152.77762500000244,
      "v": 21
    },
    {
      "midi": 73,
      "hit": false,
      "t": 113638.77525000053,
      "d": 180.55537499999627,
      "v": 15
    },
    {
      "midi": 78,
      "hit": false,
      "t": 113826.27506250053,
      "d": 381.94406249999884,
      "v": 18
    },
    {
      "midi": 66,
      "hit": false,
      "t": 113833.21950000053,
      "d": 340.2774375000008,
      "v": 18
    },
    {
      "midi": 69,
      "hit": false,
      "t": 114180.44137500053,
      "d": 131.94431249999616,
      "v": 20
    },
    {
      "midi": 73,
      "hit": false,
      "t": 114347.10787500053,
      "d": 111.11100000000442,
      "v": 17
    },
    {
      "midi": 78,
      "hit": false,
      "t": 114472.10775000053,
      "d": 104.16656249998778,
      "v": 15
    },
    {
      "midi": 66,
      "hit": false,
      "t": 114499.88550000053,
      "d": 90.27768749999814,
      "v": 9
    },
    {
      "midi": 76,
      "hit": false,
      "t": 114673.49643750052,
      "d": 361.11074999999255,
      "v": 19
    },
    {
      "midi": 64,
      "hit": false,
      "t": 114680.44087500052,
      "d": 284.7219374999986,
      "v": 16
    },
    {
      "midi": 69,
      "hit": false,
      "t": 114992.94056250052,
      "d": 159.72206250000454,
      "v": 20
    },
    {
      "midi": 73,
      "hit": false,
      "t": 115173.49593750053,
      "d": 305.5552500000049,
      "v": 18
    },
    {
      "midi": 78,
      "hit": false,
      "t": 115492.94006250054,
      "d": 145.83318750000035,
      "v": 17
    },
    {
      "midi": 66,
      "hit": false,
      "t": 115499.88450000054,
      "d": 152.77762500000244,
      "v": 16
    },
    {
      "midi": 59,
      "hit": false,
      "t": 115826.27306250054,
      "d": 361.1107500000071,
      "v": 15
    },
    {
      "midi": 71,
      "hit": false,
      "t": 115826.27306250054,
      "d": 409.7218125000072,
      "v": 19
    },
    {
      "midi": 64,
      "hit": false,
      "t": 116187.38381250054,
      "d": 145.83318750000035,
      "v": 18
    },
    {
      "midi": 68,
      "hit": false,
      "t": 116333.21700000054,
      "d": 124.99987499999406,
      "v": 19
    },
    {
      "midi": 61,
      "hit": false,
      "t": 116492.93906250053,
      "d": 76.3888125000085,
      "v": 15
    },
    {
      "midi": 73,
      "hit": false,
      "t": 116499.88350000053,
      "d": 69.4443750000064,
      "v": 16
    },
    {
      "midi": 71,
      "hit": false,
      "t": 116666.55000000054,
      "d": 180.55537500001083,
      "v": 19
    },
    {
      "midi": 59,
      "hit": false,
      "t": 116673.49443750054,
      "d": 152.77762500000244,
      "v": 15
    },
    {
      "midi": 64,
      "hit": false,
      "t": 116812.38318750054,
      "d": 145.8331875000149,
      "v": 19
    },
    {
      "midi": 68,
      "hit": false,
      "t": 116979.04968750056,
      "d": 118.05543750000652,
      "v": 18
    },
    {
      "midi": 61,
      "hit": false,
      "t": 117159.60506250057,
      "d": 90.27768750001269,
      "v": 20
    },
    {
      "midi": 73,
      "hit": false,
      "t": 117166.54950000058,
      "d": 62.49993750000431,
      "v": 15
    },
    {
      "midi": 59,
      "hit": false,
      "t": 117333.21600000058,
      "d": 284.7219374999986,
      "v": 17
    },
    {
      "midi": 71,
      "hit": false,
      "t": 117333.21600000058,
      "d": 354.166312500005,
      "v": 20
    },
    {
      "midi": 64,
      "hit": false,
      "t": 117666.54900000058,
      "d": 152.77762500000244,
      "v": 18
    },
    {
      "midi": 68,
      "hit": false,
      "t": 117840.15993750059,
      "d": 312.499687500007,
      "v": 17
    },
    {
      "midi": 61,
      "hit": false,
      "t": 118173.4929375006,
      "d": 145.83318750000035,
      "v": 15
    },
    {
      "midi": 73,
      "hit": false,
      "t": 118173.4929375006,
      "d": 166.66650000000664,
      "v": 17
    },
    {
      "midi": 76,
      "hit": false,
      "t": 118472.1037500006,
      "d": 388.8885000000155,
      "v": 18
    },
    {
      "midi": 64,
      "hit": false,
      "t": 118485.99262500061,
      "d": 312.499687500007,
      "v": 15
    },
    {
      "midi": 69,
      "hit": false,
      "t": 118805.43675000062,
      "d": 166.66650000000664,
      "v": 19
    },
    {
      "midi": 73,
      "hit": false,
      "t": 118972.10325000063,
      "d": 173.61093749999418,
      "v": 18
    },
    {
      "midi": 66,
      "hit": false,
      "t": 119159.60306250062,
      "d": 354.166312500005,
      "v": 16
    },
    {
      "midi": 78,
      "hit": false,
      "t": 119166.54750000063,
      "d": 374.9996250000113,
      "v": 17
    },
    {
      "midi": 69,
      "hit": false,
      "t": 119520.71381250063,
      "d": 159.72206250000454,
      "v": 18
    },
    {
      "midi": 73,
      "hit": false,
      "t": 119694.32475000064,
      "d": 131.94431249999616,
      "v": 16
    },
    {
      "midi": 78,
      "hit": false,
      "t": 119847.10237500064,
      "d": 69.4443750000064,
      "v": 19
    },
    {
      "midi": 66,
      "hit": false,
      "t": 119854.04681250064,
      "d": 69.4443750000064,
      "v": 15
    },
    {
      "midi": 64,
      "hit": false,
      "t": 120013.76887500065,
      "d": 270.8330624999944,
      "v": 17
    },
    {
      "midi": 76,
      "hit": false,
      "t": 120013.76887500065,
      "d": 333.33299999998417,
      "v": 20
    },
    {
      "midi": 69,
      "hit": false,
      "t": 120319.32412500064,
      "d": 145.83318750000035,
      "v": 21
    },
    {
      "midi": 73,
      "hit": false,
      "t": 120492.93506250063,
      "d": 291.6663750000007,
      "v": 18
    },
    {
      "midi": 78,
      "hit": false,
      "t": 120812.37918750063,
      "d": 159.72206250000454,
      "v": 19
    },
    {
      "midi": 66,
      "hit": false,
      "t": 120819.32362500063,
      "d": 166.66650000000664,
      "v": 16
    },
    {
      "midi": 59,
      "hit": false,
      "t": 121152.65662500064,
      "d": 312.499687500007,
      "v": 16
    },
    {
      "midi": 71,
      "hit": false,
      "t": 121152.65662500064,
      "d": 374.9996250000113,
      "v": 20
    },
    {
      "midi": 64,
      "hit": false,
      "t": 121485.98962500066,
      "d": 145.83318750000035,
      "v": 18
    },
    {
      "midi": 68,
      "hit": false,
      "t": 121645.71168750066,
      "d": 138.88874999999825,
      "v": 19
    },
    {
      "midi": 61,
      "hit": false,
      "t": 121812.37818750065,
      "d": 90.27768749999814,
      "v": 13
    },
    {
      "midi": 73,
      "hit": false,
      "t": 121819.32262500066,
      "d": 83.33324999999604,
      "v": 15
    },
    {
      "midi": 71,
      "hit": false,
      "t": 121992.93356250065,
      "d": 222.22200000000885,
      "v": 19
    },
    {
      "midi": 59,
      "hit": false,
      "t": 121999.87800000065,
      "d": 152.77762500000244,
      "v": 16
    },
    {
      "midi": 64,
      "hit": false,
      "t": 122166.54450000066,
      "d": 145.83318750000035,
      "v": 18
    },
    {
      "midi": 68,
      "hit": false,
      "t": 122326.26656250066,
      "d": 152.77762500000244,
      "v": 17
    },
    {
      "midi": 73,
      "hit": false,
      "t": 122492.93306250067,
      "d": 69.4443750000064,
      "v": 15
    },
    {
      "midi": 71,
      "hit": false,
      "t": 122659.59956250068,
      "d": 361.1107500000071,
      "v": 21
    },
    {
      "midi": 59,
      "hit": false,
      "t": 122673.48843750068,
      "d": 277.7774999999965,
      "v": 9
    },
    {
      "midi": 64,
      "hit": false,
      "t": 122999.87700000068,
      "d": 138.8887500000128,
      "v": 19
    },
    {
      "midi": 68,
      "hit": false,
      "t": 123194.32125000069,
      "d": 277.7774999999965,
      "v": 15
    },
    {
      "midi": 61,
      "hit": false,
      "t": 123506.82093750068,
      "d": 173.61093749999418,
      "v": 14
    },
    {
      "midi": 73,
      "hit": false,
      "t": 123506.82093750068,
      "d": 194.44425000000047,
      "v": 15
    },
    {
      "midi": 64,
      "hit": false,
      "t": 123833.20950000068,
      "d": 347.2218750000029,
      "v": 17
    },
    {
      "midi": 77,
      "hit": false,
      "t": 123840.15393750068,
      "d": 131.94431249999616,
      "v": 16
    },
    {
      "midi": 76,
      "hit": false,
      "t": 123840.15393750068,
      "d": 374.99962499999674,
      "v": 15
    },
    {
      "midi": 69,
      "hit": false,
      "t": 124180.43137500068,
      "d": 152.77762500000244,
      "v": 20
    },
    {
      "midi": 73,
      "hit": false,
      "t": 124347.09787500069,
      "d": 124.99987499999406,
      "v": 16
    },
    {
      "midi": 78,
      "hit": false,
      "t": 124499.87550000068,
      "d": 340.2774375000008,
      "v": 19
    },
    {
      "midi": 66,
      "hit": false,
      "t": 124513.76437500068,
      "d": 326.3885624999966,
      "v": 19
    },
    {
      "midi": 69,
      "hit": false,
      "t": 124833.20850000068,
      "d": 124.99987500000861,
      "v": 21
    },
    {
      "midi": 73,
      "hit": false,
      "t": 125013.76387500069,
      "d": 90.27768749999814,
      "v": 13
    },
    {
      "midi": 78,
      "hit": false,
      "t": 125145.70818750068,
      "d": 69.4443750000064,
      "v": 17
    },
    {
      "midi": 66,
      "hit": false,
      "t": 125159.59706250069,
      "d": 69.4443750000064,
      "v": 15
    },
    {
      "midi": 76,
      "hit": false,
      "t": 125333.2080000007,
      "d": 347.2218750000029,
      "v": 16
    },
    {
      "midi": 74,
      "hit": false,
      "t": 125340.1524375007,
      "d": 97.22212500000023,
      "v": 18
    },
    {
      "midi": 62,
      "hit": false,
      "t": 125354.0413125007,
      "d": 55.55550000000221,
      "v": 11
    },
    {
      "midi": 64,
      "hit": false,
      "t": 125354.0413125007,
      "d": 284.7219374999986,
      "v": 12
    },
    {
      "midi": 69,
      "hit": false,
      "t": 125652.6521250007,
      "d": 166.66649999999208,
      "v": 20
    },
    {
      "midi": 73,
      "hit": false,
      "t": 125847.09637500069,
      "d": 270.8330624999944,
      "v": 17
    },
    {
      "midi": 78,
      "hit": false,
      "t": 126152.65162500068,
      "d": 159.72206250000454,
      "v": 19
    },
    {
      "midi": 66,
      "hit": false,
      "t": 126159.59606250068,
      "d": 159.72206250000454,
      "v": 17
    },
    {
      "midi": 72,
      "hit": false,
      "t": 126499.87350000069,
      "d": 215.27756250000675,
      "v": 16
    },
    {
      "midi": 59,
      "hit": false,
      "t": 126499.87350000069,
      "d": 326.3885625000112,
      "v": 14
    },
    {
      "midi": 71,
      "hit": false,
      "t": 126506.81793750069,
      "d": 354.166312500005,
      "v": 18
    },
    {
      "midi": 64,
      "hit": false,
      "t": 126826.2620625007,
      "d": 152.77762500000244,
      "v": 19
    },
    {
      "midi": 68,
      "hit": false,
      "t": 127006.8174375007,
      "d": 118.05543750000652,
      "v": 18
    },
    {
      "midi": 73,
      "hit": false,
      "t": 127173.4839375007,
      "d": 62.49993750000431,
      "v": 17
    },
    {
      "midi": 61,
      "hit": false,
      "t": 127173.4839375007,
      "d": 76.3888125000085,
      "v": 13
    },
    {
      "midi": 71,
      "hit": false,
      "t": 127347.09487500071,
      "d": 187.49981250001292,
      "v": 15
    },
    {
      "midi": 59,
      "hit": false,
      "t": 127360.98375000071,
      "d": 138.88874999999825,
      "v": 14
    },
    {
      "midi": 64,
      "hit": false,
      "t": 127513.76137500071,
      "d": 118.05543750000652,
      "v": 17
    },
    {
      "midi": 68,
      "hit": false,
      "t": 127673.48343750072,
      "d": 104.16656250000233,
      "v": 18
    },
    {
      "midi": 61,
      "hit": false,
      "t": 127819.31662500072,
      "d": 69.4443750000064,
      "v": 13
    },
    {
      "midi": 73,
      "hit": false,
      "t": 127833.20550000072,
      "d": 41.66662499999802,
      "v": 14
    },
    {
      "midi": 59,
      "hit": false,
      "t": 128006.81643750073,
      "d": 298.6108125000028,
      "v": 15
    },
    {
      "midi": 71,
      "hit": false,
      "t": 128006.81643750073,
      "d": 361.11074999999255,
      "v": 18
    },
    {
      "midi": 64,
      "hit": false,
      "t": 128340.14943750073,
      "d": 138.88874999999825,
      "v": 18
    },
    {
      "midi": 68,
      "hit": false,
      "t": 128499.87150000074,
      "d": 291.6663750000007,
      "v": 18
    },
    {
      "midi": 73,
      "hit": false,
      "t": 128826.26006250073,
      "d": 194.44425000000047,
      "v": 16
    },
    {
      "midi": 61,
      "hit": false,
      "t": 128833.20450000073,
      "d": 152.77762500000244,
      "v": 15
    },
    {
      "midi": 76,
      "hit": false,
      "t": 129145.70418750073,
      "d": 361.1107500000071,
      "v": 18
    },
    {
      "midi": 64,
      "hit": false,
      "t": 129159.59306250073,
      "d": 298.6108125000028,
      "v": 17
    },
    {
      "midi": 69,
      "hit": false,
      "t": 129485.98162500073,
      "d": 145.83318750000035,
      "v": 19
    },
    {
      "midi": 73,
      "hit": false,
      "t": 129645.70368750073,
      "d": 131.94431249999616,
      "v": 18
    },
    {
      "midi": 66,
      "hit": false,
      "t": 129805.42575000072,
      "d": 368.0551875000092,
      "v": 16
    },
    {
      "midi": 78,
      "hit": false,
      "t": 129805.42575000072,
      "d": 395.832937500003,
      "v": 18
    },
    {
      "midi": 69,
      "hit": false,
      "t": 130166.53650000073,
      "d": 131.94431249999616,
      "v": 20
    },
    {
      "midi": 73,
      "hit": false,
      "t": 130347.09187500073,
      "d": 90.27768749999814,
      "v": 14
    },
    {
      "midi": 78,
      "hit": false,
      "t": 130479.03618750072,
      "d": 83.3332500000106,
      "v": 17
    },
    {
      "midi": 66,
      "hit": false,
      "t": 130492.92506250073,
      "d": 76.3888125000085,
      "v": 13
    },
    {
      "midi": 64,
      "hit": false,
      "t": 130659.59156250073,
      "d": 284.7219374999986,
      "v": 18
    },
    {
      "midi": 76,
      "hit": false,
      "t": 130659.59156250073,
      "d": 347.2218750000029,
      "v": 20
    },
    {
      "midi": 69,
      "hit": false,
      "t": 130992.92456250073,
      "d": 131.9443125000107,
      "v": 19
    },
    {
      "midi": 73,
      "hit": false,
      "t": 131173.47993750073,
      "d": 277.7774999999965,
      "v": 17
    },
    {
      "midi": 78,
      "hit": false,
      "t": 131485.97962500073,
      "d": 173.61093749999418,
      "v": 18
    },
    {
      "midi": 66,
      "hit": false,
      "t": 131485.97962500073,
      "d": 180.55537499999627,
      "v": 15
    },
    {
      "midi": 71,
      "hit": false,
      "t": 131826.25706250072,
      "d": 416.6662499999802,
      "v": 18
    },
    {
      "midi": 59,
      "hit": false,
      "t": 131833.20150000072,
      "d": 340.27743749998626,
      "v": 17
    },
    {
      "midi": 64,
      "hit": false,
      "t": 132180.4233750007,
      "d": 159.72206249999,
      "v": 18
    },
    {
      "midi": 68,
      "hit": false,
      "t": 132340.1454375007,
      "d": 118.05543750000652,
      "v": 19
    },
    {
      "midi": 61,
      "hit": false,
      "t": 132506.8119375007,
      "d": 76.38881249999395,
      "v": 12
    },
    {
      "midi": 73,
      "hit": false,
      "t": 132513.7563750007,
      "d": 62.499937499989755,
      "v": 15
    },
    {
      "midi": 59,
      "hit": false,
      "t": 132673.4784375007,
      "d": 152.7776249999879,
      "v": 16
    },
    {
      "midi": 71,
      "hit": false,
      "t": 132673.4784375007,
      "d": 194.44425000000047,
      "v": 21
    },
    {
      "midi": 64,
      "hit": false,
      "t": 132833.20050000068,
      "d": 131.9443125000107,
      "v": 18
    },
    {
      "midi": 68,
      "hit": false,
      "t": 132985.9781250007,
      "d": 104.16656250000233,
      "v": 18
    },
    {
      "midi": 61,
      "hit": false,
      "t": 133145.70018750068,
      "d": 83.33324999999604,
      "v": 12
    },
    {
      "midi": 73,
      "hit": false,
      "t": 133166.5335000007,
      "d": 48.611062499985565,
      "v": 9
    },
    {
      "midi": 71,
      "hit": false,
      "t": 133333.20000000068,
      "d": 347.22187500001746,
      "v": 19
    },
    {
      "midi": 59,
      "hit": false,
      "t": 133347.08887500069,
      "d": 277.7774999999965,
      "v": 14
    },
    {
      "midi": 64,
      "hit": false,
      "t": 133645.6996875007,
      "d": 166.6665000000212,
      "v": 19
    },
    {
      "midi": 68,
      "hit": false,
      "t": 133826.2550625007,
      "d": 319.4441250000091,
      "v": 19
    },
    {
      "midi": 61,
      "hit": false,
      "t": 134145.69918750072,
      "d": 152.777625000017,
      "v": 14
    },
    {
      "midi": 73,
      "hit": false,
      "t": 134159.58806250073,
      "d": 180.55537500002538,
      "v": 15
    },
    {
      "midi": 76,
      "hit": false,
      "t": 134479.03218750076,
      "d": 368.05518750002375,
      "v": 16
    },
    {
      "midi": 64,
      "hit": false,
      "t": 134485.97662500077,
      "d": 312.499687500007,
      "v": 17
    },
    {
      "midi": 69,
      "hit": false,
      "t": 134826.25406250078,
      "d": 152.777625000017,
      "v": 18
    },
    {
      "midi": 73,
      "hit": false,
      "t": 134985.9761250008,
      "d": 152.7776249999879,
      "v": 17
    },
    {
      "midi": 66,
      "hit": false,
      "t": 135159.5870625008,
      "d": 340.27743750001537,
      "v": 15
    },
    {
      "midi": 78,
      "hit": false,
      "t": 135159.5870625008,
      "d": 361.11075000002165,
      "v": 19
    },
    {
      "midi": 69,
      "hit": false,
      "t": 135492.9200625008,
      "d": 145.8331875000149,
      "v": 20
    },
    {
      "midi": 73,
      "hit": false,
      "t": 135659.58656250083,
      "d": 111.11100000000442,
      "v": 17
    },
    {
      "midi": 66,
      "hit": false,
      "t": 135812.36418750085,
      "d": 76.38881249999395,
      "v": 15
    },
    {
      "midi": 78,
      "hit": false,
      "t": 135812.36418750085,
      "d": 76.38881249999395,
      "v": 16
    },
    {
      "midi": 64,
      "hit": false,
      "t": 135999.86400000085,
      "d": 291.6663750000007,
      "v": 17
    },
    {
      "midi": 76,
      "hit": false,
      "t": 135999.86400000085,
      "d": 347.22187500001746,
      "v": 20
    },
    {
      "midi": 69,
      "hit": false,
      "t": 136312.36368750085,
      "d": 166.6665000000212,
      "v": 20
    },
    {
      "midi": 73,
      "hit": false,
      "t": 136499.86350000088,
      "d": 305.5552500000049,
      "v": 17
    },
    {
      "midi": 78,
      "hit": false,
      "t": 136833.1965000009,
      "d": 145.8331875000149,
      "v": 17
    },
    {
      "midi": 66,
      "hit": false,
      "t": 136840.1409375009,
      "d": 152.777625000017,
      "v": 16
    },
    {
      "midi": 59,
      "hit": false,
      "t": 137159.5850625009,
      "d": 326.3885625000112,
      "v": 17
    },
    {
      "midi": 71,
      "hit": false,
      "t": 137166.5295000009,
      "d": 381.94406249999884,
      "v": 21
    },
    {
      "midi": 64,
      "hit": false,
      "t": 137492.91806250092,
      "d": 180.55537499999627,
      "v": 18
    },
    {
      "midi": 68,
      "hit": false,
      "t": 137673.4734375009,
      "d": 118.05543750000652,
      "v": 18
    },
    {
      "midi": 61,
      "hit": false,
      "t": 137812.36218750093,
      "d": 124.99987500000861,
      "v": 16
    },
    {
      "midi": 73,
      "hit": false,
      "t": 137826.25106250093,
      "d": 111.11100000000442,
      "v": 17
    },
    {
      "midi": 59,
      "hit": false,
      "t": 138027.63975000093,
      "d": 138.8887500000128,
      "v": 11
    },
    {
      "midi": 64,
      "hit": false,
      "t": 138208.19512500096,
      "d": 124.99987500000861,
      "v": 16
    },
    {
      "midi": 68,
      "hit": false,
      "t": 138381.80606250095,
      "d": 62.499937499989755,
      "v": 17
    },
    {
      "midi": 73,
      "hit": false,
      "t": 138499.86150000093,
      "d": 48.61106250001467,
      "v": 15
    },
    {
      "midi": 61,
      "hit": false,
      "t": 138506.80593750093,
      "d": 48.61106250001467,
      "v": 11
    },
    {
      "midi": 59,
      "hit": false,
      "t": 138652.63912500095,
      "d": 319.4441250000091,
      "v": 17
    },
    {
      "midi": 71,
      "hit": false,
      "t": 138652.63912500095,
      "d": 361.11075000002165,
      "v": 20
    },
    {
      "midi": 64,
      "hit": false,
      "t": 138972.08325000096,
      "d": 180.55537500002538,
      "v": 18
    },
    {
      "midi": 68,
      "hit": false,
      "t": 139180.416375001,
      "d": 305.5552500000049,
      "v": 19
    },
    {
      "midi": 73,
      "hit": false,
      "t": 139506.804937501,
      "d": 208.33312500000466,
      "v": 17
    },
    {
      "midi": 61,
      "hit": false,
      "t": 139513.749375001,
      "d": 166.66649999999208,
      "v": 15
    },
    {
      "midi": 76,
      "hit": false,
      "t": 139833.193500001,
      "d": 388.88850000000093,
      "v": 19
    },
    {
      "midi": 64,
      "hit": false,
      "t": 139840.13793750101,
      "d": 312.499687500007,
      "v": 17
    },
    {
      "midi": 69,
      "hit": false,
      "t": 140166.52650000103,
      "d": 159.72206249999,
      "v": 21
    },
    {
      "midi": 73,
      "hit": false,
      "t": 140333.19300000102,
      "d": 138.8887500000128,
      "v": 17
    },
    {
      "midi": 66,
      "hit": false,
      "t": 140492.91506250104,
      "d": 354.16631250001956,
      "v": 17
    },
    {
      "midi": 78,
      "hit": false,
      "t": 140492.91506250104,
      "d": 368.05518750002375,
      "v": 18
    },
    {
      "midi": 69,
      "hit": false,
      "t": 140826.24806250105,
      "d": 138.8887500000128,
      "v": 21
    },
    {
      "midi": 73,
      "hit": false,
      "t": 140999.85900000107,
      "d": 111.11100000000442,
      "v": 15
    },
    {
      "midi": 78,
      "hit": false,
      "t": 141138.7477500011,
      "d": 90.27768749999814,
      "v": 16
    },
    {
      "midi": 66,
      "hit": false,
      "t": 141145.6921875011,
      "d": 83.33324999999604,
      "v": 14
    },
    {
      "midi": 64,
      "hit": false,
      "t": 141326.24756250108,
      "d": 291.6663750000007,
      "v": 17
    },
    {
      "midi": 76,
      "hit": false,
      "t": 141326.24756250108,
      "d": 340.27743750001537,
      "v": 19
    },
    {
      "midi": 69,
      "hit": false,
      "t": 141645.6916875011,
      "d": 152.777625000017,
      "v": 20
    },
    {
      "midi": 73,
      "hit": false,
      "t": 141833.19150000112,
      "d": 270.8330624999944,
      "v": 17
    },
    {
      "midi": 78,
      "hit": false,
      "t": 142131.80231250112,
      "d": 180.55537499999627,
      "v": 17
    },
    {
      "midi": 66,
      "hit": false,
      "t": 142138.74675000113,
      "d": 173.61093749999418,
      "v": 16
    },
    {
      "midi": 59,
      "hit": false,
      "t": 142485.96862500111,
      "d": 312.499687500007,
      "v": 16
    },
    {
      "midi": 71,
      "hit": false,
      "t": 142485.96862500111,
      "d": 374.99962500002584,
      "v": 19
    },
    {
      "midi": 64,
      "hit": false,
      "t": 142826.24606250113,
      "d": 152.777625000017,
      "v": 17
    },
    {
      "midi": 68,
      "hit": false,
      "t": 142985.96812500115,
      "d": 152.7776249999879,
      "v": 17
    },
    {
      "midi": 61,
      "hit": false,
      "t": 143152.63462500114,
      "d": 340.27743750001537,
      "v": 14
    },
    {
      "midi": 73,
      "hit": false,
      "t": 143159.57906250114,
      "d": 368.05518750002375,
      "v": 15
    },
    {
      "midi": 64,
      "hit": false,
      "t": 143506.80093750116,
      "d": 124.99987500000861,
      "v": 17
    },
    {
      "midi": 68,
      "hit": false,
      "t": 143659.57856250118,
      "d": 124.99987500000861,
      "v": 18
    },
    {
      "midi": 73,
      "hit": false,
      "t": 143798.4673125012,
      "d": 83.33324999999604,
      "v": 15
    },
    {
      "midi": 61,
      "hit": false,
      "t": 143812.3561875012,
      "d": 76.38881249999395,
      "v": 13
    },
    {
      "midi": 71,
      "hit": false,
      "t": 143999.8560000012,
      "d": 374.99962499999674,
      "v": 19
    },
    {
      "midi": 59,
      "hit": false,
      "t": 144006.8004375012,
      "d": 298.6108125000028,
      "v": 15
    },
    {
      "midi": 64,
      "hit": false,
      "t": 144326.2445625012,
      "d": 166.66649999999208,
      "v": 15
    },
    {
      "midi": 68,
      "hit": false,
      "t": 144513.7443750012,
      "d": 291.6663750000007,
      "v": 18
    },
    {
      "midi": 61,
      "hit": false,
      "t": 144833.1885000012,
      "d": 159.72206249999,
      "v": 15
    },
    {
      "midi": 73,
      "hit": false,
      "t": 144833.1885000012,
      "d": 187.49981249999837,
      "v": 15
    },
    {
      "midi": 76,
      "hit": false,
      "t": 145152.63262500122,
      "d": 374.99962499999674,
      "v": 19
    },
    {
      "midi": 64,
      "hit": false,
      "t": 145159.57706250122,
      "d": 284.7219374999986,
      "v": 15
    },
    {
      "midi": 69,
      "hit": false,
      "t": 145492.9100625012,
      "d": 152.777625000017,
      "v": 20
    },
    {
      "midi": 73,
      "hit": false,
      "t": 145652.63212500123,
      "d": 152.7776249999879,
      "v": 16
    },
    {
      "midi": 66,
      "hit": false,
      "t": 145826.24306250122,
      "d": 326.3885625000112,
      "v": 15
    },
    {
      "midi": 78,
      "hit": false,
      "t": 145826.24306250122,
      "d": 347.22187500001746,
      "v": 17
    },
    {
      "midi": 69,
      "hit": false,
      "t": 146173.46493750124,
      "d": 145.8331874999858,
      "v": 18
    },
    {
      "midi": 73,
      "hit": false,
      "t": 146340.13143750123,
      "d": 124.99987500000861,
      "v": 15
    },
    {
      "midi": 78,
      "hit": false,
      "t": 146485.96462500124,
      "d": 76.38881249999395,
      "v": 13
    },
    {
      "midi": 66,
      "hit": false,
      "t": 146499.85350000125,
      "d": 69.44437499999185,
      "v": 14
    },
    {
      "midi": 76,
      "hit": false,
      "t": 146666.52000000124,
      "d": 347.22187500001746,
      "v": 19
    },
    {
      "midi": 64,
      "hit": false,
      "t": 146673.46443750124,
      "d": 277.7774999999965,
      "v": 15
    },
    {
      "midi": 69,
      "hit": false,
      "t": 146979.01968750125,
      "d": 180.55537499999627,
      "v": 19
    },
    {
      "midi": 73,
      "hit": false,
      "t": 147166.51950000125,
      "d": 312.499687500007,
      "v": 17
    },
    {
      "midi": 78,
      "hit": false,
      "t": 147492.90806250126,
      "d": 173.61093749999418,
      "v": 17
    },
    {
      "midi": 66,
      "hit": false,
      "t": 147506.79693750126,
      "d": 145.8331874999858,
      "v": 15
    },
    {
      "midi": 59,
      "hit": false,
      "t": 147847.07437500125,
      "d": 291.6663750000007,
      "v": 15
    },
    {
      "midi": 71,
      "hit": false,
      "t": 147847.07437500125,
      "d": 361.11074999999255,
      "v": 20
    },
    {
      "midi": 64,
      "hit": false,
      "t": 148152.62962500125,
      "d": 187.49981249999837,
      "v": 18
    },
    {
      "midi": 68,
      "hit": false,
      "t": 148340.12943750125,
      "d": 159.72206249999,
      "v": 17
    },
    {
      "midi": 61,
      "hit": false,
      "t": 148513.74037500125,
      "d": 305.5552500000049,
      "v": 13
    },
    {
      "midi": 73,
      "hit": false,
      "t": 148513.74037500125,
      "d": 361.11075000002165,
      "v": 17
    },
    {
      "midi": 64,
      "hit": false,
      "t": 148847.07337500126,
      "d": 131.9443125000107,
      "v": 18
    },
    {
      "midi": 68,
      "hit": false,
      "t": 149006.79543750128,
      "d": 118.05543750000652,
      "v": 18
    },
    {
      "midi": 73,
      "hit": false,
      "t": 149145.6841875013,
      "d": 90.27768749999814,
      "v": 15
    },
    {
      "midi": 61,
      "hit": false,
      "t": 149152.6286250013,
      "d": 76.38881249999395,
      "v": 9
    },
    {
      "midi": 71,
      "hit": false,
      "t": 149333.1840000013,
      "d": 340.27743750001537,
      "v": 20
    },
    {
      "midi": 59,
      "hit": false,
      "t": 149340.1284375013,
      "d": 291.6663750000007,
      "v": 15
    },
    {
      "midi": 64,
      "hit": false,
      "t": 149645.6836875013,
      "d": 159.7220625000191,
      "v": 18
    },
    {
      "midi": 68,
      "hit": false,
      "t": 149819.29462500132,
      "d": 298.6108125000028,
      "v": 18
    },
    {
      "midi": 61,
      "hit": false,
      "t": 150145.68318750133,
      "d": 180.55537499999627,
      "v": 15
    },
    {
      "midi": 73,
      "hit": false,
      "t": 150145.68318750133,
      "d": 194.44425000000047,
      "v": 15
    },
    {
      "midi": 76,
      "hit": false,
      "t": 150472.07175000134,
      "d": 388.88850000003004,
      "v": 17
    },
    {
      "midi": 64,
      "hit": false,
      "t": 150479.01618750134,
      "d": 326.3885625000112,
      "v": 14
    },
    {
      "midi": 69,
      "hit": false,
      "t": 150826.23806250136,
      "d": 152.777625000017,
      "v": 18
    },
    {
      "midi": 73,
      "hit": false,
      "t": 150985.96012500138,
      "d": 152.7776249999879,
      "v": 16
    },
    {
      "midi": 66,
      "hit": false,
      "t": 151152.62662500137,
      "d": 347.22187499998836,
      "v": 15
    },
    {
      "midi": 78,
      "hit": false,
      "t": 151159.57106250137,
      "d": 374.99962499999674,
      "v": 18
    },
    {
      "midi": 69,
      "hit": false,
      "t": 151513.73737500136,
      "d": 131.9443125000107,
      "v": 19
    },
    {
      "midi": 73,
      "hit": false,
      "t": 151652.6261250006,
      "d": 124.99987500000861,
      "v": 84
    },
    {
      "midi": 69,
      "hit": false,
      "t": 151652.6261250006,
      "d": 138.8887500000128,
      "v": 89
    },
    {
      "midi": 73,
      "hit": false,
      "t": 151666.51500000138,
      "d": 118.05543750000652,
      "v": 16
    },
    {
      "midi": 78,
      "hit": false,
      "t": 151805.4037500014,
      "d": 104.16656250000233,
      "v": 16
    },
    {
      "midi": 66,
      "hit": false,
      "t": 151826.2370625014,
      "d": 90.27768749999814,
      "v": 12
    },
    {
      "midi": 76,
      "hit": false,
      "t": 151867.9036875006,
      "d": 201.38868750000256,
      "v": 90
    },
    {
      "midi": 69,
      "hit": false,
      "t": 151867.9036875006,
      "d": 208.33312500000466,
      "v": 90
    },
    {
      "midi": 73,
      "hit": false,
      "t": 151874.8481250006,
      "d": 194.44425000000047,
      "v": 81
    },
    {
      "midi": 64,
      "hit": false,
      "t": 151999.8480000014,
      "d": 305.5552500000049,
      "v": 17
    },
    {
      "midi": 76,
      "hit": false,
      "t": 152006.7924375014,
      "d": 374.99962499999674,
      "v": 19
    },
    {
      "midi": 69,
      "hit": false,
      "t": 152166.5145000006,
      "d": 222.22200000000885,
      "v": 89
    },
    {
      "midi": 76,
      "hit": false,
      "t": 152173.4589375006,
      "d": 208.33312500000466,
      "v": 89
    },
    {
      "midi": 73,
      "hit": false,
      "t": 152173.4589375006,
      "d": 215.27756250000675,
      "v": 80
    },
    {
      "midi": 69,
      "hit": false,
      "t": 152354.0143125014,
      "d": 187.49981249999837,
      "v": 21
    },
    {
      "midi": 69,
      "hit": false,
      "t": 152479.0141875006,
      "d": 69.44437499999185,
      "v": 80
    },
    {
      "midi": 73,
      "hit": false,
      "t": 152479.0141875006,
      "d": 69.44437499999185,
      "v": 71
    },
    {
      "midi": 76,
      "hit": false,
      "t": 152485.9586250006,
      "d": 55.55549999998766,
      "v": 81
    },
    {
      "midi": 73,
      "hit": false,
      "t": 152534.56968750138,
      "d": 333.33300000001327,
      "v": 18
    },
    {
      "midi": 69,
      "hit": false,
      "t": 152659.5695625006,
      "d": 215.27756250000675,
      "v": 94
    },
    {
      "midi": 78,
      "hit": false,
      "t": 152659.5695625006,
      "d": 222.22200000000885,
      "v": 82
    },
    {
      "midi": 73,
      "hit": false,
      "t": 152666.5140000006,
      "d": 229.16643750001094,
      "v": 64
    },
    {
      "midi": 78,
      "hit": false,
      "t": 152881.7915625014,
      "d": 180.55537499999627,
      "v": 17
    },
    {
      "midi": 66,
      "hit": false,
      "t": 152888.7360000014,
      "d": 173.61093749999418,
      "v": 16
    },
    {
      "midi": 69,
      "hit": false,
      "t": 152985.95812500062,
      "d": 55.55549999998766,
      "v": 89
    },
    {
      "midi": 73,
      "hit": false,
      "t": 152992.90256250062,
      "d": 48.611062499985565,
      "v": 67
    },
    {
      "midi": 78,
      "hit": false,
      "t": 152992.90256250062,
      "d": 55.55549999998766,
      "v": 76
    },
    {
      "midi": 80,
      "hit": false,
      "t": 153159.5690625006,
      "d": 1062.4989375000005,
      "v": 99
    },
    {
      "midi": 76,
      "hit": false,
      "t": 153166.5135000006,
      "d": 1034.721187499992,
      "v": 98
    },
    {
      "midi": 71,
      "hit": false,
      "t": 153166.5135000006,
      "d": 1055.5544999999984,
      "v": 68
    },
    {
      "midi": 59,
      "hit": false,
      "t": 153194.2912500014,
      "d": 298.6108125000028,
      "v": 19
    },
    {
      "midi": 72,
      "hit": false,
      "t": 153215.1245625014,
      "d": 131.9443125000107,
      "v": 19
    },
    {
      "midi": 71,
      "hit": false,
      "t": 153215.1245625014,
      "d": 340.27743749998626,
      "v": 19
    },
    {
      "midi": 64,
      "hit": false,
      "t": 153499.8465000014,
      "d": 145.8331874999858,
      "v": 19
    },
    {
      "midi": 68,
      "hit": false,
      "t": 153673.4574375014,
      "d": 97.22212500000023,
      "v": 18
    },
    {
      "midi": 61,
      "hit": false,
      "t": 153826.2350625014,
      "d": 83.33324999999604,
      "v": 18
    },
    {
      "midi": 73,
      "hit": false,
      "t": 153833.1795000014,
      "d": 62.499937499989755,
      "v": 14
    },
    {
      "midi": 71,
      "hit": false,
      "t": 153992.90156250139,
      "d": 222.22199999997974,
      "v": 20
    },
    {
      "midi": 59,
      "hit": false,
      "t": 153999.8460000014,
      "d": 152.7776249999879,
      "v": 14
    },
    {
      "midi": 64,
      "hit": false,
      "t": 154166.51250000138,
      "d": 159.72206249999,
      "v": 15
    },
    {
      "midi": 71,
      "hit": false,
      "t": 154333.17900000061,
      "d": 118.05543750000652,
      "v": 85
    },
    {
      "midi": 74,
      "hit": false,
      "t": 154340.12343750062,
      "d": 97.22212500000023,
      "v": 89
    },
    {
      "midi": 68,
      "hit": false,
      "t": 154340.12343750137,
      "d": 97.22212500000023,
      "v": 17
    },
    {
      "midi": 73,
      "hit": false,
      "t": 154492.90106250136,
      "d": 97.22212500000023,
      "v": 16
    },
    {
      "midi": 61,
      "hit": false,
      "t": 154506.78993750137,
      "d": 83.33324999999604,
      "v": 13
    },
    {
      "midi": 74,
      "hit": false,
      "t": 154527.62325000062,
      "d": 166.66649999999208,
      "v": 99
    },
    {
      "midi": 71,
      "hit": false,
      "t": 154534.56768750062,
      "d": 152.7776249999879,
      "v": 89
    },
    {
      "midi": 78,
      "hit": false,
      "t": 154534.56768750062,
      "d": 180.55537499999627,
      "v": 89
    },
    {
      "midi": 59,
      "hit": false,
      "t": 154680.40087500136,
      "d": 277.7774999999965,
      "v": 15
    },
    {
      "midi": 71,
      "hit": false,
      "t": 154680.40087500136,
      "d": 340.27743750001537,
      "v": 20
    },
    {
      "midi": 74,
      "hit": false,
      "t": 154833.17850000062,
      "d": 187.49981249999837,
      "v": 104
    },
    {
      "midi": 71,
      "hit": false,
      "t": 154833.17850000062,
      "d": 194.44425000000047,
      "v": 89
    },
    {
      "midi": 78,
      "hit": false,
      "t": 154833.17850000062,
      "d": 208.33312500000466,
      "v": 84
    },
    {
      "midi": 64,
      "hit": false,
      "t": 154992.90056250137,
      "d": 187.49981249999837,
      "v": 18
    },
    {
      "midi": 71,
      "hit": false,
      "t": 155145.67818750063,
      "d": 76.38881249999395,
      "v": 84
    },
    {
      "midi": 74,
      "hit": false,
      "t": 155152.62262500063,
      "d": 69.44437499999185,
      "v": 93
    },
    {
      "midi": 78,
      "hit": false,
      "t": 155152.62262500063,
      "d": 69.44437499999185,
      "v": 73
    },
    {
      "midi": 68,
      "hit": false,
      "t": 155194.28925000137,
      "d": 263.8886249999923,
      "v": 18
    },
    {
      "midi": 80,
      "hit": false,
      "t": 155326.23356250062,
      "d": 249.99975000001723,
      "v": 74
    },
    {
      "midi": 74,
      "hit": false,
      "t": 155333.17800000063,
      "d": 208.33312500000466,
      "v": 101
    },
    {
      "midi": 71,
      "hit": false,
      "t": 155340.12243750063,
      "d": 201.38868750000256,
      "v": 93
    },
    {
      "midi": 61,
      "hit": false,
      "t": 155513.73337500135,
      "d": 152.7776249999879,
      "v": 15
    },
    {
      "midi": 73,
      "hit": false,
      "t": 155513.73337500135,
      "d": 166.66649999999208,
      "v": 15
    },
    {
      "midi": 80,
      "hit": false,
      "t": 155624.84437500063,
      "d": 83.33325000002515,
      "v": 84
    },
    {
      "midi": 71,
      "hit": false,
      "t": 155645.67768750063,
      "d": 55.555500000016764,
      "v": 89
    },
    {
      "midi": 74,
      "hit": false,
      "t": 155652.62212500063,
      "d": 41.66662500001257,
      "v": 99
    },
    {
      "midi": 76,
      "hit": false,
      "t": 155812.34418750135,
      "d": 381.94406250002794,
      "v": 20
    },
    {
      "midi": 64,
      "hit": false,
      "t": 155819.28862500135,
      "d": 312.499687500007,
      "v": 17
    },
    {
      "midi": 76,
      "hit": false,
      "t": 155826.23306250066,
      "d": 999.9990000000107,
      "v": 94
    },
    {
      "midi": 81,
      "hit": false,
      "t": 155833.17750000066,
      "d": 993.0545625000086,
      "v": 99
    },
    {
      "midi": 73,
      "hit": false,
      "t": 155833.17750000066,
      "d": 1013.8878750000149,
      "v": 89
    },
    {
      "midi": 69,
      "hit": false,
      "t": 156166.51050000137,
      "d": 159.7220625000191,
      "v": 19
    },
    {
      "midi": 73,
      "hit": false,
      "t": 156326.2325625014,
      "d": 145.8331874999858,
      "v": 17
    },
    {
      "midi": 66,
      "hit": false,
      "t": 156479.01018750138,
      "d": 388.88850000000093,
      "v": 14
    },
    {
      "midi": 78,
      "hit": false,
      "t": 156479.01018750138,
      "d": 395.832937500003,
      "v": 17
    },
    {
      "midi": 69,
      "hit": false,
      "t": 156854.00981250138,
      "d": 138.8887500000128,
      "v": 22
    },
    {
      "midi": 73,
      "hit": false,
      "t": 156985.9541250007,
      "d": 97.22212500000023,
      "v": 80
    },
    {
      "midi": 69,
      "hit": false,
      "t": 156992.8985625007,
      "d": 83.33324999999604,
      "v": 95
    },
    {
      "midi": 73,
      "hit": false,
      "t": 157013.7318750014,
      "d": 104.16656250000233,
      "v": 16
    },
    {
      "midi": 78,
      "hit": false,
      "t": 157145.6761875014,
      "d": 83.33324999999604,
      "v": 18
    },
    {
      "midi": 66,
      "hit": false,
      "t": 157159.5650625014,
      "d": 76.38881249999395,
      "v": 15
    },
    {
      "midi": 69,
      "hit": false,
      "t": 157173.4539375007,
      "d": 180.55537499999627,
      "v": 90
    },
    {
      "midi": 76,
      "hit": false,
      "t": 157173.4539375007,
      "d": 201.38868750000256,
      "v": 85
    },
    {
      "midi": 73,
      "hit": false,
      "t": 157187.3428125007,
      "d": 187.49981249999837,
      "v": 77
    },
    {
      "midi": 76,
      "hit": false,
      "t": 157326.2315625014,
      "d": 368.05518750002375,
      "v": 18
    },
    {
      "midi": 64,
      "hit": false,
      "t": 157333.1760000014,
      "d": 291.6663750000007,
      "v": 16
    },
    {
      "midi": 69,
      "hit": false,
      "t": 157492.8980625007,
      "d": 208.33312500000466,
      "v": 81
    },
    {
      "midi": 76,
      "hit": false,
      "t": 157492.8980625007,
      "d": 215.27756250000675,
      "v": 81
    },
    {
      "midi": 73,
      "hit": false,
      "t": 157499.8425000007,
      "d": 222.22200000000885,
      "v": 72
    },
    {
      "midi": 69,
      "hit": false,
      "t": 157652.6201250014,
      "d": 145.8331875000149,
      "v": 19
    },
    {
      "midi": 76,
      "hit": false,
      "t": 157819.2866250007,
      "d": 48.611062499985565,
      "v": 77
    },
    {
      "midi": 69,
      "hit": false,
      "t": 157819.2866250007,
      "d": 55.55549999998766,
      "v": 80
    },
    {
      "midi": 73,
      "hit": false,
      "t": 157819.2866250007,
      "d": 62.499937499989755,
      "v": 65
    },
    {
      "midi": 73,
      "hit": false,
      "t": 157819.28662500143,
      "d": 298.6108125000028,
      "v": 17
    },
    {
      "midi": 78,
      "hit": false,
      "t": 157992.8975625007,
      "d": 215.27756250000675,
      "v": 65
    },
    {
      "midi": 69,
      "hit": false,
      "t": 157999.8420000007,
      "d": 208.33312500000466,
      "v": 84
    },
    {
      "midi": 73,
      "hit": false,
      "t": 157999.8420000007,
      "d": 208.33312500000466,
      "v": 73
    },
    {
      "midi": 78,
      "hit": false,
      "t": 158131.78631250144,
      "d": 173.61093749999418,
      "v": 18
    },
    {
      "midi": 66,
      "hit": false,
      "t": 158145.67518750145,
      "d": 159.72206249999,
      "v": 16
    },
    {
      "midi": 69,
      "hit": false,
      "t": 158319.2861250007,
      "d": 41.66662500001257,
      "v": 84
    },
    {
      "midi": 73,
      "hit": false,
      "t": 158326.2305625007,
      "d": 41.66662500001257,
      "v": 68
    },
    {
      "midi": 78,
      "hit": false,
      "t": 158326.2305625007,
      "d": 48.61106250001467,
      "v": 73
    },
    {
      "midi": 59,
      "hit": false,
      "t": 158465.11931250143,
      "d": 347.22187499998836,
      "v": 15
    },
    {
      "midi": 71,
      "hit": false,
      "t": 158472.06375000143,
      "d": 395.832937500003,
      "v": 19
    },
    {
      "midi": 76,
      "hit": false,
      "t": 158499.84150000074,
      "d": 1020.8323124999879,
      "v": 80
    },
    {
      "midi": 80,
      "hit": false,
      "t": 158499.84150000074,
      "d": 1027.77674999999,
      "v": 76
    },
    {
      "midi": 71,
      "hit": false,
      "t": 158499.84150000074,
      "d": 1034.721187499992,
      "v": 76
    },
    {
      "midi": 64,
      "hit": false,
      "t": 158840.11893750142,
      "d": 131.9443125000107,
      "v": 17
    },
    {
      "midi": 68,
      "hit": false,
      "t": 158992.89656250144,
      "d": 124.99987500000861,
      "v": 15
    },
    {
      "midi": 73,
      "hit": false,
      "t": 159124.84087500145,
      "d": 97.22212500000023,
      "v": 13
    },
    {
      "midi": 61,
      "hit": false,
      "t": 159124.84087500145,
      "d": 104.16656250000233,
      "v": 13
    },
    {
      "midi": 59,
      "hit": false,
      "t": 159326.22956250145,
      "d": 166.66649999999208,
      "v": 14
    },
    {
      "midi": 71,
      "hit": false,
      "t": 159326.22956250145,
      "d": 208.33312500000466,
      "v": 20
    },
    {
      "midi": 64,
      "hit": false,
      "t": 159499.84050000145,
      "d": 131.9443125000107,
      "v": 18
    },
    {
      "midi": 80,
      "hit": false,
      "t": 159638.72925000073,
      "d": 118.05543750000652,
      "v": 64
    },
    {
      "midi": 68,
      "hit": false,
      "t": 159652.61812500146,
      "d": 118.05543750000652,
      "v": 17
    },
    {
      "midi": 71,
      "hit": false,
      "t": 159666.50700000074,
      "d": 69.44437499999185,
      "v": 74
    },
    {
      "midi": 61,
      "hit": false,
      "t": 159812.34018750148,
      "d": 90.27768749999814,
      "v": 12
    },
    {
      "midi": 73,
      "hit": false,
      "t": 159819.28462500148,
      "d": 76.38881249999395,
      "v": 13
    },
    {
      "midi": 83,
      "hit": false,
      "t": 159840.11793750073,
      "d": 201.38868750000256,
      "v": 76
    },
    {
      "midi": 71,
      "hit": false,
      "t": 159847.06237500074,
      "d": 194.44425000000047,
      "v": 81
    },
    {
      "midi": 59,
      "hit": false,
      "t": 159999.84000000148,
      "d": 298.6108125000028,
      "v": 15
    },
    {
      "midi": 71,
      "hit": false,
      "t": 159999.84000000148,
      "d": 347.22187500001746,
      "v": 19
    },
    {
      "midi": 71,
      "hit": false,
      "t": 160166.50650000075,
      "d": 194.44425000000047,
      "v": 85
    },
    {
      "midi": 78,
      "hit": false,
      "t": 160166.50650000075,
      "d": 194.44425000000047,
      "v": 84
    },
    {
      "midi": 64,
      "hit": false,
      "t": 160333.1730000015,
      "d": 166.66649999999208,
      "v": 17
    },
    {
      "midi": 71,
      "hit": false,
      "t": 160479.00618750075,
      "d": 90.27768749999814,
      "v": 82
    },
    {
      "midi": 78,
      "hit": false,
      "t": 160485.95062500075,
      "d": 76.38881249999395,
      "v": 80
    },
    {
      "midi": 68,
      "hit": false,
      "t": 160513.7283750015,
      "d": 312.499687500007,
      "v": 18
    },
    {
      "midi": 80,
      "hit": false,
      "t": 160652.61712500075,
      "d": 208.33312500000466,
      "v": 77
    },
    {
      "midi": 71,
      "hit": false,
      "t": 160666.50600000075,
      "d": 208.33312500000466,
      "v": 80
    },
    {
      "midi": 73,
      "hit": false,
      "t": 160847.0613750015,
      "d": 180.55537499999627,
      "v": 17
    },
    {
      "midi": 61,
      "hit": false,
      "t": 160854.0058125015,
      "d": 145.8331874999858,
      "v": 15
    },
    {
      "midi": 71,
      "hit": false,
      "t": 160979.00568750076,
      "d": 55.55549999998766,
      "v": 78
    },
    {
      "midi": 80,
      "hit": false,
      "t": 160979.00568750076,
      "d": 69.44437499999185,
      "v": 81
    },
    {
      "midi": 76,
      "hit": false,
      "t": 161152.61662500075,
      "d": 722.2215000000142,
      "v": 84
    },
    {
      "midi": 76,
      "hit": false,
      "t": 161152.6166250015,
      "d": 354.16631250001956,
      "v": 19
    },
    {
      "midi": 73,
      "hit": false,
      "t": 161159.56106250075,
      "d": 701.3881875000079,
      "v": 66
    },
    {
      "midi": 81,
      "hit": false,
      "t": 161159.56106250075,
      "d": 708.33262500001,
      "v": 80
    },
    {
      "midi": 64,
      "hit": false,
      "t": 161159.5610625015,
      "d": 319.4441250000091,
      "v": 14
    },
    {
      "midi": 69,
      "hit": false,
      "t": 161485.94962500152,
      "d": 166.66649999999208,
      "v": 20
    },
    {
      "midi": 73,
      "hit": false,
      "t": 161666.50500000152,
      "d": 145.8331874999858,
      "v": 17
    },
    {
      "midi": 78,
      "hit": false,
      "t": 161826.2270625015,
      "d": 388.88850000000093,
      "v": 17
    },
    {
      "midi": 66,
      "hit": false,
      "t": 161833.1715000015,
      "d": 368.05518749999464,
      "v": 15
    },
    {
      "midi": 78,
      "hit": false,
      "t": 161985.94912500077,
      "d": 249.99975000001723,
      "v": 76
    },
    {
      "midi": 73,
      "hit": false,
      "t": 161999.83800000077,
      "d": 208.33312500000466,
      "v": 72
    },
    {
      "midi": 69,
      "hit": false,
      "t": 162208.1711250015,
      "d": 145.8331875000149,
      "v": 19
    },
    {
      "midi": 78,
      "hit": false,
      "t": 162326.2265625008,
      "d": 236.11087500001304,
      "v": 81
    },
    {
      "midi": 73,
      "hit": false,
      "t": 162333.1710000008,
      "d": 208.33312500000466,
      "v": 70
    },
    {
      "midi": 73,
      "hit": false,
      "t": 162360.94875000152,
      "d": 152.7776249999879,
      "v": 18
    },
    {
      "midi": 78,
      "hit": false,
      "t": 162513.7263750015,
      "d": 90.27768749999814,
      "v": 19
    },
    {
      "midi": 66,
      "hit": false,
      "t": 162520.6708125015,
      "d": 76.38881249999395,
      "v": 10
    },
    {
      "midi": 78,
      "hit": false,
      "t": 162652.6151250008,
      "d": 423.6106875000114,
      "v": 81
    },
    {
      "midi": 73,
      "hit": false,
      "t": 162659.5595625008,
      "d": 395.832937500003,
      "v": 76
    },
    {
      "midi": 64,
      "hit": false,
      "t": 162687.3373125015,
      "d": 263.8886249999923,
      "v": 17
    },
    {
      "midi": 76,
      "hit": false,
      "t": 162694.2817500015,
      "d": 312.499687500007,
      "v": 19
    },
    {
      "midi": 69,
      "hit": false,
      "t": 162992.8925625015,
      "d": 138.8887500000128,
      "v": 20
    },
    {
      "midi": 76,
      "hit": false,
      "t": 163152.6146250008,
      "d": 76.38881249999395,
      "v": 89
    },
    {
      "midi": 73,
      "hit": false,
      "t": 163166.50350000153,
      "d": 291.6663750000007,
      "v": 18
    },
    {
      "midi": 73,
      "hit": false,
      "t": 163173.4479375008,
      "d": 55.55549999998766,
      "v": 46
    },
    {
      "midi": 80,
      "hit": false,
      "t": 163340.1144375008,
      "d": 208.33312500000466,
      "v": 64
    },
    {
      "midi": 76,
      "hit": false,
      "t": 163347.0588750008,
      "d": 180.55537499999627,
      "v": 72
    },
    {
      "midi": 73,
      "hit": false,
      "t": 163347.0588750008,
      "d": 208.33312500000466,
      "v": 50
    },
    {
      "midi": 78,
      "hit": false,
      "t": 163492.89206250155,
      "d": 173.61093749999418,
      "v": 17
    },
    {
      "midi": 66,
      "hit": false,
      "t": 163492.89206250155,
      "d": 187.49981249999837,
      "v": 15
    },
    {
      "midi": 78,
      "hit": false,
      "t": 163652.6141250008,
      "d": 76.38881249999395,
      "v": 71
    },
    {
      "midi": 76,
      "hit": false,
      "t": 163819.2806250008,
      "d": 208.33312500000466,
      "v": 93
    },
    {
      "midi": 73,
      "hit": false,
      "t": 163819.2806250008,
      "d": 222.22200000000885,
      "v": 68
    },
    {
      "midi": 59,
      "hit": false,
      "t": 163833.16950000153,
      "d": 305.5552500000049,
      "v": 17
    },
    {
      "midi": 71,
      "hit": false,
      "t": 163833.16950000153,
      "d": 368.05518749999464,
      "v": 19
    },
    {
      "midi": 64,
      "hit": false,
      "t": 164152.61362500154,
      "d": 145.8331874999858,
      "v": 18
    },
    {
      "midi": 74,
      "hit": false,
      "t": 164159.55806250082,
      "d": 694.4437500000058,
      "v": 93
    },
    {
      "midi": 71,
      "hit": false,
      "t": 164159.55806250082,
      "d": 701.3881875000079,
      "v": 94
    },
    {
      "midi": 68,
      "hit": false,
      "t": 164319.28012500153,
      "d": 90.27768749999814,
      "v": 18
    },
    {
      "midi": 61,
      "hit": false,
      "t": 164485.94662500152,
      "d": 76.38881249999395,
      "v": 16
    },
    {
      "midi": 73,
      "hit": false,
      "t": 164492.89106250153,
      "d": 62.499937499989755,
      "v": 14
    },
    {
      "midi": 59,
      "hit": false,
      "t": 164659.55756250152,
      "d": 166.66649999999208,
      "v": 15
    },
    {
      "midi": 71,
      "hit": false,
      "t": 164659.55756250152,
      "d": 222.22199999997974,
      "v": 20
    },
    {
      "midi": 64,
      "hit": false,
      "t": 164819.2796250015,
      "d": 166.66649999999208,
      "v": 19
    },
    {
      "midi": 71,
      "hit": false,
      "t": 164985.94612500083,
      "d": 104.16656250000233,
      "v": 76
    },
    {
      "midi": 76,
      "hit": false,
      "t": 164985.94612500083,
      "d": 104.16656250000233,
      "v": 84
    },
    {
      "midi": 68,
      "hit": false,
      "t": 164999.8350000015,
      "d": 90.27768749999814,
      "v": 18
    },
    {
      "midi": 61,
      "hit": false,
      "t": 165131.77931250152,
      "d": 90.27768749999814,
      "v": 14
    },
    {
      "midi": 73,
      "hit": false,
      "t": 165145.66818750152,
      "d": 69.44437499999185,
      "v": 13
    },
    {
      "midi": 76,
      "hit": false,
      "t": 165173.44593750083,
      "d": 215.27756250000675,
      "v": 93
    },
    {
      "midi": 71,
      "hit": false,
      "t": 165173.44593750083,
      "d": 229.16643750001094,
      "v": 80
    },
    {
      "midi": 80,
      "hit": false,
      "t": 165180.39037500083,
      "d": 229.16643750001094,
      "v": 67
    },
    {
      "midi": 59,
      "hit": false,
      "t": 165312.3346875015,
      "d": 298.6108125000028,
      "v": 15
    },
    {
      "midi": 71,
      "hit": false,
      "t": 165312.3346875015,
      "d": 381.94406249999884,
      "v": 19
    },
    {
      "midi": 71,
      "hit": false,
      "t": 165492.89006250084,
      "d": 229.16643750001094,
      "v": 82
    },
    {
      "midi": 80,
      "hit": false,
      "t": 165492.89006250084,
      "d": 229.16643750001094,
      "v": 78
    },
    {
      "midi": 76,
      "hit": false,
      "t": 165499.83450000084,
      "d": 229.16643750001094,
      "v": 89
    },
    {
      "midi": 64,
      "hit": false,
      "t": 165638.72325000152,
      "d": 194.44425000000047,
      "v": 15
    },
    {
      "midi": 71,
      "hit": false,
      "t": 165812.33418750085,
      "d": 104.16656250000233,
      "v": 81
    },
    {
      "midi": 76,
      "hit": false,
      "t": 165819.27862500085,
      "d": 76.38881249999395,
      "v": 89
    },
    {
      "midi": 80,
      "hit": false,
      "t": 165819.27862500085,
      "d": 76.38881249999395,
      "v": 76
    },
    {
      "midi": 68,
      "hit": false,
      "t": 165840.11193750153,
      "d": 291.6663750000007,
      "v": 19
    },
    {
      "midi": 71,
      "hit": false,
      "t": 165992.88956250084,
      "d": 222.22200000000885,
      "v": 86
    },
    {
      "midi": 80,
      "hit": false,
      "t": 165999.83400000085,
      "d": 208.33312500000466,
      "v": 76
    },
    {
      "midi": 76,
      "hit": false,
      "t": 165999.83400000085,
      "d": 215.27756250000675,
      "v": 95
    },
    {
      "midi": 61,
      "hit": false,
      "t": 166152.61162500153,
      "d": 152.7776249999879,
      "v": 13
    },
    {
      "midi": 73,
      "hit": false,
      "t": 166159.55606250154,
      "d": 166.66649999999208,
      "v": 11
    },
    {
      "midi": 78,
      "hit": false,
      "t": 166312.33368750085,
      "d": 83.33324999999604,
      "v": 84
    },
    {
      "midi": 71,
      "hit": false,
      "t": 166319.27812500086,
      "d": 90.27768749999814,
      "v": 84
    },
    {
      "midi": 78,
      "hit": false,
      "t": 166492.88906250085,
      "d": 208.33312500000466,
      "v": 89
    },
    {
      "midi": 71,
      "hit": false,
      "t": 166492.88906250085,
      "d": 229.16643750001094,
      "v": 93
    },
    {
      "midi": 64,
      "hit": false,
      "t": 166492.88906250152,
      "d": 319.4441250000091,
      "v": 14
    },
    {
      "midi": 76,
      "hit": false,
      "t": 166492.88906250152,
      "d": 368.05518749999464,
      "v": 17
    },
    {
      "midi": 69,
      "hit": false,
      "t": 166812.33318750153,
      "d": 173.61093749999418,
      "v": 19
    },
    {
      "midi": 76,
      "hit": false,
      "t": 166819.27762500086,
      "d": 430.5551250000135,
      "v": 84
    },
    {
      "midi": 69,
      "hit": false,
      "t": 166833.16650000087,
      "d": 354.16631249999045,
      "v": 89
    },
    {
      "midi": 73,
      "hit": false,
      "t": 166833.16650000087,
      "d": 395.832937500003,
      "v": 80
    },
    {
      "midi": 73,
      "hit": false,
      "t": 166978.99968750152,
      "d": 159.72206249999,
      "v": 18
    },
    {
      "midi": 78,
      "hit": false,
      "t": 167152.61062500151,
      "d": 374.99962500002584,
      "v": 15
    },
    {
      "midi": 66,
      "hit": false,
      "t": 167166.49950000152,
      "d": 333.33300000001327,
      "v": 14
    },
    {
      "midi": 73,
      "hit": false,
      "t": 167360.94375000088,
      "d": 243.05531250001513,
      "v": 82
    },
    {
      "midi": 78,
      "hit": false,
      "t": 167374.83262500088,
      "d": 215.27756250000675,
      "v": 99
    },
    {
      "midi": 69,
      "hit": false,
      "t": 167520.66581250154,
      "d": 124.99987500000861,
      "v": 17
    },
    {
      "midi": 73,
      "hit": false,
      "t": 167673.4434375009,
      "d": 270.8330625000235,
      "v": 84
    },
    {
      "midi": 78,
      "hit": false,
      "t": 167680.3878750009,
      "d": 236.11087500001304,
      "v": 94
    },
    {
      "midi": 78,
      "hit": false,
      "t": 167791.49887500153,
      "d": 97.22212500000023,
      "v": 17
    },
    {
      "midi": 66,
      "hit": false,
      "t": 167812.33218750154,
      "d": 83.33324999999604,
      "v": 13
    },
    {
      "midi": 76,
      "hit": false,
      "t": 167985.94312500153,
      "d": 451.3884374999907,
      "v": 20
    },
    {
      "midi": 64,
      "hit": false,
      "t": 167992.88756250154,
      "d": 354.16631249999045,
      "v": 16
    },
    {
      "midi": 73,
      "hit": false,
      "t": 167999.8320000009,
      "d": 409.7218125000072,
      "v": 76
    },
    {
      "midi": 78,
      "hit": false,
      "t": 168006.7764375009,
      "d": 409.7218125000072,
      "v": 81
    },
    {
      "midi": 69,
      "hit": false,
      "t": 168374.83162500153,
      "d": 138.8887499999837,
      "v": 17
    },
    {
      "midi": 76,
      "hit": false,
      "t": 168492.8870625009,
      "d": 41.66662500001257,
      "v": 80
    },
    {
      "midi": 73,
      "hit": false,
      "t": 168492.8870625009,
      "d": 90.27768749999814,
      "v": 46
    },
    {
      "midi": 73,
      "hit": false,
      "t": 168541.49812500153,
      "d": 270.8330624999944,
      "v": 18
    },
    {
      "midi": 73,
      "hit": false,
      "t": 168652.6091250009,
      "d": 249.99975000001723,
      "v": 70
    },
    {
      "midi": 80,
      "hit": false,
      "t": 168666.4980000009,
      "d": 222.22200000000885,
      "v": 80
    },
    {
      "midi": 78,
      "hit": false,
      "t": 168840.10893750153,
      "d": 173.61093749999418,
      "v": 18
    },
    {
      "midi": 66,
      "hit": false,
      "t": 168840.10893750153,
      "d": 180.55537499999627,
      "v": 16
    },
    {
      "midi": 78,
      "hit": false,
      "t": 168978.9976875009,
      "d": 83.33324999999604,
      "v": 89
    },
    {
      "midi": 73,
      "hit": false,
      "t": 168985.9421250009,
      "d": 83.33324999999604,
      "v": 64
    },
    {
      "midi": 73,
      "hit": false,
      "t": 169152.6086250009,
      "d": 208.33312500000466,
      "v": 73
    },
    {
      "midi": 76,
      "hit": false,
      "t": 169159.5530625009,
      "d": 194.44425000000047,
      "v": 94
    },
    {
      "midi": 59,
      "hit": false,
      "t": 169180.38637500152,
      "d": 298.6108125000028,
      "v": 19
    },
    {
      "midi": 71,
      "hit": false,
      "t": 169180.38637500152,
      "d": 368.05518749999464,
      "v": 19
    },
    {
      "midi": 74,
      "hit": false,
      "t": 169485.9416250009,
      "d": 715.2770625000121,
      "v": 93
    },
    {
      "midi": 71,
      "hit": false,
      "t": 169485.9416250009,
      "d": 729.1659375000163,
      "v": 94
    },
    {
      "midi": 64,
      "hit": false,
      "t": 169492.88606250152,
      "d": 152.7776249999879,
      "v": 18
    },
    {
      "midi": 68,
      "hit": false,
      "t": 169659.5525625015,
      "d": 124.99987500000861,
      "v": 19
    },
    {
      "midi": 61,
      "hit": false,
      "t": 169812.33018750153,
      "d": 340.27743750001537,
      "v": 14
    },
    {
      "midi": 73,
      "hit": false,
      "t": 169819.27462500153,
      "d": 361.11075000002165,
      "v": 17
    },
    {
      "midi": 64,
      "hit": false,
      "t": 170152.60762500155,
      "d": 145.8331875000149,
      "v": 18
    },
    {
      "midi": 68,
      "hit": false,
      "t": 170312.32968750157,
      "d": 138.8887500000128,
      "v": 18
    },
    {
      "midi": 76,
      "hit": false,
      "t": 170319.27412500093,
      "d": 97.22212500000023,
      "v": 73
    },
    {
      "midi": 71,
      "hit": false,
      "t": 170326.21856250093,
      "d": 90.27768749999814,
      "v": 74
    },
    {
      "midi": 73,
      "hit": false,
      "t": 170465.10731250158,
      "d": 83.33324999999604,
      "v": 16
    },
    {
      "midi": 61,
      "hit": false,
      "t": 170472.05175000158,
      "d": 83.33324999999604,
      "v": 13
    },
    {
      "midi": 76,
      "hit": false,
      "t": 170506.77393750093,
      "d": 208.33312500000466,
      "v": 90
    },
    {
      "midi": 80,
      "hit": false,
      "t": 170506.77393750093,
      "d": 222.22200000000885,
      "v": 74
    },
    {
      "midi": 71,
      "hit": false,
      "t": 170513.71837500093,
      "d": 208.33312500000466,
      "v": 72
    },
    {
      "midi": 59,
      "hit": false,
      "t": 170659.55156250158,
      "d": 263.8886249999923,
      "v": 17
    },
    {
      "midi": 71,
      "hit": false,
      "t": 170659.55156250158,
      "d": 354.16631249999045,
      "v": 20
    },
    {
      "midi": 80,
      "hit": false,
      "t": 170819.27362500093,
      "d": 229.16643750001094,
      "v": 80
    },
    {
      "midi": 71,
      "hit": false,
      "t": 170826.21806250094,
      "d": 215.27756250000675,
      "v": 82
    },
    {
      "midi": 76,
      "hit": false,
      "t": 170826.21806250094,
      "d": 215.27756250000675,
      "v": 94
    },
    {
      "midi": 64,
      "hit": false,
      "t": 170978.99568750156,
      "d": 166.6665000000212,
      "v": 19
    },
    {
      "midi": 80,
      "hit": false,
      "t": 171145.66218750094,
      "d": 97.22212500000023,
      "v": 76
    },
    {
      "midi": 76,
      "hit": false,
      "t": 171145.66218750094,
      "d": 104.16656250000233,
      "v": 90
    },
    {
      "midi": 71,
      "hit": false,
      "t": 171152.60662500095,
      "d": 97.22212500000023,
      "v": 80
    },
    {
      "midi": 68,
      "hit": false,
      "t": 171159.5510625016,
      "d": 312.499687500007,
      "v": 17
    },
    {
      "midi": 76,
      "hit": false,
      "t": 171326.21756250094,
      "d": 215.27756250000675,
      "v": 89
    },
    {
      "midi": 71,
      "hit": false,
      "t": 171326.21756250094,
      "d": 229.16643750001094,
      "v": 81
    },
    {
      "midi": 80,
      "hit": false,
      "t": 171333.16200000094,
      "d": 236.11087500001304,
      "v": 77
    },
    {
      "midi": 61,
      "hit": false,
      "t": 171478.9951875016,
      "d": 166.66649999999208,
      "v": 13
    },
    {
      "midi": 73,
      "hit": false,
      "t": 171485.9396250016,
      "d": 180.55537499999627,
      "v": 15
    },
    {
      "midi": 71,
      "hit": false,
      "t": 171652.60612500095,
      "d": 111.11100000000442,
      "v": 77
    },
    {
      "midi": 78,
      "hit": false,
      "t": 171659.55056250095,
      "d": 83.33324999999604,
      "v": 67
    },
    {
      "midi": 64,
      "hit": false,
      "t": 171812.32818750158,
      "d": 319.4441250000091,
      "v": 14
    },
    {
      "midi": 76,
      "hit": false,
      "t": 171826.2170625016,
      "d": 361.11075000002165,
      "v": 17
    },
    {
      "midi": 78,
      "hit": false,
      "t": 171840.10593750095,
      "d": 173.61093749999418,
      "v": 86
    },
    {
      "midi": 71,
      "hit": false,
      "t": 171840.10593750095,
      "d": 208.33312500000466,
      "v": 84
    },
    {
      "midi": 69,
      "hit": false,
      "t": 172145.6611875016,
      "d": 166.6665000000212,
      "v": 20
    },
    {
      "midi": 69,
      "hit": false,
      "t": 172166.49450000096,
      "d": 631.943812499987,
      "v": 80
    },
    {
      "midi": 76,
      "hit": false,
      "t": 172166.49450000096,
      "d": 631.943812499987,
      "v": 90
    },
    {
      "midi": 73,
      "hit": false,
      "t": 172166.49450000096,
      "d": 638.8882499999891,
      "v": 94
    },
    {
      "midi": 73,
      "hit": false,
      "t": 172319.27212500162,
      "d": 145.8331874999858,
      "v": 18
    },
    {
      "midi": 66,
      "hit": false,
      "t": 172492.8830625016,
      "d": 305.5552500000049,
      "v": 17
    },
    {
      "midi": 78,
      "hit": false,
      "t": 172492.8830625016,
      "d": 333.33300000001327,
      "v": 17
    },
    {
      "midi": 69,
      "hit": false,
      "t": 172819.27162500162,
      "d": 118.05543750000652,
      "v": 18
    },
    {
      "midi": 73,
      "hit": false,
      "t": 172958.16037500094,
      "d": 104.16656250000233,
      "v": 73
    },
    {
      "midi": 69,
      "hit": false,
      "t": 172972.04925000094,
      "d": 76.38881249999395,
      "v": 80
    },
    {
      "midi": 73,
      "hit": false,
      "t": 172992.88256250162,
      "d": 97.22212500000023,
      "v": 14
    },
    {
      "midi": 78,
      "hit": false,
      "t": 173131.77131250163,
      "d": 97.22212500000023,
      "v": 17
    },
    {
      "midi": 66,
      "hit": false,
      "t": 173138.71575000163,
      "d": 90.27768749999814,
      "v": 15
    },
    {
      "midi": 69,
      "hit": false,
      "t": 173159.54906250094,
      "d": 215.27756250000675,
      "v": 85
    },
    {
      "midi": 76,
      "hit": false,
      "t": 173166.49350000094,
      "d": 208.33312500000466,
      "v": 84
    },
    {
      "midi": 73,
      "hit": false,
      "t": 173166.49350000094,
      "d": 236.11087500001304,
      "v": 67
    },
    {
      "midi": 76,
      "hit": false,
      "t": 173319.27112500163,
      "d": 374.99962500002584,
      "v": 19
    },
    {
      "midi": 64,
      "hit": false,
      "t": 173326.21556250163,
      "d": 312.499687500007,
      "v": 16
    },
    {
      "midi": 69,
      "hit": false,
      "t": 173499.82650000096,
      "d": 208.33312500000466,
      "v": 86
    },
    {
      "midi": 76,
      "hit": false,
      "t": 173506.77093750096,
      "d": 201.38868750000256,
      "v": 81
    },
    {
      "midi": 73,
      "hit": false,
      "t": 173506.77093750096,
      "d": 222.22200000000885,
      "v": 66
    },
    {
      "midi": 69,
      "hit": false,
      "t": 173666.49300000165,
      "d": 145.8331875000149,
      "v": 20
    },
    {
      "midi": 69,
      "hit": false,
      "t": 173805.38175000096,
      "d": 90.27768749999814,
      "v": 84
    },
    {
      "midi": 73,
      "hit": false,
      "t": 173812.32618750096,
      "d": 69.44437499999185,
      "v": 67
    },
    {
      "midi": 76,
      "hit": false,
      "t": 173819.27062500097,
      "d": 48.611062499985565,
      "v": 81
    },
    {
      "midi": 73,
      "hit": false,
      "t": 173860.93725000165,
      "d": 277.7774999999965,
      "v": 15
    },
    {
      "midi": 69,
      "hit": false,
      "t": 173992.88156250096,
      "d": 236.11087500001304,
      "v": 86
    },
    {
      "midi": 78,
      "hit": false,
      "t": 173999.82600000096,
      "d": 222.22200000000885,
      "v": 73
    },
    {
      "midi": 73,
      "hit": false,
      "t": 174006.77043750096,
      "d": 201.38868750000256,
      "v": 72
    },
    {
      "midi": 78,
      "hit": false,
      "t": 174166.49250000165,
      "d": 187.49981249999837,
      "v": 17
    },
    {
      "midi": 66,
      "hit": false,
      "t": 174166.49250000165,
      "d": 194.44425000000047,
      "v": 15
    },
    {
      "midi": 73,
      "hit": false,
      "t": 174326.21456250097,
      "d": 62.49993750001886,
      "v": 72
    },
    {
      "midi": 69,
      "hit": false,
      "t": 174340.10343750098,
      "d": 34.72218750001048,
      "v": 76
    },
    {
      "midi": 78,
      "hit": false,
      "t": 174340.10343750098,
      "d": 48.61106250001467,
      "v": 78
    },
    {
      "midi": 76,
      "hit": false,
      "t": 174499.825500001,
      "d": 972.2212500000023,
      "v": 94
    },
    {
      "midi": 71,
      "hit": false,
      "t": 174499.825500001,
      "d": 979.1656875000044,
      "v": 80
    },
    {
      "midi": 80,
      "hit": false,
      "t": 174499.825500001,
      "d": 979.1656875000044,
      "v": 84
    },
    {
      "midi": 59,
      "hit": false,
      "t": 174506.76993750164,
      "d": 298.6108125000028,
      "v": 17
    },
    {
      "midi": 71,
      "hit": false,
      "t": 174506.76993750164,
      "d": 354.16631250001956,
      "v": 19
    },
    {
      "midi": 64,
      "hit": false,
      "t": 174826.21406250165,
      "d": 145.8331875000149,
      "v": 19
    },
    {
      "midi": 68,
      "hit": false,
      "t": 174999.82500000167,
      "d": 111.11100000000442,
      "v": 17
    },
    {
      "midi": 73,
      "hit": false,
      "t": 175152.6026250017,
      "d": 83.33324999999604,
      "v": 15
    },
    {
      "midi": 61,
      "hit": false,
      "t": 175152.6026250017,
      "d": 90.27768749999814,
      "v": 12
    },
    {
      "midi": 59,
      "hit": false,
      "t": 175333.15800000168,
      "d": 159.72206249999,
      "v": 17
    },
    {
      "midi": 71,
      "hit": false,
      "t": 175333.15800000168,
      "d": 194.44425000000047,
      "v": 21
    },
    {
      "midi": 64,
      "hit": false,
      "t": 175506.76893750168,
      "d": 138.8887500000128,
      "v": 18
    },
    {
      "midi": 74,
      "hit": false,
      "t": 175638.713250001,
      "d": 76.38881249999395,
      "v": 61
    },
    {
      "midi": 71,
      "hit": false,
      "t": 175645.657687501,
      "d": 90.27768749999814,
      "v": 73
    },
    {
      "midi": 68,
      "hit": false,
      "t": 175680.3798750017,
      "d": 104.16656250000233,
      "v": 18
    },
    {
      "midi": 73,
      "hit": false,
      "t": 175819.2686250017,
      "d": 83.33324999999604,
      "v": 14
    },
    {
      "midi": 71,
      "hit": false,
      "t": 175833.157500001,
      "d": 180.55537499999627,
      "v": 89
    },
    {
      "midi": 74,
      "hit": false,
      "t": 175833.157500001,
      "d": 201.38868750000256,
      "v": 99
    },
    {
      "midi": 78,
      "hit": false,
      "t": 175833.157500001,
      "d": 208.33312500000466,
      "v": 89
    },
    {
      "midi": 61,
      "hit": false,
      "t": 175833.15750000172,
      "d": 62.499937499989755,
      "v": 11
    },
    {
      "midi": 59,
      "hit": false,
      "t": 176006.7684375017,
      "d": 277.7774999999965,
      "v": 18
    },
    {
      "midi": 71,
      "hit": false,
      "t": 176006.7684375017,
      "d": 340.27743750001537,
      "v": 20
    },
    {
      "midi": 71,
      "hit": false,
      "t": 176152.601625001,
      "d": 208.33312500000466,
      "v": 89
    },
    {
      "midi": 74,
      "hit": false,
      "t": 176159.546062501,
      "d": 201.38868750000256,
      "v": 93
    },
    {
      "midi": 78,
      "hit": false,
      "t": 176159.546062501,
      "d": 201.38868750000256,
      "v": 82
    },
    {
      "midi": 64,
      "hit": false,
      "t": 176319.26812500172,
      "d": 159.7220625000191,
      "v": 18
    },
    {
      "midi": 71,
      "hit": false,
      "t": 176485.934625001,
      "d": 83.33324999999604,
      "v": 80
    },
    {
      "midi": 78,
      "hit": false,
      "t": 176492.87906250102,
      "d": 69.44437499999185,
      "v": 73
    },
    {
      "midi": 68,
      "hit": false,
      "t": 176492.87906250174,
      "d": 319.4441250000091,
      "v": 19
    },
    {
      "midi": 74,
      "hit": false,
      "t": 176499.82350000102,
      "d": 48.611062499985565,
      "v": 81
    },
    {
      "midi": 71,
      "hit": false,
      "t": 176666.490000001,
      "d": 215.27756250000675,
      "v": 90
    },
    {
      "midi": 80,
      "hit": false,
      "t": 176666.490000001,
      "d": 222.22200000000885,
      "v": 76
    },
    {
      "midi": 74,
      "hit": false,
      "t": 176680.378875001,
      "d": 194.44425000000047,
      "v": 99
    },
    {
      "midi": 73,
      "hit": false,
      "t": 176833.15650000176,
      "d": 187.49981249999837,
      "v": 17
    },
    {
      "midi": 61,
      "hit": false,
      "t": 176840.10093750176,
      "d": 152.7776249999879,
      "v": 15
    },
    {
      "midi": 80,
      "hit": false,
      "t": 176972.045250001,
      "d": 76.38881250002305,
      "v": 84
    },
    {
      "midi": 71,
      "hit": false,
      "t": 176985.93412500102,
      "d": 55.555500000016764,
      "v": 86
    },
    {
      "midi": 74,
      "hit": false,
      "t": 176999.82300000102,
      "d": 27.777750000008382,
      "v": 94
    },
    {
      "midi": 76,
      "hit": false,
      "t": 177152.60062500177,
      "d": 374.99962500002584,
      "v": 19
    },
    {
      "midi": 64,
      "hit": false,
      "t": 177159.54506250177,
      "d": 319.4441250000091,
      "v": 14
    },
    {
      "midi": 76,
      "hit": false,
      "t": 177166.48950000104,
      "d": 1013.8878750000149,
      "v": 95
    },
    {
      "midi": 73,
      "hit": false,
      "t": 177173.43393750105,
      "d": 999.9990000000107,
      "v": 89
    },
    {
      "midi": 81,
      "hit": false,
      "t": 177173.43393750105,
      "d": 999.9990000000107,
      "v": 99
    },
    {
      "midi": 69,
      "hit": false,
      "t": 177492.87806250178,
      "d": 159.7220625000191,
      "v": 21
    },
    {
      "midi": 73,
      "hit": false,
      "t": 177652.6001250018,
      "d": 145.8331874999858,
      "v": 18
    },
    {
      "midi": 66,
      "hit": false,
      "t": 177812.3221875018,
      "d": 340.27743749998626,
      "v": 14
    },
    {
      "midi": 78,
      "hit": false,
      "t": 177812.3221875018,
      "d": 381.94406249999884,
      "v": 18
    },
    {
      "midi": 69,
      "hit": false,
      "t": 178166.48850000178,
      "d": 138.8887500000128,
      "v": 19
    },
    {
      "midi": 73,
      "hit": false,
      "t": 178319.26612500107,
      "d": 104.16656250000233,
      "v": 81
    },
    {
      "midi": 69,
      "hit": false,
      "t": 178326.21056250107,
      "d": 104.16656250000233,
      "v": 77
    },
    {
      "midi": 73,
      "hit": false,
      "t": 178340.0994375018,
      "d": 104.16656250000233,
      "v": 16
    },
    {
      "midi": 66,
      "hit": false,
      "t": 178478.98818750182,
      "d": 90.27768749999814,
      "v": 16
    },
    {
      "midi": 78,
      "hit": false,
      "t": 178478.98818750182,
      "d": 90.27768749999814,
      "v": 15
    },
    {
      "midi": 69,
      "hit": false,
      "t": 178520.65481250107,
      "d": 180.55537499999627,
      "v": 89
    },
    {
      "midi": 76,
      "hit": false,
      "t": 178520.65481250107,
      "d": 208.33312500000466,
      "v": 89
    },
    {
      "midi": 73,
      "hit": false,
      "t": 178527.59925000108,
      "d": 194.44425000000047,
      "v": 73
    },
    {
      "midi": 64,
      "hit": false,
      "t": 178659.5435625018,
      "d": 319.4441250000091,
      "v": 14
    },
    {
      "midi": 76,
      "hit": false,
      "t": 178666.48800000182,
      "d": 361.11075000002165,
      "v": 19
    },
    {
      "midi": 69,
      "hit": false,
      "t": 178847.04337500109,
      "d": 194.44425000000047,
      "v": 84
    },
    {
      "midi": 76,
      "hit": false,
      "t": 178853.9878125011,
      "d": 180.55537499999627,
      "v": 81
    },
    {
      "midi": 73,
      "hit": false,
      "t": 178853.9878125011,
      "d": 187.49981249999837,
      "v": 76
    },
    {
      "midi": 69,
      "hit": false,
      "t": 178992.87656250183,
      "d": 180.55537499999627,
      "v": 20
    },
    {
      "midi": 69,
      "hit": false,
      "t": 179145.6541875011,
      "d": 69.44437499999185,
      "v": 73
    },
    {
      "midi": 73,
      "hit": false,
      "t": 179152.5986250011,
      "d": 48.611062499985565,
      "v": 68
    },
    {
      "midi": 76,
      "hit": false,
      "t": 179152.5986250011,
      "d": 48.611062499985565,
      "v": 80
    },
    {
      "midi": 73,
      "hit": false,
      "t": 179187.32081250183,
      "d": 312.499687500007,
      "v": 18
    },
    {
      "midi": 69,
      "hit": false,
      "t": 179319.26512500108,
      "d": 215.27756250000675,
      "v": 93
    },
    {
      "midi": 73,
      "hit": false,
      "t": 179326.20956250108,
      "d": 201.38868750000256,
      "v": 78
    },
    {
      "midi": 78,
      "hit": false,
      "t": 179333.1540000011,
      "d": 194.44425000000047,
      "v": 76
    },
    {
      "midi": 78,
      "hit": false,
      "t": 179520.65381250184,
      "d": 187.49981249999837,
      "v": 17
    },
    {
      "midi": 66,
      "hit": false,
      "t": 179527.59825000184,
      "d": 187.49981249999837,
      "v": 16
    },
    {
      "midi": 69,
      "hit": false,
      "t": 179645.6536875011,
      "d": 48.61106250001467,
      "v": 84
    },
    {
      "midi": 78,
      "hit": false,
      "t": 179645.6536875011,
      "d": 62.49993750001886,
      "v": 77
    },
    {
      "midi": 73,
      "hit": false,
      "t": 179652.5981250011,
      "d": 62.49993750001886,
      "v": 68
    },
    {
      "midi": 80,
      "hit": false,
      "t": 179826.20906250112,
      "d": 979.1656875000044,
      "v": 93
    },
    {
      "midi": 71,
      "hit": false,
      "t": 179826.20906250112,
      "d": 986.1101250000065,
      "v": 78
    },
    {
      "midi": 76,
      "hit": false,
      "t": 179826.20906250112,
      "d": 999.9990000000107,
      "v": 98
    },
    {
      "midi": 59,
      "hit": false,
      "t": 179867.87568750183,
      "d": 284.7219374999986,
      "v": 17
    },
    {
      "midi": 71,
      "hit": false,
      "t": 179867.87568750183,
      "d": 354.16631250001956,
      "v": 19
    },
    {
      "midi": 64,
      "hit": false,
      "t": 180187.31981250184,
      "d": 145.8331875000149,
      "v": 17
    },
    {
      "midi": 68,
      "hit": false,
      "t": 180347.04187500186,
      "d": 90.27768749999814,
      "v": 18
    },
    {
      "midi": 61,
      "hit": false,
      "t": 180478.98618750187,
      "d": 76.38881249999395,
      "v": 14
    },
    {
      "midi": 73,
      "hit": false,
      "t": 180478.98618750187,
      "d": 76.38881249999395,
      "v": 15
    },
    {
      "midi": 59,
      "hit": false,
      "t": 180659.54156250186,
      "d": 187.49981249999837,
      "v": 16
    },
    {
      "midi": 71,
      "hit": false,
      "t": 180659.54156250186,
      "d": 229.16643750001094,
      "v": 19
    },
    {
      "midi": 64,
      "hit": false,
      "t": 180833.15250000186,
      "d": 159.7220625000191,
      "v": 19
    },
    {
      "midi": 80,
      "hit": false,
      "t": 180978.98568750112,
      "d": 104.16656250000233,
      "v": 82
    },
    {
      "midi": 71,
      "hit": false,
      "t": 180985.93012500112,
      "d": 90.27768749999814,
      "v": 77
    },
    {
      "midi": 68,
      "hit": false,
      "t": 180999.81900000188,
      "d": 111.11100000000442,
      "v": 18
    },
    {
      "midi": 61,
      "hit": false,
      "t": 181159.54106250187,
      "d": 83.33324999999604,
      "v": 14
    },
    {
      "midi": 83,
      "hit": false,
      "t": 181173.42993750112,
      "d": 201.38868750000256,
      "v": 84
    },
    {
      "midi": 73,
      "hit": false,
      "t": 181173.42993750187,
      "d": 69.44437499999185,
      "v": 14
    },
    {
      "midi": 71,
      "hit": false,
      "t": 181180.37437500112,
      "d": 201.38868750000256,
      "v": 80
    },
    {
      "midi": 59,
      "hit": false,
      "t": 181353.98531250187,
      "d": 270.8330624999944,
      "v": 15
    },
    {
      "midi": 71,
      "hit": false,
      "t": 181353.98531250187,
      "d": 326.3885625000112,
      "v": 20
    },
    {
      "midi": 71,
      "hit": false,
      "t": 181492.87406250113,
      "d": 201.38868750000256,
      "v": 80
    },
    {
      "midi": 78,
      "hit": false,
      "t": 181499.81850000113,
      "d": 166.66649999999208,
      "v": 89
    },
    {
      "midi": 64,
      "hit": false,
      "t": 181666.48500000188,
      "d": 159.72206249999,
      "v": 17
    },
    {
      "midi": 78,
      "hit": false,
      "t": 181812.31818750114,
      "d": 62.499937499989755,
      "v": 82
    },
    {
      "midi": 71,
      "hit": false,
      "t": 181819.26262500114,
      "d": 83.33324999999604,
      "v": 73
    },
    {
      "midi": 68,
      "hit": false,
      "t": 181847.04037500187,
      "d": 326.3885625000112,
      "v": 19
    },
    {
      "midi": 80,
      "hit": false,
      "t": 181999.81800000113,
      "d": 187.49981249999837,
      "v": 78
    },
    {
      "midi": 71,
      "hit": false,
      "t": 181999.81800000113,
      "d": 194.44425000000047,
      "v": 84
    },
    {
      "midi": 61,
      "hit": false,
      "t": 182194.2622500019,
      "d": 166.66649999999208,
      "v": 15
    },
    {
      "midi": 73,
      "hit": false,
      "t": 182194.2622500019,
      "d": 187.49981249999837,
      "v": 16
    },
    {
      "midi": 80,
      "hit": false,
      "t": 182291.48437500114,
      "d": 62.499937499989755,
      "v": 77
    },
    {
      "midi": 71,
      "hit": false,
      "t": 182298.42881250114,
      "d": 48.611062499985565,
      "v": 81
    },
    {
      "midi": 69,
      "hit": false,
      "t": 182472.03975000113,
      "d": 659.7215624999953,
      "v": 68
    },
    {
      "midi": 81,
      "hit": false,
      "t": 182478.98418750113,
      "d": 645.8326874999912,
      "v": 86
    },
    {
      "midi": 64,
      "hit": false,
      "t": 182499.8175000019,
      "d": 312.499687500007,
      "v": 15
    },
    {
      "midi": 76,
      "hit": false,
      "t": 182499.8175000019,
      "d": 361.11075000002165,
      "v": 20
    },
    {
      "midi": 69,
      "hit": false,
      "t": 182847.0393750019,
      "d": 152.777625000017,
      "v": 18
    },
    {
      "midi": 73,
      "hit": false,
      "t": 183006.76143750193,
      "d": 131.9443125000107,
      "v": 15
    },
    {
      "midi": 66,
      "hit": false,
      "t": 183159.53906250195,
      "d": 354.16631249999045,
      "v": 17
    },
    {
      "midi": 78,
      "hit": false,
      "t": 183159.53906250195,
      "d": 395.832937500003,
      "v": 18
    },
    {
      "midi": 69,
      "hit": false,
      "t": 183312.31668750112,
      "d": 194.44425000000047,
      "v": 86
    },
    {
      "midi": 73,
      "hit": false,
      "t": 183319.26112500113,
      "d": 194.44425000000047,
      "v": 89
    },
    {
      "midi": 78,
      "hit": false,
      "t": 183319.26112500113,
      "d": 201.38868750000256,
      "v": 85
    },
    {
      "midi": 69,
      "hit": false,
      "t": 183506.76093750194,
      "d": 152.777625000017,
      "v": 20
    },
    {
      "midi": 73,
      "hit": false,
      "t": 183659.53856250114,
      "d": 208.33312500000466,
      "v": 94
    },
    {
      "midi": 78,
      "hit": false,
      "t": 183659.53856250114,
      "d": 215.27756250000675,
      "v": 89
    },
    {
      "midi": 69,
      "hit": false,
      "t": 183666.48300000114,
      "d": 201.38868750000256,
      "v": 90
    },
    {
      "midi": 73,
      "hit": false,
      "t": 183687.31631250196,
      "d": 104.16656250000233,
      "v": 15
    },
    {
      "midi": 78,
      "hit": false,
      "t": 183819.26062500197,
      "d": 97.22212500000023,
      "v": 18
    },
    {
      "midi": 66,
      "hit": false,
      "t": 183840.09393750198,
      "d": 83.33324999999604,
      "v": 14
    },
    {
      "midi": 73,
      "hit": false,
      "t": 183985.92712500115,
      "d": 333.33300000001327,
      "v": 90
    },
    {
      "midi": 69,
      "hit": false,
      "t": 183985.92712500115,
      "d": 361.11075000002165,
      "v": 86
    },
    {
      "midi": 78,
      "hit": false,
      "t": 183985.92712500115,
      "d": 395.83293750003213,
      "v": 94
    },
    {
      "midi": 76,
      "hit": false,
      "t": 184020.64931250198,
      "d": 354.16631250001956,
      "v": 19
    },
    {
      "midi": 64,
      "hit": false,
      "t": 184027.59375000198,
      "d": 291.6663750000007,
      "v": 15
    },
    {
      "midi": 69,
      "hit": false,
      "t": 184333.14900000198,
      "d": 138.8887500000128,
      "v": 21
    },
    {
      "midi": 73,
      "hit": false,
      "t": 184499.815500002,
      "d": 277.7774999999965,
      "v": 16
    },
    {
      "midi": 76,
      "hit": false,
      "t": 184513.7043750012,
      "d": 48.611062499985565,
      "v": 45
    },
    {
      "midi": 80,
      "hit": false,
      "t": 184659.53756250118,
      "d": 256.9441874999902,
      "v": 84
    },
    {
      "midi": 78,
      "hit": false,
      "t": 184798.426312502,
      "d": 166.66649999999208,
      "v": 17
    },
    {
      "midi": 66,
      "hit": false,
      "t": 184805.370750002,
      "d": 166.66649999999208,
      "v": 15
    },
    {
      "midi": 78,
      "hit": false,
      "t": 184992.87056250116,
      "d": 83.33324999999604,
      "v": 68
    },
    {
      "midi": 59,
      "hit": false,
      "t": 185131.759312502,
      "d": 312.499687500007,
      "v": 16
    },
    {
      "midi": 71,
      "hit": false,
      "t": 185138.703750002,
      "d": 361.11075000002165,
      "v": 20
    },
    {
      "midi": 76,
      "hit": false,
      "t": 185173.42593750116,
      "d": 222.22200000000885,
      "v": 86
    },
    {
      "midi": 64,
      "hit": false,
      "t": 185465.092312502,
      "d": 152.777625000017,
      "v": 17
    },
    {
      "midi": 74,
      "hit": false,
      "t": 185499.81450000117,
      "d": 652.7771249999932,
      "v": 99
    },
    {
      "midi": 71,
      "hit": false,
      "t": 185499.81450000117,
      "d": 659.7215624999953,
      "v": 80
    },
    {
      "midi": 68,
      "hit": false,
      "t": 185624.81437500202,
      "d": 173.61093749999418,
      "v": 16
    },
    {
      "midi": 61,
      "hit": false,
      "t": 185805.36975000202,
      "d": 347.22187499998836,
      "v": 16
    },
    {
      "midi": 73,
      "hit": false,
      "t": 185805.36975000202,
      "d": 395.832937500003,
      "v": 18
    },
    {
      "midi": 64,
      "hit": false,
      "t": 186166.480500002,
      "d": 131.9443125000107,
      "v": 17
    },
    {
      "midi": 76,
      "hit": false,
      "t": 186312.31368750116,
      "d": 83.33324999999604,
      "v": 85
    },
    {
      "midi": 71,
      "hit": false,
      "t": 186326.20256250116,
      "d": 69.44437499999185,
      "v": 65
    },
    {
      "midi": 68,
      "hit": false,
      "t": 186326.20256250203,
      "d": 118.05543750000652,
      "v": 15
    },
    {
      "midi": 73,
      "hit": false,
      "t": 186465.09131250205,
      "d": 90.27768749999814,
      "v": 14
    },
    {
      "midi": 61,
      "hit": false,
      "t": 186472.03575000205,
      "d": 111.11100000000442,
      "v": 12
    },
    {
      "midi": 71,
      "hit": false,
      "t": 186492.86906250115,
      "d": 215.27756250000675,
      "v": 76
    },
    {
      "midi": 80,
      "hit": false,
      "t": 186492.86906250115,
      "d": 215.27756250000675,
      "v": 67
    },
    {
      "midi": 76,
      "hit": false,
      "t": 186499.81350000115,
      "d": 194.44425000000047,
      "v": 89
    },
    {
      "midi": 59,
      "hit": false,
      "t": 186666.48000000205,
      "d": 319.4441250000091,
      "v": 13
    },
    {
      "midi": 71,
      "hit": false,
      "t": 186666.48000000205,
      "d": 361.11075000002165,
      "v": 19
    },
    {
      "midi": 80,
      "hit": false,
      "t": 186826.20206250116,
      "d": 208.33312500000466,
      "v": 84
    },
    {
      "midi": 76,
      "hit": false,
      "t": 186833.14650000117,
      "d": 201.38868750000256,
      "v": 82
    },
    {
      "midi": 71,
      "hit": false,
      "t": 186833.14650000117,
      "d": 208.33312500000466,
      "v": 84
    },
    {
      "midi": 64,
      "hit": false,
      "t": 187013.70187500207,
      "d": 152.777625000017,
      "v": 18
    },
    {
      "midi": 76,
      "hit": false,
      "t": 187152.59062500118,
      "d": 76.38881249999395,
      "v": 95
    },
    {
      "midi": 80,
      "hit": false,
      "t": 187152.59062500118,
      "d": 83.33324999999604,
      "v": 80
    },
    {
      "midi": 71,
      "hit": false,
      "t": 187152.59062500118,
      "d": 97.22212500000023,
      "v": 80
    },
    {
      "midi": 68,
      "hit": false,
      "t": 187173.42393750208,
      "d": 319.4441250000091,
      "v": 18
    },
    {
      "midi": 76,
      "hit": false,
      "t": 187333.14600000117,
      "d": 208.33312500000466,
      "v": 94
    },
    {
      "midi": 80,
      "hit": false,
      "t": 187333.14600000117,
      "d": 215.27756250000675,
      "v": 80
    },
    {
      "midi": 71,
      "hit": false,
      "t": 187333.14600000117,
      "d": 229.16643750001094,
      "v": 76
    },
    {
      "midi": 61,
      "hit": false,
      "t": 187506.7569375021,
      "d": 187.49981249999837,
      "v": 13
    },
    {
      "midi": 73,
      "hit": false,
      "t": 187513.7013750021,
      "d": 187.49981249999837,
      "v": 15
    },
    {
      "midi": 78,
      "hit": false,
      "t": 187652.59012500118,
      "d": 97.22212500000023,
      "v": 76
    },
    {
      "midi": 71,
      "hit": false,
      "t": 187666.47900000119,
      "d": 90.27768749999814,
      "v": 64
    },
    {
      "midi": 76,
      "hit": false,
      "t": 187826.2010625021,
      "d": 361.11075000002165,
      "v": 20
    },
    {
      "midi": 64,
      "hit": false,
      "t": 187833.1455000021,
      "d": 298.6108125000028,
      "v": 15
    },
    {
      "midi": 78,
      "hit": false,
      "t": 187840.08993750118,
      "d": 173.61093749999418,
      "v": 81
    },
    {
      "midi": 71,
      "hit": false,
      "t": 187840.08993750118,
      "d": 215.27756250000675,
      "v": 89
    },
    {
      "midi": 73,
      "hit": false,
      "t": 188166.4785000012,
      "d": 298.6108125000028,
      "v": 81
    },
    {
      "midi": 69,
      "hit": false,
      "t": 188173.4229375012,
      "d": 277.7774999999965,
      "v": 78
    },
    {
      "midi": 76,
      "hit": false,
      "t": 188173.4229375012,
      "d": 312.499687500007,
      "v": 89
    },
    {
      "midi": 69,
      "hit": false,
      "t": 188173.42293750212,
      "d": 118.05543750000652,
      "v": 21
    },
    {
      "midi": 73,
      "hit": false,
      "t": 188319.25612500214,
      "d": 152.7776249999879,
      "v": 17
    },
    {
      "midi": 78,
      "hit": false,
      "t": 188485.92262500213,
      "d": 361.11075000002165,
      "v": 19
    },
    {
      "midi": 66,
      "hit": false,
      "t": 188492.86706250213,
      "d": 326.3885625000112,
      "v": 16
    },
    {
      "midi": 78,
      "hit": false,
      "t": 188687.3113125012,
      "d": 187.49981249999837,
      "v": 101
    },
    {
      "midi": 73,
      "hit": false,
      "t": 188694.2557500012,
      "d": 159.72206249999,
      "v": 66
    },
    {
      "midi": 69,
      "hit": false,
      "t": 188819.25562500214,
      "d": 145.8331875000149,
      "v": 21
    },
    {
      "midi": 73,
      "hit": false,
      "t": 188992.86656250217,
      "d": 111.11100000000442,
      "v": 15
    },
    {
      "midi": 73,
      "hit": false,
      "t": 189006.7554375012,
      "d": 180.55537499999627,
      "v": 70
    },
    {
      "midi": 78,
      "hit": false,
      "t": 189006.7554375012,
      "d": 201.38868750000256,
      "v": 94
    },
    {
      "midi": 78,
      "hit": false,
      "t": 189138.69975000218,
      "d": 83.33324999999604,
      "v": 16
    },
    {
      "midi": 66,
      "hit": false,
      "t": 189152.5886250022,
      "d": 76.38881249999395,
      "v": 15
    },
    {
      "midi": 76,
      "hit": false,
      "t": 189326.19956250218,
      "d": 361.11075000002165,
      "v": 19
    },
    {
      "midi": 73,
      "hit": false,
      "t": 189333.14400000122,
      "d": 333.33300000001327,
      "v": 80
    },
    {
      "midi": 78,
      "hit": false,
      "t": 189333.14400000122,
      "d": 381.94406249999884,
      "v": 84
    },
    {
      "midi": 64,
      "hit": false,
      "t": 189340.08843750219,
      "d": 284.7219374999986,
      "v": 15
    },
    {
      "midi": 69,
      "hit": false,
      "t": 189652.5881250022,
      "d": 145.8331875000149,
      "v": 20
    },
    {
      "midi": 76,
      "hit": false,
      "t": 189798.42131250122,
      "d": 76.38881249999395,
      "v": 89
    },
    {
      "midi": 73,
      "hit": false,
      "t": 189805.36575000122,
      "d": 90.27768749999814,
      "v": 57
    },
    {
      "midi": 73,
      "hit": false,
      "t": 189819.2546250022,
      "d": 305.5552500000049,
      "v": 18
    },
    {
      "midi": 76,
      "hit": false,
      "t": 189999.81000000122,
      "d": 173.61093749999418,
      "v": 90
    },
    {
      "midi": 73,
      "hit": false,
      "t": 189999.81000000122,
      "d": 201.38868750000256,
      "v": 72
    },
    {
      "midi": 80,
      "hit": false,
      "t": 190006.75443750122,
      "d": 208.33312500000466,
      "v": 76
    },
    {
      "midi": 78,
      "hit": false,
      "t": 190138.69875000222,
      "d": 166.66649999999208,
      "v": 17
    },
    {
      "midi": 66,
      "hit": false,
      "t": 190152.58762500223,
      "d": 173.61093749999418,
      "v": 16
    },
    {
      "midi": 78,
      "hit": false,
      "t": 190312.30968750123,
      "d": 69.44437499999185,
      "v": 76
    },
    {
      "midi": 73,
      "hit": false,
      "t": 190478.97618750122,
      "d": 229.16643750001094,
      "v": 72
    },
    {
      "midi": 76,
      "hit": false,
      "t": 190485.92062500122,
      "d": 208.33312500000466,
      "v": 90
    },
    {
      "midi": 71,
      "hit": false,
      "t": 190485.9206250022,
      "d": 368.05518750002375,
      "v": 19
    },
    {
      "midi": 59,
      "hit": false,
      "t": 190499.80950000221,
      "d": 284.7219374999986,
      "v": 15
    },
    {
      "midi": 71,
      "hit": false,
      "t": 190812.30918750123,
      "d": 687.4993125000037,
      "v": 93
    },
    {
      "midi": 74,
      "hit": false,
      "t": 190819.25362500123,
      "d": 687.4993125000037,
      "v": 104
    },
    {
      "midi": 64,
      "hit": false,
      "t": 190819.25362500222,
      "d": 138.8887500000128,
      "v": 18
    },
    {
      "midi": 68,
      "hit": false,
      "t": 190978.97568750224,
      "d": 97.22212500000023,
      "v": 18
    },
    {
      "midi": 73,
      "hit": false,
      "t": 191138.69775000223,
      "d": 83.33324999999604,
      "v": 14
    },
    {
      "midi": 61,
      "hit": false,
      "t": 191145.64218750224,
      "d": 83.33324999999604,
      "v": 10
    },
    {
      "midi": 59,
      "hit": false,
      "t": 191333.14200000223,
      "d": 159.72206249999,
      "v": 14
    },
    {
      "midi": 71,
      "hit": false,
      "t": 191333.14200000223,
      "d": 194.44425000000047,
      "v": 18
    },
    {
      "midi": 64,
      "hit": false,
      "t": 191499.80850000223,
      "d": 131.9443125000107,
      "v": 18
    },
    {
      "midi": 76,
      "hit": false,
      "t": 191645.64168750125,
      "d": 97.22212500000023,
      "v": 84
    },
    {
      "midi": 71,
      "hit": false,
      "t": 191652.58612500125,
      "d": 90.27768749999814,
      "v": 66
    },
    {
      "midi": 68,
      "hit": false,
      "t": 191673.41943750225,
      "d": 90.27768749999814,
      "v": 17
    },
    {
      "midi": 71,
      "hit": false,
      "t": 191826.19706250125,
      "d": 222.22200000000885,
      "v": 80
    },
    {
      "midi": 61,
      "hit": false,
      "t": 191826.19706250224,
      "d": 76.38881249999395,
      "v": 13
    },
    {
      "midi": 73,
      "hit": false,
      "t": 191826.19706250224,
      "d": 76.38881249999395,
      "v": 13
    },
    {
      "midi": 76,
      "hit": false,
      "t": 191833.14150000125,
      "d": 208.33312500000466,
      "v": 89
    },
    {
      "midi": 80,
      "hit": false,
      "t": 191847.03037500125,
      "d": 201.38868750000256,
      "v": 62
    },
    {
      "midi": 59,
      "hit": false,
      "t": 192006.75243750223,
      "d": 263.8886249999923,
      "v": 14
    },
    {
      "midi": 71,
      "hit": false,
      "t": 192006.75243750223,
      "d": 312.4996874999779,
      "v": 20
    },
    {
      "midi": 71,
      "hit": false,
      "t": 192166.47450000126,
      "d": 229.16643750001094,
      "v": 77
    },
    {
      "midi": 76,
      "hit": false,
      "t": 192166.47450000126,
      "d": 229.16643750001094,
      "v": 89
    },
    {
      "midi": 80,
      "hit": false,
      "t": 192166.47450000126,
      "d": 236.11087500001304,
      "v": 76
    },
    {
      "midi": 64,
      "hit": false,
      "t": 192326.1965625022,
      "d": 145.8331874999858,
      "v": 17
    },
    {
      "midi": 76,
      "hit": false,
      "t": 192492.86306250127,
      "d": 83.33324999999604,
      "v": 84
    },
    {
      "midi": 71,
      "hit": false,
      "t": 192492.86306250127,
      "d": 90.27768749999814,
      "v": 72
    },
    {
      "midi": 80,
      "hit": false,
      "t": 192492.86306250127,
      "d": 90.27768749999814,
      "v": 76
    },
    {
      "midi": 68,
      "hit": false,
      "t": 192506.7519375022,
      "d": 326.3885625000112,
      "v": 18
    },
    {
      "midi": 76,
      "hit": false,
      "t": 192666.47400000127,
      "d": 194.44425000000047,
      "v": 84
    },
    {
      "midi": 80,
      "hit": false,
      "t": 192666.47400000127,
      "d": 215.27756250000675,
      "v": 71
    },
    {
      "midi": 71,
      "hit": false,
      "t": 192673.41843750127,
      "d": 215.27756250000675,
      "v": 73
    },
    {
      "midi": 61,
      "hit": false,
      "t": 192853.97381250223,
      "d": 166.66649999999208,
      "v": 13
    },
    {
      "midi": 73,
      "hit": false,
      "t": 192867.86268750223,
      "d": 187.49981249999837,
      "v": 14
    },
    {
      "midi": 71,
      "hit": false,
      "t": 192985.91812500128,
      "d": 111.11100000000442,
      "v": 82
    },
    {
      "midi": 78,
      "hit": false,
      "t": 192992.86256250128,
      "d": 83.33324999999604,
      "v": 85
    },
    {
      "midi": 64,
      "hit": false,
      "t": 193159.52906250223,
      "d": 277.7774999999965,
      "v": 15
    },
    {
      "midi": 76,
      "hit": false,
      "t": 193159.52906250223,
      "d": 340.27743749998626,
      "v": 20
    },
    {
      "midi": 71,
      "hit": false,
      "t": 193187.30681250128,
      "d": 222.22200000000885,
      "v": 86
    },
    {
      "midi": 78,
      "hit": false,
      "t": 193194.25125000128,
      "d": 173.61093749999418,
      "v": 84
    },
    {
      "midi": 69,
      "hit": false,
      "t": 193492.86206250222,
      "d": 131.9443125000107,
      "v": 20
    },
    {
      "midi": 76,
      "hit": false,
      "t": 193506.7509375013,
      "d": 479.16618749999907,
      "v": 73
    },
    {
      "midi": 69,
      "hit": false,
      "t": 193520.6398125013,
      "d": 263.8886249999923,
      "v": 89
    },
    {
      "midi": 73,
      "hit": false,
      "t": 193520.6398125013,
      "d": 263.8886249999923,
      "v": 72
    },
    {
      "midi": 73,
      "hit": false,
      "t": 193652.58412500223,
      "d": 118.05543750000652,
      "v": 15
    },
    {
      "midi": 69,
      "hit": false,
      "t": 193784.52843750129,
      "d": 194.44425000000047,
      "v": 81
    },
    {
      "midi": 73,
      "hit": false,
      "t": 193784.52843750129,
      "d": 201.38868750000256,
      "v": 82
    },
    {
      "midi": 66,
      "hit": false,
      "t": 193826.19506250223,
      "d": 319.4441250000091,
      "v": 14
    },
    {
      "midi": 78,
      "hit": false,
      "t": 193826.19506250223,
      "d": 333.33300000001327,
      "v": 17
    },
    {
      "midi": 69,
      "hit": false,
      "t": 193978.9726875013,
      "d": 333.33300000001327,
      "v": 84
    },
    {
      "midi": 76,
      "hit": false,
      "t": 193985.9171250013,
      "d": 319.4441250000091,
      "v": 89
    },
    {
      "midi": 73,
      "hit": false,
      "t": 193985.9171250013,
      "d": 326.3885625000112,
      "v": 73
    },
    {
      "midi": 69,
      "hit": false,
      "t": 194152.58362500224,
      "d": 138.8887500000128,
      "v": 21
    },
    {
      "midi": 76,
      "hit": false,
      "t": 194305.3612500013,
      "d": 458.3328750000219,
      "v": 89
    },
    {
      "midi": 69,
      "hit": false,
      "t": 194312.3056875013,
      "d": 326.3885625000112,
      "v": 93
    },
    {
      "midi": 73,
      "hit": false,
      "t": 194312.3056875013,
      "d": 333.33300000001327,
      "v": 76
    },
    {
      "midi": 73,
      "hit": false,
      "t": 194319.25012500226,
      "d": 124.99987500000861,
      "v": 16
    },
    {
      "midi": 78,
      "hit": false,
      "t": 194458.13887500227,
      "d": 97.22212500000023,
      "v": 17
    },
    {
      "midi": 66,
      "hit": false,
      "t": 194492.86106250228,
      "d": 69.44437499999185,
      "v": 13
    },
    {
      "midi": 78,
      "hit": false,
      "t": 194638.6942500013,
      "d": 374.99962499999674,
      "v": 74
    },
    {
      "midi": 69,
      "hit": false,
      "t": 194638.6942500013,
      "d": 388.88850000000093,
      "v": 77
    },
    {
      "midi": 73,
      "hit": false,
      "t": 194645.6386875013,
      "d": 395.832937500003,
      "v": 74
    },
    {
      "midi": 76,
      "hit": false,
      "t": 194659.52756250228,
      "d": 354.16631249999045,
      "v": 19
    },
    {
      "midi": 64,
      "hit": false,
      "t": 194666.47200000228,
      "d": 263.8886249999923,
      "v": 16
    },
    {
      "midi": 69,
      "hit": false,
      "t": 194978.97168750226,
      "d": 131.9443125000107,
      "v": 20
    },
    {
      "midi": 69,
      "hit": false,
      "t": 195131.7493125013,
      "d": 104.16656250000233,
      "v": 90
    },
    {
      "midi": 73,
      "hit": false,
      "t": 195138.69375000132,
      "d": 83.33324999999604,
      "v": 72
    },
    {
      "midi": 73,
      "hit": false,
      "t": 195138.69375000228,
      "d": 298.6108125000028,
      "v": 16
    },
    {
      "midi": 69,
      "hit": false,
      "t": 195312.3046875013,
      "d": 222.22200000000885,
      "v": 85
    },
    {
      "midi": 73,
      "hit": false,
      "t": 195312.3046875013,
      "d": 256.9441875000193,
      "v": 73
    },
    {
      "midi": 76,
      "hit": false,
      "t": 195312.3046875013,
      "d": 263.8886250000214,
      "v": 85
    },
    {
      "midi": 78,
      "hit": false,
      "t": 195472.0267500023,
      "d": 173.61093749999418,
      "v": 17
    },
    {
      "midi": 66,
      "hit": false,
      "t": 195485.9156250023,
      "d": 166.66649999999208,
      "v": 14
    },
    {
      "midi": 76,
      "hit": false,
      "t": 195645.63768750132,
      "d": 180.55537499999627,
      "v": 80
    },
    {
      "midi": 73,
      "hit": false,
      "t": 195652.58212500133,
      "d": 173.61093749999418,
      "v": 74
    },
    {
      "midi": 69,
      "hit": false,
      "t": 195652.58212500133,
      "d": 215.27756250000675,
      "v": 90
    },
    {
      "midi": 59,
      "hit": false,
      "t": 195826.19306250228,
      "d": 291.6663750000007,
      "v": 16
    },
    {
      "midi": 71,
      "hit": false,
      "t": 195826.19306250228,
      "d": 354.16631249999045,
      "v": 19
    },
    {
      "midi": 71,
      "hit": false,
      "t": 195972.02625000133,
      "d": 826.3880625000165,
      "v": 81
    },
    {
      "midi": 74,
      "hit": false,
      "t": 195978.97068750134,
      "d": 833.3325000000186,
      "v": 84
    },
    {
      "midi": 64,
      "hit": false,
      "t": 196131.74831250228,
      "d": 166.66649999999208,
      "v": 18
    },
    {
      "midi": 68,
      "hit": false,
      "t": 196305.35925000228,
      "d": 145.8331874999858,
      "v": 19
    },
    {
      "midi": 73,
      "hit": false,
      "t": 196485.91462500227,
      "d": 76.38881249999395,
      "v": 16
    },
    {
      "midi": 61,
      "hit": false,
      "t": 196485.91462500227,
      "d": 83.33324999999604,
      "v": 15
    },
    {
      "midi": 71,
      "hit": false,
      "t": 196666.47000000227,
      "d": 208.33312500000466,
      "v": 19
    },
    {
      "midi": 59,
      "hit": false,
      "t": 196673.41443750227,
      "d": 166.66649999999208,
      "v": 17
    },
    {
      "midi": 64,
      "hit": false,
      "t": 196840.08093750227,
      "d": 138.8887500000128,
      "v": 18
    },
    {
      "midi": 71,
      "hit": false,
      "t": 196985.91412500135,
      "d": 104.16656250000233,
      "v": 66
    },
    {
      "midi": 76,
      "hit": false,
      "t": 196985.91412500135,
      "d": 104.16656250000233,
      "v": 76
    },
    {
      "midi": 68,
      "hit": false,
      "t": 196999.80300000228,
      "d": 104.16656250000233,
      "v": 19
    },
    {
      "midi": 61,
      "hit": false,
      "t": 197166.46950000228,
      "d": 90.27768749999814,
      "v": 16
    },
    {
      "midi": 73,
      "hit": false,
      "t": 197173.41393750228,
      "d": 76.38881249999395,
      "v": 16
    },
    {
      "midi": 76,
      "hit": false,
      "t": 197180.35837500135,
      "d": 208.33312500000466,
      "v": 82
    },
    {
      "midi": 71,
      "hit": false,
      "t": 197180.35837500135,
      "d": 222.22200000000885,
      "v": 73
    },
    {
      "midi": 80,
      "hit": false,
      "t": 197180.35837500135,
      "d": 229.16643750001094,
      "v": 59
    },
    {
      "midi": 59,
      "hit": false,
      "t": 197353.96931250227,
      "d": 291.6663750000007,
      "v": 17
    },
    {
      "midi": 71,
      "hit": false,
      "t": 197353.96931250227,
      "d": 340.27743750001537,
      "v": 20
    },
    {
      "midi": 80,
      "hit": false,
      "t": 197499.80250000136,
      "d": 222.22200000000885,
      "v": 72
    },
    {
      "midi": 71,
      "hit": false,
      "t": 197506.74693750136,
      "d": 201.38868750000256,
      "v": 73
    },
    {
      "midi": 76,
      "hit": false,
      "t": 197506.74693750136,
      "d": 201.38868750000256,
      "v": 84
    },
    {
      "midi": 64,
      "hit": false,
      "t": 197659.52456250228,
      "d": 180.55537499999627,
      "v": 18
    },
    {
      "midi": 76,
      "hit": false,
      "t": 197812.30218750137,
      "d": 90.27768749999814,
      "v": 86
    },
    {
      "midi": 80,
      "hit": false,
      "t": 197812.30218750137,
      "d": 118.05543750000652,
      "v": 77
    },
    {
      "midi": 71,
      "hit": false,
      "t": 197819.24662500137,
      "d": 90.27768749999814,
      "v": 76
    },
    {
      "midi": 68,
      "hit": false,
      "t": 197853.96881250228,
      "d": 291.6663750000007,
      "v": 18
    },
    {
      "midi": 76,
      "hit": false,
      "t": 197999.80200000136,
      "d": 215.27756250000675,
      "v": 93
    },
    {
      "midi": 71,
      "hit": false,
      "t": 197999.80200000136,
      "d": 222.22200000000885,
      "v": 84
    },
    {
      "midi": 80,
      "hit": false,
      "t": 197999.80200000136,
      "d": 243.05531250001513,
      "v": 73
    },
    {
      "midi": 61,
      "hit": false,
      "t": 198152.57962500228,
      "d": 180.55537499999627,
      "v": 13
    },
    {
      "midi": 73,
      "hit": false,
      "t": 198166.4685000023,
      "d": 201.38868750000256,
      "v": 14
    },
    {
      "midi": 78,
      "hit": false,
      "t": 198305.35725000137,
      "d": 90.27768749999814,
      "v": 84
    },
    {
      "midi": 71,
      "hit": false,
      "t": 198312.30168750137,
      "d": 97.22212500000023,
      "v": 74
    },
    {
      "midi": 76,
      "hit": false,
      "t": 198478.9681875023,
      "d": 368.05518750002375,
      "v": 19
    },
    {
      "midi": 64,
      "hit": false,
      "t": 198485.9126250023,
      "d": 333.33300000001327,
      "v": 15
    },
    {
      "midi": 78,
      "hit": false,
      "t": 198506.74593750137,
      "d": 173.61093749999418,
      "v": 74
    },
    {
      "midi": 71,
      "hit": false,
      "t": 198506.74593750137,
      "d": 201.38868750000256,
      "v": 82
    },
    {
      "midi": 76,
      "hit": false,
      "t": 198819.24562500138,
      "d": 236.11087500001304,
      "v": 80
    },
    {
      "midi": 69,
      "hit": false,
      "t": 198826.19006250138,
      "d": 208.33312500000466,
      "v": 72
    },
    {
      "midi": 69,
      "hit": false,
      "t": 198826.1900625023,
      "d": 145.8331875000149,
      "v": 19
    },
    {
      "midi": 73,
      "hit": false,
      "t": 198833.13450000138,
      "d": 215.27756250000675,
      "v": 63
    },
    {
      "midi": 73,
      "hit": false,
      "t": 198999.80100000234,
      "d": 145.8331874999858,
      "v": 16
    },
    {
      "midi": 69,
      "hit": false,
      "t": 199145.6341875014,
      "d": 90.27768749999814,
      "v": 82
    },
    {
      "midi": 73,
      "hit": false,
      "t": 199145.6341875014,
      "d": 90.27768749999814,
      "v": 74
    },
    {
      "midi": 66,
      "hit": false,
      "t": 199159.52306250233,
      "d": 326.3885625000112,
      "v": 15
    },
    {
      "midi": 78,
      "hit": false,
      "t": 199166.46750000233,
      "d": 340.27743750001537,
      "v": 17
    },
    {
      "midi": 69,
      "hit": false,
      "t": 199319.24512500138,
      "d": 194.44425000000047,
      "v": 89
    },
    {
      "midi": 76,
      "hit": false,
      "t": 199319.24512500138,
      "d": 222.22200000000885,
      "v": 84
    },
    {
      "midi": 73,
      "hit": false,
      "t": 199326.1895625014,
      "d": 208.33312500000466,
      "v": 73
    },
    {
      "midi": 69,
      "hit": false,
      "t": 199485.91162500234,
      "d": 145.8331875000149,
      "v": 20
    },
    {
      "midi": 76,
      "hit": false,
      "t": 199652.5781250014,
      "d": 173.61093749999418,
      "v": 84
    },
    {
      "midi": 69,
      "hit": false,
      "t": 199652.5781250014,
      "d": 187.49981249999837,
      "v": 89
    },
    {
      "midi": 73,
      "hit": false,
      "t": 199659.5225625014,
      "d": 194.44425000000047,
      "v": 74
    },
    {
      "midi": 73,
      "hit": false,
      "t": 199673.41143750236,
      "d": 104.16656250000233,
      "v": 14
    },
    {
      "midi": 78,
      "hit": false,
      "t": 199805.35575000237,
      "d": 104.16656249997322,
      "v": 14
    },
    {
      "midi": 66,
      "hit": false,
      "t": 199853.96681250236,
      "d": 55.55549999998766,
      "v": 12
    },
    {
      "midi": 69,
      "hit": false,
      "t": 199985.9111250014,
      "d": 319.4441250000091,
      "v": 89
    },
    {
      "midi": 73,
      "hit": false,
      "t": 199985.9111250014,
      "d": 340.27743750001537,
      "v": 71
    },
    {
      "midi": 78,
      "hit": false,
      "t": 199992.8555625014,
      "d": 326.3885625000112,
      "v": 73
    },
    {
      "midi": 76,
      "hit": false,
      "t": 200006.74443750235,
      "d": 333.33300000001327,
      "v": 19
    },
    {
      "midi": 64,
      "hit": false,
      "t": 200013.68887500235,
      "d": 270.8330624999944,
      "v": 16
    },
    {
      "midi": 69,
      "hit": false,
      "t": 200312.29968750235,
      "d": 173.61093749999418,
      "v": 20
    },
    {
      "midi": 73,
      "hit": false,
      "t": 200472.0217500014,
      "d": 104.16656250000233,
      "v": 76
    },
    {
      "midi": 69,
      "hit": false,
      "t": 200478.9661875014,
      "d": 90.27768749999814,
      "v": 89
    },
    {
      "midi": 73,
      "hit": false,
      "t": 200506.74393750235,
      "d": 277.7774999999965,
      "v": 17
    },
    {
      "midi": 69,
      "hit": false,
      "t": 200645.6326875014,
      "d": 229.16643750001094,
      "v": 85
    },
    {
      "midi": 76,
      "hit": false,
      "t": 200652.5771250014,
      "d": 222.22200000000885,
      "v": 84
    },
    {
      "midi": 73,
      "hit": false,
      "t": 200659.5215625014,
      "d": 208.33312500000466,
      "v": 76
    },
    {
      "midi": 78,
      "hit": false,
      "t": 200805.35475000236,
      "d": 166.66649999999208,
      "v": 16
    },
    {
      "midi": 66,
      "hit": false,
      "t": 200805.35475000236,
      "d": 180.55537499999627,
      "v": 15
    },
    {
      "midi": 76,
      "hit": false,
      "t": 200978.96568750142,
      "d": 166.66649999999208,
      "v": 81
    },
    {
      "midi": 69,
      "hit": false,
      "t": 200978.96568750142,
      "d": 215.27756249997765,
      "v": 94
    },
    {
      "midi": 73,
      "hit": false,
      "t": 200985.91012500142,
      "d": 152.7776249999879,
      "v": 77
    },
    {
      "midi": 59,
      "hit": false,
      "t": 201138.68775000234,
      "d": 326.3885625000112,
      "v": 16
    },
    {
      "midi": 71,
      "hit": false,
      "t": 201138.68775000234,
      "d": 388.88850000000093,
      "v": 20
    },
    {
      "midi": 71,
      "hit": false,
      "t": 201305.3542500014,
      "d": 770.8325624999998,
      "v": 89
    },
    {
      "midi": 74,
      "hit": false,
      "t": 201312.2986875014,
      "d": 798.6103125000081,
      "v": 89
    },
    {
      "midi": 64,
      "hit": false,
      "t": 201478.96518750236,
      "d": 166.66649999999208,
      "v": 18
    },
    {
      "midi": 68,
      "hit": false,
      "t": 201666.46500000235,
      "d": 111.11100000000442,
      "v": 17
    },
    {
      "midi": 61,
      "hit": false,
      "t": 201819.24262500237,
      "d": 104.16656250000233,
      "v": 14
    },
    {
      "midi": 73,
      "hit": false,
      "t": 201826.18706250237,
      "d": 83.33324999999604,
      "v": 16
    },
    {
      "midi": 71,
      "hit": false,
      "t": 202006.74243750237,
      "d": 187.49981249999837,
      "v": 19
    },
    {
      "midi": 59,
      "hit": false,
      "t": 202013.68687500237,
      "d": 159.72206249999,
      "v": 15
    },
    {
      "midi": 64,
      "hit": false,
      "t": 202173.40893750236,
      "d": 152.777625000017,
      "v": 18
    },
    {
      "midi": 76,
      "hit": false,
      "t": 202312.2976875014,
      "d": 104.16656250000233,
      "v": 76
    },
    {
      "midi": 71,
      "hit": false,
      "t": 202312.2976875014,
      "d": 111.11100000000442,
      "v": 73
    },
    {
      "midi": 68,
      "hit": false,
      "t": 202340.07543750238,
      "d": 111.11100000000442,
      "v": 18
    },
    {
      "midi": 73,
      "hit": false,
      "t": 202492.8530625024,
      "d": 69.44437499999185,
      "v": 14
    },
    {
      "midi": 61,
      "hit": false,
      "t": 202492.8530625024,
      "d": 76.38881249999395,
      "v": 15
    },
    {
      "midi": 80,
      "hit": false,
      "t": 202506.7419375014,
      "d": 215.27756250000675,
      "v": 74
    },
    {
      "midi": 76,
      "hit": false,
      "t": 202513.68637500142,
      "d": 208.33312500000466,
      "v": 82
    },
    {
      "midi": 71,
      "hit": false,
      "t": 202513.68637500142,
      "d": 215.27756250000675,
      "v": 70
    },
    {
      "midi": 59,
      "hit": false,
      "t": 202673.4084375024,
      "d": 291.6663750000007,
      "v": 15
    },
    {
      "midi": 71,
      "hit": false,
      "t": 202673.4084375024,
      "d": 361.11074999999255,
      "v": 21
    },
    {
      "midi": 80,
      "hit": false,
      "t": 202840.07493750143,
      "d": 222.22200000000885,
      "v": 78
    },
    {
      "midi": 71,
      "hit": false,
      "t": 202840.07493750143,
      "d": 229.16643750001094,
      "v": 76
    },
    {
      "midi": 76,
      "hit": false,
      "t": 202847.01937500143,
      "d": 215.27756250000675,
      "v": 90
    },
    {
      "midi": 64,
      "hit": false,
      "t": 202985.9081250024,
      "d": 166.66649999999208,
      "v": 16
    },
    {
      "midi": 76,
      "hit": false,
      "t": 203152.57462500143,
      "d": 118.05543750000652,
      "v": 89
    },
    {
      "midi": 80,
      "hit": false,
      "t": 203152.57462500143,
      "d": 118.05543750000652,
      "v": 77
    },
    {
      "midi": 71,
      "hit": false,
      "t": 203166.46350000144,
      "d": 97.22212500000023,
      "v": 76
    },
    {
      "midi": 68,
      "hit": false,
      "t": 203173.4079375024,
      "d": 305.5552500000049,
      "v": 18
    },
    {
      "midi": 76,
      "hit": false,
      "t": 203340.07443750143,
      "d": 222.22200000000885,
      "v": 95
    },
    {
      "midi": 71,
      "hit": false,
      "t": 203340.07443750143,
      "d": 229.16643750001094,
      "v": 84
    },
    {
      "midi": 80,
      "hit": false,
      "t": 203340.07443750143,
      "d": 229.16643750001094,
      "v": 84
    },
    {
      "midi": 61,
      "hit": false,
      "t": 203492.8520625024,
      "d": 187.49981249999837,
      "v": 13
    },
    {
      "midi": 73,
      "hit": false,
      "t": 203506.7409375024,
      "d": 208.33312500000466,
      "v": 14
    },
    {
      "midi": 71,
      "hit": false,
      "t": 203659.51856250144,
      "d": 118.05543750000652,
      "v": 73
    },
    {
      "midi": 78,
      "hit": false,
      "t": 203666.46300000144,
      "d": 90.27768749999814,
      "v": 80
    },
    {
      "midi": 76,
      "hit": false,
      "t": 203805.35175000242,
      "d": 354.16631250001956,
      "v": 21
    },
    {
      "midi": 64,
      "hit": false,
      "t": 203812.29618750242,
      "d": 298.6108125000028,
      "v": 17
    },
    {
      "midi": 71,
      "hit": false,
      "t": 203840.07393750144,
      "d": 208.33312500000466,
      "v": 81
    },
    {
      "midi": 78,
      "hit": false,
      "t": 203853.96281250144,
      "d": 159.72206249999,
      "v": 81
    },
    {
      "midi": 69,
      "hit": false,
      "t": 204145.62918750243,
      "d": 152.777625000017,
      "v": 19
    },
    {
      "midi": 76,
      "hit": false,
      "t": 204173.40693750145,
      "d": 215.27756250000675,
      "v": 74
    },
    {
      "midi": 69,
      "hit": false,
      "t": 204180.35137500145,
      "d": 215.27756250000675,
      "v": 85
    },
    {
      "midi": 73,
      "hit": false,
      "t": 204187.29581250146,
      "d": 201.38868750000256,
      "v": 63
    },
    {
      "midi": 73,
      "hit": false,
      "t": 204312.29568750245,
      "d": 131.9443125000107,
      "v": 17
    },
    {
      "midi": 66,
      "hit": false,
      "t": 204465.07331250247,
      "d": 354.16631249999045,
      "v": 15
    },
    {
      "midi": 78,
      "hit": false,
      "t": 204472.01775000247,
      "d": 368.05518749999464,
      "v": 18
    },
    {
      "midi": 73,
      "hit": false,
      "t": 204485.90662500146,
      "d": 104.16656250000233,
      "v": 71
    },
    {
      "midi": 69,
      "hit": false,
      "t": 204506.73993750146,
      "d": 76.38881249999395,
      "v": 81
    },
    {
      "midi": 69,
      "hit": false,
      "t": 204673.40643750146,
      "d": 194.44425000000047,
      "v": 84
    },
    {
      "midi": 76,
      "hit": false,
      "t": 204673.40643750146,
      "d": 194.44425000000047,
      "v": 82
    },
    {
      "midi": 73,
      "hit": false,
      "t": 204673.40643750146,
      "d": 208.33312500000466,
      "v": 76
    },
    {
      "midi": 69,
      "hit": false,
      "t": 204819.23962500246,
      "d": 131.9443125000107,
      "v": 19
    },
    {
      "midi": 76,
      "hit": false,
      "t": 204985.90612500146,
      "d": 187.49981249999837,
      "v": 82
    },
    {
      "midi": 69,
      "hit": false,
      "t": 204985.90612500146,
      "d": 201.38868750000256,
      "v": 89
    },
    {
      "midi": 73,
      "hit": false,
      "t": 204985.90612500146,
      "d": 215.27756250000675,
      "v": 73
    },
    {
      "midi": 73,
      "hit": false,
      "t": 204985.90612500248,
      "d": 97.22212500000023,
      "v": 14
    },
    {
      "midi": 78,
      "hit": false,
      "t": 205124.7948750025,
      "d": 90.27768749999814,
      "v": 15
    },
    {
      "midi": 66,
      "hit": false,
      "t": 205131.7393125025,
      "d": 97.22212500000023,
      "v": 15
    },
    {
      "midi": 73,
      "hit": false,
      "t": 205319.23912500148,
      "d": 340.27743750001537,
      "v": 76
    },
    {
      "midi": 69,
      "hit": false,
      "t": 205326.18356250148,
      "d": 298.6108125000028,
      "v": 86
    },
    {
      "midi": 78,
      "hit": false,
      "t": 205326.18356250148,
      "d": 312.499687500007,
      "v": 76
    },
    {
      "midi": 76,
      "hit": false,
      "t": 205326.1835625025,
      "d": 340.27743750001537,
      "v": 18
    },
    {
      "midi": 64,
      "hit": false,
      "t": 205333.1280000025,
      "d": 291.6663750000007,
      "v": 16
    },
    {
      "midi": 69,
      "hit": false,
      "t": 205631.7388125025,
      "d": 152.777625000017,
      "v": 20
    },
    {
      "midi": 73,
      "hit": false,
      "t": 205819.23862500148,
      "d": 90.27768749999814,
      "v": 73
    },
    {
      "midi": 69,
      "hit": false,
      "t": 205826.18306250148,
      "d": 90.27768749999814,
      "v": 80
    },
    {
      "midi": 73,
      "hit": false,
      "t": 205833.1275000025,
      "d": 270.8330624999944,
      "v": 17
    },
    {
      "midi": 69,
      "hit": false,
      "t": 205992.84956250148,
      "d": 215.27756250000675,
      "v": 85
    },
    {
      "midi": 76,
      "hit": false,
      "t": 205992.84956250148,
      "d": 222.22200000000885,
      "v": 86
    },
    {
      "midi": 73,
      "hit": false,
      "t": 205999.79400000148,
      "d": 194.44425000000047,
      "v": 76
    },
    {
      "midi": 78,
      "hit": false,
      "t": 206131.7383125025,
      "d": 194.44425000000047,
      "v": 17
    },
    {
      "midi": 66,
      "hit": false,
      "t": 206145.6271875025,
      "d": 187.49981249999837,
      "v": 14
    },
    {
      "midi": 73,
      "hit": false,
      "t": 206319.2381250015,
      "d": 159.72206249999,
      "v": 84
    },
    {
      "midi": 76,
      "hit": false,
      "t": 206319.2381250015,
      "d": 180.55537499999627,
      "v": 82
    },
    {
      "midi": 69,
      "hit": false,
      "t": 206319.2381250015,
      "d": 187.49981249999837,
      "v": 94
    },
    {
      "midi": 59,
      "hit": false,
      "t": 206485.9046250025,
      "d": 333.33300000001327,
      "v": 16
    },
    {
      "midi": 71,
      "hit": false,
      "t": 206485.9046250025,
      "d": 381.94406249999884,
      "v": 19
    },
    {
      "midi": 71,
      "hit": false,
      "t": 206659.51556250147,
      "d": 701.3881875000079,
      "v": 85
    },
    {
      "midi": 74,
      "hit": false,
      "t": 206659.51556250147,
      "d": 743.0548125000205,
      "v": 90
    },
    {
      "midi": 64,
      "hit": false,
      "t": 206819.2376250025,
      "d": 159.72206249999,
      "v": 19
    },
    {
      "midi": 68,
      "hit": false,
      "t": 206999.7930000025,
      "d": 111.11100000000442,
      "v": 18
    },
    {
      "midi": 73,
      "hit": false,
      "t": 207159.5150625025,
      "d": 76.38881249999395,
      "v": 16
    },
    {
      "midi": 61,
      "hit": false,
      "t": 207166.4595000025,
      "d": 76.38881249999395,
      "v": 15
    },
    {
      "midi": 59,
      "hit": false,
      "t": 207326.1815625025,
      "d": 166.66649999999208,
      "v": 15
    },
    {
      "midi": 71,
      "hit": false,
      "t": 207326.1815625025,
      "d": 208.33312500000466,
      "v": 19
    },
    {
      "midi": 64,
      "hit": false,
      "t": 207492.84806250248,
      "d": 138.8887500000128,
      "v": 18
    },
    {
      "midi": 76,
      "hit": false,
      "t": 207624.7923750015,
      "d": 104.16656250000233,
      "v": 81
    },
    {
      "midi": 71,
      "hit": false,
      "t": 207631.7368125015,
      "d": 83.33324999999604,
      "v": 73
    },
    {
      "midi": 68,
      "hit": false,
      "t": 207659.5145625025,
      "d": 104.16656250000233,
      "v": 18
    },
    {
      "midi": 61,
      "hit": false,
      "t": 207812.2921875025,
      "d": 90.27768749999814,
      "v": 15
    },
    {
      "midi": 73,
      "hit": false,
      "t": 207819.2366250025,
      "d": 69.44437499999185,
      "v": 16
    },
    {
      "midi": 80,
      "hit": false,
      "t": 207826.1810625015,
      "d": 222.22200000000885,
      "v": 65
    },
    {
      "midi": 76,
      "hit": false,
      "t": 207833.1255000015,
      "d": 201.38868750000256,
      "v": 86
    },
    {
      "midi": 71,
      "hit": false,
      "t": 207833.1255000015,
      "d": 215.27756250000675,
      "v": 73
    },
    {
      "midi": 59,
      "hit": false,
      "t": 207999.7920000025,
      "d": 284.7219374999986,
      "v": 16
    },
    {
      "midi": 71,
      "hit": false,
      "t": 207999.7920000025,
      "d": 347.22187500001746,
      "v": 20
    },
    {
      "midi": 80,
      "hit": false,
      "t": 208159.51406250152,
      "d": 236.11087500001304,
      "v": 80
    },
    {
      "midi": 71,
      "hit": false,
      "t": 208166.45850000152,
      "d": 215.27756250000675,
      "v": 74
    },
    {
      "midi": 76,
      "hit": false,
      "t": 208173.40293750152,
      "d": 194.44425000000047,
      "v": 94
    },
    {
      "midi": 64,
      "hit": false,
      "t": 208312.2916875025,
      "d": 180.55537499999627,
      "v": 17
    },
    {
      "midi": 80,
      "hit": false,
      "t": 208478.95818750153,
      "d": 111.11100000000442,
      "v": 74
    },
    {
      "midi": 76,
      "hit": false,
      "t": 208485.90262500153,
      "d": 90.27768749999814,
      "v": 90
    },
    {
      "midi": 71,
      "hit": false,
      "t": 208492.84706250153,
      "d": 97.22212500000023,
      "v": 67
    },
    {
      "midi": 68,
      "hit": false,
      "t": 208506.7359375025,
      "d": 305.5552500000049,
      "v": 19
    },
    {
      "midi": 76,
      "hit": false,
      "t": 208673.40243750153,
      "d": 208.33312500000466,
      "v": 89
    },
    {
      "midi": 80,
      "hit": false,
      "t": 208673.40243750153,
      "d": 215.27756250000675,
      "v": 73
    },
    {
      "midi": 71,
      "hit": false,
      "t": 208673.40243750153,
      "d": 222.22200000000885,
      "v": 73
    },
    {
      "midi": 61,
      "hit": false,
      "t": 208840.0689375025,
      "d": 166.66649999999208,
      "v": 15
    },
    {
      "midi": 73,
      "hit": false,
      "t": 208840.0689375025,
      "d": 201.38868750000256,
      "v": 15
    },
    {
      "midi": 78,
      "hit": false,
      "t": 208999.79100000154,
      "d": 76.38881249999395,
      "v": 68
    },
    {
      "midi": 71,
      "hit": false,
      "t": 209020.62431250155,
      "d": 83.33324999999604,
      "v": 44
    },
    {
      "midi": 76,
      "hit": false,
      "t": 209159.51306250252,
      "d": 354.16631250001956,
      "v": 19
    },
    {
      "midi": 64,
      "hit": false,
      "t": 209166.45750000252,
      "d": 312.499687500007,
      "v": 17
    },
    {
      "midi": 78,
      "hit": false,
      "t": 209194.23525000154,
      "d": 166.66649999999208,
      "v": 76
    },
    {
      "midi": 71,
      "hit": false,
      "t": 209194.23525000154,
      "d": 208.33312500000466,
      "v": 80
    },
    {
      "midi": 69,
      "hit": false,
      "t": 209492.84606250253,
      "d": 145.8331875000149,
      "v": 20
    },
    {
      "midi": 76,
      "hit": false,
      "t": 209520.62381250155,
      "d": 215.27756250000675,
      "v": 65
    },
    {
      "midi": 69,
      "hit": false,
      "t": 209534.51268750156,
      "d": 180.55537499999627,
      "v": 80
    },
    {
      "midi": 73,
      "hit": false,
      "t": 209534.51268750156,
      "d": 194.44425000000047,
      "v": 71
    },
    {
      "midi": 73,
      "hit": false,
      "t": 209659.51256250255,
      "d": 145.8331874999858,
      "v": 16
    },
    {
      "midi": 66,
      "hit": false,
      "t": 209826.17906250255,
      "d": 340.27743749998626,
      "v": 15
    },
    {
      "midi": 78,
      "hit": false,
      "t": 209826.17906250255,
      "d": 340.27743749998626,
      "v": 17
    },
    {
      "midi": 73,
      "hit": false,
      "t": 209833.12350000156,
      "d": 90.27768749999814,
      "v": 71
    },
    {
      "midi": 69,
      "hit": false,
      "t": 209833.12350000156,
      "d": 104.16656250000233,
      "v": 81
    },
    {
      "midi": 69,
      "hit": false,
      "t": 209999.79000000155,
      "d": 173.61093749999418,
      "v": 85
    },
    {
      "midi": 76,
      "hit": false,
      "t": 210006.73443750155,
      "d": 187.49981249999837,
      "v": 80
    },
    {
      "midi": 73,
      "hit": false,
      "t": 210006.73443750155,
      "d": 194.44425000000047,
      "v": 73
    },
    {
      "midi": 69,
      "hit": false,
      "t": 210166.45650000253,
      "d": 131.9443125000107,
      "v": 21
    },
    {
      "midi": 76,
      "hit": false,
      "t": 210326.17856250156,
      "d": 173.61093749999418,
      "v": 84
    },
    {
      "midi": 69,
      "hit": false,
      "t": 210326.17856250156,
      "d": 194.44425000000047,
      "v": 94
    },
    {
      "midi": 73,
      "hit": false,
      "t": 210326.17856250156,
      "d": 201.38868750000256,
      "v": 80
    },
    {
      "midi": 73,
      "hit": false,
      "t": 210326.17856250255,
      "d": 111.11100000000442,
      "v": 16
    },
    {
      "midi": 78,
      "hit": false,
      "t": 210472.01175000257,
      "d": 90.27768749999814,
      "v": 18
    },
    {
      "midi": 66,
      "hit": false,
      "t": 210492.84506250257,
      "d": 83.33324999999604,
      "v": 16
    },
    {
      "midi": 69,
      "hit": false,
      "t": 210645.62268750157,
      "d": 319.4441250000091,
      "v": 90
    },
    {
      "midi": 73,
      "hit": false,
      "t": 210652.56712500157,
      "d": 340.27743750001537,
      "v": 73
    },
    {
      "midi": 78,
      "hit": false,
      "t": 210659.51156250158,
      "d": 326.3885625000112,
      "v": 69
    },
    {
      "midi": 64,
      "hit": false,
      "t": 210666.45600000257,
      "d": 312.499687500007,
      "v": 16
    },
    {
      "midi": 76,
      "hit": false,
      "t": 210666.45600000257,
      "d": 340.27743750001537,
      "v": 18
    },
    {
      "midi": 69,
      "hit": false,
      "t": 210978.95568750257,
      "d": 159.7220625000191,
      "v": 21
    },
    {
      "midi": 73,
      "hit": false,
      "t": 211152.5666250026,
      "d": 284.7219374999986,
      "v": 18
    },
    {
      "midi": 73,
      "hit": false,
      "t": 211159.51106250158,
      "d": 83.33324999999604,
      "v": 65
    },
    {
      "midi": 69,
      "hit": false,
      "t": 211166.45550000158,
      "d": 69.44437499999185,
      "v": 64
    },
    {
      "midi": 69,
      "hit": false,
      "t": 211319.23312500157,
      "d": 194.44425000000047,
      "v": 77
    },
    {
      "midi": 76,
      "hit": false,
      "t": 211319.23312500157,
      "d": 229.16643750001094,
      "v": 76
    },
    {
      "midi": 73,
      "hit": false,
      "t": 211326.17756250157,
      "d": 201.38868750000256,
      "v": 68
    },
    {
      "midi": 78,
      "hit": false,
      "t": 211478.9551875026,
      "d": 194.44425000000047,
      "v": 17
    },
    {
      "midi": 66,
      "hit": false,
      "t": 211492.8440625026,
      "d": 187.49981249999837,
      "v": 16
    },
    {
      "midi": 76,
      "hit": false,
      "t": 211659.5105625016,
      "d": 173.61093749999418,
      "v": 82
    },
    {
      "midi": 69,
      "hit": false,
      "t": 211659.5105625016,
      "d": 194.44425000000047,
      "v": 84
    },
    {
      "midi": 73,
      "hit": false,
      "t": 211666.4550000016,
      "d": 152.7776249999879,
      "v": 72
    },
    {
      "midi": 59,
      "hit": false,
      "t": 211826.1770625026,
      "d": 347.22187499998836,
      "v": 17
    },
    {
      "midi": 72,
      "hit": false,
      "t": 211847.0103750026,
      "d": 145.8331874999858,
      "v": 18
    },
    {
      "midi": 71,
      "hit": false,
      "t": 211847.0103750026,
      "d": 361.11074999999255,
      "v": 18
    },
    {
      "midi": 71,
      "hit": false,
      "t": 211985.8991250016,
      "d": 722.2215000000142,
      "v": 90
    },
    {
      "midi": 74,
      "hit": false,
      "t": 211992.8435625016,
      "d": 743.0548125000205,
      "v": 94
    },
    {
      "midi": 64,
      "hit": false,
      "t": 212180.3433750026,
      "d": 138.8887500000128,
      "v": 17
    },
    {
      "midi": 68,
      "hit": false,
      "t": 212340.0654375026,
      "d": 111.11100000000442,
      "v": 18
    },
    {
      "midi": 61,
      "hit": false,
      "t": 212485.89862500262,
      "d": 90.27768749999814,
      "v": 14
    },
    {
      "midi": 73,
      "hit": false,
      "t": 212492.84306250262,
      "d": 69.44437499999185,
      "v": 14
    },
    {
      "midi": 59,
      "hit": false,
      "t": 212666.45400000262,
      "d": 166.66649999999208,
      "v": 15
    },
    {
      "midi": 71,
      "hit": false,
      "t": 212666.45400000262,
      "d": 215.27756250000675,
      "v": 20
    },
    {
      "midi": 64,
      "hit": false,
      "t": 212840.0649375026,
      "d": 138.8887500000128,
      "v": 19
    },
    {
      "midi": 76,
      "hit": false,
      "t": 212972.00925000163,
      "d": 104.16656250000233,
      "v": 84
    },
    {
      "midi": 71,
      "hit": false,
      "t": 212978.95368750163,
      "d": 97.22212500000023,
      "v": 80
    },
    {
      "midi": 68,
      "hit": false,
      "t": 212999.78700000263,
      "d": 104.16656250000233,
      "v": 18
    },
    {
      "midi": 71,
      "hit": false,
      "t": 213159.50906250163,
      "d": 249.99974999998813,
      "v": 73
    },
    {
      "midi": 76,
      "hit": false,
      "t": 213166.45350000163,
      "d": 249.99974999998813,
      "v": 89
    },
    {
      "midi": 80,
      "hit": false,
      "t": 213166.45350000163,
      "d": 256.9441874999902,
      "v": 67
    },
    {
      "midi": 73,
      "hit": false,
      "t": 213166.45350000262,
      "d": 69.44437499999185,
      "v": 13
    },
    {
      "midi": 61,
      "hit": false,
      "t": 213173.39793750262,
      "d": 76.38881249999395,
      "v": 11
    },
    {
      "midi": 71,
      "hit": false,
      "t": 213340.06443750262,
      "d": 374.99962499999674,
      "v": 19
    },
    {
      "midi": 59,
      "hit": false,
      "t": 213347.00887500262,
      "d": 312.499687500007,
      "v": 16
    },
    {
      "midi": 76,
      "hit": false,
      "t": 213506.73093750162,
      "d": 215.27756250000675,
      "v": 94
    },
    {
      "midi": 71,
      "hit": false,
      "t": 213506.73093750162,
      "d": 222.22200000000885,
      "v": 84
    },
    {
      "midi": 80,
      "hit": false,
      "t": 213506.73093750162,
      "d": 236.11087500001304,
      "v": 82
    },
    {
      "midi": 64,
      "hit": false,
      "t": 213666.45300000263,
      "d": 152.7776249999879,
      "v": 18
    },
    {
      "midi": 80,
      "hit": false,
      "t": 213805.34175000162,
      "d": 118.05543750000652,
      "v": 74
    },
    {
      "midi": 71,
      "hit": false,
      "t": 213812.28618750162,
      "d": 104.16656250000233,
      "v": 84
    },
    {
      "midi": 76,
      "hit": false,
      "t": 213819.23062500163,
      "d": 83.33324999999604,
      "v": 93
    },
    {
      "midi": 68,
      "hit": false,
      "t": 213867.8416875026,
      "d": 277.7774999999965,
      "v": 17
    },
    {
      "midi": 71,
      "hit": false,
      "t": 213985.89712500162,
      "d": 229.16643750001094,
      "v": 80
    },
    {
      "midi": 80,
      "hit": false,
      "t": 213985.89712500162,
      "d": 249.99975000001723,
      "v": 76
    },
    {
      "midi": 76,
      "hit": false,
      "t": 213992.84156250162,
      "d": 222.22200000000885,
      "v": 89
    },
    {
      "midi": 61,
      "hit": false,
      "t": 214152.5636250026,
      "d": 201.38868750000256,
      "v": 14
    },
    {
      "midi": 73,
      "hit": false,
      "t": 214152.5636250026,
      "d": 222.22200000000885,
      "v": 16
    },
    {
      "midi": 78,
      "hit": false,
      "t": 214312.28568750163,
      "d": 104.16656250000233,
      "v": 65
    },
    {
      "midi": 71,
      "hit": false,
      "t": 214333.11900000164,
      "d": 90.27768749999814,
      "v": 69
    },
    {
      "midi": 64,
      "hit": false,
      "t": 214478.9521875026,
      "d": 298.6108125000028,
      "v": 16
    },
    {
      "midi": 76,
      "hit": false,
      "t": 214478.9521875026,
      "d": 361.11075000002165,
      "v": 20
    },
    {
      "midi": 78,
      "hit": false,
      "t": 214506.72993750163,
      "d": 194.44425000000047,
      "v": 84
    },
    {
      "midi": 71,
      "hit": false,
      "t": 214506.72993750163,
      "d": 201.38868750000256,
      "v": 89
    },
    {
      "midi": 69,
      "hit": false,
      "t": 214812.28518750262,
      "d": 145.8331875000149,
      "v": 20
    },
    {
      "midi": 69,
      "hit": false,
      "t": 214840.06293750164,
      "d": 1999.9980000000214,
      "v": 89
    },
    {
      "midi": 73,
      "hit": false,
      "t": 214847.00737500165,
      "d": 1999.9980000000214,
      "v": 63
    },
    {
      "midi": 76,
      "hit": false,
      "t": 214874.78512500165,
      "d": 2006.9424375000235,
      "v": 58
    },
    {
      "midi": 73,
      "hit": false,
      "t": 214985.89612500265,
      "d": 159.72206249999,
      "v": 18
    },
    {
      "midi": 66,
      "hit": false,
      "t": 215145.61818750264,
      "d": 347.22187499998836,
      "v": 15
    },
    {
      "midi": 78,
      "hit": false,
      "t": 215145.61818750264,
      "d": 361.11074999999255,
      "v": 18
    },
    {
      "midi": 69,
      "hit": false,
      "t": 215485.89562500262,
      "d": 131.9443125000107,
      "v": 22
    },
    {
      "midi": 73,
      "hit": false,
      "t": 215652.56212500265,
      "d": 111.11100000000442,
      "v": 16
    },
    {
      "midi": 78,
      "hit": false,
      "t": 215784.50643750266,
      "d": 97.22212500000023,
      "v": 16
    },
    {
      "midi": 66,
      "hit": false,
      "t": 215805.33975000266,
      "d": 83.33324999999604,
      "v": 15
    },
    {
      "midi": 64,
      "hit": false,
      "t": 215985.89512500266,
      "d": 326.3885625000112,
      "v": 16
    },
    {
      "midi": 76,
      "hit": false,
      "t": 215985.89512500266,
      "d": 374.99962500002584,
      "v": 19
    },
    {
      "midi": 69,
      "hit": false,
      "t": 216326.17256250267,
      "d": 173.61093750002328,
      "v": 20
    },
    {
      "midi": 73,
      "hit": false,
      "t": 216527.5612500027,
      "d": 305.5552500000049,
      "v": 17
    },
    {
      "midi": 78,
      "hit": false,
      "t": 216847.00537500271,
      "d": 187.49981249999837,
      "v": 17
    },
    {
      "midi": 66,
      "hit": false,
      "t": 216853.94981250272,
      "d": 194.44425000000047,
      "v": 16
    },
    {
      "midi": 59,
      "hit": false,
      "t": 217173.39393750273,
      "d": 326.3885625000112,
      "v": 19
    },
    {
      "midi": 71,
      "hit": false,
      "t": 217180.33837500273,
      "d": 388.88850000000093,
      "v": 20
    },
    {
      "midi": 64,
      "hit": false,
      "t": 217506.72693750274,
      "d": 152.7776249999879,
      "v": 19
    },
    {
      "midi": 68,
      "hit": false,
      "t": 217680.33787500273,
      "d": 104.16656250000233,
      "v": 18
    },
    {
      "midi": 61,
      "hit": false,
      "t": 217819.22662500275,
      "d": 83.33324999999604,
      "v": 15
    },
    {
      "midi": 73,
      "hit": false,
      "t": 217819.22662500275,
      "d": 83.33324999999604,
      "v": 17
    },
    {
      "midi": 59,
      "hit": false,
      "t": 217992.83756250274,
      "d": 159.72206249999,
      "v": 15
    },
    {
      "midi": 71,
      "hit": false,
      "t": 217999.78200000274,
      "d": 194.44425000000047,
      "v": 20
    },
    {
      "midi": 64,
      "hit": false,
      "t": 218152.55962500273,
      "d": 131.9443125000107,
      "v": 18
    },
    {
      "midi": 68,
      "hit": false,
      "t": 218326.17056250275,
      "d": 97.22212500000023,
      "v": 16
    },
    {
      "midi": 73,
      "hit": false,
      "t": 218492.83706250275,
      "d": 90.27768749999814,
      "v": 13
    },
    {
      "midi": 61,
      "hit": false,
      "t": 218506.72593750275,
      "d": 97.22212500000023,
      "v": 13
    },
    {
      "midi": 59,
      "hit": false,
      "t": 218680.33687500274,
      "d": 284.7219374999986,
      "v": 18
    },
    {
      "midi": 71,
      "hit": false,
      "t": 218680.33687500274,
      "d": 347.22187500001746,
      "v": 20
    },
    {
      "midi": 64,
      "hit": false,
      "t": 218985.89212500275,
      "d": 145.8331875000149,
      "v": 18
    },
    {
      "midi": 68,
      "hit": false,
      "t": 219187.28081250275,
      "d": 298.6108125000028,
      "v": 18
    },
    {
      "midi": 61,
      "hit": false,
      "t": 219499.78050000276,
      "d": 180.55537499999627,
      "v": 14
    },
    {
      "midi": 73,
      "hit": false,
      "t": 219506.72493750276,
      "d": 194.44425000000047,
      "v": 15
    },
    {
      "midi": 76,
      "hit": false,
      "t": 219798.39131250276,
      "d": 395.832937500003,
      "v": 19
    },
    {
      "midi": 64,
      "hit": false,
      "t": 219805.33575000276,
      "d": 354.16631249999045,
      "v": 17
    },
    {
      "midi": 69,
      "hit": false,
      "t": 220166.44650000276,
      "d": 138.8887500000128,
      "v": 21
    },
    {
      "midi": 73,
      "hit": false,
      "t": 220326.16856250277,
      "d": 145.8331874999858,
      "v": 17
    },
    {
      "midi": 66,
      "hit": false,
      "t": 220499.77950000277,
      "d": 340.27743749998626,
      "v": 16
    },
    {
      "midi": 78,
      "hit": false,
      "t": 220499.77950000277,
      "d": 368.05518749999464,
      "v": 18
    },
    {
      "midi": 69,
      "hit": false,
      "t": 220840.05693750276,
      "d": 118.05543750000652,
      "v": 20
    },
    {
      "midi": 73,
      "hit": false,
      "t": 221013.66787500275,
      "d": 90.27768749999814,
      "v": 15
    },
    {
      "midi": 78,
      "hit": false,
      "t": 221145.61218750276,
      "d": 97.22212500000023,
      "v": 18
    },
    {
      "midi": 66,
      "hit": false,
      "t": 221159.50106250276,
      "d": 90.27768749999814,
      "v": 13
    },
    {
      "midi": 76,
      "hit": false,
      "t": 221333.11200000276,
      "d": 340.27743750001537,
      "v": 19
    },
    {
      "midi": 64,
      "hit": false,
      "t": 221347.00087500276,
      "d": 270.8330624999944,
      "v": 17
    },
    {
      "midi": 69,
      "hit": false,
      "t": 221645.61168750277,
      "d": 152.777625000017,
      "v": 20
    },
    {
      "midi": 73,
      "hit": false,
      "t": 221840.0559375028,
      "d": 312.499687500007,
      "v": 17
    },
    {
      "midi": 78,
      "hit": false,
      "t": 222166.4445000028,
      "d": 159.72206249999,
      "v": 18
    },
    {
      "midi": 66,
      "hit": false,
      "t": 222180.3333750028,
      "d": 159.72206249999,
      "v": 14
    },
    {
      "midi": 59,
      "hit": false,
      "t": 222506.7219375028,
      "d": 305.5552500000049,
      "v": 16
    },
    {
      "midi": 71,
      "hit": false,
      "t": 222506.7219375028,
      "d": 361.11075000002165,
      "v": 19
    },
    {
      "midi": 64,
      "hit": false,
      "t": 222840.0549375028,
      "d": 145.8331875000149,
      "v": 16
    },
    {
      "midi": 68,
      "hit": false,
      "t": 222999.77700000282,
      "d": 111.11100000000442,
      "v": 18
    },
    {
      "midi": 73,
      "hit": false,
      "t": 223173.38793750282,
      "d": 69.44437499999185,
      "v": 15
    },
    {
      "midi": 61,
      "hit": false,
      "t": 223173.38793750282,
      "d": 83.33324999999604,
      "v": 14
    },
    {
      "midi": 59,
      "hit": false,
      "t": 223340.0544375028,
      "d": 159.72206249999,
      "v": 16
    },
    {
      "midi": 71,
      "hit": false,
      "t": 223340.0544375028,
      "d": 173.61093749999418,
      "v": 19
    },
    {
      "midi": 64,
      "hit": false,
      "t": 223499.7765000028,
      "d": 124.99987500000861,
      "v": 18
    },
    {
      "midi": 68,
      "hit": false,
      "t": 223652.55412500282,
      "d": 104.16656250000233,
      "v": 19
    },
    {
      "midi": 73,
      "hit": false,
      "t": 223819.2206250028,
      "d": 83.33324999999604,
      "v": 17
    },
    {
      "midi": 61,
      "hit": false,
      "t": 223819.2206250028,
      "d": 97.22212500000023,
      "v": 15
    },
    {
      "midi": 59,
      "hit": false,
      "t": 223999.7760000028,
      "d": 319.4441250000091,
      "v": 16
    },
    {
      "midi": 71,
      "hit": false,
      "t": 223999.7760000028,
      "d": 361.11075000002165,
      "v": 20
    },
    {
      "midi": 64,
      "hit": false,
      "t": 224326.16456250282,
      "d": 159.7220625000191,
      "v": 18
    },
    {
      "midi": 68,
      "hit": false,
      "t": 224513.66437500285,
      "d": 305.5552500000049,
      "v": 19
    },
    {
      "midi": 61,
      "hit": false,
      "t": 224833.10850000285,
      "d": 152.7776249999879,
      "v": 14
    },
    {
      "midi": 73,
      "hit": false,
      "t": 224833.10850000285,
      "d": 201.38868749997346,
      "v": 15
    },
    {
      "midi": 76,
      "hit": false,
      "t": 225159.49706250284,
      "d": 361.11075000002165,
      "v": 19
    },
    {
      "midi": 64,
      "hit": false,
      "t": 225166.44150000284,
      "d": 326.3885625000112,
      "v": 17
    },
    {
      "midi": 69,
      "hit": false,
      "t": 225499.77450000285,
      "d": 152.777625000017,
      "v": 21
    },
    {
      "midi": 73,
      "hit": false,
      "t": 225673.38543750287,
      "d": 138.8887500000128,
      "v": 16
    },
    {
      "midi": 78,
      "hit": false,
      "t": 225833.1075000029,
      "d": 368.05518750002375,
      "v": 20
    },
    {
      "midi": 66,
      "hit": false,
      "t": 225840.0519375029,
      "d": 340.27743750001537,
      "v": 17
    },
    {
      "midi": 69,
      "hit": false,
      "t": 226159.4960625029,
      "d": 138.8887500000128,
      "v": 22
    },
    {
      "midi": 73,
      "hit": false,
      "t": 226340.05143750293,
      "d": 104.16656250000233,
      "v": 16
    },
    {
      "midi": 78,
      "hit": false,
      "t": 226485.88462500295,
      "d": 76.38881249999395,
      "v": 17
    },
    {
      "midi": 66,
      "hit": false,
      "t": 226492.82906250295,
      "d": 76.38881249999395,
      "v": 15
    },
    {
      "midi": 76,
      "hit": false,
      "t": 226659.49556250294,
      "d": 347.22187500001746,
      "v": 20
    },
    {
      "midi": 64,
      "hit": false,
      "t": 226666.44000000294,
      "d": 270.8330624999944,
      "v": 16
    },
    {
      "midi": 69,
      "hit": false,
      "t": 226965.05081250294,
      "d": 159.7220625000191,
      "v": 20
    },
    {
      "midi": 73,
      "hit": false,
      "t": 227180.32837500295,
      "d": 277.7774999999965,
      "v": 15
    },
    {
      "midi": 78,
      "hit": false,
      "t": 227499.77250000296,
      "d": 138.8887500000128,
      "v": 16
    },
    {
      "midi": 66,
      "hit": false,
      "t": 227506.71693750296,
      "d": 166.6665000000212,
      "v": 15
    },
    {
      "midi": 71,
      "hit": false,
      "t": 227833.10550000297,
      "d": 374.99962499999674,
      "v": 17
    },
    {
      "midi": 59,
      "hit": false,
      "t": 227840.04993750298,
      "d": 319.4441250000091,
      "v": 16
    },
    {
      "midi": 64,
      "hit": false,
      "t": 228159.49406250298,
      "d": 138.8887499999837,
      "v": 18
    },
    {
      "midi": 68,
      "hit": false,
      "t": 228319.21612500297,
      "d": 118.05543750000652,
      "v": 19
    },
    {
      "midi": 73,
      "hit": false,
      "t": 228478.938187503,
      "d": 69.44437499999185,
      "v": 15
    },
    {
      "midi": 61,
      "hit": false,
      "t": 228485.882625003,
      "d": 76.38881249999395,
      "v": 13
    },
    {
      "midi": 71,
      "hit": false,
      "t": 228652.549125003,
      "d": 236.11087500001304,
      "v": 19
    },
    {
      "midi": 59,
      "hit": false,
      "t": 228659.493562503,
      "d": 159.72206249999,
      "v": 15
    },
    {
      "midi": 64,
      "hit": false,
      "t": 228853.937812503,
      "d": 124.99987500000861,
      "v": 15
    },
    {
      "midi": 68,
      "hit": false,
      "t": 229034.493187503,
      "d": 83.33324999999604,
      "v": 18
    },
    {
      "midi": 61,
      "hit": false,
      "t": 229187.27081250297,
      "d": 62.499937499989755,
      "v": 12
    },
    {
      "midi": 73,
      "hit": false,
      "t": 229194.21525000298,
      "d": 48.611062499985565,
      "v": 11
    },
    {
      "midi": 71,
      "hit": false,
      "t": 229353.93731250297,
      "d": 333.33300000001327,
      "v": 19
    },
    {
      "midi": 59,
      "hit": false,
      "t": 229360.88175000297,
      "d": 277.7774999999965,
      "v": 14
    },
    {
      "midi": 64,
      "hit": false,
      "t": 229652.54812500297,
      "d": 180.55537499999627,
      "v": 18
    },
    {
      "midi": 68,
      "hit": false,
      "t": 229853.93681250297,
      "d": 298.6108125000028,
      "v": 18
    },
    {
      "midi": 61,
      "hit": false,
      "t": 230180.32537500298,
      "d": 180.55537499999627,
      "v": 15
    },
    {
      "midi": 73,
      "hit": false,
      "t": 230187.269812503,
      "d": 187.49981249999837,
      "v": 15
    },
    {
      "midi": 64,
      "hit": false,
      "t": 230492.825062503,
      "d": 312.499687500007,
      "v": 17
    },
    {
      "midi": 76,
      "hit": false,
      "t": 230492.825062503,
      "d": 354.16631250001956,
      "v": 20
    },
    {
      "midi": 69,
      "hit": false,
      "t": 230826.158062503,
      "d": 145.8331875000149,
      "v": 20
    },
    {
      "midi": 73,
      "hit": false,
      "t": 230992.82456250302,
      "d": 152.7776249999879,
      "v": 17
    },
    {
      "midi": 78,
      "hit": false,
      "t": 231159.49106250302,
      "d": 354.16631249999045,
      "v": 19
    },
    {
      "midi": 66,
      "hit": false,
      "t": 231166.43550000302,
      "d": 340.27743749998626,
      "v": 17
    },
    {
      "midi": 69,
      "hit": false,
      "t": 231506.712937503,
      "d": 124.99987500000861,
      "v": 20
    },
    {
      "midi": 73,
      "hit": false,
      "t": 231666.43500000302,
      "d": 118.05543750000652,
      "v": 17
    },
    {
      "midi": 78,
      "hit": false,
      "t": 231812.26818750304,
      "d": 83.33324999999604,
      "v": 17
    },
    {
      "midi": 66,
      "hit": false,
      "t": 231833.10150000305,
      "d": 69.44437499999185,
      "v": 13
    },
    {
      "midi": 76,
      "hit": false,
      "t": 231992.82356250304,
      "d": 381.94406250002794,
      "v": 19
    },
    {
      "midi": 64,
      "hit": false,
      "t": 231999.76800000304,
      "d": 319.4441250000091,
      "v": 16
    },
    {
      "midi": 69,
      "hit": false,
      "t": 232340.04543750305,
      "d": 145.8331875000149,
      "v": 19
    },
    {
      "midi": 73,
      "hit": false,
      "t": 232499.76750000307,
      "d": 319.4441250000091,
      "v": 18
    },
    {
      "midi": 78,
      "hit": false,
      "t": 232833.1005000031,
      "d": 180.55537499999627,
      "v": 18
    },
    {
      "midi": 66,
      "hit": false,
      "t": 232840.0449375031,
      "d": 173.61093749999418,
      "v": 15
    },
    {
      "midi": 59,
      "hit": false,
      "t": 233173.37793750307,
      "d": 305.5552500000049,
      "v": 18
    },
    {
      "midi": 71,
      "hit": false,
      "t": 233173.37793750307,
      "d": 354.16631250001956,
      "v": 19
    },
    {
      "midi": 64,
      "hit": false,
      "t": 233506.71093750309,
      "d": 131.9443125000107,
      "v": 18
    },
    {
      "midi": 68,
      "hit": false,
      "t": 233659.4885625031,
      "d": 124.99987500000861,
      "v": 17
    },
    {
      "midi": 73,
      "hit": false,
      "t": 233819.21062500312,
      "d": 90.27768749999814,
      "v": 16
    },
    {
      "midi": 61,
      "hit": false,
      "t": 233833.09950000313,
      "d": 97.22212500000023,
      "v": 14
    },
    {
      "midi": 59,
      "hit": false,
      "t": 234013.65487500312,
      "d": 145.8331874999858,
      "v": 16
    },
    {
      "midi": 71,
      "hit": false,
      "t": 234013.65487500312,
      "d": 173.61093749999418,
      "v": 20
    },
    {
      "midi": 64,
      "hit": false,
      "t": 234173.3769375031,
      "d": 124.99987500000861,
      "v": 18
    },
    {
      "midi": 68,
      "hit": false,
      "t": 234333.09900000313,
      "d": 118.05543750000652,
      "v": 19
    },
    {
      "midi": 73,
      "hit": false,
      "t": 234499.76550000312,
      "d": 83.33324999999604,
      "v": 14
    },
    {
      "midi": 61,
      "hit": false,
      "t": 234506.70993750312,
      "d": 90.27768749999814,
      "v": 11
    },
    {
      "midi": 59,
      "hit": false,
      "t": 234687.26531250312,
      "d": 263.8886249999923,
      "v": 17
    },
    {
      "midi": 71,
      "hit": false,
      "t": 234687.26531250312,
      "d": 319.4441250000091,
      "v": 20
    },
    {
      "midi": 64,
      "hit": false,
      "t": 234971.98725000312,
      "d": 152.777625000017,
      "v": 18
    },
    {
      "midi": 68,
      "hit": false,
      "t": 235166.43150000315,
      "d": 319.4441250000091,
      "v": 19
    },
    {
      "midi": 61,
      "hit": false,
      "t": 235499.76450000316,
      "d": 194.44425000000047,
      "v": 14
    },
    {
      "midi": 73,
      "hit": false,
      "t": 235506.70893750316,
      "d": 194.44425000000047,
      "v": 16
    },
    {
      "midi": 64,
      "hit": false,
      "t": 235826.15306250317,
      "d": 312.499687500007,
      "v": 15
    },
    {
      "midi": 76,
      "hit": false,
      "t": 235826.15306250317,
      "d": 354.16631250001956,
      "v": 19
    },
    {
      "midi": 69,
      "hit": false,
      "t": 236152.54162500318,
      "d": 145.8331875000149,
      "v": 19
    },
    {
      "midi": 73,
      "hit": false,
      "t": 236312.2636875032,
      "d": 152.7776249999879,
      "v": 17
    },
    {
      "midi": 78,
      "hit": false,
      "t": 236471.9857500032,
      "d": 361.11074999999255,
      "v": 18
    },
    {
      "midi": 66,
      "hit": false,
      "t": 236485.8746250032,
      "d": 361.11074999999255,
      "v": 15
    },
    {
      "midi": 69,
      "hit": false,
      "t": 236833.0965000032,
      "d": 138.8887500000128,
      "v": 20
    },
    {
      "midi": 73,
      "hit": false,
      "t": 237006.7074375032,
      "d": 111.11100000000442,
      "v": 15
    },
    {
      "midi": 78,
      "hit": false,
      "t": 237159.48506250323,
      "d": 76.38881249999395,
      "v": 15
    },
    {
      "midi": 66,
      "hit": false,
      "t": 237159.48506250323,
      "d": 83.33324999999604,
      "v": 16
    },
    {
      "midi": 76,
      "hit": false,
      "t": 237333.09600000322,
      "d": 340.27743750001537,
      "v": 19
    },
    {
      "midi": 64,
      "hit": false,
      "t": 237340.04043750322,
      "d": 291.6663750000007,
      "v": 16
    },
    {
      "midi": 69,
      "hit": false,
      "t": 237659.48456250323,
      "d": 159.72206249999,
      "v": 20
    },
    {
      "midi": 73,
      "hit": false,
      "t": 237867.8176875032,
      "d": 277.7774999999965,
      "v": 16
    },
    {
      "midi": 66,
      "hit": false,
      "t": 238180.31737500321,
      "d": 138.8887500000128,
      "v": 15
    },
    {
      "midi": 78,
      "hit": false,
      "t": 238180.31737500321,
      "d": 138.8887500000128,
      "v": 17
    },
    {
      "midi": 71,
      "hit": false,
      "t": 238492.81706250322,
      "d": 368.05518750002375,
      "v": 18
    },
    {
      "midi": 59,
      "hit": false,
      "t": 238499.76150000322,
      "d": 340.27743750001537,
      "v": 16
    },
    {
      "midi": 64,
      "hit": false,
      "t": 238826.15006250323,
      "d": 138.8887500000128,
      "v": 18
    },
    {
      "midi": 68,
      "hit": false,
      "t": 238978.92768750325,
      "d": 118.05543750000652,
      "v": 19
    },
    {
      "midi": 61,
      "hit": false,
      "t": 239152.53862500325,
      "d": 90.27768749999814,
      "v": 14
    },
    {
      "midi": 73,
      "hit": false,
      "t": 239166.42750000325,
      "d": 69.44437499999185,
      "v": 14
    },
    {
      "midi": 71,
      "hit": false,
      "t": 239326.14956250324,
      "d": 187.49981249999837,
      "v": 20
    },
    {
      "midi": 59,
      "hit": false,
      "t": 239333.09400000324,
      "d": 145.8331874999858,
      "v": 15
    },
    {
      "midi": 64,
      "hit": false,
      "t": 239478.92718750323,
      "d": 138.8887500000128,
      "v": 18
    },
    {
      "midi": 68,
      "hit": false,
      "t": 239645.59368750325,
      "d": 104.16656250000233,
      "v": 17
    },
    {
      "midi": 61,
      "hit": false,
      "t": 239812.26018750324,
      "d": 83.33324999999604,
      "v": 15
    },
    {
      "midi": 73,
      "hit": false,
      "t": 239819.20462500324,
      "d": 76.38881249999395,
      "v": 16
    },
    {
      "midi": 71,
      "hit": false,
      "t": 239999.76000000324,
      "d": 354.16631249999045,
      "v": 20
    },
    {
      "midi": 59,
      "hit": false,
      "t": 240006.70443750324,
      "d": 263.8886249999923,
      "v": 15
    },
    {
      "midi": 64,
      "hit": false,
      "t": 240326.14856250322,
      "d": 166.6665000000212,
      "v": 18
    },
    {
      "midi": 68,
      "hit": false,
      "t": 240506.70393750325,
      "d": 298.6108125000028,
      "v": 18
    },
    {
      "midi": 61,
      "hit": false,
      "t": 240826.14806250326,
      "d": 180.55537499999627,
      "v": 16
    },
    {
      "midi": 73,
      "hit": false,
      "t": 240833.09250000326,
      "d": 208.33312500000466,
      "v": 17
    },
    {
      "midi": 76,
      "hit": false,
      "t": 241159.48106250327,
      "d": 368.05518750002375,
      "v": 19
    },
    {
      "midi": 64,
      "hit": false,
      "t": 241166.42550000327,
      "d": 291.6663750000007,
      "v": 15
    },
    {
      "midi": 69,
      "hit": false,
      "t": 241492.81406250328,
      "d": 145.8331875000149,
      "v": 19
    },
    {
      "midi": 73,
      "hit": false,
      "t": 241659.4805625033,
      "d": 145.8331874999858,
      "v": 15
    },
    {
      "midi": 66,
      "hit": false,
      "t": 241819.2026250033,
      "d": 340.27743750001537,
      "v": 15
    },
    {
      "midi": 78,
      "hit": false,
      "t": 241833.0915000033,
      "d": 340.27743750001537,
      "v": 16
    },
    {
      "midi": 69,
      "hit": false,
      "t": 242152.5356250033,
      "d": 124.99987500000861,
      "v": 22
    },
    {
      "midi": 73,
      "hit": false,
      "t": 242326.1465625033,
      "d": 97.22212500000023,
      "v": 15
    },
    {
      "midi": 78,
      "hit": false,
      "t": 242471.9797500033,
      "d": 97.22212500000023,
      "v": 17
    },
    {
      "midi": 66,
      "hit": false,
      "t": 242485.8686250033,
      "d": 83.33324999999604,
      "v": 13
    },
    {
      "midi": 76,
      "hit": false,
      "t": 242666.4240000033,
      "d": 340.27743750001537,
      "v": 19
    },
    {
      "midi": 64,
      "hit": false,
      "t": 242673.3684375033,
      "d": 312.499687500007,
      "v": 16
    },
    {
      "midi": 69,
      "hit": false,
      "t": 242999.7570000033,
      "d": 138.8887500000128,
      "v": 20
    },
    {
      "midi": 73,
      "hit": false,
      "t": 243194.2012500033,
      "d": 270.8330624999944,
      "v": 16
    },
    {
      "midi": 78,
      "hit": false,
      "t": 243492.8120625033,
      "d": 159.72206249999,
      "v": 18
    },
    {
      "midi": 66,
      "hit": false,
      "t": 243492.8120625033,
      "d": 180.55537499999627,
      "v": 15
    },
    {
      "midi": 59,
      "hit": false,
      "t": 243846.9783750033,
      "d": 291.6663750000007,
      "v": 17
    },
    {
      "midi": 71,
      "hit": false,
      "t": 243846.9783750033,
      "d": 347.22187500001746,
      "v": 19
    },
    {
      "midi": 64,
      "hit": false,
      "t": 244152.5336250033,
      "d": 138.8887500000128,
      "v": 17
    },
    {
      "midi": 68,
      "hit": false,
      "t": 244326.14456250332,
      "d": 138.8887500000128,
      "v": 18
    },
    {
      "midi": 61,
      "hit": false,
      "t": 244492.81106250334,
      "d": 305.5552500000049,
      "v": 14
    },
    {
      "midi": 73,
      "hit": false,
      "t": 244492.81106250334,
      "d": 326.3885625000112,
      "v": 18
    },
    {
      "midi": 64,
      "hit": false,
      "t": 244826.14406250336,
      "d": 131.9443125000107,
      "v": 16
    },
    {
      "midi": 68,
      "hit": false,
      "t": 245006.69943750335,
      "d": 90.27768749999814,
      "v": 15
    },
    {
      "midi": 73,
      "hit": false,
      "t": 245124.75487500336,
      "d": 90.27768749999814,
      "v": 15
    },
    {
      "midi": 61,
      "hit": false,
      "t": 245152.53262500337,
      "d": 83.33324999999604,
      "v": 14
    },
    {
      "midi": 71,
      "hit": false,
      "t": 245326.14356250336,
      "d": 347.22187499998836,
      "v": 18
    },
    {
      "midi": 59,
      "hit": false,
      "t": 245333.08800000336,
      "d": 277.7774999999965,
      "v": 15
    },
    {
      "midi": 64,
      "hit": false,
      "t": 245666.42100000335,
      "d": 152.7776249999879,
      "v": 18
    },
    {
      "midi": 68,
      "hit": false,
      "t": 245860.86525000335,
      "d": 270.8330624999944,
      "v": 18
    },
    {
      "midi": 61,
      "hit": false,
      "t": 246166.42050000335,
      "d": 180.55537499999627,
      "v": 13
    },
    {
      "midi": 73,
      "hit": false,
      "t": 246173.36493750336,
      "d": 201.38868750000256,
      "v": 15
    },
    {
      "midi": 76,
      "hit": false,
      "t": 246492.80906250337,
      "d": 347.22187500001746,
      "v": 18
    },
    {
      "midi": 64,
      "hit": false,
      "t": 246499.75350000337,
      "d": 305.5552500000049,
      "v": 16
    },
    {
      "midi": 69,
      "hit": false,
      "t": 246826.14206250338,
      "d": 131.9443125000107,
      "v": 19
    },
    {
      "midi": 73,
      "hit": false,
      "t": 246992.8085625034,
      "d": 90.27768749999814,
      "v": 14
    },
    {
      "midi": 78,
      "hit": false,
      "t": 247152.5306250034,
      "d": 83.33324999999604,
      "v": 17
    },
    {
      "midi": 66,
      "hit": false,
      "t": 247159.4750625034,
      "d": 69.44437499999185,
      "v": 12
    },
    {
      "midi": 64,
      "hit": false,
      "t": 247333.0860000034,
      "d": 187.49981249999837,
      "v": 16
    },
    {
      "midi": 76,
      "hit": false,
      "t": 247333.0860000034,
      "d": 229.16643750001094,
      "v": 18
    },
    {
      "midi": 69,
      "hit": false,
      "t": 247534.4746875034,
      "d": 104.16656250000233,
      "v": 21
    },
    {
      "midi": 73,
      "hit": false,
      "t": 247687.25231250338,
      "d": 97.22212500000023,
      "v": 16
    },
    {
      "midi": 78,
      "hit": false,
      "t": 247833.08550000336,
      "d": 62.499937499989755,
      "v": 17
    },
    {
      "midi": 66,
      "hit": false,
      "t": 247840.02993750336,
      "d": 62.499937499989755,
      "v": 14
    },
    {
      "midi": 76,
      "hit": false,
      "t": 247992.80756250335,
      "d": 333.33300000001327,
      "v": 19
    },
    {
      "midi": 64,
      "hit": false,
      "t": 247999.75200000335,
      "d": 291.6663750000007,
      "v": 16
    },
    {
      "midi": 69,
      "hit": false,
      "t": 248298.36281250336,
      "d": 152.777625000017,
      "v": 19
    },
    {
      "midi": 73,
      "hit": false,
      "t": 248492.8070625034,
      "d": 284.7219374999986,
      "v": 16
    },
    {
      "midi": 78,
      "hit": false,
      "t": 248812.2511875034,
      "d": 187.49981249999837,
      "v": 16
    },
    {
      "midi": 66,
      "hit": false,
      "t": 248826.1400625034,
      "d": 180.55537499999627,
      "v": 14
    },
    {
      "midi": 59,
      "hit": false,
      "t": 249166.4175000034,
      "d": 305.5552500000049,
      "v": 13
    },
    {
      "midi": 72,
      "hit": false,
      "t": 249180.3063750034,
      "d": 201.38868750000256,
      "v": 17
    },
    {
      "midi": 71,
      "hit": false,
      "t": 249180.3063750034,
      "d": 326.3885625000112,
      "v": 18
    },
    {
      "midi": 64,
      "hit": false,
      "t": 249499.7505000034,
      "d": 131.9443125000107,
      "v": 19
    },
    {
      "midi": 68,
      "hit": false,
      "t": 249673.36143750342,
      "d": 104.16656250000233,
      "v": 19
    },
    {
      "midi": 73,
      "hit": false,
      "t": 249826.1390625034,
      "d": 298.6108125000028,
      "v": 17
    },
    {
      "midi": 61,
      "hit": false,
      "t": 249826.1390625034,
      "d": 319.4441250000091,
      "v": 18
    },
    {
      "midi": 64,
      "hit": false,
      "t": 250180.30537500343,
      "d": 90.27768749999814,
      "v": 17
    },
    {
      "midi": 68,
      "hit": false,
      "t": 250340.02743750342,
      "d": 48.611062499985565,
      "v": 13
    },
    {
      "midi": 73,
      "hit": false,
      "t": 250478.9161875034,
      "d": 83.33324999999604,
      "v": 15
    },
    {
      "midi": 61,
      "hit": false,
      "t": 250492.8050625034,
      "d": 76.38881249999395,
      "v": 8
    },
    {
      "midi": 59,
      "hit": false,
      "t": 250680.3048750034,
      "d": 298.6108125000028,
      "v": 17
    },
    {
      "midi": 71,
      "hit": false,
      "t": 250687.2493125034,
      "d": 340.27743749998626,
      "v": 17
    },
    {
      "midi": 64,
      "hit": false,
      "t": 250978.9156875034,
      "d": 166.66649999999208,
      "v": 18
    },
    {
      "midi": 68,
      "hit": false,
      "t": 251173.3599375034,
      "d": 277.7774999999965,
      "v": 18
    },
    {
      "midi": 73,
      "hit": false,
      "t": 251478.91518750341,
      "d": 215.27756250000675,
      "v": 17
    },
    {
      "midi": 61,
      "hit": false,
      "t": 251485.85962500342,
      "d": 187.49981249999837,
      "v": 16
    },
    {
      "midi": 76,
      "hit": false,
      "t": 251805.30375000343,
      "d": 381.94406250002794,
      "v": 18
    },
    {
      "midi": 64,
      "hit": false,
      "t": 251819.19262500343,
      "d": 284.7219374999986,
      "v": 14
    },
    {
      "midi": 69,
      "hit": false,
      "t": 252145.58118750344,
      "d": 159.7220625000191,
      "v": 19
    },
    {
      "midi": 73,
      "hit": false,
      "t": 252312.24768750346,
      "d": 145.8331874999858,
      "v": 16
    },
    {
      "midi": 78,
      "hit": false,
      "t": 252485.85862500346,
      "d": 340.27743750001537,
      "v": 17
    },
    {
      "midi": 66,
      "hit": false,
      "t": 252499.74750000346,
      "d": 326.3885625000112,
      "v": 15
    },
    {
      "midi": 69,
      "hit": false,
      "t": 252826.13606250347,
      "d": 131.9443125000107,
      "v": 22
    },
    {
      "midi": 73,
      "hit": false,
      "t": 252985.8581250035,
      "d": 118.05543750000652,
      "v": 16
    },
    {
      "midi": 78,
      "hit": false,
      "t": 253145.5801875035,
      "d": 76.38881249999395,
      "v": 17
    },
    {
      "midi": 66,
      "hit": false,
      "t": 253152.5246250035,
      "d": 76.38881249999395,
      "v": 16
    },
    {
      "midi": 76,
      "hit": false,
      "t": 253326.1355625035,
      "d": 354.16631250001956,
      "v": 19
    },
    {
      "midi": 64,
      "hit": false,
      "t": 253333.0800000035,
      "d": 284.7219374999986,
      "v": 15
    },
    {
      "midi": 69,
      "hit": false,
      "t": 253659.46856250352,
      "d": 152.777625000017,
      "v": 20
    },
    {
      "midi": 73,
      "hit": false,
      "t": 253826.13506250354,
      "d": 312.499687500007,
      "v": 15
    },
    {
      "midi": 78,
      "hit": false,
      "t": 254159.46806250355,
      "d": 173.61093749999418,
      "v": 18
    },
    {
      "midi": 66,
      "hit": false,
      "t": 254166.41250000356,
      "d": 173.61093749999418,
      "v": 16
    },
    {
      "midi": 59,
      "hit": false,
      "t": 254499.74550000354,
      "d": 340.27743749998626,
      "v": 17
    },
    {
      "midi": 72,
      "hit": false,
      "t": 254513.63437500354,
      "d": 152.7776249999879,
      "v": 17
    },
    {
      "midi": 71,
      "hit": false,
      "t": 254513.63437500354,
      "d": 374.99962499996764,
      "v": 17
    },
    {
      "midi": 64,
      "hit": false,
      "t": 254840.02293750353,
      "d": 152.7776249999879,
      "v": 19
    },
    {
      "midi": 68,
      "hit": false,
      "t": 255006.68943750352,
      "d": 111.11100000000442,
      "v": 18
    },
    {
      "midi": 73,
      "hit": false,
      "t": 255159.46706250354,
      "d": 69.44437499999185,
      "v": 17
    },
    {
      "midi": 61,
      "hit": false,
      "t": 255159.46706250354,
      "d": 90.27768749999814,
      "v": 18
    },
    {
      "midi": 71,
      "hit": false,
      "t": 255319.18912500353,
      "d": 229.16643750001094,
      "v": 19
    },
    {
      "midi": 59,
      "hit": false,
      "t": 255326.13356250353,
      "d": 180.55537499999627,
      "v": 15
    },
    {
      "midi": 64,
      "hit": false,
      "t": 255520.57781250353,
      "d": 138.8887500000128,
      "v": 19
    },
    {
      "midi": 68,
      "hit": false,
      "t": 255680.29987500355,
      "d": 97.22212500000023,
      "v": 18
    },
    {
      "midi": 61,
      "hit": false,
      "t": 255826.13306250353,
      "d": 97.22212500000023,
      "v": 13
    },
    {
      "midi": 73,
      "hit": false,
      "t": 255833.07750000354,
      "d": 83.33324999999604,
      "v": 15
    },
    {
      "midi": 59,
      "hit": false,
      "t": 255999.74400000353,
      "d": 291.6663750000007,
      "v": 16
    },
    {
      "midi": 71,
      "hit": false,
      "t": 255999.74400000353,
      "d": 361.11075000002165,
      "v": 20
    },
    {
      "midi": 64,
      "hit": false,
      "t": 256326.13256250354,
      "d": 145.8331875000149,
      "v": 17
    },
    {
      "midi": 68,
      "hit": false,
      "t": 256499.74350000356,
      "d": 305.5552500000049,
      "v": 19
    },
    {
      "midi": 61,
      "hit": false,
      "t": 256840.02093750358,
      "d": 159.72206249999,
      "v": 14
    },
    {
      "midi": 73,
      "hit": false,
      "t": 256853.90981250358,
      "d": 173.61093749999418,
      "v": 16
    },
    {
      "midi": 76,
      "hit": false,
      "t": 257152.52062500358,
      "d": 395.832937500003,
      "v": 19
    },
    {
      "midi": 64,
      "hit": false,
      "t": 257159.4650625036,
      "d": 347.22187499998836,
      "v": 15
    },
    {
      "midi": 69,
      "hit": false,
      "t": 257499.74250000357,
      "d": 145.8331875000149,
      "v": 21
    },
    {
      "midi": 73,
      "hit": false,
      "t": 257659.4645625036,
      "d": 159.72206249999,
      "v": 17
    },
    {
      "midi": 66,
      "hit": false,
      "t": 257833.0755000036,
      "d": 347.22187499998836,
      "v": 16
    },
    {
      "midi": 78,
      "hit": false,
      "t": 257840.0199375036,
      "d": 347.22187499998836,
      "v": 18
    },
    {
      "midi": 69,
      "hit": false,
      "t": 258180.29737500357,
      "d": 131.9443125000107,
      "v": 19
    },
    {
      "midi": 73,
      "hit": false,
      "t": 258298.35281250166,
      "d": 451.3884375000198,
      "v": 76
    },
    {
      "midi": 69,
      "hit": false,
      "t": 258305.29725000166,
      "d": 444.4440000000177,
      "v": 73
    },
    {
      "midi": 73,
      "hit": false,
      "t": 258346.9638750036,
      "d": 104.16656250000233,
      "v": 14
    },
    {
      "midi": 78,
      "hit": false,
      "t": 258471.9637500036,
      "d": 97.22212500000023,
      "v": 15
    },
    {
      "midi": 66,
      "hit": false,
      "t": 258492.7970625036,
      "d": 104.16656250000233,
      "v": 14
    },
    {
      "midi": 76,
      "hit": false,
      "t": 258534.46368750167,
      "d": 222.22200000000885,
      "v": 81
    },
    {
      "midi": 64,
      "hit": false,
      "t": 258680.2968750036,
      "d": 277.7774999999965,
      "v": 15
    },
    {
      "midi": 76,
      "hit": false,
      "t": 258680.2968750036,
      "d": 340.27743750001537,
      "v": 19
    },
    {
      "midi": 69,
      "hit": false,
      "t": 258840.01893750168,
      "d": 215.27756250000675,
      "v": 89
    },
    {
      "midi": 76,
      "hit": false,
      "t": 258840.01893750168,
      "d": 222.22200000000885,
      "v": 89
    },
    {
      "midi": 73,
      "hit": false,
      "t": 258853.90781250168,
      "d": 194.44425000000047,
      "v": 78
    },
    {
      "midi": 69,
      "hit": false,
      "t": 258985.8521250036,
      "d": 159.7220625000191,
      "v": 20
    },
    {
      "midi": 76,
      "hit": false,
      "t": 259145.57418750168,
      "d": 55.55549999998766,
      "v": 86
    },
    {
      "midi": 73,
      "hit": false,
      "t": 259145.57418750168,
      "d": 62.499937499989755,
      "v": 76
    },
    {
      "midi": 69,
      "hit": false,
      "t": 259152.51862500168,
      "d": 55.55549999998766,
      "v": 80
    },
    {
      "midi": 73,
      "hit": false,
      "t": 259180.29637500364,
      "d": 312.499687500007,
      "v": 18
    },
    {
      "midi": 78,
      "hit": false,
      "t": 259333.07400000168,
      "d": 215.27756250000675,
      "v": 94
    },
    {
      "midi": 73,
      "hit": false,
      "t": 259333.07400000168,
      "d": 236.11087500001304,
      "v": 82
    },
    {
      "midi": 69,
      "hit": false,
      "t": 259340.01843750168,
      "d": 208.33312500000466,
      "v": 86
    },
    {
      "midi": 78,
      "hit": false,
      "t": 259520.57381250366,
      "d": 152.777625000017,
      "v": 16
    },
    {
      "midi": 66,
      "hit": false,
      "t": 259534.46268750366,
      "d": 159.7220625000191,
      "v": 15
    },
    {
      "midi": 78,
      "hit": false,
      "t": 259645.5736875017,
      "d": 55.555500000016764,
      "v": 86
    },
    {
      "midi": 73,
      "hit": false,
      "t": 259645.5736875017,
      "d": 62.49993750001886,
      "v": 77
    },
    {
      "midi": 69,
      "hit": false,
      "t": 259652.5181250017,
      "d": 41.66662500001257,
      "v": 77
    },
    {
      "midi": 80,
      "hit": false,
      "t": 259833.07350000172,
      "d": 1020.8323124999879,
      "v": 73
    },
    {
      "midi": 71,
      "hit": false,
      "t": 259840.01793750172,
      "d": 1048.6100624999963,
      "v": 82
    },
    {
      "midi": 76,
      "hit": false,
      "t": 259846.96237500172,
      "d": 958.3323749999981,
      "v": 68
    },
    {
      "midi": 59,
      "hit": false,
      "t": 259846.96237500367,
      "d": 305.5552500000049,
      "v": 18
    },
    {
      "midi": 71,
      "hit": false,
      "t": 259846.96237500367,
      "d": 368.05518749999464,
      "v": 19
    },
    {
      "midi": 64,
      "hit": false,
      "t": 260166.40650000368,
      "d": 145.8331874999858,
      "v": 18
    },
    {
      "midi": 68,
      "hit": false,
      "t": 260340.01743750367,
      "d": 97.22212500000023,
      "v": 17
    },
    {
      "midi": 61,
      "hit": false,
      "t": 260485.85062500366,
      "d": 83.33324999999604,
      "v": 16
    },
    {
      "midi": 73,
      "hit": false,
      "t": 260499.73950000366,
      "d": 62.499937499989755,
      "v": 15
    },
    {
      "midi": 59,
      "hit": false,
      "t": 260666.40600000366,
      "d": 145.8331874999858,
      "v": 17
    },
    {
      "midi": 71,
      "hit": false,
      "t": 260666.40600000366,
      "d": 173.61093749999418,
      "v": 19
    },
    {
      "midi": 64,
      "hit": false,
      "t": 260812.23918750364,
      "d": 138.8887500000128,
      "v": 18
    },
    {
      "midi": 71,
      "hit": false,
      "t": 260985.8501250017,
      "d": 131.9443125000107,
      "v": 85
    },
    {
      "midi": 74,
      "hit": false,
      "t": 260992.79456250172,
      "d": 124.99987500000861,
      "v": 84
    },
    {
      "midi": 68,
      "hit": false,
      "t": 260992.79456250367,
      "d": 118.05543750000652,
      "v": 18
    },
    {
      "midi": 61,
      "hit": false,
      "t": 261152.5166250037,
      "d": 83.33324999999604,
      "v": 15
    },
    {
      "midi": 73,
      "hit": false,
      "t": 261159.4610625037,
      "d": 69.44437499999185,
      "v": 16
    },
    {
      "midi": 71,
      "hit": false,
      "t": 261201.12768750172,
      "d": 208.33312500000466,
      "v": 90
    },
    {
      "midi": 74,
      "hit": false,
      "t": 261208.07212500172,
      "d": 194.44425000000047,
      "v": 99
    },
    {
      "midi": 78,
      "hit": false,
      "t": 261208.07212500172,
      "d": 215.27756250000675,
      "v": 84
    },
    {
      "midi": 59,
      "hit": false,
      "t": 261340.01643750368,
      "d": 291.6663750000007,
      "v": 18
    },
    {
      "midi": 71,
      "hit": false,
      "t": 261340.01643750368,
      "d": 354.16631250001956,
      "v": 20
    },
    {
      "midi": 71,
      "hit": false,
      "t": 261513.62737500173,
      "d": 201.38868750000256,
      "v": 94
    },
    {
      "midi": 78,
      "hit": false,
      "t": 261520.57181250173,
      "d": 187.49981249999837,
      "v": 89
    },
    {
      "midi": 74,
      "hit": false,
      "t": 261527.51625000173,
      "d": 187.49981249999837,
      "v": 98
    },
    {
      "midi": 64,
      "hit": false,
      "t": 261659.4605625037,
      "d": 187.49981249999837,
      "v": 19
    },
    {
      "midi": 71,
      "hit": false,
      "t": 261833.07150000174,
      "d": 83.33324999999604,
      "v": 76
    },
    {
      "midi": 74,
      "hit": false,
      "t": 261833.07150000174,
      "d": 83.33324999999604,
      "v": 84
    },
    {
      "midi": 78,
      "hit": false,
      "t": 261846.96037500174,
      "d": 55.55549999998766,
      "v": 63
    },
    {
      "midi": 68,
      "hit": false,
      "t": 261867.7936875037,
      "d": 291.6663750000007,
      "v": 19
    },
    {
      "midi": 80,
      "hit": false,
      "t": 262013.62687500173,
      "d": 236.11087499998393,
      "v": 84
    },
    {
      "midi": 74,
      "hit": false,
      "t": 262020.57131250174,
      "d": 201.38868749997346,
      "v": 98
    },
    {
      "midi": 71,
      "hit": false,
      "t": 262027.51575000174,
      "d": 194.44424999997136,
      "v": 98
    },
    {
      "midi": 61,
      "hit": false,
      "t": 262187.2378125037,
      "d": 173.61093750002328,
      "v": 14
    },
    {
      "midi": 73,
      "hit": false,
      "t": 262187.2378125037,
      "d": 187.49981250002747,
      "v": 15
    },
    {
      "midi": 80,
      "hit": false,
      "t": 262298.3488125017,
      "d": 90.27768749993993,
      "v": 84
    },
    {
      "midi": 71,
      "hit": false,
      "t": 262312.2376875017,
      "d": 69.44437499996275,
      "v": 89
    },
    {
      "midi": 74,
      "hit": false,
      "t": 262326.1265625017,
      "d": 34.72218749998137,
      "v": 85
    },
    {
      "midi": 64,
      "hit": false,
      "t": 262485.8486250037,
      "d": 326.3885625000112,
      "v": 16
    },
    {
      "midi": 76,
      "hit": false,
      "t": 262485.8486250037,
      "d": 374.99962499999674,
      "v": 20
    },
    {
      "midi": 76,
      "hit": false,
      "t": 262506.68193750165,
      "d": 923.6101874999586,
      "v": 76
    },
    {
      "midi": 81,
      "hit": false,
      "t": 262506.68193750165,
      "d": 937.4990624999627,
      "v": 98
    },
    {
      "midi": 73,
      "hit": false,
      "t": 262527.5152500016,
      "d": 888.8879999999772,
      "v": 68
    },
    {
      "midi": 69,
      "hit": false,
      "t": 262826.1260625037,
      "d": 173.61093749996508,
      "v": 19
    },
    {
      "midi": 73,
      "hit": false,
      "t": 262999.7370000037,
      "d": 152.7776249999879,
      "v": 17
    },
    {
      "midi": 66,
      "hit": false,
      "t": 263159.45906250365,
      "d": 333.33299999998417,
      "v": 17
    },
    {
      "midi": 78,
      "hit": false,
      "t": 263159.45906250365,
      "d": 388.88850000000093,
      "v": 17
    },
    {
      "midi": 69,
      "hit": false,
      "t": 263485.84762500366,
      "d": 145.8331875000149,
      "v": 22
    },
    {
      "midi": 73,
      "hit": false,
      "t": 263631.68081250164,
      "d": 138.8887499999255,
      "v": 74
    },
    {
      "midi": 69,
      "hit": false,
      "t": 263638.6252500016,
      "d": 111.11099999997532,
      "v": 65
    },
    {
      "midi": 73,
      "hit": false,
      "t": 263659.4585625037,
      "d": 104.16656250000233,
      "v": 15
    },
    {
      "midi": 78,
      "hit": false,
      "t": 263805.2917500037,
      "d": 97.22212499997113,
      "v": 16
    },
    {
      "midi": 66,
      "hit": false,
      "t": 263812.2361875037,
      "d": 97.22212499997113,
      "v": 15
    },
    {
      "midi": 76,
      "hit": false,
      "t": 263846.95837500156,
      "d": 187.49981249996927,
      "v": 84
    },
    {
      "midi": 69,
      "hit": false,
      "t": 263853.90281250153,
      "d": 138.8887499999837,
      "v": 84
    },
    {
      "midi": 73,
      "hit": false,
      "t": 263853.90281250153,
      "d": 180.55537499999627,
      "v": 74
    },
    {
      "midi": 76,
      "hit": false,
      "t": 264006.6804375036,
      "d": 388.88850000000093,
      "v": 19
    },
    {
      "midi": 64,
      "hit": false,
      "t": 264020.5693125036,
      "d": 305.5552499999758,
      "v": 15
    },
    {
      "midi": 69,
      "hit": false,
      "t": 264145.5691875015,
      "d": 180.55537499999627,
      "v": 85
    },
    {
      "midi": 73,
      "hit": false,
      "t": 264152.5136250015,
      "d": 194.44425000000047,
      "v": 77
    },
    {
      "midi": 76,
      "hit": false,
      "t": 264152.5136250015,
      "d": 194.44425000000047,
      "v": 80
    },
    {
      "midi": 69,
      "hit": false,
      "t": 264353.9023125036,
      "d": 173.61093750002328,
      "v": 19
    },
    {
      "midi": 76,
      "hit": false,
      "t": 264458.06887500145,
      "d": 55.555500000016764,
      "v": 81
    },
    {
      "midi": 69,
      "hit": false,
      "t": 264458.06887500145,
      "d": 62.499937499989755,
      "v": 80
    },
    {
      "midi": 73,
      "hit": false,
      "t": 264458.06887500145,
      "d": 62.499937499989755,
      "v": 65
    },
    {
      "midi": 73,
      "hit": false,
      "t": 264548.3465625036,
      "d": 319.44412499998,
      "v": 17
    },
    {
      "midi": 78,
      "hit": false,
      "t": 264638.62425000145,
      "d": 215.27756249997765,
      "v": 93
    },
    {
      "midi": 69,
      "hit": false,
      "t": 264645.5686875014,
      "d": 187.49981250002747,
      "v": 86
    },
    {
      "midi": 73,
      "hit": false,
      "t": 264645.5686875014,
      "d": 229.16643749998184,
      "v": 70
    },
    {
      "midi": 78,
      "hit": false,
      "t": 264867.7906875036,
      "d": 173.61093750002328,
      "v": 17
    },
    {
      "midi": 66,
      "hit": false,
      "t": 264867.7906875036,
      "d": 187.49981250002747,
      "v": 15
    },
    {
      "midi": 73,
      "hit": false,
      "t": 264965.0128125014,
      "d": 76.38881249993574,
      "v": 72
    },
    {
      "midi": 69,
      "hit": false,
      "t": 264978.9016875014,
      "d": 34.72218749998137,
      "v": 72
    },
    {
      "midi": 78,
      "hit": false,
      "t": 264978.9016875014,
      "d": 55.555499999958556,
      "v": 81
    },
    {
      "midi": 76,
      "hit": false,
      "t": 265159.45706250134,
      "d": 1006.9434374999837,
      "v": 94
    },
    {
      "midi": 71,
      "hit": false,
      "t": 265166.4015000013,
      "d": 999.9990000000107,
      "v": 77
    },
    {
      "midi": 80,
      "hit": false,
      "t": 265166.4015000013,
      "d": 1013.8878750000149,
      "v": 74
    },
    {
      "midi": 59,
      "hit": false,
      "t": 265201.1236875036,
      "d": 298.6108125000028,
      "v": 17
    },
    {
      "midi": 71,
      "hit": false,
      "t": 265201.1236875036,
      "d": 361.11074999999255,
      "v": 19
    },
    {
      "midi": 64,
      "hit": false,
      "t": 265513.62337500363,
      "d": 152.7776249999879,
      "v": 18
    },
    {
      "midi": 68,
      "hit": false,
      "t": 265680.2898750036,
      "d": 138.8887499999837,
      "v": 18
    },
    {
      "midi": 61,
      "hit": false,
      "t": 265846.9563750036,
      "d": 305.5552499999758,
      "v": 15
    },
    {
      "midi": 73,
      "hit": false,
      "t": 265853.9008125036,
      "d": 319.44412499998,
      "v": 17
    },
    {
      "midi": 64,
      "hit": false,
      "t": 266159.45606250357,
      "d": 145.8331875000149,
      "v": 18
    },
    {
      "midi": 80,
      "hit": false,
      "t": 266312.23368750134,
      "d": 111.11099999997532,
      "v": 89
    },
    {
      "midi": 71,
      "hit": false,
      "t": 266333.0670000013,
      "d": 83.33325000002515,
      "v": 76
    },
    {
      "midi": 68,
      "hit": false,
      "t": 266333.0670000036,
      "d": 118.05543750000652,
      "v": 18
    },
    {
      "midi": 73,
      "hit": false,
      "t": 266485.8446250036,
      "d": 76.38881249999395,
      "v": 14
    },
    {
      "midi": 61,
      "hit": false,
      "t": 266492.78906250355,
      "d": 76.38881249999395,
      "v": 9
    },
    {
      "midi": 83,
      "hit": false,
      "t": 266513.6223750013,
      "d": 208.33312500000466,
      "v": 85
    },
    {
      "midi": 71,
      "hit": false,
      "t": 266527.5112500013,
      "d": 173.61093750002328,
      "v": 73
    },
    {
      "midi": 59,
      "hit": false,
      "t": 266673.34443750355,
      "d": 312.499687500007,
      "v": 16
    },
    {
      "midi": 71,
      "hit": false,
      "t": 266673.34443750355,
      "d": 361.11074999999255,
      "v": 20
    },
    {
      "midi": 78,
      "hit": false,
      "t": 266819.1776250013,
      "d": 215.27756249997765,
      "v": 89
    },
    {
      "midi": 71,
      "hit": false,
      "t": 266833.0665000013,
      "d": 201.38868749997346,
      "v": 74
    },
    {
      "midi": 64,
      "hit": false,
      "t": 267006.67743750353,
      "d": 180.55537499999627,
      "v": 17
    },
    {
      "midi": 78,
      "hit": false,
      "t": 267124.73287500127,
      "d": 104.16656250000233,
      "v": 82
    },
    {
      "midi": 71,
      "hit": false,
      "t": 267138.6217500013,
      "d": 104.16656250000233,
      "v": 77
    },
    {
      "midi": 68,
      "hit": false,
      "t": 267194.1772500035,
      "d": 319.44412499998,
      "v": 19
    },
    {
      "midi": 71,
      "hit": false,
      "t": 267319.17712500127,
      "d": 222.22200000000885,
      "v": 85
    },
    {
      "midi": 80,
      "hit": false,
      "t": 267319.17712500127,
      "d": 222.22200000000885,
      "v": 84
    },
    {
      "midi": 61,
      "hit": false,
      "t": 267527.5102500035,
      "d": 145.8331875000149,
      "v": 13
    },
    {
      "midi": 73,
      "hit": false,
      "t": 267527.5102500035,
      "d": 173.61093750002328,
      "v": 14
    },
    {
      "midi": 80,
      "hit": false,
      "t": 267631.6768125013,
      "d": 76.38881249999395,
      "v": 84
    },
    {
      "midi": 71,
      "hit": false,
      "t": 267645.5656875013,
      "d": 62.499937499989755,
      "v": 89
    },
    {
      "midi": 64,
      "hit": false,
      "t": 267798.3433125035,
      "d": 319.44412499998,
      "v": 16
    },
    {
      "midi": 76,
      "hit": false,
      "t": 267798.3433125035,
      "d": 381.94406249996973,
      "v": 20
    },
    {
      "midi": 76,
      "hit": false,
      "t": 267833.06550000125,
      "d": 687.4993124999455,
      "v": 84
    },
    {
      "midi": 81,
      "hit": false,
      "t": 267833.06550000125,
      "d": 687.4993124999455,
      "v": 90
    },
    {
      "midi": 73,
      "hit": false,
      "t": 267840.0099375012,
      "d": 708.3326249999809,
      "v": 67
    },
    {
      "midi": 69,
      "hit": false,
      "t": 268152.50962500344,
      "d": 159.7220625000191,
      "v": 20
    },
    {
      "midi": 73,
      "hit": false,
      "t": 268319.17612500343,
      "d": 138.8887499999837,
      "v": 17
    },
    {
      "midi": 66,
      "hit": false,
      "t": 268485.8426250034,
      "d": 333.33299999998417,
      "v": 15
    },
    {
      "midi": 78,
      "hit": false,
      "t": 268499.7315000034,
      "d": 340.27743749995716,
      "v": 16
    },
    {
      "midi": 78,
      "hit": false,
      "t": 268666.3980000012,
      "d": 236.11087499995483,
      "v": 76
    },
    {
      "midi": 73,
      "hit": false,
      "t": 268673.3424375012,
      "d": 249.99974999995902,
      "v": 52
    },
    {
      "midi": 69,
      "hit": false,
      "t": 268819.1756250034,
      "d": 138.8887499999837,
      "v": 20
    },
    {
      "midi": 78,
      "hit": false,
      "t": 268985.84212500113,
      "d": 270.8330624999944,
      "v": 81
    },
    {
      "midi": 73,
      "hit": false,
      "t": 269006.6754375011,
      "d": 222.22200000000885,
      "v": 73
    },
    {
      "midi": 73,
      "hit": false,
      "t": 269006.6754375034,
      "d": 111.11099999997532,
      "v": 15
    },
    {
      "midi": 78,
      "hit": false,
      "t": 269166.39750000334,
      "d": 69.44437499996275,
      "v": 17
    },
    {
      "midi": 66,
      "hit": false,
      "t": 269173.3419375033,
      "d": 69.44437499996275,
      "v": 15
    },
    {
      "midi": 73,
      "hit": false,
      "t": 269326.11956250115,
      "d": 354.16631250001956,
      "v": 80
    },
    {
      "midi": 78,
      "hit": false,
      "t": 269326.11956250115,
      "d": 423.6106875000405,
      "v": 89
    },
    {
      "midi": 64,
      "hit": false,
      "t": 269340.00843750325,
      "d": 243.05531249998603,
      "v": 17
    },
    {
      "midi": 76,
      "hit": false,
      "t": 269340.00843750325,
      "d": 312.499687500007,
      "v": 20
    },
    {
      "midi": 69,
      "hit": false,
      "t": 269638.61925000325,
      "d": 138.8887499999837,
      "v": 22
    },
    {
      "midi": 76,
      "hit": false,
      "t": 269805.2857500012,
      "d": 83.33324999996694,
      "v": 94
    },
    {
      "midi": 73,
      "hit": false,
      "t": 269812.2301875012,
      "d": 83.33324999996694,
      "v": 62
    },
    {
      "midi": 73,
      "hit": false,
      "t": 269812.2301875032,
      "d": 319.44412499998,
      "v": 17
    },
    {
      "midi": 80,
      "hit": false,
      "t": 269978.89668750117,
      "d": 249.99975000001723,
      "v": 80
    },
    {
      "midi": 73,
      "hit": false,
      "t": 269992.7855625012,
      "d": 222.22200000000885,
      "v": 80
    },
    {
      "midi": 78,
      "hit": false,
      "t": 270152.50762500317,
      "d": 166.66649999999208,
      "v": 18
    },
    {
      "midi": 66,
      "hit": false,
      "t": 270166.3965000032,
      "d": 166.66649999999208,
      "v": 15
    },
    {
      "midi": 78,
      "hit": false,
      "t": 270305.2852500012,
      "d": 83.33324999996694,
      "v": 84
    },
    {
      "midi": 73,
      "hit": false,
      "t": 270312.22968750115,
      "d": 104.16656250000233,
      "v": 68
    },
    {
      "midi": 76,
      "hit": false,
      "t": 270478.89618750114,
      "d": 173.61093750002328,
      "v": 98
    },
    {
      "midi": 73,
      "hit": false,
      "t": 270478.89618750114,
      "d": 194.44425000000047,
      "v": 73
    },
    {
      "midi": 71,
      "hit": false,
      "t": 270485.84062500315,
      "d": 361.11074999993434,
      "v": 19
    },
    {
      "midi": 59,
      "hit": false,
      "t": 270492.7850625031,
      "d": 291.6663749999716,
      "v": 17
    },
    {
      "midi": 71,
      "hit": false,
      "t": 270812.2291875011,
      "d": 701.3881875000079,
      "v": 94
    },
    {
      "midi": 74,
      "hit": false,
      "t": 270812.2291875011,
      "d": 701.3881875000079,
      "v": 98
    },
    {
      "midi": 64,
      "hit": false,
      "t": 270812.2291875031,
      "d": 152.7776249999879,
      "v": 18
    },
    {
      "midi": 68,
      "hit": false,
      "t": 270978.8956875031,
      "d": 118.05543750000652,
      "v": 18
    },
    {
      "midi": 61,
      "hit": false,
      "t": 271145.5621875031,
      "d": 83.33324999996694,
      "v": 15
    },
    {
      "midi": 73,
      "hit": false,
      "t": 271152.50662500306,
      "d": 76.38881249999395,
      "v": 15
    },
    {
      "midi": 71,
      "hit": false,
      "t": 271326.11756250303,
      "d": 215.27756249991944,
      "v": 19
    },
    {
      "midi": 59,
      "hit": false,
      "t": 271333.062000003,
      "d": 166.66649999999208,
      "v": 15
    },
    {
      "midi": 64,
      "hit": false,
      "t": 271506.67293750297,
      "d": 138.8887499999837,
      "v": 18
    },
    {
      "midi": 71,
      "hit": false,
      "t": 271645.56168750115,
      "d": 97.22212499997113,
      "v": 65
    },
    {
      "midi": 76,
      "hit": false,
      "t": 271645.56168750115,
      "d": 97.22212499997113,
      "v": 80
    },
    {
      "midi": 68,
      "hit": false,
      "t": 271673.33943750296,
      "d": 97.22212499997113,
      "v": 17
    },
    {
      "midi": 61,
      "hit": false,
      "t": 271826.11706250295,
      "d": 83.33324999996694,
      "v": 15
    },
    {
      "midi": 71,
      "hit": false,
      "t": 271833.0615000011,
      "d": 208.33312499994645,
      "v": 76
    },
    {
      "midi": 80,
      "hit": false,
      "t": 271833.0615000011,
      "d": 215.27756249991944,
      "v": 78
    },
    {
      "midi": 73,
      "hit": false,
      "t": 271833.0615000029,
      "d": 69.44437500002095,
      "v": 15
    },
    {
      "midi": 76,
      "hit": false,
      "t": 271840.0059375011,
      "d": 208.33312499994645,
      "v": 89
    },
    {
      "midi": 71,
      "hit": false,
      "t": 271999.7280000029,
      "d": 361.11074999999255,
      "v": 18
    },
    {
      "midi": 59,
      "hit": false,
      "t": 272006.6724375029,
      "d": 284.7219374999986,
      "v": 15
    },
    {
      "midi": 71,
      "hit": false,
      "t": 272159.450062501,
      "d": 208.33312500000466,
      "v": 84
    },
    {
      "midi": 76,
      "hit": false,
      "t": 272159.450062501,
      "d": 208.33312500000466,
      "v": 90
    },
    {
      "midi": 80,
      "hit": false,
      "t": 272159.450062501,
      "d": 215.27756249997765,
      "v": 80
    },
    {
      "midi": 64,
      "hit": false,
      "t": 272319.1721250029,
      "d": 173.61093750002328,
      "v": 18
    },
    {
      "midi": 71,
      "hit": false,
      "t": 272458.060875001,
      "d": 118.05543749994831,
      "v": 80
    },
    {
      "midi": 76,
      "hit": false,
      "t": 272465.005312501,
      "d": 104.16656250000233,
      "v": 89
    },
    {
      "midi": 80,
      "hit": false,
      "t": 272465.005312501,
      "d": 104.16656250000233,
      "v": 78
    },
    {
      "midi": 68,
      "hit": false,
      "t": 272513.6163750029,
      "d": 326.3885625000112,
      "v": 19
    },
    {
      "midi": 71,
      "hit": false,
      "t": 272652.50512500096,
      "d": 236.11087499995483,
      "v": 84
    },
    {
      "midi": 76,
      "hit": false,
      "t": 272652.50512500096,
      "d": 236.11087499995483,
      "v": 89
    },
    {
      "midi": 80,
      "hit": false,
      "t": 272659.44956250093,
      "d": 236.11087499995483,
      "v": 81
    },
    {
      "midi": 61,
      "hit": false,
      "t": 272860.8382500029,
      "d": 152.7776249999879,
      "v": 13
    },
    {
      "midi": 73,
      "hit": false,
      "t": 272860.8382500029,
      "d": 180.55537499999627,
      "v": 13
    },
    {
      "midi": 78,
      "hit": false,
      "t": 272971.9492500009,
      "d": 97.22212500002934,
      "v": 76
    },
    {
      "midi": 71,
      "hit": false,
      "t": 272985.8381250009,
      "d": 104.16656250000233,
      "v": 74
    },
    {
      "midi": 76,
      "hit": false,
      "t": 273159.4490625029,
      "d": 354.16631249996135,
      "v": 19
    },
    {
      "midi": 78,
      "hit": false,
      "t": 273173.3379375009,
      "d": 201.38868749997346,
      "v": 85
    },
    {
      "midi": 71,
      "hit": false,
      "t": 273173.3379375009,
      "d": 236.11087499995483,
      "v": 89
    },
    {
      "midi": 64,
      "hit": false,
      "t": 273173.3379375029,
      "d": 291.6663749999716,
      "v": 13
    },
    {
      "midi": 69,
      "hit": false,
      "t": 273492.78206250287,
      "d": 159.72206249996088,
      "v": 20
    },
    {
      "midi": 76,
      "hit": false,
      "t": 273513.61537500087,
      "d": 395.8329374999157,
      "v": 86
    },
    {
      "midi": 69,
      "hit": false,
      "t": 273520.55981250084,
      "d": 347.22187499998836,
      "v": 84
    },
    {
      "midi": 73,
      "hit": false,
      "t": 273527.5042500008,
      "d": 374.99962499999674,
      "v": 73
    },
    {
      "midi": 73,
      "hit": false,
      "t": 273673.3374375028,
      "d": 145.8331875000149,
      "v": 17
    },
    {
      "midi": 78,
      "hit": false,
      "t": 273840.0039375028,
      "d": 333.33299999992596,
      "v": 15
    },
    {
      "midi": 66,
      "hit": false,
      "t": 273846.9483750028,
      "d": 284.7219374999986,
      "v": 13
    },
    {
      "midi": 73,
      "hit": false,
      "t": 274041.3926250008,
      "d": 208.33312500000466,
      "v": 80
    },
    {
      "midi": 78,
      "hit": false,
      "t": 274041.3926250008,
      "d": 208.33312500000466,
      "v": 107
    },
    {
      "midi": 69,
      "hit": false,
      "t": 274138.61475000274,
      "d": 138.8887499999837,
      "v": 18
    },
    {
      "midi": 73,
      "hit": false,
      "t": 274333.05900000274,
      "d": 97.22212499997113,
      "v": 15
    },
    {
      "midi": 78,
      "hit": false,
      "t": 274353.8923125008,
      "d": 208.33312500000466,
      "v": 90
    },
    {
      "midi": 73,
      "hit": false,
      "t": 274353.8923125008,
      "d": 215.27756249997765,
      "v": 80
    },
    {
      "midi": 78,
      "hit": false,
      "t": 274485.83662500273,
      "d": 90.27768749999814,
      "v": 14
    },
    {
      "midi": 66,
      "hit": false,
      "t": 274499.72550000274,
      "d": 90.27768749999814,
      "v": 13
    },
    {
      "midi": 78,
      "hit": false,
      "t": 274673.3364375008,
      "d": 423.6106874999823,
      "v": 94
    },
    {
      "midi": 76,
      "hit": false,
      "t": 274673.33643750276,
      "d": 319.44412499992177,
      "v": 19
    },
    {
      "midi": 73,
      "hit": false,
      "t": 274680.28087500075,
      "d": 361.11074999999255,
      "v": 80
    },
    {
      "midi": 64,
      "hit": false,
      "t": 274680.28087500273,
      "d": 256.9441874999902,
      "v": 16
    },
    {
      "midi": 69,
      "hit": false,
      "t": 274971.9472500027,
      "d": 152.7776249999879,
      "v": 22
    },
    {
      "midi": 76,
      "hit": false,
      "t": 275152.5026250008,
      "d": 97.22212500002934,
      "v": 94
    },
    {
      "midi": 73,
      "hit": false,
      "t": 275166.3915000008,
      "d": 83.33325000002515,
      "v": 64
    },
    {
      "midi": 73,
      "hit": false,
      "t": 275173.3359375027,
      "d": 284.7219374999986,
      "v": 17
    },
    {
      "midi": 80,
      "hit": false,
      "t": 275333.05800000083,
      "d": 243.05531249998603,
      "v": 86
    },
    {
      "midi": 73,
      "hit": false,
      "t": 275340.0024375008,
      "d": 243.05531249998603,
      "v": 74
    },
    {
      "midi": 78,
      "hit": false,
      "t": 275478.89118750265,
      "d": 194.44425000000047,
      "v": 18
    },
    {
      "midi": 66,
      "hit": false,
      "t": 275485.8356250026,
      "d": 194.44425000000047,
      "v": 17
    },
    {
      "midi": 78,
      "hit": false,
      "t": 275645.5576875008,
      "d": 97.22212499997113,
      "v": 84
    },
    {
      "midi": 73,
      "hit": false,
      "t": 275652.50212500076,
      "d": 104.16656250000233,
      "v": 62
    },
    {
      "midi": 73,
      "hit": false,
      "t": 275826.1130625008,
      "d": 187.49981249996927,
      "v": 74
    },
    {
      "midi": 59,
      "hit": false,
      "t": 275826.11306250264,
      "d": 298.6108125000028,
      "v": 17
    },
    {
      "midi": 71,
      "hit": false,
      "t": 275826.11306250264,
      "d": 368.05518750002375,
      "v": 20
    },
    {
      "midi": 76,
      "hit": false,
      "t": 275833.05750000075,
      "d": 166.66649999999208,
      "v": 90
    },
    {
      "midi": 64,
      "hit": false,
      "t": 276152.50162500265,
      "d": 138.8887499999837,
      "v": 18
    },
    {
      "midi": 71,
      "hit": false,
      "t": 276159.44606250076,
      "d": 645.8326874999912,
      "v": 93
    },
    {
      "midi": 74,
      "hit": false,
      "t": 276159.44606250076,
      "d": 652.7771249999641,
      "v": 85
    },
    {
      "midi": 68,
      "hit": false,
      "t": 276333.05700000265,
      "d": 124.99987499997951,
      "v": 16
    },
    {
      "midi": 73,
      "hit": false,
      "t": 276485.83462500264,
      "d": 97.22212499997113,
      "v": 14
    },
    {
      "midi": 61,
      "hit": false,
      "t": 276485.83462500264,
      "d": 104.16656249994412,
      "v": 12
    },
    {
      "midi": 71,
      "hit": false,
      "t": 276680.2788750026,
      "d": 229.16643749998184,
      "v": 19
    },
    {
      "midi": 59,
      "hit": false,
      "t": 276694.1677500026,
      "d": 124.99987499997951,
      "v": 13
    },
    {
      "midi": 64,
      "hit": false,
      "t": 276881.66756250255,
      "d": 124.99987499997951,
      "v": 18
    },
    {
      "midi": 76,
      "hit": false,
      "t": 276951.1119375007,
      "d": 131.9443125000107,
      "v": 73
    },
    {
      "midi": 71,
      "hit": false,
      "t": 276978.8896875007,
      "d": 90.27768749999814,
      "v": 65
    },
    {
      "midi": 68,
      "hit": false,
      "t": 277034.44518750254,
      "d": 166.66649999999208,
      "v": 19
    },
    {
      "midi": 80,
      "hit": false,
      "t": 277166.38950000075,
      "d": 243.05531249992782,
      "v": 68
    },
    {
      "midi": 71,
      "hit": false,
      "t": 277173.3339375007,
      "d": 222.22200000000885,
      "v": 78
    },
    {
      "midi": 76,
      "hit": false,
      "t": 277173.3339375007,
      "d": 229.16643749998184,
      "v": 85
    },
    {
      "midi": 73,
      "hit": false,
      "t": 277187.2228125025,
      "d": 76.38881249999395,
      "v": 9
    },
    {
      "midi": 71,
      "hit": false,
      "t": 277346.94487500255,
      "d": 368.05518750002375,
      "v": 20
    },
    {
      "midi": 57,
      "hit": false,
      "t": 277374.72262500256,
      "d": 166.66649999999208,
      "v": 17
    },
    {
      "midi": 59,
      "hit": false,
      "t": 277381.6670625025,
      "d": 215.27756250003586,
      "v": 16
    },
    {
      "midi": 76,
      "hit": false,
      "t": 277492.7780625007,
      "d": 215.27756249997765,
      "v": 93
    },
    {
      "midi": 71,
      "hit": false,
      "t": 277499.7225000007,
      "d": 194.44425000000047,
      "v": 82
    },
    {
      "midi": 80,
      "hit": false,
      "t": 277499.7225000007,
      "d": 215.27756249997765,
      "v": 80
    },
    {
      "midi": 64,
      "hit": false,
      "t": 277680.2778750026,
      "d": 145.8331874999567,
      "v": 17
    },
    {
      "midi": 80,
      "hit": false,
      "t": 277812.2221875006,
      "d": 111.11099999991711,
      "v": 72
    },
    {
      "midi": 71,
      "hit": false,
      "t": 277819.1666250006,
      "d": 97.22212499997113,
      "v": 78
    },
    {
      "midi": 76,
      "hit": false,
      "t": 277819.1666250006,
      "d": 104.16656249994412,
      "v": 86
    },
    {
      "midi": 68,
      "hit": false,
      "t": 277853.88881250256,
      "d": 298.6108125000028,
      "v": 19
    },
    {
      "midi": 76,
      "hit": false,
      "t": 278013.61087500054,
      "d": 201.38868749997346,
      "v": 89
    },
    {
      "midi": 71,
      "hit": false,
      "t": 278013.61087500054,
      "d": 208.33312499994645,
      "v": 84
    },
    {
      "midi": 80,
      "hit": false,
      "t": 278013.61087500054,
      "d": 208.33312499994645,
      "v": 76
    },
    {
      "midi": 61,
      "hit": false,
      "t": 278187.22181250254,
      "d": 166.66649999999208,
      "v": 17
    },
    {
      "midi": 73,
      "hit": false,
      "t": 278187.22181250254,
      "d": 194.44425000000047,
      "v": 18
    },
    {
      "midi": 78,
      "hit": false,
      "t": 278319.16612500045,
      "d": 97.22212499997113,
      "v": 73
    },
    {
      "midi": 71,
      "hit": false,
      "t": 278326.1105625004,
      "d": 104.16656250000233,
      "v": 74
    },
    {
      "midi": 64,
      "hit": false,
      "t": 278492.7770625025,
      "d": 312.4996874999488,
      "v": 15
    },
    {
      "midi": 76,
      "hit": false,
      "t": 278499.7215000025,
      "d": 368.05518749996554,
      "v": 20
    },
    {
      "midi": 78,
      "hit": false,
      "t": 278506.6659375004,
      "d": 180.55537499999627,
      "v": 84
    },
    {
      "midi": 71,
      "hit": false,
      "t": 278520.5548125004,
      "d": 187.49981249996927,
      "v": 84
    },
    {
      "midi": 69,
      "hit": false,
      "t": 278833.0545000025,
      "d": 159.72206249996088,
      "v": 21
    },
    {
      "midi": 76,
      "hit": false,
      "t": 278839.9989375004,
      "d": 208.33312499994645,
      "v": 78
    },
    {
      "midi": 69,
      "hit": false,
      "t": 278846.9433750004,
      "d": 201.38868749997346,
      "v": 77
    },
    {
      "midi": 73,
      "hit": false,
      "t": 278846.9433750004,
      "d": 201.38868749997346,
      "v": 78
    },
    {
      "midi": 73,
      "hit": false,
      "t": 278999.7210000024,
      "d": 152.7776249999879,
      "v": 18
    },
    {
      "midi": 73,
      "hit": false,
      "t": 279131.6653125004,
      "d": 104.16656249994412,
      "v": 73
    },
    {
      "midi": 69,
      "hit": false,
      "t": 279138.60975000035,
      "d": 111.11099999997532,
      "v": 89
    },
    {
      "midi": 66,
      "hit": false,
      "t": 279166.3875000024,
      "d": 326.38856249995297,
      "v": 15
    },
    {
      "midi": 78,
      "hit": false,
      "t": 279173.3319375024,
      "d": 333.33299999998417,
      "v": 19
    },
    {
      "midi": 76,
      "hit": false,
      "t": 279319.16512500035,
      "d": 215.27756249997765,
      "v": 89
    },
    {
      "midi": 69,
      "hit": false,
      "t": 279326.1095625003,
      "d": 194.44425000000047,
      "v": 82
    },
    {
      "midi": 73,
      "hit": false,
      "t": 279326.1095625003,
      "d": 222.22200000000885,
      "v": 71
    },
    {
      "midi": 69,
      "hit": false,
      "t": 279492.77606250235,
      "d": 145.8331875000149,
      "v": 21
    },
    {
      "midi": 73,
      "hit": false,
      "t": 279652.49812500237,
      "d": 159.7220625000191,
      "v": 16
    },
    {
      "midi": 76,
      "hit": false,
      "t": 279659.4425625003,
      "d": 152.7776249999879,
      "v": 81
    },
    {
      "midi": 73,
      "hit": false,
      "t": 279659.4425625003,
      "d": 166.66649999999208,
      "v": 59
    },
    {
      "midi": 69,
      "hit": false,
      "t": 279659.4425625003,
      "d": 173.61093749996508,
      "v": 84
    },
    {
      "midi": 78,
      "hit": false,
      "t": 279819.16462500236,
      "d": 83.33325000002515,
      "v": 16
    },
    {
      "midi": 66,
      "hit": false,
      "t": 279833.05350000237,
      "d": 76.38881249999395,
      "v": 18
    },
    {
      "midi": 73,
      "hit": false,
      "t": 279971.94225000025,
      "d": 395.8329374999739,
      "v": 82
    },
    {
      "midi": 69,
      "hit": false,
      "t": 279978.8866875002,
      "d": 368.05518750002375,
      "v": 94
    },
    {
      "midi": 78,
      "hit": false,
      "t": 279978.8866875002,
      "d": 368.05518750002375,
      "v": 98
    },
    {
      "midi": 76,
      "hit": false,
      "t": 280006.66443750233,
      "d": 368.05518750002375,
      "v": 17
    },
    {
      "midi": 64,
      "hit": false,
      "t": 280020.55331250234,
      "d": 277.7775000000256,
      "v": 17
    },
    {
      "midi": 69,
      "hit": false,
      "t": 280333.05300000234,
      "d": 145.8331875000149,
      "v": 19
    },
    {
      "midi": 69,
      "hit": false,
      "t": 280499.71950000024,
      "d": 97.22212499997113,
      "v": 84
    },
    {
      "midi": 73,
      "hit": false,
      "t": 280499.71950000024,
      "d": 97.22212499997113,
      "v": 77
    },
    {
      "midi": 73,
      "hit": false,
      "t": 280506.66393750237,
      "d": 291.6663749999716,
      "v": 18
    },
    {
      "midi": 76,
      "hit": false,
      "t": 280680.27487500024,
      "d": 194.44424999994226,
      "v": 82
    },
    {
      "midi": 69,
      "hit": false,
      "t": 280687.2193125002,
      "d": 173.61093750002328,
      "v": 82
    },
    {
      "midi": 73,
      "hit": false,
      "t": 280687.2193125002,
      "d": 180.55537499999627,
      "v": 77
    },
    {
      "midi": 78,
      "hit": false,
      "t": 280826.10806250235,
      "d": 166.66649999999208,
      "v": 18
    },
    {
      "midi": 66,
      "hit": false,
      "t": 280833.0525000023,
      "d": 173.61093750002328,
      "v": 17
    },
    {
      "midi": 69,
      "hit": false,
      "t": 280985.83012500015,
      "d": 124.99987499997951,
      "v": 93
    },
    {
      "midi": 73,
      "hit": false,
      "t": 280992.7745625001,
      "d": 236.11087500001304,
      "v": 74
    },
    {
      "midi": 76,
      "hit": false,
      "t": 281006.66343750013,
      "d": 222.22200000000885,
      "v": 84
    },
    {
      "midi": 59,
      "hit": false,
      "t": 281145.5521875023,
      "d": 312.499687500007,
      "v": 19
    },
    {
      "midi": 71,
      "hit": false,
      "t": 281145.5521875023,
      "d": 381.94406249996973,
      "v": 19
    },
    {
      "midi": 71,
      "hit": false,
      "t": 281305.27425000013,
      "d": 1006.9434374999837,
      "v": 84
    },
    {
      "midi": 74,
      "hit": false,
      "t": 281305.27425000013,
      "d": 1236.1098749999073,
      "v": 93
    },
    {
      "midi": 64,
      "hit": false,
      "t": 281478.8851875023,
      "d": 173.61093749996508,
      "v": 17
    },
    {
      "midi": 68,
      "hit": false,
      "t": 281666.3850000023,
      "d": 145.8331875000149,
      "v": 18
    },
    {
      "midi": 61,
      "hit": false,
      "t": 281826.1070625023,
      "d": 333.33299999998417,
      "v": 16
    },
    {
      "midi": 73,
      "hit": false,
      "t": 281833.0515000023,
      "d": 333.33299999998417,
      "v": 14
    },
    {
      "midi": 64,
      "hit": false,
      "t": 282159.4400625023,
      "d": 138.8887499999837,
      "v": 18
    },
    {
      "midi": 76,
      "hit": false,
      "t": 282312.2176875001,
      "d": 111.11099999997532,
      "v": 89
    },
    {
      "midi": 71,
      "hit": false,
      "t": 282312.2176875001,
      "d": 215.27756249991944,
      "v": 77
    },
    {
      "midi": 68,
      "hit": false,
      "t": 282319.16212500224,
      "d": 145.8331875000149,
      "v": 18
    },
    {
      "midi": 73,
      "hit": false,
      "t": 282478.88418750226,
      "d": 83.33324999996694,
      "v": 16
    },
    {
      "midi": 61,
      "hit": false,
      "t": 282485.82862500224,
      "d": 69.44437500002095,
      "v": 16
    },
    {
      "midi": 80,
      "hit": false,
      "t": 282513.6063750001,
      "d": 194.44424999994226,
      "v": 73
    },
    {
      "midi": 76,
      "hit": false,
      "t": 282520.55081250006,
      "d": 180.55537499999627,
      "v": 89
    },
    {
      "midi": 71,
      "hit": false,
      "t": 282527.49525000004,
      "d": 173.61093750002328,
      "v": 73
    },
    {
      "midi": 59,
      "hit": false,
      "t": 282659.4395625022,
      "d": 298.6108124999446,
      "v": 16
    },
    {
      "midi": 71,
      "hit": false,
      "t": 282666.3840000022,
      "d": 347.22187499993015,
      "v": 20
    },
    {
      "midi": 76,
      "hit": false,
      "t": 282812.21718750003,
      "d": 187.49981250002747,
      "v": 89
    },
    {
      "midi": 80,
      "hit": false,
      "t": 282812.21718750003,
      "d": 187.49981250002747,
      "v": 84
    },
    {
      "midi": 71,
      "hit": false,
      "t": 282826.10606250004,
      "d": 173.61093750002328,
      "v": 78
    },
    {
      "midi": 64,
      "hit": false,
      "t": 282992.7725625021,
      "d": 159.72206249996088,
      "v": 18
    },
    {
      "midi": 76,
      "hit": false,
      "t": 283124.71687500004,
      "d": 69.44437499996275,
      "v": 94
    },
    {
      "midi": 80,
      "hit": false,
      "t": 283124.71687500004,
      "d": 69.44437499996275,
      "v": 93
    },
    {
      "midi": 71,
      "hit": false,
      "t": 283131.6613125,
      "d": 76.38881249999395,
      "v": 76
    },
    {
      "midi": 68,
      "hit": false,
      "t": 283180.2723750021,
      "d": 298.6108125000028,
      "v": 19
    },
    {
      "midi": 76,
      "hit": false,
      "t": 283312.2166875,
      "d": 201.38868749997346,
      "v": 95
    },
    {
      "midi": 71,
      "hit": false,
      "t": 283319.161125,
      "d": 194.44425000000047,
      "v": 73
    },
    {
      "midi": 80,
      "hit": false,
      "t": 283326.10556249996,
      "d": 194.44425000000047,
      "v": 98
    },
    {
      "midi": 61,
      "hit": false,
      "t": 283513.6053750021,
      "d": 173.61093750002328,
      "v": 14
    },
    {
      "midi": 73,
      "hit": false,
      "t": 283513.6053750021,
      "d": 208.33312500000466,
      "v": 16
    },
    {
      "midi": 78,
      "hit": false,
      "t": 283652.49412499997,
      "d": 76.38881249999395,
      "v": 105
    },
    {
      "midi": 71,
      "hit": false,
      "t": 283666.383,
      "d": 76.38881249999395,
      "v": 74
    },
    {
      "midi": 76,
      "hit": false,
      "t": 283826.1050625021,
      "d": 347.22187499998836,
      "v": 21
    },
    {
      "midi": 64,
      "hit": false,
      "t": 283833.04950000206,
      "d": 277.7775000000256,
      "v": 14
    },
    {
      "midi": 78,
      "hit": false,
      "t": 283839.99393749994,
      "d": 173.61093750002328,
      "v": 99
    },
    {
      "midi": 71,
      "hit": false,
      "t": 283839.99393749994,
      "d": 208.33312500000466,
      "v": 77
    },
    {
      "midi": 69,
      "hit": false,
      "t": 284152.4936250021,
      "d": 145.8331874999567,
      "v": 22
    },
    {
      "midi": 76,
      "hit": false,
      "t": 284159.4380624999,
      "d": 499.99949999997625,
      "v": 82
    },
    {
      "midi": 73,
      "hit": false,
      "t": 284166.3824999999,
      "d": 312.499687500007,
      "v": 81
    },
    {
      "midi": 69,
      "hit": false,
      "t": 284166.3824999999,
      "d": 319.44412499998,
      "v": 85
    },
    {
      "midi": 73,
      "hit": false,
      "t": 284312.21568750206,
      "d": 145.8331875000149,
      "v": 17
    },
    {
      "midi": 73,
      "hit": false,
      "t": 284478.8821874999,
      "d": 187.49981249996927,
      "v": 76
    },
    {
      "midi": 69,
      "hit": false,
      "t": 284485.82662499987,
      "d": 180.55537499999627,
      "v": 77
    },
    {
      "midi": 66,
      "hit": false,
      "t": 284485.8266250021,
      "d": 326.3885625000112,
      "v": 18
    },
    {
      "midi": 78,
      "hit": false,
      "t": 284485.8266250021,
      "d": 333.33299999998417,
      "v": 20
    },
    {
      "midi": 76,
      "hit": false,
      "t": 284659.4375624999,
      "d": 326.38856249995297,
      "v": 85
    },
    {
      "midi": 69,
      "hit": false,
      "t": 284666.38199999987,
      "d": 319.44412499998,
      "v": 82
    },
    {
      "midi": 73,
      "hit": false,
      "t": 284666.38199999987,
      "d": 333.33299999998417,
      "v": 73
    },
    {
      "midi": 69,
      "hit": false,
      "t": 284812.2151875021,
      "d": 124.99987499997951,
      "v": 20
    },
    {
      "midi": 73,
      "hit": false,
      "t": 284971.93725000205,
      "d": 111.11099999997532,
      "v": 14
    },
    {
      "midi": 69,
      "hit": false,
      "t": 284985.82612499985,
      "d": 305.5552499999758,
      "v": 84
    },
    {
      "midi": 76,
      "hit": false,
      "t": 284985.82612499985,
      "d": 340.27743749989895,
      "v": 80
    },
    {
      "midi": 73,
      "hit": false,
      "t": 284999.71499999985,
      "d": 312.4996874999488,
      "v": 73
    },
    {
      "midi": 78,
      "hit": false,
      "t": 285117.770437502,
      "d": 83.33324999996694,
      "v": 18
    },
    {
      "midi": 66,
      "hit": false,
      "t": 285124.714875002,
      "d": 76.38881249999395,
      "v": 13
    },
    {
      "midi": 64,
      "hit": false,
      "t": 285305.270250002,
      "d": 305.5552499999758,
      "v": 17
    },
    {
      "midi": 76,
      "hit": false,
      "t": 285305.270250002,
      "d": 361.11074999999255,
      "v": 18
    },
    {
      "midi": 69,
      "hit": false,
      "t": 285319.1591249998,
      "d": 361.11074999999255,
      "v": 84
    },
    {
      "midi": 78,
      "hit": false,
      "t": 285319.1591249998,
      "d": 368.05518749996554,
      "v": 73
    },
    {
      "midi": 73,
      "hit": false,
      "t": 285319.1591249998,
      "d": 388.8884999999427,
      "v": 76
    },
    {
      "midi": 69,
      "hit": false,
      "t": 285652.49212500197,
      "d": 138.8887499999837,
      "v": 20
    },
    {
      "midi": 73,
      "hit": false,
      "t": 285826.1030624997,
      "d": 83.33325000002515,
      "v": 74
    },
    {
      "midi": 69,
      "hit": false,
      "t": 285826.1030624997,
      "d": 90.27768749999814,
      "v": 82
    },
    {
      "midi": 73,
      "hit": false,
      "t": 285826.10306250193,
      "d": 305.5552499999758,
      "v": 17
    },
    {
      "midi": 69,
      "hit": false,
      "t": 285999.71399999975,
      "d": 194.44425000000047,
      "v": 86
    },
    {
      "midi": 73,
      "hit": false,
      "t": 285999.71399999975,
      "d": 201.38868749997346,
      "v": 78
    },
    {
      "midi": 76,
      "hit": false,
      "t": 285999.71399999975,
      "d": 215.27756249997765,
      "v": 78
    },
    {
      "midi": 78,
      "hit": false,
      "t": 286152.4916250019,
      "d": 173.61093749996508,
      "v": 17
    },
    {
      "midi": 66,
      "hit": false,
      "t": 286159.43606250186,
      "d": 180.55537499999627,
      "v": 15
    },
    {
      "midi": 76,
      "hit": false,
      "t": 286326.1025624997,
      "d": 131.9443124999525,
      "v": 81
    },
    {
      "midi": 73,
      "hit": false,
      "t": 286326.1025624997,
      "d": 152.77762499992969,
      "v": 80
    },
    {
      "midi": 69,
      "hit": false,
      "t": 286333.0469999997,
      "d": 138.8887499999837,
      "v": 94
    },
    {
      "midi": 59,
      "hit": false,
      "t": 286499.7135000019,
      "d": 312.4996874999488,
      "v": 18
    },
    {
      "midi": 71,
      "hit": false,
      "t": 286506.65793750185,
      "d": 374.99962499993853,
      "v": 19
    },
    {
      "midi": 71,
      "hit": false,
      "t": 286652.49112499965,
      "d": 812.4991874999832,
      "v": 76
    },
    {
      "midi": 74,
      "hit": false,
      "t": 286652.49112499965,
      "d": 861.1102499999688,
      "v": 94
    },
    {
      "midi": 68,
      "hit": false,
      "t": 286659.4355624996,
      "d": 770.8325625000289,
      "v": 57
    },
    {
      "midi": 64,
      "hit": false,
      "t": 286833.0465000018,
      "d": 180.55537499999627,
      "v": 14
    },
    {
      "midi": 68,
      "hit": false,
      "t": 287020.54631250177,
      "d": 118.05543750000652,
      "v": 18
    },
    {
      "midi": 61,
      "hit": false,
      "t": 287159.43506250175,
      "d": 347.22187499998836,
      "v": 14
    },
    {
      "midi": 73,
      "hit": false,
      "t": 287159.43506250175,
      "d": 374.99962499999674,
      "v": 17
    },
    {
      "midi": 64,
      "hit": false,
      "t": 287492.76806250174,
      "d": 145.8331875000149,
      "v": 19
    },
    {
      "midi": 71,
      "hit": false,
      "t": 287652.4901249996,
      "d": 90.27768749999814,
      "v": 72
    },
    {
      "midi": 76,
      "hit": false,
      "t": 287652.4901249996,
      "d": 90.27768749999814,
      "v": 90
    },
    {
      "midi": 68,
      "hit": false,
      "t": 287652.49012500176,
      "d": 131.9443125000107,
      "v": 18
    },
    {
      "midi": 73,
      "hit": false,
      "t": 287812.2121875018,
      "d": 76.38881249999395,
      "v": 16
    },
    {
      "midi": 61,
      "hit": false,
      "t": 287812.2121875018,
      "d": 83.33324999996694,
      "v": 13
    },
    {
      "midi": 76,
      "hit": false,
      "t": 287846.9343749996,
      "d": 194.44424999994226,
      "v": 90
    },
    {
      "midi": 71,
      "hit": false,
      "t": 287853.8788124996,
      "d": 180.55537499999627,
      "v": 71
    },
    {
      "midi": 80,
      "hit": false,
      "t": 287853.8788124996,
      "d": 187.49981249996927,
      "v": 67
    },
    {
      "midi": 71,
      "hit": false,
      "t": 287992.7675625017,
      "d": 354.16631249990314,
      "v": 19
    },
    {
      "midi": 59,
      "hit": false,
      "t": 287999.7120000017,
      "d": 305.5552499999758,
      "v": 17
    },
    {
      "midi": 76,
      "hit": false,
      "t": 288159.43406249955,
      "d": 201.38868749997346,
      "v": 84
    },
    {
      "midi": 80,
      "hit": false,
      "t": 288159.43406249955,
      "d": 208.33312499994645,
      "v": 81
    },
    {
      "midi": 71,
      "hit": false,
      "t": 288166.3784999995,
      "d": 187.49981250002747,
      "v": 72
    },
    {
      "midi": 64,
      "hit": false,
      "t": 288326.10056250164,
      "d": 152.7776249999879,
      "v": 17
    },
    {
      "midi": 76,
      "hit": false,
      "t": 288464.98931249947,
      "d": 90.27768749993993,
      "v": 94
    },
    {
      "midi": 80,
      "hit": false,
      "t": 288478.8781874995,
      "d": 69.44437499996275,
      "v": 84
    },
    {
      "midi": 71,
      "hit": false,
      "t": 288485.82262499945,
      "d": 69.44437499996275,
      "v": 68
    },
    {
      "midi": 68,
      "hit": false,
      "t": 288499.7115000016,
      "d": 333.33299999998417,
      "v": 18
    },
    {
      "midi": 71,
      "hit": false,
      "t": 288638.60024999944,
      "d": 229.16643749992363,
      "v": 74
    },
    {
      "midi": 76,
      "hit": false,
      "t": 288645.5446874994,
      "d": 201.38868749997346,
      "v": 86
    },
    {
      "midi": 80,
      "hit": false,
      "t": 288645.5446874994,
      "d": 222.22199999995064,
      "v": 76
    },
    {
      "midi": 61,
      "hit": false,
      "t": 288846.9333750016,
      "d": 173.61093750002328,
      "v": 13
    },
    {
      "midi": 73,
      "hit": false,
      "t": 288846.9333750016,
      "d": 208.33312500000466,
      "v": 15
    },
    {
      "midi": 78,
      "hit": false,
      "t": 288985.82212499937,
      "d": 83.33324999996694,
      "v": 76
    },
    {
      "midi": 71,
      "hit": false,
      "t": 288992.76656249934,
      "d": 90.27768749999814,
      "v": 73
    },
    {
      "midi": 76,
      "hit": false,
      "t": 289166.3775000016,
      "d": 354.16631250001956,
      "v": 18
    },
    {
      "midi": 64,
      "hit": false,
      "t": 289180.2663750016,
      "d": 284.7219374999986,
      "v": 15
    },
    {
      "midi": 78,
      "hit": false,
      "t": 289187.21081249934,
      "d": 138.8887499999837,
      "v": 77
    },
    {
      "midi": 71,
      "hit": false,
      "t": 289187.21081249934,
      "d": 166.66649999999208,
      "v": 76
    },
    {
      "midi": 69,
      "hit": false,
      "t": 289492.7660625016,
      "d": 145.8331875000149,
      "v": 19
    },
    {
      "midi": 73,
      "hit": false,
      "t": 289499.71049999935,
      "d": 215.27756249997765,
      "v": 89
    },
    {
      "midi": 76,
      "hit": false,
      "t": 289499.71049999935,
      "d": 215.27756249997765,
      "v": 81
    },
    {
      "midi": 69,
      "hit": false,
      "t": 289506.6549374993,
      "d": 187.49981250002747,
      "v": 76
    },
    {
      "midi": 73,
      "hit": false,
      "t": 289659.4325625016,
      "d": 138.8887499999837,
      "v": 17
    },
    {
      "midi": 73,
      "hit": false,
      "t": 289805.2657499993,
      "d": 104.16656250000233,
      "v": 68
    },
    {
      "midi": 69,
      "hit": false,
      "t": 289819.1546249993,
      "d": 83.33325000002515,
      "v": 78
    },
    {
      "midi": 66,
      "hit": false,
      "t": 289826.09906250157,
      "d": 284.7219374999986,
      "v": 17
    },
    {
      "midi": 78,
      "hit": false,
      "t": 289826.09906250157,
      "d": 326.3885625000112,
      "v": 18
    },
    {
      "midi": 73,
      "hit": false,
      "t": 289992.76556249935,
      "d": 215.27756249997765,
      "v": 72
    },
    {
      "midi": 69,
      "hit": false,
      "t": 289999.7099999993,
      "d": 187.49981250002747,
      "v": 84
    },
    {
      "midi": 76,
      "hit": false,
      "t": 289999.7099999993,
      "d": 215.27756249997765,
      "v": 82
    },
    {
      "midi": 69,
      "hit": false,
      "t": 290124.7098750016,
      "d": 138.8887499999837,
      "v": 19
    },
    {
      "midi": 73,
      "hit": false,
      "t": 290298.32081250154,
      "d": 131.9443125000107,
      "v": 15
    },
    {
      "midi": 76,
      "hit": false,
      "t": 290312.2096874993,
      "d": 166.66649999993388,
      "v": 89
    },
    {
      "midi": 69,
      "hit": false,
      "t": 290319.15412499924,
      "d": 194.44424999994226,
      "v": 89
    },
    {
      "midi": 73,
      "hit": false,
      "t": 290326.0985624992,
      "d": 187.49981249996927,
      "v": 73
    },
    {
      "midi": 78,
      "hit": false,
      "t": 290464.98731250153,
      "d": 83.33324999996694,
      "v": 17
    },
    {
      "midi": 66,
      "hit": false,
      "t": 290471.9317500015,
      "d": 97.22212499997113,
      "v": 16
    },
    {
      "midi": 76,
      "hit": false,
      "t": 290652.4871250015,
      "d": 368.05518749990733,
      "v": 18
    },
    {
      "midi": 69,
      "hit": false,
      "t": 290659.4315624992,
      "d": 291.6663749999716,
      "v": 80
    },
    {
      "midi": 78,
      "hit": false,
      "t": 290659.4315624992,
      "d": 305.5552499999758,
      "v": 74
    },
    {
      "midi": 73,
      "hit": false,
      "t": 290659.4315624992,
      "d": 333.33299999998417,
      "v": 81
    },
    {
      "midi": 64,
      "hit": false,
      "t": 290659.4315625015,
      "d": 305.5552499999758,
      "v": 19
    },
    {
      "midi": 69,
      "hit": false,
      "t": 290985.8201250014,
      "d": 152.7776249999879,
      "v": 21
    },
    {
      "midi": 73,
      "hit": false,
      "t": 291145.5421874992,
      "d": 97.22212499997113,
      "v": 78
    },
    {
      "midi": 69,
      "hit": false,
      "t": 291152.48662499915,
      "d": 76.38881249999395,
      "v": 77
    },
    {
      "midi": 73,
      "hit": false,
      "t": 291173.3199375014,
      "d": 291.6663749999716,
      "v": 18
    },
    {
      "midi": 69,
      "hit": false,
      "t": 291319.15312499914,
      "d": 215.27756249997765,
      "v": 89
    },
    {
      "midi": 76,
      "hit": false,
      "t": 291319.15312499914,
      "d": 229.16643749992363,
      "v": 80
    },
    {
      "midi": 73,
      "hit": false,
      "t": 291326.0975624991,
      "d": 215.27756249997765,
      "v": 76
    },
    {
      "midi": 78,
      "hit": false,
      "t": 291485.81962500134,
      "d": 166.66649999999208,
      "v": 17
    },
    {
      "midi": 66,
      "hit": false,
      "t": 291485.81962500134,
      "d": 180.55537499999627,
      "v": 15
    },
    {
      "midi": 73,
      "hit": false,
      "t": 291645.54168749903,
      "d": 159.72206249996088,
      "v": 72
    },
    {
      "midi": 76,
      "hit": false,
      "t": 291645.54168749903,
      "d": 166.66649999993388,
      "v": 82
    },
    {
      "midi": 69,
      "hit": false,
      "t": 291652.486124999,
      "d": 180.55537499993807,
      "v": 84
    },
    {
      "midi": 59,
      "hit": false,
      "t": 291819.1526250013,
      "d": 291.6663749999716,
      "v": 15
    },
    {
      "midi": 71,
      "hit": false,
      "t": 291819.1526250013,
      "d": 347.22187499993015,
      "v": 18
    },
    {
      "midi": 71,
      "hit": false,
      "t": 291985.81912499893,
      "d": 652.7771249999641,
      "v": 80
    },
    {
      "midi": 74,
      "hit": false,
      "t": 291992.7635624989,
      "d": 673.6104374999995,
      "v": 85
    },
    {
      "midi": 64,
      "hit": false,
      "t": 292145.5411875013,
      "d": 138.8887499999837,
      "v": 17
    },
    {
      "midi": 68,
      "hit": false,
      "t": 292305.26325000124,
      "d": 138.8887499999837,
      "v": 19
    },
    {
      "midi": 61,
      "hit": false,
      "t": 292458.0408750012,
      "d": 340.27743749995716,
      "v": 15
    },
    {
      "midi": 73,
      "hit": false,
      "t": 292464.9853125012,
      "d": 374.99962499993853,
      "v": 16
    },
    {
      "midi": 64,
      "hit": false,
      "t": 292819.15162500116,
      "d": 124.99987499997951,
      "v": 16
    },
    {
      "midi": 71,
      "hit": false,
      "t": 292971.9292499989,
      "d": 97.22212499997113,
      "v": 64
    },
    {
      "midi": 76,
      "hit": false,
      "t": 292978.87368749885,
      "d": 83.33325000002515,
      "v": 80
    },
    {
      "midi": 68,
      "hit": false,
      "t": 292978.8736875011,
      "d": 111.11099999997532,
      "v": 16
    },
    {
      "midi": 73,
      "hit": false,
      "t": 293124.7068750011,
      "d": 97.22212500002934,
      "v": 13
    },
    {
      "midi": 61,
      "hit": false,
      "t": 293152.4846250011,
      "d": 76.38881249999395,
      "v": 13
    },
    {
      "midi": 71,
      "hit": false,
      "t": 293166.3734999988,
      "d": 194.44424999994226,
      "v": 62
    },
    {
      "midi": 80,
      "hit": false,
      "t": 293166.3734999988,
      "d": 194.44424999994226,
      "v": 69
    },
    {
      "midi": 76,
      "hit": false,
      "t": 293173.3179374988,
      "d": 180.55537499999627,
      "v": 89
    },
    {
      "midi": 71,
      "hit": false,
      "t": 293326.09556250105,
      "d": 354.16631249996135,
      "v": 19
    },
    {
      "midi": 59,
      "hit": false,
      "t": 293333.040000001,
      "d": 284.7219374999986,
      "v": 16
    },
    {
      "midi": 71,
      "hit": false,
      "t": 293492.7620624988,
      "d": 208.33312499994645,
      "v": 84
    },
    {
      "midi": 80,
      "hit": false,
      "t": 293492.7620624988,
      "d": 222.22199999989243,
      "v": 80
    },
    {
      "midi": 76,
      "hit": false,
      "t": 293499.70649999875,
      "d": 208.33312499994645,
      "v": 89
    },
    {
      "midi": 64,
      "hit": false,
      "t": 293659.42856250104,
      "d": 131.9443124999525,
      "v": 18
    },
    {
      "midi": 76,
      "hit": false,
      "t": 293819.15062499867,
      "d": 83.33325000002515,
      "v": 89
    },
    {
      "midi": 71,
      "hit": false,
      "t": 293819.15062499867,
      "d": 97.22212500002934,
      "v": 74
    },
    {
      "midi": 80,
      "hit": false,
      "t": 293819.15062499867,
      "d": 97.22212500002934,
      "v": 73
    },
    {
      "midi": 68,
      "hit": false,
      "t": 293833.039500001,
      "d": 277.7775000000256,
      "v": 19
    },
    {
      "midi": 76,
      "hit": false,
      "t": 294006.6504374987,
      "d": 180.55537499999627,
      "v": 85
    },
    {
      "midi": 71,
      "hit": false,
      "t": 294006.6504374987,
      "d": 201.38868749997346,
      "v": 73
    },
    {
      "midi": 80,
      "hit": false,
      "t": 294006.6504374987,
      "d": 215.27756249997765,
      "v": 74
    },
    {
      "midi": 61,
      "hit": false,
      "t": 294110.817000001,
      "d": 201.38868749997346,
      "v": 11
    },
    {
      "midi": 73,
      "hit": false,
      "t": 294110.817000001,
      "d": 249.99974999995902,
      "v": 13
    },
    {
      "midi": 78,
      "hit": false,
      "t": 294312.2056874987,
      "d": 83.33325000002515,
      "v": 76
    },
    {
      "midi": 71,
      "hit": false,
      "t": 294312.2056874987,
      "d": 124.99987500003772,
      "v": 72
    },
    {
      "midi": 76,
      "hit": false,
      "t": 294464.983312501,
      "d": 388.8884999999427,
      "v": 18
    },
    {
      "midi": 64,
      "hit": false,
      "t": 294478.872187501,
      "d": 333.33299999998417,
      "v": 15
    },
    {
      "midi": 71,
      "hit": false,
      "t": 294499.7054999987,
      "d": 208.33312499994645,
      "v": 82
    },
    {
      "midi": 78,
      "hit": false,
      "t": 294506.6499374987,
      "d": 166.66649999999208,
      "v": 76
    },
    {
      "midi": 69,
      "hit": false,
      "t": 294833.03850000096,
      "d": 152.7776249999879,
      "v": 19
    },
    {
      "midi": 76,
      "hit": false,
      "t": 294839.98293749866,
      "d": 201.38868749997346,
      "v": 82
    },
    {
      "midi": 73,
      "hit": false,
      "t": 294846.92737499863,
      "d": 222.22200000000885,
      "v": 73
    },
    {
      "midi": 69,
      "hit": false,
      "t": 294867.7606874986,
      "d": 187.49981250002747,
      "v": 77
    },
    {
      "midi": 73,
      "hit": false,
      "t": 294985.81612500094,
      "d": 145.8331875000149,
      "v": 18
    },
    {
      "midi": 66,
      "hit": false,
      "t": 295152.48262500094,
      "d": 340.27743749989895,
      "v": 18
    },
    {
      "midi": 78,
      "hit": false,
      "t": 295159.4270625009,
      "d": 291.6663749999716,
      "v": 18
    },
    {
      "midi": 73,
      "hit": false,
      "t": 295166.3714999986,
      "d": 97.22212500002934,
      "v": 68
    },
    {
      "midi": 69,
      "hit": false,
      "t": 295180.2603749986,
      "d": 83.33325000002515,
      "v": 74
    },
    {
      "midi": 69,
      "hit": false,
      "t": 295353.87131249864,
      "d": 187.49981250002747,
      "v": 80
    },
    {
      "midi": 73,
      "hit": false,
      "t": 295353.87131249864,
      "d": 194.44425000000047,
      "v": 65
    },
    {
      "midi": 76,
      "hit": false,
      "t": 295353.87131249864,
      "d": 194.44425000000047,
      "v": 76
    },
    {
      "midi": 69,
      "hit": false,
      "t": 295458.03787500085,
      "d": 138.8887499999837,
      "v": 21
    },
    {
      "midi": 73,
      "hit": false,
      "t": 295638.59325000085,
      "d": 111.11099999997532,
      "v": 15
    },
    {
      "midi": 76,
      "hit": false,
      "t": 295652.48212499864,
      "d": 173.61093749996508,
      "v": 76
    },
    {
      "midi": 69,
      "hit": false,
      "t": 295659.4265624986,
      "d": 173.61093749996508,
      "v": 77
    },
    {
      "midi": 73,
      "hit": false,
      "t": 295666.3709999986,
      "d": 180.55537499999627,
      "v": 62
    },
    {
      "midi": 78,
      "hit": false,
      "t": 295798.3153125008,
      "d": 90.27768749999814,
      "v": 16
    },
    {
      "midi": 66,
      "hit": false,
      "t": 295819.1486250008,
      "d": 76.38881249999395,
      "v": 16
    },
    {
      "midi": 78,
      "hit": false,
      "t": 295985.81512499857,
      "d": 291.6663749999716,
      "v": 80
    },
    {
      "midi": 69,
      "hit": false,
      "t": 295985.81512499857,
      "d": 312.4996874999488,
      "v": 86
    },
    {
      "midi": 73,
      "hit": false,
      "t": 295985.81512499857,
      "d": 354.16631249996135,
      "v": 73
    },
    {
      "midi": 64,
      "hit": false,
      "t": 295985.8151250008,
      "d": 319.44412499998,
      "v": 18
    },
    {
      "midi": 76,
      "hit": false,
      "t": 295992.75956250075,
      "d": 368.05518750002375,
      "v": 19
    },
    {
      "midi": 69,
      "hit": false,
      "t": 296333.03700000077,
      "d": 131.9443125000107,
      "v": 20
    },
    {
      "midi": 69,
      "hit": false,
      "t": 296485.81462499854,
      "d": 97.22212499997113,
      "v": 73
    },
    {
      "midi": 73,
      "hit": false,
      "t": 296485.81462499854,
      "d": 97.22212499997113,
      "v": 73
    },
    {
      "midi": 73,
      "hit": false,
      "t": 296506.6479375008,
      "d": 291.6663749999716,
      "v": 18
    },
    {
      "midi": 69,
      "hit": false,
      "t": 296645.5366874985,
      "d": 229.16643749992363,
      "v": 69
    },
    {
      "midi": 73,
      "hit": false,
      "t": 296666.3699999985,
      "d": 208.33312499994645,
      "v": 68
    },
    {
      "midi": 76,
      "hit": false,
      "t": 296673.31443749845,
      "d": 194.44425000000047,
      "v": 77
    },
    {
      "midi": 78,
      "hit": false,
      "t": 296833.03650000074,
      "d": 194.44425000000047,
      "v": 19
    },
    {
      "midi": 66,
      "hit": false,
      "t": 296846.92537500075,
      "d": 194.44425000000047,
      "v": 16
    },
    {
      "midi": 73,
      "hit": false,
      "t": 296978.86968749843,
      "d": 173.61093749996508,
      "v": 65
    },
    {
      "midi": 69,
      "hit": false,
      "t": 296985.8141249984,
      "d": 187.49981249996927,
      "v": 81
    },
    {
      "midi": 76,
      "hit": false,
      "t": 296992.7585624984,
      "d": 159.7220625000191,
      "v": 76
    },
    {
      "midi": 59,
      "hit": false,
      "t": 297187.20281250076,
      "d": 284.7219374999986,
      "v": 17
    },
    {
      "midi": 71,
      "hit": false,
      "t": 297187.20281250076,
      "d": 361.11074999999255,
      "v": 20
    },
    {
      "midi": 71,
      "hit": false,
      "t": 297326.09156249836,
      "d": 437.4995624999865,
      "v": 80
    },
    {
      "midi": 74,
      "hit": false,
      "t": 297333.03599999833,
      "d": 444.4440000000177,
      "v": 90
    },
    {
      "midi": 64,
      "hit": false,
      "t": 297499.70250000077,
      "d": 159.72206249996088,
      "v": 18
    },
    {
      "midi": 68,
      "hit": false,
      "t": 297666.3690000007,
      "d": 145.8331875000149,
      "v": 19
    },
    {
      "midi": 73,
      "hit": false,
      "t": 297826.0910625007,
      "d": 340.27743749989895,
      "v": 17
    },
    {
      "midi": 61,
      "hit": false,
      "t": 297833.0355000007,
      "d": 319.44412499998,
      "v": 15
    },
    {
      "midi": 64,
      "hit": false,
      "t": 298159.42406250065,
      "d": 138.8887499999837,
      "v": 18
    },
    {
      "midi": 76,
      "hit": false,
      "t": 298284.42393749836,
      "d": 159.72206249996088,
      "v": 86
    },
    {
      "midi": 71,
      "hit": false,
      "t": 298298.31281249836,
      "d": 111.11099999997532,
      "v": 68
    },
    {
      "midi": 68,
      "hit": false,
      "t": 298326.09056250064,
      "d": 118.05543750000652,
      "v": 17
    },
    {
      "midi": 73,
      "hit": false,
      "t": 298471.92375000066,
      "d": 83.33325000002515,
      "v": 15
    },
    {
      "midi": 61,
      "hit": false,
      "t": 298485.81262500066,
      "d": 69.44437500002095,
      "v": 13
    },
    {
      "midi": 71,
      "hit": false,
      "t": 298492.7570624983,
      "d": 249.99974999995902,
      "v": 76
    },
    {
      "midi": 80,
      "hit": false,
      "t": 298492.7570624983,
      "d": 291.6663749999716,
      "v": 76
    },
    {
      "midi": 76,
      "hit": false,
      "t": 298499.7014999983,
      "d": 256.9441874999902,
      "v": 84
    },
    {
      "midi": 59,
      "hit": false,
      "t": 298659.4235625007,
      "d": 277.7774999999674,
      "v": 18
    },
    {
      "midi": 71,
      "hit": false,
      "t": 298666.36800000066,
      "d": 333.33299999998417,
      "v": 20
    },
    {
      "midi": 80,
      "hit": false,
      "t": 298833.03449999826,
      "d": 256.944187499932,
      "v": 59
    },
    {
      "midi": 76,
      "hit": false,
      "t": 298846.92337499827,
      "d": 201.38868749997346,
      "v": 93
    },
    {
      "midi": 71,
      "hit": false,
      "t": 298846.92337499827,
      "d": 208.33312499994645,
      "v": 78
    },
    {
      "midi": 64,
      "hit": false,
      "t": 298992.75656250067,
      "d": 152.7776249999879,
      "v": 19
    },
    {
      "midi": 71,
      "hit": false,
      "t": 299159.4230624982,
      "d": 90.27768749993993,
      "v": 74
    },
    {
      "midi": 80,
      "hit": false,
      "t": 299159.4230624982,
      "d": 104.16656249994412,
      "v": 66
    },
    {
      "midi": 76,
      "hit": false,
      "t": 299166.3674999982,
      "d": 76.38881249999395,
      "v": 86
    },
    {
      "midi": 68,
      "hit": false,
      "t": 299187.20081250067,
      "d": 277.7775000000256,
      "v": 18
    },
    {
      "midi": 80,
      "hit": false,
      "t": 299346.9228749982,
      "d": 215.27756249991944,
      "v": 73
    },
    {
      "midi": 76,
      "hit": false,
      "t": 299353.86731249816,
      "d": 201.38868749997346,
      "v": 89
    },
    {
      "midi": 71,
      "hit": false,
      "t": 299353.86731249816,
      "d": 208.33312499994645,
      "v": 71
    },
    {
      "midi": 61,
      "hit": false,
      "t": 299499.7005000007,
      "d": 208.33312500000466,
      "v": 13
    },
    {
      "midi": 73,
      "hit": false,
      "t": 299499.7005000007,
      "d": 236.11087500001304,
      "v": 15
    },
    {
      "midi": 78,
      "hit": false,
      "t": 299659.4225624981,
      "d": 97.22212500002934,
      "v": 67
    },
    {
      "midi": 71,
      "hit": false,
      "t": 299673.3114374981,
      "d": 104.16656250000233,
      "v": 57
    },
    {
      "midi": 76,
      "hit": false,
      "t": 299833.03350000066,
      "d": 354.16631249996135,
      "v": 22
    },
    {
      "midi": 64,
      "hit": false,
      "t": 299839.97793750063,
      "d": 298.6108125000028,
      "v": 15
    },
    {
      "midi": 71,
      "hit": false,
      "t": 299846.9223749981,
      "d": 222.22199999995064,
      "v": 85
    },
    {
      "midi": 78,
      "hit": false,
      "t": 299853.8668124981,
      "d": 166.66649999999208,
      "v": 81
    },
    {
      "midi": 69,
      "hit": false,
      "t": 300173.3109375006,
      "d": 131.9443125000107,
      "v": 20
    },
    {
      "midi": 76,
      "hit": false,
      "t": 300180.255374998,
      "d": 1368.0541874999763,
      "v": 84
    },
    {
      "midi": 69,
      "hit": false,
      "t": 300187.199812498,
      "d": 1312.4986875000177,
      "v": 89
    },
    {
      "midi": 73,
      "hit": false,
      "t": 300187.199812498,
      "d": 1326.3875625000219,
      "v": 89
    },
    {
      "midi": 73,
      "hit": false,
      "t": 300333.03300000064,
      "d": 152.7776249999879,
      "v": 17
    },
    {
      "midi": 66,
      "hit": false,
      "t": 300506.6439375006,
      "d": 347.22187499998836,
      "v": 18
    },
    {
      "midi": 78,
      "hit": false,
      "t": 300506.6439375006,
      "d": 347.22187499998836,
      "v": 19
    },
    {
      "midi": 69,
      "hit": false,
      "t": 300860.81025000056,
      "d": 104.16656250000233,
      "v": 22
    },
    {
      "midi": 73,
      "hit": false,
      "t": 301020.5323125006,
      "d": 97.22212499997113,
      "v": 15
    },
    {
      "midi": 78,
      "hit": false,
      "t": 301138.58775000053,
      "d": 97.22212500002934,
      "v": 12
    },
    {
      "midi": 66,
      "hit": false,
      "t": 301166.36550000054,
      "d": 69.44437500002095,
      "v": 16
    },
    {
      "midi": 64,
      "hit": false,
      "t": 301339.97643750056,
      "d": 291.6663749999716,
      "v": 17
    },
    {
      "midi": 76,
      "hit": false,
      "t": 301339.97643750056,
      "d": 347.22187499993015,
      "v": 19
    },
    {
      "midi": 69,
      "hit": false,
      "t": 301652.4761250005,
      "d": 145.8331874999567,
      "v": 20
    },
    {
      "midi": 73,
      "hit": false,
      "t": 301826.0870625005,
      "d": 333.33299999998417,
      "v": 18
    },
    {
      "midi": 78,
      "hit": false,
      "t": 302194.14225000044,
      "d": 152.7776249999879,
      "v": 17
    },
    {
      "midi": 66,
      "hit": false,
      "t": 302194.14225000044,
      "d": 166.66649999999208,
      "v": 14
    },
    {
      "midi": 59,
      "hit": false,
      "t": 302506.64193750045,
      "d": 284.7219374999986,
      "v": 16
    },
    {
      "midi": 71,
      "hit": false,
      "t": 302506.64193750045,
      "d": 354.16631249996135,
      "v": 20
    },
    {
      "midi": 64,
      "hit": false,
      "t": 302839.97493750043,
      "d": 118.05543749994831,
      "v": 19
    },
    {
      "midi": 68,
      "hit": false,
      "t": 302999.6970000004,
      "d": 83.33325000002515,
      "v": 17
    },
    {
      "midi": 73,
      "hit": false,
      "t": 303138.58575000043,
      "d": 104.16656249994412,
      "v": 16
    },
    {
      "midi": 61,
      "hit": false,
      "t": 303145.5301875004,
      "d": 97.22212499997113,
      "v": 14
    },
    {
      "midi": 71,
      "hit": false,
      "t": 303339.97443750035,
      "d": 194.44425000000047,
      "v": 18
    },
    {
      "midi": 59,
      "hit": false,
      "t": 303346.9188750003,
      "d": 159.7220625000191,
      "v": 13
    },
    {
      "midi": 64,
      "hit": false,
      "t": 303506.64093750034,
      "d": 118.05543750000652,
      "v": 18
    },
    {
      "midi": 68,
      "hit": false,
      "t": 303659.41856250033,
      "d": 97.22212499997113,
      "v": 19
    },
    {
      "midi": 73,
      "hit": false,
      "t": 303826.0850625003,
      "d": 76.38881249999395,
      "v": 12
    },
    {
      "midi": 61,
      "hit": false,
      "t": 303833.0295000003,
      "d": 69.44437500002095,
      "v": 15
    },
    {
      "midi": 59,
      "hit": false,
      "t": 303999.6960000003,
      "d": 243.05531249998603,
      "v": 15
    },
    {
      "midi": 71,
      "hit": false,
      "t": 303999.6960000003,
      "d": 326.38856249995297,
      "v": 20
    },
    {
      "midi": 64,
      "hit": false,
      "t": 304291.36237500026,
      "d": 131.9443124999525,
      "v": 19
    },
    {
      "midi": 68,
      "hit": false,
      "t": 304471.9177500002,
      "d": 333.33299999998417,
      "v": 19
    },
    {
      "midi": 73,
      "hit": false,
      "t": 304839.97293750016,
      "d": 194.44424999994226,
      "v": 17
    },
    {
      "midi": 61,
      "hit": false,
      "t": 304846.91737500014,
      "d": 152.7776249999879,
      "v": 16
    },
    {
      "midi": 76,
      "hit": false,
      "t": 305159.4170625001,
      "d": 361.11074999993434,
      "v": 18
    },
    {
      "midi": 64,
      "hit": false,
      "t": 305166.36150000006,
      "d": 305.5552499999758,
      "v": 14
    },
    {
      "midi": 69,
      "hit": false,
      "t": 305492.7500625,
      "d": 138.8887499999837,
      "v": 20
    },
    {
      "midi": 73,
      "hit": false,
      "t": 305673.3054375,
      "d": 97.22212499997113,
      "v": 15
    },
    {
      "midi": 78,
      "hit": false,
      "t": 305839.9719375,
      "d": 90.27768749999814,
      "v": 18
    },
    {
      "midi": 66,
      "hit": false,
      "t": 305846.916375,
      "d": 69.44437500002095,
      "v": 15
    },
    {
      "midi": 64,
      "hit": false,
      "t": 306013.582875,
      "d": 138.8887499999837,
      "v": 18
    },
    {
      "midi": 76,
      "hit": false,
      "t": 306013.582875,
      "d": 180.55537499999627,
      "v": 19
    },
    {
      "midi": 69,
      "hit": false,
      "t": 306166.3605,
      "d": 111.11100000003353,
      "v": 20
    },
    {
      "midi": 73,
      "hit": false,
      "t": 306326.0825625,
      "d": 97.22212499997113,
      "v": 16
    },
    {
      "midi": 66,
      "hit": false,
      "t": 306492.7490625,
      "d": 76.38881249999395,
      "v": 14
    },
    {
      "midi": 78,
      "hit": false,
      "t": 306492.7490625,
      "d": 83.33324999996694,
      "v": 17
    },
    {
      "midi": 76,
      "hit": false,
      "t": 306666.36,
      "d": 326.38856249995297,
      "v": 19
    },
    {
      "midi": 64,
      "hit": false,
      "t": 306673.30443749996,
      "d": 277.7775000000256,
      "v": 17
    },
    {
      "midi": 69,
      "hit": false,
      "t": 306971.91524999996,
      "d": 159.72206249996088,
      "v": 19
    },
    {
      "midi": 73,
      "hit": false,
      "t": 307152.4706249999,
      "d": 305.5552499999758,
      "v": 17
    },
    {
      "midi": 78,
      "hit": false,
      "t": 307506.63693749986,
      "d": 152.7776249999879,
      "v": 16
    },
    {
      "midi": 66,
      "hit": false,
      "t": 307513.58137499983,
      "d": 159.7220625000191,
      "v": 14
    },
    {
      "midi": 71,
      "hit": false,
      "t": 307826.08106249984,
      "d": 347.22187499998836,
      "v": 19
    },
    {
      "midi": 59,
      "hit": false,
      "t": 307833.0254999998,
      "d": 284.7219374999986,
      "v": 17
    },
    {
      "midi": 64,
      "hit": false,
      "t": 308159.4140624998,
      "d": 138.8887499999837,
      "v": 19
    },
    {
      "midi": 68,
      "hit": false,
      "t": 308339.9694374998,
      "d": 104.16656250000233,
      "v": 17
    },
    {
      "midi": 61,
      "hit": false,
      "t": 308499.69149999984,
      "d": 97.22212499997113,
      "v": 13
    },
    {
      "midi": 73,
      "hit": false,
      "t": 308499.69149999984,
      "d": 97.22212499997113,
      "v": 15
    },
    {
      "midi": 71,
      "hit": false,
      "t": 308680.24687499984,
      "d": 180.55537499993807,
      "v": 19
    },
    {
      "midi": 59,
      "hit": false,
      "t": 308687.1913124998,
      "d": 138.8887499999837,
      "v": 17
    },
    {
      "midi": 64,
      "hit": false,
      "t": 308860.8022499998,
      "d": 90.27768749999814,
      "v": 19
    },
    {
      "midi": 68,
      "hit": false,
      "t": 309006.6354374998,
      "d": 83.33325000002515,
      "v": 16
    },
    {
      "midi": 61,
      "hit": false,
      "t": 309145.52418749983,
      "d": 83.33324999996694,
      "v": 15
    },
    {
      "midi": 73,
      "hit": false,
      "t": 309152.4686249998,
      "d": 76.38881249999395,
      "v": 15
    },
    {
      "midi": 59,
      "hit": false,
      "t": 309339.9684374998,
      "d": 270.8330624999944,
      "v": 17
    },
    {
      "midi": 71,
      "hit": false,
      "t": 309339.9684374998,
      "d": 340.27743750001537,
      "v": 18
    },
    {
      "midi": 64,
      "hit": false,
      "t": 309638.5792499998,
      "d": 152.7776249999879,
      "v": 18
    },
    {
      "midi": 68,
      "hit": false,
      "t": 309846.9123749998,
      "d": 291.6663749999716,
      "v": 17
    },
    {
      "midi": 61,
      "hit": false,
      "t": 310173.30093749973,
      "d": 159.72206249996088,
      "v": 15
    },
    {
      "midi": 73,
      "hit": false,
      "t": 310180.2453749997,
      "d": 180.55537499999627,
      "v": 15
    },
    {
      "midi": 76,
      "hit": false,
      "t": 310492.7450624997,
      "d": 388.88850000000093,
      "v": 17
    },
    {
      "midi": 64,
      "hit": false,
      "t": 310506.6339374997,
      "d": 340.27743750001537,
      "v": 15
    },
    {
      "midi": 69,
      "hit": false,
      "t": 310853.8558124997,
      "d": 111.11100000003353,
      "v": 19
    },
    {
      "midi": 73,
      "hit": false,
      "t": 310999.6889999997,
      "d": 104.16656250000233,
      "v": 17
    },
    {
      "midi": 66,
      "hit": false,
      "t": 311159.41106249974,
      "d": 333.33299999998417,
      "v": 14
    },
    {
      "midi": 78,
      "hit": false,
      "t": 311159.41106249974,
      "d": 361.11074999999255,
      "v": 18
    },
    {
      "midi": 69,
      "hit": false,
      "t": 311492.7440624997,
      "d": 131.9443125000107,
      "v": 20
    },
    {
      "midi": 78,
      "hit": false,
      "t": 311819.13262499974,
      "d": 97.22212499997113,
      "v": 15
    },
    {
      "midi": 66,
      "hit": false,
      "t": 311839.9659374997,
      "d": 76.38881249999395,
      "v": 14
    },
    {
      "midi": 76,
      "hit": false,
      "t": 311971.9102499997,
      "d": 347.22187499993015,
      "v": 19
    },
    {
      "midi": 64,
      "hit": false,
      "t": 311978.8546874997,
      "d": 319.44412499998,
      "v": 18
    },
    {
      "midi": 69,
      "hit": false,
      "t": 312298.2988124997,
      "d": 159.72206249996088,
      "v": 22
    },
    {
      "midi": 73,
      "hit": false,
      "t": 312485.79862499965,
      "d": 319.44412499998,
      "v": 19
    },
    {
      "midi": 78,
      "hit": false,
      "t": 312833.02049999963,
      "d": 180.55537499999627,
      "v": 19
    },
    {
      "midi": 66,
      "hit": false,
      "t": 312839.9649374996,
      "d": 180.55537499999627,
      "v": 16
    },
    {
      "midi": 71,
      "hit": false,
      "t": 313173.2979374996,
      "d": 347.22187499993015,
      "v": 20
    },
    {
      "midi": 59,
      "hit": false,
      "t": 313180.24237499957,
      "d": 312.499687500007,
      "v": 16
    },
    {
      "midi": 64,
      "hit": false,
      "t": 313499.68649999955,
      "d": 166.66649999999208,
      "v": 17
    },
    {
      "midi": 68,
      "hit": false,
      "t": 313673.2974374995,
      "d": 111.11099999997532,
      "v": 18
    },
    {
      "midi": 73,
      "hit": false,
      "t": 313826.0750624995,
      "d": 76.38881249999395,
      "v": 15
    },
    {
      "midi": 61,
      "hit": false,
      "t": 313833.0194999995,
      "d": 69.44437500002095,
      "v": 17
    },
    {
      "midi": 59,
      "hit": false,
      "t": 313992.7415624995,
      "d": 180.55537499999627,
      "v": 17
    },
    {
      "midi": 71,
      "hit": false,
      "t": 313999.68599999946,
      "d": 201.38868750003166,
      "v": 20
    },
    {
      "midi": 64,
      "hit": false,
      "t": 314173.2969374995,
      "d": 131.9443125000107,
      "v": 18
    },
    {
      "midi": 68,
      "hit": false,
      "t": 314319.1301249995,
      "d": 111.11099999997532,
      "v": 17
    },
    {
      "midi": 61,
      "hit": false,
      "t": 314492.74106249947,
      "d": 55.555499999958556,
      "v": 12
    },
    {
      "midi": 73,
      "hit": false,
      "t": 314499.68549999944,
      "d": 55.555499999958556,
      "v": 14
    },
    {
      "midi": 59,
      "hit": false,
      "t": 314659.4075624994,
      "d": 291.6663749999716,
      "v": 17
    },
    {
      "midi": 71,
      "hit": false,
      "t": 314659.4075624994,
      "d": 333.33299999998417,
      "v": 20
    },
    {
      "midi": 64,
      "hit": false,
      "t": 314964.9628124994,
      "d": 152.7776249999879,
      "v": 19
    },
    {
      "midi": 68,
      "hit": false,
      "t": 315145.5181874994,
      "d": 305.5552499999758,
      "v": 19
    },
    {
      "midi": 61,
      "hit": false,
      "t": 315485.79562499933,
      "d": 152.7776249999879,
      "v": 16
    },
    {
      "midi": 73,
      "hit": false,
      "t": 315485.79562499933,
      "d": 180.55537499999627,
      "v": 17
    },
    {
      "midi": 76,
      "hit": false,
      "t": 315805.2397499993,
      "d": 368.05518749990733,
      "v": 18
    },
    {
      "midi": 64,
      "hit": false,
      "t": 315826.0730624993,
      "d": 305.5552499999758,
      "v": 12
    },
    {
      "midi": 69,
      "hit": false,
      "t": 316166.35049999924,
      "d": 131.9443124999525,
      "v": 19
    },
    {
      "midi": 73,
      "hit": false,
      "t": 316333.0169999992,
      "d": 97.22212499997113,
      "v": 14
    },
    {
      "midi": 78,
      "hit": false,
      "t": 316492.73906249914,
      "d": 69.44437499996275,
      "v": 16
    },
    {
      "midi": 66,
      "hit": false,
      "t": 316513.5723749991,
      "d": 48.611062499985565,
      "v": 13
    },
    {
      "midi": 64,
      "hit": false,
      "t": 316659.4055624991,
      "d": 180.55537499999627,
      "v": 15
    },
    {
      "midi": 76,
      "hit": false,
      "t": 316659.4055624991,
      "d": 194.44425000000047,
      "v": 18
    },
    {
      "midi": 69,
      "hit": false,
      "t": 316833.0164999991,
      "d": 131.9443124999525,
      "v": 21
    },
    {
      "midi": 73,
      "hit": false,
      "t": 316978.84968749905,
      "d": 131.9443125000107,
      "v": 18
    },
    {
      "midi": 66,
      "hit": false,
      "t": 317152.4606249991,
      "d": 69.44437500002095,
      "v": 14
    },
    {
      "midi": 78,
      "hit": false,
      "t": 317152.4606249991,
      "d": 76.38881249999395,
      "v": 15
    },
    {
      "midi": 64,
      "hit": false,
      "t": 317326.07156249904,
      "d": 298.6108125000028,
      "v": 16
    },
    {
      "midi": 76,
      "hit": false,
      "t": 317326.07156249904,
      "d": 333.33299999998417,
      "v": 19
    },
    {
      "midi": 69,
      "hit": false,
      "t": 317638.57124999905,
      "d": 138.8887499999837,
      "v": 20
    },
    {
      "midi": 73,
      "hit": false,
      "t": 317819.12662499904,
      "d": 298.6108125000028,
      "v": 17
    },
    {
      "midi": 78,
      "hit": false,
      "t": 318159.40406249906,
      "d": 138.8887499999837,
      "v": 18
    },
    {
      "midi": 66,
      "hit": false,
      "t": 318166.34849999903,
      "d": 152.7776249999879,
      "v": 17
    },
    {
      "midi": 59,
      "hit": false,
      "t": 318485.792624999,
      "d": 291.6663749999716,
      "v": 16
    },
    {
      "midi": 71,
      "hit": false,
      "t": 318485.792624999,
      "d": 347.22187499998836,
      "v": 19
    },
    {
      "midi": 64,
      "hit": false,
      "t": 318819.125624999,
      "d": 145.8331875000149,
      "v": 15
    },
    {
      "midi": 68,
      "hit": false,
      "t": 318985.792124999,
      "d": 76.38881249999395,
      "v": 15
    },
    {
      "midi": 73,
      "hit": false,
      "t": 319138.569749999,
      "d": 76.38881249999395,
      "v": 11
    },
    {
      "midi": 61,
      "hit": false,
      "t": 319138.569749999,
      "d": 83.33324999996694,
      "v": 12
    },
    {
      "midi": 71,
      "hit": false,
      "t": 319312.18068749894,
      "d": 173.61093749996508,
      "v": 19
    },
    {
      "midi": 59,
      "hit": false,
      "t": 319326.06956249895,
      "d": 131.9443125000107,
      "v": 13
    },
    {
      "midi": 64,
      "hit": false,
      "t": 319478.84718749893,
      "d": 145.8331874999567,
      "v": 18
    },
    {
      "midi": 68,
      "hit": false,
      "t": 319631.62481249886,
      "d": 138.8887499999837,
      "v": 18
    },
    {
      "midi": 73,
      "hit": false,
      "t": 319812.18018749886,
      "d": 76.38881249999395,
      "v": 14
    },
    {
      "midi": 61,
      "hit": false,
      "t": 319826.06906249886,
      "d": 69.44437499996275,
      "v": 9
    },
    {
      "midi": 71,
      "hit": false,
      "t": 319992.7355624988,
      "d": 319.44412499998,
      "v": 17
    },
    {
      "midi": 59,
      "hit": false,
      "t": 319999.67999999877,
      "d": 277.7775000000256,
      "v": 14
    },
    {
      "midi": 64,
      "hit": false,
      "t": 320312.1796874988,
      "d": 145.8331875000149,
      "v": 16
    },
    {
      "midi": 68,
      "hit": false,
      "t": 320478.84618749877,
      "d": 298.6108125000028,
      "v": 18
    },
    {
      "midi": 61,
      "hit": false,
      "t": 320819.1236249988,
      "d": 104.16656249994412,
      "v": 13
    },
    {
      "midi": 73,
      "hit": false,
      "t": 320826.06806249876,
      "d": 124.99987499997951,
      "v": 15
    },
    {
      "midi": 76,
      "hit": false,
      "t": 321152.4566249987,
      "d": 368.05518750002375,
      "v": 17
    },
    {
      "midi": 64,
      "hit": false,
      "t": 321166.3454999987,
      "d": 284.7219374999986,
      "v": 14
    },
    {
      "midi": 69,
      "hit": false,
      "t": 321478.8451874987,
      "d": 159.7220625000191,
      "v": 18
    },
    {
      "midi": 73,
      "hit": false,
      "t": 321638.56724999874,
      "d": 166.66649999999208,
      "v": 18
    },
    {
      "midi": 66,
      "hit": false,
      "t": 321819.12262499874,
      "d": 361.11074999999255,
      "v": 16
    },
    {
      "midi": 78,
      "hit": false,
      "t": 321819.12262499874,
      "d": 361.11074999999255,
      "v": 17
    },
    {
      "midi": 69,
      "hit": false,
      "t": 322166.3444999987,
      "d": 138.8887499999837,
      "v": 23
    },
    {
      "midi": 73,
      "hit": false,
      "t": 322319.1221249987,
      "d": 124.99987499997951,
      "v": 17
    },
    {
      "midi": 78,
      "hit": false,
      "t": 322478.8441874987,
      "d": 76.38881249999395,
      "v": 18
    },
    {
      "midi": 66,
      "hit": false,
      "t": 322485.78862499865,
      "d": 69.44437500002095,
      "v": 15
    },
    {
      "midi": 64,
      "hit": false,
      "t": 322652.45512499864,
      "d": 312.499687500007,
      "v": 17
    },
    {
      "midi": 76,
      "hit": false,
      "t": 322652.45512499864,
      "d": 340.27743749995716,
      "v": 19
    },
    {
      "midi": 69,
      "hit": false,
      "t": 322971.8992499986,
      "d": 152.7776249999879,
      "v": 22
    },
    {
      "midi": 73,
      "hit": false,
      "t": 323152.4546249986,
      "d": 312.499687500007,
      "v": 17
    },
    {
      "midi": 78,
      "hit": false,
      "t": 323485.7876249986,
      "d": 159.72206249996088,
      "v": 17
    },
    {
      "midi": 66,
      "hit": false,
      "t": 323492.7320624986,
      "d": 166.66649999999208,
      "v": 15
    },
    {
      "midi": 59,
      "hit": false,
      "t": 323812.17618749855,
      "d": 347.22187499998836,
      "v": 17
    },
    {
      "midi": 71,
      "hit": false,
      "t": 323812.17618749855,
      "d": 368.05518749996554,
      "v": 19
    },
    {
      "midi": 64,
      "hit": false,
      "t": 324138.56474999856,
      "d": 152.77762499992969,
      "v": 17
    },
    {
      "midi": 68,
      "hit": false,
      "t": 324312.1756874985,
      "d": 104.16656250000233,
      "v": 16
    },
    {
      "midi": 73,
      "hit": false,
      "t": 324485.7866249985,
      "d": 69.44437499996275,
      "v": 15
    },
    {
      "midi": 61,
      "hit": false,
      "t": 324492.73106249847,
      "d": 69.44437499996275,
      "v": 9
    },
    {
      "midi": 71,
      "hit": false,
      "t": 324659.3975624984,
      "d": 180.55537499999627,
      "v": 18
    },
    {
      "midi": 59,
      "hit": false,
      "t": 324666.3419999984,
      "d": 145.8331875000149,
      "v": 13
    },
    {
      "midi": 64,
      "hit": false,
      "t": 324826.0640624984,
      "d": 124.99987499997951,
      "v": 17
    },
    {
      "midi": 68,
      "hit": false,
      "t": 324978.8416874984,
      "d": 118.05543750000652,
      "v": 18
    },
    {
      "midi": 73,
      "hit": false,
      "t": 325166.3414999984,
      "d": 48.611062499985565,
      "v": 14
    },
    {
      "midi": 61,
      "hit": false,
      "t": 325166.3414999984,
      "d": 69.44437499996275,
      "v": 11
    },
    {
      "midi": 71,
      "hit": false,
      "t": 325326.06356249837,
      "d": 326.38856249995297,
      "v": 19
    },
    {
      "midi": 59,
      "hit": false,
      "t": 325333.00799999834,
      "d": 284.7219374999986,
      "v": 15
    },
    {
      "midi": 64,
      "hit": false,
      "t": 325638.5632499983,
      "d": 152.7776249999879,
      "v": 18
    },
    {
      "midi": 68,
      "hit": false,
      "t": 325812.1741874983,
      "d": 333.33299999998417,
      "v": 18
    },
    {
      "midi": 61,
      "hit": false,
      "t": 326166.34049999824,
      "d": 180.55537499999627,
      "v": 12
    },
    {
      "midi": 73,
      "hit": false,
      "t": 326173.2849374982,
      "d": 201.38868750003166,
      "v": 15
    },
    {
      "midi": 64,
      "hit": false,
      "t": 326499.6734999982,
      "d": 305.5552499999758,
      "v": 13
    },
    {
      "midi": 76,
      "hit": false,
      "t": 326499.6734999982,
      "d": 340.27743749995716,
      "v": 13
    },
    {
      "midi": 69,
      "hit": false,
      "t": 326833.0064999982,
      "d": 118.05543749994831,
      "v": 19
    },
    {
      "midi": 73,
      "hit": false,
      "t": 327020.5063124982,
      "d": 90.27768749999814,
      "v": 14
    },
    {
      "midi": 78,
      "hit": false,
      "t": 327159.39506249817,
      "d": 97.22212499997113,
      "v": 17
    },
    {
      "midi": 66,
      "hit": false,
      "t": 327173.28393749817,
      "d": 76.38881249999395,
      "v": 11
    },
    {
      "midi": 64,
      "hit": false,
      "t": 327333.00599999813,
      "d": 159.7220625000191,
      "v": 17
    },
    {
      "midi": 76,
      "hit": false,
      "t": 327333.00599999813,
      "d": 187.49981250002747,
      "v": 19
    },
    {
      "midi": 69,
      "hit": false,
      "t": 327506.61693749815,
      "d": 118.05543750000652,
      "v": 20
    },
    {
      "midi": 73,
      "hit": false,
      "t": 327652.45012499817,
      "d": 111.11099999997532,
      "v": 15
    },
    {
      "midi": 78,
      "hit": false,
      "t": 327819.11662499816,
      "d": 83.33325000002515,
      "v": 14
    },
    {
      "midi": 66,
      "hit": false,
      "t": 327846.89437499817,
      "d": 55.555500000016764,
      "v": 15
    },
    {
      "midi": 64,
      "hit": false,
      "t": 327992.7275624982,
      "d": 263.8886250000214,
      "v": 16
    },
    {
      "midi": 76,
      "hit": false,
      "t": 327992.7275624982,
      "d": 305.555250000034,
      "v": 19
    },
    {
      "midi": 69,
      "hit": false,
      "t": 328284.3939374982,
      "d": 173.61093750002328,
      "v": 19
    },
    {
      "midi": 73,
      "hit": false,
      "t": 328499.67149999825,
      "d": 298.6108125000028,
      "v": 17
    },
    {
      "midi": 78,
      "hit": false,
      "t": 328812.17118749826,
      "d": 208.33312500000466,
      "v": 18
    },
    {
      "midi": 66,
      "hit": false,
      "t": 328826.06006249826,
      "d": 201.38868749997346,
      "v": 16
    },
    {
      "midi": 71,
      "hit": false,
      "t": 329173.28193749825,
      "d": 347.22187499993015,
      "v": 18
    },
    {
      "midi": 59,
      "hit": false,
      "t": 329180.2263749982,
      "d": 284.7219374999986,
      "v": 17
    },
    {
      "midi": 64,
      "hit": false,
      "t": 329513.5593749982,
      "d": 145.8331874999567,
      "v": 9
    },
    {
      "midi": 68,
      "hit": false,
      "t": 329666.33699999814,
      "d": 124.99987499997951,
      "v": 16
    },
    {
      "midi": 73,
      "hit": false,
      "t": 329812.1701874981,
      "d": 354.16631250001956,
      "v": 16
    },
    {
      "midi": 61,
      "hit": false,
      "t": 329812.1701874981,
      "d": 374.99962499999674,
      "v": 13
    },
    {
      "midi": 64,
      "hit": false,
      "t": 330180.2253749981,
      "d": 131.9443124999525,
      "v": 18
    },
    {
      "midi": 68,
      "hit": false,
      "t": 330339.9474374981,
      "d": 97.22212499997113,
      "v": 17
    },
    {
      "midi": 73,
      "hit": false,
      "t": 330478.83618749806,
      "d": 76.38881249999395,
      "v": 15
    },
    {
      "midi": 61,
      "hit": false,
      "t": 330485.78062499803,
      "d": 76.38881249999395,
      "v": 10
    },
    {
      "midi": 59,
      "hit": false,
      "t": 330666.33599999803,
      "d": 284.7219374999986,
      "v": 17
    },
    {
      "midi": 71,
      "hit": false,
      "t": 330666.33599999803,
      "d": 326.38856249995297,
      "v": 20
    },
    {
      "midi": 64,
      "hit": false,
      "t": 330971.891249998,
      "d": 145.8331874999567,
      "v": 18
    },
    {
      "midi": 68,
      "hit": false,
      "t": 331145.502187498,
      "d": 326.3885625000112,
      "v": 18
    },
    {
      "midi": 61,
      "hit": false,
      "t": 331499.668499998,
      "d": 145.8331875000149,
      "v": 15
    },
    {
      "midi": 73,
      "hit": false,
      "t": 331499.668499998,
      "d": 187.49981250002747,
      "v": 17
    },
    {
      "midi": 64,
      "hit": false,
      "t": 331826.057062498,
      "d": 333.33299999998417,
      "v": 17
    },
    {
      "midi": 76,
      "hit": false,
      "t": 331826.057062498,
      "d": 354.16631249996135,
      "v": 19
    },
    {
      "midi": 69,
      "hit": false,
      "t": 332166.33449999796,
      "d": 152.7776249999879,
      "v": 20
    },
    {
      "midi": 73,
      "hit": false,
      "t": 332346.88987499796,
      "d": 131.9443125000107,
      "v": 15
    },
    {
      "midi": 78,
      "hit": false,
      "t": 332499.66749999794,
      "d": 333.33299999998417,
      "v": 17
    },
    {
      "midi": 66,
      "hit": false,
      "t": 332499.66749999794,
      "d": 340.27743749995716,
      "v": 19
    },
    {
      "midi": 69,
      "hit": false,
      "t": 332846.8893749979,
      "d": 111.11099999997532,
      "v": 19
    },
    {
      "midi": 73,
      "hit": false,
      "t": 333006.61143749784,
      "d": 90.27768749999814,
      "v": 14
    },
    {
      "midi": 78,
      "hit": false,
      "t": 333138.55574999785,
      "d": 69.44437499996275,
      "v": 16
    },
    {
      "midi": 66,
      "hit": false,
      "t": 333145.5001874978,
      "d": 76.38881249999395,
      "v": 14
    },
    {
      "midi": 76,
      "hit": false,
      "t": 333305.22224999784,
      "d": 374.99962499993853,
      "v": 20
    },
    {
      "midi": 64,
      "hit": false,
      "t": 333312.1666874978,
      "d": 319.44412499998,
      "v": 15
    },
    {
      "midi": 69,
      "hit": false,
      "t": 333666.3329999978,
      "d": 145.8331875000149,
      "v": 22
    },
    {
      "midi": 73,
      "hit": false,
      "t": 333839.9439374978,
      "d": 319.44412499998,
      "v": 17
    },
    {
      "midi": 78,
      "hit": false,
      "t": 334180.22137499775,
      "d": 187.49981249996927,
      "v": 19
    },
    {
      "midi": 66,
      "hit": false,
      "t": 334187.1658124977,
      "d": 187.49981249996927,
      "v": 17
    },
    {
      "midi": 71,
      "hit": false,
      "t": 334520.4988124977,
      "d": 340.27743749989895,
      "v": 18
    },
    {
      "midi": 59,
      "hit": false,
      "t": 334527.4432499977,
      "d": 291.6663749999716,
      "v": 16
    },
    {
      "midi": 64,
      "hit": false,
      "t": 334839.94293749763,
      "d": 124.99987499997951,
      "v": 18
    },
    {
      "midi": 68,
      "hit": false,
      "t": 334992.7205624976,
      "d": 104.16656250000233,
      "v": 17
    },
    {
      "midi": 73,
      "hit": false,
      "t": 335152.44262499764,
      "d": 76.38881249999395,
      "v": 16
    },
    {
      "midi": 61,
      "hit": false,
      "t": 335152.44262499764,
      "d": 83.33324999996694,
      "v": 14
    },
    {
      "midi": 59,
      "hit": false,
      "t": 335319.10912499763,
      "d": 159.7220625000191,
      "v": 17
    },
    {
      "midi": 71,
      "hit": false,
      "t": 335319.10912499763,
      "d": 194.44425000000047,
      "v": 20
    },
    {
      "midi": 64,
      "hit": false,
      "t": 335492.72006249765,
      "d": 124.99987499997951,
      "v": 18
    },
    {
      "midi": 68,
      "hit": false,
      "t": 335645.49768749764,
      "d": 104.16656250000233,
      "v": 19
    },
    {
      "midi": 61,
      "hit": false,
      "t": 335805.21974999766,
      "d": 76.38881249999395,
      "v": 14
    },
    {
      "midi": 73,
      "hit": false,
      "t": 335812.16418749763,
      "d": 55.555500000016764,
      "v": 15
    },
    {
      "midi": 59,
      "hit": false,
      "t": 335971.88624999765,
      "d": 312.4996874999488,
      "v": 16
    },
    {
      "midi": 71,
      "hit": false,
      "t": 335978.8306874976,
      "d": 374.99962499999674,
      "v": 20
    },
    {
      "midi": 64,
      "hit": false,
      "t": 336312.1636874976,
      "d": 159.7220625000191,
      "v": 19
    },
    {
      "midi": 68,
      "hit": false,
      "t": 336499.66349999764,
      "d": 305.5552499999758,
      "v": 19
    },
    {
      "midi": 61,
      "hit": false,
      "t": 336826.0520624976,
      "d": 180.55537499999627,
      "v": 16
    },
    {
      "midi": 73,
      "hit": false,
      "t": 336826.0520624976,
      "d": 208.33312500000466,
      "v": 18
    },
    {
      "midi": 76,
      "hit": false,
      "t": 337159.3850624976,
      "d": 368.05518749996554,
      "v": 21
    },
    {
      "midi": 64,
      "hit": false,
      "t": 337166.32949999755,
      "d": 312.499687500007,
      "v": 15
    },
    {
      "midi": 69,
      "hit": false,
      "t": 337499.66249999753,
      "d": 152.7776249999879,
      "v": 19
    },
    {
      "midi": 73,
      "hit": false,
      "t": 337666.3289999975,
      "d": 159.7220625000191,
      "v": 15
    },
    {
      "midi": 66,
      "hit": false,
      "t": 337832.9954999975,
      "d": 319.44412499998,
      "v": 17
    },
    {
      "midi": 78,
      "hit": false,
      "t": 337832.9954999975,
      "d": 347.22187499998836,
      "v": 19
    },
    {
      "midi": 69,
      "hit": false,
      "t": 338152.4396249975,
      "d": 131.9443125000107,
      "v": 21
    },
    {
      "midi": 73,
      "hit": false,
      "t": 338326.0505624975,
      "d": 97.22212499997113,
      "v": 16
    },
    {
      "midi": 78,
      "hit": false,
      "t": 338464.9393124975,
      "d": 90.27768749999814,
      "v": 17
    },
    {
      "midi": 66,
      "hit": false,
      "t": 338478.8281874975,
      "d": 76.38881249999395,
      "v": 14
    },
    {
      "midi": 76,
      "hit": false,
      "t": 338652.4391249975,
      "d": 361.11074999999255,
      "v": 19
    },
    {
      "midi": 64,
      "hit": false,
      "t": 338659.38356249745,
      "d": 298.6108125000028,
      "v": 16
    },
    {
      "midi": 69,
      "hit": false,
      "t": 338985.77212499746,
      "d": 166.66649999999208,
      "v": 21
    },
    {
      "midi": 73,
      "hit": false,
      "t": 339173.2719374974,
      "d": 305.5552499999758,
      "v": 19
    },
    {
      "midi": 78,
      "hit": false,
      "t": 339506.6049374974,
      "d": 173.61093749996508,
      "v": 18
    },
    {
      "midi": 66,
      "hit": false,
      "t": 339513.5493749974,
      "d": 166.66649999999208,
      "v": 17
    },
    {
      "midi": 71,
      "hit": false,
      "t": 339826.0490624974,
      "d": 381.9440624999115,
      "v": 19
    },
    {
      "midi": 59,
      "hit": false,
      "t": 339832.99349999736,
      "d": 333.33299999998417,
      "v": 18
    },
    {
      "midi": 64,
      "hit": false,
      "t": 340173.2709374973,
      "d": 152.7776249999879,
      "v": 18
    },
    {
      "midi": 68,
      "hit": false,
      "t": 340332.9929999973,
      "d": 124.99987499997951,
      "v": 17
    },
    {
      "midi": 73,
      "hit": false,
      "t": 340485.77062499727,
      "d": 354.16631249996135,
      "v": 17
    },
    {
      "midi": 61,
      "hit": false,
      "t": 340492.71506249724,
      "d": 312.499687500007,
      "v": 15
    },
    {
      "midi": 64,
      "hit": false,
      "t": 340812.1591874972,
      "d": 145.8331875000149,
      "v": 18
    },
    {
      "midi": 68,
      "hit": false,
      "t": 340978.8256874972,
      "d": 131.9443125000107,
      "v": 18
    },
    {
      "midi": 61,
      "hit": false,
      "t": 341131.6033124972,
      "d": 83.33325000002515,
      "v": 11
    },
    {
      "midi": 73,
      "hit": false,
      "t": 341131.6033124972,
      "d": 90.27768749999814,
      "v": 15
    },
    {
      "midi": 71,
      "hit": false,
      "t": 341312.1586874972,
      "d": 361.11074999993434,
      "v": 18
    },
    {
      "midi": 59,
      "hit": false,
      "t": 341319.1031249972,
      "d": 284.7219374999986,
      "v": 15
    },
    {
      "midi": 64,
      "hit": false,
      "t": 341638.54724999715,
      "d": 152.7776249999879,
      "v": 18
    },
    {
      "midi": 68,
      "hit": false,
      "t": 341812.1581874971,
      "d": 326.3885625000112,
      "v": 19
    },
    {
      "midi": 61,
      "hit": false,
      "t": 342159.3800624971,
      "d": 187.49981250002747,
      "v": 15
    },
    {
      "midi": 73,
      "hit": false,
      "t": 342159.3800624971,
      "d": 208.33312500000466,
      "v": 17
    },
    {
      "midi": 64,
      "hit": false,
      "t": 342499.6574999971,
      "d": 340.27743749995716,
      "v": 15
    },
    {
      "midi": 76,
      "hit": false,
      "t": 342506.6019374971,
      "d": 368.05518749996554,
      "v": 18
    },
    {
      "midi": 69,
      "hit": false,
      "t": 342846.87937499705,
      "d": 131.9443125000107,
      "v": 20
    },
    {
      "midi": 73,
      "hit": false,
      "t": 342985.76812499703,
      "d": 138.8887499999837,
      "v": 18
    },
    {
      "midi": 66,
      "hit": false,
      "t": 343152.434624997,
      "d": 347.22187499998836,
      "v": 16
    },
    {
      "midi": 78,
      "hit": false,
      "t": 343152.434624997,
      "d": 368.05518749996554,
      "v": 19
    },
    {
      "midi": 69,
      "hit": false,
      "t": 343499.656499997,
      "d": 138.8887499999837,
      "v": 22
    },
    {
      "midi": 73,
      "hit": false,
      "t": 343659.378562497,
      "d": 104.16656250000233,
      "v": 17
    },
    {
      "midi": 78,
      "hit": false,
      "t": 343798.26731249696,
      "d": 97.22212500002934,
      "v": 18
    },
    {
      "midi": 66,
      "hit": false,
      "t": 343812.15618749696,
      "d": 83.33325000002515,
      "v": 11
    },
    {
      "midi": 64,
      "hit": false,
      "t": 343985.767124997,
      "d": 298.6108125000028,
      "v": 17
    },
    {
      "midi": 76,
      "hit": false,
      "t": 343985.767124997,
      "d": 347.22187499998836,
      "v": 19
    },
    {
      "midi": 69,
      "hit": false,
      "t": 344326.044562497,
      "d": 180.55537499999627,
      "v": 20
    },
    {
      "midi": 73,
      "hit": false,
      "t": 344513.54437499697,
      "d": 319.44412499998,
      "v": 18
    },
    {
      "midi": 66,
      "hit": false,
      "t": 344853.8218124969,
      "d": 159.7220625000191,
      "v": 16
    },
    {
      "midi": 78,
      "hit": false,
      "t": 344853.8218124969,
      "d": 159.7220625000191,
      "v": 17
    },
    {
      "midi": 71,
      "hit": false,
      "t": 345166.32149999694,
      "d": 347.22187499993015,
      "v": 18
    },
    {
      "midi": 59,
      "hit": false,
      "t": 345173.2659374969,
      "d": 291.6663749999716,
      "v": 15
    },
    {
      "midi": 64,
      "hit": false,
      "t": 345471.87674999685,
      "d": 166.66649999999208,
      "v": 18
    },
    {
      "midi": 68,
      "hit": false,
      "t": 345659.3765624968,
      "d": 124.99987499997951,
      "v": 19
    },
    {
      "midi": 73,
      "hit": false,
      "t": 345826.0430624968,
      "d": 76.38881249999395,
      "v": 12
    },
    {
      "midi": 61,
      "hit": false,
      "t": 345832.9874999968,
      "d": 76.38881249999395,
      "v": 12
    },
    {
      "midi": 59,
      "hit": false,
      "t": 345999.6539999968,
      "d": 166.66649999999208,
      "v": 15
    },
    {
      "midi": 71,
      "hit": false,
      "t": 345999.6539999968,
      "d": 173.61093749996508,
      "v": 19
    },
    {
      "midi": 64,
      "hit": false,
      "t": 346166.3204999968,
      "d": 118.05543749994831,
      "v": 19
    },
    {
      "midi": 68,
      "hit": false,
      "t": 346305.2092499967,
      "d": 118.05543750000652,
      "v": 18
    },
    {
      "midi": 73,
      "hit": false,
      "t": 346471.8757499967,
      "d": 69.44437499996275,
      "v": 14
    },
    {
      "midi": 61,
      "hit": false,
      "t": 346478.82018749666,
      "d": 76.38881249999395,
      "v": 14
    },
    {
      "midi": 71,
      "hit": false,
      "t": 346659.37556249666,
      "d": 340.27743749995716,
      "v": 19
    },
    {
      "midi": 59,
      "hit": false,
      "t": 346666.31999999663,
      "d": 263.8886250000214,
      "v": 15
    },
    {
      "midi": 64,
      "hit": false,
      "t": 346964.93081249663,
      "d": 180.55537499999627,
      "v": 19
    },
    {
      "midi": 68,
      "hit": false,
      "t": 347166.3194999966,
      "d": 305.5552499999758,
      "v": 18
    },
    {
      "midi": 61,
      "hit": false,
      "t": 347485.7636249966,
      "d": 208.33312500000466,
      "v": 16
    },
    {
      "midi": 73,
      "hit": false,
      "t": 347485.7636249966,
      "d": 243.05531249998603,
      "v": 17
    },
    {
      "midi": 76,
      "hit": false,
      "t": 347826.04106249654,
      "d": 368.05518749996554,
      "v": 20
    },
    {
      "midi": 64,
      "hit": false,
      "t": 347832.9854999965,
      "d": 312.499687500007,
      "v": 16
    },
    {
      "midi": 69,
      "hit": false,
      "t": 348166.3184999965,
      "d": 152.7776249999879,
      "v": 19
    },
    {
      "midi": 73,
      "hit": false,
      "t": 348326.04056249646,
      "d": 138.8887499999837,
      "v": 16
    },
    {
      "midi": 78,
      "hit": false,
      "t": 348485.7626249964,
      "d": 354.16631249996135,
      "v": 16
    },
    {
      "midi": 66,
      "hit": false,
      "t": 348492.7070624964,
      "d": 333.33299999998417,
      "v": 16
    },
    {
      "midi": 69,
      "hit": false,
      "t": 348812.1511874964,
      "d": 138.8887499999837,
      "v": 22
    },
    {
      "midi": 73,
      "hit": false,
      "t": 348978.81768749637,
      "d": 124.99987499997951,
      "v": 15
    },
    {
      "midi": 78,
      "hit": false,
      "t": 349138.53974999633,
      "d": 69.44437499996275,
      "v": 17
    },
    {
      "midi": 66,
      "hit": false,
      "t": 349145.4841874963,
      "d": 69.44437499996275,
      "v": 14
    },
    {
      "midi": 64,
      "hit": false,
      "t": 349319.09512499627,
      "d": 284.7219374999404,
      "v": 16
    },
    {
      "midi": 76,
      "hit": false,
      "t": 349319.09512499627,
      "d": 333.33299999992596,
      "v": 19
    },
    {
      "midi": 69,
      "hit": false,
      "t": 349326.03956249624,
      "d": 312.4996874999488,
      "v": 19
    },
    {
      "midi": 57,
      "hit": false,
      "t": 349332.9839999962,
      "d": 305.5552499999758,
      "v": 17
    },
    {
      "midi": 69,
      "hit": false,
      "t": 349638.5392499962,
      "d": 152.7776249999879,
      "v": 20
    },
    {
      "midi": 62,
      "hit": false,
      "t": 349652.4281249962,
      "d": 138.8887499999837,
      "v": 17
    },
    {
      "midi": 66,
      "hit": false,
      "t": 349812.15018749615,
      "d": 208.33312499994645,
      "v": 12
    },
    {
      "midi": 73,
      "hit": false,
      "t": 349819.0946249961,
      "d": 326.38856249995297,
      "v": 16
    },
    {
      "midi": 71,
      "hit": false,
      "t": 350159.3720624961,
      "d": 243.05531249998603,
      "v": 19
    },
    {
      "midi": 66,
      "hit": false,
      "t": 350166.31649999606,
      "d": 187.49981250002747,
      "v": 16
    },
    {
      "midi": 78,
      "hit": false,
      "t": 350166.31649999606,
      "d": 194.44425000000047,
      "v": 18
    },
    {
      "midi": 59,
      "hit": false,
      "t": 350180.20537499606,
      "d": 194.44425000000047,
      "v": 11
    },
    {
      "midi": 57,
      "hit": false,
      "t": 350673.26043749606,
      "d": 1687.4983125000144,
      "v": 20
    },
    {
      "midi": 69,
      "hit": false,
      "t": 350673.26043749606,
      "d": 1694.4427499999874,
      "v": 19
    },
    {
      "midi": 61,
      "hit": false,
      "t": 350673.26043749606,
      "d": 1715.2760624999646,
      "v": 17
    },
    {
      "midi": 61,
      "hit": false,
      "t": 352978.813687496,
      "d": 83.33324999996694,
      "v": 13
    },
    {
      "midi": 69,
      "hit": false,
      "t": 352978.813687496,
      "d": 90.27768749993993,
      "v": 19
    },
    {
      "midi": 64,
      "hit": false,
      "t": 352985.758124996,
      "d": 69.44437500002095,
      "v": 19
    },
    {
      "midi": 64,
      "hit": false,
      "t": 353152.42462499597,
      "d": 118.05543750000652,
      "v": 21
    },
    {
      "midi": 69,
      "hit": false,
      "t": 353152.42462499597,
      "d": 131.9443125000107,
      "v": 20
    },
    {
      "midi": 61,
      "hit": false,
      "t": 353152.42462499597,
      "d": 138.8887499999837,
      "v": 17
    }
  ]
}