{
  "jsonPath": "Unknown/Unknown/I Virtuosi Di Roma/allegro.json",
  "path": "Unknown\\Unknown\\I Virtuosi Di Roma\\Allegro.mid",
  "name": "Allegro",
  "difficulty": "Advanced",
  "bpm": 70.00023333411112,
  "notes": [
    {
      "midi": 60,
      "hit": false,
      "t": 3566.174687500001,
      "d": 1360.2934375000004,
      "v": 55
    },
    {
      "midi": 57,
      "hit": false,
      "t": 3566.174687500001,
      "d": 1384.8032291666668,
      "v": 55
    },
    {
      "midi": 65,
      "hit": false,
      "t": 3566.174687500001,
      "d": 1384.8032291666668,
      "v": 55
    },
    {
      "midi": 41,
      "hit": false,
      "t": 3602.939375000001,
      "d": 588.2349999999997,
      "v": 55
    },
    {
      "midi": 53,
      "hit": false,
      "t": 4166.664583333334,
      "d": 134.8038541666665,
      "v": 55
    },
    {
      "midi": 53,
      "hit": false,
      "t": 4779.409375000001,
      "d": 147.05875000000015,
      "v": 55
    },
    {
      "midi": 57,
      "hit": false,
      "t": 5392.154166666668,
      "d": 1249.9993750000012,
      "v": 55
    },
    {
      "midi": 60,
      "hit": false,
      "t": 5392.154166666668,
      "d": 1249.9993750000012,
      "v": 55
    },
    {
      "midi": 65,
      "hit": false,
      "t": 5392.154166666668,
      "d": 1262.2542708333349,
      "v": 55
    },
    {
      "midi": 41,
      "hit": false,
      "t": 5404.409062500002,
      "d": 575.9801041666669,
      "v": 55
    },
    {
      "midi": 53,
      "hit": false,
      "t": 5955.879375000002,
      "d": 122.54895833333285,
      "v": 55
    },
    {
      "midi": 53,
      "hit": false,
      "t": 6519.6045833333355,
      "d": 171.56854166666744,
      "v": 55
    },
    {
      "midi": 57,
      "hit": false,
      "t": 7095.584687500003,
      "d": 208.33322916666657,
      "v": 55
    },
    {
      "midi": 60,
      "hit": false,
      "t": 7095.584687500003,
      "d": 208.33322916666657,
      "v": 55
    },
    {
      "midi": 65,
      "hit": false,
      "t": 7107.839583333337,
      "d": 269.607708333333,
      "v": 55
    },
    {
      "midi": 41,
      "hit": false,
      "t": 7107.839583333337,
      "d": 392.15666666666675,
      "v": 55
    },
    {
      "midi": 53,
      "hit": false,
      "t": 7487.74135416667,
      "d": 245.0979166666666,
      "v": 55
    },
    {
      "midi": 62,
      "hit": false,
      "t": 7671.56479166667,
      "d": 1139.7053125000011,
      "v": 55
    },
    {
      "midi": 67,
      "hit": false,
      "t": 7683.819687500004,
      "d": 171.56854166666653,
      "v": 55
    },
    {
      "midi": 70,
      "hit": false,
      "t": 7683.819687500004,
      "d": 171.56854166666653,
      "v": 55
    },
    {
      "midi": 46,
      "hit": false,
      "t": 7708.32947916667,
      "d": 257.35281250000025,
      "v": 55
    },
    {
      "midi": 69,
      "hit": false,
      "t": 8247.544895833338,
      "d": 147.05875000000015,
      "v": 55
    },
    {
      "midi": 65,
      "hit": false,
      "t": 8247.544895833338,
      "d": 159.3136458333338,
      "v": 55
    },
    {
      "midi": 47,
      "hit": false,
      "t": 8272.054687500005,
      "d": 208.33322916666657,
      "v": 55
    },
    {
      "midi": 64,
      "hit": false,
      "t": 8811.270104166671,
      "d": 661.7643750000007,
      "v": 55
    },
    {
      "midi": 48,
      "hit": false,
      "t": 8823.525000000005,
      "d": 196.07833333333292,
      "v": 55
    },
    {
      "midi": 67,
      "hit": false,
      "t": 8823.525000000005,
      "d": 1740.1952083333344,
      "v": 55
    },
    {
      "midi": 46,
      "hit": false,
      "t": 9105.387604166672,
      "d": 147.05875000000015,
      "v": 55
    },
    {
      "midi": 45,
      "hit": false,
      "t": 9436.269791666671,
      "d": 171.56854166666744,
      "v": 55
    },
    {
      "midi": 60,
      "hit": false,
      "t": 9460.779583333338,
      "d": 355.3919791666667,
      "v": 55
    },
    {
      "midi": 43,
      "hit": false,
      "t": 9742.642187500005,
      "d": 122.54895833333285,
      "v": 55
    },
    {
      "midi": 41,
      "hit": false,
      "t": 10036.759687500005,
      "d": 147.05875000000015,
      "v": 55
    },
    {
      "midi": 60,
      "hit": false,
      "t": 10061.269479166673,
      "d": 208.33322916666657,
      "v": 55
    },
    {
      "midi": 40,
      "hit": false,
      "t": 10343.13208333334,
      "d": 147.05875000000015,
      "v": 55
    },
    {
      "midi": 41,
      "hit": false,
      "t": 10674.014270833339,
      "d": 539.215416666666,
      "v": 55
    },
    {
      "midi": 60,
      "hit": false,
      "t": 10674.014270833339,
      "d": 1360.2934375000004,
      "v": 55
    },
    {
      "midi": 57,
      "hit": false,
      "t": 10674.014270833339,
      "d": 1372.548333333334,
      "v": 55
    },
    {
      "midi": 65,
      "hit": false,
      "t": 10674.014270833339,
      "d": 1384.8032291666677,
      "v": 55
    },
    {
      "midi": 53,
      "hit": false,
      "t": 11274.504166666671,
      "d": 98.03916666666737,
      "v": 55
    },
    {
      "midi": 53,
      "hit": false,
      "t": 11850.484270833338,
      "d": 171.56854166666744,
      "v": 55
    },
    {
      "midi": 41,
      "hit": false,
      "t": 12450.974166666672,
      "d": 526.9605208333342,
      "v": 55
    },
    {
      "midi": 65,
      "hit": false,
      "t": 12450.974166666672,
      "d": 1372.5483333333323,
      "v": 55
    },
    {
      "midi": 57,
      "hit": false,
      "t": 12463.229062500006,
      "d": 1311.2738541666658,
      "v": 55
    },
    {
      "midi": 60,
      "hit": false,
      "t": 12475.48395833334,
      "d": 1299.0189583333322,
      "v": 55
    },
    {
      "midi": 53,
      "hit": false,
      "t": 13014.699375000006,
      "d": 183.82343749999927,
      "v": 55
    },
    {
      "midi": 53,
      "hit": false,
      "t": 13615.189270833338,
      "d": 171.56854166666744,
      "v": 55
    },
    {
      "midi": 57,
      "hit": false,
      "t": 14154.404687500004,
      "d": 208.33322916666657,
      "v": 55
    },
    {
      "midi": 60,
      "hit": false,
      "t": 14154.404687500004,
      "d": 220.58812500000022,
      "v": 55
    },
    {
      "midi": 65,
      "hit": false,
      "t": 14154.404687500004,
      "d": 281.86260416666664,
      "v": 55
    },
    {
      "midi": 41,
      "hit": false,
      "t": 14166.659583333338,
      "d": 367.64687500000036,
      "v": 55
    },
    {
      "midi": 53,
      "hit": false,
      "t": 14534.306458333338,
      "d": 232.84302083333387,
      "v": 55
    },
    {
      "midi": 62,
      "hit": false,
      "t": 14718.129895833337,
      "d": 1188.724895833333,
      "v": 55
    },
    {
      "midi": 67,
      "hit": false,
      "t": 14730.384791666671,
      "d": 183.8234375000011,
      "v": 55
    },
    {
      "midi": 70,
      "hit": false,
      "t": 14730.384791666671,
      "d": 183.8234375000011,
      "v": 55
    },
    {
      "midi": 46,
      "hit": false,
      "t": 14754.894583333338,
      "d": 269.607708333333,
      "v": 55
    },
    {
      "midi": 65,
      "hit": false,
      "t": 15294.110000000004,
      "d": 159.3136458333338,
      "v": 55
    },
    {
      "midi": 69,
      "hit": false,
      "t": 15294.110000000004,
      "d": 159.3136458333338,
      "v": 55
    },
    {
      "midi": 47,
      "hit": false,
      "t": 15306.364895833338,
      "d": 196.07833333333292,
      "v": 55
    },
    {
      "midi": 64,
      "hit": false,
      "t": 15894.599895833337,
      "d": 674.0192708333343,
      "v": 55
    },
    {
      "midi": 67,
      "hit": false,
      "t": 15894.599895833337,
      "d": 1666.6658333333326,
      "v": 55
    },
    {
      "midi": 48,
      "hit": false,
      "t": 15931.364583333338,
      "d": 220.58812500000022,
      "v": 55
    },
    {
      "midi": 46,
      "hit": false,
      "t": 16225.482083333338,
      "d": 159.3136458333338,
      "v": 55
    },
    {
      "midi": 45,
      "hit": false,
      "t": 16531.85447916667,
      "d": 171.56854166666744,
      "v": 55
    },
    {
      "midi": 60,
      "hit": false,
      "t": 16568.61916666667,
      "d": 355.3919791666667,
      "v": 55
    },
    {
      "midi": 43,
      "hit": false,
      "t": 16825.971979166672,
      "d": 134.80385416666468,
      "v": 55
    },
    {
      "midi": 41,
      "hit": false,
      "t": 17132.344375000004,
      "d": 122.54895833333285,
      "v": 55
    },
    {
      "midi": 60,
      "hit": false,
      "t": 17144.599270833336,
      "d": 183.82343749999927,
      "v": 55
    },
    {
      "midi": 40,
      "hit": false,
      "t": 17426.461875,
      "d": 159.3136458333356,
      "v": 55
    },
    {
      "midi": 69,
      "hit": false,
      "t": 17720.579375000005,
      "d": 980.3916666666628,
      "v": 55
    },
    {
      "midi": 65,
      "hit": false,
      "t": 17720.579375000005,
      "d": 1237.744479166664,
      "v": 55
    },
    {
      "midi": 60,
      "hit": false,
      "t": 17720.579375000005,
      "d": 1593.1364583333307,
      "v": 55
    },
    {
      "midi": 41,
      "hit": false,
      "t": 17732.834270833337,
      "d": 539.215416666666,
      "v": 55
    },
    {
      "midi": 53,
      "hit": false,
      "t": 18308.814375,
      "d": 171.56854166666744,
      "v": 55
    },
    {
      "midi": 53,
      "hit": false,
      "t": 18872.539583333335,
      "d": 196.07833333333474,
      "v": 55
    },
    {
      "midi": 69,
      "hit": false,
      "t": 19424.009895833336,
      "d": 1470.5875000000015,
      "v": 55
    },
    {
      "midi": 72,
      "hit": false,
      "t": 19424.009895833336,
      "d": 1789.2147916666654,
      "v": 55
    },
    {
      "midi": 63,
      "hit": false,
      "t": 19448.519687500004,
      "d": 1482.8423958333333,
      "v": 55
    },
    {
      "midi": 41,
      "hit": false,
      "t": 19460.774583333336,
      "d": 502.45072916666686,
      "v": 55
    },
    {
      "midi": 53,
      "hit": false,
      "t": 19999.99,
      "d": 134.80385416666832,
      "v": 55
    },
    {
      "midi": 53,
      "hit": false,
      "t": 20600.479895833338,
      "d": 575.9801041666651,
      "v": 55
    },
    {
      "midi": 70,
      "hit": false,
      "t": 21188.714895833335,
      "d": 1200.9797916666648,
      "v": 55
    },
    {
      "midi": 62,
      "hit": false,
      "t": 21188.714895833335,
      "d": 1470.5874999999978,
      "v": 55
    },
    {
      "midi": 41,
      "hit": false,
      "t": 21213.224687500002,
      "d": 563.7252083333333,
      "v": 55
    },
    {
      "midi": 65,
      "hit": false,
      "t": 21213.224687500002,
      "d": 1188.7248958333294,
      "v": 55
    },
    {
      "midi": 53,
      "hit": false,
      "t": 21789.204791666667,
      "d": 147.05875000000015,
      "v": 55
    },
    {
      "midi": 53,
      "hit": false,
      "t": 22377.439791666668,
      "d": 171.5685416666638,
      "v": 55
    },
    {
      "midi": 65,
      "hit": false,
      "t": 22977.9296875,
      "d": 612.7447916666642,
      "v": 55
    },
    {
      "midi": 60,
      "hit": false,
      "t": 22977.9296875,
      "d": 1213.2346874999967,
      "v": 55
    },
    {
      "midi": 69,
      "hit": false,
      "t": 22990.184583333332,
      "d": 575.9801041666651,
      "v": 55
    },
    {
      "midi": 41,
      "hit": false,
      "t": 23002.439479166664,
      "d": 563.7252083333333,
      "v": 55
    },
    {
      "midi": 57,
      "hit": false,
      "t": 23590.674479166664,
      "d": 269.607708333333,
      "v": 55
    },
    {
      "midi": 53,
      "hit": false,
      "t": 23602.929374999996,
      "d": 134.80385416666832,
      "v": 55
    },
    {
      "midi": 53,
      "hit": false,
      "t": 24178.909479166665,
      "d": 134.80385416666468,
      "v": 55
    },
    {
      "midi": 57,
      "hit": false,
      "t": 24178.909479166665,
      "d": 196.0783333333311,
      "v": 55
    },
    {
      "midi": 57,
      "hit": false,
      "t": 24718.12489583333,
      "d": 1017.1563541666656,
      "v": 55
    },
    {
      "midi": 65,
      "hit": false,
      "t": 24718.12489583333,
      "d": 1115.195520833331,
      "v": 55
    },
    {
      "midi": 60,
      "hit": false,
      "t": 24730.379791666663,
      "d": 1041.6661458333328,
      "v": 55
    },
    {
      "midi": 41,
      "hit": false,
      "t": 24730.379791666663,
      "d": 1053.9210416666647,
      "v": 55
    },
    {
      "midi": 53,
      "hit": false,
      "t": 26470.574999999997,
      "d": 220.5881249999984,
      "v": 55
    },
    {
      "midi": 60,
      "hit": false,
      "t": 26470.574999999997,
      "d": 404.4115624999977,
      "v": 55
    },
    {
      "midi": 65,
      "hit": false,
      "t": 26470.574999999997,
      "d": 404.4115624999977,
      "v": 55
    },
    {
      "midi": 69,
      "hit": false,
      "t": 26470.574999999997,
      "d": 441.1762499999968,
      "v": 55
    },
    {
      "midi": 53,
      "hit": false,
      "t": 27022.045312499995,
      "d": 147.05875000000015,
      "v": 55
    },
    {
      "midi": 60,
      "hit": false,
      "t": 27022.045312499995,
      "d": 649.5094791666634,
      "v": 55
    },
    {
      "midi": 69,
      "hit": false,
      "t": 27022.045312499995,
      "d": 796.5682291666635,
      "v": 55
    },
    {
      "midi": 65,
      "hit": false,
      "t": 27022.045312499995,
      "d": 833.3329166666626,
      "v": 55
    },
    {
      "midi": 53,
      "hit": false,
      "t": 27352.927499999994,
      "d": 98.03916666666555,
      "v": 55
    },
    {
      "midi": 53,
      "hit": false,
      "t": 27659.299895833326,
      "d": 147.05875000000015,
      "v": 55
    },
    {
      "midi": 70,
      "hit": false,
      "t": 27916.652708333324,
      "d": 98.03916666666555,
      "v": 55
    },
    {
      "midi": 67,
      "hit": false,
      "t": 27941.16249999999,
      "d": 159.31364583333198,
      "v": 55
    },
    {
      "midi": 48,
      "hit": false,
      "t": 27953.417395833323,
      "d": 110.29406250000102,
      "v": 55
    },
    {
      "midi": 60,
      "hit": false,
      "t": 28272.04468749999,
      "d": 1335.7836458333331,
      "v": 55
    },
    {
      "midi": 69,
      "hit": false,
      "t": 28272.04468749999,
      "d": 1360.2934375000004,
      "v": 55
    },
    {
      "midi": 65,
      "hit": false,
      "t": 28272.04468749999,
      "d": 1372.5483333333323,
      "v": 55
    },
    {
      "midi": 53,
      "hit": false,
      "t": 28284.299583333323,
      "d": 563.7252083333333,
      "v": 55
    },
    {
      "midi": 41,
      "hit": false,
      "t": 28860.279687499988,
      "d": 122.54895833333285,
      "v": 55
    },
    {
      "midi": 41,
      "hit": false,
      "t": 29166.65208333332,
      "d": 134.80385416666832,
      "v": 55
    },
    {
      "midi": 41,
      "hit": false,
      "t": 29473.024479166656,
      "d": 110.29406250000102,
      "v": 55
    },
    {
      "midi": 41,
      "hit": false,
      "t": 29779.39687499999,
      "d": 98.03916666666555,
      "v": 55
    },
    {
      "midi": 60,
      "hit": false,
      "t": 30098.024166666655,
      "d": 232.8430208333266,
      "v": 55
    },
    {
      "midi": 69,
      "hit": false,
      "t": 30098.024166666655,
      "d": 245.09791666665842,
      "v": 55
    },
    {
      "midi": 65,
      "hit": false,
      "t": 30110.279062499987,
      "d": 183.82343749999563,
      "v": 55
    },
    {
      "midi": 53,
      "hit": false,
      "t": 30122.53395833332,
      "d": 159.31364583333198,
      "v": 55
    },
    {
      "midi": 69,
      "hit": false,
      "t": 30698.51406249998,
      "d": 772.0584375000035,
      "v": 55
    },
    {
      "midi": 53,
      "hit": false,
      "t": 30710.768958333312,
      "d": 171.56854166666744,
      "v": 55
    },
    {
      "midi": 60,
      "hit": false,
      "t": 30710.768958333312,
      "d": 674.0192708333379,
      "v": 55
    },
    {
      "midi": 65,
      "hit": false,
      "t": 30710.768958333312,
      "d": 759.8035416666717,
      "v": 55
    },
    {
      "midi": 53,
      "hit": false,
      "t": 31029.39624999998,
      "d": 134.80385416666832,
      "v": 55
    },
    {
      "midi": 53,
      "hit": false,
      "t": 31299.003958333316,
      "d": 147.05875000000015,
      "v": 55
    },
    {
      "midi": 70,
      "hit": false,
      "t": 31531.84697916665,
      "d": 122.54895833333285,
      "v": 55
    },
    {
      "midi": 60,
      "hit": false,
      "t": 31556.356770833318,
      "d": 122.54895833333285,
      "v": 55
    },
    {
      "midi": 48,
      "hit": false,
      "t": 31556.356770833318,
      "d": 147.05875000000015,
      "v": 55
    },
    {
      "midi": 67,
      "hit": false,
      "t": 31568.61166666665,
      "d": 147.05875000000015,
      "v": 55
    },
    {
      "midi": 65,
      "hit": false,
      "t": 31850.474270833318,
      "d": 1495.0972916666615,
      "v": 55
    },
    {
      "midi": 69,
      "hit": false,
      "t": 31850.474270833318,
      "d": 1495.0972916666615,
      "v": 55
    },
    {
      "midi": 53,
      "hit": false,
      "t": 31862.72916666665,
      "d": 526.9605208333342,
      "v": 55
    },
    {
      "midi": 60,
      "hit": false,
      "t": 31862.72916666665,
      "d": 1458.332604166666,
      "v": 55
    },
    {
      "midi": 41,
      "hit": false,
      "t": 32414.19947916665,
      "d": 147.05875000000015,
      "v": 55
    },
    {
      "midi": 41,
      "hit": false,
      "t": 32696.06208333332,
      "d": 134.80385416666468,
      "v": 55
    },
    {
      "midi": 41,
      "hit": false,
      "t": 32990.179583333316,
      "d": 122.54895833333285,
      "v": 55
    },
    {
      "midi": 41,
      "hit": false,
      "t": 33247.53239583332,
      "d": 147.0587499999965,
      "v": 55
    },
    {
      "midi": 60,
      "hit": false,
      "t": 33566.15968749998,
      "d": 294.1175000000003,
      "v": 55
    },
    {
      "midi": 65,
      "hit": false,
      "t": 33566.15968749998,
      "d": 367.64687499999854,
      "v": 55
    },
    {
      "midi": 69,
      "hit": false,
      "t": 33566.15968749998,
      "d": 404.4115624999977,
      "v": 55
    },
    {
      "midi": 53,
      "hit": false,
      "t": 33590.669479166645,
      "d": 355.39197916667035,
      "v": 55
    },
    {
      "midi": 53,
      "hit": false,
      "t": 34178.904479166646,
      "d": 147.05875000000378,
      "v": 55
    },
    {
      "midi": 69,
      "hit": false,
      "t": 34178.904479166646,
      "d": 784.3133333333462,
      "v": 55
    },
    {
      "midi": 60,
      "hit": false,
      "t": 34191.15937499998,
      "d": 588.2350000000079,
      "v": 55
    },
    {
      "midi": 65,
      "hit": false,
      "t": 34191.15937499998,
      "d": 784.3133333333462,
      "v": 55
    },
    {
      "midi": 53,
      "hit": false,
      "t": 34497.53177083332,
      "d": 98.03916666666919,
      "v": 55
    },
    {
      "midi": 53,
      "hit": false,
      "t": 34791.649270833324,
      "d": 159.31364583333198,
      "v": 55
    },
    {
      "midi": 70,
      "hit": false,
      "t": 35036.7471875,
      "d": 98.03916666666191,
      "v": 55
    },
    {
      "midi": 48,
      "hit": false,
      "t": 35061.25697916666,
      "d": 122.54895833333285,
      "v": 55
    },
    {
      "midi": 67,
      "hit": false,
      "t": 35061.25697916666,
      "d": 147.0587499999965,
      "v": 55
    },
    {
      "midi": 53,
      "hit": false,
      "t": 35355.374479166654,
      "d": 563.7252083333369,
      "v": 55
    },
    {
      "midi": 60,
      "hit": false,
      "t": 35367.62937499999,
      "d": 1482.8423958333296,
      "v": 55
    },
    {
      "midi": 65,
      "hit": false,
      "t": 35367.62937499999,
      "d": 1519.6070833333288,
      "v": 55
    },
    {
      "midi": 69,
      "hit": false,
      "t": 35367.62937499999,
      "d": 1531.8619791666642,
      "v": 55
    },
    {
      "midi": 41,
      "hit": false,
      "t": 35931.35458333333,
      "d": 147.0587499999965,
      "v": 55
    },
    {
      "midi": 41,
      "hit": false,
      "t": 36200.962291666656,
      "d": 122.54895833333285,
      "v": 55
    },
    {
      "midi": 41,
      "hit": false,
      "t": 36507.33468749999,
      "d": 122.54895833333285,
      "v": 55
    },
    {
      "midi": 41,
      "hit": false,
      "t": 36776.94239583332,
      "d": 110.29406249999738,
      "v": 55
    },
    {
      "midi": 60,
      "hit": false,
      "t": 37107.82458333332,
      "d": 392.1566666666695,
      "v": 55
    },
    {
      "midi": 69,
      "hit": false,
      "t": 37107.82458333332,
      "d": 441.1762499999968,
      "v": 55
    },
    {
      "midi": 53,
      "hit": false,
      "t": 37120.079479166656,
      "d": 318.62729166666395,
      "v": 55
    },
    {
      "midi": 65,
      "hit": false,
      "t": 37120.079479166656,
      "d": 404.4115624999977,
      "v": 55
    },
    {
      "midi": 53,
      "hit": false,
      "t": 37708.31447916665,
      "d": 159.31364583333198,
      "v": 55
    },
    {
      "midi": 60,
      "hit": false,
      "t": 37720.569374999985,
      "d": 539.215416666666,
      "v": 55
    },
    {
      "midi": 69,
      "hit": false,
      "t": 37720.569374999985,
      "d": 747.5486458333326,
      "v": 55
    },
    {
      "midi": 65,
      "hit": false,
      "t": 37720.569374999985,
      "d": 784.3133333333317,
      "v": 55
    },
    {
      "midi": 53,
      "hit": false,
      "t": 38002.43197916665,
      "d": 122.54895833333285,
      "v": 55
    },
    {
      "midi": 53,
      "hit": false,
      "t": 38296.54947916665,
      "d": 159.31364583333198,
      "v": 55
    },
    {
      "midi": 70,
      "hit": false,
      "t": 38566.157187499986,
      "d": 98.03916666666919,
      "v": 55
    },
    {
      "midi": 48,
      "hit": false,
      "t": 38566.157187499986,
      "d": 122.54895833333285,
      "v": 55
    },
    {
      "midi": 67,
      "hit": false,
      "t": 38578.41208333332,
      "d": 147.0587499999965,
      "v": 55
    },
    {
      "midi": 53,
      "hit": false,
      "t": 38872.529583333315,
      "d": 563.7252083333296,
      "v": 55
    },
    {
      "midi": 69,
      "hit": false,
      "t": 38872.529583333315,
      "d": 1127.4504166666593,
      "v": 55
    },
    {
      "midi": 65,
      "hit": false,
      "t": 38872.529583333315,
      "d": 1188.724895833322,
      "v": 55
    },
    {
      "midi": 60,
      "hit": false,
      "t": 38897.03937499998,
      "d": 1286.7640624999913,
      "v": 55
    },
    {
      "midi": 41,
      "hit": false,
      "t": 39460.76458333331,
      "d": 122.54895833333285,
      "v": 55
    },
    {
      "midi": 41,
      "hit": false,
      "t": 39730.37229166664,
      "d": 134.80385416666832,
      "v": 55
    },
    {
      "midi": 41,
      "hit": false,
      "t": 40024.48979166664,
      "d": 122.54895833333285,
      "v": 55
    },
    {
      "midi": 41,
      "hit": false,
      "t": 40306.3523958333,
      "d": 85.78427083333372,
      "v": 55
    },
    {
      "midi": 60,
      "hit": false,
      "t": 40637.2345833333,
      "d": 931.3720833333355,
      "v": 55
    },
    {
      "midi": 57,
      "hit": false,
      "t": 40637.2345833333,
      "d": 943.6269791666709,
      "v": 55
    },
    {
      "midi": 65,
      "hit": false,
      "t": 40637.2345833333,
      "d": 943.6269791666709,
      "v": 55
    },
    {
      "midi": 41,
      "hit": false,
      "t": 40649.48947916664,
      "d": 637.2545833333352,
      "v": 55
    },
    {
      "midi": 53,
      "hit": false,
      "t": 41298.99895833331,
      "d": 122.54895833333285,
      "v": 55
    },
    {
      "midi": 53,
      "hit": false,
      "t": 41862.72416666664,
      "d": 183.8234375000029,
      "v": 55
    },
    {
      "midi": 41,
      "hit": false,
      "t": 42438.70427083331,
      "d": 551.4703125000015,
      "v": 55
    },
    {
      "midi": 57,
      "hit": false,
      "t": 42438.70427083331,
      "d": 1164.2151041666657,
      "v": 55
    },
    {
      "midi": 65,
      "hit": false,
      "t": 42438.70427083331,
      "d": 1176.4700000000012,
      "v": 55
    },
    {
      "midi": 60,
      "hit": false,
      "t": 42450.959166666646,
      "d": 1151.9602083333302,
      "v": 55
    },
    {
      "midi": 53,
      "hit": false,
      "t": 42990.17458333331,
      "d": 171.56854166666744,
      "v": 55
    },
    {
      "midi": 53,
      "hit": false,
      "t": 43602.919374999976,
      "d": 122.54895833333285,
      "v": 55
    },
    {
      "midi": 60,
      "hit": false,
      "t": 44178.89947916664,
      "d": 281.8626041666648,
      "v": 55
    },
    {
      "midi": 41,
      "hit": false,
      "t": 44178.89947916664,
      "d": 355.3919791666631,
      "v": 55
    },
    {
      "midi": 57,
      "hit": false,
      "t": 44178.89947916664,
      "d": 441.1762499999968,
      "v": 55
    },
    {
      "midi": 65,
      "hit": false,
      "t": 44178.89947916664,
      "d": 575.9801041666651,
      "v": 55
    },
    {
      "midi": 53,
      "hit": false,
      "t": 44546.54635416664,
      "d": 232.84302083333023,
      "v": 55
    },
    {
      "midi": 62,
      "hit": false,
      "t": 44779.38937499997,
      "d": 147.05875000000378,
      "v": 55
    },
    {
      "midi": 67,
      "hit": false,
      "t": 44779.38937499997,
      "d": 171.56854166666744,
      "v": 55
    },
    {
      "midi": 46,
      "hit": false,
      "t": 44791.644270833305,
      "d": 208.33322916666657,
      "v": 55
    },
    {
      "midi": 55,
      "hit": false,
      "t": 45367.62437499997,
      "d": 134.80385416666832,
      "v": 55
    },
    {
      "midi": 48,
      "hit": false,
      "t": 45367.62437499997,
      "d": 147.05875000000378,
      "v": 55
    },
    {
      "midi": 60,
      "hit": false,
      "t": 45367.62437499997,
      "d": 159.31364583333925,
      "v": 55
    },
    {
      "midi": 64,
      "hit": false,
      "t": 45367.62437499997,
      "d": 196.07833333333838,
      "v": 55
    },
    {
      "midi": 57,
      "hit": false,
      "t": 45980.36916666664,
      "d": 1041.6661458333401,
      "v": 55
    },
    {
      "midi": 41,
      "hit": false,
      "t": 45992.62406249998,
      "d": 1029.4112500000047,
      "v": 55
    },
    {
      "midi": 65,
      "hit": false,
      "t": 45992.62406249998,
      "d": 1090.6857291666674,
      "v": 55
    },
    {
      "midi": 60,
      "hit": false,
      "t": 46004.87895833331,
      "d": 1053.9210416666683,
      "v": 55
    },
    {
      "midi": 65,
      "hit": false,
      "t": 47720.56437499998,
      "d": 1274.5091666666704,
      "v": 55
    },
    {
      "midi": 57,
      "hit": false,
      "t": 47732.819270833315,
      "d": 1237.744479166664,
      "v": 55
    },
    {
      "midi": 60,
      "hit": false,
      "t": 47732.819270833315,
      "d": 1249.9993749999994,
      "v": 55
    },
    {
      "midi": 41,
      "hit": false,
      "t": 47745.07416666665,
      "d": 526.9605208333305,
      "v": 55
    },
    {
      "midi": 53,
      "hit": false,
      "t": 48321.054270833316,
      "d": 122.54895833333285,
      "v": 55
    },
    {
      "midi": 53,
      "hit": false,
      "t": 48884.779479166646,
      "d": 159.31364583333925,
      "v": 55
    },
    {
      "midi": 65,
      "hit": false,
      "t": 49473.01447916665,
      "d": 1274.5091666666704,
      "v": 55
    },
    {
      "midi": 41,
      "hit": false,
      "t": 49485.26937499999,
      "d": 563.7252083333296,
      "v": 55
    },
    {
      "midi": 57,
      "hit": false,
      "t": 49485.26937499999,
      "d": 1225.4895833333358,
      "v": 55
    },
    {
      "midi": 60,
      "hit": false,
      "t": 49485.26937499999,
      "d": 1262.2542708333349,
      "v": 55
    },
    {
      "midi": 53,
      "hit": false,
      "t": 50024.484791666655,
      "d": 159.31364583333198,
      "v": 55
    },
    {
      "midi": 53,
      "hit": false,
      "t": 50612.719791666656,
      "d": 171.56854166666744,
      "v": 55
    },
    {
      "midi": 60,
      "hit": false,
      "t": 51225.46458333332,
      "d": 245.0979166666657,
      "v": 55
    },
    {
      "midi": 65,
      "hit": false,
      "t": 51225.46458333332,
      "d": 600.4898958333288,
      "v": 55
    },
    {
      "midi": 41,
      "hit": false,
      "t": 51237.719479166655,
      "d": 343.1370833333276,
      "v": 55
    },
    {
      "midi": 57,
      "hit": false,
      "t": 51237.719479166655,
      "d": 551.4703124999942,
      "v": 55
    },
    {
      "midi": 53,
      "hit": false,
      "t": 51593.11145833332,
      "d": 257.3528124999939,
      "v": 55
    },
    {
      "midi": 67,
      "hit": false,
      "t": 51813.69958333331,
      "d": 171.56854166666744,
      "v": 55
    },
    {
      "midi": 62,
      "hit": false,
      "t": 51813.69958333331,
      "d": 183.8234375000029,
      "v": 55
    },
    {
      "midi": 46,
      "hit": false,
      "t": 51813.69958333331,
      "d": 220.58812500000204,
      "v": 55
    },
    {
      "midi": 55,
      "hit": false,
      "t": 52426.444374999985,
      "d": 147.0587499999965,
      "v": 55
    },
    {
      "midi": 48,
      "hit": false,
      "t": 52426.444374999985,
      "d": 159.31364583333198,
      "v": 55
    },
    {
      "midi": 60,
      "hit": false,
      "t": 52426.444374999985,
      "d": 183.82343749999563,
      "v": 55
    },
    {
      "midi": 64,
      "hit": false,
      "t": 52426.444374999985,
      "d": 196.0783333333311,
      "v": 55
    },
    {
      "midi": 57,
      "hit": false,
      "t": 52941.14999999998,
      "d": 1200.9797916666648,
      "v": 55
    },
    {
      "midi": 41,
      "hit": false,
      "t": 52941.14999999998,
      "d": 1225.4895833333285,
      "v": 55
    },
    {
      "midi": 60,
      "hit": false,
      "t": 52941.14999999998,
      "d": 1225.4895833333285,
      "v": 55
    },
    {
      "midi": 65,
      "hit": false,
      "t": 52941.14999999998,
      "d": 1237.744479166664,
      "v": 55
    },
    {
      "midi": 57,
      "hit": false,
      "t": 56544.089374999974,
      "d": 563.7252083333369,
      "v": 55
    },
    {
      "midi": 72,
      "hit": false,
      "t": 56556.34427083331,
      "d": 637.2545833333352,
      "v": 55
    },
    {
      "midi": 65,
      "hit": false,
      "t": 56556.34427083331,
      "d": 1274.5091666666704,
      "v": 55
    },
    {
      "midi": 60,
      "hit": false,
      "t": 56556.34427083331,
      "d": 1470.5875000000087,
      "v": 55
    },
    {
      "midi": 53,
      "hit": false,
      "t": 57144.57927083331,
      "d": 110.29406250000466,
      "v": 55
    },
    {
      "midi": 69,
      "hit": false,
      "t": 57156.834166666646,
      "d": 1053.9210416666756,
      "v": 55
    },
    {
      "midi": 53,
      "hit": false,
      "t": 57450.951666666646,
      "d": 110.29406249999738,
      "v": 55
    },
    {
      "midi": 53,
      "hit": false,
      "t": 57745.069166666646,
      "d": 98.03916666666919,
      "v": 55
    },
    {
      "midi": 53,
      "hit": false,
      "t": 58014.67687499998,
      "d": 147.05875000000378,
      "v": 55
    },
    {
      "midi": 65,
      "hit": false,
      "t": 58357.81395833332,
      "d": 894.6073958333436,
      "v": 55
    },
    {
      "midi": 60,
      "hit": false,
      "t": 58370.06885416665,
      "d": 821.0780208333381,
      "v": 55
    },
    {
      "midi": 57,
      "hit": false,
      "t": 58382.32374999999,
      "d": 821.0780208333381,
      "v": 55
    },
    {
      "midi": 41,
      "hit": false,
      "t": 58382.32374999999,
      "d": 833.3329166666736,
      "v": 55
    },
    {
      "midi": 72,
      "hit": false,
      "t": 60073.49937499999,
      "d": 588.2350000000006,
      "v": 55
    },
    {
      "midi": 65,
      "hit": false,
      "t": 60073.49937499999,
      "d": 955.8818749999991,
      "v": 55
    },
    {
      "midi": 60,
      "hit": false,
      "t": 60073.49937499999,
      "d": 1348.0385416666613,
      "v": 55
    },
    {
      "midi": 57,
      "hit": false,
      "t": 60085.75427083333,
      "d": 526.9605208333305,
      "v": 55
    },
    {
      "midi": 53,
      "hit": false,
      "t": 60649.47947916666,
      "d": 110.29406250000466,
      "v": 55
    },
    {
      "midi": 69,
      "hit": false,
      "t": 60661.73437499999,
      "d": 857.8427083333299,
      "v": 55
    },
    {
      "midi": 53,
      "hit": false,
      "t": 60906.83229166666,
      "d": 159.31364583333198,
      "v": 55
    },
    {
      "midi": 53,
      "hit": false,
      "t": 61262.22427083332,
      "d": 49.019583333334594,
      "v": 55
    },
    {
      "midi": 53,
      "hit": false,
      "t": 61519.57708333332,
      "d": 147.0587499999965,
      "v": 55
    },
    {
      "midi": 57,
      "hit": false,
      "t": 61764.67499999999,
      "d": 808.8231250000026,
      "v": 55
    },
    {
      "midi": 60,
      "hit": false,
      "t": 61764.67499999999,
      "d": 821.0780208333381,
      "v": 55
    },
    {
      "midi": 41,
      "hit": false,
      "t": 61764.67499999999,
      "d": 857.8427083333372,
      "v": 55
    },
    {
      "midi": 65,
      "hit": false,
      "t": 61764.67499999999,
      "d": 894.6073958333363,
      "v": 55
    },
    {
      "midi": 60,
      "hit": false,
      "t": 63578.399583333325,
      "d": 1446.0777083333378,
      "v": 55
    },
    {
      "midi": 65,
      "hit": false,
      "t": 63578.399583333325,
      "d": 1446.0777083333378,
      "v": 55
    },
    {
      "midi": 53,
      "hit": false,
      "t": 63590.65447916666,
      "d": 600.489895833336,
      "v": 55
    },
    {
      "midi": 72,
      "hit": false,
      "t": 63602.909374999996,
      "d": 294.1175000000003,
      "v": 55
    },
    {
      "midi": 45,
      "hit": false,
      "t": 64191.144374999996,
      "d": 98.03916666666919,
      "v": 55
    },
    {
      "midi": 45,
      "hit": false,
      "t": 64460.75208333333,
      "d": 110.29406249999738,
      "v": 55
    },
    {
      "midi": 45,
      "hit": false,
      "t": 64730.35979166666,
      "d": 98.03916666666919,
      "v": 55
    },
    {
      "midi": 45,
      "hit": false,
      "t": 64999.9675,
      "d": 110.29406249999738,
      "v": 55
    },
    {
      "midi": 69,
      "hit": false,
      "t": 65294.085,
      "d": 49.019583333334594,
      "v": 55
    },
    {
      "midi": 60,
      "hit": false,
      "t": 65294.085,
      "d": 661.7643750000061,
      "v": 55
    },
    {
      "midi": 65,
      "hit": false,
      "t": 65294.085,
      "d": 686.274166666677,
      "v": 55
    },
    {
      "midi": 41,
      "hit": false,
      "t": 65294.085,
      "d": 723.0388541666834,
      "v": 55
    },
    {
      "midi": 69,
      "hit": false,
      "t": 67058.79000000002,
      "d": 637.2545833333425,
      "v": 55
    },
    {
      "midi": 65,
      "hit": false,
      "t": 67058.79000000002,
      "d": 1482.8423958333588,
      "v": 55
    },
    {
      "midi": 53,
      "hit": false,
      "t": 67083.2997916667,
      "d": 575.9801041666651,
      "v": 55
    },
    {
      "midi": 60,
      "hit": false,
      "t": 67083.2997916667,
      "d": 1433.8228125000169,
      "v": 55
    },
    {
      "midi": 45,
      "hit": false,
      "t": 67659.27989583336,
      "d": 98.03916666666919,
      "v": 55
    },
    {
      "midi": 72,
      "hit": false,
      "t": 67659.27989583336,
      "d": 1188.7248958333512,
      "v": 55
    },
    {
      "midi": 45,
      "hit": false,
      "t": 67928.8876041667,
      "d": 110.29406250000466,
      "v": 55
    },
    {
      "midi": 45,
      "hit": false,
      "t": 68247.51489583337,
      "d": 98.03916666666919,
      "v": 55
    },
    {
      "midi": 45,
      "hit": false,
      "t": 68517.12260416671,
      "d": 159.31364583333198,
      "v": 55
    },
    {
      "midi": 41,
      "hit": false,
      "t": 68823.49500000004,
      "d": 1188.7248958333366,
      "v": 55
    },
    {
      "midi": 60,
      "hit": false,
      "t": 68823.49500000004,
      "d": 1213.2346875000076,
      "v": 55
    },
    {
      "midi": 65,
      "hit": false,
      "t": 68823.49500000004,
      "d": 1213.2346875000076,
      "v": 55
    },
    {
      "midi": 69,
      "hit": false,
      "t": 68823.49500000004,
      "d": 1213.2346875000076,
      "v": 55
    },
    {
      "midi": 53,
      "hit": false,
      "t": 74117.61000000004,
      "d": 588.2350000000006,
      "v": 55
    },
    {
      "midi": 69,
      "hit": false,
      "t": 74117.61000000004,
      "d": 649.5094791666634,
      "v": 55
    },
    {
      "midi": 60,
      "hit": false,
      "t": 74117.61000000004,
      "d": 674.0192708333343,
      "v": 55
    },
    {
      "midi": 48,
      "hit": false,
      "t": 74705.84500000004,
      "d": 134.80385416666104,
      "v": 55
    },
    {
      "midi": 65,
      "hit": false,
      "t": 74705.84500000004,
      "d": 612.744791666657,
      "v": 55
    },
    {
      "midi": 48,
      "hit": false,
      "t": 74975.45270833337,
      "d": 147.0587499999965,
      "v": 55
    },
    {
      "midi": 45,
      "hit": false,
      "t": 75281.8251041667,
      "d": 122.54895833334012,
      "v": 55
    },
    {
      "midi": 60,
      "hit": false,
      "t": 75294.08000000003,
      "d": 269.60770833333663,
      "v": 55
    },
    {
      "midi": 45,
      "hit": false,
      "t": 75563.68770833337,
      "d": 110.29406250000466,
      "v": 55
    },
    {
      "midi": 41,
      "hit": false,
      "t": 75882.31500000005,
      "d": 612.7447916666715,
      "v": 55
    },
    {
      "midi": 65,
      "hit": false,
      "t": 75882.31500000005,
      "d": 1213.2346875000221,
      "v": 55
    },
    {
      "midi": 57,
      "hit": false,
      "t": 75882.31500000005,
      "d": 1237.744479166693,
      "v": 55
    },
    {
      "midi": 60,
      "hit": false,
      "t": 75882.31500000005,
      "d": 1262.254270833364,
      "v": 55
    },
    {
      "midi": 53,
      "hit": false,
      "t": 76495.05979166672,
      "d": 122.54895833334012,
      "v": 55
    },
    {
      "midi": 53,
      "hit": false,
      "t": 77071.0398958334,
      "d": 147.05875000001106,
      "v": 55
    },
    {
      "midi": 41,
      "hit": false,
      "t": 77647.02000000008,
      "d": 624.999687500007,
      "v": 55
    },
    {
      "midi": 57,
      "hit": false,
      "t": 77647.02000000008,
      "d": 1237.744479166664,
      "v": 55
    },
    {
      "midi": 60,
      "hit": false,
      "t": 77647.02000000008,
      "d": 1274.5091666666704,
      "v": 55
    },
    {
      "midi": 65,
      "hit": false,
      "t": 77647.02000000008,
      "d": 1299.0189583333413,
      "v": 55
    },
    {
      "midi": 53,
      "hit": false,
      "t": 78333.29416666675,
      "d": 171.56854166666744,
      "v": 55
    },
    {
      "midi": 53,
      "hit": false,
      "t": 78884.76447916674,
      "d": 171.568541666682,
      "v": 55
    },
    {
      "midi": 57,
      "hit": false,
      "t": 79411.7250000001,
      "d": 159.31364583333198,
      "v": 55
    },
    {
      "midi": 60,
      "hit": false,
      "t": 79411.7250000001,
      "d": 196.07833333333838,
      "v": 55
    },
    {
      "midi": 65,
      "hit": false,
      "t": 79411.7250000001,
      "d": 245.0979166666657,
      "v": 55
    },
    {
      "midi": 41,
      "hit": false,
      "t": 79411.7250000001,
      "d": 379.90177083332674,
      "v": 55
    },
    {
      "midi": 53,
      "hit": false,
      "t": 79828.39145833343,
      "d": 294.11750000000757,
      "v": 55
    },
    {
      "midi": 67,
      "hit": false,
      "t": 80036.7246875001,
      "d": 183.8234375000029,
      "v": 55
    },
    {
      "midi": 70,
      "hit": false,
      "t": 80036.7246875001,
      "d": 183.8234375000029,
      "v": 55
    },
    {
      "midi": 62,
      "hit": false,
      "t": 80036.7246875001,
      "d": 1188.7248958333366,
      "v": 55
    },
    {
      "midi": 46,
      "hit": false,
      "t": 80061.23447916677,
      "d": 269.60770833333663,
      "v": 55
    },
    {
      "midi": 65,
      "hit": false,
      "t": 80624.9596875001,
      "d": 159.31364583333198,
      "v": 55
    },
    {
      "midi": 69,
      "hit": false,
      "t": 80637.21458333344,
      "d": 147.0587499999965,
      "v": 55
    },
    {
      "midi": 47,
      "hit": false,
      "t": 80637.21458333344,
      "d": 196.07833333332383,
      "v": 55
    },
    {
      "midi": 48,
      "hit": false,
      "t": 81200.93979166677,
      "d": 171.56854166666744,
      "v": 55
    },
    {
      "midi": 64,
      "hit": false,
      "t": 81200.93979166677,
      "d": 637.2545833333279,
      "v": 55
    },
    {
      "midi": 67,
      "hit": false,
      "t": 81200.93979166677,
      "d": 1507.3521875000006,
      "v": 55
    },
    {
      "midi": 46,
      "hit": false,
      "t": 81470.5475000001,
      "d": 134.80385416666104,
      "v": 55
    },
    {
      "midi": 45,
      "hit": false,
      "t": 81764.6650000001,
      "d": 147.0587499999965,
      "v": 55
    },
    {
      "midi": 60,
      "hit": false,
      "t": 81764.6650000001,
      "d": 269.60770833333663,
      "v": 55
    },
    {
      "midi": 43,
      "hit": false,
      "t": 82058.7825000001,
      "d": 134.80385416666104,
      "v": 55
    },
    {
      "midi": 41,
      "hit": false,
      "t": 82352.9000000001,
      "d": 134.80385416666104,
      "v": 55
    },
    {
      "midi": 60,
      "hit": false,
      "t": 82352.9000000001,
      "d": 257.35281250000116,
      "v": 55
    },
    {
      "midi": 40,
      "hit": false,
      "t": 82647.0175000001,
      "d": 110.2940624999901,
      "v": 55
    },
    {
      "midi": 41,
      "hit": false,
      "t": 82941.1350000001,
      "d": 575.9801041666651,
      "v": 55
    },
    {
      "midi": 57,
      "hit": false,
      "t": 82941.1350000001,
      "d": 1286.7640625000058,
      "v": 55
    },
    {
      "midi": 60,
      "hit": false,
      "t": 82941.1350000001,
      "d": 1286.7640625000058,
      "v": 55
    },
    {
      "midi": 65,
      "hit": false,
      "t": 82941.1350000001,
      "d": 1311.2738541666768,
      "v": 55
    },
    {
      "midi": 53,
      "hit": false,
      "t": 83529.3700000001,
      "d": 171.56854166666744,
      "v": 55
    },
    {
      "midi": 53,
      "hit": false,
      "t": 84117.6050000001,
      "d": 147.05875000001106,
      "v": 55
    },
    {
      "midi": 41,
      "hit": false,
      "t": 84730.34979166677,
      "d": 588.2350000000006,
      "v": 55
    },
    {
      "midi": 60,
      "hit": false,
      "t": 84730.34979166677,
      "d": 698.5290625000052,
      "v": 55
    },
    {
      "midi": 57,
      "hit": false,
      "t": 84730.34979166677,
      "d": 980.3916666666628,
      "v": 55
    },
    {
      "midi": 65,
      "hit": false,
      "t": 84730.34979166677,
      "d": 1066.1759374999965,
      "v": 55
    },
    {
      "midi": 53,
      "hit": false,
      "t": 85294.0750000001,
      "d": 196.07833333333838,
      "v": 55
    },
    {
      "midi": 53,
      "hit": false,
      "t": 85882.3100000001,
      "d": 208.33322916667385,
      "v": 55
    },
    {
      "midi": 60,
      "hit": false,
      "t": 86470.5450000001,
      "d": 232.84302083333023,
      "v": 55
    },
    {
      "midi": 41,
      "hit": false,
      "t": 86470.5450000001,
      "d": 306.3723958333285,
      "v": 55
    },
    {
      "midi": 69,
      "hit": false,
      "t": 86470.5450000001,
      "d": 318.62729166666395,
      "v": 55
    },
    {
      "midi": 65,
      "hit": false,
      "t": 86470.5450000001,
      "d": 502.45072916666686,
      "v": 55
    },
    {
      "midi": 53,
      "hit": false,
      "t": 86911.7212500001,
      "d": 232.84302083333023,
      "v": 55
    },
    {
      "midi": 67,
      "hit": false,
      "t": 87058.7800000001,
      "d": 134.80385416666104,
      "v": 55
    },
    {
      "midi": 62,
      "hit": false,
      "t": 87058.7800000001,
      "d": 147.0587499999965,
      "v": 55
    },
    {
      "midi": 70,
      "hit": false,
      "t": 87058.7800000001,
      "d": 171.56854166666744,
      "v": 55
    },
    {
      "midi": 46,
      "hit": false,
      "t": 87058.7800000001,
      "d": 220.58812499999476,
      "v": 55
    },
    {
      "midi": 67,
      "hit": false,
      "t": 87647.0150000001,
      "d": 159.31364583333198,
      "v": 55
    },
    {
      "midi": 48,
      "hit": false,
      "t": 87647.0150000001,
      "d": 208.3332291666593,
      "v": 55
    },
    {
      "midi": 64,
      "hit": false,
      "t": 87659.26989583344,
      "d": 134.80385416666104,
      "v": 55
    },
    {
      "midi": 60,
      "hit": false,
      "t": 87659.26989583344,
      "d": 208.3332291666593,
      "v": 55
    },
    {
      "midi": 60,
      "hit": false,
      "t": 88235.2500000001,
      "d": 526.9605208333378,
      "v": 55
    },
    {
      "midi": 57,
      "hit": false,
      "t": 88235.2500000001,
      "d": 539.2154166666733,
      "v": 55
    },
    {
      "midi": 65,
      "hit": false,
      "t": 88235.2500000001,
      "d": 563.7252083333442,
      "v": 55
    },
    {
      "midi": 41,
      "hit": false,
      "t": 88235.2500000001,
      "d": 588.2350000000151,
      "v": 55
    },
    {
      "midi": 41,
      "hit": false,
      "t": 90085.73927083345,
      "d": 257.35281250000116,
      "v": 55
    },
    {
      "midi": 57,
      "hit": false,
      "t": 90097.99416666679,
      "d": 1446.0777083333378,
      "v": 55
    },
    {
      "midi": 60,
      "hit": false,
      "t": 90097.99416666679,
      "d": 1458.3326041666733,
      "v": 55
    },
    {
      "midi": 53,
      "hit": false,
      "t": 90624.95468750013,
      "d": 196.07833333333838,
      "v": 55
    },
    {
      "midi": 41,
      "hit": false,
      "t": 91200.93479166679,
      "d": 183.8234375000029,
      "v": 55
    },
    {
      "midi": 57,
      "hit": false,
      "t": 91740.15020833346,
      "d": 1200.979791666672,
      "v": 55
    },
    {
      "midi": 60,
      "hit": false,
      "t": 91752.4051041668,
      "d": 1176.4700000000012,
      "v": 55
    },
    {
      "midi": 41,
      "hit": false,
      "t": 91776.91489583347,
      "d": 1139.7053124999948,
      "v": 55
    },
    {
      "midi": 60,
      "hit": false,
      "t": 93517.1101041668,
      "d": 1372.5483333333395,
      "v": 55
    },
    {
      "midi": 57,
      "hit": false,
      "t": 93517.1101041668,
      "d": 1397.0581250000105,
      "v": 55
    },
    {
      "midi": 41,
      "hit": false,
      "t": 93529.36500000014,
      "d": 343.1370833333349,
      "v": 55
    },
    {
      "midi": 53,
      "hit": false,
      "t": 94093.09020833347,
      "d": 183.8234375000029,
      "v": 55
    },
    {
      "midi": 41,
      "hit": false,
      "t": 94632.30562500014,
      "d": 208.33322916667385,
      "v": 55
    },
    {
      "midi": 41,
      "hit": false,
      "t": 95269.56020833348,
      "d": 784.313333333339,
      "v": 55
    },
    {
      "midi": 57,
      "hit": false,
      "t": 95269.56020833348,
      "d": 882.3525000000081,
      "v": 55
    },
    {
      "midi": 60,
      "hit": false,
      "t": 95281.81510416682,
      "d": 894.6073958333436,
      "v": 55
    },
    {
      "midi": 46,
      "hit": false,
      "t": 97058.77500000015,
      "d": 735.2937499999825,
      "v": 55
    },
    {
      "midi": 53,
      "hit": false,
      "t": 97107.79458333348,
      "d": 857.8427083333227,
      "v": 55
    },
    {
      "midi": 58,
      "hit": false,
      "t": 97169.06906250014,
      "d": 759.8035416666535,
      "v": 55
    },
    {
      "midi": 62,
      "hit": false,
      "t": 97218.08864583347,
      "d": 710.7839583333262,
      "v": 55
    },
    {
      "midi": 47,
      "hit": false,
      "t": 98823.48000000014,
      "d": 882.3524999999936,
      "v": 55
    },
    {
      "midi": 55,
      "hit": false,
      "t": 98872.49958333347,
      "d": 1078.430833333332,
      "v": 55
    },
    {
      "midi": 62,
      "hit": false,
      "t": 98909.26427083348,
      "d": 906.8622916666645,
      "v": 55
    },
    {
      "midi": 67,
      "hit": false,
      "t": 98982.79364583347,
      "d": 882.3524999999936,
      "v": 55
    },
    {
      "midi": 48,
      "hit": false,
      "t": 100588.18500000013,
      "d": 857.8427083333372,
      "v": 55
    },
    {
      "midi": 55,
      "hit": false,
      "t": 100637.20458333346,
      "d": 833.3329166666808,
      "v": 55
    },
    {
      "midi": 60,
      "hit": false,
      "t": 100661.71437500013,
      "d": 845.5878125000163,
      "v": 55
    },
    {
      "midi": 64,
      "hit": false,
      "t": 100698.47906250013,
      "d": 833.3329166666808,
      "v": 55
    },
    {
      "midi": 49,
      "hit": false,
      "t": 102352.89000000014,
      "d": 821.0780208333308,
      "v": 55
    },
    {
      "midi": 57,
      "hit": false,
      "t": 102401.90958333347,
      "d": 992.6465624999983,
      "v": 55
    },
    {
      "midi": 64,
      "hit": false,
      "t": 102414.16447916681,
      "d": 857.8427083333372,
      "v": 55
    },
    {
      "midi": 69,
      "hit": false,
      "t": 102475.43895833347,
      "d": 857.8427083333372,
      "v": 55
    },
    {
      "midi": 50,
      "hit": false,
      "t": 104117.59500000013,
      "d": 808.8231249999953,
      "v": 55
    },
    {
      "midi": 57,
      "hit": false,
      "t": 104166.61458333346,
      "d": 968.1367708333419,
      "v": 55
    },
    {
      "midi": 62,
      "hit": false,
      "t": 104203.37927083347,
      "d": 894.6073958333291,
      "v": 55
    },
    {
      "midi": 65,
      "hit": false,
      "t": 104276.90864583346,
      "d": 821.0780208333308,
      "v": 55
    },
    {
      "midi": 55,
      "hit": false,
      "t": 105882.30000000013,
      "d": 465.68604166666046,
      "v": 55
    },
    {
      "midi": 65,
      "hit": false,
      "t": 105882.30000000013,
      "d": 2904.410312499982,
      "v": 55
    },
    {
      "midi": 71,
      "hit": false,
      "t": 105882.30000000013,
      "d": 2904.410312499982,
      "v": 55
    },
    {
      "midi": 74,
      "hit": false,
      "t": 105882.30000000013,
      "d": 2904.410312499982,
      "v": 55
    },
    {
      "midi": 43,
      "hit": false,
      "t": 106507.29968750013,
      "d": 134.80385416666104,
      "v": 55
    },
    {
      "midi": 43,
      "hit": false,
      "t": 106789.16229166678,
      "d": 85.78427083333372,
      "v": 55
    },
    {
      "midi": 43,
      "hit": false,
      "t": 107071.02489583346,
      "d": 85.78427083333372,
      "v": 55
    },
    {
      "midi": 43,
      "hit": false,
      "t": 107377.39729166678,
      "d": 73.52937499999825,
      "v": 55
    },
    {
      "midi": 43,
      "hit": false,
      "t": 107708.27947916678,
      "d": 1151.9602083333302,
      "v": 55
    },
    {
      "midi": 55,
      "hit": false,
      "t": 109436.21979166678,
      "d": 624.9996874999924,
      "v": 55
    },
    {
      "midi": 64,
      "hit": false,
      "t": 109436.21979166678,
      "d": 1531.861979166686,
      "v": 55
    },
    {
      "midi": 74,
      "hit": false,
      "t": 109436.21979166678,
      "d": 1838.2343750000146,
      "v": 55
    },
    {
      "midi": 71,
      "hit": false,
      "t": 109436.21979166678,
      "d": 1887.2539583333419,
      "v": 55
    },
    {
      "midi": 43,
      "hit": false,
      "t": 110012.19989583344,
      "d": 134.80385416666104,
      "v": 55
    },
    {
      "midi": 43,
      "hit": false,
      "t": 110318.57229166677,
      "d": 98.03916666666919,
      "v": 55
    },
    {
      "midi": 43,
      "hit": false,
      "t": 110624.94468750012,
      "d": 98.03916666666919,
      "v": 55
    },
    {
      "midi": 43,
      "hit": false,
      "t": 110931.31708333346,
      "d": 85.78427083333372,
      "v": 55
    },
    {
      "midi": 72,
      "hit": false,
      "t": 111237.68947916679,
      "d": 1397.058124999996,
      "v": 55
    },
    {
      "midi": 64,
      "hit": false,
      "t": 111249.94437500012,
      "d": 1384.8032291666605,
      "v": 55
    },
    {
      "midi": 67,
      "hit": false,
      "t": 111262.19927083346,
      "d": 1384.8032291666605,
      "v": 55
    },
    {
      "midi": 43,
      "hit": false,
      "t": 111274.4541666668,
      "d": 1299.0189583333267,
      "v": 55
    },
    {
      "midi": 55,
      "hit": false,
      "t": 112941.12000000011,
      "d": 612.744791666657,
      "v": 55
    },
    {
      "midi": 62,
      "hit": false,
      "t": 112941.12000000011,
      "d": 1580.8815625000134,
      "v": 55
    },
    {
      "midi": 67,
      "hit": false,
      "t": 112941.12000000011,
      "d": 1580.8815625000134,
      "v": 55
    },
    {
      "midi": 71,
      "hit": false,
      "t": 112941.12000000011,
      "d": 1862.7441666666855,
      "v": 55
    },
    {
      "midi": 43,
      "hit": false,
      "t": 113504.84520833344,
      "d": 134.80385416666104,
      "v": 55
    },
    {
      "midi": 43,
      "hit": false,
      "t": 113835.72739583344,
      "d": 98.03916666666919,
      "v": 55
    },
    {
      "midi": 43,
      "hit": false,
      "t": 114117.59000000011,
      "d": 98.03916666666919,
      "v": 55
    },
    {
      "midi": 43,
      "hit": false,
      "t": 114411.70750000012,
      "d": 85.78427083333372,
      "v": 55
    },
    {
      "midi": 72,
      "hit": false,
      "t": 114730.3347916668,
      "d": 1409.3130208333314,
      "v": 55
    },
    {
      "midi": 43,
      "hit": false,
      "t": 114742.58968750013,
      "d": 1311.2738541666622,
      "v": 55
    },
    {
      "midi": 64,
      "hit": false,
      "t": 114742.58968750013,
      "d": 1360.2934374999895,
      "v": 55
    },
    {
      "midi": 67,
      "hit": false,
      "t": 114742.58968750013,
      "d": 1360.2934374999895,
      "v": 55
    },
    {
      "midi": 55,
      "hit": false,
      "t": 116519.54958333346,
      "d": 661.7643750000134,
      "v": 55
    },
    {
      "midi": 67,
      "hit": false,
      "t": 116519.54958333346,
      "d": 1580.8815625000134,
      "v": 55
    },
    {
      "midi": 71,
      "hit": false,
      "t": 116519.54958333346,
      "d": 1838.234375000029,
      "v": 55
    },
    {
      "midi": 62,
      "hit": false,
      "t": 116531.80447916679,
      "d": 1519.6070833333506,
      "v": 55
    },
    {
      "midi": 43,
      "hit": false,
      "t": 117144.54927083346,
      "d": 110.29406250000466,
      "v": 55
    },
    {
      "midi": 43,
      "hit": false,
      "t": 117401.90208333347,
      "d": 98.03916666666919,
      "v": 55
    },
    {
      "midi": 43,
      "hit": false,
      "t": 117696.01958333347,
      "d": 85.78427083333372,
      "v": 55
    },
    {
      "midi": 43,
      "hit": false,
      "t": 118039.15666666681,
      "d": 98.03916666666919,
      "v": 55
    },
    {
      "midi": 43,
      "hit": false,
      "t": 118333.27416666682,
      "d": 183.8234375000029,
      "v": 55
    },
    {
      "midi": 64,
      "hit": false,
      "t": 118333.27416666682,
      "d": 661.7643749999988,
      "v": 55
    },
    {
      "midi": 67,
      "hit": false,
      "t": 118345.52906250015,
      "d": 674.0192708333343,
      "v": 55
    },
    {
      "midi": 72,
      "hit": false,
      "t": 118345.52906250015,
      "d": 723.0388541666616,
      "v": 55
    },
    {
      "midi": 55,
      "hit": false,
      "t": 120085.72427083348,
      "d": 575.9801041666651,
      "v": 55
    },
    {
      "midi": 62,
      "hit": false,
      "t": 120085.72427083348,
      "d": 1433.8228125000023,
      "v": 55
    },
    {
      "midi": 67,
      "hit": false,
      "t": 120085.72427083348,
      "d": 1458.3326041666733,
      "v": 55
    },
    {
      "midi": 72,
      "hit": false,
      "t": 120085.72427083348,
      "d": 1556.3717708333425,
      "v": 55
    },
    {
      "midi": 43,
      "hit": false,
      "t": 120710.72395833347,
      "d": 122.54895833334012,
      "v": 55
    },
    {
      "midi": 43,
      "hit": false,
      "t": 121004.84145833348,
      "d": 98.03916666666919,
      "v": 55
    },
    {
      "midi": 43,
      "hit": false,
      "t": 121262.19427083348,
      "d": 110.29406250000466,
      "v": 55
    },
    {
      "midi": 43,
      "hit": false,
      "t": 121556.31177083349,
      "d": 73.52937499999825,
      "v": 55
    },
    {
      "midi": 71,
      "hit": false,
      "t": 121838.17437500016,
      "d": 1813.7245833333582,
      "v": 55
    },
    {
      "midi": 55,
      "hit": false,
      "t": 121850.4292708335,
      "d": 575.9801041666651,
      "v": 55
    },
    {
      "midi": 62,
      "hit": false,
      "t": 121850.4292708335,
      "d": 1446.0777083333523,
      "v": 55
    },
    {
      "midi": 67,
      "hit": false,
      "t": 121850.4292708335,
      "d": 1458.3326041666878,
      "v": 55
    },
    {
      "midi": 43,
      "hit": false,
      "t": 122414.15447916683,
      "d": 110.29406250000466,
      "v": 55
    },
    {
      "midi": 43,
      "hit": false,
      "t": 122683.76218750016,
      "d": 110.29406250000466,
      "v": 55
    },
    {
      "midi": 43,
      "hit": false,
      "t": 122977.87968750017,
      "d": 110.29406250000466,
      "v": 55
    },
    {
      "midi": 43,
      "hit": false,
      "t": 123259.74229166684,
      "d": 73.5293750000128,
      "v": 55
    },
    {
      "midi": 72,
      "hit": false,
      "t": 123664.15385416686,
      "d": 1286.7640625000058,
      "v": 55
    },
    {
      "midi": 64,
      "hit": false,
      "t": 123664.15385416686,
      "d": 1311.2738541666768,
      "v": 55
    },
    {
      "midi": 67,
      "hit": false,
      "t": 123664.15385416686,
      "d": 1311.2738541666768,
      "v": 55
    },
    {
      "midi": 48,
      "hit": false,
      "t": 123676.40875000019,
      "d": 563.7252083333296,
      "v": 55
    },
    {
      "midi": 55,
      "hit": false,
      "t": 123737.68322916685,
      "d": 73.52937499999825,
      "v": 55
    },
    {
      "midi": 60,
      "hit": false,
      "t": 124215.62416666685,
      "d": 147.05875000001106,
      "v": 55
    },
    {
      "midi": 60,
      "hit": false,
      "t": 124828.36895833352,
      "d": 134.8038541666756,
      "v": 55
    },
    {
      "midi": 64,
      "hit": false,
      "t": 125465.62354166686,
      "d": 1213.2346875000076,
      "v": 55
    },
    {
      "midi": 67,
      "hit": false,
      "t": 125465.62354166686,
      "d": 1213.2346875000076,
      "v": 55
    },
    {
      "midi": 72,
      "hit": false,
      "t": 125465.62354166686,
      "d": 1237.7444791666785,
      "v": 55
    },
    {
      "midi": 48,
      "hit": false,
      "t": 125477.8784375002,
      "d": 588.2350000000006,
      "v": 55
    },
    {
      "midi": 60,
      "hit": false,
      "t": 126004.83895833354,
      "d": 134.80385416666104,
      "v": 55
    },
    {
      "midi": 60,
      "hit": false,
      "t": 126580.8190625002,
      "d": 122.54895833334012,
      "v": 55
    },
    {
      "midi": 72,
      "hit": false,
      "t": 127107.77958333354,
      "d": 637.2545833333425,
      "v": 55
    },
    {
      "midi": 67,
      "hit": false,
      "t": 127132.28937500021,
      "d": 220.5881250000093,
      "v": 55
    },
    {
      "midi": 64,
      "hit": false,
      "t": 127132.28937500021,
      "d": 318.6272916666785,
      "v": 55
    },
    {
      "midi": 48,
      "hit": false,
      "t": 127144.54427083355,
      "d": 539.2154166666733,
      "v": 55
    },
    {
      "midi": 69,
      "hit": false,
      "t": 127732.77927083355,
      "d": 183.8234375000029,
      "v": 55
    },
    {
      "midi": 65,
      "hit": false,
      "t": 127745.03416666688,
      "d": 171.56854166666744,
      "v": 55
    },
    {
      "midi": 74,
      "hit": false,
      "t": 127745.03416666688,
      "d": 392.15666666667676,
      "v": 55
    },
    {
      "midi": 53,
      "hit": false,
      "t": 127757.28906250022,
      "d": 171.56854166666744,
      "v": 55
    },
    {
      "midi": 72,
      "hit": false,
      "t": 128271.99468750022,
      "d": 85.78427083333372,
      "v": 55
    },
    {
      "midi": 69,
      "hit": false,
      "t": 128271.99468750022,
      "d": 98.03916666666919,
      "v": 55
    },
    {
      "midi": 54,
      "hit": false,
      "t": 128271.99468750022,
      "d": 147.0587499999965,
      "v": 55
    },
    {
      "midi": 64,
      "hit": false,
      "t": 128271.99468750022,
      "d": 183.8234375000029,
      "v": 55
    },
    {
      "midi": 71,
      "hit": false,
      "t": 128884.73947916689,
      "d": 134.8038541666756,
      "v": 55
    },
    {
      "midi": 67,
      "hit": false,
      "t": 128884.73947916689,
      "d": 159.31364583334653,
      "v": 55
    },
    {
      "midi": 62,
      "hit": false,
      "t": 128884.73947916689,
      "d": 183.82343750001746,
      "v": 55
    },
    {
      "midi": 55,
      "hit": false,
      "t": 128896.99437500023,
      "d": 245.09791666668025,
      "v": 55
    },
    {
      "midi": 53,
      "hit": false,
      "t": 129178.85697916691,
      "d": 208.33322916667385,
      "v": 55
    },
    {
      "midi": 52,
      "hit": false,
      "t": 129497.4842708336,
      "d": 110.29406250000466,
      "v": 55
    },
    {
      "midi": 55,
      "hit": false,
      "t": 129497.4842708336,
      "d": 220.5881250000093,
      "v": 55
    },
    {
      "midi": 50,
      "hit": false,
      "t": 129791.6017708336,
      "d": 98.03916666666919,
      "v": 55
    },
    {
      "midi": 48,
      "hit": false,
      "t": 130097.97416666694,
      "d": 110.29406250000466,
      "v": 55
    },
    {
      "midi": 55,
      "hit": false,
      "t": 130097.97416666694,
      "d": 110.29406250000466,
      "v": 55
    },
    {
      "midi": 47,
      "hit": false,
      "t": 130416.60145833362,
      "d": 98.03916666666919,
      "v": 55
    },
    {
      "midi": 48,
      "hit": false,
      "t": 130735.22875000029,
      "d": 600.4898958333506,
      "v": 55
    },
    {
      "midi": 64,
      "hit": false,
      "t": 130747.48364583362,
      "d": 747.5486458333326,
      "v": 55
    },
    {
      "midi": 72,
      "hit": false,
      "t": 130759.73854166696,
      "d": 772.0584374999889,
      "v": 55
    },
    {
      "midi": 67,
      "hit": false,
      "t": 130759.73854166696,
      "d": 784.3133333333099,
      "v": 55
    },
    {
      "midi": 60,
      "hit": false,
      "t": 131347.97354166696,
      "d": 122.54895833332557,
      "v": 55
    },
    {
      "midi": 60,
      "hit": false,
      "t": 131862.67916666693,
      "d": 147.0587499999965,
      "v": 55
    },
    {
      "midi": 72,
      "hit": false,
      "t": 132426.40437500027,
      "d": 1090.6857291666383,
      "v": 55
    },
    {
      "midi": 48,
      "hit": false,
      "t": 132438.6592708336,
      "d": 612.744791666657,
      "v": 55
    },
    {
      "midi": 67,
      "hit": false,
      "t": 132438.6592708336,
      "d": 870.0976041666581,
      "v": 55
    },
    {
      "midi": 64,
      "hit": false,
      "t": 132438.6592708336,
      "d": 931.3720833333209,
      "v": 55
    },
    {
      "midi": 60,
      "hit": false,
      "t": 133039.14916666693,
      "d": 122.54895833332557,
      "v": 55
    },
    {
      "midi": 60,
      "hit": false,
      "t": 133590.61947916693,
      "d": 147.0587499999965,
      "v": 55
    },
    {
      "midi": 67,
      "hit": false,
      "t": 134154.34468750027,
      "d": 232.84302083333023,
      "v": 55
    },
    {
      "midi": 48,
      "hit": false,
      "t": 134154.34468750027,
      "d": 404.4115624999977,
      "v": 55
    },
    {
      "midi": 72,
      "hit": false,
      "t": 134154.34468750027,
      "d": 588.234999999986,
      "v": 55
    },
    {
      "midi": 64,
      "hit": false,
      "t": 134166.5995833336,
      "d": 269.6077083333512,
      "v": 55
    },
    {
      "midi": 60,
      "hit": false,
      "t": 134534.2464583336,
      "d": 196.07833333333838,
      "v": 55
    },
    {
      "midi": 74,
      "hit": false,
      "t": 134754.83458333358,
      "d": 159.31364583331742,
      "v": 55
    },
    {
      "midi": 69,
      "hit": false,
      "t": 134779.34437500025,
      "d": 134.8038541666465,
      "v": 55
    },
    {
      "midi": 62,
      "hit": false,
      "t": 134779.34437500025,
      "d": 196.07833333330927,
      "v": 55
    },
    {
      "midi": 53,
      "hit": false,
      "t": 134791.59927083357,
      "d": 183.82343749998836,
      "v": 55
    },
    {
      "midi": 62,
      "hit": false,
      "t": 135379.83427083355,
      "d": 183.82343749998836,
      "v": 55
    },
    {
      "midi": 55,
      "hit": false,
      "t": 135379.83427083355,
      "d": 196.07833333330927,
      "v": 55
    },
    {
      "midi": 67,
      "hit": false,
      "t": 135379.83427083355,
      "d": 196.07833333330927,
      "v": 55
    },
    {
      "midi": 71,
      "hit": false,
      "t": 135379.83427083355,
      "d": 232.84302083330113,
      "v": 55
    },
    {
      "midi": 67,
      "hit": false,
      "t": 135882.28500000018,
      "d": 894.6073958333,
      "v": 55
    },
    {
      "midi": 72,
      "hit": false,
      "t": 135882.28500000018,
      "d": 906.8622916666209,
      "v": 55
    },
    {
      "midi": 48,
      "hit": false,
      "t": 135882.28500000018,
      "d": 919.1171874999418,
      "v": 55
    },
    {
      "midi": 64,
      "hit": false,
      "t": 135894.5398958335,
      "d": 845.5878124999872,
      "v": 55
    },
    {
      "midi": 67,
      "hit": false,
      "t": 139374.93031250013,
      "d": 906.8622916666209,
      "v": 55
    },
    {
      "midi": 72,
      "hit": false,
      "t": 139387.18520833345,
      "d": 906.8622916666209,
      "v": 55
    },
    {
      "midi": 48,
      "hit": false,
      "t": 139387.18520833345,
      "d": 919.1171874999418,
      "v": 55
    },
    {
      "midi": 64,
      "hit": false,
      "t": 139399.44010416677,
      "d": 845.5878124999872,
      "v": 55
    },
    {
      "midi": 67,
      "hit": false,
      "t": 142928.85010416672,
      "d": 833.3329166666372,
      "v": 55
    },
    {
      "midi": 72,
      "hit": false,
      "t": 142928.85010416672,
      "d": 845.5878124999581,
      "v": 55
    },
    {
      "midi": 64,
      "hit": false,
      "t": 142941.10500000004,
      "d": 784.3133333333244,
      "v": 55
    },
    {
      "midi": 48,
      "hit": false,
      "t": 142941.10500000004,
      "d": 808.8231249999953,
      "v": 55
    },
    {
      "midi": 52,
      "hit": false,
      "t": 146495.02479166668,
      "d": 612.744791666657,
      "v": 55
    },
    {
      "midi": 48,
      "hit": false,
      "t": 146495.02479166668,
      "d": 624.9996874999779,
      "v": 55
    },
    {
      "midi": 55,
      "hit": false,
      "t": 146495.02479166668,
      "d": 624.9996874999779,
      "v": 55
    },
    {
      "midi": 60,
      "hit": false,
      "t": 146495.02479166668,
      "d": 649.5094791666488,
      "v": 55
    },
    {
      "midi": 48,
      "hit": false,
      "t": 147928.84760416666,
      "d": 61.274479166662786,
      "v": 55
    },
    {
      "midi": 48,
      "hit": false,
      "t": 148235.22,
      "d": 637.2545833332988,
      "v": 55
    },
    {
      "midi": 52,
      "hit": false,
      "t": 148247.47489583332,
      "d": 612.744791666657,
      "v": 55
    },
    {
      "midi": 55,
      "hit": false,
      "t": 148247.47489583332,
      "d": 612.744791666657,
      "v": 55
    },
    {
      "midi": 60,
      "hit": false,
      "t": 148247.47489583332,
      "d": 649.5094791666488,
      "v": 55
    },
    {
      "midi": 48,
      "hit": false,
      "t": 149669.04281249997,
      "d": 61.274479166662786,
      "v": 55
    },
    {
      "midi": 48,
      "hit": false,
      "t": 149999.92499999996,
      "d": 134.80385416661738,
      "v": 55
    },
    {
      "midi": 64,
      "hit": false,
      "t": 149999.92499999996,
      "d": 1556.3717708332988,
      "v": 55
    },
    {
      "midi": 55,
      "hit": false,
      "t": 150012.17989583328,
      "d": 1556.3717708332988,
      "v": 55
    },
    {
      "midi": 60,
      "hit": false,
      "t": 150012.17989583328,
      "d": 1556.3717708332988,
      "v": 55
    },
    {
      "midi": 57,
      "hit": false,
      "t": 150024.4347916666,
      "d": 12.254895833320916,
      "v": 55
    },
    {
      "midi": 43,
      "hit": false,
      "t": 150134.72885416658,
      "d": 134.8038541666756,
      "v": 55
    },
    {
      "midi": 48,
      "hit": false,
      "t": 150269.53270833325,
      "d": 122.54895833332557,
      "v": 55
    },
    {
      "midi": 43,
      "hit": false,
      "t": 150392.08166666658,
      "d": 147.0587499999965,
      "v": 55
    },
    {
      "midi": 48,
      "hit": false,
      "t": 150551.3953124999,
      "d": 147.0587499999965,
      "v": 55
    },
    {
      "midi": 43,
      "hit": false,
      "t": 150673.94427083322,
      "d": 159.31364583334653,
      "v": 55
    },
    {
      "midi": 48,
      "hit": false,
      "t": 150833.25791666657,
      "d": 159.31364583334653,
      "v": 55
    },
    {
      "midi": 43,
      "hit": false,
      "t": 150992.5715624999,
      "d": 171.56854166666744,
      "v": 55
    },
    {
      "midi": 48,
      "hit": false,
      "t": 151164.14010416658,
      "d": 134.8038541666756,
      "v": 55
    },
    {
      "midi": 43,
      "hit": false,
      "t": 151311.19885416658,
      "d": 159.31364583334653,
      "v": 55
    },
    {
      "midi": 48,
      "hit": false,
      "t": 151470.51249999992,
      "d": 134.8038541666465,
      "v": 55
    },
    {
      "midi": 43,
      "hit": false,
      "t": 151605.31635416657,
      "d": 159.31364583334653,
      "v": 55
    },
    {
      "midi": 48,
      "hit": false,
      "t": 151776.88489583324,
      "d": 134.8038541666465,
      "v": 55
    },
    {
      "midi": 64,
      "hit": false,
      "t": 151776.88489583324,
      "d": 1470.587499999965,
      "v": 55
    },
    {
      "midi": 60,
      "hit": false,
      "t": 151789.13979166656,
      "d": 1458.3326041666442,
      "v": 55
    },
    {
      "midi": 55,
      "hit": false,
      "t": 151789.13979166656,
      "d": 1470.587499999965,
      "v": 55
    },
    {
      "midi": 43,
      "hit": false,
      "t": 151923.9436458332,
      "d": 122.54895833332557,
      "v": 55
    },
    {
      "midi": 48,
      "hit": false,
      "t": 152058.74749999985,
      "d": 134.8038541666756,
      "v": 55
    },
    {
      "midi": 43,
      "hit": false,
      "t": 152193.55135416653,
      "d": 159.31364583334653,
      "v": 55
    },
    {
      "midi": 48,
      "hit": false,
      "t": 152352.86499999987,
      "d": 134.8038541666756,
      "v": 55
    },
    {
      "midi": 43,
      "hit": false,
      "t": 152487.66885416655,
      "d": 147.0587499999965,
      "v": 55
    },
    {
      "midi": 48,
      "hit": false,
      "t": 152634.72760416655,
      "d": 147.0587499999965,
      "v": 55
    },
    {
      "midi": 43,
      "hit": false,
      "t": 152794.04124999986,
      "d": 171.56854166666744,
      "v": 55
    },
    {
      "midi": 48,
      "hit": false,
      "t": 152953.3548958332,
      "d": 147.0587499999965,
      "v": 55
    },
    {
      "midi": 43,
      "hit": false,
      "t": 153100.4136458332,
      "d": 147.0587499999965,
      "v": 55
    },
    {
      "midi": 48,
      "hit": false,
      "t": 153247.4723958332,
      "d": 134.8038541666465,
      "v": 55
    },
    {
      "midi": 43,
      "hit": false,
      "t": 153370.02135416653,
      "d": 171.56854166666744,
      "v": 55
    },
    {
      "midi": 64,
      "hit": false,
      "t": 153541.5898958332,
      "d": 416.6664583333477,
      "v": 55
    },
    {
      "midi": 67,
      "hit": false,
      "t": 153541.5898958332,
      "d": 428.9213541666686,
      "v": 55
    },
    {
      "midi": 48,
      "hit": false,
      "t": 153553.84479166652,
      "d": 220.5881250000093,
      "v": 55
    },
    {
      "midi": 60,
      "hit": false,
      "t": 153553.84479166652,
      "d": 379.90177083335584,
      "v": 55
    },
    {
      "midi": 53,
      "hit": false,
      "t": 155306.2948958332,
      "d": 784.3133333332953,
      "v": 55
    },
    {
      "midi": 60,
      "hit": false,
      "t": 155318.54979166653,
      "d": 784.3133333332953,
      "v": 55
    },
    {
      "midi": 65,
      "hit": false,
      "t": 155416.5889583332,
      "d": 674.0192708333198,
      "v": 55
    },
    {
      "midi": 69,
      "hit": false,
      "t": 155514.62812499984,
      "d": 674.0192708333198,
      "v": 55
    },
    {
      "midi": 54,
      "hit": false,
      "t": 157034.23520833315,
      "d": 857.8427083333081,
      "v": 55
    },
    {
      "midi": 62,
      "hit": false,
      "t": 157034.23520833315,
      "d": 857.8427083333081,
      "v": 55
    },
    {
      "midi": 69,
      "hit": false,
      "t": 157156.78416666648,
      "d": 735.2937499999825,
      "v": 55
    },
    {
      "midi": 74,
      "hit": false,
      "t": 157279.3331249998,
      "d": 686.2741666666698,
      "v": 55
    },
    {
      "midi": 62,
      "hit": false,
      "t": 158860.2146874998,
      "d": 992.6465624999837,
      "v": 55
    },
    {
      "midi": 55,
      "hit": false,
      "t": 158860.2146874998,
      "d": 1004.9014583333046,
      "v": 55
    },
    {
      "midi": 67,
      "hit": false,
      "t": 158970.5087499998,
      "d": 906.8622916666209,
      "v": 55
    },
    {
      "midi": 71,
      "hit": false,
      "t": 159093.05770833313,
      "d": 808.8231249999662,
      "v": 55
    },
    {
      "midi": 64,
      "hit": false,
      "t": 160588.15499999977,
      "d": 1041.6661458333256,
      "v": 55
    },
    {
      "midi": 56,
      "hit": false,
      "t": 160588.15499999977,
      "d": 1053.9210416666465,
      "v": 55
    },
    {
      "midi": 71,
      "hit": false,
      "t": 160710.7039583331,
      "d": 955.8818749999627,
      "v": 55
    },
    {
      "midi": 76,
      "hit": false,
      "t": 160833.25291666642,
      "d": 821.0780208333163,
      "v": 55
    },
    {
      "midi": 64,
      "hit": false,
      "t": 162340.60510416637,
      "d": 955.8818749999919,
      "v": 55
    },
    {
      "midi": 57,
      "hit": false,
      "t": 162340.60510416637,
      "d": 1029.4112499999756,
      "v": 55
    },
    {
      "midi": 69,
      "hit": false,
      "t": 162463.1540624997,
      "d": 882.3525000000081,
      "v": 55
    },
    {
      "midi": 72,
      "hit": false,
      "t": 162573.4481249997,
      "d": 784.3133333333244,
      "v": 55
    },
    {
      "midi": 67,
      "hit": false,
      "t": 164129.819895833,
      "d": 710.7839583332825,
      "v": 55
    },
    {
      "midi": 43,
      "hit": false,
      "t": 164142.07479166632,
      "d": 747.5486458332743,
      "v": 55
    },
    {
      "midi": 71,
      "hit": false,
      "t": 164154.32968749964,
      "d": 735.2937499999534,
      "v": 55
    },
    {
      "midi": 74,
      "hit": false,
      "t": 164166.58458333297,
      "d": 710.7839583333116,
      "v": 55
    },
    {
      "midi": 43,
      "hit": false,
      "t": 165575.89760416627,
      "d": 61.274479166662786,
      "v": 55
    },
    {
      "midi": 43,
      "hit": false,
      "t": 165870.01510416626,
      "d": 649.5094791666779,
      "v": 55
    },
    {
      "midi": 67,
      "hit": false,
      "t": 165870.01510416626,
      "d": 661.7643749999988,
      "v": 55
    },
    {
      "midi": 62,
      "hit": false,
      "t": 165870.01510416626,
      "d": 674.0192708333198,
      "v": 55
    },
    {
      "midi": 71,
      "hit": false,
      "t": 165870.01510416626,
      "d": 674.0192708333198,
      "v": 55
    },
    {
      "midi": 43,
      "hit": false,
      "t": 167365.11239583293,
      "d": 61.274479166662786,
      "v": 55
    },
    {
      "midi": 43,
      "hit": false,
      "t": 167671.48479166627,
      "d": 98.03916666665464,
      "v": 55
    },
    {
      "midi": 62,
      "hit": false,
      "t": 167671.48479166627,
      "d": 1348.0385416666977,
      "v": 55
    },
    {
      "midi": 67,
      "hit": false,
      "t": 167671.48479166627,
      "d": 1384.8032291666896,
      "v": 55
    },
    {
      "midi": 59,
      "hit": false,
      "t": 167671.48479166627,
      "d": 1495.0972916666651,
      "v": 55
    },
    {
      "midi": 47,
      "hit": false,
      "t": 167818.54354166627,
      "d": 98.03916666668374,
      "v": 55
    },
    {
      "midi": 45,
      "hit": false,
      "t": 167843.05333333294,
      "d": 49.01958333334187,
      "v": 55
    },
    {
      "midi": 43,
      "hit": false,
      "t": 167953.34739583294,
      "d": 110.29406250000466,
      "v": 55
    },
    {
      "midi": 47,
      "hit": false,
      "t": 168063.64145833295,
      "d": 134.8038541666756,
      "v": 55
    },
    {
      "midi": 43,
      "hit": false,
      "t": 168222.9551041663,
      "d": 110.29406250000466,
      "v": 55
    },
    {
      "midi": 47,
      "hit": false,
      "t": 168345.50406249962,
      "d": 147.0587499999965,
      "v": 55
    },
    {
      "midi": 43,
      "hit": false,
      "t": 168517.0726041663,
      "d": 110.29406250000466,
      "v": 55
    },
    {
      "midi": 47,
      "hit": false,
      "t": 168651.87645833296,
      "d": 134.8038541666756,
      "v": 55
    },
    {
      "midi": 43,
      "hit": false,
      "t": 168798.93520833296,
      "d": 122.54895833332557,
      "v": 55
    },
    {
      "midi": 47,
      "hit": false,
      "t": 168945.99395833295,
      "d": 122.54895833332557,
      "v": 55
    },
    {
      "midi": 43,
      "hit": false,
      "t": 169080.7978124996,
      "d": 122.54895833332557,
      "v": 55
    },
    {
      "midi": 47,
      "hit": false,
      "t": 169227.8565624996,
      "d": 159.31364583334653,
      "v": 55
    },
    {
      "midi": 67,
      "hit": false,
      "t": 169399.42510416626,
      "d": 1446.077708333265,
      "v": 55
    },
    {
      "midi": 71,
      "hit": false,
      "t": 169399.42510416626,
      "d": 1470.587499999936,
      "v": 55
    },
    {
      "midi": 43,
      "hit": false,
      "t": 169411.6799999996,
      "d": 110.29406250000466,
      "v": 55
    },
    {
      "midi": 62,
      "hit": false,
      "t": 169411.6799999996,
      "d": 1433.8228124999441,
      "v": 55
    },
    {
      "midi": 47,
      "hit": false,
      "t": 169546.48385416626,
      "d": 122.54895833332557,
      "v": 55
    },
    {
      "midi": 43,
      "hit": false,
      "t": 169681.2877083329,
      "d": 98.03916666665464,
      "v": 55
    },
    {
      "midi": 47,
      "hit": false,
      "t": 169816.09156249955,
      "d": 147.0587499999965,
      "v": 55
    },
    {
      "midi": 43,
      "hit": false,
      "t": 169975.40520833287,
      "d": 98.03916666665464,
      "v": 55
    },
    {
      "midi": 47,
      "hit": false,
      "t": 170122.46395833287,
      "d": 134.8038541666756,
      "v": 55
    },
    {
      "midi": 43,
      "hit": false,
      "t": 170269.52270833286,
      "d": 110.29406250000466,
      "v": 55
    },
    {
      "midi": 47,
      "hit": false,
      "t": 170416.58145833286,
      "d": 134.8038541666756,
      "v": 55
    },
    {
      "midi": 43,
      "hit": false,
      "t": 170600.40489583288,
      "d": 85.78427083333372,
      "v": 55
    },
    {
      "midi": 47,
      "hit": false,
      "t": 170722.9538541662,
      "d": 98.03916666665464,
      "v": 55
    },
    {
      "midi": 43,
      "hit": false,
      "t": 170845.50281249953,
      "d": 122.54895833332557,
      "v": 55
    },
    {
      "midi": 47,
      "hit": false,
      "t": 171004.81645833285,
      "d": 171.56854166666744,
      "v": 55
    },
    {
      "midi": 43,
      "hit": false,
      "t": 171176.3849999995,
      "d": 637.2545833333279,
      "v": 55
    },
    {
      "midi": 65,
      "hit": false,
      "t": 171176.3849999995,
      "d": 637.2545833333279,
      "v": 55
    },
    {
      "midi": 74,
      "hit": false,
      "t": 171176.3849999995,
      "d": 661.7643749999988,
      "v": 55
    },
    {
      "midi": 71,
      "hit": false,
      "t": 171176.3849999995,
      "d": 686.2741666666698,
      "v": 55
    },
    {
      "midi": 72,
      "hit": false,
      "t": 173075.89385416618,
      "d": 1286.7640624999767,
      "v": 55
    },
    {
      "midi": 64,
      "hit": false,
      "t": 173075.89385416618,
      "d": 1311.2738541666185,
      "v": 55
    },
    {
      "midi": 67,
      "hit": false,
      "t": 173075.89385416618,
      "d": 1311.2738541666185,
      "v": 55
    },
    {
      "midi": 48,
      "hit": false,
      "t": 173088.1487499995,
      "d": 563.7252083333442,
      "v": 55
    },
    {
      "midi": 55,
      "hit": false,
      "t": 173149.42322916616,
      "d": 73.5293750000128,
      "v": 55
    },
    {
      "midi": 60,
      "hit": false,
      "t": 173627.36416666617,
      "d": 147.0587499999965,
      "v": 55
    },
    {
      "midi": 60,
      "hit": false,
      "t": 174240.10895833283,
      "d": 134.8038541666465,
      "v": 55
    },
    {
      "midi": 64,
      "hit": false,
      "t": 174877.36354166613,
      "d": 1213.234687499964,
      "v": 55
    },
    {
      "midi": 67,
      "hit": false,
      "t": 174877.36354166613,
      "d": 1213.234687499964,
      "v": 55
    },
    {
      "midi": 72,
      "hit": false,
      "t": 174877.36354166613,
      "d": 1237.7444791666348,
      "v": 55
    },
    {
      "midi": 48,
      "hit": false,
      "t": 174889.61843749945,
      "d": 588.234999999986,
      "v": 55
    },
    {
      "midi": 60,
      "hit": false,
      "t": 175416.57895833277,
      "d": 134.8038541666756,
      "v": 55
    },
    {
      "midi": 60,
      "hit": false,
      "t": 175992.55906249944,
      "d": 122.54895833332557,
      "v": 55
    },
    {
      "midi": 72,
      "hit": false,
      "t": 176519.51958333276,
      "d": 637.2545833332988,
      "v": 55
    },
    {
      "midi": 67,
      "hit": false,
      "t": 176544.02937499943,
      "d": 220.5881249999802,
      "v": 55
    },
    {
      "midi": 64,
      "hit": false,
      "t": 176544.02937499943,
      "d": 318.62729166663485,
      "v": 55
    },
    {
      "midi": 48,
      "hit": false,
      "t": 176556.28427083275,
      "d": 539.2154166666442,
      "v": 55
    },
    {
      "midi": 69,
      "hit": false,
      "t": 177144.51927083274,
      "d": 183.82343749998836,
      "v": 55
    },
    {
      "midi": 77,
      "hit": false,
      "t": 177156.77416666606,
      "d": 171.56854166666744,
      "v": 55
    },
    {
      "midi": 74,
      "hit": false,
      "t": 177156.77416666606,
      "d": 392.15666666664765,
      "v": 55
    },
    {
      "midi": 53,
      "hit": false,
      "t": 177169.02906249938,
      "d": 171.56854166666744,
      "v": 55
    },
    {
      "midi": 72,
      "hit": false,
      "t": 177683.73468749938,
      "d": 85.78427083333372,
      "v": 55
    },
    {
      "midi": 54,
      "hit": false,
      "t": 177683.73468749938,
      "d": 147.0587499999965,
      "v": 55
    },
    {
      "midi": 76,
      "hit": false,
      "t": 177683.73468749938,
      "d": 183.82343749998836,
      "v": 55
    },
    {
      "midi": 71,
      "hit": false,
      "t": 178296.47947916604,
      "d": 134.8038541666465,
      "v": 55
    },
    {
      "midi": 74,
      "hit": false,
      "t": 178296.47947916604,
      "d": 183.82343749998836,
      "v": 55
    },
    {
      "midi": 55,
      "hit": false,
      "t": 178308.73437499936,
      "d": 245.09791666668025,
      "v": 55
    },
    {
      "midi": 53,
      "hit": false,
      "t": 178590.59697916603,
      "d": 208.3332291666593,
      "v": 55
    },
    {
      "midi": 52,
      "hit": false,
      "t": 178909.2242708327,
      "d": 110.29406250000466,
      "v": 55
    },
    {
      "midi": 67,
      "hit": false,
      "t": 178909.2242708327,
      "d": 220.5881250000093,
      "v": 55
    },
    {
      "midi": 50,
      "hit": false,
      "t": 179203.34177083272,
      "d": 98.03916666665464,
      "v": 55
    },
    {
      "midi": 48,
      "hit": false,
      "t": 179509.71416666603,
      "d": 110.29406250000466,
      "v": 55
    },
    {
      "midi": 67,
      "hit": false,
      "t": 179509.71416666603,
      "d": 110.29406250000466,
      "v": 55
    },
    {
      "midi": 47,
      "hit": false,
      "t": 179828.3414583327,
      "d": 98.03916666665464,
      "v": 55
    },
    {
      "midi": 48,
      "hit": false,
      "t": 180146.96874999936,
      "d": 600.489895833307,
      "v": 55
    },
    {
      "midi": 64,
      "hit": false,
      "t": 180159.22364583268,
      "d": 747.5486458333035,
      "v": 55
    },
    {
      "midi": 72,
      "hit": false,
      "t": 180171.478541666,
      "d": 772.0584374999744,
      "v": 55
    },
    {
      "midi": 67,
      "hit": false,
      "t": 180171.478541666,
      "d": 784.3133333332953,
      "v": 55
    },
    {
      "midi": 60,
      "hit": false,
      "t": 180759.713541666,
      "d": 122.54895833332557,
      "v": 55
    },
    {
      "midi": 60,
      "hit": false,
      "t": 181274.41916666596,
      "d": 147.0587499999965,
      "v": 55
    },
    {
      "midi": 72,
      "hit": false,
      "t": 181838.1443749993,
      "d": 1090.6857291666383,
      "v": 55
    },
    {
      "midi": 48,
      "hit": false,
      "t": 181850.39927083263,
      "d": 612.744791666657,
      "v": 55
    },
    {
      "midi": 67,
      "hit": false,
      "t": 181850.39927083263,
      "d": 870.0976041666581,
      "v": 55
    },
    {
      "midi": 64,
      "hit": false,
      "t": 181850.39927083263,
      "d": 931.3720833333209,
      "v": 55
    },
    {
      "midi": 60,
      "hit": false,
      "t": 182450.88916666596,
      "d": 122.54895833332557,
      "v": 55
    },
    {
      "midi": 60,
      "hit": false,
      "t": 183002.35947916596,
      "d": 147.0587499999965,
      "v": 55
    },
    {
      "midi": 67,
      "hit": false,
      "t": 183566.0846874993,
      "d": 232.84302083333023,
      "v": 55
    },
    {
      "midi": 48,
      "hit": false,
      "t": 183566.0846874993,
      "d": 404.4115624999977,
      "v": 55
    },
    {
      "midi": 72,
      "hit": false,
      "t": 183566.0846874993,
      "d": 588.234999999986,
      "v": 55
    },
    {
      "midi": 64,
      "hit": false,
      "t": 183578.33958333262,
      "d": 269.6077083333512,
      "v": 55
    },
    {
      "midi": 60,
      "hit": false,
      "t": 183945.98645833263,
      "d": 196.07833333333838,
      "v": 55
    },
    {
      "midi": 74,
      "hit": false,
      "t": 184166.5745833326,
      "d": 159.31364583331742,
      "v": 55
    },
    {
      "midi": 69,
      "hit": false,
      "t": 184191.08437499928,
      "d": 134.8038541666465,
      "v": 55
    },
    {
      "midi": 53,
      "hit": false,
      "t": 184203.3392708326,
      "d": 183.82343749998836,
      "v": 55
    },
    {
      "midi": 62,
      "hit": false,
      "t": 184791.57427083259,
      "d": 183.82343749998836,
      "v": 55
    },
    {
      "midi": 55,
      "hit": false,
      "t": 184791.57427083259,
      "d": 196.07833333330927,
      "v": 55
    },
    {
      "midi": 67,
      "hit": false,
      "t": 184791.57427083259,
      "d": 196.07833333330927,
      "v": 55
    },
    {
      "midi": 71,
      "hit": false,
      "t": 184791.57427083259,
      "d": 232.84302083330113,
      "v": 55
    },
    {
      "midi": 72,
      "hit": false,
      "t": 185330.78968749923,
      "d": 698.5290624999616,
      "v": 55
    },
    {
      "midi": 64,
      "hit": false,
      "t": 185343.04458333255,
      "d": 674.0192708333198,
      "v": 55
    },
    {
      "midi": 67,
      "hit": false,
      "t": 185343.04458333255,
      "d": 686.2741666666407,
      "v": 55
    },
    {
      "midi": 48,
      "hit": false,
      "t": 185355.29947916587,
      "d": 674.0192708333198,
      "v": 55
    },
    {
      "midi": 69,
      "hit": false,
      "t": 188811.18010416586,
      "d": 612.744791666657,
      "v": 55
    },
    {
      "midi": 60,
      "hit": false,
      "t": 188823.43499999918,
      "d": 575.9801041666651,
      "v": 55
    },
    {
      "midi": 41,
      "hit": false,
      "t": 188823.43499999918,
      "d": 600.489895833336,
      "v": 55
    },
    {
      "midi": 65,
      "hit": false,
      "t": 188823.43499999918,
      "d": 612.744791666657,
      "v": 55
    },
    {
      "midi": 62,
      "hit": false,
      "t": 192340.59010416584,
      "d": 600.489895833307,
      "v": 55
    },
    {
      "midi": 70,
      "hit": false,
      "t": 192340.59010416584,
      "d": 661.7643749999697,
      "v": 55
    },
    {
      "midi": 65,
      "hit": false,
      "t": 192352.84499999916,
      "d": 575.9801041666651,
      "v": 55
    },
    {
      "midi": 46,
      "hit": false,
      "t": 192352.84499999916,
      "d": 624.9996874999779,
      "v": 55
    },
    {
      "midi": 73,
      "hit": false,
      "t": 194105.2951041658,
      "d": 661.7643749999697,
      "v": 55
    },
    {
      "midi": 67,
      "hit": false,
      "t": 194117.54999999912,
      "d": 588.234999999986,
      "v": 55
    },
    {
      "midi": 64,
      "hit": false,
      "t": 194117.54999999912,
      "d": 600.489895833307,
      "v": 55
    },
    {
      "midi": 45,
      "hit": false,
      "t": 194129.80489583244,
      "d": 612.744791666657,
      "v": 55
    },
    {
      "midi": 65,
      "hit": false,
      "t": 195894.50989583242,
      "d": 539.2154166666442,
      "v": 55
    },
    {
      "midi": 74,
      "hit": false,
      "t": 195894.50989583242,
      "d": 563.725208333286,
      "v": 55
    },
    {
      "midi": 69,
      "hit": false,
      "t": 195906.76479166574,
      "d": 539.2154166666442,
      "v": 55
    },
    {
      "midi": 50,
      "hit": false,
      "t": 195906.76479166574,
      "d": 575.980104166636,
      "v": 55
    },
    {
      "midi": 68,
      "hit": false,
      "t": 197634.7051041657,
      "d": 588.234999999986,
      "v": 55
    },
    {
      "midi": 74,
      "hit": false,
      "t": 197634.7051041657,
      "d": 588.234999999986,
      "v": 55
    },
    {
      "midi": 64,
      "hit": false,
      "t": 197646.95999999903,
      "d": 551.4703124999942,
      "v": 55
    },
    {
      "midi": 52,
      "hit": false,
      "t": 197646.95999999903,
      "d": 575.9801041666651,
      "v": 55
    },
    {
      "midi": 64,
      "hit": false,
      "t": 199399.4101041657,
      "d": 624.999687500007,
      "v": 55
    },
    {
      "midi": 69,
      "hit": false,
      "t": 199399.4101041657,
      "d": 624.999687500007,
      "v": 55
    },
    {
      "midi": 45,
      "hit": false,
      "t": 199399.4101041657,
      "d": 637.2545833333279,
      "v": 55
    },
    {
      "midi": 72,
      "hit": false,
      "t": 199399.4101041657,
      "d": 674.0192708333198,
      "v": 55
    },
    {
      "midi": 70,
      "hit": false,
      "t": 201188.62489583236,
      "d": 735.2937499999825,
      "v": 55
    },
    {
      "midi": 67,
      "hit": false,
      "t": 201188.62489583236,
      "d": 747.5486458333035,
      "v": 55
    },
    {
      "midi": 74,
      "hit": false,
      "t": 201188.62489583236,
      "d": 772.0584374999453,
      "v": 55
    },
    {
      "midi": 43,
      "hit": false,
      "t": 201200.87979166568,
      "d": 747.5486458333035,
      "v": 55
    },
    {
      "midi": 77,
      "hit": false,
      "t": 202904.31031249897,
      "d": 674.0192708333198,
      "v": 55
    },
    {
      "midi": 69,
      "hit": false,
      "t": 202904.31031249897,
      "d": 686.2741666666407,
      "v": 55
    },
    {
      "midi": 53,
      "hit": false,
      "t": 202916.5652083323,
      "d": 649.5094791666779,
      "v": 55
    },
    {
      "midi": 72,
      "hit": false,
      "t": 202916.5652083323,
      "d": 674.0192708333198,
      "v": 55
    },
    {
      "midi": 65,
      "hit": false,
      "t": 204693.5251041656,
      "d": 526.9605208333232,
      "v": 55
    },
    {
      "midi": 69,
      "hit": false,
      "t": 204693.5251041656,
      "d": 526.9605208333232,
      "v": 55
    },
    {
      "midi": 72,
      "hit": false,
      "t": 204693.5251041656,
      "d": 526.9605208333232,
      "v": 55
    },
    {
      "midi": 53,
      "hit": false,
      "t": 204705.77999999892,
      "d": 526.9605208333232,
      "v": 55
    },
    {
      "midi": 60,
      "hit": false,
      "t": 206507.2496874989,
      "d": 1360.2934375000186,
      "v": 55
    },
    {
      "midi": 57,
      "hit": false,
      "t": 206507.2496874989,
      "d": 1384.8032291666896,
      "v": 55
    },
    {
      "midi": 65,
      "hit": false,
      "t": 206507.2496874989,
      "d": 1384.8032291666896,
      "v": 55
    },
    {
      "midi": 41,
      "hit": false,
      "t": 206544.0143749989,
      "d": 588.2350000000151,
      "v": 55
    },
    {
      "midi": 53,
      "hit": false,
      "t": 207107.73958333224,
      "d": 134.8038541666756,
      "v": 55
    },
    {
      "midi": 53,
      "hit": false,
      "t": 207720.48437499892,
      "d": 147.0587499999965,
      "v": 55
    },
    {
      "midi": 57,
      "hit": false,
      "t": 208333.22916666558,
      "d": 1249.9993749999558,
      "v": 55
    },
    {
      "midi": 60,
      "hit": false,
      "t": 208333.22916666558,
      "d": 1249.9993749999558,
      "v": 55
    },
    {
      "midi": 65,
      "hit": false,
      "t": 208333.22916666558,
      "d": 1262.2542708332767,
      "v": 55
    },
    {
      "midi": 41,
      "hit": false,
      "t": 208345.4840624989,
      "d": 575.9801041666651,
      "v": 55
    },
    {
      "midi": 53,
      "hit": false,
      "t": 208896.9543749989,
      "d": 122.54895833332557,
      "v": 55
    },
    {
      "midi": 53,
      "hit": false,
      "t": 209460.6795833322,
      "d": 171.56854166663834,
      "v": 55
    },
    {
      "midi": 57,
      "hit": false,
      "t": 210036.65968749885,
      "d": 208.3332291666593,
      "v": 55
    },
    {
      "midi": 60,
      "hit": false,
      "t": 210036.65968749885,
      "d": 208.3332291666593,
      "v": 55
    },
    {
      "midi": 65,
      "hit": false,
      "t": 210048.91458333217,
      "d": 269.6077083333512,
      "v": 55
    },
    {
      "midi": 41,
      "hit": false,
      "t": 210048.91458333217,
      "d": 392.15666666667676,
      "v": 55
    },
    {
      "midi": 62,
      "hit": false,
      "t": 210612.6397916655,
      "d": 1139.7053125000093,
      "v": 55
    },
    {
      "midi": 67,
      "hit": false,
      "t": 210624.89468749883,
      "d": 171.56854166666744,
      "v": 55
    },
    {
      "midi": 70,
      "hit": false,
      "t": 210624.89468749883,
      "d": 171.56854166666744,
      "v": 55
    },
    {
      "midi": 46,
      "hit": false,
      "t": 210649.4044791655,
      "d": 257.35281250000116,
      "v": 55
    },
    {
      "midi": 69,
      "hit": false,
      "t": 211188.61989583218,
      "d": 147.0587499999965,
      "v": 55
    },
    {
      "midi": 65,
      "hit": false,
      "t": 211188.61989583218,
      "d": 159.31364583331742,
      "v": 55
    },
    {
      "midi": 47,
      "hit": false,
      "t": 211213.12968749885,
      "d": 208.3332291666593,
      "v": 55
    },
    {
      "midi": 64,
      "hit": false,
      "t": 211752.34510416552,
      "d": 661.7643749999697,
      "v": 55
    },
    {
      "midi": 48,
      "hit": false,
      "t": 211764.59999999884,
      "d": 196.07833333333838,
      "v": 55
    },
    {
      "midi": 67,
      "hit": false,
      "t": 211764.59999999884,
      "d": 1740.1952083333745,
      "v": 55
    },
    {
      "midi": 46,
      "hit": false,
      "t": 212046.4626041655,
      "d": 147.0587499999965,
      "v": 55
    },
    {
      "midi": 45,
      "hit": false,
      "t": 212377.3447916655,
      "d": 171.56854166666744,
      "v": 55
    },
    {
      "midi": 60,
      "hit": false,
      "t": 212401.85458333217,
      "d": 355.3919791666849,
      "v": 55
    },
    {
      "midi": 43,
      "hit": false,
      "t": 212683.71718749884,
      "d": 122.54895833335468,
      "v": 55
    },
    {
      "midi": 41,
      "hit": false,
      "t": 212977.83468749886,
      "d": 147.0587499999965,
      "v": 55
    },
    {
      "midi": 60,
      "hit": false,
      "t": 213002.34447916553,
      "d": 208.3332291666593,
      "v": 55
    },
    {
      "midi": 40,
      "hit": false,
      "t": 213284.2070833322,
      "d": 147.0587499999965,
      "v": 55
    },
    {
      "midi": 41,
      "hit": false,
      "t": 213615.08927083222,
      "d": 539.2154166666733,
      "v": 55
    },
    {
      "midi": 60,
      "hit": false,
      "t": 213615.08927083222,
      "d": 1360.2934374999895,
      "v": 55
    },
    {
      "midi": 57,
      "hit": false,
      "t": 213615.08927083222,
      "d": 1372.5483333333104,
      "v": 55
    },
    {
      "midi": 65,
      "hit": false,
      "t": 213615.08927083222,
      "d": 1384.8032291666314,
      "v": 55
    },
    {
      "midi": 53,
      "hit": false,
      "t": 214215.57916666556,
      "d": 98.03916666665464,
      "v": 55
    },
    {
      "midi": 53,
      "hit": false,
      "t": 214791.55927083222,
      "d": 171.56854166666744,
      "v": 55
    },
    {
      "midi": 41,
      "hit": false,
      "t": 215392.04916666553,
      "d": 526.9605208332941,
      "v": 55
    },
    {
      "midi": 65,
      "hit": false,
      "t": 215392.04916666553,
      "d": 1372.5483333332813,
      "v": 55
    },
    {
      "midi": 57,
      "hit": false,
      "t": 215404.30406249885,
      "d": 1311.2738541666477,
      "v": 55
    },
    {
      "midi": 60,
      "hit": false,
      "t": 215416.55895833217,
      "d": 1299.0189583333267,
      "v": 55
    },
    {
      "midi": 53,
      "hit": false,
      "t": 215955.77437499881,
      "d": 183.82343749998836,
      "v": 55
    },
    {
      "midi": 53,
      "hit": false,
      "t": 216556.26427083215,
      "d": 171.56854166666744,
      "v": 55
    },
    {
      "midi": 57,
      "hit": false,
      "t": 217095.47968749882,
      "d": 208.3332291666593,
      "v": 55
    },
    {
      "midi": 60,
      "hit": false,
      "t": 217095.47968749882,
      "d": 220.5881249999802,
      "v": 55
    },
    {
      "midi": 65,
      "hit": false,
      "t": 217095.47968749882,
      "d": 281.862604166643,
      "v": 55
    },
    {
      "midi": 41,
      "hit": false,
      "t": 217107.73458333215,
      "d": 367.6468749999767,
      "v": 55
    },
    {
      "midi": 62,
      "hit": false,
      "t": 217659.2048958321,
      "d": 1188.724895833322,
      "v": 55
    },
    {
      "midi": 58,
      "hit": false,
      "t": 217671.45979166543,
      "d": 183.82343750001746,
      "v": 55
    },
    {
      "midi": 67,
      "hit": false,
      "t": 217671.45979166543,
      "d": 183.82343750001746,
      "v": 55
    },
    {
      "midi": 46,
      "hit": false,
      "t": 217695.9695833321,
      "d": 269.6077083333512,
      "v": 55
    },
    {
      "midi": 65,
      "hit": false,
      "t": 218235.18499999878,
      "d": 159.31364583331742,
      "v": 55
    },
    {
      "midi": 69,
      "hit": false,
      "t": 218235.18499999878,
      "d": 159.31364583331742,
      "v": 55
    },
    {
      "midi": 47,
      "hit": false,
      "t": 218247.4398958321,
      "d": 196.07833333333838,
      "v": 55
    },
    {
      "midi": 48,
      "hit": false,
      "t": 218847.92979166543,
      "d": 453.43114583333954,
      "v": 55
    },
    {
      "midi": 60,
      "hit": false,
      "t": 218847.92979166543,
      "d": 502.4507291666814,
      "v": 55
    },
    {
      "midi": 64,
      "hit": false,
      "t": 218847.92979166543,
      "d": 514.7056250000023,
      "v": 55
    },
    {
      "midi": 55,
      "hit": false,
      "t": 218847.92979166543,
      "d": 526.9605208333232,
      "v": 55
    },
    {
      "midi": 53,
      "hit": false,
      "t": 220600.3798958321,
      "d": 661.7643749999988,
      "v": 55
    },
    {
      "midi": 57,
      "hit": false,
      "t": 220600.3798958321,
      "d": 674.0192708333198,
      "v": 55
    },
    {
      "midi": 60,
      "hit": false,
      "t": 220600.3798958321,
      "d": 686.2741666666407,
      "v": 55
    },
    {
      "midi": 65,
      "hit": false,
      "t": 220600.3798958321,
      "d": 686.2741666666407,
      "v": 55
    },
    {
      "midi": 53,
      "hit": false,
      "t": 222365.0848958321,
      "d": 649.5094791666488,
      "v": 55
    },
    {
      "midi": 58,
      "hit": false,
      "t": 222365.0848958321,
      "d": 649.5094791666488,
      "v": 55
    },
    {
      "midi": 62,
      "hit": false,
      "t": 222365.0848958321,
      "d": 674.0192708333198,
      "v": 55
    },
    {
      "midi": 46,
      "hit": false,
      "t": 222377.3397916654,
      "d": 85.78427083333372,
      "v": 55
    },
    {
      "midi": 60,
      "hit": false,
      "t": 224117.53499999875,
      "d": 588.234999999986,
      "v": 55
    },
    {
      "midi": 55,
      "hit": false,
      "t": 224129.78989583207,
      "d": 575.9801041666651,
      "v": 55
    },
    {
      "midi": 48,
      "hit": false,
      "t": 224129.78989583207,
      "d": 588.234999999986,
      "v": 55
    },
    {
      "midi": 52,
      "hit": false,
      "t": 224129.78989583207,
      "d": 588.234999999986,
      "v": 55
    },
    {
      "midi": 65,
      "hit": false,
      "t": 225894.49489583206,
      "d": 1409.3130208333314,
      "v": 55
    },
    {
      "midi": 53,
      "hit": false,
      "t": 225906.74979166538,
      "d": 110.29406250000466,
      "v": 55
    },
    {
      "midi": 69,
      "hit": false,
      "t": 225906.74979166538,
      "d": 1409.3130208333314,
      "v": 55
    },
    {
      "midi": 60,
      "hit": false,
      "t": 225906.74979166538,
      "d": 1433.8228125000023,
      "v": 55
    },
    {
      "midi": 48,
      "hit": false,
      "t": 226017.0438541654,
      "d": 147.0587499999965,
      "v": 55
    },
    {
      "midi": 53,
      "hit": false,
      "t": 226151.84770833206,
      "d": 134.8038541666465,
      "v": 55
    },
    {
      "midi": 48,
      "hit": false,
      "t": 226286.6515624987,
      "d": 159.31364583334653,
      "v": 55
    },
    {
      "midi": 53,
      "hit": false,
      "t": 226445.96520833205,
      "d": 134.8038541666756,
      "v": 55
    },
    {
      "midi": 48,
      "hit": false,
      "t": 226580.76906249873,
      "d": 159.31364583334653,
      "v": 55
    },
    {
      "midi": 53,
      "hit": false,
      "t": 226740.08270833208,
      "d": 122.54895833332557,
      "v": 55
    },
    {
      "midi": 48,
      "hit": false,
      "t": 226874.88656249872,
      "d": 134.8038541666756,
      "v": 55
    },
    {
      "midi": 53,
      "hit": false,
      "t": 227021.94531249872,
      "d": 159.31364583334653,
      "v": 55
    },
    {
      "midi": 48,
      "hit": false,
      "t": 227181.25895833207,
      "d": 159.31364583331742,
      "v": 55
    },
    {
      "midi": 53,
      "hit": false,
      "t": 227340.57260416538,
      "d": 122.54895833332557,
      "v": 55
    },
    {
      "midi": 48,
      "hit": false,
      "t": 227463.1215624987,
      "d": 171.56854166666744,
      "v": 55
    },
    {
      "midi": 53,
      "hit": false,
      "t": 227634.69010416538,
      "d": 134.8038541666465,
      "v": 55
    },
    {
      "midi": 65,
      "hit": false,
      "t": 227634.69010416538,
      "d": 1507.3521874999278,
      "v": 55
    },
    {
      "midi": 57,
      "hit": false,
      "t": 227646.9449999987,
      "d": 1458.3326041666442,
      "v": 55
    },
    {
      "midi": 60,
      "hit": false,
      "t": 227646.9449999987,
      "d": 1458.3326041666442,
      "v": 55
    },
    {
      "midi": 48,
      "hit": false,
      "t": 227781.74885416534,
      "d": 147.0587499999965,
      "v": 55
    },
    {
      "midi": 53,
      "hit": false,
      "t": 227928.80760416534,
      "d": 147.0587499999965,
      "v": 55
    },
    {
      "midi": 48,
      "hit": false,
      "t": 228075.86635416534,
      "d": 134.8038541666756,
      "v": 55
    },
    {
      "midi": 53,
      "hit": false,
      "t": 228222.92510416533,
      "d": 134.8038541666756,
      "v": 55
    },
    {
      "midi": 48,
      "hit": false,
      "t": 228369.98385416533,
      "d": 159.31364583334653,
      "v": 55
    },
    {
      "midi": 53,
      "hit": false,
      "t": 228529.29749999868,
      "d": 134.8038541666756,
      "v": 55
    },
    {
      "midi": 48,
      "hit": false,
      "t": 228676.35624999867,
      "d": 159.31364583334653,
      "v": 55
    },
    {
      "midi": 53,
      "hit": false,
      "t": 228835.66989583202,
      "d": 134.8038541666756,
      "v": 55
    },
    {
      "midi": 48,
      "hit": false,
      "t": 228982.72864583202,
      "d": 134.8038541666465,
      "v": 55
    },
    {
      "midi": 53,
      "hit": false,
      "t": 229129.78739583198,
      "d": 134.8038541666465,
      "v": 55
    },
    {
      "midi": 48,
      "hit": false,
      "t": 229264.59124999863,
      "d": 147.0587499999965,
      "v": 55
    },
    {
      "midi": 53,
      "hit": false,
      "t": 229423.90489583195,
      "d": 355.3919791666558,
      "v": 55
    },
    {
      "midi": 57,
      "hit": false,
      "t": 229423.90489583195,
      "d": 416.6664583333186,
      "v": 55
    },
    {
      "midi": 65,
      "hit": false,
      "t": 229436.15979166527,
      "d": 367.6468750000058,
      "v": 55
    },
    {
      "midi": 60,
      "hit": false,
      "t": 229436.15979166527,
      "d": 392.15666666667676,
      "v": 55
    },
    {
      "midi": 52,
      "hit": false,
      "t": 231188.60989583193,
      "d": 147.0587499999965,
      "v": 55
    },
    {
      "midi": 60,
      "hit": false,
      "t": 231200.86479166526,
      "d": 1605.3913541666407,
      "v": 55
    },
    {
      "midi": 67,
      "hit": false,
      "t": 231200.86479166526,
      "d": 1789.214791666629,
      "v": 55
    },
    {
      "midi": 48,
      "hit": false,
      "t": 231335.66864583193,
      "d": 147.0587499999965,
      "v": 55
    },
    {
      "midi": 52,
      "hit": false,
      "t": 231494.98229166525,
      "d": 134.8038541666756,
      "v": 55
    },
    {
      "midi": 48,
      "hit": false,
      "t": 231629.78614583192,
      "d": 147.0587499999965,
      "v": 55
    },
    {
      "midi": 52,
      "hit": false,
      "t": 231789.09979166524,
      "d": 134.8038541666756,
      "v": 55
    },
    {
      "midi": 48,
      "hit": false,
      "t": 231936.15854166524,
      "d": 147.0587499999965,
      "v": 55
    },
    {
      "midi": 52,
      "hit": false,
      "t": 232083.21729166523,
      "d": 159.31364583334653,
      "v": 55
    },
    {
      "midi": 48,
      "hit": false,
      "t": 232242.53093749858,
      "d": 134.8038541666756,
      "v": 55
    },
    {
      "midi": 52,
      "hit": false,
      "t": 232377.33479166526,
      "d": 159.31364583331742,
      "v": 55
    },
    {
      "midi": 48,
      "hit": false,
      "t": 232524.39354166525,
      "d": 183.82343749998836,
      "v": 55
    },
    {
      "midi": 52,
      "hit": false,
      "t": 232683.70718749857,
      "d": 134.8038541666465,
      "v": 55
    },
    {
      "midi": 48,
      "hit": false,
      "t": 232818.51104166522,
      "d": 159.31364583334653,
      "v": 55
    },
    {
      "midi": 52,
      "hit": false,
      "t": 232977.82468749856,
      "d": 551.4703124999942,
      "v": 55
    },
    {
      "midi": 60,
      "hit": false,
      "t": 232977.82468749856,
      "d": 575.9801041666651,
      "v": 55
    },
    {
      "midi": 60,
      "hit": false,
      "t": 234693.51010416524,
      "d": 1850.4892708332918,
      "v": 55
    },
    {
      "midi": 69,
      "hit": false,
      "t": 234693.51010416524,
      "d": 1850.4892708332918,
      "v": 55
    },
    {
      "midi": 53,
      "hit": false,
      "t": 234718.0198958319,
      "d": 134.8038541666756,
      "v": 55
    },
    {
      "midi": 45,
      "hit": false,
      "t": 234865.0786458319,
      "d": 122.54895833332557,
      "v": 55
    },
    {
      "midi": 53,
      "hit": false,
      "t": 234999.88249999855,
      "d": 134.8038541666756,
      "v": 55
    },
    {
      "midi": 45,
      "hit": false,
      "t": 235134.68635416523,
      "d": 122.54895833332557,
      "v": 55
    },
    {
      "midi": 53,
      "hit": false,
      "t": 235281.74510416522,
      "d": 134.8038541666756,
      "v": 55
    },
    {
      "midi": 45,
      "hit": false,
      "t": 235428.80385416522,
      "d": 134.8038541666756,
      "v": 55
    },
    {
      "midi": 53,
      "hit": false,
      "t": 235575.86260416522,
      "d": 134.8038541666756,
      "v": 55
    },
    {
      "midi": 45,
      "hit": false,
      "t": 235722.9213541652,
      "d": 171.56854166666744,
      "v": 55
    },
    {
      "midi": 53,
      "hit": false,
      "t": 235882.23499999856,
      "d": 159.31364583331742,
      "v": 55
    },
    {
      "midi": 45,
      "hit": false,
      "t": 236053.8035416652,
      "d": 134.8038541666756,
      "v": 55
    },
    {
      "midi": 53,
      "hit": false,
      "t": 236213.11718749854,
      "d": 122.54895833332557,
      "v": 55
    },
    {
      "midi": 45,
      "hit": false,
      "t": 236360.17593749854,
      "d": 122.54895833332557,
      "v": 55
    },
    {
      "midi": 65,
      "hit": false,
      "t": 236507.23468749854,
      "d": 539.2154166666442,
      "v": 55
    },
    {
      "midi": 53,
      "hit": false,
      "t": 236507.23468749854,
      "d": 563.7252083333151,
      "v": 55
    },
    {
      "midi": 52,
      "hit": false,
      "t": 238235.17499999853,
      "d": 159.31364583331742,
      "v": 55
    },
    {
      "midi": 67,
      "hit": false,
      "t": 238235.17499999853,
      "d": 1789.2147916666581,
      "v": 55
    },
    {
      "midi": 60,
      "hit": false,
      "t": 238247.42989583185,
      "d": 1593.1364583333198,
      "v": 55
    },
    {
      "midi": 48,
      "hit": false,
      "t": 238382.23374999853,
      "d": 147.0587499999965,
      "v": 55
    },
    {
      "midi": 52,
      "hit": false,
      "t": 238529.29249999853,
      "d": 147.0587499999965,
      "v": 55
    },
    {
      "midi": 48,
      "hit": false,
      "t": 238664.0963541652,
      "d": 147.0587499999965,
      "v": 55
    },
    {
      "midi": 52,
      "hit": false,
      "t": 238823.40999999852,
      "d": 147.0587499999965,
      "v": 55
    },
    {
      "midi": 48,
      "hit": false,
      "t": 238970.46874999852,
      "d": 147.0587499999965,
      "v": 55
    },
    {
      "midi": 52,
      "hit": false,
      "t": 239117.5274999985,
      "d": 147.0587499999965,
      "v": 55
    },
    {
      "midi": 48,
      "hit": false,
      "t": 239264.5862499985,
      "d": 147.0587499999965,
      "v": 55
    },
    {
      "midi": 52,
      "hit": false,
      "t": 239399.39010416518,
      "d": 147.0587499999965,
      "v": 55
    },
    {
      "midi": 48,
      "hit": false,
      "t": 239546.44885416518,
      "d": 147.0587499999965,
      "v": 55
    },
    {
      "midi": 52,
      "hit": false,
      "t": 239681.25270833186,
      "d": 134.8038541666465,
      "v": 55
    },
    {
      "midi": 48,
      "hit": false,
      "t": 239816.0565624985,
      "d": 159.31364583334653,
      "v": 55
    },
    {
      "midi": 52,
      "hit": false,
      "t": 239975.37020833185,
      "d": 600.489895833336,
      "v": 55
    },
    {
      "midi": 60,
      "hit": false,
      "t": 239999.87999999852,
      "d": 600.489895833336,
      "v": 55
    },
    {
      "midi": 61,
      "hit": false,
      "t": 241801.34968749853,
      "d": 588.2349999999569,
      "v": 55
    },
    {
      "midi": 68,
      "hit": false,
      "t": 241801.34968749853,
      "d": 1752.450104166579,
      "v": 55
    },
    {
      "midi": 52,
      "hit": false,
      "t": 241813.60458333185,
      "d": 600.489895833307,
      "v": 55
    },
    {
      "midi": 51,
      "hit": false,
      "t": 242365.07489583184,
      "d": 612.7447916666279,
      "v": 55
    },
    {
      "midi": 63,
      "hit": false,
      "t": 242377.32979166516,
      "d": 563.7252083333151,
      "v": 55
    },
    {
      "midi": 49,
      "hit": false,
      "t": 242953.3098958318,
      "d": 563.7252083333151,
      "v": 55
    },
    {
      "midi": 64,
      "hit": false,
      "t": 242953.3098958318,
      "d": 600.489895833307,
      "v": 55
    },
    {
      "midi": 48,
      "hit": false,
      "t": 243504.7802083318,
      "d": 2156.861666666635,
      "v": 55
    },
    {
      "midi": 57,
      "hit": false,
      "t": 248811.1501041651,
      "d": 1053.9210416666756,
      "v": 55
    },
    {
      "midi": 60,
      "hit": false,
      "t": 248811.1501041651,
      "d": 1053.9210416666756,
      "v": 55
    },
    {
      "midi": 41,
      "hit": false,
      "t": 248811.1501041651,
      "d": 1066.1759374999965,
      "v": 55
    },
    {
      "midi": 65,
      "hit": false,
      "t": 248811.1501041651,
      "d": 1066.1759374999965,
      "v": 55
    },
    {
      "midi": 60,
      "hit": false,
      "t": 251139.58031249844,
      "d": 624.999687500007,
      "v": 55
    },
    {
      "midi": 48,
      "hit": false,
      "t": 251740.07020833177,
      "d": 624.999687500007,
      "v": 55
    },
    {
      "midi": 53,
      "hit": false,
      "t": 252365.06989583178,
      "d": 147.0587499999965,
      "v": 55
    },
    {
      "midi": 65,
      "hit": false,
      "t": 252365.06989583178,
      "d": 1372.5483333333104,
      "v": 55
    },
    {
      "midi": 69,
      "hit": false,
      "t": 252365.06989583178,
      "d": 1397.0581249999814,
      "v": 55
    },
    {
      "midi": 60,
      "hit": false,
      "t": 252365.06989583178,
      "d": 1446.0777083333232,
      "v": 55
    },
    {
      "midi": 53,
      "hit": false,
      "t": 252977.81468749844,
      "d": 98.03916666665464,
      "v": 55
    },
    {
      "midi": 53,
      "hit": false,
      "t": 253271.93218749843,
      "d": 85.78427083333372,
      "v": 55
    },
    {
      "midi": 53,
      "hit": false,
      "t": 253541.53989583175,
      "d": 85.78427083333372,
      "v": 55
    },
    {
      "midi": 48,
      "hit": false,
      "t": 253811.1476041651,
      "d": 73.5293749999837,
      "v": 55
    },
    {
      "midi": 70,
      "hit": false,
      "t": 253811.1476041651,
      "d": 122.54895833332557,
      "v": 55
    },
    {
      "midi": 67,
      "hit": false,
      "t": 253823.40249999842,
      "d": 196.07833333333838,
      "v": 55
    },
    {
      "midi": 65,
      "hit": false,
      "t": 254093.01020833178,
      "d": 575.9801041666651,
      "v": 55
    },
    {
      "midi": 60,
      "hit": false,
      "t": 254093.01020833178,
      "d": 588.234999999986,
      "v": 55
    },
    {
      "midi": 69,
      "hit": false,
      "t": 254093.01020833178,
      "d": 600.489895833307,
      "v": 55
    },
    {
      "midi": 53,
      "hit": false,
      "t": 254105.2651041651,
      "d": 600.489895833307,
      "v": 55
    },
    {
      "midi": 41,
      "hit": false,
      "t": 254644.48052083177,
      "d": 147.0587499999674,
      "v": 55
    },
    {
      "midi": 41,
      "hit": false,
      "t": 254975.36270833173,
      "d": 122.54895833332557,
      "v": 55
    },
    {
      "midi": 41,
      "hit": false,
      "t": 255269.48020833172,
      "d": 134.8038541666756,
      "v": 55
    },
    {
      "midi": 41,
      "hit": false,
      "t": 255551.3428124984,
      "d": 61.274479166662786,
      "v": 55
    },
    {
      "midi": 53,
      "hit": false,
      "t": 255845.46031249838,
      "d": 441.1762499999895,
      "v": 55
    },
    {
      "midi": 69,
      "hit": false,
      "t": 255845.46031249838,
      "d": 1348.0385416666395,
      "v": 55
    },
    {
      "midi": 60,
      "hit": false,
      "t": 255857.7152083317,
      "d": 1507.352187499986,
      "v": 55
    },
    {
      "midi": 65,
      "hit": false,
      "t": 255869.97010416503,
      "d": 1372.5483333333395,
      "v": 55
    },
    {
      "midi": 53,
      "hit": false,
      "t": 256433.69531249837,
      "d": 98.03916666665464,
      "v": 55
    },
    {
      "midi": 53,
      "hit": false,
      "t": 256727.81281249836,
      "d": 98.03916666665464,
      "v": 55
    },
    {
      "midi": 53,
      "hit": false,
      "t": 257021.93031249836,
      "d": 61.274479166662786,
      "v": 55
    },
    {
      "midi": 48,
      "hit": false,
      "t": 257291.5380208317,
      "d": 61.274479166662786,
      "v": 55
    },
    {
      "midi": 70,
      "hit": false,
      "t": 257291.5380208317,
      "d": 98.03916666665464,
      "v": 55
    },
    {
      "midi": 67,
      "hit": false,
      "t": 257303.79291666503,
      "d": 171.56854166666744,
      "v": 55
    },
    {
      "midi": 65,
      "hit": false,
      "t": 257573.40062499835,
      "d": 1446.0777083333232,
      "v": 55
    },
    {
      "midi": 69,
      "hit": false,
      "t": 257573.40062499835,
      "d": 1446.0777083333232,
      "v": 55
    },
    {
      "midi": 60,
      "hit": false,
      "t": 257573.40062499835,
      "d": 1544.1168749999779,
      "v": 55
    },
    {
      "midi": 53,
      "hit": false,
      "t": 257585.65552083167,
      "d": 612.744791666657,
      "v": 55
    },
    {
      "midi": 41,
      "hit": false,
      "t": 258186.145416665,
      "d": 122.54895833332557,
      "v": 55
    },
    {
      "midi": 41,
      "hit": false,
      "t": 258517.027604165,
      "d": 73.5293750000128,
      "v": 55
    },
    {
      "midi": 41,
      "hit": false,
      "t": 258798.89020833166,
      "d": 73.5293750000128,
      "v": 55
    },
    {
      "midi": 41,
      "hit": false,
      "t": 259080.75281249834,
      "d": 85.78427083333372,
      "v": 55
    },
    {
      "midi": 57,
      "hit": false,
      "t": 259387.12520833168,
      "d": 1360.2934375000186,
      "v": 55
    },
    {
      "midi": 65,
      "hit": false,
      "t": 259387.12520833168,
      "d": 1372.5483333333395,
      "v": 55
    },
    {
      "midi": 60,
      "hit": false,
      "t": 259387.12520833168,
      "d": 1384.8032291666605,
      "v": 55
    },
    {
      "midi": 41,
      "hit": false,
      "t": 259411.63499999835,
      "d": 563.7252083333442,
      "v": 55
    },
    {
      "midi": 53,
      "hit": false,
      "t": 259987.61510416502,
      "d": 85.78427083333372,
      "v": 55
    },
    {
      "midi": 53,
      "hit": false,
      "t": 260588.10499999835,
      "d": 110.29406250000466,
      "v": 55
    },
    {
      "midi": 41,
      "hit": false,
      "t": 261151.83020833167,
      "d": 563.7252083333442,
      "v": 55
    },
    {
      "midi": 57,
      "hit": false,
      "t": 261151.83020833167,
      "d": 1274.5091666666267,
      "v": 55
    },
    {
      "midi": 60,
      "hit": false,
      "t": 261151.83020833167,
      "d": 1274.5091666666267,
      "v": 55
    },
    {
      "midi": 65,
      "hit": false,
      "t": 261151.83020833167,
      "d": 1286.7640624999476,
      "v": 55
    },
    {
      "midi": 53,
      "hit": false,
      "t": 261740.06520833168,
      "d": 98.03916666665464,
      "v": 55
    },
    {
      "midi": 53,
      "hit": false,
      "t": 262340.555104165,
      "d": 110.29406249994645,
      "v": 55
    },
    {
      "midi": 41,
      "hit": false,
      "t": 262941.0449999983,
      "d": 649.5094791665906,
      "v": 55
    },
    {
      "midi": 60,
      "hit": false,
      "t": 262953.2998958316,
      "d": 257.35281249997206,
      "v": 55
    },
    {
      "midi": 57,
      "hit": false,
      "t": 262953.2998958316,
      "d": 281.8626041666139,
      "v": 55
    },
    {
      "midi": 65,
      "hit": false,
      "t": 262953.2998958316,
      "d": 306.3723958332557,
      "v": 55
    },
    {
      "midi": 46,
      "hit": false,
      "t": 263529.2799999982,
      "d": 196.07833333330927,
      "v": 55
    },
    {
      "midi": 67,
      "hit": false,
      "t": 263529.2799999982,
      "d": 257.35281249997206,
      "v": 55
    },
    {
      "midi": 70,
      "hit": false,
      "t": 263529.2799999982,
      "d": 269.607708333293,
      "v": 55
    },
    {
      "midi": 62,
      "hit": false,
      "t": 263529.2799999982,
      "d": 1115.1955208333093,
      "v": 55
    },
    {
      "midi": 47,
      "hit": false,
      "t": 264117.5149999982,
      "d": 159.31364583334653,
      "v": 55
    },
    {
      "midi": 69,
      "hit": false,
      "t": 264117.5149999982,
      "d": 257.35281250003027,
      "v": 55
    },
    {
      "midi": 65,
      "hit": false,
      "t": 264117.5149999982,
      "d": 269.6077083333512,
      "v": 55
    },
    {
      "midi": 48,
      "hit": false,
      "t": 264693.4951041649,
      "d": 147.0587500000256,
      "v": 55
    },
    {
      "midi": 64,
      "hit": false,
      "t": 264693.4951041649,
      "d": 649.5094791666488,
      "v": 55
    },
    {
      "midi": 67,
      "hit": false,
      "t": 264693.4951041649,
      "d": 1433.8228124998277,
      "v": 55
    },
    {
      "midi": 46,
      "hit": false,
      "t": 264963.1028124982,
      "d": 85.78427083330462,
      "v": 55
    },
    {
      "midi": 45,
      "hit": false,
      "t": 265257.2203124982,
      "d": 98.03916666662553,
      "v": 55
    },
    {
      "midi": 60,
      "hit": false,
      "t": 265269.47520833154,
      "d": 379.9017708332394,
      "v": 55
    },
    {
      "midi": 43,
      "hit": false,
      "t": 265551.33781249815,
      "d": 73.5293749999837,
      "v": 55
    },
    {
      "midi": 41,
      "hit": false,
      "t": 265820.94552083145,
      "d": 98.03916666662553,
      "v": 55
    },
    {
      "midi": 60,
      "hit": false,
      "t": 265845.4553124981,
      "d": 245.09791666665114,
      "v": 55
    },
    {
      "midi": 40,
      "hit": false,
      "t": 266102.80812499806,
      "d": 85.78427083330462,
      "v": 55
    },
    {
      "midi": 41,
      "hit": false,
      "t": 266421.4354166647,
      "d": 600.489895833307,
      "v": 55
    },
    {
      "midi": 57,
      "hit": false,
      "t": 266421.4354166647,
      "d": 1360.2934375000186,
      "v": 55
    },
    {
      "midi": 60,
      "hit": false,
      "t": 266421.4354166647,
      "d": 1360.2934375000186,
      "v": 55
    },
    {
      "midi": 65,
      "hit": false,
      "t": 266421.4354166647,
      "d": 1397.0581250000396,
      "v": 55
    },
    {
      "midi": 53,
      "hit": false,
      "t": 267034.1802083313,
      "d": 110.29406250000466,
      "v": 55
    },
    {
      "midi": 53,
      "hit": false,
      "t": 267634.6701041647,
      "d": 98.03916666668374,
      "v": 55
    },
    {
      "midi": 57,
      "hit": false,
      "t": 268235.15999999805,
      "d": 1225.4895833332557,
      "v": 55
    },
    {
      "midi": 60,
      "hit": false,
      "t": 268235.15999999805,
      "d": 1237.7444791665766,
      "v": 55
    },
    {
      "midi": 65,
      "hit": false,
      "t": 268235.15999999805,
      "d": 1237.7444791665766,
      "v": 55
    },
    {
      "midi": 41,
      "hit": false,
      "t": 268259.6697916647,
      "d": 551.4703125000233,
      "v": 55
    },
    {
      "midi": 53,
      "hit": false,
      "t": 268811.1401041647,
      "d": 85.78427083330462,
      "v": 55
    },
    {
      "midi": 53,
      "hit": false,
      "t": 269374.865312498,
      "d": 98.03916666662553,
      "v": 55
    },
    {
      "midi": 60,
      "hit": false,
      "t": 269987.61010416463,
      "d": 355.3919791666558,
      "v": 55
    },
    {
      "midi": 65,
      "hit": false,
      "t": 269987.61010416463,
      "d": 600.4898958332487,
      "v": 55
    },
    {
      "midi": 41,
      "hit": false,
      "t": 269999.86499999795,
      "d": 355.3919791666558,
      "v": 55
    },
    {
      "midi": 57,
      "hit": false,
      "t": 269999.86499999795,
      "d": 575.9801041666069,
      "v": 55
    },
    {
      "midi": 53,
      "hit": false,
      "t": 270367.51187499793,
      "d": 196.07833333330927,
      "v": 55
    },
    {
      "midi": 62,
      "hit": false,
      "t": 270551.3353124979,
      "d": 159.31364583328832,
      "v": 55
    },
    {
      "midi": 67,
      "hit": false,
      "t": 270563.59020833124,
      "d": 147.0587499999674,
      "v": 55
    },
    {
      "midi": 46,
      "hit": false,
      "t": 270575.84510416456,
      "d": 159.31364583328832,
      "v": 55
    },
    {
      "midi": 55,
      "hit": false,
      "t": 271115.0605208312,
      "d": 147.0587499999674,
      "v": 55
    },
    {
      "midi": 60,
      "hit": false,
      "t": 271115.0605208312,
      "d": 196.07833333330927,
      "v": 55
    },
    {
      "midi": 64,
      "hit": false,
      "t": 271115.0605208312,
      "d": 220.5881249999511,
      "v": 55
    },
    {
      "midi": 48,
      "hit": false,
      "t": 271127.3154166645,
      "d": 134.8038541666465,
      "v": 55
    },
    {
      "midi": 65,
      "hit": false,
      "t": 271715.5504166645,
      "d": 1360.2934374999604,
      "v": 55
    },
    {
      "midi": 57,
      "hit": false,
      "t": 271727.80531249783,
      "d": 1311.2738541666768,
      "v": 55
    },
    {
      "midi": 60,
      "hit": false,
      "t": 271727.80531249783,
      "d": 1311.2738541666768,
      "v": 55
    },
    {
      "midi": 41,
      "hit": false,
      "t": 271740.06020833115,
      "d": 1311.2738541666768,
      "v": 55
    },
    {
      "midi": 57,
      "hit": false,
      "t": 273504.7652083311,
      "d": 1176.469999999972,
      "v": 55
    },
    {
      "midi": 60,
      "hit": false,
      "t": 273504.7652083311,
      "d": 1176.469999999972,
      "v": 55
    },
    {
      "midi": 65,
      "hit": false,
      "t": 273504.7652083311,
      "d": 1176.469999999972,
      "v": 55
    },
    {
      "midi": 41,
      "hit": false,
      "t": 273517.02010416443,
      "d": 1176.469999999972,
      "v": 55
    },
    {
      "midi": 53,
      "hit": false,
      "t": 274093.0002083311,
      "d": 122.54895833332557,
      "v": 55
    },
    {
      "midi": 53,
      "hit": false,
      "t": 274681.2352083311,
      "d": 110.29406250000466,
      "v": 55
    },
    {
      "midi": 57,
      "hit": false,
      "t": 275244.9604166644,
      "d": 1335.7836458332604,
      "v": 55
    },
    {
      "midi": 60,
      "hit": false,
      "t": 275244.9604166644,
      "d": 1348.0385416665813,
      "v": 55
    },
    {
      "midi": 65,
      "hit": false,
      "t": 275244.9604166644,
      "d": 1348.0385416665813,
      "v": 55
    },
    {
      "midi": 41,
      "hit": false,
      "t": 275257.21531249775,
      "d": 612.7447916666279,
      "v": 55
    },
    {
      "midi": 53,
      "hit": false,
      "t": 275857.70520833106,
      "d": 147.0587499999674,
      "v": 55
    },
    {
      "midi": 53,
      "hit": false,
      "t": 276470.4499999977,
      "d": 110.29406250000466,
      "v": 55
    },
    {
      "midi": 65,
      "hit": false,
      "t": 277034.175208331,
      "d": 649.5094791665906,
      "v": 55
    },
    {
      "midi": 60,
      "hit": false,
      "t": 277046.43010416435,
      "d": 404.4115624999977,
      "v": 55
    },
    {
      "midi": 57,
      "hit": false,
      "t": 277046.43010416435,
      "d": 624.9996874999488,
      "v": 55
    },
    {
      "midi": 41,
      "hit": false,
      "t": 277058.68499999767,
      "d": 404.4115624999977,
      "v": 55
    },
    {
      "midi": 53,
      "hit": false,
      "t": 277463.09656249767,
      "d": 196.07833333330927,
      "v": 55
    },
    {
      "midi": 62,
      "hit": false,
      "t": 277646.91999999766,
      "d": 147.0587499999674,
      "v": 55
    },
    {
      "midi": 67,
      "hit": false,
      "t": 277659.174895831,
      "d": 134.8038541666465,
      "v": 55
    },
    {
      "midi": 46,
      "hit": false,
      "t": 277659.174895831,
      "d": 159.31364583328832,
      "v": 55
    },
    {
      "midi": 55,
      "hit": false,
      "t": 278210.64520833094,
      "d": 122.54895833332557,
      "v": 55
    },
    {
      "midi": 48,
      "hit": false,
      "t": 278210.64520833094,
      "d": 159.31364583334653,
      "v": 55
    },
    {
      "midi": 60,
      "hit": false,
      "t": 278210.64520833094,
      "d": 171.56854166666744,
      "v": 55
    },
    {
      "midi": 64,
      "hit": false,
      "t": 278210.64520833094,
      "d": 183.82343749998836,
      "v": 55
    },
    {
      "midi": 60,
      "hit": false,
      "t": 278823.38999999757,
      "d": 1213.2346874999348,
      "v": 55
    },
    {
      "midi": 65,
      "hit": false,
      "t": 278823.38999999757,
      "d": 1213.2346874999348,
      "v": 55
    },
    {
      "midi": 57,
      "hit": false,
      "t": 278823.38999999757,
      "d": 1225.4895833332557,
      "v": 55
    },
    {
      "midi": 41,
      "hit": false,
      "t": 278847.8997916642,
      "d": 1176.469999999972,
      "v": 55
    }
  ]
}