{
  "jsonPath": "Rock/Pop Rock/Faith Hill/the-way-you-love-me-album-version.json",
  "path": "Rock\\Pop Rock\\Faith Hill\\The Way You Love Me (Album Version).mid",
  "name": "The Way You Love Me (Album Version)",
  "difficulty": "Advanced",
  "bpm": 102.0000510000255,
  "notes": [
    {
      "midi": 36,
      "hit": false,
      "t": 2352.94,
      "d": 465.68604166666637,
      "v": 73
    },
    {
      "midi": 48,
      "hit": false,
      "t": 2647.0575,
      "d": 200.98029166666674,
      "v": 61
    },
    {
      "midi": 36,
      "hit": false,
      "t": 2941.175,
      "d": 1147.0582499999996,
      "v": 67
    },
    {
      "midi": 48,
      "hit": false,
      "t": 3235.2925,
      "d": 186.27441666666664,
      "v": 75
    },
    {
      "midi": 48,
      "hit": false,
      "t": 3823.5275,
      "d": 107.8430833333332,
      "v": 55
    },
    {
      "midi": 48,
      "hit": false,
      "t": 3970.58625,
      "d": 387.2547083333325,
      "v": 62
    },
    {
      "midi": 36,
      "hit": false,
      "t": 4117.6449999999995,
      "d": 68.62741666666625,
      "v": 64
    },
    {
      "midi": 36,
      "hit": false,
      "t": 4264.703749999999,
      "d": 343.137083333334,
      "v": 61
    },
    {
      "midi": 48,
      "hit": false,
      "t": 4411.762499999999,
      "d": 357.8429583333336,
      "v": 66
    },
    {
      "midi": 43,
      "hit": false,
      "t": 4558.821249999999,
      "d": 132.3528750000005,
      "v": 54
    },
    {
      "midi": 36,
      "hit": false,
      "t": 4705.879999999999,
      "d": 490.1958333333332,
      "v": 68
    },
    {
      "midi": 48,
      "hit": false,
      "t": 4999.9974999999995,
      "d": 191.176375,
      "v": 73
    },
    {
      "midi": 36,
      "hit": false,
      "t": 5294.114999999999,
      "d": 607.8428333333331,
      "v": 58
    },
    {
      "midi": 48,
      "hit": false,
      "t": 5588.232499999999,
      "d": 279.41162499999973,
      "v": 80
    },
    {
      "midi": 43,
      "hit": false,
      "t": 5882.3499999999985,
      "d": 73.52937500000007,
      "v": 48
    },
    {
      "midi": 36,
      "hit": false,
      "t": 6029.408749999999,
      "d": 323.5292500000005,
      "v": 52
    },
    {
      "midi": 48,
      "hit": false,
      "t": 6176.467499999999,
      "d": 98.03916666666646,
      "v": 64
    },
    {
      "midi": 48,
      "hit": false,
      "t": 6323.526249999999,
      "d": 137.2548333333334,
      "v": 64
    },
    {
      "midi": 36,
      "hit": false,
      "t": 6470.584999999999,
      "d": 553.9212916666665,
      "v": 73
    },
    {
      "midi": 43,
      "hit": false,
      "t": 6617.643749999999,
      "d": 78.43133333333299,
      "v": 58
    },
    {
      "midi": 48,
      "hit": false,
      "t": 6764.7024999999985,
      "d": 220.58812500000022,
      "v": 67
    },
    {
      "midi": 43,
      "hit": false,
      "t": 6911.761249999999,
      "d": 63.725458333333336,
      "v": 64
    },
    {
      "midi": 48,
      "hit": false,
      "t": 7058.82,
      "d": 661.7643750000007,
      "v": 81
    },
    {
      "midi": 55,
      "hit": false,
      "t": 7352.937499999999,
      "d": 450.9801666666672,
      "v": 81
    },
    {
      "midi": 55,
      "hit": false,
      "t": 7352.9375,
      "d": 666.6663333333336,
      "v": 50
    },
    {
      "midi": 60,
      "hit": false,
      "t": 7647.054999999999,
      "d": 235.29399999999987,
      "v": 93
    },
    {
      "midi": 60,
      "hit": false,
      "t": 7647.055,
      "d": 362.74491666666654,
      "v": 79
    },
    {
      "midi": 64,
      "hit": false,
      "t": 7647.055,
      "d": 470.58799999999974,
      "v": 77
    },
    {
      "midi": 67,
      "hit": false,
      "t": 7647.055,
      "d": 627.4506666666657,
      "v": 75
    },
    {
      "midi": 55,
      "hit": false,
      "t": 7941.1725,
      "d": 78.43133333333299,
      "v": 46
    },
    {
      "midi": 48,
      "hit": false,
      "t": 7941.172500000001,
      "d": 44.11762499999986,
      "v": 61
    },
    {
      "midi": 62,
      "hit": false,
      "t": 8088.23125,
      "d": 53.9215416666666,
      "v": 71
    },
    {
      "midi": 55,
      "hit": false,
      "t": 8088.23125,
      "d": 117.64699999999993,
      "v": 50
    },
    {
      "midi": 43,
      "hit": false,
      "t": 8235.289999999999,
      "d": 754.9015833333342,
      "v": 84
    },
    {
      "midi": 55,
      "hit": false,
      "t": 8235.289999999999,
      "d": 1235.293499999998,
      "v": 82
    },
    {
      "midi": 62,
      "hit": false,
      "t": 8235.289999999999,
      "d": 1249.9993749999976,
      "v": 91
    },
    {
      "midi": 55,
      "hit": false,
      "t": 8529.4075,
      "d": 901.9603333333362,
      "v": 59
    },
    {
      "midi": 59,
      "hit": false,
      "t": 8823.525,
      "d": 367.64687500000036,
      "v": 88
    },
    {
      "midi": 62,
      "hit": false,
      "t": 8823.525,
      "d": 372.5488333333342,
      "v": 81
    },
    {
      "midi": 67,
      "hit": false,
      "t": 8823.525,
      "d": 544.1173750000016,
      "v": 85
    },
    {
      "midi": 43,
      "hit": false,
      "t": 9117.6425,
      "d": 151.96070833333397,
      "v": 61
    },
    {
      "midi": 62,
      "hit": false,
      "t": 9264.70125,
      "d": 117.64700000000084,
      "v": 74
    },
    {
      "midi": 59,
      "hit": false,
      "t": 9264.70125,
      "d": 122.54895833333467,
      "v": 82
    },
    {
      "midi": 45,
      "hit": false,
      "t": 9411.760000000002,
      "d": 720.5878750000011,
      "v": 95
    },
    {
      "midi": 57,
      "hit": false,
      "t": 9705.877499999995,
      "d": 318.62729166666577,
      "v": 81
    },
    {
      "midi": 52,
      "hit": false,
      "t": 9705.877500000002,
      "d": 799.0192083333332,
      "v": 54
    },
    {
      "midi": 60,
      "hit": false,
      "t": 9999.994999999994,
      "d": 308.82337499999994,
      "v": 88
    },
    {
      "midi": 57,
      "hit": false,
      "t": 9999.995000000003,
      "d": 362.74491666666654,
      "v": 65
    },
    {
      "midi": 60,
      "hit": false,
      "t": 9999.995000000003,
      "d": 372.54883333333237,
      "v": 74
    },
    {
      "midi": 64,
      "hit": false,
      "t": 9999.995000000003,
      "d": 485.2938749999994,
      "v": 60
    },
    {
      "midi": 64,
      "hit": false,
      "t": 10294.112499999994,
      "d": 289.21554166666647,
      "v": 88
    },
    {
      "midi": 45,
      "hit": false,
      "t": 10294.112500000003,
      "d": 58.82350000000042,
      "v": 65
    },
    {
      "midi": 57,
      "hit": false,
      "t": 10441.171250000001,
      "d": 166.66658333333362,
      "v": 69
    },
    {
      "midi": 60,
      "hit": false,
      "t": 10441.171250000001,
      "d": 210.7842083333344,
      "v": 60
    },
    {
      "midi": 65,
      "hit": false,
      "t": 10588.229999999994,
      "d": 303.9214166666661,
      "v": 88
    },
    {
      "midi": 41,
      "hit": false,
      "t": 10588.230000000001,
      "d": 799.0192083333332,
      "v": 81
    },
    {
      "midi": 64,
      "hit": false,
      "t": 10882.347499999994,
      "d": 338.23512499999924,
      "v": 81
    },
    {
      "midi": 53,
      "hit": false,
      "t": 10882.347500000002,
      "d": 789.2152916666655,
      "v": 72
    },
    {
      "midi": 62,
      "hit": false,
      "t": 11176.464999999993,
      "d": 372.5488333333342,
      "v": 82
    },
    {
      "midi": 57,
      "hit": false,
      "t": 11176.465000000002,
      "d": 480.39191666666557,
      "v": 85
    },
    {
      "midi": 60,
      "hit": false,
      "t": 11176.465000000002,
      "d": 529.4114999999983,
      "v": 88
    },
    {
      "midi": 65,
      "hit": false,
      "t": 11176.465000000002,
      "d": 637.2545833333315,
      "v": 90
    },
    {
      "midi": 60,
      "hit": false,
      "t": 11470.582499999993,
      "d": 225.49008333333404,
      "v": 88
    },
    {
      "midi": 41,
      "hit": false,
      "t": 11470.5825,
      "d": 68.62741666666625,
      "v": 72
    },
    {
      "midi": 55,
      "hit": false,
      "t": 11764.7,
      "d": 264.70574999999917,
      "v": 65
    },
    {
      "midi": 48,
      "hit": false,
      "t": 11764.7,
      "d": 740.1957083333327,
      "v": 67
    },
    {
      "midi": 55,
      "hit": false,
      "t": 12058.817499999994,
      "d": 480.39191666666557,
      "v": 61
    },
    {
      "midi": 55,
      "hit": false,
      "t": 12058.8175,
      "d": 681.3722083333323,
      "v": 54
    },
    {
      "midi": 60,
      "hit": false,
      "t": 12352.934999999992,
      "d": 259.80379166666717,
      "v": 86
    },
    {
      "midi": 67,
      "hit": false,
      "t": 12352.935,
      "d": 372.54883333333237,
      "v": 76
    },
    {
      "midi": 60,
      "hit": false,
      "t": 12352.935,
      "d": 397.05862499999785,
      "v": 79
    },
    {
      "midi": 64,
      "hit": false,
      "t": 12352.935,
      "d": 416.6664583333313,
      "v": 79
    },
    {
      "midi": 55,
      "hit": false,
      "t": 12647.052499999993,
      "d": 88.23524999999972,
      "v": 50
    },
    {
      "midi": 48,
      "hit": false,
      "t": 12647.0525,
      "d": 63.725458333332426,
      "v": 59
    },
    {
      "midi": 60,
      "hit": false,
      "t": 12794.111249999998,
      "d": 83.3332916666659,
      "v": 61
    },
    {
      "midi": 55,
      "hit": false,
      "t": 12794.111249999998,
      "d": 142.15679166666632,
      "v": 58
    },
    {
      "midi": 64,
      "hit": false,
      "t": 12794.111249999998,
      "d": 161.7646249999998,
      "v": 61
    },
    {
      "midi": 67,
      "hit": false,
      "t": 12794.111249999998,
      "d": 240.1959583333337,
      "v": 61
    },
    {
      "midi": 55,
      "hit": false,
      "t": 12941.169999999993,
      "d": 784.3133333333335,
      "v": 73
    },
    {
      "midi": 62,
      "hit": false,
      "t": 12941.169999999993,
      "d": 901.9603333333343,
      "v": 87
    },
    {
      "midi": 43,
      "hit": false,
      "t": 12941.169999999998,
      "d": 799.0192083333332,
      "v": 95
    },
    {
      "midi": 55,
      "hit": false,
      "t": 13235.287499999999,
      "d": 769.607458333332,
      "v": 72
    },
    {
      "midi": 67,
      "hit": false,
      "t": 13529.404999999999,
      "d": 357.8429583333309,
      "v": 91
    },
    {
      "midi": 62,
      "hit": false,
      "t": 13529.404999999999,
      "d": 450.98016666666445,
      "v": 87
    },
    {
      "midi": 59,
      "hit": false,
      "t": 13529.404999999999,
      "d": 455.88212499999827,
      "v": 90
    },
    {
      "midi": 53,
      "hit": false,
      "t": 13823.522499999994,
      "d": 828.4309583333343,
      "v": 73
    },
    {
      "midi": 60,
      "hit": false,
      "t": 13823.522499999994,
      "d": 2627.449666666669,
      "v": 81
    },
    {
      "midi": 43,
      "hit": false,
      "t": 13823.522499999997,
      "d": 151.96070833333215,
      "v": 74
    },
    {
      "midi": 53,
      "hit": false,
      "t": 14117.639999999998,
      "d": 264.70574999999917,
      "v": 79
    },
    {
      "midi": 41,
      "hit": false,
      "t": 14117.639999999998,
      "d": 509.80366666666487,
      "v": 81
    },
    {
      "midi": 55,
      "hit": false,
      "t": 14117.639999999998,
      "d": 617.6467499999981,
      "v": 95
    },
    {
      "midi": 60,
      "hit": false,
      "t": 14117.639999999998,
      "d": 642.1565416666654,
      "v": 100
    },
    {
      "midi": 53,
      "hit": false,
      "t": 14411.757499999996,
      "d": 279.41162500000064,
      "v": 76
    },
    {
      "midi": 53,
      "hit": false,
      "t": 14705.874999999995,
      "d": 1774.5089166666676,
      "v": 61
    },
    {
      "midi": 41,
      "hit": false,
      "t": 14705.874999999996,
      "d": 495.09779166666704,
      "v": 88
    },
    {
      "midi": 55,
      "hit": false,
      "t": 14999.992499999995,
      "d": 1465.6855416666676,
      "v": 74
    },
    {
      "midi": 60,
      "hit": false,
      "t": 14999.992499999997,
      "d": 514.7056250000005,
      "v": 72
    },
    {
      "midi": 65,
      "hit": false,
      "t": 14999.992499999997,
      "d": 514.7056250000005,
      "v": 81
    },
    {
      "midi": 67,
      "hit": false,
      "t": 14999.992499999997,
      "d": 519.6075833333343,
      "v": 82
    },
    {
      "midi": 72,
      "hit": false,
      "t": 14999.992499999997,
      "d": 524.5095416666682,
      "v": 91
    },
    {
      "midi": 41,
      "hit": false,
      "t": 15294.109999999997,
      "d": 749.9996250000004,
      "v": 91
    },
    {
      "midi": 72,
      "hit": false,
      "t": 15588.227499999997,
      "d": 578.4310833333329,
      "v": 81
    },
    {
      "midi": 67,
      "hit": false,
      "t": 15588.227499999997,
      "d": 617.6467499999981,
      "v": 87
    },
    {
      "midi": 65,
      "hit": false,
      "t": 15882.344999999998,
      "d": 343.13708333333125,
      "v": 90
    },
    {
      "midi": 41,
      "hit": false,
      "t": 16176.462499999996,
      "d": 29.4117499999993,
      "v": 60
    },
    {
      "midi": 60,
      "hit": false,
      "t": 16176.462499999996,
      "d": 102.94112499999937,
      "v": 72
    },
    {
      "midi": 48,
      "hit": false,
      "t": 16470.579999999994,
      "d": 421.5684166666688,
      "v": 100
    },
    {
      "midi": 55,
      "hit": false,
      "t": 16764.697499999995,
      "d": 499.9997500000027,
      "v": 65
    },
    {
      "midi": 55,
      "hit": false,
      "t": 16764.697499999995,
      "d": 436.2742916666648,
      "v": 80
    },
    {
      "midi": 48,
      "hit": false,
      "t": 16911.756249999995,
      "d": 318.6272916666676,
      "v": 72
    },
    {
      "midi": 60,
      "hit": false,
      "t": 17058.81499999999,
      "d": 225.49008333333404,
      "v": 98
    },
    {
      "midi": 60,
      "hit": false,
      "t": 17058.814999999995,
      "d": 284.3135833333363,
      "v": 90
    },
    {
      "midi": 64,
      "hit": false,
      "t": 17058.814999999995,
      "d": 333.3331666666709,
      "v": 90
    },
    {
      "midi": 67,
      "hit": false,
      "t": 17058.814999999995,
      "d": 553.9212916666693,
      "v": 85
    },
    {
      "midi": 55,
      "hit": false,
      "t": 17352.93249999999,
      "d": 68.62741666666625,
      "v": 48
    },
    {
      "midi": 48,
      "hit": false,
      "t": 17352.9325,
      "d": 53.9215416666666,
      "v": 70
    },
    {
      "midi": 55,
      "hit": false,
      "t": 17499.99125,
      "d": 127.45091666666485,
      "v": 69
    },
    {
      "midi": 55,
      "hit": false,
      "t": 17647.049999999992,
      "d": 1200.9797916666575,
      "v": 72
    },
    {
      "midi": 62,
      "hit": false,
      "t": 17647.049999999992,
      "d": 1205.8817499999896,
      "v": 96
    },
    {
      "midi": 43,
      "hit": false,
      "t": 17647.049999999996,
      "d": 774.5094166666677,
      "v": 90
    },
    {
      "midi": 55,
      "hit": false,
      "t": 17941.167499999996,
      "d": 671.5682916666665,
      "v": 61
    },
    {
      "midi": 67,
      "hit": false,
      "t": 18235.284999999996,
      "d": 524.5095416666663,
      "v": 85
    },
    {
      "midi": 62,
      "hit": false,
      "t": 18235.284999999996,
      "d": 534.313458333334,
      "v": 81
    },
    {
      "midi": 59,
      "hit": false,
      "t": 18235.284999999996,
      "d": 558.8232500000013,
      "v": 90
    },
    {
      "midi": 43,
      "hit": false,
      "t": 18529.402499999997,
      "d": 225.49008333333404,
      "v": 71
    },
    {
      "midi": 55,
      "hit": false,
      "t": 18676.461249999997,
      "d": 122.54895833333285,
      "v": 66
    },
    {
      "midi": 45,
      "hit": false,
      "t": 18823.519999999997,
      "d": 656.8624166666668,
      "v": 99
    },
    {
      "midi": 57,
      "hit": false,
      "t": 19117.637499999983,
      "d": 382.35275000000183,
      "v": 91
    },
    {
      "midi": 52,
      "hit": false,
      "t": 19117.637499999997,
      "d": 759.803541666668,
      "v": 54
    },
    {
      "midi": 60,
      "hit": false,
      "t": 19411.754999999983,
      "d": 313.72533333333195,
      "v": 88
    },
    {
      "midi": 60,
      "hit": false,
      "t": 19411.754999999997,
      "d": 392.15666666666584,
      "v": 81
    },
    {
      "midi": 57,
      "hit": false,
      "t": 19411.754999999997,
      "d": 406.8625416666655,
      "v": 84
    },
    {
      "midi": 64,
      "hit": false,
      "t": 19411.754999999997,
      "d": 495.09779166666704,
      "v": 74
    },
    {
      "midi": 64,
      "hit": false,
      "t": 19705.872499999983,
      "d": 313.7253333333283,
      "v": 86
    },
    {
      "midi": 45,
      "hit": false,
      "t": 19705.872499999998,
      "d": 73.52937499999825,
      "v": 82
    },
    {
      "midi": 60,
      "hit": false,
      "t": 19852.931249999998,
      "d": 416.66645833333314,
      "v": 72
    },
    {
      "midi": 57,
      "hit": false,
      "t": 19852.931249999998,
      "d": 627.4506666666675,
      "v": 65
    },
    {
      "midi": 65,
      "hit": false,
      "t": 19999.98999999998,
      "d": 299.01945833332866,
      "v": 93
    },
    {
      "midi": 53,
      "hit": false,
      "t": 19999.989999999998,
      "d": 107.8430833333332,
      "v": 66
    },
    {
      "midi": 41,
      "hit": false,
      "t": 19999.989999999998,
      "d": 794.1172499999993,
      "v": 87
    },
    {
      "midi": 64,
      "hit": false,
      "t": 20294.107499999976,
      "d": 313.72533333332467,
      "v": 82
    },
    {
      "midi": 53,
      "hit": false,
      "t": 20294.1075,
      "d": 794.1172499999993,
      "v": 79
    },
    {
      "midi": 62,
      "hit": false,
      "t": 20588.22499999997,
      "d": 357.8429583333309,
      "v": 81
    },
    {
      "midi": 60,
      "hit": false,
      "t": 20588.225,
      "d": 529.4114999999983,
      "v": 99
    },
    {
      "midi": 57,
      "hit": false,
      "t": 20588.225,
      "d": 539.215416666666,
      "v": 93
    },
    {
      "midi": 65,
      "hit": false,
      "t": 20588.225,
      "d": 544.117374999998,
      "v": 93
    },
    {
      "midi": 60,
      "hit": false,
      "t": 20882.342499999966,
      "d": 230.39204166666605,
      "v": 88
    },
    {
      "midi": 41,
      "hit": false,
      "t": 20882.3425,
      "d": 44.11762499999895,
      "v": 63
    },
    {
      "midi": 48,
      "hit": false,
      "t": 21176.459999999995,
      "d": 377.4507916666662,
      "v": 87
    },
    {
      "midi": 55,
      "hit": false,
      "t": 21470.577499999963,
      "d": 460.78408333332845,
      "v": 74
    },
    {
      "midi": 55,
      "hit": false,
      "t": 21470.577499999996,
      "d": 995.0975416666624,
      "v": 69
    },
    {
      "midi": 48,
      "hit": false,
      "t": 21617.636249999996,
      "d": 367.64687499999854,
      "v": 77
    },
    {
      "midi": 60,
      "hit": false,
      "t": 21764.69499999996,
      "d": 254.90183333333334,
      "v": 81
    },
    {
      "midi": 60,
      "hit": false,
      "t": 21764.694999999996,
      "d": 431.37233333332915,
      "v": 95
    },
    {
      "midi": 64,
      "hit": false,
      "t": 21764.694999999996,
      "d": 549.01933333333,
      "v": 93
    },
    {
      "midi": 67,
      "hit": false,
      "t": 21764.694999999996,
      "d": 1034.313208333333,
      "v": 90
    },
    {
      "midi": 55,
      "hit": false,
      "t": 22058.81249999996,
      "d": 88.23525000000154,
      "v": 61
    },
    {
      "midi": 48,
      "hit": false,
      "t": 22058.812499999993,
      "d": 68.62741666666625,
      "v": 72
    },
    {
      "midi": 55,
      "hit": false,
      "t": 22352.92999999996,
      "d": 470.58799999999974,
      "v": 75
    },
    {
      "midi": 62,
      "hit": false,
      "t": 22352.92999999996,
      "d": 897.0583750000005,
      "v": 96
    },
    {
      "midi": 62,
      "hit": false,
      "t": 22352.929999999993,
      "d": 411.76450000000114,
      "v": 71
    },
    {
      "midi": 59,
      "hit": false,
      "t": 22352.929999999993,
      "d": 436.27429166666843,
      "v": 72
    },
    {
      "midi": 43,
      "hit": false,
      "t": 22352.929999999993,
      "d": 789.215291666671,
      "v": 87
    },
    {
      "midi": 55,
      "hit": false,
      "t": 22647.047499999993,
      "d": 254.90183333333698,
      "v": 63
    },
    {
      "midi": 55,
      "hit": false,
      "t": 22941.16499999996,
      "d": 264.705750000001,
      "v": 66
    },
    {
      "midi": 59,
      "hit": false,
      "t": 22941.164999999997,
      "d": 235.2940000000017,
      "v": 88
    },
    {
      "midi": 62,
      "hit": false,
      "t": 22941.164999999997,
      "d": 235.2940000000017,
      "v": 93
    },
    {
      "midi": 55,
      "hit": false,
      "t": 22941.164999999997,
      "d": 254.90183333333334,
      "v": 65
    },
    {
      "midi": 67,
      "hit": false,
      "t": 22941.164999999997,
      "d": 294.1175000000003,
      "v": 82
    },
    {
      "midi": 53,
      "hit": false,
      "t": 23235.28249999996,
      "d": 2593.135958333336,
      "v": 80
    },
    {
      "midi": 60,
      "hit": false,
      "t": 23235.28249999996,
      "d": 2607.8418333333357,
      "v": 97
    },
    {
      "midi": 43,
      "hit": false,
      "t": 23235.282499999998,
      "d": 181.3724583333351,
      "v": 72
    },
    {
      "midi": 60,
      "hit": false,
      "t": 23529.399999999998,
      "d": 249.99987500000134,
      "v": 81
    },
    {
      "midi": 65,
      "hit": false,
      "t": 23529.399999999998,
      "d": 416.66645833333314,
      "v": 84
    },
    {
      "midi": 67,
      "hit": false,
      "t": 23529.399999999998,
      "d": 441.17625000000044,
      "v": 85
    },
    {
      "midi": 41,
      "hit": false,
      "t": 23529.399999999998,
      "d": 696.0780833333338,
      "v": 82
    },
    {
      "midi": 60,
      "hit": false,
      "t": 23823.517499999998,
      "d": 196.07833333333474,
      "v": 78
    },
    {
      "midi": 65,
      "hit": false,
      "t": 23970.57625,
      "d": 240.1959583333337,
      "v": 90
    },
    {
      "midi": 67,
      "hit": false,
      "t": 23970.57625,
      "d": 249.99987500000134,
      "v": 78
    },
    {
      "midi": 41,
      "hit": false,
      "t": 24264.69375,
      "d": 362.74491666666654,
      "v": 76
    },
    {
      "midi": 55,
      "hit": false,
      "t": 24411.752499999962,
      "d": 1450.9796666666662,
      "v": 81
    },
    {
      "midi": 65,
      "hit": false,
      "t": 24411.7525,
      "d": 254.90183333333334,
      "v": 81
    },
    {
      "midi": 60,
      "hit": false,
      "t": 24411.7525,
      "d": 274.509666666665,
      "v": 82
    },
    {
      "midi": 57,
      "hit": false,
      "t": 24411.7525,
      "d": 303.9214166666643,
      "v": 75
    },
    {
      "midi": 41,
      "hit": false,
      "t": 24705.869999999995,
      "d": 308.82337499999994,
      "v": 72
    },
    {
      "midi": 55,
      "hit": false,
      "t": 24852.928749999995,
      "d": 200.98029166666674,
      "v": 72
    },
    {
      "midi": 60,
      "hit": false,
      "t": 24852.928749999995,
      "d": 946.0779583333315,
      "v": 70
    },
    {
      "midi": 41,
      "hit": false,
      "t": 25147.046249999996,
      "d": 421.56841666666514,
      "v": 82
    },
    {
      "midi": 53,
      "hit": false,
      "t": 25294.104999999996,
      "d": 529.4114999999947,
      "v": 54
    },
    {
      "midi": 55,
      "hit": false,
      "t": 25294.104999999996,
      "d": 534.3134583333267,
      "v": 63
    },
    {
      "midi": 48,
      "hit": false,
      "t": 25294.104999999996,
      "d": 563.725208333326,
      "v": 55
    },
    {
      "midi": 41,
      "hit": false,
      "t": 25588.222499999993,
      "d": 230.39204166666605,
      "v": 59
    },
    {
      "midi": 60,
      "hit": false,
      "t": 25882.33999999999,
      "d": 946.0779583333351,
      "v": 75
    },
    {
      "midi": 64,
      "hit": false,
      "t": 25882.33999999999,
      "d": 1166.6660833333335,
      "v": 67
    },
    {
      "midi": 55,
      "hit": false,
      "t": 25882.33999999999,
      "d": 2200.9792916666665,
      "v": 61
    },
    {
      "midi": 59,
      "hit": false,
      "t": 27058.80999999999,
      "d": 431.3723333333328,
      "v": 69
    },
    {
      "midi": 62,
      "hit": false,
      "t": 27058.80999999999,
      "d": 1254.9013333333314,
      "v": 76
    },
    {
      "midi": 59,
      "hit": false,
      "t": 27647.04499999999,
      "d": 352.9409999999989,
      "v": 48
    },
    {
      "midi": 55,
      "hit": false,
      "t": 28235.279999999988,
      "d": 960.7838333333348,
      "v": 42
    },
    {
      "midi": 53,
      "hit": false,
      "t": 28235.279999999988,
      "d": 1039.2151666666687,
      "v": 51
    },
    {
      "midi": 60,
      "hit": false,
      "t": 28235.279999999988,
      "d": 1078.4308333333356,
      "v": 58
    },
    {
      "midi": 62,
      "hit": false,
      "t": 29411.74999999999,
      "d": 1049.0190833333327,
      "v": 59
    },
    {
      "midi": 55,
      "hit": false,
      "t": 29411.74999999999,
      "d": 1058.8230000000003,
      "v": 63
    },
    {
      "midi": 60,
      "hit": false,
      "t": 30588.21999999999,
      "d": 1039.215166666665,
      "v": 63
    },
    {
      "midi": 64,
      "hit": false,
      "t": 30588.21999999999,
      "d": 1196.0778333333292,
      "v": 71
    },
    {
      "midi": 55,
      "hit": false,
      "t": 30588.21999999999,
      "d": 2210.7832083333305,
      "v": 42
    },
    {
      "midi": 59,
      "hit": false,
      "t": 31764.689999999988,
      "d": 901.9603333333325,
      "v": 59
    },
    {
      "midi": 62,
      "hit": false,
      "t": 31764.689999999988,
      "d": 1181.3719583333368,
      "v": 72
    },
    {
      "midi": 55,
      "hit": false,
      "t": 32941.15999999999,
      "d": 1004.9014583333337,
      "v": 71
    },
    {
      "midi": 53,
      "hit": false,
      "t": 32941.15999999999,
      "d": 1039.2151666666687,
      "v": 65
    },
    {
      "midi": 60,
      "hit": false,
      "t": 32941.15999999999,
      "d": 1098.0386666666673,
      "v": 69
    },
    {
      "midi": 59,
      "hit": false,
      "t": 34117.62999999999,
      "d": 745.0976666666684,
      "v": 61
    },
    {
      "midi": 62,
      "hit": false,
      "t": 34117.62999999999,
      "d": 808.8231250000026,
      "v": 63
    },
    {
      "midi": 55,
      "hit": false,
      "t": 34117.62999999999,
      "d": 999.9995000000054,
      "v": 49
    },
    {
      "midi": 55,
      "hit": false,
      "t": 35294.09999999996,
      "d": 549.01933333333,
      "v": 73
    },
    {
      "midi": 60,
      "hit": false,
      "t": 35294.09999999996,
      "d": 617.6467499999999,
      "v": 73
    },
    {
      "midi": 67,
      "hit": false,
      "t": 35294.1,
      "d": 887.2544583333292,
      "v": 88
    },
    {
      "midi": 60,
      "hit": false,
      "t": 35294.1,
      "d": 931.3720833333282,
      "v": 90
    },
    {
      "midi": 64,
      "hit": false,
      "t": 35294.1,
      "d": 936.2740416666638,
      "v": 84
    },
    {
      "midi": 55,
      "hit": false,
      "t": 35294.1,
      "d": 1058.8229999999967,
      "v": 87
    },
    {
      "midi": 48,
      "hit": false,
      "t": 35294.1,
      "d": 1132.352374999995,
      "v": 100
    },
    {
      "midi": 55,
      "hit": false,
      "t": 35882.33499999996,
      "d": 1068.626916666668,
      "v": 80
    },
    {
      "midi": 60,
      "hit": false,
      "t": 36176.45249999996,
      "d": 862.7446666666656,
      "v": 96
    },
    {
      "midi": 53,
      "hit": false,
      "t": 36470.56999999999,
      "d": 499.9997500000027,
      "v": 64
    },
    {
      "midi": 46,
      "hit": false,
      "t": 36470.56999999999,
      "d": 892.1564166666649,
      "v": 78
    },
    {
      "midi": 58,
      "hit": false,
      "t": 36470.56999999999,
      "d": 892.1564166666649,
      "v": 80
    },
    {
      "midi": 62,
      "hit": false,
      "t": 36470.56999999999,
      "d": 911.7642500000002,
      "v": 81
    },
    {
      "midi": 65,
      "hit": false,
      "t": 36470.56999999999,
      "d": 955.8818749999991,
      "v": 63
    },
    {
      "midi": 53,
      "hit": false,
      "t": 37058.804999999964,
      "d": 524.5095416666663,
      "v": 79
    },
    {
      "midi": 53,
      "hit": false,
      "t": 37058.80499999999,
      "d": 254.90183333333698,
      "v": 55
    },
    {
      "midi": 58,
      "hit": false,
      "t": 37352.922499999964,
      "d": 245.0979166666657,
      "v": 67
    },
    {
      "midi": 53,
      "hit": false,
      "t": 37352.92249999999,
      "d": 191.17637499999546,
      "v": 74
    },
    {
      "midi": 53,
      "hit": false,
      "t": 37647.039999999964,
      "d": 1127.4504166666811,
      "v": 73
    },
    {
      "midi": 57,
      "hit": false,
      "t": 37647.039999999964,
      "d": 1176.4700000000157,
      "v": 88
    },
    {
      "midi": 60,
      "hit": false,
      "t": 37647.039999999986,
      "d": 867.6466250000012,
      "v": 90
    },
    {
      "midi": 53,
      "hit": false,
      "t": 37647.039999999986,
      "d": 970.5877499999988,
      "v": 78
    },
    {
      "midi": 55,
      "hit": false,
      "t": 37647.039999999986,
      "d": 975.4897083333344,
      "v": 85
    },
    {
      "midi": 41,
      "hit": false,
      "t": 37647.039999999986,
      "d": 1029.4112500000047,
      "v": 77
    },
    {
      "midi": 50,
      "hit": false,
      "t": 38823.50999999998,
      "d": 534.3134583333303,
      "v": 108
    },
    {
      "midi": 55,
      "hit": false,
      "t": 38823.50999999998,
      "d": 1014.7053749999977,
      "v": 82
    },
    {
      "midi": 55,
      "hit": false,
      "t": 38823.50999999999,
      "d": 450.9801666666608,
      "v": 81
    },
    {
      "midi": 57,
      "hit": false,
      "t": 38823.50999999999,
      "d": 509.8036666666594,
      "v": 75
    },
    {
      "midi": 59,
      "hit": false,
      "t": 38823.50999999999,
      "d": 745.0976666666611,
      "v": 74
    },
    {
      "midi": 62,
      "hit": false,
      "t": 38823.50999999999,
      "d": 749.9996249999967,
      "v": 81
    },
    {
      "midi": 43,
      "hit": false,
      "t": 38823.50999999999,
      "d": 779.411374999996,
      "v": 88
    },
    {
      "midi": 50,
      "hit": false,
      "t": 39117.62749999999,
      "d": 372.5488333333269,
      "v": 68
    },
    {
      "midi": 55,
      "hit": false,
      "t": 39411.74499999998,
      "d": 122.54895833333285,
      "v": 93
    },
    {
      "midi": 50,
      "hit": false,
      "t": 39411.74499999998,
      "d": 397.05862499999785,
      "v": 60
    },
    {
      "midi": 43,
      "hit": false,
      "t": 39705.86249999998,
      "d": 34.313708333334944,
      "v": 61
    },
    {
      "midi": 55,
      "hit": false,
      "t": 39999.97999999998,
      "d": 519.6075833333307,
      "v": 91
    },
    {
      "midi": 60,
      "hit": false,
      "t": 39999.97999999998,
      "d": 656.8624166666705,
      "v": 91
    },
    {
      "midi": 62,
      "hit": false,
      "t": 39999.97999999998,
      "d": 931.3720833333355,
      "v": 95
    },
    {
      "midi": 67,
      "hit": false,
      "t": 39999.97999999998,
      "d": 931.3720833333355,
      "v": 85
    },
    {
      "midi": 64,
      "hit": false,
      "t": 39999.97999999998,
      "d": 946.0779583333351,
      "v": 87
    },
    {
      "midi": 48,
      "hit": false,
      "t": 39999.97999999998,
      "d": 1117.6464999999953,
      "v": 87
    },
    {
      "midi": 60,
      "hit": false,
      "t": 39999.97999999998,
      "d": 485.293875000003,
      "v": 88
    },
    {
      "midi": 55,
      "hit": false,
      "t": 39999.97999999998,
      "d": 504.9017083333383,
      "v": 75
    },
    {
      "midi": 55,
      "hit": false,
      "t": 40588.21499999998,
      "d": 372.5488333333342,
      "v": 64
    },
    {
      "midi": 55,
      "hit": false,
      "t": 40588.21499999999,
      "d": 1093.136708333339,
      "v": 87
    },
    {
      "midi": 60,
      "hit": false,
      "t": 40882.33249999998,
      "d": 117.6469999999972,
      "v": 74
    },
    {
      "midi": 60,
      "hit": false,
      "t": 40882.33249999999,
      "d": 833.3329166666736,
      "v": 104
    },
    {
      "midi": 53,
      "hit": false,
      "t": 41176.449999999975,
      "d": 431.3723333333328,
      "v": 72
    },
    {
      "midi": 46,
      "hit": false,
      "t": 41176.449999999975,
      "d": 901.9603333333362,
      "v": 87
    },
    {
      "midi": 60,
      "hit": false,
      "t": 41176.449999999975,
      "d": 926.4701249999998,
      "v": 77
    },
    {
      "midi": 62,
      "hit": false,
      "t": 41176.449999999975,
      "d": 946.0779583333351,
      "v": 84
    },
    {
      "midi": 58,
      "hit": false,
      "t": 41176.449999999975,
      "d": 950.9799166666708,
      "v": 78
    },
    {
      "midi": 65,
      "hit": false,
      "t": 41176.449999999975,
      "d": 2230.3910416666695,
      "v": 70
    },
    {
      "midi": 53,
      "hit": false,
      "t": 41764.684999999976,
      "d": 264.705750000001,
      "v": 59
    },
    {
      "midi": 53,
      "hit": false,
      "t": 41764.685,
      "d": 1661.7638750000042,
      "v": 66
    },
    {
      "midi": 53,
      "hit": false,
      "t": 42058.802499999976,
      "d": 240.19595833333733,
      "v": 65
    },
    {
      "midi": 58,
      "hit": false,
      "t": 42058.8025,
      "d": 259.80379166666535,
      "v": 91
    },
    {
      "midi": 53,
      "hit": false,
      "t": 42352.919999999984,
      "d": 779.4113750000033,
      "v": 79
    },
    {
      "midi": 41,
      "hit": false,
      "t": 42352.919999999984,
      "d": 906.8622916666645,
      "v": 82
    },
    {
      "midi": 57,
      "hit": false,
      "t": 42352.919999999984,
      "d": 965.6857916666631,
      "v": 88
    },
    {
      "midi": 60,
      "hit": false,
      "t": 42352.919999999984,
      "d": 1073.5288749999963,
      "v": 87
    },
    {
      "midi": 57,
      "hit": false,
      "t": 42352.92,
      "d": 1122.5484583333382,
      "v": 81
    },
    {
      "midi": 53,
      "hit": false,
      "t": 43235.272499999985,
      "d": 191.17637499999546,
      "v": 65
    },
    {
      "midi": 41,
      "hit": false,
      "t": 43382.33124999998,
      "d": 53.92154166666296,
      "v": 91
    },
    {
      "midi": 59,
      "hit": false,
      "t": 43529.38999999998,
      "d": 416.66645833333314,
      "v": 114
    },
    {
      "midi": 43,
      "hit": false,
      "t": 43529.38999999998,
      "d": 436.27429166666843,
      "v": 114
    },
    {
      "midi": 62,
      "hit": false,
      "t": 43529.38999999998,
      "d": 436.27429166666843,
      "v": 114
    },
    {
      "midi": 55,
      "hit": false,
      "t": 43529.38999999998,
      "d": 455.8821250000037,
      "v": 102
    },
    {
      "midi": 50,
      "hit": false,
      "t": 43529.39000000001,
      "d": 573.5291250000009,
      "v": 116
    },
    {
      "midi": 55,
      "hit": false,
      "t": 43529.39000000001,
      "d": 588.2350000000006,
      "v": 98
    },
    {
      "midi": 57,
      "hit": false,
      "t": 44117.62499999998,
      "d": 200.98029166666674,
      "v": 97
    },
    {
      "midi": 64,
      "hit": false,
      "t": 44117.62499999998,
      "d": 274.509666666665,
      "v": 112
    },
    {
      "midi": 61,
      "hit": false,
      "t": 44117.62499999998,
      "d": 303.9214166666643,
      "v": 114
    },
    {
      "midi": 45,
      "hit": false,
      "t": 44117.62499999998,
      "d": 377.45079166666255,
      "v": 114
    },
    {
      "midi": 57,
      "hit": false,
      "t": 44117.62500000001,
      "d": 495.09779166666704,
      "v": 104
    },
    {
      "midi": 52,
      "hit": false,
      "t": 44117.62500000001,
      "d": 499.9997500000027,
      "v": 111
    },
    {
      "midi": 57,
      "hit": false,
      "t": 44411.74249999998,
      "d": 166.6665833333318,
      "v": 63
    },
    {
      "midi": 57,
      "hit": false,
      "t": 44705.85999999998,
      "d": 225.4900833333304,
      "v": 69
    },
    {
      "midi": 62,
      "hit": false,
      "t": 44705.85999999998,
      "d": 455.88212499999645,
      "v": 93
    },
    {
      "midi": 66,
      "hit": false,
      "t": 44705.85999999998,
      "d": 799.0192083333313,
      "v": 99
    },
    {
      "midi": 50,
      "hit": false,
      "t": 44705.85999999998,
      "d": 852.9407500000016,
      "v": 114
    },
    {
      "midi": 50,
      "hit": false,
      "t": 44705.86000000001,
      "d": 774.5094166666677,
      "v": 116
    },
    {
      "midi": 57,
      "hit": false,
      "t": 44999.97749999998,
      "d": 475.48995833333174,
      "v": 63
    },
    {
      "midi": 62,
      "hit": false,
      "t": 45294.09499999997,
      "d": 176.47050000000309,
      "v": 76
    },
    {
      "midi": 57,
      "hit": false,
      "t": 45294.09500000001,
      "d": 387.25470833333384,
      "v": 97
    },
    {
      "midi": 62,
      "hit": false,
      "t": 45294.09500000001,
      "d": 401.9605833333335,
      "v": 110
    },
    {
      "midi": 64,
      "hit": false,
      "t": 45588.21249999998,
      "d": 122.54895833333285,
      "v": 77
    },
    {
      "midi": 57,
      "hit": false,
      "t": 45588.21249999998,
      "d": 490.1958333333314,
      "v": 54
    },
    {
      "midi": 50,
      "hit": false,
      "t": 45588.21250000001,
      "d": 83.33329166666954,
      "v": 93
    },
    {
      "midi": 66,
      "hit": false,
      "t": 45735.271249999976,
      "d": 53.92154166667024,
      "v": 85
    },
    {
      "midi": 62,
      "hit": false,
      "t": 45735.271250000005,
      "d": 68.62741666666989,
      "v": 67
    },
    {
      "midi": 57,
      "hit": false,
      "t": 45735.271250000005,
      "d": 78.4313333333339,
      "v": 75
    },
    {
      "midi": 45,
      "hit": false,
      "t": 45882.32999999998,
      "d": 563.7252083333369,
      "v": 81
    },
    {
      "midi": 64,
      "hit": false,
      "t": 45882.32999999998,
      "d": 950.9799166666708,
      "v": 90
    },
    {
      "midi": 45,
      "hit": false,
      "t": 45882.33000000001,
      "d": 88.2352499999979,
      "v": 68
    },
    {
      "midi": 57,
      "hit": false,
      "t": 46176.44749999998,
      "d": 78.4313333333339,
      "v": 58
    },
    {
      "midi": 45,
      "hit": false,
      "t": 46176.44750000001,
      "d": 681.3722083333341,
      "v": 80
    },
    {
      "midi": 57,
      "hit": false,
      "t": 46323.506249999984,
      "d": 343.1370833333276,
      "v": 65
    },
    {
      "midi": 61,
      "hit": false,
      "t": 46323.506249999984,
      "d": 357.84295833332726,
      "v": 89
    },
    {
      "midi": 45,
      "hit": false,
      "t": 46470.56499999998,
      "d": 455.8821250000037,
      "v": 76
    },
    {
      "midi": 52,
      "hit": false,
      "t": 46470.56500000001,
      "d": 504.90170833333104,
      "v": 91
    },
    {
      "midi": 57,
      "hit": false,
      "t": 46470.56500000001,
      "d": 524.5095416666663,
      "v": 88
    },
    {
      "midi": 61,
      "hit": false,
      "t": 46764.68249999998,
      "d": 122.54895833334012,
      "v": 83
    },
    {
      "midi": 57,
      "hit": false,
      "t": 46764.68249999998,
      "d": 166.66658333333908,
      "v": 65
    },
    {
      "midi": 43,
      "hit": false,
      "t": 47058.79999999999,
      "d": 475.48995833333174,
      "v": 82
    },
    {
      "midi": 55,
      "hit": false,
      "t": 47058.79999999999,
      "d": 720.5878749999974,
      "v": 79
    },
    {
      "midi": 57,
      "hit": false,
      "t": 47058.79999999999,
      "d": 754.9015833333324,
      "v": 84
    },
    {
      "midi": 62,
      "hit": false,
      "t": 47058.79999999999,
      "d": 960.7838333333348,
      "v": 79
    },
    {
      "midi": 43,
      "hit": false,
      "t": 47058.80000000001,
      "d": 774.5094166666677,
      "v": 86
    },
    {
      "midi": 43,
      "hit": false,
      "t": 47647.03499999999,
      "d": 450.9801666666681,
      "v": 93
    },
    {
      "midi": 50,
      "hit": false,
      "t": 47647.03500000001,
      "d": 377.45079166666983,
      "v": 116
    },
    {
      "midi": 55,
      "hit": false,
      "t": 47647.03500000001,
      "d": 416.66645833333314,
      "v": 102
    },
    {
      "midi": 57,
      "hit": false,
      "t": 47941.15249999999,
      "d": 63.725458333334245,
      "v": 62
    },
    {
      "midi": 55,
      "hit": false,
      "t": 47941.15249999999,
      "d": 93.13720833333355,
      "v": 62
    },
    {
      "midi": 43,
      "hit": false,
      "t": 47941.15250000001,
      "d": 107.8430833333332,
      "v": 51
    },
    {
      "midi": 50,
      "hit": false,
      "t": 48088.21125000001,
      "d": 58.8234999999986,
      "v": 104
    },
    {
      "midi": 55,
      "hit": false,
      "t": 48088.21125000001,
      "d": 63.725458333334245,
      "v": 73
    },
    {
      "midi": 57,
      "hit": false,
      "t": 48235.26999999999,
      "d": 186.27441666665982,
      "v": 72
    },
    {
      "midi": 61,
      "hit": false,
      "t": 48235.26999999999,
      "d": 348.03904166666325,
      "v": 75
    },
    {
      "midi": 64,
      "hit": false,
      "t": 48235.26999999999,
      "d": 372.5488333333269,
      "v": 81
    },
    {
      "midi": 45,
      "hit": false,
      "t": 48235.26999999999,
      "d": 867.646624999994,
      "v": 97
    },
    {
      "midi": 45,
      "hit": false,
      "t": 48235.27000000001,
      "d": 83.33329166666954,
      "v": 82
    },
    {
      "midi": 57,
      "hit": false,
      "t": 48529.38749999998,
      "d": 83.33329166666954,
      "v": 72
    },
    {
      "midi": 45,
      "hit": false,
      "t": 48529.38750000001,
      "d": 681.3722083333341,
      "v": 81
    },
    {
      "midi": 59,
      "hit": false,
      "t": 48676.446249999986,
      "d": 377.45079166666255,
      "v": 81
    },
    {
      "midi": 64,
      "hit": false,
      "t": 48676.446249999986,
      "d": 377.45079166666255,
      "v": 81
    },
    {
      "midi": 52,
      "hit": false,
      "t": 48823.50500000001,
      "d": 509.8036666666667,
      "v": 86
    },
    {
      "midi": 57,
      "hit": false,
      "t": 48823.50500000001,
      "d": 514.7056250000023,
      "v": 91
    },
    {
      "midi": 64,
      "hit": false,
      "t": 49117.62249999998,
      "d": 78.4313333333339,
      "v": 63
    },
    {
      "midi": 61,
      "hit": false,
      "t": 49117.62249999998,
      "d": 83.33329166666954,
      "v": 83
    },
    {
      "midi": 57,
      "hit": false,
      "t": 49411.73999999998,
      "d": 196.0783333333311,
      "v": 58
    },
    {
      "midi": 50,
      "hit": false,
      "t": 49411.73999999998,
      "d": 485.293875000003,
      "v": 114
    },
    {
      "midi": 66,
      "hit": false,
      "t": 49411.73999999998,
      "d": 808.8231250000026,
      "v": 89
    },
    {
      "midi": 62,
      "hit": false,
      "t": 49411.73999999998,
      "d": 833.3329166666663,
      "v": 91
    },
    {
      "midi": 50,
      "hit": false,
      "t": 49411.74000000001,
      "d": 710.7839583333334,
      "v": 115
    },
    {
      "midi": 57,
      "hit": false,
      "t": 49705.857499999984,
      "d": 514.7056250000023,
      "v": 63
    },
    {
      "midi": 50,
      "hit": false,
      "t": 49999.974999999984,
      "d": 313.7253333333356,
      "v": 114
    },
    {
      "midi": 57,
      "hit": false,
      "t": 49999.97500000001,
      "d": 362.7449166666629,
      "v": 88
    },
    {
      "midi": 62,
      "hit": false,
      "t": 49999.97500000001,
      "d": 377.45079166666255,
      "v": 91
    },
    {
      "midi": 64,
      "hit": false,
      "t": 50294.092499999984,
      "d": 151.96070833333943,
      "v": 64
    },
    {
      "midi": 50,
      "hit": false,
      "t": 50294.09250000001,
      "d": 58.8234999999986,
      "v": 74
    },
    {
      "midi": 66,
      "hit": false,
      "t": 50441.15124999999,
      "d": 39.215666666670586,
      "v": 78
    },
    {
      "midi": 57,
      "hit": false,
      "t": 50441.15124999999,
      "d": 117.64700000000448,
      "v": 18
    },
    {
      "midi": 62,
      "hit": false,
      "t": 50441.15125000001,
      "d": 88.2352499999979,
      "v": 88
    },
    {
      "midi": 57,
      "hit": false,
      "t": 50441.15125000001,
      "d": 102.94112499999756,
      "v": 80
    },
    {
      "midi": 57,
      "hit": false,
      "t": 50588.20999999999,
      "d": 210.78420833333075,
      "v": 58
    },
    {
      "midi": 61,
      "hit": false,
      "t": 50588.20999999999,
      "d": 289.21554166666465,
      "v": 81
    },
    {
      "midi": 45,
      "hit": false,
      "t": 50588.20999999999,
      "d": 563.7252083333369,
      "v": 77
    },
    {
      "midi": 64,
      "hit": false,
      "t": 50588.20999999999,
      "d": 916.6662083333358,
      "v": 81
    },
    {
      "midi": 45,
      "hit": false,
      "t": 50588.21000000001,
      "d": 78.4313333333339,
      "v": 60
    },
    {
      "midi": 57,
      "hit": false,
      "t": 50882.32749999999,
      "d": 112.74504166666884,
      "v": 69
    },
    {
      "midi": 45,
      "hit": false,
      "t": 50882.32750000001,
      "d": 578.4310833333366,
      "v": 88
    },
    {
      "midi": 61,
      "hit": false,
      "t": 51029.386249999996,
      "d": 274.509666666665,
      "v": 104
    },
    {
      "midi": 57,
      "hit": false,
      "t": 51029.386249999996,
      "d": 529.411500000002,
      "v": 40
    },
    {
      "midi": 45,
      "hit": false,
      "t": 51176.44499999999,
      "d": 279.41162500000064,
      "v": 75
    },
    {
      "midi": 57,
      "hit": false,
      "t": 51176.44500000001,
      "d": 264.705750000001,
      "v": 81
    },
    {
      "midi": 52,
      "hit": false,
      "t": 51176.44500000001,
      "d": 269.60770833333663,
      "v": 86
    },
    {
      "midi": 73,
      "hit": false,
      "t": 51176.44500000001,
      "d": 343.1370833333349,
      "v": 116
    },
    {
      "midi": 69,
      "hit": false,
      "t": 51176.44500000001,
      "d": 352.9409999999989,
      "v": 108
    },
    {
      "midi": 61,
      "hit": false,
      "t": 51470.56249999999,
      "d": 249.99987500000861,
      "v": 83
    },
    {
      "midi": 59,
      "hit": false,
      "t": 51764.68,
      "d": 269.60770833333663,
      "v": 97
    },
    {
      "midi": 55,
      "hit": false,
      "t": 51764.68,
      "d": 362.7449166666702,
      "v": 87
    },
    {
      "midi": 64,
      "hit": false,
      "t": 51764.68,
      "d": 387.25470833333384,
      "v": 90
    },
    {
      "midi": 40,
      "hit": false,
      "t": 51764.68,
      "d": 426.47037499999715,
      "v": 99
    },
    {
      "midi": 47,
      "hit": false,
      "t": 51764.68000000001,
      "d": 382.3527499999982,
      "v": 97
    },
    {
      "midi": 52,
      "hit": false,
      "t": 51764.68000000001,
      "d": 406.86254166666185,
      "v": 102
    },
    {
      "midi": 40,
      "hit": false,
      "t": 51764.68000000001,
      "d": 446.07820833332516,
      "v": 88
    },
    {
      "midi": 57,
      "hit": false,
      "t": 52352.915,
      "d": 220.58812500000204,
      "v": 97
    },
    {
      "midi": 54,
      "hit": false,
      "t": 52352.915,
      "d": 269.60770833333663,
      "v": 101
    },
    {
      "midi": 62,
      "hit": false,
      "t": 52352.915,
      "d": 294.1175000000003,
      "v": 108
    },
    {
      "midi": 42,
      "hit": false,
      "t": 52352.915,
      "d": 470.5880000000034,
      "v": 114
    },
    {
      "midi": 50,
      "hit": false,
      "t": 52352.915,
      "d": 553.9212916666656,
      "v": 116
    },
    {
      "midi": 42,
      "hit": false,
      "t": 52352.915,
      "d": 558.8232500000013,
      "v": 109
    },
    {
      "midi": 54,
      "hit": false,
      "t": 52352.915,
      "d": 568.6271666666653,
      "v": 103
    },
    {
      "midi": 62,
      "hit": false,
      "t": 52941.15,
      "d": 299.01945833332866,
      "v": 100
    },
    {
      "midi": 59,
      "hit": false,
      "t": 52941.15,
      "d": 303.9214166666643,
      "v": 88
    },
    {
      "midi": 67,
      "hit": false,
      "t": 52941.15,
      "d": 323.5292499999996,
      "v": 99
    },
    {
      "midi": 55,
      "hit": false,
      "t": 52941.15,
      "d": 367.64687499999854,
      "v": 75
    },
    {
      "midi": 43,
      "hit": false,
      "t": 52941.15,
      "d": 450.9801666666681,
      "v": 90
    },
    {
      "midi": 50,
      "hit": false,
      "t": 52941.15,
      "d": 475.48995833333174,
      "v": 116
    },
    {
      "midi": 55,
      "hit": false,
      "t": 52941.15,
      "d": 475.48995833333174,
      "v": 102
    },
    {
      "midi": 43,
      "hit": false,
      "t": 52941.15,
      "d": 485.29387499999575,
      "v": 97
    },
    {
      "midi": 45,
      "hit": false,
      "t": 53529.384999999995,
      "d": 426.47037499999715,
      "v": 104
    },
    {
      "midi": 52,
      "hit": false,
      "t": 53529.384999999995,
      "d": 549.01933333333,
      "v": 97
    },
    {
      "midi": 57,
      "hit": false,
      "t": 53529.384999999995,
      "d": 568.6271666666653,
      "v": 96
    },
    {
      "midi": 61,
      "hit": false,
      "t": 53529.385,
      "d": 367.64687499999854,
      "v": 96
    },
    {
      "midi": 69,
      "hit": false,
      "t": 53529.385,
      "d": 397.05862499999785,
      "v": 95
    },
    {
      "midi": 45,
      "hit": false,
      "t": 53529.385,
      "d": 416.66645833333314,
      "v": 109
    },
    {
      "midi": 64,
      "hit": false,
      "t": 53529.385,
      "d": 421.5684166666688,
      "v": 93
    },
    {
      "midi": 57,
      "hit": false,
      "t": 53529.385,
      "d": 480.3919166666674,
      "v": 90
    },
    {
      "midi": 50,
      "hit": false,
      "t": 54117.619999999995,
      "d": 666.6663333333345,
      "v": 116
    },
    {
      "midi": 57,
      "hit": false,
      "t": 54117.62,
      "d": 279.41162500000064,
      "v": 72
    },
    {
      "midi": 50,
      "hit": false,
      "t": 54117.62,
      "d": 470.5880000000034,
      "v": 114
    },
    {
      "midi": 64,
      "hit": false,
      "t": 54117.62,
      "d": 745.0976666666611,
      "v": 82
    },
    {
      "midi": 62,
      "hit": false,
      "t": 54117.62,
      "d": 799.0192083333313,
      "v": 88
    },
    {
      "midi": 66,
      "hit": false,
      "t": 54117.62,
      "d": 813.725083333331,
      "v": 83
    },
    {
      "midi": 57,
      "hit": false,
      "t": 54411.7375,
      "d": 441.1762499999968,
      "v": 69
    },
    {
      "midi": 57,
      "hit": false,
      "t": 54705.854999999996,
      "d": 352.9409999999989,
      "v": 80
    },
    {
      "midi": 62,
      "hit": false,
      "t": 54705.854999999996,
      "d": 372.5488333333342,
      "v": 80
    },
    {
      "midi": 52,
      "hit": false,
      "t": 54705.855,
      "d": 137.2548333333325,
      "v": 81
    },
    {
      "midi": 50,
      "hit": false,
      "t": 54705.855,
      "d": 352.9409999999989,
      "v": 102
    },
    {
      "midi": 50,
      "hit": false,
      "t": 54999.972499999996,
      "d": 78.4313333333339,
      "v": 88
    },
    {
      "midi": 64,
      "hit": false,
      "t": 54999.9725,
      "d": 147.0587499999965,
      "v": 69
    },
    {
      "midi": 57,
      "hit": false,
      "t": 54999.9725,
      "d": 210.78420833333075,
      "v": 45
    },
    {
      "midi": 66,
      "hit": false,
      "t": 55147.03125,
      "d": 63.725458333334245,
      "v": 78
    },
    {
      "midi": 62,
      "hit": false,
      "t": 55147.03125,
      "d": 102.94112499999756,
      "v": 91
    },
    {
      "midi": 57,
      "hit": false,
      "t": 55147.03125,
      "d": 107.8430833333332,
      "v": 82
    },
    {
      "midi": 45,
      "hit": false,
      "t": 55294.09,
      "d": 49.019583333334594,
      "v": 68
    },
    {
      "midi": 57,
      "hit": false,
      "t": 55294.090000000004,
      "d": 137.2548333333325,
      "v": 54
    },
    {
      "midi": 61,
      "hit": false,
      "t": 55294.090000000004,
      "d": 269.60770833332936,
      "v": 80
    },
    {
      "midi": 64,
      "hit": false,
      "t": 55294.090000000004,
      "d": 990.1955833333341,
      "v": 90
    },
    {
      "midi": 45,
      "hit": false,
      "t": 55294.090000000004,
      "d": 1029.4112500000047,
      "v": 81
    },
    {
      "midi": 57,
      "hit": false,
      "t": 55588.2075,
      "d": 63.725458333334245,
      "v": 61
    },
    {
      "midi": 45,
      "hit": false,
      "t": 55588.2075,
      "d": 485.293875000003,
      "v": 79
    },
    {
      "midi": 61,
      "hit": false,
      "t": 55735.26625,
      "d": 328.43120833333523,
      "v": 93
    },
    {
      "midi": 57,
      "hit": false,
      "t": 55735.26625,
      "d": 583.3330416666722,
      "v": 66
    },
    {
      "midi": 52,
      "hit": false,
      "t": 55882.325,
      "d": 519.607583333338,
      "v": 96
    },
    {
      "midi": 57,
      "hit": false,
      "t": 55882.325,
      "d": 529.411500000002,
      "v": 98
    },
    {
      "midi": 45,
      "hit": false,
      "t": 56176.4425,
      "d": 53.92154166667024,
      "v": 73
    },
    {
      "midi": 61,
      "hit": false,
      "t": 56176.442500000005,
      "d": 142.15679166666814,
      "v": 85
    },
    {
      "midi": 43,
      "hit": false,
      "t": 56470.56,
      "d": 740.1957083333327,
      "v": 82
    },
    {
      "midi": 45,
      "hit": false,
      "t": 56470.560000000005,
      "d": 107.8430833333332,
      "v": 56
    },
    {
      "midi": 43,
      "hit": false,
      "t": 56470.560000000005,
      "d": 480.3919166666674,
      "v": 58
    },
    {
      "midi": 57,
      "hit": false,
      "t": 56470.560000000005,
      "d": 764.7055000000037,
      "v": 87
    },
    {
      "midi": 55,
      "hit": false,
      "t": 56470.560000000005,
      "d": 769.6074583333393,
      "v": 72
    },
    {
      "midi": 62,
      "hit": false,
      "t": 56470.560000000005,
      "d": 1024.509291666669,
      "v": 97
    },
    {
      "midi": 50,
      "hit": false,
      "t": 57058.795,
      "d": 362.7449166666702,
      "v": 116
    },
    {
      "midi": 55,
      "hit": false,
      "t": 57058.795,
      "d": 392.1566666666695,
      "v": 98
    },
    {
      "midi": 43,
      "hit": false,
      "t": 57058.795000000006,
      "d": 436.27429166666843,
      "v": 87
    },
    {
      "midi": 43,
      "hit": false,
      "t": 57352.9125,
      "d": 102.94112500000483,
      "v": 64
    },
    {
      "midi": 55,
      "hit": false,
      "t": 57352.91250000001,
      "d": 73.52937499999825,
      "v": 59
    },
    {
      "midi": 57,
      "hit": false,
      "t": 57352.91250000001,
      "d": 132.35287499999686,
      "v": 79
    },
    {
      "midi": 50,
      "hit": false,
      "t": 57499.97125,
      "d": 83.33329166666954,
      "v": 104
    },
    {
      "midi": 55,
      "hit": false,
      "t": 57499.97125,
      "d": 102.94112500000483,
      "v": 73
    },
    {
      "midi": 57,
      "hit": false,
      "t": 57647.030000000006,
      "d": 200.98029166666674,
      "v": 72
    },
    {
      "midi": 61,
      "hit": false,
      "t": 57647.030000000006,
      "d": 357.84295833333454,
      "v": 66
    },
    {
      "midi": 64,
      "hit": false,
      "t": 57647.030000000006,
      "d": 367.64687499999854,
      "v": 72
    },
    {
      "midi": 45,
      "hit": false,
      "t": 57647.030000000006,
      "d": 553.9212916666656,
      "v": 91
    },
    {
      "midi": 45,
      "hit": false,
      "t": 57647.030000000006,
      "d": 68.62741666666989,
      "v": 76
    },
    {
      "midi": 57,
      "hit": false,
      "t": 57941.14750000001,
      "d": 98.03916666666191,
      "v": 65
    },
    {
      "midi": 45,
      "hit": false,
      "t": 57941.14750000001,
      "d": 514.7056250000023,
      "v": 80
    },
    {
      "midi": 64,
      "hit": false,
      "t": 58088.20625,
      "d": 367.6468750000058,
      "v": 82
    },
    {
      "midi": 59,
      "hit": false,
      "t": 58088.20625,
      "d": 387.2547083333411,
      "v": 87
    },
    {
      "midi": 45,
      "hit": false,
      "t": 58235.26500000001,
      "d": 313.72533333334286,
      "v": 72
    },
    {
      "midi": 57,
      "hit": false,
      "t": 58235.26500000001,
      "d": 269.60770833333663,
      "v": 88
    },
    {
      "midi": 52,
      "hit": false,
      "t": 58235.26500000001,
      "d": 284.3135833333363,
      "v": 82
    },
    {
      "midi": 61,
      "hit": false,
      "t": 58529.382500000014,
      "d": 245.0979166666657,
      "v": 76
    },
    {
      "midi": 47,
      "hit": false,
      "t": 58823.50000000001,
      "d": 446.07820833333244,
      "v": 88
    },
    {
      "midi": 40,
      "hit": false,
      "t": 58823.50000000001,
      "d": 455.88212499999645,
      "v": 98
    },
    {
      "midi": 52,
      "hit": false,
      "t": 58823.50000000001,
      "d": 475.48995833333174,
      "v": 82
    },
    {
      "midi": 59,
      "hit": false,
      "t": 58823.500000000015,
      "d": 254.9018333333297,
      "v": 90
    },
    {
      "midi": 55,
      "hit": false,
      "t": 58823.500000000015,
      "d": 387.25470833332656,
      "v": 84
    },
    {
      "midi": 40,
      "hit": false,
      "t": 58823.500000000015,
      "d": 450.9801666666608,
      "v": 102
    },
    {
      "midi": 64,
      "hit": false,
      "t": 58823.500000000015,
      "d": 514.705624999995,
      "v": 90
    },
    {
      "midi": 57,
      "hit": false,
      "t": 59411.73500000001,
      "d": 220.58812500000204,
      "v": 88
    },
    {
      "midi": 54,
      "hit": false,
      "t": 59411.73500000001,
      "d": 274.5096666666723,
      "v": 89
    },
    {
      "midi": 62,
      "hit": false,
      "t": 59411.73500000001,
      "d": 431.37233333334007,
      "v": 91
    },
    {
      "midi": 42,
      "hit": false,
      "t": 59411.73500000001,
      "d": 446.0782083333397,
      "v": 110
    },
    {
      "midi": 42,
      "hit": false,
      "t": 59411.73500000001,
      "d": 465.68604166666773,
      "v": 97
    },
    {
      "midi": 50,
      "hit": false,
      "t": 59411.73500000001,
      "d": 490.1958333333314,
      "v": 116
    },
    {
      "midi": 54,
      "hit": false,
      "t": 59411.73500000001,
      "d": 519.6075833333307,
      "v": 103
    },
    {
      "midi": 50,
      "hit": false,
      "t": 59999.97000000001,
      "d": 392.1566666666695,
      "v": 116
    },
    {
      "midi": 43,
      "hit": false,
      "t": 59999.97000000001,
      "d": 397.0586250000051,
      "v": 93
    },
    {
      "midi": 55,
      "hit": false,
      "t": 59999.97000000001,
      "d": 406.86254166666913,
      "v": 108
    },
    {
      "midi": 59,
      "hit": false,
      "t": 59999.970000000016,
      "d": 318.62729166666395,
      "v": 97
    },
    {
      "midi": 55,
      "hit": false,
      "t": 59999.970000000016,
      "d": 323.5292499999996,
      "v": 95
    },
    {
      "midi": 62,
      "hit": false,
      "t": 59999.970000000016,
      "d": 328.43120833333523,
      "v": 100
    },
    {
      "midi": 43,
      "hit": false,
      "t": 59999.970000000016,
      "d": 436.27429166666843,
      "v": 100
    },
    {
      "midi": 47,
      "hit": false,
      "t": 60588.20500000001,
      "d": 499.9997500000027,
      "v": 96
    },
    {
      "midi": 59,
      "hit": false,
      "t": 60588.20500000001,
      "d": 499.9997500000027,
      "v": 87
    },
    {
      "midi": 54,
      "hit": false,
      "t": 60588.20500000001,
      "d": 509.8036666666667,
      "v": 84
    },
    {
      "midi": 48,
      "hit": false,
      "t": 60588.205000000016,
      "d": 68.62741666666989,
      "v": 95
    },
    {
      "midi": 47,
      "hit": false,
      "t": 60588.205000000016,
      "d": 78.4313333333339,
      "v": 95
    },
    {
      "midi": 62,
      "hit": false,
      "t": 60588.205000000016,
      "d": 333.3331666666636,
      "v": 99
    },
    {
      "midi": 59,
      "hit": false,
      "t": 60588.205000000016,
      "d": 416.66645833333314,
      "v": 91
    },
    {
      "midi": 66,
      "hit": false,
      "t": 60588.205000000016,
      "d": 499.9997500000027,
      "v": 110
    },
    {
      "midi": 52,
      "hit": false,
      "t": 61176.44000000001,
      "d": 480.3919166666601,
      "v": 115
    },
    {
      "midi": 57,
      "hit": false,
      "t": 61176.44000000001,
      "d": 794.1172499999957,
      "v": 103
    },
    {
      "midi": 57,
      "hit": false,
      "t": 61176.44000000002,
      "d": 171.56854166666017,
      "v": 100
    },
    {
      "midi": 69,
      "hit": false,
      "t": 61176.44000000002,
      "d": 475.48995833332447,
      "v": 108
    },
    {
      "midi": 61,
      "hit": false,
      "t": 61176.44000000002,
      "d": 495.09779166665976,
      "v": 107
    },
    {
      "midi": 64,
      "hit": false,
      "t": 61176.44000000002,
      "d": 524.5095416666591,
      "v": 99
    },
    {
      "midi": 45,
      "hit": false,
      "t": 61176.44000000002,
      "d": 789.21529166666,
      "v": 102
    },
    {
      "midi": 45,
      "hit": false,
      "t": 61323.498750000006,
      "d": 696.0780833333338,
      "v": 88
    },
    {
      "midi": 57,
      "hit": false,
      "t": 61470.55750000001,
      "d": 225.4900833333304,
      "v": 65
    },
    {
      "midi": 52,
      "hit": false,
      "t": 61764.675,
      "d": 249.99987500000134,
      "v": 88
    },
    {
      "midi": 57,
      "hit": false,
      "t": 61764.67500000001,
      "d": 205.8822500000024,
      "v": 102
    },
    {
      "midi": 64,
      "hit": false,
      "t": 61764.67500000001,
      "d": 225.49008333333768,
      "v": 93
    },
    {
      "midi": 61,
      "hit": false,
      "t": 61764.67500000001,
      "d": 235.2940000000017,
      "v": 101
    },
    {
      "midi": 69,
      "hit": false,
      "t": 61764.67500000001,
      "d": 264.705750000001,
      "v": 84
    },
    {
      "midi": 45,
      "hit": false,
      "t": 62058.7925,
      "d": 181.37245833333145,
      "v": 79
    },
    {
      "midi": 45,
      "hit": false,
      "t": 62058.79250000001,
      "d": 117.6469999999972,
      "v": 70
    },
    {
      "midi": 47,
      "hit": false,
      "t": 62352.91,
      "d": 230.39204166666605,
      "v": 96
    },
    {
      "midi": 54,
      "hit": false,
      "t": 62352.91,
      "d": 367.64687499999854,
      "v": 105
    },
    {
      "midi": 59,
      "hit": false,
      "t": 62352.91,
      "d": 1083.3327916666603,
      "v": 104
    },
    {
      "midi": 47,
      "hit": false,
      "t": 62352.91000000001,
      "d": 191.17637500000274,
      "v": 114
    },
    {
      "midi": 59,
      "hit": false,
      "t": 62352.91000000001,
      "d": 235.2940000000017,
      "v": 95
    },
    {
      "midi": 63,
      "hit": false,
      "t": 62352.91000000001,
      "d": 348.0390416666705,
      "v": 107
    },
    {
      "midi": 66,
      "hit": false,
      "t": 62352.91000000001,
      "d": 357.84295833333454,
      "v": 107
    },
    {
      "midi": 71,
      "hit": false,
      "t": 62352.91000000001,
      "d": 367.64687499999854,
      "v": 93
    },
    {
      "midi": 47,
      "hit": false,
      "t": 62647.027500000004,
      "d": 176.4704999999958,
      "v": 82
    },
    {
      "midi": 47,
      "hit": false,
      "t": 62647.02750000001,
      "d": 117.6469999999972,
      "v": 72
    },
    {
      "midi": 54,
      "hit": false,
      "t": 62794.08625,
      "d": 328.43120833332796,
      "v": 87
    },
    {
      "midi": 63,
      "hit": false,
      "t": 62794.08625000001,
      "d": 441.1762499999968,
      "v": 87
    },
    {
      "midi": 66,
      "hit": false,
      "t": 62794.08625000001,
      "d": 499.9997499999954,
      "v": 87
    },
    {
      "midi": 71,
      "hit": false,
      "t": 62794.08625000001,
      "d": 602.940874999993,
      "v": 79
    },
    {
      "midi": 47,
      "hit": false,
      "t": 62941.145,
      "d": 519.607583333338,
      "v": 97
    },
    {
      "midi": 47,
      "hit": false,
      "t": 62941.145000000004,
      "d": 352.9409999999989,
      "v": 114
    },
    {
      "midi": 54,
      "hit": false,
      "t": 63235.2625,
      "d": 220.58812500000204,
      "v": 88
    },
    {
      "midi": 59,
      "hit": false,
      "t": 63235.262500000004,
      "d": 176.4704999999958,
      "v": 88
    },
    {
      "midi": 52,
      "hit": false,
      "t": 63529.38,
      "d": 480.3919166666674,
      "v": 114
    },
    {
      "midi": 68,
      "hit": false,
      "t": 63529.38,
      "d": 617.6467499999999,
      "v": 110
    },
    {
      "midi": 64,
      "hit": false,
      "t": 63529.38,
      "d": 627.4506666666639,
      "v": 100
    },
    {
      "midi": 59,
      "hit": false,
      "t": 63529.38,
      "d": 656.8624166666632,
      "v": 84
    },
    {
      "midi": 40,
      "hit": false,
      "t": 63529.380000000005,
      "d": 764.7055000000037,
      "v": 111
    },
    {
      "midi": 52,
      "hit": false,
      "t": 64117.615,
      "d": 372.5488333333269,
      "v": 114
    },
    {
      "midi": 47,
      "hit": false,
      "t": 64117.615000000005,
      "d": 117.64700000000448,
      "v": 97
    },
    {
      "midi": 52,
      "hit": false,
      "t": 64117.615000000005,
      "d": 137.25483333333977,
      "v": 102
    },
    {
      "midi": 59,
      "hit": false,
      "t": 64151.92870833334,
      "d": 63.725458333334245,
      "v": 73
    },
    {
      "midi": 66,
      "hit": false,
      "t": 64411.73249999999,
      "d": 166.66658333333908,
      "v": 87
    },
    {
      "midi": 59,
      "hit": false,
      "t": 64411.73249999999,
      "d": 225.49008333333768,
      "v": 64
    },
    {
      "midi": 71,
      "hit": false,
      "t": 64411.73249999999,
      "d": 249.99987500000134,
      "v": 77
    },
    {
      "midi": 40,
      "hit": false,
      "t": 64411.732500000006,
      "d": 63.725458333334245,
      "v": 74
    },
    {
      "midi": 64,
      "hit": false,
      "t": 64411.732500000006,
      "d": 102.94112499999756,
      "v": 82
    },
    {
      "midi": 68,
      "hit": false,
      "t": 64558.791249999995,
      "d": 107.8430833333332,
      "v": 87
    },
    {
      "midi": 68,
      "hit": false,
      "t": 64705.84999999999,
      "d": 39.21566666666331,
      "v": 65
    },
    {
      "midi": 59,
      "hit": false,
      "t": 64705.84999999999,
      "d": 225.4900833333304,
      "v": 54
    },
    {
      "midi": 63,
      "hit": false,
      "t": 64705.84999999999,
      "d": 333.3331666666636,
      "v": 101
    },
    {
      "midi": 47,
      "hit": false,
      "t": 64705.84999999999,
      "d": 637.2545833333279,
      "v": 112
    },
    {
      "midi": 66,
      "hit": false,
      "t": 64705.84999999999,
      "d": 936.2740416666638,
      "v": 110
    },
    {
      "midi": 47,
      "hit": false,
      "t": 64705.850000000006,
      "d": 1068.6269166666607,
      "v": 81
    },
    {
      "midi": 66,
      "hit": false,
      "t": 64710.75195833334,
      "d": 2367.6458749999656,
      "v": 102
    },
    {
      "midi": 59,
      "hit": false,
      "t": 64999.96749999999,
      "d": 499.9997499999881,
      "v": 74
    },
    {
      "midi": 63,
      "hit": false,
      "t": 65147.02624999999,
      "d": 343.1370833333276,
      "v": 110
    },
    {
      "midi": 54,
      "hit": false,
      "t": 65294.08500000001,
      "d": 544.1173749999871,
      "v": 72
    },
    {
      "midi": 59,
      "hit": false,
      "t": 65294.08500000001,
      "d": 558.8232499999867,
      "v": 80
    },
    {
      "midi": 47,
      "hit": false,
      "t": 65588.20249999998,
      "d": 53.92154166667024,
      "v": 88
    },
    {
      "midi": 63,
      "hit": false,
      "t": 65588.20249999998,
      "d": 68.62741666666989,
      "v": 71
    },
    {
      "midi": 59,
      "hit": false,
      "t": 65588.20249999998,
      "d": 132.35287499999686,
      "v": 85
    },
    {
      "midi": 49,
      "hit": false,
      "t": 65882.31999999998,
      "d": 455.8821249999892,
      "v": 99
    },
    {
      "midi": 61,
      "hit": false,
      "t": 65882.31999999998,
      "d": 833.3329166666663,
      "v": 101
    },
    {
      "midi": 64,
      "hit": false,
      "t": 65882.31999999998,
      "d": 936.2740416666638,
      "v": 95
    },
    {
      "midi": 56,
      "hit": false,
      "t": 66176.43749999997,
      "d": 431.3723333333328,
      "v": 52
    },
    {
      "midi": 49,
      "hit": false,
      "t": 66470.55499999996,
      "d": 308.8233750000072,
      "v": 114
    },
    {
      "midi": 61,
      "hit": false,
      "t": 66470.555,
      "d": 529.4114999999874,
      "v": 73
    },
    {
      "midi": 56,
      "hit": false,
      "t": 66470.555,
      "d": 534.3134583333158,
      "v": 67
    },
    {
      "midi": 56,
      "hit": false,
      "t": 66764.67249999997,
      "d": 44.11762499999895,
      "v": 54
    },
    {
      "midi": 49,
      "hit": false,
      "t": 66764.67249999999,
      "d": 93.13720833332627,
      "v": 66
    },
    {
      "midi": 57,
      "hit": false,
      "t": 67058.78999999998,
      "d": 196.07833333332383,
      "v": 76
    },
    {
      "midi": 59,
      "hit": false,
      "t": 67058.78999999998,
      "d": 352.9409999999916,
      "v": 81
    },
    {
      "midi": 61,
      "hit": false,
      "t": 67058.78999999998,
      "d": 382.3527499999909,
      "v": 83
    },
    {
      "midi": 64,
      "hit": false,
      "t": 67058.78999999998,
      "d": 392.15666666664765,
      "v": 76
    },
    {
      "midi": 45,
      "hit": false,
      "t": 67058.78999999998,
      "d": 436.2742916666466,
      "v": 100
    },
    {
      "midi": 45,
      "hit": false,
      "t": 67058.78999999998,
      "d": 1034.3132083333476,
      "v": 79
    },
    {
      "midi": 57,
      "hit": false,
      "t": 67083.29979166664,
      "d": 308.8233750000072,
      "v": 74
    },
    {
      "midi": 57,
      "hit": false,
      "t": 67352.90749999997,
      "d": 93.13720833332627,
      "v": 72
    },
    {
      "midi": 57,
      "hit": false,
      "t": 67499.96624999995,
      "d": 323.5292499999923,
      "v": 74
    },
    {
      "midi": 64,
      "hit": false,
      "t": 67499.96624999995,
      "d": 455.8821249999892,
      "v": 91
    },
    {
      "midi": 59,
      "hit": false,
      "t": 67499.96624999995,
      "d": 470.5879999999888,
      "v": 95
    },
    {
      "midi": 45,
      "hit": false,
      "t": 67647.02499999995,
      "d": 348.03904166666325,
      "v": 102
    },
    {
      "midi": 52,
      "hit": false,
      "t": 67647.02499999998,
      "d": 499.9997500000027,
      "v": 87
    },
    {
      "midi": 57,
      "hit": false,
      "t": 67647.02499999998,
      "d": 499.9997500000027,
      "v": 102
    },
    {
      "midi": 76,
      "hit": false,
      "t": 67686.24066666665,
      "d": 269.60770833333663,
      "v": 116
    },
    {
      "midi": 71,
      "hit": false,
      "t": 67686.24066666665,
      "d": 279.4116250000079,
      "v": 116
    },
    {
      "midi": 64,
      "hit": false,
      "t": 67686.24066666665,
      "d": 372.5488333333342,
      "v": 96
    },
    {
      "midi": 57,
      "hit": false,
      "t": 67941.14249999994,
      "d": 102.94112499999756,
      "v": 72
    },
    {
      "midi": 62,
      "hit": false,
      "t": 68039.18166666666,
      "d": 58.8234999999986,
      "v": 54
    },
    {
      "midi": 60,
      "hit": false,
      "t": 68083.29929166666,
      "d": 44.11762499999895,
      "v": 66
    },
    {
      "midi": 59,
      "hit": false,
      "t": 68122.51495833333,
      "d": 34.313708333313116,
      "v": 80
    },
    {
      "midi": 57,
      "hit": false,
      "t": 68151.92670833331,
      "d": 24.509791666656383,
      "v": 74
    },
    {
      "midi": 55,
      "hit": false,
      "t": 68176.43649999997,
      "d": 34.31370833332767,
      "v": 73
    },
    {
      "midi": 50,
      "hit": false,
      "t": 68235.25999999994,
      "d": 19.607833333328017,
      "v": 81
    },
    {
      "midi": 59,
      "hit": false,
      "t": 68235.25999999994,
      "d": 303.9214166666643,
      "v": 88
    },
    {
      "midi": 64,
      "hit": false,
      "t": 68235.25999999994,
      "d": 318.62729166666395,
      "v": 93
    },
    {
      "midi": 68,
      "hit": false,
      "t": 68235.25999999994,
      "d": 387.25470833333384,
      "v": 101
    },
    {
      "midi": 52,
      "hit": false,
      "t": 68235.25999999994,
      "d": 480.39191666667466,
      "v": 114
    },
    {
      "midi": 40,
      "hit": false,
      "t": 68235.25999999997,
      "d": 700.9800416666694,
      "v": 61
    },
    {
      "midi": 56,
      "hit": false,
      "t": 68529.37749999993,
      "d": 117.64700000001176,
      "v": 64
    },
    {
      "midi": 52,
      "hit": false,
      "t": 68823.49499999995,
      "d": 333.3331666666636,
      "v": 105
    },
    {
      "midi": 59,
      "hit": false,
      "t": 68823.49499999997,
      "d": 83.33329166666954,
      "v": 68
    },
    {
      "midi": 47,
      "hit": false,
      "t": 68823.49499999997,
      "d": 107.84308333334047,
      "v": 103
    },
    {
      "midi": 52,
      "hit": false,
      "t": 68823.49499999997,
      "d": 107.84308333334047,
      "v": 93
    },
    {
      "midi": 66,
      "hit": false,
      "t": 69117.61249999994,
      "d": 171.568541666682,
      "v": 90
    },
    {
      "midi": 71,
      "hit": false,
      "t": 69117.61249999994,
      "d": 249.99987500000861,
      "v": 63
    },
    {
      "midi": 40,
      "hit": false,
      "t": 69117.61249999997,
      "d": 191.17637499999546,
      "v": 87
    },
    {
      "midi": 64,
      "hit": false,
      "t": 69137.2203333333,
      "d": 142.15679166666814,
      "v": 76
    },
    {
      "midi": 59,
      "hit": false,
      "t": 69264.67124999996,
      "d": 83.33329166666954,
      "v": 8
    },
    {
      "midi": 68,
      "hit": false,
      "t": 69264.67124999996,
      "d": 83.33329166666954,
      "v": 75
    },
    {
      "midi": 68,
      "hit": false,
      "t": 69411.72999999995,
      "d": 29.4117499999993,
      "v": 47
    },
    {
      "midi": 59,
      "hit": false,
      "t": 69411.72999999995,
      "d": 220.58812499999476,
      "v": 65
    },
    {
      "midi": 63,
      "hit": false,
      "t": 69411.72999999995,
      "d": 313.72533333332103,
      "v": 89
    },
    {
      "midi": 66,
      "hit": false,
      "t": 69411.72999999995,
      "d": 367.64687499999127,
      "v": 96
    },
    {
      "midi": 47,
      "hit": false,
      "t": 69411.72999999995,
      "d": 539.2154166666587,
      "v": 108
    },
    {
      "midi": 47,
      "hit": false,
      "t": 69411.72999999997,
      "d": 774.5094166666677,
      "v": 81
    },
    {
      "midi": 66,
      "hit": false,
      "t": 69416.6319583333,
      "d": 1147.0582500000164,
      "v": 90
    },
    {
      "midi": 59,
      "hit": false,
      "t": 69705.84749999995,
      "d": 102.94112499999756,
      "v": 63
    },
    {
      "midi": 59,
      "hit": false,
      "t": 69852.90624999994,
      "d": 308.82337499999267,
      "v": 69
    },
    {
      "midi": 63,
      "hit": false,
      "t": 69852.90624999994,
      "d": 499.9997499999881,
      "v": 96
    },
    {
      "midi": 66,
      "hit": false,
      "t": 69852.90624999994,
      "d": 499.9997499999881,
      "v": 90
    },
    {
      "midi": 47,
      "hit": false,
      "t": 69999.96499999994,
      "d": 132.35287499999686,
      "v": 62
    },
    {
      "midi": 54,
      "hit": false,
      "t": 69999.96499999997,
      "d": 519.6075833333452,
      "v": 64
    },
    {
      "midi": 59,
      "hit": false,
      "t": 69999.96499999997,
      "d": 524.5095416666736,
      "v": 81
    },
    {
      "midi": 47,
      "hit": false,
      "t": 70294.08249999993,
      "d": 78.43133333332662,
      "v": 82
    },
    {
      "midi": 59,
      "hit": false,
      "t": 70294.08249999993,
      "d": 98.03916666665464,
      "v": 81
    },
    {
      "midi": 47,
      "hit": false,
      "t": 70294.08249999997,
      "d": 186.2744166666671,
      "v": 64
    },
    {
      "midi": 45,
      "hit": false,
      "t": 70588.19999999992,
      "d": 499.9997499999881,
      "v": 114
    },
    {
      "midi": 57,
      "hit": false,
      "t": 70588.19999999992,
      "d": 504.9017083333165,
      "v": 100
    },
    {
      "midi": 59,
      "hit": false,
      "t": 70588.19999999992,
      "d": 504.9017083333165,
      "v": 114
    },
    {
      "midi": 64,
      "hit": false,
      "t": 70588.19999999992,
      "d": 534.3134583333158,
      "v": 105
    },
    {
      "midi": 52,
      "hit": false,
      "t": 70588.19999999998,
      "d": 2284.3125833333324,
      "v": 108
    },
    {
      "midi": 45,
      "hit": false,
      "t": 70588.19999999998,
      "d": 2289.214541666661,
      "v": 108
    },
    {
      "midi": 57,
      "hit": false,
      "t": 70598.00391666665,
      "d": 2161.7636249999923,
      "v": 87
    },
    {
      "midi": 64,
      "hit": false,
      "t": 70602.90587499998,
      "d": 2156.861666666664,
      "v": 93
    },
    {
      "midi": 45,
      "hit": false,
      "t": 71176.43499999991,
      "d": 480.3919166666601,
      "v": 102
    },
    {
      "midi": 64,
      "hit": false,
      "t": 71470.5524999999,
      "d": 53.92154166667024,
      "v": 54
    },
    {
      "midi": 69,
      "hit": false,
      "t": 71470.5524999999,
      "d": 98.03916666666919,
      "v": 93
    },
    {
      "midi": 71,
      "hit": false,
      "t": 71617.6112499999,
      "d": 117.6469999999972,
      "v": 77
    },
    {
      "midi": 45,
      "hit": false,
      "t": 71764.6699999999,
      "d": 230.39204166666605,
      "v": 87
    },
    {
      "midi": 64,
      "hit": false,
      "t": 71911.7287499999,
      "d": 73.52937499999825,
      "v": 84
    },
    {
      "midi": 59,
      "hit": false,
      "t": 71911.7287499999,
      "d": 93.13720833334082,
      "v": 75
    },
    {
      "midi": 45,
      "hit": false,
      "t": 72205.8462499999,
      "d": 632.3526249999995,
      "v": 68
    },
    {
      "midi": 64,
      "hit": false,
      "t": 72352.9049999999,
      "d": 460.7840833333321,
      "v": 90
    },
    {
      "midi": 59,
      "hit": false,
      "t": 72352.9049999999,
      "d": 465.68604166666046,
      "v": 102
    },
    {
      "midi": 57,
      "hit": false,
      "t": 72352.9049999999,
      "d": 475.48995833333174,
      "v": 84
    },
    {
      "midi": 60,
      "hit": false,
      "t": 72941.1399999999,
      "d": 946.0779583333351,
      "v": 75
    },
    {
      "midi": 64,
      "hit": false,
      "t": 72941.1399999999,
      "d": 1166.6660833333299,
      "v": 67
    },
    {
      "midi": 55,
      "hit": false,
      "t": 72941.1399999999,
      "d": 2200.9792916666775,
      "v": 61
    },
    {
      "midi": 59,
      "hit": false,
      "t": 74117.6099999999,
      "d": 431.3723333333328,
      "v": 69
    },
    {
      "midi": 62,
      "hit": false,
      "t": 74117.6099999999,
      "d": 1254.9013333333423,
      "v": 76
    },
    {
      "midi": 59,
      "hit": false,
      "t": 74705.8449999999,
      "d": 352.94100000000617,
      "v": 48
    },
    {
      "midi": 55,
      "hit": false,
      "t": 75294.07999999991,
      "d": 960.7838333333202,
      "v": 42
    },
    {
      "midi": 53,
      "hit": false,
      "t": 75294.07999999991,
      "d": 1039.2151666666468,
      "v": 51
    },
    {
      "midi": 60,
      "hit": false,
      "t": 75294.07999999991,
      "d": 1078.4308333333174,
      "v": 58
    },
    {
      "midi": 62,
      "hit": false,
      "t": 76470.5499999999,
      "d": 1049.0190833333327,
      "v": 59
    },
    {
      "midi": 55,
      "hit": false,
      "t": 76470.5499999999,
      "d": 1058.823000000004,
      "v": 63
    },
    {
      "midi": 60,
      "hit": false,
      "t": 77647.0199999999,
      "d": 1039.2151666666614,
      "v": 63
    },
    {
      "midi": 64,
      "hit": false,
      "t": 77647.0199999999,
      "d": 1196.0778333333292,
      "v": 71
    },
    {
      "midi": 55,
      "hit": false,
      "t": 77647.0199999999,
      "d": 2210.7832083333196,
      "v": 42
    },
    {
      "midi": 59,
      "hit": false,
      "t": 78823.4899999999,
      "d": 901.9603333333216,
      "v": 59
    },
    {
      "midi": 62,
      "hit": false,
      "t": 78823.4899999999,
      "d": 1181.371958333315,
      "v": 72
    },
    {
      "midi": 55,
      "hit": false,
      "t": 79999.95999999989,
      "d": 1004.9014583333337,
      "v": 71
    },
    {
      "midi": 53,
      "hit": false,
      "t": 79999.95999999989,
      "d": 1039.2151666666614,
      "v": 65
    },
    {
      "midi": 60,
      "hit": false,
      "t": 79999.95999999989,
      "d": 1098.03866666666,
      "v": 69
    },
    {
      "midi": 59,
      "hit": false,
      "t": 81176.42999999988,
      "d": 745.0976666666684,
      "v": 61
    },
    {
      "midi": 62,
      "hit": false,
      "t": 81176.42999999988,
      "d": 808.8231249999953,
      "v": 63
    },
    {
      "midi": 55,
      "hit": false,
      "t": 81176.42999999988,
      "d": 999.9994999999908,
      "v": 49
    },
    {
      "midi": 67,
      "hit": false,
      "t": 82352.89999999986,
      "d": 887.2544583333365,
      "v": 88
    },
    {
      "midi": 60,
      "hit": false,
      "t": 82352.89999999986,
      "d": 931.3720833333355,
      "v": 90
    },
    {
      "midi": 64,
      "hit": false,
      "t": 82352.89999999986,
      "d": 936.2740416666638,
      "v": 84
    },
    {
      "midi": 55,
      "hit": false,
      "t": 82352.89999999986,
      "d": 1058.823000000004,
      "v": 87
    },
    {
      "midi": 48,
      "hit": false,
      "t": 82352.89999999986,
      "d": 1132.3523750000022,
      "v": 100
    },
    {
      "midi": 55,
      "hit": false,
      "t": 82352.89999999998,
      "d": 549.01933333333,
      "v": 73
    },
    {
      "midi": 60,
      "hit": false,
      "t": 82352.89999999998,
      "d": 617.6467499999853,
      "v": 73
    },
    {
      "midi": 55,
      "hit": false,
      "t": 82941.13499999997,
      "d": 1068.6269166666752,
      "v": 80
    },
    {
      "midi": 60,
      "hit": false,
      "t": 83235.25249999997,
      "d": 862.7446666666656,
      "v": 96
    },
    {
      "midi": 53,
      "hit": false,
      "t": 83529.36999999986,
      "d": 499.9997500000027,
      "v": 64
    },
    {
      "midi": 46,
      "hit": false,
      "t": 83529.36999999986,
      "d": 892.1564166666794,
      "v": 78
    },
    {
      "midi": 58,
      "hit": false,
      "t": 83529.36999999986,
      "d": 892.1564166666794,
      "v": 80
    },
    {
      "midi": 62,
      "hit": false,
      "t": 83529.36999999986,
      "d": 911.7642500000075,
      "v": 81
    },
    {
      "midi": 65,
      "hit": false,
      "t": 83529.36999999986,
      "d": 955.8818750000064,
      "v": 63
    },
    {
      "midi": 53,
      "hit": false,
      "t": 84117.60499999986,
      "d": 254.90183333333698,
      "v": 55
    },
    {
      "midi": 53,
      "hit": false,
      "t": 84117.60499999997,
      "d": 524.5095416666591,
      "v": 79
    },
    {
      "midi": 53,
      "hit": false,
      "t": 84411.72249999987,
      "d": 191.17637499999546,
      "v": 74
    },
    {
      "midi": 58,
      "hit": false,
      "t": 84411.72249999996,
      "d": 245.0979166666657,
      "v": 67
    },
    {
      "midi": 60,
      "hit": false,
      "t": 84705.83999999987,
      "d": 867.646624999994,
      "v": 90
    },
    {
      "midi": 53,
      "hit": false,
      "t": 84705.83999999987,
      "d": 970.5877499999915,
      "v": 78
    },
    {
      "midi": 55,
      "hit": false,
      "t": 84705.83999999987,
      "d": 975.4897083333199,
      "v": 85
    },
    {
      "midi": 41,
      "hit": false,
      "t": 84705.83999999987,
      "d": 1029.41124999999,
      "v": 77
    },
    {
      "midi": 53,
      "hit": false,
      "t": 84705.83999999995,
      "d": 1127.450416666601,
      "v": 73
    },
    {
      "midi": 57,
      "hit": false,
      "t": 84705.83999999995,
      "d": 1176.4699999999284,
      "v": 88
    },
    {
      "midi": 55,
      "hit": false,
      "t": 85882.30999999985,
      "d": 450.9801666666608,
      "v": 81
    },
    {
      "midi": 57,
      "hit": false,
      "t": 85882.30999999985,
      "d": 509.8036666666594,
      "v": 75
    },
    {
      "midi": 59,
      "hit": false,
      "t": 85882.30999999985,
      "d": 745.0976666666393,
      "v": 74
    },
    {
      "midi": 62,
      "hit": false,
      "t": 85882.30999999985,
      "d": 749.9996249999676,
      "v": 81
    },
    {
      "midi": 43,
      "hit": false,
      "t": 85882.30999999985,
      "d": 779.4113749999669,
      "v": 88
    },
    {
      "midi": 50,
      "hit": false,
      "t": 85882.30999999988,
      "d": 534.3134583333303,
      "v": 108
    },
    {
      "midi": 55,
      "hit": false,
      "t": 85882.30999999988,
      "d": 1014.705375000005,
      "v": 82
    },
    {
      "midi": 50,
      "hit": false,
      "t": 86176.42749999985,
      "d": 372.54883333331964,
      "v": 68
    },
    {
      "midi": 55,
      "hit": false,
      "t": 86470.54499999984,
      "d": 122.54895833332557,
      "v": 93
    },
    {
      "midi": 50,
      "hit": false,
      "t": 86470.54499999988,
      "d": 397.0586250000051,
      "v": 60
    },
    {
      "midi": 43,
      "hit": false,
      "t": 86764.66249999982,
      "d": 34.31370833332767,
      "v": 61
    },
    {
      "midi": 55,
      "hit": false,
      "t": 87058.77999999981,
      "d": 519.6075833333307,
      "v": 91
    },
    {
      "midi": 60,
      "hit": false,
      "t": 87058.77999999981,
      "d": 656.8624166666705,
      "v": 91
    },
    {
      "midi": 62,
      "hit": false,
      "t": 87058.77999999981,
      "d": 931.3720833333355,
      "v": 95
    },
    {
      "midi": 67,
      "hit": false,
      "t": 87058.77999999981,
      "d": 931.3720833333355,
      "v": 85
    },
    {
      "midi": 64,
      "hit": false,
      "t": 87058.77999999981,
      "d": 946.0779583333351,
      "v": 87
    },
    {
      "midi": 48,
      "hit": false,
      "t": 87058.77999999981,
      "d": 1117.6465000000026,
      "v": 87
    },
    {
      "midi": 60,
      "hit": false,
      "t": 87058.77999999988,
      "d": 485.293875000003,
      "v": 88
    },
    {
      "midi": 55,
      "hit": false,
      "t": 87058.77999999988,
      "d": 504.90170833333104,
      "v": 75
    },
    {
      "midi": 55,
      "hit": false,
      "t": 87647.01499999981,
      "d": 372.5488333333342,
      "v": 64
    },
    {
      "midi": 55,
      "hit": false,
      "t": 87647.01499999988,
      "d": 1093.1367083333462,
      "v": 87
    },
    {
      "midi": 60,
      "hit": false,
      "t": 87941.13249999982,
      "d": 117.6469999999972,
      "v": 74
    },
    {
      "midi": 60,
      "hit": false,
      "t": 87941.13249999989,
      "d": 833.3329166666663,
      "v": 104
    },
    {
      "midi": 53,
      "hit": false,
      "t": 88235.24999999981,
      "d": 431.3723333333328,
      "v": 72
    },
    {
      "midi": 46,
      "hit": false,
      "t": 88235.24999999981,
      "d": 901.9603333333216,
      "v": 87
    },
    {
      "midi": 60,
      "hit": false,
      "t": 88235.24999999981,
      "d": 926.4701249999925,
      "v": 77
    },
    {
      "midi": 62,
      "hit": false,
      "t": 88235.24999999981,
      "d": 946.0779583333206,
      "v": 84
    },
    {
      "midi": 58,
      "hit": false,
      "t": 88235.24999999981,
      "d": 950.9799166666489,
      "v": 78
    },
    {
      "midi": 65,
      "hit": false,
      "t": 88235.24999999981,
      "d": 2230.3910416666477,
      "v": 70
    },
    {
      "midi": 53,
      "hit": false,
      "t": 88823.48499999981,
      "d": 264.7057499999937,
      "v": 59
    },
    {
      "midi": 53,
      "hit": false,
      "t": 88823.48499999988,
      "d": 1661.7638750000042,
      "v": 66
    },
    {
      "midi": 53,
      "hit": false,
      "t": 89117.6024999998,
      "d": 240.19595833332278,
      "v": 65
    },
    {
      "midi": 58,
      "hit": false,
      "t": 89117.60249999989,
      "d": 259.80379166666535,
      "v": 91
    },
    {
      "midi": 53,
      "hit": false,
      "t": 89411.7199999998,
      "d": 779.411374999996,
      "v": 79
    },
    {
      "midi": 41,
      "hit": false,
      "t": 89411.7199999998,
      "d": 906.8622916666645,
      "v": 82
    },
    {
      "midi": 57,
      "hit": false,
      "t": 89411.7199999998,
      "d": 965.6857916666631,
      "v": 88
    },
    {
      "midi": 60,
      "hit": false,
      "t": 89411.7199999998,
      "d": 1073.528874999989,
      "v": 87
    },
    {
      "midi": 57,
      "hit": false,
      "t": 89411.71999999988,
      "d": 1122.548458333331,
      "v": 81
    },
    {
      "midi": 53,
      "hit": false,
      "t": 90294.07249999979,
      "d": 191.17637499999546,
      "v": 65
    },
    {
      "midi": 41,
      "hit": false,
      "t": 90441.13124999979,
      "d": 53.92154166667024,
      "v": 91
    },
    {
      "midi": 59,
      "hit": false,
      "t": 90588.18999999978,
      "d": 416.66645833333314,
      "v": 114
    },
    {
      "midi": 43,
      "hit": false,
      "t": 90588.18999999978,
      "d": 436.27429166666116,
      "v": 114
    },
    {
      "midi": 62,
      "hit": false,
      "t": 90588.18999999978,
      "d": 436.27429166666116,
      "v": 114
    },
    {
      "midi": 55,
      "hit": false,
      "t": 90588.18999999978,
      "d": 455.8821249999892,
      "v": 102
    },
    {
      "midi": 50,
      "hit": false,
      "t": 90588.18999999989,
      "d": 573.5291250000009,
      "v": 116
    },
    {
      "midi": 55,
      "hit": false,
      "t": 90588.18999999989,
      "d": 588.2350000000006,
      "v": 98
    },
    {
      "midi": 57,
      "hit": false,
      "t": 91176.42499999977,
      "d": 200.98029166666674,
      "v": 97
    },
    {
      "midi": 64,
      "hit": false,
      "t": 91176.42499999977,
      "d": 274.509666666665,
      "v": 112
    },
    {
      "midi": 61,
      "hit": false,
      "t": 91176.42499999977,
      "d": 303.9214166666643,
      "v": 114
    },
    {
      "midi": 45,
      "hit": false,
      "t": 91176.42499999977,
      "d": 377.45079166666255,
      "v": 114
    },
    {
      "midi": 57,
      "hit": false,
      "t": 91176.42499999989,
      "d": 495.09779166665976,
      "v": 104
    },
    {
      "midi": 52,
      "hit": false,
      "t": 91176.42499999989,
      "d": 499.9997499999881,
      "v": 111
    },
    {
      "midi": 57,
      "hit": false,
      "t": 91470.54249999976,
      "d": 166.66658333333908,
      "v": 63
    },
    {
      "midi": 57,
      "hit": false,
      "t": 91764.65999999977,
      "d": 225.49008333333768,
      "v": 69
    },
    {
      "midi": 62,
      "hit": false,
      "t": 91764.65999999977,
      "d": 455.8821250000037,
      "v": 93
    },
    {
      "midi": 66,
      "hit": false,
      "t": 91764.65999999977,
      "d": 799.0192083333241,
      "v": 99
    },
    {
      "midi": 50,
      "hit": false,
      "t": 91764.65999999977,
      "d": 852.9407499999943,
      "v": 114
    },
    {
      "midi": 50,
      "hit": false,
      "t": 91764.65999999987,
      "d": 774.5094166666677,
      "v": 116
    },
    {
      "midi": 57,
      "hit": false,
      "t": 92058.77749999978,
      "d": 475.4899583333172,
      "v": 63
    },
    {
      "midi": 62,
      "hit": false,
      "t": 92352.89499999977,
      "d": 176.4704999999958,
      "v": 76
    },
    {
      "midi": 57,
      "hit": false,
      "t": 92352.89499999987,
      "d": 387.2547083333484,
      "v": 97
    },
    {
      "midi": 62,
      "hit": false,
      "t": 92352.89499999987,
      "d": 401.96058333334804,
      "v": 110
    },
    {
      "midi": 64,
      "hit": false,
      "t": 92647.01249999976,
      "d": 122.54895833334012,
      "v": 77
    },
    {
      "midi": 57,
      "hit": false,
      "t": 92647.01249999976,
      "d": 490.19583333334594,
      "v": 54
    },
    {
      "midi": 50,
      "hit": false,
      "t": 92647.01249999988,
      "d": 83.33329166666954,
      "v": 93
    },
    {
      "midi": 66,
      "hit": false,
      "t": 92794.07124999978,
      "d": 53.92154166667024,
      "v": 85
    },
    {
      "midi": 62,
      "hit": false,
      "t": 92794.07124999989,
      "d": 68.62741666666989,
      "v": 67
    },
    {
      "midi": 57,
      "hit": false,
      "t": 92794.07124999989,
      "d": 78.43133333334117,
      "v": 75
    },
    {
      "midi": 45,
      "hit": false,
      "t": 92941.12999999977,
      "d": 563.7252083333442,
      "v": 81
    },
    {
      "midi": 64,
      "hit": false,
      "t": 92941.12999999977,
      "d": 950.9799166666926,
      "v": 90
    },
    {
      "midi": 45,
      "hit": false,
      "t": 92941.1299999999,
      "d": 88.2352499999979,
      "v": 68
    },
    {
      "midi": 57,
      "hit": false,
      "t": 93235.24749999978,
      "d": 78.43133333332662,
      "v": 58
    },
    {
      "midi": 45,
      "hit": false,
      "t": 93235.2474999999,
      "d": 681.3722083333269,
      "v": 80
    },
    {
      "midi": 57,
      "hit": false,
      "t": 93382.30624999978,
      "d": 343.13708333334944,
      "v": 65
    },
    {
      "midi": 61,
      "hit": false,
      "t": 93382.30624999978,
      "d": 357.8429583333491,
      "v": 89
    },
    {
      "midi": 45,
      "hit": false,
      "t": 93529.36499999979,
      "d": 455.8821250000183,
      "v": 76
    },
    {
      "midi": 52,
      "hit": false,
      "t": 93529.36499999989,
      "d": 504.90170833333104,
      "v": 91
    },
    {
      "midi": 57,
      "hit": false,
      "t": 93529.36499999989,
      "d": 524.5095416666591,
      "v": 88
    },
    {
      "midi": 61,
      "hit": false,
      "t": 93823.4824999998,
      "d": 122.54895833334012,
      "v": 83
    },
    {
      "midi": 57,
      "hit": false,
      "t": 93823.4824999998,
      "d": 166.66658333333908,
      "v": 65
    },
    {
      "midi": 43,
      "hit": false,
      "t": 94117.5999999998,
      "d": 475.48995833333174,
      "v": 82
    },
    {
      "midi": 55,
      "hit": false,
      "t": 94117.5999999998,
      "d": 720.5878749999974,
      "v": 79
    },
    {
      "midi": 57,
      "hit": false,
      "t": 94117.5999999998,
      "d": 754.9015833333251,
      "v": 84
    },
    {
      "midi": 62,
      "hit": false,
      "t": 94117.5999999998,
      "d": 960.7838333333202,
      "v": 79
    },
    {
      "midi": 43,
      "hit": false,
      "t": 94117.59999999987,
      "d": 774.5094166666677,
      "v": 86
    },
    {
      "midi": 43,
      "hit": false,
      "t": 94705.8349999998,
      "d": 450.98016666664626,
      "v": 93
    },
    {
      "midi": 50,
      "hit": false,
      "t": 94705.83499999988,
      "d": 377.4507916666771,
      "v": 116
    },
    {
      "midi": 55,
      "hit": false,
      "t": 94705.83499999988,
      "d": 416.6664583333477,
      "v": 102
    },
    {
      "midi": 57,
      "hit": false,
      "t": 94999.9524999998,
      "d": 63.72545833332697,
      "v": 62
    },
    {
      "midi": 55,
      "hit": false,
      "t": 94999.9524999998,
      "d": 93.13720833332627,
      "v": 62
    },
    {
      "midi": 43,
      "hit": false,
      "t": 94999.95249999988,
      "d": 107.84308333334047,
      "v": 51
    },
    {
      "midi": 50,
      "hit": false,
      "t": 95147.0112499999,
      "d": 58.8234999999986,
      "v": 104
    },
    {
      "midi": 55,
      "hit": false,
      "t": 95147.0112499999,
      "d": 63.72545833332697,
      "v": 73
    },
    {
      "midi": 57,
      "hit": false,
      "t": 95294.06999999979,
      "d": 186.2744166666671,
      "v": 72
    },
    {
      "midi": 61,
      "hit": false,
      "t": 95294.06999999979,
      "d": 348.0390416666778,
      "v": 75
    },
    {
      "midi": 64,
      "hit": false,
      "t": 95294.06999999979,
      "d": 372.54883333334874,
      "v": 81
    },
    {
      "midi": 45,
      "hit": false,
      "t": 95294.06999999979,
      "d": 867.646624999994,
      "v": 97
    },
    {
      "midi": 45,
      "hit": false,
      "t": 95294.06999999989,
      "d": 83.33329166666954,
      "v": 82
    },
    {
      "midi": 57,
      "hit": false,
      "t": 95588.1874999998,
      "d": 83.33329166666954,
      "v": 72
    },
    {
      "midi": 45,
      "hit": false,
      "t": 95588.1874999999,
      "d": 681.3722083333269,
      "v": 81
    },
    {
      "midi": 59,
      "hit": false,
      "t": 95735.2462499998,
      "d": 377.45079166666255,
      "v": 81
    },
    {
      "midi": 64,
      "hit": false,
      "t": 95735.2462499998,
      "d": 377.45079166666255,
      "v": 81
    },
    {
      "midi": 52,
      "hit": false,
      "t": 95882.30499999989,
      "d": 509.80366666667396,
      "v": 86
    },
    {
      "midi": 57,
      "hit": false,
      "t": 95882.30499999989,
      "d": 514.7056250000023,
      "v": 91
    },
    {
      "midi": 64,
      "hit": false,
      "t": 96176.42249999978,
      "d": 78.43133333332662,
      "v": 63
    },
    {
      "midi": 61,
      "hit": false,
      "t": 96176.42249999978,
      "d": 83.33329166665499,
      "v": 83
    },
    {
      "midi": 57,
      "hit": false,
      "t": 96470.53999999978,
      "d": 196.07833333333838,
      "v": 58
    },
    {
      "midi": 50,
      "hit": false,
      "t": 96470.53999999978,
      "d": 485.293875000003,
      "v": 114
    },
    {
      "midi": 66,
      "hit": false,
      "t": 96470.53999999978,
      "d": 808.8231249999953,
      "v": 89
    },
    {
      "midi": 62,
      "hit": false,
      "t": 96470.53999999978,
      "d": 833.3329166666663,
      "v": 91
    },
    {
      "midi": 50,
      "hit": false,
      "t": 96470.53999999989,
      "d": 710.7839583333407,
      "v": 115
    },
    {
      "midi": 57,
      "hit": false,
      "t": 96764.65749999978,
      "d": 514.7056249999878,
      "v": 63
    },
    {
      "midi": 50,
      "hit": false,
      "t": 97058.77499999978,
      "d": 313.72533333332103,
      "v": 114
    },
    {
      "midi": 57,
      "hit": false,
      "t": 97058.77499999989,
      "d": 362.74491666667745,
      "v": 88
    },
    {
      "midi": 62,
      "hit": false,
      "t": 97058.77499999989,
      "d": 377.4507916666771,
      "v": 91
    },
    {
      "midi": 64,
      "hit": false,
      "t": 97352.89249999977,
      "d": 151.96070833332487,
      "v": 64
    },
    {
      "midi": 50,
      "hit": false,
      "t": 97352.8924999999,
      "d": 58.8234999999986,
      "v": 74
    },
    {
      "midi": 66,
      "hit": false,
      "t": 97499.95124999977,
      "d": 39.215666666656034,
      "v": 78
    },
    {
      "midi": 57,
      "hit": false,
      "t": 97499.95124999977,
      "d": 117.64699999998265,
      "v": 18
    },
    {
      "midi": 62,
      "hit": false,
      "t": 97499.9512499999,
      "d": 88.2352499999979,
      "v": 88
    },
    {
      "midi": 57,
      "hit": false,
      "t": 97499.9512499999,
      "d": 102.94112499999756,
      "v": 80
    },
    {
      "midi": 57,
      "hit": false,
      "t": 97647.00999999975,
      "d": 210.78420833333803,
      "v": 58
    },
    {
      "midi": 61,
      "hit": false,
      "t": 97647.00999999975,
      "d": 289.21554166666465,
      "v": 81
    },
    {
      "midi": 45,
      "hit": false,
      "t": 97647.00999999975,
      "d": 563.7252083333296,
      "v": 77
    },
    {
      "midi": 64,
      "hit": false,
      "t": 97647.00999999975,
      "d": 916.6662083333358,
      "v": 81
    },
    {
      "midi": 45,
      "hit": false,
      "t": 97647.0099999999,
      "d": 78.43133333332662,
      "v": 60
    },
    {
      "midi": 57,
      "hit": false,
      "t": 97941.12749999974,
      "d": 112.74504166666884,
      "v": 69
    },
    {
      "midi": 45,
      "hit": false,
      "t": 97941.12749999989,
      "d": 578.4310833333147,
      "v": 88
    },
    {
      "midi": 61,
      "hit": false,
      "t": 98088.18624999974,
      "d": 274.50966666667955,
      "v": 104
    },
    {
      "midi": 57,
      "hit": false,
      "t": 98088.18624999974,
      "d": 529.4115000000165,
      "v": 40
    },
    {
      "midi": 45,
      "hit": false,
      "t": 98235.24499999975,
      "d": 279.4116250000079,
      "v": 75
    },
    {
      "midi": 57,
      "hit": false,
      "t": 98235.24499999988,
      "d": 264.7057499999937,
      "v": 81
    },
    {
      "midi": 52,
      "hit": false,
      "t": 98235.24499999988,
      "d": 269.6077083333221,
      "v": 86
    },
    {
      "midi": 73,
      "hit": false,
      "t": 98235.24499999988,
      "d": 343.13708333332033,
      "v": 116
    },
    {
      "midi": 69,
      "hit": false,
      "t": 98235.24499999988,
      "d": 352.9409999999916,
      "v": 108
    },
    {
      "midi": 61,
      "hit": false,
      "t": 98529.36249999976,
      "d": 249.99987499999406,
      "v": 83
    },
    {
      "midi": 59,
      "hit": false,
      "t": 98823.47999999975,
      "d": 269.60770833333663,
      "v": 97
    },
    {
      "midi": 55,
      "hit": false,
      "t": 98823.47999999975,
      "d": 362.74491666667745,
      "v": 87
    },
    {
      "midi": 64,
      "hit": false,
      "t": 98823.47999999975,
      "d": 387.2547083333484,
      "v": 90
    },
    {
      "midi": 40,
      "hit": false,
      "t": 98823.47999999975,
      "d": 426.470375000019,
      "v": 99
    },
    {
      "midi": 47,
      "hit": false,
      "t": 98823.47999999986,
      "d": 382.3527499999909,
      "v": 97
    },
    {
      "midi": 52,
      "hit": false,
      "t": 98823.47999999986,
      "d": 406.86254166666185,
      "v": 102
    },
    {
      "midi": 40,
      "hit": false,
      "t": 98823.47999999986,
      "d": 446.07820833333244,
      "v": 88
    },
    {
      "midi": 57,
      "hit": false,
      "t": 99411.71499999976,
      "d": 220.58812499999476,
      "v": 97
    },
    {
      "midi": 54,
      "hit": false,
      "t": 99411.71499999976,
      "d": 269.6077083333221,
      "v": 101
    },
    {
      "midi": 62,
      "hit": false,
      "t": 99411.71499999976,
      "d": 294.117499999993,
      "v": 108
    },
    {
      "midi": 42,
      "hit": false,
      "t": 99411.71499999976,
      "d": 470.5879999999888,
      "v": 114
    },
    {
      "midi": 50,
      "hit": false,
      "t": 99411.71499999987,
      "d": 553.9212916666729,
      "v": 116
    },
    {
      "midi": 42,
      "hit": false,
      "t": 99411.71499999987,
      "d": 558.8232500000013,
      "v": 109
    },
    {
      "midi": 54,
      "hit": false,
      "t": 99411.71499999987,
      "d": 568.6271666666726,
      "v": 103
    },
    {
      "midi": 62,
      "hit": false,
      "t": 99999.94999999975,
      "d": 299.01945833333593,
      "v": 100
    },
    {
      "midi": 59,
      "hit": false,
      "t": 99999.94999999975,
      "d": 303.9214166666643,
      "v": 88
    },
    {
      "midi": 67,
      "hit": false,
      "t": 99999.94999999975,
      "d": 323.5292499999923,
      "v": 99
    },
    {
      "midi": 55,
      "hit": false,
      "t": 99999.94999999975,
      "d": 367.64687499999127,
      "v": 75
    },
    {
      "midi": 43,
      "hit": false,
      "t": 99999.94999999975,
      "d": 450.9801666666608,
      "v": 90
    },
    {
      "midi": 50,
      "hit": false,
      "t": 99999.94999999987,
      "d": 475.48995833333174,
      "v": 116
    },
    {
      "midi": 55,
      "hit": false,
      "t": 99999.94999999987,
      "d": 475.48995833333174,
      "v": 102
    },
    {
      "midi": 43,
      "hit": false,
      "t": 99999.94999999987,
      "d": 485.293875000003,
      "v": 97
    },
    {
      "midi": 61,
      "hit": false,
      "t": 100588.18499999975,
      "d": 367.64687499999127,
      "v": 96
    },
    {
      "midi": 69,
      "hit": false,
      "t": 100588.18499999975,
      "d": 397.05862499999057,
      "v": 95
    },
    {
      "midi": 45,
      "hit": false,
      "t": 100588.18499999975,
      "d": 416.6664583333186,
      "v": 109
    },
    {
      "midi": 64,
      "hit": false,
      "t": 100588.18499999975,
      "d": 421.56841666664695,
      "v": 93
    },
    {
      "midi": 57,
      "hit": false,
      "t": 100588.18499999975,
      "d": 480.39191666664556,
      "v": 90
    },
    {
      "midi": 45,
      "hit": false,
      "t": 100588.18499999987,
      "d": 426.4703750000044,
      "v": 104
    },
    {
      "midi": 52,
      "hit": false,
      "t": 100588.18499999987,
      "d": 549.0193333333445,
      "v": 97
    },
    {
      "midi": 57,
      "hit": false,
      "t": 100588.18499999987,
      "d": 568.6271666666726,
      "v": 96
    },
    {
      "midi": 57,
      "hit": false,
      "t": 101176.41999999974,
      "d": 279.41162499999336,
      "v": 72
    },
    {
      "midi": 50,
      "hit": false,
      "t": 101176.41999999974,
      "d": 470.5879999999888,
      "v": 114
    },
    {
      "midi": 64,
      "hit": false,
      "t": 101176.41999999974,
      "d": 745.0976666666684,
      "v": 82
    },
    {
      "midi": 62,
      "hit": false,
      "t": 101176.41999999974,
      "d": 799.0192083333386,
      "v": 88
    },
    {
      "midi": 66,
      "hit": false,
      "t": 101176.41999999974,
      "d": 813.7250833333383,
      "v": 83
    },
    {
      "midi": 50,
      "hit": false,
      "t": 101176.41999999987,
      "d": 666.6663333333272,
      "v": 116
    },
    {
      "midi": 57,
      "hit": false,
      "t": 101470.53749999973,
      "d": 441.1762500000041,
      "v": 69
    },
    {
      "midi": 52,
      "hit": false,
      "t": 101764.65499999972,
      "d": 137.25483333333977,
      "v": 81
    },
    {
      "midi": 50,
      "hit": false,
      "t": 101764.65499999972,
      "d": 352.9410000000207,
      "v": 102
    },
    {
      "midi": 57,
      "hit": false,
      "t": 101764.65499999987,
      "d": 352.9409999999916,
      "v": 80
    },
    {
      "midi": 62,
      "hit": false,
      "t": 101764.65499999987,
      "d": 372.54883333331964,
      "v": 80
    },
    {
      "midi": 64,
      "hit": false,
      "t": 102058.77249999974,
      "d": 147.0587499999965,
      "v": 69
    },
    {
      "midi": 57,
      "hit": false,
      "t": 102058.77249999974,
      "d": 210.78420833332348,
      "v": 45
    },
    {
      "midi": 50,
      "hit": false,
      "t": 102058.77249999986,
      "d": 78.43133333332662,
      "v": 88
    },
    {
      "midi": 66,
      "hit": false,
      "t": 102205.83124999974,
      "d": 63.72545833332697,
      "v": 78
    },
    {
      "midi": 62,
      "hit": false,
      "t": 102205.83124999986,
      "d": 102.94112499999756,
      "v": 91
    },
    {
      "midi": 57,
      "hit": false,
      "t": 102205.83124999986,
      "d": 107.84308333332592,
      "v": 82
    },
    {
      "midi": 57,
      "hit": false,
      "t": 102352.88999999974,
      "d": 137.25483333333977,
      "v": 54
    },
    {
      "midi": 61,
      "hit": false,
      "t": 102352.88999999974,
      "d": 269.60770833333663,
      "v": 80
    },
    {
      "midi": 64,
      "hit": false,
      "t": 102352.88999999974,
      "d": 990.1955833333341,
      "v": 90
    },
    {
      "midi": 45,
      "hit": false,
      "t": 102352.88999999974,
      "d": 1029.41124999999,
      "v": 81
    },
    {
      "midi": 45,
      "hit": false,
      "t": 102352.88999999985,
      "d": 49.01958333332732,
      "v": 68
    },
    {
      "midi": 57,
      "hit": false,
      "t": 102647.00749999975,
      "d": 63.72545833332697,
      "v": 61
    },
    {
      "midi": 45,
      "hit": false,
      "t": 102647.00749999985,
      "d": 485.2938749999885,
      "v": 79
    },
    {
      "midi": 61,
      "hit": false,
      "t": 102794.06624999974,
      "d": 328.4312083333207,
      "v": 93
    },
    {
      "midi": 57,
      "hit": false,
      "t": 102794.06624999974,
      "d": 583.3330416666577,
      "v": 66
    },
    {
      "midi": 52,
      "hit": false,
      "t": 102941.12499999984,
      "d": 519.6075833333307,
      "v": 96
    },
    {
      "midi": 57,
      "hit": false,
      "t": 102941.12499999984,
      "d": 529.411500000002,
      "v": 98
    },
    {
      "midi": 61,
      "hit": false,
      "t": 103235.24249999973,
      "d": 142.15679166666814,
      "v": 85
    },
    {
      "midi": 45,
      "hit": false,
      "t": 103235.24249999983,
      "d": 53.92154166667024,
      "v": 73
    },
    {
      "midi": 45,
      "hit": false,
      "t": 103529.35999999972,
      "d": 107.84308333334047,
      "v": 56
    },
    {
      "midi": 43,
      "hit": false,
      "t": 103529.35999999972,
      "d": 480.39191666667466,
      "v": 58
    },
    {
      "midi": 57,
      "hit": false,
      "t": 103529.35999999972,
      "d": 764.7055000000109,
      "v": 87
    },
    {
      "midi": 55,
      "hit": false,
      "t": 103529.35999999972,
      "d": 769.6074583333393,
      "v": 72
    },
    {
      "midi": 62,
      "hit": false,
      "t": 103529.35999999972,
      "d": 1024.5092916666763,
      "v": 97
    },
    {
      "midi": 43,
      "hit": false,
      "t": 103529.35999999984,
      "d": 740.19570833334,
      "v": 82
    },
    {
      "midi": 43,
      "hit": false,
      "t": 104117.59499999974,
      "d": 436.27429166666116,
      "v": 87
    },
    {
      "midi": 50,
      "hit": false,
      "t": 104117.59499999984,
      "d": 362.74491666667745,
      "v": 116
    },
    {
      "midi": 55,
      "hit": false,
      "t": 104117.59499999984,
      "d": 392.15666666667676,
      "v": 98
    },
    {
      "midi": 55,
      "hit": false,
      "t": 104411.71249999973,
      "d": 73.52937499999825,
      "v": 59
    },
    {
      "midi": 57,
      "hit": false,
      "t": 104411.71249999973,
      "d": 132.35287499999686,
      "v": 79
    },
    {
      "midi": 43,
      "hit": false,
      "t": 104411.71249999985,
      "d": 102.94112499999756,
      "v": 64
    },
    {
      "midi": 50,
      "hit": false,
      "t": 104558.77124999985,
      "d": 83.33329166666954,
      "v": 104
    },
    {
      "midi": 55,
      "hit": false,
      "t": 104558.77124999985,
      "d": 102.94112499999756,
      "v": 73
    },
    {
      "midi": 57,
      "hit": false,
      "t": 104705.82999999974,
      "d": 200.98029166666674,
      "v": 72
    },
    {
      "midi": 61,
      "hit": false,
      "t": 104705.82999999974,
      "d": 357.84295833332,
      "v": 66
    },
    {
      "midi": 64,
      "hit": false,
      "t": 104705.82999999974,
      "d": 367.64687499999127,
      "v": 72
    },
    {
      "midi": 45,
      "hit": false,
      "t": 104705.82999999974,
      "d": 553.9212916666584,
      "v": 91
    },
    {
      "midi": 45,
      "hit": false,
      "t": 104705.82999999984,
      "d": 68.62741666666989,
      "v": 76
    },
    {
      "midi": 57,
      "hit": false,
      "t": 104999.94749999973,
      "d": 98.03916666666919,
      "v": 65
    },
    {
      "midi": 45,
      "hit": false,
      "t": 104999.94749999985,
      "d": 514.7056249999878,
      "v": 80
    },
    {
      "midi": 64,
      "hit": false,
      "t": 105147.00624999973,
      "d": 367.64687499999127,
      "v": 82
    },
    {
      "midi": 59,
      "hit": false,
      "t": 105147.00624999973,
      "d": 387.2547083333193,
      "v": 87
    },
    {
      "midi": 45,
      "hit": false,
      "t": 105294.06499999973,
      "d": 313.72533333332103,
      "v": 72
    },
    {
      "midi": 57,
      "hit": false,
      "t": 105294.06499999984,
      "d": 269.6077083333221,
      "v": 88
    },
    {
      "midi": 52,
      "hit": false,
      "t": 105294.06499999984,
      "d": 284.31358333332173,
      "v": 82
    },
    {
      "midi": 61,
      "hit": false,
      "t": 105588.18249999972,
      "d": 245.0979166666657,
      "v": 76
    },
    {
      "midi": 59,
      "hit": false,
      "t": 105882.29999999971,
      "d": 254.90183333333698,
      "v": 90
    },
    {
      "midi": 55,
      "hit": false,
      "t": 105882.29999999971,
      "d": 387.25470833333384,
      "v": 84
    },
    {
      "midi": 40,
      "hit": false,
      "t": 105882.29999999971,
      "d": 450.9801666666608,
      "v": 102
    },
    {
      "midi": 64,
      "hit": false,
      "t": 105882.29999999971,
      "d": 514.7056249999878,
      "v": 90
    },
    {
      "midi": 47,
      "hit": false,
      "t": 105882.29999999983,
      "d": 446.07820833333244,
      "v": 88
    },
    {
      "midi": 40,
      "hit": false,
      "t": 105882.29999999983,
      "d": 455.8821250000037,
      "v": 98
    },
    {
      "midi": 52,
      "hit": false,
      "t": 105882.29999999983,
      "d": 475.48995833333174,
      "v": 82
    },
    {
      "midi": 57,
      "hit": false,
      "t": 106470.5349999997,
      "d": 220.58812499999476,
      "v": 88
    },
    {
      "midi": 54,
      "hit": false,
      "t": 106470.5349999997,
      "d": 274.509666666665,
      "v": 89
    },
    {
      "midi": 62,
      "hit": false,
      "t": 106470.5349999997,
      "d": 431.3723333333328,
      "v": 91
    },
    {
      "midi": 42,
      "hit": false,
      "t": 106470.5349999997,
      "d": 446.07820833333244,
      "v": 110
    },
    {
      "midi": 42,
      "hit": false,
      "t": 106470.53499999983,
      "d": 465.68604166666046,
      "v": 97
    },
    {
      "midi": 50,
      "hit": false,
      "t": 106470.53499999983,
      "d": 490.1958333333314,
      "v": 116
    },
    {
      "midi": 54,
      "hit": false,
      "t": 106470.53499999983,
      "d": 519.6075833333307,
      "v": 103
    },
    {
      "midi": 59,
      "hit": false,
      "t": 107058.7699999997,
      "d": 318.62729166666395,
      "v": 97
    },
    {
      "midi": 55,
      "hit": false,
      "t": 107058.7699999997,
      "d": 323.5292499999923,
      "v": 95
    },
    {
      "midi": 62,
      "hit": false,
      "t": 107058.7699999997,
      "d": 328.4312083333207,
      "v": 100
    },
    {
      "midi": 43,
      "hit": false,
      "t": 107058.7699999997,
      "d": 436.27429166666116,
      "v": 100
    },
    {
      "midi": 50,
      "hit": false,
      "t": 107058.76999999983,
      "d": 392.1566666666622,
      "v": 116
    },
    {
      "midi": 43,
      "hit": false,
      "t": 107058.76999999983,
      "d": 397.05862499999057,
      "v": 93
    },
    {
      "midi": 55,
      "hit": false,
      "t": 107058.76999999983,
      "d": 406.86254166666185,
      "v": 108
    },
    {
      "midi": 48,
      "hit": false,
      "t": 107647.0049999997,
      "d": 68.62741666666989,
      "v": 95
    },
    {
      "midi": 47,
      "hit": false,
      "t": 107647.0049999997,
      "d": 78.43133333334117,
      "v": 95
    },
    {
      "midi": 62,
      "hit": false,
      "t": 107647.0049999997,
      "d": 333.33316666667815,
      "v": 99
    },
    {
      "midi": 59,
      "hit": false,
      "t": 107647.0049999997,
      "d": 416.6664583333477,
      "v": 91
    },
    {
      "midi": 66,
      "hit": false,
      "t": 107647.0049999997,
      "d": 499.99975000001723,
      "v": 110
    },
    {
      "midi": 47,
      "hit": false,
      "t": 107647.00499999983,
      "d": 499.9997499999881,
      "v": 96
    },
    {
      "midi": 59,
      "hit": false,
      "t": 107647.00499999983,
      "d": 499.9997499999881,
      "v": 87
    },
    {
      "midi": 54,
      "hit": false,
      "t": 107647.00499999983,
      "d": 509.8036666666594,
      "v": 84
    },
    {
      "midi": 57,
      "hit": false,
      "t": 108235.23999999971,
      "d": 171.56854166666744,
      "v": 100
    },
    {
      "midi": 69,
      "hit": false,
      "t": 108235.23999999971,
      "d": 475.4899583333463,
      "v": 108
    },
    {
      "midi": 61,
      "hit": false,
      "t": 108235.23999999971,
      "d": 495.0977916666743,
      "v": 107
    },
    {
      "midi": 64,
      "hit": false,
      "t": 108235.23999999971,
      "d": 524.5095416666736,
      "v": 99
    },
    {
      "midi": 45,
      "hit": false,
      "t": 108235.23999999971,
      "d": 789.2152916666673,
      "v": 102
    },
    {
      "midi": 52,
      "hit": false,
      "t": 108235.23999999982,
      "d": 480.3919166666601,
      "v": 115
    },
    {
      "midi": 57,
      "hit": false,
      "t": 108235.23999999982,
      "d": 794.1172499999957,
      "v": 103
    },
    {
      "midi": 45,
      "hit": false,
      "t": 108382.29874999981,
      "d": 696.0780833333265,
      "v": 88
    },
    {
      "midi": 57,
      "hit": false,
      "t": 108529.35749999972,
      "d": 225.49008333333768,
      "v": 65
    },
    {
      "midi": 57,
      "hit": false,
      "t": 108823.47499999971,
      "d": 205.8822499999951,
      "v": 102
    },
    {
      "midi": 64,
      "hit": false,
      "t": 108823.47499999971,
      "d": 225.49008333332313,
      "v": 93
    },
    {
      "midi": 61,
      "hit": false,
      "t": 108823.47499999971,
      "d": 235.2939999999944,
      "v": 101
    },
    {
      "midi": 69,
      "hit": false,
      "t": 108823.47499999971,
      "d": 264.7057499999937,
      "v": 84
    },
    {
      "midi": 52,
      "hit": false,
      "t": 108823.47499999982,
      "d": 249.99987499999406,
      "v": 88
    },
    {
      "midi": 45,
      "hit": false,
      "t": 109117.59249999971,
      "d": 117.6469999999972,
      "v": 70
    },
    {
      "midi": 45,
      "hit": false,
      "t": 109117.59249999981,
      "d": 181.37245833333873,
      "v": 79
    },
    {
      "midi": 47,
      "hit": false,
      "t": 109411.7099999997,
      "d": 191.17637499999546,
      "v": 114
    },
    {
      "midi": 59,
      "hit": false,
      "t": 109411.7099999997,
      "d": 235.2939999999944,
      "v": 95
    },
    {
      "midi": 63,
      "hit": false,
      "t": 109411.7099999997,
      "d": 348.03904166666325,
      "v": 107
    },
    {
      "midi": 66,
      "hit": false,
      "t": 109411.7099999997,
      "d": 357.84295833333454,
      "v": 107
    },
    {
      "midi": 71,
      "hit": false,
      "t": 109411.7099999997,
      "d": 367.6468750000058,
      "v": 93
    },
    {
      "midi": 47,
      "hit": false,
      "t": 109411.70999999982,
      "d": 230.39204166666605,
      "v": 96
    },
    {
      "midi": 54,
      "hit": false,
      "t": 109411.70999999982,
      "d": 367.64687499999127,
      "v": 105
    },
    {
      "midi": 59,
      "hit": false,
      "t": 109411.70999999982,
      "d": 1083.3327916666603,
      "v": 104
    },
    {
      "midi": 47,
      "hit": false,
      "t": 109705.8274999997,
      "d": 117.64700000001176,
      "v": 72
    },
    {
      "midi": 47,
      "hit": false,
      "t": 109705.82749999981,
      "d": 176.4704999999958,
      "v": 82
    },
    {
      "midi": 63,
      "hit": false,
      "t": 109852.8862499997,
      "d": 441.1762499999895,
      "v": 87
    },
    {
      "midi": 66,
      "hit": false,
      "t": 109852.8862499997,
      "d": 499.9997499999881,
      "v": 87
    },
    {
      "midi": 71,
      "hit": false,
      "t": 109852.8862499997,
      "d": 602.9408749999857,
      "v": 79
    },
    {
      "midi": 54,
      "hit": false,
      "t": 109852.8862499998,
      "d": 328.43120833333523,
      "v": 87
    },
    {
      "midi": 47,
      "hit": false,
      "t": 109999.9449999997,
      "d": 352.9409999999916,
      "v": 114
    },
    {
      "midi": 47,
      "hit": false,
      "t": 109999.9449999998,
      "d": 519.6075833333307,
      "v": 97
    },
    {
      "midi": 59,
      "hit": false,
      "t": 110294.0624999997,
      "d": 176.4704999999958,
      "v": 88
    },
    {
      "midi": 54,
      "hit": false,
      "t": 110294.06249999981,
      "d": 220.58812499999476,
      "v": 88
    },
    {
      "midi": 52,
      "hit": false,
      "t": 110588.17999999969,
      "d": 480.3919166666601,
      "v": 114
    },
    {
      "midi": 68,
      "hit": false,
      "t": 110588.17999999969,
      "d": 617.6467499999999,
      "v": 110
    },
    {
      "midi": 64,
      "hit": false,
      "t": 110588.17999999969,
      "d": 627.4506666666712,
      "v": 100
    },
    {
      "midi": 59,
      "hit": false,
      "t": 110588.17999999969,
      "d": 656.8624166666705,
      "v": 84
    },
    {
      "midi": 40,
      "hit": false,
      "t": 110588.1799999998,
      "d": 764.7054999999818,
      "v": 111
    },
    {
      "midi": 52,
      "hit": false,
      "t": 111176.41499999969,
      "d": 372.5488333333342,
      "v": 114
    },
    {
      "midi": 47,
      "hit": false,
      "t": 111176.4149999998,
      "d": 117.64699999998265,
      "v": 97
    },
    {
      "midi": 52,
      "hit": false,
      "t": 111176.4149999998,
      "d": 137.25483333331067,
      "v": 102
    },
    {
      "midi": 59,
      "hit": false,
      "t": 111210.72870833313,
      "d": 63.72545833332697,
      "v": 73
    },
    {
      "midi": 66,
      "hit": false,
      "t": 111470.5324999997,
      "d": 166.66658333332452,
      "v": 87
    },
    {
      "midi": 59,
      "hit": false,
      "t": 111470.5324999997,
      "d": 225.49008333332313,
      "v": 64
    },
    {
      "midi": 71,
      "hit": false,
      "t": 111470.5324999997,
      "d": 249.99987499999406,
      "v": 77
    },
    {
      "midi": 40,
      "hit": false,
      "t": 111470.53249999978,
      "d": 63.72545833332697,
      "v": 74
    },
    {
      "midi": 64,
      "hit": false,
      "t": 111470.53249999978,
      "d": 102.94112499999756,
      "v": 82
    },
    {
      "midi": 68,
      "hit": false,
      "t": 111617.59124999969,
      "d": 107.84308333332592,
      "v": 87
    },
    {
      "midi": 68,
      "hit": false,
      "t": 111764.64999999969,
      "d": 39.215666666670586,
      "v": 65
    },
    {
      "midi": 59,
      "hit": false,
      "t": 111764.64999999969,
      "d": 225.49008333333768,
      "v": 54
    },
    {
      "midi": 63,
      "hit": false,
      "t": 111764.64999999969,
      "d": 333.33316666667815,
      "v": 101
    },
    {
      "midi": 47,
      "hit": false,
      "t": 111764.64999999969,
      "d": 637.254583333357,
      "v": 112
    },
    {
      "midi": 66,
      "hit": false,
      "t": 111764.64999999969,
      "d": 936.2740416666929,
      "v": 110
    },
    {
      "midi": 47,
      "hit": false,
      "t": 111764.64999999978,
      "d": 1068.6269166666607,
      "v": 81
    },
    {
      "midi": 66,
      "hit": false,
      "t": 111769.5519583331,
      "d": 2367.645874999973,
      "v": 102
    },
    {
      "midi": 59,
      "hit": false,
      "t": 112058.7674999997,
      "d": 499.99975000001723,
      "v": 74
    },
    {
      "midi": 63,
      "hit": false,
      "t": 112205.8262499997,
      "d": 343.1370833333349,
      "v": 110
    },
    {
      "midi": 54,
      "hit": false,
      "t": 112352.88499999978,
      "d": 544.1173749999871,
      "v": 72
    },
    {
      "midi": 59,
      "hit": false,
      "t": 112352.88499999978,
      "d": 558.8232499999867,
      "v": 80
    },
    {
      "midi": 47,
      "hit": false,
      "t": 112647.00249999971,
      "d": 53.92154166667024,
      "v": 88
    },
    {
      "midi": 63,
      "hit": false,
      "t": 112647.00249999971,
      "d": 68.62741666666989,
      "v": 71
    },
    {
      "midi": 59,
      "hit": false,
      "t": 112647.00249999971,
      "d": 132.35287499999686,
      "v": 85
    },
    {
      "midi": 49,
      "hit": false,
      "t": 112941.1199999997,
      "d": 455.8821249999892,
      "v": 99
    },
    {
      "midi": 61,
      "hit": false,
      "t": 112941.1199999997,
      "d": 833.3329166666663,
      "v": 101
    },
    {
      "midi": 64,
      "hit": false,
      "t": 112941.1199999997,
      "d": 936.2740416666638,
      "v": 95
    },
    {
      "midi": 56,
      "hit": false,
      "t": 113235.2374999997,
      "d": 431.3723333333328,
      "v": 52
    },
    {
      "midi": 49,
      "hit": false,
      "t": 113529.35499999969,
      "d": 308.8233750000072,
      "v": 114
    },
    {
      "midi": 61,
      "hit": false,
      "t": 113529.35499999976,
      "d": 529.4114999999874,
      "v": 73
    },
    {
      "midi": 56,
      "hit": false,
      "t": 113529.35499999976,
      "d": 534.3134583333158,
      "v": 67
    },
    {
      "midi": 56,
      "hit": false,
      "t": 113823.4724999997,
      "d": 44.11762499999895,
      "v": 54
    },
    {
      "midi": 49,
      "hit": false,
      "t": 113823.47249999976,
      "d": 93.13720833332627,
      "v": 66
    },
    {
      "midi": 57,
      "hit": false,
      "t": 114117.5899999997,
      "d": 196.07833333332383,
      "v": 76
    },
    {
      "midi": 59,
      "hit": false,
      "t": 114117.5899999997,
      "d": 352.9409999999916,
      "v": 81
    },
    {
      "midi": 61,
      "hit": false,
      "t": 114117.5899999997,
      "d": 382.3527499999909,
      "v": 83
    },
    {
      "midi": 64,
      "hit": false,
      "t": 114117.5899999997,
      "d": 392.15666666664765,
      "v": 76
    },
    {
      "midi": 45,
      "hit": false,
      "t": 114117.5899999997,
      "d": 436.2742916666466,
      "v": 100
    },
    {
      "midi": 45,
      "hit": false,
      "t": 114117.58999999975,
      "d": 1034.3132083333476,
      "v": 79
    },
    {
      "midi": 57,
      "hit": false,
      "t": 114142.0997916664,
      "d": 308.8233750000072,
      "v": 74
    },
    {
      "midi": 57,
      "hit": false,
      "t": 114411.7074999997,
      "d": 93.13720833332627,
      "v": 72
    },
    {
      "midi": 57,
      "hit": false,
      "t": 114558.76624999968,
      "d": 323.5292499999923,
      "v": 74
    },
    {
      "midi": 64,
      "hit": false,
      "t": 114558.76624999968,
      "d": 455.8821249999892,
      "v": 91
    },
    {
      "midi": 59,
      "hit": false,
      "t": 114558.76624999968,
      "d": 470.5879999999888,
      "v": 95
    },
    {
      "midi": 45,
      "hit": false,
      "t": 114705.82499999968,
      "d": 348.03904166666325,
      "v": 102
    },
    {
      "midi": 52,
      "hit": false,
      "t": 114705.82499999975,
      "d": 499.9997500000027,
      "v": 87
    },
    {
      "midi": 57,
      "hit": false,
      "t": 114705.82499999975,
      "d": 499.9997500000027,
      "v": 102
    },
    {
      "midi": 76,
      "hit": false,
      "t": 114745.04066666642,
      "d": 269.60770833333663,
      "v": 116
    },
    {
      "midi": 71,
      "hit": false,
      "t": 114745.04066666642,
      "d": 279.4116250000079,
      "v": 116
    },
    {
      "midi": 64,
      "hit": false,
      "t": 114745.04066666642,
      "d": 372.5488333333342,
      "v": 96
    },
    {
      "midi": 57,
      "hit": false,
      "t": 114999.94249999967,
      "d": 102.94112499999756,
      "v": 72
    },
    {
      "midi": 62,
      "hit": false,
      "t": 115097.98166666643,
      "d": 58.8234999999986,
      "v": 54
    },
    {
      "midi": 60,
      "hit": false,
      "t": 115142.09929166643,
      "d": 44.11762499999895,
      "v": 66
    },
    {
      "midi": 59,
      "hit": false,
      "t": 115181.3149583331,
      "d": 34.313708333313116,
      "v": 80
    },
    {
      "midi": 57,
      "hit": false,
      "t": 115210.72670833308,
      "d": 24.509791666656383,
      "v": 74
    },
    {
      "midi": 55,
      "hit": false,
      "t": 115235.23649999974,
      "d": 34.31370833332767,
      "v": 73
    },
    {
      "midi": 50,
      "hit": false,
      "t": 115294.05999999966,
      "d": 19.607833333328017,
      "v": 81
    },
    {
      "midi": 59,
      "hit": false,
      "t": 115294.05999999966,
      "d": 303.9214166666643,
      "v": 88
    },
    {
      "midi": 64,
      "hit": false,
      "t": 115294.05999999966,
      "d": 318.62729166666395,
      "v": 93
    },
    {
      "midi": 68,
      "hit": false,
      "t": 115294.05999999966,
      "d": 387.25470833333384,
      "v": 101
    },
    {
      "midi": 52,
      "hit": false,
      "t": 115294.05999999966,
      "d": 480.39191666667466,
      "v": 114
    },
    {
      "midi": 40,
      "hit": false,
      "t": 115294.05999999974,
      "d": 700.9800416666694,
      "v": 61
    },
    {
      "midi": 56,
      "hit": false,
      "t": 115588.17749999966,
      "d": 117.64700000001176,
      "v": 64
    },
    {
      "midi": 52,
      "hit": false,
      "t": 115882.29499999968,
      "d": 333.3331666666636,
      "v": 105
    },
    {
      "midi": 59,
      "hit": false,
      "t": 115882.29499999974,
      "d": 83.33329166666954,
      "v": 68
    },
    {
      "midi": 47,
      "hit": false,
      "t": 115882.29499999974,
      "d": 107.84308333334047,
      "v": 103
    },
    {
      "midi": 52,
      "hit": false,
      "t": 115882.29499999974,
      "d": 107.84308333334047,
      "v": 93
    },
    {
      "midi": 66,
      "hit": false,
      "t": 116176.41249999967,
      "d": 171.568541666682,
      "v": 90
    },
    {
      "midi": 71,
      "hit": false,
      "t": 116176.41249999967,
      "d": 249.99987500000861,
      "v": 63
    },
    {
      "midi": 40,
      "hit": false,
      "t": 116176.41249999974,
      "d": 191.17637499999546,
      "v": 87
    },
    {
      "midi": 64,
      "hit": false,
      "t": 116196.02033333307,
      "d": 142.15679166666814,
      "v": 76
    },
    {
      "midi": 59,
      "hit": false,
      "t": 116323.47124999968,
      "d": 83.33329166666954,
      "v": 8
    },
    {
      "midi": 68,
      "hit": false,
      "t": 116323.47124999968,
      "d": 83.33329166666954,
      "v": 75
    },
    {
      "midi": 68,
      "hit": false,
      "t": 116470.52999999968,
      "d": 29.4117499999993,
      "v": 47
    },
    {
      "midi": 59,
      "hit": false,
      "t": 116470.52999999968,
      "d": 220.58812499999476,
      "v": 65
    },
    {
      "midi": 63,
      "hit": false,
      "t": 116470.52999999968,
      "d": 313.72533333332103,
      "v": 89
    },
    {
      "midi": 66,
      "hit": false,
      "t": 116470.52999999968,
      "d": 367.64687499999127,
      "v": 96
    },
    {
      "midi": 47,
      "hit": false,
      "t": 116470.52999999968,
      "d": 539.2154166666587,
      "v": 108
    },
    {
      "midi": 47,
      "hit": false,
      "t": 116470.52999999974,
      "d": 774.5094166666677,
      "v": 81
    },
    {
      "midi": 66,
      "hit": false,
      "t": 116475.43195833307,
      "d": 1147.0582500000164,
      "v": 90
    },
    {
      "midi": 59,
      "hit": false,
      "t": 116764.64749999967,
      "d": 102.94112499999756,
      "v": 63
    },
    {
      "midi": 59,
      "hit": false,
      "t": 116911.70624999967,
      "d": 308.82337499999267,
      "v": 69
    },
    {
      "midi": 63,
      "hit": false,
      "t": 116911.70624999967,
      "d": 499.9997499999881,
      "v": 96
    },
    {
      "midi": 66,
      "hit": false,
      "t": 116911.70624999967,
      "d": 499.9997499999881,
      "v": 90
    },
    {
      "midi": 47,
      "hit": false,
      "t": 117058.76499999966,
      "d": 132.35287499999686,
      "v": 62
    },
    {
      "midi": 54,
      "hit": false,
      "t": 117058.76499999974,
      "d": 519.6075833333452,
      "v": 64
    },
    {
      "midi": 59,
      "hit": false,
      "t": 117058.76499999974,
      "d": 524.5095416666736,
      "v": 81
    },
    {
      "midi": 47,
      "hit": false,
      "t": 117352.88249999966,
      "d": 78.43133333332662,
      "v": 82
    },
    {
      "midi": 59,
      "hit": false,
      "t": 117352.88249999966,
      "d": 98.03916666665464,
      "v": 81
    },
    {
      "midi": 47,
      "hit": false,
      "t": 117352.88249999975,
      "d": 186.2744166666671,
      "v": 64
    },
    {
      "midi": 64,
      "hit": false,
      "t": 117646.99999999965,
      "d": 529.4114999999874,
      "v": 88
    },
    {
      "midi": 68,
      "hit": false,
      "t": 117646.99999999965,
      "d": 549.0193333333154,
      "v": 83
    },
    {
      "midi": 61,
      "hit": false,
      "t": 117646.99999999965,
      "d": 583.3330416666431,
      "v": 75
    },
    {
      "midi": 49,
      "hit": false,
      "t": 117646.99999999965,
      "d": 1049.0190833333181,
      "v": 87
    },
    {
      "midi": 61,
      "hit": false,
      "t": 117646.99999999975,
      "d": 2166.6655833333352,
      "v": 91
    },
    {
      "midi": 56,
      "hit": false,
      "t": 117646.99999999975,
      "d": 2171.5675416666636,
      "v": 91
    },
    {
      "midi": 56,
      "hit": false,
      "t": 118529.35249999963,
      "d": 460.78408333334664,
      "v": 76
    },
    {
      "midi": 59,
      "hit": false,
      "t": 118529.35249999963,
      "d": 799.0192083333532,
      "v": 81
    },
    {
      "midi": 49,
      "hit": false,
      "t": 118823.46999999964,
      "d": 759.8035416666826,
      "v": 67
    },
    {
      "midi": 56,
      "hit": false,
      "t": 119117.58749999964,
      "d": 749.9996250000113,
      "v": 59
    },
    {
      "midi": 61,
      "hit": false,
      "t": 119411.70499999965,
      "d": 401.9605833333335,
      "v": 80
    },
    {
      "midi": 49,
      "hit": false,
      "t": 119705.82249999966,
      "d": 73.52937499999825,
      "v": 76
    },
    {
      "midi": 45,
      "hit": false,
      "t": 119813.66558333309,
      "d": 2235.292999999976,
      "v": 81
    },
    {
      "midi": 52,
      "hit": false,
      "t": 119877.39104166641,
      "d": 1946.0774583333114,
      "v": 88
    },
    {
      "midi": 57,
      "hit": false,
      "t": 119926.41062499974,
      "d": 1892.1559166666557,
      "v": 110
    },
    {
      "midi": 59,
      "hit": false,
      "t": 119946.01845833307,
      "d": 1901.959833333327,
      "v": 103
    },
    {
      "midi": 33,
      "hit": false,
      "t": 119975.430208333,
      "d": 524.5095416666591,
      "v": 93
    },
    {
      "midi": 57,
      "hit": false,
      "t": 119975.430208333,
      "d": 1151.9602083333302,
      "v": 105
    },
    {
      "midi": 64,
      "hit": false,
      "t": 119975.430208333,
      "d": 2029.4107499999518,
      "v": 88
    },
    {
      "midi": 61,
      "hit": false,
      "t": 119975.430208333,
      "d": 2039.214666666623,
      "v": 99
    },
    {
      "midi": 52,
      "hit": false,
      "t": 119980.33216666633,
      "d": 1151.9602083333302,
      "v": 114
    },
    {
      "midi": 59,
      "hit": false,
      "t": 119980.33216666633,
      "d": 1181.3719583333295,
      "v": 109
    },
    {
      "midi": 45,
      "hit": false,
      "t": 119980.33216666633,
      "d": 1995.0970416666241,
      "v": 112
    },
    {
      "midi": 64,
      "hit": false,
      "t": 120004.84195833307,
      "d": 1877.450041666656,
      "v": 104
    },
    {
      "midi": 59,
      "hit": false,
      "t": 121196.01783333298,
      "d": 779.4113749999669,
      "v": 65
    },
    {
      "midi": 57,
      "hit": false,
      "t": 121200.91979166631,
      "d": 764.7054999999818,
      "v": 81
    },
    {
      "midi": 52,
      "hit": false,
      "t": 121205.82174999964,
      "d": 524.5095416666591,
      "v": 91
    },
    {
      "midi": 52,
      "hit": false,
      "t": 121779.35087499963,
      "d": 191.17637499999546,
      "v": 87
    },
    {
      "midi": 45,
      "hit": false,
      "t": 122058.76249999962,
      "d": 88.2352499999979,
      "v": 87
    },
    {
      "midi": 54,
      "hit": false,
      "t": 122245.0369166664,
      "d": 2019.6068333333242,
      "v": 80
    },
    {
      "midi": 47,
      "hit": false,
      "t": 122264.64474999973,
      "d": 1936.2735416666546,
      "v": 81
    },
    {
      "midi": 59,
      "hit": false,
      "t": 122308.76237499973,
      "d": 1848.0382916666567,
      "v": 80
    },
    {
      "midi": 61,
      "hit": false,
      "t": 122318.5662916664,
      "d": 1833.332416666657,
      "v": 80
    },
    {
      "midi": 66,
      "hit": false,
      "t": 122347.9780416664,
      "d": 1877.450041666656,
      "v": 96
    },
    {
      "midi": 54,
      "hit": false,
      "t": 122352.87999999961,
      "d": 1357.8424583333253,
      "v": 110
    },
    {
      "midi": 61,
      "hit": false,
      "t": 122352.87999999961,
      "d": 1534.3129583333211,
      "v": 90
    },
    {
      "midi": 63,
      "hit": false,
      "t": 122352.87999999961,
      "d": 1593.1364583333198,
      "v": 89
    },
    {
      "midi": 59,
      "hit": false,
      "t": 122357.78195833294,
      "d": 1480.3914166666655,
      "v": 87
    },
    {
      "midi": 66,
      "hit": false,
      "t": 122357.78195833294,
      "d": 1622.548208333319,
      "v": 99
    },
    {
      "midi": 63,
      "hit": false,
      "t": 122357.78195833307,
      "d": 1843.1363333333138,
      "v": 80
    },
    {
      "midi": 47,
      "hit": false,
      "t": 122362.68391666627,
      "d": 1034.313208333333,
      "v": 114
    },
    {
      "midi": 47,
      "hit": false,
      "t": 123514.6441249996,
      "d": 632.3526249999995,
      "v": 93
    },
    {
      "midi": 54,
      "hit": false,
      "t": 123798.95770833293,
      "d": 254.90183333332243,
      "v": 72
    },
    {
      "midi": 66,
      "hit": false,
      "t": 124107.78108333293,
      "d": 93.13720833334082,
      "v": 78
    },
    {
      "midi": 59,
      "hit": false,
      "t": 124107.78108333293,
      "d": 147.05875000001106,
      "v": 93
    },
    {
      "midi": 63,
      "hit": false,
      "t": 124107.78108333293,
      "d": 161.7646250000107,
      "v": 87
    },
    {
      "midi": 54,
      "hit": false,
      "t": 124107.78108333293,
      "d": 191.17637500001,
      "v": 93
    },
    {
      "midi": 61,
      "hit": false,
      "t": 124117.5849999996,
      "d": 142.15679166666814,
      "v": 90
    },
    {
      "midi": 47,
      "hit": false,
      "t": 124406.80054166628,
      "d": 73.52937499999825,
      "v": 61
    },
    {
      "midi": 50,
      "hit": false,
      "t": 124588.17299999973,
      "d": 2014.7048749999813,
      "v": 91
    },
    {
      "midi": 43,
      "hit": false,
      "t": 124627.3886666664,
      "d": 2343.1360833333165,
      "v": 81
    },
    {
      "midi": 55,
      "hit": false,
      "t": 124656.8004166664,
      "d": 1931.3715833333117,
      "v": 97
    },
    {
      "midi": 57,
      "hit": false,
      "t": 124681.31020833307,
      "d": 1901.9598333333124,
      "v": 97
    },
    {
      "midi": 57,
      "hit": false,
      "t": 124700.91804166627,
      "d": 1710.7834583333024,
      "v": 97
    },
    {
      "midi": 59,
      "hit": false,
      "t": 124700.91804166627,
      "d": 1710.7834583333024,
      "v": 97
    },
    {
      "midi": 62,
      "hit": false,
      "t": 124700.91804166627,
      "d": 1710.7834583333024,
      "v": 93
    },
    {
      "midi": 43,
      "hit": false,
      "t": 124705.8199999996,
      "d": 1117.646499999988,
      "v": 109
    },
    {
      "midi": 55,
      "hit": false,
      "t": 124705.8199999996,
      "d": 1651.9599583333184,
      "v": 102
    },
    {
      "midi": 59,
      "hit": false,
      "t": 124705.81999999973,
      "d": 1897.057874999984,
      "v": 81
    },
    {
      "midi": 50,
      "hit": false,
      "t": 124710.72195833293,
      "d": 1377.4502916666534,
      "v": 114
    },
    {
      "midi": 62,
      "hit": false,
      "t": 124740.13370833306,
      "d": 1872.5480833333277,
      "v": 91
    },
    {
      "midi": 43,
      "hit": false,
      "t": 125896.99587499959,
      "d": 720.5878749999829,
      "v": 81
    },
    {
      "midi": 50,
      "hit": false,
      "t": 126171.50554166625,
      "d": 220.58812499999476,
      "v": 63
    },
    {
      "midi": 57,
      "hit": false,
      "t": 126475.4269583329,
      "d": 235.2939999999944,
      "v": 90
    },
    {
      "midi": 59,
      "hit": false,
      "t": 126475.4269583329,
      "d": 249.99987499999406,
      "v": 88
    },
    {
      "midi": 50,
      "hit": false,
      "t": 126480.32891666623,
      "d": 220.5881250000093,
      "v": 114
    },
    {
      "midi": 55,
      "hit": false,
      "t": 126480.32891666623,
      "d": 225.49008333333768,
      "v": 95
    },
    {
      "midi": 62,
      "hit": false,
      "t": 126480.32891666623,
      "d": 269.6077083333221,
      "v": 88
    },
    {
      "midi": 43,
      "hit": false,
      "t": 126745.03466666622,
      "d": 235.2939999999944,
      "v": 82
    },
    {
      "midi": 52,
      "hit": false,
      "t": 126946.01495833305,
      "d": 1813.724583333329,
      "v": 73
    },
    {
      "midi": 57,
      "hit": false,
      "t": 126999.93649999972,
      "d": 1759.8030416666588,
      "v": 72
    },
    {
      "midi": 59,
      "hit": false,
      "t": 127019.54433333305,
      "d": 2818.6260416666482,
      "v": 81
    },
    {
      "midi": 61,
      "hit": false,
      "t": 127044.05412499972,
      "d": 2779.4103749999776,
      "v": 75
    },
    {
      "midi": 45,
      "hit": false,
      "t": 127058.75999999972,
      "d": 1147.0582499999873,
      "v": 88
    },
    {
      "midi": 64,
      "hit": false,
      "t": 127068.56391666621,
      "d": 1117.6465000000026,
      "v": 88
    },
    {
      "midi": 61,
      "hit": false,
      "t": 127068.56391666621,
      "d": 1161.7641250000015,
      "v": 90
    },
    {
      "midi": 52,
      "hit": false,
      "t": 127073.46587499954,
      "d": 156.8626666666678,
      "v": 87
    },
    {
      "midi": 59,
      "hit": false,
      "t": 127073.46587499954,
      "d": 1127.4504166666738,
      "v": 91
    },
    {
      "midi": 57,
      "hit": false,
      "t": 127078.36783333287,
      "d": 1049.0190833333472,
      "v": 91
    },
    {
      "midi": 45,
      "hit": false,
      "t": 127088.17174999954,
      "d": 549.0193333333445,
      "v": 114
    },
    {
      "midi": 64,
      "hit": false,
      "t": 127093.07370833305,
      "d": 4632.350624999934,
      "v": 81
    },
    {
      "midi": 52,
      "hit": false,
      "t": 127284.25008333288,
      "d": 568.6271666666726,
      "v": 29
    },
    {
      "midi": 45,
      "hit": false,
      "t": 127666.60283333289,
      "d": 485.293875000003,
      "v": 62
    },
    {
      "midi": 52,
      "hit": false,
      "t": 127941.11249999955,
      "d": 269.60770833333663,
      "v": 67
    },
    {
      "midi": 61,
      "hit": false,
      "t": 128249.93587499954,
      "d": 975.4897083333199,
      "v": 49
    },
    {
      "midi": 45,
      "hit": false,
      "t": 128259.73979166622,
      "d": 769.6074583333102,
      "v": 114
    },
    {
      "midi": 59,
      "hit": false,
      "t": 128259.73979166622,
      "d": 926.470124999978,
      "v": 81
    },
    {
      "midi": 45,
      "hit": false,
      "t": 128259.73979166638,
      "d": 210.78420833333803,
      "v": 73
    },
    {
      "midi": 52,
      "hit": false,
      "t": 128264.64174999954,
      "d": 529.4114999999874,
      "v": 93
    },
    {
      "midi": 57,
      "hit": false,
      "t": 128264.64174999954,
      "d": 906.86229166665,
      "v": 91
    },
    {
      "midi": 64,
      "hit": false,
      "t": 128269.54370833287,
      "d": 946.0779583333206,
      "v": 79
    },
    {
      "midi": 45,
      "hit": false,
      "t": 128539.15141666638,
      "d": 818.6270416666521,
      "v": 81
    },
    {
      "midi": 57,
      "hit": false,
      "t": 128838.1708749997,
      "d": 1093.136708333317,
      "v": 88
    },
    {
      "midi": 52,
      "hit": false,
      "t": 128847.97479166638,
      "d": 1083.3327916666458,
      "v": 96
    },
    {
      "midi": 52,
      "hit": false,
      "t": 128857.77870833286,
      "d": 421.56841666667606,
      "v": 77
    },
    {
      "midi": 45,
      "hit": false,
      "t": 129117.58249999952,
      "d": 230.3920416666806,
      "v": 90
    },
    {
      "midi": 61,
      "hit": false,
      "t": 129416.60195833287,
      "d": 1122.548458333331,
      "v": 87
    },
    {
      "midi": 52,
      "hit": false,
      "t": 129421.5039166662,
      "d": 235.2939999999944,
      "v": 90
    },
    {
      "midi": 57,
      "hit": false,
      "t": 129421.5039166662,
      "d": 490.1958333333314,
      "v": 88
    },
    {
      "midi": 45,
      "hit": false,
      "t": 129426.40587499953,
      "d": 490.1958333333314,
      "v": 102
    },
    {
      "midi": 59,
      "hit": false,
      "t": 129426.40587499953,
      "d": 1024.5092916666763,
      "v": 90
    },
    {
      "midi": 64,
      "hit": false,
      "t": 129426.40587499953,
      "d": 1102.940625000003,
      "v": 72
    },
    {
      "midi": 45,
      "hit": false,
      "t": 129436.20979166636,
      "d": 200.98029166666674,
      "v": 80
    },
    {
      "midi": 52,
      "hit": false,
      "t": 129681.30770833287,
      "d": 499.9997500000027,
      "v": 50
    },
    {
      "midi": 45,
      "hit": false,
      "t": 129700.91554166636,
      "d": 828.4309583333379,
      "v": 82
    },
    {
      "midi": 57,
      "hit": false,
      "t": 129985.22912499953,
      "d": 431.37233333334734,
      "v": 79
    },
    {
      "midi": 52,
      "hit": false,
      "t": 129999.93499999969,
      "d": 1117.646499999988,
      "v": 88
    },
    {
      "midi": 57,
      "hit": false,
      "t": 129999.93499999969,
      "d": 1151.9602083333157,
      "v": 97
    },
    {
      "midi": 45,
      "hit": false,
      "t": 130014.64087499953,
      "d": 455.8821250000037,
      "v": 102
    },
    {
      "midi": 52,
      "hit": false,
      "t": 130279.34662499954,
      "d": 225.49008333332313,
      "v": 67
    },
    {
      "midi": 61,
      "hit": false,
      "t": 130573.46412499953,
      "d": 1102.9406249999593,
      "v": 73
    },
    {
      "midi": 45,
      "hit": false,
      "t": 130578.36608333286,
      "d": 495.09779166663066,
      "v": 112
    },
    {
      "midi": 52,
      "hit": false,
      "t": 130583.26804166619,
      "d": 245.09791666665114,
      "v": 82
    },
    {
      "midi": 57,
      "hit": false,
      "t": 130588.16999999952,
      "d": 485.2938749999739,
      "v": 85
    },
    {
      "midi": 59,
      "hit": false,
      "t": 130588.16999999952,
      "d": 539.2154166666442,
      "v": 87
    },
    {
      "midi": 64,
      "hit": false,
      "t": 130588.16999999952,
      "d": 553.9212916666584,
      "v": 71
    },
    {
      "midi": 45,
      "hit": false,
      "t": 130588.16999999969,
      "d": 235.2939999999944,
      "v": 87
    },
    {
      "midi": 52,
      "hit": false,
      "t": 130877.38554166617,
      "d": 269.60770833333663,
      "v": 63
    },
    {
      "midi": 45,
      "hit": false,
      "t": 130887.18945833301,
      "d": 509.80366666664486,
      "v": 97
    },
    {
      "midi": 52,
      "hit": false,
      "t": 131171.50304166618,
      "d": 230.39204166666605,
      "v": 57
    },
    {
      "midi": 45,
      "hit": false,
      "t": 131171.50304166618,
      "d": 504.9017083333165,
      "v": 112
    },
    {
      "midi": 64,
      "hit": false,
      "t": 131181.30695833283,
      "d": 475.4899583333172,
      "v": 65
    },
    {
      "midi": 59,
      "hit": false,
      "t": 131181.30695833283,
      "d": 490.1958333333314,
      "v": 85
    },
    {
      "midi": 57,
      "hit": false,
      "t": 131181.30695833283,
      "d": 495.09779166665976,
      "v": 90
    },
    {
      "midi": 57,
      "hit": false,
      "t": 131181.306958333,
      "d": 549.0193333333009,
      "v": 98
    },
    {
      "midi": 52,
      "hit": false,
      "t": 131191.11087499966,
      "d": 558.8232499999867,
      "v": 91
    },
    {
      "midi": 52,
      "hit": false,
      "t": 131470.5224999995,
      "d": 240.19595833332278,
      "v": 90
    },
    {
      "midi": 45,
      "hit": false,
      "t": 131490.13033333299,
      "d": 259.80379166666535,
      "v": 98
    },
    {
      "midi": 50,
      "hit": false,
      "t": 131764.63999999966,
      "d": 671.5682916666556,
      "v": 103
    },
    {
      "midi": 57,
      "hit": false,
      "t": 132352.87499999965,
      "d": 416.6664583333477,
      "v": 80
    },
    {
      "midi": 62,
      "hit": false,
      "t": 132352.87499999965,
      "d": 539.2154166666733,
      "v": 82
    },
    {
      "midi": 57,
      "hit": false,
      "t": 132794.05124999967,
      "d": 39.215666666656034,
      "v": 66
    },
    {
      "midi": 45,
      "hit": false,
      "t": 132941.10999999967,
      "d": 696.0780833333265,
      "v": 54
    },
    {
      "midi": 52,
      "hit": false,
      "t": 133529.34499999965,
      "d": 514.7056250000023,
      "v": 73
    },
    {
      "midi": 57,
      "hit": false,
      "t": 133529.34499999965,
      "d": 524.5095416666591,
      "v": 73
    },
    {
      "midi": 45,
      "hit": false,
      "t": 133823.46249999964,
      "d": 73.5293750000128,
      "v": 55
    },
    {
      "midi": 43,
      "hit": false,
      "t": 134117.57999999964,
      "d": 779.411374999996,
      "v": 64
    },
    {
      "midi": 50,
      "hit": false,
      "t": 134705.81499999962,
      "d": 328.4312083333498,
      "v": 93
    },
    {
      "midi": 55,
      "hit": false,
      "t": 134705.81499999962,
      "d": 485.29387500003213,
      "v": 79
    },
    {
      "midi": 43,
      "hit": false,
      "t": 134999.93249999965,
      "d": 98.03916666665464,
      "v": 61
    },
    {
      "midi": 50,
      "hit": false,
      "t": 135146.99124999964,
      "d": 49.01958333334187,
      "v": 87
    },
    {
      "midi": 45,
      "hit": false,
      "t": 135294.04999999964,
      "d": 730.3917916666542,
      "v": 58
    },
    {
      "midi": 52,
      "hit": false,
      "t": 135882.28499999963,
      "d": 470.5879999999888,
      "v": 73
    },
    {
      "midi": 57,
      "hit": false,
      "t": 135882.28499999963,
      "d": 514.7056250000023,
      "v": 74
    },
    {
      "midi": 45,
      "hit": false,
      "t": 136176.40249999962,
      "d": 98.03916666665464,
      "v": 66
    },
    {
      "midi": 50,
      "hit": false,
      "t": 136470.51999999964,
      "d": 686.2741666666407,
      "v": 98
    },
    {
      "midi": 57,
      "hit": false,
      "t": 137058.75499999963,
      "d": 372.5488333333342,
      "v": 69
    },
    {
      "midi": 62,
      "hit": false,
      "t": 137058.75499999963,
      "d": 441.1762499999895,
      "v": 73
    },
    {
      "midi": 50,
      "hit": false,
      "t": 137352.87249999962,
      "d": 73.5293750000128,
      "v": 73
    },
    {
      "midi": 62,
      "hit": false,
      "t": 137499.93124999962,
      "d": 58.8234999999986,
      "v": 62
    },
    {
      "midi": 57,
      "hit": false,
      "t": 137499.93124999962,
      "d": 68.62741666665534,
      "v": 73
    },
    {
      "midi": 45,
      "hit": false,
      "t": 137646.9899999996,
      "d": 794.1172499999811,
      "v": 66
    },
    {
      "midi": 57,
      "hit": false,
      "t": 138235.2249999996,
      "d": 612.744791666657,
      "v": 97
    },
    {
      "midi": 45,
      "hit": false,
      "t": 138529.3424999996,
      "d": 318.62729166666395,
      "v": 68
    },
    {
      "midi": 59,
      "hit": false,
      "t": 138823.4599999995,
      "d": 269.6077083333221,
      "v": 97
    },
    {
      "midi": 55,
      "hit": false,
      "t": 138823.4599999995,
      "d": 362.74491666664835,
      "v": 87
    },
    {
      "midi": 64,
      "hit": false,
      "t": 138823.4599999995,
      "d": 387.2547083333193,
      "v": 90
    },
    {
      "midi": 40,
      "hit": false,
      "t": 138823.4599999995,
      "d": 426.4703749999753,
      "v": 99
    },
    {
      "midi": 52,
      "hit": false,
      "t": 138823.45999999958,
      "d": 19.60783333334257,
      "v": 102
    },
    {
      "midi": 47,
      "hit": false,
      "t": 138823.45999999958,
      "d": 382.3527499999909,
      "v": 97
    },
    {
      "midi": 40,
      "hit": false,
      "t": 138823.45999999958,
      "d": 446.0782083333179,
      "v": 88
    },
    {
      "midi": 57,
      "hit": false,
      "t": 139411.69499999948,
      "d": 220.5881250000093,
      "v": 97
    },
    {
      "midi": 54,
      "hit": false,
      "t": 139411.69499999948,
      "d": 269.6077083333512,
      "v": 101
    },
    {
      "midi": 62,
      "hit": false,
      "t": 139411.69499999948,
      "d": 294.1175000000221,
      "v": 108
    },
    {
      "midi": 42,
      "hit": false,
      "t": 139411.69499999948,
      "d": 470.5880000000179,
      "v": 114
    },
    {
      "midi": 50,
      "hit": false,
      "t": 139411.69499999957,
      "d": 553.9212916666584,
      "v": 116
    },
    {
      "midi": 42,
      "hit": false,
      "t": 139411.69499999957,
      "d": 558.8232499999867,
      "v": 109
    },
    {
      "midi": 54,
      "hit": false,
      "t": 139411.69499999957,
      "d": 568.6271666666435,
      "v": 103
    },
    {
      "midi": 62,
      "hit": false,
      "t": 139999.9299999995,
      "d": 299.0194583333214,
      "v": 100
    },
    {
      "midi": 59,
      "hit": false,
      "t": 139999.9299999995,
      "d": 303.92141666664975,
      "v": 88
    },
    {
      "midi": 67,
      "hit": false,
      "t": 139999.9299999995,
      "d": 323.5292499999923,
      "v": 99
    },
    {
      "midi": 55,
      "hit": false,
      "t": 139999.9299999995,
      "d": 367.6468750000058,
      "v": 75
    },
    {
      "midi": 43,
      "hit": false,
      "t": 139999.9299999995,
      "d": 450.98016666667536,
      "v": 90
    },
    {
      "midi": 50,
      "hit": false,
      "t": 139999.92999999956,
      "d": 475.4899583333463,
      "v": 116
    },
    {
      "midi": 55,
      "hit": false,
      "t": 139999.92999999956,
      "d": 475.4899583333463,
      "v": 102
    },
    {
      "midi": 43,
      "hit": false,
      "t": 139999.92999999956,
      "d": 485.293875000003,
      "v": 97
    },
    {
      "midi": 61,
      "hit": false,
      "t": 140588.1649999995,
      "d": 367.6468750000058,
      "v": 96
    },
    {
      "midi": 69,
      "hit": false,
      "t": 140588.1649999995,
      "d": 397.0586250000051,
      "v": 95
    },
    {
      "midi": 45,
      "hit": false,
      "t": 140588.1649999995,
      "d": 416.6664583333477,
      "v": 109
    },
    {
      "midi": 64,
      "hit": false,
      "t": 140588.1649999995,
      "d": 421.56841666667606,
      "v": 93
    },
    {
      "midi": 57,
      "hit": false,
      "t": 140588.1649999995,
      "d": 480.39191666667466,
      "v": 90
    },
    {
      "midi": 45,
      "hit": false,
      "t": 140588.16499999957,
      "d": 426.4703750000044,
      "v": 104
    },
    {
      "midi": 52,
      "hit": false,
      "t": 140588.16499999957,
      "d": 549.01933333333,
      "v": 97
    },
    {
      "midi": 57,
      "hit": false,
      "t": 140588.16499999957,
      "d": 568.6271666666726,
      "v": 96
    },
    {
      "midi": 57,
      "hit": false,
      "t": 141176.39999999953,
      "d": 279.4116250000079,
      "v": 72
    },
    {
      "midi": 50,
      "hit": false,
      "t": 141176.39999999953,
      "d": 470.5880000000179,
      "v": 114
    },
    {
      "midi": 64,
      "hit": false,
      "t": 141176.39999999953,
      "d": 745.0976666666684,
      "v": 82
    },
    {
      "midi": 62,
      "hit": false,
      "t": 141176.39999999953,
      "d": 799.0192083333386,
      "v": 88
    },
    {
      "midi": 66,
      "hit": false,
      "t": 141176.39999999953,
      "d": 813.7250833333528,
      "v": 83
    },
    {
      "midi": 50,
      "hit": false,
      "t": 141176.3999999996,
      "d": 666.6663333333272,
      "v": 116
    },
    {
      "midi": 57,
      "hit": false,
      "t": 141470.51749999955,
      "d": 441.1762499999895,
      "v": 69
    },
    {
      "midi": 52,
      "hit": false,
      "t": 141764.63499999954,
      "d": 137.25483333333977,
      "v": 81
    },
    {
      "midi": 50,
      "hit": false,
      "t": 141764.63499999954,
      "d": 352.9409999999916,
      "v": 102
    },
    {
      "midi": 57,
      "hit": false,
      "t": 141764.63499999957,
      "d": 352.9410000000207,
      "v": 80
    },
    {
      "midi": 62,
      "hit": false,
      "t": 141764.63499999957,
      "d": 372.5488333333633,
      "v": 80
    },
    {
      "midi": 64,
      "hit": false,
      "t": 142058.75249999954,
      "d": 147.0587499999965,
      "v": 69
    },
    {
      "midi": 57,
      "hit": false,
      "t": 142058.75249999954,
      "d": 210.78420833332348,
      "v": 45
    },
    {
      "midi": 50,
      "hit": false,
      "t": 142058.7524999996,
      "d": 78.43133333334117,
      "v": 88
    },
    {
      "midi": 66,
      "hit": false,
      "t": 142205.81124999953,
      "d": 63.72545833332697,
      "v": 78
    },
    {
      "midi": 62,
      "hit": false,
      "t": 142205.8112499996,
      "d": 102.94112500001211,
      "v": 91
    },
    {
      "midi": 57,
      "hit": false,
      "t": 142205.8112499996,
      "d": 107.84308333334047,
      "v": 82
    },
    {
      "midi": 57,
      "hit": false,
      "t": 142352.86999999953,
      "d": 137.25483333333977,
      "v": 54
    },
    {
      "midi": 61,
      "hit": false,
      "t": 142352.86999999953,
      "d": 269.6077083333512,
      "v": 80
    },
    {
      "midi": 64,
      "hit": false,
      "t": 142352.86999999953,
      "d": 990.1955833333486,
      "v": 90
    },
    {
      "midi": 45,
      "hit": false,
      "t": 142352.86999999953,
      "d": 1029.4112500000047,
      "v": 81
    },
    {
      "midi": 45,
      "hit": false,
      "t": 142352.8699999996,
      "d": 49.01958333334187,
      "v": 68
    },
    {
      "midi": 57,
      "hit": false,
      "t": 142646.98749999955,
      "d": 63.72545833332697,
      "v": 61
    },
    {
      "midi": 45,
      "hit": false,
      "t": 142646.9874999996,
      "d": 485.293875000003,
      "v": 79
    },
    {
      "midi": 61,
      "hit": false,
      "t": 142794.04624999955,
      "d": 328.4312083333207,
      "v": 93
    },
    {
      "midi": 57,
      "hit": false,
      "t": 142794.04624999955,
      "d": 583.3330416666577,
      "v": 66
    },
    {
      "midi": 52,
      "hit": false,
      "t": 142941.1049999996,
      "d": 519.6075833333598,
      "v": 96
    },
    {
      "midi": 57,
      "hit": false,
      "t": 142941.1049999996,
      "d": 529.4115000000165,
      "v": 98
    },
    {
      "midi": 61,
      "hit": false,
      "t": 143235.22249999954,
      "d": 142.15679166666814,
      "v": 85
    },
    {
      "midi": 45,
      "hit": false,
      "t": 143235.22249999963,
      "d": 53.92154166667024,
      "v": 73
    },
    {
      "midi": 45,
      "hit": false,
      "t": 143529.33999999953,
      "d": 107.84308333334047,
      "v": 56
    },
    {
      "midi": 43,
      "hit": false,
      "t": 143529.33999999953,
      "d": 480.39191666667466,
      "v": 58
    },
    {
      "midi": 57,
      "hit": false,
      "t": 143529.33999999953,
      "d": 764.7055000000109,
      "v": 87
    },
    {
      "midi": 55,
      "hit": false,
      "t": 143529.33999999953,
      "d": 769.6074583333393,
      "v": 72
    },
    {
      "midi": 62,
      "hit": false,
      "t": 143529.33999999953,
      "d": 1024.5092916666763,
      "v": 97
    },
    {
      "midi": 43,
      "hit": false,
      "t": 143529.33999999962,
      "d": 740.1957083333109,
      "v": 82
    },
    {
      "midi": 43,
      "hit": false,
      "t": 144117.57499999955,
      "d": 436.27429166666116,
      "v": 87
    },
    {
      "midi": 50,
      "hit": false,
      "t": 144117.5749999996,
      "d": 362.74491666664835,
      "v": 116
    },
    {
      "midi": 55,
      "hit": false,
      "t": 144117.5749999996,
      "d": 392.15666666664765,
      "v": 98
    },
    {
      "midi": 55,
      "hit": false,
      "t": 144411.69249999954,
      "d": 73.5293750000128,
      "v": 59
    },
    {
      "midi": 57,
      "hit": false,
      "t": 144411.69249999954,
      "d": 132.3528750000114,
      "v": 79
    },
    {
      "midi": 43,
      "hit": false,
      "t": 144411.6924999996,
      "d": 102.941124999983,
      "v": 64
    },
    {
      "midi": 50,
      "hit": false,
      "t": 144558.7512499996,
      "d": 83.33329166666954,
      "v": 104
    },
    {
      "midi": 55,
      "hit": false,
      "t": 144558.7512499996,
      "d": 102.94112500001211,
      "v": 73
    },
    {
      "midi": 57,
      "hit": false,
      "t": 144705.80999999953,
      "d": 200.98029166666674,
      "v": 72
    },
    {
      "midi": 61,
      "hit": false,
      "t": 144705.80999999953,
      "d": 357.84295833332,
      "v": 66
    },
    {
      "midi": 64,
      "hit": false,
      "t": 144705.80999999953,
      "d": 367.6468749999767,
      "v": 72
    },
    {
      "midi": 45,
      "hit": false,
      "t": 144705.80999999953,
      "d": 553.9212916666584,
      "v": 91
    },
    {
      "midi": 45,
      "hit": false,
      "t": 144705.80999999962,
      "d": 68.62741666665534,
      "v": 76
    },
    {
      "midi": 57,
      "hit": false,
      "t": 144999.92749999953,
      "d": 98.03916666665464,
      "v": 65
    },
    {
      "midi": 45,
      "hit": false,
      "t": 144999.9274999996,
      "d": 514.7056250000023,
      "v": 80
    },
    {
      "midi": 64,
      "hit": false,
      "t": 145146.98624999952,
      "d": 367.6468750000058,
      "v": 82
    },
    {
      "midi": 59,
      "hit": false,
      "t": 145146.98624999952,
      "d": 387.2547083333484,
      "v": 87
    },
    {
      "midi": 45,
      "hit": false,
      "t": 145294.04499999952,
      "d": 313.7253333333647,
      "v": 72
    },
    {
      "midi": 57,
      "hit": false,
      "t": 145294.0449999996,
      "d": 269.6077083333512,
      "v": 88
    },
    {
      "midi": 52,
      "hit": false,
      "t": 145294.0449999996,
      "d": 284.3135833333654,
      "v": 82
    },
    {
      "midi": 61,
      "hit": false,
      "t": 145588.16249999954,
      "d": 245.09791666668025,
      "v": 76
    },
    {
      "midi": 59,
      "hit": false,
      "t": 145882.27999999956,
      "d": 254.90183333333698,
      "v": 90
    },
    {
      "midi": 55,
      "hit": false,
      "t": 145882.27999999956,
      "d": 387.2547083333484,
      "v": 84
    },
    {
      "midi": 40,
      "hit": false,
      "t": 145882.27999999956,
      "d": 450.98016666667536,
      "v": 102
    },
    {
      "midi": 64,
      "hit": false,
      "t": 145882.27999999956,
      "d": 514.7056250000023,
      "v": 90
    },
    {
      "midi": 47,
      "hit": false,
      "t": 145882.27999999965,
      "d": 446.0782083333179,
      "v": 88
    },
    {
      "midi": 40,
      "hit": false,
      "t": 145882.27999999965,
      "d": 455.8821249999746,
      "v": 98
    },
    {
      "midi": 52,
      "hit": false,
      "t": 145882.27999999965,
      "d": 475.4899583333172,
      "v": 82
    },
    {
      "midi": 57,
      "hit": false,
      "t": 146470.51499999958,
      "d": 220.5881250000093,
      "v": 88
    },
    {
      "midi": 54,
      "hit": false,
      "t": 146470.51499999958,
      "d": 274.50966666667955,
      "v": 89
    },
    {
      "midi": 62,
      "hit": false,
      "t": 146470.51499999958,
      "d": 431.3723333333619,
      "v": 91
    },
    {
      "midi": 42,
      "hit": false,
      "t": 146470.51499999958,
      "d": 446.0782083333761,
      "v": 110
    },
    {
      "midi": 42,
      "hit": false,
      "t": 146470.51499999964,
      "d": 465.68604166666046,
      "v": 97
    },
    {
      "midi": 50,
      "hit": false,
      "t": 146470.51499999964,
      "d": 490.1958333333314,
      "v": 116
    },
    {
      "midi": 54,
      "hit": false,
      "t": 146470.51499999964,
      "d": 519.6075833333307,
      "v": 103
    },
    {
      "midi": 59,
      "hit": false,
      "t": 147058.74999999962,
      "d": 318.62729166666395,
      "v": 97
    },
    {
      "midi": 55,
      "hit": false,
      "t": 147058.74999999962,
      "d": 323.5292499999923,
      "v": 95
    },
    {
      "midi": 62,
      "hit": false,
      "t": 147058.74999999962,
      "d": 328.4312083333207,
      "v": 100
    },
    {
      "midi": 43,
      "hit": false,
      "t": 147058.74999999962,
      "d": 436.27429166666116,
      "v": 100
    },
    {
      "midi": 50,
      "hit": false,
      "t": 147058.74999999962,
      "d": 392.15666666664765,
      "v": 116
    },
    {
      "midi": 43,
      "hit": false,
      "t": 147058.74999999962,
      "d": 397.058624999976,
      "v": 93
    },
    {
      "midi": 55,
      "hit": false,
      "t": 147058.74999999962,
      "d": 406.86254166663275,
      "v": 108
    },
    {
      "midi": 47,
      "hit": false,
      "t": 147646.98499999958,
      "d": 499.9997499999881,
      "v": 96
    },
    {
      "midi": 59,
      "hit": false,
      "t": 147646.98499999958,
      "d": 499.9997499999881,
      "v": 87
    },
    {
      "midi": 54,
      "hit": false,
      "t": 147646.98499999958,
      "d": 509.80366666664486,
      "v": 84
    },
    {
      "midi": 48,
      "hit": false,
      "t": 147646.9849999996,
      "d": 68.62741666665534,
      "v": 95
    },
    {
      "midi": 47,
      "hit": false,
      "t": 147646.9849999996,
      "d": 78.43133333331207,
      "v": 95
    },
    {
      "midi": 62,
      "hit": false,
      "t": 147646.9849999996,
      "d": 333.33316666664905,
      "v": 99
    },
    {
      "midi": 59,
      "hit": false,
      "t": 147646.9849999996,
      "d": 416.6664583333186,
      "v": 91
    },
    {
      "midi": 66,
      "hit": false,
      "t": 147646.9849999996,
      "d": 499.9997499999881,
      "v": 110
    },
    {
      "midi": 52,
      "hit": false,
      "t": 148235.21999999956,
      "d": 480.39191666667466,
      "v": 115
    },
    {
      "midi": 57,
      "hit": false,
      "t": 148235.21999999956,
      "d": 794.1172500000102,
      "v": 103
    },
    {
      "midi": 57,
      "hit": false,
      "t": 148235.2199999996,
      "d": 171.56854166666744,
      "v": 100
    },
    {
      "midi": 69,
      "hit": false,
      "t": 148235.2199999996,
      "d": 475.4899583333172,
      "v": 108
    },
    {
      "midi": 61,
      "hit": false,
      "t": 148235.2199999996,
      "d": 495.09779166665976,
      "v": 107
    },
    {
      "midi": 64,
      "hit": false,
      "t": 148235.2199999996,
      "d": 524.5095416666591,
      "v": 99
    },
    {
      "midi": 45,
      "hit": false,
      "t": 148235.2199999996,
      "d": 789.2152916666528,
      "v": 102
    },
    {
      "midi": 45,
      "hit": false,
      "t": 148382.27874999956,
      "d": 696.0780833333556,
      "v": 88
    },
    {
      "midi": 57,
      "hit": false,
      "t": 148529.3374999996,
      "d": 225.49008333333768,
      "v": 65
    },
    {
      "midi": 57,
      "hit": false,
      "t": 148823.45499999958,
      "d": 205.8822499999951,
      "v": 102
    },
    {
      "midi": 64,
      "hit": false,
      "t": 148823.45499999958,
      "d": 225.49008333333768,
      "v": 93
    },
    {
      "midi": 61,
      "hit": false,
      "t": 148823.45499999958,
      "d": 235.2939999999944,
      "v": 101
    },
    {
      "midi": 69,
      "hit": false,
      "t": 148823.45499999958,
      "d": 264.7057499999937,
      "v": 84
    },
    {
      "midi": 52,
      "hit": false,
      "t": 148823.45499999958,
      "d": 249.99987500000861,
      "v": 88
    },
    {
      "midi": 45,
      "hit": false,
      "t": 149117.57249999957,
      "d": 117.6469999999972,
      "v": 70
    },
    {
      "midi": 45,
      "hit": false,
      "t": 149117.57249999957,
      "d": 181.37245833332418,
      "v": 79
    },
    {
      "midi": 47,
      "hit": false,
      "t": 149411.68999999957,
      "d": 191.17637500001,
      "v": 114
    },
    {
      "midi": 59,
      "hit": false,
      "t": 149411.68999999957,
      "d": 235.29400000002352,
      "v": 95
    },
    {
      "midi": 63,
      "hit": false,
      "t": 149411.68999999957,
      "d": 348.03904166669236,
      "v": 107
    },
    {
      "midi": 66,
      "hit": false,
      "t": 149411.68999999957,
      "d": 357.8429583333491,
      "v": 107
    },
    {
      "midi": 71,
      "hit": false,
      "t": 149411.68999999957,
      "d": 367.6468750000058,
      "v": 93
    },
    {
      "midi": 47,
      "hit": false,
      "t": 149411.68999999957,
      "d": 230.39204166666605,
      "v": 96
    },
    {
      "midi": 54,
      "hit": false,
      "t": 149411.68999999957,
      "d": 367.6468750000058,
      "v": 105
    },
    {
      "midi": 59,
      "hit": false,
      "t": 149411.68999999957,
      "d": 1083.332791666675,
      "v": 104
    },
    {
      "midi": 47,
      "hit": false,
      "t": 149705.80749999956,
      "d": 176.4705000000249,
      "v": 82
    },
    {
      "midi": 47,
      "hit": false,
      "t": 149705.8074999996,
      "d": 117.6469999999972,
      "v": 72
    },
    {
      "midi": 63,
      "hit": false,
      "t": 149852.86624999958,
      "d": 441.1762499999895,
      "v": 87
    },
    {
      "midi": 66,
      "hit": false,
      "t": 149852.86624999958,
      "d": 499.9997499999881,
      "v": 87
    },
    {
      "midi": 71,
      "hit": false,
      "t": 149852.86624999958,
      "d": 602.9408750000002,
      "v": 79
    },
    {
      "midi": 54,
      "hit": false,
      "t": 149852.86624999958,
      "d": 328.4312083333207,
      "v": 87
    },
    {
      "midi": 47,
      "hit": false,
      "t": 149999.92499999958,
      "d": 352.9409999999916,
      "v": 114
    },
    {
      "midi": 47,
      "hit": false,
      "t": 149999.92499999958,
      "d": 519.6075833333307,
      "v": 97
    },
    {
      "midi": 59,
      "hit": false,
      "t": 150294.04249999957,
      "d": 176.4705000000249,
      "v": 88
    },
    {
      "midi": 54,
      "hit": false,
      "t": 150294.04249999957,
      "d": 220.5881250000093,
      "v": 88
    },
    {
      "midi": 40,
      "hit": false,
      "t": 150588.15999999957,
      "d": 764.7054999999818,
      "v": 111
    },
    {
      "midi": 52,
      "hit": false,
      "t": 150588.1599999996,
      "d": 480.39191666664556,
      "v": 114
    },
    {
      "midi": 68,
      "hit": false,
      "t": 150588.1599999996,
      "d": 617.6467499999853,
      "v": 110
    },
    {
      "midi": 64,
      "hit": false,
      "t": 150588.1599999996,
      "d": 627.4506666666421,
      "v": 100
    },
    {
      "midi": 59,
      "hit": false,
      "t": 150588.1599999996,
      "d": 656.8624166666414,
      "v": 84
    },
    {
      "midi": 47,
      "hit": false,
      "t": 151176.39499999955,
      "d": 117.6469999999972,
      "v": 97
    },
    {
      "midi": 52,
      "hit": false,
      "t": 151176.39499999955,
      "d": 137.25483333333977,
      "v": 102
    },
    {
      "midi": 52,
      "hit": false,
      "t": 151176.39499999958,
      "d": 372.5488333333342,
      "v": 114
    },
    {
      "midi": 59,
      "hit": false,
      "t": 151210.70870833288,
      "d": 63.72545833332697,
      "v": 73
    },
    {
      "midi": 40,
      "hit": false,
      "t": 151470.51249999955,
      "d": 63.72545833332697,
      "v": 74
    },
    {
      "midi": 64,
      "hit": false,
      "t": 151470.51249999955,
      "d": 102.941124999983,
      "v": 82
    },
    {
      "midi": 66,
      "hit": false,
      "t": 151470.51249999958,
      "d": 166.66658333333908,
      "v": 87
    },
    {
      "midi": 59,
      "hit": false,
      "t": 151470.51249999958,
      "d": 225.49008333333768,
      "v": 64
    },
    {
      "midi": 71,
      "hit": false,
      "t": 151470.51249999958,
      "d": 249.99987500000861,
      "v": 77
    },
    {
      "midi": 68,
      "hit": false,
      "t": 151617.57124999957,
      "d": 107.84308333334047,
      "v": 87
    },
    {
      "midi": 47,
      "hit": false,
      "t": 151764.62999999954,
      "d": 1068.6269166666607,
      "v": 81
    },
    {
      "midi": 68,
      "hit": false,
      "t": 151764.62999999957,
      "d": 39.215666666656034,
      "v": 65
    },
    {
      "midi": 59,
      "hit": false,
      "t": 151764.62999999957,
      "d": 225.49008333330858,
      "v": 54
    },
    {
      "midi": 63,
      "hit": false,
      "t": 151764.62999999957,
      "d": 333.33316666661995,
      "v": 101
    },
    {
      "midi": 47,
      "hit": false,
      "t": 151764.62999999957,
      "d": 637.2545833332988,
      "v": 112
    },
    {
      "midi": 66,
      "hit": false,
      "t": 151764.62999999957,
      "d": 936.2740416666202,
      "v": 110
    },
    {
      "midi": 66,
      "hit": false,
      "t": 151769.53195833287,
      "d": 2367.6458749999874,
      "v": 102
    },
    {
      "midi": 59,
      "hit": false,
      "t": 152058.74749999953,
      "d": 499.9997499999881,
      "v": 74
    },
    {
      "midi": 63,
      "hit": false,
      "t": 152205.80624999953,
      "d": 343.1370833333349,
      "v": 110
    },
    {
      "midi": 54,
      "hit": false,
      "t": 152352.86499999953,
      "d": 544.1173750000016,
      "v": 72
    },
    {
      "midi": 59,
      "hit": false,
      "t": 152352.86499999953,
      "d": 558.8232500000158,
      "v": 80
    },
    {
      "midi": 47,
      "hit": false,
      "t": 152646.98249999952,
      "d": 53.92154166667024,
      "v": 88
    },
    {
      "midi": 63,
      "hit": false,
      "t": 152646.98249999952,
      "d": 68.62741666668444,
      "v": 71
    },
    {
      "midi": 59,
      "hit": false,
      "t": 152646.98249999952,
      "d": 132.3528750000114,
      "v": 85
    },
    {
      "midi": 49,
      "hit": false,
      "t": 152941.09999999954,
      "d": 455.8821250000037,
      "v": 99
    },
    {
      "midi": 61,
      "hit": false,
      "t": 152941.09999999954,
      "d": 833.3329166666954,
      "v": 101
    },
    {
      "midi": 64,
      "hit": false,
      "t": 152941.09999999954,
      "d": 936.2740416667075,
      "v": 95
    },
    {
      "midi": 56,
      "hit": false,
      "t": 153235.21749999953,
      "d": 431.3723333333619,
      "v": 52
    },
    {
      "midi": 61,
      "hit": false,
      "t": 153529.33499999953,
      "d": 529.4114999999874,
      "v": 73
    },
    {
      "midi": 56,
      "hit": false,
      "t": 153529.33499999953,
      "d": 534.3134583333158,
      "v": 67
    },
    {
      "midi": 49,
      "hit": false,
      "t": 153529.33499999956,
      "d": 308.8233750000363,
      "v": 114
    },
    {
      "midi": 49,
      "hit": false,
      "t": 153823.45249999952,
      "d": 93.13720833332627,
      "v": 66
    },
    {
      "midi": 56,
      "hit": false,
      "t": 153823.45249999958,
      "d": 44.117625000013504,
      "v": 54
    },
    {
      "midi": 45,
      "hit": false,
      "t": 154117.5699999995,
      "d": 1034.313208333333,
      "v": 79
    },
    {
      "midi": 57,
      "hit": false,
      "t": 154117.56999999957,
      "d": 196.07833333333838,
      "v": 76
    },
    {
      "midi": 59,
      "hit": false,
      "t": 154117.56999999957,
      "d": 352.9409999999916,
      "v": 81
    },
    {
      "midi": 61,
      "hit": false,
      "t": 154117.56999999957,
      "d": 382.3527499999909,
      "v": 83
    },
    {
      "midi": 64,
      "hit": false,
      "t": 154117.56999999957,
      "d": 392.15666666664765,
      "v": 76
    },
    {
      "midi": 45,
      "hit": false,
      "t": 154117.56999999957,
      "d": 436.27429166666116,
      "v": 100
    },
    {
      "midi": 57,
      "hit": false,
      "t": 154142.07979166618,
      "d": 308.8233750000072,
      "v": 74
    },
    {
      "midi": 57,
      "hit": false,
      "t": 154411.68749999956,
      "d": 93.13720833332627,
      "v": 72
    },
    {
      "midi": 57,
      "hit": false,
      "t": 154558.74624999956,
      "d": 323.5292499999923,
      "v": 74
    },
    {
      "midi": 64,
      "hit": false,
      "t": 154558.74624999956,
      "d": 455.8821250000037,
      "v": 91
    },
    {
      "midi": 59,
      "hit": false,
      "t": 154558.74624999956,
      "d": 470.5880000000179,
      "v": 95
    },
    {
      "midi": 52,
      "hit": false,
      "t": 154705.80499999953,
      "d": 499.9997499999881,
      "v": 87
    },
    {
      "midi": 57,
      "hit": false,
      "t": 154705.80499999953,
      "d": 499.9997499999881,
      "v": 102
    },
    {
      "midi": 45,
      "hit": false,
      "t": 154705.80499999956,
      "d": 348.03904166669236,
      "v": 102
    },
    {
      "midi": 76,
      "hit": false,
      "t": 154745.02066666618,
      "d": 269.6077083333221,
      "v": 116
    },
    {
      "midi": 71,
      "hit": false,
      "t": 154745.02066666618,
      "d": 279.4116249999788,
      "v": 116
    },
    {
      "midi": 64,
      "hit": false,
      "t": 154745.02066666618,
      "d": 372.5488333333342,
      "v": 96
    },
    {
      "midi": 57,
      "hit": false,
      "t": 154999.92249999955,
      "d": 102.94112500004121,
      "v": 72
    },
    {
      "midi": 62,
      "hit": false,
      "t": 155097.96166666618,
      "d": 58.8234999999986,
      "v": 54
    },
    {
      "midi": 60,
      "hit": false,
      "t": 155142.0792916662,
      "d": 44.1176249999844,
      "v": 66
    },
    {
      "midi": 59,
      "hit": false,
      "t": 155181.29495833284,
      "d": 34.31370833332767,
      "v": 80
    },
    {
      "midi": 57,
      "hit": false,
      "t": 155210.70670833284,
      "d": 24.509791666670935,
      "v": 74
    },
    {
      "midi": 55,
      "hit": false,
      "t": 155235.21649999951,
      "d": 34.31370833332767,
      "v": 73
    },
    {
      "midi": 40,
      "hit": false,
      "t": 155294.0399999995,
      "d": 764.7054999999818,
      "v": 111
    },
    {
      "midi": 52,
      "hit": false,
      "t": 155294.0399999996,
      "d": 480.39191666664556,
      "v": 114
    },
    {
      "midi": 68,
      "hit": false,
      "t": 155294.0399999996,
      "d": 617.6467499999853,
      "v": 110
    },
    {
      "midi": 64,
      "hit": false,
      "t": 155294.0399999996,
      "d": 627.4506666666421,
      "v": 100
    },
    {
      "midi": 59,
      "hit": false,
      "t": 155294.0399999996,
      "d": 656.8624166666414,
      "v": 84
    },
    {
      "midi": 47,
      "hit": false,
      "t": 155882.2749999995,
      "d": 117.6469999999972,
      "v": 97
    },
    {
      "midi": 52,
      "hit": false,
      "t": 155882.2749999995,
      "d": 137.25483333333977,
      "v": 102
    },
    {
      "midi": 52,
      "hit": false,
      "t": 155882.2749999996,
      "d": 372.5488333333342,
      "v": 114
    },
    {
      "midi": 59,
      "hit": false,
      "t": 155916.58870833283,
      "d": 63.72545833332697,
      "v": 73
    },
    {
      "midi": 40,
      "hit": false,
      "t": 156176.3924999995,
      "d": 63.72545833332697,
      "v": 74
    },
    {
      "midi": 64,
      "hit": false,
      "t": 156176.3924999995,
      "d": 102.941124999983,
      "v": 82
    },
    {
      "midi": 66,
      "hit": false,
      "t": 156176.39249999958,
      "d": 166.66658333333908,
      "v": 87
    },
    {
      "midi": 59,
      "hit": false,
      "t": 156176.39249999958,
      "d": 225.49008333333768,
      "v": 64
    },
    {
      "midi": 71,
      "hit": false,
      "t": 156176.39249999958,
      "d": 249.99987500000861,
      "v": 77
    },
    {
      "midi": 68,
      "hit": false,
      "t": 156323.45124999958,
      "d": 107.84308333334047,
      "v": 87
    },
    {
      "midi": 47,
      "hit": false,
      "t": 156470.50999999949,
      "d": 1068.6269166666607,
      "v": 81
    },
    {
      "midi": 68,
      "hit": false,
      "t": 156470.50999999957,
      "d": 39.215666666656034,
      "v": 65
    },
    {
      "midi": 59,
      "hit": false,
      "t": 156470.50999999957,
      "d": 225.49008333330858,
      "v": 54
    },
    {
      "midi": 63,
      "hit": false,
      "t": 156470.50999999957,
      "d": 333.33316666661995,
      "v": 101
    },
    {
      "midi": 47,
      "hit": false,
      "t": 156470.50999999957,
      "d": 637.2545833332988,
      "v": 112
    },
    {
      "midi": 66,
      "hit": false,
      "t": 156470.50999999957,
      "d": 936.2740416666202,
      "v": 110
    },
    {
      "midi": 66,
      "hit": false,
      "t": 156475.4119583328,
      "d": 2367.6458749999874,
      "v": 102
    },
    {
      "midi": 59,
      "hit": false,
      "t": 156764.62749999954,
      "d": 499.9997499999881,
      "v": 74
    },
    {
      "midi": 63,
      "hit": false,
      "t": 156911.68624999953,
      "d": 343.1370833333349,
      "v": 110
    },
    {
      "midi": 54,
      "hit": false,
      "t": 157058.74499999947,
      "d": 544.1173750000016,
      "v": 72
    },
    {
      "midi": 59,
      "hit": false,
      "t": 157058.74499999947,
      "d": 558.8232500000158,
      "v": 80
    },
    {
      "midi": 47,
      "hit": false,
      "t": 157352.86249999952,
      "d": 53.92154166667024,
      "v": 88
    },
    {
      "midi": 63,
      "hit": false,
      "t": 157352.86249999952,
      "d": 68.62741666668444,
      "v": 71
    },
    {
      "midi": 59,
      "hit": false,
      "t": 157352.86249999952,
      "d": 132.3528750000114,
      "v": 85
    },
    {
      "midi": 49,
      "hit": false,
      "t": 157646.97999999954,
      "d": 455.8821250000037,
      "v": 99
    },
    {
      "midi": 61,
      "hit": false,
      "t": 157646.97999999954,
      "d": 833.3329166666954,
      "v": 101
    },
    {
      "midi": 64,
      "hit": false,
      "t": 157646.97999999954,
      "d": 936.2740416667075,
      "v": 95
    },
    {
      "midi": 56,
      "hit": false,
      "t": 157941.09749999954,
      "d": 431.3723333333619,
      "v": 52
    },
    {
      "midi": 61,
      "hit": false,
      "t": 158235.21499999947,
      "d": 529.4114999999874,
      "v": 73
    },
    {
      "midi": 56,
      "hit": false,
      "t": 158235.21499999947,
      "d": 534.3134583333158,
      "v": 67
    },
    {
      "midi": 49,
      "hit": false,
      "t": 158235.21499999956,
      "d": 308.8233750000363,
      "v": 114
    },
    {
      "midi": 49,
      "hit": false,
      "t": 158529.33249999947,
      "d": 93.13720833332627,
      "v": 66
    },
    {
      "midi": 56,
      "hit": false,
      "t": 158529.33249999958,
      "d": 44.117625000013504,
      "v": 54
    },
    {
      "midi": 45,
      "hit": false,
      "t": 158823.44999999946,
      "d": 1034.313208333333,
      "v": 79
    },
    {
      "midi": 57,
      "hit": false,
      "t": 158823.44999999958,
      "d": 196.07833333333838,
      "v": 76
    },
    {
      "midi": 59,
      "hit": false,
      "t": 158823.44999999958,
      "d": 352.9409999999916,
      "v": 81
    },
    {
      "midi": 61,
      "hit": false,
      "t": 158823.44999999958,
      "d": 382.3527499999909,
      "v": 83
    },
    {
      "midi": 64,
      "hit": false,
      "t": 158823.44999999958,
      "d": 392.15666666664765,
      "v": 76
    },
    {
      "midi": 45,
      "hit": false,
      "t": 158823.44999999958,
      "d": 436.27429166666116,
      "v": 100
    },
    {
      "midi": 57,
      "hit": false,
      "t": 158847.95979166613,
      "d": 308.8233750000072,
      "v": 74
    },
    {
      "midi": 57,
      "hit": false,
      "t": 159117.56749999957,
      "d": 93.13720833332627,
      "v": 72
    },
    {
      "midi": 57,
      "hit": false,
      "t": 159264.62624999956,
      "d": 323.5292499999923,
      "v": 74
    },
    {
      "midi": 64,
      "hit": false,
      "t": 159264.62624999956,
      "d": 455.8821250000037,
      "v": 91
    },
    {
      "midi": 59,
      "hit": false,
      "t": 159264.62624999956,
      "d": 470.5880000000179,
      "v": 95
    },
    {
      "midi": 52,
      "hit": false,
      "t": 159411.68499999947,
      "d": 499.9997499999881,
      "v": 87
    },
    {
      "midi": 57,
      "hit": false,
      "t": 159411.68499999947,
      "d": 499.9997499999881,
      "v": 102
    },
    {
      "midi": 45,
      "hit": false,
      "t": 159411.68499999956,
      "d": 348.03904166669236,
      "v": 102
    },
    {
      "midi": 76,
      "hit": false,
      "t": 159450.90066666613,
      "d": 269.6077083333221,
      "v": 116
    },
    {
      "midi": 71,
      "hit": false,
      "t": 159450.90066666613,
      "d": 279.4116249999788,
      "v": 116
    },
    {
      "midi": 64,
      "hit": false,
      "t": 159450.90066666613,
      "d": 372.5488333333342,
      "v": 96
    },
    {
      "midi": 57,
      "hit": false,
      "t": 159705.80249999955,
      "d": 102.94112500004121,
      "v": 72
    },
    {
      "midi": 62,
      "hit": false,
      "t": 159803.84166666612,
      "d": 58.8234999999986,
      "v": 54
    },
    {
      "midi": 60,
      "hit": false,
      "t": 159847.95929166613,
      "d": 44.1176249999844,
      "v": 66
    },
    {
      "midi": 59,
      "hit": false,
      "t": 159887.1749583328,
      "d": 34.31370833332767,
      "v": 80
    },
    {
      "midi": 57,
      "hit": false,
      "t": 159916.5867083328,
      "d": 24.509791666670935,
      "v": 74
    },
    {
      "midi": 55,
      "hit": false,
      "t": 159941.09649999946,
      "d": 34.31370833332767,
      "v": 73
    },
    {
      "midi": 40,
      "hit": false,
      "t": 159999.91999999946,
      "d": 764.7054999999818,
      "v": 111
    },
    {
      "midi": 52,
      "hit": false,
      "t": 159999.9199999996,
      "d": 480.39191666664556,
      "v": 114
    },
    {
      "midi": 68,
      "hit": false,
      "t": 159999.9199999996,
      "d": 617.6467499999853,
      "v": 110
    },
    {
      "midi": 64,
      "hit": false,
      "t": 159999.9199999996,
      "d": 627.4506666666421,
      "v": 100
    },
    {
      "midi": 59,
      "hit": false,
      "t": 159999.9199999996,
      "d": 656.8624166666414,
      "v": 84
    },
    {
      "midi": 47,
      "hit": false,
      "t": 160588.15499999945,
      "d": 117.6469999999972,
      "v": 97
    },
    {
      "midi": 52,
      "hit": false,
      "t": 160588.15499999945,
      "d": 137.25483333333977,
      "v": 102
    },
    {
      "midi": 52,
      "hit": false,
      "t": 160588.1549999996,
      "d": 372.5488333333342,
      "v": 114
    },
    {
      "midi": 59,
      "hit": false,
      "t": 160622.46870833277,
      "d": 63.72545833332697,
      "v": 73
    },
    {
      "midi": 40,
      "hit": false,
      "t": 160882.27249999944,
      "d": 63.72545833332697,
      "v": 74
    },
    {
      "midi": 64,
      "hit": false,
      "t": 160882.27249999944,
      "d": 102.941124999983,
      "v": 82
    },
    {
      "midi": 66,
      "hit": false,
      "t": 160882.27249999958,
      "d": 166.66658333333908,
      "v": 87
    },
    {
      "midi": 59,
      "hit": false,
      "t": 160882.27249999958,
      "d": 225.49008333333768,
      "v": 64
    },
    {
      "midi": 71,
      "hit": false,
      "t": 160882.27249999958,
      "d": 249.99987500000861,
      "v": 77
    },
    {
      "midi": 68,
      "hit": false,
      "t": 161029.33124999958,
      "d": 107.84308333334047,
      "v": 87
    },
    {
      "midi": 47,
      "hit": false,
      "t": 161176.38999999943,
      "d": 1068.6269166666607,
      "v": 81
    },
    {
      "midi": 68,
      "hit": false,
      "t": 161176.38999999958,
      "d": 39.215666666656034,
      "v": 65
    },
    {
      "midi": 59,
      "hit": false,
      "t": 161176.38999999958,
      "d": 225.49008333330858,
      "v": 54
    },
    {
      "midi": 63,
      "hit": false,
      "t": 161176.38999999958,
      "d": 333.33316666661995,
      "v": 101
    },
    {
      "midi": 47,
      "hit": false,
      "t": 161176.38999999958,
      "d": 637.2545833332988,
      "v": 112
    },
    {
      "midi": 66,
      "hit": false,
      "t": 161176.38999999958,
      "d": 936.2740416666202,
      "v": 110
    },
    {
      "midi": 66,
      "hit": false,
      "t": 161181.29195833276,
      "d": 2367.6458749999874,
      "v": 102
    },
    {
      "midi": 59,
      "hit": false,
      "t": 161470.50749999954,
      "d": 499.9997499999881,
      "v": 74
    },
    {
      "midi": 63,
      "hit": false,
      "t": 161617.56624999954,
      "d": 343.1370833333349,
      "v": 110
    },
    {
      "midi": 54,
      "hit": false,
      "t": 161764.62499999942,
      "d": 544.1173750000016,
      "v": 72
    },
    {
      "midi": 59,
      "hit": false,
      "t": 161764.62499999942,
      "d": 558.8232500000158,
      "v": 80
    },
    {
      "midi": 47,
      "hit": false,
      "t": 162058.74249999953,
      "d": 53.92154166667024,
      "v": 88
    },
    {
      "midi": 63,
      "hit": false,
      "t": 162058.74249999953,
      "d": 68.62741666668444,
      "v": 71
    },
    {
      "midi": 59,
      "hit": false,
      "t": 162058.74249999953,
      "d": 132.3528750000114,
      "v": 85
    },
    {
      "midi": 49,
      "hit": false,
      "t": 162352.85999999955,
      "d": 455.8821250000037,
      "v": 99
    },
    {
      "midi": 61,
      "hit": false,
      "t": 162352.85999999955,
      "d": 833.3329166666954,
      "v": 101
    },
    {
      "midi": 64,
      "hit": false,
      "t": 162352.85999999955,
      "d": 936.2740416667075,
      "v": 95
    },
    {
      "midi": 56,
      "hit": false,
      "t": 162646.97749999954,
      "d": 431.3723333333619,
      "v": 52
    },
    {
      "midi": 61,
      "hit": false,
      "t": 162941.09499999942,
      "d": 529.4114999999874,
      "v": 73
    },
    {
      "midi": 56,
      "hit": false,
      "t": 162941.09499999942,
      "d": 534.3134583333158,
      "v": 67
    },
    {
      "midi": 49,
      "hit": false,
      "t": 162941.09499999956,
      "d": 308.8233750000363,
      "v": 114
    },
    {
      "midi": 49,
      "hit": false,
      "t": 163235.2124999994,
      "d": 93.13720833332627,
      "v": 66
    },
    {
      "midi": 56,
      "hit": false,
      "t": 163235.2124999996,
      "d": 44.117625000013504,
      "v": 54
    },
    {
      "midi": 45,
      "hit": false,
      "t": 163529.3299999994,
      "d": 1034.313208333333,
      "v": 79
    },
    {
      "midi": 57,
      "hit": false,
      "t": 163529.32999999958,
      "d": 196.07833333333838,
      "v": 76
    },
    {
      "midi": 59,
      "hit": false,
      "t": 163529.32999999958,
      "d": 352.9409999999916,
      "v": 81
    },
    {
      "midi": 61,
      "hit": false,
      "t": 163529.32999999958,
      "d": 382.3527499999909,
      "v": 83
    },
    {
      "midi": 64,
      "hit": false,
      "t": 163529.32999999958,
      "d": 392.15666666664765,
      "v": 76
    },
    {
      "midi": 45,
      "hit": false,
      "t": 163529.32999999958,
      "d": 436.27429166666116,
      "v": 100
    },
    {
      "midi": 57,
      "hit": false,
      "t": 163553.83979166608,
      "d": 308.8233750000072,
      "v": 74
    },
    {
      "midi": 57,
      "hit": false,
      "t": 163823.44749999957,
      "d": 93.13720833332627,
      "v": 72
    },
    {
      "midi": 57,
      "hit": false,
      "t": 163970.50624999957,
      "d": 323.5292499999923,
      "v": 74
    },
    {
      "midi": 64,
      "hit": false,
      "t": 163970.50624999957,
      "d": 455.8821250000037,
      "v": 91
    },
    {
      "midi": 59,
      "hit": false,
      "t": 163970.50624999957,
      "d": 470.5880000000179,
      "v": 95
    },
    {
      "midi": 52,
      "hit": false,
      "t": 164117.56499999942,
      "d": 499.9997499999881,
      "v": 87
    },
    {
      "midi": 57,
      "hit": false,
      "t": 164117.56499999942,
      "d": 499.9997499999881,
      "v": 102
    },
    {
      "midi": 45,
      "hit": false,
      "t": 164117.56499999957,
      "d": 348.03904166669236,
      "v": 102
    },
    {
      "midi": 76,
      "hit": false,
      "t": 164156.78066666608,
      "d": 269.6077083333221,
      "v": 116
    },
    {
      "midi": 71,
      "hit": false,
      "t": 164156.78066666608,
      "d": 279.4116249999788,
      "v": 116
    },
    {
      "midi": 64,
      "hit": false,
      "t": 164156.78066666608,
      "d": 372.5488333333342,
      "v": 96
    },
    {
      "midi": 57,
      "hit": false,
      "t": 164411.68249999956,
      "d": 102.94112500004121,
      "v": 72
    },
    {
      "midi": 62,
      "hit": false,
      "t": 164509.72166666607,
      "d": 58.8234999999986,
      "v": 54
    },
    {
      "midi": 60,
      "hit": false,
      "t": 164553.83929166608,
      "d": 44.1176249999844,
      "v": 66
    },
    {
      "midi": 59,
      "hit": false,
      "t": 164593.05495833274,
      "d": 34.31370833332767,
      "v": 80
    },
    {
      "midi": 57,
      "hit": false,
      "t": 164622.46670833274,
      "d": 24.509791666670935,
      "v": 74
    },
    {
      "midi": 55,
      "hit": false,
      "t": 164646.9764999994,
      "d": 34.31370833332767,
      "v": 73
    },
    {
      "midi": 50,
      "hit": false,
      "t": 164705.7999999996,
      "d": 19.60783333334257,
      "v": 81
    },
    {
      "midi": 59,
      "hit": false,
      "t": 164705.7999999996,
      "d": 303.92141666667885,
      "v": 88
    },
    {
      "midi": 64,
      "hit": false,
      "t": 164705.7999999996,
      "d": 318.62729166669305,
      "v": 93
    },
    {
      "midi": 68,
      "hit": false,
      "t": 164705.7999999996,
      "d": 387.2547083333484,
      "v": 101
    },
    {
      "midi": 52,
      "hit": false,
      "t": 164705.7999999996,
      "d": 480.39191666667466,
      "v": 114
    },
    {
      "midi": 56,
      "hit": false,
      "t": 164999.91749999963,
      "d": 117.6469999999972,
      "v": 64
    },
    {
      "midi": 59,
      "hit": false,
      "t": 165294.0349999994,
      "d": 83.33329166666954,
      "v": 68
    },
    {
      "midi": 52,
      "hit": false,
      "t": 165294.03499999963,
      "d": 333.33316666664905,
      "v": 105
    },
    {
      "midi": 66,
      "hit": false,
      "t": 165588.15249999962,
      "d": 171.56854166666744,
      "v": 90
    },
    {
      "midi": 71,
      "hit": false,
      "t": 165588.15249999962,
      "d": 249.99987500000861,
      "v": 63
    },
    {
      "midi": 64,
      "hit": false,
      "t": 165607.76033333273,
      "d": 142.15679166666814,
      "v": 76
    },
    {
      "midi": 59,
      "hit": false,
      "t": 165735.21124999961,
      "d": 83.33329166666954,
      "v": 8
    },
    {
      "midi": 68,
      "hit": false,
      "t": 165735.21124999961,
      "d": 83.33329166666954,
      "v": 75
    },
    {
      "midi": 68,
      "hit": false,
      "t": 165882.26999999964,
      "d": 29.4117499999993,
      "v": 47
    },
    {
      "midi": 59,
      "hit": false,
      "t": 165882.26999999964,
      "d": 220.5881250000093,
      "v": 65
    },
    {
      "midi": 63,
      "hit": false,
      "t": 165882.26999999964,
      "d": 313.7253333333647,
      "v": 89
    },
    {
      "midi": 66,
      "hit": false,
      "t": 165882.26999999964,
      "d": 367.6468750000349,
      "v": 96
    },
    {
      "midi": 47,
      "hit": false,
      "t": 165882.26999999964,
      "d": 539.2154166667024,
      "v": 108
    },
    {
      "midi": 66,
      "hit": false,
      "t": 165887.17195833274,
      "d": 1147.0582499999728,
      "v": 90
    },
    {
      "midi": 59,
      "hit": false,
      "t": 165896.9758749994,
      "d": 1098.03866666666,
      "v": 73
    },
    {
      "midi": 59,
      "hit": false,
      "t": 166176.38749999966,
      "d": 102.94112500001211,
      "v": 63
    },
    {
      "midi": 59,
      "hit": false,
      "t": 166323.4462499997,
      "d": 308.8233750000072,
      "v": 69
    },
    {
      "midi": 63,
      "hit": false,
      "t": 166323.4462499997,
      "d": 499.99975000001723,
      "v": 96
    },
    {
      "midi": 66,
      "hit": false,
      "t": 166323.4462499997,
      "d": 499.99975000001723,
      "v": 90
    },
    {
      "midi": 47,
      "hit": false,
      "t": 166470.50499999968,
      "d": 132.3528750000114,
      "v": 62
    },
    {
      "midi": 47,
      "hit": false,
      "t": 166764.6224999997,
      "d": 78.43133333334117,
      "v": 82
    },
    {
      "midi": 59,
      "hit": false,
      "t": 166764.6224999997,
      "d": 98.03916666668374,
      "v": 81
    },
    {
      "midi": 45,
      "hit": false,
      "t": 167058.73999999973,
      "d": 499.9997499999881,
      "v": 114
    },
    {
      "midi": 57,
      "hit": false,
      "t": 167058.73999999973,
      "d": 504.9017083333165,
      "v": 100
    },
    {
      "midi": 59,
      "hit": false,
      "t": 167058.73999999973,
      "d": 504.9017083333165,
      "v": 114
    },
    {
      "midi": 64,
      "hit": false,
      "t": 167058.73999999973,
      "d": 534.3134583333158,
      "v": 105
    },
    {
      "midi": 57,
      "hit": false,
      "t": 167068.54391666604,
      "d": 2161.7636249999923,
      "v": 87
    },
    {
      "midi": 64,
      "hit": false,
      "t": 167073.44587499936,
      "d": 2156.861666666664,
      "v": 93
    },
    {
      "midi": 45,
      "hit": false,
      "t": 167646.97499999971,
      "d": 480.39191666667466,
      "v": 102
    },
    {
      "midi": 64,
      "hit": false,
      "t": 167941.0924999997,
      "d": 53.92154166667024,
      "v": 54
    },
    {
      "midi": 69,
      "hit": false,
      "t": 167941.0924999997,
      "d": 98.03916666668374,
      "v": 93
    },
    {
      "midi": 71,
      "hit": false,
      "t": 168088.15124999973,
      "d": 117.6469999999972,
      "v": 77
    },
    {
      "midi": 45,
      "hit": false,
      "t": 168235.20999999973,
      "d": 230.39204166666605,
      "v": 87
    },
    {
      "midi": 64,
      "hit": false,
      "t": 168382.26874999973,
      "d": 73.5293750000128,
      "v": 84
    },
    {
      "midi": 59,
      "hit": false,
      "t": 168382.26874999973,
      "d": 93.13720833332627,
      "v": 75
    },
    {
      "midi": 45,
      "hit": false,
      "t": 168676.38624999972,
      "d": 632.3526249999704,
      "v": 68
    },
    {
      "midi": 64,
      "hit": false,
      "t": 168823.44499999972,
      "d": 460.7840833333321,
      "v": 90
    },
    {
      "midi": 59,
      "hit": false,
      "t": 168823.44499999972,
      "d": 465.68604166666046,
      "v": 102
    },
    {
      "midi": 57,
      "hit": false,
      "t": 168823.44499999972,
      "d": 475.4899583333172,
      "v": 84
    },
    {
      "midi": 40,
      "hit": false,
      "t": 169411.67999999935,
      "d": 764.7054999999818,
      "v": 111
    },
    {
      "midi": 52,
      "hit": false,
      "t": 169411.6799999997,
      "d": 480.39191666664556,
      "v": 114
    },
    {
      "midi": 68,
      "hit": false,
      "t": 169411.6799999997,
      "d": 617.6467499999853,
      "v": 110
    },
    {
      "midi": 64,
      "hit": false,
      "t": 169411.6799999997,
      "d": 627.4506666666421,
      "v": 100
    },
    {
      "midi": 59,
      "hit": false,
      "t": 169411.6799999997,
      "d": 656.8624166666414,
      "v": 84
    },
    {
      "midi": 47,
      "hit": false,
      "t": 169999.91499999934,
      "d": 117.6469999999972,
      "v": 97
    },
    {
      "midi": 52,
      "hit": false,
      "t": 169999.91499999934,
      "d": 137.25483333333977,
      "v": 102
    },
    {
      "midi": 52,
      "hit": false,
      "t": 169999.9149999997,
      "d": 372.5488333333342,
      "v": 114
    },
    {
      "midi": 59,
      "hit": false,
      "t": 170034.22870833267,
      "d": 63.72545833332697,
      "v": 73
    },
    {
      "midi": 40,
      "hit": false,
      "t": 170294.03249999933,
      "d": 63.72545833332697,
      "v": 74
    },
    {
      "midi": 64,
      "hit": false,
      "t": 170294.03249999933,
      "d": 102.941124999983,
      "v": 82
    },
    {
      "midi": 66,
      "hit": false,
      "t": 170294.03249999968,
      "d": 166.66658333333908,
      "v": 87
    },
    {
      "midi": 59,
      "hit": false,
      "t": 170294.03249999968,
      "d": 225.49008333333768,
      "v": 64
    },
    {
      "midi": 71,
      "hit": false,
      "t": 170294.03249999968,
      "d": 249.99987500000861,
      "v": 77
    },
    {
      "midi": 68,
      "hit": false,
      "t": 170441.09124999968,
      "d": 107.84308333334047,
      "v": 87
    },
    {
      "midi": 47,
      "hit": false,
      "t": 170588.14999999932,
      "d": 1068.6269166666607,
      "v": 81
    },
    {
      "midi": 68,
      "hit": false,
      "t": 170588.14999999967,
      "d": 39.215666666656034,
      "v": 65
    },
    {
      "midi": 59,
      "hit": false,
      "t": 170588.14999999967,
      "d": 225.49008333330858,
      "v": 54
    },
    {
      "midi": 63,
      "hit": false,
      "t": 170588.14999999967,
      "d": 333.33316666661995,
      "v": 101
    },
    {
      "midi": 47,
      "hit": false,
      "t": 170588.14999999967,
      "d": 637.2545833332988,
      "v": 112
    },
    {
      "midi": 66,
      "hit": false,
      "t": 170588.14999999967,
      "d": 936.2740416666202,
      "v": 110
    },
    {
      "midi": 66,
      "hit": false,
      "t": 170593.05195833265,
      "d": 2367.6458749999874,
      "v": 102
    },
    {
      "midi": 59,
      "hit": false,
      "t": 170882.26749999964,
      "d": 499.9997499999881,
      "v": 74
    },
    {
      "midi": 63,
      "hit": false,
      "t": 171029.32624999963,
      "d": 343.1370833333349,
      "v": 110
    },
    {
      "midi": 54,
      "hit": false,
      "t": 171176.3849999993,
      "d": 544.1173750000016,
      "v": 72
    },
    {
      "midi": 59,
      "hit": false,
      "t": 171176.3849999993,
      "d": 558.8232500000158,
      "v": 80
    },
    {
      "midi": 47,
      "hit": false,
      "t": 171470.50249999962,
      "d": 53.92154166667024,
      "v": 88
    },
    {
      "midi": 63,
      "hit": false,
      "t": 171470.50249999962,
      "d": 68.62741666668444,
      "v": 71
    },
    {
      "midi": 59,
      "hit": false,
      "t": 171470.50249999962,
      "d": 132.3528750000114,
      "v": 85
    },
    {
      "midi": 49,
      "hit": false,
      "t": 171764.61999999965,
      "d": 455.8821250000037,
      "v": 99
    },
    {
      "midi": 61,
      "hit": false,
      "t": 171764.61999999965,
      "d": 833.3329166666954,
      "v": 101
    },
    {
      "midi": 64,
      "hit": false,
      "t": 171764.61999999965,
      "d": 936.2740416667075,
      "v": 95
    },
    {
      "midi": 56,
      "hit": false,
      "t": 172058.73749999964,
      "d": 431.3723333333619,
      "v": 52
    },
    {
      "midi": 61,
      "hit": false,
      "t": 172352.8549999993,
      "d": 529.4114999999874,
      "v": 73
    },
    {
      "midi": 56,
      "hit": false,
      "t": 172352.8549999993,
      "d": 534.3134583333158,
      "v": 67
    },
    {
      "midi": 49,
      "hit": false,
      "t": 172352.85499999966,
      "d": 308.8233750000363,
      "v": 114
    },
    {
      "midi": 49,
      "hit": false,
      "t": 172646.9724999993,
      "d": 93.13720833332627,
      "v": 66
    },
    {
      "midi": 56,
      "hit": false,
      "t": 172646.97249999968,
      "d": 44.117625000013504,
      "v": 54
    },
    {
      "midi": 45,
      "hit": false,
      "t": 172941.0899999993,
      "d": 1034.313208333333,
      "v": 79
    },
    {
      "midi": 57,
      "hit": false,
      "t": 172941.08999999968,
      "d": 196.07833333333838,
      "v": 76
    },
    {
      "midi": 59,
      "hit": false,
      "t": 172941.08999999968,
      "d": 352.9409999999916,
      "v": 81
    },
    {
      "midi": 61,
      "hit": false,
      "t": 172941.08999999968,
      "d": 382.3527499999909,
      "v": 83
    },
    {
      "midi": 64,
      "hit": false,
      "t": 172941.08999999968,
      "d": 392.15666666664765,
      "v": 76
    },
    {
      "midi": 45,
      "hit": false,
      "t": 172941.08999999968,
      "d": 436.27429166666116,
      "v": 100
    },
    {
      "midi": 57,
      "hit": false,
      "t": 172965.59979166597,
      "d": 308.8233750000072,
      "v": 74
    },
    {
      "midi": 57,
      "hit": false,
      "t": 173235.20749999967,
      "d": 93.13720833332627,
      "v": 72
    },
    {
      "midi": 57,
      "hit": false,
      "t": 173382.26624999967,
      "d": 323.5292499999923,
      "v": 74
    },
    {
      "midi": 64,
      "hit": false,
      "t": 173382.26624999967,
      "d": 455.8821250000037,
      "v": 91
    },
    {
      "midi": 59,
      "hit": false,
      "t": 173382.26624999967,
      "d": 470.5880000000179,
      "v": 95
    },
    {
      "midi": 52,
      "hit": false,
      "t": 173529.3249999993,
      "d": 499.9997499999881,
      "v": 87
    },
    {
      "midi": 57,
      "hit": false,
      "t": 173529.3249999993,
      "d": 499.9997499999881,
      "v": 102
    },
    {
      "midi": 45,
      "hit": false,
      "t": 173529.32499999966,
      "d": 348.03904166669236,
      "v": 102
    },
    {
      "midi": 76,
      "hit": false,
      "t": 173568.54066666597,
      "d": 269.6077083333221,
      "v": 116
    },
    {
      "midi": 71,
      "hit": false,
      "t": 173568.54066666597,
      "d": 279.4116249999788,
      "v": 116
    },
    {
      "midi": 64,
      "hit": false,
      "t": 173568.54066666597,
      "d": 372.5488333333342,
      "v": 96
    },
    {
      "midi": 57,
      "hit": false,
      "t": 173823.44249999966,
      "d": 102.94112500004121,
      "v": 72
    },
    {
      "midi": 62,
      "hit": false,
      "t": 173921.48166666596,
      "d": 58.8234999999986,
      "v": 54
    },
    {
      "midi": 60,
      "hit": false,
      "t": 173965.59929166597,
      "d": 44.1176249999844,
      "v": 66
    },
    {
      "midi": 59,
      "hit": false,
      "t": 174004.81495833263,
      "d": 34.31370833332767,
      "v": 80
    },
    {
      "midi": 57,
      "hit": false,
      "t": 174034.22670833263,
      "d": 24.509791666670935,
      "v": 74
    },
    {
      "midi": 55,
      "hit": false,
      "t": 174058.7364999993,
      "d": 34.31370833332767,
      "v": 73
    },
    {
      "midi": 40,
      "hit": false,
      "t": 174117.5599999993,
      "d": 764.7054999999818,
      "v": 111
    },
    {
      "midi": 52,
      "hit": false,
      "t": 174117.5599999997,
      "d": 480.39191666664556,
      "v": 114
    },
    {
      "midi": 68,
      "hit": false,
      "t": 174117.5599999997,
      "d": 617.6467499999853,
      "v": 110
    },
    {
      "midi": 64,
      "hit": false,
      "t": 174117.5599999997,
      "d": 627.4506666666421,
      "v": 100
    },
    {
      "midi": 59,
      "hit": false,
      "t": 174117.5599999997,
      "d": 656.8624166666414,
      "v": 84
    },
    {
      "midi": 47,
      "hit": false,
      "t": 174705.79499999929,
      "d": 117.6469999999972,
      "v": 97
    },
    {
      "midi": 52,
      "hit": false,
      "t": 174705.79499999929,
      "d": 137.25483333333977,
      "v": 102
    },
    {
      "midi": 52,
      "hit": false,
      "t": 174705.7949999997,
      "d": 372.5488333333342,
      "v": 114
    },
    {
      "midi": 59,
      "hit": false,
      "t": 174740.1087083326,
      "d": 63.72545833332697,
      "v": 73
    },
    {
      "midi": 40,
      "hit": false,
      "t": 174999.91249999928,
      "d": 63.72545833332697,
      "v": 74
    },
    {
      "midi": 64,
      "hit": false,
      "t": 174999.91249999928,
      "d": 102.941124999983,
      "v": 82
    },
    {
      "midi": 66,
      "hit": false,
      "t": 174999.9124999997,
      "d": 166.66658333333908,
      "v": 87
    },
    {
      "midi": 59,
      "hit": false,
      "t": 174999.9124999997,
      "d": 225.49008333333768,
      "v": 64
    },
    {
      "midi": 71,
      "hit": false,
      "t": 174999.9124999997,
      "d": 249.99987500000861,
      "v": 77
    },
    {
      "midi": 68,
      "hit": false,
      "t": 175146.97124999968,
      "d": 107.84308333334047,
      "v": 87
    },
    {
      "midi": 47,
      "hit": false,
      "t": 175294.02999999927,
      "d": 1068.6269166666607,
      "v": 81
    },
    {
      "midi": 68,
      "hit": false,
      "t": 175294.02999999968,
      "d": 39.215666666656034,
      "v": 65
    },
    {
      "midi": 59,
      "hit": false,
      "t": 175294.02999999968,
      "d": 225.49008333330858,
      "v": 54
    },
    {
      "midi": 63,
      "hit": false,
      "t": 175294.02999999968,
      "d": 333.33316666661995,
      "v": 101
    },
    {
      "midi": 47,
      "hit": false,
      "t": 175294.02999999968,
      "d": 637.2545833332988,
      "v": 112
    },
    {
      "midi": 66,
      "hit": false,
      "t": 175294.02999999968,
      "d": 936.2740416666202,
      "v": 110
    },
    {
      "midi": 66,
      "hit": false,
      "t": 175298.9319583326,
      "d": 2367.6458749999874,
      "v": 102
    },
    {
      "midi": 59,
      "hit": false,
      "t": 175588.14749999964,
      "d": 499.9997499999881,
      "v": 74
    },
    {
      "midi": 63,
      "hit": false,
      "t": 175735.20624999964,
      "d": 343.1370833333349,
      "v": 110
    },
    {
      "midi": 54,
      "hit": false,
      "t": 175882.26499999926,
      "d": 544.1173750000016,
      "v": 72
    },
    {
      "midi": 59,
      "hit": false,
      "t": 175882.26499999926,
      "d": 558.8232500000158,
      "v": 80
    },
    {
      "midi": 47,
      "hit": false,
      "t": 176176.38249999963,
      "d": 53.92154166667024,
      "v": 88
    },
    {
      "midi": 63,
      "hit": false,
      "t": 176176.38249999963,
      "d": 68.62741666668444,
      "v": 71
    },
    {
      "midi": 59,
      "hit": false,
      "t": 176176.38249999963,
      "d": 132.3528750000114,
      "v": 85
    },
    {
      "midi": 49,
      "hit": false,
      "t": 176470.49999999965,
      "d": 455.8821250000037,
      "v": 99
    },
    {
      "midi": 61,
      "hit": false,
      "t": 176470.49999999965,
      "d": 833.3329166666954,
      "v": 101
    },
    {
      "midi": 64,
      "hit": false,
      "t": 176470.49999999965,
      "d": 936.2740416667075,
      "v": 95
    },
    {
      "midi": 56,
      "hit": false,
      "t": 176764.61749999964,
      "d": 431.3723333333619,
      "v": 52
    },
    {
      "midi": 61,
      "hit": false,
      "t": 177058.73499999926,
      "d": 529.4114999999874,
      "v": 73
    },
    {
      "midi": 56,
      "hit": false,
      "t": 177058.73499999926,
      "d": 534.3134583333158,
      "v": 67
    },
    {
      "midi": 49,
      "hit": false,
      "t": 177058.73499999967,
      "d": 308.8233750000363,
      "v": 114
    },
    {
      "midi": 49,
      "hit": false,
      "t": 177352.85249999925,
      "d": 93.13720833332627,
      "v": 66
    },
    {
      "midi": 56,
      "hit": false,
      "t": 177352.8524999997,
      "d": 44.117625000013504,
      "v": 54
    },
    {
      "midi": 45,
      "hit": false,
      "t": 177646.96999999924,
      "d": 1034.313208333333,
      "v": 79
    },
    {
      "midi": 57,
      "hit": false,
      "t": 177646.96999999968,
      "d": 196.07833333333838,
      "v": 76
    },
    {
      "midi": 59,
      "hit": false,
      "t": 177646.96999999968,
      "d": 352.9409999999916,
      "v": 81
    },
    {
      "midi": 61,
      "hit": false,
      "t": 177646.96999999968,
      "d": 382.3527499999909,
      "v": 83
    },
    {
      "midi": 64,
      "hit": false,
      "t": 177646.96999999968,
      "d": 392.15666666664765,
      "v": 76
    },
    {
      "midi": 45,
      "hit": false,
      "t": 177646.96999999968,
      "d": 436.27429166666116,
      "v": 100
    },
    {
      "midi": 57,
      "hit": false,
      "t": 177671.47979166592,
      "d": 308.8233750000072,
      "v": 74
    },
    {
      "midi": 57,
      "hit": false,
      "t": 177941.08749999967,
      "d": 93.13720833332627,
      "v": 72
    },
    {
      "midi": 57,
      "hit": false,
      "t": 178088.14624999967,
      "d": 323.5292499999923,
      "v": 74
    },
    {
      "midi": 64,
      "hit": false,
      "t": 178088.14624999967,
      "d": 455.8821250000037,
      "v": 91
    },
    {
      "midi": 59,
      "hit": false,
      "t": 178088.14624999967,
      "d": 470.5880000000179,
      "v": 95
    },
    {
      "midi": 52,
      "hit": false,
      "t": 178235.20499999926,
      "d": 499.9997499999881,
      "v": 87
    },
    {
      "midi": 57,
      "hit": false,
      "t": 178235.20499999926,
      "d": 499.9997499999881,
      "v": 102
    },
    {
      "midi": 45,
      "hit": false,
      "t": 178235.20499999967,
      "d": 348.03904166669236,
      "v": 102
    },
    {
      "midi": 76,
      "hit": false,
      "t": 178274.42066666592,
      "d": 269.6077083333221,
      "v": 116
    },
    {
      "midi": 71,
      "hit": false,
      "t": 178274.42066666592,
      "d": 279.4116249999788,
      "v": 116
    },
    {
      "midi": 64,
      "hit": false,
      "t": 178274.42066666592,
      "d": 372.5488333333342,
      "v": 96
    },
    {
      "midi": 57,
      "hit": false,
      "t": 178529.32249999966,
      "d": 102.94112500004121,
      "v": 72
    },
    {
      "midi": 62,
      "hit": false,
      "t": 178627.3616666659,
      "d": 58.8234999999986,
      "v": 54
    },
    {
      "midi": 60,
      "hit": false,
      "t": 178671.47929166592,
      "d": 44.1176249999844,
      "v": 66
    },
    {
      "midi": 59,
      "hit": false,
      "t": 178710.69495833258,
      "d": 34.31370833332767,
      "v": 80
    },
    {
      "midi": 57,
      "hit": false,
      "t": 178740.10670833258,
      "d": 24.509791666670935,
      "v": 74
    },
    {
      "midi": 55,
      "hit": false,
      "t": 178764.61649999925,
      "d": 34.31370833332767,
      "v": 73
    },
    {
      "midi": 40,
      "hit": false,
      "t": 178823.43999999925,
      "d": 764.7054999999818,
      "v": 111
    },
    {
      "midi": 52,
      "hit": false,
      "t": 178823.4399999997,
      "d": 480.39191666664556,
      "v": 114
    },
    {
      "midi": 68,
      "hit": false,
      "t": 178823.4399999997,
      "d": 617.6467499999853,
      "v": 110
    },
    {
      "midi": 64,
      "hit": false,
      "t": 178823.4399999997,
      "d": 627.4506666666421,
      "v": 100
    },
    {
      "midi": 59,
      "hit": false,
      "t": 178823.4399999997,
      "d": 656.8624166666414,
      "v": 84
    },
    {
      "midi": 47,
      "hit": false,
      "t": 179411.67499999923,
      "d": 117.6469999999972,
      "v": 97
    },
    {
      "midi": 52,
      "hit": false,
      "t": 179411.67499999923,
      "d": 137.25483333333977,
      "v": 102
    },
    {
      "midi": 52,
      "hit": false,
      "t": 179411.6749999997,
      "d": 372.5488333333342,
      "v": 114
    },
    {
      "midi": 59,
      "hit": false,
      "t": 179445.98870833256,
      "d": 63.72545833332697,
      "v": 73
    },
    {
      "midi": 40,
      "hit": false,
      "t": 179705.79249999922,
      "d": 63.72545833332697,
      "v": 74
    },
    {
      "midi": 64,
      "hit": false,
      "t": 179705.79249999922,
      "d": 102.941124999983,
      "v": 82
    },
    {
      "midi": 66,
      "hit": false,
      "t": 179705.7924999997,
      "d": 166.66658333333908,
      "v": 87
    },
    {
      "midi": 59,
      "hit": false,
      "t": 179705.7924999997,
      "d": 225.49008333333768,
      "v": 64
    },
    {
      "midi": 71,
      "hit": false,
      "t": 179705.7924999997,
      "d": 249.99987500000861,
      "v": 77
    },
    {
      "midi": 68,
      "hit": false,
      "t": 179852.8512499997,
      "d": 107.84308333334047,
      "v": 87
    },
    {
      "midi": 47,
      "hit": false,
      "t": 179999.90999999922,
      "d": 1068.6269166666607,
      "v": 81
    },
    {
      "midi": 68,
      "hit": false,
      "t": 179999.90999999968,
      "d": 39.215666666656034,
      "v": 65
    },
    {
      "midi": 59,
      "hit": false,
      "t": 179999.90999999968,
      "d": 225.49008333330858,
      "v": 54
    },
    {
      "midi": 63,
      "hit": false,
      "t": 179999.90999999968,
      "d": 333.33316666661995,
      "v": 101
    },
    {
      "midi": 47,
      "hit": false,
      "t": 179999.90999999968,
      "d": 637.2545833332988,
      "v": 112
    },
    {
      "midi": 66,
      "hit": false,
      "t": 179999.90999999968,
      "d": 936.2740416666202,
      "v": 110
    },
    {
      "midi": 66,
      "hit": false,
      "t": 180004.81195833255,
      "d": 2367.6458749999874,
      "v": 102
    },
    {
      "midi": 59,
      "hit": false,
      "t": 180294.02749999965,
      "d": 499.9997499999881,
      "v": 74
    },
    {
      "midi": 63,
      "hit": false,
      "t": 180441.08624999964,
      "d": 343.1370833333349,
      "v": 110
    },
    {
      "midi": 54,
      "hit": false,
      "t": 180588.1449999992,
      "d": 544.1173750000016,
      "v": 72
    },
    {
      "midi": 59,
      "hit": false,
      "t": 180588.1449999992,
      "d": 558.8232500000158,
      "v": 80
    },
    {
      "midi": 47,
      "hit": false,
      "t": 180882.26249999963,
      "d": 53.92154166667024,
      "v": 88
    },
    {
      "midi": 63,
      "hit": false,
      "t": 180882.26249999963,
      "d": 68.62741666668444,
      "v": 71
    },
    {
      "midi": 59,
      "hit": false,
      "t": 180882.26249999963,
      "d": 132.3528750000114,
      "v": 85
    },
    {
      "midi": 49,
      "hit": false,
      "t": 181176.37999999966,
      "d": 455.8821250000037,
      "v": 99
    },
    {
      "midi": 61,
      "hit": false,
      "t": 181176.37999999966,
      "d": 833.3329166666954,
      "v": 101
    },
    {
      "midi": 64,
      "hit": false,
      "t": 181176.37999999966,
      "d": 936.2740416667075,
      "v": 95
    },
    {
      "midi": 56,
      "hit": false,
      "t": 181470.49749999965,
      "d": 431.3723333333619,
      "v": 52
    },
    {
      "midi": 61,
      "hit": false,
      "t": 181764.6149999992,
      "d": 529.4114999999874,
      "v": 73
    },
    {
      "midi": 56,
      "hit": false,
      "t": 181764.6149999992,
      "d": 534.3134583333158,
      "v": 67
    },
    {
      "midi": 49,
      "hit": false,
      "t": 181764.61499999967,
      "d": 308.8233750000363,
      "v": 114
    },
    {
      "midi": 49,
      "hit": false,
      "t": 182058.7324999992,
      "d": 93.13720833332627,
      "v": 66
    },
    {
      "midi": 56,
      "hit": false,
      "t": 182058.7324999997,
      "d": 44.117625000013504,
      "v": 54
    },
    {
      "midi": 45,
      "hit": false,
      "t": 182352.8499999992,
      "d": 1034.313208333333,
      "v": 79
    },
    {
      "midi": 57,
      "hit": false,
      "t": 182352.8499999997,
      "d": 196.07833333333838,
      "v": 76
    },
    {
      "midi": 59,
      "hit": false,
      "t": 182352.8499999997,
      "d": 352.9409999999916,
      "v": 81
    },
    {
      "midi": 61,
      "hit": false,
      "t": 182352.8499999997,
      "d": 382.3527499999909,
      "v": 83
    },
    {
      "midi": 64,
      "hit": false,
      "t": 182352.8499999997,
      "d": 392.15666666664765,
      "v": 76
    },
    {
      "midi": 45,
      "hit": false,
      "t": 182352.8499999997,
      "d": 436.27429166666116,
      "v": 100
    },
    {
      "midi": 57,
      "hit": false,
      "t": 182377.35979166586,
      "d": 308.8233750000072,
      "v": 74
    },
    {
      "midi": 57,
      "hit": false,
      "t": 182646.96749999968,
      "d": 93.13720833332627,
      "v": 72
    },
    {
      "midi": 57,
      "hit": false,
      "t": 182794.02624999968,
      "d": 323.5292499999923,
      "v": 74
    },
    {
      "midi": 64,
      "hit": false,
      "t": 182794.02624999968,
      "d": 455.8821250000037,
      "v": 91
    },
    {
      "midi": 59,
      "hit": false,
      "t": 182794.02624999968,
      "d": 470.5880000000179,
      "v": 95
    },
    {
      "midi": 52,
      "hit": false,
      "t": 182941.0849999992,
      "d": 499.9997499999881,
      "v": 87
    },
    {
      "midi": 57,
      "hit": false,
      "t": 182941.0849999992,
      "d": 499.9997499999881,
      "v": 102
    },
    {
      "midi": 45,
      "hit": false,
      "t": 182941.08499999967,
      "d": 348.03904166669236,
      "v": 102
    },
    {
      "midi": 76,
      "hit": false,
      "t": 182980.30066666586,
      "d": 269.6077083333221,
      "v": 116
    },
    {
      "midi": 71,
      "hit": false,
      "t": 182980.30066666586,
      "d": 279.4116249999788,
      "v": 116
    },
    {
      "midi": 64,
      "hit": false,
      "t": 182980.30066666586,
      "d": 372.5488333333342,
      "v": 96
    },
    {
      "midi": 57,
      "hit": false,
      "t": 183235.20249999966,
      "d": 102.94112500004121,
      "v": 72
    },
    {
      "midi": 62,
      "hit": false,
      "t": 183333.24166666585,
      "d": 58.8234999999986,
      "v": 54
    },
    {
      "midi": 60,
      "hit": false,
      "t": 183377.35929166587,
      "d": 44.1176249999844,
      "v": 66
    },
    {
      "midi": 59,
      "hit": false,
      "t": 183416.57495833252,
      "d": 34.31370833332767,
      "v": 80
    },
    {
      "midi": 57,
      "hit": false,
      "t": 183445.98670833252,
      "d": 24.509791666670935,
      "v": 74
    },
    {
      "midi": 55,
      "hit": false,
      "t": 183470.4964999992,
      "d": 34.31370833332767,
      "v": 73
    },
    {
      "midi": 50,
      "hit": false,
      "t": 183529.31999999972,
      "d": 19.60783333334257,
      "v": 81
    },
    {
      "midi": 59,
      "hit": false,
      "t": 183529.31999999972,
      "d": 303.92141666667885,
      "v": 88
    },
    {
      "midi": 64,
      "hit": false,
      "t": 183529.31999999972,
      "d": 318.62729166669305,
      "v": 93
    },
    {
      "midi": 68,
      "hit": false,
      "t": 183529.31999999972,
      "d": 387.2547083333484,
      "v": 101
    },
    {
      "midi": 52,
      "hit": false,
      "t": 183529.31999999972,
      "d": 480.39191666667466,
      "v": 114
    },
    {
      "midi": 56,
      "hit": false,
      "t": 183823.43749999974,
      "d": 117.6469999999972,
      "v": 64
    },
    {
      "midi": 59,
      "hit": false,
      "t": 184117.55499999918,
      "d": 83.33329166666954,
      "v": 68
    },
    {
      "midi": 52,
      "hit": false,
      "t": 184117.55499999973,
      "d": 333.33316666664905,
      "v": 105
    },
    {
      "midi": 66,
      "hit": false,
      "t": 184411.67249999972,
      "d": 171.56854166666744,
      "v": 90
    },
    {
      "midi": 71,
      "hit": false,
      "t": 184411.67249999972,
      "d": 249.99987500000861,
      "v": 63
    },
    {
      "midi": 64,
      "hit": false,
      "t": 184431.2803333325,
      "d": 142.15679166666814,
      "v": 76
    },
    {
      "midi": 59,
      "hit": false,
      "t": 184558.73124999972,
      "d": 83.33329166666954,
      "v": 8
    },
    {
      "midi": 68,
      "hit": false,
      "t": 184558.73124999972,
      "d": 83.33329166666954,
      "v": 75
    },
    {
      "midi": 68,
      "hit": false,
      "t": 184705.78999999975,
      "d": 29.4117499999993,
      "v": 47
    },
    {
      "midi": 59,
      "hit": false,
      "t": 184705.78999999975,
      "d": 220.5881250000093,
      "v": 65
    },
    {
      "midi": 63,
      "hit": false,
      "t": 184705.78999999975,
      "d": 313.7253333333647,
      "v": 89
    },
    {
      "midi": 66,
      "hit": false,
      "t": 184705.78999999975,
      "d": 367.6468750000349,
      "v": 96
    },
    {
      "midi": 47,
      "hit": false,
      "t": 184705.78999999975,
      "d": 539.2154166667024,
      "v": 108
    },
    {
      "midi": 66,
      "hit": false,
      "t": 184710.69195833252,
      "d": 1147.0582499999728,
      "v": 90
    },
    {
      "midi": 59,
      "hit": false,
      "t": 184720.49587499918,
      "d": 1098.03866666666,
      "v": 73
    },
    {
      "midi": 59,
      "hit": false,
      "t": 184999.90749999977,
      "d": 102.94112500001211,
      "v": 63
    },
    {
      "midi": 59,
      "hit": false,
      "t": 185146.9662499998,
      "d": 308.8233750000072,
      "v": 69
    },
    {
      "midi": 63,
      "hit": false,
      "t": 185146.9662499998,
      "d": 499.99975000001723,
      "v": 96
    },
    {
      "midi": 66,
      "hit": false,
      "t": 185146.9662499998,
      "d": 499.99975000001723,
      "v": 90
    },
    {
      "midi": 47,
      "hit": false,
      "t": 185294.0249999998,
      "d": 132.3528750000114,
      "v": 62
    },
    {
      "midi": 47,
      "hit": false,
      "t": 185588.1424999998,
      "d": 78.43133333334117,
      "v": 82
    },
    {
      "midi": 59,
      "hit": false,
      "t": 185588.1424999998,
      "d": 98.03916666668374,
      "v": 81
    },
    {
      "midi": 45,
      "hit": false,
      "t": 185882.25999999983,
      "d": 499.9997499999881,
      "v": 114
    },
    {
      "midi": 57,
      "hit": false,
      "t": 185882.25999999983,
      "d": 504.9017083333165,
      "v": 100
    },
    {
      "midi": 59,
      "hit": false,
      "t": 185882.25999999983,
      "d": 504.9017083333165,
      "v": 114
    },
    {
      "midi": 64,
      "hit": false,
      "t": 185882.25999999983,
      "d": 534.3134583333158,
      "v": 105
    },
    {
      "midi": 57,
      "hit": false,
      "t": 185892.06391666582,
      "d": 2161.7636249999923,
      "v": 87
    },
    {
      "midi": 64,
      "hit": false,
      "t": 185896.96587499915,
      "d": 2156.861666666664,
      "v": 93
    },
    {
      "midi": 45,
      "hit": false,
      "t": 186470.49499999982,
      "d": 480.39191666667466,
      "v": 102
    },
    {
      "midi": 64,
      "hit": false,
      "t": 186764.6124999998,
      "d": 53.92154166667024,
      "v": 54
    },
    {
      "midi": 69,
      "hit": false,
      "t": 186764.6124999998,
      "d": 98.03916666668374,
      "v": 93
    },
    {
      "midi": 71,
      "hit": false,
      "t": 186911.67124999984,
      "d": 117.6469999999972,
      "v": 77
    },
    {
      "midi": 45,
      "hit": false,
      "t": 187058.72999999984,
      "d": 230.39204166666605,
      "v": 87
    },
    {
      "midi": 64,
      "hit": false,
      "t": 187205.78874999983,
      "d": 73.5293750000128,
      "v": 84
    },
    {
      "midi": 59,
      "hit": false,
      "t": 187205.78874999983,
      "d": 93.13720833332627,
      "v": 75
    },
    {
      "midi": 45,
      "hit": false,
      "t": 187499.90624999983,
      "d": 632.3526249999704,
      "v": 68
    },
    {
      "midi": 64,
      "hit": false,
      "t": 187646.96499999982,
      "d": 460.7840833333321,
      "v": 90
    },
    {
      "midi": 59,
      "hit": false,
      "t": 187646.96499999982,
      "d": 465.68604166666046,
      "v": 102
    },
    {
      "midi": 57,
      "hit": false,
      "t": 187646.96499999982,
      "d": 475.4899583333172,
      "v": 84
    },
    {
      "midi": 64,
      "hit": false,
      "t": 188235.19999999914,
      "d": 7019.604333333322,
      "v": 73
    },
    {
      "midi": 59,
      "hit": false,
      "t": 188235.19999999914,
      "d": 7039.212166666664,
      "v": 88
    },
    {
      "midi": 47,
      "hit": false,
      "t": 188235.19999999914,
      "d": 7053.918041666679,
      "v": 79
    },
    {
      "midi": 52,
      "hit": false,
      "t": 188235.19999999914,
      "d": 7053.918041666679,
      "v": 75
    },
    {
      "midi": 40,
      "hit": false,
      "t": 188235.19999999914,
      "d": 7068.623916666693,
      "v": 79
    },
    {
      "midi": 40,
      "hit": false,
      "t": 188235.1999999998,
      "d": 4323.527250000014,
      "v": 66
    },
    {
      "midi": 47,
      "hit": false,
      "t": 188235.1999999998,
      "d": 4333.3311666666705,
      "v": 64
    },
    {
      "midi": 52,
      "hit": false,
      "t": 188235.1999999998,
      "d": 4333.3311666666705,
      "v": 74
    },
    {
      "midi": 59,
      "hit": false,
      "t": 188235.1999999998,
      "d": 6965.682791666681,
      "v": 85
    },
    {
      "midi": 68,
      "hit": false,
      "t": 188235.1999999998,
      "d": 6965.682791666681,
      "v": 83
    },
    {
      "midi": 64,
      "hit": false,
      "t": 188235.1999999998,
      "d": 6970.584750000009,
      "v": 78
    },
    {
      "midi": 56,
      "hit": false,
      "t": 188235.1999999998,
      "d": 7014.702375000023,
      "v": 80
    }
  ]
}