{
  "jsonPath": "Jazz/Jazz Blues/Aretha Franklin/skylark.json",
  "path": "Jazz\\Jazz Blues\\Aretha Franklin\\Skylark.mid",
  "name": "Skylark",
  "difficulty": "Advanced",
  "bpm": 69.00009660013524,
  "notes": [
    {
      "midi": 39,
      "hit": false,
      "t": 152.17370000000003,
      "d": 239.13010000000006,
      "v": 48
    },
    {
      "midi": 46,
      "hit": false,
      "t": 362.3183333333334,
      "d": 181.1591666666667,
      "v": 55
    },
    {
      "midi": 55,
      "hit": false,
      "t": 572.4629666666667,
      "d": 246.37646666666672,
      "v": 63
    },
    {
      "midi": 58,
      "hit": false,
      "t": 775.3612333333334,
      "d": 818.8394333333337,
      "v": 51
    },
    {
      "midi": 62,
      "hit": false,
      "t": 782.6076,
      "d": 166.66643333333343,
      "v": 74
    },
    {
      "midi": 67,
      "hit": false,
      "t": 963.7667666666669,
      "d": 246.37646666666683,
      "v": 68
    },
    {
      "midi": 62,
      "hit": false,
      "t": 1036.2304333333336,
      "d": 471.0138333333334,
      "v": 35
    },
    {
      "midi": 70,
      "hit": false,
      "t": 1144.9259333333337,
      "d": 166.66643333333332,
      "v": 72
    },
    {
      "midi": 74,
      "hit": false,
      "t": 1347.8242000000002,
      "d": 65.21730000000002,
      "v": 75
    },
    {
      "midi": 65,
      "hit": false,
      "t": 1391.3024000000003,
      "d": 152.17370000000005,
      "v": 32
    },
    {
      "midi": 79,
      "hit": false,
      "t": 1565.2152000000003,
      "d": 159.4200666666668,
      "v": 71
    },
    {
      "midi": 74,
      "hit": false,
      "t": 1862.316233333334,
      "d": 1239.1287000000002,
      "v": 50
    },
    {
      "midi": 82,
      "hit": false,
      "t": 1869.5626000000007,
      "d": 1326.0851000000002,
      "v": 33
    },
    {
      "midi": 60,
      "hit": false,
      "t": 1884.055333333334,
      "d": 528.9847666666667,
      "v": 41
    },
    {
      "midi": 78,
      "hit": false,
      "t": 1884.055333333334,
      "d": 1268.114166666667,
      "v": 40
    },
    {
      "midi": 63,
      "hit": false,
      "t": 1898.5480666666672,
      "d": 601.4484333333335,
      "v": 43
    },
    {
      "midi": 68,
      "hit": false,
      "t": 1905.794433333334,
      "d": 594.2020666666667,
      "v": 20
    },
    {
      "midi": 58,
      "hit": false,
      "t": 2369.5619000000006,
      "d": 152.17369999999983,
      "v": 42
    },
    {
      "midi": 46,
      "hit": false,
      "t": 2876.8075666666673,
      "d": 971.0131333333338,
      "v": 25
    },
    {
      "midi": 34,
      "hit": false,
      "t": 3507.2414666666677,
      "d": 297.10103333333336,
      "v": 36
    },
    {
      "midi": 39,
      "hit": false,
      "t": 4355.066366666668,
      "d": 311.59376666666685,
      "v": 50
    },
    {
      "midi": 46,
      "hit": false,
      "t": 4615.935566666668,
      "d": 224.63736666666682,
      "v": 54
    },
    {
      "midi": 55,
      "hit": false,
      "t": 4876.804766666668,
      "d": 260.8692000000001,
      "v": 51
    },
    {
      "midi": 60,
      "hit": false,
      "t": 5115.934866666668,
      "d": 130.4345999999996,
      "v": 58
    },
    {
      "midi": 58,
      "hit": false,
      "t": 5144.920333333334,
      "d": 797.1003333333338,
      "v": 31
    },
    {
      "midi": 62,
      "hit": false,
      "t": 5326.079500000002,
      "d": 57.97093333333305,
      "v": 54
    },
    {
      "midi": 65,
      "hit": false,
      "t": 5507.238666666668,
      "d": 108.69549999999981,
      "v": 69
    },
    {
      "midi": 67,
      "hit": false,
      "t": 5666.658733333335,
      "d": 188.40553333333355,
      "v": 79
    },
    {
      "midi": 62,
      "hit": false,
      "t": 5681.151466666668,
      "d": 166.66643333333377,
      "v": 26
    },
    {
      "midi": 70,
      "hit": false,
      "t": 5818.832433333335,
      "d": 115.94186666666701,
      "v": 81
    },
    {
      "midi": 72,
      "hit": false,
      "t": 5992.745233333335,
      "d": 123.1882333333333,
      "v": 76
    },
    {
      "midi": 74,
      "hit": false,
      "t": 6152.1653000000015,
      "d": 108.69549999999981,
      "v": 76
    },
    {
      "midi": 77,
      "hit": false,
      "t": 6347.817200000001,
      "d": 181.15916666666635,
      "v": 51
    },
    {
      "midi": 78,
      "hit": false,
      "t": 6572.454566666667,
      "d": 123.1882333333333,
      "v": 39
    },
    {
      "midi": 82,
      "hit": false,
      "t": 6818.831033333334,
      "d": 2847.8220999999994,
      "v": 47
    },
    {
      "midi": 78,
      "hit": false,
      "t": 6840.570133333334,
      "d": 2782.6048,
      "v": 47
    },
    {
      "midi": 71,
      "hit": false,
      "t": 6847.8165,
      "d": 2905.7930333333325,
      "v": 48
    },
    {
      "midi": 70,
      "hit": false,
      "t": 6869.5556,
      "d": 427.53563333333386,
      "v": 39
    },
    {
      "midi": 68,
      "hit": false,
      "t": 7282.5985,
      "d": 123.1882333333333,
      "v": 34
    },
    {
      "midi": 75,
      "hit": false,
      "t": 7688.395033333333,
      "d": 1913.0407999999998,
      "v": 31
    },
    {
      "midi": 53,
      "hit": false,
      "t": 8072.452466666667,
      "d": 347.8255999999992,
      "v": 44
    },
    {
      "midi": 46,
      "hit": false,
      "t": 8478.249,
      "d": 86.95639999999912,
      "v": 31
    },
    {
      "midi": 46,
      "hit": false,
      "t": 8855.060066666665,
      "d": 108.69549999999981,
      "v": 29
    },
    {
      "midi": 34,
      "hit": false,
      "t": 9260.8566,
      "d": 499.9992999999995,
      "v": 30
    },
    {
      "midi": 22,
      "hit": false,
      "t": 9753.609533333332,
      "d": 108.69549999999981,
      "v": 34
    },
    {
      "midi": 53,
      "hit": false,
      "t": 11659.403966666665,
      "d": 304.34740000000056,
      "v": 39
    },
    {
      "midi": 39,
      "hit": false,
      "t": 11710.12853333333,
      "d": 340.57923333333383,
      "v": 31
    },
    {
      "midi": 55,
      "hit": false,
      "t": 11942.012266666665,
      "d": 173.91280000000006,
      "v": 60
    },
    {
      "midi": 46,
      "hit": false,
      "t": 11978.244099999998,
      "d": 253.6228333333329,
      "v": 38
    },
    {
      "midi": 58,
      "hit": false,
      "t": 12152.156899999998,
      "d": 152.17369999999937,
      "v": 69
    },
    {
      "midi": 55,
      "hit": false,
      "t": 12311.576966666664,
      "d": 260.8691999999992,
      "v": 29
    },
    {
      "midi": 60,
      "hit": false,
      "t": 12355.055166666663,
      "d": 130.4346000000005,
      "v": 75
    },
    {
      "midi": 62,
      "hit": false,
      "t": 12536.21433333333,
      "d": 130.4346000000005,
      "v": 76
    },
    {
      "midi": 58,
      "hit": false,
      "t": 12557.95343333333,
      "d": 615.9411666666692,
      "v": 35
    },
    {
      "midi": 65,
      "hit": false,
      "t": 12731.86623333333,
      "d": 144.92733333333308,
      "v": 76
    },
    {
      "midi": 62,
      "hit": false,
      "t": 12804.329899999997,
      "d": 326.08650000000125,
      "v": 22
    },
    {
      "midi": 67,
      "hit": false,
      "t": 12970.99633333333,
      "d": 181.15916666666817,
      "v": 77
    },
    {
      "midi": 70,
      "hit": false,
      "t": 13195.6337,
      "d": 268.1155666666673,
      "v": 76
    },
    {
      "midi": 71,
      "hit": false,
      "t": 13470.995633333334,
      "d": 289.854666666668,
      "v": 73
    },
    {
      "midi": 72,
      "hit": false,
      "t": 13739.111200000001,
      "d": 231.88373333333402,
      "v": 67
    },
    {
      "midi": 75,
      "hit": false,
      "t": 13978.241300000002,
      "d": 224.6373666666659,
      "v": 56
    },
    {
      "midi": 68,
      "hit": false,
      "t": 14007.226766666668,
      "d": 1130.4331999999977,
      "v": 25
    },
    {
      "midi": 63,
      "hit": false,
      "t": 14021.719500000001,
      "d": 1123.1868333333314,
      "v": 39
    },
    {
      "midi": 60,
      "hit": false,
      "t": 14057.951333333334,
      "d": 1115.940466666665,
      "v": 19
    },
    {
      "midi": 77,
      "hit": false,
      "t": 14224.617766666668,
      "d": 253.6228333333329,
      "v": 55
    },
    {
      "midi": 80,
      "hit": false,
      "t": 14492.733333333334,
      "d": 318.84013333333314,
      "v": 54
    },
    {
      "midi": 58,
      "hit": false,
      "t": 14507.226066666666,
      "d": 724.6366666666672,
      "v": 27
    },
    {
      "midi": 82,
      "hit": false,
      "t": 14768.095266666667,
      "d": 224.6373666666659,
      "v": 46
    },
    {
      "midi": 84,
      "hit": false,
      "t": 15050.703566666667,
      "d": 260.8691999999992,
      "v": 38
    },
    {
      "midi": 87,
      "hit": false,
      "t": 15347.8046,
      "d": 333.33286666666754,
      "v": 60
    },
    {
      "midi": 39,
      "hit": false,
      "t": 15695.6302,
      "d": 304.34739999999874,
      "v": 37
    },
    {
      "midi": 86,
      "hit": false,
      "t": 15702.876566666666,
      "d": 304.34739999999874,
      "v": 57
    },
    {
      "midi": 46,
      "hit": false,
      "t": 15970.992133333331,
      "d": 239.1300999999985,
      "v": 42
    },
    {
      "midi": 91,
      "hit": false,
      "t": 16021.716699999997,
      "d": 137.6809666666668,
      "v": 44
    },
    {
      "midi": 55,
      "hit": false,
      "t": 16311.571366666663,
      "d": 297.10103333333245,
      "v": 32
    },
    {
      "midi": 94,
      "hit": false,
      "t": 16347.803199999997,
      "d": 101.44913333333352,
      "v": 43
    },
    {
      "midi": 58,
      "hit": false,
      "t": 16623.16513333333,
      "d": 1434.7806000000055,
      "v": 23
    },
    {
      "midi": 101,
      "hit": false,
      "t": 16644.904233333327,
      "d": 195.65190000000075,
      "v": 47
    },
    {
      "midi": 91,
      "hit": false,
      "t": 16949.25163333333,
      "d": 188.40553333333446,
      "v": 24
    },
    {
      "midi": 62,
      "hit": false,
      "t": 16949.25163333333,
      "d": 253.6228333333347,
      "v": 36
    },
    {
      "midi": 98,
      "hit": false,
      "t": 16956.497999999996,
      "d": 181.15916666666817,
      "v": 34
    },
    {
      "midi": 94,
      "hit": false,
      "t": 16978.237099999995,
      "d": 43.47820000000138,
      "v": 20
    },
    {
      "midi": 65,
      "hit": false,
      "t": 17253.599033333332,
      "d": 311.59376666666867,
      "v": 32
    },
    {
      "midi": 103,
      "hit": false,
      "t": 17260.8454,
      "d": 57.97093333333396,
      "v": 33
    },
    {
      "midi": 94,
      "hit": false,
      "t": 17594.178266666666,
      "d": 130.4346000000005,
      "v": 36
    },
    {
      "midi": 106,
      "hit": false,
      "t": 17594.178266666666,
      "d": 152.17369999999937,
      "v": 42
    },
    {
      "midi": 62,
      "hit": false,
      "t": 17615.917366666665,
      "d": 376.8110666666689,
      "v": 20
    },
    {
      "midi": 108,
      "hit": false,
      "t": 17934.7575,
      "d": 159.4200666666693,
      "v": 57
    },
    {
      "midi": 65,
      "hit": false,
      "t": 17949.250233333332,
      "d": 57.97093333333396,
      "v": 22
    },
    {
      "midi": 106,
      "hit": false,
      "t": 18326.0613,
      "d": 1760.8670999999995,
      "v": 43
    },
    {
      "midi": 60,
      "hit": false,
      "t": 18333.307666666668,
      "d": 369.564699999999,
      "v": 38
    },
    {
      "midi": 63,
      "hit": false,
      "t": 18340.554033333334,
      "d": 376.8110666666653,
      "v": 36
    },
    {
      "midi": 94,
      "hit": false,
      "t": 18347.8004,
      "d": 1630.432499999999,
      "v": 29
    },
    {
      "midi": 68,
      "hit": false,
      "t": 18362.293133333333,
      "d": 318.84013333333496,
      "v": 15
    },
    {
      "midi": 58,
      "hit": false,
      "t": 18688.379633333334,
      "d": 101.4491333333317,
      "v": 33
    },
    {
      "midi": 46,
      "hit": false,
      "t": 19101.42253333333,
      "d": 347.8256000000001,
      "v": 31
    },
    {
      "midi": 41,
      "hit": false,
      "t": 19485.479966666666,
      "d": 36.23183333333509,
      "v": 38
    },
    {
      "midi": 34,
      "hit": false,
      "t": 19963.740166666666,
      "d": 782.607600000003,
      "v": 43
    },
    {
      "midi": 22,
      "hit": false,
      "t": 19970.986533333333,
      "d": 739.1294000000016,
      "v": 48
    },
    {
      "midi": 72,
      "hit": false,
      "t": 22021.708300000002,
      "d": 557.9702333333335,
      "v": 91
    },
    {
      "midi": 72,
      "hit": false,
      "t": 22753.591333333334,
      "d": 528.9847666666647,
      "v": 71
    },
    {
      "midi": 70,
      "hit": false,
      "t": 22760.8377,
      "d": 746.3757666666643,
      "v": 73
    },
    {
      "midi": 46,
      "hit": false,
      "t": 22768.084066666666,
      "d": 1108.6941000000006,
      "v": 54
    },
    {
      "midi": 67,
      "hit": false,
      "t": 22775.330433333333,
      "d": 768.1148666666668,
      "v": 77
    },
    {
      "midi": 62,
      "hit": false,
      "t": 22775.330433333333,
      "d": 1123.1868333333332,
      "v": 80
    },
    {
      "midi": 72,
      "hit": false,
      "t": 23565.1844,
      "d": 507.2456666666658,
      "v": 70
    },
    {
      "midi": 70,
      "hit": false,
      "t": 23601.416233333333,
      "d": 499.99929999999586,
      "v": 34
    },
    {
      "midi": 64,
      "hit": false,
      "t": 24231.85013333333,
      "d": 1297.0996333333314,
      "v": 88
    },
    {
      "midi": 68,
      "hit": false,
      "t": 24231.85013333333,
      "d": 1355.0705666666654,
      "v": 80
    },
    {
      "midi": 72,
      "hit": false,
      "t": 24231.85013333333,
      "d": 1355.0705666666654,
      "v": 79
    },
    {
      "midi": 48,
      "hit": false,
      "t": 24239.096499999996,
      "d": 181.15916666666453,
      "v": 80
    },
    {
      "midi": 49,
      "hit": false,
      "t": 24441.99476666666,
      "d": 115.94186666666792,
      "v": 62
    },
    {
      "midi": 50,
      "hit": false,
      "t": 24586.922099999992,
      "d": 123.18823333333421,
      "v": 58
    },
    {
      "midi": 51,
      "hit": false,
      "t": 24702.86396666666,
      "d": 173.91280000000188,
      "v": 57
    },
    {
      "midi": 52,
      "hit": false,
      "t": 24833.29856666666,
      "d": 101.44913333333534,
      "v": 50
    },
    {
      "midi": 53,
      "hit": false,
      "t": 24956.486799999995,
      "d": 166.66643333333195,
      "v": 56
    },
    {
      "midi": 54,
      "hit": false,
      "t": 25115.90686666666,
      "d": 1478.2588000000032,
      "v": 60
    },
    {
      "midi": 75,
      "hit": false,
      "t": 25847.789899999996,
      "d": 760.8685000000005,
      "v": 48
    },
    {
      "midi": 68,
      "hit": false,
      "t": 25847.789899999996,
      "d": 826.0858000000007,
      "v": 37
    },
    {
      "midi": 72,
      "hit": false,
      "t": 25862.28263333333,
      "d": 731.8830333333353,
      "v": 32
    },
    {
      "midi": 60,
      "hit": false,
      "t": 25869.528999999995,
      "d": 666.6657333333351,
      "v": 33
    },
    {
      "midi": 64,
      "hit": false,
      "t": 25869.528999999995,
      "d": 797.1003333333356,
      "v": 42
    },
    {
      "midi": 70,
      "hit": false,
      "t": 27956.482599999996,
      "d": 905.7958333333299,
      "v": 36
    },
    {
      "midi": 63,
      "hit": false,
      "t": 27970.97533333333,
      "d": 688.4048333333303,
      "v": 39
    },
    {
      "midi": 56,
      "hit": false,
      "t": 27978.221699999995,
      "d": 514.4920333333321,
      "v": 33
    },
    {
      "midi": 41,
      "hit": false,
      "t": 27978.221699999995,
      "d": 521.7383999999984,
      "v": 37
    },
    {
      "midi": 48,
      "hit": false,
      "t": 27985.46806666666,
      "d": 521.7383999999984,
      "v": 38
    },
    {
      "midi": 63,
      "hit": false,
      "t": 28985.46666666666,
      "d": 456.5210999999981,
      "v": 29
    },
    {
      "midi": 60,
      "hit": false,
      "t": 28992.713033333326,
      "d": 471.0138333333307,
      "v": 46
    },
    {
      "midi": 56,
      "hit": false,
      "t": 29007.20576666666,
      "d": 514.4920333333284,
      "v": 32
    },
    {
      "midi": 53,
      "hit": false,
      "t": 29014.452133333325,
      "d": 427.53563333333295,
      "v": 20
    },
    {
      "midi": 70,
      "hit": false,
      "t": 29275.321333333326,
      "d": 217.39099999999598,
      "v": 93
    },
    {
      "midi": 75,
      "hit": false,
      "t": 29536.19053333332,
      "d": 166.66643333333195,
      "v": 86
    },
    {
      "midi": 74,
      "hit": false,
      "t": 29941.98706666665,
      "d": 1340.5778333333328,
      "v": 71
    },
    {
      "midi": 66,
      "hit": false,
      "t": 29949.233433333316,
      "d": 101.4491333333317,
      "v": 67
    },
    {
      "midi": 62,
      "hit": false,
      "t": 29963.72616666665,
      "d": 2391.3009999999995,
      "v": 60
    },
    {
      "midi": 56,
      "hit": false,
      "t": 29985.465266666648,
      "d": 2405.7937333333357,
      "v": 37
    },
    {
      "midi": 46,
      "hit": false,
      "t": 29985.465266666648,
      "d": 2507.242866666671,
      "v": 36
    },
    {
      "midi": 67,
      "hit": false,
      "t": 30050.68256666665,
      "d": 1862.3162333333348,
      "v": 49
    },
    {
      "midi": 72,
      "hit": false,
      "t": 31441.98496666665,
      "d": 340.57923333333383,
      "v": 53
    },
    {
      "midi": 70,
      "hit": false,
      "t": 31826.042399999984,
      "d": 615.9411666666674,
      "v": 60
    },
    {
      "midi": 68,
      "hit": false,
      "t": 32405.751733333316,
      "d": 108.69550000000163,
      "v": 35
    },
    {
      "midi": 67,
      "hit": false,
      "t": 32985.46106666665,
      "d": 485.506566666656,
      "v": 57
    },
    {
      "midi": 50,
      "hit": false,
      "t": 32999.95379999998,
      "d": 224.63736666666227,
      "v": 32
    },
    {
      "midi": 59,
      "hit": false,
      "t": 32999.95379999998,
      "d": 376.81106666666165,
      "v": 47
    },
    {
      "midi": 40,
      "hit": false,
      "t": 32999.95379999998,
      "d": 434.78199999999197,
      "v": 43
    },
    {
      "midi": 55,
      "hit": false,
      "t": 33028.939266666646,
      "d": 260.8691999999937,
      "v": 33
    },
    {
      "midi": 47,
      "hit": false,
      "t": 33289.80846666664,
      "d": 333.3328666666639,
      "v": 43
    },
    {
      "midi": 55,
      "hit": false,
      "t": 33557.92403333331,
      "d": 65.21729999999661,
      "v": 52
    },
    {
      "midi": 59,
      "hit": false,
      "t": 33557.92403333331,
      "d": 282.6082999999926,
      "v": 60
    },
    {
      "midi": 67,
      "hit": false,
      "t": 33818.7932333333,
      "d": 86.95639999999548,
      "v": 66
    },
    {
      "midi": 70,
      "hit": false,
      "t": 34130.386999999966,
      "d": 710.1439333333255,
      "v": 52
    },
    {
      "midi": 61,
      "hit": false,
      "t": 34137.63336666663,
      "d": 739.1293999999907,
      "v": 52
    },
    {
      "midi": 66,
      "hit": false,
      "t": 34144.8797333333,
      "d": 782.6075999999885,
      "v": 50
    },
    {
      "midi": 55,
      "hit": false,
      "t": 34152.126099999965,
      "d": 478.260199999997,
      "v": 35
    },
    {
      "midi": 45,
      "hit": false,
      "t": 34152.126099999965,
      "d": 1268.114166666659,
      "v": 39
    },
    {
      "midi": 52,
      "hit": false,
      "t": 34507.19806666663,
      "d": 275.3619333333336,
      "v": 36
    },
    {
      "midi": 68,
      "hit": false,
      "t": 35485.45756666662,
      "d": 355.07196666667005,
      "v": 59
    },
    {
      "midi": 67,
      "hit": false,
      "t": 35934.73229999996,
      "d": 485.50656666667055,
      "v": 51
    },
    {
      "midi": 60,
      "hit": false,
      "t": 35941.978666666626,
      "d": 376.8110666666689,
      "v": 36
    },
    {
      "midi": 63,
      "hit": false,
      "t": 35949.22503333329,
      "d": 456.5211000000054,
      "v": 34
    },
    {
      "midi": 44,
      "hit": false,
      "t": 35956.47139999996,
      "d": 2021.7363000000114,
      "v": 37
    },
    {
      "midi": 51,
      "hit": false,
      "t": 36311.54336666663,
      "d": 1565.215200000006,
      "v": 45
    },
    {
      "midi": 65,
      "hit": false,
      "t": 36840.5281333333,
      "d": 181.15916666666453,
      "v": 45
    },
    {
      "midi": 55,
      "hit": false,
      "t": 36869.51359999996,
      "d": 898.5494666666709,
      "v": 30
    },
    {
      "midi": 72,
      "hit": false,
      "t": 37282.55649999996,
      "d": 246.37646666666842,
      "v": 91
    },
    {
      "midi": 70,
      "hit": false,
      "t": 37746.323966666634,
      "d": 398.5501666666678,
      "v": 87
    },
    {
      "midi": 67,
      "hit": false,
      "t": 38492.6997333333,
      "d": 231.88373333333584,
      "v": 60
    },
    {
      "midi": 63,
      "hit": false,
      "t": 39333.27826666663,
      "d": 1311.592366666664,
      "v": 32
    },
    {
      "midi": 30,
      "hit": false,
      "t": 39340.5246333333,
      "d": 1021.7376999999979,
      "v": 33
    },
    {
      "midi": 52,
      "hit": false,
      "t": 39347.770999999964,
      "d": 1224.6359666666613,
      "v": 35
    },
    {
      "midi": 58,
      "hit": false,
      "t": 39347.770999999964,
      "d": 1398.5487666666595,
      "v": 44
    },
    {
      "midi": 42,
      "hit": false,
      "t": 39355.01736666663,
      "d": 1057.9695333333293,
      "v": 25
    },
    {
      "midi": 60,
      "hit": false,
      "t": 40695.59519999996,
      "d": 528.984766666661,
      "v": 49
    },
    {
      "midi": 63,
      "hit": false,
      "t": 42333.27406666662,
      "d": 275.3619333333336,
      "v": 43
    },
    {
      "midi": 57,
      "hit": false,
      "t": 42347.766799999954,
      "d": 195.6519000000044,
      "v": 40
    },
    {
      "midi": 59,
      "hit": false,
      "t": 42347.766799999954,
      "d": 210.14463333333697,
      "v": 47
    },
    {
      "midi": 62,
      "hit": false,
      "t": 42347.766799999954,
      "d": 239.13010000000213,
      "v": 57
    },
    {
      "midi": 41,
      "hit": false,
      "t": 42355.01316666662,
      "d": 427.53563333333295,
      "v": 37
    },
    {
      "midi": 74,
      "hit": false,
      "t": 42833.27336666662,
      "d": 246.37646666666842,
      "v": 74
    },
    {
      "midi": 74,
      "hit": false,
      "t": 43253.562633333284,
      "d": 304.34739999999874,
      "v": 67
    },
    {
      "midi": 71,
      "hit": false,
      "t": 43297.04083333328,
      "d": 398.5501666666678,
      "v": 51
    },
    {
      "midi": 67,
      "hit": false,
      "t": 43297.04083333328,
      "d": 463.7674666666644,
      "v": 64
    },
    {
      "midi": 63,
      "hit": false,
      "t": 43304.28719999995,
      "d": 376.8110666666689,
      "v": 49
    },
    {
      "midi": 62,
      "hit": false,
      "t": 43318.77993333328,
      "d": 442.02836666666553,
      "v": 50
    },
    {
      "midi": 75,
      "hit": false,
      "t": 43724.576466666615,
      "d": 268.1155666666673,
      "v": 67
    },
    {
      "midi": 74,
      "hit": false,
      "t": 44188.34393333328,
      "d": 999.998599999999,
      "v": 64
    },
    {
      "midi": 53,
      "hit": false,
      "t": 44210.08303333328,
      "d": 1826.0843999999925,
      "v": 45
    },
    {
      "midi": 67,
      "hit": false,
      "t": 44217.329399999944,
      "d": 579.7093333333323,
      "v": 52
    },
    {
      "midi": 63,
      "hit": false,
      "t": 44224.57576666661,
      "d": 463.7674666666644,
      "v": 39
    },
    {
      "midi": 60,
      "hit": false,
      "t": 44710.082333333274,
      "d": 1347.8241999999955,
      "v": 34
    },
    {
      "midi": 67,
      "hit": false,
      "t": 45239.06709999994,
      "d": 297.10103333333245,
      "v": 37
    },
    {
      "midi": 62,
      "hit": false,
      "t": 45275.29893333327,
      "d": 101.44913333333534,
      "v": 18
    },
    {
      "midi": 63,
      "hit": false,
      "t": 45275.29893333327,
      "d": 891.3030999999901,
      "v": 19
    },
    {
      "midi": 72,
      "hit": false,
      "t": 45855.008266666606,
      "d": 362.3183333333218,
      "v": 52
    },
    {
      "midi": 74,
      "hit": false,
      "t": 46123.123833333266,
      "d": 195.6518999999971,
      "v": 79
    },
    {
      "midi": 75,
      "hit": false,
      "t": 46347.76119999993,
      "d": 224.63736666666955,
      "v": 80
    },
    {
      "midi": 75,
      "hit": false,
      "t": 46644.86223333327,
      "d": 652.1730000000025,
      "v": 68
    },
    {
      "midi": 68,
      "hit": false,
      "t": 46652.108599999934,
      "d": 666.6657333333351,
      "v": 33
    },
    {
      "midi": 63,
      "hit": false,
      "t": 46652.108599999934,
      "d": 782.6075999999957,
      "v": 37
    },
    {
      "midi": 60,
      "hit": false,
      "t": 46681.0940666666,
      "d": 717.3902999999991,
      "v": 40
    },
    {
      "midi": 58,
      "hit": false,
      "t": 47021.67329999994,
      "d": 478.2601999999897,
      "v": 58
    },
    {
      "midi": 77,
      "hit": false,
      "t": 47340.51343333327,
      "d": 231.88373333332856,
      "v": 75
    },
    {
      "midi": 75,
      "hit": false,
      "t": 47644.86083333327,
      "d": 123.18823333333421,
      "v": 67
    },
    {
      "midi": 73,
      "hit": false,
      "t": 47862.25183333327,
      "d": 137.6809666666668,
      "v": 32
    },
    {
      "midi": 74,
      "hit": false,
      "t": 48123.12103333327,
      "d": 594.2020666666649,
      "v": 60
    },
    {
      "midi": 71,
      "hit": false,
      "t": 48130.36739999994,
      "d": 579.7093333333323,
      "v": 49
    },
    {
      "midi": 67,
      "hit": false,
      "t": 48137.6137666666,
      "d": 521.738400000002,
      "v": 54
    },
    {
      "midi": 62,
      "hit": false,
      "t": 48152.106499999936,
      "d": 420.28926666666666,
      "v": 40
    },
    {
      "midi": 56,
      "hit": false,
      "t": 48166.59923333327,
      "d": 753.6221333333306,
      "v": 28
    },
    {
      "midi": 46,
      "hit": false,
      "t": 48166.59923333327,
      "d": 2007.2435666666643,
      "v": 33
    },
    {
      "midi": 53,
      "hit": false,
      "t": 48862.25043333327,
      "d": 471.0138333333307,
      "v": 39
    },
    {
      "midi": 80,
      "hit": false,
      "t": 49499.93069999993,
      "d": 427.53563333333295,
      "v": 81
    },
    {
      "midi": 56,
      "hit": false,
      "t": 49528.9161666666,
      "d": 710.1439333333328,
      "v": 32
    },
    {
      "midi": 72,
      "hit": false,
      "t": 49941.9590666666,
      "d": 333.3328666666639,
      "v": 56
    },
    {
      "midi": 74,
      "hit": false,
      "t": 50282.53829999993,
      "d": 159.42006666666566,
      "v": 62
    },
    {
      "midi": 75,
      "hit": false,
      "t": 50970.94313333326,
      "d": 413.0429000000004,
      "v": 61
    },
    {
      "midi": 65,
      "hit": false,
      "t": 50985.435866666594,
      "d": 550.7238666666672,
      "v": 49
    },
    {
      "midi": 70,
      "hit": false,
      "t": 50985.435866666594,
      "d": 652.1730000000025,
      "v": 58
    },
    {
      "midi": 60,
      "hit": false,
      "t": 50999.92859999993,
      "d": 898.5494666666636,
      "v": 32
    },
    {
      "midi": 75,
      "hit": false,
      "t": 51478.18879999993,
      "d": 202.8982666666634,
      "v": 55
    },
    {
      "midi": 79,
      "hit": false,
      "t": 51883.98533333326,
      "d": 123.18823333333421,
      "v": 68
    },
    {
      "midi": 70,
      "hit": false,
      "t": 51891.231699999924,
      "d": 123.18823333333421,
      "v": 67
    },
    {
      "midi": 63,
      "hit": false,
      "t": 51891.231699999924,
      "d": 579.7093333333396,
      "v": 47
    },
    {
      "midi": 82,
      "hit": false,
      "t": 52376.738266666594,
      "d": 159.42006666666566,
      "v": 51
    },
    {
      "midi": 57,
      "hit": false,
      "t": 53253.54863333326,
      "d": 1442.02696666665,
      "v": 47
    },
    {
      "midi": 62,
      "hit": false,
      "t": 53282.534099999924,
      "d": 1449.2733333333163,
      "v": 46
    },
    {
      "midi": 74,
      "hit": false,
      "t": 53297.02683333326,
      "d": 615.9411666666638,
      "v": 58
    },
    {
      "midi": 79,
      "hit": false,
      "t": 53326.01229999992,
      "d": 637.6802666666626,
      "v": 56
    },
    {
      "midi": 63,
      "hit": false,
      "t": 53333.25866666659,
      "d": 768.1148666666631,
      "v": 36
    },
    {
      "midi": 83,
      "hit": false,
      "t": 53347.75139999992,
      "d": 601.4484333333312,
      "v": 60
    },
    {
      "midi": 67,
      "hit": false,
      "t": 53369.49049999992,
      "d": 782.6075999999957,
      "v": 51
    },
    {
      "midi": 86,
      "hit": false,
      "t": 53398.475966666585,
      "d": 499.99930000000313,
      "v": 81
    },
    {
      "midi": 84,
      "hit": false,
      "t": 53999.924399999916,
      "d": 202.8982666666634,
      "v": 63
    },
    {
      "midi": 72,
      "hit": false,
      "t": 54021.663499999915,
      "d": 231.88373333332856,
      "v": 39
    },
    {
      "midi": 86,
      "hit": false,
      "t": 54391.22819999991,
      "d": 130.4346000000005,
      "v": 74
    },
    {
      "midi": 79,
      "hit": false,
      "t": 54398.47456666658,
      "d": 253.6228333333347,
      "v": 50
    },
    {
      "midi": 63,
      "hit": false,
      "t": 54398.47456666658,
      "d": 384.05743333332794,
      "v": 45
    },
    {
      "midi": 74,
      "hit": false,
      "t": 54405.72093333324,
      "d": 152.17369999999937,
      "v": 53
    },
    {
      "midi": 67,
      "hit": false,
      "t": 54412.96729999991,
      "d": 289.85466666666616,
      "v": 42
    },
    {
      "midi": 87,
      "hit": false,
      "t": 54710.06833333324,
      "d": 86.95639999999548,
      "v": 78
    },
    {
      "midi": 68,
      "hit": false,
      "t": 55115.86486666657,
      "d": 398.5501666666678,
      "v": 49
    },
    {
      "midi": 63,
      "hit": false,
      "t": 55115.86486666657,
      "d": 420.28926666666666,
      "v": 37
    },
    {
      "midi": 84,
      "hit": false,
      "t": 55115.86486666657,
      "d": 1224.6359666666613,
      "v": 62
    },
    {
      "midi": 77,
      "hit": false,
      "t": 55115.86486666657,
      "d": 1260.8677999999927,
      "v": 60
    },
    {
      "midi": 80,
      "hit": false,
      "t": 55123.111233333235,
      "d": 1268.114166666659,
      "v": 53
    },
    {
      "midi": 72,
      "hit": false,
      "t": 55123.111233333235,
      "d": 1311.5923666666567,
      "v": 54
    },
    {
      "midi": 60,
      "hit": false,
      "t": 55137.60396666657,
      "d": 376.8110666666689,
      "v": 42
    },
    {
      "midi": 58,
      "hit": false,
      "t": 55492.67593333324,
      "d": 108.69549999999435,
      "v": 43
    },
    {
      "midi": 56,
      "hit": false,
      "t": 55905.71883333323,
      "d": 57.97093333333032,
      "v": 62
    },
    {
      "midi": 46,
      "hit": false,
      "t": 56326.0080999999,
      "d": 652.1729999999807,
      "v": 47
    },
    {
      "midi": 34,
      "hit": false,
      "t": 56833.25376666655,
      "d": 115.94186666666064,
      "v": 53
    },
    {
      "midi": 67,
      "hit": false,
      "t": 57391.22399999988,
      "d": 869.5639999999985,
      "v": 50
    },
    {
      "midi": 59,
      "hit": false,
      "t": 57456.441299999875,
      "d": 239.13010000000213,
      "v": 52
    },
    {
      "midi": 64,
      "hit": false,
      "t": 57456.441299999875,
      "d": 253.6228333333347,
      "v": 58
    },
    {
      "midi": 56,
      "hit": false,
      "t": 57470.93403333321,
      "d": 224.63736666666955,
      "v": 34
    },
    {
      "midi": 62,
      "hit": false,
      "t": 57470.93403333321,
      "d": 239.13010000000213,
      "v": 54
    },
    {
      "midi": 58,
      "hit": false,
      "t": 57492.673133333206,
      "d": 202.89826666667068,
      "v": 29
    },
    {
      "midi": 79,
      "hit": false,
      "t": 58086.87519999988,
      "d": 268.11556666666,
      "v": 45
    },
    {
      "midi": 71,
      "hit": false,
      "t": 58094.121566666545,
      "d": 181.15916666666453,
      "v": 44
    },
    {
      "midi": 74,
      "hit": false,
      "t": 58108.61429999988,
      "d": 202.8982666666634,
      "v": 44
    },
    {
      "midi": 70,
      "hit": false,
      "t": 58115.860666666544,
      "d": 115.94186666666792,
      "v": 29
    },
    {
      "midi": 76,
      "hit": false,
      "t": 58115.860666666544,
      "d": 224.63736666666227,
      "v": 52
    },
    {
      "midi": 68,
      "hit": false,
      "t": 58130.353399999876,
      "d": 101.44913333333534,
      "v": 32
    },
    {
      "midi": 91,
      "hit": false,
      "t": 58934.70009999987,
      "d": 231.88373333332856,
      "v": 44
    },
    {
      "midi": 82,
      "hit": false,
      "t": 58949.1928333332,
      "d": 202.8982666666634,
      "v": 31
    },
    {
      "midi": 80,
      "hit": false,
      "t": 58963.685566666536,
      "d": 173.91279999999824,
      "v": 34
    },
    {
      "midi": 86,
      "hit": false,
      "t": 58963.685566666536,
      "d": 173.91279999999824,
      "v": 48
    },
    {
      "midi": 88,
      "hit": false,
      "t": 58963.685566666536,
      "d": 224.63736666666227,
      "v": 45
    },
    {
      "midi": 83,
      "hit": false,
      "t": 58970.9319333332,
      "d": 260.8691999999937,
      "v": 20
    },
    {
      "midi": 72,
      "hit": false,
      "t": 60673.82809999986,
      "d": 985.5058666666664,
      "v": 60
    },
    {
      "midi": 58,
      "hit": false,
      "t": 60688.32083333319,
      "d": 355.0719666666628,
      "v": 49
    },
    {
      "midi": 64,
      "hit": false,
      "t": 60717.30629999986,
      "d": 586.9556999999986,
      "v": 45
    },
    {
      "midi": 67,
      "hit": false,
      "t": 60717.30629999986,
      "d": 594.2020666666649,
      "v": 45
    },
    {
      "midi": 58,
      "hit": false,
      "t": 61181.07376666652,
      "d": 478.26020000000426,
      "v": 36
    },
    {
      "midi": 67,
      "hit": false,
      "t": 61550.638466666525,
      "d": 572.4629666666733,
      "v": 56
    },
    {
      "midi": 64,
      "hit": false,
      "t": 61565.13119999986,
      "d": 318.8401333333386,
      "v": 42
    },
    {
      "midi": 58,
      "hit": false,
      "t": 61876.72496666653,
      "d": 268.1155666666673,
      "v": 42
    },
    {
      "midi": 68,
      "hit": false,
      "t": 62173.82599999986,
      "d": 702.8975666666665,
      "v": 74
    },
    {
      "midi": 72,
      "hit": false,
      "t": 62173.82599999986,
      "d": 1333.3314666666702,
      "v": 55
    },
    {
      "midi": 63,
      "hit": false,
      "t": 62181.07236666653,
      "d": 608.6947999999975,
      "v": 59
    },
    {
      "midi": 58,
      "hit": false,
      "t": 62195.56509999986,
      "d": 239.13009999999485,
      "v": 46
    },
    {
      "midi": 58,
      "hit": false,
      "t": 62528.897966666525,
      "d": 485.50656666667055,
      "v": 65
    },
    {
      "midi": 58,
      "hit": false,
      "t": 63231.7955333332,
      "d": 268.1155666666673,
      "v": 46
    },
    {
      "midi": 63,
      "hit": false,
      "t": 63637.59206666653,
      "d": 594.2020666666649,
      "v": 52
    },
    {
      "midi": 72,
      "hit": false,
      "t": 63644.8384333332,
      "d": 413.0429000000004,
      "v": 38
    },
    {
      "midi": 70,
      "hit": false,
      "t": 63652.084799999866,
      "d": 420.28926666666666,
      "v": 46
    },
    {
      "midi": 67,
      "hit": false,
      "t": 63659.33116666653,
      "d": 362.31833333333634,
      "v": 54
    },
    {
      "midi": 58,
      "hit": false,
      "t": 63666.5775333332,
      "d": 246.37646666666842,
      "v": 29
    },
    {
      "midi": 58,
      "hit": false,
      "t": 64036.1422333332,
      "d": 579.7093333333323,
      "v": 49
    },
    {
      "midi": 63,
      "hit": false,
      "t": 64369.475099999865,
      "d": 326.0865000000049,
      "v": 56
    },
    {
      "midi": 70,
      "hit": false,
      "t": 64383.9678333332,
      "d": 311.5937666666723,
      "v": 58
    },
    {
      "midi": 75,
      "hit": false,
      "t": 64739.03979999987,
      "d": 115.94186666666064,
      "v": 71
    },
    {
      "midi": 58,
      "hit": false,
      "t": 64753.5325333332,
      "d": 173.91279999999097,
      "v": 34
    },
    {
      "midi": 63,
      "hit": false,
      "t": 64760.77889999987,
      "d": 159.42006666665839,
      "v": 42
    },
    {
      "midi": 70,
      "hit": false,
      "t": 64775.2716333332,
      "d": 43.47819999999774,
      "v": 33
    },
    {
      "midi": 74,
      "hit": false,
      "t": 65572.37196666653,
      "d": 333.332866666693,
      "v": 69
    },
    {
      "midi": 67,
      "hit": false,
      "t": 65594.11106666653,
      "d": 971.0131333333557,
      "v": 52
    },
    {
      "midi": 58,
      "hit": false,
      "t": 65594.11106666653,
      "d": 1021.737700000027,
      "v": 47
    },
    {
      "midi": 71,
      "hit": false,
      "t": 65601.3574333332,
      "d": 623.1875333333446,
      "v": 57
    },
    {
      "midi": 62,
      "hit": false,
      "t": 65623.09653333321,
      "d": 869.564000000013,
      "v": 60
    },
    {
      "midi": 72,
      "hit": false,
      "t": 65949.18303333322,
      "d": 268.11556666666,
      "v": 55
    },
    {
      "midi": 70,
      "hit": false,
      "t": 66289.76226666656,
      "d": 144.92733333334036,
      "v": 58
    },
    {
      "midi": 68,
      "hit": false,
      "t": 66652.0805999999,
      "d": 282.60830000000715,
      "v": 45
    },
    {
      "midi": 67,
      "hit": false,
      "t": 67695.5573999999,
      "d": 275.3619333333627,
      "v": 55
    },
    {
      "midi": 43,
      "hit": false,
      "t": 67702.80376666658,
      "d": 362.31833333335817,
      "v": 48
    },
    {
      "midi": 58,
      "hit": false,
      "t": 67702.80376666658,
      "d": 405.79653333337046,
      "v": 46
    },
    {
      "midi": 62,
      "hit": false,
      "t": 67724.54286666658,
      "d": 347.8256000000256,
      "v": 45
    },
    {
      "midi": 55,
      "hit": false,
      "t": 67731.78923333326,
      "d": 297.1010333333397,
      "v": 26
    },
    {
      "midi": 67,
      "hit": false,
      "t": 68101.35393333327,
      "d": 101.44913333334262,
      "v": 64
    },
    {
      "midi": 67,
      "hit": false,
      "t": 68478.16499999995,
      "d": 231.88373333336494,
      "v": 57
    },
    {
      "midi": 63,
      "hit": false,
      "t": 68485.41136666662,
      "d": 601.4484333333676,
      "v": 42
    },
    {
      "midi": 58,
      "hit": false,
      "t": 68492.6577333333,
      "d": 492.7529333333514,
      "v": 30
    },
    {
      "midi": 48,
      "hit": false,
      "t": 68499.90409999997,
      "d": 797.1003333333501,
      "v": 31
    },
    {
      "midi": 67,
      "hit": false,
      "t": 68883.96153333332,
      "d": 137.6809666666668,
      "v": 60
    },
    {
      "midi": 67,
      "hit": false,
      "t": 69340.48263333332,
      "d": 275.36193333334813,
      "v": 46
    },
    {
      "midi": 46,
      "hit": false,
      "t": 69347.72899999999,
      "d": 499.9993000000104,
      "v": 30
    },
    {
      "midi": 56,
      "hit": false,
      "t": 69354.97536666667,
      "d": 579.7093333333469,
      "v": 25
    },
    {
      "midi": 61,
      "hit": false,
      "t": 69354.97536666667,
      "d": 666.6657333333424,
      "v": 37
    },
    {
      "midi": 67,
      "hit": false,
      "t": 69869.46740000001,
      "d": 173.91280000000552,
      "v": 45
    },
    {
      "midi": 66,
      "hit": false,
      "t": 70028.88746666668,
      "d": 152.17369999999937,
      "v": 10
    },
    {
      "midi": 67,
      "hit": false,
      "t": 70412.94490000002,
      "d": 463.76746666668623,
      "v": 43
    },
    {
      "midi": 61,
      "hit": false,
      "t": 70420.19126666669,
      "d": 797.1003333333647,
      "v": 20
    },
    {
      "midi": 59,
      "hit": false,
      "t": 70449.17673333336,
      "d": 623.1875333333592,
      "v": 37
    },
    {
      "midi": 45,
      "hit": false,
      "t": 70456.42310000003,
      "d": 746.3757666666934,
      "v": 28
    },
    {
      "midi": 55,
      "hit": false,
      "t": 70463.6694666667,
      "d": 608.694800000012,
      "v": 24
    },
    {
      "midi": 33,
      "hit": false,
      "t": 70470.91583333338,
      "d": 724.6366666666727,
      "v": 33
    },
    {
      "midi": 67,
      "hit": false,
      "t": 71036.13243333338,
      "d": 311.5937666666723,
      "v": 48
    },
    {
      "midi": 67,
      "hit": false,
      "t": 72036.13103333338,
      "d": 1065.2159000000102,
      "v": 38
    },
    {
      "midi": 62,
      "hit": false,
      "t": 72043.37740000006,
      "d": 971.0131333333411,
      "v": 38
    },
    {
      "midi": 32,
      "hit": false,
      "t": 72050.62376666673,
      "d": 913.0421999999962,
      "v": 32
    },
    {
      "midi": 60,
      "hit": false,
      "t": 72050.62376666673,
      "d": 963.7667666666675,
      "v": 35
    },
    {
      "midi": 44,
      "hit": false,
      "t": 72050.62376666673,
      "d": 978.2595000000001,
      "v": 31
    },
    {
      "midi": 55,
      "hit": false,
      "t": 72065.11650000006,
      "d": 826.0858000000007,
      "v": 29
    },
    {
      "midi": 65,
      "hit": false,
      "t": 73514.3898333334,
      "d": 268.11556666666,
      "v": 80
    },
    {
      "midi": 53,
      "hit": false,
      "t": 73543.37530000006,
      "d": 456.5210999999981,
      "v": 33
    },
    {
      "midi": 72,
      "hit": false,
      "t": 74050.62096666673,
      "d": 442.02836666666553,
      "v": 92
    },
    {
      "midi": 70,
      "hit": false,
      "t": 74528.88116666673,
      "d": 804.3466999999946,
      "v": 85
    },
    {
      "midi": 72,
      "hit": false,
      "t": 74572.35936666673,
      "d": 36.23183333333873,
      "v": 28
    },
    {
      "midi": 67,
      "hit": false,
      "t": 75014.3877333334,
      "d": 326.0865000000049,
      "v": 66
    },
    {
      "midi": 54,
      "hit": false,
      "t": 75637.57526666674,
      "d": 869.564000000013,
      "v": 69
    },
    {
      "midi": 75,
      "hit": false,
      "t": 75688.29983333341,
      "d": 1594.2006666666712,
      "v": 44
    },
    {
      "midi": 72,
      "hit": false,
      "t": 75702.79256666674,
      "d": 521.738400000002,
      "v": 52
    },
    {
      "midi": 68,
      "hit": false,
      "t": 75717.28530000008,
      "d": 1362.3169333333353,
      "v": 43
    },
    {
      "midi": 64,
      "hit": false,
      "t": 75724.53166666675,
      "d": 1202.8968666666624,
      "v": 50
    },
    {
      "midi": 58,
      "hit": false,
      "t": 75724.53166666675,
      "d": 1282.6068999999989,
      "v": 42
    },
    {
      "midi": 72,
      "hit": false,
      "t": 76760.76210000008,
      "d": 601.4484333333385,
      "v": 44
    },
    {
      "midi": 75,
      "hit": false,
      "t": 78021.62990000009,
      "d": 275.36193333334813,
      "v": 50
    },
    {
      "midi": 65,
      "hit": false,
      "t": 78028.87626666676,
      "d": 195.6518999999971,
      "v": 43
    },
    {
      "midi": 71,
      "hit": false,
      "t": 78028.87626666676,
      "d": 246.37646666666842,
      "v": 54
    },
    {
      "midi": 63,
      "hit": false,
      "t": 78036.12263333343,
      "d": 427.53563333333295,
      "v": 35
    },
    {
      "midi": 53,
      "hit": false,
      "t": 78050.61536666677,
      "d": 442.0283666666801,
      "v": 36
    },
    {
      "midi": 86,
      "hit": false,
      "t": 78485.39736666677,
      "d": 391.30380000002333,
      "v": 89
    },
    {
      "midi": 60,
      "hit": false,
      "t": 78499.89010000012,
      "d": 36.23183333333873,
      "v": 32
    },
    {
      "midi": 83,
      "hit": false,
      "t": 78891.19390000013,
      "d": 384.05743333334976,
      "v": 75
    },
    {
      "midi": 62,
      "hit": false,
      "t": 78912.93300000014,
      "d": 405.79653333334136,
      "v": 34
    },
    {
      "midi": 63,
      "hit": false,
      "t": 78912.93300000014,
      "d": 724.6366666666872,
      "v": 46
    },
    {
      "midi": 67,
      "hit": false,
      "t": 78920.17936666681,
      "d": 594.2020666666649,
      "v": 44
    },
    {
      "midi": 84,
      "hit": false,
      "t": 79246.26586666681,
      "d": 304.34739999999874,
      "v": 87
    },
    {
      "midi": 67,
      "hit": false,
      "t": 79572.35236666682,
      "d": 434.7820000000065,
      "v": 37
    },
    {
      "midi": 79,
      "hit": false,
      "t": 79572.35236666682,
      "d": 485.5065666666778,
      "v": 71
    },
    {
      "midi": 57,
      "hit": false,
      "t": 79608.58420000016,
      "d": 1239.1287000000157,
      "v": 24
    },
    {
      "midi": 75,
      "hit": false,
      "t": 79963.65616666683,
      "d": 311.5937666666723,
      "v": 60
    },
    {
      "midi": 63,
      "hit": false,
      "t": 79963.65616666683,
      "d": 956.5204000000085,
      "v": 32
    },
    {
      "midi": 74,
      "hit": false,
      "t": 80383.9454333335,
      "d": 623.1875333333301,
      "v": 54
    },
    {
      "midi": 67,
      "hit": false,
      "t": 80398.43816666683,
      "d": 427.53563333333295,
      "v": 39
    },
    {
      "midi": 77,
      "hit": false,
      "t": 80796.9883333335,
      "d": 391.3037999999942,
      "v": 65
    },
    {
      "midi": 75,
      "hit": false,
      "t": 81217.27760000016,
      "d": 753.6221333333378,
      "v": 42
    },
    {
      "midi": 68,
      "hit": false,
      "t": 81231.7703333335,
      "d": 427.5356333333475,
      "v": 35
    },
    {
      "midi": 72,
      "hit": false,
      "t": 81231.7703333335,
      "d": 681.1584666666749,
      "v": 40
    },
    {
      "midi": 63,
      "hit": false,
      "t": 81253.5094333335,
      "d": 521.738400000002,
      "v": 29
    },
    {
      "midi": 60,
      "hit": false,
      "t": 81275.2485333335,
      "d": 340.57923333333747,
      "v": 33
    },
    {
      "midi": 58,
      "hit": false,
      "t": 81731.7696333335,
      "d": 108.69550000000163,
      "v": 46
    },
    {
      "midi": 75,
      "hit": false,
      "t": 82282.49350000017,
      "d": 217.3910000000178,
      "v": 47
    },
    {
      "midi": 56,
      "hit": false,
      "t": 82282.49350000017,
      "d": 579.7093333333469,
      "v": 35
    },
    {
      "midi": 46,
      "hit": false,
      "t": 82289.73986666685,
      "d": 586.9557000000204,
      "v": 32
    },
    {
      "midi": 63,
      "hit": false,
      "t": 82296.98623333352,
      "d": 231.88373333333584,
      "v": 37
    },
    {
      "midi": 77,
      "hit": false,
      "t": 82594.08726666686,
      "d": 130.43459999999322,
      "v": 58
    },
    {
      "midi": 75,
      "hit": false,
      "t": 82847.71010000019,
      "d": 123.18823333334876,
      "v": 67
    },
    {
      "midi": 63,
      "hit": false,
      "t": 82869.44920000019,
      "d": 130.43460000000778,
      "v": 47
    },
    {
      "midi": 61,
      "hit": false,
      "t": 83434.6658000002,
      "d": 94.2027666666836,
      "v": 60
    },
    {
      "midi": 73,
      "hit": false,
      "t": 83434.6658000002,
      "d": 166.6664333333465,
      "v": 28
    },
    {
      "midi": 56,
      "hit": false,
      "t": 83470.89763333354,
      "d": 826.0858000000007,
      "v": 28
    },
    {
      "midi": 46,
      "hit": false,
      "t": 83478.14400000022,
      "d": 1673.910699999993,
      "v": 30
    },
    {
      "midi": 67,
      "hit": false,
      "t": 83557.85403333355,
      "d": 449.27473333332455,
      "v": 18
    },
    {
      "midi": 62,
      "hit": false,
      "t": 83572.34676666689,
      "d": 420.2892666666594,
      "v": 32
    },
    {
      "midi": 74,
      "hit": false,
      "t": 83572.34676666689,
      "d": 492.7529333333223,
      "v": 42
    },
    {
      "midi": 80,
      "hit": false,
      "t": 84456.40350000022,
      "d": 217.39100000000326,
      "v": 44
    },
    {
      "midi": 68,
      "hit": false,
      "t": 84478.14260000022,
      "d": 420.2892666666594,
      "v": 25
    },
    {
      "midi": 63,
      "hit": false,
      "t": 86202.77786666687,
      "d": 268.11556666667457,
      "v": 55
    },
    {
      "midi": 72,
      "hit": false,
      "t": 86210.02423333355,
      "d": 188.4055333333381,
      "v": 47
    },
    {
      "midi": 58,
      "hit": false,
      "t": 86217.27060000022,
      "d": 934.7813000000024,
      "v": 30
    },
    {
      "midi": 68,
      "hit": false,
      "t": 86224.5169666669,
      "d": 231.8837333333213,
      "v": 39
    },
    {
      "midi": 74,
      "hit": false,
      "t": 87057.84913333356,
      "d": 173.91280000000552,
      "v": 63
    },
    {
      "midi": 70,
      "hit": false,
      "t": 87072.34186666689,
      "d": 253.622833333342,
      "v": 51
    },
    {
      "midi": 65,
      "hit": false,
      "t": 87079.58823333356,
      "d": 166.66643333333195,
      "v": 45
    },
    {
      "midi": 60,
      "hit": false,
      "t": 87094.0809666669,
      "d": 427.5356333333475,
      "v": 34
    },
    {
      "midi": 75,
      "hit": false,
      "t": 87514.37023333357,
      "d": 311.59376666668686,
      "v": 65
    },
    {
      "midi": 70,
      "hit": false,
      "t": 87543.35570000025,
      "d": 289.8546666666807,
      "v": 51
    },
    {
      "midi": 67,
      "hit": false,
      "t": 87543.35570000025,
      "d": 362.3183333333436,
      "v": 55
    },
    {
      "midi": 51,
      "hit": false,
      "t": 87550.60206666692,
      "d": 456.52110000001267,
      "v": 52
    },
    {
      "midi": 62,
      "hit": false,
      "t": 87970.8913333336,
      "d": 210.14463333334425,
      "v": 71
    },
    {
      "midi": 67,
      "hit": false,
      "t": 88340.45603333361,
      "d": 86.95640000001004,
      "v": 72
    },
    {
      "midi": 79,
      "hit": false,
      "t": 88340.45603333361,
      "d": 130.43460000000778,
      "v": 64
    },
    {
      "midi": 72,
      "hit": false,
      "t": 88362.19513333362,
      "d": 79.71003333333647,
      "v": 48
    },
    {
      "midi": 70,
      "hit": false,
      "t": 88739.00620000028,
      "d": 108.69550000000163,
      "v": 70
    },
    {
      "midi": 82,
      "hit": false,
      "t": 88739.00620000028,
      "d": 137.6809666666668,
      "v": 73
    },
    {
      "midi": 46,
      "hit": false,
      "t": 89144.80273333362,
      "d": 94.20276666666905,
      "v": 67
    },
    {
      "midi": 85,
      "hit": false,
      "t": 89644.80203333362,
      "d": 434.78200000002107,
      "v": 74
    },
    {
      "midi": 73,
      "hit": false,
      "t": 89659.29476666695,
      "d": 376.8110666666762,
      "v": 60
    },
    {
      "midi": 66,
      "hit": false,
      "t": 89666.54113333362,
      "d": 369.56470000000263,
      "v": 61
    },
    {
      "midi": 62,
      "hit": false,
      "t": 89666.54113333362,
      "d": 391.3038000000088,
      "v": 58
    },
    {
      "midi": 56,
      "hit": false,
      "t": 89673.7875000003,
      "d": 347.8255999999965,
      "v": 56
    },
    {
      "midi": 78,
      "hit": false,
      "t": 89673.7875000003,
      "d": 369.56470000000263,
      "v": 56
    },
    {
      "midi": 82,
      "hit": false,
      "t": 89673.7875000003,
      "d": 405.79653333334136,
      "v": 48
    },
    {
      "midi": 85,
      "hit": false,
      "t": 90391.17780000031,
      "d": 318.8401333333459,
      "v": 67
    },
    {
      "midi": 73,
      "hit": false,
      "t": 90391.17780000031,
      "d": 855.071266666695,
      "v": 47
    },
    {
      "midi": 78,
      "hit": false,
      "t": 90405.67053333364,
      "d": 746.3757666666788,
      "v": 39
    },
    {
      "midi": 66,
      "hit": false,
      "t": 90412.91690000032,
      "d": 688.404833333334,
      "v": 35
    },
    {
      "midi": 82,
      "hit": false,
      "t": 90420.16326666699,
      "d": 369.56470000000263,
      "v": 30
    },
    {
      "midi": 62,
      "hit": false,
      "t": 90420.16326666699,
      "d": 760.8685000000114,
      "v": 36
    },
    {
      "midi": 56,
      "hit": false,
      "t": 90441.902366667,
      "d": 811.5930666666827,
      "v": 25
    },
    {
      "midi": 84,
      "hit": false,
      "t": 90847.69890000032,
      "d": 260.869200000001,
      "v": 72
    },
    {
      "midi": 82,
      "hit": false,
      "t": 91173.78540000033,
      "d": 224.63736666667683,
      "v": 64
    },
    {
      "midi": 80,
      "hit": false,
      "t": 91383.93003333367,
      "d": 231.88373333333584,
      "v": 46
    },
    {
      "midi": 82,
      "hit": false,
      "t": 91652.04560000035,
      "d": 246.37646666666842,
      "v": 48
    },
    {
      "midi": 51,
      "hit": false,
      "t": 91652.04560000035,
      "d": 2731.8802333333733,
      "v": 42
    },
    {
      "midi": 58,
      "hit": false,
      "t": 91941.90026666701,
      "d": 1050.7231666666776,
      "v": 34
    },
    {
      "midi": 62,
      "hit": false,
      "t": 92282.47950000035,
      "d": 528.9847666666756,
      "v": 52
    },
    {
      "midi": 65,
      "hit": false,
      "t": 92289.72586666702,
      "d": 144.92733333334036,
      "v": 40
    },
    {
      "midi": 67,
      "hit": false,
      "t": 92644.7978333337,
      "d": 275.3619333333336,
      "v": 67
    },
    {
      "midi": 62,
      "hit": false,
      "t": 93072.33346666703,
      "d": 86.95639999999548,
      "v": 52
    },
    {
      "midi": 67,
      "hit": false,
      "t": 93072.33346666703,
      "d": 318.8401333333313,
      "v": 68
    },
    {
      "midi": 58,
      "hit": false,
      "t": 93072.33346666703,
      "d": 927.5349333333434,
      "v": 23
    },
    {
      "midi": 74,
      "hit": false,
      "t": 93507.11546666702,
      "d": 181.15916666667908,
      "v": 68
    },
    {
      "midi": 67,
      "hit": false,
      "t": 93514.36183333369,
      "d": 159.42006666667294,
      "v": 57
    },
    {
      "midi": 62,
      "hit": false,
      "t": 93514.36183333369,
      "d": 217.39100000000326,
      "v": 58
    },
    {
      "midi": 70,
      "hit": false,
      "t": 93550.59366666703,
      "d": 246.37646666666842,
      "v": 35
    },
    {
      "midi": 75,
      "hit": false,
      "t": 93992.6220333337,
      "d": 1123.1868333333696,
      "v": 71
    },
    {
      "midi": 65,
      "hit": false,
      "t": 94007.11476666704,
      "d": 949.2740333333495,
      "v": 62
    },
    {
      "midi": 70,
      "hit": false,
      "t": 94007.11476666704,
      "d": 963.7667666666821,
      "v": 65
    },
    {
      "midi": 60,
      "hit": false,
      "t": 94014.36113333372,
      "d": 804.3467000000092,
      "v": 45
    },
    {
      "midi": 51,
      "hit": false,
      "t": 94681.02686666706,
      "d": 231.88373333333584,
      "v": 60
    },
    {
      "midi": 75,
      "hit": false,
      "t": 95267.98256666707,
      "d": 833.3321666667034,
      "v": 61
    },
    {
      "midi": 48,
      "hit": false,
      "t": 95282.4753000004,
      "d": 420.2892666666885,
      "v": 58
    },
    {
      "midi": 58,
      "hit": false,
      "t": 95289.72166666707,
      "d": 456.5211000000272,
      "v": 48
    },
    {
      "midi": 67,
      "hit": false,
      "t": 95296.96803333375,
      "d": 514.4920333333575,
      "v": 68
    },
    {
      "midi": 63,
      "hit": false,
      "t": 95296.96803333375,
      "d": 623.1875333333592,
      "v": 65
    },
    {
      "midi": 55,
      "hit": false,
      "t": 95710.01093333376,
      "d": 340.57923333333747,
      "v": 70
    },
    {
      "midi": 67,
      "hit": false,
      "t": 96130.30020000043,
      "d": 565.2165999999997,
      "v": 80
    },
    {
      "midi": 63,
      "hit": false,
      "t": 96130.30020000043,
      "d": 637.6802666666626,
      "v": 76
    },
    {
      "midi": 75,
      "hit": false,
      "t": 96144.79293333377,
      "d": 1659.417966666675,
      "v": 28
    },
    {
      "midi": 62,
      "hit": false,
      "t": 96536.09673333376,
      "d": 594.2020666666649,
      "v": 110
    },
    {
      "midi": 63,
      "hit": false,
      "t": 97036.09603333376,
      "d": 550.7238666666817,
      "v": 69
    },
    {
      "midi": 67,
      "hit": false,
      "t": 97043.34240000043,
      "d": 528.9847666666756,
      "v": 68
    },
    {
      "midi": 60,
      "hit": false,
      "t": 97485.3707666671,
      "d": 50.72456666667131,
      "v": 61
    },
    {
      "midi": 75,
      "hit": false,
      "t": 98094.06556666711,
      "d": 384.05743333334976,
      "v": 53
    },
    {
      "midi": 63,
      "hit": false,
      "t": 98094.06556666711,
      "d": 499.9993000000104,
      "v": 44
    },
    {
      "midi": 66,
      "hit": false,
      "t": 98094.06556666711,
      "d": 550.7238666666817,
      "v": 55
    },
    {
      "midi": 47,
      "hit": false,
      "t": 98101.31193333378,
      "d": 572.4629666666733,
      "v": 48
    },
    {
      "midi": 57,
      "hit": false,
      "t": 98108.55830000046,
      "d": 514.4920333333284,
      "v": 47
    },
    {
      "midi": 54,
      "hit": false,
      "t": 98623.05033333378,
      "d": 137.6809666666668,
      "v": 27
    },
    {
      "midi": 75,
      "hit": false,
      "t": 98623.05033333378,
      "d": 246.37646666666842,
      "v": 50
    },
    {
      "midi": 75,
      "hit": false,
      "t": 99304.20880000046,
      "d": 724.6366666666872,
      "v": 36
    },
    {
      "midi": 61,
      "hit": false,
      "t": 99311.45516666713,
      "d": 521.7384000000166,
      "v": 35
    },
    {
      "midi": 56,
      "hit": false,
      "t": 99325.94790000048,
      "d": 442.02836666666553,
      "v": 34
    },
    {
      "midi": 68,
      "hit": false,
      "t": 99325.94790000048,
      "d": 644.9266333333362,
      "v": 37
    },
    {
      "midi": 46,
      "hit": false,
      "t": 99340.44063333381,
      "d": 579.7093333333323,
      "v": 33
    },
    {
      "midi": 53,
      "hit": false,
      "t": 99833.19356666715,
      "d": 94.20276666666905,
      "v": 46
    },
    {
      "midi": 77,
      "hit": false,
      "t": 100963.62676666715,
      "d": 340.579233333352,
      "v": 67
    },
    {
      "midi": 68,
      "hit": false,
      "t": 100978.11950000048,
      "d": 260.86920000001555,
      "v": 53
    },
    {
      "midi": 73,
      "hit": false,
      "t": 100978.11950000048,
      "d": 268.1155666666891,
      "v": 40
    },
    {
      "midi": 63,
      "hit": false,
      "t": 100985.36586666715,
      "d": 376.8110666666762,
      "v": 44
    },
    {
      "midi": 75,
      "hit": false,
      "t": 101362.17693333383,
      "d": 202.89826666667068,
      "v": 59
    },
    {
      "midi": 71,
      "hit": false,
      "t": 101376.66966666716,
      "d": 137.6809666666668,
      "v": 66
    },
    {
      "midi": 66,
      "hit": false,
      "t": 101376.66966666716,
      "d": 144.92733333334036,
      "v": 50
    },
    {
      "midi": 61,
      "hit": false,
      "t": 101376.66966666716,
      "d": 326.0865000000049,
      "v": 44
    },
    {
      "midi": 73,
      "hit": false,
      "t": 101731.74163333383,
      "d": 181.15916666667908,
      "v": 50
    },
    {
      "midi": 60,
      "hit": false,
      "t": 101738.9880000005,
      "d": 57.97093333333032,
      "v": 51
    },
    {
      "midi": 70,
      "hit": false,
      "t": 101738.9880000005,
      "d": 108.69550000000163,
      "v": 62
    },
    {
      "midi": 65,
      "hit": false,
      "t": 101738.9880000005,
      "d": 123.18823333333421,
      "v": 68
    },
    {
      "midi": 73,
      "hit": false,
      "t": 102173.77000000051,
      "d": 862.317633333354,
      "v": 38
    },
    {
      "midi": 65,
      "hit": false,
      "t": 102181.01636666719,
      "d": 724.6366666666727,
      "v": 62
    },
    {
      "midi": 61,
      "hit": false,
      "t": 102181.01636666719,
      "d": 847.8249000000069,
      "v": 50
    },
    {
      "midi": 56,
      "hit": false,
      "t": 102202.7554666672,
      "d": 876.810366666672,
      "v": 33
    },
    {
      "midi": 46,
      "hit": false,
      "t": 102652.03020000053,
      "d": 688.404833333334,
      "v": 42
    },
    {
      "midi": 55,
      "hit": false,
      "t": 104130.28900000053,
      "d": 369.5647000000172,
      "v": 48
    },
    {
      "midi": 63,
      "hit": false,
      "t": 104137.5353666672,
      "d": 471.01383333334525,
      "v": 39
    },
    {
      "midi": 61,
      "hit": false,
      "t": 104144.78173333388,
      "d": 471.01383333334525,
      "v": 33
    },
    {
      "midi": 45,
      "hit": false,
      "t": 104159.27446666721,
      "d": 804.3467000000092,
      "v": 35
    },
    {
      "midi": 67,
      "hit": false,
      "t": 104891.15750000055,
      "d": 463.7674666666571,
      "v": 53
    },
    {
      "midi": 73,
      "hit": false,
      "t": 105637.53326666722,
      "d": 188.4055333333381,
      "v": 36
    },
    {
      "midi": 72,
      "hit": false,
      "t": 106173.76440000055,
      "d": 1413.0415000000503,
      "v": 47
    },
    {
      "midi": 44,
      "hit": false,
      "t": 106181.01076666723,
      "d": 2217.3882000000594,
      "v": 42
    },
    {
      "midi": 52,
      "hit": false,
      "t": 106521.59000000056,
      "d": 340.57923333333747,
      "v": 47
    },
    {
      "midi": 64,
      "hit": false,
      "t": 106869.41560000058,
      "d": 369.56470000000263,
      "v": 40
    },
    {
      "midi": 55,
      "hit": false,
      "t": 106869.41560000058,
      "d": 376.8110666666762,
      "v": 53
    },
    {
      "midi": 60,
      "hit": false,
      "t": 106883.90833333391,
      "d": 391.30380000002333,
      "v": 26
    },
    {
      "midi": 52,
      "hit": false,
      "t": 107224.48756666725,
      "d": 362.31833333335817,
      "v": 43
    },
    {
      "midi": 63,
      "hit": false,
      "t": 107615.79136666727,
      "d": 1137.6795666666876,
      "v": 29
    },
    {
      "midi": 60,
      "hit": false,
      "t": 107630.2841000006,
      "d": 420.28926666667394,
      "v": 35
    },
    {
      "midi": 53,
      "hit": false,
      "t": 107630.2841000006,
      "d": 1326.0851000000257,
      "v": 32
    },
    {
      "midi": 51,
      "hit": false,
      "t": 107999.8488000006,
      "d": 797.1003333333501,
      "v": 56
    },
    {
      "midi": 60,
      "hit": false,
      "t": 108362.16713333395,
      "d": 333.33286666667846,
      "v": 57
    },
    {
      "midi": 44,
      "hit": false,
      "t": 108709.99273333396,
      "d": 239.13009999999485,
      "v": 38
    },
    {
      "midi": 61,
      "hit": false,
      "t": 109144.77473333396,
      "d": 210.14463333334425,
      "v": 51
    },
    {
      "midi": 43,
      "hit": false,
      "t": 109152.02110000064,
      "d": 202.89826666667068,
      "v": 49
    },
    {
      "midi": 65,
      "hit": false,
      "t": 109159.26746666731,
      "d": 210.1446333333297,
      "v": 59
    },
    {
      "midi": 53,
      "hit": false,
      "t": 109173.76020000064,
      "d": 239.13009999999485,
      "v": 36
    },
    {
      "midi": 73,
      "hit": false,
      "t": 109956.36780000063,
      "d": 369.56470000003173,
      "v": 60
    },
    {
      "midi": 69,
      "hit": false,
      "t": 109963.6141666673,
      "d": 355.0719666666846,
      "v": 79
    },
    {
      "midi": 64,
      "hit": false,
      "t": 109970.86053333398,
      "d": 318.8401333333459,
      "v": 67
    },
    {
      "midi": 60,
      "hit": false,
      "t": 109978.10690000065,
      "d": 507.245666666684,
      "v": 65
    },
    {
      "midi": 63,
      "hit": false,
      "t": 110463.61346666733,
      "d": 376.8110666666762,
      "v": 56
    },
    {
      "midi": 72,
      "hit": false,
      "t": 110470.859833334,
      "d": 304.34739999999874,
      "v": 47
    },
    {
      "midi": 68,
      "hit": false,
      "t": 110470.859833334,
      "d": 318.8401333333313,
      "v": 54
    },
    {
      "midi": 58,
      "hit": false,
      "t": 110485.35256666734,
      "d": 492.75293333333684,
      "v": 49
    },
    {
      "midi": 66,
      "hit": false,
      "t": 110970.859133334,
      "d": 181.15916666667908,
      "v": 57
    },
    {
      "midi": 70,
      "hit": false,
      "t": 110970.859133334,
      "d": 181.15916666667908,
      "v": 60
    },
    {
      "midi": 61,
      "hit": false,
      "t": 110978.10550000067,
      "d": 260.869200000001,
      "v": 55
    },
    {
      "midi": 58,
      "hit": false,
      "t": 111449.119333334,
      "d": 695.6512000000221,
      "v": 53
    },
    {
      "midi": 68,
      "hit": false,
      "t": 111456.36570000068,
      "d": 702.8975666666811,
      "v": 44
    },
    {
      "midi": 61,
      "hit": false,
      "t": 111470.85843333401,
      "d": 688.4048333333485,
      "v": 52
    },
    {
      "midi": 48,
      "hit": false,
      "t": 111478.10480000068,
      "d": 514.492033333343,
      "v": 46
    },
    {
      "midi": 64,
      "hit": false,
      "t": 111507.09026666735,
      "d": 623.1875333333446,
      "v": 42
    },
    {
      "midi": 55,
      "hit": false,
      "t": 111891.14770000069,
      "d": 36.23183333333873,
      "v": 49
    },
    {
      "midi": 36,
      "hit": false,
      "t": 112434.6252000007,
      "d": 543.4775000000227,
      "v": 62
    },
    {
      "midi": 67,
      "hit": false,
      "t": 112434.6252000007,
      "d": 891.3031000000192,
      "v": 55
    },
    {
      "midi": 55,
      "hit": false,
      "t": 112441.87156666737,
      "d": 528.9847666666756,
      "v": 58
    },
    {
      "midi": 63,
      "hit": false,
      "t": 112449.11793333404,
      "d": 985.5058666666737,
      "v": 46
    },
    {
      "midi": 24,
      "hit": false,
      "t": 112941.87086666738,
      "d": 94.20276666666905,
      "v": 68
    },
    {
      "midi": 65,
      "hit": false,
      "t": 113615.78296666738,
      "d": 673.9121000000305,
      "v": 79
    },
    {
      "midi": 41,
      "hit": false,
      "t": 113623.02933333405,
      "d": 884.0567333333602,
      "v": 74
    },
    {
      "midi": 56,
      "hit": false,
      "t": 113630.27570000073,
      "d": 492.7529333333514,
      "v": 79
    },
    {
      "midi": 63,
      "hit": false,
      "t": 113630.27570000073,
      "d": 731.8830333333462,
      "v": 64
    },
    {
      "midi": 51,
      "hit": false,
      "t": 113630.27570000073,
      "d": 1057.9695333333511,
      "v": 75
    },
    {
      "midi": 60,
      "hit": false,
      "t": 113637.5220666674,
      "d": 550.7238666666817,
      "v": 80
    },
    {
      "midi": 68,
      "hit": false,
      "t": 114854.91166666741,
      "d": 195.6518999999971,
      "v": 80
    },
    {
      "midi": 72,
      "hit": false,
      "t": 115123.02723333407,
      "d": 499.99929999999586,
      "v": 71
    },
    {
      "midi": 70,
      "hit": false,
      "t": 115659.2583666674,
      "d": 115.9418666666752,
      "v": 57
    },
    {
      "midi": 53,
      "hit": false,
      "t": 115709.98293333407,
      "d": 1847.8234999999986,
      "v": 41
    },
    {
      "midi": 59,
      "hit": false,
      "t": 115709.98293333407,
      "d": 1862.3162333333312,
      "v": 47
    },
    {
      "midi": 64,
      "hit": false,
      "t": 115724.47566666741,
      "d": 1927.533533333335,
      "v": 35
    },
    {
      "midi": 71,
      "hit": false,
      "t": 115746.21476666741,
      "d": 427.53563333333295,
      "v": 62
    },
    {
      "midi": 70,
      "hit": false,
      "t": 116202.73586666741,
      "d": 217.39100000000326,
      "v": 47
    },
    {
      "midi": 68,
      "hit": false,
      "t": 116463.60506666741,
      "d": 253.62283333332743,
      "v": 35
    },
    {
      "midi": 65,
      "hit": false,
      "t": 116738.96700000075,
      "d": 862.3176333333249,
      "v": 60
    },
    {
      "midi": 72,
      "hit": false,
      "t": 118485.3413666674,
      "d": 297.1010333333397,
      "v": 96
    },
    {
      "midi": 65,
      "hit": false,
      "t": 118492.58773333408,
      "d": 565.2166000000143,
      "v": 72
    },
    {
      "midi": 56,
      "hit": false,
      "t": 118492.58773333408,
      "d": 623.1875333333446,
      "v": 56
    },
    {
      "midi": 60,
      "hit": false,
      "t": 118499.83410000075,
      "d": 521.738400000002,
      "v": 64
    },
    {
      "midi": 61,
      "hit": false,
      "t": 118499.83410000075,
      "d": 601.4484333333385,
      "v": 52
    },
    {
      "midi": 75,
      "hit": false,
      "t": 118833.16696666741,
      "d": 297.1010333333397,
      "v": 84
    },
    {
      "midi": 65,
      "hit": false,
      "t": 119231.71713333408,
      "d": 398.5501666666678,
      "v": 43
    },
    {
      "midi": 55,
      "hit": false,
      "t": 119231.71713333408,
      "d": 499.9993000000104,
      "v": 55
    },
    {
      "midi": 61,
      "hit": false,
      "t": 119231.71713333408,
      "d": 499.9993000000104,
      "v": 48
    },
    {
      "midi": 77,
      "hit": false,
      "t": 119231.71713333408,
      "d": 499.9993000000104,
      "v": 68
    },
    {
      "midi": 71,
      "hit": false,
      "t": 119637.51366666742,
      "d": 528.9847666666756,
      "v": 51
    },
    {
      "midi": 75,
      "hit": false,
      "t": 120246.20846666743,
      "d": 826.0858000000298,
      "v": 25
    },
    {
      "midi": 44,
      "hit": false,
      "t": 120253.45483333411,
      "d": 405.79653333334136,
      "v": 31
    },
    {
      "midi": 51,
      "hit": false,
      "t": 120594.03406666745,
      "d": 86.95640000001004,
      "v": 52
    },
    {
      "midi": 70,
      "hit": false,
      "t": 120949.10603333412,
      "d": 108.69550000001618,
      "v": 43
    },
    {
      "midi": 58,
      "hit": false,
      "t": 120956.35240000079,
      "d": 746.3757666666934,
      "v": 37
    },
    {
      "midi": 65,
      "hit": false,
      "t": 120970.84513333412,
      "d": 36.23183333333873,
      "v": 34
    },
    {
      "midi": 60,
      "hit": false,
      "t": 121318.67073333413,
      "d": 260.86920000001555,
      "v": 49
    },
    {
      "midi": 82,
      "hit": false,
      "t": 121340.40983333414,
      "d": 94.20276666666905,
      "v": 50
    },
    {
      "midi": 82,
      "hit": false,
      "t": 121695.48180000081,
      "d": 166.6664333333465,
      "v": 43
    },
    {
      "midi": 87,
      "hit": false,
      "t": 121695.48180000081,
      "d": 166.6664333333465,
      "v": 64
    },
    {
      "midi": 65,
      "hit": false,
      "t": 121702.72816666748,
      "d": 369.5647000000172,
      "v": 29
    },
    {
      "midi": 77,
      "hit": false,
      "t": 121738.96000000082,
      "d": 115.94186666666064,
      "v": 24
    },
    {
      "midi": 89,
      "hit": false,
      "t": 122065.04650000083,
      "d": 94.2027666666836,
      "v": 51
    },
    {
      "midi": 84,
      "hit": false,
      "t": 122086.78560000083,
      "d": 36.23183333333873,
      "v": 45
    },
    {
      "midi": 72,
      "hit": false,
      "t": 122115.7710666675,
      "d": 1108.6941000000515,
      "v": 25
    },
    {
      "midi": 71,
      "hit": false,
      "t": 122130.26380000084,
      "d": 57.97093333333032,
      "v": 24
    },
    {
      "midi": 94,
      "hit": false,
      "t": 122499.82850000085,
      "d": 43.47820000001229,
      "v": 45
    },
    {
      "midi": 75,
      "hit": false,
      "t": 122507.07486666752,
      "d": 753.622133333367,
      "v": 37
    },
    {
      "midi": 99,
      "hit": false,
      "t": 122992.5814333342,
      "d": 195.65190000001166,
      "v": 52
    },
    {
      "midi": 77,
      "hit": false,
      "t": 123007.07416666753,
      "d": 202.89826666668523,
      "v": 37
    },
    {
      "midi": 89,
      "hit": false,
      "t": 123021.56690000086,
      "d": 115.9418666666752,
      "v": 28
    },
    {
      "midi": 94,
      "hit": false,
      "t": 123028.81326666754,
      "d": 159.42006666667294,
      "v": 38
    },
    {
      "midi": 69,
      "hit": false,
      "t": 124173.73920000088,
      "d": 144.9273333333549,
      "v": 51
    },
    {
      "midi": 43,
      "hit": false,
      "t": 124209.97103333422,
      "d": 702.8975666666956,
      "v": 45
    },
    {
      "midi": 50,
      "hit": false,
      "t": 124224.46376666756,
      "d": 644.9266333333653,
      "v": 32
    },
    {
      "midi": 70,
      "hit": false,
      "t": 124253.44923333422,
      "d": 50.72456666667131,
      "v": 37
    },
    {
      "midi": 71,
      "hit": false,
      "t": 124311.42016666757,
      "d": 173.91280000000552,
      "v": 53
    },
    {
      "midi": 74,
      "hit": false,
      "t": 124507.07206666758,
      "d": 144.92733333334036,
      "v": 74
    },
    {
      "midi": 59,
      "hit": false,
      "t": 124528.81116666758,
      "d": 340.57923333333747,
      "v": 32
    },
    {
      "midi": 76,
      "hit": false,
      "t": 124796.92673333426,
      "d": 818.8394333333417,
      "v": 83
    },
    {
      "midi": 41,
      "hit": false,
      "t": 125209.96963333426,
      "d": 108.69550000000163,
      "v": 53
    },
    {
      "midi": 40,
      "hit": false,
      "t": 125659.2443666676,
      "d": 1463.7660666667216,
      "v": 37
    },
    {
      "midi": 71,
      "hit": false,
      "t": 125680.9834666676,
      "d": 623.1875333333446,
      "v": 52
    },
    {
      "midi": 67,
      "hit": false,
      "t": 125695.47620000094,
      "d": 391.3038000000088,
      "v": 40
    },
    {
      "midi": 47,
      "hit": false,
      "t": 126086.78000000094,
      "d": 1072.4622666667128,
      "v": 44
    },
    {
      "midi": 67,
      "hit": false,
      "t": 126470.83743333428,
      "d": 659.4193666667124,
      "v": 56
    },
    {
      "midi": 62,
      "hit": false,
      "t": 126492.57653333429,
      "d": 528.9847666666901,
      "v": 27
    },
    {
      "midi": 64,
      "hit": false,
      "t": 126507.06926666762,
      "d": 369.5647000000172,
      "v": 29
    },
    {
      "midi": 55,
      "hit": false,
      "t": 126507.06926666762,
      "d": 710.1439333333692,
      "v": 29
    },
    {
      "midi": 64,
      "hit": false,
      "t": 127086.77860000098,
      "d": 1550.7224666666734,
      "v": 59
    },
    {
      "midi": 62,
      "hit": false,
      "t": 128659.24016666766,
      "d": 195.6518999999971,
      "v": 41
    },
    {
      "midi": 78,
      "hit": false,
      "t": 129536.05053333432,
      "d": 166.6664333333465,
      "v": 78
    },
    {
      "midi": 55,
      "hit": false,
      "t": 129536.05053333432,
      "d": 710.1439333333255,
      "v": 82
    },
    {
      "midi": 66,
      "hit": false,
      "t": 129536.05053333432,
      "d": 739.1293999999907,
      "v": 85
    },
    {
      "midi": 61,
      "hit": false,
      "t": 129536.05053333432,
      "d": 891.3030999999901,
      "v": 73
    },
    {
      "midi": 83,
      "hit": false,
      "t": 129543.29690000099,
      "d": 413.0429000000004,
      "v": 80
    },
    {
      "midi": 71,
      "hit": false,
      "t": 129543.29690000099,
      "d": 442.02836666666553,
      "v": 91
    },
    {
      "midi": 81,
      "hit": false,
      "t": 129572.28236666766,
      "d": 36.23183333333873,
      "v": 41
    },
    {
      "midi": 79,
      "hit": false,
      "t": 129702.71696666766,
      "d": 340.5792333333229,
      "v": 46
    },
    {
      "midi": 82,
      "hit": false,
      "t": 130144.74533333431,
      "d": 188.40553333332355,
      "v": 75
    },
    {
      "midi": 81,
      "hit": false,
      "t": 130557.7882333343,
      "d": 478.2602000000188,
      "v": 65
    },
    {
      "midi": 69,
      "hit": false,
      "t": 130565.03460000097,
      "d": 550.7238666666963,
      "v": 58
    },
    {
      "midi": 54,
      "hit": false,
      "t": 130565.03460000097,
      "d": 608.6948000000266,
      "v": 43
    },
    {
      "midi": 65,
      "hit": false,
      "t": 130572.28096666765,
      "d": 449.2747333333391,
      "v": 53
    },
    {
      "midi": 60,
      "hit": false,
      "t": 130572.28096666765,
      "d": 471.01383333334525,
      "v": 51
    },
    {
      "midi": 79,
      "hit": false,
      "t": 131550.54046666768,
      "d": 507.24566666665487,
      "v": 44
    },
    {
      "midi": 67,
      "hit": false,
      "t": 131550.54046666768,
      "d": 637.6802666666626,
      "v": 53
    },
    {
      "midi": 74,
      "hit": false,
      "t": 131565.033200001,
      "d": 550.7238666666672,
      "v": 40
    },
    {
      "midi": 59,
      "hit": false,
      "t": 131572.27956666765,
      "d": 239.1301000000094,
      "v": 36
    },
    {
      "midi": 64,
      "hit": false,
      "t": 131579.5259333343,
      "d": 210.14463333334425,
      "v": 20
    },
    {
      "midi": 53,
      "hit": false,
      "t": 131579.5259333343,
      "d": 275.3619333333627,
      "v": 25
    },
    {
      "midi": 34,
      "hit": false,
      "t": 132195.467100001,
      "d": 101.44913333331351,
      "v": 58
    },
    {
      "midi": 56,
      "hit": false,
      "t": 132557.7854333343,
      "d": 130.43460000000778,
      "v": 49
    },
    {
      "midi": 58,
      "hit": false,
      "t": 132659.23456666764,
      "d": 101.44913333334262,
      "v": 64
    },
    {
      "midi": 59,
      "hit": false,
      "t": 132760.68370000098,
      "d": 123.18823333331966,
      "v": 51
    },
    {
      "midi": 62,
      "hit": false,
      "t": 132825.90100000097,
      "d": 159.42006666667294,
      "v": 57
    },
    {
      "midi": 64,
      "hit": false,
      "t": 132905.6110333343,
      "d": 94.2027666666836,
      "v": 52
    },
    {
      "midi": 67,
      "hit": false,
      "t": 132985.32106666765,
      "d": 28.985466666694265,
      "v": 62
    },
    {
      "midi": 70,
      "hit": false,
      "t": 133086.77020000102,
      "d": 43.47819999998319,
      "v": 31
    },
    {
      "midi": 71,
      "hit": false,
      "t": 133101.26293333434,
      "d": 123.18823333334876,
      "v": 83
    },
    {
      "midi": 74,
      "hit": false,
      "t": 133209.95843333434,
      "d": 94.2027666666836,
      "v": 67
    },
    {
      "midi": 76,
      "hit": false,
      "t": 133267.9293666677,
      "d": 43.47819999998319,
      "v": 53
    },
    {
      "midi": 79,
      "hit": false,
      "t": 133311.40756666768,
      "d": 28.98546666666516,
      "v": 56
    },
    {
      "midi": 80,
      "hit": false,
      "t": 133362.13213333435,
      "d": 36.231833333324175,
      "v": 36
    },
    {
      "midi": 83,
      "hit": false,
      "t": 133427.34943333434,
      "d": 94.2027666666836,
      "v": 64
    },
    {
      "midi": 86,
      "hit": false,
      "t": 133507.05946666768,
      "d": 72.46366666667745,
      "v": 64
    },
    {
      "midi": 88,
      "hit": false,
      "t": 133572.2767666677,
      "d": 43.47820000001229,
      "v": 40
    },
    {
      "midi": 91,
      "hit": false,
      "t": 133601.26223333436,
      "d": 36.23183333335328,
      "v": 45
    },
    {
      "midi": 93,
      "hit": false,
      "t": 133717.20410000105,
      "d": 57.970933333359426,
      "v": 33
    },
    {
      "midi": 95,
      "hit": false,
      "t": 133731.6968333344,
      "d": 130.43460000000778,
      "v": 32
    },
    {
      "midi": 98,
      "hit": false,
      "t": 133811.40686666773,
      "d": 637.6802666666918,
      "v": 40
    },
    {
      "midi": 100,
      "hit": false,
      "t": 133862.1314333344,
      "d": 623.1875333333446,
      "v": 58
    },
    {
      "midi": 103,
      "hit": false,
      "t": 133970.8269333344,
      "d": 405.79653333334136,
      "v": 72
    },
    {
      "midi": 72,
      "hit": false,
      "t": 135485.31756666774,
      "d": 760.8685000000114,
      "v": 68
    },
    {
      "midi": 72,
      "hit": false,
      "t": 136543.2871000011,
      "d": 376.8110666667053,
      "v": 48
    },
    {
      "midi": 51,
      "hit": false,
      "t": 136565.0262000011,
      "d": 963.7667666667257,
      "v": 45
    },
    {
      "midi": 67,
      "hit": false,
      "t": 136586.7653000011,
      "d": 1260.8678000000655,
      "v": 47
    },
    {
      "midi": 60,
      "hit": false,
      "t": 136601.25803333445,
      "d": 413.0429000000295,
      "v": 26
    },
    {
      "midi": 72,
      "hit": false,
      "t": 136999.80820000113,
      "d": 210.14463333334425,
      "v": 55
    },
    {
      "midi": 58,
      "hit": false,
      "t": 137036.0400333345,
      "d": 543.4775000000081,
      "v": 33
    },
    {
      "midi": 72,
      "hit": false,
      "t": 137376.6192666678,
      "d": 173.91280000002007,
      "v": 60
    },
    {
      "midi": 72,
      "hit": false,
      "t": 137717.19850000116,
      "d": 289.8546666666807,
      "v": 53
    },
    {
      "midi": 68,
      "hit": false,
      "t": 138144.7341333345,
      "d": 1014.4913333333388,
      "v": 67
    },
    {
      "midi": 72,
      "hit": false,
      "t": 138144.7341333345,
      "d": 1021.7376999999979,
      "v": 62
    },
    {
      "midi": 64,
      "hit": false,
      "t": 138151.98050000117,
      "d": 992.7522333333327,
      "v": 70
    },
    {
      "midi": 58,
      "hit": false,
      "t": 138159.22686666783,
      "d": 224.63736666666227,
      "v": 60
    },
    {
      "midi": 30,
      "hit": false,
      "t": 138702.70436666784,
      "d": 239.1301000000094,
      "v": 67
    },
    {
      "midi": 75,
      "hit": false,
      "t": 139507.05106666783,
      "d": 550.7238666666672,
      "v": 46
    },
    {
      "midi": 68,
      "hit": false,
      "t": 139521.54380000118,
      "d": 963.7667666666384,
      "v": 37
    },
    {
      "midi": 72,
      "hit": false,
      "t": 139528.79016666784,
      "d": 898.5494666666491,
      "v": 36
    },
    {
      "midi": 64,
      "hit": false,
      "t": 139543.28290000118,
      "d": 971.0131333332974,
      "v": 38
    },
    {
      "midi": 58,
      "hit": false,
      "t": 139550.52926666784,
      "d": 731.8830333333171,
      "v": 33
    },
    {
      "midi": 75,
      "hit": false,
      "t": 140246.18046666784,
      "d": 181.15916666664998,
      "v": 42
    },
    {
      "midi": 56,
      "hit": false,
      "t": 141253.4254333345,
      "d": 565.2165999999852,
      "v": 35
    },
    {
      "midi": 48,
      "hit": false,
      "t": 141253.4254333345,
      "d": 1036.230433333345,
      "v": 32
    },
    {
      "midi": 63,
      "hit": false,
      "t": 141260.67180000115,
      "d": 688.404833333334,
      "v": 36
    },
    {
      "midi": 70,
      "hit": false,
      "t": 141260.67180000115,
      "d": 746.3757666666643,
      "v": 37
    },
    {
      "midi": 41,
      "hit": false,
      "t": 141260.67180000115,
      "d": 985.5058666666737,
      "v": 42
    },
    {
      "midi": 55,
      "hit": false,
      "t": 141296.90363333447,
      "d": 1036.230433333374,
      "v": 33
    },
    {
      "midi": 70,
      "hit": false,
      "t": 142354.87316666785,
      "d": 202.89826666665613,
      "v": 72
    },
    {
      "midi": 75,
      "hit": false,
      "t": 142630.23510000118,
      "d": 159.42006666667294,
      "v": 80
    },
    {
      "midi": 65,
      "hit": false,
      "t": 143478.0600000012,
      "d": 355.07196666664095,
      "v": 55
    },
    {
      "midi": 74,
      "hit": false,
      "t": 143478.0600000012,
      "d": 398.55016666665324,
      "v": 58
    },
    {
      "midi": 70,
      "hit": false,
      "t": 143485.30636666785,
      "d": 413.0429000000004,
      "v": 53
    },
    {
      "midi": 60,
      "hit": false,
      "t": 143514.29183333452,
      "d": 449.27473333332455,
      "v": 36
    },
    {
      "midi": 68,
      "hit": false,
      "t": 143963.56656666784,
      "d": 347.82559999998193,
      "v": 60
    },
    {
      "midi": 72,
      "hit": false,
      "t": 143970.8129333345,
      "d": 333.3328666666639,
      "v": 46
    },
    {
      "midi": 58,
      "hit": false,
      "t": 143978.05930000116,
      "d": 528.9847666666901,
      "v": 48
    },
    {
      "midi": 63,
      "hit": false,
      "t": 144007.04476666782,
      "d": 289.8546666666807,
      "v": 25
    },
    {
      "midi": 70,
      "hit": false,
      "t": 144492.5513333345,
      "d": 289.8546666666516,
      "v": 53
    },
    {
      "midi": 61,
      "hit": false,
      "t": 144492.5513333345,
      "d": 347.82559999998193,
      "v": 56
    },
    {
      "midi": 66,
      "hit": false,
      "t": 144507.04406666785,
      "d": 297.1010333333106,
      "v": 43
    },
    {
      "midi": 56,
      "hit": false,
      "t": 144528.78316666785,
      "d": 420.2892666666303,
      "v": 32
    },
    {
      "midi": 54,
      "hit": false,
      "t": 145195.44890000115,
      "d": 869.5639999999839,
      "v": 50
    },
    {
      "midi": 68,
      "hit": false,
      "t": 145209.9416333345,
      "d": 391.3037999999942,
      "v": 34
    },
    {
      "midi": 64,
      "hit": false,
      "t": 145217.18800000116,
      "d": 326.0865000000049,
      "v": 40
    },
    {
      "midi": 59,
      "hit": false,
      "t": 145217.18800000116,
      "d": 362.31833333332906,
      "v": 40
    },
    {
      "midi": 67,
      "hit": false,
      "t": 145941.82466666782,
      "d": 210.14463333331514,
      "v": 40
    },
    {
      "midi": 59,
      "hit": false,
      "t": 145949.07103333448,
      "d": 123.18823333331966,
      "v": 40
    },
    {
      "midi": 62,
      "hit": false,
      "t": 145956.31740000113,
      "d": 130.43460000000778,
      "v": 37
    },
    {
      "midi": 40,
      "hit": false,
      "t": 145963.5637666678,
      "d": 333.3328666666639,
      "v": 35
    },
    {
      "midi": 55,
      "hit": false,
      "t": 145970.81013333445,
      "d": 72.46366666667745,
      "v": 17
    },
    {
      "midi": 47,
      "hit": false,
      "t": 146304.14300000112,
      "d": 36.231833333324175,
      "v": 37
    },
    {
      "midi": 79,
      "hit": false,
      "t": 146333.12846666778,
      "d": 1224.6359666666249,
      "v": 73
    },
    {
      "midi": 67,
      "hit": false,
      "t": 146666.46133333445,
      "d": 775.3612333333003,
      "v": 58
    },
    {
      "midi": 59,
      "hit": false,
      "t": 146673.7077000011,
      "d": 43.47820000001229,
      "v": 40
    },
    {
      "midi": 33,
      "hit": false,
      "t": 147079.50423333445,
      "d": 101.44913333331351,
      "v": 68
    },
    {
      "midi": 55,
      "hit": false,
      "t": 147521.53260000108,
      "d": 391.3037999999942,
      "v": 55
    },
    {
      "midi": 61,
      "hit": false,
      "t": 147528.77896666774,
      "d": 427.5356333333475,
      "v": 58
    },
    {
      "midi": 66,
      "hit": false,
      "t": 147550.51806666775,
      "d": 362.31833333332906,
      "v": 56
    },
    {
      "midi": 84,
      "hit": false,
      "t": 147978.0537000011,
      "d": 442.02836666666553,
      "v": 84
    },
    {
      "midi": 55,
      "hit": false,
      "t": 147978.0537000011,
      "d": 572.4629666666442,
      "v": 44
    },
    {
      "midi": 65,
      "hit": false,
      "t": 147985.30006666775,
      "d": 318.8401333333459,
      "v": 62
    },
    {
      "midi": 72,
      "hit": false,
      "t": 147985.30006666775,
      "d": 369.5647000000172,
      "v": 68
    },
    {
      "midi": 77,
      "hit": false,
      "t": 147985.30006666775,
      "d": 398.55016666668234,
      "v": 77
    },
    {
      "midi": 61,
      "hit": false,
      "t": 147985.30006666775,
      "d": 949.2740333333204,
      "v": 27
    },
    {
      "midi": 81,
      "hit": false,
      "t": 148485.29936666775,
      "d": 420.2892666666594,
      "v": 62
    },
    {
      "midi": 64,
      "hit": false,
      "t": 148492.5457333344,
      "d": 369.5646999999881,
      "v": 50
    },
    {
      "midi": 77,
      "hit": false,
      "t": 148492.5457333344,
      "d": 492.75293333333684,
      "v": 57
    },
    {
      "midi": 72,
      "hit": false,
      "t": 148492.5457333344,
      "d": 608.6947999999975,
      "v": 43
    },
    {
      "midi": 55,
      "hit": false,
      "t": 148883.8495333344,
      "d": 65.21730000001844,
      "v": 56
    },
    {
      "midi": 79,
      "hit": false,
      "t": 149296.8924333344,
      "d": 152.17369999998482,
      "v": 53
    },
    {
      "midi": 72,
      "hit": false,
      "t": 149304.13880000106,
      "d": 115.94186666666064,
      "v": 41
    },
    {
      "midi": 75,
      "hit": false,
      "t": 149304.13880000106,
      "d": 115.94186666666064,
      "v": 46
    },
    {
      "midi": 44,
      "hit": false,
      "t": 149311.38516666772,
      "d": 398.55016666668234,
      "v": 53
    },
    {
      "midi": 55,
      "hit": false,
      "t": 149318.63153333438,
      "d": 398.55016666668234,
      "v": 49
    },
    {
      "midi": 51,
      "hit": false,
      "t": 149659.21076666773,
      "d": 101.44913333334262,
      "v": 55
    },
    {
      "midi": 87,
      "hit": false,
      "t": 149659.21076666773,
      "d": 130.43460000000778,
      "v": 87
    },
    {
      "midi": 84,
      "hit": false,
      "t": 150021.52910000106,
      "d": 355.07196666669915,
      "v": 78
    },
    {
      "midi": 72,
      "hit": false,
      "t": 150036.0218333344,
      "d": 253.62283333332743,
      "v": 59
    },
    {
      "midi": 60,
      "hit": false,
      "t": 150036.0218333344,
      "d": 297.1010333333397,
      "v": 68
    },
    {
      "midi": 79,
      "hit": false,
      "t": 150036.0218333344,
      "d": 326.0865000000049,
      "v": 66
    },
    {
      "midi": 63,
      "hit": false,
      "t": 150383.84743333442,
      "d": 50.724566666642204,
      "v": 60
    },
    {
      "midi": 60,
      "hit": false,
      "t": 150391.09380000108,
      "d": 36.231833333324175,
      "v": 51
    },
    {
      "midi": 30,
      "hit": false,
      "t": 150767.90486666773,
      "d": 79.71003333333647,
      "v": 71
    },
    {
      "midi": 42,
      "hit": false,
      "t": 150767.90486666773,
      "d": 108.69550000000163,
      "v": 74
    },
    {
      "midi": 87,
      "hit": false,
      "t": 151260.65780000106,
      "d": 521.738400000002,
      "v": 77
    },
    {
      "midi": 64,
      "hit": false,
      "t": 151275.1505333344,
      "d": 275.3619333333045,
      "v": 66
    },
    {
      "midi": 80,
      "hit": false,
      "t": 151275.1505333344,
      "d": 405.79653333331225,
      "v": 64
    },
    {
      "midi": 76,
      "hit": false,
      "t": 151275.1505333344,
      "d": 427.5356333333184,
      "v": 68
    },
    {
      "midi": 58,
      "hit": false,
      "t": 151282.39690000107,
      "d": 1971.0117333333765,
      "v": 62
    },
    {
      "midi": 84,
      "hit": false,
      "t": 151289.64326666773,
      "d": 318.84013333331677,
      "v": 63
    },
    {
      "midi": 84,
      "hit": false,
      "t": 151854.85986666774,
      "d": 137.6809666666668,
      "v": 58
    },
    {
      "midi": 64,
      "hit": false,
      "t": 151854.85986666774,
      "d": 289.8546666666807,
      "v": 45
    },
    {
      "midi": 80,
      "hit": false,
      "t": 151862.1062333344,
      "d": 210.14463333334425,
      "v": 37
    },
    {
      "midi": 76,
      "hit": false,
      "t": 151862.1062333344,
      "d": 427.5356333333475,
      "v": 46
    },
    {
      "midi": 79,
      "hit": false,
      "t": 152601.2356333344,
      "d": 246.37646666666842,
      "v": 54
    },
    {
      "midi": 75,
      "hit": false,
      "t": 152622.9747333344,
      "d": 340.579233333352,
      "v": 37
    },
    {
      "midi": 72,
      "hit": false,
      "t": 152622.9747333344,
      "d": 420.2892666666885,
      "v": 35
    },
    {
      "midi": 64,
      "hit": false,
      "t": 152630.22110000107,
      "d": 260.86920000001555,
      "v": 31
    },
    {
      "midi": 74,
      "hit": false,
      "t": 153492.53873333446,
      "d": 210.14463333328604,
      "v": 54
    },
    {
      "midi": 69,
      "hit": false,
      "t": 153499.7851000011,
      "d": 173.91279999996186,
      "v": 39
    },
    {
      "midi": 71,
      "hit": false,
      "t": 153499.7851000011,
      "d": 195.651899999968,
      "v": 47
    },
    {
      "midi": 63,
      "hit": false,
      "t": 153507.03146666777,
      "d": 369.564699999959,
      "v": 35
    },
    {
      "midi": 53,
      "hit": false,
      "t": 153521.5242000011,
      "d": 384.0574333333061,
      "v": 35
    },
    {
      "midi": 60,
      "hit": false,
      "t": 153898.33526666774,
      "d": 43.47819999998319,
      "v": 48
    },
    {
      "midi": 86,
      "hit": false,
      "t": 153905.5816333344,
      "d": 166.66643333333195,
      "v": 81
    },
    {
      "midi": 87,
      "hit": false,
      "t": 154333.11726666772,
      "d": 333.332866666693,
      "v": 77
    },
    {
      "midi": 62,
      "hit": false,
      "t": 154333.11726666772,
      "d": 405.79653333337046,
      "v": 57
    },
    {
      "midi": 79,
      "hit": false,
      "t": 154347.61000000106,
      "d": 637.6802666666918,
      "v": 68
    },
    {
      "midi": 75,
      "hit": false,
      "t": 154347.61000000106,
      "d": 695.6512000000221,
      "v": 58
    },
    {
      "midi": 67,
      "hit": false,
      "t": 154362.1027333344,
      "d": 536.2311333333491,
      "v": 57
    },
    {
      "midi": 87,
      "hit": false,
      "t": 154775.1456333344,
      "d": 297.1010333333397,
      "v": 81
    },
    {
      "midi": 63,
      "hit": false,
      "t": 154775.1456333344,
      "d": 1065.215899999981,
      "v": 48
    },
    {
      "midi": 85,
      "hit": false,
      "t": 154833.11656666774,
      "d": 43.47820000001229,
      "v": 23
    },
    {
      "midi": 87,
      "hit": false,
      "t": 155195.43490000107,
      "d": 782.6076000000176,
      "v": 65
    },
    {
      "midi": 75,
      "hit": false,
      "t": 155209.92763333442,
      "d": 652.1729999999807,
      "v": 64
    },
    {
      "midi": 67,
      "hit": false,
      "t": 155209.92763333442,
      "d": 702.897566666652,
      "v": 58
    },
    {
      "midi": 60,
      "hit": false,
      "t": 155231.66673333442,
      "d": 369.5646999999881,
      "v": 42
    },
    {
      "midi": 59,
      "hit": false,
      "t": 155637.46326666774,
      "d": 318.8401333333459,
      "v": 62
    },
    {
      "midi": 87,
      "hit": false,
      "t": 156151.95530000108,
      "d": 499.99929999996675,
      "v": 62
    },
    {
      "midi": 67,
      "hit": false,
      "t": 156159.20166666774,
      "d": 579.7093333333323,
      "v": 41
    },
    {
      "midi": 63,
      "hit": false,
      "t": 156159.20166666774,
      "d": 652.1730000000098,
      "v": 33
    },
    {
      "midi": 58,
      "hit": false,
      "t": 156166.4480333344,
      "d": 427.5356333333184,
      "v": 37
    },
    {
      "midi": 75,
      "hit": false,
      "t": 156173.69440000106,
      "d": 536.2311333333491,
      "v": 38
    },
    {
      "midi": 79,
      "hit": false,
      "t": 156180.9407666677,
      "d": 449.27473333332455,
      "v": 47
    },
    {
      "midi": 57,
      "hit": false,
      "t": 156695.43280000106,
      "d": 130.43460000003688,
      "v": 38
    },
    {
      "midi": 68,
      "hit": false,
      "t": 157267.89576666776,
      "d": 659.4193666666979,
      "v": 38
    },
    {
      "midi": 56,
      "hit": false,
      "t": 157282.3885000011,
      "d": 615.9411666666856,
      "v": 36
    },
    {
      "midi": 60,
      "hit": false,
      "t": 157282.3885000011,
      "d": 811.5930666666827,
      "v": 35
    },
    {
      "midi": 63,
      "hit": false,
      "t": 157282.3885000011,
      "d": 855.071266666695,
      "v": 29
    },
    {
      "midi": 46,
      "hit": false,
      "t": 157296.88123333445,
      "d": 1717.3888999999908,
      "v": 31
    },
    {
      "midi": 53,
      "hit": false,
      "t": 157818.61963333446,
      "d": 1260.8677999999782,
      "v": 47
    },
    {
      "midi": 63,
      "hit": false,
      "t": 158282.38710000113,
      "d": 326.0865000000049,
      "v": 83
    },
    {
      "midi": 60,
      "hit": false,
      "t": 158296.87983333447,
      "d": 246.37646666666842,
      "v": 85
    },
    {
      "midi": 56,
      "hit": false,
      "t": 158311.37256666782,
      "d": 608.6947999999684,
      "v": 35
    },
    {
      "midi": 65,
      "hit": false,
      "t": 158608.47360000113,
      "d": 239.1301000000094,
      "v": 73
    },
    {
      "midi": 63,
      "hit": false,
      "t": 158912.82100000113,
      "d": 275.3619333333045,
      "v": 76
    },
    {
      "midi": 46,
      "hit": false,
      "t": 159369.34210000111,
      "d": 775.3612333333294,
      "v": 34
    },
    {
      "midi": 62,
      "hit": false,
      "t": 159369.34210000111,
      "d": 1659.4179666666605,
      "v": 64
    },
    {
      "midi": 59,
      "hit": false,
      "t": 159383.83483333446,
      "d": 1521.7369999999937,
      "v": 54
    },
    {
      "midi": 56,
      "hit": false,
      "t": 159398.32756666778,
      "d": 673.9120999999868,
      "v": 27
    },
    {
      "midi": 68,
      "hit": false,
      "t": 160036.00783333444,
      "d": 1057.969533333322,
      "v": 58
    },
    {
      "midi": 72,
      "hit": false,
      "t": 161680.93306666776,
      "d": 615.9411666666274,
      "v": 44
    },
    {
      "midi": 67,
      "hit": false,
      "t": 161709.91853333442,
      "d": 1072.462266666611,
      "v": 56
    },
    {
      "midi": 46,
      "hit": false,
      "t": 161717.16490000108,
      "d": 1057.969533333293,
      "v": 29
    },
    {
      "midi": 62,
      "hit": false,
      "t": 161724.41126666774,
      "d": 905.7958333333081,
      "v": 53
    },
    {
      "midi": 56,
      "hit": false,
      "t": 161724.41126666774,
      "d": 942.0276666666323,
      "v": 27
    },
    {
      "midi": 74,
      "hit": false,
      "t": 162593.97526666772,
      "d": 297.1010333333106,
      "v": 62
    },
    {
      "midi": 75,
      "hit": false,
      "t": 163412.81470000104,
      "d": 869.564000000013,
      "v": 54
    },
    {
      "midi": 39,
      "hit": false,
      "t": 163420.0610666677,
      "d": 289.8546666666807,
      "v": 34
    },
    {
      "midi": 65,
      "hit": false,
      "t": 163434.55380000104,
      "d": 521.738400000002,
      "v": 39
    },
    {
      "midi": 70,
      "hit": false,
      "t": 163434.55380000104,
      "d": 717.3902999999991,
      "v": 42
    },
    {
      "midi": 46,
      "hit": false,
      "t": 163441.8001666677,
      "d": 297.1010333333397,
      "v": 26
    },
    {
      "midi": 63,
      "hit": false,
      "t": 164456.29150000104,
      "d": 86.95640000002459,
      "v": 18
    },
    {
      "midi": 60,
      "hit": false,
      "t": 164485.2769666677,
      "d": 43.47820000001229,
      "v": 29
    },
    {
      "midi": 58,
      "hit": false,
      "t": 164507.0160666677,
      "d": 50.72456666670041,
      "v": 25
    },
    {
      "midi": 79,
      "hit": false,
      "t": 164804.11710000108,
      "d": 130.43460000000778,
      "v": 62
    },
    {
      "midi": 82,
      "hit": false,
      "t": 165108.46450000108,
      "d": 94.2027666666545,
      "v": 56
    },
    {
      "midi": 85,
      "hit": false,
      "t": 165420.05826666774,
      "d": 702.897566666652,
      "v": 58
    },
    {
      "midi": 73,
      "hit": false,
      "t": 165427.3046333344,
      "d": 644.9266333333217,
      "v": 34
    },
    {
      "midi": 78,
      "hit": false,
      "t": 165434.55100000105,
      "d": 637.6802666666626,
      "v": 38
    },
    {
      "midi": 46,
      "hit": false,
      "t": 165441.7973666677,
      "d": 275.3619333333336,
      "v": 38
    },
    {
      "midi": 56,
      "hit": false,
      "t": 165449.04373333437,
      "d": 318.8401333333459,
      "v": 33
    },
    {
      "midi": 82,
      "hit": false,
      "t": 165449.04373333437,
      "d": 623.1875333333446,
      "v": 34
    },
    {
      "midi": 86,
      "hit": false,
      "t": 166398.31776666772,
      "d": 731.8830333333462,
      "v": 61
    },
    {
      "midi": 67,
      "hit": false,
      "t": 166420.05686666773,
      "d": 188.4055333333381,
      "v": 49
    },
    {
      "midi": 79,
      "hit": false,
      "t": 166427.3032333344,
      "d": 717.3903000000282,
      "v": 47
    },
    {
      "midi": 62,
      "hit": false,
      "t": 166441.79596666773,
      "d": 253.62283333332743,
      "v": 35
    },
    {
      "midi": 56,
      "hit": false,
      "t": 166441.79596666773,
      "d": 362.31833333332906,
      "v": 27
    },
    {
      "midi": 74,
      "hit": false,
      "t": 166441.79596666773,
      "d": 681.1584666666749,
      "v": 40
    },
    {
      "midi": 51,
      "hit": false,
      "t": 167441.79456666776,
      "d": 398.55016666668234,
      "v": 46
    },
    {
      "midi": 87,
      "hit": false,
      "t": 167449.0409333344,
      "d": 369.5647000000172,
      "v": 52
    },
    {
      "midi": 75,
      "hit": false,
      "t": 167463.53366666776,
      "d": 463.7674666666717,
      "v": 38
    },
    {
      "midi": 58,
      "hit": false,
      "t": 167478.0264000011,
      "d": 471.0138333333307,
      "v": 37
    },
    {
      "midi": 42,
      "hit": false,
      "t": 169028.74886666777,
      "d": 115.94186666666064,
      "v": 48
    },
    {
      "midi": 68,
      "hit": false,
      "t": 169028.74886666777,
      "d": 326.0865000000049,
      "v": 51
    },
    {
      "midi": 58,
      "hit": false,
      "t": 169035.99523333443,
      "d": 355.07196666667005,
      "v": 64
    },
    {
      "midi": 61,
      "hit": false,
      "t": 169035.99523333443,
      "d": 420.2892666666594,
      "v": 53
    },
    {
      "midi": 64,
      "hit": false,
      "t": 169043.24160000109,
      "d": 239.1301000000094,
      "v": 56
    },
    {
      "midi": 67,
      "hit": false,
      "t": 169608.4582000011,
      "d": 485.5065666666778,
      "v": 61
    },
    {
      "midi": 56,
      "hit": false,
      "t": 169615.70456666776,
      "d": 384.0574333333352,
      "v": 37
    },
    {
      "midi": 41,
      "hit": false,
      "t": 169630.1973000011,
      "d": 362.31833333332906,
      "v": 55
    },
    {
      "midi": 60,
      "hit": false,
      "t": 169630.1973000011,
      "d": 391.3037999999942,
      "v": 55
    },
    {
      "midi": 63,
      "hit": false,
      "t": 169630.1973000011,
      "d": 550.7238666666963,
      "v": 42
    },
    {
      "midi": 51,
      "hit": false,
      "t": 169637.44366666776,
      "d": 471.0138333333598,
      "v": 38
    },
    {
      "midi": 71,
      "hit": false,
      "t": 170659.1813666678,
      "d": 586.9556999999913,
      "v": 55
    },
    {
      "midi": 62,
      "hit": false,
      "t": 170659.1813666678,
      "d": 637.6802666666626,
      "v": 58
    },
    {
      "midi": 56,
      "hit": false,
      "t": 170666.42773333445,
      "d": 637.6802666666626,
      "v": 47
    },
    {
      "midi": 67,
      "hit": false,
      "t": 170666.42773333445,
      "d": 688.404833333334,
      "v": 59
    },
    {
      "midi": 70,
      "hit": false,
      "t": 171695.4118000011,
      "d": 405.79653333334136,
      "v": 40
    },
    {
      "midi": 67,
      "hit": false,
      "t": 171717.1509000011,
      "d": 282.6082999999926,
      "v": 47
    },
    {
      "midi": 63,
      "hit": false,
      "t": 171717.1509000011,
      "d": 326.0865000000049,
      "v": 32
    },
    {
      "midi": 55,
      "hit": false,
      "t": 171724.39726666777,
      "d": 427.5356333333475,
      "v": 39
    },
    {
      "midi": 46,
      "hit": false,
      "t": 171731.64363333443,
      "d": 398.55016666668234,
      "v": 26
    },
    {
      "midi": 60,
      "hit": false,
      "t": 171738.8900000011,
      "d": 217.39100000000326,
      "v": 35
    },
    {
      "midi": 84,
      "hit": false,
      "t": 172398.3093666678,
      "d": 152.17370000001392,
      "v": 79
    },
    {
      "midi": 63,
      "hit": false,
      "t": 172724.3958666678,
      "d": 94.2027666666545,
      "v": 47
    },
    {
      "midi": 60,
      "hit": false,
      "t": 172760.62770000112,
      "d": 50.72456666667131,
      "v": 41
    },
    {
      "midi": 84,
      "hit": false,
      "t": 172760.62770000112,
      "d": 195.6518999999971,
      "v": 64
    },
    {
      "midi": 79,
      "hit": false,
      "t": 172775.12043333446,
      "d": 246.37646666663932,
      "v": 44
    },
    {
      "midi": 72,
      "hit": false,
      "t": 172782.36680000112,
      "d": 260.86919999998645,
      "v": 30
    },
    {
      "midi": 84,
      "hit": false,
      "t": 173093.96056666778,
      "d": 130.43460000000778,
      "v": 62
    },
    {
      "midi": 84,
      "hit": false,
      "t": 173412.80070000113,
      "d": 123.18823333331966,
      "v": 58
    },
    {
      "midi": 76,
      "hit": false,
      "t": 173753.37993333445,
      "d": 210.14463333328604,
      "v": 36
    },
    {
      "midi": 84,
      "hit": false,
      "t": 173760.6263000011,
      "d": 195.651899999968,
      "v": 38
    },
    {
      "midi": 36,
      "hit": false,
      "t": 173767.87266666777,
      "d": 123.18823333331966,
      "v": 41
    },
    {
      "midi": 80,
      "hit": false,
      "t": 173775.11903333443,
      "d": 202.89826666665613,
      "v": 34
    },
    {
      "midi": 63,
      "hit": false,
      "t": 174753.3785333344,
      "d": 159.42006666670204,
      "v": 26
    },
    {
      "midi": 90,
      "hit": false,
      "t": 174767.87126666776,
      "d": 108.69550000003073,
      "v": 42
    },
    {
      "midi": 75,
      "hit": false,
      "t": 174767.87126666776,
      "d": 115.94186666668975,
      "v": 33
    },
    {
      "midi": 58,
      "hit": false,
      "t": 174782.3640000011,
      "d": 144.9273333333549,
      "v": 34
    },
    {
      "midi": 52,
      "hit": false,
      "t": 174789.61036666777,
      "d": 115.94186666668975,
      "v": 37
    },
    {
      "midi": 42,
      "hit": false,
      "t": 175405.55153333445,
      "d": 173.91279999999097,
      "v": 37
    },
    {
      "midi": 52,
      "hit": false,
      "t": 175412.7979000011,
      "d": 86.95639999999548,
      "v": 30
    },
    {
      "midi": 56,
      "hit": false,
      "t": 175782.36260000113,
      "d": 210.14463333334425,
      "v": 34
    },
    {
      "midi": 41,
      "hit": false,
      "t": 175796.85533333448,
      "d": 224.63736666666227,
      "v": 38
    },
    {
      "midi": 51,
      "hit": false,
      "t": 175796.85533333448,
      "d": 318.8401333333459,
      "v": 32
    },
    {
      "midi": 63,
      "hit": false,
      "t": 175804.10170000113,
      "d": 420.2892666666885,
      "v": 31
    },
    {
      "midi": 60,
      "hit": false,
      "t": 175825.84080000114,
      "d": 210.14463333334425,
      "v": 33
    },
    {
      "midi": 63,
      "hit": false,
      "t": 176804.10030000116,
      "d": 239.1300999999803,
      "v": 29
    },
    {
      "midi": 60,
      "hit": false,
      "t": 176825.83940000116,
      "d": 144.9273333333258,
      "v": 36
    },
    {
      "midi": 53,
      "hit": false,
      "t": 176833.08576666782,
      "d": 144.9273333333258,
      "v": 24
    },
    {
      "midi": 56,
      "hit": false,
      "t": 176833.08576666782,
      "d": 210.14463333331514,
      "v": 33
    },
    {
      "midi": 82,
      "hit": false,
      "t": 177144.67953333448,
      "d": 173.91280000002007,
      "v": 91
    },
    {
      "midi": 83,
      "hit": false,
      "t": 177188.1577333345,
      "d": 101.44913333334262,
      "v": 31
    },
    {
      "midi": 87,
      "hit": false,
      "t": 177470.7660333345,
      "d": 181.15916666667908,
      "v": 90
    },
    {
      "midi": 87,
      "hit": false,
      "t": 177695.4034000012,
      "d": 159.42006666667294,
      "v": 81
    },
    {
      "midi": 66,
      "hit": false,
      "t": 177869.31620000122,
      "d": 376.8110666666471,
      "v": 40
    },
    {
      "midi": 62,
      "hit": false,
      "t": 177883.80893333457,
      "d": 369.564699999959,
      "v": 41
    },
    {
      "midi": 86,
      "hit": false,
      "t": 177898.3016666679,
      "d": 123.18823333331966,
      "v": 71
    },
    {
      "midi": 56,
      "hit": false,
      "t": 177898.3016666679,
      "d": 405.79653333331225,
      "v": 38
    },
    {
      "midi": 86,
      "hit": false,
      "t": 178101.19993333454,
      "d": 144.9273333333258,
      "v": 73
    },
    {
      "midi": 84,
      "hit": false,
      "t": 178282.3591000012,
      "d": 115.94186666666064,
      "v": 62
    },
    {
      "midi": 84,
      "hit": false,
      "t": 178492.5037333345,
      "d": 130.43460000000778,
      "v": 64
    },
    {
      "midi": 82,
      "hit": false,
      "t": 178746.12656666784,
      "d": 130.43460000000778,
      "v": 49
    },
    {
      "midi": 82,
      "hit": false,
      "t": 178934.53210000118,
      "d": 217.39099999997416,
      "v": 63
    },
    {
      "midi": 56,
      "hit": false,
      "t": 178941.77846666783,
      "d": 413.04289999997127,
      "v": 34
    },
    {
      "midi": 46,
      "hit": false,
      "t": 178949.0248333345,
      "d": 434.7820000000065,
      "v": 33
    },
    {
      "midi": 80,
      "hit": false,
      "t": 179159.1694666678,
      "d": 123.18823333331966,
      "v": 55
    },
    {
      "midi": 80,
      "hit": false,
      "t": 179369.31410000115,
      "d": 130.43460000000778,
      "v": 52
    },
    {
      "midi": 79,
      "hit": false,
      "t": 179637.42966666783,
      "d": 94.2027666666545,
      "v": 45
    },
    {
      "midi": 79,
      "hit": false,
      "t": 179818.58883333448,
      "d": 123.18823333331966,
      "v": 53
    },
    {
      "midi": 40,
      "hit": false,
      "t": 179978.00890000112,
      "d": 173.91279999999097,
      "v": 35
    },
    {
      "midi": 79,
      "hit": false,
      "t": 180035.97983333445,
      "d": 181.15916666664998,
      "v": 44
    },
    {
      "midi": 67,
      "hit": false,
      "t": 180296.84903333444,
      "d": 195.6518999999971,
      "v": 55
    },
    {
      "midi": 67,
      "hit": false,
      "t": 180579.45733333443,
      "d": 297.1010333333397,
      "v": 58
    },
    {
      "midi": 59,
      "hit": false,
      "t": 180949.02203333445,
      "d": 173.91279999999097,
      "v": 25
    },
    {
      "midi": 62,
      "hit": false,
      "t": 180949.02203333445,
      "d": 210.14463333331514,
      "v": 25
    },
    {
      "midi": 55,
      "hit": false,
      "t": 180956.2684000011,
      "d": 173.91279999999097,
      "v": 35
    },
    {
      "midi": 52,
      "hit": false,
      "t": 180963.51476666777,
      "d": 231.8837333333213,
      "v": 25
    },
    {
      "midi": 45,
      "hit": false,
      "t": 181521.4850000011,
      "d": 79.71003333333647,
      "v": 66
    },
    {
      "midi": 69,
      "hit": false,
      "t": 181934.5279000011,
      "d": 413.0429000000004,
      "v": 78
    },
    {
      "midi": 61,
      "hit": false,
      "t": 181934.5279000011,
      "d": 681.1584666666749,
      "v": 64
    },
    {
      "midi": 55,
      "hit": false,
      "t": 181934.5279000011,
      "d": 1137.6795666666876,
      "v": 73
    },
    {
      "midi": 83,
      "hit": false,
      "t": 181941.77426666775,
      "d": 130.43460000000778,
      "v": 60
    },
    {
      "midi": 81,
      "hit": false,
      "t": 181941.77426666775,
      "d": 456.52110000001267,
      "v": 56
    },
    {
      "midi": 75,
      "hit": false,
      "t": 181949.0206333344,
      "d": 43.47820000001229,
      "v": 37
    },
    {
      "midi": 65,
      "hit": false,
      "t": 181949.0206333344,
      "d": 528.9847666666901,
      "v": 62
    },
    {
      "midi": 80,
      "hit": false,
      "t": 181963.51336666776,
      "d": 28.98546666666516,
      "v": 40
    },
    {
      "midi": 82,
      "hit": false,
      "t": 182920.03376666777,
      "d": 130.43460000000778,
      "v": 44
    },
    {
      "midi": 88,
      "hit": false,
      "t": 182920.03376666777,
      "d": 224.63736666669138,
      "v": 47
    },
    {
      "midi": 76,
      "hit": false,
      "t": 182920.03376666777,
      "d": 289.8546666666807,
      "v": 52
    },
    {
      "midi": 61,
      "hit": false,
      "t": 182934.5265000011,
      "d": 123.18823333331966,
      "v": 36
    },
    {
      "midi": 45,
      "hit": false,
      "t": 183550.46766666777,
      "d": 86.95639999999548,
      "v": 35
    },
    {
      "midi": 63,
      "hit": false,
      "t": 183920.03236666776,
      "d": 434.7819999999774,
      "v": 42
    },
    {
      "midi": 55,
      "hit": false,
      "t": 183941.77146666776,
      "d": 275.3619333333045,
      "v": 45
    },
    {
      "midi": 51,
      "hit": false,
      "t": 183949.01783333442,
      "d": 514.4920333333139,
      "v": 32
    },
    {
      "midi": 44,
      "hit": false,
      "t": 183956.26420000108,
      "d": 463.7674666666426,
      "v": 31
    },
    {
      "midi": 60,
      "hit": false,
      "t": 183963.51056666774,
      "d": 333.3328666666639,
      "v": 44
    },
    {
      "midi": 63,
      "hit": false,
      "t": 184978.00190000108,
      "d": 65.21729999998934,
      "v": 53
    },
    {
      "midi": 60,
      "hit": false,
      "t": 185006.98736666774,
      "d": 36.231833333324175,
      "v": 48
    },
    {
      "midi": 56,
      "hit": false,
      "t": 185006.98736666774,
      "d": 86.95639999999548,
      "v": 31
    },
    {
      "midi": 65,
      "hit": false,
      "t": 185347.56660000107,
      "d": 72.46366666667745,
      "v": 80
    },
    {
      "midi": 72,
      "hit": false,
      "t": 185651.91400000107,
      "d": 115.94186666666064,
      "v": 90
    },
    {
      "midi": 70,
      "hit": false,
      "t": 185970.75413333438,
      "d": 210.14463333331514,
      "v": 53
    },
    {
      "midi": 63,
      "hit": false,
      "t": 185992.4932333344,
      "d": 275.3619333333045,
      "v": 48
    },
    {
      "midi": 67,
      "hit": false,
      "t": 185999.73960000105,
      "d": 152.17369999998482,
      "v": 46
    },
    {
      "midi": 53,
      "hit": false,
      "t": 185999.73960000105,
      "d": 456.52109999998356,
      "v": 37
    },
    {
      "midi": 43,
      "hit": false,
      "t": 186006.9859666677,
      "d": 543.477499999979,
      "v": 39
    },
    {
      "midi": 58,
      "hit": false,
      "t": 186006.9859666677,
      "d": 543.477499999979,
      "v": 46
    },
    {
      "midi": 67,
      "hit": false,
      "t": 186630.17350000102,
      "d": 50.72456666667131,
      "v": 63
    },
    {
      "midi": 63,
      "hit": false,
      "t": 186992.49183333435,
      "d": 326.0865000000049,
      "v": 53
    },
    {
      "midi": 48,
      "hit": false,
      "t": 187006.9845666677,
      "d": 652.1730000000098,
      "v": 43
    },
    {
      "midi": 36,
      "hit": false,
      "t": 187021.47730000105,
      "d": 565.2165999999852,
      "v": 33
    },
    {
      "midi": 52,
      "hit": false,
      "t": 187028.7236666677,
      "d": 260.86919999998645,
      "v": 27
    },
    {
      "midi": 56,
      "hit": false,
      "t": 187050.4627666677,
      "d": 615.9411666666565,
      "v": 21
    },
    {
      "midi": 60,
      "hit": false,
      "t": 187333.0710666677,
      "d": 391.3037999999942,
      "v": 52
    },
    {
      "midi": 63,
      "hit": false,
      "t": 187717.12850000104,
      "d": 115.94186666666064,
      "v": 23
    },
    {
      "midi": 59,
      "hit": false,
      "t": 188101.18593333437,
      "d": 362.31833333332906,
      "v": 40
    },
    {
      "midi": 60,
      "hit": false,
      "t": 188108.43230000103,
      "d": 260.86920000001555,
      "v": 41
    },
    {
      "midi": 51,
      "hit": false,
      "t": 188108.43230000103,
      "d": 362.31833333332906,
      "v": 42
    },
    {
      "midi": 55,
      "hit": false,
      "t": 188130.17140000104,
      "d": 275.3619333333336,
      "v": 35
    },
    {
      "midi": 41,
      "hit": false,
      "t": 188130.17140000104,
      "d": 507.24566666665487,
      "v": 40
    },
    {
      "midi": 62,
      "hit": false,
      "t": 188434.51880000104,
      "d": 86.95639999999548,
      "v": 62
    },
    {
      "midi": 74,
      "hit": false,
      "t": 188731.61983333435,
      "d": 224.63736666666227,
      "v": 82
    },
    {
      "midi": 67,
      "hit": false,
      "t": 188760.605300001,
      "d": 239.1301000000094,
      "v": 65
    },
    {
      "midi": 71,
      "hit": false,
      "t": 189064.952700001,
      "d": 398.55016666671145,
      "v": 47
    },
    {
      "midi": 67,
      "hit": false,
      "t": 189072.19906666767,
      "d": 847.8249000000651,
      "v": 40
    },
    {
      "midi": 63,
      "hit": false,
      "t": 189079.44543333433,
      "d": 826.085800000059,
      "v": 35
    },
    {
      "midi": 62,
      "hit": false,
      "t": 189093.93816666768,
      "d": 333.332866666693,
      "v": 45
    },
    {
      "midi": 60,
      "hit": false,
      "t": 189412.77830000102,
      "d": 1123.1868333333405,
      "v": 48
    },
    {
      "midi": 72,
      "hit": false,
      "t": 189427.27103333437,
      "d": 362.31833333335817,
      "v": 37
    },
    {
      "midi": 75,
      "hit": false,
      "t": 190064.95130000106,
      "d": 1166.6650333333237,
      "v": 44
    },
    {
      "midi": 67,
      "hit": false,
      "t": 190072.19766666772,
      "d": 608.6947999999684,
      "v": 40
    },
    {
      "midi": 63,
      "hit": false,
      "t": 190079.44403333438,
      "d": 601.4484333333094,
      "v": 30
    },
    {
      "midi": 53,
      "hit": false,
      "t": 190079.44403333438,
      "d": 1637.6788666666835,
      "v": 33
    },
    {
      "midi": 73,
      "hit": false,
      "t": 190528.7187666677,
      "d": 724.6366666666872,
      "v": 1
    },
    {
      "midi": 63,
      "hit": false,
      "t": 191043.21080000102,
      "d": 115.94186666668975,
      "v": 38
    },
    {
      "midi": 67,
      "hit": false,
      "t": 191057.70353333437,
      "d": 101.44913333334262,
      "v": 48
    },
    {
      "midi": 60,
      "hit": false,
      "t": 191079.44263333437,
      "d": 963.7667666666675,
      "v": 31
    },
    {
      "midi": 79,
      "hit": false,
      "t": 191412.77550000107,
      "d": 260.86919999998645,
      "v": 70
    },
    {
      "midi": 75,
      "hit": false,
      "t": 191702.63016666772,
      "d": 463.7674666666717,
      "v": 51
    },
    {
      "midi": 68,
      "hit": false,
      "t": 191717.12290000106,
      "d": 514.4920333333139,
      "v": 50
    },
    {
      "midi": 72,
      "hit": false,
      "t": 191724.36926666772,
      "d": 398.55016666665324,
      "v": 44
    },
    {
      "midi": 63,
      "hit": false,
      "t": 192035.96303333438,
      "d": 543.4775000000081,
      "v": 50
    },
    {
      "midi": 68,
      "hit": false,
      "t": 192362.04953333436,
      "d": 224.63736666669138,
      "v": 47
    },
    {
      "midi": 64,
      "hit": false,
      "t": 192405.52773333437,
      "d": 72.46366666667745,
      "v": 22
    },
    {
      "midi": 62,
      "hit": false,
      "t": 192688.1360333344,
      "d": 630.4339000000036,
      "v": 68
    },
    {
      "midi": 53,
      "hit": false,
      "t": 193014.2225333344,
      "d": 137.6809666666668,
      "v": 44
    },
    {
      "midi": 68,
      "hit": false,
      "t": 193333.06266666774,
      "d": 260.86919999998645,
      "v": 61
    },
    {
      "midi": 65,
      "hit": false,
      "t": 193666.3955333344,
      "d": 79.71003333333647,
      "v": 45
    },
    {
      "midi": 62,
      "hit": false,
      "t": 193666.3955333344,
      "d": 144.9273333333258,
      "v": 50
    },
    {
      "midi": 59,
      "hit": false,
      "t": 194043.20660000105,
      "d": 637.6802666666335,
      "v": 47
    },
    {
      "midi": 46,
      "hit": false,
      "t": 194050.4529666677,
      "d": 1253.6214333333191,
      "v": 30
    },
    {
      "midi": 56,
      "hit": false,
      "t": 194057.69933333437,
      "d": 724.636666666629,
      "v": 26
    },
    {
      "midi": 62,
      "hit": false,
      "t": 194064.94570000103,
      "d": 681.1584666666458,
      "v": 41
    },
    {
      "midi": 56,
      "hit": false,
      "t": 195101.17613333435,
      "d": 521.738400000002,
      "v": 29
    },
    {
      "midi": 62,
      "hit": false,
      "t": 195101.17613333435,
      "d": 594.2020666666795,
      "v": 38
    },
    {
      "midi": 59,
      "hit": false,
      "t": 195101.17613333435,
      "d": 659.4193666666688,
      "v": 42
    },
    {
      "midi": 46,
      "hit": false,
      "t": 195449.00173333436,
      "d": 391.3037999999942,
      "v": 46
    },
    {
      "midi": 63,
      "hit": false,
      "t": 196108.42110000103,
      "d": 514.492033333343,
      "v": 47
    },
    {
      "midi": 55,
      "hit": false,
      "t": 196130.16020000103,
      "d": 231.8837333333504,
      "v": 36
    },
    {
      "midi": 58,
      "hit": false,
      "t": 196130.16020000103,
      "d": 405.79653333334136,
      "v": 37
    },
    {
      "midi": 46,
      "hit": false,
      "t": 196130.16020000103,
      "d": 1427.5342333333392,
      "v": 32
    },
    {
      "midi": 55,
      "hit": false,
      "t": 197209.86883333436,
      "d": 405.79653333337046,
      "v": 54
    },
    {
      "midi": 72,
      "hit": false,
      "t": 197572.18716666772,
      "d": 202.89826666668523,
      "v": 57
    },
    {
      "midi": 73,
      "hit": false,
      "t": 197862.0418333344,
      "d": 210.14463333334425,
      "v": 59
    },
    {
      "midi": 75,
      "hit": false,
      "t": 198159.14286666774,
      "d": 268.11556666667457,
      "v": 64
    },
    {
      "midi": 63,
      "hit": false,
      "t": 198188.1283333344,
      "d": 260.86920000001555,
      "v": 55
    },
    {
      "midi": 72,
      "hit": false,
      "t": 198195.37470000106,
      "d": 210.14463333334425,
      "v": 40
    },
    {
      "midi": 68,
      "hit": false,
      "t": 198195.37470000106,
      "d": 239.1301000000094,
      "v": 50
    },
    {
      "midi": 64,
      "hit": false,
      "t": 198209.8674333344,
      "d": 195.6518999999971,
      "v": 56
    },
    {
      "midi": 61,
      "hit": false,
      "t": 198463.49026666777,
      "d": 217.39100000000326,
      "v": 37
    },
    {
      "midi": 73,
      "hit": false,
      "t": 198477.9830000011,
      "d": 101.44913333334262,
      "v": 25
    },
    {
      "midi": 75,
      "hit": false,
      "t": 198673.6349000011,
      "d": 478.2601999999606,
      "v": 56
    },
    {
      "midi": 72,
      "hit": false,
      "t": 198688.12763333443,
      "d": 391.3037999999942,
      "v": 37
    },
    {
      "midi": 68,
      "hit": false,
      "t": 198688.12763333443,
      "d": 398.55016666665324,
      "v": 37
    },
    {
      "midi": 63,
      "hit": false,
      "t": 198688.12763333443,
      "d": 514.4920333333139,
      "v": 37
    },
    {
      "midi": 64,
      "hit": false,
      "t": 198695.3740000011,
      "d": 391.3037999999942,
      "v": 40
    },
    {
      "midi": 73,
      "hit": false,
      "t": 199195.37330000108,
      "d": 746.3757666666352,
      "v": 39
    },
    {
      "midi": 68,
      "hit": false,
      "t": 199209.8660333344,
      "d": 478.2601999999897,
      "v": 51
    },
    {
      "midi": 61,
      "hit": false,
      "t": 199217.11240000106,
      "d": 463.7674666666717,
      "v": 43
    },
    {
      "midi": 64,
      "hit": false,
      "t": 199217.11240000106,
      "d": 492.75293333333684,
      "v": 39
    },
    {
      "midi": 68,
      "hit": false,
      "t": 199941.74906666772,
      "d": 195.6518999999971,
      "v": 56
    },
    {
      "midi": 48,
      "hit": false,
      "t": 200217.11100000105,
      "d": 1666.6643333332904,
      "v": 40
    },
    {
      "midi": 71,
      "hit": false,
      "t": 200282.32830000104,
      "d": 478.2601999999606,
      "v": 63
    },
    {
      "midi": 63,
      "hit": false,
      "t": 200289.5746666677,
      "d": 673.9120999999868,
      "v": 52
    },
    {
      "midi": 67,
      "hit": false,
      "t": 200296.82103333436,
      "d": 681.1584666666749,
      "v": 66
    },
    {
      "midi": 57,
      "hit": false,
      "t": 200304.06740000102,
      "d": 478.2601999999897,
      "v": 47
    },
    {
      "midi": 74,
      "hit": false,
      "t": 200557.69023333435,
      "d": 166.66643333333195,
      "v": 68
    },
    {
      "midi": 72,
      "hit": false,
      "t": 200811.31306666767,
      "d": 485.5065666666778,
      "v": 56
    },
    {
      "midi": 67,
      "hit": false,
      "t": 201282.32690000103,
      "d": 565.2165999999852,
      "v": 60
    },
    {
      "midi": 63,
      "hit": false,
      "t": 201289.5732666677,
      "d": 659.4193666666397,
      "v": 47
    },
    {
      "midi": 57,
      "hit": false,
      "t": 201304.066000001,
      "d": 195.6518999999971,
      "v": 55
    },
    {
      "midi": 67,
      "hit": false,
      "t": 202376.52826666768,
      "d": 282.6082999999926,
      "v": 54
    },
    {
      "midi": 63,
      "hit": false,
      "t": 202383.77463333434,
      "d": 471.0138333333307,
      "v": 37
    },
    {
      "midi": 56,
      "hit": false,
      "t": 202383.77463333434,
      "d": 507.24566666665487,
      "v": 34
    },
    {
      "midi": 46,
      "hit": false,
      "t": 202391.021000001,
      "d": 1195.6504999999888,
      "v": 33
    },
    {
      "midi": 60,
      "hit": false,
      "t": 202405.51373333434,
      "d": 391.3037999999942,
      "v": 33
    },
    {
      "midi": 70,
      "hit": false,
      "t": 202659.13656666767,
      "d": 246.37646666666842,
      "v": 64
    },
    {
      "midi": 68,
      "hit": false,
      "t": 202992.46943333434,
      "d": 681.1584666666458,
      "v": 69
    },
    {
      "midi": 59,
      "hit": false,
      "t": 202999.715800001,
      "d": 536.23113333332,
      "v": 72
    },
    {
      "midi": 56,
      "hit": false,
      "t": 202999.715800001,
      "d": 688.404833333334,
      "v": 42
    },
    {
      "midi": 63,
      "hit": false,
      "t": 203006.96216666765,
      "d": 615.9411666666565,
      "v": 67
    },
    {
      "midi": 63,
      "hit": false,
      "t": 203767.83066666767,
      "d": 499.99929999999586,
      "v": 39
    },
    {
      "midi": 56,
      "hit": false,
      "t": 203775.07703333432,
      "d": 456.52110000001267,
      "v": 35
    },
    {
      "midi": 46,
      "hit": false,
      "t": 203782.32340000098,
      "d": 210.14463333334425,
      "v": 35
    },
    {
      "midi": 59,
      "hit": false,
      "t": 203789.56976666764,
      "d": 188.4055333333381,
      "v": 35
    },
    {
      "midi": 68,
      "hit": false,
      "t": 204072.17806666766,
      "d": 217.39100000000326,
      "v": 53
    },
    {
      "midi": 46,
      "hit": false,
      "t": 204093.91716666767,
      "d": 144.9273333333258,
      "v": 42
    },
    {
      "midi": 67,
      "hit": false,
      "t": 204391.018200001,
      "d": 985.5058666666737,
      "v": 56
    },
    {
      "midi": 46,
      "hit": false,
      "t": 204405.51093333436,
      "d": 376.8110666666471,
      "v": 39
    },
    {
      "midi": 64,
      "hit": false,
      "t": 204412.75730000102,
      "d": 586.9556999999913,
      "v": 43
    },
    {
      "midi": 60,
      "hit": false,
      "t": 204420.00366666768,
      "d": 746.3757666666643,
      "v": 24
    },
    {
      "midi": 55,
      "hit": false,
      "t": 204434.496400001,
      "d": 978.2595000000147,
      "v": 42
    },
    {
      "midi": 46,
      "hit": false,
      "t": 204854.78566666768,
      "d": 442.02836666666553,
      "v": 37
    },
    {
      "midi": 46,
      "hit": false,
      "t": 205477.973200001,
      "d": 369.5646999999881,
      "v": 44
    },
    {
      "midi": 46,
      "hit": false,
      "t": 205912.75520000097,
      "d": 420.2892666666594,
      "v": 47
    },
    {
      "midi": 55,
      "hit": false,
      "t": 206238.84170000098,
      "d": 123.18823333331966,
      "v": 66
    },
    {
      "midi": 60,
      "hit": false,
      "t": 206238.84170000098,
      "d": 166.66643333333195,
      "v": 65
    },
    {
      "midi": 46,
      "hit": false,
      "t": 206405.5081333343,
      "d": 137.6809666666668,
      "v": 58
    },
    {
      "midi": 46,
      "hit": false,
      "t": 206622.89913333431,
      "d": 297.1010333333106,
      "v": 63
    },
    {
      "midi": 56,
      "hit": false,
      "t": 206622.89913333431,
      "d": 949.2740333333204,
      "v": 77
    },
    {
      "midi": 63,
      "hit": false,
      "t": 206622.89913333431,
      "d": 1942.026266666653,
      "v": 68
    },
    {
      "midi": 60,
      "hit": false,
      "t": 206630.14550000097,
      "d": 949.2740333333204,
      "v": 82
    },
    {
      "midi": 46,
      "hit": false,
      "t": 206977.97110000096,
      "d": 181.15916666667908,
      "v": 54
    },
    {
      "midi": 56,
      "hit": false,
      "t": 207688.1150333343,
      "d": 702.8975666666811,
      "v": 36
    },
    {
      "midi": 46,
      "hit": false,
      "t": 207688.1150333343,
      "d": 913.0421999999962,
      "v": 31
    },
    {
      "midi": 60,
      "hit": false,
      "t": 207709.8541333343,
      "d": 688.404833333334,
      "v": 37
    },
    {
      "midi": 34,
      "hit": false,
      "t": 208006.95516666764,
      "d": 159.42006666667294,
      "v": 43
    },
    {
      "midi": 34,
      "hit": false,
      "t": 208391.01260000098,
      "d": 72.46366666664835,
      "v": 39
    },
    {
      "midi": 34,
      "hit": false,
      "t": 208550.43266666762,
      "d": 1471.0124333333224,
      "v": 52
    },
    {
      "midi": 46,
      "hit": false,
      "t": 208717.09910000095,
      "d": 405.79653333331225,
      "v": 54
    },
    {
      "midi": 55,
      "hit": false,
      "t": 208746.08456666762,
      "d": 601.4484333333094,
      "v": 74
    },
    {
      "midi": 58,
      "hit": false,
      "t": 208746.08456666762,
      "d": 782.6075999999885,
      "v": 71
    },
    {
      "midi": 62,
      "hit": false,
      "t": 208753.33093333428,
      "d": 760.8684999999823,
      "v": 72
    },
    {
      "midi": 65,
      "hit": false,
      "t": 208753.33093333428,
      "d": 1731.881633333338,
      "v": 66
    },
    {
      "midi": 46,
      "hit": false,
      "t": 209173.62020000094,
      "d": 318.84013333331677,
      "v": 53
    },
    {
      "midi": 62,
      "hit": false,
      "t": 209796.80773333428,
      "d": 615.9411666666565,
      "v": 47
    },
    {
      "midi": 58,
      "hit": false,
      "t": 209804.05410000094,
      "d": 797.1003333333356,
      "v": 35
    },
    {
      "midi": 46,
      "hit": false,
      "t": 209804.05410000094,
      "d": 934.7813000000024,
      "v": 33
    },
    {
      "midi": 55,
      "hit": false,
      "t": 209825.79320000095,
      "d": 630.4339000000036,
      "v": 38
    },
    {
      "midi": 34,
      "hit": false,
      "t": 210137.3869666676,
      "d": 253.62283333332743,
      "v": 37
    },
    {
      "midi": 34,
      "hit": false,
      "t": 210543.18350000095,
      "d": 94.2027666666545,
      "v": 50
    },
    {
      "midi": 34,
      "hit": false,
      "t": 210724.3426666676,
      "d": 1471.0124333333515,
      "v": 57
    },
    {
      "midi": 63,
      "hit": false,
      "t": 210898.25546666762,
      "d": 956.5204000000085,
      "v": 64
    },
    {
      "midi": 56,
      "hit": false,
      "t": 210905.50183333427,
      "d": 855.0712666666659,
      "v": 71
    },
    {
      "midi": 60,
      "hit": false,
      "t": 210905.50183333427,
      "d": 876.810366666672,
      "v": 76
    },
    {
      "midi": 46,
      "hit": false,
      "t": 210912.74820000093,
      "d": 768.1148666666704,
      "v": 65
    },
    {
      "midi": 55,
      "hit": false,
      "t": 210912.74820000093,
      "d": 840.5785333333479,
      "v": 81
    },
    {
      "midi": 63,
      "hit": false,
      "t": 211999.70320000095,
      "d": 1072.4622666666692,
      "v": 43
    },
    {
      "midi": 56,
      "hit": false,
      "t": 212006.9495666676,
      "d": 963.7667666666966,
      "v": 35
    },
    {
      "midi": 46,
      "hit": false,
      "t": 212014.19593333427,
      "d": 782.6076000000176,
      "v": 34
    },
    {
      "midi": 55,
      "hit": false,
      "t": 212014.19593333427,
      "d": 905.7958333333663,
      "v": 49
    },
    {
      "midi": 60,
      "hit": false,
      "t": 212014.19593333427,
      "d": 1050.7231666666921,
      "v": 51
    },
    {
      "midi": 34,
      "hit": false,
      "t": 212354.77516666762,
      "d": 195.6518999999971,
      "v": 54
    },
    {
      "midi": 34,
      "hit": false,
      "t": 212811.29626666763,
      "d": 101.44913333334262,
      "v": 44
    },
    {
      "midi": 34,
      "hit": false,
      "t": 212948.9772333343,
      "d": 152.17369999998482,
      "v": 29
    },
    {
      "midi": 46,
      "hit": false,
      "t": 212977.96270000096,
      "d": 101.44913333331351,
      "v": 25
    },
    {
      "midi": 53,
      "hit": false,
      "t": 213159.1218666676,
      "d": 355.07196666667005,
      "v": 54
    },
    {
      "midi": 44,
      "hit": false,
      "t": 213159.1218666676,
      "d": 376.8110666666762,
      "v": 46
    },
    {
      "midi": 63,
      "hit": false,
      "t": 213166.36823333427,
      "d": 427.5356333333475,
      "v": 58
    },
    {
      "midi": 32,
      "hit": false,
      "t": 213173.61460000093,
      "d": 239.1301000000094,
      "v": 46
    },
    {
      "midi": 58,
      "hit": false,
      "t": 213173.61460000093,
      "d": 507.245666666684,
      "v": 44
    },
    {
      "midi": 58,
      "hit": false,
      "t": 214275.0623333343,
      "d": 115.94186666666064,
      "v": 55
    },
    {
      "midi": 48,
      "hit": false,
      "t": 214282.30870000095,
      "d": 166.66643333333195,
      "v": 51
    },
    {
      "midi": 67,
      "hit": false,
      "t": 214666.3661333343,
      "d": 181.15916666667908,
      "v": 71
    },
    {
      "midi": 58,
      "hit": false,
      "t": 214666.3661333343,
      "d": 289.8546666666807,
      "v": 76
    },
    {
      "midi": 63,
      "hit": false,
      "t": 214666.3661333343,
      "d": 304.34740000002785,
      "v": 67
    },
    {
      "midi": 67,
      "hit": false,
      "t": 215006.94536666764,
      "d": 159.42006666667294,
      "v": 68
    },
    {
      "midi": 67,
      "hit": false,
      "t": 215354.77096666765,
      "d": 268.11556666667457,
      "v": 69
    },
    {
      "midi": 46,
      "hit": false,
      "t": 215362.0173333343,
      "d": 427.5356333333475,
      "v": 44
    },
    {
      "midi": 56,
      "hit": false,
      "t": 215362.0173333343,
      "d": 601.4484333333385,
      "v": 47
    },
    {
      "midi": 61,
      "hit": false,
      "t": 215362.0173333343,
      "d": 688.404833333334,
      "v": 57
    },
    {
      "midi": 67,
      "hit": false,
      "t": 215724.33566666767,
      "d": 152.17369999998482,
      "v": 47
    },
    {
      "midi": 67,
      "hit": false,
      "t": 215992.45123333432,
      "d": 101.44913333334262,
      "v": 43
    },
    {
      "midi": 67,
      "hit": false,
      "t": 216195.349500001,
      "d": 108.69550000000163,
      "v": 44
    },
    {
      "midi": 67,
      "hit": false,
      "t": 216441.72596666767,
      "d": 304.34739999999874,
      "v": 51
    },
    {
      "midi": 39,
      "hit": false,
      "t": 216448.97233333433,
      "d": 391.30380000002333,
      "v": 48
    },
    {
      "midi": 61,
      "hit": false,
      "t": 216463.46506666768,
      "d": 731.8830333333754,
      "v": 43
    },
    {
      "midi": 55,
      "hit": false,
      "t": 216470.71143333433,
      "d": 528.9847666666901,
      "v": 46
    },
    {
      "midi": 67,
      "hit": false,
      "t": 216818.53703333435,
      "d": 130.43460000000778,
      "v": 46
    },
    {
      "midi": 67,
      "hit": false,
      "t": 217043.17440000104,
      "d": 101.44913333334262,
      "v": 65
    },
    {
      "midi": 67,
      "hit": false,
      "t": 217246.07266666772,
      "d": 137.6809666666668,
      "v": 51
    },
    {
      "midi": 67,
      "hit": false,
      "t": 217499.69550000105,
      "d": 1637.6788666665962,
      "v": 40
    },
    {
      "midi": 60,
      "hit": false,
      "t": 217506.9418666677,
      "d": 956.5203999999503,
      "v": 57
    },
    {
      "midi": 44,
      "hit": false,
      "t": 217514.18823333437,
      "d": 891.303099999961,
      "v": 45
    },
    {
      "midi": 52,
      "hit": false,
      "t": 217521.43460000103,
      "d": 253.62283333332743,
      "v": 36
    },
    {
      "midi": 55,
      "hit": false,
      "t": 217775.05743333435,
      "d": 144.9273333333258,
      "v": 62
    },
    {
      "midi": 53,
      "hit": false,
      "t": 218064.912100001,
      "d": 405.79653333331225,
      "v": 62
    },
    {
      "midi": 55,
      "hit": false,
      "t": 218601.14323333433,
      "d": 384.0574333333352,
      "v": 61
    },
    {
      "midi": 60,
      "hit": false,
      "t": 218608.38960000098,
      "d": 434.7820000000065,
      "v": 52
    },
    {
      "midi": 44,
      "hit": false,
      "t": 218992.44703333432,
      "d": 442.02836666666553,
      "v": 72
    },
    {
      "midi": 70,
      "hit": false,
      "t": 219557.6636333343,
      "d": 413.04289999997127,
      "v": 80
    },
    {
      "midi": 43,
      "hit": false,
      "t": 219557.6636333343,
      "d": 637.6802666666335,
      "v": 68
    },
    {
      "midi": 62,
      "hit": false,
      "t": 219564.91000000096,
      "d": 485.5065666666487,
      "v": 89
    },
    {
      "midi": 58,
      "hit": false,
      "t": 219572.15636666762,
      "d": 456.52109999998356,
      "v": 79
    },
    {
      "midi": 53,
      "hit": false,
      "t": 219572.15636666762,
      "d": 579.7093333333032,
      "v": 72
    },
    {
      "midi": 67,
      "hit": false,
      "t": 220086.64840000094,
      "d": 152.17370000001392,
      "v": 76
    },
    {
      "midi": 63,
      "hit": false,
      "t": 220615.63316666763,
      "d": 586.9557000000495,
      "v": 53
    },
    {
      "midi": 42,
      "hit": false,
      "t": 220615.63316666763,
      "d": 615.9411666667147,
      "v": 57
    },
    {
      "midi": 58,
      "hit": false,
      "t": 220630.12590000097,
      "d": 818.8394333333708,
      "v": 60
    },
    {
      "midi": 52,
      "hit": false,
      "t": 220644.61863333432,
      "d": 514.492033333343,
      "v": 52
    },
    {
      "midi": 60,
      "hit": false,
      "t": 221231.57433333434,
      "d": 268.11556666667457,
      "v": 58
    },
    {
      "midi": 57,
      "hit": false,
      "t": 221753.31273333434,
      "d": 181.15916666664998,
      "v": 54
    },
    {
      "midi": 63,
      "hit": false,
      "t": 221753.31273333434,
      "d": 260.86919999998645,
      "v": 45
    },
    {
      "midi": 59,
      "hit": false,
      "t": 221760.559100001,
      "d": 217.39100000000326,
      "v": 60
    },
    {
      "midi": 51,
      "hit": false,
      "t": 221760.559100001,
      "d": 376.8110666666762,
      "v": 38
    },
    {
      "midi": 41,
      "hit": false,
      "t": 221775.05183333432,
      "d": 289.8546666666807,
      "v": 41
    },
    {
      "midi": 75,
      "hit": false,
      "t": 222311.28296666767,
      "d": 463.7674666666717,
      "v": 67
    },
    {
      "midi": 70,
      "hit": false,
      "t": 222557.65943333434,
      "d": 65.21729999998934,
      "v": 26
    },
    {
      "midi": 71,
      "hit": false,
      "t": 222789.5431666677,
      "d": 572.4629666666442,
      "v": 72
    },
    {
      "midi": 69,
      "hit": false,
      "t": 222796.78953333435,
      "d": 557.9702333333262,
      "v": 71
    },
    {
      "midi": 63,
      "hit": false,
      "t": 222796.78953333435,
      "d": 840.5785333333188,
      "v": 56
    },
    {
      "midi": 75,
      "hit": false,
      "t": 223304.035200001,
      "d": 391.3037999999942,
      "v": 61
    },
    {
      "midi": 75,
      "hit": false,
      "t": 223811.28086666766,
      "d": 1246.3750666666601,
      "v": 57
    },
    {
      "midi": 63,
      "hit": false,
      "t": 223818.52723333432,
      "d": 978.2595000000147,
      "v": 43
    },
    {
      "midi": 69,
      "hit": false,
      "t": 224347.51200000098,
      "d": 333.332866666693,
      "v": 49
    },
    {
      "midi": 72,
      "hit": false,
      "t": 224347.51200000098,
      "d": 333.332866666693,
      "v": 34
    },
    {
      "midi": 65,
      "hit": false,
      "t": 224362.00473333432,
      "d": 347.82560000001104,
      "v": 37
    },
    {
      "midi": 72,
      "hit": false,
      "t": 224876.49676666767,
      "d": 420.2892666666594,
      "v": 39
    },
    {
      "midi": 69,
      "hit": false,
      "t": 224883.74313333433,
      "d": 333.3328666666639,
      "v": 48
    },
    {
      "midi": 75,
      "hit": false,
      "t": 225217.076000001,
      "d": 420.2892666666594,
      "v": 53
    },
    {
      "midi": 68,
      "hit": false,
      "t": 225550.40886666765,
      "d": 311.59376666665776,
      "v": 46
    },
    {
      "midi": 72,
      "hit": false,
      "t": 225557.6552333343,
      "d": 253.62283333332743,
      "v": 43
    },
    {
      "midi": 75,
      "hit": false,
      "t": 225760.55350000097,
      "d": 753.6221333333233,
      "v": 57
    },
    {
      "midi": 63,
      "hit": false,
      "t": 225956.20540000097,
      "d": 572.4629666666733,
      "v": 43
    },
    {
      "midi": 56,
      "hit": false,
      "t": 225977.94450000097,
      "d": 746.3757666666643,
      "v": 42
    },
    {
      "midi": 53,
      "hit": false,
      "t": 225977.94450000097,
      "d": 1688.4034333333257,
      "v": 39
    },
    {
      "midi": 65,
      "hit": false,
      "t": 225985.19086666763,
      "d": 434.7820000000065,
      "v": 50
    },
    {
      "midi": 68,
      "hit": false,
      "t": 226006.92996666764,
      "d": 442.02836666666553,
      "v": 35
    },
    {
      "midi": 72,
      "hit": false,
      "t": 226746.05936666764,
      "d": 115.94186666666064,
      "v": 50
    },
    {
      "midi": 79,
      "hit": false,
      "t": 226919.97216666763,
      "d": 123.18823333331966,
      "v": 71
    },
    {
      "midi": 63,
      "hit": false,
      "t": 227101.13133333428,
      "d": 659.4193666666979,
      "v": 37
    },
    {
      "midi": 72,
      "hit": false,
      "t": 227108.37770000094,
      "d": 239.1300999999803,
      "v": 46
    },
    {
      "midi": 56,
      "hit": false,
      "t": 227130.11680000095,
      "d": 594.2020666667086,
      "v": 32
    },
    {
      "midi": 75,
      "hit": false,
      "t": 227137.3631666676,
      "d": 304.34739999999874,
      "v": 31
    },
    {
      "midi": 60,
      "hit": false,
      "t": 227137.3631666676,
      "d": 485.5065666666778,
      "v": 44
    },
    {
      "midi": 68,
      "hit": false,
      "t": 227144.60953333427,
      "d": 217.39100000000326,
      "v": 36
    },
    {
      "midi": 79,
      "hit": false,
      "t": 227709.8261333343,
      "d": 123.18823333334876,
      "v": 51
    },
    {
      "midi": 82,
      "hit": false,
      "t": 227898.23166666765,
      "d": 253.62283333332743,
      "v": 56
    },
    {
      "midi": 66,
      "hit": false,
      "t": 228180.83996666764,
      "d": 289.8546666666516,
      "v": 37
    },
    {
      "midi": 74,
      "hit": false,
      "t": 228188.0863333343,
      "d": 797.1003333333356,
      "v": 45
    },
    {
      "midi": 79,
      "hit": false,
      "t": 228188.0863333343,
      "d": 905.7958333333372,
      "v": 44
    },
    {
      "midi": 56,
      "hit": false,
      "t": 228217.07180000097,
      "d": 304.34739999999874,
      "v": 29
    },
    {
      "midi": 62,
      "hit": false,
      "t": 228224.31816666762,
      "d": 260.86920000001555,
      "v": 33
    },
    {
      "midi": 56,
      "hit": false,
      "t": 229209.8240333343,
      "d": 253.62283333332743,
      "v": 32
    },
    {
      "midi": 46,
      "hit": false,
      "t": 229217.07040000096,
      "d": 326.0865000000049,
      "v": 31
    },
    {
      "midi": 84,
      "hit": false,
      "t": 229586.63510000097,
      "d": 282.6082999999926,
      "v": 51
    },
    {
      "midi": 86,
      "hit": false,
      "t": 229898.22886666763,
      "d": 311.59376666665776,
      "v": 74
    },
    {
      "midi": 39,
      "hit": false,
      "t": 230267.79356666762,
      "d": 304.34739999999874,
      "v": 38
    },
    {
      "midi": 87,
      "hit": false,
      "t": 230275.03993333428,
      "d": 253.62283333332743,
      "v": 55
    },
    {
      "midi": 46,
      "hit": false,
      "t": 230275.03993333428,
      "d": 340.579233333352,
      "v": 34
    },
    {
      "midi": 91,
      "hit": false,
      "t": 230977.93750000096,
      "d": 137.6809666666668,
      "v": 73
    },
    {
      "midi": 66,
      "hit": false,
      "t": 231325.76310000097,
      "d": 94.2027666666836,
      "v": 55
    },
    {
      "midi": 94,
      "hit": false,
      "t": 231340.25583333432,
      "d": 391.3037999999942,
      "v": 83
    },
    {
      "midi": 82,
      "hit": false,
      "t": 231347.50220000098,
      "d": 398.55016666668234,
      "v": 74
    },
    {
      "midi": 82,
      "hit": false,
      "t": 232043.153400001,
      "d": 86.95639999999548,
      "v": 37
    },
    {
      "midi": 66,
      "hit": false,
      "t": 232369.239900001,
      "d": 326.0865000000049,
      "v": 27
    },
    {
      "midi": 97,
      "hit": false,
      "t": 232390.979000001,
      "d": 181.15916666664998,
      "v": 58
    },
    {
      "midi": 62,
      "hit": false,
      "t": 232390.979000001,
      "d": 304.34739999999874,
      "v": 35
    },
    {
      "midi": 82,
      "hit": false,
      "t": 232398.22536666767,
      "d": 188.4055333333381,
      "v": 36
    },
    {
      "midi": 56,
      "hit": false,
      "t": 232405.47173333433,
      "d": 304.34739999999874,
      "v": 31
    },
    {
      "midi": 94,
      "hit": false,
      "t": 232702.57276666767,
      "d": 72.46366666664835,
      "v": 38
    },
    {
      "midi": 97,
      "hit": false,
      "t": 232934.456500001,
      "d": 144.9273333333258,
      "v": 53
    },
    {
      "midi": 82,
      "hit": false,
      "t": 232948.94923333434,
      "d": 123.18823333331966,
      "v": 30
    },
    {
      "midi": 97,
      "hit": false,
      "t": 233217.06480000098,
      "d": 123.18823333331966,
      "v": 53
    },
    {
      "midi": 82,
      "hit": false,
      "t": 233246.05026666765,
      "d": 86.95639999999548,
      "v": 33
    },
    {
      "midi": 66,
      "hit": false,
      "t": 233434.45580000096,
      "d": 355.07196666667005,
      "v": 34
    },
    {
      "midi": 94,
      "hit": false,
      "t": 233448.9485333343,
      "d": 166.66643333333195,
      "v": 49
    },
    {
      "midi": 62,
      "hit": false,
      "t": 233448.9485333343,
      "d": 347.82559999998193,
      "v": 42
    },
    {
      "midi": 56,
      "hit": false,
      "t": 233470.6876333343,
      "d": 391.3037999999651,
      "v": 29
    },
    {
      "midi": 97,
      "hit": false,
      "t": 233738.80320000096,
      "d": 130.43459999997867,
      "v": 55
    },
    {
      "midi": 82,
      "hit": false,
      "t": 233753.2959333343,
      "d": 108.69549999997253,
      "v": 34
    },
    {
      "midi": 94,
      "hit": false,
      "t": 233948.94783333427,
      "d": 137.6809666666668,
      "v": 49
    },
    {
      "midi": 97,
      "hit": false,
      "t": 234260.54160000093,
      "d": 86.95640000002459,
      "v": 64
    },
    {
      "midi": 82,
      "hit": false,
      "t": 234275.03433333428,
      "d": 130.43460000000778,
      "v": 39
    },
    {
      "midi": 39,
      "hit": false,
      "t": 234463.4398666676,
      "d": 275.3619333333336,
      "v": 35
    },
    {
      "midi": 46,
      "hit": false,
      "t": 234470.68623333427,
      "d": 304.34739999999874,
      "v": 32
    },
    {
      "midi": 94,
      "hit": false,
      "t": 234485.17896666762,
      "d": 224.63736666666227,
      "v": 42
    },
    {
      "midi": 82,
      "hit": false,
      "t": 234506.91806666763,
      "d": 260.86919999998645,
      "v": 25
    },
    {
      "midi": 63,
      "hit": false,
      "t": 235506.91666666762,
      "d": 195.651899999968,
      "v": 29
    },
    {
      "midi": 70,
      "hit": false,
      "t": 235514.16303333428,
      "d": 282.6082999999635,
      "v": 44
    },
    {
      "midi": 67,
      "hit": false,
      "t": 235521.40940000094,
      "d": 239.1300999999803,
      "v": 49
    },
    {
      "midi": 60,
      "hit": false,
      "t": 235528.6557666676,
      "d": 130.43459999997867,
      "v": 40
    },
    {
      "midi": 58,
      "hit": false,
      "t": 235564.88760000092,
      "d": 173.91279999999097,
      "v": 25
    },
    {
      "midi": 56,
      "hit": false,
      "t": 236651.8426000009,
      "d": 485.5065666666487,
      "v": 75
    },
    {
      "midi": 41,
      "hit": false,
      "t": 236651.8426000009,
      "d": 514.4920333333139,
      "v": 62
    },
    {
      "midi": 42,
      "hit": false,
      "t": 237173.58100000088,
      "d": 478.2601999999897,
      "v": 71
    },
    {
      "midi": 57,
      "hit": false,
      "t": 237188.0737333342,
      "d": 413.0429000000004,
      "v": 74
    },
    {
      "midi": 43,
      "hit": false,
      "t": 237702.56576666754,
      "d": 485.5065666666487,
      "v": 59
    },
    {
      "midi": 58,
      "hit": false,
      "t": 237709.8121333342,
      "d": 739.1294000000053,
      "v": 75
    },
    {
      "midi": 46,
      "hit": false,
      "t": 238267.78236666752,
      "d": 130.43460000000778,
      "v": 60
    },
    {
      "midi": 47,
      "hit": false,
      "t": 238485.17336666753,
      "d": 231.8837333333213,
      "v": 41
    },
    {
      "midi": 63,
      "hit": false,
      "t": 238753.28893333417,
      "d": 188.4055333333381,
      "v": 51
    },
    {
      "midi": 48,
      "hit": false,
      "t": 238767.78166666752,
      "d": 282.6082999999926,
      "v": 40
    },
    {
      "midi": 75,
      "hit": false,
      "t": 239137.3463666675,
      "d": 65.21729999998934,
      "v": 70
    },
    {
      "midi": 63,
      "hit": false,
      "t": 239485.1719666675,
      "d": 210.14463333331514,
      "v": 37
    },
    {
      "midi": 75,
      "hit": false,
      "t": 239514.15743333416,
      "d": 144.9273333333258,
      "v": 29
    },
    {
      "midi": 63,
      "hit": false,
      "t": 239789.51936666746,
      "d": 594.2020666666504,
      "v": 45
    },
    {
      "midi": 60,
      "hit": false,
      "t": 239811.25846666747,
      "d": 297.1010333333106,
      "v": 34
    },
    {
      "midi": 75,
      "hit": false,
      "t": 240101.11313333412,
      "d": 181.15916666664998,
      "v": 58
    },
    {
      "midi": 75,
      "hit": false,
      "t": 240427.19963333412,
      "d": 181.15916666667908,
      "v": 52
    },
    {
      "midi": 75,
      "hit": false,
      "t": 240775.02523333413,
      "d": 1739.128000000026,
      "v": 52
    },
    {
      "midi": 63,
      "hit": false,
      "t": 240782.2716000008,
      "d": 760.8685000000114,
      "v": 35
    },
    {
      "midi": 57,
      "hit": false,
      "t": 240796.76433333414,
      "d": 471.0138333333307,
      "v": 37
    },
    {
      "midi": 66,
      "hit": false,
      "t": 240796.76433333414,
      "d": 739.1294000000053,
      "v": 36
    },
    {
      "midi": 47,
      "hit": false,
      "t": 240796.76433333414,
      "d": 1159.4186666666646,
      "v": 35
    },
    {
      "midi": 63,
      "hit": false,
      "t": 241876.47296666747,
      "d": 717.3903000000282,
      "v": 39
    },
    {
      "midi": 66,
      "hit": false,
      "t": 241876.47296666747,
      "d": 775.3612333333585,
      "v": 37
    },
    {
      "midi": 58,
      "hit": false,
      "t": 242202.55946666747,
      "d": 246.37646666669752,
      "v": 64
    },
    {
      "midi": 57,
      "hit": false,
      "t": 242528.6459666675,
      "d": 188.405533333309,
      "v": 59
    },
    {
      "midi": 47,
      "hit": false,
      "t": 242586.61690000084,
      "d": 65.21729999998934,
      "v": 24
    },
    {
      "midi": 61,
      "hit": false,
      "t": 242898.21066666747,
      "d": 246.37646666666842,
      "v": 44
    },
    {
      "midi": 56,
      "hit": false,
      "t": 242912.7034000008,
      "d": 369.5647000000172,
      "v": 43
    },
    {
      "midi": 65,
      "hit": false,
      "t": 242919.94976666747,
      "d": 268.11556666667457,
      "v": 49
    },
    {
      "midi": 46,
      "hit": false,
      "t": 242919.94976666747,
      "d": 318.8401333333459,
      "v": 36
    },
    {
      "midi": 77,
      "hit": false,
      "t": 243601.10823333418,
      "d": 746.3757666666643,
      "v": 90
    },
    {
      "midi": 61,
      "hit": false,
      "t": 243927.19473333418,
      "d": 673.9120999999868,
      "v": 34
    },
    {
      "midi": 65,
      "hit": false,
      "t": 243934.44110000084,
      "d": 637.6802666666626,
      "v": 27
    },
    {
      "midi": 56,
      "hit": false,
      "t": 243934.44110000084,
      "d": 746.3757666666643,
      "v": 27
    },
    {
      "midi": 60,
      "hit": false,
      "t": 243941.6874666675,
      "d": 572.4629666666733,
      "v": 33
    },
    {
      "midi": 75,
      "hit": false,
      "t": 244260.52760000085,
      "d": 311.59376666665776,
      "v": 68
    },
    {
      "midi": 74,
      "hit": false,
      "t": 244601.10683333417,
      "d": 304.34739999999874,
      "v": 72
    },
    {
      "midi": 73,
      "hit": false,
      "t": 244948.93243333418,
      "d": 601.4484333333385,
      "v": 36
    },
    {
      "midi": 65,
      "hit": false,
      "t": 244963.42516666753,
      "d": 159.42006666667294,
      "v": 24
    },
    {
      "midi": 61,
      "hit": false,
      "t": 244963.42516666753,
      "d": 224.63736666666227,
      "v": 28
    },
    {
      "midi": 55,
      "hit": false,
      "t": 244970.67153333419,
      "d": 224.63736666666227,
      "v": 35
    },
    {
      "midi": 63,
      "hit": false,
      "t": 245630.09090000085,
      "d": 1514.4906333333638,
      "v": 44
    },
    {
      "midi": 27,
      "hit": false,
      "t": 245956.17740000086,
      "d": 36.231833333324175,
      "v": 53
    },
    {
      "midi": 39,
      "hit": false,
      "t": 245970.67013333418,
      "d": 36.23183333335328,
      "v": 38
    },
    {
      "midi": 45,
      "hit": false,
      "t": 246289.51026666752,
      "d": 268.11556666667457,
      "v": 63
    },
    {
      "midi": 32,
      "hit": false,
      "t": 247050.37876666753,
      "d": 79.71003333333647,
      "v": 55
    },
    {
      "midi": 44,
      "hit": false,
      "t": 247057.6251333342,
      "d": 108.69550000003073,
      "v": 47
    },
    {
      "midi": 52,
      "hit": false,
      "t": 247724.29086666755,
      "d": 528.9847666666319,
      "v": 71
    },
    {
      "midi": 72,
      "hit": false,
      "t": 247731.5372333342,
      "d": 384.0574333333352,
      "v": 71
    },
    {
      "midi": 44,
      "hit": false,
      "t": 247731.5372333342,
      "d": 1963.765366666601,
      "v": 59
    },
    {
      "midi": 60,
      "hit": false,
      "t": 247738.78360000087,
      "d": 384.0574333333352,
      "v": 83
    },
    {
      "midi": 67,
      "hit": false,
      "t": 247738.78360000087,
      "d": 420.2892666666594,
      "v": 75
    },
    {
      "midi": 72,
      "hit": false,
      "t": 248202.55106666754,
      "d": 956.5203999999503,
      "v": 54
    },
    {
      "midi": 55,
      "hit": false,
      "t": 248217.04380000086,
      "d": 528.9847666666319,
      "v": 80
    },
    {
      "midi": 67,
      "hit": false,
      "t": 248217.04380000086,
      "d": 594.2020666666504,
      "v": 78
    },
    {
      "midi": 60,
      "hit": false,
      "t": 248217.04380000086,
      "d": 847.8248999999778,
      "v": 67
    },
    {
      "midi": 52,
      "hit": false,
      "t": 248760.52130000084,
      "d": 492.75293333333684,
      "v": 45
    },
    {
      "midi": 65,
      "hit": false,
      "t": 249260.52060000083,
      "d": 579.7093333333032,
      "v": 55
    },
    {
      "midi": 60,
      "hit": false,
      "t": 249267.7669666675,
      "d": 731.8830333333171,
      "v": 49
    },
    {
      "midi": 72,
      "hit": false,
      "t": 249275.01333333415,
      "d": 1398.548766666674,
      "v": 35
    },
    {
      "midi": 53,
      "hit": false,
      "t": 249282.2597000008,
      "d": 775.3612333333294,
      "v": 54
    },
    {
      "midi": 44,
      "hit": false,
      "t": 249811.24446666747,
      "d": 818.8394333333417,
      "v": 59
    },
    {
      "midi": 64,
      "hit": false,
      "t": 250303.9974000008,
      "d": 405.79653333334136,
      "v": 60
    },
    {
      "midi": 60,
      "hit": false,
      "t": 250318.49013333415,
      "d": 456.52109999998356,
      "v": 49
    },
    {
      "midi": 63,
      "hit": false,
      "t": 250840.22853333413,
      "d": 253.62283333332743,
      "v": 56
    },
    {
      "midi": 44,
      "hit": false,
      "t": 250847.4749000008,
      "d": 391.3037999999942,
      "v": 37
    },
    {
      "midi": 60,
      "hit": false,
      "t": 250854.72126666745,
      "d": 137.6809666666668,
      "v": 44
    },
    {
      "midi": 54,
      "hit": false,
      "t": 250869.2140000008,
      "d": 260.86919999998645,
      "v": 30
    },
    {
      "midi": 61,
      "hit": false,
      "t": 251369.2133000008,
      "d": 471.0138333333016,
      "v": 51
    },
    {
      "midi": 43,
      "hit": false,
      "t": 251376.45966666745,
      "d": 347.82559999998193,
      "v": 40
    },
    {
      "midi": 58,
      "hit": false,
      "t": 251376.45966666745,
      "d": 384.0574333333061,
      "v": 42
    },
    {
      "midi": 53,
      "hit": false,
      "t": 251383.7060333341,
      "d": 384.0574333333061,
      "v": 38
    },
    {
      "midi": 73,
      "hit": false,
      "t": 252441.67556666743,
      "d": 231.8837333333213,
      "v": 50
    },
    {
      "midi": 65,
      "hit": false,
      "t": 252463.41466666744,
      "d": 239.1300999999803,
      "v": 59
    },
    {
      "midi": 60,
      "hit": false,
      "t": 252463.41466666744,
      "d": 289.8546666666516,
      "v": 55
    },
    {
      "midi": 68,
      "hit": false,
      "t": 252470.6610333341,
      "d": 246.37646666666842,
      "v": 51
    },
    {
      "midi": 58,
      "hit": false,
      "t": 252782.25480000075,
      "d": 79.71003333336557,
      "v": 49
    },
    {
      "midi": 72,
      "hit": false,
      "t": 252782.25480000075,
      "d": 94.2027666667127,
      "v": 53
    },
    {
      "midi": 65,
      "hit": false,
      "t": 252803.99390000076,
      "d": 43.47820000001229,
      "v": 42
    },
    {
      "midi": 70,
      "hit": false,
      "t": 253086.6022000008,
      "d": 101.44913333337172,
      "v": 59
    },
    {
      "midi": 49,
      "hit": false,
      "t": 253101.09493333416,
      "d": 144.9273333333549,
      "v": 52
    },
    {
      "midi": 62,
      "hit": false,
      "t": 253122.83403333416,
      "d": 43.47820000001229,
      "v": 32
    },
    {
      "midi": 68,
      "hit": false,
      "t": 253448.92053333417,
      "d": 818.8394333333417,
      "v": 40
    },
    {
      "midi": 48,
      "hit": false,
      "t": 253456.16690000083,
      "d": 239.1301000000094,
      "v": 43
    },
    {
      "midi": 58,
      "hit": false,
      "t": 253456.16690000083,
      "d": 876.810366666672,
      "v": 37
    },
    {
      "midi": 61,
      "hit": false,
      "t": 253463.41326666749,
      "d": 869.564000000013,
      "v": 46
    },
    {
      "midi": 55,
      "hit": false,
      "t": 253477.90600000083,
      "d": 137.6809666666668,
      "v": 46
    },
    {
      "midi": 64,
      "hit": false,
      "t": 253485.1523666675,
      "d": 768.1148666666704,
      "v": 43
    },
    {
      "midi": 48,
      "hit": false,
      "t": 253919.9343666675,
      "d": 999.9986000000499,
      "v": 71
    },
    {
      "midi": 58,
      "hit": false,
      "t": 254514.13643333418,
      "d": 862.3176333333831,
      "v": 56
    },
    {
      "midi": 61,
      "hit": false,
      "t": 254514.13643333418,
      "d": 869.5640000000421,
      "v": 52
    },
    {
      "midi": 67,
      "hit": false,
      "t": 254514.13643333418,
      "d": 905.7958333333663,
      "v": 61
    },
    {
      "midi": 64,
      "hit": false,
      "t": 254535.87553333418,
      "d": 746.3757666667225,
      "v": 49
    },
    {
      "midi": 36,
      "hit": false,
      "t": 254876.45476666754,
      "d": 115.94186666668975,
      "v": 68
    },
    {
      "midi": 36,
      "hit": false,
      "t": 255209.78763333423,
      "d": 326.0864999999758,
      "v": 67
    },
    {
      "midi": 56,
      "hit": false,
      "t": 255557.6132333342,
      "d": 181.15916666667908,
      "v": 55
    },
    {
      "midi": 29,
      "hit": false,
      "t": 255564.85960000087,
      "d": 181.15916666667908,
      "v": 66
    },
    {
      "midi": 65,
      "hit": false,
      "t": 255572.10596666753,
      "d": 275.3619333333336,
      "v": 62
    },
    {
      "midi": 60,
      "hit": false,
      "t": 255586.59870000088,
      "d": 195.6518999999971,
      "v": 50
    },
    {
      "midi": 63,
      "hit": false,
      "t": 256666.3073333342,
      "d": 36.23183333335328,
      "v": 54
    },
    {
      "midi": 60,
      "hit": false,
      "t": 256673.55370000086,
      "d": 36.23183333335328,
      "v": 60
    },
    {
      "midi": 56,
      "hit": false,
      "t": 256688.0464333342,
      "d": 65.21730000001844,
      "v": 47
    },
    {
      "midi": 68,
      "hit": false,
      "t": 257043.11840000088,
      "d": 137.6809666666668,
      "v": 51
    },
    {
      "midi": 72,
      "hit": false,
      "t": 257340.21943333422,
      "d": 173.91279999999097,
      "v": 57
    },
    {
      "midi": 70,
      "hit": false,
      "t": 257673.55230000088,
      "d": 94.2027666666836,
      "v": 39
    },
    {
      "midi": 49,
      "hit": false,
      "t": 257709.7841333342,
      "d": 724.6366666666872,
      "v": 31
    },
    {
      "midi": 59,
      "hit": false,
      "t": 257731.5232333342,
      "d": 768.1148666666704,
      "v": 24
    },
    {
      "midi": 71,
      "hit": false,
      "t": 257760.5087000009,
      "d": 166.66643333333195,
      "v": 64
    },
    {
      "midi": 70,
      "hit": false,
      "t": 257905.43603333423,
      "d": 137.6809666666668,
      "v": 52
    },
    {
      "midi": 68,
      "hit": false,
      "t": 258035.87063333424,
      "d": 137.6809666666377,
      "v": 25
    },
    {
      "midi": 65,
      "hit": false,
      "t": 258137.31976666756,
      "d": 79.71003333333647,
      "v": 37
    },
    {
      "midi": 70,
      "hit": false,
      "t": 258275.00073333422,
      "d": 1304.3459999999614,
      "v": 57
    },
    {
      "midi": 63,
      "hit": false,
      "t": 258789.49276666754,
      "d": 442.02836666666553,
      "v": 43
    },
    {
      "midi": 59,
      "hit": false,
      "t": 258796.7391333342,
      "d": 659.4193666666688,
      "v": 47
    },
    {
      "midi": 53,
      "hit": false,
      "t": 258796.7391333342,
      "d": 717.3902999999991,
      "v": 28
    },
    {
      "midi": 56,
      "hit": false,
      "t": 258825.72460000086,
      "d": 695.651199999993,
      "v": 28
    },
    {
      "midi": 68,
      "hit": false,
      "t": 259188.0429333342,
      "d": 420.2892666666594,
      "v": 63
    },
    {
      "midi": 65,
      "hit": false,
      "t": 259521.37580000085,
      "d": 79.71003333333647,
      "v": 48
    },
    {
      "midi": 72,
      "hit": false,
      "t": 259861.95503333418,
      "d": 340.5792333333229,
      "v": 65
    },
    {
      "midi": 46,
      "hit": false,
      "t": 259869.20140000083,
      "d": 601.4484333333385,
      "v": 46
    },
    {
      "midi": 61,
      "hit": false,
      "t": 259876.4477666675,
      "d": 347.82560000001104,
      "v": 68
    },
    {
      "midi": 65,
      "hit": false,
      "t": 259876.4477666675,
      "d": 347.82560000001104,
      "v": 71
    },
    {
      "midi": 56,
      "hit": false,
      "t": 259876.4477666675,
      "d": 615.9411666666856,
      "v": 47
    },
    {
      "midi": 68,
      "hit": false,
      "t": 259898.1868666675,
      "d": 355.07196666667005,
      "v": 42
    },
    {
      "midi": 75,
      "hit": false,
      "t": 260586.59170000083,
      "d": 159.42006666667294,
      "v": 74
    },
    {
      "midi": 70,
      "hit": false,
      "t": 261332.9674666675,
      "d": 65.21729999996023,
      "v": 70
    },
    {
      "midi": 67,
      "hit": false,
      "t": 261332.9674666675,
      "d": 72.46366666661925,
      "v": 73
    },
    {
      "midi": 77,
      "hit": false,
      "t": 261332.9674666675,
      "d": 79.71003333327826,
      "v": 67
    },
    {
      "midi": 64,
      "hit": false,
      "t": 261340.21383333416,
      "d": 43.47819999998319,
      "v": 52
    },
    {
      "midi": 73,
      "hit": false,
      "t": 261340.21383333416,
      "d": 50.724566666642204,
      "v": 34
    },
    {
      "midi": 61,
      "hit": false,
      "t": 261347.46020000082,
      "d": 43.47819999998319,
      "v": 34
    },
    {
      "midi": 58,
      "hit": false,
      "t": 261354.70656666748,
      "d": 79.71003333330736,
      "v": 42
    },
    {
      "midi": 55,
      "hit": false,
      "t": 261695.28580000077,
      "d": 108.69550000000163,
      "v": 41
    },
    {
      "midi": 45,
      "hit": false,
      "t": 261695.28580000077,
      "d": 123.18823333334876,
      "v": 39
    },
    {
      "midi": 71,
      "hit": false,
      "t": 261695.28580000077,
      "d": 210.14463333334425,
      "v": 58
    },
    {
      "midi": 51,
      "hit": false,
      "t": 262064.8505000008,
      "d": 224.63736666666227,
      "v": 31
    },
    {
      "midi": 44,
      "hit": false,
      "t": 262064.8505000008,
      "d": 1601.4470333333302,
      "v": 48
    },
    {
      "midi": 72,
      "hit": false,
      "t": 262079.34323333413,
      "d": 1586.954299999983,
      "v": 38
    },
    {
      "midi": 67,
      "hit": false,
      "t": 262086.5896000008,
      "d": 384.057433333277,
      "v": 50
    },
    {
      "midi": 60,
      "hit": false,
      "t": 262086.5896000008,
      "d": 623.1875333332864,
      "v": 48
    },
    {
      "midi": 52,
      "hit": false,
      "t": 262369.1979000008,
      "d": 673.9120999999577,
      "v": 51
    },
    {
      "midi": 55,
      "hit": false,
      "t": 263101.0809333341,
      "d": 253.62283333332743,
      "v": 56
    },
    {
      "midi": 60,
      "hit": false,
      "t": 263108.32730000076,
      "d": 637.6802666666918,
      "v": 39
    },
    {
      "midi": 64,
      "hit": false,
      "t": 263115.57366666745,
      "d": 543.477499999979,
      "v": 39
    },
    {
      "midi": 53,
      "hit": false,
      "t": 263456.15290000074,
      "d": 499.99930000008317,
      "v": 57
    },
    {
      "midi": 44,
      "hit": false,
      "t": 263760.5003000008,
      "d": 297.10103333339794,
      "v": 39
    },
    {
      "midi": 51,
      "hit": false,
      "t": 263789.48576666747,
      "d": 297.10103333339794,
      "v": 38
    },
    {
      "midi": 57,
      "hit": false,
      "t": 264130.0650000009,
      "d": 210.14463333343156,
      "v": 48
    },
    {
      "midi": 62,
      "hit": false,
      "t": 264137.31136666756,
      "d": 253.62283333344385,
      "v": 59
    },
    {
      "midi": 59,
      "hit": false,
      "t": 264144.55773333425,
      "d": 224.63736666674959,
      "v": 53
    },
    {
      "midi": 43,
      "hit": false,
      "t": 264151.80410000094,
      "d": 239.1301000000676,
      "v": 45
    },
    {
      "midi": 50,
      "hit": false,
      "t": 264159.0504666676,
      "d": 253.62283333338564,
      "v": 36
    },
    {
      "midi": 71,
      "hit": false,
      "t": 264767.7452666677,
      "d": 181.15916666667908,
      "v": 72
    },
    {
      "midi": 62,
      "hit": false,
      "t": 264774.9916333344,
      "d": 115.94186666666064,
      "v": 78
    },
    {
      "midi": 64,
      "hit": false,
      "t": 264774.9916333344,
      "d": 130.43459999997867,
      "v": 75
    },
    {
      "midi": 67,
      "hit": false,
      "t": 264774.9916333344,
      "d": 152.17369999998482,
      "v": 69
    },
    {
      "midi": 55,
      "hit": false,
      "t": 264782.23800000106,
      "d": 413.0429000000586,
      "v": 74
    },
    {
      "midi": 74,
      "hit": false,
      "t": 265173.54180000105,
      "d": 289.854666666768,
      "v": 73
    },
    {
      "midi": 64,
      "hit": false,
      "t": 265180.78816666774,
      "d": 231.8837333333795,
      "v": 84
    },
    {
      "midi": 67,
      "hit": false,
      "t": 265180.78816666774,
      "d": 253.62283333338564,
      "v": 87
    },
    {
      "midi": 71,
      "hit": false,
      "t": 265180.78816666774,
      "d": 304.34740000008605,
      "v": 80
    },
    {
      "midi": 59,
      "hit": false,
      "t": 265188.03453333443,
      "d": 297.10103333339794,
      "v": 74
    },
    {
      "midi": 76,
      "hit": false,
      "t": 265811.2220666678,
      "d": 130.43460000003688,
      "v": 83
    },
    {
      "midi": 71,
      "hit": false,
      "t": 265825.7148000011,
      "d": 108.69550000003073,
      "v": 85
    },
    {
      "midi": 67,
      "hit": false,
      "t": 265832.9611666678,
      "d": 115.94186666671885,
      "v": 83
    },
    {
      "midi": 71,
      "hit": false,
      "t": 266246.00406666787,
      "d": 1594.2006666667294,
      "v": 62
    },
    {
      "midi": 67,
      "hit": false,
      "t": 266253.25043333456,
      "d": 1166.665033333411,
      "v": 66
    },
    {
      "midi": 66,
      "hit": false,
      "t": 266253.25043333456,
      "d": 1318.8387333333958,
      "v": 48
    },
    {
      "midi": 62,
      "hit": false,
      "t": 266260.49680000124,
      "d": 1471.0124333333806,
      "v": 45
    },
    {
      "midi": 52,
      "hit": false,
      "t": 266267.74316666793,
      "d": 311.59376666665776,
      "v": 44
    },
    {
      "midi": 59,
      "hit": false,
      "t": 266282.23590000125,
      "d": 253.62283333332743,
      "v": 41
    },
    {
      "midi": 40,
      "hit": false,
      "t": 267296.7272333346,
      "d": 471.0138333333307,
      "v": 46
    },
    {
      "midi": 47,
      "hit": false,
      "t": 267318.4663333346,
      "d": 528.984766666661,
      "v": 48
    },
    {
      "midi": 55,
      "hit": false,
      "t": 267332.95906666794,
      "d": 579.7093333333614,
      "v": 73
    },
    {
      "midi": 67,
      "hit": false,
      "t": 268021.3639000013,
      "d": 101.44913333334262,
      "v": 75
    },
    {
      "midi": 56,
      "hit": false,
      "t": 268253.2476333346,
      "d": 86.95640000002459,
      "v": 33
    },
    {
      "midi": 56,
      "hit": false,
      "t": 268448.8995333346,
      "d": 28.985466666752473,
      "v": 20
    },
    {
      "midi": 75,
      "hit": false,
      "t": 268456.1459000013,
      "d": 188.4055333333672,
      "v": 78
    },
    {
      "midi": 78,
      "hit": false,
      "t": 268463.392266668,
      "d": 123.18823333334876,
      "v": 71
    },
    {
      "midi": 63,
      "hit": false,
      "t": 268463.392266668,
      "d": 260.86920000001555,
      "v": 64
    },
    {
      "midi": 83,
      "hit": false,
      "t": 268463.392266668,
      "d": 420.2892666666303,
      "v": 77
    },
    {
      "midi": 71,
      "hit": false,
      "t": 268470.63863333466,
      "d": 398.55016666662414,
      "v": 82
    },
    {
      "midi": 68,
      "hit": false,
      "t": 268492.37773333467,
      "d": 217.39100000000326,
      "v": 44
    },
    {
      "midi": 81,
      "hit": false,
      "t": 268499.62410000135,
      "d": 427.5356333332602,
      "v": 38
    },
    {
      "midi": 57,
      "hit": false,
      "t": 268514.1168333347,
      "d": 188.405533333309,
      "v": 24
    },
    {
      "midi": 76,
      "hit": false,
      "t": 268630.05870000133,
      "d": 130.43459999997867,
      "v": 40
    },
    {
      "midi": 79,
      "hit": false,
      "t": 268688.02963333466,
      "d": 86.95639999996638,
      "v": 22
    },
    {
      "midi": 75,
      "hit": false,
      "t": 269086.5798000013,
      "d": 123.18823333346518,
      "v": 60
    },
    {
      "midi": 71,
      "hit": false,
      "t": 269093.826166668,
      "d": 181.1591666667955,
      "v": 65
    },
    {
      "midi": 78,
      "hit": false,
      "t": 269093.826166668,
      "d": 202.89826666680165,
      "v": 42
    },
    {
      "midi": 83,
      "hit": false,
      "t": 269101.07253333466,
      "d": 188.4055333334254,
      "v": 60
    },
    {
      "midi": 61,
      "hit": false,
      "t": 269101.07253333466,
      "d": 282.6083000001381,
      "v": 48
    },
    {
      "midi": 66,
      "hit": false,
      "t": 269108.31890000135,
      "d": 246.37646666675573,
      "v": 48
    },
    {
      "midi": 55,
      "hit": false,
      "t": 269115.56526666804,
      "d": 152.17370000004303,
      "v": 59
    },
    {
      "midi": 76,
      "hit": false,
      "t": 269217.01440000144,
      "d": 137.6809666666668,
      "v": 43
    },
    {
      "midi": 82,
      "hit": false,
      "t": 269477.88360000146,
      "d": 347.82560000004014,
      "v": 53
    },
    {
      "midi": 70,
      "hit": false,
      "t": 269485.12996666814,
      "d": 362.31833333335817,
      "v": 50
    },
    {
      "midi": 65,
      "hit": false,
      "t": 269485.12996666814,
      "d": 384.0574333333643,
      "v": 44
    },
    {
      "midi": 54,
      "hit": false,
      "t": 269492.37633333483,
      "d": 434.7820000000065,
      "v": 29
    },
    {
      "midi": 76,
      "hit": false,
      "t": 269499.6227000015,
      "d": 304.34739999996964,
      "v": 45
    },
    {
      "midi": 60,
      "hit": false,
      "t": 269499.6227000015,
      "d": 442.02836666663643,
      "v": 48
    },
    {
      "midi": 54,
      "hit": false,
      "t": 270122.81023333484,
      "d": 224.63736666674959,
      "v": 35
    },
    {
      "midi": 81,
      "hit": false,
      "t": 270130.0566000015,
      "d": 108.69550000003073,
      "v": 40
    },
    {
      "midi": 76,
      "hit": false,
      "t": 270151.79570000153,
      "d": 65.21730000001844,
      "v": 35
    },
    {
      "midi": 69,
      "hit": false,
      "t": 270159.0420666682,
      "d": 166.66643333336106,
      "v": 41
    },
    {
      "midi": 64,
      "hit": false,
      "t": 270535.85313333495,
      "d": 152.17369999998482,
      "v": 35
    },
    {
      "midi": 79,
      "hit": false,
      "t": 270535.85313333495,
      "d": 318.8401333333459,
      "v": 36
    },
    {
      "midi": 53,
      "hit": false,
      "t": 270550.3458666683,
      "d": 166.66643333336106,
      "v": 31
    },
    {
      "midi": 59,
      "hit": false,
      "t": 270557.59223333496,
      "d": 130.43459999997867,
      "v": 38
    },
    {
      "midi": 67,
      "hit": false,
      "t": 270557.59223333496,
      "d": 434.7820000000065,
      "v": 24
    },
    {
      "midi": 74,
      "hit": false,
      "t": 270572.0849666683,
      "d": 297.1010333333397,
      "v": 32
    },
    {
      "midi": 46,
      "hit": false,
      "t": 271224.2579666683,
      "d": 898.5494666666491,
      "v": 38
    },
    {
      "midi": 56,
      "hit": false,
      "t": 271593.8226666683,
      "d": 463.7674666666426,
      "v": 38
    },
    {
      "midi": 70,
      "hit": false,
      "t": 271941.64826666826,
      "d": 413.0429000000004,
      "v": 43
    },
    {
      "midi": 82,
      "hit": false,
      "t": 271956.1410000016,
      "d": 413.0429000000004,
      "v": 28
    },
    {
      "midi": 46,
      "hit": false,
      "t": 272383.6766333349,
      "d": 115.94186666666064,
      "v": 19
    },
    {
      "midi": 79,
      "hit": false,
      "t": 272666.2849333349,
      "d": 485.50656666670693,
      "v": 37
    },
    {
      "midi": 39,
      "hit": false,
      "t": 272673.5313000016,
      "d": 217.39100000000326,
      "v": 35
    },
    {
      "midi": 46,
      "hit": false,
      "t": 272673.5313000016,
      "d": 260.86920000001555,
      "v": 28
    },
    {
      "midi": 84,
      "hit": false,
      "t": 272673.5313000016,
      "d": 369.5646999999881,
      "v": 44
    },
    {
      "midi": 72,
      "hit": false,
      "t": 272695.2704000016,
      "d": 434.7820000000065,
      "v": 16
    },
    {
      "midi": 84,
      "hit": false,
      "t": 273325.7043000016,
      "d": 413.0429000000004,
      "v": 61
    },
    {
      "midi": 63,
      "hit": false,
      "t": 273695.2690000016,
      "d": 224.63736666669138,
      "v": 38
    },
    {
      "midi": 60,
      "hit": false,
      "t": 273738.7472000016,
      "d": 86.95640000002459,
      "v": 33
    },
    {
      "midi": 58,
      "hit": false,
      "t": 273767.7326666683,
      "d": 188.405533333309,
      "v": 23
    },
    {
      "midi": 75,
      "hit": false,
      "t": 274745.9921666683,
      "d": 253.62283333344385,
      "v": 62
    },
    {
      "midi": 72,
      "hit": false,
      "t": 274782.2240000016,
      "d": 195.65190000011353,
      "v": 53
    },
    {
      "midi": 68,
      "hit": false,
      "t": 274789.4703666683,
      "d": 166.66643333341926,
      "v": 67
    },
    {
      "midi": 48,
      "hit": false,
      "t": 274796.716733335,
      "d": 231.8837333334377,
      "v": 45
    },
    {
      "midi": 58,
      "hit": false,
      "t": 274803.9631000017,
      "d": 333.3328666667221,
      "v": 39
    },
    {
      "midi": 64,
      "hit": false,
      "t": 274811.20946666837,
      "d": 101.44913333334262,
      "v": 61
    },
    {
      "midi": 87,
      "hit": false,
      "t": 275209.75963333505,
      "d": 108.69549999997253,
      "v": 74
    },
    {
      "midi": 68,
      "hit": false,
      "t": 275869.1790000017,
      "d": 289.8546666666516,
      "v": 44
    },
    {
      "midi": 72,
      "hit": false,
      "t": 275869.1790000017,
      "d": 326.0864999999758,
      "v": 41
    },
    {
      "midi": 64,
      "hit": false,
      "t": 275883.671733335,
      "d": 260.86920000001555,
      "v": 41
    },
    {
      "midi": 58,
      "hit": false,
      "t": 275905.410833335,
      "d": 202.89826666668523,
      "v": 33
    },
    {
      "midi": 68,
      "hit": false,
      "t": 276267.7291666683,
      "d": 152.17369999998482,
      "v": 39
    },
    {
      "midi": 56,
      "hit": false,
      "t": 276948.88763333496,
      "d": 420.2892666666885,
      "v": 27
    },
    {
      "midi": 63,
      "hit": false,
      "t": 276948.88763333496,
      "d": 586.9556999999913,
      "v": 37
    },
    {
      "midi": 41,
      "hit": false,
      "t": 276956.13400000165,
      "d": 449.27473333332455,
      "v": 36
    },
    {
      "midi": 48,
      "hit": false,
      "t": 276963.38036666834,
      "d": 442.02836666663643,
      "v": 27
    },
    {
      "midi": 53,
      "hit": false,
      "t": 276963.38036666834,
      "d": 449.27473333332455,
      "v": 33
    },
    {
      "midi": 70,
      "hit": false,
      "t": 277463.3796666683,
      "d": 442.02836666663643,
      "v": 57
    },
    {
      "midi": 63,
      "hit": false,
      "t": 278006.8571666683,
      "d": 499.99930000002496,
      "v": 45
    },
    {
      "midi": 56,
      "hit": false,
      "t": 278021.3499000016,
      "d": 688.4048333334504,
      "v": 37
    },
    {
      "midi": 53,
      "hit": false,
      "t": 278028.5962666683,
      "d": 565.2166000000434,
      "v": 38
    },
    {
      "midi": 60,
      "hit": false,
      "t": 278035.842633335,
      "d": 594.2020666667377,
      "v": 42
    },
    {
      "midi": 70,
      "hit": false,
      "t": 278325.69730000163,
      "d": 297.10103333339794,
      "v": 90
    },
    {
      "midi": 75,
      "hit": false,
      "t": 278666.27653333504,
      "d": 144.9273333333549,
      "v": 85
    },
    {
      "midi": 75,
      "hit": false,
      "t": 278876.4211666684,
      "d": 123.18823333334876,
      "v": 65
    },
    {
      "midi": 74,
      "hit": false,
      "t": 279108.30490000173,
      "d": 565.2166000001016,
      "v": 67
    },
    {
      "midi": 65,
      "hit": false,
      "t": 279115.5512666684,
      "d": 652.173000000068,
      "v": 40
    },
    {
      "midi": 70,
      "hit": false,
      "t": 279122.7976333351,
      "d": 681.158466666704,
      "v": 60
    },
    {
      "midi": 56,
      "hit": false,
      "t": 279122.7976333351,
      "d": 688.4048333333922,
      "v": 46
    },
    {
      "midi": 46,
      "hit": false,
      "t": 279448.88413333514,
      "d": 963.7667666667257,
      "v": 51
    },
    {
      "midi": 72,
      "hit": false,
      "t": 279919.8979666685,
      "d": 195.6518999999971,
      "v": 54
    },
    {
      "midi": 67,
      "hit": false,
      "t": 279934.3907000018,
      "d": 144.9273333333549,
      "v": 68
    },
    {
      "midi": 62,
      "hit": false,
      "t": 279963.3761666685,
      "d": 159.42006666667294,
      "v": 47
    },
    {
      "midi": 67,
      "hit": false,
      "t": 280224.2453666685,
      "d": 405.79653333337046,
      "v": 57
    },
    {
      "midi": 70,
      "hit": false,
      "t": 280224.2453666685,
      "d": 608.6948000000557,
      "v": 56
    },
    {
      "midi": 56,
      "hit": false,
      "t": 280231.4917333352,
      "d": 297.1010333333397,
      "v": 45
    },
    {
      "midi": 62,
      "hit": false,
      "t": 280245.9844666685,
      "d": 731.8830333334045,
      "v": 55
    },
    {
      "midi": 56,
      "hit": false,
      "t": 280579.3173333352,
      "d": 543.4775000000955,
      "v": 29
    },
    {
      "midi": 44,
      "hit": false,
      "t": 280586.56370000186,
      "d": 369.5647000000463,
      "v": 56
    },
    {
      "midi": 44,
      "hit": false,
      "t": 281064.82390000194,
      "d": 217.39100000000326,
      "v": 48
    },
    {
      "midi": 58,
      "hit": false,
      "t": 281347.43220000196,
      "d": 855.0712666667532,
      "v": 37
    },
    {
      "midi": 67,
      "hit": false,
      "t": 281354.67856666865,
      "d": 318.8401333334041,
      "v": 41
    },
    {
      "midi": 43,
      "hit": false,
      "t": 281354.67856666865,
      "d": 992.7522333333618,
      "v": 42
    },
    {
      "midi": 62,
      "hit": false,
      "t": 281361.92493333534,
      "d": 855.071266666695,
      "v": 46
    },
    {
      "midi": 53,
      "hit": false,
      "t": 281361.92493333534,
      "d": 1079.7086333333864,
      "v": 38
    },
    {
      "midi": 67,
      "hit": false,
      "t": 281760.4751000021,
      "d": 152.17369999998482,
      "v": 64
    },
    {
      "midi": 67,
      "hit": false,
      "t": 282028.5906666687,
      "d": 152.17369999998482,
      "v": 58
    },
    {
      "midi": 67,
      "hit": false,
      "t": 282253.22803333536,
      "d": 159.42006666667294,
      "v": 74
    },
    {
      "midi": 67,
      "hit": false,
      "t": 282485.11176666874,
      "d": 217.39100000000326,
      "v": 70
    },
    {
      "midi": 48,
      "hit": false,
      "t": 282506.85086666874,
      "d": 644.9266333333217,
      "v": 47
    },
    {
      "midi": 58,
      "hit": false,
      "t": 282506.85086666874,
      "d": 775.3612333333585,
      "v": 68
    },
    {
      "midi": 63,
      "hit": false,
      "t": 282506.85086666874,
      "d": 782.6076000000467,
      "v": 64
    },
    {
      "midi": 67,
      "hit": false,
      "t": 282782.2128000021,
      "d": 173.91279999999097,
      "v": 67
    },
    {
      "midi": 67,
      "hit": false,
      "t": 283035.8356333354,
      "d": 144.9273333333549,
      "v": 63
    },
    {
      "midi": 67,
      "hit": false,
      "t": 283311.1975666688,
      "d": 231.8837333333213,
      "v": 64
    },
    {
      "midi": 67,
      "hit": false,
      "t": 283572.0667666688,
      "d": 231.8837333333795,
      "v": 20
    },
    {
      "midi": 61,
      "hit": false,
      "t": 283601.0522333355,
      "d": 507.2456666667131,
      "v": 64
    },
    {
      "midi": 56,
      "hit": false,
      "t": 283601.0522333355,
      "d": 514.4920333334012,
      "v": 59
    },
    {
      "midi": 46,
      "hit": false,
      "t": 283601.0522333355,
      "d": 550.7238666667836,
      "v": 38
    },
    {
      "midi": 67,
      "hit": false,
      "t": 283890.9069000022,
      "d": 166.66643333336106,
      "v": 73
    },
    {
      "midi": 67,
      "hit": false,
      "t": 284144.5297333356,
      "d": 137.6809666666668,
      "v": 66
    },
    {
      "midi": 67,
      "hit": false,
      "t": 284412.64530000224,
      "d": 79.71003333333647,
      "v": 50
    },
    {
      "midi": 67,
      "hit": false,
      "t": 284724.2390666689,
      "d": 246.37646666669752,
      "v": 56
    },
    {
      "midi": 45,
      "hit": false,
      "t": 284731.4854333356,
      "d": 630.4339000000618,
      "v": 46
    },
    {
      "midi": 59,
      "hit": false,
      "t": 284731.4854333356,
      "d": 644.9266333333799,
      "v": 54
    },
    {
      "midi": 33,
      "hit": false,
      "t": 284738.7318000023,
      "d": 644.9266333333799,
      "v": 48
    },
    {
      "midi": 67,
      "hit": false,
      "t": 285057.5719333356,
      "d": 144.9273333333549,
      "v": 59
    },
    {
      "midi": 67,
      "hit": false,
      "t": 285325.6875000023,
      "d": 123.18823333334876,
      "v": 62
    },
    {
      "midi": 67,
      "hit": false,
      "t": 285586.55670000234,
      "d": 130.43459999997867,
      "v": 60
    },
    {
      "midi": 67,
      "hit": false,
      "t": 285876.411366669,
      "d": 333.3328666666639,
      "v": 42
    },
    {
      "midi": 55,
      "hit": false,
      "t": 285890.9041000023,
      "d": 130.43460000003688,
      "v": 41
    },
    {
      "midi": 60,
      "hit": false,
      "t": 285898.150466669,
      "d": 181.15916666667908,
      "v": 56
    },
    {
      "midi": 63,
      "hit": false,
      "t": 285905.3968333357,
      "d": 246.37646666663932,
      "v": 34
    },
    {
      "midi": 32,
      "hit": false,
      "t": 285905.3968333357,
      "d": 289.8546666666516,
      "v": 49
    },
    {
      "midi": 44,
      "hit": false,
      "t": 285927.1359333357,
      "d": 340.5792333332938,
      "v": 23
    },
    {
      "midi": 65,
      "hit": false,
      "t": 286332.932466669,
      "d": 159.42006666667294,
      "v": 74
    },
    {
      "midi": 65,
      "hit": false,
      "t": 286608.29440000234,
      "d": 144.9273333333549,
      "v": 70
    },
    {
      "midi": 72,
      "hit": false,
      "t": 286977.8591000024,
      "d": 231.8837333333795,
      "v": 74
    },
    {
      "midi": 65,
      "hit": false,
      "t": 286977.8591000024,
      "d": 347.82560000004014,
      "v": 80
    },
    {
      "midi": 55,
      "hit": false,
      "t": 286999.5982000024,
      "d": 202.89826666668523,
      "v": 49
    },
    {
      "midi": 72,
      "hit": false,
      "t": 287354.6701666691,
      "d": 202.89826666668523,
      "v": 66
    },
    {
      "midi": 65,
      "hit": false,
      "t": 287361.9165333358,
      "d": 253.62283333332743,
      "v": 30
    },
    {
      "midi": 70,
      "hit": false,
      "t": 287673.51030000247,
      "d": 130.43460000003688,
      "v": 64
    },
    {
      "midi": 51,
      "hit": false,
      "t": 287774.9594333358,
      "d": 86.95640000002459,
      "v": 28
    },
    {
      "midi": 67,
      "hit": false,
      "t": 288456.1179000025,
      "d": 340.57923333341023,
      "v": 64
    },
    {
      "midi": 43,
      "hit": false,
      "t": 288463.3642666692,
      "d": 326.086500000034,
      "v": 50
    },
    {
      "midi": 63,
      "hit": false,
      "t": 288477.8570000025,
      "d": 391.30380000005243,
      "v": 54
    },
    {
      "midi": 63,
      "hit": false,
      "t": 289492.3483333359,
      "d": 275.3619333333336,
      "v": 56
    },
    {
      "midi": 52,
      "hit": false,
      "t": 289506.8410666692,
      "d": 224.63736666669138,
      "v": 57
    },
    {
      "midi": 56,
      "hit": false,
      "t": 289506.8410666692,
      "d": 362.31833333335817,
      "v": 50
    },
    {
      "midi": 42,
      "hit": false,
      "t": 289514.0874333359,
      "d": 514.492033333343,
      "v": 49
    },
    {
      "midi": 60,
      "hit": false,
      "t": 289803.94210000255,
      "d": 159.42006666667294,
      "v": 57
    },
    {
      "midi": 63,
      "hit": false,
      "t": 290499.59330000257,
      "d": 275.3619333333918,
      "v": 44
    },
    {
      "midi": 57,
      "hit": false,
      "t": 290514.0860333359,
      "d": 202.89826666674344,
      "v": 69
    },
    {
      "midi": 41,
      "hit": false,
      "t": 290521.3324000026,
      "d": 289.8546666667098,
      "v": 46
    },
    {
      "midi": 51,
      "hit": false,
      "t": 290521.3324000026,
      "d": 355.07196666672826,
      "v": 38
    },
    {
      "midi": 59,
      "hit": false,
      "t": 290608.2888000026,
      "d": 50.724566666642204,
      "v": 20
    },
    {
      "midi": 75,
      "hit": false,
      "t": 291072.0562666693,
      "d": 637.68026666675,
      "v": 62
    },
    {
      "midi": 69,
      "hit": false,
      "t": 291354.6645666693,
      "d": 478.260200000077,
      "v": 49
    },
    {
      "midi": 71,
      "hit": false,
      "t": 291361.910933336,
      "d": 347.82560000004014,
      "v": 60
    },
    {
      "midi": 63,
      "hit": false,
      "t": 291666.25833333604,
      "d": 289.8546666667098,
      "v": 46
    },
    {
      "midi": 79,
      "hit": false,
      "t": 291992.3448333361,
      "d": 695.6512000000221,
      "v": 65
    },
    {
      "midi": 65,
      "hit": false,
      "t": 292311.1849666694,
      "d": 282.6083000000217,
      "v": 45
    },
    {
      "midi": 71,
      "hit": false,
      "t": 292651.76420000277,
      "d": 347.82559999998193,
      "v": 51
    },
    {
      "midi": 75,
      "hit": false,
      "t": 292651.76420000277,
      "d": 652.1730000000098,
      "v": 62
    },
    {
      "midi": 63,
      "hit": false,
      "t": 292941.6188666694,
      "d": 202.89826666668523,
      "v": 42
    },
    {
      "midi": 60,
      "hit": false,
      "t": 293274.9517333361,
      "d": 246.37646666669752,
      "v": 46
    },
    {
      "midi": 53,
      "hit": false,
      "t": 293593.79186666943,
      "d": 50.724566666642204,
      "v": 36
    },
    {
      "midi": 68,
      "hit": false,
      "t": 293941.6174666694,
      "d": 347.82560000004014,
      "v": 36
    },
    {
      "midi": 46,
      "hit": false,
      "t": 293941.6174666694,
      "d": 376.8110666667344,
      "v": 42
    },
    {
      "midi": 56,
      "hit": false,
      "t": 293941.6174666694,
      "d": 405.79653333342867,
      "v": 33
    },
    {
      "midi": 65,
      "hit": false,
      "t": 293948.8638333361,
      "d": 275.3619333333336,
      "v": 35
    },
    {
      "midi": 72,
      "hit": false,
      "t": 293956.1102000028,
      "d": 362.31833333335817,
      "v": 29
    },
    {
      "midi": 75,
      "hit": false,
      "t": 294637.2686666695,
      "d": 702.897566666652,
      "v": 85
    },
    {
      "midi": 67,
      "hit": false,
      "t": 295354.65896666946,
      "d": 260.86920000007376,
      "v": 71
    },
    {
      "midi": 77,
      "hit": false,
      "t": 295361.90533333615,
      "d": 297.10103333339794,
      "v": 72
    },
    {
      "midi": 63,
      "hit": false,
      "t": 295369.15170000284,
      "d": 297.10103333339794,
      "v": 48
    },
    {
      "midi": 56,
      "hit": false,
      "t": 295383.64443333616,
      "d": 224.63736666669138,
      "v": 25
    },
    {
      "midi": 75,
      "hit": false,
      "t": 295666.25273333624,
      "d": 282.6083000000217,
      "v": 79
    },
    {
      "midi": 66,
      "hit": false,
      "t": 295985.0928666696,
      "d": 260.86920000007376,
      "v": 42
    },
    {
      "midi": 74,
      "hit": false,
      "t": 295985.0928666696,
      "d": 311.59376666671596,
      "v": 60
    },
    {
      "midi": 62,
      "hit": false,
      "t": 295992.3392333363,
      "d": 268.11556666670367,
      "v": 46
    },
    {
      "midi": 56,
      "hit": false,
      "t": 296021.32470000297,
      "d": 311.59376666665776,
      "v": 23
    },
    {
      "midi": 80,
      "hit": false,
      "t": 296296.6866333363,
      "d": 905.7958333333954,
      "v": 55
    },
    {
      "midi": 46,
      "hit": false,
      "t": 297021.32330000296,
      "d": 188.4055333334254,
      "v": 55
    },
    {
      "midi": 56,
      "hit": false,
      "t": 297028.56966666965,
      "d": 166.66643333336106,
      "v": 56
    },
    {
      "midi": 72,
      "hit": false,
      "t": 297369.14890000306,
      "d": 239.1301000000094,
      "v": 32
    },
    {
      "midi": 74,
      "hit": false,
      "t": 297695.2354000031,
      "d": 231.8837333333213,
      "v": 50
    },
    {
      "midi": 75,
      "hit": false,
      "t": 298079.2928333364,
      "d": 246.37646666669752,
      "v": 47
    },
    {
      "midi": 46,
      "hit": false,
      "t": 298086.5392000031,
      "d": 311.59376666665776,
      "v": 37
    },
    {
      "midi": 39,
      "hit": false,
      "t": 298093.7855666698,
      "d": 282.6082999999635,
      "v": 32
    },
    {
      "midi": 79,
      "hit": false,
      "t": 298782.19040000305,
      "d": 311.59376666665776,
      "v": 83
    },
    {
      "midi": 66,
      "hit": false,
      "t": 299159.0014666697,
      "d": 94.2027666666545,
      "v": 45
    },
    {
      "midi": 82,
      "hit": false,
      "t": 299166.2478333364,
      "d": 413.0429000000004,
      "v": 64
    },
    {
      "midi": 62,
      "hit": false,
      "t": 299180.74056666973,
      "d": 94.2027666666545,
      "v": 49
    },
    {
      "midi": 85,
      "hit": false,
      "t": 299898.13086666976,
      "d": 963.7667666667257,
      "v": 85
    },
    {
      "midi": 73,
      "hit": false,
      "t": 299905.37723333645,
      "d": 869.564000000013,
      "v": 77
    },
    {
      "midi": 78,
      "hit": false,
      "t": 299905.37723333645,
      "d": 876.8103666667012,
      "v": 73
    },
    {
      "midi": 82,
      "hit": false,
      "t": 299912.62360000313,
      "d": 644.9266333333217,
      "v": 59
    },
    {
      "midi": 46,
      "hit": false,
      "t": 300231.4637333365,
      "d": 369.5646999999881,
      "v": 43
    },
    {
      "midi": 56,
      "hit": false,
      "t": 300231.4637333365,
      "d": 413.0429000000004,
      "v": 36
    },
    {
      "midi": 73,
      "hit": false,
      "t": 300956.10040000314,
      "d": 166.66643333330285,
      "v": 15
    },
    {
      "midi": 82,
      "hit": false,
      "t": 300970.59313333646,
      "d": 130.43459999997867,
      "v": 27
    },
    {
      "midi": 86,
      "hit": false,
      "t": 301325.6651000031,
      "d": 652.1730000001262,
      "v": 56
    },
    {
      "midi": 66,
      "hit": false,
      "t": 301332.9114666698,
      "d": 311.59376666671596,
      "v": 36
    },
    {
      "midi": 74,
      "hit": false,
      "t": 301332.9114666698,
      "d": 405.79653333342867,
      "v": 35
    },
    {
      "midi": 62,
      "hit": false,
      "t": 301340.1578333365,
      "d": 311.59376666671596,
      "v": 39
    },
    {
      "midi": 79,
      "hit": false,
      "t": 301340.1578333365,
      "d": 601.4484333334258,
      "v": 39
    },
    {
      "midi": 82,
      "hit": false,
      "t": 301340.1578333365,
      "d": 717.3903000000864,
      "v": 31
    },
    {
      "midi": 56,
      "hit": false,
      "t": 301354.6505666698,
      "d": 355.07196666672826,
      "v": 26
    },
    {
      "midi": 74,
      "hit": false,
      "t": 302021.31630000327,
      "d": 72.46366666664835,
      "v": 47
    },
    {
      "midi": 87,
      "hit": false,
      "t": 302390.88100000325,
      "d": 239.1301000000094,
      "v": 55
    },
    {
      "midi": 75,
      "hit": false,
      "t": 302390.88100000325,
      "d": 340.579233333352,
      "v": 37
    },
    {
      "midi": 39,
      "hit": false,
      "t": 302390.88100000325,
      "d": 528.984766666661,
      "v": 35
    },
    {
      "midi": 46,
      "hit": false,
      "t": 302398.12736666994,
      "d": 528.984766666661,
      "v": 31
    },
    {
      "midi": 79,
      "hit": false,
      "t": 302405.37373333663,
      "d": 239.1300999999512,
      "v": 36
    },
    {
      "midi": 42,
      "hit": false,
      "t": 303572.0387666699,
      "d": 637.6802666666918,
      "v": 63
    },
    {
      "midi": 58,
      "hit": false,
      "t": 303572.0387666699,
      "d": 884.0567333333311,
      "v": 71
    },
    {
      "midi": 63,
      "hit": false,
      "t": 303572.0387666699,
      "d": 891.3031000000192,
      "v": 63
    },
    {
      "midi": 52,
      "hit": false,
      "t": 303579.2851333366,
      "d": 782.6075999999885,
      "v": 69
    },
    {
      "midi": 30,
      "hit": false,
      "t": 303586.5315000033,
      "d": 637.6802666666335,
      "v": 46
    },
    {
      "midi": 63,
      "hit": false,
      "t": 304796.6747333366,
      "d": 572.4629666666733,
      "v": 46
    },
    {
      "midi": 51,
      "hit": false,
      "t": 304811.1674666699,
      "d": 340.579233333352,
      "v": 39
    },
    {
      "midi": 41,
      "hit": false,
      "t": 304811.1674666699,
      "d": 463.7674666666426,
      "v": 38
    },
    {
      "midi": 56,
      "hit": false,
      "t": 304811.1674666699,
      "d": 492.75293333333684,
      "v": 47
    },
    {
      "midi": 29,
      "hit": false,
      "t": 304818.4138333366,
      "d": 384.0574333333061,
      "v": 36
    },
    {
      "midi": 71,
      "hit": false,
      "t": 305898.12246666994,
      "d": 442.02836666669464,
      "v": 46
    },
    {
      "midi": 62,
      "hit": false,
      "t": 305905.36883333663,
      "d": 289.8546666666516,
      "v": 45
    },
    {
      "midi": 46,
      "hit": false,
      "t": 305905.36883333663,
      "d": 318.8401333333459,
      "v": 29
    },
    {
      "midi": 67,
      "hit": false,
      "t": 305905.36883333663,
      "d": 384.0574333333643,
      "v": 49
    },
    {
      "midi": 56,
      "hit": false,
      "t": 305912.6152000033,
      "d": 246.37646666663932,
      "v": 28
    },
    {
      "midi": 39,
      "hit": false,
      "t": 306985.07746666996,
      "d": 108.69550000003073,
      "v": 34
    },
    {
      "midi": 46,
      "hit": false,
      "t": 306985.07746666996,
      "d": 115.94186666671885,
      "v": 33
    },
    {
      "midi": 84,
      "hit": false,
      "t": 306992.32383333665,
      "d": 94.2027666666545,
      "v": 47
    },
    {
      "midi": 72,
      "hit": false,
      "t": 307006.81656666996,
      "d": 86.95640000002459,
      "v": 24
    },
    {
      "midi": 84,
      "hit": false,
      "t": 307550.29406667,
      "d": 195.6518999999971,
      "v": 48
    },
    {
      "midi": 72,
      "hit": false,
      "t": 307572.03316667,
      "d": 202.89826666668523,
      "v": 25
    },
    {
      "midi": 82,
      "hit": false,
      "t": 307927.1051333367,
      "d": 101.44913333334262,
      "v": 40
    },
    {
      "midi": 63,
      "hit": false,
      "t": 308064.78610000334,
      "d": 72.46366666670656,
      "v": 32
    },
    {
      "midi": 72,
      "hit": false,
      "t": 308101.01793333667,
      "d": 101.44913333340082,
      "v": 27
    },
    {
      "midi": 84,
      "hit": false,
      "t": 308108.26430000336,
      "d": 94.2027666667127,
      "v": 36
    },
    {
      "midi": 58,
      "hit": false,
      "t": 308108.26430000336,
      "d": 115.94186666671885,
      "v": 31
    },
    {
      "midi": 84,
      "hit": false,
      "t": 308644.49543333676,
      "d": 173.91279999999097,
      "v": 33
    },
    {
      "midi": 72,
      "hit": false,
      "t": 308644.49543333676,
      "d": 188.405533333309,
      "v": 25
    },
    {
      "midi": 82,
      "hit": false,
      "t": 309021.3065000034,
      "d": 115.94186666666064,
      "v": 34
    },
    {
      "midi": 41,
      "hit": false,
      "t": 309180.72656667006,
      "d": 268.11556666670367,
      "v": 44
    },
    {
      "midi": 51,
      "hit": false,
      "t": 309187.97293333674,
      "d": 340.579233333352,
      "v": 33
    },
    {
      "midi": 72,
      "hit": false,
      "t": 309195.21930000343,
      "d": 275.3619333333336,
      "v": 31
    },
    {
      "midi": 84,
      "hit": false,
      "t": 309202.4656666701,
      "d": 231.8837333333213,
      "v": 37
    },
    {
      "midi": 72,
      "hit": false,
      "t": 309564.7840000034,
      "d": 86.95640000002459,
      "v": 37
    },
    {
      "midi": 84,
      "hit": false,
      "t": 309579.27673333674,
      "d": 43.47820000001229,
      "v": 48
    },
    {
      "midi": 63,
      "hit": false,
      "t": 310318.4061333368,
      "d": 79.71003333327826,
      "v": 37
    },
    {
      "midi": 60,
      "hit": false,
      "t": 310332.8988666701,
      "d": 50.724566666642204,
      "v": 41
    },
    {
      "midi": 53,
      "hit": false,
      "t": 310332.8988666701,
      "d": 65.21729999996023,
      "v": 35
    },
    {
      "midi": 56,
      "hit": false,
      "t": 310332.8988666701,
      "d": 115.94186666660244,
      "v": 43
    },
    {
      "midi": 82,
      "hit": false,
      "t": 310883.6227333367,
      "d": 115.94186666666064,
      "v": 92
    },
    {
      "midi": 84,
      "hit": false,
      "t": 311072.02826667,
      "d": 94.2027666666545,
      "v": 83
    },
    {
      "midi": 85,
      "hit": false,
      "t": 311267.68016667,
      "d": 130.43459999997867,
      "v": 91
    },
    {
      "midi": 73,
      "hit": false,
      "t": 311477.8248000033,
      "d": 94.2027666667127,
      "v": 63
    },
    {
      "midi": 85,
      "hit": false,
      "t": 311485.07116667,
      "d": 79.71003333333647,
      "v": 38
    },
    {
      "midi": 43,
      "hit": false,
      "t": 311485.07116667,
      "d": 173.91279999999097,
      "v": 58
    },
    {
      "midi": 86,
      "hit": false,
      "t": 311521.30300000333,
      "d": 159.42006666667294,
      "v": 63
    },
    {
      "midi": 84,
      "hit": false,
      "t": 311586.52030000335,
      "d": 101.44913333334262,
      "v": 15
    },
    {
      "midi": 74,
      "hit": false,
      "t": 311586.52030000335,
      "d": 123.18823333334876,
      "v": 55
    },
    {
      "midi": 82,
      "hit": false,
      "t": 311840.1431333367,
      "d": 101.44913333334262,
      "v": 38
    },
    {
      "midi": 70,
      "hit": false,
      "t": 311854.63586667,
      "d": 79.71003333333647,
      "v": 55
    },
    {
      "midi": 79,
      "hit": false,
      "t": 312086.5196000034,
      "d": 130.43459999997867,
      "v": 37
    },
    {
      "midi": 67,
      "hit": false,
      "t": 312101.0123333367,
      "d": 101.44913333334262,
      "v": 51
    },
    {
      "midi": 75,
      "hit": false,
      "t": 312274.9251333367,
      "d": 86.95640000002459,
      "v": 46
    },
    {
      "midi": 67,
      "hit": false,
      "t": 312434.34520000336,
      "d": 79.71003333327826,
      "v": 66
    },
    {
      "midi": 79,
      "hit": false,
      "t": 312448.8379333367,
      "d": 86.95639999996638,
      "v": 53
    },
    {
      "midi": 62,
      "hit": false,
      "t": 312637.24346667,
      "d": 260.86920000001555,
      "v": 38
    },
    {
      "midi": 58,
      "hit": false,
      "t": 312637.24346667,
      "d": 340.579233333352,
      "v": 40
    },
    {
      "midi": 44,
      "hit": false,
      "t": 313803.90850000334,
      "d": 456.52110000001267,
      "v": 34
    },
    {
      "midi": 55,
      "hit": false,
      "t": 313803.90850000334,
      "d": 492.75293333333684,
      "v": 36
    },
    {
      "midi": 60,
      "hit": false,
      "t": 314180.71956667,
      "d": 36.231833333324175,
      "v": 20
    },
    {
      "midi": 63,
      "hit": false,
      "t": 314231.44413333666,
      "d": 159.42006666673115,
      "v": 37
    },
    {
      "midi": 67,
      "hit": false,
      "t": 314325.64690000337,
      "d": 86.95640000002459,
      "v": 51
    },
    {
      "midi": 70,
      "hit": false,
      "t": 314412.6033000034,
      "d": 94.2027666666545,
      "v": 64
    },
    {
      "midi": 67,
      "hit": false,
      "t": 314521.29880000337,
      "d": 57.97093333333032,
      "v": 60
    },
    {
      "midi": 68,
      "hit": false,
      "t": 314629.99430000334,
      "d": 86.95640000002459,
      "v": 37
    },
    {
      "midi": 70,
      "hit": false,
      "t": 314753.1825333367,
      "d": 36.231833333324175,
      "v": 47
    },
    {
      "midi": 72,
      "hit": false,
      "t": 314869.12440000335,
      "d": 72.46366666670656,
      "v": 60
    },
    {
      "midi": 63,
      "hit": false,
      "t": 314934.34170000337,
      "d": 449.27473333338276,
      "v": 34
    },
    {
      "midi": 60,
      "hit": false,
      "t": 314963.32716667006,
      "d": 514.492033333343,
      "v": 38
    },
    {
      "midi": 56,
      "hit": false,
      "t": 314970.57353333675,
      "d": 594.2020666666795,
      "v": 32
    },
    {
      "midi": 74,
      "hit": false,
      "t": 315050.2835666701,
      "d": 115.94186666666064,
      "v": 68
    },
    {
      "midi": 75,
      "hit": false,
      "t": 315245.9354666701,
      "d": 86.95640000002459,
      "v": 69
    },
    {
      "midi": 77,
      "hit": false,
      "t": 315412.60190000344,
      "d": 108.69549999997253,
      "v": 59
    },
    {
      "midi": 79,
      "hit": false,
      "t": 315572.0219666701,
      "d": 72.46366666664835,
      "v": 44
    },
    {
      "midi": 80,
      "hit": false,
      "t": 315673.47110000346,
      "d": 57.97093333333032,
      "v": 52
    },
    {
      "midi": 81,
      "hit": false,
      "t": 315774.9202333368,
      "d": 108.69549999997253,
      "v": 36
    },
    {
      "midi": 82,
      "hit": false,
      "t": 315883.6157333368,
      "d": 137.6809666666668,
      "v": 75
    },
    {
      "midi": 52,
      "hit": false,
      "t": 316043.03580000345,
      "d": 630.4339000000036,
      "v": 45
    },
    {
      "midi": 62,
      "hit": false,
      "t": 316043.03580000345,
      "d": 673.9121000000159,
      "v": 53
    },
    {
      "midi": 79,
      "hit": false,
      "t": 316050.28216667013,
      "d": 318.8401333333459,
      "v": 71
    },
    {
      "midi": 59,
      "hit": false,
      "t": 316050.28216667013,
      "d": 630.4339000000036,
      "v": 43
    },
    {
      "midi": 76,
      "hit": false,
      "t": 316383.6150333368,
      "d": 101.44913333334262,
      "v": 74
    },
    {
      "midi": 71,
      "hit": false,
      "t": 316601.0060333368,
      "d": 202.89826666668523,
      "v": 73
    },
    {
      "midi": 67,
      "hit": false,
      "t": 316847.3825000035,
      "d": 72.46366666664835,
      "v": 67
    },
    {
      "midi": 71,
      "hit": false,
      "t": 317101.0053333368,
      "d": 499.99929999996675,
      "v": 26
    },
    {
      "midi": 67,
      "hit": false,
      "t": 317115.49806667014,
      "d": 471.0138333333307,
      "v": 47
    },
    {
      "midi": 64,
      "hit": false,
      "t": 317115.49806667014,
      "d": 492.75293333333684,
      "v": 48
    },
    {
      "midi": 62,
      "hit": false,
      "t": 317137.23716667015,
      "d": 79.71003333333647,
      "v": 42
    },
    {
      "midi": 59,
      "hit": false,
      "t": 317137.23716667015,
      "d": 115.94186666666064,
      "v": 52
    },
    {
      "midi": 56,
      "hit": false,
      "t": 317419.8454666702,
      "d": 152.17369999998482,
      "v": 64
    },
    {
      "midi": 46,
      "hit": false,
      "t": 317709.7001333368,
      "d": 268.11556666664546,
      "v": 50
    },
    {
      "midi": 55,
      "hit": false,
      "t": 318014.0475333368,
      "d": 920.2885666667717,
      "v": 74
    },
    {
      "midi": 45,
      "hit": false,
      "t": 318021.2939000035,
      "d": 1782.6062000000384,
      "v": 72
    },
    {
      "midi": 57,
      "hit": false,
      "t": 318282.1631000035,
      "d": 173.91279999999097,
      "v": 63
    },
    {
      "midi": 58,
      "hit": false,
      "t": 318514.0468333368,
      "d": 123.18823333334876,
      "v": 52
    },
    {
      "midi": 60,
      "hit": false,
      "t": 318658.9741666702,
      "d": 86.95640000002459,
      "v": 56
    },
    {
      "midi": 61,
      "hit": false,
      "t": 318782.1624000035,
      "d": 86.95640000002459,
      "v": 51
    },
    {
      "midi": 63,
      "hit": false,
      "t": 318912.59700000356,
      "d": 57.97093333333032,
      "v": 51
    },
    {
      "midi": 64,
      "hit": false,
      "t": 319035.7852333369,
      "d": 50.724566666642204,
      "v": 36
    },
    {
      "midi": 66,
      "hit": false,
      "t": 319137.2343666702,
      "d": 79.71003333333647,
      "v": 42
    },
    {
      "midi": 67,
      "hit": false,
      "t": 319260.42260000354,
      "d": 108.69550000003073,
      "v": 60
    },
    {
      "midi": 55,
      "hit": false,
      "t": 319361.8717333369,
      "d": 521.7383999999729,
      "v": 43
    },
    {
      "midi": 69,
      "hit": false,
      "t": 319383.6108333369,
      "d": 108.69549999997253,
      "v": 56
    },
    {
      "midi": 70,
      "hit": false,
      "t": 319535.7845333369,
      "d": 36.231833333324175,
      "v": 38
    },
    {
      "midi": 72,
      "hit": false,
      "t": 319637.23366667016,
      "d": 86.95640000002459,
      "v": 46
    },
    {
      "midi": 73,
      "hit": false,
      "t": 319731.4364333369,
      "d": 130.43459999997867,
      "v": 35
    },
    {
      "midi": 75,
      "hit": false,
      "t": 319876.36376667017,
      "d": 72.46366666670656,
      "v": 36
    },
    {
      "midi": 76,
      "hit": false,
      "t": 319970.5665333369,
      "d": 65.21730000001844,
      "v": 47
    },
    {
      "midi": 79,
      "hit": false,
      "t": 320093.75476667023,
      "d": 86.95640000002459,
      "v": 56
    },
    {
      "midi": 81,
      "hit": false,
      "t": 320093.75476667023,
      "d": 86.95640000002459,
      "v": 57
    },
    {
      "midi": 78,
      "hit": false,
      "t": 320209.69663333695,
      "d": 86.95640000002459,
      "v": 60
    },
    {
      "midi": 77,
      "hit": false,
      "t": 320340.131233337,
      "d": 130.43459999997867,
      "v": 47
    },
    {
      "midi": 76,
      "hit": false,
      "t": 320485.0585666703,
      "d": 101.44913333334262,
      "v": 59
    },
    {
      "midi": 44,
      "hit": false,
      "t": 320535.7831333369,
      "d": 391.30380000005243,
      "v": 42
    },
    {
      "midi": 55,
      "hit": false,
      "t": 320543.0295000036,
      "d": 398.55016666668234,
      "v": 41
    },
    {
      "midi": 75,
      "hit": false,
      "t": 320586.5077000036,
      "d": 340.579233333352,
      "v": 45
    },
    {
      "midi": 72,
      "hit": false,
      "t": 320898.1014666703,
      "d": 108.69550000003073,
      "v": 58
    },
    {
      "midi": 63,
      "hit": false,
      "t": 321637.2308666703,
      "d": 289.8546666666516,
      "v": 27
    },
    {
      "midi": 60,
      "hit": false,
      "t": 321651.72360000364,
      "d": 224.63736666669138,
      "v": 42
    },
    {
      "midi": 56,
      "hit": false,
      "t": 321651.72360000364,
      "d": 485.5065666666487,
      "v": 35
    },
    {
      "midi": 67,
      "hit": false,
      "t": 321999.5492000036,
      "d": 275.3619333333336,
      "v": 80
    },
    {
      "midi": 70,
      "hit": false,
      "t": 322340.12843333697,
      "d": 239.1301000000094,
      "v": 82
    },
    {
      "midi": 53,
      "hit": false,
      "t": 322724.18586667033,
      "d": 695.6511999999639,
      "v": 49
    },
    {
      "midi": 65,
      "hit": false,
      "t": 322724.18586667033,
      "d": 760.8684999999823,
      "v": 70
    },
    {
      "midi": 58,
      "hit": false,
      "t": 322724.18586667033,
      "d": 942.0276666666614,
      "v": 67
    },
    {
      "midi": 43,
      "hit": false,
      "t": 323100.99693333695,
      "d": 318.8401333333459,
      "v": 57
    },
    {
      "midi": 58,
      "hit": false,
      "t": 323883.604533337,
      "d": 710.1439333332819,
      "v": 49
    },
    {
      "midi": 64,
      "hit": false,
      "t": 323890.8509000037,
      "d": 586.9556999999331,
      "v": 55
    },
    {
      "midi": 42,
      "hit": false,
      "t": 323905.343633337,
      "d": 456.52109999995446,
      "v": 39
    },
    {
      "midi": 52,
      "hit": false,
      "t": 323905.343633337,
      "d": 768.1148666666122,
      "v": 35
    },
    {
      "midi": 42,
      "hit": false,
      "t": 324572.0093666703,
      "d": 217.39100000000326,
      "v": 39
    },
    {
      "midi": 62,
      "hit": false,
      "t": 324992.29863333696,
      "d": 159.42006666673115,
      "v": 44
    },
    {
      "midi": 57,
      "hit": false,
      "t": 324999.54500000365,
      "d": 101.44913333340082,
      "v": 30
    },
    {
      "midi": 41,
      "hit": false,
      "t": 325006.79136667034,
      "d": 202.89826666668523,
      "v": 37
    },
    {
      "midi": 51,
      "hit": false,
      "t": 325014.037733337,
      "d": 282.6083000000217,
      "v": 25
    },
    {
      "midi": 74,
      "hit": false,
      "t": 325361.86333333707,
      "d": 202.89826666668523,
      "v": 72
    },
    {
      "midi": 71,
      "hit": false,
      "t": 325695.19620000373,
      "d": 159.42006666667294,
      "v": 53
    },
    {
      "midi": 63,
      "hit": false,
      "t": 325702.4425666704,
      "d": 79.71003333333647,
      "v": 47
    },
    {
      "midi": 67,
      "hit": false,
      "t": 325709.6889333371,
      "d": 94.2027666666545,
      "v": 58
    },
    {
      "midi": 62,
      "hit": false,
      "t": 325731.4280333371,
      "d": 202.89826666662702,
      "v": 48
    },
    {
      "midi": 86,
      "hit": false,
      "t": 326057.5145333371,
      "d": 210.14463333331514,
      "v": 96
    },
    {
      "midi": 74,
      "hit": false,
      "t": 326361.86193333706,
      "d": 246.37646666669752,
      "v": 48
    },
    {
      "midi": 79,
      "hit": false,
      "t": 326369.10830000375,
      "d": 260.86920000001555,
      "v": 46
    },
    {
      "midi": 67,
      "hit": false,
      "t": 326390.84740000375,
      "d": 217.39100000000326,
      "v": 46
    },
    {
      "midi": 63,
      "hit": false,
      "t": 326390.84740000375,
      "d": 275.3619333333336,
      "v": 37
    },
    {
      "midi": 62,
      "hit": false,
      "t": 326398.09376667044,
      "d": 210.14463333331514,
      "v": 44
    },
    {
      "midi": 83,
      "hit": false,
      "t": 326666.2093333371,
      "d": 159.42006666667294,
      "v": 66
    },
    {
      "midi": 53,
      "hit": false,
      "t": 326977.80310000374,
      "d": 1137.6795666667167,
      "v": 57
    },
    {
      "midi": 74,
      "hit": false,
      "t": 327282.1505000038,
      "d": 253.62283333332743,
      "v": 69
    },
    {
      "midi": 71,
      "hit": false,
      "t": 327289.39686667046,
      "d": 231.8837333333213,
      "v": 65
    },
    {
      "midi": 79,
      "hit": false,
      "t": 327579.2515333371,
      "d": 115.94186666666064,
      "v": 69
    },
    {
      "midi": 71,
      "hit": false,
      "t": 327927.0771333371,
      "d": 398.55016666674055,
      "v": 57
    },
    {
      "midi": 74,
      "hit": false,
      "t": 327927.0771333371,
      "d": 471.0138333333889,
      "v": 57
    },
    {
      "midi": 67,
      "hit": false,
      "t": 327934.3235000038,
      "d": 478.2602000000188,
      "v": 57
    },
    {
      "midi": 63,
      "hit": false,
      "t": 327948.8162333371,
      "d": 724.6366666666581,
      "v": 36
    },
    {
      "midi": 72,
      "hit": false,
      "t": 328274.90273333713,
      "d": 275.3619333333336,
      "v": 48
    },
    {
      "midi": 53,
      "hit": false,
      "t": 328296.64183333714,
      "d": 65.21730000001844,
      "v": 27
    },
    {
      "midi": 53,
      "hit": false,
      "t": 328600.9892333371,
      "d": 224.63736666663317,
      "v": 58
    },
    {
      "midi": 67,
      "hit": false,
      "t": 328963.3075666704,
      "d": 202.89826666668523,
      "v": 61
    },
    {
      "midi": 70,
      "hit": false,
      "t": 328963.3075666704,
      "d": 376.811066666618,
      "v": 50
    },
    {
      "midi": 53,
      "hit": false,
      "t": 328985.0466666704,
      "d": 246.37646666663932,
      "v": 43
    },
    {
      "midi": 60,
      "hit": false,
      "t": 329006.7857666704,
      "d": 173.91279999999097,
      "v": 43
    },
    {
      "midi": 67,
      "hit": false,
      "t": 329369.1041000037,
      "d": 1195.650500000047,
      "v": 68
    },
    {
      "midi": 60,
      "hit": false,
      "t": 329383.59683333704,
      "d": 492.75293333339505,
      "v": 64
    },
    {
      "midi": 63,
      "hit": false,
      "t": 329390.8432000037,
      "d": 478.2602000000188,
      "v": 52
    },
    {
      "midi": 56,
      "hit": false,
      "t": 329398.0895666704,
      "d": 521.7384000000311,
      "v": 56
    },
    {
      "midi": 63,
      "hit": false,
      "t": 330028.5234666704,
      "d": 579.7093333333614,
      "v": 56
    },
    {
      "midi": 56,
      "hit": false,
      "t": 330043.01620000374,
      "d": 543.4775000000373,
      "v": 36
    },
    {
      "midi": 60,
      "hit": false,
      "t": 330050.2625666704,
      "d": 471.0138333333307,
      "v": 50
    },
    {
      "midi": 46,
      "hit": false,
      "t": 330419.8272666704,
      "d": 152.17370000004303,
      "v": 62
    },
    {
      "midi": 85,
      "hit": false,
      "t": 331050.2611666705,
      "d": 210.14463333337335,
      "v": 86
    },
    {
      "midi": 56,
      "hit": false,
      "t": 331050.2611666705,
      "d": 275.3619333333918,
      "v": 79
    },
    {
      "midi": 78,
      "hit": false,
      "t": 331057.50753333716,
      "d": 224.63736666669138,
      "v": 77
    },
    {
      "midi": 66,
      "hit": false,
      "t": 331057.50753333716,
      "d": 231.8837333333795,
      "v": 87
    },
    {
      "midi": 73,
      "hit": false,
      "t": 331057.50753333716,
      "d": 231.8837333333795,
      "v": 77
    },
    {
      "midi": 82,
      "hit": false,
      "t": 331057.50753333716,
      "d": 246.37646666669752,
      "v": 68
    },
    {
      "midi": 62,
      "hit": false,
      "t": 331064.75390000385,
      "d": 304.34740000002785,
      "v": 74
    },
    {
      "midi": 82,
      "hit": false,
      "t": 331427.0722333372,
      "d": 384.0574333333643,
      "v": 53
    },
    {
      "midi": 66,
      "hit": false,
      "t": 331434.3186000039,
      "d": 362.31833333335817,
      "v": 64
    },
    {
      "midi": 75,
      "hit": false,
      "t": 331434.3186000039,
      "d": 413.0429000000004,
      "v": 59
    },
    {
      "midi": 56,
      "hit": false,
      "t": 331441.5649666706,
      "d": 442.02836666669464,
      "v": 62
    },
    {
      "midi": 70,
      "hit": false,
      "t": 331448.8113333373,
      "d": 405.79653333331225,
      "v": 44
    },
    {
      "midi": 62,
      "hit": false,
      "t": 331448.8113333373,
      "d": 543.477499999979,
      "v": 57
    },
    {
      "midi": 78,
      "hit": false,
      "t": 332158.9552666706,
      "d": 376.8110666666762,
      "v": 43
    },
    {
      "midi": 66,
      "hit": false,
      "t": 332173.44800000393,
      "d": 224.63736666669138,
      "v": 37
    },
    {
      "midi": 73,
      "hit": false,
      "t": 332173.44800000393,
      "d": 318.8401333333459,
      "v": 36
    },
    {
      "midi": 62,
      "hit": false,
      "t": 332195.18710000394,
      "d": 384.0574333333643,
      "v": 42
    },
    {
      "midi": 56,
      "hit": false,
      "t": 332543.012700004,
      "d": 108.69549999997253,
      "v": 48
    },
    {
      "midi": 39,
      "hit": false,
      "t": 333209.67843333725,
      "d": 202.89826666662702,
      "v": 36
    },
    {
      "midi": 89,
      "hit": false,
      "t": 333209.67843333725,
      "d": 275.3619333332754,
      "v": 48
    },
    {
      "midi": 86,
      "hit": false,
      "t": 333224.17116667057,
      "d": 268.11556666664546,
      "v": 42
    },
    {
      "midi": 46,
      "hit": false,
      "t": 333238.6639000039,
      "d": 231.8837333333213,
      "v": 29
    },
    {
      "midi": 82,
      "hit": false,
      "t": 333238.6639000039,
      "d": 340.579233333352,
      "v": 29
    },
    {
      "midi": 77,
      "hit": false,
      "t": 333253.1566333372,
      "d": 347.82560000004014,
      "v": 35
    },
    {
      "midi": 86,
      "hit": false,
      "t": 333919.8223666706,
      "d": 268.11556666670367,
      "v": 57
    },
    {
      "midi": 82,
      "hit": false,
      "t": 333941.5614666706,
      "d": 239.1301000000094,
      "v": 27
    },
    {
      "midi": 74,
      "hit": false,
      "t": 333956.0542000039,
      "d": 210.14463333337335,
      "v": 17
    },
    {
      "midi": 79,
      "hit": false,
      "t": 333963.3005666706,
      "d": 166.66643333336106,
      "v": 24
    },
    {
      "midi": 62,
      "hit": false,
      "t": 334296.63343333727,
      "d": 101.44913333334262,
      "v": 53
    },
    {
      "midi": 86,
      "hit": false,
      "t": 334311.1261666706,
      "d": 427.5356333334348,
      "v": 51
    },
    {
      "midi": 58,
      "hit": false,
      "t": 334325.6189000039,
      "d": 130.43460000003688,
      "v": 33
    },
    {
      "midi": 74,
      "hit": false,
      "t": 334325.6189000039,
      "d": 362.3183333334164,
      "v": 30
    },
    {
      "midi": 82,
      "hit": false,
      "t": 334325.6189000039,
      "d": 391.30380000011064,
      "v": 29
    },
    {
      "midi": 79,
      "hit": false,
      "t": 334332.8652666706,
      "d": 347.82560000004014,
      "v": 33
    },
    {
      "midi": 86,
      "hit": false,
      "t": 334985.03826667066,
      "d": 65.21730000001844,
      "v": 50
    },
    {
      "midi": 74,
      "hit": false,
      "t": 334985.03826667066,
      "d": 86.95640000002459,
      "v": 49
    },
    {
      "midi": 79,
      "hit": false,
      "t": 334999.531000004,
      "d": 86.95640000002459,
      "v": 40
    },
    {
      "midi": 82,
      "hit": false,
      "t": 335006.77736667066,
      "d": 130.43459999997867,
      "v": 33
    },
    {
      "midi": 48,
      "hit": false,
      "t": 335383.5884333373,
      "d": 391.3037999999942,
      "v": 48
    },
    {
      "midi": 87,
      "hit": false,
      "t": 335383.5884333373,
      "d": 471.0138333333307,
      "v": 61
    },
    {
      "midi": 58,
      "hit": false,
      "t": 335390.83480000397,
      "d": 478.2601999999606,
      "v": 36
    },
    {
      "midi": 75,
      "hit": false,
      "t": 335390.83480000397,
      "d": 478.2601999999606,
      "v": 46
    },
    {
      "midi": 87,
      "hit": false,
      "t": 336079.23963333725,
      "d": 449.27473333338276,
      "v": 59
    },
    {
      "midi": 75,
      "hit": false,
      "t": 336086.48600000393,
      "d": 427.5356333333766,
      "v": 46
    },
    {
      "midi": 63,
      "hit": false,
      "t": 336448.8043333373,
      "d": 398.55016666668234,
      "v": 32
    },
    {
      "midi": 60,
      "hit": false,
      "t": 336485.0361666706,
      "d": 260.86920000001555,
      "v": 39
    },
    {
      "midi": 58,
      "hit": false,
      "t": 336485.0361666706,
      "d": 347.82560000004014,
      "v": 31
    },
    {
      "midi": 95,
      "hit": false,
      "t": 337260.397400004,
      "d": 340.579233333352,
      "v": 108
    },
    {
      "midi": 96,
      "hit": false,
      "t": 337463.29566667066,
      "d": 137.6809666666668,
      "v": 65
    },
    {
      "midi": 97,
      "hit": false,
      "t": 337586.483900004,
      "d": 101.44913333334262,
      "v": 74
    },
    {
      "midi": 67,
      "hit": false,
      "t": 337673.440300004,
      "d": 659.4193666667561,
      "v": 35
    },
    {
      "midi": 57,
      "hit": false,
      "t": 337673.440300004,
      "d": 1746.3743666668888,
      "v": 50
    },
    {
      "midi": 63,
      "hit": false,
      "t": 337680.68666667066,
      "d": 623.1875333333737,
      "v": 27
    },
    {
      "midi": 62,
      "hit": false,
      "t": 337680.68666667066,
      "d": 681.1584666667623,
      "v": 53
    },
    {
      "midi": 98,
      "hit": false,
      "t": 337687.93303333735,
      "d": 159.42006666667294,
      "v": 77
    },
    {
      "midi": 91,
      "hit": false,
      "t": 337905.32403333735,
      "d": 224.63736666663317,
      "v": 75
    },
    {
      "midi": 93,
      "hit": false,
      "t": 338079.23683333735,
      "d": 115.94186666666064,
      "v": 54
    },
    {
      "midi": 94,
      "hit": false,
      "t": 338158.9468666707,
      "d": 108.69549999997253,
      "v": 61
    },
    {
      "midi": 95,
      "hit": false,
      "t": 338274.88873333734,
      "d": 101.44913333340082,
      "v": 66
    },
    {
      "midi": 86,
      "hit": false,
      "t": 338405.32333333744,
      "d": 173.91279999999097,
      "v": 71
    },
    {
      "midi": 87,
      "hit": false,
      "t": 338535.7579333374,
      "d": 123.18823333334876,
      "v": 52
    },
    {
      "midi": 88,
      "hit": false,
      "t": 338622.71433333744,
      "d": 94.2027666666545,
      "v": 55
    },
    {
      "midi": 89,
      "hit": false,
      "t": 338709.6707333374,
      "d": 94.2027666667127,
      "v": 64
    },
    {
      "midi": 63,
      "hit": false,
      "t": 338753.1489333374,
      "d": 666.6657333334442,
      "v": 45
    },
    {
      "midi": 67,
      "hit": false,
      "t": 338760.3953000041,
      "d": 557.9702333334135,
      "v": 43
    },
    {
      "midi": 62,
      "hit": false,
      "t": 338760.3953000041,
      "d": 565.2166000001016,
      "v": 30
    },
    {
      "midi": 83,
      "hit": false,
      "t": 338832.8589666708,
      "d": 318.8401333333459,
      "v": 54
    },
    {
      "midi": 86,
      "hit": false,
      "t": 339115.46726667084,
      "d": 384.0574333333643,
      "v": 87
    },
    {
      "midi": 84,
      "hit": false,
      "t": 339361.84373333753,
      "d": 152.17369999998482,
      "v": 82
    },
    {
      "midi": 82,
      "hit": false,
      "t": 339586.48110000417,
      "d": 166.66643333336106,
      "v": 69
    },
    {
      "midi": 68,
      "hit": false,
      "t": 339803.87210000417,
      "d": 731.8830333334045,
      "v": 36
    },
    {
      "midi": 63,
      "hit": false,
      "t": 339811.11846667086,
      "d": 891.3031000000774,
      "v": 38
    },
    {
      "midi": 80,
      "hit": false,
      "t": 339832.85756667086,
      "d": 217.39100000000326,
      "v": 53
    },
    {
      "midi": 60,
      "hit": false,
      "t": 339832.85756667086,
      "d": 768.1148666667286,
      "v": 47
    },
    {
      "midi": 82,
      "hit": false,
      "t": 340086.4804000042,
      "d": 268.11556666670367,
      "v": 55
    },
    {
      "midi": 79,
      "hit": false,
      "t": 340318.36413333757,
      "d": 195.6518999999971,
      "v": 60
    },
    {
      "midi": 80,
      "hit": false,
      "t": 340557.4942333376,
      "d": 239.1301000000094,
      "v": 60
    },
    {
      "midi": 78,
      "hit": false,
      "t": 340811.1170666709,
      "d": 369.56469999992987,
      "v": 68
    },
    {
      "midi": 67,
      "hit": false,
      "t": 340825.6098000042,
      "d": 427.5356333332602,
      "v": 58
    },
    {
      "midi": 56,
      "hit": false,
      "t": 340840.10253333754,
      "d": 543.477499999979,
      "v": 34
    },
    {
      "midi": 62,
      "hit": false,
      "t": 340847.34890000423,
      "d": 413.04289999994216,
      "v": 44
    },
    {
      "midi": 80,
      "hit": false,
      "t": 341122.7108333375,
      "d": 202.89826666668523,
      "v": 63
    },
    {
      "midi": 77,
      "hit": false,
      "t": 341369.0873000042,
      "d": 246.37646666663932,
      "v": 51
    },
    {
      "midi": 79,
      "hit": false,
      "t": 341629.95650000416,
      "d": 173.91279999999097,
      "v": 59
    },
    {
      "midi": 65,
      "hit": false,
      "t": 341869.0866000042,
      "d": 355.07196666672826,
      "v": 45
    },
    {
      "midi": 62,
      "hit": false,
      "t": 341876.33296667086,
      "d": 405.79653333337046,
      "v": 32
    },
    {
      "midi": 58,
      "hit": false,
      "t": 341898.07206667087,
      "d": 478.260200000077,
      "v": 26
    },
    {
      "midi": 74,
      "hit": false,
      "t": 341905.31843333755,
      "d": 289.8546666666516,
      "v": 52
    },
    {
      "midi": 55,
      "hit": false,
      "t": 342347.34680000425,
      "d": 50.72456666670041,
      "v": 51
    },
    {
      "midi": 67,
      "hit": false,
      "t": 342861.8388333376,
      "d": 717.3903000000282,
      "v": 57
    },
    {
      "midi": 64,
      "hit": false,
      "t": 342869.0852000043,
      "d": 731.8830333333462,
      "v": 55
    },
    {
      "midi": 60,
      "hit": false,
      "t": 342876.33156667097,
      "d": 586.9556999999913,
      "v": 60
    },
    {
      "midi": 55,
      "hit": false,
      "t": 342876.33156667097,
      "d": 811.5930666666827,
      "v": 43
    },
    {
      "midi": 46,
      "hit": false,
      "t": 343390.8236000043,
      "d": 876.810366666643,
      "v": 54
    },
    {
      "midi": 63,
      "hit": false,
      "t": 343919.808366671,
      "d": 543.477499999979,
      "v": 85
    },
    {
      "midi": 68,
      "hit": false,
      "t": 343919.808366671,
      "d": 637.6802666666335,
      "v": 73
    },
    {
      "midi": 56,
      "hit": false,
      "t": 343919.808366671,
      "d": 804.3466999999946,
      "v": 62
    },
    {
      "midi": 72,
      "hit": false,
      "t": 343919.808366671,
      "d": 963.7667666666675,
      "v": 79
    },
    {
      "midi": 46,
      "hit": false,
      "t": 344441.54676667094,
      "d": 753.6221333333524,
      "v": 50
    },
    {
      "midi": 68,
      "hit": false,
      "t": 344941.54606667097,
      "d": 652.1730000000098,
      "v": 43
    },
    {
      "midi": 60,
      "hit": false,
      "t": 344963.285166671,
      "d": 536.2311333333491,
      "v": 42
    },
    {
      "midi": 63,
      "hit": false,
      "t": 344963.285166671,
      "d": 572.4629666666733,
      "v": 32
    },
    {
      "midi": 58,
      "hit": false,
      "t": 344985.024266671,
      "d": 623.1875333333155,
      "v": 39
    },
    {
      "midi": 46,
      "hit": false,
      "t": 345492.26993333764,
      "d": 434.7820000000065,
      "v": 57
    },
    {
      "midi": 74,
      "hit": false,
      "t": 345992.26923333766,
      "d": 1043.4768000001204,
      "v": 80
    },
    {
      "midi": 70,
      "hit": false,
      "t": 346014.00833333767,
      "d": 1855.0698666668031,
      "v": 76
    },
    {
      "midi": 62,
      "hit": false,
      "t": 346021.25470000436,
      "d": 246.37646666669752,
      "v": 88
    },
    {
      "midi": 67,
      "hit": false,
      "t": 346021.25470000436,
      "d": 775.3612333334167,
      "v": 87
    },
    {
      "midi": 63,
      "hit": false,
      "t": 346028.50106667104,
      "d": 891.3031000000774,
      "v": 85
    },
    {
      "midi": 46,
      "hit": false,
      "t": 346571.9785666711,
      "d": 101.44913333334262,
      "v": 56
    },
    {
      "midi": 63,
      "hit": false,
      "t": 347129.94880000444,
      "d": 485.50656666670693,
      "v": 47
    },
    {
      "midi": 67,
      "hit": false,
      "t": 347137.1951666711,
      "d": 586.9557000000495,
      "v": 58
    },
    {
      "midi": 74,
      "hit": false,
      "t": 347644.44083333784,
      "d": 246.37646666663932,
      "v": 72
    },
    {
      "midi": 46,
      "hit": false,
      "t": 347651.6872000045,
      "d": 202.89826666662702,
      "v": 46
    },
    {
      "midi": 72,
      "hit": false,
      "t": 348144.4401333378,
      "d": 572.4629666666733,
      "v": 76
    },
    {
      "midi": 68,
      "hit": false,
      "t": 348158.9328666711,
      "d": 536.2311333333491,
      "v": 73
    },
    {
      "midi": 56,
      "hit": false,
      "t": 348180.6719666711,
      "d": 550.7238666666672,
      "v": 34
    },
    {
      "midi": 67,
      "hit": false,
      "t": 348180.6719666711,
      "d": 557.9702333333553,
      "v": 70
    },
    {
      "midi": 46,
      "hit": false,
      "t": 348680.67126667115,
      "d": 775.3612333333003,
      "v": 44
    },
    {
      "midi": 67,
      "hit": false,
      "t": 349245.88786667114,
      "d": 268.11556666664546,
      "v": 49
    },
    {
      "midi": 63,
      "hit": false,
      "t": 349245.88786667114,
      "d": 282.6082999999635,
      "v": 36
    },
    {
      "midi": 60,
      "hit": false,
      "t": 349260.38060000446,
      "d": 210.14463333331514,
      "v": 39
    },
    {
      "midi": 56,
      "hit": false,
      "t": 349260.38060000446,
      "d": 565.2166000000434,
      "v": 25
    },
    {
      "midi": 46,
      "hit": false,
      "t": 349753.1335333378,
      "d": 123.18823333334876,
      "v": 36
    },
    {
      "midi": 72,
      "hit": false,
      "t": 349760.3799000045,
      "d": 282.6083000000217,
      "v": 71
    },
    {
      "midi": 40,
      "hit": false,
      "t": 350260.3792000045,
      "d": 666.665733333386,
      "v": 43
    },
    {
      "midi": 62,
      "hit": false,
      "t": 350303.8574000045,
      "d": 442.02836666669464,
      "v": 68
    },
    {
      "midi": 67,
      "hit": false,
      "t": 350311.1037666712,
      "d": 384.0574333333643,
      "v": 66
    },
    {
      "midi": 71,
      "hit": false,
      "t": 350311.1037666712,
      "d": 456.52110000001267,
      "v": 61
    },
    {
      "midi": 47,
      "hit": false,
      "t": 350796.6103333379,
      "d": 775.3612333333585,
      "v": 46
    },
    {
      "midi": 67,
      "hit": false,
      "t": 351311.1023666712,
      "d": 94.2027666667127,
      "v": 46
    },
    {
      "midi": 59,
      "hit": false,
      "t": 351318.3487333379,
      "d": 101.44913333334262,
      "v": 51
    },
    {
      "midi": 62,
      "hit": false,
      "t": 351325.5951000046,
      "d": 123.18823333334876,
      "v": 47
    },
    {
      "midi": 55,
      "hit": false,
      "t": 351332.84146667126,
      "d": 413.0429000000004,
      "v": 28
    },
    {
      "midi": 71,
      "hit": false,
      "t": 351832.8407666713,
      "d": 144.9273333333549,
      "v": 65
    },
    {
      "midi": 64,
      "hit": false,
      "t": 351883.56533333793,
      "d": 86.95640000002459,
      "v": 29
    },
    {
      "midi": 66,
      "hit": false,
      "t": 352332.8400666713,
      "d": 724.6366666667745,
      "v": 46
    },
    {
      "midi": 61,
      "hit": false,
      "t": 352332.8400666713,
      "d": 746.3757666667807,
      "v": 50
    },
    {
      "midi": 70,
      "hit": false,
      "t": 352340.086433338,
      "d": 1028.9840666667442,
      "v": 43
    },
    {
      "midi": 55,
      "hit": false,
      "t": 352347.3328000047,
      "d": 608.6948000000557,
      "v": 51
    },
    {
      "midi": 45,
      "hit": false,
      "t": 352354.5791666714,
      "d": 384.0574333333643,
      "v": 42
    },
    {
      "midi": 45,
      "hit": false,
      "t": 352861.8248333381,
      "d": 782.6075999999885,
      "v": 41
    },
    {
      "midi": 66,
      "hit": false,
      "t": 353369.07050000475,
      "d": 862.3176333333831,
      "v": 46
    },
    {
      "midi": 61,
      "hit": false,
      "t": 353376.31686667143,
      "d": 876.8103666667012,
      "v": 34
    },
    {
      "midi": 55,
      "hit": false,
      "t": 353398.05596667144,
      "d": 710.1439333333401,
      "v": 44
    },
    {
      "midi": 45,
      "hit": false,
      "t": 353919.7943666714,
      "d": 166.66643333336106,
      "v": 40
    },
    {
      "midi": 45,
      "hit": false,
      "t": 354238.6345000048,
      "d": 57.97093333333032,
      "v": 44
    },
    {
      "midi": 44,
      "hit": false,
      "t": 354477.7646000048,
      "d": 340.579233333352,
      "v": 54
    },
    {
      "midi": 63,
      "hit": false,
      "t": 354477.7646000048,
      "d": 347.82560000004014,
      "v": 34
    },
    {
      "midi": 67,
      "hit": false,
      "t": 354477.7646000048,
      "d": 347.82560000004014,
      "v": 42
    },
    {
      "midi": 60,
      "hit": false,
      "t": 354485.0109666715,
      "d": 217.39100000000326,
      "v": 36
    },
    {
      "midi": 55,
      "hit": false,
      "t": 354499.5037000049,
      "d": 369.5646999999881,
      "v": 44
    },
    {
      "midi": 63,
      "hit": false,
      "t": 355535.7341333382,
      "d": 376.8110666666762,
      "v": 40
    },
    {
      "midi": 60,
      "hit": false,
      "t": 355564.7196000049,
      "d": 362.31833333329996,
      "v": 48
    },
    {
      "midi": 56,
      "hit": false,
      "t": 355579.2123333382,
      "d": 398.55016666662414,
      "v": 34
    },
    {
      "midi": 77,
      "hit": false,
      "t": 355861.82063333824,
      "d": 181.15916666662088,
      "v": 96
    },
    {
      "midi": 84,
      "hit": false,
      "t": 356216.89260000485,
      "d": 130.43459999997867,
      "v": 101
    },
    {
      "midi": 82,
      "hit": false,
      "t": 356593.70366667147,
      "d": 463.767466666759,
      "v": 71
    },
    {
      "midi": 74,
      "hit": false,
      "t": 356608.1964000048,
      "d": 471.0138333334471,
      "v": 65
    },
    {
      "midi": 70,
      "hit": false,
      "t": 356615.4427666715,
      "d": 478.260200000077,
      "v": 55
    },
    {
      "midi": 62,
      "hit": false,
      "t": 356622.68913333816,
      "d": 550.7238666667836,
      "v": 48
    },
    {
      "midi": 65,
      "hit": false,
      "t": 356629.93550000485,
      "d": 507.2456666667131,
      "v": 48
    },
    {
      "midi": 55,
      "hit": false,
      "t": 356637.18186667154,
      "d": 579.7093333334196,
      "v": 41
    },
    {
      "midi": 58,
      "hit": false,
      "t": 356651.67460000486,
      "d": 594.2020666667959,
      "v": 33
    },
    {
      "midi": 80,
      "hit": false,
      "t": 357129.9348000049,
      "d": 166.66643333347747,
      "v": 44
    },
    {
      "midi": 79,
      "hit": false,
      "t": 357166.16663333826,
      "d": 86.9564000000828,
      "v": 57
    },
    {
      "midi": 54,
      "hit": false,
      "t": 357680.65866667166,
      "d": 739.1294000000344,
      "v": 36
    },
    {
      "midi": 75,
      "hit": false,
      "t": 357687.90503333835,
      "d": 275.3619333333336,
      "v": 57
    },
    {
      "midi": 72,
      "hit": false,
      "t": 357702.39776667167,
      "d": 391.30380000005243,
      "v": 35
    },
    {
      "midi": 68,
      "hit": false,
      "t": 357702.39776667167,
      "d": 659.4193666666979,
      "v": 42
    },
    {
      "midi": 58,
      "hit": false,
      "t": 357709.64413333836,
      "d": 688.404833333334,
      "v": 37
    },
    {
      "midi": 64,
      "hit": false,
      "t": 357716.89050000504,
      "d": 572.4629666666733,
      "v": 38
    },
    {
      "midi": 62,
      "hit": false,
      "t": 357731.38323333836,
      "d": 86.95640000002459,
      "v": 24
    },
    {
      "midi": 75,
      "hit": false,
      "t": 358086.45520000503,
      "d": 275.3619333333336,
      "v": 63
    },
    {
      "midi": 72,
      "hit": false,
      "t": 358427.0344333384,
      "d": 195.6518999999971,
      "v": 33
    },
    {
      "midi": 75,
      "hit": false,
      "t": 358753.12093333836,
      "d": 1065.215899999952,
      "v": 46
    },
    {
      "midi": 69,
      "hit": false,
      "t": 358760.36730000505,
      "d": 695.6511999999639,
      "v": 54
    },
    {
      "midi": 71,
      "hit": false,
      "t": 358774.86003333837,
      "d": 855.0712666666368,
      "v": 57
    },
    {
      "midi": 63,
      "hit": false,
      "t": 358789.3527666717,
      "d": 471.0138333333307,
      "v": 33
    },
    {
      "midi": 53,
      "hit": false,
      "t": 358811.0918666717,
      "d": 2644.923833333596,
      "v": 32
    },
    {
      "midi": 60,
      "hit": false,
      "t": 359318.33753333834,
      "d": 557.9702333333553,
      "v": 35
    },
    {
      "midi": 72,
      "hit": false,
      "t": 359854.56866667164,
      "d": 543.4775000000955,
      "v": 50
    },
    {
      "midi": 69,
      "hit": false,
      "t": 359861.8150333383,
      "d": 514.4920333334012,
      "v": 53
    },
    {
      "midi": 63,
      "hit": false,
      "t": 359869.061400005,
      "d": 695.6512000000803,
      "v": 37
    },
    {
      "midi": 60,
      "hit": false,
      "t": 360383.5534333384,
      "d": 514.4920333334012,
      "v": 53
    },
    {
      "midi": 73,
      "hit": false,
      "t": 360651.6690000051,
      "d": 173.91279999999097,
      "v": 61
    },
    {
      "midi": 70,
      "hit": false,
      "t": 360651.6690000051,
      "d": 181.15916666667908,
      "v": 78
    },
    {
      "midi": 74,
      "hit": false,
      "t": 360905.2918333385,
      "d": 115.94186666671885,
      "v": 73
    },
    {
      "midi": 71,
      "hit": false,
      "t": 360912.5382000052,
      "d": 123.18823333334876,
      "v": 80
    },
    {
      "midi": 63,
      "hit": false,
      "t": 360912.5382000052,
      "d": 362.3183333334164,
      "v": 47
    },
    {
      "midi": 66,
      "hit": false,
      "t": 361180.6537666719,
      "d": 202.89826666668523,
      "v": 73
    },
    {
      "midi": 70,
      "hit": false,
      "t": 361187.9001333386,
      "d": 217.39100000000326,
      "v": 52
    },
    {
      "midi": 71,
      "hit": false,
      "t": 361427.0302333386,
      "d": 224.63736666669138,
      "v": 55
    },
    {
      "midi": 67,
      "hit": false,
      "t": 361448.7693333386,
      "d": 202.89826666668523,
      "v": 45
    },
    {
      "midi": 62,
      "hit": false,
      "t": 361724.131266672,
      "d": 166.66643333336106,
      "v": 45
    },
    {
      "midi": 53,
      "hit": false,
      "t": 361724.131266672,
      "d": 304.34739999996964,
      "v": 48
    },
    {
      "midi": 62,
      "hit": false,
      "t": 361992.24683333864,
      "d": 181.15916666667908,
      "v": 63
    },
    {
      "midi": 67,
      "hit": false,
      "t": 361992.24683333864,
      "d": 188.4055333333672,
      "v": 62
    },
    {
      "midi": 67,
      "hit": false,
      "t": 362253.1160333387,
      "d": 673.9121000000159,
      "v": 46
    },
    {
      "midi": 62,
      "hit": false,
      "t": 362274.8551333387,
      "d": 326.086500000034,
      "v": 63
    },
    {
      "midi": 48,
      "hit": false,
      "t": 362535.72433333873,
      "d": 246.37646666669752,
      "v": 32
    },
    {
      "midi": 59,
      "hit": false,
      "t": 362542.9707000054,
      "d": 239.1301000000094,
      "v": 33
    },
    {
      "midi": 41,
      "hit": false,
      "t": 362796.59353333875,
      "d": 137.6809666666668,
      "v": 35
    },
    {
      "midi": 56,
      "hit": false,
      "t": 363064.7091000054,
      "d": 318.8401333334041,
      "v": 39
    },
    {
      "midi": 63,
      "hit": false,
      "t": 363071.9554666721,
      "d": 333.3328666667221,
      "v": 35
    },
    {
      "midi": 60,
      "hit": false,
      "t": 363079.20183333877,
      "d": 333.3328666667221,
      "v": 53
    },
    {
      "midi": 46,
      "hit": false,
      "t": 363079.20183333877,
      "d": 572.4629666667315,
      "v": 51
    },
    {
      "midi": 63,
      "hit": false,
      "t": 363745.86756667215,
      "d": 246.37646666669752,
      "v": 33
    },
    {
      "midi": 60,
      "hit": false,
      "t": 363753.11393333884,
      "d": 166.66643333336106,
      "v": 47
    },
    {
      "midi": 65,
      "hit": false,
      "t": 364477.7506000055,
      "d": 188.405533333309,
      "v": 58
    },
    {
      "midi": 60,
      "hit": false,
      "t": 364492.2433333388,
      "d": 144.9273333332967,
      "v": 48
    },
    {
      "midi": 63,
      "hit": false,
      "t": 364796.5907333388,
      "d": 195.6518999999971,
      "v": 36
    },
    {
      "midi": 59,
      "hit": false,
      "t": 365108.18450000545,
      "d": 57.97093333338853,
      "v": 45
    },
    {
      "midi": 62,
      "hit": false,
      "t": 365129.92360000545,
      "d": 86.95640000002459,
      "v": 38
    },
    {
      "midi": 46,
      "hit": false,
      "t": 365137.16996667214,
      "d": 130.43459999997867,
      "v": 26
    },
    {
      "midi": 56,
      "hit": false,
      "t": 365166.15543333883,
      "d": 65.21729999996023,
      "v": 13
    },
    {
      "midi": 80,
      "hit": false,
      "t": 365564.70560000546,
      "d": 231.8837333333213,
      "v": 51
    },
    {
      "midi": 68,
      "hit": false,
      "t": 365579.1983333388,
      "d": 166.66643333336106,
      "v": 25
    },
    {
      "midi": 67,
      "hit": false,
      "t": 366180.6467666721,
      "d": 94.2027666666545,
      "v": 35
    },
    {
      "midi": 56,
      "hit": false,
      "t": 366187.8931333388,
      "d": 144.9273333333549,
      "v": 29
    },
    {
      "midi": 62,
      "hit": false,
      "t": 366202.3858666721,
      "d": 101.44913333334262,
      "v": 47
    },
    {
      "midi": 72,
      "hit": false,
      "t": 366876.2979666721,
      "d": 72.46366666670656,
      "v": 28
    },
    {
      "midi": 74,
      "hit": false,
      "t": 367042.96440000547,
      "d": 86.95640000002459,
      "v": 60
    },
    {
      "midi": 75,
      "hit": false,
      "t": 367216.8772000055,
      "d": 101.44913333334262,
      "v": 67
    },
    {
      "midi": 46,
      "hit": false,
      "t": 367253.10903333884,
      "d": 108.69550000003073,
      "v": 44
    },
    {
      "midi": 39,
      "hit": false,
      "t": 367260.35540000553,
      "d": 94.2027666666545,
      "v": 43
    },
    {
      "midi": 79,
      "hit": false,
      "t": 367528.47096667223,
      "d": 86.95640000002459,
      "v": 51
    },
    {
      "midi": 82,
      "hit": false,
      "t": 367767.60106667224,
      "d": 86.95640000002459,
      "v": 47
    },
    {
      "midi": 85,
      "hit": false,
      "t": 367999.4848000056,
      "d": 152.17370000004303,
      "v": 73
    },
    {
      "midi": 73,
      "hit": false,
      "t": 368006.7311666723,
      "d": 144.9273333333549,
      "v": 46
    },
    {
      "midi": 85,
      "hit": false,
      "t": 368267.6003666723,
      "d": 115.94186666671885,
      "v": 54
    },
    {
      "midi": 66,
      "hit": false,
      "t": 368274.846733339,
      "d": 79.71003333333647,
      "v": 52
    },
    {
      "midi": 73,
      "hit": false,
      "t": 368274.846733339,
      "d": 137.680966666725,
      "v": 36
    },
    {
      "midi": 62,
      "hit": false,
      "t": 368282.0931000057,
      "d": 130.43460000003688,
      "v": 59
    },
    {
      "midi": 85,
      "hit": false,
      "t": 368499.48410000576,
      "d": 123.18823333334876,
      "v": 64
    },
    {
      "midi": 73,
      "hit": false,
      "t": 368521.22320000577,
      "d": 79.71003333333647,
      "v": 19
    },
    {
      "midi": 82,
      "hit": false,
      "t": 368680.64326667244,
      "d": 43.47820000001229,
      "v": 35
    },
    {
      "midi": 85,
      "hit": false,
      "t": 368818.3242333391,
      "d": 108.69550000003073,
      "v": 64
    },
    {
      "midi": 73,
      "hit": false,
      "t": 368825.5706000058,
      "d": 79.71003333333647,
      "v": 44
    },
    {
      "midi": 56,
      "hit": false,
      "t": 369245.8598666725,
      "d": 195.6518999999971,
      "v": 34
    },
    {
      "midi": 46,
      "hit": false,
      "t": 369260.3526000058,
      "d": 188.4055333333672,
      "v": 31
    },
    {
      "midi": 66,
      "hit": false,
      "t": 370369.0467000058,
      "d": 86.95640000002459,
      "v": 50
    },
    {
      "midi": 62,
      "hit": false,
      "t": 370383.53943333915,
      "d": 101.44913333334262,
      "v": 55
    },
    {
      "midi": 56,
      "hit": false,
      "t": 370390.78580000583,
      "d": 79.71003333333647,
      "v": 35
    },
    {
      "midi": 86,
      "hit": false,
      "t": 370615.42316667247,
      "d": 369.5646999999881,
      "v": 75
    },
    {
      "midi": 87,
      "hit": false,
      "t": 370905.2778333391,
      "d": 166.66643333336106,
      "v": 35
    },
    {
      "midi": 88,
      "hit": false,
      "t": 371021.2197000058,
      "d": 50.72456666670041,
      "v": 53
    },
    {
      "midi": 89,
      "hit": false,
      "t": 371137.1615666725,
      "d": 195.6518999999971,
      "v": 78
    },
    {
      "midi": 86,
      "hit": false,
      "t": 371383.53803333914,
      "d": 398.55016666674055,
      "v": 81
    },
    {
      "midi": 39,
      "hit": false,
      "t": 371390.7844000058,
      "d": 297.1010333333397,
      "v": 42
    },
    {
      "midi": 46,
      "hit": false,
      "t": 371390.7844000058,
      "d": 340.579233333352,
      "v": 46
    },
    {
      "midi": 82,
      "hit": false,
      "t": 371760.3491000059,
      "d": 268.11556666664546,
      "v": 52
    },
    {
      "midi": 82,
      "hit": false,
      "t": 372477.73940000584,
      "d": 282.6083000000217,
      "v": 49
    },
    {
      "midi": 62,
      "hit": false,
      "t": 372477.73940000584,
      "d": 485.50656666670693,
      "v": 50
    },
    {
      "midi": 79,
      "hit": false,
      "t": 372484.98576667253,
      "d": 282.6083000000217,
      "v": 50
    },
    {
      "midi": 58,
      "hit": false,
      "t": 372499.47850000585,
      "d": 442.02836666669464,
      "v": 42
    },
    {
      "midi": 58,
      "hit": false,
      "t": 373028.46326667257,
      "d": 557.9702333333553,
      "v": 80
    },
    {
      "midi": 67,
      "hit": false,
      "t": 373557.4480333392,
      "d": 942.0276666667196,
      "v": 74
    },
    {
      "midi": 63,
      "hit": false,
      "t": 373564.6944000059,
      "d": 913.0422000000253,
      "v": 65
    },
    {
      "midi": 62,
      "hit": false,
      "t": 373571.9407666726,
      "d": 876.810366666643,
      "v": 69
    },
    {
      "midi": 55,
      "hit": false,
      "t": 374071.94006667257,
      "d": 282.6083000000217,
      "v": 88
    },
    {
      "midi": 67,
      "hit": false,
      "t": 374629.9103000059,
      "d": 210.14463333337335,
      "v": 71
    },
    {
      "midi": 63,
      "hit": false,
      "t": 374637.1566666726,
      "d": 304.34740000002785,
      "v": 60
    },
    {
      "midi": 62,
      "hit": false,
      "t": 374644.4030333393,
      "d": 268.11556666664546,
      "v": 80
    },
    {
      "midi": 37,
      "hit": false,
      "t": 375129.90960000595,
      "d": 159.42006666667294,
      "v": 53
    },
    {
      "midi": 49,
      "hit": false,
      "t": 375137.15596667264,
      "d": 137.6809666666668,
      "v": 37
    },
    {
      "midi": 58,
      "hit": false,
      "t": 375637.1552666726,
      "d": 159.42006666673115,
      "v": 45
    },
    {
      "midi": 63,
      "hit": false,
      "t": 375644.4016333393,
      "d": 231.8837333333795,
      "v": 46
    },
    {
      "midi": 48,
      "hit": false,
      "t": 375651.648000006,
      "d": 304.34740000002785,
      "v": 44
    },
    {
      "midi": 36,
      "hit": false,
      "t": 375666.1407333393,
      "d": 239.1301000000676,
      "v": 38
    },
    {
      "midi": 87,
      "hit": false,
      "t": 376180.6327666727,
      "d": 152.17370000004303,
      "v": 67
    },
    {
      "midi": 75,
      "hit": false,
      "t": 376187.8791333394,
      "d": 101.44913333334262,
      "v": 55
    },
    {
      "midi": 87,
      "hit": false,
      "t": 376506.71926667274,
      "d": 115.94186666666064,
      "v": 71
    },
    {
      "midi": 75,
      "hit": false,
      "t": 376521.21200000605,
      "d": 86.95640000002459,
      "v": 59
    },
    {
      "midi": 87,
      "hit": false,
      "t": 376702.37116667273,
      "d": 210.14463333337335,
      "v": 53
    },
    {
      "midi": 67,
      "hit": false,
      "t": 376709.6175333394,
      "d": 50.72456666670041,
      "v": 48
    },
    {
      "midi": 62,
      "hit": false,
      "t": 376716.8639000061,
      "d": 79.71003333333647,
      "v": 54
    },
    {
      "midi": 63,
      "hit": false,
      "t": 376716.8639000061,
      "d": 86.95640000002459,
      "v": 34
    },
    {
      "midi": 75,
      "hit": false,
      "t": 376716.8639000061,
      "d": 144.9273333333549,
      "v": 43
    },
    {
      "midi": 58,
      "hit": false,
      "t": 376731.3566333394,
      "d": 86.95640000002459,
      "v": 23
    },
    {
      "midi": 86,
      "hit": false,
      "t": 377021.2113000061,
      "d": 108.69549999997253,
      "v": 51
    },
    {
      "midi": 87,
      "hit": false,
      "t": 377209.6168333394,
      "d": 152.17369999998482,
      "v": 62
    },
    {
      "midi": 75,
      "hit": false,
      "t": 377224.1095666727,
      "d": 159.42006666667294,
      "v": 33
    },
    {
      "midi": 87,
      "hit": false,
      "t": 377506.7178666727,
      "d": 108.69550000003073,
      "v": 60
    },
    {
      "midi": 75,
      "hit": false,
      "t": 377513.9642333394,
      "d": 108.69550000003073,
      "v": 44
    },
    {
      "midi": 47,
      "hit": false,
      "t": 377702.3697666728,
      "d": 253.62283333332743,
      "v": 43
    },
    {
      "midi": 35,
      "hit": false,
      "t": 377709.61613333947,
      "d": 173.91279999999097,
      "v": 50
    },
    {
      "midi": 87,
      "hit": false,
      "t": 377709.61613333947,
      "d": 231.8837333333213,
      "v": 47
    },
    {
      "midi": 75,
      "hit": false,
      "t": 377709.61613333947,
      "d": 246.37646666663932,
      "v": 37
    },
    {
      "midi": 87,
      "hit": false,
      "t": 378013.96353333944,
      "d": 137.6809666666668,
      "v": 57
    },
    {
      "midi": 75,
      "hit": false,
      "t": 378035.70263333945,
      "d": 94.2027666666545,
      "v": 40
    },
    {
      "midi": 87,
      "hit": false,
      "t": 378224.10816667276,
      "d": 130.43460000003688,
      "v": 49
    },
    {
      "midi": 75,
      "hit": false,
      "t": 378238.6009000061,
      "d": 86.95640000002459,
      "v": 25
    },
    {
      "midi": 87,
      "hit": false,
      "t": 378521.20920000615,
      "d": 123.18823333334876,
      "v": 77
    },
    {
      "midi": 75,
      "hit": false,
      "t": 378535.7019333395,
      "d": 86.95640000002459,
      "v": 69
    },
    {
      "midi": 66,
      "hit": false,
      "t": 378709.6147333395,
      "d": 159.42006666667294,
      "v": 87
    },
    {
      "midi": 57,
      "hit": false,
      "t": 378724.10746667284,
      "d": 144.9273333333549,
      "v": 74
    },
    {
      "midi": 61,
      "hit": false,
      "t": 378724.10746667284,
      "d": 188.4055333333672,
      "v": 71
    },
    {
      "midi": 63,
      "hit": false,
      "t": 378724.10746667284,
      "d": 210.14463333337335,
      "v": 67
    },
    {
      "midi": 87,
      "hit": false,
      "t": 378724.10746667284,
      "d": 253.62283333338564,
      "v": 79
    },
    {
      "midi": 75,
      "hit": false,
      "t": 378731.3538333395,
      "d": 268.11556666670367,
      "v": 82
    },
    {
      "midi": 82,
      "hit": false,
      "t": 378731.3538333395,
      "d": 275.3619333333918,
      "v": 77
    },
    {
      "midi": 86,
      "hit": false,
      "t": 379064.68670000625,
      "d": 123.18823333334876,
      "v": 54
    },
    {
      "midi": 87,
      "hit": false,
      "t": 379260.33860000625,
      "d": 123.18823333334876,
      "v": 61
    },
    {
      "midi": 75,
      "hit": false,
      "t": 379267.58496667293,
      "d": 115.94186666666064,
      "v": 42
    },
    {
      "midi": 87,
      "hit": false,
      "t": 379571.9323666729,
      "d": 115.94186666666064,
      "v": 57
    },
    {
      "midi": 75,
      "hit": false,
      "t": 379579.1787333396,
      "d": 94.2027666666545,
      "v": 46
    },
    {
      "midi": 82,
      "hit": false,
      "t": 379615.4105666729,
      "d": 94.2027666666545,
      "v": 33
    },
    {
      "midi": 46,
      "hit": false,
      "t": 379774.8306333396,
      "d": 152.17369999998482,
      "v": 45
    },
    {
      "midi": 56,
      "hit": false,
      "t": 379774.8306333396,
      "d": 181.15916666667908,
      "v": 40
    },
    {
      "midi": 82,
      "hit": false,
      "t": 379789.3233666729,
      "d": 123.18823333334876,
      "v": 34
    },
    {
      "midi": 77,
      "hit": false,
      "t": 379789.3233666729,
      "d": 159.42006666667294,
      "v": 50
    },
    {
      "midi": 89,
      "hit": false,
      "t": 379796.5697333396,
      "d": 137.6809666666668,
      "v": 42
    },
    {
      "midi": 89,
      "hit": false,
      "t": 380064.68530000624,
      "d": 86.95640000002459,
      "v": 48
    },
    {
      "midi": 77,
      "hit": false,
      "t": 380071.9316666729,
      "d": 94.2027666666545,
      "v": 48
    },
    {
      "midi": 82,
      "hit": false,
      "t": 380093.67076667293,
      "d": 108.69550000003073,
      "v": 42
    },
    {
      "midi": 82,
      "hit": false,
      "t": 380274.8299333396,
      "d": 130.43460000003688,
      "v": 30
    },
    {
      "midi": 87,
      "hit": false,
      "t": 380274.8299333396,
      "d": 188.4055333333672,
      "v": 35
    },
    {
      "midi": 75,
      "hit": false,
      "t": 380282.0763000063,
      "d": 144.9273333333549,
      "v": 35
    },
    {
      "midi": 87,
      "hit": false,
      "t": 380564.6846000063,
      "d": 108.69549999997253,
      "v": 55
    },
    {
      "midi": 75,
      "hit": false,
      "t": 380579.17733333964,
      "d": 101.44913333334262,
      "v": 38
    },
    {
      "midi": 82,
      "hit": false,
      "t": 380600.91643333965,
      "d": 108.69550000003073,
      "v": 42
    },
    {
      "midi": 85,
      "hit": false,
      "t": 380782.0756000063,
      "d": 297.1010333333397,
      "v": 30
    },
    {
      "midi": 65,
      "hit": false,
      "t": 380782.0756000063,
      "d": 746.3757666666643,
      "v": 28
    },
    {
      "midi": 61,
      "hit": false,
      "t": 380782.0756000063,
      "d": 833.3321666666889,
      "v": 35
    },
    {
      "midi": 56,
      "hit": false,
      "t": 380789.321966673,
      "d": 905.7958333333954,
      "v": 21
    },
    {
      "midi": 60,
      "hit": false,
      "t": 380796.5683333397,
      "d": 681.1584666666458,
      "v": 32
    },
    {
      "midi": 73,
      "hit": false,
      "t": 380811.061066673,
      "d": 289.8546666666516,
      "v": 14
    },
    {
      "midi": 80,
      "hit": false,
      "t": 380825.55380000634,
      "d": 268.11556666664546,
      "v": 27
    },
    {
      "midi": 85,
      "hit": false,
      "t": 381289.321266673,
      "d": 369.5647000000463,
      "v": 65
    },
    {
      "midi": 73,
      "hit": false,
      "t": 381296.56763333967,
      "d": 391.30380000005243,
      "v": 46
    },
    {
      "midi": 80,
      "hit": false,
      "t": 381318.3067333397,
      "d": 304.34740000002785,
      "v": 47
    },
    {
      "midi": 84,
      "hit": false,
      "t": 381803.81330000644,
      "d": 297.10103333339794,
      "v": 55
    },
    {
      "midi": 61,
      "hit": false,
      "t": 381803.81330000644,
      "d": 311.59376666671596,
      "v": 34
    },
    {
      "midi": 72,
      "hit": false,
      "t": 381811.0596666731,
      "d": 362.31833333335817,
      "v": 42
    },
    {
      "midi": 64,
      "hit": false,
      "t": 381818.3060333398,
      "d": 268.11556666670367,
      "v": 30
    },
    {
      "midi": 79,
      "hit": false,
      "t": 381818.3060333398,
      "d": 297.1010333333397,
      "v": 51
    },
    {
      "midi": 55,
      "hit": false,
      "t": 381818.3060333398,
      "d": 311.59376666665776,
      "v": 43
    },
    {
      "midi": 82,
      "hit": false,
      "t": 382332.79806667316,
      "d": 173.91280000004917,
      "v": 55
    },
    {
      "midi": 70,
      "hit": false,
      "t": 382354.53716667317,
      "d": 181.1591666667373,
      "v": 60
    },
    {
      "midi": 79,
      "hit": false,
      "t": 382361.78353333985,
      "d": 115.94186666666064,
      "v": 44
    },
    {
      "midi": 75,
      "hit": false,
      "t": 382361.78353333985,
      "d": 144.9273333333549,
      "v": 46
    },
    {
      "midi": 59,
      "hit": false,
      "t": 382832.79736667324,
      "d": 442.02836666675285,
      "v": 62
    },
    {
      "midi": 61,
      "hit": false,
      "t": 382840.04373333993,
      "d": 427.5356333333766,
      "v": 32
    },
    {
      "midi": 45,
      "hit": false,
      "t": 382861.78283333994,
      "d": 405.79653333337046,
      "v": 53
    },
    {
      "midi": 64,
      "hit": false,
      "t": 382963.2319666733,
      "d": 362.31833333335817,
      "v": 34
    },
    {
      "midi": 61,
      "hit": false,
      "t": 383354.53576667333,
      "d": 326.0864999999758,
      "v": 45
    },
    {
      "midi": 45,
      "hit": false,
      "t": 383390.76760000666,
      "d": 152.17369999998482,
      "v": 35
    },
    {
      "midi": 55,
      "hit": false,
      "t": 383390.76760000666,
      "d": 289.8546666666516,
      "v": 53
    },
    {
      "midi": 59,
      "hit": false,
      "t": 383398.01396667334,
      "d": 130.43459999997867,
      "v": 31
    },
    {
      "midi": 44,
      "hit": false,
      "t": 383898.0132666733,
      "d": 898.5494666667655,
      "v": 44
    },
    {
      "midi": 51,
      "hit": false,
      "t": 383912.50600000663,
      "d": 152.17370000010123,
      "v": 35
    },
    {
      "midi": 58,
      "hit": false,
      "t": 383919.7523666733,
      "d": 123.18823333340697,
      "v": 49
    },
    {
      "midi": 60,
      "hit": false,
      "t": 383926.99873334,
      "d": 86.95640000002459,
      "v": 52
    },
    {
      "midi": 55,
      "hit": false,
      "t": 383934.2451000067,
      "d": 101.44913333334262,
      "v": 49
    },
    {
      "midi": 48,
      "hit": false,
      "t": 384289.3170666734,
      "d": 57.97093333333032,
      "v": 46
    },
    {
      "midi": 51,
      "hit": false,
      "t": 384361.78073334007,
      "d": 115.94186666666064,
      "v": 44
    },
    {
      "midi": 55,
      "hit": false,
      "t": 384470.47623334004,
      "d": 94.2027666667127,
      "v": 47
    },
    {
      "midi": 58,
      "hit": false,
      "t": 384571.92536667344,
      "d": 101.44913333334262,
      "v": 62
    },
    {
      "midi": 55,
      "hit": false,
      "t": 384687.8672333401,
      "d": 57.97093333333032,
      "v": 69
    },
    {
      "midi": 51,
      "hit": false,
      "t": 384782.07000000676,
      "d": 405.79653333331225,
      "v": 28
    },
    {
      "midi": 56,
      "hit": false,
      "t": 384832.7945666734,
      "d": 79.71003333333647,
      "v": 20
    },
    {
      "midi": 58,
      "hit": false,
      "t": 384926.99733334006,
      "d": 65.21730000001844,
      "v": 43
    },
    {
      "midi": 60,
      "hit": false,
      "t": 385079.1710333401,
      "d": 123.18823333329055,
      "v": 38
    },
    {
      "midi": 62,
      "hit": false,
      "t": 385303.80840000673,
      "d": 79.71003333333647,
      "v": 64
    },
    {
      "midi": 63,
      "hit": false,
      "t": 385455.9821000067,
      "d": 65.21730000001844,
      "v": 59
    },
    {
      "midi": 65,
      "hit": false,
      "t": 385586.41670000675,
      "d": 123.18823333334876,
      "v": 53
    },
    {
      "midi": 67,
      "hit": false,
      "t": 385716.8513000068,
      "d": 115.94186666666064,
      "v": 59
    },
    {
      "midi": 68,
      "hit": false,
      "t": 385840.03953334014,
      "d": 101.44913333334262,
      "v": 42
    },
    {
      "midi": 55,
      "hit": false,
      "t": 385919.7495666735,
      "d": 72.46366666670656,
      "v": 22
    },
    {
      "midi": 70,
      "hit": false,
      "t": 385963.2277666735,
      "d": 115.94186666671885,
      "v": 54
    },
    {
      "midi": 72,
      "hit": false,
      "t": 386173.37240000686,
      "d": 79.71003333333647,
      "v": 48
    },
    {
      "midi": 73,
      "hit": false,
      "t": 386390.76340000686,
      "d": 72.46366666664835,
      "v": 42
    },
    {
      "midi": 75,
      "hit": false,
      "t": 386629.8935000068,
      "d": 123.18823333334876,
      "v": 64
    },
    {
      "midi": 63,
      "hit": false,
      "t": 386861.77723334014,
      "d": 94.2027666666545,
      "v": 47
    },
    {
      "midi": 77,
      "hit": false,
      "t": 386883.51633334014,
      "d": 123.18823333334876,
      "v": 54
    },
    {
      "midi": 60,
      "hit": false,
      "t": 386898.00906667346,
      "d": 57.97093333333032,
      "v": 32
    },
    {
      "midi": 56,
      "hit": false,
      "t": 386898.00906667346,
      "d": 101.44913333334262,
      "v": 25
    },
    {
      "midi": 79,
      "hit": false,
      "t": 387144.38553334016,
      "d": 94.2027666667127,
      "v": 48
    },
    {
      "midi": 80,
      "hit": false,
      "t": 387361.7765333402,
      "d": 108.69549999997253,
      "v": 48
    },
    {
      "midi": 82,
      "hit": false,
      "t": 387600.9066333402,
      "d": 144.9273333333549,
      "v": 56
    },
    {
      "midi": 43,
      "hit": false,
      "t": 387847.28310000687,
      "d": 50.72456666670041,
      "v": 50
    },
    {
      "midi": 55,
      "hit": false,
      "t": 387861.7758333402,
      "d": 50.72456666670041,
      "v": 46
    },
    {
      "midi": 84,
      "hit": false,
      "t": 387861.7758333402,
      "d": 79.71003333339468,
      "v": 36
    },
    {
      "midi": 72,
      "hit": false,
      "t": 387861.7758333402,
      "d": 108.69550000008894,
      "v": 31
    },
    {
      "midi": 85,
      "hit": false,
      "t": 388129.89140000695,
      "d": 86.95640000002459,
      "v": 45
    },
    {
      "midi": 73,
      "hit": false,
      "t": 388129.89140000695,
      "d": 94.2027666667127,
      "v": 28
    },
    {
      "midi": 87,
      "hit": false,
      "t": 388369.021500007,
      "d": 94.2027666667127,
      "v": 71
    },
    {
      "midi": 75,
      "hit": false,
      "t": 388376.2678666737,
      "d": 86.95640000002459,
      "v": 53
    },
    {
      "midi": 85,
      "hit": false,
      "t": 388615.3979666738,
      "d": 115.94186666666064,
      "v": 69
    },
    {
      "midi": 73,
      "hit": false,
      "t": 388622.64433334046,
      "d": 144.9273333332967,
      "v": 57
    },
    {
      "midi": 61,
      "hit": false,
      "t": 388818.2962333404,
      "d": 94.20276666677091,
      "v": 40
    },
    {
      "midi": 53,
      "hit": false,
      "t": 388825.5426000071,
      "d": 94.20276666677091,
      "v": 38
    },
    {
      "midi": 84,
      "hit": false,
      "t": 388832.7889666738,
      "d": 137.6809666667832,
      "v": 63
    },
    {
      "midi": 72,
      "hit": false,
      "t": 388847.28170000715,
      "d": 115.94186666671885,
      "v": 49
    },
    {
      "midi": 55,
      "hit": false,
      "t": 388854.52806667384,
      "d": 57.97093333333032,
      "v": 44
    },
    {
      "midi": 82,
      "hit": false,
      "t": 389079.16543334053,
      "d": 239.1301000000094,
      "v": 64
    },
    {
      "midi": 80,
      "hit": false,
      "t": 389260.3246000072,
      "d": 108.69549999997253,
      "v": 47
    },
    {
      "midi": 78,
      "hit": false,
      "t": 389369.0201000072,
      "d": 86.95640000002459,
      "v": 37
    },
    {
      "midi": 76,
      "hit": false,
      "t": 389484.9619666739,
      "d": 50.724566666642204,
      "v": 43
    },
    {
      "midi": 75,
      "hit": false,
      "t": 389571.91836667387,
      "d": 72.46366666670656,
      "v": 38
    },
    {
      "midi": 74,
      "hit": false,
      "t": 389673.36750000727,
      "d": 108.69550000003073,
      "v": 34
    },
    {
      "midi": 58,
      "hit": false,
      "t": 389760.3239000073,
      "d": 94.2027666667127,
      "v": 27
    },
    {
      "midi": 48,
      "hit": false,
      "t": 389767.570266674,
      "d": 130.43460000003688,
      "v": 33
    },
    {
      "midi": 72,
      "hit": false,
      "t": 389818.2948333406,
      "d": 50.72456666670041,
      "v": 37
    },
    {
      "midi": 70,
      "hit": false,
      "t": 389948.72943334066,
      "d": 101.44913333334262,
      "v": 48
    },
    {
      "midi": 68,
      "hit": false,
      "t": 390042.9322000073,
      "d": 50.72456666670041,
      "v": 25
    },
    {
      "midi": 66,
      "hit": false,
      "t": 390093.656766674,
      "d": 57.97093333333032,
      "v": 51
    },
    {
      "midi": 64,
      "hit": false,
      "t": 390209.5986333407,
      "d": 43.47820000001229,
      "v": 40
    },
    {
      "midi": 62,
      "hit": false,
      "t": 390361.77233334066,
      "d": 94.2027666666545,
      "v": 31
    },
    {
      "midi": 61,
      "hit": false,
      "t": 390463.221466674,
      "d": 108.69549999997253,
      "v": 49
    },
    {
      "midi": 60,
      "hit": false,
      "t": 390593.656066674,
      "d": 36.231833333324175,
      "v": 48
    },
    {
      "midi": 58,
      "hit": false,
      "t": 390702.35156667395,
      "d": 137.6809666666668,
      "v": 55
    },
    {
      "midi": 48,
      "hit": false,
      "t": 390716.8443000073,
      "d": 57.97093333333032,
      "v": 34
    },
    {
      "midi": 56,
      "hit": false,
      "t": 390818.2934333406,
      "d": 115.94186666671885,
      "v": 51
    },
    {
      "midi": 54,
      "hit": false,
      "t": 390905.24983334064,
      "d": 115.94186666671885,
      "v": 49
    },
    {
      "midi": 52,
      "hit": false,
      "t": 391028.43806667405,
      "d": 101.44913333334262,
      "v": 53
    },
    {
      "midi": 51,
      "hit": false,
      "t": 391195.1045000074,
      "d": 108.69549999997253,
      "v": 42
    },
    {
      "midi": 50,
      "hit": false,
      "t": 391332.7854666741,
      "d": 57.97093333333032,
      "v": 32
    },
    {
      "midi": 49,
      "hit": false,
      "t": 391412.4955000074,
      "d": 94.2027666666545,
      "v": 53
    },
    {
      "midi": 48,
      "hit": false,
      "t": 391535.68373334076,
      "d": 36.231833333324175,
      "v": 34
    },
    {
      "midi": 47,
      "hit": false,
      "t": 391557.42283334077,
      "d": 108.69549999997253,
      "v": 57
    },
    {
      "midi": 44,
      "hit": false,
      "t": 391724.08926667407,
      "d": 217.39099999994505,
      "v": 74
    },
    {
      "midi": 41,
      "hit": false,
      "t": 391753.0747333407,
      "d": 376.811066666618,
      "v": 54
    },
    {
      "midi": 43,
      "hit": false,
      "t": 391825.53840000735,
      "d": 57.97093333333032,
      "v": 36
    },
    {
      "midi": 29,
      "hit": false,
      "t": 392021.19030000735,
      "d": 123.18823333329055,
      "v": 62
    },
    {
      "midi": 63,
      "hit": false,
      "t": 392840.02973334066,
      "d": 492.75293333339505,
      "v": 60
    },
    {
      "midi": 60,
      "hit": false,
      "t": 392847.27610000735,
      "d": 478.2602000000188,
      "v": 64
    },
    {
      "midi": 53,
      "hit": false,
      "t": 392847.27610000735,
      "d": 543.4775000000373,
      "v": 49
    },
    {
      "midi": 56,
      "hit": false,
      "t": 392854.52246667404,
      "d": 615.9411666666856,
      "v": 49
    },
    {
      "midi": 65,
      "hit": false,
      "t": 393151.6235000074,
      "d": 130.43459999997867,
      "v": 90
    },
    {
      "midi": 68,
      "hit": false,
      "t": 393347.2754000074,
      "d": 144.9273333333549,
      "v": 58
    },
    {
      "midi": 69,
      "hit": false,
      "t": 393361.7681333407,
      "d": 101.44913333334262,
      "v": 88
    },
    {
      "midi": 72,
      "hit": false,
      "t": 393542.9273000074,
      "d": 101.44913333334262,
      "v": 74
    },
    {
      "midi": 70,
      "hit": false,
      "t": 393745.82556667406,
      "d": 86.95640000002459,
      "v": 90
    },
    {
      "midi": 80,
      "hit": false,
      "t": 393753.07193334075,
      "d": 94.2027666666545,
      "v": 71
    },
    {
      "midi": 81,
      "hit": false,
      "t": 393774.81103334075,
      "d": 36.231833333324175,
      "v": 59
    },
    {
      "midi": 70,
      "hit": false,
      "t": 393970.46293334075,
      "d": 108.69550000003073,
      "v": 83
    },
    {
      "midi": 82,
      "hit": false,
      "t": 393970.46293334075,
      "d": 398.55016666674055,
      "v": 83
    },
    {
      "midi": 75,
      "hit": false,
      "t": 393977.70930000744,
      "d": 36.231833333324175,
      "v": 60
    },
    {
      "midi": 64,
      "hit": false,
      "t": 393992.20203334076,
      "d": 768.1148666667286,
      "v": 67
    },
    {
      "midi": 59,
      "hit": false,
      "t": 393992.20203334076,
      "d": 818.8394333333708,
      "v": 72
    },
    {
      "midi": 54,
      "hit": false,
      "t": 394006.6947666741,
      "d": 898.5494666667655,
      "v": 55
    },
    {
      "midi": 76,
      "hit": false,
      "t": 394028.4338666741,
      "d": 471.0138333333889,
      "v": 34
    },
    {
      "midi": 83,
      "hit": false,
      "t": 394042.9266000074,
      "d": 333.3328666667803,
      "v": 53
    },
    {
      "midi": 79,
      "hit": false,
      "t": 394064.6657000074,
      "d": 449.27473333338276,
      "v": 28
    },
    {
      "midi": 71,
      "hit": false,
      "t": 394071.9120666741,
      "d": 376.8110666667344,
      "v": 76
    },
    {
      "midi": 82,
      "hit": false,
      "t": 394651.62140000745,
      "d": 253.62283333338564,
      "v": 59
    },
    {
      "midi": 70,
      "hit": false,
      "t": 394658.86776667414,
      "d": 268.11556666670367,
      "v": 70
    },
    {
      "midi": 76,
      "hit": false,
      "t": 394680.60686667415,
      "d": 181.15916666667908,
      "v": 55
    },
    {
      "midi": 79,
      "hit": false,
      "t": 394702.34596667415,
      "d": 130.43459999997867,
      "v": 30
    },
    {
      "midi": 59,
      "hit": false,
      "t": 395122.63523334084,
      "d": 572.4629666667897,
      "v": 44
    },
    {
      "midi": 53,
      "hit": false,
      "t": 395129.88160000753,
      "d": 384.0574333334225,
      "v": 48
    },
    {
      "midi": 63,
      "hit": false,
      "t": 395129.88160000753,
      "d": 442.02836666675285,
      "v": 49
    },
    {
      "midi": 80,
      "hit": false,
      "t": 395137.1279666742,
      "d": 304.34740000002785,
      "v": 40
    },
    {
      "midi": 75,
      "hit": false,
      "t": 395144.3743333409,
      "d": 268.11556666664546,
      "v": 50
    },
    {
      "midi": 68,
      "hit": false,
      "t": 395158.8670666742,
      "d": 289.8546666667098,
      "v": 30
    },
    {
      "midi": 53,
      "hit": false,
      "t": 395803.7937000076,
      "d": 57.97093333333032,
      "v": 54
    },
    {
      "midi": 49,
      "hit": false,
      "t": 396267.56116667425,
      "d": 36.231833333324175,
      "v": 30
    },
    {
      "midi": 41,
      "hit": false,
      "t": 396629.87950000755,
      "d": 231.8837333333213,
      "v": 74
    },
    {
      "midi": 72,
      "hit": false,
      "t": 396637.12586667424,
      "d": 137.6809666666668,
      "v": 83
    },
    {
      "midi": 84,
      "hit": false,
      "t": 396637.12586667424,
      "d": 152.17369999998482,
      "v": 81
    },
    {
      "midi": 80,
      "hit": false,
      "t": 396637.12586667424,
      "d": 166.66643333330285,
      "v": 69
    },
    {
      "midi": 87,
      "hit": false,
      "t": 396948.7196333409,
      "d": 123.18823333334876,
      "v": 78
    },
    {
      "midi": 75,
      "hit": false,
      "t": 396948.7196333409,
      "d": 159.42006666667294,
      "v": 75
    },
    {
      "midi": 56,
      "hit": false,
      "t": 397311.03796667425,
      "d": 478.260200000077,
      "v": 44
    },
    {
      "midi": 60,
      "hit": false,
      "t": 397318.28433334094,
      "d": 333.3328666667221,
      "v": 55
    },
    {
      "midi": 65,
      "hit": false,
      "t": 397318.28433334094,
      "d": 391.30380000005243,
      "v": 48
    },
    {
      "midi": 61,
      "hit": false,
      "t": 397318.28433334094,
      "d": 420.2892666667467,
      "v": 37
    },
    {
      "midi": 89,
      "hit": false,
      "t": 397325.5307000076,
      "d": 210.14463333337335,
      "v": 71
    },
    {
      "midi": 77,
      "hit": false,
      "t": 397332.7770666743,
      "d": 268.11556666670367,
      "v": 56
    },
    {
      "midi": 84,
      "hit": false,
      "t": 397340.023433341,
      "d": 202.89826666668523,
      "v": 58
    },
    {
      "midi": 71,
      "hit": false,
      "t": 397934.2255000077,
      "d": 101.44913333340082,
      "v": 50
    },
    {
      "midi": 83,
      "hit": false,
      "t": 397934.2255000077,
      "d": 108.69550000008894,
      "v": 51
    },
    {
      "midi": 61,
      "hit": false,
      "t": 397934.2255000077,
      "d": 144.92733333341312,
      "v": 40
    },
    {
      "midi": 55,
      "hit": false,
      "t": 397963.2109666744,
      "d": 43.47820000001229,
      "v": 35
    },
    {
      "midi": 72,
      "hit": false,
      "t": 398311.0365666744,
      "d": 202.89826666668523,
      "v": 42
    },
    {
      "midi": 63,
      "hit": false,
      "t": 398318.2829333411,
      "d": 231.8837333333213,
      "v": 40
    },
    {
      "midi": 60,
      "hit": false,
      "t": 398318.2829333411,
      "d": 239.1301000000094,
      "v": 49
    },
    {
      "midi": 84,
      "hit": false,
      "t": 398325.5293000078,
      "d": 210.14463333331514,
      "v": 45
    },
    {
      "midi": 58,
      "hit": false,
      "t": 398340.0220333411,
      "d": 289.8546666666516,
      "v": 34
    },
    {
      "midi": 77,
      "hit": false,
      "t": 398354.51476667443,
      "d": 144.9273333333549,
      "v": 25
    },
    {
      "midi": 53,
      "hit": false,
      "t": 398354.51476667443,
      "d": 202.89826666668523,
      "v": 24
    },
    {
      "midi": 75,
      "hit": false,
      "t": 398695.0940000078,
      "d": 65.21730000001844,
      "v": 42
    },
    {
      "midi": 87,
      "hit": false,
      "t": 398702.34036667447,
      "d": 72.46366666664835,
      "v": 48
    },
    {
      "midi": 44,
      "hit": false,
      "t": 399332.7742666745,
      "d": 159.42006666667294,
      "v": 37
    },
    {
      "midi": 69,
      "hit": false,
      "t": 400325.52650000784,
      "d": 57.97093333333032,
      "v": 49
    },
    {
      "midi": 43,
      "hit": false,
      "t": 400340.01923334115,
      "d": 717.3903000000282,
      "v": 35
    },
    {
      "midi": 70,
      "hit": false,
      "t": 400361.75833334116,
      "d": 94.2027666666545,
      "v": 46
    },
    {
      "midi": 50,
      "hit": false,
      "t": 400369.00470000785,
      "d": 659.4193666666397,
      "v": 26
    },
    {
      "midi": 71,
      "hit": false,
      "t": 400470.45383334113,
      "d": 137.6809666666668,
      "v": 44
    },
    {
      "midi": 74,
      "hit": false,
      "t": 400680.59846667445,
      "d": 144.9273333333549,
      "v": 55
    },
    {
      "midi": 76,
      "hit": false,
      "t": 400912.4822000078,
      "d": 108.69549999997253,
      "v": 66
    },
    {
      "midi": 79,
      "hit": false,
      "t": 401158.8586666745,
      "d": 94.2027666666545,
      "v": 63
    },
    {
      "midi": 41,
      "hit": false,
      "t": 401405.23513334116,
      "d": 434.7820000000647,
      "v": 45
    },
    {
      "midi": 82,
      "hit": false,
      "t": 401441.4669666745,
      "d": 123.18823333340697,
      "v": 70
    },
    {
      "midi": 57,
      "hit": false,
      "t": 401448.7133333412,
      "d": 347.82560000004014,
      "v": 40
    },
    {
      "midi": 83,
      "hit": false,
      "t": 401542.9161000079,
      "d": 159.42006666667294,
      "v": 50
    },
    {
      "midi": 86,
      "hit": false,
      "t": 401738.5680000079,
      "d": 166.66643333336106,
      "v": 90
    },
    {
      "midi": 86,
      "hit": false,
      "t": 401984.9444666746,
      "d": 137.6809666666668,
      "v": 76
    },
    {
      "midi": 86,
      "hit": false,
      "t": 402216.8282000079,
      "d": 130.43459999997867,
      "v": 79
    },
    {
      "midi": 40,
      "hit": false,
      "t": 402419.72646667453,
      "d": 405.79653333331225,
      "v": 49
    },
    {
      "midi": 82,
      "hit": false,
      "t": 402455.95830000786,
      "d": 50.724566666642204,
      "v": 48
    },
    {
      "midi": 86,
      "hit": false,
      "t": 402470.4510333412,
      "d": 724.6366666666581,
      "v": 28
    },
    {
      "midi": 83,
      "hit": false,
      "t": 402513.9292333412,
      "d": 195.6518999999971,
      "v": 48
    },
    {
      "midi": 76,
      "hit": false,
      "t": 402753.0593333412,
      "d": 268.11556666664546,
      "v": 41
    },
    {
      "midi": 79,
      "hit": false,
      "t": 403042.91400000785,
      "d": 811.5930666666245,
      "v": 54
    },
    {
      "midi": 62,
      "hit": false,
      "t": 403463.2032666745,
      "d": 384.0574333333061,
      "v": 58
    },
    {
      "midi": 59,
      "hit": false,
      "t": 403477.6960000078,
      "d": 311.59376666665776,
      "v": 41
    },
    {
      "midi": 55,
      "hit": false,
      "t": 403499.4351000078,
      "d": 282.6082999999635,
      "v": 50
    },
    {
      "midi": 52,
      "hit": false,
      "t": 403513.9278333411,
      "d": 253.62283333332743,
      "v": 34
    },
    {
      "midi": 86,
      "hit": false,
      "t": 404180.59356667445,
      "d": 86.95640000002459,
      "v": 80
    },
    {
      "midi": 84,
      "hit": false,
      "t": 404187.83993334114,
      "d": 57.97093333333032,
      "v": 81
    },
    {
      "midi": 55,
      "hit": false,
      "t": 404535.6655333411,
      "d": 876.8103666667594,
      "v": 88
    },
    {
      "midi": 66,
      "hit": false,
      "t": 404535.6655333411,
      "d": 992.75223333342,
      "v": 90
    },
    {
      "midi": 61,
      "hit": false,
      "t": 404535.6655333411,
      "d": 999.9986000001081,
      "v": 79
    },
    {
      "midi": 87,
      "hit": false,
      "t": 404550.15826667444,
      "d": 57.97093333338853,
      "v": 84
    },
    {
      "midi": 95,
      "hit": false,
      "t": 404550.15826667444,
      "d": 391.30380000011064,
      "v": 80
    },
    {
      "midi": 83,
      "hit": false,
      "t": 404550.15826667444,
      "d": 478.2602000001352,
      "v": 85
    },
    {
      "midi": 90,
      "hit": false,
      "t": 404557.4046333411,
      "d": 79.71003333339468,
      "v": 71
    },
    {
      "midi": 93,
      "hit": false,
      "t": 404564.6510000078,
      "d": 28.985466666694265,
      "v": 70
    },
    {
      "midi": 93,
      "hit": false,
      "t": 404680.59286667453,
      "d": 304.34740000002785,
      "v": 15
    },
    {
      "midi": 94,
      "hit": false,
      "t": 405224.07036667457,
      "d": 231.8837333333213,
      "v": 74
    },
    {
      "midi": 82,
      "hit": false,
      "t": 405238.5631000079,
      "d": 268.11556666664546,
      "v": 67
    },
    {
      "midi": 65,
      "hit": false,
      "t": 405622.62053334125,
      "d": 594.2020666667377,
      "v": 52
    },
    {
      "midi": 54,
      "hit": false,
      "t": 405622.62053334125,
      "d": 746.3757666667807,
      "v": 47
    },
    {
      "midi": 60,
      "hit": false,
      "t": 405629.86690000794,
      "d": 579.7093333333614,
      "v": 55
    },
    {
      "midi": 93,
      "hit": false,
      "t": 405629.86690000794,
      "d": 673.9121000000741,
      "v": 67
    },
    {
      "midi": 81,
      "hit": false,
      "t": 405644.3596333413,
      "d": 753.6221333334106,
      "v": 50
    },
    {
      "midi": 91,
      "hit": false,
      "t": 406673.34370000806,
      "d": 166.66643333336106,
      "v": 39
    },
    {
      "midi": 64,
      "hit": false,
      "t": 406673.34370000806,
      "d": 224.63736666669138,
      "v": 37
    },
    {
      "midi": 86,
      "hit": false,
      "t": 406680.59006667475,
      "d": 159.42006666667294,
      "v": 57
    },
    {
      "midi": 79,
      "hit": false,
      "t": 406680.59006667475,
      "d": 246.37646666669752,
      "v": 39
    },
    {
      "midi": 59,
      "hit": false,
      "t": 406687.83643334144,
      "d": 239.1301000000094,
      "v": 50
    },
    {
      "midi": 46,
      "hit": false,
      "t": 407354.50216667476,
      "d": 760.8685000000987,
      "v": 48
    },
    {
      "midi": 71,
      "hit": false,
      "t": 407716.8205000081,
      "d": 746.3757666667807,
      "v": 35
    },
    {
      "midi": 62,
      "hit": false,
      "t": 407738.5596000081,
      "d": 695.6512000000803,
      "v": 44
    },
    {
      "midi": 66,
      "hit": false,
      "t": 407738.5596000081,
      "d": 789.853966666793,
      "v": 47
    },
    {
      "midi": 56,
      "hit": false,
      "t": 407745.8059666748,
      "d": 826.0858000001172,
      "v": 38
    },
    {
      "midi": 46,
      "hit": false,
      "t": 408412.4717000082,
      "d": 391.30380000005243,
      "v": 38
    },
    {
      "midi": 72,
      "hit": false,
      "t": 409289.2820666749,
      "d": 246.37646666669752,
      "v": 61
    },
    {
      "midi": 70,
      "hit": false,
      "t": 409296.5284333416,
      "d": 326.086500000034,
      "v": 64
    },
    {
      "midi": 51,
      "hit": false,
      "t": 409296.5284333416,
      "d": 478.2602000000188,
      "v": 47
    },
    {
      "midi": 63,
      "hit": false,
      "t": 409296.5284333416,
      "d": 565.2166000000434,
      "v": 72
    },
    {
      "midi": 67,
      "hit": false,
      "t": 409311.0211666749,
      "d": 565.2166000000434,
      "v": 66
    },
    {
      "midi": 55,
      "hit": false,
      "t": 409325.5139000082,
      "d": 391.30380000005243,
      "v": 49
    },
    {
      "midi": 72,
      "hit": false,
      "t": 409644.35403334163,
      "d": 159.42006666667294,
      "v": 60
    },
    {
      "midi": 70,
      "hit": false,
      "t": 409680.58586667496,
      "d": 173.91279999999097,
      "v": 25
    },
    {
      "midi": 72,
      "hit": false,
      "t": 409948.7014333416,
      "d": 166.66643333336106,
      "v": 67
    },
    {
      "midi": 72,
      "hit": false,
      "t": 410260.2952000083,
      "d": 123.18823333334876,
      "v": 70
    },
    {
      "midi": 72,
      "hit": false,
      "t": 410557.39623334166,
      "d": 152.17369999998482,
      "v": 71
    },
    {
      "midi": 54,
      "hit": false,
      "t": 410868.9900000083,
      "d": 253.62283333338564,
      "v": 72
    },
    {
      "midi": 72,
      "hit": false,
      "t": 410876.236366675,
      "d": 1072.4622666667565,
      "v": 72
    },
    {
      "midi": 68,
      "hit": false,
      "t": 410883.4827333417,
      "d": 949.2740333333495,
      "v": 81
    },
    {
      "midi": 64,
      "hit": false,
      "t": 410883.4827333417,
      "d": 978.2595000000438,
      "v": 90
    },
    {
      "midi": 30,
      "hit": false,
      "t": 411405.2211333417,
      "d": 101.44913333334262,
      "v": 63
    },
    {
      "midi": 68,
      "hit": false,
      "t": 411984.9304666751,
      "d": 1021.7376999999979,
      "v": 53
    },
    {
      "midi": 58,
      "hit": false,
      "t": 412006.6695666751,
      "d": 57.97093333333032,
      "v": 49
    },
    {
      "midi": 64,
      "hit": false,
      "t": 412006.6695666751,
      "d": 485.5065666666487,
      "v": 49
    },
    {
      "midi": 67,
      "hit": false,
      "t": 413086.3782000084,
      "d": 840.5785333333188,
      "v": 71
    },
    {
      "midi": 70,
      "hit": false,
      "t": 413086.3782000084,
      "d": 927.5349333333434,
      "v": 57
    },
    {
      "midi": 63,
      "hit": false,
      "t": 413093.6245666751,
      "d": 644.9266333333217,
      "v": 62
    },
    {
      "midi": 41,
      "hit": false,
      "t": 413419.7110666751,
      "d": 217.39100000000326,
      "v": 76
    },
    {
      "midi": 53,
      "hit": false,
      "t": 414166.08683334175,
      "d": 550.7238666666672,
      "v": 44
    },
    {
      "midi": 60,
      "hit": false,
      "t": 414166.08683334175,
      "d": 565.2165999999852,
      "v": 57
    },
    {
      "midi": 63,
      "hit": false,
      "t": 414166.08683334175,
      "d": 623.1875333333155,
      "v": 53
    },
    {
      "midi": 56,
      "hit": false,
      "t": 414187.82593334175,
      "d": 623.1875333333155,
      "v": 38
    },
    {
      "midi": 87,
      "hit": false,
      "t": 414861.7380333417,
      "d": 152.17370000004303,
      "v": 88
    },
    {
      "midi": 75,
      "hit": false,
      "t": 414868.9844000084,
      "d": 181.15916666667908,
      "v": 94
    },
    {
      "midi": 85,
      "hit": false,
      "t": 415231.30273334176,
      "d": 246.37646666675573,
      "v": 51
    },
    {
      "midi": 73,
      "hit": false,
      "t": 415245.7954666751,
      "d": 173.91280000010738,
      "v": 51
    },
    {
      "midi": 79,
      "hit": false,
      "t": 415253.04183334176,
      "d": 543.4775000000955,
      "v": 57
    },
    {
      "midi": 82,
      "hit": false,
      "t": 415260.28820000845,
      "d": 536.2311333334073,
      "v": 34
    },
    {
      "midi": 67,
      "hit": false,
      "t": 415267.53456667514,
      "d": 514.4920333334012,
      "v": 66
    },
    {
      "midi": 56,
      "hit": false,
      "t": 415274.7809333418,
      "d": 615.9411666666856,
      "v": 55
    },
    {
      "midi": 86,
      "hit": false,
      "t": 415282.0273000085,
      "d": 449.27473333332455,
      "v": 53
    },
    {
      "midi": 62,
      "hit": false,
      "t": 415282.0273000085,
      "d": 550.7238666666672,
      "v": 47
    },
    {
      "midi": 74,
      "hit": false,
      "t": 415419.7082666752,
      "d": 333.3328666666639,
      "v": 45
    },
    {
      "midi": 84,
      "hit": false,
      "t": 415970.43213334185,
      "d": 65.21730000001844,
      "v": 47
    },
    {
      "midi": 72,
      "hit": false,
      "t": 415977.67850000854,
      "d": 144.9273333332967,
      "v": 38
    },
    {
      "midi": 79,
      "hit": false,
      "t": 415999.41760000854,
      "d": 50.724566666642204,
      "v": 25
    },
    {
      "midi": 56,
      "hit": false,
      "t": 416361.73593334184,
      "d": 521.7383999999729,
      "v": 25
    },
    {
      "midi": 46,
      "hit": false,
      "t": 416361.73593334184,
      "d": 550.7238666666672,
      "v": 33
    },
    {
      "midi": 82,
      "hit": false,
      "t": 416376.22866667516,
      "d": 239.1301000000094,
      "v": 23
    },
    {
      "midi": 70,
      "hit": false,
      "t": 416376.22866667516,
      "d": 297.1010333333397,
      "v": 40
    },
    {
      "midi": 77,
      "hit": false,
      "t": 416448.6923333418,
      "d": 144.9273333333549,
      "v": 30
    },
    {
      "midi": 68,
      "hit": false,
      "t": 417028.40166667517,
      "d": 72.46366666664835,
      "v": 34
    },
    {
      "midi": 70,
      "hit": false,
      "t": 417861.7338333418,
      "d": 326.086500000034,
      "v": 50
    },
    {
      "midi": 79,
      "hit": false,
      "t": 417861.7338333418,
      "d": 384.0574333333643,
      "v": 61
    },
    {
      "midi": 67,
      "hit": false,
      "t": 417876.2265666751,
      "d": 268.11556666670367,
      "v": 50
    },
    {
      "midi": 74,
      "hit": false,
      "t": 417876.2265666751,
      "d": 289.8546666667098,
      "v": 60
    },
    {
      "midi": 55,
      "hit": false,
      "t": 417912.4584000085,
      "d": 57.97093333333032,
      "v": 27
    },
    {
      "midi": 79,
      "hit": false,
      "t": 418470.42863334186,
      "d": 326.086500000034,
      "v": 53
    },
    {
      "midi": 75,
      "hit": false,
      "t": 418470.42863334186,
      "d": 442.02836666669464,
      "v": 50
    },
    {
      "midi": 58,
      "hit": false,
      "t": 418477.67500000854,
      "d": 478.2602000000188,
      "v": 35
    },
    {
      "midi": 70,
      "hit": false,
      "t": 418477.67500000854,
      "d": 514.492033333343,
      "v": 39
    },
    {
      "midi": 48,
      "hit": false,
      "t": 418832.7469666752,
      "d": 181.15916666667908,
      "v": 58
    },
    {
      "midi": 57,
      "hit": false,
      "t": 419883.4701333419,
      "d": 79.71003333333647,
      "v": 42
    },
    {
      "midi": 61,
      "hit": false,
      "t": 419883.4701333419,
      "d": 108.69550000003073,
      "v": 46
    },
    {
      "midi": 63,
      "hit": false,
      "t": 419883.4701333419,
      "d": 108.69550000003073,
      "v": 46
    },
    {
      "midi": 59,
      "hit": false,
      "t": 419890.7165000086,
      "d": 79.71003333333647,
      "v": 48
    },
    {
      "midi": 45,
      "hit": false,
      "t": 419890.7165000086,
      "d": 101.44913333334262,
      "v": 55
    },
    {
      "midi": 57,
      "hit": false,
      "t": 420238.5421000086,
      "d": 86.9564000000828,
      "v": 50
    },
    {
      "midi": 61,
      "hit": false,
      "t": 420238.5421000086,
      "d": 115.94186666677706,
      "v": 42
    },
    {
      "midi": 63,
      "hit": false,
      "t": 420245.78846667527,
      "d": 108.69550000008894,
      "v": 45
    },
    {
      "midi": 59,
      "hit": false,
      "t": 420253.03483334195,
      "d": 65.21730000001844,
      "v": 51
    },
    {
      "midi": 45,
      "hit": false,
      "t": 420253.03483334195,
      "d": 101.44913333340082,
      "v": 49
    },
    {
      "midi": 45,
      "hit": false,
      "t": 420818.251433342,
      "d": 101.44913333340082,
      "v": 61
    },
    {
      "midi": 57,
      "hit": false,
      "t": 420825.4978000087,
      "d": 101.44913333340082,
      "v": 60
    },
    {
      "midi": 63,
      "hit": false,
      "t": 420832.7441666754,
      "d": 123.18823333340697,
      "v": 47
    },
    {
      "midi": 61,
      "hit": false,
      "t": 420839.99053334206,
      "d": 108.69550000003073,
      "v": 36
    },
    {
      "midi": 59,
      "hit": false,
      "t": 420861.72963334207,
      "d": 65.21730000001844,
      "v": 32
    },
    {
      "midi": 57,
      "hit": false,
      "t": 421064.62790000875,
      "d": 144.9273333333549,
      "v": 50
    },
    {
      "midi": 63,
      "hit": false,
      "t": 421064.62790000875,
      "d": 195.6518999999971,
      "v": 47
    },
    {
      "midi": 59,
      "hit": false,
      "t": 421071.87426667544,
      "d": 94.2027666666545,
      "v": 55
    },
    {
      "midi": 45,
      "hit": false,
      "t": 421071.87426667544,
      "d": 115.94186666666064,
      "v": 65
    },
    {
      "midi": 61,
      "hit": false,
      "t": 421071.87426667544,
      "d": 115.94186666666064,
      "v": 37
    },
    {
      "midi": 63,
      "hit": false,
      "t": 421361.7289333421,
      "d": 268.1155666667619,
      "v": 56
    },
    {
      "midi": 55,
      "hit": false,
      "t": 421368.9753000088,
      "d": 202.89826666668523,
      "v": 74
    },
    {
      "midi": 60,
      "hit": false,
      "t": 421368.9753000088,
      "d": 231.8837333333795,
      "v": 66
    },
    {
      "midi": 58,
      "hit": false,
      "t": 421376.22166667547,
      "d": 282.6083000000799,
      "v": 60
    },
    {
      "midi": 44,
      "hit": false,
      "t": 421383.46803334216,
      "d": 623.1875333334319,
      "v": 49
    },
    {
      "midi": 51,
      "hit": false,
      "t": 421390.71440000884,
      "d": 601.4484333334258,
      "v": 53
    },
    {
      "midi": 60,
      "hit": false,
      "t": 421963.1773666756,
      "d": 79.71003333333647,
      "v": 89
    },
    {
      "midi": 65,
      "hit": false,
      "t": 421970.42373334226,
      "d": 86.95639999996638,
      "v": 74
    },
    {
      "midi": 53,
      "hit": false,
      "t": 421992.16283334227,
      "d": 94.2027666666545,
      "v": 66
    },
    {
      "midi": 68,
      "hit": false,
      "t": 422361.72753334226,
      "d": 384.0574333333643,
      "v": 77
    },
    {
      "midi": 72,
      "hit": false,
      "t": 422361.72753334226,
      "d": 391.30380000005243,
      "v": 77
    },
    {
      "midi": 63,
      "hit": false,
      "t": 422361.72753334226,
      "d": 442.02836666675285,
      "v": 91
    },
    {
      "midi": 56,
      "hit": false,
      "t": 422368.97390000895,
      "d": 413.0429000000586,
      "v": 67
    },
    {
      "midi": 66,
      "hit": false,
      "t": 422397.95936667564,
      "d": 36.231833333324175,
      "v": 26
    },
    {
      "midi": 72,
      "hit": false,
      "t": 422984.9150666757,
      "d": 86.95640000002459,
      "v": 59
    },
    {
      "midi": 63,
      "hit": false,
      "t": 422999.407800009,
      "d": 159.42006666673115,
      "v": 67
    },
    {
      "midi": 68,
      "hit": false,
      "t": 423006.6541666757,
      "d": 108.69550000003073,
      "v": 55
    },
    {
      "midi": 70,
      "hit": false,
      "t": 423368.97250000905,
      "d": 594.2020666667377,
      "v": 60
    },
    {
      "midi": 62,
      "hit": false,
      "t": 423376.21886667574,
      "d": 514.4920333334012,
      "v": 60
    },
    {
      "midi": 65,
      "hit": false,
      "t": 423383.46523334243,
      "d": 398.55016666674055,
      "v": 59
    },
    {
      "midi": 43,
      "hit": false,
      "t": 423390.7116000091,
      "d": 608.6947999999975,
      "v": 48
    },
    {
      "midi": 67,
      "hit": false,
      "t": 423397.9579666758,
      "d": 217.39100000000326,
      "v": 50
    },
    {
      "midi": 53,
      "hit": false,
      "t": 423397.9579666758,
      "d": 492.75293333333684,
      "v": 44
    },
    {
      "midi": 67,
      "hit": false,
      "t": 424079.11643334245,
      "d": 79.71003333333647,
      "v": 67
    },
    {
      "midi": 63,
      "hit": false,
      "t": 424724.0430666758,
      "d": 260.86920000001555,
      "v": 60
    },
    {
      "midi": 52,
      "hit": false,
      "t": 424738.5358000091,
      "d": 217.39100000000326,
      "v": 41
    },
    {
      "midi": 42,
      "hit": false,
      "t": 424738.5358000091,
      "d": 340.57923333341023,
      "v": 35
    },
    {
      "midi": 30,
      "hit": false,
      "t": 424738.5358000091,
      "d": 347.82560000009835,
      "v": 38
    },
    {
      "midi": 58,
      "hit": false,
      "t": 424745.7821666758,
      "d": 413.0429000000586,
      "v": 52
    },
    {
      "midi": 60,
      "hit": false,
      "t": 425050.1295666758,
      "d": 130.43460000003688,
      "v": 55
    },
    {
      "midi": 29,
      "hit": false,
      "t": 425470.41883334256,
      "d": 521.7384000000311,
      "v": 33
    },
    {
      "midi": 63,
      "hit": false,
      "t": 425484.9115666759,
      "d": 565.2166000000434,
      "v": 30
    },
    {
      "midi": 57,
      "hit": false,
      "t": 425883.46173334256,
      "d": 79.71003333333647,
      "v": 40
    },
    {
      "midi": 59,
      "hit": false,
      "t": 425883.46173334256,
      "d": 115.94186666671885,
      "v": 48
    },
    {
      "midi": 41,
      "hit": false,
      "t": 425912.44720000925,
      "d": 152.17369999998482,
      "v": 43
    },
    {
      "midi": 74,
      "hit": false,
      "t": 426528.3883666759,
      "d": 471.0138333333889,
      "v": 60
    },
    {
      "midi": 63,
      "hit": false,
      "t": 426550.1274666759,
      "d": 405.79653333331225,
      "v": 45
    },
    {
      "midi": 67,
      "hit": false,
      "t": 426550.1274666759,
      "d": 420.2892666666885,
      "v": 55
    },
    {
      "midi": 71,
      "hit": false,
      "t": 426564.6202000092,
      "d": 398.55016666668234,
      "v": 36
    },
    {
      "midi": 62,
      "hit": false,
      "t": 426564.6202000092,
      "d": 499.99930000008317,
      "v": 41
    },
    {
      "midi": 72,
      "hit": false,
      "t": 427079.1122333426,
      "d": 268.11556666670367,
      "v": 53
    },
    {
      "midi": 63,
      "hit": false,
      "t": 427079.1122333426,
      "d": 333.3328666667221,
      "v": 49
    },
    {
      "midi": 60,
      "hit": false,
      "t": 427086.3586000093,
      "d": 50.72456666670041,
      "v": 51
    },
    {
      "midi": 67,
      "hit": false,
      "t": 427093.604966676,
      "d": 253.62283333332743,
      "v": 39
    },
    {
      "midi": 71,
      "hit": false,
      "t": 427579.1115333427,
      "d": 427.5356333334348,
      "v": 72
    },
    {
      "midi": 63,
      "hit": false,
      "t": 427586.3579000094,
      "d": 376.8110666667344,
      "v": 62
    },
    {
      "midi": 53,
      "hit": false,
      "t": 427593.60426667606,
      "d": 1101.4477333334507,
      "v": 39
    },
    {
      "midi": 59,
      "hit": false,
      "t": 427600.85063334275,
      "d": 239.1301000000094,
      "v": 47
    },
    {
      "midi": 67,
      "hit": false,
      "t": 427600.85063334275,
      "d": 369.5647000000463,
      "v": 63
    },
    {
      "midi": 74,
      "hit": false,
      "t": 428122.5890333428,
      "d": 434.7820000000647,
      "v": 76
    },
    {
      "midi": 63,
      "hit": false,
      "t": 428129.83540000947,
      "d": 384.0574333333643,
      "v": 69
    },
    {
      "midi": 67,
      "hit": false,
      "t": 428129.83540000947,
      "d": 384.0574333333643,
      "v": 73
    },
    {
      "midi": 62,
      "hit": false,
      "t": 428151.5745000095,
      "d": 427.5356333333766,
      "v": 69
    },
    {
      "midi": 72,
      "hit": false,
      "t": 428666.0665333428,
      "d": 528.984766666661,
      "v": 55
    },
    {
      "midi": 67,
      "hit": false,
      "t": 428666.0665333428,
      "d": 557.9702333333553,
      "v": 74
    },
    {
      "midi": 63,
      "hit": false,
      "t": 428666.0665333428,
      "d": 652.173000000068,
      "v": 62
    },
    {
      "midi": 60,
      "hit": false,
      "t": 428687.8056333428,
      "d": 543.4775000000373,
      "v": 64
    },
    {
      "midi": 53,
      "hit": false,
      "t": 429216.7904000095,
      "d": 115.94186666671885,
      "v": 52
    },
    {
      "midi": 63,
      "hit": false,
      "t": 429890.70250000956,
      "d": 579.7093333334778,
      "v": 69
    },
    {
      "midi": 60,
      "hit": false,
      "t": 429905.1952333429,
      "d": 514.4920333334594,
      "v": 73
    },
    {
      "midi": 56,
      "hit": false,
      "t": 429905.1952333429,
      "d": 521.7384000001475,
      "v": 75
    },
    {
      "midi": 34,
      "hit": false,
      "t": 429912.44160000957,
      "d": 405.79653333337046,
      "v": 71
    },
    {
      "midi": 46,
      "hit": false,
      "t": 429912.44160000957,
      "d": 463.767466666759,
      "v": 74
    },
    {
      "midi": 53,
      "hit": false,
      "t": 429919.68796667625,
      "d": 427.5356333333766,
      "v": 71
    },
    {
      "midi": 56,
      "hit": false,
      "t": 430687.80283334304,
      "d": 188.4055333333672,
      "v": 82
    },
    {
      "midi": 63,
      "hit": false,
      "t": 430687.80283334304,
      "d": 340.57923333341023,
      "v": 75
    },
    {
      "midi": 60,
      "hit": false,
      "t": 430695.04920000973,
      "d": 268.11556666670367,
      "v": 83
    },
    {
      "midi": 46,
      "hit": false,
      "t": 430709.54193334305,
      "d": 746.3757666668389,
      "v": 62
    },
    {
      "midi": 60,
      "hit": false,
      "t": 431195.0485000098,
      "d": 231.8837333333795,
      "v": 96
    },
    {
      "midi": 65,
      "hit": false,
      "t": 431195.0485000098,
      "d": 318.8401333334041,
      "v": 81
    },
    {
      "midi": 58,
      "hit": false,
      "t": 431202.2948666765,
      "d": 463.7674666667008,
      "v": 71
    },
    {
      "midi": 60,
      "hit": false,
      "t": 431680.5550666765,
      "d": 340.579233333352,
      "v": 91
    },
    {
      "midi": 46,
      "hit": false,
      "t": 431687.8014333432,
      "d": 181.15916666667908,
      "v": 51
    },
    {
      "midi": 63,
      "hit": false,
      "t": 431687.8014333432,
      "d": 340.579233333352,
      "v": 78
    },
    {
      "midi": 62,
      "hit": false,
      "t": 432303.7426000099,
      "d": 347.82560000004014,
      "v": 73
    },
    {
      "midi": 59,
      "hit": false,
      "t": 432303.7426000099,
      "d": 369.5647000000463,
      "v": 75
    },
    {
      "midi": 46,
      "hit": false,
      "t": 432303.7426000099,
      "d": 528.9847666667192,
      "v": 48
    },
    {
      "midi": 57,
      "hit": false,
      "t": 432310.9889666766,
      "d": 376.8110666666762,
      "v": 72
    },
    {
      "midi": 56,
      "hit": false,
      "t": 432325.4817000099,
      "d": 847.8249000000651,
      "v": 49
    },
    {
      "midi": 68,
      "hit": false,
      "t": 432977.65470000997,
      "d": 376.8110666666762,
      "v": 74
    },
    {
      "midi": 46,
      "hit": false,
      "t": 432984.90106667666,
      "d": 347.82559999998193,
      "v": 56
    },
    {
      "midi": 56,
      "hit": false,
      "t": 433673.30590001,
      "d": 731.8830333334045,
      "v": 43
    },
    {
      "midi": 46,
      "hit": false,
      "t": 433673.30590001,
      "d": 782.6076000000467,
      "v": 37
    },
    {
      "midi": 53,
      "hit": false,
      "t": 433680.5522666767,
      "d": 608.6947999999975,
      "v": 44
    },
    {
      "midi": 60,
      "hit": false,
      "t": 433687.79863334337,
      "d": 688.404833333334,
      "v": 60
    },
    {
      "midi": 56,
      "hit": false,
      "t": 435042.86920001,
      "d": 637.6802666666335,
      "v": 55
    },
    {
      "midi": 62,
      "hit": false,
      "t": 435050.1155666767,
      "d": 521.7383999999729,
      "v": 51
    },
    {
      "midi": 46,
      "hit": false,
      "t": 435057.3619333434,
      "d": 442.02836666663643,
      "v": 33
    },
    {
      "midi": 63,
      "hit": false,
      "t": 435999.38960001,
      "d": 369.56469999992987,
      "v": 47
    },
    {
      "midi": 58,
      "hit": false,
      "t": 436013.8823333433,
      "d": 304.34739999996964,
      "v": 36
    },
    {
      "midi": 55,
      "hit": false,
      "t": 436028.37506667664,
      "d": 152.17369999998482,
      "v": 35
    },
    {
      "midi": 39,
      "hit": false,
      "t": 436028.37506667664,
      "d": 326.0864999999758,
      "v": 46
    },
    {
      "midi": 46,
      "hit": false,
      "t": 436339.9688333433,
      "d": 318.84013333328767,
      "v": 53
    },
    {
      "midi": 67,
      "hit": false,
      "t": 436709.53353334323,
      "d": 391.3037999999942,
      "v": 80
    },
    {
      "midi": 55,
      "hit": false,
      "t": 436716.7799000099,
      "d": 442.02836666663643,
      "v": 49
    },
    {
      "midi": 70,
      "hit": false,
      "t": 437151.56190000987,
      "d": 333.3328666666639,
      "v": 71
    },
    {
      "midi": 58,
      "hit": false,
      "t": 437173.3010000099,
      "d": 181.15916666667908,
      "v": 32
    },
    {
      "midi": 73,
      "hit": false,
      "t": 437789.24216667656,
      "d": 224.6373666668078,
      "v": 35
    },
    {
      "midi": 61,
      "hit": false,
      "t": 437796.48853334325,
      "d": 108.69550000008894,
      "v": 38
    },
    {
      "midi": 66,
      "hit": false,
      "t": 437803.73490000993,
      "d": 166.66643333341926,
      "v": 43
    },
    {
      "midi": 46,
      "hit": false,
      "t": 437810.9812666766,
      "d": 115.94186666671885,
      "v": 31
    },
    {
      "midi": 70,
      "hit": false,
      "t": 437818.2276333433,
      "d": 166.66643333336106,
      "v": 36
    },
    {
      "midi": 56,
      "hit": false,
      "t": 437825.47400001,
      "d": 144.9273333333549,
      "v": 27
    },
    {
      "midi": 66,
      "hit": false,
      "t": 438521.12520001,
      "d": 992.7522333333036,
      "v": 28
    },
    {
      "midi": 85,
      "hit": false,
      "t": 438521.12520001,
      "d": 2260.866399999999,
      "v": 54
    },
    {
      "midi": 62,
      "hit": false,
      "t": 438535.61793334334,
      "d": 999.9985999999917,
      "v": 35
    },
    {
      "midi": 73,
      "hit": false,
      "t": 438535.61793334334,
      "d": 2166.6636333333445,
      "v": 31
    },
    {
      "midi": 78,
      "hit": false,
      "t": 438542.86430001,
      "d": 2144.92453333328,
      "v": 37
    },
    {
      "midi": 82,
      "hit": false,
      "t": 438542.86430001,
      "d": 2173.9099999999744,
      "v": 38
    },
    {
      "midi": 56,
      "hit": false,
      "t": 438557.35703334335,
      "d": 1028.9840666666278,
      "v": 25
    },
    {
      "midi": 28,
      "hit": false,
      "t": 440651.55700001,
      "d": 144.9273333333549,
      "v": 69
    },
    {
      "midi": 86,
      "hit": false,
      "t": 441550.1064666767,
      "d": 1152.172300000093,
      "v": 63
    },
    {
      "midi": 66,
      "hit": false,
      "t": 441579.0919333434,
      "d": 731.8830333333462,
      "v": 37
    },
    {
      "midi": 78,
      "hit": false,
      "t": 441579.0919333434,
      "d": 949.2740333333495,
      "v": 30
    },
    {
      "midi": 81,
      "hit": false,
      "t": 441579.0919333434,
      "d": 1094.2013666667044,
      "v": 53
    },
    {
      "midi": 62,
      "hit": false,
      "t": 441586.3383000101,
      "d": 724.6366666666581,
      "v": 43
    },
    {
      "midi": 74,
      "hit": false,
      "t": 441586.3383000101,
      "d": 898.5494666666491,
      "v": 40
    },
    {
      "midi": 56,
      "hit": false,
      "t": 441608.0774000101,
      "d": 818.8394333333126,
      "v": 30
    },
    {
      "midi": 87,
      "hit": false,
      "t": 443615.32096667675,
      "d": 557.9702333334135,
      "v": 55
    },
    {
      "midi": 27,
      "hit": false,
      "t": 443622.56733334344,
      "d": 210.14463333337335,
      "v": 53
    },
    {
      "midi": 39,
      "hit": false,
      "t": 443622.56733334344,
      "d": 275.3619333333918,
      "v": 46
    },
    {
      "midi": 82,
      "hit": false,
      "t": 443629.8137000101,
      "d": 485.50656666670693,
      "v": 39
    },
    {
      "midi": 77,
      "hit": false,
      "t": 443637.0600666768,
      "d": 456.52110000001267,
      "v": 32
    },
    {
      "midi": 86,
      "hit": false,
      "t": 445586.33270001016,
      "d": 202.89826666668523,
      "v": 56
    },
    {
      "midi": 101,
      "hit": false,
      "t": 445600.8254333435,
      "d": 239.1301000000094,
      "v": 50
    },
    {
      "midi": 91,
      "hit": false,
      "t": 445600.8254333435,
      "d": 260.86920000001555,
      "v": 32
    },
    {
      "midi": 96,
      "hit": false,
      "t": 445608.07180001016,
      "d": 239.1301000000094,
      "v": 45
    },
    {
      "midi": 99,
      "hit": false,
      "t": 446100.8247333435,
      "d": 130.43460000003688,
      "v": 58
    },
    {
      "midi": 94,
      "hit": false,
      "t": 446115.3174666768,
      "d": 108.69550000003073,
      "v": 50
    },
    {
      "midi": 84,
      "hit": false,
      "t": 446122.5638333435,
      "d": 94.2027666666545,
      "v": 40
    },
    {
      "midi": 89,
      "hit": false,
      "t": 446122.5638333435,
      "d": 173.91280000004917,
      "v": 35
    },
    {
      "midi": 86,
      "hit": false,
      "t": 446571.8385666769,
      "d": 188.4055333333672,
      "v": 53
    },
    {
      "midi": 91,
      "hit": false,
      "t": 446579.0849333436,
      "d": 101.44913333334262,
      "v": 46
    },
    {
      "midi": 80,
      "hit": false,
      "t": 446579.0849333436,
      "d": 108.69550000003073,
      "v": 37
    },
    {
      "midi": 96,
      "hit": false,
      "t": 446579.0849333436,
      "d": 108.69550000003073,
      "v": 43
    },
    {
      "midi": 94,
      "hit": false,
      "t": 447216.76520001027,
      "d": 231.8837333333213,
      "v": 50
    },
    {
      "midi": 79,
      "hit": false,
      "t": 447231.2579333436,
      "d": 231.8837333333213,
      "v": 40
    },
    {
      "midi": 89,
      "hit": false,
      "t": 447231.2579333436,
      "d": 246.37646666663932,
      "v": 40
    },
    {
      "midi": 84,
      "hit": false,
      "t": 447231.2579333436,
      "d": 297.1010333332815,
      "v": 31
    },
    {
      "midi": 87,
      "hit": false,
      "t": 447825.4600000102,
      "d": 173.91280000004917,
      "v": 54
    },
    {
      "midi": 82,
      "hit": false,
      "t": 447832.7063666769,
      "d": 202.89826666668523,
      "v": 46
    },
    {
      "midi": 77,
      "hit": false,
      "t": 447839.9527333436,
      "d": 239.1301000000094,
      "v": 29
    },
    {
      "midi": 72,
      "hit": false,
      "t": 447854.4454666769,
      "d": 86.95640000002459,
      "v": 26
    },
    {
      "midi": 68,
      "hit": false,
      "t": 448397.92296667694,
      "d": 246.37646666669752,
      "v": 36
    },
    {
      "midi": 79,
      "hit": false,
      "t": 448405.1693333436,
      "d": 130.43459999997867,
      "v": 39
    },
    {
      "midi": 84,
      "hit": false,
      "t": 448405.1693333436,
      "d": 130.43459999997867,
      "v": 31
    },
    {
      "midi": 74,
      "hit": false,
      "t": 448405.1693333436,
      "d": 210.14463333331514,
      "v": 26
    },
    {
      "midi": 82,
      "hit": false,
      "t": 448977.6323000103,
      "d": 144.9273333332967,
      "v": 25
    },
    {
      "midi": 72,
      "hit": false,
      "t": 448992.1250333436,
      "d": 217.39100000000326,
      "v": 18
    },
    {
      "midi": 67,
      "hit": false,
      "t": 449006.61776667694,
      "d": 137.6809666666668,
      "v": 25
    },
    {
      "midi": 77,
      "hit": false,
      "t": 449013.8641333436,
      "d": 130.43459999997867,
      "v": 27
    },
    {
      "midi": 77,
      "hit": false,
      "t": 449571.834366677,
      "d": 72.46366666670656,
      "v": 30
    },
    {
      "midi": 67,
      "hit": false,
      "t": 449571.834366677,
      "d": 108.69550000003073,
      "v": 31
    },
    {
      "midi": 72,
      "hit": false,
      "t": 449571.834366677,
      "d": 130.43460000003688,
      "v": 31
    },
    {
      "midi": 58,
      "hit": false,
      "t": 449600.8198333437,
      "d": 86.95640000002459,
      "v": 25
    },
    {
      "midi": 75,
      "hit": false,
      "t": 450100.8191333437,
      "d": 57.97093333333032,
      "v": 33
    },
    {
      "midi": 70,
      "hit": false,
      "t": 450115.311866677,
      "d": 86.95640000002459,
      "v": 42
    },
    {
      "midi": 65,
      "hit": false,
      "t": 450137.050966677,
      "d": 65.21730000001844,
      "v": 28
    },
    {
      "midi": 55,
      "hit": false,
      "t": 450144.2973333437,
      "d": 57.97093333333032,
      "v": 32
    },
    {
      "midi": 62,
      "hit": false,
      "t": 450673.2821000104,
      "d": 144.9273333333549,
      "v": 33
    },
    {
      "midi": 67,
      "hit": false,
      "t": 450680.52846667706,
      "d": 79.71003333333647,
      "v": 35
    },
    {
      "midi": 51,
      "hit": false,
      "t": 450709.51393334375,
      "d": 57.97093333333032,
      "v": 21
    },
    {
      "midi": 60,
      "hit": false,
      "t": 451310.96236667706,
      "d": 130.43460000003688,
      "v": 42
    },
    {
      "midi": 65,
      "hit": false,
      "t": 451310.96236667706,
      "d": 420.2892666667467,
      "v": 31
    },
    {
      "midi": 46,
      "hit": false,
      "t": 451318.20873334375,
      "d": 86.95640000002459,
      "v": 29
    },
    {
      "midi": 55,
      "hit": false,
      "t": 451318.20873334375,
      "d": 188.4055333333672,
      "v": 24
    },
    {
      "midi": 63,
      "hit": false,
      "t": 452144.2945333438,
      "d": 2775.3584333334,
      "v": 29
    },
    {
      "midi": 53,
      "hit": false,
      "t": 452166.0336333438,
      "d": 2731.880233333388,
      "v": 24
    },
    {
      "midi": 58,
      "hit": false,
      "t": 452173.2800000105,
      "d": 2731.880233333388,
      "v": 38
    },
    {
      "midi": 39,
      "hit": false,
      "t": 452173.2800000105,
      "d": 2934.778500000015,
      "v": 37
    },
    {
      "midi": 48,
      "hit": false,
      "t": 452173.2800000105,
      "d": 3478.255999999994,
      "v": 30
    },
    {
      "midi": 27,
      "hit": false,
      "t": 454492.1173333439,
      "d": 2608.6919999999227,
      "v": 36
    }
  ]
}