{
  "jsonPath": "Unknown/Unknown/Bryan White (With Shania Twain)/from-this-moment-on-album-version.json",
  "path": "Unknown\\Unknown\\Bryan White (With Shania Twain)\\From This Moment On (Album Version).mid",
  "name": "From This Moment On (Album Version)",
  "difficulty": "Advanced",
  "bpm": 110.00011000011,
  "notes": [
    {
      "midi": 60,
      "hit": false,
      "t": 100125,
      "d": 750,
      "v": 90
    },
    {
      "midi": 64,
      "hit": false,
      "t": 100500,
      "d": 750,
      "v": 90
    },
    {
      "midi": 67,
      "hit": false,
      "t": 100875,
      "d": 750,
      "v": 90
    },
    {
      "midi": 72,
      "hit": false,
      "t": 101250,
      "d": 362.5,
      "v": 90
    },
    {
      "midi": 74,
      "hit": false,
      "t": 101625,
      "d": 362.5,
      "v": 90
    },
    {
      "midi": 67,
      "hit": false,
      "t": 102000,
      "d": 362.5,
      "v": 90
    },
    {
      "midi": 74,
      "hit": false,
      "t": 102000,
      "d": 750,
      "v": 90
    },
    {
      "midi": 67,
      "hit": false,
      "t": 102375,
      "d": 362.5,
      "v": 90
    },
    {
      "midi": 79,
      "hit": false,
      "t": 102375,
      "d": 750,
      "v": 90
    },
    {
      "midi": 67,
      "hit": false,
      "t": 102750,
      "d": 750,
      "v": 90
    },
    {
      "midi": 71,
      "hit": false,
      "t": 117750,
      "d": 750,
      "v": 100
    },
    {
      "midi": 74,
      "hit": false,
      "t": 117750,
      "d": 750,
      "v": 100
    },
    {
      "midi": 79,
      "hit": false,
      "t": 117750,
      "d": 750,
      "v": 100
    },
    {
      "midi": 78,
      "hit": false,
      "t": 118500,
      "d": 750,
      "v": 100
    },
    {
      "midi": 79,
      "hit": false,
      "t": 119250,
      "d": 1500,
      "v": 100
    },
    {
      "midi": 72,
      "hit": false,
      "t": 120750,
      "d": 3000,
      "v": 100
    },
    {
      "midi": 71,
      "hit": false,
      "t": 123000,
      "d": 750,
      "v": 100
    },
    {
      "midi": 69,
      "hit": false,
      "t": 123750,
      "d": 2250,
      "v": 100
    },
    {
      "midi": 60,
      "hit": false,
      "t": 126000,
      "d": 6000,
      "v": 100
    },
    {
      "midi": 64,
      "hit": false,
      "t": 126000,
      "d": 6000,
      "v": 100
    },
    {
      "midi": 67,
      "hit": false,
      "t": 126000,
      "d": 6000,
      "v": 100
    },
    {
      "midi": 59,
      "hit": false,
      "t": 132000,
      "d": 6000,
      "v": 100
    },
    {
      "midi": 62,
      "hit": false,
      "t": 132000,
      "d": 6000,
      "v": 100
    },
    {
      "midi": 67,
      "hit": false,
      "t": 132000,
      "d": 6000,
      "v": 100
    },
    {
      "midi": 60,
      "hit": false,
      "t": 138000,
      "d": 6000,
      "v": 100
    },
    {
      "midi": 64,
      "hit": false,
      "t": 138000,
      "d": 6000,
      "v": 100
    },
    {
      "midi": 67,
      "hit": false,
      "t": 138000,
      "d": 6000,
      "v": 100
    },
    {
      "midi": 66,
      "hit": false,
      "t": 144000,
      "d": 6000,
      "v": 100
    },
    {
      "midi": 54,
      "hit": false,
      "t": 148125,
      "d": 1125,
      "v": 100
    },
    {
      "midi": 62,
      "hit": false,
      "t": 148125,
      "d": 1125,
      "v": 100
    },
    {
      "midi": 52,
      "hit": false,
      "t": 149250,
      "d": 750,
      "v": 100
    },
    {
      "midi": 60,
      "hit": false,
      "t": 149250,
      "d": 750,
      "v": 100
    },
    {
      "midi": 52,
      "hit": false,
      "t": 150000,
      "d": 750,
      "v": 100
    },
    {
      "midi": 60,
      "hit": false,
      "t": 150000,
      "d": 750,
      "v": 100
    },
    {
      "midi": 50,
      "hit": false,
      "t": 150750,
      "d": 2250,
      "v": 100
    },
    {
      "midi": 55,
      "hit": false,
      "t": 150750,
      "d": 2250,
      "v": 100
    },
    {
      "midi": 59,
      "hit": false,
      "t": 150750,
      "d": 2250,
      "v": 100
    },
    {
      "midi": 40,
      "hit": false,
      "t": 153000,
      "d": 750,
      "v": 100
    },
    {
      "midi": 45,
      "hit": false,
      "t": 153750,
      "d": 1500,
      "v": 100
    },
    {
      "midi": 43,
      "hit": false,
      "t": 155250,
      "d": 750,
      "v": 100
    },
    {
      "midi": 59,
      "hit": false,
      "t": 156000,
      "d": 3000,
      "v": 100
    },
    {
      "midi": 62,
      "hit": false,
      "t": 156000,
      "d": 3000,
      "v": 100
    },
    {
      "midi": 67,
      "hit": false,
      "t": 156000,
      "d": 3000,
      "v": 100
    },
    {
      "midi": 57,
      "hit": false,
      "t": 159000,
      "d": 1500,
      "v": 100
    },
    {
      "midi": 62,
      "hit": false,
      "t": 159000,
      "d": 1500,
      "v": 100
    },
    {
      "midi": 59,
      "hit": false,
      "t": 160500,
      "d": 1500,
      "v": 100
    },
    {
      "midi": 62,
      "hit": false,
      "t": 160500,
      "d": 1500,
      "v": 100
    },
    {
      "midi": 60,
      "hit": false,
      "t": 162000,
      "d": 6000,
      "v": 100
    },
    {
      "midi": 64,
      "hit": false,
      "t": 162000,
      "d": 6000,
      "v": 100
    },
    {
      "midi": 67,
      "hit": false,
      "t": 162000,
      "d": 6000,
      "v": 100
    },
    {
      "midi": 67,
      "hit": false,
      "t": 169500,
      "d": 1500,
      "v": 100
    },
    {
      "midi": 76,
      "hit": false,
      "t": 169500,
      "d": 1500,
      "v": 100
    },
    {
      "midi": 69,
      "hit": false,
      "t": 171000,
      "d": 1500,
      "v": 100
    },
    {
      "midi": 78,
      "hit": false,
      "t": 171000,
      "d": 1500,
      "v": 100
    },
    {
      "midi": 67,
      "hit": false,
      "t": 172500,
      "d": 1500,
      "v": 100
    },
    {
      "midi": 71,
      "hit": false,
      "t": 172500,
      "d": 1500,
      "v": 100
    },
    {
      "midi": 79,
      "hit": false,
      "t": 172500,
      "d": 1500,
      "v": 100
    },
    {
      "midi": 36,
      "hit": false,
      "t": 174000,
      "d": 6000,
      "v": 100
    },
    {
      "midi": 67,
      "hit": false,
      "t": 175500,
      "d": 1500,
      "v": 100
    },
    {
      "midi": 76,
      "hit": false,
      "t": 175500,
      "d": 1500,
      "v": 100
    },
    {
      "midi": 69,
      "hit": false,
      "t": 177000,
      "d": 1500,
      "v": 100
    },
    {
      "midi": 78,
      "hit": false,
      "t": 177000,
      "d": 1500,
      "v": 100
    },
    {
      "midi": 67,
      "hit": false,
      "t": 178500,
      "d": 1500,
      "v": 100
    },
    {
      "midi": 71,
      "hit": false,
      "t": 178500,
      "d": 1500,
      "v": 100
    },
    {
      "midi": 79,
      "hit": false,
      "t": 178500,
      "d": 1500,
      "v": 100
    },
    {
      "midi": 43,
      "hit": false,
      "t": 180000,
      "d": 6000,
      "v": 100
    },
    {
      "midi": 71,
      "hit": false,
      "t": 181500,
      "d": 1500,
      "v": 100
    },
    {
      "midi": 79,
      "hit": false,
      "t": 181500,
      "d": 1500,
      "v": 100
    },
    {
      "midi": 72,
      "hit": false,
      "t": 183000,
      "d": 1500,
      "v": 100
    },
    {
      "midi": 81,
      "hit": false,
      "t": 183000,
      "d": 1500,
      "v": 100
    },
    {
      "midi": 67,
      "hit": false,
      "t": 184500,
      "d": 1500,
      "v": 100
    },
    {
      "midi": 74,
      "hit": false,
      "t": 184500,
      "d": 1500,
      "v": 100
    },
    {
      "midi": 83,
      "hit": false,
      "t": 184500,
      "d": 1500,
      "v": 100
    },
    {
      "midi": 55,
      "hit": false,
      "t": 186000,
      "d": 2250,
      "v": 100
    },
    {
      "midi": 62,
      "hit": false,
      "t": 186000,
      "d": 2250,
      "v": 100
    },
    {
      "midi": 81,
      "hit": false,
      "t": 186000,
      "d": 2250,
      "v": 100
    },
    {
      "midi": 52,
      "hit": false,
      "t": 188250,
      "d": 750,
      "v": 100
    },
    {
      "midi": 45,
      "hit": false,
      "t": 189000,
      "d": 1500,
      "v": 100
    },
    {
      "midi": 50,
      "hit": false,
      "t": 189000,
      "d": 1500,
      "v": 100
    },
    {
      "midi": 54,
      "hit": false,
      "t": 189000,
      "d": 1500,
      "v": 100
    },
    {
      "midi": 52,
      "hit": false,
      "t": 192000,
      "d": 2250,
      "v": 100
    },
    {
      "midi": 57,
      "hit": false,
      "t": 192000,
      "d": 2250,
      "v": 100
    },
    {
      "midi": 61,
      "hit": false,
      "t": 192000,
      "d": 2250,
      "v": 100
    },
    {
      "midi": 59,
      "hit": false,
      "t": 194250,
      "d": 750,
      "v": 100
    },
    {
      "midi": 57,
      "hit": false,
      "t": 195000,
      "d": 2250,
      "v": 100
    },
    {
      "midi": 61,
      "hit": false,
      "t": 195000,
      "d": 2250,
      "v": 100
    },
    {
      "midi": 52,
      "hit": false,
      "t": 197250,
      "d": 3000,
      "v": 100
    },
    {
      "midi": 56,
      "hit": false,
      "t": 197250,
      "d": 3000,
      "v": 100
    },
    {
      "midi": 59,
      "hit": false,
      "t": 197250,
      "d": 3000,
      "v": 100
    },
    {
      "midi": 62,
      "hit": false,
      "t": 201000,
      "d": 2250,
      "v": 100
    },
    {
      "midi": 66,
      "hit": false,
      "t": 201000,
      "d": 2250,
      "v": 100
    },
    {
      "midi": 54,
      "hit": false,
      "t": 203250,
      "d": 1125,
      "v": 100
    },
    {
      "midi": 57,
      "hit": false,
      "t": 203625,
      "d": 375,
      "v": 100
    },
    {
      "midi": 54,
      "hit": false,
      "t": 204750,
      "d": 375,
      "v": 100
    },
    {
      "midi": 61,
      "hit": false,
      "t": 205125,
      "d": 1875,
      "v": 100
    },
    {
      "midi": 64,
      "hit": false,
      "t": 206250,
      "d": 750,
      "v": 100
    },
    {
      "midi": 59,
      "hit": false,
      "t": 207000,
      "d": 2250,
      "v": 100
    },
    {
      "midi": 64,
      "hit": false,
      "t": 207000,
      "d": 2250,
      "v": 100
    },
    {
      "midi": 68,
      "hit": false,
      "t": 207000,
      "d": 2250,
      "v": 100
    },
    {
      "midi": 59,
      "hit": false,
      "t": 209250,
      "d": 750,
      "v": 100
    },
    {
      "midi": 64,
      "hit": false,
      "t": 210000,
      "d": 1500,
      "v": 100
    },
    {
      "midi": 71,
      "hit": false,
      "t": 210000,
      "d": 1500,
      "v": 100
    },
    {
      "midi": 62,
      "hit": false,
      "t": 211500,
      "d": 750,
      "v": 100
    },
    {
      "midi": 66,
      "hit": false,
      "t": 211500,
      "d": 750,
      "v": 100
    },
    {
      "midi": 64,
      "hit": false,
      "t": 212250,
      "d": 750,
      "v": 100
    },
    {
      "midi": 68,
      "hit": false,
      "t": 212250,
      "d": 750,
      "v": 100
    },
    {
      "midi": 66,
      "hit": false,
      "t": 213000,
      "d": 3000,
      "v": 100
    },
    {
      "midi": 69,
      "hit": false,
      "t": 213000,
      "d": 3000,
      "v": 100
    },
    {
      "midi": 74,
      "hit": false,
      "t": 213000,
      "d": 3000,
      "v": 100
    },
    {
      "midi": 78,
      "hit": false,
      "t": 216000,
      "d": 750,
      "v": 100
    },
    {
      "midi": 81,
      "hit": false,
      "t": 216000,
      "d": 750,
      "v": 100
    },
    {
      "midi": 76,
      "hit": false,
      "t": 216750,
      "d": 750,
      "v": 100
    },
    {
      "midi": 80,
      "hit": false,
      "t": 216750,
      "d": 750,
      "v": 100
    },
    {
      "midi": 74,
      "hit": false,
      "t": 217500,
      "d": 750,
      "v": 100
    },
    {
      "midi": 78,
      "hit": false,
      "t": 217500,
      "d": 750,
      "v": 100
    },
    {
      "midi": 73,
      "hit": false,
      "t": 218250,
      "d": 1500,
      "v": 100
    },
    {
      "midi": 76,
      "hit": false,
      "t": 218250,
      "d": 1500,
      "v": 100
    },
    {
      "midi": 64,
      "hit": false,
      "t": 219750,
      "d": 2250,
      "v": 100
    },
    {
      "midi": 69,
      "hit": false,
      "t": 219750,
      "d": 2250,
      "v": 100
    },
    {
      "midi": 71,
      "hit": false,
      "t": 222000,
      "d": 750,
      "v": 100
    },
    {
      "midi": 76,
      "hit": false,
      "t": 222000,
      "d": 750,
      "v": 100
    },
    {
      "midi": 71,
      "hit": false,
      "t": 222750,
      "d": 2250,
      "v": 100
    },
    {
      "midi": 74,
      "hit": false,
      "t": 222750,
      "d": 2250,
      "v": 100
    },
    {
      "midi": 64,
      "hit": false,
      "t": 225000,
      "d": 750,
      "v": 100
    },
    {
      "midi": 69,
      "hit": false,
      "t": 225000,
      "d": 750,
      "v": 100
    },
    {
      "midi": 64,
      "hit": false,
      "t": 225750,
      "d": 1500,
      "v": 100
    },
    {
      "midi": 68,
      "hit": false,
      "t": 225750,
      "d": 1500,
      "v": 100
    },
    {
      "midi": 57,
      "hit": false,
      "t": 227250,
      "d": 6000,
      "v": 100
    },
    {
      "midi": 57,
      "hit": false,
      "t": 234000,
      "d": 2250,
      "v": 100
    },
    {
      "midi": 61,
      "hit": false,
      "t": 234000,
      "d": 4500,
      "v": 100
    },
    {
      "midi": 64,
      "hit": false,
      "t": 234000,
      "d": 4500,
      "v": 100
    },
    {
      "midi": 57,
      "hit": false,
      "t": 236250,
      "d": 750,
      "v": 100
    },
    {
      "midi": 57,
      "hit": false,
      "t": 237000,
      "d": 3000,
      "v": 100
    },
    {
      "midi": 61,
      "hit": false,
      "t": 238500,
      "d": 1500,
      "v": 100
    },
    {
      "midi": 64,
      "hit": false,
      "t": 238500,
      "d": 1500,
      "v": 100
    },
    {
      "midi": 57,
      "hit": false,
      "t": 240000,
      "d": 2250,
      "v": 100
    },
    {
      "midi": 61,
      "hit": false,
      "t": 240000,
      "d": 4500,
      "v": 100
    },
    {
      "midi": 66,
      "hit": false,
      "t": 240000,
      "d": 4500,
      "v": 100
    },
    {
      "midi": 57,
      "hit": false,
      "t": 242250,
      "d": 750,
      "v": 100
    },
    {
      "midi": 57,
      "hit": false,
      "t": 243000,
      "d": 3000,
      "v": 100
    },
    {
      "midi": 59,
      "hit": false,
      "t": 244500,
      "d": 1500,
      "v": 100
    },
    {
      "midi": 66,
      "hit": false,
      "t": 244500,
      "d": 1500,
      "v": 100
    },
    {
      "midi": 57,
      "hit": false,
      "t": 246000,
      "d": 2250,
      "v": 100
    },
    {
      "midi": 62,
      "hit": false,
      "t": 246000,
      "d": 4500,
      "v": 100
    },
    {
      "midi": 66,
      "hit": false,
      "t": 246000,
      "d": 4500,
      "v": 100
    },
    {
      "midi": 57,
      "hit": false,
      "t": 248250,
      "d": 750,
      "v": 100
    },
    {
      "midi": 57,
      "hit": false,
      "t": 250500,
      "d": 1500,
      "v": 100
    },
    {
      "midi": 62,
      "hit": false,
      "t": 250500,
      "d": 1500,
      "v": 100
    },
    {
      "midi": 66,
      "hit": false,
      "t": 250500,
      "d": 1500,
      "v": 100
    },
    {
      "midi": 59,
      "hit": false,
      "t": 252000,
      "d": 2250,
      "v": 100
    },
    {
      "midi": 64,
      "hit": false,
      "t": 252000,
      "d": 4500,
      "v": 100
    },
    {
      "midi": 68,
      "hit": false,
      "t": 252000,
      "d": 4500,
      "v": 100
    },
    {
      "midi": 59,
      "hit": false,
      "t": 254250,
      "d": 750,
      "v": 100
    },
    {
      "midi": 59,
      "hit": false,
      "t": 256500,
      "d": 1500,
      "v": 100
    },
    {
      "midi": 64,
      "hit": false,
      "t": 256500,
      "d": 1500,
      "v": 100
    },
    {
      "midi": 68,
      "hit": false,
      "t": 256500,
      "d": 1500,
      "v": 100
    },
    {
      "midi": 61,
      "hit": false,
      "t": 258000,
      "d": 6000,
      "v": 100
    },
    {
      "midi": 64,
      "hit": false,
      "t": 258000,
      "d": 6000,
      "v": 100
    },
    {
      "midi": 69,
      "hit": false,
      "t": 258000,
      "d": 6000,
      "v": 100
    },
    {
      "midi": 62,
      "hit": false,
      "t": 264000,
      "d": 6000,
      "v": 100
    },
    {
      "midi": 66,
      "hit": false,
      "t": 264000,
      "d": 6000,
      "v": 100
    },
    {
      "midi": 69,
      "hit": false,
      "t": 264000,
      "d": 6000,
      "v": 100
    },
    {
      "midi": 68,
      "hit": false,
      "t": 270000,
      "d": 6000,
      "v": 100
    },
    {
      "midi": 56,
      "hit": false,
      "t": 274125,
      "d": 1125,
      "v": 100
    },
    {
      "midi": 64,
      "hit": false,
      "t": 274125,
      "d": 1125,
      "v": 100
    },
    {
      "midi": 54,
      "hit": false,
      "t": 275250,
      "d": 750,
      "v": 100
    },
    {
      "midi": 62,
      "hit": false,
      "t": 275250,
      "d": 750,
      "v": 100
    },
    {
      "midi": 54,
      "hit": false,
      "t": 276000,
      "d": 750,
      "v": 100
    },
    {
      "midi": 62,
      "hit": false,
      "t": 276000,
      "d": 750,
      "v": 100
    },
    {
      "midi": 52,
      "hit": false,
      "t": 276750,
      "d": 2250,
      "v": 100
    },
    {
      "midi": 57,
      "hit": false,
      "t": 276750,
      "d": 2250,
      "v": 100
    },
    {
      "midi": 61,
      "hit": false,
      "t": 276750,
      "d": 2250,
      "v": 100
    },
    {
      "midi": 42,
      "hit": false,
      "t": 279000,
      "d": 750,
      "v": 100
    },
    {
      "midi": 47,
      "hit": false,
      "t": 279750,
      "d": 1500,
      "v": 100
    },
    {
      "midi": 45,
      "hit": false,
      "t": 281250,
      "d": 750,
      "v": 100
    },
    {
      "midi": 61,
      "hit": false,
      "t": 282000,
      "d": 3000,
      "v": 100
    },
    {
      "midi": 64,
      "hit": false,
      "t": 282000,
      "d": 3000,
      "v": 100
    },
    {
      "midi": 69,
      "hit": false,
      "t": 282000,
      "d": 3000,
      "v": 100
    },
    {
      "midi": 59,
      "hit": false,
      "t": 285000,
      "d": 1500,
      "v": 100
    },
    {
      "midi": 64,
      "hit": false,
      "t": 285000,
      "d": 1500,
      "v": 100
    },
    {
      "midi": 61,
      "hit": false,
      "t": 286500,
      "d": 1500,
      "v": 100
    },
    {
      "midi": 64,
      "hit": false,
      "t": 286500,
      "d": 1500,
      "v": 100
    },
    {
      "midi": 62,
      "hit": false,
      "t": 288000,
      "d": 6000,
      "v": 100
    },
    {
      "midi": 66,
      "hit": false,
      "t": 288000,
      "d": 6000,
      "v": 100
    },
    {
      "midi": 69,
      "hit": false,
      "t": 288000,
      "d": 6000,
      "v": 100
    },
    {
      "midi": 69,
      "hit": false,
      "t": 295500,
      "d": 1500,
      "v": 100
    },
    {
      "midi": 78,
      "hit": false,
      "t": 295500,
      "d": 1500,
      "v": 100
    },
    {
      "midi": 71,
      "hit": false,
      "t": 297000,
      "d": 1500,
      "v": 100
    },
    {
      "midi": 80,
      "hit": false,
      "t": 297000,
      "d": 1500,
      "v": 100
    },
    {
      "midi": 69,
      "hit": false,
      "t": 298500,
      "d": 1500,
      "v": 100
    },
    {
      "midi": 73,
      "hit": false,
      "t": 298500,
      "d": 1500,
      "v": 100
    },
    {
      "midi": 81,
      "hit": false,
      "t": 298500,
      "d": 1500,
      "v": 100
    },
    {
      "midi": 38,
      "hit": false,
      "t": 300000,
      "d": 6000,
      "v": 100
    },
    {
      "midi": 69,
      "hit": false,
      "t": 301500,
      "d": 1500,
      "v": 100
    },
    {
      "midi": 78,
      "hit": false,
      "t": 301500,
      "d": 1500,
      "v": 100
    },
    {
      "midi": 71,
      "hit": false,
      "t": 303000,
      "d": 1500,
      "v": 100
    },
    {
      "midi": 80,
      "hit": false,
      "t": 303000,
      "d": 1500,
      "v": 100
    },
    {
      "midi": 69,
      "hit": false,
      "t": 304500,
      "d": 1500,
      "v": 100
    },
    {
      "midi": 73,
      "hit": false,
      "t": 304500,
      "d": 1500,
      "v": 100
    },
    {
      "midi": 81,
      "hit": false,
      "t": 304500,
      "d": 1500,
      "v": 100
    },
    {
      "midi": 45,
      "hit": false,
      "t": 306000,
      "d": 6000,
      "v": 100
    },
    {
      "midi": 73,
      "hit": false,
      "t": 307500,
      "d": 1500,
      "v": 100
    },
    {
      "midi": 81,
      "hit": false,
      "t": 307500,
      "d": 1500,
      "v": 100
    },
    {
      "midi": 74,
      "hit": false,
      "t": 309000,
      "d": 1500,
      "v": 100
    },
    {
      "midi": 83,
      "hit": false,
      "t": 309000,
      "d": 1500,
      "v": 100
    },
    {
      "midi": 69,
      "hit": false,
      "t": 310500,
      "d": 1500,
      "v": 100
    },
    {
      "midi": 76,
      "hit": false,
      "t": 310500,
      "d": 1500,
      "v": 100
    },
    {
      "midi": 85,
      "hit": false,
      "t": 310500,
      "d": 1500,
      "v": 100
    },
    {
      "midi": 64,
      "hit": false,
      "t": 312000,
      "d": 2250,
      "v": 100
    },
    {
      "midi": 83,
      "hit": false,
      "t": 313125,
      "d": 375,
      "v": 100
    },
    {
      "midi": 81,
      "hit": false,
      "t": 313500,
      "d": 375,
      "v": 100
    },
    {
      "midi": 80,
      "hit": false,
      "t": 313875,
      "d": 375,
      "v": 100
    },
    {
      "midi": 78,
      "hit": false,
      "t": 314250,
      "d": 375,
      "v": 100
    },
    {
      "midi": 76,
      "hit": false,
      "t": 314625,
      "d": 375,
      "v": 100
    },
    {
      "midi": 71,
      "hit": false,
      "t": 315000,
      "d": 375,
      "v": 100
    },
    {
      "midi": 69,
      "hit": false,
      "t": 315375,
      "d": 375,
      "v": 100
    },
    {
      "midi": 68,
      "hit": false,
      "t": 315750,
      "d": 375,
      "v": 100
    },
    {
      "midi": 64,
      "hit": false,
      "t": 316125,
      "d": 375,
      "v": 100
    },
    {
      "midi": 59,
      "hit": false,
      "t": 316500,
      "d": 375,
      "v": 100
    },
    {
      "midi": 57,
      "hit": false,
      "t": 316875,
      "d": 375,
      "v": 100
    },
    {
      "midi": 56,
      "hit": false,
      "t": 317250,
      "d": 375,
      "v": 100
    },
    {
      "midi": 52,
      "hit": false,
      "t": 317625,
      "d": 375,
      "v": 100
    },
    {
      "midi": 59,
      "hit": false,
      "t": 324000,
      "d": 2250,
      "v": 100
    },
    {
      "midi": 63,
      "hit": false,
      "t": 324000,
      "d": 2250,
      "v": 100
    },
    {
      "midi": 66,
      "hit": false,
      "t": 324000,
      "d": 2250,
      "v": 100
    },
    {
      "midi": 71,
      "hit": false,
      "t": 325500,
      "d": 750,
      "v": 100
    },
    {
      "midi": 59,
      "hit": false,
      "t": 326250,
      "d": 750,
      "v": 100
    },
    {
      "midi": 63,
      "hit": false,
      "t": 326250,
      "d": 750,
      "v": 100
    },
    {
      "midi": 71,
      "hit": false,
      "t": 327000,
      "d": 750,
      "v": 100
    },
    {
      "midi": 59,
      "hit": false,
      "t": 327000,
      "d": 3000,
      "v": 100
    },
    {
      "midi": 63,
      "hit": false,
      "t": 327000,
      "d": 3000,
      "v": 100
    },
    {
      "midi": 66,
      "hit": false,
      "t": 327750,
      "d": 750,
      "v": 100
    },
    {
      "midi": 73,
      "hit": false,
      "t": 327750,
      "d": 750,
      "v": 100
    },
    {
      "midi": 66,
      "hit": false,
      "t": 328500,
      "d": 1500,
      "v": 100
    },
    {
      "midi": 73,
      "hit": false,
      "t": 328500,
      "d": 1500,
      "v": 100
    },
    {
      "midi": 59,
      "hit": false,
      "t": 330000,
      "d": 750,
      "v": 100
    },
    {
      "midi": 66,
      "hit": false,
      "t": 330000,
      "d": 750,
      "v": 100
    },
    {
      "midi": 64,
      "hit": false,
      "t": 330750,
      "d": 750,
      "v": 100
    },
    {
      "midi": 59,
      "hit": false,
      "t": 331500,
      "d": 750,
      "v": 100
    },
    {
      "midi": 63,
      "hit": false,
      "t": 331500,
      "d": 750,
      "v": 100
    },
    {
      "midi": 61,
      "hit": false,
      "t": 332250,
      "d": 750,
      "v": 100
    },
    {
      "midi": 66,
      "hit": false,
      "t": 332250,
      "d": 750,
      "v": 100
    },
    {
      "midi": 70,
      "hit": false,
      "t": 332250,
      "d": 750,
      "v": 100
    },
    {
      "midi": 66,
      "hit": false,
      "t": 333000,
      "d": 1500,
      "v": 100
    },
    {
      "midi": 70,
      "hit": false,
      "t": 333000,
      "d": 1500,
      "v": 100
    },
    {
      "midi": 61,
      "hit": false,
      "t": 334500,
      "d": 375,
      "v": 100
    },
    {
      "midi": 70,
      "hit": false,
      "t": 334500,
      "d": 375,
      "v": 100
    },
    {
      "midi": 63,
      "hit": false,
      "t": 334875,
      "d": 375,
      "v": 100
    },
    {
      "midi": 71,
      "hit": false,
      "t": 334875,
      "d": 375,
      "v": 100
    },
    {
      "midi": 61,
      "hit": false,
      "t": 335250,
      "d": 750,
      "v": 100
    },
    {
      "midi": 70,
      "hit": false,
      "t": 335250,
      "d": 750,
      "v": 100
    },
    {
      "midi": 52,
      "hit": false,
      "t": 336000,
      "d": 1500,
      "v": 100
    },
    {
      "midi": 59,
      "hit": false,
      "t": 336000,
      "d": 1500,
      "v": 100
    },
    {
      "midi": 68,
      "hit": false,
      "t": 336000,
      "d": 1500,
      "v": 100
    },
    {
      "midi": 56,
      "hit": false,
      "t": 337500,
      "d": 1500,
      "v": 100
    },
    {
      "midi": 64,
      "hit": false,
      "t": 338250,
      "d": 375,
      "v": 100
    },
    {
      "midi": 64,
      "hit": false,
      "t": 338625,
      "d": 375,
      "v": 100
    },
    {
      "midi": 66,
      "hit": false,
      "t": 338625,
      "d": 375,
      "v": 100
    },
    {
      "midi": 64,
      "hit": false,
      "t": 339000,
      "d": 750,
      "v": 100
    },
    {
      "midi": 66,
      "hit": false,
      "t": 339000,
      "d": 750,
      "v": 100
    },
    {
      "midi": 64,
      "hit": false,
      "t": 339750,
      "d": 2250,
      "v": 100
    },
    {
      "midi": 68,
      "hit": false,
      "t": 339750,
      "d": 2250,
      "v": 100
    },
    {
      "midi": 58,
      "hit": false,
      "t": 342000,
      "d": 750,
      "v": 100
    },
    {
      "midi": 66,
      "hit": false,
      "t": 342000,
      "d": 750,
      "v": 100
    },
    {
      "midi": 59,
      "hit": false,
      "t": 342750,
      "d": 750,
      "v": 100
    },
    {
      "midi": 68,
      "hit": false,
      "t": 342750,
      "d": 750,
      "v": 100
    },
    {
      "midi": 58,
      "hit": false,
      "t": 343500,
      "d": 362.5,
      "v": 100
    },
    {
      "midi": 66,
      "hit": false,
      "t": 343500,
      "d": 362.5,
      "v": 100
    },
    {
      "midi": 70,
      "hit": false,
      "t": 344250,
      "d": 2250,
      "v": 100
    },
    {
      "midi": 73,
      "hit": false,
      "t": 344250,
      "d": 2250,
      "v": 100
    },
    {
      "midi": 66,
      "hit": false,
      "t": 344250,
      "d": 2362.5,
      "v": 100
    },
    {
      "midi": 44,
      "hit": false,
      "t": 346500,
      "d": 750,
      "v": 100
    },
    {
      "midi": 64,
      "hit": false,
      "t": 346500,
      "d": 750,
      "v": 100
    },
    {
      "midi": 68,
      "hit": false,
      "t": 346500,
      "d": 750,
      "v": 100
    },
    {
      "midi": 42,
      "hit": false,
      "t": 347250,
      "d": 750,
      "v": 100
    },
    {
      "midi": 66,
      "hit": false,
      "t": 347250,
      "d": 750,
      "v": 100
    },
    {
      "midi": 70,
      "hit": false,
      "t": 347250,
      "d": 750,
      "v": 100
    },
    {
      "midi": 40,
      "hit": false,
      "t": 348000,
      "d": 3000,
      "v": 100
    },
    {
      "midi": 59,
      "hit": false,
      "t": 348000,
      "d": 3000,
      "v": 100
    },
    {
      "midi": 64,
      "hit": false,
      "t": 348000,
      "d": 3000,
      "v": 100
    },
    {
      "midi": 68,
      "hit": false,
      "t": 348000,
      "d": 3000,
      "v": 100
    },
    {
      "midi": 68,
      "hit": false,
      "t": 351000,
      "d": 750,
      "v": 100
    },
    {
      "midi": 71,
      "hit": false,
      "t": 351000,
      "d": 750,
      "v": 100
    },
    {
      "midi": 66,
      "hit": false,
      "t": 351750,
      "d": 750,
      "v": 100
    },
    {
      "midi": 70,
      "hit": false,
      "t": 351750,
      "d": 750,
      "v": 100
    },
    {
      "midi": 64,
      "hit": false,
      "t": 352500,
      "d": 750,
      "v": 100
    },
    {
      "midi": 68,
      "hit": false,
      "t": 352500,
      "d": 750,
      "v": 100
    },
    {
      "midi": 63,
      "hit": false,
      "t": 353250,
      "d": 750,
      "v": 100
    },
    {
      "midi": 78,
      "hit": false,
      "t": 353250,
      "d": 750,
      "v": 100
    },
    {
      "midi": 66,
      "hit": false,
      "t": 354000,
      "d": 2250,
      "v": 100
    },
    {
      "midi": 71,
      "hit": false,
      "t": 354000,
      "d": 2250,
      "v": 100
    },
    {
      "midi": 63,
      "hit": false,
      "t": 355500,
      "d": 750,
      "v": 100
    },
    {
      "midi": 61,
      "hit": false,
      "t": 357000,
      "d": 750,
      "v": 100
    },
    {
      "midi": 64,
      "hit": false,
      "t": 357000,
      "d": 3000,
      "v": 100
    },
    {
      "midi": 68,
      "hit": false,
      "t": 357000,
      "d": 3000,
      "v": 100
    },
    {
      "midi": 61,
      "hit": false,
      "t": 357750,
      "d": 2250,
      "v": 100
    },
    {
      "midi": 56,
      "hit": false,
      "t": 359250,
      "d": 750,
      "v": 100
    },
    {
      "midi": 54,
      "hit": false,
      "t": 360000,
      "d": 750,
      "v": 100
    },
    {
      "midi": 71,
      "hit": false,
      "t": 360000,
      "d": 750,
      "v": 100
    },
    {
      "midi": 70,
      "hit": false,
      "t": 360750,
      "d": 750,
      "v": 100
    },
    {
      "midi": 68,
      "hit": false,
      "t": 361500,
      "d": 750,
      "v": 100
    },
    {
      "midi": 66,
      "hit": false,
      "t": 362250,
      "d": 750,
      "v": 100
    },
    {
      "midi": 70,
      "hit": false,
      "t": 362250,
      "d": 750,
      "v": 100
    },
    {
      "midi": 64,
      "hit": false,
      "t": 363000,
      "d": 3000,
      "v": 100
    },
    {
      "midi": 68,
      "hit": false,
      "t": 363000,
      "d": 3000,
      "v": 100
    },
    {
      "midi": 59,
      "hit": false,
      "t": 365625,
      "d": 375,
      "v": 100
    },
    {
      "midi": 54,
      "hit": false,
      "t": 366000,
      "d": 750,
      "v": 100
    },
    {
      "midi": 59,
      "hit": false,
      "t": 366000,
      "d": 750,
      "v": 100
    },
    {
      "midi": 59,
      "hit": false,
      "t": 366750,
      "d": 1875,
      "v": 100
    },
    {
      "midi": 56,
      "hit": false,
      "t": 366750,
      "d": 2250,
      "v": 100
    },
    {
      "midi": 71,
      "hit": false,
      "t": 369000,
      "d": 750,
      "v": 100
    },
    {
      "midi": 80,
      "hit": false,
      "t": 369000,
      "d": 750,
      "v": 100
    },
    {
      "midi": 59,
      "hit": false,
      "t": 369000,
      "d": 1500,
      "v": 100
    },
    {
      "midi": 70,
      "hit": false,
      "t": 369750,
      "d": 750,
      "v": 100
    },
    {
      "midi": 78,
      "hit": false,
      "t": 369750,
      "d": 750,
      "v": 100
    },
    {
      "midi": 59,
      "hit": false,
      "t": 370500,
      "d": 750,
      "v": 100
    },
    {
      "midi": 68,
      "hit": false,
      "t": 370500,
      "d": 750,
      "v": 100
    },
    {
      "midi": 76,
      "hit": false,
      "t": 370500,
      "d": 750,
      "v": 100
    },
    {
      "midi": 59,
      "hit": false,
      "t": 371250,
      "d": 3750,
      "v": 100
    },
    {
      "midi": 66,
      "hit": false,
      "t": 371250,
      "d": 3750,
      "v": 100
    },
    {
      "midi": 75,
      "hit": false,
      "t": 371250,
      "d": 3750,
      "v": 100
    },
    {
      "midi": 61,
      "hit": false,
      "t": 375000,
      "d": 3000,
      "v": 100
    },
    {
      "midi": 64,
      "hit": false,
      "t": 375000,
      "d": 3000,
      "v": 100
    },
    {
      "midi": 68,
      "hit": false,
      "t": 375000,
      "d": 3000,
      "v": 100
    },
    {
      "midi": 54,
      "hit": false,
      "t": 378000,
      "d": 3000,
      "v": 100
    },
    {
      "midi": 61,
      "hit": false,
      "t": 378000,
      "d": 3000,
      "v": 100
    },
    {
      "midi": 64,
      "hit": false,
      "t": 381000,
      "d": 6000,
      "v": 100
    },
    {
      "midi": 66,
      "hit": false,
      "t": 381025,
      "d": 5975,
      "v": 100
    },
    {
      "midi": 68,
      "hit": false,
      "t": 381050,
      "d": 5950,
      "v": 100
    },
    {
      "midi": 71,
      "hit": false,
      "t": 381075,
      "d": 5925,
      "v": 100
    },
    {
      "midi": 71,
      "hit": false,
      "t": 393000,
      "d": 6000,
      "v": 100
    },
    {
      "midi": 73,
      "hit": false,
      "t": 393025,
      "d": 5975,
      "v": 100
    },
    {
      "midi": 75,
      "hit": false,
      "t": 393050,
      "d": 5950,
      "v": 100
    },
    {
      "midi": 78,
      "hit": false,
      "t": 393075,
      "d": 5925,
      "v": 100
    }
  ]
}