{
  "jsonPath": "Unknown/Unknown/Tom Jones  Mousse T/sexbomb.json",
  "path": "Unknown\\Unknown\\Tom Jones  Mousse T\\Sexbomb.mid",
  "name": "Sexbomb",
  "difficulty": "Advanced",
  "bpm": 124.000248000496,
  "notes": [
    {
      "midi": 59,
      "hit": false,
      "t": 3872.976125,
      "d": 347.7815625000003,
      "v": 117
    },
    {
      "midi": 63,
      "hit": false,
      "t": 3872.976125,
      "d": 347.7815625000003,
      "v": 121
    },
    {
      "midi": 66,
      "hit": false,
      "t": 3872.976125,
      "d": 354.83800000000065,
      "v": 122
    },
    {
      "midi": 56,
      "hit": false,
      "t": 3872.976125,
      "d": 362.90250000000106,
      "v": 122
    },
    {
      "midi": 59,
      "hit": false,
      "t": 4356.846125000001,
      "d": 297.3784375000005,
      "v": 119
    },
    {
      "midi": 63,
      "hit": false,
      "t": 4356.846125000001,
      "d": 309.4751875000002,
      "v": 122
    },
    {
      "midi": 66,
      "hit": false,
      "t": 4356.846125000001,
      "d": 314.51550000000043,
      "v": 122
    },
    {
      "midi": 56,
      "hit": false,
      "t": 4356.846125000001,
      "d": 349.7976875000004,
      "v": 122
    },
    {
      "midi": 59,
      "hit": false,
      "t": 4840.716125000002,
      "d": 75.60468750000018,
      "v": 119
    },
    {
      "midi": 67,
      "hit": false,
      "t": 4840.716125000002,
      "d": 85.68531249999978,
      "v": 122
    },
    {
      "midi": 63,
      "hit": false,
      "t": 4840.716125000002,
      "d": 90.72562500000004,
      "v": 124
    },
    {
      "midi": 56,
      "hit": false,
      "t": 4840.716125000002,
      "d": 97.7820625000004,
      "v": 122
    },
    {
      "midi": 56,
      "hit": false,
      "t": 5082.651125000002,
      "d": 337.7009374999998,
      "v": 123
    },
    {
      "midi": 59,
      "hit": false,
      "t": 5082.651125000002,
      "d": 344.75737500000014,
      "v": 122
    },
    {
      "midi": 63,
      "hit": false,
      "t": 5082.651125000002,
      "d": 347.7815625000003,
      "v": 122
    },
    {
      "midi": 67,
      "hit": false,
      "t": 5082.651125000002,
      "d": 354.83800000000065,
      "v": 122
    },
    {
      "midi": 59,
      "hit": false,
      "t": 5566.521125000003,
      "d": 614.9181250000001,
      "v": 121
    },
    {
      "midi": 63,
      "hit": false,
      "t": 5566.521125000003,
      "d": 614.9181250000001,
      "v": 121
    },
    {
      "midi": 68,
      "hit": false,
      "t": 5566.521125000003,
      "d": 621.9745625000005,
      "v": 124
    },
    {
      "midi": 56,
      "hit": false,
      "t": 5566.521125000003,
      "d": 647.1761250000009,
      "v": 123
    },
    {
      "midi": 63,
      "hit": false,
      "t": 6292.326125000004,
      "d": 75.60468750000018,
      "v": 122
    },
    {
      "midi": 59,
      "hit": false,
      "t": 6292.326125000004,
      "d": 80.64500000000044,
      "v": 115
    },
    {
      "midi": 68,
      "hit": false,
      "t": 6292.326125000004,
      "d": 102.82237500000065,
      "v": 123
    },
    {
      "midi": 56,
      "hit": false,
      "t": 6292.326125000004,
      "d": 110.88687500000106,
      "v": 121
    },
    {
      "midi": 59,
      "hit": false,
      "t": 6534.261125000005,
      "d": 559.4746875000001,
      "v": 122
    },
    {
      "midi": 56,
      "hit": false,
      "t": 6534.261125000005,
      "d": 561.4908125000002,
      "v": 123
    },
    {
      "midi": 67,
      "hit": false,
      "t": 6534.261125000005,
      "d": 561.4908125000002,
      "v": 122
    },
    {
      "midi": 63,
      "hit": false,
      "t": 6534.261125000005,
      "d": 564.5150000000003,
      "v": 123
    },
    {
      "midi": 59,
      "hit": false,
      "t": 7260.066125000006,
      "d": 354.83799999999974,
      "v": 122
    },
    {
      "midi": 63,
      "hit": false,
      "t": 7260.066125000006,
      "d": 362.90250000000015,
      "v": 122
    },
    {
      "midi": 56,
      "hit": false,
      "t": 7260.066125000006,
      "d": 367.9428125000004,
      "v": 123
    },
    {
      "midi": 67,
      "hit": false,
      "t": 7260.066125000006,
      "d": 380.0395625000001,
      "v": 122
    },
    {
      "midi": 59,
      "hit": false,
      "t": 7743.936125000006,
      "d": 347.7815625000003,
      "v": 117
    },
    {
      "midi": 63,
      "hit": false,
      "t": 7743.936125000006,
      "d": 347.7815625000003,
      "v": 121
    },
    {
      "midi": 66,
      "hit": false,
      "t": 7743.936125000006,
      "d": 354.83800000000065,
      "v": 122
    },
    {
      "midi": 56,
      "hit": false,
      "t": 7743.936125000006,
      "d": 362.90250000000106,
      "v": 122
    },
    {
      "midi": 59,
      "hit": false,
      "t": 8227.806125000006,
      "d": 297.37843749999956,
      "v": 119
    },
    {
      "midi": 63,
      "hit": false,
      "t": 8227.806125000006,
      "d": 309.4751875000002,
      "v": 122
    },
    {
      "midi": 66,
      "hit": false,
      "t": 8227.806125000006,
      "d": 314.5154999999995,
      "v": 122
    },
    {
      "midi": 56,
      "hit": false,
      "t": 8227.806125000006,
      "d": 349.7976875000004,
      "v": 122
    },
    {
      "midi": 59,
      "hit": false,
      "t": 8711.676125000007,
      "d": 75.60468749999927,
      "v": 119
    },
    {
      "midi": 67,
      "hit": false,
      "t": 8711.676125000007,
      "d": 85.68531249999978,
      "v": 122
    },
    {
      "midi": 63,
      "hit": false,
      "t": 8711.676125000007,
      "d": 90.72562499999913,
      "v": 124
    },
    {
      "midi": 56,
      "hit": false,
      "t": 8711.676125000007,
      "d": 97.78206249999857,
      "v": 122
    },
    {
      "midi": 56,
      "hit": false,
      "t": 8953.611125000007,
      "d": 337.7009374999998,
      "v": 123
    },
    {
      "midi": 59,
      "hit": false,
      "t": 8953.611125000007,
      "d": 344.75737499999923,
      "v": 122
    },
    {
      "midi": 63,
      "hit": false,
      "t": 8953.611125000007,
      "d": 347.7815624999985,
      "v": 122
    },
    {
      "midi": 67,
      "hit": false,
      "t": 8953.611125000007,
      "d": 354.8379999999979,
      "v": 122
    },
    {
      "midi": 59,
      "hit": false,
      "t": 9437.481125000004,
      "d": 614.9181250000001,
      "v": 121
    },
    {
      "midi": 63,
      "hit": false,
      "t": 9437.481125000004,
      "d": 614.9181250000001,
      "v": 121
    },
    {
      "midi": 68,
      "hit": false,
      "t": 9437.481125000004,
      "d": 621.9745624999996,
      "v": 124
    },
    {
      "midi": 56,
      "hit": false,
      "t": 9437.481125000004,
      "d": 647.176125,
      "v": 123
    },
    {
      "midi": 63,
      "hit": false,
      "t": 10163.286125000004,
      "d": 75.60468749999927,
      "v": 122
    },
    {
      "midi": 59,
      "hit": false,
      "t": 10163.286125000004,
      "d": 80.64499999999862,
      "v": 115
    },
    {
      "midi": 68,
      "hit": false,
      "t": 10163.286125000004,
      "d": 102.82237499999792,
      "v": 123
    },
    {
      "midi": 56,
      "hit": false,
      "t": 10163.286125000004,
      "d": 110.88687499999833,
      "v": 121
    },
    {
      "midi": 59,
      "hit": false,
      "t": 10405.221125000002,
      "d": 559.4746875000001,
      "v": 122
    },
    {
      "midi": 56,
      "hit": false,
      "t": 10405.221125000002,
      "d": 561.4908125000002,
      "v": 123
    },
    {
      "midi": 67,
      "hit": false,
      "t": 10405.221125000002,
      "d": 561.4908125000002,
      "v": 122
    },
    {
      "midi": 63,
      "hit": false,
      "t": 10405.221125000002,
      "d": 564.5149999999994,
      "v": 123
    },
    {
      "midi": 59,
      "hit": false,
      "t": 11131.026125000002,
      "d": 354.83799999999974,
      "v": 122
    },
    {
      "midi": 63,
      "hit": false,
      "t": 11131.026125000002,
      "d": 362.90250000000015,
      "v": 122
    },
    {
      "midi": 56,
      "hit": false,
      "t": 11131.026125000002,
      "d": 367.9428124999995,
      "v": 123
    },
    {
      "midi": 67,
      "hit": false,
      "t": 11131.026125000002,
      "d": 380.0395625000001,
      "v": 122
    },
    {
      "midi": 59,
      "hit": false,
      "t": 11614.896125000003,
      "d": 347.7815625000003,
      "v": 117
    },
    {
      "midi": 63,
      "hit": false,
      "t": 11614.896125000003,
      "d": 347.7815625000003,
      "v": 121
    },
    {
      "midi": 66,
      "hit": false,
      "t": 11614.896125000003,
      "d": 354.83799999999974,
      "v": 122
    },
    {
      "midi": 56,
      "hit": false,
      "t": 11614.896125000003,
      "d": 362.90250000000015,
      "v": 122
    },
    {
      "midi": 59,
      "hit": false,
      "t": 12098.766125000004,
      "d": 297.37843749999956,
      "v": 119
    },
    {
      "midi": 63,
      "hit": false,
      "t": 12098.766125000004,
      "d": 309.4751875000002,
      "v": 122
    },
    {
      "midi": 66,
      "hit": false,
      "t": 12098.766125000004,
      "d": 314.5154999999995,
      "v": 122
    },
    {
      "midi": 56,
      "hit": false,
      "t": 12098.766125000004,
      "d": 349.7976875000004,
      "v": 122
    },
    {
      "midi": 59,
      "hit": false,
      "t": 12582.636125000005,
      "d": 75.60468749999927,
      "v": 119
    },
    {
      "midi": 67,
      "hit": false,
      "t": 12582.636125000005,
      "d": 85.68531249999978,
      "v": 122
    },
    {
      "midi": 63,
      "hit": false,
      "t": 12582.636125000005,
      "d": 90.72562499999913,
      "v": 124
    },
    {
      "midi": 56,
      "hit": false,
      "t": 12582.636125000005,
      "d": 97.78206249999857,
      "v": 122
    },
    {
      "midi": 56,
      "hit": false,
      "t": 12824.571125000002,
      "d": 337.7009374999998,
      "v": 123
    },
    {
      "midi": 59,
      "hit": false,
      "t": 12824.571125000002,
      "d": 344.75737499999923,
      "v": 122
    },
    {
      "midi": 63,
      "hit": false,
      "t": 12824.571125000002,
      "d": 347.7815624999985,
      "v": 122
    },
    {
      "midi": 67,
      "hit": false,
      "t": 12824.571125000002,
      "d": 354.8379999999979,
      "v": 122
    },
    {
      "midi": 59,
      "hit": false,
      "t": 13308.441125,
      "d": 614.9181250000001,
      "v": 121
    },
    {
      "midi": 63,
      "hit": false,
      "t": 13308.441125,
      "d": 614.9181250000001,
      "v": 121
    },
    {
      "midi": 68,
      "hit": false,
      "t": 13308.441125,
      "d": 621.9745624999996,
      "v": 124
    },
    {
      "midi": 56,
      "hit": false,
      "t": 13308.441125,
      "d": 647.176125,
      "v": 123
    },
    {
      "midi": 63,
      "hit": false,
      "t": 14034.246125,
      "d": 75.60468749999927,
      "v": 122
    },
    {
      "midi": 59,
      "hit": false,
      "t": 14034.246125,
      "d": 80.64499999999862,
      "v": 115
    },
    {
      "midi": 68,
      "hit": false,
      "t": 14034.246125,
      "d": 102.82237499999792,
      "v": 123
    },
    {
      "midi": 56,
      "hit": false,
      "t": 14034.246125,
      "d": 110.88687499999833,
      "v": 121
    },
    {
      "midi": 59,
      "hit": false,
      "t": 14276.181124999997,
      "d": 559.4746875000001,
      "v": 122
    },
    {
      "midi": 56,
      "hit": false,
      "t": 14276.181124999997,
      "d": 561.4908125000002,
      "v": 123
    },
    {
      "midi": 67,
      "hit": false,
      "t": 14276.181124999997,
      "d": 561.4908125000002,
      "v": 122
    },
    {
      "midi": 63,
      "hit": false,
      "t": 14276.181124999997,
      "d": 564.5149999999994,
      "v": 123
    },
    {
      "midi": 59,
      "hit": false,
      "t": 15001.986124999998,
      "d": 354.83799999999974,
      "v": 122
    },
    {
      "midi": 63,
      "hit": false,
      "t": 15001.986124999998,
      "d": 362.90250000000015,
      "v": 122
    },
    {
      "midi": 56,
      "hit": false,
      "t": 15001.986124999998,
      "d": 367.9428124999995,
      "v": 123
    },
    {
      "midi": 67,
      "hit": false,
      "t": 15001.986124999998,
      "d": 380.0395625000001,
      "v": 122
    },
    {
      "midi": 59,
      "hit": false,
      "t": 15485.856124999998,
      "d": 347.7815625000003,
      "v": 117
    },
    {
      "midi": 63,
      "hit": false,
      "t": 15485.856124999998,
      "d": 347.7815625000003,
      "v": 121
    },
    {
      "midi": 66,
      "hit": false,
      "t": 15485.856124999998,
      "d": 354.83799999999974,
      "v": 122
    },
    {
      "midi": 56,
      "hit": false,
      "t": 15485.856124999998,
      "d": 362.90250000000015,
      "v": 122
    },
    {
      "midi": 59,
      "hit": false,
      "t": 15969.726125,
      "d": 297.37843749999956,
      "v": 119
    },
    {
      "midi": 63,
      "hit": false,
      "t": 15969.726125,
      "d": 309.4751875000002,
      "v": 122
    },
    {
      "midi": 66,
      "hit": false,
      "t": 15969.726125,
      "d": 314.5154999999995,
      "v": 122
    },
    {
      "midi": 56,
      "hit": false,
      "t": 15969.726125,
      "d": 349.7976875000004,
      "v": 122
    },
    {
      "midi": 59,
      "hit": false,
      "t": 16453.596125,
      "d": 75.60468749999927,
      "v": 119
    },
    {
      "midi": 67,
      "hit": false,
      "t": 16453.596125,
      "d": 85.68531249999796,
      "v": 122
    },
    {
      "midi": 63,
      "hit": false,
      "t": 16453.596125,
      "d": 90.72562499999913,
      "v": 124
    },
    {
      "midi": 56,
      "hit": false,
      "t": 16453.596125,
      "d": 97.78206249999857,
      "v": 122
    },
    {
      "midi": 56,
      "hit": false,
      "t": 16695.531124999998,
      "d": 337.7009375000016,
      "v": 123
    },
    {
      "midi": 59,
      "hit": false,
      "t": 16695.531124999998,
      "d": 344.75737500000105,
      "v": 122
    },
    {
      "midi": 63,
      "hit": false,
      "t": 16695.531124999998,
      "d": 347.7815625000003,
      "v": 122
    },
    {
      "midi": 67,
      "hit": false,
      "t": 16695.531124999998,
      "d": 354.83799999999974,
      "v": 122
    },
    {
      "midi": 59,
      "hit": false,
      "t": 17179.401124999997,
      "d": 614.9181250000001,
      "v": 121
    },
    {
      "midi": 63,
      "hit": false,
      "t": 17179.401124999997,
      "d": 614.9181250000001,
      "v": 121
    },
    {
      "midi": 68,
      "hit": false,
      "t": 17179.401124999997,
      "d": 621.9745624999996,
      "v": 124
    },
    {
      "midi": 56,
      "hit": false,
      "t": 17179.401124999997,
      "d": 647.1761249999981,
      "v": 123
    },
    {
      "midi": 63,
      "hit": false,
      "t": 17905.206124999993,
      "d": 75.60468749999927,
      "v": 122
    },
    {
      "midi": 59,
      "hit": false,
      "t": 17905.206124999993,
      "d": 80.64500000000044,
      "v": 115
    },
    {
      "midi": 68,
      "hit": false,
      "t": 17905.206124999993,
      "d": 102.82237499999974,
      "v": 123
    },
    {
      "midi": 56,
      "hit": false,
      "t": 17905.206124999993,
      "d": 110.88687500000015,
      "v": 121
    },
    {
      "midi": 63,
      "hit": false,
      "t": 18147.141124999995,
      "d": 559.4746874999983,
      "v": 122
    },
    {
      "midi": 58,
      "hit": false,
      "t": 18147.141124999995,
      "d": 561.4908124999965,
      "v": 122
    },
    {
      "midi": 70,
      "hit": false,
      "t": 18147.141124999995,
      "d": 561.4908124999965,
      "v": 123
    },
    {
      "midi": 67,
      "hit": false,
      "t": 18147.141124999995,
      "d": 564.5149999999958,
      "v": 123
    },
    {
      "midi": 67,
      "hit": false,
      "t": 18872.94612499999,
      "d": 354.83799999999974,
      "v": 122
    },
    {
      "midi": 63,
      "hit": false,
      "t": 18872.94612499999,
      "d": 362.90250000000015,
      "v": 122
    },
    {
      "midi": 70,
      "hit": false,
      "t": 18872.94612499999,
      "d": 367.9428125000013,
      "v": 123
    },
    {
      "midi": 58,
      "hit": false,
      "t": 18872.94612499999,
      "d": 380.0395625000019,
      "v": 122
    },
    {
      "midi": 59,
      "hit": false,
      "t": 19356.816124999994,
      "d": 1231.8523749999986,
      "v": 125
    },
    {
      "midi": 63,
      "hit": false,
      "t": 19356.816124999994,
      "d": 1244.9571875000001,
      "v": 125
    },
    {
      "midi": 56,
      "hit": false,
      "t": 19356.816124999994,
      "d": 1257.0539375000008,
      "v": 123
    },
    {
      "midi": 44,
      "hit": false,
      "t": 19356.816124999994,
      "d": 1265.1184375000012,
      "v": 125
    },
    {
      "midi": 59,
      "hit": false,
      "t": 20808.426124999994,
      "d": 374.99925000000076,
      "v": 123
    },
    {
      "midi": 56,
      "hit": false,
      "t": 20808.426124999994,
      "d": 378.0234375,
      "v": 121
    },
    {
      "midi": 63,
      "hit": false,
      "t": 20808.426124999994,
      "d": 393.14437499999985,
      "v": 123
    },
    {
      "midi": 44,
      "hit": false,
      "t": 20808.426124999994,
      "d": 478.82968750000146,
      "v": 121
    },
    {
      "midi": 56,
      "hit": false,
      "t": 21292.296124999997,
      "d": 1297.3764374999992,
      "v": 122
    },
    {
      "midi": 64,
      "hit": false,
      "t": 21292.296124999997,
      "d": 1297.3764374999992,
      "v": 123
    },
    {
      "midi": 61,
      "hit": false,
      "t": 21292.296124999997,
      "d": 1300.4006249999984,
      "v": 123
    },
    {
      "midi": 49,
      "hit": false,
      "t": 21292.296124999997,
      "d": 1310.481249999997,
      "v": 124
    },
    {
      "midi": 64,
      "hit": false,
      "t": 22743.906124999994,
      "d": 354.83799999999974,
      "v": 123
    },
    {
      "midi": 61,
      "hit": false,
      "t": 22743.906124999994,
      "d": 372.98312499999884,
      "v": 122
    },
    {
      "midi": 56,
      "hit": false,
      "t": 22743.906124999994,
      "d": 383.0637499999975,
      "v": 121
    },
    {
      "midi": 49,
      "hit": false,
      "t": 22743.906124999994,
      "d": 420.3620624999967,
      "v": 123
    },
    {
      "midi": 59,
      "hit": false,
      "t": 23227.77612499999,
      "d": 1345.7634375000016,
      "v": 123
    },
    {
      "midi": 63,
      "hit": false,
      "t": 23227.77612499999,
      "d": 1360.8843750000015,
      "v": 123
    },
    {
      "midi": 56,
      "hit": false,
      "t": 23227.77612499999,
      "d": 1367.940812500001,
      "v": 123
    },
    {
      "midi": 44,
      "hit": false,
      "t": 23227.77612499999,
      "d": 1372.981125000002,
      "v": 123
    },
    {
      "midi": 56,
      "hit": false,
      "t": 24679.38612499999,
      "d": 372.98312499999884,
      "v": 122
    },
    {
      "midi": 63,
      "hit": false,
      "t": 24679.38612499999,
      "d": 420.3620625000003,
      "v": 123
    },
    {
      "midi": 59,
      "hit": false,
      "t": 24679.38612499999,
      "d": 423.38624999999956,
      "v": 123
    },
    {
      "midi": 44,
      "hit": false,
      "t": 24679.38612499999,
      "d": 468.7490624999991,
      "v": 123
    },
    {
      "midi": 63,
      "hit": false,
      "t": 25163.25612499999,
      "d": 1332.658625,
      "v": 124
    },
    {
      "midi": 58,
      "hit": false,
      "t": 25163.25612499999,
      "d": 1340.7231250000004,
      "v": 124
    },
    {
      "midi": 55,
      "hit": false,
      "t": 25163.25612499999,
      "d": 1360.8843750000015,
      "v": 122
    },
    {
      "midi": 51,
      "hit": false,
      "t": 25163.25612499999,
      "d": 1362.9004999999997,
      "v": 122
    },
    {
      "midi": 58,
      "hit": false,
      "t": 26614.86612499999,
      "d": 405.24112500000047,
      "v": 123
    },
    {
      "midi": 63,
      "hit": false,
      "t": 26614.86612499999,
      "d": 405.24112500000047,
      "v": 124
    },
    {
      "midi": 55,
      "hit": false,
      "t": 26614.86612499999,
      "d": 408.2653124999997,
      "v": 121
    },
    {
      "midi": 51,
      "hit": false,
      "t": 26614.86612499999,
      "d": 438.5071874999994,
      "v": 123
    },
    {
      "midi": 59,
      "hit": false,
      "t": 27098.73612499999,
      "d": 1234.8765625000015,
      "v": 125
    },
    {
      "midi": 63,
      "hit": false,
      "t": 27098.73612499999,
      "d": 1244.9571875000001,
      "v": 125
    },
    {
      "midi": 56,
      "hit": false,
      "t": 27098.73612499999,
      "d": 1257.0539375000008,
      "v": 123
    },
    {
      "midi": 44,
      "hit": false,
      "t": 27098.73612499999,
      "d": 1265.1184375000012,
      "v": 125
    },
    {
      "midi": 59,
      "hit": false,
      "t": 28550.34612499999,
      "d": 378.0234375,
      "v": 123
    },
    {
      "midi": 56,
      "hit": false,
      "t": 28550.34612499999,
      "d": 380.0395624999983,
      "v": 121
    },
    {
      "midi": 63,
      "hit": false,
      "t": 28550.34612499999,
      "d": 393.14437499999985,
      "v": 123
    },
    {
      "midi": 44,
      "hit": false,
      "t": 28550.34612499999,
      "d": 478.82968750000146,
      "v": 121
    },
    {
      "midi": 64,
      "hit": false,
      "t": 29034.21612499999,
      "d": 1295.3603125000009,
      "v": 123
    },
    {
      "midi": 56,
      "hit": false,
      "t": 29034.21612499999,
      "d": 1297.3764374999992,
      "v": 122
    },
    {
      "midi": 61,
      "hit": false,
      "t": 29034.21612499999,
      "d": 1300.4006249999984,
      "v": 123
    },
    {
      "midi": 49,
      "hit": false,
      "t": 29034.21612499999,
      "d": 1307.4570624999978,
      "v": 124
    },
    {
      "midi": 64,
      "hit": false,
      "t": 30485.82612499999,
      "d": 354.83799999999974,
      "v": 123
    },
    {
      "midi": 61,
      "hit": false,
      "t": 30485.82612499999,
      "d": 372.98312499999884,
      "v": 122
    },
    {
      "midi": 56,
      "hit": false,
      "t": 30485.82612499999,
      "d": 383.0637499999975,
      "v": 121
    },
    {
      "midi": 49,
      "hit": false,
      "t": 30485.82612499999,
      "d": 418.3459374999984,
      "v": 123
    },
    {
      "midi": 59,
      "hit": false,
      "t": 30969.696124999988,
      "d": 423.38624999999956,
      "v": 123
    },
    {
      "midi": 63,
      "hit": false,
      "t": 30969.696124999988,
      "d": 428.4265625000007,
      "v": 123
    },
    {
      "midi": 56,
      "hit": false,
      "t": 30969.696124999988,
      "d": 430.442687499999,
      "v": 123
    },
    {
      "midi": 44,
      "hit": false,
      "t": 30969.696124999988,
      "d": 443.5475000000006,
      "v": 123
    },
    {
      "midi": 56,
      "hit": false,
      "t": 31453.566124999987,
      "d": 369.9589374999996,
      "v": 122
    },
    {
      "midi": 63,
      "hit": false,
      "t": 31453.566124999987,
      "d": 420.3620625000003,
      "v": 123
    },
    {
      "midi": 59,
      "hit": false,
      "t": 31453.566124999987,
      "d": 423.38624999999956,
      "v": 123
    },
    {
      "midi": 44,
      "hit": false,
      "t": 31453.566124999987,
      "d": 468.7490624999991,
      "v": 123
    },
    {
      "midi": 67,
      "hit": false,
      "t": 31937.436124999986,
      "d": 70.56437500000175,
      "v": 120
    },
    {
      "midi": 63,
      "hit": false,
      "t": 31937.436124999986,
      "d": 77.6208125000012,
      "v": 122
    },
    {
      "midi": 58,
      "hit": false,
      "t": 31937.436124999986,
      "d": 85.6853125000016,
      "v": 121
    },
    {
      "midi": 51,
      "hit": false,
      "t": 31937.436124999986,
      "d": 95.76593750000029,
      "v": 123
    },
    {
      "midi": 63,
      "hit": false,
      "t": 32179.371124999987,
      "d": 292.3381249999984,
      "v": 123
    },
    {
      "midi": 67,
      "hit": false,
      "t": 32179.371124999987,
      "d": 299.39456249999785,
      "v": 121
    },
    {
      "midi": 58,
      "hit": false,
      "t": 32179.371124999987,
      "d": 309.47518749999654,
      "v": 122
    },
    {
      "midi": 51,
      "hit": false,
      "t": 32179.371124999987,
      "d": 312.4993749999958,
      "v": 126
    },
    {
      "midi": 68,
      "hit": false,
      "t": 32663.241124999982,
      "d": 1567.537187500002,
      "v": 124
    },
    {
      "midi": 63,
      "hit": false,
      "t": 32663.241124999982,
      "d": 1574.593625000005,
      "v": 124
    },
    {
      "midi": 44,
      "hit": false,
      "t": 32663.241124999982,
      "d": 1594.7548750000024,
      "v": 122
    },
    {
      "midi": 59,
      "hit": false,
      "t": 32663.241124999982,
      "d": 1597.7790625000016,
      "v": 122
    },
    {
      "midi": 63,
      "hit": false,
      "t": 34356.786124999984,
      "d": 413.3056250000009,
      "v": 123
    },
    {
      "midi": 59,
      "hit": false,
      "t": 34356.786124999984,
      "d": 415.3217500000028,
      "v": 124
    },
    {
      "midi": 68,
      "hit": false,
      "t": 34356.786124999984,
      "d": 418.34593750000204,
      "v": 121
    },
    {
      "midi": 44,
      "hit": false,
      "t": 34356.786124999984,
      "d": 445.5636250000025,
      "v": 123
    },
    {
      "midi": 59,
      "hit": false,
      "t": 34840.65612499999,
      "d": 1231.8523750000022,
      "v": 125
    },
    {
      "midi": 63,
      "hit": false,
      "t": 34840.65612499999,
      "d": 1244.9571875000038,
      "v": 125
    },
    {
      "midi": 56,
      "hit": false,
      "t": 34840.65612499999,
      "d": 1257.0539375000008,
      "v": 123
    },
    {
      "midi": 44,
      "hit": false,
      "t": 34840.65612499999,
      "d": 1265.1184375000012,
      "v": 125
    },
    {
      "midi": 59,
      "hit": false,
      "t": 36292.26612499999,
      "d": 374.99925000000076,
      "v": 123
    },
    {
      "midi": 56,
      "hit": false,
      "t": 36292.26612499999,
      "d": 378.0234375,
      "v": 121
    },
    {
      "midi": 63,
      "hit": false,
      "t": 36292.26612499999,
      "d": 393.1443750000035,
      "v": 123
    },
    {
      "midi": 44,
      "hit": false,
      "t": 36292.26612499999,
      "d": 478.82968750000146,
      "v": 121
    },
    {
      "midi": 56,
      "hit": false,
      "t": 36776.13612499999,
      "d": 1297.3764375000028,
      "v": 122
    },
    {
      "midi": 64,
      "hit": false,
      "t": 36776.13612499999,
      "d": 1297.3764375000028,
      "v": 123
    },
    {
      "midi": 61,
      "hit": false,
      "t": 36776.13612499999,
      "d": 1300.400625000002,
      "v": 123
    },
    {
      "midi": 49,
      "hit": false,
      "t": 36776.13612499999,
      "d": 1310.4812500000044,
      "v": 124
    },
    {
      "midi": 64,
      "hit": false,
      "t": 38227.746125,
      "d": 354.8380000000034,
      "v": 123
    },
    {
      "midi": 61,
      "hit": false,
      "t": 38227.746125,
      "d": 372.9831250000061,
      "v": 122
    },
    {
      "midi": 56,
      "hit": false,
      "t": 38227.746125,
      "d": 383.06375000000844,
      "v": 121
    },
    {
      "midi": 49,
      "hit": false,
      "t": 38227.746125,
      "d": 420.36206250001123,
      "v": 123
    },
    {
      "midi": 59,
      "hit": false,
      "t": 38711.61612500001,
      "d": 1345.763437499998,
      "v": 123
    },
    {
      "midi": 63,
      "hit": false,
      "t": 38711.61612500001,
      "d": 1360.8843750000015,
      "v": 123
    },
    {
      "midi": 56,
      "hit": false,
      "t": 38711.61612500001,
      "d": 1367.9408125000045,
      "v": 123
    },
    {
      "midi": 44,
      "hit": false,
      "t": 38711.61612500001,
      "d": 1372.9811250000057,
      "v": 123
    },
    {
      "midi": 56,
      "hit": false,
      "t": 40163.226125000016,
      "d": 372.98312499999884,
      "v": 122
    },
    {
      "midi": 63,
      "hit": false,
      "t": 40163.226125000016,
      "d": 420.3620624999967,
      "v": 123
    },
    {
      "midi": 59,
      "hit": false,
      "t": 40163.226125000016,
      "d": 423.3862499999959,
      "v": 123
    },
    {
      "midi": 44,
      "hit": false,
      "t": 40163.226125000016,
      "d": 468.7490624999991,
      "v": 123
    },
    {
      "midi": 63,
      "hit": false,
      "t": 40647.09612500002,
      "d": 1332.6586250000037,
      "v": 124
    },
    {
      "midi": 58,
      "hit": false,
      "t": 40647.09612500002,
      "d": 1340.723125000004,
      "v": 124
    },
    {
      "midi": 55,
      "hit": false,
      "t": 40647.09612500002,
      "d": 1360.8843750000015,
      "v": 122
    },
    {
      "midi": 51,
      "hit": false,
      "t": 40647.09612500002,
      "d": 1362.9005000000034,
      "v": 122
    },
    {
      "midi": 58,
      "hit": false,
      "t": 42098.70612500002,
      "d": 405.24112500000047,
      "v": 123
    },
    {
      "midi": 63,
      "hit": false,
      "t": 42098.70612500002,
      "d": 405.24112500000047,
      "v": 124
    },
    {
      "midi": 55,
      "hit": false,
      "t": 42098.70612500002,
      "d": 408.2653124999997,
      "v": 121
    },
    {
      "midi": 51,
      "hit": false,
      "t": 42098.70612500002,
      "d": 438.5071874999994,
      "v": 123
    },
    {
      "midi": 59,
      "hit": false,
      "t": 42582.57612500002,
      "d": 1234.8765625000015,
      "v": 125
    },
    {
      "midi": 63,
      "hit": false,
      "t": 42582.57612500002,
      "d": 1244.9571875000038,
      "v": 125
    },
    {
      "midi": 56,
      "hit": false,
      "t": 42582.57612500002,
      "d": 1257.0539375000008,
      "v": 123
    },
    {
      "midi": 44,
      "hit": false,
      "t": 42582.57612500002,
      "d": 1265.1184375000012,
      "v": 125
    },
    {
      "midi": 59,
      "hit": false,
      "t": 44034.18612500002,
      "d": 378.0234375,
      "v": 123
    },
    {
      "midi": 56,
      "hit": false,
      "t": 44034.18612500002,
      "d": 380.0395625000019,
      "v": 121
    },
    {
      "midi": 63,
      "hit": false,
      "t": 44034.18612500002,
      "d": 393.1443750000035,
      "v": 123
    },
    {
      "midi": 44,
      "hit": false,
      "t": 44034.18612500002,
      "d": 478.82968750000146,
      "v": 121
    },
    {
      "midi": 64,
      "hit": false,
      "t": 44518.056125000025,
      "d": 1295.3603125000009,
      "v": 123
    },
    {
      "midi": 56,
      "hit": false,
      "t": 44518.056125000025,
      "d": 1297.3764375000028,
      "v": 122
    },
    {
      "midi": 61,
      "hit": false,
      "t": 44518.056125000025,
      "d": 1300.400625000002,
      "v": 123
    },
    {
      "midi": 49,
      "hit": false,
      "t": 44518.056125000025,
      "d": 1307.4570625000051,
      "v": 124
    },
    {
      "midi": 64,
      "hit": false,
      "t": 45969.66612500003,
      "d": 354.8380000000034,
      "v": 123
    },
    {
      "midi": 61,
      "hit": false,
      "t": 45969.66612500003,
      "d": 372.9831250000061,
      "v": 122
    },
    {
      "midi": 56,
      "hit": false,
      "t": 45969.66612500003,
      "d": 383.06375000000844,
      "v": 121
    },
    {
      "midi": 49,
      "hit": false,
      "t": 45969.66612500003,
      "d": 418.3459375000093,
      "v": 123
    },
    {
      "midi": 59,
      "hit": false,
      "t": 46453.53612500004,
      "d": 423.3862500000032,
      "v": 123
    },
    {
      "midi": 63,
      "hit": false,
      "t": 46453.53612500004,
      "d": 428.42656250000437,
      "v": 123
    },
    {
      "midi": 56,
      "hit": false,
      "t": 46453.53612500004,
      "d": 430.4426875000063,
      "v": 123
    },
    {
      "midi": 44,
      "hit": false,
      "t": 46453.53612500004,
      "d": 443.54750000000786,
      "v": 123
    },
    {
      "midi": 56,
      "hit": false,
      "t": 46937.40612500005,
      "d": 369.9589374999996,
      "v": 122
    },
    {
      "midi": 63,
      "hit": false,
      "t": 46937.40612500005,
      "d": 420.3620624999967,
      "v": 123
    },
    {
      "midi": 59,
      "hit": false,
      "t": 46937.40612500005,
      "d": 423.3862499999959,
      "v": 123
    },
    {
      "midi": 44,
      "hit": false,
      "t": 46937.40612500005,
      "d": 468.7490624999991,
      "v": 123
    },
    {
      "midi": 67,
      "hit": false,
      "t": 47421.276125000055,
      "d": 70.56437500000175,
      "v": 120
    },
    {
      "midi": 63,
      "hit": false,
      "t": 47421.276125000055,
      "d": 77.62081250000483,
      "v": 122
    },
    {
      "midi": 58,
      "hit": false,
      "t": 47421.276125000055,
      "d": 85.68531250000524,
      "v": 121
    },
    {
      "midi": 51,
      "hit": false,
      "t": 47421.276125000055,
      "d": 95.76593750000757,
      "v": 123
    },
    {
      "midi": 63,
      "hit": false,
      "t": 47663.21112500006,
      "d": 292.33812500000204,
      "v": 123
    },
    {
      "midi": 67,
      "hit": false,
      "t": 47663.21112500006,
      "d": 299.3945625000051,
      "v": 121
    },
    {
      "midi": 58,
      "hit": false,
      "t": 47663.21112500006,
      "d": 309.47518750000745,
      "v": 122
    },
    {
      "midi": 51,
      "hit": false,
      "t": 47663.21112500006,
      "d": 312.4993750000067,
      "v": 126
    },
    {
      "midi": 68,
      "hit": false,
      "t": 48147.08112500007,
      "d": 1567.5371874999983,
      "v": 124
    },
    {
      "midi": 63,
      "hit": false,
      "t": 48147.08112500007,
      "d": 1574.5936250000013,
      "v": 124
    },
    {
      "midi": 44,
      "hit": false,
      "t": 48147.08112500007,
      "d": 1594.7548749999987,
      "v": 122
    },
    {
      "midi": 59,
      "hit": false,
      "t": 48147.08112500007,
      "d": 1597.779062499998,
      "v": 122
    },
    {
      "midi": 63,
      "hit": false,
      "t": 49840.62612500007,
      "d": 413.3056250000009,
      "v": 123
    },
    {
      "midi": 59,
      "hit": false,
      "t": 49840.62612500007,
      "d": 415.3217500000028,
      "v": 124
    },
    {
      "midi": 68,
      "hit": false,
      "t": 49840.62612500007,
      "d": 418.34593750000204,
      "v": 121
    },
    {
      "midi": 44,
      "hit": false,
      "t": 49840.62612500007,
      "d": 445.5636250000025,
      "v": 123
    },
    {
      "midi": 59,
      "hit": false,
      "t": 50324.49612500007,
      "d": 1231.8523750000022,
      "v": 125
    },
    {
      "midi": 63,
      "hit": false,
      "t": 50324.49612500007,
      "d": 1244.9571875000038,
      "v": 125
    },
    {
      "midi": 56,
      "hit": false,
      "t": 50324.49612500007,
      "d": 1257.0539375000008,
      "v": 123
    },
    {
      "midi": 44,
      "hit": false,
      "t": 50324.49612500007,
      "d": 1265.1184375000012,
      "v": 125
    },
    {
      "midi": 59,
      "hit": false,
      "t": 51776.10612500007,
      "d": 374.99925000000076,
      "v": 123
    },
    {
      "midi": 56,
      "hit": false,
      "t": 51776.10612500007,
      "d": 378.0234375,
      "v": 121
    },
    {
      "midi": 63,
      "hit": false,
      "t": 51776.10612500007,
      "d": 393.1443750000035,
      "v": 123
    },
    {
      "midi": 44,
      "hit": false,
      "t": 51776.10612500007,
      "d": 478.82968750000146,
      "v": 121
    },
    {
      "midi": 56,
      "hit": false,
      "t": 52259.976125000074,
      "d": 1297.3764375000028,
      "v": 122
    },
    {
      "midi": 64,
      "hit": false,
      "t": 52259.976125000074,
      "d": 1297.3764375000028,
      "v": 123
    },
    {
      "midi": 61,
      "hit": false,
      "t": 52259.976125000074,
      "d": 1300.400625000002,
      "v": 123
    },
    {
      "midi": 49,
      "hit": false,
      "t": 52259.976125000074,
      "d": 1310.4812500000044,
      "v": 124
    },
    {
      "midi": 64,
      "hit": false,
      "t": 53711.58612500008,
      "d": 354.8380000000034,
      "v": 123
    },
    {
      "midi": 61,
      "hit": false,
      "t": 53711.58612500008,
      "d": 372.9831250000061,
      "v": 122
    },
    {
      "midi": 56,
      "hit": false,
      "t": 53711.58612500008,
      "d": 383.06375000000844,
      "v": 121
    },
    {
      "midi": 49,
      "hit": false,
      "t": 53711.58612500008,
      "d": 420.36206250001123,
      "v": 123
    },
    {
      "midi": 59,
      "hit": false,
      "t": 54195.45612500009,
      "d": 1345.763437499998,
      "v": 123
    },
    {
      "midi": 63,
      "hit": false,
      "t": 54195.45612500009,
      "d": 1360.8843750000015,
      "v": 123
    },
    {
      "midi": 56,
      "hit": false,
      "t": 54195.45612500009,
      "d": 1367.9408125000045,
      "v": 123
    },
    {
      "midi": 44,
      "hit": false,
      "t": 54195.45612500009,
      "d": 1372.9811250000057,
      "v": 123
    },
    {
      "midi": 56,
      "hit": false,
      "t": 55647.0661250001,
      "d": 372.98312499999884,
      "v": 122
    },
    {
      "midi": 63,
      "hit": false,
      "t": 55647.0661250001,
      "d": 420.3620624999967,
      "v": 123
    },
    {
      "midi": 59,
      "hit": false,
      "t": 55647.0661250001,
      "d": 423.3862499999959,
      "v": 123
    },
    {
      "midi": 44,
      "hit": false,
      "t": 55647.0661250001,
      "d": 468.7490624999991,
      "v": 123
    },
    {
      "midi": 63,
      "hit": false,
      "t": 56130.9361250001,
      "d": 1332.6586250000037,
      "v": 124
    },
    {
      "midi": 58,
      "hit": false,
      "t": 56130.9361250001,
      "d": 1340.723125000004,
      "v": 124
    },
    {
      "midi": 55,
      "hit": false,
      "t": 56130.9361250001,
      "d": 1360.8843750000015,
      "v": 122
    },
    {
      "midi": 51,
      "hit": false,
      "t": 56130.9361250001,
      "d": 1362.9005000000034,
      "v": 122
    },
    {
      "midi": 58,
      "hit": false,
      "t": 57582.5461250001,
      "d": 405.24112500000047,
      "v": 123
    },
    {
      "midi": 63,
      "hit": false,
      "t": 57582.5461250001,
      "d": 405.24112500000047,
      "v": 124
    },
    {
      "midi": 55,
      "hit": false,
      "t": 57582.5461250001,
      "d": 408.2653124999997,
      "v": 121
    },
    {
      "midi": 51,
      "hit": false,
      "t": 57582.5461250001,
      "d": 438.5071874999994,
      "v": 123
    },
    {
      "midi": 59,
      "hit": false,
      "t": 58066.416125000105,
      "d": 1234.8765625000015,
      "v": 125
    },
    {
      "midi": 63,
      "hit": false,
      "t": 58066.416125000105,
      "d": 1244.9571875000038,
      "v": 125
    },
    {
      "midi": 56,
      "hit": false,
      "t": 58066.416125000105,
      "d": 1257.0539375000008,
      "v": 123
    },
    {
      "midi": 44,
      "hit": false,
      "t": 58066.416125000105,
      "d": 1265.1184375000012,
      "v": 125
    },
    {
      "midi": 59,
      "hit": false,
      "t": 59518.026125000106,
      "d": 378.0234375,
      "v": 123
    },
    {
      "midi": 56,
      "hit": false,
      "t": 59518.026125000106,
      "d": 380.0395625000019,
      "v": 121
    },
    {
      "midi": 63,
      "hit": false,
      "t": 59518.026125000106,
      "d": 393.1443750000035,
      "v": 123
    },
    {
      "midi": 44,
      "hit": false,
      "t": 59518.026125000106,
      "d": 478.82968750000146,
      "v": 121
    },
    {
      "midi": 64,
      "hit": false,
      "t": 60001.89612500011,
      "d": 1295.3603125000009,
      "v": 123
    },
    {
      "midi": 56,
      "hit": false,
      "t": 60001.89612500011,
      "d": 1297.3764375000028,
      "v": 122
    },
    {
      "midi": 61,
      "hit": false,
      "t": 60001.89612500011,
      "d": 1300.400625000002,
      "v": 123
    },
    {
      "midi": 49,
      "hit": false,
      "t": 60001.89612500011,
      "d": 1307.4570625000051,
      "v": 124
    },
    {
      "midi": 64,
      "hit": false,
      "t": 61453.506125000116,
      "d": 354.8380000000034,
      "v": 123
    },
    {
      "midi": 61,
      "hit": false,
      "t": 61453.506125000116,
      "d": 372.9831250000061,
      "v": 122
    },
    {
      "midi": 56,
      "hit": false,
      "t": 61453.506125000116,
      "d": 383.06375000000844,
      "v": 121
    },
    {
      "midi": 49,
      "hit": false,
      "t": 61453.506125000116,
      "d": 418.3459375000093,
      "v": 123
    },
    {
      "midi": 59,
      "hit": false,
      "t": 61937.376125000126,
      "d": 423.3862500000032,
      "v": 123
    },
    {
      "midi": 63,
      "hit": false,
      "t": 61937.376125000126,
      "d": 428.42656250000437,
      "v": 123
    },
    {
      "midi": 56,
      "hit": false,
      "t": 61937.376125000126,
      "d": 430.4426875000063,
      "v": 123
    },
    {
      "midi": 44,
      "hit": false,
      "t": 61937.376125000126,
      "d": 443.54750000000786,
      "v": 123
    },
    {
      "midi": 56,
      "hit": false,
      "t": 62421.246125000136,
      "d": 369.9589374999996,
      "v": 122
    },
    {
      "midi": 63,
      "hit": false,
      "t": 62421.246125000136,
      "d": 420.3620624999967,
      "v": 123
    },
    {
      "midi": 59,
      "hit": false,
      "t": 62421.246125000136,
      "d": 423.3862499999959,
      "v": 123
    },
    {
      "midi": 44,
      "hit": false,
      "t": 62421.246125000136,
      "d": 468.7490624999991,
      "v": 123
    },
    {
      "midi": 67,
      "hit": false,
      "t": 62905.11612500014,
      "d": 70.56437500000175,
      "v": 120
    },
    {
      "midi": 63,
      "hit": false,
      "t": 62905.11612500014,
      "d": 77.62081250000483,
      "v": 122
    },
    {
      "midi": 58,
      "hit": false,
      "t": 62905.11612500014,
      "d": 85.68531250000524,
      "v": 121
    },
    {
      "midi": 51,
      "hit": false,
      "t": 62905.11612500014,
      "d": 95.76593750000757,
      "v": 123
    },
    {
      "midi": 63,
      "hit": false,
      "t": 63147.051125000144,
      "d": 292.33812500000204,
      "v": 123
    },
    {
      "midi": 67,
      "hit": false,
      "t": 63147.051125000144,
      "d": 299.3945625000051,
      "v": 121
    },
    {
      "midi": 58,
      "hit": false,
      "t": 63147.051125000144,
      "d": 309.47518750000745,
      "v": 122
    },
    {
      "midi": 51,
      "hit": false,
      "t": 63147.051125000144,
      "d": 312.4993750000067,
      "v": 126
    },
    {
      "midi": 63,
      "hit": false,
      "t": 63630.92112500015,
      "d": 660.2809374999997,
      "v": 124
    },
    {
      "midi": 68,
      "hit": false,
      "t": 63630.92112500015,
      "d": 660.2809374999997,
      "v": 124
    },
    {
      "midi": 44,
      "hit": false,
      "t": 63630.92112500015,
      "d": 662.2970625000016,
      "v": 122
    },
    {
      "midi": 59,
      "hit": false,
      "t": 63630.92112500015,
      "d": 662.2970625000016,
      "v": 122
    },
    {
      "midi": 63,
      "hit": false,
      "t": 64356.726125000154,
      "d": 894.151437499997,
      "v": 124
    },
    {
      "midi": 68,
      "hit": false,
      "t": 64356.726125000154,
      "d": 894.151437499997,
      "v": 124
    },
    {
      "midi": 44,
      "hit": false,
      "t": 64356.726125000154,
      "d": 897.1756249999962,
      "v": 122
    },
    {
      "midi": 59,
      "hit": false,
      "t": 64356.726125000154,
      "d": 897.1756249999962,
      "v": 122
    },
    {
      "midi": 63,
      "hit": false,
      "t": 65324.46612500015,
      "d": 413.3056249999936,
      "v": 123
    },
    {
      "midi": 59,
      "hit": false,
      "t": 65324.46612500015,
      "d": 415.32174999998824,
      "v": 124
    },
    {
      "midi": 68,
      "hit": false,
      "t": 65324.46612500015,
      "d": 418.34593749999476,
      "v": 121
    },
    {
      "midi": 44,
      "hit": false,
      "t": 65324.46612500015,
      "d": 445.5636249999952,
      "v": 123
    },
    {
      "midi": 59,
      "hit": false,
      "t": 65808.33612500015,
      "d": 347.781562499993,
      "v": 117
    },
    {
      "midi": 63,
      "hit": false,
      "t": 65808.33612500015,
      "d": 347.781562499993,
      "v": 121
    },
    {
      "midi": 66,
      "hit": false,
      "t": 65808.33612500015,
      "d": 354.8379999999888,
      "v": 122
    },
    {
      "midi": 56,
      "hit": false,
      "t": 65808.33612500015,
      "d": 362.90249999998196,
      "v": 122
    },
    {
      "midi": 59,
      "hit": false,
      "t": 66292.20612500013,
      "d": 297.3784374999959,
      "v": 119
    },
    {
      "midi": 63,
      "hit": false,
      "t": 66292.20612500013,
      "d": 309.4751874999929,
      "v": 122
    },
    {
      "midi": 66,
      "hit": false,
      "t": 66292.20612500013,
      "d": 314.51549999999406,
      "v": 122
    },
    {
      "midi": 56,
      "hit": false,
      "t": 66292.20612500013,
      "d": 349.79768749998766,
      "v": 122
    },
    {
      "midi": 59,
      "hit": false,
      "t": 66776.07612500011,
      "d": 75.60468750000291,
      "v": 119
    },
    {
      "midi": 67,
      "hit": false,
      "t": 66776.07612500011,
      "d": 85.68531250000524,
      "v": 122
    },
    {
      "midi": 63,
      "hit": false,
      "t": 66776.07612500011,
      "d": 90.7256250000064,
      "v": 124
    },
    {
      "midi": 56,
      "hit": false,
      "t": 66776.07612500011,
      "d": 97.78206250000221,
      "v": 122
    },
    {
      "midi": 56,
      "hit": false,
      "t": 67018.0111250001,
      "d": 337.70093750000524,
      "v": 123
    },
    {
      "midi": 59,
      "hit": false,
      "t": 67018.0111250001,
      "d": 344.75737500000105,
      "v": 122
    },
    {
      "midi": 63,
      "hit": false,
      "t": 67018.0111250001,
      "d": 347.78156250000757,
      "v": 122
    },
    {
      "midi": 67,
      "hit": false,
      "t": 67018.0111250001,
      "d": 354.8380000000034,
      "v": 122
    },
    {
      "midi": 59,
      "hit": false,
      "t": 67501.88112500012,
      "d": 614.9181249999965,
      "v": 121
    },
    {
      "midi": 63,
      "hit": false,
      "t": 67501.88112500012,
      "d": 614.9181249999965,
      "v": 121
    },
    {
      "midi": 68,
      "hit": false,
      "t": 67501.88112500012,
      "d": 621.9745624999923,
      "v": 124
    },
    {
      "midi": 56,
      "hit": false,
      "t": 67501.88112500012,
      "d": 647.1761249999981,
      "v": 123
    },
    {
      "midi": 63,
      "hit": false,
      "t": 68227.68612500011,
      "d": 75.60468750000291,
      "v": 122
    },
    {
      "midi": 59,
      "hit": false,
      "t": 68227.68612500011,
      "d": 80.64500000000407,
      "v": 115
    },
    {
      "midi": 68,
      "hit": false,
      "t": 68227.68612500011,
      "d": 102.82237500000338,
      "v": 123
    },
    {
      "midi": 56,
      "hit": false,
      "t": 68227.68612500011,
      "d": 110.88687499999651,
      "v": 121
    },
    {
      "midi": 59,
      "hit": false,
      "t": 68469.6211250001,
      "d": 559.4746874999983,
      "v": 122
    },
    {
      "midi": 56,
      "hit": false,
      "t": 68469.6211250001,
      "d": 561.4908124999929,
      "v": 123
    },
    {
      "midi": 67,
      "hit": false,
      "t": 68469.6211250001,
      "d": 561.4908124999929,
      "v": 122
    },
    {
      "midi": 63,
      "hit": false,
      "t": 68469.6211250001,
      "d": 564.5149999999994,
      "v": 123
    },
    {
      "midi": 59,
      "hit": false,
      "t": 69195.4261250001,
      "d": 354.8380000000034,
      "v": 122
    },
    {
      "midi": 63,
      "hit": false,
      "t": 69195.4261250001,
      "d": 362.9024999999965,
      "v": 122
    },
    {
      "midi": 56,
      "hit": false,
      "t": 69195.4261250001,
      "d": 367.9428124999977,
      "v": 123
    },
    {
      "midi": 67,
      "hit": false,
      "t": 69195.4261250001,
      "d": 380.03956249999464,
      "v": 122
    },
    {
      "midi": 59,
      "hit": false,
      "t": 69679.2961250001,
      "d": 347.781562499993,
      "v": 117
    },
    {
      "midi": 63,
      "hit": false,
      "t": 69679.2961250001,
      "d": 347.781562499993,
      "v": 121
    },
    {
      "midi": 66,
      "hit": false,
      "t": 69679.2961250001,
      "d": 354.8379999999888,
      "v": 122
    },
    {
      "midi": 56,
      "hit": false,
      "t": 69679.2961250001,
      "d": 362.90249999998196,
      "v": 122
    },
    {
      "midi": 59,
      "hit": false,
      "t": 70163.16612500008,
      "d": 297.3784374999959,
      "v": 119
    },
    {
      "midi": 63,
      "hit": false,
      "t": 70163.16612500008,
      "d": 309.4751874999929,
      "v": 122
    },
    {
      "midi": 66,
      "hit": false,
      "t": 70163.16612500008,
      "d": 314.51549999999406,
      "v": 122
    },
    {
      "midi": 56,
      "hit": false,
      "t": 70163.16612500008,
      "d": 349.79768749998766,
      "v": 122
    },
    {
      "midi": 59,
      "hit": false,
      "t": 70647.03612500006,
      "d": 75.60468750000291,
      "v": 119
    },
    {
      "midi": 67,
      "hit": false,
      "t": 70647.03612500006,
      "d": 85.68531250000524,
      "v": 122
    },
    {
      "midi": 63,
      "hit": false,
      "t": 70647.03612500006,
      "d": 90.7256250000064,
      "v": 124
    },
    {
      "midi": 56,
      "hit": false,
      "t": 70647.03612500006,
      "d": 97.78206250000221,
      "v": 122
    },
    {
      "midi": 56,
      "hit": false,
      "t": 70888.97112500005,
      "d": 337.70093750000524,
      "v": 123
    },
    {
      "midi": 59,
      "hit": false,
      "t": 70888.97112500005,
      "d": 344.75737500000105,
      "v": 122
    },
    {
      "midi": 63,
      "hit": false,
      "t": 70888.97112500005,
      "d": 347.78156250000757,
      "v": 122
    },
    {
      "midi": 67,
      "hit": false,
      "t": 70888.97112500005,
      "d": 354.8380000000034,
      "v": 122
    },
    {
      "midi": 59,
      "hit": false,
      "t": 71372.84112500006,
      "d": 614.9181249999965,
      "v": 121
    },
    {
      "midi": 63,
      "hit": false,
      "t": 71372.84112500006,
      "d": 614.9181249999965,
      "v": 121
    },
    {
      "midi": 68,
      "hit": false,
      "t": 71372.84112500006,
      "d": 621.9745624999923,
      "v": 124
    },
    {
      "midi": 56,
      "hit": false,
      "t": 71372.84112500006,
      "d": 647.1761249999981,
      "v": 123
    },
    {
      "midi": 63,
      "hit": false,
      "t": 72098.64612500006,
      "d": 75.60468750000291,
      "v": 122
    },
    {
      "midi": 59,
      "hit": false,
      "t": 72098.64612500006,
      "d": 80.64500000000407,
      "v": 115
    },
    {
      "midi": 68,
      "hit": false,
      "t": 72098.64612500006,
      "d": 102.82237500000338,
      "v": 123
    },
    {
      "midi": 56,
      "hit": false,
      "t": 72098.64612500006,
      "d": 110.88687499999651,
      "v": 121
    },
    {
      "midi": 63,
      "hit": false,
      "t": 72340.58112500006,
      "d": 559.4746874999983,
      "v": 122
    },
    {
      "midi": 58,
      "hit": false,
      "t": 72340.58112500006,
      "d": 561.4908124999929,
      "v": 122
    },
    {
      "midi": 70,
      "hit": false,
      "t": 72340.58112500006,
      "d": 561.4908124999929,
      "v": 123
    },
    {
      "midi": 67,
      "hit": false,
      "t": 72340.58112500006,
      "d": 564.5149999999994,
      "v": 123
    },
    {
      "midi": 67,
      "hit": false,
      "t": 73066.38612500005,
      "d": 354.8380000000034,
      "v": 122
    },
    {
      "midi": 63,
      "hit": false,
      "t": 73066.38612500005,
      "d": 362.9024999999965,
      "v": 122
    },
    {
      "midi": 70,
      "hit": false,
      "t": 73066.38612500005,
      "d": 367.9428124999977,
      "v": 123
    },
    {
      "midi": 58,
      "hit": false,
      "t": 73066.38612500005,
      "d": 380.03956249999464,
      "v": 122
    },
    {
      "midi": 44,
      "hit": false,
      "t": 73550.25612500004,
      "d": 979.8367499999877,
      "v": 122
    },
    {
      "midi": 68,
      "hit": false,
      "t": 74029.08581250004,
      "d": 677.4179999999906,
      "v": 116
    },
    {
      "midi": 37,
      "hit": false,
      "t": 74276.06112500004,
      "d": 254.03174999999464,
      "v": 99
    },
    {
      "midi": 39,
      "hit": false,
      "t": 74517.99612500003,
      "d": 788.3048750000016,
      "v": 116
    },
    {
      "midi": 66,
      "hit": false,
      "t": 74754.89081250003,
      "d": 473.789374999993,
      "v": 114
    },
    {
      "midi": 37,
      "hit": false,
      "t": 75243.80112500003,
      "d": 223.7898750000022,
      "v": 113
    },
    {
      "midi": 63,
      "hit": false,
      "t": 75263.96237500003,
      "d": 226.81406249999418,
      "v": 109
    },
    {
      "midi": 44,
      "hit": false,
      "t": 75485.73612500002,
      "d": 979.8367499999877,
      "v": 119
    },
    {
      "midi": 68,
      "hit": false,
      "t": 75495.81675000003,
      "d": 445.5636249999952,
      "v": 114
    },
    {
      "midi": 63,
      "hit": false,
      "t": 75974.64643750002,
      "d": 203.62862499999756,
      "v": 110
    },
    {
      "midi": 37,
      "hit": false,
      "t": 76211.54112500002,
      "d": 233.87050000000454,
      "v": 105
    },
    {
      "midi": 66,
      "hit": false,
      "t": 76211.54112500002,
      "d": 682.4583124999917,
      "v": 113
    },
    {
      "midi": 39,
      "hit": false,
      "t": 76453.47612500002,
      "d": 949.5948749999952,
      "v": 117
    },
    {
      "midi": 63,
      "hit": false,
      "t": 76695.41112500001,
      "d": 223.7898750000022,
      "v": 94
    },
    {
      "midi": 68,
      "hit": false,
      "t": 76947.42675000001,
      "d": 712.7001874999987,
      "v": 115
    },
    {
      "midi": 37,
      "hit": false,
      "t": 77179.28112500001,
      "d": 233.87050000000454,
      "v": 111
    },
    {
      "midi": 44,
      "hit": false,
      "t": 77421.216125,
      "d": 1050.4011249999894,
      "v": 116
    },
    {
      "midi": 66,
      "hit": false,
      "t": 77678.27206250001,
      "d": 465.7248749999999,
      "v": 115
    },
    {
      "midi": 37,
      "hit": false,
      "t": 78147.02112500001,
      "d": 213.70924999999988,
      "v": 101
    },
    {
      "midi": 63,
      "hit": false,
      "t": 78162.14206250002,
      "d": 228.83018749998882,
      "v": 109
    },
    {
      "midi": 39,
      "hit": false,
      "t": 78388.95612500001,
      "d": 949.5948749999807,
      "v": 118
    },
    {
      "midi": 68,
      "hit": false,
      "t": 78399.03675,
      "d": 458.6684374999895,
      "v": 114
    },
    {
      "midi": 63,
      "hit": false,
      "t": 78872.82612499999,
      "d": 213.70924999999988,
      "v": 110
    },
    {
      "midi": 37,
      "hit": false,
      "t": 79114.76112499999,
      "d": 254.03174999999464,
      "v": 109
    },
    {
      "midi": 66,
      "hit": false,
      "t": 79114.76112499999,
      "d": 677.4179999999906,
      "v": 115
    },
    {
      "midi": 44,
      "hit": false,
      "t": 79356.69612499999,
      "d": 1050.4011249999894,
      "v": 116
    },
    {
      "midi": 63,
      "hit": false,
      "t": 79598.63112499999,
      "d": 223.7898750000022,
      "v": 94
    },
    {
      "midi": 68,
      "hit": false,
      "t": 79840.56612499998,
      "d": 677.4179999999906,
      "v": 114
    },
    {
      "midi": 37,
      "hit": false,
      "t": 80082.50112499998,
      "d": 254.03174999999464,
      "v": 102
    },
    {
      "midi": 39,
      "hit": false,
      "t": 80324.43612499998,
      "d": 662.2970625000016,
      "v": 119
    },
    {
      "midi": 66,
      "hit": false,
      "t": 80566.37112499998,
      "d": 470.76518750000105,
      "v": 115
    },
    {
      "midi": 37,
      "hit": false,
      "t": 81055.28143749997,
      "d": 193.54799999999523,
      "v": 111
    },
    {
      "midi": 63,
      "hit": false,
      "t": 81065.36206249997,
      "d": 228.83018749998882,
      "v": 108
    },
    {
      "midi": 68,
      "hit": false,
      "t": 81292.17612499997,
      "d": 445.5636249999952,
      "v": 114
    },
    {
      "midi": 44,
      "hit": false,
      "t": 81292.17612499997,
      "d": 979.8367499999877,
      "v": 120
    },
    {
      "midi": 63,
      "hit": false,
      "t": 81781.08643749997,
      "d": 203.62862499999756,
      "v": 110
    },
    {
      "midi": 37,
      "hit": false,
      "t": 82017.98112499996,
      "d": 254.03174999999464,
      "v": 105
    },
    {
      "midi": 66,
      "hit": false,
      "t": 82017.98112499996,
      "d": 685.4824999999983,
      "v": 115
    },
    {
      "midi": 39,
      "hit": false,
      "t": 82259.91612499996,
      "d": 788.3048750000016,
      "v": 116
    },
    {
      "midi": 63,
      "hit": false,
      "t": 82501.85112499996,
      "d": 226.81406250000873,
      "v": 95
    },
    {
      "midi": 68,
      "hit": false,
      "t": 82753.86674999997,
      "d": 712.7001874999842,
      "v": 114
    },
    {
      "midi": 37,
      "hit": false,
      "t": 82985.72112499997,
      "d": 223.78987499998766,
      "v": 111
    },
    {
      "midi": 44,
      "hit": false,
      "t": 83227.65612499995,
      "d": 979.8367500000168,
      "v": 117
    },
    {
      "midi": 66,
      "hit": false,
      "t": 83469.59112499996,
      "d": 465.7248749999999,
      "v": 114
    },
    {
      "midi": 63,
      "hit": false,
      "t": 83948.42081249996,
      "d": 228.83018750000338,
      "v": 110
    },
    {
      "midi": 37,
      "hit": false,
      "t": 83953.46112499996,
      "d": 233.87050000000454,
      "v": 103
    },
    {
      "midi": 68,
      "hit": false,
      "t": 84190.35581249997,
      "d": 455.64424999999756,
      "v": 117
    },
    {
      "midi": 39,
      "hit": false,
      "t": 84195.39612499997,
      "d": 949.5948749999952,
      "v": 119
    },
    {
      "midi": 63,
      "hit": false,
      "t": 84679.26612499997,
      "d": 213.70924999999988,
      "v": 111
    },
    {
      "midi": 66,
      "hit": false,
      "t": 84916.16081249996,
      "d": 677.4179999999906,
      "v": 113
    },
    {
      "midi": 37,
      "hit": false,
      "t": 84921.20112499996,
      "d": 233.87050000000454,
      "v": 110
    },
    {
      "midi": 44,
      "hit": false,
      "t": 85163.13612499996,
      "d": 1050.4011249999894,
      "v": 118
    },
    {
      "midi": 63,
      "hit": false,
      "t": 85405.07112499996,
      "d": 226.81406249999418,
      "v": 93
    },
    {
      "midi": 68,
      "hit": false,
      "t": 85657.08674999996,
      "d": 682.4583124999917,
      "v": 117
    },
    {
      "midi": 37,
      "hit": false,
      "t": 85888.94112499995,
      "d": 213.70924999999988,
      "v": 100
    },
    {
      "midi": 39,
      "hit": false,
      "t": 86130.87612499995,
      "d": 949.5948750000098,
      "v": 117
    },
    {
      "midi": 66,
      "hit": false,
      "t": 86382.89174999995,
      "d": 425.4023750000051,
      "v": 111
    },
    {
      "midi": 63,
      "hit": false,
      "t": 86856.68112499996,
      "d": 211.69312500000524,
      "v": 108
    },
    {
      "midi": 37,
      "hit": false,
      "t": 86856.68112499996,
      "d": 254.03174999999464,
      "v": 109
    },
    {
      "midi": 68,
      "hit": false,
      "t": 87098.61612499996,
      "d": 445.5636249999952,
      "v": 115
    },
    {
      "midi": 44,
      "hit": false,
      "t": 87098.61612499996,
      "d": 979.8367499999877,
      "v": 119
    },
    {
      "midi": 63,
      "hit": false,
      "t": 87587.52643749995,
      "d": 203.62862499999756,
      "v": 109
    },
    {
      "midi": 37,
      "hit": false,
      "t": 87824.42112499995,
      "d": 254.03174999999464,
      "v": 105
    },
    {
      "midi": 66,
      "hit": false,
      "t": 87824.42112499995,
      "d": 685.4824999999983,
      "v": 112
    },
    {
      "midi": 39,
      "hit": false,
      "t": 88066.35612499995,
      "d": 788.3048750000016,
      "v": 118
    },
    {
      "midi": 63,
      "hit": false,
      "t": 88308.29112499995,
      "d": 226.81406250000873,
      "v": 95
    },
    {
      "midi": 68,
      "hit": false,
      "t": 88560.30674999996,
      "d": 712.7001874999842,
      "v": 114
    },
    {
      "midi": 37,
      "hit": false,
      "t": 88792.16112499996,
      "d": 223.78987499998766,
      "v": 111
    },
    {
      "midi": 44,
      "hit": false,
      "t": 89034.09612499994,
      "d": 979.8367500000168,
      "v": 117
    },
    {
      "midi": 66,
      "hit": false,
      "t": 89276.03112499995,
      "d": 465.7248749999999,
      "v": 114
    },
    {
      "midi": 63,
      "hit": false,
      "t": 89754.86081249994,
      "d": 228.83018750000338,
      "v": 108
    },
    {
      "midi": 37,
      "hit": false,
      "t": 89759.90112499995,
      "d": 233.87050000000454,
      "v": 105
    },
    {
      "midi": 68,
      "hit": false,
      "t": 89996.79581249996,
      "d": 455.64424999999756,
      "v": 114
    },
    {
      "midi": 39,
      "hit": false,
      "t": 90001.83612499996,
      "d": 949.5948749999952,
      "v": 119
    },
    {
      "midi": 63,
      "hit": false,
      "t": 90485.70612499995,
      "d": 213.70924999999988,
      "v": 111
    },
    {
      "midi": 66,
      "hit": false,
      "t": 90722.60081249995,
      "d": 677.4179999999906,
      "v": 114
    },
    {
      "midi": 37,
      "hit": false,
      "t": 90727.64112499995,
      "d": 233.87050000000454,
      "v": 111
    },
    {
      "midi": 44,
      "hit": false,
      "t": 90969.57612499995,
      "d": 1050.4011249999894,
      "v": 116
    },
    {
      "midi": 63,
      "hit": false,
      "t": 91211.51112499995,
      "d": 226.81406249999418,
      "v": 92
    },
    {
      "midi": 68,
      "hit": false,
      "t": 91463.52674999995,
      "d": 682.4583124999917,
      "v": 116
    },
    {
      "midi": 37,
      "hit": false,
      "t": 91695.38112499994,
      "d": 213.70924999999988,
      "v": 102
    },
    {
      "midi": 39,
      "hit": false,
      "t": 91937.31612499994,
      "d": 949.5948750000098,
      "v": 116
    },
    {
      "midi": 66,
      "hit": false,
      "t": 92189.33174999994,
      "d": 425.4023750000051,
      "v": 111
    },
    {
      "midi": 63,
      "hit": false,
      "t": 92663.12112499995,
      "d": 211.69312500000524,
      "v": 107
    },
    {
      "midi": 37,
      "hit": false,
      "t": 92663.12112499995,
      "d": 254.03174999999464,
      "v": 109
    },
    {
      "midi": 68,
      "hit": false,
      "t": 92905.05612499994,
      "d": 445.5636249999952,
      "v": 115
    },
    {
      "midi": 44,
      "hit": false,
      "t": 92905.05612499994,
      "d": 979.8367499999877,
      "v": 120
    },
    {
      "midi": 63,
      "hit": false,
      "t": 93393.96643749994,
      "d": 203.62862499999756,
      "v": 110
    },
    {
      "midi": 37,
      "hit": false,
      "t": 93630.86112499994,
      "d": 254.03174999999464,
      "v": 106
    },
    {
      "midi": 66,
      "hit": false,
      "t": 93630.86112499994,
      "d": 685.4824999999983,
      "v": 113
    },
    {
      "midi": 39,
      "hit": false,
      "t": 93872.79612499994,
      "d": 788.3048750000016,
      "v": 118
    },
    {
      "midi": 63,
      "hit": false,
      "t": 94114.73112499993,
      "d": 226.81406250000873,
      "v": 94
    },
    {
      "midi": 68,
      "hit": false,
      "t": 94366.74674999995,
      "d": 712.7001874999842,
      "v": 114
    },
    {
      "midi": 37,
      "hit": false,
      "t": 94598.60112499994,
      "d": 223.78987499998766,
      "v": 114
    },
    {
      "midi": 44,
      "hit": false,
      "t": 94840.53612499993,
      "d": 979.8367500000168,
      "v": 118
    },
    {
      "midi": 66,
      "hit": false,
      "t": 95082.47112499994,
      "d": 465.7248749999999,
      "v": 113
    },
    {
      "midi": 63,
      "hit": false,
      "t": 95561.30081249993,
      "d": 228.83018750000338,
      "v": 108
    },
    {
      "midi": 37,
      "hit": false,
      "t": 95566.34112499993,
      "d": 233.87050000000454,
      "v": 102
    },
    {
      "midi": 68,
      "hit": false,
      "t": 95803.23581249994,
      "d": 455.64424999999756,
      "v": 114
    },
    {
      "midi": 39,
      "hit": false,
      "t": 95808.27612499995,
      "d": 949.5948749999952,
      "v": 118
    },
    {
      "midi": 63,
      "hit": false,
      "t": 96292.14612499994,
      "d": 213.70924999999988,
      "v": 109
    },
    {
      "midi": 66,
      "hit": false,
      "t": 96529.04081249994,
      "d": 677.4179999999906,
      "v": 114
    },
    {
      "midi": 37,
      "hit": false,
      "t": 96534.08112499994,
      "d": 233.87050000000454,
      "v": 112
    },
    {
      "midi": 44,
      "hit": false,
      "t": 96776.01612499994,
      "d": 1050.4011249999894,
      "v": 118
    },
    {
      "midi": 63,
      "hit": false,
      "t": 97017.95112499993,
      "d": 226.81406249999418,
      "v": 95
    },
    {
      "midi": 68,
      "hit": false,
      "t": 97269.96674999993,
      "d": 682.4583124999917,
      "v": 117
    },
    {
      "midi": 37,
      "hit": false,
      "t": 97501.82112499993,
      "d": 213.70924999999988,
      "v": 101
    },
    {
      "midi": 39,
      "hit": false,
      "t": 97743.75612499993,
      "d": 949.5948750000098,
      "v": 116
    },
    {
      "midi": 66,
      "hit": false,
      "t": 97995.77174999993,
      "d": 425.4023750000051,
      "v": 113
    },
    {
      "midi": 63,
      "hit": false,
      "t": 98467.545,
      "d": 1206.6508124999964,
      "v": 1
    },
    {
      "midi": 72,
      "hit": false,
      "t": 98467.545,
      "d": 1206.6508124999964,
      "v": 1
    },
    {
      "midi": 63,
      "hit": false,
      "t": 98469.56112499993,
      "d": 211.69312500000524,
      "v": 109
    },
    {
      "midi": 37,
      "hit": false,
      "t": 98469.56112499993,
      "d": 254.03174999999464,
      "v": 112
    },
    {
      "midi": 44,
      "hit": false,
      "t": 98706.45581249993,
      "d": 546.3698749999894,
      "v": 124
    },
    {
      "midi": 60,
      "hit": false,
      "t": 99190.32581249993,
      "d": 262.0962500000023,
      "v": 122
    },
    {
      "midi": 56,
      "hit": false,
      "t": 99190.32581249993,
      "d": 267.1365625000035,
      "v": 113
    },
    {
      "midi": 44,
      "hit": false,
      "t": 99422.18018749992,
      "d": 246.9753125000134,
      "v": 120
    },
    {
      "midi": 54,
      "hit": false,
      "t": 99669.15549999994,
      "d": 430.4426875000063,
      "v": 111
    },
    {
      "midi": 58,
      "hit": false,
      "t": 99674.19581249994,
      "d": 428.42656250001164,
      "v": 121
    },
    {
      "midi": 48,
      "hit": false,
      "t": 99674.19581249994,
      "d": 647.1761250000127,
      "v": 121
    },
    {
      "midi": 63,
      "hit": false,
      "t": 99677.22,
      "d": 964.7158124999987,
      "v": 1
    },
    {
      "midi": 70,
      "hit": false,
      "t": 99677.22,
      "d": 964.7158124999987,
      "v": 1
    },
    {
      "midi": 65,
      "hit": false,
      "t": 100405.04112499995,
      "d": 178.4270625000063,
      "v": 117
    },
    {
      "midi": 68,
      "hit": false,
      "t": 100405.04112499995,
      "d": 203.6286250000121,
      "v": 121
    },
    {
      "midi": 61,
      "hit": false,
      "t": 100405.04112499995,
      "d": 208.66893750001327,
      "v": 113
    },
    {
      "midi": 53,
      "hit": false,
      "t": 100405.04112499995,
      "d": 233.8705000000191,
      "v": 113
    },
    {
      "midi": 49,
      "hit": false,
      "t": 100405.04112499995,
      "d": 788.3048750000307,
      "v": 114
    },
    {
      "midi": 65,
      "hit": false,
      "t": 100873.79018749997,
      "d": 314.5155000000086,
      "v": 121
    },
    {
      "midi": 68,
      "hit": false,
      "t": 100873.79018749997,
      "d": 329.6364375000121,
      "v": 118
    },
    {
      "midi": 61,
      "hit": false,
      "t": 100873.79018749997,
      "d": 354.8380000000179,
      "v": 113
    },
    {
      "midi": 53,
      "hit": false,
      "t": 100893.95143749997,
      "d": 264.112374999997,
      "v": 109
    },
    {
      "midi": 51,
      "hit": false,
      "t": 101367.74081249998,
      "d": 226.81406249999418,
      "v": 116
    },
    {
      "midi": 65,
      "hit": false,
      "t": 101594.55487499997,
      "d": 334.6767499999987,
      "v": 121
    },
    {
      "midi": 59,
      "hit": false,
      "t": 101599.59518749997,
      "d": 324.5961249999964,
      "v": 121
    },
    {
      "midi": 53,
      "hit": false,
      "t": 101609.67581249998,
      "d": 287.2978124999936,
      "v": 114
    },
    {
      "midi": 68,
      "hit": false,
      "t": 101854.635,
      "d": 238.9108125000057,
      "v": 1
    },
    {
      "midi": 70,
      "hit": false,
      "t": 102096.57,
      "d": 238.9108125000057,
      "v": 1
    },
    {
      "midi": 63,
      "hit": false,
      "t": 102098.58612499997,
      "d": 269.15268749999814,
      "v": 122
    },
    {
      "midi": 58,
      "hit": false,
      "t": 102098.58612499997,
      "d": 284.27362500000163,
      "v": 112
    },
    {
      "midi": 56,
      "hit": false,
      "t": 102098.58612499997,
      "d": 334.6767499999987,
      "v": 119
    },
    {
      "midi": 51,
      "hit": false,
      "t": 102103.62643749997,
      "d": 264.112374999997,
      "v": 117
    },
    {
      "midi": 63,
      "hit": false,
      "t": 102338.50500000002,
      "d": 1206.6508124999964,
      "v": 1
    },
    {
      "midi": 72,
      "hit": false,
      "t": 102338.50500000002,
      "d": 1206.6508124999964,
      "v": 1
    },
    {
      "midi": 44,
      "hit": false,
      "t": 102577.41581249997,
      "d": 546.3698749999894,
      "v": 124
    },
    {
      "midi": 60,
      "hit": false,
      "t": 103056.24549999996,
      "d": 314.51549999999406,
      "v": 121
    },
    {
      "midi": 56,
      "hit": false,
      "t": 103061.28581249996,
      "d": 334.6767499999987,
      "v": 110
    },
    {
      "midi": 44,
      "hit": false,
      "t": 103298.18049999996,
      "d": 246.97531249999884,
      "v": 116
    },
    {
      "midi": 63,
      "hit": false,
      "t": 103548.18000000002,
      "d": 964.7158124999987,
      "v": 1
    },
    {
      "midi": 70,
      "hit": false,
      "t": 103548.18000000002,
      "d": 964.7158124999987,
      "v": 1
    },
    {
      "midi": 58,
      "hit": false,
      "t": 103550.19612499996,
      "d": 385.0798749999958,
      "v": 117
    },
    {
      "midi": 54,
      "hit": false,
      "t": 103550.19612499996,
      "d": 395.16049999999814,
      "v": 116
    },
    {
      "midi": 48,
      "hit": false,
      "t": 103550.19612499996,
      "d": 647.1761249999981,
      "v": 122
    },
    {
      "midi": 53,
      "hit": false,
      "t": 104276.00112499995,
      "d": 233.87050000000454,
      "v": 113
    },
    {
      "midi": 65,
      "hit": false,
      "t": 104276.00112499995,
      "d": 248.99143750000803,
      "v": 118
    },
    {
      "midi": 61,
      "hit": false,
      "t": 104276.00112499995,
      "d": 254.0317500000092,
      "v": 113
    },
    {
      "midi": 68,
      "hit": false,
      "t": 104276.00112499995,
      "d": 259.07206250001036,
      "v": 117
    },
    {
      "midi": 49,
      "hit": false,
      "t": 104276.00112499995,
      "d": 791.3290625000227,
      "v": 115
    },
    {
      "midi": 65,
      "hit": false,
      "t": 104754.83081249996,
      "d": 243.95112500000687,
      "v": 121
    },
    {
      "midi": 68,
      "hit": false,
      "t": 104754.83081249996,
      "d": 248.99143750000803,
      "v": 120
    },
    {
      "midi": 61,
      "hit": false,
      "t": 104754.83081249996,
      "d": 259.07206250001036,
      "v": 114
    },
    {
      "midi": 53,
      "hit": false,
      "t": 104764.91143749996,
      "d": 264.1123750000115,
      "v": 108
    },
    {
      "midi": 51,
      "hit": false,
      "t": 105243.74112499997,
      "d": 223.7898750000022,
      "v": 116
    },
    {
      "midi": 65,
      "hit": false,
      "t": 105470.55518749998,
      "d": 284.27362500000163,
      "v": 122
    },
    {
      "midi": 59,
      "hit": false,
      "t": 105475.59549999998,
      "d": 349.79768749998766,
      "v": 119
    },
    {
      "midi": 53,
      "hit": false,
      "t": 105480.63581249998,
      "d": 287.2978124999936,
      "v": 111
    },
    {
      "midi": 63,
      "hit": false,
      "t": 105959.46549999996,
      "d": 241.93499999999767,
      "v": 117
    },
    {
      "midi": 58,
      "hit": false,
      "t": 105959.46549999996,
      "d": 257.05593750000116,
      "v": 110
    },
    {
      "midi": 56,
      "hit": false,
      "t": 105964.50581249996,
      "d": 304.4348750000063,
      "v": 118
    },
    {
      "midi": 51,
      "hit": false,
      "t": 105974.58643749997,
      "d": 264.112374999997,
      "v": 117
    },
    {
      "midi": 44,
      "hit": false,
      "t": 106448.37581249997,
      "d": 546.3698749999894,
      "v": 122
    },
    {
      "midi": 63,
      "hit": false,
      "t": 106693.33500000002,
      "d": 722.780812500001,
      "v": 1
    },
    {
      "midi": 72,
      "hit": false,
      "t": 106693.33500000002,
      "d": 722.780812500001,
      "v": 1
    },
    {
      "midi": 60,
      "hit": false,
      "t": 106932.24581249997,
      "d": 262.0962500000023,
      "v": 124
    },
    {
      "midi": 56,
      "hit": false,
      "t": 106932.24581249997,
      "d": 267.1365625000035,
      "v": 111
    },
    {
      "midi": 44,
      "hit": false,
      "t": 107164.10018749996,
      "d": 246.9753125000134,
      "v": 116
    },
    {
      "midi": 54,
      "hit": false,
      "t": 107411.07549999998,
      "d": 430.4426875000063,
      "v": 111
    },
    {
      "midi": 58,
      "hit": false,
      "t": 107416.11581249998,
      "d": 428.42656250001164,
      "v": 119
    },
    {
      "midi": 48,
      "hit": false,
      "t": 107416.11581249998,
      "d": 647.1761250000127,
      "v": 120
    },
    {
      "midi": 63,
      "hit": false,
      "t": 107419.14000000003,
      "d": 722.780812500001,
      "v": 1
    },
    {
      "midi": 70,
      "hit": false,
      "t": 107419.14000000003,
      "d": 722.780812500001,
      "v": 1
    },
    {
      "midi": 61,
      "hit": false,
      "t": 108144.94500000004,
      "d": 964.7158124999987,
      "v": 1
    },
    {
      "midi": 68,
      "hit": false,
      "t": 108144.94500000004,
      "d": 964.7158124999987,
      "v": 1
    },
    {
      "midi": 65,
      "hit": false,
      "t": 108146.96112499999,
      "d": 178.4270625000063,
      "v": 120
    },
    {
      "midi": 68,
      "hit": false,
      "t": 108146.96112499999,
      "d": 203.6286250000121,
      "v": 120
    },
    {
      "midi": 61,
      "hit": false,
      "t": 108146.96112499999,
      "d": 208.66893750001327,
      "v": 111
    },
    {
      "midi": 53,
      "hit": false,
      "t": 108146.96112499999,
      "d": 233.8705000000191,
      "v": 111
    },
    {
      "midi": 49,
      "hit": false,
      "t": 108146.96112499999,
      "d": 788.3048750000307,
      "v": 115
    },
    {
      "midi": 65,
      "hit": false,
      "t": 108615.71018750001,
      "d": 314.5155000000086,
      "v": 121
    },
    {
      "midi": 68,
      "hit": false,
      "t": 108615.71018750001,
      "d": 329.6364375000121,
      "v": 119
    },
    {
      "midi": 61,
      "hit": false,
      "t": 108615.71018750001,
      "d": 354.8380000000179,
      "v": 114
    },
    {
      "midi": 53,
      "hit": false,
      "t": 108635.87143750001,
      "d": 264.112374999997,
      "v": 108
    },
    {
      "midi": 51,
      "hit": false,
      "t": 109109.66081250002,
      "d": 226.81406249999418,
      "v": 115
    },
    {
      "midi": 71,
      "hit": false,
      "t": 109112.68500000004,
      "d": 514.1118750000023,
      "v": 1
    },
    {
      "midi": 65,
      "hit": false,
      "t": 109336.47487500001,
      "d": 334.6767499999987,
      "v": 122
    },
    {
      "midi": 59,
      "hit": false,
      "t": 109341.51518750002,
      "d": 324.5961249999964,
      "v": 121
    },
    {
      "midi": 53,
      "hit": false,
      "t": 109351.59581250002,
      "d": 287.2978124999936,
      "v": 112
    },
    {
      "midi": 68,
      "hit": false,
      "t": 109596.55500000004,
      "d": 722.780812500001,
      "v": 1
    },
    {
      "midi": 63,
      "hit": false,
      "t": 109840.50612500001,
      "d": 269.15268749999814,
      "v": 120
    },
    {
      "midi": 58,
      "hit": false,
      "t": 109840.50612500001,
      "d": 284.27362500000163,
      "v": 111
    },
    {
      "midi": 56,
      "hit": false,
      "t": 109840.50612500001,
      "d": 334.6767499999987,
      "v": 118
    },
    {
      "midi": 51,
      "hit": false,
      "t": 109845.54643750002,
      "d": 264.112374999997,
      "v": 116
    },
    {
      "midi": 44,
      "hit": false,
      "t": 110319.33581250001,
      "d": 206.65281249998952,
      "v": 121
    },
    {
      "midi": 60,
      "hit": false,
      "t": 110324.37612500001,
      "d": 143.14487499999814,
      "v": 126
    },
    {
      "midi": 68,
      "hit": false,
      "t": 110324.37612500001,
      "d": 183.4673749999929,
      "v": 120
    },
    {
      "midi": 61,
      "hit": false,
      "t": 110566.311125,
      "d": 143.14487499999814,
      "v": 119
    },
    {
      "midi": 70,
      "hit": false,
      "t": 110566.311125,
      "d": 163.3061250000028,
      "v": 124
    },
    {
      "midi": 62,
      "hit": false,
      "t": 111050.181125,
      "d": 122.98362499999348,
      "v": 126
    },
    {
      "midi": 71,
      "hit": false,
      "t": 111050.181125,
      "d": 122.98362499999348,
      "v": 124
    },
    {
      "midi": 63,
      "hit": false,
      "t": 111534.051125,
      "d": 405.24112500000047,
      "v": 123
    },
    {
      "midi": 72,
      "hit": false,
      "t": 111534.051125,
      "d": 405.24112500000047,
      "v": 121
    },
    {
      "midi": 65,
      "hit": false,
      "t": 112017.921125,
      "d": 223.7898750000022,
      "v": 101
    },
    {
      "midi": 73,
      "hit": false,
      "t": 112017.921125,
      "d": 223.7898750000022,
      "v": 108
    },
    {
      "midi": 79,
      "hit": false,
      "t": 112259.85612499999,
      "d": 120.96749999999884,
      "v": 119
    },
    {
      "midi": 75,
      "hit": false,
      "t": 112259.85612499999,
      "d": 136.08843750000233,
      "v": 121
    },
    {
      "midi": 73,
      "hit": false,
      "t": 112501.79112499999,
      "d": 143.14487499999814,
      "v": 124
    },
    {
      "midi": 77,
      "hit": false,
      "t": 112501.79112499999,
      "d": 143.14487499999814,
      "v": 121
    },
    {
      "midi": 72,
      "hit": false,
      "t": 112965.499875,
      "d": 122.98362499999348,
      "v": 120
    },
    {
      "midi": 75,
      "hit": false,
      "t": 112965.499875,
      "d": 122.98362499999348,
      "v": 123
    },
    {
      "midi": 73,
      "hit": false,
      "t": 113449.36987499999,
      "d": 604.8374999999942,
      "v": 118
    },
    {
      "midi": 70,
      "hit": false,
      "t": 113449.36987499999,
      "d": 621.9745624999923,
      "v": 120
    },
    {
      "midi": 44,
      "hit": false,
      "t": 114195.33612499999,
      "d": 1050.4011249999894,
      "v": 118
    },
    {
      "midi": 63,
      "hit": false,
      "t": 114437.27112499998,
      "d": 226.81406249999418,
      "v": 91
    },
    {
      "midi": 68,
      "hit": false,
      "t": 114689.28674999998,
      "d": 682.4583124999917,
      "v": 117
    },
    {
      "midi": 37,
      "hit": false,
      "t": 114921.14112499998,
      "d": 213.70924999999988,
      "v": 102
    },
    {
      "midi": 39,
      "hit": false,
      "t": 115163.07612499998,
      "d": 949.5948750000098,
      "v": 116
    },
    {
      "midi": 66,
      "hit": false,
      "t": 115415.09174999998,
      "d": 425.4023750000051,
      "v": 114
    },
    {
      "midi": 63,
      "hit": false,
      "t": 115888.88112499999,
      "d": 211.69312500000524,
      "v": 110
    },
    {
      "midi": 37,
      "hit": false,
      "t": 115888.88112499999,
      "d": 254.03174999999464,
      "v": 112
    },
    {
      "midi": 68,
      "hit": false,
      "t": 116130.81612499998,
      "d": 445.5636249999952,
      "v": 117
    },
    {
      "midi": 44,
      "hit": false,
      "t": 116130.81612499998,
      "d": 979.8367499999877,
      "v": 121
    },
    {
      "midi": 63,
      "hit": false,
      "t": 116619.72643749998,
      "d": 203.62862499999756,
      "v": 108
    },
    {
      "midi": 37,
      "hit": false,
      "t": 116856.62112499998,
      "d": 254.03174999999464,
      "v": 105
    },
    {
      "midi": 66,
      "hit": false,
      "t": 116856.62112499998,
      "d": 685.4824999999983,
      "v": 112
    },
    {
      "midi": 39,
      "hit": false,
      "t": 117098.55612499997,
      "d": 788.3048750000016,
      "v": 117
    },
    {
      "midi": 63,
      "hit": false,
      "t": 117340.49112499997,
      "d": 226.81406250000873,
      "v": 95
    },
    {
      "midi": 68,
      "hit": false,
      "t": 117592.50674999999,
      "d": 712.7001874999842,
      "v": 115
    },
    {
      "midi": 37,
      "hit": false,
      "t": 117824.36112499998,
      "d": 223.78987499998766,
      "v": 114
    },
    {
      "midi": 44,
      "hit": false,
      "t": 118066.29612499996,
      "d": 979.8367500000168,
      "v": 119
    },
    {
      "midi": 66,
      "hit": false,
      "t": 118308.23112499998,
      "d": 465.7248749999999,
      "v": 114
    },
    {
      "midi": 63,
      "hit": false,
      "t": 118787.06081249997,
      "d": 228.83018750000338,
      "v": 106
    },
    {
      "midi": 37,
      "hit": false,
      "t": 118792.10112499997,
      "d": 233.87050000000454,
      "v": 102
    },
    {
      "midi": 68,
      "hit": false,
      "t": 119028.99581249998,
      "d": 455.64424999999756,
      "v": 114
    },
    {
      "midi": 39,
      "hit": false,
      "t": 119034.03612499998,
      "d": 949.5948749999952,
      "v": 118
    },
    {
      "midi": 63,
      "hit": false,
      "t": 119517.90612499998,
      "d": 213.70924999999988,
      "v": 111
    },
    {
      "midi": 66,
      "hit": false,
      "t": 119754.80081249998,
      "d": 677.4179999999906,
      "v": 114
    },
    {
      "midi": 37,
      "hit": false,
      "t": 119759.84112499998,
      "d": 233.87050000000454,
      "v": 110
    },
    {
      "midi": 44,
      "hit": false,
      "t": 120001.77612499997,
      "d": 1050.4011249999894,
      "v": 118
    },
    {
      "midi": 63,
      "hit": false,
      "t": 120243.71112499997,
      "d": 226.81406249999418,
      "v": 91
    },
    {
      "midi": 68,
      "hit": false,
      "t": 120495.72674999997,
      "d": 682.4583124999917,
      "v": 115
    },
    {
      "midi": 37,
      "hit": false,
      "t": 120727.58112499997,
      "d": 213.70924999999988,
      "v": 100
    },
    {
      "midi": 39,
      "hit": false,
      "t": 120969.51612499997,
      "d": 949.5948750000098,
      "v": 119
    },
    {
      "midi": 66,
      "hit": false,
      "t": 121221.53174999997,
      "d": 425.4023750000051,
      "v": 113
    },
    {
      "midi": 63,
      "hit": false,
      "t": 121695.32112499997,
      "d": 211.69312500000524,
      "v": 107
    },
    {
      "midi": 37,
      "hit": false,
      "t": 121695.32112499997,
      "d": 254.03174999999464,
      "v": 110
    },
    {
      "midi": 68,
      "hit": false,
      "t": 121937.25612499997,
      "d": 445.5636249999952,
      "v": 117
    },
    {
      "midi": 44,
      "hit": false,
      "t": 121937.25612499997,
      "d": 979.8367499999877,
      "v": 121
    },
    {
      "midi": 63,
      "hit": false,
      "t": 122426.16643749997,
      "d": 203.62862499999756,
      "v": 110
    },
    {
      "midi": 37,
      "hit": false,
      "t": 122663.06112499996,
      "d": 254.03174999999464,
      "v": 106
    },
    {
      "midi": 66,
      "hit": false,
      "t": 122663.06112499996,
      "d": 685.4824999999983,
      "v": 115
    },
    {
      "midi": 39,
      "hit": false,
      "t": 122904.99612499996,
      "d": 788.3048750000016,
      "v": 118
    },
    {
      "midi": 63,
      "hit": false,
      "t": 123146.93112499996,
      "d": 226.81406250000873,
      "v": 96
    },
    {
      "midi": 68,
      "hit": false,
      "t": 123398.94674999997,
      "d": 712.7001874999842,
      "v": 114
    },
    {
      "midi": 37,
      "hit": false,
      "t": 123630.80112499997,
      "d": 223.78987499998766,
      "v": 112
    },
    {
      "midi": 44,
      "hit": false,
      "t": 123872.73612499995,
      "d": 979.8367500000168,
      "v": 117
    },
    {
      "midi": 66,
      "hit": false,
      "t": 124114.67112499996,
      "d": 465.7248749999999,
      "v": 116
    },
    {
      "midi": 63,
      "hit": false,
      "t": 124593.50081249996,
      "d": 228.83018750000338,
      "v": 109
    },
    {
      "midi": 37,
      "hit": false,
      "t": 124598.54112499996,
      "d": 233.87050000000454,
      "v": 103
    },
    {
      "midi": 68,
      "hit": false,
      "t": 124835.43581249997,
      "d": 455.64424999999756,
      "v": 116
    },
    {
      "midi": 39,
      "hit": false,
      "t": 124840.47612499997,
      "d": 949.5948749999952,
      "v": 118
    },
    {
      "midi": 63,
      "hit": false,
      "t": 125324.34612499997,
      "d": 213.70924999999988,
      "v": 108
    },
    {
      "midi": 66,
      "hit": false,
      "t": 125561.24081249996,
      "d": 677.4179999999906,
      "v": 115
    },
    {
      "midi": 37,
      "hit": false,
      "t": 125566.28112499996,
      "d": 233.87050000000454,
      "v": 110
    },
    {
      "midi": 44,
      "hit": false,
      "t": 125808.21612499996,
      "d": 1050.4011249999894,
      "v": 119
    },
    {
      "midi": 63,
      "hit": false,
      "t": 126050.15112499996,
      "d": 226.81406249999418,
      "v": 91
    },
    {
      "midi": 68,
      "hit": false,
      "t": 126302.16674999996,
      "d": 682.4583124999917,
      "v": 114
    },
    {
      "midi": 37,
      "hit": false,
      "t": 126534.02112499996,
      "d": 213.70924999999988,
      "v": 101
    },
    {
      "midi": 39,
      "hit": false,
      "t": 126775.95612499995,
      "d": 949.5948750000098,
      "v": 118
    },
    {
      "midi": 66,
      "hit": false,
      "t": 127027.97174999995,
      "d": 425.4023750000051,
      "v": 113
    },
    {
      "midi": 63,
      "hit": false,
      "t": 127501.76112499996,
      "d": 211.69312500000524,
      "v": 111
    },
    {
      "midi": 37,
      "hit": false,
      "t": 127501.76112499996,
      "d": 254.03174999999464,
      "v": 112
    },
    {
      "midi": 68,
      "hit": false,
      "t": 127743.69612499996,
      "d": 445.5636249999952,
      "v": 116
    },
    {
      "midi": 44,
      "hit": false,
      "t": 127743.69612499996,
      "d": 979.8367499999877,
      "v": 122
    },
    {
      "midi": 63,
      "hit": false,
      "t": 128232.60643749996,
      "d": 203.62862499999756,
      "v": 107
    },
    {
      "midi": 37,
      "hit": false,
      "t": 128469.50112499995,
      "d": 254.03174999999464,
      "v": 106
    },
    {
      "midi": 66,
      "hit": false,
      "t": 128469.50112499995,
      "d": 685.4824999999983,
      "v": 112
    },
    {
      "midi": 39,
      "hit": false,
      "t": 128711.43612499995,
      "d": 788.3048750000016,
      "v": 118
    },
    {
      "midi": 63,
      "hit": false,
      "t": 128953.37112499995,
      "d": 226.81406250000873,
      "v": 93
    },
    {
      "midi": 68,
      "hit": false,
      "t": 129205.38674999996,
      "d": 438.50718749998487,
      "v": 116
    },
    {
      "midi": 63,
      "hit": false,
      "t": 129435.22500000003,
      "d": 1206.6508124999964,
      "v": 1
    },
    {
      "midi": 72,
      "hit": false,
      "t": 129435.22500000003,
      "d": 1206.6508124999964,
      "v": 1
    },
    {
      "midi": 37,
      "hit": false,
      "t": 129437.24112499996,
      "d": 193.54799999999523,
      "v": 112
    },
    {
      "midi": 44,
      "hit": false,
      "t": 129669.09549999995,
      "d": 549.3940624999959,
      "v": 123
    },
    {
      "midi": 60,
      "hit": false,
      "t": 130158.00581249995,
      "d": 262.0962500000023,
      "v": 124
    },
    {
      "midi": 56,
      "hit": false,
      "t": 130158.00581249995,
      "d": 267.1365625000035,
      "v": 112
    },
    {
      "midi": 44,
      "hit": false,
      "t": 130389.86018749994,
      "d": 246.9753125000134,
      "v": 116
    },
    {
      "midi": 54,
      "hit": false,
      "t": 130636.83549999996,
      "d": 430.4426875000063,
      "v": 111
    },
    {
      "midi": 58,
      "hit": false,
      "t": 130641.87581249996,
      "d": 428.42656250001164,
      "v": 120
    },
    {
      "midi": 48,
      "hit": false,
      "t": 130641.87581249996,
      "d": 647.1761249999981,
      "v": 120
    },
    {
      "midi": 63,
      "hit": false,
      "t": 130644.90000000004,
      "d": 964.7158124999987,
      "v": 1
    },
    {
      "midi": 70,
      "hit": false,
      "t": 130644.90000000004,
      "d": 964.7158124999987,
      "v": 1
    },
    {
      "midi": 65,
      "hit": false,
      "t": 131372.72112499995,
      "d": 178.4270625000063,
      "v": 117
    },
    {
      "midi": 68,
      "hit": false,
      "t": 131372.72112499995,
      "d": 203.6286250000121,
      "v": 119
    },
    {
      "midi": 61,
      "hit": false,
      "t": 131372.72112499995,
      "d": 208.66893750001327,
      "v": 111
    },
    {
      "midi": 53,
      "hit": false,
      "t": 131372.72112499995,
      "d": 233.8705000000191,
      "v": 113
    },
    {
      "midi": 49,
      "hit": false,
      "t": 131372.72112499995,
      "d": 788.3048750000307,
      "v": 114
    },
    {
      "midi": 65,
      "hit": false,
      "t": 131841.47018749997,
      "d": 314.5155000000086,
      "v": 120
    },
    {
      "midi": 68,
      "hit": false,
      "t": 131841.47018749997,
      "d": 329.6364375000121,
      "v": 118
    },
    {
      "midi": 61,
      "hit": false,
      "t": 131841.47018749997,
      "d": 354.8380000000179,
      "v": 115
    },
    {
      "midi": 53,
      "hit": false,
      "t": 131861.63143749998,
      "d": 264.112374999997,
      "v": 108
    },
    {
      "midi": 51,
      "hit": false,
      "t": 132335.4208125,
      "d": 226.81406249999418,
      "v": 115
    },
    {
      "midi": 65,
      "hit": false,
      "t": 132562.234875,
      "d": 334.67675000001327,
      "v": 121
    },
    {
      "midi": 59,
      "hit": false,
      "t": 132567.2751875,
      "d": 324.59612500001094,
      "v": 121
    },
    {
      "midi": 53,
      "hit": false,
      "t": 132577.3558125,
      "d": 287.29781250000815,
      "v": 114
    },
    {
      "midi": 68,
      "hit": false,
      "t": 132822.31500000003,
      "d": 238.91081249999115,
      "v": 1
    },
    {
      "midi": 70,
      "hit": false,
      "t": 133064.25000000003,
      "d": 238.91081249999115,
      "v": 1
    },
    {
      "midi": 63,
      "hit": false,
      "t": 133066.266125,
      "d": 269.15268749999814,
      "v": 119
    },
    {
      "midi": 58,
      "hit": false,
      "t": 133066.266125,
      "d": 284.27362500000163,
      "v": 111
    },
    {
      "midi": 56,
      "hit": false,
      "t": 133066.266125,
      "d": 334.67675000001327,
      "v": 118
    },
    {
      "midi": 51,
      "hit": false,
      "t": 133071.3064375,
      "d": 264.112374999997,
      "v": 116
    },
    {
      "midi": 63,
      "hit": false,
      "t": 133306.18500000003,
      "d": 1206.650812500011,
      "v": 1
    },
    {
      "midi": 72,
      "hit": false,
      "t": 133306.18500000003,
      "d": 1206.650812500011,
      "v": 1
    },
    {
      "midi": 44,
      "hit": false,
      "t": 133545.09581250002,
      "d": 546.369875000004,
      "v": 123
    },
    {
      "midi": 60,
      "hit": false,
      "t": 134023.9255,
      "d": 314.5155000000086,
      "v": 120
    },
    {
      "midi": 56,
      "hit": false,
      "t": 134028.9658125,
      "d": 334.67675000001327,
      "v": 112
    },
    {
      "midi": 44,
      "hit": false,
      "t": 134265.8605,
      "d": 246.97531250002794,
      "v": 117
    },
    {
      "midi": 63,
      "hit": false,
      "t": 134515.86000000004,
      "d": 964.7158125000133,
      "v": 1
    },
    {
      "midi": 70,
      "hit": false,
      "t": 134515.86000000004,
      "d": 964.7158125000133,
      "v": 1
    },
    {
      "midi": 58,
      "hit": false,
      "t": 134517.87612500004,
      "d": 385.0798749999958,
      "v": 120
    },
    {
      "midi": 54,
      "hit": false,
      "t": 134517.87612500004,
      "d": 395.16049999999814,
      "v": 113
    },
    {
      "midi": 48,
      "hit": false,
      "t": 134517.87612500004,
      "d": 647.1761249999981,
      "v": 122
    },
    {
      "midi": 53,
      "hit": false,
      "t": 135243.68112500003,
      "d": 233.87049999999,
      "v": 115
    },
    {
      "midi": 65,
      "hit": false,
      "t": 135243.68112500003,
      "d": 248.99143749999348,
      "v": 119
    },
    {
      "midi": 61,
      "hit": false,
      "t": 135243.68112500003,
      "d": 254.03174999999464,
      "v": 112
    },
    {
      "midi": 68,
      "hit": false,
      "t": 135243.68112500003,
      "d": 259.0720624999958,
      "v": 119
    },
    {
      "midi": 49,
      "hit": false,
      "t": 135243.68112500003,
      "d": 791.329062499979,
      "v": 113
    },
    {
      "midi": 65,
      "hit": false,
      "t": 135722.51081250003,
      "d": 243.95112499999232,
      "v": 117
    },
    {
      "midi": 68,
      "hit": false,
      "t": 135722.51081250003,
      "d": 248.99143749999348,
      "v": 119
    },
    {
      "midi": 61,
      "hit": false,
      "t": 135722.51081250003,
      "d": 259.0720624999958,
      "v": 114
    },
    {
      "midi": 53,
      "hit": false,
      "t": 135732.59143750003,
      "d": 264.112374999997,
      "v": 109
    },
    {
      "midi": 51,
      "hit": false,
      "t": 136211.42112500002,
      "d": 223.78987499998766,
      "v": 115
    },
    {
      "midi": 65,
      "hit": false,
      "t": 136438.23518750002,
      "d": 284.27362500000163,
      "v": 121
    },
    {
      "midi": 59,
      "hit": false,
      "t": 136443.27550000002,
      "d": 349.79768750001676,
      "v": 119
    },
    {
      "midi": 53,
      "hit": false,
      "t": 136448.31581250002,
      "d": 287.29781250000815,
      "v": 115
    },
    {
      "midi": 63,
      "hit": false,
      "t": 136927.14550000004,
      "d": 241.93499999999767,
      "v": 118
    },
    {
      "midi": 58,
      "hit": false,
      "t": 136927.14550000004,
      "d": 257.05593750000116,
      "v": 112
    },
    {
      "midi": 56,
      "hit": false,
      "t": 136932.18581250004,
      "d": 304.4348750000063,
      "v": 118
    },
    {
      "midi": 51,
      "hit": false,
      "t": 136942.26643750005,
      "d": 264.112374999997,
      "v": 117
    },
    {
      "midi": 44,
      "hit": false,
      "t": 137416.05581250004,
      "d": 546.369875000004,
      "v": 120
    },
    {
      "midi": 63,
      "hit": false,
      "t": 137661.01500000007,
      "d": 722.7808124999865,
      "v": 1
    },
    {
      "midi": 72,
      "hit": false,
      "t": 137661.01500000007,
      "d": 722.7808124999865,
      "v": 1
    },
    {
      "midi": 60,
      "hit": false,
      "t": 137899.92581250003,
      "d": 262.0962500000023,
      "v": 123
    },
    {
      "midi": 56,
      "hit": false,
      "t": 137899.92581250003,
      "d": 267.1365625000035,
      "v": 112
    },
    {
      "midi": 44,
      "hit": false,
      "t": 138131.78018750003,
      "d": 246.97531249999884,
      "v": 117
    },
    {
      "midi": 54,
      "hit": false,
      "t": 138378.75550000003,
      "d": 430.4426875000063,
      "v": 110
    },
    {
      "midi": 58,
      "hit": false,
      "t": 138383.79581250003,
      "d": 428.42656250001164,
      "v": 120
    },
    {
      "midi": 48,
      "hit": false,
      "t": 138383.79581250003,
      "d": 647.1761249999981,
      "v": 121
    },
    {
      "midi": 63,
      "hit": false,
      "t": 138386.82000000007,
      "d": 722.7808124999865,
      "v": 1
    },
    {
      "midi": 70,
      "hit": false,
      "t": 138386.82000000007,
      "d": 722.7808124999865,
      "v": 1
    },
    {
      "midi": 61,
      "hit": false,
      "t": 139112.62500000006,
      "d": 964.7158125000133,
      "v": 1
    },
    {
      "midi": 68,
      "hit": false,
      "t": 139112.62500000006,
      "d": 964.7158125000133,
      "v": 1
    },
    {
      "midi": 65,
      "hit": false,
      "t": 139114.64112500002,
      "d": 178.4270625000063,
      "v": 118
    },
    {
      "midi": 68,
      "hit": false,
      "t": 139114.64112500002,
      "d": 203.6286250000121,
      "v": 118
    },
    {
      "midi": 61,
      "hit": false,
      "t": 139114.64112500002,
      "d": 208.66893750001327,
      "v": 111
    },
    {
      "midi": 53,
      "hit": false,
      "t": 139114.64112500002,
      "d": 233.8705000000191,
      "v": 114
    },
    {
      "midi": 49,
      "hit": false,
      "t": 139114.64112500002,
      "d": 788.3048750000307,
      "v": 115
    },
    {
      "midi": 65,
      "hit": false,
      "t": 139583.39018750004,
      "d": 314.5155000000086,
      "v": 118
    },
    {
      "midi": 68,
      "hit": false,
      "t": 139583.39018750004,
      "d": 329.6364375000121,
      "v": 117
    },
    {
      "midi": 61,
      "hit": false,
      "t": 139583.39018750004,
      "d": 354.8380000000179,
      "v": 115
    },
    {
      "midi": 53,
      "hit": false,
      "t": 139603.55143750005,
      "d": 264.112374999997,
      "v": 107
    },
    {
      "midi": 51,
      "hit": false,
      "t": 140077.34081250007,
      "d": 226.81406249999418,
      "v": 113
    },
    {
      "midi": 71,
      "hit": false,
      "t": 140080.36500000008,
      "d": 514.1118750000023,
      "v": 1
    },
    {
      "midi": 65,
      "hit": false,
      "t": 140304.15487500007,
      "d": 334.67675000001327,
      "v": 120
    },
    {
      "midi": 59,
      "hit": false,
      "t": 140309.19518750007,
      "d": 324.59612500001094,
      "v": 122
    },
    {
      "midi": 53,
      "hit": false,
      "t": 140319.27581250007,
      "d": 287.29781250000815,
      "v": 111
    },
    {
      "midi": 68,
      "hit": false,
      "t": 140564.23500000007,
      "d": 722.7808125000156,
      "v": 1
    },
    {
      "midi": 63,
      "hit": false,
      "t": 140808.18612500007,
      "d": 269.15268749999814,
      "v": 119
    },
    {
      "midi": 58,
      "hit": false,
      "t": 140808.18612500007,
      "d": 284.27362500000163,
      "v": 113
    },
    {
      "midi": 56,
      "hit": false,
      "t": 140808.18612500007,
      "d": 334.67675000001327,
      "v": 120
    },
    {
      "midi": 51,
      "hit": false,
      "t": 140813.22643750007,
      "d": 264.112374999997,
      "v": 115
    },
    {
      "midi": 44,
      "hit": false,
      "t": 141287.0158125001,
      "d": 206.65281250001863,
      "v": 123
    },
    {
      "midi": 60,
      "hit": false,
      "t": 141292.0561250001,
      "d": 143.14487499999814,
      "v": 123
    },
    {
      "midi": 68,
      "hit": false,
      "t": 141292.0561250001,
      "d": 183.46737500000745,
      "v": 121
    },
    {
      "midi": 72,
      "hit": false,
      "t": 141531.9750000001,
      "d": 702.6195625000109,
      "v": 1
    },
    {
      "midi": 70,
      "hit": false,
      "t": 141533.99112500012,
      "d": 163.3061250000028,
      "v": 121
    },
    {
      "midi": 61,
      "hit": false,
      "t": 141533.99112500012,
      "d": 183.46737500000745,
      "v": 120
    },
    {
      "midi": 62,
      "hit": false,
      "t": 142017.8611250001,
      "d": 122.98362499999348,
      "v": 125
    },
    {
      "midi": 71,
      "hit": false,
      "t": 142017.8611250001,
      "d": 122.98362499999348,
      "v": 123
    },
    {
      "midi": 70,
      "hit": false,
      "t": 142237.6187500001,
      "d": 722.7808124999865,
      "v": 1
    },
    {
      "midi": 63,
      "hit": false,
      "t": 142501.7311250001,
      "d": 405.24112500000047,
      "v": 121
    },
    {
      "midi": 72,
      "hit": false,
      "t": 142501.7311250001,
      "d": 405.24112500000047,
      "v": 119
    },
    {
      "midi": 68,
      "hit": false,
      "t": 142963.4237500001,
      "d": 929.4336250000051,
      "v": 1
    },
    {
      "midi": 65,
      "hit": false,
      "t": 142985.6011250001,
      "d": 223.78987499998766,
      "v": 103
    },
    {
      "midi": 73,
      "hit": false,
      "t": 142985.6011250001,
      "d": 223.78987499998766,
      "v": 107
    },
    {
      "midi": 79,
      "hit": false,
      "t": 143227.5361250001,
      "d": 120.96749999999884,
      "v": 122
    },
    {
      "midi": 75,
      "hit": false,
      "t": 143227.5361250001,
      "d": 136.08843750000233,
      "v": 120
    },
    {
      "midi": 73,
      "hit": false,
      "t": 143469.4711250001,
      "d": 143.14487499999814,
      "v": 123
    },
    {
      "midi": 77,
      "hit": false,
      "t": 143469.4711250001,
      "d": 143.14487499999814,
      "v": 122
    },
    {
      "midi": 71,
      "hit": false,
      "t": 143895.88156250012,
      "d": 526.2086249999993,
      "v": 1
    },
    {
      "midi": 72,
      "hit": false,
      "t": 143933.1798750001,
      "d": 122.98362499999348,
      "v": 122
    },
    {
      "midi": 75,
      "hit": false,
      "t": 143933.1798750001,
      "d": 122.98362499999348,
      "v": 121
    },
    {
      "midi": 73,
      "hit": false,
      "t": 144417.04987500008,
      "d": 604.8374999999942,
      "v": 119
    },
    {
      "midi": 70,
      "hit": false,
      "t": 144417.04987500008,
      "d": 621.9745624999923,
      "v": 121
    },
    {
      "midi": 68,
      "hit": false,
      "t": 144425.11437500012,
      "d": 732.8614374999888,
      "v": 1
    },
    {
      "midi": 44,
      "hit": false,
      "t": 145152.93550000008,
      "d": 549.3940625000105,
      "v": 122
    },
    {
      "midi": 60,
      "hit": false,
      "t": 145641.84581250008,
      "d": 262.09625000003143,
      "v": 123
    },
    {
      "midi": 56,
      "hit": false,
      "t": 145641.84581250008,
      "d": 267.1365625000326,
      "v": 110
    },
    {
      "midi": 44,
      "hit": false,
      "t": 145873.7001875001,
      "d": 246.97531249999884,
      "v": 120
    },
    {
      "midi": 54,
      "hit": false,
      "t": 146120.6755000001,
      "d": 430.4426875000063,
      "v": 110
    },
    {
      "midi": 58,
      "hit": false,
      "t": 146125.7158125001,
      "d": 428.42656250001164,
      "v": 120
    },
    {
      "midi": 48,
      "hit": false,
      "t": 146125.7158125001,
      "d": 647.1761249999981,
      "v": 120
    },
    {
      "midi": 65,
      "hit": false,
      "t": 146856.5611250001,
      "d": 178.4270625000063,
      "v": 117
    },
    {
      "midi": 68,
      "hit": false,
      "t": 146856.5611250001,
      "d": 203.6286250000121,
      "v": 120
    },
    {
      "midi": 61,
      "hit": false,
      "t": 146856.5611250001,
      "d": 208.66893750001327,
      "v": 113
    },
    {
      "midi": 53,
      "hit": false,
      "t": 146856.5611250001,
      "d": 233.8705000000191,
      "v": 115
    },
    {
      "midi": 49,
      "hit": false,
      "t": 146856.5611250001,
      "d": 788.3048750000307,
      "v": 116
    },
    {
      "midi": 65,
      "hit": false,
      "t": 147325.31018750012,
      "d": 314.5155000000086,
      "v": 121
    },
    {
      "midi": 68,
      "hit": false,
      "t": 147325.31018750012,
      "d": 329.6364375000121,
      "v": 117
    },
    {
      "midi": 61,
      "hit": false,
      "t": 147325.31018750012,
      "d": 354.8380000000179,
      "v": 114
    },
    {
      "midi": 53,
      "hit": false,
      "t": 147345.47143750012,
      "d": 264.112374999997,
      "v": 107
    },
    {
      "midi": 51,
      "hit": false,
      "t": 147819.26081250014,
      "d": 226.81406249999418,
      "v": 115
    },
    {
      "midi": 65,
      "hit": false,
      "t": 148046.07487500014,
      "d": 334.67675000001327,
      "v": 122
    },
    {
      "midi": 59,
      "hit": false,
      "t": 148051.11518750014,
      "d": 324.59612500001094,
      "v": 121
    },
    {
      "midi": 53,
      "hit": false,
      "t": 148061.19581250014,
      "d": 287.29781250000815,
      "v": 114
    },
    {
      "midi": 63,
      "hit": false,
      "t": 148550.10612500014,
      "d": 269.15268749999814,
      "v": 122
    },
    {
      "midi": 58,
      "hit": false,
      "t": 148550.10612500014,
      "d": 284.27362500000163,
      "v": 112
    },
    {
      "midi": 56,
      "hit": false,
      "t": 148550.10612500014,
      "d": 334.67675000001327,
      "v": 118
    },
    {
      "midi": 51,
      "hit": false,
      "t": 148555.14643750014,
      "d": 264.112374999997,
      "v": 115
    },
    {
      "midi": 44,
      "hit": false,
      "t": 149028.93581250016,
      "d": 546.369875000004,
      "v": 123
    },
    {
      "midi": 60,
      "hit": false,
      "t": 149507.76550000015,
      "d": 314.5155000000086,
      "v": 122
    },
    {
      "midi": 56,
      "hit": false,
      "t": 149512.80581250016,
      "d": 334.67675000001327,
      "v": 111
    },
    {
      "midi": 44,
      "hit": false,
      "t": 149749.70050000015,
      "d": 246.97531250002794,
      "v": 114
    },
    {
      "midi": 58,
      "hit": false,
      "t": 150001.71612500018,
      "d": 385.0798749999958,
      "v": 119
    },
    {
      "midi": 54,
      "hit": false,
      "t": 150001.71612500018,
      "d": 395.16049999999814,
      "v": 112
    },
    {
      "midi": 48,
      "hit": false,
      "t": 150001.71612500018,
      "d": 647.1761249999981,
      "v": 121
    },
    {
      "midi": 53,
      "hit": false,
      "t": 150727.52112500017,
      "d": 233.87049999999,
      "v": 114
    },
    {
      "midi": 65,
      "hit": false,
      "t": 150727.52112500017,
      "d": 248.99143749999348,
      "v": 117
    },
    {
      "midi": 61,
      "hit": false,
      "t": 150727.52112500017,
      "d": 254.03174999999464,
      "v": 114
    },
    {
      "midi": 68,
      "hit": false,
      "t": 150727.52112500017,
      "d": 259.0720624999958,
      "v": 119
    },
    {
      "midi": 49,
      "hit": false,
      "t": 150727.52112500017,
      "d": 791.329062499979,
      "v": 113
    },
    {
      "midi": 65,
      "hit": false,
      "t": 151206.35081250017,
      "d": 243.95112499999232,
      "v": 121
    },
    {
      "midi": 68,
      "hit": false,
      "t": 151206.35081250017,
      "d": 248.99143749999348,
      "v": 117
    },
    {
      "midi": 61,
      "hit": false,
      "t": 151206.35081250017,
      "d": 259.0720624999958,
      "v": 114
    },
    {
      "midi": 53,
      "hit": false,
      "t": 151216.43143750017,
      "d": 264.112374999997,
      "v": 108
    },
    {
      "midi": 51,
      "hit": false,
      "t": 151695.26112500016,
      "d": 223.78987499998766,
      "v": 115
    },
    {
      "midi": 65,
      "hit": false,
      "t": 151922.07518750016,
      "d": 284.27362500000163,
      "v": 121
    },
    {
      "midi": 59,
      "hit": false,
      "t": 151927.11550000016,
      "d": 349.79768750001676,
      "v": 121
    },
    {
      "midi": 53,
      "hit": false,
      "t": 151932.15581250016,
      "d": 287.29781250000815,
      "v": 114
    },
    {
      "midi": 63,
      "hit": false,
      "t": 152410.98550000018,
      "d": 241.93499999999767,
      "v": 115
    },
    {
      "midi": 58,
      "hit": false,
      "t": 152410.98550000018,
      "d": 257.05593750000116,
      "v": 110
    },
    {
      "midi": 56,
      "hit": false,
      "t": 152416.0258125002,
      "d": 304.4348750000063,
      "v": 118
    },
    {
      "midi": 51,
      "hit": false,
      "t": 152426.1064375002,
      "d": 264.112374999997,
      "v": 115
    },
    {
      "midi": 44,
      "hit": false,
      "t": 152899.89581250018,
      "d": 546.369875000004,
      "v": 123
    },
    {
      "midi": 60,
      "hit": false,
      "t": 153383.76581250018,
      "d": 262.0962500000023,
      "v": 124
    },
    {
      "midi": 56,
      "hit": false,
      "t": 153383.76581250018,
      "d": 267.1365625000035,
      "v": 113
    },
    {
      "midi": 44,
      "hit": false,
      "t": 153615.62018750017,
      "d": 246.97531249999884,
      "v": 117
    },
    {
      "midi": 54,
      "hit": false,
      "t": 153862.59550000017,
      "d": 430.4426875000063,
      "v": 109
    },
    {
      "midi": 58,
      "hit": false,
      "t": 153867.63581250017,
      "d": 428.42656250001164,
      "v": 120
    },
    {
      "midi": 48,
      "hit": false,
      "t": 153867.63581250017,
      "d": 647.1761249999981,
      "v": 121
    },
    {
      "midi": 65,
      "hit": false,
      "t": 154598.48112500017,
      "d": 178.4270625000063,
      "v": 118
    },
    {
      "midi": 68,
      "hit": false,
      "t": 154598.48112500017,
      "d": 203.6286250000121,
      "v": 121
    },
    {
      "midi": 61,
      "hit": false,
      "t": 154598.48112500017,
      "d": 208.66893750001327,
      "v": 114
    },
    {
      "midi": 53,
      "hit": false,
      "t": 154598.48112500017,
      "d": 233.8705000000191,
      "v": 114
    },
    {
      "midi": 49,
      "hit": false,
      "t": 154598.48112500017,
      "d": 788.3048750000307,
      "v": 115
    },
    {
      "midi": 65,
      "hit": false,
      "t": 155067.2301875002,
      "d": 314.5155000000086,
      "v": 121
    },
    {
      "midi": 68,
      "hit": false,
      "t": 155067.2301875002,
      "d": 329.6364375000121,
      "v": 117
    },
    {
      "midi": 61,
      "hit": false,
      "t": 155067.2301875002,
      "d": 354.8380000000179,
      "v": 113
    },
    {
      "midi": 53,
      "hit": false,
      "t": 155087.3914375002,
      "d": 264.112374999997,
      "v": 108
    },
    {
      "midi": 51,
      "hit": false,
      "t": 155561.1808125002,
      "d": 226.81406249999418,
      "v": 116
    },
    {
      "midi": 65,
      "hit": false,
      "t": 155787.9948750002,
      "d": 334.67675000001327,
      "v": 121
    },
    {
      "midi": 59,
      "hit": false,
      "t": 155793.0351875002,
      "d": 324.59612500001094,
      "v": 123
    },
    {
      "midi": 53,
      "hit": false,
      "t": 155803.1158125002,
      "d": 287.29781250000815,
      "v": 114
    },
    {
      "midi": 63,
      "hit": false,
      "t": 156292.0261250002,
      "d": 269.15268749999814,
      "v": 121
    },
    {
      "midi": 58,
      "hit": false,
      "t": 156292.0261250002,
      "d": 284.27362500000163,
      "v": 114
    },
    {
      "midi": 56,
      "hit": false,
      "t": 156292.0261250002,
      "d": 334.67675000001327,
      "v": 119
    },
    {
      "midi": 51,
      "hit": false,
      "t": 156297.0664375002,
      "d": 264.112374999997,
      "v": 117
    },
    {
      "midi": 44,
      "hit": false,
      "t": 156775.89612500023,
      "d": 1925.3993750000081,
      "v": 116
    },
    {
      "midi": 56,
      "hit": false,
      "t": 156775.89612500023,
      "d": 1925.3993750000081,
      "v": 116
    },
    {
      "midi": 60,
      "hit": false,
      "t": 156775.89612500023,
      "d": 1925.3993750000081,
      "v": 116
    },
    {
      "midi": 68,
      "hit": false,
      "t": 156775.89612500023,
      "d": 1925.3993750000081,
      "v": 117
    },
    {
      "midi": 59,
      "hit": false,
      "t": 158711.37612500024,
      "d": 460.68456250001327,
      "v": 124
    },
    {
      "midi": 63,
      "hit": false,
      "t": 158711.37612500024,
      "d": 460.68456250001327,
      "v": 124
    },
    {
      "midi": 68,
      "hit": false,
      "t": 158711.37612500024,
      "d": 460.68456250001327,
      "v": 124
    },
    {
      "midi": 60,
      "hit": false,
      "t": 159195.24612500027,
      "d": 460.68456250001327,
      "v": 124
    },
    {
      "midi": 64,
      "hit": false,
      "t": 159195.24612500027,
      "d": 460.68456250001327,
      "v": 125
    },
    {
      "midi": 69,
      "hit": false,
      "t": 159195.24612500027,
      "d": 460.68456250001327,
      "v": 124
    },
    {
      "midi": 61,
      "hit": false,
      "t": 159679.1161250003,
      "d": 460.68456250001327,
      "v": 124
    },
    {
      "midi": 65,
      "hit": false,
      "t": 159679.1161250003,
      "d": 460.68456250001327,
      "v": 123
    },
    {
      "midi": 70,
      "hit": false,
      "t": 159679.1161250003,
      "d": 460.68456250001327,
      "v": 123
    },
    {
      "midi": 62,
      "hit": false,
      "t": 160162.98612500032,
      "d": 460.68456250001327,
      "v": 124
    },
    {
      "midi": 66,
      "hit": false,
      "t": 160162.98612500032,
      "d": 460.68456250001327,
      "v": 123
    },
    {
      "midi": 71,
      "hit": false,
      "t": 160162.98612500032,
      "d": 460.68456250001327,
      "v": 123
    },
    {
      "midi": 63,
      "hit": false,
      "t": 160646.85612500034,
      "d": 1231.8523749999877,
      "v": 125
    },
    {
      "midi": 67,
      "hit": false,
      "t": 160646.85612500034,
      "d": 1244.9571874999965,
      "v": 125
    },
    {
      "midi": 60,
      "hit": false,
      "t": 160646.85612500034,
      "d": 1257.0539374999935,
      "v": 123
    },
    {
      "midi": 48,
      "hit": false,
      "t": 160646.85612500034,
      "d": 1265.1184375000012,
      "v": 125
    },
    {
      "midi": 63,
      "hit": false,
      "t": 162098.46612500036,
      "d": 374.9992499999935,
      "v": 123
    },
    {
      "midi": 60,
      "hit": false,
      "t": 162098.46612500036,
      "d": 378.0234375,
      "v": 121
    },
    {
      "midi": 67,
      "hit": false,
      "t": 162098.46612500036,
      "d": 393.1443750000035,
      "v": 123
    },
    {
      "midi": 48,
      "hit": false,
      "t": 162098.46612500036,
      "d": 478.8296874999942,
      "v": 121
    },
    {
      "midi": 60,
      "hit": false,
      "t": 162582.33612500035,
      "d": 1297.3764375000028,
      "v": 122
    },
    {
      "midi": 68,
      "hit": false,
      "t": 162582.33612500035,
      "d": 1297.3764375000028,
      "v": 123
    },
    {
      "midi": 65,
      "hit": false,
      "t": 162582.33612500035,
      "d": 1300.4006250000093,
      "v": 123
    },
    {
      "midi": 53,
      "hit": false,
      "t": 162582.33612500035,
      "d": 1310.4812500000116,
      "v": 124
    },
    {
      "midi": 68,
      "hit": false,
      "t": 164033.94612500037,
      "d": 354.8379999999888,
      "v": 123
    },
    {
      "midi": 65,
      "hit": false,
      "t": 164033.94612500037,
      "d": 372.98312499999884,
      "v": 122
    },
    {
      "midi": 60,
      "hit": false,
      "t": 164033.94612500037,
      "d": 383.06375000000116,
      "v": 121
    },
    {
      "midi": 53,
      "hit": false,
      "t": 164033.94612500037,
      "d": 420.36206250000396,
      "v": 123
    },
    {
      "midi": 63,
      "hit": false,
      "t": 164517.81612500036,
      "d": 1345.7634374999907,
      "v": 123
    },
    {
      "midi": 67,
      "hit": false,
      "t": 164517.81612500036,
      "d": 1360.8843749999942,
      "v": 123
    },
    {
      "midi": 60,
      "hit": false,
      "t": 164517.81612500036,
      "d": 1367.94081249999,
      "v": 123
    },
    {
      "midi": 48,
      "hit": false,
      "t": 164517.81612500036,
      "d": 1372.9811249999912,
      "v": 123
    },
    {
      "midi": 60,
      "hit": false,
      "t": 165969.42612500035,
      "d": 372.98312499999884,
      "v": 122
    },
    {
      "midi": 67,
      "hit": false,
      "t": 165969.42612500035,
      "d": 420.36206250000396,
      "v": 123
    },
    {
      "midi": 63,
      "hit": false,
      "t": 165969.42612500035,
      "d": 423.3862500000105,
      "v": 123
    },
    {
      "midi": 48,
      "hit": false,
      "t": 165969.42612500035,
      "d": 468.74906250002095,
      "v": 123
    },
    {
      "midi": 67,
      "hit": false,
      "t": 166453.29612500037,
      "d": 1332.658625000011,
      "v": 124
    },
    {
      "midi": 62,
      "hit": false,
      "t": 166453.29612500037,
      "d": 1340.7231250000186,
      "v": 124
    },
    {
      "midi": 59,
      "hit": false,
      "t": 166453.29612500037,
      "d": 1360.8843750000233,
      "v": 122
    },
    {
      "midi": 55,
      "hit": false,
      "t": 166453.29612500037,
      "d": 1362.900500000018,
      "v": 122
    },
    {
      "midi": 62,
      "hit": false,
      "t": 167904.9061250004,
      "d": 405.24112500000047,
      "v": 123
    },
    {
      "midi": 67,
      "hit": false,
      "t": 167904.9061250004,
      "d": 405.24112500000047,
      "v": 124
    },
    {
      "midi": 59,
      "hit": false,
      "t": 167904.9061250004,
      "d": 408.265312500007,
      "v": 121
    },
    {
      "midi": 55,
      "hit": false,
      "t": 167904.9061250004,
      "d": 438.50718750001397,
      "v": 123
    },
    {
      "midi": 63,
      "hit": false,
      "t": 168388.7761250004,
      "d": 1234.8765624999942,
      "v": 125
    },
    {
      "midi": 67,
      "hit": false,
      "t": 168388.7761250004,
      "d": 1244.9571874999965,
      "v": 125
    },
    {
      "midi": 60,
      "hit": false,
      "t": 168388.7761250004,
      "d": 1257.0539374999935,
      "v": 123
    },
    {
      "midi": 48,
      "hit": false,
      "t": 168388.7761250004,
      "d": 1265.1184375000012,
      "v": 125
    },
    {
      "midi": 63,
      "hit": false,
      "t": 169840.38612500043,
      "d": 378.0234375,
      "v": 123
    },
    {
      "midi": 60,
      "hit": false,
      "t": 169840.38612500043,
      "d": 380.03956249999464,
      "v": 121
    },
    {
      "midi": 67,
      "hit": false,
      "t": 169840.38612500043,
      "d": 393.1443750000035,
      "v": 123
    },
    {
      "midi": 48,
      "hit": false,
      "t": 169840.38612500043,
      "d": 478.8296874999942,
      "v": 121
    },
    {
      "midi": 68,
      "hit": false,
      "t": 170324.25612500042,
      "d": 1295.3603125000081,
      "v": 123
    },
    {
      "midi": 60,
      "hit": false,
      "t": 170324.25612500042,
      "d": 1297.3764375000028,
      "v": 122
    },
    {
      "midi": 65,
      "hit": false,
      "t": 170324.25612500042,
      "d": 1300.4006250000093,
      "v": 123
    },
    {
      "midi": 53,
      "hit": false,
      "t": 170324.25612500042,
      "d": 1307.4570625000051,
      "v": 124
    },
    {
      "midi": 68,
      "hit": false,
      "t": 171775.86612500044,
      "d": 354.8379999999888,
      "v": 123
    },
    {
      "midi": 65,
      "hit": false,
      "t": 171775.86612500044,
      "d": 372.98312499999884,
      "v": 122
    },
    {
      "midi": 60,
      "hit": false,
      "t": 171775.86612500044,
      "d": 383.06375000000116,
      "v": 121
    },
    {
      "midi": 53,
      "hit": false,
      "t": 171775.86612500044,
      "d": 418.3459375000093,
      "v": 123
    },
    {
      "midi": 63,
      "hit": false,
      "t": 172259.73612500043,
      "d": 423.3862500000105,
      "v": 123
    },
    {
      "midi": 67,
      "hit": false,
      "t": 172259.73612500043,
      "d": 428.42656250001164,
      "v": 123
    },
    {
      "midi": 60,
      "hit": false,
      "t": 172259.73612500043,
      "d": 430.4426875000063,
      "v": 123
    },
    {
      "midi": 48,
      "hit": false,
      "t": 172259.73612500043,
      "d": 443.54750000001513,
      "v": 123
    },
    {
      "midi": 60,
      "hit": false,
      "t": 172743.60612500046,
      "d": 369.9589374999923,
      "v": 122
    },
    {
      "midi": 67,
      "hit": false,
      "t": 172743.60612500046,
      "d": 420.36206250000396,
      "v": 123
    },
    {
      "midi": 63,
      "hit": false,
      "t": 172743.60612500046,
      "d": 423.3862500000105,
      "v": 123
    },
    {
      "midi": 48,
      "hit": false,
      "t": 172743.60612500046,
      "d": 468.74906250002095,
      "v": 123
    },
    {
      "midi": 71,
      "hit": false,
      "t": 173227.47612500048,
      "d": 70.5643749999872,
      "v": 120
    },
    {
      "midi": 67,
      "hit": false,
      "t": 173227.47612500048,
      "d": 77.620812499983,
      "v": 122
    },
    {
      "midi": 62,
      "hit": false,
      "t": 173227.47612500048,
      "d": 85.68531249999069,
      "v": 121
    },
    {
      "midi": 55,
      "hit": false,
      "t": 173227.47612500048,
      "d": 95.76593749999302,
      "v": 123
    },
    {
      "midi": 67,
      "hit": false,
      "t": 173469.41112500048,
      "d": 292.3381250000093,
      "v": 123
    },
    {
      "midi": 71,
      "hit": false,
      "t": 173469.41112500048,
      "d": 299.3945625000051,
      "v": 121
    },
    {
      "midi": 62,
      "hit": false,
      "t": 173469.41112500048,
      "d": 309.47518750000745,
      "v": 122
    },
    {
      "midi": 55,
      "hit": false,
      "t": 173469.41112500048,
      "d": 312.49937500001397,
      "v": 126
    },
    {
      "midi": 67,
      "hit": false,
      "t": 173953.2811250005,
      "d": 660.280937500007,
      "v": 124
    },
    {
      "midi": 72,
      "hit": false,
      "t": 173953.2811250005,
      "d": 660.280937500007,
      "v": 124
    },
    {
      "midi": 48,
      "hit": false,
      "t": 173953.2811250005,
      "d": 662.2970625000016,
      "v": 122
    },
    {
      "midi": 63,
      "hit": false,
      "t": 173953.2811250005,
      "d": 662.2970625000016,
      "v": 122
    },
    {
      "midi": 67,
      "hit": false,
      "t": 174679.0861250005,
      "d": 894.151437499997,
      "v": 124
    },
    {
      "midi": 72,
      "hit": false,
      "t": 174679.0861250005,
      "d": 894.151437499997,
      "v": 124
    },
    {
      "midi": 48,
      "hit": false,
      "t": 174679.0861250005,
      "d": 897.1756250000035,
      "v": 122
    },
    {
      "midi": 63,
      "hit": false,
      "t": 174679.0861250005,
      "d": 897.1756250000035,
      "v": 122
    },
    {
      "midi": 67,
      "hit": false,
      "t": 175646.8261250005,
      "d": 413.30562500000815,
      "v": 123
    },
    {
      "midi": 63,
      "hit": false,
      "t": 175646.8261250005,
      "d": 415.3217500000028,
      "v": 124
    },
    {
      "midi": 72,
      "hit": false,
      "t": 175646.8261250005,
      "d": 418.3459375000093,
      "v": 121
    },
    {
      "midi": 48,
      "hit": false,
      "t": 175646.8261250005,
      "d": 445.5636250000098,
      "v": 123
    },
    {
      "midi": 63,
      "hit": false,
      "t": 176130.69612500048,
      "d": 1231.8523749999877,
      "v": 125
    },
    {
      "midi": 67,
      "hit": false,
      "t": 176130.69612500048,
      "d": 1244.9571874999965,
      "v": 125
    },
    {
      "midi": 60,
      "hit": false,
      "t": 176130.69612500048,
      "d": 1257.0539374999935,
      "v": 123
    },
    {
      "midi": 48,
      "hit": false,
      "t": 176130.69612500048,
      "d": 1265.1184375000012,
      "v": 125
    },
    {
      "midi": 63,
      "hit": false,
      "t": 177582.3061250005,
      "d": 374.9992499999935,
      "v": 123
    },
    {
      "midi": 60,
      "hit": false,
      "t": 177582.3061250005,
      "d": 378.0234375,
      "v": 121
    },
    {
      "midi": 67,
      "hit": false,
      "t": 177582.3061250005,
      "d": 393.1443750000035,
      "v": 123
    },
    {
      "midi": 48,
      "hit": false,
      "t": 177582.3061250005,
      "d": 478.8296874999942,
      "v": 121
    },
    {
      "midi": 60,
      "hit": false,
      "t": 178066.1761250005,
      "d": 1297.3764375000028,
      "v": 122
    },
    {
      "midi": 68,
      "hit": false,
      "t": 178066.1761250005,
      "d": 1297.3764375000028,
      "v": 123
    },
    {
      "midi": 65,
      "hit": false,
      "t": 178066.1761250005,
      "d": 1300.4006250000093,
      "v": 123
    },
    {
      "midi": 53,
      "hit": false,
      "t": 178066.1761250005,
      "d": 1310.4812500000116,
      "v": 124
    },
    {
      "midi": 68,
      "hit": false,
      "t": 179517.7861250005,
      "d": 354.8379999999888,
      "v": 123
    },
    {
      "midi": 65,
      "hit": false,
      "t": 179517.7861250005,
      "d": 372.98312499999884,
      "v": 122
    },
    {
      "midi": 60,
      "hit": false,
      "t": 179517.7861250005,
      "d": 383.06375000000116,
      "v": 121
    },
    {
      "midi": 53,
      "hit": false,
      "t": 179517.7861250005,
      "d": 420.36206250000396,
      "v": 123
    },
    {
      "midi": 63,
      "hit": false,
      "t": 180001.6561250005,
      "d": 1345.7634374999907,
      "v": 123
    },
    {
      "midi": 67,
      "hit": false,
      "t": 180001.6561250005,
      "d": 1360.8843749999942,
      "v": 123
    },
    {
      "midi": 60,
      "hit": false,
      "t": 180001.6561250005,
      "d": 1367.94081249999,
      "v": 123
    },
    {
      "midi": 48,
      "hit": false,
      "t": 180001.6561250005,
      "d": 1372.9811249999912,
      "v": 123
    },
    {
      "midi": 60,
      "hit": false,
      "t": 181453.2661250005,
      "d": 372.98312499999884,
      "v": 122
    },
    {
      "midi": 67,
      "hit": false,
      "t": 181453.2661250005,
      "d": 420.36206250000396,
      "v": 123
    },
    {
      "midi": 63,
      "hit": false,
      "t": 181453.2661250005,
      "d": 423.3862500000105,
      "v": 123
    },
    {
      "midi": 48,
      "hit": false,
      "t": 181453.2661250005,
      "d": 468.74906250002095,
      "v": 123
    },
    {
      "midi": 67,
      "hit": false,
      "t": 181937.1361250005,
      "d": 1332.658625000011,
      "v": 124
    },
    {
      "midi": 62,
      "hit": false,
      "t": 181937.1361250005,
      "d": 1340.7231250000186,
      "v": 124
    },
    {
      "midi": 59,
      "hit": false,
      "t": 181937.1361250005,
      "d": 1360.8843750000233,
      "v": 122
    },
    {
      "midi": 55,
      "hit": false,
      "t": 181937.1361250005,
      "d": 1362.900500000018,
      "v": 122
    },
    {
      "midi": 62,
      "hit": false,
      "t": 183388.74612500053,
      "d": 405.24112500000047,
      "v": 123
    },
    {
      "midi": 67,
      "hit": false,
      "t": 183388.74612500053,
      "d": 405.24112500000047,
      "v": 124
    },
    {
      "midi": 59,
      "hit": false,
      "t": 183388.74612500053,
      "d": 408.265312500007,
      "v": 121
    },
    {
      "midi": 55,
      "hit": false,
      "t": 183388.74612500053,
      "d": 438.50718750001397,
      "v": 123
    },
    {
      "midi": 63,
      "hit": false,
      "t": 183872.61612500055,
      "d": 1234.8765624999942,
      "v": 125
    },
    {
      "midi": 67,
      "hit": false,
      "t": 183872.61612500055,
      "d": 1244.9571874999965,
      "v": 125
    },
    {
      "midi": 60,
      "hit": false,
      "t": 183872.61612500055,
      "d": 1257.0539374999935,
      "v": 123
    },
    {
      "midi": 48,
      "hit": false,
      "t": 183872.61612500055,
      "d": 1265.1184375000012,
      "v": 125
    },
    {
      "midi": 63,
      "hit": false,
      "t": 185324.22612500057,
      "d": 378.0234375,
      "v": 123
    },
    {
      "midi": 60,
      "hit": false,
      "t": 185324.22612500057,
      "d": 380.03956249999464,
      "v": 121
    },
    {
      "midi": 67,
      "hit": false,
      "t": 185324.22612500057,
      "d": 393.1443750000035,
      "v": 123
    },
    {
      "midi": 48,
      "hit": false,
      "t": 185324.22612500057,
      "d": 478.8296874999942,
      "v": 121
    },
    {
      "midi": 68,
      "hit": false,
      "t": 185808.09612500056,
      "d": 1295.3603125000081,
      "v": 123
    },
    {
      "midi": 60,
      "hit": false,
      "t": 185808.09612500056,
      "d": 1297.3764375000028,
      "v": 122
    },
    {
      "midi": 65,
      "hit": false,
      "t": 185808.09612500056,
      "d": 1300.4006250000093,
      "v": 123
    },
    {
      "midi": 53,
      "hit": false,
      "t": 185808.09612500056,
      "d": 1307.4570625000051,
      "v": 124
    },
    {
      "midi": 68,
      "hit": false,
      "t": 187259.70612500058,
      "d": 354.8379999999888,
      "v": 123
    },
    {
      "midi": 65,
      "hit": false,
      "t": 187259.70612500058,
      "d": 372.98312499999884,
      "v": 122
    },
    {
      "midi": 60,
      "hit": false,
      "t": 187259.70612500058,
      "d": 383.06375000000116,
      "v": 121
    },
    {
      "midi": 53,
      "hit": false,
      "t": 187259.70612500058,
      "d": 418.3459375000093,
      "v": 123
    },
    {
      "midi": 63,
      "hit": false,
      "t": 187743.57612500057,
      "d": 423.3862500000105,
      "v": 123
    },
    {
      "midi": 67,
      "hit": false,
      "t": 187743.57612500057,
      "d": 428.42656250001164,
      "v": 123
    },
    {
      "midi": 60,
      "hit": false,
      "t": 187743.57612500057,
      "d": 430.4426875000063,
      "v": 123
    },
    {
      "midi": 48,
      "hit": false,
      "t": 187743.57612500057,
      "d": 443.54750000001513,
      "v": 123
    },
    {
      "midi": 60,
      "hit": false,
      "t": 188227.4461250006,
      "d": 369.9589374999923,
      "v": 122
    },
    {
      "midi": 67,
      "hit": false,
      "t": 188227.4461250006,
      "d": 420.36206250000396,
      "v": 123
    },
    {
      "midi": 63,
      "hit": false,
      "t": 188227.4461250006,
      "d": 423.3862500000105,
      "v": 123
    },
    {
      "midi": 48,
      "hit": false,
      "t": 188227.4461250006,
      "d": 468.74906250002095,
      "v": 123
    },
    {
      "midi": 71,
      "hit": false,
      "t": 188711.31612500062,
      "d": 70.5643749999872,
      "v": 120
    },
    {
      "midi": 67,
      "hit": false,
      "t": 188711.31612500062,
      "d": 77.620812499983,
      "v": 122
    },
    {
      "midi": 62,
      "hit": false,
      "t": 188711.31612500062,
      "d": 85.68531249999069,
      "v": 121
    },
    {
      "midi": 55,
      "hit": false,
      "t": 188711.31612500062,
      "d": 95.76593749999302,
      "v": 123
    },
    {
      "midi": 67,
      "hit": false,
      "t": 188953.25112500062,
      "d": 292.3381250000093,
      "v": 123
    },
    {
      "midi": 71,
      "hit": false,
      "t": 188953.25112500062,
      "d": 299.3945625000051,
      "v": 121
    },
    {
      "midi": 62,
      "hit": false,
      "t": 188953.25112500062,
      "d": 309.47518750000745,
      "v": 122
    },
    {
      "midi": 55,
      "hit": false,
      "t": 188953.25112500062,
      "d": 312.49937500001397,
      "v": 126
    },
    {
      "midi": 67,
      "hit": false,
      "t": 189437.12112500065,
      "d": 660.280937500007,
      "v": 124
    },
    {
      "midi": 72,
      "hit": false,
      "t": 189437.12112500065,
      "d": 660.280937500007,
      "v": 124
    },
    {
      "midi": 48,
      "hit": false,
      "t": 189437.12112500065,
      "d": 662.2970625000016,
      "v": 122
    },
    {
      "midi": 63,
      "hit": false,
      "t": 189437.12112500065,
      "d": 662.2970625000016,
      "v": 122
    },
    {
      "midi": 67,
      "hit": false,
      "t": 190162.92612500064,
      "d": 894.151437499997,
      "v": 124
    },
    {
      "midi": 72,
      "hit": false,
      "t": 190162.92612500064,
      "d": 894.151437499997,
      "v": 124
    },
    {
      "midi": 48,
      "hit": false,
      "t": 190162.92612500064,
      "d": 897.1756250000035,
      "v": 122
    },
    {
      "midi": 63,
      "hit": false,
      "t": 190162.92612500064,
      "d": 897.1756250000035,
      "v": 122
    },
    {
      "midi": 67,
      "hit": false,
      "t": 191130.66612500063,
      "d": 413.30562500000815,
      "v": 123
    },
    {
      "midi": 63,
      "hit": false,
      "t": 191130.66612500063,
      "d": 415.3217500000028,
      "v": 124
    },
    {
      "midi": 72,
      "hit": false,
      "t": 191130.66612500063,
      "d": 418.3459375000093,
      "v": 121
    },
    {
      "midi": 48,
      "hit": false,
      "t": 191130.66612500063,
      "d": 445.5636250000098,
      "v": 123
    },
    {
      "midi": 63,
      "hit": false,
      "t": 191614.53612500062,
      "d": 423.3862500000105,
      "v": 123
    },
    {
      "midi": 67,
      "hit": false,
      "t": 191614.53612500062,
      "d": 428.42656250001164,
      "v": 123
    },
    {
      "midi": 60,
      "hit": false,
      "t": 191614.53612500062,
      "d": 430.4426875000063,
      "v": 123
    },
    {
      "midi": 48,
      "hit": false,
      "t": 191614.53612500062,
      "d": 443.54750000001513,
      "v": 123
    },
    {
      "midi": 60,
      "hit": false,
      "t": 192098.40612500065,
      "d": 369.9589374999923,
      "v": 122
    },
    {
      "midi": 67,
      "hit": false,
      "t": 192098.40612500065,
      "d": 420.36206250000396,
      "v": 123
    },
    {
      "midi": 63,
      "hit": false,
      "t": 192098.40612500065,
      "d": 423.3862500000105,
      "v": 123
    },
    {
      "midi": 48,
      "hit": false,
      "t": 192098.40612500065,
      "d": 468.74906250002095,
      "v": 123
    },
    {
      "midi": 71,
      "hit": false,
      "t": 192582.27612500067,
      "d": 70.5643749999872,
      "v": 120
    },
    {
      "midi": 67,
      "hit": false,
      "t": 192582.27612500067,
      "d": 77.620812499983,
      "v": 122
    },
    {
      "midi": 62,
      "hit": false,
      "t": 192582.27612500067,
      "d": 85.68531249999069,
      "v": 121
    },
    {
      "midi": 55,
      "hit": false,
      "t": 192582.27612500067,
      "d": 95.76593749999302,
      "v": 123
    },
    {
      "midi": 67,
      "hit": false,
      "t": 192824.21112500067,
      "d": 292.3381250000093,
      "v": 123
    },
    {
      "midi": 71,
      "hit": false,
      "t": 192824.21112500067,
      "d": 299.3945625000051,
      "v": 121
    },
    {
      "midi": 62,
      "hit": false,
      "t": 192824.21112500067,
      "d": 309.47518750000745,
      "v": 122
    },
    {
      "midi": 55,
      "hit": false,
      "t": 192824.21112500067,
      "d": 312.49937500001397,
      "v": 126
    },
    {
      "midi": 67,
      "hit": false,
      "t": 193308.0811250007,
      "d": 660.280937500007,
      "v": 124
    },
    {
      "midi": 72,
      "hit": false,
      "t": 193308.0811250007,
      "d": 660.280937500007,
      "v": 124
    },
    {
      "midi": 48,
      "hit": false,
      "t": 193308.0811250007,
      "d": 662.2970625000016,
      "v": 122
    },
    {
      "midi": 63,
      "hit": false,
      "t": 193308.0811250007,
      "d": 662.2970625000016,
      "v": 122
    },
    {
      "midi": 67,
      "hit": false,
      "t": 194033.8861250007,
      "d": 894.151437499997,
      "v": 124
    },
    {
      "midi": 72,
      "hit": false,
      "t": 194033.8861250007,
      "d": 894.151437499997,
      "v": 124
    },
    {
      "midi": 48,
      "hit": false,
      "t": 194033.8861250007,
      "d": 897.1756250000035,
      "v": 122
    },
    {
      "midi": 63,
      "hit": false,
      "t": 194033.8861250007,
      "d": 897.1756250000035,
      "v": 122
    },
    {
      "midi": 67,
      "hit": false,
      "t": 195001.62612500068,
      "d": 413.30562500000815,
      "v": 123
    },
    {
      "midi": 63,
      "hit": false,
      "t": 195001.62612500068,
      "d": 415.3217500000028,
      "v": 124
    },
    {
      "midi": 72,
      "hit": false,
      "t": 195001.62612500068,
      "d": 418.3459375000093,
      "v": 121
    },
    {
      "midi": 48,
      "hit": false,
      "t": 195001.62612500068,
      "d": 445.5636250000098,
      "v": 123
    },
    {
      "midi": 63,
      "hit": false,
      "t": 195485.49612500067,
      "d": 423.3862500000105,
      "v": 123
    },
    {
      "midi": 67,
      "hit": false,
      "t": 195485.49612500067,
      "d": 428.42656250001164,
      "v": 123
    },
    {
      "midi": 60,
      "hit": false,
      "t": 195485.49612500067,
      "d": 430.4426875000063,
      "v": 123
    },
    {
      "midi": 48,
      "hit": false,
      "t": 195485.49612500067,
      "d": 443.54750000001513,
      "v": 123
    },
    {
      "midi": 60,
      "hit": false,
      "t": 195969.3661250007,
      "d": 369.9589374999923,
      "v": 122
    },
    {
      "midi": 67,
      "hit": false,
      "t": 195969.3661250007,
      "d": 420.36206250000396,
      "v": 123
    },
    {
      "midi": 63,
      "hit": false,
      "t": 195969.3661250007,
      "d": 423.3862500000105,
      "v": 123
    },
    {
      "midi": 48,
      "hit": false,
      "t": 195969.3661250007,
      "d": 468.74906250002095,
      "v": 123
    },
    {
      "midi": 71,
      "hit": false,
      "t": 196453.23612500072,
      "d": 70.5643749999872,
      "v": 120
    },
    {
      "midi": 67,
      "hit": false,
      "t": 196453.23612500072,
      "d": 77.620812499983,
      "v": 122
    },
    {
      "midi": 62,
      "hit": false,
      "t": 196453.23612500072,
      "d": 85.68531249999069,
      "v": 121
    },
    {
      "midi": 55,
      "hit": false,
      "t": 196453.23612500072,
      "d": 95.76593749999302,
      "v": 123
    },
    {
      "midi": 67,
      "hit": false,
      "t": 196695.17112500072,
      "d": 292.3381250000093,
      "v": 123
    },
    {
      "midi": 71,
      "hit": false,
      "t": 196695.17112500072,
      "d": 299.3945625000051,
      "v": 121
    },
    {
      "midi": 62,
      "hit": false,
      "t": 196695.17112500072,
      "d": 309.47518750000745,
      "v": 122
    },
    {
      "midi": 55,
      "hit": false,
      "t": 196695.17112500072,
      "d": 312.49937500001397,
      "v": 126
    },
    {
      "midi": 67,
      "hit": false,
      "t": 197179.04112500075,
      "d": 660.280937500007,
      "v": 124
    },
    {
      "midi": 72,
      "hit": false,
      "t": 197179.04112500075,
      "d": 660.280937500007,
      "v": 124
    },
    {
      "midi": 48,
      "hit": false,
      "t": 197179.04112500075,
      "d": 662.2970625000016,
      "v": 122
    },
    {
      "midi": 63,
      "hit": false,
      "t": 197179.04112500075,
      "d": 662.2970625000016,
      "v": 122
    },
    {
      "midi": 67,
      "hit": false,
      "t": 197904.84612500074,
      "d": 894.151437499997,
      "v": 124
    },
    {
      "midi": 72,
      "hit": false,
      "t": 197904.84612500074,
      "d": 894.151437499997,
      "v": 124
    },
    {
      "midi": 48,
      "hit": false,
      "t": 197904.84612500074,
      "d": 897.1756250000035,
      "v": 122
    },
    {
      "midi": 63,
      "hit": false,
      "t": 197904.84612500074,
      "d": 897.1756250000035,
      "v": 122
    },
    {
      "midi": 67,
      "hit": false,
      "t": 198872.58612500073,
      "d": 413.30562500000815,
      "v": 123
    },
    {
      "midi": 63,
      "hit": false,
      "t": 198872.58612500073,
      "d": 415.3217500000028,
      "v": 124
    },
    {
      "midi": 72,
      "hit": false,
      "t": 198872.58612500073,
      "d": 418.3459375000093,
      "v": 121
    },
    {
      "midi": 48,
      "hit": false,
      "t": 198872.58612500073,
      "d": 445.5636250000098,
      "v": 123
    },
    {
      "midi": 63,
      "hit": false,
      "t": 199356.45612500072,
      "d": 423.3862500000105,
      "v": 123
    },
    {
      "midi": 67,
      "hit": false,
      "t": 199356.45612500072,
      "d": 428.42656250001164,
      "v": 123
    },
    {
      "midi": 60,
      "hit": false,
      "t": 199356.45612500072,
      "d": 430.4426875000063,
      "v": 123
    },
    {
      "midi": 48,
      "hit": false,
      "t": 199356.45612500072,
      "d": 443.54750000001513,
      "v": 123
    },
    {
      "midi": 60,
      "hit": false,
      "t": 199840.32612500075,
      "d": 369.9589374999923,
      "v": 122
    },
    {
      "midi": 67,
      "hit": false,
      "t": 199840.32612500075,
      "d": 420.36206250000396,
      "v": 123
    },
    {
      "midi": 63,
      "hit": false,
      "t": 199840.32612500075,
      "d": 423.3862500000105,
      "v": 123
    },
    {
      "midi": 48,
      "hit": false,
      "t": 199840.32612500075,
      "d": 468.74906250002095,
      "v": 123
    },
    {
      "midi": 71,
      "hit": false,
      "t": 200324.19612500077,
      "d": 70.5643749999872,
      "v": 120
    },
    {
      "midi": 67,
      "hit": false,
      "t": 200324.19612500077,
      "d": 77.620812499983,
      "v": 122
    },
    {
      "midi": 62,
      "hit": false,
      "t": 200324.19612500077,
      "d": 85.68531249999069,
      "v": 121
    },
    {
      "midi": 55,
      "hit": false,
      "t": 200324.19612500077,
      "d": 95.76593749999302,
      "v": 123
    },
    {
      "midi": 67,
      "hit": false,
      "t": 200566.13112500077,
      "d": 292.3381250000093,
      "v": 123
    },
    {
      "midi": 71,
      "hit": false,
      "t": 200566.13112500077,
      "d": 299.3945625000051,
      "v": 121
    },
    {
      "midi": 62,
      "hit": false,
      "t": 200566.13112500077,
      "d": 309.47518750000745,
      "v": 122
    },
    {
      "midi": 55,
      "hit": false,
      "t": 200566.13112500077,
      "d": 312.49937500001397,
      "v": 126
    },
    {
      "midi": 48,
      "hit": false,
      "t": 201050.0011250008,
      "d": 299.3945625000051,
      "v": 122
    },
    {
      "midi": 63,
      "hit": false,
      "t": 201050.0011250008,
      "d": 299.3945625000051,
      "v": 122
    },
    {
      "midi": 67,
      "hit": false,
      "t": 201050.0011250008,
      "d": 299.3945625000051,
      "v": 124
    },
    {
      "midi": 72,
      "hit": false,
      "t": 201050.0011250008,
      "d": 299.3945625000051,
      "v": 124
    }
  ]
}