{
  "jsonPath": "Country/Classic Country Pop/Gary Morris/makin-up-for-lost-time-duet-w-crystal-gayle-album-version.json",
  "path": "Country\\Classic Country Pop\\Gary Morris\\Makin Up For Lost Time (Duet W Crystal Gayle) (Album Version).mid",
  "name": "Makin Up For Lost Time (Duet W Crystal Gayle) (Album Version)",
  "difficulty": "Advanced",
  "bpm": 110.00011000011,
  "notes": [
    {
      "midi": 37,
      "hit": false,
      "t": 3008.5197187500003,
      "d": 4767.040687499999,
      "v": 61
    },
    {
      "midi": 53,
      "hit": false,
      "t": 3036.92878125,
      "d": 4525.5636562499985,
      "v": 62
    },
    {
      "midi": 56,
      "hit": false,
      "t": 3088.06509375,
      "d": 4582.381781249998,
      "v": 62
    },
    {
      "midi": 61,
      "hit": false,
      "t": 3150.56503125,
      "d": 4582.381781249998,
      "v": 61
    },
    {
      "midi": 85,
      "hit": false,
      "t": 4352.268375,
      "d": 346.5905624999996,
      "v": 58
    },
    {
      "midi": 84,
      "hit": false,
      "t": 4642.040812499999,
      "d": 1008.5217187500002,
      "v": 78
    },
    {
      "midi": 85,
      "hit": false,
      "t": 4985.7904687499995,
      "d": 48.29540625000027,
      "v": 68
    },
    {
      "midi": 80,
      "hit": false,
      "t": 5656.24434375,
      "d": 1267.0441874999997,
      "v": 53
    },
    {
      "midi": 46,
      "hit": false,
      "t": 7747.151343749999,
      "d": 4727.268000000001,
      "v": 64
    },
    {
      "midi": 53,
      "hit": false,
      "t": 7792.605843749999,
      "d": 4480.109156250001,
      "v": 60
    },
    {
      "midi": 58,
      "hit": false,
      "t": 7849.4239687499985,
      "d": 4590.9045000000015,
      "v": 64
    },
    {
      "midi": 61,
      "hit": false,
      "t": 7926.128437499999,
      "d": 4440.336468750001,
      "v": 64
    },
    {
      "midi": 73,
      "hit": false,
      "t": 8994.3091875,
      "d": 573.8630625000005,
      "v": 74
    },
    {
      "midi": 77,
      "hit": false,
      "t": 9539.763187499999,
      "d": 732.9538125000017,
      "v": 51
    },
    {
      "midi": 75,
      "hit": false,
      "t": 10264.19428125,
      "d": 664.7720625000002,
      "v": 57
    },
    {
      "midi": 82,
      "hit": false,
      "t": 10906.23909375,
      "d": 1528.4075624999987,
      "v": 50
    },
    {
      "midi": 39,
      "hit": false,
      "t": 12426.123937499999,
      "d": 4928.972343749998,
      "v": 63
    },
    {
      "midi": 54,
      "hit": false,
      "t": 12508.51021875,
      "d": 4482.950062499998,
      "v": 61
    },
    {
      "midi": 58,
      "hit": false,
      "t": 12556.805624999999,
      "d": 4417.609218749998,
      "v": 62
    },
    {
      "midi": 63,
      "hit": false,
      "t": 12616.464656249998,
      "d": 4392.0410625,
      "v": 60
    },
    {
      "midi": 73,
      "hit": false,
      "t": 14071.008656249998,
      "d": 704.5447499999991,
      "v": 53
    },
    {
      "midi": 75,
      "hit": false,
      "t": 14809.644281249997,
      "d": 1363.6350000000002,
      "v": 56
    },
    {
      "midi": 44,
      "hit": false,
      "t": 17281.232718749998,
      "d": 3414.769312499997,
      "v": 60
    },
    {
      "midi": 56,
      "hit": false,
      "t": 17355.096281249997,
      "d": 3340.905749999998,
      "v": 61
    },
    {
      "midi": 60,
      "hit": false,
      "t": 17406.232593749995,
      "d": 3298.292156249998,
      "v": 63
    },
    {
      "midi": 63,
      "hit": false,
      "t": 17471.573437499996,
      "d": 3238.6331249999967,
      "v": 65
    },
    {
      "midi": 75,
      "hit": false,
      "t": 17471.573437499996,
      "d": 3238.6331249999967,
      "v": 58
    },
    {
      "midi": 44,
      "hit": false,
      "t": 20724.411093749994,
      "d": 508.5222187500003,
      "v": 68
    },
    {
      "midi": 56,
      "hit": false,
      "t": 20727.251999999993,
      "d": 508.5222187500003,
      "v": 74
    },
    {
      "midi": 60,
      "hit": false,
      "t": 20727.251999999993,
      "d": 508.5222187500003,
      "v": 81
    },
    {
      "midi": 63,
      "hit": false,
      "t": 20727.251999999993,
      "d": 508.5222187500003,
      "v": 72
    },
    {
      "midi": 49,
      "hit": false,
      "t": 21281.228718749993,
      "d": 508.5222187500003,
      "v": 72
    },
    {
      "midi": 56,
      "hit": false,
      "t": 21284.069624999993,
      "d": 508.5222187500003,
      "v": 68
    },
    {
      "midi": 61,
      "hit": false,
      "t": 21284.069624999993,
      "d": 508.5222187500003,
      "v": 77
    },
    {
      "midi": 65,
      "hit": false,
      "t": 21284.069624999993,
      "d": 508.5222187500003,
      "v": 82
    },
    {
      "midi": 61,
      "hit": false,
      "t": 21818.159999999993,
      "d": 1985.7934687499983,
      "v": 72
    },
    {
      "midi": 58,
      "hit": false,
      "t": 21818.159999999993,
      "d": 2045.4524999999994,
      "v": 73
    },
    {
      "midi": 66,
      "hit": false,
      "t": 21818.159999999993,
      "d": 2076.702468749998,
      "v": 71
    },
    {
      "midi": 51,
      "hit": false,
      "t": 21818.159999999993,
      "d": 2164.770562499998,
      "v": 69
    },
    {
      "midi": 44,
      "hit": false,
      "t": 23994.294187499992,
      "d": 2235.7932187499973,
      "v": 69
    },
    {
      "midi": 60,
      "hit": false,
      "t": 24005.657812499994,
      "d": 1883.5208437500005,
      "v": 72
    },
    {
      "midi": 63,
      "hit": false,
      "t": 24008.498718749994,
      "d": 2159.088749999999,
      "v": 70
    },
    {
      "midi": 56,
      "hit": false,
      "t": 24019.862343749995,
      "d": 1877.8390312499978,
      "v": 62
    },
    {
      "midi": 56,
      "hit": false,
      "t": 26190.314718749993,
      "d": 1957.3844062499957,
      "v": 68
    },
    {
      "midi": 49,
      "hit": false,
      "t": 26190.314718749993,
      "d": 2170.4523749999935,
      "v": 70
    },
    {
      "midi": 61,
      "hit": false,
      "t": 26195.99653124999,
      "d": 2019.8843437499963,
      "v": 71
    },
    {
      "midi": 65,
      "hit": false,
      "t": 26201.67834374999,
      "d": 1985.7934687499983,
      "v": 73
    },
    {
      "midi": 46,
      "hit": false,
      "t": 28355.085281249987,
      "d": 2213.0659687499974,
      "v": 65
    },
    {
      "midi": 61,
      "hit": false,
      "t": 28366.448906249985,
      "d": 2002.8389062499991,
      "v": 69
    },
    {
      "midi": 58,
      "hit": false,
      "t": 28369.289812499985,
      "d": 2005.6798124999987,
      "v": 69
    },
    {
      "midi": 65,
      "hit": false,
      "t": 28369.289812499985,
      "d": 2053.975218749998,
      "v": 75
    },
    {
      "midi": 58,
      "hit": false,
      "t": 30545.423999999985,
      "d": 1977.2707499999997,
      "v": 70
    },
    {
      "midi": 61,
      "hit": false,
      "t": 30545.423999999985,
      "d": 1980.1116562499992,
      "v": 70
    },
    {
      "midi": 66,
      "hit": false,
      "t": 30545.423999999985,
      "d": 2110.7933437499996,
      "v": 71
    },
    {
      "midi": 51,
      "hit": false,
      "t": 30553.946718749983,
      "d": 2124.997875000001,
      "v": 62
    },
    {
      "midi": 44,
      "hit": false,
      "t": 32724.399093749984,
      "d": 2193.1796250000043,
      "v": 70
    },
    {
      "midi": 60,
      "hit": false,
      "t": 32727.239999999983,
      "d": 1906.2480937500004,
      "v": 73
    },
    {
      "midi": 56,
      "hit": false,
      "t": 32727.239999999983,
      "d": 2062.497937500004,
      "v": 69
    },
    {
      "midi": 63,
      "hit": false,
      "t": 32730.080906249983,
      "d": 2082.384281250008,
      "v": 70
    },
    {
      "midi": 49,
      "hit": false,
      "t": 34911.89690624999,
      "d": 2161.929656249995,
      "v": 69
    },
    {
      "midi": 61,
      "hit": false,
      "t": 34914.73781249999,
      "d": 2008.5207187499982,
      "v": 70
    },
    {
      "midi": 56,
      "hit": false,
      "t": 34917.57871874999,
      "d": 1835.2254374999975,
      "v": 66
    },
    {
      "midi": 65,
      "hit": false,
      "t": 34926.10143749999,
      "d": 1911.9299062499995,
      "v": 69
    },
    {
      "midi": 46,
      "hit": false,
      "t": 37085.19018749998,
      "d": 1346.5895624999976,
      "v": 72
    },
    {
      "midi": 58,
      "hit": false,
      "t": 37088.03109374998,
      "d": 1346.5895624999976,
      "v": 70
    },
    {
      "midi": 61,
      "hit": false,
      "t": 37088.03109374998,
      "d": 1346.5895624999976,
      "v": 70
    },
    {
      "midi": 65,
      "hit": false,
      "t": 37090.87199999998,
      "d": 1346.5895624999976,
      "v": 74
    },
    {
      "midi": 60,
      "hit": false,
      "t": 38536.89328124998,
      "d": 693.1811250000028,
      "v": 71
    },
    {
      "midi": 44,
      "hit": false,
      "t": 38539.73418749998,
      "d": 693.1811250000028,
      "v": 71
    },
    {
      "midi": 56,
      "hit": false,
      "t": 38539.73418749998,
      "d": 693.1811250000028,
      "v": 67
    },
    {
      "midi": 63,
      "hit": false,
      "t": 38539.73418749998,
      "d": 693.1811250000028,
      "v": 66
    },
    {
      "midi": 61,
      "hit": false,
      "t": 39272.68799999998,
      "d": 4167.609468750001,
      "v": 72
    },
    {
      "midi": 56,
      "hit": false,
      "t": 39272.68799999998,
      "d": 4227.268499999998,
      "v": 73
    },
    {
      "midi": 65,
      "hit": false,
      "t": 39272.68799999998,
      "d": 4258.5184687500005,
      "v": 71
    },
    {
      "midi": 49,
      "hit": false,
      "t": 39272.68799999998,
      "d": 4346.586562500001,
      "v": 69
    },
    {
      "midi": 46,
      "hit": false,
      "t": 43644.842718749984,
      "d": 3585.2236875000017,
      "v": 70
    },
    {
      "midi": 58,
      "hit": false,
      "t": 43644.842718749984,
      "d": 3585.2236875000017,
      "v": 68
    },
    {
      "midi": 61,
      "hit": false,
      "t": 43650.52453124998,
      "d": 3585.2236875000017,
      "v": 71
    },
    {
      "midi": 65,
      "hit": false,
      "t": 43656.20634374998,
      "d": 3585.2236875000017,
      "v": 73
    },
    {
      "midi": 60,
      "hit": false,
      "t": 47264.15728124999,
      "d": 721.5901874999981,
      "v": 71
    },
    {
      "midi": 44,
      "hit": false,
      "t": 47266.99818749999,
      "d": 721.5901874999981,
      "v": 71
    },
    {
      "midi": 56,
      "hit": false,
      "t": 47266.99818749999,
      "d": 721.5901874999981,
      "v": 67
    },
    {
      "midi": 63,
      "hit": false,
      "t": 47266.99818749999,
      "d": 721.5901874999981,
      "v": 66
    },
    {
      "midi": 61,
      "hit": false,
      "t": 47999.95199999998,
      "d": 4167.609468750001,
      "v": 72
    },
    {
      "midi": 56,
      "hit": false,
      "t": 47999.95199999998,
      "d": 4227.268499999998,
      "v": 73
    },
    {
      "midi": 65,
      "hit": false,
      "t": 47999.95199999998,
      "d": 4258.5184687500005,
      "v": 71
    },
    {
      "midi": 49,
      "hit": false,
      "t": 47999.95199999998,
      "d": 4346.586562500001,
      "v": 69
    },
    {
      "midi": 46,
      "hit": false,
      "t": 52372.10671874999,
      "d": 3585.2236874999944,
      "v": 70
    },
    {
      "midi": 58,
      "hit": false,
      "t": 52372.10671874999,
      "d": 3585.2236874999944,
      "v": 68
    },
    {
      "midi": 61,
      "hit": false,
      "t": 52377.788531249986,
      "d": 3585.2236874999944,
      "v": 71
    },
    {
      "midi": 65,
      "hit": false,
      "t": 52383.470343749985,
      "d": 3585.2236874999944,
      "v": 73
    },
    {
      "midi": 61,
      "hit": false,
      "t": 55991.42128124998,
      "d": 690.340218749996,
      "v": 66
    },
    {
      "midi": 46,
      "hit": false,
      "t": 55994.26218749998,
      "d": 690.340218749996,
      "v": 66
    },
    {
      "midi": 58,
      "hit": false,
      "t": 55994.26218749998,
      "d": 690.340218749996,
      "v": 62
    },
    {
      "midi": 65,
      "hit": false,
      "t": 55994.26218749998,
      "d": 690.340218749996,
      "v": 61
    },
    {
      "midi": 44,
      "hit": false,
      "t": 56727.21599999998,
      "d": 4272.722999999998,
      "v": 69
    },
    {
      "midi": 60,
      "hit": false,
      "t": 56727.21599999998,
      "d": 4272.722999999998,
      "v": 73
    },
    {
      "midi": 63,
      "hit": false,
      "t": 56727.21599999998,
      "d": 4272.722999999998,
      "v": 72
    },
    {
      "midi": 68,
      "hit": false,
      "t": 56727.21599999998,
      "d": 4272.722999999998,
      "v": 71
    },
    {
      "midi": 44,
      "hit": false,
      "t": 61085.16618749998,
      "d": 4272.722999999998,
      "v": 69
    },
    {
      "midi": 63,
      "hit": false,
      "t": 61096.529812499975,
      "d": 4272.722999999998,
      "v": 72
    },
    {
      "midi": 68,
      "hit": false,
      "t": 61099.370718749975,
      "d": 4272.722999999998,
      "v": 70
    },
    {
      "midi": 60,
      "hit": false,
      "t": 61110.73434374997,
      "d": 4272.722999999998,
      "v": 62
    },
    {
      "midi": 49,
      "hit": false,
      "t": 65457.32090624997,
      "d": 2161.929656250002,
      "v": 69
    },
    {
      "midi": 61,
      "hit": false,
      "t": 65460.16181249997,
      "d": 2008.5207187499982,
      "v": 70
    },
    {
      "midi": 56,
      "hit": false,
      "t": 65463.00271874997,
      "d": 1835.2254374999975,
      "v": 66
    },
    {
      "midi": 65,
      "hit": false,
      "t": 65471.52543749997,
      "d": 1911.9299062499995,
      "v": 69
    },
    {
      "midi": 58,
      "hit": false,
      "t": 67636.29599999997,
      "d": 1977.270749999996,
      "v": 70
    },
    {
      "midi": 61,
      "hit": false,
      "t": 67636.29599999997,
      "d": 1980.1116562499956,
      "v": 70
    },
    {
      "midi": 66,
      "hit": false,
      "t": 67636.29599999997,
      "d": 2110.7933437499887,
      "v": 71
    },
    {
      "midi": 54,
      "hit": false,
      "t": 67644.81871874997,
      "d": 2124.9978749999864,
      "v": 62
    },
    {
      "midi": 49,
      "hit": false,
      "t": 69820.95290624996,
      "d": 2161.9296562500094,
      "v": 69
    },
    {
      "midi": 61,
      "hit": false,
      "t": 69823.79381249996,
      "d": 2008.5207187500055,
      "v": 70
    },
    {
      "midi": 56,
      "hit": false,
      "t": 69826.63471874996,
      "d": 1835.2254375000048,
      "v": 66
    },
    {
      "midi": 65,
      "hit": false,
      "t": 69835.15743749996,
      "d": 1911.9299062500068,
      "v": 69
    },
    {
      "midi": 56,
      "hit": false,
      "t": 71994.24618749997,
      "d": 1346.5895624999976,
      "v": 72
    },
    {
      "midi": 60,
      "hit": false,
      "t": 71997.08709374997,
      "d": 1346.5895624999976,
      "v": 70
    },
    {
      "midi": 63,
      "hit": false,
      "t": 71997.08709374997,
      "d": 1346.5895624999976,
      "v": 70
    },
    {
      "midi": 68,
      "hit": false,
      "t": 71999.92799999997,
      "d": 1346.5895624999976,
      "v": 74
    },
    {
      "midi": 63,
      "hit": false,
      "t": 73445.94928124997,
      "d": 693.1811250000028,
      "v": 71
    },
    {
      "midi": 44,
      "hit": false,
      "t": 73448.79018749997,
      "d": 693.1811250000028,
      "v": 71
    },
    {
      "midi": 60,
      "hit": false,
      "t": 73448.79018749997,
      "d": 693.1811250000028,
      "v": 67
    },
    {
      "midi": 68,
      "hit": false,
      "t": 73448.79018749997,
      "d": 693.1811250000028,
      "v": 66
    },
    {
      "midi": 77,
      "hit": false,
      "t": 74181.74399999996,
      "d": 411.93140625000524,
      "v": 60
    },
    {
      "midi": 61,
      "hit": false,
      "t": 74181.74399999996,
      "d": 4167.60946875019,
      "v": 76
    },
    {
      "midi": 56,
      "hit": false,
      "t": 74181.74399999996,
      "d": 4227.268500000195,
      "v": 77
    },
    {
      "midi": 65,
      "hit": false,
      "t": 74181.74399999996,
      "d": 4258.51846875019,
      "v": 75
    },
    {
      "midi": 73,
      "hit": false,
      "t": 74363.56199999996,
      "d": 230.11340625000594,
      "v": 56
    },
    {
      "midi": 68,
      "hit": false,
      "t": 74545.37999999996,
      "d": 230.1134062500205,
      "v": 48
    },
    {
      "midi": 77,
      "hit": false,
      "t": 74727.19799999997,
      "d": 411.9314062500198,
      "v": 61
    },
    {
      "midi": 73,
      "hit": false,
      "t": 74909.01599999999,
      "d": 230.11340625000594,
      "v": 59
    },
    {
      "midi": 68,
      "hit": false,
      "t": 75090.83399999999,
      "d": 230.1134062500205,
      "v": 50
    },
    {
      "midi": 77,
      "hit": false,
      "t": 75272.652,
      "d": 411.9314062500198,
      "v": 61
    },
    {
      "midi": 73,
      "hit": false,
      "t": 75454.47000000002,
      "d": 230.11340625000594,
      "v": 58
    },
    {
      "midi": 68,
      "hit": false,
      "t": 75636.28800000002,
      "d": 230.1134062500205,
      "v": 49
    },
    {
      "midi": 78,
      "hit": false,
      "t": 75818.10600000003,
      "d": 411.9314062500198,
      "v": 61
    },
    {
      "midi": 73,
      "hit": false,
      "t": 75999.92400000004,
      "d": 230.11340625000594,
      "v": 60
    },
    {
      "midi": 68,
      "hit": false,
      "t": 76181.74200000004,
      "d": 230.1134062500205,
      "v": 50
    },
    {
      "midi": 77,
      "hit": false,
      "t": 76363.56000000006,
      "d": 411.9314062500198,
      "v": 59
    },
    {
      "midi": 73,
      "hit": false,
      "t": 76545.37800000007,
      "d": 230.11340625000594,
      "v": 57
    },
    {
      "midi": 68,
      "hit": false,
      "t": 76727.19600000007,
      "d": 230.1134062500205,
      "v": 47
    },
    {
      "midi": 77,
      "hit": false,
      "t": 76909.01400000008,
      "d": 411.9314062500198,
      "v": 60
    },
    {
      "midi": 73,
      "hit": false,
      "t": 77090.8320000001,
      "d": 230.11340625000594,
      "v": 58
    },
    {
      "midi": 68,
      "hit": false,
      "t": 77272.6500000001,
      "d": 230.1134062500205,
      "v": 50
    },
    {
      "midi": 77,
      "hit": false,
      "t": 77454.46800000011,
      "d": 411.9314062500198,
      "v": 59
    },
    {
      "midi": 73,
      "hit": false,
      "t": 77636.28600000012,
      "d": 230.11340625000594,
      "v": 59
    },
    {
      "midi": 68,
      "hit": false,
      "t": 77818.10400000012,
      "d": 230.1134062500205,
      "v": 50
    },
    {
      "midi": 75,
      "hit": false,
      "t": 77999.92200000014,
      "d": 411.9314062500198,
      "v": 61
    },
    {
      "midi": 73,
      "hit": false,
      "t": 78181.74000000015,
      "d": 230.11340625000594,
      "v": 58
    },
    {
      "midi": 68,
      "hit": false,
      "t": 78363.55800000015,
      "d": 230.11340624999139,
      "v": 50
    },
    {
      "midi": 77,
      "hit": false,
      "t": 78545.37600000015,
      "d": 411.93140625000524,
      "v": 60
    },
    {
      "midi": 58,
      "hit": false,
      "t": 78553.89871875015,
      "d": 4312.495687500195,
      "v": 72
    },
    {
      "midi": 61,
      "hit": false,
      "t": 78559.58053125015,
      "d": 4312.495687500195,
      "v": 75
    },
    {
      "midi": 65,
      "hit": false,
      "t": 78565.26234375015,
      "d": 4312.495687500195,
      "v": 77
    },
    {
      "midi": 73,
      "hit": false,
      "t": 78727.19400000015,
      "d": 230.11340625000594,
      "v": 56
    },
    {
      "midi": 70,
      "hit": false,
      "t": 78909.01200000015,
      "d": 230.1134062500205,
      "v": 48
    },
    {
      "midi": 77,
      "hit": false,
      "t": 79090.83000000016,
      "d": 411.9314062500198,
      "v": 61
    },
    {
      "midi": 73,
      "hit": false,
      "t": 79272.64800000018,
      "d": 230.11340625000594,
      "v": 59
    },
    {
      "midi": 70,
      "hit": false,
      "t": 79454.46600000017,
      "d": 230.1134062500205,
      "v": 50
    },
    {
      "midi": 77,
      "hit": false,
      "t": 79636.28400000019,
      "d": 411.9314062500198,
      "v": 61
    },
    {
      "midi": 73,
      "hit": false,
      "t": 79818.1020000002,
      "d": 230.11340625000594,
      "v": 58
    },
    {
      "midi": 70,
      "hit": false,
      "t": 79999.9200000002,
      "d": 230.1134062500205,
      "v": 49
    },
    {
      "midi": 78,
      "hit": false,
      "t": 80181.73800000022,
      "d": 411.9314062500198,
      "v": 61
    },
    {
      "midi": 73,
      "hit": false,
      "t": 80363.55600000023,
      "d": 230.11340625000594,
      "v": 60
    },
    {
      "midi": 70,
      "hit": false,
      "t": 80545.37400000023,
      "d": 230.1134062500205,
      "v": 50
    },
    {
      "midi": 77,
      "hit": false,
      "t": 80727.19200000024,
      "d": 411.9314062500198,
      "v": 59
    },
    {
      "midi": 73,
      "hit": false,
      "t": 80909.01000000026,
      "d": 230.11340625000594,
      "v": 57
    },
    {
      "midi": 70,
      "hit": false,
      "t": 81090.82800000026,
      "d": 230.1134062500205,
      "v": 47
    },
    {
      "midi": 77,
      "hit": false,
      "t": 81272.64600000027,
      "d": 411.9314062500198,
      "v": 60
    },
    {
      "midi": 73,
      "hit": false,
      "t": 81454.46400000028,
      "d": 230.11340625000594,
      "v": 58
    },
    {
      "midi": 70,
      "hit": false,
      "t": 81636.28200000028,
      "d": 230.1134062500205,
      "v": 50
    },
    {
      "midi": 77,
      "hit": false,
      "t": 81818.1000000003,
      "d": 411.9314062500198,
      "v": 59
    },
    {
      "midi": 73,
      "hit": false,
      "t": 81999.91800000031,
      "d": 230.11340625000594,
      "v": 59
    },
    {
      "midi": 70,
      "hit": false,
      "t": 82181.73600000031,
      "d": 230.1134062500205,
      "v": 50
    },
    {
      "midi": 75,
      "hit": false,
      "t": 82363.55400000032,
      "d": 411.9314062500198,
      "v": 61
    },
    {
      "midi": 73,
      "hit": false,
      "t": 82545.37200000034,
      "d": 230.11340625000594,
      "v": 49
    },
    {
      "midi": 77,
      "hit": false,
      "t": 82727.19000000034,
      "d": 593.7494062500191,
      "v": 50
    },
    {
      "midi": 78,
      "hit": false,
      "t": 82909.00800000034,
      "d": 48.295406250006636,
      "v": 60
    },
    {
      "midi": 58,
      "hit": false,
      "t": 82909.00800000034,
      "d": 2142.0433125001,
      "v": 77
    },
    {
      "midi": 61,
      "hit": false,
      "t": 82909.00800000034,
      "d": 2142.0433125001,
      "v": 76
    },
    {
      "midi": 66,
      "hit": false,
      "t": 82909.00800000034,
      "d": 2142.0433125001,
      "v": 75
    },
    {
      "midi": 73,
      "hit": false,
      "t": 83090.82600000035,
      "d": 230.11340625000594,
      "v": 56
    },
    {
      "midi": 70,
      "hit": false,
      "t": 83272.64400000035,
      "d": 230.1134062500205,
      "v": 48
    },
    {
      "midi": 78,
      "hit": false,
      "t": 83454.46200000036,
      "d": 411.9314062500198,
      "v": 61
    },
    {
      "midi": 73,
      "hit": false,
      "t": 83636.28000000038,
      "d": 230.11340625000594,
      "v": 59
    },
    {
      "midi": 70,
      "hit": false,
      "t": 83818.09800000038,
      "d": 230.1134062500205,
      "v": 50
    },
    {
      "midi": 78,
      "hit": false,
      "t": 83999.91600000039,
      "d": 411.9314062500198,
      "v": 61
    },
    {
      "midi": 73,
      "hit": false,
      "t": 84181.7340000004,
      "d": 230.11340625000594,
      "v": 58
    },
    {
      "midi": 70,
      "hit": false,
      "t": 84363.5520000004,
      "d": 230.1134062500205,
      "v": 49
    },
    {
      "midi": 80,
      "hit": false,
      "t": 84545.37000000042,
      "d": 411.9314062500198,
      "v": 61
    },
    {
      "midi": 73,
      "hit": false,
      "t": 84727.18800000043,
      "d": 230.11340625000594,
      "v": 60
    },
    {
      "midi": 70,
      "hit": false,
      "t": 84909.00600000043,
      "d": 230.11340625000594,
      "v": 50
    },
    {
      "midi": 78,
      "hit": false,
      "t": 85090.82400000043,
      "d": 411.9314062500198,
      "v": 59
    },
    {
      "midi": 58,
      "hit": false,
      "t": 85090.82400000043,
      "d": 2142.0433125001,
      "v": 77
    },
    {
      "midi": 63,
      "hit": false,
      "t": 85090.82400000043,
      "d": 2142.0433125001,
      "v": 76
    },
    {
      "midi": 66,
      "hit": false,
      "t": 85090.82400000043,
      "d": 2142.0433125001,
      "v": 75
    },
    {
      "midi": 75,
      "hit": false,
      "t": 85272.64200000044,
      "d": 230.11340625000594,
      "v": 57
    },
    {
      "midi": 70,
      "hit": false,
      "t": 85454.46000000044,
      "d": 230.1134062500205,
      "v": 47
    },
    {
      "midi": 78,
      "hit": false,
      "t": 85636.27800000046,
      "d": 411.9314062500198,
      "v": 60
    },
    {
      "midi": 75,
      "hit": false,
      "t": 85818.09600000047,
      "d": 230.11340625000594,
      "v": 58
    },
    {
      "midi": 70,
      "hit": false,
      "t": 85999.91400000047,
      "d": 230.1134062500205,
      "v": 50
    },
    {
      "midi": 78,
      "hit": false,
      "t": 86181.73200000048,
      "d": 411.9314062500198,
      "v": 59
    },
    {
      "midi": 75,
      "hit": false,
      "t": 86363.5500000005,
      "d": 230.11340625000594,
      "v": 59
    },
    {
      "midi": 70,
      "hit": false,
      "t": 86545.3680000005,
      "d": 230.1134062500205,
      "v": 50
    },
    {
      "midi": 77,
      "hit": false,
      "t": 86727.18600000051,
      "d": 593.7494062500045,
      "v": 61
    },
    {
      "midi": 75,
      "hit": false,
      "t": 86909.00400000052,
      "d": 230.11340625000594,
      "v": 49
    },
    {
      "midi": 78,
      "hit": false,
      "t": 87090.82200000052,
      "d": 48.295406250006636,
      "v": 50
    },
    {
      "midi": 80,
      "hit": false,
      "t": 87272.64000000052,
      "d": 411.93140625000524,
      "v": 60
    },
    {
      "midi": 60,
      "hit": false,
      "t": 87281.16271875052,
      "d": 4312.495687500195,
      "v": 72
    },
    {
      "midi": 63,
      "hit": false,
      "t": 87286.84453125052,
      "d": 4312.495687500195,
      "v": 75
    },
    {
      "midi": 68,
      "hit": false,
      "t": 87292.52634375052,
      "d": 4312.495687500195,
      "v": 77
    },
    {
      "midi": 75,
      "hit": false,
      "t": 87454.45800000052,
      "d": 230.11340625000594,
      "v": 56
    },
    {
      "midi": 72,
      "hit": false,
      "t": 87636.27600000052,
      "d": 230.1134062500205,
      "v": 48
    },
    {
      "midi": 80,
      "hit": false,
      "t": 87818.09400000054,
      "d": 411.9314062500198,
      "v": 61
    },
    {
      "midi": 75,
      "hit": false,
      "t": 87999.91200000055,
      "d": 230.11340625000594,
      "v": 59
    },
    {
      "midi": 72,
      "hit": false,
      "t": 88181.73000000055,
      "d": 230.1134062500205,
      "v": 50
    },
    {
      "midi": 80,
      "hit": false,
      "t": 88363.54800000056,
      "d": 411.9314062500198,
      "v": 61
    },
    {
      "midi": 75,
      "hit": false,
      "t": 88545.36600000058,
      "d": 230.11340625000594,
      "v": 58
    },
    {
      "midi": 72,
      "hit": false,
      "t": 88727.18400000058,
      "d": 230.1134062500205,
      "v": 49
    },
    {
      "midi": 82,
      "hit": false,
      "t": 88909.00200000059,
      "d": 411.9314062500198,
      "v": 61
    },
    {
      "midi": 75,
      "hit": false,
      "t": 89090.8200000006,
      "d": 230.11340625000594,
      "v": 60
    },
    {
      "midi": 72,
      "hit": false,
      "t": 89272.6380000006,
      "d": 230.1134062500205,
      "v": 50
    },
    {
      "midi": 80,
      "hit": false,
      "t": 89454.45600000062,
      "d": 411.9314062500198,
      "v": 59
    },
    {
      "midi": 75,
      "hit": false,
      "t": 89636.27400000063,
      "d": 230.11340625000594,
      "v": 57
    },
    {
      "midi": 72,
      "hit": false,
      "t": 89818.09200000063,
      "d": 230.1134062500205,
      "v": 47
    },
    {
      "midi": 80,
      "hit": false,
      "t": 89999.91000000064,
      "d": 411.9314062500198,
      "v": 60
    },
    {
      "midi": 75,
      "hit": false,
      "t": 90181.72800000066,
      "d": 230.11340625000594,
      "v": 58
    },
    {
      "midi": 72,
      "hit": false,
      "t": 90363.54600000066,
      "d": 230.1134062500205,
      "v": 50
    },
    {
      "midi": 80,
      "hit": false,
      "t": 90545.36400000067,
      "d": 411.9314062500198,
      "v": 59
    },
    {
      "midi": 75,
      "hit": false,
      "t": 90727.18200000068,
      "d": 230.11340625000594,
      "v": 59
    },
    {
      "midi": 72,
      "hit": false,
      "t": 90909.00000000068,
      "d": 230.1134062500205,
      "v": 50
    },
    {
      "midi": 80,
      "hit": false,
      "t": 91090.8180000007,
      "d": 411.9314062500198,
      "v": 61
    },
    {
      "midi": 75,
      "hit": false,
      "t": 91272.63600000071,
      "d": 230.11340625000594,
      "v": 58
    },
    {
      "midi": 72,
      "hit": false,
      "t": 91454.45400000071,
      "d": 230.11340625000594,
      "v": 50
    },
    {
      "midi": 77,
      "hit": false,
      "t": 91636.27200000071,
      "d": 411.9314062500198,
      "v": 60
    },
    {
      "midi": 61,
      "hit": false,
      "t": 91636.27200000071,
      "d": 4167.6094687502045,
      "v": 76
    },
    {
      "midi": 56,
      "hit": false,
      "t": 91636.27200000071,
      "d": 4227.268500000209,
      "v": 77
    },
    {
      "midi": 65,
      "hit": false,
      "t": 91636.27200000071,
      "d": 4258.518468750204,
      "v": 75
    },
    {
      "midi": 73,
      "hit": false,
      "t": 91818.09000000072,
      "d": 230.11340625000594,
      "v": 56
    },
    {
      "midi": 68,
      "hit": false,
      "t": 91999.90800000072,
      "d": 230.1134062500205,
      "v": 48
    },
    {
      "midi": 77,
      "hit": false,
      "t": 92181.72600000074,
      "d": 411.9314062500198,
      "v": 61
    },
    {
      "midi": 73,
      "hit": false,
      "t": 92363.54400000075,
      "d": 230.11340625000594,
      "v": 59
    },
    {
      "midi": 68,
      "hit": false,
      "t": 92545.36200000075,
      "d": 230.1134062500205,
      "v": 50
    },
    {
      "midi": 77,
      "hit": false,
      "t": 92727.18000000076,
      "d": 411.9314062500198,
      "v": 61
    },
    {
      "midi": 73,
      "hit": false,
      "t": 92908.99800000078,
      "d": 230.11340625000594,
      "v": 58
    },
    {
      "midi": 68,
      "hit": false,
      "t": 93090.81600000078,
      "d": 230.1134062500205,
      "v": 49
    },
    {
      "midi": 78,
      "hit": false,
      "t": 93272.63400000079,
      "d": 411.9314062500198,
      "v": 61
    },
    {
      "midi": 73,
      "hit": false,
      "t": 93454.4520000008,
      "d": 230.11340625000594,
      "v": 60
    },
    {
      "midi": 68,
      "hit": false,
      "t": 93636.2700000008,
      "d": 230.1134062500205,
      "v": 50
    },
    {
      "midi": 77,
      "hit": false,
      "t": 93818.08800000082,
      "d": 411.9314062500198,
      "v": 59
    },
    {
      "midi": 73,
      "hit": false,
      "t": 93999.90600000083,
      "d": 230.11340625000594,
      "v": 57
    },
    {
      "midi": 68,
      "hit": false,
      "t": 94181.72400000083,
      "d": 230.1134062500205,
      "v": 47
    },
    {
      "midi": 77,
      "hit": false,
      "t": 94363.54200000085,
      "d": 411.9314062500198,
      "v": 60
    },
    {
      "midi": 73,
      "hit": false,
      "t": 94545.36000000086,
      "d": 230.11340625000594,
      "v": 58
    },
    {
      "midi": 68,
      "hit": false,
      "t": 94727.17800000086,
      "d": 230.1134062500205,
      "v": 50
    },
    {
      "midi": 77,
      "hit": false,
      "t": 94908.99600000087,
      "d": 411.9314062500198,
      "v": 59
    },
    {
      "midi": 73,
      "hit": false,
      "t": 95090.81400000089,
      "d": 230.11340625000594,
      "v": 59
    },
    {
      "midi": 68,
      "hit": false,
      "t": 95272.63200000089,
      "d": 230.1134062500205,
      "v": 50
    },
    {
      "midi": 75,
      "hit": false,
      "t": 95454.4500000009,
      "d": 411.9314062500198,
      "v": 61
    },
    {
      "midi": 73,
      "hit": false,
      "t": 95636.26800000091,
      "d": 230.11340625000594,
      "v": 58
    },
    {
      "midi": 68,
      "hit": false,
      "t": 95818.08600000091,
      "d": 230.11340624999139,
      "v": 50
    },
    {
      "midi": 77,
      "hit": false,
      "t": 95999.90400000091,
      "d": 411.93140625000524,
      "v": 60
    },
    {
      "midi": 58,
      "hit": false,
      "t": 96008.42671875091,
      "d": 4312.495687500195,
      "v": 72
    },
    {
      "midi": 61,
      "hit": false,
      "t": 96014.10853125091,
      "d": 4312.495687500195,
      "v": 75
    },
    {
      "midi": 65,
      "hit": false,
      "t": 96019.79034375091,
      "d": 4312.495687500195,
      "v": 77
    },
    {
      "midi": 73,
      "hit": false,
      "t": 96181.72200000091,
      "d": 230.11340625000594,
      "v": 56
    },
    {
      "midi": 70,
      "hit": false,
      "t": 96363.54000000091,
      "d": 230.1134062500205,
      "v": 48
    },
    {
      "midi": 77,
      "hit": false,
      "t": 96545.35800000092,
      "d": 411.9314062500198,
      "v": 61
    },
    {
      "midi": 73,
      "hit": false,
      "t": 96727.17600000094,
      "d": 230.11340625000594,
      "v": 59
    },
    {
      "midi": 70,
      "hit": false,
      "t": 96908.99400000094,
      "d": 230.1134062500205,
      "v": 50
    },
    {
      "midi": 77,
      "hit": false,
      "t": 97090.81200000095,
      "d": 411.9314062500198,
      "v": 61
    },
    {
      "midi": 73,
      "hit": false,
      "t": 97272.63000000097,
      "d": 230.11340625000594,
      "v": 58
    },
    {
      "midi": 70,
      "hit": false,
      "t": 97454.44800000096,
      "d": 230.1134062500205,
      "v": 49
    },
    {
      "midi": 78,
      "hit": false,
      "t": 97636.26600000098,
      "d": 411.9314062500198,
      "v": 61
    },
    {
      "midi": 73,
      "hit": false,
      "t": 97818.08400000099,
      "d": 230.11340625000594,
      "v": 60
    },
    {
      "midi": 70,
      "hit": false,
      "t": 97999.90200000099,
      "d": 230.1134062500205,
      "v": 50
    },
    {
      "midi": 77,
      "hit": false,
      "t": 98181.720000001,
      "d": 411.9314062500198,
      "v": 59
    },
    {
      "midi": 73,
      "hit": false,
      "t": 98363.53800000102,
      "d": 230.11340625000594,
      "v": 57
    },
    {
      "midi": 70,
      "hit": false,
      "t": 98545.35600000102,
      "d": 230.1134062500205,
      "v": 47
    },
    {
      "midi": 77,
      "hit": false,
      "t": 98727.17400000103,
      "d": 411.9314062500198,
      "v": 60
    },
    {
      "midi": 73,
      "hit": false,
      "t": 98908.99200000105,
      "d": 230.11340625000594,
      "v": 58
    },
    {
      "midi": 70,
      "hit": false,
      "t": 99090.81000000105,
      "d": 230.1134062500205,
      "v": 50
    },
    {
      "midi": 77,
      "hit": false,
      "t": 99272.62800000106,
      "d": 411.9314062500198,
      "v": 59
    },
    {
      "midi": 73,
      "hit": false,
      "t": 99454.44600000107,
      "d": 230.11340625000594,
      "v": 59
    },
    {
      "midi": 70,
      "hit": false,
      "t": 99636.26400000107,
      "d": 230.1134062500205,
      "v": 50
    },
    {
      "midi": 75,
      "hit": false,
      "t": 99818.08200000109,
      "d": 411.9314062500198,
      "v": 61
    },
    {
      "midi": 73,
      "hit": false,
      "t": 99999.9000000011,
      "d": 230.11340625000594,
      "v": 49
    },
    {
      "midi": 77,
      "hit": false,
      "t": 100181.7180000011,
      "d": 593.7494062500191,
      "v": 50
    },
    {
      "midi": 78,
      "hit": false,
      "t": 100363.5360000011,
      "d": 48.295406250006636,
      "v": 60
    },
    {
      "midi": 58,
      "hit": false,
      "t": 100363.5360000011,
      "d": 2142.0433125001,
      "v": 77
    },
    {
      "midi": 61,
      "hit": false,
      "t": 100363.5360000011,
      "d": 2142.0433125001,
      "v": 76
    },
    {
      "midi": 66,
      "hit": false,
      "t": 100363.5360000011,
      "d": 2142.0433125001,
      "v": 75
    },
    {
      "midi": 73,
      "hit": false,
      "t": 100545.35400000111,
      "d": 230.11340625000594,
      "v": 56
    },
    {
      "midi": 70,
      "hit": false,
      "t": 100727.17200000111,
      "d": 230.1134062500205,
      "v": 48
    },
    {
      "midi": 78,
      "hit": false,
      "t": 100908.99000000113,
      "d": 411.9314062500198,
      "v": 61
    },
    {
      "midi": 73,
      "hit": false,
      "t": 101090.80800000114,
      "d": 230.11340625000594,
      "v": 59
    },
    {
      "midi": 70,
      "hit": false,
      "t": 101272.62600000114,
      "d": 230.1134062500205,
      "v": 50
    },
    {
      "midi": 78,
      "hit": false,
      "t": 101454.44400000115,
      "d": 411.9314062500198,
      "v": 61
    },
    {
      "midi": 73,
      "hit": false,
      "t": 101636.26200000117,
      "d": 230.11340625000594,
      "v": 58
    },
    {
      "midi": 70,
      "hit": false,
      "t": 101818.08000000117,
      "d": 230.1134062500205,
      "v": 49
    },
    {
      "midi": 80,
      "hit": false,
      "t": 101999.89800000118,
      "d": 411.9314062500198,
      "v": 61
    },
    {
      "midi": 73,
      "hit": false,
      "t": 102181.7160000012,
      "d": 230.11340625000594,
      "v": 60
    },
    {
      "midi": 70,
      "hit": false,
      "t": 102363.5340000012,
      "d": 230.11340625000594,
      "v": 50
    },
    {
      "midi": 78,
      "hit": false,
      "t": 102545.35200000119,
      "d": 411.9314062500198,
      "v": 59
    },
    {
      "midi": 58,
      "hit": false,
      "t": 102545.35200000119,
      "d": 2142.0433125001,
      "v": 77
    },
    {
      "midi": 63,
      "hit": false,
      "t": 102545.35200000119,
      "d": 2142.0433125001,
      "v": 76
    },
    {
      "midi": 66,
      "hit": false,
      "t": 102545.35200000119,
      "d": 2142.0433125001,
      "v": 75
    },
    {
      "midi": 75,
      "hit": false,
      "t": 102727.1700000012,
      "d": 230.11340625000594,
      "v": 57
    },
    {
      "midi": 70,
      "hit": false,
      "t": 102908.9880000012,
      "d": 230.1134062500205,
      "v": 47
    },
    {
      "midi": 78,
      "hit": false,
      "t": 103090.80600000122,
      "d": 411.9314062500198,
      "v": 60
    },
    {
      "midi": 75,
      "hit": false,
      "t": 103272.62400000123,
      "d": 230.11340625000594,
      "v": 58
    },
    {
      "midi": 70,
      "hit": false,
      "t": 103454.44200000123,
      "d": 230.1134062500205,
      "v": 50
    },
    {
      "midi": 78,
      "hit": false,
      "t": 103636.26000000125,
      "d": 411.9314062500198,
      "v": 59
    },
    {
      "midi": 75,
      "hit": false,
      "t": 103818.07800000126,
      "d": 230.11340625000594,
      "v": 59
    },
    {
      "midi": 70,
      "hit": false,
      "t": 103999.89600000126,
      "d": 230.1134062500205,
      "v": 50
    },
    {
      "midi": 77,
      "hit": false,
      "t": 104181.71400000127,
      "d": 593.7494062500045,
      "v": 61
    },
    {
      "midi": 75,
      "hit": false,
      "t": 104363.53200000129,
      "d": 230.11340625000594,
      "v": 49
    },
    {
      "midi": 78,
      "hit": false,
      "t": 104545.35000000129,
      "d": 48.295406250006636,
      "v": 50
    },
    {
      "midi": 80,
      "hit": false,
      "t": 104727.16800000129,
      "d": 411.93140625000524,
      "v": 60
    },
    {
      "midi": 44,
      "hit": false,
      "t": 104735.69071875128,
      "d": 1071.0216562500282,
      "v": 72
    },
    {
      "midi": 56,
      "hit": false,
      "t": 104741.37253125128,
      "d": 1071.0216562500282,
      "v": 75
    },
    {
      "midi": 68,
      "hit": false,
      "t": 104747.05434375128,
      "d": 522.7267500000016,
      "v": 77
    },
    {
      "midi": 75,
      "hit": false,
      "t": 104908.98600000128,
      "d": 230.11340625000594,
      "v": 56
    },
    {
      "midi": 72,
      "hit": false,
      "t": 105090.80400000128,
      "d": 230.11340625000594,
      "v": 48
    },
    {
      "midi": 68,
      "hit": false,
      "t": 105272.62200000128,
      "d": 2.8409062499995343,
      "v": 98
    },
    {
      "midi": 60,
      "hit": false,
      "t": 105272.62200000128,
      "d": 267.04518750001444,
      "v": 87
    },
    {
      "midi": 63,
      "hit": false,
      "t": 105272.62200000128,
      "d": 267.04518750001444,
      "v": 88
    },
    {
      "midi": 80,
      "hit": false,
      "t": 105272.62200000128,
      "d": 411.9314062500198,
      "v": 61
    },
    {
      "midi": 75,
      "hit": false,
      "t": 105454.4400000013,
      "d": 230.11340625000594,
      "v": 59
    },
    {
      "midi": 60,
      "hit": false,
      "t": 105636.2580000013,
      "d": 93.74990625001374,
      "v": 87
    },
    {
      "midi": 63,
      "hit": false,
      "t": 105636.2580000013,
      "d": 93.74990625001374,
      "v": 93
    },
    {
      "midi": 68,
      "hit": false,
      "t": 105636.2580000013,
      "d": 93.74990625001374,
      "v": 95
    },
    {
      "midi": 72,
      "hit": false,
      "t": 105636.2580000013,
      "d": 230.1134062500205,
      "v": 50
    },
    {
      "midi": 80,
      "hit": false,
      "t": 105818.07600000131,
      "d": 411.9314062500198,
      "v": 61
    },
    {
      "midi": 75,
      "hit": false,
      "t": 105999.89400000132,
      "d": 230.11340625000594,
      "v": 58
    },
    {
      "midi": 72,
      "hit": false,
      "t": 106181.71200000132,
      "d": 230.1134062500205,
      "v": 49
    },
    {
      "midi": 60,
      "hit": false,
      "t": 106363.53000000134,
      "d": 267.04518750001444,
      "v": 87
    },
    {
      "midi": 63,
      "hit": false,
      "t": 106363.53000000134,
      "d": 267.04518750001444,
      "v": 90
    },
    {
      "midi": 68,
      "hit": false,
      "t": 106363.53000000134,
      "d": 267.04518750001444,
      "v": 100
    },
    {
      "midi": 82,
      "hit": false,
      "t": 106363.53000000134,
      "d": 411.9314062500198,
      "v": 61
    },
    {
      "midi": 75,
      "hit": false,
      "t": 106545.34800000135,
      "d": 230.11340625000594,
      "v": 60
    },
    {
      "midi": 60,
      "hit": false,
      "t": 106727.16600000135,
      "d": 93.74990625001374,
      "v": 87
    },
    {
      "midi": 63,
      "hit": false,
      "t": 106727.16600000135,
      "d": 93.74990625001374,
      "v": 88
    },
    {
      "midi": 68,
      "hit": false,
      "t": 106727.16600000135,
      "d": 93.74990625001374,
      "v": 97
    },
    {
      "midi": 72,
      "hit": false,
      "t": 106727.16600000135,
      "d": 230.1134062500205,
      "v": 50
    },
    {
      "midi": 80,
      "hit": false,
      "t": 106908.98400000136,
      "d": 411.9314062500198,
      "v": 59
    },
    {
      "midi": 75,
      "hit": false,
      "t": 107090.80200000138,
      "d": 230.11340625000594,
      "v": 57
    },
    {
      "midi": 72,
      "hit": false,
      "t": 107272.62000000138,
      "d": 230.1134062500205,
      "v": 47
    },
    {
      "midi": 68,
      "hit": false,
      "t": 107454.43800000139,
      "d": 221.59068750000733,
      "v": 95
    },
    {
      "midi": 60,
      "hit": false,
      "t": 107454.43800000139,
      "d": 227.2725000000064,
      "v": 87
    },
    {
      "midi": 63,
      "hit": false,
      "t": 107454.43800000139,
      "d": 241.47703125000407,
      "v": 88
    },
    {
      "midi": 80,
      "hit": false,
      "t": 107454.43800000139,
      "d": 411.93140625000524,
      "v": 60
    },
    {
      "midi": 75,
      "hit": false,
      "t": 107636.2560000014,
      "d": 230.11340624999139,
      "v": 58
    },
    {
      "midi": 60,
      "hit": false,
      "t": 107818.07400000139,
      "d": 93.74990625001374,
      "v": 89
    },
    {
      "midi": 63,
      "hit": false,
      "t": 107818.07400000139,
      "d": 93.74990625001374,
      "v": 89
    },
    {
      "midi": 68,
      "hit": false,
      "t": 107818.07400000139,
      "d": 93.74990625001374,
      "v": 95
    },
    {
      "midi": 72,
      "hit": false,
      "t": 107818.07400000139,
      "d": 230.1134062500205,
      "v": 50
    },
    {
      "midi": 80,
      "hit": false,
      "t": 107999.8920000014,
      "d": 1045.4535000000033,
      "v": 59
    },
    {
      "midi": 61,
      "hit": false,
      "t": 109090.80000000141,
      "d": 1985.7934687499946,
      "v": 77
    },
    {
      "midi": 58,
      "hit": false,
      "t": 109090.80000000141,
      "d": 2045.4524999999994,
      "v": 78
    },
    {
      "midi": 66,
      "hit": false,
      "t": 109090.80000000141,
      "d": 2076.7024687499943,
      "v": 76
    },
    {
      "midi": 51,
      "hit": false,
      "t": 109090.80000000141,
      "d": 2164.7705624999944,
      "v": 74
    },
    {
      "midi": 44,
      "hit": false,
      "t": 111266.9341875014,
      "d": 2235.7932187499828,
      "v": 74
    },
    {
      "midi": 60,
      "hit": false,
      "t": 111278.2978125014,
      "d": 1883.5208437499969,
      "v": 77
    },
    {
      "midi": 63,
      "hit": false,
      "t": 111281.1387187514,
      "d": 2159.0887499999953,
      "v": 75
    },
    {
      "midi": 56,
      "hit": false,
      "t": 111292.5023437514,
      "d": 1877.8390312499978,
      "v": 67
    },
    {
      "midi": 56,
      "hit": false,
      "t": 113462.9547187514,
      "d": 1957.3844062499993,
      "v": 73
    },
    {
      "midi": 49,
      "hit": false,
      "t": 113462.9547187514,
      "d": 2170.4523749999935,
      "v": 75
    },
    {
      "midi": 61,
      "hit": false,
      "t": 113468.6365312514,
      "d": 2019.884343749989,
      "v": 76
    },
    {
      "midi": 65,
      "hit": false,
      "t": 113474.3183437514,
      "d": 1985.7934687499946,
      "v": 78
    },
    {
      "midi": 46,
      "hit": false,
      "t": 115627.72528125139,
      "d": 2213.065968750001,
      "v": 70
    },
    {
      "midi": 61,
      "hit": false,
      "t": 115639.08890625139,
      "d": 2002.8389062500064,
      "v": 74
    },
    {
      "midi": 58,
      "hit": false,
      "t": 115641.92981250139,
      "d": 2005.679812500006,
      "v": 74
    },
    {
      "midi": 65,
      "hit": false,
      "t": 115641.92981250139,
      "d": 2053.9752187500126,
      "v": 80
    },
    {
      "midi": 58,
      "hit": false,
      "t": 117818.0640000014,
      "d": 1977.270749999996,
      "v": 75
    },
    {
      "midi": 61,
      "hit": false,
      "t": 117818.0640000014,
      "d": 1980.1116562499956,
      "v": 75
    },
    {
      "midi": 66,
      "hit": false,
      "t": 117818.0640000014,
      "d": 2110.7933437499887,
      "v": 76
    },
    {
      "midi": 51,
      "hit": false,
      "t": 117826.5867187514,
      "d": 2124.9978749999864,
      "v": 67
    },
    {
      "midi": 44,
      "hit": false,
      "t": 119997.03909375139,
      "d": 2193.1796249999898,
      "v": 75
    },
    {
      "midi": 60,
      "hit": false,
      "t": 119999.88000000139,
      "d": 1906.2480937499931,
      "v": 78
    },
    {
      "midi": 56,
      "hit": false,
      "t": 119999.88000000139,
      "d": 2062.4979374999966,
      "v": 74
    },
    {
      "midi": 63,
      "hit": false,
      "t": 120002.72090625139,
      "d": 2082.3842812499934,
      "v": 75
    },
    {
      "midi": 49,
      "hit": false,
      "t": 122184.53690625138,
      "d": 2161.9296562500094,
      "v": 74
    },
    {
      "midi": 61,
      "hit": false,
      "t": 122187.37781250138,
      "d": 2008.5207187500055,
      "v": 75
    },
    {
      "midi": 56,
      "hit": false,
      "t": 122190.21871875138,
      "d": 1835.2254375000048,
      "v": 71
    },
    {
      "midi": 65,
      "hit": false,
      "t": 122198.74143750138,
      "d": 1911.9299062500068,
      "v": 74
    },
    {
      "midi": 46,
      "hit": false,
      "t": 124357.83018750139,
      "d": 1346.5895624999976,
      "v": 77
    },
    {
      "midi": 58,
      "hit": false,
      "t": 124360.67109375139,
      "d": 1346.5895624999976,
      "v": 75
    },
    {
      "midi": 61,
      "hit": false,
      "t": 124360.67109375139,
      "d": 1346.5895624999976,
      "v": 75
    },
    {
      "midi": 65,
      "hit": false,
      "t": 124363.51200000138,
      "d": 1346.5895624999976,
      "v": 79
    },
    {
      "midi": 60,
      "hit": false,
      "t": 125809.53328125138,
      "d": 693.1811250000028,
      "v": 76
    },
    {
      "midi": 44,
      "hit": false,
      "t": 125812.37418750138,
      "d": 693.1811250000028,
      "v": 76
    },
    {
      "midi": 56,
      "hit": false,
      "t": 125812.37418750138,
      "d": 693.1811250000028,
      "v": 72
    },
    {
      "midi": 63,
      "hit": false,
      "t": 125812.37418750138,
      "d": 693.1811250000028,
      "v": 71
    },
    {
      "midi": 61,
      "hit": false,
      "t": 126545.32800000138,
      "d": 4167.609468750001,
      "v": 75
    },
    {
      "midi": 56,
      "hit": false,
      "t": 126545.32800000138,
      "d": 4227.268500000006,
      "v": 76
    },
    {
      "midi": 65,
      "hit": false,
      "t": 126545.32800000138,
      "d": 4258.5184687500005,
      "v": 74
    },
    {
      "midi": 49,
      "hit": false,
      "t": 126545.32800000138,
      "d": 4346.586562500001,
      "v": 72
    },
    {
      "midi": 46,
      "hit": false,
      "t": 130917.48271875137,
      "d": 3585.223687500009,
      "v": 73
    },
    {
      "midi": 58,
      "hit": false,
      "t": 130917.48271875137,
      "d": 3585.223687500009,
      "v": 71
    },
    {
      "midi": 61,
      "hit": false,
      "t": 130923.16453125137,
      "d": 3585.223687500009,
      "v": 74
    },
    {
      "midi": 65,
      "hit": false,
      "t": 130928.84634375137,
      "d": 3585.223687500009,
      "v": 76
    },
    {
      "midi": 60,
      "hit": false,
      "t": 134536.79728125138,
      "d": 721.5901874999981,
      "v": 74
    },
    {
      "midi": 44,
      "hit": false,
      "t": 134539.63818750138,
      "d": 721.5901874999981,
      "v": 74
    },
    {
      "midi": 56,
      "hit": false,
      "t": 134539.63818750138,
      "d": 721.5901874999981,
      "v": 70
    },
    {
      "midi": 63,
      "hit": false,
      "t": 134539.63818750138,
      "d": 721.5901874999981,
      "v": 69
    },
    {
      "midi": 61,
      "hit": false,
      "t": 135272.59200000137,
      "d": 4167.609468749986,
      "v": 75
    },
    {
      "midi": 56,
      "hit": false,
      "t": 135272.59200000137,
      "d": 4227.2684999999765,
      "v": 76
    },
    {
      "midi": 65,
      "hit": false,
      "t": 135272.59200000137,
      "d": 4258.518468749971,
      "v": 74
    },
    {
      "midi": 49,
      "hit": false,
      "t": 135272.59200000137,
      "d": 4346.586562499957,
      "v": 72
    },
    {
      "midi": 46,
      "hit": false,
      "t": 139644.74671875132,
      "d": 3585.2236874999944,
      "v": 73
    },
    {
      "midi": 58,
      "hit": false,
      "t": 139644.74671875132,
      "d": 3585.2236874999944,
      "v": 71
    },
    {
      "midi": 61,
      "hit": false,
      "t": 139650.42853125132,
      "d": 3585.2236874999944,
      "v": 74
    },
    {
      "midi": 65,
      "hit": false,
      "t": 139656.11034375132,
      "d": 3585.2236874999944,
      "v": 76
    },
    {
      "midi": 61,
      "hit": false,
      "t": 143264.0612812513,
      "d": 690.3402187500033,
      "v": 69
    },
    {
      "midi": 46,
      "hit": false,
      "t": 143266.9021875013,
      "d": 690.3402187500033,
      "v": 69
    },
    {
      "midi": 58,
      "hit": false,
      "t": 143266.9021875013,
      "d": 690.3402187500033,
      "v": 65
    },
    {
      "midi": 65,
      "hit": false,
      "t": 143266.9021875013,
      "d": 690.3402187500033,
      "v": 64
    },
    {
      "midi": 44,
      "hit": false,
      "t": 143999.8560000013,
      "d": 4272.722999999998,
      "v": 72
    },
    {
      "midi": 60,
      "hit": false,
      "t": 143999.8560000013,
      "d": 4272.722999999998,
      "v": 76
    },
    {
      "midi": 63,
      "hit": false,
      "t": 143999.8560000013,
      "d": 4272.722999999998,
      "v": 75
    },
    {
      "midi": 68,
      "hit": false,
      "t": 143999.8560000013,
      "d": 4272.722999999998,
      "v": 74
    },
    {
      "midi": 44,
      "hit": false,
      "t": 148357.8061875013,
      "d": 4272.722999999998,
      "v": 72
    },
    {
      "midi": 63,
      "hit": false,
      "t": 148369.1698125013,
      "d": 4272.722999999998,
      "v": 75
    },
    {
      "midi": 68,
      "hit": false,
      "t": 148372.0107187513,
      "d": 4272.722999999998,
      "v": 73
    },
    {
      "midi": 60,
      "hit": false,
      "t": 148383.3743437513,
      "d": 4272.722999999998,
      "v": 65
    },
    {
      "midi": 49,
      "hit": false,
      "t": 152729.96090625128,
      "d": 2161.929656249966,
      "v": 72
    },
    {
      "midi": 61,
      "hit": false,
      "t": 152732.80181250127,
      "d": 2008.5207187499618,
      "v": 73
    },
    {
      "midi": 56,
      "hit": false,
      "t": 152735.64271875127,
      "d": 1835.2254374999902,
      "v": 69
    },
    {
      "midi": 65,
      "hit": false,
      "t": 152744.16543750127,
      "d": 1911.9299062499776,
      "v": 72
    },
    {
      "midi": 58,
      "hit": false,
      "t": 154908.93600000124,
      "d": 1977.270749999996,
      "v": 73
    },
    {
      "midi": 61,
      "hit": false,
      "t": 154908.93600000124,
      "d": 1980.1116562499956,
      "v": 73
    },
    {
      "midi": 66,
      "hit": false,
      "t": 154908.93600000124,
      "d": 2110.7933437500033,
      "v": 74
    },
    {
      "midi": 54,
      "hit": false,
      "t": 154917.45871875124,
      "d": 2124.997875000001,
      "v": 65
    },
    {
      "midi": 49,
      "hit": false,
      "t": 157093.59290625123,
      "d": 2161.929656249966,
      "v": 72
    },
    {
      "midi": 61,
      "hit": false,
      "t": 157096.43381250123,
      "d": 2008.5207187499618,
      "v": 73
    },
    {
      "midi": 56,
      "hit": false,
      "t": 157099.27471875123,
      "d": 1835.2254374999902,
      "v": 69
    },
    {
      "midi": 65,
      "hit": false,
      "t": 157107.79743750123,
      "d": 1911.9299062499776,
      "v": 72
    },
    {
      "midi": 56,
      "hit": false,
      "t": 159266.8861875012,
      "d": 1346.589562500012,
      "v": 75
    },
    {
      "midi": 60,
      "hit": false,
      "t": 159269.7270937512,
      "d": 1346.589562500012,
      "v": 73
    },
    {
      "midi": 63,
      "hit": false,
      "t": 159269.7270937512,
      "d": 1346.589562500012,
      "v": 73
    },
    {
      "midi": 68,
      "hit": false,
      "t": 159272.5680000012,
      "d": 1346.589562500012,
      "v": 77
    },
    {
      "midi": 63,
      "hit": false,
      "t": 160718.58928125122,
      "d": 693.1811250000028,
      "v": 74
    },
    {
      "midi": 44,
      "hit": false,
      "t": 160721.43018750122,
      "d": 693.1811250000028,
      "v": 74
    },
    {
      "midi": 60,
      "hit": false,
      "t": 160721.43018750122,
      "d": 693.1811250000028,
      "v": 70
    },
    {
      "midi": 68,
      "hit": false,
      "t": 160721.43018750122,
      "d": 693.1811250000028,
      "v": 69
    },
    {
      "midi": 77,
      "hit": false,
      "t": 161454.3840000012,
      "d": 411.9314062499907,
      "v": 65
    },
    {
      "midi": 61,
      "hit": false,
      "t": 161454.3840000012,
      "d": 4167.609468749986,
      "v": 79
    },
    {
      "midi": 56,
      "hit": false,
      "t": 161454.3840000012,
      "d": 4227.2684999999765,
      "v": 80
    },
    {
      "midi": 65,
      "hit": false,
      "t": 161454.3840000012,
      "d": 4258.518468749971,
      "v": 78
    },
    {
      "midi": 73,
      "hit": false,
      "t": 161636.2020000012,
      "d": 230.11340624999139,
      "v": 61
    },
    {
      "midi": 68,
      "hit": false,
      "t": 161818.0200000012,
      "d": 230.11340624999139,
      "v": 53
    },
    {
      "midi": 77,
      "hit": false,
      "t": 161999.8380000012,
      "d": 411.9314062499907,
      "v": 66
    },
    {
      "midi": 73,
      "hit": false,
      "t": 162181.6560000012,
      "d": 230.11340624999139,
      "v": 64
    },
    {
      "midi": 68,
      "hit": false,
      "t": 162363.4740000012,
      "d": 230.11340624999139,
      "v": 55
    },
    {
      "midi": 77,
      "hit": false,
      "t": 162545.2920000012,
      "d": 411.9314062499907,
      "v": 66
    },
    {
      "midi": 73,
      "hit": false,
      "t": 162727.1100000012,
      "d": 230.11340624999139,
      "v": 63
    },
    {
      "midi": 68,
      "hit": false,
      "t": 162908.9280000012,
      "d": 230.11340624999139,
      "v": 54
    },
    {
      "midi": 78,
      "hit": false,
      "t": 163090.7460000012,
      "d": 411.9314062499907,
      "v": 66
    },
    {
      "midi": 73,
      "hit": false,
      "t": 163272.5640000012,
      "d": 230.11340624999139,
      "v": 65
    },
    {
      "midi": 68,
      "hit": false,
      "t": 163454.3820000012,
      "d": 230.11340624999139,
      "v": 55
    },
    {
      "midi": 77,
      "hit": false,
      "t": 163636.2000000012,
      "d": 411.9314062499907,
      "v": 64
    },
    {
      "midi": 73,
      "hit": false,
      "t": 163818.0180000012,
      "d": 230.11340624999139,
      "v": 62
    },
    {
      "midi": 68,
      "hit": false,
      "t": 163999.8360000012,
      "d": 230.11340624999139,
      "v": 52
    },
    {
      "midi": 77,
      "hit": false,
      "t": 164181.6540000012,
      "d": 411.9314062499907,
      "v": 65
    },
    {
      "midi": 73,
      "hit": false,
      "t": 164363.4720000012,
      "d": 230.11340624999139,
      "v": 63
    },
    {
      "midi": 68,
      "hit": false,
      "t": 164545.2900000012,
      "d": 230.11340624999139,
      "v": 55
    },
    {
      "midi": 77,
      "hit": false,
      "t": 164727.1080000012,
      "d": 411.9314062499907,
      "v": 64
    },
    {
      "midi": 73,
      "hit": false,
      "t": 164908.9260000012,
      "d": 230.11340624999139,
      "v": 64
    },
    {
      "midi": 68,
      "hit": false,
      "t": 165090.7440000012,
      "d": 230.11340624999139,
      "v": 55
    },
    {
      "midi": 75,
      "hit": false,
      "t": 165272.5620000012,
      "d": 411.9314062499907,
      "v": 66
    },
    {
      "midi": 73,
      "hit": false,
      "t": 165454.3800000012,
      "d": 230.11340624999139,
      "v": 63
    },
    {
      "midi": 68,
      "hit": false,
      "t": 165636.1980000012,
      "d": 230.11340624999139,
      "v": 55
    },
    {
      "midi": 77,
      "hit": false,
      "t": 165818.0160000012,
      "d": 411.9314062499907,
      "v": 65
    },
    {
      "midi": 58,
      "hit": false,
      "t": 165826.5387187512,
      "d": 4312.495687499992,
      "v": 75
    },
    {
      "midi": 61,
      "hit": false,
      "t": 165832.2205312512,
      "d": 4312.495687499992,
      "v": 78
    },
    {
      "midi": 65,
      "hit": false,
      "t": 165837.9023437512,
      "d": 4312.495687499992,
      "v": 80
    },
    {
      "midi": 73,
      "hit": false,
      "t": 165999.8340000012,
      "d": 230.11340624999139,
      "v": 61
    },
    {
      "midi": 70,
      "hit": false,
      "t": 166181.6520000012,
      "d": 230.11340624999139,
      "v": 53
    },
    {
      "midi": 77,
      "hit": false,
      "t": 166363.4700000012,
      "d": 411.9314062499907,
      "v": 66
    },
    {
      "midi": 73,
      "hit": false,
      "t": 166545.2880000012,
      "d": 230.11340624999139,
      "v": 64
    },
    {
      "midi": 70,
      "hit": false,
      "t": 166727.1060000012,
      "d": 230.11340624999139,
      "v": 55
    },
    {
      "midi": 77,
      "hit": false,
      "t": 166908.9240000012,
      "d": 411.9314062499907,
      "v": 66
    },
    {
      "midi": 73,
      "hit": false,
      "t": 167090.7420000012,
      "d": 230.11340624999139,
      "v": 63
    },
    {
      "midi": 70,
      "hit": false,
      "t": 167272.5600000012,
      "d": 230.11340624999139,
      "v": 54
    },
    {
      "midi": 78,
      "hit": false,
      "t": 167454.3780000012,
      "d": 411.9314062499907,
      "v": 66
    },
    {
      "midi": 73,
      "hit": false,
      "t": 167636.1960000012,
      "d": 230.11340624999139,
      "v": 65
    },
    {
      "midi": 70,
      "hit": false,
      "t": 167818.0140000012,
      "d": 230.11340624999139,
      "v": 55
    },
    {
      "midi": 77,
      "hit": false,
      "t": 167999.8320000012,
      "d": 411.9314062499907,
      "v": 64
    },
    {
      "midi": 73,
      "hit": false,
      "t": 168181.6500000012,
      "d": 230.11340624999139,
      "v": 62
    },
    {
      "midi": 70,
      "hit": false,
      "t": 168363.4680000012,
      "d": 230.11340624999139,
      "v": 52
    },
    {
      "midi": 77,
      "hit": false,
      "t": 168545.2860000012,
      "d": 411.9314062499907,
      "v": 65
    },
    {
      "midi": 73,
      "hit": false,
      "t": 168727.10400000119,
      "d": 230.11340624999139,
      "v": 63
    },
    {
      "midi": 70,
      "hit": false,
      "t": 168908.92200000118,
      "d": 230.11340624999139,
      "v": 55
    },
    {
      "midi": 77,
      "hit": false,
      "t": 169090.74000000118,
      "d": 411.9314062499907,
      "v": 64
    },
    {
      "midi": 73,
      "hit": false,
      "t": 169272.55800000118,
      "d": 230.11340624999139,
      "v": 64
    },
    {
      "midi": 70,
      "hit": false,
      "t": 169454.37600000118,
      "d": 230.11340624999139,
      "v": 55
    },
    {
      "midi": 75,
      "hit": false,
      "t": 169636.19400000118,
      "d": 411.9314062499907,
      "v": 66
    },
    {
      "midi": 73,
      "hit": false,
      "t": 169818.01200000118,
      "d": 230.11340624999139,
      "v": 54
    },
    {
      "midi": 77,
      "hit": false,
      "t": 169999.83000000118,
      "d": 593.74940624999,
      "v": 55
    },
    {
      "midi": 78,
      "hit": false,
      "t": 170181.64800000118,
      "d": 48.295406249992084,
      "v": 65
    },
    {
      "midi": 58,
      "hit": false,
      "t": 170181.64800000118,
      "d": 2142.043312499998,
      "v": 80
    },
    {
      "midi": 61,
      "hit": false,
      "t": 170181.64800000118,
      "d": 2142.043312499998,
      "v": 79
    },
    {
      "midi": 66,
      "hit": false,
      "t": 170181.64800000118,
      "d": 2142.043312499998,
      "v": 78
    },
    {
      "midi": 73,
      "hit": false,
      "t": 170363.46600000118,
      "d": 230.11340624999139,
      "v": 61
    },
    {
      "midi": 70,
      "hit": false,
      "t": 170545.28400000118,
      "d": 230.11340624999139,
      "v": 53
    },
    {
      "midi": 78,
      "hit": false,
      "t": 170727.10200000118,
      "d": 411.9314062499907,
      "v": 66
    },
    {
      "midi": 73,
      "hit": false,
      "t": 170908.92000000118,
      "d": 230.11340624999139,
      "v": 64
    },
    {
      "midi": 70,
      "hit": false,
      "t": 171090.73800000118,
      "d": 230.11340624999139,
      "v": 55
    },
    {
      "midi": 78,
      "hit": false,
      "t": 171272.55600000118,
      "d": 411.9314062499907,
      "v": 66
    },
    {
      "midi": 73,
      "hit": false,
      "t": 171454.37400000117,
      "d": 230.11340624999139,
      "v": 63
    },
    {
      "midi": 70,
      "hit": false,
      "t": 171636.19200000117,
      "d": 230.11340624999139,
      "v": 54
    },
    {
      "midi": 80,
      "hit": false,
      "t": 171818.01000000117,
      "d": 411.9314062499907,
      "v": 66
    },
    {
      "midi": 73,
      "hit": false,
      "t": 171999.82800000117,
      "d": 230.11340624999139,
      "v": 65
    },
    {
      "midi": 70,
      "hit": false,
      "t": 172181.64600000117,
      "d": 230.11340624999139,
      "v": 55
    },
    {
      "midi": 78,
      "hit": false,
      "t": 172363.46400000117,
      "d": 411.9314062499907,
      "v": 64
    },
    {
      "midi": 58,
      "hit": false,
      "t": 172363.46400000117,
      "d": 2142.043312499998,
      "v": 80
    },
    {
      "midi": 63,
      "hit": false,
      "t": 172363.46400000117,
      "d": 2142.043312499998,
      "v": 79
    },
    {
      "midi": 66,
      "hit": false,
      "t": 172363.46400000117,
      "d": 2142.043312499998,
      "v": 78
    },
    {
      "midi": 75,
      "hit": false,
      "t": 172545.28200000117,
      "d": 230.11340624999139,
      "v": 62
    },
    {
      "midi": 70,
      "hit": false,
      "t": 172727.10000000117,
      "d": 230.11340624999139,
      "v": 52
    },
    {
      "midi": 78,
      "hit": false,
      "t": 172908.91800000117,
      "d": 411.9314062499907,
      "v": 65
    },
    {
      "midi": 75,
      "hit": false,
      "t": 173090.73600000117,
      "d": 230.11340624999139,
      "v": 63
    },
    {
      "midi": 70,
      "hit": false,
      "t": 173272.55400000117,
      "d": 230.11340624999139,
      "v": 55
    },
    {
      "midi": 78,
      "hit": false,
      "t": 173454.37200000117,
      "d": 411.9314062499907,
      "v": 64
    },
    {
      "midi": 75,
      "hit": false,
      "t": 173636.19000000117,
      "d": 230.11340624999139,
      "v": 64
    },
    {
      "midi": 70,
      "hit": false,
      "t": 173818.00800000117,
      "d": 230.11340624999139,
      "v": 55
    },
    {
      "midi": 77,
      "hit": false,
      "t": 173999.82600000117,
      "d": 593.74940624999,
      "v": 66
    },
    {
      "midi": 75,
      "hit": false,
      "t": 174181.64400000116,
      "d": 230.11340624999139,
      "v": 54
    },
    {
      "midi": 78,
      "hit": false,
      "t": 174363.46200000116,
      "d": 48.295406249992084,
      "v": 55
    },
    {
      "midi": 80,
      "hit": false,
      "t": 174545.28000000116,
      "d": 411.9314062499907,
      "v": 65
    },
    {
      "midi": 60,
      "hit": false,
      "t": 174553.80271875116,
      "d": 4312.495687499992,
      "v": 75
    },
    {
      "midi": 63,
      "hit": false,
      "t": 174559.48453125116,
      "d": 4312.495687499992,
      "v": 78
    },
    {
      "midi": 68,
      "hit": false,
      "t": 174565.16634375116,
      "d": 4312.495687499992,
      "v": 80
    },
    {
      "midi": 75,
      "hit": false,
      "t": 174727.09800000116,
      "d": 230.11340624999139,
      "v": 61
    },
    {
      "midi": 72,
      "hit": false,
      "t": 174908.91600000116,
      "d": 230.11340624999139,
      "v": 53
    },
    {
      "midi": 80,
      "hit": false,
      "t": 175090.73400000116,
      "d": 411.9314062499907,
      "v": 66
    },
    {
      "midi": 75,
      "hit": false,
      "t": 175272.55200000116,
      "d": 230.11340624999139,
      "v": 64
    },
    {
      "midi": 72,
      "hit": false,
      "t": 175454.37000000116,
      "d": 230.11340624999139,
      "v": 55
    },
    {
      "midi": 80,
      "hit": false,
      "t": 175636.18800000116,
      "d": 411.9314062499907,
      "v": 66
    },
    {
      "midi": 75,
      "hit": false,
      "t": 175818.00600000116,
      "d": 230.11340624999139,
      "v": 63
    },
    {
      "midi": 72,
      "hit": false,
      "t": 175999.82400000116,
      "d": 230.11340624999139,
      "v": 54
    },
    {
      "midi": 82,
      "hit": false,
      "t": 176181.64200000116,
      "d": 411.9314062499907,
      "v": 66
    },
    {
      "midi": 75,
      "hit": false,
      "t": 176363.46000000116,
      "d": 230.11340624999139,
      "v": 65
    },
    {
      "midi": 72,
      "hit": false,
      "t": 176545.27800000116,
      "d": 230.11340624999139,
      "v": 55
    },
    {
      "midi": 80,
      "hit": false,
      "t": 176727.09600000115,
      "d": 411.9314062499907,
      "v": 64
    },
    {
      "midi": 75,
      "hit": false,
      "t": 176908.91400000115,
      "d": 230.11340624999139,
      "v": 62
    },
    {
      "midi": 72,
      "hit": false,
      "t": 177090.73200000115,
      "d": 230.11340624999139,
      "v": 52
    },
    {
      "midi": 80,
      "hit": false,
      "t": 177272.55000000115,
      "d": 411.9314062499907,
      "v": 65
    },
    {
      "midi": 75,
      "hit": false,
      "t": 177454.36800000115,
      "d": 230.11340624999139,
      "v": 63
    },
    {
      "midi": 72,
      "hit": false,
      "t": 177636.18600000115,
      "d": 230.11340624999139,
      "v": 55
    },
    {
      "midi": 80,
      "hit": false,
      "t": 177818.00400000115,
      "d": 411.9314062499907,
      "v": 64
    },
    {
      "midi": 75,
      "hit": false,
      "t": 177999.82200000115,
      "d": 230.11340624999139,
      "v": 64
    },
    {
      "midi": 72,
      "hit": false,
      "t": 178181.64000000115,
      "d": 230.11340624999139,
      "v": 55
    },
    {
      "midi": 80,
      "hit": false,
      "t": 178363.45800000115,
      "d": 411.9314062499907,
      "v": 66
    },
    {
      "midi": 75,
      "hit": false,
      "t": 178545.27600000115,
      "d": 230.11340624999139,
      "v": 63
    },
    {
      "midi": 72,
      "hit": false,
      "t": 178727.09400000115,
      "d": 230.11340624999139,
      "v": 55
    },
    {
      "midi": 77,
      "hit": false,
      "t": 178908.91200000115,
      "d": 411.9314062499907,
      "v": 65
    },
    {
      "midi": 61,
      "hit": false,
      "t": 178908.91200000115,
      "d": 4167.609468749986,
      "v": 79
    },
    {
      "midi": 56,
      "hit": false,
      "t": 178908.91200000115,
      "d": 4227.2684999999765,
      "v": 80
    },
    {
      "midi": 65,
      "hit": false,
      "t": 178908.91200000115,
      "d": 4258.518468749971,
      "v": 78
    },
    {
      "midi": 73,
      "hit": false,
      "t": 179090.73000000115,
      "d": 230.11340624999139,
      "v": 61
    },
    {
      "midi": 68,
      "hit": false,
      "t": 179272.54800000114,
      "d": 230.11340624999139,
      "v": 53
    },
    {
      "midi": 77,
      "hit": false,
      "t": 179454.36600000114,
      "d": 411.9314062499907,
      "v": 66
    },
    {
      "midi": 73,
      "hit": false,
      "t": 179636.18400000114,
      "d": 230.11340624999139,
      "v": 64
    },
    {
      "midi": 68,
      "hit": false,
      "t": 179818.00200000114,
      "d": 230.11340624999139,
      "v": 55
    },
    {
      "midi": 77,
      "hit": false,
      "t": 179999.82000000114,
      "d": 411.9314062499907,
      "v": 66
    },
    {
      "midi": 73,
      "hit": false,
      "t": 180181.63800000114,
      "d": 230.11340624999139,
      "v": 63
    },
    {
      "midi": 68,
      "hit": false,
      "t": 180363.45600000114,
      "d": 230.11340624999139,
      "v": 54
    },
    {
      "midi": 78,
      "hit": false,
      "t": 180545.27400000114,
      "d": 411.9314062499907,
      "v": 66
    },
    {
      "midi": 73,
      "hit": false,
      "t": 180727.09200000114,
      "d": 230.11340624999139,
      "v": 65
    },
    {
      "midi": 68,
      "hit": false,
      "t": 180908.91000000114,
      "d": 230.11340624999139,
      "v": 55
    },
    {
      "midi": 77,
      "hit": false,
      "t": 181090.72800000114,
      "d": 411.9314062499907,
      "v": 64
    },
    {
      "midi": 73,
      "hit": false,
      "t": 181272.54600000114,
      "d": 230.11340624999139,
      "v": 62
    },
    {
      "midi": 68,
      "hit": false,
      "t": 181454.36400000114,
      "d": 230.11340624999139,
      "v": 52
    },
    {
      "midi": 77,
      "hit": false,
      "t": 181636.18200000114,
      "d": 411.9314062499907,
      "v": 65
    },
    {
      "midi": 73,
      "hit": false,
      "t": 181818.00000000114,
      "d": 230.11340624999139,
      "v": 63
    },
    {
      "midi": 68,
      "hit": false,
      "t": 181999.81800000113,
      "d": 230.11340624999139,
      "v": 55
    },
    {
      "midi": 77,
      "hit": false,
      "t": 182181.63600000113,
      "d": 411.9314062499907,
      "v": 64
    },
    {
      "midi": 73,
      "hit": false,
      "t": 182363.45400000113,
      "d": 230.11340624999139,
      "v": 64
    },
    {
      "midi": 68,
      "hit": false,
      "t": 182545.27200000113,
      "d": 230.11340624999139,
      "v": 55
    },
    {
      "midi": 75,
      "hit": false,
      "t": 182727.09000000113,
      "d": 411.9314062499907,
      "v": 66
    },
    {
      "midi": 73,
      "hit": false,
      "t": 182908.90800000113,
      "d": 230.11340624999139,
      "v": 63
    },
    {
      "midi": 68,
      "hit": false,
      "t": 183090.72600000113,
      "d": 230.11340624999139,
      "v": 55
    },
    {
      "midi": 77,
      "hit": false,
      "t": 183272.54400000113,
      "d": 411.9314062499907,
      "v": 65
    },
    {
      "midi": 58,
      "hit": false,
      "t": 183281.06671875113,
      "d": 4312.495687499992,
      "v": 75
    },
    {
      "midi": 61,
      "hit": false,
      "t": 183286.74853125113,
      "d": 4312.495687499992,
      "v": 78
    },
    {
      "midi": 65,
      "hit": false,
      "t": 183292.43034375113,
      "d": 4312.495687499992,
      "v": 80
    },
    {
      "midi": 73,
      "hit": false,
      "t": 183454.36200000113,
      "d": 230.11340624999139,
      "v": 61
    },
    {
      "midi": 70,
      "hit": false,
      "t": 183636.18000000113,
      "d": 230.11340624999139,
      "v": 53
    },
    {
      "midi": 77,
      "hit": false,
      "t": 183817.99800000113,
      "d": 411.9314062499907,
      "v": 66
    },
    {
      "midi": 73,
      "hit": false,
      "t": 183999.81600000113,
      "d": 230.11340624999139,
      "v": 64
    },
    {
      "midi": 70,
      "hit": false,
      "t": 184181.63400000113,
      "d": 230.11340624999139,
      "v": 55
    },
    {
      "midi": 77,
      "hit": false,
      "t": 184363.45200000113,
      "d": 411.9314062499907,
      "v": 66
    },
    {
      "midi": 73,
      "hit": false,
      "t": 184545.27000000112,
      "d": 230.11340624999139,
      "v": 63
    },
    {
      "midi": 70,
      "hit": false,
      "t": 184727.08800000112,
      "d": 230.11340624999139,
      "v": 54
    },
    {
      "midi": 78,
      "hit": false,
      "t": 184908.90600000112,
      "d": 411.9314062499907,
      "v": 66
    },
    {
      "midi": 73,
      "hit": false,
      "t": 185090.72400000112,
      "d": 230.11340624999139,
      "v": 65
    },
    {
      "midi": 70,
      "hit": false,
      "t": 185272.54200000112,
      "d": 230.11340624999139,
      "v": 55
    },
    {
      "midi": 77,
      "hit": false,
      "t": 185454.36000000112,
      "d": 411.9314062499907,
      "v": 64
    },
    {
      "midi": 73,
      "hit": false,
      "t": 185636.17800000112,
      "d": 230.11340624999139,
      "v": 62
    },
    {
      "midi": 70,
      "hit": false,
      "t": 185817.99600000112,
      "d": 230.11340624999139,
      "v": 52
    },
    {
      "midi": 77,
      "hit": false,
      "t": 185999.81400000112,
      "d": 411.9314062499907,
      "v": 65
    },
    {
      "midi": 73,
      "hit": false,
      "t": 186181.63200000112,
      "d": 230.11340624999139,
      "v": 63
    },
    {
      "midi": 70,
      "hit": false,
      "t": 186363.45000000112,
      "d": 230.11340624999139,
      "v": 55
    },
    {
      "midi": 77,
      "hit": false,
      "t": 186545.26800000112,
      "d": 411.9314062499907,
      "v": 64
    },
    {
      "midi": 73,
      "hit": false,
      "t": 186727.08600000112,
      "d": 230.11340624999139,
      "v": 64
    },
    {
      "midi": 70,
      "hit": false,
      "t": 186908.90400000112,
      "d": 230.11340624999139,
      "v": 55
    },
    {
      "midi": 75,
      "hit": false,
      "t": 187090.72200000111,
      "d": 411.9314062499907,
      "v": 66
    },
    {
      "midi": 73,
      "hit": false,
      "t": 187272.5400000011,
      "d": 230.11340624999139,
      "v": 54
    },
    {
      "midi": 77,
      "hit": false,
      "t": 187454.3580000011,
      "d": 593.74940624999,
      "v": 55
    },
    {
      "midi": 78,
      "hit": false,
      "t": 187636.1760000011,
      "d": 48.295406249992084,
      "v": 65
    },
    {
      "midi": 58,
      "hit": false,
      "t": 187636.1760000011,
      "d": 2142.043312499998,
      "v": 80
    },
    {
      "midi": 61,
      "hit": false,
      "t": 187636.1760000011,
      "d": 2142.043312499998,
      "v": 79
    },
    {
      "midi": 66,
      "hit": false,
      "t": 187636.1760000011,
      "d": 2142.043312499998,
      "v": 78
    },
    {
      "midi": 73,
      "hit": false,
      "t": 187817.9940000011,
      "d": 230.11340624999139,
      "v": 61
    },
    {
      "midi": 70,
      "hit": false,
      "t": 187999.8120000011,
      "d": 230.11340624999139,
      "v": 53
    },
    {
      "midi": 78,
      "hit": false,
      "t": 188181.6300000011,
      "d": 411.9314062499907,
      "v": 66
    },
    {
      "midi": 73,
      "hit": false,
      "t": 188363.4480000011,
      "d": 230.11340624999139,
      "v": 64
    },
    {
      "midi": 70,
      "hit": false,
      "t": 188545.2660000011,
      "d": 230.11340624999139,
      "v": 55
    },
    {
      "midi": 78,
      "hit": false,
      "t": 188727.0840000011,
      "d": 411.9314062499907,
      "v": 66
    },
    {
      "midi": 73,
      "hit": false,
      "t": 188908.9020000011,
      "d": 230.11340624999139,
      "v": 63
    },
    {
      "midi": 70,
      "hit": false,
      "t": 189090.7200000011,
      "d": 230.11340624999139,
      "v": 54
    },
    {
      "midi": 80,
      "hit": false,
      "t": 189272.5380000011,
      "d": 411.9314062499907,
      "v": 66
    },
    {
      "midi": 73,
      "hit": false,
      "t": 189454.3560000011,
      "d": 230.11340624999139,
      "v": 65
    },
    {
      "midi": 70,
      "hit": false,
      "t": 189636.1740000011,
      "d": 230.11340624999139,
      "v": 55
    },
    {
      "midi": 78,
      "hit": false,
      "t": 189817.9920000011,
      "d": 411.9314062499907,
      "v": 64
    },
    {
      "midi": 58,
      "hit": false,
      "t": 189817.9920000011,
      "d": 2142.043312499998,
      "v": 80
    },
    {
      "midi": 63,
      "hit": false,
      "t": 189817.9920000011,
      "d": 2142.043312499998,
      "v": 79
    },
    {
      "midi": 66,
      "hit": false,
      "t": 189817.9920000011,
      "d": 2142.043312499998,
      "v": 78
    },
    {
      "midi": 75,
      "hit": false,
      "t": 189999.8100000011,
      "d": 230.11340624999139,
      "v": 62
    },
    {
      "midi": 70,
      "hit": false,
      "t": 190181.6280000011,
      "d": 230.11340624999139,
      "v": 52
    },
    {
      "midi": 78,
      "hit": false,
      "t": 190363.4460000011,
      "d": 411.9314062499907,
      "v": 65
    },
    {
      "midi": 75,
      "hit": false,
      "t": 190545.2640000011,
      "d": 230.11340624999139,
      "v": 63
    },
    {
      "midi": 70,
      "hit": false,
      "t": 190727.0820000011,
      "d": 230.11340624999139,
      "v": 55
    },
    {
      "midi": 78,
      "hit": false,
      "t": 190908.9000000011,
      "d": 411.9314062499907,
      "v": 64
    },
    {
      "midi": 75,
      "hit": false,
      "t": 191090.7180000011,
      "d": 230.11340624999139,
      "v": 64
    },
    {
      "midi": 70,
      "hit": false,
      "t": 191272.5360000011,
      "d": 230.11340624999139,
      "v": 55
    },
    {
      "midi": 77,
      "hit": false,
      "t": 191454.3540000011,
      "d": 593.74940624999,
      "v": 66
    },
    {
      "midi": 75,
      "hit": false,
      "t": 191636.1720000011,
      "d": 230.11340624999139,
      "v": 54
    },
    {
      "midi": 78,
      "hit": false,
      "t": 191817.9900000011,
      "d": 48.295406249992084,
      "v": 55
    },
    {
      "midi": 80,
      "hit": false,
      "t": 191999.8080000011,
      "d": 411.9314062499907,
      "v": 65
    },
    {
      "midi": 44,
      "hit": false,
      "t": 192008.3307187511,
      "d": 1071.02165624997,
      "v": 75
    },
    {
      "midi": 56,
      "hit": false,
      "t": 192014.0125312511,
      "d": 1071.02165624997,
      "v": 78
    },
    {
      "midi": 68,
      "hit": false,
      "t": 192019.6943437511,
      "d": 522.7267500000016,
      "v": 80
    },
    {
      "midi": 75,
      "hit": false,
      "t": 192181.6260000011,
      "d": 230.11340624999139,
      "v": 61
    },
    {
      "midi": 72,
      "hit": false,
      "t": 192363.4440000011,
      "d": 230.11340624999139,
      "v": 53
    },
    {
      "midi": 68,
      "hit": false,
      "t": 192545.2620000011,
      "d": 2.8409062499995343,
      "v": 84
    },
    {
      "midi": 60,
      "hit": false,
      "t": 192545.2620000011,
      "d": 267.04518749998533,
      "v": 73
    },
    {
      "midi": 63,
      "hit": false,
      "t": 192545.2620000011,
      "d": 267.04518749998533,
      "v": 74
    },
    {
      "midi": 80,
      "hit": false,
      "t": 192545.2620000011,
      "d": 411.9314062499907,
      "v": 66
    },
    {
      "midi": 75,
      "hit": false,
      "t": 192727.0800000011,
      "d": 230.11340624999139,
      "v": 64
    },
    {
      "midi": 60,
      "hit": false,
      "t": 192908.8980000011,
      "d": 93.74990624998463,
      "v": 73
    },
    {
      "midi": 63,
      "hit": false,
      "t": 192908.8980000011,
      "d": 93.74990624998463,
      "v": 79
    },
    {
      "midi": 68,
      "hit": false,
      "t": 192908.8980000011,
      "d": 93.74990624998463,
      "v": 81
    },
    {
      "midi": 72,
      "hit": false,
      "t": 192908.8980000011,
      "d": 230.11340624996228,
      "v": 55
    },
    {
      "midi": 80,
      "hit": false,
      "t": 193090.71600000106,
      "d": 411.9314062499907,
      "v": 66
    },
    {
      "midi": 75,
      "hit": false,
      "t": 193272.53400000106,
      "d": 230.11340624999139,
      "v": 63
    },
    {
      "midi": 72,
      "hit": false,
      "t": 193454.35200000106,
      "d": 230.11340624999139,
      "v": 54
    },
    {
      "midi": 60,
      "hit": false,
      "t": 193636.17000000106,
      "d": 267.04518749998533,
      "v": 73
    },
    {
      "midi": 63,
      "hit": false,
      "t": 193636.17000000106,
      "d": 267.04518749998533,
      "v": 76
    },
    {
      "midi": 68,
      "hit": false,
      "t": 193636.17000000106,
      "d": 267.04518749998533,
      "v": 86
    },
    {
      "midi": 82,
      "hit": false,
      "t": 193636.17000000106,
      "d": 411.9314062499907,
      "v": 66
    },
    {
      "midi": 75,
      "hit": false,
      "t": 193817.98800000106,
      "d": 230.11340624999139,
      "v": 65
    },
    {
      "midi": 60,
      "hit": false,
      "t": 193999.80600000106,
      "d": 93.74990624998463,
      "v": 73
    },
    {
      "midi": 63,
      "hit": false,
      "t": 193999.80600000106,
      "d": 93.74990624998463,
      "v": 74
    },
    {
      "midi": 68,
      "hit": false,
      "t": 193999.80600000106,
      "d": 93.74990624998463,
      "v": 83
    },
    {
      "midi": 72,
      "hit": false,
      "t": 193999.80600000106,
      "d": 230.11340624996228,
      "v": 55
    },
    {
      "midi": 80,
      "hit": false,
      "t": 194181.62400000103,
      "d": 411.9314062499907,
      "v": 64
    },
    {
      "midi": 75,
      "hit": false,
      "t": 194363.44200000103,
      "d": 230.11340624999139,
      "v": 62
    },
    {
      "midi": 72,
      "hit": false,
      "t": 194545.26000000103,
      "d": 230.11340624999139,
      "v": 52
    },
    {
      "midi": 68,
      "hit": false,
      "t": 194727.07800000103,
      "d": 221.59068749999278,
      "v": 81
    },
    {
      "midi": 60,
      "hit": false,
      "t": 194727.07800000103,
      "d": 227.27249999999185,
      "v": 73
    },
    {
      "midi": 63,
      "hit": false,
      "t": 194727.07800000103,
      "d": 241.47703124998952,
      "v": 74
    },
    {
      "midi": 80,
      "hit": false,
      "t": 194727.07800000103,
      "d": 411.9314062499907,
      "v": 65
    },
    {
      "midi": 75,
      "hit": false,
      "t": 194908.89600000103,
      "d": 230.11340624999139,
      "v": 63
    },
    {
      "midi": 60,
      "hit": false,
      "t": 195090.71400000103,
      "d": 93.74990624998463,
      "v": 71
    },
    {
      "midi": 63,
      "hit": false,
      "t": 195090.71400000103,
      "d": 93.74990624998463,
      "v": 71
    },
    {
      "midi": 68,
      "hit": false,
      "t": 195090.71400000103,
      "d": 93.74990624998463,
      "v": 77
    },
    {
      "midi": 72,
      "hit": false,
      "t": 195090.71400000103,
      "d": 230.11340624996228,
      "v": 55
    },
    {
      "midi": 80,
      "hit": false,
      "t": 195272.532000001,
      "d": 1045.4535000000033,
      "v": 64
    },
    {
      "midi": 61,
      "hit": false,
      "t": 196363.440000001,
      "d": 1985.7934687499946,
      "v": 81
    },
    {
      "midi": 58,
      "hit": false,
      "t": 196363.440000001,
      "d": 2045.4524999999849,
      "v": 82
    },
    {
      "midi": 66,
      "hit": false,
      "t": 196363.440000001,
      "d": 2076.7024687499797,
      "v": 80
    },
    {
      "midi": 51,
      "hit": false,
      "t": 196363.440000001,
      "d": 2164.7705624999653,
      "v": 78
    },
    {
      "midi": 44,
      "hit": false,
      "t": 198539.57418750096,
      "d": 2235.793218750012,
      "v": 78
    },
    {
      "midi": 60,
      "hit": false,
      "t": 198550.93781250095,
      "d": 1883.5208437500114,
      "v": 81
    },
    {
      "midi": 63,
      "hit": false,
      "t": 198553.77871875095,
      "d": 2159.0887500000244,
      "v": 79
    },
    {
      "midi": 56,
      "hit": false,
      "t": 198565.14234375095,
      "d": 1877.8390312500123,
      "v": 71
    },
    {
      "midi": 56,
      "hit": false,
      "t": 200735.59471875097,
      "d": 1957.3844062499993,
      "v": 77
    },
    {
      "midi": 49,
      "hit": false,
      "t": 200735.59471875097,
      "d": 2170.4523749999935,
      "v": 79
    },
    {
      "midi": 61,
      "hit": false,
      "t": 200741.27653125097,
      "d": 2019.884343749989,
      "v": 80
    },
    {
      "midi": 65,
      "hit": false,
      "t": 200746.95834375097,
      "d": 1985.7934687499946,
      "v": 82
    },
    {
      "midi": 46,
      "hit": false,
      "t": 202900.36528125097,
      "d": 2213.0659687499865,
      "v": 74
    },
    {
      "midi": 61,
      "hit": false,
      "t": 202911.72890625097,
      "d": 2002.8389062499919,
      "v": 78
    },
    {
      "midi": 58,
      "hit": false,
      "t": 202914.56981250097,
      "d": 2005.6798124999914,
      "v": 78
    },
    {
      "midi": 65,
      "hit": false,
      "t": 202914.56981250097,
      "d": 2053.9752187499835,
      "v": 84
    },
    {
      "midi": 58,
      "hit": false,
      "t": 205090.70400000096,
      "d": 1977.270749999996,
      "v": 79
    },
    {
      "midi": 61,
      "hit": false,
      "t": 205090.70400000096,
      "d": 1980.1116562499956,
      "v": 79
    },
    {
      "midi": 66,
      "hit": false,
      "t": 205090.70400000096,
      "d": 2110.7933437500033,
      "v": 80
    },
    {
      "midi": 51,
      "hit": false,
      "t": 205099.22671875096,
      "d": 2124.997875000001,
      "v": 71
    },
    {
      "midi": 44,
      "hit": false,
      "t": 207269.67909375095,
      "d": 2193.179625000019,
      "v": 79
    },
    {
      "midi": 60,
      "hit": false,
      "t": 207272.52000000095,
      "d": 1906.2480937500077,
      "v": 82
    },
    {
      "midi": 56,
      "hit": false,
      "t": 207272.52000000095,
      "d": 2062.497937500011,
      "v": 78
    },
    {
      "midi": 63,
      "hit": false,
      "t": 207275.36090625095,
      "d": 2082.384281250008,
      "v": 79
    },
    {
      "midi": 42,
      "hit": false,
      "t": 209457.17690625097,
      "d": 2161.929656249966,
      "v": 78
    },
    {
      "midi": 61,
      "hit": false,
      "t": 209460.01781250097,
      "d": 2008.5207187499618,
      "v": 79
    },
    {
      "midi": 58,
      "hit": false,
      "t": 209462.85871875097,
      "d": 1835.2254374999902,
      "v": 75
    },
    {
      "midi": 66,
      "hit": false,
      "t": 209471.38143750097,
      "d": 1911.9299062499776,
      "v": 78
    },
    {
      "midi": 49,
      "hit": false,
      "t": 211630.47018750093,
      "d": 3258.5194687499898,
      "v": 81
    },
    {
      "midi": 56,
      "hit": false,
      "t": 211633.31109375093,
      "d": 3258.5194687499898,
      "v": 79
    },
    {
      "midi": 61,
      "hit": false,
      "t": 211633.31109375093,
      "d": 3258.5194687499898,
      "v": 79
    },
    {
      "midi": 65,
      "hit": false,
      "t": 211636.15200000093,
      "d": 3258.5194687499898,
      "v": 83
    }
  ]
}