{
  "jsonPath": "Rock/Country Rock/Keith Whitley/when-you-say-nothing-at-all.json",
  "path": "Rock\\Country Rock\\Keith Whitley\\When You Say Nothing At All.mid",
  "name": "When You Say Nothing At All",
  "difficulty": "Advanced",
  "bpm": 75,
  "notes": [
    {
      "midi": 55,
      "hit": false,
      "t": 4000,
      "d": 1000,
      "v": 80
    },
    {
      "midi": 58,
      "hit": false,
      "t": 4000,
      "d": 1000,
      "v": 80
    },
    {
      "midi": 63,
      "hit": false,
      "t": 4000,
      "d": 1000,
      "v": 80
    },
    {
      "midi": 55,
      "hit": false,
      "t": 4000,
      "d": 2000,
      "v": 47
    },
    {
      "midi": 58,
      "hit": false,
      "t": 4000,
      "d": 2000,
      "v": 60
    },
    {
      "midi": 63,
      "hit": false,
      "t": 4000,
      "d": 2000,
      "v": 53
    },
    {
      "midi": 67,
      "hit": false,
      "t": 4000,
      "d": 2000,
      "v": 52
    },
    {
      "midi": 63,
      "hit": false,
      "t": 5000,
      "d": 500,
      "v": 80
    },
    {
      "midi": 67,
      "hit": false,
      "t": 5000,
      "d": 500,
      "v": 80
    },
    {
      "midi": 62,
      "hit": false,
      "t": 5500,
      "d": 1500,
      "v": 80
    },
    {
      "midi": 65,
      "hit": false,
      "t": 5500,
      "d": 1500,
      "v": 80
    },
    {
      "midi": 58,
      "hit": false,
      "t": 6000,
      "d": 758.333333333333,
      "v": 52
    },
    {
      "midi": 62,
      "hit": false,
      "t": 6000,
      "d": 1016.666666666667,
      "v": 59
    },
    {
      "midi": 46,
      "hit": false,
      "t": 6000,
      "d": 2000,
      "v": 72
    },
    {
      "midi": 53,
      "hit": false,
      "t": 6500,
      "d": 1500,
      "v": 57
    },
    {
      "midi": 63,
      "hit": false,
      "t": 7000,
      "d": 500,
      "v": 80
    },
    {
      "midi": 67,
      "hit": false,
      "t": 7000,
      "d": 500,
      "v": 80
    },
    {
      "midi": 58,
      "hit": false,
      "t": 7000,
      "d": 991.666666666667,
      "v": 55
    },
    {
      "midi": 63,
      "hit": false,
      "t": 7500,
      "d": 2000,
      "v": 80
    },
    {
      "midi": 60,
      "hit": false,
      "t": 7500,
      "d": 2500,
      "v": 80
    },
    {
      "midi": 65,
      "hit": false,
      "t": 7500,
      "d": 450,
      "v": 62
    },
    {
      "midi": 63,
      "hit": false,
      "t": 8000,
      "d": 1466.666666666666,
      "v": 47
    },
    {
      "midi": 68,
      "hit": false,
      "t": 8000,
      "d": 1991.6666666666679,
      "v": 56
    },
    {
      "midi": 72,
      "hit": false,
      "t": 8000,
      "d": 2000.0000000000018,
      "v": 37
    },
    {
      "midi": 60,
      "hit": false,
      "t": 9000,
      "d": 883.3333333333339,
      "v": 32
    },
    {
      "midi": 65,
      "hit": false,
      "t": 9500,
      "d": 250,
      "v": 80
    },
    {
      "midi": 63,
      "hit": false,
      "t": 9500,
      "d": 491.6666666666679,
      "v": 49
    },
    {
      "midi": 67,
      "hit": false,
      "t": 9750,
      "d": 250,
      "v": 80
    },
    {
      "midi": 68,
      "hit": false,
      "t": 10000,
      "d": 250,
      "v": 80
    },
    {
      "midi": 58,
      "hit": false,
      "t": 10000.000000000002,
      "d": 1466.666666666666,
      "v": 47
    },
    {
      "midi": 62,
      "hit": false,
      "t": 10000.000000000002,
      "d": 1991.6666666666679,
      "v": 56
    },
    {
      "midi": 65,
      "hit": false,
      "t": 10000.000000000002,
      "d": 2000.0000000000018,
      "v": 37
    },
    {
      "midi": 67,
      "hit": false,
      "t": 10250,
      "d": 250,
      "v": 80
    },
    {
      "midi": 65,
      "hit": false,
      "t": 10500,
      "d": 250,
      "v": 80
    },
    {
      "midi": 63,
      "hit": false,
      "t": 10750,
      "d": 250,
      "v": 80
    },
    {
      "midi": 58,
      "hit": false,
      "t": 11000,
      "d": 1000,
      "v": 80
    },
    {
      "midi": 53,
      "hit": false,
      "t": 11000.000000000002,
      "d": 883.3333333333339,
      "v": 32
    },
    {
      "midi": 58,
      "hit": false,
      "t": 11500.000000000002,
      "d": 491.6666666666679,
      "v": 49
    },
    {
      "midi": 55,
      "hit": false,
      "t": 12000,
      "d": 1000,
      "v": 80
    },
    {
      "midi": 58,
      "hit": false,
      "t": 12000,
      "d": 1000,
      "v": 80
    },
    {
      "midi": 63,
      "hit": false,
      "t": 12000,
      "d": 1000,
      "v": 80
    },
    {
      "midi": 58,
      "hit": false,
      "t": 12000.000000000004,
      "d": 758.3333333333339,
      "v": 52
    },
    {
      "midi": 63,
      "hit": false,
      "t": 12000.000000000004,
      "d": 1016.6666666666661,
      "v": 59
    },
    {
      "midi": 55,
      "hit": false,
      "t": 12500.000000000004,
      "d": 1500,
      "v": 57
    },
    {
      "midi": 58,
      "hit": false,
      "t": 13000,
      "d": 500,
      "v": 80
    },
    {
      "midi": 63,
      "hit": false,
      "t": 13000,
      "d": 500,
      "v": 80
    },
    {
      "midi": 67,
      "hit": false,
      "t": 13000,
      "d": 500,
      "v": 80
    },
    {
      "midi": 58,
      "hit": false,
      "t": 13000.000000000004,
      "d": 991.6666666666661,
      "v": 55
    },
    {
      "midi": 58,
      "hit": false,
      "t": 13500,
      "d": 1500,
      "v": 80
    },
    {
      "midi": 62,
      "hit": false,
      "t": 13500,
      "d": 1500,
      "v": 80
    },
    {
      "midi": 65,
      "hit": false,
      "t": 13500,
      "d": 1500,
      "v": 80
    },
    {
      "midi": 67,
      "hit": false,
      "t": 13500.000000000004,
      "d": 450,
      "v": 62
    },
    {
      "midi": 53,
      "hit": false,
      "t": 14000.000000000004,
      "d": 2000,
      "v": 47
    },
    {
      "midi": 58,
      "hit": false,
      "t": 14000.000000000004,
      "d": 2000,
      "v": 60
    },
    {
      "midi": 62,
      "hit": false,
      "t": 14000.000000000004,
      "d": 2000,
      "v": 53
    },
    {
      "midi": 65,
      "hit": false,
      "t": 14000.000000000004,
      "d": 2000,
      "v": 52
    },
    {
      "midi": 58,
      "hit": false,
      "t": 15000,
      "d": 500,
      "v": 80
    },
    {
      "midi": 63,
      "hit": false,
      "t": 15000,
      "d": 500,
      "v": 80
    },
    {
      "midi": 67,
      "hit": false,
      "t": 15000,
      "d": 500,
      "v": 80
    },
    {
      "midi": 63,
      "hit": false,
      "t": 15500,
      "d": 2000,
      "v": 80
    },
    {
      "midi": 56,
      "hit": false,
      "t": 15500,
      "d": 2500,
      "v": 80
    },
    {
      "midi": 60,
      "hit": false,
      "t": 15500,
      "d": 2500,
      "v": 80
    },
    {
      "midi": 60,
      "hit": false,
      "t": 16000.000000000004,
      "d": 2000,
      "v": 47
    },
    {
      "midi": 63,
      "hit": false,
      "t": 16000.000000000004,
      "d": 2000,
      "v": 60
    },
    {
      "midi": 68,
      "hit": false,
      "t": 16000.000000000004,
      "d": 2000,
      "v": 53
    },
    {
      "midi": 72,
      "hit": false,
      "t": 16000.000000000004,
      "d": 2000,
      "v": 52
    },
    {
      "midi": 65,
      "hit": false,
      "t": 17500,
      "d": 250,
      "v": 80
    },
    {
      "midi": 67,
      "hit": false,
      "t": 17750,
      "d": 250,
      "v": 80
    },
    {
      "midi": 68,
      "hit": false,
      "t": 18000,
      "d": 250,
      "v": 80
    },
    {
      "midi": 53,
      "hit": false,
      "t": 18000.000000000004,
      "d": 2000,
      "v": 47
    },
    {
      "midi": 58,
      "hit": false,
      "t": 18000.000000000004,
      "d": 2000,
      "v": 60
    },
    {
      "midi": 62,
      "hit": false,
      "t": 18000.000000000004,
      "d": 2000,
      "v": 53
    },
    {
      "midi": 65,
      "hit": false,
      "t": 18000.000000000004,
      "d": 2000,
      "v": 52
    },
    {
      "midi": 67,
      "hit": false,
      "t": 18250,
      "d": 250,
      "v": 80
    },
    {
      "midi": 63,
      "hit": false,
      "t": 18500,
      "d": 1500,
      "v": 80
    },
    {
      "midi": 55,
      "hit": false,
      "t": 20000,
      "d": 2000,
      "v": 80
    },
    {
      "midi": 58,
      "hit": false,
      "t": 20000,
      "d": 2000,
      "v": 80
    },
    {
      "midi": 58,
      "hit": false,
      "t": 20000.000000000004,
      "d": 1466.6666666666679,
      "v": 47
    },
    {
      "midi": 63,
      "hit": false,
      "t": 20000.000000000004,
      "d": 1991.6666666666679,
      "v": 56
    },
    {
      "midi": 39,
      "hit": false,
      "t": 20000.000000000004,
      "d": 2000,
      "v": 57
    },
    {
      "midi": 67,
      "hit": false,
      "t": 20000.000000000004,
      "d": 2000,
      "v": 37
    },
    {
      "midi": 58,
      "hit": false,
      "t": 22000,
      "d": 2000,
      "v": 80
    },
    {
      "midi": 56,
      "hit": false,
      "t": 24000,
      "d": 2000,
      "v": 80
    },
    {
      "midi": 60,
      "hit": false,
      "t": 24000,
      "d": 2000,
      "v": 80
    },
    {
      "midi": 58,
      "hit": false,
      "t": 26000,
      "d": 2000,
      "v": 80
    },
    {
      "midi": 55,
      "hit": false,
      "t": 28000,
      "d": 1500,
      "v": 80
    },
    {
      "midi": 58,
      "hit": false,
      "t": 28000,
      "d": 1500,
      "v": 80
    },
    {
      "midi": 68,
      "hit": false,
      "t": 29500,
      "d": 250,
      "v": 80
    },
    {
      "midi": 70,
      "hit": false,
      "t": 29750,
      "d": 250,
      "v": 80
    },
    {
      "midi": 58,
      "hit": false,
      "t": 30000,
      "d": 500,
      "v": 80
    },
    {
      "midi": 70,
      "hit": false,
      "t": 30000,
      "d": 2000,
      "v": 80
    },
    {
      "midi": 62,
      "hit": false,
      "t": 30500,
      "d": 500,
      "v": 80
    },
    {
      "midi": 65,
      "hit": false,
      "t": 31000,
      "d": 500,
      "v": 80
    },
    {
      "midi": 62,
      "hit": false,
      "t": 31500,
      "d": 500,
      "v": 80
    },
    {
      "midi": 60,
      "hit": false,
      "t": 32000,
      "d": 500,
      "v": 80
    },
    {
      "midi": 63,
      "hit": false,
      "t": 32500,
      "d": 500,
      "v": 80
    },
    {
      "midi": 68,
      "hit": false,
      "t": 33000,
      "d": 500,
      "v": 80
    },
    {
      "midi": 72,
      "hit": false,
      "t": 33500,
      "d": 500,
      "v": 80
    },
    {
      "midi": 62,
      "hit": false,
      "t": 34000,
      "d": 1000,
      "v": 80
    },
    {
      "midi": 70,
      "hit": false,
      "t": 34000,
      "d": 1000,
      "v": 80
    },
    {
      "midi": 60,
      "hit": false,
      "t": 35000,
      "d": 1000,
      "v": 80
    },
    {
      "midi": 68,
      "hit": false,
      "t": 35000,
      "d": 1000,
      "v": 80
    },
    {
      "midi": 55,
      "hit": false,
      "t": 36000,
      "d": 2000,
      "v": 80
    },
    {
      "midi": 58,
      "hit": false,
      "t": 36000,
      "d": 2000,
      "v": 80
    },
    {
      "midi": 58,
      "hit": false,
      "t": 38000,
      "d": 2000,
      "v": 80
    },
    {
      "midi": 56,
      "hit": false,
      "t": 40000,
      "d": 2000,
      "v": 80
    },
    {
      "midi": 60,
      "hit": false,
      "t": 40000,
      "d": 2000,
      "v": 80
    },
    {
      "midi": 58,
      "hit": false,
      "t": 42000,
      "d": 2000,
      "v": 80
    },
    {
      "midi": 55,
      "hit": false,
      "t": 44000,
      "d": 1500,
      "v": 80
    },
    {
      "midi": 58,
      "hit": false,
      "t": 44000,
      "d": 1500,
      "v": 80
    },
    {
      "midi": 65,
      "hit": false,
      "t": 45500,
      "d": 250,
      "v": 80
    },
    {
      "midi": 70,
      "hit": false,
      "t": 45500,
      "d": 500,
      "v": 80
    },
    {
      "midi": 67,
      "hit": false,
      "t": 45750,
      "d": 250,
      "v": 80
    },
    {
      "midi": 65,
      "hit": false,
      "t": 46000,
      "d": 500,
      "v": 80
    },
    {
      "midi": 70,
      "hit": false,
      "t": 46000,
      "d": 2000,
      "v": 80
    },
    {
      "midi": 62,
      "hit": false,
      "t": 46500,
      "d": 500,
      "v": 80
    },
    {
      "midi": 65,
      "hit": false,
      "t": 47000,
      "d": 500,
      "v": 80
    },
    {
      "midi": 62,
      "hit": false,
      "t": 47500,
      "d": 500,
      "v": 80
    },
    {
      "midi": 56,
      "hit": false,
      "t": 48000,
      "d": 500,
      "v": 80
    },
    {
      "midi": 60,
      "hit": false,
      "t": 48000,
      "d": 500,
      "v": 80
    },
    {
      "midi": 58,
      "hit": false,
      "t": 48500,
      "d": 500,
      "v": 80
    },
    {
      "midi": 62,
      "hit": false,
      "t": 48500,
      "d": 500,
      "v": 80
    },
    {
      "midi": 60,
      "hit": false,
      "t": 49000,
      "d": 1000,
      "v": 80
    },
    {
      "midi": 63,
      "hit": false,
      "t": 49000,
      "d": 1000,
      "v": 80
    },
    {
      "midi": 62,
      "hit": false,
      "t": 50000,
      "d": 500,
      "v": 80
    },
    {
      "midi": 58,
      "hit": false,
      "t": 50000,
      "d": 2000,
      "v": 80
    },
    {
      "midi": 65,
      "hit": false,
      "t": 50500,
      "d": 500,
      "v": 80
    },
    {
      "midi": 70,
      "hit": false,
      "t": 51000,
      "d": 500,
      "v": 80
    },
    {
      "midi": 65,
      "hit": false,
      "t": 51500,
      "d": 500,
      "v": 80
    },
    {
      "midi": 56,
      "hit": false,
      "t": 52000,
      "d": 4000,
      "v": 80
    },
    {
      "midi": 60,
      "hit": false,
      "t": 52000,
      "d": 4000,
      "v": 80
    },
    {
      "midi": 62,
      "hit": false,
      "t": 56000,
      "d": 2000,
      "v": 80
    },
    {
      "midi": 65,
      "hit": false,
      "t": 56000,
      "d": 2000,
      "v": 80
    },
    {
      "midi": 58,
      "hit": false,
      "t": 58000,
      "d": 500,
      "v": 80
    },
    {
      "midi": 62,
      "hit": false,
      "t": 58500,
      "d": 500,
      "v": 80
    },
    {
      "midi": 65,
      "hit": false,
      "t": 59000,
      "d": 500,
      "v": 80
    },
    {
      "midi": 62,
      "hit": false,
      "t": 59500,
      "d": 500,
      "v": 80
    },
    {
      "midi": 55,
      "hit": false,
      "t": 60000,
      "d": 2000,
      "v": 80
    },
    {
      "midi": 58,
      "hit": false,
      "t": 60000,
      "d": 2000,
      "v": 80
    },
    {
      "midi": 58,
      "hit": false,
      "t": 62000,
      "d": 2000,
      "v": 80
    },
    {
      "midi": 56,
      "hit": false,
      "t": 64000,
      "d": 2000,
      "v": 80
    },
    {
      "midi": 60,
      "hit": false,
      "t": 64000,
      "d": 2000,
      "v": 80
    },
    {
      "midi": 58,
      "hit": false,
      "t": 66000,
      "d": 2000,
      "v": 80
    },
    {
      "midi": 62,
      "hit": false,
      "t": 66000,
      "d": 2000,
      "v": 80
    },
    {
      "midi": 65,
      "hit": false,
      "t": 66000,
      "d": 2000,
      "v": 80
    },
    {
      "midi": 65,
      "hit": false,
      "t": 68000,
      "d": 500,
      "v": 80
    },
    {
      "midi": 60,
      "hit": false,
      "t": 68500,
      "d": 500,
      "v": 80
    },
    {
      "midi": 58,
      "hit": false,
      "t": 69000,
      "d": 500,
      "v": 80
    },
    {
      "midi": 60,
      "hit": false,
      "t": 69500,
      "d": 500,
      "v": 80
    },
    {
      "midi": 63,
      "hit": false,
      "t": 70000,
      "d": 2000,
      "v": 80
    },
    {
      "midi": 67,
      "hit": false,
      "t": 70000,
      "d": 2000,
      "v": 80
    },
    {
      "midi": 58,
      "hit": false,
      "t": 70000,
      "d": 758.3333333333285,
      "v": 52
    },
    {
      "midi": 63,
      "hit": false,
      "t": 70000,
      "d": 1016.6666666666715,
      "v": 59
    },
    {
      "midi": 39,
      "hit": false,
      "t": 70000,
      "d": 2000,
      "v": 72
    },
    {
      "midi": 55,
      "hit": false,
      "t": 70500,
      "d": 1500,
      "v": 57
    },
    {
      "midi": 58,
      "hit": false,
      "t": 71000,
      "d": 991.6666666666715,
      "v": 55
    },
    {
      "midi": 67,
      "hit": false,
      "t": 71500,
      "d": 450,
      "v": 62
    },
    {
      "midi": 62,
      "hit": false,
      "t": 72000,
      "d": 2000,
      "v": 80
    },
    {
      "midi": 65,
      "hit": false,
      "t": 72000,
      "d": 2000,
      "v": 80
    },
    {
      "midi": 58,
      "hit": false,
      "t": 72000,
      "d": 1466.6666666666715,
      "v": 47
    },
    {
      "midi": 62,
      "hit": false,
      "t": 72000,
      "d": 1991.666666666657,
      "v": 56
    },
    {
      "midi": 46,
      "hit": false,
      "t": 72000,
      "d": 1999.9999999999854,
      "v": 57
    },
    {
      "midi": 65,
      "hit": false,
      "t": 72000,
      "d": 1999.9999999999854,
      "v": 37
    },
    {
      "midi": 53,
      "hit": false,
      "t": 73000,
      "d": 883.3333333333285,
      "v": 32
    },
    {
      "midi": 58,
      "hit": false,
      "t": 73500,
      "d": 491.66666666665697,
      "v": 49
    },
    {
      "midi": 60,
      "hit": false,
      "t": 73999.99999999999,
      "d": 2000,
      "v": 55
    },
    {
      "midi": 63,
      "hit": false,
      "t": 73999.99999999999,
      "d": 2000,
      "v": 78
    },
    {
      "midi": 67,
      "hit": false,
      "t": 73999.99999999999,
      "d": 2000,
      "v": 54
    },
    {
      "midi": 60,
      "hit": false,
      "t": 74000,
      "d": 2000,
      "v": 80
    },
    {
      "midi": 63,
      "hit": false,
      "t": 74000,
      "d": 2000,
      "v": 80
    },
    {
      "midi": 58,
      "hit": false,
      "t": 75999.99999999999,
      "d": 591.6666666666715,
      "v": 55
    },
    {
      "midi": 62,
      "hit": false,
      "t": 75999.99999999999,
      "d": 750,
      "v": 78
    },
    {
      "midi": 65,
      "hit": false,
      "t": 75999.99999999999,
      "d": 750,
      "v": 54
    },
    {
      "midi": 58,
      "hit": false,
      "t": 76000,
      "d": 2000,
      "v": 80
    },
    {
      "midi": 62,
      "hit": false,
      "t": 76000,
      "d": 2000,
      "v": 80
    },
    {
      "midi": 53,
      "hit": false,
      "t": 76499.99999999999,
      "d": 1433.3333333333285,
      "v": 63
    },
    {
      "midi": 58,
      "hit": false,
      "t": 76774.99999999999,
      "d": 1125,
      "v": 53
    },
    {
      "midi": 62,
      "hit": false,
      "t": 76999.99999999999,
      "d": 841.6666666666715,
      "v": 59
    },
    {
      "midi": 65,
      "hit": false,
      "t": 77249.99999999999,
      "d": 541.6666666666715,
      "v": 58
    },
    {
      "midi": 39,
      "hit": false,
      "t": 77999.99999999999,
      "d": 2000,
      "v": 55
    },
    {
      "midi": 55,
      "hit": false,
      "t": 77999.99999999999,
      "d": 2000,
      "v": 47
    },
    {
      "midi": 58,
      "hit": false,
      "t": 77999.99999999999,
      "d": 2000,
      "v": 60
    },
    {
      "midi": 63,
      "hit": false,
      "t": 77999.99999999999,
      "d": 2000,
      "v": 53
    },
    {
      "midi": 67,
      "hit": false,
      "t": 77999.99999999999,
      "d": 2000,
      "v": 52
    },
    {
      "midi": 58,
      "hit": false,
      "t": 78000,
      "d": 2000,
      "v": 80
    },
    {
      "midi": 63,
      "hit": false,
      "t": 78000,
      "d": 2000,
      "v": 80
    },
    {
      "midi": 58,
      "hit": false,
      "t": 79999.99999999999,
      "d": 758.3333333333285,
      "v": 52
    },
    {
      "midi": 62,
      "hit": false,
      "t": 79999.99999999999,
      "d": 1016.6666666666715,
      "v": 59
    },
    {
      "midi": 46,
      "hit": false,
      "t": 79999.99999999999,
      "d": 2000,
      "v": 72
    },
    {
      "midi": 58,
      "hit": false,
      "t": 80000,
      "d": 2000,
      "v": 80
    },
    {
      "midi": 62,
      "hit": false,
      "t": 80000,
      "d": 2000,
      "v": 80
    },
    {
      "midi": 53,
      "hit": false,
      "t": 80499.99999999999,
      "d": 1500,
      "v": 57
    },
    {
      "midi": 58,
      "hit": false,
      "t": 80999.99999999999,
      "d": 991.6666666666715,
      "v": 55
    },
    {
      "midi": 65,
      "hit": false,
      "t": 81499.99999999999,
      "d": 450,
      "v": 62
    },
    {
      "midi": 63,
      "hit": false,
      "t": 81999.99999999999,
      "d": 758.3333333333285,
      "v": 52
    },
    {
      "midi": 68,
      "hit": false,
      "t": 81999.99999999999,
      "d": 1016.6666666666715,
      "v": 59
    },
    {
      "midi": 44,
      "hit": false,
      "t": 81999.99999999999,
      "d": 2000,
      "v": 72
    },
    {
      "midi": 60,
      "hit": false,
      "t": 82000,
      "d": 2000,
      "v": 80
    },
    {
      "midi": 63,
      "hit": false,
      "t": 82000,
      "d": 2000,
      "v": 80
    },
    {
      "midi": 60,
      "hit": false,
      "t": 82499.99999999999,
      "d": 1500,
      "v": 57
    },
    {
      "midi": 63,
      "hit": false,
      "t": 82999.99999999999,
      "d": 991.6666666666715,
      "v": 55
    },
    {
      "midi": 72,
      "hit": false,
      "t": 83499.99999999999,
      "d": 450,
      "v": 62
    },
    {
      "midi": 58,
      "hit": false,
      "t": 83999.99999999999,
      "d": 1466.6666666666715,
      "v": 47
    },
    {
      "midi": 62,
      "hit": false,
      "t": 83999.99999999999,
      "d": 1991.666666666657,
      "v": 56
    },
    {
      "midi": 46,
      "hit": false,
      "t": 83999.99999999999,
      "d": 1999.9999999999854,
      "v": 57
    },
    {
      "midi": 65,
      "hit": false,
      "t": 83999.99999999999,
      "d": 1999.9999999999854,
      "v": 37
    },
    {
      "midi": 58,
      "hit": false,
      "t": 84000,
      "d": 2000,
      "v": 80
    },
    {
      "midi": 62,
      "hit": false,
      "t": 84000,
      "d": 2000,
      "v": 80
    },
    {
      "midi": 53,
      "hit": false,
      "t": 84999.99999999999,
      "d": 883.3333333333285,
      "v": 32
    },
    {
      "midi": 58,
      "hit": false,
      "t": 85499.99999999999,
      "d": 491.66666666665697,
      "v": 49
    },
    {
      "midi": 58,
      "hit": false,
      "t": 85999.99999999997,
      "d": 758.3333333333285,
      "v": 52
    },
    {
      "midi": 63,
      "hit": false,
      "t": 85999.99999999997,
      "d": 1016.6666666666715,
      "v": 59
    },
    {
      "midi": 39,
      "hit": false,
      "t": 85999.99999999997,
      "d": 2000,
      "v": 72
    },
    {
      "midi": 55,
      "hit": false,
      "t": 86000,
      "d": 2000,
      "v": 80
    },
    {
      "midi": 58,
      "hit": false,
      "t": 86000,
      "d": 2000,
      "v": 80
    },
    {
      "midi": 55,
      "hit": false,
      "t": 86499.99999999997,
      "d": 1500,
      "v": 57
    },
    {
      "midi": 58,
      "hit": false,
      "t": 86999.99999999997,
      "d": 991.6666666666715,
      "v": 55
    },
    {
      "midi": 67,
      "hit": false,
      "t": 87499.99999999997,
      "d": 450,
      "v": 62
    },
    {
      "midi": 58,
      "hit": false,
      "t": 87999.99999999997,
      "d": 758.3333333333285,
      "v": 52
    },
    {
      "midi": 62,
      "hit": false,
      "t": 87999.99999999997,
      "d": 1016.6666666666715,
      "v": 59
    },
    {
      "midi": 46,
      "hit": false,
      "t": 87999.99999999997,
      "d": 2000,
      "v": 72
    },
    {
      "midi": 58,
      "hit": false,
      "t": 88000,
      "d": 2000,
      "v": 80
    },
    {
      "midi": 62,
      "hit": false,
      "t": 88000,
      "d": 2000,
      "v": 80
    },
    {
      "midi": 53,
      "hit": false,
      "t": 88499.99999999997,
      "d": 1500,
      "v": 57
    },
    {
      "midi": 58,
      "hit": false,
      "t": 88999.99999999997,
      "d": 991.6666666666715,
      "v": 55
    },
    {
      "midi": 65,
      "hit": false,
      "t": 89499.99999999997,
      "d": 450,
      "v": 62
    },
    {
      "midi": 72,
      "hit": false,
      "t": 89999.99999999997,
      "d": 58.33333333332848,
      "v": 66
    },
    {
      "midi": 68,
      "hit": false,
      "t": 89999.99999999997,
      "d": 2775,
      "v": 64
    },
    {
      "midi": 44,
      "hit": false,
      "t": 89999.99999999997,
      "d": 4000,
      "v": 53
    },
    {
      "midi": 63,
      "hit": false,
      "t": 89999.99999999997,
      "d": 4000,
      "v": 52
    },
    {
      "midi": 56,
      "hit": false,
      "t": 90000,
      "d": 1500,
      "v": 80
    },
    {
      "midi": 60,
      "hit": false,
      "t": 90000,
      "d": 1500,
      "v": 80
    },
    {
      "midi": 60,
      "hit": false,
      "t": 91500,
      "d": 1000,
      "v": 80
    },
    {
      "midi": 60,
      "hit": false,
      "t": 92499.99999999997,
      "d": 1500,
      "v": 66
    },
    {
      "midi": 62,
      "hit": false,
      "t": 92500,
      "d": 500,
      "v": 80
    },
    {
      "midi": 68,
      "hit": false,
      "t": 92999.99999999997,
      "d": 1000,
      "v": 58
    },
    {
      "midi": 63,
      "hit": false,
      "t": 93000,
      "d": 500,
      "v": 80
    },
    {
      "midi": 72,
      "hit": false,
      "t": 93499.99999999997,
      "d": 491.6666666666715,
      "v": 82
    },
    {
      "midi": 63,
      "hit": false,
      "t": 93500,
      "d": 500,
      "v": 80
    },
    {
      "midi": 65,
      "hit": false,
      "t": 93999.99999999997,
      "d": 2050,
      "v": 63
    },
    {
      "midi": 46,
      "hit": false,
      "t": 93999.99999999997,
      "d": 4000,
      "v": 46
    },
    {
      "midi": 53,
      "hit": false,
      "t": 93999.99999999997,
      "d": 4000,
      "v": 55
    },
    {
      "midi": 58,
      "hit": false,
      "t": 93999.99999999997,
      "d": 4000,
      "v": 43
    },
    {
      "midi": 62,
      "hit": false,
      "t": 93999.99999999997,
      "d": 4000,
      "v": 53
    },
    {
      "midi": 58,
      "hit": false,
      "t": 94000,
      "d": 1500,
      "v": 80
    },
    {
      "midi": 62,
      "hit": false,
      "t": 94000,
      "d": 1500,
      "v": 80
    },
    {
      "midi": 65,
      "hit": false,
      "t": 94000,
      "d": 1500,
      "v": 80
    },
    {
      "midi": 74,
      "hit": false,
      "t": 95500,
      "d": 250,
      "v": 80
    },
    {
      "midi": 75,
      "hit": false,
      "t": 95750,
      "d": 250,
      "v": 80
    },
    {
      "midi": 74,
      "hit": false,
      "t": 95999.99999999997,
      "d": 1091.6666666666715,
      "v": 76
    },
    {
      "midi": 74,
      "hit": false,
      "t": 96000,
      "d": 500,
      "v": 80
    },
    {
      "midi": 70,
      "hit": false,
      "t": 96500,
      "d": 500,
      "v": 80
    },
    {
      "midi": 65,
      "hit": false,
      "t": 96999.99999999997,
      "d": 950,
      "v": 63
    },
    {
      "midi": 65,
      "hit": false,
      "t": 97000,
      "d": 500,
      "v": 80
    },
    {
      "midi": 62,
      "hit": false,
      "t": 97500,
      "d": 500,
      "v": 80
    },
    {
      "midi": 72,
      "hit": false,
      "t": 97999.99999999997,
      "d": 1691.6666666666715,
      "v": 51
    },
    {
      "midi": 63,
      "hit": false,
      "t": 97999.99999999997,
      "d": 1716.6666666666715,
      "v": 51
    },
    {
      "midi": 44,
      "hit": false,
      "t": 97999.99999999997,
      "d": 4000,
      "v": 52
    },
    {
      "midi": 56,
      "hit": false,
      "t": 98000,
      "d": 2000,
      "v": 80
    },
    {
      "midi": 63,
      "hit": false,
      "t": 98000,
      "d": 2000,
      "v": 80
    },
    {
      "midi": 60,
      "hit": false,
      "t": 99499.99999999997,
      "d": 2500,
      "v": 46
    },
    {
      "midi": 63,
      "hit": false,
      "t": 99999.99999999997,
      "d": 2000,
      "v": 43
    },
    {
      "midi": 72,
      "hit": false,
      "t": 99999.99999999997,
      "d": 2000,
      "v": 51
    },
    {
      "midi": 58,
      "hit": false,
      "t": 100000,
      "d": 1000,
      "v": 80
    },
    {
      "midi": 65,
      "hit": false,
      "t": 100000,
      "d": 1000,
      "v": 80
    },
    {
      "midi": 58,
      "hit": false,
      "t": 101000,
      "d": 1000,
      "v": 80
    },
    {
      "midi": 63,
      "hit": false,
      "t": 101000,
      "d": 1000,
      "v": 80
    },
    {
      "midi": 63,
      "hit": false,
      "t": 101999.99999999997,
      "d": 825,
      "v": 45
    },
    {
      "midi": 68,
      "hit": false,
      "t": 101999.99999999997,
      "d": 1041.6666666666715,
      "v": 55
    },
    {
      "midi": 72,
      "hit": false,
      "t": 101999.99999999997,
      "d": 1433.333333333343,
      "v": 58
    },
    {
      "midi": 44,
      "hit": false,
      "t": 101999.99999999997,
      "d": 3933.333333333343,
      "v": 63
    },
    {
      "midi": 56,
      "hit": false,
      "t": 102000,
      "d": 2000,
      "v": 80
    },
    {
      "midi": 60,
      "hit": false,
      "t": 102000,
      "d": 2000,
      "v": 80
    },
    {
      "midi": 60,
      "hit": false,
      "t": 102499.99999999997,
      "d": 1625.0000000000146,
      "v": 57
    },
    {
      "midi": 63,
      "hit": false,
      "t": 103041.66666666664,
      "d": 1833.3333333333285,
      "v": 55
    },
    {
      "midi": 68,
      "hit": false,
      "t": 103499.99999999999,
      "d": 1033.3333333333285,
      "v": 41
    },
    {
      "midi": 72,
      "hit": false,
      "t": 103999.99999999999,
      "d": 691.666666666657,
      "v": 56
    },
    {
      "midi": 60,
      "hit": false,
      "t": 104000,
      "d": 1000,
      "v": 80
    },
    {
      "midi": 56,
      "hit": false,
      "t": 104000,
      "d": 2000,
      "v": 80
    },
    {
      "midi": 60,
      "hit": false,
      "t": 104499.99999999999,
      "d": 916.666666666657,
      "v": 52
    },
    {
      "midi": 63,
      "hit": false,
      "t": 104999.99999999997,
      "d": 566.6666666666715,
      "v": 10
    },
    {
      "midi": 72,
      "hit": false,
      "t": 104999.99999999997,
      "d": 566.6666666666715,
      "v": 45
    },
    {
      "midi": 62,
      "hit": false,
      "t": 105000,
      "d": 500,
      "v": 80
    },
    {
      "midi": 63,
      "hit": false,
      "t": 105500,
      "d": 500,
      "v": 80
    },
    {
      "midi": 65,
      "hit": false,
      "t": 105999.99999999999,
      "d": 2050,
      "v": 63
    },
    {
      "midi": 46,
      "hit": false,
      "t": 105999.99999999999,
      "d": 4000,
      "v": 46
    },
    {
      "midi": 53,
      "hit": false,
      "t": 105999.99999999999,
      "d": 4000,
      "v": 55
    },
    {
      "midi": 58,
      "hit": false,
      "t": 105999.99999999999,
      "d": 4000,
      "v": 43
    },
    {
      "midi": 62,
      "hit": false,
      "t": 105999.99999999999,
      "d": 4000,
      "v": 53
    },
    {
      "midi": 58,
      "hit": false,
      "t": 106000,
      "d": 4000,
      "v": 80
    },
    {
      "midi": 62,
      "hit": false,
      "t": 106000,
      "d": 4000,
      "v": 80
    },
    {
      "midi": 74,
      "hit": false,
      "t": 107999.99999999999,
      "d": 1091.6666666666715,
      "v": 76
    },
    {
      "midi": 65,
      "hit": false,
      "t": 108999.99999999999,
      "d": 950,
      "v": 63
    },
    {
      "midi": 39,
      "hit": false,
      "t": 109999.99999999999,
      "d": 2000,
      "v": 55
    },
    {
      "midi": 55,
      "hit": false,
      "t": 109999.99999999999,
      "d": 2000,
      "v": 47
    },
    {
      "midi": 58,
      "hit": false,
      "t": 109999.99999999999,
      "d": 2000,
      "v": 60
    },
    {
      "midi": 63,
      "hit": false,
      "t": 109999.99999999999,
      "d": 2000,
      "v": 53
    },
    {
      "midi": 67,
      "hit": false,
      "t": 109999.99999999999,
      "d": 2000,
      "v": 52
    },
    {
      "midi": 55,
      "hit": false,
      "t": 110000,
      "d": 1000,
      "v": 80
    },
    {
      "midi": 58,
      "hit": false,
      "t": 110000,
      "d": 1000,
      "v": 80
    },
    {
      "midi": 63,
      "hit": false,
      "t": 110000,
      "d": 1000,
      "v": 80
    },
    {
      "midi": 63,
      "hit": false,
      "t": 111000,
      "d": 500,
      "v": 80
    },
    {
      "midi": 67,
      "hit": false,
      "t": 111000,
      "d": 500,
      "v": 80
    },
    {
      "midi": 62,
      "hit": false,
      "t": 111500,
      "d": 1500,
      "v": 80
    },
    {
      "midi": 65,
      "hit": false,
      "t": 111500,
      "d": 1500,
      "v": 80
    },
    {
      "midi": 58,
      "hit": false,
      "t": 111999.99999999999,
      "d": 1466.6666666666715,
      "v": 47
    },
    {
      "midi": 62,
      "hit": false,
      "t": 111999.99999999999,
      "d": 1991.666666666657,
      "v": 56
    },
    {
      "midi": 46,
      "hit": false,
      "t": 111999.99999999999,
      "d": 1999.9999999999854,
      "v": 57
    },
    {
      "midi": 65,
      "hit": false,
      "t": 111999.99999999999,
      "d": 1999.9999999999854,
      "v": 37
    },
    {
      "midi": 53,
      "hit": false,
      "t": 112999.99999999999,
      "d": 883.3333333333285,
      "v": 32
    },
    {
      "midi": 63,
      "hit": false,
      "t": 113000,
      "d": 500,
      "v": 80
    },
    {
      "midi": 67,
      "hit": false,
      "t": 113000,
      "d": 500,
      "v": 80
    },
    {
      "midi": 58,
      "hit": false,
      "t": 113499.99999999999,
      "d": 491.66666666665697,
      "v": 49
    },
    {
      "midi": 63,
      "hit": false,
      "t": 113500,
      "d": 2000,
      "v": 80
    },
    {
      "midi": 60,
      "hit": false,
      "t": 113500,
      "d": 2500,
      "v": 80
    },
    {
      "midi": 63,
      "hit": false,
      "t": 113999.99999999997,
      "d": 758.3333333333285,
      "v": 52
    },
    {
      "midi": 68,
      "hit": false,
      "t": 113999.99999999997,
      "d": 1016.6666666666715,
      "v": 59
    },
    {
      "midi": 44,
      "hit": false,
      "t": 113999.99999999997,
      "d": 2000,
      "v": 72
    },
    {
      "midi": 60,
      "hit": false,
      "t": 114499.99999999997,
      "d": 1500,
      "v": 57
    },
    {
      "midi": 63,
      "hit": false,
      "t": 114999.99999999997,
      "d": 991.6666666666715,
      "v": 55
    },
    {
      "midi": 72,
      "hit": false,
      "t": 115499.99999999997,
      "d": 450,
      "v": 62
    },
    {
      "midi": 65,
      "hit": false,
      "t": 115500,
      "d": 250,
      "v": 80
    },
    {
      "midi": 67,
      "hit": false,
      "t": 115750,
      "d": 250,
      "v": 80
    },
    {
      "midi": 58,
      "hit": false,
      "t": 115999.99999999997,
      "d": 758.3333333333285,
      "v": 52
    },
    {
      "midi": 62,
      "hit": false,
      "t": 115999.99999999997,
      "d": 1016.6666666666715,
      "v": 59
    },
    {
      "midi": 46,
      "hit": false,
      "t": 115999.99999999997,
      "d": 2000,
      "v": 72
    },
    {
      "midi": 68,
      "hit": false,
      "t": 116000,
      "d": 250,
      "v": 80
    },
    {
      "midi": 67,
      "hit": false,
      "t": 116250,
      "d": 250,
      "v": 80
    },
    {
      "midi": 53,
      "hit": false,
      "t": 116499.99999999997,
      "d": 1500,
      "v": 57
    },
    {
      "midi": 65,
      "hit": false,
      "t": 116500,
      "d": 250,
      "v": 80
    },
    {
      "midi": 63,
      "hit": false,
      "t": 116750,
      "d": 250,
      "v": 80
    },
    {
      "midi": 58,
      "hit": false,
      "t": 116999.99999999997,
      "d": 991.6666666666715,
      "v": 55
    },
    {
      "midi": 58,
      "hit": false,
      "t": 117000,
      "d": 1000,
      "v": 80
    },
    {
      "midi": 65,
      "hit": false,
      "t": 117499.99999999997,
      "d": 450,
      "v": 62
    },
    {
      "midi": 39,
      "hit": false,
      "t": 117999.99999999997,
      "d": 2000,
      "v": 55
    },
    {
      "midi": 55,
      "hit": false,
      "t": 117999.99999999997,
      "d": 2000,
      "v": 47
    },
    {
      "midi": 58,
      "hit": false,
      "t": 117999.99999999997,
      "d": 2000,
      "v": 60
    },
    {
      "midi": 63,
      "hit": false,
      "t": 117999.99999999997,
      "d": 2000,
      "v": 53
    },
    {
      "midi": 67,
      "hit": false,
      "t": 117999.99999999997,
      "d": 2000,
      "v": 52
    },
    {
      "midi": 55,
      "hit": false,
      "t": 118000,
      "d": 1000,
      "v": 80
    },
    {
      "midi": 58,
      "hit": false,
      "t": 118000,
      "d": 1000,
      "v": 80
    },
    {
      "midi": 63,
      "hit": false,
      "t": 118000,
      "d": 1000,
      "v": 80
    },
    {
      "midi": 58,
      "hit": false,
      "t": 119000,
      "d": 500,
      "v": 80
    },
    {
      "midi": 63,
      "hit": false,
      "t": 119000,
      "d": 500,
      "v": 80
    },
    {
      "midi": 67,
      "hit": false,
      "t": 119000,
      "d": 500,
      "v": 80
    },
    {
      "midi": 58,
      "hit": false,
      "t": 119500,
      "d": 1500,
      "v": 80
    },
    {
      "midi": 62,
      "hit": false,
      "t": 119500,
      "d": 1500,
      "v": 80
    },
    {
      "midi": 65,
      "hit": false,
      "t": 119500,
      "d": 1500,
      "v": 80
    },
    {
      "midi": 58,
      "hit": false,
      "t": 119999.99999999997,
      "d": 1466.6666666666715,
      "v": 47
    },
    {
      "midi": 62,
      "hit": false,
      "t": 119999.99999999997,
      "d": 1991.666666666657,
      "v": 56
    },
    {
      "midi": 46,
      "hit": false,
      "t": 119999.99999999997,
      "d": 1999.9999999999854,
      "v": 57
    },
    {
      "midi": 65,
      "hit": false,
      "t": 119999.99999999997,
      "d": 1999.9999999999854,
      "v": 37
    },
    {
      "midi": 53,
      "hit": false,
      "t": 120999.99999999997,
      "d": 883.3333333333285,
      "v": 32
    },
    {
      "midi": 58,
      "hit": false,
      "t": 121000,
      "d": 500,
      "v": 80
    },
    {
      "midi": 63,
      "hit": false,
      "t": 121000,
      "d": 500,
      "v": 80
    },
    {
      "midi": 67,
      "hit": false,
      "t": 121000,
      "d": 500,
      "v": 80
    },
    {
      "midi": 58,
      "hit": false,
      "t": 121499.99999999997,
      "d": 491.66666666665697,
      "v": 49
    },
    {
      "midi": 63,
      "hit": false,
      "t": 121500,
      "d": 2000,
      "v": 80
    },
    {
      "midi": 56,
      "hit": false,
      "t": 121500,
      "d": 2500,
      "v": 80
    },
    {
      "midi": 60,
      "hit": false,
      "t": 121500,
      "d": 2500,
      "v": 80
    },
    {
      "midi": 63,
      "hit": false,
      "t": 121999.99999999996,
      "d": 1466.6666666666715,
      "v": 47
    },
    {
      "midi": 68,
      "hit": false,
      "t": 121999.99999999996,
      "d": 1991.666666666657,
      "v": 56
    },
    {
      "midi": 44,
      "hit": false,
      "t": 121999.99999999996,
      "d": 1999.9999999999854,
      "v": 57
    },
    {
      "midi": 72,
      "hit": false,
      "t": 121999.99999999996,
      "d": 1999.9999999999854,
      "v": 37
    },
    {
      "midi": 60,
      "hit": false,
      "t": 122999.99999999996,
      "d": 883.3333333333285,
      "v": 32
    },
    {
      "midi": 63,
      "hit": false,
      "t": 123499.99999999996,
      "d": 491.66666666665697,
      "v": 49
    },
    {
      "midi": 65,
      "hit": false,
      "t": 123500,
      "d": 250,
      "v": 80
    },
    {
      "midi": 67,
      "hit": false,
      "t": 123750,
      "d": 250,
      "v": 80
    },
    {
      "midi": 58,
      "hit": false,
      "t": 123999.99999999994,
      "d": 758.3333333333285,
      "v": 52
    },
    {
      "midi": 62,
      "hit": false,
      "t": 123999.99999999994,
      "d": 1016.6666666666715,
      "v": 59
    },
    {
      "midi": 46,
      "hit": false,
      "t": 123999.99999999994,
      "d": 2000,
      "v": 72
    },
    {
      "midi": 68,
      "hit": false,
      "t": 124000,
      "d": 250,
      "v": 80
    },
    {
      "midi": 58,
      "hit": false,
      "t": 124000,
      "d": 2000,
      "v": 80
    },
    {
      "midi": 67,
      "hit": false,
      "t": 124250,
      "d": 250,
      "v": 80
    },
    {
      "midi": 53,
      "hit": false,
      "t": 124499.99999999994,
      "d": 1500,
      "v": 57
    },
    {
      "midi": 63,
      "hit": false,
      "t": 124500,
      "d": 1500,
      "v": 80
    },
    {
      "midi": 58,
      "hit": false,
      "t": 124999.99999999994,
      "d": 991.6666666666715,
      "v": 55
    },
    {
      "midi": 65,
      "hit": false,
      "t": 125499.99999999994,
      "d": 450,
      "v": 62
    },
    {
      "midi": 58,
      "hit": false,
      "t": 125999.99999999994,
      "d": 1466.6666666666715,
      "v": 47
    },
    {
      "midi": 63,
      "hit": false,
      "t": 125999.99999999994,
      "d": 1991.6666666666715,
      "v": 56
    },
    {
      "midi": 39,
      "hit": false,
      "t": 125999.99999999994,
      "d": 2000,
      "v": 57
    },
    {
      "midi": 67,
      "hit": false,
      "t": 125999.99999999994,
      "d": 2000,
      "v": 37
    },
    {
      "midi": 55,
      "hit": false,
      "t": 126000,
      "d": 2000,
      "v": 80
    },
    {
      "midi": 58,
      "hit": false,
      "t": 126000,
      "d": 2000,
      "v": 80
    },
    {
      "midi": 58,
      "hit": false,
      "t": 128000,
      "d": 2000,
      "v": 80
    },
    {
      "midi": 56,
      "hit": false,
      "t": 130000,
      "d": 2000,
      "v": 80
    },
    {
      "midi": 60,
      "hit": false,
      "t": 130000,
      "d": 2000,
      "v": 80
    },
    {
      "midi": 58,
      "hit": false,
      "t": 132000,
      "d": 2000,
      "v": 80
    },
    {
      "midi": 55,
      "hit": false,
      "t": 134000,
      "d": 1500,
      "v": 80
    },
    {
      "midi": 58,
      "hit": false,
      "t": 134000,
      "d": 1500,
      "v": 80
    },
    {
      "midi": 68,
      "hit": false,
      "t": 135500,
      "d": 250,
      "v": 80
    },
    {
      "midi": 70,
      "hit": false,
      "t": 135750,
      "d": 250,
      "v": 80
    },
    {
      "midi": 58,
      "hit": false,
      "t": 136000,
      "d": 500,
      "v": 80
    },
    {
      "midi": 70,
      "hit": false,
      "t": 136000,
      "d": 2000,
      "v": 80
    },
    {
      "midi": 62,
      "hit": false,
      "t": 136500,
      "d": 500,
      "v": 80
    },
    {
      "midi": 65,
      "hit": false,
      "t": 137000,
      "d": 500,
      "v": 80
    },
    {
      "midi": 62,
      "hit": false,
      "t": 137500,
      "d": 500,
      "v": 80
    },
    {
      "midi": 60,
      "hit": false,
      "t": 138000,
      "d": 500,
      "v": 80
    },
    {
      "midi": 63,
      "hit": false,
      "t": 138500,
      "d": 500,
      "v": 80
    },
    {
      "midi": 68,
      "hit": false,
      "t": 139000,
      "d": 500,
      "v": 80
    },
    {
      "midi": 72,
      "hit": false,
      "t": 139500,
      "d": 500,
      "v": 80
    },
    {
      "midi": 62,
      "hit": false,
      "t": 140000,
      "d": 1000,
      "v": 80
    },
    {
      "midi": 70,
      "hit": false,
      "t": 140000,
      "d": 1000,
      "v": 80
    },
    {
      "midi": 60,
      "hit": false,
      "t": 141000,
      "d": 1000,
      "v": 80
    },
    {
      "midi": 68,
      "hit": false,
      "t": 141000,
      "d": 1000,
      "v": 80
    },
    {
      "midi": 55,
      "hit": false,
      "t": 142000,
      "d": 2000,
      "v": 80
    },
    {
      "midi": 58,
      "hit": false,
      "t": 142000,
      "d": 2000,
      "v": 80
    },
    {
      "midi": 58,
      "hit": false,
      "t": 144000,
      "d": 2000,
      "v": 80
    },
    {
      "midi": 56,
      "hit": false,
      "t": 146000,
      "d": 2000,
      "v": 80
    },
    {
      "midi": 60,
      "hit": false,
      "t": 146000,
      "d": 2000,
      "v": 80
    },
    {
      "midi": 58,
      "hit": false,
      "t": 148000,
      "d": 2000,
      "v": 80
    },
    {
      "midi": 55,
      "hit": false,
      "t": 150000,
      "d": 1500,
      "v": 80
    },
    {
      "midi": 58,
      "hit": false,
      "t": 150000,
      "d": 1500,
      "v": 80
    },
    {
      "midi": 65,
      "hit": false,
      "t": 151500,
      "d": 250,
      "v": 80
    },
    {
      "midi": 70,
      "hit": false,
      "t": 151500,
      "d": 500,
      "v": 80
    },
    {
      "midi": 67,
      "hit": false,
      "t": 151750,
      "d": 250,
      "v": 80
    },
    {
      "midi": 65,
      "hit": false,
      "t": 152000,
      "d": 500,
      "v": 80
    },
    {
      "midi": 70,
      "hit": false,
      "t": 152000,
      "d": 2000,
      "v": 80
    },
    {
      "midi": 62,
      "hit": false,
      "t": 152500,
      "d": 500,
      "v": 80
    },
    {
      "midi": 65,
      "hit": false,
      "t": 153000,
      "d": 500,
      "v": 80
    },
    {
      "midi": 62,
      "hit": false,
      "t": 153500,
      "d": 500,
      "v": 80
    },
    {
      "midi": 56,
      "hit": false,
      "t": 154000,
      "d": 500,
      "v": 80
    },
    {
      "midi": 60,
      "hit": false,
      "t": 154000,
      "d": 500,
      "v": 80
    },
    {
      "midi": 58,
      "hit": false,
      "t": 154500,
      "d": 500,
      "v": 80
    },
    {
      "midi": 62,
      "hit": false,
      "t": 154500,
      "d": 500,
      "v": 80
    },
    {
      "midi": 60,
      "hit": false,
      "t": 155000,
      "d": 1000,
      "v": 80
    },
    {
      "midi": 63,
      "hit": false,
      "t": 155000,
      "d": 1000,
      "v": 80
    },
    {
      "midi": 62,
      "hit": false,
      "t": 156000,
      "d": 500,
      "v": 80
    },
    {
      "midi": 58,
      "hit": false,
      "t": 156000,
      "d": 2000,
      "v": 80
    },
    {
      "midi": 65,
      "hit": false,
      "t": 156500,
      "d": 500,
      "v": 80
    },
    {
      "midi": 70,
      "hit": false,
      "t": 157000,
      "d": 500,
      "v": 80
    },
    {
      "midi": 65,
      "hit": false,
      "t": 157500,
      "d": 500,
      "v": 80
    },
    {
      "midi": 56,
      "hit": false,
      "t": 158000,
      "d": 4000,
      "v": 80
    },
    {
      "midi": 60,
      "hit": false,
      "t": 158000,
      "d": 4000,
      "v": 80
    },
    {
      "midi": 62,
      "hit": false,
      "t": 162000,
      "d": 2000,
      "v": 80
    },
    {
      "midi": 65,
      "hit": false,
      "t": 162000,
      "d": 2000,
      "v": 80
    },
    {
      "midi": 58,
      "hit": false,
      "t": 164000,
      "d": 500,
      "v": 80
    },
    {
      "midi": 62,
      "hit": false,
      "t": 164500,
      "d": 500,
      "v": 80
    },
    {
      "midi": 65,
      "hit": false,
      "t": 165000,
      "d": 500,
      "v": 80
    },
    {
      "midi": 62,
      "hit": false,
      "t": 165500,
      "d": 500,
      "v": 80
    },
    {
      "midi": 55,
      "hit": false,
      "t": 166000,
      "d": 2000,
      "v": 80
    },
    {
      "midi": 58,
      "hit": false,
      "t": 166000,
      "d": 2000,
      "v": 80
    },
    {
      "midi": 58,
      "hit": false,
      "t": 168000,
      "d": 2000,
      "v": 80
    },
    {
      "midi": 56,
      "hit": false,
      "t": 170000,
      "d": 2000,
      "v": 80
    },
    {
      "midi": 60,
      "hit": false,
      "t": 170000,
      "d": 2000,
      "v": 80
    },
    {
      "midi": 58,
      "hit": false,
      "t": 172000,
      "d": 2000,
      "v": 80
    },
    {
      "midi": 62,
      "hit": false,
      "t": 172000,
      "d": 2000,
      "v": 80
    },
    {
      "midi": 65,
      "hit": false,
      "t": 172000,
      "d": 2000,
      "v": 80
    },
    {
      "midi": 65,
      "hit": false,
      "t": 174000,
      "d": 500,
      "v": 80
    },
    {
      "midi": 60,
      "hit": false,
      "t": 174500,
      "d": 500,
      "v": 80
    },
    {
      "midi": 58,
      "hit": false,
      "t": 175000,
      "d": 500,
      "v": 80
    },
    {
      "midi": 60,
      "hit": false,
      "t": 175500,
      "d": 500,
      "v": 80
    },
    {
      "midi": 58,
      "hit": false,
      "t": 175999.99999999994,
      "d": 758.333333333343,
      "v": 52
    },
    {
      "midi": 63,
      "hit": false,
      "t": 175999.99999999994,
      "d": 1016.666666666657,
      "v": 59
    },
    {
      "midi": 39,
      "hit": false,
      "t": 175999.99999999994,
      "d": 2000,
      "v": 72
    },
    {
      "midi": 63,
      "hit": false,
      "t": 176000,
      "d": 2000,
      "v": 80
    },
    {
      "midi": 67,
      "hit": false,
      "t": 176000,
      "d": 2000,
      "v": 80
    },
    {
      "midi": 55,
      "hit": false,
      "t": 176499.99999999994,
      "d": 1500,
      "v": 57
    },
    {
      "midi": 58,
      "hit": false,
      "t": 176999.99999999994,
      "d": 991.666666666657,
      "v": 55
    },
    {
      "midi": 67,
      "hit": false,
      "t": 177499.99999999994,
      "d": 450,
      "v": 62
    },
    {
      "midi": 58,
      "hit": false,
      "t": 177999.99999999994,
      "d": 1466.666666666657,
      "v": 47
    },
    {
      "midi": 62,
      "hit": false,
      "t": 177999.99999999994,
      "d": 1991.666666666686,
      "v": 56
    },
    {
      "midi": 46,
      "hit": false,
      "t": 177999.99999999994,
      "d": 2000.000000000029,
      "v": 57
    },
    {
      "midi": 65,
      "hit": false,
      "t": 177999.99999999994,
      "d": 2000.000000000029,
      "v": 37
    },
    {
      "midi": 62,
      "hit": false,
      "t": 178000,
      "d": 2000,
      "v": 80
    },
    {
      "midi": 65,
      "hit": false,
      "t": 178000,
      "d": 2000,
      "v": 80
    },
    {
      "midi": 53,
      "hit": false,
      "t": 178999.99999999994,
      "d": 883.333333333343,
      "v": 32
    },
    {
      "midi": 58,
      "hit": false,
      "t": 179499.99999999994,
      "d": 491.66666666668607,
      "v": 49
    },
    {
      "midi": 60,
      "hit": false,
      "t": 179999.99999999997,
      "d": 2000,
      "v": 55
    },
    {
      "midi": 63,
      "hit": false,
      "t": 179999.99999999997,
      "d": 2000,
      "v": 78
    },
    {
      "midi": 67,
      "hit": false,
      "t": 179999.99999999997,
      "d": 2000,
      "v": 54
    },
    {
      "midi": 60,
      "hit": false,
      "t": 180000,
      "d": 2000,
      "v": 80
    },
    {
      "midi": 63,
      "hit": false,
      "t": 180000,
      "d": 2000,
      "v": 80
    },
    {
      "midi": 58,
      "hit": false,
      "t": 181999.99999999997,
      "d": 591.666666666657,
      "v": 55
    },
    {
      "midi": 62,
      "hit": false,
      "t": 181999.99999999997,
      "d": 750,
      "v": 78
    },
    {
      "midi": 65,
      "hit": false,
      "t": 181999.99999999997,
      "d": 750,
      "v": 54
    },
    {
      "midi": 58,
      "hit": false,
      "t": 182000,
      "d": 2000,
      "v": 80
    },
    {
      "midi": 62,
      "hit": false,
      "t": 182000,
      "d": 2000,
      "v": 80
    },
    {
      "midi": 53,
      "hit": false,
      "t": 182499.99999999997,
      "d": 1433.333333333343,
      "v": 63
    },
    {
      "midi": 58,
      "hit": false,
      "t": 182774.99999999997,
      "d": 1125,
      "v": 53
    },
    {
      "midi": 62,
      "hit": false,
      "t": 182999.99999999997,
      "d": 841.666666666657,
      "v": 59
    },
    {
      "midi": 65,
      "hit": false,
      "t": 183249.99999999997,
      "d": 541.666666666657,
      "v": 58
    },
    {
      "midi": 39,
      "hit": false,
      "t": 183999.99999999997,
      "d": 2000,
      "v": 55
    },
    {
      "midi": 55,
      "hit": false,
      "t": 183999.99999999997,
      "d": 2000,
      "v": 47
    },
    {
      "midi": 58,
      "hit": false,
      "t": 183999.99999999997,
      "d": 2000,
      "v": 60
    },
    {
      "midi": 63,
      "hit": false,
      "t": 183999.99999999997,
      "d": 2000,
      "v": 53
    },
    {
      "midi": 67,
      "hit": false,
      "t": 183999.99999999997,
      "d": 2000,
      "v": 52
    },
    {
      "midi": 58,
      "hit": false,
      "t": 184000,
      "d": 2000,
      "v": 80
    },
    {
      "midi": 63,
      "hit": false,
      "t": 184000,
      "d": 2000,
      "v": 80
    },
    {
      "midi": 58,
      "hit": false,
      "t": 185999.99999999997,
      "d": 758.333333333343,
      "v": 52
    },
    {
      "midi": 62,
      "hit": false,
      "t": 185999.99999999997,
      "d": 1016.666666666657,
      "v": 59
    },
    {
      "midi": 46,
      "hit": false,
      "t": 185999.99999999997,
      "d": 2000,
      "v": 72
    },
    {
      "midi": 58,
      "hit": false,
      "t": 186000,
      "d": 2000,
      "v": 80
    },
    {
      "midi": 62,
      "hit": false,
      "t": 186000,
      "d": 2000,
      "v": 80
    },
    {
      "midi": 53,
      "hit": false,
      "t": 186499.99999999997,
      "d": 1500,
      "v": 57
    },
    {
      "midi": 58,
      "hit": false,
      "t": 186999.99999999997,
      "d": 991.666666666657,
      "v": 55
    },
    {
      "midi": 65,
      "hit": false,
      "t": 187499.99999999997,
      "d": 450,
      "v": 62
    },
    {
      "midi": 63,
      "hit": false,
      "t": 187999.99999999997,
      "d": 758.333333333343,
      "v": 52
    },
    {
      "midi": 68,
      "hit": false,
      "t": 187999.99999999997,
      "d": 1016.666666666657,
      "v": 59
    },
    {
      "midi": 44,
      "hit": false,
      "t": 187999.99999999997,
      "d": 2000,
      "v": 72
    },
    {
      "midi": 60,
      "hit": false,
      "t": 188000,
      "d": 2000,
      "v": 80
    },
    {
      "midi": 63,
      "hit": false,
      "t": 188000,
      "d": 2000,
      "v": 80
    },
    {
      "midi": 60,
      "hit": false,
      "t": 188499.99999999997,
      "d": 1500,
      "v": 57
    },
    {
      "midi": 63,
      "hit": false,
      "t": 188999.99999999997,
      "d": 991.666666666657,
      "v": 55
    },
    {
      "midi": 72,
      "hit": false,
      "t": 189499.99999999997,
      "d": 450,
      "v": 62
    },
    {
      "midi": 58,
      "hit": false,
      "t": 189999.99999999997,
      "d": 1466.666666666657,
      "v": 47
    },
    {
      "midi": 62,
      "hit": false,
      "t": 189999.99999999997,
      "d": 1991.666666666686,
      "v": 56
    },
    {
      "midi": 46,
      "hit": false,
      "t": 189999.99999999997,
      "d": 2000.000000000029,
      "v": 57
    },
    {
      "midi": 65,
      "hit": false,
      "t": 189999.99999999997,
      "d": 2000.000000000029,
      "v": 37
    },
    {
      "midi": 58,
      "hit": false,
      "t": 190000,
      "d": 2000,
      "v": 80
    },
    {
      "midi": 62,
      "hit": false,
      "t": 190000,
      "d": 2000,
      "v": 80
    },
    {
      "midi": 53,
      "hit": false,
      "t": 190999.99999999997,
      "d": 883.333333333343,
      "v": 32
    },
    {
      "midi": 58,
      "hit": false,
      "t": 191499.99999999997,
      "d": 491.66666666668607,
      "v": 49
    },
    {
      "midi": 55,
      "hit": false,
      "t": 192000,
      "d": 2000,
      "v": 80
    },
    {
      "midi": 58,
      "hit": false,
      "t": 192000,
      "d": 2000,
      "v": 80
    },
    {
      "midi": 58,
      "hit": false,
      "t": 192000,
      "d": 758.333333333343,
      "v": 52
    },
    {
      "midi": 63,
      "hit": false,
      "t": 192000,
      "d": 1016.666666666657,
      "v": 59
    },
    {
      "midi": 39,
      "hit": false,
      "t": 192000,
      "d": 2000,
      "v": 72
    },
    {
      "midi": 55,
      "hit": false,
      "t": 192500,
      "d": 1500,
      "v": 57
    },
    {
      "midi": 58,
      "hit": false,
      "t": 193000,
      "d": 991.666666666657,
      "v": 55
    },
    {
      "midi": 67,
      "hit": false,
      "t": 193500,
      "d": 450,
      "v": 62
    },
    {
      "midi": 58,
      "hit": false,
      "t": 194000,
      "d": 2000,
      "v": 80
    },
    {
      "midi": 62,
      "hit": false,
      "t": 194000,
      "d": 2000,
      "v": 80
    },
    {
      "midi": 58,
      "hit": false,
      "t": 194000,
      "d": 758.333333333343,
      "v": 52
    },
    {
      "midi": 62,
      "hit": false,
      "t": 194000,
      "d": 1016.666666666657,
      "v": 59
    },
    {
      "midi": 46,
      "hit": false,
      "t": 194000,
      "d": 2000,
      "v": 72
    },
    {
      "midi": 53,
      "hit": false,
      "t": 194500,
      "d": 1500,
      "v": 57
    },
    {
      "midi": 58,
      "hit": false,
      "t": 195000,
      "d": 991.666666666657,
      "v": 55
    },
    {
      "midi": 65,
      "hit": false,
      "t": 195500,
      "d": 450,
      "v": 62
    },
    {
      "midi": 56,
      "hit": false,
      "t": 196000,
      "d": 1500,
      "v": 80
    },
    {
      "midi": 60,
      "hit": false,
      "t": 196000,
      "d": 1500,
      "v": 80
    },
    {
      "midi": 72,
      "hit": false,
      "t": 196000,
      "d": 58.333333333343035,
      "v": 66
    },
    {
      "midi": 68,
      "hit": false,
      "t": 196000,
      "d": 2775,
      "v": 64
    },
    {
      "midi": 44,
      "hit": false,
      "t": 196000,
      "d": 4000,
      "v": 53
    },
    {
      "midi": 63,
      "hit": false,
      "t": 196000,
      "d": 4000,
      "v": 52
    },
    {
      "midi": 60,
      "hit": false,
      "t": 197500,
      "d": 1000,
      "v": 80
    },
    {
      "midi": 62,
      "hit": false,
      "t": 198500,
      "d": 500,
      "v": 80
    },
    {
      "midi": 60,
      "hit": false,
      "t": 198500,
      "d": 1500,
      "v": 66
    },
    {
      "midi": 63,
      "hit": false,
      "t": 199000,
      "d": 500,
      "v": 80
    },
    {
      "midi": 68,
      "hit": false,
      "t": 199000,
      "d": 1000,
      "v": 58
    },
    {
      "midi": 63,
      "hit": false,
      "t": 199500,
      "d": 500,
      "v": 80
    },
    {
      "midi": 72,
      "hit": false,
      "t": 199500,
      "d": 491.66666666665697,
      "v": 82
    },
    {
      "midi": 58,
      "hit": false,
      "t": 200000,
      "d": 1500,
      "v": 80
    },
    {
      "midi": 62,
      "hit": false,
      "t": 200000,
      "d": 1500,
      "v": 80
    },
    {
      "midi": 65,
      "hit": false,
      "t": 200000,
      "d": 1500,
      "v": 80
    },
    {
      "midi": 65,
      "hit": false,
      "t": 200000,
      "d": 2050,
      "v": 63
    },
    {
      "midi": 46,
      "hit": false,
      "t": 200000,
      "d": 4000,
      "v": 46
    },
    {
      "midi": 53,
      "hit": false,
      "t": 200000,
      "d": 4000,
      "v": 55
    },
    {
      "midi": 58,
      "hit": false,
      "t": 200000,
      "d": 4000,
      "v": 43
    },
    {
      "midi": 62,
      "hit": false,
      "t": 200000,
      "d": 4000,
      "v": 53
    },
    {
      "midi": 74,
      "hit": false,
      "t": 201500,
      "d": 250,
      "v": 80
    },
    {
      "midi": 75,
      "hit": false,
      "t": 201750,
      "d": 250,
      "v": 80
    },
    {
      "midi": 74,
      "hit": false,
      "t": 202000,
      "d": 500,
      "v": 80
    },
    {
      "midi": 74,
      "hit": false,
      "t": 202000,
      "d": 1091.666666666657,
      "v": 76
    },
    {
      "midi": 70,
      "hit": false,
      "t": 202500,
      "d": 500,
      "v": 80
    },
    {
      "midi": 65,
      "hit": false,
      "t": 203000,
      "d": 500,
      "v": 80
    },
    {
      "midi": 65,
      "hit": false,
      "t": 203000,
      "d": 950,
      "v": 63
    },
    {
      "midi": 62,
      "hit": false,
      "t": 203500,
      "d": 500,
      "v": 80
    },
    {
      "midi": 56,
      "hit": false,
      "t": 204000,
      "d": 2000,
      "v": 80
    },
    {
      "midi": 63,
      "hit": false,
      "t": 204000,
      "d": 2000,
      "v": 80
    },
    {
      "midi": 72,
      "hit": false,
      "t": 204000,
      "d": 1691.666666666657,
      "v": 51
    },
    {
      "midi": 63,
      "hit": false,
      "t": 204000,
      "d": 1716.666666666657,
      "v": 51
    },
    {
      "midi": 44,
      "hit": false,
      "t": 204000,
      "d": 4000,
      "v": 52
    },
    {
      "midi": 60,
      "hit": false,
      "t": 205500,
      "d": 2500,
      "v": 46
    },
    {
      "midi": 58,
      "hit": false,
      "t": 206000,
      "d": 1000,
      "v": 80
    },
    {
      "midi": 65,
      "hit": false,
      "t": 206000,
      "d": 1000,
      "v": 80
    },
    {
      "midi": 63,
      "hit": false,
      "t": 206000,
      "d": 2000,
      "v": 43
    },
    {
      "midi": 72,
      "hit": false,
      "t": 206000,
      "d": 2000,
      "v": 51
    },
    {
      "midi": 58,
      "hit": false,
      "t": 207000,
      "d": 1000,
      "v": 80
    },
    {
      "midi": 63,
      "hit": false,
      "t": 207000,
      "d": 1000,
      "v": 80
    },
    {
      "midi": 56,
      "hit": false,
      "t": 208000,
      "d": 2000,
      "v": 80
    },
    {
      "midi": 60,
      "hit": false,
      "t": 208000,
      "d": 2000,
      "v": 80
    },
    {
      "midi": 63,
      "hit": false,
      "t": 208000,
      "d": 825,
      "v": 45
    },
    {
      "midi": 68,
      "hit": false,
      "t": 208000,
      "d": 1041.666666666657,
      "v": 55
    },
    {
      "midi": 72,
      "hit": false,
      "t": 208000,
      "d": 1433.333333333314,
      "v": 58
    },
    {
      "midi": 44,
      "hit": false,
      "t": 208000,
      "d": 3933.333333333314,
      "v": 63
    },
    {
      "midi": 60,
      "hit": false,
      "t": 208500,
      "d": 1624.999999999971,
      "v": 57
    },
    {
      "midi": 63,
      "hit": false,
      "t": 209041.66666666666,
      "d": 1833.333333333343,
      "v": 55
    },
    {
      "midi": 68,
      "hit": false,
      "t": 209499.99999999997,
      "d": 1033.333333333343,
      "v": 41
    },
    {
      "midi": 72,
      "hit": false,
      "t": 209999.99999999997,
      "d": 691.6666666666861,
      "v": 56
    },
    {
      "midi": 60,
      "hit": false,
      "t": 210000,
      "d": 1000,
      "v": 80
    },
    {
      "midi": 56,
      "hit": false,
      "t": 210000,
      "d": 2000,
      "v": 80
    },
    {
      "midi": 60,
      "hit": false,
      "t": 210499.99999999997,
      "d": 916.6666666666861,
      "v": 52
    },
    {
      "midi": 62,
      "hit": false,
      "t": 211000,
      "d": 500,
      "v": 80
    },
    {
      "midi": 63,
      "hit": false,
      "t": 211000,
      "d": 566.666666666657,
      "v": 10
    },
    {
      "midi": 72,
      "hit": false,
      "t": 211000,
      "d": 566.666666666657,
      "v": 45
    },
    {
      "midi": 63,
      "hit": false,
      "t": 211500,
      "d": 500,
      "v": 80
    },
    {
      "midi": 65,
      "hit": false,
      "t": 211999.99999999997,
      "d": 2050,
      "v": 63
    },
    {
      "midi": 46,
      "hit": false,
      "t": 211999.99999999997,
      "d": 4000,
      "v": 46
    },
    {
      "midi": 53,
      "hit": false,
      "t": 211999.99999999997,
      "d": 4000,
      "v": 55
    },
    {
      "midi": 58,
      "hit": false,
      "t": 211999.99999999997,
      "d": 4000,
      "v": 43
    },
    {
      "midi": 62,
      "hit": false,
      "t": 211999.99999999997,
      "d": 4000,
      "v": 53
    },
    {
      "midi": 58,
      "hit": false,
      "t": 212000,
      "d": 2000,
      "v": 80
    },
    {
      "midi": 62,
      "hit": false,
      "t": 212000,
      "d": 2000,
      "v": 80
    },
    {
      "midi": 74,
      "hit": false,
      "t": 213999.99999999997,
      "d": 1091.666666666657,
      "v": 76
    },
    {
      "midi": 58,
      "hit": false,
      "t": 214000,
      "d": 500,
      "v": 80
    },
    {
      "midi": 56,
      "hit": false,
      "t": 214500,
      "d": 500,
      "v": 80
    },
    {
      "midi": 65,
      "hit": false,
      "t": 214999.99999999997,
      "d": 950,
      "v": 63
    },
    {
      "midi": 55,
      "hit": false,
      "t": 215000,
      "d": 500,
      "v": 80
    },
    {
      "midi": 63,
      "hit": false,
      "t": 215500,
      "d": 1500,
      "v": 80
    },
    {
      "midi": 67,
      "hit": false,
      "t": 215500,
      "d": 1500,
      "v": 80
    },
    {
      "midi": 70,
      "hit": false,
      "t": 215500,
      "d": 1500,
      "v": 80
    },
    {
      "midi": 39,
      "hit": false,
      "t": 215999.99999999997,
      "d": 2000,
      "v": 55
    },
    {
      "midi": 55,
      "hit": false,
      "t": 215999.99999999997,
      "d": 2000,
      "v": 47
    },
    {
      "midi": 58,
      "hit": false,
      "t": 215999.99999999997,
      "d": 2000,
      "v": 60
    },
    {
      "midi": 63,
      "hit": false,
      "t": 215999.99999999997,
      "d": 2000,
      "v": 53
    },
    {
      "midi": 67,
      "hit": false,
      "t": 215999.99999999997,
      "d": 2000,
      "v": 52
    },
    {
      "midi": 63,
      "hit": false,
      "t": 217000,
      "d": 500,
      "v": 80
    },
    {
      "midi": 67,
      "hit": false,
      "t": 217000,
      "d": 500,
      "v": 80
    },
    {
      "midi": 62,
      "hit": false,
      "t": 217500,
      "d": 1500,
      "v": 80
    },
    {
      "midi": 65,
      "hit": false,
      "t": 217500,
      "d": 1500,
      "v": 80
    },
    {
      "midi": 58,
      "hit": false,
      "t": 217999.99999999997,
      "d": 1466.666666666657,
      "v": 47
    },
    {
      "midi": 62,
      "hit": false,
      "t": 217999.99999999997,
      "d": 1991.666666666686,
      "v": 56
    },
    {
      "midi": 46,
      "hit": false,
      "t": 217999.99999999997,
      "d": 2000.000000000029,
      "v": 57
    },
    {
      "midi": 65,
      "hit": false,
      "t": 217999.99999999997,
      "d": 2000.000000000029,
      "v": 37
    },
    {
      "midi": 53,
      "hit": false,
      "t": 218999.99999999997,
      "d": 883.333333333343,
      "v": 32
    },
    {
      "midi": 63,
      "hit": false,
      "t": 219000,
      "d": 500,
      "v": 80
    },
    {
      "midi": 67,
      "hit": false,
      "t": 219000,
      "d": 500,
      "v": 80
    },
    {
      "midi": 58,
      "hit": false,
      "t": 219499.99999999997,
      "d": 491.66666666668607,
      "v": 49
    },
    {
      "midi": 63,
      "hit": false,
      "t": 219500,
      "d": 2000,
      "v": 80
    },
    {
      "midi": 60,
      "hit": false,
      "t": 219500,
      "d": 2500,
      "v": 80
    },
    {
      "midi": 63,
      "hit": false,
      "t": 220000,
      "d": 758.333333333343,
      "v": 52
    },
    {
      "midi": 68,
      "hit": false,
      "t": 220000,
      "d": 1016.666666666657,
      "v": 59
    },
    {
      "midi": 44,
      "hit": false,
      "t": 220000,
      "d": 2000,
      "v": 72
    },
    {
      "midi": 60,
      "hit": false,
      "t": 220500,
      "d": 1500,
      "v": 57
    },
    {
      "midi": 63,
      "hit": false,
      "t": 221000,
      "d": 991.666666666657,
      "v": 55
    },
    {
      "midi": 65,
      "hit": false,
      "t": 221500,
      "d": 250,
      "v": 80
    },
    {
      "midi": 72,
      "hit": false,
      "t": 221500,
      "d": 450,
      "v": 62
    },
    {
      "midi": 67,
      "hit": false,
      "t": 221750,
      "d": 250,
      "v": 80
    },
    {
      "midi": 68,
      "hit": false,
      "t": 222000,
      "d": 250,
      "v": 80
    },
    {
      "midi": 58,
      "hit": false,
      "t": 222000,
      "d": 1466.666666666657,
      "v": 47
    },
    {
      "midi": 62,
      "hit": false,
      "t": 222000,
      "d": 1991.666666666686,
      "v": 56
    },
    {
      "midi": 46,
      "hit": false,
      "t": 222000,
      "d": 2000.000000000029,
      "v": 57
    },
    {
      "midi": 65,
      "hit": false,
      "t": 222000,
      "d": 2000.000000000029,
      "v": 37
    },
    {
      "midi": 67,
      "hit": false,
      "t": 222250,
      "d": 250,
      "v": 80
    },
    {
      "midi": 65,
      "hit": false,
      "t": 222500,
      "d": 250,
      "v": 80
    },
    {
      "midi": 63,
      "hit": false,
      "t": 222750,
      "d": 250,
      "v": 80
    },
    {
      "midi": 58,
      "hit": false,
      "t": 223000,
      "d": 1000,
      "v": 80
    },
    {
      "midi": 53,
      "hit": false,
      "t": 223000,
      "d": 883.333333333343,
      "v": 32
    },
    {
      "midi": 58,
      "hit": false,
      "t": 223500,
      "d": 491.66666666668607,
      "v": 49
    },
    {
      "midi": 55,
      "hit": false,
      "t": 224000,
      "d": 1000,
      "v": 80
    },
    {
      "midi": 58,
      "hit": false,
      "t": 224000,
      "d": 1000,
      "v": 80
    },
    {
      "midi": 63,
      "hit": false,
      "t": 224000,
      "d": 1000,
      "v": 80
    },
    {
      "midi": 39,
      "hit": false,
      "t": 224000.00000000003,
      "d": 2000,
      "v": 55
    },
    {
      "midi": 55,
      "hit": false,
      "t": 224000.00000000003,
      "d": 2000,
      "v": 47
    },
    {
      "midi": 58,
      "hit": false,
      "t": 224000.00000000003,
      "d": 2000,
      "v": 60
    },
    {
      "midi": 63,
      "hit": false,
      "t": 224000.00000000003,
      "d": 2000,
      "v": 53
    },
    {
      "midi": 67,
      "hit": false,
      "t": 224000.00000000003,
      "d": 2000,
      "v": 52
    },
    {
      "midi": 58,
      "hit": false,
      "t": 225000,
      "d": 500,
      "v": 80
    },
    {
      "midi": 63,
      "hit": false,
      "t": 225000,
      "d": 500,
      "v": 80
    },
    {
      "midi": 67,
      "hit": false,
      "t": 225000,
      "d": 500,
      "v": 80
    },
    {
      "midi": 58,
      "hit": false,
      "t": 225500,
      "d": 1500,
      "v": 80
    },
    {
      "midi": 62,
      "hit": false,
      "t": 225500,
      "d": 1500,
      "v": 80
    },
    {
      "midi": 65,
      "hit": false,
      "t": 225500,
      "d": 1500,
      "v": 80
    },
    {
      "midi": 58,
      "hit": false,
      "t": 226000.00000000003,
      "d": 1466.666666666657,
      "v": 47
    },
    {
      "midi": 62,
      "hit": false,
      "t": 226000.00000000003,
      "d": 1991.666666666686,
      "v": 56
    },
    {
      "midi": 46,
      "hit": false,
      "t": 226000.00000000003,
      "d": 2000.000000000029,
      "v": 57
    },
    {
      "midi": 65,
      "hit": false,
      "t": 226000.00000000003,
      "d": 2000.000000000029,
      "v": 37
    },
    {
      "midi": 58,
      "hit": false,
      "t": 227000,
      "d": 500,
      "v": 80
    },
    {
      "midi": 63,
      "hit": false,
      "t": 227000,
      "d": 500,
      "v": 80
    },
    {
      "midi": 67,
      "hit": false,
      "t": 227000,
      "d": 500,
      "v": 80
    },
    {
      "midi": 53,
      "hit": false,
      "t": 227000.00000000003,
      "d": 883.333333333343,
      "v": 32
    },
    {
      "midi": 56,
      "hit": false,
      "t": 227500,
      "d": 1500,
      "v": 80
    },
    {
      "midi": 60,
      "hit": false,
      "t": 227500,
      "d": 1500,
      "v": 80
    },
    {
      "midi": 63,
      "hit": false,
      "t": 227500,
      "d": 1500,
      "v": 80
    },
    {
      "midi": 58,
      "hit": false,
      "t": 227500.00000000003,
      "d": 491.66666666668607,
      "v": 49
    },
    {
      "midi": 60,
      "hit": false,
      "t": 228000.00000000006,
      "d": 900,
      "v": 62
    },
    {
      "midi": 44,
      "hit": false,
      "t": 228000.00000000006,
      "d": 1641.666666666657,
      "v": 76
    },
    {
      "midi": 51,
      "hit": false,
      "t": 228500.00000000006,
      "d": 758.333333333343,
      "v": 55
    },
    {
      "midi": 56,
      "hit": false,
      "t": 229000,
      "d": 1000,
      "v": 80
    },
    {
      "midi": 60,
      "hit": false,
      "t": 229000,
      "d": 1000,
      "v": 80
    },
    {
      "midi": 63,
      "hit": false,
      "t": 229000,
      "d": 1000,
      "v": 80
    },
    {
      "midi": 56,
      "hit": false,
      "t": 229000.00000000006,
      "d": 1000,
      "v": 72
    },
    {
      "midi": 60,
      "hit": false,
      "t": 229000.00000000006,
      "d": 1000,
      "v": 66
    },
    {
      "midi": 51,
      "hit": false,
      "t": 229500.00000000006,
      "d": 641.666666666657,
      "v": 59
    },
    {
      "midi": 56,
      "hit": false,
      "t": 230000,
      "d": 1000,
      "v": 80
    },
    {
      "midi": 60,
      "hit": false,
      "t": 230000,
      "d": 1000,
      "v": 80
    },
    {
      "midi": 63,
      "hit": false,
      "t": 230000,
      "d": 1000,
      "v": 80
    },
    {
      "midi": 56,
      "hit": false,
      "t": 230000.00000000006,
      "d": 425,
      "v": 72
    },
    {
      "midi": 60,
      "hit": false,
      "t": 230000.00000000006,
      "d": 741.666666666657,
      "v": 66
    },
    {
      "midi": 44,
      "hit": false,
      "t": 230000.00000000006,
      "d": 1908.3333333333721,
      "v": 68
    },
    {
      "midi": 51,
      "hit": false,
      "t": 230500.00000000006,
      "d": 783.333333333343,
      "v": 55
    },
    {
      "midi": 56,
      "hit": false,
      "t": 230750.00000000006,
      "d": 666.6666666666861,
      "v": 46
    },
    {
      "midi": 58,
      "hit": false,
      "t": 231000,
      "d": 250,
      "v": 80
    },
    {
      "midi": 60,
      "hit": false,
      "t": 231000.00000000006,
      "d": 1000.0000000000582,
      "v": 82
    },
    {
      "midi": 60,
      "hit": false,
      "t": 231250,
      "d": 250,
      "v": 80
    },
    {
      "midi": 63,
      "hit": false,
      "t": 231500,
      "d": 250,
      "v": 80
    },
    {
      "midi": 56,
      "hit": false,
      "t": 231500.0000000001,
      "d": 441.66666666668607,
      "v": 70
    },
    {
      "midi": 67,
      "hit": false,
      "t": 231750,
      "d": 250,
      "v": 80
    },
    {
      "midi": 63,
      "hit": false,
      "t": 232000,
      "d": 2000,
      "v": 80
    },
    {
      "midi": 67,
      "hit": false,
      "t": 232000,
      "d": 2000,
      "v": 80
    },
    {
      "midi": 58,
      "hit": false,
      "t": 232000.00000000012,
      "d": 758.333333333343,
      "v": 52
    },
    {
      "midi": 63,
      "hit": false,
      "t": 232000.00000000012,
      "d": 1016.666666666657,
      "v": 59
    },
    {
      "midi": 39,
      "hit": false,
      "t": 232000.00000000012,
      "d": 2000,
      "v": 72
    },
    {
      "midi": 55,
      "hit": false,
      "t": 232500.00000000012,
      "d": 1500,
      "v": 57
    },
    {
      "midi": 58,
      "hit": false,
      "t": 233000.00000000012,
      "d": 991.666666666657,
      "v": 55
    },
    {
      "midi": 67,
      "hit": false,
      "t": 233500.00000000012,
      "d": 450,
      "v": 62
    },
    {
      "midi": 62,
      "hit": false,
      "t": 234000,
      "d": 2000,
      "v": 80
    },
    {
      "midi": 65,
      "hit": false,
      "t": 234000,
      "d": 2000,
      "v": 80
    },
    {
      "midi": 58,
      "hit": false,
      "t": 234000.00000000012,
      "d": 1466.666666666657,
      "v": 47
    },
    {
      "midi": 62,
      "hit": false,
      "t": 234000.00000000012,
      "d": 1991.666666666686,
      "v": 56
    },
    {
      "midi": 46,
      "hit": false,
      "t": 234000.00000000012,
      "d": 2000.000000000029,
      "v": 57
    },
    {
      "midi": 65,
      "hit": false,
      "t": 234000.00000000012,
      "d": 2000.000000000029,
      "v": 37
    },
    {
      "midi": 53,
      "hit": false,
      "t": 235000.00000000012,
      "d": 883.333333333343,
      "v": 32
    },
    {
      "midi": 58,
      "hit": false,
      "t": 235500.00000000012,
      "d": 491.66666666668607,
      "v": 49
    },
    {
      "midi": 60,
      "hit": false,
      "t": 236000,
      "d": 2000,
      "v": 80
    },
    {
      "midi": 63,
      "hit": false,
      "t": 236000,
      "d": 2000,
      "v": 80
    },
    {
      "midi": 60,
      "hit": false,
      "t": 236000.00000000015,
      "d": 2000,
      "v": 55
    },
    {
      "midi": 63,
      "hit": false,
      "t": 236000.00000000015,
      "d": 2000,
      "v": 78
    },
    {
      "midi": 67,
      "hit": false,
      "t": 236000.00000000015,
      "d": 2000,
      "v": 54
    },
    {
      "midi": 58,
      "hit": false,
      "t": 238000,
      "d": 2000,
      "v": 80
    },
    {
      "midi": 62,
      "hit": false,
      "t": 238000,
      "d": 2000,
      "v": 80
    },
    {
      "midi": 58,
      "hit": false,
      "t": 238000.00000000015,
      "d": 591.666666666657,
      "v": 55
    },
    {
      "midi": 62,
      "hit": false,
      "t": 238000.00000000015,
      "d": 750,
      "v": 78
    },
    {
      "midi": 65,
      "hit": false,
      "t": 238000.00000000015,
      "d": 750,
      "v": 54
    },
    {
      "midi": 53,
      "hit": false,
      "t": 238500.00000000015,
      "d": 1433.333333333343,
      "v": 63
    },
    {
      "midi": 58,
      "hit": false,
      "t": 238775.00000000015,
      "d": 1125,
      "v": 53
    },
    {
      "midi": 62,
      "hit": false,
      "t": 239000.00000000015,
      "d": 841.666666666657,
      "v": 59
    },
    {
      "midi": 65,
      "hit": false,
      "t": 239250.00000000015,
      "d": 541.666666666657,
      "v": 58
    },
    {
      "midi": 58,
      "hit": false,
      "t": 240000,
      "d": 2000,
      "v": 80
    },
    {
      "midi": 63,
      "hit": false,
      "t": 240000,
      "d": 2000,
      "v": 80
    },
    {
      "midi": 39,
      "hit": false,
      "t": 240000.00000000015,
      "d": 2000,
      "v": 55
    },
    {
      "midi": 55,
      "hit": false,
      "t": 240000.00000000015,
      "d": 2000,
      "v": 47
    },
    {
      "midi": 58,
      "hit": false,
      "t": 240000.00000000015,
      "d": 2000,
      "v": 60
    },
    {
      "midi": 63,
      "hit": false,
      "t": 240000.00000000015,
      "d": 2000,
      "v": 53
    },
    {
      "midi": 67,
      "hit": false,
      "t": 240000.00000000015,
      "d": 2000,
      "v": 52
    },
    {
      "midi": 58,
      "hit": false,
      "t": 242000,
      "d": 2000,
      "v": 80
    },
    {
      "midi": 62,
      "hit": false,
      "t": 242000,
      "d": 2000,
      "v": 80
    },
    {
      "midi": 58,
      "hit": false,
      "t": 242000.00000000015,
      "d": 758.333333333343,
      "v": 52
    },
    {
      "midi": 62,
      "hit": false,
      "t": 242000.00000000015,
      "d": 1016.666666666657,
      "v": 59
    },
    {
      "midi": 46,
      "hit": false,
      "t": 242000.00000000015,
      "d": 2000,
      "v": 72
    },
    {
      "midi": 53,
      "hit": false,
      "t": 242500.00000000015,
      "d": 1500,
      "v": 57
    },
    {
      "midi": 58,
      "hit": false,
      "t": 243000.00000000015,
      "d": 991.666666666657,
      "v": 55
    },
    {
      "midi": 65,
      "hit": false,
      "t": 243500.00000000015,
      "d": 450,
      "v": 62
    },
    {
      "midi": 60,
      "hit": false,
      "t": 244000,
      "d": 2000,
      "v": 80
    },
    {
      "midi": 63,
      "hit": false,
      "t": 244000,
      "d": 2000,
      "v": 80
    },
    {
      "midi": 63,
      "hit": false,
      "t": 244000.00000000015,
      "d": 758.333333333343,
      "v": 52
    },
    {
      "midi": 68,
      "hit": false,
      "t": 244000.00000000015,
      "d": 1016.666666666657,
      "v": 59
    },
    {
      "midi": 44,
      "hit": false,
      "t": 244000.00000000015,
      "d": 2000,
      "v": 72
    },
    {
      "midi": 60,
      "hit": false,
      "t": 244500.00000000015,
      "d": 1500,
      "v": 57
    },
    {
      "midi": 63,
      "hit": false,
      "t": 245000.00000000015,
      "d": 991.666666666657,
      "v": 55
    },
    {
      "midi": 72,
      "hit": false,
      "t": 245500.00000000015,
      "d": 450,
      "v": 62
    },
    {
      "midi": 58,
      "hit": false,
      "t": 246000,
      "d": 2000,
      "v": 80
    },
    {
      "midi": 62,
      "hit": false,
      "t": 246000,
      "d": 2000,
      "v": 80
    },
    {
      "midi": 58,
      "hit": false,
      "t": 246000.00000000015,
      "d": 1466.666666666657,
      "v": 47
    },
    {
      "midi": 62,
      "hit": false,
      "t": 246000.00000000015,
      "d": 1991.666666666686,
      "v": 56
    },
    {
      "midi": 46,
      "hit": false,
      "t": 246000.00000000015,
      "d": 2000.000000000029,
      "v": 57
    },
    {
      "midi": 65,
      "hit": false,
      "t": 246000.00000000015,
      "d": 2000.000000000029,
      "v": 37
    },
    {
      "midi": 53,
      "hit": false,
      "t": 247000.00000000015,
      "d": 883.333333333343,
      "v": 32
    },
    {
      "midi": 58,
      "hit": false,
      "t": 247500.00000000015,
      "d": 491.66666666668607,
      "v": 49
    },
    {
      "midi": 55,
      "hit": false,
      "t": 248000,
      "d": 2000,
      "v": 80
    },
    {
      "midi": 58,
      "hit": false,
      "t": 248000,
      "d": 2000,
      "v": 80
    },
    {
      "midi": 58,
      "hit": false,
      "t": 248000.00000000017,
      "d": 758.333333333343,
      "v": 52
    },
    {
      "midi": 63,
      "hit": false,
      "t": 248000.00000000017,
      "d": 1016.666666666657,
      "v": 59
    },
    {
      "midi": 39,
      "hit": false,
      "t": 248000.00000000017,
      "d": 2000,
      "v": 72
    },
    {
      "midi": 55,
      "hit": false,
      "t": 248500.00000000017,
      "d": 1500,
      "v": 57
    },
    {
      "midi": 58,
      "hit": false,
      "t": 249000.00000000017,
      "d": 991.666666666657,
      "v": 55
    },
    {
      "midi": 67,
      "hit": false,
      "t": 249500.00000000017,
      "d": 450,
      "v": 62
    },
    {
      "midi": 58,
      "hit": false,
      "t": 250000,
      "d": 2000,
      "v": 80
    },
    {
      "midi": 62,
      "hit": false,
      "t": 250000,
      "d": 2000,
      "v": 80
    },
    {
      "midi": 58,
      "hit": false,
      "t": 250000.00000000017,
      "d": 758.333333333343,
      "v": 52
    },
    {
      "midi": 62,
      "hit": false,
      "t": 250000.00000000017,
      "d": 1016.666666666657,
      "v": 59
    },
    {
      "midi": 46,
      "hit": false,
      "t": 250000.00000000017,
      "d": 2000,
      "v": 72
    },
    {
      "midi": 53,
      "hit": false,
      "t": 250500.00000000017,
      "d": 1500,
      "v": 57
    },
    {
      "midi": 58,
      "hit": false,
      "t": 251000.00000000017,
      "d": 991.666666666657,
      "v": 55
    },
    {
      "midi": 65,
      "hit": false,
      "t": 251500.00000000017,
      "d": 450,
      "v": 62
    },
    {
      "midi": 56,
      "hit": false,
      "t": 252000,
      "d": 1500,
      "v": 80
    },
    {
      "midi": 60,
      "hit": false,
      "t": 252000,
      "d": 1500,
      "v": 80
    },
    {
      "midi": 72,
      "hit": false,
      "t": 252000.00000000017,
      "d": 58.333333333343035,
      "v": 66
    },
    {
      "midi": 68,
      "hit": false,
      "t": 252000.00000000017,
      "d": 2775,
      "v": 64
    },
    {
      "midi": 44,
      "hit": false,
      "t": 252000.00000000017,
      "d": 4000,
      "v": 53
    },
    {
      "midi": 63,
      "hit": false,
      "t": 252000.00000000017,
      "d": 4000,
      "v": 52
    },
    {
      "midi": 60,
      "hit": false,
      "t": 253500,
      "d": 1000,
      "v": 80
    },
    {
      "midi": 62,
      "hit": false,
      "t": 254500,
      "d": 500,
      "v": 80
    },
    {
      "midi": 60,
      "hit": false,
      "t": 254500.00000000017,
      "d": 1500,
      "v": 66
    },
    {
      "midi": 63,
      "hit": false,
      "t": 255000,
      "d": 500,
      "v": 80
    },
    {
      "midi": 68,
      "hit": false,
      "t": 255000.00000000017,
      "d": 1000,
      "v": 58
    },
    {
      "midi": 63,
      "hit": false,
      "t": 255500,
      "d": 500,
      "v": 80
    },
    {
      "midi": 72,
      "hit": false,
      "t": 255500.00000000017,
      "d": 491.66666666665697,
      "v": 82
    },
    {
      "midi": 58,
      "hit": false,
      "t": 256000,
      "d": 1500,
      "v": 80
    },
    {
      "midi": 62,
      "hit": false,
      "t": 256000,
      "d": 1500,
      "v": 80
    },
    {
      "midi": 65,
      "hit": false,
      "t": 256000,
      "d": 1500,
      "v": 80
    },
    {
      "midi": 65,
      "hit": false,
      "t": 256000.00000000017,
      "d": 2050,
      "v": 63
    },
    {
      "midi": 46,
      "hit": false,
      "t": 256000.00000000017,
      "d": 4000,
      "v": 46
    },
    {
      "midi": 53,
      "hit": false,
      "t": 256000.00000000017,
      "d": 4000,
      "v": 55
    },
    {
      "midi": 58,
      "hit": false,
      "t": 256000.00000000017,
      "d": 4000,
      "v": 43
    },
    {
      "midi": 62,
      "hit": false,
      "t": 256000.00000000017,
      "d": 4000,
      "v": 53
    },
    {
      "midi": 74,
      "hit": false,
      "t": 257500,
      "d": 250,
      "v": 80
    },
    {
      "midi": 75,
      "hit": false,
      "t": 257750,
      "d": 250,
      "v": 80
    },
    {
      "midi": 74,
      "hit": false,
      "t": 258000,
      "d": 500,
      "v": 80
    },
    {
      "midi": 74,
      "hit": false,
      "t": 258000.00000000017,
      "d": 1091.666666666657,
      "v": 76
    },
    {
      "midi": 70,
      "hit": false,
      "t": 258500,
      "d": 500,
      "v": 80
    },
    {
      "midi": 65,
      "hit": false,
      "t": 259000,
      "d": 500,
      "v": 80
    },
    {
      "midi": 65,
      "hit": false,
      "t": 259000.00000000017,
      "d": 950,
      "v": 63
    },
    {
      "midi": 62,
      "hit": false,
      "t": 259500,
      "d": 500,
      "v": 80
    },
    {
      "midi": 56,
      "hit": false,
      "t": 260000,
      "d": 2000,
      "v": 80
    },
    {
      "midi": 63,
      "hit": false,
      "t": 260000,
      "d": 2000,
      "v": 80
    },
    {
      "midi": 72,
      "hit": false,
      "t": 260000.00000000017,
      "d": 1691.666666666657,
      "v": 51
    },
    {
      "midi": 63,
      "hit": false,
      "t": 260000.00000000017,
      "d": 1716.666666666657,
      "v": 51
    },
    {
      "midi": 44,
      "hit": false,
      "t": 260000.00000000017,
      "d": 4000,
      "v": 52
    },
    {
      "midi": 60,
      "hit": false,
      "t": 261500.00000000017,
      "d": 2500,
      "v": 46
    },
    {
      "midi": 58,
      "hit": false,
      "t": 262000,
      "d": 1000,
      "v": 80
    },
    {
      "midi": 65,
      "hit": false,
      "t": 262000,
      "d": 1000,
      "v": 80
    },
    {
      "midi": 63,
      "hit": false,
      "t": 262000.00000000017,
      "d": 2000,
      "v": 43
    },
    {
      "midi": 72,
      "hit": false,
      "t": 262000.00000000017,
      "d": 2000,
      "v": 51
    },
    {
      "midi": 58,
      "hit": false,
      "t": 263000,
      "d": 1000,
      "v": 80
    },
    {
      "midi": 63,
      "hit": false,
      "t": 263000,
      "d": 1000,
      "v": 80
    },
    {
      "midi": 56,
      "hit": false,
      "t": 264000,
      "d": 2000,
      "v": 80
    },
    {
      "midi": 60,
      "hit": false,
      "t": 264000,
      "d": 2000,
      "v": 80
    },
    {
      "midi": 63,
      "hit": false,
      "t": 264000.0000000002,
      "d": 825,
      "v": 45
    },
    {
      "midi": 68,
      "hit": false,
      "t": 264000.0000000002,
      "d": 1041.666666666686,
      "v": 55
    },
    {
      "midi": 72,
      "hit": false,
      "t": 264000.0000000002,
      "d": 1433.3333333333721,
      "v": 58
    },
    {
      "midi": 44,
      "hit": false,
      "t": 264000.0000000002,
      "d": 3933.333333333372,
      "v": 63
    },
    {
      "midi": 60,
      "hit": false,
      "t": 264500.0000000002,
      "d": 1625.0000000000582,
      "v": 57
    },
    {
      "midi": 63,
      "hit": false,
      "t": 265041.66666666686,
      "d": 1833.333333333314,
      "v": 55
    },
    {
      "midi": 68,
      "hit": false,
      "t": 265500.00000000023,
      "d": 1033.333333333314,
      "v": 41
    },
    {
      "midi": 60,
      "hit": false,
      "t": 266000,
      "d": 1000,
      "v": 80
    },
    {
      "midi": 56,
      "hit": false,
      "t": 266000,
      "d": 2000,
      "v": 80
    },
    {
      "midi": 72,
      "hit": false,
      "t": 266000.00000000023,
      "d": 691.6666666666279,
      "v": 56
    },
    {
      "midi": 60,
      "hit": false,
      "t": 266500.00000000023,
      "d": 916.6666666666279,
      "v": 52
    },
    {
      "midi": 62,
      "hit": false,
      "t": 267000,
      "d": 500,
      "v": 80
    },
    {
      "midi": 63,
      "hit": false,
      "t": 267000.0000000002,
      "d": 566.6666666666861,
      "v": 10
    },
    {
      "midi": 72,
      "hit": false,
      "t": 267000.0000000002,
      "d": 566.6666666666861,
      "v": 45
    },
    {
      "midi": 63,
      "hit": false,
      "t": 267500,
      "d": 500,
      "v": 80
    },
    {
      "midi": 58,
      "hit": false,
      "t": 268000,
      "d": 4000,
      "v": 80
    },
    {
      "midi": 62,
      "hit": false,
      "t": 268000,
      "d": 4000,
      "v": 80
    },
    {
      "midi": 65,
      "hit": false,
      "t": 268000.00000000023,
      "d": 2050,
      "v": 63
    },
    {
      "midi": 46,
      "hit": false,
      "t": 268000.00000000023,
      "d": 4000,
      "v": 46
    },
    {
      "midi": 53,
      "hit": false,
      "t": 268000.00000000023,
      "d": 4000,
      "v": 55
    },
    {
      "midi": 58,
      "hit": false,
      "t": 268000.00000000023,
      "d": 4000,
      "v": 43
    },
    {
      "midi": 62,
      "hit": false,
      "t": 268000.00000000023,
      "d": 4000,
      "v": 53
    },
    {
      "midi": 74,
      "hit": false,
      "t": 270000.00000000023,
      "d": 1091.666666666686,
      "v": 76
    },
    {
      "midi": 65,
      "hit": false,
      "t": 271000.00000000023,
      "d": 950,
      "v": 63
    },
    {
      "midi": 55,
      "hit": false,
      "t": 272000,
      "d": 1000,
      "v": 80
    },
    {
      "midi": 58,
      "hit": false,
      "t": 272000,
      "d": 1000,
      "v": 80
    },
    {
      "midi": 63,
      "hit": false,
      "t": 272000,
      "d": 1000,
      "v": 80
    },
    {
      "midi": 55,
      "hit": false,
      "t": 272000.00000000023,
      "d": 2000,
      "v": 47
    },
    {
      "midi": 58,
      "hit": false,
      "t": 272000.00000000023,
      "d": 2000,
      "v": 60
    },
    {
      "midi": 63,
      "hit": false,
      "t": 272000.00000000023,
      "d": 2000,
      "v": 53
    },
    {
      "midi": 67,
      "hit": false,
      "t": 272000.00000000023,
      "d": 2000,
      "v": 52
    },
    {
      "midi": 63,
      "hit": false,
      "t": 273000,
      "d": 500,
      "v": 80
    },
    {
      "midi": 67,
      "hit": false,
      "t": 273000,
      "d": 500,
      "v": 80
    },
    {
      "midi": 62,
      "hit": false,
      "t": 273500,
      "d": 1500,
      "v": 80
    },
    {
      "midi": 65,
      "hit": false,
      "t": 273500,
      "d": 1500,
      "v": 80
    },
    {
      "midi": 58,
      "hit": false,
      "t": 274000.00000000023,
      "d": 758.3333333333139,
      "v": 52
    },
    {
      "midi": 62,
      "hit": false,
      "t": 274000.00000000023,
      "d": 1016.6666666666861,
      "v": 59
    },
    {
      "midi": 46,
      "hit": false,
      "t": 274000.00000000023,
      "d": 2000,
      "v": 72
    },
    {
      "midi": 53,
      "hit": false,
      "t": 274500.00000000023,
      "d": 1500,
      "v": 57
    },
    {
      "midi": 63,
      "hit": false,
      "t": 275000,
      "d": 500,
      "v": 80
    },
    {
      "midi": 67,
      "hit": false,
      "t": 275000,
      "d": 500,
      "v": 80
    },
    {
      "midi": 58,
      "hit": false,
      "t": 275000.00000000023,
      "d": 991.6666666666861,
      "v": 55
    },
    {
      "midi": 63,
      "hit": false,
      "t": 275500,
      "d": 2000,
      "v": 80
    },
    {
      "midi": 60,
      "hit": false,
      "t": 275500,
      "d": 2500,
      "v": 80
    },
    {
      "midi": 65,
      "hit": false,
      "t": 275500.00000000023,
      "d": 450,
      "v": 62
    },
    {
      "midi": 63,
      "hit": false,
      "t": 276000.00000000023,
      "d": 1466.666666666686,
      "v": 47
    },
    {
      "midi": 68,
      "hit": false,
      "t": 276000.00000000023,
      "d": 1991.6666666666279,
      "v": 56
    },
    {
      "midi": 72,
      "hit": false,
      "t": 276000.00000000023,
      "d": 1999.9999999999418,
      "v": 37
    },
    {
      "midi": 60,
      "hit": false,
      "t": 277000.00000000023,
      "d": 883.3333333333139,
      "v": 32
    },
    {
      "midi": 65,
      "hit": false,
      "t": 277500,
      "d": 250,
      "v": 80
    },
    {
      "midi": 63,
      "hit": false,
      "t": 277500.00000000023,
      "d": 491.66666666662786,
      "v": 49
    },
    {
      "midi": 67,
      "hit": false,
      "t": 277750,
      "d": 250,
      "v": 80
    },
    {
      "midi": 68,
      "hit": false,
      "t": 278000,
      "d": 250,
      "v": 80
    },
    {
      "midi": 58,
      "hit": false,
      "t": 278000.0000000002,
      "d": 1466.666666666686,
      "v": 47
    },
    {
      "midi": 62,
      "hit": false,
      "t": 278000.0000000002,
      "d": 1991.6666666666279,
      "v": 56
    },
    {
      "midi": 65,
      "hit": false,
      "t": 278000.0000000002,
      "d": 1999.9999999999418,
      "v": 37
    },
    {
      "midi": 67,
      "hit": false,
      "t": 278250,
      "d": 250,
      "v": 80
    },
    {
      "midi": 65,
      "hit": false,
      "t": 278500,
      "d": 250,
      "v": 80
    },
    {
      "midi": 63,
      "hit": false,
      "t": 278750,
      "d": 250,
      "v": 80
    },
    {
      "midi": 58,
      "hit": false,
      "t": 279000,
      "d": 1000,
      "v": 80
    },
    {
      "midi": 53,
      "hit": false,
      "t": 279000.0000000002,
      "d": 883.3333333333139,
      "v": 32
    },
    {
      "midi": 58,
      "hit": false,
      "t": 279500.0000000002,
      "d": 491.66666666662786,
      "v": 49
    },
    {
      "midi": 55,
      "hit": false,
      "t": 280000,
      "d": 1000,
      "v": 80
    },
    {
      "midi": 58,
      "hit": false,
      "t": 280000,
      "d": 1000,
      "v": 80
    },
    {
      "midi": 63,
      "hit": false,
      "t": 280000,
      "d": 1000,
      "v": 80
    },
    {
      "midi": 55,
      "hit": false,
      "t": 280000.0000000001,
      "d": 2000,
      "v": 47
    },
    {
      "midi": 58,
      "hit": false,
      "t": 280000.0000000001,
      "d": 2000,
      "v": 60
    },
    {
      "midi": 63,
      "hit": false,
      "t": 280000.0000000001,
      "d": 2000,
      "v": 53
    },
    {
      "midi": 67,
      "hit": false,
      "t": 280000.0000000001,
      "d": 2000,
      "v": 52
    },
    {
      "midi": 58,
      "hit": false,
      "t": 281000,
      "d": 500,
      "v": 80
    },
    {
      "midi": 63,
      "hit": false,
      "t": 281000,
      "d": 500,
      "v": 80
    },
    {
      "midi": 67,
      "hit": false,
      "t": 281000,
      "d": 500,
      "v": 80
    },
    {
      "midi": 58,
      "hit": false,
      "t": 281500,
      "d": 1500,
      "v": 80
    },
    {
      "midi": 62,
      "hit": false,
      "t": 281500,
      "d": 1500,
      "v": 80
    },
    {
      "midi": 65,
      "hit": false,
      "t": 281500,
      "d": 1500,
      "v": 80
    },
    {
      "midi": 58,
      "hit": false,
      "t": 282000.0000000001,
      "d": 758.3333333333139,
      "v": 52
    },
    {
      "midi": 62,
      "hit": false,
      "t": 282000.0000000001,
      "d": 1016.6666666666861,
      "v": 59
    },
    {
      "midi": 46,
      "hit": false,
      "t": 282000.0000000001,
      "d": 2000,
      "v": 72
    },
    {
      "midi": 53,
      "hit": false,
      "t": 282500.0000000001,
      "d": 1500,
      "v": 57
    },
    {
      "midi": 58,
      "hit": false,
      "t": 283000,
      "d": 500,
      "v": 80
    },
    {
      "midi": 63,
      "hit": false,
      "t": 283000,
      "d": 500,
      "v": 80
    },
    {
      "midi": 67,
      "hit": false,
      "t": 283000,
      "d": 500,
      "v": 80
    },
    {
      "midi": 58,
      "hit": false,
      "t": 283000.0000000001,
      "d": 991.6666666666861,
      "v": 55
    },
    {
      "midi": 56,
      "hit": false,
      "t": 283500,
      "d": 2000,
      "v": 80
    },
    {
      "midi": 60,
      "hit": false,
      "t": 283500,
      "d": 2000,
      "v": 80
    },
    {
      "midi": 63,
      "hit": false,
      "t": 283500,
      "d": 2000,
      "v": 80
    },
    {
      "midi": 65,
      "hit": false,
      "t": 283500.0000000001,
      "d": 450,
      "v": 62
    },
    {
      "midi": 63,
      "hit": false,
      "t": 284000.0000000001,
      "d": 1466.666666666686,
      "v": 47
    },
    {
      "midi": 68,
      "hit": false,
      "t": 284000.0000000001,
      "d": 1991.6666666666279,
      "v": 56
    },
    {
      "midi": 72,
      "hit": false,
      "t": 284000.0000000001,
      "d": 1999.9999999999418,
      "v": 37
    },
    {
      "midi": 60,
      "hit": false,
      "t": 285000.0000000001,
      "d": 883.3333333333139,
      "v": 32
    },
    {
      "midi": 65,
      "hit": false,
      "t": 285500,
      "d": 250,
      "v": 80
    },
    {
      "midi": 63,
      "hit": false,
      "t": 285500.0000000001,
      "d": 491.66666666662786,
      "v": 49
    },
    {
      "midi": 67,
      "hit": false,
      "t": 285750,
      "d": 250,
      "v": 80
    },
    {
      "midi": 68,
      "hit": false,
      "t": 286000,
      "d": 250,
      "v": 80
    },
    {
      "midi": 58,
      "hit": false,
      "t": 286000.00000000006,
      "d": 1466.666666666686,
      "v": 47
    },
    {
      "midi": 62,
      "hit": false,
      "t": 286000.00000000006,
      "d": 1991.6666666666279,
      "v": 56
    },
    {
      "midi": 65,
      "hit": false,
      "t": 286000.00000000006,
      "d": 1999.9999999999418,
      "v": 37
    },
    {
      "midi": 67,
      "hit": false,
      "t": 286250,
      "d": 250,
      "v": 80
    },
    {
      "midi": 63,
      "hit": false,
      "t": 286500,
      "d": 250,
      "v": 80
    },
    {
      "midi": 70,
      "hit": false,
      "t": 286750,
      "d": 250,
      "v": 80
    },
    {
      "midi": 75,
      "hit": false,
      "t": 287000,
      "d": 250,
      "v": 80
    },
    {
      "midi": 53,
      "hit": false,
      "t": 287000.00000000006,
      "d": 883.3333333333139,
      "v": 32
    },
    {
      "midi": 70,
      "hit": false,
      "t": 287250,
      "d": 250,
      "v": 80
    },
    {
      "midi": 75,
      "hit": false,
      "t": 287500,
      "d": 250,
      "v": 80
    },
    {
      "midi": 58,
      "hit": false,
      "t": 287500.00000000006,
      "d": 491.66666666662786,
      "v": 49
    },
    {
      "midi": 77,
      "hit": false,
      "t": 287750,
      "d": 250,
      "v": 80
    },
    {
      "midi": 67,
      "hit": false,
      "t": 288000,
      "d": 7200,
      "v": 80
    },
    {
      "midi": 55,
      "hit": false,
      "t": 288000,
      "d": 7200,
      "v": 80
    },
    {
      "midi": 70,
      "hit": false,
      "t": 288125,
      "d": 7075,
      "v": 80
    },
    {
      "midi": 58,
      "hit": false,
      "t": 288125,
      "d": 7075,
      "v": 80
    },
    {
      "midi": 75,
      "hit": false,
      "t": 288250,
      "d": 6950,
      "v": 80
    },
    {
      "midi": 63,
      "hit": false,
      "t": 288250,
      "d": 6950,
      "v": 80
    },
    {
      "midi": 79,
      "hit": false,
      "t": 288375,
      "d": 6825,
      "v": 80
    },
    {
      "midi": 67,
      "hit": false,
      "t": 288375,
      "d": 6825,
      "v": 80
    }
  ]
}