{
  "jsonPath": "Unknown/Unknown/Friedrich Burgmüller_/arabesque.json",
  "path": "Unknown\\Unknown\\Friedrich Burgmüller_\\Arabesque.mid",
  "name": "Arabesque",
  "difficulty": "Advanced",
  "bpm": 100,
  "notes": [
    {
      "midi": 57,
      "hit": false,
      "t": 0,
      "d": 600,
      "v": 70
    },
    {
      "midi": 60,
      "hit": false,
      "t": 0,
      "d": 600,
      "v": 70
    },
    {
      "midi": 64,
      "hit": false,
      "t": 0,
      "d": 600,
      "v": 70
    },
    {
      "midi": 57,
      "hit": false,
      "t": 600,
      "d": 600,
      "v": 78
    },
    {
      "midi": 60,
      "hit": false,
      "t": 600,
      "d": 600,
      "v": 78
    },
    {
      "midi": 64,
      "hit": false,
      "t": 600,
      "d": 600,
      "v": 78
    },
    {
      "midi": 57,
      "hit": false,
      "t": 1200,
      "d": 600,
      "v": 74
    },
    {
      "midi": 60,
      "hit": false,
      "t": 1200,
      "d": 600,
      "v": 74
    },
    {
      "midi": 64,
      "hit": false,
      "t": 1200,
      "d": 600,
      "v": 74
    },
    {
      "midi": 57,
      "hit": false,
      "t": 1800,
      "d": 600,
      "v": 79
    },
    {
      "midi": 60,
      "hit": false,
      "t": 1800,
      "d": 600,
      "v": 79
    },
    {
      "midi": 64,
      "hit": false,
      "t": 1800,
      "d": 600,
      "v": 79
    },
    {
      "midi": 69,
      "hit": false,
      "t": 2400,
      "d": 150,
      "v": 71
    },
    {
      "midi": 57,
      "hit": false,
      "t": 2400,
      "d": 600,
      "v": 77
    },
    {
      "midi": 60,
      "hit": false,
      "t": 2400,
      "d": 600,
      "v": 77
    },
    {
      "midi": 64,
      "hit": false,
      "t": 2400,
      "d": 600,
      "v": 77
    },
    {
      "midi": 71,
      "hit": false,
      "t": 2550,
      "d": 150,
      "v": 77
    },
    {
      "midi": 72,
      "hit": false,
      "t": 2700,
      "d": 150,
      "v": 82
    },
    {
      "midi": 71,
      "hit": false,
      "t": 2850,
      "d": 150,
      "v": 73
    },
    {
      "midi": 69,
      "hit": false,
      "t": 3000,
      "d": 300,
      "v": 76
    },
    {
      "midi": 57,
      "hit": false,
      "t": 3000,
      "d": 600,
      "v": 77
    },
    {
      "midi": 60,
      "hit": false,
      "t": 3000,
      "d": 600,
      "v": 77
    },
    {
      "midi": 64,
      "hit": false,
      "t": 3000,
      "d": 600,
      "v": 77
    },
    {
      "midi": 69,
      "hit": false,
      "t": 3600,
      "d": 150,
      "v": 73
    },
    {
      "midi": 57,
      "hit": false,
      "t": 3600,
      "d": 600,
      "v": 80
    },
    {
      "midi": 60,
      "hit": false,
      "t": 3600,
      "d": 600,
      "v": 80
    },
    {
      "midi": 64,
      "hit": false,
      "t": 3600,
      "d": 600,
      "v": 80
    },
    {
      "midi": 71,
      "hit": false,
      "t": 3750,
      "d": 150,
      "v": 79
    },
    {
      "midi": 72,
      "hit": false,
      "t": 3900,
      "d": 150,
      "v": 78
    },
    {
      "midi": 74,
      "hit": false,
      "t": 4050,
      "d": 150,
      "v": 83
    },
    {
      "midi": 76,
      "hit": false,
      "t": 4200,
      "d": 300,
      "v": 83
    },
    {
      "midi": 57,
      "hit": false,
      "t": 4200,
      "d": 600,
      "v": 75
    },
    {
      "midi": 60,
      "hit": false,
      "t": 4200,
      "d": 600,
      "v": 75
    },
    {
      "midi": 64,
      "hit": false,
      "t": 4200,
      "d": 600,
      "v": 75
    },
    {
      "midi": 74,
      "hit": false,
      "t": 4800,
      "d": 150,
      "v": 70
    },
    {
      "midi": 57,
      "hit": false,
      "t": 4800,
      "d": 600,
      "v": 77
    },
    {
      "midi": 62,
      "hit": false,
      "t": 4800,
      "d": 600,
      "v": 77
    },
    {
      "midi": 65,
      "hit": false,
      "t": 4800,
      "d": 600,
      "v": 77
    },
    {
      "midi": 76,
      "hit": false,
      "t": 4950,
      "d": 150,
      "v": 80
    },
    {
      "midi": 77,
      "hit": false,
      "t": 5100,
      "d": 150,
      "v": 84
    },
    {
      "midi": 79,
      "hit": false,
      "t": 5250,
      "d": 150,
      "v": 84
    },
    {
      "midi": 81,
      "hit": false,
      "t": 5400,
      "d": 300,
      "v": 83
    },
    {
      "midi": 57,
      "hit": false,
      "t": 5400,
      "d": 600,
      "v": 81
    },
    {
      "midi": 62,
      "hit": false,
      "t": 5400,
      "d": 600,
      "v": 81
    },
    {
      "midi": 65,
      "hit": false,
      "t": 5400,
      "d": 600,
      "v": 81
    },
    {
      "midi": 81,
      "hit": false,
      "t": 6000,
      "d": 150,
      "v": 68
    },
    {
      "midi": 57,
      "hit": false,
      "t": 6000,
      "d": 600,
      "v": 71
    },
    {
      "midi": 60,
      "hit": false,
      "t": 6000,
      "d": 600,
      "v": 71
    },
    {
      "midi": 64,
      "hit": false,
      "t": 6000,
      "d": 600,
      "v": 71
    },
    {
      "midi": 83,
      "hit": false,
      "t": 6150,
      "d": 150,
      "v": 79
    },
    {
      "midi": 84,
      "hit": false,
      "t": 6300,
      "d": 150,
      "v": 78
    },
    {
      "midi": 86,
      "hit": false,
      "t": 6450,
      "d": 150,
      "v": 82
    },
    {
      "midi": 88,
      "hit": false,
      "t": 6600,
      "d": 300,
      "v": 85
    },
    {
      "midi": 57,
      "hit": false,
      "t": 6600,
      "d": 600,
      "v": 75
    },
    {
      "midi": 60,
      "hit": false,
      "t": 6600,
      "d": 600,
      "v": 75
    },
    {
      "midi": 64,
      "hit": false,
      "t": 6600,
      "d": 600,
      "v": 75
    },
    {
      "midi": 55,
      "hit": false,
      "t": 7200,
      "d": 600,
      "v": 75
    },
    {
      "midi": 60,
      "hit": false,
      "t": 7200,
      "d": 600,
      "v": 75
    },
    {
      "midi": 64,
      "hit": false,
      "t": 7200,
      "d": 600,
      "v": 75
    },
    {
      "midi": 76,
      "hit": false,
      "t": 7500,
      "d": 300,
      "v": 72
    },
    {
      "midi": 76,
      "hit": false,
      "t": 7800,
      "d": 300,
      "v": 74
    },
    {
      "midi": 55,
      "hit": false,
      "t": 7800,
      "d": 600,
      "v": 75
    },
    {
      "midi": 60,
      "hit": false,
      "t": 7800,
      "d": 600,
      "v": 75
    },
    {
      "midi": 64,
      "hit": false,
      "t": 7800,
      "d": 600,
      "v": 75
    },
    {
      "midi": 77,
      "hit": false,
      "t": 8100,
      "d": 300,
      "v": 80
    },
    {
      "midi": 74,
      "hit": false,
      "t": 8400,
      "d": 300,
      "v": 72
    },
    {
      "midi": 55,
      "hit": false,
      "t": 8400,
      "d": 600,
      "v": 76
    },
    {
      "midi": 59,
      "hit": false,
      "t": 8400,
      "d": 600,
      "v": 76
    },
    {
      "midi": 65,
      "hit": false,
      "t": 8400,
      "d": 600,
      "v": 76
    },
    {
      "midi": 74,
      "hit": false,
      "t": 9000,
      "d": 900,
      "v": 74
    },
    {
      "midi": 55,
      "hit": false,
      "t": 9000,
      "d": 600,
      "v": 78
    },
    {
      "midi": 59,
      "hit": false,
      "t": 9000,
      "d": 600,
      "v": 78
    },
    {
      "midi": 65,
      "hit": false,
      "t": 9000,
      "d": 600,
      "v": 78
    },
    {
      "midi": 55,
      "hit": false,
      "t": 9600,
      "d": 600,
      "v": 78
    },
    {
      "midi": 59,
      "hit": false,
      "t": 9600,
      "d": 600,
      "v": 78
    },
    {
      "midi": 65,
      "hit": false,
      "t": 9600,
      "d": 600,
      "v": 78
    },
    {
      "midi": 79,
      "hit": false,
      "t": 9900,
      "d": 300,
      "v": 85
    },
    {
      "midi": 74,
      "hit": false,
      "t": 10200,
      "d": 300,
      "v": 66
    },
    {
      "midi": 55,
      "hit": false,
      "t": 10200,
      "d": 600,
      "v": 75
    },
    {
      "midi": 59,
      "hit": false,
      "t": 10200,
      "d": 600,
      "v": 75
    },
    {
      "midi": 65,
      "hit": false,
      "t": 10200,
      "d": 600,
      "v": 75
    },
    {
      "midi": 76,
      "hit": false,
      "t": 10500,
      "d": 300,
      "v": 79
    },
    {
      "midi": 72,
      "hit": false,
      "t": 10800,
      "d": 300,
      "v": 67
    },
    {
      "midi": 60,
      "hit": false,
      "t": 10800,
      "d": 300,
      "v": 74
    },
    {
      "midi": 64,
      "hit": false,
      "t": 10800,
      "d": 300,
      "v": 74
    },
    {
      "midi": 76,
      "hit": false,
      "t": 11400,
      "d": 600,
      "v": 71
    },
    {
      "midi": 64,
      "hit": false,
      "t": 11400,
      "d": 600,
      "v": 71
    },
    {
      "midi": 72,
      "hit": false,
      "t": 12000,
      "d": 600,
      "v": 67
    },
    {
      "midi": 60,
      "hit": false,
      "t": 12000,
      "d": 900,
      "v": 75
    },
    {
      "midi": 64,
      "hit": false,
      "t": 12000,
      "d": 900,
      "v": 75
    },
    {
      "midi": 84,
      "hit": false,
      "t": 12600,
      "d": 300,
      "v": 94
    },
    {
      "midi": 76,
      "hit": false,
      "t": 13200,
      "d": 900,
      "v": 64
    },
    {
      "midi": 56,
      "hit": false,
      "t": 13200,
      "d": 150,
      "v": 69
    },
    {
      "midi": 57,
      "hit": false,
      "t": 13350,
      "d": 150,
      "v": 76
    },
    {
      "midi": 59,
      "hit": false,
      "t": 13500,
      "d": 150,
      "v": 79
    },
    {
      "midi": 57,
      "hit": false,
      "t": 13650,
      "d": 150,
      "v": 77
    },
    {
      "midi": 56,
      "hit": false,
      "t": 13800,
      "d": 300,
      "v": 72
    },
    {
      "midi": 71,
      "hit": false,
      "t": 14100,
      "d": 300,
      "v": 66
    },
    {
      "midi": 72,
      "hit": false,
      "t": 14400,
      "d": 900,
      "v": 73
    },
    {
      "midi": 57,
      "hit": false,
      "t": 14400,
      "d": 150,
      "v": 67
    },
    {
      "midi": 59,
      "hit": false,
      "t": 14550,
      "d": 150,
      "v": 77
    },
    {
      "midi": 60,
      "hit": false,
      "t": 14700,
      "d": 150,
      "v": 79
    },
    {
      "midi": 62,
      "hit": false,
      "t": 14850,
      "d": 150,
      "v": 81
    },
    {
      "midi": 64,
      "hit": false,
      "t": 15000,
      "d": 300,
      "v": 82
    },
    {
      "midi": 69,
      "hit": false,
      "t": 15300,
      "d": 300,
      "v": 73
    },
    {
      "midi": 76,
      "hit": false,
      "t": 15600,
      "d": 900,
      "v": 85
    },
    {
      "midi": 56,
      "hit": false,
      "t": 15600,
      "d": 150,
      "v": 66
    },
    {
      "midi": 57,
      "hit": false,
      "t": 15750,
      "d": 150,
      "v": 78
    },
    {
      "midi": 59,
      "hit": false,
      "t": 15900,
      "d": 150,
      "v": 80
    },
    {
      "midi": 57,
      "hit": false,
      "t": 16050,
      "d": 150,
      "v": 77
    },
    {
      "midi": 56,
      "hit": false,
      "t": 16200,
      "d": 300,
      "v": 76
    },
    {
      "midi": 71,
      "hit": false,
      "t": 16500,
      "d": 300,
      "v": 64
    },
    {
      "midi": 72,
      "hit": false,
      "t": 16800,
      "d": 900,
      "v": 76
    },
    {
      "midi": 57,
      "hit": false,
      "t": 16800,
      "d": 150,
      "v": 68
    },
    {
      "midi": 59,
      "hit": false,
      "t": 16950,
      "d": 150,
      "v": 70
    },
    {
      "midi": 60,
      "hit": false,
      "t": 17100,
      "d": 150,
      "v": 78
    },
    {
      "midi": 62,
      "hit": false,
      "t": 17250,
      "d": 150,
      "v": 83
    },
    {
      "midi": 64,
      "hit": false,
      "t": 17400,
      "d": 300,
      "v": 76
    },
    {
      "midi": 69,
      "hit": false,
      "t": 17700,
      "d": 300,
      "v": 70
    },
    {
      "midi": 81,
      "hit": false,
      "t": 18000,
      "d": 900,
      "v": 96
    },
    {
      "midi": 61,
      "hit": false,
      "t": 18000,
      "d": 150,
      "v": 68
    },
    {
      "midi": 62,
      "hit": false,
      "t": 18150,
      "d": 150,
      "v": 80
    },
    {
      "midi": 64,
      "hit": false,
      "t": 18300,
      "d": 150,
      "v": 84
    },
    {
      "midi": 62,
      "hit": false,
      "t": 18450,
      "d": 150,
      "v": 77
    },
    {
      "midi": 61,
      "hit": false,
      "t": 18600,
      "d": 300,
      "v": 73
    },
    {
      "midi": 76,
      "hit": false,
      "t": 18900,
      "d": 300,
      "v": 67
    },
    {
      "midi": 62,
      "hit": false,
      "t": 19200,
      "d": 150,
      "v": 71
    },
    {
      "midi": 77,
      "hit": false,
      "t": 19200,
      "d": 900,
      "v": 80
    },
    {
      "midi": 64,
      "hit": false,
      "t": 19350,
      "d": 150,
      "v": 80
    },
    {
      "midi": 65,
      "hit": false,
      "t": 19500,
      "d": 150,
      "v": 79
    },
    {
      "midi": 67,
      "hit": false,
      "t": 19650,
      "d": 150,
      "v": 81
    },
    {
      "midi": 69,
      "hit": false,
      "t": 19800,
      "d": 300,
      "v": 78
    },
    {
      "midi": 76,
      "hit": false,
      "t": 20100,
      "d": 300,
      "v": 75
    },
    {
      "midi": 67,
      "hit": false,
      "t": 20100,
      "d": 300,
      "v": 72
    },
    {
      "midi": 74,
      "hit": false,
      "t": 20400,
      "d": 300,
      "v": 71
    },
    {
      "midi": 65,
      "hit": false,
      "t": 20400,
      "d": 300,
      "v": 72
    },
    {
      "midi": 72,
      "hit": false,
      "t": 20700,
      "d": 300,
      "v": 75
    },
    {
      "midi": 64,
      "hit": false,
      "t": 20700,
      "d": 300,
      "v": 69
    },
    {
      "midi": 71,
      "hit": false,
      "t": 21000,
      "d": 300,
      "v": 73
    },
    {
      "midi": 62,
      "hit": false,
      "t": 21000,
      "d": 300,
      "v": 71
    },
    {
      "midi": 69,
      "hit": false,
      "t": 21300,
      "d": 300,
      "v": 72
    },
    {
      "midi": 63,
      "hit": false,
      "t": 21300,
      "d": 300,
      "v": 77
    },
    {
      "midi": 68,
      "hit": false,
      "t": 21600,
      "d": 600,
      "v": 69
    },
    {
      "midi": 64,
      "hit": false,
      "t": 21600,
      "d": 300,
      "v": 79
    },
    {
      "midi": 62,
      "hit": false,
      "t": 21900,
      "d": 300,
      "v": 71
    },
    {
      "midi": 76,
      "hit": false,
      "t": 22200,
      "d": 600,
      "v": 92
    },
    {
      "midi": 60,
      "hit": false,
      "t": 22200,
      "d": 300,
      "v": 72
    },
    {
      "midi": 59,
      "hit": false,
      "t": 22500,
      "d": 300,
      "v": 71
    },
    {
      "midi": 69,
      "hit": false,
      "t": 22800,
      "d": 150,
      "v": 64
    },
    {
      "midi": 57,
      "hit": false,
      "t": 22800,
      "d": 600,
      "v": 88
    },
    {
      "midi": 60,
      "hit": false,
      "t": 22800,
      "d": 600,
      "v": 88
    },
    {
      "midi": 64,
      "hit": false,
      "t": 22800,
      "d": 600,
      "v": 88
    },
    {
      "midi": 71,
      "hit": false,
      "t": 22950,
      "d": 150,
      "v": 82
    },
    {
      "midi": 72,
      "hit": false,
      "t": 23100,
      "d": 150,
      "v": 81
    },
    {
      "midi": 71,
      "hit": false,
      "t": 23250,
      "d": 150,
      "v": 72
    },
    {
      "midi": 69,
      "hit": false,
      "t": 23400,
      "d": 300,
      "v": 71
    },
    {
      "midi": 57,
      "hit": false,
      "t": 23400,
      "d": 600,
      "v": 80
    },
    {
      "midi": 60,
      "hit": false,
      "t": 23400,
      "d": 600,
      "v": 80
    },
    {
      "midi": 64,
      "hit": false,
      "t": 23400,
      "d": 600,
      "v": 80
    },
    {
      "midi": 69,
      "hit": false,
      "t": 24000,
      "d": 150,
      "v": 63
    },
    {
      "midi": 57,
      "hit": false,
      "t": 24000,
      "d": 600,
      "v": 78
    },
    {
      "midi": 60,
      "hit": false,
      "t": 24000,
      "d": 600,
      "v": 78
    },
    {
      "midi": 64,
      "hit": false,
      "t": 24000,
      "d": 600,
      "v": 78
    },
    {
      "midi": 71,
      "hit": false,
      "t": 24150,
      "d": 150,
      "v": 79
    },
    {
      "midi": 72,
      "hit": false,
      "t": 24300,
      "d": 150,
      "v": 75
    },
    {
      "midi": 74,
      "hit": false,
      "t": 24450,
      "d": 150,
      "v": 82
    },
    {
      "midi": 76,
      "hit": false,
      "t": 24600,
      "d": 300,
      "v": 85
    },
    {
      "midi": 57,
      "hit": false,
      "t": 24600,
      "d": 600,
      "v": 79
    },
    {
      "midi": 60,
      "hit": false,
      "t": 24600,
      "d": 600,
      "v": 79
    },
    {
      "midi": 64,
      "hit": false,
      "t": 24600,
      "d": 600,
      "v": 79
    },
    {
      "midi": 74,
      "hit": false,
      "t": 25200,
      "d": 150,
      "v": 67
    },
    {
      "midi": 57,
      "hit": false,
      "t": 25200,
      "d": 600,
      "v": 81
    },
    {
      "midi": 62,
      "hit": false,
      "t": 25200,
      "d": 600,
      "v": 81
    },
    {
      "midi": 65,
      "hit": false,
      "t": 25200,
      "d": 600,
      "v": 81
    },
    {
      "midi": 76,
      "hit": false,
      "t": 25350,
      "d": 150,
      "v": 86
    },
    {
      "midi": 77,
      "hit": false,
      "t": 25500,
      "d": 150,
      "v": 82
    },
    {
      "midi": 79,
      "hit": false,
      "t": 25650,
      "d": 150,
      "v": 78
    },
    {
      "midi": 81,
      "hit": false,
      "t": 25800,
      "d": 300,
      "v": 81
    },
    {
      "midi": 57,
      "hit": false,
      "t": 25800,
      "d": 600,
      "v": 77
    },
    {
      "midi": 62,
      "hit": false,
      "t": 25800,
      "d": 600,
      "v": 77
    },
    {
      "midi": 65,
      "hit": false,
      "t": 25800,
      "d": 600,
      "v": 77
    },
    {
      "midi": 81,
      "hit": false,
      "t": 26400,
      "d": 150,
      "v": 65
    },
    {
      "midi": 57,
      "hit": false,
      "t": 26400,
      "d": 600,
      "v": 74
    },
    {
      "midi": 60,
      "hit": false,
      "t": 26400,
      "d": 600,
      "v": 74
    },
    {
      "midi": 64,
      "hit": false,
      "t": 26400,
      "d": 600,
      "v": 74
    },
    {
      "midi": 83,
      "hit": false,
      "t": 26550,
      "d": 150,
      "v": 78
    },
    {
      "midi": 84,
      "hit": false,
      "t": 26700,
      "d": 150,
      "v": 80
    },
    {
      "midi": 86,
      "hit": false,
      "t": 26850,
      "d": 150,
      "v": 80
    },
    {
      "midi": 88,
      "hit": false,
      "t": 27000,
      "d": 300,
      "v": 82
    },
    {
      "midi": 57,
      "hit": false,
      "t": 27000,
      "d": 600,
      "v": 77
    },
    {
      "midi": 60,
      "hit": false,
      "t": 27000,
      "d": 600,
      "v": 77
    },
    {
      "midi": 64,
      "hit": false,
      "t": 27000,
      "d": 600,
      "v": 77
    },
    {
      "midi": 57,
      "hit": false,
      "t": 27600,
      "d": 600,
      "v": 72
    },
    {
      "midi": 62,
      "hit": false,
      "t": 27600,
      "d": 600,
      "v": 72
    },
    {
      "midi": 64,
      "hit": false,
      "t": 27600,
      "d": 600,
      "v": 72
    },
    {
      "midi": 71,
      "hit": false,
      "t": 27900,
      "d": 300,
      "v": 67
    },
    {
      "midi": 71,
      "hit": false,
      "t": 28200,
      "d": 300,
      "v": 80
    },
    {
      "midi": 57,
      "hit": false,
      "t": 28200,
      "d": 600,
      "v": 77
    },
    {
      "midi": 62,
      "hit": false,
      "t": 28200,
      "d": 600,
      "v": 77
    },
    {
      "midi": 64,
      "hit": false,
      "t": 28200,
      "d": 600,
      "v": 77
    },
    {
      "midi": 72,
      "hit": false,
      "t": 28500,
      "d": 300,
      "v": 78
    },
    {
      "midi": 69,
      "hit": false,
      "t": 28800,
      "d": 600,
      "v": 73
    },
    {
      "midi": 57,
      "hit": false,
      "t": 28800,
      "d": 600,
      "v": 72
    },
    {
      "midi": 60,
      "hit": false,
      "t": 28800,
      "d": 600,
      "v": 72
    },
    {
      "midi": 64,
      "hit": false,
      "t": 28800,
      "d": 600,
      "v": 72
    },
    {
      "midi": 76,
      "hit": false,
      "t": 29400,
      "d": 900,
      "v": 90
    },
    {
      "midi": 57,
      "hit": false,
      "t": 29400,
      "d": 600,
      "v": 78
    },
    {
      "midi": 60,
      "hit": false,
      "t": 29400,
      "d": 600,
      "v": 78
    },
    {
      "midi": 64,
      "hit": false,
      "t": 29400,
      "d": 600,
      "v": 78
    },
    {
      "midi": 57,
      "hit": false,
      "t": 30000,
      "d": 600,
      "v": 74
    },
    {
      "midi": 62,
      "hit": false,
      "t": 30000,
      "d": 600,
      "v": 74
    },
    {
      "midi": 64,
      "hit": false,
      "t": 30000,
      "d": 600,
      "v": 74
    },
    {
      "midi": 71,
      "hit": false,
      "t": 30300,
      "d": 300,
      "v": 63
    },
    {
      "midi": 71,
      "hit": false,
      "t": 30600,
      "d": 300,
      "v": 74
    },
    {
      "midi": 57,
      "hit": false,
      "t": 30600,
      "d": 600,
      "v": 73
    },
    {
      "midi": 62,
      "hit": false,
      "t": 30600,
      "d": 600,
      "v": 73
    },
    {
      "midi": 64,
      "hit": false,
      "t": 30600,
      "d": 600,
      "v": 73
    },
    {
      "midi": 72,
      "hit": false,
      "t": 30900,
      "d": 300,
      "v": 80
    },
    {
      "midi": 69,
      "hit": false,
      "t": 31200,
      "d": 1200,
      "v": 69
    },
    {
      "midi": 57,
      "hit": false,
      "t": 31200,
      "d": 600,
      "v": 80
    },
    {
      "midi": 60,
      "hit": false,
      "t": 31200,
      "d": 600,
      "v": 80
    },
    {
      "midi": 64,
      "hit": false,
      "t": 31200,
      "d": 600,
      "v": 80
    },
    {
      "midi": 57,
      "hit": false,
      "t": 31800,
      "d": 600,
      "v": 72
    },
    {
      "midi": 60,
      "hit": false,
      "t": 31800,
      "d": 600,
      "v": 72
    },
    {
      "midi": 64,
      "hit": false,
      "t": 31800,
      "d": 600,
      "v": 72
    },
    {
      "midi": 69,
      "hit": false,
      "t": 32400,
      "d": 150,
      "v": 77
    },
    {
      "midi": 57,
      "hit": false,
      "t": 32400,
      "d": 600,
      "v": 77
    },
    {
      "midi": 60,
      "hit": false,
      "t": 32400,
      "d": 600,
      "v": 77
    },
    {
      "midi": 64,
      "hit": false,
      "t": 32400,
      "d": 600,
      "v": 77
    },
    {
      "midi": 71,
      "hit": false,
      "t": 32550,
      "d": 150,
      "v": 80
    },
    {
      "midi": 72,
      "hit": false,
      "t": 32700,
      "d": 150,
      "v": 81
    },
    {
      "midi": 71,
      "hit": false,
      "t": 32850,
      "d": 150,
      "v": 72
    },
    {
      "midi": 69,
      "hit": false,
      "t": 33000,
      "d": 300,
      "v": 75
    },
    {
      "midi": 57,
      "hit": false,
      "t": 33000,
      "d": 600,
      "v": 75
    },
    {
      "midi": 60,
      "hit": false,
      "t": 33000,
      "d": 600,
      "v": 75
    },
    {
      "midi": 64,
      "hit": false,
      "t": 33000,
      "d": 600,
      "v": 75
    },
    {
      "midi": 74,
      "hit": false,
      "t": 33600,
      "d": 150,
      "v": 68
    },
    {
      "midi": 57,
      "hit": false,
      "t": 33600,
      "d": 600,
      "v": 78
    },
    {
      "midi": 62,
      "hit": false,
      "t": 33600,
      "d": 600,
      "v": 78
    },
    {
      "midi": 65,
      "hit": false,
      "t": 33600,
      "d": 600,
      "v": 78
    },
    {
      "midi": 76,
      "hit": false,
      "t": 33750,
      "d": 150,
      "v": 80
    },
    {
      "midi": 77,
      "hit": false,
      "t": 33900,
      "d": 150,
      "v": 79
    },
    {
      "midi": 79,
      "hit": false,
      "t": 34050,
      "d": 150,
      "v": 83
    },
    {
      "midi": 81,
      "hit": false,
      "t": 34200,
      "d": 300,
      "v": 87
    },
    {
      "midi": 57,
      "hit": false,
      "t": 34200,
      "d": 600,
      "v": 75
    },
    {
      "midi": 62,
      "hit": false,
      "t": 34200,
      "d": 600,
      "v": 75
    },
    {
      "midi": 65,
      "hit": false,
      "t": 34200,
      "d": 600,
      "v": 75
    },
    {
      "midi": 81,
      "hit": false,
      "t": 34800,
      "d": 150,
      "v": 70
    },
    {
      "midi": 57,
      "hit": false,
      "t": 34800,
      "d": 600,
      "v": 70
    },
    {
      "midi": 60,
      "hit": false,
      "t": 34800,
      "d": 600,
      "v": 70
    },
    {
      "midi": 64,
      "hit": false,
      "t": 34800,
      "d": 600,
      "v": 70
    },
    {
      "midi": 83,
      "hit": false,
      "t": 34950,
      "d": 150,
      "v": 81
    },
    {
      "midi": 84,
      "hit": false,
      "t": 35100,
      "d": 150,
      "v": 75
    },
    {
      "midi": 83,
      "hit": false,
      "t": 35250,
      "d": 150,
      "v": 78
    },
    {
      "midi": 81,
      "hit": false,
      "t": 35400,
      "d": 300,
      "v": 76
    },
    {
      "midi": 57,
      "hit": false,
      "t": 35400,
      "d": 600,
      "v": 73
    },
    {
      "midi": 60,
      "hit": false,
      "t": 35400,
      "d": 600,
      "v": 73
    },
    {
      "midi": 64,
      "hit": false,
      "t": 35400,
      "d": 600,
      "v": 73
    },
    {
      "midi": 86,
      "hit": false,
      "t": 36000,
      "d": 150,
      "v": 71
    },
    {
      "midi": 57,
      "hit": false,
      "t": 36000,
      "d": 600,
      "v": 75
    },
    {
      "midi": 62,
      "hit": false,
      "t": 36000,
      "d": 600,
      "v": 75
    },
    {
      "midi": 65,
      "hit": false,
      "t": 36000,
      "d": 600,
      "v": 75
    },
    {
      "midi": 88,
      "hit": false,
      "t": 36150,
      "d": 150,
      "v": 78
    },
    {
      "midi": 89,
      "hit": false,
      "t": 36300,
      "d": 150,
      "v": 77
    },
    {
      "midi": 91,
      "hit": false,
      "t": 36450,
      "d": 150,
      "v": 78
    },
    {
      "midi": 93,
      "hit": false,
      "t": 36600,
      "d": 300,
      "v": 81
    },
    {
      "midi": 57,
      "hit": false,
      "t": 36600,
      "d": 600,
      "v": 74
    },
    {
      "midi": 62,
      "hit": false,
      "t": 36600,
      "d": 600,
      "v": 74
    },
    {
      "midi": 65,
      "hit": false,
      "t": 36600,
      "d": 600,
      "v": 74
    },
    {
      "midi": 64,
      "hit": false,
      "t": 37200,
      "d": 150,
      "v": 69
    },
    {
      "midi": 52,
      "hit": false,
      "t": 37200,
      "d": 150,
      "v": 65
    },
    {
      "midi": 62,
      "hit": false,
      "t": 37350,
      "d": 150,
      "v": 72
    },
    {
      "midi": 50,
      "hit": false,
      "t": 37350,
      "d": 150,
      "v": 72
    },
    {
      "midi": 60,
      "hit": false,
      "t": 37500,
      "d": 150,
      "v": 71
    },
    {
      "midi": 48,
      "hit": false,
      "t": 37500,
      "d": 150,
      "v": 69
    },
    {
      "midi": 59,
      "hit": false,
      "t": 37650,
      "d": 150,
      "v": 71
    },
    {
      "midi": 47,
      "hit": false,
      "t": 37650,
      "d": 150,
      "v": 77
    },
    {
      "midi": 57,
      "hit": false,
      "t": 37800,
      "d": 300,
      "v": 72
    },
    {
      "midi": 45,
      "hit": false,
      "t": 37800,
      "d": 300,
      "v": 71
    },
    {
      "midi": 72,
      "hit": false,
      "t": 38400,
      "d": 1200,
      "v": 72
    },
    {
      "midi": 81,
      "hit": false,
      "t": 38400,
      "d": 1200,
      "v": 72
    },
    {
      "midi": 57,
      "hit": false,
      "t": 38400,
      "d": 1200,
      "v": 68
    },
    {
      "midi": 64,
      "hit": false,
      "t": 38400,
      "d": 1200,
      "v": 68
    }
  ]
}