{
  "jsonPath": "Unknown/Unknown/Friedrich Burgmüller_/gracefulness.json",
  "path": "Unknown\\Unknown\\Friedrich Burgmüller_\\Gracefulness.mid",
  "name": "Gracefulness",
  "difficulty": "Advanced",
  "bpm": 100,
  "notes": [
    {
      "midi": 72,
      "hit": false,
      "t": 0,
      "d": 300,
      "v": 70
    },
    {
      "midi": 53,
      "hit": false,
      "t": 0,
      "d": 1200,
      "v": 70
    },
    {
      "midi": 57,
      "hit": false,
      "t": 0,
      "d": 1200,
      "v": 70
    },
    {
      "midi": 60,
      "hit": false,
      "t": 0,
      "d": 1200,
      "v": 70
    },
    {
      "midi": 74,
      "hit": false,
      "t": 300,
      "d": 75,
      "v": 80
    },
    {
      "midi": 72,
      "hit": false,
      "t": 375,
      "d": 75,
      "v": 73
    },
    {
      "midi": 71,
      "hit": false,
      "t": 450,
      "d": 75,
      "v": 70
    },
    {
      "midi": 72,
      "hit": false,
      "t": 525,
      "d": 75,
      "v": 77
    },
    {
      "midi": 77,
      "hit": false,
      "t": 600,
      "d": 300,
      "v": 85
    },
    {
      "midi": 79,
      "hit": false,
      "t": 900,
      "d": 75,
      "v": 81
    },
    {
      "midi": 77,
      "hit": false,
      "t": 975,
      "d": 75,
      "v": 77
    },
    {
      "midi": 76,
      "hit": false,
      "t": 1050,
      "d": 75,
      "v": 70
    },
    {
      "midi": 77,
      "hit": false,
      "t": 1125,
      "d": 75,
      "v": 77
    },
    {
      "midi": 81,
      "hit": false,
      "t": 1200,
      "d": 300,
      "v": 86
    },
    {
      "midi": 53,
      "hit": false,
      "t": 1200,
      "d": 300,
      "v": 72
    },
    {
      "midi": 57,
      "hit": false,
      "t": 1200,
      "d": 300,
      "v": 72
    },
    {
      "midi": 60,
      "hit": false,
      "t": 1200,
      "d": 300,
      "v": 72
    },
    {
      "midi": 53,
      "hit": false,
      "t": 1500,
      "d": 300,
      "v": 72
    },
    {
      "midi": 57,
      "hit": false,
      "t": 1500,
      "d": 300,
      "v": 72
    },
    {
      "midi": 60,
      "hit": false,
      "t": 1500,
      "d": 300,
      "v": 72
    },
    {
      "midi": 72,
      "hit": false,
      "t": 1800,
      "d": 300,
      "v": 64
    },
    {
      "midi": 52,
      "hit": false,
      "t": 1800,
      "d": 1200,
      "v": 75
    },
    {
      "midi": 58,
      "hit": false,
      "t": 1800,
      "d": 1200,
      "v": 75
    },
    {
      "midi": 60,
      "hit": false,
      "t": 1800,
      "d": 1200,
      "v": 75
    },
    {
      "midi": 74,
      "hit": false,
      "t": 2100,
      "d": 75,
      "v": 77
    },
    {
      "midi": 72,
      "hit": false,
      "t": 2175,
      "d": 75,
      "v": 69
    },
    {
      "midi": 71,
      "hit": false,
      "t": 2250,
      "d": 75,
      "v": 71
    },
    {
      "midi": 72,
      "hit": false,
      "t": 2325,
      "d": 75,
      "v": 82
    },
    {
      "midi": 79,
      "hit": false,
      "t": 2400,
      "d": 300,
      "v": 91
    },
    {
      "midi": 81,
      "hit": false,
      "t": 2700,
      "d": 75,
      "v": 82
    },
    {
      "midi": 79,
      "hit": false,
      "t": 2775,
      "d": 75,
      "v": 68
    },
    {
      "midi": 78,
      "hit": false,
      "t": 2850,
      "d": 75,
      "v": 72
    },
    {
      "midi": 79,
      "hit": false,
      "t": 2925,
      "d": 75,
      "v": 79
    },
    {
      "midi": 82,
      "hit": false,
      "t": 3000,
      "d": 300,
      "v": 81
    },
    {
      "midi": 52,
      "hit": false,
      "t": 3000,
      "d": 300,
      "v": 76
    },
    {
      "midi": 58,
      "hit": false,
      "t": 3000,
      "d": 300,
      "v": 76
    },
    {
      "midi": 60,
      "hit": false,
      "t": 3000,
      "d": 300,
      "v": 76
    },
    {
      "midi": 52,
      "hit": false,
      "t": 3300,
      "d": 300,
      "v": 76
    },
    {
      "midi": 58,
      "hit": false,
      "t": 3300,
      "d": 300,
      "v": 76
    },
    {
      "midi": 60,
      "hit": false,
      "t": 3300,
      "d": 300,
      "v": 76
    },
    {
      "midi": 76,
      "hit": false,
      "t": 3600,
      "d": 300,
      "v": 69
    },
    {
      "midi": 55,
      "hit": false,
      "t": 3600,
      "d": 1200,
      "v": 77
    },
    {
      "midi": 58,
      "hit": false,
      "t": 3600,
      "d": 1200,
      "v": 77
    },
    {
      "midi": 60,
      "hit": false,
      "t": 3600,
      "d": 1200,
      "v": 77
    },
    {
      "midi": 77,
      "hit": false,
      "t": 3900,
      "d": 75,
      "v": 78
    },
    {
      "midi": 76,
      "hit": false,
      "t": 3975,
      "d": 75,
      "v": 76
    },
    {
      "midi": 75,
      "hit": false,
      "t": 4050,
      "d": 75,
      "v": 75
    },
    {
      "midi": 76,
      "hit": false,
      "t": 4125,
      "d": 75,
      "v": 75
    },
    {
      "midi": 79,
      "hit": false,
      "t": 4200,
      "d": 300,
      "v": 88
    },
    {
      "midi": 81,
      "hit": false,
      "t": 4500,
      "d": 75,
      "v": 82
    },
    {
      "midi": 79,
      "hit": false,
      "t": 4575,
      "d": 75,
      "v": 73
    },
    {
      "midi": 78,
      "hit": false,
      "t": 4650,
      "d": 75,
      "v": 71
    },
    {
      "midi": 79,
      "hit": false,
      "t": 4725,
      "d": 75,
      "v": 79
    },
    {
      "midi": 84,
      "hit": false,
      "t": 4800,
      "d": 300,
      "v": 87
    },
    {
      "midi": 55,
      "hit": false,
      "t": 4800,
      "d": 300,
      "v": 79
    },
    {
      "midi": 58,
      "hit": false,
      "t": 4800,
      "d": 300,
      "v": 79
    },
    {
      "midi": 60,
      "hit": false,
      "t": 4800,
      "d": 300,
      "v": 79
    },
    {
      "midi": 55,
      "hit": false,
      "t": 5100,
      "d": 300,
      "v": 79
    },
    {
      "midi": 58,
      "hit": false,
      "t": 5100,
      "d": 300,
      "v": 79
    },
    {
      "midi": 60,
      "hit": false,
      "t": 5100,
      "d": 300,
      "v": 79
    },
    {
      "midi": 84,
      "hit": false,
      "t": 5400,
      "d": 300,
      "v": 67
    },
    {
      "midi": 53,
      "hit": false,
      "t": 5400,
      "d": 1200,
      "v": 74
    },
    {
      "midi": 57,
      "hit": false,
      "t": 5400,
      "d": 1200,
      "v": 74
    },
    {
      "midi": 60,
      "hit": false,
      "t": 5400,
      "d": 1200,
      "v": 74
    },
    {
      "midi": 86,
      "hit": false,
      "t": 5700,
      "d": 75,
      "v": 79
    },
    {
      "midi": 88,
      "hit": false,
      "t": 5775,
      "d": 75,
      "v": 83
    },
    {
      "midi": 89,
      "hit": false,
      "t": 5850,
      "d": 75,
      "v": 80
    },
    {
      "midi": 91,
      "hit": false,
      "t": 5925,
      "d": 75,
      "v": 80
    },
    {
      "midi": 93,
      "hit": false,
      "t": 6000,
      "d": 300,
      "v": 83
    },
    {
      "midi": 91,
      "hit": false,
      "t": 6300,
      "d": 75,
      "v": 69
    },
    {
      "midi": 89,
      "hit": false,
      "t": 6375,
      "d": 75,
      "v": 69
    },
    {
      "midi": 88,
      "hit": false,
      "t": 6450,
      "d": 75,
      "v": 74
    },
    {
      "midi": 86,
      "hit": false,
      "t": 6525,
      "d": 75,
      "v": 70
    },
    {
      "midi": 84,
      "hit": false,
      "t": 6600,
      "d": 300,
      "v": 73
    },
    {
      "midi": 53,
      "hit": false,
      "t": 6600,
      "d": 300,
      "v": 81
    },
    {
      "midi": 57,
      "hit": false,
      "t": 6600,
      "d": 300,
      "v": 81
    },
    {
      "midi": 60,
      "hit": false,
      "t": 6600,
      "d": 300,
      "v": 81
    },
    {
      "midi": 53,
      "hit": false,
      "t": 6900,
      "d": 300,
      "v": 81
    },
    {
      "midi": 57,
      "hit": false,
      "t": 6900,
      "d": 300,
      "v": 81
    },
    {
      "midi": 60,
      "hit": false,
      "t": 6900,
      "d": 300,
      "v": 81
    },
    {
      "midi": 84,
      "hit": false,
      "t": 7200,
      "d": 300,
      "v": 71
    },
    {
      "midi": 50,
      "hit": false,
      "t": 7200,
      "d": 1200,
      "v": 75
    },
    {
      "midi": 54,
      "hit": false,
      "t": 7200,
      "d": 1200,
      "v": 75
    },
    {
      "midi": 60,
      "hit": false,
      "t": 7200,
      "d": 1200,
      "v": 75
    },
    {
      "midi": 86,
      "hit": false,
      "t": 7500,
      "d": 75,
      "v": 78
    },
    {
      "midi": 84,
      "hit": false,
      "t": 7575,
      "d": 75,
      "v": 69
    },
    {
      "midi": 83,
      "hit": false,
      "t": 7650,
      "d": 75,
      "v": 72
    },
    {
      "midi": 84,
      "hit": false,
      "t": 7725,
      "d": 75,
      "v": 81
    },
    {
      "midi": 81,
      "hit": false,
      "t": 7800,
      "d": 300,
      "v": 68
    },
    {
      "midi": 82,
      "hit": false,
      "t": 8100,
      "d": 75,
      "v": 78
    },
    {
      "midi": 81,
      "hit": false,
      "t": 8175,
      "d": 75,
      "v": 72
    },
    {
      "midi": 80,
      "hit": false,
      "t": 8250,
      "d": 75,
      "v": 74
    },
    {
      "midi": 81,
      "hit": false,
      "t": 8325,
      "d": 75,
      "v": 77
    },
    {
      "midi": 74,
      "hit": false,
      "t": 8400,
      "d": 300,
      "v": 63
    },
    {
      "midi": 50,
      "hit": false,
      "t": 8400,
      "d": 300,
      "v": 80
    },
    {
      "midi": 54,
      "hit": false,
      "t": 8400,
      "d": 300,
      "v": 80
    },
    {
      "midi": 60,
      "hit": false,
      "t": 8400,
      "d": 300,
      "v": 80
    },
    {
      "midi": 50,
      "hit": false,
      "t": 8700,
      "d": 300,
      "v": 80
    },
    {
      "midi": 54,
      "hit": false,
      "t": 8700,
      "d": 300,
      "v": 80
    },
    {
      "midi": 60,
      "hit": false,
      "t": 8700,
      "d": 300,
      "v": 80
    },
    {
      "midi": 82,
      "hit": false,
      "t": 9000,
      "d": 300,
      "v": 67
    },
    {
      "midi": 55,
      "hit": false,
      "t": 9000,
      "d": 1200,
      "v": 71
    },
    {
      "midi": 58,
      "hit": false,
      "t": 9000,
      "d": 1200,
      "v": 71
    },
    {
      "midi": 84,
      "hit": false,
      "t": 9300,
      "d": 75,
      "v": 78
    },
    {
      "midi": 82,
      "hit": false,
      "t": 9375,
      "d": 75,
      "v": 68
    },
    {
      "midi": 81,
      "hit": false,
      "t": 9450,
      "d": 75,
      "v": 72
    },
    {
      "midi": 82,
      "hit": false,
      "t": 9525,
      "d": 75,
      "v": 80
    },
    {
      "midi": 79,
      "hit": false,
      "t": 9600,
      "d": 300,
      "v": 63
    },
    {
      "midi": 81,
      "hit": false,
      "t": 9900,
      "d": 75,
      "v": 78
    },
    {
      "midi": 79,
      "hit": false,
      "t": 9975,
      "d": 75,
      "v": 71
    },
    {
      "midi": 78,
      "hit": false,
      "t": 10050,
      "d": 75,
      "v": 75
    },
    {
      "midi": 79,
      "hit": false,
      "t": 10125,
      "d": 75,
      "v": 84
    },
    {
      "midi": 74,
      "hit": false,
      "t": 10200,
      "d": 300,
      "v": 58
    },
    {
      "midi": 55,
      "hit": false,
      "t": 10200,
      "d": 300,
      "v": 75
    },
    {
      "midi": 58,
      "hit": false,
      "t": 10200,
      "d": 300,
      "v": 75
    },
    {
      "midi": 55,
      "hit": false,
      "t": 10500,
      "d": 300,
      "v": 75
    },
    {
      "midi": 58,
      "hit": false,
      "t": 10500,
      "d": 300,
      "v": 75
    },
    {
      "midi": 76,
      "hit": false,
      "t": 10800,
      "d": 300,
      "v": 65
    },
    {
      "midi": 48,
      "hit": false,
      "t": 10800,
      "d": 300,
      "v": 78
    },
    {
      "midi": 55,
      "hit": false,
      "t": 10800,
      "d": 300,
      "v": 78
    },
    {
      "midi": 58,
      "hit": false,
      "t": 10800,
      "d": 300,
      "v": 78
    },
    {
      "midi": 77,
      "hit": false,
      "t": 11100,
      "d": 75,
      "v": 81
    },
    {
      "midi": 76,
      "hit": false,
      "t": 11175,
      "d": 75,
      "v": 72
    },
    {
      "midi": 75,
      "hit": false,
      "t": 11250,
      "d": 75,
      "v": 71
    },
    {
      "midi": 76,
      "hit": false,
      "t": 11325,
      "d": 75,
      "v": 79
    },
    {
      "midi": 79,
      "hit": false,
      "t": 11400,
      "d": 300,
      "v": 84
    },
    {
      "midi": 48,
      "hit": false,
      "t": 11400,
      "d": 300,
      "v": 67
    },
    {
      "midi": 55,
      "hit": false,
      "t": 11400,
      "d": 300,
      "v": 67
    },
    {
      "midi": 58,
      "hit": false,
      "t": 11400,
      "d": 300,
      "v": 67
    },
    {
      "midi": 81,
      "hit": false,
      "t": 11700,
      "d": 75,
      "v": 83
    },
    {
      "midi": 79,
      "hit": false,
      "t": 11775,
      "d": 75,
      "v": 74
    },
    {
      "midi": 78,
      "hit": false,
      "t": 11850,
      "d": 75,
      "v": 73
    },
    {
      "midi": 79,
      "hit": false,
      "t": 11925,
      "d": 75,
      "v": 83
    },
    {
      "midi": 84,
      "hit": false,
      "t": 12000,
      "d": 300,
      "v": 84
    },
    {
      "midi": 48,
      "hit": false,
      "t": 12000,
      "d": 300,
      "v": 71
    },
    {
      "midi": 55,
      "hit": false,
      "t": 12000,
      "d": 300,
      "v": 71
    },
    {
      "midi": 58,
      "hit": false,
      "t": 12000,
      "d": 300,
      "v": 71
    },
    {
      "midi": 86,
      "hit": false,
      "t": 12300,
      "d": 75,
      "v": 77
    },
    {
      "midi": 84,
      "hit": false,
      "t": 12375,
      "d": 75,
      "v": 71
    },
    {
      "midi": 83,
      "hit": false,
      "t": 12450,
      "d": 75,
      "v": 70
    },
    {
      "midi": 84,
      "hit": false,
      "t": 12525,
      "d": 75,
      "v": 75
    },
    {
      "midi": 89,
      "hit": false,
      "t": 12600,
      "d": 300,
      "v": 60
    },
    {
      "midi": 53,
      "hit": false,
      "t": 12600,
      "d": 1200,
      "v": 63
    },
    {
      "midi": 57,
      "hit": false,
      "t": 12600,
      "d": 1200,
      "v": 63
    },
    {
      "midi": 91,
      "hit": false,
      "t": 12900,
      "d": 75,
      "v": 79
    },
    {
      "midi": 89,
      "hit": false,
      "t": 12975,
      "d": 75,
      "v": 70
    },
    {
      "midi": 88,
      "hit": false,
      "t": 13050,
      "d": 75,
      "v": 73
    },
    {
      "midi": 89,
      "hit": false,
      "t": 13125,
      "d": 75,
      "v": 81
    },
    {
      "midi": 96,
      "hit": false,
      "t": 13200,
      "d": 300,
      "v": 87
    },
    {
      "midi": 98,
      "hit": false,
      "t": 13500,
      "d": 75,
      "v": 81
    },
    {
      "midi": 96,
      "hit": false,
      "t": 13575,
      "d": 75,
      "v": 77
    },
    {
      "midi": 95,
      "hit": false,
      "t": 13650,
      "d": 75,
      "v": 71
    },
    {
      "midi": 96,
      "hit": false,
      "t": 13725,
      "d": 75,
      "v": 81
    },
    {
      "midi": 101,
      "hit": false,
      "t": 13800,
      "d": 300,
      "v": 88
    },
    {
      "midi": 41,
      "hit": false,
      "t": 13800,
      "d": 300,
      "v": 68
    },
    {
      "midi": 67,
      "hit": false,
      "t": 14400,
      "d": 900,
      "v": 69
    },
    {
      "midi": 72,
      "hit": false,
      "t": 14400,
      "d": 900,
      "v": 69
    },
    {
      "midi": 76,
      "hit": false,
      "t": 14400,
      "d": 900,
      "v": 69
    },
    {
      "midi": 60,
      "hit": false,
      "t": 14400,
      "d": 300,
      "v": 67
    },
    {
      "midi": 62,
      "hit": false,
      "t": 14700,
      "d": 75,
      "v": 80
    },
    {
      "midi": 60,
      "hit": false,
      "t": 14775,
      "d": 75,
      "v": 74
    },
    {
      "midi": 59,
      "hit": false,
      "t": 14850,
      "d": 75,
      "v": 73
    },
    {
      "midi": 60,
      "hit": false,
      "t": 14925,
      "d": 75,
      "v": 78
    },
    {
      "midi": 55,
      "hit": false,
      "t": 15000,
      "d": 1200,
      "v": 74
    },
    {
      "midi": 67,
      "hit": false,
      "t": 15300,
      "d": 300,
      "v": 75
    },
    {
      "midi": 72,
      "hit": false,
      "t": 15300,
      "d": 300,
      "v": 75
    },
    {
      "midi": 76,
      "hit": false,
      "t": 15300,
      "d": 300,
      "v": 75
    },
    {
      "midi": 67,
      "hit": false,
      "t": 15600,
      "d": 300,
      "v": 78
    },
    {
      "midi": 71,
      "hit": false,
      "t": 15600,
      "d": 300,
      "v": 78
    },
    {
      "midi": 74,
      "hit": false,
      "t": 15600,
      "d": 300,
      "v": 78
    },
    {
      "midi": 67,
      "hit": false,
      "t": 15900,
      "d": 300,
      "v": 78
    },
    {
      "midi": 72,
      "hit": false,
      "t": 15900,
      "d": 300,
      "v": 78
    },
    {
      "midi": 76,
      "hit": false,
      "t": 15900,
      "d": 300,
      "v": 78
    },
    {
      "midi": 67,
      "hit": false,
      "t": 16200,
      "d": 900,
      "v": 80
    },
    {
      "midi": 71,
      "hit": false,
      "t": 16200,
      "d": 900,
      "v": 80
    },
    {
      "midi": 77,
      "hit": false,
      "t": 16200,
      "d": 900,
      "v": 80
    },
    {
      "midi": 62,
      "hit": false,
      "t": 16200,
      "d": 300,
      "v": 90
    },
    {
      "midi": 64,
      "hit": false,
      "t": 16500,
      "d": 75,
      "v": 82
    },
    {
      "midi": 62,
      "hit": false,
      "t": 16575,
      "d": 75,
      "v": 74
    },
    {
      "midi": 61,
      "hit": false,
      "t": 16650,
      "d": 75,
      "v": 77
    },
    {
      "midi": 62,
      "hit": false,
      "t": 16725,
      "d": 75,
      "v": 81
    },
    {
      "midi": 55,
      "hit": false,
      "t": 16800,
      "d": 1200,
      "v": 71
    },
    {
      "midi": 67,
      "hit": false,
      "t": 17100,
      "d": 300,
      "v": 78
    },
    {
      "midi": 71,
      "hit": false,
      "t": 17100,
      "d": 300,
      "v": 78
    },
    {
      "midi": 77,
      "hit": false,
      "t": 17100,
      "d": 300,
      "v": 78
    },
    {
      "midi": 67,
      "hit": false,
      "t": 17400,
      "d": 300,
      "v": 76
    },
    {
      "midi": 71,
      "hit": false,
      "t": 17400,
      "d": 300,
      "v": 76
    },
    {
      "midi": 77,
      "hit": false,
      "t": 17400,
      "d": 300,
      "v": 76
    },
    {
      "midi": 67,
      "hit": false,
      "t": 17700,
      "d": 300,
      "v": 73
    },
    {
      "midi": 71,
      "hit": false,
      "t": 17700,
      "d": 300,
      "v": 73
    },
    {
      "midi": 76,
      "hit": false,
      "t": 17700,
      "d": 300,
      "v": 73
    },
    {
      "midi": 67,
      "hit": false,
      "t": 18000,
      "d": 300,
      "v": 76
    },
    {
      "midi": 71,
      "hit": false,
      "t": 18000,
      "d": 300,
      "v": 76
    },
    {
      "midi": 76,
      "hit": false,
      "t": 18000,
      "d": 300,
      "v": 76
    },
    {
      "midi": 55,
      "hit": false,
      "t": 18000,
      "d": 300,
      "v": 95
    },
    {
      "midi": 65,
      "hit": false,
      "t": 18000,
      "d": 300,
      "v": 95
    },
    {
      "midi": 67,
      "hit": false,
      "t": 18300,
      "d": 300,
      "v": 69
    },
    {
      "midi": 71,
      "hit": false,
      "t": 18300,
      "d": 300,
      "v": 69
    },
    {
      "midi": 74,
      "hit": false,
      "t": 18300,
      "d": 300,
      "v": 69
    },
    {
      "midi": 55,
      "hit": false,
      "t": 18300,
      "d": 300,
      "v": 79
    },
    {
      "midi": 65,
      "hit": false,
      "t": 18300,
      "d": 300,
      "v": 79
    },
    {
      "midi": 67,
      "hit": false,
      "t": 18600,
      "d": 300,
      "v": 77
    },
    {
      "midi": 71,
      "hit": false,
      "t": 18600,
      "d": 300,
      "v": 77
    },
    {
      "midi": 76,
      "hit": false,
      "t": 18600,
      "d": 300,
      "v": 77
    },
    {
      "midi": 55,
      "hit": false,
      "t": 18600,
      "d": 300,
      "v": 81
    },
    {
      "midi": 65,
      "hit": false,
      "t": 18600,
      "d": 300,
      "v": 81
    },
    {
      "midi": 67,
      "hit": false,
      "t": 18900,
      "d": 300,
      "v": 70
    },
    {
      "midi": 71,
      "hit": false,
      "t": 18900,
      "d": 300,
      "v": 70
    },
    {
      "midi": 74,
      "hit": false,
      "t": 18900,
      "d": 300,
      "v": 70
    },
    {
      "midi": 55,
      "hit": false,
      "t": 18900,
      "d": 300,
      "v": 75
    },
    {
      "midi": 65,
      "hit": false,
      "t": 18900,
      "d": 300,
      "v": 75
    },
    {
      "midi": 67,
      "hit": false,
      "t": 19200,
      "d": 300,
      "v": 79
    },
    {
      "midi": 71,
      "hit": false,
      "t": 19200,
      "d": 300,
      "v": 79
    },
    {
      "midi": 76,
      "hit": false,
      "t": 19200,
      "d": 300,
      "v": 79
    },
    {
      "midi": 55,
      "hit": false,
      "t": 19200,
      "d": 300,
      "v": 76
    },
    {
      "midi": 65,
      "hit": false,
      "t": 19200,
      "d": 300,
      "v": 76
    },
    {
      "midi": 67,
      "hit": false,
      "t": 19500,
      "d": 300,
      "v": 75
    },
    {
      "midi": 71,
      "hit": false,
      "t": 19500,
      "d": 300,
      "v": 75
    },
    {
      "midi": 74,
      "hit": false,
      "t": 19500,
      "d": 300,
      "v": 75
    },
    {
      "midi": 55,
      "hit": false,
      "t": 19500,
      "d": 300,
      "v": 81
    },
    {
      "midi": 65,
      "hit": false,
      "t": 19500,
      "d": 300,
      "v": 81
    },
    {
      "midi": 67,
      "hit": false,
      "t": 19800,
      "d": 300,
      "v": 73
    },
    {
      "midi": 72,
      "hit": false,
      "t": 19800,
      "d": 300,
      "v": 73
    },
    {
      "midi": 60,
      "hit": false,
      "t": 19800,
      "d": 1200,
      "v": 65
    },
    {
      "midi": 64,
      "hit": false,
      "t": 19800,
      "d": 1200,
      "v": 65
    },
    {
      "midi": 74,
      "hit": false,
      "t": 20100,
      "d": 75,
      "v": 82
    },
    {
      "midi": 72,
      "hit": false,
      "t": 20175,
      "d": 75,
      "v": 69
    },
    {
      "midi": 71,
      "hit": false,
      "t": 20250,
      "d": 75,
      "v": 73
    },
    {
      "midi": 72,
      "hit": false,
      "t": 20325,
      "d": 75,
      "v": 81
    },
    {
      "midi": 76,
      "hit": false,
      "t": 20400,
      "d": 300,
      "v": 83
    },
    {
      "midi": 77,
      "hit": false,
      "t": 20700,
      "d": 75,
      "v": 81
    },
    {
      "midi": 76,
      "hit": false,
      "t": 20775,
      "d": 75,
      "v": 74
    },
    {
      "midi": 75,
      "hit": false,
      "t": 20850,
      "d": 75,
      "v": 77
    },
    {
      "midi": 76,
      "hit": false,
      "t": 20925,
      "d": 75,
      "v": 78
    },
    {
      "midi": 79,
      "hit": false,
      "t": 21000,
      "d": 300,
      "v": 81
    },
    {
      "midi": 55,
      "hit": false,
      "t": 21300,
      "d": 300,
      "v": 67
    },
    {
      "midi": 67,
      "hit": false,
      "t": 21600,
      "d": 900,
      "v": 72
    },
    {
      "midi": 72,
      "hit": false,
      "t": 21600,
      "d": 900,
      "v": 72
    },
    {
      "midi": 76,
      "hit": false,
      "t": 21600,
      "d": 900,
      "v": 72
    },
    {
      "midi": 60,
      "hit": false,
      "t": 21600,
      "d": 300,
      "v": 84
    },
    {
      "midi": 62,
      "hit": false,
      "t": 21900,
      "d": 75,
      "v": 85
    },
    {
      "midi": 60,
      "hit": false,
      "t": 21975,
      "d": 75,
      "v": 72
    },
    {
      "midi": 59,
      "hit": false,
      "t": 22050,
      "d": 75,
      "v": 76
    },
    {
      "midi": 60,
      "hit": false,
      "t": 22125,
      "d": 75,
      "v": 82
    },
    {
      "midi": 55,
      "hit": false,
      "t": 22200,
      "d": 1200,
      "v": 71
    },
    {
      "midi": 67,
      "hit": false,
      "t": 22500,
      "d": 300,
      "v": 76
    },
    {
      "midi": 72,
      "hit": false,
      "t": 22500,
      "d": 300,
      "v": 76
    },
    {
      "midi": 76,
      "hit": false,
      "t": 22500,
      "d": 300,
      "v": 76
    },
    {
      "midi": 67,
      "hit": false,
      "t": 22800,
      "d": 300,
      "v": 67
    },
    {
      "midi": 71,
      "hit": false,
      "t": 22800,
      "d": 300,
      "v": 67
    },
    {
      "midi": 74,
      "hit": false,
      "t": 22800,
      "d": 300,
      "v": 67
    },
    {
      "midi": 67,
      "hit": false,
      "t": 23100,
      "d": 300,
      "v": 79
    },
    {
      "midi": 72,
      "hit": false,
      "t": 23100,
      "d": 300,
      "v": 79
    },
    {
      "midi": 76,
      "hit": false,
      "t": 23100,
      "d": 300,
      "v": 79
    },
    {
      "midi": 67,
      "hit": false,
      "t": 23400,
      "d": 900,
      "v": 84
    },
    {
      "midi": 71,
      "hit": false,
      "t": 23400,
      "d": 900,
      "v": 84
    },
    {
      "midi": 77,
      "hit": false,
      "t": 23400,
      "d": 900,
      "v": 84
    },
    {
      "midi": 62,
      "hit": false,
      "t": 23400,
      "d": 300,
      "v": 90
    },
    {
      "midi": 64,
      "hit": false,
      "t": 23700,
      "d": 75,
      "v": 83
    },
    {
      "midi": 62,
      "hit": false,
      "t": 23775,
      "d": 75,
      "v": 73
    },
    {
      "midi": 61,
      "hit": false,
      "t": 23850,
      "d": 75,
      "v": 70
    },
    {
      "midi": 62,
      "hit": false,
      "t": 23925,
      "d": 75,
      "v": 78
    },
    {
      "midi": 55,
      "hit": false,
      "t": 24000,
      "d": 1200,
      "v": 69
    },
    {
      "midi": 67,
      "hit": false,
      "t": 24300,
      "d": 300,
      "v": 76
    },
    {
      "midi": 71,
      "hit": false,
      "t": 24300,
      "d": 300,
      "v": 76
    },
    {
      "midi": 77,
      "hit": false,
      "t": 24300,
      "d": 300,
      "v": 76
    },
    {
      "midi": 67,
      "hit": false,
      "t": 24600,
      "d": 300,
      "v": 78
    },
    {
      "midi": 71,
      "hit": false,
      "t": 24600,
      "d": 300,
      "v": 78
    },
    {
      "midi": 77,
      "hit": false,
      "t": 24600,
      "d": 300,
      "v": 78
    },
    {
      "midi": 67,
      "hit": false,
      "t": 24900,
      "d": 300,
      "v": 75
    },
    {
      "midi": 71,
      "hit": false,
      "t": 24900,
      "d": 300,
      "v": 75
    },
    {
      "midi": 76,
      "hit": false,
      "t": 24900,
      "d": 300,
      "v": 75
    },
    {
      "midi": 67,
      "hit": false,
      "t": 25200,
      "d": 300,
      "v": 72
    },
    {
      "midi": 71,
      "hit": false,
      "t": 25200,
      "d": 300,
      "v": 72
    },
    {
      "midi": 76,
      "hit": false,
      "t": 25200,
      "d": 300,
      "v": 72
    },
    {
      "midi": 55,
      "hit": false,
      "t": 25200,
      "d": 300,
      "v": 91
    },
    {
      "midi": 65,
      "hit": false,
      "t": 25200,
      "d": 300,
      "v": 91
    },
    {
      "midi": 67,
      "hit": false,
      "t": 25500,
      "d": 300,
      "v": 68
    },
    {
      "midi": 71,
      "hit": false,
      "t": 25500,
      "d": 300,
      "v": 68
    },
    {
      "midi": 74,
      "hit": false,
      "t": 25500,
      "d": 300,
      "v": 68
    },
    {
      "midi": 55,
      "hit": false,
      "t": 25500,
      "d": 300,
      "v": 85
    },
    {
      "midi": 65,
      "hit": false,
      "t": 25500,
      "d": 300,
      "v": 85
    },
    {
      "midi": 67,
      "hit": false,
      "t": 25800,
      "d": 300,
      "v": 77
    },
    {
      "midi": 71,
      "hit": false,
      "t": 25800,
      "d": 300,
      "v": 77
    },
    {
      "midi": 76,
      "hit": false,
      "t": 25800,
      "d": 300,
      "v": 77
    },
    {
      "midi": 55,
      "hit": false,
      "t": 25800,
      "d": 300,
      "v": 77
    },
    {
      "midi": 65,
      "hit": false,
      "t": 25800,
      "d": 300,
      "v": 77
    },
    {
      "midi": 67,
      "hit": false,
      "t": 26100,
      "d": 300,
      "v": 66
    },
    {
      "midi": 71,
      "hit": false,
      "t": 26100,
      "d": 300,
      "v": 66
    },
    {
      "midi": 74,
      "hit": false,
      "t": 26100,
      "d": 300,
      "v": 66
    },
    {
      "midi": 55,
      "hit": false,
      "t": 26100,
      "d": 300,
      "v": 76
    },
    {
      "midi": 65,
      "hit": false,
      "t": 26100,
      "d": 300,
      "v": 76
    },
    {
      "midi": 67,
      "hit": false,
      "t": 26400,
      "d": 300,
      "v": 81
    },
    {
      "midi": 71,
      "hit": false,
      "t": 26400,
      "d": 300,
      "v": 81
    },
    {
      "midi": 76,
      "hit": false,
      "t": 26400,
      "d": 300,
      "v": 81
    },
    {
      "midi": 55,
      "hit": false,
      "t": 26400,
      "d": 300,
      "v": 76
    },
    {
      "midi": 65,
      "hit": false,
      "t": 26400,
      "d": 300,
      "v": 76
    },
    {
      "midi": 67,
      "hit": false,
      "t": 26700,
      "d": 300,
      "v": 74
    },
    {
      "midi": 71,
      "hit": false,
      "t": 26700,
      "d": 300,
      "v": 74
    },
    {
      "midi": 74,
      "hit": false,
      "t": 26700,
      "d": 300,
      "v": 74
    },
    {
      "midi": 55,
      "hit": false,
      "t": 26700,
      "d": 300,
      "v": 81
    },
    {
      "midi": 65,
      "hit": false,
      "t": 26700,
      "d": 300,
      "v": 81
    },
    {
      "midi": 67,
      "hit": false,
      "t": 27000,
      "d": 300,
      "v": 71
    },
    {
      "midi": 72,
      "hit": false,
      "t": 27000,
      "d": 300,
      "v": 71
    },
    {
      "midi": 60,
      "hit": false,
      "t": 27000,
      "d": 300,
      "v": 70
    },
    {
      "midi": 64,
      "hit": false,
      "t": 27000,
      "d": 300,
      "v": 70
    },
    {
      "midi": 72,
      "hit": false,
      "t": 27300,
      "d": 600,
      "v": 76
    },
    {
      "midi": 60,
      "hit": false,
      "t": 27300,
      "d": 300,
      "v": 70
    },
    {
      "midi": 59,
      "hit": false,
      "t": 27600,
      "d": 300,
      "v": 75
    },
    {
      "midi": 60,
      "hit": false,
      "t": 27600,
      "d": 300,
      "v": 75
    },
    {
      "midi": 72,
      "hit": false,
      "t": 27900,
      "d": 600,
      "v": 76
    },
    {
      "midi": 58,
      "hit": false,
      "t": 27900,
      "d": 300,
      "v": 75
    },
    {
      "midi": 60,
      "hit": false,
      "t": 27900,
      "d": 300,
      "v": 75
    },
    {
      "midi": 57,
      "hit": false,
      "t": 28200,
      "d": 300,
      "v": 78
    },
    {
      "midi": 60,
      "hit": false,
      "t": 28200,
      "d": 300,
      "v": 78
    },
    {
      "midi": 72,
      "hit": false,
      "t": 28500,
      "d": 300,
      "v": 79
    },
    {
      "midi": 55,
      "hit": false,
      "t": 28500,
      "d": 300,
      "v": 74
    },
    {
      "midi": 60,
      "hit": false,
      "t": 28500,
      "d": 300,
      "v": 74
    }
  ]
}