{
  "jsonPath": "Unknown/Unknown/Friedrich Burgmüller_/la-petite-reunion.json",
  "path": "Unknown\\Unknown\\Friedrich Burgmüller_\\La Petite Réunion.mid",
  "name": "La Petite Réunion",
  "difficulty": "Advanced",
  "bpm": 152.00032426735845,
  "notes": [
    {
      "midi": 55,
      "hit": false,
      "t": 0,
      "d": 394.736,
      "v": 127
    },
    {
      "midi": 57,
      "hit": false,
      "t": 394.736,
      "d": 197.36800000000005,
      "v": 127
    },
    {
      "midi": 59,
      "hit": false,
      "t": 592.104,
      "d": 197.36799999999994,
      "v": 127
    },
    {
      "midi": 60,
      "hit": false,
      "t": 789.472,
      "d": 394.7360000000001,
      "v": 127
    },
    {
      "midi": 52,
      "hit": false,
      "t": 1184.208,
      "d": 197.36799999999994,
      "v": 127
    },
    {
      "midi": 53,
      "hit": false,
      "t": 1381.576,
      "d": 197.36799999999994,
      "v": 127
    },
    {
      "midi": 74,
      "hit": false,
      "t": 1578.944,
      "d": 197.36799999999994,
      "v": 127
    },
    {
      "midi": 77,
      "hit": false,
      "t": 1578.944,
      "d": 197.36799999999994,
      "v": 127
    },
    {
      "midi": 55,
      "hit": false,
      "t": 1578.944,
      "d": 1578.944,
      "v": 127
    },
    {
      "midi": 72,
      "hit": false,
      "t": 1776.312,
      "d": 197.36799999999994,
      "v": 127
    },
    {
      "midi": 76,
      "hit": false,
      "t": 1776.312,
      "d": 197.36799999999994,
      "v": 127
    },
    {
      "midi": 71,
      "hit": false,
      "t": 1973.6799999999998,
      "d": 197.36799999999994,
      "v": 127
    },
    {
      "midi": 74,
      "hit": false,
      "t": 1973.6799999999998,
      "d": 197.36799999999994,
      "v": 127
    },
    {
      "midi": 69,
      "hit": false,
      "t": 2171.048,
      "d": 197.36799999999994,
      "v": 127
    },
    {
      "midi": 72,
      "hit": false,
      "t": 2171.048,
      "d": 197.36799999999994,
      "v": 127
    },
    {
      "midi": 67,
      "hit": false,
      "t": 2368.4159999999997,
      "d": 197.36799999999994,
      "v": 127
    },
    {
      "midi": 71,
      "hit": false,
      "t": 2368.4159999999997,
      "d": 197.36799999999994,
      "v": 127
    },
    {
      "midi": 65,
      "hit": false,
      "t": 2565.7839999999997,
      "d": 197.36799999999994,
      "v": 127
    },
    {
      "midi": 69,
      "hit": false,
      "t": 2565.7839999999997,
      "d": 197.36799999999994,
      "v": 127
    },
    {
      "midi": 64,
      "hit": false,
      "t": 2763.1519999999996,
      "d": 197.36799999999994,
      "v": 127
    },
    {
      "midi": 67,
      "hit": false,
      "t": 2763.1519999999996,
      "d": 197.36799999999994,
      "v": 127
    },
    {
      "midi": 62,
      "hit": false,
      "t": 2960.5199999999995,
      "d": 197.36799999999994,
      "v": 127
    },
    {
      "midi": 65,
      "hit": false,
      "t": 2960.5199999999995,
      "d": 197.36799999999994,
      "v": 127
    },
    {
      "midi": 60,
      "hit": false,
      "t": 3157.8879999999995,
      "d": 394.7359999999999,
      "v": 127
    },
    {
      "midi": 64,
      "hit": false,
      "t": 3157.8879999999995,
      "d": 394.7359999999999,
      "v": 127
    },
    {
      "midi": 55,
      "hit": false,
      "t": 3157.888,
      "d": 394.7359999999999,
      "v": 127
    },
    {
      "midi": 57,
      "hit": false,
      "t": 3552.624,
      "d": 197.36799999999994,
      "v": 127
    },
    {
      "midi": 59,
      "hit": false,
      "t": 3749.9919999999997,
      "d": 197.36799999999994,
      "v": 127
    },
    {
      "midi": 60,
      "hit": false,
      "t": 3947.3599999999997,
      "d": 197.3680000000004,
      "v": 127
    },
    {
      "midi": 52,
      "hit": false,
      "t": 4144.728,
      "d": 197.3680000000004,
      "v": 127
    },
    {
      "midi": 59,
      "hit": false,
      "t": 4342.0960000000005,
      "d": 197.3680000000004,
      "v": 127
    },
    {
      "midi": 57,
      "hit": false,
      "t": 4539.464000000001,
      "d": 197.3680000000004,
      "v": 127
    },
    {
      "midi": 74,
      "hit": false,
      "t": 4736.831999999999,
      "d": 197.3680000000004,
      "v": 127
    },
    {
      "midi": 77,
      "hit": false,
      "t": 4736.831999999999,
      "d": 197.3680000000004,
      "v": 127
    },
    {
      "midi": 55,
      "hit": false,
      "t": 4736.832000000001,
      "d": 1578.9440000000004,
      "v": 127
    },
    {
      "midi": 72,
      "hit": false,
      "t": 4934.2,
      "d": 197.3680000000004,
      "v": 127
    },
    {
      "midi": 76,
      "hit": false,
      "t": 4934.2,
      "d": 197.3680000000004,
      "v": 127
    },
    {
      "midi": 71,
      "hit": false,
      "t": 5131.568,
      "d": 197.3680000000004,
      "v": 127
    },
    {
      "midi": 74,
      "hit": false,
      "t": 5131.568,
      "d": 197.3680000000004,
      "v": 127
    },
    {
      "midi": 69,
      "hit": false,
      "t": 5328.936000000001,
      "d": 197.3680000000004,
      "v": 127
    },
    {
      "midi": 72,
      "hit": false,
      "t": 5328.936000000001,
      "d": 197.3680000000004,
      "v": 127
    },
    {
      "midi": 67,
      "hit": false,
      "t": 5526.304000000001,
      "d": 197.3680000000004,
      "v": 127
    },
    {
      "midi": 71,
      "hit": false,
      "t": 5526.304000000001,
      "d": 197.3680000000004,
      "v": 127
    },
    {
      "midi": 65,
      "hit": false,
      "t": 5723.672000000001,
      "d": 197.3680000000004,
      "v": 127
    },
    {
      "midi": 69,
      "hit": false,
      "t": 5723.672000000001,
      "d": 197.3680000000004,
      "v": 127
    },
    {
      "midi": 64,
      "hit": false,
      "t": 5921.040000000002,
      "d": 197.3680000000004,
      "v": 127
    },
    {
      "midi": 67,
      "hit": false,
      "t": 5921.040000000002,
      "d": 197.3680000000004,
      "v": 127
    },
    {
      "midi": 62,
      "hit": false,
      "t": 6118.408000000002,
      "d": 197.3680000000004,
      "v": 127
    },
    {
      "midi": 65,
      "hit": false,
      "t": 6118.408000000002,
      "d": 197.3680000000004,
      "v": 127
    },
    {
      "midi": 48,
      "hit": false,
      "t": 6315.776000000002,
      "d": 394.7359999999999,
      "v": 127
    },
    {
      "midi": 60,
      "hit": false,
      "t": 6315.776000000003,
      "d": 394.7359999999999,
      "v": 127
    },
    {
      "midi": 64,
      "hit": false,
      "t": 6315.776000000003,
      "d": 394.7359999999999,
      "v": 127
    },
    {
      "midi": 57,
      "hit": false,
      "t": 7105.248000000001,
      "d": 394.7359999999999,
      "v": 127
    },
    {
      "midi": 64,
      "hit": false,
      "t": 7105.248000000002,
      "d": 394.7359999999999,
      "v": 127
    },
    {
      "midi": 72,
      "hit": false,
      "t": 7105.248000000002,
      "d": 394.7359999999999,
      "v": 127
    },
    {
      "midi": 53,
      "hit": false,
      "t": 7894.720000000001,
      "d": 394.7360000000008,
      "v": 127
    },
    {
      "midi": 60,
      "hit": false,
      "t": 7894.720000000002,
      "d": 394.7359999999999,
      "v": 127
    },
    {
      "midi": 62,
      "hit": false,
      "t": 7894.720000000002,
      "d": 394.7359999999999,
      "v": 127
    },
    {
      "midi": 59,
      "hit": false,
      "t": 8684.192000000003,
      "d": 394.7360000000008,
      "v": 127
    },
    {
      "midi": 67,
      "hit": false,
      "t": 8684.192000000003,
      "d": 394.7360000000008,
      "v": 127
    },
    {
      "midi": 55,
      "hit": false,
      "t": 8684.192000000003,
      "d": 394.7360000000008,
      "v": 127
    },
    {
      "midi": 84,
      "hit": false,
      "t": 9473.664000000004,
      "d": 394.7360000000008,
      "v": 127
    },
    {
      "midi": 88,
      "hit": false,
      "t": 9473.664000000004,
      "d": 394.7360000000008,
      "v": 127
    },
    {
      "midi": 48,
      "hit": false,
      "t": 9473.664000000004,
      "d": 789.4719999999998,
      "v": 127
    },
    {
      "midi": 83,
      "hit": false,
      "t": 9868.400000000005,
      "d": 197.3680000000004,
      "v": 127
    },
    {
      "midi": 86,
      "hit": false,
      "t": 9868.400000000005,
      "d": 197.3680000000004,
      "v": 127
    },
    {
      "midi": 81,
      "hit": false,
      "t": 10065.768000000005,
      "d": 197.3680000000004,
      "v": 127
    },
    {
      "midi": 84,
      "hit": false,
      "t": 10065.768000000005,
      "d": 197.3680000000004,
      "v": 127
    },
    {
      "midi": 53,
      "hit": false,
      "t": 10263.136000000004,
      "d": 394.7360000000008,
      "v": 127
    },
    {
      "midi": 81,
      "hit": false,
      "t": 10263.136000000006,
      "d": 394.7360000000008,
      "v": 127
    },
    {
      "midi": 84,
      "hit": false,
      "t": 10263.136000000006,
      "d": 394.7360000000008,
      "v": 127
    },
    {
      "midi": 57,
      "hit": false,
      "t": 10657.872000000005,
      "d": 394.7360000000008,
      "v": 127
    },
    {
      "midi": 79,
      "hit": false,
      "t": 10657.872000000007,
      "d": 197.3680000000004,
      "v": 127
    },
    {
      "midi": 83,
      "hit": false,
      "t": 10657.872000000007,
      "d": 197.3680000000004,
      "v": 127
    },
    {
      "midi": 77,
      "hit": false,
      "t": 10855.240000000007,
      "d": 197.3680000000004,
      "v": 127
    },
    {
      "midi": 81,
      "hit": false,
      "t": 10855.240000000007,
      "d": 197.3680000000004,
      "v": 127
    },
    {
      "midi": 60,
      "hit": false,
      "t": 11052.608000000006,
      "d": 789.4719999999998,
      "v": 127
    },
    {
      "midi": 76,
      "hit": false,
      "t": 11052.608000000007,
      "d": 394.7360000000008,
      "v": 127
    },
    {
      "midi": 79,
      "hit": false,
      "t": 11052.608000000007,
      "d": 394.7360000000008,
      "v": 127
    },
    {
      "midi": 72,
      "hit": false,
      "t": 11447.344000000008,
      "d": 197.3680000000004,
      "v": 127
    },
    {
      "midi": 76,
      "hit": false,
      "t": 11447.344000000008,
      "d": 197.3680000000004,
      "v": 127
    },
    {
      "midi": 74,
      "hit": false,
      "t": 11644.712000000009,
      "d": 197.3680000000004,
      "v": 127
    },
    {
      "midi": 77,
      "hit": false,
      "t": 11644.712000000009,
      "d": 197.3680000000004,
      "v": 127
    },
    {
      "midi": 48,
      "hit": false,
      "t": 11842.080000000005,
      "d": 789.4719999999998,
      "v": 127
    },
    {
      "midi": 76,
      "hit": false,
      "t": 11842.080000000009,
      "d": 394.7360000000008,
      "v": 127
    },
    {
      "midi": 79,
      "hit": false,
      "t": 11842.080000000009,
      "d": 394.7360000000008,
      "v": 127
    },
    {
      "midi": 74,
      "hit": false,
      "t": 12236.81600000001,
      "d": 197.3680000000004,
      "v": 127
    },
    {
      "midi": 77,
      "hit": false,
      "t": 12236.81600000001,
      "d": 197.3680000000004,
      "v": 127
    },
    {
      "midi": 72,
      "hit": false,
      "t": 12434.18400000001,
      "d": 197.3680000000004,
      "v": 127
    },
    {
      "midi": 76,
      "hit": false,
      "t": 12434.18400000001,
      "d": 197.3680000000004,
      "v": 127
    },
    {
      "midi": 57,
      "hit": false,
      "t": 12631.552000000005,
      "d": 789.4719999999998,
      "v": 127
    },
    {
      "midi": 72,
      "hit": false,
      "t": 12631.55200000001,
      "d": 394.7360000000008,
      "v": 127
    },
    {
      "midi": 76,
      "hit": false,
      "t": 12631.55200000001,
      "d": 394.7360000000008,
      "v": 127
    },
    {
      "midi": 71,
      "hit": false,
      "t": 13026.288000000011,
      "d": 197.3680000000004,
      "v": 127
    },
    {
      "midi": 74,
      "hit": false,
      "t": 13026.288000000011,
      "d": 197.3680000000004,
      "v": 127
    },
    {
      "midi": 72,
      "hit": false,
      "t": 13223.656000000012,
      "d": 197.3680000000004,
      "v": 127
    },
    {
      "midi": 76,
      "hit": false,
      "t": 13223.656000000012,
      "d": 197.3680000000004,
      "v": 127
    },
    {
      "midi": 50,
      "hit": false,
      "t": 13421.024000000005,
      "d": 789.4719999999998,
      "v": 127
    },
    {
      "midi": 74,
      "hit": false,
      "t": 13421.024000000012,
      "d": 394.7360000000008,
      "v": 127
    },
    {
      "midi": 77,
      "hit": false,
      "t": 13421.024000000012,
      "d": 394.7360000000008,
      "v": 127
    },
    {
      "midi": 74,
      "hit": false,
      "t": 13815.760000000013,
      "d": 197.3680000000004,
      "v": 127
    },
    {
      "midi": 77,
      "hit": false,
      "t": 13815.760000000013,
      "d": 197.3680000000004,
      "v": 127
    },
    {
      "midi": 72,
      "hit": false,
      "t": 14013.128000000013,
      "d": 197.3680000000004,
      "v": 127
    },
    {
      "midi": 76,
      "hit": false,
      "t": 14013.128000000013,
      "d": 197.3680000000004,
      "v": 127
    },
    {
      "midi": 55,
      "hit": false,
      "t": 14210.496000000005,
      "d": 1578.9439999999995,
      "v": 127
    },
    {
      "midi": 71,
      "hit": false,
      "t": 14210.496000000014,
      "d": 197.3680000000004,
      "v": 127
    },
    {
      "midi": 74,
      "hit": false,
      "t": 14210.496000000014,
      "d": 197.3680000000004,
      "v": 127
    },
    {
      "midi": 72,
      "hit": false,
      "t": 14407.864000000014,
      "d": 197.3680000000004,
      "v": 127
    },
    {
      "midi": 76,
      "hit": false,
      "t": 14407.864000000014,
      "d": 197.3680000000004,
      "v": 127
    },
    {
      "midi": 74,
      "hit": false,
      "t": 14605.232000000015,
      "d": 197.3680000000004,
      "v": 127
    },
    {
      "midi": 77,
      "hit": false,
      "t": 14605.232000000015,
      "d": 197.3680000000004,
      "v": 127
    },
    {
      "midi": 76,
      "hit": false,
      "t": 14802.600000000015,
      "d": 197.3680000000004,
      "v": 127
    },
    {
      "midi": 79,
      "hit": false,
      "t": 14802.600000000015,
      "d": 197.3680000000004,
      "v": 127
    },
    {
      "midi": 77,
      "hit": false,
      "t": 14999.968000000015,
      "d": 197.3680000000004,
      "v": 127
    },
    {
      "midi": 81,
      "hit": false,
      "t": 14999.968000000015,
      "d": 197.3680000000004,
      "v": 127
    },
    {
      "midi": 79,
      "hit": false,
      "t": 15197.336000000016,
      "d": 197.3680000000004,
      "v": 127
    },
    {
      "midi": 83,
      "hit": false,
      "t": 15197.336000000016,
      "d": 197.3680000000004,
      "v": 127
    },
    {
      "midi": 81,
      "hit": false,
      "t": 15394.704000000016,
      "d": 197.3680000000004,
      "v": 127
    },
    {
      "midi": 84,
      "hit": false,
      "t": 15394.704000000016,
      "d": 197.3680000000004,
      "v": 127
    },
    {
      "midi": 83,
      "hit": false,
      "t": 15592.072000000016,
      "d": 197.3680000000004,
      "v": 127
    },
    {
      "midi": 86,
      "hit": false,
      "t": 15592.072000000016,
      "d": 197.3680000000004,
      "v": 127
    },
    {
      "midi": 48,
      "hit": false,
      "t": 15789.440000000004,
      "d": 789.4719999999998,
      "v": 127
    },
    {
      "midi": 84,
      "hit": false,
      "t": 15789.440000000017,
      "d": 394.7360000000008,
      "v": 127
    },
    {
      "midi": 88,
      "hit": false,
      "t": 15789.440000000017,
      "d": 394.7360000000008,
      "v": 127
    },
    {
      "midi": 83,
      "hit": false,
      "t": 16184.176000000018,
      "d": 197.3680000000004,
      "v": 127
    },
    {
      "midi": 86,
      "hit": false,
      "t": 16184.176000000018,
      "d": 197.3680000000004,
      "v": 127
    },
    {
      "midi": 81,
      "hit": false,
      "t": 16381.544000000018,
      "d": 197.3680000000004,
      "v": 127
    },
    {
      "midi": 84,
      "hit": false,
      "t": 16381.544000000018,
      "d": 197.3680000000004,
      "v": 127
    },
    {
      "midi": 53,
      "hit": false,
      "t": 16578.912000000004,
      "d": 394.7360000000008,
      "v": 127
    },
    {
      "midi": 81,
      "hit": false,
      "t": 16578.91200000002,
      "d": 394.7360000000008,
      "v": 127
    },
    {
      "midi": 84,
      "hit": false,
      "t": 16578.91200000002,
      "d": 394.7360000000008,
      "v": 127
    },
    {
      "midi": 57,
      "hit": false,
      "t": 16973.648000000005,
      "d": 394.7360000000008,
      "v": 127
    },
    {
      "midi": 79,
      "hit": false,
      "t": 16973.64800000002,
      "d": 197.36799999999857,
      "v": 127
    },
    {
      "midi": 83,
      "hit": false,
      "t": 16973.64800000002,
      "d": 197.36799999999857,
      "v": 127
    },
    {
      "midi": 77,
      "hit": false,
      "t": 17171.016000000018,
      "d": 197.36799999999857,
      "v": 127
    },
    {
      "midi": 81,
      "hit": false,
      "t": 17171.016000000018,
      "d": 197.36799999999857,
      "v": 127
    },
    {
      "midi": 60,
      "hit": false,
      "t": 17368.384000000005,
      "d": 789.4720000000016,
      "v": 127
    },
    {
      "midi": 76,
      "hit": false,
      "t": 17368.384000000016,
      "d": 394.7360000000008,
      "v": 127
    },
    {
      "midi": 79,
      "hit": false,
      "t": 17368.384000000016,
      "d": 394.7360000000008,
      "v": 127
    },
    {
      "midi": 72,
      "hit": false,
      "t": 17763.120000000017,
      "d": 197.36799999999857,
      "v": 127
    },
    {
      "midi": 76,
      "hit": false,
      "t": 17763.120000000017,
      "d": 197.36799999999857,
      "v": 127
    },
    {
      "midi": 74,
      "hit": false,
      "t": 17960.488000000016,
      "d": 197.36799999999857,
      "v": 127
    },
    {
      "midi": 77,
      "hit": false,
      "t": 17960.488000000016,
      "d": 197.36799999999857,
      "v": 127
    },
    {
      "midi": 48,
      "hit": false,
      "t": 18157.856000000007,
      "d": 789.4720000000016,
      "v": 127
    },
    {
      "midi": 76,
      "hit": false,
      "t": 18157.856000000014,
      "d": 394.7360000000008,
      "v": 127
    },
    {
      "midi": 79,
      "hit": false,
      "t": 18157.856000000014,
      "d": 394.7360000000008,
      "v": 127
    },
    {
      "midi": 74,
      "hit": false,
      "t": 18552.592000000015,
      "d": 197.36799999999857,
      "v": 127
    },
    {
      "midi": 77,
      "hit": false,
      "t": 18552.592000000015,
      "d": 197.36799999999857,
      "v": 127
    },
    {
      "midi": 72,
      "hit": false,
      "t": 18749.960000000014,
      "d": 197.36799999999857,
      "v": 127
    },
    {
      "midi": 76,
      "hit": false,
      "t": 18749.960000000014,
      "d": 197.36799999999857,
      "v": 127
    },
    {
      "midi": 53,
      "hit": false,
      "t": 18947.32800000001,
      "d": 789.4720000000016,
      "v": 127
    },
    {
      "midi": 69,
      "hit": false,
      "t": 18947.328000000012,
      "d": 394.7360000000008,
      "v": 127
    },
    {
      "midi": 77,
      "hit": false,
      "t": 18947.328000000012,
      "d": 394.7360000000008,
      "v": 127
    },
    {
      "midi": 67,
      "hit": false,
      "t": 19342.064000000013,
      "d": 197.36799999999857,
      "v": 127
    },
    {
      "midi": 76,
      "hit": false,
      "t": 19342.064000000013,
      "d": 197.36799999999857,
      "v": 127
    },
    {
      "midi": 65,
      "hit": false,
      "t": 19539.43200000001,
      "d": 197.36799999999857,
      "v": 127
    },
    {
      "midi": 74,
      "hit": false,
      "t": 19539.43200000001,
      "d": 197.36799999999857,
      "v": 127
    },
    {
      "midi": 65,
      "hit": false,
      "t": 19736.80000000001,
      "d": 394.7360000000008,
      "v": 127
    },
    {
      "midi": 74,
      "hit": false,
      "t": 19736.80000000001,
      "d": 394.7360000000008,
      "v": 127
    },
    {
      "midi": 55,
      "hit": false,
      "t": 19736.80000000001,
      "d": 789.4720000000016,
      "v": 127
    },
    {
      "midi": 64,
      "hit": false,
      "t": 20131.53600000001,
      "d": 197.36799999999857,
      "v": 127
    },
    {
      "midi": 72,
      "hit": false,
      "t": 20131.53600000001,
      "d": 197.36799999999857,
      "v": 127
    },
    {
      "midi": 62,
      "hit": false,
      "t": 20328.90400000001,
      "d": 197.36799999999857,
      "v": 127
    },
    {
      "midi": 71,
      "hit": false,
      "t": 20328.90400000001,
      "d": 197.36799999999857,
      "v": 127
    },
    {
      "midi": 64,
      "hit": false,
      "t": 20526.272000000008,
      "d": 394.7360000000008,
      "v": 127
    },
    {
      "midi": 72,
      "hit": false,
      "t": 20526.272000000008,
      "d": 394.7360000000008,
      "v": 127
    },
    {
      "midi": 48,
      "hit": false,
      "t": 20526.27200000001,
      "d": 394.7360000000008,
      "v": 127
    },
    {
      "midi": 64,
      "hit": false,
      "t": 20921.00800000001,
      "d": 197.36799999999857,
      "v": 127
    },
    {
      "midi": 55,
      "hit": false,
      "t": 20921.008000000013,
      "d": 197.36799999999857,
      "v": 127
    },
    {
      "midi": 62,
      "hit": false,
      "t": 21118.376000000007,
      "d": 197.36799999999857,
      "v": 127
    },
    {
      "midi": 53,
      "hit": false,
      "t": 21118.37600000001,
      "d": 197.36799999999857,
      "v": 127
    },
    {
      "midi": 60,
      "hit": false,
      "t": 21315.744000000006,
      "d": 394.7360000000008,
      "v": 127
    },
    {
      "midi": 48,
      "hit": false,
      "t": 21315.74400000001,
      "d": 394.7360000000008,
      "v": 127
    },
    {
      "midi": 52,
      "hit": false,
      "t": 21315.74400000001,
      "d": 394.7360000000008,
      "v": 127
    },
    {
      "midi": 55,
      "hit": false,
      "t": 22105.21600000001,
      "d": 394.7360000000008,
      "v": 127
    },
    {
      "midi": 59,
      "hit": false,
      "t": 22105.21600000001,
      "d": 394.7360000000008,
      "v": 127
    },
    {
      "midi": 57,
      "hit": false,
      "t": 22499.952000000012,
      "d": 197.36799999999857,
      "v": 127
    },
    {
      "midi": 60,
      "hit": false,
      "t": 22499.952000000012,
      "d": 197.36799999999857,
      "v": 127
    },
    {
      "midi": 59,
      "hit": false,
      "t": 22697.32000000001,
      "d": 197.36799999999857,
      "v": 127
    },
    {
      "midi": 62,
      "hit": false,
      "t": 22697.32000000001,
      "d": 197.36799999999857,
      "v": 127
    },
    {
      "midi": 59,
      "hit": false,
      "t": 22894.68800000001,
      "d": 394.7360000000008,
      "v": 127
    },
    {
      "midi": 62,
      "hit": false,
      "t": 22894.68800000001,
      "d": 394.7360000000008,
      "v": 127
    },
    {
      "midi": 60,
      "hit": false,
      "t": 23289.42400000001,
      "d": 197.36799999999857,
      "v": 127
    },
    {
      "midi": 64,
      "hit": false,
      "t": 23289.42400000001,
      "d": 197.36799999999857,
      "v": 127
    },
    {
      "midi": 62,
      "hit": false,
      "t": 23486.79200000001,
      "d": 197.36799999999857,
      "v": 127
    },
    {
      "midi": 65,
      "hit": false,
      "t": 23486.79200000001,
      "d": 197.36799999999857,
      "v": 127
    },
    {
      "midi": 67,
      "hit": false,
      "t": 23684.160000000007,
      "d": 394.7360000000008,
      "v": 127
    },
    {
      "midi": 71,
      "hit": false,
      "t": 23684.160000000007,
      "d": 394.7360000000008,
      "v": 127
    },
    {
      "midi": 62,
      "hit": false,
      "t": 23684.160000000007,
      "d": 789.4720000000016,
      "v": 127
    },
    {
      "midi": 65,
      "hit": false,
      "t": 23684.160000000007,
      "d": 789.4720000000016,
      "v": 127
    },
    {
      "midi": 69,
      "hit": false,
      "t": 24078.896000000008,
      "d": 197.36799999999857,
      "v": 127
    },
    {
      "midi": 72,
      "hit": false,
      "t": 24078.896000000008,
      "d": 197.36799999999857,
      "v": 127
    },
    {
      "midi": 71,
      "hit": false,
      "t": 24276.264000000006,
      "d": 197.36799999999857,
      "v": 127
    },
    {
      "midi": 74,
      "hit": false,
      "t": 24276.264000000006,
      "d": 197.36799999999857,
      "v": 127
    },
    {
      "midi": 71,
      "hit": false,
      "t": 24473.632000000005,
      "d": 394.7360000000008,
      "v": 127
    },
    {
      "midi": 74,
      "hit": false,
      "t": 24473.632000000005,
      "d": 394.7360000000008,
      "v": 127
    },
    {
      "midi": 72,
      "hit": false,
      "t": 24868.368000000006,
      "d": 197.36799999999857,
      "v": 127
    },
    {
      "midi": 76,
      "hit": false,
      "t": 24868.368000000006,
      "d": 197.36799999999857,
      "v": 127
    },
    {
      "midi": 74,
      "hit": false,
      "t": 25065.736000000004,
      "d": 197.36799999999857,
      "v": 127
    },
    {
      "midi": 77,
      "hit": false,
      "t": 25065.736000000004,
      "d": 197.36799999999857,
      "v": 127
    },
    {
      "midi": 74,
      "hit": false,
      "t": 25263.104000000003,
      "d": 789.4720000000016,
      "v": 127
    },
    {
      "midi": 77,
      "hit": false,
      "t": 25263.104000000003,
      "d": 789.4720000000016,
      "v": 127
    },
    {
      "midi": 55,
      "hit": false,
      "t": 25263.10400000001,
      "d": 394.7360000000008,
      "v": 127
    },
    {
      "midi": 59,
      "hit": false,
      "t": 25263.10400000001,
      "d": 394.7360000000008,
      "v": 127
    },
    {
      "midi": 57,
      "hit": false,
      "t": 25657.84000000001,
      "d": 197.36799999999857,
      "v": 127
    },
    {
      "midi": 60,
      "hit": false,
      "t": 25657.84000000001,
      "d": 197.36799999999857,
      "v": 127
    },
    {
      "midi": 59,
      "hit": false,
      "t": 25855.20800000001,
      "d": 197.36799999999857,
      "v": 127
    },
    {
      "midi": 62,
      "hit": false,
      "t": 25855.20800000001,
      "d": 197.36799999999857,
      "v": 127
    },
    {
      "midi": 59,
      "hit": false,
      "t": 26052.57600000001,
      "d": 394.7360000000008,
      "v": 127
    },
    {
      "midi": 62,
      "hit": false,
      "t": 26052.57600000001,
      "d": 394.7360000000008,
      "v": 127
    },
    {
      "midi": 60,
      "hit": false,
      "t": 26447.31200000001,
      "d": 197.36799999999857,
      "v": 127
    },
    {
      "midi": 64,
      "hit": false,
      "t": 26447.31200000001,
      "d": 197.36799999999857,
      "v": 127
    },
    {
      "midi": 62,
      "hit": false,
      "t": 26644.680000000008,
      "d": 197.36799999999857,
      "v": 127
    },
    {
      "midi": 65,
      "hit": false,
      "t": 26644.680000000008,
      "d": 197.36799999999857,
      "v": 127
    },
    {
      "midi": 67,
      "hit": false,
      "t": 26842.048000000006,
      "d": 394.7360000000008,
      "v": 127
    },
    {
      "midi": 71,
      "hit": false,
      "t": 26842.048000000006,
      "d": 394.7360000000008,
      "v": 127
    },
    {
      "midi": 62,
      "hit": false,
      "t": 26842.048000000006,
      "d": 394.7360000000008,
      "v": 127
    },
    {
      "midi": 65,
      "hit": false,
      "t": 26842.048000000006,
      "d": 394.7360000000008,
      "v": 127
    },
    {
      "midi": 69,
      "hit": false,
      "t": 27236.784000000007,
      "d": 197.36799999999857,
      "v": 127
    },
    {
      "midi": 72,
      "hit": false,
      "t": 27236.784000000007,
      "d": 197.36799999999857,
      "v": 127
    },
    {
      "midi": 60,
      "hit": false,
      "t": 27236.784000000007,
      "d": 197.36799999999857,
      "v": 127
    },
    {
      "midi": 64,
      "hit": false,
      "t": 27236.784000000007,
      "d": 197.36799999999857,
      "v": 127
    },
    {
      "midi": 71,
      "hit": false,
      "t": 27434.152000000006,
      "d": 197.36799999999857,
      "v": 127
    },
    {
      "midi": 74,
      "hit": false,
      "t": 27434.152000000006,
      "d": 197.36799999999857,
      "v": 127
    },
    {
      "midi": 59,
      "hit": false,
      "t": 27434.152000000006,
      "d": 197.36799999999857,
      "v": 127
    },
    {
      "midi": 62,
      "hit": false,
      "t": 27434.152000000006,
      "d": 197.36799999999857,
      "v": 127
    },
    {
      "midi": 71,
      "hit": false,
      "t": 27631.520000000004,
      "d": 394.7360000000008,
      "v": 127
    },
    {
      "midi": 74,
      "hit": false,
      "t": 27631.520000000004,
      "d": 394.7360000000008,
      "v": 127
    },
    {
      "midi": 59,
      "hit": false,
      "t": 27631.520000000004,
      "d": 394.7360000000008,
      "v": 127
    },
    {
      "midi": 62,
      "hit": false,
      "t": 27631.520000000004,
      "d": 394.7360000000008,
      "v": 127
    },
    {
      "midi": 72,
      "hit": false,
      "t": 28026.256000000005,
      "d": 197.36799999999857,
      "v": 127
    },
    {
      "midi": 76,
      "hit": false,
      "t": 28026.256000000005,
      "d": 197.36799999999857,
      "v": 127
    },
    {
      "midi": 57,
      "hit": false,
      "t": 28026.256000000005,
      "d": 197.36799999999857,
      "v": 127
    },
    {
      "midi": 60,
      "hit": false,
      "t": 28026.256000000005,
      "d": 197.36799999999857,
      "v": 127
    },
    {
      "midi": 74,
      "hit": false,
      "t": 28223.624000000003,
      "d": 197.36799999999857,
      "v": 127
    },
    {
      "midi": 77,
      "hit": false,
      "t": 28223.624000000003,
      "d": 197.36799999999857,
      "v": 127
    },
    {
      "midi": 55,
      "hit": false,
      "t": 28223.624000000003,
      "d": 197.36799999999857,
      "v": 127
    },
    {
      "midi": 59,
      "hit": false,
      "t": 28223.624000000003,
      "d": 197.36799999999857,
      "v": 127
    },
    {
      "midi": 74,
      "hit": false,
      "t": 28420.992000000002,
      "d": 394.7360000000008,
      "v": 127
    },
    {
      "midi": 77,
      "hit": false,
      "t": 28420.992000000002,
      "d": 394.7360000000008,
      "v": 127
    },
    {
      "midi": 55,
      "hit": false,
      "t": 28420.992000000002,
      "d": 394.7360000000008,
      "v": 127
    },
    {
      "midi": 59,
      "hit": false,
      "t": 28420.992000000002,
      "d": 394.7360000000008,
      "v": 127
    },
    {
      "midi": 71,
      "hit": false,
      "t": 28815.728000000003,
      "d": 197.36799999999857,
      "v": 127
    },
    {
      "midi": 74,
      "hit": false,
      "t": 28815.728000000003,
      "d": 197.36799999999857,
      "v": 127
    },
    {
      "midi": 72,
      "hit": false,
      "t": 29013.096,
      "d": 197.36799999999857,
      "v": 127
    },
    {
      "midi": 76,
      "hit": false,
      "t": 29013.096,
      "d": 197.36799999999857,
      "v": 127
    },
    {
      "midi": 74,
      "hit": false,
      "t": 29210.464,
      "d": 789.4720000000016,
      "v": 127
    },
    {
      "midi": 77,
      "hit": false,
      "t": 29210.464,
      "d": 789.4720000000016,
      "v": 127
    },
    {
      "midi": 68,
      "hit": false,
      "t": 29605.200000000004,
      "d": 394.7360000000008,
      "v": 127
    },
    {
      "midi": 67,
      "hit": false,
      "t": 29999.936000000005,
      "d": 394.7360000000008,
      "v": 127
    },
    {
      "midi": 71,
      "hit": false,
      "t": 30394.672000000002,
      "d": 197.36799999999857,
      "v": 127
    },
    {
      "midi": 74,
      "hit": false,
      "t": 30394.672000000002,
      "d": 197.36799999999857,
      "v": 127
    },
    {
      "midi": 72,
      "hit": false,
      "t": 30592.04,
      "d": 197.36799999999857,
      "v": 127
    },
    {
      "midi": 76,
      "hit": false,
      "t": 30592.04,
      "d": 197.36799999999857,
      "v": 127
    },
    {
      "midi": 74,
      "hit": false,
      "t": 30789.408,
      "d": 789.4720000000016,
      "v": 127
    },
    {
      "midi": 77,
      "hit": false,
      "t": 30789.408,
      "d": 789.4720000000016,
      "v": 127
    },
    {
      "midi": 56,
      "hit": false,
      "t": 31184.144000000008,
      "d": 394.7360000000008,
      "v": 127
    },
    {
      "midi": 55,
      "hit": false,
      "t": 31578.88000000001,
      "d": 394.7360000000008,
      "v": 127
    },
    {
      "midi": 71,
      "hit": false,
      "t": 31973.616,
      "d": 197.36799999999857,
      "v": 127
    },
    {
      "midi": 74,
      "hit": false,
      "t": 31973.616,
      "d": 197.36799999999857,
      "v": 127
    },
    {
      "midi": 72,
      "hit": false,
      "t": 32170.984,
      "d": 197.36799999999857,
      "v": 127
    },
    {
      "midi": 76,
      "hit": false,
      "t": 32170.984,
      "d": 197.36799999999857,
      "v": 127
    },
    {
      "midi": 74,
      "hit": false,
      "t": 32368.352,
      "d": 394.7360000000008,
      "v": 127
    },
    {
      "midi": 77,
      "hit": false,
      "t": 32368.352,
      "d": 394.7360000000008,
      "v": 127
    },
    {
      "midi": 71,
      "hit": false,
      "t": 32763.088,
      "d": 197.36799999999857,
      "v": 127
    },
    {
      "midi": 74,
      "hit": false,
      "t": 32763.088,
      "d": 197.36799999999857,
      "v": 127
    },
    {
      "midi": 72,
      "hit": false,
      "t": 32960.456,
      "d": 197.3680000000022,
      "v": 127
    },
    {
      "midi": 76,
      "hit": false,
      "t": 32960.456,
      "d": 197.3680000000022,
      "v": 127
    },
    {
      "midi": 74,
      "hit": false,
      "t": 33157.824,
      "d": 394.73599999999715,
      "v": 127
    },
    {
      "midi": 77,
      "hit": false,
      "t": 33157.824,
      "d": 394.73599999999715,
      "v": 127
    },
    {
      "midi": 74,
      "hit": false,
      "t": 33552.56,
      "d": 197.3680000000022,
      "v": 127
    },
    {
      "midi": 77,
      "hit": false,
      "t": 33552.56,
      "d": 197.3680000000022,
      "v": 127
    },
    {
      "midi": 76,
      "hit": false,
      "t": 33749.928,
      "d": 197.3680000000022,
      "v": 127
    },
    {
      "midi": 79,
      "hit": false,
      "t": 33749.928,
      "d": 197.3680000000022,
      "v": 127
    },
    {
      "midi": 77,
      "hit": false,
      "t": 33947.296,
      "d": 197.3680000000022,
      "v": 127
    },
    {
      "midi": 81,
      "hit": false,
      "t": 33947.296,
      "d": 197.3680000000022,
      "v": 127
    },
    {
      "midi": 79,
      "hit": false,
      "t": 34144.664000000004,
      "d": 197.3680000000022,
      "v": 127
    },
    {
      "midi": 83,
      "hit": false,
      "t": 34144.664000000004,
      "d": 197.3680000000022,
      "v": 127
    },
    {
      "midi": 81,
      "hit": false,
      "t": 34342.03200000001,
      "d": 197.3680000000022,
      "v": 127
    },
    {
      "midi": 84,
      "hit": false,
      "t": 34342.03200000001,
      "d": 197.3680000000022,
      "v": 127
    },
    {
      "midi": 83,
      "hit": false,
      "t": 34539.40000000001,
      "d": 197.3680000000022,
      "v": 127
    },
    {
      "midi": 86,
      "hit": false,
      "t": 34539.40000000001,
      "d": 197.3680000000022,
      "v": 127
    },
    {
      "midi": 84,
      "hit": false,
      "t": 34736.76800000001,
      "d": 394.73599999999715,
      "v": 127
    },
    {
      "midi": 88,
      "hit": false,
      "t": 34736.76800000001,
      "d": 394.73599999999715,
      "v": 127
    },
    {
      "midi": 48,
      "hit": false,
      "t": 34736.76800000001,
      "d": 789.4720000000016,
      "v": 127
    },
    {
      "midi": 83,
      "hit": false,
      "t": 35131.50400000001,
      "d": 197.3680000000022,
      "v": 127
    },
    {
      "midi": 86,
      "hit": false,
      "t": 35131.50400000001,
      "d": 197.3680000000022,
      "v": 127
    },
    {
      "midi": 81,
      "hit": false,
      "t": 35328.87200000001,
      "d": 197.3680000000022,
      "v": 127
    },
    {
      "midi": 84,
      "hit": false,
      "t": 35328.87200000001,
      "d": 197.3680000000022,
      "v": 127
    },
    {
      "midi": 81,
      "hit": false,
      "t": 35526.24000000001,
      "d": 394.73599999999715,
      "v": 127
    },
    {
      "midi": 84,
      "hit": false,
      "t": 35526.24000000001,
      "d": 394.73599999999715,
      "v": 127
    },
    {
      "midi": 53,
      "hit": false,
      "t": 35526.24000000001,
      "d": 394.73599999999715,
      "v": 127
    },
    {
      "midi": 79,
      "hit": false,
      "t": 35920.97600000001,
      "d": 197.3680000000022,
      "v": 127
    },
    {
      "midi": 83,
      "hit": false,
      "t": 35920.97600000001,
      "d": 197.3680000000022,
      "v": 127
    },
    {
      "midi": 57,
      "hit": false,
      "t": 35920.97600000001,
      "d": 394.73599999999715,
      "v": 127
    },
    {
      "midi": 77,
      "hit": false,
      "t": 36118.34400000001,
      "d": 197.3680000000022,
      "v": 127
    },
    {
      "midi": 81,
      "hit": false,
      "t": 36118.34400000001,
      "d": 197.3680000000022,
      "v": 127
    },
    {
      "midi": 60,
      "hit": false,
      "t": 36315.71200000001,
      "d": 789.4720000000016,
      "v": 127
    },
    {
      "midi": 76,
      "hit": false,
      "t": 36315.712000000014,
      "d": 394.73599999999715,
      "v": 127
    },
    {
      "midi": 79,
      "hit": false,
      "t": 36315.712000000014,
      "d": 394.73599999999715,
      "v": 127
    },
    {
      "midi": 72,
      "hit": false,
      "t": 36710.44800000001,
      "d": 197.3680000000022,
      "v": 127
    },
    {
      "midi": 76,
      "hit": false,
      "t": 36710.44800000001,
      "d": 197.3680000000022,
      "v": 127
    },
    {
      "midi": 74,
      "hit": false,
      "t": 36907.81600000001,
      "d": 197.3680000000022,
      "v": 127
    },
    {
      "midi": 77,
      "hit": false,
      "t": 36907.81600000001,
      "d": 197.3680000000022,
      "v": 127
    },
    {
      "midi": 48,
      "hit": false,
      "t": 37105.18400000001,
      "d": 789.4720000000016,
      "v": 127
    },
    {
      "midi": 76,
      "hit": false,
      "t": 37105.184000000016,
      "d": 394.73599999999715,
      "v": 127
    },
    {
      "midi": 79,
      "hit": false,
      "t": 37105.184000000016,
      "d": 394.73599999999715,
      "v": 127
    },
    {
      "midi": 74,
      "hit": false,
      "t": 37499.92000000001,
      "d": 197.3680000000022,
      "v": 127
    },
    {
      "midi": 77,
      "hit": false,
      "t": 37499.92000000001,
      "d": 197.3680000000022,
      "v": 127
    },
    {
      "midi": 72,
      "hit": false,
      "t": 37697.288000000015,
      "d": 197.3680000000022,
      "v": 127
    },
    {
      "midi": 76,
      "hit": false,
      "t": 37697.288000000015,
      "d": 197.3680000000022,
      "v": 127
    },
    {
      "midi": 57,
      "hit": false,
      "t": 37894.65600000001,
      "d": 789.4720000000016,
      "v": 127
    },
    {
      "midi": 72,
      "hit": false,
      "t": 37894.65600000002,
      "d": 394.73599999999715,
      "v": 127
    },
    {
      "midi": 76,
      "hit": false,
      "t": 37894.65600000002,
      "d": 394.73599999999715,
      "v": 127
    },
    {
      "midi": 71,
      "hit": false,
      "t": 38289.392000000014,
      "d": 197.3680000000022,
      "v": 127
    },
    {
      "midi": 74,
      "hit": false,
      "t": 38289.392000000014,
      "d": 197.3680000000022,
      "v": 127
    },
    {
      "midi": 72,
      "hit": false,
      "t": 38486.76000000002,
      "d": 197.3680000000022,
      "v": 127
    },
    {
      "midi": 76,
      "hit": false,
      "t": 38486.76000000002,
      "d": 197.3680000000022,
      "v": 127
    },
    {
      "midi": 50,
      "hit": false,
      "t": 38684.12800000001,
      "d": 789.4720000000016,
      "v": 127
    },
    {
      "midi": 74,
      "hit": false,
      "t": 38684.12800000002,
      "d": 394.73599999999715,
      "v": 127
    },
    {
      "midi": 77,
      "hit": false,
      "t": 38684.12800000002,
      "d": 394.73599999999715,
      "v": 127
    },
    {
      "midi": 74,
      "hit": false,
      "t": 39078.864000000016,
      "d": 197.3680000000022,
      "v": 127
    },
    {
      "midi": 77,
      "hit": false,
      "t": 39078.864000000016,
      "d": 197.3680000000022,
      "v": 127
    },
    {
      "midi": 72,
      "hit": false,
      "t": 39276.23200000002,
      "d": 197.3680000000022,
      "v": 127
    },
    {
      "midi": 76,
      "hit": false,
      "t": 39276.23200000002,
      "d": 197.3680000000022,
      "v": 127
    },
    {
      "midi": 55,
      "hit": false,
      "t": 39473.60000000001,
      "d": 1578.9440000000031,
      "v": 127
    },
    {
      "midi": 71,
      "hit": false,
      "t": 39473.60000000002,
      "d": 197.3680000000022,
      "v": 127
    },
    {
      "midi": 74,
      "hit": false,
      "t": 39473.60000000002,
      "d": 197.3680000000022,
      "v": 127
    },
    {
      "midi": 72,
      "hit": false,
      "t": 39670.96800000002,
      "d": 197.3680000000022,
      "v": 127
    },
    {
      "midi": 76,
      "hit": false,
      "t": 39670.96800000002,
      "d": 197.3680000000022,
      "v": 127
    },
    {
      "midi": 74,
      "hit": false,
      "t": 39868.336000000025,
      "d": 197.3680000000022,
      "v": 127
    },
    {
      "midi": 77,
      "hit": false,
      "t": 39868.336000000025,
      "d": 197.3680000000022,
      "v": 127
    },
    {
      "midi": 76,
      "hit": false,
      "t": 40065.70400000003,
      "d": 197.3680000000022,
      "v": 127
    },
    {
      "midi": 79,
      "hit": false,
      "t": 40065.70400000003,
      "d": 197.3680000000022,
      "v": 127
    },
    {
      "midi": 77,
      "hit": false,
      "t": 40263.07200000003,
      "d": 197.3680000000022,
      "v": 127
    },
    {
      "midi": 81,
      "hit": false,
      "t": 40263.07200000003,
      "d": 197.3680000000022,
      "v": 127
    },
    {
      "midi": 79,
      "hit": false,
      "t": 40460.44000000003,
      "d": 197.3680000000022,
      "v": 127
    },
    {
      "midi": 83,
      "hit": false,
      "t": 40460.44000000003,
      "d": 197.3680000000022,
      "v": 127
    },
    {
      "midi": 81,
      "hit": false,
      "t": 40657.808000000034,
      "d": 197.3680000000022,
      "v": 127
    },
    {
      "midi": 84,
      "hit": false,
      "t": 40657.808000000034,
      "d": 197.3680000000022,
      "v": 127
    },
    {
      "midi": 83,
      "hit": false,
      "t": 40855.176000000036,
      "d": 197.3680000000022,
      "v": 127
    },
    {
      "midi": 86,
      "hit": false,
      "t": 40855.176000000036,
      "d": 197.3680000000022,
      "v": 127
    },
    {
      "midi": 48,
      "hit": false,
      "t": 41052.544000000016,
      "d": 789.4720000000016,
      "v": 127
    },
    {
      "midi": 84,
      "hit": false,
      "t": 41052.54400000004,
      "d": 394.73599999999715,
      "v": 127
    },
    {
      "midi": 88,
      "hit": false,
      "t": 41052.54400000004,
      "d": 394.73599999999715,
      "v": 127
    },
    {
      "midi": 83,
      "hit": false,
      "t": 41447.280000000035,
      "d": 197.3680000000022,
      "v": 127
    },
    {
      "midi": 86,
      "hit": false,
      "t": 41447.280000000035,
      "d": 197.3680000000022,
      "v": 127
    },
    {
      "midi": 81,
      "hit": false,
      "t": 41644.64800000004,
      "d": 197.3680000000022,
      "v": 127
    },
    {
      "midi": 84,
      "hit": false,
      "t": 41644.64800000004,
      "d": 197.3680000000022,
      "v": 127
    },
    {
      "midi": 53,
      "hit": false,
      "t": 41842.01600000002,
      "d": 394.73599999999715,
      "v": 127
    },
    {
      "midi": 81,
      "hit": false,
      "t": 41842.01600000004,
      "d": 394.73599999999715,
      "v": 127
    },
    {
      "midi": 84,
      "hit": false,
      "t": 41842.01600000004,
      "d": 394.73599999999715,
      "v": 127
    },
    {
      "midi": 57,
      "hit": false,
      "t": 42236.752000000015,
      "d": 394.73599999999715,
      "v": 127
    },
    {
      "midi": 79,
      "hit": false,
      "t": 42236.75200000004,
      "d": 197.3680000000022,
      "v": 127
    },
    {
      "midi": 83,
      "hit": false,
      "t": 42236.75200000004,
      "d": 197.3680000000022,
      "v": 127
    },
    {
      "midi": 77,
      "hit": false,
      "t": 42434.12000000004,
      "d": 197.3680000000022,
      "v": 127
    },
    {
      "midi": 81,
      "hit": false,
      "t": 42434.12000000004,
      "d": 197.3680000000022,
      "v": 127
    },
    {
      "midi": 60,
      "hit": false,
      "t": 42631.48800000001,
      "d": 789.4720000000016,
      "v": 127
    },
    {
      "midi": 76,
      "hit": false,
      "t": 42631.48800000004,
      "d": 394.73599999999715,
      "v": 127
    },
    {
      "midi": 79,
      "hit": false,
      "t": 42631.48800000004,
      "d": 394.73599999999715,
      "v": 127
    },
    {
      "midi": 72,
      "hit": false,
      "t": 43026.22400000004,
      "d": 197.3680000000022,
      "v": 127
    },
    {
      "midi": 76,
      "hit": false,
      "t": 43026.22400000004,
      "d": 197.3680000000022,
      "v": 127
    },
    {
      "midi": 74,
      "hit": false,
      "t": 43223.59200000004,
      "d": 197.3680000000022,
      "v": 127
    },
    {
      "midi": 77,
      "hit": false,
      "t": 43223.59200000004,
      "d": 197.3680000000022,
      "v": 127
    },
    {
      "midi": 48,
      "hit": false,
      "t": 43420.960000000014,
      "d": 789.4720000000016,
      "v": 127
    },
    {
      "midi": 76,
      "hit": false,
      "t": 43420.96000000004,
      "d": 394.73599999999715,
      "v": 127
    },
    {
      "midi": 79,
      "hit": false,
      "t": 43420.96000000004,
      "d": 394.73599999999715,
      "v": 127
    },
    {
      "midi": 74,
      "hit": false,
      "t": 43815.69600000004,
      "d": 197.3680000000022,
      "v": 127
    },
    {
      "midi": 77,
      "hit": false,
      "t": 43815.69600000004,
      "d": 197.3680000000022,
      "v": 127
    },
    {
      "midi": 72,
      "hit": false,
      "t": 44013.06400000004,
      "d": 197.3680000000022,
      "v": 127
    },
    {
      "midi": 76,
      "hit": false,
      "t": 44013.06400000004,
      "d": 197.3680000000022,
      "v": 127
    },
    {
      "midi": 53,
      "hit": false,
      "t": 44210.432000000015,
      "d": 789.4720000000016,
      "v": 127
    },
    {
      "midi": 69,
      "hit": false,
      "t": 44210.432000000044,
      "d": 394.73599999999715,
      "v": 127
    },
    {
      "midi": 77,
      "hit": false,
      "t": 44210.432000000044,
      "d": 394.73599999999715,
      "v": 127
    },
    {
      "midi": 67,
      "hit": false,
      "t": 44605.16800000004,
      "d": 197.3680000000022,
      "v": 127
    },
    {
      "midi": 76,
      "hit": false,
      "t": 44605.16800000004,
      "d": 197.3680000000022,
      "v": 127
    },
    {
      "midi": 65,
      "hit": false,
      "t": 44802.536000000044,
      "d": 197.3680000000022,
      "v": 127
    },
    {
      "midi": 74,
      "hit": false,
      "t": 44802.536000000044,
      "d": 197.3680000000022,
      "v": 127
    },
    {
      "midi": 55,
      "hit": false,
      "t": 44999.90400000002,
      "d": 789.4720000000016,
      "v": 127
    },
    {
      "midi": 65,
      "hit": false,
      "t": 44999.904000000046,
      "d": 394.73599999999715,
      "v": 127
    },
    {
      "midi": 74,
      "hit": false,
      "t": 44999.904000000046,
      "d": 394.73599999999715,
      "v": 127
    },
    {
      "midi": 64,
      "hit": false,
      "t": 45394.64000000004,
      "d": 197.3680000000022,
      "v": 127
    },
    {
      "midi": 72,
      "hit": false,
      "t": 45394.64000000004,
      "d": 197.3680000000022,
      "v": 127
    },
    {
      "midi": 62,
      "hit": false,
      "t": 45592.008000000045,
      "d": 197.3680000000022,
      "v": 127
    },
    {
      "midi": 71,
      "hit": false,
      "t": 45592.008000000045,
      "d": 197.3680000000022,
      "v": 127
    },
    {
      "midi": 48,
      "hit": false,
      "t": 45789.37600000002,
      "d": 394.73599999999715,
      "v": 127
    },
    {
      "midi": 64,
      "hit": false,
      "t": 45789.37600000005,
      "d": 394.73599999999715,
      "v": 127
    },
    {
      "midi": 72,
      "hit": false,
      "t": 45789.37600000005,
      "d": 394.73599999999715,
      "v": 127
    },
    {
      "midi": 55,
      "hit": false,
      "t": 46184.112000000016,
      "d": 197.3680000000022,
      "v": 127
    },
    {
      "midi": 64,
      "hit": false,
      "t": 46184.112000000045,
      "d": 197.3680000000022,
      "v": 127
    },
    {
      "midi": 53,
      "hit": false,
      "t": 46381.48000000002,
      "d": 197.3680000000022,
      "v": 127
    },
    {
      "midi": 62,
      "hit": false,
      "t": 46381.48000000005,
      "d": 197.3680000000022,
      "v": 127
    },
    {
      "midi": 48,
      "hit": false,
      "t": 46578.84800000002,
      "d": 394.73599999999715,
      "v": 127
    },
    {
      "midi": 52,
      "hit": false,
      "t": 46578.84800000002,
      "d": 394.73599999999715,
      "v": 127
    },
    {
      "midi": 60,
      "hit": false,
      "t": 46578.84800000005,
      "d": 394.73599999999715,
      "v": 127
    }
  ]
}