{
  "jsonPath": "Unknown/Unknown/Friedrich Burgmüller_/ladieu.json",
  "path": "Unknown\\Unknown\\Friedrich Burgmüller_\\LAdieu.mid",
  "name": "LAdieu",
  "difficulty": "Advanced",
  "bpm": 184.00053973491654,
  "notes": [
    {
      "midi": 76,
      "hit": false,
      "t": 0,
      "d": 163.043,
      "v": 127
    },
    {
      "midi": 77,
      "hit": false,
      "t": 163.043,
      "d": 163.043,
      "v": 127
    },
    {
      "midi": 76,
      "hit": false,
      "t": 326.086,
      "d": 163.043,
      "v": 127
    },
    {
      "midi": 76,
      "hit": false,
      "t": 489.129,
      "d": 326.086,
      "v": 127
    },
    {
      "midi": 74,
      "hit": false,
      "t": 815.215,
      "d": 326.0859999999999,
      "v": 127
    },
    {
      "midi": 74,
      "hit": false,
      "t": 1304.344,
      "d": 163.04300000000012,
      "v": 127
    },
    {
      "midi": 76,
      "hit": false,
      "t": 1467.3870000000002,
      "d": 163.04300000000012,
      "v": 127
    },
    {
      "midi": 74,
      "hit": false,
      "t": 1630.4300000000003,
      "d": 163.04300000000012,
      "v": 127
    },
    {
      "midi": 74,
      "hit": false,
      "t": 1793.4730000000004,
      "d": 326.0859999999998,
      "v": 127
    },
    {
      "midi": 72,
      "hit": false,
      "t": 2119.559,
      "d": 326.08600000000024,
      "v": 127
    },
    {
      "midi": 76,
      "hit": false,
      "t": 2608.6880000000006,
      "d": 163.04300000000012,
      "v": 127
    },
    {
      "midi": 75,
      "hit": false,
      "t": 2771.7310000000007,
      "d": 163.04300000000012,
      "v": 127
    },
    {
      "midi": 76,
      "hit": false,
      "t": 2934.774000000001,
      "d": 163.04300000000012,
      "v": 127
    },
    {
      "midi": 86,
      "hit": false,
      "t": 3097.817000000001,
      "d": 489.1289999999999,
      "v": 127
    },
    {
      "midi": 84,
      "hit": false,
      "t": 3586.946000000001,
      "d": 163.04300000000012,
      "v": 127
    },
    {
      "midi": 83,
      "hit": false,
      "t": 3749.989000000001,
      "d": 163.04300000000012,
      "v": 127
    },
    {
      "midi": 81,
      "hit": false,
      "t": 3913.032000000001,
      "d": 163.04300000000012,
      "v": 127
    },
    {
      "midi": 80,
      "hit": false,
      "t": 4076.075000000001,
      "d": 163.04300000000012,
      "v": 127
    },
    {
      "midi": 77,
      "hit": false,
      "t": 4239.118000000001,
      "d": 163.04299999999967,
      "v": 127
    },
    {
      "midi": 76,
      "hit": false,
      "t": 4402.161000000001,
      "d": 163.04299999999967,
      "v": 127
    },
    {
      "midi": 74,
      "hit": false,
      "t": 4565.204000000001,
      "d": 163.04299999999967,
      "v": 127
    },
    {
      "midi": 72,
      "hit": false,
      "t": 4728.247,
      "d": 163.04299999999967,
      "v": 127
    },
    {
      "midi": 71,
      "hit": false,
      "t": 4891.29,
      "d": 163.04299999999967,
      "v": 127
    },
    {
      "midi": 70,
      "hit": false,
      "t": 5054.333,
      "d": 163.04299999999967,
      "v": 127
    },
    {
      "midi": 71,
      "hit": false,
      "t": 5217.375999999999,
      "d": 163.04299999999967,
      "v": 127
    },
    {
      "midi": 76,
      "hit": false,
      "t": 5380.418999999999,
      "d": 163.04299999999967,
      "v": 127
    },
    {
      "midi": 74,
      "hit": false,
      "t": 5543.461999999999,
      "d": 163.04299999999967,
      "v": 127
    },
    {
      "midi": 72,
      "hit": false,
      "t": 5706.504999999998,
      "d": 81.52149999999983,
      "v": 127
    },
    {
      "midi": 69,
      "hit": false,
      "t": 5788.026499999998,
      "d": 81.52149999999983,
      "v": 127
    },
    {
      "midi": 72,
      "hit": false,
      "t": 5951.069499999998,
      "d": 81.52149999999983,
      "v": 127
    },
    {
      "midi": 74,
      "hit": false,
      "t": 6032.590999999998,
      "d": 81.52149999999983,
      "v": 127
    },
    {
      "midi": 76,
      "hit": false,
      "t": 6114.112499999997,
      "d": 81.52149999999983,
      "v": 127
    },
    {
      "midi": 74,
      "hit": false,
      "t": 6277.155499999997,
      "d": 81.52149999999983,
      "v": 127
    },
    {
      "midi": 72,
      "hit": false,
      "t": 6358.676999999997,
      "d": 81.52149999999983,
      "v": 127
    },
    {
      "midi": 74,
      "hit": false,
      "t": 6440.198499999997,
      "d": 81.52149999999983,
      "v": 127
    },
    {
      "midi": 72,
      "hit": false,
      "t": 6603.241499999996,
      "d": 81.52149999999983,
      "v": 127
    },
    {
      "midi": 71,
      "hit": false,
      "t": 6684.762999999996,
      "d": 81.52149999999983,
      "v": 127
    },
    {
      "midi": 72,
      "hit": false,
      "t": 6766.284499999996,
      "d": 81.52149999999983,
      "v": 127
    },
    {
      "midi": 74,
      "hit": false,
      "t": 6929.327499999996,
      "d": 81.52149999999983,
      "v": 127
    },
    {
      "midi": 76,
      "hit": false,
      "t": 7010.848999999996,
      "d": 81.52149999999983,
      "v": 127
    },
    {
      "midi": 72,
      "hit": false,
      "t": 7092.370499999995,
      "d": 81.52149999999983,
      "v": 127
    },
    {
      "midi": 69,
      "hit": false,
      "t": 7255.413499999995,
      "d": 81.52149999999983,
      "v": 127
    },
    {
      "midi": 74,
      "hit": false,
      "t": 7336.934999999995,
      "d": 81.52149999999983,
      "v": 127
    },
    {
      "midi": 76,
      "hit": false,
      "t": 7418.456499999995,
      "d": 81.52149999999983,
      "v": 127
    },
    {
      "midi": 74,
      "hit": false,
      "t": 7581.499499999994,
      "d": 81.52149999999983,
      "v": 127
    },
    {
      "midi": 72,
      "hit": false,
      "t": 7663.020999999994,
      "d": 81.52149999999983,
      "v": 127
    },
    {
      "midi": 74,
      "hit": false,
      "t": 7744.542499999994,
      "d": 81.52149999999983,
      "v": 127
    },
    {
      "midi": 72,
      "hit": false,
      "t": 7907.585499999994,
      "d": 81.52149999999983,
      "v": 127
    },
    {
      "midi": 71,
      "hit": false,
      "t": 7989.106999999994,
      "d": 81.52149999999983,
      "v": 127
    },
    {
      "midi": 72,
      "hit": false,
      "t": 8070.628499999993,
      "d": 81.52149999999983,
      "v": 127
    },
    {
      "midi": 74,
      "hit": false,
      "t": 8233.671499999993,
      "d": 81.52150000000074,
      "v": 127
    },
    {
      "midi": 76,
      "hit": false,
      "t": 8315.192999999994,
      "d": 81.52150000000074,
      "v": 127
    },
    {
      "midi": 72,
      "hit": false,
      "t": 8396.714499999995,
      "d": 81.52150000000074,
      "v": 127
    },
    {
      "midi": 69,
      "hit": false,
      "t": 8559.757499999996,
      "d": 81.52150000000074,
      "v": 127
    },
    {
      "midi": 77,
      "hit": false,
      "t": 8641.278999999997,
      "d": 81.52150000000074,
      "v": 127
    },
    {
      "midi": 74,
      "hit": false,
      "t": 8722.800499999998,
      "d": 81.52150000000074,
      "v": 127
    },
    {
      "midi": 69,
      "hit": false,
      "t": 8885.843499999999,
      "d": 81.52150000000074,
      "v": 127
    },
    {
      "midi": 76,
      "hit": false,
      "t": 8967.365,
      "d": 81.52150000000074,
      "v": 127
    },
    {
      "midi": 72,
      "hit": false,
      "t": 9048.8865,
      "d": 81.52150000000074,
      "v": 127
    },
    {
      "midi": 69,
      "hit": false,
      "t": 9211.929500000002,
      "d": 81.52150000000074,
      "v": 127
    },
    {
      "midi": 75,
      "hit": false,
      "t": 9293.451000000003,
      "d": 81.52150000000074,
      "v": 127
    },
    {
      "midi": 72,
      "hit": false,
      "t": 9374.972500000003,
      "d": 81.52150000000074,
      "v": 127
    },
    {
      "midi": 69,
      "hit": false,
      "t": 9538.015500000005,
      "d": 81.52150000000074,
      "v": 127
    },
    {
      "midi": 76,
      "hit": false,
      "t": 9619.537000000006,
      "d": 81.52150000000074,
      "v": 127
    },
    {
      "midi": 69,
      "hit": false,
      "t": 9701.058500000006,
      "d": 81.52150000000074,
      "v": 127
    },
    {
      "midi": 71,
      "hit": false,
      "t": 9864.101500000008,
      "d": 81.52150000000074,
      "v": 127
    },
    {
      "midi": 72,
      "hit": false,
      "t": 9945.623000000009,
      "d": 81.52150000000074,
      "v": 127
    },
    {
      "midi": 71,
      "hit": false,
      "t": 10027.14450000001,
      "d": 81.52150000000074,
      "v": 127
    },
    {
      "midi": 69,
      "hit": false,
      "t": 10190.187500000011,
      "d": 81.52150000000074,
      "v": 127
    },
    {
      "midi": 76,
      "hit": false,
      "t": 10271.709000000012,
      "d": 81.52150000000074,
      "v": 127
    },
    {
      "midi": 71,
      "hit": false,
      "t": 10353.230500000012,
      "d": 81.52150000000074,
      "v": 127
    },
    {
      "midi": 72,
      "hit": false,
      "t": 10516.273500000014,
      "d": 81.52150000000074,
      "v": 127
    },
    {
      "midi": 74,
      "hit": false,
      "t": 10597.795000000015,
      "d": 81.52150000000074,
      "v": 127
    },
    {
      "midi": 72,
      "hit": false,
      "t": 10679.316500000015,
      "d": 81.52150000000074,
      "v": 127
    },
    {
      "midi": 71,
      "hit": false,
      "t": 10842.359500000017,
      "d": 81.52150000000074,
      "v": 127
    },
    {
      "midi": 72,
      "hit": false,
      "t": 10923.881000000018,
      "d": 81.52150000000074,
      "v": 127
    },
    {
      "midi": 69,
      "hit": false,
      "t": 11005.402500000018,
      "d": 81.52150000000074,
      "v": 127
    },
    {
      "midi": 72,
      "hit": false,
      "t": 11168.44550000002,
      "d": 81.52150000000074,
      "v": 127
    },
    {
      "midi": 74,
      "hit": false,
      "t": 11249.96700000002,
      "d": 81.52150000000074,
      "v": 127
    },
    {
      "midi": 76,
      "hit": false,
      "t": 11331.488500000021,
      "d": 81.52150000000074,
      "v": 127
    },
    {
      "midi": 74,
      "hit": false,
      "t": 11494.531500000023,
      "d": 81.52150000000074,
      "v": 127
    },
    {
      "midi": 72,
      "hit": false,
      "t": 11576.053000000024,
      "d": 81.52150000000074,
      "v": 127
    },
    {
      "midi": 74,
      "hit": false,
      "t": 11657.574500000024,
      "d": 81.52150000000074,
      "v": 127
    },
    {
      "midi": 72,
      "hit": false,
      "t": 11820.617500000026,
      "d": 81.52150000000074,
      "v": 127
    },
    {
      "midi": 71,
      "hit": false,
      "t": 11902.139000000026,
      "d": 81.52150000000074,
      "v": 127
    },
    {
      "midi": 72,
      "hit": false,
      "t": 11983.660500000027,
      "d": 81.52150000000074,
      "v": 127
    },
    {
      "midi": 74,
      "hit": false,
      "t": 12146.703500000029,
      "d": 81.52150000000074,
      "v": 127
    },
    {
      "midi": 76,
      "hit": false,
      "t": 12228.22500000003,
      "d": 81.52150000000074,
      "v": 127
    },
    {
      "midi": 74,
      "hit": false,
      "t": 12309.74650000003,
      "d": 81.52150000000074,
      "v": 127
    },
    {
      "midi": 69,
      "hit": false,
      "t": 12472.789500000032,
      "d": 81.52150000000074,
      "v": 127
    },
    {
      "midi": 74,
      "hit": false,
      "t": 12554.311000000032,
      "d": 81.52150000000074,
      "v": 127
    },
    {
      "midi": 76,
      "hit": false,
      "t": 12635.832500000033,
      "d": 81.52150000000074,
      "v": 127
    },
    {
      "midi": 74,
      "hit": false,
      "t": 12798.875500000035,
      "d": 81.52150000000074,
      "v": 127
    },
    {
      "midi": 72,
      "hit": false,
      "t": 12880.397000000035,
      "d": 81.52150000000074,
      "v": 127
    },
    {
      "midi": 74,
      "hit": false,
      "t": 12961.918500000036,
      "d": 81.52150000000074,
      "v": 127
    },
    {
      "midi": 72,
      "hit": false,
      "t": 13124.961500000038,
      "d": 81.52150000000074,
      "v": 127
    },
    {
      "midi": 71,
      "hit": false,
      "t": 13206.483000000038,
      "d": 81.52150000000074,
      "v": 127
    },
    {
      "midi": 72,
      "hit": false,
      "t": 13288.00450000004,
      "d": 81.52150000000074,
      "v": 127
    },
    {
      "midi": 74,
      "hit": false,
      "t": 13451.04750000004,
      "d": 81.52150000000074,
      "v": 127
    },
    {
      "midi": 76,
      "hit": false,
      "t": 13532.569000000041,
      "d": 81.52150000000074,
      "v": 127
    },
    {
      "midi": 72,
      "hit": false,
      "t": 13614.090500000042,
      "d": 81.52150000000074,
      "v": 127
    },
    {
      "midi": 69,
      "hit": false,
      "t": 13777.133500000044,
      "d": 81.52150000000074,
      "v": 127
    },
    {
      "midi": 79,
      "hit": false,
      "t": 13858.655000000044,
      "d": 81.52150000000074,
      "v": 127
    },
    {
      "midi": 76,
      "hit": false,
      "t": 13940.176500000045,
      "d": 81.52150000000074,
      "v": 127
    },
    {
      "midi": 69,
      "hit": false,
      "t": 14103.219500000047,
      "d": 81.52150000000074,
      "v": 127
    },
    {
      "midi": 77,
      "hit": false,
      "t": 14184.741000000047,
      "d": 81.52150000000074,
      "v": 127
    },
    {
      "midi": 74,
      "hit": false,
      "t": 14266.262500000048,
      "d": 81.52150000000074,
      "v": 127
    },
    {
      "midi": 69,
      "hit": false,
      "t": 14429.30550000005,
      "d": 81.52150000000074,
      "v": 127
    },
    {
      "midi": 81,
      "hit": false,
      "t": 14510.82700000005,
      "d": 81.52150000000074,
      "v": 127
    },
    {
      "midi": 78,
      "hit": false,
      "t": 14592.348500000051,
      "d": 81.52150000000074,
      "v": 127
    },
    {
      "midi": 72,
      "hit": false,
      "t": 14755.391500000052,
      "d": 81.52150000000074,
      "v": 127
    },
    {
      "midi": 81,
      "hit": false,
      "t": 14836.913000000053,
      "d": 81.52150000000074,
      "v": 127
    },
    {
      "midi": 76,
      "hit": false,
      "t": 14918.434500000054,
      "d": 81.52150000000074,
      "v": 127
    },
    {
      "midi": 72,
      "hit": false,
      "t": 15081.477500000055,
      "d": 81.52150000000074,
      "v": 127
    },
    {
      "midi": 76,
      "hit": false,
      "t": 15162.999000000056,
      "d": 81.52150000000074,
      "v": 127
    },
    {
      "midi": 75,
      "hit": false,
      "t": 15244.520500000057,
      "d": 81.52150000000074,
      "v": 127
    },
    {
      "midi": 76,
      "hit": false,
      "t": 15407.563500000058,
      "d": 81.52150000000074,
      "v": 127
    },
    {
      "midi": 81,
      "hit": false,
      "t": 15489.08500000006,
      "d": 81.52150000000074,
      "v": 127
    },
    {
      "midi": 80,
      "hit": false,
      "t": 15570.60650000006,
      "d": 81.52150000000074,
      "v": 127
    },
    {
      "midi": 81,
      "hit": false,
      "t": 15733.649500000061,
      "d": 81.52150000000074,
      "v": 127
    },
    {
      "midi": 84,
      "hit": false,
      "t": 15815.171000000062,
      "d": 81.52150000000074,
      "v": 127
    },
    {
      "midi": 83,
      "hit": false,
      "t": 15896.692500000063,
      "d": 81.52150000000074,
      "v": 127
    },
    {
      "midi": 84,
      "hit": false,
      "t": 16059.735500000064,
      "d": 81.52150000000074,
      "v": 127
    },
    {
      "midi": 88,
      "hit": false,
      "t": 16141.257000000065,
      "d": 163.04299999999967,
      "v": 127
    },
    {
      "midi": 64,
      "hit": false,
      "t": 16467.343000000066,
      "d": 326.08599999999933,
      "v": 127
    },
    {
      "midi": 72,
      "hit": false,
      "t": 16793.429000000066,
      "d": 163.04300000000148,
      "v": 127
    },
    {
      "midi": 71,
      "hit": false,
      "t": 17119.51500000007,
      "d": 326.08599999999933,
      "v": 127
    },
    {
      "midi": 69,
      "hit": false,
      "t": 17445.601000000068,
      "d": 163.04300000000148,
      "v": 127
    },
    {
      "midi": 77,
      "hit": false,
      "t": 17771.68700000007,
      "d": 81.52149999999892,
      "v": 127
    },
    {
      "midi": 76,
      "hit": false,
      "t": 17853.20850000007,
      "d": 81.52149999999892,
      "v": 127
    },
    {
      "midi": 74,
      "hit": false,
      "t": 18016.251500000068,
      "d": 81.52149999999892,
      "v": 127
    },
    {
      "midi": 74,
      "hit": false,
      "t": 18097.773000000067,
      "d": 81.52149999999892,
      "v": 127
    },
    {
      "midi": 72,
      "hit": false,
      "t": 18179.294500000065,
      "d": 81.52149999999892,
      "v": 127
    },
    {
      "midi": 71,
      "hit": false,
      "t": 18342.337500000063,
      "d": 81.52149999999892,
      "v": 127
    },
    {
      "midi": 71,
      "hit": false,
      "t": 18423.859000000062,
      "d": 81.52149999999892,
      "v": 127
    },
    {
      "midi": 69,
      "hit": false,
      "t": 18505.38050000006,
      "d": 81.52149999999892,
      "v": 127
    },
    {
      "midi": 68,
      "hit": false,
      "t": 18668.42350000006,
      "d": 81.52149999999892,
      "v": 127
    },
    {
      "midi": 69,
      "hit": false,
      "t": 18749.945000000058,
      "d": 163.04300000000148,
      "v": 127
    },
    {
      "midi": 77,
      "hit": false,
      "t": 19076.03100000006,
      "d": 81.52149999999892,
      "v": 127
    },
    {
      "midi": 76,
      "hit": false,
      "t": 19157.55250000006,
      "d": 81.52149999999892,
      "v": 127
    },
    {
      "midi": 74,
      "hit": false,
      "t": 19320.595500000058,
      "d": 81.52149999999892,
      "v": 127
    },
    {
      "midi": 74,
      "hit": false,
      "t": 19402.117000000057,
      "d": 81.52149999999892,
      "v": 127
    },
    {
      "midi": 72,
      "hit": false,
      "t": 19483.638500000056,
      "d": 81.52149999999892,
      "v": 127
    },
    {
      "midi": 71,
      "hit": false,
      "t": 19646.681500000053,
      "d": 81.52149999999892,
      "v": 127
    },
    {
      "midi": 71,
      "hit": false,
      "t": 19728.203000000052,
      "d": 81.52149999999892,
      "v": 127
    },
    {
      "midi": 69,
      "hit": false,
      "t": 19809.72450000005,
      "d": 81.52149999999892,
      "v": 127
    },
    {
      "midi": 68,
      "hit": false,
      "t": 19972.76750000005,
      "d": 81.52149999999892,
      "v": 127
    },
    {
      "midi": 69,
      "hit": false,
      "t": 20054.289000000048,
      "d": 81.52149999999892,
      "v": 127
    },
    {
      "midi": 72,
      "hit": false,
      "t": 20135.810500000047,
      "d": 81.52149999999892,
      "v": 127
    },
    {
      "midi": 71,
      "hit": false,
      "t": 20298.853500000045,
      "d": 81.52149999999892,
      "v": 127
    },
    {
      "midi": 69,
      "hit": false,
      "t": 20380.375000000044,
      "d": 81.52149999999892,
      "v": 127
    },
    {
      "midi": 72,
      "hit": false,
      "t": 20461.896500000043,
      "d": 81.52149999999892,
      "v": 127
    },
    {
      "midi": 76,
      "hit": false,
      "t": 20624.93950000004,
      "d": 81.52149999999892,
      "v": 127
    },
    {
      "midi": 81,
      "hit": false,
      "t": 20706.46100000004,
      "d": 163.04300000000148,
      "v": 127
    },
    {
      "midi": 79,
      "hit": false,
      "t": 21358.63300000004,
      "d": 326.08599999999933,
      "v": 127
    },
    {
      "midi": 76,
      "hit": false,
      "t": 21684.71900000004,
      "d": 326.08599999999933,
      "v": 127
    },
    {
      "midi": 84,
      "hit": false,
      "t": 22010.80500000004,
      "d": 163.04300000000148,
      "v": 127
    },
    {
      "midi": 81,
      "hit": false,
      "t": 22336.891000000043,
      "d": 326.08599999999933,
      "v": 127
    },
    {
      "midi": 79,
      "hit": false,
      "t": 22662.977000000043,
      "d": 326.08599999999933,
      "v": 127
    },
    {
      "midi": 88,
      "hit": false,
      "t": 22989.063000000042,
      "d": 326.08599999999933,
      "v": 127
    },
    {
      "midi": 84,
      "hit": false,
      "t": 23315.14900000004,
      "d": 163.04300000000148,
      "v": 127
    },
    {
      "midi": 79,
      "hit": false,
      "t": 23641.235000000044,
      "d": 326.08599999999933,
      "v": 127
    },
    {
      "midi": 79,
      "hit": false,
      "t": 23967.321000000044,
      "d": 326.08599999999933,
      "v": 127
    },
    {
      "midi": 77,
      "hit": false,
      "t": 24293.407000000043,
      "d": 326.08599999999933,
      "v": 127
    },
    {
      "midi": 77,
      "hit": false,
      "t": 24619.493000000042,
      "d": 163.04300000000148,
      "v": 127
    },
    {
      "midi": 76,
      "hit": false,
      "t": 24945.579000000045,
      "d": 326.08599999999933,
      "v": 127
    },
    {
      "midi": 74,
      "hit": false,
      "t": 25271.665000000045,
      "d": 326.08599999999933,
      "v": 127
    },
    {
      "midi": 79,
      "hit": false,
      "t": 25597.751000000044,
      "d": 326.08599999999933,
      "v": 127
    },
    {
      "midi": 77,
      "hit": false,
      "t": 25923.837000000043,
      "d": 163.04300000000148,
      "v": 127
    },
    {
      "midi": 74,
      "hit": false,
      "t": 26249.923000000046,
      "d": 326.08599999999933,
      "v": 127
    },
    {
      "midi": 79,
      "hit": false,
      "t": 26576.009000000045,
      "d": 326.08599999999933,
      "v": 127
    },
    {
      "midi": 76,
      "hit": false,
      "t": 26902.095000000045,
      "d": 326.08599999999933,
      "v": 127
    },
    {
      "midi": 84,
      "hit": false,
      "t": 27228.181000000044,
      "d": 163.04300000000148,
      "v": 127
    },
    {
      "midi": 81,
      "hit": false,
      "t": 27554.267000000047,
      "d": 326.08599999999933,
      "v": 127
    },
    {
      "midi": 79,
      "hit": false,
      "t": 27880.353000000046,
      "d": 326.08599999999933,
      "v": 127
    },
    {
      "midi": 91,
      "hit": false,
      "t": 28206.439000000046,
      "d": 326.08599999999933,
      "v": 127
    },
    {
      "midi": 88,
      "hit": false,
      "t": 28532.525000000045,
      "d": 163.04300000000148,
      "v": 127
    },
    {
      "midi": 84,
      "hit": false,
      "t": 28858.611000000048,
      "d": 326.08599999999933,
      "v": 127
    },
    {
      "midi": 83,
      "hit": false,
      "t": 29184.697000000047,
      "d": 326.08599999999933,
      "v": 127
    },
    {
      "midi": 80,
      "hit": false,
      "t": 29510.783000000047,
      "d": 326.08599999999933,
      "v": 127
    },
    {
      "midi": 77,
      "hit": false,
      "t": 29836.869000000046,
      "d": 163.04300000000148,
      "v": 127
    },
    {
      "midi": 74,
      "hit": false,
      "t": 30162.95500000005,
      "d": 326.08599999999933,
      "v": 127
    },
    {
      "midi": 72,
      "hit": false,
      "t": 30489.04100000005,
      "d": 326.08599999999933,
      "v": 127
    },
    {
      "midi": 76,
      "hit": false,
      "t": 30815.127000000048,
      "d": 326.08599999999933,
      "v": 127
    },
    {
      "midi": 76,
      "hit": false,
      "t": 31141.213000000047,
      "d": 163.04300000000148,
      "v": 127
    },
    {
      "midi": 74,
      "hit": false,
      "t": 31467.29900000005,
      "d": 326.08599999999933,
      "v": 127
    },
    {
      "midi": 72,
      "hit": false,
      "t": 31793.38500000005,
      "d": 81.52149999999892,
      "v": 127
    },
    {
      "midi": 69,
      "hit": false,
      "t": 31874.90650000005,
      "d": 81.52149999999892,
      "v": 127
    },
    {
      "midi": 72,
      "hit": false,
      "t": 32037.949500000046,
      "d": 81.52149999999892,
      "v": 127
    },
    {
      "midi": 74,
      "hit": false,
      "t": 32119.471000000045,
      "d": 81.52149999999892,
      "v": 127
    },
    {
      "midi": 76,
      "hit": false,
      "t": 32200.992500000044,
      "d": 81.52149999999892,
      "v": 127
    },
    {
      "midi": 74,
      "hit": false,
      "t": 32364.03550000004,
      "d": 81.52149999999892,
      "v": 127
    },
    {
      "midi": 72,
      "hit": false,
      "t": 32445.55700000004,
      "d": 81.52149999999892,
      "v": 127
    },
    {
      "midi": 74,
      "hit": false,
      "t": 32527.07850000004,
      "d": 81.52149999999892,
      "v": 127
    },
    {
      "midi": 72,
      "hit": false,
      "t": 32690.121500000037,
      "d": 81.52150000000256,
      "v": 127
    },
    {
      "midi": 71,
      "hit": false,
      "t": 32771.64300000004,
      "d": 81.52150000000256,
      "v": 127
    },
    {
      "midi": 72,
      "hit": false,
      "t": 32853.16450000004,
      "d": 81.52150000000256,
      "v": 127
    },
    {
      "midi": 74,
      "hit": false,
      "t": 33016.20750000005,
      "d": 81.52150000000256,
      "v": 127
    },
    {
      "midi": 76,
      "hit": false,
      "t": 33097.72900000005,
      "d": 81.52150000000256,
      "v": 127
    },
    {
      "midi": 72,
      "hit": false,
      "t": 33179.25050000005,
      "d": 81.52150000000256,
      "v": 127
    },
    {
      "midi": 69,
      "hit": false,
      "t": 33342.29350000006,
      "d": 81.52150000000256,
      "v": 127
    },
    {
      "midi": 74,
      "hit": false,
      "t": 33423.81500000006,
      "d": 81.52150000000256,
      "v": 127
    },
    {
      "midi": 76,
      "hit": false,
      "t": 33505.33650000006,
      "d": 81.52150000000256,
      "v": 127
    },
    {
      "midi": 74,
      "hit": false,
      "t": 33668.37950000007,
      "d": 81.52150000000256,
      "v": 127
    },
    {
      "midi": 72,
      "hit": false,
      "t": 33749.90100000007,
      "d": 81.52150000000256,
      "v": 127
    },
    {
      "midi": 74,
      "hit": false,
      "t": 33831.42250000007,
      "d": 81.52150000000256,
      "v": 127
    },
    {
      "midi": 72,
      "hit": false,
      "t": 33994.46550000008,
      "d": 81.52150000000256,
      "v": 127
    },
    {
      "midi": 71,
      "hit": false,
      "t": 34075.98700000008,
      "d": 81.52150000000256,
      "v": 127
    },
    {
      "midi": 72,
      "hit": false,
      "t": 34157.50850000008,
      "d": 81.52150000000256,
      "v": 127
    },
    {
      "midi": 74,
      "hit": false,
      "t": 34320.55150000009,
      "d": 81.52150000000256,
      "v": 127
    },
    {
      "midi": 76,
      "hit": false,
      "t": 34402.07300000009,
      "d": 81.52150000000256,
      "v": 127
    },
    {
      "midi": 72,
      "hit": false,
      "t": 34483.594500000094,
      "d": 81.52150000000256,
      "v": 127
    },
    {
      "midi": 69,
      "hit": false,
      "t": 34646.6375000001,
      "d": 81.52150000000256,
      "v": 127
    },
    {
      "midi": 77,
      "hit": false,
      "t": 34728.1590000001,
      "d": 81.52150000000256,
      "v": 127
    },
    {
      "midi": 74,
      "hit": false,
      "t": 34809.680500000104,
      "d": 81.52150000000256,
      "v": 127
    },
    {
      "midi": 69,
      "hit": false,
      "t": 34972.72350000011,
      "d": 81.52150000000256,
      "v": 127
    },
    {
      "midi": 76,
      "hit": false,
      "t": 35054.24500000011,
      "d": 81.52150000000256,
      "v": 127
    },
    {
      "midi": 72,
      "hit": false,
      "t": 35135.766500000114,
      "d": 81.52150000000256,
      "v": 127
    },
    {
      "midi": 69,
      "hit": false,
      "t": 35298.80950000012,
      "d": 81.52150000000256,
      "v": 127
    },
    {
      "midi": 75,
      "hit": false,
      "t": 35380.33100000012,
      "d": 81.52150000000256,
      "v": 127
    },
    {
      "midi": 72,
      "hit": false,
      "t": 35461.852500000125,
      "d": 81.52150000000256,
      "v": 127
    },
    {
      "midi": 69,
      "hit": false,
      "t": 35624.89550000013,
      "d": 81.52150000000256,
      "v": 127
    },
    {
      "midi": 76,
      "hit": false,
      "t": 35706.41700000013,
      "d": 81.52150000000256,
      "v": 127
    },
    {
      "midi": 69,
      "hit": false,
      "t": 35787.938500000135,
      "d": 81.52150000000256,
      "v": 127
    },
    {
      "midi": 71,
      "hit": false,
      "t": 35950.98150000014,
      "d": 81.52150000000256,
      "v": 127
    },
    {
      "midi": 72,
      "hit": false,
      "t": 36032.50300000014,
      "d": 81.52150000000256,
      "v": 127
    },
    {
      "midi": 71,
      "hit": false,
      "t": 36114.024500000145,
      "d": 81.52150000000256,
      "v": 127
    },
    {
      "midi": 69,
      "hit": false,
      "t": 36277.06750000015,
      "d": 81.52150000000256,
      "v": 127
    },
    {
      "midi": 76,
      "hit": false,
      "t": 36358.58900000015,
      "d": 81.52150000000256,
      "v": 127
    },
    {
      "midi": 71,
      "hit": false,
      "t": 36440.110500000155,
      "d": 81.52150000000256,
      "v": 127
    },
    {
      "midi": 72,
      "hit": false,
      "t": 36603.15350000016,
      "d": 81.52150000000256,
      "v": 127
    },
    {
      "midi": 74,
      "hit": false,
      "t": 36684.67500000016,
      "d": 81.52150000000256,
      "v": 127
    },
    {
      "midi": 72,
      "hit": false,
      "t": 36766.196500000166,
      "d": 81.52150000000256,
      "v": 127
    },
    {
      "midi": 71,
      "hit": false,
      "t": 36929.23950000017,
      "d": 81.52150000000256,
      "v": 127
    },
    {
      "midi": 72,
      "hit": false,
      "t": 37010.76100000017,
      "d": 81.52150000000256,
      "v": 127
    },
    {
      "midi": 69,
      "hit": false,
      "t": 37092.282500000176,
      "d": 81.52150000000256,
      "v": 127
    },
    {
      "midi": 72,
      "hit": false,
      "t": 37255.32550000018,
      "d": 81.52150000000256,
      "v": 127
    },
    {
      "midi": 74,
      "hit": false,
      "t": 37336.84700000018,
      "d": 81.52150000000256,
      "v": 127
    },
    {
      "midi": 76,
      "hit": false,
      "t": 37418.368500000186,
      "d": 81.52150000000256,
      "v": 127
    },
    {
      "midi": 74,
      "hit": false,
      "t": 37581.41150000019,
      "d": 81.52150000000256,
      "v": 127
    },
    {
      "midi": 72,
      "hit": false,
      "t": 37662.933000000194,
      "d": 81.52150000000256,
      "v": 127
    },
    {
      "midi": 74,
      "hit": false,
      "t": 37744.454500000196,
      "d": 81.52150000000256,
      "v": 127
    },
    {
      "midi": 72,
      "hit": false,
      "t": 37907.4975000002,
      "d": 81.52150000000256,
      "v": 127
    },
    {
      "midi": 71,
      "hit": false,
      "t": 37989.019000000204,
      "d": 81.52150000000256,
      "v": 127
    },
    {
      "midi": 72,
      "hit": false,
      "t": 38070.54050000021,
      "d": 81.52150000000256,
      "v": 127
    },
    {
      "midi": 74,
      "hit": false,
      "t": 38233.58350000021,
      "d": 81.52150000000256,
      "v": 127
    },
    {
      "midi": 76,
      "hit": false,
      "t": 38315.105000000214,
      "d": 81.52150000000256,
      "v": 127
    },
    {
      "midi": 72,
      "hit": false,
      "t": 38396.62650000022,
      "d": 81.52150000000256,
      "v": 127
    },
    {
      "midi": 69,
      "hit": false,
      "t": 38559.66950000022,
      "d": 81.52150000000256,
      "v": 127
    },
    {
      "midi": 74,
      "hit": false,
      "t": 38641.191000000224,
      "d": 81.52150000000256,
      "v": 127
    },
    {
      "midi": 76,
      "hit": false,
      "t": 38722.71250000023,
      "d": 81.52150000000256,
      "v": 127
    },
    {
      "midi": 74,
      "hit": false,
      "t": 38885.75550000023,
      "d": 81.52150000000256,
      "v": 127
    },
    {
      "midi": 72,
      "hit": false,
      "t": 38967.277000000235,
      "d": 81.52150000000256,
      "v": 127
    },
    {
      "midi": 74,
      "hit": false,
      "t": 39048.79850000024,
      "d": 81.52150000000256,
      "v": 127
    },
    {
      "midi": 72,
      "hit": false,
      "t": 39211.84150000024,
      "d": 81.52150000000256,
      "v": 127
    },
    {
      "midi": 71,
      "hit": false,
      "t": 39293.363000000245,
      "d": 81.52150000000256,
      "v": 127
    },
    {
      "midi": 72,
      "hit": false,
      "t": 39374.88450000025,
      "d": 81.52150000000256,
      "v": 127
    },
    {
      "midi": 74,
      "hit": false,
      "t": 39537.92750000025,
      "d": 81.52150000000256,
      "v": 127
    },
    {
      "midi": 76,
      "hit": false,
      "t": 39619.449000000255,
      "d": 81.52150000000256,
      "v": 127
    },
    {
      "midi": 72,
      "hit": false,
      "t": 39700.97050000026,
      "d": 81.52150000000256,
      "v": 127
    },
    {
      "midi": 69,
      "hit": false,
      "t": 39864.01350000026,
      "d": 81.52150000000256,
      "v": 127
    },
    {
      "midi": 79,
      "hit": false,
      "t": 39945.535000000265,
      "d": 81.52150000000256,
      "v": 127
    },
    {
      "midi": 76,
      "hit": false,
      "t": 40027.05650000027,
      "d": 81.52150000000256,
      "v": 127
    },
    {
      "midi": 69,
      "hit": false,
      "t": 40190.09950000027,
      "d": 81.52150000000256,
      "v": 127
    },
    {
      "midi": 77,
      "hit": false,
      "t": 40271.621000000276,
      "d": 81.52150000000256,
      "v": 127
    },
    {
      "midi": 74,
      "hit": false,
      "t": 40353.14250000028,
      "d": 81.52150000000256,
      "v": 127
    },
    {
      "midi": 69,
      "hit": false,
      "t": 40516.18550000028,
      "d": 81.52150000000256,
      "v": 127
    },
    {
      "midi": 81,
      "hit": false,
      "t": 40597.707000000286,
      "d": 81.52150000000256,
      "v": 127
    },
    {
      "midi": 78,
      "hit": false,
      "t": 40679.22850000029,
      "d": 81.52150000000256,
      "v": 127
    },
    {
      "midi": 72,
      "hit": false,
      "t": 40842.27150000029,
      "d": 81.52150000000256,
      "v": 127
    },
    {
      "midi": 81,
      "hit": false,
      "t": 40923.793000000296,
      "d": 81.52150000000256,
      "v": 127
    },
    {
      "midi": 76,
      "hit": false,
      "t": 41005.3145000003,
      "d": 81.52150000000256,
      "v": 127
    },
    {
      "midi": 72,
      "hit": false,
      "t": 41168.357500000304,
      "d": 81.52150000000256,
      "v": 127
    },
    {
      "midi": 76,
      "hit": false,
      "t": 41249.87900000031,
      "d": 81.52150000000256,
      "v": 127
    },
    {
      "midi": 75,
      "hit": false,
      "t": 41331.40050000031,
      "d": 81.52150000000256,
      "v": 127
    },
    {
      "midi": 76,
      "hit": false,
      "t": 41494.443500000314,
      "d": 81.52150000000256,
      "v": 127
    },
    {
      "midi": 81,
      "hit": false,
      "t": 41575.96500000032,
      "d": 81.52150000000256,
      "v": 127
    },
    {
      "midi": 80,
      "hit": false,
      "t": 41657.48650000032,
      "d": 81.52150000000256,
      "v": 127
    },
    {
      "midi": 81,
      "hit": false,
      "t": 41820.529500000324,
      "d": 81.52150000000256,
      "v": 127
    },
    {
      "midi": 84,
      "hit": false,
      "t": 41902.05100000033,
      "d": 81.52150000000256,
      "v": 127
    },
    {
      "midi": 83,
      "hit": false,
      "t": 41983.57250000033,
      "d": 81.52150000000256,
      "v": 127
    },
    {
      "midi": 84,
      "hit": false,
      "t": 42146.615500000335,
      "d": 81.52150000000256,
      "v": 127
    },
    {
      "midi": 88,
      "hit": false,
      "t": 42228.13700000034,
      "d": 163.04299999999785,
      "v": 127
    },
    {
      "midi": 64,
      "hit": false,
      "t": 42554.22300000033,
      "d": 326.08600000000297,
      "v": 127
    },
    {
      "midi": 72,
      "hit": false,
      "t": 42880.309000000336,
      "d": 163.04299999999785,
      "v": 127
    },
    {
      "midi": 71,
      "hit": false,
      "t": 43206.39500000033,
      "d": 326.08600000000297,
      "v": 127
    },
    {
      "midi": 69,
      "hit": false,
      "t": 43532.481000000334,
      "d": 163.04299999999785,
      "v": 127
    },
    {
      "midi": 77,
      "hit": false,
      "t": 43858.56700000033,
      "d": 81.52150000000256,
      "v": 127
    },
    {
      "midi": 76,
      "hit": false,
      "t": 43940.08850000033,
      "d": 81.52150000000256,
      "v": 127
    },
    {
      "midi": 74,
      "hit": false,
      "t": 44103.13150000034,
      "d": 81.52150000000256,
      "v": 127
    },
    {
      "midi": 74,
      "hit": false,
      "t": 44184.65300000034,
      "d": 81.52150000000256,
      "v": 127
    },
    {
      "midi": 72,
      "hit": false,
      "t": 44266.17450000034,
      "d": 81.52150000000256,
      "v": 127
    },
    {
      "midi": 71,
      "hit": false,
      "t": 44429.21750000035,
      "d": 81.52150000000256,
      "v": 127
    },
    {
      "midi": 71,
      "hit": false,
      "t": 44510.73900000035,
      "d": 81.52150000000256,
      "v": 127
    },
    {
      "midi": 69,
      "hit": false,
      "t": 44592.26050000035,
      "d": 81.52150000000256,
      "v": 127
    },
    {
      "midi": 68,
      "hit": false,
      "t": 44755.30350000036,
      "d": 81.52150000000256,
      "v": 127
    },
    {
      "midi": 69,
      "hit": false,
      "t": 44836.82500000036,
      "d": 163.04299999999785,
      "v": 127
    },
    {
      "midi": 77,
      "hit": false,
      "t": 45162.91100000036,
      "d": 81.52150000000256,
      "v": 127
    },
    {
      "midi": 76,
      "hit": false,
      "t": 45244.43250000036,
      "d": 81.52150000000256,
      "v": 127
    },
    {
      "midi": 74,
      "hit": false,
      "t": 45407.475500000364,
      "d": 81.52150000000256,
      "v": 127
    },
    {
      "midi": 74,
      "hit": false,
      "t": 45488.99700000037,
      "d": 81.52150000000256,
      "v": 127
    },
    {
      "midi": 72,
      "hit": false,
      "t": 45570.51850000037,
      "d": 81.52150000000256,
      "v": 127
    },
    {
      "midi": 71,
      "hit": false,
      "t": 45733.561500000375,
      "d": 81.52150000000256,
      "v": 127
    },
    {
      "midi": 71,
      "hit": false,
      "t": 45815.08300000038,
      "d": 81.52150000000256,
      "v": 127
    },
    {
      "midi": 69,
      "hit": false,
      "t": 45896.60450000038,
      "d": 81.52150000000256,
      "v": 127
    },
    {
      "midi": 68,
      "hit": false,
      "t": 46059.647500000385,
      "d": 81.52150000000256,
      "v": 127
    },
    {
      "midi": 69,
      "hit": false,
      "t": 46141.16900000039,
      "d": 81.52150000000256,
      "v": 127
    },
    {
      "midi": 72,
      "hit": false,
      "t": 46222.69050000039,
      "d": 81.52150000000256,
      "v": 127
    },
    {
      "midi": 71,
      "hit": false,
      "t": 46385.733500000395,
      "d": 81.52150000000256,
      "v": 127
    },
    {
      "midi": 69,
      "hit": false,
      "t": 46467.2550000004,
      "d": 81.52150000000256,
      "v": 127
    },
    {
      "midi": 72,
      "hit": false,
      "t": 46548.7765000004,
      "d": 81.52150000000256,
      "v": 127
    },
    {
      "midi": 76,
      "hit": false,
      "t": 46711.819500000405,
      "d": 81.52150000000256,
      "v": 127
    },
    {
      "midi": 81,
      "hit": false,
      "t": 46793.34100000041,
      "d": 163.04299999999785,
      "v": 127
    },
    {
      "midi": 81,
      "hit": false,
      "t": 47445.51300000041,
      "d": 81.52150000000256,
      "v": 127
    },
    {
      "midi": 84,
      "hit": false,
      "t": 47527.03450000041,
      "d": 81.52150000000256,
      "v": 127
    },
    {
      "midi": 83,
      "hit": false,
      "t": 47690.077500000414,
      "d": 81.52150000000256,
      "v": 127
    },
    {
      "midi": 81,
      "hit": false,
      "t": 47771.59900000042,
      "d": 81.52150000000256,
      "v": 127
    },
    {
      "midi": 84,
      "hit": false,
      "t": 47853.12050000042,
      "d": 81.52150000000256,
      "v": 127
    },
    {
      "midi": 88,
      "hit": false,
      "t": 48016.163500000424,
      "d": 81.52150000000256,
      "v": 127
    },
    {
      "midi": 93,
      "hit": false,
      "t": 48097.68500000043,
      "d": 163.04299999999785,
      "v": 127
    },
    {
      "midi": 69,
      "hit": false,
      "t": 48749.857000000426,
      "d": 81.52150000000256,
      "v": 127
    },
    {
      "midi": 72,
      "hit": false,
      "t": 48831.37850000043,
      "d": 81.52150000000256,
      "v": 127
    },
    {
      "midi": 71,
      "hit": false,
      "t": 48994.42150000043,
      "d": 81.52150000000256,
      "v": 127
    },
    {
      "midi": 69,
      "hit": false,
      "t": 49075.943000000436,
      "d": 81.52150000000256,
      "v": 127
    },
    {
      "midi": 72,
      "hit": false,
      "t": 49157.46450000044,
      "d": 81.52150000000256,
      "v": 127
    },
    {
      "midi": 76,
      "hit": false,
      "t": 49320.50750000044,
      "d": 81.52150000000256,
      "v": 127
    },
    {
      "midi": 81,
      "hit": false,
      "t": 49402.029000000446,
      "d": 163.04299999999785,
      "v": 127
    },
    {
      "midi": 81,
      "hit": false,
      "t": 50054.201000000445,
      "d": 81.52150000000256,
      "v": 127
    },
    {
      "midi": 84,
      "hit": false,
      "t": 50135.72250000045,
      "d": 81.52150000000256,
      "v": 127
    },
    {
      "midi": 83,
      "hit": false,
      "t": 50298.76550000045,
      "d": 81.52150000000256,
      "v": 127
    },
    {
      "midi": 81,
      "hit": false,
      "t": 50380.287000000455,
      "d": 81.52150000000256,
      "v": 127
    },
    {
      "midi": 84,
      "hit": false,
      "t": 50461.80850000046,
      "d": 81.52150000000256,
      "v": 127
    },
    {
      "midi": 88,
      "hit": false,
      "t": 50624.85150000046,
      "d": 81.52150000000256,
      "v": 127
    },
    {
      "midi": 93,
      "hit": false,
      "t": 50706.373000000465,
      "d": 163.04299999999785,
      "v": 127
    },
    {
      "midi": 69,
      "hit": false,
      "t": 51358.545000000464,
      "d": 326.08600000000297,
      "v": 127
    },
    {
      "midi": 72,
      "hit": false,
      "t": 52010.71700000047,
      "d": 163.04299999999785,
      "v": 127
    },
    {
      "midi": 81,
      "hit": false,
      "t": 52010.71700000047,
      "d": 163.04299999999785,
      "v": 127
    },
    {
      "midi": 60,
      "hit": false,
      "t": 52662.88900000047,
      "d": 652.1719999999987,
      "v": 127
    },
    {
      "midi": 69,
      "hit": false,
      "t": 52662.88900000047,
      "d": 652.1719999999987,
      "v": 127
    }
  ]
}