{
  "jsonPath": "Unknown/Unknown/Friedrich Burgmüller_/restlessness.json",
  "path": "Unknown\\Unknown\\Friedrich Burgmüller_\\Restlessness.mid",
  "name": "Restlessness",
  "difficulty": "Advanced",
  "bpm": 100,
  "notes": [
    {
      "midi": 52,
      "hit": false,
      "t": 0,
      "d": 300,
      "v": 67
    },
    {
      "midi": 55,
      "hit": false,
      "t": 0,
      "d": 300,
      "v": 67
    },
    {
      "midi": 59,
      "hit": false,
      "t": 0,
      "d": 300,
      "v": 67
    },
    {
      "midi": 79,
      "hit": false,
      "t": 150,
      "d": 150,
      "v": 69
    },
    {
      "midi": 78,
      "hit": false,
      "t": 300,
      "d": 150,
      "v": 75
    },
    {
      "midi": 76,
      "hit": false,
      "t": 450,
      "d": 150,
      "v": 70
    },
    {
      "midi": 52,
      "hit": false,
      "t": 600,
      "d": 300,
      "v": 63
    },
    {
      "midi": 57,
      "hit": false,
      "t": 600,
      "d": 300,
      "v": 63
    },
    {
      "midi": 60,
      "hit": false,
      "t": 600,
      "d": 300,
      "v": 63
    },
    {
      "midi": 76,
      "hit": false,
      "t": 750,
      "d": 150,
      "v": 66
    },
    {
      "midi": 74,
      "hit": false,
      "t": 900,
      "d": 150,
      "v": 66
    },
    {
      "midi": 72,
      "hit": false,
      "t": 1050,
      "d": 150,
      "v": 72
    },
    {
      "midi": 52,
      "hit": false,
      "t": 1200,
      "d": 300,
      "v": 73
    },
    {
      "midi": 55,
      "hit": false,
      "t": 1200,
      "d": 300,
      "v": 73
    },
    {
      "midi": 59,
      "hit": false,
      "t": 1200,
      "d": 300,
      "v": 73
    },
    {
      "midi": 71,
      "hit": false,
      "t": 1350,
      "d": 150,
      "v": 68
    },
    {
      "midi": 70,
      "hit": false,
      "t": 1500,
      "d": 150,
      "v": 69
    },
    {
      "midi": 71,
      "hit": false,
      "t": 1650,
      "d": 150,
      "v": 79
    },
    {
      "midi": 52,
      "hit": false,
      "t": 1800,
      "d": 300,
      "v": 66
    },
    {
      "midi": 55,
      "hit": false,
      "t": 1800,
      "d": 300,
      "v": 66
    },
    {
      "midi": 59,
      "hit": false,
      "t": 1800,
      "d": 300,
      "v": 66
    },
    {
      "midi": 71,
      "hit": false,
      "t": 1950,
      "d": 150,
      "v": 66
    },
    {
      "midi": 72,
      "hit": false,
      "t": 2100,
      "d": 150,
      "v": 79
    },
    {
      "midi": 71,
      "hit": false,
      "t": 2250,
      "d": 150,
      "v": 70
    },
    {
      "midi": 52,
      "hit": false,
      "t": 2400,
      "d": 300,
      "v": 68
    },
    {
      "midi": 55,
      "hit": false,
      "t": 2400,
      "d": 300,
      "v": 68
    },
    {
      "midi": 59,
      "hit": false,
      "t": 2400,
      "d": 300,
      "v": 68
    },
    {
      "midi": 79,
      "hit": false,
      "t": 2550,
      "d": 150,
      "v": 67
    },
    {
      "midi": 78,
      "hit": false,
      "t": 2700,
      "d": 150,
      "v": 71
    },
    {
      "midi": 76,
      "hit": false,
      "t": 2850,
      "d": 150,
      "v": 74
    },
    {
      "midi": 52,
      "hit": false,
      "t": 3000,
      "d": 300,
      "v": 70
    },
    {
      "midi": 57,
      "hit": false,
      "t": 3000,
      "d": 300,
      "v": 70
    },
    {
      "midi": 60,
      "hit": false,
      "t": 3000,
      "d": 300,
      "v": 70
    },
    {
      "midi": 76,
      "hit": false,
      "t": 3150,
      "d": 150,
      "v": 73
    },
    {
      "midi": 74,
      "hit": false,
      "t": 3300,
      "d": 150,
      "v": 69
    },
    {
      "midi": 72,
      "hit": false,
      "t": 3450,
      "d": 150,
      "v": 68
    },
    {
      "midi": 52,
      "hit": false,
      "t": 3600,
      "d": 300,
      "v": 70
    },
    {
      "midi": 55,
      "hit": false,
      "t": 3600,
      "d": 300,
      "v": 70
    },
    {
      "midi": 59,
      "hit": false,
      "t": 3600,
      "d": 300,
      "v": 70
    },
    {
      "midi": 71,
      "hit": false,
      "t": 3750,
      "d": 150,
      "v": 70
    },
    {
      "midi": 70,
      "hit": false,
      "t": 3900,
      "d": 150,
      "v": 72
    },
    {
      "midi": 71,
      "hit": false,
      "t": 4050,
      "d": 150,
      "v": 78
    },
    {
      "midi": 52,
      "hit": false,
      "t": 4200,
      "d": 300,
      "v": 72
    },
    {
      "midi": 55,
      "hit": false,
      "t": 4200,
      "d": 300,
      "v": 72
    },
    {
      "midi": 59,
      "hit": false,
      "t": 4200,
      "d": 300,
      "v": 72
    },
    {
      "midi": 71,
      "hit": false,
      "t": 4350,
      "d": 150,
      "v": 71
    },
    {
      "midi": 72,
      "hit": false,
      "t": 4500,
      "d": 150,
      "v": 80
    },
    {
      "midi": 71,
      "hit": false,
      "t": 4650,
      "d": 150,
      "v": 74
    },
    {
      "midi": 51,
      "hit": false,
      "t": 4800,
      "d": 300,
      "v": 69
    },
    {
      "midi": 57,
      "hit": false,
      "t": 4800,
      "d": 300,
      "v": 69
    },
    {
      "midi": 59,
      "hit": false,
      "t": 4800,
      "d": 300,
      "v": 69
    },
    {
      "midi": 71,
      "hit": false,
      "t": 4950,
      "d": 150,
      "v": 67
    },
    {
      "midi": 79,
      "hit": false,
      "t": 5100,
      "d": 150,
      "v": 88
    },
    {
      "midi": 78,
      "hit": false,
      "t": 5250,
      "d": 150,
      "v": 75
    },
    {
      "midi": 51,
      "hit": false,
      "t": 5400,
      "d": 300,
      "v": 70
    },
    {
      "midi": 57,
      "hit": false,
      "t": 5400,
      "d": 300,
      "v": 70
    },
    {
      "midi": 59,
      "hit": false,
      "t": 5400,
      "d": 300,
      "v": 70
    },
    {
      "midi": 71,
      "hit": false,
      "t": 5550,
      "d": 150,
      "v": 70
    },
    {
      "midi": 79,
      "hit": false,
      "t": 5700,
      "d": 150,
      "v": 88
    },
    {
      "midi": 78,
      "hit": false,
      "t": 5850,
      "d": 150,
      "v": 76
    },
    {
      "midi": 52,
      "hit": false,
      "t": 6000,
      "d": 300,
      "v": 68
    },
    {
      "midi": 55,
      "hit": false,
      "t": 6000,
      "d": 300,
      "v": 68
    },
    {
      "midi": 59,
      "hit": false,
      "t": 6000,
      "d": 300,
      "v": 68
    },
    {
      "midi": 71,
      "hit": false,
      "t": 6150,
      "d": 150,
      "v": 67
    },
    {
      "midi": 78,
      "hit": false,
      "t": 6300,
      "d": 150,
      "v": 92
    },
    {
      "midi": 76,
      "hit": false,
      "t": 6450,
      "d": 150,
      "v": 75
    },
    {
      "midi": 52,
      "hit": false,
      "t": 6600,
      "d": 300,
      "v": 66
    },
    {
      "midi": 55,
      "hit": false,
      "t": 6600,
      "d": 300,
      "v": 66
    },
    {
      "midi": 59,
      "hit": false,
      "t": 6600,
      "d": 300,
      "v": 66
    },
    {
      "midi": 71,
      "hit": false,
      "t": 6750,
      "d": 150,
      "v": 68
    },
    {
      "midi": 78,
      "hit": false,
      "t": 6900,
      "d": 150,
      "v": 89
    },
    {
      "midi": 76,
      "hit": false,
      "t": 7050,
      "d": 150,
      "v": 72
    },
    {
      "midi": 54,
      "hit": false,
      "t": 7200,
      "d": 300,
      "v": 68
    },
    {
      "midi": 59,
      "hit": false,
      "t": 7200,
      "d": 300,
      "v": 68
    },
    {
      "midi": 74,
      "hit": false,
      "t": 7350,
      "d": 150,
      "v": 65
    },
    {
      "midi": 76,
      "hit": false,
      "t": 7500,
      "d": 150,
      "v": 78
    },
    {
      "midi": 74,
      "hit": false,
      "t": 7650,
      "d": 150,
      "v": 71
    },
    {
      "midi": 54,
      "hit": false,
      "t": 7800,
      "d": 600,
      "v": 68
    },
    {
      "midi": 58,
      "hit": false,
      "t": 7800,
      "d": 600,
      "v": 68
    },
    {
      "midi": 64,
      "hit": false,
      "t": 7800,
      "d": 600,
      "v": 68
    },
    {
      "midi": 73,
      "hit": false,
      "t": 7950,
      "d": 150,
      "v": 69
    },
    {
      "midi": 74,
      "hit": false,
      "t": 8100,
      "d": 150,
      "v": 75
    },
    {
      "midi": 73,
      "hit": false,
      "t": 8250,
      "d": 150,
      "v": 75
    },
    {
      "midi": 59,
      "hit": false,
      "t": 8400,
      "d": 300,
      "v": 70
    },
    {
      "midi": 62,
      "hit": false,
      "t": 8400,
      "d": 300,
      "v": 70
    },
    {
      "midi": 71,
      "hit": false,
      "t": 8550,
      "d": 150,
      "v": 67
    },
    {
      "midi": 70,
      "hit": false,
      "t": 8700,
      "d": 150,
      "v": 71
    },
    {
      "midi": 71,
      "hit": false,
      "t": 8850,
      "d": 150,
      "v": 80
    },
    {
      "midi": 83,
      "hit": false,
      "t": 9000,
      "d": 300,
      "v": 99
    },
    {
      "midi": 47,
      "hit": false,
      "t": 9000,
      "d": 300,
      "v": 69
    },
    {
      "midi": 55,
      "hit": false,
      "t": 9600,
      "d": 300,
      "v": 67
    },
    {
      "midi": 59,
      "hit": false,
      "t": 9600,
      "d": 300,
      "v": 67
    },
    {
      "midi": 62,
      "hit": false,
      "t": 9600,
      "d": 300,
      "v": 67
    },
    {
      "midi": 83,
      "hit": false,
      "t": 9750,
      "d": 150,
      "v": 68
    },
    {
      "midi": 81,
      "hit": false,
      "t": 9900,
      "d": 150,
      "v": 75
    },
    {
      "midi": 79,
      "hit": false,
      "t": 10050,
      "d": 150,
      "v": 67
    },
    {
      "midi": 55,
      "hit": false,
      "t": 10200,
      "d": 300,
      "v": 73
    },
    {
      "midi": 58,
      "hit": false,
      "t": 10200,
      "d": 300,
      "v": 73
    },
    {
      "midi": 61,
      "hit": false,
      "t": 10200,
      "d": 300,
      "v": 73
    },
    {
      "midi": 79,
      "hit": false,
      "t": 10350,
      "d": 150,
      "v": 62
    },
    {
      "midi": 78,
      "hit": false,
      "t": 10500,
      "d": 150,
      "v": 72
    },
    {
      "midi": 76,
      "hit": false,
      "t": 10650,
      "d": 150,
      "v": 68
    },
    {
      "midi": 55,
      "hit": false,
      "t": 10800,
      "d": 300,
      "v": 71
    },
    {
      "midi": 59,
      "hit": false,
      "t": 10800,
      "d": 300,
      "v": 71
    },
    {
      "midi": 62,
      "hit": false,
      "t": 10800,
      "d": 300,
      "v": 71
    },
    {
      "midi": 74,
      "hit": false,
      "t": 10950,
      "d": 150,
      "v": 69
    },
    {
      "midi": 73,
      "hit": false,
      "t": 11100,
      "d": 150,
      "v": 75
    },
    {
      "midi": 74,
      "hit": false,
      "t": 11250,
      "d": 150,
      "v": 81
    },
    {
      "midi": 55,
      "hit": false,
      "t": 11400,
      "d": 300,
      "v": 66
    },
    {
      "midi": 59,
      "hit": false,
      "t": 11400,
      "d": 300,
      "v": 66
    },
    {
      "midi": 62,
      "hit": false,
      "t": 11400,
      "d": 300,
      "v": 66
    },
    {
      "midi": 74,
      "hit": false,
      "t": 11550,
      "d": 150,
      "v": 69
    },
    {
      "midi": 76,
      "hit": false,
      "t": 11700,
      "d": 150,
      "v": 79
    },
    {
      "midi": 74,
      "hit": false,
      "t": 11850,
      "d": 150,
      "v": 77
    },
    {
      "midi": 55,
      "hit": false,
      "t": 12000,
      "d": 300,
      "v": 67
    },
    {
      "midi": 59,
      "hit": false,
      "t": 12000,
      "d": 300,
      "v": 67
    },
    {
      "midi": 62,
      "hit": false,
      "t": 12000,
      "d": 300,
      "v": 67
    },
    {
      "midi": 83,
      "hit": false,
      "t": 12150,
      "d": 150,
      "v": 70
    },
    {
      "midi": 81,
      "hit": false,
      "t": 12300,
      "d": 150,
      "v": 71
    },
    {
      "midi": 79,
      "hit": false,
      "t": 12450,
      "d": 150,
      "v": 74
    },
    {
      "midi": 55,
      "hit": false,
      "t": 12600,
      "d": 300,
      "v": 69
    },
    {
      "midi": 58,
      "hit": false,
      "t": 12600,
      "d": 300,
      "v": 69
    },
    {
      "midi": 61,
      "hit": false,
      "t": 12600,
      "d": 300,
      "v": 69
    },
    {
      "midi": 79,
      "hit": false,
      "t": 12750,
      "d": 150,
      "v": 70
    },
    {
      "midi": 78,
      "hit": false,
      "t": 12900,
      "d": 150,
      "v": 71
    },
    {
      "midi": 76,
      "hit": false,
      "t": 13050,
      "d": 150,
      "v": 71
    },
    {
      "midi": 55,
      "hit": false,
      "t": 13200,
      "d": 300,
      "v": 69
    },
    {
      "midi": 59,
      "hit": false,
      "t": 13200,
      "d": 300,
      "v": 69
    },
    {
      "midi": 62,
      "hit": false,
      "t": 13200,
      "d": 300,
      "v": 69
    },
    {
      "midi": 74,
      "hit": false,
      "t": 13350,
      "d": 150,
      "v": 69
    },
    {
      "midi": 73,
      "hit": false,
      "t": 13500,
      "d": 150,
      "v": 67
    },
    {
      "midi": 74,
      "hit": false,
      "t": 13650,
      "d": 150,
      "v": 79
    },
    {
      "midi": 55,
      "hit": false,
      "t": 13800,
      "d": 300,
      "v": 74
    },
    {
      "midi": 59,
      "hit": false,
      "t": 13800,
      "d": 300,
      "v": 74
    },
    {
      "midi": 62,
      "hit": false,
      "t": 13800,
      "d": 300,
      "v": 74
    },
    {
      "midi": 74,
      "hit": false,
      "t": 13950,
      "d": 150,
      "v": 68
    },
    {
      "midi": 76,
      "hit": false,
      "t": 14100,
      "d": 150,
      "v": 78
    },
    {
      "midi": 74,
      "hit": false,
      "t": 14250,
      "d": 150,
      "v": 70
    },
    {
      "midi": 54,
      "hit": false,
      "t": 14400,
      "d": 300,
      "v": 69
    },
    {
      "midi": 60,
      "hit": false,
      "t": 14400,
      "d": 300,
      "v": 69
    },
    {
      "midi": 62,
      "hit": false,
      "t": 14400,
      "d": 300,
      "v": 69
    },
    {
      "midi": 72,
      "hit": false,
      "t": 14550,
      "d": 150,
      "v": 74
    },
    {
      "midi": 83,
      "hit": false,
      "t": 14700,
      "d": 150,
      "v": 94
    },
    {
      "midi": 81,
      "hit": false,
      "t": 14850,
      "d": 150,
      "v": 76
    },
    {
      "midi": 54,
      "hit": false,
      "t": 15000,
      "d": 300,
      "v": 67
    },
    {
      "midi": 60,
      "hit": false,
      "t": 15000,
      "d": 300,
      "v": 67
    },
    {
      "midi": 62,
      "hit": false,
      "t": 15000,
      "d": 300,
      "v": 67
    },
    {
      "midi": 72,
      "hit": false,
      "t": 15150,
      "d": 150,
      "v": 68
    },
    {
      "midi": 83,
      "hit": false,
      "t": 15300,
      "d": 150,
      "v": 96
    },
    {
      "midi": 81,
      "hit": false,
      "t": 15450,
      "d": 150,
      "v": 78
    },
    {
      "midi": 55,
      "hit": false,
      "t": 15600,
      "d": 300,
      "v": 75
    },
    {
      "midi": 59,
      "hit": false,
      "t": 15600,
      "d": 300,
      "v": 75
    },
    {
      "midi": 62,
      "hit": false,
      "t": 15600,
      "d": 300,
      "v": 75
    },
    {
      "midi": 71,
      "hit": false,
      "t": 15750,
      "d": 150,
      "v": 67
    },
    {
      "midi": 81,
      "hit": false,
      "t": 15900,
      "d": 150,
      "v": 92
    },
    {
      "midi": 79,
      "hit": false,
      "t": 16050,
      "d": 150,
      "v": 77
    },
    {
      "midi": 55,
      "hit": false,
      "t": 16200,
      "d": 300,
      "v": 67
    },
    {
      "midi": 59,
      "hit": false,
      "t": 16200,
      "d": 300,
      "v": 67
    },
    {
      "midi": 62,
      "hit": false,
      "t": 16200,
      "d": 300,
      "v": 67
    },
    {
      "midi": 71,
      "hit": false,
      "t": 16350,
      "d": 150,
      "v": 65
    },
    {
      "midi": 81,
      "hit": false,
      "t": 16500,
      "d": 150,
      "v": 92
    },
    {
      "midi": 79,
      "hit": false,
      "t": 16650,
      "d": 150,
      "v": 74
    },
    {
      "midi": 59,
      "hit": false,
      "t": 16800,
      "d": 300,
      "v": 73
    },
    {
      "midi": 63,
      "hit": false,
      "t": 16800,
      "d": 300,
      "v": 73
    },
    {
      "midi": 69,
      "hit": false,
      "t": 16800,
      "d": 300,
      "v": 73
    },
    {
      "midi": 71,
      "hit": false,
      "t": 16950,
      "d": 150,
      "v": 66
    },
    {
      "midi": 79,
      "hit": false,
      "t": 17100,
      "d": 150,
      "v": 90
    },
    {
      "midi": 78,
      "hit": false,
      "t": 17250,
      "d": 150,
      "v": 73
    },
    {
      "midi": 59,
      "hit": false,
      "t": 17400,
      "d": 300,
      "v": 70
    },
    {
      "midi": 63,
      "hit": false,
      "t": 17400,
      "d": 300,
      "v": 70
    },
    {
      "midi": 69,
      "hit": false,
      "t": 17400,
      "d": 300,
      "v": 70
    },
    {
      "midi": 71,
      "hit": false,
      "t": 17550,
      "d": 150,
      "v": 69
    },
    {
      "midi": 79,
      "hit": false,
      "t": 17700,
      "d": 150,
      "v": 91
    },
    {
      "midi": 78,
      "hit": false,
      "t": 17850,
      "d": 150,
      "v": 73
    },
    {
      "midi": 64,
      "hit": false,
      "t": 18000,
      "d": 300,
      "v": 71
    },
    {
      "midi": 67,
      "hit": false,
      "t": 18000,
      "d": 300,
      "v": 71
    },
    {
      "midi": 71,
      "hit": false,
      "t": 18150,
      "d": 150,
      "v": 69
    },
    {
      "midi": 78,
      "hit": false,
      "t": 18300,
      "d": 150,
      "v": 88
    },
    {
      "midi": 76,
      "hit": false,
      "t": 18450,
      "d": 150,
      "v": 73
    },
    {
      "midi": 64,
      "hit": false,
      "t": 18600,
      "d": 300,
      "v": 67
    },
    {
      "midi": 67,
      "hit": false,
      "t": 18600,
      "d": 300,
      "v": 67
    },
    {
      "midi": 71,
      "hit": false,
      "t": 18750,
      "d": 150,
      "v": 68
    },
    {
      "midi": 78,
      "hit": false,
      "t": 18900,
      "d": 150,
      "v": 85
    },
    {
      "midi": 76,
      "hit": false,
      "t": 19050,
      "d": 150,
      "v": 78
    },
    {
      "midi": 52,
      "hit": false,
      "t": 19200,
      "d": 300,
      "v": 64
    },
    {
      "midi": 55,
      "hit": false,
      "t": 19200,
      "d": 300,
      "v": 64
    },
    {
      "midi": 59,
      "hit": false,
      "t": 19200,
      "d": 300,
      "v": 64
    },
    {
      "midi": 79,
      "hit": false,
      "t": 19350,
      "d": 150,
      "v": 67
    },
    {
      "midi": 78,
      "hit": false,
      "t": 19500,
      "d": 150,
      "v": 72
    },
    {
      "midi": 76,
      "hit": false,
      "t": 19650,
      "d": 150,
      "v": 75
    },
    {
      "midi": 52,
      "hit": false,
      "t": 19800,
      "d": 300,
      "v": 71
    },
    {
      "midi": 57,
      "hit": false,
      "t": 19800,
      "d": 300,
      "v": 71
    },
    {
      "midi": 60,
      "hit": false,
      "t": 19800,
      "d": 300,
      "v": 71
    },
    {
      "midi": 76,
      "hit": false,
      "t": 19950,
      "d": 150,
      "v": 70
    },
    {
      "midi": 74,
      "hit": false,
      "t": 20100,
      "d": 150,
      "v": 71
    },
    {
      "midi": 72,
      "hit": false,
      "t": 20250,
      "d": 150,
      "v": 67
    },
    {
      "midi": 52,
      "hit": false,
      "t": 20400,
      "d": 300,
      "v": 71
    },
    {
      "midi": 55,
      "hit": false,
      "t": 20400,
      "d": 300,
      "v": 71
    },
    {
      "midi": 59,
      "hit": false,
      "t": 20400,
      "d": 300,
      "v": 71
    },
    {
      "midi": 71,
      "hit": false,
      "t": 20550,
      "d": 150,
      "v": 69
    },
    {
      "midi": 70,
      "hit": false,
      "t": 20700,
      "d": 150,
      "v": 71
    },
    {
      "midi": 71,
      "hit": false,
      "t": 20850,
      "d": 150,
      "v": 77
    },
    {
      "midi": 52,
      "hit": false,
      "t": 21000,
      "d": 300,
      "v": 68
    },
    {
      "midi": 55,
      "hit": false,
      "t": 21000,
      "d": 300,
      "v": 68
    },
    {
      "midi": 59,
      "hit": false,
      "t": 21000,
      "d": 300,
      "v": 68
    },
    {
      "midi": 71,
      "hit": false,
      "t": 21150,
      "d": 150,
      "v": 70
    },
    {
      "midi": 72,
      "hit": false,
      "t": 21300,
      "d": 150,
      "v": 78
    },
    {
      "midi": 71,
      "hit": false,
      "t": 21450,
      "d": 150,
      "v": 74
    },
    {
      "midi": 52,
      "hit": false,
      "t": 21600,
      "d": 300,
      "v": 71
    },
    {
      "midi": 55,
      "hit": false,
      "t": 21600,
      "d": 300,
      "v": 71
    },
    {
      "midi": 59,
      "hit": false,
      "t": 21600,
      "d": 300,
      "v": 71
    },
    {
      "midi": 79,
      "hit": false,
      "t": 21750,
      "d": 150,
      "v": 68
    },
    {
      "midi": 78,
      "hit": false,
      "t": 21900,
      "d": 150,
      "v": 70
    },
    {
      "midi": 76,
      "hit": false,
      "t": 22050,
      "d": 150,
      "v": 71
    },
    {
      "midi": 52,
      "hit": false,
      "t": 22200,
      "d": 300,
      "v": 67
    },
    {
      "midi": 57,
      "hit": false,
      "t": 22200,
      "d": 300,
      "v": 67
    },
    {
      "midi": 60,
      "hit": false,
      "t": 22200,
      "d": 300,
      "v": 67
    },
    {
      "midi": 76,
      "hit": false,
      "t": 22350,
      "d": 150,
      "v": 66
    },
    {
      "midi": 74,
      "hit": false,
      "t": 22500,
      "d": 150,
      "v": 74
    },
    {
      "midi": 72,
      "hit": false,
      "t": 22650,
      "d": 150,
      "v": 71
    },
    {
      "midi": 52,
      "hit": false,
      "t": 22800,
      "d": 300,
      "v": 68
    },
    {
      "midi": 55,
      "hit": false,
      "t": 22800,
      "d": 300,
      "v": 68
    },
    {
      "midi": 59,
      "hit": false,
      "t": 22800,
      "d": 300,
      "v": 68
    },
    {
      "midi": 71,
      "hit": false,
      "t": 22950,
      "d": 150,
      "v": 69
    },
    {
      "midi": 70,
      "hit": false,
      "t": 23100,
      "d": 150,
      "v": 72
    },
    {
      "midi": 71,
      "hit": false,
      "t": 23250,
      "d": 150,
      "v": 82
    },
    {
      "midi": 52,
      "hit": false,
      "t": 23400,
      "d": 300,
      "v": 66
    },
    {
      "midi": 55,
      "hit": false,
      "t": 23400,
      "d": 300,
      "v": 66
    },
    {
      "midi": 59,
      "hit": false,
      "t": 23400,
      "d": 300,
      "v": 66
    },
    {
      "midi": 71,
      "hit": false,
      "t": 23550,
      "d": 150,
      "v": 68
    },
    {
      "midi": 72,
      "hit": false,
      "t": 23700,
      "d": 150,
      "v": 80
    },
    {
      "midi": 71,
      "hit": false,
      "t": 23850,
      "d": 150,
      "v": 69
    },
    {
      "midi": 51,
      "hit": false,
      "t": 24000,
      "d": 300,
      "v": 67
    },
    {
      "midi": 57,
      "hit": false,
      "t": 24000,
      "d": 300,
      "v": 67
    },
    {
      "midi": 59,
      "hit": false,
      "t": 24000,
      "d": 300,
      "v": 67
    },
    {
      "midi": 71,
      "hit": false,
      "t": 24150,
      "d": 150,
      "v": 70
    },
    {
      "midi": 79,
      "hit": false,
      "t": 24300,
      "d": 150,
      "v": 90
    },
    {
      "midi": 78,
      "hit": false,
      "t": 24450,
      "d": 150,
      "v": 75
    },
    {
      "midi": 51,
      "hit": false,
      "t": 24600,
      "d": 300,
      "v": 72
    },
    {
      "midi": 57,
      "hit": false,
      "t": 24600,
      "d": 300,
      "v": 72
    },
    {
      "midi": 59,
      "hit": false,
      "t": 24600,
      "d": 300,
      "v": 72
    },
    {
      "midi": 71,
      "hit": false,
      "t": 24750,
      "d": 150,
      "v": 65
    },
    {
      "midi": 79,
      "hit": false,
      "t": 24900,
      "d": 150,
      "v": 90
    },
    {
      "midi": 78,
      "hit": false,
      "t": 25050,
      "d": 150,
      "v": 70
    },
    {
      "midi": 52,
      "hit": false,
      "t": 25200,
      "d": 300,
      "v": 71
    },
    {
      "midi": 55,
      "hit": false,
      "t": 25200,
      "d": 300,
      "v": 71
    },
    {
      "midi": 59,
      "hit": false,
      "t": 25200,
      "d": 300,
      "v": 71
    },
    {
      "midi": 71,
      "hit": false,
      "t": 25350,
      "d": 150,
      "v": 68
    },
    {
      "midi": 78,
      "hit": false,
      "t": 25500,
      "d": 150,
      "v": 89
    },
    {
      "midi": 76,
      "hit": false,
      "t": 25650,
      "d": 150,
      "v": 73
    },
    {
      "midi": 52,
      "hit": false,
      "t": 25800,
      "d": 300,
      "v": 66
    },
    {
      "midi": 55,
      "hit": false,
      "t": 25800,
      "d": 300,
      "v": 66
    },
    {
      "midi": 59,
      "hit": false,
      "t": 25800,
      "d": 300,
      "v": 66
    },
    {
      "midi": 71,
      "hit": false,
      "t": 25950,
      "d": 150,
      "v": 67
    },
    {
      "midi": 78,
      "hit": false,
      "t": 26100,
      "d": 150,
      "v": 88
    },
    {
      "midi": 76,
      "hit": false,
      "t": 26250,
      "d": 150,
      "v": 74
    },
    {
      "midi": 47,
      "hit": false,
      "t": 26400,
      "d": 300,
      "v": 67
    },
    {
      "midi": 51,
      "hit": false,
      "t": 26400,
      "d": 300,
      "v": 67
    },
    {
      "midi": 57,
      "hit": false,
      "t": 26400,
      "d": 300,
      "v": 67
    },
    {
      "midi": 71,
      "hit": false,
      "t": 26550,
      "d": 150,
      "v": 67
    },
    {
      "midi": 72,
      "hit": false,
      "t": 26700,
      "d": 150,
      "v": 80
    },
    {
      "midi": 71,
      "hit": false,
      "t": 26850,
      "d": 150,
      "v": 74
    },
    {
      "midi": 47,
      "hit": false,
      "t": 27000,
      "d": 300,
      "v": 69
    },
    {
      "midi": 51,
      "hit": false,
      "t": 27000,
      "d": 300,
      "v": 69
    },
    {
      "midi": 57,
      "hit": false,
      "t": 27000,
      "d": 300,
      "v": 69
    },
    {
      "midi": 66,
      "hit": false,
      "t": 27150,
      "d": 150,
      "v": 67
    },
    {
      "midi": 67,
      "hit": false,
      "t": 27300,
      "d": 150,
      "v": 79
    },
    {
      "midi": 66,
      "hit": false,
      "t": 27450,
      "d": 150,
      "v": 73
    },
    {
      "midi": 52,
      "hit": false,
      "t": 27600,
      "d": 300,
      "v": 67
    },
    {
      "midi": 55,
      "hit": false,
      "t": 27600,
      "d": 300,
      "v": 67
    },
    {
      "midi": 64,
      "hit": false,
      "t": 27750,
      "d": 150,
      "v": 68
    },
    {
      "midi": 63,
      "hit": false,
      "t": 27900,
      "d": 150,
      "v": 73
    },
    {
      "midi": 64,
      "hit": false,
      "t": 28050,
      "d": 150,
      "v": 81
    },
    {
      "midi": 76,
      "hit": false,
      "t": 28200,
      "d": 300,
      "v": 97
    },
    {
      "midi": 40,
      "hit": false,
      "t": 28200,
      "d": 300,
      "v": 69
    },
    {
      "midi": 52,
      "hit": false,
      "t": 28800,
      "d": 300,
      "v": 71
    },
    {
      "midi": 55,
      "hit": false,
      "t": 28800,
      "d": 300,
      "v": 71
    },
    {
      "midi": 64,
      "hit": false,
      "t": 28950,
      "d": 150,
      "v": 68
    },
    {
      "midi": 66,
      "hit": false,
      "t": 29100,
      "d": 150,
      "v": 79
    },
    {
      "midi": 64,
      "hit": false,
      "t": 29250,
      "d": 150,
      "v": 70
    },
    {
      "midi": 48,
      "hit": false,
      "t": 29400,
      "d": 600,
      "v": 65
    },
    {
      "midi": 60,
      "hit": false,
      "t": 29550,
      "d": 150,
      "v": 65
    },
    {
      "midi": 62,
      "hit": false,
      "t": 29700,
      "d": 150,
      "v": 79
    },
    {
      "midi": 60,
      "hit": false,
      "t": 29850,
      "d": 150,
      "v": 70
    },
    {
      "midi": 45,
      "hit": false,
      "t": 30000,
      "d": 600,
      "v": 71
    },
    {
      "midi": 57,
      "hit": false,
      "t": 30150,
      "d": 150,
      "v": 66
    },
    {
      "midi": 59,
      "hit": false,
      "t": 30300,
      "d": 150,
      "v": 81
    },
    {
      "midi": 57,
      "hit": false,
      "t": 30450,
      "d": 150,
      "v": 75
    },
    {
      "midi": 47,
      "hit": false,
      "t": 30600,
      "d": 600,
      "v": 77
    },
    {
      "midi": 59,
      "hit": false,
      "t": 30750,
      "d": 150,
      "v": 67
    },
    {
      "midi": 60,
      "hit": false,
      "t": 30900,
      "d": 150,
      "v": 79
    },
    {
      "midi": 59,
      "hit": false,
      "t": 31050,
      "d": 150,
      "v": 75
    },
    {
      "midi": 52,
      "hit": false,
      "t": 31200,
      "d": 600,
      "v": 80
    },
    {
      "midi": 64,
      "hit": false,
      "t": 31350,
      "d": 150,
      "v": 70
    },
    {
      "midi": 66,
      "hit": false,
      "t": 31500,
      "d": 150,
      "v": 80
    },
    {
      "midi": 64,
      "hit": false,
      "t": 31650,
      "d": 150,
      "v": 70
    },
    {
      "midi": 48,
      "hit": false,
      "t": 31800,
      "d": 600,
      "v": 73
    },
    {
      "midi": 60,
      "hit": false,
      "t": 31950,
      "d": 150,
      "v": 61
    },
    {
      "midi": 62,
      "hit": false,
      "t": 32100,
      "d": 150,
      "v": 84
    },
    {
      "midi": 60,
      "hit": false,
      "t": 32250,
      "d": 150,
      "v": 73
    },
    {
      "midi": 45,
      "hit": false,
      "t": 32400,
      "d": 600,
      "v": 71
    },
    {
      "midi": 57,
      "hit": false,
      "t": 32550,
      "d": 150,
      "v": 62
    },
    {
      "midi": 59,
      "hit": false,
      "t": 32700,
      "d": 150,
      "v": 74
    },
    {
      "midi": 57,
      "hit": false,
      "t": 32850,
      "d": 150,
      "v": 76
    },
    {
      "midi": 47,
      "hit": false,
      "t": 33000,
      "d": 600,
      "v": 79
    },
    {
      "midi": 59,
      "hit": false,
      "t": 33150,
      "d": 150,
      "v": 66
    },
    {
      "midi": 60,
      "hit": false,
      "t": 33300,
      "d": 150,
      "v": 80
    },
    {
      "midi": 59,
      "hit": false,
      "t": 33450,
      "d": 150,
      "v": 78
    },
    {
      "midi": 64,
      "hit": false,
      "t": 33600,
      "d": 600,
      "v": 87
    },
    {
      "midi": 52,
      "hit": false,
      "t": 33600,
      "d": 600,
      "v": 83
    },
    {
      "midi": 71,
      "hit": false,
      "t": 34350,
      "d": 150,
      "v": 68
    },
    {
      "midi": 72,
      "hit": false,
      "t": 34500,
      "d": 150,
      "v": 78
    },
    {
      "midi": 71,
      "hit": false,
      "t": 34650,
      "d": 150,
      "v": 68
    },
    {
      "midi": 76,
      "hit": false,
      "t": 34800,
      "d": 300,
      "v": 85
    },
    {
      "midi": 52,
      "hit": false,
      "t": 34800,
      "d": 300,
      "v": 73
    },
    {
      "midi": 55,
      "hit": false,
      "t": 34800,
      "d": 300,
      "v": 73
    },
    {
      "midi": 59,
      "hit": false,
      "t": 34800,
      "d": 300,
      "v": 73
    },
    {
      "midi": 83,
      "hit": false,
      "t": 35550,
      "d": 150,
      "v": 70
    },
    {
      "midi": 84,
      "hit": false,
      "t": 35700,
      "d": 150,
      "v": 81
    },
    {
      "midi": 83,
      "hit": false,
      "t": 35850,
      "d": 150,
      "v": 74
    },
    {
      "midi": 88,
      "hit": false,
      "t": 36000,
      "d": 300,
      "v": 85
    },
    {
      "midi": 40,
      "hit": false,
      "t": 36000,
      "d": 300,
      "v": 68
    }
  ]
}