{
  "jsonPath": "Unknown/Unknown/Friedrich Burgmüller_/the-clear-stream.json",
  "path": "Unknown\\Unknown\\Friedrich Burgmüller_\\The Clear Stream.mid",
  "name": "The Clear Stream",
  "difficulty": "Advanced",
  "bpm": 100,
  "notes": [
    {
      "midi": 59,
      "hit": false,
      "t": 0,
      "d": 199.21875,
      "v": 100
    },
    {
      "midi": 43,
      "hit": false,
      "t": 0,
      "d": 600,
      "v": 68
    },
    {
      "midi": 67,
      "hit": false,
      "t": 199.21875,
      "d": 199.21875,
      "v": 100
    },
    {
      "midi": 62,
      "hit": false,
      "t": 398.4375,
      "d": 201.5625,
      "v": 100
    },
    {
      "midi": 59,
      "hit": false,
      "t": 600,
      "d": 199.21875,
      "v": 100
    },
    {
      "midi": 50,
      "hit": false,
      "t": 600,
      "d": 600,
      "v": 82
    },
    {
      "midi": 67,
      "hit": false,
      "t": 799.21875,
      "d": 199.21875,
      "v": 100
    },
    {
      "midi": 62,
      "hit": false,
      "t": 998.4375,
      "d": 201.5625,
      "v": 100
    },
    {
      "midi": 59,
      "hit": false,
      "t": 1200,
      "d": 199.21875,
      "v": 100
    },
    {
      "midi": 43,
      "hit": false,
      "t": 1200,
      "d": 600,
      "v": 70
    },
    {
      "midi": 69,
      "hit": false,
      "t": 1399.21875,
      "d": 199.21875,
      "v": 100
    },
    {
      "midi": 62,
      "hit": false,
      "t": 1598.4375,
      "d": 201.5625,
      "v": 100
    },
    {
      "midi": 57,
      "hit": false,
      "t": 1800,
      "d": 199.21875,
      "v": 100
    },
    {
      "midi": 50,
      "hit": false,
      "t": 1800,
      "d": 600,
      "v": 84
    },
    {
      "midi": 65,
      "hit": false,
      "t": 1999.21875,
      "d": 199.21875,
      "v": 100
    },
    {
      "midi": 62,
      "hit": false,
      "t": 2198.4375,
      "d": 201.5625,
      "v": 100
    },
    {
      "midi": 59,
      "hit": false,
      "t": 2400,
      "d": 199.21875,
      "v": 100
    },
    {
      "midi": 43,
      "hit": false,
      "t": 2400,
      "d": 600,
      "v": 71
    },
    {
      "midi": 67,
      "hit": false,
      "t": 2599.21875,
      "d": 199.21875,
      "v": 100
    },
    {
      "midi": 62,
      "hit": false,
      "t": 2798.4375,
      "d": 201.5625,
      "v": 100
    },
    {
      "midi": 59,
      "hit": false,
      "t": 3000,
      "d": 199.21875,
      "v": 100
    },
    {
      "midi": 50,
      "hit": false,
      "t": 3000,
      "d": 600,
      "v": 81
    },
    {
      "midi": 67,
      "hit": false,
      "t": 3199.21875,
      "d": 199.21875,
      "v": 100
    },
    {
      "midi": 62,
      "hit": false,
      "t": 3398.4375,
      "d": 201.5625,
      "v": 100
    },
    {
      "midi": 62,
      "hit": false,
      "t": 3600,
      "d": 199.21875,
      "v": 100
    },
    {
      "midi": 43,
      "hit": false,
      "t": 3600,
      "d": 600,
      "v": 71
    },
    {
      "midi": 71,
      "hit": false,
      "t": 3799.21875,
      "d": 199.21875,
      "v": 100
    },
    {
      "midi": 67,
      "hit": false,
      "t": 3998.4375,
      "d": 201.5625,
      "v": 100
    },
    {
      "midi": 67,
      "hit": false,
      "t": 4200,
      "d": 199.21875,
      "v": 100
    },
    {
      "midi": 50,
      "hit": false,
      "t": 4200,
      "d": 600,
      "v": 85
    },
    {
      "midi": 74,
      "hit": false,
      "t": 4399.21875,
      "d": 199.21875,
      "v": 100
    },
    {
      "midi": 71,
      "hit": false,
      "t": 4598.4375,
      "d": 201.5625,
      "v": 100
    },
    {
      "midi": 71,
      "hit": false,
      "t": 4800,
      "d": 199.21875,
      "v": 100
    },
    {
      "midi": 43,
      "hit": false,
      "t": 4800,
      "d": 600,
      "v": 73
    },
    {
      "midi": 79,
      "hit": false,
      "t": 4999.21875,
      "d": 199.21875,
      "v": 100
    },
    {
      "midi": 74,
      "hit": false,
      "t": 5198.4375,
      "d": 201.5625,
      "v": 100
    },
    {
      "midi": 71,
      "hit": false,
      "t": 5400,
      "d": 199.21875,
      "v": 100
    },
    {
      "midi": 50,
      "hit": false,
      "t": 5400,
      "d": 600,
      "v": 81
    },
    {
      "midi": 79,
      "hit": false,
      "t": 5599.21875,
      "d": 199.21875,
      "v": 100
    },
    {
      "midi": 74,
      "hit": false,
      "t": 5798.4375,
      "d": 201.5625,
      "v": 100
    },
    {
      "midi": 72,
      "hit": false,
      "t": 6000,
      "d": 199.21875,
      "v": 100
    },
    {
      "midi": 43,
      "hit": false,
      "t": 6000,
      "d": 600,
      "v": 69
    },
    {
      "midi": 81,
      "hit": false,
      "t": 6199.21875,
      "d": 199.21875,
      "v": 100
    },
    {
      "midi": 74,
      "hit": false,
      "t": 6398.4375,
      "d": 201.5625,
      "v": 100
    },
    {
      "midi": 69,
      "hit": false,
      "t": 6600,
      "d": 199.21875,
      "v": 100
    },
    {
      "midi": 50,
      "hit": false,
      "t": 6600,
      "d": 600,
      "v": 85
    },
    {
      "midi": 77,
      "hit": false,
      "t": 6799.21875,
      "d": 199.21875,
      "v": 100
    },
    {
      "midi": 74,
      "hit": false,
      "t": 6998.4375,
      "d": 201.5625,
      "v": 100
    },
    {
      "midi": 71,
      "hit": false,
      "t": 7200,
      "d": 199.21875,
      "v": 100
    },
    {
      "midi": 43,
      "hit": false,
      "t": 7200,
      "d": 600,
      "v": 71
    },
    {
      "midi": 79,
      "hit": false,
      "t": 7399.21875,
      "d": 199.21875,
      "v": 100
    },
    {
      "midi": 74,
      "hit": false,
      "t": 7598.4375,
      "d": 201.5625,
      "v": 100
    },
    {
      "midi": 71,
      "hit": false,
      "t": 7800,
      "d": 199.21875,
      "v": 100
    },
    {
      "midi": 50,
      "hit": false,
      "t": 7800,
      "d": 600,
      "v": 83
    },
    {
      "midi": 76,
      "hit": false,
      "t": 7999.21875,
      "d": 199.21875,
      "v": 100
    },
    {
      "midi": 74,
      "hit": false,
      "t": 8198.4375,
      "d": 201.5625,
      "v": 100
    },
    {
      "midi": 79,
      "hit": false,
      "t": 8400,
      "d": 199.21875,
      "v": 100
    },
    {
      "midi": 43,
      "hit": false,
      "t": 8400,
      "d": 600,
      "v": 75
    },
    {
      "midi": 84,
      "hit": false,
      "t": 8599.21875,
      "d": 199.21875,
      "v": 100
    },
    {
      "midi": 83,
      "hit": false,
      "t": 8798.4375,
      "d": 201.5625,
      "v": 100
    },
    {
      "midi": 74,
      "hit": false,
      "t": 9000,
      "d": 199.21875,
      "v": 100
    },
    {
      "midi": 50,
      "hit": false,
      "t": 9000,
      "d": 600,
      "v": 78
    },
    {
      "midi": 81,
      "hit": false,
      "t": 9199.21875,
      "d": 199.21875,
      "v": 100
    },
    {
      "midi": 79,
      "hit": false,
      "t": 9398.4375,
      "d": 201.5625,
      "v": 100
    },
    {
      "midi": 59,
      "hit": false,
      "t": 9600,
      "d": 199.21875,
      "v": 100
    },
    {
      "midi": 43,
      "hit": false,
      "t": 9600,
      "d": 600,
      "v": 74
    },
    {
      "midi": 67,
      "hit": false,
      "t": 9799.21875,
      "d": 199.21875,
      "v": 100
    },
    {
      "midi": 62,
      "hit": false,
      "t": 9998.4375,
      "d": 201.5625,
      "v": 100
    },
    {
      "midi": 59,
      "hit": false,
      "t": 10200,
      "d": 199.21875,
      "v": 100
    },
    {
      "midi": 50,
      "hit": false,
      "t": 10200,
      "d": 600,
      "v": 79
    },
    {
      "midi": 67,
      "hit": false,
      "t": 10399.21875,
      "d": 199.21875,
      "v": 100
    },
    {
      "midi": 62,
      "hit": false,
      "t": 10598.4375,
      "d": 201.5625,
      "v": 100
    },
    {
      "midi": 60,
      "hit": false,
      "t": 10800,
      "d": 199.21875,
      "v": 100
    },
    {
      "midi": 43,
      "hit": false,
      "t": 10800,
      "d": 600,
      "v": 67
    },
    {
      "midi": 67,
      "hit": false,
      "t": 10999.21875,
      "d": 199.21875,
      "v": 100
    },
    {
      "midi": 62,
      "hit": false,
      "t": 11198.4375,
      "d": 201.5625,
      "v": 100
    },
    {
      "midi": 57,
      "hit": false,
      "t": 11400,
      "d": 199.21875,
      "v": 100
    },
    {
      "midi": 50,
      "hit": false,
      "t": 11400,
      "d": 600,
      "v": 82
    },
    {
      "midi": 65,
      "hit": false,
      "t": 11599.21875,
      "d": 199.21875,
      "v": 100
    },
    {
      "midi": 62,
      "hit": false,
      "t": 11798.4375,
      "d": 201.5625,
      "v": 100
    },
    {
      "midi": 59,
      "hit": false,
      "t": 12000,
      "d": 199.21875,
      "v": 100
    },
    {
      "midi": 43,
      "hit": false,
      "t": 12000,
      "d": 600,
      "v": 68
    },
    {
      "midi": 67,
      "hit": false,
      "t": 12199.21875,
      "d": 199.21875,
      "v": 100
    },
    {
      "midi": 62,
      "hit": false,
      "t": 12398.4375,
      "d": 201.5625,
      "v": 100
    },
    {
      "midi": 59,
      "hit": false,
      "t": 12600,
      "d": 199.21875,
      "v": 100
    },
    {
      "midi": 50,
      "hit": false,
      "t": 12600,
      "d": 600,
      "v": 81
    },
    {
      "midi": 67,
      "hit": false,
      "t": 12799.21875,
      "d": 199.21875,
      "v": 100
    },
    {
      "midi": 62,
      "hit": false,
      "t": 12998.4375,
      "d": 201.5625,
      "v": 100
    },
    {
      "midi": 62,
      "hit": false,
      "t": 13200,
      "d": 199.21875,
      "v": 100
    },
    {
      "midi": 43,
      "hit": false,
      "t": 13200,
      "d": 600,
      "v": 69
    },
    {
      "midi": 71,
      "hit": false,
      "t": 13399.21875,
      "d": 199.21875,
      "v": 100
    },
    {
      "midi": 67,
      "hit": false,
      "t": 13598.4375,
      "d": 201.5625,
      "v": 100
    },
    {
      "midi": 67,
      "hit": false,
      "t": 13800,
      "d": 199.21875,
      "v": 100
    },
    {
      "midi": 50,
      "hit": false,
      "t": 13800,
      "d": 600,
      "v": 87
    },
    {
      "midi": 74,
      "hit": false,
      "t": 13999.21875,
      "d": 199.21875,
      "v": 100
    },
    {
      "midi": 71,
      "hit": false,
      "t": 14198.4375,
      "d": 201.5625,
      "v": 100
    },
    {
      "midi": 71,
      "hit": false,
      "t": 14400,
      "d": 199.21875,
      "v": 100
    },
    {
      "midi": 43,
      "hit": false,
      "t": 14400,
      "d": 600,
      "v": 71
    },
    {
      "midi": 79,
      "hit": false,
      "t": 14599.21875,
      "d": 199.21875,
      "v": 100
    },
    {
      "midi": 74,
      "hit": false,
      "t": 14798.4375,
      "d": 201.5625,
      "v": 100
    },
    {
      "midi": 71,
      "hit": false,
      "t": 15000,
      "d": 199.21875,
      "v": 100
    },
    {
      "midi": 50,
      "hit": false,
      "t": 15000,
      "d": 600,
      "v": 81
    },
    {
      "midi": 79,
      "hit": false,
      "t": 15199.21875,
      "d": 199.21875,
      "v": 100
    },
    {
      "midi": 74,
      "hit": false,
      "t": 15398.4375,
      "d": 201.5625,
      "v": 100
    },
    {
      "midi": 72,
      "hit": false,
      "t": 15600,
      "d": 199.21875,
      "v": 100
    },
    {
      "midi": 43,
      "hit": false,
      "t": 15600,
      "d": 600,
      "v": 68
    },
    {
      "midi": 81,
      "hit": false,
      "t": 15799.21875,
      "d": 199.21875,
      "v": 100
    },
    {
      "midi": 74,
      "hit": false,
      "t": 15998.4375,
      "d": 201.5625,
      "v": 100
    },
    {
      "midi": 69,
      "hit": false,
      "t": 16200,
      "d": 199.21875,
      "v": 100
    },
    {
      "midi": 50,
      "hit": false,
      "t": 16200,
      "d": 600,
      "v": 84
    },
    {
      "midi": 77,
      "hit": false,
      "t": 16399.21875,
      "d": 199.21875,
      "v": 100
    },
    {
      "midi": 74,
      "hit": false,
      "t": 16598.4375,
      "d": 201.5625,
      "v": 100
    },
    {
      "midi": 71,
      "hit": false,
      "t": 16800,
      "d": 199.21875,
      "v": 100
    },
    {
      "midi": 43,
      "hit": false,
      "t": 16800,
      "d": 600,
      "v": 68
    },
    {
      "midi": 74,
      "hit": false,
      "t": 16999.21875,
      "d": 199.21875,
      "v": 100
    },
    {
      "midi": 79,
      "hit": false,
      "t": 17198.4375,
      "d": 201.5625,
      "v": 100
    },
    {
      "midi": 79,
      "hit": false,
      "t": 17400,
      "d": 199.21875,
      "v": 100
    },
    {
      "midi": 50,
      "hit": false,
      "t": 17400,
      "d": 600,
      "v": 81
    },
    {
      "midi": 83,
      "hit": false,
      "t": 17599.21875,
      "d": 199.21875,
      "v": 100
    },
    {
      "midi": 86,
      "hit": false,
      "t": 17798.4375,
      "d": 201.5625,
      "v": 100
    },
    {
      "midi": 91,
      "hit": false,
      "t": 18000,
      "d": 600,
      "v": 66
    },
    {
      "midi": 43,
      "hit": false,
      "t": 18000,
      "d": 600,
      "v": 70
    },
    {
      "midi": 62,
      "hit": false,
      "t": 19200,
      "d": 600,
      "v": 66
    },
    {
      "midi": 77,
      "hit": false,
      "t": 19399.21875,
      "d": 199.21875,
      "v": 100
    },
    {
      "midi": 69,
      "hit": false,
      "t": 19598.4375,
      "d": 201.5625,
      "v": 100
    },
    {
      "midi": 57,
      "hit": false,
      "t": 19800,
      "d": 600,
      "v": 70
    },
    {
      "midi": 77,
      "hit": false,
      "t": 19999.21875,
      "d": 199.21875,
      "v": 100
    },
    {
      "midi": 69,
      "hit": false,
      "t": 20198.4375,
      "d": 201.5625,
      "v": 100
    },
    {
      "midi": 61,
      "hit": false,
      "t": 20400,
      "d": 600,
      "v": 83
    },
    {
      "midi": 76,
      "hit": false,
      "t": 20599.21875,
      "d": 199.21875,
      "v": 100
    },
    {
      "midi": 69,
      "hit": false,
      "t": 20798.4375,
      "d": 201.5625,
      "v": 100
    },
    {
      "midi": 62,
      "hit": false,
      "t": 21000,
      "d": 600,
      "v": 80
    },
    {
      "midi": 77,
      "hit": false,
      "t": 21199.21875,
      "d": 199.21875,
      "v": 100
    },
    {
      "midi": 69,
      "hit": false,
      "t": 21398.4375,
      "d": 201.5625,
      "v": 100
    },
    {
      "midi": 64,
      "hit": false,
      "t": 21600,
      "d": 600,
      "v": 80
    },
    {
      "midi": 79,
      "hit": false,
      "t": 21799.21875,
      "d": 199.21875,
      "v": 100
    },
    {
      "midi": 69,
      "hit": false,
      "t": 21998.4375,
      "d": 201.5625,
      "v": 100
    },
    {
      "midi": 61,
      "hit": false,
      "t": 22200,
      "d": 600,
      "v": 70
    },
    {
      "midi": 76,
      "hit": false,
      "t": 22399.21875,
      "d": 199.21875,
      "v": 100
    },
    {
      "midi": 69,
      "hit": false,
      "t": 22598.4375,
      "d": 201.5625,
      "v": 100
    },
    {
      "midi": 57,
      "hit": false,
      "t": 22800,
      "d": 600,
      "v": 72
    },
    {
      "midi": 73,
      "hit": false,
      "t": 22999.21875,
      "d": 199.21875,
      "v": 100
    },
    {
      "midi": 69,
      "hit": false,
      "t": 23198.4375,
      "d": 201.5625,
      "v": 100
    },
    {
      "midi": 59,
      "hit": false,
      "t": 23400,
      "d": 600,
      "v": 73
    },
    {
      "midi": 74,
      "hit": false,
      "t": 23599.21875,
      "d": 199.21875,
      "v": 100
    },
    {
      "midi": 69,
      "hit": false,
      "t": 23798.4375,
      "d": 201.5625,
      "v": 100
    },
    {
      "midi": 61,
      "hit": false,
      "t": 24000,
      "d": 600,
      "v": 82
    },
    {
      "midi": 76,
      "hit": false,
      "t": 24199.21875,
      "d": 199.21875,
      "v": 100
    },
    {
      "midi": 69,
      "hit": false,
      "t": 24398.4375,
      "d": 201.5625,
      "v": 100
    },
    {
      "midi": 62,
      "hit": false,
      "t": 24600,
      "d": 600,
      "v": 82
    },
    {
      "midi": 77,
      "hit": false,
      "t": 24799.21875,
      "d": 199.21875,
      "v": 100
    },
    {
      "midi": 69,
      "hit": false,
      "t": 24998.4375,
      "d": 201.5625,
      "v": 100
    },
    {
      "midi": 64,
      "hit": false,
      "t": 25200,
      "d": 600,
      "v": 83
    },
    {
      "midi": 79,
      "hit": false,
      "t": 25399.21875,
      "d": 199.21875,
      "v": 100
    },
    {
      "midi": 69,
      "hit": false,
      "t": 25598.4375,
      "d": 201.5625,
      "v": 100
    },
    {
      "midi": 61,
      "hit": false,
      "t": 25800,
      "d": 600,
      "v": 72
    },
    {
      "midi": 76,
      "hit": false,
      "t": 25999.21875,
      "d": 199.21875,
      "v": 100
    },
    {
      "midi": 69,
      "hit": false,
      "t": 26198.4375,
      "d": 201.5625,
      "v": 100
    },
    {
      "midi": 62,
      "hit": false,
      "t": 26400,
      "d": 600,
      "v": 85
    },
    {
      "midi": 77,
      "hit": false,
      "t": 26599.21875,
      "d": 199.21875,
      "v": 100
    },
    {
      "midi": 69,
      "hit": false,
      "t": 26798.4375,
      "d": 201.5625,
      "v": 100
    },
    {
      "midi": 67,
      "hit": false,
      "t": 27000,
      "d": 600,
      "v": 89
    },
    {
      "midi": 76,
      "hit": false,
      "t": 27199.21875,
      "d": 199.21875,
      "v": 100
    },
    {
      "midi": 69,
      "hit": false,
      "t": 27398.4375,
      "d": 201.5625,
      "v": 100
    },
    {
      "midi": 66,
      "hit": false,
      "t": 27600,
      "d": 600,
      "v": 74
    },
    {
      "midi": 74,
      "hit": false,
      "t": 27799.21875,
      "d": 199.21875,
      "v": 100
    },
    {
      "midi": 69,
      "hit": false,
      "t": 27998.4375,
      "d": 201.5625,
      "v": 100
    },
    {
      "midi": 64,
      "hit": false,
      "t": 28200,
      "d": 600,
      "v": 70
    },
    {
      "midi": 76,
      "hit": false,
      "t": 28399.21875,
      "d": 199.21875,
      "v": 100
    },
    {
      "midi": 69,
      "hit": false,
      "t": 28598.4375,
      "d": 201.5625,
      "v": 100
    },
    {
      "midi": 62,
      "hit": false,
      "t": 28800,
      "d": 600,
      "v": 73
    },
    {
      "midi": 77,
      "hit": false,
      "t": 28999.21875,
      "d": 199.21875,
      "v": 100
    },
    {
      "midi": 69,
      "hit": false,
      "t": 29198.4375,
      "d": 201.5625,
      "v": 100
    },
    {
      "midi": 57,
      "hit": false,
      "t": 29400,
      "d": 600,
      "v": 72
    },
    {
      "midi": 77,
      "hit": false,
      "t": 29599.21875,
      "d": 199.21875,
      "v": 100
    },
    {
      "midi": 69,
      "hit": false,
      "t": 29798.4375,
      "d": 201.5625,
      "v": 100
    },
    {
      "midi": 61,
      "hit": false,
      "t": 30000,
      "d": 600,
      "v": 83
    },
    {
      "midi": 76,
      "hit": false,
      "t": 30199.21875,
      "d": 199.21875,
      "v": 100
    },
    {
      "midi": 69,
      "hit": false,
      "t": 30398.4375,
      "d": 201.5625,
      "v": 100
    },
    {
      "midi": 62,
      "hit": false,
      "t": 30600,
      "d": 600,
      "v": 85
    },
    {
      "midi": 77,
      "hit": false,
      "t": 30799.21875,
      "d": 199.21875,
      "v": 100
    },
    {
      "midi": 69,
      "hit": false,
      "t": 30998.4375,
      "d": 201.5625,
      "v": 100
    },
    {
      "midi": 64,
      "hit": false,
      "t": 31200,
      "d": 600,
      "v": 82
    },
    {
      "midi": 79,
      "hit": false,
      "t": 31399.21875,
      "d": 199.21875,
      "v": 100
    },
    {
      "midi": 69,
      "hit": false,
      "t": 31598.4375,
      "d": 201.5625,
      "v": 100
    },
    {
      "midi": 61,
      "hit": false,
      "t": 31800,
      "d": 600,
      "v": 72
    },
    {
      "midi": 76,
      "hit": false,
      "t": 31999.21875,
      "d": 199.21875,
      "v": 100
    },
    {
      "midi": 69,
      "hit": false,
      "t": 32198.4375,
      "d": 201.5625,
      "v": 100
    },
    {
      "midi": 57,
      "hit": false,
      "t": 32400,
      "d": 600,
      "v": 69
    },
    {
      "midi": 73,
      "hit": false,
      "t": 32599.21875,
      "d": 199.21875,
      "v": 100
    },
    {
      "midi": 69,
      "hit": false,
      "t": 32798.4375,
      "d": 201.5625,
      "v": 100
    },
    {
      "midi": 59,
      "hit": false,
      "t": 33000,
      "d": 600,
      "v": 83
    },
    {
      "midi": 74,
      "hit": false,
      "t": 33199.21875,
      "d": 199.21875,
      "v": 100
    },
    {
      "midi": 69,
      "hit": false,
      "t": 33398.4375,
      "d": 201.5625,
      "v": 100
    },
    {
      "midi": 61,
      "hit": false,
      "t": 33600,
      "d": 600,
      "v": 86
    },
    {
      "midi": 76,
      "hit": false,
      "t": 33799.21875,
      "d": 199.21875,
      "v": 100
    },
    {
      "midi": 69,
      "hit": false,
      "t": 33998.4375,
      "d": 201.5625,
      "v": 100
    },
    {
      "midi": 62,
      "hit": false,
      "t": 34200,
      "d": 600,
      "v": 80
    },
    {
      "midi": 77,
      "hit": false,
      "t": 34399.21875,
      "d": 199.21875,
      "v": 100
    },
    {
      "midi": 69,
      "hit": false,
      "t": 34598.4375,
      "d": 201.5625,
      "v": 100
    },
    {
      "midi": 64,
      "hit": false,
      "t": 34800,
      "d": 600,
      "v": 80
    },
    {
      "midi": 79,
      "hit": false,
      "t": 34999.21875,
      "d": 199.21875,
      "v": 100
    },
    {
      "midi": 69,
      "hit": false,
      "t": 35198.4375,
      "d": 201.5625,
      "v": 100
    },
    {
      "midi": 67,
      "hit": false,
      "t": 35400,
      "d": 600,
      "v": 100
    },
    {
      "midi": 73,
      "hit": false,
      "t": 35599.21875,
      "d": 199.21875,
      "v": 100
    },
    {
      "midi": 69,
      "hit": false,
      "t": 35798.4375,
      "d": 201.5625,
      "v": 100
    },
    {
      "midi": 74,
      "hit": false,
      "t": 36000,
      "d": 199.21875,
      "v": 100
    },
    {
      "midi": 66,
      "hit": false,
      "t": 36000,
      "d": 600,
      "v": 67
    },
    {
      "midi": 76,
      "hit": false,
      "t": 36199.21875,
      "d": 199.21875,
      "v": 100
    },
    {
      "midi": 74,
      "hit": false,
      "t": 36398.4375,
      "d": 201.5625,
      "v": 100
    },
    {
      "midi": 72,
      "hit": false,
      "t": 36600,
      "d": 199.21875,
      "v": 100
    },
    {
      "midi": 71,
      "hit": false,
      "t": 36799.21875,
      "d": 199.21875,
      "v": 100
    },
    {
      "midi": 69,
      "hit": false,
      "t": 36998.4375,
      "d": 201.5625,
      "v": 100
    },
    {
      "midi": 67,
      "hit": false,
      "t": 37200,
      "d": 199.21875,
      "v": 100
    },
    {
      "midi": 66,
      "hit": false,
      "t": 37399.21875,
      "d": 199.21875,
      "v": 100
    },
    {
      "midi": 64,
      "hit": false,
      "t": 37598.4375,
      "d": 201.5625,
      "v": 100
    },
    {
      "midi": 62,
      "hit": false,
      "t": 37800,
      "d": 199.21875,
      "v": 100
    },
    {
      "midi": 61,
      "hit": false,
      "t": 37999.21875,
      "d": 199.21875,
      "v": 100
    },
    {
      "midi": 60,
      "hit": false,
      "t": 38198.4375,
      "d": 201.5625,
      "v": 100
    }
  ]
}