{
  "jsonPath": "Unknown/Unknown/Freddie Mercury And Montserrat Caballe/how-can-i-go-on-1992-digital-remaster.json",
  "path": "Unknown\\Unknown\\Freddie Mercury And Montserrat Caballe\\How Can I Go On (1992 Digital Remaster).mid",
  "name": "How Can I Go On (1992 Digital Remaster)",
  "difficulty": "Advanced",
  "bpm": 120,
  "notes": [
    {
      "midi": 43,
      "hit": false,
      "t": 27825,
      "d": 3025.0000000000036,
      "v": 52
    },
    {
      "midi": 55,
      "hit": false,
      "t": 27966.666666666668,
      "d": 2666.666666666668,
      "v": 67
    },
    {
      "midi": 50,
      "hit": false,
      "t": 27966.666666666668,
      "d": 2966.666666666668,
      "v": 74
    },
    {
      "midi": 59,
      "hit": false,
      "t": 28033.333333333336,
      "d": 2700,
      "v": 77
    },
    {
      "midi": 48,
      "hit": false,
      "t": 32008.333333333336,
      "d": 1325,
      "v": 74
    },
    {
      "midi": 57,
      "hit": false,
      "t": 32016.666666666668,
      "d": 1266.6666666666679,
      "v": 72
    },
    {
      "midi": 66,
      "hit": false,
      "t": 32025,
      "d": 1083.3333333333358,
      "v": 72
    },
    {
      "midi": 62,
      "hit": false,
      "t": 32025,
      "d": 1408.3333333333358,
      "v": 77
    },
    {
      "midi": 55,
      "hit": false,
      "t": 33433.333333333336,
      "d": 1533.3333333333358,
      "v": 65
    },
    {
      "midi": 48,
      "hit": false,
      "t": 33441.66666666667,
      "d": 1841.6666666666642,
      "v": 62
    },
    {
      "midi": 60,
      "hit": false,
      "t": 33491.66666666667,
      "d": 1991.6666666666642,
      "v": 67
    },
    {
      "midi": 64,
      "hit": false,
      "t": 33575.00000000001,
      "d": 1983.3333333333285,
      "v": 67
    },
    {
      "midi": 55,
      "hit": false,
      "t": 35058.333333333336,
      "d": 533.3333333333358,
      "v": 57
    },
    {
      "midi": 54,
      "hit": false,
      "t": 36000.00000000001,
      "d": 375,
      "v": 57
    },
    {
      "midi": 42,
      "hit": false,
      "t": 36000.00000000001,
      "d": 1741.6666666666715,
      "v": 57
    },
    {
      "midi": 61,
      "hit": false,
      "t": 36008.33333333334,
      "d": 1725,
      "v": 67
    },
    {
      "midi": 64,
      "hit": false,
      "t": 36033.33333333334,
      "d": 1925.0000000000073,
      "v": 72
    },
    {
      "midi": 54,
      "hit": false,
      "t": 36516.66666666667,
      "d": 583.3333333333358,
      "v": 47
    },
    {
      "midi": 58,
      "hit": false,
      "t": 37000.00000000001,
      "d": 558.3333333333358,
      "v": 65
    },
    {
      "midi": 54,
      "hit": false,
      "t": 37500.00000000001,
      "d": 275.0000000000073,
      "v": 27
    },
    {
      "midi": 54,
      "hit": false,
      "t": 37966.666666666686,
      "d": 500,
      "v": 52
    },
    {
      "midi": 47,
      "hit": false,
      "t": 37983.33333333335,
      "d": 1166.6666666666642,
      "v": 65
    },
    {
      "midi": 59,
      "hit": false,
      "t": 37991.666666666686,
      "d": 983.3333333333285,
      "v": 74
    },
    {
      "midi": 62,
      "hit": false,
      "t": 38041.666666666686,
      "d": 1499.9999999999927,
      "v": 74
    },
    {
      "midi": 59,
      "hit": false,
      "t": 39000.000000000015,
      "d": 750,
      "v": 62
    },
    {
      "midi": 66,
      "hit": false,
      "t": 39008.33333333335,
      "d": 583.3333333333285,
      "v": 72
    },
    {
      "midi": 47,
      "hit": false,
      "t": 39491.66666666668,
      "d": 466.6666666666715,
      "v": 60
    },
    {
      "midi": 55,
      "hit": false,
      "t": 40008.33333333335,
      "d": 400.0000000000073,
      "v": 62
    },
    {
      "midi": 60,
      "hit": false,
      "t": 40041.666666666686,
      "d": 641.6666666666715,
      "v": 70
    },
    {
      "midi": 45,
      "hit": false,
      "t": 40050.00000000002,
      "d": 1350,
      "v": 57
    },
    {
      "midi": 64,
      "hit": false,
      "t": 40075.00000000002,
      "d": 1050,
      "v": 77
    },
    {
      "midi": 55,
      "hit": false,
      "t": 40483.33333333336,
      "d": 1016.6666666666642,
      "v": 65
    },
    {
      "midi": 60,
      "hit": false,
      "t": 41000.00000000002,
      "d": 550,
      "v": 77
    },
    {
      "midi": 64,
      "hit": false,
      "t": 41491.666666666686,
      "d": 141.66666666667152,
      "v": 55
    },
    {
      "midi": 57,
      "hit": false,
      "t": 41941.66666666669,
      "d": 1708.333333333343,
      "v": 62
    },
    {
      "midi": 50,
      "hit": false,
      "t": 41983.33333333336,
      "d": 1558.333333333343,
      "v": 62
    },
    {
      "midi": 62,
      "hit": false,
      "t": 41991.66666666669,
      "d": 1725.0000000000073,
      "v": 74
    },
    {
      "midi": 66,
      "hit": false,
      "t": 42025.00000000003,
      "d": 1708.3333333333358,
      "v": 67
    },
    {
      "midi": 55,
      "hit": false,
      "t": 43875.00000000003,
      "d": 2125.0000000000073,
      "v": 52
    },
    {
      "midi": 59,
      "hit": false,
      "t": 43941.6666666667,
      "d": 2700.0000000000073,
      "v": 57
    },
    {
      "midi": 43,
      "hit": false,
      "t": 43941.6666666667,
      "d": 3216.666666666679,
      "v": 52
    },
    {
      "midi": 62,
      "hit": false,
      "t": 43975.00000000004,
      "d": 2741.6666666666715,
      "v": 72
    },
    {
      "midi": 55,
      "hit": false,
      "t": 46608.33333333337,
      "d": 100,
      "v": 34
    },
    {
      "midi": 55,
      "hit": false,
      "t": 47025.000000000044,
      "d": 275,
      "v": 52
    },
    {
      "midi": 59,
      "hit": false,
      "t": 47025.000000000044,
      "d": 525,
      "v": 74
    },
    {
      "midi": 62,
      "hit": false,
      "t": 47025.000000000044,
      "d": 908.3333333333358,
      "v": 74
    },
    {
      "midi": 67,
      "hit": false,
      "t": 47033.33333333338,
      "d": 891.6666666666642,
      "v": 74
    },
    {
      "midi": 55,
      "hit": false,
      "t": 47491.66666666671,
      "d": 358.33333333333576,
      "v": 36
    },
    {
      "midi": 43,
      "hit": false,
      "t": 47550.000000000044,
      "d": 308.33333333333576,
      "v": 52
    },
    {
      "midi": 55,
      "hit": false,
      "t": 47975.000000000044,
      "d": 1266.6666666666715,
      "v": 60
    },
    {
      "midi": 60,
      "hit": false,
      "t": 47991.66666666671,
      "d": 1683.3333333333358,
      "v": 72
    },
    {
      "midi": 48,
      "hit": false,
      "t": 47991.66666666671,
      "d": 2241.6666666666642,
      "v": 74
    },
    {
      "midi": 64,
      "hit": false,
      "t": 48033.33333333338,
      "d": 1766.6666666666642,
      "v": 79
    },
    {
      "midi": 55,
      "hit": false,
      "t": 49483.33333333338,
      "d": 1133.3333333333285,
      "v": 50
    },
    {
      "midi": 60,
      "hit": false,
      "t": 50016.66666666671,
      "d": 1150,
      "v": 74
    },
    {
      "midi": 64,
      "hit": false,
      "t": 50020.83333333337,
      "d": 1666.6666666666642,
      "v": 74
    },
    {
      "midi": 48,
      "hit": false,
      "t": 50516.66666666671,
      "d": 833.3333333333358,
      "v": 83
    },
    {
      "midi": 55,
      "hit": false,
      "t": 51016.66666666671,
      "d": 591.6666666666642,
      "v": 79
    },
    {
      "midi": 60,
      "hit": false,
      "t": 51516.66666666671,
      "d": 475,
      "v": 62
    },
    {
      "midi": 48,
      "hit": false,
      "t": 51516.66666666671,
      "d": 491.6666666666715,
      "v": 65
    },
    {
      "midi": 59,
      "hit": false,
      "t": 51991.66666666671,
      "d": 891.6666666666715,
      "v": 74
    },
    {
      "midi": 47,
      "hit": false,
      "t": 52000.000000000044,
      "d": 1300,
      "v": 67
    },
    {
      "midi": 64,
      "hit": false,
      "t": 52000.000000000044,
      "d": 1975,
      "v": 74
    },
    {
      "midi": 66,
      "hit": false,
      "t": 52041.666666666715,
      "d": 1933.3333333333285,
      "v": 74
    },
    {
      "midi": 59,
      "hit": false,
      "t": 53025.000000000044,
      "d": 775,
      "v": 74
    },
    {
      "midi": 47,
      "hit": false,
      "t": 53491.66666666671,
      "d": 433.33333333333576,
      "v": 62
    },
    {
      "midi": 59,
      "hit": false,
      "t": 53983.33333333338,
      "d": 1341.6666666666715,
      "v": 65
    },
    {
      "midi": 63,
      "hit": false,
      "t": 54025.000000000044,
      "d": 1691.6666666666715,
      "v": 70
    },
    {
      "midi": 47,
      "hit": false,
      "t": 54033.33333333338,
      "d": 1958.3333333333358,
      "v": 65
    },
    {
      "midi": 66,
      "hit": false,
      "t": 54075.00000000005,
      "d": 1466.6666666666642,
      "v": 72
    },
    {
      "midi": 55,
      "hit": false,
      "t": 55933.33333333338,
      "d": 1183.3333333333358,
      "v": 50
    },
    {
      "midi": 59,
      "hit": false,
      "t": 55966.666666666715,
      "d": 1483.3333333333358,
      "v": 65
    },
    {
      "midi": 40,
      "hit": false,
      "t": 55991.666666666715,
      "d": 1816.6666666666642,
      "v": 62
    },
    {
      "midi": 64,
      "hit": false,
      "t": 56025.00000000005,
      "d": 1466.6666666666642,
      "v": 70
    },
    {
      "midi": 56,
      "hit": false,
      "t": 57975.00000000005,
      "d": 925,
      "v": 60
    },
    {
      "midi": 52,
      "hit": false,
      "t": 57975.00000000005,
      "d": 1616.6666666666715,
      "v": 65
    },
    {
      "midi": 59,
      "hit": false,
      "t": 57991.666666666715,
      "d": 1291.6666666666715,
      "v": 74
    },
    {
      "midi": 64,
      "hit": false,
      "t": 58033.33333333338,
      "d": 1400.0000000000073,
      "v": 77
    },
    {
      "midi": 49,
      "hit": false,
      "t": 60008.33333333339,
      "d": 1233.3333333333358,
      "v": 72
    },
    {
      "midi": 57,
      "hit": false,
      "t": 60016.66666666672,
      "d": 916.6666666666715,
      "v": 72
    },
    {
      "midi": 64,
      "hit": false,
      "t": 60041.66666666672,
      "d": 1550.0000000000073,
      "v": 74
    },
    {
      "midi": 57,
      "hit": false,
      "t": 61058.333333333394,
      "d": 466.66666666666424,
      "v": 67
    },
    {
      "midi": 61,
      "hit": false,
      "t": 61075.00000000006,
      "d": 483.33333333333576,
      "v": 65
    },
    {
      "midi": 49,
      "hit": false,
      "t": 61466.66666666672,
      "d": 250.00000000000728,
      "v": 43
    },
    {
      "midi": 55,
      "hit": false,
      "t": 62033.3333333334,
      "d": 1383.3333333333358,
      "v": 65
    },
    {
      "midi": 60,
      "hit": false,
      "t": 62033.3333333334,
      "d": 1425,
      "v": 67
    },
    {
      "midi": 64,
      "hit": false,
      "t": 62041.66666666674,
      "d": 1658.3333333333285,
      "v": 72
    },
    {
      "midi": 48,
      "hit": false,
      "t": 62066.66666666674,
      "d": 1591.6666666666642,
      "v": 37
    },
    {
      "midi": 55,
      "hit": false,
      "t": 63954.16666666674,
      "d": 1550.0000000000073,
      "v": 45
    },
    {
      "midi": 59,
      "hit": false,
      "t": 64012.50000000007,
      "d": 1183.3333333333358,
      "v": 62
    },
    {
      "midi": 62,
      "hit": false,
      "t": 64045.83333333341,
      "d": 2016.6666666666642,
      "v": 70
    },
    {
      "midi": 43,
      "hit": false,
      "t": 64054.166666666744,
      "d": 1566.6666666666715,
      "v": 47
    },
    {
      "midi": 55,
      "hit": false,
      "t": 65933.33333333342,
      "d": 858.3333333333285,
      "v": 62
    },
    {
      "midi": 48,
      "hit": false,
      "t": 65958.33333333342,
      "d": 1449.9999999999854,
      "v": 70
    },
    {
      "midi": 60,
      "hit": false,
      "t": 65966.66666666674,
      "d": 1158.3333333333285,
      "v": 70
    },
    {
      "midi": 64,
      "hit": false,
      "t": 66050.00000000007,
      "d": 1991.666666666657,
      "v": 72
    },
    {
      "midi": 55,
      "hit": false,
      "t": 67058.3333333334,
      "d": 658.3333333333285,
      "v": 77
    },
    {
      "midi": 48,
      "hit": false,
      "t": 67558.3333333334,
      "d": 491.66666666665697,
      "v": 57
    },
    {
      "midi": 60,
      "hit": false,
      "t": 67566.66666666673,
      "d": 508.3333333333285,
      "v": 62
    },
    {
      "midi": 55,
      "hit": false,
      "t": 68066.66666666673,
      "d": 1158.333333333343,
      "v": 60
    },
    {
      "midi": 59,
      "hit": false,
      "t": 68066.66666666673,
      "d": 1750,
      "v": 67
    },
    {
      "midi": 62,
      "hit": false,
      "t": 68066.66666666673,
      "d": 1883.3333333333285,
      "v": 74
    },
    {
      "midi": 67,
      "hit": false,
      "t": 69083.3333333334,
      "d": 883.3333333333285,
      "v": 67
    },
    {
      "midi": 55,
      "hit": false,
      "t": 69508.3333333334,
      "d": 391.66666666665697,
      "v": 57
    },
    {
      "midi": 57,
      "hit": false,
      "t": 70000.00000000006,
      "d": 1516.6666666666424,
      "v": 65
    },
    {
      "midi": 50,
      "hit": false,
      "t": 70033.33333333339,
      "d": 1783.333333333314,
      "v": 55
    },
    {
      "midi": 62,
      "hit": false,
      "t": 70041.66666666672,
      "d": 1474.9999999999854,
      "v": 74
    },
    {
      "midi": 66,
      "hit": false,
      "t": 70066.66666666672,
      "d": 1508.333333333314,
      "v": 70
    },
    {
      "midi": 55,
      "hit": false,
      "t": 72025.00000000003,
      "d": 1058.333333333314,
      "v": 57
    },
    {
      "midi": 59,
      "hit": false,
      "t": 72066.66666666669,
      "d": 1150,
      "v": 74
    },
    {
      "midi": 43,
      "hit": false,
      "t": 72075.00000000001,
      "d": 1166.6666666666715,
      "v": 60
    },
    {
      "midi": 62,
      "hit": false,
      "t": 72100.00000000001,
      "d": 1000,
      "v": 74
    },
    {
      "midi": 55,
      "hit": false,
      "t": 73441.66666666669,
      "d": 2050,
      "v": 70
    },
    {
      "midi": 60,
      "hit": false,
      "t": 73483.33333333336,
      "d": 2191.6666666666715,
      "v": 83
    },
    {
      "midi": 43,
      "hit": false,
      "t": 73491.66666666669,
      "d": 2091.6666666666715,
      "v": 65
    },
    {
      "midi": 63,
      "hit": false,
      "t": 73516.66666666669,
      "d": 1916.6666666666715,
      "v": 72
    },
    {
      "midi": 43,
      "hit": false,
      "t": 75891.6666666667,
      "d": 3549.9999999999854,
      "v": 55
    },
    {
      "midi": 55,
      "hit": false,
      "t": 75900.00000000003,
      "d": 3724.9999999999854,
      "v": 67
    },
    {
      "midi": 59,
      "hit": false,
      "t": 75941.6666666667,
      "d": 3191.6666666666424,
      "v": 67
    },
    {
      "midi": 62,
      "hit": false,
      "t": 76025.00000000003,
      "d": 2874.9999999999854,
      "v": 77
    },
    {
      "midi": 67,
      "hit": false,
      "t": 78025.00000000003,
      "d": 458.3333333333285,
      "v": 72
    },
    {
      "midi": 66,
      "hit": false,
      "t": 78541.66666666669,
      "d": 483.3333333333285,
      "v": 77
    },
    {
      "midi": 62,
      "hit": false,
      "t": 79033.33333333334,
      "d": 558.333333333343,
      "v": 77
    },
    {
      "midi": 59,
      "hit": false,
      "t": 80033.33333333334,
      "d": 1425,
      "v": 72
    },
    {
      "midi": 55,
      "hit": false,
      "t": 80033.33333333334,
      "d": 1441.6666666666715,
      "v": 67
    },
    {
      "midi": 40,
      "hit": false,
      "t": 80033.33333333334,
      "d": 3383.333333333343,
      "v": 70
    },
    {
      "midi": 47,
      "hit": false,
      "t": 81516.66666666669,
      "d": 1891.6666666666715,
      "v": 60
    },
    {
      "midi": 52,
      "hit": false,
      "t": 81775.00000000001,
      "d": 1083.333333333343,
      "v": 43
    },
    {
      "midi": 55,
      "hit": false,
      "t": 81991.66666666669,
      "d": 1341.6666666666715,
      "v": 70
    },
    {
      "midi": 59,
      "hit": false,
      "t": 82516.66666666669,
      "d": 1058.333333333343,
      "v": 57
    },
    {
      "midi": 52,
      "hit": false,
      "t": 83025.00000000003,
      "d": 433.3333333333285,
      "v": 62
    },
    {
      "midi": 55,
      "hit": false,
      "t": 83875.00000000003,
      "d": 891.6666666666715,
      "v": 36
    },
    {
      "midi": 59,
      "hit": false,
      "t": 83933.33333333337,
      "d": 1125,
      "v": 57
    },
    {
      "midi": 40,
      "hit": false,
      "t": 83975.00000000004,
      "d": 3841.666666666657,
      "v": 57
    },
    {
      "midi": 64,
      "hit": false,
      "t": 84000.00000000004,
      "d": 3591.666666666657,
      "v": 72
    },
    {
      "midi": 52,
      "hit": false,
      "t": 84508.33333333337,
      "d": 2383.3333333333285,
      "v": 72
    },
    {
      "midi": 55,
      "hit": false,
      "t": 84983.33333333337,
      "d": 866.666666666657,
      "v": 74
    },
    {
      "midi": 59,
      "hit": false,
      "t": 85491.6666666667,
      "d": 358.3333333333285,
      "v": 60
    },
    {
      "midi": 55,
      "hit": false,
      "t": 85941.6666666667,
      "d": 1675,
      "v": 50
    },
    {
      "midi": 59,
      "hit": false,
      "t": 85975.00000000003,
      "d": 1533.333333333343,
      "v": 70
    },
    {
      "midi": 67,
      "hit": false,
      "t": 86066.6666666667,
      "d": 1866.6666666666715,
      "v": 74
    },
    {
      "midi": 52,
      "hit": false,
      "t": 87508.33333333337,
      "d": 258.3333333333285,
      "v": 47
    },
    {
      "midi": 55,
      "hit": false,
      "t": 87975.00000000004,
      "d": 875,
      "v": 65
    },
    {
      "midi": 45,
      "hit": false,
      "t": 88000.00000000004,
      "d": 1266.6666666666715,
      "v": 70
    },
    {
      "midi": 60,
      "hit": false,
      "t": 88008.33333333337,
      "d": 1658.333333333343,
      "v": 74
    },
    {
      "midi": 64,
      "hit": false,
      "t": 88075.00000000004,
      "d": 1633.333333333343,
      "v": 72
    },
    {
      "midi": 55,
      "hit": false,
      "t": 89041.66666666672,
      "d": 508.3333333333285,
      "v": 77
    },
    {
      "midi": 45,
      "hit": false,
      "t": 89516.66666666672,
      "d": 500,
      "v": 65
    },
    {
      "midi": 57,
      "hit": false,
      "t": 90008.33333333339,
      "d": 1266.666666666657,
      "v": 62
    },
    {
      "midi": 50,
      "hit": false,
      "t": 90041.66666666672,
      "d": 1308.3333333333285,
      "v": 72
    },
    {
      "midi": 66,
      "hit": false,
      "t": 90050.00000000004,
      "d": 1108.3333333333285,
      "v": 74
    },
    {
      "midi": 62,
      "hit": false,
      "t": 90050.00000000004,
      "d": 1133.3333333333285,
      "v": 83
    },
    {
      "midi": 55,
      "hit": false,
      "t": 92008.33333333337,
      "d": 1058.3333333333285,
      "v": 74
    },
    {
      "midi": 43,
      "hit": false,
      "t": 92008.33333333337,
      "d": 3049.9999999999854,
      "v": 62
    },
    {
      "midi": 50,
      "hit": false,
      "t": 92016.6666666667,
      "d": 1041.6666666666715,
      "v": 72
    },
    {
      "midi": 59,
      "hit": false,
      "t": 92016.6666666667,
      "d": 1041.6666666666715,
      "v": 74
    },
    {
      "midi": 55,
      "hit": false,
      "t": 93466.6666666667,
      "d": 200,
      "v": 61
    },
    {
      "midi": 59,
      "hit": false,
      "t": 93466.6666666667,
      "d": 241.66666666667152,
      "v": 59
    },
    {
      "midi": 50,
      "hit": false,
      "t": 93475.00000000003,
      "d": 150,
      "v": 68
    },
    {
      "midi": 52,
      "hit": false,
      "t": 93708.33333333337,
      "d": 141.66666666665697,
      "v": 77
    },
    {
      "midi": 60,
      "hit": false,
      "t": 93708.33333333337,
      "d": 249.99999999998545,
      "v": 72
    },
    {
      "midi": 55,
      "hit": false,
      "t": 93716.6666666667,
      "d": 2041.666666666657,
      "v": 74
    },
    {
      "midi": 50,
      "hit": false,
      "t": 93966.66666666669,
      "d": 1566.6666666666715,
      "v": 70
    },
    {
      "midi": 59,
      "hit": false,
      "t": 93966.66666666669,
      "d": 1975.0000000000146,
      "v": 62
    },
    {
      "midi": 43,
      "hit": false,
      "t": 95491.66666666669,
      "d": 583.333333333343,
      "v": 52
    },
    {
      "midi": 52,
      "hit": false,
      "t": 95975.00000000003,
      "d": 508.3333333333285,
      "v": 67
    },
    {
      "midi": 55,
      "hit": false,
      "t": 96000.00000000003,
      "d": 1016.6666666666715,
      "v": 62
    },
    {
      "midi": 40,
      "hit": false,
      "t": 96016.6666666667,
      "d": 3616.666666666657,
      "v": 65
    },
    {
      "midi": 59,
      "hit": false,
      "t": 96066.6666666667,
      "d": 1541.6666666666715,
      "v": 60
    },
    {
      "midi": 52,
      "hit": false,
      "t": 97000.00000000003,
      "d": 1125,
      "v": 60
    },
    {
      "midi": 55,
      "hit": false,
      "t": 97608.33333333337,
      "d": 158.33333333332848,
      "v": 41
    },
    {
      "midi": 55,
      "hit": false,
      "t": 98016.6666666667,
      "d": 725,
      "v": 62
    },
    {
      "midi": 59,
      "hit": false,
      "t": 98025.00000000003,
      "d": 950,
      "v": 72
    },
    {
      "midi": 64,
      "hit": false,
      "t": 98041.6666666667,
      "d": 1008.3333333333285,
      "v": 74
    },
    {
      "midi": 47,
      "hit": false,
      "t": 100000.00000000003,
      "d": 2191.666666666686,
      "v": 62
    },
    {
      "midi": 59,
      "hit": false,
      "t": 100008.33333333336,
      "d": 783.333333333343,
      "v": 62
    },
    {
      "midi": 62,
      "hit": false,
      "t": 100025.00000000003,
      "d": 1325.0000000000146,
      "v": 70
    },
    {
      "midi": 66,
      "hit": false,
      "t": 100041.6666666667,
      "d": 1650.0000000000146,
      "v": 65
    },
    {
      "midi": 59,
      "hit": false,
      "t": 101033.33333333337,
      "d": 633.333333333343,
      "v": 57
    },
    {
      "midi": 62,
      "hit": false,
      "t": 101550.00000000004,
      "d": 133.33333333334303,
      "v": 55
    },
    {
      "midi": 59,
      "hit": false,
      "t": 102000.00000000004,
      "d": 741.6666666666715,
      "v": 67
    },
    {
      "midi": 62,
      "hit": false,
      "t": 102025.00000000004,
      "d": 1083.333333333343,
      "v": 79
    },
    {
      "midi": 66,
      "hit": false,
      "t": 102025.00000000004,
      "d": 1950.0000000000146,
      "v": 72
    },
    {
      "midi": 47,
      "hit": false,
      "t": 102516.66666666672,
      "d": 1491.6666666666715,
      "v": 74
    },
    {
      "midi": 59,
      "hit": false,
      "t": 103016.66666666672,
      "d": 608.333333333343,
      "v": 74
    },
    {
      "midi": 62,
      "hit": false,
      "t": 103508.33333333339,
      "d": 525,
      "v": 65
    },
    {
      "midi": 57,
      "hit": false,
      "t": 103966.66666666673,
      "d": 1224.9999999999854,
      "v": 62
    },
    {
      "midi": 60,
      "hit": false,
      "t": 103983.33333333339,
      "d": 1758.3333333333285,
      "v": 72
    },
    {
      "midi": 45,
      "hit": false,
      "t": 103983.33333333339,
      "d": 2225,
      "v": 65
    },
    {
      "midi": 64,
      "hit": false,
      "t": 104033.33333333339,
      "d": 1775,
      "v": 72
    },
    {
      "midi": 57,
      "hit": false,
      "t": 105491.66666666672,
      "d": 366.6666666666715,
      "v": 52
    },
    {
      "midi": 57,
      "hit": false,
      "t": 106008.33333333339,
      "d": 741.6666666666715,
      "v": 67
    },
    {
      "midi": 60,
      "hit": false,
      "t": 106008.33333333339,
      "d": 1125,
      "v": 70
    },
    {
      "midi": 67,
      "hit": false,
      "t": 106008.33333333339,
      "d": 1700.0000000000146,
      "v": 74
    },
    {
      "midi": 64,
      "hit": false,
      "t": 106008.33333333339,
      "d": 1966.666666666686,
      "v": 74
    },
    {
      "midi": 45,
      "hit": false,
      "t": 106533.33333333339,
      "d": 725,
      "v": 62
    },
    {
      "midi": 57,
      "hit": false,
      "t": 107025.00000000006,
      "d": 708.333333333343,
      "v": 67
    },
    {
      "midi": 45,
      "hit": false,
      "t": 107500.00000000006,
      "d": 191.66666666667152,
      "v": 50
    },
    {
      "midi": 60,
      "hit": false,
      "t": 107500.00000000006,
      "d": 533.333333333343,
      "v": 60
    },
    {
      "midi": 57,
      "hit": false,
      "t": 107950.00000000007,
      "d": 808.3333333333285,
      "v": 57
    },
    {
      "midi": 50,
      "hit": false,
      "t": 107950.00000000007,
      "d": 1166.666666666657,
      "v": 50
    },
    {
      "midi": 62,
      "hit": false,
      "t": 107966.66666666674,
      "d": 1191.666666666657,
      "v": 72
    },
    {
      "midi": 38,
      "hit": false,
      "t": 108525.00000000007,
      "d": 1108.3333333333285,
      "v": 55
    },
    {
      "midi": 57,
      "hit": false,
      "t": 108991.66666666673,
      "d": 791.6666666666715,
      "v": 89
    },
    {
      "midi": 62,
      "hit": false,
      "t": 109525.00000000007,
      "d": 541.666666666657,
      "v": 65
    },
    {
      "midi": 57,
      "hit": false,
      "t": 109941.66666666673,
      "d": 825,
      "v": 50
    },
    {
      "midi": 63,
      "hit": false,
      "t": 110008.3333333334,
      "d": 1925,
      "v": 74
    },
    {
      "midi": 39,
      "hit": false,
      "t": 110016.66666666673,
      "d": 1616.6666666666715,
      "v": 57
    },
    {
      "midi": 66,
      "hit": false,
      "t": 110041.66666666673,
      "d": 1841.6666666666715,
      "v": 65
    },
    {
      "midi": 51,
      "hit": false,
      "t": 110583.3333333334,
      "d": 650,
      "v": 30
    },
    {
      "midi": 57,
      "hit": false,
      "t": 111008.3333333334,
      "d": 700,
      "v": 62
    },
    {
      "midi": 51,
      "hit": false,
      "t": 111533.3333333334,
      "d": 208.33333333332848,
      "v": 28
    },
    {
      "midi": 60,
      "hit": false,
      "t": 111541.66666666673,
      "d": 175,
      "v": 43
    },
    {
      "midi": 55,
      "hit": false,
      "t": 111975.00000000007,
      "d": 1691.6666666666424,
      "v": 55
    },
    {
      "midi": 59,
      "hit": false,
      "t": 112000.00000000007,
      "d": 1749.9999999999854,
      "v": 70
    },
    {
      "midi": 40,
      "hit": false,
      "t": 112025.00000000007,
      "d": 1608.333333333314,
      "v": 55
    },
    {
      "midi": 64,
      "hit": false,
      "t": 112066.66666666673,
      "d": 1666.666666666657,
      "v": 72
    },
    {
      "midi": 52,
      "hit": false,
      "t": 113558.33333333339,
      "d": 2241.666666666657,
      "v": 43
    },
    {
      "midi": 55,
      "hit": false,
      "t": 113958.33333333339,
      "d": 191.66666666665697,
      "v": 45
    },
    {
      "midi": 59,
      "hit": false,
      "t": 114008.33333333339,
      "d": 1741.666666666657,
      "v": 65
    },
    {
      "midi": 64,
      "hit": false,
      "t": 114058.33333333339,
      "d": 1858.3333333333285,
      "v": 65
    },
    {
      "midi": 67,
      "hit": false,
      "t": 114116.66666666672,
      "d": 1783.3333333333285,
      "v": 65
    },
    {
      "midi": 59,
      "hit": false,
      "t": 115975.00000000004,
      "d": 1441.6666666666715,
      "v": 36
    },
    {
      "midi": 52,
      "hit": false,
      "t": 116008.33333333337,
      "d": 1166.6666666666715,
      "v": 52
    },
    {
      "midi": 64,
      "hit": false,
      "t": 116025.00000000004,
      "d": 1250,
      "v": 72
    },
    {
      "midi": 67,
      "hit": false,
      "t": 116066.66666666672,
      "d": 1358.3333333333285,
      "v": 67
    },
    {
      "midi": 52,
      "hit": false,
      "t": 117516.66666666672,
      "d": 816.6666666666715,
      "v": 52
    },
    {
      "midi": 55,
      "hit": false,
      "t": 117966.66666666672,
      "d": 650,
      "v": 55
    },
    {
      "midi": 59,
      "hit": false,
      "t": 117983.33333333339,
      "d": 1033.3333333333285,
      "v": 67
    },
    {
      "midi": 64,
      "hit": false,
      "t": 118000.00000000006,
      "d": 1916.666666666657,
      "v": 74
    },
    {
      "midi": 52,
      "hit": false,
      "t": 118491.66666666672,
      "d": 833.3333333333285,
      "v": 47
    },
    {
      "midi": 55,
      "hit": false,
      "t": 119000.00000000004,
      "d": 666.6666666666715,
      "v": 89
    },
    {
      "midi": 52,
      "hit": false,
      "t": 119500.00000000004,
      "d": 566.6666666666715,
      "v": 50
    },
    {
      "midi": 59,
      "hit": false,
      "t": 119500.00000000004,
      "d": 575,
      "v": 60
    },
    {
      "midi": 55,
      "hit": false,
      "t": 119975.00000000004,
      "d": 1666.666666666657,
      "v": 60
    },
    {
      "midi": 60,
      "hit": false,
      "t": 120016.66666666672,
      "d": 1883.333333333314,
      "v": 72
    },
    {
      "midi": 64,
      "hit": false,
      "t": 120033.33333333339,
      "d": 1633.333333333314,
      "v": 77
    },
    {
      "midi": 45,
      "hit": false,
      "t": 120141.66666666672,
      "d": 50,
      "v": 16
    },
    {
      "midi": 45,
      "hit": false,
      "t": 121508.33333333337,
      "d": 366.66666666665697,
      "v": 41
    },
    {
      "midi": 57,
      "hit": false,
      "t": 121933.33333333336,
      "d": 833.3333333333285,
      "v": 67
    },
    {
      "midi": 50,
      "hit": false,
      "t": 121950.00000000003,
      "d": 1083.333333333314,
      "v": 62
    },
    {
      "midi": 62,
      "hit": false,
      "t": 121983.33333333336,
      "d": 1658.333333333314,
      "v": 72
    },
    {
      "midi": 66,
      "hit": false,
      "t": 122033.33333333336,
      "d": 1983.333333333314,
      "v": 55
    },
    {
      "midi": 57,
      "hit": false,
      "t": 122950.00000000001,
      "d": 649.9999999999854,
      "v": 67
    },
    {
      "midi": 50,
      "hit": false,
      "t": 123441.66666666667,
      "d": 616.6666666666715,
      "v": 52
    },
    {
      "midi": 55,
      "hit": false,
      "t": 123991.66666666667,
      "d": 791.6666666666715,
      "v": 65
    },
    {
      "midi": 59,
      "hit": false,
      "t": 124000,
      "d": 700.0000000000146,
      "v": 72
    },
    {
      "midi": 43,
      "hit": false,
      "t": 124025,
      "d": 3658.3333333333576,
      "v": 62
    },
    {
      "midi": 62,
      "hit": false,
      "t": 124041.66666666667,
      "d": 1425,
      "v": 74
    },
    {
      "midi": 55,
      "hit": false,
      "t": 125516.66666666667,
      "d": 1300,
      "v": 65
    },
    {
      "midi": 50,
      "hit": false,
      "t": 125541.66666666667,
      "d": 225,
      "v": 65
    },
    {
      "midi": 59,
      "hit": false,
      "t": 125541.66666666667,
      "d": 1841.6666666666715,
      "v": 62
    },
    {
      "midi": 52,
      "hit": false,
      "t": 125775,
      "d": 250,
      "v": 41
    },
    {
      "midi": 50,
      "hit": false,
      "t": 126016.66666666667,
      "d": 1033.333333333343,
      "v": 62
    },
    {
      "midi": 55,
      "hit": false,
      "t": 126983.33333333334,
      "d": 558.333333333343,
      "v": 72
    },
    {
      "midi": 50,
      "hit": false,
      "t": 127450.00000000001,
      "d": 541.6666666666715,
      "v": 57
    },
    {
      "midi": 54,
      "hit": false,
      "t": 127983.33333333336,
      "d": 908.3333333333285,
      "v": 55
    },
    {
      "midi": 59,
      "hit": false,
      "t": 127983.33333333336,
      "d": 1491.666666666657,
      "v": 74
    },
    {
      "midi": 47,
      "hit": false,
      "t": 127983.33333333336,
      "d": 1933.3333333333285,
      "v": 72
    },
    {
      "midi": 63,
      "hit": false,
      "t": 127991.66666666669,
      "d": 1591.666666666657,
      "v": 77
    },
    {
      "midi": 54,
      "hit": false,
      "t": 129483.33333333334,
      "d": 141.66666666667152,
      "v": 36
    },
    {
      "midi": 57,
      "hit": false,
      "t": 129975.00000000001,
      "d": 833.3333333333139,
      "v": 55
    },
    {
      "midi": 59,
      "hit": false,
      "t": 130008.33333333334,
      "d": 1533.333333333314,
      "v": 65
    },
    {
      "midi": 63,
      "hit": false,
      "t": 130008.33333333334,
      "d": 1566.666666666657,
      "v": 74
    },
    {
      "midi": 51,
      "hit": false,
      "t": 130016.66666666667,
      "d": 1174.9999999999854,
      "v": 57
    },
    {
      "midi": 66,
      "hit": false,
      "t": 130016.66666666667,
      "d": 1574.9999999999854,
      "v": 77
    },
    {
      "midi": 57,
      "hit": false,
      "t": 131000,
      "d": 566.666666666657,
      "v": 74
    },
    {
      "midi": 51,
      "hit": false,
      "t": 131491.66666666666,
      "d": 291.66666666665697,
      "v": 50
    },
    {
      "midi": 55,
      "hit": false,
      "t": 131974.99999999997,
      "d": 1641.6666666667152,
      "v": 65
    },
    {
      "midi": 59,
      "hit": false,
      "t": 132008.3333333333,
      "d": 1866.666666666686,
      "v": 67
    },
    {
      "midi": 52,
      "hit": false,
      "t": 132016.66666666666,
      "d": 2300.000000000029,
      "v": 74
    },
    {
      "midi": 64,
      "hit": false,
      "t": 132050,
      "d": 1708.333333333343,
      "v": 74
    },
    {
      "midi": 67,
      "hit": false,
      "t": 132083.33333333334,
      "d": 3550.000000000029,
      "v": 74
    },
    {
      "midi": 59,
      "hit": false,
      "t": 134041.66666666666,
      "d": 1050.000000000029,
      "v": 60
    },
    {
      "midi": 55,
      "hit": false,
      "t": 134050,
      "d": 750.0000000000291,
      "v": 50
    },
    {
      "midi": 64,
      "hit": false,
      "t": 134058.33333333334,
      "d": 1783.3333333333721,
      "v": 62
    },
    {
      "midi": 52,
      "hit": false,
      "t": 134575.00000000003,
      "d": 600,
      "v": 65
    },
    {
      "midi": 55,
      "hit": false,
      "t": 135000.00000000003,
      "d": 758.333333333343,
      "v": 74
    },
    {
      "midi": 52,
      "hit": false,
      "t": 135508.33333333337,
      "d": 183.33333333334303,
      "v": 55
    },
    {
      "midi": 59,
      "hit": false,
      "t": 135525.00000000003,
      "d": 166.66666666668607,
      "v": 55
    },
    {
      "midi": 55,
      "hit": false,
      "t": 136033.33333333337,
      "d": 1516.666666666686,
      "v": 72
    },
    {
      "midi": 64,
      "hit": false,
      "t": 136041.66666666672,
      "d": 1625,
      "v": 77
    },
    {
      "midi": 60,
      "hit": false,
      "t": 136041.66666666672,
      "d": 1716.666666666657,
      "v": 72
    },
    {
      "midi": 45,
      "hit": false,
      "t": 136041.66666666672,
      "d": 1866.666666666657,
      "v": 52
    },
    {
      "midi": 58,
      "hit": false,
      "t": 138033.33333333337,
      "d": 1050.000000000029,
      "v": 52
    },
    {
      "midi": 64,
      "hit": false,
      "t": 138066.66666666672,
      "d": 1558.333333333343,
      "v": 70
    },
    {
      "midi": 61,
      "hit": false,
      "t": 138066.66666666672,
      "d": 1608.333333333343,
      "v": 70
    },
    {
      "midi": 49,
      "hit": false,
      "t": 138075.00000000006,
      "d": 1325,
      "v": 55
    },
    {
      "midi": 67,
      "hit": false,
      "t": 138083.3333333334,
      "d": 1491.666666666657,
      "v": 77
    },
    {
      "midi": 49,
      "hit": false,
      "t": 139491.66666666672,
      "d": 358.33333333334303,
      "v": 62
    },
    {
      "midi": 57,
      "hit": false,
      "t": 140016.66666666674,
      "d": 1600,
      "v": 72
    },
    {
      "midi": 59,
      "hit": false,
      "t": 140025.0000000001,
      "d": 1675,
      "v": 70
    },
    {
      "midi": 63,
      "hit": false,
      "t": 140041.66666666674,
      "d": 1725,
      "v": 70
    },
    {
      "midi": 66,
      "hit": false,
      "t": 140041.66666666674,
      "d": 1791.666666666657,
      "v": 74
    },
    {
      "midi": 47,
      "hit": false,
      "t": 140041.66666666674,
      "d": 1949.999999999971,
      "v": 52
    },
    {
      "midi": 57,
      "hit": false,
      "t": 141950.00000000006,
      "d": 1583.333333333343,
      "v": 50
    },
    {
      "midi": 50,
      "hit": false,
      "t": 142025.00000000006,
      "d": 1483.333333333343,
      "v": 55
    },
    {
      "midi": 62,
      "hit": false,
      "t": 142033.3333333334,
      "d": 1491.666666666657,
      "v": 70
    },
    {
      "midi": 66,
      "hit": false,
      "t": 142075.00000000006,
      "d": 1483.333333333343,
      "v": 60
    },
    {
      "midi": 55,
      "hit": false,
      "t": 143941.66666666674,
      "d": 3591.666666666715,
      "v": 30
    },
    {
      "midi": 59,
      "hit": false,
      "t": 143975.0000000001,
      "d": 2933.333333333343,
      "v": 65
    },
    {
      "midi": 43,
      "hit": false,
      "t": 143991.66666666674,
      "d": 3716.666666666715,
      "v": 47
    },
    {
      "midi": 62,
      "hit": false,
      "t": 144025.0000000001,
      "d": 3633.333333333372,
      "v": 67
    },
    {
      "midi": 59,
      "hit": false,
      "t": 146991.66666666677,
      "d": 741.6666666666861,
      "v": 62
    },
    {
      "midi": 57,
      "hit": false,
      "t": 147983.33333333346,
      "d": 1200,
      "v": 65
    },
    {
      "midi": 62,
      "hit": false,
      "t": 148008.33333333346,
      "d": 1375,
      "v": 74
    },
    {
      "midi": 48,
      "hit": false,
      "t": 148016.6666666668,
      "d": 3441.666666666657,
      "v": 57
    },
    {
      "midi": 66,
      "hit": false,
      "t": 148033.33333333346,
      "d": 1108.333333333343,
      "v": 72
    },
    {
      "midi": 55,
      "hit": false,
      "t": 149458.33333333346,
      "d": 1833.333333333314,
      "v": 60
    },
    {
      "midi": 60,
      "hit": false,
      "t": 149483.33333333346,
      "d": 1866.666666666657,
      "v": 67
    },
    {
      "midi": 64,
      "hit": false,
      "t": 149525.00000000012,
      "d": 1758.333333333314,
      "v": 72
    },
    {
      "midi": 54,
      "hit": false,
      "t": 151858.33333333346,
      "d": 1016.6666666666861,
      "v": 55
    },
    {
      "midi": 58,
      "hit": false,
      "t": 151858.33333333346,
      "d": 1533.3333333333721,
      "v": 55
    },
    {
      "midi": 61,
      "hit": false,
      "t": 151891.6666666668,
      "d": 1825.000000000029,
      "v": 65
    },
    {
      "midi": 64,
      "hit": false,
      "t": 151941.6666666668,
      "d": 2025.0000000000582,
      "v": 74
    },
    {
      "midi": 54,
      "hit": false,
      "t": 153008.3333333335,
      "d": 850.0000000000291,
      "v": 38
    },
    {
      "midi": 58,
      "hit": false,
      "t": 153491.66666666683,
      "d": 283.33333333334303,
      "v": 55
    },
    {
      "midi": 54,
      "hit": false,
      "t": 153983.33333333352,
      "d": 383.33333333334303,
      "v": 52
    },
    {
      "midi": 59,
      "hit": false,
      "t": 153983.33333333352,
      "d": 833.333333333343,
      "v": 65
    },
    {
      "midi": 62,
      "hit": false,
      "t": 154016.66666666686,
      "d": 1766.666666666657,
      "v": 74
    },
    {
      "midi": 54,
      "hit": false,
      "t": 154433.33333333352,
      "d": 766.666666666657,
      "v": 60
    },
    {
      "midi": 59,
      "hit": false,
      "t": 154958.33333333352,
      "d": 750,
      "v": 72
    },
    {
      "midi": 57,
      "hit": false,
      "t": 155958.33333333352,
      "d": 850,
      "v": 60
    },
    {
      "midi": 60,
      "hit": false,
      "t": 155991.66666666686,
      "d": 1108.333333333343,
      "v": 62
    },
    {
      "midi": 64,
      "hit": false,
      "t": 156033.33333333352,
      "d": 1158.333333333343,
      "v": 72
    },
    {
      "midi": 57,
      "hit": false,
      "t": 157016.66666666686,
      "d": 416.66666666665697,
      "v": 50
    },
    {
      "midi": 57,
      "hit": false,
      "t": 157958.33333333352,
      "d": 1850.000000000029,
      "v": 55
    },
    {
      "midi": 62,
      "hit": false,
      "t": 158016.66666666686,
      "d": 1883.333333333343,
      "v": 62
    },
    {
      "midi": 66,
      "hit": false,
      "t": 158041.66666666686,
      "d": 1891.666666666686,
      "v": 52
    },
    {
      "midi": 55,
      "hit": false,
      "t": 159983.33333333355,
      "d": 2641.666666666686,
      "v": 55
    },
    {
      "midi": 59,
      "hit": false,
      "t": 160041.6666666669,
      "d": 3016.666666666657,
      "v": 52
    },
    {
      "midi": 62,
      "hit": false,
      "t": 160100.00000000023,
      "d": 3574.999999999971,
      "v": 65
    },
    {
      "midi": 55,
      "hit": false,
      "t": 162991.6666666669,
      "d": 733.3333333333139,
      "v": 60
    },
    {
      "midi": 59,
      "hit": false,
      "t": 163558.33333333355,
      "d": 191.66666666665697,
      "v": 33
    },
    {
      "midi": 55,
      "hit": false,
      "t": 163950.0000000002,
      "d": 1275.000000000029,
      "v": 67
    },
    {
      "midi": 60,
      "hit": false,
      "t": 164008.33333333355,
      "d": 1850.000000000029,
      "v": 70
    },
    {
      "midi": 64,
      "hit": false,
      "t": 164041.6666666669,
      "d": 3183.333333333343,
      "v": 72
    },
    {
      "midi": 55,
      "hit": false,
      "t": 165483.33333333358,
      "d": 1016.666666666657,
      "v": 65
    },
    {
      "midi": 60,
      "hit": false,
      "t": 166000.00000000023,
      "d": 1216.666666666657,
      "v": 72
    },
    {
      "midi": 55,
      "hit": false,
      "t": 167008.33333333358,
      "d": 166.66666666665697,
      "v": 35
    },
    {
      "midi": 59,
      "hit": false,
      "t": 168000.00000000023,
      "d": 875,
      "v": 74
    },
    {
      "midi": 64,
      "hit": false,
      "t": 168000.00000000023,
      "d": 1325,
      "v": 77
    },
    {
      "midi": 66,
      "hit": false,
      "t": 168016.6666666669,
      "d": 1983.333333333314,
      "v": 70
    },
    {
      "midi": 59,
      "hit": false,
      "t": 169000.00000000023,
      "d": 733.3333333333139,
      "v": 57
    },
    {
      "midi": 64,
      "hit": false,
      "t": 169516.6666666669,
      "d": 474.9999999999709,
      "v": 47
    },
    {
      "midi": 59,
      "hit": false,
      "t": 169925.0000000002,
      "d": 883.333333333343,
      "v": 57
    },
    {
      "midi": 63,
      "hit": false,
      "t": 170000.0000000002,
      "d": 1191.666666666657,
      "v": 65
    },
    {
      "midi": 66,
      "hit": false,
      "t": 170083.33333333355,
      "d": 1566.666666666657,
      "v": 74
    },
    {
      "midi": 59,
      "hit": false,
      "t": 171000.0000000002,
      "d": 591.666666666657,
      "v": 62
    },
    {
      "midi": 63,
      "hit": false,
      "t": 171466.66666666686,
      "d": 266.66666666668607,
      "v": 43
    },
    {
      "midi": 55,
      "hit": false,
      "t": 171933.33333333355,
      "d": 1366.666666666657,
      "v": 43
    },
    {
      "midi": 59,
      "hit": false,
      "t": 171975.0000000002,
      "d": 1833.333333333314,
      "v": 57
    },
    {
      "midi": 64,
      "hit": false,
      "t": 172025.0000000002,
      "d": 1916.666666666657,
      "v": 72
    },
    {
      "midi": 55,
      "hit": false,
      "t": 173541.66666666686,
      "d": 458.33333333331393,
      "v": 45
    },
    {
      "midi": 56,
      "hit": false,
      "t": 173983.33333333352,
      "d": 1683.333333333314,
      "v": 45
    },
    {
      "midi": 62,
      "hit": false,
      "t": 174066.66666666683,
      "d": 1900,
      "v": 70
    },
    {
      "midi": 65,
      "hit": false,
      "t": 174075.00000000017,
      "d": 1541.666666666657,
      "v": 72
    },
    {
      "midi": 57,
      "hit": false,
      "t": 175933.3333333335,
      "d": 1833.333333333343,
      "v": 60
    },
    {
      "midi": 61,
      "hit": false,
      "t": 176008.3333333335,
      "d": 1933.333333333343,
      "v": 70
    },
    {
      "midi": 64,
      "hit": false,
      "t": 176016.66666666683,
      "d": 1883.333333333343,
      "v": 74
    },
    {
      "midi": 57,
      "hit": false,
      "t": 178091.66666666683,
      "d": 1425,
      "v": 67
    },
    {
      "midi": 64,
      "hit": false,
      "t": 178108.3333333335,
      "d": 1608.333333333343,
      "v": 67
    },
    {
      "midi": 55,
      "hit": false,
      "t": 179933.3333333335,
      "d": 1333.333333333314,
      "v": 47
    },
    {
      "midi": 57,
      "hit": false,
      "t": 179958.3333333335,
      "d": 733.3333333333139,
      "v": 62
    },
    {
      "midi": 60,
      "hit": false,
      "t": 179991.6666666668,
      "d": 1225,
      "v": 62
    },
    {
      "midi": 64,
      "hit": false,
      "t": 180058.33333333346,
      "d": 1491.666666666686,
      "v": 65
    },
    {
      "midi": 57,
      "hit": false,
      "t": 181075.00000000015,
      "d": 525,
      "v": 67
    },
    {
      "midi": 57,
      "hit": false,
      "t": 182016.6666666668,
      "d": 1691.666666666686,
      "v": 65
    },
    {
      "midi": 62,
      "hit": false,
      "t": 182050.00000000015,
      "d": 1625,
      "v": 72
    },
    {
      "midi": 66,
      "hit": false,
      "t": 182075.00000000015,
      "d": 1633.333333333343,
      "v": 67
    },
    {
      "midi": 59,
      "hit": false,
      "t": 184025.00000000015,
      "d": 900,
      "v": 65
    },
    {
      "midi": 55,
      "hit": false,
      "t": 184025.00000000015,
      "d": 1050,
      "v": 52
    },
    {
      "midi": 62,
      "hit": false,
      "t": 184050.00000000015,
      "d": 1008.333333333343,
      "v": 70
    },
    {
      "midi": 67,
      "hit": false,
      "t": 184108.3333333335,
      "d": 1050,
      "v": 72
    },
    {
      "midi": 55,
      "hit": false,
      "t": 185958.3333333335,
      "d": 999.9999999999709,
      "v": 52
    },
    {
      "midi": 60,
      "hit": false,
      "t": 185975.00000000015,
      "d": 1199.999999999971,
      "v": 65
    },
    {
      "midi": 48,
      "hit": false,
      "t": 186000.00000000015,
      "d": 1191.6666666666279,
      "v": 52
    },
    {
      "midi": 63,
      "hit": false,
      "t": 186000.00000000015,
      "d": 1541.6666666666279,
      "v": 65
    },
    {
      "midi": 67,
      "hit": false,
      "t": 186025.00000000015,
      "d": 2783.333333333285,
      "v": 72
    },
    {
      "midi": 55,
      "hit": false,
      "t": 187050.00000000012,
      "d": 791.666666666657,
      "v": 67
    },
    {
      "midi": 60,
      "hit": false,
      "t": 187541.66666666677,
      "d": 150,
      "v": 45
    },
    {
      "midi": 48,
      "hit": false,
      "t": 187558.33333333343,
      "d": 108.33333333334303,
      "v": 32
    },
    {
      "midi": 59,
      "hit": false,
      "t": 188016.66666666677,
      "d": 1475,
      "v": 62
    },
    {
      "midi": 55,
      "hit": false,
      "t": 188016.66666666677,
      "d": 1483.333333333343,
      "v": 57
    },
    {
      "midi": 62,
      "hit": false,
      "t": 188041.66666666677,
      "d": 1483.333333333343,
      "v": 74
    },
    {
      "midi": 43,
      "hit": false,
      "t": 188083.33333333343,
      "d": 1433.333333333343,
      "v": 27
    },
    {
      "midi": 55,
      "hit": false,
      "t": 191933.33333333346,
      "d": 350,
      "v": 65
    },
    {
      "midi": 59,
      "hit": false,
      "t": 191966.6666666668,
      "d": 683.3333333333139,
      "v": 62
    },
    {
      "midi": 52,
      "hit": false,
      "t": 191983.33333333346,
      "d": 2816.666666666686,
      "v": 62
    },
    {
      "midi": 64,
      "hit": false,
      "t": 192033.33333333346,
      "d": 1241.666666666686,
      "v": 77
    },
    {
      "midi": 55,
      "hit": false,
      "t": 192466.6666666668,
      "d": 800,
      "v": 62
    },
    {
      "midi": 59,
      "hit": false,
      "t": 193000.00000000012,
      "d": 258.33333333334303,
      "v": 62
    },
    {
      "midi": 59,
      "hit": false,
      "t": 193516.6666666668,
      "d": 1866.666666666686,
      "v": 62
    },
    {
      "midi": 55,
      "hit": false,
      "t": 193516.6666666668,
      "d": 2291.666666666686,
      "v": 65
    },
    {
      "midi": 64,
      "hit": false,
      "t": 193550.00000000015,
      "d": 2383.333333333343,
      "v": 77
    },
    {
      "midi": 59,
      "hit": false,
      "t": 195541.66666666683,
      "d": 325,
      "v": 20
    },
    {
      "midi": 52,
      "hit": false,
      "t": 195958.3333333335,
      "d": 2250.000000000058,
      "v": 60
    },
    {
      "midi": 55,
      "hit": false,
      "t": 195966.66666666683,
      "d": 358.33333333334303,
      "v": 45
    },
    {
      "midi": 59,
      "hit": false,
      "t": 196000.00000000017,
      "d": 1158.333333333343,
      "v": 65
    },
    {
      "midi": 64,
      "hit": false,
      "t": 196058.33333333352,
      "d": 1600,
      "v": 74
    },
    {
      "midi": 55,
      "hit": false,
      "t": 197025.00000000017,
      "d": 633.333333333343,
      "v": 57
    },
    {
      "midi": 59,
      "hit": false,
      "t": 197550.00000000017,
      "d": 108.33333333334303,
      "v": 33
    },
    {
      "midi": 55,
      "hit": false,
      "t": 198016.66666666686,
      "d": 616.6666666666861,
      "v": 67
    },
    {
      "midi": 64,
      "hit": false,
      "t": 198025.0000000002,
      "d": 1758.333333333314,
      "v": 72
    },
    {
      "midi": 59,
      "hit": false,
      "t": 198033.33333333355,
      "d": 1016.666666666657,
      "v": 70
    },
    {
      "midi": 52,
      "hit": false,
      "t": 198525.0000000002,
      "d": 1541.666666666657,
      "v": 70
    },
    {
      "midi": 55,
      "hit": false,
      "t": 199050.0000000002,
      "d": 616.666666666657,
      "v": 74
    },
    {
      "midi": 59,
      "hit": false,
      "t": 199525.0000000002,
      "d": 558.3333333333139,
      "v": 55
    },
    {
      "midi": 55,
      "hit": false,
      "t": 199991.66666666686,
      "d": 808.333333333343,
      "v": 47
    },
    {
      "midi": 60,
      "hit": false,
      "t": 200033.33333333352,
      "d": 1183.3333333333721,
      "v": 72
    },
    {
      "midi": 45,
      "hit": false,
      "t": 200041.66666666686,
      "d": 1300.000000000029,
      "v": 67
    },
    {
      "midi": 64,
      "hit": false,
      "t": 200050.0000000002,
      "d": 1566.666666666686,
      "v": 77
    },
    {
      "midi": 55,
      "hit": false,
      "t": 201058.33333333355,
      "d": 641.666666666657,
      "v": 65
    },
    {
      "midi": 60,
      "hit": false,
      "t": 201550.00000000023,
      "d": 1891.6666666665988,
      "v": 52
    },
    {
      "midi": 45,
      "hit": false,
      "t": 201683.33333333355,
      "d": 75,
      "v": 17
    },
    {
      "midi": 64,
      "hit": false,
      "t": 201758.33333333355,
      "d": 225,
      "v": 55
    },
    {
      "midi": 54,
      "hit": false,
      "t": 202016.66666666686,
      "d": 783.3333333333139,
      "v": 67
    },
    {
      "midi": 50,
      "hit": false,
      "t": 202025.0000000002,
      "d": 1133.3333333332848,
      "v": 62
    },
    {
      "midi": 62,
      "hit": false,
      "t": 202041.66666666686,
      "d": 1441.6666666666279,
      "v": 72
    },
    {
      "midi": 54,
      "hit": false,
      "t": 202991.66666666683,
      "d": 441.66666666665697,
      "v": 45
    },
    {
      "midi": 50,
      "hit": false,
      "t": 203500.00000000015,
      "d": 475,
      "v": 47
    },
    {
      "midi": 59,
      "hit": false,
      "t": 204016.6666666668,
      "d": 1133.333333333343,
      "v": 62
    },
    {
      "midi": 55,
      "hit": false,
      "t": 204016.6666666668,
      "d": 1150,
      "v": 60
    },
    {
      "midi": 62,
      "hit": false,
      "t": 204016.6666666668,
      "d": 1208.333333333343,
      "v": 67
    },
    {
      "midi": 43,
      "hit": false,
      "t": 204016.6666666668,
      "d": 3041.666666666686,
      "v": 47
    },
    {
      "midi": 50,
      "hit": false,
      "t": 205091.6666666668,
      "d": 125,
      "v": 30
    },
    {
      "midi": 50,
      "hit": false,
      "t": 205541.6666666668,
      "d": 75,
      "v": 31
    },
    {
      "midi": 55,
      "hit": false,
      "t": 205541.6666666668,
      "d": 125,
      "v": 47
    },
    {
      "midi": 59,
      "hit": false,
      "t": 205541.6666666668,
      "d": 166.66666666665697,
      "v": 52
    },
    {
      "midi": 52,
      "hit": false,
      "t": 205766.6666666668,
      "d": 141.66666666668607,
      "v": 67
    },
    {
      "midi": 60,
      "hit": false,
      "t": 205775.00000000015,
      "d": 266.66666666668607,
      "v": 67
    },
    {
      "midi": 55,
      "hit": false,
      "t": 205791.6666666668,
      "d": 125.0000000000291,
      "v": 65
    },
    {
      "midi": 55,
      "hit": false,
      "t": 206008.3333333335,
      "d": 1466.666666666657,
      "v": 57
    },
    {
      "midi": 50,
      "hit": false,
      "t": 206041.66666666683,
      "d": 716.666666666657,
      "v": 25
    },
    {
      "midi": 59,
      "hit": false,
      "t": 206041.66666666683,
      "d": 1591.666666666657,
      "v": 52
    },
    {
      "midi": 52,
      "hit": false,
      "t": 206100.00000000017,
      "d": 100,
      "v": 16
    },
    {
      "midi": 50,
      "hit": false,
      "t": 206925.00000000015,
      "d": 500,
      "v": 36
    },
    {
      "midi": 43,
      "hit": false,
      "t": 207458.3333333335,
      "d": 266.66666666665697,
      "v": 45
    },
    {
      "midi": 52,
      "hit": false,
      "t": 207975.00000000015,
      "d": 958.333333333343,
      "v": 60
    },
    {
      "midi": 55,
      "hit": false,
      "t": 207983.3333333335,
      "d": 1000,
      "v": 65
    },
    {
      "midi": 59,
      "hit": false,
      "t": 207983.3333333335,
      "d": 1741.666666666686,
      "v": 67
    },
    {
      "midi": 52,
      "hit": false,
      "t": 209041.66666666683,
      "d": 508.33333333334303,
      "v": 67
    },
    {
      "midi": 55,
      "hit": false,
      "t": 209541.66666666683,
      "d": 233.33333333334303,
      "v": 62
    },
    {
      "midi": 55,
      "hit": false,
      "t": 210041.66666666683,
      "d": 325,
      "v": 60
    },
    {
      "midi": 59,
      "hit": false,
      "t": 210041.66666666683,
      "d": 1150,
      "v": 72
    },
    {
      "midi": 64,
      "hit": false,
      "t": 210050.00000000017,
      "d": 1575,
      "v": 72
    },
    {
      "midi": 55,
      "hit": false,
      "t": 211041.66666666683,
      "d": 558.333333333343,
      "v": 43
    },
    {
      "midi": 59,
      "hit": false,
      "t": 211500.00000000017,
      "d": 258.33333333334303,
      "v": 45
    },
    {
      "midi": 54,
      "hit": false,
      "t": 212016.66666666683,
      "d": 941.6666666666861,
      "v": 35
    },
    {
      "midi": 59,
      "hit": false,
      "t": 212025.00000000017,
      "d": 1491.666666666686,
      "v": 50
    },
    {
      "midi": 62,
      "hit": false,
      "t": 212050.00000000017,
      "d": 1408.333333333343,
      "v": 65
    },
    {
      "midi": 54,
      "hit": false,
      "t": 213558.33333333352,
      "d": 183.33333333334303,
      "v": 29
    },
    {
      "midi": 54,
      "hit": false,
      "t": 213933.33333333352,
      "d": 333.33333333334303,
      "v": 35
    },
    {
      "midi": 59,
      "hit": false,
      "t": 213975.00000000017,
      "d": 591.6666666666861,
      "v": 65
    },
    {
      "midi": 62,
      "hit": false,
      "t": 214008.33333333352,
      "d": 1133.333333333343,
      "v": 67
    },
    {
      "midi": 66,
      "hit": false,
      "t": 214041.66666666686,
      "d": 1166.666666666657,
      "v": 65
    },
    {
      "midi": 54,
      "hit": false,
      "t": 214475.0000000002,
      "d": 974.9999999999709,
      "v": 52
    },
    {
      "midi": 59,
      "hit": false,
      "t": 215025.0000000002,
      "d": 633.3333333333139,
      "v": 74
    },
    {
      "midi": 62,
      "hit": false,
      "t": 215300.00000000017,
      "d": 666.6666666666861,
      "v": 67
    },
    {
      "midi": 54,
      "hit": false,
      "t": 215525.00000000017,
      "d": 158.33333333334303,
      "v": 60
    },
    {
      "midi": 60,
      "hit": false,
      "t": 216008.33333333352,
      "d": 983.333333333343,
      "v": 72
    },
    {
      "midi": 57,
      "hit": false,
      "t": 216008.33333333352,
      "d": 1241.666666666686,
      "v": 70
    },
    {
      "midi": 62,
      "hit": false,
      "t": 216008.33333333352,
      "d": 1458.333333333343,
      "v": 70
    },
    {
      "midi": 45,
      "hit": false,
      "t": 216008.33333333352,
      "d": 3250,
      "v": 70
    },
    {
      "midi": 57,
      "hit": false,
      "t": 217533.33333333352,
      "d": 825,
      "v": 74
    },
    {
      "midi": 60,
      "hit": false,
      "t": 217541.66666666686,
      "d": 1666.666666666657,
      "v": 74
    },
    {
      "midi": 64,
      "hit": false,
      "t": 217541.66666666686,
      "d": 2466.666666666686,
      "v": 77
    },
    {
      "midi": 57,
      "hit": false,
      "t": 219075.00000000017,
      "d": 625.0000000000291,
      "v": 74
    },
    {
      "midi": 45,
      "hit": false,
      "t": 219516.66666666686,
      "d": 416.66666666668607,
      "v": 57
    },
    {
      "midi": 57,
      "hit": false,
      "t": 220058.33333333355,
      "d": 783.333333333343,
      "v": 38
    },
    {
      "midi": 62,
      "hit": false,
      "t": 220091.6666666669,
      "d": 916.666666666657,
      "v": 67
    },
    {
      "midi": 50,
      "hit": false,
      "t": 220100.00000000023,
      "d": 1141.666666666657,
      "v": 65
    },
    {
      "midi": 66,
      "hit": false,
      "t": 220116.6666666669,
      "d": 1724.999999999971,
      "v": 65
    },
    {
      "midi": 57,
      "hit": false,
      "t": 221083.33333333355,
      "d": 649.9999999999709,
      "v": 74
    },
    {
      "midi": 50,
      "hit": false,
      "t": 221533.33333333355,
      "d": 108.33333333331393,
      "v": 55
    },
    {
      "midi": 62,
      "hit": false,
      "t": 221550.0000000002,
      "d": 191.66666666665697,
      "v": 50
    },
    {
      "midi": 51,
      "hit": false,
      "t": 222000.00000000017,
      "d": 1258.333333333343,
      "v": 57
    },
    {
      "midi": 57,
      "hit": false,
      "t": 222016.66666666683,
      "d": 933.3333333333721,
      "v": 62
    },
    {
      "midi": 63,
      "hit": false,
      "t": 222016.66666666683,
      "d": 1908.333333333343,
      "v": 70
    },
    {
      "midi": 59,
      "hit": false,
      "t": 222025.00000000017,
      "d": 891.6666666666861,
      "v": 65
    },
    {
      "midi": 66,
      "hit": false,
      "t": 222033.33333333352,
      "d": 933.333333333343,
      "v": 62
    },
    {
      "midi": 57,
      "hit": false,
      "t": 223033.33333333352,
      "d": 650,
      "v": 70
    },
    {
      "midi": 66,
      "hit": false,
      "t": 223041.66666666686,
      "d": 708.3333333333139,
      "v": 72
    },
    {
      "midi": 51,
      "hit": false,
      "t": 223500.00000000017,
      "d": 466.66666666665697,
      "v": 55
    },
    {
      "midi": 55,
      "hit": false,
      "t": 223975.00000000017,
      "d": 1425,
      "v": 50
    },
    {
      "midi": 59,
      "hit": false,
      "t": 224016.66666666683,
      "d": 1900,
      "v": 67
    },
    {
      "midi": 52,
      "hit": false,
      "t": 224016.66666666683,
      "d": 3250,
      "v": 74
    },
    {
      "midi": 64,
      "hit": false,
      "t": 224075.00000000017,
      "d": 3258.333333333314,
      "v": 74
    },
    {
      "midi": 55,
      "hit": false,
      "t": 225566.66666666683,
      "d": 233.33333333334303,
      "v": 50
    },
    {
      "midi": 59,
      "hit": false,
      "t": 227066.66666666683,
      "d": 575,
      "v": 67
    },
    {
      "midi": 52,
      "hit": false,
      "t": 227541.66666666683,
      "d": 300,
      "v": 36
    },
    {
      "midi": 55,
      "hit": false,
      "t": 227983.3333333335,
      "d": 1100.000000000029,
      "v": 37
    },
    {
      "midi": 59,
      "hit": false,
      "t": 228016.66666666683,
      "d": 1500,
      "v": 65
    },
    {
      "midi": 52,
      "hit": false,
      "t": 228025.00000000017,
      "d": 2841.666666666657,
      "v": 47
    },
    {
      "midi": 64,
      "hit": false,
      "t": 228100.00000000017,
      "d": 1716.666666666657,
      "v": 57
    },
    {
      "midi": 55,
      "hit": false,
      "t": 229450.00000000017,
      "d": 375,
      "v": 43
    },
    {
      "midi": 59,
      "hit": false,
      "t": 229708.3333333335,
      "d": 141.66666666668607,
      "v": 52
    },
    {
      "midi": 55,
      "hit": false,
      "t": 229975.00000000017,
      "d": 933.3333333333139,
      "v": 74
    },
    {
      "midi": 59,
      "hit": false,
      "t": 229975.00000000017,
      "d": 1683.333333333314,
      "v": 74
    },
    {
      "midi": 64,
      "hit": false,
      "t": 229991.66666666683,
      "d": 1691.666666666657,
      "v": 77
    },
    {
      "midi": 52,
      "hit": false,
      "t": 230975.00000000015,
      "d": 958.333333333343,
      "v": 65
    },
    {
      "midi": 55,
      "hit": false,
      "t": 231525.00000000015,
      "d": 183.33333333334303,
      "v": 52
    },
    {
      "midi": 55,
      "hit": false,
      "t": 231958.3333333335,
      "d": 825,
      "v": 65
    },
    {
      "midi": 45,
      "hit": false,
      "t": 231975.00000000015,
      "d": 2000,
      "v": 62
    },
    {
      "midi": 60,
      "hit": false,
      "t": 231983.3333333335,
      "d": 1133.333333333343,
      "v": 65
    },
    {
      "midi": 64,
      "hit": false,
      "t": 231983.3333333335,
      "d": 1816.666666666657,
      "v": 74
    },
    {
      "midi": 55,
      "hit": false,
      "t": 233016.66666666683,
      "d": 591.666666666657,
      "v": 77
    },
    {
      "midi": 60,
      "hit": false,
      "t": 233558.3333333335,
      "d": 2058.333333333343,
      "v": 28
    },
    {
      "midi": 54,
      "hit": false,
      "t": 233991.6666666668,
      "d": 758.333333333343,
      "v": 50
    },
    {
      "midi": 50,
      "hit": false,
      "t": 233991.6666666668,
      "d": 1066.666666666686,
      "v": 43
    },
    {
      "midi": 62,
      "hit": false,
      "t": 234008.33333333346,
      "d": 1875.000000000029,
      "v": 70
    },
    {
      "midi": 54,
      "hit": false,
      "t": 235000.00000000015,
      "d": 441.66666666668607,
      "v": 52
    },
    {
      "midi": 50,
      "hit": false,
      "t": 235500.00000000017,
      "d": 266.66666666665697,
      "v": 36
    },
    {
      "midi": 43,
      "hit": false,
      "t": 236000.00000000015,
      "d": 3033.3333333334012,
      "v": 41
    },
    {
      "midi": 55,
      "hit": false,
      "t": 236008.3333333335,
      "d": 1058.333333333343,
      "v": 65
    },
    {
      "midi": 59,
      "hit": false,
      "t": 236008.3333333335,
      "d": 1350.000000000029,
      "v": 60
    },
    {
      "midi": 62,
      "hit": false,
      "t": 236025.00000000017,
      "d": 1275,
      "v": 67
    },
    {
      "midi": 52,
      "hit": false,
      "t": 237466.66666666686,
      "d": 141.66666666665697,
      "v": 65
    },
    {
      "midi": 55,
      "hit": false,
      "t": 237483.33333333352,
      "d": 1991.666666666686,
      "v": 55
    },
    {
      "midi": 62,
      "hit": false,
      "t": 237491.66666666686,
      "d": 1958.333333333343,
      "v": 50
    },
    {
      "midi": 59,
      "hit": false,
      "t": 237491.66666666686,
      "d": 1966.666666666686,
      "v": 65
    },
    {
      "midi": 50,
      "hit": false,
      "t": 237716.66666666686,
      "d": 733.333333333343,
      "v": 62
    },
    {
      "midi": 50,
      "hit": false,
      "t": 239008.33333333355,
      "d": 325,
      "v": 60
    },
    {
      "midi": 43,
      "hit": false,
      "t": 239483.33333333355,
      "d": 150,
      "v": 47
    },
    {
      "midi": 54,
      "hit": false,
      "t": 240000.0000000002,
      "d": 1125,
      "v": 52
    },
    {
      "midi": 59,
      "hit": false,
      "t": 240025.0000000002,
      "d": 1491.666666666657,
      "v": 74
    },
    {
      "midi": 63,
      "hit": false,
      "t": 240050.0000000002,
      "d": 1450,
      "v": 70
    },
    {
      "midi": 47,
      "hit": false,
      "t": 240058.33333333355,
      "d": 2883.333333333372,
      "v": 25
    },
    {
      "midi": 54,
      "hit": false,
      "t": 241458.33333333355,
      "d": 133.33333333331393,
      "v": 50
    },
    {
      "midi": 57,
      "hit": false,
      "t": 241966.66666666686,
      "d": 850.0000000000291,
      "v": 47
    },
    {
      "midi": 59,
      "hit": false,
      "t": 241975.0000000002,
      "d": 933.3333333333721,
      "v": 62
    },
    {
      "midi": 63,
      "hit": false,
      "t": 242016.6666666669,
      "d": 883.333333333343,
      "v": 70
    },
    {
      "midi": 66,
      "hit": false,
      "t": 242041.6666666669,
      "d": 1483.3333333333721,
      "v": 65
    },
    {
      "midi": 57,
      "hit": false,
      "t": 243008.33333333358,
      "d": 533.333333333343,
      "v": 62
    },
    {
      "midi": 59,
      "hit": false,
      "t": 243016.66666666692,
      "d": 633.333333333343,
      "v": 65
    },
    {
      "midi": 47,
      "hit": false,
      "t": 243025.00000000026,
      "d": 350,
      "v": 52
    },
    {
      "midi": 63,
      "hit": false,
      "t": 243025.00000000026,
      "d": 691.666666666657,
      "v": 70
    },
    {
      "midi": 55,
      "hit": false,
      "t": 243958.33333333358,
      "d": 1383.333333333343,
      "v": 50
    },
    {
      "midi": 59,
      "hit": false,
      "t": 244000.00000000023,
      "d": 1375.000000000029,
      "v": 67
    },
    {
      "midi": 52,
      "hit": false,
      "t": 244025.00000000023,
      "d": 2816.666666666715,
      "v": 62
    },
    {
      "midi": 64,
      "hit": false,
      "t": 244058.33333333358,
      "d": 1350.000000000029,
      "v": 74
    },
    {
      "midi": 55,
      "hit": false,
      "t": 245525.00000000026,
      "d": 383.33333333334303,
      "v": 30
    },
    {
      "midi": 64,
      "hit": false,
      "t": 245566.66666666692,
      "d": 108.33333333334303,
      "v": 43
    },
    {
      "midi": 59,
      "hit": false,
      "t": 245566.66666666692,
      "d": 325,
      "v": 31
    },
    {
      "midi": 66,
      "hit": false,
      "t": 245791.66666666692,
      "d": 108.33333333334303,
      "v": 62
    },
    {
      "midi": 59,
      "hit": false,
      "t": 246033.3333333336,
      "d": 1216.666666666657,
      "v": 74
    },
    {
      "midi": 55,
      "hit": false,
      "t": 246033.3333333336,
      "d": 1250,
      "v": 57
    },
    {
      "midi": 67,
      "hit": false,
      "t": 246050.00000000026,
      "d": 2033.3333333334012,
      "v": 74
    },
    {
      "midi": 52,
      "hit": false,
      "t": 247008.3333333336,
      "d": 408.33333333334303,
      "v": 72
    },
    {
      "midi": 55,
      "hit": false,
      "t": 247958.33333333363,
      "d": 658.3333333333721,
      "v": 39
    },
    {
      "midi": 45,
      "hit": false,
      "t": 247966.66666666698,
      "d": 1175.000000000029,
      "v": 52
    },
    {
      "midi": 60,
      "hit": false,
      "t": 247991.66666666698,
      "d": 1183.3333333333721,
      "v": 72
    },
    {
      "midi": 64,
      "hit": false,
      "t": 248025.00000000032,
      "d": 1525.000000000029,
      "v": 74
    },
    {
      "midi": 55,
      "hit": false,
      "t": 249041.666666667,
      "d": 583.333333333343,
      "v": 77
    },
    {
      "midi": 45,
      "hit": false,
      "t": 249533.3333333337,
      "d": 58.33333333331393,
      "v": 16
    },
    {
      "midi": 55,
      "hit": false,
      "t": 249933.3333333337,
      "d": 833.333333333343,
      "v": 47
    },
    {
      "midi": 58,
      "hit": false,
      "t": 249983.3333333337,
      "d": 1466.666666666657,
      "v": 65
    },
    {
      "midi": 49,
      "hit": false,
      "t": 250008.3333333337,
      "d": 1225,
      "v": 65
    },
    {
      "midi": 61,
      "hit": false,
      "t": 250008.3333333337,
      "d": 1641.666666666657,
      "v": 70
    },
    {
      "midi": 64,
      "hit": false,
      "t": 250033.3333333337,
      "d": 1508.333333333314,
      "v": 72
    },
    {
      "midi": 55,
      "hit": false,
      "t": 251033.3333333337,
      "d": 400,
      "v": 55
    },
    {
      "midi": 49,
      "hit": false,
      "t": 251550.00000000035,
      "d": 366.66666666665697,
      "v": 33
    },
    {
      "midi": 54,
      "hit": false,
      "t": 252000.00000000035,
      "d": 1208.3333333333721,
      "v": 31
    },
    {
      "midi": 59,
      "hit": false,
      "t": 252025.00000000035,
      "d": 1550.000000000029,
      "v": 70
    },
    {
      "midi": 47,
      "hit": false,
      "t": 252033.3333333337,
      "d": 1941.666666666686,
      "v": 62
    },
    {
      "midi": 63,
      "hit": false,
      "t": 252091.66666666704,
      "d": 1958.3333333333721,
      "v": 65
    },
    {
      "midi": 57,
      "hit": false,
      "t": 253925.00000000038,
      "d": 1016.6666666666861,
      "v": 43
    },
    {
      "midi": 50,
      "hit": false,
      "t": 253983.33333333372,
      "d": 1166.666666666686,
      "v": 52
    },
    {
      "midi": 62,
      "hit": false,
      "t": 253991.66666666706,
      "d": 933.333333333343,
      "v": 52
    },
    {
      "midi": 66,
      "hit": false,
      "t": 254041.66666666706,
      "d": 1658.333333333343,
      "v": 62
    },
    {
      "midi": 62,
      "hit": false,
      "t": 255058.33333333372,
      "d": 600.0000000000291,
      "v": 74
    },
    {
      "midi": 57,
      "hit": false,
      "t": 255066.66666666706,
      "d": 533.333333333343,
      "v": 67
    },
    {
      "midi": 50,
      "hit": false,
      "t": 255550.0000000004,
      "d": 525,
      "v": 52
    },
    {
      "midi": 55,
      "hit": false,
      "t": 256058.33333333375,
      "d": 958.333333333343,
      "v": 52
    },
    {
      "midi": 59,
      "hit": false,
      "t": 256083.33333333375,
      "d": 991.6666666666861,
      "v": 74
    },
    {
      "midi": 62,
      "hit": false,
      "t": 256091.6666666671,
      "d": 983.333333333343,
      "v": 74
    },
    {
      "midi": 43,
      "hit": false,
      "t": 256116.6666666671,
      "d": 975,
      "v": 37
    },
    {
      "midi": 55,
      "hit": false,
      "t": 257450.0000000004,
      "d": 1433.333333333343,
      "v": 65
    },
    {
      "midi": 60,
      "hit": false,
      "t": 257450.0000000004,
      "d": 1858.333333333343,
      "v": 72
    },
    {
      "midi": 43,
      "hit": false,
      "t": 257475.0000000004,
      "d": 2166.666666666686,
      "v": 70
    },
    {
      "midi": 63,
      "hit": false,
      "t": 257516.66666666706,
      "d": 2375.000000000058,
      "v": 74
    },
    {
      "midi": 55,
      "hit": false,
      "t": 259033.33333333375,
      "d": 816.6666666666861,
      "v": 52
    },
    {
      "midi": 60,
      "hit": false,
      "t": 259541.6666666671,
      "d": 341.66666666668607,
      "v": 16
    },
    {
      "midi": 55,
      "hit": false,
      "t": 260000.00000000047,
      "d": 433.33333333334303,
      "v": 50
    },
    {
      "midi": 43,
      "hit": false,
      "t": 260000.00000000047,
      "d": 1333.333333333343,
      "v": 62
    },
    {
      "midi": 62,
      "hit": false,
      "t": 260008.3333333338,
      "d": 1325,
      "v": 62
    },
    {
      "midi": 59,
      "hit": false,
      "t": 260058.3333333338,
      "d": 1075,
      "v": 34
    },
    {
      "midi": 55,
      "hit": false,
      "t": 261033.3333333338,
      "d": 216.66666666665697,
      "v": 33
    },
    {
      "midi": 55,
      "hit": false,
      "t": 261541.66666666715,
      "d": 891.6666666666279,
      "v": 43
    },
    {
      "midi": 60,
      "hit": false,
      "t": 261558.3333333338,
      "d": 1541.666666666657,
      "v": 67
    },
    {
      "midi": 63,
      "hit": false,
      "t": 261583.3333333338,
      "d": 1808.333333333343,
      "v": 70
    },
    {
      "midi": 43,
      "hit": false,
      "t": 261583.3333333338,
      "d": 2058.333333333343,
      "v": 60
    },
    {
      "midi": 55,
      "hit": false,
      "t": 263058.3333333338,
      "d": 791.6666666666861,
      "v": 33
    },
    {
      "midi": 60,
      "hit": false,
      "t": 263316.66666666715,
      "d": 350,
      "v": 39
    },
    {
      "midi": 63,
      "hit": false,
      "t": 263516.66666666715,
      "d": 416.66666666662786,
      "v": 57
    },
    {
      "midi": 55,
      "hit": false,
      "t": 263991.6666666671,
      "d": 900.0000000000582,
      "v": 60
    },
    {
      "midi": 59,
      "hit": false,
      "t": 263991.6666666671,
      "d": 1225.0000000000582,
      "v": 65
    },
    {
      "midi": 43,
      "hit": false,
      "t": 264008.3333333338,
      "d": 1400,
      "v": 55
    },
    {
      "midi": 62,
      "hit": false,
      "t": 264008.3333333338,
      "d": 1408.333333333314,
      "v": 72
    },
    {
      "midi": 55,
      "hit": false,
      "t": 265058.33333333384,
      "d": 383.3333333332557,
      "v": 57
    },
    {
      "midi": 59,
      "hit": false,
      "t": 265300.00000000047,
      "d": 199.9999999999418,
      "v": 43
    },
    {
      "midi": 55,
      "hit": false,
      "t": 265508.3333333337,
      "d": 1366.666666666686,
      "v": 65
    },
    {
      "midi": 60,
      "hit": false,
      "t": 265525.0000000004,
      "d": 1458.333333333314,
      "v": 65
    },
    {
      "midi": 63,
      "hit": false,
      "t": 265558.3333333337,
      "d": 2274.999999999942,
      "v": 74
    },
    {
      "midi": 43,
      "hit": false,
      "t": 265566.66666666704,
      "d": 2000,
      "v": 52
    },
    {
      "midi": 55,
      "hit": false,
      "t": 266958.3333333337,
      "d": 841.6666666666279,
      "v": 65
    },
    {
      "midi": 60,
      "hit": false,
      "t": 267541.66666666704,
      "d": 441.66666666656965,
      "v": 16
    },
    {
      "midi": 55,
      "hit": false,
      "t": 267933.33333333366,
      "d": 558.3333333332557,
      "v": 67
    },
    {
      "midi": 59,
      "hit": false,
      "t": 267966.666666667,
      "d": 1149.9999999999418,
      "v": 70
    },
    {
      "midi": 43,
      "hit": false,
      "t": 267975.0000000003,
      "d": 1199.9999999999418,
      "v": 52
    },
    {
      "midi": 62,
      "hit": false,
      "t": 268008.3333333336,
      "d": 1274.9999999999418,
      "v": 74
    },
    {
      "midi": 55,
      "hit": false,
      "t": 269016.6666666669,
      "d": 158.33333333331393,
      "v": 43
    },
    {
      "midi": 55,
      "hit": false,
      "t": 269450.00000000023,
      "d": 1325.0000000000582,
      "v": 45
    },
    {
      "midi": 60,
      "hit": false,
      "t": 269516.6666666669,
      "d": 1383.3333333333721,
      "v": 72
    },
    {
      "midi": 43,
      "hit": false,
      "t": 269533.3333333336,
      "d": 1650.0000000000582,
      "v": 72
    },
    {
      "midi": 63,
      "hit": false,
      "t": 269541.6666666669,
      "d": 1400.0000000000582,
      "v": 77
    },
    {
      "midi": 55,
      "hit": false,
      "t": 271000.0000000003,
      "d": 666.6666666667443,
      "v": 60
    },
    {
      "midi": 60,
      "hit": false,
      "t": 271016.666666667,
      "d": 675.0000000000582,
      "v": 83
    },
    {
      "midi": 63,
      "hit": false,
      "t": 271033.33333333366,
      "d": 566.6666666666861,
      "v": 83
    },
    {
      "midi": 43,
      "hit": false,
      "t": 271483.33333333366,
      "d": 333.33333333337214,
      "v": 62
    },
    {
      "midi": 55,
      "hit": false,
      "t": 271966.66666666704,
      "d": 1808.333333333314,
      "v": 67
    },
    {
      "midi": 59,
      "hit": false,
      "t": 271991.66666666704,
      "d": 2008.333333333314,
      "v": 74
    },
    {
      "midi": 43,
      "hit": false,
      "t": 272000.00000000035,
      "d": 3841.666666666686,
      "v": 70
    },
    {
      "midi": 62,
      "hit": false,
      "t": 272041.66666666704,
      "d": 3525,
      "v": 74
    },
    {
      "midi": 50,
      "hit": false,
      "t": 273516.66666666704,
      "d": 1625,
      "v": 65
    },
    {
      "midi": 55,
      "hit": false,
      "t": 273966.66666666704,
      "d": 908.3333333333139,
      "v": 60
    },
    {
      "midi": 59,
      "hit": false,
      "t": 274491.66666666704,
      "d": 583.3333333333139,
      "v": 38
    },
    {
      "midi": 55,
      "hit": false,
      "t": 274983.33333333366,
      "d": 633.3333333333721,
      "v": 74
    },
    {
      "midi": 50,
      "hit": false,
      "t": 275458.3333333337,
      "d": 516.6666666666279,
      "v": 34
    },
    {
      "midi": 55,
      "hit": false,
      "t": 275933.3333333337,
      "d": 1549.9999999998836,
      "v": 62
    },
    {
      "midi": 60,
      "hit": false,
      "t": 276008.33333333366,
      "d": 1849.9999999999418,
      "v": 65
    },
    {
      "midi": 45,
      "hit": false,
      "t": 276008.33333333366,
      "d": 3091.666666666628,
      "v": 60
    },
    {
      "midi": 64,
      "hit": false,
      "t": 276041.666666667,
      "d": 1841.6666666666279,
      "v": 72
    },
    {
      "midi": 57,
      "hit": false,
      "t": 277616.6666666669,
      "d": 275,
      "v": 16
    },
    {
      "midi": 57,
      "hit": false,
      "t": 277958.3333333336,
      "d": 591.6666666666861,
      "v": 52
    },
    {
      "midi": 60,
      "hit": false,
      "t": 277983.3333333336,
      "d": 1566.666666666686,
      "v": 67
    },
    {
      "midi": 64,
      "hit": false,
      "t": 277983.3333333336,
      "d": 1750,
      "v": 72
    },
    {
      "midi": 57,
      "hit": false,
      "t": 279050.0000000003,
      "d": 883.3333333333139,
      "v": 70
    },
    {
      "midi": 45,
      "hit": false,
      "t": 279516.666666667,
      "d": 533.3333333333139,
      "v": 52
    },
    {
      "midi": 55,
      "hit": false,
      "t": 280000.0000000003,
      "d": 1041.666666666686,
      "v": 57
    },
    {
      "midi": 48,
      "hit": false,
      "t": 280033.3333333336,
      "d": 3066.6666666667443,
      "v": 62
    },
    {
      "midi": 60,
      "hit": false,
      "t": 280050.0000000003,
      "d": 1683.3333333333721,
      "v": 60
    },
    {
      "midi": 64,
      "hit": false,
      "t": 280091.666666667,
      "d": 2191.666666666686,
      "v": 70
    },
    {
      "midi": 55,
      "hit": false,
      "t": 281458.33333333366,
      "d": 441.66666666668607,
      "v": 33
    },
    {
      "midi": 55,
      "hit": false,
      "t": 282008.33333333366,
      "d": 575,
      "v": 52
    },
    {
      "midi": 60,
      "hit": false,
      "t": 282008.33333333366,
      "d": 1100,
      "v": 57
    },
    {
      "midi": 64,
      "hit": false,
      "t": 282508.33333333366,
      "d": 1099.9999999999418,
      "v": 70
    },
    {
      "midi": 55,
      "hit": false,
      "t": 282983.33333333366,
      "d": 624.9999999999418,
      "v": 72
    },
    {
      "midi": 48,
      "hit": false,
      "t": 283466.666666667,
      "d": 199.9999999999418,
      "v": 57
    },
    {
      "midi": 60,
      "hit": false,
      "t": 283500.0000000003,
      "d": 1299.9999999999418,
      "v": 43
    },
    {
      "midi": 54,
      "hit": false,
      "t": 283966.6666666669,
      "d": 925,
      "v": 52
    },
    {
      "midi": 50,
      "hit": false,
      "t": 283966.6666666669,
      "d": 1275,
      "v": 62
    },
    {
      "midi": 62,
      "hit": false,
      "t": 284000.00000000023,
      "d": 1675,
      "v": 70
    },
    {
      "midi": 54,
      "hit": false,
      "t": 285033.3333333336,
      "d": 666.6666666666279,
      "v": 57
    },
    {
      "midi": 50,
      "hit": false,
      "t": 285566.6666666669,
      "d": 608.3333333332557,
      "v": 36
    },
    {
      "midi": 57,
      "hit": false,
      "t": 285983.33333333355,
      "d": 774.9999999999418,
      "v": 65
    },
    {
      "midi": 54,
      "hit": false,
      "t": 285983.33333333355,
      "d": 966.6666666666279,
      "v": 50
    },
    {
      "midi": 62,
      "hit": false,
      "t": 286016.66666666686,
      "d": 766.6666666666279,
      "v": 74
    },
    {
      "midi": 50,
      "hit": false,
      "t": 286525.0000000002,
      "d": 624.9999999999418,
      "v": 55
    },
    {
      "midi": 57,
      "hit": false,
      "t": 286983.3333333335,
      "d": 399.9999999999418,
      "v": 72
    },
    {
      "midi": 62,
      "hit": false,
      "t": 287041.6666666668,
      "d": 433.33333333331393,
      "v": 77
    },
    {
      "midi": 66,
      "hit": false,
      "t": 287050.0000000001,
      "d": 508.33333333331393,
      "v": 74
    },
    {
      "midi": 50,
      "hit": false,
      "t": 287508.33333333343,
      "d": 483.3333333332557,
      "v": 37
    },
    {
      "midi": 55,
      "hit": false,
      "t": 287941.66666666674,
      "d": 1391.6666666666279,
      "v": 67
    },
    {
      "midi": 59,
      "hit": false,
      "t": 287958.3333333334,
      "d": 1708.333333333314,
      "v": 67
    },
    {
      "midi": 43,
      "hit": false,
      "t": 287983.3333333334,
      "d": 2424.999999999942,
      "v": 72
    },
    {
      "midi": 62,
      "hit": false,
      "t": 288041.6666666667,
      "d": 3658.3333333332557,
      "v": 72
    },
    {
      "midi": 55,
      "hit": false,
      "t": 289508.3333333334,
      "d": 1174.9999999999418,
      "v": 55
    },
    {
      "midi": 59,
      "hit": false,
      "t": 290025,
      "d": 758.3333333333139,
      "v": 62
    },
    {
      "midi": 43,
      "hit": false,
      "t": 290558.3333333333,
      "d": 1433.3333333332557,
      "v": 39
    },
    {
      "midi": 55,
      "hit": false,
      "t": 290983.3333333333,
      "d": 774.9999999999418,
      "v": 70
    },
    {
      "midi": 59,
      "hit": false,
      "t": 291516.6666666666,
      "d": 549.9999999999418,
      "v": 31
    },
    {
      "midi": 55,
      "hit": false,
      "t": 291991.66666666657,
      "d": 1166.666666666686,
      "v": 52
    },
    {
      "midi": 45,
      "hit": false,
      "t": 291999.9999999999,
      "d": 2216.666666666686,
      "v": 52
    },
    {
      "midi": 60,
      "hit": false,
      "t": 292016.66666666657,
      "d": 1750,
      "v": 67
    },
    {
      "midi": 64,
      "hit": false,
      "t": 292058.33333333326,
      "d": 1775,
      "v": 70
    },
    {
      "midi": 57,
      "hit": false,
      "t": 293541.66666666657,
      "d": 158.33333333331393,
      "v": 29
    },
    {
      "midi": 60,
      "hit": false,
      "t": 293983.33333333326,
      "d": 1174.9999999999418,
      "v": 72
    },
    {
      "midi": 57,
      "hit": false,
      "t": 293991.66666666657,
      "d": 658.3333333333139,
      "v": 55
    },
    {
      "midi": 64,
      "hit": false,
      "t": 293991.66666666657,
      "d": 1933.333333333314,
      "v": 72
    },
    {
      "midi": 45,
      "hit": false,
      "t": 294541.66666666657,
      "d": 649.9999999999418,
      "v": 52
    },
    {
      "midi": 57,
      "hit": false,
      "t": 294983.3333333332,
      "d": 675,
      "v": 55
    },
    {
      "midi": 45,
      "hit": false,
      "t": 295458.3333333332,
      "d": 508.33333333331393,
      "v": 37
    },
    {
      "midi": 60,
      "hit": false,
      "t": 295499.9999999999,
      "d": 383.33333333331393,
      "v": 52
    },
    {
      "midi": 55,
      "hit": false,
      "t": 295924.9999999999,
      "d": 1058.3333333332557,
      "v": 50
    },
    {
      "midi": 60,
      "hit": false,
      "t": 295999.9999999998,
      "d": 1799.9999999999418,
      "v": 65
    },
    {
      "midi": 48,
      "hit": false,
      "t": 295999.9999999998,
      "d": 2716.6666666665697,
      "v": 65
    },
    {
      "midi": 64,
      "hit": false,
      "t": 296016.6666666665,
      "d": 2258.3333333332557,
      "v": 72
    },
    {
      "midi": 55,
      "hit": false,
      "t": 297466.66666666645,
      "d": 1216.6666666666279,
      "v": 36
    },
    {
      "midi": 60,
      "hit": false,
      "t": 297999.99999999977,
      "d": 1191.6666666666279,
      "v": 60
    },
    {
      "midi": 64,
      "hit": false,
      "t": 298508.3333333331,
      "d": 1116.6666666666279,
      "v": 60
    },
    {
      "midi": 55,
      "hit": false,
      "t": 298991.6666666664,
      "d": 600,
      "v": 55
    },
    {
      "midi": 48,
      "hit": false,
      "t": 298999.9999999997,
      "d": 458.33333333337214,
      "v": 45
    },
    {
      "midi": 60,
      "hit": false,
      "t": 299491.6666666664,
      "d": 1424.9999999999418,
      "v": 38
    },
    {
      "midi": 50,
      "hit": false,
      "t": 299941.6666666664,
      "d": 1241.6666666666279,
      "v": 62
    },
    {
      "midi": 54,
      "hit": false,
      "t": 299983.333333333,
      "d": 825,
      "v": 41
    },
    {
      "midi": 62,
      "hit": false,
      "t": 300016.66666666634,
      "d": 1533.333333333314,
      "v": 67
    },
    {
      "midi": 54,
      "hit": false,
      "t": 300983.333333333,
      "d": 591.6666666666279,
      "v": 65
    },
    {
      "midi": 50,
      "hit": false,
      "t": 301466.66666666634,
      "d": 833.3333333332557,
      "v": 60
    },
    {
      "midi": 57,
      "hit": false,
      "t": 301958.33333333296,
      "d": 841.6666666666279,
      "v": 72
    },
    {
      "midi": 62,
      "hit": false,
      "t": 301983.33333333296,
      "d": 1516.6666666666279,
      "v": 89
    },
    {
      "midi": 66,
      "hit": false,
      "t": 302016.6666666663,
      "d": 1533.333333333314,
      "v": 65
    },
    {
      "midi": 57,
      "hit": false,
      "t": 303049.9999999996,
      "d": 325,
      "v": 74
    },
    {
      "midi": 50,
      "hit": false,
      "t": 303516.6666666663,
      "d": 108.33333333331393,
      "v": 62
    },
    {
      "midi": 55,
      "hit": false,
      "t": 303974.9999999996,
      "d": 1258.333333333314,
      "v": 62
    },
    {
      "midi": 59,
      "hit": false,
      "t": 304016.6666666662,
      "d": 1675.0000000000582,
      "v": 72
    },
    {
      "midi": 43,
      "hit": false,
      "t": 304033.3333333329,
      "d": 2183.333333333372,
      "v": 67
    },
    {
      "midi": 62,
      "hit": false,
      "t": 304091.6666666662,
      "d": 2541.6666666667443,
      "v": 67
    },
    {
      "midi": 55,
      "hit": false,
      "t": 305499.9999999996,
      "d": 566.6666666666861,
      "v": 41
    },
    {
      "midi": 59,
      "hit": false,
      "t": 306008.33333333296,
      "d": 633.3333333333139,
      "v": 72
    },
    {
      "midi": 43,
      "hit": false,
      "t": 306533.33333333296,
      "d": 658.3333333333721,
      "v": 60
    },
    {
      "midi": 59,
      "hit": false,
      "t": 307016.6666666663,
      "d": 383.33333333337214,
      "v": 67
    },
    {
      "midi": 62,
      "hit": false,
      "t": 307033.33333333296,
      "d": 841.6666666666279,
      "v": 74
    },
    {
      "midi": 67,
      "hit": false,
      "t": 307049.99999999965,
      "d": 641.6666666666279,
      "v": 74
    },
    {
      "midi": 59,
      "hit": false,
      "t": 307483.33333333296,
      "d": 183.33333333331393,
      "v": 60
    },
    {
      "midi": 43,
      "hit": false,
      "t": 307516.6666666663,
      "d": 100,
      "v": 52
    },
    {
      "midi": 55,
      "hit": false,
      "t": 307974.9999999996,
      "d": 1075,
      "v": 62
    },
    {
      "midi": 45,
      "hit": false,
      "t": 307974.9999999996,
      "d": 2316.666666666628,
      "v": 60
    },
    {
      "midi": 60,
      "hit": false,
      "t": 307983.3333333329,
      "d": 1591.666666666686,
      "v": 62
    },
    {
      "midi": 64,
      "hit": false,
      "t": 307999.9999999996,
      "d": 1875,
      "v": 72
    },
    {
      "midi": 55,
      "hit": false,
      "t": 309491.6666666663,
      "d": 366.66666666662786,
      "v": 50
    },
    {
      "midi": 60,
      "hit": false,
      "t": 309708.3333333329,
      "d": 141.66666666668607,
      "v": 55
    },
    {
      "midi": 60,
      "hit": false,
      "t": 309999.9999999996,
      "d": 1158.3333333332557,
      "v": 72
    },
    {
      "midi": 55,
      "hit": false,
      "t": 310008.3333333329,
      "d": 841.6666666666279,
      "v": 67
    },
    {
      "midi": 64,
      "hit": false,
      "t": 310008.3333333329,
      "d": 1916.6666666666279,
      "v": 74
    },
    {
      "midi": 55,
      "hit": false,
      "t": 311049.99999999953,
      "d": 650,
      "v": 55
    },
    {
      "midi": 60,
      "hit": false,
      "t": 311549.99999999953,
      "d": 325,
      "v": 35
    },
    {
      "midi": 55,
      "hit": false,
      "t": 311974.99999999953,
      "d": 850.0000000000582,
      "v": 47
    },
    {
      "midi": 48,
      "hit": false,
      "t": 312033.33333333285,
      "d": 1133.3333333334303,
      "v": 67
    },
    {
      "midi": 60,
      "hit": false,
      "t": 312066.6666666662,
      "d": 1500.0000000000582,
      "v": 65
    },
    {
      "midi": 64,
      "hit": false,
      "t": 312091.6666666662,
      "d": 1783.3333333333721,
      "v": 72
    },
    {
      "midi": 55,
      "hit": false,
      "t": 313066.6666666663,
      "d": 525,
      "v": 72
    },
    {
      "midi": 48,
      "hit": false,
      "t": 313508.33333333296,
      "d": 1608.333333333314,
      "v": 65
    },
    {
      "midi": 55,
      "hit": false,
      "t": 313983.3333333329,
      "d": 825,
      "v": 62
    },
    {
      "midi": 60,
      "hit": false,
      "t": 314008.3333333329,
      "d": 1908.3333333333721,
      "v": 62
    },
    {
      "midi": 64,
      "hit": false,
      "t": 314058.3333333329,
      "d": 1850.0000000000582,
      "v": 74
    },
    {
      "midi": 55,
      "hit": false,
      "t": 314999.9999999996,
      "d": 483.33333333337214,
      "v": 72
    },
    {
      "midi": 48,
      "hit": false,
      "t": 315516.6666666663,
      "d": 200,
      "v": 47
    },
    {
      "midi": 57,
      "hit": false,
      "t": 315941.6666666663,
      "d": 1299.9999999999418,
      "v": 60
    },
    {
      "midi": 50,
      "hit": false,
      "t": 315949.9999999996,
      "d": 1699.9999999999418,
      "v": 62
    },
    {
      "midi": 62,
      "hit": false,
      "t": 315983.3333333329,
      "d": 1941.6666666666279,
      "v": 77
    },
    {
      "midi": 66,
      "hit": false,
      "t": 316016.6666666662,
      "d": 2883.333333333314,
      "v": 67
    },
    {
      "midi": 57,
      "hit": false,
      "t": 317524.99999999953,
      "d": 441.66666666668607,
      "v": 47
    },
    {
      "midi": 62,
      "hit": false,
      "t": 318041.6666666662,
      "d": 791.6666666666279,
      "v": 77
    },
    {
      "midi": 57,
      "hit": false,
      "t": 318049.99999999953,
      "d": 675,
      "v": 70
    },
    {
      "midi": 50,
      "hit": false,
      "t": 318541.6666666662,
      "d": 641.6666666666279,
      "v": 62
    },
    {
      "midi": 57,
      "hit": false,
      "t": 319008.33333333285,
      "d": 533.3333333333139,
      "v": 70
    },
    {
      "midi": 62,
      "hit": false,
      "t": 319041.66666666616,
      "d": 591.6666666666279,
      "v": 77
    },
    {
      "midi": 66,
      "hit": false,
      "t": 319058.33333333285,
      "d": 541.6666666666279,
      "v": 74
    },
    {
      "midi": 50,
      "hit": false,
      "t": 319508.33333333285,
      "d": 91.66666666662786,
      "v": 47
    },
    {
      "midi": 55,
      "hit": false,
      "t": 319958.3333333328,
      "d": 1291.6666666666279,
      "v": 67
    },
    {
      "midi": 59,
      "hit": false,
      "t": 319991.6666666661,
      "d": 1608.333333333314,
      "v": 74
    },
    {
      "midi": 43,
      "hit": false,
      "t": 319991.6666666661,
      "d": 2333.333333333314,
      "v": 62
    },
    {
      "midi": 62,
      "hit": false,
      "t": 320016.6666666661,
      "d": 1883.333333333314,
      "v": 72
    },
    {
      "midi": 55,
      "hit": false,
      "t": 321499.9999999994,
      "d": 1191.666666666686,
      "v": 55
    },
    {
      "midi": 59,
      "hit": false,
      "t": 322016.6666666661,
      "d": 991.6666666666861,
      "v": 70
    },
    {
      "midi": 62,
      "hit": false,
      "t": 322024.9999999994,
      "d": 1583.3333333333721,
      "v": 74
    },
    {
      "midi": 43,
      "hit": false,
      "t": 322516.6666666661,
      "d": 641.6666666666861,
      "v": 65
    },
    {
      "midi": 55,
      "hit": false,
      "t": 322958.3333333328,
      "d": 683.3333333333139,
      "v": 72
    },
    {
      "midi": 43,
      "hit": false,
      "t": 323499.9999999995,
      "d": 166.66666666662786,
      "v": 45
    },
    {
      "midi": 59,
      "hit": false,
      "t": 323499.9999999995,
      "d": 549.9999999999418,
      "v": 52
    },
    {
      "midi": 55,
      "hit": false,
      "t": 323974.9999999994,
      "d": 1125,
      "v": 62
    },
    {
      "midi": 45,
      "hit": false,
      "t": 323991.6666666661,
      "d": 2766.666666666628,
      "v": 65
    },
    {
      "midi": 60,
      "hit": false,
      "t": 323999.9999999994,
      "d": 1591.666666666686,
      "v": 72
    },
    {
      "midi": 64,
      "hit": false,
      "t": 324033.33333333273,
      "d": 1825.0000000000582,
      "v": 72
    },
    {
      "midi": 55,
      "hit": false,
      "t": 325491.6666666661,
      "d": 375,
      "v": 47
    },
    {
      "midi": 60,
      "hit": false,
      "t": 325691.6666666661,
      "d": 191.66666666668607,
      "v": 52
    },
    {
      "midi": 60,
      "hit": false,
      "t": 325991.6666666661,
      "d": 1158.3333333332557,
      "v": 72
    },
    {
      "midi": 55,
      "hit": false,
      "t": 325999.9999999994,
      "d": 833.3333333333139,
      "v": 72
    },
    {
      "midi": 64,
      "hit": false,
      "t": 325999.9999999994,
      "d": 1724.9999999999418,
      "v": 79
    },
    {
      "midi": 55,
      "hit": false,
      "t": 326991.66666666605,
      "d": 700,
      "v": 60
    },
    {
      "midi": 45,
      "hit": false,
      "t": 327016.66666666605,
      "d": 300,
      "v": 60
    },
    {
      "midi": 60,
      "hit": false,
      "t": 327499.99999999936,
      "d": 450,
      "v": 45
    },
    {
      "midi": 55,
      "hit": false,
      "t": 327999.99999999936,
      "d": 716.6666666666279,
      "v": 60
    },
    {
      "midi": 48,
      "hit": false,
      "t": 327999.99999999936,
      "d": 1433.3333333332557,
      "v": 65
    },
    {
      "midi": 60,
      "hit": false,
      "t": 328041.66666666605,
      "d": 1858.3333333332557,
      "v": 60
    },
    {
      "midi": 64,
      "hit": false,
      "t": 328083.3333333327,
      "d": 1816.6666666666279,
      "v": 72
    },
    {
      "midi": 55,
      "hit": false,
      "t": 329049.9999999993,
      "d": 758.3333333333139,
      "v": 72
    },
    {
      "midi": 55,
      "hit": false,
      "t": 329991.666666666,
      "d": 375,
      "v": 41
    },
    {
      "midi": 60,
      "hit": false,
      "t": 330016.666666666,
      "d": 1108.333333333314,
      "v": 72
    },
    {
      "midi": 64,
      "hit": false,
      "t": 330033.3333333327,
      "d": 1274.9999999999418,
      "v": 72
    },
    {
      "midi": 55,
      "hit": false,
      "t": 330999.9999999993,
      "d": 225,
      "v": 72
    },
    {
      "midi": 48,
      "hit": false,
      "t": 331008.3333333326,
      "d": 141.66666666668607,
      "v": 70
    },
    {
      "midi": 57,
      "hit": false,
      "t": 331966.66666666593,
      "d": 858.3333333333139,
      "v": 60
    },
    {
      "midi": 50,
      "hit": false,
      "t": 332016.66666666593,
      "d": 1150,
      "v": 72
    },
    {
      "midi": 62,
      "hit": false,
      "t": 332024.99999999924,
      "d": 891.6666666666861,
      "v": 72
    },
    {
      "midi": 66,
      "hit": false,
      "t": 332049.99999999924,
      "d": 1575,
      "v": 72
    },
    {
      "midi": 57,
      "hit": false,
      "t": 332999.99999999924,
      "d": 591.6666666666861,
      "v": 67
    },
    {
      "midi": 62,
      "hit": false,
      "t": 333016.66666666593,
      "d": 575,
      "v": 74
    },
    {
      "midi": 50,
      "hit": false,
      "t": 333508.3333333326,
      "d": 1541.6666666665114,
      "v": 60
    },
    {
      "midi": 57,
      "hit": false,
      "t": 333983.33333333256,
      "d": 716.6666666666279,
      "v": 65
    },
    {
      "midi": 62,
      "hit": false,
      "t": 334016.6666666659,
      "d": 816.6666666666279,
      "v": 74
    },
    {
      "midi": 66,
      "hit": false,
      "t": 334041.6666666659,
      "d": 1249.9999999999418,
      "v": 74
    },
    {
      "midi": 57,
      "hit": false,
      "t": 335016.6666666658,
      "d": 341.66666666668607,
      "v": 72
    },
    {
      "midi": 62,
      "hit": false,
      "t": 335016.6666666658,
      "d": 358.33333333337214,
      "v": 74
    },
    {
      "midi": 43,
      "hit": false,
      "t": 336016.6666666658,
      "d": 2441.666666666628,
      "v": 65
    },
    {
      "midi": 55,
      "hit": false,
      "t": 336083.3333333325,
      "d": 2383.3333333332557,
      "v": 55
    },
    {
      "midi": 59,
      "hit": false,
      "t": 336216.6666666658,
      "d": 2341.666666666628,
      "v": 62
    },
    {
      "midi": 62,
      "hit": false,
      "t": 336266.6666666658,
      "d": 2308.333333333314,
      "v": 65
    },
    {
      "midi": 67,
      "hit": false,
      "t": 336399.9999999991,
      "d": 2141.666666666628,
      "v": 74
    }
  ]
}